0, 0, Header, 1, 6, 96
1, 0, Start_track
1, 0, Copyright_t, "Copyright  1994-2001 Mozart Music Software"
1, 0, Text_t, "Piano Solo\015\012"
1, 0, Text_t, "<composer>\015\012"
1, 0, Sequencer_specific, 16, 68, 87, 77, 90, 86, 82, 83, 78, 32, 54, 46, 48, 46, 52, 46, 48
1, 0, Time_signature, 1, 2, 24, 8
1, 0, Tempo, 400000
1, 0, Key_signature, 0, "major"
1, 96, Time_signature, 2, 2, 24, 8
1, 1440, Time_signature, 1, 2, 24, 8
1, 1632, Time_signature, 2, 2, 24, 8
1, 2976, Time_signature, 1, 2, 24, 8
1, 3168, Time_signature, 2, 2, 24, 8
1, 6048, Time_signature, 1, 2, 24, 8
1, 6240, Time_signature, 2, 2, 24, 8
1, 9120, Time_signature, 1, 2, 24, 8
1, 9216, Key_signature, 3, "major"
1, 9312, Time_signature, 2, 2, 24, 8
1, 10656, Time_signature, 1, 2, 24, 8
1, 10752, Key_signature, 3, "major"
1, 10848, Time_signature, 2, 2, 24, 8
1, 12192, Time_signature, 1, 2, 24, 8
1, 12288, Tempo, 363636
1, 12384, Time_signature, 2, 2, 24, 8
1, 13728, Time_signature, 1, 2, 24, 8
1, 13824, Tempo, 363636
1, 13920, Time_signature, 2, 2, 24, 8
1, 15264, Time_signature, 1, 2, 24, 8
1, 15456, Time_signature, 2, 2, 24, 8
1, 18336, Time_signature, 1, 2, 24, 8
1, 18528, Time_signature, 2, 2, 24, 8
1, 21408, Time_signature, 1, 2, 24, 8
1, 21504, Tempo, 400000
1, 21600, Time_signature, 2, 2, 24, 8
1, 22944, Time_signature, 1, 2, 24, 8
1, 23040, Tempo, 400000
1, 23136, Time_signature, 2, 2, 24, 8
1, 24480, Time_signature, 1, 2, 24, 8
1, 24576, Key_signature, 0, "major"
1, 24672, Time_signature, 2, 2, 24, 8
1, 26016, Time_signature, 1, 2, 24, 8
1, 26112, Key_signature, 0, "major"
1, 26208, Time_signature, 2, 2, 24, 8
1, 27552, Time_signature, 1, 2, 24, 8
1, 27744, Time_signature, 2, 2, 24, 8
1, 30624, Time_signature, 1, 2, 24, 8
1, 30816, Time_signature, 2, 2, 24, 8
1, 33696, Time_signature, 1, 2, 24, 8
1, 33792, Key_signature, 3, "major"
1, 33888, Time_signature, 2, 2, 24, 8
1, 43302, End_track
2, 0, Start_track
2, 0, Program_c, 0, 0
2, 0, Control_c, 0, 7, 127
2, 0, Control_c, 0, 10, 64
2, 0, Note_on_c, 0, 71, 48
2, 23, Note_on_c, 0, 71, 0
2, 24, Note_on_c, 0, 69, 48
2, 47, Note_on_c, 0, 69, 0
2, 48, Note_on_c, 0, 68, 48
2, 71, Note_on_c, 0, 68, 0
2, 72, Note_on_c, 0, 69, 48
2, 95, Note_on_c, 0, 69, 0
2, 96, Note_on_c, 0, 72, 48
2, 135, Note_on_c, 0, 72, 0
2, 192, Note_on_c, 0, 74, 48
2, 215, Note_on_c, 0, 74, 0
2, 216, Note_on_c, 0, 72, 48
2, 239, Note_on_c, 0, 72, 0
2, 240, Note_on_c, 0, 71, 48
2, 263, Note_on_c, 0, 71, 0
2, 264, Note_on_c, 0, 72, 48
2, 287, Note_on_c, 0, 72, 0
2, 288, Note_on_c, 0, 76, 48
2, 327, Note_on_c, 0, 76, 0
2, 384, Note_on_c, 0, 77, 48
2, 407, Note_on_c, 0, 77, 0
2, 408, Note_on_c, 0, 76, 48
2, 431, Note_on_c, 0, 76, 0
2, 432, Note_on_c, 0, 75, 48
2, 455, Note_on_c, 0, 75, 0
2, 456, Note_on_c, 0, 76, 48
2, 479, Note_on_c, 0, 76, 0
2, 480, Note_on_c, 0, 83, 48
2, 503, Note_on_c, 0, 83, 0
2, 504, Note_on_c, 0, 81, 48
2, 527, Note_on_c, 0, 81, 0
2, 528, Note_on_c, 0, 80, 48
2, 551, Note_on_c, 0, 80, 0
2, 552, Note_on_c, 0, 81, 48
2, 575, Note_on_c, 0, 81, 0
2, 576, Note_on_c, 0, 83, 48
2, 599, Note_on_c, 0, 83, 0
2, 600, Note_on_c, 0, 81, 48
2, 623, Note_on_c, 0, 81, 0
2, 624, Note_on_c, 0, 80, 48
2, 647, Note_on_c, 0, 80, 0
2, 648, Note_on_c, 0, 81, 48
2, 671, Note_on_c, 0, 81, 0
2, 672, Note_on_c, 0, 84, 48
2, 761, Note_on_c, 0, 84, 0
2, 768, Note_on_c, 0, 81, 48
2, 813, Note_on_c, 0, 81, 0
2, 816, Note_on_c, 0, 84, 48
2, 861, Note_on_c, 0, 84, 0
2, 864, Note_on_c, 0, 79, 48
2, 870, Note_on_c, 0, 79, 0
2, 870, Note_on_c, 0, 81, 48
2, 876, Note_on_c, 0, 81, 0
2, 876, Note_on_c, 0, 83, 48
2, 909, Note_on_c, 0, 83, 0
2, 912, Note_on_c, 0, 81, 48
2, 912, Note_on_c, 0, 78, 48
2, 957, Note_on_c, 0, 81, 0
2, 957, Note_on_c, 0, 78, 0
2, 960, Note_on_c, 0, 79, 48
2, 960, Note_on_c, 0, 76, 48
2, 1005, Note_on_c, 0, 79, 0
2, 1005, Note_on_c, 0, 76, 0
2, 1008, Note_on_c, 0, 81, 48
2, 1008, Note_on_c, 0, 78, 48
2, 1053, Note_on_c, 0, 81, 0
2, 1053, Note_on_c, 0, 78, 0
2, 1056, Note_on_c, 0, 79, 48
2, 1062, Note_on_c, 0, 79, 0
2, 1062, Note_on_c, 0, 81, 48
2, 1068, Note_on_c, 0, 81, 0
2, 1068, Note_on_c, 0, 83, 48
2, 1101, Note_on_c, 0, 83, 0
2, 1104, Note_on_c, 0, 81, 48
2, 1104, Note_on_c, 0, 78, 48
2, 1149, Note_on_c, 0, 81, 0
2, 1149, Note_on_c, 0, 78, 0
2, 1152, Note_on_c, 0, 79, 48
2, 1152, Note_on_c, 0, 76, 48
2, 1197, Note_on_c, 0, 79, 0
2, 1197, Note_on_c, 0, 76, 0
2, 1200, Note_on_c, 0, 81, 48
2, 1200, Note_on_c, 0, 78, 48
2, 1245, Note_on_c, 0, 81, 0
2, 1245, Note_on_c, 0, 78, 0
2, 1248, Note_on_c, 0, 79, 48
2, 1254, Note_on_c, 0, 79, 0
2, 1254, Note_on_c, 0, 81, 48
2, 1260, Note_on_c, 0, 81, 0
2, 1260, Note_on_c, 0, 83, 48
2, 1293, Note_on_c, 0, 83, 0
2, 1296, Note_on_c, 0, 81, 48
2, 1296, Note_on_c, 0, 78, 48
2, 1341, Note_on_c, 0, 81, 0
2, 1341, Note_on_c, 0, 78, 0
2, 1344, Note_on_c, 0, 79, 48
2, 1344, Note_on_c, 0, 76, 48
2, 1389, Note_on_c, 0, 79, 0
2, 1389, Note_on_c, 0, 76, 0
2, 1392, Note_on_c, 0, 78, 48
2, 1392, Note_on_c, 0, 75, 48
2, 1437, Note_on_c, 0, 78, 0
2, 1437, Note_on_c, 0, 75, 0
2, 1440, Note_on_c, 0, 76, 48
2, 1529, Note_on_c, 0, 76, 0
2, 1536, Note_on_c, 0, 71, 48
2, 1559, Note_on_c, 0, 71, 0
2, 1560, Note_on_c, 0, 69, 48
2, 1583, Note_on_c, 0, 69, 0
2, 1584, Note_on_c, 0, 68, 48
2, 1607, Note_on_c, 0, 68, 0
2, 1608, Note_on_c, 0, 69, 48
2, 1631, Note_on_c, 0, 69, 0
2, 1632, Note_on_c, 0, 72, 48
2, 1671, Note_on_c, 0, 72, 0
2, 1728, Note_on_c, 0, 74, 48
2, 1751, Note_on_c, 0, 74, 0
2, 1752, Note_on_c, 0, 72, 48
2, 1775, Note_on_c, 0, 72, 0
2, 1776, Note_on_c, 0, 71, 48
2, 1799, Note_on_c, 0, 71, 0
2, 1800, Note_on_c, 0, 72, 48
2, 1823, Note_on_c, 0, 72, 0
2, 1824, Note_on_c, 0, 76, 48
2, 1863, Note_on_c, 0, 76, 0
2, 1920, Note_on_c, 0, 77, 48
2, 1943, Note_on_c, 0, 77, 0
2, 1944, Note_on_c, 0, 76, 48
2, 1967, Note_on_c, 0, 76, 0
2, 1968, Note_on_c, 0, 75, 48
2, 1991, Note_on_c, 0, 75, 0
2, 1992, Note_on_c, 0, 76, 48
2, 2015, Note_on_c, 0, 76, 0
2, 2016, Note_on_c, 0, 83, 48
2, 2039, Note_on_c, 0, 83, 0
2, 2040, Note_on_c, 0, 81, 48
2, 2063, Note_on_c, 0, 81, 0
2, 2064, Note_on_c, 0, 80, 48
2, 2087, Note_on_c, 0, 80, 0
2, 2088, Note_on_c, 0, 81, 48
2, 2111, Note_on_c, 0, 81, 0
2, 2112, Note_on_c, 0, 83, 48
2, 2135, Note_on_c, 0, 83, 0
2, 2136, Note_on_c, 0, 81, 48
2, 2159, Note_on_c, 0, 81, 0
2, 2160, Note_on_c, 0, 80, 48
2, 2183, Note_on_c, 0, 80, 0
2, 2184, Note_on_c, 0, 81, 48
2, 2207, Note_on_c, 0, 81, 0
2, 2208, Note_on_c, 0, 84, 48
2, 2297, Note_on_c, 0, 84, 0
2, 2304, Note_on_c, 0, 81, 48
2, 2349, Note_on_c, 0, 81, 0
2, 2352, Note_on_c, 0, 84, 48
2, 2397, Note_on_c, 0, 84, 0
2, 2400, Note_on_c, 0, 79, 48
2, 2406, Note_on_c, 0, 79, 0
2, 2406, Note_on_c, 0, 81, 48
2, 2412, Note_on_c, 0, 81, 0
2, 2412, Note_on_c, 0, 83, 48
2, 2445, Note_on_c, 0, 83, 0
2, 2448, Note_on_c, 0, 81, 48
2, 2448, Note_on_c, 0, 78, 48
2, 2493, Note_on_c, 0, 81, 0
2, 2493, Note_on_c, 0, 78, 0
2, 2496, Note_on_c, 0, 79, 48
2, 2496, Note_on_c, 0, 76, 48
2, 2541, Note_on_c, 0, 79, 0
2, 2541, Note_on_c, 0, 76, 0
2, 2544, Note_on_c, 0, 81, 48
2, 2544, Note_on_c, 0, 78, 48
2, 2589, Note_on_c, 0, 81, 0
2, 2589, Note_on_c, 0, 78, 0
2, 2592, Note_on_c, 0, 79, 48
2, 2598, Note_on_c, 0, 79, 0
2, 2598, Note_on_c, 0, 81, 48
2, 2604, Note_on_c, 0, 81, 0
2, 2604, Note_on_c, 0, 83, 48
2, 2637, Note_on_c, 0, 83, 0
2, 2640, Note_on_c, 0, 81, 48
2, 2640, Note_on_c, 0, 78, 48
2, 2685, Note_on_c, 0, 81, 0
2, 2685, Note_on_c, 0, 78, 0
2, 2688, Note_on_c, 0, 79, 48
2, 2688, Note_on_c, 0, 76, 48
2, 2733, Note_on_c, 0, 79, 0
2, 2733, Note_on_c, 0, 76, 0
2, 2736, Note_on_c, 0, 81, 48
2, 2736, Note_on_c, 0, 78, 48
2, 2781, Note_on_c, 0, 81, 0
2, 2781, Note_on_c, 0, 78, 0
2, 2784, Note_on_c, 0, 79, 48
2, 2790, Note_on_c, 0, 79, 0
2, 2790, Note_on_c, 0, 81, 48
2, 2796, Note_on_c, 0, 81, 0
2, 2796, Note_on_c, 0, 83, 48
2, 2829, Note_on_c, 0, 83, 0
2, 2832, Note_on_c, 0, 81, 48
2, 2832, Note_on_c, 0, 78, 48
2, 2877, Note_on_c, 0, 81, 0
2, 2877, Note_on_c, 0, 78, 0
2, 2880, Note_on_c, 0, 79, 48
2, 2880, Note_on_c, 0, 76, 48
2, 2925, Note_on_c, 0, 79, 0
2, 2925, Note_on_c, 0, 76, 0
2, 2928, Note_on_c, 0, 78, 48
2, 2928, Note_on_c, 0, 75, 48
2, 2973, Note_on_c, 0, 78, 0
2, 2973, Note_on_c, 0, 75, 0
2, 2976, Note_on_c, 0, 76, 48
2, 3065, Note_on_c, 0, 76, 0
2, 3072, Note_on_c, 0, 76, 71
2, 3072, Note_on_c, 0, 72, 71
2, 3092, Note_on_c, 0, 76, 0
2, 3092, Note_on_c, 0, 72, 0
2, 3120, Note_on_c, 0, 77, 71
2, 3120, Note_on_c, 0, 74, 71
2, 3140, Note_on_c, 0, 77, 0
2, 3140, Note_on_c, 0, 74, 0
2, 3168, Note_on_c, 0, 79, 71
2, 3168, Note_on_c, 0, 76, 71
2, 3188, Note_on_c, 0, 79, 0
2, 3188, Note_on_c, 0, 76, 0
2, 3216, Note_on_c, 0, 79, 71
2, 3216, Note_on_c, 0, 76, 71
2, 3236, Note_on_c, 0, 79, 0
2, 3236, Note_on_c, 0, 76, 0
2, 3264, Note_on_c, 0, 81, 71
2, 3287, Note_on_c, 0, 81, 0
2, 3288, Note_on_c, 0, 79, 71
2, 3311, Note_on_c, 0, 79, 0
2, 3312, Note_on_c, 0, 77, 71
2, 3335, Note_on_c, 0, 77, 0
2, 3336, Note_on_c, 0, 76, 71
2, 3359, Note_on_c, 0, 76, 0
2, 3360, Note_on_c, 0, 74, 71
2, 3449, Note_on_c, 0, 74, 0
2, 3744, Note_on_c, 0, 74, 71
2, 3744, Note_on_c, 0, 71, 71
2, 3833, Note_on_c, 0, 74, 0
2, 3833, Note_on_c, 0, 71, 0
2, 3840, Note_on_c, 0, 72, 71
2, 3840, Note_on_c, 0, 69, 71
2, 3860, Note_on_c, 0, 72, 0
2, 3860, Note_on_c, 0, 69, 0
2, 3888, Note_on_c, 0, 74, 71
2, 3888, Note_on_c, 0, 71, 71
2, 3908, Note_on_c, 0, 74, 0
2, 3908, Note_on_c, 0, 71, 0
2, 3936, Note_on_c, 0, 76, 71
2, 3936, Note_on_c, 0, 72, 71
2, 3956, Note_on_c, 0, 76, 0
2, 3956, Note_on_c, 0, 72, 0
2, 3984, Note_on_c, 0, 76, 71
2, 3984, Note_on_c, 0, 72, 71
2, 4004, Note_on_c, 0, 76, 0
2, 4004, Note_on_c, 0, 72, 0
2, 4032, Note_on_c, 0, 77, 71
2, 4055, Note_on_c, 0, 77, 0
2, 4056, Note_on_c, 0, 76, 71
2, 4079, Note_on_c, 0, 76, 0
2, 4080, Note_on_c, 0, 74, 71
2, 4103, Note_on_c, 0, 74, 0
2, 4104, Note_on_c, 0, 72, 71
2, 4127, Note_on_c, 0, 72, 0
2, 4128, Note_on_c, 0, 71, 71
2, 4217, Note_on_c, 0, 71, 0
2, 4224, Note_on_c, 0, 72, 71
2, 4224, Note_on_c, 0, 69, 71
2, 4244, Note_on_c, 0, 72, 0
2, 4244, Note_on_c, 0, 69, 0
2, 4272, Note_on_c, 0, 74, 71
2, 4272, Note_on_c, 0, 71, 71
2, 4292, Note_on_c, 0, 74, 0
2, 4292, Note_on_c, 0, 71, 0
2, 4320, Note_on_c, 0, 76, 71
2, 4320, Note_on_c, 0, 72, 71
2, 4340, Note_on_c, 0, 76, 0
2, 4340, Note_on_c, 0, 72, 0
2, 4368, Note_on_c, 0, 76, 71
2, 4368, Note_on_c, 0, 72, 71
2, 4388, Note_on_c, 0, 76, 0
2, 4388, Note_on_c, 0, 72, 0
2, 4416, Note_on_c, 0, 77, 71
2, 4439, Note_on_c, 0, 77, 0
2, 4440, Note_on_c, 0, 76, 71
2, 4463, Note_on_c, 0, 76, 0
2, 4464, Note_on_c, 0, 74, 71
2, 4487, Note_on_c, 0, 74, 0
2, 4488, Note_on_c, 0, 72, 71
2, 4511, Note_on_c, 0, 72, 0
2, 4512, Note_on_c, 0, 71, 71
2, 4512, Note_on_c, 0, 68, 71
2, 4601, Note_on_c, 0, 71, 0
2, 4601, Note_on_c, 0, 68, 0
2, 4608, Note_on_c, 0, 71, 48
2, 4631, Note_on_c, 0, 71, 0
2, 4632, Note_on_c, 0, 69, 48
2, 4655, Note_on_c, 0, 69, 0
2, 4656, Note_on_c, 0, 68, 48
2, 4679, Note_on_c, 0, 68, 0
2, 4680, Note_on_c, 0, 69, 48
2, 4703, Note_on_c, 0, 69, 0
2, 4704, Note_on_c, 0, 72, 48
2, 4743, Note_on_c, 0, 72, 0
2, 4800, Note_on_c, 0, 74, 48
2, 4823, Note_on_c, 0, 74, 0
2, 4824, Note_on_c, 0, 72, 48
2, 4847, Note_on_c, 0, 72, 0
2, 4848, Note_on_c, 0, 71, 48
2, 4871, Note_on_c, 0, 71, 0
2, 4872, Note_on_c, 0, 72, 48
2, 4895, Note_on_c, 0, 72, 0
2, 4896, Note_on_c, 0, 76, 48
2, 4935, Note_on_c, 0, 76, 0
2, 4992, Note_on_c, 0, 77, 48
2, 5015, Note_on_c, 0, 77, 0
2, 5016, Note_on_c, 0, 76, 48
2, 5039, Note_on_c, 0, 76, 0
2, 5040, Note_on_c, 0, 75, 48
2, 5063, Note_on_c, 0, 75, 0
2, 5064, Note_on_c, 0, 76, 48
2, 5087, Note_on_c, 0, 76, 0
2, 5088, Note_on_c, 0, 83, 48
2, 5111, Note_on_c, 0, 83, 0
2, 5112, Note_on_c, 0, 81, 48
2, 5135, Note_on_c, 0, 81, 0
2, 5136, Note_on_c, 0, 80, 48
2, 5159, Note_on_c, 0, 80, 0
2, 5160, Note_on_c, 0, 81, 48
2, 5183, Note_on_c, 0, 81, 0
2, 5184, Note_on_c, 0, 83, 48
2, 5207, Note_on_c, 0, 83, 0
2, 5208, Note_on_c, 0, 81, 48
2, 5231, Note_on_c, 0, 81, 0
2, 5232, Note_on_c, 0, 80, 48
2, 5255, Note_on_c, 0, 80, 0
2, 5256, Note_on_c, 0, 81, 48
2, 5279, Note_on_c, 0, 81, 0
2, 5280, Note_on_c, 0, 84, 48
2, 5369, Note_on_c, 0, 84, 0
2, 5376, Note_on_c, 0, 81, 48
2, 5421, Note_on_c, 0, 81, 0
2, 5424, Note_on_c, 0, 83, 48
2, 5469, Note_on_c, 0, 83, 0
2, 5472, Note_on_c, 0, 81, 48
2, 5478, Note_on_c, 0, 81, 0
2, 5478, Note_on_c, 0, 83, 48
2, 5484, Note_on_c, 0, 83, 0
2, 5484, Note_on_c, 0, 84, 48
2, 5517, Note_on_c, 0, 84, 0
2, 5520, Note_on_c, 0, 83, 48
2, 5565, Note_on_c, 0, 83, 0
2, 5568, Note_on_c, 0, 81, 48
2, 5613, Note_on_c, 0, 81, 0
2, 5616, Note_on_c, 0, 80, 48
2, 5661, Note_on_c, 0, 80, 0
2, 5664, Note_on_c, 0, 81, 48
2, 5676, Note_on_c, 0, 81, 0
2, 5676, Note_on_c, 0, 83, 48
2, 5688, Note_on_c, 0, 83, 0
2, 5688, Note_on_c, 0, 81, 48
2, 5709, Note_on_c, 0, 81, 0
2, 5712, Note_on_c, 0, 76, 48
2, 5757, Note_on_c, 0, 76, 0
2, 5760, Note_on_c, 0, 77, 48
2, 5805, Note_on_c, 0, 77, 0
2, 5808, Note_on_c, 0, 74, 48
2, 5853, Note_on_c, 0, 74, 0
2, 5856, Note_on_c, 0, 72, 48
2, 5945, Note_on_c, 0, 72, 0
2, 5952, Note_on_c, 0, 71, 48
2, 5964, Note_on_c, 0, 71, 0
2, 5964, Note_on_c, 0, 72, 48
2, 5976, Note_on_c, 0, 72, 0
2, 5976, Note_on_c, 0, 71, 48
2, 5988, Note_on_c, 0, 71, 0
2, 5988, Note_on_c, 0, 72, 48
2, 6000, Note_on_c, 0, 72, 0
2, 6000, Note_on_c, 0, 71, 48
2, 6012, Note_on_c, 0, 71, 0
2, 6012, Note_on_c, 0, 72, 48
2, 6019, Note_on_c, 0, 72, 0
2, 6024, Note_on_c, 0, 69, 48
2, 6036, Note_on_c, 0, 69, 0
2, 6036, Note_on_c, 0, 71, 48
2, 6048, Note_on_c, 0, 71, 0
2, 6048, Note_on_c, 0, 69, 48
2, 6137, Note_on_c, 0, 69, 0
2, 6144, Note_on_c, 0, 76, 71
2, 6144, Note_on_c, 0, 72, 71
2, 6164, Note_on_c, 0, 76, 0
2, 6164, Note_on_c, 0, 72, 0
2, 6192, Note_on_c, 0, 77, 71
2, 6192, Note_on_c, 0, 74, 71
2, 6212, Note_on_c, 0, 77, 0
2, 6212, Note_on_c, 0, 74, 0
2, 6240, Note_on_c, 0, 79, 71
2, 6240, Note_on_c, 0, 76, 71
2, 6260, Note_on_c, 0, 79, 0
2, 6260, Note_on_c, 0, 76, 0
2, 6288, Note_on_c, 0, 79, 71
2, 6288, Note_on_c, 0, 76, 71
2, 6308, Note_on_c, 0, 79, 0
2, 6308, Note_on_c, 0, 76, 0
2, 6336, Note_on_c, 0, 81, 71
2, 6359, Note_on_c, 0, 81, 0
2, 6360, Note_on_c, 0, 79, 71
2, 6383, Note_on_c, 0, 79, 0
2, 6384, Note_on_c, 0, 77, 71
2, 6407, Note_on_c, 0, 77, 0
2, 6408, Note_on_c, 0, 76, 71
2, 6431, Note_on_c, 0, 76, 0
2, 6432, Note_on_c, 0, 74, 71
2, 6521, Note_on_c, 0, 74, 0
2, 6816, Note_on_c, 0, 74, 71
2, 6816, Note_on_c, 0, 71, 71
2, 6905, Note_on_c, 0, 74, 0
2, 6905, Note_on_c, 0, 71, 0
2, 6912, Note_on_c, 0, 72, 71
2, 6912, Note_on_c, 0, 69, 71
2, 6932, Note_on_c, 0, 72, 0
2, 6932, Note_on_c, 0, 69, 0
2, 6960, Note_on_c, 0, 74, 71
2, 6960, Note_on_c, 0, 71, 71
2, 6980, Note_on_c, 0, 74, 0
2, 6980, Note_on_c, 0, 71, 0
2, 7008, Note_on_c, 0, 76, 71
2, 7008, Note_on_c, 0, 72, 71
2, 7028, Note_on_c, 0, 76, 0
2, 7028, Note_on_c, 0, 72, 0
2, 7056, Note_on_c, 0, 76, 71
2, 7056, Note_on_c, 0, 72, 71
2, 7076, Note_on_c, 0, 76, 0
2, 7076, Note_on_c, 0, 72, 0
2, 7104, Note_on_c, 0, 77, 71
2, 7127, Note_on_c, 0, 77, 0
2, 7128, Note_on_c, 0, 76, 71
2, 7151, Note_on_c, 0, 76, 0
2, 7152, Note_on_c, 0, 74, 71
2, 7175, Note_on_c, 0, 74, 0
2, 7176, Note_on_c, 0, 72, 71
2, 7199, Note_on_c, 0, 72, 0
2, 7200, Note_on_c, 0, 71, 71
2, 7289, Note_on_c, 0, 71, 0
2, 7296, Note_on_c, 0, 72, 71
2, 7296, Note_on_c, 0, 69, 71
2, 7316, Note_on_c, 0, 72, 0
2, 7316, Note_on_c, 0, 69, 0
2, 7344, Note_on_c, 0, 74, 71
2, 7344, Note_on_c, 0, 71, 71
2, 7364, Note_on_c, 0, 74, 0
2, 7364, Note_on_c, 0, 71, 0
2, 7392, Note_on_c, 0, 76, 71
2, 7392, Note_on_c, 0, 72, 71
2, 7412, Note_on_c, 0, 76, 0
2, 7412, Note_on_c, 0, 72, 0
2, 7440, Note_on_c, 0, 76, 71
2, 7440, Note_on_c, 0, 72, 71
2, 7460, Note_on_c, 0, 76, 0
2, 7460, Note_on_c, 0, 72, 0
2, 7488, Note_on_c, 0, 77, 71
2, 7511, Note_on_c, 0, 77, 0
2, 7512, Note_on_c, 0, 76, 71
2, 7535, Note_on_c, 0, 76, 0
2, 7536, Note_on_c, 0, 74, 71
2, 7559, Note_on_c, 0, 74, 0
2, 7560, Note_on_c, 0, 72, 71
2, 7583, Note_on_c, 0, 72, 0
2, 7584, Note_on_c, 0, 71, 71
2, 7584, Note_on_c, 0, 68, 71
2, 7673, Note_on_c, 0, 71, 0
2, 7673, Note_on_c, 0, 68, 0
2, 7680, Note_on_c, 0, 71, 48
2, 7703, Note_on_c, 0, 71, 0
2, 7704, Note_on_c, 0, 69, 48
2, 7727, Note_on_c, 0, 69, 0
2, 7728, Note_on_c, 0, 68, 48
2, 7751, Note_on_c, 0, 68, 0
2, 7752, Note_on_c, 0, 69, 48
2, 7775, Note_on_c, 0, 69, 0
2, 7776, Note_on_c, 0, 72, 48
2, 7815, Note_on_c, 0, 72, 0
2, 7872, Note_on_c, 0, 74, 48
2, 7895, Note_on_c, 0, 74, 0
2, 7896, Note_on_c, 0, 72, 48
2, 7919, Note_on_c, 0, 72, 0
2, 7920, Note_on_c, 0, 71, 48
2, 7943, Note_on_c, 0, 71, 0
2, 7944, Note_on_c, 0, 72, 48
2, 7967, Note_on_c, 0, 72, 0
2, 7968, Note_on_c, 0, 76, 48
2, 8007, Note_on_c, 0, 76, 0
2, 8064, Note_on_c, 0, 77, 48
2, 8087, Note_on_c, 0, 77, 0
2, 8088, Note_on_c, 0, 76, 48
2, 8111, Note_on_c, 0, 76, 0
2, 8112, Note_on_c, 0, 75, 48
2, 8135, Note_on_c, 0, 75, 0
2, 8136, Note_on_c, 0, 76, 48
2, 8159, Note_on_c, 0, 76, 0
2, 8160, Note_on_c, 0, 83, 48
2, 8183, Note_on_c, 0, 83, 0
2, 8184, Note_on_c, 0, 81, 48
2, 8207, Note_on_c, 0, 81, 0
2, 8208, Note_on_c, 0, 80, 48
2, 8231, Note_on_c, 0, 80, 0
2, 8232, Note_on_c, 0, 81, 48
2, 8255, Note_on_c, 0, 81, 0
2, 8256, Note_on_c, 0, 83, 48
2, 8279, Note_on_c, 0, 83, 0
2, 8280, Note_on_c, 0, 81, 48
2, 8303, Note_on_c, 0, 81, 0
2, 8304, Note_on_c, 0, 80, 48
2, 8327, Note_on_c, 0, 80, 0
2, 8328, Note_on_c, 0, 81, 48
2, 8351, Note_on_c, 0, 81, 0
2, 8352, Note_on_c, 0, 84, 48
2, 8441, Note_on_c, 0, 84, 0
2, 8448, Note_on_c, 0, 81, 48
2, 8493, Note_on_c, 0, 81, 0
2, 8496, Note_on_c, 0, 83, 48
2, 8541, Note_on_c, 0, 83, 0
2, 8544, Note_on_c, 0, 81, 48
2, 8550, Note_on_c, 0, 81, 0
2, 8550, Note_on_c, 0, 83, 48
2, 8556, Note_on_c, 0, 83, 0
2, 8556, Note_on_c, 0, 84, 48
2, 8589, Note_on_c, 0, 84, 0
2, 8592, Note_on_c, 0, 83, 48
2, 8637, Note_on_c, 0, 83, 0
2, 8640, Note_on_c, 0, 81, 48
2, 8685, Note_on_c, 0, 81, 0
2, 8688, Note_on_c, 0, 80, 48
2, 8733, Note_on_c, 0, 80, 0
2, 8736, Note_on_c, 0, 81, 48
2, 8748, Note_on_c, 0, 81, 0
2, 8748, Note_on_c, 0, 83, 48
2, 8760, Note_on_c, 0, 83, 0
2, 8760, Note_on_c, 0, 81, 48
2, 8781, Note_on_c, 0, 81, 0
2, 8784, Note_on_c, 0, 76, 48
2, 8829, Note_on_c, 0, 76, 0
2, 8832, Note_on_c, 0, 77, 48
2, 8877, Note_on_c, 0, 77, 0
2, 8880, Note_on_c, 0, 74, 48
2, 8925, Note_on_c, 0, 74, 0
2, 8928, Note_on_c, 0, 72, 48
2, 9017, Note_on_c, 0, 72, 0
2, 9024, Note_on_c, 0, 71, 48
2, 9036, Note_on_c, 0, 71, 0
2, 9036, Note_on_c, 0, 72, 48
2, 9048, Note_on_c, 0, 72, 0
2, 9048, Note_on_c, 0, 71, 48
2, 9060, Note_on_c, 0, 71, 0
2, 9060, Note_on_c, 0, 72, 48
2, 9072, Note_on_c, 0, 72, 0
2, 9072, Note_on_c, 0, 71, 48
2, 9084, Note_on_c, 0, 71, 0
2, 9084, Note_on_c, 0, 72, 48
2, 9091, Note_on_c, 0, 72, 0
2, 9096, Note_on_c, 0, 69, 48
2, 9108, Note_on_c, 0, 69, 0
2, 9108, Note_on_c, 0, 71, 48
2, 9120, Note_on_c, 0, 71, 0
2, 9120, Note_on_c, 0, 69, 48
2, 9209, Note_on_c, 0, 69, 0
2, 9216, Note_on_c, 0, 81, 85
2, 9216, Note_on_c, 0, 69, 85
2, 9236, Note_on_c, 0, 81, 0
2, 9236, Note_on_c, 0, 69, 0
2, 9264, Note_on_c, 0, 83, 85
2, 9264, Note_on_c, 0, 71, 85
2, 9284, Note_on_c, 0, 83, 0
2, 9284, Note_on_c, 0, 71, 0
2, 9312, Note_on_c, 0, 85, 85
2, 9312, Note_on_c, 0, 73, 85
2, 9406, Note_on_c, 0, 85, 0
2, 9406, Note_on_c, 0, 73, 0
2, 9408, Note_on_c, 0, 81, 85
2, 9408, Note_on_c, 0, 69, 85
2, 9428, Note_on_c, 0, 81, 0
2, 9428, Note_on_c, 0, 69, 0
2, 9456, Note_on_c, 0, 83, 85
2, 9456, Note_on_c, 0, 71, 85
2, 9476, Note_on_c, 0, 83, 0
2, 9476, Note_on_c, 0, 71, 0
2, 9504, Note_on_c, 0, 85, 85
2, 9504, Note_on_c, 0, 73, 85
2, 9524, Note_on_c, 0, 85, 0
2, 9524, Note_on_c, 0, 73, 0
2, 9552, Note_on_c, 0, 83, 85
2, 9552, Note_on_c, 0, 71, 85
2, 9572, Note_on_c, 0, 83, 0
2, 9572, Note_on_c, 0, 71, 0
2, 9600, Note_on_c, 0, 81, 85
2, 9600, Note_on_c, 0, 69, 85
2, 9620, Note_on_c, 0, 81, 0
2, 9620, Note_on_c, 0, 69, 0
2, 9648, Note_on_c, 0, 80, 85
2, 9648, Note_on_c, 0, 68, 85
2, 9668, Note_on_c, 0, 80, 0
2, 9668, Note_on_c, 0, 68, 0
2, 9696, Note_on_c, 0, 78, 85
2, 9696, Note_on_c, 0, 66, 85
2, 9716, Note_on_c, 0, 78, 0
2, 9716, Note_on_c, 0, 66, 0
2, 9744, Note_on_c, 0, 80, 85
2, 9744, Note_on_c, 0, 68, 85
2, 9764, Note_on_c, 0, 80, 0
2, 9764, Note_on_c, 0, 68, 0
2, 9792, Note_on_c, 0, 81, 85
2, 9792, Note_on_c, 0, 69, 85
2, 9812, Note_on_c, 0, 81, 0
2, 9812, Note_on_c, 0, 69, 0
2, 9840, Note_on_c, 0, 83, 85
2, 9840, Note_on_c, 0, 71, 85
2, 9860, Note_on_c, 0, 83, 0
2, 9860, Note_on_c, 0, 71, 0
2, 9888, Note_on_c, 0, 80, 85
2, 9888, Note_on_c, 0, 68, 85
2, 9908, Note_on_c, 0, 80, 0
2, 9908, Note_on_c, 0, 68, 0
2, 9936, Note_on_c, 0, 76, 85
2, 9936, Note_on_c, 0, 64, 85
2, 9956, Note_on_c, 0, 76, 0
2, 9956, Note_on_c, 0, 64, 0
2, 9984, Note_on_c, 0, 81, 85
2, 9984, Note_on_c, 0, 69, 85
2, 10004, Note_on_c, 0, 81, 0
2, 10004, Note_on_c, 0, 69, 0
2, 10032, Note_on_c, 0, 83, 85
2, 10032, Note_on_c, 0, 71, 85
2, 10052, Note_on_c, 0, 83, 0
2, 10052, Note_on_c, 0, 71, 0
2, 10080, Note_on_c, 0, 85, 85
2, 10080, Note_on_c, 0, 73, 85
2, 10174, Note_on_c, 0, 85, 0
2, 10174, Note_on_c, 0, 73, 0
2, 10176, Note_on_c, 0, 81, 85
2, 10176, Note_on_c, 0, 69, 85
2, 10196, Note_on_c, 0, 81, 0
2, 10196, Note_on_c, 0, 69, 0
2, 10224, Note_on_c, 0, 83, 85
2, 10224, Note_on_c, 0, 71, 85
2, 10244, Note_on_c, 0, 83, 0
2, 10244, Note_on_c, 0, 71, 0
2, 10272, Note_on_c, 0, 85, 85
2, 10272, Note_on_c, 0, 73, 85
2, 10292, Note_on_c, 0, 85, 0
2, 10292, Note_on_c, 0, 73, 0
2, 10320, Note_on_c, 0, 83, 85
2, 10320, Note_on_c, 0, 71, 85
2, 10340, Note_on_c, 0, 83, 0
2, 10340, Note_on_c, 0, 71, 0
2, 10368, Note_on_c, 0, 81, 85
2, 10368, Note_on_c, 0, 69, 85
2, 10388, Note_on_c, 0, 81, 0
2, 10388, Note_on_c, 0, 69, 0
2, 10416, Note_on_c, 0, 80, 85
2, 10416, Note_on_c, 0, 68, 85
2, 10436, Note_on_c, 0, 80, 0
2, 10436, Note_on_c, 0, 68, 0
2, 10464, Note_on_c, 0, 78, 85
2, 10464, Note_on_c, 0, 66, 85
2, 10484, Note_on_c, 0, 78, 0
2, 10484, Note_on_c, 0, 66, 0
2, 10512, Note_on_c, 0, 83, 85
2, 10512, Note_on_c, 0, 71, 85
2, 10532, Note_on_c, 0, 83, 0
2, 10532, Note_on_c, 0, 71, 0
2, 10560, Note_on_c, 0, 80, 85
2, 10560, Note_on_c, 0, 68, 85
2, 10580, Note_on_c, 0, 80, 0
2, 10580, Note_on_c, 0, 68, 0
2, 10608, Note_on_c, 0, 76, 85
2, 10608, Note_on_c, 0, 64, 85
2, 10628, Note_on_c, 0, 76, 0
2, 10628, Note_on_c, 0, 64, 0
2, 10656, Note_on_c, 0, 81, 85
2, 10656, Note_on_c, 0, 69, 85
2, 10750, Note_on_c, 0, 81, 0
2, 10750, Note_on_c, 0, 69, 0
2, 10752, Note_on_c, 0, 81, 85
2, 10752, Note_on_c, 0, 69, 85
2, 10772, Note_on_c, 0, 81, 0
2, 10772, Note_on_c, 0, 69, 0
2, 10800, Note_on_c, 0, 83, 85
2, 10800, Note_on_c, 0, 71, 85
2, 10820, Note_on_c, 0, 83, 0
2, 10820, Note_on_c, 0, 71, 0
2, 10848, Note_on_c, 0, 85, 85
2, 10848, Note_on_c, 0, 73, 85
2, 10942, Note_on_c, 0, 85, 0
2, 10942, Note_on_c, 0, 73, 0
2, 10944, Note_on_c, 0, 81, 85
2, 10944, Note_on_c, 0, 69, 85
2, 10964, Note_on_c, 0, 81, 0
2, 10964, Note_on_c, 0, 69, 0
2, 10992, Note_on_c, 0, 83, 85
2, 10992, Note_on_c, 0, 71, 85
2, 11012, Note_on_c, 0, 83, 0
2, 11012, Note_on_c, 0, 71, 0
2, 11040, Note_on_c, 0, 85, 85
2, 11040, Note_on_c, 0, 73, 85
2, 11060, Note_on_c, 0, 85, 0
2, 11060, Note_on_c, 0, 73, 0
2, 11088, Note_on_c, 0, 83, 85
2, 11088, Note_on_c, 0, 71, 85
2, 11108, Note_on_c, 0, 83, 0
2, 11108, Note_on_c, 0, 71, 0
2, 11136, Note_on_c, 0, 81, 85
2, 11136, Note_on_c, 0, 69, 85
2, 11156, Note_on_c, 0, 81, 0
2, 11156, Note_on_c, 0, 69, 0
2, 11184, Note_on_c, 0, 80, 85
2, 11184, Note_on_c, 0, 68, 85
2, 11204, Note_on_c, 0, 80, 0
2, 11204, Note_on_c, 0, 68, 0
2, 11232, Note_on_c, 0, 78, 85
2, 11232, Note_on_c, 0, 66, 85
2, 11252, Note_on_c, 0, 78, 0
2, 11252, Note_on_c, 0, 66, 0
2, 11280, Note_on_c, 0, 80, 85
2, 11280, Note_on_c, 0, 68, 85
2, 11300, Note_on_c, 0, 80, 0
2, 11300, Note_on_c, 0, 68, 0
2, 11328, Note_on_c, 0, 81, 85
2, 11328, Note_on_c, 0, 69, 85
2, 11348, Note_on_c, 0, 81, 0
2, 11348, Note_on_c, 0, 69, 0
2, 11376, Note_on_c, 0, 83, 85
2, 11376, Note_on_c, 0, 71, 85
2, 11396, Note_on_c, 0, 83, 0
2, 11396, Note_on_c, 0, 71, 0
2, 11424, Note_on_c, 0, 80, 85
2, 11424, Note_on_c, 0, 68, 85
2, 11444, Note_on_c, 0, 80, 0
2, 11444, Note_on_c, 0, 68, 0
2, 11472, Note_on_c, 0, 76, 85
2, 11472, Note_on_c, 0, 64, 85
2, 11492, Note_on_c, 0, 76, 0
2, 11492, Note_on_c, 0, 64, 0
2, 11520, Note_on_c, 0, 81, 85
2, 11520, Note_on_c, 0, 69, 85
2, 11540, Note_on_c, 0, 81, 0
2, 11540, Note_on_c, 0, 69, 0
2, 11568, Note_on_c, 0, 83, 85
2, 11568, Note_on_c, 0, 71, 85
2, 11588, Note_on_c, 0, 83, 0
2, 11588, Note_on_c, 0, 71, 0
2, 11616, Note_on_c, 0, 85, 85
2, 11616, Note_on_c, 0, 73, 85
2, 11710, Note_on_c, 0, 85, 0
2, 11710, Note_on_c, 0, 73, 0
2, 11712, Note_on_c, 0, 81, 85
2, 11712, Note_on_c, 0, 69, 85
2, 11732, Note_on_c, 0, 81, 0
2, 11732, Note_on_c, 0, 69, 0
2, 11760, Note_on_c, 0, 83, 85
2, 11760, Note_on_c, 0, 71, 85
2, 11780, Note_on_c, 0, 83, 0
2, 11780, Note_on_c, 0, 71, 0
2, 11808, Note_on_c, 0, 85, 85
2, 11808, Note_on_c, 0, 73, 85
2, 11828, Note_on_c, 0, 85, 0
2, 11828, Note_on_c, 0, 73, 0
2, 11856, Note_on_c, 0, 83, 85
2, 11856, Note_on_c, 0, 71, 85
2, 11876, Note_on_c, 0, 83, 0
2, 11876, Note_on_c, 0, 71, 0
2, 11904, Note_on_c, 0, 81, 85
2, 11904, Note_on_c, 0, 69, 85
2, 11924, Note_on_c, 0, 81, 0
2, 11924, Note_on_c, 0, 69, 0
2, 11952, Note_on_c, 0, 80, 85
2, 11952, Note_on_c, 0, 68, 85
2, 11972, Note_on_c, 0, 80, 0
2, 11972, Note_on_c, 0, 68, 0
2, 12000, Note_on_c, 0, 78, 85
2, 12000, Note_on_c, 0, 66, 85
2, 12020, Note_on_c, 0, 78, 0
2, 12020, Note_on_c, 0, 66, 0
2, 12048, Note_on_c, 0, 83, 85
2, 12048, Note_on_c, 0, 71, 85
2, 12068, Note_on_c, 0, 83, 0
2, 12068, Note_on_c, 0, 71, 0
2, 12096, Note_on_c, 0, 80, 85
2, 12096, Note_on_c, 0, 68, 85
2, 12116, Note_on_c, 0, 80, 0
2, 12116, Note_on_c, 0, 68, 0
2, 12144, Note_on_c, 0, 76, 85
2, 12144, Note_on_c, 0, 64, 85
2, 12164, Note_on_c, 0, 76, 0
2, 12164, Note_on_c, 0, 64, 0
2, 12192, Note_on_c, 0, 81, 85
2, 12192, Note_on_c, 0, 69, 85
2, 12286, Note_on_c, 0, 81, 0
2, 12286, Note_on_c, 0, 69, 0
2, 12288, Note_on_c, 0, 85, 48
2, 12311, Note_on_c, 0, 85, 0
2, 12312, Note_on_c, 0, 86, 48
2, 12335, Note_on_c, 0, 86, 0
2, 12336, Note_on_c, 0, 85, 48
2, 12359, Note_on_c, 0, 85, 0
2, 12360, Note_on_c, 0, 83, 48
2, 12383, Note_on_c, 0, 83, 0
2, 12384, Note_on_c, 0, 81, 48
2, 12407, Note_on_c, 0, 81, 0
2, 12408, Note_on_c, 0, 83, 48
2, 12431, Note_on_c, 0, 83, 0
2, 12432, Note_on_c, 0, 81, 48
2, 12455, Note_on_c, 0, 81, 0
2, 12456, Note_on_c, 0, 80, 48
2, 12479, Note_on_c, 0, 80, 0
2, 12480, Note_on_c, 0, 78, 48
2, 12503, Note_on_c, 0, 78, 0
2, 12504, Note_on_c, 0, 81, 48
2, 12527, Note_on_c, 0, 81, 0
2, 12528, Note_on_c, 0, 80, 48
2, 12551, Note_on_c, 0, 80, 0
2, 12552, Note_on_c, 0, 78, 48
2, 12575, Note_on_c, 0, 78, 0
2, 12576, Note_on_c, 0, 77, 48
2, 12599, Note_on_c, 0, 77, 0
2, 12600, Note_on_c, 0, 78, 48
2, 12623, Note_on_c, 0, 78, 0
2, 12624, Note_on_c, 0, 80, 48
2, 12647, Note_on_c, 0, 80, 0
2, 12648, Note_on_c, 0, 77, 48
2, 12671, Note_on_c, 0, 77, 0
2, 12672, Note_on_c, 0, 73, 48
2, 12695, Note_on_c, 0, 73, 0
2, 12696, Note_on_c, 0, 75, 48
2, 12719, Note_on_c, 0, 75, 0
2, 12720, Note_on_c, 0, 77, 48
2, 12743, Note_on_c, 0, 77, 0
2, 12744, Note_on_c, 0, 73, 48
2, 12767, Note_on_c, 0, 73, 0
2, 12768, Note_on_c, 0, 78, 48
2, 12791, Note_on_c, 0, 78, 0
2, 12792, Note_on_c, 0, 77, 48
2, 12815, Note_on_c, 0, 77, 0
2, 12816, Note_on_c, 0, 78, 48
2, 12839, Note_on_c, 0, 78, 0
2, 12840, Note_on_c, 0, 80, 48
2, 12863, Note_on_c, 0, 80, 0
2, 12864, Note_on_c, 0, 81, 48
2, 12887, Note_on_c, 0, 81, 0
2, 12888, Note_on_c, 0, 80, 48
2, 12911, Note_on_c, 0, 80, 0
2, 12912, Note_on_c, 0, 81, 48
2, 12935, Note_on_c, 0, 81, 0
2, 12936, Note_on_c, 0, 83, 48
2, 12959, Note_on_c, 0, 83, 0
2, 12960, Note_on_c, 0, 85, 48
2, 12983, Note_on_c, 0, 85, 0
2, 12984, Note_on_c, 0, 84, 48
2, 13007, Note_on_c, 0, 84, 0
2, 13008, Note_on_c, 0, 85, 48
2, 13031, Note_on_c, 0, 85, 0
2, 13032, Note_on_c, 0, 84, 48
2, 13055, Note_on_c, 0, 84, 0
2, 13056, Note_on_c, 0, 85, 48
2, 13079, Note_on_c, 0, 85, 0
2, 13080, Note_on_c, 0, 86, 48
2, 13103, Note_on_c, 0, 86, 0
2, 13104, Note_on_c, 0, 85, 48
2, 13127, Note_on_c, 0, 85, 0
2, 13128, Note_on_c, 0, 83, 48
2, 13151, Note_on_c, 0, 83, 0
2, 13152, Note_on_c, 0, 81, 48
2, 13175, Note_on_c, 0, 81, 0
2, 13176, Note_on_c, 0, 83, 48
2, 13199, Note_on_c, 0, 83, 0
2, 13200, Note_on_c, 0, 81, 48
2, 13223, Note_on_c, 0, 81, 0
2, 13224, Note_on_c, 0, 80, 48
2, 13247, Note_on_c, 0, 80, 0
2, 13248, Note_on_c, 0, 78, 48
2, 13271, Note_on_c, 0, 78, 0
2, 13272, Note_on_c, 0, 81, 48
2, 13295, Note_on_c, 0, 81, 0
2, 13296, Note_on_c, 0, 80, 48
2, 13319, Note_on_c, 0, 80, 0
2, 13320, Note_on_c, 0, 78, 48
2, 13343, Note_on_c, 0, 78, 0
2, 13344, Note_on_c, 0, 76, 48
2, 13367, Note_on_c, 0, 76, 0
2, 13368, Note_on_c, 0, 78, 48
2, 13391, Note_on_c, 0, 78, 0
2, 13392, Note_on_c, 0, 80, 48
2, 13415, Note_on_c, 0, 80, 0
2, 13416, Note_on_c, 0, 76, 48
2, 13439, Note_on_c, 0, 76, 0
2, 13440, Note_on_c, 0, 73, 48
2, 13463, Note_on_c, 0, 73, 0
2, 13464, Note_on_c, 0, 75, 48
2, 13487, Note_on_c, 0, 75, 0
2, 13488, Note_on_c, 0, 76, 48
2, 13511, Note_on_c, 0, 76, 0
2, 13512, Note_on_c, 0, 73, 48
2, 13535, Note_on_c, 0, 73, 0
2, 13536, Note_on_c, 0, 75, 48
2, 13559, Note_on_c, 0, 75, 0
2, 13560, Note_on_c, 0, 76, 48
2, 13583, Note_on_c, 0, 76, 0
2, 13584, Note_on_c, 0, 78, 48
2, 13607, Note_on_c, 0, 78, 0
2, 13608, Note_on_c, 0, 75, 48
2, 13631, Note_on_c, 0, 75, 0
2, 13632, Note_on_c, 0, 72, 48
2, 13655, Note_on_c, 0, 72, 0
2, 13656, Note_on_c, 0, 73, 48
2, 13679, Note_on_c, 0, 73, 0
2, 13680, Note_on_c, 0, 75, 48
2, 13703, Note_on_c, 0, 75, 0
2, 13704, Note_on_c, 0, 72, 48
2, 13727, Note_on_c, 0, 72, 0
2, 13728, Note_on_c, 0, 71, 48
2, 13734, Note_on_c, 0, 71, 0
2, 13734, Note_on_c, 0, 73, 48
2, 13817, Note_on_c, 0, 73, 0
2, 13824, Note_on_c, 0, 85, 48
2, 13847, Note_on_c, 0, 85, 0
2, 13848, Note_on_c, 0, 86, 48
2, 13871, Note_on_c, 0, 86, 0
2, 13872, Note_on_c, 0, 85, 48
2, 13895, Note_on_c, 0, 85, 0
2, 13896, Note_on_c, 0, 83, 48
2, 13919, Note_on_c, 0, 83, 0
2, 13920, Note_on_c, 0, 81, 48
2, 13943, Note_on_c, 0, 81, 0
2, 13944, Note_on_c, 0, 83, 48
2, 13967, Note_on_c, 0, 83, 0
2, 13968, Note_on_c, 0, 81, 48
2, 13991, Note_on_c, 0, 81, 0
2, 13992, Note_on_c, 0, 80, 48
2, 14015, Note_on_c, 0, 80, 0
2, 14016, Note_on_c, 0, 78, 48
2, 14039, Note_on_c, 0, 78, 0
2, 14040, Note_on_c, 0, 81, 48
2, 14063, Note_on_c, 0, 81, 0
2, 14064, Note_on_c, 0, 80, 48
2, 14087, Note_on_c, 0, 80, 0
2, 14088, Note_on_c, 0, 78, 48
2, 14111, Note_on_c, 0, 78, 0
2, 14112, Note_on_c, 0, 77, 48
2, 14135, Note_on_c, 0, 77, 0
2, 14136, Note_on_c, 0, 78, 48
2, 14159, Note_on_c, 0, 78, 0
2, 14160, Note_on_c, 0, 80, 48
2, 14183, Note_on_c, 0, 80, 0
2, 14184, Note_on_c, 0, 77, 48
2, 14207, Note_on_c, 0, 77, 0
2, 14208, Note_on_c, 0, 73, 48
2, 14231, Note_on_c, 0, 73, 0
2, 14232, Note_on_c, 0, 75, 48
2, 14255, Note_on_c, 0, 75, 0
2, 14256, Note_on_c, 0, 77, 48
2, 14279, Note_on_c, 0, 77, 0
2, 14280, Note_on_c, 0, 73, 48
2, 14303, Note_on_c, 0, 73, 0
2, 14304, Note_on_c, 0, 78, 48
2, 14327, Note_on_c, 0, 78, 0
2, 14328, Note_on_c, 0, 77, 48
2, 14351, Note_on_c, 0, 77, 0
2, 14352, Note_on_c, 0, 78, 48
2, 14375, Note_on_c, 0, 78, 0
2, 14376, Note_on_c, 0, 80, 48
2, 14399, Note_on_c, 0, 80, 0
2, 14400, Note_on_c, 0, 81, 48
2, 14423, Note_on_c, 0, 81, 0
2, 14424, Note_on_c, 0, 80, 48
2, 14447, Note_on_c, 0, 80, 0
2, 14448, Note_on_c, 0, 81, 48
2, 14471, Note_on_c, 0, 81, 0
2, 14472, Note_on_c, 0, 83, 48
2, 14495, Note_on_c, 0, 83, 0
2, 14496, Note_on_c, 0, 85, 48
2, 14519, Note_on_c, 0, 85, 0
2, 14520, Note_on_c, 0, 84, 48
2, 14543, Note_on_c, 0, 84, 0
2, 14544, Note_on_c, 0, 85, 48
2, 14567, Note_on_c, 0, 85, 0
2, 14568, Note_on_c, 0, 84, 48
2, 14591, Note_on_c, 0, 84, 0
2, 14592, Note_on_c, 0, 85, 48
2, 14615, Note_on_c, 0, 85, 0
2, 14616, Note_on_c, 0, 86, 48
2, 14639, Note_on_c, 0, 86, 0
2, 14640, Note_on_c, 0, 85, 48
2, 14663, Note_on_c, 0, 85, 0
2, 14664, Note_on_c, 0, 83, 48
2, 14687, Note_on_c, 0, 83, 0
2, 14688, Note_on_c, 0, 81, 48
2, 14711, Note_on_c, 0, 81, 0
2, 14712, Note_on_c, 0, 83, 48
2, 14735, Note_on_c, 0, 83, 0
2, 14736, Note_on_c, 0, 81, 48
2, 14759, Note_on_c, 0, 81, 0
2, 14760, Note_on_c, 0, 80, 48
2, 14783, Note_on_c, 0, 80, 0
2, 14784, Note_on_c, 0, 78, 48
2, 14807, Note_on_c, 0, 78, 0
2, 14808, Note_on_c, 0, 81, 48
2, 14831, Note_on_c, 0, 81, 0
2, 14832, Note_on_c, 0, 80, 48
2, 14855, Note_on_c, 0, 80, 0
2, 14856, Note_on_c, 0, 78, 48
2, 14879, Note_on_c, 0, 78, 0
2, 14880, Note_on_c, 0, 76, 48
2, 14903, Note_on_c, 0, 76, 0
2, 14904, Note_on_c, 0, 78, 48
2, 14927, Note_on_c, 0, 78, 0
2, 14928, Note_on_c, 0, 80, 48
2, 14951, Note_on_c, 0, 80, 0
2, 14952, Note_on_c, 0, 76, 48
2, 14975, Note_on_c, 0, 76, 0
2, 14976, Note_on_c, 0, 73, 48
2, 14999, Note_on_c, 0, 73, 0
2, 15000, Note_on_c, 0, 75, 48
2, 15023, Note_on_c, 0, 75, 0
2, 15024, Note_on_c, 0, 76, 48
2, 15047, Note_on_c, 0, 76, 0
2, 15048, Note_on_c, 0, 73, 48
2, 15071, Note_on_c, 0, 73, 0
2, 15072, Note_on_c, 0, 75, 48
2, 15095, Note_on_c, 0, 75, 0
2, 15096, Note_on_c, 0, 76, 48
2, 15119, Note_on_c, 0, 76, 0
2, 15120, Note_on_c, 0, 78, 48
2, 15143, Note_on_c, 0, 78, 0
2, 15144, Note_on_c, 0, 75, 48
2, 15167, Note_on_c, 0, 75, 0
2, 15168, Note_on_c, 0, 72, 48
2, 15191, Note_on_c, 0, 72, 0
2, 15192, Note_on_c, 0, 73, 48
2, 15215, Note_on_c, 0, 73, 0
2, 15216, Note_on_c, 0, 75, 48
2, 15239, Note_on_c, 0, 75, 0
2, 15240, Note_on_c, 0, 72, 48
2, 15263, Note_on_c, 0, 72, 0
2, 15264, Note_on_c, 0, 71, 48
2, 15270, Note_on_c, 0, 71, 0
2, 15270, Note_on_c, 0, 73, 48
2, 15353, Note_on_c, 0, 73, 0
2, 15360, Note_on_c, 0, 76, 85
2, 15383, Note_on_c, 0, 76, 0
2, 15384, Note_on_c, 0, 74, 85
2, 15407, Note_on_c, 0, 74, 0
2, 15408, Note_on_c, 0, 73, 85
2, 15431, Note_on_c, 0, 73, 0
2, 15432, Note_on_c, 0, 71, 85
2, 15455, Note_on_c, 0, 71, 0
2, 15456, Note_on_c, 0, 69, 85
2, 15479, Note_on_c, 0, 69, 0
2, 15480, Note_on_c, 0, 71, 85
2, 15503, Note_on_c, 0, 71, 0
2, 15504, Note_on_c, 0, 73, 85
2, 15527, Note_on_c, 0, 73, 0
2, 15528, Note_on_c, 0, 74, 85
2, 15551, Note_on_c, 0, 74, 0
2, 15552, Note_on_c, 0, 76, 85
2, 15575, Note_on_c, 0, 76, 0
2, 15576, Note_on_c, 0, 78, 85
2, 15599, Note_on_c, 0, 78, 0
2, 15600, Note_on_c, 0, 80, 85
2, 15623, Note_on_c, 0, 80, 0
2, 15624, Note_on_c, 0, 81, 85
2, 15647, Note_on_c, 0, 81, 0
2, 15648, Note_on_c, 0, 81, 85
2, 15671, Note_on_c, 0, 81, 0
2, 15672, Note_on_c, 0, 80, 85
2, 15695, Note_on_c, 0, 80, 0
2, 15696, Note_on_c, 0, 78, 85
2, 15719, Note_on_c, 0, 78, 0
2, 15720, Note_on_c, 0, 76, 85
2, 15743, Note_on_c, 0, 76, 0
2, 15744, Note_on_c, 0, 76, 85
2, 15767, Note_on_c, 0, 76, 0
2, 15768, Note_on_c, 0, 74, 85
2, 15791, Note_on_c, 0, 74, 0
2, 15792, Note_on_c, 0, 73, 85
2, 15815, Note_on_c, 0, 73, 0
2, 15816, Note_on_c, 0, 71, 85
2, 15839, Note_on_c, 0, 71, 0
2, 15840, Note_on_c, 0, 69, 85
2, 15863, Note_on_c, 0, 69, 0
2, 15864, Note_on_c, 0, 71, 85
2, 15887, Note_on_c, 0, 71, 0
2, 15888, Note_on_c, 0, 73, 85
2, 15911, Note_on_c, 0, 73, 0
2, 15912, Note_on_c, 0, 74, 85
2, 15935, Note_on_c, 0, 74, 0
2, 15936, Note_on_c, 0, 76, 85
2, 15959, Note_on_c, 0, 76, 0
2, 15960, Note_on_c, 0, 78, 85
2, 15983, Note_on_c, 0, 78, 0
2, 15984, Note_on_c, 0, 80, 85
2, 16007, Note_on_c, 0, 80, 0
2, 16008, Note_on_c, 0, 81, 85
2, 16031, Note_on_c, 0, 81, 0
2, 16032, Note_on_c, 0, 82, 85
2, 16077, Note_on_c, 0, 82, 0
2, 16080, Note_on_c, 0, 83, 85
2, 16125, Note_on_c, 0, 83, 0
2, 16128, Note_on_c, 0, 76, 85
2, 16151, Note_on_c, 0, 76, 0
2, 16152, Note_on_c, 0, 74, 85
2, 16175, Note_on_c, 0, 74, 0
2, 16176, Note_on_c, 0, 73, 85
2, 16199, Note_on_c, 0, 73, 0
2, 16200, Note_on_c, 0, 71, 85
2, 16223, Note_on_c, 0, 71, 0
2, 16224, Note_on_c, 0, 69, 85
2, 16247, Note_on_c, 0, 69, 0
2, 16248, Note_on_c, 0, 71, 85
2, 16271, Note_on_c, 0, 71, 0
2, 16272, Note_on_c, 0, 73, 85
2, 16295, Note_on_c, 0, 73, 0
2, 16296, Note_on_c, 0, 74, 85
2, 16319, Note_on_c, 0, 74, 0
2, 16320, Note_on_c, 0, 76, 85
2, 16343, Note_on_c, 0, 76, 0
2, 16344, Note_on_c, 0, 78, 85
2, 16367, Note_on_c, 0, 78, 0
2, 16368, Note_on_c, 0, 80, 85
2, 16391, Note_on_c, 0, 80, 0
2, 16392, Note_on_c, 0, 81, 85
2, 16415, Note_on_c, 0, 81, 0
2, 16416, Note_on_c, 0, 81, 85
2, 16439, Note_on_c, 0, 81, 0
2, 16440, Note_on_c, 0, 80, 85
2, 16463, Note_on_c, 0, 80, 0
2, 16464, Note_on_c, 0, 78, 85
2, 16487, Note_on_c, 0, 78, 0
2, 16488, Note_on_c, 0, 76, 85
2, 16511, Note_on_c, 0, 76, 0
2, 16512, Note_on_c, 0, 76, 85
2, 16535, Note_on_c, 0, 76, 0
2, 16536, Note_on_c, 0, 74, 85
2, 16559, Note_on_c, 0, 74, 0
2, 16560, Note_on_c, 0, 73, 85
2, 16583, Note_on_c, 0, 73, 0
2, 16584, Note_on_c, 0, 71, 85
2, 16607, Note_on_c, 0, 71, 0
2, 16608, Note_on_c, 0, 73, 85
2, 16631, Note_on_c, 0, 73, 0
2, 16632, Note_on_c, 0, 76, 85
2, 16655, Note_on_c, 0, 76, 0
2, 16656, Note_on_c, 0, 69, 85
2, 16679, Note_on_c, 0, 69, 0
2, 16680, Note_on_c, 0, 73, 85
2, 16703, Note_on_c, 0, 73, 0
2, 16704, Note_on_c, 0, 71, 85
2, 16727, Note_on_c, 0, 71, 0
2, 16728, Note_on_c, 0, 74, 85
2, 16751, Note_on_c, 0, 74, 0
2, 16752, Note_on_c, 0, 68, 85
2, 16775, Note_on_c, 0, 68, 0
2, 16776, Note_on_c, 0, 71, 85
2, 16799, Note_on_c, 0, 71, 0
2, 16800, Note_on_c, 0, 69, 85
2, 16889, Note_on_c, 0, 69, 0
2, 16896, Note_on_c, 0, 85, 48
2, 16919, Note_on_c, 0, 85, 0
2, 16920, Note_on_c, 0, 86, 48
2, 16943, Note_on_c, 0, 86, 0
2, 16944, Note_on_c, 0, 85, 48
2, 16967, Note_on_c, 0, 85, 0
2, 16968, Note_on_c, 0, 83, 48
2, 16991, Note_on_c, 0, 83, 0
2, 16992, Note_on_c, 0, 81, 48
2, 17015, Note_on_c, 0, 81, 0
2, 17016, Note_on_c, 0, 83, 48
2, 17039, Note_on_c, 0, 83, 0
2, 17040, Note_on_c, 0, 81, 48
2, 17063, Note_on_c, 0, 81, 0
2, 17064, Note_on_c, 0, 80, 48
2, 17087, Note_on_c, 0, 80, 0
2, 17088, Note_on_c, 0, 78, 48
2, 17111, Note_on_c, 0, 78, 0
2, 17112, Note_on_c, 0, 81, 48
2, 17135, Note_on_c, 0, 81, 0
2, 17136, Note_on_c, 0, 80, 48
2, 17159, Note_on_c, 0, 80, 0
2, 17160, Note_on_c, 0, 78, 48
2, 17183, Note_on_c, 0, 78, 0
2, 17184, Note_on_c, 0, 77, 48
2, 17207, Note_on_c, 0, 77, 0
2, 17208, Note_on_c, 0, 78, 48
2, 17231, Note_on_c, 0, 78, 0
2, 17232, Note_on_c, 0, 80, 48
2, 17255, Note_on_c, 0, 80, 0
2, 17256, Note_on_c, 0, 77, 48
2, 17279, Note_on_c, 0, 77, 0
2, 17280, Note_on_c, 0, 73, 48
2, 17303, Note_on_c, 0, 73, 0
2, 17304, Note_on_c, 0, 75, 48
2, 17327, Note_on_c, 0, 75, 0
2, 17328, Note_on_c, 0, 77, 48
2, 17351, Note_on_c, 0, 77, 0
2, 17352, Note_on_c, 0, 73, 48
2, 17375, Note_on_c, 0, 73, 0
2, 17376, Note_on_c, 0, 78, 48
2, 17399, Note_on_c, 0, 78, 0
2, 17400, Note_on_c, 0, 77, 48
2, 17423, Note_on_c, 0, 77, 0
2, 17424, Note_on_c, 0, 78, 48
2, 17447, Note_on_c, 0, 78, 0
2, 17448, Note_on_c, 0, 80, 48
2, 17471, Note_on_c, 0, 80, 0
2, 17472, Note_on_c, 0, 81, 48
2, 17495, Note_on_c, 0, 81, 0
2, 17496, Note_on_c, 0, 80, 48
2, 17519, Note_on_c, 0, 80, 0
2, 17520, Note_on_c, 0, 81, 48
2, 17543, Note_on_c, 0, 81, 0
2, 17544, Note_on_c, 0, 83, 48
2, 17567, Note_on_c, 0, 83, 0
2, 17568, Note_on_c, 0, 85, 48
2, 17591, Note_on_c, 0, 85, 0
2, 17592, Note_on_c, 0, 84, 48
2, 17615, Note_on_c, 0, 84, 0
2, 17616, Note_on_c, 0, 85, 48
2, 17639, Note_on_c, 0, 85, 0
2, 17640, Note_on_c, 0, 84, 48
2, 17663, Note_on_c, 0, 84, 0
2, 17664, Note_on_c, 0, 85, 48
2, 17687, Note_on_c, 0, 85, 0
2, 17688, Note_on_c, 0, 84, 52
2, 17711, Note_on_c, 0, 84, 0
2, 17712, Note_on_c, 0, 85, 57
2, 17735, Note_on_c, 0, 85, 0
2, 17736, Note_on_c, 0, 82, 61
2, 17759, Note_on_c, 0, 82, 0
2, 17760, Note_on_c, 0, 86, 66
2, 17783, Note_on_c, 0, 86, 0
2, 17784, Note_on_c, 0, 85, 71
2, 17807, Note_on_c, 0, 85, 0
2, 17808, Note_on_c, 0, 86, 71
2, 17831, Note_on_c, 0, 86, 0
2, 17832, Note_on_c, 0, 85, 71
2, 17855, Note_on_c, 0, 85, 0
2, 17856, Note_on_c, 0, 86, 71
2, 17879, Note_on_c, 0, 86, 0
2, 17880, Note_on_c, 0, 85, 71
2, 17903, Note_on_c, 0, 85, 0
2, 17904, Note_on_c, 0, 86, 71
2, 17927, Note_on_c, 0, 86, 0
2, 17928, Note_on_c, 0, 85, 71
2, 17951, Note_on_c, 0, 85, 0
2, 17952, Note_on_c, 0, 86, 71
2, 17975, Note_on_c, 0, 86, 0
2, 17976, Note_on_c, 0, 85, 68
2, 17999, Note_on_c, 0, 85, 0
2, 18000, Note_on_c, 0, 83, 65
2, 18023, Note_on_c, 0, 83, 0
2, 18024, Note_on_c, 0, 81, 62
2, 18047, Note_on_c, 0, 81, 0
2, 18048, Note_on_c, 0, 80, 59
2, 18071, Note_on_c, 0, 80, 0
2, 18072, Note_on_c, 0, 81, 56
2, 18095, Note_on_c, 0, 81, 0
2, 18096, Note_on_c, 0, 83, 53
2, 18119, Note_on_c, 0, 83, 0
2, 18120, Note_on_c, 0, 80, 50
2, 18143, Note_on_c, 0, 80, 0
2, 18144, Note_on_c, 0, 81, 48
2, 18167, Note_on_c, 0, 81, 0
2, 18168, Note_on_c, 0, 83, 48
2, 18191, Note_on_c, 0, 83, 0
2, 18192, Note_on_c, 0, 85, 48
2, 18215, Note_on_c, 0, 85, 0
2, 18216, Note_on_c, 0, 78, 48
2, 18239, Note_on_c, 0, 78, 0
2, 18240, Note_on_c, 0, 77, 48
2, 18263, Note_on_c, 0, 77, 0
2, 18264, Note_on_c, 0, 78, 48
2, 18287, Note_on_c, 0, 78, 0
2, 18288, Note_on_c, 0, 80, 48
2, 18311, Note_on_c, 0, 80, 0
2, 18312, Note_on_c, 0, 77, 48
2, 18335, Note_on_c, 0, 77, 0
2, 18336, Note_on_c, 0, 78, 48
2, 18425, Note_on_c, 0, 78, 0
2, 18432, Note_on_c, 0, 76, 85
2, 18455, Note_on_c, 0, 76, 0
2, 18456, Note_on_c, 0, 74, 85
2, 18479, Note_on_c, 0, 74, 0
2, 18480, Note_on_c, 0, 73, 85
2, 18503, Note_on_c, 0, 73, 0
2, 18504, Note_on_c, 0, 71, 85
2, 18527, Note_on_c, 0, 71, 0
2, 18528, Note_on_c, 0, 69, 85
2, 18551, Note_on_c, 0, 69, 0
2, 18552, Note_on_c, 0, 71, 85
2, 18575, Note_on_c, 0, 71, 0
2, 18576, Note_on_c, 0, 73, 85
2, 18599, Note_on_c, 0, 73, 0
2, 18600, Note_on_c, 0, 74, 85
2, 18623, Note_on_c, 0, 74, 0
2, 18624, Note_on_c, 0, 76, 85
2, 18647, Note_on_c, 0, 76, 0
2, 18648, Note_on_c, 0, 78, 85
2, 18671, Note_on_c, 0, 78, 0
2, 18672, Note_on_c, 0, 80, 85
2, 18695, Note_on_c, 0, 80, 0
2, 18696, Note_on_c, 0, 81, 85
2, 18719, Note_on_c, 0, 81, 0
2, 18720, Note_on_c, 0, 81, 85
2, 18743, Note_on_c, 0, 81, 0
2, 18744, Note_on_c, 0, 80, 85
2, 18767, Note_on_c, 0, 80, 0
2, 18768, Note_on_c, 0, 78, 85
2, 18791, Note_on_c, 0, 78, 0
2, 18792, Note_on_c, 0, 76, 85
2, 18815, Note_on_c, 0, 76, 0
2, 18816, Note_on_c, 0, 76, 85
2, 18839, Note_on_c, 0, 76, 0
2, 18840, Note_on_c, 0, 74, 85
2, 18863, Note_on_c, 0, 74, 0
2, 18864, Note_on_c, 0, 73, 85
2, 18887, Note_on_c, 0, 73, 0
2, 18888, Note_on_c, 0, 71, 85
2, 18911, Note_on_c, 0, 71, 0
2, 18912, Note_on_c, 0, 69, 85
2, 18935, Note_on_c, 0, 69, 0
2, 18936, Note_on_c, 0, 71, 85
2, 18959, Note_on_c, 0, 71, 0
2, 18960, Note_on_c, 0, 73, 85
2, 18983, Note_on_c, 0, 73, 0
2, 18984, Note_on_c, 0, 74, 85
2, 19007, Note_on_c, 0, 74, 0
2, 19008, Note_on_c, 0, 76, 85
2, 19031, Note_on_c, 0, 76, 0
2, 19032, Note_on_c, 0, 78, 85
2, 19055, Note_on_c, 0, 78, 0
2, 19056, Note_on_c, 0, 80, 85
2, 19079, Note_on_c, 0, 80, 0
2, 19080, Note_on_c, 0, 81, 85
2, 19103, Note_on_c, 0, 81, 0
2, 19104, Note_on_c, 0, 82, 85
2, 19149, Note_on_c, 0, 82, 0
2, 19152, Note_on_c, 0, 83, 85
2, 19197, Note_on_c, 0, 83, 0
2, 19200, Note_on_c, 0, 76, 85
2, 19223, Note_on_c, 0, 76, 0
2, 19224, Note_on_c, 0, 74, 85
2, 19247, Note_on_c, 0, 74, 0
2, 19248, Note_on_c, 0, 73, 85
2, 19271, Note_on_c, 0, 73, 0
2, 19272, Note_on_c, 0, 71, 85
2, 19295, Note_on_c, 0, 71, 0
2, 19296, Note_on_c, 0, 69, 85
2, 19319, Note_on_c, 0, 69, 0
2, 19320, Note_on_c, 0, 71, 85
2, 19343, Note_on_c, 0, 71, 0
2, 19344, Note_on_c, 0, 73, 85
2, 19367, Note_on_c, 0, 73, 0
2, 19368, Note_on_c, 0, 74, 85
2, 19391, Note_on_c, 0, 74, 0
2, 19392, Note_on_c, 0, 76, 85
2, 19415, Note_on_c, 0, 76, 0
2, 19416, Note_on_c, 0, 78, 85
2, 19439, Note_on_c, 0, 78, 0
2, 19440, Note_on_c, 0, 80, 85
2, 19463, Note_on_c, 0, 80, 0
2, 19464, Note_on_c, 0, 81, 85
2, 19487, Note_on_c, 0, 81, 0
2, 19488, Note_on_c, 0, 81, 85
2, 19511, Note_on_c, 0, 81, 0
2, 19512, Note_on_c, 0, 80, 85
2, 19535, Note_on_c, 0, 80, 0
2, 19536, Note_on_c, 0, 78, 85
2, 19559, Note_on_c, 0, 78, 0
2, 19560, Note_on_c, 0, 76, 85
2, 19583, Note_on_c, 0, 76, 0
2, 19584, Note_on_c, 0, 76, 85
2, 19607, Note_on_c, 0, 76, 0
2, 19608, Note_on_c, 0, 74, 85
2, 19631, Note_on_c, 0, 74, 0
2, 19632, Note_on_c, 0, 73, 85
2, 19655, Note_on_c, 0, 73, 0
2, 19656, Note_on_c, 0, 71, 85
2, 19679, Note_on_c, 0, 71, 0
2, 19680, Note_on_c, 0, 73, 85
2, 19703, Note_on_c, 0, 73, 0
2, 19704, Note_on_c, 0, 76, 85
2, 19727, Note_on_c, 0, 76, 0
2, 19728, Note_on_c, 0, 69, 85
2, 19751, Note_on_c, 0, 69, 0
2, 19752, Note_on_c, 0, 73, 85
2, 19775, Note_on_c, 0, 73, 0
2, 19776, Note_on_c, 0, 71, 85
2, 19799, Note_on_c, 0, 71, 0
2, 19800, Note_on_c, 0, 74, 85
2, 19823, Note_on_c, 0, 74, 0
2, 19824, Note_on_c, 0, 68, 85
2, 19847, Note_on_c, 0, 68, 0
2, 19848, Note_on_c, 0, 71, 85
2, 19871, Note_on_c, 0, 71, 0
2, 19872, Note_on_c, 0, 69, 85
2, 19961, Note_on_c, 0, 69, 0
2, 19968, Note_on_c, 0, 85, 48
2, 19991, Note_on_c, 0, 85, 0
2, 19992, Note_on_c, 0, 86, 48
2, 20015, Note_on_c, 0, 86, 0
2, 20016, Note_on_c, 0, 85, 48
2, 20039, Note_on_c, 0, 85, 0
2, 20040, Note_on_c, 0, 83, 48
2, 20063, Note_on_c, 0, 83, 0
2, 20064, Note_on_c, 0, 81, 48
2, 20087, Note_on_c, 0, 81, 0
2, 20088, Note_on_c, 0, 83, 48
2, 20111, Note_on_c, 0, 83, 0
2, 20112, Note_on_c, 0, 81, 48
2, 20135, Note_on_c, 0, 81, 0
2, 20136, Note_on_c, 0, 80, 48
2, 20159, Note_on_c, 0, 80, 0
2, 20160, Note_on_c, 0, 78, 48
2, 20183, Note_on_c, 0, 78, 0
2, 20184, Note_on_c, 0, 81, 48
2, 20207, Note_on_c, 0, 81, 0
2, 20208, Note_on_c, 0, 80, 48
2, 20231, Note_on_c, 0, 80, 0
2, 20232, Note_on_c, 0, 78, 48
2, 20255, Note_on_c, 0, 78, 0
2, 20256, Note_on_c, 0, 77, 48
2, 20279, Note_on_c, 0, 77, 0
2, 20280, Note_on_c, 0, 78, 48
2, 20303, Note_on_c, 0, 78, 0
2, 20304, Note_on_c, 0, 80, 48
2, 20327, Note_on_c, 0, 80, 0
2, 20328, Note_on_c, 0, 77, 48
2, 20351, Note_on_c, 0, 77, 0
2, 20352, Note_on_c, 0, 73, 48
2, 20375, Note_on_c, 0, 73, 0
2, 20376, Note_on_c, 0, 75, 48
2, 20399, Note_on_c, 0, 75, 0
2, 20400, Note_on_c, 0, 77, 48
2, 20423, Note_on_c, 0, 77, 0
2, 20424, Note_on_c, 0, 73, 48
2, 20447, Note_on_c, 0, 73, 0
2, 20448, Note_on_c, 0, 78, 48
2, 20471, Note_on_c, 0, 78, 0
2, 20472, Note_on_c, 0, 77, 48
2, 20495, Note_on_c, 0, 77, 0
2, 20496, Note_on_c, 0, 78, 48
2, 20519, Note_on_c, 0, 78, 0
2, 20520, Note_on_c, 0, 80, 48
2, 20543, Note_on_c, 0, 80, 0
2, 20544, Note_on_c, 0, 81, 48
2, 20567, Note_on_c, 0, 81, 0
2, 20568, Note_on_c, 0, 80, 48
2, 20591, Note_on_c, 0, 80, 0
2, 20592, Note_on_c, 0, 81, 48
2, 20615, Note_on_c, 0, 81, 0
2, 20616, Note_on_c, 0, 83, 48
2, 20639, Note_on_c, 0, 83, 0
2, 20640, Note_on_c, 0, 85, 48
2, 20663, Note_on_c, 0, 85, 0
2, 20664, Note_on_c, 0, 84, 48
2, 20687, Note_on_c, 0, 84, 0
2, 20688, Note_on_c, 0, 85, 48
2, 20711, Note_on_c, 0, 85, 0
2, 20712, Note_on_c, 0, 84, 48
2, 20735, Note_on_c, 0, 84, 0
2, 20736, Note_on_c, 0, 85, 48
2, 20759, Note_on_c, 0, 85, 0
2, 20760, Note_on_c, 0, 84, 52
2, 20783, Note_on_c, 0, 84, 0
2, 20784, Note_on_c, 0, 85, 57
2, 20807, Note_on_c, 0, 85, 0
2, 20808, Note_on_c, 0, 82, 61
2, 20831, Note_on_c, 0, 82, 0
2, 20832, Note_on_c, 0, 86, 66
2, 20855, Note_on_c, 0, 86, 0
2, 20856, Note_on_c, 0, 85, 71
2, 20879, Note_on_c, 0, 85, 0
2, 20880, Note_on_c, 0, 86, 71
2, 20903, Note_on_c, 0, 86, 0
2, 20904, Note_on_c, 0, 85, 71
2, 20927, Note_on_c, 0, 85, 0
2, 20928, Note_on_c, 0, 86, 71
2, 20951, Note_on_c, 0, 86, 0
2, 20952, Note_on_c, 0, 85, 71
2, 20975, Note_on_c, 0, 85, 0
2, 20976, Note_on_c, 0, 86, 71
2, 20999, Note_on_c, 0, 86, 0
2, 21000, Note_on_c, 0, 85, 71
2, 21023, Note_on_c, 0, 85, 0
2, 21024, Note_on_c, 0, 86, 71
2, 21047, Note_on_c, 0, 86, 0
2, 21048, Note_on_c, 0, 85, 68
2, 21071, Note_on_c, 0, 85, 0
2, 21072, Note_on_c, 0, 83, 65
2, 21095, Note_on_c, 0, 83, 0
2, 21096, Note_on_c, 0, 81, 62
2, 21119, Note_on_c, 0, 81, 0
2, 21120, Note_on_c, 0, 80, 59
2, 21143, Note_on_c, 0, 80, 0
2, 21144, Note_on_c, 0, 81, 56
2, 21167, Note_on_c, 0, 81, 0
2, 21168, Note_on_c, 0, 83, 53
2, 21191, Note_on_c, 0, 83, 0
2, 21192, Note_on_c, 0, 80, 50
2, 21215, Note_on_c, 0, 80, 0
2, 21216, Note_on_c, 0, 81, 48
2, 21239, Note_on_c, 0, 81, 0
2, 21240, Note_on_c, 0, 83, 48
2, 21263, Note_on_c, 0, 83, 0
2, 21264, Note_on_c, 0, 85, 48
2, 21287, Note_on_c, 0, 85, 0
2, 21288, Note_on_c, 0, 78, 48
2, 21311, Note_on_c, 0, 78, 0
2, 21312, Note_on_c, 0, 77, 48
2, 21335, Note_on_c, 0, 77, 0
2, 21336, Note_on_c, 0, 78, 48
2, 21359, Note_on_c, 0, 78, 0
2, 21360, Note_on_c, 0, 80, 48
2, 21383, Note_on_c, 0, 80, 0
2, 21384, Note_on_c, 0, 77, 48
2, 21407, Note_on_c, 0, 77, 0
2, 21408, Note_on_c, 0, 78, 48
2, 21497, Note_on_c, 0, 78, 0
2, 21504, Note_on_c, 0, 81, 85
2, 21504, Note_on_c, 0, 69, 85
2, 21549, Note_on_c, 0, 81, 0
2, 21549, Note_on_c, 0, 69, 0
2, 21552, Note_on_c, 0, 83, 85
2, 21552, Note_on_c, 0, 71, 85
2, 21597, Note_on_c, 0, 83, 0
2, 21597, Note_on_c, 0, 71, 0
2, 21600, Note_on_c, 0, 85, 85
2, 21600, Note_on_c, 0, 73, 85
2, 21694, Note_on_c, 0, 85, 0
2, 21694, Note_on_c, 0, 73, 0
2, 21696, Note_on_c, 0, 81, 85
2, 21696, Note_on_c, 0, 69, 85
2, 21716, Note_on_c, 0, 81, 0
2, 21716, Note_on_c, 0, 69, 0
2, 21744, Note_on_c, 0, 83, 85
2, 21744, Note_on_c, 0, 71, 85
2, 21764, Note_on_c, 0, 83, 0
2, 21764, Note_on_c, 0, 71, 0
2, 21792, Note_on_c, 0, 85, 85
2, 21792, Note_on_c, 0, 73, 85
2, 21812, Note_on_c, 0, 85, 0
2, 21812, Note_on_c, 0, 73, 0
2, 21840, Note_on_c, 0, 83, 85
2, 21840, Note_on_c, 0, 71, 85
2, 21860, Note_on_c, 0, 83, 0
2, 21860, Note_on_c, 0, 71, 0
2, 21888, Note_on_c, 0, 81, 85
2, 21888, Note_on_c, 0, 69, 85
2, 21908, Note_on_c, 0, 81, 0
2, 21908, Note_on_c, 0, 69, 0
2, 21936, Note_on_c, 0, 80, 85
2, 21936, Note_on_c, 0, 68, 85
2, 21956, Note_on_c, 0, 80, 0
2, 21956, Note_on_c, 0, 68, 0
2, 21984, Note_on_c, 0, 78, 85
2, 21984, Note_on_c, 0, 66, 85
2, 22004, Note_on_c, 0, 78, 0
2, 22004, Note_on_c, 0, 66, 0
2, 22032, Note_on_c, 0, 80, 85
2, 22032, Note_on_c, 0, 68, 85
2, 22052, Note_on_c, 0, 80, 0
2, 22052, Note_on_c, 0, 68, 0
2, 22080, Note_on_c, 0, 81, 85
2, 22080, Note_on_c, 0, 69, 85
2, 22100, Note_on_c, 0, 81, 0
2, 22100, Note_on_c, 0, 69, 0
2, 22128, Note_on_c, 0, 83, 85
2, 22128, Note_on_c, 0, 71, 85
2, 22148, Note_on_c, 0, 83, 0
2, 22148, Note_on_c, 0, 71, 0
2, 22176, Note_on_c, 0, 80, 85
2, 22176, Note_on_c, 0, 68, 85
2, 22196, Note_on_c, 0, 80, 0
2, 22196, Note_on_c, 0, 68, 0
2, 22224, Note_on_c, 0, 76, 85
2, 22224, Note_on_c, 0, 64, 85
2, 22244, Note_on_c, 0, 76, 0
2, 22244, Note_on_c, 0, 64, 0
2, 22272, Note_on_c, 0, 81, 85
2, 22272, Note_on_c, 0, 69, 85
2, 22292, Note_on_c, 0, 81, 0
2, 22292, Note_on_c, 0, 69, 0
2, 22320, Note_on_c, 0, 83, 85
2, 22320, Note_on_c, 0, 71, 85
2, 22340, Note_on_c, 0, 83, 0
2, 22340, Note_on_c, 0, 71, 0
2, 22368, Note_on_c, 0, 85, 85
2, 22368, Note_on_c, 0, 73, 85
2, 22462, Note_on_c, 0, 85, 0
2, 22462, Note_on_c, 0, 73, 0
2, 22464, Note_on_c, 0, 81, 85
2, 22464, Note_on_c, 0, 69, 85
2, 22484, Note_on_c, 0, 81, 0
2, 22484, Note_on_c, 0, 69, 0
2, 22512, Note_on_c, 0, 83, 85
2, 22512, Note_on_c, 0, 71, 85
2, 22532, Note_on_c, 0, 83, 0
2, 22532, Note_on_c, 0, 71, 0
2, 22560, Note_on_c, 0, 85, 85
2, 22560, Note_on_c, 0, 73, 85
2, 22580, Note_on_c, 0, 85, 0
2, 22580, Note_on_c, 0, 73, 0
2, 22608, Note_on_c, 0, 83, 85
2, 22608, Note_on_c, 0, 71, 85
2, 22628, Note_on_c, 0, 83, 0
2, 22628, Note_on_c, 0, 71, 0
2, 22656, Note_on_c, 0, 81, 85
2, 22656, Note_on_c, 0, 69, 85
2, 22676, Note_on_c, 0, 81, 0
2, 22676, Note_on_c, 0, 69, 0
2, 22704, Note_on_c, 0, 80, 85
2, 22704, Note_on_c, 0, 68, 85
2, 22724, Note_on_c, 0, 80, 0
2, 22724, Note_on_c, 0, 68, 0
2, 22752, Note_on_c, 0, 78, 85
2, 22752, Note_on_c, 0, 66, 85
2, 22772, Note_on_c, 0, 78, 0
2, 22772, Note_on_c, 0, 66, 0
2, 22800, Note_on_c, 0, 83, 85
2, 22800, Note_on_c, 0, 71, 85
2, 22820, Note_on_c, 0, 83, 0
2, 22820, Note_on_c, 0, 71, 0
2, 22848, Note_on_c, 0, 80, 85
2, 22848, Note_on_c, 0, 68, 85
2, 22868, Note_on_c, 0, 80, 0
2, 22868, Note_on_c, 0, 68, 0
2, 22896, Note_on_c, 0, 76, 85
2, 22896, Note_on_c, 0, 64, 85
2, 22916, Note_on_c, 0, 76, 0
2, 22916, Note_on_c, 0, 64, 0
2, 22944, Note_on_c, 0, 81, 85
2, 22944, Note_on_c, 0, 69, 85
2, 23038, Note_on_c, 0, 81, 0
2, 23038, Note_on_c, 0, 69, 0
2, 23040, Note_on_c, 0, 81, 85
2, 23040, Note_on_c, 0, 69, 85
2, 23085, Note_on_c, 0, 81, 0
2, 23085, Note_on_c, 0, 69, 0
2, 23088, Note_on_c, 0, 83, 85
2, 23088, Note_on_c, 0, 71, 85
2, 23133, Note_on_c, 0, 83, 0
2, 23133, Note_on_c, 0, 71, 0
2, 23136, Note_on_c, 0, 85, 85
2, 23136, Note_on_c, 0, 73, 85
2, 23230, Note_on_c, 0, 85, 0
2, 23230, Note_on_c, 0, 73, 0
2, 23232, Note_on_c, 0, 81, 85
2, 23232, Note_on_c, 0, 69, 85
2, 23252, Note_on_c, 0, 81, 0
2, 23252, Note_on_c, 0, 69, 0
2, 23280, Note_on_c, 0, 83, 85
2, 23280, Note_on_c, 0, 71, 85
2, 23300, Note_on_c, 0, 83, 0
2, 23300, Note_on_c, 0, 71, 0
2, 23328, Note_on_c, 0, 85, 85
2, 23328, Note_on_c, 0, 73, 85
2, 23348, Note_on_c, 0, 85, 0
2, 23348, Note_on_c, 0, 73, 0
2, 23376, Note_on_c, 0, 83, 85
2, 23376, Note_on_c, 0, 71, 85
2, 23396, Note_on_c, 0, 83, 0
2, 23396, Note_on_c, 0, 71, 0
2, 23424, Note_on_c, 0, 81, 85
2, 23424, Note_on_c, 0, 69, 85
2, 23444, Note_on_c, 0, 81, 0
2, 23444, Note_on_c, 0, 69, 0
2, 23472, Note_on_c, 0, 80, 85
2, 23472, Note_on_c, 0, 68, 85
2, 23492, Note_on_c, 0, 80, 0
2, 23492, Note_on_c, 0, 68, 0
2, 23520, Note_on_c, 0, 78, 85
2, 23520, Note_on_c, 0, 66, 85
2, 23540, Note_on_c, 0, 78, 0
2, 23540, Note_on_c, 0, 66, 0
2, 23568, Note_on_c, 0, 80, 85
2, 23568, Note_on_c, 0, 68, 85
2, 23588, Note_on_c, 0, 80, 0
2, 23588, Note_on_c, 0, 68, 0
2, 23616, Note_on_c, 0, 81, 85
2, 23616, Note_on_c, 0, 69, 85
2, 23636, Note_on_c, 0, 81, 0
2, 23636, Note_on_c, 0, 69, 0
2, 23664, Note_on_c, 0, 83, 85
2, 23664, Note_on_c, 0, 71, 85
2, 23684, Note_on_c, 0, 83, 0
2, 23684, Note_on_c, 0, 71, 0
2, 23712, Note_on_c, 0, 80, 85
2, 23712, Note_on_c, 0, 68, 85
2, 23732, Note_on_c, 0, 80, 0
2, 23732, Note_on_c, 0, 68, 0
2, 23760, Note_on_c, 0, 76, 85
2, 23760, Note_on_c, 0, 64, 85
2, 23780, Note_on_c, 0, 76, 0
2, 23780, Note_on_c, 0, 64, 0
2, 23808, Note_on_c, 0, 81, 85
2, 23808, Note_on_c, 0, 69, 85
2, 23828, Note_on_c, 0, 81, 0
2, 23828, Note_on_c, 0, 69, 0
2, 23856, Note_on_c, 0, 83, 85
2, 23856, Note_on_c, 0, 71, 85
2, 23876, Note_on_c, 0, 83, 0
2, 23876, Note_on_c, 0, 71, 0
2, 23904, Note_on_c, 0, 85, 85
2, 23904, Note_on_c, 0, 73, 85
2, 23998, Note_on_c, 0, 85, 0
2, 23998, Note_on_c, 0, 73, 0
2, 24000, Note_on_c, 0, 81, 85
2, 24000, Note_on_c, 0, 69, 85
2, 24020, Note_on_c, 0, 81, 0
2, 24020, Note_on_c, 0, 69, 0
2, 24048, Note_on_c, 0, 83, 85
2, 24048, Note_on_c, 0, 71, 85
2, 24068, Note_on_c, 0, 83, 0
2, 24068, Note_on_c, 0, 71, 0
2, 24096, Note_on_c, 0, 85, 85
2, 24096, Note_on_c, 0, 73, 85
2, 24116, Note_on_c, 0, 85, 0
2, 24116, Note_on_c, 0, 73, 0
2, 24144, Note_on_c, 0, 83, 85
2, 24144, Note_on_c, 0, 71, 85
2, 24164, Note_on_c, 0, 83, 0
2, 24164, Note_on_c, 0, 71, 0
2, 24192, Note_on_c, 0, 81, 85
2, 24192, Note_on_c, 0, 69, 85
2, 24212, Note_on_c, 0, 81, 0
2, 24212, Note_on_c, 0, 69, 0
2, 24240, Note_on_c, 0, 80, 85
2, 24240, Note_on_c, 0, 68, 85
2, 24260, Note_on_c, 0, 80, 0
2, 24260, Note_on_c, 0, 68, 0
2, 24288, Note_on_c, 0, 78, 85
2, 24288, Note_on_c, 0, 66, 85
2, 24308, Note_on_c, 0, 78, 0
2, 24308, Note_on_c, 0, 66, 0
2, 24336, Note_on_c, 0, 83, 85
2, 24336, Note_on_c, 0, 71, 85
2, 24356, Note_on_c, 0, 83, 0
2, 24356, Note_on_c, 0, 71, 0
2, 24384, Note_on_c, 0, 80, 85
2, 24384, Note_on_c, 0, 68, 85
2, 24404, Note_on_c, 0, 80, 0
2, 24404, Note_on_c, 0, 68, 0
2, 24432, Note_on_c, 0, 76, 85
2, 24432, Note_on_c, 0, 64, 85
2, 24452, Note_on_c, 0, 76, 0
2, 24452, Note_on_c, 0, 64, 0
2, 24480, Note_on_c, 0, 81, 85
2, 24480, Note_on_c, 0, 69, 85
2, 24574, Note_on_c, 0, 81, 0
2, 24574, Note_on_c, 0, 69, 0
2, 24576, Note_on_c, 0, 71, 48
2, 24599, Note_on_c, 0, 71, 0
2, 24600, Note_on_c, 0, 69, 48
2, 24623, Note_on_c, 0, 69, 0
2, 24624, Note_on_c, 0, 68, 48
2, 24647, Note_on_c, 0, 68, 0
2, 24648, Note_on_c, 0, 69, 48
2, 24671, Note_on_c, 0, 69, 0
2, 24672, Note_on_c, 0, 72, 48
2, 24711, Note_on_c, 0, 72, 0
2, 24768, Note_on_c, 0, 74, 48
2, 24791, Note_on_c, 0, 74, 0
2, 24792, Note_on_c, 0, 72, 48
2, 24815, Note_on_c, 0, 72, 0
2, 24816, Note_on_c, 0, 71, 48
2, 24839, Note_on_c, 0, 71, 0
2, 24840, Note_on_c, 0, 72, 48
2, 24863, Note_on_c, 0, 72, 0
2, 24864, Note_on_c, 0, 76, 48
2, 24903, Note_on_c, 0, 76, 0
2, 24960, Note_on_c, 0, 77, 48
2, 24983, Note_on_c, 0, 77, 0
2, 24984, Note_on_c, 0, 76, 48
2, 25007, Note_on_c, 0, 76, 0
2, 25008, Note_on_c, 0, 75, 48
2, 25031, Note_on_c, 0, 75, 0
2, 25032, Note_on_c, 0, 76, 48
2, 25055, Note_on_c, 0, 76, 0
2, 25056, Note_on_c, 0, 83, 48
2, 25079, Note_on_c, 0, 83, 0
2, 25080, Note_on_c, 0, 81, 48
2, 25103, Note_on_c, 0, 81, 0
2, 25104, Note_on_c, 0, 80, 48
2, 25127, Note_on_c, 0, 80, 0
2, 25128, Note_on_c, 0, 81, 48
2, 25151, Note_on_c, 0, 81, 0
2, 25152, Note_on_c, 0, 83, 48
2, 25175, Note_on_c, 0, 83, 0
2, 25176, Note_on_c, 0, 81, 48
2, 25199, Note_on_c, 0, 81, 0
2, 25200, Note_on_c, 0, 80, 48
2, 25223, Note_on_c, 0, 80, 0
2, 25224, Note_on_c, 0, 81, 48
2, 25247, Note_on_c, 0, 81, 0
2, 25248, Note_on_c, 0, 84, 48
2, 25337, Note_on_c, 0, 84, 0
2, 25344, Note_on_c, 0, 81, 48
2, 25389, Note_on_c, 0, 81, 0
2, 25392, Note_on_c, 0, 84, 48
2, 25437, Note_on_c, 0, 84, 0
2, 25440, Note_on_c, 0, 79, 48
2, 25446, Note_on_c, 0, 79, 0
2, 25446, Note_on_c, 0, 81, 48
2, 25452, Note_on_c, 0, 81, 0
2, 25452, Note_on_c, 0, 83, 48
2, 25485, Note_on_c, 0, 83, 0
2, 25488, Note_on_c, 0, 81, 48
2, 25488, Note_on_c, 0, 78, 48
2, 25533, Note_on_c, 0, 81, 0
2, 25533, Note_on_c, 0, 78, 0
2, 25536, Note_on_c, 0, 79, 48
2, 25536, Note_on_c, 0, 76, 48
2, 25581, Note_on_c, 0, 79, 0
2, 25581, Note_on_c, 0, 76, 0
2, 25584, Note_on_c, 0, 81, 48
2, 25584, Note_on_c, 0, 78, 48
2, 25629, Note_on_c, 0, 81, 0
2, 25629, Note_on_c, 0, 78, 0
2, 25632, Note_on_c, 0, 79, 48
2, 25638, Note_on_c, 0, 79, 0
2, 25638, Note_on_c, 0, 81, 48
2, 25644, Note_on_c, 0, 81, 0
2, 25644, Note_on_c, 0, 83, 48
2, 25677, Note_on_c, 0, 83, 0
2, 25680, Note_on_c, 0, 81, 48
2, 25680, Note_on_c, 0, 78, 48
2, 25725, Note_on_c, 0, 81, 0
2, 25725, Note_on_c, 0, 78, 0
2, 25728, Note_on_c, 0, 79, 48
2, 25728, Note_on_c, 0, 76, 48
2, 25773, Note_on_c, 0, 79, 0
2, 25773, Note_on_c, 0, 76, 0
2, 25776, Note_on_c, 0, 81, 48
2, 25776, Note_on_c, 0, 78, 48
2, 25821, Note_on_c, 0, 81, 0
2, 25821, Note_on_c, 0, 78, 0
2, 25824, Note_on_c, 0, 79, 48
2, 25830, Note_on_c, 0, 79, 0
2, 25830, Note_on_c, 0, 81, 48
2, 25836, Note_on_c, 0, 81, 0
2, 25836, Note_on_c, 0, 83, 48
2, 25869, Note_on_c, 0, 83, 0
2, 25872, Note_on_c, 0, 81, 48
2, 25872, Note_on_c, 0, 78, 48
2, 25917, Note_on_c, 0, 81, 0
2, 25917, Note_on_c, 0, 78, 0
2, 25920, Note_on_c, 0, 79, 48
2, 25920, Note_on_c, 0, 76, 48
2, 25965, Note_on_c, 0, 79, 0
2, 25965, Note_on_c, 0, 76, 0
2, 25968, Note_on_c, 0, 78, 48
2, 25968, Note_on_c, 0, 75, 48
2, 26013, Note_on_c, 0, 78, 0
2, 26013, Note_on_c, 0, 75, 0
2, 26016, Note_on_c, 0, 76, 48
2, 26105, Note_on_c, 0, 76, 0
2, 26112, Note_on_c, 0, 71, 48
2, 26135, Note_on_c, 0, 71, 0
2, 26136, Note_on_c, 0, 69, 48
2, 26159, Note_on_c, 0, 69, 0
2, 26160, Note_on_c, 0, 68, 48
2, 26183, Note_on_c, 0, 68, 0
2, 26184, Note_on_c, 0, 69, 48
2, 26207, Note_on_c, 0, 69, 0
2, 26208, Note_on_c, 0, 72, 48
2, 26247, Note_on_c, 0, 72, 0
2, 26304, Note_on_c, 0, 74, 48
2, 26327, Note_on_c, 0, 74, 0
2, 26328, Note_on_c, 0, 72, 48
2, 26351, Note_on_c, 0, 72, 0
2, 26352, Note_on_c, 0, 71, 48
2, 26375, Note_on_c, 0, 71, 0
2, 26376, Note_on_c, 0, 72, 48
2, 26399, Note_on_c, 0, 72, 0
2, 26400, Note_on_c, 0, 76, 48
2, 26439, Note_on_c, 0, 76, 0
2, 26496, Note_on_c, 0, 77, 48
2, 26519, Note_on_c, 0, 77, 0
2, 26520, Note_on_c, 0, 76, 48
2, 26543, Note_on_c, 0, 76, 0
2, 26544, Note_on_c, 0, 75, 48
2, 26567, Note_on_c, 0, 75, 0
2, 26568, Note_on_c, 0, 76, 48
2, 26591, Note_on_c, 0, 76, 0
2, 26592, Note_on_c, 0, 83, 48
2, 26615, Note_on_c, 0, 83, 0
2, 26616, Note_on_c, 0, 81, 48
2, 26639, Note_on_c, 0, 81, 0
2, 26640, Note_on_c, 0, 80, 48
2, 26663, Note_on_c, 0, 80, 0
2, 26664, Note_on_c, 0, 81, 48
2, 26687, Note_on_c, 0, 81, 0
2, 26688, Note_on_c, 0, 83, 48
2, 26711, Note_on_c, 0, 83, 0
2, 26712, Note_on_c, 0, 81, 48
2, 26735, Note_on_c, 0, 81, 0
2, 26736, Note_on_c, 0, 80, 48
2, 26759, Note_on_c, 0, 80, 0
2, 26760, Note_on_c, 0, 81, 48
2, 26783, Note_on_c, 0, 81, 0
2, 26784, Note_on_c, 0, 84, 48
2, 26873, Note_on_c, 0, 84, 0
2, 26880, Note_on_c, 0, 81, 48
2, 26925, Note_on_c, 0, 81, 0
2, 26928, Note_on_c, 0, 84, 48
2, 26973, Note_on_c, 0, 84, 0
2, 26976, Note_on_c, 0, 79, 48
2, 26982, Note_on_c, 0, 79, 0
2, 26982, Note_on_c, 0, 81, 48
2, 26988, Note_on_c, 0, 81, 0
2, 26988, Note_on_c, 0, 83, 48
2, 27021, Note_on_c, 0, 83, 0
2, 27024, Note_on_c, 0, 81, 48
2, 27024, Note_on_c, 0, 78, 48
2, 27069, Note_on_c, 0, 81, 0
2, 27069, Note_on_c, 0, 78, 0
2, 27072, Note_on_c, 0, 79, 48
2, 27072, Note_on_c, 0, 76, 48
2, 27117, Note_on_c, 0, 79, 0
2, 27117, Note_on_c, 0, 76, 0
2, 27120, Note_on_c, 0, 81, 48
2, 27120, Note_on_c, 0, 78, 48
2, 27165, Note_on_c, 0, 81, 0
2, 27165, Note_on_c, 0, 78, 0
2, 27168, Note_on_c, 0, 79, 48
2, 27174, Note_on_c, 0, 79, 0
2, 27174, Note_on_c, 0, 81, 48
2, 27180, Note_on_c, 0, 81, 0
2, 27180, Note_on_c, 0, 83, 48
2, 27213, Note_on_c, 0, 83, 0
2, 27216, Note_on_c, 0, 81, 48
2, 27216, Note_on_c, 0, 78, 48
2, 27261, Note_on_c, 0, 81, 0
2, 27261, Note_on_c, 0, 78, 0
2, 27264, Note_on_c, 0, 79, 48
2, 27264, Note_on_c, 0, 76, 48
2, 27309, Note_on_c, 0, 79, 0
2, 27309, Note_on_c, 0, 76, 0
2, 27312, Note_on_c, 0, 81, 48
2, 27312, Note_on_c, 0, 78, 48
2, 27357, Note_on_c, 0, 81, 0
2, 27357, Note_on_c, 0, 78, 0
2, 27360, Note_on_c, 0, 79, 48
2, 27366, Note_on_c, 0, 79, 0
2, 27366, Note_on_c, 0, 81, 48
2, 27372, Note_on_c, 0, 81, 0
2, 27372, Note_on_c, 0, 83, 48
2, 27405, Note_on_c, 0, 83, 0
2, 27408, Note_on_c, 0, 81, 48
2, 27408, Note_on_c, 0, 78, 48
2, 27453, Note_on_c, 0, 81, 0
2, 27453, Note_on_c, 0, 78, 0
2, 27456, Note_on_c, 0, 79, 48
2, 27456, Note_on_c, 0, 76, 48
2, 27501, Note_on_c, 0, 79, 0
2, 27501, Note_on_c, 0, 76, 0
2, 27504, Note_on_c, 0, 78, 48
2, 27504, Note_on_c, 0, 75, 48
2, 27549, Note_on_c, 0, 78, 0
2, 27549, Note_on_c, 0, 75, 0
2, 27552, Note_on_c, 0, 76, 48
2, 27641, Note_on_c, 0, 76, 0
2, 27648, Note_on_c, 0, 76, 85
2, 27648, Note_on_c, 0, 72, 85
2, 27693, Note_on_c, 0, 76, 0
2, 27693, Note_on_c, 0, 72, 0
2, 27696, Note_on_c, 0, 77, 85
2, 27696, Note_on_c, 0, 74, 85
2, 27741, Note_on_c, 0, 77, 0
2, 27741, Note_on_c, 0, 74, 0
2, 27744, Note_on_c, 0, 79, 85
2, 27744, Note_on_c, 0, 76, 85
2, 27764, Note_on_c, 0, 79, 0
2, 27764, Note_on_c, 0, 76, 0
2, 27792, Note_on_c, 0, 79, 85
2, 27792, Note_on_c, 0, 76, 85
2, 27812, Note_on_c, 0, 79, 0
2, 27812, Note_on_c, 0, 76, 0
2, 27840, Note_on_c, 0, 81, 85
2, 27863, Note_on_c, 0, 81, 0
2, 27864, Note_on_c, 0, 79, 85
2, 27887, Note_on_c, 0, 79, 0
2, 27888, Note_on_c, 0, 77, 85
2, 27911, Note_on_c, 0, 77, 0
2, 27912, Note_on_c, 0, 76, 85
2, 27935, Note_on_c, 0, 76, 0
2, 27936, Note_on_c, 0, 74, 85
2, 28025, Note_on_c, 0, 74, 0
2, 28320, Note_on_c, 0, 74, 85
2, 28320, Note_on_c, 0, 71, 85
2, 28409, Note_on_c, 0, 74, 0
2, 28409, Note_on_c, 0, 71, 0
2, 28416, Note_on_c, 0, 72, 85
2, 28416, Note_on_c, 0, 69, 85
2, 28436, Note_on_c, 0, 72, 0
2, 28436, Note_on_c, 0, 69, 0
2, 28464, Note_on_c, 0, 74, 85
2, 28464, Note_on_c, 0, 71, 85
2, 28484, Note_on_c, 0, 74, 0
2, 28484, Note_on_c, 0, 71, 0
2, 28512, Note_on_c, 0, 76, 85
2, 28512, Note_on_c, 0, 72, 85
2, 28532, Note_on_c, 0, 76, 0
2, 28532, Note_on_c, 0, 72, 0
2, 28560, Note_on_c, 0, 76, 85
2, 28560, Note_on_c, 0, 72, 85
2, 28580, Note_on_c, 0, 76, 0
2, 28580, Note_on_c, 0, 72, 0
2, 28608, Note_on_c, 0, 77, 85
2, 28631, Note_on_c, 0, 77, 0
2, 28632, Note_on_c, 0, 76, 85
2, 28655, Note_on_c, 0, 76, 0
2, 28656, Note_on_c, 0, 74, 85
2, 28679, Note_on_c, 0, 74, 0
2, 28680, Note_on_c, 0, 72, 85
2, 28703, Note_on_c, 0, 72, 0
2, 28704, Note_on_c, 0, 71, 85
2, 28793, Note_on_c, 0, 71, 0
2, 28800, Note_on_c, 0, 72, 85
2, 28800, Note_on_c, 0, 69, 85
2, 28820, Note_on_c, 0, 72, 0
2, 28820, Note_on_c, 0, 69, 0
2, 28848, Note_on_c, 0, 74, 85
2, 28848, Note_on_c, 0, 71, 85
2, 28868, Note_on_c, 0, 74, 0
2, 28868, Note_on_c, 0, 71, 0
2, 28896, Note_on_c, 0, 76, 85
2, 28896, Note_on_c, 0, 72, 85
2, 28916, Note_on_c, 0, 76, 0
2, 28916, Note_on_c, 0, 72, 0
2, 28944, Note_on_c, 0, 76, 85
2, 28944, Note_on_c, 0, 72, 85
2, 28964, Note_on_c, 0, 76, 0
2, 28964, Note_on_c, 0, 72, 0
2, 28992, Note_on_c, 0, 77, 85
2, 29015, Note_on_c, 0, 77, 0
2, 29016, Note_on_c, 0, 76, 85
2, 29039, Note_on_c, 0, 76, 0
2, 29040, Note_on_c, 0, 74, 85
2, 29063, Note_on_c, 0, 74, 0
2, 29064, Note_on_c, 0, 72, 85
2, 29087, Note_on_c, 0, 72, 0
2, 29088, Note_on_c, 0, 71, 85
2, 29088, Note_on_c, 0, 68, 85
2, 29177, Note_on_c, 0, 71, 0
2, 29177, Note_on_c, 0, 68, 0
2, 29184, Note_on_c, 0, 71, 48
2, 29207, Note_on_c, 0, 71, 0
2, 29208, Note_on_c, 0, 69, 48
2, 29231, Note_on_c, 0, 69, 0
2, 29232, Note_on_c, 0, 68, 48
2, 29255, Note_on_c, 0, 68, 0
2, 29256, Note_on_c, 0, 69, 48
2, 29279, Note_on_c, 0, 69, 0
2, 29280, Note_on_c, 0, 72, 48
2, 29319, Note_on_c, 0, 72, 0
2, 29376, Note_on_c, 0, 74, 48
2, 29399, Note_on_c, 0, 74, 0
2, 29400, Note_on_c, 0, 72, 48
2, 29423, Note_on_c, 0, 72, 0
2, 29424, Note_on_c, 0, 71, 48
2, 29447, Note_on_c, 0, 71, 0
2, 29448, Note_on_c, 0, 72, 48
2, 29471, Note_on_c, 0, 72, 0
2, 29472, Note_on_c, 0, 76, 48
2, 29511, Note_on_c, 0, 76, 0
2, 29568, Note_on_c, 0, 77, 48
2, 29591, Note_on_c, 0, 77, 0
2, 29592, Note_on_c, 0, 76, 48
2, 29615, Note_on_c, 0, 76, 0
2, 29616, Note_on_c, 0, 75, 48
2, 29639, Note_on_c, 0, 75, 0
2, 29640, Note_on_c, 0, 76, 48
2, 29663, Note_on_c, 0, 76, 0
2, 29664, Note_on_c, 0, 83, 48
2, 29687, Note_on_c, 0, 83, 0
2, 29688, Note_on_c, 0, 81, 48
2, 29711, Note_on_c, 0, 81, 0
2, 29712, Note_on_c, 0, 80, 48
2, 29735, Note_on_c, 0, 80, 0
2, 29736, Note_on_c, 0, 81, 48
2, 29759, Note_on_c, 0, 81, 0
2, 29760, Note_on_c, 0, 83, 48
2, 29783, Note_on_c, 0, 83, 0
2, 29784, Note_on_c, 0, 81, 48
2, 29807, Note_on_c, 0, 81, 0
2, 29808, Note_on_c, 0, 80, 48
2, 29831, Note_on_c, 0, 80, 0
2, 29832, Note_on_c, 0, 81, 48
2, 29855, Note_on_c, 0, 81, 0
2, 29856, Note_on_c, 0, 84, 48
2, 29945, Note_on_c, 0, 84, 0
2, 29952, Note_on_c, 0, 81, 48
2, 29997, Note_on_c, 0, 81, 0
2, 30000, Note_on_c, 0, 83, 48
2, 30045, Note_on_c, 0, 83, 0
2, 30048, Note_on_c, 0, 81, 48
2, 30054, Note_on_c, 0, 81, 0
2, 30054, Note_on_c, 0, 83, 48
2, 30060, Note_on_c, 0, 83, 0
2, 30060, Note_on_c, 0, 84, 48
2, 30093, Note_on_c, 0, 84, 0
2, 30096, Note_on_c, 0, 83, 48
2, 30141, Note_on_c, 0, 83, 0
2, 30144, Note_on_c, 0, 81, 48
2, 30189, Note_on_c, 0, 81, 0
2, 30192, Note_on_c, 0, 80, 48
2, 30237, Note_on_c, 0, 80, 0
2, 30240, Note_on_c, 0, 81, 48
2, 30252, Note_on_c, 0, 81, 0
2, 30252, Note_on_c, 0, 83, 48
2, 30264, Note_on_c, 0, 83, 0
2, 30264, Note_on_c, 0, 81, 48
2, 30285, Note_on_c, 0, 81, 0
2, 30288, Note_on_c, 0, 76, 48
2, 30333, Note_on_c, 0, 76, 0
2, 30336, Note_on_c, 0, 77, 48
2, 30381, Note_on_c, 0, 77, 0
2, 30384, Note_on_c, 0, 74, 48
2, 30429, Note_on_c, 0, 74, 0
2, 30432, Note_on_c, 0, 72, 48
2, 30521, Note_on_c, 0, 72, 0
2, 30528, Note_on_c, 0, 71, 48
2, 30540, Note_on_c, 0, 71, 0
2, 30540, Note_on_c, 0, 72, 48
2, 30552, Note_on_c, 0, 72, 0
2, 30552, Note_on_c, 0, 71, 48
2, 30564, Note_on_c, 0, 71, 0
2, 30564, Note_on_c, 0, 72, 48
2, 30576, Note_on_c, 0, 72, 0
2, 30576, Note_on_c, 0, 71, 48
2, 30588, Note_on_c, 0, 71, 0
2, 30588, Note_on_c, 0, 72, 48
2, 30595, Note_on_c, 0, 72, 0
2, 30600, Note_on_c, 0, 69, 48
2, 30612, Note_on_c, 0, 69, 0
2, 30612, Note_on_c, 0, 71, 48
2, 30624, Note_on_c, 0, 71, 0
2, 30624, Note_on_c, 0, 69, 48
2, 30713, Note_on_c, 0, 69, 0
2, 30720, Note_on_c, 0, 76, 85
2, 30720, Note_on_c, 0, 72, 85
2, 30765, Note_on_c, 0, 76, 0
2, 30765, Note_on_c, 0, 72, 0
2, 30768, Note_on_c, 0, 77, 85
2, 30768, Note_on_c, 0, 74, 85
2, 30813, Note_on_c, 0, 77, 0
2, 30813, Note_on_c, 0, 74, 0
2, 30816, Note_on_c, 0, 79, 85
2, 30816, Note_on_c, 0, 76, 85
2, 30836, Note_on_c, 0, 79, 0
2, 30836, Note_on_c, 0, 76, 0
2, 30864, Note_on_c, 0, 79, 85
2, 30864, Note_on_c, 0, 76, 85
2, 30884, Note_on_c, 0, 79, 0
2, 30884, Note_on_c, 0, 76, 0
2, 30912, Note_on_c, 0, 81, 85
2, 30935, Note_on_c, 0, 81, 0
2, 30936, Note_on_c, 0, 79, 85
2, 30959, Note_on_c, 0, 79, 0
2, 30960, Note_on_c, 0, 77, 85
2, 30983, Note_on_c, 0, 77, 0
2, 30984, Note_on_c, 0, 76, 85
2, 31007, Note_on_c, 0, 76, 0
2, 31008, Note_on_c, 0, 74, 85
2, 31097, Note_on_c, 0, 74, 0
2, 31392, Note_on_c, 0, 74, 85
2, 31392, Note_on_c, 0, 71, 85
2, 31481, Note_on_c, 0, 74, 0
2, 31481, Note_on_c, 0, 71, 0
2, 31488, Note_on_c, 0, 72, 85
2, 31488, Note_on_c, 0, 69, 85
2, 31508, Note_on_c, 0, 72, 0
2, 31508, Note_on_c, 0, 69, 0
2, 31536, Note_on_c, 0, 74, 85
2, 31536, Note_on_c, 0, 71, 85
2, 31556, Note_on_c, 0, 74, 0
2, 31556, Note_on_c, 0, 71, 0
2, 31584, Note_on_c, 0, 76, 85
2, 31584, Note_on_c, 0, 72, 85
2, 31604, Note_on_c, 0, 76, 0
2, 31604, Note_on_c, 0, 72, 0
2, 31632, Note_on_c, 0, 76, 85
2, 31632, Note_on_c, 0, 72, 85
2, 31652, Note_on_c, 0, 76, 0
2, 31652, Note_on_c, 0, 72, 0
2, 31680, Note_on_c, 0, 77, 85
2, 31703, Note_on_c, 0, 77, 0
2, 31704, Note_on_c, 0, 76, 85
2, 31727, Note_on_c, 0, 76, 0
2, 31728, Note_on_c, 0, 74, 85
2, 31751, Note_on_c, 0, 74, 0
2, 31752, Note_on_c, 0, 72, 85
2, 31775, Note_on_c, 0, 72, 0
2, 31776, Note_on_c, 0, 71, 85
2, 31865, Note_on_c, 0, 71, 0
2, 31872, Note_on_c, 0, 72, 85
2, 31872, Note_on_c, 0, 69, 85
2, 31892, Note_on_c, 0, 72, 0
2, 31892, Note_on_c, 0, 69, 0
2, 31920, Note_on_c, 0, 74, 85
2, 31920, Note_on_c, 0, 71, 85
2, 31940, Note_on_c, 0, 74, 0
2, 31940, Note_on_c, 0, 71, 0
2, 31968, Note_on_c, 0, 76, 85
2, 31968, Note_on_c, 0, 72, 85
2, 31988, Note_on_c, 0, 76, 0
2, 31988, Note_on_c, 0, 72, 0
2, 32016, Note_on_c, 0, 76, 85
2, 32016, Note_on_c, 0, 72, 85
2, 32036, Note_on_c, 0, 76, 0
2, 32036, Note_on_c, 0, 72, 0
2, 32064, Note_on_c, 0, 77, 85
2, 32087, Note_on_c, 0, 77, 0
2, 32088, Note_on_c, 0, 76, 85
2, 32111, Note_on_c, 0, 76, 0
2, 32112, Note_on_c, 0, 74, 85
2, 32135, Note_on_c, 0, 74, 0
2, 32136, Note_on_c, 0, 72, 85
2, 32159, Note_on_c, 0, 72, 0
2, 32160, Note_on_c, 0, 71, 85
2, 32160, Note_on_c, 0, 68, 85
2, 32249, Note_on_c, 0, 71, 0
2, 32249, Note_on_c, 0, 68, 0
2, 32256, Note_on_c, 0, 71, 48
2, 32279, Note_on_c, 0, 71, 0
2, 32280, Note_on_c, 0, 69, 48
2, 32303, Note_on_c, 0, 69, 0
2, 32304, Note_on_c, 0, 68, 48
2, 32327, Note_on_c, 0, 68, 0
2, 32328, Note_on_c, 0, 69, 48
2, 32351, Note_on_c, 0, 69, 0
2, 32352, Note_on_c, 0, 72, 48
2, 32391, Note_on_c, 0, 72, 0
2, 32448, Note_on_c, 0, 74, 48
2, 32471, Note_on_c, 0, 74, 0
2, 32472, Note_on_c, 0, 72, 48
2, 32495, Note_on_c, 0, 72, 0
2, 32496, Note_on_c, 0, 71, 48
2, 32519, Note_on_c, 0, 71, 0
2, 32520, Note_on_c, 0, 72, 48
2, 32543, Note_on_c, 0, 72, 0
2, 32544, Note_on_c, 0, 76, 48
2, 32583, Note_on_c, 0, 76, 0
2, 32640, Note_on_c, 0, 77, 48
2, 32663, Note_on_c, 0, 77, 0
2, 32664, Note_on_c, 0, 76, 48
2, 32687, Note_on_c, 0, 76, 0
2, 32688, Note_on_c, 0, 75, 48
2, 32711, Note_on_c, 0, 75, 0
2, 32712, Note_on_c, 0, 76, 48
2, 32735, Note_on_c, 0, 76, 0
2, 32736, Note_on_c, 0, 83, 48
2, 32759, Note_on_c, 0, 83, 0
2, 32760, Note_on_c, 0, 81, 48
2, 32783, Note_on_c, 0, 81, 0
2, 32784, Note_on_c, 0, 80, 48
2, 32807, Note_on_c, 0, 80, 0
2, 32808, Note_on_c, 0, 81, 48
2, 32831, Note_on_c, 0, 81, 0
2, 32832, Note_on_c, 0, 83, 48
2, 32855, Note_on_c, 0, 83, 0
2, 32856, Note_on_c, 0, 81, 48
2, 32879, Note_on_c, 0, 81, 0
2, 32880, Note_on_c, 0, 80, 48
2, 32903, Note_on_c, 0, 80, 0
2, 32904, Note_on_c, 0, 81, 48
2, 32927, Note_on_c, 0, 81, 0
2, 32928, Note_on_c, 0, 84, 48
2, 33017, Note_on_c, 0, 84, 0
2, 33024, Note_on_c, 0, 81, 48
2, 33069, Note_on_c, 0, 81, 0
2, 33072, Note_on_c, 0, 83, 48
2, 33117, Note_on_c, 0, 83, 0
2, 33120, Note_on_c, 0, 81, 48
2, 33126, Note_on_c, 0, 81, 0
2, 33126, Note_on_c, 0, 83, 48
2, 33132, Note_on_c, 0, 83, 0
2, 33132, Note_on_c, 0, 84, 48
2, 33165, Note_on_c, 0, 84, 0
2, 33168, Note_on_c, 0, 83, 48
2, 33213, Note_on_c, 0, 83, 0
2, 33216, Note_on_c, 0, 81, 48
2, 33261, Note_on_c, 0, 81, 0
2, 33264, Note_on_c, 0, 80, 48
2, 33309, Note_on_c, 0, 80, 0
2, 33312, Note_on_c, 0, 81, 48
2, 33324, Note_on_c, 0, 81, 0
2, 33324, Note_on_c, 0, 83, 48
2, 33336, Note_on_c, 0, 83, 0
2, 33336, Note_on_c, 0, 81, 48
2, 33357, Note_on_c, 0, 81, 0
2, 33360, Note_on_c, 0, 76, 48
2, 33405, Note_on_c, 0, 76, 0
2, 33408, Note_on_c, 0, 77, 48
2, 33453, Note_on_c, 0, 77, 0
2, 33456, Note_on_c, 0, 74, 48
2, 33501, Note_on_c, 0, 74, 0
2, 33504, Note_on_c, 0, 72, 48
2, 33593, Note_on_c, 0, 72, 0
2, 33600, Note_on_c, 0, 71, 48
2, 33612, Note_on_c, 0, 71, 0
2, 33612, Note_on_c, 0, 72, 48
2, 33624, Note_on_c, 0, 72, 0
2, 33624, Note_on_c, 0, 71, 48
2, 33636, Note_on_c, 0, 71, 0
2, 33636, Note_on_c, 0, 72, 48
2, 33648, Note_on_c, 0, 72, 0
2, 33648, Note_on_c, 0, 71, 48
2, 33660, Note_on_c, 0, 71, 0
2, 33660, Note_on_c, 0, 72, 48
2, 33667, Note_on_c, 0, 72, 0
2, 33672, Note_on_c, 0, 69, 48
2, 33684, Note_on_c, 0, 69, 0
2, 33684, Note_on_c, 0, 71, 48
2, 33696, Note_on_c, 0, 71, 0
2, 33696, Note_on_c, 0, 69, 48
2, 33785, Note_on_c, 0, 69, 0
2, 33792, Note_on_c, 0, 69, 85
2, 33815, Note_on_c, 0, 69, 0
2, 33816, Note_on_c, 0, 81, 85
2, 33839, Note_on_c, 0, 81, 0
2, 33840, Note_on_c, 0, 71, 85
2, 33863, Note_on_c, 0, 71, 0
2, 33864, Note_on_c, 0, 83, 85
2, 33887, Note_on_c, 0, 83, 0
2, 33888, Note_on_c, 0, 73, 85
2, 33911, Note_on_c, 0, 73, 0
2, 33912, Note_on_c, 0, 85, 85
2, 33935, Note_on_c, 0, 85, 0
2, 33984, Note_on_c, 0, 69, 85
2, 34007, Note_on_c, 0, 69, 0
2, 34008, Note_on_c, 0, 81, 85
2, 34031, Note_on_c, 0, 81, 0
2, 34032, Note_on_c, 0, 71, 85
2, 34055, Note_on_c, 0, 71, 0
2, 34056, Note_on_c, 0, 83, 85
2, 34079, Note_on_c, 0, 83, 0
2, 34080, Note_on_c, 0, 73, 85
2, 34103, Note_on_c, 0, 73, 0
2, 34104, Note_on_c, 0, 85, 85
2, 34127, Note_on_c, 0, 85, 0
2, 34128, Note_on_c, 0, 71, 85
2, 34151, Note_on_c, 0, 71, 0
2, 34152, Note_on_c, 0, 83, 85
2, 34175, Note_on_c, 0, 83, 0
2, 34176, Note_on_c, 0, 69, 85
2, 34199, Note_on_c, 0, 69, 0
2, 34200, Note_on_c, 0, 81, 85
2, 34223, Note_on_c, 0, 81, 0
2, 34224, Note_on_c, 0, 68, 85
2, 34247, Note_on_c, 0, 68, 0
2, 34248, Note_on_c, 0, 80, 85
2, 34271, Note_on_c, 0, 80, 0
2, 34272, Note_on_c, 0, 66, 85
2, 34295, Note_on_c, 0, 66, 0
2, 34296, Note_on_c, 0, 78, 85
2, 34319, Note_on_c, 0, 78, 0
2, 34320, Note_on_c, 0, 68, 85
2, 34343, Note_on_c, 0, 68, 0
2, 34344, Note_on_c, 0, 80, 85
2, 34367, Note_on_c, 0, 80, 0
2, 34368, Note_on_c, 0, 69, 85
2, 34391, Note_on_c, 0, 69, 0
2, 34392, Note_on_c, 0, 81, 85
2, 34415, Note_on_c, 0, 81, 0
2, 34416, Note_on_c, 0, 71, 85
2, 34439, Note_on_c, 0, 71, 0
2, 34440, Note_on_c, 0, 83, 85
2, 34463, Note_on_c, 0, 83, 0
2, 34464, Note_on_c, 0, 68, 85
2, 34487, Note_on_c, 0, 68, 0
2, 34488, Note_on_c, 0, 80, 85
2, 34511, Note_on_c, 0, 80, 0
2, 34512, Note_on_c, 0, 64, 85
2, 34535, Note_on_c, 0, 64, 0
2, 34536, Note_on_c, 0, 76, 85
2, 34559, Note_on_c, 0, 76, 0
2, 34560, Note_on_c, 0, 69, 85
2, 34583, Note_on_c, 0, 69, 0
2, 34584, Note_on_c, 0, 81, 85
2, 34607, Note_on_c, 0, 81, 0
2, 34608, Note_on_c, 0, 71, 85
2, 34631, Note_on_c, 0, 71, 0
2, 34632, Note_on_c, 0, 83, 85
2, 34655, Note_on_c, 0, 83, 0
2, 34656, Note_on_c, 0, 73, 85
2, 34679, Note_on_c, 0, 73, 0
2, 34680, Note_on_c, 0, 85, 85
2, 34703, Note_on_c, 0, 85, 0
2, 34752, Note_on_c, 0, 69, 85
2, 34775, Note_on_c, 0, 69, 0
2, 34776, Note_on_c, 0, 81, 85
2, 34799, Note_on_c, 0, 81, 0
2, 34800, Note_on_c, 0, 71, 85
2, 34823, Note_on_c, 0, 71, 0
2, 34824, Note_on_c, 0, 83, 85
2, 34847, Note_on_c, 0, 83, 0
2, 34848, Note_on_c, 0, 73, 85
2, 34871, Note_on_c, 0, 73, 0
2, 34872, Note_on_c, 0, 85, 85
2, 34895, Note_on_c, 0, 85, 0
2, 34896, Note_on_c, 0, 71, 85
2, 34919, Note_on_c, 0, 71, 0
2, 34920, Note_on_c, 0, 83, 85
2, 34943, Note_on_c, 0, 83, 0
2, 34944, Note_on_c, 0, 69, 85
2, 34967, Note_on_c, 0, 69, 0
2, 34968, Note_on_c, 0, 81, 85
2, 34991, Note_on_c, 0, 81, 0
2, 34992, Note_on_c, 0, 68, 85
2, 35015, Note_on_c, 0, 68, 0
2, 35016, Note_on_c, 0, 80, 85
2, 35039, Note_on_c, 0, 80, 0
2, 35040, Note_on_c, 0, 66, 85
2, 35063, Note_on_c, 0, 66, 0
2, 35064, Note_on_c, 0, 78, 85
2, 35087, Note_on_c, 0, 78, 0
2, 35088, Note_on_c, 0, 71, 85
2, 35111, Note_on_c, 0, 71, 0
2, 35112, Note_on_c, 0, 83, 85
2, 35135, Note_on_c, 0, 83, 0
2, 35136, Note_on_c, 0, 68, 85
2, 35159, Note_on_c, 0, 68, 0
2, 35160, Note_on_c, 0, 80, 85
2, 35183, Note_on_c, 0, 80, 0
2, 35184, Note_on_c, 0, 64, 85
2, 35207, Note_on_c, 0, 64, 0
2, 35208, Note_on_c, 0, 76, 85
2, 35231, Note_on_c, 0, 76, 0
2, 35232, Note_on_c, 0, 81, 85
2, 35232, Note_on_c, 0, 69, 85
2, 35321, Note_on_c, 0, 81, 0
2, 35321, Note_on_c, 0, 69, 0
2, 35328, Note_on_c, 0, 69, 85
2, 35351, Note_on_c, 0, 69, 0
2, 35352, Note_on_c, 0, 81, 85
2, 35375, Note_on_c, 0, 81, 0
2, 35376, Note_on_c, 0, 71, 85
2, 35399, Note_on_c, 0, 71, 0
2, 35400, Note_on_c, 0, 83, 85
2, 35423, Note_on_c, 0, 83, 0
2, 35424, Note_on_c, 0, 73, 85
2, 35447, Note_on_c, 0, 73, 0
2, 35448, Note_on_c, 0, 85, 85
2, 35471, Note_on_c, 0, 85, 0
2, 35520, Note_on_c, 0, 69, 85
2, 35543, Note_on_c, 0, 69, 0
2, 35544, Note_on_c, 0, 81, 85
2, 35567, Note_on_c, 0, 81, 0
2, 35568, Note_on_c, 0, 71, 85
2, 35591, Note_on_c, 0, 71, 0
2, 35592, Note_on_c, 0, 83, 85
2, 35615, Note_on_c, 0, 83, 0
2, 35616, Note_on_c, 0, 73, 85
2, 35639, Note_on_c, 0, 73, 0
2, 35640, Note_on_c, 0, 85, 85
2, 35663, Note_on_c, 0, 85, 0
2, 35664, Note_on_c, 0, 71, 85
2, 35687, Note_on_c, 0, 71, 0
2, 35688, Note_on_c, 0, 83, 85
2, 35711, Note_on_c, 0, 83, 0
2, 35712, Note_on_c, 0, 69, 85
2, 35735, Note_on_c, 0, 69, 0
2, 35736, Note_on_c, 0, 81, 85
2, 35759, Note_on_c, 0, 81, 0
2, 35760, Note_on_c, 0, 68, 85
2, 35783, Note_on_c, 0, 68, 0
2, 35784, Note_on_c, 0, 80, 85
2, 35807, Note_on_c, 0, 80, 0
2, 35808, Note_on_c, 0, 66, 85
2, 35831, Note_on_c, 0, 66, 0
2, 35832, Note_on_c, 0, 78, 85
2, 35855, Note_on_c, 0, 78, 0
2, 35856, Note_on_c, 0, 68, 85
2, 35879, Note_on_c, 0, 68, 0
2, 35880, Note_on_c, 0, 80, 85
2, 35903, Note_on_c, 0, 80, 0
2, 35904, Note_on_c, 0, 69, 85
2, 35927, Note_on_c, 0, 69, 0
2, 35928, Note_on_c, 0, 81, 85
2, 35951, Note_on_c, 0, 81, 0
2, 35952, Note_on_c, 0, 71, 85
2, 35975, Note_on_c, 0, 71, 0
2, 35976, Note_on_c, 0, 83, 85
2, 35999, Note_on_c, 0, 83, 0
2, 36000, Note_on_c, 0, 68, 85
2, 36023, Note_on_c, 0, 68, 0
2, 36024, Note_on_c, 0, 80, 85
2, 36047, Note_on_c, 0, 80, 0
2, 36048, Note_on_c, 0, 64, 85
2, 36071, Note_on_c, 0, 64, 0
2, 36072, Note_on_c, 0, 76, 85
2, 36095, Note_on_c, 0, 76, 0
2, 36096, Note_on_c, 0, 69, 85
2, 36119, Note_on_c, 0, 69, 0
2, 36120, Note_on_c, 0, 81, 85
2, 36143, Note_on_c, 0, 81, 0
2, 36144, Note_on_c, 0, 71, 85
2, 36167, Note_on_c, 0, 71, 0
2, 36168, Note_on_c, 0, 83, 85
2, 36191, Note_on_c, 0, 83, 0
2, 36192, Note_on_c, 0, 73, 85
2, 36215, Note_on_c, 0, 73, 0
2, 36216, Note_on_c, 0, 85, 85
2, 36239, Note_on_c, 0, 85, 0
2, 36288, Note_on_c, 0, 69, 85
2, 36311, Note_on_c, 0, 69, 0
2, 36312, Note_on_c, 0, 81, 85
2, 36335, Note_on_c, 0, 81, 0
2, 36336, Note_on_c, 0, 71, 85
2, 36359, Note_on_c, 0, 71, 0
2, 36360, Note_on_c, 0, 83, 85
2, 36383, Note_on_c, 0, 83, 0
2, 36384, Note_on_c, 0, 73, 85
2, 36407, Note_on_c, 0, 73, 0
2, 36408, Note_on_c, 0, 85, 85
2, 36431, Note_on_c, 0, 85, 0
2, 36432, Note_on_c, 0, 71, 85
2, 36455, Note_on_c, 0, 71, 0
2, 36456, Note_on_c, 0, 83, 85
2, 36479, Note_on_c, 0, 83, 0
2, 36480, Note_on_c, 0, 69, 85
2, 36503, Note_on_c, 0, 69, 0
2, 36504, Note_on_c, 0, 81, 85
2, 36527, Note_on_c, 0, 81, 0
2, 36528, Note_on_c, 0, 68, 85
2, 36551, Note_on_c, 0, 68, 0
2, 36552, Note_on_c, 0, 80, 85
2, 36575, Note_on_c, 0, 80, 0
2, 36576, Note_on_c, 0, 66, 85
2, 36599, Note_on_c, 0, 66, 0
2, 36600, Note_on_c, 0, 78, 85
2, 36623, Note_on_c, 0, 78, 0
2, 36624, Note_on_c, 0, 71, 85
2, 36647, Note_on_c, 0, 71, 0
2, 36648, Note_on_c, 0, 83, 85
2, 36671, Note_on_c, 0, 83, 0
2, 36672, Note_on_c, 0, 68, 85
2, 36695, Note_on_c, 0, 68, 0
2, 36696, Note_on_c, 0, 80, 85
2, 36719, Note_on_c, 0, 80, 0
2, 36720, Note_on_c, 0, 64, 85
2, 36743, Note_on_c, 0, 64, 0
2, 36744, Note_on_c, 0, 76, 85
2, 36767, Note_on_c, 0, 76, 0
2, 36768, Note_on_c, 0, 81, 85
2, 36768, Note_on_c, 0, 69, 85
2, 36857, Note_on_c, 0, 81, 0
2, 36857, Note_on_c, 0, 69, 0
2, 36864, Note_on_c, 0, 85, 85
2, 36931, Note_on_c, 0, 85, 0
2, 36936, Note_on_c, 0, 85, 85
2, 36959, Note_on_c, 0, 85, 0
2, 36960, Note_on_c, 0, 85, 85
2, 37137, Note_on_c, 0, 85, 0
2, 37152, Note_on_c, 0, 85, 85
2, 37329, Note_on_c, 0, 85, 0
2, 37344, Note_on_c, 0, 86, 85
2, 37367, Note_on_c, 0, 86, 0
2, 37368, Note_on_c, 0, 85, 86
2, 37391, Note_on_c, 0, 85, 0
2, 37392, Note_on_c, 0, 83, 87
2, 37415, Note_on_c, 0, 83, 0
2, 37416, Note_on_c, 0, 85, 89
2, 37439, Note_on_c, 0, 85, 0
2, 37440, Note_on_c, 0, 86, 90
2, 37463, Note_on_c, 0, 86, 0
2, 37464, Note_on_c, 0, 85, 91
2, 37487, Note_on_c, 0, 85, 0
2, 37488, Note_on_c, 0, 83, 93
2, 37511, Note_on_c, 0, 83, 0
2, 37512, Note_on_c, 0, 85, 94
2, 37535, Note_on_c, 0, 85, 0
2, 37536, Note_on_c, 0, 86, 127
2, 37536, Note_on_c, 0, 81, 127
2, 37536, Note_on_c, 0, 78, 127
2, 37713, Note_on_c, 0, 86, 0
2, 37713, Note_on_c, 0, 81, 0
2, 37713, Note_on_c, 0, 78, 0
2, 37728, Note_on_c, 0, 86, 85
2, 37734, Note_on_c, 0, 86, 0
2, 37734, Note_on_c, 0, 85, 85
2, 37734, Note_on_c, 0, 81, 85
2, 37734, Note_on_c, 0, 76, 85
2, 37773, Note_on_c, 0, 85, 0
2, 37773, Note_on_c, 0, 81, 0
2, 37773, Note_on_c, 0, 76, 0
2, 37776, Note_on_c, 0, 86, 85
2, 37782, Note_on_c, 0, 86, 0
2, 37782, Note_on_c, 0, 85, 85
2, 37782, Note_on_c, 0, 81, 85
2, 37782, Note_on_c, 0, 76, 85
2, 37821, Note_on_c, 0, 85, 0
2, 37821, Note_on_c, 0, 81, 0
2, 37821, Note_on_c, 0, 76, 0
2, 37824, Note_on_c, 0, 86, 85
2, 37830, Note_on_c, 0, 86, 0
2, 37830, Note_on_c, 0, 85, 85
2, 37830, Note_on_c, 0, 81, 85
2, 37830, Note_on_c, 0, 76, 85
2, 37869, Note_on_c, 0, 85, 0
2, 37869, Note_on_c, 0, 81, 0
2, 37869, Note_on_c, 0, 76, 0
2, 37872, Note_on_c, 0, 86, 85
2, 37878, Note_on_c, 0, 86, 0
2, 37878, Note_on_c, 0, 85, 85
2, 37878, Note_on_c, 0, 81, 85
2, 37878, Note_on_c, 0, 76, 85
2, 37917, Note_on_c, 0, 85, 0
2, 37917, Note_on_c, 0, 81, 0
2, 37917, Note_on_c, 0, 76, 0
2, 37920, Note_on_c, 0, 83, 85
2, 38053, Note_on_c, 0, 83, 0
2, 38064, Note_on_c, 0, 88, 85
2, 38109, Note_on_c, 0, 88, 0
2, 38112, Note_on_c, 0, 85, 85
2, 38289, Note_on_c, 0, 85, 0
2, 38304, Note_on_c, 0, 85, 78
2, 38481, Note_on_c, 0, 85, 0
2, 38496, Note_on_c, 0, 86, 71
2, 38519, Note_on_c, 0, 86, 0
2, 38520, Note_on_c, 0, 85, 72
2, 38543, Note_on_c, 0, 85, 0
2, 38544, Note_on_c, 0, 83, 74
2, 38567, Note_on_c, 0, 83, 0
2, 38568, Note_on_c, 0, 85, 76
2, 38591, Note_on_c, 0, 85, 0
2, 38592, Note_on_c, 0, 86, 78
2, 38615, Note_on_c, 0, 86, 0
2, 38616, Note_on_c, 0, 85, 79
2, 38639, Note_on_c, 0, 85, 0
2, 38640, Note_on_c, 0, 83, 81
2, 38663, Note_on_c, 0, 83, 0
2, 38664, Note_on_c, 0, 85, 83
2, 38687, Note_on_c, 0, 85, 0
2, 38688, Note_on_c, 0, 86, 127
2, 38688, Note_on_c, 0, 81, 127
2, 38688, Note_on_c, 0, 78, 127
2, 38865, Note_on_c, 0, 86, 0
2, 38865, Note_on_c, 0, 81, 0
2, 38865, Note_on_c, 0, 78, 0
2, 38880, Note_on_c, 0, 86, 85
2, 38886, Note_on_c, 0, 86, 0
2, 38886, Note_on_c, 0, 85, 85
2, 38886, Note_on_c, 0, 81, 85
2, 38886, Note_on_c, 0, 76, 85
2, 39057, Note_on_c, 0, 85, 0
2, 39057, Note_on_c, 0, 81, 0
2, 39057, Note_on_c, 0, 76, 0
2, 39072, Note_on_c, 0, 85, 71
2, 39078, Note_on_c, 0, 85, 0
2, 39078, Note_on_c, 0, 83, 71
2, 39078, Note_on_c, 0, 80, 71
2, 39078, Note_on_c, 0, 76, 71
2, 39117, Note_on_c, 0, 83, 0
2, 39117, Note_on_c, 0, 80, 0
2, 39117, Note_on_c, 0, 76, 0
2, 39120, Note_on_c, 0, 85, 71
2, 39126, Note_on_c, 0, 85, 0
2, 39126, Note_on_c, 0, 83, 71
2, 39126, Note_on_c, 0, 80, 71
2, 39126, Note_on_c, 0, 76, 71
2, 39165, Note_on_c, 0, 83, 0
2, 39165, Note_on_c, 0, 80, 0
2, 39165, Note_on_c, 0, 76, 0
2, 39168, Note_on_c, 0, 85, 71
2, 39174, Note_on_c, 0, 85, 0
2, 39174, Note_on_c, 0, 83, 71
2, 39174, Note_on_c, 0, 80, 71
2, 39174, Note_on_c, 0, 76, 71
2, 39213, Note_on_c, 0, 83, 0
2, 39213, Note_on_c, 0, 80, 0
2, 39213, Note_on_c, 0, 76, 0
2, 39216, Note_on_c, 0, 85, 71
2, 39222, Note_on_c, 0, 85, 0
2, 39222, Note_on_c, 0, 83, 71
2, 39222, Note_on_c, 0, 80, 71
2, 39222, Note_on_c, 0, 76, 71
2, 39261, Note_on_c, 0, 83, 0
2, 39261, Note_on_c, 0, 80, 0
2, 39261, Note_on_c, 0, 76, 0
2, 39264, Note_on_c, 0, 81, 71
2, 39353, Note_on_c, 0, 81, 0
2, 39360, Note_on_c, 0, 76, 48
2, 39366, Note_on_c, 0, 76, 0
2, 39366, Note_on_c, 0, 81, 48
2, 39372, Note_on_c, 0, 81, 0
2, 39372, Note_on_c, 0, 85, 48
2, 39427, Note_on_c, 0, 85, 0
2, 39432, Note_on_c, 0, 85, 51
2, 39455, Note_on_c, 0, 85, 0
2, 39456, Note_on_c, 0, 76, 52
2, 39462, Note_on_c, 0, 76, 0
2, 39462, Note_on_c, 0, 81, 52
2, 39468, Note_on_c, 0, 81, 0
2, 39468, Note_on_c, 0, 85, 52
2, 39633, Note_on_c, 0, 85, 0
2, 39648, Note_on_c, 0, 76, 61
2, 39654, Note_on_c, 0, 76, 0
2, 39654, Note_on_c, 0, 81, 61
2, 39660, Note_on_c, 0, 81, 0
2, 39660, Note_on_c, 0, 85, 61
2, 39825, Note_on_c, 0, 85, 0
2, 39840, Note_on_c, 0, 86, 48
2, 39863, Note_on_c, 0, 86, 0
2, 39864, Note_on_c, 0, 85, 48
2, 39887, Note_on_c, 0, 85, 0
2, 39888, Note_on_c, 0, 83, 48
2, 39911, Note_on_c, 0, 83, 0
2, 39912, Note_on_c, 0, 85, 48
2, 39935, Note_on_c, 0, 85, 0
2, 39936, Note_on_c, 0, 86, 48
2, 39959, Note_on_c, 0, 86, 0
2, 39960, Note_on_c, 0, 85, 48
2, 39983, Note_on_c, 0, 85, 0
2, 39984, Note_on_c, 0, 83, 48
2, 40007, Note_on_c, 0, 83, 0
2, 40008, Note_on_c, 0, 85, 48
2, 40031, Note_on_c, 0, 85, 0
2, 40032, Note_on_c, 0, 86, 127
2, 40209, Note_on_c, 0, 86, 0
2, 40224, Note_on_c, 0, 86, 48
2, 40230, Note_on_c, 0, 86, 0
2, 40230, Note_on_c, 0, 85, 48
2, 40269, Note_on_c, 0, 85, 0
2, 40272, Note_on_c, 0, 86, 48
2, 40278, Note_on_c, 0, 86, 0
2, 40278, Note_on_c, 0, 85, 48
2, 40317, Note_on_c, 0, 85, 0
2, 40320, Note_on_c, 0, 86, 48
2, 40326, Note_on_c, 0, 86, 0
2, 40326, Note_on_c, 0, 85, 48
2, 40365, Note_on_c, 0, 85, 0
2, 40368, Note_on_c, 0, 86, 48
2, 40374, Note_on_c, 0, 86, 0
2, 40374, Note_on_c, 0, 85, 48
2, 40413, Note_on_c, 0, 85, 0
2, 40416, Note_on_c, 0, 83, 48
2, 40549, Note_on_c, 0, 83, 0
2, 40560, Note_on_c, 0, 88, 48
2, 40605, Note_on_c, 0, 88, 0
2, 40608, Note_on_c, 0, 85, 48
2, 40785, Note_on_c, 0, 85, 0
2, 40800, Note_on_c, 0, 85, 48
2, 40977, Note_on_c, 0, 85, 0
2, 40992, Note_on_c, 0, 86, 48
2, 41015, Note_on_c, 0, 86, 0
2, 41016, Note_on_c, 0, 85, 49
2, 41039, Note_on_c, 0, 85, 0
2, 41040, Note_on_c, 0, 83, 51
2, 41063, Note_on_c, 0, 83, 0
2, 41064, Note_on_c, 0, 85, 52
2, 41087, Note_on_c, 0, 85, 0
2, 41088, Note_on_c, 0, 86, 54
2, 41111, Note_on_c, 0, 86, 0
2, 41112, Note_on_c, 0, 85, 56
2, 41135, Note_on_c, 0, 85, 0
2, 41136, Note_on_c, 0, 83, 57
2, 41159, Note_on_c, 0, 83, 0
2, 41160, Note_on_c, 0, 85, 59
2, 41183, Note_on_c, 0, 85, 0
2, 41184, Note_on_c, 0, 86, 61
2, 41184, Note_on_c, 0, 81, 61
2, 41184, Note_on_c, 0, 78, 61
2, 41361, Note_on_c, 0, 86, 0
2, 41361, Note_on_c, 0, 81, 0
2, 41361, Note_on_c, 0, 78, 0
2, 41376, Note_on_c, 0, 86, 54
2, 41382, Note_on_c, 0, 86, 0
2, 41382, Note_on_c, 0, 85, 54
2, 41382, Note_on_c, 0, 81, 54
2, 41382, Note_on_c, 0, 76, 54
2, 41553, Note_on_c, 0, 85, 0
2, 41553, Note_on_c, 0, 81, 0
2, 41553, Note_on_c, 0, 76, 0
2, 41568, Note_on_c, 0, 85, 48
2, 41574, Note_on_c, 0, 85, 0
2, 41574, Note_on_c, 0, 83, 48
2, 41574, Note_on_c, 0, 80, 48
2, 41574, Note_on_c, 0, 76, 48
2, 41613, Note_on_c, 0, 83, 0
2, 41613, Note_on_c, 0, 80, 0
2, 41613, Note_on_c, 0, 76, 0
2, 41616, Note_on_c, 0, 85, 48
2, 41622, Note_on_c, 0, 85, 0
2, 41622, Note_on_c, 0, 83, 48
2, 41622, Note_on_c, 0, 80, 48
2, 41622, Note_on_c, 0, 76, 48
2, 41661, Note_on_c, 0, 83, 0
2, 41661, Note_on_c, 0, 80, 0
2, 41661, Note_on_c, 0, 76, 0
2, 41664, Note_on_c, 0, 85, 48
2, 41670, Note_on_c, 0, 85, 0
2, 41670, Note_on_c, 0, 83, 48
2, 41670, Note_on_c, 0, 80, 48
2, 41670, Note_on_c, 0, 76, 48
2, 41709, Note_on_c, 0, 83, 0
2, 41709, Note_on_c, 0, 80, 0
2, 41709, Note_on_c, 0, 76, 0
2, 41712, Note_on_c, 0, 85, 48
2, 41718, Note_on_c, 0, 85, 0
2, 41718, Note_on_c, 0, 83, 48
2, 41718, Note_on_c, 0, 80, 48
2, 41718, Note_on_c, 0, 76, 48
2, 41757, Note_on_c, 0, 83, 0
2, 41757, Note_on_c, 0, 80, 0
2, 41757, Note_on_c, 0, 76, 0
2, 41760, Note_on_c, 0, 81, 48
2, 41760, Note_on_c, 0, 76, 48
2, 41760, Note_on_c, 0, 73, 48
2, 41760, Note_on_c, 0, 69, 48
2, 41893, Note_on_c, 0, 81, 0
2, 41893, Note_on_c, 0, 76, 0
2, 41893, Note_on_c, 0, 73, 0
2, 41893, Note_on_c, 0, 69, 0
2, 41904, Note_on_c, 0, 85, 48
2, 41904, Note_on_c, 0, 73, 48
2, 41949, Note_on_c, 0, 85, 0
2, 41949, Note_on_c, 0, 73, 0
2, 41952, Note_on_c, 0, 81, 48
2, 41952, Note_on_c, 0, 69, 48
2, 42085, Note_on_c, 0, 81, 0
2, 42085, Note_on_c, 0, 69, 0
2, 42096, Note_on_c, 0, 88, 48
2, 42096, Note_on_c, 0, 76, 48
2, 42141, Note_on_c, 0, 88, 0
2, 42141, Note_on_c, 0, 76, 0
2, 42144, Note_on_c, 0, 81, 48
2, 42144, Note_on_c, 0, 69, 48
2, 42277, Note_on_c, 0, 81, 0
2, 42277, Note_on_c, 0, 69, 0
2, 42288, Note_on_c, 0, 85, 48
2, 42288, Note_on_c, 0, 73, 48
2, 42333, Note_on_c, 0, 85, 0
2, 42333, Note_on_c, 0, 73, 0
2, 42336, Note_on_c, 0, 81, 48
2, 42336, Note_on_c, 0, 69, 48
2, 42381, Note_on_c, 0, 81, 0
2, 42381, Note_on_c, 0, 69, 0
2, 42384, Note_on_c, 0, 85, 48
2, 42384, Note_on_c, 0, 73, 48
2, 42429, Note_on_c, 0, 85, 0
2, 42429, Note_on_c, 0, 73, 0
2, 42432, Note_on_c, 0, 81, 48
2, 42432, Note_on_c, 0, 69, 48
2, 42477, Note_on_c, 0, 81, 0
2, 42477, Note_on_c, 0, 69, 0
2, 42480, Note_on_c, 0, 88, 48
2, 42480, Note_on_c, 0, 76, 48
2, 42525, Note_on_c, 0, 88, 0
2, 42525, Note_on_c, 0, 76, 0
2, 42528, Note_on_c, 0, 81, 48
2, 42528, Note_on_c, 0, 69, 48
2, 42617, Note_on_c, 0, 81, 0
2, 42617, Note_on_c, 0, 69, 0
2, 42624, Note_on_c, 0, 81, 96
2, 42624, Note_on_c, 0, 76, 96
2, 42624, Note_on_c, 0, 73, 96
2, 42624, Note_on_c, 0, 69, 96
2, 42713, Note_on_c, 0, 81, 0
2, 42713, Note_on_c, 0, 76, 0
2, 42713, Note_on_c, 0, 73, 0
2, 42713, Note_on_c, 0, 69, 0
2, 42720, Note_on_c, 0, 81, 96
2, 42720, Note_on_c, 0, 76, 96
2, 42720, Note_on_c, 0, 73, 96
2, 42720, Note_on_c, 0, 69, 96
2, 42897, Note_on_c, 0, 81, 0
2, 42897, Note_on_c, 0, 76, 0
2, 42897, Note_on_c, 0, 73, 0
2, 42897, Note_on_c, 0, 69, 0
2, 43296, Note_on_c, 0, 92, 0
2, 43302, Note_on_c, 0, 92, 0
2, 43302, End_track
3, 0, Start_track
3, 0, Program_c, 0, 0
3, 0, Control_c, 0, 7, 127
3, 0, Control_c, 0, 10, 64
3, 3360, Note_on_c, 0, 71, 71
3, 3405, Note_on_c, 0, 71, 0
3, 3408, Note_on_c, 0, 67, 71
3, 3453, Note_on_c, 0, 67, 0
3, 3456, Note_on_c, 0, 76, 71
3, 3456, Note_on_c, 0, 72, 71
3, 3476, Note_on_c, 0, 76, 0
3, 3476, Note_on_c, 0, 72, 0
3, 3504, Note_on_c, 0, 77, 71
3, 3504, Note_on_c, 0, 74, 71
3, 3524, Note_on_c, 0, 77, 0
3, 3524, Note_on_c, 0, 74, 0
3, 3552, Note_on_c, 0, 79, 71
3, 3552, Note_on_c, 0, 76, 71
3, 3572, Note_on_c, 0, 79, 0
3, 3572, Note_on_c, 0, 76, 0
3, 3600, Note_on_c, 0, 79, 71
3, 3600, Note_on_c, 0, 76, 71
3, 3620, Note_on_c, 0, 79, 0
3, 3620, Note_on_c, 0, 76, 0
3, 3648, Note_on_c, 0, 81, 71
3, 3671, Note_on_c, 0, 81, 0
3, 3672, Note_on_c, 0, 79, 71
3, 3695, Note_on_c, 0, 79, 0
3, 3696, Note_on_c, 0, 77, 71
3, 3719, Note_on_c, 0, 77, 0
3, 3720, Note_on_c, 0, 76, 71
3, 3743, Note_on_c, 0, 76, 0
3, 4128, Note_on_c, 0, 68, 71
3, 4173, Note_on_c, 0, 68, 0
3, 4176, Note_on_c, 0, 64, 71
3, 4221, Note_on_c, 0, 64, 0
3, 6432, Note_on_c, 0, 71, 71
3, 6477, Note_on_c, 0, 71, 0
3, 6480, Note_on_c, 0, 67, 71
3, 6525, Note_on_c, 0, 67, 0
3, 6528, Note_on_c, 0, 76, 71
3, 6528, Note_on_c, 0, 72, 71
3, 6548, Note_on_c, 0, 76, 0
3, 6548, Note_on_c, 0, 72, 0
3, 6576, Note_on_c, 0, 77, 71
3, 6576, Note_on_c, 0, 74, 71
3, 6596, Note_on_c, 0, 77, 0
3, 6596, Note_on_c, 0, 74, 0
3, 6624, Note_on_c, 0, 79, 71
3, 6624, Note_on_c, 0, 76, 71
3, 6644, Note_on_c, 0, 79, 0
3, 6644, Note_on_c, 0, 76, 0
3, 6672, Note_on_c, 0, 79, 71
3, 6672, Note_on_c, 0, 76, 71
3, 6692, Note_on_c, 0, 79, 0
3, 6692, Note_on_c, 0, 76, 0
3, 6720, Note_on_c, 0, 81, 71
3, 6743, Note_on_c, 0, 81, 0
3, 6744, Note_on_c, 0, 79, 71
3, 6767, Note_on_c, 0, 79, 0
3, 6768, Note_on_c, 0, 77, 71
3, 6791, Note_on_c, 0, 77, 0
3, 6792, Note_on_c, 0, 76, 71
3, 6815, Note_on_c, 0, 76, 0
3, 7200, Note_on_c, 0, 68, 71
3, 7245, Note_on_c, 0, 68, 0
3, 7248, Note_on_c, 0, 64, 71
3, 7293, Note_on_c, 0, 64, 0
3, 27936, Note_on_c, 0, 71, 85
3, 27981, Note_on_c, 0, 71, 0
3, 27984, Note_on_c, 0, 67, 85
3, 28029, Note_on_c, 0, 67, 0
3, 28032, Note_on_c, 0, 76, 85
3, 28032, Note_on_c, 0, 72, 85
3, 28052, Note_on_c, 0, 76, 0
3, 28052, Note_on_c, 0, 72, 0
3, 28080, Note_on_c, 0, 77, 85
3, 28080, Note_on_c, 0, 74, 85
3, 28100, Note_on_c, 0, 77, 0
3, 28100, Note_on_c, 0, 74, 0
3, 28128, Note_on_c, 0, 79, 85
3, 28128, Note_on_c, 0, 76, 85
3, 28148, Note_on_c, 0, 79, 0
3, 28148, Note_on_c, 0, 76, 0
3, 28176, Note_on_c, 0, 79, 85
3, 28176, Note_on_c, 0, 76, 85
3, 28196, Note_on_c, 0, 79, 0
3, 28196, Note_on_c, 0, 76, 0
3, 28224, Note_on_c, 0, 81, 85
3, 28247, Note_on_c, 0, 81, 0
3, 28248, Note_on_c, 0, 79, 85
3, 28271, Note_on_c, 0, 79, 0
3, 28272, Note_on_c, 0, 77, 85
3, 28295, Note_on_c, 0, 77, 0
3, 28296, Note_on_c, 0, 76, 85
3, 28319, Note_on_c, 0, 76, 0
3, 28704, Note_on_c, 0, 68, 85
3, 28749, Note_on_c, 0, 68, 0
3, 28752, Note_on_c, 0, 64, 85
3, 28797, Note_on_c, 0, 64, 0
3, 31008, Note_on_c, 0, 71, 85
3, 31053, Note_on_c, 0, 71, 0
3, 31056, Note_on_c, 0, 67, 85
3, 31101, Note_on_c, 0, 67, 0
3, 31104, Note_on_c, 0, 76, 85
3, 31104, Note_on_c, 0, 72, 85
3, 31124, Note_on_c, 0, 76, 0
3, 31124, Note_on_c, 0, 72, 0
3, 31152, Note_on_c, 0, 77, 85
3, 31152, Note_on_c, 0, 74, 85
3, 31172, Note_on_c, 0, 77, 0
3, 31172, Note_on_c, 0, 74, 0
3, 31200, Note_on_c, 0, 79, 85
3, 31200, Note_on_c, 0, 76, 85
3, 31220, Note_on_c, 0, 79, 0
3, 31220, Note_on_c, 0, 76, 0
3, 31248, Note_on_c, 0, 79, 85
3, 31248, Note_on_c, 0, 76, 85
3, 31268, Note_on_c, 0, 79, 0
3, 31268, Note_on_c, 0, 76, 0
3, 31296, Note_on_c, 0, 81, 85
3, 31319, Note_on_c, 0, 81, 0
3, 31320, Note_on_c, 0, 79, 85
3, 31343, Note_on_c, 0, 79, 0
3, 31344, Note_on_c, 0, 77, 85
3, 31367, Note_on_c, 0, 77, 0
3, 31368, Note_on_c, 0, 76, 85
3, 31391, Note_on_c, 0, 76, 0
3, 31776, Note_on_c, 0, 68, 85
3, 31821, Note_on_c, 0, 68, 0
3, 31824, Note_on_c, 0, 64, 85
3, 31869, Note_on_c, 0, 64, 0
3, 36864, Note_on_c, 0, 73, 85
3, 36953, Note_on_c, 0, 73, 0
3, 36960, Note_on_c, 0, 73, 85
3, 36976, Note_on_c, 0, 76, 85
3, 36992, Note_on_c, 0, 81, 85
3, 37049, Note_on_c, 0, 81, 0
3, 37049, Note_on_c, 0, 76, 0
3, 37049, Note_on_c, 0, 73, 0
3, 37152, Note_on_c, 0, 73, 85
3, 37168, Note_on_c, 0, 76, 85
3, 37184, Note_on_c, 0, 81, 85
3, 37241, Note_on_c, 0, 81, 0
3, 37241, Note_on_c, 0, 76, 0
3, 37241, Note_on_c, 0, 73, 0
3, 37920, Note_on_c, 0, 80, 85
3, 37920, Note_on_c, 0, 76, 85
3, 38097, Note_on_c, 0, 80, 0
3, 38097, Note_on_c, 0, 76, 0
3, 38112, Note_on_c, 0, 73, 85
3, 38128, Note_on_c, 0, 76, 85
3, 38144, Note_on_c, 0, 81, 85
3, 38201, Note_on_c, 0, 81, 0
3, 38201, Note_on_c, 0, 76, 0
3, 38201, Note_on_c, 0, 73, 0
3, 38304, Note_on_c, 0, 73, 75
3, 38320, Note_on_c, 0, 76, 75
3, 38336, Note_on_c, 0, 81, 75
3, 38393, Note_on_c, 0, 81, 0
3, 38393, Note_on_c, 0, 76, 0
3, 38393, Note_on_c, 0, 73, 0
3, 40608, Note_on_c, 0, 73, 48
3, 40624, Note_on_c, 0, 76, 48
3, 40640, Note_on_c, 0, 81, 48
3, 40697, Note_on_c, 0, 81, 0
3, 40697, Note_on_c, 0, 76, 0
3, 40697, Note_on_c, 0, 73, 0
3, 40800, Note_on_c, 0, 73, 48
3, 40816, Note_on_c, 0, 76, 48
3, 40832, Note_on_c, 0, 81, 48
3, 40889, Note_on_c, 0, 81, 0
3, 40889, Note_on_c, 0, 76, 0
3, 40889, Note_on_c, 0, 73, 0
3, 43296, End_track
4, 0, Start_track
4, 0, Program_c, 1, 0
4, 0, Control_c, 1, 7, 127
4, 0, Control_c, 1, 10, 64
4, 96, Note_on_c, 1, 57, 48
4, 141, Note_on_c, 1, 57, 0
4, 144, Note_on_c, 1, 64, 48
4, 144, Note_on_c, 1, 60, 48
4, 164, Note_on_c, 1, 64, 0
4, 164, Note_on_c, 1, 60, 0
4, 192, Note_on_c, 1, 64, 48
4, 192, Note_on_c, 1, 60, 48
4, 212, Note_on_c, 1, 64, 0
4, 212, Note_on_c, 1, 60, 0
4, 240, Note_on_c, 1, 64, 48
4, 240, Note_on_c, 1, 60, 48
4, 260, Note_on_c, 1, 64, 0
4, 260, Note_on_c, 1, 60, 0
4, 288, Note_on_c, 1, 57, 48
4, 333, Note_on_c, 1, 57, 0
4, 336, Note_on_c, 1, 64, 48
4, 336, Note_on_c, 1, 60, 48
4, 356, Note_on_c, 1, 64, 0
4, 356, Note_on_c, 1, 60, 0
4, 384, Note_on_c, 1, 64, 48
4, 384, Note_on_c, 1, 60, 48
4, 404, Note_on_c, 1, 64, 0
4, 404, Note_on_c, 1, 60, 0
4, 432, Note_on_c, 1, 64, 48
4, 432, Note_on_c, 1, 60, 48
4, 452, Note_on_c, 1, 64, 0
4, 452, Note_on_c, 1, 60, 0
4, 480, Note_on_c, 1, 57, 48
4, 525, Note_on_c, 1, 57, 0
4, 528, Note_on_c, 1, 64, 48
4, 528, Note_on_c, 1, 60, 48
4, 548, Note_on_c, 1, 64, 0
4, 548, Note_on_c, 1, 60, 0
4, 576, Note_on_c, 1, 57, 48
4, 621, Note_on_c, 1, 57, 0
4, 624, Note_on_c, 1, 64, 48
4, 624, Note_on_c, 1, 60, 48
4, 644, Note_on_c, 1, 64, 0
4, 644, Note_on_c, 1, 60, 0
4, 672, Note_on_c, 1, 57, 48
4, 717, Note_on_c, 1, 57, 0
4, 720, Note_on_c, 1, 64, 48
4, 720, Note_on_c, 1, 60, 48
4, 740, Note_on_c, 1, 64, 0
4, 740, Note_on_c, 1, 60, 0
4, 768, Note_on_c, 1, 64, 48
4, 768, Note_on_c, 1, 60, 48
4, 788, Note_on_c, 1, 64, 0
4, 788, Note_on_c, 1, 60, 0
4, 816, Note_on_c, 1, 64, 48
4, 816, Note_on_c, 1, 60, 48
4, 836, Note_on_c, 1, 64, 0
4, 836, Note_on_c, 1, 60, 0
4, 864, Note_on_c, 1, 52, 48
4, 909, Note_on_c, 1, 52, 0
4, 912, Note_on_c, 1, 64, 48
4, 912, Note_on_c, 1, 59, 48
4, 932, Note_on_c, 1, 64, 0
4, 932, Note_on_c, 1, 59, 0
4, 960, Note_on_c, 1, 64, 48
4, 960, Note_on_c, 1, 59, 48
4, 980, Note_on_c, 1, 64, 0
4, 980, Note_on_c, 1, 59, 0
4, 1008, Note_on_c, 1, 64, 48
4, 1008, Note_on_c, 1, 59, 48
4, 1028, Note_on_c, 1, 64, 0
4, 1028, Note_on_c, 1, 59, 0
4, 1056, Note_on_c, 1, 52, 48
4, 1101, Note_on_c, 1, 52, 0
4, 1104, Note_on_c, 1, 64, 48
4, 1104, Note_on_c, 1, 59, 48
4, 1124, Note_on_c, 1, 64, 0
4, 1124, Note_on_c, 1, 59, 0
4, 1152, Note_on_c, 1, 64, 48
4, 1152, Note_on_c, 1, 59, 48
4, 1172, Note_on_c, 1, 64, 0
4, 1172, Note_on_c, 1, 59, 0
4, 1200, Note_on_c, 1, 64, 48
4, 1200, Note_on_c, 1, 59, 48
4, 1220, Note_on_c, 1, 64, 0
4, 1220, Note_on_c, 1, 59, 0
4, 1248, Note_on_c, 1, 52, 48
4, 1293, Note_on_c, 1, 52, 0
4, 1296, Note_on_c, 1, 64, 48
4, 1296, Note_on_c, 1, 59, 48
4, 1316, Note_on_c, 1, 64, 0
4, 1316, Note_on_c, 1, 59, 0
4, 1344, Note_on_c, 1, 47, 48
4, 1389, Note_on_c, 1, 47, 0
4, 1392, Note_on_c, 1, 59, 48
4, 1412, Note_on_c, 1, 59, 0
4, 1440, Note_on_c, 1, 52, 48
4, 1529, Note_on_c, 1, 52, 0
4, 1632, Note_on_c, 1, 57, 48
4, 1677, Note_on_c, 1, 57, 0
4, 1680, Note_on_c, 1, 64, 48
4, 1680, Note_on_c, 1, 60, 48
4, 1700, Note_on_c, 1, 64, 0
4, 1700, Note_on_c, 1, 60, 0
4, 1728, Note_on_c, 1, 64, 48
4, 1728, Note_on_c, 1, 60, 48
4, 1748, Note_on_c, 1, 64, 0
4, 1748, Note_on_c, 1, 60, 0
4, 1776, Note_on_c, 1, 64, 48
4, 1776, Note_on_c, 1, 60, 48
4, 1796, Note_on_c, 1, 64, 0
4, 1796, Note_on_c, 1, 60, 0
4, 1824, Note_on_c, 1, 57, 48
4, 1869, Note_on_c, 1, 57, 0
4, 1872, Note_on_c, 1, 64, 48
4, 1872, Note_on_c, 1, 60, 48
4, 1892, Note_on_c, 1, 64, 0
4, 1892, Note_on_c, 1, 60, 0
4, 1920, Note_on_c, 1, 64, 48
4, 1920, Note_on_c, 1, 60, 48
4, 1940, Note_on_c, 1, 64, 0
4, 1940, Note_on_c, 1, 60, 0
4, 1968, Note_on_c, 1, 64, 48
4, 1968, Note_on_c, 1, 60, 48
4, 1988, Note_on_c, 1, 64, 0
4, 1988, Note_on_c, 1, 60, 0
4, 2016, Note_on_c, 1, 57, 48
4, 2061, Note_on_c, 1, 57, 0
4, 2064, Note_on_c, 1, 64, 48
4, 2064, Note_on_c, 1, 60, 48
4, 2084, Note_on_c, 1, 64, 0
4, 2084, Note_on_c, 1, 60, 0
4, 2112, Note_on_c, 1, 57, 48
4, 2157, Note_on_c, 1, 57, 0
4, 2160, Note_on_c, 1, 64, 48
4, 2160, Note_on_c, 1, 60, 48
4, 2180, Note_on_c, 1, 64, 0
4, 2180, Note_on_c, 1, 60, 0
4, 2208, Note_on_c, 1, 57, 48
4, 2253, Note_on_c, 1, 57, 0
4, 2256, Note_on_c, 1, 64, 48
4, 2256, Note_on_c, 1, 60, 48
4, 2276, Note_on_c, 1, 64, 0
4, 2276, Note_on_c, 1, 60, 0
4, 2304, Note_on_c, 1, 64, 48
4, 2304, Note_on_c, 1, 60, 48
4, 2324, Note_on_c, 1, 64, 0
4, 2324, Note_on_c, 1, 60, 0
4, 2352, Note_on_c, 1, 64, 48
4, 2352, Note_on_c, 1, 60, 48
4, 2372, Note_on_c, 1, 64, 0
4, 2372, Note_on_c, 1, 60, 0
4, 2400, Note_on_c, 1, 52, 48
4, 2445, Note_on_c, 1, 52, 0
4, 2448, Note_on_c, 1, 64, 48
4, 2448, Note_on_c, 1, 59, 48
4, 2468, Note_on_c, 1, 64, 0
4, 2468, Note_on_c, 1, 59, 0
4, 2496, Note_on_c, 1, 64, 48
4, 2496, Note_on_c, 1, 59, 48
4, 2516, Note_on_c, 1, 64, 0
4, 2516, Note_on_c, 1, 59, 0
4, 2544, Note_on_c, 1, 64, 48
4, 2544, Note_on_c, 1, 59, 48
4, 2564, Note_on_c, 1, 64, 0
4, 2564, Note_on_c, 1, 59, 0
4, 2592, Note_on_c, 1, 52, 48
4, 2637, Note_on_c, 1, 52, 0
4, 2640, Note_on_c, 1, 64, 48
4, 2640, Note_on_c, 1, 59, 48
4, 2660, Note_on_c, 1, 64, 0
4, 2660, Note_on_c, 1, 59, 0
4, 2688, Note_on_c, 1, 64, 48
4, 2688, Note_on_c, 1, 59, 48
4, 2708, Note_on_c, 1, 64, 0
4, 2708, Note_on_c, 1, 59, 0
4, 2736, Note_on_c, 1, 64, 48
4, 2736, Note_on_c, 1, 59, 48
4, 2756, Note_on_c, 1, 64, 0
4, 2756, Note_on_c, 1, 59, 0
4, 2784, Note_on_c, 1, 52, 48
4, 2829, Note_on_c, 1, 52, 0
4, 2832, Note_on_c, 1, 64, 48
4, 2832, Note_on_c, 1, 59, 48
4, 2852, Note_on_c, 1, 64, 0
4, 2852, Note_on_c, 1, 59, 0
4, 2880, Note_on_c, 1, 47, 48
4, 2925, Note_on_c, 1, 47, 0
4, 2928, Note_on_c, 1, 59, 48
4, 2948, Note_on_c, 1, 59, 0
4, 2976, Note_on_c, 1, 52, 48
4, 3065, Note_on_c, 1, 52, 0
4, 3168, Note_on_c, 1, 48, 71
4, 3213, Note_on_c, 1, 48, 0
4, 3216, Note_on_c, 1, 60, 71
4, 3261, Note_on_c, 1, 60, 0
4, 3264, Note_on_c, 1, 52, 71
4, 3309, Note_on_c, 1, 52, 0
4, 3312, Note_on_c, 1, 64, 71
4, 3357, Note_on_c, 1, 64, 0
4, 3360, Note_on_c, 1, 55, 71
4, 3449, Note_on_c, 1, 55, 0
4, 3552, Note_on_c, 1, 48, 71
4, 3597, Note_on_c, 1, 48, 0
4, 3600, Note_on_c, 1, 60, 71
4, 3645, Note_on_c, 1, 60, 0
4, 3648, Note_on_c, 1, 52, 71
4, 3693, Note_on_c, 1, 52, 0
4, 3696, Note_on_c, 1, 64, 71
4, 3741, Note_on_c, 1, 64, 0
4, 3744, Note_on_c, 1, 55, 71
4, 3833, Note_on_c, 1, 55, 0
4, 3936, Note_on_c, 1, 45, 71
4, 3981, Note_on_c, 1, 45, 0
4, 3984, Note_on_c, 1, 57, 71
4, 4029, Note_on_c, 1, 57, 0
4, 4032, Note_on_c, 1, 48, 71
4, 4077, Note_on_c, 1, 48, 0
4, 4080, Note_on_c, 1, 60, 71
4, 4125, Note_on_c, 1, 60, 0
4, 4128, Note_on_c, 1, 52, 71
4, 4217, Note_on_c, 1, 52, 0
4, 4320, Note_on_c, 1, 45, 71
4, 4365, Note_on_c, 1, 45, 0
4, 4368, Note_on_c, 1, 57, 71
4, 4413, Note_on_c, 1, 57, 0
4, 4416, Note_on_c, 1, 48, 71
4, 4461, Note_on_c, 1, 48, 0
4, 4464, Note_on_c, 1, 60, 71
4, 4509, Note_on_c, 1, 60, 0
4, 4512, Note_on_c, 1, 52, 71
4, 4601, Note_on_c, 1, 52, 0
4, 4704, Note_on_c, 1, 57, 48
4, 4749, Note_on_c, 1, 57, 0
4, 4752, Note_on_c, 1, 64, 48
4, 4752, Note_on_c, 1, 60, 48
4, 4772, Note_on_c, 1, 64, 0
4, 4772, Note_on_c, 1, 60, 0
4, 4800, Note_on_c, 1, 64, 48
4, 4800, Note_on_c, 1, 60, 48
4, 4820, Note_on_c, 1, 64, 0
4, 4820, Note_on_c, 1, 60, 0
4, 4848, Note_on_c, 1, 64, 48
4, 4848, Note_on_c, 1, 60, 48
4, 4868, Note_on_c, 1, 64, 0
4, 4868, Note_on_c, 1, 60, 0
4, 4896, Note_on_c, 1, 57, 48
4, 4941, Note_on_c, 1, 57, 0
4, 4944, Note_on_c, 1, 64, 48
4, 4944, Note_on_c, 1, 60, 48
4, 4964, Note_on_c, 1, 64, 0
4, 4964, Note_on_c, 1, 60, 0
4, 4992, Note_on_c, 1, 64, 48
4, 4992, Note_on_c, 1, 60, 48
4, 5012, Note_on_c, 1, 64, 0
4, 5012, Note_on_c, 1, 60, 0
4, 5040, Note_on_c, 1, 64, 48
4, 5040, Note_on_c, 1, 60, 48
4, 5060, Note_on_c, 1, 64, 0
4, 5060, Note_on_c, 1, 60, 0
4, 5088, Note_on_c, 1, 57, 48
4, 5133, Note_on_c, 1, 57, 0
4, 5136, Note_on_c, 1, 64, 48
4, 5136, Note_on_c, 1, 60, 48
4, 5156, Note_on_c, 1, 64, 0
4, 5156, Note_on_c, 1, 60, 0
4, 5184, Note_on_c, 1, 57, 48
4, 5229, Note_on_c, 1, 57, 0
4, 5232, Note_on_c, 1, 64, 48
4, 5232, Note_on_c, 1, 60, 48
4, 5252, Note_on_c, 1, 64, 0
4, 5252, Note_on_c, 1, 60, 0
4, 5280, Note_on_c, 1, 53, 48
4, 5325, Note_on_c, 1, 53, 0
4, 5328, Note_on_c, 1, 63, 48
4, 5328, Note_on_c, 1, 57, 48
4, 5348, Note_on_c, 1, 63, 0
4, 5348, Note_on_c, 1, 57, 0
4, 5376, Note_on_c, 1, 63, 48
4, 5376, Note_on_c, 1, 57, 48
4, 5396, Note_on_c, 1, 63, 0
4, 5396, Note_on_c, 1, 57, 0
4, 5424, Note_on_c, 1, 63, 48
4, 5424, Note_on_c, 1, 57, 48
4, 5444, Note_on_c, 1, 63, 0
4, 5444, Note_on_c, 1, 57, 0
4, 5472, Note_on_c, 1, 52, 48
4, 5517, Note_on_c, 1, 52, 0
4, 5520, Note_on_c, 1, 64, 48
4, 5520, Note_on_c, 1, 57, 48
4, 5565, Note_on_c, 1, 64, 0
4, 5565, Note_on_c, 1, 57, 0
4, 5568, Note_on_c, 1, 50, 48
4, 5613, Note_on_c, 1, 50, 0
4, 5616, Note_on_c, 1, 59, 48
4, 5616, Note_on_c, 1, 53, 48
4, 5661, Note_on_c, 1, 59, 0
4, 5661, Note_on_c, 1, 53, 0
4, 5664, Note_on_c, 1, 48, 48
4, 5709, Note_on_c, 1, 48, 0
4, 5712, Note_on_c, 1, 57, 48
4, 5712, Note_on_c, 1, 52, 48
4, 5757, Note_on_c, 1, 57, 0
4, 5757, Note_on_c, 1, 52, 0
4, 5760, Note_on_c, 1, 50, 48
4, 5805, Note_on_c, 1, 50, 0
4, 5808, Note_on_c, 1, 59, 48
4, 5808, Note_on_c, 1, 53, 48
4, 5853, Note_on_c, 1, 59, 0
4, 5853, Note_on_c, 1, 53, 0
4, 5856, Note_on_c, 1, 57, 48
4, 5856, Note_on_c, 1, 52, 48
4, 5901, Note_on_c, 1, 57, 0
4, 5901, Note_on_c, 1, 52, 0
4, 5904, Note_on_c, 1, 57, 48
4, 5904, Note_on_c, 1, 52, 48
4, 5949, Note_on_c, 1, 57, 0
4, 5949, Note_on_c, 1, 52, 0
4, 5952, Note_on_c, 1, 56, 48
4, 5952, Note_on_c, 1, 52, 48
4, 5997, Note_on_c, 1, 56, 0
4, 5997, Note_on_c, 1, 52, 0
4, 6000, Note_on_c, 1, 56, 48
4, 6000, Note_on_c, 1, 52, 48
4, 6045, Note_on_c, 1, 56, 0
4, 6045, Note_on_c, 1, 52, 0
4, 6048, Note_on_c, 1, 57, 48
4, 6048, Note_on_c, 1, 45, 48
4, 6137, Note_on_c, 1, 57, 0
4, 6137, Note_on_c, 1, 45, 0
4, 6240, Note_on_c, 1, 48, 71
4, 6285, Note_on_c, 1, 48, 0
4, 6288, Note_on_c, 1, 60, 71
4, 6333, Note_on_c, 1, 60, 0
4, 6336, Note_on_c, 1, 52, 71
4, 6381, Note_on_c, 1, 52, 0
4, 6384, Note_on_c, 1, 64, 71
4, 6429, Note_on_c, 1, 64, 0
4, 6432, Note_on_c, 1, 55, 71
4, 6521, Note_on_c, 1, 55, 0
4, 6624, Note_on_c, 1, 48, 71
4, 6669, Note_on_c, 1, 48, 0
4, 6672, Note_on_c, 1, 60, 71
4, 6717, Note_on_c, 1, 60, 0
4, 6720, Note_on_c, 1, 52, 71
4, 6765, Note_on_c, 1, 52, 0
4, 6768, Note_on_c, 1, 64, 71
4, 6813, Note_on_c, 1, 64, 0
4, 6816, Note_on_c, 1, 55, 71
4, 6905, Note_on_c, 1, 55, 0
4, 7008, Note_on_c, 1, 45, 71
4, 7053, Note_on_c, 1, 45, 0
4, 7056, Note_on_c, 1, 57, 71
4, 7101, Note_on_c, 1, 57, 0
4, 7104, Note_on_c, 1, 48, 71
4, 7149, Note_on_c, 1, 48, 0
4, 7152, Note_on_c, 1, 60, 71
4, 7197, Note_on_c, 1, 60, 0
4, 7200, Note_on_c, 1, 52, 71
4, 7289, Note_on_c, 1, 52, 0
4, 7392, Note_on_c, 1, 45, 71
4, 7437, Note_on_c, 1, 45, 0
4, 7440, Note_on_c, 1, 57, 71
4, 7485, Note_on_c, 1, 57, 0
4, 7488, Note_on_c, 1, 48, 71
4, 7533, Note_on_c, 1, 48, 0
4, 7536, Note_on_c, 1, 60, 71
4, 7581, Note_on_c, 1, 60, 0
4, 7584, Note_on_c, 1, 52, 71
4, 7673, Note_on_c, 1, 52, 0
4, 7776, Note_on_c, 1, 57, 48
4, 7821, Note_on_c, 1, 57, 0
4, 7824, Note_on_c, 1, 64, 48
4, 7824, Note_on_c, 1, 60, 48
4, 7844, Note_on_c, 1, 64, 0
4, 7844, Note_on_c, 1, 60, 0
4, 7872, Note_on_c, 1, 64, 48
4, 7872, Note_on_c, 1, 60, 48
4, 7892, Note_on_c, 1, 64, 0
4, 7892, Note_on_c, 1, 60, 0
4, 7920, Note_on_c, 1, 64, 48
4, 7920, Note_on_c, 1, 60, 48
4, 7940, Note_on_c, 1, 64, 0
4, 7940, Note_on_c, 1, 60, 0
4, 7968, Note_on_c, 1, 57, 48
4, 8013, Note_on_c, 1, 57, 0
4, 8016, Note_on_c, 1, 64, 48
4, 8016, Note_on_c, 1, 60, 48
4, 8036, Note_on_c, 1, 64, 0
4, 8036, Note_on_c, 1, 60, 0
4, 8064, Note_on_c, 1, 64, 48
4, 8064, Note_on_c, 1, 60, 48
4, 8084, Note_on_c, 1, 64, 0
4, 8084, Note_on_c, 1, 60, 0
4, 8112, Note_on_c, 1, 64, 48
4, 8112, Note_on_c, 1, 60, 48
4, 8132, Note_on_c, 1, 64, 0
4, 8132, Note_on_c, 1, 60, 0
4, 8160, Note_on_c, 1, 57, 48
4, 8205, Note_on_c, 1, 57, 0
4, 8208, Note_on_c, 1, 64, 48
4, 8208, Note_on_c, 1, 60, 48
4, 8228, Note_on_c, 1, 64, 0
4, 8228, Note_on_c, 1, 60, 0
4, 8256, Note_on_c, 1, 57, 48
4, 8301, Note_on_c, 1, 57, 0
4, 8304, Note_on_c, 1, 64, 48
4, 8304, Note_on_c, 1, 60, 48
4, 8324, Note_on_c, 1, 64, 0
4, 8324, Note_on_c, 1, 60, 0
4, 8352, Note_on_c, 1, 53, 48
4, 8397, Note_on_c, 1, 53, 0
4, 8400, Note_on_c, 1, 63, 48
4, 8400, Note_on_c, 1, 57, 48
4, 8420, Note_on_c, 1, 63, 0
4, 8420, Note_on_c, 1, 57, 0
4, 8448, Note_on_c, 1, 63, 48
4, 8448, Note_on_c, 1, 57, 48
4, 8468, Note_on_c, 1, 63, 0
4, 8468, Note_on_c, 1, 57, 0
4, 8496, Note_on_c, 1, 63, 48
4, 8496, Note_on_c, 1, 57, 48
4, 8516, Note_on_c, 1, 63, 0
4, 8516, Note_on_c, 1, 57, 0
4, 8544, Note_on_c, 1, 52, 48
4, 8589, Note_on_c, 1, 52, 0
4, 8592, Note_on_c, 1, 64, 48
4, 8592, Note_on_c, 1, 57, 48
4, 8637, Note_on_c, 1, 64, 0
4, 8637, Note_on_c, 1, 57, 0
4, 8640, Note_on_c, 1, 50, 48
4, 8685, Note_on_c, 1, 50, 0
4, 8688, Note_on_c, 1, 59, 48
4, 8688, Note_on_c, 1, 53, 48
4, 8733, Note_on_c, 1, 59, 0
4, 8733, Note_on_c, 1, 53, 0
4, 8736, Note_on_c, 1, 48, 48
4, 8781, Note_on_c, 1, 48, 0
4, 8784, Note_on_c, 1, 57, 48
4, 8784, Note_on_c, 1, 52, 48
4, 8829, Note_on_c, 1, 57, 0
4, 8829, Note_on_c, 1, 52, 0
4, 8832, Note_on_c, 1, 50, 48
4, 8877, Note_on_c, 1, 50, 0
4, 8880, Note_on_c, 1, 59, 48
4, 8880, Note_on_c, 1, 53, 48
4, 8925, Note_on_c, 1, 59, 0
4, 8925, Note_on_c, 1, 53, 0
4, 8928, Note_on_c, 1, 57, 48
4, 8928, Note_on_c, 1, 52, 48
4, 8973, Note_on_c, 1, 57, 0
4, 8973, Note_on_c, 1, 52, 0
4, 8976, Note_on_c, 1, 57, 48
4, 8976, Note_on_c, 1, 52, 48
4, 9021, Note_on_c, 1, 57, 0
4, 9021, Note_on_c, 1, 52, 0
4, 9024, Note_on_c, 1, 56, 48
4, 9024, Note_on_c, 1, 52, 48
4, 9069, Note_on_c, 1, 56, 0
4, 9069, Note_on_c, 1, 52, 0
4, 9072, Note_on_c, 1, 56, 48
4, 9072, Note_on_c, 1, 52, 48
4, 9117, Note_on_c, 1, 56, 0
4, 9117, Note_on_c, 1, 52, 0
4, 9120, Note_on_c, 1, 57, 48
4, 9120, Note_on_c, 1, 45, 48
4, 9209, Note_on_c, 1, 57, 0
4, 9209, Note_on_c, 1, 45, 0
4, 9312, Note_on_c, 1, 45, 85
4, 9318, Note_on_c, 1, 45, 0
4, 9318, Note_on_c, 1, 49, 85
4, 9324, Note_on_c, 1, 49, 0
4, 9324, Note_on_c, 1, 52, 85
4, 9330, Note_on_c, 1, 52, 0
4, 9330, Note_on_c, 1, 57, 85
4, 9357, Note_on_c, 1, 57, 0
4, 9360, Note_on_c, 1, 57, 85
4, 9380, Note_on_c, 1, 57, 0
4, 9408, Note_on_c, 1, 57, 85
4, 9428, Note_on_c, 1, 57, 0
4, 9456, Note_on_c, 1, 57, 85
4, 9476, Note_on_c, 1, 57, 0
4, 9504, Note_on_c, 1, 45, 85
4, 9510, Note_on_c, 1, 45, 0
4, 9510, Note_on_c, 1, 49, 85
4, 9516, Note_on_c, 1, 49, 0
4, 9516, Note_on_c, 1, 52, 85
4, 9522, Note_on_c, 1, 52, 0
4, 9522, Note_on_c, 1, 57, 85
4, 9549, Note_on_c, 1, 57, 0
4, 9552, Note_on_c, 1, 57, 85
4, 9572, Note_on_c, 1, 57, 0
4, 9600, Note_on_c, 1, 57, 85
4, 9620, Note_on_c, 1, 57, 0
4, 9648, Note_on_c, 1, 57, 85
4, 9668, Note_on_c, 1, 57, 0
4, 9696, Note_on_c, 1, 38, 85
4, 9702, Note_on_c, 1, 38, 0
4, 9702, Note_on_c, 1, 42, 85
4, 9708, Note_on_c, 1, 42, 0
4, 9708, Note_on_c, 1, 45, 85
4, 9714, Note_on_c, 1, 45, 0
4, 9714, Note_on_c, 1, 50, 85
4, 9741, Note_on_c, 1, 50, 0
4, 9744, Note_on_c, 1, 50, 85
4, 9764, Note_on_c, 1, 50, 0
4, 9792, Note_on_c, 1, 39, 85
4, 9798, Note_on_c, 1, 39, 0
4, 9798, Note_on_c, 1, 42, 85
4, 9804, Note_on_c, 1, 42, 0
4, 9804, Note_on_c, 1, 45, 85
4, 9810, Note_on_c, 1, 45, 0
4, 9810, Note_on_c, 1, 51, 85
4, 9837, Note_on_c, 1, 51, 0
4, 9840, Note_on_c, 1, 51, 85
4, 9860, Note_on_c, 1, 51, 0
4, 9888, Note_on_c, 1, 40, 85
4, 9894, Note_on_c, 1, 40, 0
4, 9894, Note_on_c, 1, 44, 85
4, 9900, Note_on_c, 1, 44, 0
4, 9900, Note_on_c, 1, 47, 85
4, 9906, Note_on_c, 1, 47, 0
4, 9906, Note_on_c, 1, 52, 85
4, 9933, Note_on_c, 1, 52, 0
4, 9936, Note_on_c, 1, 52, 85
4, 9956, Note_on_c, 1, 52, 0
4, 9984, Note_on_c, 1, 52, 85
4, 10004, Note_on_c, 1, 52, 0
4, 10032, Note_on_c, 1, 52, 85
4, 10052, Note_on_c, 1, 52, 0
4, 10080, Note_on_c, 1, 45, 85
4, 10086, Note_on_c, 1, 45, 0
4, 10086, Note_on_c, 1, 49, 85
4, 10092, Note_on_c, 1, 49, 0
4, 10092, Note_on_c, 1, 52, 85
4, 10098, Note_on_c, 1, 52, 0
4, 10098, Note_on_c, 1, 57, 85
4, 10125, Note_on_c, 1, 57, 0
4, 10128, Note_on_c, 1, 57, 85
4, 10148, Note_on_c, 1, 57, 0
4, 10176, Note_on_c, 1, 57, 85
4, 10196, Note_on_c, 1, 57, 0
4, 10224, Note_on_c, 1, 57, 85
4, 10244, Note_on_c, 1, 57, 0
4, 10272, Note_on_c, 1, 45, 85
4, 10278, Note_on_c, 1, 45, 0
4, 10278, Note_on_c, 1, 49, 85
4, 10284, Note_on_c, 1, 49, 0
4, 10284, Note_on_c, 1, 52, 85
4, 10290, Note_on_c, 1, 52, 0
4, 10290, Note_on_c, 1, 57, 85
4, 10317, Note_on_c, 1, 57, 0
4, 10320, Note_on_c, 1, 57, 85
4, 10340, Note_on_c, 1, 57, 0
4, 10368, Note_on_c, 1, 57, 85
4, 10388, Note_on_c, 1, 57, 0
4, 10416, Note_on_c, 1, 57, 85
4, 10436, Note_on_c, 1, 57, 0
4, 10464, Note_on_c, 1, 38, 85
4, 10470, Note_on_c, 1, 38, 0
4, 10470, Note_on_c, 1, 42, 85
4, 10476, Note_on_c, 1, 42, 0
4, 10476, Note_on_c, 1, 45, 85
4, 10482, Note_on_c, 1, 45, 0
4, 10482, Note_on_c, 1, 50, 85
4, 10509, Note_on_c, 1, 50, 0
4, 10512, Note_on_c, 1, 50, 85
4, 10532, Note_on_c, 1, 50, 0
4, 10560, Note_on_c, 1, 40, 85
4, 10566, Note_on_c, 1, 40, 0
4, 10566, Note_on_c, 1, 44, 85
4, 10572, Note_on_c, 1, 44, 0
4, 10572, Note_on_c, 1, 47, 85
4, 10578, Note_on_c, 1, 47, 0
4, 10578, Note_on_c, 1, 52, 85
4, 10605, Note_on_c, 1, 52, 0
4, 10608, Note_on_c, 1, 52, 85
4, 10628, Note_on_c, 1, 52, 0
4, 10656, Note_on_c, 1, 33, 85
4, 10662, Note_on_c, 1, 33, 0
4, 10662, Note_on_c, 1, 37, 85
4, 10668, Note_on_c, 1, 37, 0
4, 10668, Note_on_c, 1, 40, 85
4, 10674, Note_on_c, 1, 40, 0
4, 10674, Note_on_c, 1, 45, 85
4, 10750, Note_on_c, 1, 45, 0
4, 10848, Note_on_c, 1, 45, 85
4, 10854, Note_on_c, 1, 45, 0
4, 10854, Note_on_c, 1, 49, 85
4, 10860, Note_on_c, 1, 49, 0
4, 10860, Note_on_c, 1, 52, 85
4, 10866, Note_on_c, 1, 52, 0
4, 10866, Note_on_c, 1, 57, 85
4, 10893, Note_on_c, 1, 57, 0
4, 10896, Note_on_c, 1, 57, 85
4, 10916, Note_on_c, 1, 57, 0
4, 10944, Note_on_c, 1, 57, 85
4, 10964, Note_on_c, 1, 57, 0
4, 10992, Note_on_c, 1, 57, 85
4, 11012, Note_on_c, 1, 57, 0
4, 11040, Note_on_c, 1, 45, 85
4, 11046, Note_on_c, 1, 45, 0
4, 11046, Note_on_c, 1, 49, 85
4, 11052, Note_on_c, 1, 49, 0
4, 11052, Note_on_c, 1, 52, 85
4, 11058, Note_on_c, 1, 52, 0
4, 11058, Note_on_c, 1, 57, 85
4, 11085, Note_on_c, 1, 57, 0
4, 11088, Note_on_c, 1, 57, 85
4, 11108, Note_on_c, 1, 57, 0
4, 11136, Note_on_c, 1, 57, 85
4, 11156, Note_on_c, 1, 57, 0
4, 11184, Note_on_c, 1, 57, 85
4, 11204, Note_on_c, 1, 57, 0
4, 11232, Note_on_c, 1, 38, 85
4, 11238, Note_on_c, 1, 38, 0
4, 11238, Note_on_c, 1, 42, 85
4, 11244, Note_on_c, 1, 42, 0
4, 11244, Note_on_c, 1, 45, 85
4, 11250, Note_on_c, 1, 45, 0
4, 11250, Note_on_c, 1, 50, 85
4, 11277, Note_on_c, 1, 50, 0
4, 11280, Note_on_c, 1, 50, 85
4, 11300, Note_on_c, 1, 50, 0
4, 11328, Note_on_c, 1, 39, 85
4, 11334, Note_on_c, 1, 39, 0
4, 11334, Note_on_c, 1, 42, 85
4, 11340, Note_on_c, 1, 42, 0
4, 11340, Note_on_c, 1, 45, 85
4, 11346, Note_on_c, 1, 45, 0
4, 11346, Note_on_c, 1, 51, 85
4, 11373, Note_on_c, 1, 51, 0
4, 11376, Note_on_c, 1, 51, 85
4, 11396, Note_on_c, 1, 51, 0
4, 11424, Note_on_c, 1, 40, 85
4, 11430, Note_on_c, 1, 40, 0
4, 11430, Note_on_c, 1, 44, 85
4, 11436, Note_on_c, 1, 44, 0
4, 11436, Note_on_c, 1, 47, 85
4, 11442, Note_on_c, 1, 47, 0
4, 11442, Note_on_c, 1, 52, 85
4, 11469, Note_on_c, 1, 52, 0
4, 11472, Note_on_c, 1, 52, 85
4, 11492, Note_on_c, 1, 52, 0
4, 11520, Note_on_c, 1, 52, 85
4, 11540, Note_on_c, 1, 52, 0
4, 11568, Note_on_c, 1, 52, 85
4, 11588, Note_on_c, 1, 52, 0
4, 11616, Note_on_c, 1, 45, 85
4, 11622, Note_on_c, 1, 45, 0
4, 11622, Note_on_c, 1, 49, 85
4, 11628, Note_on_c, 1, 49, 0
4, 11628, Note_on_c, 1, 52, 85
4, 11634, Note_on_c, 1, 52, 0
4, 11634, Note_on_c, 1, 57, 85
4, 11661, Note_on_c, 1, 57, 0
4, 11664, Note_on_c, 1, 57, 85
4, 11684, Note_on_c, 1, 57, 0
4, 11712, Note_on_c, 1, 57, 85
4, 11732, Note_on_c, 1, 57, 0
4, 11760, Note_on_c, 1, 57, 85
4, 11780, Note_on_c, 1, 57, 0
4, 11808, Note_on_c, 1, 45, 85
4, 11814, Note_on_c, 1, 45, 0
4, 11814, Note_on_c, 1, 49, 85
4, 11820, Note_on_c, 1, 49, 0
4, 11820, Note_on_c, 1, 52, 85
4, 11826, Note_on_c, 1, 52, 0
4, 11826, Note_on_c, 1, 57, 85
4, 11853, Note_on_c, 1, 57, 0
4, 11856, Note_on_c, 1, 57, 85
4, 11876, Note_on_c, 1, 57, 0
4, 11904, Note_on_c, 1, 57, 85
4, 11924, Note_on_c, 1, 57, 0
4, 11952, Note_on_c, 1, 57, 85
4, 11972, Note_on_c, 1, 57, 0
4, 12000, Note_on_c, 1, 38, 85
4, 12006, Note_on_c, 1, 38, 0
4, 12006, Note_on_c, 1, 42, 85
4, 12012, Note_on_c, 1, 42, 0
4, 12012, Note_on_c, 1, 45, 85
4, 12018, Note_on_c, 1, 45, 0
4, 12018, Note_on_c, 1, 50, 85
4, 12045, Note_on_c, 1, 50, 0
4, 12048, Note_on_c, 1, 50, 85
4, 12068, Note_on_c, 1, 50, 0
4, 12096, Note_on_c, 1, 40, 85
4, 12102, Note_on_c, 1, 40, 0
4, 12102, Note_on_c, 1, 44, 85
4, 12108, Note_on_c, 1, 44, 0
4, 12108, Note_on_c, 1, 47, 85
4, 12114, Note_on_c, 1, 47, 0
4, 12114, Note_on_c, 1, 52, 85
4, 12141, Note_on_c, 1, 52, 0
4, 12144, Note_on_c, 1, 52, 85
4, 12164, Note_on_c, 1, 52, 0
4, 12192, Note_on_c, 1, 33, 85
4, 12198, Note_on_c, 1, 33, 0
4, 12198, Note_on_c, 1, 37, 85
4, 12204, Note_on_c, 1, 37, 0
4, 12204, Note_on_c, 1, 40, 85
4, 12210, Note_on_c, 1, 40, 0
4, 12210, Note_on_c, 1, 45, 85
4, 12286, Note_on_c, 1, 45, 0
4, 12384, Note_on_c, 1, 54, 48
4, 12404, Note_on_c, 1, 54, 0
4, 12432, Note_on_c, 1, 61, 48
4, 12432, Note_on_c, 1, 57, 48
4, 12452, Note_on_c, 1, 61, 0
4, 12452, Note_on_c, 1, 57, 0
4, 12480, Note_on_c, 1, 61, 48
4, 12480, Note_on_c, 1, 57, 48
4, 12500, Note_on_c, 1, 61, 0
4, 12500, Note_on_c, 1, 57, 0
4, 12528, Note_on_c, 1, 61, 48
4, 12528, Note_on_c, 1, 57, 48
4, 12548, Note_on_c, 1, 61, 0
4, 12548, Note_on_c, 1, 57, 0
4, 12576, Note_on_c, 1, 56, 48
4, 12596, Note_on_c, 1, 56, 0
4, 12624, Note_on_c, 1, 61, 48
4, 12624, Note_on_c, 1, 59, 48
4, 12644, Note_on_c, 1, 61, 0
4, 12644, Note_on_c, 1, 59, 0
4, 12672, Note_on_c, 1, 61, 48
4, 12672, Note_on_c, 1, 59, 48
4, 12692, Note_on_c, 1, 61, 0
4, 12692, Note_on_c, 1, 59, 0
4, 12720, Note_on_c, 1, 61, 48
4, 12720, Note_on_c, 1, 59, 48
4, 12740, Note_on_c, 1, 61, 0
4, 12740, Note_on_c, 1, 59, 0
4, 12768, Note_on_c, 1, 54, 48
4, 12788, Note_on_c, 1, 54, 0
4, 12816, Note_on_c, 1, 61, 48
4, 12816, Note_on_c, 1, 57, 48
4, 12836, Note_on_c, 1, 61, 0
4, 12836, Note_on_c, 1, 57, 0
4, 12864, Note_on_c, 1, 61, 48
4, 12864, Note_on_c, 1, 57, 48
4, 12884, Note_on_c, 1, 61, 0
4, 12884, Note_on_c, 1, 57, 0
4, 12912, Note_on_c, 1, 61, 48
4, 12912, Note_on_c, 1, 57, 48
4, 12932, Note_on_c, 1, 61, 0
4, 12932, Note_on_c, 1, 57, 0
4, 12960, Note_on_c, 1, 53, 48
4, 12980, Note_on_c, 1, 53, 0
4, 13008, Note_on_c, 1, 61, 48
4, 13008, Note_on_c, 1, 56, 48
4, 13028, Note_on_c, 1, 61, 0
4, 13028, Note_on_c, 1, 56, 0
4, 13056, Note_on_c, 1, 61, 48
4, 13056, Note_on_c, 1, 56, 48
4, 13076, Note_on_c, 1, 61, 0
4, 13076, Note_on_c, 1, 56, 0
4, 13104, Note_on_c, 1, 61, 48
4, 13104, Note_on_c, 1, 56, 48
4, 13124, Note_on_c, 1, 61, 0
4, 13124, Note_on_c, 1, 56, 0
4, 13152, Note_on_c, 1, 54, 48
4, 13172, Note_on_c, 1, 54, 0
4, 13200, Note_on_c, 1, 61, 48
4, 13200, Note_on_c, 1, 57, 48
4, 13220, Note_on_c, 1, 61, 0
4, 13220, Note_on_c, 1, 57, 0
4, 13248, Note_on_c, 1, 61, 48
4, 13248, Note_on_c, 1, 57, 48
4, 13268, Note_on_c, 1, 61, 0
4, 13268, Note_on_c, 1, 57, 0
4, 13296, Note_on_c, 1, 61, 48
4, 13296, Note_on_c, 1, 57, 48
4, 13316, Note_on_c, 1, 61, 0
4, 13316, Note_on_c, 1, 57, 0
4, 13344, Note_on_c, 1, 56, 48
4, 13364, Note_on_c, 1, 56, 0
4, 13392, Note_on_c, 1, 64, 48
4, 13392, Note_on_c, 1, 61, 48
4, 13412, Note_on_c, 1, 64, 0
4, 13412, Note_on_c, 1, 61, 0
4, 13440, Note_on_c, 1, 64, 48
4, 13440, Note_on_c, 1, 61, 48
4, 13460, Note_on_c, 1, 64, 0
4, 13460, Note_on_c, 1, 61, 0
4, 13488, Note_on_c, 1, 64, 48
4, 13488, Note_on_c, 1, 61, 48
4, 13508, Note_on_c, 1, 64, 0
4, 13508, Note_on_c, 1, 61, 0
4, 13536, Note_on_c, 1, 56, 48
4, 13556, Note_on_c, 1, 56, 0
4, 13584, Note_on_c, 1, 66, 48
4, 13584, Note_on_c, 1, 63, 48
4, 13604, Note_on_c, 1, 66, 0
4, 13604, Note_on_c, 1, 63, 0
4, 13632, Note_on_c, 1, 66, 48
4, 13632, Note_on_c, 1, 63, 48
4, 13652, Note_on_c, 1, 66, 0
4, 13652, Note_on_c, 1, 63, 0
4, 13680, Note_on_c, 1, 66, 48
4, 13680, Note_on_c, 1, 63, 48
4, 13700, Note_on_c, 1, 66, 0
4, 13700, Note_on_c, 1, 63, 0
4, 13728, Note_on_c, 1, 66, 48
4, 13734, Note_on_c, 1, 66, 0
4, 13734, Note_on_c, 1, 64, 48
4, 13734, Note_on_c, 1, 61, 48
4, 13817, Note_on_c, 1, 64, 0
4, 13817, Note_on_c, 1, 61, 0
4, 13920, Note_on_c, 1, 54, 48
4, 13940, Note_on_c, 1, 54, 0
4, 13968, Note_on_c, 1, 61, 48
4, 13968, Note_on_c, 1, 57, 48
4, 13988, Note_on_c, 1, 61, 0
4, 13988, Note_on_c, 1, 57, 0
4, 14016, Note_on_c, 1, 61, 48
4, 14016, Note_on_c, 1, 57, 48
4, 14036, Note_on_c, 1, 61, 0
4, 14036, Note_on_c, 1, 57, 0
4, 14064, Note_on_c, 1, 61, 48
4, 14064, Note_on_c, 1, 57, 48
4, 14084, Note_on_c, 1, 61, 0
4, 14084, Note_on_c, 1, 57, 0
4, 14112, Note_on_c, 1, 56, 48
4, 14132, Note_on_c, 1, 56, 0
4, 14160, Note_on_c, 1, 61, 48
4, 14160, Note_on_c, 1, 59, 48
4, 14180, Note_on_c, 1, 61, 0
4, 14180, Note_on_c, 1, 59, 0
4, 14208, Note_on_c, 1, 61, 48
4, 14208, Note_on_c, 1, 59, 48
4, 14228, Note_on_c, 1, 61, 0
4, 14228, Note_on_c, 1, 59, 0
4, 14256, Note_on_c, 1, 61, 48
4, 14256, Note_on_c, 1, 59, 48
4, 14276, Note_on_c, 1, 61, 0
4, 14276, Note_on_c, 1, 59, 0
4, 14304, Note_on_c, 1, 54, 48
4, 14324, Note_on_c, 1, 54, 0
4, 14352, Note_on_c, 1, 61, 48
4, 14352, Note_on_c, 1, 57, 48
4, 14372, Note_on_c, 1, 61, 0
4, 14372, Note_on_c, 1, 57, 0
4, 14400, Note_on_c, 1, 61, 48
4, 14400, Note_on_c, 1, 57, 48
4, 14420, Note_on_c, 1, 61, 0
4, 14420, Note_on_c, 1, 57, 0
4, 14448, Note_on_c, 1, 61, 48
4, 14448, Note_on_c, 1, 57, 48
4, 14468, Note_on_c, 1, 61, 0
4, 14468, Note_on_c, 1, 57, 0
4, 14496, Note_on_c, 1, 53, 48
4, 14516, Note_on_c, 1, 53, 0
4, 14544, Note_on_c, 1, 61, 48
4, 14544, Note_on_c, 1, 56, 48
4, 14564, Note_on_c, 1, 61, 0
4, 14564, Note_on_c, 1, 56, 0
4, 14592, Note_on_c, 1, 61, 48
4, 14592, Note_on_c, 1, 56, 48
4, 14612, Note_on_c, 1, 61, 0
4, 14612, Note_on_c, 1, 56, 0
4, 14640, Note_on_c, 1, 61, 48
4, 14640, Note_on_c, 1, 56, 48
4, 14660, Note_on_c, 1, 61, 0
4, 14660, Note_on_c, 1, 56, 0
4, 14688, Note_on_c, 1, 54, 48
4, 14708, Note_on_c, 1, 54, 0
4, 14736, Note_on_c, 1, 61, 48
4, 14736, Note_on_c, 1, 57, 48
4, 14756, Note_on_c, 1, 61, 0
4, 14756, Note_on_c, 1, 57, 0
4, 14784, Note_on_c, 1, 61, 48
4, 14784, Note_on_c, 1, 57, 48
4, 14804, Note_on_c, 1, 61, 0
4, 14804, Note_on_c, 1, 57, 0
4, 14832, Note_on_c, 1, 61, 48
4, 14832, Note_on_c, 1, 57, 48
4, 14852, Note_on_c, 1, 61, 0
4, 14852, Note_on_c, 1, 57, 0
4, 14880, Note_on_c, 1, 56, 48
4, 14900, Note_on_c, 1, 56, 0
4, 14928, Note_on_c, 1, 64, 48
4, 14928, Note_on_c, 1, 61, 48
4, 14948, Note_on_c, 1, 64, 0
4, 14948, Note_on_c, 1, 61, 0
4, 14976, Note_on_c, 1, 64, 48
4, 14976, Note_on_c, 1, 61, 48
4, 14996, Note_on_c, 1, 64, 0
4, 14996, Note_on_c, 1, 61, 0
4, 15024, Note_on_c, 1, 64, 48
4, 15024, Note_on_c, 1, 61, 48
4, 15044, Note_on_c, 1, 64, 0
4, 15044, Note_on_c, 1, 61, 0
4, 15072, Note_on_c, 1, 56, 48
4, 15092, Note_on_c, 1, 56, 0
4, 15120, Note_on_c, 1, 66, 48
4, 15120, Note_on_c, 1, 63, 48
4, 15140, Note_on_c, 1, 66, 0
4, 15140, Note_on_c, 1, 63, 0
4, 15168, Note_on_c, 1, 66, 48
4, 15168, Note_on_c, 1, 63, 48
4, 15188, Note_on_c, 1, 66, 0
4, 15188, Note_on_c, 1, 63, 0
4, 15216, Note_on_c, 1, 66, 48
4, 15216, Note_on_c, 1, 63, 48
4, 15236, Note_on_c, 1, 66, 0
4, 15236, Note_on_c, 1, 63, 0
4, 15264, Note_on_c, 1, 66, 48
4, 15270, Note_on_c, 1, 66, 0
4, 15270, Note_on_c, 1, 64, 48
4, 15270, Note_on_c, 1, 61, 48
4, 15353, Note_on_c, 1, 64, 0
4, 15353, Note_on_c, 1, 61, 0
4, 15456, Note_on_c, 1, 57, 85
4, 15476, Note_on_c, 1, 57, 0
4, 15504, Note_on_c, 1, 64, 85
4, 15504, Note_on_c, 1, 61, 85
4, 15524, Note_on_c, 1, 64, 0
4, 15524, Note_on_c, 1, 61, 0
4, 15552, Note_on_c, 1, 64, 85
4, 15552, Note_on_c, 1, 61, 85
4, 15572, Note_on_c, 1, 64, 0
4, 15572, Note_on_c, 1, 61, 0
4, 15600, Note_on_c, 1, 64, 85
4, 15600, Note_on_c, 1, 61, 85
4, 15620, Note_on_c, 1, 64, 0
4, 15620, Note_on_c, 1, 61, 0
4, 15648, Note_on_c, 1, 59, 85
4, 15668, Note_on_c, 1, 59, 0
4, 15696, Note_on_c, 1, 64, 85
4, 15696, Note_on_c, 1, 62, 85
4, 15716, Note_on_c, 1, 64, 0
4, 15716, Note_on_c, 1, 62, 0
4, 15744, Note_on_c, 1, 56, 85
4, 15764, Note_on_c, 1, 56, 0
4, 15792, Note_on_c, 1, 64, 85
4, 15792, Note_on_c, 1, 62, 85
4, 15812, Note_on_c, 1, 64, 0
4, 15812, Note_on_c, 1, 62, 0
4, 15840, Note_on_c, 1, 57, 85
4, 15860, Note_on_c, 1, 57, 0
4, 15888, Note_on_c, 1, 64, 85
4, 15888, Note_on_c, 1, 61, 85
4, 15908, Note_on_c, 1, 64, 0
4, 15908, Note_on_c, 1, 61, 0
4, 15936, Note_on_c, 1, 64, 85
4, 15936, Note_on_c, 1, 61, 85
4, 15956, Note_on_c, 1, 64, 0
4, 15956, Note_on_c, 1, 61, 0
4, 15984, Note_on_c, 1, 64, 85
4, 15984, Note_on_c, 1, 61, 85
4, 16004, Note_on_c, 1, 64, 0
4, 16004, Note_on_c, 1, 61, 0
4, 16032, Note_on_c, 1, 52, 85
4, 16077, Note_on_c, 1, 52, 0
4, 16080, Note_on_c, 1, 62, 85
4, 16080, Note_on_c, 1, 56, 85
4, 16100, Note_on_c, 1, 62, 0
4, 16100, Note_on_c, 1, 56, 0
4, 16128, Note_on_c, 1, 62, 85
4, 16128, Note_on_c, 1, 56, 85
4, 16148, Note_on_c, 1, 62, 0
4, 16148, Note_on_c, 1, 56, 0
4, 16176, Note_on_c, 1, 62, 85
4, 16176, Note_on_c, 1, 56, 85
4, 16196, Note_on_c, 1, 62, 0
4, 16196, Note_on_c, 1, 56, 0
4, 16224, Note_on_c, 1, 57, 85
4, 16244, Note_on_c, 1, 57, 0
4, 16272, Note_on_c, 1, 64, 85
4, 16272, Note_on_c, 1, 61, 85
4, 16292, Note_on_c, 1, 64, 0
4, 16292, Note_on_c, 1, 61, 0
4, 16320, Note_on_c, 1, 64, 85
4, 16320, Note_on_c, 1, 61, 85
4, 16340, Note_on_c, 1, 64, 0
4, 16340, Note_on_c, 1, 61, 0
4, 16368, Note_on_c, 1, 64, 85
4, 16368, Note_on_c, 1, 61, 85
4, 16388, Note_on_c, 1, 64, 0
4, 16388, Note_on_c, 1, 61, 0
4, 16416, Note_on_c, 1, 59, 85
4, 16436, Note_on_c, 1, 59, 0
4, 16464, Note_on_c, 1, 64, 85
4, 16464, Note_on_c, 1, 62, 85
4, 16484, Note_on_c, 1, 64, 0
4, 16484, Note_on_c, 1, 62, 0
4, 16512, Note_on_c, 1, 56, 85
4, 16532, Note_on_c, 1, 56, 0
4, 16560, Note_on_c, 1, 64, 85
4, 16560, Note_on_c, 1, 62, 85
4, 16580, Note_on_c, 1, 64, 0
4, 16580, Note_on_c, 1, 62, 0
4, 16608, Note_on_c, 1, 57, 85
4, 16628, Note_on_c, 1, 57, 0
4, 16656, Note_on_c, 1, 54, 85
4, 16676, Note_on_c, 1, 54, 0
4, 16704, Note_on_c, 1, 50, 85
4, 16724, Note_on_c, 1, 50, 0
4, 16752, Note_on_c, 1, 52, 85
4, 16772, Note_on_c, 1, 52, 0
4, 16800, Note_on_c, 1, 45, 85
4, 16845, Note_on_c, 1, 45, 0
4, 16848, Note_on_c, 1, 57, 85
4, 16868, Note_on_c, 1, 57, 0
4, 16992, Note_on_c, 1, 54, 48
4, 17012, Note_on_c, 1, 54, 0
4, 17040, Note_on_c, 1, 61, 48
4, 17040, Note_on_c, 1, 57, 48
4, 17060, Note_on_c, 1, 61, 0
4, 17060, Note_on_c, 1, 57, 0
4, 17088, Note_on_c, 1, 61, 48
4, 17088, Note_on_c, 1, 57, 48
4, 17108, Note_on_c, 1, 61, 0
4, 17108, Note_on_c, 1, 57, 0
4, 17136, Note_on_c, 1, 61, 48
4, 17136, Note_on_c, 1, 57, 48
4, 17156, Note_on_c, 1, 61, 0
4, 17156, Note_on_c, 1, 57, 0
4, 17184, Note_on_c, 1, 56, 48
4, 17204, Note_on_c, 1, 56, 0
4, 17232, Note_on_c, 1, 61, 48
4, 17232, Note_on_c, 1, 59, 48
4, 17252, Note_on_c, 1, 61, 0
4, 17252, Note_on_c, 1, 59, 0
4, 17280, Note_on_c, 1, 61, 48
4, 17280, Note_on_c, 1, 59, 48
4, 17300, Note_on_c, 1, 61, 0
4, 17300, Note_on_c, 1, 59, 0
4, 17328, Note_on_c, 1, 61, 48
4, 17328, Note_on_c, 1, 59, 48
4, 17348, Note_on_c, 1, 61, 0
4, 17348, Note_on_c, 1, 59, 0
4, 17376, Note_on_c, 1, 54, 48
4, 17396, Note_on_c, 1, 54, 0
4, 17424, Note_on_c, 1, 61, 48
4, 17424, Note_on_c, 1, 57, 48
4, 17444, Note_on_c, 1, 61, 0
4, 17444, Note_on_c, 1, 57, 0
4, 17472, Note_on_c, 1, 61, 48
4, 17472, Note_on_c, 1, 57, 48
4, 17492, Note_on_c, 1, 61, 0
4, 17492, Note_on_c, 1, 57, 0
4, 17520, Note_on_c, 1, 61, 48
4, 17520, Note_on_c, 1, 57, 48
4, 17540, Note_on_c, 1, 61, 0
4, 17540, Note_on_c, 1, 57, 0
4, 17568, Note_on_c, 1, 49, 48
4, 17588, Note_on_c, 1, 49, 0
4, 17616, Note_on_c, 1, 61, 48
4, 17616, Note_on_c, 1, 56, 48
4, 17636, Note_on_c, 1, 61, 0
4, 17636, Note_on_c, 1, 56, 0
4, 17664, Note_on_c, 1, 61, 48
4, 17664, Note_on_c, 1, 55, 48
4, 17684, Note_on_c, 1, 61, 0
4, 17684, Note_on_c, 1, 55, 0
4, 17712, Note_on_c, 1, 61, 55
4, 17712, Note_on_c, 1, 54, 55
4, 17732, Note_on_c, 1, 61, 0
4, 17732, Note_on_c, 1, 54, 0
4, 17760, Note_on_c, 1, 47, 63
4, 17805, Note_on_c, 1, 47, 0
4, 17808, Note_on_c, 1, 59, 71
4, 17808, Note_on_c, 1, 54, 71
4, 17828, Note_on_c, 1, 59, 0
4, 17828, Note_on_c, 1, 54, 0
4, 17856, Note_on_c, 1, 59, 71
4, 17856, Note_on_c, 1, 54, 71
4, 17876, Note_on_c, 1, 59, 0
4, 17876, Note_on_c, 1, 54, 0
4, 17904, Note_on_c, 1, 59, 71
4, 17904, Note_on_c, 1, 54, 71
4, 17924, Note_on_c, 1, 59, 0
4, 17924, Note_on_c, 1, 54, 0
4, 17952, Note_on_c, 1, 47, 71
4, 17972, Note_on_c, 1, 47, 0
4, 18000, Note_on_c, 1, 59, 63
4, 18000, Note_on_c, 1, 56, 63
4, 18020, Note_on_c, 1, 59, 0
4, 18020, Note_on_c, 1, 56, 0
4, 18048, Note_on_c, 1, 59, 55
4, 18048, Note_on_c, 1, 56, 55
4, 18068, Note_on_c, 1, 59, 0
4, 18068, Note_on_c, 1, 56, 0
4, 18096, Note_on_c, 1, 59, 48
4, 18096, Note_on_c, 1, 56, 48
4, 18116, Note_on_c, 1, 59, 0
4, 18116, Note_on_c, 1, 56, 0
4, 18144, Note_on_c, 1, 49, 48
4, 18164, Note_on_c, 1, 49, 0
4, 18192, Note_on_c, 1, 57, 48
4, 18192, Note_on_c, 1, 54, 48
4, 18212, Note_on_c, 1, 57, 0
4, 18212, Note_on_c, 1, 54, 0
4, 18240, Note_on_c, 1, 49, 48
4, 18260, Note_on_c, 1, 49, 0
4, 18288, Note_on_c, 1, 59, 48
4, 18288, Note_on_c, 1, 56, 48
4, 18308, Note_on_c, 1, 59, 0
4, 18308, Note_on_c, 1, 56, 0
4, 18336, Note_on_c, 1, 57, 48
4, 18336, Note_on_c, 1, 54, 48
4, 18425, Note_on_c, 1, 57, 0
4, 18425, Note_on_c, 1, 54, 0
4, 18528, Note_on_c, 1, 57, 85
4, 18548, Note_on_c, 1, 57, 0
4, 18576, Note_on_c, 1, 64, 85
4, 18576, Note_on_c, 1, 61, 85
4, 18596, Note_on_c, 1, 64, 0
4, 18596, Note_on_c, 1, 61, 0
4, 18624, Note_on_c, 1, 64, 85
4, 18624, Note_on_c, 1, 61, 85
4, 18644, Note_on_c, 1, 64, 0
4, 18644, Note_on_c, 1, 61, 0
4, 18672, Note_on_c, 1, 64, 85
4, 18672, Note_on_c, 1, 61, 85
4, 18692, Note_on_c, 1, 64, 0
4, 18692, Note_on_c, 1, 61, 0
4, 18720, Note_on_c, 1, 59, 85
4, 18740, Note_on_c, 1, 59, 0
4, 18768, Note_on_c, 1, 64, 85
4, 18768, Note_on_c, 1, 62, 85
4, 18788, Note_on_c, 1, 64, 0
4, 18788, Note_on_c, 1, 62, 0
4, 18816, Note_on_c, 1, 56, 85
4, 18836, Note_on_c, 1, 56, 0
4, 18864, Note_on_c, 1, 64, 85
4, 18864, Note_on_c, 1, 62, 85
4, 18884, Note_on_c, 1, 64, 0
4, 18884, Note_on_c, 1, 62, 0
4, 18912, Note_on_c, 1, 57, 85
4, 18932, Note_on_c, 1, 57, 0
4, 18960, Note_on_c, 1, 64, 85
4, 18960, Note_on_c, 1, 61, 85
4, 18980, Note_on_c, 1, 64, 0
4, 18980, Note_on_c, 1, 61, 0
4, 19008, Note_on_c, 1, 64, 85
4, 19008, Note_on_c, 1, 61, 85
4, 19028, Note_on_c, 1, 64, 0
4, 19028, Note_on_c, 1, 61, 0
4, 19056, Note_on_c, 1, 64, 85
4, 19056, Note_on_c, 1, 61, 85
4, 19076, Note_on_c, 1, 64, 0
4, 19076, Note_on_c, 1, 61, 0
4, 19104, Note_on_c, 1, 52, 85
4, 19149, Note_on_c, 1, 52, 0
4, 19152, Note_on_c, 1, 62, 85
4, 19152, Note_on_c, 1, 56, 85
4, 19172, Note_on_c, 1, 62, 0
4, 19172, Note_on_c, 1, 56, 0
4, 19200, Note_on_c, 1, 62, 85
4, 19200, Note_on_c, 1, 56, 85
4, 19220, Note_on_c, 1, 62, 0
4, 19220, Note_on_c, 1, 56, 0
4, 19248, Note_on_c, 1, 62, 85
4, 19248, Note_on_c, 1, 56, 85
4, 19268, Note_on_c, 1, 62, 0
4, 19268, Note_on_c, 1, 56, 0
4, 19296, Note_on_c, 1, 57, 85
4, 19316, Note_on_c, 1, 57, 0
4, 19344, Note_on_c, 1, 64, 85
4, 19344, Note_on_c, 1, 61, 85
4, 19364, Note_on_c, 1, 64, 0
4, 19364, Note_on_c, 1, 61, 0
4, 19392, Note_on_c, 1, 64, 85
4, 19392, Note_on_c, 1, 61, 85
4, 19412, Note_on_c, 1, 64, 0
4, 19412, Note_on_c, 1, 61, 0
4, 19440, Note_on_c, 1, 64, 85
4, 19440, Note_on_c, 1, 61, 85
4, 19460, Note_on_c, 1, 64, 0
4, 19460, Note_on_c, 1, 61, 0
4, 19488, Note_on_c, 1, 59, 85
4, 19508, Note_on_c, 1, 59, 0
4, 19536, Note_on_c, 1, 64, 85
4, 19536, Note_on_c, 1, 62, 85
4, 19556, Note_on_c, 1, 64, 0
4, 19556, Note_on_c, 1, 62, 0
4, 19584, Note_on_c, 1, 56, 85
4, 19604, Note_on_c, 1, 56, 0
4, 19632, Note_on_c, 1, 64, 85
4, 19632, Note_on_c, 1, 62, 85
4, 19652, Note_on_c, 1, 64, 0
4, 19652, Note_on_c, 1, 62, 0
4, 19680, Note_on_c, 1, 57, 85
4, 19700, Note_on_c, 1, 57, 0
4, 19728, Note_on_c, 1, 54, 85
4, 19748, Note_on_c, 1, 54, 0
4, 19776, Note_on_c, 1, 50, 85
4, 19796, Note_on_c, 1, 50, 0
4, 19824, Note_on_c, 1, 52, 85
4, 19844, Note_on_c, 1, 52, 0
4, 19872, Note_on_c, 1, 45, 85
4, 19917, Note_on_c, 1, 45, 0
4, 19920, Note_on_c, 1, 57, 85
4, 19940, Note_on_c, 1, 57, 0
4, 20064, Note_on_c, 1, 54, 48
4, 20084, Note_on_c, 1, 54, 0
4, 20112, Note_on_c, 1, 61, 48
4, 20112, Note_on_c, 1, 57, 48
4, 20132, Note_on_c, 1, 61, 0
4, 20132, Note_on_c, 1, 57, 0
4, 20160, Note_on_c, 1, 61, 48
4, 20160, Note_on_c, 1, 57, 48
4, 20180, Note_on_c, 1, 61, 0
4, 20180, Note_on_c, 1, 57, 0
4, 20208, Note_on_c, 1, 61, 48
4, 20208, Note_on_c, 1, 57, 48
4, 20228, Note_on_c, 1, 61, 0
4, 20228, Note_on_c, 1, 57, 0
4, 20256, Note_on_c, 1, 56, 48
4, 20276, Note_on_c, 1, 56, 0
4, 20304, Note_on_c, 1, 61, 48
4, 20304, Note_on_c, 1, 59, 48
4, 20324, Note_on_c, 1, 61, 0
4, 20324, Note_on_c, 1, 59, 0
4, 20352, Note_on_c, 1, 61, 48
4, 20352, Note_on_c, 1, 59, 48
4, 20372, Note_on_c, 1, 61, 0
4, 20372, Note_on_c, 1, 59, 0
4, 20400, Note_on_c, 1, 61, 48
4, 20400, Note_on_c, 1, 59, 48
4, 20420, Note_on_c, 1, 61, 0
4, 20420, Note_on_c, 1, 59, 0
4, 20448, Note_on_c, 1, 54, 48
4, 20468, Note_on_c, 1, 54, 0
4, 20496, Note_on_c, 1, 61, 48
4, 20496, Note_on_c, 1, 57, 48
4, 20516, Note_on_c, 1, 61, 0
4, 20516, Note_on_c, 1, 57, 0
4, 20544, Note_on_c, 1, 61, 48
4, 20544, Note_on_c, 1, 57, 48
4, 20564, Note_on_c, 1, 61, 0
4, 20564, Note_on_c, 1, 57, 0
4, 20592, Note_on_c, 1, 61, 48
4, 20592, Note_on_c, 1, 57, 48
4, 20612, Note_on_c, 1, 61, 0
4, 20612, Note_on_c, 1, 57, 0
4, 20640, Note_on_c, 1, 49, 48
4, 20660, Note_on_c, 1, 49, 0
4, 20688, Note_on_c, 1, 61, 48
4, 20688, Note_on_c, 1, 56, 48
4, 20708, Note_on_c, 1, 61, 0
4, 20708, Note_on_c, 1, 56, 0
4, 20736, Note_on_c, 1, 61, 48
4, 20736, Note_on_c, 1, 55, 48
4, 20756, Note_on_c, 1, 61, 0
4, 20756, Note_on_c, 1, 55, 0
4, 20784, Note_on_c, 1, 61, 55
4, 20784, Note_on_c, 1, 54, 55
4, 20804, Note_on_c, 1, 61, 0
4, 20804, Note_on_c, 1, 54, 0
4, 20832, Note_on_c, 1, 47, 63
4, 20877, Note_on_c, 1, 47, 0
4, 20880, Note_on_c, 1, 59, 71
4, 20880, Note_on_c, 1, 54, 71
4, 20900, Note_on_c, 1, 59, 0
4, 20900, Note_on_c, 1, 54, 0
4, 20928, Note_on_c, 1, 59, 71
4, 20928, Note_on_c, 1, 54, 71
4, 20948, Note_on_c, 1, 59, 0
4, 20948, Note_on_c, 1, 54, 0
4, 20976, Note_on_c, 1, 59, 71
4, 20976, Note_on_c, 1, 54, 71
4, 20996, Note_on_c, 1, 59, 0
4, 20996, Note_on_c, 1, 54, 0
4, 21024, Note_on_c, 1, 47, 71
4, 21044, Note_on_c, 1, 47, 0
4, 21072, Note_on_c, 1, 59, 63
4, 21072, Note_on_c, 1, 56, 63
4, 21092, Note_on_c, 1, 59, 0
4, 21092, Note_on_c, 1, 56, 0
4, 21120, Note_on_c, 1, 59, 55
4, 21120, Note_on_c, 1, 56, 55
4, 21140, Note_on_c, 1, 59, 0
4, 21140, Note_on_c, 1, 56, 0
4, 21168, Note_on_c, 1, 59, 48
4, 21168, Note_on_c, 1, 56, 48
4, 21188, Note_on_c, 1, 59, 0
4, 21188, Note_on_c, 1, 56, 0
4, 21216, Note_on_c, 1, 49, 48
4, 21236, Note_on_c, 1, 49, 0
4, 21264, Note_on_c, 1, 57, 48
4, 21264, Note_on_c, 1, 54, 48
4, 21284, Note_on_c, 1, 57, 0
4, 21284, Note_on_c, 1, 54, 0
4, 21312, Note_on_c, 1, 49, 48
4, 21332, Note_on_c, 1, 49, 0
4, 21360, Note_on_c, 1, 59, 48
4, 21360, Note_on_c, 1, 56, 48
4, 21380, Note_on_c, 1, 59, 0
4, 21380, Note_on_c, 1, 56, 0
4, 21408, Note_on_c, 1, 57, 48
4, 21408, Note_on_c, 1, 54, 48
4, 21497, Note_on_c, 1, 57, 0
4, 21497, Note_on_c, 1, 54, 0
4, 21600, Note_on_c, 1, 45, 85
4, 21606, Note_on_c, 1, 45, 0
4, 21606, Note_on_c, 1, 49, 85
4, 21612, Note_on_c, 1, 49, 0
4, 21612, Note_on_c, 1, 52, 85
4, 21618, Note_on_c, 1, 52, 0
4, 21618, Note_on_c, 1, 57, 85
4, 21645, Note_on_c, 1, 57, 0
4, 21648, Note_on_c, 1, 57, 85
4, 21668, Note_on_c, 1, 57, 0
4, 21696, Note_on_c, 1, 57, 85
4, 21716, Note_on_c, 1, 57, 0
4, 21744, Note_on_c, 1, 57, 85
4, 21764, Note_on_c, 1, 57, 0
4, 21792, Note_on_c, 1, 45, 85
4, 21798, Note_on_c, 1, 45, 0
4, 21798, Note_on_c, 1, 49, 85
4, 21804, Note_on_c, 1, 49, 0
4, 21804, Note_on_c, 1, 52, 85
4, 21810, Note_on_c, 1, 52, 0
4, 21810, Note_on_c, 1, 57, 85
4, 21837, Note_on_c, 1, 57, 0
4, 21840, Note_on_c, 1, 57, 85
4, 21860, Note_on_c, 1, 57, 0
4, 21888, Note_on_c, 1, 57, 85
4, 21908, Note_on_c, 1, 57, 0
4, 21936, Note_on_c, 1, 57, 85
4, 21956, Note_on_c, 1, 57, 0
4, 21984, Note_on_c, 1, 38, 85
4, 21990, Note_on_c, 1, 38, 0
4, 21990, Note_on_c, 1, 42, 85
4, 21996, Note_on_c, 1, 42, 0
4, 21996, Note_on_c, 1, 45, 85
4, 22002, Note_on_c, 1, 45, 0
4, 22002, Note_on_c, 1, 50, 85
4, 22029, Note_on_c, 1, 50, 0
4, 22032, Note_on_c, 1, 50, 85
4, 22052, Note_on_c, 1, 50, 0
4, 22080, Note_on_c, 1, 39, 85
4, 22086, Note_on_c, 1, 39, 0
4, 22086, Note_on_c, 1, 42, 85
4, 22092, Note_on_c, 1, 42, 0
4, 22092, Note_on_c, 1, 45, 85
4, 22098, Note_on_c, 1, 45, 0
4, 22098, Note_on_c, 1, 51, 85
4, 22125, Note_on_c, 1, 51, 0
4, 22128, Note_on_c, 1, 51, 85
4, 22148, Note_on_c, 1, 51, 0
4, 22176, Note_on_c, 1, 40, 85
4, 22182, Note_on_c, 1, 40, 0
4, 22182, Note_on_c, 1, 44, 85
4, 22188, Note_on_c, 1, 44, 0
4, 22188, Note_on_c, 1, 47, 85
4, 22194, Note_on_c, 1, 47, 0
4, 22194, Note_on_c, 1, 52, 85
4, 22221, Note_on_c, 1, 52, 0
4, 22224, Note_on_c, 1, 52, 85
4, 22244, Note_on_c, 1, 52, 0
4, 22272, Note_on_c, 1, 52, 85
4, 22292, Note_on_c, 1, 52, 0
4, 22320, Note_on_c, 1, 52, 85
4, 22340, Note_on_c, 1, 52, 0
4, 22368, Note_on_c, 1, 45, 85
4, 22374, Note_on_c, 1, 45, 0
4, 22374, Note_on_c, 1, 49, 85
4, 22380, Note_on_c, 1, 49, 0
4, 22380, Note_on_c, 1, 52, 85
4, 22386, Note_on_c, 1, 52, 0
4, 22386, Note_on_c, 1, 57, 85
4, 22413, Note_on_c, 1, 57, 0
4, 22416, Note_on_c, 1, 57, 85
4, 22436, Note_on_c, 1, 57, 0
4, 22464, Note_on_c, 1, 57, 85
4, 22484, Note_on_c, 1, 57, 0
4, 22512, Note_on_c, 1, 57, 85
4, 22532, Note_on_c, 1, 57, 0
4, 22560, Note_on_c, 1, 45, 85
4, 22566, Note_on_c, 1, 45, 0
4, 22566, Note_on_c, 1, 49, 85
4, 22572, Note_on_c, 1, 49, 0
4, 22572, Note_on_c, 1, 52, 85
4, 22578, Note_on_c, 1, 52, 0
4, 22578, Note_on_c, 1, 57, 85
4, 22605, Note_on_c, 1, 57, 0
4, 22608, Note_on_c, 1, 57, 85
4, 22628, Note_on_c, 1, 57, 0
4, 22656, Note_on_c, 1, 57, 85
4, 22676, Note_on_c, 1, 57, 0
4, 22704, Note_on_c, 1, 57, 85
4, 22724, Note_on_c, 1, 57, 0
4, 22752, Note_on_c, 1, 38, 85
4, 22758, Note_on_c, 1, 38, 0
4, 22758, Note_on_c, 1, 42, 85
4, 22764, Note_on_c, 1, 42, 0
4, 22764, Note_on_c, 1, 45, 85
4, 22770, Note_on_c, 1, 45, 0
4, 22770, Note_on_c, 1, 50, 85
4, 22797, Note_on_c, 1, 50, 0
4, 22800, Note_on_c, 1, 50, 85
4, 22820, Note_on_c, 1, 50, 0
4, 22848, Note_on_c, 1, 40, 85
4, 22854, Note_on_c, 1, 40, 0
4, 22854, Note_on_c, 1, 44, 85
4, 22860, Note_on_c, 1, 44, 0
4, 22860, Note_on_c, 1, 47, 85
4, 22866, Note_on_c, 1, 47, 0
4, 22866, Note_on_c, 1, 52, 85
4, 22893, Note_on_c, 1, 52, 0
4, 22896, Note_on_c, 1, 52, 85
4, 22916, Note_on_c, 1, 52, 0
4, 22944, Note_on_c, 1, 45, 85
4, 23038, Note_on_c, 1, 45, 0
4, 23136, Note_on_c, 1, 45, 85
4, 23142, Note_on_c, 1, 45, 0
4, 23142, Note_on_c, 1, 49, 85
4, 23148, Note_on_c, 1, 49, 0
4, 23148, Note_on_c, 1, 52, 85
4, 23154, Note_on_c, 1, 52, 0
4, 23154, Note_on_c, 1, 57, 85
4, 23181, Note_on_c, 1, 57, 0
4, 23184, Note_on_c, 1, 57, 85
4, 23204, Note_on_c, 1, 57, 0
4, 23232, Note_on_c, 1, 57, 85
4, 23252, Note_on_c, 1, 57, 0
4, 23280, Note_on_c, 1, 57, 85
4, 23300, Note_on_c, 1, 57, 0
4, 23328, Note_on_c, 1, 45, 85
4, 23334, Note_on_c, 1, 45, 0
4, 23334, Note_on_c, 1, 49, 85
4, 23340, Note_on_c, 1, 49, 0
4, 23340, Note_on_c, 1, 52, 85
4, 23346, Note_on_c, 1, 52, 0
4, 23346, Note_on_c, 1, 57, 85
4, 23373, Note_on_c, 1, 57, 0
4, 23376, Note_on_c, 1, 57, 85
4, 23396, Note_on_c, 1, 57, 0
4, 23424, Note_on_c, 1, 57, 85
4, 23444, Note_on_c, 1, 57, 0
4, 23472, Note_on_c, 1, 57, 85
4, 23492, Note_on_c, 1, 57, 0
4, 23520, Note_on_c, 1, 38, 85
4, 23526, Note_on_c, 1, 38, 0
4, 23526, Note_on_c, 1, 42, 85
4, 23532, Note_on_c, 1, 42, 0
4, 23532, Note_on_c, 1, 45, 85
4, 23538, Note_on_c, 1, 45, 0
4, 23538, Note_on_c, 1, 50, 85
4, 23565, Note_on_c, 1, 50, 0
4, 23568, Note_on_c, 1, 50, 85
4, 23588, Note_on_c, 1, 50, 0
4, 23616, Note_on_c, 1, 39, 85
4, 23622, Note_on_c, 1, 39, 0
4, 23622, Note_on_c, 1, 42, 85
4, 23628, Note_on_c, 1, 42, 0
4, 23628, Note_on_c, 1, 45, 85
4, 23634, Note_on_c, 1, 45, 0
4, 23634, Note_on_c, 1, 51, 85
4, 23661, Note_on_c, 1, 51, 0
4, 23664, Note_on_c, 1, 51, 85
4, 23684, Note_on_c, 1, 51, 0
4, 23712, Note_on_c, 1, 40, 85
4, 23718, Note_on_c, 1, 40, 0
4, 23718, Note_on_c, 1, 44, 85
4, 23724, Note_on_c, 1, 44, 0
4, 23724, Note_on_c, 1, 47, 85
4, 23730, Note_on_c, 1, 47, 0
4, 23730, Note_on_c, 1, 52, 85
4, 23757, Note_on_c, 1, 52, 0
4, 23760, Note_on_c, 1, 52, 85
4, 23780, Note_on_c, 1, 52, 0
4, 23808, Note_on_c, 1, 52, 85
4, 23828, Note_on_c, 1, 52, 0
4, 23856, Note_on_c, 1, 52, 85
4, 23876, Note_on_c, 1, 52, 0
4, 23904, Note_on_c, 1, 45, 85
4, 23910, Note_on_c, 1, 45, 0
4, 23910, Note_on_c, 1, 49, 85
4, 23916, Note_on_c, 1, 49, 0
4, 23916, Note_on_c, 1, 52, 85
4, 23922, Note_on_c, 1, 52, 0
4, 23922, Note_on_c, 1, 57, 85
4, 23949, Note_on_c, 1, 57, 0
4, 23952, Note_on_c, 1, 57, 85
4, 23972, Note_on_c, 1, 57, 0
4, 24000, Note_on_c, 1, 57, 85
4, 24020, Note_on_c, 1, 57, 0
4, 24048, Note_on_c, 1, 57, 85
4, 24068, Note_on_c, 1, 57, 0
4, 24096, Note_on_c, 1, 45, 85
4, 24102, Note_on_c, 1, 45, 0
4, 24102, Note_on_c, 1, 49, 85
4, 24108, Note_on_c, 1, 49, 0
4, 24108, Note_on_c, 1, 52, 85
4, 24114, Note_on_c, 1, 52, 0
4, 24114, Note_on_c, 1, 57, 85
4, 24141, Note_on_c, 1, 57, 0
4, 24144, Note_on_c, 1, 57, 85
4, 24164, Note_on_c, 1, 57, 0
4, 24192, Note_on_c, 1, 57, 85
4, 24212, Note_on_c, 1, 57, 0
4, 24240, Note_on_c, 1, 57, 85
4, 24260, Note_on_c, 1, 57, 0
4, 24288, Note_on_c, 1, 38, 85
4, 24294, Note_on_c, 1, 38, 0
4, 24294, Note_on_c, 1, 42, 85
4, 24300, Note_on_c, 1, 42, 0
4, 24300, Note_on_c, 1, 45, 85
4, 24306, Note_on_c, 1, 45, 0
4, 24306, Note_on_c, 1, 50, 85
4, 24333, Note_on_c, 1, 50, 0
4, 24336, Note_on_c, 1, 50, 85
4, 24356, Note_on_c, 1, 50, 0
4, 24384, Note_on_c, 1, 40, 85
4, 24390, Note_on_c, 1, 40, 0
4, 24390, Note_on_c, 1, 44, 85
4, 24396, Note_on_c, 1, 44, 0
4, 24396, Note_on_c, 1, 47, 85
4, 24402, Note_on_c, 1, 47, 0
4, 24402, Note_on_c, 1, 52, 85
4, 24429, Note_on_c, 1, 52, 0
4, 24432, Note_on_c, 1, 52, 85
4, 24452, Note_on_c, 1, 52, 0
4, 24480, Note_on_c, 1, 45, 85
4, 24574, Note_on_c, 1, 45, 0
4, 24672, Note_on_c, 1, 57, 48
4, 24717, Note_on_c, 1, 57, 0
4, 24720, Note_on_c, 1, 64, 48
4, 24720, Note_on_c, 1, 60, 48
4, 24740, Note_on_c, 1, 64, 0
4, 24740, Note_on_c, 1, 60, 0
4, 24768, Note_on_c, 1, 64, 48
4, 24768, Note_on_c, 1, 60, 48
4, 24788, Note_on_c, 1, 64, 0
4, 24788, Note_on_c, 1, 60, 0
4, 24816, Note_on_c, 1, 64, 48
4, 24816, Note_on_c, 1, 60, 48
4, 24836, Note_on_c, 1, 64, 0
4, 24836, Note_on_c, 1, 60, 0
4, 24864, Note_on_c, 1, 57, 48
4, 24909, Note_on_c, 1, 57, 0
4, 24912, Note_on_c, 1, 64, 48
4, 24912, Note_on_c, 1, 60, 48
4, 24932, Note_on_c, 1, 64, 0
4, 24932, Note_on_c, 1, 60, 0
4, 24960, Note_on_c, 1, 64, 48
4, 24960, Note_on_c, 1, 60, 48
4, 24980, Note_on_c, 1, 64, 0
4, 24980, Note_on_c, 1, 60, 0
4, 25008, Note_on_c, 1, 64, 48
4, 25008, Note_on_c, 1, 60, 48
4, 25028, Note_on_c, 1, 64, 0
4, 25028, Note_on_c, 1, 60, 0
4, 25056, Note_on_c, 1, 57, 48
4, 25101, Note_on_c, 1, 57, 0
4, 25104, Note_on_c, 1, 64, 48
4, 25104, Note_on_c, 1, 60, 48
4, 25124, Note_on_c, 1, 64, 0
4, 25124, Note_on_c, 1, 60, 0
4, 25152, Note_on_c, 1, 57, 48
4, 25197, Note_on_c, 1, 57, 0
4, 25200, Note_on_c, 1, 64, 48
4, 25200, Note_on_c, 1, 60, 48
4, 25220, Note_on_c, 1, 64, 0
4, 25220, Note_on_c, 1, 60, 0
4, 25248, Note_on_c, 1, 57, 48
4, 25293, Note_on_c, 1, 57, 0
4, 25296, Note_on_c, 1, 64, 48
4, 25296, Note_on_c, 1, 60, 48
4, 25316, Note_on_c, 1, 64, 0
4, 25316, Note_on_c, 1, 60, 0
4, 25344, Note_on_c, 1, 64, 48
4, 25344, Note_on_c, 1, 60, 48
4, 25364, Note_on_c, 1, 64, 0
4, 25364, Note_on_c, 1, 60, 0
4, 25392, Note_on_c, 1, 64, 48
4, 25392, Note_on_c, 1, 60, 48
4, 25412, Note_on_c, 1, 64, 0
4, 25412, Note_on_c, 1, 60, 0
4, 25440, Note_on_c, 1, 52, 48
4, 25485, Note_on_c, 1, 52, 0
4, 25488, Note_on_c, 1, 64, 48
4, 25488, Note_on_c, 1, 59, 48
4, 25508, Note_on_c, 1, 64, 0
4, 25508, Note_on_c, 1, 59, 0
4, 25536, Note_on_c, 1, 64, 48
4, 25536, Note_on_c, 1, 59, 48
4, 25556, Note_on_c, 1, 64, 0
4, 25556, Note_on_c, 1, 59, 0
4, 25584, Note_on_c, 1, 64, 48
4, 25584, Note_on_c, 1, 59, 48
4, 25604, Note_on_c, 1, 64, 0
4, 25604, Note_on_c, 1, 59, 0
4, 25632, Note_on_c, 1, 52, 48
4, 25677, Note_on_c, 1, 52, 0
4, 25680, Note_on_c, 1, 64, 48
4, 25680, Note_on_c, 1, 59, 48
4, 25700, Note_on_c, 1, 64, 0
4, 25700, Note_on_c, 1, 59, 0
4, 25728, Note_on_c, 1, 64, 48
4, 25728, Note_on_c, 1, 59, 48
4, 25748, Note_on_c, 1, 64, 0
4, 25748, Note_on_c, 1, 59, 0
4, 25776, Note_on_c, 1, 64, 48
4, 25776, Note_on_c, 1, 59, 48
4, 25796, Note_on_c, 1, 64, 0
4, 25796, Note_on_c, 1, 59, 0
4, 25824, Note_on_c, 1, 52, 48
4, 25869, Note_on_c, 1, 52, 0
4, 25872, Note_on_c, 1, 64, 48
4, 25872, Note_on_c, 1, 59, 48
4, 25892, Note_on_c, 1, 64, 0
4, 25892, Note_on_c, 1, 59, 0
4, 25920, Note_on_c, 1, 47, 48
4, 25965, Note_on_c, 1, 47, 0
4, 25968, Note_on_c, 1, 59, 48
4, 25988, Note_on_c, 1, 59, 0
4, 26016, Note_on_c, 1, 52, 48
4, 26105, Note_on_c, 1, 52, 0
4, 26208, Note_on_c, 1, 57, 48
4, 26253, Note_on_c, 1, 57, 0
4, 26256, Note_on_c, 1, 64, 48
4, 26256, Note_on_c, 1, 60, 48
4, 26276, Note_on_c, 1, 64, 0
4, 26276, Note_on_c, 1, 60, 0
4, 26304, Note_on_c, 1, 64, 48
4, 26304, Note_on_c, 1, 60, 48
4, 26324, Note_on_c, 1, 64, 0
4, 26324, Note_on_c, 1, 60, 0
4, 26352, Note_on_c, 1, 64, 48
4, 26352, Note_on_c, 1, 60, 48
4, 26372, Note_on_c, 1, 64, 0
4, 26372, Note_on_c, 1, 60, 0
4, 26400, Note_on_c, 1, 57, 48
4, 26445, Note_on_c, 1, 57, 0
4, 26448, Note_on_c, 1, 64, 48
4, 26448, Note_on_c, 1, 60, 48
4, 26468, Note_on_c, 1, 64, 0
4, 26468, Note_on_c, 1, 60, 0
4, 26496, Note_on_c, 1, 64, 48
4, 26496, Note_on_c, 1, 60, 48
4, 26516, Note_on_c, 1, 64, 0
4, 26516, Note_on_c, 1, 60, 0
4, 26544, Note_on_c, 1, 64, 48
4, 26544, Note_on_c, 1, 60, 48
4, 26564, Note_on_c, 1, 64, 0
4, 26564, Note_on_c, 1, 60, 0
4, 26592, Note_on_c, 1, 57, 48
4, 26637, Note_on_c, 1, 57, 0
4, 26640, Note_on_c, 1, 64, 48
4, 26640, Note_on_c, 1, 60, 48
4, 26660, Note_on_c, 1, 64, 0
4, 26660, Note_on_c, 1, 60, 0
4, 26688, Note_on_c, 1, 57, 48
4, 26733, Note_on_c, 1, 57, 0
4, 26736, Note_on_c, 1, 64, 48
4, 26736, Note_on_c, 1, 60, 48
4, 26756, Note_on_c, 1, 64, 0
4, 26756, Note_on_c, 1, 60, 0
4, 26784, Note_on_c, 1, 57, 48
4, 26829, Note_on_c, 1, 57, 0
4, 26832, Note_on_c, 1, 64, 48
4, 26832, Note_on_c, 1, 60, 48
4, 26852, Note_on_c, 1, 64, 0
4, 26852, Note_on_c, 1, 60, 0
4, 26880, Note_on_c, 1, 64, 48
4, 26880, Note_on_c, 1, 60, 48
4, 26900, Note_on_c, 1, 64, 0
4, 26900, Note_on_c, 1, 60, 0
4, 26928, Note_on_c, 1, 64, 48
4, 26928, Note_on_c, 1, 60, 48
4, 26948, Note_on_c, 1, 64, 0
4, 26948, Note_on_c, 1, 60, 0
4, 26976, Note_on_c, 1, 52, 48
4, 27021, Note_on_c, 1, 52, 0
4, 27024, Note_on_c, 1, 64, 48
4, 27024, Note_on_c, 1, 59, 48
4, 27044, Note_on_c, 1, 64, 0
4, 27044, Note_on_c, 1, 59, 0
4, 27072, Note_on_c, 1, 64, 48
4, 27072, Note_on_c, 1, 59, 48
4, 27092, Note_on_c, 1, 64, 0
4, 27092, Note_on_c, 1, 59, 0
4, 27120, Note_on_c, 1, 64, 48
4, 27120, Note_on_c, 1, 59, 48
4, 27140, Note_on_c, 1, 64, 0
4, 27140, Note_on_c, 1, 59, 0
4, 27168, Note_on_c, 1, 52, 48
4, 27213, Note_on_c, 1, 52, 0
4, 27216, Note_on_c, 1, 64, 48
4, 27216, Note_on_c, 1, 59, 48
4, 27236, Note_on_c, 1, 64, 0
4, 27236, Note_on_c, 1, 59, 0
4, 27264, Note_on_c, 1, 64, 48
4, 27264, Note_on_c, 1, 59, 48
4, 27284, Note_on_c, 1, 64, 0
4, 27284, Note_on_c, 1, 59, 0
4, 27312, Note_on_c, 1, 64, 48
4, 27312, Note_on_c, 1, 59, 48
4, 27332, Note_on_c, 1, 64, 0
4, 27332, Note_on_c, 1, 59, 0
4, 27360, Note_on_c, 1, 52, 48
4, 27405, Note_on_c, 1, 52, 0
4, 27408, Note_on_c, 1, 64, 48
4, 27408, Note_on_c, 1, 59, 48
4, 27428, Note_on_c, 1, 64, 0
4, 27428, Note_on_c, 1, 59, 0
4, 27456, Note_on_c, 1, 47, 48
4, 27501, Note_on_c, 1, 47, 0
4, 27504, Note_on_c, 1, 59, 48
4, 27524, Note_on_c, 1, 59, 0
4, 27552, Note_on_c, 1, 52, 48
4, 27641, Note_on_c, 1, 52, 0
4, 27744, Note_on_c, 1, 48, 85
4, 27789, Note_on_c, 1, 48, 0
4, 27792, Note_on_c, 1, 60, 85
4, 27837, Note_on_c, 1, 60, 0
4, 27840, Note_on_c, 1, 52, 85
4, 27885, Note_on_c, 1, 52, 0
4, 27888, Note_on_c, 1, 64, 85
4, 27933, Note_on_c, 1, 64, 0
4, 27936, Note_on_c, 1, 55, 85
4, 28025, Note_on_c, 1, 55, 0
4, 28128, Note_on_c, 1, 48, 85
4, 28173, Note_on_c, 1, 48, 0
4, 28176, Note_on_c, 1, 60, 85
4, 28221, Note_on_c, 1, 60, 0
4, 28224, Note_on_c, 1, 52, 85
4, 28269, Note_on_c, 1, 52, 0
4, 28272, Note_on_c, 1, 64, 85
4, 28317, Note_on_c, 1, 64, 0
4, 28320, Note_on_c, 1, 55, 85
4, 28409, Note_on_c, 1, 55, 0
4, 28512, Note_on_c, 1, 45, 85
4, 28557, Note_on_c, 1, 45, 0
4, 28560, Note_on_c, 1, 57, 85
4, 28605, Note_on_c, 1, 57, 0
4, 28608, Note_on_c, 1, 48, 85
4, 28653, Note_on_c, 1, 48, 0
4, 28656, Note_on_c, 1, 60, 85
4, 28701, Note_on_c, 1, 60, 0
4, 28704, Note_on_c, 1, 52, 85
4, 28793, Note_on_c, 1, 52, 0
4, 28896, Note_on_c, 1, 45, 85
4, 28941, Note_on_c, 1, 45, 0
4, 28944, Note_on_c, 1, 57, 85
4, 28989, Note_on_c, 1, 57, 0
4, 28992, Note_on_c, 1, 48, 85
4, 29037, Note_on_c, 1, 48, 0
4, 29040, Note_on_c, 1, 60, 85
4, 29085, Note_on_c, 1, 60, 0
4, 29088, Note_on_c, 1, 52, 85
4, 29177, Note_on_c, 1, 52, 0
4, 29280, Note_on_c, 1, 57, 48
4, 29325, Note_on_c, 1, 57, 0
4, 29328, Note_on_c, 1, 64, 48
4, 29328, Note_on_c, 1, 60, 48
4, 29348, Note_on_c, 1, 64, 0
4, 29348, Note_on_c, 1, 60, 0
4, 29376, Note_on_c, 1, 64, 48
4, 29376, Note_on_c, 1, 60, 48
4, 29396, Note_on_c, 1, 64, 0
4, 29396, Note_on_c, 1, 60, 0
4, 29424, Note_on_c, 1, 64, 48
4, 29424, Note_on_c, 1, 60, 48
4, 29444, Note_on_c, 1, 64, 0
4, 29444, Note_on_c, 1, 60, 0
4, 29472, Note_on_c, 1, 57, 48
4, 29517, Note_on_c, 1, 57, 0
4, 29520, Note_on_c, 1, 64, 48
4, 29520, Note_on_c, 1, 60, 48
4, 29540, Note_on_c, 1, 64, 0
4, 29540, Note_on_c, 1, 60, 0
4, 29568, Note_on_c, 1, 64, 48
4, 29568, Note_on_c, 1, 60, 48
4, 29588, Note_on_c, 1, 64, 0
4, 29588, Note_on_c, 1, 60, 0
4, 29616, Note_on_c, 1, 64, 48
4, 29616, Note_on_c, 1, 60, 48
4, 29636, Note_on_c, 1, 64, 0
4, 29636, Note_on_c, 1, 60, 0
4, 29664, Note_on_c, 1, 57, 48
4, 29709, Note_on_c, 1, 57, 0
4, 29712, Note_on_c, 1, 64, 48
4, 29712, Note_on_c, 1, 60, 48
4, 29732, Note_on_c, 1, 64, 0
4, 29732, Note_on_c, 1, 60, 0
4, 29760, Note_on_c, 1, 57, 48
4, 29805, Note_on_c, 1, 57, 0
4, 29808, Note_on_c, 1, 64, 48
4, 29808, Note_on_c, 1, 60, 48
4, 29828, Note_on_c, 1, 64, 0
4, 29828, Note_on_c, 1, 60, 0
4, 29856, Note_on_c, 1, 53, 48
4, 29901, Note_on_c, 1, 53, 0
4, 29904, Note_on_c, 1, 63, 48
4, 29904, Note_on_c, 1, 57, 48
4, 29924, Note_on_c, 1, 63, 0
4, 29924, Note_on_c, 1, 57, 0
4, 29952, Note_on_c, 1, 63, 48
4, 29952, Note_on_c, 1, 57, 48
4, 29972, Note_on_c, 1, 63, 0
4, 29972, Note_on_c, 1, 57, 0
4, 30000, Note_on_c, 1, 63, 48
4, 30000, Note_on_c, 1, 57, 48
4, 30020, Note_on_c, 1, 63, 0
4, 30020, Note_on_c, 1, 57, 0
4, 30048, Note_on_c, 1, 52, 48
4, 30093, Note_on_c, 1, 52, 0
4, 30096, Note_on_c, 1, 64, 48
4, 30096, Note_on_c, 1, 57, 48
4, 30141, Note_on_c, 1, 64, 0
4, 30141, Note_on_c, 1, 57, 0
4, 30144, Note_on_c, 1, 50, 48
4, 30189, Note_on_c, 1, 50, 0
4, 30192, Note_on_c, 1, 59, 48
4, 30192, Note_on_c, 1, 53, 48
4, 30237, Note_on_c, 1, 59, 0
4, 30237, Note_on_c, 1, 53, 0
4, 30240, Note_on_c, 1, 48, 48
4, 30285, Note_on_c, 1, 48, 0
4, 30288, Note_on_c, 1, 57, 48
4, 30288, Note_on_c, 1, 52, 48
4, 30333, Note_on_c, 1, 57, 0
4, 30333, Note_on_c, 1, 52, 0
4, 30336, Note_on_c, 1, 50, 48
4, 30381, Note_on_c, 1, 50, 0
4, 30384, Note_on_c, 1, 59, 48
4, 30384, Note_on_c, 1, 53, 48
4, 30429, Note_on_c, 1, 59, 0
4, 30429, Note_on_c, 1, 53, 0
4, 30432, Note_on_c, 1, 57, 48
4, 30432, Note_on_c, 1, 52, 48
4, 30477, Note_on_c, 1, 57, 0
4, 30477, Note_on_c, 1, 52, 0
4, 30480, Note_on_c, 1, 57, 48
4, 30480, Note_on_c, 1, 52, 48
4, 30525, Note_on_c, 1, 57, 0
4, 30525, Note_on_c, 1, 52, 0
4, 30528, Note_on_c, 1, 56, 48
4, 30528, Note_on_c, 1, 52, 48
4, 30573, Note_on_c, 1, 56, 0
4, 30573, Note_on_c, 1, 52, 0
4, 30576, Note_on_c, 1, 56, 48
4, 30576, Note_on_c, 1, 52, 48
4, 30621, Note_on_c, 1, 56, 0
4, 30621, Note_on_c, 1, 52, 0
4, 30624, Note_on_c, 1, 57, 48
4, 30624, Note_on_c, 1, 45, 48
4, 30713, Note_on_c, 1, 57, 0
4, 30713, Note_on_c, 1, 45, 0
4, 30816, Note_on_c, 1, 48, 85
4, 30861, Note_on_c, 1, 48, 0
4, 30864, Note_on_c, 1, 60, 85
4, 30909, Note_on_c, 1, 60, 0
4, 30912, Note_on_c, 1, 52, 85
4, 30957, Note_on_c, 1, 52, 0
4, 30960, Note_on_c, 1, 64, 85
4, 31005, Note_on_c, 1, 64, 0
4, 31008, Note_on_c, 1, 55, 85
4, 31097, Note_on_c, 1, 55, 0
4, 31200, Note_on_c, 1, 48, 85
4, 31245, Note_on_c, 1, 48, 0
4, 31248, Note_on_c, 1, 60, 85
4, 31293, Note_on_c, 1, 60, 0
4, 31296, Note_on_c, 1, 52, 85
4, 31341, Note_on_c, 1, 52, 0
4, 31344, Note_on_c, 1, 64, 85
4, 31389, Note_on_c, 1, 64, 0
4, 31392, Note_on_c, 1, 55, 85
4, 31481, Note_on_c, 1, 55, 0
4, 31584, Note_on_c, 1, 45, 85
4, 31629, Note_on_c, 1, 45, 0
4, 31632, Note_on_c, 1, 57, 85
4, 31677, Note_on_c, 1, 57, 0
4, 31680, Note_on_c, 1, 48, 85
4, 31725, Note_on_c, 1, 48, 0
4, 31728, Note_on_c, 1, 60, 85
4, 31773, Note_on_c, 1, 60, 0
4, 31776, Note_on_c, 1, 52, 85
4, 31865, Note_on_c, 1, 52, 0
4, 31968, Note_on_c, 1, 45, 85
4, 32013, Note_on_c, 1, 45, 0
4, 32016, Note_on_c, 1, 57, 85
4, 32061, Note_on_c, 1, 57, 0
4, 32064, Note_on_c, 1, 48, 85
4, 32109, Note_on_c, 1, 48, 0
4, 32112, Note_on_c, 1, 60, 85
4, 32157, Note_on_c, 1, 60, 0
4, 32160, Note_on_c, 1, 52, 85
4, 32249, Note_on_c, 1, 52, 0
4, 32352, Note_on_c, 1, 57, 48
4, 32397, Note_on_c, 1, 57, 0
4, 32400, Note_on_c, 1, 64, 48
4, 32400, Note_on_c, 1, 60, 48
4, 32420, Note_on_c, 1, 64, 0
4, 32420, Note_on_c, 1, 60, 0
4, 32448, Note_on_c, 1, 64, 48
4, 32448, Note_on_c, 1, 60, 48
4, 32468, Note_on_c, 1, 64, 0
4, 32468, Note_on_c, 1, 60, 0
4, 32496, Note_on_c, 1, 64, 48
4, 32496, Note_on_c, 1, 60, 48
4, 32516, Note_on_c, 1, 64, 0
4, 32516, Note_on_c, 1, 60, 0
4, 32544, Note_on_c, 1, 57, 48
4, 32589, Note_on_c, 1, 57, 0
4, 32592, Note_on_c, 1, 64, 48
4, 32592, Note_on_c, 1, 60, 48
4, 32612, Note_on_c, 1, 64, 0
4, 32612, Note_on_c, 1, 60, 0
4, 32640, Note_on_c, 1, 64, 48
4, 32640, Note_on_c, 1, 60, 48
4, 32660, Note_on_c, 1, 64, 0
4, 32660, Note_on_c, 1, 60, 0
4, 32688, Note_on_c, 1, 64, 48
4, 32688, Note_on_c, 1, 60, 48
4, 32708, Note_on_c, 1, 64, 0
4, 32708, Note_on_c, 1, 60, 0
4, 32736, Note_on_c, 1, 57, 48
4, 32781, Note_on_c, 1, 57, 0
4, 32784, Note_on_c, 1, 64, 48
4, 32784, Note_on_c, 1, 60, 48
4, 32804, Note_on_c, 1, 64, 0
4, 32804, Note_on_c, 1, 60, 0
4, 32832, Note_on_c, 1, 57, 48
4, 32877, Note_on_c, 1, 57, 0
4, 32880, Note_on_c, 1, 64, 48
4, 32880, Note_on_c, 1, 60, 48
4, 32900, Note_on_c, 1, 64, 0
4, 32900, Note_on_c, 1, 60, 0
4, 32928, Note_on_c, 1, 53, 48
4, 32973, Note_on_c, 1, 53, 0
4, 32976, Note_on_c, 1, 63, 48
4, 32976, Note_on_c, 1, 57, 48
4, 32996, Note_on_c, 1, 63, 0
4, 32996, Note_on_c, 1, 57, 0
4, 33024, Note_on_c, 1, 63, 48
4, 33024, Note_on_c, 1, 57, 48
4, 33044, Note_on_c, 1, 63, 0
4, 33044, Note_on_c, 1, 57, 0
4, 33072, Note_on_c, 1, 63, 48
4, 33072, Note_on_c, 1, 57, 48
4, 33092, Note_on_c, 1, 63, 0
4, 33092, Note_on_c, 1, 57, 0
4, 33120, Note_on_c, 1, 52, 48
4, 33165, Note_on_c, 1, 52, 0
4, 33168, Note_on_c, 1, 64, 48
4, 33168, Note_on_c, 1, 57, 48
4, 33213, Note_on_c, 1, 64, 0
4, 33213, Note_on_c, 1, 57, 0
4, 33216, Note_on_c, 1, 50, 48
4, 33261, Note_on_c, 1, 50, 0
4, 33264, Note_on_c, 1, 59, 48
4, 33264, Note_on_c, 1, 53, 48
4, 33309, Note_on_c, 1, 59, 0
4, 33309, Note_on_c, 1, 53, 0
4, 33312, Note_on_c, 1, 48, 48
4, 33357, Note_on_c, 1, 48, 0
4, 33360, Note_on_c, 1, 57, 48
4, 33360, Note_on_c, 1, 52, 48
4, 33405, Note_on_c, 1, 57, 0
4, 33405, Note_on_c, 1, 52, 0
4, 33408, Note_on_c, 1, 50, 48
4, 33453, Note_on_c, 1, 50, 0
4, 33456, Note_on_c, 1, 59, 48
4, 33456, Note_on_c, 1, 53, 48
4, 33501, Note_on_c, 1, 59, 0
4, 33501, Note_on_c, 1, 53, 0
4, 33504, Note_on_c, 1, 57, 48
4, 33504, Note_on_c, 1, 52, 48
4, 33549, Note_on_c, 1, 57, 0
4, 33549, Note_on_c, 1, 52, 0
4, 33552, Note_on_c, 1, 57, 48
4, 33552, Note_on_c, 1, 52, 48
4, 33597, Note_on_c, 1, 57, 0
4, 33597, Note_on_c, 1, 52, 0
4, 33600, Note_on_c, 1, 56, 48
4, 33600, Note_on_c, 1, 52, 48
4, 33645, Note_on_c, 1, 56, 0
4, 33645, Note_on_c, 1, 52, 0
4, 33648, Note_on_c, 1, 56, 48
4, 33648, Note_on_c, 1, 52, 48
4, 33693, Note_on_c, 1, 56, 0
4, 33693, Note_on_c, 1, 52, 0
4, 33696, Note_on_c, 1, 57, 48
4, 33696, Note_on_c, 1, 45, 48
4, 33785, Note_on_c, 1, 57, 0
4, 33785, Note_on_c, 1, 45, 0
4, 33888, Note_on_c, 1, 45, 85
4, 33894, Note_on_c, 1, 45, 0
4, 33894, Note_on_c, 1, 49, 85
4, 33900, Note_on_c, 1, 49, 0
4, 33900, Note_on_c, 1, 52, 85
4, 33906, Note_on_c, 1, 52, 0
4, 33906, Note_on_c, 1, 57, 85
4, 33933, Note_on_c, 1, 57, 0
4, 33936, Note_on_c, 1, 57, 85
4, 33956, Note_on_c, 1, 57, 0
4, 33984, Note_on_c, 1, 57, 85
4, 34004, Note_on_c, 1, 57, 0
4, 34032, Note_on_c, 1, 57, 85
4, 34052, Note_on_c, 1, 57, 0
4, 34080, Note_on_c, 1, 45, 85
4, 34086, Note_on_c, 1, 45, 0
4, 34086, Note_on_c, 1, 49, 85
4, 34092, Note_on_c, 1, 49, 0
4, 34092, Note_on_c, 1, 52, 85
4, 34098, Note_on_c, 1, 52, 0
4, 34098, Note_on_c, 1, 57, 85
4, 34125, Note_on_c, 1, 57, 0
4, 34128, Note_on_c, 1, 57, 85
4, 34148, Note_on_c, 1, 57, 0
4, 34176, Note_on_c, 1, 57, 85
4, 34196, Note_on_c, 1, 57, 0
4, 34224, Note_on_c, 1, 57, 85
4, 34244, Note_on_c, 1, 57, 0
4, 34272, Note_on_c, 1, 38, 85
4, 34278, Note_on_c, 1, 38, 0
4, 34278, Note_on_c, 1, 42, 85
4, 34284, Note_on_c, 1, 42, 0
4, 34284, Note_on_c, 1, 45, 85
4, 34290, Note_on_c, 1, 45, 0
4, 34290, Note_on_c, 1, 50, 85
4, 34317, Note_on_c, 1, 50, 0
4, 34320, Note_on_c, 1, 50, 85
4, 34340, Note_on_c, 1, 50, 0
4, 34368, Note_on_c, 1, 39, 85
4, 34374, Note_on_c, 1, 39, 0
4, 34374, Note_on_c, 1, 42, 85
4, 34380, Note_on_c, 1, 42, 0
4, 34380, Note_on_c, 1, 45, 85
4, 34386, Note_on_c, 1, 45, 0
4, 34386, Note_on_c, 1, 51, 85
4, 34413, Note_on_c, 1, 51, 0
4, 34416, Note_on_c, 1, 51, 85
4, 34436, Note_on_c, 1, 51, 0
4, 34464, Note_on_c, 1, 40, 85
4, 34470, Note_on_c, 1, 40, 0
4, 34470, Note_on_c, 1, 44, 85
4, 34476, Note_on_c, 1, 44, 0
4, 34476, Note_on_c, 1, 47, 85
4, 34482, Note_on_c, 1, 47, 0
4, 34482, Note_on_c, 1, 52, 85
4, 34509, Note_on_c, 1, 52, 0
4, 34512, Note_on_c, 1, 52, 85
4, 34532, Note_on_c, 1, 52, 0
4, 34560, Note_on_c, 1, 52, 85
4, 34580, Note_on_c, 1, 52, 0
4, 34608, Note_on_c, 1, 52, 85
4, 34628, Note_on_c, 1, 52, 0
4, 34656, Note_on_c, 1, 45, 85
4, 34662, Note_on_c, 1, 45, 0
4, 34662, Note_on_c, 1, 49, 85
4, 34668, Note_on_c, 1, 49, 0
4, 34668, Note_on_c, 1, 52, 85
4, 34674, Note_on_c, 1, 52, 0
4, 34674, Note_on_c, 1, 57, 85
4, 34701, Note_on_c, 1, 57, 0
4, 34704, Note_on_c, 1, 57, 85
4, 34724, Note_on_c, 1, 57, 0
4, 34752, Note_on_c, 1, 57, 85
4, 34772, Note_on_c, 1, 57, 0
4, 34800, Note_on_c, 1, 57, 85
4, 34820, Note_on_c, 1, 57, 0
4, 34848, Note_on_c, 1, 45, 85
4, 34854, Note_on_c, 1, 45, 0
4, 34854, Note_on_c, 1, 49, 85
4, 34860, Note_on_c, 1, 49, 0
4, 34860, Note_on_c, 1, 52, 85
4, 34866, Note_on_c, 1, 52, 0
4, 34866, Note_on_c, 1, 57, 85
4, 34893, Note_on_c, 1, 57, 0
4, 34896, Note_on_c, 1, 57, 85
4, 34916, Note_on_c, 1, 57, 0
4, 34944, Note_on_c, 1, 57, 85
4, 34964, Note_on_c, 1, 57, 0
4, 34992, Note_on_c, 1, 57, 85
4, 35012, Note_on_c, 1, 57, 0
4, 35040, Note_on_c, 1, 38, 85
4, 35046, Note_on_c, 1, 38, 0
4, 35046, Note_on_c, 1, 42, 85
4, 35052, Note_on_c, 1, 42, 0
4, 35052, Note_on_c, 1, 45, 85
4, 35058, Note_on_c, 1, 45, 0
4, 35058, Note_on_c, 1, 50, 85
4, 35085, Note_on_c, 1, 50, 0
4, 35088, Note_on_c, 1, 50, 85
4, 35108, Note_on_c, 1, 50, 0
4, 35136, Note_on_c, 1, 40, 85
4, 35142, Note_on_c, 1, 40, 0
4, 35142, Note_on_c, 1, 44, 85
4, 35148, Note_on_c, 1, 44, 0
4, 35148, Note_on_c, 1, 47, 85
4, 35154, Note_on_c, 1, 47, 0
4, 35154, Note_on_c, 1, 52, 85
4, 35181, Note_on_c, 1, 52, 0
4, 35184, Note_on_c, 1, 52, 85
4, 35204, Note_on_c, 1, 52, 0
4, 35232, Note_on_c, 1, 45, 85
4, 35321, Note_on_c, 1, 45, 0
4, 35424, Note_on_c, 1, 45, 85
4, 35430, Note_on_c, 1, 45, 0
4, 35430, Note_on_c, 1, 49, 85
4, 35436, Note_on_c, 1, 49, 0
4, 35436, Note_on_c, 1, 52, 85
4, 35442, Note_on_c, 1, 52, 0
4, 35442, Note_on_c, 1, 57, 85
4, 35469, Note_on_c, 1, 57, 0
4, 35472, Note_on_c, 1, 57, 85
4, 35492, Note_on_c, 1, 57, 0
4, 35520, Note_on_c, 1, 57, 85
4, 35540, Note_on_c, 1, 57, 0
4, 35568, Note_on_c, 1, 57, 85
4, 35588, Note_on_c, 1, 57, 0
4, 35616, Note_on_c, 1, 45, 85
4, 35622, Note_on_c, 1, 45, 0
4, 35622, Note_on_c, 1, 49, 85
4, 35628, Note_on_c, 1, 49, 0
4, 35628, Note_on_c, 1, 52, 85
4, 35634, Note_on_c, 1, 52, 0
4, 35634, Note_on_c, 1, 57, 85
4, 35661, Note_on_c, 1, 57, 0
4, 35664, Note_on_c, 1, 57, 85
4, 35684, Note_on_c, 1, 57, 0
4, 35712, Note_on_c, 1, 57, 85
4, 35732, Note_on_c, 1, 57, 0
4, 35760, Note_on_c, 1, 57, 85
4, 35780, Note_on_c, 1, 57, 0
4, 35808, Note_on_c, 1, 38, 85
4, 35814, Note_on_c, 1, 38, 0
4, 35814, Note_on_c, 1, 42, 85
4, 35820, Note_on_c, 1, 42, 0
4, 35820, Note_on_c, 1, 45, 85
4, 35826, Note_on_c, 1, 45, 0
4, 35826, Note_on_c, 1, 50, 85
4, 35853, Note_on_c, 1, 50, 0
4, 35856, Note_on_c, 1, 50, 85
4, 35876, Note_on_c, 1, 50, 0
4, 35904, Note_on_c, 1, 39, 85
4, 35910, Note_on_c, 1, 39, 0
4, 35910, Note_on_c, 1, 42, 85
4, 35916, Note_on_c, 1, 42, 0
4, 35916, Note_on_c, 1, 45, 85
4, 35922, Note_on_c, 1, 45, 0
4, 35922, Note_on_c, 1, 51, 85
4, 35949, Note_on_c, 1, 51, 0
4, 35952, Note_on_c, 1, 51, 85
4, 35972, Note_on_c, 1, 51, 0
4, 36000, Note_on_c, 1, 40, 85
4, 36006, Note_on_c, 1, 40, 0
4, 36006, Note_on_c, 1, 44, 85
4, 36012, Note_on_c, 1, 44, 0
4, 36012, Note_on_c, 1, 47, 85
4, 36018, Note_on_c, 1, 47, 0
4, 36018, Note_on_c, 1, 52, 85
4, 36045, Note_on_c, 1, 52, 0
4, 36048, Note_on_c, 1, 52, 85
4, 36068, Note_on_c, 1, 52, 0
4, 36096, Note_on_c, 1, 52, 85
4, 36116, Note_on_c, 1, 52, 0
4, 36144, Note_on_c, 1, 52, 85
4, 36164, Note_on_c, 1, 52, 0
4, 36192, Note_on_c, 1, 45, 85
4, 36198, Note_on_c, 1, 45, 0
4, 36198, Note_on_c, 1, 49, 85
4, 36204, Note_on_c, 1, 49, 0
4, 36204, Note_on_c, 1, 52, 85
4, 36210, Note_on_c, 1, 52, 0
4, 36210, Note_on_c, 1, 57, 85
4, 36237, Note_on_c, 1, 57, 0
4, 36240, Note_on_c, 1, 57, 85
4, 36260, Note_on_c, 1, 57, 0
4, 36288, Note_on_c, 1, 57, 85
4, 36308, Note_on_c, 1, 57, 0
4, 36336, Note_on_c, 1, 57, 85
4, 36356, Note_on_c, 1, 57, 0
4, 36384, Note_on_c, 1, 45, 85
4, 36390, Note_on_c, 1, 45, 0
4, 36390, Note_on_c, 1, 49, 85
4, 36396, Note_on_c, 1, 49, 0
4, 36396, Note_on_c, 1, 52, 85
4, 36402, Note_on_c, 1, 52, 0
4, 36402, Note_on_c, 1, 57, 85
4, 36429, Note_on_c, 1, 57, 0
4, 36432, Note_on_c, 1, 57, 85
4, 36452, Note_on_c, 1, 57, 0
4, 36480, Note_on_c, 1, 57, 85
4, 36500, Note_on_c, 1, 57, 0
4, 36528, Note_on_c, 1, 57, 85
4, 36548, Note_on_c, 1, 57, 0
4, 36576, Note_on_c, 1, 38, 85
4, 36582, Note_on_c, 1, 38, 0
4, 36582, Note_on_c, 1, 42, 85
4, 36588, Note_on_c, 1, 42, 0
4, 36588, Note_on_c, 1, 45, 85
4, 36594, Note_on_c, 1, 45, 0
4, 36594, Note_on_c, 1, 50, 85
4, 36621, Note_on_c, 1, 50, 0
4, 36624, Note_on_c, 1, 50, 85
4, 36644, Note_on_c, 1, 50, 0
4, 36672, Note_on_c, 1, 40, 85
4, 36678, Note_on_c, 1, 40, 0
4, 36678, Note_on_c, 1, 44, 85
4, 36684, Note_on_c, 1, 44, 0
4, 36684, Note_on_c, 1, 47, 85
4, 36690, Note_on_c, 1, 47, 0
4, 36690, Note_on_c, 1, 52, 85
4, 36717, Note_on_c, 1, 52, 0
4, 36720, Note_on_c, 1, 52, 85
4, 36740, Note_on_c, 1, 52, 0
4, 36768, Note_on_c, 1, 45, 85
4, 36774, Note_on_c, 1, 45, 0
4, 36774, Note_on_c, 1, 49, 85
4, 36780, Note_on_c, 1, 49, 0
4, 36780, Note_on_c, 1, 52, 85
4, 36786, Note_on_c, 1, 52, 0
4, 36786, Note_on_c, 1, 57, 85
4, 36813, Note_on_c, 1, 57, 0
4, 36816, Note_on_c, 1, 57, 85
4, 36836, Note_on_c, 1, 57, 0
4, 36864, Note_on_c, 1, 57, 85
4, 36884, Note_on_c, 1, 57, 0
4, 36912, Note_on_c, 1, 57, 85
4, 36932, Note_on_c, 1, 57, 0
4, 36960, Note_on_c, 1, 45, 85
4, 36966, Note_on_c, 1, 45, 0
4, 36966, Note_on_c, 1, 49, 85
4, 36972, Note_on_c, 1, 49, 0
4, 36972, Note_on_c, 1, 52, 85
4, 36978, Note_on_c, 1, 52, 0
4, 36978, Note_on_c, 1, 57, 85
4, 37005, Note_on_c, 1, 57, 0
4, 37008, Note_on_c, 1, 57, 85
4, 37028, Note_on_c, 1, 57, 0
4, 37056, Note_on_c, 1, 57, 85
4, 37076, Note_on_c, 1, 57, 0
4, 37104, Note_on_c, 1, 57, 85
4, 37124, Note_on_c, 1, 57, 0
4, 37152, Note_on_c, 1, 45, 85
4, 37158, Note_on_c, 1, 45, 0
4, 37158, Note_on_c, 1, 49, 85
4, 37164, Note_on_c, 1, 49, 0
4, 37164, Note_on_c, 1, 52, 85
4, 37170, Note_on_c, 1, 52, 0
4, 37170, Note_on_c, 1, 57, 85
4, 37197, Note_on_c, 1, 57, 0
4, 37200, Note_on_c, 1, 57, 85
4, 37220, Note_on_c, 1, 57, 0
4, 37248, Note_on_c, 1, 57, 85
4, 37268, Note_on_c, 1, 57, 0
4, 37296, Note_on_c, 1, 57, 85
4, 37316, Note_on_c, 1, 57, 0
4, 37344, Note_on_c, 1, 45, 85
4, 37350, Note_on_c, 1, 45, 0
4, 37350, Note_on_c, 1, 49, 85
4, 37356, Note_on_c, 1, 49, 0
4, 37356, Note_on_c, 1, 52, 85
4, 37362, Note_on_c, 1, 52, 0
4, 37362, Note_on_c, 1, 57, 85
4, 37389, Note_on_c, 1, 57, 0
4, 37392, Note_on_c, 1, 57, 87
4, 37412, Note_on_c, 1, 57, 0
4, 37440, Note_on_c, 1, 57, 90
4, 37460, Note_on_c, 1, 57, 0
4, 37488, Note_on_c, 1, 57, 93
4, 37508, Note_on_c, 1, 57, 0
4, 37536, Note_on_c, 1, 38, 127
4, 37542, Note_on_c, 1, 38, 0
4, 37542, Note_on_c, 1, 42, 127
4, 37548, Note_on_c, 1, 42, 0
4, 37548, Note_on_c, 1, 45, 127
4, 37554, Note_on_c, 1, 45, 0
4, 37554, Note_on_c, 1, 50, 127
4, 37581, Note_on_c, 1, 50, 0
4, 37584, Note_on_c, 1, 50, 96
4, 37604, Note_on_c, 1, 50, 0
4, 37632, Note_on_c, 1, 50, 96
4, 37652, Note_on_c, 1, 50, 0
4, 37680, Note_on_c, 1, 50, 90
4, 37700, Note_on_c, 1, 50, 0
4, 37728, Note_on_c, 1, 45, 85
4, 37734, Note_on_c, 1, 45, 0
4, 37734, Note_on_c, 1, 49, 85
4, 37740, Note_on_c, 1, 49, 0
4, 37740, Note_on_c, 1, 52, 85
4, 37746, Note_on_c, 1, 52, 0
4, 37746, Note_on_c, 1, 57, 85
4, 37773, Note_on_c, 1, 57, 0
4, 37776, Note_on_c, 1, 57, 85
4, 37796, Note_on_c, 1, 57, 0
4, 37824, Note_on_c, 1, 57, 85
4, 37844, Note_on_c, 1, 57, 0
4, 37872, Note_on_c, 1, 57, 85
4, 37892, Note_on_c, 1, 57, 0
4, 37920, Note_on_c, 1, 40, 85
4, 37926, Note_on_c, 1, 40, 0
4, 37926, Note_on_c, 1, 44, 85
4, 37932, Note_on_c, 1, 44, 0
4, 37932, Note_on_c, 1, 47, 85
4, 37938, Note_on_c, 1, 47, 0
4, 37938, Note_on_c, 1, 52, 85
4, 37965, Note_on_c, 1, 52, 0
4, 37968, Note_on_c, 1, 52, 85
4, 37988, Note_on_c, 1, 52, 0
4, 38016, Note_on_c, 1, 52, 85
4, 38036, Note_on_c, 1, 52, 0
4, 38064, Note_on_c, 1, 52, 85
4, 38084, Note_on_c, 1, 52, 0
4, 38112, Note_on_c, 1, 45, 85
4, 38118, Note_on_c, 1, 45, 0
4, 38118, Note_on_c, 1, 49, 85
4, 38124, Note_on_c, 1, 49, 0
4, 38124, Note_on_c, 1, 52, 85
4, 38130, Note_on_c, 1, 52, 0
4, 38130, Note_on_c, 1, 57, 85
4, 38157, Note_on_c, 1, 57, 0
4, 38160, Note_on_c, 1, 57, 82
4, 38180, Note_on_c, 1, 57, 0
4, 38208, Note_on_c, 1, 57, 79
4, 38228, Note_on_c, 1, 57, 0
4, 38256, Note_on_c, 1, 57, 76
4, 38276, Note_on_c, 1, 57, 0
4, 38304, Note_on_c, 1, 45, 73
4, 38310, Note_on_c, 1, 45, 0
4, 38310, Note_on_c, 1, 49, 73
4, 38316, Note_on_c, 1, 49, 0
4, 38316, Note_on_c, 1, 52, 73
4, 38322, Note_on_c, 1, 52, 0
4, 38322, Note_on_c, 1, 57, 73
4, 38349, Note_on_c, 1, 57, 0
4, 38352, Note_on_c, 1, 57, 71
4, 38372, Note_on_c, 1, 57, 0
4, 38400, Note_on_c, 1, 57, 71
4, 38420, Note_on_c, 1, 57, 0
4, 38448, Note_on_c, 1, 57, 71
4, 38468, Note_on_c, 1, 57, 0
4, 38496, Note_on_c, 1, 45, 71
4, 38502, Note_on_c, 1, 45, 0
4, 38502, Note_on_c, 1, 49, 71
4, 38508, Note_on_c, 1, 49, 0
4, 38508, Note_on_c, 1, 52, 71
4, 38514, Note_on_c, 1, 52, 0
4, 38514, Note_on_c, 1, 57, 71
4, 38541, Note_on_c, 1, 57, 0
4, 38544, Note_on_c, 1, 57, 74
4, 38564, Note_on_c, 1, 57, 0
4, 38592, Note_on_c, 1, 57, 78
4, 38612, Note_on_c, 1, 57, 0
4, 38640, Note_on_c, 1, 57, 81
4, 38660, Note_on_c, 1, 57, 0
4, 38688, Note_on_c, 1, 38, 127
4, 38694, Note_on_c, 1, 38, 0
4, 38694, Note_on_c, 1, 42, 127
4, 38700, Note_on_c, 1, 42, 0
4, 38700, Note_on_c, 1, 45, 127
4, 38706, Note_on_c, 1, 45, 0
4, 38706, Note_on_c, 1, 50, 127
4, 38733, Note_on_c, 1, 50, 0
4, 38736, Note_on_c, 1, 50, 85
4, 38756, Note_on_c, 1, 50, 0
4, 38784, Note_on_c, 1, 50, 83
4, 38804, Note_on_c, 1, 50, 0
4, 38832, Note_on_c, 1, 50, 81
4, 38852, Note_on_c, 1, 50, 0
4, 38880, Note_on_c, 1, 45, 79
4, 38886, Note_on_c, 1, 45, 0
4, 38886, Note_on_c, 1, 49, 79
4, 38892, Note_on_c, 1, 49, 0
4, 38892, Note_on_c, 1, 52, 79
4, 38898, Note_on_c, 1, 52, 0
4, 38898, Note_on_c, 1, 57, 79
4, 38925, Note_on_c, 1, 57, 0
4, 38928, Note_on_c, 1, 57, 77
4, 38948, Note_on_c, 1, 57, 0
4, 38976, Note_on_c, 1, 57, 75
4, 38996, Note_on_c, 1, 57, 0
4, 39024, Note_on_c, 1, 57, 73
4, 39044, Note_on_c, 1, 57, 0
4, 39072, Note_on_c, 1, 40, 71
4, 39078, Note_on_c, 1, 40, 0
4, 39078, Note_on_c, 1, 44, 71
4, 39084, Note_on_c, 1, 44, 0
4, 39084, Note_on_c, 1, 47, 71
4, 39090, Note_on_c, 1, 47, 0
4, 39090, Note_on_c, 1, 52, 71
4, 39117, Note_on_c, 1, 52, 0
4, 39120, Note_on_c, 1, 52, 71
4, 39140, Note_on_c, 1, 52, 0
4, 39168, Note_on_c, 1, 52, 71
4, 39188, Note_on_c, 1, 52, 0
4, 39216, Note_on_c, 1, 52, 71
4, 39236, Note_on_c, 1, 52, 0
4, 39264, Note_on_c, 1, 57, 71
4, 39287, Note_on_c, 1, 57, 0
4, 39288, Note_on_c, 1, 64, 71
4, 39311, Note_on_c, 1, 64, 0
4, 39312, Note_on_c, 1, 61, 71
4, 39335, Note_on_c, 1, 61, 0
4, 39336, Note_on_c, 1, 64, 71
4, 39359, Note_on_c, 1, 64, 0
4, 39360, Note_on_c, 1, 57, 48
4, 39383, Note_on_c, 1, 57, 0
4, 39384, Note_on_c, 1, 64, 50
4, 39407, Note_on_c, 1, 64, 0
4, 39408, Note_on_c, 1, 61, 53
4, 39431, Note_on_c, 1, 61, 0
4, 39432, Note_on_c, 1, 64, 55
4, 39455, Note_on_c, 1, 64, 0
4, 39456, Note_on_c, 1, 57, 58
4, 39479, Note_on_c, 1, 57, 0
4, 39480, Note_on_c, 1, 64, 61
4, 39503, Note_on_c, 1, 64, 0
4, 39504, Note_on_c, 1, 61, 61
4, 39527, Note_on_c, 1, 61, 0
4, 39528, Note_on_c, 1, 64, 61
4, 39551, Note_on_c, 1, 64, 0
4, 39552, Note_on_c, 1, 57, 61
4, 39575, Note_on_c, 1, 57, 0
4, 39576, Note_on_c, 1, 64, 61
4, 39599, Note_on_c, 1, 64, 0
4, 39600, Note_on_c, 1, 61, 61
4, 39623, Note_on_c, 1, 61, 0
4, 39624, Note_on_c, 1, 64, 61
4, 39647, Note_on_c, 1, 64, 0
4, 39648, Note_on_c, 1, 57, 61
4, 39671, Note_on_c, 1, 57, 0
4, 39672, Note_on_c, 1, 64, 59
4, 39695, Note_on_c, 1, 64, 0
4, 39696, Note_on_c, 1, 61, 57
4, 39719, Note_on_c, 1, 61, 0
4, 39720, Note_on_c, 1, 64, 56
4, 39743, Note_on_c, 1, 64, 0
4, 39744, Note_on_c, 1, 57, 54
4, 39767, Note_on_c, 1, 57, 0
4, 39768, Note_on_c, 1, 64, 52
4, 39791, Note_on_c, 1, 64, 0
4, 39792, Note_on_c, 1, 61, 51
4, 39815, Note_on_c, 1, 61, 0
4, 39816, Note_on_c, 1, 64, 49
4, 39839, Note_on_c, 1, 64, 0
4, 39840, Note_on_c, 1, 57, 48
4, 39863, Note_on_c, 1, 57, 0
4, 39864, Note_on_c, 1, 64, 48
4, 39887, Note_on_c, 1, 64, 0
4, 39888, Note_on_c, 1, 61, 48
4, 39911, Note_on_c, 1, 61, 0
4, 39912, Note_on_c, 1, 64, 48
4, 39935, Note_on_c, 1, 64, 0
4, 39936, Note_on_c, 1, 57, 48
4, 39959, Note_on_c, 1, 57, 0
4, 39960, Note_on_c, 1, 64, 48
4, 39983, Note_on_c, 1, 64, 0
4, 39984, Note_on_c, 1, 61, 48
4, 40007, Note_on_c, 1, 61, 0
4, 40008, Note_on_c, 1, 64, 48
4, 40031, Note_on_c, 1, 64, 0
4, 40032, Note_on_c, 1, 57, 127
4, 40055, Note_on_c, 1, 57, 0
4, 40056, Note_on_c, 1, 66, 48
4, 40079, Note_on_c, 1, 66, 0
4, 40080, Note_on_c, 1, 62, 48
4, 40103, Note_on_c, 1, 62, 0
4, 40104, Note_on_c, 1, 66, 48
4, 40127, Note_on_c, 1, 66, 0
4, 40128, Note_on_c, 1, 57, 48
4, 40151, Note_on_c, 1, 57, 0
4, 40152, Note_on_c, 1, 66, 48
4, 40175, Note_on_c, 1, 66, 0
4, 40176, Note_on_c, 1, 62, 48
4, 40199, Note_on_c, 1, 62, 0
4, 40200, Note_on_c, 1, 66, 48
4, 40223, Note_on_c, 1, 66, 0
4, 40224, Note_on_c, 1, 57, 48
4, 40247, Note_on_c, 1, 57, 0
4, 40248, Note_on_c, 1, 64, 48
4, 40271, Note_on_c, 1, 64, 0
4, 40272, Note_on_c, 1, 61, 48
4, 40295, Note_on_c, 1, 61, 0
4, 40296, Note_on_c, 1, 64, 48
4, 40319, Note_on_c, 1, 64, 0
4, 40320, Note_on_c, 1, 57, 48
4, 40343, Note_on_c, 1, 57, 0
4, 40344, Note_on_c, 1, 64, 48
4, 40367, Note_on_c, 1, 64, 0
4, 40368, Note_on_c, 1, 61, 48
4, 40391, Note_on_c, 1, 61, 0
4, 40392, Note_on_c, 1, 64, 48
4, 40415, Note_on_c, 1, 64, 0
4, 40416, Note_on_c, 1, 52, 48
4, 40439, Note_on_c, 1, 52, 0
4, 40440, Note_on_c, 1, 64, 48
4, 40463, Note_on_c, 1, 64, 0
4, 40464, Note_on_c, 1, 59, 48
4, 40487, Note_on_c, 1, 59, 0
4, 40488, Note_on_c, 1, 64, 48
4, 40511, Note_on_c, 1, 64, 0
4, 40512, Note_on_c, 1, 52, 48
4, 40535, Note_on_c, 1, 52, 0
4, 40536, Note_on_c, 1, 64, 48
4, 40559, Note_on_c, 1, 64, 0
4, 40560, Note_on_c, 1, 59, 48
4, 40583, Note_on_c, 1, 59, 0
4, 40584, Note_on_c, 1, 64, 48
4, 40607, Note_on_c, 1, 64, 0
4, 40608, Note_on_c, 1, 45, 48
4, 40614, Note_on_c, 1, 45, 0
4, 40614, Note_on_c, 1, 49, 48
4, 40620, Note_on_c, 1, 49, 0
4, 40620, Note_on_c, 1, 52, 48
4, 40626, Note_on_c, 1, 52, 0
4, 40626, Note_on_c, 1, 57, 48
4, 40653, Note_on_c, 1, 57, 0
4, 40656, Note_on_c, 1, 57, 48
4, 40676, Note_on_c, 1, 57, 0
4, 40704, Note_on_c, 1, 57, 48
4, 40724, Note_on_c, 1, 57, 0
4, 40752, Note_on_c, 1, 57, 48
4, 40772, Note_on_c, 1, 57, 0
4, 40800, Note_on_c, 1, 45, 48
4, 40806, Note_on_c, 1, 45, 0
4, 40806, Note_on_c, 1, 49, 48
4, 40812, Note_on_c, 1, 49, 0
4, 40812, Note_on_c, 1, 52, 48
4, 40818, Note_on_c, 1, 52, 0
4, 40818, Note_on_c, 1, 57, 48
4, 40845, Note_on_c, 1, 57, 0
4, 40848, Note_on_c, 1, 57, 48
4, 40868, Note_on_c, 1, 57, 0
4, 40896, Note_on_c, 1, 57, 48
4, 40916, Note_on_c, 1, 57, 0
4, 40944, Note_on_c, 1, 57, 48
4, 40964, Note_on_c, 1, 57, 0
4, 40992, Note_on_c, 1, 45, 48
4, 40998, Note_on_c, 1, 45, 0
4, 40998, Note_on_c, 1, 49, 48
4, 41004, Note_on_c, 1, 49, 0
4, 41004, Note_on_c, 1, 52, 48
4, 41010, Note_on_c, 1, 52, 0
4, 41010, Note_on_c, 1, 57, 48
4, 41037, Note_on_c, 1, 57, 0
4, 41040, Note_on_c, 1, 57, 51
4, 41060, Note_on_c, 1, 57, 0
4, 41088, Note_on_c, 1, 57, 54
4, 41108, Note_on_c, 1, 57, 0
4, 41136, Note_on_c, 1, 57, 57
4, 41156, Note_on_c, 1, 57, 0
4, 41184, Note_on_c, 1, 38, 127
4, 41190, Note_on_c, 1, 38, 0
4, 41190, Note_on_c, 1, 42, 127
4, 41196, Note_on_c, 1, 42, 0
4, 41196, Note_on_c, 1, 45, 127
4, 41202, Note_on_c, 1, 45, 0
4, 41202, Note_on_c, 1, 50, 127
4, 41229, Note_on_c, 1, 50, 0
4, 41232, Note_on_c, 1, 50, 46
4, 41252, Note_on_c, 1, 50, 0
4, 41280, Note_on_c, 1, 50, 44
4, 41300, Note_on_c, 1, 50, 0
4, 41328, Note_on_c, 1, 50, 42
4, 41348, Note_on_c, 1, 50, 0
4, 41376, Note_on_c, 1, 45, 41
4, 41382, Note_on_c, 1, 45, 0
4, 41382, Note_on_c, 1, 49, 41
4, 41388, Note_on_c, 1, 49, 0
4, 41388, Note_on_c, 1, 52, 41
4, 41394, Note_on_c, 1, 52, 0
4, 41394, Note_on_c, 1, 57, 41
4, 41421, Note_on_c, 1, 57, 0
4, 41424, Note_on_c, 1, 57, 39
4, 41444, Note_on_c, 1, 57, 0
4, 41472, Note_on_c, 1, 57, 37
4, 41492, Note_on_c, 1, 57, 0
4, 41520, Note_on_c, 1, 57, 35
4, 41540, Note_on_c, 1, 57, 0
4, 41568, Note_on_c, 1, 40, 34
4, 41574, Note_on_c, 1, 40, 0
4, 41574, Note_on_c, 1, 44, 34
4, 41580, Note_on_c, 1, 44, 0
4, 41580, Note_on_c, 1, 47, 34
4, 41586, Note_on_c, 1, 47, 0
4, 41586, Note_on_c, 1, 52, 34
4, 41613, Note_on_c, 1, 52, 0
4, 41616, Note_on_c, 1, 52, 34
4, 41636, Note_on_c, 1, 52, 0
4, 41664, Note_on_c, 1, 52, 34
4, 41684, Note_on_c, 1, 52, 0
4, 41712, Note_on_c, 1, 52, 34
4, 41732, Note_on_c, 1, 52, 0
4, 41760, Note_on_c, 1, 45, 34
4, 41766, Note_on_c, 1, 45, 0
4, 41766, Note_on_c, 1, 49, 34
4, 41772, Note_on_c, 1, 49, 0
4, 41772, Note_on_c, 1, 52, 34
4, 41778, Note_on_c, 1, 52, 0
4, 41778, Note_on_c, 1, 57, 34
4, 41805, Note_on_c, 1, 57, 0
4, 41808, Note_on_c, 1, 57, 34
4, 41828, Note_on_c, 1, 57, 0
4, 41856, Note_on_c, 1, 57, 34
4, 41876, Note_on_c, 1, 57, 0
4, 41904, Note_on_c, 1, 57, 34
4, 41924, Note_on_c, 1, 57, 0
4, 41952, Note_on_c, 1, 45, 34
4, 41958, Note_on_c, 1, 45, 0
4, 41958, Note_on_c, 1, 49, 34
4, 41964, Note_on_c, 1, 49, 0
4, 41964, Note_on_c, 1, 52, 34
4, 41970, Note_on_c, 1, 52, 0
4, 41970, Note_on_c, 1, 57, 34
4, 41997, Note_on_c, 1, 57, 0
4, 42000, Note_on_c, 1, 57, 34
4, 42020, Note_on_c, 1, 57, 0
4, 42048, Note_on_c, 1, 57, 34
4, 42068, Note_on_c, 1, 57, 0
4, 42096, Note_on_c, 1, 57, 34
4, 42116, Note_on_c, 1, 57, 0
4, 42144, Note_on_c, 1, 45, 34
4, 42150, Note_on_c, 1, 45, 0
4, 42150, Note_on_c, 1, 49, 34
4, 42156, Note_on_c, 1, 49, 0
4, 42156, Note_on_c, 1, 52, 34
4, 42162, Note_on_c, 1, 52, 0
4, 42162, Note_on_c, 1, 57, 34
4, 42189, Note_on_c, 1, 57, 0
4, 42192, Note_on_c, 1, 57, 34
4, 42212, Note_on_c, 1, 57, 0
4, 42240, Note_on_c, 1, 57, 34
4, 42260, Note_on_c, 1, 57, 0
4, 42288, Note_on_c, 1, 57, 34
4, 42308, Note_on_c, 1, 57, 0
4, 42336, Note_on_c, 1, 45, 34
4, 42342, Note_on_c, 1, 45, 0
4, 42342, Note_on_c, 1, 49, 34
4, 42348, Note_on_c, 1, 49, 0
4, 42348, Note_on_c, 1, 52, 34
4, 42354, Note_on_c, 1, 52, 0
4, 42354, Note_on_c, 1, 57, 34
4, 42381, Note_on_c, 1, 57, 0
4, 42384, Note_on_c, 1, 57, 34
4, 42404, Note_on_c, 1, 57, 0
4, 42432, Note_on_c, 1, 57, 34
4, 42452, Note_on_c, 1, 57, 0
4, 42480, Note_on_c, 1, 57, 34
4, 42500, Note_on_c, 1, 57, 0
4, 42528, Note_on_c, 1, 45, 34
4, 42617, Note_on_c, 1, 45, 0
4, 42624, Note_on_c, 1, 57, 96
4, 42624, Note_on_c, 1, 52, 96
4, 42624, Note_on_c, 1, 49, 96
4, 42624, Note_on_c, 1, 45, 96
4, 42713, Note_on_c, 1, 57, 0
4, 42713, Note_on_c, 1, 52, 0
4, 42713, Note_on_c, 1, 49, 0
4, 42713, Note_on_c, 1, 45, 0
4, 42720, Note_on_c, 1, 57, 96
4, 42720, Note_on_c, 1, 52, 96
4, 42720, Note_on_c, 1, 49, 96
4, 42720, Note_on_c, 1, 45, 96
4, 42897, Note_on_c, 1, 57, 0
4, 42897, Note_on_c, 1, 52, 0
4, 42897, Note_on_c, 1, 49, 0
4, 42897, Note_on_c, 1, 45, 0
4, 43296, End_track
5, 0, Start_track
5, 0, Program_c, 0, 0
5, 0, Control_c, 0, 7, 127
5, 0, Control_c, 0, 10, 64
5, 43296, End_track
6, 0, Start_track
6, 0, Title_t, "Piano Solo   <composer>  "
6, 0, End_track
0, 0, End_of_file
