0, 0, Header, 1, 9, 240
1, 0, Start_track
1, 0, Key_signature, 2, "major"
1, 0, SMPTE_offset, 96, 0, 0, 0, 0
1, 0, Title_t, "        "
1, 0, Tempo, 909090
1, 0, Time_signature, 3, 2, 24, 8
1, 76321, Tempo, 480000
1, 77040, Time_signature, 2, 2, 24, 8
1, 101761, Tempo, 714285
1, 102121, Tempo, 480000
1, 107993, Tempo, 500000
1, 108241, Tempo, 526315
1, 108720, Tempo, 600000
1, 109200, Tempo, 1000000
1, 109680, Tempo, 480000
1, 109680, End_track
2, 0, Start_track
2, 0, MIDI_port, 0
2, 0, Title_t, "Piano Sonata No.20 in D"
2, 0, Program_c, 0, 0
2, 0, Program_c, 0, 0
2, 0, Control_c, 0, 7, 127
2, 661, Note_on_c, 0, 69, 35
2, 719, Note_on_c, 0, 69, 0
2, 720, Note_on_c, 0, 74, 35
2, 899, Note_on_c, 0, 74, 0
2, 900, Note_on_c, 0, 74, 35
2, 959, Note_on_c, 0, 74, 0
2, 960, Note_on_c, 0, 74, 35
2, 1079, Note_on_c, 0, 74, 0
2, 1381, Note_on_c, 0, 69, 47
2, 1399, Note_on_c, 0, 69, 0
2, 1400, Note_on_c, 0, 74, 47
2, 1419, Note_on_c, 0, 74, 0
2, 1420, Note_on_c, 0, 78, 47
2, 1439, Note_on_c, 0, 78, 0
2, 1440, Note_on_c, 0, 76, 47
2, 1619, Note_on_c, 0, 76, 0
2, 1620, Note_on_c, 0, 73, 35
2, 1679, Note_on_c, 0, 73, 0
2, 1680, Note_on_c, 0, 74, 35
2, 1739, Note_on_c, 0, 74, 0
2, 2041, Note_on_c, 0, 69, 47
2, 2069, Note_on_c, 0, 69, 0
2, 2070, Note_on_c, 0, 74, 47
2, 2099, Note_on_c, 0, 74, 0
2, 2100, Note_on_c, 0, 78, 47
2, 2129, Note_on_c, 0, 78, 0
2, 2130, Note_on_c, 0, 81, 47
2, 2159, Note_on_c, 0, 81, 0
2, 2160, Note_on_c, 0, 81, 47
2, 2279, Note_on_c, 0, 81, 0
2, 2280, Note_on_c, 0, 79, 47
2, 2309, Note_on_c, 0, 79, 0
2, 2371, Note_on_c, 0, 78, 47
2, 2399, Note_on_c, 0, 78, 0
2, 2400, Note_on_c, 0, 78, 47
2, 2519, Note_on_c, 0, 78, 0
2, 2520, Note_on_c, 0, 76, 47
2, 2549, Note_on_c, 0, 76, 0
2, 2611, Note_on_c, 0, 74, 35
2, 2639, Note_on_c, 0, 74, 0
2, 2640, Note_on_c, 0, 74, 35
2, 2759, Note_on_c, 0, 74, 0
2, 2760, Note_on_c, 0, 73, 35
2, 2789, Note_on_c, 0, 73, 0
2, 2851, Note_on_c, 0, 74, 35
2, 2879, Note_on_c, 0, 74, 0
2, 2880, Note_on_c, 0, 78, 35
2, 3119, Note_on_c, 0, 78, 0
2, 3120, Note_on_c, 0, 76, 28
2, 3239, Note_on_c, 0, 76, 0
2, 3541, Note_on_c, 0, 74, 63
2, 3559, Note_on_c, 0, 74, 0
2, 3560, Note_on_c, 0, 78, 63
2, 3579, Note_on_c, 0, 78, 0
2, 3580, Note_on_c, 0, 81, 63
2, 3599, Note_on_c, 0, 81, 0
2, 3600, Note_on_c, 0, 86, 81
2, 3659, Note_on_c, 0, 86, 0
2, 3660, Note_on_c, 0, 88, 81
2, 3679, Note_on_c, 0, 88, 0
2, 3680, Note_on_c, 0, 86, 81
2, 3699, Note_on_c, 0, 86, 0
2, 3700, Note_on_c, 0, 85, 81
2, 3719, Note_on_c, 0, 85, 0
2, 3720, Note_on_c, 0, 86, 81
2, 3809, Note_on_c, 0, 86, 0
2, 3810, Note_on_c, 0, 88, 81
2, 3839, Note_on_c, 0, 88, 0
2, 3840, Note_on_c, 0, 85, 81
2, 3899, Note_on_c, 0, 85, 0
2, 4081, Note_on_c, 0, 81, 81
2, 4139, Note_on_c, 0, 81, 0
2, 4140, Note_on_c, 0, 83, 81
2, 4159, Note_on_c, 0, 83, 0
2, 4160, Note_on_c, 0, 81, 81
2, 4179, Note_on_c, 0, 81, 0
2, 4180, Note_on_c, 0, 80, 81
2, 4199, Note_on_c, 0, 80, 0
2, 4200, Note_on_c, 0, 81, 81
2, 4289, Note_on_c, 0, 81, 0
2, 4290, Note_on_c, 0, 83, 81
2, 4319, Note_on_c, 0, 83, 0
2, 4320, Note_on_c, 0, 86, 81
2, 4379, Note_on_c, 0, 86, 0
2, 4380, Note_on_c, 0, 84, 81
2, 4439, Note_on_c, 0, 84, 0
2, 4440, Note_on_c, 0, 84, 81
2, 4529, Note_on_c, 0, 84, 0
2, 4530, Note_on_c, 0, 83, 81
2, 4559, Note_on_c, 0, 83, 0
2, 4560, Note_on_c, 0, 83, 81
2, 4859, Note_on_c, 0, 83, 0
2, 4860, Note_on_c, 0, 81, 35
2, 4919, Note_on_c, 0, 81, 0
2, 4920, Note_on_c, 0, 84, 35
2, 4979, Note_on_c, 0, 84, 0
2, 4980, Note_on_c, 0, 81, 35
2, 5039, Note_on_c, 0, 81, 0
2, 5040, Note_on_c, 0, 81, 35
2, 5099, Note_on_c, 0, 81, 0
2, 5100, Note_on_c, 0, 79, 35
2, 5159, Note_on_c, 0, 79, 0
2, 5160, Note_on_c, 0, 83, 35
2, 5219, Note_on_c, 0, 83, 0
2, 5220, Note_on_c, 0, 79, 35
2, 5279, Note_on_c, 0, 79, 0
2, 5280, Note_on_c, 0, 79, 35
2, 5339, Note_on_c, 0, 79, 0
2, 5340, Note_on_c, 0, 78, 35
2, 5399, Note_on_c, 0, 78, 0
2, 5400, Note_on_c, 0, 81, 35
2, 5459, Note_on_c, 0, 81, 0
2, 5460, Note_on_c, 0, 78, 35
2, 5519, Note_on_c, 0, 78, 0
2, 5520, Note_on_c, 0, 78, 47
2, 5579, Note_on_c, 0, 78, 0
2, 5580, Note_on_c, 0, 76, 47
2, 5639, Note_on_c, 0, 76, 0
2, 5640, Note_on_c, 0, 77, 47
2, 5699, Note_on_c, 0, 77, 0
2, 5700, Note_on_c, 0, 74, 47
2, 5759, Note_on_c, 0, 74, 0
2, 5760, Note_on_c, 0, 74, 35
2, 5999, Note_on_c, 0, 74, 0
2, 6000, Note_on_c, 0, 73, 28
2, 6119, Note_on_c, 0, 73, 0
2, 6841, Note_on_c, 0, 84, 35
2, 6899, Note_on_c, 0, 84, 0
2, 6900, Note_on_c, 0, 81, 35
2, 6959, Note_on_c, 0, 81, 0
2, 6960, Note_on_c, 0, 83, 35
2, 7019, Note_on_c, 0, 83, 0
2, 7020, Note_on_c, 0, 79, 35
2, 7079, Note_on_c, 0, 79, 0
2, 7080, Note_on_c, 0, 81, 35
2, 7139, Note_on_c, 0, 81, 0
2, 7140, Note_on_c, 0, 78, 35
2, 7199, Note_on_c, 0, 78, 0
2, 7200, Note_on_c, 0, 79, 35
2, 7319, Note_on_c, 0, 79, 0
2, 7561, Note_on_c, 0, 83, 28
2, 7619, Note_on_c, 0, 83, 0
2, 7620, Note_on_c, 0, 79, 28
2, 7679, Note_on_c, 0, 79, 0
2, 7680, Note_on_c, 0, 81, 19
2, 7739, Note_on_c, 0, 81, 0
2, 7740, Note_on_c, 0, 78, 19
2, 7799, Note_on_c, 0, 78, 0
2, 7800, Note_on_c, 0, 79, 19
2, 7859, Note_on_c, 0, 79, 0
2, 7860, Note_on_c, 0, 76, 19
2, 7919, Note_on_c, 0, 76, 0
2, 7920, Note_on_c, 0, 78, 19
2, 8039, Note_on_c, 0, 78, 0
2, 8221, Note_on_c, 0, 81, 47
2, 8279, Note_on_c, 0, 81, 0
2, 8280, Note_on_c, 0, 74, 47
2, 8339, Note_on_c, 0, 74, 0
2, 8340, Note_on_c, 0, 86, 63
2, 8399, Note_on_c, 0, 86, 0
2, 8400, Note_on_c, 0, 85, 63
2, 8459, Note_on_c, 0, 85, 0
2, 8460, Note_on_c, 0, 83, 63
2, 8519, Note_on_c, 0, 83, 0
2, 8520, Note_on_c, 0, 81, 63
2, 8579, Note_on_c, 0, 81, 0
2, 8580, Note_on_c, 0, 79, 63
2, 8639, Note_on_c, 0, 79, 0
2, 8640, Note_on_c, 0, 78, 47
2, 8879, Note_on_c, 0, 78, 0
2, 8880, Note_on_c, 0, 76, 19
2, 8999, Note_on_c, 0, 76, 0
2, 9301, Note_on_c, 0, 69, 31
2, 9359, Note_on_c, 0, 69, 0
2, 9360, Note_on_c, 0, 74, 31
2, 9539, Note_on_c, 0, 74, 0
2, 9540, Note_on_c, 0, 74, 31
2, 9599, Note_on_c, 0, 74, 0
2, 9600, Note_on_c, 0, 74, 31
2, 9719, Note_on_c, 0, 74, 0
2, 10021, Note_on_c, 0, 69, 31
2, 10039, Note_on_c, 0, 69, 0
2, 10040, Note_on_c, 0, 74, 31
2, 10059, Note_on_c, 0, 74, 0
2, 10060, Note_on_c, 0, 78, 31
2, 10079, Note_on_c, 0, 78, 0
2, 10080, Note_on_c, 0, 78, 31
2, 10139, Note_on_c, 0, 78, 0
2, 10140, Note_on_c, 0, 76, 31
2, 10199, Note_on_c, 0, 76, 0
2, 10200, Note_on_c, 0, 79, 31
2, 10259, Note_on_c, 0, 79, 0
2, 10260, Note_on_c, 0, 73, 31
2, 10319, Note_on_c, 0, 73, 0
2, 10320, Note_on_c, 0, 76, 31
2, 10439, Note_on_c, 0, 76, 0
2, 10440, Note_on_c, 0, 74, 31
2, 10559, Note_on_c, 0, 74, 0
2, 10681, Note_on_c, 0, 74, 31
2, 10719, Note_on_c, 0, 74, 0
2, 10720, Note_on_c, 0, 78, 31
2, 10759, Note_on_c, 0, 78, 0
2, 10760, Note_on_c, 0, 81, 31
2, 10799, Note_on_c, 0, 81, 0
2, 10800, Note_on_c, 0, 81, 47
2, 10919, Note_on_c, 0, 81, 0
2, 10920, Note_on_c, 0, 79, 47
2, 10949, Note_on_c, 0, 79, 0
2, 11011, Note_on_c, 0, 78, 47
2, 11039, Note_on_c, 0, 78, 0
2, 11040, Note_on_c, 0, 78, 47
2, 11159, Note_on_c, 0, 78, 0
2, 11160, Note_on_c, 0, 76, 47
2, 11189, Note_on_c, 0, 76, 0
2, 11251, Note_on_c, 0, 74, 47
2, 11279, Note_on_c, 0, 74, 0
2, 11280, Note_on_c, 0, 74, 47
2, 11399, Note_on_c, 0, 74, 0
2, 11400, Note_on_c, 0, 73, 47
2, 11429, Note_on_c, 0, 73, 0
2, 11491, Note_on_c, 0, 74, 47
2, 11519, Note_on_c, 0, 74, 0
2, 11520, Note_on_c, 0, 78, 47
2, 11609, Note_on_c, 0, 78, 0
2, 11610, Note_on_c, 0, 79, 47
2, 11639, Note_on_c, 0, 79, 0
2, 11640, Note_on_c, 0, 80, 47
2, 11729, Note_on_c, 0, 80, 0
2, 11730, Note_on_c, 0, 81, 19
2, 11759, Note_on_c, 0, 81, 0
2, 11760, Note_on_c, 0, 76, 19
2, 11819, Note_on_c, 0, 76, 0
2, 12181, Note_on_c, 0, 74, 47
2, 12199, Note_on_c, 0, 74, 0
2, 12200, Note_on_c, 0, 78, 47
2, 12219, Note_on_c, 0, 78, 0
2, 12220, Note_on_c, 0, 81, 47
2, 12239, Note_on_c, 0, 81, 0
2, 12240, Note_on_c, 0, 86, 81
2, 12299, Note_on_c, 0, 86, 0
2, 12300, Note_on_c, 0, 88, 81
2, 12319, Note_on_c, 0, 88, 0
2, 12320, Note_on_c, 0, 86, 81
2, 12339, Note_on_c, 0, 86, 0
2, 12340, Note_on_c, 0, 85, 81
2, 12359, Note_on_c, 0, 85, 0
2, 12360, Note_on_c, 0, 86, 81
2, 12449, Note_on_c, 0, 86, 0
2, 12450, Note_on_c, 0, 88, 81
2, 12479, Note_on_c, 0, 88, 0
2, 12480, Note_on_c, 0, 85, 81
2, 12539, Note_on_c, 0, 85, 0
2, 12721, Note_on_c, 0, 69, 81
2, 12749, Note_on_c, 0, 69, 0
2, 12750, Note_on_c, 0, 71, 81
2, 12779, Note_on_c, 0, 71, 0
2, 12780, Note_on_c, 0, 73, 81
2, 12809, Note_on_c, 0, 73, 0
2, 12810, Note_on_c, 0, 74, 81
2, 12839, Note_on_c, 0, 74, 0
2, 12840, Note_on_c, 0, 76, 81
2, 12869, Note_on_c, 0, 76, 0
2, 12870, Note_on_c, 0, 78, 81
2, 12899, Note_on_c, 0, 78, 0
2, 12900, Note_on_c, 0, 79, 81
2, 12929, Note_on_c, 0, 79, 0
2, 12930, Note_on_c, 0, 81, 81
2, 12943, Note_on_c, 0, 81, 0
2, 12945, Note_on_c, 0, 83, 81
2, 12958, Note_on_c, 0, 83, 0
2, 12960, Note_on_c, 0, 85, 105
2, 13019, Note_on_c, 0, 85, 0
2, 13020, Note_on_c, 0, 86, 105
2, 13039, Note_on_c, 0, 86, 0
2, 13040, Note_on_c, 0, 85, 105
2, 13059, Note_on_c, 0, 85, 0
2, 13060, Note_on_c, 0, 83, 105
2, 13079, Note_on_c, 0, 83, 0
2, 13080, Note_on_c, 0, 85, 105
2, 13169, Note_on_c, 0, 85, 0
2, 13170, Note_on_c, 0, 86, 105
2, 13199, Note_on_c, 0, 86, 0
2, 13200, Note_on_c, 0, 84, 105
2, 13259, Note_on_c, 0, 84, 0
2, 13260, Note_on_c, 0, 86, 105
2, 13279, Note_on_c, 0, 86, 0
2, 13280, Note_on_c, 0, 84, 105
2, 13299, Note_on_c, 0, 84, 0
2, 13300, Note_on_c, 0, 83, 105
2, 13319, Note_on_c, 0, 83, 0
2, 13320, Note_on_c, 0, 84, 105
2, 13409, Note_on_c, 0, 84, 0
2, 13410, Note_on_c, 0, 86, 105
2, 13439, Note_on_c, 0, 86, 0
2, 13440, Note_on_c, 0, 83, 105
2, 13559, Note_on_c, 0, 83, 0
2, 13560, Note_on_c, 0, 81, 105
2, 13589, Note_on_c, 0, 81, 0
2, 13590, Note_on_c, 0, 79, 105
2, 13619, Note_on_c, 0, 79, 0
2, 13620, Note_on_c, 0, 78, 105
2, 13649, Note_on_c, 0, 78, 0
2, 13650, Note_on_c, 0, 76, 105
2, 13679, Note_on_c, 0, 76, 0
2, 13680, Note_on_c, 0, 81, 105
2, 14039, Note_on_c, 0, 81, 0
2, 14040, Note_on_c, 0, 79, 81
2, 14069, Note_on_c, 0, 79, 0
2, 14070, Note_on_c, 0, 78, 81
2, 14099, Note_on_c, 0, 78, 0
2, 14100, Note_on_c, 0, 76, 63
2, 14129, Note_on_c, 0, 76, 0
2, 14130, Note_on_c, 0, 74, 63
2, 14159, Note_on_c, 0, 74, 0
2, 14160, Note_on_c, 0, 73, 47
2, 14279, Note_on_c, 0, 73, 0
2, 14280, Note_on_c, 0, 76, 31
2, 14399, Note_on_c, 0, 76, 0
2, 14400, Note_on_c, 0, 74, 19
2, 14519, Note_on_c, 0, 74, 0
2, 15121, Note_on_c, 0, 62, 31
2, 15299, Note_on_c, 0, 62, 0
2, 15300, Note_on_c, 0, 62, 31
2, 15359, Note_on_c, 0, 62, 0
2, 15360, Note_on_c, 0, 62, 31
2, 15479, Note_on_c, 0, 62, 0
2, 15561, Note_on_c, 0, 61, 47
2, 15599, Note_on_c, 0, 61, 0
2, 15600, Note_on_c, 0, 62, 47
2, 15639, Note_on_c, 0, 62, 0
2, 15640, Note_on_c, 0, 66, 47
2, 15679, Note_on_c, 0, 66, 0
2, 15680, Note_on_c, 0, 74, 47
2, 15719, Note_on_c, 0, 74, 0
2, 15720, Note_on_c, 0, 69, 47
2, 15759, Note_on_c, 0, 69, 0
2, 15760, Note_on_c, 0, 66, 47
2, 15839, Note_on_c, 0, 66, 0
2, 15840, Note_on_c, 0, 64, 47
2, 16019, Note_on_c, 0, 64, 0
2, 16020, Note_on_c, 0, 61, 31
2, 16079, Note_on_c, 0, 61, 0
2, 16080, Note_on_c, 0, 62, 31
2, 16119, Note_on_c, 0, 62, 0
2, 16120, Note_on_c, 0, 69, 31
2, 16159, Note_on_c, 0, 69, 0
2, 16160, Note_on_c, 0, 66, 31
2, 16199, Note_on_c, 0, 66, 0
2, 16200, Note_on_c, 0, 74, 31
2, 16239, Note_on_c, 0, 74, 0
2, 16240, Note_on_c, 0, 69, 31
2, 16279, Note_on_c, 0, 69, 0
2, 16280, Note_on_c, 0, 78, 31
2, 16319, Note_on_c, 0, 78, 0
2, 16320, Note_on_c, 0, 74, 47
2, 16359, Note_on_c, 0, 74, 0
2, 16360, Note_on_c, 0, 81, 47
2, 16399, Note_on_c, 0, 81, 0
2, 16400, Note_on_c, 0, 78, 47
2, 16439, Note_on_c, 0, 78, 0
2, 16440, Note_on_c, 0, 86, 63
2, 16479, Note_on_c, 0, 86, 0
2, 16480, Note_on_c, 0, 85, 63
2, 16519, Note_on_c, 0, 85, 0
2, 16520, Note_on_c, 0, 83, 63
2, 16559, Note_on_c, 0, 83, 0
2, 16560, Note_on_c, 0, 81, 81
2, 16599, Note_on_c, 0, 81, 0
2, 16600, Note_on_c, 0, 79, 63
2, 16639, Note_on_c, 0, 79, 0
2, 16640, Note_on_c, 0, 81, 63
2, 16679, Note_on_c, 0, 81, 0
2, 16680, Note_on_c, 0, 79, 63
2, 16719, Note_on_c, 0, 79, 0
2, 16720, Note_on_c, 0, 78, 63
2, 16759, Note_on_c, 0, 78, 0
2, 16760, Note_on_c, 0, 79, 63
2, 16799, Note_on_c, 0, 79, 0
2, 16800, Note_on_c, 0, 78, 81
2, 16839, Note_on_c, 0, 78, 0
2, 16840, Note_on_c, 0, 76, 63
2, 16879, Note_on_c, 0, 76, 0
2, 16880, Note_on_c, 0, 78, 63
2, 16919, Note_on_c, 0, 78, 0
2, 16920, Note_on_c, 0, 76, 63
2, 16959, Note_on_c, 0, 76, 0
2, 16960, Note_on_c, 0, 74, 63
2, 16999, Note_on_c, 0, 74, 0
2, 17000, Note_on_c, 0, 76, 63
2, 17039, Note_on_c, 0, 76, 0
2, 17040, Note_on_c, 0, 74, 81
2, 17079, Note_on_c, 0, 74, 0
2, 17080, Note_on_c, 0, 73, 63
2, 17119, Note_on_c, 0, 73, 0
2, 17120, Note_on_c, 0, 81, 63
2, 17159, Note_on_c, 0, 81, 0
2, 17160, Note_on_c, 0, 79, 63
2, 17199, Note_on_c, 0, 79, 0
2, 17200, Note_on_c, 0, 78, 63
2, 17239, Note_on_c, 0, 78, 0
2, 17240, Note_on_c, 0, 86, 63
2, 17279, Note_on_c, 0, 86, 0
2, 17280, Note_on_c, 0, 79, 47
2, 17299, Note_on_c, 0, 79, 0
2, 17300, Note_on_c, 0, 78, 47
2, 17319, Note_on_c, 0, 78, 0
2, 17320, Note_on_c, 0, 79, 47
2, 17339, Note_on_c, 0, 79, 0
2, 17340, Note_on_c, 0, 78, 47
2, 17359, Note_on_c, 0, 78, 0
2, 17360, Note_on_c, 0, 79, 47
2, 17379, Note_on_c, 0, 79, 0
2, 17380, Note_on_c, 0, 78, 47
2, 17399, Note_on_c, 0, 78, 0
2, 17400, Note_on_c, 0, 79, 47
2, 17419, Note_on_c, 0, 79, 0
2, 17420, Note_on_c, 0, 78, 47
2, 17439, Note_on_c, 0, 78, 0
2, 17440, Note_on_c, 0, 79, 47
2, 17459, Note_on_c, 0, 79, 0
2, 17460, Note_on_c, 0, 78, 47
2, 17479, Note_on_c, 0, 78, 0
2, 17480, Note_on_c, 0, 76, 47
2, 17499, Note_on_c, 0, 76, 0
2, 17500, Note_on_c, 0, 78, 47
2, 17519, Note_on_c, 0, 78, 0
2, 17520, Note_on_c, 0, 76, 31
2, 17639, Note_on_c, 0, 76, 0
2, 17941, Note_on_c, 0, 74, 63
2, 17959, Note_on_c, 0, 74, 0
2, 17960, Note_on_c, 0, 78, 63
2, 17979, Note_on_c, 0, 78, 0
2, 17980, Note_on_c, 0, 81, 63
2, 17999, Note_on_c, 0, 81, 0
2, 18000, Note_on_c, 0, 86, 81
2, 18059, Note_on_c, 0, 86, 0
2, 18060, Note_on_c, 0, 88, 81
2, 18079, Note_on_c, 0, 88, 0
2, 18080, Note_on_c, 0, 86, 81
2, 18099, Note_on_c, 0, 86, 0
2, 18100, Note_on_c, 0, 85, 81
2, 18119, Note_on_c, 0, 85, 0
2, 18120, Note_on_c, 0, 86, 81
2, 18209, Note_on_c, 0, 86, 0
2, 18210, Note_on_c, 0, 88, 81
2, 18239, Note_on_c, 0, 88, 0
2, 18240, Note_on_c, 0, 85, 81
2, 18299, Note_on_c, 0, 85, 0
2, 18481, Note_on_c, 0, 81, 31
2, 18519, Note_on_c, 0, 81, 0
2, 18520, Note_on_c, 0, 80, 31
2, 18559, Note_on_c, 0, 80, 0
2, 18560, Note_on_c, 0, 83, 31
2, 18599, Note_on_c, 0, 83, 0
2, 18600, Note_on_c, 0, 81, 31
2, 18639, Note_on_c, 0, 81, 0
2, 18640, Note_on_c, 0, 84, 31
2, 18679, Note_on_c, 0, 84, 0
2, 18680, Note_on_c, 0, 83, 31
2, 18719, Note_on_c, 0, 83, 0
2, 18720, Note_on_c, 0, 86, 31
2, 18839, Note_on_c, 0, 86, 0
2, 18840, Note_on_c, 0, 84, 31
2, 19079, Note_on_c, 0, 84, 0
2, 19080, Note_on_c, 0, 83, 31
2, 19259, Note_on_c, 0, 83, 0
2, 19260, Note_on_c, 0, 81, 31
2, 19289, Note_on_c, 0, 81, 0
2, 19290, Note_on_c, 0, 83, 31
2, 19319, Note_on_c, 0, 83, 0
2, 19320, Note_on_c, 0, 86, 31
2, 19349, Note_on_c, 0, 86, 0
2, 19350, Note_on_c, 0, 84, 31
2, 19379, Note_on_c, 0, 84, 0
2, 19380, Note_on_c, 0, 83, 31
2, 19409, Note_on_c, 0, 83, 0
2, 19410, Note_on_c, 0, 81, 31
2, 19439, Note_on_c, 0, 81, 0
2, 19440, Note_on_c, 0, 81, 47
2, 19619, Note_on_c, 0, 81, 0
2, 19620, Note_on_c, 0, 79, 47
2, 19769, Note_on_c, 0, 79, 0
2, 19770, Note_on_c, 0, 78, 47
2, 19799, Note_on_c, 0, 78, 0
2, 19800, Note_on_c, 0, 79, 31
2, 19819, Note_on_c, 0, 79, 0
2, 19820, Note_on_c, 0, 78, 31
2, 19839, Note_on_c, 0, 78, 0
2, 19840, Note_on_c, 0, 76, 31
2, 19859, Note_on_c, 0, 76, 0
2, 19860, Note_on_c, 0, 78, 31
2, 19919, Note_on_c, 0, 78, 0
2, 19920, Note_on_c, 0, 76, 31
2, 19959, Note_on_c, 0, 76, 0
2, 19960, Note_on_c, 0, 82, 31
2, 19999, Note_on_c, 0, 82, 0
2, 20000, Note_on_c, 0, 83, 31
2, 20039, Note_on_c, 0, 83, 0
2, 20040, Note_on_c, 0, 78, 31
2, 20079, Note_on_c, 0, 78, 0
2, 20080, Note_on_c, 0, 79, 31
2, 20119, Note_on_c, 0, 79, 0
2, 20120, Note_on_c, 0, 76, 31
2, 20159, Note_on_c, 0, 76, 0
2, 20160, Note_on_c, 0, 74, 31
2, 20399, Note_on_c, 0, 74, 0
2, 20400, Note_on_c, 0, 73, 19
2, 20519, Note_on_c, 0, 73, 0
2, 20821, Note_on_c, 0, 59, 81
2, 20839, Note_on_c, 0, 59, 0
2, 20840, Note_on_c, 0, 63, 81
2, 20859, Note_on_c, 0, 63, 0
2, 20860, Note_on_c, 0, 66, 81
2, 20879, Note_on_c, 0, 66, 0
2, 20880, Note_on_c, 0, 71, 81
2, 21059, Note_on_c, 0, 71, 0
2, 21060, Note_on_c, 0, 71, 81
2, 21119, Note_on_c, 0, 71, 0
2, 21120, Note_on_c, 0, 71, 81
2, 21239, Note_on_c, 0, 71, 0
2, 21541, Note_on_c, 0, 75, 31
2, 21569, Note_on_c, 0, 75, 0
2, 21601, Note_on_c, 0, 76, 31
2, 21659, Note_on_c, 0, 76, 0
2, 21660, Note_on_c, 0, 79, 31
2, 21719, Note_on_c, 0, 79, 0
2, 21720, Note_on_c, 0, 78, 31
2, 21779, Note_on_c, 0, 78, 0
2, 21780, Note_on_c, 0, 81, 31
2, 21839, Note_on_c, 0, 81, 0
2, 21840, Note_on_c, 0, 79, 19
2, 21959, Note_on_c, 0, 79, 0
2, 22261, Note_on_c, 0, 73, 31
2, 22289, Note_on_c, 0, 73, 0
2, 22321, Note_on_c, 0, 74, 31
2, 22379, Note_on_c, 0, 74, 0
2, 22380, Note_on_c, 0, 78, 31
2, 22439, Note_on_c, 0, 78, 0
2, 22440, Note_on_c, 0, 76, 47
2, 22499, Note_on_c, 0, 76, 0
2, 22500, Note_on_c, 0, 79, 47
2, 22559, Note_on_c, 0, 79, 0
2, 22560, Note_on_c, 0, 78, 47
2, 22619, Note_on_c, 0, 78, 0
2, 22620, Note_on_c, 0, 81, 47
2, 22679, Note_on_c, 0, 81, 0
2, 22680, Note_on_c, 0, 74, 47
2, 22739, Note_on_c, 0, 74, 0
2, 22740, Note_on_c, 0, 86, 63
2, 22799, Note_on_c, 0, 86, 0
2, 22800, Note_on_c, 0, 82, 63
2, 22859, Note_on_c, 0, 82, 0
2, 22860, Note_on_c, 0, 83, 63
2, 22919, Note_on_c, 0, 83, 0
2, 22920, Note_on_c, 0, 71, 63
2, 22979, Note_on_c, 0, 71, 0
2, 22980, Note_on_c, 0, 76, 63
2, 23039, Note_on_c, 0, 76, 0
2, 23040, Note_on_c, 0, 74, 63
2, 23299, Note_on_c, 0, 74, 0
2, 23300, Note_on_c, 0, 73, 31
2, 23319, Note_on_c, 0, 73, 0
2, 23320, Note_on_c, 0, 74, 31
2, 23339, Note_on_c, 0, 74, 0
2, 23340, Note_on_c, 0, 73, 31
2, 23369, Note_on_c, 0, 73, 0
2, 23701, Note_on_c, 0, 69, 63
2, 23729, Note_on_c, 0, 69, 0
2, 23761, Note_on_c, 0, 74, 63
2, 23939, Note_on_c, 0, 74, 0
2, 23940, Note_on_c, 0, 74, 63
2, 23999, Note_on_c, 0, 74, 0
2, 24000, Note_on_c, 0, 74, 63
2, 24029, Note_on_c, 0, 74, 0
2, 24061, Note_on_c, 0, 76, 63
2, 24089, Note_on_c, 0, 76, 0
2, 24121, Note_on_c, 0, 78, 63
2, 24149, Note_on_c, 0, 78, 0
2, 24181, Note_on_c, 0, 79, 63
2, 24209, Note_on_c, 0, 79, 0
2, 24241, Note_on_c, 0, 81, 63
2, 24269, Note_on_c, 0, 81, 0
2, 24301, Note_on_c, 0, 83, 63
2, 24329, Note_on_c, 0, 83, 0
2, 24361, Note_on_c, 0, 85, 63
2, 24389, Note_on_c, 0, 85, 0
2, 24421, Note_on_c, 0, 86, 63
2, 24449, Note_on_c, 0, 86, 0
2, 24481, Note_on_c, 0, 76, 63
2, 24659, Note_on_c, 0, 76, 0
2, 24660, Note_on_c, 0, 73, 47
2, 24719, Note_on_c, 0, 73, 0
2, 24720, Note_on_c, 0, 74, 47
2, 24839, Note_on_c, 0, 74, 0
2, 24961, Note_on_c, 0, 62, 31
2, 24979, Note_on_c, 0, 62, 0
2, 24980, Note_on_c, 0, 64, 31
2, 24999, Note_on_c, 0, 64, 0
2, 25000, Note_on_c, 0, 66, 31
2, 25019, Note_on_c, 0, 66, 0
2, 25020, Note_on_c, 0, 67, 31
2, 25039, Note_on_c, 0, 67, 0
2, 25040, Note_on_c, 0, 69, 31
2, 25059, Note_on_c, 0, 69, 0
2, 25060, Note_on_c, 0, 71, 31
2, 25079, Note_on_c, 0, 71, 0
2, 25080, Note_on_c, 0, 73, 31
2, 25099, Note_on_c, 0, 73, 0
2, 25100, Note_on_c, 0, 74, 31
2, 25119, Note_on_c, 0, 74, 0
2, 25120, Note_on_c, 0, 76, 31
2, 25139, Note_on_c, 0, 76, 0
2, 25140, Note_on_c, 0, 78, 47
2, 25159, Note_on_c, 0, 78, 0
2, 25160, Note_on_c, 0, 79, 47
2, 25179, Note_on_c, 0, 79, 0
2, 25180, Note_on_c, 0, 81, 47
2, 25199, Note_on_c, 0, 81, 0
2, 25200, Note_on_c, 0, 81, 63
2, 25319, Note_on_c, 0, 81, 0
2, 25320, Note_on_c, 0, 79, 63
2, 25349, Note_on_c, 0, 79, 0
2, 25411, Note_on_c, 0, 78, 63
2, 25439, Note_on_c, 0, 78, 0
2, 25440, Note_on_c, 0, 78, 63
2, 25559, Note_on_c, 0, 78, 0
2, 25560, Note_on_c, 0, 76, 63
2, 25589, Note_on_c, 0, 76, 0
2, 25651, Note_on_c, 0, 74, 63
2, 25679, Note_on_c, 0, 74, 0
2, 25680, Note_on_c, 0, 74, 63
2, 25799, Note_on_c, 0, 74, 0
2, 25800, Note_on_c, 0, 73, 63
2, 25829, Note_on_c, 0, 73, 0
2, 25891, Note_on_c, 0, 74, 63
2, 25919, Note_on_c, 0, 74, 0
2, 25920, Note_on_c, 0, 78, 31
2, 26009, Note_on_c, 0, 78, 0
2, 26010, Note_on_c, 0, 79, 31
2, 26039, Note_on_c, 0, 79, 0
2, 26040, Note_on_c, 0, 80, 31
2, 26129, Note_on_c, 0, 80, 0
2, 26130, Note_on_c, 0, 81, 31
2, 26159, Note_on_c, 0, 81, 0
2, 26160, Note_on_c, 0, 76, 31
2, 26219, Note_on_c, 0, 76, 0
2, 26581, Note_on_c, 0, 74, 63
2, 26599, Note_on_c, 0, 74, 0
2, 26600, Note_on_c, 0, 78, 63
2, 26619, Note_on_c, 0, 78, 0
2, 26620, Note_on_c, 0, 81, 63
2, 26639, Note_on_c, 0, 81, 0
2, 26640, Note_on_c, 0, 86, 81
2, 26699, Note_on_c, 0, 86, 0
2, 26700, Note_on_c, 0, 88, 81
2, 26719, Note_on_c, 0, 88, 0
2, 26720, Note_on_c, 0, 86, 81
2, 26739, Note_on_c, 0, 86, 0
2, 26740, Note_on_c, 0, 85, 81
2, 26759, Note_on_c, 0, 85, 0
2, 26760, Note_on_c, 0, 86, 81
2, 26849, Note_on_c, 0, 86, 0
2, 26850, Note_on_c, 0, 88, 81
2, 26879, Note_on_c, 0, 88, 0
2, 26880, Note_on_c, 0, 85, 81
2, 26939, Note_on_c, 0, 85, 0
2, 27121, Note_on_c, 0, 69, 81
2, 27149, Note_on_c, 0, 69, 0
2, 27150, Note_on_c, 0, 73, 81
2, 27179, Note_on_c, 0, 73, 0
2, 27180, Note_on_c, 0, 71, 81
2, 27209, Note_on_c, 0, 71, 0
2, 27210, Note_on_c, 0, 74, 81
2, 27239, Note_on_c, 0, 74, 0
2, 27240, Note_on_c, 0, 73, 81
2, 27269, Note_on_c, 0, 73, 0
2, 27270, Note_on_c, 0, 76, 81
2, 27299, Note_on_c, 0, 76, 0
2, 27300, Note_on_c, 0, 74, 81
2, 27329, Note_on_c, 0, 74, 0
2, 27330, Note_on_c, 0, 78, 81
2, 27359, Note_on_c, 0, 78, 0
2, 27360, Note_on_c, 0, 76, 105
2, 27389, Note_on_c, 0, 76, 0
2, 27390, Note_on_c, 0, 79, 105
2, 27419, Note_on_c, 0, 79, 0
2, 27420, Note_on_c, 0, 78, 105
2, 27449, Note_on_c, 0, 78, 0
2, 27450, Note_on_c, 0, 81, 105
2, 27479, Note_on_c, 0, 81, 0
2, 27480, Note_on_c, 0, 79, 105
2, 27509, Note_on_c, 0, 79, 0
2, 27510, Note_on_c, 0, 83, 105
2, 27539, Note_on_c, 0, 83, 0
2, 27540, Note_on_c, 0, 81, 105
2, 27569, Note_on_c, 0, 81, 0
2, 27570, Note_on_c, 0, 79, 105
2, 27599, Note_on_c, 0, 79, 0
2, 27600, Note_on_c, 0, 78, 105
2, 27629, Note_on_c, 0, 78, 0
2, 27630, Note_on_c, 0, 81, 105
2, 27659, Note_on_c, 0, 81, 0
2, 27660, Note_on_c, 0, 79, 105
2, 27689, Note_on_c, 0, 79, 0
2, 27690, Note_on_c, 0, 83, 105
2, 27719, Note_on_c, 0, 83, 0
2, 27720, Note_on_c, 0, 81, 105
2, 27749, Note_on_c, 0, 81, 0
2, 27750, Note_on_c, 0, 84, 105
2, 27779, Note_on_c, 0, 84, 0
2, 27780, Note_on_c, 0, 83, 105
2, 27809, Note_on_c, 0, 83, 0
2, 27810, Note_on_c, 0, 81, 105
2, 27839, Note_on_c, 0, 81, 0
2, 27840, Note_on_c, 0, 79, 105
2, 27869, Note_on_c, 0, 79, 0
2, 27870, Note_on_c, 0, 83, 105
2, 27899, Note_on_c, 0, 83, 0
2, 27900, Note_on_c, 0, 81, 105
2, 27929, Note_on_c, 0, 81, 0
2, 27930, Note_on_c, 0, 79, 105
2, 27959, Note_on_c, 0, 79, 0
2, 27960, Note_on_c, 0, 78, 81
2, 27989, Note_on_c, 0, 78, 0
2, 27990, Note_on_c, 0, 76, 81
2, 28019, Note_on_c, 0, 76, 0
2, 28020, Note_on_c, 0, 75, 81
2, 28049, Note_on_c, 0, 75, 0
2, 28050, Note_on_c, 0, 76, 81
2, 28079, Note_on_c, 0, 76, 0
2, 28111, Note_on_c, 0, 69, 63
2, 28139, Note_on_c, 0, 69, 0
2, 28140, Note_on_c, 0, 71, 63
2, 28169, Note_on_c, 0, 71, 0
2, 28170, Note_on_c, 0, 73, 63
2, 28199, Note_on_c, 0, 73, 0
2, 28200, Note_on_c, 0, 74, 63
2, 28229, Note_on_c, 0, 74, 0
2, 28230, Note_on_c, 0, 75, 63
2, 28259, Note_on_c, 0, 75, 0
2, 28260, Note_on_c, 0, 76, 63
2, 28289, Note_on_c, 0, 76, 0
2, 28290, Note_on_c, 0, 77, 81
2, 28319, Note_on_c, 0, 77, 0
2, 28320, Note_on_c, 0, 78, 81
2, 28349, Note_on_c, 0, 78, 0
2, 28350, Note_on_c, 0, 79, 81
2, 28379, Note_on_c, 0, 79, 0
2, 28380, Note_on_c, 0, 80, 81
2, 28409, Note_on_c, 0, 80, 0
2, 28410, Note_on_c, 0, 81, 81
2, 28439, Note_on_c, 0, 81, 0
2, 28440, Note_on_c, 0, 79, 81
2, 28469, Note_on_c, 0, 79, 0
2, 28470, Note_on_c, 0, 78, 81
2, 28499, Note_on_c, 0, 78, 0
2, 28500, Note_on_c, 0, 76, 63
2, 28529, Note_on_c, 0, 76, 0
2, 28530, Note_on_c, 0, 74, 63
2, 28559, Note_on_c, 0, 74, 0
2, 28560, Note_on_c, 0, 73, 47
2, 28619, Note_on_c, 0, 73, 0
2, 28681, Note_on_c, 0, 76, 31
2, 28739, Note_on_c, 0, 76, 0
2, 28801, Note_on_c, 0, 76, 31
2, 29039, Note_on_c, 0, 76, 0
2, 29040, Note_on_c, 0, 74, 19
2, 29159, Note_on_c, 0, 74, 0
2, 29461, Note_on_c, 0, 69, 81
2, 29519, Note_on_c, 0, 69, 0
2, 29520, Note_on_c, 0, 74, 81
2, 29699, Note_on_c, 0, 74, 0
2, 29700, Note_on_c, 0, 74, 81
2, 29759, Note_on_c, 0, 74, 0
2, 29760, Note_on_c, 0, 74, 81
2, 29879, Note_on_c, 0, 74, 0
2, 30181, Note_on_c, 0, 74, 81
2, 30239, Note_on_c, 0, 74, 0
2, 30240, Note_on_c, 0, 76, 81
2, 30419, Note_on_c, 0, 76, 0
2, 30420, Note_on_c, 0, 76, 81
2, 30479, Note_on_c, 0, 76, 0
2, 30480, Note_on_c, 0, 76, 81
2, 30719, Note_on_c, 0, 76, 0
2, 30720, Note_on_c, 0, 76, 81
2, 30779, Note_on_c, 0, 76, 0
2, 30841, Note_on_c, 0, 79, 81
2, 30899, Note_on_c, 0, 79, 0
2, 30961, Note_on_c, 0, 77, 81
2, 31199, Note_on_c, 0, 77, 0
2, 31200, Note_on_c, 0, 82, 81
2, 31439, Note_on_c, 0, 82, 0
2, 31440, Note_on_c, 0, 82, 81
2, 31679, Note_on_c, 0, 82, 0
2, 31680, Note_on_c, 0, 81, 81
2, 31719, Note_on_c, 0, 81, 0
2, 31720, Note_on_c, 0, 84, 81
2, 31759, Note_on_c, 0, 84, 0
2, 31760, Note_on_c, 0, 82, 81
2, 31799, Note_on_c, 0, 82, 0
2, 31800, Note_on_c, 0, 81, 81
2, 31839, Note_on_c, 0, 81, 0
2, 31840, Note_on_c, 0, 79, 81
2, 31879, Note_on_c, 0, 79, 0
2, 31880, Note_on_c, 0, 77, 81
2, 31919, Note_on_c, 0, 77, 0
2, 31920, Note_on_c, 0, 76, 81
2, 31959, Note_on_c, 0, 76, 0
2, 31960, Note_on_c, 0, 82, 81
2, 31999, Note_on_c, 0, 82, 0
2, 32000, Note_on_c, 0, 81, 81
2, 32039, Note_on_c, 0, 81, 0
2, 32040, Note_on_c, 0, 79, 81
2, 32079, Note_on_c, 0, 79, 0
2, 32080, Note_on_c, 0, 77, 81
2, 32119, Note_on_c, 0, 77, 0
2, 32120, Note_on_c, 0, 76, 81
2, 32159, Note_on_c, 0, 76, 0
2, 32160, Note_on_c, 0, 77, 81
2, 32199, Note_on_c, 0, 77, 0
2, 32200, Note_on_c, 0, 79, 81
2, 32239, Note_on_c, 0, 79, 0
2, 32240, Note_on_c, 0, 77, 81
2, 32279, Note_on_c, 0, 77, 0
2, 32280, Note_on_c, 0, 75, 81
2, 32319, Note_on_c, 0, 75, 0
2, 32320, Note_on_c, 0, 74, 81
2, 32359, Note_on_c, 0, 74, 0
2, 32360, Note_on_c, 0, 73, 81
2, 32399, Note_on_c, 0, 73, 0
2, 32400, Note_on_c, 0, 74, 81
2, 32439, Note_on_c, 0, 74, 0
2, 32440, Note_on_c, 0, 85, 81
2, 32479, Note_on_c, 0, 85, 0
2, 32480, Note_on_c, 0, 86, 81
2, 32519, Note_on_c, 0, 86, 0
2, 32520, Note_on_c, 0, 81, 81
2, 32559, Note_on_c, 0, 81, 0
2, 32560, Note_on_c, 0, 82, 81
2, 32599, Note_on_c, 0, 82, 0
2, 32600, Note_on_c, 0, 79, 81
2, 32639, Note_on_c, 0, 79, 0
2, 32640, Note_on_c, 0, 77, 81
2, 32679, Note_on_c, 0, 77, 0
2, 32680, Note_on_c, 0, 84, 81
2, 32719, Note_on_c, 0, 84, 0
2, 32720, Note_on_c, 0, 84, 81
2, 32739, Note_on_c, 0, 84, 0
2, 32761, Note_on_c, 0, 84, 81
2, 32799, Note_on_c, 0, 84, 0
2, 32800, Note_on_c, 0, 81, 81
2, 32839, Note_on_c, 0, 81, 0
2, 32840, Note_on_c, 0, 77, 81
2, 32879, Note_on_c, 0, 77, 0
2, 32880, Note_on_c, 0, 81, 81
2, 32899, Note_on_c, 0, 81, 0
2, 32900, Note_on_c, 0, 79, 81
2, 32919, Note_on_c, 0, 79, 0
2, 32920, Note_on_c, 0, 81, 81
2, 32939, Note_on_c, 0, 81, 0
2, 32940, Note_on_c, 0, 79, 81
2, 32959, Note_on_c, 0, 79, 0
2, 32960, Note_on_c, 0, 81, 81
2, 32979, Note_on_c, 0, 81, 0
2, 32980, Note_on_c, 0, 79, 81
2, 32999, Note_on_c, 0, 79, 0
2, 33000, Note_on_c, 0, 77, 81
2, 33059, Note_on_c, 0, 77, 0
2, 33060, Note_on_c, 0, 79, 81
2, 33119, Note_on_c, 0, 79, 0
2, 33120, Note_on_c, 0, 89, 81
2, 33159, Note_on_c, 0, 89, 0
2, 33160, Note_on_c, 0, 81, 81
2, 33199, Note_on_c, 0, 81, 0
2, 33200, Note_on_c, 0, 82, 81
2, 33239, Note_on_c, 0, 82, 0
2, 33240, Note_on_c, 0, 88, 81
2, 33279, Note_on_c, 0, 88, 0
2, 33280, Note_on_c, 0, 80, 81
2, 33319, Note_on_c, 0, 80, 0
2, 33320, Note_on_c, 0, 81, 81
2, 33359, Note_on_c, 0, 81, 0
2, 33360, Note_on_c, 0, 86, 81
2, 33399, Note_on_c, 0, 86, 0
2, 33400, Note_on_c, 0, 78, 81
2, 33439, Note_on_c, 0, 78, 0
2, 33440, Note_on_c, 0, 79, 81
2, 33479, Note_on_c, 0, 79, 0
2, 33480, Note_on_c, 0, 84, 81
2, 33519, Note_on_c, 0, 84, 0
2, 33520, Note_on_c, 0, 76, 81
2, 33559, Note_on_c, 0, 76, 0
2, 33560, Note_on_c, 0, 77, 81
2, 33599, Note_on_c, 0, 77, 0
2, 33600, Note_on_c, 0, 82, 63
2, 33639, Note_on_c, 0, 82, 0
2, 33640, Note_on_c, 0, 79, 63
2, 33679, Note_on_c, 0, 79, 0
2, 33680, Note_on_c, 0, 76, 63
2, 33719, Note_on_c, 0, 76, 0
2, 33720, Note_on_c, 0, 72, 63
2, 33759, Note_on_c, 0, 72, 0
2, 33760, Note_on_c, 0, 74, 63
2, 33799, Note_on_c, 0, 74, 0
2, 33800, Note_on_c, 0, 70, 63
2, 33839, Note_on_c, 0, 70, 0
2, 33840, Note_on_c, 0, 69, 47
2, 33879, Note_on_c, 0, 69, 0
2, 33880, Note_on_c, 0, 77, 47
2, 33919, Note_on_c, 0, 77, 0
2, 33920, Note_on_c, 0, 73, 47
2, 33959, Note_on_c, 0, 73, 0
2, 33960, Note_on_c, 0, 74, 47
2, 33999, Note_on_c, 0, 74, 0
2, 34000, Note_on_c, 0, 70, 47
2, 34039, Note_on_c, 0, 70, 0
2, 34040, Note_on_c, 0, 67, 47
2, 34079, Note_on_c, 0, 67, 0
2, 34080, Note_on_c, 0, 65, 47
2, 34119, Note_on_c, 0, 65, 0
2, 34120, Note_on_c, 0, 72, 47
2, 34159, Note_on_c, 0, 72, 0
2, 34160, Note_on_c, 0, 72, 47
2, 34179, Note_on_c, 0, 72, 0
2, 34201, Note_on_c, 0, 72, 47
2, 34239, Note_on_c, 0, 72, 0
2, 34240, Note_on_c, 0, 69, 47
2, 34279, Note_on_c, 0, 69, 0
2, 34280, Note_on_c, 0, 65, 47
2, 34319, Note_on_c, 0, 65, 0
2, 34320, Note_on_c, 0, 69, 47
2, 34339, Note_on_c, 0, 69, 0
2, 34340, Note_on_c, 0, 67, 47
2, 34359, Note_on_c, 0, 67, 0
2, 34360, Note_on_c, 0, 69, 47
2, 34379, Note_on_c, 0, 69, 0
2, 34380, Note_on_c, 0, 67, 47
2, 34399, Note_on_c, 0, 67, 0
2, 34400, Note_on_c, 0, 69, 47
2, 34419, Note_on_c, 0, 69, 0
2, 34420, Note_on_c, 0, 67, 47
2, 34439, Note_on_c, 0, 67, 0
2, 34440, Note_on_c, 0, 65, 47
2, 34499, Note_on_c, 0, 65, 0
2, 34500, Note_on_c, 0, 67, 47
2, 34559, Note_on_c, 0, 67, 0
2, 34560, Note_on_c, 0, 65, 34
2, 34799, Note_on_c, 0, 65, 0
2, 35461, Note_on_c, 0, 65, 81
2, 35519, Note_on_c, 0, 65, 0
2, 35520, Note_on_c, 0, 81, 81
2, 35699, Note_on_c, 0, 81, 0
2, 35700, Note_on_c, 0, 81, 81
2, 35759, Note_on_c, 0, 81, 0
2, 35760, Note_on_c, 0, 81, 81
2, 35999, Note_on_c, 0, 81, 0
2, 36181, Note_on_c, 0, 72, 81
2, 36239, Note_on_c, 0, 72, 0
2, 36240, Note_on_c, 0, 87, 81
2, 36419, Note_on_c, 0, 87, 0
2, 36420, Note_on_c, 0, 87, 81
2, 36479, Note_on_c, 0, 87, 0
2, 36480, Note_on_c, 0, 87, 81
2, 36659, Note_on_c, 0, 87, 0
2, 36660, Note_on_c, 0, 86, 31
2, 36689, Note_on_c, 0, 86, 0
2, 36690, Note_on_c, 0, 84, 31
2, 36719, Note_on_c, 0, 84, 0
2, 36720, Note_on_c, 0, 82, 31
2, 36759, Note_on_c, 0, 82, 0
2, 36760, Note_on_c, 0, 84, 31
2, 36799, Note_on_c, 0, 84, 0
2, 36800, Note_on_c, 0, 82, 31
2, 36839, Note_on_c, 0, 82, 0
2, 36840, Note_on_c, 0, 81, 31
2, 36879, Note_on_c, 0, 81, 0
2, 36880, Note_on_c, 0, 82, 31
2, 36919, Note_on_c, 0, 82, 0
2, 36920, Note_on_c, 0, 81, 31
2, 36959, Note_on_c, 0, 81, 0
2, 36960, Note_on_c, 0, 79, 31
2, 36999, Note_on_c, 0, 79, 0
2, 37000, Note_on_c, 0, 81, 31
2, 37039, Note_on_c, 0, 81, 0
2, 37040, Note_on_c, 0, 79, 31
2, 37079, Note_on_c, 0, 79, 0
2, 37080, Note_on_c, 0, 77, 31
2, 37119, Note_on_c, 0, 77, 0
2, 37120, Note_on_c, 0, 79, 31
2, 37159, Note_on_c, 0, 79, 0
2, 37160, Note_on_c, 0, 77, 31
2, 37199, Note_on_c, 0, 77, 0
2, 37200, Note_on_c, 0, 76, 31
2, 37239, Note_on_c, 0, 76, 0
2, 37240, Note_on_c, 0, 77, 31
2, 37279, Note_on_c, 0, 77, 0
2, 37280, Note_on_c, 0, 76, 31
2, 37319, Note_on_c, 0, 76, 0
2, 37320, Note_on_c, 0, 77, 31
2, 37359, Note_on_c, 0, 77, 0
2, 37360, Note_on_c, 0, 76, 31
2, 37399, Note_on_c, 0, 76, 0
2, 37400, Note_on_c, 0, 74, 31
2, 37439, Note_on_c, 0, 74, 0
2, 37440, Note_on_c, 0, 74, 47
2, 37679, Note_on_c, 0, 74, 0
2, 37680, Note_on_c, 0, 73, 47
2, 37719, Note_on_c, 0, 73, 0
2, 37720, Note_on_c, 0, 74, 47
2, 37759, Note_on_c, 0, 74, 0
2, 37760, Note_on_c, 0, 76, 47
2, 37799, Note_on_c, 0, 76, 0
2, 37800, Note_on_c, 0, 74, 47
2, 37839, Note_on_c, 0, 74, 0
2, 37840, Note_on_c, 0, 73, 47
2, 37879, Note_on_c, 0, 73, 0
2, 37880, Note_on_c, 0, 70, 47
2, 37919, Note_on_c, 0, 70, 0
2, 37920, Note_on_c, 0, 69, 63
2, 37959, Note_on_c, 0, 69, 0
2, 37960, Note_on_c, 0, 70, 63
2, 37999, Note_on_c, 0, 70, 0
2, 38000, Note_on_c, 0, 69, 63
2, 38039, Note_on_c, 0, 69, 0
2, 38040, Note_on_c, 0, 67, 63
2, 38079, Note_on_c, 0, 67, 0
2, 38080, Note_on_c, 0, 65, 63
2, 38119, Note_on_c, 0, 65, 0
2, 38120, Note_on_c, 0, 64, 63
2, 38159, Note_on_c, 0, 64, 0
2, 38201, Note_on_c, 0, 81, 81
2, 38219, Note_on_c, 0, 81, 0
2, 38241, Note_on_c, 0, 81, 81
2, 38259, Note_on_c, 0, 81, 0
2, 38281, Note_on_c, 0, 81, 81
2, 38319, Note_on_c, 0, 81, 0
2, 38320, Note_on_c, 0, 79, 81
2, 38359, Note_on_c, 0, 79, 0
2, 38360, Note_on_c, 0, 77, 81
2, 38399, Note_on_c, 0, 77, 0
2, 38441, Note_on_c, 0, 85, 81
2, 38459, Note_on_c, 0, 85, 0
2, 38481, Note_on_c, 0, 85, 81
2, 38499, Note_on_c, 0, 85, 0
2, 38521, Note_on_c, 0, 85, 81
2, 38559, Note_on_c, 0, 85, 0
2, 38560, Note_on_c, 0, 86, 81
2, 38599, Note_on_c, 0, 86, 0
2, 38600, Note_on_c, 0, 88, 81
2, 38639, Note_on_c, 0, 88, 0
2, 38681, Note_on_c, 0, 86, 81
2, 38699, Note_on_c, 0, 86, 0
2, 38721, Note_on_c, 0, 86, 81
2, 38739, Note_on_c, 0, 86, 0
2, 38801, Note_on_c, 0, 84, 81
2, 38819, Note_on_c, 0, 84, 0
2, 38841, Note_on_c, 0, 84, 81
2, 38859, Note_on_c, 0, 84, 0
2, 38921, Note_on_c, 0, 82, 81
2, 38939, Note_on_c, 0, 82, 0
2, 38961, Note_on_c, 0, 82, 81
2, 38979, Note_on_c, 0, 82, 0
2, 39041, Note_on_c, 0, 79, 81
2, 39059, Note_on_c, 0, 79, 0
2, 39081, Note_on_c, 0, 79, 81
2, 39099, Note_on_c, 0, 79, 0
2, 39241, Note_on_c, 0, 69, 81
2, 39259, Note_on_c, 0, 69, 0
2, 39281, Note_on_c, 0, 74, 81
2, 39299, Note_on_c, 0, 74, 0
2, 39321, Note_on_c, 0, 77, 81
2, 39339, Note_on_c, 0, 77, 0
2, 39361, Note_on_c, 0, 81, 81
2, 39479, Note_on_c, 0, 81, 0
2, 39721, Note_on_c, 0, 67, 31
2, 39759, Note_on_c, 0, 67, 0
2, 39760, Note_on_c, 0, 73, 31
2, 39799, Note_on_c, 0, 73, 0
2, 39800, Note_on_c, 0, 76, 31
2, 39839, Note_on_c, 0, 76, 0
2, 39840, Note_on_c, 0, 79, 31
2, 40079, Note_on_c, 0, 79, 0
2, 40361, Note_on_c, 0, 88, 31
2, 40399, Note_on_c, 0, 88, 0
2, 40400, Note_on_c, 0, 89, 105
2, 40439, Note_on_c, 0, 89, 0
2, 40440, Note_on_c, 0, 85, 105
2, 40479, Note_on_c, 0, 85, 0
2, 40480, Note_on_c, 0, 86, 105
2, 40519, Note_on_c, 0, 86, 0
2, 40520, Note_on_c, 0, 81, 105
2, 40559, Note_on_c, 0, 81, 0
2, 40560, Note_on_c, 0, 82, 105
2, 40599, Note_on_c, 0, 82, 0
2, 40600, Note_on_c, 0, 80, 105
2, 40639, Note_on_c, 0, 80, 0
2, 40640, Note_on_c, 0, 81, 105
2, 40679, Note_on_c, 0, 81, 0
2, 40680, Note_on_c, 0, 76, 105
2, 40719, Note_on_c, 0, 76, 0
2, 40720, Note_on_c, 0, 77, 105
2, 40759, Note_on_c, 0, 77, 0
2, 40760, Note_on_c, 0, 73, 105
2, 40799, Note_on_c, 0, 73, 0
2, 40800, Note_on_c, 0, 74, 105
2, 40839, Note_on_c, 0, 74, 0
2, 40840, Note_on_c, 0, 77, 105
2, 40879, Note_on_c, 0, 77, 0
2, 40880, Note_on_c, 0, 69, 105
2, 40919, Note_on_c, 0, 69, 0
2, 40920, Note_on_c, 0, 70, 105
2, 40959, Note_on_c, 0, 70, 0
2, 40960, Note_on_c, 0, 74, 105
2, 40999, Note_on_c, 0, 74, 0
2, 41000, Note_on_c, 0, 68, 105
2, 41039, Note_on_c, 0, 68, 0
2, 41040, Note_on_c, 0, 69, 105
2, 41079, Note_on_c, 0, 69, 0
2, 41080, Note_on_c, 0, 70, 105
2, 41119, Note_on_c, 0, 70, 0
2, 41120, Note_on_c, 0, 71, 105
2, 41159, Note_on_c, 0, 71, 0
2, 41160, Note_on_c, 0, 72, 81
2, 41199, Note_on_c, 0, 72, 0
2, 41200, Note_on_c, 0, 73, 81
2, 41239, Note_on_c, 0, 73, 0
2, 41240, Note_on_c, 0, 74, 81
2, 41279, Note_on_c, 0, 74, 0
2, 41280, Note_on_c, 0, 75, 63
2, 41319, Note_on_c, 0, 75, 0
2, 41320, Note_on_c, 0, 76, 63
2, 41359, Note_on_c, 0, 76, 0
2, 41360, Note_on_c, 0, 77, 63
2, 41399, Note_on_c, 0, 77, 0
2, 41400, Note_on_c, 0, 78, 47
2, 41439, Note_on_c, 0, 78, 0
2, 41440, Note_on_c, 0, 79, 47
2, 41479, Note_on_c, 0, 79, 0
2, 41480, Note_on_c, 0, 80, 47
2, 41519, Note_on_c, 0, 80, 0
2, 41520, Note_on_c, 0, 81, 47
2, 41579, Note_on_c, 0, 81, 0
2, 41641, Note_on_c, 0, 73, 31
2, 41699, Note_on_c, 0, 73, 0
2, 41761, Note_on_c, 0, 73, 31
2, 41999, Note_on_c, 0, 73, 0
2, 42000, Note_on_c, 0, 74, 19
2, 42119, Note_on_c, 0, 74, 0
2, 42421, Note_on_c, 0, 62, 81
2, 42479, Note_on_c, 0, 62, 0
2, 42480, Note_on_c, 0, 65, 81
2, 42659, Note_on_c, 0, 65, 0
2, 42660, Note_on_c, 0, 65, 81
2, 42719, Note_on_c, 0, 65, 0
2, 42720, Note_on_c, 0, 65, 81
2, 42959, Note_on_c, 0, 65, 0
2, 43141, Note_on_c, 0, 65, 81
2, 43199, Note_on_c, 0, 65, 0
2, 43200, Note_on_c, 0, 68, 81
2, 43379, Note_on_c, 0, 68, 0
2, 43380, Note_on_c, 0, 68, 81
2, 43439, Note_on_c, 0, 68, 0
2, 43440, Note_on_c, 0, 68, 81
2, 43679, Note_on_c, 0, 68, 0
2, 43861, Note_on_c, 0, 68, 81
2, 43919, Note_on_c, 0, 68, 0
2, 43920, Note_on_c, 0, 69, 81
2, 44099, Note_on_c, 0, 69, 0
2, 44100, Note_on_c, 0, 69, 63
2, 44159, Note_on_c, 0, 69, 0
2, 44160, Note_on_c, 0, 71, 63
2, 44339, Note_on_c, 0, 71, 0
2, 44340, Note_on_c, 0, 71, 47
2, 44399, Note_on_c, 0, 71, 0
2, 44400, Note_on_c, 0, 73, 47
2, 44579, Note_on_c, 0, 73, 0
2, 44580, Note_on_c, 0, 69, 31
2, 44639, Note_on_c, 0, 69, 0
2, 44640, Note_on_c, 0, 74, 31
2, 44819, Note_on_c, 0, 74, 0
2, 44820, Note_on_c, 0, 74, 31
2, 44879, Note_on_c, 0, 74, 0
2, 44880, Note_on_c, 0, 74, 31
2, 44999, Note_on_c, 0, 74, 0
2, 45301, Note_on_c, 0, 69, 31
2, 45319, Note_on_c, 0, 69, 0
2, 45320, Note_on_c, 0, 74, 31
2, 45339, Note_on_c, 0, 74, 0
2, 45340, Note_on_c, 0, 78, 31
2, 45359, Note_on_c, 0, 78, 0
2, 45360, Note_on_c, 0, 76, 31
2, 45539, Note_on_c, 0, 76, 0
2, 45540, Note_on_c, 0, 73, 31
2, 45599, Note_on_c, 0, 73, 0
2, 45600, Note_on_c, 0, 74, 31
2, 45659, Note_on_c, 0, 74, 0
2, 45961, Note_on_c, 0, 69, 47
2, 45989, Note_on_c, 0, 69, 0
2, 45990, Note_on_c, 0, 74, 47
2, 46019, Note_on_c, 0, 74, 0
2, 46020, Note_on_c, 0, 78, 47
2, 46049, Note_on_c, 0, 78, 0
2, 46050, Note_on_c, 0, 81, 47
2, 46079, Note_on_c, 0, 81, 0
2, 46080, Note_on_c, 0, 81, 47
2, 46199, Note_on_c, 0, 81, 0
2, 46200, Note_on_c, 0, 79, 47
2, 46229, Note_on_c, 0, 79, 0
2, 46291, Note_on_c, 0, 78, 47
2, 46319, Note_on_c, 0, 78, 0
2, 46320, Note_on_c, 0, 78, 47
2, 46439, Note_on_c, 0, 78, 0
2, 46440, Note_on_c, 0, 76, 47
2, 46469, Note_on_c, 0, 76, 0
2, 46531, Note_on_c, 0, 74, 31
2, 46559, Note_on_c, 0, 74, 0
2, 46560, Note_on_c, 0, 74, 31
2, 46679, Note_on_c, 0, 74, 0
2, 46680, Note_on_c, 0, 73, 31
2, 46709, Note_on_c, 0, 73, 0
2, 46771, Note_on_c, 0, 74, 31
2, 46799, Note_on_c, 0, 74, 0
2, 46800, Note_on_c, 0, 78, 31
2, 47039, Note_on_c, 0, 78, 0
2, 47040, Note_on_c, 0, 76, 19
2, 47159, Note_on_c, 0, 76, 0
2, 47461, Note_on_c, 0, 74, 63
2, 47479, Note_on_c, 0, 74, 0
2, 47480, Note_on_c, 0, 78, 63
2, 47499, Note_on_c, 0, 78, 0
2, 47500, Note_on_c, 0, 81, 63
2, 47519, Note_on_c, 0, 81, 0
2, 47520, Note_on_c, 0, 86, 81
2, 47579, Note_on_c, 0, 86, 0
2, 47580, Note_on_c, 0, 88, 81
2, 47599, Note_on_c, 0, 88, 0
2, 47600, Note_on_c, 0, 86, 81
2, 47619, Note_on_c, 0, 86, 0
2, 47620, Note_on_c, 0, 85, 81
2, 47639, Note_on_c, 0, 85, 0
2, 47640, Note_on_c, 0, 86, 81
2, 47729, Note_on_c, 0, 86, 0
2, 47730, Note_on_c, 0, 88, 81
2, 47759, Note_on_c, 0, 88, 0
2, 47760, Note_on_c, 0, 85, 81
2, 47819, Note_on_c, 0, 85, 0
2, 48001, Note_on_c, 0, 81, 81
2, 48059, Note_on_c, 0, 81, 0
2, 48060, Note_on_c, 0, 83, 81
2, 48079, Note_on_c, 0, 83, 0
2, 48080, Note_on_c, 0, 81, 81
2, 48099, Note_on_c, 0, 81, 0
2, 48100, Note_on_c, 0, 80, 81
2, 48119, Note_on_c, 0, 80, 0
2, 48120, Note_on_c, 0, 81, 81
2, 48209, Note_on_c, 0, 81, 0
2, 48210, Note_on_c, 0, 83, 81
2, 48239, Note_on_c, 0, 83, 0
2, 48240, Note_on_c, 0, 86, 81
2, 48299, Note_on_c, 0, 86, 0
2, 48300, Note_on_c, 0, 84, 81
2, 48359, Note_on_c, 0, 84, 0
2, 48360, Note_on_c, 0, 84, 81
2, 48449, Note_on_c, 0, 84, 0
2, 48450, Note_on_c, 0, 83, 81
2, 48479, Note_on_c, 0, 83, 0
2, 48480, Note_on_c, 0, 83, 81
2, 48779, Note_on_c, 0, 83, 0
2, 48780, Note_on_c, 0, 81, 31
2, 48839, Note_on_c, 0, 81, 0
2, 48840, Note_on_c, 0, 84, 31
2, 48899, Note_on_c, 0, 84, 0
2, 48900, Note_on_c, 0, 81, 31
2, 48959, Note_on_c, 0, 81, 0
2, 48960, Note_on_c, 0, 81, 31
2, 49019, Note_on_c, 0, 81, 0
2, 49020, Note_on_c, 0, 79, 31
2, 49079, Note_on_c, 0, 79, 0
2, 49080, Note_on_c, 0, 83, 31
2, 49139, Note_on_c, 0, 83, 0
2, 49140, Note_on_c, 0, 79, 31
2, 49199, Note_on_c, 0, 79, 0
2, 49200, Note_on_c, 0, 79, 31
2, 49259, Note_on_c, 0, 79, 0
2, 49260, Note_on_c, 0, 78, 31
2, 49319, Note_on_c, 0, 78, 0
2, 49320, Note_on_c, 0, 81, 31
2, 49379, Note_on_c, 0, 81, 0
2, 49380, Note_on_c, 0, 78, 31
2, 49439, Note_on_c, 0, 78, 0
2, 49440, Note_on_c, 0, 78, 47
2, 49499, Note_on_c, 0, 78, 0
2, 49500, Note_on_c, 0, 76, 47
2, 49559, Note_on_c, 0, 76, 0
2, 49560, Note_on_c, 0, 77, 47
2, 49619, Note_on_c, 0, 77, 0
2, 49620, Note_on_c, 0, 74, 47
2, 49679, Note_on_c, 0, 74, 0
2, 49680, Note_on_c, 0, 74, 31
2, 49919, Note_on_c, 0, 74, 0
2, 49920, Note_on_c, 0, 73, 19
2, 50039, Note_on_c, 0, 73, 0
2, 50341, Note_on_c, 0, 69, 81
2, 50399, Note_on_c, 0, 69, 0
2, 50400, Note_on_c, 0, 74, 81
2, 50519, Note_on_c, 0, 74, 0
2, 50520, Note_on_c, 0, 74, 81
2, 50549, Note_on_c, 0, 74, 0
2, 50550, Note_on_c, 0, 73, 81
2, 50565, Note_on_c, 0, 73, 0
2, 50565, Note_on_c, 0, 71, 81
2, 50580, Note_on_c, 0, 71, 0
2, 50580, Note_on_c, 0, 69, 81
2, 50595, Note_on_c, 0, 69, 0
2, 50595, Note_on_c, 0, 67, 81
2, 50610, Note_on_c, 0, 67, 0
2, 50610, Note_on_c, 0, 66, 81
2, 50625, Note_on_c, 0, 66, 0
2, 50625, Note_on_c, 0, 64, 81
2, 50640, Note_on_c, 0, 64, 0
2, 50640, Note_on_c, 0, 62, 81
2, 50759, Note_on_c, 0, 62, 0
2, 50821, Note_on_c, 0, 81, 81
2, 50839, Note_on_c, 0, 81, 0
2, 50840, Note_on_c, 0, 83, 81
2, 50859, Note_on_c, 0, 83, 0
2, 50860, Note_on_c, 0, 81, 81
2, 50879, Note_on_c, 0, 81, 0
2, 50880, Note_on_c, 0, 86, 81
2, 51029, Note_on_c, 0, 86, 0
2, 51030, Note_on_c, 0, 85, 81
2, 51059, Note_on_c, 0, 85, 0
2, 51061, Note_on_c, 0, 83, 81
2, 51075, Note_on_c, 0, 81, 81
2, 51076, Note_on_c, 0, 83, 0
2, 51090, Note_on_c, 0, 81, 0
2, 51090, Note_on_c, 0, 79, 81
2, 51105, Note_on_c, 0, 79, 0
2, 51105, Note_on_c, 0, 78, 81
2, 51120, Note_on_c, 0, 78, 0
2, 51120, Note_on_c, 0, 76, 81
2, 51269, Note_on_c, 0, 76, 0
2, 51270, Note_on_c, 0, 74, 81
2, 51299, Note_on_c, 0, 74, 0
2, 51300, Note_on_c, 0, 73, 81
2, 51329, Note_on_c, 0, 73, 0
2, 51330, Note_on_c, 0, 71, 81
2, 51345, Note_on_c, 0, 71, 0
2, 51345, Note_on_c, 0, 69, 81
2, 51359, Note_on_c, 0, 69, 0
2, 51360, Note_on_c, 0, 74, 63
2, 51479, Note_on_c, 0, 74, 0
2, 51571, Note_on_c, 0, 73, 31
2, 51599, Note_on_c, 0, 73, 0
2, 51600, Note_on_c, 0, 74, 31
2, 51629, Note_on_c, 0, 74, 0
2, 51630, Note_on_c, 0, 78, 31
2, 51659, Note_on_c, 0, 78, 0
2, 51660, Note_on_c, 0, 76, 31
2, 51689, Note_on_c, 0, 76, 0
2, 51690, Note_on_c, 0, 79, 31
2, 51719, Note_on_c, 0, 79, 0
2, 51720, Note_on_c, 0, 78, 31
2, 51749, Note_on_c, 0, 78, 0
2, 51750, Note_on_c, 0, 81, 31
2, 51779, Note_on_c, 0, 81, 0
2, 51780, Note_on_c, 0, 79, 31
2, 51809, Note_on_c, 0, 79, 0
2, 51810, Note_on_c, 0, 83, 31
2, 51839, Note_on_c, 0, 83, 0
2, 51840, Note_on_c, 0, 81, 31
2, 51899, Note_on_c, 0, 81, 0
2, 51900, Note_on_c, 0, 79, 31
2, 51959, Note_on_c, 0, 79, 0
2, 52021, Note_on_c, 0, 78, 31
2, 52079, Note_on_c, 0, 78, 0
2, 52141, Note_on_c, 0, 76, 31
2, 52199, Note_on_c, 0, 76, 0
2, 52261, Note_on_c, 0, 74, 31
2, 52319, Note_on_c, 0, 74, 0
2, 52381, Note_on_c, 0, 73, 31
2, 52439, Note_on_c, 0, 73, 0
2, 52501, Note_on_c, 0, 74, 31
2, 52559, Note_on_c, 0, 74, 0
2, 52560, Note_on_c, 0, 78, 31
2, 52579, Note_on_c, 0, 78, 0
2, 52580, Note_on_c, 0, 79, 31
2, 52599, Note_on_c, 0, 79, 0
2, 52600, Note_on_c, 0, 78, 31
2, 52619, Note_on_c, 0, 78, 0
2, 52620, Note_on_c, 0, 76, 31
2, 52639, Note_on_c, 0, 76, 0
2, 52640, Note_on_c, 0, 78, 31
2, 52659, Note_on_c, 0, 78, 0
2, 52660, Note_on_c, 0, 79, 31
2, 52679, Note_on_c, 0, 79, 0
2, 52680, Note_on_c, 0, 80, 31
2, 52769, Note_on_c, 0, 80, 0
2, 52770, Note_on_c, 0, 81, 31
2, 52799, Note_on_c, 0, 81, 0
2, 52800, Note_on_c, 0, 79, 19
2, 52814, Note_on_c, 0, 79, 0
2, 52816, Note_on_c, 0, 78, 21
2, 52831, Note_on_c, 0, 78, 0
2, 52832, Note_on_c, 0, 76, 21
2, 52845, Note_on_c, 0, 78, 19
2, 52847, Note_on_c, 0, 76, 0
2, 52859, Note_on_c, 0, 78, 0
2, 52860, Note_on_c, 0, 76, 19
2, 52889, Note_on_c, 0, 76, 0
2, 53221, Note_on_c, 0, 74, 47
2, 53239, Note_on_c, 0, 74, 0
2, 53240, Note_on_c, 0, 78, 47
2, 53259, Note_on_c, 0, 78, 0
2, 53260, Note_on_c, 0, 81, 47
2, 53279, Note_on_c, 0, 81, 0
2, 53280, Note_on_c, 0, 86, 81
2, 53339, Note_on_c, 0, 86, 0
2, 53340, Note_on_c, 0, 88, 81
2, 53359, Note_on_c, 0, 88, 0
2, 53360, Note_on_c, 0, 86, 81
2, 53379, Note_on_c, 0, 86, 0
2, 53380, Note_on_c, 0, 85, 81
2, 53399, Note_on_c, 0, 85, 0
2, 53400, Note_on_c, 0, 86, 81
2, 53489, Note_on_c, 0, 86, 0
2, 53490, Note_on_c, 0, 88, 81
2, 53519, Note_on_c, 0, 88, 0
2, 53520, Note_on_c, 0, 85, 81
2, 53579, Note_on_c, 0, 85, 0
2, 54001, Note_on_c, 0, 62, 81
2, 54119, Note_on_c, 0, 62, 0
2, 54120, Note_on_c, 0, 60, 81
2, 54239, Note_on_c, 0, 60, 0
2, 54240, Note_on_c, 0, 60, 81
2, 54329, Note_on_c, 0, 60, 0
2, 54330, Note_on_c, 0, 59, 81
2, 54359, Note_on_c, 0, 59, 0
2, 54360, Note_on_c, 0, 73, 31
2, 54539, Note_on_c, 0, 73, 0
2, 54540, Note_on_c, 0, 71, 31
2, 54599, Note_on_c, 0, 71, 0
2, 54600, Note_on_c, 0, 70, 31
2, 54659, Note_on_c, 0, 70, 0
2, 54660, Note_on_c, 0, 69, 31
2, 54719, Note_on_c, 0, 69, 0
2, 54720, Note_on_c, 0, 69, 31
2, 54779, Note_on_c, 0, 69, 0
2, 54780, Note_on_c, 0, 67, 31
2, 54899, Note_on_c, 0, 67, 0
2, 54900, Note_on_c, 0, 71, 31
2, 54929, Note_on_c, 0, 71, 0
2, 54930, Note_on_c, 0, 69, 31
2, 54959, Note_on_c, 0, 69, 0
2, 54960, Note_on_c, 0, 67, 31
2, 55019, Note_on_c, 0, 67, 0
2, 55020, Note_on_c, 0, 66, 31
2, 55139, Note_on_c, 0, 66, 0
2, 55140, Note_on_c, 0, 81, 31
2, 55259, Note_on_c, 0, 81, 0
2, 55260, Note_on_c, 0, 82, 31
2, 55379, Note_on_c, 0, 82, 0
2, 55380, Note_on_c, 0, 83, 31
2, 55439, Note_on_c, 0, 83, 0
2, 55440, Note_on_c, 0, 78, 31
2, 55679, Note_on_c, 0, 78, 0
2, 55680, Note_on_c, 0, 76, 31
2, 55919, Note_on_c, 0, 76, 0
2, 56521, Note_on_c, 0, 84, 31
2, 56579, Note_on_c, 0, 84, 0
2, 56580, Note_on_c, 0, 81, 31
2, 56639, Note_on_c, 0, 81, 0
2, 56640, Note_on_c, 0, 83, 31
2, 56699, Note_on_c, 0, 83, 0
2, 56700, Note_on_c, 0, 79, 31
2, 56759, Note_on_c, 0, 79, 0
2, 56760, Note_on_c, 0, 81, 31
2, 56819, Note_on_c, 0, 81, 0
2, 56820, Note_on_c, 0, 78, 31
2, 56879, Note_on_c, 0, 78, 0
2, 56880, Note_on_c, 0, 79, 31
2, 56999, Note_on_c, 0, 79, 0
2, 57241, Note_on_c, 0, 84, 31
2, 57279, Note_on_c, 0, 84, 0
2, 57280, Note_on_c, 0, 83, 31
2, 57319, Note_on_c, 0, 83, 0
2, 57320, Note_on_c, 0, 79, 31
2, 57359, Note_on_c, 0, 79, 0
2, 57360, Note_on_c, 0, 83, 31
2, 57399, Note_on_c, 0, 83, 0
2, 57400, Note_on_c, 0, 81, 31
2, 57439, Note_on_c, 0, 81, 0
2, 57440, Note_on_c, 0, 78, 31
2, 57479, Note_on_c, 0, 78, 0
2, 57480, Note_on_c, 0, 81, 31
2, 57519, Note_on_c, 0, 81, 0
2, 57520, Note_on_c, 0, 79, 31
2, 57559, Note_on_c, 0, 79, 0
2, 57560, Note_on_c, 0, 76, 31
2, 57599, Note_on_c, 0, 76, 0
2, 57600, Note_on_c, 0, 78, 31
2, 57719, Note_on_c, 0, 78, 0
2, 57881, Note_on_c, 0, 86, 31
2, 57919, Note_on_c, 0, 86, 0
2, 57920, Note_on_c, 0, 85, 31
2, 57959, Note_on_c, 0, 85, 0
2, 57960, Note_on_c, 0, 84, 47
2, 57999, Note_on_c, 0, 84, 0
2, 58000, Note_on_c, 0, 83, 47
2, 58039, Note_on_c, 0, 83, 0
2, 58040, Note_on_c, 0, 82, 47
2, 58079, Note_on_c, 0, 82, 0
2, 58080, Note_on_c, 0, 81, 47
2, 58119, Note_on_c, 0, 81, 0
2, 58120, Note_on_c, 0, 80, 47
2, 58159, Note_on_c, 0, 80, 0
2, 58160, Note_on_c, 0, 79, 47
2, 58199, Note_on_c, 0, 79, 0
2, 58200, Note_on_c, 0, 78, 63
2, 58239, Note_on_c, 0, 78, 0
2, 58240, Note_on_c, 0, 77, 63
2, 58279, Note_on_c, 0, 77, 0
2, 58280, Note_on_c, 0, 76, 63
2, 58319, Note_on_c, 0, 76, 0
2, 58320, Note_on_c, 0, 74, 63
2, 58559, Note_on_c, 0, 74, 0
2, 58560, Note_on_c, 0, 73, 31
2, 58679, Note_on_c, 0, 73, 0
2, 58981, Note_on_c, 0, 69, 31
2, 59039, Note_on_c, 0, 69, 0
2, 59040, Note_on_c, 0, 74, 31
2, 59219, Note_on_c, 0, 74, 0
2, 59220, Note_on_c, 0, 74, 31
2, 59279, Note_on_c, 0, 74, 0
2, 59280, Note_on_c, 0, 74, 31
2, 59399, Note_on_c, 0, 74, 0
2, 59641, Note_on_c, 0, 69, 31
2, 59679, Note_on_c, 0, 69, 0
2, 59680, Note_on_c, 0, 74, 31
2, 59719, Note_on_c, 0, 74, 0
2, 59720, Note_on_c, 0, 78, 31
2, 59759, Note_on_c, 0, 78, 0
2, 59760, Note_on_c, 0, 78, 31
2, 59819, Note_on_c, 0, 78, 0
2, 59820, Note_on_c, 0, 76, 31
2, 59879, Note_on_c, 0, 76, 0
2, 59880, Note_on_c, 0, 83, 31
2, 59939, Note_on_c, 0, 83, 0
2, 59940, Note_on_c, 0, 73, 31
2, 59999, Note_on_c, 0, 73, 0
2, 60000, Note_on_c, 0, 76, 31
2, 60059, Note_on_c, 0, 76, 0
2, 60060, Note_on_c, 0, 74, 31
2, 60119, Note_on_c, 0, 74, 0
2, 60120, Note_on_c, 0, 86, 31
2, 60299, Note_on_c, 0, 86, 0
2, 60300, Note_on_c, 0, 85, 31
2, 60329, Note_on_c, 0, 85, 0
2, 60330, Note_on_c, 0, 86, 31
2, 60359, Note_on_c, 0, 86, 0
2, 60360, Note_on_c, 0, 88, 31
2, 60389, Note_on_c, 0, 88, 0
2, 60390, Note_on_c, 0, 86, 31
2, 60419, Note_on_c, 0, 86, 0
2, 60420, Note_on_c, 0, 85, 31
2, 60449, Note_on_c, 0, 85, 0
2, 60450, Note_on_c, 0, 83, 31
2, 60479, Note_on_c, 0, 83, 0
2, 60480, Note_on_c, 0, 81, 31
2, 60539, Note_on_c, 0, 81, 0
2, 60540, Note_on_c, 0, 79, 31
2, 60569, Note_on_c, 0, 79, 0
2, 60570, Note_on_c, 0, 81, 31
2, 60599, Note_on_c, 0, 81, 0
2, 60600, Note_on_c, 0, 83, 31
2, 60629, Note_on_c, 0, 83, 0
2, 60630, Note_on_c, 0, 81, 31
2, 60659, Note_on_c, 0, 81, 0
2, 60660, Note_on_c, 0, 79, 31
2, 60689, Note_on_c, 0, 79, 0
2, 60690, Note_on_c, 0, 78, 31
2, 60719, Note_on_c, 0, 78, 0
2, 60720, Note_on_c, 0, 76, 31
2, 60779, Note_on_c, 0, 76, 0
2, 60780, Note_on_c, 0, 76, 31
2, 60809, Note_on_c, 0, 76, 0
2, 60810, Note_on_c, 0, 78, 31
2, 60839, Note_on_c, 0, 78, 0
2, 60840, Note_on_c, 0, 79, 31
2, 60869, Note_on_c, 0, 79, 0
2, 60870, Note_on_c, 0, 78, 31
2, 60899, Note_on_c, 0, 78, 0
2, 60900, Note_on_c, 0, 76, 31
2, 60929, Note_on_c, 0, 76, 0
2, 60930, Note_on_c, 0, 74, 31
2, 60959, Note_on_c, 0, 74, 0
2, 60960, Note_on_c, 0, 73, 31
2, 60989, Note_on_c, 0, 73, 0
2, 61081, Note_on_c, 0, 74, 31
2, 61109, Note_on_c, 0, 74, 0
2, 61201, Note_on_c, 0, 78, 31
2, 61439, Note_on_c, 0, 78, 0
2, 61440, Note_on_c, 0, 76, 31
2, 61559, Note_on_c, 0, 76, 0
2, 61861, Note_on_c, 0, 74, 47
2, 61879, Note_on_c, 0, 74, 0
2, 61880, Note_on_c, 0, 78, 47
2, 61899, Note_on_c, 0, 78, 0
2, 61900, Note_on_c, 0, 81, 47
2, 61919, Note_on_c, 0, 81, 0
2, 61920, Note_on_c, 0, 86, 81
2, 61979, Note_on_c, 0, 86, 0
2, 61980, Note_on_c, 0, 88, 81
2, 61999, Note_on_c, 0, 88, 0
2, 62000, Note_on_c, 0, 86, 81
2, 62019, Note_on_c, 0, 86, 0
2, 62020, Note_on_c, 0, 85, 81
2, 62039, Note_on_c, 0, 85, 0
2, 62040, Note_on_c, 0, 86, 81
2, 62129, Note_on_c, 0, 86, 0
2, 62130, Note_on_c, 0, 88, 81
2, 62159, Note_on_c, 0, 88, 0
2, 62160, Note_on_c, 0, 85, 81
2, 62219, Note_on_c, 0, 85, 0
2, 62401, Note_on_c, 0, 69, 81
2, 62429, Note_on_c, 0, 69, 0
2, 62430, Note_on_c, 0, 71, 81
2, 62459, Note_on_c, 0, 71, 0
2, 62460, Note_on_c, 0, 73, 81
2, 62489, Note_on_c, 0, 73, 0
2, 62490, Note_on_c, 0, 74, 81
2, 62519, Note_on_c, 0, 74, 0
2, 62520, Note_on_c, 0, 76, 81
2, 62549, Note_on_c, 0, 76, 0
2, 62550, Note_on_c, 0, 78, 81
2, 62579, Note_on_c, 0, 78, 0
2, 62580, Note_on_c, 0, 79, 81
2, 62609, Note_on_c, 0, 79, 0
2, 62610, Note_on_c, 0, 83, 81
2, 62639, Note_on_c, 0, 83, 0
2, 62640, Note_on_c, 0, 85, 105
2, 62699, Note_on_c, 0, 85, 0
2, 62700, Note_on_c, 0, 86, 105
2, 62719, Note_on_c, 0, 86, 0
2, 62720, Note_on_c, 0, 85, 105
2, 62739, Note_on_c, 0, 85, 0
2, 62740, Note_on_c, 0, 83, 105
2, 62759, Note_on_c, 0, 83, 0
2, 62760, Note_on_c, 0, 85, 105
2, 62849, Note_on_c, 0, 85, 0
2, 62850, Note_on_c, 0, 86, 105
2, 62879, Note_on_c, 0, 86, 0
2, 62880, Note_on_c, 0, 84, 105
2, 62939, Note_on_c, 0, 84, 0
2, 62940, Note_on_c, 0, 86, 105
2, 62959, Note_on_c, 0, 86, 0
2, 62960, Note_on_c, 0, 84, 105
2, 62979, Note_on_c, 0, 84, 0
2, 62980, Note_on_c, 0, 83, 105
2, 62999, Note_on_c, 0, 83, 0
2, 63000, Note_on_c, 0, 84, 105
2, 63089, Note_on_c, 0, 84, 0
2, 63090, Note_on_c, 0, 86, 105
2, 63119, Note_on_c, 0, 86, 0
2, 63120, Note_on_c, 0, 83, 105
2, 63239, Note_on_c, 0, 83, 0
2, 63240, Note_on_c, 0, 81, 105
2, 63269, Note_on_c, 0, 81, 0
2, 63270, Note_on_c, 0, 79, 105
2, 63299, Note_on_c, 0, 79, 0
2, 63300, Note_on_c, 0, 78, 105
2, 63329, Note_on_c, 0, 78, 0
2, 63330, Note_on_c, 0, 76, 105
2, 63359, Note_on_c, 0, 76, 0
2, 63360, Note_on_c, 0, 81, 105
2, 63719, Note_on_c, 0, 81, 0
2, 63720, Note_on_c, 0, 79, 81
2, 63749, Note_on_c, 0, 79, 0
2, 63750, Note_on_c, 0, 78, 81
2, 63779, Note_on_c, 0, 78, 0
2, 63780, Note_on_c, 0, 76, 63
2, 63809, Note_on_c, 0, 76, 0
2, 63810, Note_on_c, 0, 74, 63
2, 63839, Note_on_c, 0, 74, 0
2, 63840, Note_on_c, 0, 73, 47
2, 63959, Note_on_c, 0, 73, 0
2, 63960, Note_on_c, 0, 76, 31
2, 64079, Note_on_c, 0, 76, 0
2, 64080, Note_on_c, 0, 74, 19
2, 64199, Note_on_c, 0, 74, 0
2, 64831, Note_on_c, 0, 71, 81
2, 64859, Note_on_c, 0, 71, 0
2, 64860, Note_on_c, 0, 75, 81
2, 64889, Note_on_c, 0, 75, 0
2, 64890, Note_on_c, 0, 78, 81
2, 64919, Note_on_c, 0, 78, 0
2, 64920, Note_on_c, 0, 83, 81
2, 64949, Note_on_c, 0, 83, 0
2, 64950, Note_on_c, 0, 59, 81
2, 64979, Note_on_c, 0, 59, 0
2, 64980, Note_on_c, 0, 63, 81
2, 65009, Note_on_c, 0, 63, 0
2, 65010, Note_on_c, 0, 66, 81
2, 65039, Note_on_c, 0, 66, 0
2, 65040, Note_on_c, 0, 69, 81
2, 65069, Note_on_c, 0, 69, 0
2, 65070, Note_on_c, 0, 71, 81
2, 65099, Note_on_c, 0, 71, 0
2, 65100, Note_on_c, 0, 75, 81
2, 65129, Note_on_c, 0, 75, 0
2, 65130, Note_on_c, 0, 78, 81
2, 65159, Note_on_c, 0, 78, 0
2, 65160, Note_on_c, 0, 81, 81
2, 65189, Note_on_c, 0, 81, 0
2, 65190, Note_on_c, 0, 63, 81
2, 65219, Note_on_c, 0, 63, 0
2, 65220, Note_on_c, 0, 66, 81
2, 65249, Note_on_c, 0, 66, 0
2, 65250, Note_on_c, 0, 69, 81
2, 65279, Note_on_c, 0, 69, 0
2, 65280, Note_on_c, 0, 72, 81
2, 65309, Note_on_c, 0, 72, 0
2, 65310, Note_on_c, 0, 75, 81
2, 65339, Note_on_c, 0, 75, 0
2, 65340, Note_on_c, 0, 78, 81
2, 65369, Note_on_c, 0, 78, 0
2, 65370, Note_on_c, 0, 81, 81
2, 65399, Note_on_c, 0, 81, 0
2, 65400, Note_on_c, 0, 84, 63
2, 65429, Note_on_c, 0, 84, 0
2, 65430, Note_on_c, 0, 81, 63
2, 65459, Note_on_c, 0, 81, 0
2, 65460, Note_on_c, 0, 79, 63
2, 65489, Note_on_c, 0, 79, 0
2, 65490, Note_on_c, 0, 78, 47
2, 65519, Note_on_c, 0, 78, 0
2, 65520, Note_on_c, 0, 79, 47
2, 65549, Note_on_c, 0, 79, 0
2, 65550, Note_on_c, 0, 64, 31
2, 65579, Note_on_c, 0, 64, 0
2, 65580, Note_on_c, 0, 67, 31
2, 65609, Note_on_c, 0, 67, 0
2, 65610, Note_on_c, 0, 71, 31
2, 65639, Note_on_c, 0, 71, 0
2, 65640, Note_on_c, 0, 76, 31
2, 65669, Note_on_c, 0, 76, 0
2, 65670, Note_on_c, 0, 79, 31
2, 65699, Note_on_c, 0, 79, 0
2, 65700, Note_on_c, 0, 83, 31
2, 65729, Note_on_c, 0, 83, 0
2, 65730, Note_on_c, 0, 87, 31
2, 65759, Note_on_c, 0, 87, 0
2, 65760, Note_on_c, 0, 88, 31
2, 65789, Note_on_c, 0, 88, 0
2, 65790, Note_on_c, 0, 83, 31
2, 65819, Note_on_c, 0, 83, 0
2, 65820, Note_on_c, 0, 84, 31
2, 65849, Note_on_c, 0, 84, 0
2, 65850, Note_on_c, 0, 81, 31
2, 65879, Note_on_c, 0, 81, 0
2, 65880, Note_on_c, 0, 83, 31
2, 65909, Note_on_c, 0, 83, 0
2, 65910, Note_on_c, 0, 79, 31
2, 65939, Note_on_c, 0, 79, 0
2, 65940, Note_on_c, 0, 81, 31
2, 65969, Note_on_c, 0, 81, 0
2, 65970, Note_on_c, 0, 78, 31
2, 65999, Note_on_c, 0, 78, 0
2, 66000, Note_on_c, 0, 79, 47
2, 66029, Note_on_c, 0, 79, 0
2, 66030, Note_on_c, 0, 81, 47
2, 66059, Note_on_c, 0, 81, 0
2, 66060, Note_on_c, 0, 83, 47
2, 66089, Note_on_c, 0, 83, 0
2, 66090, Note_on_c, 0, 81, 47
2, 66119, Note_on_c, 0, 81, 0
2, 66120, Note_on_c, 0, 79, 63
2, 66149, Note_on_c, 0, 79, 0
2, 66150, Note_on_c, 0, 78, 63
2, 66179, Note_on_c, 0, 78, 0
2, 66180, Note_on_c, 0, 76, 63
2, 66209, Note_on_c, 0, 76, 0
2, 66210, Note_on_c, 0, 74, 63
2, 66239, Note_on_c, 0, 74, 0
2, 66240, Note_on_c, 0, 73, 81
2, 66269, Note_on_c, 0, 73, 0
2, 66331, Note_on_c, 0, 64, 81
2, 66359, Note_on_c, 0, 64, 0
2, 66360, Note_on_c, 0, 67, 81
2, 66389, Note_on_c, 0, 67, 0
2, 66390, Note_on_c, 0, 69, 81
2, 66419, Note_on_c, 0, 69, 0
2, 66420, Note_on_c, 0, 73, 81
2, 66449, Note_on_c, 0, 73, 0
2, 66450, Note_on_c, 0, 76, 81
2, 66479, Note_on_c, 0, 76, 0
2, 66480, Note_on_c, 0, 79, 81
2, 66509, Note_on_c, 0, 79, 0
2, 66571, Note_on_c, 0, 62, 81
2, 66599, Note_on_c, 0, 62, 0
2, 66600, Note_on_c, 0, 66, 81
2, 66629, Note_on_c, 0, 66, 0
2, 66630, Note_on_c, 0, 69, 81
2, 66659, Note_on_c, 0, 69, 0
2, 66660, Note_on_c, 0, 74, 81
2, 66689, Note_on_c, 0, 74, 0
2, 66690, Note_on_c, 0, 78, 81
2, 66719, Note_on_c, 0, 78, 0
2, 66720, Note_on_c, 0, 81, 81
2, 66749, Note_on_c, 0, 81, 0
2, 66750, Note_on_c, 0, 74, 81
2, 66779, Note_on_c, 0, 74, 0
2, 66780, Note_on_c, 0, 78, 81
2, 66809, Note_on_c, 0, 78, 0
2, 66810, Note_on_c, 0, 81, 81
2, 66839, Note_on_c, 0, 81, 0
2, 66840, Note_on_c, 0, 86, 81
2, 66929, Note_on_c, 0, 86, 0
2, 66930, Note_on_c, 0, 78, 81
2, 66959, Note_on_c, 0, 78, 0
2, 66960, Note_on_c, 0, 79, 63
2, 66979, Note_on_c, 0, 79, 0
2, 66980, Note_on_c, 0, 78, 63
2, 66999, Note_on_c, 0, 78, 0
2, 67000, Note_on_c, 0, 79, 63
2, 67019, Note_on_c, 0, 79, 0
2, 67020, Note_on_c, 0, 78, 63
2, 67039, Note_on_c, 0, 78, 0
2, 67040, Note_on_c, 0, 79, 63
2, 67059, Note_on_c, 0, 79, 0
2, 67060, Note_on_c, 0, 78, 63
2, 67079, Note_on_c, 0, 78, 0
2, 67080, Note_on_c, 0, 76, 47
2, 67139, Note_on_c, 0, 76, 0
2, 67140, Note_on_c, 0, 78, 47
2, 67199, Note_on_c, 0, 78, 0
2, 67200, Note_on_c, 0, 76, 31
2, 67439, Note_on_c, 0, 76, 0
2, 67621, Note_on_c, 0, 69, 47
2, 67679, Note_on_c, 0, 69, 0
2, 67680, Note_on_c, 0, 74, 47
2, 67859, Note_on_c, 0, 74, 0
2, 67860, Note_on_c, 0, 74, 47
2, 67919, Note_on_c, 0, 74, 0
2, 67920, Note_on_c, 0, 74, 47
2, 67949, Note_on_c, 0, 74, 0
2, 67950, Note_on_c, 0, 78, 47
2, 67979, Note_on_c, 0, 78, 0
2, 67980, Note_on_c, 0, 76, 47
2, 68009, Note_on_c, 0, 76, 0
2, 68010, Note_on_c, 0, 79, 47
2, 68039, Note_on_c, 0, 79, 0
2, 68040, Note_on_c, 0, 78, 47
2, 68069, Note_on_c, 0, 78, 0
2, 68070, Note_on_c, 0, 81, 47
2, 68099, Note_on_c, 0, 81, 0
2, 68100, Note_on_c, 0, 79, 47
2, 68129, Note_on_c, 0, 79, 0
2, 68130, Note_on_c, 0, 83, 47
2, 68159, Note_on_c, 0, 83, 0
2, 68160, Note_on_c, 0, 81, 63
2, 68189, Note_on_c, 0, 81, 0
2, 68221, Note_on_c, 0, 83, 63
2, 68249, Note_on_c, 0, 83, 0
2, 68281, Note_on_c, 0, 85, 63
2, 68309, Note_on_c, 0, 85, 0
2, 68341, Note_on_c, 0, 86, 63
2, 68369, Note_on_c, 0, 86, 0
2, 68401, Note_on_c, 0, 88, 81
2, 68429, Note_on_c, 0, 88, 0
2, 68461, Note_on_c, 0, 76, 81
2, 68549, Note_on_c, 0, 76, 0
2, 68550, Note_on_c, 0, 79, 47
2, 68579, Note_on_c, 0, 79, 0
2, 68580, Note_on_c, 0, 76, 47
2, 68609, Note_on_c, 0, 76, 0
2, 68610, Note_on_c, 0, 73, 47
2, 68639, Note_on_c, 0, 73, 0
2, 68640, Note_on_c, 0, 74, 47
2, 68759, Note_on_c, 0, 74, 0
2, 68881, Note_on_c, 0, 62, 47
2, 68899, Note_on_c, 0, 62, 0
2, 68900, Note_on_c, 0, 64, 47
2, 68919, Note_on_c, 0, 64, 0
2, 68920, Note_on_c, 0, 66, 47
2, 68939, Note_on_c, 0, 66, 0
2, 68940, Note_on_c, 0, 67, 47
2, 68959, Note_on_c, 0, 67, 0
2, 68960, Note_on_c, 0, 69, 47
2, 68979, Note_on_c, 0, 69, 0
2, 68980, Note_on_c, 0, 71, 47
2, 68999, Note_on_c, 0, 71, 0
2, 69000, Note_on_c, 0, 73, 47
2, 69019, Note_on_c, 0, 73, 0
2, 69020, Note_on_c, 0, 74, 47
2, 69039, Note_on_c, 0, 74, 0
2, 69040, Note_on_c, 0, 76, 63
2, 69059, Note_on_c, 0, 76, 0
2, 69060, Note_on_c, 0, 78, 63
2, 69079, Note_on_c, 0, 78, 0
2, 69080, Note_on_c, 0, 79, 63
2, 69099, Note_on_c, 0, 79, 0
2, 69100, Note_on_c, 0, 81, 63
2, 69119, Note_on_c, 0, 81, 0
2, 69120, Note_on_c, 0, 79, 81
2, 69179, Note_on_c, 0, 79, 0
2, 69180, Note_on_c, 0, 79, 81
2, 69209, Note_on_c, 0, 79, 0
2, 69210, Note_on_c, 0, 83, 81
2, 69239, Note_on_c, 0, 83, 0
2, 69240, Note_on_c, 0, 86, 63
2, 69269, Note_on_c, 0, 86, 0
2, 69270, Note_on_c, 0, 83, 63
2, 69299, Note_on_c, 0, 83, 0
2, 69300, Note_on_c, 0, 79, 63
2, 69329, Note_on_c, 0, 79, 0
2, 69330, Note_on_c, 0, 78, 63
2, 69359, Note_on_c, 0, 78, 0
2, 69360, Note_on_c, 0, 76, 47
2, 69419, Note_on_c, 0, 76, 0
2, 69420, Note_on_c, 0, 76, 47
2, 69449, Note_on_c, 0, 76, 0
2, 69450, Note_on_c, 0, 79, 47
2, 69479, Note_on_c, 0, 79, 0
2, 69480, Note_on_c, 0, 83, 63
2, 69509, Note_on_c, 0, 83, 0
2, 69510, Note_on_c, 0, 79, 63
2, 69539, Note_on_c, 0, 79, 0
2, 69540, Note_on_c, 0, 76, 63
2, 69569, Note_on_c, 0, 76, 0
2, 69570, Note_on_c, 0, 74, 47
2, 69599, Note_on_c, 0, 74, 0
2, 69600, Note_on_c, 0, 72, 47
2, 69629, Note_on_c, 0, 72, 0
2, 69721, Note_on_c, 0, 74, 63
2, 69749, Note_on_c, 0, 74, 0
2, 69841, Note_on_c, 0, 78, 63
2, 70319, Note_on_c, 0, 78, 0
2, 70320, Note_on_c, 0, 76, 47
2, 70439, Note_on_c, 0, 76, 0
2, 70501, Note_on_c, 0, 74, 47
2, 70519, Note_on_c, 0, 74, 0
2, 70520, Note_on_c, 0, 78, 47
2, 70539, Note_on_c, 0, 78, 0
2, 70540, Note_on_c, 0, 81, 47
2, 70559, Note_on_c, 0, 81, 0
2, 70560, Note_on_c, 0, 86, 81
2, 70619, Note_on_c, 0, 86, 0
2, 70620, Note_on_c, 0, 88, 81
2, 70639, Note_on_c, 0, 88, 0
2, 70640, Note_on_c, 0, 86, 81
2, 70659, Note_on_c, 0, 86, 0
2, 70660, Note_on_c, 0, 85, 81
2, 70679, Note_on_c, 0, 85, 0
2, 70680, Note_on_c, 0, 86, 81
2, 70769, Note_on_c, 0, 86, 0
2, 70770, Note_on_c, 0, 88, 81
2, 70799, Note_on_c, 0, 88, 0
2, 70800, Note_on_c, 0, 85, 81
2, 70859, Note_on_c, 0, 85, 0
2, 71041, Note_on_c, 0, 69, 63
2, 71069, Note_on_c, 0, 69, 0
2, 71070, Note_on_c, 0, 68, 63
2, 71099, Note_on_c, 0, 68, 0
2, 71100, Note_on_c, 0, 71, 63
2, 71129, Note_on_c, 0, 71, 0
2, 71130, Note_on_c, 0, 69, 63
2, 71159, Note_on_c, 0, 69, 0
2, 71160, Note_on_c, 0, 73, 63
2, 71189, Note_on_c, 0, 73, 0
2, 71190, Note_on_c, 0, 71, 63
2, 71219, Note_on_c, 0, 71, 0
2, 71220, Note_on_c, 0, 74, 63
2, 71249, Note_on_c, 0, 74, 0
2, 71250, Note_on_c, 0, 73, 63
2, 71279, Note_on_c, 0, 73, 0
2, 71280, Note_on_c, 0, 76, 63
2, 71309, Note_on_c, 0, 76, 0
2, 71310, Note_on_c, 0, 74, 63
2, 71339, Note_on_c, 0, 74, 0
2, 71340, Note_on_c, 0, 78, 63
2, 71369, Note_on_c, 0, 78, 0
2, 71370, Note_on_c, 0, 76, 63
2, 71399, Note_on_c, 0, 76, 0
2, 71400, Note_on_c, 0, 79, 81
2, 71429, Note_on_c, 0, 79, 0
2, 71430, Note_on_c, 0, 78, 81
2, 71459, Note_on_c, 0, 78, 0
2, 71460, Note_on_c, 0, 81, 81
2, 71489, Note_on_c, 0, 81, 0
2, 71490, Note_on_c, 0, 79, 81
2, 71519, Note_on_c, 0, 79, 0
2, 71520, Note_on_c, 0, 83, 81
2, 71549, Note_on_c, 0, 83, 0
2, 71550, Note_on_c, 0, 81, 81
2, 71579, Note_on_c, 0, 81, 0
2, 71580, Note_on_c, 0, 84, 81
2, 71609, Note_on_c, 0, 84, 0
2, 71610, Note_on_c, 0, 83, 81
2, 71639, Note_on_c, 0, 83, 0
2, 71640, Note_on_c, 0, 86, 81
2, 71669, Note_on_c, 0, 86, 0
2, 71670, Note_on_c, 0, 84, 81
2, 71699, Note_on_c, 0, 84, 0
2, 71700, Note_on_c, 0, 83, 81
2, 71729, Note_on_c, 0, 83, 0
2, 71730, Note_on_c, 0, 81, 81
2, 71759, Note_on_c, 0, 81, 0
2, 71760, Note_on_c, 0, 81, 81
2, 71789, Note_on_c, 0, 81, 0
2, 71790, Note_on_c, 0, 79, 81
2, 71819, Note_on_c, 0, 79, 0
2, 71820, Note_on_c, 0, 83, 81
2, 71849, Note_on_c, 0, 83, 0
2, 71850, Note_on_c, 0, 81, 63
2, 71879, Note_on_c, 0, 81, 0
2, 71880, Note_on_c, 0, 85, 63
2, 71909, Note_on_c, 0, 85, 0
2, 71910, Note_on_c, 0, 83, 63
2, 71939, Note_on_c, 0, 83, 0
2, 71940, Note_on_c, 0, 81, 63
2, 71969, Note_on_c, 0, 81, 0
2, 71970, Note_on_c, 0, 79, 63
2, 71999, Note_on_c, 0, 79, 0
2, 72000, Note_on_c, 0, 78, 47
2, 72059, Note_on_c, 0, 78, 0
2, 72121, Note_on_c, 0, 81, 31
2, 72179, Note_on_c, 0, 81, 0
2, 72361, Note_on_c, 0, 79, 31
2, 72389, Note_on_c, 0, 79, 0
2, 72390, Note_on_c, 0, 78, 31
2, 72419, Note_on_c, 0, 78, 0
2, 72420, Note_on_c, 0, 76, 31
2, 72449, Note_on_c, 0, 76, 0
2, 72450, Note_on_c, 0, 74, 31
2, 72479, Note_on_c, 0, 74, 0
2, 72480, Note_on_c, 0, 73, 31
2, 72539, Note_on_c, 0, 73, 0
2, 72601, Note_on_c, 0, 76, 31
2, 72659, Note_on_c, 0, 76, 0
2, 72961, Note_on_c, 0, 74, 31
2, 73199, Note_on_c, 0, 74, 0
2, 73381, Note_on_c, 0, 74, 31
2, 73399, Note_on_c, 0, 74, 0
2, 73400, Note_on_c, 0, 78, 31
2, 73419, Note_on_c, 0, 78, 0
2, 73420, Note_on_c, 0, 81, 31
2, 73439, Note_on_c, 0, 81, 0
2, 73440, Note_on_c, 0, 86, 81
2, 73499, Note_on_c, 0, 86, 0
2, 73500, Note_on_c, 0, 88, 81
2, 73519, Note_on_c, 0, 88, 0
2, 73520, Note_on_c, 0, 86, 81
2, 73539, Note_on_c, 0, 86, 0
2, 73540, Note_on_c, 0, 85, 81
2, 73559, Note_on_c, 0, 85, 0
2, 73560, Note_on_c, 0, 86, 81
2, 73649, Note_on_c, 0, 86, 0
2, 73650, Note_on_c, 0, 88, 81
2, 73679, Note_on_c, 0, 88, 0
2, 73680, Note_on_c, 0, 85, 81
2, 73739, Note_on_c, 0, 85, 0
2, 74101, Note_on_c, 0, 69, 81
2, 74119, Note_on_c, 0, 69, 0
2, 74120, Note_on_c, 0, 73, 81
2, 74139, Note_on_c, 0, 73, 0
2, 74140, Note_on_c, 0, 76, 81
2, 74159, Note_on_c, 0, 76, 0
2, 74160, Note_on_c, 0, 79, 47
2, 74279, Note_on_c, 0, 79, 0
2, 74280, Note_on_c, 0, 76, 47
2, 74309, Note_on_c, 0, 76, 0
2, 74310, Note_on_c, 0, 73, 47
2, 74339, Note_on_c, 0, 73, 0
2, 74401, Note_on_c, 0, 81, 63
2, 74519, Note_on_c, 0, 81, 0
2, 74520, Note_on_c, 0, 78, 63
2, 74549, Note_on_c, 0, 78, 0
2, 74550, Note_on_c, 0, 75, 63
2, 74579, Note_on_c, 0, 75, 0
2, 74641, Note_on_c, 0, 83, 81
2, 74759, Note_on_c, 0, 83, 0
2, 74760, Note_on_c, 0, 79, 81
2, 74789, Note_on_c, 0, 79, 0
2, 74790, Note_on_c, 0, 76, 81
2, 74819, Note_on_c, 0, 76, 0
2, 74881, Note_on_c, 0, 81, 81
2, 75159, Note_on_c, 0, 81, 0
2, 75160, Note_on_c, 0, 80, 63
2, 75199, Note_on_c, 0, 80, 0
2, 75200, Note_on_c, 0, 79, 63
2, 75239, Note_on_c, 0, 79, 0
2, 75240, Note_on_c, 0, 78, 63
2, 75279, Note_on_c, 0, 78, 0
2, 75280, Note_on_c, 0, 77, 63
2, 75319, Note_on_c, 0, 77, 0
2, 75320, Note_on_c, 0, 76, 63
2, 75359, Note_on_c, 0, 76, 0
2, 75360, Note_on_c, 0, 74, 47
2, 75419, Note_on_c, 0, 74, 0
2, 75481, Note_on_c, 0, 73, 47
2, 75539, Note_on_c, 0, 73, 0
2, 75601, Note_on_c, 0, 76, 31
2, 75839, Note_on_c, 0, 76, 0
2, 75840, Note_on_c, 0, 74, 19
2, 75959, Note_on_c, 0, 74, 0
2, 76321, Program_c, 0, 0
2, 76922, Note_on_c, 0, 78, 31
2, 77040, Note_on_c, 0, 78, 0
2, 77041, Note_on_c, 0, 79, 31
2, 77160, Note_on_c, 0, 79, 0
2, 77161, Note_on_c, 0, 76, 31
2, 77280, Note_on_c, 0, 76, 0
2, 77281, Note_on_c, 0, 78, 31
2, 77400, Note_on_c, 0, 78, 0
2, 77401, Note_on_c, 0, 75, 31
2, 77520, Note_on_c, 0, 75, 0
2, 77521, Note_on_c, 0, 76, 31
2, 77640, Note_on_c, 0, 76, 0
2, 77641, Note_on_c, 0, 73, 31
2, 77760, Note_on_c, 0, 73, 0
2, 77761, Note_on_c, 0, 74, 31
2, 77820, Note_on_c, 0, 74, 0
2, 77882, Note_on_c, 0, 71, 31
2, 77940, Note_on_c, 0, 71, 0
2, 78002, Note_on_c, 0, 69, 31
2, 78060, Note_on_c, 0, 69, 0
2, 78061, Note_on_c, 0, 68, 31
2, 78120, Note_on_c, 0, 68, 0
2, 78121, Note_on_c, 0, 66, 31
2, 78180, Note_on_c, 0, 66, 0
2, 78181, Note_on_c, 0, 64, 31
2, 78240, Note_on_c, 0, 64, 0
2, 78241, Note_on_c, 0, 63, 31
2, 78300, Note_on_c, 0, 63, 0
2, 78301, Note_on_c, 0, 64, 31
2, 78360, Note_on_c, 0, 64, 0
2, 78361, Note_on_c, 0, 66, 31
2, 78420, Note_on_c, 0, 66, 0
2, 78421, Note_on_c, 0, 68, 31
2, 78480, Note_on_c, 0, 68, 0
2, 78481, Note_on_c, 0, 69, 31
2, 78720, Note_on_c, 0, 69, 0
2, 78842, Note_on_c, 0, 73, 31
2, 78900, Note_on_c, 0, 73, 0
2, 78901, Note_on_c, 0, 71, 31
2, 78960, Note_on_c, 0, 71, 0
2, 78961, Note_on_c, 0, 69, 31
2, 79020, Note_on_c, 0, 69, 0
2, 79021, Note_on_c, 0, 68, 31
2, 79080, Note_on_c, 0, 68, 0
2, 79081, Note_on_c, 0, 66, 31
2, 79140, Note_on_c, 0, 66, 0
2, 79141, Note_on_c, 0, 64, 31
2, 79200, Note_on_c, 0, 64, 0
2, 79201, Note_on_c, 0, 63, 31
2, 79260, Note_on_c, 0, 63, 0
2, 79261, Note_on_c, 0, 64, 31
2, 79320, Note_on_c, 0, 64, 0
2, 79321, Note_on_c, 0, 66, 31
2, 79380, Note_on_c, 0, 66, 0
2, 79381, Note_on_c, 0, 68, 31
2, 79440, Note_on_c, 0, 68, 0
2, 79441, Note_on_c, 0, 69, 47
2, 79500, Note_on_c, 0, 69, 0
2, 79501, Note_on_c, 0, 71, 47
2, 79560, Note_on_c, 0, 71, 0
2, 79561, Note_on_c, 0, 73, 47
2, 79620, Note_on_c, 0, 73, 0
2, 79621, Note_on_c, 0, 74, 47
2, 79680, Note_on_c, 0, 74, 0
2, 79681, Note_on_c, 0, 76, 63
2, 79740, Note_on_c, 0, 76, 0
2, 79741, Note_on_c, 0, 78, 63
2, 79800, Note_on_c, 0, 78, 0
2, 79801, Note_on_c, 0, 80, 63
2, 79860, Note_on_c, 0, 80, 0
2, 79861, Note_on_c, 0, 81, 63
2, 79920, Note_on_c, 0, 81, 0
2, 79921, Note_on_c, 0, 71, 63
2, 79980, Note_on_c, 0, 71, 0
2, 80042, Note_on_c, 0, 78, 47
2, 80160, Note_on_c, 0, 78, 0
2, 80161, Note_on_c, 0, 76, 47
2, 80280, Note_on_c, 0, 76, 0
2, 80281, Note_on_c, 0, 68, 31
2, 80400, Note_on_c, 0, 68, 0
2, 80401, Note_on_c, 0, 69, 31
2, 80520, Note_on_c, 0, 69, 0
2, 80762, Note_on_c, 0, 78, 31
2, 80880, Note_on_c, 0, 78, 0
2, 80881, Note_on_c, 0, 79, 31
2, 81000, Note_on_c, 0, 79, 0
2, 81001, Note_on_c, 0, 76, 31
2, 81120, Note_on_c, 0, 76, 0
2, 81121, Note_on_c, 0, 78, 31
2, 81240, Note_on_c, 0, 78, 0
2, 81241, Note_on_c, 0, 75, 31
2, 81360, Note_on_c, 0, 75, 0
2, 81361, Note_on_c, 0, 76, 31
2, 81480, Note_on_c, 0, 76, 0
2, 81481, Note_on_c, 0, 73, 31
2, 81600, Note_on_c, 0, 73, 0
2, 81601, Note_on_c, 0, 74, 31
2, 81660, Note_on_c, 0, 74, 0
2, 81722, Note_on_c, 0, 71, 31
2, 81780, Note_on_c, 0, 71, 0
2, 81842, Note_on_c, 0, 69, 31
2, 81900, Note_on_c, 0, 69, 0
2, 81901, Note_on_c, 0, 68, 31
2, 81960, Note_on_c, 0, 68, 0
2, 81961, Note_on_c, 0, 66, 31
2, 82020, Note_on_c, 0, 66, 0
2, 82021, Note_on_c, 0, 64, 31
2, 82080, Note_on_c, 0, 64, 0
2, 82081, Note_on_c, 0, 63, 31
2, 82140, Note_on_c, 0, 63, 0
2, 82141, Note_on_c, 0, 64, 31
2, 82200, Note_on_c, 0, 64, 0
2, 82201, Note_on_c, 0, 66, 31
2, 82260, Note_on_c, 0, 66, 0
2, 82261, Note_on_c, 0, 68, 31
2, 82320, Note_on_c, 0, 68, 0
2, 82321, Note_on_c, 0, 69, 31
2, 82560, Note_on_c, 0, 69, 0
2, 82682, Note_on_c, 0, 73, 31
2, 82740, Note_on_c, 0, 73, 0
2, 82741, Note_on_c, 0, 71, 31
2, 82800, Note_on_c, 0, 71, 0
2, 82801, Note_on_c, 0, 69, 31
2, 82860, Note_on_c, 0, 69, 0
2, 82861, Note_on_c, 0, 68, 31
2, 82920, Note_on_c, 0, 68, 0
2, 82921, Note_on_c, 0, 66, 31
2, 82980, Note_on_c, 0, 66, 0
2, 82981, Note_on_c, 0, 64, 31
2, 83040, Note_on_c, 0, 64, 0
2, 83041, Note_on_c, 0, 63, 31
2, 83100, Note_on_c, 0, 63, 0
2, 83101, Note_on_c, 0, 64, 31
2, 83160, Note_on_c, 0, 64, 0
2, 83161, Note_on_c, 0, 66, 31
2, 83220, Note_on_c, 0, 66, 0
2, 83221, Note_on_c, 0, 68, 31
2, 83280, Note_on_c, 0, 68, 0
2, 83281, Note_on_c, 0, 69, 47
2, 83340, Note_on_c, 0, 69, 0
2, 83341, Note_on_c, 0, 71, 47
2, 83400, Note_on_c, 0, 71, 0
2, 83401, Note_on_c, 0, 73, 47
2, 83460, Note_on_c, 0, 73, 0
2, 83461, Note_on_c, 0, 74, 47
2, 83520, Note_on_c, 0, 74, 0
2, 83521, Note_on_c, 0, 76, 63
2, 83580, Note_on_c, 0, 76, 0
2, 83581, Note_on_c, 0, 78, 63
2, 83640, Note_on_c, 0, 78, 0
2, 83641, Note_on_c, 0, 80, 63
2, 83700, Note_on_c, 0, 80, 0
2, 83701, Note_on_c, 0, 81, 63
2, 83760, Note_on_c, 0, 81, 0
2, 83761, Note_on_c, 0, 71, 63
2, 83820, Note_on_c, 0, 71, 0
2, 83882, Note_on_c, 0, 78, 47
2, 84000, Note_on_c, 0, 78, 0
2, 84001, Note_on_c, 0, 76, 47
2, 84120, Note_on_c, 0, 76, 0
2, 84121, Note_on_c, 0, 68, 31
2, 84240, Note_on_c, 0, 68, 0
2, 84241, Note_on_c, 0, 69, 31
2, 84360, Note_on_c, 0, 69, 0
2, 84602, Note_on_c, 0, 81, 31
2, 84720, Note_on_c, 0, 81, 0
2, 84721, Note_on_c, 0, 83, 31
2, 84840, Note_on_c, 0, 83, 0
2, 84841, Note_on_c, 0, 80, 31
2, 84960, Note_on_c, 0, 80, 0
2, 84961, Note_on_c, 0, 81, 31
2, 85080, Note_on_c, 0, 81, 0
2, 85081, Note_on_c, 0, 78, 31
2, 85200, Note_on_c, 0, 78, 0
2, 85201, Note_on_c, 0, 79, 31
2, 85320, Note_on_c, 0, 79, 0
2, 85321, Note_on_c, 0, 76, 31
2, 85440, Note_on_c, 0, 76, 0
2, 85441, Note_on_c, 0, 78, 31
2, 85560, Note_on_c, 0, 78, 0
2, 85561, Note_on_c, 0, 76, 31
2, 85680, Note_on_c, 0, 76, 0
2, 85681, Note_on_c, 0, 74, 31
2, 85800, Note_on_c, 0, 74, 0
2, 85801, Note_on_c, 0, 79, 31
2, 85920, Note_on_c, 0, 79, 0
2, 85921, Note_on_c, 0, 73, 31
2, 86040, Note_on_c, 0, 73, 0
2, 86041, Note_on_c, 0, 78, 31
2, 86160, Note_on_c, 0, 78, 0
2, 86161, Note_on_c, 0, 71, 31
2, 86280, Note_on_c, 0, 71, 0
2, 86281, Note_on_c, 0, 76, 31
2, 86400, Note_on_c, 0, 76, 0
2, 86401, Note_on_c, 0, 69, 31
2, 86460, Note_on_c, 0, 69, 0
2, 86522, Note_on_c, 0, 74, 31
2, 86580, Note_on_c, 0, 74, 0
2, 86642, Note_on_c, 0, 74, 31
2, 86880, Note_on_c, 0, 74, 0
2, 87002, Note_on_c, 0, 74, 31
2, 87060, Note_on_c, 0, 74, 0
2, 87122, Note_on_c, 0, 74, 31
2, 87180, Note_on_c, 0, 74, 0
2, 87181, Note_on_c, 0, 73, 31
2, 87240, Note_on_c, 0, 73, 0
2, 87241, Note_on_c, 0, 71, 31
2, 87300, Note_on_c, 0, 71, 0
2, 87301, Note_on_c, 0, 69, 31
2, 87360, Note_on_c, 0, 69, 0
2, 87361, Note_on_c, 0, 68, 31
2, 87420, Note_on_c, 0, 68, 0
2, 87421, Note_on_c, 0, 69, 31
2, 87480, Note_on_c, 0, 69, 0
2, 87481, Note_on_c, 0, 71, 31
2, 87540, Note_on_c, 0, 71, 0
2, 87541, Note_on_c, 0, 73, 31
2, 87600, Note_on_c, 0, 73, 0
2, 87601, Note_on_c, 0, 74, 47
2, 87840, Note_on_c, 0, 74, 0
2, 87962, Note_on_c, 0, 74, 47
2, 88020, Note_on_c, 0, 74, 0
2, 88082, Note_on_c, 0, 74, 47
2, 88140, Note_on_c, 0, 74, 0
2, 88141, Note_on_c, 0, 73, 47
2, 88200, Note_on_c, 0, 73, 0
2, 88201, Note_on_c, 0, 71, 47
2, 88260, Note_on_c, 0, 71, 0
2, 88261, Note_on_c, 0, 69, 47
2, 88320, Note_on_c, 0, 69, 0
2, 88321, Note_on_c, 0, 68, 47
2, 88380, Note_on_c, 0, 68, 0
2, 88381, Note_on_c, 0, 69, 47
2, 88440, Note_on_c, 0, 69, 0
2, 88441, Note_on_c, 0, 71, 47
2, 88500, Note_on_c, 0, 71, 0
2, 88501, Note_on_c, 0, 73, 47
2, 88560, Note_on_c, 0, 73, 0
2, 88561, Note_on_c, 0, 74, 31
2, 88800, Note_on_c, 0, 74, 0
2, 88922, Note_on_c, 0, 81, 31
2, 88980, Note_on_c, 0, 81, 0
2, 89042, Note_on_c, 0, 81, 31
2, 89100, Note_on_c, 0, 81, 0
2, 89101, Note_on_c, 0, 71, 31
2, 89160, Note_on_c, 0, 71, 0
2, 89161, Note_on_c, 0, 73, 31
2, 89220, Note_on_c, 0, 73, 0
2, 89221, Note_on_c, 0, 71, 31
2, 89280, Note_on_c, 0, 71, 0
2, 89281, Note_on_c, 0, 79, 47
2, 89340, Note_on_c, 0, 79, 0
2, 89341, Note_on_c, 0, 78, 47
2, 89400, Note_on_c, 0, 78, 0
2, 89401, Note_on_c, 0, 76, 47
2, 89460, Note_on_c, 0, 76, 0
2, 89461, Note_on_c, 0, 74, 47
2, 89520, Note_on_c, 0, 74, 0
2, 89521, Note_on_c, 0, 73, 47
2, 89760, Note_on_c, 0, 73, 0
2, 89761, Note_on_c, 0, 81, 47
2, 89820, Note_on_c, 0, 81, 0
2, 89821, Note_on_c, 0, 79, 47
2, 89880, Note_on_c, 0, 79, 0
2, 89881, Note_on_c, 0, 78, 47
2, 89940, Note_on_c, 0, 78, 0
2, 89941, Note_on_c, 0, 76, 47
2, 90000, Note_on_c, 0, 76, 0
2, 90001, Note_on_c, 0, 74, 47
2, 90240, Note_on_c, 0, 74, 0
2, 90241, Note_on_c, 0, 83, 47
2, 90300, Note_on_c, 0, 83, 0
2, 90301, Note_on_c, 0, 81, 47
2, 90360, Note_on_c, 0, 81, 0
2, 90361, Note_on_c, 0, 79, 47
2, 90420, Note_on_c, 0, 79, 0
2, 90421, Note_on_c, 0, 78, 47
2, 90480, Note_on_c, 0, 78, 0
2, 90481, Note_on_c, 0, 76, 47
2, 90540, Note_on_c, 0, 76, 0
2, 90602, Note_on_c, 0, 78, 47
2, 90660, Note_on_c, 0, 78, 0
2, 90722, Note_on_c, 0, 79, 47
2, 90780, Note_on_c, 0, 79, 0
2, 90842, Note_on_c, 0, 78, 47
2, 90900, Note_on_c, 0, 78, 0
2, 90962, Note_on_c, 0, 76, 47
2, 91020, Note_on_c, 0, 76, 0
2, 91082, Note_on_c, 0, 83, 81
2, 91110, Note_on_c, 0, 83, 0
2, 91111, Note_on_c, 0, 81, 81
2, 91140, Note_on_c, 0, 81, 0
2, 91141, Note_on_c, 0, 80, 81
2, 91170, Note_on_c, 0, 80, 0
2, 91171, Note_on_c, 0, 81, 81
2, 91200, Note_on_c, 0, 81, 0
2, 91201, Note_on_c, 0, 83, 81
2, 91320, Note_on_c, 0, 83, 0
2, 91321, Note_on_c, 0, 80, 81
2, 91440, Note_on_c, 0, 80, 0
2, 91441, Note_on_c, 0, 81, 81
2, 91500, Note_on_c, 0, 81, 0
2, 91562, Note_on_c, 0, 86, 81
2, 91590, Note_on_c, 0, 86, 0
2, 91591, Note_on_c, 0, 85, 81
2, 91620, Note_on_c, 0, 85, 0
2, 91621, Note_on_c, 0, 83, 81
2, 91650, Note_on_c, 0, 83, 0
2, 91651, Note_on_c, 0, 85, 81
2, 91680, Note_on_c, 0, 85, 0
2, 91681, Note_on_c, 0, 86, 81
2, 91800, Note_on_c, 0, 86, 0
2, 91801, Note_on_c, 0, 83, 81
2, 91920, Note_on_c, 0, 83, 0
2, 91921, Note_on_c, 0, 81, 81
2, 91980, Note_on_c, 0, 81, 0
2, 92162, Note_on_c, 0, 81, 81
2, 92220, Note_on_c, 0, 81, 0
2, 92402, Note_on_c, 0, 81, 81
2, 92640, Note_on_c, 0, 81, 0
2, 93242, Note_on_c, 0, 71, 47
2, 93360, Note_on_c, 0, 71, 0
2, 93361, Note_on_c, 0, 72, 47
2, 93480, Note_on_c, 0, 72, 0
2, 93481, Note_on_c, 0, 70, 47
2, 93600, Note_on_c, 0, 70, 0
2, 93601, Note_on_c, 0, 71, 47
2, 93720, Note_on_c, 0, 71, 0
2, 93721, Note_on_c, 0, 69, 47
2, 93780, Note_on_c, 0, 69, 0
2, 93842, Note_on_c, 0, 69, 47
2, 93900, Note_on_c, 0, 69, 0
2, 93901, Note_on_c, 0, 67, 47
2, 93960, Note_on_c, 0, 67, 0
2, 93961, Note_on_c, 0, 66, 47
2, 94020, Note_on_c, 0, 66, 0
2, 94021, Note_on_c, 0, 64, 47
2, 94080, Note_on_c, 0, 64, 0
2, 94081, Note_on_c, 0, 63, 63
2, 94140, Note_on_c, 0, 63, 0
2, 94141, Note_on_c, 0, 64, 63
2, 94200, Note_on_c, 0, 64, 0
2, 94201, Note_on_c, 0, 66, 63
2, 94260, Note_on_c, 0, 66, 0
2, 94261, Note_on_c, 0, 67, 63
2, 94320, Note_on_c, 0, 67, 0
2, 94321, Note_on_c, 0, 69, 81
2, 94560, Note_on_c, 0, 69, 0
2, 94682, Note_on_c, 0, 67, 63
2, 94740, Note_on_c, 0, 67, 0
2, 94802, Note_on_c, 0, 67, 63
2, 94860, Note_on_c, 0, 67, 0
2, 94861, Note_on_c, 0, 66, 63
2, 94920, Note_on_c, 0, 66, 0
2, 94921, Note_on_c, 0, 64, 63
2, 94980, Note_on_c, 0, 64, 0
2, 94981, Note_on_c, 0, 62, 63
2, 95040, Note_on_c, 0, 62, 0
2, 95041, Note_on_c, 0, 61, 63
2, 95100, Note_on_c, 0, 61, 0
2, 95101, Note_on_c, 0, 62, 63
2, 95160, Note_on_c, 0, 62, 0
2, 95161, Note_on_c, 0, 64, 63
2, 95220, Note_on_c, 0, 64, 0
2, 95221, Note_on_c, 0, 66, 63
2, 95280, Note_on_c, 0, 66, 0
2, 95281, Note_on_c, 0, 67, 63
2, 95520, Note_on_c, 0, 67, 0
2, 95642, Note_on_c, 0, 79, 31
2, 95700, Note_on_c, 0, 79, 0
2, 95762, Note_on_c, 0, 79, 31
2, 95820, Note_on_c, 0, 79, 0
2, 95821, Note_on_c, 0, 78, 31
2, 95880, Note_on_c, 0, 78, 0
2, 95881, Note_on_c, 0, 76, 31
2, 95940, Note_on_c, 0, 76, 0
2, 95941, Note_on_c, 0, 74, 31
2, 96000, Note_on_c, 0, 74, 0
2, 96001, Note_on_c, 0, 73, 31
2, 96060, Note_on_c, 0, 73, 0
2, 96061, Note_on_c, 0, 74, 31
2, 96120, Note_on_c, 0, 74, 0
2, 96121, Note_on_c, 0, 76, 31
2, 96180, Note_on_c, 0, 76, 0
2, 96181, Note_on_c, 0, 78, 31
2, 96240, Note_on_c, 0, 78, 0
2, 96241, Note_on_c, 0, 79, 31
2, 96300, Note_on_c, 0, 79, 0
2, 96301, Note_on_c, 0, 74, 31
2, 96360, Note_on_c, 0, 74, 0
2, 96361, Note_on_c, 0, 81, 31
2, 96420, Note_on_c, 0, 81, 0
2, 96421, Note_on_c, 0, 74, 31
2, 96480, Note_on_c, 0, 74, 0
2, 96481, Note_on_c, 0, 83, 31
2, 96540, Note_on_c, 0, 83, 0
2, 96541, Note_on_c, 0, 74, 31
2, 96600, Note_on_c, 0, 74, 0
2, 96601, Note_on_c, 0, 81, 31
2, 96660, Note_on_c, 0, 81, 0
2, 96661, Note_on_c, 0, 74, 31
2, 96720, Note_on_c, 0, 74, 0
2, 96721, Note_on_c, 0, 81, 31
2, 96780, Note_on_c, 0, 81, 0
2, 96781, Note_on_c, 0, 80, 31
2, 96840, Note_on_c, 0, 80, 0
2, 96841, Note_on_c, 0, 78, 31
2, 96900, Note_on_c, 0, 78, 0
2, 96901, Note_on_c, 0, 76, 31
2, 96960, Note_on_c, 0, 76, 0
2, 96961, Note_on_c, 0, 75, 47
2, 97020, Note_on_c, 0, 75, 0
2, 97021, Note_on_c, 0, 76, 47
2, 97080, Note_on_c, 0, 76, 0
2, 97081, Note_on_c, 0, 78, 47
2, 97140, Note_on_c, 0, 78, 0
2, 97141, Note_on_c, 0, 79, 47
2, 97200, Note_on_c, 0, 79, 0
2, 97201, Note_on_c, 0, 81, 47
2, 97260, Note_on_c, 0, 81, 0
2, 97261, Note_on_c, 0, 76, 47
2, 97320, Note_on_c, 0, 76, 0
2, 97321, Note_on_c, 0, 83, 47
2, 97380, Note_on_c, 0, 83, 0
2, 97381, Note_on_c, 0, 76, 47
2, 97440, Note_on_c, 0, 76, 0
2, 97441, Note_on_c, 0, 84, 47
2, 97500, Note_on_c, 0, 84, 0
2, 97501, Note_on_c, 0, 76, 47
2, 97560, Note_on_c, 0, 76, 0
2, 97561, Note_on_c, 0, 83, 47
2, 97620, Note_on_c, 0, 83, 0
2, 97621, Note_on_c, 0, 76, 47
2, 97680, Note_on_c, 0, 76, 0
2, 97681, Note_on_c, 0, 83, 47
2, 97740, Note_on_c, 0, 83, 0
2, 97741, Note_on_c, 0, 82, 47
2, 97800, Note_on_c, 0, 82, 0
2, 97801, Note_on_c, 0, 80, 47
2, 97860, Note_on_c, 0, 80, 0
2, 97861, Note_on_c, 0, 78, 47
2, 97920, Note_on_c, 0, 78, 0
2, 97921, Note_on_c, 0, 77, 63
2, 97980, Note_on_c, 0, 77, 0
2, 97981, Note_on_c, 0, 79, 63
2, 98040, Note_on_c, 0, 79, 0
2, 98041, Note_on_c, 0, 80, 63
2, 98100, Note_on_c, 0, 80, 0
2, 98101, Note_on_c, 0, 81, 63
2, 98160, Note_on_c, 0, 81, 0
2, 98161, Note_on_c, 0, 83, 63
2, 98400, Note_on_c, 0, 83, 0
2, 98522, Note_on_c, 0, 81, 63
2, 98580, Note_on_c, 0, 81, 0
2, 98642, Note_on_c, 0, 81, 63
2, 98700, Note_on_c, 0, 81, 0
2, 98701, Note_on_c, 0, 80, 63
2, 98760, Note_on_c, 0, 80, 0
2, 98761, Note_on_c, 0, 78, 63
2, 98820, Note_on_c, 0, 78, 0
2, 98821, Note_on_c, 0, 76, 63
2, 98880, Note_on_c, 0, 76, 0
2, 98881, Note_on_c, 0, 75, 63
2, 98940, Note_on_c, 0, 75, 0
2, 98941, Note_on_c, 0, 76, 63
2, 99000, Note_on_c, 0, 76, 0
2, 99001, Note_on_c, 0, 78, 63
2, 99060, Note_on_c, 0, 78, 0
2, 99061, Note_on_c, 0, 80, 63
2, 99120, Note_on_c, 0, 80, 0
2, 99121, Note_on_c, 0, 81, 63
2, 99360, Note_on_c, 0, 81, 0
2, 99482, Note_on_c, 0, 79, 63
2, 99540, Note_on_c, 0, 79, 0
2, 99602, Note_on_c, 0, 79, 81
2, 99660, Note_on_c, 0, 79, 0
2, 99661, Note_on_c, 0, 78, 81
2, 99720, Note_on_c, 0, 78, 0
2, 99721, Note_on_c, 0, 76, 81
2, 99780, Note_on_c, 0, 76, 0
2, 99781, Note_on_c, 0, 74, 81
2, 99840, Note_on_c, 0, 74, 0
2, 99841, Note_on_c, 0, 78, 81
2, 99900, Note_on_c, 0, 78, 0
2, 99901, Note_on_c, 0, 76, 81
2, 99960, Note_on_c, 0, 76, 0
2, 99961, Note_on_c, 0, 74, 81
2, 100020, Note_on_c, 0, 74, 0
2, 100021, Note_on_c, 0, 73, 81
2, 100080, Note_on_c, 0, 73, 0
2, 100081, Note_on_c, 0, 76, 81
2, 100140, Note_on_c, 0, 76, 0
2, 100141, Note_on_c, 0, 74, 81
2, 100200, Note_on_c, 0, 74, 0
2, 100201, Note_on_c, 0, 73, 81
2, 100260, Note_on_c, 0, 73, 0
2, 100261, Note_on_c, 0, 71, 81
2, 100320, Note_on_c, 0, 71, 0
2, 100321, Note_on_c, 0, 74, 81
2, 100380, Note_on_c, 0, 74, 0
2, 100381, Note_on_c, 0, 73, 81
2, 100440, Note_on_c, 0, 73, 0
2, 100441, Note_on_c, 0, 71, 63
2, 100500, Note_on_c, 0, 71, 0
2, 100501, Note_on_c, 0, 69, 63
2, 100560, Note_on_c, 0, 69, 0
2, 100561, Note_on_c, 0, 71, 47
2, 100620, Note_on_c, 0, 71, 0
2, 100682, Note_on_c, 0, 76, 47
2, 100740, Note_on_c, 0, 76, 0
2, 100802, Note_on_c, 0, 69, 47
2, 100860, Note_on_c, 0, 69, 0
2, 100922, Note_on_c, 0, 74, 47
2, 100980, Note_on_c, 0, 74, 0
2, 101042, Note_on_c, 0, 67, 31
2, 101100, Note_on_c, 0, 67, 0
2, 101101, Note_on_c, 0, 71, 31
2, 101160, Note_on_c, 0, 71, 0
2, 101161, Note_on_c, 0, 69, 31
2, 101220, Note_on_c, 0, 69, 0
2, 101221, Note_on_c, 0, 67, 31
2, 101280, Note_on_c, 0, 67, 0
2, 101281, Note_on_c, 0, 66, 31
2, 101340, Note_on_c, 0, 66, 0
2, 101341, Note_on_c, 0, 69, 31
2, 101400, Note_on_c, 0, 69, 0
2, 101401, Note_on_c, 0, 67, 31
2, 101460, Note_on_c, 0, 67, 0
2, 101461, Note_on_c, 0, 66, 31
2, 101520, Note_on_c, 0, 66, 0
2, 101521, Note_on_c, 0, 64, 31
2, 101580, Note_on_c, 0, 64, 0
2, 101642, Note_on_c, 0, 71, 47
2, 101760, Note_on_c, 0, 71, 0
2, 101761, Note_on_c, 0, 69, 47
2, 101880, Note_on_c, 0, 69, 0
2, 101881, Note_on_c, 0, 61, 63
2, 101940, Note_on_c, 0, 61, 0
2, 102002, Note_on_c, 0, 62, 63
2, 102240, Note_on_c, 0, 62, 0
2, 102362, Note_on_c, 0, 78, 31
2, 102480, Note_on_c, 0, 78, 0
2, 102481, Note_on_c, 0, 79, 31
2, 102600, Note_on_c, 0, 79, 0
2, 102601, Note_on_c, 0, 76, 31
2, 102720, Note_on_c, 0, 76, 0
2, 102721, Note_on_c, 0, 78, 31
2, 102840, Note_on_c, 0, 78, 0
2, 102841, Note_on_c, 0, 75, 31
2, 102960, Note_on_c, 0, 75, 0
2, 102961, Note_on_c, 0, 76, 31
2, 103080, Note_on_c, 0, 76, 0
2, 103081, Note_on_c, 0, 73, 31
2, 103200, Note_on_c, 0, 73, 0
2, 103201, Note_on_c, 0, 74, 31
2, 103320, Note_on_c, 0, 74, 0
2, 103321, Note_on_c, 0, 81, 31
2, 103440, Note_on_c, 0, 81, 0
2, 103441, Note_on_c, 0, 80, 19
2, 103560, Note_on_c, 0, 80, 0
2, 103561, Note_on_c, 0, 83, 19
2, 103680, Note_on_c, 0, 83, 0
2, 103681, Note_on_c, 0, 81, 19
2, 103800, Note_on_c, 0, 81, 0
2, 103801, Note_on_c, 0, 85, 19
2, 103920, Note_on_c, 0, 85, 0
2, 103921, Note_on_c, 0, 83, 19
2, 104040, Note_on_c, 0, 83, 0
2, 104041, Note_on_c, 0, 86, 19
2, 104160, Note_on_c, 0, 86, 0
2, 104161, Note_on_c, 0, 85, 19
2, 104280, Note_on_c, 0, 85, 0
2, 104281, Note_on_c, 0, 88, 19
2, 104520, Note_on_c, 0, 88, 0
2, 104521, Note_on_c, 0, 86, 31
2, 104760, Note_on_c, 0, 86, 0
2, 104761, Note_on_c, 0, 85, 47
2, 105000, Note_on_c, 0, 85, 0
2, 105001, Note_on_c, 0, 83, 63
2, 105240, Note_on_c, 0, 83, 0
2, 105241, Note_on_c, 0, 81, 81
2, 105360, Note_on_c, 0, 81, 0
2, 105361, Note_on_c, 0, 83, 81
2, 105420, Note_on_c, 0, 83, 0
2, 105421, Note_on_c, 0, 85, 81
2, 105480, Note_on_c, 0, 85, 0
2, 105481, Note_on_c, 0, 86, 81
2, 105540, Note_on_c, 0, 86, 0
2, 105541, Note_on_c, 0, 88, 81
2, 105600, Note_on_c, 0, 88, 0
2, 105601, Note_on_c, 0, 81, 81
2, 105660, Note_on_c, 0, 81, 0
2, 105661, Note_on_c, 0, 84, 81
2, 105720, Note_on_c, 0, 84, 0
2, 105721, Note_on_c, 0, 83, 81
2, 105780, Note_on_c, 0, 83, 0
2, 105781, Note_on_c, 0, 81, 81
2, 105840, Note_on_c, 0, 81, 0
2, 105841, Note_on_c, 0, 79, 81
2, 105900, Note_on_c, 0, 79, 0
2, 105901, Note_on_c, 0, 83, 81
2, 105960, Note_on_c, 0, 83, 0
2, 105961, Note_on_c, 0, 81, 63
2, 106020, Note_on_c, 0, 81, 0
2, 106021, Note_on_c, 0, 79, 63
2, 106080, Note_on_c, 0, 79, 0
2, 106081, Note_on_c, 0, 78, 63
2, 106140, Note_on_c, 0, 78, 0
2, 106141, Note_on_c, 0, 81, 63
2, 106200, Note_on_c, 0, 81, 0
2, 106201, Note_on_c, 0, 79, 63
2, 106260, Note_on_c, 0, 79, 0
2, 106261, Note_on_c, 0, 78, 63
2, 106320, Note_on_c, 0, 78, 0
2, 106321, Note_on_c, 0, 76, 63
2, 106380, Note_on_c, 0, 76, 0
2, 106381, Note_on_c, 0, 75, 63
2, 106440, Note_on_c, 0, 75, 0
2, 106441, Note_on_c, 0, 76, 81
2, 106500, Note_on_c, 0, 76, 0
2, 106501, Note_on_c, 0, 75, 81
2, 106560, Note_on_c, 0, 75, 0
2, 106561, Note_on_c, 0, 76, 81
2, 106620, Note_on_c, 0, 76, 0
2, 106621, Note_on_c, 0, 78, 81
2, 106680, Note_on_c, 0, 78, 0
2, 106681, Note_on_c, 0, 76, 81
2, 106740, Note_on_c, 0, 76, 0
2, 106741, Note_on_c, 0, 74, 81
2, 106800, Note_on_c, 0, 74, 0
2, 106801, Note_on_c, 0, 73, 81
2, 106860, Note_on_c, 0, 73, 0
2, 106861, Note_on_c, 0, 74, 81
2, 106920, Note_on_c, 0, 74, 0
2, 106921, Note_on_c, 0, 76, 63
2, 106980, Note_on_c, 0, 76, 0
2, 106981, Note_on_c, 0, 74, 63
2, 107040, Note_on_c, 0, 74, 0
2, 107041, Note_on_c, 0, 73, 63
2, 107100, Note_on_c, 0, 73, 0
2, 107101, Note_on_c, 0, 71, 47
2, 107160, Note_on_c, 0, 71, 0
2, 107161, Note_on_c, 0, 69, 47
2, 107220, Note_on_c, 0, 69, 0
2, 107221, Note_on_c, 0, 67, 47
2, 107280, Note_on_c, 0, 67, 0
2, 107281, Note_on_c, 0, 66, 31
2, 107520, Note_on_c, 0, 66, 0
2, 107642, Note_on_c, 0, 62, 31
2, 107760, Note_on_c, 0, 62, 0
2, 107761, Note_on_c, 0, 64, 31
2, 107880, Note_on_c, 0, 64, 0
2, 107881, Note_on_c, 0, 61, 31
2, 108000, Note_on_c, 0, 61, 0
2, 108001, Note_on_c, 0, 62, 31
2, 108120, Note_on_c, 0, 62, 0
2, 108121, Note_on_c, 0, 71, 31
2, 108240, Note_on_c, 0, 71, 0
2, 108241, Note_on_c, 0, 72, 47
2, 108360, Note_on_c, 0, 72, 0
2, 108361, Note_on_c, 0, 70, 47
2, 108480, Note_on_c, 0, 70, 0
2, 108481, Note_on_c, 0, 71, 47
2, 108600, Note_on_c, 0, 71, 0
2, 108601, Note_on_c, 0, 68, 47
2, 108720, Note_on_c, 0, 68, 0
2, 108721, Note_on_c, 0, 69, 63
2, 108840, Note_on_c, 0, 69, 0
2, 108841, Note_on_c, 0, 66, 63
2, 108960, Note_on_c, 0, 66, 0
2, 108961, Note_on_c, 0, 67, 63
2, 109080, Note_on_c, 0, 67, 0
2, 109081, Note_on_c, 0, 71, 63
2, 109140, Note_on_c, 0, 71, 0
2, 109202, Note_on_c, 0, 62, 81
2, 109440, Note_on_c, 0, 62, 0
2, 109441, Note_on_c, 0, 61, 54
2, 109560, Note_on_c, 0, 61, 0
2, 109561, Note_on_c, 0, 74, 81
2, 109620, Note_on_c, 0, 74, 0
2, 109682, Note_on_c, 0, 74, 81
2, 109740, Note_on_c, 0, 74, 0
2, 109741, Note_on_c, 0, 73, 81
2, 109800, Note_on_c, 0, 73, 0
2, 109801, Note_on_c, 0, 71, 81
2, 109860, Note_on_c, 0, 71, 0
2, 109861, Note_on_c, 0, 69, 81
2, 109920, Note_on_c, 0, 69, 0
2, 109921, Note_on_c, 0, 68, 81
2, 109980, Note_on_c, 0, 68, 0
2, 109981, Note_on_c, 0, 69, 81
2, 110040, Note_on_c, 0, 69, 0
2, 110041, Note_on_c, 0, 71, 81
2, 110100, Note_on_c, 0, 71, 0
2, 110101, Note_on_c, 0, 73, 81
2, 110160, Note_on_c, 0, 73, 0
2, 110161, Note_on_c, 0, 74, 81
2, 110400, Note_on_c, 0, 74, 0
2, 110522, Note_on_c, 0, 81, 81
2, 110580, Note_on_c, 0, 81, 0
2, 110642, Note_on_c, 0, 81, 81
2, 110700, Note_on_c, 0, 81, 0
2, 110701, Note_on_c, 0, 79, 81
2, 110760, Note_on_c, 0, 79, 0
2, 110761, Note_on_c, 0, 78, 81
2, 110820, Note_on_c, 0, 78, 0
2, 110821, Note_on_c, 0, 76, 81
2, 110880, Note_on_c, 0, 76, 0
2, 110881, Note_on_c, 0, 75, 81
2, 110940, Note_on_c, 0, 75, 0
2, 110941, Note_on_c, 0, 76, 81
2, 111000, Note_on_c, 0, 76, 0
2, 111001, Note_on_c, 0, 78, 81
2, 111060, Note_on_c, 0, 78, 0
2, 111061, Note_on_c, 0, 79, 81
2, 111120, Note_on_c, 0, 79, 0
2, 111121, Note_on_c, 0, 81, 81
2, 111360, Note_on_c, 0, 81, 0
2, 111482, Note_on_c, 0, 86, 81
2, 111540, Note_on_c, 0, 86, 0
2, 111602, Note_on_c, 0, 86, 81
2, 111660, Note_on_c, 0, 86, 0
2, 111661, Note_on_c, 0, 85, 81
2, 111720, Note_on_c, 0, 85, 0
2, 111721, Note_on_c, 0, 83, 81
2, 111780, Note_on_c, 0, 83, 0
2, 111781, Note_on_c, 0, 81, 81
2, 111840, Note_on_c, 0, 81, 0
2, 111841, Note_on_c, 0, 80, 81
2, 111900, Note_on_c, 0, 80, 0
2, 111901, Note_on_c, 0, 81, 81
2, 111960, Note_on_c, 0, 81, 0
2, 111961, Note_on_c, 0, 83, 81
2, 112020, Note_on_c, 0, 83, 0
2, 112021, Note_on_c, 0, 85, 81
2, 112080, Note_on_c, 0, 85, 0
2, 112081, Note_on_c, 0, 86, 81
2, 112140, Note_on_c, 0, 86, 0
2, 112141, Note_on_c, 0, 81, 81
2, 112200, Note_on_c, 0, 81, 0
2, 112201, Note_on_c, 0, 85, 81
2, 112260, Note_on_c, 0, 85, 0
2, 112261, Note_on_c, 0, 79, 81
2, 112320, Note_on_c, 0, 79, 0
2, 112321, Note_on_c, 0, 83, 63
2, 112380, Note_on_c, 0, 83, 0
2, 112381, Note_on_c, 0, 78, 63
2, 112440, Note_on_c, 0, 78, 0
2, 112441, Note_on_c, 0, 81, 63
2, 112500, Note_on_c, 0, 81, 0
2, 112501, Note_on_c, 0, 76, 63
2, 112560, Note_on_c, 0, 76, 0
2, 112561, Note_on_c, 0, 78, 63
2, 112620, Note_on_c, 0, 78, 0
2, 112621, Note_on_c, 0, 74, 63
2, 112680, Note_on_c, 0, 74, 0
2, 112681, Note_on_c, 0, 78, 63
2, 112740, Note_on_c, 0, 78, 0
2, 112741, Note_on_c, 0, 73, 63
2, 112800, Note_on_c, 0, 73, 0
2, 112801, Note_on_c, 0, 76, 47
2, 112860, Note_on_c, 0, 76, 0
2, 112861, Note_on_c, 0, 71, 47
2, 112920, Note_on_c, 0, 71, 0
2, 112921, Note_on_c, 0, 75, 47
2, 112980, Note_on_c, 0, 75, 0
2, 112981, Note_on_c, 0, 71, 47
2, 113040, Note_on_c, 0, 71, 0
2, 113041, Note_on_c, 0, 76, 31
2, 113100, Note_on_c, 0, 76, 0
2, 113101, Note_on_c, 0, 71, 31
2, 113160, Note_on_c, 0, 71, 0
2, 113161, Note_on_c, 0, 75, 31
2, 113220, Note_on_c, 0, 75, 0
2, 113221, Note_on_c, 0, 71, 31
2, 113280, Note_on_c, 0, 71, 0
2, 113281, Note_on_c, 0, 76, 47
2, 113340, Note_on_c, 0, 76, 0
2, 113341, Note_on_c, 0, 71, 47
2, 113400, Note_on_c, 0, 71, 0
2, 113401, Note_on_c, 0, 78, 47
2, 113460, Note_on_c, 0, 78, 0
2, 113461, Note_on_c, 0, 71, 47
2, 113520, Note_on_c, 0, 71, 0
2, 113521, Note_on_c, 0, 79, 63
2, 113580, Note_on_c, 0, 79, 0
2, 113581, Note_on_c, 0, 71, 63
2, 113640, Note_on_c, 0, 71, 0
2, 113641, Note_on_c, 0, 78, 63
2, 113700, Note_on_c, 0, 78, 0
2, 113701, Note_on_c, 0, 71, 63
2, 113760, Note_on_c, 0, 71, 0
2, 113761, Note_on_c, 0, 79, 47
2, 113820, Note_on_c, 0, 79, 0
2, 113821, Note_on_c, 0, 71, 47
2, 113880, Note_on_c, 0, 71, 0
2, 113881, Note_on_c, 0, 73, 47
2, 113940, Note_on_c, 0, 73, 0
2, 113941, Note_on_c, 0, 69, 47
2, 114000, Note_on_c, 0, 69, 0
2, 114001, Note_on_c, 0, 74, 31
2, 114060, Note_on_c, 0, 74, 0
2, 114061, Note_on_c, 0, 69, 31
2, 114120, Note_on_c, 0, 69, 0
2, 114121, Note_on_c, 0, 73, 31
2, 114180, Note_on_c, 0, 73, 0
2, 114181, Note_on_c, 0, 69, 31
2, 114240, Note_on_c, 0, 69, 0
2, 114241, Note_on_c, 0, 74, 47
2, 114300, Note_on_c, 0, 74, 0
2, 114301, Note_on_c, 0, 69, 47
2, 114360, Note_on_c, 0, 69, 0
2, 114361, Note_on_c, 0, 76, 47
2, 114420, Note_on_c, 0, 76, 0
2, 114421, Note_on_c, 0, 69, 47
2, 114480, Note_on_c, 0, 69, 0
2, 114481, Note_on_c, 0, 78, 63
2, 114540, Note_on_c, 0, 78, 0
2, 114541, Note_on_c, 0, 69, 63
2, 114600, Note_on_c, 0, 69, 0
2, 114601, Note_on_c, 0, 76, 63
2, 114660, Note_on_c, 0, 76, 0
2, 114661, Note_on_c, 0, 69, 63
2, 114720, Note_on_c, 0, 69, 0
2, 114721, Note_on_c, 0, 78, 63
2, 114780, Note_on_c, 0, 78, 0
2, 114781, Note_on_c, 0, 69, 63
2, 114840, Note_on_c, 0, 69, 0
2, 114841, Note_on_c, 0, 76, 63
2, 114900, Note_on_c, 0, 76, 0
2, 114901, Note_on_c, 0, 69, 63
2, 114960, Note_on_c, 0, 69, 0
2, 114961, Note_on_c, 0, 76, 63
2, 115020, Note_on_c, 0, 76, 0
2, 115021, Note_on_c, 0, 75, 63
2, 115080, Note_on_c, 0, 75, 0
2, 115081, Note_on_c, 0, 73, 63
2, 115140, Note_on_c, 0, 73, 0
2, 115141, Note_on_c, 0, 71, 63
2, 115200, Note_on_c, 0, 71, 0
2, 115201, Note_on_c, 0, 70, 63
2, 115260, Note_on_c, 0, 70, 0
2, 115261, Note_on_c, 0, 71, 63
2, 115320, Note_on_c, 0, 71, 0
2, 115321, Note_on_c, 0, 73, 63
2, 115380, Note_on_c, 0, 73, 0
2, 115381, Note_on_c, 0, 75, 63
2, 115440, Note_on_c, 0, 75, 0
2, 115441, Note_on_c, 0, 76, 63
2, 115680, Note_on_c, 0, 76, 0
2, 115802, Note_on_c, 0, 74, 63
2, 115860, Note_on_c, 0, 74, 0
2, 115922, Note_on_c, 0, 74, 63
2, 115980, Note_on_c, 0, 74, 0
2, 115981, Note_on_c, 0, 73, 63
2, 116040, Note_on_c, 0, 73, 0
2, 116041, Note_on_c, 0, 71, 63
2, 116100, Note_on_c, 0, 71, 0
2, 116101, Note_on_c, 0, 69, 63
2, 116160, Note_on_c, 0, 69, 0
2, 116161, Note_on_c, 0, 68, 81
2, 116220, Note_on_c, 0, 68, 0
2, 116221, Note_on_c, 0, 69, 81
2, 116280, Note_on_c, 0, 69, 0
2, 116281, Note_on_c, 0, 71, 81
2, 116340, Note_on_c, 0, 71, 0
2, 116341, Note_on_c, 0, 73, 81
2, 116400, Note_on_c, 0, 73, 0
2, 116401, Note_on_c, 0, 74, 81
2, 116640, Note_on_c, 0, 74, 0
2, 116762, Note_on_c, 0, 81, 81
2, 116820, Note_on_c, 0, 81, 0
2, 116882, Note_on_c, 0, 81, 81
2, 116940, Note_on_c, 0, 81, 0
2, 116941, Note_on_c, 0, 71, 81
2, 117000, Note_on_c, 0, 71, 0
2, 117001, Note_on_c, 0, 73, 81
2, 117060, Note_on_c, 0, 73, 0
2, 117061, Note_on_c, 0, 71, 81
2, 117120, Note_on_c, 0, 71, 0
2, 117121, Note_on_c, 0, 79, 81
2, 117180, Note_on_c, 0, 79, 0
2, 117181, Note_on_c, 0, 78, 81
2, 117240, Note_on_c, 0, 78, 0
2, 117241, Note_on_c, 0, 76, 81
2, 117300, Note_on_c, 0, 76, 0
2, 117301, Note_on_c, 0, 74, 81
2, 117360, Note_on_c, 0, 74, 0
2, 117361, Note_on_c, 0, 73, 81
2, 117600, Note_on_c, 0, 73, 0
2, 117601, Note_on_c, 0, 81, 81
2, 117660, Note_on_c, 0, 81, 0
2, 117661, Note_on_c, 0, 79, 81
2, 117720, Note_on_c, 0, 79, 0
2, 117721, Note_on_c, 0, 78, 81
2, 117780, Note_on_c, 0, 78, 0
2, 117781, Note_on_c, 0, 76, 81
2, 117840, Note_on_c, 0, 76, 0
2, 117841, Note_on_c, 0, 74, 81
2, 118080, Note_on_c, 0, 74, 0
2, 118081, Note_on_c, 0, 83, 81
2, 118140, Note_on_c, 0, 83, 0
2, 118141, Note_on_c, 0, 81, 81
2, 118200, Note_on_c, 0, 81, 0
2, 118201, Note_on_c, 0, 79, 81
2, 118260, Note_on_c, 0, 79, 0
2, 118261, Note_on_c, 0, 78, 81
2, 118320, Note_on_c, 0, 78, 0
2, 118321, Note_on_c, 0, 76, 81
2, 118380, Note_on_c, 0, 76, 0
2, 118442, Note_on_c, 0, 78, 81
2, 118500, Note_on_c, 0, 78, 0
2, 118562, Note_on_c, 0, 79, 81
2, 118620, Note_on_c, 0, 79, 0
2, 118682, Note_on_c, 0, 78, 81
2, 118740, Note_on_c, 0, 78, 0
2, 118802, Note_on_c, 0, 76, 81
2, 118860, Note_on_c, 0, 76, 0
2, 118922, Note_on_c, 0, 81, 81
2, 118980, Note_on_c, 0, 81, 0
2, 118981, Note_on_c, 0, 80, 81
2, 119040, Note_on_c, 0, 80, 0
2, 119041, Note_on_c, 0, 81, 81
2, 119100, Note_on_c, 0, 81, 0
2, 119101, Note_on_c, 0, 80, 81
2, 119160, Note_on_c, 0, 80, 0
2, 119161, Note_on_c, 0, 81, 81
2, 119220, Note_on_c, 0, 81, 0
2, 119221, Note_on_c, 0, 80, 81
2, 119280, Note_on_c, 0, 80, 0
2, 119281, Note_on_c, 0, 81, 81
2, 119340, Note_on_c, 0, 81, 0
2, 119341, Note_on_c, 0, 80, 81
2, 119400, Note_on_c, 0, 80, 0
2, 119401, Note_on_c, 0, 81, 81
2, 119460, Note_on_c, 0, 81, 0
2, 119461, Note_on_c, 0, 80, 81
2, 119520, Note_on_c, 0, 80, 0
2, 119521, Note_on_c, 0, 81, 81
2, 119580, Note_on_c, 0, 81, 0
2, 119581, Note_on_c, 0, 80, 81
2, 119640, Note_on_c, 0, 80, 0
2, 119641, Note_on_c, 0, 81, 81
2, 119700, Note_on_c, 0, 81, 0
2, 119701, Note_on_c, 0, 80, 81
2, 119760, Note_on_c, 0, 80, 0
2, 119761, Note_on_c, 0, 81, 81
2, 120120, Note_on_c, 0, 81, 0
2, 120121, Note_on_c, 0, 82, 31
2, 120240, Note_on_c, 0, 82, 0
2, 120241, Note_on_c, 0, 83, 31
2, 120360, Note_on_c, 0, 83, 0
2, 120361, Note_on_c, 0, 80, 31
2, 120480, Note_on_c, 0, 80, 0
2, 120481, Note_on_c, 0, 81, 31
2, 120600, Note_on_c, 0, 81, 0
2, 120601, Note_on_c, 0, 78, 31
2, 120720, Note_on_c, 0, 78, 0
2, 120721, Note_on_c, 0, 79, 31
2, 120840, Note_on_c, 0, 79, 0
2, 120841, Note_on_c, 0, 77, 31
2, 120960, Note_on_c, 0, 77, 0
2, 120961, Note_on_c, 0, 78, 31
2, 121080, Note_on_c, 0, 78, 0
2, 121081, Note_on_c, 0, 75, 31
2, 121200, Note_on_c, 0, 75, 0
2, 121201, Note_on_c, 0, 76, 31
2, 121320, Note_on_c, 0, 76, 0
2, 121321, Note_on_c, 0, 73, 31
2, 121440, Note_on_c, 0, 73, 0
2, 121441, Note_on_c, 0, 74, 31
2, 121560, Note_on_c, 0, 74, 0
2, 121561, Note_on_c, 0, 79, 81
2, 121620, Note_on_c, 0, 79, 0
2, 121682, Note_on_c, 0, 78, 81
2, 121800, Note_on_c, 0, 78, 0
2, 121801, Note_on_c, 0, 81, 81
2, 121920, Note_on_c, 0, 81, 0
2, 121921, Note_on_c, 0, 73, 81
2, 122040, Note_on_c, 0, 73, 0
2, 122041, Note_on_c, 0, 76, 81
2, 122160, Note_on_c, 0, 76, 0
2, 122161, Note_on_c, 0, 74, 81
2, 122400, Note_on_c, 0, 74, 0
2, 122522, Note_on_c, 0, 86, 31
2, 122580, Note_on_c, 0, 86, 0
2, 122642, Note_on_c, 0, 86, 31
2, 122700, Note_on_c, 0, 86, 0
2, 122701, Note_on_c, 0, 85, 31
2, 122760, Note_on_c, 0, 85, 0
2, 122761, Note_on_c, 0, 83, 31
2, 122820, Note_on_c, 0, 83, 0
2, 122821, Note_on_c, 0, 81, 31
2, 122880, Note_on_c, 0, 81, 0
2, 122881, Note_on_c, 0, 80, 31
2, 122940, Note_on_c, 0, 80, 0
2, 122941, Note_on_c, 0, 81, 31
2, 123000, Note_on_c, 0, 81, 0
2, 123001, Note_on_c, 0, 83, 31
2, 123060, Note_on_c, 0, 83, 0
2, 123061, Note_on_c, 0, 85, 31
2, 123120, Note_on_c, 0, 85, 0
2, 123121, Note_on_c, 0, 86, 31
2, 123180, Note_on_c, 0, 86, 0
2, 123181, Note_on_c, 0, 85, 31
2, 123240, Note_on_c, 0, 85, 0
2, 123241, Note_on_c, 0, 83, 31
2, 123300, Note_on_c, 0, 83, 0
2, 123301, Note_on_c, 0, 81, 31
2, 123360, Note_on_c, 0, 81, 0
2, 123361, Note_on_c, 0, 79, 31
2, 123420, Note_on_c, 0, 79, 0
2, 123421, Note_on_c, 0, 78, 31
2, 123480, Note_on_c, 0, 78, 0
2, 123481, Note_on_c, 0, 76, 31
2, 123540, Note_on_c, 0, 76, 0
2, 123541, Note_on_c, 0, 74, 31
2, 123600, Note_on_c, 0, 74, 0
2, 123601, Note_on_c, 0, 74, 31
2, 123660, Note_on_c, 0, 74, 0
2, 123661, Note_on_c, 0, 73, 31
2, 123720, Note_on_c, 0, 73, 0
2, 123721, Note_on_c, 0, 71, 31
2, 123780, Note_on_c, 0, 71, 0
2, 123781, Note_on_c, 0, 69, 31
2, 123840, Note_on_c, 0, 69, 0
2, 123841, Note_on_c, 0, 68, 31
2, 123900, Note_on_c, 0, 68, 0
2, 123901, Note_on_c, 0, 69, 31
2, 123960, Note_on_c, 0, 69, 0
2, 123961, Note_on_c, 0, 71, 31
2, 124020, Note_on_c, 0, 71, 0
2, 124021, Note_on_c, 0, 73, 31
2, 124080, Note_on_c, 0, 73, 0
2, 124081, Note_on_c, 0, 74, 31
2, 124200, Note_on_c, 0, 74, 0
2, 124201, Note_on_c, 0, 78, 31
2, 124260, Note_on_c, 0, 78, 0
2, 124322, Note_on_c, 0, 81, 31
2, 124380, Note_on_c, 0, 81, 0
2, 124562, Note_on_c, 0, 79, 63
2, 124800, Note_on_c, 0, 79, 0
2, 125042, Note_on_c, 0, 78, 63
2, 125280, Note_on_c, 0, 78, 0
2, 125522, Note_on_c, 0, 79, 63
2, 125760, Note_on_c, 0, 79, 0
2, 126002, Note_on_c, 0, 78, 63
2, 126120, Note_on_c, 0, 78, 0
2, 126242, Note_on_c, 0, 86, 81
2, 126360, Note_on_c, 0, 86, 0
2, 126482, Note_on_c, 0, 83, 81
2, 126600, Note_on_c, 0, 83, 0
2, 126722, Note_on_c, 0, 73, 81
2, 126840, Note_on_c, 0, 73, 0
2, 126962, Note_on_c, 0, 74, 81
2, 127200, Note_on_c, 0, 74, 0
2, 127322, Note_on_c, 0, 74, 63
2, 127380, Note_on_c, 0, 74, 0
2, 127442, Note_on_c, 0, 74, 63
2, 127500, Note_on_c, 0, 74, 0
2, 127501, Note_on_c, 0, 73, 63
2, 127560, Note_on_c, 0, 73, 0
2, 127561, Note_on_c, 0, 71, 63
2, 127620, Note_on_c, 0, 71, 0
2, 127621, Note_on_c, 0, 69, 63
2, 127680, Note_on_c, 0, 69, 0
2, 127681, Note_on_c, 0, 68, 63
2, 127740, Note_on_c, 0, 68, 0
2, 127741, Note_on_c, 0, 69, 63
2, 127800, Note_on_c, 0, 69, 0
2, 127801, Note_on_c, 0, 71, 63
2, 127860, Note_on_c, 0, 71, 0
2, 127861, Note_on_c, 0, 73, 63
2, 127920, Note_on_c, 0, 73, 0
2, 127921, Note_on_c, 0, 74, 63
2, 128160, Note_on_c, 0, 74, 0
2, 128282, Note_on_c, 0, 62, 31
2, 128340, Note_on_c, 0, 62, 0
2, 128402, Note_on_c, 0, 61, 31
2, 128460, Note_on_c, 0, 61, 0
2, 128461, Note_on_c, 0, 62, 31
2, 128520, Note_on_c, 0, 62, 0
2, 128521, Note_on_c, 0, 64, 31
2, 128580, Note_on_c, 0, 64, 0
2, 128581, Note_on_c, 0, 66, 31
2, 128640, Note_on_c, 0, 66, 0
2, 128641, Note_on_c, 0, 69, 31
2, 128700, Note_on_c, 0, 69, 0
2, 128701, Note_on_c, 0, 67, 31
2, 128760, Note_on_c, 0, 67, 0
2, 128761, Note_on_c, 0, 66, 31
2, 128820, Note_on_c, 0, 66, 0
2, 128821, Note_on_c, 0, 64, 31
2, 128880, Note_on_c, 0, 64, 0
2, 128881, Note_on_c, 0, 62, 31
2, 129120, Note_on_c, 0, 62, 0
2, 129120, End_track
3, 0, Start_track
3, 0, MIDI_port, 0
3, 0, Title_t, "(Augener Edition) by Joseph"
3, 0, Program_c, 1, 0
3, 0, Program_c, 1, 0
3, 0, Control_c, 1, 7, 127
3, 721, Note_on_c, 1, 66, 25
3, 839, Note_on_c, 1, 66, 0
3, 961, Note_on_c, 1, 66, 25
3, 1079, Note_on_c, 1, 66, 0
3, 1441, Note_on_c, 1, 67, 25
3, 1679, Note_on_c, 1, 67, 0
3, 1680, Note_on_c, 1, 66, 25
3, 1799, Note_on_c, 1, 66, 0
3, 2161, Note_on_c, 1, 71, 31
3, 2279, Note_on_c, 1, 71, 0
3, 2371, Note_on_c, 1, 69, 31
3, 2399, Note_on_c, 1, 69, 0
3, 2400, Note_on_c, 1, 67, 31
3, 2519, Note_on_c, 1, 67, 0
3, 2611, Note_on_c, 1, 66, 25
3, 2639, Note_on_c, 1, 66, 0
3, 2640, Note_on_c, 1, 64, 25
3, 2759, Note_on_c, 1, 64, 0
3, 2851, Note_on_c, 1, 62, 25
3, 2879, Note_on_c, 1, 62, 0
3, 3841, Note_on_c, 1, 61, 63
3, 4079, Note_on_c, 1, 61, 0
3, 4321, Note_on_c, 1, 79, 63
3, 4559, Note_on_c, 1, 79, 0
3, 4560, Note_on_c, 1, 78, 63
3, 4919, Note_on_c, 1, 78, 0
3, 4920, Note_on_c, 1, 75, 25
3, 5039, Note_on_c, 1, 75, 0
3, 5040, Note_on_c, 1, 76, 25
3, 5159, Note_on_c, 1, 76, 0
3, 5160, Note_on_c, 1, 73, 25
3, 5279, Note_on_c, 1, 73, 0
3, 5280, Note_on_c, 1, 74, 25
3, 5399, Note_on_c, 1, 74, 0
3, 5400, Note_on_c, 1, 66, 25
3, 5519, Note_on_c, 1, 66, 0
3, 5520, Note_on_c, 1, 67, 31
3, 5639, Note_on_c, 1, 67, 0
3, 5640, Note_on_c, 1, 68, 31
3, 5759, Note_on_c, 1, 68, 0
3, 5760, Note_on_c, 1, 69, 25
3, 5999, Note_on_c, 1, 69, 0
3, 7141, Note_on_c, 1, 63, 31
3, 7169, Note_on_c, 1, 63, 0
3, 7201, Note_on_c, 1, 64, 41
3, 7259, Note_on_c, 1, 64, 0
3, 7260, Note_on_c, 1, 67, 41
3, 7319, Note_on_c, 1, 67, 0
3, 7320, Note_on_c, 1, 66, 41
3, 7379, Note_on_c, 1, 66, 0
3, 7380, Note_on_c, 1, 69, 25
3, 7439, Note_on_c, 1, 69, 0
3, 7440, Note_on_c, 1, 67, 25
3, 7559, Note_on_c, 1, 67, 0
3, 7861, Note_on_c, 1, 61, 25
3, 7889, Note_on_c, 1, 61, 0
3, 8401, Note_on_c, 1, 81, 62
3, 8459, Note_on_c, 1, 81, 0
3, 8460, Note_on_c, 1, 79, 62
3, 8519, Note_on_c, 1, 79, 0
3, 8520, Note_on_c, 1, 78, 62
3, 8579, Note_on_c, 1, 78, 0
3, 8580, Note_on_c, 1, 76, 62
3, 8639, Note_on_c, 1, 76, 0
3, 8640, Note_on_c, 1, 74, 41
3, 8879, Note_on_c, 1, 74, 0
3, 8880, Note_on_c, 1, 73, 13
3, 8999, Note_on_c, 1, 73, 0
3, 9361, Note_on_c, 1, 66, 25
3, 9479, Note_on_c, 1, 66, 0
3, 9601, Note_on_c, 1, 66, 25
3, 9719, Note_on_c, 1, 66, 0
3, 10081, Note_on_c, 1, 67, 25
3, 10319, Note_on_c, 1, 67, 0
3, 10320, Note_on_c, 1, 66, 25
3, 10439, Note_on_c, 1, 66, 0
3, 10561, Note_on_c, 1, 62, 25
3, 10599, Note_on_c, 1, 62, 0
3, 10600, Note_on_c, 1, 66, 25
3, 10639, Note_on_c, 1, 66, 0
3, 10640, Note_on_c, 1, 69, 25
3, 10679, Note_on_c, 1, 69, 0
3, 10801, Note_on_c, 1, 74, 41
3, 10919, Note_on_c, 1, 74, 0
3, 11011, Note_on_c, 1, 73, 41
3, 11039, Note_on_c, 1, 73, 0
3, 11040, Note_on_c, 1, 71, 41
3, 11159, Note_on_c, 1, 71, 0
3, 11251, Note_on_c, 1, 69, 41
3, 11279, Note_on_c, 1, 69, 0
3, 11280, Note_on_c, 1, 67, 41
3, 11399, Note_on_c, 1, 67, 0
3, 11491, Note_on_c, 1, 66, 41
3, 11519, Note_on_c, 1, 66, 0
3, 11520, Note_on_c, 1, 62, 41
3, 11759, Note_on_c, 1, 62, 0
3, 11760, Note_on_c, 1, 61, 25
3, 11819, Note_on_c, 1, 61, 0
3, 12481, Note_on_c, 1, 61, 84
3, 12719, Note_on_c, 1, 61, 0
3, 12961, Note_on_c, 1, 61, 107
3, 13199, Note_on_c, 1, 61, 0
3, 13200, Note_on_c, 1, 63, 107
3, 13439, Note_on_c, 1, 63, 0
3, 13440, Note_on_c, 1, 64, 107
3, 13679, Note_on_c, 1, 64, 0
3, 13680, Note_on_c, 1, 66, 107
3, 14159, Note_on_c, 1, 66, 0
3, 14160, Note_on_c, 1, 67, 41
3, 14279, Note_on_c, 1, 67, 0
3, 14280, Note_on_c, 1, 67, 25
3, 14399, Note_on_c, 1, 67, 0
3, 14400, Note_on_c, 1, 66, 25
3, 14519, Note_on_c, 1, 66, 0
3, 16561, Note_on_c, 1, 71, 107
3, 16679, Note_on_c, 1, 71, 0
3, 16680, Note_on_c, 1, 69, 62
3, 16799, Note_on_c, 1, 69, 0
3, 16800, Note_on_c, 1, 67, 107
3, 16919, Note_on_c, 1, 67, 0
3, 16920, Note_on_c, 1, 66, 62
3, 17039, Note_on_c, 1, 66, 0
3, 17040, Note_on_c, 1, 64, 107
3, 17159, Note_on_c, 1, 64, 0
3, 17160, Note_on_c, 1, 62, 62
3, 17279, Note_on_c, 1, 62, 0
3, 18721, Note_on_c, 1, 67, 25
3, 18959, Note_on_c, 1, 67, 0
3, 18960, Note_on_c, 1, 66, 25
3, 19199, Note_on_c, 1, 66, 0
3, 19200, Note_on_c, 1, 72, 25
3, 19439, Note_on_c, 1, 72, 0
3, 19440, Note_on_c, 1, 71, 41
3, 19559, Note_on_c, 1, 71, 0
3, 19560, Note_on_c, 1, 73, 41
3, 19679, Note_on_c, 1, 73, 0
3, 19680, Note_on_c, 1, 74, 41
3, 19799, Note_on_c, 1, 74, 0
3, 19800, Note_on_c, 1, 69, 25
3, 19919, Note_on_c, 1, 69, 0
3, 19920, Note_on_c, 1, 71, 25
3, 20159, Note_on_c, 1, 71, 0
3, 23521, Note_on_c, 1, 69, 41
3, 23579, Note_on_c, 1, 69, 0
3, 23580, Note_on_c, 1, 66, 41
3, 23639, Note_on_c, 1, 66, 0
3, 23640, Note_on_c, 1, 67, 41
3, 23699, Note_on_c, 1, 67, 0
3, 23700, Note_on_c, 1, 64, 41
3, 23759, Note_on_c, 1, 64, 0
3, 23760, Note_on_c, 1, 66, 62
3, 23879, Note_on_c, 1, 66, 0
3, 24001, Note_on_c, 1, 66, 62
3, 24119, Note_on_c, 1, 66, 0
3, 24481, Note_on_c, 1, 67, 62
3, 24719, Note_on_c, 1, 67, 0
3, 24720, Note_on_c, 1, 66, 41
3, 24839, Note_on_c, 1, 66, 0
3, 25201, Note_on_c, 1, 74, 62
3, 25319, Note_on_c, 1, 74, 0
3, 25411, Note_on_c, 1, 73, 62
3, 25439, Note_on_c, 1, 73, 0
3, 25440, Note_on_c, 1, 71, 62
3, 25559, Note_on_c, 1, 71, 0
3, 25651, Note_on_c, 1, 69, 62
3, 25679, Note_on_c, 1, 69, 0
3, 25680, Note_on_c, 1, 67, 62
3, 25799, Note_on_c, 1, 67, 0
3, 25891, Note_on_c, 1, 66, 62
3, 25919, Note_on_c, 1, 66, 0
3, 26881, Note_on_c, 1, 61, 84
3, 27119, Note_on_c, 1, 61, 0
3, 27361, Note_on_c, 1, 61, 107
3, 27599, Note_on_c, 1, 61, 0
3, 27600, Note_on_c, 1, 63, 107
3, 27839, Note_on_c, 1, 63, 0
3, 27840, Note_on_c, 1, 64, 107
3, 28079, Note_on_c, 1, 64, 0
3, 28681, Note_on_c, 1, 67, 25
3, 28739, Note_on_c, 1, 67, 0
3, 28801, Note_on_c, 1, 67, 25
3, 29039, Note_on_c, 1, 67, 0
3, 29040, Note_on_c, 1, 66, 13
3, 29159, Note_on_c, 1, 66, 0
3, 29521, Note_on_c, 1, 65, 84
3, 29699, Note_on_c, 1, 65, 0
3, 29700, Note_on_c, 1, 65, 84
3, 29759, Note_on_c, 1, 65, 0
3, 29760, Note_on_c, 1, 65, 84
3, 29879, Note_on_c, 1, 65, 0
3, 30241, Note_on_c, 1, 74, 84
3, 30419, Note_on_c, 1, 74, 0
3, 30420, Note_on_c, 1, 74, 84
3, 30479, Note_on_c, 1, 74, 0
3, 30480, Note_on_c, 1, 74, 84
3, 30719, Note_on_c, 1, 74, 0
3, 30720, Note_on_c, 1, 73, 84
3, 30779, Note_on_c, 1, 73, 0
3, 30841, Note_on_c, 1, 76, 84
3, 30899, Note_on_c, 1, 76, 0
3, 30961, Note_on_c, 1, 76, 84
3, 31079, Note_on_c, 1, 76, 0
3, 31080, Note_on_c, 1, 74, 84
3, 31199, Note_on_c, 1, 74, 0
3, 31200, Note_on_c, 1, 74, 84
3, 31439, Note_on_c, 1, 74, 0
3, 31440, Note_on_c, 1, 79, 84
3, 31679, Note_on_c, 1, 79, 0
3, 31680, Note_on_c, 1, 65, 84
3, 31919, Note_on_c, 1, 65, 0
3, 31920, Note_on_c, 1, 67, 84
3, 32159, Note_on_c, 1, 67, 0
3, 32160, Note_on_c, 1, 69, 84
3, 32399, Note_on_c, 1, 69, 0
3, 32400, Note_on_c, 1, 70, 84
3, 32639, Note_on_c, 1, 70, 0
3, 32640, Note_on_c, 1, 69, 84
3, 32879, Note_on_c, 1, 69, 0
3, 32880, Note_on_c, 1, 70, 84
3, 33119, Note_on_c, 1, 70, 0
3, 33120, Note_on_c, 1, 74, 84
3, 33239, Note_on_c, 1, 74, 0
3, 33240, Note_on_c, 1, 72, 84
3, 33359, Note_on_c, 1, 72, 0
3, 33360, Note_on_c, 1, 70, 84
3, 33479, Note_on_c, 1, 70, 0
3, 33480, Note_on_c, 1, 69, 84
3, 33599, Note_on_c, 1, 69, 0
3, 33600, Note_on_c, 1, 67, 62
3, 33719, Note_on_c, 1, 67, 0
3, 33720, Note_on_c, 1, 64, 62
3, 33839, Note_on_c, 1, 64, 0
3, 35521, Note_on_c, 1, 72, 84
3, 35699, Note_on_c, 1, 72, 0
3, 35700, Note_on_c, 1, 72, 84
3, 35759, Note_on_c, 1, 72, 0
3, 35760, Note_on_c, 1, 72, 84
3, 35999, Note_on_c, 1, 72, 0
3, 36241, Note_on_c, 1, 84, 84
3, 36419, Note_on_c, 1, 84, 0
3, 36420, Note_on_c, 1, 84, 84
3, 36479, Note_on_c, 1, 84, 0
3, 36480, Note_on_c, 1, 84, 84
3, 36659, Note_on_c, 1, 84, 0
3, 38201, Note_on_c, 1, 77, 84
3, 38219, Note_on_c, 1, 77, 0
3, 38241, Note_on_c, 1, 77, 84
3, 38259, Note_on_c, 1, 77, 0
3, 38281, Note_on_c, 1, 77, 84
3, 38319, Note_on_c, 1, 77, 0
3, 38320, Note_on_c, 1, 76, 84
3, 38359, Note_on_c, 1, 76, 0
3, 38360, Note_on_c, 1, 74, 84
3, 38399, Note_on_c, 1, 74, 0
3, 38441, Note_on_c, 1, 82, 84
3, 38459, Note_on_c, 1, 82, 0
3, 38481, Note_on_c, 1, 82, 84
3, 38499, Note_on_c, 1, 82, 0
3, 38521, Note_on_c, 1, 82, 84
3, 38559, Note_on_c, 1, 82, 0
3, 38560, Note_on_c, 1, 81, 84
3, 38599, Note_on_c, 1, 81, 0
3, 38600, Note_on_c, 1, 79, 84
3, 38639, Note_on_c, 1, 79, 0
3, 38681, Note_on_c, 1, 74, 84
3, 38699, Note_on_c, 1, 74, 0
3, 38721, Note_on_c, 1, 74, 84
3, 38739, Note_on_c, 1, 74, 0
3, 38801, Note_on_c, 1, 72, 84
3, 38819, Note_on_c, 1, 72, 0
3, 38841, Note_on_c, 1, 72, 84
3, 38859, Note_on_c, 1, 72, 0
3, 38921, Note_on_c, 1, 70, 84
3, 38939, Note_on_c, 1, 70, 0
3, 38961, Note_on_c, 1, 70, 84
3, 38979, Note_on_c, 1, 70, 0
3, 39041, Note_on_c, 1, 67, 84
3, 39059, Note_on_c, 1, 67, 0
3, 39081, Note_on_c, 1, 67, 84
3, 39099, Note_on_c, 1, 67, 0
3, 41641, Note_on_c, 1, 67, 25
3, 41699, Note_on_c, 1, 67, 0
3, 41761, Note_on_c, 1, 67, 25
3, 41999, Note_on_c, 1, 67, 0
3, 42000, Note_on_c, 1, 65, 13
3, 42119, Note_on_c, 1, 65, 0
3, 42421, Note_on_c, 1, 58, 84
3, 42479, Note_on_c, 1, 58, 0
3, 42480, Note_on_c, 1, 62, 84
3, 42659, Note_on_c, 1, 62, 0
3, 42660, Note_on_c, 1, 62, 84
3, 42719, Note_on_c, 1, 62, 0
3, 42720, Note_on_c, 1, 62, 84
3, 42959, Note_on_c, 1, 62, 0
3, 43141, Note_on_c, 1, 62, 84
3, 43199, Note_on_c, 1, 62, 0
3, 43200, Note_on_c, 1, 65, 84
3, 43379, Note_on_c, 1, 65, 0
3, 43380, Note_on_c, 1, 65, 84
3, 43439, Note_on_c, 1, 65, 0
3, 43440, Note_on_c, 1, 65, 84
3, 43679, Note_on_c, 1, 65, 0
3, 44401, Note_on_c, 1, 67, 41
3, 44579, Note_on_c, 1, 67, 0
3, 44641, Note_on_c, 1, 66, 25
3, 44759, Note_on_c, 1, 66, 0
3, 44881, Note_on_c, 1, 66, 25
3, 44999, Note_on_c, 1, 66, 0
3, 45361, Note_on_c, 1, 67, 25
3, 45599, Note_on_c, 1, 67, 0
3, 45600, Note_on_c, 1, 66, 13
3, 45719, Note_on_c, 1, 66, 0
3, 46081, Note_on_c, 1, 71, 41
3, 46199, Note_on_c, 1, 71, 0
3, 46291, Note_on_c, 1, 69, 41
3, 46319, Note_on_c, 1, 69, 0
3, 46320, Note_on_c, 1, 67, 41
3, 46439, Note_on_c, 1, 67, 0
3, 46531, Note_on_c, 1, 66, 25
3, 46559, Note_on_c, 1, 66, 0
3, 46560, Note_on_c, 1, 64, 25
3, 46679, Note_on_c, 1, 64, 0
3, 46771, Note_on_c, 1, 62, 25
3, 46799, Note_on_c, 1, 62, 0
3, 47761, Note_on_c, 1, 61, 84
3, 47999, Note_on_c, 1, 61, 0
3, 48241, Note_on_c, 1, 79, 84
3, 48479, Note_on_c, 1, 79, 0
3, 48480, Note_on_c, 1, 78, 84
3, 48839, Note_on_c, 1, 78, 0
3, 48840, Note_on_c, 1, 75, 25
3, 48959, Note_on_c, 1, 75, 0
3, 48960, Note_on_c, 1, 76, 25
3, 49079, Note_on_c, 1, 76, 0
3, 49080, Note_on_c, 1, 73, 25
3, 49199, Note_on_c, 1, 73, 0
3, 49200, Note_on_c, 1, 74, 25
3, 49319, Note_on_c, 1, 74, 0
3, 49320, Note_on_c, 1, 66, 25
3, 49439, Note_on_c, 1, 66, 0
3, 49440, Note_on_c, 1, 67, 41
3, 49559, Note_on_c, 1, 67, 0
3, 49560, Note_on_c, 1, 68, 41
3, 49679, Note_on_c, 1, 68, 0
3, 49680, Note_on_c, 1, 69, 25
3, 49919, Note_on_c, 1, 69, 0
3, 51121, Note_on_c, 1, 67, 84
3, 51359, Note_on_c, 1, 67, 0
3, 51360, Note_on_c, 1, 66, 62
3, 51479, Note_on_c, 1, 66, 0
3, 51841, Note_on_c, 1, 71, 25
3, 51959, Note_on_c, 1, 71, 0
3, 51960, Note_on_c, 1, 69, 25
3, 52079, Note_on_c, 1, 69, 0
3, 52080, Note_on_c, 1, 67, 25
3, 52199, Note_on_c, 1, 67, 0
3, 52200, Note_on_c, 1, 66, 25
3, 52319, Note_on_c, 1, 66, 0
3, 52320, Note_on_c, 1, 64, 25
3, 52439, Note_on_c, 1, 64, 0
3, 52440, Note_on_c, 1, 62, 25
3, 52559, Note_on_c, 1, 62, 0
3, 53521, Note_on_c, 1, 61, 84
3, 53759, Note_on_c, 1, 61, 0
3, 55141, Note_on_c, 1, 69, 25
3, 55259, Note_on_c, 1, 69, 0
3, 55260, Note_on_c, 1, 70, 25
3, 55379, Note_on_c, 1, 70, 0
3, 55380, Note_on_c, 1, 71, 25
3, 55439, Note_on_c, 1, 71, 0
3, 55440, Note_on_c, 1, 74, 25
3, 55679, Note_on_c, 1, 74, 0
3, 55680, Note_on_c, 1, 73, 25
3, 55919, Note_on_c, 1, 73, 0
3, 56821, Note_on_c, 1, 63, 41
3, 56849, Note_on_c, 1, 63, 0
3, 56881, Note_on_c, 1, 64, 41
3, 56939, Note_on_c, 1, 64, 0
3, 56940, Note_on_c, 1, 67, 41
3, 56999, Note_on_c, 1, 67, 0
3, 57000, Note_on_c, 1, 66, 41
3, 57059, Note_on_c, 1, 66, 0
3, 57060, Note_on_c, 1, 69, 41
3, 57119, Note_on_c, 1, 69, 0
3, 57120, Note_on_c, 1, 67, 41
3, 57239, Note_on_c, 1, 67, 0
3, 57541, Note_on_c, 1, 61, 41
3, 57569, Note_on_c, 1, 61, 0
3, 57601, Note_on_c, 1, 61, 41
3, 57639, Note_on_c, 1, 61, 0
3, 57640, Note_on_c, 1, 62, 41
3, 57679, Note_on_c, 1, 62, 0
3, 57680, Note_on_c, 1, 66, 41
3, 57719, Note_on_c, 1, 66, 0
3, 57720, Note_on_c, 1, 63, 41
3, 57759, Note_on_c, 1, 63, 0
3, 57760, Note_on_c, 1, 64, 41
3, 57799, Note_on_c, 1, 64, 0
3, 57800, Note_on_c, 1, 67, 41
3, 57839, Note_on_c, 1, 67, 0
3, 57840, Note_on_c, 1, 66, 41
3, 57959, Note_on_c, 1, 66, 0
3, 58321, Note_on_c, 1, 66, 62
3, 58559, Note_on_c, 1, 66, 0
3, 58560, Note_on_c, 1, 64, 25
3, 58679, Note_on_c, 1, 64, 0
3, 58680, Note_on_c, 1, 71, 25
3, 58799, Note_on_c, 1, 71, 0
3, 58800, Note_on_c, 1, 69, 25
3, 58919, Note_on_c, 1, 69, 0
3, 58920, Note_on_c, 1, 67, 25
3, 59039, Note_on_c, 1, 67, 0
3, 59040, Note_on_c, 1, 66, 25
3, 59159, Note_on_c, 1, 66, 0
3, 59281, Note_on_c, 1, 66, 25
3, 59399, Note_on_c, 1, 66, 0
3, 59761, Note_on_c, 1, 67, 25
3, 59999, Note_on_c, 1, 67, 0
3, 60000, Note_on_c, 1, 66, 25
3, 60119, Note_on_c, 1, 66, 0
3, 60481, Note_on_c, 1, 74, 25
3, 60599, Note_on_c, 1, 74, 0
3, 60661, Note_on_c, 1, 73, 25
3, 60689, Note_on_c, 1, 73, 0
3, 60721, Note_on_c, 1, 71, 25
3, 60779, Note_on_c, 1, 71, 0
3, 60841, Note_on_c, 1, 69, 25
3, 60869, Note_on_c, 1, 69, 0
3, 60961, Note_on_c, 1, 67, 25
3, 60989, Note_on_c, 1, 67, 0
3, 61081, Note_on_c, 1, 66, 25
3, 61109, Note_on_c, 1, 66, 0
3, 62161, Note_on_c, 1, 61, 84
3, 62399, Note_on_c, 1, 61, 0
3, 62641, Note_on_c, 1, 61, 107
3, 62879, Note_on_c, 1, 61, 0
3, 62880, Note_on_c, 1, 63, 107
3, 63119, Note_on_c, 1, 63, 0
3, 63120, Note_on_c, 1, 64, 107
3, 63359, Note_on_c, 1, 64, 0
3, 63360, Note_on_c, 1, 66, 107
3, 63839, Note_on_c, 1, 66, 0
3, 63840, Note_on_c, 1, 67, 41
3, 63959, Note_on_c, 1, 67, 0
3, 63960, Note_on_c, 1, 67, 25
3, 64079, Note_on_c, 1, 67, 0
3, 64080, Note_on_c, 1, 66, 25
3, 64199, Note_on_c, 1, 66, 0
3, 68401, Note_on_c, 1, 67, 84
3, 68639, Note_on_c, 1, 67, 0
3, 68640, Note_on_c, 1, 66, 41
3, 68759, Note_on_c, 1, 66, 0
3, 69121, Note_on_c, 1, 74, 62
3, 69239, Note_on_c, 1, 74, 0
3, 69301, Note_on_c, 1, 73, 62
3, 69329, Note_on_c, 1, 73, 0
3, 69361, Note_on_c, 1, 71, 62
3, 69479, Note_on_c, 1, 71, 0
3, 69541, Note_on_c, 1, 69, 62
3, 69569, Note_on_c, 1, 69, 0
3, 69601, Note_on_c, 1, 67, 62
3, 69629, Note_on_c, 1, 67, 0
3, 69721, Note_on_c, 1, 66, 62
3, 69749, Note_on_c, 1, 66, 0
3, 69841, Note_on_c, 1, 74, 62
3, 70319, Note_on_c, 1, 74, 0
3, 70320, Note_on_c, 1, 73, 41
3, 70439, Note_on_c, 1, 73, 0
3, 70801, Note_on_c, 1, 61, 84
3, 71039, Note_on_c, 1, 61, 0
3, 72961, Note_on_c, 1, 66, 31
3, 73199, Note_on_c, 1, 66, 0
3, 73441, Note_on_c, 1, 66, 84
3, 73679, Note_on_c, 1, 66, 0
3, 73680, Note_on_c, 1, 67, 84
3, 73919, Note_on_c, 1, 67, 0
3, 74881, Note_on_c, 1, 66, 84
3, 75239, Note_on_c, 1, 66, 0
3, 75481, Note_on_c, 1, 67, 41
3, 75539, Note_on_c, 1, 67, 0
3, 75601, Note_on_c, 1, 67, 25
3, 75839, Note_on_c, 1, 67, 0
3, 75840, Note_on_c, 1, 66, 25
3, 75959, Note_on_c, 1, 66, 0
3, 76321, Program_c, 1, 0
3, 80042, Note_on_c, 1, 74, 41
3, 80160, Note_on_c, 1, 74, 0
3, 80161, Note_on_c, 1, 73, 41
3, 80280, Note_on_c, 1, 73, 0
3, 83882, Note_on_c, 1, 74, 41
3, 84000, Note_on_c, 1, 74, 0
3, 84001, Note_on_c, 1, 73, 41
3, 84120, Note_on_c, 1, 73, 0
3, 85082, Note_on_c, 1, 74, 25
3, 85200, Note_on_c, 1, 74, 0
3, 85201, Note_on_c, 1, 76, 25
3, 85320, Note_on_c, 1, 76, 0
3, 85321, Note_on_c, 1, 73, 25
3, 85440, Note_on_c, 1, 73, 0
3, 85441, Note_on_c, 1, 74, 25
3, 85560, Note_on_c, 1, 74, 0
3, 85561, Note_on_c, 1, 73, 25
3, 85800, Note_on_c, 1, 73, 0
3, 85801, Note_on_c, 1, 71, 25
3, 86040, Note_on_c, 1, 71, 0
3, 86041, Note_on_c, 1, 69, 25
3, 86280, Note_on_c, 1, 69, 0
3, 86281, Note_on_c, 1, 67, 25
3, 86520, Note_on_c, 1, 67, 0
3, 86521, Note_on_c, 1, 66, 25
3, 86640, Note_on_c, 1, 66, 0
3, 86641, Note_on_c, 1, 64, 25
3, 86880, Note_on_c, 1, 64, 0
3, 88442, Note_on_c, 1, 67, 41
3, 88500, Note_on_c, 1, 67, 0
3, 88562, Note_on_c, 1, 67, 41
3, 88620, Note_on_c, 1, 67, 0
3, 88621, Note_on_c, 1, 66, 41
3, 88680, Note_on_c, 1, 66, 0
3, 88681, Note_on_c, 1, 64, 41
3, 88740, Note_on_c, 1, 64, 0
3, 88741, Note_on_c, 1, 62, 41
3, 88800, Note_on_c, 1, 62, 0
3, 88801, Note_on_c, 1, 61, 41
3, 88860, Note_on_c, 1, 61, 0
3, 88861, Note_on_c, 1, 62, 41
3, 88920, Note_on_c, 1, 62, 0
3, 88921, Note_on_c, 1, 64, 41
3, 88980, Note_on_c, 1, 64, 0
3, 88981, Note_on_c, 1, 66, 41
3, 89040, Note_on_c, 1, 66, 0
3, 89041, Note_on_c, 1, 67, 41
3, 89280, Note_on_c, 1, 67, 0
3, 89281, Note_on_c, 1, 64, 41
3, 89520, Note_on_c, 1, 64, 0
3, 89762, Note_on_c, 1, 78, 62
3, 89820, Note_on_c, 1, 78, 0
3, 89821, Note_on_c, 1, 76, 62
3, 89880, Note_on_c, 1, 76, 0
3, 89881, Note_on_c, 1, 74, 62
3, 89940, Note_on_c, 1, 74, 0
3, 89941, Note_on_c, 1, 73, 62
3, 90000, Note_on_c, 1, 73, 0
3, 90242, Note_on_c, 1, 79, 62
3, 90300, Note_on_c, 1, 79, 0
3, 90301, Note_on_c, 1, 78, 62
3, 90360, Note_on_c, 1, 78, 0
3, 90361, Note_on_c, 1, 76, 62
3, 90420, Note_on_c, 1, 76, 0
3, 90421, Note_on_c, 1, 74, 62
3, 90480, Note_on_c, 1, 74, 0
3, 90481, Note_on_c, 1, 73, 62
3, 90540, Note_on_c, 1, 73, 0
3, 90602, Note_on_c, 1, 74, 62
3, 90660, Note_on_c, 1, 74, 0
3, 90722, Note_on_c, 1, 76, 62
3, 90780, Note_on_c, 1, 76, 0
3, 90842, Note_on_c, 1, 74, 62
3, 90900, Note_on_c, 1, 74, 0
3, 90962, Note_on_c, 1, 73, 62
3, 91020, Note_on_c, 1, 73, 0
3, 91082, Note_on_c, 1, 73, 62
3, 91200, Note_on_c, 1, 73, 0
3, 91201, Note_on_c, 1, 74, 62
3, 91320, Note_on_c, 1, 74, 0
3, 91321, Note_on_c, 1, 73, 62
3, 91440, Note_on_c, 1, 73, 0
3, 91441, Note_on_c, 1, 73, 62
3, 91560, Note_on_c, 1, 73, 0
3, 91561, Note_on_c, 1, 76, 62
3, 91680, Note_on_c, 1, 76, 0
3, 91681, Note_on_c, 1, 78, 62
3, 91800, Note_on_c, 1, 78, 0
3, 91801, Note_on_c, 1, 74, 62
3, 91920, Note_on_c, 1, 74, 0
3, 91921, Note_on_c, 1, 73, 62
3, 91980, Note_on_c, 1, 73, 0
3, 92162, Note_on_c, 1, 73, 62
3, 92220, Note_on_c, 1, 73, 0
3, 92402, Note_on_c, 1, 73, 62
3, 92640, Note_on_c, 1, 73, 0
3, 96122, Note_on_c, 1, 72, 41
3, 96180, Note_on_c, 1, 72, 0
3, 96242, Note_on_c, 1, 71, 41
3, 96300, Note_on_c, 1, 71, 0
3, 96362, Note_on_c, 1, 69, 41
3, 96420, Note_on_c, 1, 69, 0
3, 96482, Note_on_c, 1, 67, 41
3, 96540, Note_on_c, 1, 67, 0
3, 96602, Note_on_c, 1, 66, 41
3, 96660, Note_on_c, 1, 66, 0
3, 96722, Note_on_c, 1, 64, 41
3, 96960, Note_on_c, 1, 64, 0
3, 97082, Note_on_c, 1, 74, 62
3, 97140, Note_on_c, 1, 74, 0
3, 97202, Note_on_c, 1, 72, 62
3, 97260, Note_on_c, 1, 72, 0
3, 97322, Note_on_c, 1, 71, 62
3, 97380, Note_on_c, 1, 71, 0
3, 97442, Note_on_c, 1, 69, 62
3, 97500, Note_on_c, 1, 69, 0
3, 97562, Note_on_c, 1, 67, 62
3, 97620, Note_on_c, 1, 67, 0
3, 97682, Note_on_c, 1, 66, 62
3, 97920, Note_on_c, 1, 66, 0
3, 99602, Note_on_c, 1, 62, 84
3, 99660, Note_on_c, 1, 62, 0
3, 99722, Note_on_c, 1, 71, 84
3, 99780, Note_on_c, 1, 71, 0
3, 99842, Note_on_c, 1, 61, 84
3, 99900, Note_on_c, 1, 61, 0
3, 99962, Note_on_c, 1, 69, 84
3, 100020, Note_on_c, 1, 69, 0
3, 100562, Note_on_c, 1, 69, 41
3, 100620, Note_on_c, 1, 69, 0
3, 100621, Note_on_c, 1, 67, 41
3, 100680, Note_on_c, 1, 67, 0
3, 100681, Note_on_c, 1, 66, 41
3, 100740, Note_on_c, 1, 66, 0
3, 100741, Note_on_c, 1, 64, 41
3, 100800, Note_on_c, 1, 64, 0
3, 100801, Note_on_c, 1, 67, 41
3, 100860, Note_on_c, 1, 67, 0
3, 100861, Note_on_c, 1, 66, 41
3, 100920, Note_on_c, 1, 66, 0
3, 100921, Note_on_c, 1, 64, 41
3, 100980, Note_on_c, 1, 64, 0
3, 100981, Note_on_c, 1, 62, 41
3, 101040, Note_on_c, 1, 62, 0
3, 101642, Note_on_c, 1, 67, 62
3, 101760, Note_on_c, 1, 67, 0
3, 101761, Note_on_c, 1, 66, 62
3, 101880, Note_on_c, 1, 66, 0
3, 102362, Note_on_c, 1, 62, 41
3, 102480, Note_on_c, 1, 62, 0
3, 102481, Note_on_c, 1, 61, 41
3, 102600, Note_on_c, 1, 61, 0
3, 102601, Note_on_c, 1, 64, 41
3, 102720, Note_on_c, 1, 64, 0
3, 102721, Note_on_c, 1, 63, 41
3, 102840, Note_on_c, 1, 63, 0
3, 102841, Note_on_c, 1, 66, 41
3, 102960, Note_on_c, 1, 66, 0
3, 102961, Note_on_c, 1, 64, 41
3, 103080, Note_on_c, 1, 64, 0
3, 103081, Note_on_c, 1, 67, 41
3, 103200, Note_on_c, 1, 67, 0
3, 103201, Note_on_c, 1, 66, 41
3, 103320, Note_on_c, 1, 66, 0
3, 103321, Note_on_c, 1, 76, 41
3, 103440, Note_on_c, 1, 76, 0
3, 103441, Note_on_c, 1, 77, 25
3, 103560, Note_on_c, 1, 77, 0
3, 103561, Note_on_c, 1, 74, 25
3, 103680, Note_on_c, 1, 74, 0
3, 103681, Note_on_c, 1, 76, 25
3, 103800, Note_on_c, 1, 76, 0
3, 103801, Note_on_c, 1, 73, 25
3, 103920, Note_on_c, 1, 73, 0
3, 103921, Note_on_c, 1, 74, 25
3, 104040, Note_on_c, 1, 74, 0
3, 104041, Note_on_c, 1, 71, 25
3, 104160, Note_on_c, 1, 71, 0
3, 104161, Note_on_c, 1, 73, 25
3, 104280, Note_on_c, 1, 73, 0
3, 104281, Note_on_c, 1, 76, 25
3, 104400, Note_on_c, 1, 76, 0
3, 104401, Note_on_c, 1, 78, 25
3, 104640, Note_on_c, 1, 78, 0
3, 104641, Note_on_c, 1, 76, 41
3, 104880, Note_on_c, 1, 76, 0
3, 104881, Note_on_c, 1, 74, 41
3, 105120, Note_on_c, 1, 74, 0
3, 105121, Note_on_c, 1, 73, 62
3, 105240, Note_on_c, 1, 73, 0
3, 105241, Note_on_c, 1, 66, 84
3, 105360, Note_on_c, 1, 66, 0
3, 105361, Note_on_c, 1, 67, 84
3, 105480, Note_on_c, 1, 67, 0
3, 105481, Note_on_c, 1, 64, 84
3, 105600, Note_on_c, 1, 64, 0
3, 105601, Note_on_c, 1, 66, 84
3, 105720, Note_on_c, 1, 66, 0
3, 105721, Note_on_c, 1, 63, 84
3, 105840, Note_on_c, 1, 63, 0
3, 105841, Note_on_c, 1, 64, 84
3, 105960, Note_on_c, 1, 64, 0
3, 105961, Note_on_c, 1, 61, 62
3, 106080, Note_on_c, 1, 61, 0
3, 106081, Note_on_c, 1, 62, 62
3, 106200, Note_on_c, 1, 62, 0
3, 106201, Note_on_c, 1, 66, 62
3, 106320, Note_on_c, 1, 66, 0
3, 106321, Note_on_c, 1, 67, 62
3, 106440, Note_on_c, 1, 67, 0
3, 106441, Note_on_c, 1, 66, 84
3, 106560, Note_on_c, 1, 66, 0
3, 106561, Note_on_c, 1, 67, 84
3, 106680, Note_on_c, 1, 67, 0
3, 106681, Note_on_c, 1, 68, 84
3, 106800, Note_on_c, 1, 68, 0
3, 106801, Note_on_c, 1, 69, 84
3, 107040, Note_on_c, 1, 69, 0
3, 108122, Note_on_c, 1, 66, 41
3, 108240, Note_on_c, 1, 66, 0
3, 108241, Note_on_c, 1, 67, 62
3, 108360, Note_on_c, 1, 67, 0
3, 108361, Note_on_c, 1, 64, 62
3, 108480, Note_on_c, 1, 64, 0
3, 108481, Note_on_c, 1, 66, 62
3, 108600, Note_on_c, 1, 66, 0
3, 108601, Note_on_c, 1, 62, 62
3, 108720, Note_on_c, 1, 62, 0
3, 108721, Note_on_c, 1, 64, 84
3, 108840, Note_on_c, 1, 64, 0
3, 108841, Note_on_c, 1, 60, 84
3, 108960, Note_on_c, 1, 60, 0
3, 108961, Note_on_c, 1, 62, 84
3, 109080, Note_on_c, 1, 62, 0
3, 110042, Note_on_c, 1, 67, 84
3, 110100, Note_on_c, 1, 67, 0
3, 110162, Note_on_c, 1, 67, 84
3, 110220, Note_on_c, 1, 67, 0
3, 110221, Note_on_c, 1, 66, 84
3, 110280, Note_on_c, 1, 66, 0
3, 110281, Note_on_c, 1, 64, 84
3, 110340, Note_on_c, 1, 64, 0
3, 110341, Note_on_c, 1, 62, 84
3, 110400, Note_on_c, 1, 62, 0
3, 110401, Note_on_c, 1, 61, 84
3, 110460, Note_on_c, 1, 61, 0
3, 110461, Note_on_c, 1, 62, 84
3, 110520, Note_on_c, 1, 62, 0
3, 110521, Note_on_c, 1, 64, 84
3, 110580, Note_on_c, 1, 64, 0
3, 110581, Note_on_c, 1, 66, 84
3, 110640, Note_on_c, 1, 66, 0
3, 110641, Note_on_c, 1, 67, 84
3, 110880, Note_on_c, 1, 67, 0
3, 111002, Note_on_c, 1, 67, 84
3, 111060, Note_on_c, 1, 67, 0
3, 111122, Note_on_c, 1, 67, 84
3, 111180, Note_on_c, 1, 67, 0
3, 111181, Note_on_c, 1, 66, 84
3, 111240, Note_on_c, 1, 66, 0
3, 111241, Note_on_c, 1, 64, 84
3, 111300, Note_on_c, 1, 64, 0
3, 111301, Note_on_c, 1, 62, 84
3, 111360, Note_on_c, 1, 62, 0
3, 111361, Note_on_c, 1, 61, 84
3, 111420, Note_on_c, 1, 61, 0
3, 111421, Note_on_c, 1, 62, 84
3, 111480, Note_on_c, 1, 62, 0
3, 111481, Note_on_c, 1, 64, 84
3, 111540, Note_on_c, 1, 64, 0
3, 111541, Note_on_c, 1, 66, 84
3, 111600, Note_on_c, 1, 66, 0
3, 111601, Note_on_c, 1, 67, 84
3, 111840, Note_on_c, 1, 67, 0
3, 111962, Note_on_c, 1, 79, 84
3, 112020, Note_on_c, 1, 79, 0
3, 112082, Note_on_c, 1, 78, 84
3, 112140, Note_on_c, 1, 78, 0
3, 112202, Note_on_c, 1, 76, 84
3, 112260, Note_on_c, 1, 76, 0
3, 112322, Note_on_c, 1, 74, 62
3, 112380, Note_on_c, 1, 74, 0
3, 112442, Note_on_c, 1, 73, 62
3, 112500, Note_on_c, 1, 73, 0
3, 112562, Note_on_c, 1, 71, 62
3, 112620, Note_on_c, 1, 71, 0
3, 112682, Note_on_c, 1, 69, 62
3, 112740, Note_on_c, 1, 69, 0
3, 112802, Note_on_c, 1, 67, 41
3, 112860, Note_on_c, 1, 67, 0
3, 112922, Note_on_c, 1, 66, 41
3, 112980, Note_on_c, 1, 66, 0
3, 113042, Note_on_c, 1, 67, 25
3, 113100, Note_on_c, 1, 67, 0
3, 113162, Note_on_c, 1, 66, 25
3, 113220, Note_on_c, 1, 66, 0
3, 113282, Note_on_c, 1, 67, 41
3, 113340, Note_on_c, 1, 67, 0
3, 113402, Note_on_c, 1, 63, 41
3, 113460, Note_on_c, 1, 63, 0
3, 113522, Note_on_c, 1, 64, 62
3, 113580, Note_on_c, 1, 64, 0
3, 113642, Note_on_c, 1, 63, 62
3, 113700, Note_on_c, 1, 63, 0
3, 113762, Note_on_c, 1, 64, 41
3, 113820, Note_on_c, 1, 64, 0
3, 113882, Note_on_c, 1, 66, 41
3, 113940, Note_on_c, 1, 66, 0
3, 114002, Note_on_c, 1, 66, 25
3, 114060, Note_on_c, 1, 66, 0
3, 114122, Note_on_c, 1, 67, 25
3, 114180, Note_on_c, 1, 67, 0
3, 114242, Note_on_c, 1, 66, 41
3, 114300, Note_on_c, 1, 66, 0
3, 114362, Note_on_c, 1, 61, 41
3, 114420, Note_on_c, 1, 61, 0
3, 114482, Note_on_c, 1, 62, 62
3, 114540, Note_on_c, 1, 62, 0
3, 114602, Note_on_c, 1, 61, 62
3, 114660, Note_on_c, 1, 61, 0
3, 114722, Note_on_c, 1, 62, 62
3, 114780, Note_on_c, 1, 62, 0
3, 114842, Note_on_c, 1, 60, 62
3, 114900, Note_on_c, 1, 60, 0
3, 116282, Note_on_c, 1, 67, 84
3, 116340, Note_on_c, 1, 67, 0
3, 116402, Note_on_c, 1, 67, 84
3, 116460, Note_on_c, 1, 67, 0
3, 116461, Note_on_c, 1, 66, 84
3, 116520, Note_on_c, 1, 66, 0
3, 116521, Note_on_c, 1, 64, 84
3, 116580, Note_on_c, 1, 64, 0
3, 116581, Note_on_c, 1, 62, 84
3, 116640, Note_on_c, 1, 62, 0
3, 116641, Note_on_c, 1, 61, 84
3, 116700, Note_on_c, 1, 61, 0
3, 116701, Note_on_c, 1, 62, 84
3, 116760, Note_on_c, 1, 62, 0
3, 116761, Note_on_c, 1, 64, 84
3, 116820, Note_on_c, 1, 64, 0
3, 116821, Note_on_c, 1, 66, 84
3, 116880, Note_on_c, 1, 66, 0
3, 116881, Note_on_c, 1, 67, 84
3, 117120, Note_on_c, 1, 67, 0
3, 117121, Note_on_c, 1, 64, 84
3, 117360, Note_on_c, 1, 64, 0
3, 117602, Note_on_c, 1, 78, 84
3, 117660, Note_on_c, 1, 78, 0
3, 117661, Note_on_c, 1, 76, 84
3, 117720, Note_on_c, 1, 76, 0
3, 117721, Note_on_c, 1, 74, 84
3, 117780, Note_on_c, 1, 74, 0
3, 117781, Note_on_c, 1, 73, 84
3, 117840, Note_on_c, 1, 73, 0
3, 118082, Note_on_c, 1, 79, 84
3, 118140, Note_on_c, 1, 79, 0
3, 118141, Note_on_c, 1, 78, 84
3, 118200, Note_on_c, 1, 78, 0
3, 118201, Note_on_c, 1, 76, 84
3, 118260, Note_on_c, 1, 76, 0
3, 118261, Note_on_c, 1, 74, 84
3, 118320, Note_on_c, 1, 74, 0
3, 118321, Note_on_c, 1, 73, 84
3, 118380, Note_on_c, 1, 73, 0
3, 118442, Note_on_c, 1, 74, 84
3, 118500, Note_on_c, 1, 74, 0
3, 118562, Note_on_c, 1, 76, 84
3, 118620, Note_on_c, 1, 76, 0
3, 118682, Note_on_c, 1, 74, 84
3, 118740, Note_on_c, 1, 74, 0
3, 118802, Note_on_c, 1, 73, 84
3, 118860, Note_on_c, 1, 73, 0
3, 119162, Note_on_c, 1, 66, 84
3, 119220, Note_on_c, 1, 66, 0
3, 119282, Note_on_c, 1, 64, 84
3, 119340, Note_on_c, 1, 64, 0
3, 119402, Note_on_c, 1, 66, 84
3, 119460, Note_on_c, 1, 66, 0
3, 119522, Note_on_c, 1, 67, 84
3, 119580, Note_on_c, 1, 67, 0
3, 119642, Note_on_c, 1, 66, 84
3, 119700, Note_on_c, 1, 66, 0
3, 119762, Note_on_c, 1, 64, 84
3, 120000, Note_on_c, 1, 64, 0
3, 120602, Note_on_c, 1, 70, 41
3, 120720, Note_on_c, 1, 70, 0
3, 120721, Note_on_c, 1, 71, 41
3, 120840, Note_on_c, 1, 71, 0
3, 120841, Note_on_c, 1, 68, 41
3, 120960, Note_on_c, 1, 68, 0
3, 120961, Note_on_c, 1, 69, 41
3, 121080, Note_on_c, 1, 69, 0
3, 121202, Note_on_c, 1, 71, 84
3, 121320, Note_on_c, 1, 71, 0
3, 121321, Note_on_c, 1, 67, 84
3, 121440, Note_on_c, 1, 67, 0
3, 121441, Note_on_c, 1, 69, 84
3, 121560, Note_on_c, 1, 69, 0
3, 121561, Note_on_c, 1, 76, 84
3, 121620, Note_on_c, 1, 76, 0
3, 121682, Note_on_c, 1, 74, 84
3, 121920, Note_on_c, 1, 74, 0
3, 124202, Note_on_c, 1, 74, 84
3, 124260, Note_on_c, 1, 74, 0
3, 124322, Note_on_c, 1, 78, 84
3, 124380, Note_on_c, 1, 78, 0
3, 124562, Note_on_c, 1, 76, 84
3, 124800, Note_on_c, 1, 76, 0
3, 125042, Note_on_c, 1, 74, 84
3, 125280, Note_on_c, 1, 74, 0
3, 125522, Note_on_c, 1, 76, 84
3, 125760, Note_on_c, 1, 76, 0
3, 126002, Note_on_c, 1, 74, 84
3, 126120, Note_on_c, 1, 74, 0
3, 126242, Note_on_c, 1, 78, 107
3, 126360, Note_on_c, 1, 78, 0
3, 126482, Note_on_c, 1, 79, 107
3, 126600, Note_on_c, 1, 79, 0
3, 126722, Note_on_c, 1, 67, 107
3, 126840, Note_on_c, 1, 67, 0
3, 126962, Note_on_c, 1, 69, 107
3, 127200, Note_on_c, 1, 69, 0
3, 127200, End_track
4, 0, Start_track
4, 0, MIDI_port, 0
4, 0, Title_t, "Haydn. 1.Andante 2.Vivace"
4, 0, Program_c, 2, 0
4, 0, Program_c, 2, 0
4, 0, Control_c, 2, 7, 127
4, 721, Note_on_c, 2, 62, 25
4, 839, Note_on_c, 2, 62, 0
4, 961, Note_on_c, 2, 62, 25
4, 1079, Note_on_c, 2, 62, 0
4, 1441, Note_on_c, 2, 62, 25
4, 1799, Note_on_c, 2, 62, 0
4, 4321, Note_on_c, 2, 76, 63
4, 4559, Note_on_c, 2, 76, 0
4, 4560, Note_on_c, 2, 75, 63
4, 4919, Note_on_c, 2, 75, 0
4, 7921, Note_on_c, 2, 62, 41
4, 7979, Note_on_c, 2, 62, 0
4, 7980, Note_on_c, 2, 66, 41
4, 8039, Note_on_c, 2, 66, 0
4, 8040, Note_on_c, 2, 64, 41
4, 8099, Note_on_c, 2, 64, 0
4, 8100, Note_on_c, 2, 67, 41
4, 8159, Note_on_c, 2, 67, 0
4, 8160, Note_on_c, 2, 66, 62
4, 8399, Note_on_c, 2, 66, 0
4, 8400, Note_on_c, 2, 67, 62
4, 8579, Note_on_c, 2, 67, 0
4, 8580, Note_on_c, 2, 68, 62
4, 8639, Note_on_c, 2, 68, 0
4, 8640, Note_on_c, 2, 69, 25
4, 8939, Note_on_c, 2, 69, 0
4, 8940, Note_on_c, 2, 68, 25
4, 8999, Note_on_c, 2, 68, 0
4, 9000, Note_on_c, 2, 69, 25
4, 9059, Note_on_c, 2, 69, 0
4, 9060, Note_on_c, 2, 70, 25
4, 9119, Note_on_c, 2, 70, 0
4, 9120, Note_on_c, 2, 71, 25
4, 9179, Note_on_c, 2, 71, 0
4, 9180, Note_on_c, 2, 67, 25
4, 9239, Note_on_c, 2, 67, 0
4, 9240, Note_on_c, 2, 66, 25
4, 9299, Note_on_c, 2, 66, 0
4, 9300, Note_on_c, 2, 64, 25
4, 9359, Note_on_c, 2, 64, 0
4, 9360, Note_on_c, 2, 62, 25
4, 9479, Note_on_c, 2, 62, 0
4, 9601, Note_on_c, 2, 62, 25
4, 9719, Note_on_c, 2, 62, 0
4, 10081, Note_on_c, 2, 62, 25
4, 10439, Note_on_c, 2, 62, 0
4, 10801, Note_on_c, 2, 71, 41
4, 10919, Note_on_c, 2, 71, 0
4, 11011, Note_on_c, 2, 69, 41
4, 11039, Note_on_c, 2, 69, 0
4, 11040, Note_on_c, 2, 67, 41
4, 11159, Note_on_c, 2, 67, 0
4, 11251, Note_on_c, 2, 66, 41
4, 11279, Note_on_c, 2, 66, 0
4, 11280, Note_on_c, 2, 64, 41
4, 11399, Note_on_c, 2, 64, 0
4, 11491, Note_on_c, 2, 62, 41
4, 11519, Note_on_c, 2, 62, 0
4, 18241, Note_on_c, 2, 61, 84
4, 18479, Note_on_c, 2, 61, 0
4, 18721, Note_on_c, 2, 64, 25
4, 18959, Note_on_c, 2, 64, 0
4, 18960, Note_on_c, 2, 63, 25
4, 19439, Note_on_c, 2, 63, 0
4, 19440, Note_on_c, 2, 64, 25
4, 19679, Note_on_c, 2, 64, 0
4, 19680, Note_on_c, 2, 62, 25
4, 19919, Note_on_c, 2, 62, 0
4, 19920, Note_on_c, 2, 67, 25
4, 20159, Note_on_c, 2, 67, 0
4, 23761, Note_on_c, 2, 62, 62
4, 23879, Note_on_c, 2, 62, 0
4, 24001, Note_on_c, 2, 62, 62
4, 24119, Note_on_c, 2, 62, 0
4, 24481, Note_on_c, 2, 62, 62
4, 24839, Note_on_c, 2, 62, 0
4, 25201, Note_on_c, 2, 71, 62
4, 25319, Note_on_c, 2, 71, 0
4, 25411, Note_on_c, 2, 69, 62
4, 25439, Note_on_c, 2, 69, 0
4, 25440, Note_on_c, 2, 67, 62
4, 25559, Note_on_c, 2, 67, 0
4, 25651, Note_on_c, 2, 66, 62
4, 25679, Note_on_c, 2, 66, 0
4, 25680, Note_on_c, 2, 64, 62
4, 25799, Note_on_c, 2, 64, 0
4, 25891, Note_on_c, 2, 62, 62
4, 25919, Note_on_c, 2, 62, 0
4, 28081, Note_on_c, 2, 66, 62
4, 28559, Note_on_c, 2, 66, 0
4, 28560, Note_on_c, 2, 67, 25
4, 28619, Note_on_c, 2, 67, 0
4, 31441, Note_on_c, 2, 76, 25
4, 31679, Note_on_c, 2, 76, 0
4, 32641, Note_on_c, 2, 60, 84
4, 33119, Note_on_c, 2, 60, 0
4, 36001, Note_on_c, 2, 69, 84
4, 36179, Note_on_c, 2, 69, 0
4, 36180, Note_on_c, 2, 69, 84
4, 36239, Note_on_c, 2, 69, 0
4, 36240, Note_on_c, 2, 69, 84
4, 36599, Note_on_c, 2, 69, 0
4, 36600, Note_on_c, 2, 69, 25
4, 36719, Note_on_c, 2, 69, 0
4, 36720, Note_on_c, 2, 70, 25
4, 36839, Note_on_c, 2, 70, 0
4, 36840, Note_on_c, 2, 72, 25
4, 36959, Note_on_c, 2, 72, 0
4, 36960, Note_on_c, 2, 74, 25
4, 37079, Note_on_c, 2, 74, 0
4, 37080, Note_on_c, 2, 72, 25
4, 37199, Note_on_c, 2, 72, 0
4, 37200, Note_on_c, 2, 70, 25
4, 37319, Note_on_c, 2, 70, 0
4, 37320, Note_on_c, 2, 71, 25
4, 37439, Note_on_c, 2, 71, 0
4, 37440, Note_on_c, 2, 69, 41
4, 37679, Note_on_c, 2, 69, 0
4, 44641, Note_on_c, 2, 62, 25
4, 44759, Note_on_c, 2, 62, 0
4, 44881, Note_on_c, 2, 62, 25
4, 44999, Note_on_c, 2, 62, 0
4, 45361, Note_on_c, 2, 62, 25
4, 45719, Note_on_c, 2, 62, 0
4, 48241, Note_on_c, 2, 76, 84
4, 48479, Note_on_c, 2, 76, 0
4, 48480, Note_on_c, 2, 75, 84
4, 48839, Note_on_c, 2, 75, 0
4, 51121, Note_on_c, 2, 62, 84
4, 51479, Note_on_c, 2, 62, 0
4, 55441, Note_on_c, 2, 66, 25
4, 55619, Note_on_c, 2, 66, 0
4, 55620, Note_on_c, 2, 68, 25
4, 55679, Note_on_c, 2, 68, 0
4, 55680, Note_on_c, 2, 69, 25
4, 55919, Note_on_c, 2, 69, 0
4, 59041, Note_on_c, 2, 62, 25
4, 59159, Note_on_c, 2, 62, 0
4, 59281, Note_on_c, 2, 62, 25
4, 59399, Note_on_c, 2, 62, 0
4, 59761, Note_on_c, 2, 62, 25
4, 60119, Note_on_c, 2, 62, 0
4, 69121, Note_on_c, 2, 71, 62
4, 69239, Note_on_c, 2, 71, 0
4, 69301, Note_on_c, 2, 69, 62
4, 69329, Note_on_c, 2, 69, 0
4, 69361, Note_on_c, 2, 67, 62
4, 69479, Note_on_c, 2, 67, 0
4, 69541, Note_on_c, 2, 66, 62
4, 69569, Note_on_c, 2, 66, 0
4, 69601, Note_on_c, 2, 64, 62
4, 69629, Note_on_c, 2, 64, 0
4, 69721, Note_on_c, 2, 62, 62
4, 69749, Note_on_c, 2, 62, 0
4, 69901, Note_on_c, 2, 61, 84
4, 69929, Note_on_c, 2, 61, 0
4, 69930, Note_on_c, 2, 62, 84
4, 69959, Note_on_c, 2, 62, 0
4, 69960, Note_on_c, 2, 64, 84
4, 69989, Note_on_c, 2, 64, 0
4, 69990, Note_on_c, 2, 66, 84
4, 70019, Note_on_c, 2, 66, 0
4, 70020, Note_on_c, 2, 68, 84
4, 70049, Note_on_c, 2, 68, 0
4, 70050, Note_on_c, 2, 69, 84
4, 70079, Note_on_c, 2, 69, 0
4, 70080, Note_on_c, 2, 68, 62
4, 70109, Note_on_c, 2, 68, 0
4, 70110, Note_on_c, 2, 69, 62
4, 70139, Note_on_c, 2, 69, 0
4, 70140, Note_on_c, 2, 68, 62
4, 70169, Note_on_c, 2, 68, 0
4, 70170, Note_on_c, 2, 69, 62
4, 70199, Note_on_c, 2, 69, 0
4, 70200, Note_on_c, 2, 68, 62
4, 70229, Note_on_c, 2, 68, 0
4, 70230, Note_on_c, 2, 69, 62
4, 70259, Note_on_c, 2, 69, 0
4, 70260, Note_on_c, 2, 68, 41
4, 70289, Note_on_c, 2, 68, 0
4, 70290, Note_on_c, 2, 69, 41
4, 70319, Note_on_c, 2, 69, 0
4, 76321, Program_c, 2, 0
4, 89522, Note_on_c, 2, 69, 62
4, 89580, Note_on_c, 2, 69, 0
4, 89581, Note_on_c, 2, 67, 62
4, 89640, Note_on_c, 2, 67, 0
4, 89641, Note_on_c, 2, 66, 62
4, 89700, Note_on_c, 2, 66, 0
4, 89701, Note_on_c, 2, 64, 62
4, 89760, Note_on_c, 2, 64, 0
4, 89761, Note_on_c, 2, 62, 62
4, 90000, Note_on_c, 2, 62, 0
4, 90001, Note_on_c, 2, 71, 62
4, 90060, Note_on_c, 2, 71, 0
4, 90061, Note_on_c, 2, 69, 62
4, 90120, Note_on_c, 2, 69, 0
4, 90121, Note_on_c, 2, 67, 62
4, 90180, Note_on_c, 2, 67, 0
4, 90181, Note_on_c, 2, 66, 62
4, 90240, Note_on_c, 2, 66, 0
4, 90241, Note_on_c, 2, 62, 62
4, 90480, Note_on_c, 2, 62, 0
4, 90481, Note_on_c, 2, 69, 62
4, 90540, Note_on_c, 2, 69, 0
4, 90602, Note_on_c, 2, 69, 62
4, 90660, Note_on_c, 2, 69, 0
4, 90722, Note_on_c, 2, 69, 62
4, 90780, Note_on_c, 2, 69, 0
4, 90842, Note_on_c, 2, 69, 62
4, 90900, Note_on_c, 2, 69, 0
4, 90962, Note_on_c, 2, 69, 62
4, 91020, Note_on_c, 2, 69, 0
4, 91082, Note_on_c, 2, 69, 62
4, 91440, Note_on_c, 2, 69, 0
4, 91441, Note_on_c, 2, 69, 62
4, 91560, Note_on_c, 2, 69, 0
4, 91561, Note_on_c, 2, 69, 62
4, 91920, Note_on_c, 2, 69, 0
4, 91921, Note_on_c, 2, 69, 62
4, 91980, Note_on_c, 2, 69, 0
4, 92162, Note_on_c, 2, 69, 62
4, 92220, Note_on_c, 2, 69, 0
4, 92402, Note_on_c, 2, 69, 62
4, 92640, Note_on_c, 2, 69, 0
4, 103322, Note_on_c, 2, 73, 62
4, 103440, Note_on_c, 2, 73, 0
4, 103441, Note_on_c, 2, 74, 25
4, 103560, Note_on_c, 2, 74, 0
4, 103561, Note_on_c, 2, 71, 25
4, 103680, Note_on_c, 2, 71, 0
4, 103681, Note_on_c, 2, 73, 25
4, 103800, Note_on_c, 2, 73, 0
4, 103801, Note_on_c, 2, 69, 25
4, 103920, Note_on_c, 2, 69, 0
4, 103921, Note_on_c, 2, 71, 25
4, 104040, Note_on_c, 2, 71, 0
4, 104041, Note_on_c, 2, 68, 25
4, 104160, Note_on_c, 2, 68, 0
4, 104161, Note_on_c, 2, 69, 25
4, 104280, Note_on_c, 2, 69, 0
4, 117362, Note_on_c, 2, 69, 84
4, 117420, Note_on_c, 2, 69, 0
4, 117421, Note_on_c, 2, 67, 84
4, 117480, Note_on_c, 2, 67, 0
4, 117481, Note_on_c, 2, 66, 84
4, 117540, Note_on_c, 2, 66, 0
4, 117541, Note_on_c, 2, 64, 84
4, 117600, Note_on_c, 2, 64, 0
4, 117601, Note_on_c, 2, 62, 84
4, 117840, Note_on_c, 2, 62, 0
4, 117841, Note_on_c, 2, 71, 84
4, 117900, Note_on_c, 2, 71, 0
4, 117901, Note_on_c, 2, 69, 84
4, 117960, Note_on_c, 2, 69, 0
4, 117961, Note_on_c, 2, 67, 84
4, 118020, Note_on_c, 2, 67, 0
4, 118021, Note_on_c, 2, 66, 84
4, 118080, Note_on_c, 2, 66, 0
4, 118081, Note_on_c, 2, 64, 84
4, 118320, Note_on_c, 2, 64, 0
4, 118321, Note_on_c, 2, 69, 84
4, 118380, Note_on_c, 2, 69, 0
4, 118381, Note_on_c, 2, 68, 84
4, 118440, Note_on_c, 2, 68, 0
4, 118441, Note_on_c, 2, 69, 84
4, 118500, Note_on_c, 2, 69, 0
4, 118501, Note_on_c, 2, 68, 84
4, 118560, Note_on_c, 2, 68, 0
4, 118561, Note_on_c, 2, 69, 84
4, 118620, Note_on_c, 2, 69, 0
4, 118621, Note_on_c, 2, 68, 84
4, 118680, Note_on_c, 2, 68, 0
4, 118681, Note_on_c, 2, 69, 84
4, 118740, Note_on_c, 2, 69, 0
4, 118741, Note_on_c, 2, 68, 84
4, 118800, Note_on_c, 2, 68, 0
4, 118801, Note_on_c, 2, 69, 84
4, 119040, Note_on_c, 2, 69, 0
4, 119162, Note_on_c, 2, 62, 84
4, 119220, Note_on_c, 2, 62, 0
4, 119282, Note_on_c, 2, 61, 84
4, 119340, Note_on_c, 2, 61, 0
4, 119402, Note_on_c, 2, 62, 84
4, 119460, Note_on_c, 2, 62, 0
4, 119522, Note_on_c, 2, 64, 84
4, 119580, Note_on_c, 2, 64, 0
4, 119642, Note_on_c, 2, 62, 84
4, 119700, Note_on_c, 2, 62, 0
4, 119762, Note_on_c, 2, 61, 84
4, 120000, Note_on_c, 2, 61, 0
4, 120602, Note_on_c, 2, 70, 41
4, 120720, Note_on_c, 2, 70, 0
4, 120721, Note_on_c, 2, 71, 41
4, 120840, Note_on_c, 2, 71, 0
4, 120841, Note_on_c, 2, 68, 41
4, 120960, Note_on_c, 2, 68, 0
4, 120961, Note_on_c, 2, 69, 41
4, 121080, Note_on_c, 2, 69, 0
4, 121081, Note_on_c, 2, 66, 41
4, 121200, Note_on_c, 2, 66, 0
4, 121201, Note_on_c, 2, 67, 41
4, 121320, Note_on_c, 2, 67, 0
4, 121321, Note_on_c, 2, 64, 41
4, 121440, Note_on_c, 2, 64, 0
4, 121441, Note_on_c, 2, 66, 41
4, 121560, Note_on_c, 2, 66, 0
4, 121561, Note_on_c, 2, 73, 84
4, 121620, Note_on_c, 2, 73, 0
4, 121682, Note_on_c, 2, 69, 84
4, 121920, Note_on_c, 2, 69, 0
4, 121921, Note_on_c, 2, 67, 84
4, 122160, Note_on_c, 2, 67, 0
4, 122161, Note_on_c, 2, 66, 84
4, 122400, Note_on_c, 2, 66, 0
4, 124562, Note_on_c, 2, 69, 84
4, 124800, Note_on_c, 2, 69, 0
4, 125042, Note_on_c, 2, 69, 84
4, 125280, Note_on_c, 2, 69, 0
4, 125522, Note_on_c, 2, 69, 84
4, 125760, Note_on_c, 2, 69, 0
4, 126002, Note_on_c, 2, 69, 84
4, 126120, Note_on_c, 2, 69, 0
4, 126242, Note_on_c, 2, 74, 107
4, 126360, Note_on_c, 2, 74, 0
4, 126482, Note_on_c, 2, 74, 107
4, 126600, Note_on_c, 2, 74, 0
4, 126722, Note_on_c, 2, 64, 107
4, 126840, Note_on_c, 2, 64, 0
4, 126962, Note_on_c, 2, 66, 107
4, 127200, Note_on_c, 2, 66, 0
4, 127200, End_track
5, 0, Start_track
5, 0, MIDI_port, 0
5, 0, Title_t, "Sequenced by Don Stones"
5, 0, Program_c, 3, 0
5, 0, Program_c, 3, 0
5, 0, Control_c, 3, 7, 127
5, 36001, Note_on_c, 3, 66, 84
5, 36179, Note_on_c, 3, 66, 0
5, 36180, Note_on_c, 3, 66, 84
5, 36239, Note_on_c, 3, 66, 0
5, 36240, Note_on_c, 3, 66, 84
5, 36599, Note_on_c, 3, 66, 0
5, 36600, Note_on_c, 3, 66, 25
5, 36719, Note_on_c, 3, 66, 0
5, 36720, Note_on_c, 3, 67, 25
5, 36839, Note_on_c, 3, 67, 0
5, 36840, Note_on_c, 3, 69, 25
5, 36959, Note_on_c, 3, 69, 0
5, 36960, Note_on_c, 3, 70, 25
5, 37079, Note_on_c, 3, 70, 0
5, 37080, Note_on_c, 3, 69, 25
5, 37199, Note_on_c, 3, 69, 0
5, 37200, Note_on_c, 3, 67, 25
5, 37319, Note_on_c, 3, 67, 0
5, 37320, Note_on_c, 3, 68, 25
5, 37439, Note_on_c, 3, 68, 0
5, 76321, Program_c, 3, 0
5, 126962, Note_on_c, 3, 62, 127
5, 127200, Note_on_c, 3, 62, 0
5, 127442, Note_on_c, 3, 67, 62
5, 127680, Note_on_c, 3, 67, 0
5, 127922, Note_on_c, 3, 66, 62
5, 128160, Note_on_c, 3, 66, 0
5, 128160, End_track
6, 0, Start_track
6, 0, MIDI_port, 0
6, 0, Title_t, "P.T. 6'35"""
6, 0, Program_c, 4, 0
6, 0, Program_c, 4, 0
6, 0, Control_c, 4, 7, 127
6, 2881, Note_on_c, 4, 62, 25
6, 3119, Note_on_c, 4, 62, 0
6, 3120, Note_on_c, 4, 61, 25
6, 3239, Note_on_c, 4, 61, 0
6, 3601, Note_on_c, 4, 57, 63
6, 3839, Note_on_c, 4, 57, 0
6, 3840, Note_on_c, 4, 57, 63
6, 4079, Note_on_c, 4, 57, 0
6, 6000, Note_on_c, 4, 57, 19
6, 6118, Note_on_c, 4, 57, 0
6, 6421, Note_on_c, 4, 47, 50
6, 6439, Note_on_c, 4, 47, 0
6, 6440, Note_on_c, 4, 51, 63
6, 6459, Note_on_c, 4, 51, 0
6, 6460, Note_on_c, 4, 54, 63
6, 6479, Note_on_c, 4, 54, 0
6, 6480, Note_on_c, 4, 59, 63
6, 6659, Note_on_c, 4, 59, 0
6, 6660, Note_on_c, 4, 59, 63
6, 6719, Note_on_c, 4, 59, 0
6, 6720, Note_on_c, 4, 59, 63
6, 6839, Note_on_c, 4, 59, 0
6, 11521, Note_on_c, 4, 57, 23
6, 11879, Note_on_c, 4, 57, 0
6, 12241, Note_on_c, 4, 57, 76
6, 12479, Note_on_c, 4, 57, 0
6, 12480, Note_on_c, 4, 57, 76
6, 12719, Note_on_c, 4, 57, 0
6, 12961, Note_on_c, 4, 55, 76
6, 13199, Note_on_c, 4, 55, 0
6, 13200, Note_on_c, 4, 60, 76
6, 13439, Note_on_c, 4, 60, 0
6, 13440, Note_on_c, 4, 59, 76
6, 13679, Note_on_c, 4, 59, 0
6, 13680, Note_on_c, 4, 62, 76
6, 14159, Note_on_c, 4, 62, 0
6, 14160, Note_on_c, 4, 64, 23
6, 14279, Note_on_c, 4, 64, 0
6, 14401, Note_on_c, 4, 50, 23
6, 14519, Note_on_c, 4, 50, 0
6, 14641, Note_on_c, 4, 62, 23
6, 14759, Note_on_c, 4, 62, 0
6, 15061, Note_on_c, 4, 57, 37
6, 15119, Note_on_c, 4, 57, 0
6, 15120, Note_on_c, 4, 50, 37
6, 15359, Note_on_c, 4, 50, 0
6, 15401, Note_on_c, 4, 49, 37
6, 15439, Note_on_c, 4, 49, 0
6, 15440, Note_on_c, 4, 50, 37
6, 15479, Note_on_c, 4, 50, 0
6, 15480, Note_on_c, 4, 54, 37
6, 15519, Note_on_c, 4, 54, 0
6, 15520, Note_on_c, 4, 57, 37
6, 15559, Note_on_c, 4, 57, 0
6, 15841, Note_on_c, 4, 55, 37
6, 16079, Note_on_c, 4, 55, 0
6, 16080, Note_on_c, 4, 54, 37
6, 16199, Note_on_c, 4, 54, 0
6, 17281, Note_on_c, 4, 62, 37
6, 17519, Note_on_c, 4, 62, 0
6, 17520, Note_on_c, 4, 61, 37
6, 17639, Note_on_c, 4, 61, 0
6, 18001, Note_on_c, 4, 57, 37
6, 18239, Note_on_c, 4, 57, 0
6, 18240, Note_on_c, 4, 57, 37
6, 18479, Note_on_c, 4, 57, 0
6, 20161, Note_on_c, 4, 66, 23
6, 20399, Note_on_c, 4, 66, 0
6, 20400, Note_on_c, 4, 64, 12
6, 20519, Note_on_c, 4, 64, 0
6, 21241, Note_on_c, 4, 60, 37
6, 21299, Note_on_c, 4, 60, 0
6, 21300, Note_on_c, 4, 57, 37
6, 21359, Note_on_c, 4, 57, 0
6, 21360, Note_on_c, 4, 59, 37
6, 21419, Note_on_c, 4, 59, 0
6, 21420, Note_on_c, 4, 55, 37
6, 21479, Note_on_c, 4, 55, 0
6, 21480, Note_on_c, 4, 57, 37
6, 21539, Note_on_c, 4, 57, 0
6, 21540, Note_on_c, 4, 54, 37
6, 21599, Note_on_c, 4, 54, 0
6, 21600, Note_on_c, 4, 55, 37
6, 21719, Note_on_c, 4, 55, 0
6, 21961, Note_on_c, 4, 59, 23
6, 22019, Note_on_c, 4, 59, 0
6, 22020, Note_on_c, 4, 55, 23
6, 22079, Note_on_c, 4, 55, 0
6, 22080, Note_on_c, 4, 57, 23
6, 22139, Note_on_c, 4, 57, 0
6, 22140, Note_on_c, 4, 54, 23
6, 22199, Note_on_c, 4, 54, 0
6, 22200, Note_on_c, 4, 55, 23
6, 22259, Note_on_c, 4, 55, 0
6, 22260, Note_on_c, 4, 52, 23
6, 22319, Note_on_c, 4, 52, 0
6, 22320, Note_on_c, 4, 54, 23
6, 22439, Note_on_c, 4, 54, 0
6, 22621, Note_on_c, 4, 54, 23
6, 22679, Note_on_c, 4, 54, 0
6, 22680, Note_on_c, 4, 42, 23
6, 22739, Note_on_c, 4, 42, 0
6, 22740, Note_on_c, 4, 54, 23
6, 22799, Note_on_c, 4, 54, 0
6, 22800, Note_on_c, 4, 43, 23
6, 22859, Note_on_c, 4, 43, 0
6, 22860, Note_on_c, 4, 55, 23
6, 22919, Note_on_c, 4, 55, 0
6, 22920, Note_on_c, 4, 44, 23
6, 22979, Note_on_c, 4, 44, 0
6, 22980, Note_on_c, 4, 56, 23
6, 23039, Note_on_c, 4, 56, 0
6, 23101, Note_on_c, 4, 45, 23
6, 23159, Note_on_c, 4, 45, 0
6, 23160, Note_on_c, 4, 57, 23
6, 23219, Note_on_c, 4, 57, 0
6, 23220, Note_on_c, 4, 56, 23
6, 23279, Note_on_c, 4, 56, 0
6, 23280, Note_on_c, 4, 57, 23
6, 23339, Note_on_c, 4, 57, 0
6, 23340, Note_on_c, 4, 57, 23
6, 23399, Note_on_c, 4, 57, 0
6, 23400, Note_on_c, 4, 61, 23
6, 23459, Note_on_c, 4, 61, 0
6, 23460, Note_on_c, 4, 64, 23
6, 23519, Note_on_c, 4, 64, 0
6, 25921, Note_on_c, 4, 62, 56
6, 26159, Note_on_c, 4, 62, 0
6, 26160, Note_on_c, 4, 61, 23
6, 26219, Note_on_c, 4, 61, 0
6, 26641, Note_on_c, 4, 57, 76
6, 26879, Note_on_c, 4, 57, 0
6, 26880, Note_on_c, 4, 57, 76
6, 27119, Note_on_c, 4, 57, 0
6, 27361, Note_on_c, 4, 55, 97
6, 27599, Note_on_c, 4, 55, 0
6, 27600, Note_on_c, 4, 60, 97
6, 27839, Note_on_c, 4, 60, 0
6, 27840, Note_on_c, 4, 59, 56
6, 28079, Note_on_c, 4, 59, 0
6, 28080, Note_on_c, 4, 62, 56
6, 28559, Note_on_c, 4, 62, 0
6, 28560, Note_on_c, 4, 64, 23
6, 28619, Note_on_c, 4, 64, 0
6, 28801, Note_on_c, 4, 50, 23
6, 29039, Note_on_c, 4, 50, 0
6, 29040, Note_on_c, 4, 62, 12
6, 29159, Note_on_c, 4, 62, 0
6, 29521, Note_on_c, 4, 62, 76
6, 29759, Note_on_c, 4, 62, 0
6, 29801, Note_on_c, 4, 62, 76
6, 29839, Note_on_c, 4, 62, 0
6, 29840, Note_on_c, 4, 60, 76
6, 29879, Note_on_c, 4, 60, 0
6, 29880, Note_on_c, 4, 58, 76
6, 29919, Note_on_c, 4, 58, 0
6, 29920, Note_on_c, 4, 57, 76
6, 29959, Note_on_c, 4, 57, 0
6, 29960, Note_on_c, 4, 55, 76
6, 29999, Note_on_c, 4, 55, 0
6, 30000, Note_on_c, 4, 53, 76
6, 30039, Note_on_c, 4, 53, 0
6, 30040, Note_on_c, 4, 52, 76
6, 30079, Note_on_c, 4, 52, 0
6, 30080, Note_on_c, 4, 50, 76
6, 30119, Note_on_c, 4, 50, 0
6, 30120, Note_on_c, 4, 48, 76
6, 30159, Note_on_c, 4, 48, 0
6, 30160, Note_on_c, 4, 46, 76
6, 30199, Note_on_c, 4, 46, 0
6, 30200, Note_on_c, 4, 45, 76
6, 30239, Note_on_c, 4, 45, 0
6, 30240, Note_on_c, 4, 43, 76
6, 30479, Note_on_c, 4, 43, 0
6, 30521, Note_on_c, 4, 55, 76
6, 30559, Note_on_c, 4, 55, 0
6, 30560, Note_on_c, 4, 57, 76
6, 30599, Note_on_c, 4, 57, 0
6, 30600, Note_on_c, 4, 58, 76
6, 30639, Note_on_c, 4, 58, 0
6, 30640, Note_on_c, 4, 60, 76
6, 30679, Note_on_c, 4, 60, 0
6, 30680, Note_on_c, 4, 62, 76
6, 30719, Note_on_c, 4, 62, 0
6, 30720, Note_on_c, 4, 64, 76
6, 30759, Note_on_c, 4, 64, 0
6, 30760, Note_on_c, 4, 65, 76
6, 30799, Note_on_c, 4, 65, 0
6, 30800, Note_on_c, 4, 67, 76
6, 30839, Note_on_c, 4, 67, 0
6, 30840, Note_on_c, 4, 57, 76
6, 30879, Note_on_c, 4, 57, 0
6, 30880, Note_on_c, 4, 59, 76
6, 30919, Note_on_c, 4, 59, 0
6, 30920, Note_on_c, 4, 61, 76
6, 30959, Note_on_c, 4, 61, 0
6, 30960, Note_on_c, 4, 62, 76
6, 30999, Note_on_c, 4, 62, 0
6, 31000, Note_on_c, 4, 64, 76
6, 31039, Note_on_c, 4, 64, 0
6, 31040, Note_on_c, 4, 65, 76
6, 31079, Note_on_c, 4, 65, 0
6, 31080, Note_on_c, 4, 58, 76
6, 31119, Note_on_c, 4, 58, 0
6, 31120, Note_on_c, 4, 60, 76
6, 31159, Note_on_c, 4, 60, 0
6, 31160, Note_on_c, 4, 62, 76
6, 31199, Note_on_c, 4, 62, 0
6, 31200, Note_on_c, 4, 55, 76
6, 31239, Note_on_c, 4, 55, 0
6, 31240, Note_on_c, 4, 57, 76
6, 31279, Note_on_c, 4, 57, 0
6, 31280, Note_on_c, 4, 58, 76
6, 31319, Note_on_c, 4, 58, 0
6, 31320, Note_on_c, 4, 52, 76
6, 31359, Note_on_c, 4, 52, 0
6, 31360, Note_on_c, 4, 53, 76
6, 31399, Note_on_c, 4, 53, 0
6, 31400, Note_on_c, 4, 55, 76
6, 31439, Note_on_c, 4, 55, 0
6, 31440, Note_on_c, 4, 48, 76
6, 31479, Note_on_c, 4, 48, 0
6, 31480, Note_on_c, 4, 52, 76
6, 31519, Note_on_c, 4, 52, 0
6, 31520, Note_on_c, 4, 55, 76
6, 31559, Note_on_c, 4, 55, 0
6, 31560, Note_on_c, 4, 60, 76
6, 31599, Note_on_c, 4, 60, 0
6, 31600, Note_on_c, 4, 64, 76
6, 31639, Note_on_c, 4, 64, 0
6, 31640, Note_on_c, 4, 60, 76
6, 31679, Note_on_c, 4, 60, 0
6, 33841, Note_on_c, 4, 65, 37
6, 33959, Note_on_c, 4, 65, 0
6, 33960, Note_on_c, 4, 58, 37
6, 34079, Note_on_c, 4, 58, 0
6, 34080, Note_on_c, 4, 57, 37
6, 34319, Note_on_c, 4, 57, 0
6, 34320, Note_on_c, 4, 58, 37
6, 34559, Note_on_c, 4, 58, 0
6, 34560, Note_on_c, 4, 41, 25
6, 34599, Note_on_c, 4, 41, 0
6, 34600, Note_on_c, 4, 45, 25
6, 34639, Note_on_c, 4, 45, 0
6, 34640, Note_on_c, 4, 48, 25
6, 34679, Note_on_c, 4, 48, 0
6, 34680, Note_on_c, 4, 53, 25
6, 34719, Note_on_c, 4, 53, 0
6, 34720, Note_on_c, 4, 57, 25
6, 34759, Note_on_c, 4, 57, 0
6, 34760, Note_on_c, 4, 53, 25
6, 34799, Note_on_c, 4, 53, 0
6, 34800, Note_on_c, 4, 48, 25
6, 34839, Note_on_c, 4, 48, 0
6, 34840, Note_on_c, 4, 53, 25
6, 34879, Note_on_c, 4, 53, 0
6, 34880, Note_on_c, 4, 48, 25
6, 34919, Note_on_c, 4, 48, 0
6, 34920, Note_on_c, 4, 45, 25
6, 34959, Note_on_c, 4, 45, 0
6, 34960, Note_on_c, 4, 48, 25
6, 34999, Note_on_c, 4, 48, 0
6, 35000, Note_on_c, 4, 45, 25
6, 35039, Note_on_c, 4, 45, 0
6, 35040, Note_on_c, 4, 41, 25
6, 35159, Note_on_c, 4, 41, 0
6, 35221, Note_on_c, 4, 53, 84
6, 35279, Note_on_c, 4, 53, 0
6, 35280, Note_on_c, 4, 63, 76
6, 35459, Note_on_c, 4, 63, 0
6, 35460, Note_on_c, 4, 63, 76
6, 35519, Note_on_c, 4, 63, 0
6, 35520, Note_on_c, 4, 63, 76
6, 35759, Note_on_c, 4, 63, 0
6, 35941, Note_on_c, 4, 50, 76
6, 35999, Note_on_c, 4, 50, 0
6, 37681, Note_on_c, 4, 57, 37
6, 37919, Note_on_c, 4, 57, 0
6, 38101, Note_on_c, 4, 45, 76
6, 38129, Note_on_c, 4, 45, 0
6, 38161, Note_on_c, 4, 50, 76
6, 38339, Note_on_c, 4, 50, 0
6, 38340, Note_on_c, 4, 50, 76
6, 38399, Note_on_c, 4, 50, 0
6, 38400, Note_on_c, 4, 52, 76
6, 38579, Note_on_c, 4, 52, 0
6, 38580, Note_on_c, 4, 52, 76
6, 38639, Note_on_c, 4, 52, 0
6, 38640, Note_on_c, 4, 53, 76
6, 38699, Note_on_c, 4, 53, 0
6, 38761, Note_on_c, 4, 54, 76
6, 38819, Note_on_c, 4, 54, 0
6, 38881, Note_on_c, 4, 55, 76
6, 38939, Note_on_c, 4, 55, 0
6, 39001, Note_on_c, 4, 58, 76
6, 39059, Note_on_c, 4, 58, 0
6, 39121, Note_on_c, 4, 57, 76
6, 39139, Note_on_c, 4, 57, 0
6, 39161, Note_on_c, 4, 62, 76
6, 39179, Note_on_c, 4, 62, 0
6, 39201, Note_on_c, 4, 65, 76
6, 39219, Note_on_c, 4, 65, 0
6, 39601, Note_on_c, 4, 57, 37
6, 39619, Note_on_c, 4, 57, 0
6, 39641, Note_on_c, 4, 61, 37
6, 39659, Note_on_c, 4, 61, 0
6, 39681, Note_on_c, 4, 64, 37
6, 39699, Note_on_c, 4, 64, 0
6, 40321, Note_on_c, 4, 46, 56
6, 41039, Note_on_c, 4, 46, 0
6, 41040, Note_on_c, 4, 45, 56
6, 41519, Note_on_c, 4, 45, 0
6, 41641, Note_on_c, 4, 57, 23
6, 41699, Note_on_c, 4, 57, 0
6, 41761, Note_on_c, 4, 58, 23
6, 42119, Note_on_c, 4, 58, 0
6, 42661, Note_on_c, 4, 46, 76
6, 42719, Note_on_c, 4, 46, 0
6, 42720, Note_on_c, 4, 58, 76
6, 42899, Note_on_c, 4, 58, 0
6, 42900, Note_on_c, 4, 58, 76
6, 42959, Note_on_c, 4, 58, 0
6, 42960, Note_on_c, 4, 58, 76
6, 43079, Note_on_c, 4, 58, 0
6, 43381, Note_on_c, 4, 46, 76
6, 43439, Note_on_c, 4, 46, 0
6, 43440, Note_on_c, 4, 62, 76
6, 43619, Note_on_c, 4, 62, 0
6, 43620, Note_on_c, 4, 62, 76
6, 43679, Note_on_c, 4, 62, 0
6, 43680, Note_on_c, 4, 62, 76
6, 43859, Note_on_c, 4, 62, 0
6, 43860, Note_on_c, 4, 62, 76
6, 43919, Note_on_c, 4, 62, 0
6, 43920, Note_on_c, 4, 61, 76
6, 44099, Note_on_c, 4, 61, 0
6, 44100, Note_on_c, 4, 61, 56
6, 44159, Note_on_c, 4, 61, 0
6, 44160, Note_on_c, 4, 62, 56
6, 44339, Note_on_c, 4, 62, 0
6, 44340, Note_on_c, 4, 62, 37
6, 44399, Note_on_c, 4, 62, 0
6, 44400, Note_on_c, 4, 64, 37
6, 44579, Note_on_c, 4, 64, 0
6, 46801, Note_on_c, 4, 62, 23
6, 47039, Note_on_c, 4, 62, 0
6, 47040, Note_on_c, 4, 61, 12
6, 47159, Note_on_c, 4, 61, 0
6, 47521, Note_on_c, 4, 57, 76
6, 47759, Note_on_c, 4, 57, 0
6, 47760, Note_on_c, 4, 57, 76
6, 47999, Note_on_c, 4, 57, 0
6, 49921, Note_on_c, 4, 57, 12
6, 50039, Note_on_c, 4, 57, 0
6, 50401, Note_on_c, 4, 50, 76
6, 50639, Note_on_c, 4, 50, 0
6, 52561, Note_on_c, 4, 62, 23
6, 52799, Note_on_c, 4, 62, 0
6, 52800, Note_on_c, 4, 61, 12
6, 52919, Note_on_c, 4, 61, 0
6, 53281, Note_on_c, 4, 57, 76
6, 53519, Note_on_c, 4, 57, 0
6, 53520, Note_on_c, 4, 57, 76
6, 53759, Note_on_c, 4, 57, 0
6, 53760, Note_on_c, 4, 57, 76
6, 53819, Note_on_c, 4, 57, 0
6, 53820, Note_on_c, 4, 59, 76
6, 53839, Note_on_c, 4, 59, 0
6, 53840, Note_on_c, 4, 57, 76
6, 53859, Note_on_c, 4, 57, 0
6, 53860, Note_on_c, 4, 56, 76
6, 53879, Note_on_c, 4, 56, 0
6, 53880, Note_on_c, 4, 57, 76
6, 53969, Note_on_c, 4, 57, 0
6, 53970, Note_on_c, 4, 59, 76
6, 53999, Note_on_c, 4, 59, 0
6, 54000, Note_on_c, 4, 55, 76
6, 54239, Note_on_c, 4, 55, 0
6, 54240, Note_on_c, 4, 54, 76
6, 54479, Note_on_c, 4, 54, 0
6, 54480, Note_on_c, 4, 66, 23
6, 54719, Note_on_c, 4, 66, 0
6, 54720, Note_on_c, 4, 64, 23
6, 54839, Note_on_c, 4, 64, 0
6, 54840, Note_on_c, 4, 61, 23
6, 54959, Note_on_c, 4, 61, 0
6, 54960, Note_on_c, 4, 62, 23
6, 55079, Note_on_c, 4, 62, 0
6, 55080, Note_on_c, 4, 54, 23
6, 55199, Note_on_c, 4, 54, 0
6, 55200, Note_on_c, 4, 55, 23
6, 55319, Note_on_c, 4, 55, 0
6, 55320, Note_on_c, 4, 56, 23
6, 55439, Note_on_c, 4, 56, 0
6, 55440, Note_on_c, 4, 57, 23
6, 55919, Note_on_c, 4, 57, 0
6, 56101, Note_on_c, 4, 47, 76
6, 56119, Note_on_c, 4, 47, 0
6, 56120, Note_on_c, 4, 51, 76
6, 56139, Note_on_c, 4, 51, 0
6, 56140, Note_on_c, 4, 54, 76
6, 56159, Note_on_c, 4, 54, 0
6, 56160, Note_on_c, 4, 59, 76
6, 56339, Note_on_c, 4, 59, 0
6, 56340, Note_on_c, 4, 59, 76
6, 56399, Note_on_c, 4, 59, 0
6, 56400, Note_on_c, 4, 59, 76
6, 56639, Note_on_c, 4, 59, 0
6, 61201, Note_on_c, 4, 62, 23
6, 61439, Note_on_c, 4, 62, 0
6, 61440, Note_on_c, 4, 61, 23
6, 61559, Note_on_c, 4, 61, 0
6, 61921, Note_on_c, 4, 57, 76
6, 62159, Note_on_c, 4, 57, 0
6, 62160, Note_on_c, 4, 57, 76
6, 62399, Note_on_c, 4, 57, 0
6, 62641, Note_on_c, 4, 55, 76
6, 62879, Note_on_c, 4, 55, 0
6, 62880, Note_on_c, 4, 60, 76
6, 63119, Note_on_c, 4, 60, 0
6, 63120, Note_on_c, 4, 59, 76
6, 63359, Note_on_c, 4, 59, 0
6, 63360, Note_on_c, 4, 62, 76
6, 63839, Note_on_c, 4, 62, 0
6, 63840, Note_on_c, 4, 64, 23
6, 63959, Note_on_c, 4, 64, 0
6, 64081, Note_on_c, 4, 50, 23
6, 64199, Note_on_c, 4, 50, 0
6, 64321, Note_on_c, 4, 62, 23
6, 64439, Note_on_c, 4, 62, 0
6, 64711, Note_on_c, 4, 47, 56
6, 64729, Note_on_c, 4, 47, 0
6, 64730, Note_on_c, 4, 51, 56
6, 64749, Note_on_c, 4, 51, 0
6, 64750, Note_on_c, 4, 54, 56
6, 64769, Note_on_c, 4, 54, 0
6, 64801, Note_on_c, 4, 59, 56
6, 64829, Note_on_c, 4, 59, 0
6, 66271, Note_on_c, 4, 57, 76
6, 66299, Note_on_c, 4, 57, 0
6, 66300, Note_on_c, 4, 61, 76
6, 66329, Note_on_c, 4, 61, 0
6, 66511, Note_on_c, 4, 57, 76
6, 66539, Note_on_c, 4, 57, 0
6, 66540, Note_on_c, 4, 61, 76
6, 66569, Note_on_c, 4, 61, 0
6, 66961, Note_on_c, 4, 62, 56
6, 67199, Note_on_c, 4, 62, 0
6, 67200, Note_on_c, 4, 61, 23
6, 67439, Note_on_c, 4, 61, 0
6, 67681, Note_on_c, 4, 66, 23
6, 67799, Note_on_c, 4, 66, 0
6, 67921, Note_on_c, 4, 66, 23
6, 68039, Note_on_c, 4, 66, 0
6, 68401, Note_on_c, 4, 62, 56
6, 68759, Note_on_c, 4, 62, 0
6, 69841, Note_on_c, 4, 57, 56
6, 69869, Note_on_c, 4, 57, 0
6, 69870, Note_on_c, 4, 59, 56
6, 69899, Note_on_c, 4, 59, 0
6, 70321, Note_on_c, 4, 57, 23
6, 70439, Note_on_c, 4, 57, 0
6, 70561, Note_on_c, 4, 57, 76
6, 70799, Note_on_c, 4, 57, 0
6, 70800, Note_on_c, 4, 57, 76
6, 71039, Note_on_c, 4, 57, 0
6, 71281, Note_on_c, 4, 61, 56
6, 71519, Note_on_c, 4, 61, 0
6, 71520, Note_on_c, 4, 63, 56
6, 71759, Note_on_c, 4, 63, 0
6, 71760, Note_on_c, 4, 64, 56
6, 71999, Note_on_c, 4, 64, 0
6, 72000, Note_on_c, 4, 66, 23
6, 72239, Note_on_c, 4, 66, 0
6, 72481, Note_on_c, 4, 64, 23
6, 72719, Note_on_c, 4, 64, 0
6, 72720, Note_on_c, 4, 50, 23
6, 72959, Note_on_c, 4, 50, 0
6, 72960, Note_on_c, 4, 62, 23
6, 73199, Note_on_c, 4, 62, 0
6, 73441, Note_on_c, 4, 62, 23
6, 73679, Note_on_c, 4, 62, 0
6, 73680, Note_on_c, 4, 64, 23
6, 73919, Note_on_c, 4, 64, 0
6, 74161, Note_on_c, 4, 61, 56
6, 74279, Note_on_c, 4, 61, 0
6, 74401, Note_on_c, 4, 60, 56
6, 74519, Note_on_c, 4, 60, 0
6, 74641, Note_on_c, 4, 59, 56
6, 74759, Note_on_c, 4, 59, 0
6, 74881, Note_on_c, 4, 62, 56
6, 75239, Note_on_c, 4, 62, 0
6, 75481, Note_on_c, 4, 57, 37
6, 75539, Note_on_c, 4, 57, 0
6, 75601, Note_on_c, 4, 50, 23
6, 75839, Note_on_c, 4, 50, 0
6, 75840, Note_on_c, 4, 62, 12
6, 75959, Note_on_c, 4, 62, 0
6, 76321, Program_c, 4, 1
6, 78002, Note_on_c, 4, 62, 23
6, 78120, Note_on_c, 4, 62, 0
6, 78121, Note_on_c, 4, 62, 23
6, 78240, Note_on_c, 4, 62, 0
6, 78241, Note_on_c, 4, 62, 23
6, 78360, Note_on_c, 4, 62, 0
6, 78361, Note_on_c, 4, 62, 23
6, 78480, Note_on_c, 4, 62, 0
6, 78481, Note_on_c, 4, 61, 23
6, 78600, Note_on_c, 4, 61, 0
6, 78601, Note_on_c, 4, 61, 23
6, 78720, Note_on_c, 4, 61, 0
6, 78721, Note_on_c, 4, 61, 23
6, 78840, Note_on_c, 4, 61, 0
6, 78841, Note_on_c, 4, 61, 23
6, 78960, Note_on_c, 4, 61, 0
6, 78961, Note_on_c, 4, 62, 23
6, 79080, Note_on_c, 4, 62, 0
6, 79081, Note_on_c, 4, 62, 23
6, 79200, Note_on_c, 4, 62, 0
6, 79201, Note_on_c, 4, 62, 23
6, 79320, Note_on_c, 4, 62, 0
6, 79321, Note_on_c, 4, 62, 23
6, 79440, Note_on_c, 4, 62, 0
6, 79441, Note_on_c, 4, 61, 37
6, 79560, Note_on_c, 4, 61, 0
6, 79561, Note_on_c, 4, 61, 37
6, 79680, Note_on_c, 4, 61, 0
6, 79681, Note_on_c, 4, 61, 56
6, 79800, Note_on_c, 4, 61, 0
6, 79801, Note_on_c, 4, 61, 56
6, 79920, Note_on_c, 4, 61, 0
6, 79921, Note_on_c, 4, 62, 56
6, 80160, Note_on_c, 4, 62, 0
6, 80161, Note_on_c, 4, 64, 37
6, 80400, Note_on_c, 4, 64, 0
6, 80401, Note_on_c, 4, 57, 23
6, 80520, Note_on_c, 4, 57, 0
6, 81842, Note_on_c, 4, 62, 23
6, 81960, Note_on_c, 4, 62, 0
6, 81961, Note_on_c, 4, 62, 23
6, 82080, Note_on_c, 4, 62, 0
6, 82081, Note_on_c, 4, 62, 23
6, 82200, Note_on_c, 4, 62, 0
6, 82201, Note_on_c, 4, 62, 23
6, 82320, Note_on_c, 4, 62, 0
6, 82321, Note_on_c, 4, 61, 23
6, 82440, Note_on_c, 4, 61, 0
6, 82441, Note_on_c, 4, 61, 23
6, 82560, Note_on_c, 4, 61, 0
6, 82561, Note_on_c, 4, 61, 23
6, 82680, Note_on_c, 4, 61, 0
6, 82681, Note_on_c, 4, 61, 23
6, 82800, Note_on_c, 4, 61, 0
6, 82801, Note_on_c, 4, 62, 23
6, 82920, Note_on_c, 4, 62, 0
6, 82921, Note_on_c, 4, 62, 23
6, 83040, Note_on_c, 4, 62, 0
6, 83041, Note_on_c, 4, 62, 23
6, 83160, Note_on_c, 4, 62, 0
6, 83161, Note_on_c, 4, 62, 23
6, 83280, Note_on_c, 4, 62, 0
6, 83281, Note_on_c, 4, 61, 37
6, 83400, Note_on_c, 4, 61, 0
6, 83401, Note_on_c, 4, 61, 37
6, 83520, Note_on_c, 4, 61, 0
6, 83521, Note_on_c, 4, 61, 56
6, 83640, Note_on_c, 4, 61, 0
6, 83641, Note_on_c, 4, 61, 56
6, 83760, Note_on_c, 4, 61, 0
6, 83761, Note_on_c, 4, 62, 56
6, 84000, Note_on_c, 4, 62, 0
6, 84001, Note_on_c, 4, 64, 37
6, 84240, Note_on_c, 4, 64, 0
6, 84241, Note_on_c, 4, 57, 23
6, 84360, Note_on_c, 4, 57, 0
6, 85562, Note_on_c, 4, 66, 23
6, 85680, Note_on_c, 4, 66, 0
6, 85681, Note_on_c, 4, 67, 23
6, 85800, Note_on_c, 4, 67, 0
6, 85801, Note_on_c, 4, 64, 23
6, 85920, Note_on_c, 4, 64, 0
6, 85921, Note_on_c, 4, 66, 23
6, 86040, Note_on_c, 4, 66, 0
6, 86041, Note_on_c, 4, 63, 23
6, 86160, Note_on_c, 4, 63, 0
6, 86161, Note_on_c, 4, 64, 23
6, 86280, Note_on_c, 4, 64, 0
6, 86281, Note_on_c, 4, 61, 23
6, 86400, Note_on_c, 4, 61, 0
6, 86401, Note_on_c, 4, 62, 23
6, 86460, Note_on_c, 4, 62, 0
6, 86522, Note_on_c, 4, 59, 23
6, 86580, Note_on_c, 4, 59, 0
6, 86642, Note_on_c, 4, 57, 23
6, 86700, Note_on_c, 4, 57, 0
6, 86701, Note_on_c, 4, 56, 23
6, 86760, Note_on_c, 4, 56, 0
6, 86761, Note_on_c, 4, 54, 23
6, 86820, Note_on_c, 4, 54, 0
6, 86821, Note_on_c, 4, 52, 23
6, 86880, Note_on_c, 4, 52, 0
6, 86881, Note_on_c, 4, 51, 23
6, 86940, Note_on_c, 4, 51, 0
6, 86941, Note_on_c, 4, 52, 23
6, 87000, Note_on_c, 4, 52, 0
6, 87001, Note_on_c, 4, 54, 23
6, 87060, Note_on_c, 4, 54, 0
6, 87061, Note_on_c, 4, 56, 23
6, 87120, Note_on_c, 4, 56, 0
6, 87121, Note_on_c, 4, 57, 23
6, 87360, Note_on_c, 4, 57, 0
6, 87482, Note_on_c, 4, 57, 23
6, 87540, Note_on_c, 4, 57, 0
6, 87602, Note_on_c, 4, 57, 37
6, 87660, Note_on_c, 4, 57, 0
6, 87661, Note_on_c, 4, 56, 37
6, 87720, Note_on_c, 4, 56, 0
6, 87721, Note_on_c, 4, 54, 37
6, 87780, Note_on_c, 4, 54, 0
6, 87781, Note_on_c, 4, 52, 37
6, 87840, Note_on_c, 4, 52, 0
6, 87841, Note_on_c, 4, 51, 37
6, 87900, Note_on_c, 4, 51, 0
6, 87901, Note_on_c, 4, 52, 37
6, 87960, Note_on_c, 4, 52, 0
6, 87961, Note_on_c, 4, 54, 37
6, 88020, Note_on_c, 4, 54, 0
6, 88021, Note_on_c, 4, 56, 37
6, 88080, Note_on_c, 4, 56, 0
6, 88081, Note_on_c, 4, 57, 37
6, 88320, Note_on_c, 4, 57, 0
6, 92762, Note_on_c, 4, 57, 37
6, 92880, Note_on_c, 4, 57, 0
6, 92881, Note_on_c, 4, 59, 37
6, 93000, Note_on_c, 4, 59, 0
6, 93001, Note_on_c, 4, 55, 37
6, 93120, Note_on_c, 4, 55, 0
6, 93121, Note_on_c, 4, 57, 37
6, 93240, Note_on_c, 4, 57, 0
6, 93241, Note_on_c, 4, 54, 37
6, 93360, Note_on_c, 4, 54, 0
6, 93361, Note_on_c, 4, 55, 37
6, 93480, Note_on_c, 4, 55, 0
6, 93481, Note_on_c, 4, 52, 37
6, 93600, Note_on_c, 4, 52, 0
6, 93601, Note_on_c, 4, 54, 37
6, 93720, Note_on_c, 4, 54, 0
6, 93721, Note_on_c, 4, 59, 37
6, 93840, Note_on_c, 4, 59, 0
6, 93841, Note_on_c, 4, 59, 37
6, 94080, Note_on_c, 4, 59, 0
6, 94202, Note_on_c, 4, 50, 56
6, 94260, Note_on_c, 4, 50, 0
6, 94322, Note_on_c, 4, 50, 56
6, 94380, Note_on_c, 4, 50, 0
6, 94381, Note_on_c, 4, 49, 56
6, 94440, Note_on_c, 4, 49, 0
6, 94441, Note_on_c, 4, 47, 56
6, 94500, Note_on_c, 4, 47, 0
6, 94501, Note_on_c, 4, 45, 56
6, 94560, Note_on_c, 4, 45, 0
6, 94561, Note_on_c, 4, 44, 56
6, 94620, Note_on_c, 4, 44, 0
6, 94621, Note_on_c, 4, 45, 56
6, 94680, Note_on_c, 4, 45, 0
6, 94681, Note_on_c, 4, 47, 56
6, 94740, Note_on_c, 4, 47, 0
6, 94741, Note_on_c, 4, 49, 56
6, 94800, Note_on_c, 4, 49, 0
6, 94801, Note_on_c, 4, 50, 37
6, 95040, Note_on_c, 4, 50, 0
6, 95162, Note_on_c, 4, 60, 37
6, 95220, Note_on_c, 4, 60, 0
6, 95282, Note_on_c, 4, 60, 37
6, 95340, Note_on_c, 4, 60, 0
6, 95341, Note_on_c, 4, 59, 37
6, 95400, Note_on_c, 4, 59, 0
6, 95401, Note_on_c, 4, 57, 37
6, 95460, Note_on_c, 4, 57, 0
6, 95461, Note_on_c, 4, 55, 37
6, 95520, Note_on_c, 4, 55, 0
6, 95521, Note_on_c, 4, 54, 37
6, 95580, Note_on_c, 4, 54, 0
6, 95581, Note_on_c, 4, 55, 37
6, 95640, Note_on_c, 4, 55, 0
6, 95641, Note_on_c, 4, 57, 23
6, 95700, Note_on_c, 4, 57, 0
6, 95701, Note_on_c, 4, 59, 23
6, 95760, Note_on_c, 4, 59, 0
6, 95761, Note_on_c, 4, 60, 23
6, 96000, Note_on_c, 4, 60, 0
6, 98042, Note_on_c, 4, 64, 56
6, 98100, Note_on_c, 4, 64, 0
6, 98162, Note_on_c, 4, 64, 56
6, 98220, Note_on_c, 4, 64, 0
6, 98221, Note_on_c, 4, 63, 56
6, 98280, Note_on_c, 4, 63, 0
6, 98281, Note_on_c, 4, 61, 56
6, 98340, Note_on_c, 4, 61, 0
6, 98341, Note_on_c, 4, 59, 56
6, 98400, Note_on_c, 4, 59, 0
6, 98401, Note_on_c, 4, 58, 56
6, 98460, Note_on_c, 4, 58, 0
6, 98461, Note_on_c, 4, 59, 56
6, 98520, Note_on_c, 4, 59, 0
6, 98521, Note_on_c, 4, 61, 56
6, 98580, Note_on_c, 4, 61, 0
6, 98581, Note_on_c, 4, 63, 56
6, 98640, Note_on_c, 4, 63, 0
6, 98641, Note_on_c, 4, 64, 56
6, 98880, Note_on_c, 4, 64, 0
6, 99002, Note_on_c, 4, 62, 56
6, 99060, Note_on_c, 4, 62, 0
6, 99122, Note_on_c, 4, 62, 56
6, 99180, Note_on_c, 4, 62, 0
6, 99181, Note_on_c, 4, 61, 56
6, 99240, Note_on_c, 4, 61, 0
6, 99241, Note_on_c, 4, 59, 56
6, 99300, Note_on_c, 4, 59, 0
6, 99301, Note_on_c, 4, 57, 56
6, 99360, Note_on_c, 4, 57, 0
6, 99361, Note_on_c, 4, 56, 56
6, 99420, Note_on_c, 4, 56, 0
6, 99421, Note_on_c, 4, 57, 56
6, 99480, Note_on_c, 4, 57, 0
6, 99481, Note_on_c, 4, 59, 56
6, 99540, Note_on_c, 4, 59, 0
6, 99541, Note_on_c, 4, 61, 56
6, 99600, Note_on_c, 4, 61, 0
6, 100082, Note_on_c, 4, 59, 76
6, 100140, Note_on_c, 4, 59, 0
6, 100202, Note_on_c, 4, 68, 76
6, 100260, Note_on_c, 4, 68, 0
6, 100322, Note_on_c, 4, 57, 76
6, 100380, Note_on_c, 4, 57, 0
6, 100442, Note_on_c, 4, 66, 76
6, 100500, Note_on_c, 4, 66, 0
6, 101042, Note_on_c, 4, 64, 23
6, 101100, Note_on_c, 4, 64, 0
6, 101162, Note_on_c, 4, 61, 23
6, 101220, Note_on_c, 4, 61, 0
6, 101282, Note_on_c, 4, 62, 23
6, 101340, Note_on_c, 4, 62, 0
6, 101402, Note_on_c, 4, 54, 23
6, 101460, Note_on_c, 4, 54, 0
6, 101522, Note_on_c, 4, 55, 23
6, 101760, Note_on_c, 4, 55, 0
6, 101882, Note_on_c, 4, 55, 37
6, 101940, Note_on_c, 4, 55, 0
6, 102002, Note_on_c, 4, 54, 37
6, 102240, Note_on_c, 4, 54, 0
6, 104282, Note_on_c, 4, 61, 23
6, 104400, Note_on_c, 4, 61, 0
6, 104401, Note_on_c, 4, 62, 23
6, 104520, Note_on_c, 4, 62, 0
6, 104521, Note_on_c, 4, 59, 23
6, 104640, Note_on_c, 4, 59, 0
6, 104641, Note_on_c, 4, 61, 23
6, 104760, Note_on_c, 4, 61, 0
6, 104761, Note_on_c, 4, 58, 23
6, 104880, Note_on_c, 4, 58, 0
6, 104881, Note_on_c, 4, 59, 37
6, 105000, Note_on_c, 4, 59, 0
6, 105001, Note_on_c, 4, 56, 37
6, 105120, Note_on_c, 4, 56, 0
6, 105121, Note_on_c, 4, 57, 56
6, 105360, Note_on_c, 4, 57, 0
6, 105361, Note_on_c, 4, 57, 56
6, 107040, Note_on_c, 4, 57, 0
6, 107162, Note_on_c, 4, 57, 23
6, 107280, Note_on_c, 4, 57, 0
6, 107281, Note_on_c, 4, 59, 23
6, 107400, Note_on_c, 4, 59, 0
6, 107401, Note_on_c, 4, 56, 23
6, 107520, Note_on_c, 4, 56, 0
6, 107521, Note_on_c, 4, 57, 23
6, 107640, Note_on_c, 4, 57, 0
6, 107641, Note_on_c, 4, 54, 23
6, 107760, Note_on_c, 4, 54, 0
6, 107761, Note_on_c, 4, 55, 37
6, 107880, Note_on_c, 4, 55, 0
6, 107881, Note_on_c, 4, 52, 37
6, 108000, Note_on_c, 4, 52, 0
6, 108001, Note_on_c, 4, 54, 37
6, 108120, Note_on_c, 4, 54, 0
6, 108121, Note_on_c, 4, 51, 37
6, 108240, Note_on_c, 4, 51, 0
6, 108241, Note_on_c, 4, 52, 56
6, 108360, Note_on_c, 4, 52, 0
6, 108361, Note_on_c, 4, 49, 56
6, 108480, Note_on_c, 4, 49, 0
6, 108481, Note_on_c, 4, 50, 56
6, 108600, Note_on_c, 4, 50, 0
6, 108601, Note_on_c, 4, 47, 56
6, 108720, Note_on_c, 4, 47, 0
6, 108721, Note_on_c, 4, 48, 56
6, 108840, Note_on_c, 4, 48, 0
6, 108841, Note_on_c, 4, 45, 56
6, 108960, Note_on_c, 4, 45, 0
6, 108961, Note_on_c, 4, 47, 56
6, 109080, Note_on_c, 4, 47, 0
6, 109081, Note_on_c, 4, 43, 56
6, 109140, Note_on_c, 4, 43, 0
6, 109202, Note_on_c, 4, 55, 76
6, 109560, Note_on_c, 4, 55, 0
6, 114962, Note_on_c, 4, 59, 56
6, 115200, Note_on_c, 4, 59, 0
6, 115322, Note_on_c, 4, 57, 56
6, 115380, Note_on_c, 4, 57, 0
6, 115442, Note_on_c, 4, 57, 56
6, 115500, Note_on_c, 4, 57, 0
6, 115501, Note_on_c, 4, 55, 56
6, 115560, Note_on_c, 4, 55, 0
6, 115561, Note_on_c, 4, 54, 56
6, 115620, Note_on_c, 4, 54, 0
6, 115621, Note_on_c, 4, 52, 56
6, 115680, Note_on_c, 4, 52, 0
6, 115681, Note_on_c, 4, 51, 56
6, 115740, Note_on_c, 4, 51, 0
6, 115741, Note_on_c, 4, 52, 56
6, 115800, Note_on_c, 4, 52, 0
6, 115801, Note_on_c, 4, 54, 56
6, 115860, Note_on_c, 4, 54, 0
6, 115861, Note_on_c, 4, 55, 56
6, 115920, Note_on_c, 4, 55, 0
6, 115921, Note_on_c, 4, 57, 56
6, 116160, Note_on_c, 4, 57, 0
6, 121562, Note_on_c, 4, 55, 76
6, 121620, Note_on_c, 4, 55, 0
6, 121922, Note_on_c, 4, 64, 76
6, 122040, Note_on_c, 4, 64, 0
6, 122041, Note_on_c, 4, 61, 76
6, 122160, Note_on_c, 4, 61, 0
6, 122161, Note_on_c, 4, 62, 76
6, 122400, Note_on_c, 4, 62, 0
6, 122642, Note_on_c, 4, 67, 23
6, 122880, Note_on_c, 4, 67, 0
6, 123122, Note_on_c, 4, 66, 23
6, 123360, Note_on_c, 4, 66, 0
6, 123602, Note_on_c, 4, 67, 23
6, 123840, Note_on_c, 4, 67, 0
6, 124082, Note_on_c, 4, 66, 23
6, 124320, Note_on_c, 4, 66, 0
6, 124442, Note_on_c, 4, 62, 56
6, 124500, Note_on_c, 4, 62, 0
6, 124562, Note_on_c, 4, 62, 56
6, 124620, Note_on_c, 4, 62, 0
6, 124621, Note_on_c, 4, 61, 56
6, 124680, Note_on_c, 4, 61, 0
6, 124681, Note_on_c, 4, 59, 56
6, 124740, Note_on_c, 4, 59, 0
6, 124741, Note_on_c, 4, 57, 56
6, 124800, Note_on_c, 4, 57, 0
6, 124801, Note_on_c, 4, 56, 56
6, 124860, Note_on_c, 4, 56, 0
6, 124861, Note_on_c, 4, 57, 56
6, 124920, Note_on_c, 4, 57, 0
6, 124921, Note_on_c, 4, 59, 56
6, 124980, Note_on_c, 4, 59, 0
6, 124981, Note_on_c, 4, 61, 56
6, 125040, Note_on_c, 4, 61, 0
6, 125041, Note_on_c, 4, 62, 76
6, 125100, Note_on_c, 4, 62, 0
6, 125101, Note_on_c, 4, 61, 76
6, 125160, Note_on_c, 4, 61, 0
6, 125161, Note_on_c, 4, 59, 76
6, 125220, Note_on_c, 4, 59, 0
6, 125221, Note_on_c, 4, 57, 76
6, 125280, Note_on_c, 4, 57, 0
6, 125281, Note_on_c, 4, 55, 76
6, 125340, Note_on_c, 4, 55, 0
6, 125341, Note_on_c, 4, 54, 76
6, 125400, Note_on_c, 4, 54, 0
6, 125401, Note_on_c, 4, 52, 76
6, 125460, Note_on_c, 4, 52, 0
6, 125461, Note_on_c, 4, 50, 76
6, 125520, Note_on_c, 4, 50, 0
6, 125521, Note_on_c, 4, 50, 76
6, 125580, Note_on_c, 4, 50, 0
6, 125581, Note_on_c, 4, 49, 76
6, 125640, Note_on_c, 4, 49, 0
6, 125641, Note_on_c, 4, 47, 76
6, 125700, Note_on_c, 4, 47, 0
6, 125701, Note_on_c, 4, 45, 76
6, 125760, Note_on_c, 4, 45, 0
6, 125761, Note_on_c, 4, 44, 76
6, 125820, Note_on_c, 4, 44, 0
6, 125821, Note_on_c, 4, 45, 76
6, 125880, Note_on_c, 4, 45, 0
6, 125881, Note_on_c, 4, 47, 76
6, 125940, Note_on_c, 4, 47, 0
6, 125941, Note_on_c, 4, 49, 76
6, 126000, Note_on_c, 4, 49, 0
6, 126001, Note_on_c, 4, 50, 76
6, 126120, Note_on_c, 4, 50, 0
6, 126242, Note_on_c, 4, 47, 76
6, 126360, Note_on_c, 4, 47, 0
6, 126482, Note_on_c, 4, 43, 76
6, 126600, Note_on_c, 4, 43, 0
6, 126722, Note_on_c, 4, 43, 76
6, 126840, Note_on_c, 4, 43, 0
6, 126962, Note_on_c, 4, 50, 76
6, 127200, Note_on_c, 4, 50, 0
6, 127442, Note_on_c, 4, 64, 56
6, 127680, Note_on_c, 4, 64, 0
6, 127922, Note_on_c, 4, 66, 56
6, 128160, Note_on_c, 4, 66, 0
6, 128402, Note_on_c, 4, 55, 23
6, 128640, Note_on_c, 4, 55, 0
6, 128882, Note_on_c, 4, 54, 23
6, 129120, Note_on_c, 4, 54, 0
6, 129120, End_track
7, 0, Start_track
7, 0, MIDI_port, 0
7, 0, Title_t, "        "
7, 0, Program_c, 5, 0
7, 0, Program_c, 5, 0
7, 0, Control_c, 5, 7, 127
7, 2881, Note_on_c, 5, 57, 25
7, 3239, Note_on_c, 5, 57, 0
7, 3601, Note_on_c, 5, 54, 63
7, 3839, Note_on_c, 5, 54, 0
7, 3840, Note_on_c, 5, 55, 63
7, 4079, Note_on_c, 5, 55, 0
7, 12241, Note_on_c, 5, 54, 76
7, 12479, Note_on_c, 5, 54, 0
7, 12480, Note_on_c, 5, 55, 76
7, 12719, Note_on_c, 5, 55, 0
7, 12961, Note_on_c, 5, 52, 76
7, 13199, Note_on_c, 5, 52, 0
7, 13200, Note_on_c, 5, 57, 76
7, 13439, Note_on_c, 5, 57, 0
7, 13440, Note_on_c, 5, 59, 76
7, 13679, Note_on_c, 5, 59, 0
7, 13680, Note_on_c, 5, 57, 76
7, 14159, Note_on_c, 5, 57, 0
7, 14160, Note_on_c, 5, 57, 23
7, 14279, Note_on_c, 5, 57, 0
7, 15121, Note_on_c, 5, 45, 23
7, 15359, Note_on_c, 5, 45, 0
7, 15841, Note_on_c, 5, 50, 23
7, 16199, Note_on_c, 5, 50, 0
7, 17281, Note_on_c, 5, 57, 23
7, 17639, Note_on_c, 5, 57, 0
7, 18001, Note_on_c, 5, 54, 23
7, 18239, Note_on_c, 5, 54, 0
7, 18240, Note_on_c, 5, 55, 23
7, 18479, Note_on_c, 5, 55, 0
7, 20161, Note_on_c, 5, 57, 23
7, 20519, Note_on_c, 5, 57, 0
7, 25921, Note_on_c, 5, 57, 37
7, 26279, Note_on_c, 5, 57, 0
7, 26641, Note_on_c, 5, 54, 56
7, 26879, Note_on_c, 5, 54, 0
7, 26880, Note_on_c, 5, 55, 56
7, 27119, Note_on_c, 5, 55, 0
7, 27361, Note_on_c, 5, 52, 76
7, 27599, Note_on_c, 5, 52, 0
7, 27600, Note_on_c, 5, 57, 76
7, 27839, Note_on_c, 5, 57, 0
7, 27840, Note_on_c, 5, 59, 56
7, 28079, Note_on_c, 5, 59, 0
7, 28080, Note_on_c, 5, 57, 56
7, 28559, Note_on_c, 5, 57, 0
7, 28560, Note_on_c, 5, 57, 56
7, 28619, Note_on_c, 5, 57, 0
7, 29521, Note_on_c, 5, 57, 76
7, 29759, Note_on_c, 5, 57, 0
7, 34081, Note_on_c, 5, 48, 37
7, 34559, Note_on_c, 5, 48, 0
7, 38101, Note_on_c, 5, 33, 56
7, 38129, Note_on_c, 5, 33, 0
7, 38161, Note_on_c, 5, 38, 56
7, 38339, Note_on_c, 5, 38, 0
7, 38340, Note_on_c, 5, 38, 56
7, 38399, Note_on_c, 5, 38, 0
7, 38400, Note_on_c, 5, 40, 56
7, 38579, Note_on_c, 5, 40, 0
7, 38580, Note_on_c, 5, 40, 56
7, 38639, Note_on_c, 5, 40, 0
7, 38640, Note_on_c, 5, 41, 56
7, 38699, Note_on_c, 5, 41, 0
7, 38761, Note_on_c, 5, 42, 56
7, 38819, Note_on_c, 5, 42, 0
7, 38881, Note_on_c, 5, 43, 56
7, 38939, Note_on_c, 5, 43, 0
7, 39001, Note_on_c, 5, 46, 56
7, 39059, Note_on_c, 5, 46, 0
7, 40321, Note_on_c, 5, 34, 56
7, 41039, Note_on_c, 5, 34, 0
7, 41040, Note_on_c, 5, 33, 56
7, 41519, Note_on_c, 5, 33, 0
7, 43381, Note_on_c, 5, 34, 56
7, 43439, Note_on_c, 5, 34, 0
7, 43440, Note_on_c, 5, 58, 56
7, 43619, Note_on_c, 5, 58, 0
7, 43620, Note_on_c, 5, 58, 56
7, 43679, Note_on_c, 5, 58, 0
7, 43680, Note_on_c, 5, 58, 56
7, 43859, Note_on_c, 5, 58, 0
7, 43860, Note_on_c, 5, 58, 56
7, 43919, Note_on_c, 5, 58, 0
7, 43920, Note_on_c, 5, 57, 56
7, 44099, Note_on_c, 5, 57, 0
7, 44100, Note_on_c, 5, 57, 56
7, 44159, Note_on_c, 5, 57, 0
7, 44160, Note_on_c, 5, 57, 56
7, 44339, Note_on_c, 5, 57, 0
7, 44340, Note_on_c, 5, 57, 37
7, 44399, Note_on_c, 5, 57, 0
7, 44400, Note_on_c, 5, 57, 37
7, 44579, Note_on_c, 5, 57, 0
7, 46801, Note_on_c, 5, 57, 23
7, 47159, Note_on_c, 5, 57, 0
7, 47521, Note_on_c, 5, 54, 76
7, 47759, Note_on_c, 5, 54, 0
7, 47760, Note_on_c, 5, 55, 76
7, 47999, Note_on_c, 5, 55, 0
7, 50401, Note_on_c, 5, 45, 56
7, 50639, Note_on_c, 5, 45, 0
7, 52561, Note_on_c, 5, 57, 23
7, 52919, Note_on_c, 5, 57, 0
7, 53281, Note_on_c, 5, 54, 76
7, 53519, Note_on_c, 5, 54, 0
7, 53520, Note_on_c, 5, 55, 76
7, 53759, Note_on_c, 5, 55, 0
7, 54001, Note_on_c, 5, 52, 76
7, 54239, Note_on_c, 5, 52, 0
7, 54240, Note_on_c, 5, 51, 76
7, 54479, Note_on_c, 5, 51, 0
7, 54480, Note_on_c, 5, 63, 23
7, 54719, Note_on_c, 5, 63, 0
7, 61201, Note_on_c, 5, 57, 37
7, 61559, Note_on_c, 5, 57, 0
7, 61921, Note_on_c, 5, 54, 76
7, 62159, Note_on_c, 5, 54, 0
7, 62160, Note_on_c, 5, 55, 76
7, 62399, Note_on_c, 5, 55, 0
7, 62641, Note_on_c, 5, 52, 76
7, 62879, Note_on_c, 5, 52, 0
7, 62880, Note_on_c, 5, 57, 76
7, 63119, Note_on_c, 5, 57, 0
7, 63120, Note_on_c, 5, 59, 76
7, 63359, Note_on_c, 5, 59, 0
7, 63360, Note_on_c, 5, 57, 76
7, 63839, Note_on_c, 5, 57, 0
7, 63840, Note_on_c, 5, 57, 23
7, 63959, Note_on_c, 5, 57, 0
7, 66961, Note_on_c, 5, 57, 37
7, 67439, Note_on_c, 5, 57, 0
7, 67681, Note_on_c, 5, 62, 37
7, 67799, Note_on_c, 5, 62, 0
7, 67921, Note_on_c, 5, 62, 37
7, 68039, Note_on_c, 5, 62, 0
7, 70561, Note_on_c, 5, 54, 76
7, 70799, Note_on_c, 5, 54, 0
7, 70800, Note_on_c, 5, 55, 76
7, 71039, Note_on_c, 5, 55, 0
7, 71281, Note_on_c, 5, 55, 56
7, 71519, Note_on_c, 5, 55, 0
7, 71520, Note_on_c, 5, 60, 56
7, 71759, Note_on_c, 5, 60, 0
7, 71760, Note_on_c, 5, 59, 56
7, 71999, Note_on_c, 5, 59, 0
7, 72000, Note_on_c, 5, 62, 23
7, 72239, Note_on_c, 5, 62, 0
7, 72481, Note_on_c, 5, 57, 23
7, 72719, Note_on_c, 5, 57, 0
7, 74161, Note_on_c, 5, 52, 56
7, 74279, Note_on_c, 5, 52, 0
7, 74401, Note_on_c, 5, 54, 56
7, 74519, Note_on_c, 5, 54, 0
7, 74641, Note_on_c, 5, 55, 56
7, 74759, Note_on_c, 5, 55, 0
7, 74881, Note_on_c, 5, 57, 56
7, 75239, Note_on_c, 5, 57, 0
7, 76321, Program_c, 5, 1
7, 92762, Note_on_c, 5, 54, 37
7, 92880, Note_on_c, 5, 54, 0
7, 92881, Note_on_c, 5, 55, 37
7, 93000, Note_on_c, 5, 55, 0
7, 93001, Note_on_c, 5, 52, 37
7, 93120, Note_on_c, 5, 52, 0
7, 93121, Note_on_c, 5, 54, 37
7, 93240, Note_on_c, 5, 54, 0
7, 93241, Note_on_c, 5, 51, 37
7, 93360, Note_on_c, 5, 51, 0
7, 93361, Note_on_c, 5, 52, 37
7, 93480, Note_on_c, 5, 52, 0
7, 93481, Note_on_c, 5, 49, 37
7, 93600, Note_on_c, 5, 49, 0
7, 93601, Note_on_c, 5, 51, 37
7, 93840, Note_on_c, 5, 51, 0
7, 93841, Note_on_c, 5, 52, 37
7, 94080, Note_on_c, 5, 52, 0
7, 101882, Note_on_c, 5, 45, 37
7, 101940, Note_on_c, 5, 45, 0
7, 102002, Note_on_c, 5, 47, 37
7, 102240, Note_on_c, 5, 47, 0
7, 109202, Note_on_c, 5, 52, 66
7, 109560, Note_on_c, 5, 52, 0
7, 121682, Note_on_c, 5, 57, 76
7, 121920, Note_on_c, 5, 57, 0
7, 121921, Note_on_c, 5, 57, 76
7, 122160, Note_on_c, 5, 57, 0
7, 122161, Note_on_c, 5, 50, 76
7, 122400, Note_on_c, 5, 50, 0
7, 122642, Note_on_c, 5, 64, 23
7, 122880, Note_on_c, 5, 64, 0
7, 123122, Note_on_c, 5, 62, 23
7, 123360, Note_on_c, 5, 62, 0
7, 123602, Note_on_c, 5, 64, 23
7, 123840, Note_on_c, 5, 64, 0
7, 124082, Note_on_c, 5, 62, 23
7, 124320, Note_on_c, 5, 62, 0
7, 126242, Note_on_c, 5, 35, 23
7, 126360, Note_on_c, 5, 35, 0
7, 126482, Note_on_c, 5, 31, 23
7, 126600, Note_on_c, 5, 31, 0
7, 126722, Note_on_c, 5, 31, 23
7, 126840, Note_on_c, 5, 31, 0
7, 126962, Note_on_c, 5, 38, 23
7, 127200, Note_on_c, 5, 38, 0
7, 127442, Note_on_c, 5, 57, 56
7, 127680, Note_on_c, 5, 57, 0
7, 127922, Note_on_c, 5, 62, 56
7, 128160, Note_on_c, 5, 62, 0
7, 128402, Note_on_c, 5, 52, 23
7, 128640, Note_on_c, 5, 52, 0
7, 128882, Note_on_c, 5, 50, 23
7, 129120, Note_on_c, 5, 50, 0
7, 129120, End_track
8, 0, Start_track
8, 0, MIDI_port, 0
8, 0, Title_t, "        "
8, 0, Program_c, 6, 0
8, 0, Program_c, 6, 0
8, 0, Control_c, 6, 7, 127
8, 3601, Note_on_c, 6, 50, 63
8, 3839, Note_on_c, 6, 50, 0
8, 3840, Note_on_c, 6, 52, 63
8, 4079, Note_on_c, 6, 52, 0
8, 12241, Note_on_c, 6, 50, 76
8, 12479, Note_on_c, 6, 50, 0
8, 12480, Note_on_c, 6, 52, 76
8, 12719, Note_on_c, 6, 52, 0
8, 13201, Note_on_c, 6, 54, 76
8, 13439, Note_on_c, 6, 54, 0
8, 13440, Note_on_c, 6, 55, 76
8, 13679, Note_on_c, 6, 55, 0
8, 15121, Note_on_c, 6, 38, 23
8, 15359, Note_on_c, 6, 38, 0
8, 18001, Note_on_c, 6, 50, 23
8, 18239, Note_on_c, 6, 50, 0
8, 18240, Note_on_c, 6, 52, 23
8, 18479, Note_on_c, 6, 52, 0
8, 26641, Note_on_c, 6, 50, 56
8, 26879, Note_on_c, 6, 50, 0
8, 26880, Note_on_c, 6, 52, 56
8, 27119, Note_on_c, 6, 52, 0
8, 27601, Note_on_c, 6, 54, 76
8, 27839, Note_on_c, 6, 54, 0
8, 27840, Note_on_c, 6, 55, 56
8, 28079, Note_on_c, 6, 55, 0
8, 29521, Note_on_c, 6, 53, 76
8, 29759, Note_on_c, 6, 53, 0
8, 47521, Note_on_c, 6, 50, 76
8, 47759, Note_on_c, 6, 50, 0
8, 47760, Note_on_c, 6, 52, 76
8, 47999, Note_on_c, 6, 52, 0
8, 50401, Note_on_c, 6, 42, 56
8, 50639, Note_on_c, 6, 42, 0
8, 53281, Note_on_c, 6, 50, 76
8, 53519, Note_on_c, 6, 50, 0
8, 53520, Note_on_c, 6, 52, 76
8, 53759, Note_on_c, 6, 52, 0
8, 61921, Note_on_c, 6, 50, 76
8, 62159, Note_on_c, 6, 50, 0
8, 62160, Note_on_c, 6, 52, 76
8, 62399, Note_on_c, 6, 52, 0
8, 70561, Note_on_c, 6, 50, 76
8, 70799, Note_on_c, 6, 50, 0
8, 70800, Note_on_c, 6, 52, 76
8, 71039, Note_on_c, 6, 52, 0
8, 71281, Note_on_c, 6, 52, 56
8, 71519, Note_on_c, 6, 52, 0
8, 71520, Note_on_c, 6, 57, 56
8, 71759, Note_on_c, 6, 57, 0
8, 71760, Note_on_c, 6, 55, 56
8, 71999, Note_on_c, 6, 55, 0
8, 72000, Note_on_c, 6, 57, 23
8, 72239, Note_on_c, 6, 57, 0
8, 76321, Program_c, 6, 1
8, 101882, Note_on_c, 6, 33, 37
8, 101940, Note_on_c, 6, 33, 0
8, 102002, Note_on_c, 6, 35, 37
8, 102240, Note_on_c, 6, 35, 0
8, 109202, Note_on_c, 6, 45, 66
8, 109560, Note_on_c, 6, 45, 0
8, 122642, Note_on_c, 6, 57, 23
8, 122880, Note_on_c, 6, 57, 0
8, 123602, Note_on_c, 6, 57, 23
8, 123840, Note_on_c, 6, 57, 0
8, 128402, Note_on_c, 6, 45, 23
8, 128640, Note_on_c, 6, 45, 0
8, 128640, End_track
9, 0, Start_track
9, 0, MIDI_port, 0
9, 0, Title_t, "        "
9, 0, Program_c, 7, 0
9, 0, Program_c, 7, 0
9, 0, Control_c, 7, 7, 127
9, 29521, Note_on_c, 7, 50, 76
9, 29759, Note_on_c, 7, 50, 0
9, 50401, Note_on_c, 7, 38, 56
9, 50639, Note_on_c, 7, 38, 0
9, 71521, Note_on_c, 7, 54, 56
9, 71759, Note_on_c, 7, 54, 0
9, 71759, End_track
0, 0, End_of_file
