0, 0, Header, 1, 5, 240
1, 0, Start_track
1, 0, Time_signature, 2, 2, 24, 8
1, 0, Key_signature, 0, "major"
1, 0, Tempo, 333333
1, 0, End_track
2, 0, Start_track
2, 0, MIDI_port, 0
2, 0, Title_t, "Piano Sonata No.32 in b"
2, 0, Program_c, 0, 0
2, 0, Control_c, 0, 7, 127
2, 0, Control_c, 0, 10, 72
2, 360, Note_on_c, 0, 59, 72
2, 408, Note_on_c, 0, 59, 0
2, 480, Note_on_c, 0, 59, 72
2, 528, Note_on_c, 0, 59, 0
2, 600, Note_on_c, 0, 59, 72
2, 648, Note_on_c, 0, 59, 0
2, 720, Note_on_c, 0, 59, 72
2, 768, Note_on_c, 0, 59, 0
2, 840, Note_on_c, 0, 59, 72
2, 888, Note_on_c, 0, 59, 0
2, 960, Note_on_c, 0, 62, 80
2, 1080, Note_on_c, 0, 62, 0
2, 1080, Note_on_c, 0, 61, 72
2, 1164, Note_on_c, 0, 61, 0
2, 1200, Note_on_c, 0, 59, 72
2, 1248, Note_on_c, 0, 59, 0
2, 1320, Note_on_c, 0, 67, 72
2, 1368, Note_on_c, 0, 67, 0
2, 1440, Note_on_c, 0, 66, 72
2, 1560, Note_on_c, 0, 66, 0
2, 1560, Note_on_c, 0, 65, 72
2, 1644, Note_on_c, 0, 65, 0
2, 1680, Note_on_c, 0, 66, 72
2, 1728, Note_on_c, 0, 66, 0
2, 1800, Note_on_c, 0, 64, 72
2, 1848, Note_on_c, 0, 64, 0
2, 1920, Note_on_c, 0, 62, 72
2, 2040, Note_on_c, 0, 62, 0
2, 2040, Note_on_c, 0, 61, 72
2, 2124, Note_on_c, 0, 61, 0
2, 2160, Note_on_c, 0, 62, 72
2, 2208, Note_on_c, 0, 62, 0
2, 2280, Note_on_c, 0, 61, 72
2, 2328, Note_on_c, 0, 61, 0
2, 2400, Note_on_c, 0, 59, 72
2, 2520, Note_on_c, 0, 59, 0
2, 2520, Note_on_c, 0, 58, 72
2, 2568, Note_on_c, 0, 58, 0
2, 2640, Note_on_c, 0, 59, 72
2, 2688, Note_on_c, 0, 59, 0
2, 2760, Note_on_c, 0, 59, 72
2, 2808, Note_on_c, 0, 59, 0
2, 2880, Note_on_c, 0, 59, 72
2, 2928, Note_on_c, 0, 59, 0
2, 3000, Note_on_c, 0, 59, 72
2, 3048, Note_on_c, 0, 59, 0
2, 3120, Note_on_c, 0, 59, 72
2, 3168, Note_on_c, 0, 59, 0
2, 3240, Note_on_c, 0, 64, 72
2, 3288, Note_on_c, 0, 64, 0
2, 3360, Note_on_c, 0, 62, 80
2, 3480, Note_on_c, 0, 62, 0
2, 3480, Note_on_c, 0, 61, 72
2, 3528, Note_on_c, 0, 61, 0
2, 3600, Note_on_c, 0, 59, 72
2, 3648, Note_on_c, 0, 59, 0
2, 3720, Note_on_c, 0, 67, 72
2, 3768, Note_on_c, 0, 67, 0
2, 3840, Note_on_c, 0, 66, 72
2, 3888, Note_on_c, 0, 66, 0
2, 3960, Note_on_c, 0, 64, 72
2, 4008, Note_on_c, 0, 64, 0
2, 4080, Note_on_c, 0, 62, 72
2, 4128, Note_on_c, 0, 62, 0
2, 4200, Note_on_c, 0, 61, 72
2, 4248, Note_on_c, 0, 61, 0
2, 4320, Note_on_c, 0, 59, 72
2, 4560, Note_on_c, 0, 59, 0
2, 4680, Note_on_c, 0, 59, 72
2, 4728, Note_on_c, 0, 59, 0
2, 4800, Note_on_c, 0, 59, 72
2, 4848, Note_on_c, 0, 59, 0
2, 4920, Note_on_c, 0, 59, 72
2, 4968, Note_on_c, 0, 59, 0
2, 5040, Note_on_c, 0, 59, 72
2, 5088, Note_on_c, 0, 59, 0
2, 5160, Note_on_c, 0, 64, 72
2, 5208, Note_on_c, 0, 64, 0
2, 5280, Note_on_c, 0, 62, 80
2, 5400, Note_on_c, 0, 62, 0
2, 5400, Note_on_c, 0, 61, 72
2, 5448, Note_on_c, 0, 61, 0
2, 5520, Note_on_c, 0, 59, 72
2, 5568, Note_on_c, 0, 59, 0
2, 5640, Note_on_c, 0, 71, 72
2, 5688, Note_on_c, 0, 71, 0
2, 5760, Note_on_c, 0, 69, 72
2, 5880, Note_on_c, 0, 69, 0
2, 5880, Note_on_c, 0, 67, 72
2, 6000, Note_on_c, 0, 67, 0
2, 6000, Note_on_c, 0, 66, 72
2, 6120, Note_on_c, 0, 66, 0
2, 6120, Note_on_c, 0, 65, 72
2, 6240, Note_on_c, 0, 65, 0
2, 6240, Note_on_c, 0, 66, 72
2, 6480, Note_on_c, 0, 66, 0
2, 6600, Note_on_c, 0, 71, 72
2, 6648, Note_on_c, 0, 71, 0
2, 6720, Note_on_c, 0, 71, 72
2, 6768, Note_on_c, 0, 71, 0
2, 6840, Note_on_c, 0, 71, 72
2, 6888, Note_on_c, 0, 71, 0
2, 6960, Note_on_c, 0, 71, 72
2, 7008, Note_on_c, 0, 71, 0
2, 7080, Note_on_c, 0, 71, 72
2, 7128, Note_on_c, 0, 71, 0
2, 7200, Note_on_c, 0, 74, 80
2, 7320, Note_on_c, 0, 74, 0
2, 7320, Note_on_c, 0, 73, 70
2, 7368, Note_on_c, 0, 73, 0
2, 7440, Note_on_c, 0, 71, 68
2, 7488, Note_on_c, 0, 71, 0
2, 7560, Note_on_c, 0, 79, 66
2, 7608, Note_on_c, 0, 79, 0
2, 7680, Note_on_c, 0, 78, 64
2, 7800, Note_on_c, 0, 78, 0
2, 7800, Note_on_c, 0, 77, 62
2, 7848, Note_on_c, 0, 77, 0
2, 7920, Note_on_c, 0, 78, 60
2, 7968, Note_on_c, 0, 78, 0
2, 8040, Note_on_c, 0, 79, 58
2, 8088, Note_on_c, 0, 79, 0
2, 8160, Note_on_c, 0, 78, 56
2, 8280, Note_on_c, 0, 78, 0
2, 8280, Note_on_c, 0, 77, 54
2, 8328, Note_on_c, 0, 77, 0
2, 8400, Note_on_c, 0, 78, 52
2, 8448, Note_on_c, 0, 78, 0
2, 8520, Note_on_c, 0, 79, 50
2, 8568, Note_on_c, 0, 79, 0
2, 8640, Note_on_c, 0, 78, 48
2, 8760, Note_on_c, 0, 78, 0
2, 8760, Note_on_c, 0, 77, 46
2, 8808, Note_on_c, 0, 77, 0
2, 8880, Note_on_c, 0, 78, 44
2, 8976, Note_on_c, 0, 78, 0
2, 9960, Note_on_c, 0, 79, 64
2, 10008, Note_on_c, 0, 79, 0
2, 10080, Note_on_c, 0, 78, 64
2, 10200, Note_on_c, 0, 78, 0
2, 10200, Note_on_c, 0, 77, 64
2, 10248, Note_on_c, 0, 77, 0
2, 10320, Note_on_c, 0, 78, 64
2, 10368, Note_on_c, 0, 78, 0
2, 10440, Note_on_c, 0, 76, 64
2, 10488, Note_on_c, 0, 76, 0
2, 10560, Note_on_c, 0, 74, 64
2, 10680, Note_on_c, 0, 74, 0
2, 10680, Note_on_c, 0, 73, 64
2, 10728, Note_on_c, 0, 73, 0
2, 10800, Note_on_c, 0, 74, 64
2, 10848, Note_on_c, 0, 74, 0
2, 10920, Note_on_c, 0, 74, 64
2, 10920, Note_on_c, 0, 86, 64
2, 10968, Note_on_c, 0, 86, 0
2, 10968, Note_on_c, 0, 74, 0
2, 11040, Note_on_c, 0, 73, 64
2, 11040, Note_on_c, 0, 85, 64
2, 11088, Note_on_c, 0, 85, 0
2, 11088, Note_on_c, 0, 73, 0
2, 11160, Note_on_c, 0, 72, 64
2, 11160, Note_on_c, 0, 84, 64
2, 11208, Note_on_c, 0, 84, 0
2, 11208, Note_on_c, 0, 72, 0
2, 11280, Note_on_c, 0, 71, 64
2, 11280, Note_on_c, 0, 83, 64
2, 11328, Note_on_c, 0, 83, 0
2, 11328, Note_on_c, 0, 71, 0
2, 11400, Note_on_c, 0, 70, 64
2, 11400, Note_on_c, 0, 82, 64
2, 11448, Note_on_c, 0, 82, 0
2, 11448, Note_on_c, 0, 70, 0
2, 11520, Note_on_c, 0, 71, 64
2, 11520, Note_on_c, 0, 83, 64
2, 11760, Note_on_c, 0, 83, 0
2, 11760, Note_on_c, 0, 71, 0
2, 11880, Note_on_c, 0, 79, 64
2, 11880, Note_on_c, 0, 83, 64
2, 11928, Note_on_c, 0, 83, 0
2, 11928, Note_on_c, 0, 79, 0
2, 12000, Note_on_c, 0, 78, 64
2, 12000, Note_on_c, 0, 81, 64
2, 12240, Note_on_c, 0, 81, 0
2, 12240, Note_on_c, 0, 78, 0
2, 12360, Note_on_c, 0, 73, 64
2, 12360, Note_on_c, 0, 79, 64
2, 12408, Note_on_c, 0, 79, 0
2, 12408, Note_on_c, 0, 73, 0
2, 12480, Note_on_c, 0, 74, 64
2, 12480, Note_on_c, 0, 78, 64
2, 12720, Note_on_c, 0, 78, 0
2, 12720, Note_on_c, 0, 74, 0
2, 12840, Note_on_c, 0, 62, 64
2, 12840, Note_on_c, 0, 74, 64
2, 12888, Note_on_c, 0, 74, 0
2, 12888, Note_on_c, 0, 62, 0
2, 12960, Note_on_c, 0, 61, 64
2, 12960, Note_on_c, 0, 73, 64
2, 13008, Note_on_c, 0, 73, 0
2, 13008, Note_on_c, 0, 61, 0
2, 13080, Note_on_c, 0, 60, 64
2, 13080, Note_on_c, 0, 72, 64
2, 13128, Note_on_c, 0, 72, 0
2, 13128, Note_on_c, 0, 60, 0
2, 13200, Note_on_c, 0, 59, 64
2, 13200, Note_on_c, 0, 71, 64
2, 13248, Note_on_c, 0, 71, 0
2, 13248, Note_on_c, 0, 59, 0
2, 13320, Note_on_c, 0, 58, 64
2, 13320, Note_on_c, 0, 70, 64
2, 13368, Note_on_c, 0, 70, 0
2, 13368, Note_on_c, 0, 58, 0
2, 13440, Note_on_c, 0, 59, 64
2, 13440, Note_on_c, 0, 71, 64
2, 13800, Note_on_c, 0, 71, 0
2, 13800, Note_on_c, 0, 59, 0
2, 13800, Note_on_c, 0, 63, 64
2, 13800, Note_on_c, 0, 75, 64
2, 13848, Note_on_c, 0, 75, 0
2, 13848, Note_on_c, 0, 63, 0
2, 13920, Note_on_c, 0, 64, 64
2, 13920, Note_on_c, 0, 76, 64
2, 14280, Note_on_c, 0, 76, 0
2, 14280, Note_on_c, 0, 64, 0
2, 14280, Note_on_c, 0, 66, 64
2, 14280, Note_on_c, 0, 78, 64
2, 14400, Note_on_c, 0, 78, 0
2, 14400, Note_on_c, 0, 66, 0
2, 14400, Note_on_c, 0, 67, 64
2, 14400, Note_on_c, 0, 79, 64
2, 14760, Note_on_c, 0, 79, 0
2, 14760, Note_on_c, 0, 67, 0
2, 14760, Note_on_c, 0, 70, 64
2, 14760, Note_on_c, 0, 82, 64
2, 14880, Note_on_c, 0, 82, 0
2, 14880, Note_on_c, 0, 70, 0
2, 14880, Note_on_c, 0, 71, 64
2, 14880, Note_on_c, 0, 83, 64
2, 15240, Note_on_c, 0, 83, 0
2, 15240, Note_on_c, 0, 71, 0
2, 15240, Note_on_c, 0, 73, 64
2, 15240, Note_on_c, 0, 85, 64
2, 15360, Note_on_c, 0, 85, 0
2, 15360, Note_on_c, 0, 73, 0
2, 15360, Note_on_c, 0, 74, 64
2, 15360, Note_on_c, 0, 86, 64
2, 15720, Note_on_c, 0, 86, 0
2, 15720, Note_on_c, 0, 74, 0
2, 15720, Note_on_c, 0, 76, 64
2, 15840, Note_on_c, 0, 76, 0
2, 15840, Note_on_c, 0, 86, 64
2, 16200, Note_on_c, 0, 86, 0
2, 16200, Note_on_c, 0, 74, 64
2, 16320, Note_on_c, 0, 74, 0
2, 16320, Note_on_c, 0, 86, 64
2, 16680, Note_on_c, 0, 86, 0
2, 16680, Note_on_c, 0, 76, 64
2, 16800, Note_on_c, 0, 76, 0
2, 16800, Note_on_c, 0, 85, 64
2, 17160, Note_on_c, 0, 85, 0
2, 17160, Note_on_c, 0, 74, 64
2, 17280, Note_on_c, 0, 74, 0
2, 17280, Note_on_c, 0, 86, 64
2, 17640, Note_on_c, 0, 86, 0
2, 17640, Note_on_c, 0, 76, 64
2, 17760, Note_on_c, 0, 85, 64
2, 18480, Note_on_c, 0, 85, 0
2, 18480, Note_on_c, 0, 76, 0
2, 19080, Note_on_c, 0, 74, 88
2, 19128, Note_on_c, 0, 74, 0
2, 19200, Note_on_c, 0, 74, 88
2, 19248, Note_on_c, 0, 74, 0
2, 19320, Note_on_c, 0, 74, 88
2, 19368, Note_on_c, 0, 74, 0
2, 19440, Note_on_c, 0, 74, 88
2, 19488, Note_on_c, 0, 74, 0
2, 19560, Note_on_c, 0, 74, 88
2, 19608, Note_on_c, 0, 74, 0
2, 19680, Note_on_c, 0, 74, 88
2, 19740, Note_on_c, 0, 74, 0
2, 19740, Note_on_c, 0, 76, 88
2, 19800, Note_on_c, 0, 76, 0
2, 19800, Note_on_c, 0, 78, 88
2, 19860, Note_on_c, 0, 78, 0
2, 19860, Note_on_c, 0, 76, 88
2, 19920, Note_on_c, 0, 76, 0
2, 19920, Note_on_c, 0, 74, 88
2, 19980, Note_on_c, 0, 74, 0
2, 19980, Note_on_c, 0, 76, 88
2, 20040, Note_on_c, 0, 76, 0
2, 20040, Note_on_c, 0, 78, 88
2, 20100, Note_on_c, 0, 78, 0
2, 20100, Note_on_c, 0, 76, 88
2, 20160, Note_on_c, 0, 76, 0
2, 20160, Note_on_c, 0, 74, 88
2, 20220, Note_on_c, 0, 74, 0
2, 20220, Note_on_c, 0, 76, 88
2, 20280, Note_on_c, 0, 76, 0
2, 20280, Note_on_c, 0, 78, 88
2, 20340, Note_on_c, 0, 78, 0
2, 20340, Note_on_c, 0, 76, 88
2, 20400, Note_on_c, 0, 76, 0
2, 20400, Note_on_c, 0, 74, 88
2, 20460, Note_on_c, 0, 74, 0
2, 20460, Note_on_c, 0, 76, 88
2, 20520, Note_on_c, 0, 76, 0
2, 20520, Note_on_c, 0, 78, 88
2, 20580, Note_on_c, 0, 78, 0
2, 20580, Note_on_c, 0, 76, 88
2, 20640, Note_on_c, 0, 76, 0
2, 20640, Note_on_c, 0, 74, 88
2, 20700, Note_on_c, 0, 74, 0
2, 20700, Note_on_c, 0, 76, 88
2, 20760, Note_on_c, 0, 76, 0
2, 20760, Note_on_c, 0, 78, 88
2, 20820, Note_on_c, 0, 78, 0
2, 20820, Note_on_c, 0, 76, 88
2, 20880, Note_on_c, 0, 76, 0
2, 20880, Note_on_c, 0, 74, 88
2, 20940, Note_on_c, 0, 74, 0
2, 20940, Note_on_c, 0, 76, 88
2, 21000, Note_on_c, 0, 76, 0
2, 21000, Note_on_c, 0, 78, 88
2, 21060, Note_on_c, 0, 78, 0
2, 21060, Note_on_c, 0, 76, 88
2, 21120, Note_on_c, 0, 76, 0
2, 21120, Note_on_c, 0, 74, 88
2, 21180, Note_on_c, 0, 74, 0
2, 21180, Note_on_c, 0, 76, 88
2, 21240, Note_on_c, 0, 76, 0
2, 21240, Note_on_c, 0, 78, 88
2, 21300, Note_on_c, 0, 78, 0
2, 21300, Note_on_c, 0, 76, 88
2, 21360, Note_on_c, 0, 76, 0
2, 21360, Note_on_c, 0, 74, 88
2, 21420, Note_on_c, 0, 74, 0
2, 21420, Note_on_c, 0, 76, 88
2, 21480, Note_on_c, 0, 76, 0
2, 21480, Note_on_c, 0, 78, 88
2, 21540, Note_on_c, 0, 78, 0
2, 21540, Note_on_c, 0, 76, 88
2, 21600, Note_on_c, 0, 76, 0
2, 21600, Note_on_c, 0, 74, 88
2, 21660, Note_on_c, 0, 74, 0
2, 21660, Note_on_c, 0, 76, 88
2, 21720, Note_on_c, 0, 76, 0
2, 21720, Note_on_c, 0, 78, 88
2, 21780, Note_on_c, 0, 78, 0
2, 21780, Note_on_c, 0, 76, 88
2, 21840, Note_on_c, 0, 76, 0
2, 21840, Note_on_c, 0, 74, 88
2, 21900, Note_on_c, 0, 74, 0
2, 21900, Note_on_c, 0, 76, 88
2, 21960, Note_on_c, 0, 76, 0
2, 21960, Note_on_c, 0, 78, 88
2, 22020, Note_on_c, 0, 78, 0
2, 22020, Note_on_c, 0, 76, 88
2, 22080, Note_on_c, 0, 76, 0
2, 22080, Note_on_c, 0, 74, 88
2, 22140, Note_on_c, 0, 74, 0
2, 22140, Note_on_c, 0, 76, 88
2, 22200, Note_on_c, 0, 76, 0
2, 22200, Note_on_c, 0, 78, 88
2, 22260, Note_on_c, 0, 78, 0
2, 22260, Note_on_c, 0, 76, 88
2, 22320, Note_on_c, 0, 76, 0
2, 22320, Note_on_c, 0, 74, 88
2, 22380, Note_on_c, 0, 74, 0
2, 22380, Note_on_c, 0, 76, 88
2, 22440, Note_on_c, 0, 76, 0
2, 22440, Note_on_c, 0, 78, 88
2, 22500, Note_on_c, 0, 78, 0
2, 22500, Note_on_c, 0, 76, 88
2, 22560, Note_on_c, 0, 76, 0
2, 22560, Note_on_c, 0, 74, 88
2, 22620, Note_on_c, 0, 74, 0
2, 22620, Note_on_c, 0, 76, 88
2, 22680, Note_on_c, 0, 76, 0
2, 22680, Note_on_c, 0, 78, 88
2, 22740, Note_on_c, 0, 78, 0
2, 22740, Note_on_c, 0, 76, 88
2, 22800, Note_on_c, 0, 76, 0
2, 22800, Note_on_c, 0, 74, 88
2, 22860, Note_on_c, 0, 74, 0
2, 22860, Note_on_c, 0, 76, 88
2, 22920, Note_on_c, 0, 76, 0
2, 22920, Note_on_c, 0, 78, 88
2, 22980, Note_on_c, 0, 78, 0
2, 22980, Note_on_c, 0, 76, 88
2, 23040, Note_on_c, 0, 76, 0
2, 23040, Note_on_c, 0, 74, 88
2, 23100, Note_on_c, 0, 74, 0
2, 23100, Note_on_c, 0, 76, 88
2, 23160, Note_on_c, 0, 76, 0
2, 23160, Note_on_c, 0, 78, 88
2, 23220, Note_on_c, 0, 78, 0
2, 23220, Note_on_c, 0, 79, 88
2, 23280, Note_on_c, 0, 79, 0
2, 23280, Note_on_c, 0, 81, 88
2, 23340, Note_on_c, 0, 81, 0
2, 23340, Note_on_c, 0, 83, 88
2, 23400, Note_on_c, 0, 83, 0
2, 23400, Note_on_c, 0, 85, 88
2, 23460, Note_on_c, 0, 85, 0
2, 23460, Note_on_c, 0, 86, 88
2, 23520, Note_on_c, 0, 86, 0
2, 23520, Note_on_c, 0, 85, 88
2, 23580, Note_on_c, 0, 85, 0
2, 23580, Note_on_c, 0, 83, 88
2, 23640, Note_on_c, 0, 83, 0
2, 23640, Note_on_c, 0, 82, 88
2, 23700, Note_on_c, 0, 82, 0
2, 23700, Note_on_c, 0, 83, 88
2, 23760, Note_on_c, 0, 83, 0
2, 23760, Note_on_c, 0, 82, 88
2, 23820, Note_on_c, 0, 82, 0
2, 23820, Note_on_c, 0, 83, 88
2, 23880, Note_on_c, 0, 83, 0
2, 23880, Note_on_c, 0, 82, 88
2, 23940, Note_on_c, 0, 82, 0
2, 23940, Note_on_c, 0, 83, 88
2, 24000, Note_on_c, 0, 83, 0
2, 24000, Note_on_c, 0, 86, 88
2, 24060, Note_on_c, 0, 86, 0
2, 24060, Note_on_c, 0, 83, 88
2, 24120, Note_on_c, 0, 83, 0
2, 24120, Note_on_c, 0, 81, 88
2, 24180, Note_on_c, 0, 81, 0
2, 24180, Note_on_c, 0, 79, 88
2, 24240, Note_on_c, 0, 79, 0
2, 24240, Note_on_c, 0, 83, 88
2, 24300, Note_on_c, 0, 83, 0
2, 24300, Note_on_c, 0, 79, 88
2, 24360, Note_on_c, 0, 79, 0
2, 24360, Note_on_c, 0, 78, 88
2, 24420, Note_on_c, 0, 78, 0
2, 24420, Note_on_c, 0, 76, 88
2, 24480, Note_on_c, 0, 76, 0
2, 24480, Note_on_c, 0, 81, 88
2, 24540, Note_on_c, 0, 81, 0
2, 24540, Note_on_c, 0, 80, 88
2, 24600, Note_on_c, 0, 80, 0
2, 24600, Note_on_c, 0, 81, 88
2, 24660, Note_on_c, 0, 81, 0
2, 24660, Note_on_c, 0, 80, 88
2, 24720, Note_on_c, 0, 80, 0
2, 24720, Note_on_c, 0, 81, 88
2, 24780, Note_on_c, 0, 81, 0
2, 24780, Note_on_c, 0, 78, 88
2, 24840, Note_on_c, 0, 78, 0
2, 24840, Note_on_c, 0, 76, 88
2, 24900, Note_on_c, 0, 76, 0
2, 24900, Note_on_c, 0, 74, 88
2, 24960, Note_on_c, 0, 74, 0
2, 24960, Note_on_c, 0, 76, 80
2, 24992, Note_on_c, 0, 76, 0
2, 25000, Note_on_c, 0, 78, 80
2, 25032, Note_on_c, 0, 78, 0
2, 25040, Note_on_c, 0, 76, 80
2, 25072, Note_on_c, 0, 76, 0
2, 25080, Note_on_c, 0, 78, 80
2, 25112, Note_on_c, 0, 78, 0
2, 25120, Note_on_c, 0, 76, 80
2, 25152, Note_on_c, 0, 76, 0
2, 25160, Note_on_c, 0, 78, 80
2, 25192, Note_on_c, 0, 78, 0
2, 25200, Note_on_c, 0, 76, 80
2, 25248, Note_on_c, 0, 76, 0
2, 25260, Note_on_c, 0, 78, 80
2, 25308, Note_on_c, 0, 78, 0
2, 25320, Note_on_c, 0, 76, 80
2, 25352, Note_on_c, 0, 76, 0
2, 25360, Note_on_c, 0, 74, 80
2, 25392, Note_on_c, 0, 74, 0
2, 25400, Note_on_c, 0, 76, 80
2, 25432, Note_on_c, 0, 76, 0
2, 25440, Note_on_c, 0, 74, 88
2, 25500, Note_on_c, 0, 74, 0
2, 25500, Note_on_c, 0, 76, 88
2, 25560, Note_on_c, 0, 76, 0
2, 25560, Note_on_c, 0, 78, 88
2, 25620, Note_on_c, 0, 78, 0
2, 25620, Note_on_c, 0, 76, 88
2, 25680, Note_on_c, 0, 76, 0
2, 25680, Note_on_c, 0, 74, 88
2, 25740, Note_on_c, 0, 74, 0
2, 25740, Note_on_c, 0, 76, 88
2, 25800, Note_on_c, 0, 76, 0
2, 25800, Note_on_c, 0, 78, 88
2, 25860, Note_on_c, 0, 78, 0
2, 25860, Note_on_c, 0, 76, 88
2, 25920, Note_on_c, 0, 76, 0
2, 25920, Note_on_c, 0, 74, 88
2, 25980, Note_on_c, 0, 74, 0
2, 25980, Note_on_c, 0, 76, 88
2, 26040, Note_on_c, 0, 76, 0
2, 26040, Note_on_c, 0, 78, 88
2, 26100, Note_on_c, 0, 78, 0
2, 26100, Note_on_c, 0, 76, 88
2, 26160, Note_on_c, 0, 76, 0
2, 26160, Note_on_c, 0, 74, 88
2, 26220, Note_on_c, 0, 74, 0
2, 26220, Note_on_c, 0, 76, 88
2, 26280, Note_on_c, 0, 76, 0
2, 26280, Note_on_c, 0, 78, 88
2, 26340, Note_on_c, 0, 78, 0
2, 26340, Note_on_c, 0, 76, 88
2, 26400, Note_on_c, 0, 76, 0
2, 26400, Note_on_c, 0, 74, 88
2, 26460, Note_on_c, 0, 74, 0
2, 26460, Note_on_c, 0, 76, 88
2, 26520, Note_on_c, 0, 76, 0
2, 26520, Note_on_c, 0, 78, 88
2, 26580, Note_on_c, 0, 78, 0
2, 26580, Note_on_c, 0, 76, 88
2, 26640, Note_on_c, 0, 76, 0
2, 26640, Note_on_c, 0, 74, 88
2, 26700, Note_on_c, 0, 74, 0
2, 26700, Note_on_c, 0, 76, 88
2, 26760, Note_on_c, 0, 76, 0
2, 26760, Note_on_c, 0, 78, 88
2, 26820, Note_on_c, 0, 78, 0
2, 26820, Note_on_c, 0, 76, 88
2, 26880, Note_on_c, 0, 76, 0
2, 26880, Note_on_c, 0, 74, 88
2, 26940, Note_on_c, 0, 74, 0
2, 26940, Note_on_c, 0, 76, 88
2, 27000, Note_on_c, 0, 76, 0
2, 27000, Note_on_c, 0, 78, 88
2, 27060, Note_on_c, 0, 78, 0
2, 27060, Note_on_c, 0, 76, 88
2, 27120, Note_on_c, 0, 76, 0
2, 27120, Note_on_c, 0, 74, 88
2, 27180, Note_on_c, 0, 74, 0
2, 27180, Note_on_c, 0, 76, 88
2, 27240, Note_on_c, 0, 76, 0
2, 27240, Note_on_c, 0, 78, 88
2, 27300, Note_on_c, 0, 78, 0
2, 27300, Note_on_c, 0, 76, 88
2, 27360, Note_on_c, 0, 76, 0
2, 27360, Note_on_c, 0, 74, 88
2, 27420, Note_on_c, 0, 74, 0
2, 27420, Note_on_c, 0, 76, 88
2, 27480, Note_on_c, 0, 76, 0
2, 27480, Note_on_c, 0, 78, 88
2, 27540, Note_on_c, 0, 78, 0
2, 27540, Note_on_c, 0, 76, 88
2, 27600, Note_on_c, 0, 76, 0
2, 27600, Note_on_c, 0, 74, 88
2, 27660, Note_on_c, 0, 74, 0
2, 27660, Note_on_c, 0, 76, 88
2, 27720, Note_on_c, 0, 76, 0
2, 27720, Note_on_c, 0, 78, 88
2, 27780, Note_on_c, 0, 78, 0
2, 27780, Note_on_c, 0, 76, 88
2, 27840, Note_on_c, 0, 76, 0
2, 27840, Note_on_c, 0, 74, 88
2, 27900, Note_on_c, 0, 74, 0
2, 27900, Note_on_c, 0, 76, 88
2, 27960, Note_on_c, 0, 76, 0
2, 27960, Note_on_c, 0, 78, 88
2, 28020, Note_on_c, 0, 78, 0
2, 28020, Note_on_c, 0, 76, 88
2, 28080, Note_on_c, 0, 76, 0
2, 28080, Note_on_c, 0, 74, 88
2, 28140, Note_on_c, 0, 74, 0
2, 28140, Note_on_c, 0, 76, 88
2, 28200, Note_on_c, 0, 76, 0
2, 28200, Note_on_c, 0, 78, 88
2, 28260, Note_on_c, 0, 78, 0
2, 28260, Note_on_c, 0, 76, 88
2, 28320, Note_on_c, 0, 76, 0
2, 28320, Note_on_c, 0, 74, 88
2, 28380, Note_on_c, 0, 74, 0
2, 28380, Note_on_c, 0, 76, 88
2, 28440, Note_on_c, 0, 76, 0
2, 28440, Note_on_c, 0, 78, 88
2, 28500, Note_on_c, 0, 78, 0
2, 28500, Note_on_c, 0, 76, 88
2, 28560, Note_on_c, 0, 76, 0
2, 28560, Note_on_c, 0, 74, 88
2, 28620, Note_on_c, 0, 74, 0
2, 28620, Note_on_c, 0, 76, 88
2, 28680, Note_on_c, 0, 76, 0
2, 28680, Note_on_c, 0, 78, 88
2, 28740, Note_on_c, 0, 78, 0
2, 28740, Note_on_c, 0, 76, 88
2, 28800, Note_on_c, 0, 76, 0
2, 28800, Note_on_c, 0, 74, 88
2, 28860, Note_on_c, 0, 74, 0
2, 28860, Note_on_c, 0, 76, 88
2, 28920, Note_on_c, 0, 76, 0
2, 28920, Note_on_c, 0, 78, 88
2, 28980, Note_on_c, 0, 78, 0
2, 28980, Note_on_c, 0, 79, 88
2, 29040, Note_on_c, 0, 79, 0
2, 29040, Note_on_c, 0, 81, 88
2, 29100, Note_on_c, 0, 81, 0
2, 29100, Note_on_c, 0, 83, 88
2, 29160, Note_on_c, 0, 83, 0
2, 29160, Note_on_c, 0, 85, 88
2, 29220, Note_on_c, 0, 85, 0
2, 29220, Note_on_c, 0, 86, 88
2, 29280, Note_on_c, 0, 86, 0
2, 29280, Note_on_c, 0, 85, 88
2, 29340, Note_on_c, 0, 85, 0
2, 29340, Note_on_c, 0, 83, 88
2, 29400, Note_on_c, 0, 83, 0
2, 29400, Note_on_c, 0, 82, 88
2, 29460, Note_on_c, 0, 82, 0
2, 29460, Note_on_c, 0, 83, 88
2, 29520, Note_on_c, 0, 83, 0
2, 29520, Note_on_c, 0, 82, 88
2, 29580, Note_on_c, 0, 82, 0
2, 29580, Note_on_c, 0, 83, 88
2, 29640, Note_on_c, 0, 83, 0
2, 29640, Note_on_c, 0, 82, 88
2, 29700, Note_on_c, 0, 82, 0
2, 29700, Note_on_c, 0, 83, 88
2, 29760, Note_on_c, 0, 83, 0
2, 29760, Note_on_c, 0, 86, 88
2, 29820, Note_on_c, 0, 86, 0
2, 29820, Note_on_c, 0, 83, 88
2, 29880, Note_on_c, 0, 83, 0
2, 29880, Note_on_c, 0, 81, 88
2, 29940, Note_on_c, 0, 81, 0
2, 29940, Note_on_c, 0, 79, 88
2, 30000, Note_on_c, 0, 79, 0
2, 30000, Note_on_c, 0, 83, 88
2, 30060, Note_on_c, 0, 83, 0
2, 30060, Note_on_c, 0, 79, 88
2, 30120, Note_on_c, 0, 79, 0
2, 30120, Note_on_c, 0, 78, 88
2, 30180, Note_on_c, 0, 78, 0
2, 30180, Note_on_c, 0, 76, 88
2, 30240, Note_on_c, 0, 76, 0
2, 30240, Note_on_c, 0, 81, 88
2, 30300, Note_on_c, 0, 81, 0
2, 30300, Note_on_c, 0, 80, 88
2, 30360, Note_on_c, 0, 80, 0
2, 30360, Note_on_c, 0, 81, 88
2, 30420, Note_on_c, 0, 81, 0
2, 30420, Note_on_c, 0, 80, 88
2, 30480, Note_on_c, 0, 80, 0
2, 30480, Note_on_c, 0, 81, 88
2, 30540, Note_on_c, 0, 81, 0
2, 30540, Note_on_c, 0, 78, 88
2, 30600, Note_on_c, 0, 78, 0
2, 30600, Note_on_c, 0, 76, 88
2, 30660, Note_on_c, 0, 76, 0
2, 30660, Note_on_c, 0, 74, 88
2, 30720, Note_on_c, 0, 74, 0
2, 30720, Note_on_c, 0, 76, 80
2, 30752, Note_on_c, 0, 76, 0
2, 30760, Note_on_c, 0, 78, 80
2, 30792, Note_on_c, 0, 78, 0
2, 30800, Note_on_c, 0, 76, 80
2, 30832, Note_on_c, 0, 76, 0
2, 30840, Note_on_c, 0, 78, 80
2, 30872, Note_on_c, 0, 78, 0
2, 30880, Note_on_c, 0, 76, 80
2, 30912, Note_on_c, 0, 76, 0
2, 30920, Note_on_c, 0, 78, 80
2, 30952, Note_on_c, 0, 78, 0
2, 30960, Note_on_c, 0, 76, 80
2, 31008, Note_on_c, 0, 76, 0
2, 31020, Note_on_c, 0, 78, 80
2, 31068, Note_on_c, 0, 78, 0
2, 31080, Note_on_c, 0, 76, 80
2, 31112, Note_on_c, 0, 76, 0
2, 31120, Note_on_c, 0, 74, 80
2, 31152, Note_on_c, 0, 74, 0
2, 31160, Note_on_c, 0, 76, 80
2, 31192, Note_on_c, 0, 76, 0
2, 31200, Note_on_c, 0, 74, 88
2, 31260, Note_on_c, 0, 74, 0
2, 31260, Note_on_c, 0, 81, 88
2, 31320, Note_on_c, 0, 81, 0
2, 31320, Note_on_c, 0, 78, 88
2, 31380, Note_on_c, 0, 78, 0
2, 31380, Note_on_c, 0, 74, 88
2, 31440, Note_on_c, 0, 74, 0
2, 31440, Note_on_c, 0, 69, 56
2, 31500, Note_on_c, 0, 69, 0
2, 31500, Note_on_c, 0, 79, 56
2, 31560, Note_on_c, 0, 79, 0
2, 31560, Note_on_c, 0, 76, 56
2, 31620, Note_on_c, 0, 76, 0
2, 31620, Note_on_c, 0, 73, 56
2, 31680, Note_on_c, 0, 73, 0
2, 31680, Note_on_c, 0, 69, 60
2, 31740, Note_on_c, 0, 69, 0
2, 31740, Note_on_c, 0, 81, 60
2, 31800, Note_on_c, 0, 81, 0
2, 31800, Note_on_c, 0, 78, 60
2, 31860, Note_on_c, 0, 78, 0
2, 31860, Note_on_c, 0, 74, 60
2, 31920, Note_on_c, 0, 74, 0
2, 31920, Note_on_c, 0, 69, 64
2, 31980, Note_on_c, 0, 69, 0
2, 31980, Note_on_c, 0, 79, 64
2, 32040, Note_on_c, 0, 79, 0
2, 32040, Note_on_c, 0, 76, 64
2, 32100, Note_on_c, 0, 76, 0
2, 32100, Note_on_c, 0, 73, 64
2, 32160, Note_on_c, 0, 73, 0
2, 32160, Note_on_c, 0, 69, 68
2, 32220, Note_on_c, 0, 69, 0
2, 32220, Note_on_c, 0, 81, 68
2, 32280, Note_on_c, 0, 81, 0
2, 32280, Note_on_c, 0, 78, 68
2, 32340, Note_on_c, 0, 78, 0
2, 32340, Note_on_c, 0, 74, 68
2, 32400, Note_on_c, 0, 74, 0
2, 32400, Note_on_c, 0, 69, 72
2, 32460, Note_on_c, 0, 69, 0
2, 32460, Note_on_c, 0, 79, 72
2, 32520, Note_on_c, 0, 79, 0
2, 32520, Note_on_c, 0, 76, 72
2, 32580, Note_on_c, 0, 76, 0
2, 32580, Note_on_c, 0, 73, 72
2, 32640, Note_on_c, 0, 73, 0
2, 32640, Note_on_c, 0, 69, 80
2, 32700, Note_on_c, 0, 69, 0
2, 32700, Note_on_c, 0, 81, 80
2, 32760, Note_on_c, 0, 81, 0
2, 32760, Note_on_c, 0, 78, 80
2, 32820, Note_on_c, 0, 78, 0
2, 32820, Note_on_c, 0, 74, 80
2, 32880, Note_on_c, 0, 74, 0
2, 32880, Note_on_c, 0, 69, 88
2, 32940, Note_on_c, 0, 69, 0
2, 32940, Note_on_c, 0, 79, 88
2, 33000, Note_on_c, 0, 79, 0
2, 33000, Note_on_c, 0, 76, 88
2, 33060, Note_on_c, 0, 76, 0
2, 33060, Note_on_c, 0, 73, 88
2, 33120, Note_on_c, 0, 73, 0
2, 33120, Note_on_c, 0, 69, 88
2, 33240, Note_on_c, 0, 69, 0
2, 33240, Note_on_c, 0, 74, 88
2, 33240, Note_on_c, 0, 78, 88
2, 33288, Note_on_c, 0, 78, 0
2, 33288, Note_on_c, 0, 74, 0
2, 33360, Note_on_c, 0, 74, 88
2, 33360, Note_on_c, 0, 78, 88
2, 33408, Note_on_c, 0, 78, 0
2, 33408, Note_on_c, 0, 74, 0
2, 33480, Note_on_c, 0, 74, 88
2, 33480, Note_on_c, 0, 78, 88
2, 33528, Note_on_c, 0, 78, 0
2, 33528, Note_on_c, 0, 74, 0
2, 33600, Note_on_c, 0, 78, 88
2, 33600, Note_on_c, 0, 81, 88
2, 33720, Note_on_c, 0, 81, 0
2, 33720, Note_on_c, 0, 78, 0
2, 33720, Note_on_c, 0, 74, 88
2, 33720, Note_on_c, 0, 78, 88
2, 33768, Note_on_c, 0, 78, 0
2, 33768, Note_on_c, 0, 74, 0
2, 33840, Note_on_c, 0, 74, 88
2, 33840, Note_on_c, 0, 78, 88
2, 33888, Note_on_c, 0, 78, 0
2, 33888, Note_on_c, 0, 74, 0
2, 33960, Note_on_c, 0, 74, 88
2, 33960, Note_on_c, 0, 78, 88
2, 34008, Note_on_c, 0, 78, 0
2, 34008, Note_on_c, 0, 74, 0
2, 34080, Note_on_c, 0, 78, 88
2, 34080, Note_on_c, 0, 81, 88
2, 34080, Note_on_c, 0, 86, 88
2, 34200, Note_on_c, 0, 86, 0
2, 34200, Note_on_c, 0, 81, 0
2, 34200, Note_on_c, 0, 78, 0
2, 34920, Note_on_c, 0, 57, 80
2, 34968, Note_on_c, 0, 57, 0
2, 35040, Note_on_c, 0, 57, 80
2, 35088, Note_on_c, 0, 57, 0
2, 35160, Note_on_c, 0, 57, 80
2, 35208, Note_on_c, 0, 57, 0
2, 35280, Note_on_c, 0, 57, 80
2, 35328, Note_on_c, 0, 57, 0
2, 35400, Note_on_c, 0, 57, 80
2, 35448, Note_on_c, 0, 57, 0
2, 35520, Note_on_c, 0, 66, 80
2, 35640, Note_on_c, 0, 66, 0
2, 35640, Note_on_c, 0, 64, 80
2, 35688, Note_on_c, 0, 64, 0
2, 35760, Note_on_c, 0, 63, 80
2, 35808, Note_on_c, 0, 63, 0
2, 35880, Note_on_c, 0, 72, 80
2, 35928, Note_on_c, 0, 72, 0
2, 36000, Note_on_c, 0, 71, 80
2, 36048, Note_on_c, 0, 71, 0
2, 36120, Note_on_c, 0, 69, 80
2, 36168, Note_on_c, 0, 69, 0
2, 36240, Note_on_c, 0, 67, 80
2, 36288, Note_on_c, 0, 67, 0
2, 36360, Note_on_c, 0, 66, 80
2, 36408, Note_on_c, 0, 66, 0
2, 36480, Note_on_c, 0, 64, 80
2, 36720, Note_on_c, 0, 64, 0
2, 36840, Note_on_c, 0, 76, 80
2, 36888, Note_on_c, 0, 76, 0
2, 36960, Note_on_c, 0, 76, 80
2, 37008, Note_on_c, 0, 76, 0
2, 37080, Note_on_c, 0, 76, 80
2, 37128, Note_on_c, 0, 76, 0
2, 37200, Note_on_c, 0, 76, 80
2, 37248, Note_on_c, 0, 76, 0
2, 37320, Note_on_c, 0, 76, 80
2, 37368, Note_on_c, 0, 76, 0
2, 37440, Note_on_c, 0, 79, 88
2, 37560, Note_on_c, 0, 79, 0
2, 37560, Note_on_c, 0, 78, 80
2, 37680, Note_on_c, 0, 78, 0
2, 37680, Note_on_c, 0, 76, 80
2, 37728, Note_on_c, 0, 76, 0
2, 37800, Note_on_c, 0, 84, 80
2, 37848, Note_on_c, 0, 84, 0
2, 37920, Note_on_c, 0, 83, 80
2, 37968, Note_on_c, 0, 83, 0
2, 38040, Note_on_c, 0, 81, 80
2, 38088, Note_on_c, 0, 81, 0
2, 38160, Note_on_c, 0, 79, 80
2, 38208, Note_on_c, 0, 79, 0
2, 38280, Note_on_c, 0, 78, 80
2, 38328, Note_on_c, 0, 78, 0
2, 38400, Note_on_c, 0, 76, 80
2, 38640, Note_on_c, 0, 76, 0
2, 38760, Note_on_c, 0, 88, 80
2, 38808, Note_on_c, 0, 88, 0
2, 38880, Note_on_c, 0, 86, 80
2, 39000, Note_on_c, 0, 86, 0
2, 39000, Note_on_c, 0, 84, 80
2, 39120, Note_on_c, 0, 84, 0
2, 39120, Note_on_c, 0, 83, 80
2, 39240, Note_on_c, 0, 83, 0
2, 39240, Note_on_c, 0, 81, 80
2, 39360, Note_on_c, 0, 81, 0
2, 39360, Note_on_c, 0, 79, 80
2, 39600, Note_on_c, 0, 79, 0
2, 39960, Note_on_c, 0, 85, 80
2, 40008, Note_on_c, 0, 85, 0
2, 40080, Note_on_c, 0, 85, 80
2, 40128, Note_on_c, 0, 85, 0
2, 40200, Note_on_c, 0, 85, 80
2, 40248, Note_on_c, 0, 85, 0
2, 40320, Note_on_c, 0, 78, 80
2, 40800, Note_on_c, 0, 78, 0
2, 40920, Note_on_c, 0, 83, 80
2, 40968, Note_on_c, 0, 83, 0
2, 41040, Note_on_c, 0, 83, 80
2, 41088, Note_on_c, 0, 83, 0
2, 41160, Note_on_c, 0, 83, 80
2, 41208, Note_on_c, 0, 83, 0
2, 41280, Note_on_c, 0, 76, 80
2, 41760, Note_on_c, 0, 76, 0
2, 41880, Note_on_c, 0, 81, 80
2, 41928, Note_on_c, 0, 81, 0
2, 42000, Note_on_c, 0, 81, 80
2, 42048, Note_on_c, 0, 81, 0
2, 42120, Note_on_c, 0, 81, 80
2, 42168, Note_on_c, 0, 81, 0
2, 42240, Note_on_c, 0, 74, 80
2, 42360, Note_on_c, 0, 74, 0
2, 42360, Note_on_c, 0, 86, 80
2, 42408, Note_on_c, 0, 86, 0
2, 42480, Note_on_c, 0, 86, 80
2, 42528, Note_on_c, 0, 86, 0
2, 42600, Note_on_c, 0, 86, 80
2, 42648, Note_on_c, 0, 86, 0
2, 42720, Note_on_c, 0, 72, 80
2, 42840, Note_on_c, 0, 72, 0
2, 42840, Note_on_c, 0, 78, 80
2, 42840, Note_on_c, 0, 84, 80
2, 42888, Note_on_c, 0, 84, 0
2, 42888, Note_on_c, 0, 78, 0
2, 42960, Note_on_c, 0, 78, 80
2, 42960, Note_on_c, 0, 84, 80
2, 43008, Note_on_c, 0, 84, 0
2, 43008, Note_on_c, 0, 78, 0
2, 43080, Note_on_c, 0, 78, 80
2, 43080, Note_on_c, 0, 84, 80
2, 43128, Note_on_c, 0, 84, 0
2, 43128, Note_on_c, 0, 78, 0
2, 43200, Note_on_c, 0, 79, 80
2, 43200, Note_on_c, 0, 83, 80
2, 43440, Note_on_c, 0, 83, 0
2, 43440, Note_on_c, 0, 79, 0
2, 43560, Note_on_c, 0, 67, 80
2, 43608, Note_on_c, 0, 67, 0
2, 43680, Note_on_c, 0, 67, 80
2, 43728, Note_on_c, 0, 67, 0
2, 43800, Note_on_c, 0, 67, 80
2, 43848, Note_on_c, 0, 67, 0
2, 43920, Note_on_c, 0, 67, 80
2, 43968, Note_on_c, 0, 67, 0
2, 44040, Note_on_c, 0, 67, 80
2, 44088, Note_on_c, 0, 67, 0
2, 44160, Note_on_c, 0, 71, 80
2, 44280, Note_on_c, 0, 71, 0
2, 44280, Note_on_c, 0, 69, 80
2, 44328, Note_on_c, 0, 69, 0
2, 44400, Note_on_c, 0, 67, 80
2, 44448, Note_on_c, 0, 67, 0
2, 44520, Note_on_c, 0, 76, 80
2, 44568, Note_on_c, 0, 76, 0
2, 44640, Note_on_c, 0, 74, 86
2, 44760, Note_on_c, 0, 74, 0
2, 44760, Note_on_c, 0, 73, 76
2, 44808, Note_on_c, 0, 73, 0
2, 44880, Note_on_c, 0, 74, 72
2, 44928, Note_on_c, 0, 74, 0
2, 45000, Note_on_c, 0, 76, 68
2, 45048, Note_on_c, 0, 76, 0
2, 45120, Note_on_c, 0, 74, 72
2, 45240, Note_on_c, 0, 74, 0
2, 45240, Note_on_c, 0, 73, 60
2, 45288, Note_on_c, 0, 73, 0
2, 45360, Note_on_c, 0, 74, 56
2, 45408, Note_on_c, 0, 74, 0
2, 45480, Note_on_c, 0, 76, 52
2, 45528, Note_on_c, 0, 76, 0
2, 45600, Note_on_c, 0, 74, 56
2, 45720, Note_on_c, 0, 74, 0
2, 45720, Note_on_c, 0, 73, 48
2, 45768, Note_on_c, 0, 73, 0
2, 45840, Note_on_c, 0, 74, 48
2, 45936, Note_on_c, 0, 74, 0
2, 47880, Note_on_c, 0, 68, 80
2, 47928, Note_on_c, 0, 68, 0
2, 48000, Note_on_c, 0, 68, 80
2, 48048, Note_on_c, 0, 68, 0
2, 48120, Note_on_c, 0, 68, 80
2, 48168, Note_on_c, 0, 68, 0
2, 48240, Note_on_c, 0, 68, 80
2, 48288, Note_on_c, 0, 68, 0
2, 48360, Note_on_c, 0, 68, 80
2, 48408, Note_on_c, 0, 68, 0
2, 48480, Note_on_c, 0, 71, 80
2, 48600, Note_on_c, 0, 71, 0
2, 48600, Note_on_c, 0, 69, 80
2, 48648, Note_on_c, 0, 69, 0
2, 48720, Note_on_c, 0, 68, 80
2, 48768, Note_on_c, 0, 68, 0
2, 48840, Note_on_c, 0, 74, 80
2, 48888, Note_on_c, 0, 74, 0
2, 48960, Note_on_c, 0, 73, 80
2, 49008, Note_on_c, 0, 73, 0
2, 49080, Note_on_c, 0, 71, 80
2, 49128, Note_on_c, 0, 71, 0
2, 49200, Note_on_c, 0, 69, 80
2, 49248, Note_on_c, 0, 69, 0
2, 49320, Note_on_c, 0, 68, 80
2, 49368, Note_on_c, 0, 68, 0
2, 49440, Note_on_c, 0, 69, 80
2, 49560, Note_on_c, 0, 69, 0
2, 49560, Note_on_c, 0, 68, 80
2, 49608, Note_on_c, 0, 68, 0
2, 49680, Note_on_c, 0, 66, 80
2, 49728, Note_on_c, 0, 66, 0
2, 49800, Note_on_c, 0, 78, 80
2, 49848, Note_on_c, 0, 78, 0
2, 49920, Note_on_c, 0, 78, 80
2, 49968, Note_on_c, 0, 78, 0
2, 50040, Note_on_c, 0, 78, 80
2, 50088, Note_on_c, 0, 78, 0
2, 50160, Note_on_c, 0, 78, 80
2, 50208, Note_on_c, 0, 78, 0
2, 50280, Note_on_c, 0, 78, 80
2, 50328, Note_on_c, 0, 78, 0
2, 50400, Note_on_c, 0, 81, 80
2, 50520, Note_on_c, 0, 81, 0
2, 50520, Note_on_c, 0, 80, 80
2, 50568, Note_on_c, 0, 80, 0
2, 50640, Note_on_c, 0, 78, 80
2, 50688, Note_on_c, 0, 78, 0
2, 50760, Note_on_c, 0, 86, 80
2, 50808, Note_on_c, 0, 86, 0
2, 50880, Note_on_c, 0, 85, 80
2, 50928, Note_on_c, 0, 85, 0
2, 51000, Note_on_c, 0, 83, 80
2, 51048, Note_on_c, 0, 83, 0
2, 51120, Note_on_c, 0, 81, 80
2, 51168, Note_on_c, 0, 81, 0
2, 51240, Note_on_c, 0, 80, 80
2, 51288, Note_on_c, 0, 80, 0
2, 51360, Note_on_c, 0, 78, 80
2, 51420, Note_on_c, 0, 78, 0
2, 51420, Note_on_c, 0, 80, 80
2, 51480, Note_on_c, 0, 80, 0
2, 51480, Note_on_c, 0, 81, 80
2, 51540, Note_on_c, 0, 81, 0
2, 51540, Note_on_c, 0, 80, 80
2, 51600, Note_on_c, 0, 80, 0
2, 51600, Note_on_c, 0, 78, 80
2, 51660, Note_on_c, 0, 78, 0
2, 51660, Note_on_c, 0, 80, 80
2, 51720, Note_on_c, 0, 80, 0
2, 51720, Note_on_c, 0, 81, 80
2, 51780, Note_on_c, 0, 81, 0
2, 51780, Note_on_c, 0, 80, 80
2, 51840, Note_on_c, 0, 80, 0
2, 51840, Note_on_c, 0, 78, 80
2, 51900, Note_on_c, 0, 78, 0
2, 51900, Note_on_c, 0, 80, 80
2, 51960, Note_on_c, 0, 80, 0
2, 51960, Note_on_c, 0, 81, 80
2, 52020, Note_on_c, 0, 81, 0
2, 52020, Note_on_c, 0, 80, 80
2, 52080, Note_on_c, 0, 80, 0
2, 52080, Note_on_c, 0, 78, 80
2, 52140, Note_on_c, 0, 78, 0
2, 52140, Note_on_c, 0, 80, 80
2, 52200, Note_on_c, 0, 80, 0
2, 52200, Note_on_c, 0, 81, 80
2, 52260, Note_on_c, 0, 81, 0
2, 52260, Note_on_c, 0, 80, 80
2, 52320, Note_on_c, 0, 80, 0
2, 52320, Note_on_c, 0, 78, 80
2, 52380, Note_on_c, 0, 78, 0
2, 52380, Note_on_c, 0, 80, 80
2, 52440, Note_on_c, 0, 80, 0
2, 52440, Note_on_c, 0, 81, 80
2, 52500, Note_on_c, 0, 81, 0
2, 52500, Note_on_c, 0, 80, 80
2, 52560, Note_on_c, 0, 80, 0
2, 52560, Note_on_c, 0, 78, 80
2, 52620, Note_on_c, 0, 78, 0
2, 52620, Note_on_c, 0, 80, 80
2, 52680, Note_on_c, 0, 80, 0
2, 52680, Note_on_c, 0, 81, 80
2, 52740, Note_on_c, 0, 81, 0
2, 52740, Note_on_c, 0, 80, 80
2, 52800, Note_on_c, 0, 80, 0
2, 52800, Note_on_c, 0, 78, 80
2, 52860, Note_on_c, 0, 78, 0
2, 52860, Note_on_c, 0, 80, 80
2, 52920, Note_on_c, 0, 80, 0
2, 52920, Note_on_c, 0, 81, 80
2, 52980, Note_on_c, 0, 81, 0
2, 52980, Note_on_c, 0, 80, 80
2, 53040, Note_on_c, 0, 80, 0
2, 53040, Note_on_c, 0, 78, 80
2, 53100, Note_on_c, 0, 78, 0
2, 53100, Note_on_c, 0, 80, 80
2, 53160, Note_on_c, 0, 80, 0
2, 53160, Note_on_c, 0, 81, 80
2, 53220, Note_on_c, 0, 81, 0
2, 53220, Note_on_c, 0, 80, 80
2, 53280, Note_on_c, 0, 80, 0
2, 53280, Note_on_c, 0, 78, 80
2, 53340, Note_on_c, 0, 78, 0
2, 53340, Note_on_c, 0, 80, 80
2, 53400, Note_on_c, 0, 80, 0
2, 53400, Note_on_c, 0, 81, 80
2, 53460, Note_on_c, 0, 81, 0
2, 53460, Note_on_c, 0, 80, 80
2, 53520, Note_on_c, 0, 80, 0
2, 53520, Note_on_c, 0, 78, 80
2, 53580, Note_on_c, 0, 78, 0
2, 53580, Note_on_c, 0, 80, 80
2, 53640, Note_on_c, 0, 80, 0
2, 53640, Note_on_c, 0, 81, 80
2, 53700, Note_on_c, 0, 81, 0
2, 53700, Note_on_c, 0, 80, 80
2, 53760, Note_on_c, 0, 80, 0
2, 53760, Note_on_c, 0, 78, 80
2, 53820, Note_on_c, 0, 78, 0
2, 53820, Note_on_c, 0, 80, 80
2, 53880, Note_on_c, 0, 80, 0
2, 53880, Note_on_c, 0, 81, 80
2, 53940, Note_on_c, 0, 81, 0
2, 53940, Note_on_c, 0, 80, 80
2, 54000, Note_on_c, 0, 80, 0
2, 54000, Note_on_c, 0, 78, 80
2, 54060, Note_on_c, 0, 78, 0
2, 54060, Note_on_c, 0, 76, 80
2, 54120, Note_on_c, 0, 76, 0
2, 54120, Note_on_c, 0, 75, 80
2, 54180, Note_on_c, 0, 75, 0
2, 54180, Note_on_c, 0, 73, 80
2, 54240, Note_on_c, 0, 73, 0
2, 54240, Note_on_c, 0, 72, 80
2, 54300, Note_on_c, 0, 72, 0
2, 54300, Note_on_c, 0, 73, 80
2, 54360, Note_on_c, 0, 73, 0
2, 54360, Note_on_c, 0, 74, 80
2, 54420, Note_on_c, 0, 74, 0
2, 54420, Note_on_c, 0, 73, 80
2, 54480, Note_on_c, 0, 73, 0
2, 54480, Note_on_c, 0, 72, 80
2, 54540, Note_on_c, 0, 72, 0
2, 54540, Note_on_c, 0, 73, 80
2, 54600, Note_on_c, 0, 73, 0
2, 54600, Note_on_c, 0, 74, 80
2, 54660, Note_on_c, 0, 74, 0
2, 54660, Note_on_c, 0, 73, 80
2, 54720, Note_on_c, 0, 73, 0
2, 54720, Note_on_c, 0, 72, 80
2, 54780, Note_on_c, 0, 72, 0
2, 54780, Note_on_c, 0, 81, 80
2, 54840, Note_on_c, 0, 81, 0
2, 54840, Note_on_c, 0, 80, 80
2, 54900, Note_on_c, 0, 80, 0
2, 54900, Note_on_c, 0, 78, 80
2, 54960, Note_on_c, 0, 78, 0
2, 54960, Note_on_c, 0, 76, 80
2, 55020, Note_on_c, 0, 76, 0
2, 55020, Note_on_c, 0, 75, 80
2, 55080, Note_on_c, 0, 75, 0
2, 55080, Note_on_c, 0, 73, 80
2, 55140, Note_on_c, 0, 73, 0
2, 55140, Note_on_c, 0, 72, 80
2, 55200, Note_on_c, 0, 72, 0
2, 55200, Note_on_c, 0, 73, 80
2, 55260, Note_on_c, 0, 73, 0
2, 55260, Note_on_c, 0, 75, 80
2, 55320, Note_on_c, 0, 75, 0
2, 55320, Note_on_c, 0, 76, 80
2, 55380, Note_on_c, 0, 76, 0
2, 55380, Note_on_c, 0, 75, 80
2, 55440, Note_on_c, 0, 75, 0
2, 55440, Note_on_c, 0, 73, 80
2, 55500, Note_on_c, 0, 73, 0
2, 55500, Note_on_c, 0, 75, 80
2, 55560, Note_on_c, 0, 75, 0
2, 55560, Note_on_c, 0, 76, 80
2, 55620, Note_on_c, 0, 76, 0
2, 55620, Note_on_c, 0, 75, 80
2, 55680, Note_on_c, 0, 75, 0
2, 55680, Note_on_c, 0, 73, 80
2, 55800, Note_on_c, 0, 73, 0
2, 55800, Note_on_c, 0, 80, 80
2, 55860, Note_on_c, 0, 80, 0
2, 55860, Note_on_c, 0, 78, 80
2, 55920, Note_on_c, 0, 78, 0
2, 55920, Note_on_c, 0, 76, 80
2, 55980, Note_on_c, 0, 76, 0
2, 55980, Note_on_c, 0, 75, 80
2, 56040, Note_on_c, 0, 75, 0
2, 56040, Note_on_c, 0, 73, 80
2, 56100, Note_on_c, 0, 73, 0
2, 56100, Note_on_c, 0, 71, 80
2, 56160, Note_on_c, 0, 71, 0
2, 56160, Note_on_c, 0, 70, 80
2, 56220, Note_on_c, 0, 70, 0
2, 56220, Note_on_c, 0, 71, 80
2, 56280, Note_on_c, 0, 71, 0
2, 56280, Note_on_c, 0, 73, 80
2, 56340, Note_on_c, 0, 73, 0
2, 56340, Note_on_c, 0, 71, 80
2, 56400, Note_on_c, 0, 71, 0
2, 56400, Note_on_c, 0, 70, 80
2, 56460, Note_on_c, 0, 70, 0
2, 56460, Note_on_c, 0, 71, 80
2, 56520, Note_on_c, 0, 71, 0
2, 56520, Note_on_c, 0, 73, 80
2, 56580, Note_on_c, 0, 73, 0
2, 56580, Note_on_c, 0, 71, 80
2, 56640, Note_on_c, 0, 71, 0
2, 56640, Note_on_c, 0, 70, 80
2, 56700, Note_on_c, 0, 70, 0
2, 56700, Note_on_c, 0, 79, 80
2, 56760, Note_on_c, 0, 79, 0
2, 56760, Note_on_c, 0, 78, 80
2, 56820, Note_on_c, 0, 78, 0
2, 56820, Note_on_c, 0, 76, 80
2, 56880, Note_on_c, 0, 76, 0
2, 56880, Note_on_c, 0, 74, 80
2, 56940, Note_on_c, 0, 74, 0
2, 56940, Note_on_c, 0, 73, 80
2, 57000, Note_on_c, 0, 73, 0
2, 57000, Note_on_c, 0, 71, 80
2, 57060, Note_on_c, 0, 71, 0
2, 57060, Note_on_c, 0, 70, 80
2, 57120, Note_on_c, 0, 70, 0
2, 57120, Note_on_c, 0, 71, 80
2, 57180, Note_on_c, 0, 71, 0
2, 57180, Note_on_c, 0, 73, 80
2, 57240, Note_on_c, 0, 73, 0
2, 57240, Note_on_c, 0, 74, 80
2, 57300, Note_on_c, 0, 74, 0
2, 57300, Note_on_c, 0, 73, 80
2, 57360, Note_on_c, 0, 73, 0
2, 57360, Note_on_c, 0, 71, 80
2, 57420, Note_on_c, 0, 71, 0
2, 57420, Note_on_c, 0, 73, 80
2, 57480, Note_on_c, 0, 73, 0
2, 57480, Note_on_c, 0, 74, 80
2, 57540, Note_on_c, 0, 74, 0
2, 57540, Note_on_c, 0, 73, 80
2, 57600, Note_on_c, 0, 73, 0
2, 57600, Note_on_c, 0, 71, 80
2, 57720, Note_on_c, 0, 71, 0
2, 57720, Note_on_c, 0, 79, 80
2, 57780, Note_on_c, 0, 79, 0
2, 57780, Note_on_c, 0, 78, 80
2, 57840, Note_on_c, 0, 78, 0
2, 57840, Note_on_c, 0, 76, 80
2, 57900, Note_on_c, 0, 76, 0
2, 57900, Note_on_c, 0, 74, 80
2, 57960, Note_on_c, 0, 74, 0
2, 57960, Note_on_c, 0, 73, 80
2, 58020, Note_on_c, 0, 73, 0
2, 58020, Note_on_c, 0, 71, 80
2, 58080, Note_on_c, 0, 71, 0
2, 58080, Note_on_c, 0, 73, 80
2, 58140, Note_on_c, 0, 73, 0
2, 58140, Note_on_c, 0, 74, 80
2, 58200, Note_on_c, 0, 74, 0
2, 58200, Note_on_c, 0, 76, 80
2, 58260, Note_on_c, 0, 76, 0
2, 58260, Note_on_c, 0, 74, 80
2, 58320, Note_on_c, 0, 74, 0
2, 58320, Note_on_c, 0, 73, 80
2, 58380, Note_on_c, 0, 73, 0
2, 58380, Note_on_c, 0, 74, 80
2, 58440, Note_on_c, 0, 74, 0
2, 58440, Note_on_c, 0, 76, 80
2, 58500, Note_on_c, 0, 76, 0
2, 58500, Note_on_c, 0, 74, 80
2, 58560, Note_on_c, 0, 74, 0
2, 58560, Note_on_c, 0, 73, 80
2, 58680, Note_on_c, 0, 73, 0
2, 58680, Note_on_c, 0, 76, 80
2, 58740, Note_on_c, 0, 76, 0
2, 58740, Note_on_c, 0, 79, 80
2, 58800, Note_on_c, 0, 79, 0
2, 58800, Note_on_c, 0, 78, 80
2, 58860, Note_on_c, 0, 78, 0
2, 58860, Note_on_c, 0, 76, 80
2, 58920, Note_on_c, 0, 76, 0
2, 58920, Note_on_c, 0, 74, 80
2, 58980, Note_on_c, 0, 74, 0
2, 58980, Note_on_c, 0, 73, 80
2, 59040, Note_on_c, 0, 73, 0
2, 59040, Note_on_c, 0, 71, 80
2, 59100, Note_on_c, 0, 71, 0
2, 59100, Note_on_c, 0, 73, 80
2, 59160, Note_on_c, 0, 73, 0
2, 59160, Note_on_c, 0, 74, 80
2, 59220, Note_on_c, 0, 74, 0
2, 59220, Note_on_c, 0, 73, 80
2, 59280, Note_on_c, 0, 73, 0
2, 59280, Note_on_c, 0, 71, 80
2, 59340, Note_on_c, 0, 71, 0
2, 59340, Note_on_c, 0, 73, 80
2, 59400, Note_on_c, 0, 73, 0
2, 59400, Note_on_c, 0, 74, 80
2, 59460, Note_on_c, 0, 74, 0
2, 59460, Note_on_c, 0, 73, 80
2, 59520, Note_on_c, 0, 73, 0
2, 59520, Note_on_c, 0, 71, 80
2, 59580, Note_on_c, 0, 71, 0
2, 59580, Note_on_c, 0, 73, 80
2, 59640, Note_on_c, 0, 73, 0
2, 59640, Note_on_c, 0, 74, 80
2, 59700, Note_on_c, 0, 74, 0
2, 59700, Note_on_c, 0, 73, 80
2, 59760, Note_on_c, 0, 73, 0
2, 59760, Note_on_c, 0, 71, 80
2, 59820, Note_on_c, 0, 71, 0
2, 59820, Note_on_c, 0, 74, 80
2, 59880, Note_on_c, 0, 74, 0
2, 59880, Note_on_c, 0, 73, 80
2, 59940, Note_on_c, 0, 73, 0
2, 59940, Note_on_c, 0, 71, 80
2, 60000, Note_on_c, 0, 71, 0
2, 60000, Note_on_c, 0, 70, 96
2, 60000, Note_on_c, 0, 78, 96
2, 60240, Note_on_c, 0, 78, 0
2, 60240, Note_on_c, 0, 70, 0
2, 61320, Note_on_c, 0, 59, 72
2, 61368, Note_on_c, 0, 59, 0
2, 61440, Note_on_c, 0, 59, 72
2, 61488, Note_on_c, 0, 59, 0
2, 61560, Note_on_c, 0, 59, 72
2, 61608, Note_on_c, 0, 59, 0
2, 61680, Note_on_c, 0, 59, 72
2, 61728, Note_on_c, 0, 59, 0
2, 61800, Note_on_c, 0, 59, 72
2, 61848, Note_on_c, 0, 59, 0
2, 61920, Note_on_c, 0, 62, 80
2, 62040, Note_on_c, 0, 62, 0
2, 62040, Note_on_c, 0, 61, 72
2, 62124, Note_on_c, 0, 61, 0
2, 62160, Note_on_c, 0, 59, 72
2, 62208, Note_on_c, 0, 59, 0
2, 62280, Note_on_c, 0, 67, 72
2, 62328, Note_on_c, 0, 67, 0
2, 62400, Note_on_c, 0, 66, 72
2, 62520, Note_on_c, 0, 66, 0
2, 62520, Note_on_c, 0, 65, 72
2, 62604, Note_on_c, 0, 65, 0
2, 62640, Note_on_c, 0, 66, 72
2, 62688, Note_on_c, 0, 66, 0
2, 62760, Note_on_c, 0, 64, 72
2, 62808, Note_on_c, 0, 64, 0
2, 62880, Note_on_c, 0, 62, 72
2, 63000, Note_on_c, 0, 62, 0
2, 63000, Note_on_c, 0, 61, 72
2, 63084, Note_on_c, 0, 61, 0
2, 63120, Note_on_c, 0, 62, 72
2, 63168, Note_on_c, 0, 62, 0
2, 63240, Note_on_c, 0, 61, 72
2, 63288, Note_on_c, 0, 61, 0
2, 63360, Note_on_c, 0, 59, 72
2, 63480, Note_on_c, 0, 59, 0
2, 63480, Note_on_c, 0, 58, 72
2, 63528, Note_on_c, 0, 58, 0
2, 63600, Note_on_c, 0, 59, 72
2, 63648, Note_on_c, 0, 59, 0
2, 63720, Note_on_c, 0, 59, 72
2, 63768, Note_on_c, 0, 59, 0
2, 63840, Note_on_c, 0, 59, 72
2, 63888, Note_on_c, 0, 59, 0
2, 63960, Note_on_c, 0, 59, 72
2, 64008, Note_on_c, 0, 59, 0
2, 64080, Note_on_c, 0, 59, 72
2, 64128, Note_on_c, 0, 59, 0
2, 64200, Note_on_c, 0, 64, 72
2, 64248, Note_on_c, 0, 64, 0
2, 64320, Note_on_c, 0, 62, 80
2, 64440, Note_on_c, 0, 62, 0
2, 64440, Note_on_c, 0, 61, 72
2, 64488, Note_on_c, 0, 61, 0
2, 64560, Note_on_c, 0, 59, 72
2, 64608, Note_on_c, 0, 59, 0
2, 64680, Note_on_c, 0, 67, 72
2, 64728, Note_on_c, 0, 67, 0
2, 64800, Note_on_c, 0, 66, 72
2, 64848, Note_on_c, 0, 66, 0
2, 64920, Note_on_c, 0, 64, 72
2, 64968, Note_on_c, 0, 64, 0
2, 65040, Note_on_c, 0, 62, 72
2, 65088, Note_on_c, 0, 62, 0
2, 65160, Note_on_c, 0, 61, 72
2, 65208, Note_on_c, 0, 61, 0
2, 65280, Note_on_c, 0, 59, 72
2, 65520, Note_on_c, 0, 59, 0
2, 65640, Note_on_c, 0, 59, 72
2, 65688, Note_on_c, 0, 59, 0
2, 65760, Note_on_c, 0, 59, 72
2, 65808, Note_on_c, 0, 59, 0
2, 65880, Note_on_c, 0, 59, 72
2, 65928, Note_on_c, 0, 59, 0
2, 66000, Note_on_c, 0, 59, 72
2, 66048, Note_on_c, 0, 59, 0
2, 66120, Note_on_c, 0, 64, 72
2, 66168, Note_on_c, 0, 64, 0
2, 66240, Note_on_c, 0, 62, 80
2, 66360, Note_on_c, 0, 62, 0
2, 66360, Note_on_c, 0, 61, 72
2, 66408, Note_on_c, 0, 61, 0
2, 66480, Note_on_c, 0, 59, 72
2, 66528, Note_on_c, 0, 59, 0
2, 66600, Note_on_c, 0, 71, 72
2, 66648, Note_on_c, 0, 71, 0
2, 66720, Note_on_c, 0, 69, 72
2, 66840, Note_on_c, 0, 69, 0
2, 66840, Note_on_c, 0, 67, 72
2, 66960, Note_on_c, 0, 67, 0
2, 66960, Note_on_c, 0, 66, 72
2, 67080, Note_on_c, 0, 66, 0
2, 67080, Note_on_c, 0, 65, 72
2, 67200, Note_on_c, 0, 65, 0
2, 67200, Note_on_c, 0, 66, 72
2, 67440, Note_on_c, 0, 66, 0
2, 67560, Note_on_c, 0, 61, 64
2, 67560, Note_on_c, 0, 64, 64
2, 67608, Note_on_c, 0, 64, 0
2, 67608, Note_on_c, 0, 61, 0
2, 67680, Note_on_c, 0, 61, 64
2, 67680, Note_on_c, 0, 64, 64
2, 67728, Note_on_c, 0, 64, 0
2, 67728, Note_on_c, 0, 61, 0
2, 67800, Note_on_c, 0, 61, 64
2, 67800, Note_on_c, 0, 64, 64
2, 67848, Note_on_c, 0, 64, 0
2, 67848, Note_on_c, 0, 61, 0
2, 67920, Note_on_c, 0, 61, 64
2, 67920, Note_on_c, 0, 64, 64
2, 67968, Note_on_c, 0, 64, 0
2, 67968, Note_on_c, 0, 61, 0
2, 68040, Note_on_c, 0, 61, 64
2, 68040, Note_on_c, 0, 64, 64
2, 68088, Note_on_c, 0, 64, 0
2, 68088, Note_on_c, 0, 61, 0
2, 68160, Note_on_c, 0, 64, 64
2, 68160, Note_on_c, 0, 67, 64
2, 68280, Note_on_c, 0, 67, 0
2, 68280, Note_on_c, 0, 64, 0
2, 68280, Note_on_c, 0, 62, 64
2, 68280, Note_on_c, 0, 66, 64
2, 68328, Note_on_c, 0, 66, 0
2, 68328, Note_on_c, 0, 62, 0
2, 68400, Note_on_c, 0, 61, 64
2, 68400, Note_on_c, 0, 64, 64
2, 68448, Note_on_c, 0, 64, 0
2, 68448, Note_on_c, 0, 61, 0
2, 68520, Note_on_c, 0, 61, 48
2, 68520, Note_on_c, 0, 64, 48
2, 68568, Note_on_c, 0, 64, 0
2, 68568, Note_on_c, 0, 61, 0
2, 68640, Note_on_c, 0, 61, 48
2, 68640, Note_on_c, 0, 64, 48
2, 68688, Note_on_c, 0, 64, 0
2, 68688, Note_on_c, 0, 61, 0
2, 68760, Note_on_c, 0, 61, 48
2, 68760, Note_on_c, 0, 64, 48
2, 68808, Note_on_c, 0, 64, 0
2, 68808, Note_on_c, 0, 61, 0
2, 68880, Note_on_c, 0, 61, 48
2, 68880, Note_on_c, 0, 64, 48
2, 68928, Note_on_c, 0, 64, 0
2, 68928, Note_on_c, 0, 61, 0
2, 69000, Note_on_c, 0, 61, 48
2, 69000, Note_on_c, 0, 64, 48
2, 69048, Note_on_c, 0, 64, 0
2, 69048, Note_on_c, 0, 61, 0
2, 69120, Note_on_c, 0, 64, 48
2, 69120, Note_on_c, 0, 67, 48
2, 69240, Note_on_c, 0, 67, 0
2, 69240, Note_on_c, 0, 64, 0
2, 69240, Note_on_c, 0, 62, 48
2, 69240, Note_on_c, 0, 66, 48
2, 69288, Note_on_c, 0, 66, 0
2, 69288, Note_on_c, 0, 62, 0
2, 69360, Note_on_c, 0, 61, 64
2, 69360, Note_on_c, 0, 64, 64
2, 69408, Note_on_c, 0, 64, 0
2, 69408, Note_on_c, 0, 61, 0
2, 69480, Note_on_c, 0, 63, 80
2, 69480, Note_on_c, 0, 75, 80
2, 69528, Note_on_c, 0, 75, 0
2, 69528, Note_on_c, 0, 63, 0
2, 69600, Note_on_c, 0, 64, 80
2, 69600, Note_on_c, 0, 76, 80
2, 69648, Note_on_c, 0, 76, 0
2, 69648, Note_on_c, 0, 64, 0
2, 69720, Note_on_c, 0, 63, 80
2, 69720, Note_on_c, 0, 75, 80
2, 69768, Note_on_c, 0, 75, 0
2, 69768, Note_on_c, 0, 63, 0
2, 69840, Note_on_c, 0, 64, 80
2, 69840, Note_on_c, 0, 76, 80
2, 69888, Note_on_c, 0, 76, 0
2, 69888, Note_on_c, 0, 64, 0
2, 69960, Note_on_c, 0, 66, 80
2, 69960, Note_on_c, 0, 78, 80
2, 70008, Note_on_c, 0, 78, 0
2, 70008, Note_on_c, 0, 66, 0
2, 70080, Note_on_c, 0, 67, 80
2, 70080, Note_on_c, 0, 79, 80
2, 70320, Note_on_c, 0, 79, 0
2, 70320, Note_on_c, 0, 67, 0
2, 70440, Note_on_c, 0, 76, 64
2, 70440, Note_on_c, 0, 79, 64
2, 70560, Note_on_c, 0, 79, 0
2, 70560, Note_on_c, 0, 76, 0
2, 70560, Note_on_c, 0, 74, 64
2, 70560, Note_on_c, 0, 78, 64
2, 70800, Note_on_c, 0, 78, 0
2, 70800, Note_on_c, 0, 74, 0
2, 70920, Note_on_c, 0, 73, 64
2, 70920, Note_on_c, 0, 76, 64
2, 71040, Note_on_c, 0, 76, 0
2, 71040, Note_on_c, 0, 73, 0
2, 71040, Note_on_c, 0, 71, 64
2, 71040, Note_on_c, 0, 74, 64
2, 71280, Note_on_c, 0, 74, 0
2, 71280, Note_on_c, 0, 71, 0
2, 71400, Note_on_c, 0, 63, 80
2, 71400, Note_on_c, 0, 75, 80
2, 71448, Note_on_c, 0, 75, 0
2, 71448, Note_on_c, 0, 63, 0
2, 71520, Note_on_c, 0, 64, 80
2, 71520, Note_on_c, 0, 76, 80
2, 71568, Note_on_c, 0, 76, 0
2, 71568, Note_on_c, 0, 64, 0
2, 71640, Note_on_c, 0, 63, 80
2, 71640, Note_on_c, 0, 75, 80
2, 71688, Note_on_c, 0, 75, 0
2, 71688, Note_on_c, 0, 63, 0
2, 71760, Note_on_c, 0, 64, 80
2, 71760, Note_on_c, 0, 76, 80
2, 71808, Note_on_c, 0, 76, 0
2, 71808, Note_on_c, 0, 64, 0
2, 71880, Note_on_c, 0, 66, 80
2, 71880, Note_on_c, 0, 78, 80
2, 71928, Note_on_c, 0, 78, 0
2, 71928, Note_on_c, 0, 66, 0
2, 72000, Note_on_c, 0, 67, 80
2, 72000, Note_on_c, 0, 79, 80
2, 72360, Note_on_c, 0, 79, 0
2, 72360, Note_on_c, 0, 67, 0
2, 72360, Note_on_c, 0, 64, 80
2, 72360, Note_on_c, 0, 76, 80
2, 72480, Note_on_c, 0, 76, 0
2, 72480, Note_on_c, 0, 64, 0
2, 72480, Note_on_c, 0, 70, 80
2, 72480, Note_on_c, 0, 82, 80
2, 72840, Note_on_c, 0, 82, 0
2, 72840, Note_on_c, 0, 70, 0
2, 72840, Note_on_c, 0, 71, 80
2, 72840, Note_on_c, 0, 83, 80
2, 72960, Note_on_c, 0, 83, 0
2, 72960, Note_on_c, 0, 71, 0
2, 72960, Note_on_c, 0, 73, 80
2, 72960, Note_on_c, 0, 85, 80
2, 73320, Note_on_c, 0, 85, 0
2, 73320, Note_on_c, 0, 73, 0
2, 73320, Note_on_c, 0, 74, 80
2, 73320, Note_on_c, 0, 86, 80
2, 73440, Note_on_c, 0, 86, 0
2, 73440, Note_on_c, 0, 74, 0
2, 73440, Note_on_c, 0, 76, 80
2, 73440, Note_on_c, 0, 88, 80
2, 74145, Note_on_c, 0, 88, 0
2, 74145, Note_on_c, 0, 76, 0
2, 74760, Note_on_c, 0, 71, 80
2, 74808, Note_on_c, 0, 71, 0
2, 74880, Note_on_c, 0, 71, 80
2, 74928, Note_on_c, 0, 71, 0
2, 75000, Note_on_c, 0, 71, 80
2, 75048, Note_on_c, 0, 71, 0
2, 75120, Note_on_c, 0, 71, 80
2, 75168, Note_on_c, 0, 71, 0
2, 75240, Note_on_c, 0, 71, 80
2, 75288, Note_on_c, 0, 71, 0
2, 75360, Note_on_c, 0, 71, 80
2, 75420, Note_on_c, 0, 71, 0
2, 75420, Note_on_c, 0, 73, 80
2, 75480, Note_on_c, 0, 73, 0
2, 75480, Note_on_c, 0, 74, 80
2, 75540, Note_on_c, 0, 74, 0
2, 75540, Note_on_c, 0, 73, 80
2, 75600, Note_on_c, 0, 73, 0
2, 75600, Note_on_c, 0, 71, 80
2, 75660, Note_on_c, 0, 71, 0
2, 75660, Note_on_c, 0, 73, 80
2, 75720, Note_on_c, 0, 73, 0
2, 75720, Note_on_c, 0, 74, 80
2, 75780, Note_on_c, 0, 74, 0
2, 75780, Note_on_c, 0, 73, 80
2, 75840, Note_on_c, 0, 73, 0
2, 75840, Note_on_c, 0, 71, 80
2, 75900, Note_on_c, 0, 71, 0
2, 75900, Note_on_c, 0, 73, 80
2, 75960, Note_on_c, 0, 73, 0
2, 75960, Note_on_c, 0, 74, 80
2, 76020, Note_on_c, 0, 74, 0
2, 76020, Note_on_c, 0, 73, 80
2, 76080, Note_on_c, 0, 73, 0
2, 76080, Note_on_c, 0, 71, 80
2, 76140, Note_on_c, 0, 71, 0
2, 76140, Note_on_c, 0, 73, 80
2, 76200, Note_on_c, 0, 73, 0
2, 76200, Note_on_c, 0, 74, 80
2, 76260, Note_on_c, 0, 74, 0
2, 76260, Note_on_c, 0, 73, 80
2, 76320, Note_on_c, 0, 73, 0
2, 76320, Note_on_c, 0, 71, 80
2, 76380, Note_on_c, 0, 71, 0
2, 76380, Note_on_c, 0, 73, 80
2, 76440, Note_on_c, 0, 73, 0
2, 76440, Note_on_c, 0, 74, 80
2, 76500, Note_on_c, 0, 74, 0
2, 76500, Note_on_c, 0, 73, 80
2, 76560, Note_on_c, 0, 73, 0
2, 76560, Note_on_c, 0, 71, 80
2, 76620, Note_on_c, 0, 71, 0
2, 76620, Note_on_c, 0, 73, 80
2, 76680, Note_on_c, 0, 73, 0
2, 76680, Note_on_c, 0, 74, 80
2, 76740, Note_on_c, 0, 74, 0
2, 76740, Note_on_c, 0, 73, 80
2, 76800, Note_on_c, 0, 73, 0
2, 76800, Note_on_c, 0, 71, 80
2, 76860, Note_on_c, 0, 71, 0
2, 76860, Note_on_c, 0, 73, 80
2, 76920, Note_on_c, 0, 73, 0
2, 76920, Note_on_c, 0, 74, 80
2, 76980, Note_on_c, 0, 74, 0
2, 76980, Note_on_c, 0, 73, 80
2, 77040, Note_on_c, 0, 73, 0
2, 77040, Note_on_c, 0, 71, 80
2, 77100, Note_on_c, 0, 71, 0
2, 77100, Note_on_c, 0, 73, 80
2, 77160, Note_on_c, 0, 73, 0
2, 77160, Note_on_c, 0, 74, 80
2, 77220, Note_on_c, 0, 74, 0
2, 77220, Note_on_c, 0, 73, 80
2, 77280, Note_on_c, 0, 73, 0
2, 77280, Note_on_c, 0, 71, 80
2, 77340, Note_on_c, 0, 71, 0
2, 77340, Note_on_c, 0, 73, 80
2, 77400, Note_on_c, 0, 73, 0
2, 77400, Note_on_c, 0, 74, 80
2, 77460, Note_on_c, 0, 74, 0
2, 77460, Note_on_c, 0, 73, 80
2, 77520, Note_on_c, 0, 73, 0
2, 77520, Note_on_c, 0, 71, 80
2, 77580, Note_on_c, 0, 71, 0
2, 77580, Note_on_c, 0, 73, 80
2, 77640, Note_on_c, 0, 73, 0
2, 77640, Note_on_c, 0, 74, 80
2, 77700, Note_on_c, 0, 74, 0
2, 77700, Note_on_c, 0, 73, 80
2, 77760, Note_on_c, 0, 73, 0
2, 77760, Note_on_c, 0, 71, 80
2, 77820, Note_on_c, 0, 71, 0
2, 77820, Note_on_c, 0, 73, 80
2, 77880, Note_on_c, 0, 73, 0
2, 77880, Note_on_c, 0, 74, 80
2, 77940, Note_on_c, 0, 74, 0
2, 77940, Note_on_c, 0, 73, 80
2, 78000, Note_on_c, 0, 73, 0
2, 78000, Note_on_c, 0, 71, 80
2, 78060, Note_on_c, 0, 71, 0
2, 78060, Note_on_c, 0, 73, 80
2, 78120, Note_on_c, 0, 73, 0
2, 78120, Note_on_c, 0, 74, 80
2, 78180, Note_on_c, 0, 74, 0
2, 78180, Note_on_c, 0, 73, 80
2, 78240, Note_on_c, 0, 73, 0
2, 78240, Note_on_c, 0, 71, 80
2, 78300, Note_on_c, 0, 71, 0
2, 78300, Note_on_c, 0, 73, 80
2, 78360, Note_on_c, 0, 73, 0
2, 78360, Note_on_c, 0, 74, 80
2, 78420, Note_on_c, 0, 74, 0
2, 78420, Note_on_c, 0, 73, 80
2, 78480, Note_on_c, 0, 73, 0
2, 78480, Note_on_c, 0, 71, 80
2, 78540, Note_on_c, 0, 71, 0
2, 78540, Note_on_c, 0, 73, 80
2, 78600, Note_on_c, 0, 73, 0
2, 78600, Note_on_c, 0, 74, 80
2, 78660, Note_on_c, 0, 74, 0
2, 78660, Note_on_c, 0, 73, 80
2, 78720, Note_on_c, 0, 73, 0
2, 78720, Note_on_c, 0, 71, 80
2, 78780, Note_on_c, 0, 71, 0
2, 78780, Note_on_c, 0, 73, 80
2, 78840, Note_on_c, 0, 73, 0
2, 78840, Note_on_c, 0, 74, 80
2, 78900, Note_on_c, 0, 74, 0
2, 78900, Note_on_c, 0, 76, 80
2, 78960, Note_on_c, 0, 76, 0
2, 78960, Note_on_c, 0, 78, 80
2, 79020, Note_on_c, 0, 78, 0
2, 79020, Note_on_c, 0, 80, 80
2, 79080, Note_on_c, 0, 80, 0
2, 79080, Note_on_c, 0, 82, 80
2, 79140, Note_on_c, 0, 82, 0
2, 79140, Note_on_c, 0, 83, 80
2, 79200, Note_on_c, 0, 83, 0
2, 79200, Note_on_c, 0, 82, 80
2, 79260, Note_on_c, 0, 82, 0
2, 79260, Note_on_c, 0, 78, 80
2, 79320, Note_on_c, 0, 78, 0
2, 79320, Note_on_c, 0, 77, 80
2, 79380, Note_on_c, 0, 77, 0
2, 79380, Note_on_c, 0, 78, 80
2, 79440, Note_on_c, 0, 78, 0
2, 79440, Note_on_c, 0, 76, 80
2, 79500, Note_on_c, 0, 76, 0
2, 79500, Note_on_c, 0, 79, 80
2, 79560, Note_on_c, 0, 79, 0
2, 79560, Note_on_c, 0, 78, 80
2, 79620, Note_on_c, 0, 78, 0
2, 79620, Note_on_c, 0, 76, 80
2, 79680, Note_on_c, 0, 76, 0
2, 79680, Note_on_c, 0, 74, 80
2, 79740, Note_on_c, 0, 74, 0
2, 79740, Note_on_c, 0, 78, 80
2, 79800, Note_on_c, 0, 78, 0
2, 79800, Note_on_c, 0, 76, 80
2, 79860, Note_on_c, 0, 76, 0
2, 79860, Note_on_c, 0, 74, 80
2, 79920, Note_on_c, 0, 74, 0
2, 79920, Note_on_c, 0, 73, 80
2, 79980, Note_on_c, 0, 73, 0
2, 79980, Note_on_c, 0, 76, 80
2, 80040, Note_on_c, 0, 76, 0
2, 80040, Note_on_c, 0, 74, 80
2, 80100, Note_on_c, 0, 74, 0
2, 80100, Note_on_c, 0, 73, 80
2, 80160, Note_on_c, 0, 73, 0
2, 80160, Note_on_c, 0, 78, 80
2, 80220, Note_on_c, 0, 78, 0
2, 80220, Note_on_c, 0, 74, 80
2, 80280, Note_on_c, 0, 74, 0
2, 80280, Note_on_c, 0, 73, 80
2, 80340, Note_on_c, 0, 73, 0
2, 80340, Note_on_c, 0, 71, 80
2, 80400, Note_on_c, 0, 71, 0
2, 80400, Note_on_c, 0, 79, 80
2, 80460, Note_on_c, 0, 79, 0
2, 80460, Note_on_c, 0, 76, 80
2, 80520, Note_on_c, 0, 76, 0
2, 80520, Note_on_c, 0, 74, 80
2, 80580, Note_on_c, 0, 74, 0
2, 80580, Note_on_c, 0, 73, 80
2, 80640, Note_on_c, 0, 73, 0
2, 80640, Note_on_c, 0, 73, 80
2, 80672, Note_on_c, 0, 73, 0
2, 80680, Note_on_c, 0, 74, 80
2, 80712, Note_on_c, 0, 74, 0
2, 80720, Note_on_c, 0, 73, 80
2, 80752, Note_on_c, 0, 73, 0
2, 80760, Note_on_c, 0, 74, 80
2, 80792, Note_on_c, 0, 74, 0
2, 80800, Note_on_c, 0, 73, 80
2, 80832, Note_on_c, 0, 73, 0
2, 80840, Note_on_c, 0, 74, 80
2, 80872, Note_on_c, 0, 74, 0
2, 80880, Note_on_c, 0, 73, 80
2, 80928, Note_on_c, 0, 73, 0
2, 80940, Note_on_c, 0, 74, 80
2, 80988, Note_on_c, 0, 74, 0
2, 81000, Note_on_c, 0, 73, 80
2, 81032, Note_on_c, 0, 73, 0
2, 81040, Note_on_c, 0, 71, 80
2, 81072, Note_on_c, 0, 71, 0
2, 81080, Note_on_c, 0, 73, 80
2, 81112, Note_on_c, 0, 73, 0
2, 81120, Note_on_c, 0, 71, 80
2, 81180, Note_on_c, 0, 71, 0
2, 81180, Note_on_c, 0, 73, 80
2, 81240, Note_on_c, 0, 73, 0
2, 81240, Note_on_c, 0, 74, 80
2, 81300, Note_on_c, 0, 74, 0
2, 81300, Note_on_c, 0, 73, 80
2, 81360, Note_on_c, 0, 73, 0
2, 81360, Note_on_c, 0, 71, 80
2, 81420, Note_on_c, 0, 71, 0
2, 81420, Note_on_c, 0, 73, 80
2, 81480, Note_on_c, 0, 73, 0
2, 81480, Note_on_c, 0, 74, 80
2, 81540, Note_on_c, 0, 74, 0
2, 81540, Note_on_c, 0, 73, 80
2, 81600, Note_on_c, 0, 73, 0
2, 81600, Note_on_c, 0, 71, 80
2, 81660, Note_on_c, 0, 71, 0
2, 81660, Note_on_c, 0, 73, 80
2, 81720, Note_on_c, 0, 73, 0
2, 81720, Note_on_c, 0, 74, 80
2, 81780, Note_on_c, 0, 74, 0
2, 81780, Note_on_c, 0, 73, 80
2, 81840, Note_on_c, 0, 73, 0
2, 81840, Note_on_c, 0, 71, 80
2, 81900, Note_on_c, 0, 71, 0
2, 81900, Note_on_c, 0, 73, 80
2, 81960, Note_on_c, 0, 73, 0
2, 81960, Note_on_c, 0, 74, 80
2, 82020, Note_on_c, 0, 74, 0
2, 82020, Note_on_c, 0, 73, 80
2, 82080, Note_on_c, 0, 73, 0
2, 82080, Note_on_c, 0, 71, 80
2, 82140, Note_on_c, 0, 71, 0
2, 82140, Note_on_c, 0, 73, 80
2, 82200, Note_on_c, 0, 73, 0
2, 82200, Note_on_c, 0, 74, 80
2, 82260, Note_on_c, 0, 74, 0
2, 82260, Note_on_c, 0, 73, 80
2, 82320, Note_on_c, 0, 73, 0
2, 82320, Note_on_c, 0, 71, 80
2, 82380, Note_on_c, 0, 71, 0
2, 82380, Note_on_c, 0, 73, 80
2, 82440, Note_on_c, 0, 73, 0
2, 82440, Note_on_c, 0, 74, 80
2, 82500, Note_on_c, 0, 74, 0
2, 82500, Note_on_c, 0, 73, 80
2, 82560, Note_on_c, 0, 73, 0
2, 82560, Note_on_c, 0, 71, 80
2, 82620, Note_on_c, 0, 71, 0
2, 82620, Note_on_c, 0, 73, 80
2, 82680, Note_on_c, 0, 73, 0
2, 82680, Note_on_c, 0, 74, 80
2, 82740, Note_on_c, 0, 74, 0
2, 82740, Note_on_c, 0, 73, 80
2, 82800, Note_on_c, 0, 73, 0
2, 82800, Note_on_c, 0, 71, 80
2, 82860, Note_on_c, 0, 71, 0
2, 82860, Note_on_c, 0, 73, 80
2, 82920, Note_on_c, 0, 73, 0
2, 82920, Note_on_c, 0, 74, 80
2, 82980, Note_on_c, 0, 74, 0
2, 82980, Note_on_c, 0, 73, 80
2, 83040, Note_on_c, 0, 73, 0
2, 83040, Note_on_c, 0, 71, 80
2, 83100, Note_on_c, 0, 71, 0
2, 83100, Note_on_c, 0, 73, 80
2, 83160, Note_on_c, 0, 73, 0
2, 83160, Note_on_c, 0, 74, 80
2, 83220, Note_on_c, 0, 74, 0
2, 83220, Note_on_c, 0, 73, 80
2, 83280, Note_on_c, 0, 73, 0
2, 83280, Note_on_c, 0, 71, 80
2, 83340, Note_on_c, 0, 71, 0
2, 83340, Note_on_c, 0, 73, 80
2, 83400, Note_on_c, 0, 73, 0
2, 83400, Note_on_c, 0, 74, 80
2, 83460, Note_on_c, 0, 74, 0
2, 83460, Note_on_c, 0, 73, 80
2, 83520, Note_on_c, 0, 73, 0
2, 83520, Note_on_c, 0, 71, 80
2, 83580, Note_on_c, 0, 71, 0
2, 83580, Note_on_c, 0, 73, 80
2, 83640, Note_on_c, 0, 73, 0
2, 83640, Note_on_c, 0, 74, 80
2, 83700, Note_on_c, 0, 74, 0
2, 83700, Note_on_c, 0, 73, 80
2, 83760, Note_on_c, 0, 73, 0
2, 83760, Note_on_c, 0, 71, 80
2, 83820, Note_on_c, 0, 71, 0
2, 83820, Note_on_c, 0, 73, 80
2, 83880, Note_on_c, 0, 73, 0
2, 83880, Note_on_c, 0, 74, 80
2, 83940, Note_on_c, 0, 74, 0
2, 83940, Note_on_c, 0, 73, 80
2, 84000, Note_on_c, 0, 73, 0
2, 84000, Note_on_c, 0, 71, 80
2, 84060, Note_on_c, 0, 71, 0
2, 84060, Note_on_c, 0, 73, 80
2, 84120, Note_on_c, 0, 73, 0
2, 84120, Note_on_c, 0, 74, 80
2, 84180, Note_on_c, 0, 74, 0
2, 84180, Note_on_c, 0, 73, 80
2, 84240, Note_on_c, 0, 73, 0
2, 84240, Note_on_c, 0, 71, 80
2, 84300, Note_on_c, 0, 71, 0
2, 84300, Note_on_c, 0, 73, 80
2, 84360, Note_on_c, 0, 73, 0
2, 84360, Note_on_c, 0, 74, 80
2, 84420, Note_on_c, 0, 74, 0
2, 84420, Note_on_c, 0, 73, 80
2, 84480, Note_on_c, 0, 73, 0
2, 84480, Note_on_c, 0, 71, 80
2, 84540, Note_on_c, 0, 71, 0
2, 84540, Note_on_c, 0, 73, 80
2, 84600, Note_on_c, 0, 73, 0
2, 84600, Note_on_c, 0, 74, 80
2, 84660, Note_on_c, 0, 74, 0
2, 84660, Note_on_c, 0, 76, 80
2, 84720, Note_on_c, 0, 76, 0
2, 84720, Note_on_c, 0, 78, 80
2, 84780, Note_on_c, 0, 78, 0
2, 84780, Note_on_c, 0, 80, 80
2, 84840, Note_on_c, 0, 80, 0
2, 84840, Note_on_c, 0, 82, 80
2, 84900, Note_on_c, 0, 82, 0
2, 84900, Note_on_c, 0, 83, 80
2, 84960, Note_on_c, 0, 83, 0
2, 84960, Note_on_c, 0, 82, 80
2, 85020, Note_on_c, 0, 82, 0
2, 85020, Note_on_c, 0, 78, 80
2, 85080, Note_on_c, 0, 78, 0
2, 85080, Note_on_c, 0, 77, 80
2, 85140, Note_on_c, 0, 77, 0
2, 85140, Note_on_c, 0, 78, 80
2, 85200, Note_on_c, 0, 78, 0
2, 85200, Note_on_c, 0, 76, 80
2, 85260, Note_on_c, 0, 76, 0
2, 85260, Note_on_c, 0, 79, 80
2, 85320, Note_on_c, 0, 79, 0
2, 85320, Note_on_c, 0, 78, 80
2, 85380, Note_on_c, 0, 78, 0
2, 85380, Note_on_c, 0, 76, 80
2, 85440, Note_on_c, 0, 76, 0
2, 85440, Note_on_c, 0, 74, 80
2, 85500, Note_on_c, 0, 74, 0
2, 85500, Note_on_c, 0, 78, 80
2, 85560, Note_on_c, 0, 78, 0
2, 85560, Note_on_c, 0, 76, 80
2, 85620, Note_on_c, 0, 76, 0
2, 85620, Note_on_c, 0, 74, 80
2, 85680, Note_on_c, 0, 74, 0
2, 85680, Note_on_c, 0, 73, 80
2, 85740, Note_on_c, 0, 73, 0
2, 85740, Note_on_c, 0, 76, 80
2, 85800, Note_on_c, 0, 76, 0
2, 85800, Note_on_c, 0, 74, 80
2, 85860, Note_on_c, 0, 74, 0
2, 85860, Note_on_c, 0, 73, 80
2, 85920, Note_on_c, 0, 73, 0
2, 85920, Note_on_c, 0, 78, 80
2, 85980, Note_on_c, 0, 78, 0
2, 85980, Note_on_c, 0, 74, 80
2, 86040, Note_on_c, 0, 74, 0
2, 86040, Note_on_c, 0, 73, 80
2, 86100, Note_on_c, 0, 73, 0
2, 86100, Note_on_c, 0, 71, 80
2, 86160, Note_on_c, 0, 71, 0
2, 86160, Note_on_c, 0, 79, 80
2, 86220, Note_on_c, 0, 79, 0
2, 86220, Note_on_c, 0, 76, 80
2, 86280, Note_on_c, 0, 76, 0
2, 86280, Note_on_c, 0, 74, 80
2, 86340, Note_on_c, 0, 74, 0
2, 86340, Note_on_c, 0, 73, 80
2, 86400, Note_on_c, 0, 73, 0
2, 86400, Note_on_c, 0, 73, 80
2, 86432, Note_on_c, 0, 73, 0
2, 86440, Note_on_c, 0, 74, 80
2, 86472, Note_on_c, 0, 74, 0
2, 86480, Note_on_c, 0, 73, 80
2, 86512, Note_on_c, 0, 73, 0
2, 86520, Note_on_c, 0, 74, 80
2, 86552, Note_on_c, 0, 74, 0
2, 86560, Note_on_c, 0, 73, 80
2, 86592, Note_on_c, 0, 73, 0
2, 86600, Note_on_c, 0, 74, 80
2, 86632, Note_on_c, 0, 74, 0
2, 86640, Note_on_c, 0, 73, 80
2, 86688, Note_on_c, 0, 73, 0
2, 86700, Note_on_c, 0, 74, 80
2, 86748, Note_on_c, 0, 74, 0
2, 86760, Note_on_c, 0, 73, 80
2, 86792, Note_on_c, 0, 73, 0
2, 86800, Note_on_c, 0, 71, 80
2, 86832, Note_on_c, 0, 71, 0
2, 86840, Note_on_c, 0, 73, 80
2, 86872, Note_on_c, 0, 73, 0
2, 86880, Note_on_c, 0, 71, 80
2, 86940, Note_on_c, 0, 71, 0
2, 86940, Note_on_c, 0, 78, 80
2, 87000, Note_on_c, 0, 78, 0
2, 87000, Note_on_c, 0, 74, 80
2, 87060, Note_on_c, 0, 74, 0
2, 87060, Note_on_c, 0, 71, 80
2, 87120, Note_on_c, 0, 71, 0
2, 87120, Note_on_c, 0, 70, 52
2, 87180, Note_on_c, 0, 70, 0
2, 87180, Note_on_c, 0, 76, 52
2, 87240, Note_on_c, 0, 76, 0
2, 87240, Note_on_c, 0, 73, 52
2, 87300, Note_on_c, 0, 73, 0
2, 87300, Note_on_c, 0, 70, 52
2, 87360, Note_on_c, 0, 70, 0
2, 87360, Note_on_c, 0, 71, 56
2, 87420, Note_on_c, 0, 71, 0
2, 87420, Note_on_c, 0, 78, 56
2, 87480, Note_on_c, 0, 78, 0
2, 87480, Note_on_c, 0, 74, 56
2, 87540, Note_on_c, 0, 74, 0
2, 87540, Note_on_c, 0, 71, 56
2, 87600, Note_on_c, 0, 71, 0
2, 87600, Note_on_c, 0, 70, 60
2, 87660, Note_on_c, 0, 70, 0
2, 87660, Note_on_c, 0, 76, 60
2, 87720, Note_on_c, 0, 76, 0
2, 87720, Note_on_c, 0, 73, 60
2, 87780, Note_on_c, 0, 73, 0
2, 87780, Note_on_c, 0, 70, 60
2, 87840, Note_on_c, 0, 70, 0
2, 87840, Note_on_c, 0, 71, 64
2, 87900, Note_on_c, 0, 71, 0
2, 87900, Note_on_c, 0, 78, 64
2, 87960, Note_on_c, 0, 78, 0
2, 87960, Note_on_c, 0, 74, 64
2, 88020, Note_on_c, 0, 74, 0
2, 88020, Note_on_c, 0, 71, 64
2, 88080, Note_on_c, 0, 71, 0
2, 88080, Note_on_c, 0, 70, 68
2, 88140, Note_on_c, 0, 70, 0
2, 88140, Note_on_c, 0, 76, 68
2, 88200, Note_on_c, 0, 76, 0
2, 88200, Note_on_c, 0, 73, 68
2, 88260, Note_on_c, 0, 73, 0
2, 88260, Note_on_c, 0, 70, 68
2, 88320, Note_on_c, 0, 70, 0
2, 88320, Note_on_c, 0, 71, 72
2, 88380, Note_on_c, 0, 71, 0
2, 88380, Note_on_c, 0, 78, 72
2, 88440, Note_on_c, 0, 78, 0
2, 88440, Note_on_c, 0, 74, 72
2, 88500, Note_on_c, 0, 74, 0
2, 88500, Note_on_c, 0, 71, 72
2, 88560, Note_on_c, 0, 71, 0
2, 88560, Note_on_c, 0, 70, 76
2, 88620, Note_on_c, 0, 70, 0
2, 88620, Note_on_c, 0, 76, 76
2, 88680, Note_on_c, 0, 76, 0
2, 88680, Note_on_c, 0, 73, 76
2, 88740, Note_on_c, 0, 73, 0
2, 88740, Note_on_c, 0, 70, 76
2, 88800, Note_on_c, 0, 70, 0
2, 88800, Note_on_c, 0, 71, 80
2, 88920, Note_on_c, 0, 71, 0
2, 88920, Note_on_c, 0, 71, 80
2, 88920, Note_on_c, 0, 74, 80
2, 88968, Note_on_c, 0, 74, 0
2, 88968, Note_on_c, 0, 71, 0
2, 89040, Note_on_c, 0, 71, 80
2, 89040, Note_on_c, 0, 74, 80
2, 89088, Note_on_c, 0, 74, 0
2, 89088, Note_on_c, 0, 71, 0
2, 89160, Note_on_c, 0, 71, 80
2, 89160, Note_on_c, 0, 74, 80
2, 89208, Note_on_c, 0, 74, 0
2, 89208, Note_on_c, 0, 71, 0
2, 89280, Note_on_c, 0, 74, 80
2, 89280, Note_on_c, 0, 78, 80
2, 89400, Note_on_c, 0, 78, 0
2, 89400, Note_on_c, 0, 74, 0
2, 89400, Note_on_c, 0, 71, 80
2, 89400, Note_on_c, 0, 74, 80
2, 89448, Note_on_c, 0, 74, 0
2, 89448, Note_on_c, 0, 71, 0
2, 89520, Note_on_c, 0, 71, 80
2, 89520, Note_on_c, 0, 74, 80
2, 89568, Note_on_c, 0, 74, 0
2, 89568, Note_on_c, 0, 71, 0
2, 89640, Note_on_c, 0, 71, 80
2, 89640, Note_on_c, 0, 74, 80
2, 89688, Note_on_c, 0, 74, 0
2, 89688, Note_on_c, 0, 71, 0
2, 89760, Note_on_c, 0, 83, 80
2, 89760, Note_on_c, 0, 86, 80
2, 90000, Note_on_c, 0, 86, 0
2, 90000, Note_on_c, 0, 83, 0
2, 90600, Note_on_c, 0, 59, 96
2, 90600, Note_on_c, 0, 71, 96
2, 90648, Note_on_c, 0, 71, 0
2, 90648, Note_on_c, 0, 59, 0
2, 90720, Note_on_c, 0, 59, 96
2, 90720, Note_on_c, 0, 71, 96
2, 90768, Note_on_c, 0, 71, 0
2, 90768, Note_on_c, 0, 59, 0
2, 90840, Note_on_c, 0, 59, 96
2, 90840, Note_on_c, 0, 71, 96
2, 90888, Note_on_c, 0, 71, 0
2, 90888, Note_on_c, 0, 59, 0
2, 90960, Note_on_c, 0, 59, 96
2, 90960, Note_on_c, 0, 71, 96
2, 91008, Note_on_c, 0, 71, 0
2, 91008, Note_on_c, 0, 59, 0
2, 91080, Note_on_c, 0, 59, 96
2, 91080, Note_on_c, 0, 71, 96
2, 91128, Note_on_c, 0, 71, 0
2, 91128, Note_on_c, 0, 59, 0
2, 91200, Note_on_c, 0, 62, 96
2, 91200, Note_on_c, 0, 74, 96
2, 91320, Note_on_c, 0, 74, 0
2, 91320, Note_on_c, 0, 62, 0
2, 91320, Note_on_c, 0, 61, 96
2, 91320, Note_on_c, 0, 73, 96
2, 91368, Note_on_c, 0, 73, 0
2, 91368, Note_on_c, 0, 61, 0
2, 91440, Note_on_c, 0, 59, 96
2, 91440, Note_on_c, 0, 71, 96
2, 91488, Note_on_c, 0, 71, 0
2, 91488, Note_on_c, 0, 59, 0
2, 91560, Note_on_c, 0, 67, 96
2, 91560, Note_on_c, 0, 79, 96
2, 91608, Note_on_c, 0, 79, 0
2, 91608, Note_on_c, 0, 67, 0
2, 91680, Note_on_c, 0, 66, 96
2, 91680, Note_on_c, 0, 78, 96
2, 91800, Note_on_c, 0, 78, 0
2, 91800, Note_on_c, 0, 66, 0
2, 91800, Note_on_c, 0, 65, 96
2, 91800, Note_on_c, 0, 77, 96
2, 91848, Note_on_c, 0, 77, 0
2, 91848, Note_on_c, 0, 65, 0
2, 91920, Note_on_c, 0, 66, 96
2, 91920, Note_on_c, 0, 78, 96
2, 91968, Note_on_c, 0, 78, 0
2, 91968, Note_on_c, 0, 66, 0
2, 92040, Note_on_c, 0, 64, 96
2, 92040, Note_on_c, 0, 76, 96
2, 92088, Note_on_c, 0, 76, 0
2, 92088, Note_on_c, 0, 64, 0
2, 92160, Note_on_c, 0, 62, 96
2, 92160, Note_on_c, 0, 74, 96
2, 92280, Note_on_c, 0, 74, 0
2, 92280, Note_on_c, 0, 62, 0
2, 92280, Note_on_c, 0, 61, 96
2, 92280, Note_on_c, 0, 73, 96
2, 92328, Note_on_c, 0, 73, 0
2, 92328, Note_on_c, 0, 61, 0
2, 92400, Note_on_c, 0, 62, 96
2, 92400, Note_on_c, 0, 74, 96
2, 92448, Note_on_c, 0, 74, 0
2, 92448, Note_on_c, 0, 62, 0
2, 92520, Note_on_c, 0, 61, 96
2, 92520, Note_on_c, 0, 73, 96
2, 92568, Note_on_c, 0, 73, 0
2, 92568, Note_on_c, 0, 61, 0
2, 92640, Note_on_c, 0, 59, 96
2, 92640, Note_on_c, 0, 71, 96
2, 92760, Note_on_c, 0, 71, 0
2, 92760, Note_on_c, 0, 59, 0
2, 92760, Note_on_c, 0, 58, 96
2, 92760, Note_on_c, 0, 70, 96
2, 92808, Note_on_c, 0, 70, 0
2, 92808, Note_on_c, 0, 58, 0
2, 92880, Note_on_c, 0, 59, 96
2, 92880, Note_on_c, 0, 71, 96
2, 92928, Note_on_c, 0, 71, 0
2, 92928, Note_on_c, 0, 59, 0
2, 93000, Note_on_c, 0, 57, 96
2, 93000, Note_on_c, 0, 69, 96
2, 93048, Note_on_c, 0, 69, 0
2, 93048, Note_on_c, 0, 57, 0
2, 93120, Note_on_c, 0, 55, 96
2, 93120, Note_on_c, 0, 67, 96
2, 93360, Note_on_c, 0, 67, 0
2, 93360, Note_on_c, 0, 55, 0
2, 93360, End_track
3, 0, Start_track
3, 0, MIDI_port, 0
3, 0, Title_t, "by F.J. Haydn (3rd mvmt - finale.presto)"
3, 0, Program_c, 1, 0
3, 0, Control_c, 1, 7, 127
3, 0, Control_c, 1, 10, 56
3, 1320, Note_on_c, 1, 59, 72
3, 1440, Note_on_c, 1, 59, 0
3, 1440, Note_on_c, 1, 58, 72
3, 1680, Note_on_c, 1, 58, 0
3, 1800, Note_on_c, 1, 55, 72
3, 1920, Note_on_c, 1, 55, 0
3, 1920, Note_on_c, 1, 54, 72
3, 2160, Note_on_c, 1, 54, 0
3, 2280, Note_on_c, 1, 52, 72
3, 2400, Note_on_c, 1, 52, 0
3, 2400, Note_on_c, 1, 50, 72
3, 2640, Note_on_c, 1, 50, 0
3, 2760, Note_on_c, 1, 55, 72
3, 2808, Note_on_c, 1, 55, 0
3, 2880, Note_on_c, 1, 54, 72
3, 2928, Note_on_c, 1, 54, 0
3, 3000, Note_on_c, 1, 52, 72
3, 3048, Note_on_c, 1, 52, 0
3, 3120, Note_on_c, 1, 50, 72
3, 3168, Note_on_c, 1, 50, 0
3, 3240, Note_on_c, 1, 49, 72
3, 3288, Note_on_c, 1, 49, 0
3, 3360, Note_on_c, 1, 47, 72
3, 3600, Note_on_c, 1, 47, 0
3, 3720, Note_on_c, 1, 47, 72
3, 3768, Note_on_c, 1, 47, 0
3, 3840, Note_on_c, 1, 47, 72
3, 3888, Note_on_c, 1, 47, 0
3, 3960, Note_on_c, 1, 47, 72
3, 4008, Note_on_c, 1, 47, 0
3, 4080, Note_on_c, 1, 47, 72
3, 4128, Note_on_c, 1, 47, 0
3, 4200, Note_on_c, 1, 52, 72
3, 4248, Note_on_c, 1, 52, 0
3, 4320, Note_on_c, 1, 50, 80
3, 4440, Note_on_c, 1, 50, 0
3, 4440, Note_on_c, 1, 49, 72
3, 4488, Note_on_c, 1, 49, 0
3, 4560, Note_on_c, 1, 47, 72
3, 4608, Note_on_c, 1, 47, 0
3, 4680, Note_on_c, 1, 55, 72
3, 4728, Note_on_c, 1, 55, 0
3, 4800, Note_on_c, 1, 54, 72
3, 4848, Note_on_c, 1, 54, 0
3, 4920, Note_on_c, 1, 52, 72
3, 4968, Note_on_c, 1, 52, 0
3, 5040, Note_on_c, 1, 50, 72
3, 5088, Note_on_c, 1, 50, 0
3, 5160, Note_on_c, 1, 49, 72
3, 5208, Note_on_c, 1, 49, 0
3, 5280, Note_on_c, 1, 47, 72
3, 5520, Note_on_c, 1, 47, 0
3, 5760, Note_on_c, 1, 55, 72
3, 5760, Note_on_c, 1, 59, 72
3, 6240, Note_on_c, 1, 59, 0
3, 6240, Note_on_c, 1, 55, 0
3, 6240, Note_on_c, 1, 54, 72
3, 6240, Note_on_c, 1, 58, 72
3, 6480, Note_on_c, 1, 58, 0
3, 6480, Note_on_c, 1, 54, 0
3, 7560, Note_on_c, 1, 71, 80
3, 7560, Note_on_c, 1, 74, 80
3, 7608, Note_on_c, 1, 74, 0
3, 7608, Note_on_c, 1, 71, 0
3, 7680, Note_on_c, 1, 70, 64
3, 7680, Note_on_c, 1, 73, 64
3, 8040, Note_on_c, 1, 73, 0
3, 8040, Note_on_c, 1, 70, 0
3, 8040, Note_on_c, 1, 71, 64
3, 8040, Note_on_c, 1, 74, 64
3, 8088, Note_on_c, 1, 74, 0
3, 8088, Note_on_c, 1, 71, 0
3, 8160, Note_on_c, 1, 70, 56
3, 8160, Note_on_c, 1, 73, 56
3, 8520, Note_on_c, 1, 73, 0
3, 8520, Note_on_c, 1, 70, 0
3, 8520, Note_on_c, 1, 71, 64
3, 8520, Note_on_c, 1, 74, 64
3, 8568, Note_on_c, 1, 74, 0
3, 8568, Note_on_c, 1, 71, 0
3, 8640, Note_on_c, 1, 70, 48
3, 8640, Note_on_c, 1, 73, 48
3, 8880, Note_on_c, 1, 73, 0
3, 8880, Note_on_c, 1, 70, 0
3, 9960, Note_on_c, 1, 71, 64
3, 9960, Note_on_c, 1, 74, 64
3, 10008, Note_on_c, 1, 74, 0
3, 10008, Note_on_c, 1, 71, 0
3, 10080, Note_on_c, 1, 69, 64
3, 10080, Note_on_c, 1, 73, 64
3, 10440, Note_on_c, 1, 73, 0
3, 10440, Note_on_c, 1, 69, 0
3, 10440, Note_on_c, 1, 67, 64
3, 10440, Note_on_c, 1, 71, 64
3, 10488, Note_on_c, 1, 71, 0
3, 10488, Note_on_c, 1, 67, 0
3, 10560, Note_on_c, 1, 66, 64
3, 10560, Note_on_c, 1, 69, 64
3, 10800, Note_on_c, 1, 69, 0
3, 10800, Note_on_c, 1, 66, 0
3, 11640, Note_on_c, 1, 42, 64
3, 11640, Note_on_c, 1, 54, 64
3, 11688, Note_on_c, 1, 54, 0
3, 11688, Note_on_c, 1, 42, 0
3, 11760, Note_on_c, 1, 43, 64
3, 11760, Note_on_c, 1, 55, 64
3, 12000, Note_on_c, 1, 55, 0
3, 12000, Note_on_c, 1, 43, 0
3, 12120, Note_on_c, 1, 69, 64
3, 12168, Note_on_c, 1, 69, 0
3, 12240, Note_on_c, 1, 69, 64
3, 12480, Note_on_c, 1, 69, 0
3, 12600, Note_on_c, 1, 71, 64
3, 12720, Note_on_c, 1, 71, 0
3, 12720, Note_on_c, 1, 71, 64
3, 12960, Note_on_c, 1, 71, 0
3, 13560, Note_on_c, 1, 30, 64
3, 13560, Note_on_c, 1, 42, 64
3, 13608, Note_on_c, 1, 42, 0
3, 13608, Note_on_c, 1, 30, 0
3, 13680, Note_on_c, 1, 31, 64
3, 13680, Note_on_c, 1, 43, 64
3, 13920, Note_on_c, 1, 43, 0
3, 13920, Note_on_c, 1, 31, 0
3, 14040, Note_on_c, 1, 42, 64
3, 14040, Note_on_c, 1, 54, 64
3, 14088, Note_on_c, 1, 54, 0
3, 14088, Note_on_c, 1, 42, 0
3, 14160, Note_on_c, 1, 43, 64
3, 14160, Note_on_c, 1, 55, 64
3, 14520, Note_on_c, 1, 55, 0
3, 14520, Note_on_c, 1, 43, 0
3, 14520, Note_on_c, 1, 51, 64
3, 14520, Note_on_c, 1, 63, 64
3, 14640, Note_on_c, 1, 63, 0
3, 14640, Note_on_c, 1, 51, 0
3, 14640, Note_on_c, 1, 52, 64
3, 14640, Note_on_c, 1, 64, 64
3, 15000, Note_on_c, 1, 64, 0
3, 15000, Note_on_c, 1, 52, 0
3, 15000, Note_on_c, 1, 54, 64
3, 15000, Note_on_c, 1, 66, 64
3, 15120, Note_on_c, 1, 66, 0
3, 15120, Note_on_c, 1, 54, 0
3, 15120, Note_on_c, 1, 55, 64
3, 15120, Note_on_c, 1, 67, 64
3, 15480, Note_on_c, 1, 67, 0
3, 15480, Note_on_c, 1, 55, 0
3, 15480, Note_on_c, 1, 68, 64
3, 15600, Note_on_c, 1, 68, 0
3, 15600, Note_on_c, 1, 77, 64
3, 15840, Note_on_c, 1, 77, 0
3, 15960, Note_on_c, 1, 57, 64
3, 16080, Note_on_c, 1, 57, 0
3, 16080, Note_on_c, 1, 69, 64
3, 16320, Note_on_c, 1, 69, 0
3, 16440, Note_on_c, 1, 68, 64
3, 16560, Note_on_c, 1, 68, 0
3, 16560, Note_on_c, 1, 77, 64
3, 16800, Note_on_c, 1, 77, 0
3, 16920, Note_on_c, 1, 57, 64
3, 17040, Note_on_c, 1, 57, 0
3, 17040, Note_on_c, 1, 69, 64
3, 17280, Note_on_c, 1, 69, 0
3, 17400, Note_on_c, 1, 68, 64
3, 17520, Note_on_c, 1, 68, 0
3, 17520, Note_on_c, 1, 77, 64
3, 17760, Note_on_c, 1, 77, 0
3, 17880, Note_on_c, 1, 57, 64
3, 18000, Note_on_c, 1, 69, 64
3, 18480, Note_on_c, 1, 69, 0
3, 18480, Note_on_c, 1, 57, 0
3, 20040, Note_on_c, 1, 42, 88
3, 20040, Note_on_c, 1, 54, 88
3, 20088, Note_on_c, 1, 54, 0
3, 20088, Note_on_c, 1, 42, 0
3, 20160, Note_on_c, 1, 43, 88
3, 20160, Note_on_c, 1, 55, 88
3, 20208, Note_on_c, 1, 55, 0
3, 20208, Note_on_c, 1, 43, 0
3, 20280, Note_on_c, 1, 45, 88
3, 20280, Note_on_c, 1, 57, 88
3, 20328, Note_on_c, 1, 57, 0
3, 20328, Note_on_c, 1, 45, 0
3, 20400, Note_on_c, 1, 47, 88
3, 20400, Note_on_c, 1, 59, 88
3, 20448, Note_on_c, 1, 59, 0
3, 20448, Note_on_c, 1, 47, 0
3, 20520, Note_on_c, 1, 49, 88
3, 20520, Note_on_c, 1, 61, 88
3, 20568, Note_on_c, 1, 61, 0
3, 20568, Note_on_c, 1, 49, 0
3, 20640, Note_on_c, 1, 50, 88
3, 20640, Note_on_c, 1, 62, 88
3, 20880, Note_on_c, 1, 62, 0
3, 20880, Note_on_c, 1, 50, 0
3, 21000, Note_on_c, 1, 42, 88
3, 21000, Note_on_c, 1, 54, 88
3, 21048, Note_on_c, 1, 54, 0
3, 21048, Note_on_c, 1, 42, 0
3, 21120, Note_on_c, 1, 43, 88
3, 21120, Note_on_c, 1, 55, 88
3, 21168, Note_on_c, 1, 55, 0
3, 21168, Note_on_c, 1, 43, 0
3, 21240, Note_on_c, 1, 45, 88
3, 21240, Note_on_c, 1, 57, 88
3, 21288, Note_on_c, 1, 57, 0
3, 21288, Note_on_c, 1, 45, 0
3, 21360, Note_on_c, 1, 47, 88
3, 21360, Note_on_c, 1, 59, 88
3, 21408, Note_on_c, 1, 59, 0
3, 21408, Note_on_c, 1, 47, 0
3, 21480, Note_on_c, 1, 49, 88
3, 21480, Note_on_c, 1, 61, 88
3, 21528, Note_on_c, 1, 61, 0
3, 21528, Note_on_c, 1, 49, 0
3, 21600, Note_on_c, 1, 50, 88
3, 21600, Note_on_c, 1, 62, 88
3, 21840, Note_on_c, 1, 62, 0
3, 21840, Note_on_c, 1, 50, 0
3, 21960, Note_on_c, 1, 42, 88
3, 21960, Note_on_c, 1, 54, 88
3, 22080, Note_on_c, 1, 54, 0
3, 22080, Note_on_c, 1, 42, 0
3, 22080, Note_on_c, 1, 43, 88
3, 22080, Note_on_c, 1, 55, 88
3, 22128, Note_on_c, 1, 55, 0
3, 22128, Note_on_c, 1, 43, 0
3, 22200, Note_on_c, 1, 45, 82
3, 22200, Note_on_c, 1, 57, 82
3, 22248, Note_on_c, 1, 57, 0
3, 22248, Note_on_c, 1, 45, 0
3, 22320, Note_on_c, 1, 47, 76
3, 22320, Note_on_c, 1, 59, 76
3, 22368, Note_on_c, 1, 59, 0
3, 22368, Note_on_c, 1, 47, 0
3, 22440, Note_on_c, 1, 49, 70
3, 22440, Note_on_c, 1, 61, 70
3, 22488, Note_on_c, 1, 61, 0
3, 22488, Note_on_c, 1, 49, 0
3, 22560, Note_on_c, 1, 50, 64
3, 22560, Note_on_c, 1, 62, 64
3, 22800, Note_on_c, 1, 62, 0
3, 22800, Note_on_c, 1, 50, 0
3, 23040, Note_on_c, 1, 54, 88
3, 23040, Note_on_c, 1, 57, 88
3, 23040, Note_on_c, 1, 62, 88
3, 23280, Note_on_c, 1, 62, 0
3, 23280, Note_on_c, 1, 57, 0
3, 23280, Note_on_c, 1, 54, 0
3, 23520, Note_on_c, 1, 55, 88
3, 23520, Note_on_c, 1, 62, 88
3, 23760, Note_on_c, 1, 62, 0
3, 23760, Note_on_c, 1, 55, 0
3, 24480, Note_on_c, 1, 57, 88
3, 24480, Note_on_c, 1, 62, 88
3, 24480, Note_on_c, 1, 66, 88
3, 24528, Note_on_c, 1, 66, 0
3, 24528, Note_on_c, 1, 62, 0
3, 24528, Note_on_c, 1, 57, 0
3, 24600, Note_on_c, 1, 57, 88
3, 24600, Note_on_c, 1, 62, 88
3, 24600, Note_on_c, 1, 66, 88
3, 24648, Note_on_c, 1, 66, 0
3, 24648, Note_on_c, 1, 62, 0
3, 24648, Note_on_c, 1, 57, 0
3, 24720, Note_on_c, 1, 57, 88
3, 24720, Note_on_c, 1, 62, 88
3, 24720, Note_on_c, 1, 66, 88
3, 24768, Note_on_c, 1, 66, 0
3, 24768, Note_on_c, 1, 62, 0
3, 24768, Note_on_c, 1, 57, 0
3, 24840, Note_on_c, 1, 57, 88
3, 24840, Note_on_c, 1, 62, 88
3, 24840, Note_on_c, 1, 66, 88
3, 24960, Note_on_c, 1, 66, 0
3, 24960, Note_on_c, 1, 62, 0
3, 24960, Note_on_c, 1, 57, 0
3, 24960, Note_on_c, 1, 57, 88
3, 24960, Note_on_c, 1, 61, 88
3, 24960, Note_on_c, 1, 67, 88
3, 25008, Note_on_c, 1, 67, 0
3, 25008, Note_on_c, 1, 61, 0
3, 25008, Note_on_c, 1, 57, 0
3, 25080, Note_on_c, 1, 57, 88
3, 25080, Note_on_c, 1, 61, 88
3, 25080, Note_on_c, 1, 67, 88
3, 25128, Note_on_c, 1, 67, 0
3, 25128, Note_on_c, 1, 61, 0
3, 25128, Note_on_c, 1, 57, 0
3, 25200, Note_on_c, 1, 57, 88
3, 25200, Note_on_c, 1, 61, 88
3, 25200, Note_on_c, 1, 67, 88
3, 25248, Note_on_c, 1, 67, 0
3, 25248, Note_on_c, 1, 61, 0
3, 25248, Note_on_c, 1, 57, 0
3, 25320, Note_on_c, 1, 57, 88
3, 25320, Note_on_c, 1, 61, 88
3, 25320, Note_on_c, 1, 67, 88
3, 25368, Note_on_c, 1, 67, 0
3, 25368, Note_on_c, 1, 61, 0
3, 25368, Note_on_c, 1, 57, 0
3, 25440, Note_on_c, 1, 62, 88
3, 25440, Note_on_c, 1, 66, 88
3, 25680, Note_on_c, 1, 66, 0
3, 25680, Note_on_c, 1, 62, 0
3, 25800, Note_on_c, 1, 42, 88
3, 25800, Note_on_c, 1, 54, 88
3, 25920, Note_on_c, 1, 54, 0
3, 25920, Note_on_c, 1, 42, 0
3, 25920, Note_on_c, 1, 43, 88
3, 25920, Note_on_c, 1, 55, 88
3, 25968, Note_on_c, 1, 55, 0
3, 25968, Note_on_c, 1, 43, 0
3, 26040, Note_on_c, 1, 45, 88
3, 26040, Note_on_c, 1, 57, 88
3, 26088, Note_on_c, 1, 57, 0
3, 26088, Note_on_c, 1, 45, 0
3, 26160, Note_on_c, 1, 47, 88
3, 26160, Note_on_c, 1, 59, 88
3, 26208, Note_on_c, 1, 59, 0
3, 26208, Note_on_c, 1, 47, 0
3, 26280, Note_on_c, 1, 49, 88
3, 26280, Note_on_c, 1, 61, 88
3, 26328, Note_on_c, 1, 61, 0
3, 26328, Note_on_c, 1, 49, 0
3, 26400, Note_on_c, 1, 50, 88
3, 26400, Note_on_c, 1, 62, 88
3, 26640, Note_on_c, 1, 62, 0
3, 26640, Note_on_c, 1, 50, 0
3, 26760, Note_on_c, 1, 30, 88
3, 26760, Note_on_c, 1, 42, 88
3, 26880, Note_on_c, 1, 42, 0
3, 26880, Note_on_c, 1, 30, 0
3, 26880, Note_on_c, 1, 31, 88
3, 26880, Note_on_c, 1, 43, 88
3, 26928, Note_on_c, 1, 43, 0
3, 26928, Note_on_c, 1, 31, 0
3, 27000, Note_on_c, 1, 33, 88
3, 27000, Note_on_c, 1, 45, 88
3, 27048, Note_on_c, 1, 45, 0
3, 27048, Note_on_c, 1, 33, 0
3, 27120, Note_on_c, 1, 35, 88
3, 27120, Note_on_c, 1, 47, 88
3, 27168, Note_on_c, 1, 47, 0
3, 27168, Note_on_c, 1, 35, 0
3, 27240, Note_on_c, 1, 37, 88
3, 27240, Note_on_c, 1, 49, 88
3, 27288, Note_on_c, 1, 49, 0
3, 27288, Note_on_c, 1, 37, 0
3, 27360, Note_on_c, 1, 38, 88
3, 27360, Note_on_c, 1, 50, 88
3, 27600, Note_on_c, 1, 50, 0
3, 27600, Note_on_c, 1, 38, 0
3, 27720, Note_on_c, 1, 42, 88
3, 27720, Note_on_c, 1, 54, 88
3, 27840, Note_on_c, 1, 54, 0
3, 27840, Note_on_c, 1, 42, 0
3, 27840, Note_on_c, 1, 43, 88
3, 27840, Note_on_c, 1, 55, 88
3, 27888, Note_on_c, 1, 55, 0
3, 27888, Note_on_c, 1, 43, 0
3, 27960, Note_on_c, 1, 45, 88
3, 27960, Note_on_c, 1, 57, 88
3, 28008, Note_on_c, 1, 57, 0
3, 28008, Note_on_c, 1, 45, 0
3, 28080, Note_on_c, 1, 47, 88
3, 28080, Note_on_c, 1, 59, 88
3, 28128, Note_on_c, 1, 59, 0
3, 28128, Note_on_c, 1, 47, 0
3, 28200, Note_on_c, 1, 49, 88
3, 28200, Note_on_c, 1, 61, 88
3, 28248, Note_on_c, 1, 61, 0
3, 28248, Note_on_c, 1, 49, 0
3, 28320, Note_on_c, 1, 50, 88
3, 28320, Note_on_c, 1, 62, 88
3, 28560, Note_on_c, 1, 62, 0
3, 28560, Note_on_c, 1, 50, 0
3, 28800, Note_on_c, 1, 54, 88
3, 28800, Note_on_c, 1, 57, 88
3, 28800, Note_on_c, 1, 62, 88
3, 29040, Note_on_c, 1, 62, 0
3, 29040, Note_on_c, 1, 57, 0
3, 29040, Note_on_c, 1, 54, 0
3, 29280, Note_on_c, 1, 55, 88
3, 29280, Note_on_c, 1, 62, 88
3, 29520, Note_on_c, 1, 62, 0
3, 29520, Note_on_c, 1, 55, 0
3, 30240, Note_on_c, 1, 57, 88
3, 30240, Note_on_c, 1, 62, 88
3, 30240, Note_on_c, 1, 66, 88
3, 30288, Note_on_c, 1, 66, 0
3, 30288, Note_on_c, 1, 62, 0
3, 30288, Note_on_c, 1, 57, 0
3, 30360, Note_on_c, 1, 57, 88
3, 30360, Note_on_c, 1, 62, 88
3, 30360, Note_on_c, 1, 66, 88
3, 30408, Note_on_c, 1, 66, 0
3, 30408, Note_on_c, 1, 62, 0
3, 30408, Note_on_c, 1, 57, 0
3, 30480, Note_on_c, 1, 57, 88
3, 30480, Note_on_c, 1, 62, 88
3, 30480, Note_on_c, 1, 66, 88
3, 30528, Note_on_c, 1, 66, 0
3, 30528, Note_on_c, 1, 62, 0
3, 30528, Note_on_c, 1, 57, 0
3, 30600, Note_on_c, 1, 57, 88
3, 30600, Note_on_c, 1, 62, 88
3, 30600, Note_on_c, 1, 66, 88
3, 30648, Note_on_c, 1, 66, 0
3, 30648, Note_on_c, 1, 62, 0
3, 30648, Note_on_c, 1, 57, 0
3, 30720, Note_on_c, 1, 57, 88
3, 30720, Note_on_c, 1, 61, 88
3, 30720, Note_on_c, 1, 67, 88
3, 30768, Note_on_c, 1, 67, 0
3, 30768, Note_on_c, 1, 61, 0
3, 30768, Note_on_c, 1, 57, 0
3, 30840, Note_on_c, 1, 57, 88
3, 30840, Note_on_c, 1, 61, 88
3, 30840, Note_on_c, 1, 67, 88
3, 30888, Note_on_c, 1, 67, 0
3, 30888, Note_on_c, 1, 61, 0
3, 30888, Note_on_c, 1, 57, 0
3, 30960, Note_on_c, 1, 57, 88
3, 30960, Note_on_c, 1, 61, 88
3, 30960, Note_on_c, 1, 67, 88
3, 31008, Note_on_c, 1, 67, 0
3, 31008, Note_on_c, 1, 61, 0
3, 31008, Note_on_c, 1, 57, 0
3, 31080, Note_on_c, 1, 57, 88
3, 31080, Note_on_c, 1, 61, 88
3, 31080, Note_on_c, 1, 67, 88
3, 31128, Note_on_c, 1, 67, 0
3, 31128, Note_on_c, 1, 61, 0
3, 31128, Note_on_c, 1, 57, 0
3, 31200, Note_on_c, 1, 62, 88
3, 31200, Note_on_c, 1, 66, 88
3, 31440, Note_on_c, 1, 66, 0
3, 31440, Note_on_c, 1, 62, 0
3, 31440, Note_on_c, 1, 57, 56
3, 31440, Note_on_c, 1, 67, 56
3, 31680, Note_on_c, 1, 67, 0
3, 31680, Note_on_c, 1, 57, 0
3, 31680, Note_on_c, 1, 62, 60
3, 31680, Note_on_c, 1, 66, 60
3, 31920, Note_on_c, 1, 66, 0
3, 31920, Note_on_c, 1, 62, 0
3, 31920, Note_on_c, 1, 57, 64
3, 31920, Note_on_c, 1, 67, 64
3, 32160, Note_on_c, 1, 67, 0
3, 32160, Note_on_c, 1, 57, 0
3, 32160, Note_on_c, 1, 62, 68
3, 32160, Note_on_c, 1, 66, 68
3, 32400, Note_on_c, 1, 66, 0
3, 32400, Note_on_c, 1, 62, 0
3, 32400, Note_on_c, 1, 57, 72
3, 32400, Note_on_c, 1, 67, 72
3, 32640, Note_on_c, 1, 67, 0
3, 32640, Note_on_c, 1, 57, 0
3, 32640, Note_on_c, 1, 62, 80
3, 32640, Note_on_c, 1, 66, 80
3, 32880, Note_on_c, 1, 66, 0
3, 32880, Note_on_c, 1, 62, 0
3, 32880, Note_on_c, 1, 57, 88
3, 32880, Note_on_c, 1, 67, 88
3, 33120, Note_on_c, 1, 67, 0
3, 33120, Note_on_c, 1, 57, 0
3, 33120, Note_on_c, 1, 62, 88
3, 33120, Note_on_c, 1, 66, 88
3, 33360, Note_on_c, 1, 66, 0
3, 33360, Note_on_c, 1, 62, 0
3, 35880, Note_on_c, 1, 47, 80
3, 36000, Note_on_c, 1, 47, 0
3, 36000, Note_on_c, 1, 47, 80
3, 36048, Note_on_c, 1, 47, 0
3, 36120, Note_on_c, 1, 47, 80
3, 36168, Note_on_c, 1, 47, 0
3, 36240, Note_on_c, 1, 47, 80
3, 36288, Note_on_c, 1, 47, 0
3, 36360, Note_on_c, 1, 47, 80
3, 36408, Note_on_c, 1, 47, 0
3, 36480, Note_on_c, 1, 55, 80
3, 36600, Note_on_c, 1, 55, 0
3, 36600, Note_on_c, 1, 54, 80
3, 36648, Note_on_c, 1, 54, 0
3, 36720, Note_on_c, 1, 52, 80
3, 36768, Note_on_c, 1, 52, 0
3, 36840, Note_on_c, 1, 60, 80
3, 36888, Note_on_c, 1, 60, 0
3, 36960, Note_on_c, 1, 59, 80
3, 37008, Note_on_c, 1, 59, 0
3, 37080, Note_on_c, 1, 57, 80
3, 37128, Note_on_c, 1, 57, 0
3, 37200, Note_on_c, 1, 55, 80
3, 37248, Note_on_c, 1, 55, 0
3, 37320, Note_on_c, 1, 54, 80
3, 37368, Note_on_c, 1, 54, 0
3, 37440, Note_on_c, 1, 52, 80
3, 37680, Note_on_c, 1, 52, 0
3, 37800, Note_on_c, 1, 64, 80
3, 37848, Note_on_c, 1, 64, 0
3, 37920, Note_on_c, 1, 64, 80
3, 37968, Note_on_c, 1, 64, 0
3, 38040, Note_on_c, 1, 64, 80
3, 38088, Note_on_c, 1, 64, 0
3, 38160, Note_on_c, 1, 64, 80
3, 38208, Note_on_c, 1, 64, 0
3, 38280, Note_on_c, 1, 64, 80
3, 38328, Note_on_c, 1, 64, 0
3, 38400, Note_on_c, 1, 67, 80
3, 38520, Note_on_c, 1, 67, 0
3, 38520, Note_on_c, 1, 66, 80
3, 38640, Note_on_c, 1, 66, 0
3, 38640, Note_on_c, 1, 64, 80
3, 38688, Note_on_c, 1, 64, 0
3, 38760, Note_on_c, 1, 72, 80
3, 38808, Note_on_c, 1, 72, 0
3, 38880, Note_on_c, 1, 71, 80
3, 39000, Note_on_c, 1, 71, 0
3, 39000, Note_on_c, 1, 69, 80
3, 39120, Note_on_c, 1, 69, 0
3, 39120, Note_on_c, 1, 67, 80
3, 39240, Note_on_c, 1, 67, 0
3, 39240, Note_on_c, 1, 66, 80
3, 39360, Note_on_c, 1, 66, 0
3, 39360, Note_on_c, 1, 64, 80
3, 39480, Note_on_c, 1, 64, 0
3, 39480, Note_on_c, 1, 71, 80
3, 39528, Note_on_c, 1, 71, 0
3, 39600, Note_on_c, 1, 71, 80
3, 39648, Note_on_c, 1, 71, 0
3, 39720, Note_on_c, 1, 71, 80
3, 39768, Note_on_c, 1, 71, 0
3, 39840, Note_on_c, 1, 64, 80
3, 39840, Note_on_c, 1, 70, 80
3, 40320, Note_on_c, 1, 70, 0
3, 40320, Note_on_c, 1, 64, 0
3, 40320, Note_on_c, 1, 63, 80
3, 40440, Note_on_c, 1, 63, 0
3, 40440, Note_on_c, 1, 69, 80
3, 40488, Note_on_c, 1, 69, 0
3, 40560, Note_on_c, 1, 69, 80
3, 40608, Note_on_c, 1, 69, 0
3, 40680, Note_on_c, 1, 69, 80
3, 40728, Note_on_c, 1, 69, 0
3, 40800, Note_on_c, 1, 62, 80
3, 40800, Note_on_c, 1, 68, 80
3, 41280, Note_on_c, 1, 68, 0
3, 41280, Note_on_c, 1, 62, 0
3, 41280, Note_on_c, 1, 61, 80
3, 41400, Note_on_c, 1, 61, 0
3, 41400, Note_on_c, 1, 67, 80
3, 41448, Note_on_c, 1, 67, 0
3, 41520, Note_on_c, 1, 67, 80
3, 41568, Note_on_c, 1, 67, 0
3, 41640, Note_on_c, 1, 67, 80
3, 41688, Note_on_c, 1, 67, 0
3, 41760, Note_on_c, 1, 60, 80
3, 41760, Note_on_c, 1, 66, 80
3, 42240, Note_on_c, 1, 66, 0
3, 42240, Note_on_c, 1, 60, 0
3, 42240, Note_on_c, 1, 59, 80
3, 42240, Note_on_c, 1, 67, 80
3, 42720, Note_on_c, 1, 67, 0
3, 42720, Note_on_c, 1, 59, 0
3, 42720, Note_on_c, 1, 57, 80
3, 42720, Note_on_c, 1, 69, 80
3, 43200, Note_on_c, 1, 69, 0
3, 43200, Note_on_c, 1, 57, 0
3, 43200, Note_on_c, 1, 55, 80
3, 43200, Note_on_c, 1, 67, 80
3, 43440, Note_on_c, 1, 67, 0
3, 43440, Note_on_c, 1, 55, 0
3, 44520, Note_on_c, 1, 67, 80
3, 44520, Note_on_c, 1, 71, 80
3, 44568, Note_on_c, 1, 71, 0
3, 44568, Note_on_c, 1, 67, 0
3, 44640, Note_on_c, 1, 66, 86
3, 44640, Note_on_c, 1, 69, 86
3, 45000, Note_on_c, 1, 69, 0
3, 45000, Note_on_c, 1, 66, 0
3, 45000, Note_on_c, 1, 67, 68
3, 45000, Note_on_c, 1, 71, 68
3, 45048, Note_on_c, 1, 71, 0
3, 45048, Note_on_c, 1, 67, 0
3, 45120, Note_on_c, 1, 69, 72
3, 45120, Note_on_c, 1, 66, 72
3, 45480, Note_on_c, 1, 66, 0
3, 45480, Note_on_c, 1, 69, 0
3, 45480, Note_on_c, 1, 71, 52
3, 45480, Note_on_c, 1, 67, 52
3, 45528, Note_on_c, 1, 67, 0
3, 45528, Note_on_c, 1, 71, 0
3, 45600, Note_on_c, 1, 66, 56
3, 45600, Note_on_c, 1, 69, 56
3, 45840, Note_on_c, 1, 69, 0
3, 45840, Note_on_c, 1, 66, 0
3, 46920, Note_on_c, 1, 54, 80
3, 46968, Note_on_c, 1, 54, 0
3, 47040, Note_on_c, 1, 54, 80
3, 47088, Note_on_c, 1, 54, 0
3, 47160, Note_on_c, 1, 54, 80
3, 47208, Note_on_c, 1, 54, 0
3, 47280, Note_on_c, 1, 54, 80
3, 47328, Note_on_c, 1, 54, 0
3, 47400, Note_on_c, 1, 54, 80
3, 47448, Note_on_c, 1, 54, 0
3, 47520, Note_on_c, 1, 57, 80
3, 47640, Note_on_c, 1, 57, 0
3, 47640, Note_on_c, 1, 56, 80
3, 47688, Note_on_c, 1, 56, 0
3, 47760, Note_on_c, 1, 54, 80
3, 47808, Note_on_c, 1, 54, 0
3, 47880, Note_on_c, 1, 62, 80
3, 47928, Note_on_c, 1, 62, 0
3, 48000, Note_on_c, 1, 61, 80
3, 48048, Note_on_c, 1, 61, 0
3, 48120, Note_on_c, 1, 59, 80
3, 48168, Note_on_c, 1, 59, 0
3, 48240, Note_on_c, 1, 57, 80
3, 48288, Note_on_c, 1, 57, 0
3, 48360, Note_on_c, 1, 56, 80
3, 48408, Note_on_c, 1, 56, 0
3, 48480, Note_on_c, 1, 54, 80
3, 48840, Note_on_c, 1, 54, 0
3, 48840, Note_on_c, 1, 61, 80
3, 48888, Note_on_c, 1, 61, 0
3, 48960, Note_on_c, 1, 53, 80
3, 48960, Note_on_c, 1, 61, 80
3, 49008, Note_on_c, 1, 61, 0
3, 49080, Note_on_c, 1, 53, 0
3, 49080, Note_on_c, 1, 61, 80
3, 49128, Note_on_c, 1, 61, 0
3, 49200, Note_on_c, 1, 61, 80
3, 49248, Note_on_c, 1, 61, 0
3, 49320, Note_on_c, 1, 61, 80
3, 49368, Note_on_c, 1, 61, 0
3, 49440, Note_on_c, 1, 54, 80
3, 49680, Note_on_c, 1, 54, 0
3, 49800, Note_on_c, 1, 74, 80
3, 49848, Note_on_c, 1, 74, 0
3, 49920, Note_on_c, 1, 73, 80
3, 49968, Note_on_c, 1, 73, 0
3, 50040, Note_on_c, 1, 71, 80
3, 50088, Note_on_c, 1, 71, 0
3, 50160, Note_on_c, 1, 69, 80
3, 50208, Note_on_c, 1, 69, 0
3, 50280, Note_on_c, 1, 68, 80
3, 50328, Note_on_c, 1, 68, 0
3, 50400, Note_on_c, 1, 66, 80
3, 50760, Note_on_c, 1, 66, 0
3, 50760, Note_on_c, 1, 73, 80
3, 50808, Note_on_c, 1, 73, 0
3, 50880, Note_on_c, 1, 65, 80
3, 50880, Note_on_c, 1, 73, 80
3, 50928, Note_on_c, 1, 73, 0
3, 51000, Note_on_c, 1, 65, 0
3, 51000, Note_on_c, 1, 73, 80
3, 51048, Note_on_c, 1, 73, 0
3, 51120, Note_on_c, 1, 73, 80
3, 51168, Note_on_c, 1, 73, 0
3, 51240, Note_on_c, 1, 73, 80
3, 51288, Note_on_c, 1, 73, 0
3, 51360, Note_on_c, 1, 66, 80
3, 51360, Note_on_c, 1, 73, 80
3, 51600, Note_on_c, 1, 73, 0
3, 51600, Note_on_c, 1, 66, 0
3, 51720, Note_on_c, 1, 54, 80
3, 51720, Note_on_c, 1, 66, 80
3, 51840, Note_on_c, 1, 66, 0
3, 51840, Note_on_c, 1, 54, 0
3, 51840, Note_on_c, 1, 52, 80
3, 51840, Note_on_c, 1, 64, 80
3, 51888, Note_on_c, 1, 64, 0
3, 51888, Note_on_c, 1, 52, 0
3, 51960, Note_on_c, 1, 50, 80
3, 51960, Note_on_c, 1, 62, 80
3, 52008, Note_on_c, 1, 62, 0
3, 52008, Note_on_c, 1, 50, 0
3, 52080, Note_on_c, 1, 49, 80
3, 52080, Note_on_c, 1, 61, 80
3, 52128, Note_on_c, 1, 61, 0
3, 52128, Note_on_c, 1, 49, 0
3, 52200, Note_on_c, 1, 47, 80
3, 52200, Note_on_c, 1, 59, 80
3, 52248, Note_on_c, 1, 59, 0
3, 52248, Note_on_c, 1, 47, 0
3, 52320, Note_on_c, 1, 45, 80
3, 52320, Note_on_c, 1, 57, 80
3, 52560, Note_on_c, 1, 57, 0
3, 52560, Note_on_c, 1, 45, 0
3, 52680, Note_on_c, 1, 50, 80
3, 52680, Note_on_c, 1, 62, 80
3, 52800, Note_on_c, 1, 62, 0
3, 52800, Note_on_c, 1, 50, 0
3, 52800, Note_on_c, 1, 49, 80
3, 52800, Note_on_c, 1, 61, 80
3, 52848, Note_on_c, 1, 61, 0
3, 52848, Note_on_c, 1, 49, 0
3, 52920, Note_on_c, 1, 47, 80
3, 52920, Note_on_c, 1, 59, 80
3, 52968, Note_on_c, 1, 59, 0
3, 52968, Note_on_c, 1, 47, 0
3, 53040, Note_on_c, 1, 45, 80
3, 53040, Note_on_c, 1, 57, 80
3, 53088, Note_on_c, 1, 57, 0
3, 53088, Note_on_c, 1, 45, 0
3, 53160, Note_on_c, 1, 44, 80
3, 53160, Note_on_c, 1, 56, 80
3, 53208, Note_on_c, 1, 56, 0
3, 53208, Note_on_c, 1, 44, 0
3, 53280, Note_on_c, 1, 42, 80
3, 53280, Note_on_c, 1, 54, 80
3, 53520, Note_on_c, 1, 54, 0
3, 53520, Note_on_c, 1, 42, 0
3, 54240, Note_on_c, 1, 66, 80
3, 54240, Note_on_c, 1, 68, 80
3, 54288, Note_on_c, 1, 68, 0
3, 54288, Note_on_c, 1, 66, 0
3, 54360, Note_on_c, 1, 66, 80
3, 54360, Note_on_c, 1, 68, 80
3, 54408, Note_on_c, 1, 68, 0
3, 54408, Note_on_c, 1, 66, 0
3, 54480, Note_on_c, 1, 66, 80
3, 54480, Note_on_c, 1, 68, 80
3, 54528, Note_on_c, 1, 68, 0
3, 54528, Note_on_c, 1, 66, 0
3, 54600, Note_on_c, 1, 66, 80
3, 54600, Note_on_c, 1, 68, 80
3, 54648, Note_on_c, 1, 68, 0
3, 54648, Note_on_c, 1, 66, 0
3, 54720, Note_on_c, 1, 66, 80
3, 54720, Note_on_c, 1, 68, 80
3, 54960, Note_on_c, 1, 68, 0
3, 54960, Note_on_c, 1, 66, 0
3, 55200, Note_on_c, 1, 64, 80
3, 55200, Note_on_c, 1, 68, 80
3, 55248, Note_on_c, 1, 68, 0
3, 55248, Note_on_c, 1, 64, 0
3, 55320, Note_on_c, 1, 64, 80
3, 55320, Note_on_c, 1, 68, 80
3, 55368, Note_on_c, 1, 68, 0
3, 55368, Note_on_c, 1, 64, 0
3, 55440, Note_on_c, 1, 64, 80
3, 55440, Note_on_c, 1, 68, 80
3, 55488, Note_on_c, 1, 68, 0
3, 55488, Note_on_c, 1, 64, 0
3, 55560, Note_on_c, 1, 64, 80
3, 55560, Note_on_c, 1, 68, 80
3, 55608, Note_on_c, 1, 68, 0
3, 55608, Note_on_c, 1, 64, 0
3, 55680, Note_on_c, 1, 64, 80
3, 55680, Note_on_c, 1, 68, 80
3, 55920, Note_on_c, 1, 68, 0
3, 55920, Note_on_c, 1, 64, 0
3, 56160, Note_on_c, 1, 64, 80
3, 56160, Note_on_c, 1, 66, 80
3, 56208, Note_on_c, 1, 66, 0
3, 56208, Note_on_c, 1, 64, 0
3, 56280, Note_on_c, 1, 64, 80
3, 56280, Note_on_c, 1, 66, 80
3, 56328, Note_on_c, 1, 66, 0
3, 56328, Note_on_c, 1, 64, 0
3, 56400, Note_on_c, 1, 64, 80
3, 56400, Note_on_c, 1, 66, 80
3, 56448, Note_on_c, 1, 66, 0
3, 56448, Note_on_c, 1, 64, 0
3, 56520, Note_on_c, 1, 64, 80
3, 56520, Note_on_c, 1, 66, 80
3, 56568, Note_on_c, 1, 66, 0
3, 56568, Note_on_c, 1, 64, 0
3, 56640, Note_on_c, 1, 64, 80
3, 56640, Note_on_c, 1, 66, 80
3, 56880, Note_on_c, 1, 66, 0
3, 56880, Note_on_c, 1, 64, 0
3, 57120, Note_on_c, 1, 62, 80
3, 57120, Note_on_c, 1, 66, 80
3, 57168, Note_on_c, 1, 66, 0
3, 57168, Note_on_c, 1, 62, 0
3, 57240, Note_on_c, 1, 62, 80
3, 57240, Note_on_c, 1, 66, 80
3, 57288, Note_on_c, 1, 66, 0
3, 57288, Note_on_c, 1, 62, 0
3, 57360, Note_on_c, 1, 62, 80
3, 57360, Note_on_c, 1, 66, 80
3, 57408, Note_on_c, 1, 66, 0
3, 57408, Note_on_c, 1, 62, 0
3, 57480, Note_on_c, 1, 62, 80
3, 57480, Note_on_c, 1, 66, 80
3, 57528, Note_on_c, 1, 66, 0
3, 57528, Note_on_c, 1, 62, 0
3, 57600, Note_on_c, 1, 62, 80
3, 57600, Note_on_c, 1, 66, 80
3, 57840, Note_on_c, 1, 66, 0
3, 57840, Note_on_c, 1, 62, 0
3, 58080, Note_on_c, 1, 58, 80
3, 58080, Note_on_c, 1, 66, 80
3, 58128, Note_on_c, 1, 66, 0
3, 58128, Note_on_c, 1, 58, 0
3, 58200, Note_on_c, 1, 58, 80
3, 58200, Note_on_c, 1, 66, 80
3, 58248, Note_on_c, 1, 66, 0
3, 58248, Note_on_c, 1, 58, 0
3, 58320, Note_on_c, 1, 58, 80
3, 58320, Note_on_c, 1, 66, 80
3, 58368, Note_on_c, 1, 66, 0
3, 58368, Note_on_c, 1, 58, 0
3, 58440, Note_on_c, 1, 58, 80
3, 58440, Note_on_c, 1, 66, 80
3, 58488, Note_on_c, 1, 66, 0
3, 58488, Note_on_c, 1, 58, 0
3, 58560, Note_on_c, 1, 58, 80
3, 58560, Note_on_c, 1, 66, 80
3, 58800, Note_on_c, 1, 66, 0
3, 58800, Note_on_c, 1, 58, 0
3, 59040, Note_on_c, 1, 59, 80
3, 59040, Note_on_c, 1, 66, 80
3, 59280, Note_on_c, 1, 66, 0
3, 59280, Note_on_c, 1, 59, 0
3, 59520, Note_on_c, 1, 55, 80
3, 59520, Note_on_c, 1, 65, 80
3, 59760, Note_on_c, 1, 65, 0
3, 59760, Note_on_c, 1, 55, 0
3, 60000, Note_on_c, 1, 54, 96
3, 60000, Note_on_c, 1, 66, 96
3, 60240, Note_on_c, 1, 66, 0
3, 60240, Note_on_c, 1, 54, 0
3, 62280, Note_on_c, 1, 59, 72
3, 62400, Note_on_c, 1, 59, 0
3, 62400, Note_on_c, 1, 58, 72
3, 62640, Note_on_c, 1, 58, 0
3, 62760, Note_on_c, 1, 55, 72
3, 62880, Note_on_c, 1, 55, 0
3, 62880, Note_on_c, 1, 54, 72
3, 63120, Note_on_c, 1, 54, 0
3, 63240, Note_on_c, 1, 52, 72
3, 63360, Note_on_c, 1, 52, 0
3, 63360, Note_on_c, 1, 50, 72
3, 63600, Note_on_c, 1, 50, 0
3, 63720, Note_on_c, 1, 55, 72
3, 63768, Note_on_c, 1, 55, 0
3, 63840, Note_on_c, 1, 54, 72
3, 63888, Note_on_c, 1, 54, 0
3, 63960, Note_on_c, 1, 52, 72
3, 64008, Note_on_c, 1, 52, 0
3, 64080, Note_on_c, 1, 50, 72
3, 64128, Note_on_c, 1, 50, 0
3, 64200, Note_on_c, 1, 49, 72
3, 64248, Note_on_c, 1, 49, 0
3, 64320, Note_on_c, 1, 47, 72
3, 64560, Note_on_c, 1, 47, 0
3, 64680, Note_on_c, 1, 47, 72
3, 64728, Note_on_c, 1, 47, 0
3, 64800, Note_on_c, 1, 47, 72
3, 64848, Note_on_c, 1, 47, 0
3, 64920, Note_on_c, 1, 47, 72
3, 64968, Note_on_c, 1, 47, 0
3, 65040, Note_on_c, 1, 47, 72
3, 65088, Note_on_c, 1, 47, 0
3, 65160, Note_on_c, 1, 52, 72
3, 65208, Note_on_c, 1, 52, 0
3, 65280, Note_on_c, 1, 50, 80
3, 65400, Note_on_c, 1, 50, 0
3, 65400, Note_on_c, 1, 49, 72
3, 65448, Note_on_c, 1, 49, 0
3, 65520, Note_on_c, 1, 47, 72
3, 65568, Note_on_c, 1, 47, 0
3, 65640, Note_on_c, 1, 55, 72
3, 65688, Note_on_c, 1, 55, 0
3, 65760, Note_on_c, 1, 54, 72
3, 65808, Note_on_c, 1, 54, 0
3, 65880, Note_on_c, 1, 52, 72
3, 65928, Note_on_c, 1, 52, 0
3, 66000, Note_on_c, 1, 50, 72
3, 66048, Note_on_c, 1, 50, 0
3, 66120, Note_on_c, 1, 49, 72
3, 66168, Note_on_c, 1, 49, 0
3, 66240, Note_on_c, 1, 47, 72
3, 66480, Note_on_c, 1, 47, 0
3, 66720, Note_on_c, 1, 59, 72
3, 66720, Note_on_c, 1, 55, 72
3, 67200, Note_on_c, 1, 55, 0
3, 67200, Note_on_c, 1, 59, 0
3, 67200, Note_on_c, 1, 58, 72
3, 67200, Note_on_c, 1, 54, 72
3, 67440, Note_on_c, 1, 54, 0
3, 67440, Note_on_c, 1, 58, 0
3, 68160, Note_on_c, 1, 54, 64
3, 68400, Note_on_c, 1, 54, 0
3, 69120, Note_on_c, 1, 54, 48
3, 69360, Note_on_c, 1, 54, 0
3, 70200, Note_on_c, 1, 51, 80
3, 70200, Note_on_c, 1, 63, 80
3, 70248, Note_on_c, 1, 63, 0
3, 70248, Note_on_c, 1, 51, 0
3, 70320, Note_on_c, 1, 52, 80
3, 70320, Note_on_c, 1, 64, 80
3, 70560, Note_on_c, 1, 64, 0
3, 70560, Note_on_c, 1, 52, 0
3, 70680, Note_on_c, 1, 66, 64
3, 70728, Note_on_c, 1, 66, 0
3, 70800, Note_on_c, 1, 66, 64
3, 70896, Note_on_c, 1, 66, 0
3, 71160, Note_on_c, 1, 67, 64
3, 71208, Note_on_c, 1, 67, 0
3, 71280, Note_on_c, 1, 67, 64
3, 71376, Note_on_c, 1, 67, 0
3, 72120, Note_on_c, 1, 39, 80
3, 72120, Note_on_c, 1, 51, 80
3, 72240, Note_on_c, 1, 51, 0
3, 72240, Note_on_c, 1, 39, 0
3, 72240, Note_on_c, 1, 40, 80
3, 72240, Note_on_c, 1, 52, 80
3, 72600, Note_on_c, 1, 52, 0
3, 72600, Note_on_c, 1, 40, 0
3, 72600, Note_on_c, 1, 38, 80
3, 72600, Note_on_c, 1, 50, 80
3, 72720, Note_on_c, 1, 50, 0
3, 72720, Note_on_c, 1, 38, 0
3, 72720, Note_on_c, 1, 37, 80
3, 72720, Note_on_c, 1, 49, 80
3, 73080, Note_on_c, 1, 49, 0
3, 73080, Note_on_c, 1, 37, 0
3, 73080, Note_on_c, 1, 35, 80
3, 73080, Note_on_c, 1, 47, 80
3, 73200, Note_on_c, 1, 47, 0
3, 73200, Note_on_c, 1, 35, 0
3, 73200, Note_on_c, 1, 34, 80
3, 73200, Note_on_c, 1, 46, 80
3, 73560, Note_on_c, 1, 46, 0
3, 73560, Note_on_c, 1, 34, 0
3, 73560, Note_on_c, 1, 32, 80
3, 73560, Note_on_c, 1, 44, 80
3, 73680, Note_on_c, 1, 44, 0
3, 73680, Note_on_c, 1, 32, 0
3, 73680, Note_on_c, 1, 30, 80
3, 73680, Note_on_c, 1, 42, 80
3, 74145, Note_on_c, 1, 42, 0
3, 74145, Note_on_c, 1, 30, 0
3, 75720, Note_on_c, 1, 59, 80
3, 75840, Note_on_c, 1, 59, 0
3, 75840, Note_on_c, 1, 57, 80
3, 75888, Note_on_c, 1, 57, 0
3, 75960, Note_on_c, 1, 55, 80
3, 76008, Note_on_c, 1, 55, 0
3, 76080, Note_on_c, 1, 54, 80
3, 76128, Note_on_c, 1, 54, 0
3, 76200, Note_on_c, 1, 52, 80
3, 76248, Note_on_c, 1, 52, 0
3, 76320, Note_on_c, 1, 50, 80
3, 76560, Note_on_c, 1, 50, 0
3, 76680, Note_on_c, 1, 55, 80
3, 76800, Note_on_c, 1, 55, 0
3, 76800, Note_on_c, 1, 54, 80
3, 76848, Note_on_c, 1, 54, 0
3, 76920, Note_on_c, 1, 52, 80
3, 76968, Note_on_c, 1, 52, 0
3, 77040, Note_on_c, 1, 50, 80
3, 77088, Note_on_c, 1, 50, 0
3, 77160, Note_on_c, 1, 49, 80
3, 77208, Note_on_c, 1, 49, 0
3, 77280, Note_on_c, 1, 47, 80
3, 77520, Note_on_c, 1, 47, 0
3, 77640, Note_on_c, 1, 52, 80
3, 77760, Note_on_c, 1, 52, 0
3, 77760, Note_on_c, 1, 50, 80
3, 77808, Note_on_c, 1, 50, 0
3, 77880, Note_on_c, 1, 49, 80
3, 77928, Note_on_c, 1, 49, 0
3, 78000, Note_on_c, 1, 47, 80
3, 78048, Note_on_c, 1, 47, 0
3, 78120, Note_on_c, 1, 45, 80
3, 78168, Note_on_c, 1, 45, 0
3, 78240, Note_on_c, 1, 43, 80
3, 78480, Note_on_c, 1, 43, 0
3, 78720, Note_on_c, 1, 55, 80
3, 78720, Note_on_c, 1, 65, 80
3, 79200, Note_on_c, 1, 65, 0
3, 79200, Note_on_c, 1, 55, 0
3, 79200, Note_on_c, 1, 54, 80
3, 79200, Note_on_c, 1, 66, 80
3, 79440, Note_on_c, 1, 66, 0
3, 79440, Note_on_c, 1, 54, 0
3, 79440, Note_on_c, 1, 70, 80
3, 79680, Note_on_c, 1, 70, 0
3, 79680, Note_on_c, 1, 71, 80
3, 79920, Note_on_c, 1, 71, 0
3, 79920, Note_on_c, 1, 64, 80
3, 80160, Note_on_c, 1, 64, 0
3, 80160, Note_on_c, 1, 62, 80
3, 80400, Note_on_c, 1, 62, 0
3, 80400, Note_on_c, 1, 64, 80
3, 80640, Note_on_c, 1, 64, 0
3, 80640, Note_on_c, 1, 66, 80
3, 80880, Note_on_c, 1, 66, 0
3, 80880, Note_on_c, 1, 54, 80
3, 81120, Note_on_c, 1, 54, 0
3, 81120, Note_on_c, 1, 59, 80
3, 81360, Note_on_c, 1, 59, 0
3, 81480, Note_on_c, 1, 47, 80
3, 81480, Note_on_c, 1, 59, 80
3, 81600, Note_on_c, 1, 59, 0
3, 81600, Note_on_c, 1, 47, 0
3, 81600, Note_on_c, 1, 45, 80
3, 81600, Note_on_c, 1, 57, 80
3, 81648, Note_on_c, 1, 57, 0
3, 81648, Note_on_c, 1, 45, 0
3, 81720, Note_on_c, 1, 43, 80
3, 81720, Note_on_c, 1, 55, 80
3, 81768, Note_on_c, 1, 55, 0
3, 81768, Note_on_c, 1, 43, 0
3, 81840, Note_on_c, 1, 42, 80
3, 81840, Note_on_c, 1, 54, 80
3, 81888, Note_on_c, 1, 54, 0
3, 81888, Note_on_c, 1, 42, 0
3, 81960, Note_on_c, 1, 40, 80
3, 81960, Note_on_c, 1, 52, 80
3, 82008, Note_on_c, 1, 52, 0
3, 82008, Note_on_c, 1, 40, 0
3, 82080, Note_on_c, 1, 38, 80
3, 82080, Note_on_c, 1, 50, 80
3, 82320, Note_on_c, 1, 50, 0
3, 82320, Note_on_c, 1, 38, 0
3, 82440, Note_on_c, 1, 43, 80
3, 82440, Note_on_c, 1, 55, 80
3, 82560, Note_on_c, 1, 55, 0
3, 82560, Note_on_c, 1, 43, 0
3, 82560, Note_on_c, 1, 42, 80
3, 82560, Note_on_c, 1, 54, 80
3, 82608, Note_on_c, 1, 54, 0
3, 82608, Note_on_c, 1, 42, 0
3, 82680, Note_on_c, 1, 40, 80
3, 82680, Note_on_c, 1, 52, 80
3, 82728, Note_on_c, 1, 52, 0
3, 82728, Note_on_c, 1, 40, 0
3, 82800, Note_on_c, 1, 38, 80
3, 82800, Note_on_c, 1, 50, 80
3, 82848, Note_on_c, 1, 50, 0
3, 82848, Note_on_c, 1, 38, 0
3, 82920, Note_on_c, 1, 37, 80
3, 82920, Note_on_c, 1, 49, 80
3, 82968, Note_on_c, 1, 49, 0
3, 82968, Note_on_c, 1, 37, 0
3, 83040, Note_on_c, 1, 35, 80
3, 83040, Note_on_c, 1, 47, 80
3, 83280, Note_on_c, 1, 47, 0
3, 83280, Note_on_c, 1, 35, 0
3, 83400, Note_on_c, 1, 40, 80
3, 83400, Note_on_c, 1, 52, 80
3, 83520, Note_on_c, 1, 52, 0
3, 83520, Note_on_c, 1, 40, 0
3, 83520, Note_on_c, 1, 38, 80
3, 83520, Note_on_c, 1, 50, 80
3, 83568, Note_on_c, 1, 50, 0
3, 83568, Note_on_c, 1, 38, 0
3, 83640, Note_on_c, 1, 37, 80
3, 83640, Note_on_c, 1, 49, 80
3, 83688, Note_on_c, 1, 49, 0
3, 83688, Note_on_c, 1, 37, 0
3, 83760, Note_on_c, 1, 35, 80
3, 83760, Note_on_c, 1, 47, 80
3, 83808, Note_on_c, 1, 47, 0
3, 83808, Note_on_c, 1, 35, 0
3, 83880, Note_on_c, 1, 33, 80
3, 83880, Note_on_c, 1, 45, 80
3, 83928, Note_on_c, 1, 45, 0
3, 83928, Note_on_c, 1, 33, 0
3, 84000, Note_on_c, 1, 31, 80
3, 84000, Note_on_c, 1, 43, 80
3, 84240, Note_on_c, 1, 43, 0
3, 84240, Note_on_c, 1, 31, 0
3, 84480, Note_on_c, 1, 55, 80
3, 84480, Note_on_c, 1, 65, 80
3, 84960, Note_on_c, 1, 65, 0
3, 84960, Note_on_c, 1, 55, 0
3, 84960, Note_on_c, 1, 54, 80
3, 84960, Note_on_c, 1, 66, 80
3, 85200, Note_on_c, 1, 66, 0
3, 85200, Note_on_c, 1, 54, 0
3, 85200, Note_on_c, 1, 70, 80
3, 85440, Note_on_c, 1, 70, 0
3, 85440, Note_on_c, 1, 71, 80
3, 85680, Note_on_c, 1, 71, 0
3, 85680, Note_on_c, 1, 64, 80
3, 85920, Note_on_c, 1, 64, 0
3, 85920, Note_on_c, 1, 62, 80
3, 86160, Note_on_c, 1, 62, 0
3, 86160, Note_on_c, 1, 64, 80
3, 86400, Note_on_c, 1, 64, 0
3, 86400, Note_on_c, 1, 66, 80
3, 86640, Note_on_c, 1, 66, 0
3, 86640, Note_on_c, 1, 54, 80
3, 86880, Note_on_c, 1, 54, 0
3, 86880, Note_on_c, 1, 59, 80
3, 86880, Note_on_c, 1, 62, 80
3, 87120, Note_on_c, 1, 62, 0
3, 87120, Note_on_c, 1, 59, 0
3, 87120, Note_on_c, 1, 54, 52
3, 87120, Note_on_c, 1, 64, 52
3, 87360, Note_on_c, 1, 64, 0
3, 87360, Note_on_c, 1, 54, 0
3, 87360, Note_on_c, 1, 59, 56
3, 87360, Note_on_c, 1, 62, 56
3, 87600, Note_on_c, 1, 62, 0
3, 87600, Note_on_c, 1, 59, 0
3, 87600, Note_on_c, 1, 54, 60
3, 87600, Note_on_c, 1, 64, 60
3, 87840, Note_on_c, 1, 64, 0
3, 87840, Note_on_c, 1, 54, 0
3, 87840, Note_on_c, 1, 59, 64
3, 87840, Note_on_c, 1, 62, 64
3, 88080, Note_on_c, 1, 62, 0
3, 88080, Note_on_c, 1, 59, 0
3, 88080, Note_on_c, 1, 54, 68
3, 88080, Note_on_c, 1, 64, 68
3, 88320, Note_on_c, 1, 64, 0
3, 88320, Note_on_c, 1, 54, 0
3, 88320, Note_on_c, 1, 59, 72
3, 88320, Note_on_c, 1, 62, 72
3, 88560, Note_on_c, 1, 62, 0
3, 88560, Note_on_c, 1, 59, 0
3, 88560, Note_on_c, 1, 54, 76
3, 88560, Note_on_c, 1, 64, 76
3, 88800, Note_on_c, 1, 64, 0
3, 88800, Note_on_c, 1, 54, 0
3, 88800, Note_on_c, 1, 59, 80
3, 88800, Note_on_c, 1, 62, 80
3, 89040, Note_on_c, 1, 62, 0
3, 89040, Note_on_c, 1, 59, 0
3, 90600, Note_on_c, 1, 47, 96
3, 90648, Note_on_c, 1, 47, 0
3, 90720, Note_on_c, 1, 47, 96
3, 90768, Note_on_c, 1, 47, 0
3, 90840, Note_on_c, 1, 47, 96
3, 90888, Note_on_c, 1, 47, 0
3, 90960, Note_on_c, 1, 47, 96
3, 91008, Note_on_c, 1, 47, 0
3, 91080, Note_on_c, 1, 47, 96
3, 91128, Note_on_c, 1, 47, 0
3, 91200, Note_on_c, 1, 50, 96
3, 91320, Note_on_c, 1, 50, 0
3, 91320, Note_on_c, 1, 49, 96
3, 91368, Note_on_c, 1, 49, 0
3, 91440, Note_on_c, 1, 47, 96
3, 91488, Note_on_c, 1, 47, 0
3, 91560, Note_on_c, 1, 55, 96
3, 91608, Note_on_c, 1, 55, 0
3, 91680, Note_on_c, 1, 54, 96
3, 91800, Note_on_c, 1, 54, 0
3, 91800, Note_on_c, 1, 53, 96
3, 91848, Note_on_c, 1, 53, 0
3, 91920, Note_on_c, 1, 54, 96
3, 91968, Note_on_c, 1, 54, 0
3, 92040, Note_on_c, 1, 52, 96
3, 92088, Note_on_c, 1, 52, 0
3, 92160, Note_on_c, 1, 50, 96
3, 92280, Note_on_c, 1, 50, 0
3, 92280, Note_on_c, 1, 49, 96
3, 92328, Note_on_c, 1, 49, 0
3, 92400, Note_on_c, 1, 50, 96
3, 92448, Note_on_c, 1, 50, 0
3, 92520, Note_on_c, 1, 49, 96
3, 92568, Note_on_c, 1, 49, 0
3, 92640, Note_on_c, 1, 47, 96
3, 92760, Note_on_c, 1, 47, 0
3, 92760, Note_on_c, 1, 46, 96
3, 92808, Note_on_c, 1, 46, 0
3, 92880, Note_on_c, 1, 47, 96
3, 92928, Note_on_c, 1, 47, 0
3, 93000, Note_on_c, 1, 45, 96
3, 93048, Note_on_c, 1, 45, 0
3, 93120, Note_on_c, 1, 43, 96
3, 93360, Note_on_c, 1, 43, 0
3, 93600, Note_on_c, 1, 42, 112
3, 93600, Note_on_c, 1, 49, 112
3, 93600, Note_on_c, 1, 52, 112
3, 93600, Note_on_c, 1, 58, 112
3, 93840, Note_on_c, 1, 58, 0
3, 93840, Note_on_c, 1, 42, 0
3, 93840, Note_on_c, 1, 49, 0
3, 93840, Note_on_c, 1, 52, 0
3, 94080, Note_on_c, 1, 35, 127
3, 94080, Note_on_c, 1, 47, 127
3, 94080, Note_on_c, 1, 50, 127
3, 94080, Note_on_c, 1, 54, 127
3, 94080, Note_on_c, 1, 59, 127
3, 94320, Note_on_c, 1, 59, 0
3, 94320, Note_on_c, 1, 50, 0
3, 94320, Note_on_c, 1, 35, 0
3, 94320, Note_on_c, 1, 47, 0
3, 94320, Note_on_c, 1, 54, 0
3, 94320, End_track
4, 0, Start_track
4, 0, MIDI_port, 0
4, 0, Title_t, "MIDI by Marty Weimer 7/6/96"
4, 0, End_track
5, 0, Start_track
5, 0, MIDI_port, 0
5, 0, Title_t, "weimermt@libby.org  Eureka, MT  USA"
5, 0, End_track
0, 0, End_of_file
