0, 0, Header, 1, 5, 240
1, 0, Start_track
1, 0, Time_signature, 6, 3, 12, 8
1, 0, Key_signature, 0, "major"
1, 0, Tempo, 600000
1, 15840, Tempo, 594059
1, 16200, Tempo, 612245
1, 16560, Tempo, 631579
1, 16920, Tempo, 645161
1, 17280, Tempo, 666667
1, 18000, Time_signature, 3, 3, 12, 8
1, 18000, Tempo, 600000
1, 18360, Time_signature, 6, 3, 12, 8
1, 28080, Tempo, 612245
1, 28440, Tempo, 600000
1, 28800, Tempo, 645161
1, 29160, Tempo, 600000
1, 29880, Time_signature, 3, 3, 12, 8
1, 30240, Time_signature, 6, 3, 12, 8
1, 69120, Tempo, 594059
1, 69480, Tempo, 625000
1, 69840, Tempo, 645161
1, 70200, Tempo, 674157
1, 70560, Time_signature, 3, 3, 12, 8
1, 70560, Tempo, 594059
1, 70920, Time_signature, 6, 3, 12, 8
1, 70920, Tempo, 600000
1, 81000, Tempo, 594059
1, 81360, Tempo, 625000
1, 81720, Tempo, 645161
1, 82080, Tempo, 674157
1, 82440, Time_signature, 3, 3, 12, 8
1, 82440, Tempo, 594059
1, 82800, Time_signature, 6, 3, 12, 8
1, 82800, Tempo, 600000
1, 125280, Time_signature, 3, 3, 12, 8
1, 125640, Time_signature, 6, 3, 12, 8
1, 139320, Time_signature, 3, 3, 12, 8
1, 139680, Time_signature, 6, 3, 12, 8
1, 139680, End_track
2, 0, Start_track
2, 0, MIDI_port, 0
2, 0, Title_t, "Piano Sonata No.40 in G (1784)"
2, 0, Program_c, 0, 0
2, 0, Control_c, 0, 7, 127
2, 0, Control_c, 0, 10, 72
2, 600, Note_on_c, 0, 67, 64
2, 672, Note_on_c, 0, 67, 0
2, 720, Note_on_c, 0, 67, 64
2, 900, Note_on_c, 0, 67, 0
2, 900, Note_on_c, 0, 71, 64
2, 960, Note_on_c, 0, 71, 0
2, 960, Note_on_c, 0, 69, 64
2, 1080, Note_on_c, 0, 69, 0
2, 1080, Note_on_c, 0, 62, 64
2, 1200, Note_on_c, 0, 62, 0
2, 1200, Note_on_c, 0, 64, 64
2, 1320, Note_on_c, 0, 64, 0
2, 1320, Note_on_c, 0, 67, 64
2, 1350, Note_on_c, 0, 67, 0
2, 1350, Note_on_c, 0, 66, 64
2, 1380, Note_on_c, 0, 66, 0
2, 1380, Note_on_c, 0, 64, 64
2, 1410, Note_on_c, 0, 64, 0
2, 1410, Note_on_c, 0, 66, 64
2, 1440, Note_on_c, 0, 66, 0
2, 1440, Note_on_c, 0, 67, 64
2, 1476, Note_on_c, 0, 67, 0
2, 1560, Note_on_c, 0, 67, 64
2, 1596, Note_on_c, 0, 67, 0
2, 1680, Note_on_c, 0, 67, 64
2, 1740, Note_on_c, 0, 67, 0
2, 1800, Note_on_c, 0, 67, 64
2, 2040, Note_on_c, 0, 67, 0
2, 2040, Note_on_c, 0, 62, 64
2, 2040, Note_on_c, 0, 69, 64
2, 2130, Note_on_c, 0, 69, 0
2, 2130, Note_on_c, 0, 72, 64
2, 2160, Note_on_c, 0, 72, 0
2, 2160, Note_on_c, 0, 62, 0
2, 2160, Note_on_c, 0, 62, 64
2, 2160, Note_on_c, 0, 71, 64
2, 2280, Note_on_c, 0, 71, 0
2, 2280, Note_on_c, 0, 69, 64
2, 2400, Note_on_c, 0, 69, 0
2, 2400, Note_on_c, 0, 71, 64
2, 2436, Note_on_c, 0, 71, 0
2, 2436, Note_on_c, 0, 62, 0
2, 2520, Note_on_c, 0, 62, 80
2, 2520, Note_on_c, 0, 66, 80
2, 2520, Note_on_c, 0, 74, 80
2, 2640, Note_on_c, 0, 74, 0
2, 2640, Note_on_c, 0, 72, 64
2, 2760, Note_on_c, 0, 72, 0
2, 2760, Note_on_c, 0, 66, 0
2, 2760, Note_on_c, 0, 67, 64
2, 2760, Note_on_c, 0, 71, 64
2, 2880, Note_on_c, 0, 71, 0
2, 2880, Note_on_c, 0, 67, 0
2, 2880, Note_on_c, 0, 62, 0
2, 2880, Note_on_c, 0, 67, 64
2, 2880, Note_on_c, 0, 71, 64
2, 3000, Note_on_c, 0, 71, 0
2, 3000, Note_on_c, 0, 67, 0
2, 3000, Note_on_c, 0, 66, 64
2, 3000, Note_on_c, 0, 69, 64
2, 3036, Note_on_c, 0, 69, 0
2, 3036, Note_on_c, 0, 66, 0
2, 3120, Note_on_c, 0, 66, 64
2, 3120, Note_on_c, 0, 69, 64
2, 3156, Note_on_c, 0, 69, 0
2, 3156, Note_on_c, 0, 66, 0
2, 3240, Note_on_c, 0, 66, 64
2, 3240, Note_on_c, 0, 69, 64
2, 3480, Note_on_c, 0, 69, 0
2, 3480, Note_on_c, 0, 66, 0
2, 3480, Note_on_c, 0, 68, 80
2, 3480, Note_on_c, 0, 71, 80
2, 3552, Note_on_c, 0, 71, 0
2, 3552, Note_on_c, 0, 68, 0
2, 3600, Note_on_c, 0, 69, 64
2, 3600, Note_on_c, 0, 72, 64
2, 3720, Note_on_c, 0, 72, 0
2, 3720, Note_on_c, 0, 69, 0
2, 3720, Note_on_c, 0, 71, 64
2, 3720, Note_on_c, 0, 74, 64
2, 3840, Note_on_c, 0, 74, 0
2, 3840, Note_on_c, 0, 71, 0
2, 3840, Note_on_c, 0, 72, 64
2, 3840, Note_on_c, 0, 76, 64
2, 3876, Note_on_c, 0, 76, 0
2, 3876, Note_on_c, 0, 72, 0
2, 3960, Note_on_c, 0, 72, 64
2, 3960, Note_on_c, 0, 76, 64
2, 4200, Note_on_c, 0, 76, 0
2, 4200, Note_on_c, 0, 72, 0
2, 4200, Note_on_c, 0, 69, 64
2, 4200, Note_on_c, 0, 74, 64
2, 4230, Note_on_c, 0, 74, 0
2, 4230, Note_on_c, 0, 72, 64
2, 4260, Note_on_c, 0, 72, 0
2, 4260, Note_on_c, 0, 71, 64
2, 4290, Note_on_c, 0, 71, 0
2, 4290, Note_on_c, 0, 72, 64
2, 4320, Note_on_c, 0, 72, 0
2, 4320, Note_on_c, 0, 69, 0
2, 4320, Note_on_c, 0, 67, 64
2, 4320, Note_on_c, 0, 71, 64
2, 4440, Note_on_c, 0, 71, 0
2, 4440, Note_on_c, 0, 67, 0
2, 4440, Note_on_c, 0, 69, 64
2, 4440, Note_on_c, 0, 72, 64
2, 4560, Note_on_c, 0, 72, 0
2, 4560, Note_on_c, 0, 69, 0
2, 4560, Note_on_c, 0, 71, 64
2, 4560, Note_on_c, 0, 74, 64
2, 4680, Note_on_c, 0, 74, 0
2, 4680, Note_on_c, 0, 71, 0
2, 4680, Note_on_c, 0, 67, 64
2, 4680, Note_on_c, 0, 72, 64
2, 4800, Note_on_c, 0, 72, 0
2, 4800, Note_on_c, 0, 74, 64
2, 4920, Note_on_c, 0, 74, 0
2, 4920, Note_on_c, 0, 76, 64
2, 5040, Note_on_c, 0, 76, 0
2, 5040, Note_on_c, 0, 74, 64
2, 5100, Note_on_c, 0, 74, 0
2, 5100, Note_on_c, 0, 67, 0
2, 5160, Note_on_c, 0, 79, 64
2, 5196, Note_on_c, 0, 79, 0
2, 5280, Note_on_c, 0, 79, 64
2, 5340, Note_on_c, 0, 79, 0
2, 5400, Note_on_c, 0, 81, 80
2, 5460, Note_on_c, 0, 81, 0
2, 5460, Note_on_c, 0, 79, 64
2, 5520, Note_on_c, 0, 79, 0
2, 5520, Note_on_c, 0, 78, 64
2, 5580, Note_on_c, 0, 78, 0
2, 5580, Note_on_c, 0, 76, 64
2, 5640, Note_on_c, 0, 76, 0
2, 5640, Note_on_c, 0, 74, 64
2, 5700, Note_on_c, 0, 74, 0
2, 5700, Note_on_c, 0, 73, 64
2, 5760, Note_on_c, 0, 73, 0
2, 5760, Note_on_c, 0, 76, 64
2, 5880, Note_on_c, 0, 76, 0
2, 5880, Note_on_c, 0, 74, 64
2, 5916, Note_on_c, 0, 74, 0
2, 6000, Note_on_c, 0, 74, 64
2, 6036, Note_on_c, 0, 74, 0
2, 6120, Note_on_c, 0, 74, 64
2, 6300, Note_on_c, 0, 74, 0
2, 6300, Note_on_c, 0, 71, 64
2, 6360, Note_on_c, 0, 71, 0
2, 6360, Note_on_c, 0, 72, 64
2, 6420, Note_on_c, 0, 72, 0
2, 6420, Note_on_c, 0, 69, 64
2, 6480, Note_on_c, 0, 69, 0
2, 6480, Note_on_c, 0, 67, 64
2, 6660, Note_on_c, 0, 67, 0
2, 6660, Note_on_c, 0, 71, 64
2, 6720, Note_on_c, 0, 71, 0
2, 6720, Note_on_c, 0, 69, 64
2, 6840, Note_on_c, 0, 69, 0
2, 6840, Note_on_c, 0, 62, 64
2, 6960, Note_on_c, 0, 62, 0
2, 6960, Note_on_c, 0, 64, 64
2, 7080, Note_on_c, 0, 64, 0
2, 7080, Note_on_c, 0, 67, 64
2, 7110, Note_on_c, 0, 67, 0
2, 7110, Note_on_c, 0, 66, 64
2, 7140, Note_on_c, 0, 66, 0
2, 7140, Note_on_c, 0, 64, 64
2, 7170, Note_on_c, 0, 64, 0
2, 7170, Note_on_c, 0, 66, 64
2, 7200, Note_on_c, 0, 66, 0
2, 7200, Note_on_c, 0, 67, 64
2, 7236, Note_on_c, 0, 67, 0
2, 7320, Note_on_c, 0, 67, 64
2, 7356, Note_on_c, 0, 67, 0
2, 7440, Note_on_c, 0, 67, 64
2, 7512, Note_on_c, 0, 67, 0
2, 7560, Note_on_c, 0, 67, 64
2, 7800, Note_on_c, 0, 67, 0
2, 7800, Note_on_c, 0, 69, 64
2, 7800, Note_on_c, 0, 62, 64
2, 7890, Note_on_c, 0, 62, 0
2, 7890, Note_on_c, 0, 69, 0
2, 7890, Note_on_c, 0, 72, 64
2, 7920, Note_on_c, 0, 72, 0
2, 7920, Note_on_c, 0, 71, 64
2, 7920, Note_on_c, 0, 62, 64
2, 8040, Note_on_c, 0, 71, 0
2, 8040, Note_on_c, 0, 69, 64
2, 8160, Note_on_c, 0, 69, 0
2, 8160, Note_on_c, 0, 71, 64
2, 8196, Note_on_c, 0, 71, 0
2, 8196, Note_on_c, 0, 62, 0
2, 8280, Note_on_c, 0, 74, 80
2, 8280, Note_on_c, 0, 66, 80
2, 8280, Note_on_c, 0, 62, 80
2, 8400, Note_on_c, 0, 74, 0
2, 8400, Note_on_c, 0, 72, 64
2, 8520, Note_on_c, 0, 72, 0
2, 8520, Note_on_c, 0, 66, 0
2, 8520, Note_on_c, 0, 71, 64
2, 8520, Note_on_c, 0, 67, 64
2, 8640, Note_on_c, 0, 67, 0
2, 8640, Note_on_c, 0, 71, 0
2, 8640, Note_on_c, 0, 62, 0
2, 8640, Note_on_c, 0, 71, 64
2, 8640, Note_on_c, 0, 67, 64
2, 8760, Note_on_c, 0, 67, 0
2, 8760, Note_on_c, 0, 71, 0
2, 8760, Note_on_c, 0, 69, 64
2, 8760, Note_on_c, 0, 66, 64
2, 8796, Note_on_c, 0, 66, 0
2, 8796, Note_on_c, 0, 69, 0
2, 8880, Note_on_c, 0, 69, 64
2, 8880, Note_on_c, 0, 66, 64
2, 8916, Note_on_c, 0, 66, 0
2, 8916, Note_on_c, 0, 69, 0
2, 9000, Note_on_c, 0, 69, 64
2, 9000, Note_on_c, 0, 66, 64
2, 9240, Note_on_c, 0, 66, 0
2, 9240, Note_on_c, 0, 69, 0
2, 9240, Note_on_c, 0, 71, 80
2, 9240, Note_on_c, 0, 68, 80
2, 9312, Note_on_c, 0, 68, 0
2, 9312, Note_on_c, 0, 71, 0
2, 9360, Note_on_c, 0, 72, 64
2, 9360, Note_on_c, 0, 69, 64
2, 9480, Note_on_c, 0, 69, 0
2, 9480, Note_on_c, 0, 72, 0
2, 9480, Note_on_c, 0, 74, 64
2, 9480, Note_on_c, 0, 71, 64
2, 9600, Note_on_c, 0, 71, 0
2, 9600, Note_on_c, 0, 74, 0
2, 9600, Note_on_c, 0, 76, 64
2, 9600, Note_on_c, 0, 72, 64
2, 9636, Note_on_c, 0, 72, 0
2, 9636, Note_on_c, 0, 76, 0
2, 9720, Note_on_c, 0, 76, 64
2, 9720, Note_on_c, 0, 72, 64
2, 9960, Note_on_c, 0, 72, 0
2, 9960, Note_on_c, 0, 76, 0
2, 9960, Note_on_c, 0, 74, 64
2, 9960, Note_on_c, 0, 69, 64
2, 9990, Note_on_c, 0, 74, 0
2, 9990, Note_on_c, 0, 72, 64
2, 10020, Note_on_c, 0, 72, 0
2, 10020, Note_on_c, 0, 71, 64
2, 10050, Note_on_c, 0, 71, 0
2, 10050, Note_on_c, 0, 72, 64
2, 10080, Note_on_c, 0, 72, 0
2, 10080, Note_on_c, 0, 69, 0
2, 10080, Note_on_c, 0, 71, 64
2, 10080, Note_on_c, 0, 67, 64
2, 10200, Note_on_c, 0, 67, 0
2, 10200, Note_on_c, 0, 71, 0
2, 10200, Note_on_c, 0, 72, 64
2, 10200, Note_on_c, 0, 69, 64
2, 10320, Note_on_c, 0, 69, 0
2, 10320, Note_on_c, 0, 72, 0
2, 10320, Note_on_c, 0, 74, 64
2, 10320, Note_on_c, 0, 71, 64
2, 10440, Note_on_c, 0, 71, 0
2, 10440, Note_on_c, 0, 74, 0
2, 10440, Note_on_c, 0, 72, 64
2, 10440, Note_on_c, 0, 67, 64
2, 10560, Note_on_c, 0, 72, 0
2, 10560, Note_on_c, 0, 74, 64
2, 10680, Note_on_c, 0, 74, 0
2, 10680, Note_on_c, 0, 76, 64
2, 10800, Note_on_c, 0, 76, 0
2, 10800, Note_on_c, 0, 74, 64
2, 10872, Note_on_c, 0, 74, 0
2, 10872, Note_on_c, 0, 67, 0
2, 10920, Note_on_c, 0, 79, 64
2, 10956, Note_on_c, 0, 79, 0
2, 11040, Note_on_c, 0, 79, 64
2, 11100, Note_on_c, 0, 79, 0
2, 11160, Note_on_c, 0, 81, 80
2, 11220, Note_on_c, 0, 81, 0
2, 11220, Note_on_c, 0, 79, 64
2, 11280, Note_on_c, 0, 79, 0
2, 11280, Note_on_c, 0, 78, 64
2, 11340, Note_on_c, 0, 78, 0
2, 11340, Note_on_c, 0, 76, 64
2, 11400, Note_on_c, 0, 76, 0
2, 11400, Note_on_c, 0, 74, 64
2, 11460, Note_on_c, 0, 74, 0
2, 11460, Note_on_c, 0, 73, 64
2, 11520, Note_on_c, 0, 73, 0
2, 11520, Note_on_c, 0, 76, 64
2, 11640, Note_on_c, 0, 76, 0
2, 11640, Note_on_c, 0, 74, 64
2, 11676, Note_on_c, 0, 74, 0
2, 11760, Note_on_c, 0, 74, 64
2, 11796, Note_on_c, 0, 74, 0
2, 11880, Note_on_c, 0, 74, 64
2, 12120, Note_on_c, 0, 74, 0
2, 12120, Note_on_c, 0, 79, 80
2, 12240, Note_on_c, 0, 79, 0
2, 12240, Note_on_c, 0, 79, 80
2, 12420, Note_on_c, 0, 79, 0
2, 12420, Note_on_c, 0, 83, 80
2, 12480, Note_on_c, 0, 83, 0
2, 12480, Note_on_c, 0, 81, 96
2, 12540, Note_on_c, 0, 81, 0
2, 12600, Note_on_c, 0, 79, 80
2, 12720, Note_on_c, 0, 79, 0
2, 12720, Note_on_c, 0, 78, 80
2, 12840, Note_on_c, 0, 78, 0
2, 12840, Note_on_c, 0, 76, 80
2, 12960, Note_on_c, 0, 76, 0
2, 12960, Note_on_c, 0, 74, 80
2, 12996, Note_on_c, 0, 74, 0
2, 13080, Note_on_c, 0, 74, 80
2, 13116, Note_on_c, 0, 74, 0
2, 13200, Note_on_c, 0, 74, 80
2, 13260, Note_on_c, 0, 74, 0
2, 13320, Note_on_c, 0, 74, 80
2, 13560, Note_on_c, 0, 74, 0
2, 13560, Note_on_c, 0, 75, 96
2, 13620, Note_on_c, 0, 75, 0
2, 13680, Note_on_c, 0, 76, 80
2, 13776, Note_on_c, 0, 76, 0
2, 13800, Note_on_c, 0, 79, 80
2, 13824, Note_on_c, 0, 79, 0
2, 13830, Note_on_c, 0, 78, 80
2, 13854, Note_on_c, 0, 78, 0
2, 13860, Note_on_c, 0, 76, 80
2, 13884, Note_on_c, 0, 76, 0
2, 13890, Note_on_c, 0, 78, 80
2, 13914, Note_on_c, 0, 78, 0
2, 13920, Note_on_c, 0, 79, 80
2, 14016, Note_on_c, 0, 79, 0
2, 14040, Note_on_c, 0, 69, 80
2, 14136, Note_on_c, 0, 69, 0
2, 14160, Note_on_c, 0, 71, 80
2, 14256, Note_on_c, 0, 71, 0
2, 14280, Note_on_c, 0, 74, 80
2, 14304, Note_on_c, 0, 74, 0
2, 14310, Note_on_c, 0, 73, 80
2, 14334, Note_on_c, 0, 73, 0
2, 14340, Note_on_c, 0, 71, 80
2, 14364, Note_on_c, 0, 71, 0
2, 14370, Note_on_c, 0, 73, 80
2, 14394, Note_on_c, 0, 73, 0
2, 14400, Note_on_c, 0, 74, 80
2, 14436, Note_on_c, 0, 74, 0
2, 14640, Note_on_c, 0, 74, 64
2, 14676, Note_on_c, 0, 74, 0
2, 14760, Note_on_c, 0, 74, 64
2, 14796, Note_on_c, 0, 74, 0
2, 15000, Note_on_c, 0, 74, 64
2, 15036, Note_on_c, 0, 74, 0
2, 15120, Note_on_c, 0, 74, 64
2, 15156, Note_on_c, 0, 74, 0
2, 15360, Note_on_c, 0, 74, 64
2, 15396, Note_on_c, 0, 74, 0
2, 15480, Note_on_c, 0, 74, 64
2, 15516, Note_on_c, 0, 74, 0
2, 15720, Note_on_c, 0, 74, 64
2, 15756, Note_on_c, 0, 74, 0
2, 15840, Note_on_c, 0, 74, 48
2, 15876, Note_on_c, 0, 74, 0
2, 15960, Note_on_c, 0, 78, 48
2, 15960, Note_on_c, 0, 74, 48
2, 16080, Note_on_c, 0, 74, 0
2, 16080, Note_on_c, 0, 78, 0
2, 16080, Note_on_c, 0, 79, 48
2, 16080, Note_on_c, 0, 76, 48
2, 16116, Note_on_c, 0, 76, 0
2, 16116, Note_on_c, 0, 79, 0
2, 16320, Note_on_c, 0, 81, 48
2, 16320, Note_on_c, 0, 78, 48
2, 16440, Note_on_c, 0, 78, 0
2, 16440, Note_on_c, 0, 81, 0
2, 16440, Note_on_c, 0, 83, 48
2, 16440, Note_on_c, 0, 79, 48
2, 16476, Note_on_c, 0, 79, 0
2, 16476, Note_on_c, 0, 83, 0
2, 16680, Note_on_c, 0, 81, 48
2, 16680, Note_on_c, 0, 84, 48
2, 16800, Note_on_c, 0, 84, 0
2, 16800, Note_on_c, 0, 81, 0
2, 16800, Note_on_c, 0, 79, 48
2, 16800, Note_on_c, 0, 83, 48
2, 16836, Note_on_c, 0, 83, 0
2, 16836, Note_on_c, 0, 79, 0
2, 17040, Note_on_c, 0, 72, 48
2, 17040, Note_on_c, 0, 81, 48
2, 17160, Note_on_c, 0, 81, 0
2, 17160, Note_on_c, 0, 72, 0
2, 17160, Note_on_c, 0, 71, 48
2, 17160, Note_on_c, 0, 79, 48
2, 17280, Note_on_c, 0, 79, 0
2, 17280, Note_on_c, 0, 71, 0
2, 17280, Note_on_c, 0, 72, 40
2, 17280, Note_on_c, 0, 78, 40
2, 17856, Note_on_c, 0, 78, 0
2, 17856, Note_on_c, 0, 72, 0
2, 18180, Note_on_c, 0, 71, 72
2, 18204, Note_on_c, 0, 71, 0
2, 18210, Note_on_c, 0, 72, 71
2, 18234, Note_on_c, 0, 72, 0
2, 18240, Note_on_c, 0, 74, 69
2, 18264, Note_on_c, 0, 74, 0
2, 18270, Note_on_c, 0, 72, 68
2, 18294, Note_on_c, 0, 72, 0
2, 18300, Note_on_c, 0, 71, 67
2, 18324, Note_on_c, 0, 71, 0
2, 18330, Note_on_c, 0, 69, 65
2, 18354, Note_on_c, 0, 69, 0
2, 18360, Note_on_c, 0, 67, 64
2, 18540, Note_on_c, 0, 67, 0
2, 18540, Note_on_c, 0, 71, 64
2, 18600, Note_on_c, 0, 71, 0
2, 18600, Note_on_c, 0, 69, 64
2, 18720, Note_on_c, 0, 69, 0
2, 18720, Note_on_c, 0, 62, 64
2, 18840, Note_on_c, 0, 62, 0
2, 18840, Note_on_c, 0, 64, 64
2, 18960, Note_on_c, 0, 64, 0
2, 18960, Note_on_c, 0, 67, 64
2, 18990, Note_on_c, 0, 67, 0
2, 18990, Note_on_c, 0, 66, 64
2, 19020, Note_on_c, 0, 66, 0
2, 19020, Note_on_c, 0, 64, 64
2, 19050, Note_on_c, 0, 64, 0
2, 19050, Note_on_c, 0, 66, 64
2, 19080, Note_on_c, 0, 66, 0
2, 19080, Note_on_c, 0, 67, 64
2, 19116, Note_on_c, 0, 67, 0
2, 19200, Note_on_c, 0, 67, 64
2, 19236, Note_on_c, 0, 67, 0
2, 19320, Note_on_c, 0, 67, 64
2, 19380, Note_on_c, 0, 67, 0
2, 19440, Note_on_c, 0, 67, 64
2, 19680, Note_on_c, 0, 67, 0
2, 19680, Note_on_c, 0, 69, 64
2, 19680, Note_on_c, 0, 62, 64
2, 19770, Note_on_c, 0, 62, 0
2, 19770, Note_on_c, 0, 69, 0
2, 19770, Note_on_c, 0, 72, 64
2, 19800, Note_on_c, 0, 72, 0
2, 19800, Note_on_c, 0, 71, 64
2, 19800, Note_on_c, 0, 62, 64
2, 19920, Note_on_c, 0, 71, 0
2, 19920, Note_on_c, 0, 69, 64
2, 20040, Note_on_c, 0, 69, 0
2, 20040, Note_on_c, 0, 71, 64
2, 20100, Note_on_c, 0, 71, 0
2, 20100, Note_on_c, 0, 62, 0
2, 20160, Note_on_c, 0, 74, 80
2, 20160, Note_on_c, 0, 66, 80
2, 20160, Note_on_c, 0, 62, 80
2, 20280, Note_on_c, 0, 74, 0
2, 20280, Note_on_c, 0, 72, 64
2, 20400, Note_on_c, 0, 72, 0
2, 20400, Note_on_c, 0, 66, 0
2, 20400, Note_on_c, 0, 71, 64
2, 20400, Note_on_c, 0, 67, 64
2, 20520, Note_on_c, 0, 67, 0
2, 20520, Note_on_c, 0, 71, 0
2, 20520, Note_on_c, 0, 62, 0
2, 20520, Note_on_c, 0, 71, 64
2, 20520, Note_on_c, 0, 67, 64
2, 20640, Note_on_c, 0, 67, 0
2, 20640, Note_on_c, 0, 71, 0
2, 20640, Note_on_c, 0, 69, 64
2, 20640, Note_on_c, 0, 66, 64
2, 20676, Note_on_c, 0, 66, 0
2, 20676, Note_on_c, 0, 69, 0
2, 20760, Note_on_c, 0, 69, 64
2, 20760, Note_on_c, 0, 66, 64
2, 20796, Note_on_c, 0, 66, 0
2, 20796, Note_on_c, 0, 69, 0
2, 20880, Note_on_c, 0, 69, 64
2, 20880, Note_on_c, 0, 66, 64
2, 21120, Note_on_c, 0, 66, 0
2, 21120, Note_on_c, 0, 69, 0
2, 21120, Note_on_c, 0, 71, 80
2, 21120, Note_on_c, 0, 68, 80
2, 21192, Note_on_c, 0, 68, 0
2, 21192, Note_on_c, 0, 71, 0
2, 21240, Note_on_c, 0, 72, 64
2, 21240, Note_on_c, 0, 69, 64
2, 21360, Note_on_c, 0, 69, 0
2, 21360, Note_on_c, 0, 72, 0
2, 21360, Note_on_c, 0, 74, 64
2, 21360, Note_on_c, 0, 71, 64
2, 21480, Note_on_c, 0, 71, 0
2, 21480, Note_on_c, 0, 74, 0
2, 21480, Note_on_c, 0, 76, 64
2, 21480, Note_on_c, 0, 72, 64
2, 21516, Note_on_c, 0, 72, 0
2, 21516, Note_on_c, 0, 76, 0
2, 21600, Note_on_c, 0, 76, 64
2, 21600, Note_on_c, 0, 72, 64
2, 21840, Note_on_c, 0, 72, 0
2, 21840, Note_on_c, 0, 76, 0
2, 21840, Note_on_c, 0, 74, 64
2, 21840, Note_on_c, 0, 69, 64
2, 21870, Note_on_c, 0, 74, 0
2, 21870, Note_on_c, 0, 72, 64
2, 21900, Note_on_c, 0, 72, 0
2, 21900, Note_on_c, 0, 71, 64
2, 21930, Note_on_c, 0, 71, 0
2, 21930, Note_on_c, 0, 72, 64
2, 21960, Note_on_c, 0, 72, 0
2, 21960, Note_on_c, 0, 69, 0
2, 21960, Note_on_c, 0, 67, 64
2, 21960, Note_on_c, 0, 71, 64
2, 22080, Note_on_c, 0, 71, 0
2, 22080, Note_on_c, 0, 67, 0
2, 22080, Note_on_c, 0, 69, 64
2, 22080, Note_on_c, 0, 72, 64
2, 22200, Note_on_c, 0, 72, 0
2, 22200, Note_on_c, 0, 69, 0
2, 22200, Note_on_c, 0, 71, 64
2, 22200, Note_on_c, 0, 74, 64
2, 22218, Note_on_c, 0, 74, 0
2, 22218, Note_on_c, 0, 71, 0
2, 22260, Note_on_c, 0, 73, 64
2, 22280, Note_on_c, 0, 73, 0
2, 22280, Note_on_c, 0, 74, 64
2, 22300, Note_on_c, 0, 74, 0
2, 22300, Note_on_c, 0, 76, 64
2, 22320, Note_on_c, 0, 76, 0
2, 22320, Note_on_c, 0, 74, 64
2, 22560, Note_on_c, 0, 74, 0
2, 22560, Note_on_c, 0, 59, 64
2, 22560, Note_on_c, 0, 69, 64
2, 22590, Note_on_c, 0, 69, 0
2, 22590, Note_on_c, 0, 67, 64
2, 22620, Note_on_c, 0, 67, 0
2, 22620, Note_on_c, 0, 66, 64
2, 22650, Note_on_c, 0, 66, 0
2, 22650, Note_on_c, 0, 59, 0
2, 22650, Note_on_c, 0, 59, 64
2, 22650, Note_on_c, 0, 67, 64
2, 22680, Note_on_c, 0, 67, 0
2, 22680, Note_on_c, 0, 59, 0
2, 22680, Note_on_c, 0, 60, 64
2, 22680, Note_on_c, 0, 69, 64
2, 22800, Note_on_c, 0, 69, 0
2, 22800, Note_on_c, 0, 60, 0
2, 22800, Note_on_c, 0, 64, 64
2, 22800, Note_on_c, 0, 72, 64
2, 22920, Note_on_c, 0, 72, 0
2, 22920, Note_on_c, 0, 64, 0
2, 22920, Note_on_c, 0, 62, 64
2, 22920, Note_on_c, 0, 71, 64
2, 23040, Note_on_c, 0, 71, 0
2, 23040, Note_on_c, 0, 62, 0
2, 23040, Note_on_c, 0, 60, 64
2, 23040, Note_on_c, 0, 69, 64
2, 23160, Note_on_c, 0, 69, 0
2, 23160, Note_on_c, 0, 60, 0
2, 23160, Note_on_c, 0, 59, 64
2, 23160, Note_on_c, 0, 67, 64
2, 23196, Note_on_c, 0, 67, 0
2, 23196, Note_on_c, 0, 59, 0
2, 23280, Note_on_c, 0, 57, 64
2, 23280, Note_on_c, 0, 67, 64
2, 23310, Note_on_c, 0, 67, 0
2, 23310, Note_on_c, 0, 66, 64
2, 23340, Note_on_c, 0, 66, 0
2, 23340, Note_on_c, 0, 64, 64
2, 23370, Note_on_c, 0, 64, 0
2, 23370, Note_on_c, 0, 66, 64
2, 23400, Note_on_c, 0, 66, 0
2, 23400, Note_on_c, 0, 57, 0
2, 23400, Note_on_c, 0, 60, 64
2, 23400, Note_on_c, 0, 69, 64
2, 23520, Note_on_c, 0, 69, 0
2, 23520, Note_on_c, 0, 60, 0
2, 23520, Note_on_c, 0, 59, 64
2, 23520, Note_on_c, 0, 67, 64
2, 23556, Note_on_c, 0, 67, 0
2, 23556, Note_on_c, 0, 59, 0
2, 23640, Note_on_c, 0, 59, 64
2, 23640, Note_on_c, 0, 67, 64
2, 23676, Note_on_c, 0, 67, 0
2, 23676, Note_on_c, 0, 59, 0
2, 23760, Note_on_c, 0, 59, 64
2, 23760, Note_on_c, 0, 67, 64
2, 24000, Note_on_c, 0, 67, 0
2, 24000, Note_on_c, 0, 59, 0
2, 24000, Note_on_c, 0, 79, 80
2, 24120, Note_on_c, 0, 79, 0
2, 24120, Note_on_c, 0, 79, 80
2, 24300, Note_on_c, 0, 79, 0
2, 24300, Note_on_c, 0, 83, 80
2, 24360, Note_on_c, 0, 83, 0
2, 24360, Note_on_c, 0, 81, 96
2, 24420, Note_on_c, 0, 81, 0
2, 24480, Note_on_c, 0, 79, 80
2, 24600, Note_on_c, 0, 79, 0
2, 24600, Note_on_c, 0, 78, 80
2, 24720, Note_on_c, 0, 78, 0
2, 24720, Note_on_c, 0, 76, 80
2, 24840, Note_on_c, 0, 76, 0
2, 24840, Note_on_c, 0, 74, 80
2, 24876, Note_on_c, 0, 74, 0
2, 24960, Note_on_c, 0, 74, 80
2, 24996, Note_on_c, 0, 74, 0
2, 25080, Note_on_c, 0, 74, 80
2, 25140, Note_on_c, 0, 74, 0
2, 25200, Note_on_c, 0, 74, 80
2, 25440, Note_on_c, 0, 74, 0
2, 25440, Note_on_c, 0, 75, 96
2, 25500, Note_on_c, 0, 75, 0
2, 25560, Note_on_c, 0, 76, 80
2, 25656, Note_on_c, 0, 76, 0
2, 25680, Note_on_c, 0, 79, 80
2, 25704, Note_on_c, 0, 79, 0
2, 25710, Note_on_c, 0, 78, 80
2, 25734, Note_on_c, 0, 78, 0
2, 25740, Note_on_c, 0, 76, 80
2, 25764, Note_on_c, 0, 76, 0
2, 25770, Note_on_c, 0, 78, 80
2, 25794, Note_on_c, 0, 78, 0
2, 25800, Note_on_c, 0, 79, 80
2, 25896, Note_on_c, 0, 79, 0
2, 25920, Note_on_c, 0, 69, 80
2, 26016, Note_on_c, 0, 69, 0
2, 26040, Note_on_c, 0, 71, 80
2, 26136, Note_on_c, 0, 71, 0
2, 26160, Note_on_c, 0, 74, 80
2, 26184, Note_on_c, 0, 74, 0
2, 26190, Note_on_c, 0, 73, 80
2, 26214, Note_on_c, 0, 73, 0
2, 26220, Note_on_c, 0, 71, 80
2, 26244, Note_on_c, 0, 71, 0
2, 26250, Note_on_c, 0, 73, 80
2, 26274, Note_on_c, 0, 73, 0
2, 26280, Note_on_c, 0, 74, 80
2, 26316, Note_on_c, 0, 74, 0
2, 26520, Note_on_c, 0, 74, 64
2, 26556, Note_on_c, 0, 74, 0
2, 26640, Note_on_c, 0, 74, 64
2, 26676, Note_on_c, 0, 74, 0
2, 26880, Note_on_c, 0, 74, 64
2, 26916, Note_on_c, 0, 74, 0
2, 27000, Note_on_c, 0, 74, 64
2, 27036, Note_on_c, 0, 74, 0
2, 27240, Note_on_c, 0, 74, 64
2, 27276, Note_on_c, 0, 74, 0
2, 27360, Note_on_c, 0, 74, 64
2, 27396, Note_on_c, 0, 74, 0
2, 27600, Note_on_c, 0, 74, 64
2, 27636, Note_on_c, 0, 74, 0
2, 27720, Note_on_c, 0, 74, 48
2, 27756, Note_on_c, 0, 74, 0
2, 27840, Note_on_c, 0, 74, 48
2, 27840, Note_on_c, 0, 78, 48
2, 27960, Note_on_c, 0, 78, 0
2, 27960, Note_on_c, 0, 74, 0
2, 27960, Note_on_c, 0, 76, 48
2, 27960, Note_on_c, 0, 79, 48
2, 27996, Note_on_c, 0, 79, 0
2, 27996, Note_on_c, 0, 76, 0
2, 28200, Note_on_c, 0, 78, 48
2, 28200, Note_on_c, 0, 81, 48
2, 28320, Note_on_c, 0, 81, 0
2, 28320, Note_on_c, 0, 78, 0
2, 28320, Note_on_c, 0, 79, 48
2, 28320, Note_on_c, 0, 83, 48
2, 28356, Note_on_c, 0, 83, 0
2, 28356, Note_on_c, 0, 79, 0
2, 28560, Note_on_c, 0, 84, 48
2, 28560, Note_on_c, 0, 81, 48
2, 28680, Note_on_c, 0, 81, 0
2, 28680, Note_on_c, 0, 84, 0
2, 28680, Note_on_c, 0, 83, 48
2, 28680, Note_on_c, 0, 79, 48
2, 28716, Note_on_c, 0, 79, 0
2, 28716, Note_on_c, 0, 83, 0
2, 28920, Note_on_c, 0, 81, 48
2, 28920, Note_on_c, 0, 72, 48
2, 29040, Note_on_c, 0, 72, 0
2, 29040, Note_on_c, 0, 81, 0
2, 29040, Note_on_c, 0, 79, 48
2, 29040, Note_on_c, 0, 71, 48
2, 29160, Note_on_c, 0, 71, 0
2, 29160, Note_on_c, 0, 79, 0
2, 29160, Note_on_c, 0, 78, 40
2, 29160, Note_on_c, 0, 72, 40
2, 29736, Note_on_c, 0, 72, 0
2, 29736, Note_on_c, 0, 78, 0
2, 30060, Note_on_c, 0, 71, 72
2, 30084, Note_on_c, 0, 71, 0
2, 30090, Note_on_c, 0, 72, 71
2, 30114, Note_on_c, 0, 72, 0
2, 30120, Note_on_c, 0, 74, 69
2, 30144, Note_on_c, 0, 74, 0
2, 30150, Note_on_c, 0, 72, 68
2, 30174, Note_on_c, 0, 72, 0
2, 30180, Note_on_c, 0, 71, 67
2, 30204, Note_on_c, 0, 71, 0
2, 30210, Note_on_c, 0, 69, 65
2, 30234, Note_on_c, 0, 69, 0
2, 30240, Note_on_c, 0, 67, 64
2, 30420, Note_on_c, 0, 67, 0
2, 30420, Note_on_c, 0, 71, 64
2, 30480, Note_on_c, 0, 71, 0
2, 30480, Note_on_c, 0, 69, 64
2, 30600, Note_on_c, 0, 69, 0
2, 30600, Note_on_c, 0, 62, 64
2, 30720, Note_on_c, 0, 62, 0
2, 30720, Note_on_c, 0, 64, 64
2, 30840, Note_on_c, 0, 64, 0
2, 30840, Note_on_c, 0, 67, 64
2, 30870, Note_on_c, 0, 67, 0
2, 30870, Note_on_c, 0, 66, 64
2, 30900, Note_on_c, 0, 66, 0
2, 30900, Note_on_c, 0, 64, 64
2, 30930, Note_on_c, 0, 64, 0
2, 30930, Note_on_c, 0, 66, 64
2, 30960, Note_on_c, 0, 66, 0
2, 30960, Note_on_c, 0, 67, 64
2, 30996, Note_on_c, 0, 67, 0
2, 31080, Note_on_c, 0, 67, 64
2, 31116, Note_on_c, 0, 67, 0
2, 31200, Note_on_c, 0, 67, 64
2, 31260, Note_on_c, 0, 67, 0
2, 31320, Note_on_c, 0, 67, 64
2, 31560, Note_on_c, 0, 67, 0
2, 31560, Note_on_c, 0, 62, 64
2, 31560, Note_on_c, 0, 69, 64
2, 31650, Note_on_c, 0, 69, 0
2, 31650, Note_on_c, 0, 62, 0
2, 31650, Note_on_c, 0, 72, 64
2, 31680, Note_on_c, 0, 72, 0
2, 31680, Note_on_c, 0, 62, 64
2, 31680, Note_on_c, 0, 71, 64
2, 31800, Note_on_c, 0, 71, 0
2, 31800, Note_on_c, 0, 69, 64
2, 31920, Note_on_c, 0, 69, 0
2, 31920, Note_on_c, 0, 71, 64
2, 31980, Note_on_c, 0, 71, 0
2, 31980, Note_on_c, 0, 62, 0
2, 32040, Note_on_c, 0, 62, 80
2, 32040, Note_on_c, 0, 66, 80
2, 32040, Note_on_c, 0, 74, 80
2, 32160, Note_on_c, 0, 74, 0
2, 32160, Note_on_c, 0, 72, 64
2, 32280, Note_on_c, 0, 72, 0
2, 32280, Note_on_c, 0, 66, 0
2, 32280, Note_on_c, 0, 67, 64
2, 32280, Note_on_c, 0, 71, 64
2, 32400, Note_on_c, 0, 71, 0
2, 32400, Note_on_c, 0, 67, 0
2, 32400, Note_on_c, 0, 62, 0
2, 32400, Note_on_c, 0, 67, 64
2, 32400, Note_on_c, 0, 71, 64
2, 32520, Note_on_c, 0, 71, 0
2, 32520, Note_on_c, 0, 67, 0
2, 32520, Note_on_c, 0, 66, 64
2, 32520, Note_on_c, 0, 69, 64
2, 32556, Note_on_c, 0, 69, 0
2, 32556, Note_on_c, 0, 66, 0
2, 32640, Note_on_c, 0, 66, 64
2, 32640, Note_on_c, 0, 69, 64
2, 32676, Note_on_c, 0, 69, 0
2, 32676, Note_on_c, 0, 66, 0
2, 32760, Note_on_c, 0, 66, 64
2, 32760, Note_on_c, 0, 69, 64
2, 33000, Note_on_c, 0, 69, 0
2, 33000, Note_on_c, 0, 66, 0
2, 33000, Note_on_c, 0, 68, 80
2, 33000, Note_on_c, 0, 71, 80
2, 33072, Note_on_c, 0, 71, 0
2, 33072, Note_on_c, 0, 68, 0
2, 33120, Note_on_c, 0, 69, 64
2, 33120, Note_on_c, 0, 72, 64
2, 33240, Note_on_c, 0, 72, 0
2, 33240, Note_on_c, 0, 69, 0
2, 33240, Note_on_c, 0, 71, 64
2, 33240, Note_on_c, 0, 74, 64
2, 33360, Note_on_c, 0, 74, 0
2, 33360, Note_on_c, 0, 71, 0
2, 33360, Note_on_c, 0, 72, 64
2, 33360, Note_on_c, 0, 76, 64
2, 33396, Note_on_c, 0, 76, 0
2, 33396, Note_on_c, 0, 72, 0
2, 33480, Note_on_c, 0, 72, 64
2, 33480, Note_on_c, 0, 76, 64
2, 33720, Note_on_c, 0, 76, 0
2, 33720, Note_on_c, 0, 72, 0
2, 33720, Note_on_c, 0, 69, 64
2, 33720, Note_on_c, 0, 74, 64
2, 33750, Note_on_c, 0, 74, 0
2, 33750, Note_on_c, 0, 72, 64
2, 33780, Note_on_c, 0, 72, 0
2, 33780, Note_on_c, 0, 71, 64
2, 33810, Note_on_c, 0, 71, 0
2, 33810, Note_on_c, 0, 72, 64
2, 33840, Note_on_c, 0, 72, 0
2, 33840, Note_on_c, 0, 69, 0
2, 33840, Note_on_c, 0, 71, 64
2, 33840, Note_on_c, 0, 67, 64
2, 33960, Note_on_c, 0, 67, 0
2, 33960, Note_on_c, 0, 71, 0
2, 33960, Note_on_c, 0, 72, 64
2, 33960, Note_on_c, 0, 69, 64
2, 34080, Note_on_c, 0, 69, 0
2, 34080, Note_on_c, 0, 72, 0
2, 34080, Note_on_c, 0, 74, 64
2, 34080, Note_on_c, 0, 71, 64
2, 34098, Note_on_c, 0, 71, 0
2, 34098, Note_on_c, 0, 74, 0
2, 34140, Note_on_c, 0, 73, 64
2, 34160, Note_on_c, 0, 73, 0
2, 34160, Note_on_c, 0, 74, 64
2, 34180, Note_on_c, 0, 74, 0
2, 34180, Note_on_c, 0, 76, 64
2, 34200, Note_on_c, 0, 76, 0
2, 34200, Note_on_c, 0, 74, 64
2, 34440, Note_on_c, 0, 74, 0
2, 34440, Note_on_c, 0, 69, 64
2, 34440, Note_on_c, 0, 59, 64
2, 34470, Note_on_c, 0, 69, 0
2, 34470, Note_on_c, 0, 67, 64
2, 34500, Note_on_c, 0, 67, 0
2, 34500, Note_on_c, 0, 66, 64
2, 34530, Note_on_c, 0, 66, 0
2, 34530, Note_on_c, 0, 59, 0
2, 34530, Note_on_c, 0, 67, 64
2, 34530, Note_on_c, 0, 59, 64
2, 34560, Note_on_c, 0, 59, 0
2, 34560, Note_on_c, 0, 67, 0
2, 34560, Note_on_c, 0, 69, 64
2, 34560, Note_on_c, 0, 60, 64
2, 34680, Note_on_c, 0, 60, 0
2, 34680, Note_on_c, 0, 69, 0
2, 34680, Note_on_c, 0, 72, 64
2, 34680, Note_on_c, 0, 64, 64
2, 34800, Note_on_c, 0, 64, 0
2, 34800, Note_on_c, 0, 72, 0
2, 34800, Note_on_c, 0, 71, 64
2, 34800, Note_on_c, 0, 62, 64
2, 34920, Note_on_c, 0, 62, 0
2, 34920, Note_on_c, 0, 71, 0
2, 34920, Note_on_c, 0, 69, 64
2, 34920, Note_on_c, 0, 60, 64
2, 35040, Note_on_c, 0, 60, 0
2, 35040, Note_on_c, 0, 69, 0
2, 35040, Note_on_c, 0, 67, 64
2, 35040, Note_on_c, 0, 59, 64
2, 35076, Note_on_c, 0, 59, 0
2, 35076, Note_on_c, 0, 67, 0
2, 35160, Note_on_c, 0, 67, 64
2, 35160, Note_on_c, 0, 57, 64
2, 35190, Note_on_c, 0, 67, 0
2, 35190, Note_on_c, 0, 66, 64
2, 35220, Note_on_c, 0, 66, 0
2, 35220, Note_on_c, 0, 64, 64
2, 35250, Note_on_c, 0, 64, 0
2, 35250, Note_on_c, 0, 66, 64
2, 35280, Note_on_c, 0, 66, 0
2, 35280, Note_on_c, 0, 57, 0
2, 35280, Note_on_c, 0, 69, 64
2, 35280, Note_on_c, 0, 60, 64
2, 35400, Note_on_c, 0, 60, 0
2, 35400, Note_on_c, 0, 69, 0
2, 35400, Note_on_c, 0, 67, 64
2, 35400, Note_on_c, 0, 59, 64
2, 35436, Note_on_c, 0, 59, 0
2, 35436, Note_on_c, 0, 67, 0
2, 35520, Note_on_c, 0, 67, 64
2, 35520, Note_on_c, 0, 59, 64
2, 35556, Note_on_c, 0, 59, 0
2, 35556, Note_on_c, 0, 67, 0
2, 35640, Note_on_c, 0, 67, 64
2, 35640, Note_on_c, 0, 59, 64
2, 35880, Note_on_c, 0, 59, 0
2, 35880, Note_on_c, 0, 67, 0
2, 35880, Note_on_c, 0, 74, 64
2, 35916, Note_on_c, 0, 74, 0
2, 36000, Note_on_c, 0, 74, 64
2, 36036, Note_on_c, 0, 74, 0
2, 36240, Note_on_c, 0, 75, 64
2, 36276, Note_on_c, 0, 75, 0
2, 36360, Note_on_c, 0, 75, 64
2, 36396, Note_on_c, 0, 75, 0
2, 36600, Note_on_c, 0, 78, 64
2, 36636, Note_on_c, 0, 78, 0
2, 36720, Note_on_c, 0, 78, 64
2, 36756, Note_on_c, 0, 78, 0
2, 36960, Note_on_c, 0, 79, 64
2, 36996, Note_on_c, 0, 79, 0
2, 37080, Note_on_c, 0, 79, 64
2, 37116, Note_on_c, 0, 79, 0
2, 37320, Note_on_c, 0, 73, 80
2, 37320, Note_on_c, 0, 82, 80
2, 37440, Note_on_c, 0, 73, 0
2, 37440, Note_on_c, 0, 74, 64
2, 37560, Note_on_c, 0, 82, 0
2, 37560, Note_on_c, 0, 81, 64
2, 37596, Note_on_c, 0, 81, 0
2, 37596, Note_on_c, 0, 74, 0
2, 37680, Note_on_c, 0, 73, 80
2, 37680, Note_on_c, 0, 82, 80
2, 37800, Note_on_c, 0, 73, 0
2, 37800, Note_on_c, 0, 74, 64
2, 37920, Note_on_c, 0, 82, 0
2, 37920, Note_on_c, 0, 81, 64
2, 38040, Note_on_c, 0, 81, 0
2, 38040, Note_on_c, 0, 74, 0
2, 38040, Note_on_c, 0, 81, 80
2, 38070, Note_on_c, 0, 81, 0
2, 38070, Note_on_c, 0, 80, 80
2, 38100, Note_on_c, 0, 80, 0
2, 38100, Note_on_c, 0, 78, 80
2, 38130, Note_on_c, 0, 78, 0
2, 38130, Note_on_c, 0, 80, 80
2, 38280, Note_on_c, 0, 80, 0
2, 38280, Note_on_c, 0, 81, 80
2, 38316, Note_on_c, 0, 81, 0
2, 38400, Note_on_c, 0, 81, 80
2, 38436, Note_on_c, 0, 81, 0
2, 38640, Note_on_c, 0, 83, 80
2, 38676, Note_on_c, 0, 83, 0
2, 38760, Note_on_c, 0, 83, 80
2, 38796, Note_on_c, 0, 83, 0
2, 39000, Note_on_c, 0, 69, 64
2, 39036, Note_on_c, 0, 69, 0
2, 39120, Note_on_c, 0, 69, 64
2, 39156, Note_on_c, 0, 69, 0
2, 39240, Note_on_c, 0, 69, 64
2, 39360, Note_on_c, 0, 69, 0
2, 39360, Note_on_c, 0, 71, 64
2, 39480, Note_on_c, 0, 71, 0
2, 39480, Note_on_c, 0, 73, 64
2, 39600, Note_on_c, 0, 73, 0
2, 39600, Note_on_c, 0, 73, 64
2, 39960, Note_on_c, 0, 73, 0
2, 39960, Note_on_c, 0, 74, 64
2, 40020, Note_on_c, 0, 74, 0
2, 40200, Note_on_c, 0, 74, 64
2, 40236, Note_on_c, 0, 74, 0
2, 40320, Note_on_c, 0, 74, 64
2, 40356, Note_on_c, 0, 74, 0
2, 40560, Note_on_c, 0, 75, 64
2, 40596, Note_on_c, 0, 75, 0
2, 40680, Note_on_c, 0, 75, 64
2, 40716, Note_on_c, 0, 75, 0
2, 40920, Note_on_c, 0, 78, 64
2, 40956, Note_on_c, 0, 78, 0
2, 41040, Note_on_c, 0, 78, 64
2, 41076, Note_on_c, 0, 78, 0
2, 41280, Note_on_c, 0, 79, 64
2, 41316, Note_on_c, 0, 79, 0
2, 41400, Note_on_c, 0, 79, 64
2, 41436, Note_on_c, 0, 79, 0
2, 41640, Note_on_c, 0, 82, 80
2, 41640, Note_on_c, 0, 73, 80
2, 41760, Note_on_c, 0, 73, 0
2, 41760, Note_on_c, 0, 74, 64
2, 41880, Note_on_c, 0, 82, 0
2, 41880, Note_on_c, 0, 81, 64
2, 41916, Note_on_c, 0, 81, 0
2, 41916, Note_on_c, 0, 74, 0
2, 42000, Note_on_c, 0, 82, 80
2, 42000, Note_on_c, 0, 73, 80
2, 42120, Note_on_c, 0, 73, 0
2, 42120, Note_on_c, 0, 74, 64
2, 42240, Note_on_c, 0, 82, 0
2, 42240, Note_on_c, 0, 81, 64
2, 42360, Note_on_c, 0, 81, 0
2, 42360, Note_on_c, 0, 74, 0
2, 42360, Note_on_c, 0, 81, 80
2, 42390, Note_on_c, 0, 81, 0
2, 42390, Note_on_c, 0, 80, 80
2, 42420, Note_on_c, 0, 80, 0
2, 42420, Note_on_c, 0, 78, 80
2, 42450, Note_on_c, 0, 78, 0
2, 42450, Note_on_c, 0, 80, 80
2, 42600, Note_on_c, 0, 80, 0
2, 42600, Note_on_c, 0, 81, 80
2, 42636, Note_on_c, 0, 81, 0
2, 42720, Note_on_c, 0, 81, 80
2, 42756, Note_on_c, 0, 81, 0
2, 42960, Note_on_c, 0, 83, 80
2, 42996, Note_on_c, 0, 83, 0
2, 43080, Note_on_c, 0, 83, 80
2, 43116, Note_on_c, 0, 83, 0
2, 43320, Note_on_c, 0, 69, 64
2, 43356, Note_on_c, 0, 69, 0
2, 43440, Note_on_c, 0, 69, 64
2, 43476, Note_on_c, 0, 69, 0
2, 43560, Note_on_c, 0, 69, 64
2, 43680, Note_on_c, 0, 69, 0
2, 43680, Note_on_c, 0, 71, 64
2, 43800, Note_on_c, 0, 71, 0
2, 43800, Note_on_c, 0, 73, 64
2, 43920, Note_on_c, 0, 73, 0
2, 43920, Note_on_c, 0, 73, 64
2, 44280, Note_on_c, 0, 73, 0
2, 44280, Note_on_c, 0, 74, 64
2, 44340, Note_on_c, 0, 74, 0
2, 44520, Note_on_c, 0, 74, 64
2, 44556, Note_on_c, 0, 74, 0
2, 44640, Note_on_c, 0, 74, 64
2, 44676, Note_on_c, 0, 74, 0
2, 44880, Note_on_c, 0, 67, 64
2, 45000, Note_on_c, 0, 67, 0
2, 45000, Note_on_c, 0, 72, 64
2, 45036, Note_on_c, 0, 72, 0
2, 45240, Note_on_c, 0, 66, 64
2, 45360, Note_on_c, 0, 66, 0
2, 45360, Note_on_c, 0, 70, 64
2, 45396, Note_on_c, 0, 70, 0
2, 45600, Note_on_c, 0, 61, 64
2, 45720, Note_on_c, 0, 61, 0
2, 45720, Note_on_c, 0, 62, 64
2, 45756, Note_on_c, 0, 62, 0
2, 45960, Note_on_c, 0, 67, 80
2, 45960, Note_on_c, 0, 79, 80
2, 46080, Note_on_c, 0, 67, 0
2, 46080, Note_on_c, 0, 69, 64
2, 46200, Note_on_c, 0, 79, 0
2, 46200, Note_on_c, 0, 78, 64
2, 46236, Note_on_c, 0, 78, 0
2, 46236, Note_on_c, 0, 69, 0
2, 46320, Note_on_c, 0, 67, 80
2, 46320, Note_on_c, 0, 79, 80
2, 46440, Note_on_c, 0, 67, 0
2, 46440, Note_on_c, 0, 69, 64
2, 46560, Note_on_c, 0, 79, 0
2, 46560, Note_on_c, 0, 78, 64
2, 46596, Note_on_c, 0, 78, 0
2, 46596, Note_on_c, 0, 69, 0
2, 46680, Note_on_c, 0, 67, 64
2, 46680, Note_on_c, 0, 79, 64
2, 46716, Note_on_c, 0, 79, 0
2, 46716, Note_on_c, 0, 67, 0
2, 46800, Note_on_c, 0, 72, 88
2, 46800, Note_on_c, 0, 75, 88
2, 46800, Note_on_c, 0, 78, 88
2, 46800, Note_on_c, 0, 84, 88
2, 47160, Note_on_c, 0, 78, 0
2, 47160, Note_on_c, 0, 72, 0
2, 47280, Note_on_c, 0, 75, 0
2, 47280, Note_on_c, 0, 84, 0
2, 47280, Note_on_c, 0, 74, 80
2, 47280, Note_on_c, 0, 82, 80
2, 47316, Note_on_c, 0, 82, 0
2, 47316, Note_on_c, 0, 74, 0
2, 47400, Note_on_c, 0, 74, 80
2, 47400, Note_on_c, 0, 82, 80
2, 47520, Note_on_c, 0, 74, 0
2, 47520, Note_on_c, 0, 75, 80
2, 47640, Note_on_c, 0, 82, 0
2, 47640, Note_on_c, 0, 81, 77
2, 47676, Note_on_c, 0, 81, 0
2, 47760, Note_on_c, 0, 81, 75
2, 48000, Note_on_c, 0, 81, 0
2, 48000, Note_on_c, 0, 75, 0
2, 48000, Note_on_c, 0, 74, 69
2, 48000, Note_on_c, 0, 79, 69
2, 48120, Note_on_c, 0, 79, 0
2, 48120, Note_on_c, 0, 74, 0
2, 48120, Note_on_c, 0, 72, 67
2, 48120, Note_on_c, 0, 78, 67
2, 48240, Note_on_c, 0, 78, 0
2, 48240, Note_on_c, 0, 72, 0
2, 48240, Note_on_c, 0, 72, 64
2, 48240, Note_on_c, 0, 78, 64
2, 48600, Note_on_c, 0, 78, 0
2, 48600, Note_on_c, 0, 72, 0
2, 48600, Note_on_c, 0, 70, 56
2, 48600, Note_on_c, 0, 79, 56
2, 48672, Note_on_c, 0, 79, 0
2, 48672, Note_on_c, 0, 70, 0
2, 48840, Note_on_c, 0, 74, 64
2, 48876, Note_on_c, 0, 74, 0
2, 48960, Note_on_c, 0, 74, 64
2, 48996, Note_on_c, 0, 74, 0
2, 49200, Note_on_c, 0, 67, 64
2, 49320, Note_on_c, 0, 67, 0
2, 49320, Note_on_c, 0, 72, 64
2, 49356, Note_on_c, 0, 72, 0
2, 49560, Note_on_c, 0, 66, 64
2, 49680, Note_on_c, 0, 66, 0
2, 49680, Note_on_c, 0, 70, 64
2, 49716, Note_on_c, 0, 70, 0
2, 49920, Note_on_c, 0, 61, 64
2, 50040, Note_on_c, 0, 61, 0
2, 50040, Note_on_c, 0, 62, 64
2, 50076, Note_on_c, 0, 62, 0
2, 50280, Note_on_c, 0, 79, 80
2, 50280, Note_on_c, 0, 67, 80
2, 50400, Note_on_c, 0, 67, 0
2, 50400, Note_on_c, 0, 69, 64
2, 50520, Note_on_c, 0, 79, 0
2, 50520, Note_on_c, 0, 78, 64
2, 50556, Note_on_c, 0, 78, 0
2, 50556, Note_on_c, 0, 69, 0
2, 50640, Note_on_c, 0, 79, 80
2, 50640, Note_on_c, 0, 67, 80
2, 50760, Note_on_c, 0, 67, 0
2, 50760, Note_on_c, 0, 69, 80
2, 50880, Note_on_c, 0, 79, 0
2, 50880, Note_on_c, 0, 78, 80
2, 50916, Note_on_c, 0, 78, 0
2, 50916, Note_on_c, 0, 69, 0
2, 51000, Note_on_c, 0, 79, 80
2, 51000, Note_on_c, 0, 67, 80
2, 51036, Note_on_c, 0, 67, 0
2, 51036, Note_on_c, 0, 79, 0
2, 51120, Note_on_c, 0, 84, 88
2, 51120, Note_on_c, 0, 78, 88
2, 51120, Note_on_c, 0, 75, 88
2, 51120, Note_on_c, 0, 72, 88
2, 51480, Note_on_c, 0, 72, 0
2, 51480, Note_on_c, 0, 78, 0
2, 51600, Note_on_c, 0, 75, 0
2, 51600, Note_on_c, 0, 84, 0
2, 51600, Note_on_c, 0, 82, 80
2, 51600, Note_on_c, 0, 74, 80
2, 51636, Note_on_c, 0, 74, 0
2, 51636, Note_on_c, 0, 82, 0
2, 51720, Note_on_c, 0, 82, 80
2, 51720, Note_on_c, 0, 74, 80
2, 51840, Note_on_c, 0, 74, 0
2, 51840, Note_on_c, 0, 75, 80
2, 51960, Note_on_c, 0, 82, 0
2, 51960, Note_on_c, 0, 81, 77
2, 51996, Note_on_c, 0, 81, 0
2, 52080, Note_on_c, 0, 81, 75
2, 52320, Note_on_c, 0, 81, 0
2, 52320, Note_on_c, 0, 75, 0
2, 52320, Note_on_c, 0, 79, 69
2, 52320, Note_on_c, 0, 74, 69
2, 52440, Note_on_c, 0, 74, 0
2, 52440, Note_on_c, 0, 79, 0
2, 52440, Note_on_c, 0, 78, 67
2, 52440, Note_on_c, 0, 72, 67
2, 52560, Note_on_c, 0, 72, 0
2, 52560, Note_on_c, 0, 78, 0
2, 52560, Note_on_c, 0, 78, 64
2, 52560, Note_on_c, 0, 72, 64
2, 52920, Note_on_c, 0, 72, 0
2, 52920, Note_on_c, 0, 78, 0
2, 52920, Note_on_c, 0, 79, 56
2, 52920, Note_on_c, 0, 70, 56
2, 52992, Note_on_c, 0, 70, 0
2, 52992, Note_on_c, 0, 79, 0
2, 53160, Note_on_c, 0, 67, 64
2, 53196, Note_on_c, 0, 67, 0
2, 53280, Note_on_c, 0, 67, 64
2, 53460, Note_on_c, 0, 67, 0
2, 53460, Note_on_c, 0, 71, 64
2, 53520, Note_on_c, 0, 71, 0
2, 53520, Note_on_c, 0, 69, 64
2, 53640, Note_on_c, 0, 69, 0
2, 53640, Note_on_c, 0, 62, 64
2, 53760, Note_on_c, 0, 62, 0
2, 53760, Note_on_c, 0, 63, 64
2, 53820, Note_on_c, 0, 63, 0
2, 53820, Note_on_c, 0, 64, 64
2, 53880, Note_on_c, 0, 64, 0
2, 53880, Note_on_c, 0, 65, 64
2, 53940, Note_on_c, 0, 65, 0
2, 53940, Note_on_c, 0, 66, 64
2, 54000, Note_on_c, 0, 66, 0
2, 54000, Note_on_c, 0, 67, 64
2, 54036, Note_on_c, 0, 67, 0
2, 54120, Note_on_c, 0, 67, 64
2, 54156, Note_on_c, 0, 67, 0
2, 54240, Note_on_c, 0, 67, 64
2, 54276, Note_on_c, 0, 67, 0
2, 54360, Note_on_c, 0, 67, 64
2, 54600, Note_on_c, 0, 67, 0
2, 54600, Note_on_c, 0, 62, 64
2, 54600, Note_on_c, 0, 69, 64
2, 54690, Note_on_c, 0, 69, 0
2, 54690, Note_on_c, 0, 72, 64
2, 54720, Note_on_c, 0, 72, 0
2, 54720, Note_on_c, 0, 62, 0
2, 54720, Note_on_c, 0, 71, 64
2, 54720, Note_on_c, 0, 62, 64
2, 54780, Note_on_c, 0, 71, 0
2, 54780, Note_on_c, 0, 70, 64
2, 54840, Note_on_c, 0, 70, 0
2, 54840, Note_on_c, 0, 71, 64
2, 54900, Note_on_c, 0, 71, 0
2, 54900, Note_on_c, 0, 70, 64
2, 54960, Note_on_c, 0, 70, 0
2, 54960, Note_on_c, 0, 71, 64
2, 55020, Note_on_c, 0, 71, 0
2, 55020, Note_on_c, 0, 74, 64
2, 55080, Note_on_c, 0, 74, 0
2, 55080, Note_on_c, 0, 62, 0
2, 55080, Note_on_c, 0, 66, 80
2, 55080, Note_on_c, 0, 74, 80
2, 55080, Note_on_c, 0, 62, 80
2, 55200, Note_on_c, 0, 74, 0
2, 55200, Note_on_c, 0, 72, 64
2, 55236, Note_on_c, 0, 72, 0
2, 55236, Note_on_c, 0, 62, 0
2, 55236, Note_on_c, 0, 66, 0
2, 55320, Note_on_c, 0, 71, 64
2, 55320, Note_on_c, 0, 67, 64
2, 55356, Note_on_c, 0, 67, 0
2, 55356, Note_on_c, 0, 71, 0
2, 55440, Note_on_c, 0, 67, 64
2, 55440, Note_on_c, 0, 71, 64
2, 55560, Note_on_c, 0, 71, 0
2, 55560, Note_on_c, 0, 67, 0
2, 55560, Note_on_c, 0, 66, 64
2, 55560, Note_on_c, 0, 69, 64
2, 55596, Note_on_c, 0, 69, 0
2, 55596, Note_on_c, 0, 66, 0
2, 55680, Note_on_c, 0, 66, 64
2, 55680, Note_on_c, 0, 69, 64
2, 55716, Note_on_c, 0, 69, 0
2, 55716, Note_on_c, 0, 66, 0
2, 55800, Note_on_c, 0, 66, 64
2, 55800, Note_on_c, 0, 69, 64
2, 56040, Note_on_c, 0, 69, 0
2, 56040, Note_on_c, 0, 66, 0
2, 56040, Note_on_c, 0, 68, 80
2, 56040, Note_on_c, 0, 71, 80
2, 56112, Note_on_c, 0, 71, 0
2, 56112, Note_on_c, 0, 68, 0
2, 56160, Note_on_c, 0, 72, 64
2, 56160, Note_on_c, 0, 69, 64
2, 56280, Note_on_c, 0, 69, 0
2, 56280, Note_on_c, 0, 72, 0
2, 56280, Note_on_c, 0, 74, 64
2, 56280, Note_on_c, 0, 71, 64
2, 56400, Note_on_c, 0, 71, 0
2, 56400, Note_on_c, 0, 74, 0
2, 56400, Note_on_c, 0, 76, 64
2, 56400, Note_on_c, 0, 72, 64
2, 56436, Note_on_c, 0, 72, 0
2, 56436, Note_on_c, 0, 76, 0
2, 56520, Note_on_c, 0, 76, 64
2, 56520, Note_on_c, 0, 72, 64
2, 56760, Note_on_c, 0, 72, 0
2, 56760, Note_on_c, 0, 76, 0
2, 56760, Note_on_c, 0, 74, 64
2, 56760, Note_on_c, 0, 71, 64
2, 56820, Note_on_c, 0, 71, 0
2, 56820, Note_on_c, 0, 74, 0
2, 56820, Note_on_c, 0, 72, 64
2, 56820, Note_on_c, 0, 69, 64
2, 56880, Note_on_c, 0, 69, 0
2, 56880, Note_on_c, 0, 72, 0
2, 56880, Note_on_c, 0, 71, 64
2, 56940, Note_on_c, 0, 71, 0
2, 56940, Note_on_c, 0, 72, 64
2, 57000, Note_on_c, 0, 72, 0
2, 57000, Note_on_c, 0, 71, 64
2, 57060, Note_on_c, 0, 71, 0
2, 57060, Note_on_c, 0, 72, 64
2, 57120, Note_on_c, 0, 72, 0
2, 57120, Note_on_c, 0, 71, 64
2, 57180, Note_on_c, 0, 71, 0
2, 57180, Note_on_c, 0, 74, 64
2, 57240, Note_on_c, 0, 74, 0
2, 57240, Note_on_c, 0, 72, 64
2, 57360, Note_on_c, 0, 72, 0
2, 57360, Note_on_c, 0, 74, 64
2, 57480, Note_on_c, 0, 74, 0
2, 57480, Note_on_c, 0, 76, 64
2, 57600, Note_on_c, 0, 76, 0
2, 57600, Note_on_c, 0, 74, 64
2, 57720, Note_on_c, 0, 74, 0
2, 57720, Note_on_c, 0, 79, 64
2, 57756, Note_on_c, 0, 79, 0
2, 57840, Note_on_c, 0, 79, 64
2, 57876, Note_on_c, 0, 79, 0
2, 57960, Note_on_c, 0, 81, 80
2, 58020, Note_on_c, 0, 81, 0
2, 58020, Note_on_c, 0, 79, 64
2, 58080, Note_on_c, 0, 79, 0
2, 58080, Note_on_c, 0, 78, 64
2, 58140, Note_on_c, 0, 78, 0
2, 58140, Note_on_c, 0, 76, 64
2, 58200, Note_on_c, 0, 76, 0
2, 58200, Note_on_c, 0, 74, 64
2, 58260, Note_on_c, 0, 74, 0
2, 58260, Note_on_c, 0, 73, 64
2, 58320, Note_on_c, 0, 73, 0
2, 58320, Note_on_c, 0, 76, 64
2, 58440, Note_on_c, 0, 76, 0
2, 58440, Note_on_c, 0, 74, 64
2, 58476, Note_on_c, 0, 74, 0
2, 58560, Note_on_c, 0, 74, 64
2, 58596, Note_on_c, 0, 74, 0
2, 58680, Note_on_c, 0, 74, 64
2, 58860, Note_on_c, 0, 74, 0
2, 58860, Note_on_c, 0, 71, 64
2, 58920, Note_on_c, 0, 71, 0
2, 58920, Note_on_c, 0, 72, 64
2, 58980, Note_on_c, 0, 72, 0
2, 58980, Note_on_c, 0, 69, 64
2, 59040, Note_on_c, 0, 69, 0
2, 59040, Note_on_c, 0, 67, 64
2, 59220, Note_on_c, 0, 67, 0
2, 59220, Note_on_c, 0, 71, 64
2, 59280, Note_on_c, 0, 71, 0
2, 59280, Note_on_c, 0, 69, 64
2, 59400, Note_on_c, 0, 69, 0
2, 59400, Note_on_c, 0, 62, 64
2, 59520, Note_on_c, 0, 62, 0
2, 59520, Note_on_c, 0, 63, 64
2, 59580, Note_on_c, 0, 63, 0
2, 59580, Note_on_c, 0, 64, 64
2, 59640, Note_on_c, 0, 64, 0
2, 59640, Note_on_c, 0, 65, 64
2, 59700, Note_on_c, 0, 65, 0
2, 59700, Note_on_c, 0, 66, 64
2, 59760, Note_on_c, 0, 66, 0
2, 59760, Note_on_c, 0, 67, 64
2, 59796, Note_on_c, 0, 67, 0
2, 59880, Note_on_c, 0, 67, 64
2, 59916, Note_on_c, 0, 67, 0
2, 60000, Note_on_c, 0, 67, 64
2, 60036, Note_on_c, 0, 67, 0
2, 60120, Note_on_c, 0, 67, 64
2, 60360, Note_on_c, 0, 67, 0
2, 60360, Note_on_c, 0, 69, 64
2, 60360, Note_on_c, 0, 62, 64
2, 60450, Note_on_c, 0, 69, 0
2, 60450, Note_on_c, 0, 72, 64
2, 60480, Note_on_c, 0, 72, 0
2, 60480, Note_on_c, 0, 62, 0
2, 60480, Note_on_c, 0, 62, 64
2, 60480, Note_on_c, 0, 71, 64
2, 60540, Note_on_c, 0, 71, 0
2, 60540, Note_on_c, 0, 70, 64
2, 60600, Note_on_c, 0, 70, 0
2, 60600, Note_on_c, 0, 71, 64
2, 60660, Note_on_c, 0, 71, 0
2, 60660, Note_on_c, 0, 70, 64
2, 60720, Note_on_c, 0, 70, 0
2, 60720, Note_on_c, 0, 71, 64
2, 60780, Note_on_c, 0, 71, 0
2, 60780, Note_on_c, 0, 74, 64
2, 60840, Note_on_c, 0, 74, 0
2, 60840, Note_on_c, 0, 62, 0
2, 60840, Note_on_c, 0, 62, 80
2, 60840, Note_on_c, 0, 74, 80
2, 60840, Note_on_c, 0, 66, 80
2, 60960, Note_on_c, 0, 74, 0
2, 60960, Note_on_c, 0, 72, 64
2, 60996, Note_on_c, 0, 72, 0
2, 60996, Note_on_c, 0, 66, 0
2, 60996, Note_on_c, 0, 62, 0
2, 61080, Note_on_c, 0, 67, 64
2, 61080, Note_on_c, 0, 71, 64
2, 61116, Note_on_c, 0, 71, 0
2, 61116, Note_on_c, 0, 67, 0
2, 61200, Note_on_c, 0, 71, 64
2, 61200, Note_on_c, 0, 67, 64
2, 61320, Note_on_c, 0, 67, 0
2, 61320, Note_on_c, 0, 71, 0
2, 61320, Note_on_c, 0, 69, 64
2, 61320, Note_on_c, 0, 66, 64
2, 61356, Note_on_c, 0, 66, 0
2, 61356, Note_on_c, 0, 69, 0
2, 61440, Note_on_c, 0, 69, 64
2, 61440, Note_on_c, 0, 66, 64
2, 61476, Note_on_c, 0, 66, 0
2, 61476, Note_on_c, 0, 69, 0
2, 61560, Note_on_c, 0, 69, 64
2, 61560, Note_on_c, 0, 66, 64
2, 61800, Note_on_c, 0, 66, 0
2, 61800, Note_on_c, 0, 69, 0
2, 61800, Note_on_c, 0, 71, 80
2, 61800, Note_on_c, 0, 68, 80
2, 61872, Note_on_c, 0, 68, 0
2, 61872, Note_on_c, 0, 71, 0
2, 61920, Note_on_c, 0, 69, 64
2, 61920, Note_on_c, 0, 72, 64
2, 62040, Note_on_c, 0, 72, 0
2, 62040, Note_on_c, 0, 69, 0
2, 62040, Note_on_c, 0, 71, 64
2, 62040, Note_on_c, 0, 74, 64
2, 62160, Note_on_c, 0, 74, 0
2, 62160, Note_on_c, 0, 71, 0
2, 62160, Note_on_c, 0, 72, 64
2, 62160, Note_on_c, 0, 76, 64
2, 62196, Note_on_c, 0, 76, 0
2, 62196, Note_on_c, 0, 72, 0
2, 62280, Note_on_c, 0, 72, 64
2, 62280, Note_on_c, 0, 76, 64
2, 62520, Note_on_c, 0, 76, 0
2, 62520, Note_on_c, 0, 72, 0
2, 62520, Note_on_c, 0, 71, 64
2, 62520, Note_on_c, 0, 74, 64
2, 62580, Note_on_c, 0, 74, 0
2, 62580, Note_on_c, 0, 71, 0
2, 62580, Note_on_c, 0, 69, 64
2, 62580, Note_on_c, 0, 72, 64
2, 62640, Note_on_c, 0, 72, 0
2, 62640, Note_on_c, 0, 69, 0
2, 62640, Note_on_c, 0, 71, 64
2, 62700, Note_on_c, 0, 71, 0
2, 62700, Note_on_c, 0, 72, 64
2, 62760, Note_on_c, 0, 72, 0
2, 62760, Note_on_c, 0, 71, 64
2, 62820, Note_on_c, 0, 71, 0
2, 62820, Note_on_c, 0, 72, 64
2, 62880, Note_on_c, 0, 72, 0
2, 62880, Note_on_c, 0, 71, 64
2, 62940, Note_on_c, 0, 71, 0
2, 62940, Note_on_c, 0, 74, 64
2, 63000, Note_on_c, 0, 74, 0
2, 63000, Note_on_c, 0, 72, 64
2, 63120, Note_on_c, 0, 72, 0
2, 63120, Note_on_c, 0, 74, 64
2, 63240, Note_on_c, 0, 74, 0
2, 63240, Note_on_c, 0, 76, 64
2, 63360, Note_on_c, 0, 76, 0
2, 63360, Note_on_c, 0, 74, 64
2, 63480, Note_on_c, 0, 74, 0
2, 63480, Note_on_c, 0, 79, 64
2, 63516, Note_on_c, 0, 79, 0
2, 63600, Note_on_c, 0, 79, 64
2, 63636, Note_on_c, 0, 79, 0
2, 63720, Note_on_c, 0, 81, 80
2, 63780, Note_on_c, 0, 81, 0
2, 63780, Note_on_c, 0, 79, 64
2, 63840, Note_on_c, 0, 79, 0
2, 63840, Note_on_c, 0, 78, 64
2, 63900, Note_on_c, 0, 78, 0
2, 63900, Note_on_c, 0, 76, 64
2, 63960, Note_on_c, 0, 76, 0
2, 63960, Note_on_c, 0, 74, 64
2, 64020, Note_on_c, 0, 74, 0
2, 64020, Note_on_c, 0, 73, 64
2, 64080, Note_on_c, 0, 73, 0
2, 64080, Note_on_c, 0, 76, 64
2, 64200, Note_on_c, 0, 76, 0
2, 64200, Note_on_c, 0, 74, 64
2, 64236, Note_on_c, 0, 74, 0
2, 64320, Note_on_c, 0, 74, 64
2, 64356, Note_on_c, 0, 74, 0
2, 64440, Note_on_c, 0, 74, 64
2, 64553, Note_on_c, 0, 74, 0
2, 64680, Note_on_c, 0, 79, 72
2, 64752, Note_on_c, 0, 79, 0
2, 64800, Note_on_c, 0, 79, 72
2, 64980, Note_on_c, 0, 79, 0
2, 64980, Note_on_c, 0, 83, 72
2, 65040, Note_on_c, 0, 83, 0
2, 65040, Note_on_c, 0, 81, 72
2, 65112, Note_on_c, 0, 81, 0
2, 65160, Note_on_c, 0, 79, 72
2, 65280, Note_on_c, 0, 79, 0
2, 65280, Note_on_c, 0, 78, 72
2, 65400, Note_on_c, 0, 78, 0
2, 65400, Note_on_c, 0, 76, 72
2, 65520, Note_on_c, 0, 76, 0
2, 65520, Note_on_c, 0, 74, 72
2, 65556, Note_on_c, 0, 74, 0
2, 65640, Note_on_c, 0, 74, 72
2, 65676, Note_on_c, 0, 74, 0
2, 65760, Note_on_c, 0, 74, 72
2, 65820, Note_on_c, 0, 74, 0
2, 65880, Note_on_c, 0, 74, 72
2, 66120, Note_on_c, 0, 74, 0
2, 66120, Note_on_c, 0, 75, 88
2, 66240, Note_on_c, 0, 75, 0
2, 66240, Note_on_c, 0, 76, 80
2, 66300, Note_on_c, 0, 76, 0
2, 66300, Note_on_c, 0, 75, 80
2, 66360, Note_on_c, 0, 75, 0
2, 66360, Note_on_c, 0, 78, 80
2, 66420, Note_on_c, 0, 78, 0
2, 66420, Note_on_c, 0, 76, 80
2, 66480, Note_on_c, 0, 76, 0
2, 66480, Note_on_c, 0, 79, 80
2, 66540, Note_on_c, 0, 79, 0
2, 66540, Note_on_c, 0, 78, 80
2, 66600, Note_on_c, 0, 78, 0
2, 66600, Note_on_c, 0, 81, 88
2, 66660, Note_on_c, 0, 81, 0
2, 66660, Note_on_c, 0, 79, 80
2, 66720, Note_on_c, 0, 79, 0
2, 66720, Note_on_c, 0, 78, 80
2, 66780, Note_on_c, 0, 78, 0
2, 66780, Note_on_c, 0, 76, 80
2, 66840, Note_on_c, 0, 76, 0
2, 66840, Note_on_c, 0, 74, 80
2, 66900, Note_on_c, 0, 74, 0
2, 66900, Note_on_c, 0, 73, 80
2, 66960, Note_on_c, 0, 73, 0
2, 66960, Note_on_c, 0, 74, 80
2, 66996, Note_on_c, 0, 74, 0
2, 67200, Note_on_c, 0, 74, 77
2, 67236, Note_on_c, 0, 74, 0
2, 67320, Note_on_c, 0, 74, 76
2, 67356, Note_on_c, 0, 74, 0
2, 67560, Note_on_c, 0, 74, 73
2, 67596, Note_on_c, 0, 74, 0
2, 67680, Note_on_c, 0, 74, 72
2, 67716, Note_on_c, 0, 74, 0
2, 67920, Note_on_c, 0, 74, 69
2, 67956, Note_on_c, 0, 74, 0
2, 68040, Note_on_c, 0, 74, 68
2, 68076, Note_on_c, 0, 74, 0
2, 68280, Note_on_c, 0, 74, 65
2, 68316, Note_on_c, 0, 74, 0
2, 68460, Note_on_c, 0, 74, 65
2, 68520, Note_on_c, 0, 74, 0
2, 68520, Note_on_c, 0, 78, 67
2, 68580, Note_on_c, 0, 78, 0
2, 68580, Note_on_c, 0, 74, 68
2, 68640, Note_on_c, 0, 74, 0
2, 68640, Note_on_c, 0, 76, 69
2, 68700, Note_on_c, 0, 76, 0
2, 68700, Note_on_c, 0, 79, 71
2, 68760, Note_on_c, 0, 79, 0
2, 68820, Note_on_c, 0, 78, 73
2, 68880, Note_on_c, 0, 78, 0
2, 68880, Note_on_c, 0, 81, 75
2, 68940, Note_on_c, 0, 81, 0
2, 68940, Note_on_c, 0, 78, 76
2, 69000, Note_on_c, 0, 78, 0
2, 69000, Note_on_c, 0, 79, 77
2, 69060, Note_on_c, 0, 79, 0
2, 69060, Note_on_c, 0, 83, 79
2, 69120, Note_on_c, 0, 83, 0
2, 69180, Note_on_c, 0, 81, 88
2, 69240, Note_on_c, 0, 81, 0
2, 69240, Note_on_c, 0, 84, 88
2, 69300, Note_on_c, 0, 84, 0
2, 69300, Note_on_c, 0, 78, 88
2, 69360, Note_on_c, 0, 78, 0
2, 69360, Note_on_c, 0, 81, 88
2, 69420, Note_on_c, 0, 81, 0
2, 69420, Note_on_c, 0, 72, 88
2, 69480, Note_on_c, 0, 72, 0
2, 69480, Note_on_c, 0, 78, 88
2, 69540, Note_on_c, 0, 78, 0
2, 69540, Note_on_c, 0, 69, 88
2, 69600, Note_on_c, 0, 69, 0
2, 69600, Note_on_c, 0, 72, 88
2, 69660, Note_on_c, 0, 72, 0
2, 69660, Note_on_c, 0, 66, 88
2, 69720, Note_on_c, 0, 66, 0
2, 69720, Note_on_c, 0, 69, 88
2, 69780, Note_on_c, 0, 69, 0
2, 69780, Note_on_c, 0, 60, 88
2, 69840, Note_on_c, 0, 60, 0
2, 69840, Note_on_c, 0, 76, 88
2, 70560, Note_on_c, 0, 76, 0
2, 70800, Note_on_c, 0, 74, 64
2, 70830, Note_on_c, 0, 74, 0
2, 70830, Note_on_c, 0, 72, 64
2, 70860, Note_on_c, 0, 72, 0
2, 70860, Note_on_c, 0, 71, 64
2, 70890, Note_on_c, 0, 71, 0
2, 70890, Note_on_c, 0, 69, 64
2, 70920, Note_on_c, 0, 69, 0
2, 70920, Note_on_c, 0, 67, 64
2, 71100, Note_on_c, 0, 67, 0
2, 71100, Note_on_c, 0, 71, 64
2, 71160, Note_on_c, 0, 71, 0
2, 71160, Note_on_c, 0, 69, 64
2, 71280, Note_on_c, 0, 69, 0
2, 71280, Note_on_c, 0, 62, 64
2, 71400, Note_on_c, 0, 62, 0
2, 71400, Note_on_c, 0, 63, 64
2, 71460, Note_on_c, 0, 63, 0
2, 71460, Note_on_c, 0, 64, 64
2, 71520, Note_on_c, 0, 64, 0
2, 71520, Note_on_c, 0, 65, 64
2, 71580, Note_on_c, 0, 65, 0
2, 71580, Note_on_c, 0, 66, 64
2, 71640, Note_on_c, 0, 66, 0
2, 71640, Note_on_c, 0, 67, 64
2, 71676, Note_on_c, 0, 67, 0
2, 71760, Note_on_c, 0, 67, 64
2, 71796, Note_on_c, 0, 67, 0
2, 71880, Note_on_c, 0, 67, 64
2, 71916, Note_on_c, 0, 67, 0
2, 72000, Note_on_c, 0, 67, 64
2, 72240, Note_on_c, 0, 67, 0
2, 72240, Note_on_c, 0, 69, 64
2, 72240, Note_on_c, 0, 62, 64
2, 72330, Note_on_c, 0, 69, 0
2, 72330, Note_on_c, 0, 72, 64
2, 72360, Note_on_c, 0, 72, 0
2, 72360, Note_on_c, 0, 62, 0
2, 72360, Note_on_c, 0, 62, 64
2, 72360, Note_on_c, 0, 71, 64
2, 72420, Note_on_c, 0, 71, 0
2, 72420, Note_on_c, 0, 70, 64
2, 72480, Note_on_c, 0, 70, 0
2, 72480, Note_on_c, 0, 71, 64
2, 72540, Note_on_c, 0, 71, 0
2, 72540, Note_on_c, 0, 70, 64
2, 72600, Note_on_c, 0, 70, 0
2, 72600, Note_on_c, 0, 71, 64
2, 72660, Note_on_c, 0, 71, 0
2, 72660, Note_on_c, 0, 74, 64
2, 72720, Note_on_c, 0, 74, 0
2, 72720, Note_on_c, 0, 62, 0
2, 72720, Note_on_c, 0, 62, 80
2, 72720, Note_on_c, 0, 74, 80
2, 72720, Note_on_c, 0, 66, 80
2, 72840, Note_on_c, 0, 74, 0
2, 72840, Note_on_c, 0, 72, 64
2, 72876, Note_on_c, 0, 72, 0
2, 72876, Note_on_c, 0, 66, 0
2, 72876, Note_on_c, 0, 62, 0
2, 72960, Note_on_c, 0, 67, 64
2, 72960, Note_on_c, 0, 71, 64
2, 72996, Note_on_c, 0, 71, 0
2, 72996, Note_on_c, 0, 67, 0
2, 73080, Note_on_c, 0, 71, 64
2, 73080, Note_on_c, 0, 67, 64
2, 73200, Note_on_c, 0, 67, 0
2, 73200, Note_on_c, 0, 71, 0
2, 73200, Note_on_c, 0, 69, 64
2, 73200, Note_on_c, 0, 66, 64
2, 73236, Note_on_c, 0, 66, 0
2, 73236, Note_on_c, 0, 69, 0
2, 73320, Note_on_c, 0, 69, 64
2, 73320, Note_on_c, 0, 66, 64
2, 73356, Note_on_c, 0, 66, 0
2, 73356, Note_on_c, 0, 69, 0
2, 73440, Note_on_c, 0, 69, 64
2, 73440, Note_on_c, 0, 66, 64
2, 73680, Note_on_c, 0, 66, 0
2, 73680, Note_on_c, 0, 69, 0
2, 73680, Note_on_c, 0, 71, 80
2, 73680, Note_on_c, 0, 68, 80
2, 73752, Note_on_c, 0, 68, 0
2, 73752, Note_on_c, 0, 71, 0
2, 73800, Note_on_c, 0, 69, 64
2, 73800, Note_on_c, 0, 72, 64
2, 73920, Note_on_c, 0, 72, 0
2, 73920, Note_on_c, 0, 69, 0
2, 73920, Note_on_c, 0, 71, 64
2, 73920, Note_on_c, 0, 74, 64
2, 74040, Note_on_c, 0, 74, 0
2, 74040, Note_on_c, 0, 71, 0
2, 74040, Note_on_c, 0, 72, 64
2, 74040, Note_on_c, 0, 76, 64
2, 74076, Note_on_c, 0, 76, 0
2, 74076, Note_on_c, 0, 72, 0
2, 74160, Note_on_c, 0, 72, 64
2, 74160, Note_on_c, 0, 76, 64
2, 74400, Note_on_c, 0, 76, 0
2, 74400, Note_on_c, 0, 72, 0
2, 74400, Note_on_c, 0, 71, 64
2, 74400, Note_on_c, 0, 74, 64
2, 74460, Note_on_c, 0, 74, 0
2, 74460, Note_on_c, 0, 71, 0
2, 74460, Note_on_c, 0, 69, 64
2, 74460, Note_on_c, 0, 72, 64
2, 74520, Note_on_c, 0, 72, 0
2, 74520, Note_on_c, 0, 69, 0
2, 74520, Note_on_c, 0, 67, 64
2, 74520, Note_on_c, 0, 71, 64
2, 74640, Note_on_c, 0, 71, 0
2, 74640, Note_on_c, 0, 67, 0
2, 74640, Note_on_c, 0, 69, 67
2, 74640, Note_on_c, 0, 72, 67
2, 74760, Note_on_c, 0, 72, 0
2, 74760, Note_on_c, 0, 69, 0
2, 74760, Note_on_c, 0, 71, 69
2, 74760, Note_on_c, 0, 74, 69
2, 74880, Note_on_c, 0, 74, 0
2, 74880, Note_on_c, 0, 71, 0
2, 74880, Note_on_c, 0, 59, 72
2, 74880, Note_on_c, 0, 67, 72
2, 75000, Note_on_c, 0, 67, 0
2, 75000, Note_on_c, 0, 59, 0
2, 75000, Note_on_c, 0, 60, 75
2, 75000, Note_on_c, 0, 69, 75
2, 75120, Note_on_c, 0, 69, 0
2, 75120, Note_on_c, 0, 60, 0
2, 75120, Note_on_c, 0, 62, 77
2, 75120, Note_on_c, 0, 71, 77
2, 75240, Note_on_c, 0, 71, 0
2, 75240, Note_on_c, 0, 62, 0
2, 75240, Note_on_c, 0, 69, 80
2, 75300, Note_on_c, 0, 64, 80
2, 75360, Note_on_c, 0, 69, 0
2, 75360, Note_on_c, 0, 71, 80
2, 75420, Note_on_c, 0, 64, 0
2, 75420, Note_on_c, 0, 62, 80
2, 75480, Note_on_c, 0, 71, 0
2, 75480, Note_on_c, 0, 72, 80
2, 75540, Note_on_c, 0, 62, 0
2, 75540, Note_on_c, 0, 60, 80
2, 75600, Note_on_c, 0, 72, 0
2, 75600, Note_on_c, 0, 72, 96
2, 75660, Note_on_c, 0, 60, 0
2, 75660, Note_on_c, 0, 60, 80
2, 75720, Note_on_c, 0, 72, 0
2, 75720, Note_on_c, 0, 69, 80
2, 75780, Note_on_c, 0, 60, 0
2, 75780, Note_on_c, 0, 60, 80
2, 75840, Note_on_c, 0, 69, 0
2, 75840, Note_on_c, 0, 66, 80
2, 75900, Note_on_c, 0, 60, 0
2, 75900, Note_on_c, 0, 60, 80
2, 75960, Note_on_c, 0, 60, 0
2, 75960, Note_on_c, 0, 66, 0
2, 75960, Note_on_c, 0, 60, 80
2, 75960, Note_on_c, 0, 69, 80
2, 76320, Note_on_c, 0, 69, 0
2, 76320, Note_on_c, 0, 60, 0
2, 76320, Note_on_c, 0, 59, 72
2, 76320, Note_on_c, 0, 67, 72
2, 76440, Note_on_c, 0, 67, 0
2, 76440, Note_on_c, 0, 59, 0
2, 76560, Note_on_c, 0, 79, 67
2, 76680, Note_on_c, 0, 79, 0
2, 76680, Note_on_c, 0, 79, 72
2, 76860, Note_on_c, 0, 79, 0
2, 76860, Note_on_c, 0, 83, 72
2, 76920, Note_on_c, 0, 83, 0
2, 76920, Note_on_c, 0, 81, 72
2, 76992, Note_on_c, 0, 81, 0
2, 77040, Note_on_c, 0, 79, 72
2, 77160, Note_on_c, 0, 79, 0
2, 77160, Note_on_c, 0, 78, 72
2, 77280, Note_on_c, 0, 78, 0
2, 77280, Note_on_c, 0, 76, 72
2, 77400, Note_on_c, 0, 76, 0
2, 77400, Note_on_c, 0, 74, 72
2, 77436, Note_on_c, 0, 74, 0
2, 77520, Note_on_c, 0, 74, 72
2, 77556, Note_on_c, 0, 74, 0
2, 77640, Note_on_c, 0, 74, 72
2, 77700, Note_on_c, 0, 74, 0
2, 77760, Note_on_c, 0, 74, 72
2, 78000, Note_on_c, 0, 74, 0
2, 78000, Note_on_c, 0, 75, 88
2, 78120, Note_on_c, 0, 75, 0
2, 78120, Note_on_c, 0, 76, 80
2, 78180, Note_on_c, 0, 76, 0
2, 78180, Note_on_c, 0, 75, 80
2, 78240, Note_on_c, 0, 75, 0
2, 78240, Note_on_c, 0, 78, 80
2, 78300, Note_on_c, 0, 78, 0
2, 78300, Note_on_c, 0, 76, 80
2, 78360, Note_on_c, 0, 76, 0
2, 78360, Note_on_c, 0, 79, 80
2, 78420, Note_on_c, 0, 79, 0
2, 78420, Note_on_c, 0, 78, 80
2, 78480, Note_on_c, 0, 78, 0
2, 78480, Note_on_c, 0, 81, 88
2, 78540, Note_on_c, 0, 81, 0
2, 78540, Note_on_c, 0, 79, 80
2, 78600, Note_on_c, 0, 79, 0
2, 78600, Note_on_c, 0, 78, 80
2, 78660, Note_on_c, 0, 78, 0
2, 78660, Note_on_c, 0, 76, 80
2, 78720, Note_on_c, 0, 76, 0
2, 78720, Note_on_c, 0, 74, 80
2, 78780, Note_on_c, 0, 74, 0
2, 78780, Note_on_c, 0, 73, 80
2, 78840, Note_on_c, 0, 73, 0
2, 78840, Note_on_c, 0, 74, 80
2, 78876, Note_on_c, 0, 74, 0
2, 79080, Note_on_c, 0, 74, 77
2, 79116, Note_on_c, 0, 74, 0
2, 79200, Note_on_c, 0, 74, 76
2, 79236, Note_on_c, 0, 74, 0
2, 79440, Note_on_c, 0, 74, 73
2, 79476, Note_on_c, 0, 74, 0
2, 79560, Note_on_c, 0, 74, 72
2, 79596, Note_on_c, 0, 74, 0
2, 79800, Note_on_c, 0, 74, 69
2, 79836, Note_on_c, 0, 74, 0
2, 79920, Note_on_c, 0, 74, 68
2, 79956, Note_on_c, 0, 74, 0
2, 80160, Note_on_c, 0, 74, 65
2, 80196, Note_on_c, 0, 74, 0
2, 80340, Note_on_c, 0, 74, 65
2, 80400, Note_on_c, 0, 74, 0
2, 80400, Note_on_c, 0, 78, 67
2, 80460, Note_on_c, 0, 78, 0
2, 80460, Note_on_c, 0, 74, 68
2, 80520, Note_on_c, 0, 74, 0
2, 80520, Note_on_c, 0, 76, 69
2, 80580, Note_on_c, 0, 76, 0
2, 80580, Note_on_c, 0, 79, 71
2, 80640, Note_on_c, 0, 79, 0
2, 80700, Note_on_c, 0, 78, 73
2, 80760, Note_on_c, 0, 78, 0
2, 80760, Note_on_c, 0, 81, 75
2, 80820, Note_on_c, 0, 81, 0
2, 80820, Note_on_c, 0, 78, 76
2, 80880, Note_on_c, 0, 78, 0
2, 80880, Note_on_c, 0, 79, 77
2, 80940, Note_on_c, 0, 79, 0
2, 80940, Note_on_c, 0, 83, 79
2, 81000, Note_on_c, 0, 83, 0
2, 81060, Note_on_c, 0, 81, 88
2, 81120, Note_on_c, 0, 81, 0
2, 81120, Note_on_c, 0, 84, 88
2, 81180, Note_on_c, 0, 84, 0
2, 81180, Note_on_c, 0, 78, 88
2, 81240, Note_on_c, 0, 78, 0
2, 81240, Note_on_c, 0, 81, 88
2, 81300, Note_on_c, 0, 81, 0
2, 81300, Note_on_c, 0, 72, 88
2, 81360, Note_on_c, 0, 72, 0
2, 81360, Note_on_c, 0, 78, 88
2, 81420, Note_on_c, 0, 78, 0
2, 81420, Note_on_c, 0, 69, 88
2, 81480, Note_on_c, 0, 69, 0
2, 81480, Note_on_c, 0, 72, 88
2, 81540, Note_on_c, 0, 72, 0
2, 81540, Note_on_c, 0, 66, 88
2, 81600, Note_on_c, 0, 66, 0
2, 81600, Note_on_c, 0, 69, 88
2, 81660, Note_on_c, 0, 69, 0
2, 81660, Note_on_c, 0, 60, 88
2, 81720, Note_on_c, 0, 60, 0
2, 81720, Note_on_c, 0, 76, 88
2, 82440, Note_on_c, 0, 76, 0
2, 82680, Note_on_c, 0, 74, 64
2, 82710, Note_on_c, 0, 74, 0
2, 82710, Note_on_c, 0, 72, 64
2, 82740, Note_on_c, 0, 72, 0
2, 82740, Note_on_c, 0, 71, 64
2, 82770, Note_on_c, 0, 71, 0
2, 82770, Note_on_c, 0, 69, 64
2, 82800, Note_on_c, 0, 69, 0
2, 82800, Note_on_c, 0, 67, 64
2, 82980, Note_on_c, 0, 67, 0
2, 82980, Note_on_c, 0, 71, 64
2, 83040, Note_on_c, 0, 71, 0
2, 83040, Note_on_c, 0, 69, 64
2, 83160, Note_on_c, 0, 69, 0
2, 83160, Note_on_c, 0, 62, 64
2, 83280, Note_on_c, 0, 62, 0
2, 83280, Note_on_c, 0, 63, 64
2, 83340, Note_on_c, 0, 63, 0
2, 83340, Note_on_c, 0, 64, 64
2, 83400, Note_on_c, 0, 64, 0
2, 83400, Note_on_c, 0, 65, 64
2, 83460, Note_on_c, 0, 65, 0
2, 83460, Note_on_c, 0, 66, 64
2, 83520, Note_on_c, 0, 66, 0
2, 83520, Note_on_c, 0, 67, 64
2, 83556, Note_on_c, 0, 67, 0
2, 83640, Note_on_c, 0, 67, 64
2, 83676, Note_on_c, 0, 67, 0
2, 83760, Note_on_c, 0, 67, 64
2, 83796, Note_on_c, 0, 67, 0
2, 83880, Note_on_c, 0, 67, 64
2, 84120, Note_on_c, 0, 67, 0
2, 84120, Note_on_c, 0, 62, 64
2, 84120, Note_on_c, 0, 69, 64
2, 84210, Note_on_c, 0, 69, 0
2, 84210, Note_on_c, 0, 72, 64
2, 84240, Note_on_c, 0, 72, 0
2, 84240, Note_on_c, 0, 62, 0
2, 84240, Note_on_c, 0, 71, 64
2, 84240, Note_on_c, 0, 62, 64
2, 84300, Note_on_c, 0, 71, 0
2, 84300, Note_on_c, 0, 70, 64
2, 84360, Note_on_c, 0, 70, 0
2, 84360, Note_on_c, 0, 71, 64
2, 84420, Note_on_c, 0, 71, 0
2, 84420, Note_on_c, 0, 70, 64
2, 84480, Note_on_c, 0, 70, 0
2, 84480, Note_on_c, 0, 71, 64
2, 84540, Note_on_c, 0, 71, 0
2, 84540, Note_on_c, 0, 74, 64
2, 84600, Note_on_c, 0, 74, 0
2, 84600, Note_on_c, 0, 62, 0
2, 84600, Note_on_c, 0, 66, 80
2, 84600, Note_on_c, 0, 74, 80
2, 84600, Note_on_c, 0, 62, 80
2, 84720, Note_on_c, 0, 74, 0
2, 84720, Note_on_c, 0, 72, 64
2, 84756, Note_on_c, 0, 72, 0
2, 84756, Note_on_c, 0, 62, 0
2, 84756, Note_on_c, 0, 66, 0
2, 84840, Note_on_c, 0, 71, 64
2, 84840, Note_on_c, 0, 67, 64
2, 84876, Note_on_c, 0, 67, 0
2, 84876, Note_on_c, 0, 71, 0
2, 84960, Note_on_c, 0, 67, 64
2, 84960, Note_on_c, 0, 71, 64
2, 85080, Note_on_c, 0, 71, 0
2, 85080, Note_on_c, 0, 67, 0
2, 85080, Note_on_c, 0, 66, 64
2, 85080, Note_on_c, 0, 69, 64
2, 85116, Note_on_c, 0, 69, 0
2, 85116, Note_on_c, 0, 66, 0
2, 85200, Note_on_c, 0, 66, 64
2, 85200, Note_on_c, 0, 69, 64
2, 85236, Note_on_c, 0, 69, 0
2, 85236, Note_on_c, 0, 66, 0
2, 85320, Note_on_c, 0, 66, 64
2, 85320, Note_on_c, 0, 69, 64
2, 85560, Note_on_c, 0, 69, 0
2, 85560, Note_on_c, 0, 66, 0
2, 85560, Note_on_c, 0, 68, 80
2, 85560, Note_on_c, 0, 71, 80
2, 85632, Note_on_c, 0, 71, 0
2, 85632, Note_on_c, 0, 68, 0
2, 85680, Note_on_c, 0, 72, 64
2, 85680, Note_on_c, 0, 69, 64
2, 85800, Note_on_c, 0, 69, 0
2, 85800, Note_on_c, 0, 72, 0
2, 85800, Note_on_c, 0, 74, 64
2, 85800, Note_on_c, 0, 71, 64
2, 85920, Note_on_c, 0, 71, 0
2, 85920, Note_on_c, 0, 74, 0
2, 85920, Note_on_c, 0, 76, 64
2, 85920, Note_on_c, 0, 72, 64
2, 85956, Note_on_c, 0, 72, 0
2, 85956, Note_on_c, 0, 76, 0
2, 86040, Note_on_c, 0, 76, 64
2, 86040, Note_on_c, 0, 72, 64
2, 86280, Note_on_c, 0, 72, 0
2, 86280, Note_on_c, 0, 76, 0
2, 86280, Note_on_c, 0, 74, 64
2, 86280, Note_on_c, 0, 71, 64
2, 86340, Note_on_c, 0, 71, 0
2, 86340, Note_on_c, 0, 74, 0
2, 86340, Note_on_c, 0, 72, 64
2, 86340, Note_on_c, 0, 69, 64
2, 86400, Note_on_c, 0, 69, 0
2, 86400, Note_on_c, 0, 72, 0
2, 86400, Note_on_c, 0, 71, 64
2, 86400, Note_on_c, 0, 67, 64
2, 86520, Note_on_c, 0, 67, 0
2, 86520, Note_on_c, 0, 71, 0
2, 86520, Note_on_c, 0, 72, 67
2, 86520, Note_on_c, 0, 69, 67
2, 86640, Note_on_c, 0, 69, 0
2, 86640, Note_on_c, 0, 72, 0
2, 86640, Note_on_c, 0, 74, 69
2, 86640, Note_on_c, 0, 71, 69
2, 86760, Note_on_c, 0, 71, 0
2, 86760, Note_on_c, 0, 74, 0
2, 86760, Note_on_c, 0, 67, 72
2, 86760, Note_on_c, 0, 59, 72
2, 86880, Note_on_c, 0, 59, 0
2, 86880, Note_on_c, 0, 67, 0
2, 86880, Note_on_c, 0, 69, 75
2, 86880, Note_on_c, 0, 60, 75
2, 87000, Note_on_c, 0, 60, 0
2, 87000, Note_on_c, 0, 69, 0
2, 87000, Note_on_c, 0, 71, 77
2, 87000, Note_on_c, 0, 62, 77
2, 87120, Note_on_c, 0, 62, 0
2, 87120, Note_on_c, 0, 71, 0
2, 87120, Note_on_c, 0, 69, 80
2, 87180, Note_on_c, 0, 64, 80
2, 87240, Note_on_c, 0, 69, 0
2, 87240, Note_on_c, 0, 71, 80
2, 87300, Note_on_c, 0, 64, 0
2, 87300, Note_on_c, 0, 62, 80
2, 87360, Note_on_c, 0, 71, 0
2, 87360, Note_on_c, 0, 72, 80
2, 87420, Note_on_c, 0, 62, 0
2, 87420, Note_on_c, 0, 60, 80
2, 87480, Note_on_c, 0, 72, 0
2, 87480, Note_on_c, 0, 72, 96
2, 87540, Note_on_c, 0, 60, 0
2, 87540, Note_on_c, 0, 60, 80
2, 87600, Note_on_c, 0, 72, 0
2, 87600, Note_on_c, 0, 69, 80
2, 87660, Note_on_c, 0, 60, 0
2, 87660, Note_on_c, 0, 60, 80
2, 87720, Note_on_c, 0, 69, 0
2, 87720, Note_on_c, 0, 66, 80
2, 87780, Note_on_c, 0, 60, 0
2, 87780, Note_on_c, 0, 60, 80
2, 87840, Note_on_c, 0, 60, 0
2, 87840, Note_on_c, 0, 66, 0
2, 87840, Note_on_c, 0, 69, 80
2, 87840, Note_on_c, 0, 60, 80
2, 88200, Note_on_c, 0, 60, 0
2, 88200, Note_on_c, 0, 69, 0
2, 88200, Note_on_c, 0, 67, 72
2, 88200, Note_on_c, 0, 59, 72
2, 88320, Note_on_c, 0, 59, 0
2, 88320, Note_on_c, 0, 67, 0
2, 88440, Note_on_c, 0, 74, 64
2, 88476, Note_on_c, 0, 74, 0
2, 88560, Note_on_c, 0, 74, 64
2, 88596, Note_on_c, 0, 74, 0
2, 88800, Note_on_c, 0, 74, 64
2, 88860, Note_on_c, 0, 74, 0
2, 88860, Note_on_c, 0, 75, 64
2, 88920, Note_on_c, 0, 75, 0
2, 88920, Note_on_c, 0, 75, 64
2, 88956, Note_on_c, 0, 75, 0
2, 89160, Note_on_c, 0, 79, 64
2, 89220, Note_on_c, 0, 79, 0
2, 89220, Note_on_c, 0, 78, 64
2, 89280, Note_on_c, 0, 78, 0
2, 89280, Note_on_c, 0, 78, 64
2, 89316, Note_on_c, 0, 78, 0
2, 89520, Note_on_c, 0, 82, 64
2, 89580, Note_on_c, 0, 82, 0
2, 89580, Note_on_c, 0, 78, 64
2, 89640, Note_on_c, 0, 78, 0
2, 89640, Note_on_c, 0, 79, 64
2, 89676, Note_on_c, 0, 79, 0
2, 89880, Note_on_c, 0, 82, 80
2, 89940, Note_on_c, 0, 82, 0
2, 89940, Note_on_c, 0, 81, 80
2, 90000, Note_on_c, 0, 81, 0
2, 90000, Note_on_c, 0, 84, 80
2, 90180, Note_on_c, 0, 84, 0
2, 90180, Note_on_c, 0, 82, 80
2, 90240, Note_on_c, 0, 82, 0
2, 90240, Note_on_c, 0, 81, 80
2, 90270, Note_on_c, 0, 81, 0
2, 90270, Note_on_c, 0, 79, 80
2, 90300, Note_on_c, 0, 79, 0
2, 90300, Note_on_c, 0, 77, 80
2, 90330, Note_on_c, 0, 77, 0
2, 90330, Note_on_c, 0, 76, 80
2, 90345, Note_on_c, 0, 76, 0
2, 90345, Note_on_c, 0, 74, 80
2, 90420, Note_on_c, 0, 74, 0
2, 90480, Note_on_c, 0, 88, 96
2, 90480, Note_on_c, 0, 85, 96
2, 90480, Note_on_c, 0, 82, 96
2, 90480, Note_on_c, 0, 79, 96
2, 90720, Note_on_c, 0, 79, 0
2, 90720, Note_on_c, 0, 88, 0
2, 90720, Note_on_c, 0, 85, 0
2, 90720, Note_on_c, 0, 82, 0
2, 90750, Note_on_c, 0, 77, 80
2, 90780, Note_on_c, 0, 77, 0
2, 90780, Note_on_c, 0, 81, 80
2, 90810, Note_on_c, 0, 81, 0
2, 90810, Note_on_c, 0, 85, 80
2, 90840, Note_on_c, 0, 85, 0
2, 90840, Note_on_c, 0, 86, 80
2, 90870, Note_on_c, 0, 86, 0
2, 90870, Note_on_c, 0, 81, 80
2, 90900, Note_on_c, 0, 81, 0
2, 90900, Note_on_c, 0, 85, 80
2, 90930, Note_on_c, 0, 85, 0
2, 90930, Note_on_c, 0, 86, 80
2, 90960, Note_on_c, 0, 86, 0
2, 90960, Note_on_c, 0, 88, 80
2, 90990, Note_on_c, 0, 88, 0
2, 90990, Note_on_c, 0, 81, 80
2, 91020, Note_on_c, 0, 81, 0
2, 91020, Note_on_c, 0, 86, 80
2, 91050, Note_on_c, 0, 86, 0
2, 91050, Note_on_c, 0, 88, 80
2, 91080, Note_on_c, 0, 88, 0
2, 91080, Note_on_c, 0, 89, 80
2, 91116, Note_on_c, 0, 89, 0
2, 91200, Note_on_c, 0, 74, 96
2, 91200, Note_on_c, 0, 77, 96
2, 91200, Note_on_c, 0, 83, 96
2, 91440, Note_on_c, 0, 83, 0
2, 91440, Note_on_c, 0, 77, 0
2, 91440, Note_on_c, 0, 74, 0
2, 91560, Note_on_c, 0, 69, 96
2, 91560, Note_on_c, 0, 81, 96
2, 91680, Note_on_c, 0, 81, 0
2, 91680, Note_on_c, 0, 69, 0
2, 91680, Note_on_c, 0, 77, 80
2, 91740, Note_on_c, 0, 77, 0
2, 91740, Note_on_c, 0, 74, 80
2, 91800, Note_on_c, 0, 74, 0
2, 91920, Note_on_c, 0, 69, 96
2, 91920, Note_on_c, 0, 79, 96
2, 92040, Note_on_c, 0, 79, 0
2, 92040, Note_on_c, 0, 69, 0
2, 92040, Note_on_c, 0, 76, 80
2, 92100, Note_on_c, 0, 76, 0
2, 92100, Note_on_c, 0, 73, 80
2, 92160, Note_on_c, 0, 73, 0
2, 92160, Note_on_c, 0, 73, 72
2, 92400, Note_on_c, 0, 73, 0
2, 92400, Note_on_c, 0, 74, 56
2, 92436, Note_on_c, 0, 74, 0
2, 92520, Note_on_c, 0, 74, 56
2, 92580, Note_on_c, 0, 74, 0
2, 92760, Note_on_c, 0, 74, 64
2, 92796, Note_on_c, 0, 74, 0
2, 92880, Note_on_c, 0, 74, 64
2, 92916, Note_on_c, 0, 74, 0
2, 93120, Note_on_c, 0, 74, 64
2, 93180, Note_on_c, 0, 74, 0
2, 93180, Note_on_c, 0, 75, 64
2, 93240, Note_on_c, 0, 75, 0
2, 93240, Note_on_c, 0, 75, 64
2, 93276, Note_on_c, 0, 75, 0
2, 93480, Note_on_c, 0, 79, 64
2, 93540, Note_on_c, 0, 79, 0
2, 93540, Note_on_c, 0, 78, 64
2, 93600, Note_on_c, 0, 78, 0
2, 93600, Note_on_c, 0, 78, 64
2, 93636, Note_on_c, 0, 78, 0
2, 93840, Note_on_c, 0, 82, 64
2, 93900, Note_on_c, 0, 82, 0
2, 93900, Note_on_c, 0, 78, 64
2, 93960, Note_on_c, 0, 78, 0
2, 93960, Note_on_c, 0, 79, 64
2, 93996, Note_on_c, 0, 79, 0
2, 94200, Note_on_c, 0, 82, 80
2, 94260, Note_on_c, 0, 82, 0
2, 94260, Note_on_c, 0, 81, 80
2, 94320, Note_on_c, 0, 81, 0
2, 94320, Note_on_c, 0, 84, 80
2, 94500, Note_on_c, 0, 84, 0
2, 94500, Note_on_c, 0, 82, 80
2, 94560, Note_on_c, 0, 82, 0
2, 94560, Note_on_c, 0, 81, 80
2, 94590, Note_on_c, 0, 81, 0
2, 94590, Note_on_c, 0, 79, 80
2, 94620, Note_on_c, 0, 79, 0
2, 94620, Note_on_c, 0, 77, 80
2, 94650, Note_on_c, 0, 77, 0
2, 94650, Note_on_c, 0, 76, 80
2, 94665, Note_on_c, 0, 76, 0
2, 94665, Note_on_c, 0, 74, 80
2, 94740, Note_on_c, 0, 74, 0
2, 94800, Note_on_c, 0, 79, 96
2, 94800, Note_on_c, 0, 82, 96
2, 94800, Note_on_c, 0, 85, 96
2, 94800, Note_on_c, 0, 88, 96
2, 95040, Note_on_c, 0, 88, 0
2, 95040, Note_on_c, 0, 79, 0
2, 95040, Note_on_c, 0, 82, 0
2, 95040, Note_on_c, 0, 85, 0
2, 95070, Note_on_c, 0, 77, 80
2, 95100, Note_on_c, 0, 77, 0
2, 95100, Note_on_c, 0, 81, 80
2, 95130, Note_on_c, 0, 81, 0
2, 95130, Note_on_c, 0, 85, 80
2, 95160, Note_on_c, 0, 85, 0
2, 95160, Note_on_c, 0, 86, 80
2, 95190, Note_on_c, 0, 86, 0
2, 95190, Note_on_c, 0, 81, 80
2, 95220, Note_on_c, 0, 81, 0
2, 95220, Note_on_c, 0, 85, 80
2, 95250, Note_on_c, 0, 85, 0
2, 95250, Note_on_c, 0, 86, 80
2, 95280, Note_on_c, 0, 86, 0
2, 95280, Note_on_c, 0, 88, 80
2, 95310, Note_on_c, 0, 88, 0
2, 95310, Note_on_c, 0, 81, 80
2, 95340, Note_on_c, 0, 81, 0
2, 95340, Note_on_c, 0, 86, 80
2, 95370, Note_on_c, 0, 86, 0
2, 95370, Note_on_c, 0, 88, 80
2, 95400, Note_on_c, 0, 88, 0
2, 95400, Note_on_c, 0, 89, 80
2, 95436, Note_on_c, 0, 89, 0
2, 95520, Note_on_c, 0, 83, 96
2, 95520, Note_on_c, 0, 77, 96
2, 95520, Note_on_c, 0, 74, 96
2, 95760, Note_on_c, 0, 74, 0
2, 95760, Note_on_c, 0, 77, 0
2, 95760, Note_on_c, 0, 83, 0
2, 95880, Note_on_c, 0, 81, 96
2, 95880, Note_on_c, 0, 69, 96
2, 96000, Note_on_c, 0, 69, 0
2, 96000, Note_on_c, 0, 81, 0
2, 96000, Note_on_c, 0, 77, 80
2, 96060, Note_on_c, 0, 77, 0
2, 96060, Note_on_c, 0, 74, 80
2, 96120, Note_on_c, 0, 74, 0
2, 96240, Note_on_c, 0, 79, 96
2, 96240, Note_on_c, 0, 69, 96
2, 96360, Note_on_c, 0, 69, 0
2, 96360, Note_on_c, 0, 79, 0
2, 96360, Note_on_c, 0, 76, 80
2, 96420, Note_on_c, 0, 76, 0
2, 96420, Note_on_c, 0, 73, 80
2, 96480, Note_on_c, 0, 73, 0
2, 96480, Note_on_c, 0, 73, 72
2, 96720, Note_on_c, 0, 73, 0
2, 96720, Note_on_c, 0, 74, 56
2, 96756, Note_on_c, 0, 74, 0
2, 96840, Note_on_c, 0, 74, 56
2, 96900, Note_on_c, 0, 74, 0
2, 97080, Note_on_c, 0, 74, 64
2, 97116, Note_on_c, 0, 74, 0
2, 97200, Note_on_c, 0, 74, 64
2, 97236, Note_on_c, 0, 74, 0
2, 97440, Note_on_c, 0, 67, 64
2, 97560, Note_on_c, 0, 67, 0
2, 97560, Note_on_c, 0, 72, 64
2, 97596, Note_on_c, 0, 72, 0
2, 97800, Note_on_c, 0, 66, 64
2, 97920, Note_on_c, 0, 66, 0
2, 97920, Note_on_c, 0, 70, 64
2, 97956, Note_on_c, 0, 70, 0
2, 98160, Note_on_c, 0, 61, 64
2, 98280, Note_on_c, 0, 61, 0
2, 98280, Note_on_c, 0, 62, 64
2, 98316, Note_on_c, 0, 62, 0
2, 98520, Note_on_c, 0, 67, 80
2, 98580, Note_on_c, 0, 67, 0
2, 98580, Note_on_c, 0, 79, 80
2, 98640, Note_on_c, 0, 79, 0
2, 98640, Note_on_c, 0, 69, 64
2, 98700, Note_on_c, 0, 69, 0
2, 98700, Note_on_c, 0, 79, 64
2, 98760, Note_on_c, 0, 79, 0
2, 98760, Note_on_c, 0, 78, 64
2, 98820, Note_on_c, 0, 78, 0
2, 98820, Note_on_c, 0, 69, 64
2, 98880, Note_on_c, 0, 69, 0
2, 98880, Note_on_c, 0, 67, 80
2, 98940, Note_on_c, 0, 67, 0
2, 98940, Note_on_c, 0, 79, 80
2, 99000, Note_on_c, 0, 79, 0
2, 99000, Note_on_c, 0, 69, 64
2, 99060, Note_on_c, 0, 69, 0
2, 99060, Note_on_c, 0, 79, 64
2, 99120, Note_on_c, 0, 79, 0
2, 99120, Note_on_c, 0, 78, 64
2, 99180, Note_on_c, 0, 78, 0
2, 99180, Note_on_c, 0, 69, 64
2, 99240, Note_on_c, 0, 69, 0
2, 99240, Note_on_c, 0, 67, 80
2, 99300, Note_on_c, 0, 67, 0
2, 99300, Note_on_c, 0, 79, 80
2, 99360, Note_on_c, 0, 79, 0
2, 99360, Note_on_c, 0, 75, 96
2, 99420, Note_on_c, 0, 75, 0
2, 99420, Note_on_c, 0, 87, 80
2, 99480, Note_on_c, 0, 87, 0
2, 99480, Note_on_c, 0, 74, 80
2, 99540, Note_on_c, 0, 74, 0
2, 99540, Note_on_c, 0, 86, 80
2, 99600, Note_on_c, 0, 86, 0
2, 99600, Note_on_c, 0, 72, 80
2, 99660, Note_on_c, 0, 72, 0
2, 99660, Note_on_c, 0, 84, 80
2, 99780, Note_on_c, 0, 84, 0
2, 99780, Note_on_c, 0, 82, 80
2, 99840, Note_on_c, 0, 82, 0
2, 99840, Note_on_c, 0, 81, 80
2, 99900, Note_on_c, 0, 81, 0
2, 99900, Note_on_c, 0, 79, 80
2, 99960, Note_on_c, 0, 79, 0
2, 99960, Note_on_c, 0, 78, 80
2, 100020, Note_on_c, 0, 78, 0
2, 100020, Note_on_c, 0, 79, 80
2, 100080, Note_on_c, 0, 79, 0
2, 100080, Note_on_c, 0, 77, 80
2, 100140, Note_on_c, 0, 77, 0
2, 100140, Note_on_c, 0, 75, 79
2, 100200, Note_on_c, 0, 75, 0
2, 100200, Note_on_c, 0, 74, 77
2, 100260, Note_on_c, 0, 74, 0
2, 100260, Note_on_c, 0, 72, 76
2, 100320, Note_on_c, 0, 72, 0
2, 100320, Note_on_c, 0, 70, 75
2, 100380, Note_on_c, 0, 70, 0
2, 100380, Note_on_c, 0, 69, 73
2, 100440, Note_on_c, 0, 69, 0
2, 100440, Note_on_c, 0, 67, 72
2, 100620, Note_on_c, 0, 67, 0
2, 100620, Note_on_c, 0, 69, 68
2, 100680, Note_on_c, 0, 69, 0
2, 100680, Note_on_c, 0, 66, 67
2, 100800, Note_on_c, 0, 66, 0
2, 101040, Note_on_c, 0, 67, 48
2, 101076, Note_on_c, 0, 67, 0
2, 101160, Note_on_c, 0, 67, 48
2, 101196, Note_on_c, 0, 67, 0
2, 101400, Note_on_c, 0, 74, 64
2, 101436, Note_on_c, 0, 74, 0
2, 101520, Note_on_c, 0, 74, 64
2, 101556, Note_on_c, 0, 74, 0
2, 101760, Note_on_c, 0, 67, 64
2, 101880, Note_on_c, 0, 67, 0
2, 101880, Note_on_c, 0, 72, 64
2, 101916, Note_on_c, 0, 72, 0
2, 102120, Note_on_c, 0, 66, 64
2, 102240, Note_on_c, 0, 66, 0
2, 102240, Note_on_c, 0, 70, 64
2, 102276, Note_on_c, 0, 70, 0
2, 102480, Note_on_c, 0, 61, 64
2, 102600, Note_on_c, 0, 61, 0
2, 102600, Note_on_c, 0, 62, 64
2, 102636, Note_on_c, 0, 62, 0
2, 102840, Note_on_c, 0, 67, 80
2, 102900, Note_on_c, 0, 67, 0
2, 102900, Note_on_c, 0, 79, 80
2, 102960, Note_on_c, 0, 79, 0
2, 102960, Note_on_c, 0, 69, 64
2, 103020, Note_on_c, 0, 69, 0
2, 103020, Note_on_c, 0, 79, 64
2, 103080, Note_on_c, 0, 79, 0
2, 103080, Note_on_c, 0, 78, 64
2, 103140, Note_on_c, 0, 78, 0
2, 103140, Note_on_c, 0, 69, 64
2, 103200, Note_on_c, 0, 69, 0
2, 103200, Note_on_c, 0, 67, 80
2, 103260, Note_on_c, 0, 67, 0
2, 103260, Note_on_c, 0, 79, 80
2, 103320, Note_on_c, 0, 79, 0
2, 103320, Note_on_c, 0, 69, 64
2, 103380, Note_on_c, 0, 69, 0
2, 103380, Note_on_c, 0, 79, 64
2, 103440, Note_on_c, 0, 79, 0
2, 103440, Note_on_c, 0, 78, 64
2, 103500, Note_on_c, 0, 78, 0
2, 103500, Note_on_c, 0, 69, 64
2, 103560, Note_on_c, 0, 69, 0
2, 103560, Note_on_c, 0, 67, 80
2, 103620, Note_on_c, 0, 67, 0
2, 103620, Note_on_c, 0, 79, 80
2, 103680, Note_on_c, 0, 79, 0
2, 103680, Note_on_c, 0, 75, 96
2, 103740, Note_on_c, 0, 75, 0
2, 103740, Note_on_c, 0, 87, 80
2, 103800, Note_on_c, 0, 87, 0
2, 103800, Note_on_c, 0, 74, 80
2, 103860, Note_on_c, 0, 74, 0
2, 103860, Note_on_c, 0, 86, 80
2, 103920, Note_on_c, 0, 86, 0
2, 103920, Note_on_c, 0, 72, 80
2, 103980, Note_on_c, 0, 72, 0
2, 103980, Note_on_c, 0, 84, 80
2, 104100, Note_on_c, 0, 84, 0
2, 104100, Note_on_c, 0, 82, 80
2, 104160, Note_on_c, 0, 82, 0
2, 104160, Note_on_c, 0, 81, 80
2, 104220, Note_on_c, 0, 81, 0
2, 104220, Note_on_c, 0, 79, 80
2, 104280, Note_on_c, 0, 79, 0
2, 104280, Note_on_c, 0, 78, 80
2, 104340, Note_on_c, 0, 78, 0
2, 104340, Note_on_c, 0, 79, 80
2, 104400, Note_on_c, 0, 79, 0
2, 104400, Note_on_c, 0, 77, 80
2, 104460, Note_on_c, 0, 77, 0
2, 104460, Note_on_c, 0, 75, 79
2, 104520, Note_on_c, 0, 75, 0
2, 104520, Note_on_c, 0, 74, 77
2, 104580, Note_on_c, 0, 74, 0
2, 104580, Note_on_c, 0, 72, 76
2, 104640, Note_on_c, 0, 72, 0
2, 104640, Note_on_c, 0, 70, 75
2, 104700, Note_on_c, 0, 70, 0
2, 104700, Note_on_c, 0, 69, 73
2, 104760, Note_on_c, 0, 69, 0
2, 104760, Note_on_c, 0, 67, 72
2, 104940, Note_on_c, 0, 67, 0
2, 104940, Note_on_c, 0, 69, 68
2, 105000, Note_on_c, 0, 69, 0
2, 105000, Note_on_c, 0, 66, 67
2, 105120, Note_on_c, 0, 66, 0
2, 105360, Note_on_c, 0, 67, 48
2, 105396, Note_on_c, 0, 67, 0
2, 105480, Note_on_c, 0, 67, 48
2, 105516, Note_on_c, 0, 67, 0
2, 105720, Note_on_c, 0, 67, 64
2, 105804, Note_on_c, 0, 67, 0
2, 105840, Note_on_c, 0, 67, 64
2, 106020, Note_on_c, 0, 67, 0
2, 106020, Note_on_c, 0, 71, 64
2, 106080, Note_on_c, 0, 71, 0
2, 106080, Note_on_c, 0, 69, 64
2, 106152, Note_on_c, 0, 69, 0
2, 106200, Note_on_c, 0, 62, 64
2, 106320, Note_on_c, 0, 62, 0
2, 106320, Note_on_c, 0, 66, 64
2, 106380, Note_on_c, 0, 66, 0
2, 106380, Note_on_c, 0, 64, 64
2, 106440, Note_on_c, 0, 64, 0
2, 106440, Note_on_c, 0, 67, 64
2, 106500, Note_on_c, 0, 67, 0
2, 106500, Note_on_c, 0, 66, 64
2, 106560, Note_on_c, 0, 66, 0
2, 106560, Note_on_c, 0, 69, 64
2, 106620, Note_on_c, 0, 69, 0
2, 106620, Note_on_c, 0, 67, 64
2, 106680, Note_on_c, 0, 67, 0
2, 106680, Note_on_c, 0, 72, 64
2, 106740, Note_on_c, 0, 72, 0
2, 106740, Note_on_c, 0, 71, 64
2, 106800, Note_on_c, 0, 71, 0
2, 106800, Note_on_c, 0, 74, 64
2, 106860, Note_on_c, 0, 74, 0
2, 106860, Note_on_c, 0, 71, 64
2, 106920, Note_on_c, 0, 71, 0
2, 106920, Note_on_c, 0, 67, 64
2, 107160, Note_on_c, 0, 67, 0
2, 107160, Note_on_c, 0, 62, 80
2, 107160, Note_on_c, 0, 69, 80
2, 107232, Note_on_c, 0, 69, 0
2, 107232, Note_on_c, 0, 62, 0
2, 107280, Note_on_c, 0, 62, 64
2, 107280, Note_on_c, 0, 70, 64
2, 107340, Note_on_c, 0, 70, 0
2, 107340, Note_on_c, 0, 71, 64
2, 107400, Note_on_c, 0, 71, 0
2, 107400, Note_on_c, 0, 72, 64
2, 107460, Note_on_c, 0, 72, 0
2, 107460, Note_on_c, 0, 73, 64
2, 107520, Note_on_c, 0, 73, 0
2, 107520, Note_on_c, 0, 74, 64
2, 107640, Note_on_c, 0, 74, 0
2, 107640, Note_on_c, 0, 62, 0
2, 107640, Note_on_c, 0, 62, 80
2, 107640, Note_on_c, 0, 66, 80
2, 107640, Note_on_c, 0, 74, 80
2, 107760, Note_on_c, 0, 74, 0
2, 107760, Note_on_c, 0, 72, 64
2, 107880, Note_on_c, 0, 72, 0
2, 107880, Note_on_c, 0, 66, 0
2, 107880, Note_on_c, 0, 71, 64
2, 107916, Note_on_c, 0, 71, 0
2, 107916, Note_on_c, 0, 62, 0
2, 108000, Note_on_c, 0, 67, 64
2, 108000, Note_on_c, 0, 71, 64
2, 108120, Note_on_c, 0, 71, 0
2, 108120, Note_on_c, 0, 67, 0
2, 108120, Note_on_c, 0, 66, 64
2, 108120, Note_on_c, 0, 69, 64
2, 108156, Note_on_c, 0, 69, 0
2, 108156, Note_on_c, 0, 66, 0
2, 108240, Note_on_c, 0, 66, 64
2, 108240, Note_on_c, 0, 69, 64
2, 108276, Note_on_c, 0, 69, 0
2, 108276, Note_on_c, 0, 66, 0
2, 108360, Note_on_c, 0, 66, 64
2, 108360, Note_on_c, 0, 69, 64
2, 108600, Note_on_c, 0, 69, 0
2, 108600, Note_on_c, 0, 66, 0
2, 108600, Note_on_c, 0, 68, 80
2, 108600, Note_on_c, 0, 71, 80
2, 108720, Note_on_c, 0, 71, 0
2, 108720, Note_on_c, 0, 68, 0
2, 108720, Note_on_c, 0, 72, 64
2, 108750, Note_on_c, 0, 72, 0
2, 108750, Note_on_c, 0, 69, 64
2, 108780, Note_on_c, 0, 69, 0
2, 108780, Note_on_c, 0, 71, 64
2, 108810, Note_on_c, 0, 71, 0
2, 108810, Note_on_c, 0, 72, 64
2, 108840, Note_on_c, 0, 72, 0
2, 108840, Note_on_c, 0, 74, 64
2, 108870, Note_on_c, 0, 74, 0
2, 108870, Note_on_c, 0, 76, 64
2, 108900, Note_on_c, 0, 76, 0
2, 108900, Note_on_c, 0, 78, 64
2, 108930, Note_on_c, 0, 78, 0
2, 108930, Note_on_c, 0, 80, 64
2, 108960, Note_on_c, 0, 80, 0
2, 108960, Note_on_c, 0, 81, 64
2, 108990, Note_on_c, 0, 81, 0
2, 108990, Note_on_c, 0, 83, 64
2, 109020, Note_on_c, 0, 83, 0
2, 109020, Note_on_c, 0, 84, 64
2, 109050, Note_on_c, 0, 84, 0
2, 109050, Note_on_c, 0, 86, 64
2, 109080, Note_on_c, 0, 86, 0
2, 109080, Note_on_c, 0, 84, 64
2, 109080, Note_on_c, 0, 88, 64
2, 109200, Note_on_c, 0, 88, 0
2, 109200, Note_on_c, 0, 84, 0
2, 109200, Note_on_c, 0, 83, 64
2, 109200, Note_on_c, 0, 86, 64
2, 109236, Note_on_c, 0, 86, 0
2, 109236, Note_on_c, 0, 83, 0
2, 109320, Note_on_c, 0, 81, 64
2, 109320, Note_on_c, 0, 84, 64
2, 109350, Note_on_c, 0, 84, 0
2, 109350, Note_on_c, 0, 86, 64
2, 109380, Note_on_c, 0, 86, 0
2, 109380, Note_on_c, 0, 84, 64
2, 109410, Note_on_c, 0, 84, 0
2, 109410, Note_on_c, 0, 83, 64
2, 109440, Note_on_c, 0, 83, 0
2, 109440, Note_on_c, 0, 84, 64
2, 109560, Note_on_c, 0, 84, 0
2, 109560, Note_on_c, 0, 81, 0
2, 109560, Note_on_c, 0, 79, 64
2, 109560, Note_on_c, 0, 83, 64
2, 109680, Note_on_c, 0, 83, 0
2, 109680, Note_on_c, 0, 79, 0
2, 109680, Note_on_c, 0, 86, 64
2, 109800, Note_on_c, 0, 86, 0
2, 109800, Note_on_c, 0, 88, 64
2, 109830, Note_on_c, 0, 88, 0
2, 109830, Note_on_c, 0, 86, 64
2, 109860, Note_on_c, 0, 86, 0
2, 109860, Note_on_c, 0, 84, 64
2, 109920, Note_on_c, 0, 84, 0
2, 109920, Note_on_c, 0, 86, 64
2, 109950, Note_on_c, 0, 86, 0
2, 109950, Note_on_c, 0, 84, 64
2, 109980, Note_on_c, 0, 84, 0
2, 109980, Note_on_c, 0, 83, 64
2, 110040, Note_on_c, 0, 83, 0
2, 110040, Note_on_c, 0, 84, 64
2, 110070, Note_on_c, 0, 84, 0
2, 110070, Note_on_c, 0, 83, 64
2, 110100, Note_on_c, 0, 83, 0
2, 110100, Note_on_c, 0, 81, 64
2, 110160, Note_on_c, 0, 81, 0
2, 110160, Note_on_c, 0, 83, 64
2, 110190, Note_on_c, 0, 83, 0
2, 110190, Note_on_c, 0, 81, 64
2, 110220, Note_on_c, 0, 81, 0
2, 110220, Note_on_c, 0, 79, 63
2, 110280, Note_on_c, 0, 79, 0
2, 110280, Note_on_c, 0, 81, 63
2, 110310, Note_on_c, 0, 81, 0
2, 110310, Note_on_c, 0, 79, 62
2, 110340, Note_on_c, 0, 79, 0
2, 110340, Note_on_c, 0, 78, 62
2, 110460, Note_on_c, 0, 78, 0
2, 110460, Note_on_c, 0, 81, 61
2, 110580, Note_on_c, 0, 81, 0
2, 110580, Note_on_c, 0, 79, 59
2, 110700, Note_on_c, 0, 79, 0
2, 110700, Note_on_c, 0, 76, 58
2, 110820, Note_on_c, 0, 76, 0
2, 110820, Note_on_c, 0, 73, 57
2, 110940, Note_on_c, 0, 73, 0
2, 110940, Note_on_c, 0, 74, 55
2, 111000, Note_on_c, 0, 74, 0
2, 111000, Note_on_c, 0, 76, 55
2, 111060, Note_on_c, 0, 76, 0
2, 111060, Note_on_c, 0, 74, 54
2, 111120, Note_on_c, 0, 74, 0
2, 111120, Note_on_c, 0, 76, 53
2, 111180, Note_on_c, 0, 76, 0
2, 111180, Note_on_c, 0, 74, 53
2, 111240, Note_on_c, 0, 74, 0
2, 111240, Note_on_c, 0, 74, 52
2, 111324, Note_on_c, 0, 74, 0
2, 111480, Note_on_c, 0, 67, 64
2, 111576, Note_on_c, 0, 67, 0
2, 111600, Note_on_c, 0, 67, 64
2, 111780, Note_on_c, 0, 67, 0
2, 111780, Note_on_c, 0, 71, 64
2, 111840, Note_on_c, 0, 71, 0
2, 111840, Note_on_c, 0, 69, 64
2, 111912, Note_on_c, 0, 69, 0
2, 111960, Note_on_c, 0, 62, 64
2, 112080, Note_on_c, 0, 62, 0
2, 112080, Note_on_c, 0, 66, 64
2, 112140, Note_on_c, 0, 66, 0
2, 112140, Note_on_c, 0, 64, 64
2, 112200, Note_on_c, 0, 64, 0
2, 112200, Note_on_c, 0, 67, 64
2, 112260, Note_on_c, 0, 67, 0
2, 112260, Note_on_c, 0, 66, 64
2, 112320, Note_on_c, 0, 66, 0
2, 112320, Note_on_c, 0, 69, 64
2, 112380, Note_on_c, 0, 69, 0
2, 112380, Note_on_c, 0, 67, 64
2, 112440, Note_on_c, 0, 67, 0
2, 112440, Note_on_c, 0, 72, 64
2, 112500, Note_on_c, 0, 72, 0
2, 112500, Note_on_c, 0, 71, 64
2, 112560, Note_on_c, 0, 71, 0
2, 112560, Note_on_c, 0, 74, 64
2, 112620, Note_on_c, 0, 74, 0
2, 112620, Note_on_c, 0, 71, 64
2, 112680, Note_on_c, 0, 71, 0
2, 112680, Note_on_c, 0, 67, 64
2, 112920, Note_on_c, 0, 67, 0
2, 112920, Note_on_c, 0, 69, 80
2, 112920, Note_on_c, 0, 62, 80
2, 112992, Note_on_c, 0, 62, 0
2, 112992, Note_on_c, 0, 69, 0
2, 113040, Note_on_c, 0, 70, 64
2, 113040, Note_on_c, 0, 62, 64
2, 113100, Note_on_c, 0, 70, 0
2, 113100, Note_on_c, 0, 71, 64
2, 113160, Note_on_c, 0, 71, 0
2, 113160, Note_on_c, 0, 72, 64
2, 113220, Note_on_c, 0, 72, 0
2, 113220, Note_on_c, 0, 73, 64
2, 113280, Note_on_c, 0, 73, 0
2, 113280, Note_on_c, 0, 74, 64
2, 113400, Note_on_c, 0, 74, 0
2, 113400, Note_on_c, 0, 62, 0
2, 113400, Note_on_c, 0, 74, 80
2, 113400, Note_on_c, 0, 66, 80
2, 113400, Note_on_c, 0, 62, 80
2, 113520, Note_on_c, 0, 74, 0
2, 113520, Note_on_c, 0, 72, 64
2, 113640, Note_on_c, 0, 72, 0
2, 113640, Note_on_c, 0, 66, 0
2, 113640, Note_on_c, 0, 71, 64
2, 113676, Note_on_c, 0, 71, 0
2, 113676, Note_on_c, 0, 62, 0
2, 113760, Note_on_c, 0, 71, 64
2, 113760, Note_on_c, 0, 67, 64
2, 113880, Note_on_c, 0, 67, 0
2, 113880, Note_on_c, 0, 71, 0
2, 113880, Note_on_c, 0, 69, 64
2, 113880, Note_on_c, 0, 66, 64
2, 113916, Note_on_c, 0, 66, 0
2, 113916, Note_on_c, 0, 69, 0
2, 114000, Note_on_c, 0, 69, 64
2, 114000, Note_on_c, 0, 66, 64
2, 114036, Note_on_c, 0, 66, 0
2, 114036, Note_on_c, 0, 69, 0
2, 114120, Note_on_c, 0, 69, 64
2, 114120, Note_on_c, 0, 66, 64
2, 114360, Note_on_c, 0, 66, 0
2, 114360, Note_on_c, 0, 69, 0
2, 114360, Note_on_c, 0, 71, 80
2, 114360, Note_on_c, 0, 68, 80
2, 114480, Note_on_c, 0, 68, 0
2, 114480, Note_on_c, 0, 71, 0
2, 114480, Note_on_c, 0, 72, 64
2, 114510, Note_on_c, 0, 72, 0
2, 114510, Note_on_c, 0, 69, 64
2, 114540, Note_on_c, 0, 69, 0
2, 114540, Note_on_c, 0, 71, 64
2, 114570, Note_on_c, 0, 71, 0
2, 114570, Note_on_c, 0, 72, 64
2, 114600, Note_on_c, 0, 72, 0
2, 114600, Note_on_c, 0, 74, 64
2, 114630, Note_on_c, 0, 74, 0
2, 114630, Note_on_c, 0, 76, 64
2, 114660, Note_on_c, 0, 76, 0
2, 114660, Note_on_c, 0, 78, 64
2, 114690, Note_on_c, 0, 78, 0
2, 114690, Note_on_c, 0, 80, 64
2, 114720, Note_on_c, 0, 80, 0
2, 114720, Note_on_c, 0, 81, 64
2, 114750, Note_on_c, 0, 81, 0
2, 114750, Note_on_c, 0, 83, 64
2, 114780, Note_on_c, 0, 83, 0
2, 114780, Note_on_c, 0, 84, 64
2, 114810, Note_on_c, 0, 84, 0
2, 114810, Note_on_c, 0, 86, 64
2, 114840, Note_on_c, 0, 86, 0
2, 114840, Note_on_c, 0, 88, 64
2, 114840, Note_on_c, 0, 84, 64
2, 114960, Note_on_c, 0, 84, 0
2, 114960, Note_on_c, 0, 88, 0
2, 114960, Note_on_c, 0, 86, 64
2, 114960, Note_on_c, 0, 83, 64
2, 114996, Note_on_c, 0, 83, 0
2, 114996, Note_on_c, 0, 86, 0
2, 115080, Note_on_c, 0, 84, 64
2, 115080, Note_on_c, 0, 81, 64
2, 115110, Note_on_c, 0, 84, 0
2, 115110, Note_on_c, 0, 86, 64
2, 115140, Note_on_c, 0, 86, 0
2, 115140, Note_on_c, 0, 84, 64
2, 115170, Note_on_c, 0, 84, 0
2, 115170, Note_on_c, 0, 83, 64
2, 115200, Note_on_c, 0, 83, 0
2, 115200, Note_on_c, 0, 84, 64
2, 115320, Note_on_c, 0, 84, 0
2, 115320, Note_on_c, 0, 81, 0
2, 115320, Note_on_c, 0, 83, 64
2, 115320, Note_on_c, 0, 79, 64
2, 115440, Note_on_c, 0, 79, 0
2, 115440, Note_on_c, 0, 83, 0
2, 115440, Note_on_c, 0, 86, 64
2, 115560, Note_on_c, 0, 86, 0
2, 115560, Note_on_c, 0, 88, 64
2, 115590, Note_on_c, 0, 88, 0
2, 115590, Note_on_c, 0, 86, 64
2, 115620, Note_on_c, 0, 86, 0
2, 115620, Note_on_c, 0, 84, 64
2, 115680, Note_on_c, 0, 84, 0
2, 115680, Note_on_c, 0, 86, 64
2, 115710, Note_on_c, 0, 86, 0
2, 115710, Note_on_c, 0, 84, 64
2, 115740, Note_on_c, 0, 84, 0
2, 115740, Note_on_c, 0, 83, 64
2, 115800, Note_on_c, 0, 83, 0
2, 115800, Note_on_c, 0, 84, 64
2, 115830, Note_on_c, 0, 84, 0
2, 115830, Note_on_c, 0, 83, 64
2, 115860, Note_on_c, 0, 83, 0
2, 115860, Note_on_c, 0, 81, 64
2, 115920, Note_on_c, 0, 81, 0
2, 115920, Note_on_c, 0, 83, 64
2, 115950, Note_on_c, 0, 83, 0
2, 115950, Note_on_c, 0, 81, 64
2, 115980, Note_on_c, 0, 81, 0
2, 115980, Note_on_c, 0, 79, 63
2, 116040, Note_on_c, 0, 79, 0
2, 116040, Note_on_c, 0, 81, 63
2, 116070, Note_on_c, 0, 81, 0
2, 116070, Note_on_c, 0, 79, 62
2, 116100, Note_on_c, 0, 79, 0
2, 116100, Note_on_c, 0, 78, 62
2, 116220, Note_on_c, 0, 78, 0
2, 116220, Note_on_c, 0, 81, 61
2, 116340, Note_on_c, 0, 81, 0
2, 116340, Note_on_c, 0, 79, 59
2, 116460, Note_on_c, 0, 79, 0
2, 116460, Note_on_c, 0, 76, 58
2, 116580, Note_on_c, 0, 76, 0
2, 116580, Note_on_c, 0, 73, 57
2, 116700, Note_on_c, 0, 73, 0
2, 116700, Note_on_c, 0, 74, 55
2, 116760, Note_on_c, 0, 74, 0
2, 116760, Note_on_c, 0, 76, 55
2, 116820, Note_on_c, 0, 76, 0
2, 116820, Note_on_c, 0, 74, 54
2, 116880, Note_on_c, 0, 74, 0
2, 116880, Note_on_c, 0, 76, 53
2, 116940, Note_on_c, 0, 76, 0
2, 116940, Note_on_c, 0, 74, 53
2, 117000, Note_on_c, 0, 74, 0
2, 117000, Note_on_c, 0, 74, 52
2, 117072, Note_on_c, 0, 74, 0
2, 117240, Note_on_c, 0, 79, 64
2, 117336, Note_on_c, 0, 79, 0
2, 117360, Note_on_c, 0, 78, 64
2, 117420, Note_on_c, 0, 78, 0
2, 117420, Note_on_c, 0, 79, 64
2, 117480, Note_on_c, 0, 79, 0
2, 117480, Note_on_c, 0, 81, 64
2, 117540, Note_on_c, 0, 81, 0
2, 117540, Note_on_c, 0, 79, 64
2, 117600, Note_on_c, 0, 79, 0
2, 117600, Note_on_c, 0, 81, 64
2, 117660, Note_on_c, 0, 81, 0
2, 117660, Note_on_c, 0, 79, 64
2, 117720, Note_on_c, 0, 79, 0
2, 117720, Note_on_c, 0, 81, 64
2, 117780, Note_on_c, 0, 81, 0
2, 117780, Note_on_c, 0, 79, 64
2, 117804, Note_on_c, 0, 79, 0
2, 117840, Note_on_c, 0, 79, 64
2, 117900, Note_on_c, 0, 79, 0
2, 117900, Note_on_c, 0, 78, 64
2, 117924, Note_on_c, 0, 78, 0
2, 117960, Note_on_c, 0, 78, 64
2, 118020, Note_on_c, 0, 78, 0
2, 118020, Note_on_c, 0, 76, 64
2, 118044, Note_on_c, 0, 76, 0
2, 118080, Note_on_c, 0, 76, 64
2, 118140, Note_on_c, 0, 76, 0
2, 118140, Note_on_c, 0, 74, 64
2, 118158, Note_on_c, 0, 74, 0
2, 118200, Note_on_c, 0, 74, 64
2, 118218, Note_on_c, 0, 74, 0
2, 118260, Note_on_c, 0, 74, 64
2, 118278, Note_on_c, 0, 74, 0
2, 118320, Note_on_c, 0, 74, 64
2, 118338, Note_on_c, 0, 74, 0
2, 118380, Note_on_c, 0, 74, 64
2, 118398, Note_on_c, 0, 74, 0
2, 118440, Note_on_c, 0, 76, 80
2, 118500, Note_on_c, 0, 76, 0
2, 118500, Note_on_c, 0, 75, 64
2, 118518, Note_on_c, 0, 75, 0
2, 118560, Note_on_c, 0, 75, 64
2, 118578, Note_on_c, 0, 75, 0
2, 118620, Note_on_c, 0, 75, 64
2, 118638, Note_on_c, 0, 75, 0
2, 118680, Note_on_c, 0, 75, 64
2, 118698, Note_on_c, 0, 75, 0
2, 118740, Note_on_c, 0, 75, 64
2, 118758, Note_on_c, 0, 75, 0
2, 118800, Note_on_c, 0, 75, 64
2, 118860, Note_on_c, 0, 75, 0
2, 118860, Note_on_c, 0, 76, 64
2, 118920, Note_on_c, 0, 76, 0
2, 118920, Note_on_c, 0, 78, 64
2, 118980, Note_on_c, 0, 78, 0
2, 118980, Note_on_c, 0, 76, 64
2, 119040, Note_on_c, 0, 76, 0
2, 119040, Note_on_c, 0, 79, 64
2, 119100, Note_on_c, 0, 79, 0
2, 119100, Note_on_c, 0, 78, 64
2, 119160, Note_on_c, 0, 78, 0
2, 119160, Note_on_c, 0, 81, 64
2, 119220, Note_on_c, 0, 81, 0
2, 119220, Note_on_c, 0, 79, 64
2, 119244, Note_on_c, 0, 79, 0
2, 119280, Note_on_c, 0, 78, 64
2, 119340, Note_on_c, 0, 78, 0
2, 119340, Note_on_c, 0, 76, 64
2, 119364, Note_on_c, 0, 76, 0
2, 119400, Note_on_c, 0, 74, 64
2, 119460, Note_on_c, 0, 74, 0
2, 119460, Note_on_c, 0, 73, 64
2, 119484, Note_on_c, 0, 73, 0
2, 119520, Note_on_c, 0, 74, 88
2, 119580, Note_on_c, 0, 74, 0
2, 119580, Note_on_c, 0, 86, 88
2, 119640, Note_on_c, 0, 86, 0
2, 119640, Note_on_c, 0, 74, 88
2, 119658, Note_on_c, 0, 74, 0
2, 119700, Note_on_c, 0, 74, 88
2, 119718, Note_on_c, 0, 74, 0
2, 119760, Note_on_c, 0, 74, 88
2, 119778, Note_on_c, 0, 74, 0
2, 119820, Note_on_c, 0, 74, 88
2, 119838, Note_on_c, 0, 74, 0
2, 119880, Note_on_c, 0, 74, 88
2, 119940, Note_on_c, 0, 74, 0
2, 119940, Note_on_c, 0, 86, 88
2, 120000, Note_on_c, 0, 86, 0
2, 120000, Note_on_c, 0, 74, 88
2, 120018, Note_on_c, 0, 74, 0
2, 120060, Note_on_c, 0, 74, 88
2, 120078, Note_on_c, 0, 74, 0
2, 120120, Note_on_c, 0, 74, 88
2, 120138, Note_on_c, 0, 74, 0
2, 120180, Note_on_c, 0, 74, 88
2, 120198, Note_on_c, 0, 74, 0
2, 120240, Note_on_c, 0, 74, 88
2, 120270, Note_on_c, 0, 74, 0
2, 120270, Note_on_c, 0, 78, 88
2, 120300, Note_on_c, 0, 78, 0
2, 120300, Note_on_c, 0, 81, 88
2, 120330, Note_on_c, 0, 81, 0
2, 120330, Note_on_c, 0, 86, 88
2, 120360, Note_on_c, 0, 86, 0
2, 120360, Note_on_c, 0, 74, 88
2, 120378, Note_on_c, 0, 74, 0
2, 120420, Note_on_c, 0, 74, 88
2, 120438, Note_on_c, 0, 74, 0
2, 120480, Note_on_c, 0, 74, 88
2, 120498, Note_on_c, 0, 74, 0
2, 120540, Note_on_c, 0, 74, 88
2, 120558, Note_on_c, 0, 74, 0
2, 120600, Note_on_c, 0, 74, 88
2, 120630, Note_on_c, 0, 74, 0
2, 120630, Note_on_c, 0, 78, 88
2, 120660, Note_on_c, 0, 78, 0
2, 120660, Note_on_c, 0, 81, 88
2, 120690, Note_on_c, 0, 81, 0
2, 120690, Note_on_c, 0, 86, 88
2, 120720, Note_on_c, 0, 86, 0
2, 120720, Note_on_c, 0, 74, 88
2, 120738, Note_on_c, 0, 74, 0
2, 120780, Note_on_c, 0, 74, 88
2, 120798, Note_on_c, 0, 74, 0
2, 120840, Note_on_c, 0, 74, 88
2, 120858, Note_on_c, 0, 74, 0
2, 120900, Note_on_c, 0, 74, 88
2, 120918, Note_on_c, 0, 74, 0
2, 120960, Note_on_c, 0, 74, 64
2, 121020, Note_on_c, 0, 74, 0
2, 121020, Note_on_c, 0, 86, 64
2, 121038, Note_on_c, 0, 86, 0
2, 121080, Note_on_c, 0, 86, 64
2, 121098, Note_on_c, 0, 86, 0
2, 121140, Note_on_c, 0, 86, 64
2, 121158, Note_on_c, 0, 86, 0
2, 121200, Note_on_c, 0, 86, 64
2, 121218, Note_on_c, 0, 86, 0
2, 121260, Note_on_c, 0, 86, 64
2, 121278, Note_on_c, 0, 86, 0
2, 121320, Note_on_c, 0, 85, 64
2, 121380, Note_on_c, 0, 85, 0
2, 121380, Note_on_c, 0, 86, 64
2, 121398, Note_on_c, 0, 86, 0
2, 121440, Note_on_c, 0, 86, 64
2, 121458, Note_on_c, 0, 86, 0
2, 121500, Note_on_c, 0, 86, 64
2, 121518, Note_on_c, 0, 86, 0
2, 121560, Note_on_c, 0, 86, 64
2, 121578, Note_on_c, 0, 86, 0
2, 121620, Note_on_c, 0, 86, 64
2, 121638, Note_on_c, 0, 86, 0
2, 121680, Note_on_c, 0, 87, 64
2, 121740, Note_on_c, 0, 87, 0
2, 121740, Note_on_c, 0, 86, 64
2, 121758, Note_on_c, 0, 86, 0
2, 121800, Note_on_c, 0, 86, 64
2, 121818, Note_on_c, 0, 86, 0
2, 121860, Note_on_c, 0, 86, 64
2, 121878, Note_on_c, 0, 86, 0
2, 121920, Note_on_c, 0, 86, 64
2, 121938, Note_on_c, 0, 86, 0
2, 121980, Note_on_c, 0, 86, 64
2, 121998, Note_on_c, 0, 86, 0
2, 122040, Note_on_c, 0, 85, 64
2, 122100, Note_on_c, 0, 85, 0
2, 122100, Note_on_c, 0, 86, 64
2, 122118, Note_on_c, 0, 86, 0
2, 122160, Note_on_c, 0, 86, 64
2, 122178, Note_on_c, 0, 86, 0
2, 122220, Note_on_c, 0, 86, 64
2, 122238, Note_on_c, 0, 86, 0
2, 122280, Note_on_c, 0, 86, 64
2, 122298, Note_on_c, 0, 86, 0
2, 122340, Note_on_c, 0, 86, 64
2, 122358, Note_on_c, 0, 86, 0
2, 122400, Note_on_c, 0, 86, 64
2, 122418, Note_on_c, 0, 86, 0
2, 122460, Note_on_c, 0, 86, 64
2, 122478, Note_on_c, 0, 86, 0
2, 122520, Note_on_c, 0, 86, 64
2, 122538, Note_on_c, 0, 86, 0
2, 122580, Note_on_c, 0, 86, 64
2, 122598, Note_on_c, 0, 86, 0
2, 122640, Note_on_c, 0, 86, 64
2, 122658, Note_on_c, 0, 86, 0
2, 122700, Note_on_c, 0, 86, 64
2, 122718, Note_on_c, 0, 86, 0
2, 122760, Note_on_c, 0, 86, 64
2, 122808, Note_on_c, 0, 86, 0
2, 122880, Note_on_c, 0, 86, 64
2, 122928, Note_on_c, 0, 86, 0
2, 123000, Note_on_c, 0, 86, 64
2, 123048, Note_on_c, 0, 86, 0
2, 123120, Note_on_c, 0, 84, 64
2, 123120, Note_on_c, 0, 86, 64
2, 123180, Note_on_c, 0, 86, 0
2, 123180, Note_on_c, 0, 84, 0
2, 123240, Note_on_c, 0, 84, 64
2, 123240, Note_on_c, 0, 86, 64
2, 123300, Note_on_c, 0, 86, 0
2, 123300, Note_on_c, 0, 84, 0
2, 123360, Note_on_c, 0, 84, 64
2, 123360, Note_on_c, 0, 86, 64
2, 123420, Note_on_c, 0, 86, 0
2, 123420, Note_on_c, 0, 84, 0
2, 123480, Note_on_c, 0, 84, 64
2, 123480, Note_on_c, 0, 86, 64
2, 123552, Note_on_c, 0, 86, 0
2, 123552, Note_on_c, 0, 84, 0
2, 123600, Note_on_c, 0, 84, 64
2, 123600, Note_on_c, 0, 86, 64
2, 123672, Note_on_c, 0, 86, 0
2, 123672, Note_on_c, 0, 84, 0
2, 123720, Note_on_c, 0, 84, 64
2, 123720, Note_on_c, 0, 86, 64
2, 123792, Note_on_c, 0, 86, 0
2, 123792, Note_on_c, 0, 84, 0
2, 123840, Note_on_c, 0, 84, 64
2, 123840, Note_on_c, 0, 86, 64
2, 123924, Note_on_c, 0, 86, 0
2, 123924, Note_on_c, 0, 84, 0
2, 123960, Note_on_c, 0, 84, 64
2, 123960, Note_on_c, 0, 86, 64
2, 124044, Note_on_c, 0, 86, 0
2, 124044, Note_on_c, 0, 84, 0
2, 124080, Note_on_c, 0, 84, 64
2, 124080, Note_on_c, 0, 86, 64
2, 124164, Note_on_c, 0, 86, 0
2, 124164, Note_on_c, 0, 84, 0
2, 124200, Note_on_c, 0, 84, 64
2, 124200, Note_on_c, 0, 86, 64
2, 124560, Note_on_c, 0, 86, 0
2, 124560, Note_on_c, 0, 84, 0
2, 124800, Note_on_c, 0, 72, 48
2, 124800, Note_on_c, 0, 74, 48
2, 124884, Note_on_c, 0, 74, 0
2, 124884, Note_on_c, 0, 72, 0
2, 124920, Note_on_c, 0, 72, 48
2, 124920, Note_on_c, 0, 74, 48
2, 125280, Note_on_c, 0, 74, 0
2, 125280, Note_on_c, 0, 72, 0
2, 125520, Note_on_c, 0, 67, 64
2, 125604, Note_on_c, 0, 67, 0
2, 125640, Note_on_c, 0, 67, 64
2, 125820, Note_on_c, 0, 67, 0
2, 125820, Note_on_c, 0, 71, 64
2, 125880, Note_on_c, 0, 71, 0
2, 125880, Note_on_c, 0, 69, 64
2, 126000, Note_on_c, 0, 69, 0
2, 126000, Note_on_c, 0, 62, 64
2, 126120, Note_on_c, 0, 62, 0
2, 126120, Note_on_c, 0, 64, 64
2, 126240, Note_on_c, 0, 64, 0
2, 126240, Note_on_c, 0, 67, 64
2, 126270, Note_on_c, 0, 67, 0
2, 126270, Note_on_c, 0, 66, 64
2, 126300, Note_on_c, 0, 66, 0
2, 126300, Note_on_c, 0, 64, 64
2, 126330, Note_on_c, 0, 64, 0
2, 126330, Note_on_c, 0, 66, 64
2, 126360, Note_on_c, 0, 66, 0
2, 126360, Note_on_c, 0, 67, 64
2, 126396, Note_on_c, 0, 67, 0
2, 126480, Note_on_c, 0, 67, 64
2, 126516, Note_on_c, 0, 67, 0
2, 126600, Note_on_c, 0, 67, 64
2, 126660, Note_on_c, 0, 67, 0
2, 126720, Note_on_c, 0, 67, 64
2, 126960, Note_on_c, 0, 67, 0
2, 126960, Note_on_c, 0, 62, 80
2, 126960, Note_on_c, 0, 66, 80
2, 126960, Note_on_c, 0, 69, 80
2, 127080, Note_on_c, 0, 69, 0
2, 127080, Note_on_c, 0, 66, 0
2, 127080, Note_on_c, 0, 62, 0
2, 127080, Note_on_c, 0, 62, 80
2, 127080, Note_on_c, 0, 67, 80
2, 127080, Note_on_c, 0, 71, 80
2, 127128, Note_on_c, 0, 71, 0
2, 127128, Note_on_c, 0, 67, 0
2, 127128, Note_on_c, 0, 62, 0
2, 127260, Note_on_c, 0, 62, 80
2, 127280, Note_on_c, 0, 67, 80
2, 127300, Note_on_c, 0, 71, 80
2, 127320, Note_on_c, 0, 74, 80
2, 127399, Note_on_c, 0, 67, 0
2, 127399, Note_on_c, 0, 62, 0
2, 127400, Note_on_c, 0, 62, 80
2, 127400, Note_on_c, 0, 66, 80
2, 127419, Note_on_c, 0, 71, 0
2, 127420, Note_on_c, 0, 69, 80
2, 127440, Note_on_c, 0, 74, 0
2, 127440, Note_on_c, 0, 72, 80
2, 127640, Note_on_c, 0, 66, 0
2, 127640, Note_on_c, 0, 62, 0
2, 127660, Note_on_c, 0, 69, 0
2, 127680, Note_on_c, 0, 72, 0
2, 127680, Note_on_c, 0, 62, 80
2, 127680, Note_on_c, 0, 67, 80
2, 127680, Note_on_c, 0, 71, 80
2, 127800, Note_on_c, 0, 71, 0
2, 127800, Note_on_c, 0, 67, 0
2, 127800, Note_on_c, 0, 62, 0
2, 127800, Note_on_c, 0, 62, 80
2, 127830, Note_on_c, 0, 62, 0
2, 127830, Note_on_c, 0, 64, 80
2, 127860, Note_on_c, 0, 64, 0
2, 127860, Note_on_c, 0, 66, 80
2, 127890, Note_on_c, 0, 66, 0
2, 127890, Note_on_c, 0, 67, 80
2, 127920, Note_on_c, 0, 67, 0
2, 127920, Note_on_c, 0, 69, 80
2, 127950, Note_on_c, 0, 69, 0
2, 127950, Note_on_c, 0, 71, 80
2, 127980, Note_on_c, 0, 71, 0
2, 127980, Note_on_c, 0, 73, 80
2, 128010, Note_on_c, 0, 73, 0
2, 128010, Note_on_c, 0, 74, 80
2, 128040, Note_on_c, 0, 74, 0
2, 128040, Note_on_c, 0, 76, 80
2, 128070, Note_on_c, 0, 76, 0
2, 128070, Note_on_c, 0, 78, 80
2, 128100, Note_on_c, 0, 78, 0
2, 128100, Note_on_c, 0, 79, 80
2, 128115, Note_on_c, 0, 79, 0
2, 128115, Note_on_c, 0, 81, 80
2, 128130, Note_on_c, 0, 81, 0
2, 128130, Note_on_c, 0, 83, 80
2, 128145, Note_on_c, 0, 83, 0
2, 128145, Note_on_c, 0, 85, 96
2, 128160, Note_on_c, 0, 85, 0
2, 128160, Note_on_c, 0, 86, 96
2, 128280, Note_on_c, 0, 86, 0
2, 128400, Note_on_c, 0, 68, 96
2, 128400, Note_on_c, 0, 71, 96
2, 128520, Note_on_c, 0, 71, 0
2, 128520, Note_on_c, 0, 68, 0
2, 128520, Note_on_c, 0, 69, 64
2, 128520, Note_on_c, 0, 72, 64
2, 128640, Note_on_c, 0, 72, 0
2, 128640, Note_on_c, 0, 69, 0
2, 128640, Note_on_c, 0, 71, 64
2, 128640, Note_on_c, 0, 74, 64
2, 128676, Note_on_c, 0, 74, 0
2, 128676, Note_on_c, 0, 71, 0
2, 128760, Note_on_c, 0, 72, 64
2, 128760, Note_on_c, 0, 76, 64
2, 128796, Note_on_c, 0, 76, 0
2, 128796, Note_on_c, 0, 72, 0
2, 128880, Note_on_c, 0, 72, 64
2, 128880, Note_on_c, 0, 76, 64
2, 129000, Note_on_c, 0, 76, 0
2, 129000, Note_on_c, 0, 72, 0
2, 129120, Note_on_c, 0, 66, 96
2, 129120, Note_on_c, 0, 69, 96
2, 129240, Note_on_c, 0, 69, 0
2, 129240, Note_on_c, 0, 66, 0
2, 129240, Note_on_c, 0, 67, 64
2, 129240, Note_on_c, 0, 71, 64
2, 129360, Note_on_c, 0, 71, 0
2, 129360, Note_on_c, 0, 67, 0
2, 129360, Note_on_c, 0, 69, 64
2, 129360, Note_on_c, 0, 72, 64
2, 129396, Note_on_c, 0, 72, 0
2, 129396, Note_on_c, 0, 69, 0
2, 129480, Note_on_c, 0, 71, 64
2, 129480, Note_on_c, 0, 74, 64
2, 129516, Note_on_c, 0, 74, 0
2, 129516, Note_on_c, 0, 71, 0
2, 129600, Note_on_c, 0, 71, 64
2, 129600, Note_on_c, 0, 74, 64
2, 129720, Note_on_c, 0, 74, 0
2, 129720, Note_on_c, 0, 71, 0
2, 129840, Note_on_c, 0, 67, 64
2, 129960, Note_on_c, 0, 67, 0
2, 129960, Note_on_c, 0, 69, 64
2, 129978, Note_on_c, 0, 69, 0
2, 130080, Note_on_c, 0, 71, 64
2, 130098, Note_on_c, 0, 71, 0
2, 130200, Note_on_c, 0, 72, 64
2, 130218, Note_on_c, 0, 72, 0
2, 130320, Note_on_c, 0, 62, 64
2, 130338, Note_on_c, 0, 62, 0
2, 130440, Note_on_c, 0, 64, 64
2, 130458, Note_on_c, 0, 64, 0
2, 130560, Note_on_c, 0, 66, 64
2, 130578, Note_on_c, 0, 66, 0
2, 131000, Note_on_c, 0, 59, 40
2, 131020, Note_on_c, 0, 62, 40
2, 131040, Note_on_c, 0, 67, 40
2, 131099, Note_on_c, 0, 62, 0
2, 131099, Note_on_c, 0, 59, 0
2, 131100, Note_on_c, 0, 67, 0
2, 131280, Note_on_c, 0, 79, 64
2, 131376, Note_on_c, 0, 79, 0
2, 131400, Note_on_c, 0, 78, 64
2, 131460, Note_on_c, 0, 78, 0
2, 131460, Note_on_c, 0, 79, 64
2, 131520, Note_on_c, 0, 79, 0
2, 131520, Note_on_c, 0, 81, 64
2, 131580, Note_on_c, 0, 81, 0
2, 131580, Note_on_c, 0, 79, 64
2, 131640, Note_on_c, 0, 79, 0
2, 131640, Note_on_c, 0, 81, 64
2, 131700, Note_on_c, 0, 81, 0
2, 131700, Note_on_c, 0, 79, 64
2, 131760, Note_on_c, 0, 79, 0
2, 131760, Note_on_c, 0, 81, 64
2, 131820, Note_on_c, 0, 81, 0
2, 131820, Note_on_c, 0, 79, 64
2, 131844, Note_on_c, 0, 79, 0
2, 131880, Note_on_c, 0, 79, 64
2, 131940, Note_on_c, 0, 79, 0
2, 131940, Note_on_c, 0, 78, 64
2, 131964, Note_on_c, 0, 78, 0
2, 132000, Note_on_c, 0, 78, 64
2, 132060, Note_on_c, 0, 78, 0
2, 132060, Note_on_c, 0, 76, 64
2, 132084, Note_on_c, 0, 76, 0
2, 132120, Note_on_c, 0, 76, 64
2, 132180, Note_on_c, 0, 76, 0
2, 132180, Note_on_c, 0, 74, 64
2, 132198, Note_on_c, 0, 74, 0
2, 132240, Note_on_c, 0, 74, 64
2, 132258, Note_on_c, 0, 74, 0
2, 132300, Note_on_c, 0, 74, 64
2, 132318, Note_on_c, 0, 74, 0
2, 132360, Note_on_c, 0, 74, 64
2, 132378, Note_on_c, 0, 74, 0
2, 132420, Note_on_c, 0, 74, 64
2, 132438, Note_on_c, 0, 74, 0
2, 132480, Note_on_c, 0, 76, 80
2, 132540, Note_on_c, 0, 76, 0
2, 132540, Note_on_c, 0, 75, 64
2, 132558, Note_on_c, 0, 75, 0
2, 132600, Note_on_c, 0, 75, 64
2, 132618, Note_on_c, 0, 75, 0
2, 132660, Note_on_c, 0, 75, 64
2, 132678, Note_on_c, 0, 75, 0
2, 132720, Note_on_c, 0, 75, 64
2, 132738, Note_on_c, 0, 75, 0
2, 132780, Note_on_c, 0, 75, 64
2, 132798, Note_on_c, 0, 75, 0
2, 132840, Note_on_c, 0, 75, 64
2, 132900, Note_on_c, 0, 75, 0
2, 132900, Note_on_c, 0, 76, 64
2, 132960, Note_on_c, 0, 76, 0
2, 132960, Note_on_c, 0, 78, 64
2, 133020, Note_on_c, 0, 78, 0
2, 133020, Note_on_c, 0, 76, 64
2, 133080, Note_on_c, 0, 76, 0
2, 133080, Note_on_c, 0, 79, 64
2, 133140, Note_on_c, 0, 79, 0
2, 133140, Note_on_c, 0, 78, 64
2, 133200, Note_on_c, 0, 78, 0
2, 133200, Note_on_c, 0, 81, 64
2, 133260, Note_on_c, 0, 81, 0
2, 133260, Note_on_c, 0, 79, 64
2, 133284, Note_on_c, 0, 79, 0
2, 133320, Note_on_c, 0, 78, 64
2, 133380, Note_on_c, 0, 78, 0
2, 133380, Note_on_c, 0, 76, 64
2, 133404, Note_on_c, 0, 76, 0
2, 133440, Note_on_c, 0, 74, 64
2, 133500, Note_on_c, 0, 74, 0
2, 133500, Note_on_c, 0, 73, 64
2, 133524, Note_on_c, 0, 73, 0
2, 133560, Note_on_c, 0, 74, 88
2, 133620, Note_on_c, 0, 74, 0
2, 133620, Note_on_c, 0, 86, 88
2, 133680, Note_on_c, 0, 86, 0
2, 133680, Note_on_c, 0, 74, 88
2, 133698, Note_on_c, 0, 74, 0
2, 133740, Note_on_c, 0, 74, 88
2, 133758, Note_on_c, 0, 74, 0
2, 133800, Note_on_c, 0, 74, 88
2, 133818, Note_on_c, 0, 74, 0
2, 133860, Note_on_c, 0, 74, 88
2, 133878, Note_on_c, 0, 74, 0
2, 133920, Note_on_c, 0, 74, 88
2, 133980, Note_on_c, 0, 74, 0
2, 133980, Note_on_c, 0, 86, 88
2, 134040, Note_on_c, 0, 86, 0
2, 134040, Note_on_c, 0, 74, 88
2, 134058, Note_on_c, 0, 74, 0
2, 134100, Note_on_c, 0, 74, 88
2, 134118, Note_on_c, 0, 74, 0
2, 134160, Note_on_c, 0, 74, 88
2, 134178, Note_on_c, 0, 74, 0
2, 134220, Note_on_c, 0, 74, 88
2, 134238, Note_on_c, 0, 74, 0
2, 134280, Note_on_c, 0, 74, 88
2, 134310, Note_on_c, 0, 74, 0
2, 134310, Note_on_c, 0, 78, 88
2, 134340, Note_on_c, 0, 78, 0
2, 134340, Note_on_c, 0, 81, 88
2, 134370, Note_on_c, 0, 81, 0
2, 134370, Note_on_c, 0, 86, 88
2, 134400, Note_on_c, 0, 86, 0
2, 134400, Note_on_c, 0, 74, 88
2, 134418, Note_on_c, 0, 74, 0
2, 134460, Note_on_c, 0, 74, 88
2, 134478, Note_on_c, 0, 74, 0
2, 134520, Note_on_c, 0, 74, 88
2, 134538, Note_on_c, 0, 74, 0
2, 134580, Note_on_c, 0, 74, 88
2, 134598, Note_on_c, 0, 74, 0
2, 134640, Note_on_c, 0, 74, 88
2, 134670, Note_on_c, 0, 74, 0
2, 134670, Note_on_c, 0, 78, 88
2, 134700, Note_on_c, 0, 78, 0
2, 134700, Note_on_c, 0, 81, 88
2, 134730, Note_on_c, 0, 81, 0
2, 134730, Note_on_c, 0, 86, 88
2, 134760, Note_on_c, 0, 86, 0
2, 134760, Note_on_c, 0, 74, 88
2, 134778, Note_on_c, 0, 74, 0
2, 134820, Note_on_c, 0, 74, 88
2, 134838, Note_on_c, 0, 74, 0
2, 134880, Note_on_c, 0, 74, 88
2, 134898, Note_on_c, 0, 74, 0
2, 134940, Note_on_c, 0, 74, 88
2, 134958, Note_on_c, 0, 74, 0
2, 135000, Note_on_c, 0, 74, 64
2, 135060, Note_on_c, 0, 74, 0
2, 135060, Note_on_c, 0, 86, 64
2, 135078, Note_on_c, 0, 86, 0
2, 135120, Note_on_c, 0, 86, 64
2, 135138, Note_on_c, 0, 86, 0
2, 135180, Note_on_c, 0, 86, 64
2, 135198, Note_on_c, 0, 86, 0
2, 135240, Note_on_c, 0, 86, 64
2, 135258, Note_on_c, 0, 86, 0
2, 135300, Note_on_c, 0, 86, 64
2, 135318, Note_on_c, 0, 86, 0
2, 135360, Note_on_c, 0, 85, 64
2, 135420, Note_on_c, 0, 85, 0
2, 135420, Note_on_c, 0, 86, 64
2, 135438, Note_on_c, 0, 86, 0
2, 135480, Note_on_c, 0, 86, 64
2, 135498, Note_on_c, 0, 86, 0
2, 135540, Note_on_c, 0, 86, 64
2, 135558, Note_on_c, 0, 86, 0
2, 135600, Note_on_c, 0, 86, 64
2, 135618, Note_on_c, 0, 86, 0
2, 135660, Note_on_c, 0, 86, 64
2, 135678, Note_on_c, 0, 86, 0
2, 135720, Note_on_c, 0, 87, 64
2, 135780, Note_on_c, 0, 87, 0
2, 135780, Note_on_c, 0, 86, 64
2, 135798, Note_on_c, 0, 86, 0
2, 135840, Note_on_c, 0, 86, 64
2, 135858, Note_on_c, 0, 86, 0
2, 135900, Note_on_c, 0, 86, 64
2, 135918, Note_on_c, 0, 86, 0
2, 135960, Note_on_c, 0, 86, 64
2, 135978, Note_on_c, 0, 86, 0
2, 136020, Note_on_c, 0, 86, 64
2, 136038, Note_on_c, 0, 86, 0
2, 136080, Note_on_c, 0, 85, 64
2, 136140, Note_on_c, 0, 85, 0
2, 136140, Note_on_c, 0, 86, 64
2, 136158, Note_on_c, 0, 86, 0
2, 136200, Note_on_c, 0, 86, 64
2, 136218, Note_on_c, 0, 86, 0
2, 136260, Note_on_c, 0, 86, 64
2, 136278, Note_on_c, 0, 86, 0
2, 136320, Note_on_c, 0, 86, 64
2, 136338, Note_on_c, 0, 86, 0
2, 136380, Note_on_c, 0, 86, 64
2, 136398, Note_on_c, 0, 86, 0
2, 136440, Note_on_c, 0, 86, 64
2, 136458, Note_on_c, 0, 86, 0
2, 136500, Note_on_c, 0, 86, 64
2, 136518, Note_on_c, 0, 86, 0
2, 136560, Note_on_c, 0, 86, 64
2, 136578, Note_on_c, 0, 86, 0
2, 136620, Note_on_c, 0, 86, 64
2, 136638, Note_on_c, 0, 86, 0
2, 136680, Note_on_c, 0, 86, 64
2, 136698, Note_on_c, 0, 86, 0
2, 136740, Note_on_c, 0, 86, 64
2, 136758, Note_on_c, 0, 86, 0
2, 136800, Note_on_c, 0, 86, 64
2, 136848, Note_on_c, 0, 86, 0
2, 136920, Note_on_c, 0, 86, 64
2, 136968, Note_on_c, 0, 86, 0
2, 137040, Note_on_c, 0, 86, 64
2, 137088, Note_on_c, 0, 86, 0
2, 137160, Note_on_c, 0, 86, 64
2, 137160, Note_on_c, 0, 84, 64
2, 137220, Note_on_c, 0, 84, 0
2, 137220, Note_on_c, 0, 86, 0
2, 137280, Note_on_c, 0, 86, 64
2, 137280, Note_on_c, 0, 84, 64
2, 137340, Note_on_c, 0, 84, 0
2, 137340, Note_on_c, 0, 86, 0
2, 137400, Note_on_c, 0, 86, 64
2, 137400, Note_on_c, 0, 84, 64
2, 137460, Note_on_c, 0, 84, 0
2, 137460, Note_on_c, 0, 86, 0
2, 137520, Note_on_c, 0, 86, 64
2, 137520, Note_on_c, 0, 84, 64
2, 137592, Note_on_c, 0, 84, 0
2, 137592, Note_on_c, 0, 86, 0
2, 137640, Note_on_c, 0, 86, 64
2, 137640, Note_on_c, 0, 84, 64
2, 137712, Note_on_c, 0, 84, 0
2, 137712, Note_on_c, 0, 86, 0
2, 137760, Note_on_c, 0, 86, 64
2, 137760, Note_on_c, 0, 84, 64
2, 137832, Note_on_c, 0, 84, 0
2, 137832, Note_on_c, 0, 86, 0
2, 137880, Note_on_c, 0, 86, 64
2, 137880, Note_on_c, 0, 84, 64
2, 137964, Note_on_c, 0, 84, 0
2, 137964, Note_on_c, 0, 86, 0
2, 138000, Note_on_c, 0, 86, 64
2, 138000, Note_on_c, 0, 84, 64
2, 138084, Note_on_c, 0, 84, 0
2, 138084, Note_on_c, 0, 86, 0
2, 138120, Note_on_c, 0, 86, 64
2, 138120, Note_on_c, 0, 84, 64
2, 138204, Note_on_c, 0, 84, 0
2, 138204, Note_on_c, 0, 86, 0
2, 138240, Note_on_c, 0, 86, 64
2, 138240, Note_on_c, 0, 84, 64
2, 138600, Note_on_c, 0, 84, 0
2, 138600, Note_on_c, 0, 86, 0
2, 138840, Note_on_c, 0, 74, 48
2, 138840, Note_on_c, 0, 72, 48
2, 138924, Note_on_c, 0, 72, 0
2, 138924, Note_on_c, 0, 74, 0
2, 138960, Note_on_c, 0, 74, 48
2, 138960, Note_on_c, 0, 72, 48
2, 139320, Note_on_c, 0, 72, 0
2, 139320, Note_on_c, 0, 74, 0
2, 139560, Note_on_c, 0, 67, 64
2, 139644, Note_on_c, 0, 67, 0
2, 139680, Note_on_c, 0, 67, 64
2, 139860, Note_on_c, 0, 67, 0
2, 139860, Note_on_c, 0, 71, 64
2, 139920, Note_on_c, 0, 71, 0
2, 139920, Note_on_c, 0, 69, 64
2, 140040, Note_on_c, 0, 69, 0
2, 140040, Note_on_c, 0, 62, 64
2, 140160, Note_on_c, 0, 62, 0
2, 140160, Note_on_c, 0, 64, 64
2, 140280, Note_on_c, 0, 64, 0
2, 140280, Note_on_c, 0, 67, 64
2, 140310, Note_on_c, 0, 67, 0
2, 140310, Note_on_c, 0, 66, 64
2, 140340, Note_on_c, 0, 66, 0
2, 140340, Note_on_c, 0, 64, 64
2, 140370, Note_on_c, 0, 64, 0
2, 140370, Note_on_c, 0, 66, 64
2, 140400, Note_on_c, 0, 66, 0
2, 140400, Note_on_c, 0, 67, 64
2, 140436, Note_on_c, 0, 67, 0
2, 140520, Note_on_c, 0, 67, 64
2, 140556, Note_on_c, 0, 67, 0
2, 140640, Note_on_c, 0, 67, 64
2, 140700, Note_on_c, 0, 67, 0
2, 140760, Note_on_c, 0, 67, 64
2, 141000, Note_on_c, 0, 67, 0
2, 141000, Note_on_c, 0, 69, 80
2, 141000, Note_on_c, 0, 66, 80
2, 141000, Note_on_c, 0, 62, 80
2, 141120, Note_on_c, 0, 62, 0
2, 141120, Note_on_c, 0, 66, 0
2, 141120, Note_on_c, 0, 69, 0
2, 141120, Note_on_c, 0, 71, 80
2, 141120, Note_on_c, 0, 67, 80
2, 141120, Note_on_c, 0, 62, 80
2, 141168, Note_on_c, 0, 62, 0
2, 141168, Note_on_c, 0, 67, 0
2, 141168, Note_on_c, 0, 71, 0
2, 141300, Note_on_c, 0, 62, 80
2, 141320, Note_on_c, 0, 67, 80
2, 141340, Note_on_c, 0, 71, 80
2, 141360, Note_on_c, 0, 74, 80
2, 141420, Note_on_c, 0, 62, 0
2, 141420, Note_on_c, 0, 62, 80
2, 141440, Note_on_c, 0, 67, 0
2, 141440, Note_on_c, 0, 66, 80
2, 141460, Note_on_c, 0, 71, 0
2, 141460, Note_on_c, 0, 69, 80
2, 141480, Note_on_c, 0, 74, 0
2, 141480, Note_on_c, 0, 72, 80
2, 141660, Note_on_c, 0, 62, 0
2, 141680, Note_on_c, 0, 66, 0
2, 141700, Note_on_c, 0, 69, 0
2, 141720, Note_on_c, 0, 72, 0
2, 141720, Note_on_c, 0, 71, 80
2, 141720, Note_on_c, 0, 67, 80
2, 141720, Note_on_c, 0, 62, 80
2, 141840, Note_on_c, 0, 62, 0
2, 141840, Note_on_c, 0, 67, 0
2, 141840, Note_on_c, 0, 71, 0
2, 141840, Note_on_c, 0, 62, 80
2, 141870, Note_on_c, 0, 62, 0
2, 141870, Note_on_c, 0, 64, 80
2, 141900, Note_on_c, 0, 64, 0
2, 141900, Note_on_c, 0, 66, 80
2, 141930, Note_on_c, 0, 66, 0
2, 141930, Note_on_c, 0, 67, 80
2, 141960, Note_on_c, 0, 67, 0
2, 141960, Note_on_c, 0, 69, 80
2, 141990, Note_on_c, 0, 69, 0
2, 141990, Note_on_c, 0, 71, 80
2, 142020, Note_on_c, 0, 71, 0
2, 142020, Note_on_c, 0, 73, 80
2, 142050, Note_on_c, 0, 73, 0
2, 142050, Note_on_c, 0, 74, 80
2, 142080, Note_on_c, 0, 74, 0
2, 142080, Note_on_c, 0, 76, 80
2, 142110, Note_on_c, 0, 76, 0
2, 142110, Note_on_c, 0, 78, 80
2, 142140, Note_on_c, 0, 78, 0
2, 142140, Note_on_c, 0, 79, 80
2, 142155, Note_on_c, 0, 79, 0
2, 142155, Note_on_c, 0, 81, 80
2, 142170, Note_on_c, 0, 81, 0
2, 142170, Note_on_c, 0, 83, 80
2, 142185, Note_on_c, 0, 83, 0
2, 142185, Note_on_c, 0, 85, 96
2, 142200, Note_on_c, 0, 85, 0
2, 142200, Note_on_c, 0, 86, 96
2, 142320, Note_on_c, 0, 86, 0
2, 142440, Note_on_c, 0, 71, 96
2, 142440, Note_on_c, 0, 68, 96
2, 142560, Note_on_c, 0, 68, 0
2, 142560, Note_on_c, 0, 71, 0
2, 142560, Note_on_c, 0, 72, 64
2, 142560, Note_on_c, 0, 69, 64
2, 142680, Note_on_c, 0, 69, 0
2, 142680, Note_on_c, 0, 72, 0
2, 142680, Note_on_c, 0, 74, 64
2, 142680, Note_on_c, 0, 71, 64
2, 142716, Note_on_c, 0, 71, 0
2, 142716, Note_on_c, 0, 74, 0
2, 142800, Note_on_c, 0, 76, 64
2, 142800, Note_on_c, 0, 72, 64
2, 142836, Note_on_c, 0, 72, 0
2, 142836, Note_on_c, 0, 76, 0
2, 142920, Note_on_c, 0, 76, 64
2, 142920, Note_on_c, 0, 72, 64
2, 143040, Note_on_c, 0, 72, 0
2, 143040, Note_on_c, 0, 76, 0
2, 143160, Note_on_c, 0, 69, 96
2, 143160, Note_on_c, 0, 66, 96
2, 143280, Note_on_c, 0, 66, 0
2, 143280, Note_on_c, 0, 69, 0
2, 143280, Note_on_c, 0, 71, 64
2, 143280, Note_on_c, 0, 67, 64
2, 143400, Note_on_c, 0, 67, 0
2, 143400, Note_on_c, 0, 71, 0
2, 143400, Note_on_c, 0, 72, 64
2, 143400, Note_on_c, 0, 69, 64
2, 143436, Note_on_c, 0, 69, 0
2, 143436, Note_on_c, 0, 72, 0
2, 143520, Note_on_c, 0, 74, 64
2, 143520, Note_on_c, 0, 71, 64
2, 143556, Note_on_c, 0, 71, 0
2, 143556, Note_on_c, 0, 74, 0
2, 143640, Note_on_c, 0, 74, 64
2, 143640, Note_on_c, 0, 71, 64
2, 143760, Note_on_c, 0, 71, 0
2, 143760, Note_on_c, 0, 74, 0
2, 143880, Note_on_c, 0, 67, 64
2, 144000, Note_on_c, 0, 67, 0
2, 144000, Note_on_c, 0, 69, 64
2, 144018, Note_on_c, 0, 69, 0
2, 144120, Note_on_c, 0, 71, 64
2, 144138, Note_on_c, 0, 71, 0
2, 144240, Note_on_c, 0, 72, 64
2, 144258, Note_on_c, 0, 72, 0
2, 144360, Note_on_c, 0, 62, 64
2, 144378, Note_on_c, 0, 62, 0
2, 144480, Note_on_c, 0, 64, 64
2, 144498, Note_on_c, 0, 64, 0
2, 144600, Note_on_c, 0, 66, 64
2, 144618, Note_on_c, 0, 66, 0
2, 145040, Note_on_c, 0, 59, 112
2, 145060, Note_on_c, 0, 62, 112
2, 145080, Note_on_c, 0, 67, 112
2, 145199, Note_on_c, 0, 62, 0
2, 145199, Note_on_c, 0, 59, 0
2, 145200, Note_on_c, 0, 67, 0
2, 145200, End_track
3, 0, Start_track
3, 0, MIDI_port, 0
3, 0, Title_t, "by FJ Haydn (1st mvmt.- Allegretto Innocente)"
3, 0, Program_c, 1, 0
3, 0, Control_c, 1, 7, 117
3, 0, Control_c, 1, 10, 56
3, 600, Note_on_c, 1, 59, 64
3, 600, Note_on_c, 1, 55, 64
3, 672, Note_on_c, 1, 55, 0
3, 672, Note_on_c, 1, 59, 0
3, 720, Note_on_c, 1, 55, 64
3, 720, Note_on_c, 1, 59, 64
3, 960, Note_on_c, 1, 59, 0
3, 960, Note_on_c, 1, 55, 0
3, 960, Note_on_c, 1, 55, 64
3, 960, Note_on_c, 1, 60, 64
3, 1080, Note_on_c, 1, 60, 0
3, 1080, Note_on_c, 1, 55, 0
3, 1080, Note_on_c, 1, 55, 64
3, 1080, Note_on_c, 1, 60, 64
3, 1320, Note_on_c, 1, 60, 0
3, 1320, Note_on_c, 1, 55, 0
3, 1320, Note_on_c, 1, 55, 64
3, 1320, Note_on_c, 1, 60, 64
3, 1440, Note_on_c, 1, 60, 0
3, 1440, Note_on_c, 1, 55, 0
3, 1440, Note_on_c, 1, 55, 64
3, 1440, Note_on_c, 1, 59, 64
3, 1476, Note_on_c, 1, 59, 0
3, 1476, Note_on_c, 1, 55, 0
3, 1560, Note_on_c, 1, 55, 64
3, 1560, Note_on_c, 1, 59, 64
3, 1596, Note_on_c, 1, 59, 0
3, 1596, Note_on_c, 1, 55, 0
3, 1680, Note_on_c, 1, 55, 64
3, 1680, Note_on_c, 1, 59, 64
3, 1740, Note_on_c, 1, 59, 0
3, 1740, Note_on_c, 1, 55, 0
3, 1800, Note_on_c, 1, 55, 64
3, 1800, Note_on_c, 1, 59, 64
3, 2040, Note_on_c, 1, 59, 0
3, 2040, Note_on_c, 1, 55, 0
3, 2040, Note_on_c, 1, 54, 64
3, 2130, Note_on_c, 1, 54, 0
3, 2130, Note_on_c, 1, 57, 64
3, 2160, Note_on_c, 1, 57, 0
3, 2160, Note_on_c, 1, 55, 64
3, 2280, Note_on_c, 1, 55, 0
3, 2280, Note_on_c, 1, 54, 64
3, 2400, Note_on_c, 1, 54, 0
3, 2400, Note_on_c, 1, 55, 64
3, 2436, Note_on_c, 1, 55, 0
3, 2520, Note_on_c, 1, 57, 80
3, 2760, Note_on_c, 1, 57, 0
3, 2760, Note_on_c, 1, 55, 64
3, 2880, Note_on_c, 1, 55, 0
3, 2880, Note_on_c, 1, 50, 64
3, 3000, Note_on_c, 1, 50, 0
3, 3000, Note_on_c, 1, 62, 64
3, 3036, Note_on_c, 1, 62, 0
3, 3120, Note_on_c, 1, 62, 64
3, 3156, Note_on_c, 1, 62, 0
3, 3240, Note_on_c, 1, 62, 64
3, 3360, Note_on_c, 1, 62, 0
3, 3360, Note_on_c, 1, 60, 64
3, 3480, Note_on_c, 1, 60, 0
3, 3480, Note_on_c, 1, 59, 80
3, 3552, Note_on_c, 1, 59, 0
3, 3600, Note_on_c, 1, 57, 64
3, 3840, Note_on_c, 1, 57, 0
3, 3840, Note_on_c, 1, 55, 64
3, 3876, Note_on_c, 1, 55, 0
3, 3960, Note_on_c, 1, 54, 64
3, 4080, Note_on_c, 1, 54, 0
3, 4080, Note_on_c, 1, 57, 64
3, 4200, Note_on_c, 1, 57, 0
3, 4200, Note_on_c, 1, 62, 64
3, 4320, Note_on_c, 1, 62, 0
3, 4320, Note_on_c, 1, 55, 64
3, 4560, Note_on_c, 1, 65, 64
3, 4680, Note_on_c, 1, 65, 0
3, 4680, Note_on_c, 1, 64, 64
3, 4800, Note_on_c, 1, 64, 0
3, 4800, Note_on_c, 1, 62, 64
3, 4920, Note_on_c, 1, 62, 0
3, 4920, Note_on_c, 1, 60, 64
3, 5040, Note_on_c, 1, 60, 0
3, 5040, Note_on_c, 1, 59, 64
3, 5100, Note_on_c, 1, 59, 0
3, 5100, Note_on_c, 1, 55, 0
3, 5160, Note_on_c, 1, 55, 64
3, 5160, Note_on_c, 1, 59, 64
3, 5196, Note_on_c, 1, 59, 0
3, 5196, Note_on_c, 1, 55, 0
3, 5280, Note_on_c, 1, 54, 64
3, 5280, Note_on_c, 1, 57, 64
3, 5340, Note_on_c, 1, 57, 0
3, 5340, Note_on_c, 1, 54, 0
3, 5400, Note_on_c, 1, 52, 80
3, 5400, Note_on_c, 1, 55, 80
3, 5520, Note_on_c, 1, 55, 0
3, 5520, Note_on_c, 1, 52, 0
3, 5520, Note_on_c, 1, 52, 64
3, 5520, Note_on_c, 1, 59, 64
3, 5640, Note_on_c, 1, 59, 0
3, 5640, Note_on_c, 1, 52, 0
3, 5640, Note_on_c, 1, 57, 64
3, 5640, Note_on_c, 1, 67, 64
3, 5760, Note_on_c, 1, 67, 0
3, 5760, Note_on_c, 1, 57, 0
3, 5760, Note_on_c, 1, 62, 64
3, 5760, Note_on_c, 1, 67, 64
3, 5880, Note_on_c, 1, 67, 0
3, 5880, Note_on_c, 1, 66, 64
3, 5916, Note_on_c, 1, 66, 0
3, 6000, Note_on_c, 1, 66, 64
3, 6036, Note_on_c, 1, 66, 0
3, 6036, Note_on_c, 1, 62, 0
3, 6120, Note_on_c, 1, 62, 64
3, 6120, Note_on_c, 1, 66, 64
3, 6360, Note_on_c, 1, 66, 0
3, 6360, Note_on_c, 1, 62, 0
3, 6480, Note_on_c, 1, 59, 64
3, 6480, Note_on_c, 1, 55, 64
3, 6720, Note_on_c, 1, 55, 0
3, 6720, Note_on_c, 1, 59, 0
3, 6720, Note_on_c, 1, 60, 64
3, 6720, Note_on_c, 1, 55, 64
3, 6840, Note_on_c, 1, 55, 0
3, 6840, Note_on_c, 1, 60, 0
3, 6840, Note_on_c, 1, 60, 64
3, 6840, Note_on_c, 1, 55, 64
3, 7080, Note_on_c, 1, 55, 0
3, 7080, Note_on_c, 1, 60, 0
3, 7080, Note_on_c, 1, 60, 64
3, 7080, Note_on_c, 1, 55, 64
3, 7200, Note_on_c, 1, 55, 0
3, 7200, Note_on_c, 1, 60, 0
3, 7200, Note_on_c, 1, 59, 64
3, 7200, Note_on_c, 1, 55, 64
3, 7236, Note_on_c, 1, 55, 0
3, 7236, Note_on_c, 1, 59, 0
3, 7320, Note_on_c, 1, 59, 64
3, 7320, Note_on_c, 1, 55, 64
3, 7356, Note_on_c, 1, 55, 0
3, 7356, Note_on_c, 1, 59, 0
3, 7440, Note_on_c, 1, 59, 64
3, 7440, Note_on_c, 1, 55, 64
3, 7512, Note_on_c, 1, 55, 0
3, 7512, Note_on_c, 1, 59, 0
3, 7560, Note_on_c, 1, 59, 64
3, 7560, Note_on_c, 1, 55, 64
3, 7800, Note_on_c, 1, 55, 0
3, 7800, Note_on_c, 1, 59, 0
3, 7800, Note_on_c, 1, 54, 64
3, 7890, Note_on_c, 1, 54, 0
3, 7890, Note_on_c, 1, 57, 64
3, 7920, Note_on_c, 1, 57, 0
3, 7920, Note_on_c, 1, 55, 64
3, 8040, Note_on_c, 1, 55, 0
3, 8040, Note_on_c, 1, 54, 64
3, 8160, Note_on_c, 1, 54, 0
3, 8160, Note_on_c, 1, 55, 64
3, 8196, Note_on_c, 1, 55, 0
3, 8280, Note_on_c, 1, 57, 80
3, 8520, Note_on_c, 1, 57, 0
3, 8520, Note_on_c, 1, 55, 64
3, 8640, Note_on_c, 1, 55, 0
3, 8640, Note_on_c, 1, 50, 64
3, 8760, Note_on_c, 1, 50, 0
3, 8760, Note_on_c, 1, 62, 64
3, 8796, Note_on_c, 1, 62, 0
3, 8880, Note_on_c, 1, 62, 64
3, 8916, Note_on_c, 1, 62, 0
3, 9000, Note_on_c, 1, 62, 64
3, 9120, Note_on_c, 1, 62, 0
3, 9120, Note_on_c, 1, 60, 64
3, 9240, Note_on_c, 1, 60, 0
3, 9240, Note_on_c, 1, 59, 80
3, 9312, Note_on_c, 1, 59, 0
3, 9360, Note_on_c, 1, 57, 64
3, 9600, Note_on_c, 1, 57, 0
3, 9600, Note_on_c, 1, 55, 64
3, 9636, Note_on_c, 1, 55, 0
3, 9720, Note_on_c, 1, 54, 64
3, 9840, Note_on_c, 1, 54, 0
3, 9840, Note_on_c, 1, 57, 64
3, 9960, Note_on_c, 1, 57, 0
3, 9960, Note_on_c, 1, 62, 64
3, 10080, Note_on_c, 1, 62, 0
3, 10080, Note_on_c, 1, 55, 64
3, 10320, Note_on_c, 1, 65, 64
3, 10440, Note_on_c, 1, 65, 0
3, 10440, Note_on_c, 1, 64, 64
3, 10560, Note_on_c, 1, 64, 0
3, 10560, Note_on_c, 1, 62, 64
3, 10680, Note_on_c, 1, 62, 0
3, 10680, Note_on_c, 1, 60, 64
3, 10800, Note_on_c, 1, 60, 0
3, 10800, Note_on_c, 1, 59, 64
3, 10872, Note_on_c, 1, 59, 0
3, 10872, Note_on_c, 1, 55, 0
3, 10920, Note_on_c, 1, 59, 64
3, 10920, Note_on_c, 1, 55, 64
3, 10956, Note_on_c, 1, 55, 0
3, 10956, Note_on_c, 1, 59, 0
3, 11040, Note_on_c, 1, 57, 64
3, 11040, Note_on_c, 1, 54, 64
3, 11100, Note_on_c, 1, 54, 0
3, 11100, Note_on_c, 1, 57, 0
3, 11160, Note_on_c, 1, 55, 80
3, 11160, Note_on_c, 1, 52, 80
3, 11280, Note_on_c, 1, 52, 0
3, 11280, Note_on_c, 1, 55, 0
3, 11280, Note_on_c, 1, 59, 64
3, 11280, Note_on_c, 1, 52, 64
3, 11400, Note_on_c, 1, 52, 0
3, 11400, Note_on_c, 1, 59, 0
3, 11400, Note_on_c, 1, 67, 64
3, 11400, Note_on_c, 1, 57, 64
3, 11520, Note_on_c, 1, 57, 0
3, 11520, Note_on_c, 1, 67, 0
3, 11520, Note_on_c, 1, 67, 64
3, 11520, Note_on_c, 1, 62, 64
3, 11640, Note_on_c, 1, 67, 0
3, 11640, Note_on_c, 1, 66, 64
3, 11676, Note_on_c, 1, 66, 0
3, 11760, Note_on_c, 1, 66, 64
3, 11796, Note_on_c, 1, 66, 0
3, 11796, Note_on_c, 1, 62, 0
3, 11880, Note_on_c, 1, 66, 64
3, 11880, Note_on_c, 1, 62, 64
3, 12120, Note_on_c, 1, 62, 0
3, 12120, Note_on_c, 1, 66, 0
3, 12120, Note_on_c, 1, 59, 80
3, 12120, Note_on_c, 1, 62, 80
3, 12240, Note_on_c, 1, 62, 0
3, 12240, Note_on_c, 1, 59, 0
3, 12240, Note_on_c, 1, 59, 80
3, 12240, Note_on_c, 1, 62, 80
3, 12480, Note_on_c, 1, 62, 0
3, 12480, Note_on_c, 1, 59, 0
3, 12480, Note_on_c, 1, 60, 96
3, 12480, Note_on_c, 1, 64, 96
3, 12540, Note_on_c, 1, 64, 0
3, 12540, Note_on_c, 1, 60, 0
3, 12600, Note_on_c, 1, 59, 80
3, 12600, Note_on_c, 1, 62, 80
3, 12720, Note_on_c, 1, 62, 0
3, 12720, Note_on_c, 1, 59, 0
3, 12720, Note_on_c, 1, 57, 80
3, 12720, Note_on_c, 1, 60, 80
3, 12840, Note_on_c, 1, 60, 0
3, 12840, Note_on_c, 1, 57, 0
3, 12840, Note_on_c, 1, 55, 80
3, 12840, Note_on_c, 1, 59, 80
3, 12960, Note_on_c, 1, 59, 0
3, 12960, Note_on_c, 1, 55, 0
3, 12960, Note_on_c, 1, 54, 80
3, 12960, Note_on_c, 1, 57, 80
3, 12996, Note_on_c, 1, 57, 0
3, 12996, Note_on_c, 1, 54, 0
3, 13080, Note_on_c, 1, 54, 80
3, 13080, Note_on_c, 1, 57, 80
3, 13116, Note_on_c, 1, 57, 0
3, 13116, Note_on_c, 1, 54, 0
3, 13200, Note_on_c, 1, 54, 80
3, 13200, Note_on_c, 1, 57, 80
3, 13260, Note_on_c, 1, 57, 0
3, 13260, Note_on_c, 1, 54, 0
3, 13320, Note_on_c, 1, 54, 80
3, 13320, Note_on_c, 1, 57, 80
3, 13440, Note_on_c, 1, 57, 0
3, 13440, Note_on_c, 1, 59, 80
3, 13560, Note_on_c, 1, 59, 0
3, 13560, Note_on_c, 1, 60, 96
3, 13620, Note_on_c, 1, 60, 0
3, 13620, Note_on_c, 1, 54, 0
3, 13680, Note_on_c, 1, 55, 80
3, 13680, Note_on_c, 1, 59, 80
3, 13776, Note_on_c, 1, 59, 0
3, 13776, Note_on_c, 1, 55, 0
3, 13800, Note_on_c, 1, 54, 80
3, 13800, Note_on_c, 1, 57, 80
3, 13896, Note_on_c, 1, 57, 0
3, 13896, Note_on_c, 1, 54, 0
3, 13920, Note_on_c, 1, 52, 80
3, 13920, Note_on_c, 1, 55, 80
3, 14016, Note_on_c, 1, 55, 0
3, 14016, Note_on_c, 1, 52, 0
3, 14040, Note_on_c, 1, 57, 80
3, 14040, Note_on_c, 1, 67, 80
3, 14136, Note_on_c, 1, 67, 0
3, 14160, Note_on_c, 1, 66, 80
3, 14256, Note_on_c, 1, 66, 0
3, 14280, Note_on_c, 1, 64, 80
3, 14376, Note_on_c, 1, 64, 0
3, 14376, Note_on_c, 1, 57, 0
3, 14520, Note_on_c, 1, 50, 64
3, 14520, Note_on_c, 1, 54, 64
3, 14640, Note_on_c, 1, 54, 0
3, 14640, Note_on_c, 1, 50, 0
3, 14640, Note_on_c, 1, 52, 64
3, 14640, Note_on_c, 1, 55, 64
3, 14676, Note_on_c, 1, 55, 0
3, 14676, Note_on_c, 1, 52, 0
3, 14880, Note_on_c, 1, 54, 64
3, 14880, Note_on_c, 1, 57, 64
3, 15000, Note_on_c, 1, 57, 0
3, 15000, Note_on_c, 1, 54, 0
3, 15000, Note_on_c, 1, 55, 64
3, 15000, Note_on_c, 1, 59, 64
3, 15036, Note_on_c, 1, 59, 0
3, 15036, Note_on_c, 1, 55, 0
3, 15240, Note_on_c, 1, 60, 64
3, 15240, Note_on_c, 1, 57, 64
3, 15360, Note_on_c, 1, 57, 0
3, 15360, Note_on_c, 1, 60, 0
3, 15360, Note_on_c, 1, 59, 64
3, 15360, Note_on_c, 1, 55, 64
3, 15396, Note_on_c, 1, 55, 0
3, 15396, Note_on_c, 1, 59, 0
3, 15600, Note_on_c, 1, 57, 64
3, 15600, Note_on_c, 1, 54, 64
3, 15720, Note_on_c, 1, 54, 0
3, 15720, Note_on_c, 1, 57, 0
3, 15720, Note_on_c, 1, 55, 64
3, 15720, Note_on_c, 1, 52, 64
3, 15756, Note_on_c, 1, 52, 0
3, 15756, Note_on_c, 1, 55, 0
3, 15840, Note_on_c, 1, 50, 48
3, 15840, Note_on_c, 1, 54, 48
3, 15876, Note_on_c, 1, 54, 0
3, 15876, Note_on_c, 1, 50, 0
3, 16080, Note_on_c, 1, 62, 48
3, 16116, Note_on_c, 1, 62, 0
3, 16200, Note_on_c, 1, 62, 48
3, 16236, Note_on_c, 1, 62, 0
3, 16440, Note_on_c, 1, 62, 48
3, 16476, Note_on_c, 1, 62, 0
3, 16560, Note_on_c, 1, 62, 48
3, 16596, Note_on_c, 1, 62, 0
3, 16800, Note_on_c, 1, 62, 48
3, 16836, Note_on_c, 1, 62, 0
3, 16920, Note_on_c, 1, 62, 48
3, 17040, Note_on_c, 1, 66, 48
3, 17136, Note_on_c, 1, 66, 0
3, 17160, Note_on_c, 1, 67, 48
3, 17256, Note_on_c, 1, 67, 0
3, 17280, Note_on_c, 1, 69, 40
3, 17856, Note_on_c, 1, 69, 0
3, 17856, Note_on_c, 1, 62, 0
3, 18360, Note_on_c, 1, 59, 64
3, 18360, Note_on_c, 1, 55, 64
3, 18600, Note_on_c, 1, 55, 0
3, 18600, Note_on_c, 1, 59, 0
3, 18600, Note_on_c, 1, 60, 64
3, 18600, Note_on_c, 1, 55, 64
3, 18720, Note_on_c, 1, 55, 0
3, 18720, Note_on_c, 1, 60, 0
3, 18720, Note_on_c, 1, 60, 64
3, 18720, Note_on_c, 1, 55, 64
3, 18960, Note_on_c, 1, 55, 0
3, 18960, Note_on_c, 1, 60, 0
3, 18960, Note_on_c, 1, 60, 64
3, 18960, Note_on_c, 1, 55, 64
3, 19080, Note_on_c, 1, 55, 0
3, 19080, Note_on_c, 1, 60, 0
3, 19080, Note_on_c, 1, 59, 64
3, 19080, Note_on_c, 1, 55, 64
3, 19116, Note_on_c, 1, 55, 0
3, 19116, Note_on_c, 1, 59, 0
3, 19200, Note_on_c, 1, 59, 64
3, 19200, Note_on_c, 1, 55, 64
3, 19236, Note_on_c, 1, 55, 0
3, 19236, Note_on_c, 1, 59, 0
3, 19320, Note_on_c, 1, 59, 64
3, 19320, Note_on_c, 1, 55, 64
3, 19380, Note_on_c, 1, 55, 0
3, 19380, Note_on_c, 1, 59, 0
3, 19440, Note_on_c, 1, 59, 64
3, 19440, Note_on_c, 1, 55, 64
3, 19680, Note_on_c, 1, 55, 0
3, 19680, Note_on_c, 1, 59, 0
3, 19680, Note_on_c, 1, 54, 64
3, 19770, Note_on_c, 1, 54, 0
3, 19770, Note_on_c, 1, 57, 64
3, 19800, Note_on_c, 1, 57, 0
3, 19800, Note_on_c, 1, 55, 64
3, 19920, Note_on_c, 1, 55, 0
3, 19920, Note_on_c, 1, 54, 64
3, 20040, Note_on_c, 1, 54, 0
3, 20040, Note_on_c, 1, 55, 64
3, 20100, Note_on_c, 1, 55, 0
3, 20160, Note_on_c, 1, 57, 80
3, 20400, Note_on_c, 1, 57, 0
3, 20400, Note_on_c, 1, 55, 64
3, 20520, Note_on_c, 1, 55, 0
3, 20520, Note_on_c, 1, 50, 64
3, 20640, Note_on_c, 1, 50, 0
3, 20640, Note_on_c, 1, 62, 64
3, 20676, Note_on_c, 1, 62, 0
3, 20760, Note_on_c, 1, 62, 64
3, 20796, Note_on_c, 1, 62, 0
3, 20880, Note_on_c, 1, 62, 64
3, 21000, Note_on_c, 1, 62, 0
3, 21000, Note_on_c, 1, 60, 64
3, 21120, Note_on_c, 1, 60, 0
3, 21120, Note_on_c, 1, 59, 80
3, 21192, Note_on_c, 1, 59, 0
3, 21240, Note_on_c, 1, 57, 64
3, 21480, Note_on_c, 1, 57, 0
3, 21480, Note_on_c, 1, 55, 64
3, 21516, Note_on_c, 1, 55, 0
3, 21600, Note_on_c, 1, 54, 64
3, 21720, Note_on_c, 1, 54, 0
3, 21720, Note_on_c, 1, 57, 64
3, 21840, Note_on_c, 1, 57, 0
3, 21840, Note_on_c, 1, 62, 64
3, 21960, Note_on_c, 1, 62, 0
3, 21960, Note_on_c, 1, 55, 64
3, 22320, Note_on_c, 1, 55, 0
3, 22320, Note_on_c, 1, 43, 64
3, 22440, Note_on_c, 1, 43, 0
3, 22440, Note_on_c, 1, 47, 64
3, 22560, Note_on_c, 1, 47, 0
3, 22560, Note_on_c, 1, 52, 64
3, 22680, Note_on_c, 1, 52, 0
3, 22680, Note_on_c, 1, 48, 64
3, 23040, Note_on_c, 1, 48, 0
3, 23040, Note_on_c, 1, 50, 64
3, 23400, Note_on_c, 1, 50, 0
3, 23400, Note_on_c, 1, 43, 64
3, 23520, Note_on_c, 1, 43, 0
3, 23520, Note_on_c, 1, 47, 64
3, 23556, Note_on_c, 1, 47, 0
3, 23640, Note_on_c, 1, 50, 64
3, 23676, Note_on_c, 1, 50, 0
3, 23760, Note_on_c, 1, 55, 64
3, 24000, Note_on_c, 1, 55, 0
3, 24000, Note_on_c, 1, 62, 80
3, 24000, Note_on_c, 1, 59, 80
3, 24120, Note_on_c, 1, 59, 0
3, 24120, Note_on_c, 1, 62, 0
3, 24120, Note_on_c, 1, 62, 80
3, 24120, Note_on_c, 1, 59, 80
3, 24360, Note_on_c, 1, 59, 0
3, 24360, Note_on_c, 1, 62, 0
3, 24360, Note_on_c, 1, 64, 96
3, 24360, Note_on_c, 1, 60, 96
3, 24420, Note_on_c, 1, 60, 0
3, 24420, Note_on_c, 1, 64, 0
3, 24480, Note_on_c, 1, 62, 80
3, 24480, Note_on_c, 1, 59, 80
3, 24600, Note_on_c, 1, 59, 0
3, 24600, Note_on_c, 1, 62, 0
3, 24600, Note_on_c, 1, 60, 80
3, 24600, Note_on_c, 1, 57, 80
3, 24720, Note_on_c, 1, 57, 0
3, 24720, Note_on_c, 1, 60, 0
3, 24720, Note_on_c, 1, 59, 80
3, 24720, Note_on_c, 1, 55, 80
3, 24840, Note_on_c, 1, 55, 0
3, 24840, Note_on_c, 1, 59, 0
3, 24840, Note_on_c, 1, 57, 80
3, 24840, Note_on_c, 1, 54, 80
3, 24876, Note_on_c, 1, 54, 0
3, 24876, Note_on_c, 1, 57, 0
3, 24960, Note_on_c, 1, 57, 80
3, 24960, Note_on_c, 1, 54, 80
3, 24996, Note_on_c, 1, 54, 0
3, 24996, Note_on_c, 1, 57, 0
3, 25080, Note_on_c, 1, 57, 80
3, 25080, Note_on_c, 1, 54, 80
3, 25140, Note_on_c, 1, 54, 0
3, 25140, Note_on_c, 1, 57, 0
3, 25200, Note_on_c, 1, 57, 80
3, 25200, Note_on_c, 1, 54, 80
3, 25320, Note_on_c, 1, 57, 0
3, 25320, Note_on_c, 1, 59, 80
3, 25440, Note_on_c, 1, 59, 0
3, 25440, Note_on_c, 1, 60, 96
3, 25500, Note_on_c, 1, 60, 0
3, 25500, Note_on_c, 1, 54, 0
3, 25560, Note_on_c, 1, 59, 80
3, 25560, Note_on_c, 1, 55, 80
3, 25656, Note_on_c, 1, 55, 0
3, 25656, Note_on_c, 1, 59, 0
3, 25680, Note_on_c, 1, 57, 80
3, 25680, Note_on_c, 1, 54, 80
3, 25776, Note_on_c, 1, 54, 0
3, 25776, Note_on_c, 1, 57, 0
3, 25800, Note_on_c, 1, 55, 80
3, 25800, Note_on_c, 1, 52, 80
3, 25896, Note_on_c, 1, 52, 0
3, 25896, Note_on_c, 1, 55, 0
3, 25920, Note_on_c, 1, 67, 80
3, 25920, Note_on_c, 1, 57, 80
3, 26016, Note_on_c, 1, 67, 0
3, 26040, Note_on_c, 1, 66, 80
3, 26136, Note_on_c, 1, 66, 0
3, 26160, Note_on_c, 1, 64, 80
3, 26256, Note_on_c, 1, 64, 0
3, 26256, Note_on_c, 1, 57, 0
3, 26400, Note_on_c, 1, 54, 64
3, 26400, Note_on_c, 1, 50, 64
3, 26520, Note_on_c, 1, 50, 0
3, 26520, Note_on_c, 1, 54, 0
3, 26520, Note_on_c, 1, 55, 64
3, 26520, Note_on_c, 1, 52, 64
3, 26556, Note_on_c, 1, 52, 0
3, 26556, Note_on_c, 1, 55, 0
3, 26760, Note_on_c, 1, 57, 64
3, 26760, Note_on_c, 1, 54, 64
3, 26880, Note_on_c, 1, 54, 0
3, 26880, Note_on_c, 1, 57, 0
3, 26880, Note_on_c, 1, 59, 64
3, 26880, Note_on_c, 1, 55, 64
3, 26916, Note_on_c, 1, 55, 0
3, 26916, Note_on_c, 1, 59, 0
3, 27120, Note_on_c, 1, 57, 64
3, 27120, Note_on_c, 1, 60, 64
3, 27240, Note_on_c, 1, 60, 0
3, 27240, Note_on_c, 1, 57, 0
3, 27240, Note_on_c, 1, 55, 64
3, 27240, Note_on_c, 1, 59, 64
3, 27276, Note_on_c, 1, 59, 0
3, 27276, Note_on_c, 1, 55, 0
3, 27480, Note_on_c, 1, 54, 64
3, 27480, Note_on_c, 1, 57, 64
3, 27600, Note_on_c, 1, 57, 0
3, 27600, Note_on_c, 1, 54, 0
3, 27600, Note_on_c, 1, 52, 64
3, 27600, Note_on_c, 1, 55, 64
3, 27636, Note_on_c, 1, 55, 0
3, 27636, Note_on_c, 1, 52, 0
3, 27720, Note_on_c, 1, 54, 48
3, 27720, Note_on_c, 1, 50, 48
3, 27756, Note_on_c, 1, 50, 0
3, 27756, Note_on_c, 1, 54, 0
3, 27960, Note_on_c, 1, 62, 48
3, 27996, Note_on_c, 1, 62, 0
3, 28080, Note_on_c, 1, 62, 48
3, 28116, Note_on_c, 1, 62, 0
3, 28320, Note_on_c, 1, 62, 48
3, 28356, Note_on_c, 1, 62, 0
3, 28440, Note_on_c, 1, 62, 48
3, 28476, Note_on_c, 1, 62, 0
3, 28680, Note_on_c, 1, 62, 48
3, 28716, Note_on_c, 1, 62, 0
3, 28800, Note_on_c, 1, 62, 48
3, 28920, Note_on_c, 1, 66, 48
3, 29016, Note_on_c, 1, 66, 0
3, 29040, Note_on_c, 1, 67, 48
3, 29136, Note_on_c, 1, 67, 0
3, 29160, Note_on_c, 1, 69, 40
3, 29736, Note_on_c, 1, 69, 0
3, 29736, Note_on_c, 1, 62, 0
3, 30240, Note_on_c, 1, 55, 64
3, 30240, Note_on_c, 1, 59, 64
3, 30480, Note_on_c, 1, 59, 0
3, 30480, Note_on_c, 1, 55, 0
3, 30480, Note_on_c, 1, 55, 64
3, 30480, Note_on_c, 1, 60, 64
3, 30600, Note_on_c, 1, 60, 0
3, 30600, Note_on_c, 1, 55, 0
3, 30600, Note_on_c, 1, 55, 64
3, 30600, Note_on_c, 1, 60, 64
3, 30840, Note_on_c, 1, 60, 0
3, 30840, Note_on_c, 1, 55, 0
3, 30840, Note_on_c, 1, 55, 64
3, 30840, Note_on_c, 1, 60, 64
3, 30960, Note_on_c, 1, 60, 0
3, 30960, Note_on_c, 1, 55, 0
3, 30960, Note_on_c, 1, 55, 64
3, 30960, Note_on_c, 1, 59, 64
3, 30996, Note_on_c, 1, 59, 0
3, 30996, Note_on_c, 1, 55, 0
3, 31080, Note_on_c, 1, 55, 64
3, 31080, Note_on_c, 1, 59, 64
3, 31116, Note_on_c, 1, 59, 0
3, 31116, Note_on_c, 1, 55, 0
3, 31200, Note_on_c, 1, 55, 64
3, 31200, Note_on_c, 1, 59, 64
3, 31260, Note_on_c, 1, 59, 0
3, 31260, Note_on_c, 1, 55, 0
3, 31320, Note_on_c, 1, 55, 64
3, 31320, Note_on_c, 1, 59, 64
3, 31560, Note_on_c, 1, 59, 0
3, 31560, Note_on_c, 1, 55, 0
3, 31560, Note_on_c, 1, 54, 64
3, 31650, Note_on_c, 1, 54, 0
3, 31650, Note_on_c, 1, 57, 64
3, 31680, Note_on_c, 1, 57, 0
3, 31680, Note_on_c, 1, 55, 64
3, 31800, Note_on_c, 1, 55, 0
3, 31800, Note_on_c, 1, 54, 64
3, 31920, Note_on_c, 1, 54, 0
3, 31920, Note_on_c, 1, 55, 64
3, 31980, Note_on_c, 1, 55, 0
3, 32040, Note_on_c, 1, 57, 80
3, 32280, Note_on_c, 1, 57, 0
3, 32280, Note_on_c, 1, 55, 64
3, 32400, Note_on_c, 1, 55, 0
3, 32400, Note_on_c, 1, 50, 64
3, 32520, Note_on_c, 1, 50, 0
3, 32520, Note_on_c, 1, 62, 64
3, 32556, Note_on_c, 1, 62, 0
3, 32640, Note_on_c, 1, 62, 64
3, 32676, Note_on_c, 1, 62, 0
3, 32760, Note_on_c, 1, 62, 64
3, 32880, Note_on_c, 1, 62, 0
3, 32880, Note_on_c, 1, 60, 64
3, 33000, Note_on_c, 1, 60, 0
3, 33000, Note_on_c, 1, 59, 80
3, 33072, Note_on_c, 1, 59, 0
3, 33120, Note_on_c, 1, 57, 64
3, 33360, Note_on_c, 1, 57, 0
3, 33360, Note_on_c, 1, 55, 64
3, 33396, Note_on_c, 1, 55, 0
3, 33480, Note_on_c, 1, 54, 64
3, 33600, Note_on_c, 1, 54, 0
3, 33600, Note_on_c, 1, 57, 64
3, 33720, Note_on_c, 1, 57, 0
3, 33720, Note_on_c, 1, 62, 64
3, 33840, Note_on_c, 1, 62, 0
3, 33840, Note_on_c, 1, 55, 64
3, 34200, Note_on_c, 1, 55, 0
3, 34200, Note_on_c, 1, 43, 64
3, 34320, Note_on_c, 1, 43, 0
3, 34320, Note_on_c, 1, 47, 64
3, 34440, Note_on_c, 1, 47, 0
3, 34440, Note_on_c, 1, 52, 64
3, 34560, Note_on_c, 1, 52, 0
3, 34560, Note_on_c, 1, 48, 64
3, 34920, Note_on_c, 1, 48, 0
3, 34920, Note_on_c, 1, 50, 64
3, 35280, Note_on_c, 1, 50, 0
3, 35280, Note_on_c, 1, 43, 64
3, 35400, Note_on_c, 1, 43, 0
3, 35400, Note_on_c, 1, 47, 64
3, 35436, Note_on_c, 1, 47, 0
3, 35520, Note_on_c, 1, 50, 64
3, 35556, Note_on_c, 1, 50, 0
3, 35640, Note_on_c, 1, 55, 64
3, 35880, Note_on_c, 1, 55, 0
3, 36120, Note_on_c, 1, 55, 64
3, 36120, Note_on_c, 1, 58, 64
3, 36156, Note_on_c, 1, 58, 0
3, 36156, Note_on_c, 1, 55, 0
3, 36480, Note_on_c, 1, 55, 64
3, 36480, Note_on_c, 1, 60, 64
3, 36516, Note_on_c, 1, 60, 0
3, 36516, Note_on_c, 1, 55, 0
3, 36840, Note_on_c, 1, 60, 64
3, 36840, Note_on_c, 1, 55, 64
3, 36876, Note_on_c, 1, 55, 0
3, 36876, Note_on_c, 1, 60, 0
3, 37200, Note_on_c, 1, 55, 64
3, 37200, Note_on_c, 1, 58, 64
3, 37236, Note_on_c, 1, 58, 0
3, 37236, Note_on_c, 1, 55, 0
3, 37320, Note_on_c, 1, 55, 80
3, 37320, Note_on_c, 1, 64, 80
3, 37440, Note_on_c, 1, 64, 0
3, 37440, Note_on_c, 1, 55, 0
3, 37440, Note_on_c, 1, 53, 64
3, 37440, Note_on_c, 1, 65, 64
3, 37680, Note_on_c, 1, 65, 0
3, 37680, Note_on_c, 1, 53, 0
3, 37680, Note_on_c, 1, 55, 80
3, 37680, Note_on_c, 1, 64, 80
3, 37800, Note_on_c, 1, 64, 0
3, 37800, Note_on_c, 1, 55, 0
3, 37800, Note_on_c, 1, 53, 64
3, 37800, Note_on_c, 1, 65, 64
3, 38040, Note_on_c, 1, 65, 0
3, 38040, Note_on_c, 1, 53, 0
3, 38040, Note_on_c, 1, 58, 80
3, 38040, Note_on_c, 1, 62, 80
3, 38040, Note_on_c, 1, 65, 80
3, 38160, Note_on_c, 1, 65, 0
3, 38160, Note_on_c, 1, 62, 0
3, 38160, Note_on_c, 1, 58, 0
3, 38160, Note_on_c, 1, 57, 80
3, 38160, Note_on_c, 1, 62, 80
3, 38160, Note_on_c, 1, 65, 80
3, 38520, Note_on_c, 1, 65, 0
3, 38520, Note_on_c, 1, 62, 0
3, 38520, Note_on_c, 1, 57, 0
3, 38520, Note_on_c, 1, 56, 80
3, 38520, Note_on_c, 1, 62, 80
3, 38520, Note_on_c, 1, 65, 80
3, 38880, Note_on_c, 1, 65, 0
3, 38880, Note_on_c, 1, 62, 0
3, 38880, Note_on_c, 1, 56, 0
3, 38880, Note_on_c, 1, 57, 64
3, 38880, Note_on_c, 1, 62, 64
3, 38880, Note_on_c, 1, 65, 64
3, 39120, Note_on_c, 1, 65, 0
3, 39120, Note_on_c, 1, 62, 0
3, 39120, Note_on_c, 1, 57, 0
3, 39240, Note_on_c, 1, 64, 64
3, 39240, Note_on_c, 1, 57, 64
3, 39360, Note_on_c, 1, 67, 64
3, 39480, Note_on_c, 1, 67, 0
3, 39480, Note_on_c, 1, 57, 0
3, 39480, Note_on_c, 1, 64, 0
3, 39480, Note_on_c, 1, 67, 64
3, 39600, Note_on_c, 1, 67, 0
3, 39600, Note_on_c, 1, 62, 64
3, 39600, Note_on_c, 1, 67, 64
3, 39720, Note_on_c, 1, 67, 0
3, 39720, Note_on_c, 1, 65, 64
3, 39840, Note_on_c, 1, 65, 0
3, 39840, Note_on_c, 1, 64, 64
3, 39960, Note_on_c, 1, 64, 0
3, 39960, Note_on_c, 1, 62, 0
3, 39960, Note_on_c, 1, 62, 64
3, 40020, Note_on_c, 1, 62, 0
3, 40440, Note_on_c, 1, 58, 64
3, 40440, Note_on_c, 1, 55, 64
3, 40476, Note_on_c, 1, 55, 0
3, 40476, Note_on_c, 1, 58, 0
3, 40800, Note_on_c, 1, 60, 64
3, 40800, Note_on_c, 1, 55, 64
3, 40836, Note_on_c, 1, 55, 0
3, 40836, Note_on_c, 1, 60, 0
3, 41160, Note_on_c, 1, 55, 64
3, 41160, Note_on_c, 1, 60, 64
3, 41196, Note_on_c, 1, 60, 0
3, 41196, Note_on_c, 1, 55, 0
3, 41520, Note_on_c, 1, 58, 64
3, 41520, Note_on_c, 1, 55, 64
3, 41556, Note_on_c, 1, 55, 0
3, 41556, Note_on_c, 1, 58, 0
3, 41640, Note_on_c, 1, 64, 80
3, 41640, Note_on_c, 1, 55, 80
3, 41760, Note_on_c, 1, 55, 0
3, 41760, Note_on_c, 1, 64, 0
3, 41760, Note_on_c, 1, 65, 64
3, 41760, Note_on_c, 1, 53, 64
3, 42000, Note_on_c, 1, 53, 0
3, 42000, Note_on_c, 1, 65, 0
3, 42000, Note_on_c, 1, 64, 80
3, 42000, Note_on_c, 1, 55, 80
3, 42120, Note_on_c, 1, 55, 0
3, 42120, Note_on_c, 1, 64, 0
3, 42120, Note_on_c, 1, 65, 64
3, 42120, Note_on_c, 1, 53, 64
3, 42360, Note_on_c, 1, 53, 0
3, 42360, Note_on_c, 1, 65, 0
3, 42360, Note_on_c, 1, 65, 80
3, 42360, Note_on_c, 1, 62, 80
3, 42360, Note_on_c, 1, 58, 80
3, 42480, Note_on_c, 1, 58, 0
3, 42480, Note_on_c, 1, 62, 0
3, 42480, Note_on_c, 1, 65, 0
3, 42480, Note_on_c, 1, 65, 80
3, 42480, Note_on_c, 1, 62, 80
3, 42480, Note_on_c, 1, 57, 80
3, 42840, Note_on_c, 1, 57, 0
3, 42840, Note_on_c, 1, 62, 0
3, 42840, Note_on_c, 1, 65, 0
3, 42840, Note_on_c, 1, 65, 80
3, 42840, Note_on_c, 1, 62, 80
3, 42840, Note_on_c, 1, 56, 80
3, 43200, Note_on_c, 1, 56, 0
3, 43200, Note_on_c, 1, 62, 0
3, 43200, Note_on_c, 1, 65, 0
3, 43200, Note_on_c, 1, 65, 64
3, 43200, Note_on_c, 1, 62, 64
3, 43200, Note_on_c, 1, 57, 64
3, 43440, Note_on_c, 1, 57, 0
3, 43440, Note_on_c, 1, 62, 0
3, 43440, Note_on_c, 1, 65, 0
3, 43560, Note_on_c, 1, 57, 64
3, 43560, Note_on_c, 1, 64, 64
3, 43680, Note_on_c, 1, 67, 64
3, 43800, Note_on_c, 1, 67, 0
3, 43800, Note_on_c, 1, 64, 0
3, 43800, Note_on_c, 1, 57, 0
3, 43800, Note_on_c, 1, 67, 64
3, 43920, Note_on_c, 1, 67, 0
3, 43920, Note_on_c, 1, 67, 64
3, 43920, Note_on_c, 1, 62, 64
3, 44040, Note_on_c, 1, 67, 0
3, 44040, Note_on_c, 1, 65, 64
3, 44160, Note_on_c, 1, 65, 0
3, 44160, Note_on_c, 1, 64, 64
3, 44280, Note_on_c, 1, 64, 0
3, 44280, Note_on_c, 1, 62, 0
3, 44280, Note_on_c, 1, 62, 64
3, 44340, Note_on_c, 1, 62, 0
3, 44760, Note_on_c, 1, 62, 64
3, 44760, Note_on_c, 1, 58, 64
3, 44796, Note_on_c, 1, 58, 0
3, 44796, Note_on_c, 1, 62, 0
3, 45120, Note_on_c, 1, 63, 64
3, 45120, Note_on_c, 1, 57, 64
3, 45156, Note_on_c, 1, 57, 0
3, 45156, Note_on_c, 1, 63, 0
3, 45480, Note_on_c, 1, 58, 64
3, 45480, Note_on_c, 1, 55, 64
3, 45516, Note_on_c, 1, 55, 0
3, 45516, Note_on_c, 1, 58, 0
3, 45840, Note_on_c, 1, 38, 64
3, 45840, Note_on_c, 1, 50, 64
3, 45876, Note_on_c, 1, 50, 0
3, 45876, Note_on_c, 1, 38, 0
3, 45960, Note_on_c, 1, 62, 80
3, 45960, Note_on_c, 1, 58, 80
3, 46080, Note_on_c, 1, 58, 0
3, 46080, Note_on_c, 1, 62, 0
3, 46080, Note_on_c, 1, 60, 64
3, 46080, Note_on_c, 1, 63, 64
3, 46320, Note_on_c, 1, 63, 0
3, 46320, Note_on_c, 1, 60, 0
3, 46320, Note_on_c, 1, 58, 80
3, 46320, Note_on_c, 1, 62, 80
3, 46440, Note_on_c, 1, 62, 0
3, 46440, Note_on_c, 1, 58, 0
3, 46440, Note_on_c, 1, 60, 64
3, 46440, Note_on_c, 1, 63, 64
3, 46680, Note_on_c, 1, 63, 0
3, 46680, Note_on_c, 1, 60, 0
3, 46680, Note_on_c, 1, 58, 64
3, 46680, Note_on_c, 1, 62, 64
3, 46716, Note_on_c, 1, 62, 0
3, 46716, Note_on_c, 1, 58, 0
3, 46800, Note_on_c, 1, 54, 88
3, 46800, Note_on_c, 1, 57, 88
3, 46800, Note_on_c, 1, 60, 88
3, 46800, Note_on_c, 1, 63, 88
3, 47160, Note_on_c, 1, 63, 0
3, 47160, Note_on_c, 1, 54, 0
3, 47160, Note_on_c, 1, 57, 0
3, 47160, Note_on_c, 1, 60, 0
3, 47160, Note_on_c, 1, 55, 80
3, 47520, Note_on_c, 1, 55, 0
3, 47520, Note_on_c, 1, 60, 80
3, 47640, Note_on_c, 1, 72, 77
3, 47676, Note_on_c, 1, 72, 0
3, 47760, Note_on_c, 1, 72, 75
3, 47880, Note_on_c, 1, 60, 0
3, 47880, Note_on_c, 1, 62, 72
3, 48000, Note_on_c, 1, 72, 0
3, 48000, Note_on_c, 1, 70, 69
3, 48120, Note_on_c, 1, 70, 0
3, 48120, Note_on_c, 1, 69, 67
3, 48240, Note_on_c, 1, 69, 0
3, 48240, Note_on_c, 1, 62, 0
3, 48240, Note_on_c, 1, 55, 64
3, 48240, Note_on_c, 1, 69, 64
3, 48600, Note_on_c, 1, 69, 0
3, 48600, Note_on_c, 1, 55, 0
3, 48600, Note_on_c, 1, 55, 56
3, 48600, Note_on_c, 1, 67, 56
3, 48672, Note_on_c, 1, 67, 0
3, 48672, Note_on_c, 1, 55, 0
3, 49080, Note_on_c, 1, 58, 64
3, 49080, Note_on_c, 1, 62, 64
3, 49116, Note_on_c, 1, 62, 0
3, 49116, Note_on_c, 1, 58, 0
3, 49440, Note_on_c, 1, 57, 64
3, 49440, Note_on_c, 1, 63, 64
3, 49476, Note_on_c, 1, 63, 0
3, 49476, Note_on_c, 1, 57, 0
3, 49800, Note_on_c, 1, 55, 64
3, 49800, Note_on_c, 1, 58, 64
3, 49836, Note_on_c, 1, 58, 0
3, 49836, Note_on_c, 1, 55, 0
3, 50160, Note_on_c, 1, 50, 64
3, 50160, Note_on_c, 1, 38, 64
3, 50196, Note_on_c, 1, 38, 0
3, 50196, Note_on_c, 1, 50, 0
3, 50280, Note_on_c, 1, 58, 80
3, 50280, Note_on_c, 1, 62, 80
3, 50400, Note_on_c, 1, 62, 0
3, 50400, Note_on_c, 1, 58, 0
3, 50400, Note_on_c, 1, 63, 64
3, 50400, Note_on_c, 1, 60, 64
3, 50640, Note_on_c, 1, 60, 0
3, 50640, Note_on_c, 1, 63, 0
3, 50640, Note_on_c, 1, 62, 80
3, 50640, Note_on_c, 1, 58, 80
3, 50760, Note_on_c, 1, 58, 0
3, 50760, Note_on_c, 1, 62, 0
3, 50760, Note_on_c, 1, 63, 80
3, 50760, Note_on_c, 1, 60, 80
3, 51000, Note_on_c, 1, 60, 0
3, 51000, Note_on_c, 1, 63, 0
3, 51000, Note_on_c, 1, 62, 80
3, 51000, Note_on_c, 1, 58, 80
3, 51036, Note_on_c, 1, 58, 0
3, 51036, Note_on_c, 1, 62, 0
3, 51120, Note_on_c, 1, 63, 88
3, 51120, Note_on_c, 1, 60, 88
3, 51120, Note_on_c, 1, 57, 88
3, 51120, Note_on_c, 1, 54, 88
3, 51480, Note_on_c, 1, 54, 0
3, 51480, Note_on_c, 1, 63, 0
3, 51480, Note_on_c, 1, 60, 0
3, 51480, Note_on_c, 1, 57, 0
3, 51480, Note_on_c, 1, 55, 80
3, 51840, Note_on_c, 1, 55, 0
3, 51840, Note_on_c, 1, 60, 80
3, 51960, Note_on_c, 1, 72, 77
3, 51996, Note_on_c, 1, 72, 0
3, 52080, Note_on_c, 1, 72, 75
3, 52200, Note_on_c, 1, 60, 0
3, 52200, Note_on_c, 1, 62, 72
3, 52320, Note_on_c, 1, 72, 0
3, 52320, Note_on_c, 1, 70, 69
3, 52440, Note_on_c, 1, 70, 0
3, 52440, Note_on_c, 1, 69, 67
3, 52560, Note_on_c, 1, 69, 0
3, 52560, Note_on_c, 1, 62, 0
3, 52560, Note_on_c, 1, 69, 64
3, 52560, Note_on_c, 1, 55, 64
3, 52920, Note_on_c, 1, 55, 0
3, 52920, Note_on_c, 1, 69, 0
3, 52920, Note_on_c, 1, 67, 56
3, 52920, Note_on_c, 1, 55, 56
3, 52992, Note_on_c, 1, 55, 0
3, 52992, Note_on_c, 1, 67, 0
3, 53160, Note_on_c, 1, 59, 64
3, 53160, Note_on_c, 1, 55, 64
3, 53256, Note_on_c, 1, 55, 0
3, 53256, Note_on_c, 1, 59, 0
3, 53280, Note_on_c, 1, 59, 64
3, 53280, Note_on_c, 1, 55, 64
3, 53520, Note_on_c, 1, 55, 0
3, 53520, Note_on_c, 1, 59, 0
3, 53520, Note_on_c, 1, 60, 64
3, 53520, Note_on_c, 1, 55, 64
3, 53640, Note_on_c, 1, 55, 0
3, 53640, Note_on_c, 1, 60, 0
3, 53640, Note_on_c, 1, 60, 64
3, 53640, Note_on_c, 1, 55, 64
3, 53880, Note_on_c, 1, 55, 0
3, 53880, Note_on_c, 1, 60, 0
3, 53880, Note_on_c, 1, 60, 64
3, 53880, Note_on_c, 1, 55, 64
3, 54000, Note_on_c, 1, 55, 0
3, 54000, Note_on_c, 1, 60, 0
3, 54000, Note_on_c, 1, 55, 64
3, 54000, Note_on_c, 1, 59, 64
3, 54060, Note_on_c, 1, 59, 0
3, 54060, Note_on_c, 1, 58, 64
3, 54120, Note_on_c, 1, 58, 0
3, 54120, Note_on_c, 1, 59, 64
3, 54180, Note_on_c, 1, 59, 0
3, 54180, Note_on_c, 1, 58, 64
3, 54240, Note_on_c, 1, 58, 0
3, 54240, Note_on_c, 1, 59, 64
3, 54300, Note_on_c, 1, 59, 0
3, 54300, Note_on_c, 1, 58, 64
3, 54360, Note_on_c, 1, 58, 0
3, 54360, Note_on_c, 1, 59, 64
3, 54600, Note_on_c, 1, 59, 0
3, 54600, Note_on_c, 1, 55, 0
3, 54600, Note_on_c, 1, 54, 64
3, 54672, Note_on_c, 1, 54, 0
3, 54690, Note_on_c, 1, 57, 64
3, 54714, Note_on_c, 1, 57, 0
3, 54720, Note_on_c, 1, 55, 64
3, 54780, Note_on_c, 1, 55, 0
3, 54780, Note_on_c, 1, 54, 64
3, 54840, Note_on_c, 1, 54, 0
3, 54840, Note_on_c, 1, 55, 64
3, 54900, Note_on_c, 1, 55, 0
3, 54900, Note_on_c, 1, 54, 64
3, 54960, Note_on_c, 1, 54, 0
3, 54960, Note_on_c, 1, 55, 64
3, 55020, Note_on_c, 1, 55, 0
3, 55020, Note_on_c, 1, 59, 64
3, 55080, Note_on_c, 1, 59, 0
3, 55080, Note_on_c, 1, 57, 80
3, 55320, Note_on_c, 1, 57, 0
3, 55320, Note_on_c, 1, 55, 64
3, 55356, Note_on_c, 1, 55, 0
3, 55440, Note_on_c, 1, 50, 64
3, 55500, Note_on_c, 1, 50, 0
3, 55500, Note_on_c, 1, 61, 64
3, 55560, Note_on_c, 1, 61, 0
3, 55560, Note_on_c, 1, 62, 64
3, 55620, Note_on_c, 1, 62, 0
3, 55620, Note_on_c, 1, 61, 64
3, 55680, Note_on_c, 1, 61, 0
3, 55680, Note_on_c, 1, 62, 64
3, 55740, Note_on_c, 1, 62, 0
3, 55740, Note_on_c, 1, 61, 64
3, 55800, Note_on_c, 1, 61, 0
3, 55800, Note_on_c, 1, 62, 64
3, 55860, Note_on_c, 1, 62, 0
3, 55860, Note_on_c, 1, 64, 64
3, 55920, Note_on_c, 1, 64, 0
3, 55920, Note_on_c, 1, 60, 64
3, 55980, Note_on_c, 1, 60, 0
3, 55980, Note_on_c, 1, 62, 64
3, 56040, Note_on_c, 1, 62, 0
3, 56040, Note_on_c, 1, 59, 64
3, 56100, Note_on_c, 1, 59, 0
3, 56100, Note_on_c, 1, 60, 64
3, 56160, Note_on_c, 1, 60, 0
3, 56160, Note_on_c, 1, 57, 64
3, 56220, Note_on_c, 1, 57, 0
3, 56220, Note_on_c, 1, 64, 64
3, 56280, Note_on_c, 1, 64, 0
3, 56280, Note_on_c, 1, 60, 64
3, 56340, Note_on_c, 1, 60, 0
3, 56340, Note_on_c, 1, 59, 64
3, 56400, Note_on_c, 1, 59, 0
3, 56400, Note_on_c, 1, 57, 64
3, 56460, Note_on_c, 1, 57, 0
3, 56460, Note_on_c, 1, 55, 64
3, 56520, Note_on_c, 1, 55, 0
3, 56520, Note_on_c, 1, 54, 64
3, 56580, Note_on_c, 1, 54, 0
3, 56580, Note_on_c, 1, 57, 64
3, 56640, Note_on_c, 1, 57, 0
3, 56640, Note_on_c, 1, 60, 64
3, 56700, Note_on_c, 1, 60, 0
3, 56700, Note_on_c, 1, 62, 64
3, 56760, Note_on_c, 1, 62, 0
3, 56760, Note_on_c, 1, 64, 64
3, 56820, Note_on_c, 1, 64, 0
3, 56820, Note_on_c, 1, 66, 64
3, 56880, Note_on_c, 1, 66, 0
3, 56880, Note_on_c, 1, 67, 64
3, 57120, Note_on_c, 1, 67, 0
3, 57120, Note_on_c, 1, 65, 64
3, 57240, Note_on_c, 1, 65, 0
3, 57240, Note_on_c, 1, 64, 64
3, 57300, Note_on_c, 1, 64, 0
3, 57300, Note_on_c, 1, 67, 64
3, 57360, Note_on_c, 1, 67, 0
3, 57360, Note_on_c, 1, 62, 64
3, 57420, Note_on_c, 1, 62, 0
3, 57420, Note_on_c, 1, 65, 64
3, 57480, Note_on_c, 1, 65, 0
3, 57480, Note_on_c, 1, 60, 64
3, 57540, Note_on_c, 1, 60, 0
3, 57540, Note_on_c, 1, 64, 64
3, 57600, Note_on_c, 1, 64, 0
3, 57600, Note_on_c, 1, 59, 64
3, 57660, Note_on_c, 1, 59, 0
3, 57660, Note_on_c, 1, 62, 64
3, 57720, Note_on_c, 1, 62, 0
3, 57720, Note_on_c, 1, 55, 64
3, 57780, Note_on_c, 1, 55, 0
3, 57780, Note_on_c, 1, 59, 64
3, 57840, Note_on_c, 1, 59, 0
3, 57840, Note_on_c, 1, 54, 64
3, 57900, Note_on_c, 1, 54, 0
3, 57900, Note_on_c, 1, 57, 64
3, 57960, Note_on_c, 1, 57, 0
3, 57960, Note_on_c, 1, 52, 80
3, 58020, Note_on_c, 1, 52, 0
3, 58020, Note_on_c, 1, 55, 64
3, 58080, Note_on_c, 1, 55, 0
3, 58080, Note_on_c, 1, 57, 64
3, 58140, Note_on_c, 1, 57, 0
3, 58140, Note_on_c, 1, 61, 64
3, 58200, Note_on_c, 1, 61, 0
3, 58200, Note_on_c, 1, 64, 64
3, 58260, Note_on_c, 1, 64, 0
3, 58260, Note_on_c, 1, 67, 64
3, 58320, Note_on_c, 1, 62, 64
3, 58440, Note_on_c, 1, 62, 0
3, 58440, Note_on_c, 1, 67, 0
3, 58440, Note_on_c, 1, 62, 64
3, 58440, Note_on_c, 1, 66, 64
3, 58476, Note_on_c, 1, 66, 0
3, 58476, Note_on_c, 1, 62, 0
3, 58560, Note_on_c, 1, 62, 64
3, 58560, Note_on_c, 1, 66, 64
3, 58596, Note_on_c, 1, 66, 0
3, 58596, Note_on_c, 1, 62, 0
3, 58680, Note_on_c, 1, 62, 64
3, 58680, Note_on_c, 1, 66, 64
3, 58920, Note_on_c, 1, 66, 0
3, 58920, Note_on_c, 1, 62, 0
3, 59040, Note_on_c, 1, 55, 64
3, 59040, Note_on_c, 1, 59, 64
3, 59280, Note_on_c, 1, 59, 0
3, 59280, Note_on_c, 1, 55, 0
3, 59280, Note_on_c, 1, 55, 64
3, 59280, Note_on_c, 1, 60, 64
3, 59400, Note_on_c, 1, 60, 0
3, 59400, Note_on_c, 1, 55, 0
3, 59400, Note_on_c, 1, 55, 64
3, 59400, Note_on_c, 1, 60, 64
3, 59640, Note_on_c, 1, 60, 0
3, 59640, Note_on_c, 1, 55, 0
3, 59640, Note_on_c, 1, 55, 64
3, 59640, Note_on_c, 1, 60, 64
3, 59760, Note_on_c, 1, 60, 0
3, 59760, Note_on_c, 1, 55, 0
3, 59760, Note_on_c, 1, 59, 64
3, 59760, Note_on_c, 1, 55, 64
3, 59820, Note_on_c, 1, 59, 0
3, 59820, Note_on_c, 1, 58, 64
3, 59880, Note_on_c, 1, 58, 0
3, 59880, Note_on_c, 1, 59, 64
3, 59940, Note_on_c, 1, 59, 0
3, 59940, Note_on_c, 1, 58, 64
3, 60000, Note_on_c, 1, 58, 0
3, 60000, Note_on_c, 1, 59, 64
3, 60060, Note_on_c, 1, 59, 0
3, 60060, Note_on_c, 1, 58, 64
3, 60120, Note_on_c, 1, 58, 0
3, 60120, Note_on_c, 1, 59, 64
3, 60360, Note_on_c, 1, 59, 0
3, 60360, Note_on_c, 1, 55, 0
3, 60360, Note_on_c, 1, 54, 64
3, 60432, Note_on_c, 1, 54, 0
3, 60450, Note_on_c, 1, 57, 64
3, 60474, Note_on_c, 1, 57, 0
3, 60480, Note_on_c, 1, 55, 64
3, 60540, Note_on_c, 1, 55, 0
3, 60540, Note_on_c, 1, 54, 64
3, 60600, Note_on_c, 1, 54, 0
3, 60600, Note_on_c, 1, 55, 64
3, 60660, Note_on_c, 1, 55, 0
3, 60660, Note_on_c, 1, 54, 64
3, 60720, Note_on_c, 1, 54, 0
3, 60720, Note_on_c, 1, 55, 64
3, 60780, Note_on_c, 1, 55, 0
3, 60780, Note_on_c, 1, 59, 64
3, 60840, Note_on_c, 1, 59, 0
3, 60840, Note_on_c, 1, 57, 80
3, 61080, Note_on_c, 1, 57, 0
3, 61080, Note_on_c, 1, 55, 64
3, 61116, Note_on_c, 1, 55, 0
3, 61200, Note_on_c, 1, 50, 64
3, 61260, Note_on_c, 1, 50, 0
3, 61260, Note_on_c, 1, 61, 64
3, 61320, Note_on_c, 1, 61, 0
3, 61320, Note_on_c, 1, 62, 64
3, 61380, Note_on_c, 1, 62, 0
3, 61380, Note_on_c, 1, 61, 64
3, 61440, Note_on_c, 1, 61, 0
3, 61440, Note_on_c, 1, 62, 64
3, 61500, Note_on_c, 1, 62, 0
3, 61500, Note_on_c, 1, 61, 64
3, 61560, Note_on_c, 1, 61, 0
3, 61560, Note_on_c, 1, 62, 64
3, 61620, Note_on_c, 1, 62, 0
3, 61620, Note_on_c, 1, 64, 64
3, 61680, Note_on_c, 1, 64, 0
3, 61680, Note_on_c, 1, 60, 64
3, 61740, Note_on_c, 1, 60, 0
3, 61740, Note_on_c, 1, 62, 64
3, 61800, Note_on_c, 1, 62, 0
3, 61800, Note_on_c, 1, 59, 64
3, 61860, Note_on_c, 1, 59, 0
3, 61860, Note_on_c, 1, 60, 64
3, 61920, Note_on_c, 1, 60, 0
3, 61920, Note_on_c, 1, 57, 64
3, 61980, Note_on_c, 1, 57, 0
3, 61980, Note_on_c, 1, 64, 64
3, 62040, Note_on_c, 1, 64, 0
3, 62040, Note_on_c, 1, 60, 64
3, 62100, Note_on_c, 1, 60, 0
3, 62100, Note_on_c, 1, 59, 64
3, 62160, Note_on_c, 1, 59, 0
3, 62160, Note_on_c, 1, 57, 64
3, 62220, Note_on_c, 1, 57, 0
3, 62220, Note_on_c, 1, 55, 64
3, 62280, Note_on_c, 1, 55, 0
3, 62280, Note_on_c, 1, 54, 64
3, 62340, Note_on_c, 1, 54, 0
3, 62340, Note_on_c, 1, 57, 64
3, 62400, Note_on_c, 1, 57, 0
3, 62400, Note_on_c, 1, 60, 64
3, 62460, Note_on_c, 1, 60, 0
3, 62460, Note_on_c, 1, 62, 64
3, 62520, Note_on_c, 1, 62, 0
3, 62520, Note_on_c, 1, 64, 64
3, 62580, Note_on_c, 1, 64, 0
3, 62580, Note_on_c, 1, 66, 64
3, 62640, Note_on_c, 1, 66, 0
3, 62640, Note_on_c, 1, 67, 64
3, 62880, Note_on_c, 1, 67, 0
3, 62880, Note_on_c, 1, 65, 64
3, 63000, Note_on_c, 1, 65, 0
3, 63000, Note_on_c, 1, 64, 64
3, 63060, Note_on_c, 1, 64, 0
3, 63060, Note_on_c, 1, 67, 64
3, 63120, Note_on_c, 1, 67, 0
3, 63120, Note_on_c, 1, 62, 64
3, 63180, Note_on_c, 1, 62, 0
3, 63180, Note_on_c, 1, 65, 64
3, 63240, Note_on_c, 1, 65, 0
3, 63240, Note_on_c, 1, 60, 64
3, 63300, Note_on_c, 1, 60, 0
3, 63300, Note_on_c, 1, 64, 64
3, 63360, Note_on_c, 1, 64, 0
3, 63360, Note_on_c, 1, 59, 64
3, 63420, Note_on_c, 1, 59, 0
3, 63420, Note_on_c, 1, 62, 64
3, 63480, Note_on_c, 1, 62, 0
3, 63480, Note_on_c, 1, 55, 64
3, 63540, Note_on_c, 1, 55, 0
3, 63540, Note_on_c, 1, 59, 64
3, 63600, Note_on_c, 1, 59, 0
3, 63600, Note_on_c, 1, 54, 64
3, 63660, Note_on_c, 1, 54, 0
3, 63660, Note_on_c, 1, 57, 64
3, 63720, Note_on_c, 1, 57, 0
3, 63720, Note_on_c, 1, 52, 80
3, 63780, Note_on_c, 1, 52, 0
3, 63780, Note_on_c, 1, 55, 64
3, 63840, Note_on_c, 1, 55, 0
3, 63840, Note_on_c, 1, 57, 64
3, 63900, Note_on_c, 1, 57, 0
3, 63900, Note_on_c, 1, 61, 64
3, 63960, Note_on_c, 1, 61, 0
3, 63960, Note_on_c, 1, 64, 64
3, 64020, Note_on_c, 1, 64, 0
3, 64020, Note_on_c, 1, 67, 64
3, 64080, Note_on_c, 1, 62, 64
3, 64200, Note_on_c, 1, 62, 0
3, 64200, Note_on_c, 1, 67, 0
3, 64200, Note_on_c, 1, 66, 64
3, 64200, Note_on_c, 1, 62, 64
3, 64236, Note_on_c, 1, 62, 0
3, 64236, Note_on_c, 1, 66, 0
3, 64320, Note_on_c, 1, 66, 64
3, 64320, Note_on_c, 1, 62, 64
3, 64356, Note_on_c, 1, 62, 0
3, 64356, Note_on_c, 1, 66, 0
3, 64440, Note_on_c, 1, 66, 64
3, 64440, Note_on_c, 1, 62, 64
3, 64553, Note_on_c, 1, 62, 0
3, 64553, Note_on_c, 1, 66, 0
3, 64680, Note_on_c, 1, 71, 72
3, 64740, Note_on_c, 1, 71, 0
3, 64740, Note_on_c, 1, 74, 72
3, 64800, Note_on_c, 1, 74, 0
3, 64800, Note_on_c, 1, 71, 72
3, 64860, Note_on_c, 1, 71, 0
3, 64860, Note_on_c, 1, 74, 72
3, 64920, Note_on_c, 1, 74, 0
3, 64920, Note_on_c, 1, 71, 72
3, 64980, Note_on_c, 1, 71, 0
3, 64980, Note_on_c, 1, 74, 72
3, 65040, Note_on_c, 1, 74, 0
3, 65040, Note_on_c, 1, 72, 72
3, 65100, Note_on_c, 1, 72, 0
3, 65100, Note_on_c, 1, 76, 72
3, 65160, Note_on_c, 1, 76, 0
3, 65160, Note_on_c, 1, 71, 72
3, 65220, Note_on_c, 1, 71, 0
3, 65220, Note_on_c, 1, 74, 72
3, 65280, Note_on_c, 1, 74, 0
3, 65280, Note_on_c, 1, 69, 72
3, 65340, Note_on_c, 1, 69, 0
3, 65340, Note_on_c, 1, 72, 72
3, 65400, Note_on_c, 1, 72, 0
3, 65400, Note_on_c, 1, 67, 72
3, 65460, Note_on_c, 1, 67, 0
3, 65460, Note_on_c, 1, 71, 72
3, 65520, Note_on_c, 1, 71, 0
3, 65520, Note_on_c, 1, 66, 72
3, 65580, Note_on_c, 1, 66, 0
3, 65580, Note_on_c, 1, 69, 72
3, 65640, Note_on_c, 1, 69, 0
3, 65640, Note_on_c, 1, 66, 72
3, 65700, Note_on_c, 1, 66, 0
3, 65700, Note_on_c, 1, 69, 72
3, 65760, Note_on_c, 1, 69, 0
3, 65760, Note_on_c, 1, 66, 72
3, 65820, Note_on_c, 1, 66, 0
3, 65820, Note_on_c, 1, 69, 72
3, 65880, Note_on_c, 1, 69, 0
3, 65880, Note_on_c, 1, 66, 72
3, 65940, Note_on_c, 1, 66, 0
3, 65940, Note_on_c, 1, 69, 72
3, 66000, Note_on_c, 1, 69, 0
3, 66000, Note_on_c, 1, 66, 72
3, 66060, Note_on_c, 1, 66, 0
3, 66060, Note_on_c, 1, 69, 72
3, 66120, Note_on_c, 1, 69, 0
3, 66120, Note_on_c, 1, 66, 88
3, 66180, Note_on_c, 1, 66, 0
3, 66180, Note_on_c, 1, 69, 72
3, 66240, Note_on_c, 1, 69, 0
3, 66240, Note_on_c, 1, 67, 80
3, 66480, Note_on_c, 1, 67, 0
3, 66600, Note_on_c, 1, 57, 88
3, 66600, Note_on_c, 1, 61, 88
3, 66600, Note_on_c, 1, 64, 88
3, 66600, Note_on_c, 1, 67, 88
3, 66840, Note_on_c, 1, 67, 0
3, 66840, Note_on_c, 1, 57, 0
3, 66840, Note_on_c, 1, 61, 0
3, 66840, Note_on_c, 1, 64, 0
3, 67020, Note_on_c, 1, 50, 79
3, 67080, Note_on_c, 1, 50, 0
3, 67080, Note_on_c, 1, 54, 79
3, 67140, Note_on_c, 1, 54, 0
3, 67140, Note_on_c, 1, 50, 78
3, 67200, Note_on_c, 1, 50, 0
3, 67200, Note_on_c, 1, 52, 77
3, 67260, Note_on_c, 1, 52, 0
3, 67260, Note_on_c, 1, 55, 77
3, 67320, Note_on_c, 1, 55, 0
3, 67380, Note_on_c, 1, 54, 75
3, 67440, Note_on_c, 1, 54, 0
3, 67440, Note_on_c, 1, 57, 75
3, 67500, Note_on_c, 1, 57, 0
3, 67500, Note_on_c, 1, 54, 74
3, 67560, Note_on_c, 1, 54, 0
3, 67560, Note_on_c, 1, 55, 73
3, 67620, Note_on_c, 1, 55, 0
3, 67620, Note_on_c, 1, 59, 73
3, 67680, Note_on_c, 1, 59, 0
3, 67740, Note_on_c, 1, 57, 71
3, 67800, Note_on_c, 1, 57, 0
3, 67800, Note_on_c, 1, 60, 71
3, 67860, Note_on_c, 1, 60, 0
3, 67860, Note_on_c, 1, 57, 70
3, 67920, Note_on_c, 1, 57, 0
3, 67920, Note_on_c, 1, 59, 69
3, 67980, Note_on_c, 1, 59, 0
3, 67980, Note_on_c, 1, 55, 69
3, 68040, Note_on_c, 1, 55, 0
3, 68100, Note_on_c, 1, 54, 67
3, 68160, Note_on_c, 1, 54, 0
3, 68160, Note_on_c, 1, 57, 67
3, 68220, Note_on_c, 1, 57, 0
3, 68220, Note_on_c, 1, 54, 66
3, 68280, Note_on_c, 1, 54, 0
3, 68280, Note_on_c, 1, 55, 65
3, 68340, Note_on_c, 1, 55, 0
3, 68340, Note_on_c, 1, 52, 65
3, 68400, Note_on_c, 1, 52, 0
3, 68400, Note_on_c, 1, 50, 64
3, 68520, Note_on_c, 1, 50, 0
3, 68640, Note_on_c, 1, 50, 69
3, 68676, Note_on_c, 1, 50, 0
3, 68760, Note_on_c, 1, 50, 72
3, 68796, Note_on_c, 1, 50, 0
3, 69000, Note_on_c, 1, 38, 77
3, 69036, Note_on_c, 1, 38, 0
3, 69120, Note_on_c, 1, 38, 88
3, 69840, Note_on_c, 1, 38, 0
3, 69900, Note_on_c, 1, 48, 88
3, 69960, Note_on_c, 1, 48, 0
3, 69960, Note_on_c, 1, 57, 88
3, 70020, Note_on_c, 1, 57, 0
3, 70020, Note_on_c, 1, 54, 88
3, 70080, Note_on_c, 1, 54, 0
3, 70080, Note_on_c, 1, 60, 88
3, 70140, Note_on_c, 1, 60, 0
3, 70140, Note_on_c, 1, 57, 88
3, 70200, Note_on_c, 1, 57, 0
3, 70200, Note_on_c, 1, 66, 88
3, 70560, Note_on_c, 1, 66, 0
3, 70920, Note_on_c, 1, 55, 64
3, 70920, Note_on_c, 1, 59, 64
3, 71160, Note_on_c, 1, 59, 0
3, 71160, Note_on_c, 1, 55, 0
3, 71160, Note_on_c, 1, 55, 64
3, 71160, Note_on_c, 1, 60, 64
3, 71280, Note_on_c, 1, 60, 0
3, 71280, Note_on_c, 1, 55, 0
3, 71280, Note_on_c, 1, 55, 64
3, 71280, Note_on_c, 1, 60, 64
3, 71520, Note_on_c, 1, 60, 0
3, 71520, Note_on_c, 1, 55, 0
3, 71520, Note_on_c, 1, 55, 64
3, 71520, Note_on_c, 1, 60, 64
3, 71640, Note_on_c, 1, 60, 0
3, 71640, Note_on_c, 1, 55, 0
3, 71640, Note_on_c, 1, 59, 64
3, 71640, Note_on_c, 1, 55, 64
3, 71700, Note_on_c, 1, 59, 0
3, 71700, Note_on_c, 1, 58, 64
3, 71760, Note_on_c, 1, 58, 0
3, 71760, Note_on_c, 1, 59, 64
3, 71820, Note_on_c, 1, 59, 0
3, 71820, Note_on_c, 1, 58, 64
3, 71880, Note_on_c, 1, 58, 0
3, 71880, Note_on_c, 1, 59, 64
3, 71940, Note_on_c, 1, 59, 0
3, 71940, Note_on_c, 1, 58, 64
3, 72000, Note_on_c, 1, 58, 0
3, 72000, Note_on_c, 1, 59, 64
3, 72240, Note_on_c, 1, 59, 0
3, 72240, Note_on_c, 1, 55, 0
3, 72240, Note_on_c, 1, 54, 64
3, 72312, Note_on_c, 1, 54, 0
3, 72330, Note_on_c, 1, 57, 64
3, 72354, Note_on_c, 1, 57, 0
3, 72360, Note_on_c, 1, 55, 64
3, 72420, Note_on_c, 1, 55, 0
3, 72420, Note_on_c, 1, 54, 64
3, 72480, Note_on_c, 1, 54, 0
3, 72480, Note_on_c, 1, 55, 64
3, 72540, Note_on_c, 1, 55, 0
3, 72540, Note_on_c, 1, 54, 64
3, 72600, Note_on_c, 1, 54, 0
3, 72600, Note_on_c, 1, 55, 64
3, 72660, Note_on_c, 1, 55, 0
3, 72660, Note_on_c, 1, 59, 64
3, 72720, Note_on_c, 1, 59, 0
3, 72720, Note_on_c, 1, 57, 80
3, 72960, Note_on_c, 1, 57, 0
3, 72960, Note_on_c, 1, 55, 64
3, 72996, Note_on_c, 1, 55, 0
3, 73080, Note_on_c, 1, 50, 64
3, 73140, Note_on_c, 1, 50, 0
3, 73140, Note_on_c, 1, 61, 64
3, 73200, Note_on_c, 1, 61, 0
3, 73200, Note_on_c, 1, 62, 64
3, 73260, Note_on_c, 1, 62, 0
3, 73260, Note_on_c, 1, 61, 64
3, 73320, Note_on_c, 1, 61, 0
3, 73320, Note_on_c, 1, 62, 64
3, 73380, Note_on_c, 1, 62, 0
3, 73380, Note_on_c, 1, 61, 64
3, 73440, Note_on_c, 1, 61, 0
3, 73440, Note_on_c, 1, 62, 64
3, 73500, Note_on_c, 1, 62, 0
3, 73500, Note_on_c, 1, 64, 64
3, 73560, Note_on_c, 1, 64, 0
3, 73560, Note_on_c, 1, 60, 64
3, 73620, Note_on_c, 1, 60, 0
3, 73620, Note_on_c, 1, 62, 64
3, 73680, Note_on_c, 1, 62, 0
3, 73680, Note_on_c, 1, 59, 64
3, 73740, Note_on_c, 1, 59, 0
3, 73740, Note_on_c, 1, 60, 64
3, 73800, Note_on_c, 1, 60, 0
3, 73800, Note_on_c, 1, 57, 64
3, 73860, Note_on_c, 1, 57, 0
3, 73860, Note_on_c, 1, 64, 64
3, 73920, Note_on_c, 1, 64, 0
3, 73920, Note_on_c, 1, 60, 64
3, 73980, Note_on_c, 1, 60, 0
3, 73980, Note_on_c, 1, 59, 64
3, 74040, Note_on_c, 1, 59, 0
3, 74040, Note_on_c, 1, 57, 64
3, 74100, Note_on_c, 1, 57, 0
3, 74100, Note_on_c, 1, 55, 64
3, 74160, Note_on_c, 1, 55, 0
3, 74160, Note_on_c, 1, 54, 64
3, 74220, Note_on_c, 1, 54, 0
3, 74220, Note_on_c, 1, 57, 64
3, 74280, Note_on_c, 1, 57, 0
3, 74280, Note_on_c, 1, 60, 64
3, 74340, Note_on_c, 1, 60, 0
3, 74340, Note_on_c, 1, 50, 64
3, 74400, Note_on_c, 1, 50, 0
3, 74400, Note_on_c, 1, 52, 64
3, 74460, Note_on_c, 1, 52, 0
3, 74460, Note_on_c, 1, 54, 64
3, 74520, Note_on_c, 1, 54, 0
3, 74520, Note_on_c, 1, 55, 64
3, 74580, Note_on_c, 1, 55, 0
3, 74580, Note_on_c, 1, 54, 65
3, 74640, Note_on_c, 1, 54, 0
3, 74640, Note_on_c, 1, 52, 67
3, 74700, Note_on_c, 1, 52, 0
3, 74700, Note_on_c, 1, 50, 68
3, 74760, Note_on_c, 1, 50, 0
3, 74760, Note_on_c, 1, 48, 69
3, 74820, Note_on_c, 1, 48, 0
3, 74820, Note_on_c, 1, 47, 71
3, 74880, Note_on_c, 1, 47, 0
3, 74880, Note_on_c, 1, 52, 72
3, 74940, Note_on_c, 1, 52, 0
3, 74940, Note_on_c, 1, 50, 73
3, 75000, Note_on_c, 1, 50, 0
3, 75000, Note_on_c, 1, 48, 75
3, 75060, Note_on_c, 1, 48, 0
3, 75060, Note_on_c, 1, 47, 76
3, 75120, Note_on_c, 1, 47, 0
3, 75120, Note_on_c, 1, 45, 77
3, 75180, Note_on_c, 1, 45, 0
3, 75180, Note_on_c, 1, 43, 79
3, 75240, Note_on_c, 1, 43, 0
3, 75240, Note_on_c, 1, 48, 80
3, 75360, Note_on_c, 1, 48, 0
3, 75360, Note_on_c, 1, 47, 80
3, 75480, Note_on_c, 1, 47, 0
3, 75480, Note_on_c, 1, 45, 80
3, 75600, Note_on_c, 1, 45, 0
3, 75600, Note_on_c, 1, 48, 96
3, 75960, Note_on_c, 1, 48, 0
3, 75960, Note_on_c, 1, 43, 80
3, 76020, Note_on_c, 1, 43, 0
3, 76020, Note_on_c, 1, 54, 79
3, 76080, Note_on_c, 1, 54, 0
3, 76080, Note_on_c, 1, 55, 77
3, 76140, Note_on_c, 1, 55, 0
3, 76140, Note_on_c, 1, 54, 76
3, 76200, Note_on_c, 1, 54, 0
3, 76200, Note_on_c, 1, 55, 75
3, 76260, Note_on_c, 1, 55, 0
3, 76260, Note_on_c, 1, 54, 73
3, 76320, Note_on_c, 1, 54, 0
3, 76320, Note_on_c, 1, 55, 72
3, 76440, Note_on_c, 1, 55, 0
3, 76560, Note_on_c, 1, 71, 67
3, 76620, Note_on_c, 1, 71, 0
3, 76620, Note_on_c, 1, 74, 65
3, 76680, Note_on_c, 1, 74, 0
3, 76680, Note_on_c, 1, 71, 72
3, 76740, Note_on_c, 1, 71, 0
3, 76740, Note_on_c, 1, 74, 72
3, 76800, Note_on_c, 1, 74, 0
3, 76800, Note_on_c, 1, 71, 72
3, 76860, Note_on_c, 1, 71, 0
3, 76860, Note_on_c, 1, 74, 72
3, 76920, Note_on_c, 1, 74, 0
3, 76920, Note_on_c, 1, 72, 72
3, 76980, Note_on_c, 1, 72, 0
3, 76980, Note_on_c, 1, 76, 72
3, 77040, Note_on_c, 1, 76, 0
3, 77040, Note_on_c, 1, 71, 72
3, 77100, Note_on_c, 1, 71, 0
3, 77100, Note_on_c, 1, 74, 72
3, 77160, Note_on_c, 1, 74, 0
3, 77160, Note_on_c, 1, 69, 72
3, 77220, Note_on_c, 1, 69, 0
3, 77220, Note_on_c, 1, 72, 72
3, 77280, Note_on_c, 1, 72, 0
3, 77280, Note_on_c, 1, 67, 72
3, 77340, Note_on_c, 1, 67, 0
3, 77340, Note_on_c, 1, 71, 72
3, 77400, Note_on_c, 1, 71, 0
3, 77400, Note_on_c, 1, 66, 72
3, 77460, Note_on_c, 1, 66, 0
3, 77460, Note_on_c, 1, 69, 72
3, 77520, Note_on_c, 1, 69, 0
3, 77520, Note_on_c, 1, 66, 72
3, 77580, Note_on_c, 1, 66, 0
3, 77580, Note_on_c, 1, 69, 72
3, 77640, Note_on_c, 1, 69, 0
3, 77640, Note_on_c, 1, 66, 72
3, 77700, Note_on_c, 1, 66, 0
3, 77700, Note_on_c, 1, 69, 72
3, 77760, Note_on_c, 1, 69, 0
3, 77760, Note_on_c, 1, 66, 72
3, 77820, Note_on_c, 1, 66, 0
3, 77820, Note_on_c, 1, 69, 72
3, 77880, Note_on_c, 1, 69, 0
3, 77880, Note_on_c, 1, 66, 72
3, 77940, Note_on_c, 1, 66, 0
3, 77940, Note_on_c, 1, 69, 72
3, 78000, Note_on_c, 1, 69, 0
3, 78000, Note_on_c, 1, 66, 88
3, 78060, Note_on_c, 1, 66, 0
3, 78060, Note_on_c, 1, 69, 72
3, 78120, Note_on_c, 1, 69, 0
3, 78120, Note_on_c, 1, 67, 80
3, 78360, Note_on_c, 1, 67, 0
3, 78480, Note_on_c, 1, 67, 88
3, 78480, Note_on_c, 1, 64, 88
3, 78480, Note_on_c, 1, 61, 88
3, 78480, Note_on_c, 1, 57, 88
3, 78720, Note_on_c, 1, 57, 0
3, 78720, Note_on_c, 1, 67, 0
3, 78720, Note_on_c, 1, 64, 0
3, 78720, Note_on_c, 1, 61, 0
3, 78900, Note_on_c, 1, 50, 79
3, 78960, Note_on_c, 1, 50, 0
3, 78960, Note_on_c, 1, 54, 79
3, 79020, Note_on_c, 1, 54, 0
3, 79020, Note_on_c, 1, 50, 78
3, 79080, Note_on_c, 1, 50, 0
3, 79080, Note_on_c, 1, 52, 77
3, 79140, Note_on_c, 1, 52, 0
3, 79140, Note_on_c, 1, 55, 77
3, 79200, Note_on_c, 1, 55, 0
3, 79260, Note_on_c, 1, 54, 75
3, 79320, Note_on_c, 1, 54, 0
3, 79320, Note_on_c, 1, 57, 75
3, 79380, Note_on_c, 1, 57, 0
3, 79380, Note_on_c, 1, 54, 74
3, 79440, Note_on_c, 1, 54, 0
3, 79440, Note_on_c, 1, 55, 73
3, 79500, Note_on_c, 1, 55, 0
3, 79500, Note_on_c, 1, 59, 73
3, 79560, Note_on_c, 1, 59, 0
3, 79620, Note_on_c, 1, 57, 71
3, 79680, Note_on_c, 1, 57, 0
3, 79680, Note_on_c, 1, 60, 71
3, 79740, Note_on_c, 1, 60, 0
3, 79740, Note_on_c, 1, 57, 70
3, 79800, Note_on_c, 1, 57, 0
3, 79800, Note_on_c, 1, 59, 69
3, 79860, Note_on_c, 1, 59, 0
3, 79860, Note_on_c, 1, 55, 69
3, 79920, Note_on_c, 1, 55, 0
3, 79980, Note_on_c, 1, 54, 67
3, 80040, Note_on_c, 1, 54, 0
3, 80040, Note_on_c, 1, 57, 67
3, 80100, Note_on_c, 1, 57, 0
3, 80100, Note_on_c, 1, 54, 66
3, 80160, Note_on_c, 1, 54, 0
3, 80160, Note_on_c, 1, 55, 65
3, 80220, Note_on_c, 1, 55, 0
3, 80220, Note_on_c, 1, 52, 65
3, 80280, Note_on_c, 1, 52, 0
3, 80280, Note_on_c, 1, 50, 64
3, 80400, Note_on_c, 1, 50, 0
3, 80520, Note_on_c, 1, 50, 69
3, 80556, Note_on_c, 1, 50, 0
3, 80640, Note_on_c, 1, 50, 72
3, 80676, Note_on_c, 1, 50, 0
3, 80880, Note_on_c, 1, 38, 77
3, 80916, Note_on_c, 1, 38, 0
3, 81000, Note_on_c, 1, 38, 88
3, 81720, Note_on_c, 1, 38, 0
3, 81780, Note_on_c, 1, 48, 88
3, 81840, Note_on_c, 1, 48, 0
3, 81840, Note_on_c, 1, 57, 88
3, 81900, Note_on_c, 1, 57, 0
3, 81900, Note_on_c, 1, 54, 88
3, 81960, Note_on_c, 1, 54, 0
3, 81960, Note_on_c, 1, 60, 88
3, 82020, Note_on_c, 1, 60, 0
3, 82020, Note_on_c, 1, 57, 88
3, 82080, Note_on_c, 1, 57, 0
3, 82080, Note_on_c, 1, 66, 88
3, 82440, Note_on_c, 1, 66, 0
3, 82800, Note_on_c, 1, 59, 64
3, 82800, Note_on_c, 1, 55, 64
3, 83040, Note_on_c, 1, 55, 0
3, 83040, Note_on_c, 1, 59, 0
3, 83040, Note_on_c, 1, 60, 64
3, 83040, Note_on_c, 1, 55, 64
3, 83160, Note_on_c, 1, 55, 0
3, 83160, Note_on_c, 1, 60, 0
3, 83160, Note_on_c, 1, 60, 64
3, 83160, Note_on_c, 1, 55, 64
3, 83400, Note_on_c, 1, 55, 0
3, 83400, Note_on_c, 1, 60, 0
3, 83400, Note_on_c, 1, 60, 64
3, 83400, Note_on_c, 1, 55, 64
3, 83520, Note_on_c, 1, 55, 0
3, 83520, Note_on_c, 1, 60, 0
3, 83520, Note_on_c, 1, 55, 64
3, 83520, Note_on_c, 1, 59, 64
3, 83580, Note_on_c, 1, 59, 0
3, 83580, Note_on_c, 1, 58, 64
3, 83640, Note_on_c, 1, 58, 0
3, 83640, Note_on_c, 1, 59, 64
3, 83700, Note_on_c, 1, 59, 0
3, 83700, Note_on_c, 1, 58, 64
3, 83760, Note_on_c, 1, 58, 0
3, 83760, Note_on_c, 1, 59, 64
3, 83820, Note_on_c, 1, 59, 0
3, 83820, Note_on_c, 1, 58, 64
3, 83880, Note_on_c, 1, 58, 0
3, 83880, Note_on_c, 1, 59, 64
3, 84120, Note_on_c, 1, 59, 0
3, 84120, Note_on_c, 1, 55, 0
3, 84120, Note_on_c, 1, 54, 64
3, 84192, Note_on_c, 1, 54, 0
3, 84210, Note_on_c, 1, 57, 64
3, 84234, Note_on_c, 1, 57, 0
3, 84240, Note_on_c, 1, 55, 64
3, 84300, Note_on_c, 1, 55, 0
3, 84300, Note_on_c, 1, 54, 64
3, 84360, Note_on_c, 1, 54, 0
3, 84360, Note_on_c, 1, 55, 64
3, 84420, Note_on_c, 1, 55, 0
3, 84420, Note_on_c, 1, 54, 64
3, 84480, Note_on_c, 1, 54, 0
3, 84480, Note_on_c, 1, 55, 64
3, 84540, Note_on_c, 1, 55, 0
3, 84540, Note_on_c, 1, 59, 64
3, 84600, Note_on_c, 1, 59, 0
3, 84600, Note_on_c, 1, 57, 80
3, 84840, Note_on_c, 1, 57, 0
3, 84840, Note_on_c, 1, 55, 64
3, 84876, Note_on_c, 1, 55, 0
3, 84960, Note_on_c, 1, 50, 64
3, 85020, Note_on_c, 1, 50, 0
3, 85020, Note_on_c, 1, 61, 64
3, 85080, Note_on_c, 1, 61, 0
3, 85080, Note_on_c, 1, 62, 64
3, 85140, Note_on_c, 1, 62, 0
3, 85140, Note_on_c, 1, 61, 64
3, 85200, Note_on_c, 1, 61, 0
3, 85200, Note_on_c, 1, 62, 64
3, 85260, Note_on_c, 1, 62, 0
3, 85260, Note_on_c, 1, 61, 64
3, 85320, Note_on_c, 1, 61, 0
3, 85320, Note_on_c, 1, 62, 64
3, 85380, Note_on_c, 1, 62, 0
3, 85380, Note_on_c, 1, 64, 64
3, 85440, Note_on_c, 1, 64, 0
3, 85440, Note_on_c, 1, 60, 64
3, 85500, Note_on_c, 1, 60, 0
3, 85500, Note_on_c, 1, 62, 64
3, 85560, Note_on_c, 1, 62, 0
3, 85560, Note_on_c, 1, 59, 64
3, 85620, Note_on_c, 1, 59, 0
3, 85620, Note_on_c, 1, 60, 64
3, 85680, Note_on_c, 1, 60, 0
3, 85680, Note_on_c, 1, 57, 64
3, 85740, Note_on_c, 1, 57, 0
3, 85740, Note_on_c, 1, 64, 64
3, 85800, Note_on_c, 1, 64, 0
3, 85800, Note_on_c, 1, 60, 64
3, 85860, Note_on_c, 1, 60, 0
3, 85860, Note_on_c, 1, 59, 64
3, 85920, Note_on_c, 1, 59, 0
3, 85920, Note_on_c, 1, 57, 64
3, 85980, Note_on_c, 1, 57, 0
3, 85980, Note_on_c, 1, 55, 64
3, 86040, Note_on_c, 1, 55, 0
3, 86040, Note_on_c, 1, 54, 64
3, 86100, Note_on_c, 1, 54, 0
3, 86100, Note_on_c, 1, 57, 64
3, 86160, Note_on_c, 1, 57, 0
3, 86160, Note_on_c, 1, 60, 64
3, 86220, Note_on_c, 1, 60, 0
3, 86220, Note_on_c, 1, 50, 64
3, 86280, Note_on_c, 1, 50, 0
3, 86280, Note_on_c, 1, 52, 64
3, 86340, Note_on_c, 1, 52, 0
3, 86340, Note_on_c, 1, 54, 64
3, 86400, Note_on_c, 1, 54, 0
3, 86400, Note_on_c, 1, 55, 64
3, 86460, Note_on_c, 1, 55, 0
3, 86460, Note_on_c, 1, 54, 65
3, 86520, Note_on_c, 1, 54, 0
3, 86520, Note_on_c, 1, 52, 67
3, 86580, Note_on_c, 1, 52, 0
3, 86580, Note_on_c, 1, 50, 68
3, 86640, Note_on_c, 1, 50, 0
3, 86640, Note_on_c, 1, 48, 69
3, 86700, Note_on_c, 1, 48, 0
3, 86700, Note_on_c, 1, 47, 71
3, 86760, Note_on_c, 1, 47, 0
3, 86760, Note_on_c, 1, 52, 72
3, 86820, Note_on_c, 1, 52, 0
3, 86820, Note_on_c, 1, 50, 73
3, 86880, Note_on_c, 1, 50, 0
3, 86880, Note_on_c, 1, 48, 75
3, 86940, Note_on_c, 1, 48, 0
3, 86940, Note_on_c, 1, 47, 76
3, 87000, Note_on_c, 1, 47, 0
3, 87000, Note_on_c, 1, 45, 77
3, 87060, Note_on_c, 1, 45, 0
3, 87060, Note_on_c, 1, 43, 79
3, 87120, Note_on_c, 1, 43, 0
3, 87120, Note_on_c, 1, 48, 80
3, 87240, Note_on_c, 1, 48, 0
3, 87240, Note_on_c, 1, 47, 80
3, 87360, Note_on_c, 1, 47, 0
3, 87360, Note_on_c, 1, 45, 80
3, 87480, Note_on_c, 1, 45, 0
3, 87480, Note_on_c, 1, 48, 96
3, 87840, Note_on_c, 1, 48, 0
3, 87840, Note_on_c, 1, 43, 80
3, 87900, Note_on_c, 1, 43, 0
3, 87900, Note_on_c, 1, 54, 79
3, 87960, Note_on_c, 1, 54, 0
3, 87960, Note_on_c, 1, 55, 77
3, 88020, Note_on_c, 1, 55, 0
3, 88020, Note_on_c, 1, 54, 76
3, 88080, Note_on_c, 1, 54, 0
3, 88080, Note_on_c, 1, 55, 75
3, 88140, Note_on_c, 1, 55, 0
3, 88140, Note_on_c, 1, 54, 73
3, 88200, Note_on_c, 1, 54, 0
3, 88200, Note_on_c, 1, 55, 72
3, 88320, Note_on_c, 1, 55, 0
3, 88680, Note_on_c, 1, 58, 64
3, 88680, Note_on_c, 1, 55, 64
3, 88716, Note_on_c, 1, 55, 0
3, 88716, Note_on_c, 1, 58, 0
3, 89040, Note_on_c, 1, 60, 64
3, 89040, Note_on_c, 1, 55, 64
3, 89076, Note_on_c, 1, 55, 0
3, 89076, Note_on_c, 1, 60, 0
3, 89400, Note_on_c, 1, 60, 64
3, 89400, Note_on_c, 1, 55, 64
3, 89436, Note_on_c, 1, 55, 0
3, 89436, Note_on_c, 1, 60, 0
3, 89760, Note_on_c, 1, 55, 64
3, 89760, Note_on_c, 1, 58, 64
3, 89796, Note_on_c, 1, 58, 0
3, 89796, Note_on_c, 1, 55, 0
3, 90360, Note_on_c, 1, 67, 96
3, 90360, Note_on_c, 1, 70, 96
3, 90360, Note_on_c, 1, 73, 96
3, 90720, Note_on_c, 1, 73, 0
3, 90720, Note_on_c, 1, 70, 0
3, 90720, Note_on_c, 1, 67, 0
3, 90720, Note_on_c, 1, 65, 80
3, 90720, Note_on_c, 1, 69, 80
3, 90960, Note_on_c, 1, 69, 0
3, 90960, Note_on_c, 1, 65, 0
3, 90960, Note_on_c, 1, 64, 80
3, 90960, Note_on_c, 1, 67, 80
3, 91080, Note_on_c, 1, 67, 0
3, 91080, Note_on_c, 1, 64, 0
3, 91080, Note_on_c, 1, 62, 80
3, 91080, Note_on_c, 1, 65, 80
3, 91116, Note_on_c, 1, 65, 0
3, 91116, Note_on_c, 1, 62, 0
3, 91200, Note_on_c, 1, 68, 96
3, 91200, Note_on_c, 1, 71, 96
3, 91320, Note_on_c, 1, 71, 0
3, 91320, Note_on_c, 1, 68, 0
3, 91440, Note_on_c, 1, 57, 80
3, 91440, Note_on_c, 1, 62, 80
3, 91440, Note_on_c, 1, 65, 80
3, 91800, Note_on_c, 1, 65, 0
3, 91800, Note_on_c, 1, 62, 0
3, 91800, Note_on_c, 1, 57, 0
3, 91800, Note_on_c, 1, 57, 80
3, 91800, Note_on_c, 1, 64, 80
3, 91800, Note_on_c, 1, 67, 80
3, 92160, Note_on_c, 1, 67, 0
3, 92160, Note_on_c, 1, 64, 0
3, 92160, Note_on_c, 1, 57, 0
3, 92400, Note_on_c, 1, 50, 56
3, 92400, Note_on_c, 1, 62, 56
3, 92436, Note_on_c, 1, 62, 0
3, 92436, Note_on_c, 1, 50, 0
3, 92520, Note_on_c, 1, 50, 56
3, 92520, Note_on_c, 1, 62, 56
3, 92580, Note_on_c, 1, 62, 0
3, 92580, Note_on_c, 1, 50, 0
3, 93000, Note_on_c, 1, 55, 64
3, 93000, Note_on_c, 1, 58, 64
3, 93036, Note_on_c, 1, 58, 0
3, 93036, Note_on_c, 1, 55, 0
3, 93360, Note_on_c, 1, 55, 64
3, 93360, Note_on_c, 1, 60, 64
3, 93396, Note_on_c, 1, 60, 0
3, 93396, Note_on_c, 1, 55, 0
3, 93720, Note_on_c, 1, 55, 64
3, 93720, Note_on_c, 1, 60, 64
3, 93756, Note_on_c, 1, 60, 0
3, 93756, Note_on_c, 1, 55, 0
3, 94080, Note_on_c, 1, 58, 64
3, 94080, Note_on_c, 1, 55, 64
3, 94116, Note_on_c, 1, 55, 0
3, 94116, Note_on_c, 1, 58, 0
3, 94680, Note_on_c, 1, 73, 96
3, 94680, Note_on_c, 1, 70, 96
3, 94680, Note_on_c, 1, 67, 96
3, 95040, Note_on_c, 1, 67, 0
3, 95040, Note_on_c, 1, 70, 0
3, 95040, Note_on_c, 1, 73, 0
3, 95040, Note_on_c, 1, 69, 80
3, 95040, Note_on_c, 1, 65, 80
3, 95280, Note_on_c, 1, 65, 0
3, 95280, Note_on_c, 1, 69, 0
3, 95280, Note_on_c, 1, 67, 80
3, 95280, Note_on_c, 1, 64, 80
3, 95400, Note_on_c, 1, 64, 0
3, 95400, Note_on_c, 1, 67, 0
3, 95400, Note_on_c, 1, 65, 80
3, 95400, Note_on_c, 1, 62, 80
3, 95436, Note_on_c, 1, 62, 0
3, 95436, Note_on_c, 1, 65, 0
3, 95520, Note_on_c, 1, 71, 96
3, 95520, Note_on_c, 1, 68, 96
3, 95640, Note_on_c, 1, 68, 0
3, 95640, Note_on_c, 1, 71, 0
3, 95760, Note_on_c, 1, 65, 80
3, 95760, Note_on_c, 1, 62, 80
3, 95760, Note_on_c, 1, 57, 80
3, 96120, Note_on_c, 1, 57, 0
3, 96120, Note_on_c, 1, 62, 0
3, 96120, Note_on_c, 1, 65, 0
3, 96120, Note_on_c, 1, 67, 80
3, 96120, Note_on_c, 1, 64, 80
3, 96120, Note_on_c, 1, 57, 80
3, 96480, Note_on_c, 1, 57, 0
3, 96480, Note_on_c, 1, 64, 0
3, 96480, Note_on_c, 1, 67, 0
3, 96720, Note_on_c, 1, 62, 56
3, 96720, Note_on_c, 1, 50, 56
3, 96756, Note_on_c, 1, 50, 0
3, 96756, Note_on_c, 1, 62, 0
3, 96840, Note_on_c, 1, 62, 56
3, 96840, Note_on_c, 1, 50, 56
3, 96900, Note_on_c, 1, 50, 0
3, 96900, Note_on_c, 1, 62, 0
3, 97320, Note_on_c, 1, 62, 64
3, 97320, Note_on_c, 1, 58, 64
3, 97356, Note_on_c, 1, 58, 0
3, 97356, Note_on_c, 1, 62, 0
3, 97680, Note_on_c, 1, 63, 64
3, 97680, Note_on_c, 1, 57, 64
3, 97716, Note_on_c, 1, 57, 0
3, 97716, Note_on_c, 1, 63, 0
3, 98040, Note_on_c, 1, 58, 64
3, 98040, Note_on_c, 1, 55, 64
3, 98076, Note_on_c, 1, 55, 0
3, 98076, Note_on_c, 1, 58, 0
3, 98400, Note_on_c, 1, 38, 64
3, 98400, Note_on_c, 1, 50, 64
3, 98436, Note_on_c, 1, 50, 0
3, 98436, Note_on_c, 1, 38, 0
3, 98520, Note_on_c, 1, 62, 80
3, 98520, Note_on_c, 1, 58, 80
3, 98640, Note_on_c, 1, 58, 0
3, 98640, Note_on_c, 1, 62, 0
3, 98640, Note_on_c, 1, 60, 64
3, 98640, Note_on_c, 1, 63, 64
3, 98880, Note_on_c, 1, 63, 0
3, 98880, Note_on_c, 1, 60, 0
3, 98880, Note_on_c, 1, 62, 80
3, 98880, Note_on_c, 1, 58, 80
3, 99000, Note_on_c, 1, 58, 0
3, 99000, Note_on_c, 1, 62, 0
3, 99000, Note_on_c, 1, 60, 64
3, 99000, Note_on_c, 1, 63, 64
3, 99240, Note_on_c, 1, 63, 0
3, 99240, Note_on_c, 1, 60, 0
3, 99240, Note_on_c, 1, 58, 80
3, 99240, Note_on_c, 1, 62, 80
3, 99360, Note_on_c, 1, 62, 0
3, 99360, Note_on_c, 1, 58, 0
3, 99360, Note_on_c, 1, 54, 96
3, 99360, Note_on_c, 1, 60, 96
3, 99480, Note_on_c, 1, 60, 0
3, 99480, Note_on_c, 1, 62, 80
3, 99600, Note_on_c, 1, 62, 0
3, 99600, Note_on_c, 1, 63, 80
3, 99720, Note_on_c, 1, 63, 0
3, 99720, Note_on_c, 1, 54, 0
3, 99720, Note_on_c, 1, 62, 80
3, 99720, Note_on_c, 1, 55, 80
3, 99840, Note_on_c, 1, 55, 0
3, 99840, Note_on_c, 1, 57, 80
3, 99960, Note_on_c, 1, 57, 0
3, 99960, Note_on_c, 1, 58, 80
3, 100080, Note_on_c, 1, 58, 0
3, 100080, Note_on_c, 1, 62, 0
3, 100080, Note_on_c, 1, 60, 80
3, 100080, Note_on_c, 1, 63, 80
3, 100440, Note_on_c, 1, 63, 0
3, 100440, Note_on_c, 1, 60, 0
3, 100440, Note_on_c, 1, 50, 72
3, 100440, Note_on_c, 1, 58, 72
3, 100680, Note_on_c, 1, 58, 0
3, 100680, Note_on_c, 1, 57, 67
3, 100800, Note_on_c, 1, 57, 0
3, 100800, Note_on_c, 1, 50, 0
3, 101040, Note_on_c, 1, 43, 48
3, 101040, Note_on_c, 1, 55, 48
3, 101076, Note_on_c, 1, 55, 0
3, 101076, Note_on_c, 1, 43, 0
3, 101160, Note_on_c, 1, 43, 48
3, 101160, Note_on_c, 1, 55, 48
3, 101196, Note_on_c, 1, 55, 0
3, 101196, Note_on_c, 1, 43, 0
3, 101640, Note_on_c, 1, 58, 64
3, 101640, Note_on_c, 1, 62, 64
3, 101676, Note_on_c, 1, 62, 0
3, 101676, Note_on_c, 1, 58, 0
3, 102000, Note_on_c, 1, 57, 64
3, 102000, Note_on_c, 1, 63, 64
3, 102036, Note_on_c, 1, 63, 0
3, 102036, Note_on_c, 1, 57, 0
3, 102360, Note_on_c, 1, 55, 64
3, 102360, Note_on_c, 1, 58, 64
3, 102396, Note_on_c, 1, 58, 0
3, 102396, Note_on_c, 1, 55, 0
3, 102720, Note_on_c, 1, 50, 64
3, 102720, Note_on_c, 1, 38, 64
3, 102756, Note_on_c, 1, 38, 0
3, 102756, Note_on_c, 1, 50, 0
3, 102840, Note_on_c, 1, 58, 80
3, 102840, Note_on_c, 1, 62, 80
3, 102960, Note_on_c, 1, 62, 0
3, 102960, Note_on_c, 1, 58, 0
3, 102960, Note_on_c, 1, 63, 64
3, 102960, Note_on_c, 1, 60, 64
3, 103200, Note_on_c, 1, 60, 0
3, 103200, Note_on_c, 1, 63, 0
3, 103200, Note_on_c, 1, 58, 80
3, 103200, Note_on_c, 1, 62, 80
3, 103320, Note_on_c, 1, 62, 0
3, 103320, Note_on_c, 1, 58, 0
3, 103320, Note_on_c, 1, 63, 64
3, 103320, Note_on_c, 1, 60, 64
3, 103560, Note_on_c, 1, 60, 0
3, 103560, Note_on_c, 1, 63, 0
3, 103560, Note_on_c, 1, 62, 80
3, 103560, Note_on_c, 1, 58, 80
3, 103680, Note_on_c, 1, 58, 0
3, 103680, Note_on_c, 1, 62, 0
3, 103680, Note_on_c, 1, 60, 96
3, 103680, Note_on_c, 1, 54, 96
3, 103800, Note_on_c, 1, 60, 0
3, 103800, Note_on_c, 1, 62, 80
3, 103920, Note_on_c, 1, 62, 0
3, 103920, Note_on_c, 1, 63, 80
3, 104040, Note_on_c, 1, 63, 0
3, 104040, Note_on_c, 1, 54, 0
3, 104040, Note_on_c, 1, 55, 80
3, 104040, Note_on_c, 1, 62, 80
3, 104160, Note_on_c, 1, 55, 0
3, 104160, Note_on_c, 1, 57, 80
3, 104280, Note_on_c, 1, 57, 0
3, 104280, Note_on_c, 1, 58, 80
3, 104400, Note_on_c, 1, 58, 0
3, 104400, Note_on_c, 1, 62, 0
3, 104400, Note_on_c, 1, 63, 80
3, 104400, Note_on_c, 1, 60, 80
3, 104760, Note_on_c, 1, 60, 0
3, 104760, Note_on_c, 1, 63, 0
3, 104760, Note_on_c, 1, 58, 72
3, 104760, Note_on_c, 1, 50, 72
3, 105000, Note_on_c, 1, 58, 0
3, 105000, Note_on_c, 1, 57, 67
3, 105120, Note_on_c, 1, 57, 0
3, 105120, Note_on_c, 1, 50, 0
3, 105360, Note_on_c, 1, 55, 48
3, 105360, Note_on_c, 1, 43, 48
3, 105396, Note_on_c, 1, 43, 0
3, 105396, Note_on_c, 1, 55, 0
3, 105480, Note_on_c, 1, 55, 48
3, 105480, Note_on_c, 1, 43, 48
3, 105516, Note_on_c, 1, 43, 0
3, 105516, Note_on_c, 1, 55, 0
3, 105720, Note_on_c, 1, 59, 64
3, 105720, Note_on_c, 1, 55, 64
3, 105804, Note_on_c, 1, 55, 0
3, 105804, Note_on_c, 1, 59, 0
3, 105840, Note_on_c, 1, 55, 64
3, 105840, Note_on_c, 1, 59, 64
3, 106080, Note_on_c, 1, 59, 0
3, 106080, Note_on_c, 1, 55, 0
3, 106080, Note_on_c, 1, 55, 64
3, 106080, Note_on_c, 1, 60, 64
3, 106152, Note_on_c, 1, 60, 0
3, 106152, Note_on_c, 1, 55, 0
3, 106200, Note_on_c, 1, 55, 64
3, 106200, Note_on_c, 1, 60, 64
3, 106440, Note_on_c, 1, 60, 0
3, 106440, Note_on_c, 1, 55, 0
3, 106440, Note_on_c, 1, 55, 64
3, 106440, Note_on_c, 1, 60, 64
3, 106560, Note_on_c, 1, 60, 0
3, 106560, Note_on_c, 1, 55, 0
3, 106560, Note_on_c, 1, 55, 64
3, 106560, Note_on_c, 1, 59, 64
3, 106800, Note_on_c, 1, 59, 0
3, 106800, Note_on_c, 1, 55, 0
3, 106800, Note_on_c, 1, 55, 64
3, 106800, Note_on_c, 1, 59, 64
3, 106920, Note_on_c, 1, 59, 0
3, 106920, Note_on_c, 1, 55, 0
3, 106920, Note_on_c, 1, 55, 64
3, 106920, Note_on_c, 1, 59, 64
3, 107160, Note_on_c, 1, 59, 0
3, 107160, Note_on_c, 1, 55, 0
3, 107160, Note_on_c, 1, 54, 80
3, 107232, Note_on_c, 1, 54, 0
3, 107280, Note_on_c, 1, 55, 64
3, 107340, Note_on_c, 1, 55, 0
3, 107340, Note_on_c, 1, 56, 64
3, 107400, Note_on_c, 1, 56, 0
3, 107400, Note_on_c, 1, 57, 64
3, 107460, Note_on_c, 1, 57, 0
3, 107460, Note_on_c, 1, 58, 64
3, 107520, Note_on_c, 1, 58, 0
3, 107520, Note_on_c, 1, 59, 64
3, 107640, Note_on_c, 1, 59, 0
3, 107640, Note_on_c, 1, 57, 80
3, 107880, Note_on_c, 1, 57, 0
3, 107880, Note_on_c, 1, 55, 64
3, 107916, Note_on_c, 1, 55, 0
3, 108000, Note_on_c, 1, 50, 64
3, 108180, Note_on_c, 1, 50, 0
3, 108180, Note_on_c, 1, 52, 64
3, 108210, Note_on_c, 1, 52, 0
3, 108210, Note_on_c, 1, 54, 64
3, 108240, Note_on_c, 1, 54, 0
3, 108240, Note_on_c, 1, 55, 64
3, 108270, Note_on_c, 1, 55, 0
3, 108270, Note_on_c, 1, 57, 64
3, 108300, Note_on_c, 1, 57, 0
3, 108300, Note_on_c, 1, 59, 64
3, 108330, Note_on_c, 1, 59, 0
3, 108330, Note_on_c, 1, 61, 64
3, 108360, Note_on_c, 1, 61, 0
3, 108360, Note_on_c, 1, 62, 64
3, 108396, Note_on_c, 1, 62, 0
3, 108480, Note_on_c, 1, 60, 64
3, 108516, Note_on_c, 1, 60, 0
3, 108600, Note_on_c, 1, 59, 80
3, 108720, Note_on_c, 1, 59, 0
3, 108720, Note_on_c, 1, 57, 64
3, 108960, Note_on_c, 1, 57, 0
3, 108960, Note_on_c, 1, 55, 64
3, 109080, Note_on_c, 1, 55, 0
3, 109080, Note_on_c, 1, 54, 64
3, 109320, Note_on_c, 1, 62, 64
3, 109440, Note_on_c, 1, 54, 0
3, 109440, Note_on_c, 1, 55, 64
3, 109680, Note_on_c, 1, 62, 0
3, 109680, Note_on_c, 1, 65, 64
3, 109800, Note_on_c, 1, 65, 0
3, 109800, Note_on_c, 1, 64, 64
3, 109920, Note_on_c, 1, 64, 0
3, 109920, Note_on_c, 1, 62, 64
3, 110040, Note_on_c, 1, 62, 0
3, 110040, Note_on_c, 1, 60, 64
3, 110160, Note_on_c, 1, 60, 0
3, 110160, Note_on_c, 1, 59, 64
3, 110280, Note_on_c, 1, 59, 0
3, 110280, Note_on_c, 1, 57, 63
3, 110400, Note_on_c, 1, 57, 0
3, 110400, Note_on_c, 1, 60, 61
3, 110520, Note_on_c, 1, 60, 0
3, 110520, Note_on_c, 1, 59, 60
3, 110640, Note_on_c, 1, 59, 0
3, 110640, Note_on_c, 1, 67, 59
3, 110760, Note_on_c, 1, 55, 0
3, 110760, Note_on_c, 1, 57, 57
3, 110880, Note_on_c, 1, 57, 0
3, 110880, Note_on_c, 1, 62, 56
3, 111000, Note_on_c, 1, 67, 0
3, 111000, Note_on_c, 1, 66, 55
3, 111036, Note_on_c, 1, 66, 0
3, 111120, Note_on_c, 1, 66, 53
3, 111156, Note_on_c, 1, 66, 0
3, 111240, Note_on_c, 1, 66, 52
3, 111324, Note_on_c, 1, 66, 0
3, 111324, Note_on_c, 1, 62, 0
3, 111480, Note_on_c, 1, 59, 64
3, 111480, Note_on_c, 1, 55, 64
3, 111576, Note_on_c, 1, 55, 0
3, 111576, Note_on_c, 1, 59, 0
3, 111600, Note_on_c, 1, 59, 64
3, 111600, Note_on_c, 1, 55, 64
3, 111840, Note_on_c, 1, 55, 0
3, 111840, Note_on_c, 1, 59, 0
3, 111840, Note_on_c, 1, 60, 64
3, 111840, Note_on_c, 1, 55, 64
3, 111912, Note_on_c, 1, 55, 0
3, 111912, Note_on_c, 1, 60, 0
3, 111960, Note_on_c, 1, 60, 64
3, 111960, Note_on_c, 1, 55, 64
3, 112200, Note_on_c, 1, 55, 0
3, 112200, Note_on_c, 1, 60, 0
3, 112200, Note_on_c, 1, 60, 64
3, 112200, Note_on_c, 1, 55, 64
3, 112320, Note_on_c, 1, 55, 0
3, 112320, Note_on_c, 1, 60, 0
3, 112320, Note_on_c, 1, 59, 64
3, 112320, Note_on_c, 1, 55, 64
3, 112560, Note_on_c, 1, 55, 0
3, 112560, Note_on_c, 1, 59, 0
3, 112560, Note_on_c, 1, 59, 64
3, 112560, Note_on_c, 1, 55, 64
3, 112680, Note_on_c, 1, 55, 0
3, 112680, Note_on_c, 1, 59, 0
3, 112680, Note_on_c, 1, 59, 64
3, 112680, Note_on_c, 1, 55, 64
3, 112920, Note_on_c, 1, 55, 0
3, 112920, Note_on_c, 1, 59, 0
3, 112920, Note_on_c, 1, 54, 80
3, 112992, Note_on_c, 1, 54, 0
3, 113040, Note_on_c, 1, 55, 64
3, 113100, Note_on_c, 1, 55, 0
3, 113100, Note_on_c, 1, 56, 64
3, 113160, Note_on_c, 1, 56, 0
3, 113160, Note_on_c, 1, 57, 64
3, 113220, Note_on_c, 1, 57, 0
3, 113220, Note_on_c, 1, 58, 64
3, 113280, Note_on_c, 1, 58, 0
3, 113280, Note_on_c, 1, 59, 64
3, 113400, Note_on_c, 1, 59, 0
3, 113400, Note_on_c, 1, 57, 80
3, 113640, Note_on_c, 1, 57, 0
3, 113640, Note_on_c, 1, 55, 64
3, 113676, Note_on_c, 1, 55, 0
3, 113760, Note_on_c, 1, 50, 64
3, 113940, Note_on_c, 1, 50, 0
3, 113940, Note_on_c, 1, 52, 64
3, 113970, Note_on_c, 1, 52, 0
3, 113970, Note_on_c, 1, 54, 64
3, 114000, Note_on_c, 1, 54, 0
3, 114000, Note_on_c, 1, 55, 64
3, 114030, Note_on_c, 1, 55, 0
3, 114030, Note_on_c, 1, 57, 64
3, 114060, Note_on_c, 1, 57, 0
3, 114060, Note_on_c, 1, 59, 64
3, 114090, Note_on_c, 1, 59, 0
3, 114090, Note_on_c, 1, 61, 64
3, 114120, Note_on_c, 1, 61, 0
3, 114120, Note_on_c, 1, 62, 64
3, 114156, Note_on_c, 1, 62, 0
3, 114240, Note_on_c, 1, 60, 64
3, 114276, Note_on_c, 1, 60, 0
3, 114360, Note_on_c, 1, 59, 80
3, 114480, Note_on_c, 1, 59, 0
3, 114480, Note_on_c, 1, 57, 64
3, 114720, Note_on_c, 1, 57, 0
3, 114720, Note_on_c, 1, 55, 64
3, 114840, Note_on_c, 1, 55, 0
3, 114840, Note_on_c, 1, 54, 64
3, 115080, Note_on_c, 1, 62, 64
3, 115200, Note_on_c, 1, 54, 0
3, 115200, Note_on_c, 1, 55, 64
3, 115440, Note_on_c, 1, 62, 0
3, 115440, Note_on_c, 1, 65, 64
3, 115560, Note_on_c, 1, 65, 0
3, 115560, Note_on_c, 1, 64, 64
3, 115680, Note_on_c, 1, 64, 0
3, 115680, Note_on_c, 1, 62, 64
3, 115800, Note_on_c, 1, 62, 0
3, 115800, Note_on_c, 1, 60, 64
3, 115920, Note_on_c, 1, 60, 0
3, 115920, Note_on_c, 1, 59, 64
3, 116040, Note_on_c, 1, 59, 0
3, 116040, Note_on_c, 1, 57, 63
3, 116160, Note_on_c, 1, 57, 0
3, 116160, Note_on_c, 1, 60, 61
3, 116280, Note_on_c, 1, 60, 0
3, 116280, Note_on_c, 1, 59, 60
3, 116400, Note_on_c, 1, 59, 0
3, 116400, Note_on_c, 1, 67, 59
3, 116520, Note_on_c, 1, 55, 0
3, 116520, Note_on_c, 1, 57, 57
3, 116640, Note_on_c, 1, 57, 0
3, 116640, Note_on_c, 1, 62, 56
3, 116760, Note_on_c, 1, 67, 0
3, 116760, Note_on_c, 1, 66, 55
3, 116796, Note_on_c, 1, 66, 0
3, 116880, Note_on_c, 1, 66, 53
3, 116916, Note_on_c, 1, 66, 0
3, 117000, Note_on_c, 1, 66, 52
3, 117072, Note_on_c, 1, 66, 0
3, 117072, Note_on_c, 1, 62, 0
3, 117240, Note_on_c, 1, 71, 64
3, 117240, Note_on_c, 1, 74, 64
3, 117336, Note_on_c, 1, 74, 0
3, 117336, Note_on_c, 1, 71, 0
3, 117360, Note_on_c, 1, 71, 64
3, 117360, Note_on_c, 1, 74, 64
3, 117600, Note_on_c, 1, 74, 0
3, 117600, Note_on_c, 1, 71, 0
3, 117600, Note_on_c, 1, 72, 64
3, 117600, Note_on_c, 1, 76, 64
3, 117720, Note_on_c, 1, 76, 0
3, 117720, Note_on_c, 1, 72, 0
3, 117720, Note_on_c, 1, 71, 64
3, 117720, Note_on_c, 1, 74, 64
3, 117840, Note_on_c, 1, 74, 0
3, 117840, Note_on_c, 1, 71, 0
3, 117840, Note_on_c, 1, 69, 64
3, 117840, Note_on_c, 1, 72, 64
3, 117960, Note_on_c, 1, 72, 0
3, 117960, Note_on_c, 1, 69, 0
3, 117960, Note_on_c, 1, 67, 64
3, 117960, Note_on_c, 1, 71, 64
3, 118080, Note_on_c, 1, 71, 0
3, 118080, Note_on_c, 1, 67, 0
3, 118080, Note_on_c, 1, 66, 64
3, 118080, Note_on_c, 1, 69, 64
3, 118320, Note_on_c, 1, 69, 0
3, 118320, Note_on_c, 1, 66, 0
3, 118320, Note_on_c, 1, 66, 64
3, 118320, Note_on_c, 1, 69, 64
3, 118440, Note_on_c, 1, 69, 0
3, 118440, Note_on_c, 1, 66, 0
3, 118440, Note_on_c, 1, 66, 80
3, 118440, Note_on_c, 1, 69, 80
3, 118680, Note_on_c, 1, 69, 0
3, 118680, Note_on_c, 1, 66, 0
3, 118680, Note_on_c, 1, 66, 64
3, 118680, Note_on_c, 1, 69, 64
3, 118800, Note_on_c, 1, 69, 0
3, 118800, Note_on_c, 1, 66, 0
3, 118800, Note_on_c, 1, 67, 64
3, 118800, Note_on_c, 1, 71, 64
3, 119160, Note_on_c, 1, 71, 0
3, 119160, Note_on_c, 1, 67, 0
3, 119160, Note_on_c, 1, 57, 64
3, 119160, Note_on_c, 1, 64, 64
3, 119160, Note_on_c, 1, 67, 64
3, 119520, Note_on_c, 1, 67, 0
3, 119520, Note_on_c, 1, 64, 0
3, 119520, Note_on_c, 1, 57, 0
3, 119640, Note_on_c, 1, 54, 88
3, 119640, Note_on_c, 1, 50, 88
3, 119760, Note_on_c, 1, 50, 0
3, 119760, Note_on_c, 1, 54, 0
3, 119760, Note_on_c, 1, 55, 88
3, 119760, Note_on_c, 1, 52, 88
3, 119796, Note_on_c, 1, 52, 0
3, 119796, Note_on_c, 1, 55, 0
3, 120000, Note_on_c, 1, 57, 88
3, 120000, Note_on_c, 1, 54, 88
3, 120120, Note_on_c, 1, 54, 0
3, 120120, Note_on_c, 1, 57, 0
3, 120120, Note_on_c, 1, 59, 88
3, 120120, Note_on_c, 1, 55, 88
3, 120156, Note_on_c, 1, 55, 0
3, 120156, Note_on_c, 1, 59, 0
3, 120360, Note_on_c, 1, 57, 88
3, 120360, Note_on_c, 1, 60, 88
3, 120480, Note_on_c, 1, 60, 0
3, 120480, Note_on_c, 1, 57, 0
3, 120480, Note_on_c, 1, 55, 88
3, 120480, Note_on_c, 1, 59, 88
3, 120516, Note_on_c, 1, 59, 0
3, 120516, Note_on_c, 1, 55, 0
3, 120720, Note_on_c, 1, 57, 88
3, 120720, Note_on_c, 1, 54, 88
3, 120840, Note_on_c, 1, 54, 0
3, 120840, Note_on_c, 1, 57, 0
3, 120840, Note_on_c, 1, 55, 88
3, 120840, Note_on_c, 1, 52, 88
3, 120876, Note_on_c, 1, 52, 0
3, 120876, Note_on_c, 1, 55, 0
3, 120960, Note_on_c, 1, 50, 64
3, 120960, Note_on_c, 1, 54, 64
3, 121080, Note_on_c, 1, 54, 0
3, 121080, Note_on_c, 1, 50, 0
3, 121080, Note_on_c, 1, 62, 64
3, 121080, Note_on_c, 1, 66, 64
3, 121200, Note_on_c, 1, 66, 0
3, 121200, Note_on_c, 1, 62, 0
3, 121200, Note_on_c, 1, 64, 64
3, 121200, Note_on_c, 1, 67, 64
3, 121320, Note_on_c, 1, 67, 0
3, 121320, Note_on_c, 1, 64, 0
3, 121440, Note_on_c, 1, 66, 64
3, 121440, Note_on_c, 1, 69, 64
3, 121560, Note_on_c, 1, 69, 0
3, 121560, Note_on_c, 1, 66, 0
3, 121560, Note_on_c, 1, 67, 64
3, 121560, Note_on_c, 1, 70, 64
3, 121680, Note_on_c, 1, 70, 0
3, 121680, Note_on_c, 1, 67, 0
3, 121800, Note_on_c, 1, 69, 64
3, 121800, Note_on_c, 1, 72, 64
3, 121920, Note_on_c, 1, 72, 0
3, 121920, Note_on_c, 1, 69, 0
3, 121920, Note_on_c, 1, 67, 64
3, 121920, Note_on_c, 1, 70, 64
3, 122040, Note_on_c, 1, 70, 0
3, 122040, Note_on_c, 1, 67, 0
3, 122160, Note_on_c, 1, 66, 64
3, 122160, Note_on_c, 1, 69, 64
3, 122280, Note_on_c, 1, 69, 0
3, 122280, Note_on_c, 1, 66, 0
3, 122280, Note_on_c, 1, 64, 64
3, 122280, Note_on_c, 1, 67, 64
3, 122400, Note_on_c, 1, 67, 0
3, 122400, Note_on_c, 1, 64, 0
3, 122400, Note_on_c, 1, 62, 64
3, 122400, Note_on_c, 1, 66, 64
3, 122640, Note_on_c, 1, 66, 0
3, 122640, Note_on_c, 1, 62, 0
3, 123480, Note_on_c, 1, 81, 64
3, 123552, Note_on_c, 1, 81, 0
3, 123600, Note_on_c, 1, 81, 64
3, 123672, Note_on_c, 1, 81, 0
3, 123720, Note_on_c, 1, 81, 64
3, 123792, Note_on_c, 1, 81, 0
3, 123840, Note_on_c, 1, 78, 64
3, 123840, Note_on_c, 1, 81, 64
3, 123924, Note_on_c, 1, 81, 0
3, 123924, Note_on_c, 1, 78, 0
3, 123960, Note_on_c, 1, 78, 64
3, 123960, Note_on_c, 1, 81, 64
3, 124044, Note_on_c, 1, 81, 0
3, 124044, Note_on_c, 1, 78, 0
3, 124080, Note_on_c, 1, 78, 64
3, 124080, Note_on_c, 1, 81, 64
3, 124164, Note_on_c, 1, 81, 0
3, 124164, Note_on_c, 1, 78, 0
3, 124200, Note_on_c, 1, 78, 64
3, 124200, Note_on_c, 1, 81, 64
3, 124560, Note_on_c, 1, 81, 0
3, 124560, Note_on_c, 1, 78, 0
3, 124800, Note_on_c, 1, 66, 64
3, 124800, Note_on_c, 1, 69, 64
3, 124884, Note_on_c, 1, 69, 0
3, 124884, Note_on_c, 1, 66, 0
3, 124920, Note_on_c, 1, 66, 64
3, 124920, Note_on_c, 1, 69, 64
3, 125280, Note_on_c, 1, 69, 0
3, 125280, Note_on_c, 1, 66, 0
3, 125520, Note_on_c, 1, 59, 64
3, 125520, Note_on_c, 1, 55, 64
3, 125604, Note_on_c, 1, 55, 0
3, 125604, Note_on_c, 1, 59, 0
3, 125640, Note_on_c, 1, 59, 64
3, 125640, Note_on_c, 1, 55, 64
3, 125880, Note_on_c, 1, 55, 0
3, 125880, Note_on_c, 1, 59, 0
3, 125880, Note_on_c, 1, 60, 64
3, 125880, Note_on_c, 1, 55, 64
3, 126000, Note_on_c, 1, 55, 0
3, 126000, Note_on_c, 1, 60, 0
3, 126000, Note_on_c, 1, 60, 64
3, 126000, Note_on_c, 1, 55, 64
3, 126240, Note_on_c, 1, 55, 0
3, 126240, Note_on_c, 1, 60, 0
3, 126240, Note_on_c, 1, 60, 64
3, 126240, Note_on_c, 1, 55, 64
3, 126360, Note_on_c, 1, 55, 0
3, 126360, Note_on_c, 1, 60, 0
3, 126360, Note_on_c, 1, 59, 64
3, 126360, Note_on_c, 1, 55, 64
3, 126396, Note_on_c, 1, 55, 0
3, 126396, Note_on_c, 1, 59, 0
3, 126480, Note_on_c, 1, 59, 64
3, 126480, Note_on_c, 1, 55, 64
3, 126516, Note_on_c, 1, 55, 0
3, 126516, Note_on_c, 1, 59, 0
3, 126600, Note_on_c, 1, 59, 64
3, 126600, Note_on_c, 1, 55, 64
3, 126660, Note_on_c, 1, 55, 0
3, 126660, Note_on_c, 1, 59, 0
3, 126720, Note_on_c, 1, 59, 64
3, 126720, Note_on_c, 1, 55, 64
3, 126960, Note_on_c, 1, 55, 0
3, 126960, Note_on_c, 1, 59, 0
3, 126960, Note_on_c, 1, 50, 80
3, 127080, Note_on_c, 1, 50, 0
3, 127080, Note_on_c, 1, 55, 80
3, 127080, Note_on_c, 1, 59, 80
3, 127128, Note_on_c, 1, 59, 0
3, 127128, Note_on_c, 1, 55, 0
3, 127260, Note_on_c, 1, 43, 80
3, 127280, Note_on_c, 1, 47, 80
3, 127300, Note_on_c, 1, 50, 80
3, 127320, Note_on_c, 1, 55, 80
3, 127380, Note_on_c, 1, 43, 0
3, 127380, Note_on_c, 1, 45, 80
3, 127400, Note_on_c, 1, 47, 0
3, 127400, Note_on_c, 1, 48, 80
3, 127420, Note_on_c, 1, 50, 0
3, 127420, Note_on_c, 1, 54, 80
3, 127440, Note_on_c, 1, 55, 0
3, 127440, Note_on_c, 1, 57, 80
3, 127620, Note_on_c, 1, 45, 0
3, 127640, Note_on_c, 1, 48, 0
3, 127660, Note_on_c, 1, 54, 0
3, 127680, Note_on_c, 1, 57, 0
3, 127680, Note_on_c, 1, 47, 80
3, 127680, Note_on_c, 1, 50, 80
3, 127680, Note_on_c, 1, 55, 80
3, 127800, Note_on_c, 1, 55, 0
3, 127800, Note_on_c, 1, 50, 0
3, 127800, Note_on_c, 1, 47, 0
3, 128160, Note_on_c, 1, 38, 96
3, 128160, Note_on_c, 1, 42, 96
3, 128160, Note_on_c, 1, 45, 96
3, 128160, Note_on_c, 1, 50, 96
3, 128280, Note_on_c, 1, 50, 0
3, 128280, Note_on_c, 1, 38, 0
3, 128280, Note_on_c, 1, 42, 0
3, 128280, Note_on_c, 1, 45, 0
3, 128400, Note_on_c, 1, 64, 96
3, 128520, Note_on_c, 1, 64, 0
3, 128520, Note_on_c, 1, 60, 64
3, 128640, Note_on_c, 1, 60, 0
3, 128640, Note_on_c, 1, 59, 64
3, 128676, Note_on_c, 1, 59, 0
3, 128760, Note_on_c, 1, 57, 64
3, 128796, Note_on_c, 1, 57, 0
3, 128880, Note_on_c, 1, 57, 64
3, 129000, Note_on_c, 1, 57, 0
3, 129120, Note_on_c, 1, 62, 96
3, 129240, Note_on_c, 1, 62, 0
3, 129240, Note_on_c, 1, 59, 64
3, 129360, Note_on_c, 1, 59, 0
3, 129360, Note_on_c, 1, 57, 64
3, 129396, Note_on_c, 1, 57, 0
3, 129480, Note_on_c, 1, 55, 64
3, 129516, Note_on_c, 1, 55, 0
3, 129600, Note_on_c, 1, 55, 64
3, 129720, Note_on_c, 1, 55, 0
3, 129840, Note_on_c, 1, 52, 64
3, 129960, Note_on_c, 1, 52, 0
3, 129960, Note_on_c, 1, 48, 64
3, 129996, Note_on_c, 1, 48, 0
3, 130320, Note_on_c, 1, 50, 64
3, 130356, Note_on_c, 1, 50, 0
3, 130680, Note_on_c, 1, 55, 64
3, 130698, Note_on_c, 1, 55, 0
3, 130800, Note_on_c, 1, 50, 64
3, 130818, Note_on_c, 1, 50, 0
3, 130920, Note_on_c, 1, 47, 64
3, 130938, Note_on_c, 1, 47, 0
3, 130980, Note_on_c, 1, 43, 40
3, 131000, Note_on_c, 1, 47, 40
3, 131020, Note_on_c, 1, 50, 40
3, 131040, Note_on_c, 1, 55, 40
3, 131099, Note_on_c, 1, 50, 0
3, 131099, Note_on_c, 1, 43, 0
3, 131099, Note_on_c, 1, 47, 0
3, 131100, Note_on_c, 1, 55, 0
3, 131280, Note_on_c, 1, 71, 64
3, 131280, Note_on_c, 1, 74, 64
3, 131376, Note_on_c, 1, 74, 0
3, 131376, Note_on_c, 1, 71, 0
3, 131400, Note_on_c, 1, 74, 64
3, 131400, Note_on_c, 1, 71, 64
3, 131640, Note_on_c, 1, 71, 0
3, 131640, Note_on_c, 1, 74, 0
3, 131640, Note_on_c, 1, 76, 64
3, 131640, Note_on_c, 1, 72, 64
3, 131760, Note_on_c, 1, 72, 0
3, 131760, Note_on_c, 1, 76, 0
3, 131760, Note_on_c, 1, 74, 64
3, 131760, Note_on_c, 1, 71, 64
3, 131880, Note_on_c, 1, 71, 0
3, 131880, Note_on_c, 1, 74, 0
3, 131880, Note_on_c, 1, 72, 64
3, 131880, Note_on_c, 1, 69, 64
3, 132000, Note_on_c, 1, 69, 0
3, 132000, Note_on_c, 1, 72, 0
3, 132000, Note_on_c, 1, 71, 64
3, 132000, Note_on_c, 1, 67, 64
3, 132120, Note_on_c, 1, 67, 0
3, 132120, Note_on_c, 1, 71, 0
3, 132120, Note_on_c, 1, 69, 64
3, 132120, Note_on_c, 1, 66, 64
3, 132360, Note_on_c, 1, 66, 0
3, 132360, Note_on_c, 1, 69, 0
3, 132360, Note_on_c, 1, 69, 64
3, 132360, Note_on_c, 1, 66, 64
3, 132480, Note_on_c, 1, 66, 0
3, 132480, Note_on_c, 1, 69, 0
3, 132480, Note_on_c, 1, 69, 80
3, 132480, Note_on_c, 1, 66, 80
3, 132720, Note_on_c, 1, 66, 0
3, 132720, Note_on_c, 1, 69, 0
3, 132720, Note_on_c, 1, 69, 64
3, 132720, Note_on_c, 1, 66, 64
3, 132840, Note_on_c, 1, 66, 0
3, 132840, Note_on_c, 1, 69, 0
3, 132840, Note_on_c, 1, 71, 64
3, 132840, Note_on_c, 1, 67, 64
3, 133200, Note_on_c, 1, 67, 0
3, 133200, Note_on_c, 1, 71, 0
3, 133200, Note_on_c, 1, 67, 64
3, 133200, Note_on_c, 1, 64, 64
3, 133200, Note_on_c, 1, 57, 64
3, 133560, Note_on_c, 1, 57, 0
3, 133560, Note_on_c, 1, 64, 0
3, 133560, Note_on_c, 1, 67, 0
3, 133680, Note_on_c, 1, 50, 88
3, 133680, Note_on_c, 1, 54, 88
3, 133800, Note_on_c, 1, 54, 0
3, 133800, Note_on_c, 1, 50, 0
3, 133800, Note_on_c, 1, 52, 88
3, 133800, Note_on_c, 1, 55, 88
3, 133836, Note_on_c, 1, 55, 0
3, 133836, Note_on_c, 1, 52, 0
3, 134040, Note_on_c, 1, 54, 88
3, 134040, Note_on_c, 1, 57, 88
3, 134160, Note_on_c, 1, 57, 0
3, 134160, Note_on_c, 1, 54, 0
3, 134160, Note_on_c, 1, 55, 88
3, 134160, Note_on_c, 1, 59, 88
3, 134196, Note_on_c, 1, 59, 0
3, 134196, Note_on_c, 1, 55, 0
3, 134400, Note_on_c, 1, 60, 88
3, 134400, Note_on_c, 1, 57, 88
3, 134520, Note_on_c, 1, 57, 0
3, 134520, Note_on_c, 1, 60, 0
3, 134520, Note_on_c, 1, 59, 88
3, 134520, Note_on_c, 1, 55, 88
3, 134556, Note_on_c, 1, 55, 0
3, 134556, Note_on_c, 1, 59, 0
3, 134760, Note_on_c, 1, 54, 88
3, 134760, Note_on_c, 1, 57, 88
3, 134880, Note_on_c, 1, 57, 0
3, 134880, Note_on_c, 1, 54, 0
3, 134880, Note_on_c, 1, 52, 88
3, 134880, Note_on_c, 1, 55, 88
3, 134916, Note_on_c, 1, 55, 0
3, 134916, Note_on_c, 1, 52, 0
3, 135000, Note_on_c, 1, 54, 64
3, 135000, Note_on_c, 1, 50, 64
3, 135120, Note_on_c, 1, 50, 0
3, 135120, Note_on_c, 1, 54, 0
3, 135120, Note_on_c, 1, 66, 64
3, 135120, Note_on_c, 1, 62, 64
3, 135240, Note_on_c, 1, 62, 0
3, 135240, Note_on_c, 1, 66, 0
3, 135240, Note_on_c, 1, 67, 64
3, 135240, Note_on_c, 1, 64, 64
3, 135360, Note_on_c, 1, 64, 0
3, 135360, Note_on_c, 1, 67, 0
3, 135480, Note_on_c, 1, 69, 64
3, 135480, Note_on_c, 1, 66, 64
3, 135600, Note_on_c, 1, 66, 0
3, 135600, Note_on_c, 1, 69, 0
3, 135600, Note_on_c, 1, 70, 64
3, 135600, Note_on_c, 1, 67, 64
3, 135720, Note_on_c, 1, 67, 0
3, 135720, Note_on_c, 1, 70, 0
3, 135840, Note_on_c, 1, 72, 64
3, 135840, Note_on_c, 1, 69, 64
3, 135960, Note_on_c, 1, 69, 0
3, 135960, Note_on_c, 1, 72, 0
3, 135960, Note_on_c, 1, 70, 64
3, 135960, Note_on_c, 1, 67, 64
3, 136080, Note_on_c, 1, 67, 0
3, 136080, Note_on_c, 1, 70, 0
3, 136200, Note_on_c, 1, 69, 64
3, 136200, Note_on_c, 1, 66, 64
3, 136320, Note_on_c, 1, 66, 0
3, 136320, Note_on_c, 1, 69, 0
3, 136320, Note_on_c, 1, 67, 64
3, 136320, Note_on_c, 1, 64, 64
3, 136440, Note_on_c, 1, 64, 0
3, 136440, Note_on_c, 1, 67, 0
3, 136440, Note_on_c, 1, 66, 64
3, 136440, Note_on_c, 1, 62, 64
3, 136680, Note_on_c, 1, 62, 0
3, 136680, Note_on_c, 1, 66, 0
3, 137520, Note_on_c, 1, 81, 64
3, 137592, Note_on_c, 1, 81, 0
3, 137640, Note_on_c, 1, 81, 64
3, 137712, Note_on_c, 1, 81, 0
3, 137760, Note_on_c, 1, 81, 64
3, 137832, Note_on_c, 1, 81, 0
3, 137880, Note_on_c, 1, 81, 64
3, 137880, Note_on_c, 1, 78, 64
3, 137964, Note_on_c, 1, 78, 0
3, 137964, Note_on_c, 1, 81, 0
3, 138000, Note_on_c, 1, 81, 64
3, 138000, Note_on_c, 1, 78, 64
3, 138084, Note_on_c, 1, 78, 0
3, 138084, Note_on_c, 1, 81, 0
3, 138120, Note_on_c, 1, 81, 64
3, 138120, Note_on_c, 1, 78, 64
3, 138204, Note_on_c, 1, 78, 0
3, 138204, Note_on_c, 1, 81, 0
3, 138240, Note_on_c, 1, 81, 64
3, 138240, Note_on_c, 1, 78, 64
3, 138600, Note_on_c, 1, 78, 0
3, 138600, Note_on_c, 1, 81, 0
3, 138840, Note_on_c, 1, 69, 64
3, 138840, Note_on_c, 1, 66, 64
3, 138924, Note_on_c, 1, 66, 0
3, 138924, Note_on_c, 1, 69, 0
3, 138960, Note_on_c, 1, 69, 64
3, 138960, Note_on_c, 1, 66, 64
3, 139320, Note_on_c, 1, 66, 0
3, 139320, Note_on_c, 1, 69, 0
3, 139560, Note_on_c, 1, 55, 64
3, 139560, Note_on_c, 1, 59, 64
3, 139644, Note_on_c, 1, 59, 0
3, 139644, Note_on_c, 1, 55, 0
3, 139680, Note_on_c, 1, 55, 64
3, 139680, Note_on_c, 1, 59, 64
3, 139920, Note_on_c, 1, 59, 0
3, 139920, Note_on_c, 1, 55, 0
3, 139920, Note_on_c, 1, 55, 64
3, 139920, Note_on_c, 1, 60, 64
3, 140040, Note_on_c, 1, 60, 0
3, 140040, Note_on_c, 1, 55, 0
3, 140040, Note_on_c, 1, 55, 64
3, 140040, Note_on_c, 1, 60, 64
3, 140280, Note_on_c, 1, 60, 0
3, 140280, Note_on_c, 1, 55, 0
3, 140280, Note_on_c, 1, 55, 64
3, 140280, Note_on_c, 1, 60, 64
3, 140400, Note_on_c, 1, 60, 0
3, 140400, Note_on_c, 1, 55, 0
3, 140400, Note_on_c, 1, 55, 64
3, 140400, Note_on_c, 1, 59, 64
3, 140436, Note_on_c, 1, 59, 0
3, 140436, Note_on_c, 1, 55, 0
3, 140520, Note_on_c, 1, 55, 64
3, 140520, Note_on_c, 1, 59, 64
3, 140556, Note_on_c, 1, 59, 0
3, 140556, Note_on_c, 1, 55, 0
3, 140640, Note_on_c, 1, 55, 64
3, 140640, Note_on_c, 1, 59, 64
3, 140700, Note_on_c, 1, 59, 0
3, 140700, Note_on_c, 1, 55, 0
3, 140760, Note_on_c, 1, 55, 64
3, 140760, Note_on_c, 1, 59, 64
3, 141000, Note_on_c, 1, 59, 0
3, 141000, Note_on_c, 1, 55, 0
3, 141000, Note_on_c, 1, 50, 80
3, 141120, Note_on_c, 1, 50, 0
3, 141120, Note_on_c, 1, 59, 80
3, 141120, Note_on_c, 1, 55, 80
3, 141168, Note_on_c, 1, 55, 0
3, 141168, Note_on_c, 1, 59, 0
3, 141300, Note_on_c, 1, 43, 80
3, 141320, Note_on_c, 1, 47, 80
3, 141340, Note_on_c, 1, 50, 80
3, 141360, Note_on_c, 1, 55, 80
3, 141420, Note_on_c, 1, 43, 0
3, 141420, Note_on_c, 1, 45, 80
3, 141440, Note_on_c, 1, 47, 0
3, 141440, Note_on_c, 1, 48, 80
3, 141460, Note_on_c, 1, 50, 0
3, 141460, Note_on_c, 1, 54, 80
3, 141480, Note_on_c, 1, 55, 0
3, 141480, Note_on_c, 1, 57, 80
3, 141660, Note_on_c, 1, 45, 0
3, 141680, Note_on_c, 1, 48, 0
3, 141700, Note_on_c, 1, 54, 0
3, 141720, Note_on_c, 1, 57, 0
3, 141720, Note_on_c, 1, 55, 80
3, 141720, Note_on_c, 1, 50, 80
3, 141720, Note_on_c, 1, 47, 80
3, 141840, Note_on_c, 1, 47, 0
3, 141840, Note_on_c, 1, 50, 0
3, 141840, Note_on_c, 1, 55, 0
3, 142200, Note_on_c, 1, 50, 96
3, 142200, Note_on_c, 1, 45, 96
3, 142200, Note_on_c, 1, 42, 96
3, 142200, Note_on_c, 1, 38, 96
3, 142320, Note_on_c, 1, 38, 0
3, 142320, Note_on_c, 1, 50, 0
3, 142320, Note_on_c, 1, 45, 0
3, 142320, Note_on_c, 1, 42, 0
3, 142440, Note_on_c, 1, 64, 96
3, 142560, Note_on_c, 1, 64, 0
3, 142560, Note_on_c, 1, 60, 64
3, 142680, Note_on_c, 1, 60, 0
3, 142680, Note_on_c, 1, 59, 64
3, 142716, Note_on_c, 1, 59, 0
3, 142800, Note_on_c, 1, 57, 64
3, 142836, Note_on_c, 1, 57, 0
3, 142920, Note_on_c, 1, 57, 64
3, 143040, Note_on_c, 1, 57, 0
3, 143160, Note_on_c, 1, 62, 96
3, 143280, Note_on_c, 1, 62, 0
3, 143280, Note_on_c, 1, 59, 64
3, 143400, Note_on_c, 1, 59, 0
3, 143400, Note_on_c, 1, 57, 64
3, 143436, Note_on_c, 1, 57, 0
3, 143520, Note_on_c, 1, 55, 64
3, 143556, Note_on_c, 1, 55, 0
3, 143640, Note_on_c, 1, 55, 64
3, 143760, Note_on_c, 1, 55, 0
3, 143880, Note_on_c, 1, 52, 64
3, 144000, Note_on_c, 1, 52, 0
3, 144000, Note_on_c, 1, 48, 64
3, 144036, Note_on_c, 1, 48, 0
3, 144360, Note_on_c, 1, 50, 64
3, 144396, Note_on_c, 1, 50, 0
3, 144720, Note_on_c, 1, 55, 64
3, 144738, Note_on_c, 1, 55, 0
3, 144840, Note_on_c, 1, 50, 64
3, 144858, Note_on_c, 1, 50, 0
3, 144960, Note_on_c, 1, 47, 64
3, 144978, Note_on_c, 1, 47, 0
3, 145020, Note_on_c, 1, 43, 112
3, 145040, Note_on_c, 1, 47, 112
3, 145060, Note_on_c, 1, 50, 112
3, 145080, Note_on_c, 1, 55, 112
3, 145199, Note_on_c, 1, 50, 0
3, 145199, Note_on_c, 1, 43, 0
3, 145199, Note_on_c, 1, 47, 0
3, 145200, Note_on_c, 1, 55, 0
3, 145200, End_track
4, 0, Start_track
4, 0, MIDI_port, 0
4, 0, Title_t, "MIDI by Marty Weimer 5/24/97"
4, 0, End_track
5, 0, Start_track
5, 0, MIDI_port, 0
5, 0, Title_t, "weimermt@libby.org  Eureka, MT  USA"
5, 0, End_track
0, 0, End_of_file
