0, 0, Header, 1, 5, 240
1, 0, Start_track
1, 0, Time_signature, 4, 2, 24, 8
1, 0, Key_signature, 0, "major"
1, 0, Tempo, 428571
1, 0, End_track
2, 0, Start_track
2, 0, MIDI_port, 0
2, 0, Title_t, "Piano Sonata No. 17 in B Flat"
2, 0, Program_c, 0, 0
2, 0, Control_c, 0, 7, 127
2, 0, Control_c, 0, 10, 72
2, 720, Note_on_c, 0, 70, 80
2, 780, Note_on_c, 0, 70, 0
2, 780, Note_on_c, 0, 72, 80
2, 798, Note_on_c, 0, 72, 0
2, 840, Note_on_c, 0, 74, 80
2, 858, Note_on_c, 0, 74, 0
2, 900, Note_on_c, 0, 75, 80
2, 918, Note_on_c, 0, 75, 0
2, 960, Note_on_c, 0, 77, 88
2, 1080, Note_on_c, 0, 77, 0
2, 1200, Note_on_c, 0, 77, 80
2, 1680, Note_on_c, 0, 77, 0
2, 1680, Note_on_c, 0, 82, 80
2, 1800, Note_on_c, 0, 82, 0
2, 1800, Note_on_c, 0, 79, 80
2, 1920, Note_on_c, 0, 79, 0
2, 1920, Note_on_c, 0, 77, 88
2, 2016, Note_on_c, 0, 77, 0
2, 2160, Note_on_c, 0, 77, 80
2, 2640, Note_on_c, 0, 77, 0
2, 2640, Note_on_c, 0, 82, 80
2, 2760, Note_on_c, 0, 82, 0
2, 2760, Note_on_c, 0, 79, 80
2, 2880, Note_on_c, 0, 79, 0
2, 2880, Note_on_c, 0, 77, 88
2, 3000, Note_on_c, 0, 77, 0
2, 3090, Note_on_c, 0, 75, 61
2, 3120, Note_on_c, 0, 75, 0
2, 3120, Note_on_c, 0, 74, 63
2, 3150, Note_on_c, 0, 74, 0
2, 3150, Note_on_c, 0, 75, 64
2, 3180, Note_on_c, 0, 75, 0
2, 3180, Note_on_c, 0, 74, 65
2, 3210, Note_on_c, 0, 74, 0
2, 3210, Note_on_c, 0, 75, 67
2, 3240, Note_on_c, 0, 75, 0
2, 3240, Note_on_c, 0, 74, 68
2, 3260, Note_on_c, 0, 74, 0
2, 3260, Note_on_c, 0, 75, 69
2, 3280, Note_on_c, 0, 75, 0
2, 3280, Note_on_c, 0, 74, 70
2, 3300, Note_on_c, 0, 74, 0
2, 3300, Note_on_c, 0, 72, 71
2, 3330, Note_on_c, 0, 72, 0
2, 3330, Note_on_c, 0, 74, 72
2, 3360, Note_on_c, 0, 74, 0
2, 3360, Note_on_c, 0, 75, 73
2, 3480, Note_on_c, 0, 75, 0
2, 3570, Note_on_c, 0, 74, 62
2, 3600, Note_on_c, 0, 74, 0
2, 3600, Note_on_c, 0, 72, 63
2, 3630, Note_on_c, 0, 72, 0
2, 3630, Note_on_c, 0, 74, 64
2, 3660, Note_on_c, 0, 74, 0
2, 3660, Note_on_c, 0, 72, 66
2, 3690, Note_on_c, 0, 72, 0
2, 3690, Note_on_c, 0, 74, 67
2, 3720, Note_on_c, 0, 74, 0
2, 3720, Note_on_c, 0, 72, 68
2, 3740, Note_on_c, 0, 72, 0
2, 3740, Note_on_c, 0, 74, 69
2, 3760, Note_on_c, 0, 74, 0
2, 3760, Note_on_c, 0, 72, 70
2, 3780, Note_on_c, 0, 72, 0
2, 3780, Note_on_c, 0, 70, 71
2, 3810, Note_on_c, 0, 70, 0
2, 3810, Note_on_c, 0, 72, 72
2, 3840, Note_on_c, 0, 72, 0
2, 3840, Note_on_c, 0, 74, 80
2, 3920, Note_on_c, 0, 74, 0
2, 3920, Note_on_c, 0, 72, 80
2, 3944, Note_on_c, 0, 72, 0
2, 4000, Note_on_c, 0, 70, 80
2, 4024, Note_on_c, 0, 70, 0
2, 4080, Note_on_c, 0, 77, 80
2, 4560, Note_on_c, 0, 77, 0
2, 4560, Note_on_c, 0, 82, 80
2, 4680, Note_on_c, 0, 82, 0
2, 4680, Note_on_c, 0, 79, 80
2, 4800, Note_on_c, 0, 79, 0
2, 4800, Note_on_c, 0, 77, 88
2, 4920, Note_on_c, 0, 77, 0
2, 5010, Note_on_c, 0, 75, 60
2, 5040, Note_on_c, 0, 75, 0
2, 5040, Note_on_c, 0, 74, 61
2, 5070, Note_on_c, 0, 74, 0
2, 5070, Note_on_c, 0, 75, 62
2, 5100, Note_on_c, 0, 75, 0
2, 5100, Note_on_c, 0, 74, 63
2, 5130, Note_on_c, 0, 74, 0
2, 5130, Note_on_c, 0, 75, 64
2, 5160, Note_on_c, 0, 75, 0
2, 5160, Note_on_c, 0, 74, 65
2, 5180, Note_on_c, 0, 74, 0
2, 5180, Note_on_c, 0, 75, 66
2, 5200, Note_on_c, 0, 75, 0
2, 5200, Note_on_c, 0, 74, 67
2, 5220, Note_on_c, 0, 74, 0
2, 5220, Note_on_c, 0, 72, 67
2, 5250, Note_on_c, 0, 72, 0
2, 5250, Note_on_c, 0, 74, 69
2, 5280, Note_on_c, 0, 74, 0
2, 5280, Note_on_c, 0, 75, 70
2, 5400, Note_on_c, 0, 75, 0
2, 5490, Note_on_c, 0, 74, 59
2, 5520, Note_on_c, 0, 74, 0
2, 5520, Note_on_c, 0, 72, 61
2, 5550, Note_on_c, 0, 72, 0
2, 5550, Note_on_c, 0, 74, 62
2, 5580, Note_on_c, 0, 74, 0
2, 5580, Note_on_c, 0, 72, 64
2, 5610, Note_on_c, 0, 72, 0
2, 5610, Note_on_c, 0, 74, 65
2, 5640, Note_on_c, 0, 74, 0
2, 5640, Note_on_c, 0, 72, 67
2, 5660, Note_on_c, 0, 72, 0
2, 5660, Note_on_c, 0, 74, 68
2, 5680, Note_on_c, 0, 74, 0
2, 5680, Note_on_c, 0, 72, 69
2, 5700, Note_on_c, 0, 72, 0
2, 5700, Note_on_c, 0, 70, 70
2, 5730, Note_on_c, 0, 70, 0
2, 5730, Note_on_c, 0, 72, 71
2, 5760, Note_on_c, 0, 72, 0
2, 5760, Note_on_c, 0, 74, 80
2, 5880, Note_on_c, 0, 74, 0
2, 5880, Note_on_c, 0, 70, 80
2, 5916, Note_on_c, 0, 70, 0
2, 6000, Note_on_c, 0, 65, 80
2, 6036, Note_on_c, 0, 65, 0
2, 6120, Note_on_c, 0, 62, 80
2, 6156, Note_on_c, 0, 62, 0
2, 6240, Note_on_c, 0, 58, 80
2, 6480, Note_on_c, 0, 58, 0
2, 6480, Note_on_c, 0, 70, 50
2, 6540, Note_on_c, 0, 70, 0
2, 6540, Note_on_c, 0, 72, 50
2, 6600, Note_on_c, 0, 72, 0
2, 6600, Note_on_c, 0, 74, 51
2, 6660, Note_on_c, 0, 74, 0
2, 6660, Note_on_c, 0, 75, 52
2, 6720, Note_on_c, 0, 75, 0
2, 6720, Note_on_c, 0, 77, 53
2, 6780, Note_on_c, 0, 77, 0
2, 6780, Note_on_c, 0, 75, 54
2, 6840, Note_on_c, 0, 75, 0
2, 6840, Note_on_c, 0, 74, 55
2, 6900, Note_on_c, 0, 74, 0
2, 6900, Note_on_c, 0, 72, 56
2, 6960, Note_on_c, 0, 72, 0
2, 6960, Note_on_c, 0, 70, 56
2, 7020, Note_on_c, 0, 70, 0
2, 7020, Note_on_c, 0, 69, 57
2, 7038, Note_on_c, 0, 69, 0
2, 7080, Note_on_c, 0, 67, 58
2, 7098, Note_on_c, 0, 67, 0
2, 7140, Note_on_c, 0, 65, 59
2, 7158, Note_on_c, 0, 65, 0
2, 7200, Note_on_c, 0, 70, 60
2, 7260, Note_on_c, 0, 70, 0
2, 7260, Note_on_c, 0, 69, 61
2, 7320, Note_on_c, 0, 69, 0
2, 7320, Note_on_c, 0, 67, 61
2, 7380, Note_on_c, 0, 67, 0
2, 7380, Note_on_c, 0, 66, 62
2, 7440, Note_on_c, 0, 66, 0
2, 7440, Note_on_c, 0, 67, 63
2, 7500, Note_on_c, 0, 67, 0
2, 7500, Note_on_c, 0, 69, 64
2, 7518, Note_on_c, 0, 69, 0
2, 7560, Note_on_c, 0, 70, 65
2, 7578, Note_on_c, 0, 70, 0
2, 7620, Note_on_c, 0, 72, 66
2, 7638, Note_on_c, 0, 72, 0
2, 7680, Note_on_c, 0, 74, 67
2, 7740, Note_on_c, 0, 74, 0
2, 7740, Note_on_c, 0, 72, 67
2, 7800, Note_on_c, 0, 72, 0
2, 7800, Note_on_c, 0, 70, 68
2, 7860, Note_on_c, 0, 70, 0
2, 7860, Note_on_c, 0, 69, 69
2, 7920, Note_on_c, 0, 69, 0
2, 7920, Note_on_c, 0, 67, 70
2, 7980, Note_on_c, 0, 67, 0
2, 7980, Note_on_c, 0, 65, 71
2, 8040, Note_on_c, 0, 65, 0
2, 8040, Note_on_c, 0, 63, 72
2, 8100, Note_on_c, 0, 63, 0
2, 8100, Note_on_c, 0, 62, 72
2, 8160, Note_on_c, 0, 62, 0
2, 8160, Note_on_c, 0, 67, 73
2, 8220, Note_on_c, 0, 67, 0
2, 8220, Note_on_c, 0, 65, 74
2, 8280, Note_on_c, 0, 65, 0
2, 8280, Note_on_c, 0, 63, 75
2, 8340, Note_on_c, 0, 63, 0
2, 8340, Note_on_c, 0, 62, 76
2, 8400, Note_on_c, 0, 62, 0
2, 8400, Note_on_c, 0, 63, 77
2, 8460, Note_on_c, 0, 63, 0
2, 8460, Note_on_c, 0, 65, 78
2, 8520, Note_on_c, 0, 65, 0
2, 8520, Note_on_c, 0, 67, 78
2, 8580, Note_on_c, 0, 67, 0
2, 8580, Note_on_c, 0, 69, 79
2, 8640, Note_on_c, 0, 69, 0
2, 8640, Note_on_c, 0, 70, 80
2, 8760, Note_on_c, 0, 70, 0
2, 8760, Note_on_c, 0, 65, 80
2, 8796, Note_on_c, 0, 65, 0
2, 8880, Note_on_c, 0, 70, 80
2, 8916, Note_on_c, 0, 70, 0
2, 9000, Note_on_c, 0, 77, 80
2, 9090, Note_on_c, 0, 77, 0
2, 9090, Note_on_c, 0, 77, 80
2, 9120, Note_on_c, 0, 77, 0
2, 9120, Note_on_c, 0, 75, 80
2, 9480, Note_on_c, 0, 75, 0
2, 9480, Note_on_c, 0, 74, 80
2, 9600, Note_on_c, 0, 74, 0
2, 9600, Note_on_c, 0, 74, 80
2, 9630, Note_on_c, 0, 74, 0
2, 9630, Note_on_c, 0, 75, 80
2, 9660, Note_on_c, 0, 75, 0
2, 9660, Note_on_c, 0, 74, 80
2, 9690, Note_on_c, 0, 74, 0
2, 9690, Note_on_c, 0, 75, 80
2, 9720, Note_on_c, 0, 75, 0
2, 9720, Note_on_c, 0, 74, 80
2, 9740, Note_on_c, 0, 74, 0
2, 9740, Note_on_c, 0, 75, 80
2, 9760, Note_on_c, 0, 75, 0
2, 9760, Note_on_c, 0, 74, 80
2, 9780, Note_on_c, 0, 74, 0
2, 9780, Note_on_c, 0, 72, 80
2, 9810, Note_on_c, 0, 72, 0
2, 9810, Note_on_c, 0, 74, 80
2, 9840, Note_on_c, 0, 74, 0
2, 9840, Note_on_c, 0, 72, 80
2, 10080, Note_on_c, 0, 72, 0
2, 10200, Note_on_c, 0, 74, 80
2, 10236, Note_on_c, 0, 74, 0
2, 10320, Note_on_c, 0, 82, 80
2, 10400, Note_on_c, 0, 82, 0
2, 10400, Note_on_c, 0, 81, 80
2, 10424, Note_on_c, 0, 81, 0
2, 10480, Note_on_c, 0, 79, 80
2, 10504, Note_on_c, 0, 79, 0
2, 10560, Note_on_c, 0, 79, 80
2, 10680, Note_on_c, 0, 79, 0
2, 10680, Note_on_c, 0, 76, 80
2, 10716, Note_on_c, 0, 76, 0
2, 10800, Note_on_c, 0, 76, 80
2, 10920, Note_on_c, 0, 76, 0
2, 10920, Note_on_c, 0, 77, 80
2, 11040, Note_on_c, 0, 77, 0
2, 11160, Note_on_c, 0, 75, 80
2, 11196, Note_on_c, 0, 75, 0
2, 11280, Note_on_c, 0, 79, 80
2, 11360, Note_on_c, 0, 79, 0
2, 11360, Note_on_c, 0, 77, 80
2, 11384, Note_on_c, 0, 77, 0
2, 11440, Note_on_c, 0, 75, 80
2, 11464, Note_on_c, 0, 75, 0
2, 11520, Note_on_c, 0, 75, 80
2, 11640, Note_on_c, 0, 75, 0
2, 11640, Note_on_c, 0, 73, 80
2, 11676, Note_on_c, 0, 73, 0
2, 11760, Note_on_c, 0, 73, 80
2, 11880, Note_on_c, 0, 73, 0
2, 11880, Note_on_c, 0, 74, 80
2, 12000, Note_on_c, 0, 74, 0
2, 12120, Note_on_c, 0, 72, 80
2, 12156, Note_on_c, 0, 72, 0
2, 12240, Note_on_c, 0, 75, 80
2, 12320, Note_on_c, 0, 75, 0
2, 12320, Note_on_c, 0, 74, 80
2, 12344, Note_on_c, 0, 74, 0
2, 12400, Note_on_c, 0, 72, 80
2, 12424, Note_on_c, 0, 72, 0
2, 12480, Note_on_c, 0, 72, 80
2, 12600, Note_on_c, 0, 72, 0
2, 12600, Note_on_c, 0, 69, 80
2, 12720, Note_on_c, 0, 69, 0
2, 12720, Note_on_c, 0, 69, 80
2, 12840, Note_on_c, 0, 69, 0
2, 12840, Note_on_c, 0, 70, 80
2, 12960, Note_on_c, 0, 70, 0
2, 12960, Note_on_c, 0, 77, 80
2, 12960, Note_on_c, 0, 72, 80
2, 13080, Note_on_c, 0, 77, 0
2, 13080, Note_on_c, 0, 75, 80
2, 13200, Note_on_c, 0, 75, 0
2, 13200, Note_on_c, 0, 72, 0
2, 13320, Note_on_c, 0, 74, 80
2, 13320, Note_on_c, 0, 70, 80
2, 13440, Note_on_c, 0, 70, 0
2, 13440, Note_on_c, 0, 74, 0
2, 13440, Note_on_c, 0, 74, 80
2, 13440, Note_on_c, 0, 70, 80
2, 13680, Note_on_c, 0, 70, 0
2, 13680, Note_on_c, 0, 74, 0
2, 13680, Note_on_c, 0, 72, 80
2, 13680, Note_on_c, 0, 69, 80
2, 13800, Note_on_c, 0, 69, 0
2, 13800, Note_on_c, 0, 72, 0
2, 14160, Note_on_c, 0, 65, 80
2, 14220, Note_on_c, 0, 65, 0
2, 14220, Note_on_c, 0, 67, 80
2, 14250, Note_on_c, 0, 67, 0
2, 14280, Note_on_c, 0, 69, 80
2, 14310, Note_on_c, 0, 69, 0
2, 14340, Note_on_c, 0, 70, 80
2, 14370, Note_on_c, 0, 70, 0
2, 14400, Note_on_c, 0, 72, 80
2, 14640, Note_on_c, 0, 72, 0
2, 14640, Note_on_c, 0, 72, 80
2, 15120, Note_on_c, 0, 72, 0
2, 15120, Note_on_c, 0, 77, 80
2, 15300, Note_on_c, 0, 77, 0
2, 15300, Note_on_c, 0, 72, 80
2, 15360, Note_on_c, 0, 72, 0
2, 15360, Note_on_c, 0, 72, 80
2, 15540, Note_on_c, 0, 72, 0
2, 15540, Note_on_c, 0, 70, 80
2, 15600, Note_on_c, 0, 70, 0
2, 15600, Note_on_c, 0, 70, 80
2, 16080, Note_on_c, 0, 70, 0
2, 16080, Note_on_c, 0, 70, 63
2, 16110, Note_on_c, 0, 70, 0
2, 16110, Note_on_c, 0, 72, 64
2, 16140, Note_on_c, 0, 72, 0
2, 16140, Note_on_c, 0, 70, 65
2, 16170, Note_on_c, 0, 70, 0
2, 16170, Note_on_c, 0, 72, 66
2, 16200, Note_on_c, 0, 72, 0
2, 16200, Note_on_c, 0, 70, 67
2, 16220, Note_on_c, 0, 70, 0
2, 16220, Note_on_c, 0, 72, 68
2, 16240, Note_on_c, 0, 72, 0
2, 16240, Note_on_c, 0, 70, 69
2, 16260, Note_on_c, 0, 70, 0
2, 16260, Note_on_c, 0, 69, 70
2, 16290, Note_on_c, 0, 69, 0
2, 16290, Note_on_c, 0, 70, 71
2, 16320, Note_on_c, 0, 70, 0
2, 16320, Note_on_c, 0, 60, 80
2, 16560, Note_on_c, 0, 60, 0
2, 16560, Note_on_c, 0, 70, 61
2, 16590, Note_on_c, 0, 70, 0
2, 16590, Note_on_c, 0, 72, 62
2, 16620, Note_on_c, 0, 72, 0
2, 16620, Note_on_c, 0, 70, 64
2, 16650, Note_on_c, 0, 70, 0
2, 16650, Note_on_c, 0, 72, 65
2, 16680, Note_on_c, 0, 72, 0
2, 16680, Note_on_c, 0, 70, 67
2, 16700, Note_on_c, 0, 70, 0
2, 16700, Note_on_c, 0, 72, 68
2, 16720, Note_on_c, 0, 72, 0
2, 16720, Note_on_c, 0, 70, 69
2, 16740, Note_on_c, 0, 70, 0
2, 16740, Note_on_c, 0, 69, 70
2, 16770, Note_on_c, 0, 69, 0
2, 16770, Note_on_c, 0, 70, 72
2, 16800, Note_on_c, 0, 70, 0
2, 16800, Note_on_c, 0, 79, 80
2, 17040, Note_on_c, 0, 79, 0
2, 17040, Note_on_c, 0, 70, 80
2, 17220, Note_on_c, 0, 70, 0
2, 17220, Note_on_c, 0, 72, 80
2, 17280, Note_on_c, 0, 72, 0
2, 17280, Note_on_c, 0, 70, 56
2, 17310, Note_on_c, 0, 70, 0
2, 17310, Note_on_c, 0, 72, 58
2, 17340, Note_on_c, 0, 72, 0
2, 17340, Note_on_c, 0, 70, 60
2, 17370, Note_on_c, 0, 70, 0
2, 17370, Note_on_c, 0, 72, 63
2, 17400, Note_on_c, 0, 72, 0
2, 17400, Note_on_c, 0, 70, 65
2, 17420, Note_on_c, 0, 70, 0
2, 17420, Note_on_c, 0, 72, 66
2, 17440, Note_on_c, 0, 72, 0
2, 17440, Note_on_c, 0, 70, 68
2, 17460, Note_on_c, 0, 70, 0
2, 17460, Note_on_c, 0, 69, 69
2, 17490, Note_on_c, 0, 69, 0
2, 17490, Note_on_c, 0, 70, 72
2, 17520, Note_on_c, 0, 70, 0
2, 17520, Note_on_c, 0, 69, 80
2, 18000, Note_on_c, 0, 69, 0
2, 18000, Note_on_c, 0, 72, 80
2, 18060, Note_on_c, 0, 72, 0
2, 18060, Note_on_c, 0, 69, 80
2, 18240, Note_on_c, 0, 69, 0
2, 18240, Note_on_c, 0, 69, 80
2, 18300, Note_on_c, 0, 69, 0
2, 18300, Note_on_c, 0, 67, 80
2, 18480, Note_on_c, 0, 67, 0
2, 18480, Note_on_c, 0, 68, 80
2, 18840, Note_on_c, 0, 68, 0
2, 18840, Note_on_c, 0, 67, 80
2, 18900, Note_on_c, 0, 67, 0
2, 18900, Note_on_c, 0, 68, 80
2, 18960, Note_on_c, 0, 68, 0
2, 18960, Note_on_c, 0, 70, 80
2, 19080, Note_on_c, 0, 70, 0
2, 19080, Note_on_c, 0, 68, 80
2, 19200, Note_on_c, 0, 68, 0
2, 19200, Note_on_c, 0, 68, 80
2, 19260, Note_on_c, 0, 68, 0
2, 19260, Note_on_c, 0, 67, 80
2, 19440, Note_on_c, 0, 67, 0
2, 19440, Note_on_c, 0, 67, 80
2, 19920, Note_on_c, 0, 67, 0
2, 19920, Note_on_c, 0, 72, 64
2, 19980, Note_on_c, 0, 72, 0
2, 19980, Note_on_c, 0, 69, 64
2, 20160, Note_on_c, 0, 69, 0
2, 20160, Note_on_c, 0, 69, 64
2, 20220, Note_on_c, 0, 69, 0
2, 20220, Note_on_c, 0, 67, 64
2, 20400, Note_on_c, 0, 67, 0
2, 20400, Note_on_c, 0, 68, 64
2, 20760, Note_on_c, 0, 68, 0
2, 20760, Note_on_c, 0, 67, 64
2, 20820, Note_on_c, 0, 67, 0
2, 20820, Note_on_c, 0, 68, 64
2, 20880, Note_on_c, 0, 68, 0
2, 20880, Note_on_c, 0, 70, 64
2, 21000, Note_on_c, 0, 70, 0
2, 21000, Note_on_c, 0, 68, 64
2, 21120, Note_on_c, 0, 68, 0
2, 21120, Note_on_c, 0, 68, 64
2, 21180, Note_on_c, 0, 68, 0
2, 21180, Note_on_c, 0, 67, 64
2, 21360, Note_on_c, 0, 67, 0
2, 21360, Note_on_c, 0, 67, 64
2, 21600, Note_on_c, 0, 67, 0
2, 21600, Note_on_c, 0, 72, 62
2, 21630, Note_on_c, 0, 72, 0
2, 21630, Note_on_c, 0, 74, 63
2, 21660, Note_on_c, 0, 74, 0
2, 21660, Note_on_c, 0, 72, 65
2, 21680, Note_on_c, 0, 72, 0
2, 21680, Note_on_c, 0, 74, 66
2, 21700, Note_on_c, 0, 74, 0
2, 21700, Note_on_c, 0, 72, 67
2, 21720, Note_on_c, 0, 72, 0
2, 21720, Note_on_c, 0, 71, 68
2, 21780, Note_on_c, 0, 71, 0
2, 21780, Note_on_c, 0, 72, 71
2, 21840, Note_on_c, 0, 72, 0
2, 21840, Note_on_c, 0, 74, 80
2, 21960, Note_on_c, 0, 74, 0
2, 21960, Note_on_c, 0, 72, 80
2, 22080, Note_on_c, 0, 72, 0
2, 22080, Note_on_c, 0, 72, 80
2, 22320, Note_on_c, 0, 72, 0
2, 22320, Note_on_c, 0, 71, 80
2, 22464, Note_on_c, 0, 71, 0
2, 22560, Note_on_c, 0, 70, 62
2, 22590, Note_on_c, 0, 70, 0
2, 22590, Note_on_c, 0, 72, 64
2, 22620, Note_on_c, 0, 72, 0
2, 22620, Note_on_c, 0, 70, 65
2, 22640, Note_on_c, 0, 70, 0
2, 22640, Note_on_c, 0, 72, 66
2, 22660, Note_on_c, 0, 72, 0
2, 22660, Note_on_c, 0, 70, 67
2, 22680, Note_on_c, 0, 70, 0
2, 22680, Note_on_c, 0, 69, 68
2, 22740, Note_on_c, 0, 69, 0
2, 22740, Note_on_c, 0, 70, 72
2, 22800, Note_on_c, 0, 70, 0
2, 22800, Note_on_c, 0, 72, 80
2, 22920, Note_on_c, 0, 72, 0
2, 22920, Note_on_c, 0, 70, 80
2, 23040, Note_on_c, 0, 70, 0
2, 23040, Note_on_c, 0, 70, 80
2, 23280, Note_on_c, 0, 70, 0
2, 23280, Note_on_c, 0, 69, 80
2, 23520, Note_on_c, 0, 69, 0
2, 23520, Note_on_c, 0, 69, 62
2, 23550, Note_on_c, 0, 69, 0
2, 23550, Note_on_c, 0, 70, 63
2, 23580, Note_on_c, 0, 70, 0
2, 23580, Note_on_c, 0, 69, 65
2, 23600, Note_on_c, 0, 69, 0
2, 23600, Note_on_c, 0, 70, 66
2, 23620, Note_on_c, 0, 70, 0
2, 23620, Note_on_c, 0, 69, 67
2, 23640, Note_on_c, 0, 69, 0
2, 23640, Note_on_c, 0, 67, 68
2, 23700, Note_on_c, 0, 67, 0
2, 23700, Note_on_c, 0, 69, 71
2, 23760, Note_on_c, 0, 69, 0
2, 23760, Note_on_c, 0, 70, 80
2, 23880, Note_on_c, 0, 70, 0
2, 23880, Note_on_c, 0, 69, 80
2, 24000, Note_on_c, 0, 69, 0
2, 24000, Note_on_c, 0, 69, 80
2, 24120, Note_on_c, 0, 69, 0
2, 24120, Note_on_c, 0, 67, 80
2, 24240, Note_on_c, 0, 67, 0
2, 24240, Note_on_c, 0, 65, 80
2, 24720, Note_on_c, 0, 65, 0
2, 24720, Note_on_c, 0, 67, 80
2, 24780, Note_on_c, 0, 67, 0
2, 24780, Note_on_c, 0, 64, 80
2, 24960, Note_on_c, 0, 64, 0
2, 24960, Note_on_c, 0, 64, 80
2, 25200, Note_on_c, 0, 64, 0
2, 25200, Note_on_c, 0, 65, 80
2, 25440, Note_on_c, 0, 65, 0
2, 25440, Note_on_c, 0, 72, 61
2, 25470, Note_on_c, 0, 72, 0
2, 25470, Note_on_c, 0, 74, 62
2, 25500, Note_on_c, 0, 74, 0
2, 25500, Note_on_c, 0, 72, 64
2, 25520, Note_on_c, 0, 72, 0
2, 25520, Note_on_c, 0, 74, 65
2, 25540, Note_on_c, 0, 74, 0
2, 25540, Note_on_c, 0, 72, 66
2, 25560, Note_on_c, 0, 72, 0
2, 25560, Note_on_c, 0, 71, 67
2, 25620, Note_on_c, 0, 71, 0
2, 25620, Note_on_c, 0, 72, 71
2, 25680, Note_on_c, 0, 72, 0
2, 25680, Note_on_c, 0, 74, 80
2, 25800, Note_on_c, 0, 74, 0
2, 25800, Note_on_c, 0, 72, 80
2, 25920, Note_on_c, 0, 72, 0
2, 25920, Note_on_c, 0, 72, 80
2, 26040, Note_on_c, 0, 72, 0
2, 26040, Note_on_c, 0, 70, 80
2, 26076, Note_on_c, 0, 70, 0
2, 26160, Note_on_c, 0, 70, 80
2, 26196, Note_on_c, 0, 70, 0
2, 26280, Note_on_c, 0, 70, 80
2, 26316, Note_on_c, 0, 70, 0
2, 26400, Note_on_c, 0, 70, 80
2, 26430, Note_on_c, 0, 70, 0
2, 26430, Note_on_c, 0, 72, 80
2, 26460, Note_on_c, 0, 72, 0
2, 26460, Note_on_c, 0, 70, 80
2, 26480, Note_on_c, 0, 70, 0
2, 26480, Note_on_c, 0, 72, 80
2, 26500, Note_on_c, 0, 72, 0
2, 26500, Note_on_c, 0, 70, 80
2, 26520, Note_on_c, 0, 70, 0
2, 26520, Note_on_c, 0, 69, 80
2, 26580, Note_on_c, 0, 69, 0
2, 26580, Note_on_c, 0, 70, 80
2, 26640, Note_on_c, 0, 70, 0
2, 26640, Note_on_c, 0, 72, 80
2, 26760, Note_on_c, 0, 72, 0
2, 26760, Note_on_c, 0, 70, 80
2, 26880, Note_on_c, 0, 70, 0
2, 26880, Note_on_c, 0, 70, 80
2, 27000, Note_on_c, 0, 70, 0
2, 27000, Note_on_c, 0, 69, 80
2, 27036, Note_on_c, 0, 69, 0
2, 27120, Note_on_c, 0, 69, 80
2, 27156, Note_on_c, 0, 69, 0
2, 27240, Note_on_c, 0, 69, 80
2, 27276, Note_on_c, 0, 69, 0
2, 27360, Note_on_c, 0, 69, 80
2, 27390, Note_on_c, 0, 69, 0
2, 27390, Note_on_c, 0, 70, 80
2, 27420, Note_on_c, 0, 70, 0
2, 27420, Note_on_c, 0, 69, 80
2, 27450, Note_on_c, 0, 69, 0
2, 27450, Note_on_c, 0, 70, 80
2, 27480, Note_on_c, 0, 70, 0
2, 27480, Note_on_c, 0, 69, 80
2, 27500, Note_on_c, 0, 69, 0
2, 27500, Note_on_c, 0, 70, 80
2, 27520, Note_on_c, 0, 70, 0
2, 27520, Note_on_c, 0, 69, 80
2, 27540, Note_on_c, 0, 69, 0
2, 27540, Note_on_c, 0, 67, 80
2, 27570, Note_on_c, 0, 67, 0
2, 27570, Note_on_c, 0, 69, 80
2, 27600, Note_on_c, 0, 69, 0
2, 27600, Note_on_c, 0, 70, 80
2, 27720, Note_on_c, 0, 70, 0
2, 27720, Note_on_c, 0, 69, 80
2, 27840, Note_on_c, 0, 69, 0
2, 27840, Note_on_c, 0, 69, 80
2, 27960, Note_on_c, 0, 69, 0
2, 27960, Note_on_c, 0, 67, 80
2, 28080, Note_on_c, 0, 67, 0
2, 28080, Note_on_c, 0, 65, 80
2, 28560, Note_on_c, 0, 65, 0
2, 28560, Note_on_c, 0, 67, 80
2, 28620, Note_on_c, 0, 67, 0
2, 28620, Note_on_c, 0, 64, 80
2, 28800, Note_on_c, 0, 64, 0
2, 28800, Note_on_c, 0, 65, 80
2, 28920, Note_on_c, 0, 65, 0
2, 29040, Note_on_c, 0, 69, 80
2, 29040, Note_on_c, 0, 77, 80
2, 29112, Note_on_c, 0, 77, 0
2, 29112, Note_on_c, 0, 69, 0
2, 29280, Note_on_c, 0, 69, 80
2, 29280, Note_on_c, 0, 77, 80
2, 29400, Note_on_c, 0, 77, 0
2, 29400, Note_on_c, 0, 69, 0
2, 29520, Note_on_c, 0, 69, 80
2, 29520, Note_on_c, 0, 77, 80
2, 29688, Note_on_c, 0, 77, 0
2, 29688, Note_on_c, 0, 69, 0
2, 29760, Note_on_c, 0, 69, 80
2, 29760, Note_on_c, 0, 77, 80
2, 29880, Note_on_c, 0, 77, 0
2, 29880, Note_on_c, 0, 79, 80
2, 29940, Note_on_c, 0, 79, 0
2, 29940, Note_on_c, 0, 81, 80
2, 30000, Note_on_c, 0, 81, 0
2, 30000, Note_on_c, 0, 69, 0
2, 30000, Note_on_c, 0, 69, 80
2, 30000, Note_on_c, 0, 77, 80
2, 30072, Note_on_c, 0, 77, 0
2, 30072, Note_on_c, 0, 69, 0
2, 30240, Note_on_c, 0, 69, 80
2, 30240, Note_on_c, 0, 77, 80
2, 30360, Note_on_c, 0, 77, 0
2, 30360, Note_on_c, 0, 69, 0
2, 30480, Note_on_c, 0, 69, 80
2, 30480, Note_on_c, 0, 77, 80
2, 30720, Note_on_c, 0, 77, 0
2, 30720, Note_on_c, 0, 69, 0
2, 30720, Note_on_c, 0, 69, 80
2, 30720, Note_on_c, 0, 77, 80
2, 30810, Note_on_c, 0, 77, 0
2, 30810, Note_on_c, 0, 69, 0
2, 30900, Note_on_c, 0, 77, 80
2, 30960, Note_on_c, 0, 77, 0
2, 30960, Note_on_c, 0, 67, 80
2, 31050, Note_on_c, 0, 67, 0
2, 31140, Note_on_c, 0, 70, 80
2, 31140, Note_on_c, 0, 74, 80
2, 31170, Note_on_c, 0, 74, 0
2, 31170, Note_on_c, 0, 70, 0
2, 31185, Note_on_c, 0, 74, 80
2, 31185, Note_on_c, 0, 70, 80
2, 31200, Note_on_c, 0, 69, 80
2, 31200, Note_on_c, 0, 72, 80
2, 31215, Note_on_c, 0, 70, 0
2, 31215, Note_on_c, 0, 74, 0
2, 31290, Note_on_c, 0, 69, 0
2, 31290, Note_on_c, 0, 72, 0
2, 31380, Note_on_c, 0, 67, 80
2, 31380, Note_on_c, 0, 70, 80
2, 31410, Note_on_c, 0, 70, 0
2, 31410, Note_on_c, 0, 67, 0
2, 31425, Note_on_c, 0, 67, 80
2, 31425, Note_on_c, 0, 70, 80
2, 31440, Note_on_c, 0, 65, 80
2, 31440, Note_on_c, 0, 69, 80
2, 31455, Note_on_c, 0, 70, 0
2, 31455, Note_on_c, 0, 67, 0
2, 31620, Note_on_c, 0, 65, 0
2, 31620, Note_on_c, 0, 69, 0
2, 31620, Note_on_c, 0, 64, 80
2, 31620, Note_on_c, 0, 67, 80
2, 31680, Note_on_c, 0, 67, 0
2, 31680, Note_on_c, 0, 64, 0
2, 31680, Note_on_c, 0, 65, 48
2, 31800, Note_on_c, 0, 65, 0
2, 31920, Note_on_c, 0, 77, 48
2, 31920, Note_on_c, 0, 69, 48
2, 31992, Note_on_c, 0, 69, 0
2, 31992, Note_on_c, 0, 77, 0
2, 32160, Note_on_c, 0, 77, 48
2, 32160, Note_on_c, 0, 69, 48
2, 32232, Note_on_c, 0, 69, 0
2, 32232, Note_on_c, 0, 77, 0
2, 32400, Note_on_c, 0, 77, 48
2, 32400, Note_on_c, 0, 69, 48
2, 32640, Note_on_c, 0, 69, 0
2, 32640, Note_on_c, 0, 77, 0
2, 32640, Note_on_c, 0, 77, 48
2, 32640, Note_on_c, 0, 69, 48
2, 32760, Note_on_c, 0, 77, 0
2, 32760, Note_on_c, 0, 79, 48
2, 32820, Note_on_c, 0, 79, 0
2, 32820, Note_on_c, 0, 81, 48
2, 32880, Note_on_c, 0, 81, 0
2, 32880, Note_on_c, 0, 69, 0
2, 32880, Note_on_c, 0, 77, 48
2, 32880, Note_on_c, 0, 69, 48
2, 32952, Note_on_c, 0, 69, 0
2, 32952, Note_on_c, 0, 77, 0
2, 33120, Note_on_c, 0, 77, 48
2, 33120, Note_on_c, 0, 69, 48
2, 33192, Note_on_c, 0, 69, 0
2, 33192, Note_on_c, 0, 77, 0
2, 33360, Note_on_c, 0, 77, 48
2, 33360, Note_on_c, 0, 69, 48
2, 33600, Note_on_c, 0, 69, 0
2, 33600, Note_on_c, 0, 77, 0
2, 33600, Note_on_c, 0, 77, 48
2, 33600, Note_on_c, 0, 69, 48
2, 33780, Note_on_c, 0, 69, 0
2, 33780, Note_on_c, 0, 77, 0
2, 33780, Note_on_c, 0, 77, 48
2, 33840, Note_on_c, 0, 77, 0
2, 33840, Note_on_c, 0, 67, 48
2, 33930, Note_on_c, 0, 67, 0
2, 34020, Note_on_c, 0, 74, 48
2, 34020, Note_on_c, 0, 70, 48
2, 34050, Note_on_c, 0, 70, 0
2, 34050, Note_on_c, 0, 74, 0
2, 34065, Note_on_c, 0, 70, 48
2, 34065, Note_on_c, 0, 74, 48
2, 34080, Note_on_c, 0, 72, 48
2, 34080, Note_on_c, 0, 69, 48
2, 34095, Note_on_c, 0, 74, 0
2, 34095, Note_on_c, 0, 70, 0
2, 34170, Note_on_c, 0, 72, 0
2, 34170, Note_on_c, 0, 69, 0
2, 34260, Note_on_c, 0, 70, 48
2, 34260, Note_on_c, 0, 67, 48
2, 34290, Note_on_c, 0, 67, 0
2, 34290, Note_on_c, 0, 70, 0
2, 34305, Note_on_c, 0, 70, 48
2, 34305, Note_on_c, 0, 67, 48
2, 34320, Note_on_c, 0, 69, 48
2, 34320, Note_on_c, 0, 65, 48
2, 34335, Note_on_c, 0, 67, 0
2, 34335, Note_on_c, 0, 70, 0
2, 34410, Note_on_c, 0, 69, 0
2, 34410, Note_on_c, 0, 65, 0
2, 34500, Note_on_c, 0, 67, 48
2, 34500, Note_on_c, 0, 64, 48
2, 34560, Note_on_c, 0, 64, 0
2, 34560, Note_on_c, 0, 67, 0
2, 34560, Note_on_c, 0, 65, 80
2, 34740, Note_on_c, 0, 65, 0
2, 34740, Note_on_c, 0, 77, 80
2, 34800, Note_on_c, 0, 77, 0
2, 34800, Note_on_c, 0, 67, 80
2, 34908, Note_on_c, 0, 67, 0
2, 34980, Note_on_c, 0, 70, 80
2, 34980, Note_on_c, 0, 74, 80
2, 35010, Note_on_c, 0, 74, 0
2, 35010, Note_on_c, 0, 70, 0
2, 35025, Note_on_c, 0, 74, 80
2, 35025, Note_on_c, 0, 70, 80
2, 35040, Note_on_c, 0, 69, 80
2, 35040, Note_on_c, 0, 72, 80
2, 35055, Note_on_c, 0, 70, 0
2, 35055, Note_on_c, 0, 74, 0
2, 35148, Note_on_c, 0, 69, 0
2, 35148, Note_on_c, 0, 72, 0
2, 35220, Note_on_c, 0, 67, 80
2, 35220, Note_on_c, 0, 70, 80
2, 35250, Note_on_c, 0, 70, 0
2, 35250, Note_on_c, 0, 67, 0
2, 35265, Note_on_c, 0, 67, 80
2, 35265, Note_on_c, 0, 70, 80
2, 35280, Note_on_c, 0, 65, 80
2, 35280, Note_on_c, 0, 69, 80
2, 35295, Note_on_c, 0, 70, 0
2, 35295, Note_on_c, 0, 67, 0
2, 35460, Note_on_c, 0, 65, 0
2, 35460, Note_on_c, 0, 69, 0
2, 35460, Note_on_c, 0, 64, 80
2, 35460, Note_on_c, 0, 67, 80
2, 35520, Note_on_c, 0, 67, 0
2, 35520, Note_on_c, 0, 64, 0
2, 35520, Note_on_c, 0, 65, 80
2, 35600, Note_on_c, 0, 65, 0
2, 35600, Note_on_c, 0, 60, 80
2, 35624, Note_on_c, 0, 60, 0
2, 35680, Note_on_c, 0, 58, 80
2, 35704, Note_on_c, 0, 58, 0
2, 35760, Note_on_c, 0, 57, 80
2, 35840, Note_on_c, 0, 57, 0
2, 35840, Note_on_c, 0, 58, 80
2, 35864, Note_on_c, 0, 58, 0
2, 35920, Note_on_c, 0, 60, 80
2, 35944, Note_on_c, 0, 60, 0
2, 36000, Note_on_c, 0, 53, 80
2, 36168, Note_on_c, 0, 53, 0
2, 36240, Note_on_c, 0, 65, 80
2, 36300, Note_on_c, 0, 65, 0
2, 36300, Note_on_c, 0, 67, 80
2, 36324, Note_on_c, 0, 67, 0
2, 36360, Note_on_c, 0, 69, 80
2, 36384, Note_on_c, 0, 69, 0
2, 36420, Note_on_c, 0, 70, 80
2, 36444, Note_on_c, 0, 70, 0
2, 36480, Note_on_c, 0, 72, 80
2, 36576, Note_on_c, 0, 72, 0
2, 36720, Note_on_c, 0, 72, 80
2, 37200, Note_on_c, 0, 72, 0
2, 37200, Note_on_c, 0, 77, 80
2, 37320, Note_on_c, 0, 77, 0
2, 37320, Note_on_c, 0, 74, 80
2, 37440, Note_on_c, 0, 74, 0
2, 37440, Note_on_c, 0, 72, 80
2, 37536, Note_on_c, 0, 72, 0
2, 37680, Note_on_c, 0, 72, 80
2, 38160, Note_on_c, 0, 72, 0
2, 38160, Note_on_c, 0, 77, 80
2, 38280, Note_on_c, 0, 77, 0
2, 38280, Note_on_c, 0, 74, 80
2, 38400, Note_on_c, 0, 74, 0
2, 38400, Note_on_c, 0, 72, 80
2, 38520, Note_on_c, 0, 72, 0
2, 38610, Note_on_c, 0, 70, 67
2, 38640, Note_on_c, 0, 70, 0
2, 38640, Note_on_c, 0, 69, 68
2, 38670, Note_on_c, 0, 69, 0
2, 38670, Note_on_c, 0, 70, 70
2, 38700, Note_on_c, 0, 70, 0
2, 38700, Note_on_c, 0, 69, 72
2, 38730, Note_on_c, 0, 69, 0
2, 38730, Note_on_c, 0, 70, 73
2, 38760, Note_on_c, 0, 70, 0
2, 38760, Note_on_c, 0, 69, 75
2, 38780, Note_on_c, 0, 69, 0
2, 38780, Note_on_c, 0, 70, 76
2, 38800, Note_on_c, 0, 70, 0
2, 38800, Note_on_c, 0, 69, 77
2, 38820, Note_on_c, 0, 69, 0
2, 38820, Note_on_c, 0, 67, 78
2, 38850, Note_on_c, 0, 67, 0
2, 38850, Note_on_c, 0, 69, 79
2, 38880, Note_on_c, 0, 69, 0
2, 38880, Note_on_c, 0, 70, 80
2, 39000, Note_on_c, 0, 70, 0
2, 39090, Note_on_c, 0, 69, 67
2, 39120, Note_on_c, 0, 69, 0
2, 39120, Note_on_c, 0, 67, 69
2, 39150, Note_on_c, 0, 67, 0
2, 39150, Note_on_c, 0, 69, 70
2, 39180, Note_on_c, 0, 69, 0
2, 39180, Note_on_c, 0, 67, 72
2, 39210, Note_on_c, 0, 67, 0
2, 39210, Note_on_c, 0, 69, 73
2, 39240, Note_on_c, 0, 69, 0
2, 39240, Note_on_c, 0, 67, 74
2, 39260, Note_on_c, 0, 67, 0
2, 39260, Note_on_c, 0, 69, 75
2, 39280, Note_on_c, 0, 69, 0
2, 39280, Note_on_c, 0, 67, 76
2, 39300, Note_on_c, 0, 67, 0
2, 39300, Note_on_c, 0, 65, 77
2, 39330, Note_on_c, 0, 65, 0
2, 39330, Note_on_c, 0, 67, 79
2, 39360, Note_on_c, 0, 67, 0
2, 39360, Note_on_c, 0, 69, 80
2, 39440, Note_on_c, 0, 69, 0
2, 39440, Note_on_c, 0, 67, 80
2, 39480, Note_on_c, 0, 67, 0
2, 39520, Note_on_c, 0, 65, 80
2, 39560, Note_on_c, 0, 65, 0
2, 39600, Note_on_c, 0, 72, 80
2, 40080, Note_on_c, 0, 72, 0
2, 40080, Note_on_c, 0, 77, 80
2, 40200, Note_on_c, 0, 77, 0
2, 40200, Note_on_c, 0, 74, 80
2, 40320, Note_on_c, 0, 74, 0
2, 40320, Note_on_c, 0, 72, 80
2, 40440, Note_on_c, 0, 72, 0
2, 40530, Note_on_c, 0, 70, 67
2, 40560, Note_on_c, 0, 70, 0
2, 40560, Note_on_c, 0, 69, 69
2, 40590, Note_on_c, 0, 69, 0
2, 40590, Note_on_c, 0, 70, 70
2, 40620, Note_on_c, 0, 70, 0
2, 40620, Note_on_c, 0, 69, 72
2, 40650, Note_on_c, 0, 69, 0
2, 40650, Note_on_c, 0, 70, 73
2, 40680, Note_on_c, 0, 70, 0
2, 40680, Note_on_c, 0, 69, 74
2, 40700, Note_on_c, 0, 69, 0
2, 40700, Note_on_c, 0, 70, 75
2, 40720, Note_on_c, 0, 70, 0
2, 40720, Note_on_c, 0, 69, 76
2, 40740, Note_on_c, 0, 69, 0
2, 40740, Note_on_c, 0, 67, 77
2, 40770, Note_on_c, 0, 67, 0
2, 40770, Note_on_c, 0, 69, 79
2, 40800, Note_on_c, 0, 69, 0
2, 40800, Note_on_c, 0, 70, 80
2, 40920, Note_on_c, 0, 70, 0
2, 41010, Note_on_c, 0, 69, 68
2, 41040, Note_on_c, 0, 69, 0
2, 41040, Note_on_c, 0, 67, 69
2, 41070, Note_on_c, 0, 67, 0
2, 41070, Note_on_c, 0, 69, 71
2, 41100, Note_on_c, 0, 69, 0
2, 41100, Note_on_c, 0, 67, 72
2, 41130, Note_on_c, 0, 67, 0
2, 41130, Note_on_c, 0, 69, 73
2, 41160, Note_on_c, 0, 69, 0
2, 41160, Note_on_c, 0, 67, 75
2, 41180, Note_on_c, 0, 67, 0
2, 41180, Note_on_c, 0, 69, 76
2, 41200, Note_on_c, 0, 69, 0
2, 41200, Note_on_c, 0, 67, 77
2, 41220, Note_on_c, 0, 67, 0
2, 41220, Note_on_c, 0, 65, 77
2, 41250, Note_on_c, 0, 65, 0
2, 41250, Note_on_c, 0, 67, 79
2, 41280, Note_on_c, 0, 67, 0
2, 41280, Note_on_c, 0, 69, 80
2, 41360, Note_on_c, 0, 69, 0
2, 41360, Note_on_c, 0, 67, 80
2, 41392, Note_on_c, 0, 67, 0
2, 41440, Note_on_c, 0, 65, 80
2, 41472, Note_on_c, 0, 65, 0
2, 41520, Note_on_c, 0, 65, 80
2, 41760, Note_on_c, 0, 65, 0
2, 42000, Note_on_c, 0, 65, 80
2, 42060, Note_on_c, 0, 65, 0
2, 42060, Note_on_c, 0, 67, 80
2, 42120, Note_on_c, 0, 67, 0
2, 42120, Note_on_c, 0, 69, 80
2, 42180, Note_on_c, 0, 69, 0
2, 42180, Note_on_c, 0, 70, 80
2, 42240, Note_on_c, 0, 70, 0
2, 42240, Note_on_c, 0, 72, 80
2, 42360, Note_on_c, 0, 72, 0
2, 42480, Note_on_c, 0, 72, 80
2, 42960, Note_on_c, 0, 72, 0
2, 42960, Note_on_c, 0, 69, 80
2, 43040, Note_on_c, 0, 69, 0
2, 43040, Note_on_c, 0, 70, 80
2, 43120, Note_on_c, 0, 70, 0
2, 43120, Note_on_c, 0, 72, 80
2, 43200, Note_on_c, 0, 72, 0
2, 43200, Note_on_c, 0, 67, 80
2, 43440, Note_on_c, 0, 67, 0
2, 43440, Note_on_c, 0, 66, 80
2, 43920, Note_on_c, 0, 66, 0
2, 43920, Note_on_c, 0, 75, 80
2, 44160, Note_on_c, 0, 75, 0
2, 44160, Note_on_c, 0, 74, 80
2, 44280, Note_on_c, 0, 74, 0
2, 44400, Note_on_c, 0, 75, 80
2, 44460, Note_on_c, 0, 75, 0
2, 44460, Note_on_c, 0, 74, 80
2, 44490, Note_on_c, 0, 74, 0
2, 44520, Note_on_c, 0, 72, 80
2, 44550, Note_on_c, 0, 72, 0
2, 44580, Note_on_c, 0, 70, 80
2, 44610, Note_on_c, 0, 70, 0
2, 44640, Note_on_c, 0, 72, 80
2, 44760, Note_on_c, 0, 72, 0
2, 44880, Note_on_c, 0, 74, 80
2, 44940, Note_on_c, 0, 74, 0
2, 44940, Note_on_c, 0, 72, 80
2, 45000, Note_on_c, 0, 72, 0
2, 45000, Note_on_c, 0, 70, 80
2, 45060, Note_on_c, 0, 70, 0
2, 45060, Note_on_c, 0, 69, 80
2, 45120, Note_on_c, 0, 69, 0
2, 45120, Note_on_c, 0, 70, 80
2, 45240, Note_on_c, 0, 70, 0
2, 45240, Note_on_c, 0, 67, 80
2, 45300, Note_on_c, 0, 67, 0
2, 45360, Note_on_c, 0, 62, 80
2, 45420, Note_on_c, 0, 62, 0
2, 45480, Note_on_c, 0, 58, 80
2, 45540, Note_on_c, 0, 58, 0
2, 45600, Note_on_c, 0, 55, 80
2, 45720, Note_on_c, 0, 55, 0
2, 45720, Note_on_c, 0, 58, 80
2, 45840, Note_on_c, 0, 58, 0
2, 45840, Note_on_c, 0, 62, 80
2, 45960, Note_on_c, 0, 62, 0
2, 45960, Note_on_c, 0, 67, 80
2, 46080, Note_on_c, 0, 67, 0
2, 46080, Note_on_c, 0, 70, 80
2, 46200, Note_on_c, 0, 70, 0
2, 46200, Note_on_c, 0, 74, 80
2, 46320, Note_on_c, 0, 74, 0
2, 46320, Note_on_c, 0, 79, 80
2, 46380, Note_on_c, 0, 79, 0
2, 46440, Note_on_c, 0, 81, 80
2, 46500, Note_on_c, 0, 81, 0
2, 46560, Note_on_c, 0, 82, 80
2, 46680, Note_on_c, 0, 82, 0
2, 46680, Note_on_c, 0, 79, 80
2, 46800, Note_on_c, 0, 79, 0
2, 46800, Note_on_c, 0, 75, 80
2, 46920, Note_on_c, 0, 75, 0
2, 46920, Note_on_c, 0, 74, 80
2, 47040, Note_on_c, 0, 74, 0
2, 47040, Note_on_c, 0, 74, 80
2, 47520, Note_on_c, 0, 74, 0
2, 47520, Note_on_c, 0, 73, 67
2, 47550, Note_on_c, 0, 73, 0
2, 47550, Note_on_c, 0, 74, 68
2, 47580, Note_on_c, 0, 74, 0
2, 47580, Note_on_c, 0, 73, 68
2, 47610, Note_on_c, 0, 73, 0
2, 47610, Note_on_c, 0, 74, 69
2, 47640, Note_on_c, 0, 74, 0
2, 47640, Note_on_c, 0, 73, 70
2, 47670, Note_on_c, 0, 73, 0
2, 47670, Note_on_c, 0, 74, 71
2, 47700, Note_on_c, 0, 74, 0
2, 47700, Note_on_c, 0, 73, 72
2, 47730, Note_on_c, 0, 73, 0
2, 47730, Note_on_c, 0, 74, 73
2, 47760, Note_on_c, 0, 74, 0
2, 47760, Note_on_c, 0, 73, 73
2, 47790, Note_on_c, 0, 73, 0
2, 47790, Note_on_c, 0, 74, 74
2, 47820, Note_on_c, 0, 74, 0
2, 47820, Note_on_c, 0, 73, 75
2, 47850, Note_on_c, 0, 73, 0
2, 47850, Note_on_c, 0, 74, 76
2, 47880, Note_on_c, 0, 74, 0
2, 47880, Note_on_c, 0, 73, 77
2, 47900, Note_on_c, 0, 73, 0
2, 47900, Note_on_c, 0, 74, 77
2, 47920, Note_on_c, 0, 74, 0
2, 47920, Note_on_c, 0, 73, 78
2, 47940, Note_on_c, 0, 73, 0
2, 47940, Note_on_c, 0, 71, 78
2, 47970, Note_on_c, 0, 71, 0
2, 47970, Note_on_c, 0, 73, 79
2, 48000, Note_on_c, 0, 73, 0
2, 48000, Note_on_c, 0, 74, 80
2, 48120, Note_on_c, 0, 74, 0
2, 48120, Note_on_c, 0, 75, 80
2, 48180, Note_on_c, 0, 75, 0
2, 48240, Note_on_c, 0, 77, 80
2, 48300, Note_on_c, 0, 77, 0
2, 48360, Note_on_c, 0, 79, 80
2, 48420, Note_on_c, 0, 79, 0
2, 48480, Note_on_c, 0, 80, 80
2, 48600, Note_on_c, 0, 80, 0
2, 48600, Note_on_c, 0, 77, 80
2, 48720, Note_on_c, 0, 77, 0
2, 48720, Note_on_c, 0, 74, 80
2, 48840, Note_on_c, 0, 74, 0
2, 48840, Note_on_c, 0, 72, 80
2, 48960, Note_on_c, 0, 72, 0
2, 48960, Note_on_c, 0, 72, 80
2, 49440, Note_on_c, 0, 72, 0
2, 49440, Note_on_c, 0, 71, 67
2, 49470, Note_on_c, 0, 71, 0
2, 49470, Note_on_c, 0, 72, 68
2, 49500, Note_on_c, 0, 72, 0
2, 49500, Note_on_c, 0, 71, 69
2, 49530, Note_on_c, 0, 71, 0
2, 49530, Note_on_c, 0, 72, 69
2, 49560, Note_on_c, 0, 72, 0
2, 49560, Note_on_c, 0, 71, 70
2, 49590, Note_on_c, 0, 71, 0
2, 49590, Note_on_c, 0, 72, 71
2, 49620, Note_on_c, 0, 72, 0
2, 49620, Note_on_c, 0, 71, 72
2, 49650, Note_on_c, 0, 71, 0
2, 49650, Note_on_c, 0, 72, 73
2, 49680, Note_on_c, 0, 72, 0
2, 49680, Note_on_c, 0, 71, 74
2, 49710, Note_on_c, 0, 71, 0
2, 49710, Note_on_c, 0, 72, 74
2, 49740, Note_on_c, 0, 72, 0
2, 49740, Note_on_c, 0, 71, 75
2, 49770, Note_on_c, 0, 71, 0
2, 49770, Note_on_c, 0, 72, 76
2, 49800, Note_on_c, 0, 72, 0
2, 49800, Note_on_c, 0, 71, 77
2, 49820, Note_on_c, 0, 71, 0
2, 49820, Note_on_c, 0, 72, 77
2, 49840, Note_on_c, 0, 72, 0
2, 49840, Note_on_c, 0, 71, 78
2, 49860, Note_on_c, 0, 71, 0
2, 49860, Note_on_c, 0, 69, 78
2, 49890, Note_on_c, 0, 69, 0
2, 49890, Note_on_c, 0, 71, 79
2, 49920, Note_on_c, 0, 71, 0
2, 49920, Note_on_c, 0, 72, 64
2, 49960, Note_on_c, 0, 72, 0
2, 49960, Note_on_c, 0, 74, 65
2, 50000, Note_on_c, 0, 74, 0
2, 50000, Note_on_c, 0, 72, 65
2, 50040, Note_on_c, 0, 72, 0
2, 50040, Note_on_c, 0, 74, 66
2, 50080, Note_on_c, 0, 74, 0
2, 50080, Note_on_c, 0, 72, 67
2, 50120, Note_on_c, 0, 72, 0
2, 50120, Note_on_c, 0, 74, 67
2, 50160, Note_on_c, 0, 74, 0
2, 50160, Note_on_c, 0, 72, 68
2, 50200, Note_on_c, 0, 72, 0
2, 50200, Note_on_c, 0, 74, 69
2, 50240, Note_on_c, 0, 74, 0
2, 50240, Note_on_c, 0, 72, 69
2, 50280, Note_on_c, 0, 72, 0
2, 50280, Note_on_c, 0, 74, 70
2, 50320, Note_on_c, 0, 74, 0
2, 50320, Note_on_c, 0, 72, 71
2, 50360, Note_on_c, 0, 72, 0
2, 50360, Note_on_c, 0, 74, 71
2, 50400, Note_on_c, 0, 74, 0
2, 50400, Note_on_c, 0, 73, 72
2, 50440, Note_on_c, 0, 73, 0
2, 50440, Note_on_c, 0, 74, 73
2, 50480, Note_on_c, 0, 74, 0
2, 50480, Note_on_c, 0, 73, 73
2, 50520, Note_on_c, 0, 73, 0
2, 50520, Note_on_c, 0, 74, 74
2, 50560, Note_on_c, 0, 74, 0
2, 50560, Note_on_c, 0, 73, 75
2, 50600, Note_on_c, 0, 73, 0
2, 50600, Note_on_c, 0, 74, 75
2, 50640, Note_on_c, 0, 74, 0
2, 50640, Note_on_c, 0, 73, 76
2, 50680, Note_on_c, 0, 73, 0
2, 50680, Note_on_c, 0, 74, 77
2, 50720, Note_on_c, 0, 74, 0
2, 50720, Note_on_c, 0, 73, 77
2, 50760, Note_on_c, 0, 73, 0
2, 50760, Note_on_c, 0, 74, 78
2, 50800, Note_on_c, 0, 74, 0
2, 50800, Note_on_c, 0, 73, 79
2, 50840, Note_on_c, 0, 73, 0
2, 50840, Note_on_c, 0, 74, 79
2, 50880, Note_on_c, 0, 74, 0
2, 50880, Note_on_c, 0, 74, 80
2, 50920, Note_on_c, 0, 74, 0
2, 50920, Note_on_c, 0, 76, 79
2, 50960, Note_on_c, 0, 76, 0
2, 50960, Note_on_c, 0, 74, 79
2, 51000, Note_on_c, 0, 74, 0
2, 51000, Note_on_c, 0, 76, 78
2, 51040, Note_on_c, 0, 76, 0
2, 51040, Note_on_c, 0, 74, 77
2, 51080, Note_on_c, 0, 74, 0
2, 51080, Note_on_c, 0, 76, 77
2, 51120, Note_on_c, 0, 76, 0
2, 51120, Note_on_c, 0, 74, 76
2, 51160, Note_on_c, 0, 74, 0
2, 51160, Note_on_c, 0, 76, 75
2, 51200, Note_on_c, 0, 76, 0
2, 51200, Note_on_c, 0, 74, 75
2, 51240, Note_on_c, 0, 74, 0
2, 51240, Note_on_c, 0, 76, 74
2, 51270, Note_on_c, 0, 76, 0
2, 51270, Note_on_c, 0, 74, 73
2, 51300, Note_on_c, 0, 74, 0
2, 51300, Note_on_c, 0, 76, 73
2, 51330, Note_on_c, 0, 76, 0
2, 51330, Note_on_c, 0, 74, 72
2, 51360, Note_on_c, 0, 74, 0
2, 51360, Note_on_c, 0, 76, 72
2, 51400, Note_on_c, 0, 76, 0
2, 51400, Note_on_c, 0, 77, 71
2, 51440, Note_on_c, 0, 77, 0
2, 51440, Note_on_c, 0, 76, 71
2, 51480, Note_on_c, 0, 76, 0
2, 51480, Note_on_c, 0, 77, 70
2, 51520, Note_on_c, 0, 77, 0
2, 51520, Note_on_c, 0, 76, 69
2, 51560, Note_on_c, 0, 76, 0
2, 51560, Note_on_c, 0, 77, 69
2, 51600, Note_on_c, 0, 77, 0
2, 51600, Note_on_c, 0, 76, 68
2, 51640, Note_on_c, 0, 76, 0
2, 51640, Note_on_c, 0, 77, 67
2, 51680, Note_on_c, 0, 77, 0
2, 51680, Note_on_c, 0, 76, 67
2, 51720, Note_on_c, 0, 76, 0
2, 51720, Note_on_c, 0, 77, 66
2, 51750, Note_on_c, 0, 77, 0
2, 51750, Note_on_c, 0, 76, 65
2, 51780, Note_on_c, 0, 76, 0
2, 51780, Note_on_c, 0, 77, 65
2, 51810, Note_on_c, 0, 77, 0
2, 51810, Note_on_c, 0, 76, 64
2, 51840, Note_on_c, 0, 76, 0
2, 51840, Note_on_c, 0, 77, 64
2, 51880, Note_on_c, 0, 77, 0
2, 51880, Note_on_c, 0, 79, 65
2, 51920, Note_on_c, 0, 79, 0
2, 51920, Note_on_c, 0, 77, 67
2, 51960, Note_on_c, 0, 77, 0
2, 51960, Note_on_c, 0, 79, 68
2, 52000, Note_on_c, 0, 79, 0
2, 52000, Note_on_c, 0, 77, 69
2, 52040, Note_on_c, 0, 77, 0
2, 52040, Note_on_c, 0, 79, 71
2, 52080, Note_on_c, 0, 79, 0
2, 52080, Note_on_c, 0, 77, 72
2, 52120, Note_on_c, 0, 77, 0
2, 52120, Note_on_c, 0, 79, 73
2, 52160, Note_on_c, 0, 79, 0
2, 52160, Note_on_c, 0, 77, 75
2, 52200, Note_on_c, 0, 77, 0
2, 52200, Note_on_c, 0, 76, 76
2, 52260, Note_on_c, 0, 76, 0
2, 52260, Note_on_c, 0, 77, 78
2, 52320, Note_on_c, 0, 77, 0
2, 52320, Note_on_c, 0, 79, 80
2, 52440, Note_on_c, 0, 79, 0
2, 52440, Note_on_c, 0, 77, 84
2, 52500, Note_on_c, 0, 77, 0
2, 52560, Note_on_c, 0, 76, 88
2, 52620, Note_on_c, 0, 76, 0
2, 52680, Note_on_c, 0, 74, 92
2, 52740, Note_on_c, 0, 74, 0
2, 52800, Note_on_c, 0, 74, 96
2, 53040, Note_on_c, 0, 74, 0
2, 53040, Note_on_c, 0, 73, 80
2, 53160, Note_on_c, 0, 73, 0
2, 53280, Note_on_c, 0, 81, 80
2, 53400, Note_on_c, 0, 81, 0
2, 53400, Note_on_c, 0, 79, 80
2, 53460, Note_on_c, 0, 79, 0
2, 53460, Note_on_c, 0, 81, 80
2, 53520, Note_on_c, 0, 81, 0
2, 53520, Note_on_c, 0, 82, 80
2, 53640, Note_on_c, 0, 82, 0
2, 53640, Note_on_c, 0, 81, 80
2, 53760, Note_on_c, 0, 81, 0
2, 53760, Note_on_c, 0, 81, 80
2, 53880, Note_on_c, 0, 81, 0
2, 53880, Note_on_c, 0, 80, 80
2, 53928, Note_on_c, 0, 80, 0
2, 54000, Note_on_c, 0, 80, 80
2, 54048, Note_on_c, 0, 80, 0
2, 54120, Note_on_c, 0, 79, 80
2, 54168, Note_on_c, 0, 79, 0
2, 54240, Note_on_c, 0, 79, 80
2, 54360, Note_on_c, 0, 79, 0
2, 54360, Note_on_c, 0, 78, 80
2, 54420, Note_on_c, 0, 78, 0
2, 54420, Note_on_c, 0, 79, 80
2, 54480, Note_on_c, 0, 79, 0
2, 54480, Note_on_c, 0, 81, 80
2, 54600, Note_on_c, 0, 81, 0
2, 54600, Note_on_c, 0, 79, 80
2, 54720, Note_on_c, 0, 79, 0
2, 54720, Note_on_c, 0, 79, 80
2, 54840, Note_on_c, 0, 79, 0
2, 54840, Note_on_c, 0, 78, 80
2, 54888, Note_on_c, 0, 78, 0
2, 54960, Note_on_c, 0, 78, 80
2, 55008, Note_on_c, 0, 78, 0
2, 55080, Note_on_c, 0, 77, 80
2, 55128, Note_on_c, 0, 77, 0
2, 55200, Note_on_c, 0, 79, 80
2, 55260, Note_on_c, 0, 79, 0
2, 55260, Note_on_c, 0, 77, 80
2, 55320, Note_on_c, 0, 77, 0
2, 55320, Note_on_c, 0, 76, 80
2, 55380, Note_on_c, 0, 76, 0
2, 55380, Note_on_c, 0, 77, 80
2, 55440, Note_on_c, 0, 77, 0
2, 55440, Note_on_c, 0, 79, 80
2, 55560, Note_on_c, 0, 79, 0
2, 55560, Note_on_c, 0, 77, 80
2, 55620, Note_on_c, 0, 77, 0
2, 55680, Note_on_c, 0, 77, 80
2, 55800, Note_on_c, 0, 77, 0
2, 55800, Note_on_c, 0, 76, 80
2, 55920, Note_on_c, 0, 76, 0
2, 55920, Note_on_c, 0, 74, 80
2, 56400, Note_on_c, 0, 74, 0
2, 56400, Note_on_c, 0, 76, 80
2, 56460, Note_on_c, 0, 76, 0
2, 56460, Note_on_c, 0, 73, 80
2, 56640, Note_on_c, 0, 73, 0
2, 56640, Note_on_c, 0, 74, 80
2, 56700, Note_on_c, 0, 74, 0
2, 56880, Note_on_c, 0, 77, 67
2, 56910, Note_on_c, 0, 77, 0
2, 56910, Note_on_c, 0, 79, 69
2, 56940, Note_on_c, 0, 79, 0
2, 56940, Note_on_c, 0, 77, 70
2, 56970, Note_on_c, 0, 77, 0
2, 56970, Note_on_c, 0, 79, 72
2, 57000, Note_on_c, 0, 79, 0
2, 57000, Note_on_c, 0, 77, 74
2, 57020, Note_on_c, 0, 77, 0
2, 57020, Note_on_c, 0, 79, 75
2, 57040, Note_on_c, 0, 79, 0
2, 57040, Note_on_c, 0, 77, 76
2, 57060, Note_on_c, 0, 77, 0
2, 57060, Note_on_c, 0, 76, 77
2, 57090, Note_on_c, 0, 76, 0
2, 57090, Note_on_c, 0, 77, 79
2, 57120, Note_on_c, 0, 77, 0
2, 57120, Note_on_c, 0, 79, 80
2, 57240, Note_on_c, 0, 79, 0
2, 57360, Note_on_c, 0, 76, 67
2, 57390, Note_on_c, 0, 76, 0
2, 57390, Note_on_c, 0, 77, 69
2, 57420, Note_on_c, 0, 77, 0
2, 57420, Note_on_c, 0, 76, 70
2, 57450, Note_on_c, 0, 76, 0
2, 57450, Note_on_c, 0, 77, 72
2, 57480, Note_on_c, 0, 77, 0
2, 57480, Note_on_c, 0, 76, 74
2, 57500, Note_on_c, 0, 76, 0
2, 57500, Note_on_c, 0, 77, 75
2, 57520, Note_on_c, 0, 77, 0
2, 57520, Note_on_c, 0, 76, 76
2, 57540, Note_on_c, 0, 76, 0
2, 57540, Note_on_c, 0, 74, 77
2, 57570, Note_on_c, 0, 74, 0
2, 57570, Note_on_c, 0, 76, 79
2, 57600, Note_on_c, 0, 76, 0
2, 57600, Note_on_c, 0, 81, 80
2, 57720, Note_on_c, 0, 81, 0
2, 57840, Note_on_c, 0, 77, 69
2, 57870, Note_on_c, 0, 77, 0
2, 57870, Note_on_c, 0, 79, 71
2, 57900, Note_on_c, 0, 79, 0
2, 57900, Note_on_c, 0, 77, 72
2, 57930, Note_on_c, 0, 77, 0
2, 57930, Note_on_c, 0, 79, 74
2, 57960, Note_on_c, 0, 79, 0
2, 57960, Note_on_c, 0, 77, 76
2, 57980, Note_on_c, 0, 77, 0
2, 57980, Note_on_c, 0, 79, 77
2, 58000, Note_on_c, 0, 79, 0
2, 58000, Note_on_c, 0, 77, 78
2, 58020, Note_on_c, 0, 77, 0
2, 58020, Note_on_c, 0, 76, 79
2, 58050, Note_on_c, 0, 76, 0
2, 58050, Note_on_c, 0, 77, 80
2, 58080, Note_on_c, 0, 77, 0
2, 58080, Note_on_c, 0, 79, 80
2, 58200, Note_on_c, 0, 79, 0
2, 58320, Note_on_c, 0, 76, 67
2, 58350, Note_on_c, 0, 76, 0
2, 58350, Note_on_c, 0, 77, 69
2, 58380, Note_on_c, 0, 77, 0
2, 58380, Note_on_c, 0, 76, 70
2, 58410, Note_on_c, 0, 76, 0
2, 58410, Note_on_c, 0, 77, 72
2, 58440, Note_on_c, 0, 77, 0
2, 58440, Note_on_c, 0, 76, 74
2, 58460, Note_on_c, 0, 76, 0
2, 58460, Note_on_c, 0, 77, 75
2, 58480, Note_on_c, 0, 77, 0
2, 58480, Note_on_c, 0, 76, 76
2, 58500, Note_on_c, 0, 76, 0
2, 58500, Note_on_c, 0, 74, 77
2, 58530, Note_on_c, 0, 74, 0
2, 58530, Note_on_c, 0, 76, 79
2, 58560, Note_on_c, 0, 76, 0
2, 58560, Note_on_c, 0, 74, 80
2, 59040, Note_on_c, 0, 74, 0
2, 59280, Note_on_c, 0, 77, 80
2, 59340, Note_on_c, 0, 77, 0
2, 59340, Note_on_c, 0, 72, 80
2, 59520, Note_on_c, 0, 72, 0
2, 59520, Note_on_c, 0, 72, 80
2, 59640, Note_on_c, 0, 72, 0
2, 59640, Note_on_c, 0, 71, 80
2, 59760, Note_on_c, 0, 71, 0
2, 59760, Note_on_c, 0, 71, 80
2, 60240, Note_on_c, 0, 71, 0
2, 60240, Note_on_c, 0, 77, 48
2, 60300, Note_on_c, 0, 77, 0
2, 60300, Note_on_c, 0, 72, 48
2, 60480, Note_on_c, 0, 72, 0
2, 60480, Note_on_c, 0, 72, 48
2, 60600, Note_on_c, 0, 72, 0
2, 60600, Note_on_c, 0, 71, 48
2, 60720, Note_on_c, 0, 71, 0
2, 60720, Note_on_c, 0, 71, 48
2, 61200, Note_on_c, 0, 71, 0
2, 61200, Note_on_c, 0, 80, 80
2, 61440, Note_on_c, 0, 80, 0
2, 61440, Note_on_c, 0, 79, 80
2, 61560, Note_on_c, 0, 79, 0
2, 61680, Note_on_c, 0, 80, 80
2, 61740, Note_on_c, 0, 80, 0
2, 61740, Note_on_c, 0, 79, 80
2, 61764, Note_on_c, 0, 79, 0
2, 61800, Note_on_c, 0, 77, 80
2, 61824, Note_on_c, 0, 77, 0
2, 61860, Note_on_c, 0, 75, 80
2, 61884, Note_on_c, 0, 75, 0
2, 61920, Note_on_c, 0, 77, 80
2, 62040, Note_on_c, 0, 77, 0
2, 62160, Note_on_c, 0, 79, 80
2, 62220, Note_on_c, 0, 79, 0
2, 62220, Note_on_c, 0, 77, 80
2, 62280, Note_on_c, 0, 77, 0
2, 62280, Note_on_c, 0, 75, 80
2, 62340, Note_on_c, 0, 75, 0
2, 62340, Note_on_c, 0, 74, 80
2, 62400, Note_on_c, 0, 74, 0
2, 62400, Note_on_c, 0, 75, 80
2, 62520, Note_on_c, 0, 75, 0
2, 62520, Note_on_c, 0, 72, 84
2, 62580, Note_on_c, 0, 72, 0
2, 62640, Note_on_c, 0, 67, 88
2, 62700, Note_on_c, 0, 67, 0
2, 62760, Note_on_c, 0, 63, 92
2, 62820, Note_on_c, 0, 63, 0
2, 62880, Note_on_c, 0, 60, 96
2, 63000, Note_on_c, 0, 60, 0
2, 63120, Note_on_c, 0, 75, 80
2, 63180, Note_on_c, 0, 75, 0
2, 63180, Note_on_c, 0, 70, 80
2, 63360, Note_on_c, 0, 70, 0
2, 63360, Note_on_c, 0, 70, 80
2, 63480, Note_on_c, 0, 70, 0
2, 63480, Note_on_c, 0, 69, 80
2, 63528, Note_on_c, 0, 69, 0
2, 63600, Note_on_c, 0, 69, 80
2, 64080, Note_on_c, 0, 69, 0
2, 64080, Note_on_c, 0, 75, 48
2, 64140, Note_on_c, 0, 75, 0
2, 64140, Note_on_c, 0, 70, 48
2, 64320, Note_on_c, 0, 70, 0
2, 64320, Note_on_c, 0, 70, 48
2, 64440, Note_on_c, 0, 70, 0
2, 64440, Note_on_c, 0, 69, 48
2, 64512, Note_on_c, 0, 69, 0
2, 64560, Note_on_c, 0, 69, 48
2, 65040, Note_on_c, 0, 69, 0
2, 65040, Note_on_c, 0, 79, 80
2, 65280, Note_on_c, 0, 79, 0
2, 65280, Note_on_c, 0, 77, 80
2, 65400, Note_on_c, 0, 77, 0
2, 65520, Note_on_c, 0, 79, 80
2, 65580, Note_on_c, 0, 79, 0
2, 65580, Note_on_c, 0, 77, 80
2, 65640, Note_on_c, 0, 77, 0
2, 65640, Note_on_c, 0, 75, 80
2, 65700, Note_on_c, 0, 75, 0
2, 65700, Note_on_c, 0, 74, 80
2, 65760, Note_on_c, 0, 74, 0
2, 65760, Note_on_c, 0, 75, 80
2, 65880, Note_on_c, 0, 75, 0
2, 66000, Note_on_c, 0, 77, 80
2, 66060, Note_on_c, 0, 77, 0
2, 66060, Note_on_c, 0, 75, 80
2, 66084, Note_on_c, 0, 75, 0
2, 66120, Note_on_c, 0, 74, 80
2, 66144, Note_on_c, 0, 74, 0
2, 66180, Note_on_c, 0, 72, 80
2, 66204, Note_on_c, 0, 72, 0
2, 66240, Note_on_c, 0, 74, 80
2, 66360, Note_on_c, 0, 74, 0
2, 66360, Note_on_c, 0, 70, 84
2, 66420, Note_on_c, 0, 70, 0
2, 66480, Note_on_c, 0, 65, 88
2, 66540, Note_on_c, 0, 65, 0
2, 66600, Note_on_c, 0, 62, 92
2, 66660, Note_on_c, 0, 62, 0
2, 66720, Note_on_c, 0, 58, 96
2, 66840, Note_on_c, 0, 58, 0
2, 66840, Note_on_c, 0, 77, 80
2, 66960, Note_on_c, 0, 77, 0
2, 66960, Note_on_c, 0, 70, 80
2, 67080, Note_on_c, 0, 70, 0
2, 67080, Note_on_c, 0, 77, 80
2, 67200, Note_on_c, 0, 77, 0
2, 67200, Note_on_c, 0, 79, 80
2, 67380, Note_on_c, 0, 79, 0
2, 67380, Note_on_c, 0, 82, 80
2, 67440, Note_on_c, 0, 82, 0
2, 67440, Note_on_c, 0, 82, 80
2, 67470, Note_on_c, 0, 82, 0
2, 67470, Note_on_c, 0, 84, 80
2, 67500, Note_on_c, 0, 84, 0
2, 67500, Note_on_c, 0, 82, 80
2, 67530, Note_on_c, 0, 82, 0
2, 67530, Note_on_c, 0, 84, 80
2, 67560, Note_on_c, 0, 84, 0
2, 67560, Note_on_c, 0, 82, 80
2, 67580, Note_on_c, 0, 82, 0
2, 67580, Note_on_c, 0, 84, 80
2, 67600, Note_on_c, 0, 84, 0
2, 67600, Note_on_c, 0, 82, 80
2, 67620, Note_on_c, 0, 82, 0
2, 67620, Note_on_c, 0, 81, 80
2, 67650, Note_on_c, 0, 81, 0
2, 67650, Note_on_c, 0, 82, 80
2, 67680, Note_on_c, 0, 82, 0
2, 67680, Note_on_c, 0, 84, 80
2, 67800, Note_on_c, 0, 84, 0
2, 67800, Note_on_c, 0, 72, 80
2, 67848, Note_on_c, 0, 72, 0
2, 67920, Note_on_c, 0, 75, 80
2, 67968, Note_on_c, 0, 75, 0
2, 68040, Note_on_c, 0, 79, 80
2, 68088, Note_on_c, 0, 79, 0
2, 68160, Note_on_c, 0, 77, 80
2, 68340, Note_on_c, 0, 77, 0
2, 68340, Note_on_c, 0, 81, 80
2, 68400, Note_on_c, 0, 81, 0
2, 68400, Note_on_c, 0, 81, 80
2, 68430, Note_on_c, 0, 81, 0
2, 68430, Note_on_c, 0, 82, 80
2, 68460, Note_on_c, 0, 82, 0
2, 68460, Note_on_c, 0, 81, 80
2, 68490, Note_on_c, 0, 81, 0
2, 68490, Note_on_c, 0, 82, 80
2, 68520, Note_on_c, 0, 82, 0
2, 68520, Note_on_c, 0, 81, 80
2, 68540, Note_on_c, 0, 81, 0
2, 68540, Note_on_c, 0, 82, 80
2, 68560, Note_on_c, 0, 82, 0
2, 68560, Note_on_c, 0, 81, 80
2, 68580, Note_on_c, 0, 81, 0
2, 68580, Note_on_c, 0, 79, 80
2, 68610, Note_on_c, 0, 79, 0
2, 68610, Note_on_c, 0, 81, 80
2, 68640, Note_on_c, 0, 81, 0
2, 68640, Note_on_c, 0, 82, 80
2, 68760, Note_on_c, 0, 82, 0
2, 68760, Note_on_c, 0, 70, 80
2, 68880, Note_on_c, 0, 70, 0
2, 68880, Note_on_c, 0, 74, 80
2, 69000, Note_on_c, 0, 74, 0
2, 69000, Note_on_c, 0, 77, 80
2, 69120, Note_on_c, 0, 77, 0
2, 69120, Note_on_c, 0, 75, 80
2, 69180, Note_on_c, 0, 75, 0
2, 69180, Note_on_c, 0, 74, 80
2, 69240, Note_on_c, 0, 74, 0
2, 69240, Note_on_c, 0, 72, 80
2, 69300, Note_on_c, 0, 72, 0
2, 69300, Note_on_c, 0, 74, 80
2, 69360, Note_on_c, 0, 74, 0
2, 69360, Note_on_c, 0, 75, 80
2, 69600, Note_on_c, 0, 75, 0
2, 69600, Note_on_c, 0, 75, 80
2, 69660, Note_on_c, 0, 75, 0
2, 69660, Note_on_c, 0, 81, 80
2, 69684, Note_on_c, 0, 81, 0
2, 69720, Note_on_c, 0, 84, 80
2, 69744, Note_on_c, 0, 84, 0
2, 69780, Note_on_c, 0, 82, 80
2, 69804, Note_on_c, 0, 82, 0
2, 69840, Note_on_c, 0, 81, 80
2, 69900, Note_on_c, 0, 81, 0
2, 69900, Note_on_c, 0, 79, 80
2, 69960, Note_on_c, 0, 79, 0
2, 69960, Note_on_c, 0, 77, 80
2, 70020, Note_on_c, 0, 77, 0
2, 70020, Note_on_c, 0, 75, 80
2, 70080, Note_on_c, 0, 75, 0
2, 70080, Note_on_c, 0, 74, 80
2, 70140, Note_on_c, 0, 74, 0
2, 70140, Note_on_c, 0, 72, 80
2, 70164, Note_on_c, 0, 72, 0
2, 70200, Note_on_c, 0, 70, 80
2, 70224, Note_on_c, 0, 70, 0
2, 70260, Note_on_c, 0, 69, 80
2, 70284, Note_on_c, 0, 69, 0
2, 70320, Note_on_c, 0, 70, 80
2, 70380, Note_on_c, 0, 70, 0
2, 70380, Note_on_c, 0, 72, 80
2, 70440, Note_on_c, 0, 72, 0
2, 70440, Note_on_c, 0, 74, 80
2, 70500, Note_on_c, 0, 74, 0
2, 70500, Note_on_c, 0, 75, 80
2, 70560, Note_on_c, 0, 75, 0
2, 70560, Note_on_c, 0, 77, 80
2, 70680, Note_on_c, 0, 77, 0
2, 70800, Note_on_c, 0, 79, 80
2, 70860, Note_on_c, 0, 79, 0
2, 70860, Note_on_c, 0, 77, 80
2, 70884, Note_on_c, 0, 77, 0
2, 70920, Note_on_c, 0, 75, 80
2, 70944, Note_on_c, 0, 75, 0
2, 70980, Note_on_c, 0, 74, 80
2, 71004, Note_on_c, 0, 74, 0
2, 71040, Note_on_c, 0, 74, 80
2, 71100, Note_on_c, 0, 74, 0
2, 71100, Note_on_c, 0, 72, 80
2, 71280, Note_on_c, 0, 72, 0
2, 71280, Note_on_c, 0, 73, 80
2, 71640, Note_on_c, 0, 73, 0
2, 71640, Note_on_c, 0, 72, 80
2, 71700, Note_on_c, 0, 72, 0
2, 71700, Note_on_c, 0, 73, 80
2, 71760, Note_on_c, 0, 73, 0
2, 71760, Note_on_c, 0, 75, 80
2, 71880, Note_on_c, 0, 75, 0
2, 71880, Note_on_c, 0, 73, 80
2, 72000, Note_on_c, 0, 73, 0
2, 72000, Note_on_c, 0, 73, 80
2, 72060, Note_on_c, 0, 73, 0
2, 72060, Note_on_c, 0, 72, 80
2, 72240, Note_on_c, 0, 72, 0
2, 72240, Note_on_c, 0, 72, 80
2, 72720, Note_on_c, 0, 72, 0
2, 72720, Note_on_c, 0, 77, 48
2, 72780, Note_on_c, 0, 77, 0
2, 72780, Note_on_c, 0, 74, 48
2, 72960, Note_on_c, 0, 74, 0
2, 72960, Note_on_c, 0, 74, 48
2, 73020, Note_on_c, 0, 74, 0
2, 73020, Note_on_c, 0, 72, 48
2, 73200, Note_on_c, 0, 72, 0
2, 73200, Note_on_c, 0, 73, 48
2, 73560, Note_on_c, 0, 73, 0
2, 73560, Note_on_c, 0, 72, 48
2, 73620, Note_on_c, 0, 72, 0
2, 73620, Note_on_c, 0, 73, 48
2, 73680, Note_on_c, 0, 73, 0
2, 73680, Note_on_c, 0, 75, 48
2, 73800, Note_on_c, 0, 75, 0
2, 73800, Note_on_c, 0, 73, 48
2, 73920, Note_on_c, 0, 73, 0
2, 73920, Note_on_c, 0, 73, 48
2, 73980, Note_on_c, 0, 73, 0
2, 73980, Note_on_c, 0, 72, 48
2, 74160, Note_on_c, 0, 72, 0
2, 74160, Note_on_c, 0, 72, 48
2, 74400, Note_on_c, 0, 72, 0
2, 74400, Note_on_c, 0, 77, 80
2, 74430, Note_on_c, 0, 77, 0
2, 74430, Note_on_c, 0, 79, 80
2, 74460, Note_on_c, 0, 79, 0
2, 74460, Note_on_c, 0, 77, 80
2, 74480, Note_on_c, 0, 77, 0
2, 74480, Note_on_c, 0, 79, 80
2, 74500, Note_on_c, 0, 79, 0
2, 74500, Note_on_c, 0, 77, 80
2, 74520, Note_on_c, 0, 77, 0
2, 74520, Note_on_c, 0, 76, 80
2, 74580, Note_on_c, 0, 76, 0
2, 74580, Note_on_c, 0, 77, 80
2, 74640, Note_on_c, 0, 77, 0
2, 74640, Note_on_c, 0, 79, 80
2, 74760, Note_on_c, 0, 79, 0
2, 74760, Note_on_c, 0, 77, 80
2, 74880, Note_on_c, 0, 77, 0
2, 74880, Note_on_c, 0, 77, 80
2, 75120, Note_on_c, 0, 77, 0
2, 75120, Note_on_c, 0, 76, 80
2, 75360, Note_on_c, 0, 76, 0
2, 75360, Note_on_c, 0, 75, 80
2, 75390, Note_on_c, 0, 75, 0
2, 75390, Note_on_c, 0, 77, 80
2, 75420, Note_on_c, 0, 77, 0
2, 75420, Note_on_c, 0, 75, 80
2, 75440, Note_on_c, 0, 75, 0
2, 75440, Note_on_c, 0, 77, 80
2, 75460, Note_on_c, 0, 77, 0
2, 75460, Note_on_c, 0, 75, 80
2, 75480, Note_on_c, 0, 75, 0
2, 75480, Note_on_c, 0, 74, 80
2, 75540, Note_on_c, 0, 74, 0
2, 75540, Note_on_c, 0, 75, 80
2, 75600, Note_on_c, 0, 75, 0
2, 75600, Note_on_c, 0, 77, 80
2, 75720, Note_on_c, 0, 77, 0
2, 75720, Note_on_c, 0, 75, 80
2, 75840, Note_on_c, 0, 75, 0
2, 75840, Note_on_c, 0, 75, 80
2, 76080, Note_on_c, 0, 75, 0
2, 76080, Note_on_c, 0, 74, 80
2, 76260, Note_on_c, 0, 74, 0
2, 76260, Note_on_c, 0, 75, 80
2, 76320, Note_on_c, 0, 75, 0
2, 76320, Note_on_c, 0, 74, 80
2, 76350, Note_on_c, 0, 74, 0
2, 76350, Note_on_c, 0, 75, 80
2, 76380, Note_on_c, 0, 75, 0
2, 76380, Note_on_c, 0, 74, 80
2, 76400, Note_on_c, 0, 74, 0
2, 76400, Note_on_c, 0, 75, 80
2, 76420, Note_on_c, 0, 75, 0
2, 76420, Note_on_c, 0, 74, 80
2, 76440, Note_on_c, 0, 74, 0
2, 76440, Note_on_c, 0, 72, 80
2, 76500, Note_on_c, 0, 72, 0
2, 76500, Note_on_c, 0, 74, 80
2, 76560, Note_on_c, 0, 74, 0
2, 76560, Note_on_c, 0, 75, 80
2, 76680, Note_on_c, 0, 75, 0
2, 76680, Note_on_c, 0, 74, 80
2, 76800, Note_on_c, 0, 74, 0
2, 76800, Note_on_c, 0, 74, 80
2, 76920, Note_on_c, 0, 74, 0
2, 76920, Note_on_c, 0, 72, 80
2, 77040, Note_on_c, 0, 72, 0
2, 77040, Note_on_c, 0, 70, 80
2, 77520, Note_on_c, 0, 70, 0
2, 77520, Note_on_c, 0, 72, 80
2, 77580, Note_on_c, 0, 72, 0
2, 77580, Note_on_c, 0, 69, 80
2, 77760, Note_on_c, 0, 69, 0
2, 77760, Note_on_c, 0, 69, 80
2, 78000, Note_on_c, 0, 69, 0
2, 78000, Note_on_c, 0, 70, 80
2, 78120, Note_on_c, 0, 70, 0
2, 78240, Note_on_c, 0, 79, 80
2, 78300, Note_on_c, 0, 79, 0
2, 78300, Note_on_c, 0, 77, 80
2, 78324, Note_on_c, 0, 77, 0
2, 78360, Note_on_c, 0, 76, 80
2, 78384, Note_on_c, 0, 76, 0
2, 78420, Note_on_c, 0, 77, 80
2, 78444, Note_on_c, 0, 77, 0
2, 78480, Note_on_c, 0, 79, 80
2, 78600, Note_on_c, 0, 79, 0
2, 78600, Note_on_c, 0, 77, 80
2, 78720, Note_on_c, 0, 77, 0
2, 78720, Note_on_c, 0, 77, 80
2, 78840, Note_on_c, 0, 77, 0
2, 78840, Note_on_c, 0, 76, 80
2, 78888, Note_on_c, 0, 76, 0
2, 78960, Note_on_c, 0, 76, 80
2, 79008, Note_on_c, 0, 76, 0
2, 79080, Note_on_c, 0, 76, 80
2, 79128, Note_on_c, 0, 76, 0
2, 79200, Note_on_c, 0, 77, 80
2, 79260, Note_on_c, 0, 77, 0
2, 79260, Note_on_c, 0, 75, 80
2, 79284, Note_on_c, 0, 75, 0
2, 79320, Note_on_c, 0, 74, 80
2, 79344, Note_on_c, 0, 74, 0
2, 79380, Note_on_c, 0, 75, 80
2, 79404, Note_on_c, 0, 75, 0
2, 79440, Note_on_c, 0, 77, 80
2, 79560, Note_on_c, 0, 77, 0
2, 79560, Note_on_c, 0, 75, 80
2, 79680, Note_on_c, 0, 75, 0
2, 79680, Note_on_c, 0, 75, 80
2, 79800, Note_on_c, 0, 75, 0
2, 79800, Note_on_c, 0, 74, 80
2, 79848, Note_on_c, 0, 74, 0
2, 79920, Note_on_c, 0, 74, 80
2, 79968, Note_on_c, 0, 74, 0
2, 80040, Note_on_c, 0, 74, 80
2, 80088, Note_on_c, 0, 74, 0
2, 80160, Note_on_c, 0, 74, 80
2, 80190, Note_on_c, 0, 74, 0
2, 80190, Note_on_c, 0, 75, 80
2, 80220, Note_on_c, 0, 75, 0
2, 80220, Note_on_c, 0, 74, 80
2, 80240, Note_on_c, 0, 74, 0
2, 80240, Note_on_c, 0, 75, 80
2, 80260, Note_on_c, 0, 75, 0
2, 80260, Note_on_c, 0, 74, 80
2, 80280, Note_on_c, 0, 74, 0
2, 80280, Note_on_c, 0, 72, 80
2, 80340, Note_on_c, 0, 72, 0
2, 80340, Note_on_c, 0, 74, 80
2, 80400, Note_on_c, 0, 74, 0
2, 80400, Note_on_c, 0, 75, 80
2, 80520, Note_on_c, 0, 75, 0
2, 80520, Note_on_c, 0, 74, 80
2, 80640, Note_on_c, 0, 74, 0
2, 80640, Note_on_c, 0, 74, 80
2, 80760, Note_on_c, 0, 74, 0
2, 80760, Note_on_c, 0, 72, 80
2, 80880, Note_on_c, 0, 72, 0
2, 80880, Note_on_c, 0, 70, 80
2, 81360, Note_on_c, 0, 70, 0
2, 81360, Note_on_c, 0, 72, 80
2, 81420, Note_on_c, 0, 72, 0
2, 81420, Note_on_c, 0, 69, 80
2, 81600, Note_on_c, 0, 69, 0
2, 81600, Note_on_c, 0, 70, 80
2, 81660, Note_on_c, 0, 70, 0
2, 81840, Note_on_c, 0, 74, 80
2, 81840, Note_on_c, 0, 82, 80
2, 81924, Note_on_c, 0, 82, 0
2, 81924, Note_on_c, 0, 74, 0
2, 82080, Note_on_c, 0, 74, 80
2, 82080, Note_on_c, 0, 82, 80
2, 82164, Note_on_c, 0, 82, 0
2, 82164, Note_on_c, 0, 74, 0
2, 82320, Note_on_c, 0, 74, 80
2, 82320, Note_on_c, 0, 82, 80
2, 82560, Note_on_c, 0, 82, 0
2, 82560, Note_on_c, 0, 74, 0
2, 82560, Note_on_c, 0, 74, 80
2, 82560, Note_on_c, 0, 82, 80
2, 82680, Note_on_c, 0, 82, 0
2, 82680, Note_on_c, 0, 84, 80
2, 82740, Note_on_c, 0, 84, 0
2, 82740, Note_on_c, 0, 86, 80
2, 82800, Note_on_c, 0, 86, 0
2, 82800, Note_on_c, 0, 74, 0
2, 82800, Note_on_c, 0, 74, 80
2, 82800, Note_on_c, 0, 82, 80
2, 82884, Note_on_c, 0, 82, 0
2, 82884, Note_on_c, 0, 74, 0
2, 83040, Note_on_c, 0, 74, 80
2, 83040, Note_on_c, 0, 82, 80
2, 83124, Note_on_c, 0, 82, 0
2, 83124, Note_on_c, 0, 74, 0
2, 83280, Note_on_c, 0, 74, 80
2, 83280, Note_on_c, 0, 82, 80
2, 83520, Note_on_c, 0, 82, 0
2, 83520, Note_on_c, 0, 74, 0
2, 83520, Note_on_c, 0, 74, 80
2, 83520, Note_on_c, 0, 82, 80
2, 83700, Note_on_c, 0, 82, 0
2, 83700, Note_on_c, 0, 74, 0
2, 83700, Note_on_c, 0, 82, 80
2, 83760, Note_on_c, 0, 82, 0
2, 83760, Note_on_c, 0, 72, 80
2, 83850, Note_on_c, 0, 72, 0
2, 83940, Note_on_c, 0, 75, 80
2, 83940, Note_on_c, 0, 79, 80
2, 83970, Note_on_c, 0, 79, 0
2, 83970, Note_on_c, 0, 75, 0
2, 83985, Note_on_c, 0, 79, 80
2, 83985, Note_on_c, 0, 75, 80
2, 84000, Note_on_c, 0, 74, 80
2, 84000, Note_on_c, 0, 77, 80
2, 84015, Note_on_c, 0, 75, 0
2, 84015, Note_on_c, 0, 79, 0
2, 84090, Note_on_c, 0, 74, 0
2, 84090, Note_on_c, 0, 77, 0
2, 84180, Note_on_c, 0, 72, 80
2, 84180, Note_on_c, 0, 75, 80
2, 84210, Note_on_c, 0, 75, 0
2, 84210, Note_on_c, 0, 72, 0
2, 84225, Note_on_c, 0, 72, 80
2, 84225, Note_on_c, 0, 75, 80
2, 84240, Note_on_c, 0, 70, 80
2, 84240, Note_on_c, 0, 74, 80
2, 84255, Note_on_c, 0, 75, 0
2, 84255, Note_on_c, 0, 72, 0
2, 84420, Note_on_c, 0, 70, 0
2, 84420, Note_on_c, 0, 74, 0
2, 84420, Note_on_c, 0, 69, 80
2, 84420, Note_on_c, 0, 72, 80
2, 84480, Note_on_c, 0, 72, 0
2, 84480, Note_on_c, 0, 69, 0
2, 84480, Note_on_c, 0, 70, 80
2, 84600, Note_on_c, 0, 70, 0
2, 84720, Note_on_c, 0, 82, 48
2, 84720, Note_on_c, 0, 74, 48
2, 84780, Note_on_c, 0, 74, 0
2, 84780, Note_on_c, 0, 82, 0
2, 84960, Note_on_c, 0, 82, 48
2, 84960, Note_on_c, 0, 74, 48
2, 85020, Note_on_c, 0, 74, 0
2, 85020, Note_on_c, 0, 82, 0
2, 85200, Note_on_c, 0, 82, 48
2, 85200, Note_on_c, 0, 74, 48
2, 85440, Note_on_c, 0, 74, 0
2, 85440, Note_on_c, 0, 82, 0
2, 85440, Note_on_c, 0, 82, 48
2, 85440, Note_on_c, 0, 74, 48
2, 85560, Note_on_c, 0, 82, 0
2, 85560, Note_on_c, 0, 84, 48
2, 85620, Note_on_c, 0, 84, 0
2, 85620, Note_on_c, 0, 86, 48
2, 85680, Note_on_c, 0, 86, 0
2, 85680, Note_on_c, 0, 74, 0
2, 85680, Note_on_c, 0, 82, 48
2, 85680, Note_on_c, 0, 74, 48
2, 85740, Note_on_c, 0, 74, 0
2, 85740, Note_on_c, 0, 82, 0
2, 85920, Note_on_c, 0, 82, 48
2, 85920, Note_on_c, 0, 74, 48
2, 85980, Note_on_c, 0, 74, 0
2, 85980, Note_on_c, 0, 82, 0
2, 86160, Note_on_c, 0, 82, 48
2, 86160, Note_on_c, 0, 74, 48
2, 86400, Note_on_c, 0, 74, 0
2, 86400, Note_on_c, 0, 82, 0
2, 86400, Note_on_c, 0, 82, 48
2, 86400, Note_on_c, 0, 74, 48
2, 86580, Note_on_c, 0, 74, 0
2, 86580, Note_on_c, 0, 82, 0
2, 86580, Note_on_c, 0, 82, 54
2, 86640, Note_on_c, 0, 82, 0
2, 86640, Note_on_c, 0, 72, 56
2, 86712, Note_on_c, 0, 72, 0
2, 86820, Note_on_c, 0, 79, 62
2, 86820, Note_on_c, 0, 75, 62
2, 86850, Note_on_c, 0, 75, 0
2, 86850, Note_on_c, 0, 79, 0
2, 86865, Note_on_c, 0, 75, 64
2, 86865, Note_on_c, 0, 79, 64
2, 86880, Note_on_c, 0, 77, 64
2, 86880, Note_on_c, 0, 74, 64
2, 86895, Note_on_c, 0, 79, 0
2, 86895, Note_on_c, 0, 75, 0
2, 86970, Note_on_c, 0, 77, 0
2, 86970, Note_on_c, 0, 74, 0
2, 87060, Note_on_c, 0, 75, 70
2, 87060, Note_on_c, 0, 72, 70
2, 87090, Note_on_c, 0, 72, 0
2, 87090, Note_on_c, 0, 75, 0
2, 87105, Note_on_c, 0, 75, 72
2, 87105, Note_on_c, 0, 72, 72
2, 87120, Note_on_c, 0, 74, 72
2, 87120, Note_on_c, 0, 70, 72
2, 87135, Note_on_c, 0, 72, 0
2, 87135, Note_on_c, 0, 75, 0
2, 87300, Note_on_c, 0, 74, 0
2, 87300, Note_on_c, 0, 70, 0
2, 87300, Note_on_c, 0, 72, 78
2, 87300, Note_on_c, 0, 69, 78
2, 87360, Note_on_c, 0, 69, 0
2, 87360, Note_on_c, 0, 72, 0
2, 87360, Note_on_c, 0, 70, 80
2, 87540, Note_on_c, 0, 70, 0
2, 87540, Note_on_c, 0, 82, 80
2, 87600, Note_on_c, 0, 82, 0
2, 87600, Note_on_c, 0, 72, 80
2, 87690, Note_on_c, 0, 72, 0
2, 87780, Note_on_c, 0, 79, 80
2, 87780, Note_on_c, 0, 75, 80
2, 87810, Note_on_c, 0, 75, 0
2, 87810, Note_on_c, 0, 79, 0
2, 87825, Note_on_c, 0, 75, 80
2, 87825, Note_on_c, 0, 79, 80
2, 87840, Note_on_c, 0, 77, 80
2, 87840, Note_on_c, 0, 74, 80
2, 87855, Note_on_c, 0, 79, 0
2, 87855, Note_on_c, 0, 75, 0
2, 87948, Note_on_c, 0, 77, 0
2, 87948, Note_on_c, 0, 74, 0
2, 88020, Note_on_c, 0, 75, 80
2, 88020, Note_on_c, 0, 72, 80
2, 88050, Note_on_c, 0, 72, 0
2, 88050, Note_on_c, 0, 75, 0
2, 88065, Note_on_c, 0, 75, 80
2, 88065, Note_on_c, 0, 72, 80
2, 88080, Note_on_c, 0, 74, 80
2, 88080, Note_on_c, 0, 70, 80
2, 88095, Note_on_c, 0, 72, 0
2, 88095, Note_on_c, 0, 75, 0
2, 88260, Note_on_c, 0, 74, 0
2, 88260, Note_on_c, 0, 70, 0
2, 88260, Note_on_c, 0, 72, 80
2, 88260, Note_on_c, 0, 69, 80
2, 88320, Note_on_c, 0, 69, 0
2, 88320, Note_on_c, 0, 72, 0
2, 88320, Note_on_c, 0, 70, 80
2, 88400, Note_on_c, 0, 70, 0
2, 88400, Note_on_c, 0, 65, 82
2, 88432, Note_on_c, 0, 65, 0
2, 88480, Note_on_c, 0, 63, 85
2, 88512, Note_on_c, 0, 63, 0
2, 88560, Note_on_c, 0, 62, 87
2, 88640, Note_on_c, 0, 62, 0
2, 88640, Note_on_c, 0, 63, 89
2, 88720, Note_on_c, 0, 63, 0
2, 88720, Note_on_c, 0, 65, 92
2, 88800, Note_on_c, 0, 65, 0
2, 88800, Note_on_c, 0, 58, 94
2, 89040, Note_on_c, 0, 58, 0
2, 89040, End_track
3, 0, Start_track
3, 0, MIDI_port, 0
3, 0, Title_t, "by FJ Haydn  (1st mvmt - Allegro)"
3, 0, Program_c, 1, 0
3, 0, Control_c, 1, 7, 127
3, 0, Control_c, 1, 10, 56
3, 960, Note_on_c, 1, 58, 56
3, 1080, Note_on_c, 1, 58, 0
3, 1080, Note_on_c, 1, 62, 56
3, 1116, Note_on_c, 1, 62, 0
3, 1200, Note_on_c, 1, 58, 56
3, 1236, Note_on_c, 1, 58, 0
3, 1320, Note_on_c, 1, 62, 56
3, 1356, Note_on_c, 1, 62, 0
3, 1440, Note_on_c, 1, 58, 56
3, 1560, Note_on_c, 1, 58, 0
3, 1560, Note_on_c, 1, 62, 56
3, 1680, Note_on_c, 1, 62, 0
3, 1680, Note_on_c, 1, 58, 56
3, 1800, Note_on_c, 1, 58, 0
3, 1800, Note_on_c, 1, 63, 56
3, 1920, Note_on_c, 1, 63, 0
3, 1920, Note_on_c, 1, 58, 56
3, 2040, Note_on_c, 1, 58, 0
3, 2040, Note_on_c, 1, 62, 56
3, 2076, Note_on_c, 1, 62, 0
3, 2160, Note_on_c, 1, 58, 56
3, 2196, Note_on_c, 1, 58, 0
3, 2280, Note_on_c, 1, 62, 56
3, 2316, Note_on_c, 1, 62, 0
3, 2400, Note_on_c, 1, 58, 56
3, 2520, Note_on_c, 1, 58, 0
3, 2520, Note_on_c, 1, 62, 56
3, 2640, Note_on_c, 1, 62, 0
3, 2640, Note_on_c, 1, 58, 56
3, 2760, Note_on_c, 1, 58, 0
3, 2760, Note_on_c, 1, 63, 56
3, 2880, Note_on_c, 1, 63, 0
3, 2880, Note_on_c, 1, 58, 56
3, 3000, Note_on_c, 1, 58, 0
3, 3000, Note_on_c, 1, 62, 56
3, 3036, Note_on_c, 1, 62, 0
3, 3120, Note_on_c, 1, 55, 56
3, 3156, Note_on_c, 1, 55, 0
3, 3240, Note_on_c, 1, 58, 56
3, 3276, Note_on_c, 1, 58, 0
3, 3360, Note_on_c, 1, 51, 56
3, 3480, Note_on_c, 1, 51, 0
3, 3480, Note_on_c, 1, 60, 56
3, 3600, Note_on_c, 1, 60, 0
3, 3600, Note_on_c, 1, 53, 56
3, 3720, Note_on_c, 1, 53, 0
3, 3720, Note_on_c, 1, 57, 56
3, 3840, Note_on_c, 1, 57, 0
3, 3840, Note_on_c, 1, 58, 56
3, 3960, Note_on_c, 1, 58, 0
3, 3960, Note_on_c, 1, 62, 56
3, 3996, Note_on_c, 1, 62, 0
3, 4080, Note_on_c, 1, 58, 56
3, 4116, Note_on_c, 1, 58, 0
3, 4200, Note_on_c, 1, 62, 56
3, 4236, Note_on_c, 1, 62, 0
3, 4320, Note_on_c, 1, 58, 56
3, 4440, Note_on_c, 1, 58, 0
3, 4440, Note_on_c, 1, 62, 56
3, 4560, Note_on_c, 1, 62, 0
3, 4560, Note_on_c, 1, 58, 56
3, 4680, Note_on_c, 1, 58, 0
3, 4680, Note_on_c, 1, 63, 56
3, 4800, Note_on_c, 1, 63, 0
3, 4800, Note_on_c, 1, 58, 56
3, 4920, Note_on_c, 1, 58, 0
3, 4920, Note_on_c, 1, 62, 56
3, 4956, Note_on_c, 1, 62, 0
3, 5040, Note_on_c, 1, 55, 56
3, 5076, Note_on_c, 1, 55, 0
3, 5160, Note_on_c, 1, 58, 56
3, 5196, Note_on_c, 1, 58, 0
3, 5280, Note_on_c, 1, 51, 56
3, 5400, Note_on_c, 1, 51, 0
3, 5400, Note_on_c, 1, 60, 56
3, 5520, Note_on_c, 1, 60, 0
3, 5520, Note_on_c, 1, 53, 56
3, 5640, Note_on_c, 1, 53, 0
3, 5640, Note_on_c, 1, 57, 56
3, 5760, Note_on_c, 1, 57, 0
3, 5760, Note_on_c, 1, 46, 72
3, 5760, Note_on_c, 1, 58, 72
3, 6240, Note_on_c, 1, 58, 0
3, 6240, Note_on_c, 1, 46, 0
3, 6480, Note_on_c, 1, 58, 49
3, 6480, Note_on_c, 1, 62, 49
3, 6552, Note_on_c, 1, 62, 0
3, 6552, Note_on_c, 1, 58, 0
3, 6720, Note_on_c, 1, 57, 53
3, 6720, Note_on_c, 1, 60, 53
3, 6792, Note_on_c, 1, 60, 0
3, 6792, Note_on_c, 1, 57, 0
3, 7200, Note_on_c, 1, 55, 60
3, 7200, Note_on_c, 1, 58, 60
3, 7320, Note_on_c, 1, 58, 0
3, 7320, Note_on_c, 1, 55, 0
3, 7680, Note_on_c, 1, 53, 67
3, 7680, Note_on_c, 1, 57, 67
3, 7848, Note_on_c, 1, 57, 0
3, 7848, Note_on_c, 1, 53, 0
3, 8160, Note_on_c, 1, 51, 73
3, 8160, Note_on_c, 1, 55, 73
3, 8400, Note_on_c, 1, 55, 0
3, 8400, Note_on_c, 1, 51, 0
3, 8640, Note_on_c, 1, 53, 80
3, 8640, Note_on_c, 1, 50, 80
3, 8712, Note_on_c, 1, 50, 0
3, 8712, Note_on_c, 1, 53, 0
3, 8880, Note_on_c, 1, 53, 80
3, 8880, Note_on_c, 1, 50, 80
3, 9120, Note_on_c, 1, 50, 0
3, 9120, Note_on_c, 1, 53, 0
3, 9120, Note_on_c, 1, 57, 80
3, 9120, Note_on_c, 1, 48, 80
3, 9192, Note_on_c, 1, 48, 0
3, 9192, Note_on_c, 1, 57, 0
3, 9360, Note_on_c, 1, 58, 80
3, 9360, Note_on_c, 1, 46, 80
3, 9432, Note_on_c, 1, 46, 0
3, 9432, Note_on_c, 1, 58, 0
3, 9600, Note_on_c, 1, 58, 80
3, 9600, Note_on_c, 1, 53, 80
3, 9840, Note_on_c, 1, 58, 0
3, 9840, Note_on_c, 1, 57, 80
3, 10080, Note_on_c, 1, 57, 0
3, 10080, Note_on_c, 1, 53, 0
3, 10080, Note_on_c, 1, 58, 80
3, 10320, Note_on_c, 1, 62, 80
3, 10560, Note_on_c, 1, 62, 0
3, 10560, Note_on_c, 1, 58, 0
3, 10560, Note_on_c, 1, 60, 80
3, 10560, Note_on_c, 1, 57, 80
3, 10800, Note_on_c, 1, 57, 0
3, 10800, Note_on_c, 1, 60, 0
3, 10800, Note_on_c, 1, 72, 80
3, 10800, Note_on_c, 1, 69, 80
3, 11040, Note_on_c, 1, 69, 0
3, 11040, Note_on_c, 1, 72, 0
3, 11040, Note_on_c, 1, 70, 80
3, 11040, Note_on_c, 1, 67, 80
3, 11280, Note_on_c, 1, 67, 0
3, 11280, Note_on_c, 1, 70, 0
3, 11280, Note_on_c, 1, 58, 80
3, 11280, Note_on_c, 1, 55, 80
3, 11520, Note_on_c, 1, 55, 0
3, 11520, Note_on_c, 1, 58, 0
3, 11520, Note_on_c, 1, 57, 80
3, 11520, Note_on_c, 1, 53, 80
3, 11760, Note_on_c, 1, 53, 0
3, 11760, Note_on_c, 1, 57, 0
3, 11760, Note_on_c, 1, 65, 80
3, 11760, Note_on_c, 1, 69, 80
3, 12000, Note_on_c, 1, 69, 0
3, 12000, Note_on_c, 1, 65, 0
3, 12000, Note_on_c, 1, 63, 80
3, 12000, Note_on_c, 1, 67, 80
3, 12240, Note_on_c, 1, 67, 0
3, 12240, Note_on_c, 1, 63, 0
3, 12240, Note_on_c, 1, 51, 80
3, 12240, Note_on_c, 1, 55, 80
3, 12480, Note_on_c, 1, 55, 0
3, 12480, Note_on_c, 1, 51, 0
3, 12480, Note_on_c, 1, 50, 80
3, 12480, Note_on_c, 1, 53, 80
3, 12720, Note_on_c, 1, 53, 0
3, 12720, Note_on_c, 1, 50, 0
3, 12720, Note_on_c, 1, 65, 80
3, 12720, Note_on_c, 1, 62, 80
3, 12960, Note_on_c, 1, 62, 0
3, 12960, Note_on_c, 1, 65, 0
3, 12960, Note_on_c, 1, 57, 80
3, 12960, Note_on_c, 1, 65, 80
3, 13200, Note_on_c, 1, 65, 0
3, 13200, Note_on_c, 1, 57, 0
3, 13200, Note_on_c, 1, 58, 80
3, 13200, Note_on_c, 1, 65, 80
3, 13440, Note_on_c, 1, 65, 0
3, 13440, Note_on_c, 1, 58, 0
3, 13560, Note_on_c, 1, 53, 82
3, 13680, Note_on_c, 1, 53, 0
3, 13680, Note_on_c, 1, 48, 84
3, 13728, Note_on_c, 1, 48, 0
3, 13800, Note_on_c, 1, 45, 86
3, 13848, Note_on_c, 1, 45, 0
3, 13920, Note_on_c, 1, 41, 88
3, 14160, Note_on_c, 1, 41, 0
3, 14400, Note_on_c, 1, 53, 56
3, 14520, Note_on_c, 1, 53, 0
3, 14520, Note_on_c, 1, 57, 56
3, 14556, Note_on_c, 1, 57, 0
3, 14640, Note_on_c, 1, 53, 56
3, 14676, Note_on_c, 1, 53, 0
3, 14760, Note_on_c, 1, 57, 56
3, 14796, Note_on_c, 1, 57, 0
3, 14880, Note_on_c, 1, 53, 56
3, 15000, Note_on_c, 1, 53, 0
3, 15000, Note_on_c, 1, 57, 56
3, 15120, Note_on_c, 1, 57, 0
3, 15120, Note_on_c, 1, 53, 56
3, 15240, Note_on_c, 1, 53, 0
3, 15240, Note_on_c, 1, 57, 56
3, 15360, Note_on_c, 1, 57, 0
3, 15360, Note_on_c, 1, 53, 56
3, 15480, Note_on_c, 1, 53, 0
3, 15480, Note_on_c, 1, 55, 56
3, 15516, Note_on_c, 1, 55, 0
3, 15600, Note_on_c, 1, 53, 56
3, 15636, Note_on_c, 1, 53, 0
3, 15720, Note_on_c, 1, 55, 56
3, 15756, Note_on_c, 1, 55, 0
3, 15840, Note_on_c, 1, 53, 56
3, 15960, Note_on_c, 1, 53, 0
3, 15960, Note_on_c, 1, 55, 56
3, 16080, Note_on_c, 1, 55, 0
3, 16080, Note_on_c, 1, 53, 56
3, 16200, Note_on_c, 1, 53, 0
3, 16200, Note_on_c, 1, 55, 56
3, 16320, Note_on_c, 1, 55, 0
3, 16320, Note_on_c, 1, 52, 56
3, 16440, Note_on_c, 1, 52, 0
3, 16440, Note_on_c, 1, 55, 56
3, 16476, Note_on_c, 1, 55, 0
3, 16560, Note_on_c, 1, 52, 56
3, 16596, Note_on_c, 1, 52, 0
3, 16680, Note_on_c, 1, 55, 56
3, 16716, Note_on_c, 1, 55, 0
3, 16800, Note_on_c, 1, 52, 56
3, 16920, Note_on_c, 1, 52, 0
3, 16920, Note_on_c, 1, 55, 56
3, 16980, Note_on_c, 1, 55, 0
3, 17040, Note_on_c, 1, 52, 56
3, 17100, Note_on_c, 1, 52, 0
3, 17160, Note_on_c, 1, 55, 56
3, 17220, Note_on_c, 1, 55, 0
3, 17280, Note_on_c, 1, 41, 56
3, 17400, Note_on_c, 1, 41, 0
3, 17400, Note_on_c, 1, 53, 56
3, 17460, Note_on_c, 1, 53, 0
3, 17520, Note_on_c, 1, 41, 56
3, 17580, Note_on_c, 1, 41, 0
3, 17640, Note_on_c, 1, 53, 56
3, 17700, Note_on_c, 1, 53, 0
3, 17760, Note_on_c, 1, 45, 56
3, 17880, Note_on_c, 1, 45, 0
3, 17880, Note_on_c, 1, 53, 56
3, 18000, Note_on_c, 1, 53, 0
3, 18000, Note_on_c, 1, 45, 56
3, 18120, Note_on_c, 1, 45, 0
3, 18120, Note_on_c, 1, 53, 56
3, 18240, Note_on_c, 1, 53, 0
3, 18240, Note_on_c, 1, 46, 56
3, 18360, Note_on_c, 1, 46, 0
3, 18360, Note_on_c, 1, 53, 56
3, 18480, Note_on_c, 1, 53, 0
3, 18480, Note_on_c, 1, 47, 56
3, 18600, Note_on_c, 1, 47, 0
3, 18600, Note_on_c, 1, 53, 56
3, 18720, Note_on_c, 1, 53, 0
3, 18720, Note_on_c, 1, 47, 56
3, 18840, Note_on_c, 1, 47, 0
3, 18840, Note_on_c, 1, 53, 56
3, 18960, Note_on_c, 1, 53, 0
3, 18960, Note_on_c, 1, 47, 56
3, 19080, Note_on_c, 1, 47, 0
3, 19080, Note_on_c, 1, 53, 56
3, 19200, Note_on_c, 1, 53, 0
3, 19200, Note_on_c, 1, 48, 56
3, 19320, Note_on_c, 1, 48, 0
3, 19320, Note_on_c, 1, 52, 56
3, 19440, Note_on_c, 1, 52, 0
3, 19440, Note_on_c, 1, 48, 56
3, 19560, Note_on_c, 1, 48, 0
3, 19560, Note_on_c, 1, 52, 56
3, 19680, Note_on_c, 1, 52, 0
3, 19680, Note_on_c, 1, 48, 56
3, 19800, Note_on_c, 1, 48, 0
3, 19800, Note_on_c, 1, 52, 56
3, 19920, Note_on_c, 1, 52, 0
3, 19920, Note_on_c, 1, 45, 48
3, 20040, Note_on_c, 1, 45, 0
3, 20040, Note_on_c, 1, 53, 48
3, 20160, Note_on_c, 1, 53, 0
3, 20160, Note_on_c, 1, 46, 48
3, 20280, Note_on_c, 1, 46, 0
3, 20280, Note_on_c, 1, 53, 48
3, 20328, Note_on_c, 1, 53, 0
3, 20400, Note_on_c, 1, 47, 48
3, 20448, Note_on_c, 1, 47, 0
3, 20520, Note_on_c, 1, 53, 48
3, 20568, Note_on_c, 1, 53, 0
3, 20640, Note_on_c, 1, 47, 48
3, 20688, Note_on_c, 1, 47, 0
3, 20760, Note_on_c, 1, 53, 48
3, 20808, Note_on_c, 1, 53, 0
3, 20880, Note_on_c, 1, 47, 48
3, 20928, Note_on_c, 1, 47, 0
3, 21000, Note_on_c, 1, 53, 48
3, 21048, Note_on_c, 1, 53, 0
3, 21120, Note_on_c, 1, 48, 48
3, 21240, Note_on_c, 1, 48, 0
3, 21240, Note_on_c, 1, 52, 48
3, 21360, Note_on_c, 1, 52, 0
3, 21360, Note_on_c, 1, 48, 48
3, 21480, Note_on_c, 1, 48, 0
3, 21480, Note_on_c, 1, 52, 48
3, 21600, Note_on_c, 1, 52, 0
3, 21600, Note_on_c, 1, 45, 56
3, 21720, Note_on_c, 1, 45, 0
3, 21720, Note_on_c, 1, 53, 56
3, 21840, Note_on_c, 1, 53, 0
3, 21840, Note_on_c, 1, 45, 56
3, 21960, Note_on_c, 1, 45, 0
3, 21960, Note_on_c, 1, 53, 56
3, 22080, Note_on_c, 1, 53, 0
3, 22080, Note_on_c, 1, 43, 56
3, 22200, Note_on_c, 1, 43, 0
3, 22200, Note_on_c, 1, 53, 56
3, 22320, Note_on_c, 1, 53, 0
3, 22320, Note_on_c, 1, 43, 56
3, 22440, Note_on_c, 1, 43, 0
3, 22440, Note_on_c, 1, 53, 56
3, 22560, Note_on_c, 1, 53, 0
3, 22560, Note_on_c, 1, 48, 56
3, 22680, Note_on_c, 1, 48, 0
3, 22680, Note_on_c, 1, 52, 56
3, 22800, Note_on_c, 1, 52, 0
3, 22800, Note_on_c, 1, 48, 56
3, 22920, Note_on_c, 1, 48, 0
3, 22920, Note_on_c, 1, 52, 56
3, 23040, Note_on_c, 1, 52, 0
3, 23040, Note_on_c, 1, 41, 56
3, 23160, Note_on_c, 1, 41, 0
3, 23160, Note_on_c, 1, 53, 56
3, 23280, Note_on_c, 1, 53, 0
3, 23280, Note_on_c, 1, 41, 56
3, 23400, Note_on_c, 1, 41, 0
3, 23400, Note_on_c, 1, 53, 56
3, 23520, Note_on_c, 1, 53, 0
3, 23520, Note_on_c, 1, 50, 56
3, 23640, Note_on_c, 1, 50, 0
3, 23640, Note_on_c, 1, 53, 56
3, 23760, Note_on_c, 1, 53, 0
3, 23760, Note_on_c, 1, 50, 56
3, 23880, Note_on_c, 1, 50, 0
3, 23880, Note_on_c, 1, 53, 56
3, 24000, Note_on_c, 1, 53, 0
3, 24000, Note_on_c, 1, 46, 80
3, 24000, Note_on_c, 1, 58, 80
3, 24240, Note_on_c, 1, 58, 0
3, 24240, Note_on_c, 1, 57, 80
3, 24480, Note_on_c, 1, 46, 0
3, 24480, Note_on_c, 1, 48, 80
3, 24720, Note_on_c, 1, 57, 0
3, 24720, Note_on_c, 1, 58, 80
3, 24780, Note_on_c, 1, 58, 0
3, 24780, Note_on_c, 1, 55, 80
3, 24960, Note_on_c, 1, 55, 0
3, 24960, Note_on_c, 1, 48, 0
3, 24960, Note_on_c, 1, 41, 80
3, 25080, Note_on_c, 1, 41, 0
3, 25080, Note_on_c, 1, 53, 80
3, 25128, Note_on_c, 1, 53, 0
3, 25200, Note_on_c, 1, 52, 80
3, 25248, Note_on_c, 1, 52, 0
3, 25320, Note_on_c, 1, 53, 80
3, 25368, Note_on_c, 1, 53, 0
3, 25440, Note_on_c, 1, 45, 80
3, 25560, Note_on_c, 1, 45, 0
3, 25560, Note_on_c, 1, 53, 80
3, 25680, Note_on_c, 1, 53, 0
3, 25680, Note_on_c, 1, 45, 80
3, 25800, Note_on_c, 1, 45, 0
3, 25800, Note_on_c, 1, 53, 80
3, 25920, Note_on_c, 1, 53, 0
3, 25920, Note_on_c, 1, 43, 56
3, 26040, Note_on_c, 1, 43, 0
3, 26040, Note_on_c, 1, 53, 56
3, 26076, Note_on_c, 1, 53, 0
3, 26160, Note_on_c, 1, 43, 56
3, 26196, Note_on_c, 1, 43, 0
3, 26280, Note_on_c, 1, 53, 56
3, 26316, Note_on_c, 1, 53, 0
3, 26400, Note_on_c, 1, 48, 56
3, 26520, Note_on_c, 1, 48, 0
3, 26520, Note_on_c, 1, 52, 56
3, 26640, Note_on_c, 1, 52, 0
3, 26640, Note_on_c, 1, 48, 56
3, 26760, Note_on_c, 1, 48, 0
3, 26760, Note_on_c, 1, 52, 56
3, 26880, Note_on_c, 1, 52, 0
3, 26880, Note_on_c, 1, 50, 56
3, 27000, Note_on_c, 1, 50, 0
3, 27000, Note_on_c, 1, 53, 56
3, 27036, Note_on_c, 1, 53, 0
3, 27120, Note_on_c, 1, 50, 56
3, 27156, Note_on_c, 1, 50, 0
3, 27240, Note_on_c, 1, 53, 56
3, 27276, Note_on_c, 1, 53, 0
3, 27360, Note_on_c, 1, 50, 56
3, 27480, Note_on_c, 1, 50, 0
3, 27480, Note_on_c, 1, 53, 56
3, 27600, Note_on_c, 1, 53, 0
3, 27600, Note_on_c, 1, 50, 56
3, 27720, Note_on_c, 1, 50, 0
3, 27720, Note_on_c, 1, 53, 56
3, 27840, Note_on_c, 1, 53, 0
3, 27840, Note_on_c, 1, 58, 80
3, 27840, Note_on_c, 1, 46, 80
3, 28080, Note_on_c, 1, 58, 0
3, 28080, Note_on_c, 1, 57, 80
3, 28320, Note_on_c, 1, 46, 0
3, 28320, Note_on_c, 1, 48, 80
3, 28560, Note_on_c, 1, 57, 0
3, 28560, Note_on_c, 1, 58, 80
3, 28620, Note_on_c, 1, 58, 0
3, 28620, Note_on_c, 1, 55, 80
3, 28800, Note_on_c, 1, 55, 0
3, 28800, Note_on_c, 1, 48, 0
3, 28920, Note_on_c, 1, 65, 64
3, 28980, Note_on_c, 1, 65, 0
3, 29040, Note_on_c, 1, 57, 64
3, 29076, Note_on_c, 1, 57, 0
3, 29160, Note_on_c, 1, 65, 64
3, 29196, Note_on_c, 1, 65, 0
3, 29280, Note_on_c, 1, 58, 64
3, 29340, Note_on_c, 1, 58, 0
3, 29400, Note_on_c, 1, 65, 64
3, 29460, Note_on_c, 1, 65, 0
3, 29520, Note_on_c, 1, 60, 64
3, 29640, Note_on_c, 1, 60, 0
3, 29640, Note_on_c, 1, 65, 64
3, 29700, Note_on_c, 1, 65, 0
3, 29760, Note_on_c, 1, 62, 64
3, 29880, Note_on_c, 1, 62, 0
3, 29880, Note_on_c, 1, 65, 64
3, 29940, Note_on_c, 1, 65, 0
3, 30000, Note_on_c, 1, 57, 64
3, 30120, Note_on_c, 1, 57, 0
3, 30120, Note_on_c, 1, 65, 64
3, 30180, Note_on_c, 1, 65, 0
3, 30240, Note_on_c, 1, 58, 64
3, 30360, Note_on_c, 1, 58, 0
3, 30360, Note_on_c, 1, 65, 64
3, 30420, Note_on_c, 1, 65, 0
3, 30480, Note_on_c, 1, 60, 64
3, 30600, Note_on_c, 1, 60, 0
3, 30600, Note_on_c, 1, 65, 64
3, 30660, Note_on_c, 1, 65, 0
3, 30720, Note_on_c, 1, 62, 80
3, 30960, Note_on_c, 1, 62, 0
3, 30960, Note_on_c, 1, 58, 80
3, 31080, Note_on_c, 1, 58, 0
3, 31200, Note_on_c, 1, 60, 80
3, 31320, Note_on_c, 1, 60, 0
3, 31440, Note_on_c, 1, 48, 80
3, 31680, Note_on_c, 1, 48, 0
3, 31800, Note_on_c, 1, 65, 40
3, 31860, Note_on_c, 1, 65, 0
3, 31920, Note_on_c, 1, 57, 40
3, 31980, Note_on_c, 1, 57, 0
3, 32040, Note_on_c, 1, 65, 40
3, 32100, Note_on_c, 1, 65, 0
3, 32160, Note_on_c, 1, 58, 40
3, 32220, Note_on_c, 1, 58, 0
3, 32280, Note_on_c, 1, 65, 40
3, 32340, Note_on_c, 1, 65, 0
3, 32400, Note_on_c, 1, 60, 40
3, 32460, Note_on_c, 1, 60, 0
3, 32520, Note_on_c, 1, 65, 40
3, 32580, Note_on_c, 1, 65, 0
3, 32640, Note_on_c, 1, 62, 40
3, 32700, Note_on_c, 1, 62, 0
3, 32760, Note_on_c, 1, 65, 40
3, 32820, Note_on_c, 1, 65, 0
3, 32880, Note_on_c, 1, 57, 40
3, 32940, Note_on_c, 1, 57, 0
3, 33000, Note_on_c, 1, 65, 40
3, 33060, Note_on_c, 1, 65, 0
3, 33120, Note_on_c, 1, 58, 40
3, 33180, Note_on_c, 1, 58, 0
3, 33240, Note_on_c, 1, 65, 40
3, 33300, Note_on_c, 1, 65, 0
3, 33360, Note_on_c, 1, 60, 40
3, 33420, Note_on_c, 1, 60, 0
3, 33480, Note_on_c, 1, 65, 40
3, 33540, Note_on_c, 1, 65, 0
3, 33600, Note_on_c, 1, 62, 48
3, 33840, Note_on_c, 1, 62, 0
3, 33840, Note_on_c, 1, 58, 48
3, 33960, Note_on_c, 1, 58, 0
3, 34080, Note_on_c, 1, 60, 48
3, 34200, Note_on_c, 1, 60, 0
3, 34320, Note_on_c, 1, 48, 48
3, 34560, Note_on_c, 1, 48, 0
3, 34560, Note_on_c, 1, 50, 80
3, 34800, Note_on_c, 1, 50, 0
3, 34800, Note_on_c, 1, 46, 80
3, 34920, Note_on_c, 1, 46, 0
3, 35040, Note_on_c, 1, 48, 80
3, 35160, Note_on_c, 1, 48, 0
3, 35280, Note_on_c, 1, 36, 80
3, 35520, Note_on_c, 1, 36, 0
3, 35520, Note_on_c, 1, 41, 80
3, 36240, Note_on_c, 1, 41, 0
3, 36480, Note_on_c, 1, 53, 56
3, 36600, Note_on_c, 1, 53, 0
3, 36600, Note_on_c, 1, 57, 56
3, 36648, Note_on_c, 1, 57, 0
3, 36720, Note_on_c, 1, 53, 56
3, 36768, Note_on_c, 1, 53, 0
3, 36840, Note_on_c, 1, 57, 56
3, 36888, Note_on_c, 1, 57, 0
3, 36960, Note_on_c, 1, 53, 56
3, 37080, Note_on_c, 1, 53, 0
3, 37080, Note_on_c, 1, 57, 56
3, 37200, Note_on_c, 1, 57, 0
3, 37200, Note_on_c, 1, 53, 56
3, 37320, Note_on_c, 1, 53, 0
3, 37320, Note_on_c, 1, 58, 56
3, 37440, Note_on_c, 1, 58, 0
3, 37440, Note_on_c, 1, 53, 56
3, 37560, Note_on_c, 1, 53, 0
3, 37560, Note_on_c, 1, 57, 56
3, 37608, Note_on_c, 1, 57, 0
3, 37680, Note_on_c, 1, 53, 56
3, 37728, Note_on_c, 1, 53, 0
3, 37800, Note_on_c, 1, 57, 56
3, 37848, Note_on_c, 1, 57, 0
3, 37920, Note_on_c, 1, 53, 56
3, 38040, Note_on_c, 1, 53, 0
3, 38040, Note_on_c, 1, 57, 56
3, 38160, Note_on_c, 1, 57, 0
3, 38160, Note_on_c, 1, 53, 56
3, 38280, Note_on_c, 1, 53, 0
3, 38280, Note_on_c, 1, 58, 56
3, 38400, Note_on_c, 1, 58, 0
3, 38400, Note_on_c, 1, 53, 56
3, 38520, Note_on_c, 1, 53, 0
3, 38520, Note_on_c, 1, 57, 56
3, 38580, Note_on_c, 1, 57, 0
3, 38640, Note_on_c, 1, 50, 56
3, 38700, Note_on_c, 1, 50, 0
3, 38760, Note_on_c, 1, 53, 56
3, 38820, Note_on_c, 1, 53, 0
3, 38880, Note_on_c, 1, 46, 56
3, 39000, Note_on_c, 1, 46, 0
3, 39000, Note_on_c, 1, 55, 56
3, 39120, Note_on_c, 1, 55, 0
3, 39120, Note_on_c, 1, 48, 56
3, 39240, Note_on_c, 1, 48, 0
3, 39240, Note_on_c, 1, 52, 56
3, 39360, Note_on_c, 1, 52, 0
3, 39360, Note_on_c, 1, 53, 56
3, 39480, Note_on_c, 1, 53, 0
3, 39480, Note_on_c, 1, 57, 56
3, 39540, Note_on_c, 1, 57, 0
3, 39600, Note_on_c, 1, 53, 56
3, 39660, Note_on_c, 1, 53, 0
3, 39720, Note_on_c, 1, 57, 56
3, 39780, Note_on_c, 1, 57, 0
3, 39840, Note_on_c, 1, 53, 56
3, 39960, Note_on_c, 1, 53, 0
3, 39960, Note_on_c, 1, 57, 56
3, 40080, Note_on_c, 1, 57, 0
3, 40080, Note_on_c, 1, 53, 56
3, 40200, Note_on_c, 1, 53, 0
3, 40200, Note_on_c, 1, 58, 56
3, 40320, Note_on_c, 1, 58, 0
3, 40320, Note_on_c, 1, 53, 56
3, 40440, Note_on_c, 1, 53, 0
3, 40440, Note_on_c, 1, 57, 56
3, 40488, Note_on_c, 1, 57, 0
3, 40560, Note_on_c, 1, 50, 56
3, 40608, Note_on_c, 1, 50, 0
3, 40680, Note_on_c, 1, 53, 56
3, 40728, Note_on_c, 1, 53, 0
3, 40800, Note_on_c, 1, 46, 56
3, 40920, Note_on_c, 1, 46, 0
3, 40920, Note_on_c, 1, 55, 56
3, 41040, Note_on_c, 1, 55, 0
3, 41040, Note_on_c, 1, 48, 56
3, 41160, Note_on_c, 1, 48, 0
3, 41160, Note_on_c, 1, 52, 56
3, 41280, Note_on_c, 1, 52, 0
3, 41280, Note_on_c, 1, 53, 56
3, 41400, Note_on_c, 1, 53, 0
3, 41400, Note_on_c, 1, 41, 56
3, 41448, Note_on_c, 1, 41, 0
3, 41520, Note_on_c, 1, 45, 56
3, 41568, Note_on_c, 1, 45, 0
3, 41640, Note_on_c, 1, 48, 56
3, 41688, Note_on_c, 1, 48, 0
3, 41760, Note_on_c, 1, 53, 56
3, 42000, Note_on_c, 1, 53, 0
3, 42240, Note_on_c, 1, 53, 56
3, 42360, Note_on_c, 1, 53, 0
3, 42360, Note_on_c, 1, 57, 56
3, 42408, Note_on_c, 1, 57, 0
3, 42480, Note_on_c, 1, 53, 56
3, 42528, Note_on_c, 1, 53, 0
3, 42600, Note_on_c, 1, 57, 56
3, 42648, Note_on_c, 1, 57, 0
3, 42720, Note_on_c, 1, 51, 56
3, 42840, Note_on_c, 1, 51, 0
3, 42840, Note_on_c, 1, 57, 56
3, 42960, Note_on_c, 1, 57, 0
3, 42960, Note_on_c, 1, 51, 56
3, 43080, Note_on_c, 1, 51, 0
3, 43080, Note_on_c, 1, 57, 56
3, 43200, Note_on_c, 1, 57, 0
3, 43200, Note_on_c, 1, 50, 56
3, 43320, Note_on_c, 1, 50, 0
3, 43320, Note_on_c, 1, 57, 56
3, 43368, Note_on_c, 1, 57, 0
3, 43440, Note_on_c, 1, 50, 56
3, 43488, Note_on_c, 1, 50, 0
3, 43560, Note_on_c, 1, 57, 56
3, 43608, Note_on_c, 1, 57, 0
3, 43680, Note_on_c, 1, 50, 56
3, 43800, Note_on_c, 1, 50, 0
3, 43800, Note_on_c, 1, 57, 56
3, 43920, Note_on_c, 1, 57, 0
3, 43920, Note_on_c, 1, 48, 56
3, 44040, Note_on_c, 1, 48, 0
3, 44040, Note_on_c, 1, 57, 56
3, 44160, Note_on_c, 1, 57, 0
3, 44160, Note_on_c, 1, 46, 56
3, 44280, Note_on_c, 1, 46, 0
3, 44280, Note_on_c, 1, 57, 56
3, 44340, Note_on_c, 1, 57, 0
3, 44400, Note_on_c, 1, 51, 56
3, 44460, Note_on_c, 1, 51, 0
3, 44520, Note_on_c, 1, 55, 56
3, 44580, Note_on_c, 1, 55, 0
3, 44640, Note_on_c, 1, 45, 56
3, 44760, Note_on_c, 1, 45, 0
3, 44760, Note_on_c, 1, 55, 56
3, 44880, Note_on_c, 1, 55, 0
3, 44880, Note_on_c, 1, 50, 56
3, 45000, Note_on_c, 1, 50, 0
3, 45000, Note_on_c, 1, 54, 56
3, 45120, Note_on_c, 1, 54, 0
3, 45120, Note_on_c, 1, 43, 80
3, 45120, Note_on_c, 1, 55, 80
3, 45600, Note_on_c, 1, 55, 0
3, 45600, Note_on_c, 1, 43, 0
3, 46320, Note_on_c, 1, 67, 80
3, 46320, Note_on_c, 1, 70, 80
3, 46464, Note_on_c, 1, 70, 0
3, 46464, Note_on_c, 1, 67, 0
3, 46560, Note_on_c, 1, 67, 80
3, 46560, Note_on_c, 1, 70, 80
3, 46704, Note_on_c, 1, 70, 0
3, 46704, Note_on_c, 1, 67, 0
3, 46800, Note_on_c, 1, 67, 80
3, 46800, Note_on_c, 1, 70, 80
3, 47040, Note_on_c, 1, 70, 0
3, 47040, Note_on_c, 1, 67, 0
3, 47040, Note_on_c, 1, 67, 80
3, 47040, Note_on_c, 1, 69, 80
3, 47280, Note_on_c, 1, 69, 0
3, 47280, Note_on_c, 1, 67, 0
3, 47280, Note_on_c, 1, 67, 80
3, 47280, Note_on_c, 1, 69, 80
3, 47424, Note_on_c, 1, 69, 0
3, 47424, Note_on_c, 1, 67, 0
3, 47520, Note_on_c, 1, 67, 80
3, 47520, Note_on_c, 1, 69, 80
3, 47664, Note_on_c, 1, 69, 0
3, 47664, Note_on_c, 1, 67, 0
3, 47760, Note_on_c, 1, 67, 80
3, 47760, Note_on_c, 1, 69, 80
3, 48000, Note_on_c, 1, 69, 0
3, 48000, Note_on_c, 1, 67, 0
3, 48000, Note_on_c, 1, 65, 80
3, 48000, Note_on_c, 1, 69, 80
3, 48240, Note_on_c, 1, 69, 0
3, 48240, Note_on_c, 1, 65, 0
3, 48240, Note_on_c, 1, 65, 80
3, 48240, Note_on_c, 1, 68, 80
3, 48384, Note_on_c, 1, 68, 0
3, 48384, Note_on_c, 1, 65, 0
3, 48480, Note_on_c, 1, 65, 80
3, 48480, Note_on_c, 1, 68, 80
3, 48624, Note_on_c, 1, 68, 0
3, 48624, Note_on_c, 1, 65, 0
3, 48720, Note_on_c, 1, 65, 80
3, 48720, Note_on_c, 1, 68, 80
3, 48960, Note_on_c, 1, 68, 0
3, 48960, Note_on_c, 1, 65, 0
3, 48960, Note_on_c, 1, 65, 80
3, 48960, Note_on_c, 1, 67, 80
3, 49200, Note_on_c, 1, 67, 0
3, 49200, Note_on_c, 1, 65, 0
3, 49200, Note_on_c, 1, 65, 80
3, 49200, Note_on_c, 1, 67, 80
3, 49344, Note_on_c, 1, 67, 0
3, 49344, Note_on_c, 1, 65, 0
3, 49440, Note_on_c, 1, 65, 80
3, 49440, Note_on_c, 1, 67, 80
3, 49584, Note_on_c, 1, 67, 0
3, 49584, Note_on_c, 1, 65, 0
3, 49680, Note_on_c, 1, 65, 80
3, 49680, Note_on_c, 1, 67, 80
3, 49920, Note_on_c, 1, 67, 0
3, 49920, Note_on_c, 1, 65, 0
3, 49920, Note_on_c, 1, 63, 64
3, 49920, Note_on_c, 1, 67, 64
3, 50064, Note_on_c, 1, 67, 0
3, 50064, Note_on_c, 1, 63, 0
3, 50160, Note_on_c, 1, 63, 68
3, 50160, Note_on_c, 1, 67, 68
3, 50400, Note_on_c, 1, 67, 0
3, 50400, Note_on_c, 1, 63, 0
3, 50400, Note_on_c, 1, 64, 72
3, 50400, Note_on_c, 1, 67, 72
3, 50544, Note_on_c, 1, 67, 0
3, 50544, Note_on_c, 1, 64, 0
3, 50640, Note_on_c, 1, 64, 76
3, 50640, Note_on_c, 1, 67, 76
3, 50880, Note_on_c, 1, 67, 0
3, 50880, Note_on_c, 1, 64, 0
3, 50880, Note_on_c, 1, 65, 80
3, 50880, Note_on_c, 1, 69, 80
3, 51000, Note_on_c, 1, 69, 0
3, 51000, Note_on_c, 1, 65, 0
3, 51120, Note_on_c, 1, 65, 76
3, 51120, Note_on_c, 1, 69, 76
3, 51360, Note_on_c, 1, 69, 0
3, 51360, Note_on_c, 1, 65, 0
3, 51360, Note_on_c, 1, 61, 72
3, 51360, Note_on_c, 1, 69, 72
3, 51480, Note_on_c, 1, 69, 0
3, 51480, Note_on_c, 1, 61, 0
3, 51600, Note_on_c, 1, 61, 68
3, 51600, Note_on_c, 1, 69, 68
3, 51840, Note_on_c, 1, 69, 0
3, 51840, Note_on_c, 1, 61, 0
3, 51840, Note_on_c, 1, 62, 64
3, 51840, Note_on_c, 1, 69, 64
3, 51960, Note_on_c, 1, 69, 0
3, 51960, Note_on_c, 1, 62, 0
3, 52080, Note_on_c, 1, 62, 72
3, 52080, Note_on_c, 1, 69, 72
3, 52320, Note_on_c, 1, 69, 0
3, 52320, Note_on_c, 1, 62, 0
3, 52320, Note_on_c, 1, 67, 80
3, 52320, Note_on_c, 1, 70, 80
3, 52440, Note_on_c, 1, 70, 0
3, 52440, Note_on_c, 1, 67, 0
3, 52560, Note_on_c, 1, 58, 88
3, 52560, Note_on_c, 1, 62, 88
3, 52680, Note_on_c, 1, 62, 0
3, 52680, Note_on_c, 1, 58, 0
3, 52800, Note_on_c, 1, 57, 96
3, 52800, Note_on_c, 1, 64, 96
3, 53280, Note_on_c, 1, 64, 0
3, 53280, Note_on_c, 1, 57, 0
3, 53280, Note_on_c, 1, 65, 80
3, 53520, Note_on_c, 1, 62, 80
3, 53760, Note_on_c, 1, 62, 0
3, 53760, Note_on_c, 1, 65, 0
3, 53760, Note_on_c, 1, 59, 80
3, 54000, Note_on_c, 1, 62, 80
3, 54240, Note_on_c, 1, 62, 0
3, 54240, Note_on_c, 1, 59, 0
3, 54240, Note_on_c, 1, 61, 80
3, 54480, Note_on_c, 1, 64, 80
3, 54720, Note_on_c, 1, 64, 0
3, 54720, Note_on_c, 1, 61, 0
3, 54720, Note_on_c, 1, 62, 80
3, 54960, Note_on_c, 1, 50, 80
3, 55200, Note_on_c, 1, 50, 0
3, 55200, Note_on_c, 1, 62, 0
3, 55200, Note_on_c, 1, 58, 80
3, 55440, Note_on_c, 1, 62, 80
3, 55680, Note_on_c, 1, 62, 0
3, 55680, Note_on_c, 1, 58, 0
3, 55680, Note_on_c, 1, 55, 80
3, 55680, Note_on_c, 1, 67, 80
3, 55920, Note_on_c, 1, 67, 0
3, 55920, Note_on_c, 1, 65, 80
3, 56160, Note_on_c, 1, 55, 0
3, 56160, Note_on_c, 1, 57, 80
3, 56400, Note_on_c, 1, 65, 0
3, 56400, Note_on_c, 1, 67, 80
3, 56460, Note_on_c, 1, 67, 0
3, 56460, Note_on_c, 1, 64, 80
3, 56640, Note_on_c, 1, 64, 0
3, 56640, Note_on_c, 1, 57, 0
3, 56760, Note_on_c, 1, 62, 64
3, 56808, Note_on_c, 1, 62, 0
3, 56880, Note_on_c, 1, 58, 64
3, 56928, Note_on_c, 1, 58, 0
3, 57000, Note_on_c, 1, 62, 64
3, 57048, Note_on_c, 1, 62, 0
3, 57120, Note_on_c, 1, 55, 64
3, 57240, Note_on_c, 1, 55, 0
3, 57240, Note_on_c, 1, 64, 64
3, 57360, Note_on_c, 1, 64, 0
3, 57360, Note_on_c, 1, 57, 64
3, 57480, Note_on_c, 1, 57, 0
3, 57480, Note_on_c, 1, 61, 64
3, 57600, Note_on_c, 1, 61, 0
3, 57600, Note_on_c, 1, 53, 64
3, 57720, Note_on_c, 1, 53, 0
3, 57720, Note_on_c, 1, 65, 64
3, 57768, Note_on_c, 1, 65, 0
3, 57840, Note_on_c, 1, 58, 64
3, 57888, Note_on_c, 1, 58, 0
3, 57960, Note_on_c, 1, 62, 64
3, 58008, Note_on_c, 1, 62, 0
3, 58080, Note_on_c, 1, 55, 64
3, 58200, Note_on_c, 1, 55, 0
3, 58200, Note_on_c, 1, 64, 64
3, 58320, Note_on_c, 1, 64, 0
3, 58320, Note_on_c, 1, 57, 64
3, 58440, Note_on_c, 1, 57, 0
3, 58440, Note_on_c, 1, 61, 64
3, 58560, Note_on_c, 1, 61, 0
3, 58560, Note_on_c, 1, 50, 64
3, 58680, Note_on_c, 1, 50, 0
3, 58680, Note_on_c, 1, 62, 64
3, 58728, Note_on_c, 1, 62, 0
3, 58800, Note_on_c, 1, 53, 64
3, 58848, Note_on_c, 1, 53, 0
3, 58920, Note_on_c, 1, 62, 64
3, 58968, Note_on_c, 1, 62, 0
3, 59040, Note_on_c, 1, 57, 64
3, 59160, Note_on_c, 1, 57, 0
3, 59160, Note_on_c, 1, 62, 64
3, 59280, Note_on_c, 1, 62, 0
3, 59280, Note_on_c, 1, 56, 64
3, 59400, Note_on_c, 1, 56, 0
3, 59400, Note_on_c, 1, 60, 64
3, 59520, Note_on_c, 1, 60, 0
3, 59520, Note_on_c, 1, 55, 64
3, 59640, Note_on_c, 1, 55, 0
3, 59640, Note_on_c, 1, 62, 64
3, 59688, Note_on_c, 1, 62, 0
3, 59760, Note_on_c, 1, 55, 64
3, 59808, Note_on_c, 1, 55, 0
3, 59880, Note_on_c, 1, 62, 64
3, 59928, Note_on_c, 1, 62, 0
3, 60000, Note_on_c, 1, 55, 64
3, 60120, Note_on_c, 1, 55, 0
3, 60120, Note_on_c, 1, 62, 64
3, 60240, Note_on_c, 1, 62, 0
3, 60240, Note_on_c, 1, 56, 40
3, 60360, Note_on_c, 1, 56, 0
3, 60360, Note_on_c, 1, 60, 40
3, 60480, Note_on_c, 1, 60, 0
3, 60480, Note_on_c, 1, 55, 40
3, 60600, Note_on_c, 1, 55, 0
3, 60600, Note_on_c, 1, 62, 40
3, 60648, Note_on_c, 1, 62, 0
3, 60720, Note_on_c, 1, 55, 40
3, 60768, Note_on_c, 1, 55, 0
3, 60840, Note_on_c, 1, 62, 40
3, 60888, Note_on_c, 1, 62, 0
3, 60960, Note_on_c, 1, 55, 40
3, 61080, Note_on_c, 1, 55, 0
3, 61080, Note_on_c, 1, 62, 40
3, 61200, Note_on_c, 1, 62, 0
3, 61200, Note_on_c, 1, 53, 64
3, 61320, Note_on_c, 1, 53, 0
3, 61320, Note_on_c, 1, 62, 64
3, 61440, Note_on_c, 1, 62, 0
3, 61440, Note_on_c, 1, 51, 64
3, 61560, Note_on_c, 1, 51, 0
3, 61560, Note_on_c, 1, 62, 64
3, 61608, Note_on_c, 1, 62, 0
3, 61680, Note_on_c, 1, 56, 64
3, 61728, Note_on_c, 1, 56, 0
3, 61800, Note_on_c, 1, 60, 64
3, 61848, Note_on_c, 1, 60, 0
3, 61920, Note_on_c, 1, 50, 64
3, 62040, Note_on_c, 1, 50, 0
3, 62040, Note_on_c, 1, 60, 64
3, 62088, Note_on_c, 1, 60, 0
3, 62160, Note_on_c, 1, 55, 64
3, 62208, Note_on_c, 1, 55, 0
3, 62280, Note_on_c, 1, 59, 64
3, 62400, Note_on_c, 1, 59, 0
3, 62400, Note_on_c, 1, 48, 80
3, 62400, Note_on_c, 1, 60, 80
3, 62880, Note_on_c, 1, 60, 0
3, 62880, Note_on_c, 1, 48, 0
3, 63000, Note_on_c, 1, 60, 64
3, 63048, Note_on_c, 1, 60, 0
3, 63120, Note_on_c, 1, 55, 64
3, 63168, Note_on_c, 1, 55, 0
3, 63240, Note_on_c, 1, 58, 64
3, 63288, Note_on_c, 1, 58, 0
3, 63360, Note_on_c, 1, 53, 64
3, 63480, Note_on_c, 1, 53, 0
3, 63480, Note_on_c, 1, 60, 64
3, 63528, Note_on_c, 1, 60, 0
3, 63600, Note_on_c, 1, 53, 64
3, 63648, Note_on_c, 1, 53, 0
3, 63720, Note_on_c, 1, 60, 64
3, 63768, Note_on_c, 1, 60, 0
3, 63840, Note_on_c, 1, 53, 64
3, 63960, Note_on_c, 1, 53, 0
3, 63960, Note_on_c, 1, 60, 64
3, 64080, Note_on_c, 1, 60, 0
3, 64080, Note_on_c, 1, 55, 40
3, 64200, Note_on_c, 1, 55, 0
3, 64200, Note_on_c, 1, 58, 40
3, 64320, Note_on_c, 1, 58, 0
3, 64320, Note_on_c, 1, 53, 40
3, 64440, Note_on_c, 1, 53, 0
3, 64440, Note_on_c, 1, 60, 40
3, 64488, Note_on_c, 1, 60, 0
3, 64560, Note_on_c, 1, 53, 40
3, 64608, Note_on_c, 1, 53, 0
3, 64680, Note_on_c, 1, 60, 40
3, 64728, Note_on_c, 1, 60, 0
3, 64800, Note_on_c, 1, 53, 40
3, 64920, Note_on_c, 1, 53, 0
3, 64920, Note_on_c, 1, 60, 40
3, 65040, Note_on_c, 1, 60, 0
3, 65040, Note_on_c, 1, 51, 64
3, 65160, Note_on_c, 1, 51, 0
3, 65160, Note_on_c, 1, 60, 64
3, 65280, Note_on_c, 1, 60, 0
3, 65280, Note_on_c, 1, 50, 64
3, 65400, Note_on_c, 1, 50, 0
3, 65400, Note_on_c, 1, 60, 66
3, 65448, Note_on_c, 1, 60, 0
3, 65520, Note_on_c, 1, 55, 68
3, 65568, Note_on_c, 1, 55, 0
3, 65640, Note_on_c, 1, 58, 70
3, 65688, Note_on_c, 1, 58, 0
3, 65760, Note_on_c, 1, 48, 72
3, 65880, Note_on_c, 1, 48, 0
3, 65880, Note_on_c, 1, 58, 74
3, 65928, Note_on_c, 1, 58, 0
3, 66000, Note_on_c, 1, 53, 76
3, 66048, Note_on_c, 1, 53, 0
3, 66120, Note_on_c, 1, 57, 78
3, 66240, Note_on_c, 1, 57, 0
3, 66240, Note_on_c, 1, 46, 80
3, 66240, Note_on_c, 1, 58, 80
3, 66720, Note_on_c, 1, 58, 0
3, 66720, Note_on_c, 1, 46, 0
3, 66960, Note_on_c, 1, 62, 80
3, 67200, Note_on_c, 1, 62, 0
3, 67200, Note_on_c, 1, 63, 80
3, 67440, Note_on_c, 1, 67, 80
3, 67680, Note_on_c, 1, 67, 0
3, 67680, Note_on_c, 1, 63, 0
3, 67680, Note_on_c, 1, 63, 80
3, 67920, Note_on_c, 1, 72, 80
3, 68160, Note_on_c, 1, 63, 0
3, 68160, Note_on_c, 1, 62, 80
3, 68400, Note_on_c, 1, 72, 0
3, 68400, Note_on_c, 1, 65, 80
3, 68640, Note_on_c, 1, 62, 0
3, 68640, Note_on_c, 1, 62, 80
3, 68880, Note_on_c, 1, 65, 0
3, 68880, Note_on_c, 1, 70, 80
3, 69120, Note_on_c, 1, 62, 0
3, 69120, Note_on_c, 1, 60, 80
3, 69360, Note_on_c, 1, 60, 0
3, 69360, Note_on_c, 1, 70, 0
3, 69360, Note_on_c, 1, 60, 80
3, 69360, Note_on_c, 1, 70, 80
3, 69600, Note_on_c, 1, 70, 0
3, 69600, Note_on_c, 1, 60, 0
3, 69600, Note_on_c, 1, 65, 80
3, 69600, Note_on_c, 1, 69, 80
3, 69840, Note_on_c, 1, 69, 0
3, 69840, Note_on_c, 1, 65, 0
3, 69840, Note_on_c, 1, 65, 80
3, 69840, Note_on_c, 1, 69, 80
3, 70080, Note_on_c, 1, 69, 0
3, 70080, Note_on_c, 1, 65, 0
3, 70080, Note_on_c, 1, 58, 80
3, 70080, Note_on_c, 1, 70, 80
3, 70320, Note_on_c, 1, 70, 0
3, 70320, Note_on_c, 1, 58, 0
3, 70680, Note_on_c, 1, 58, 64
3, 70728, Note_on_c, 1, 58, 0
3, 70800, Note_on_c, 1, 46, 64
3, 70848, Note_on_c, 1, 46, 0
3, 70920, Note_on_c, 1, 58, 64
3, 70968, Note_on_c, 1, 58, 0
3, 71040, Note_on_c, 1, 51, 64
3, 71160, Note_on_c, 1, 51, 0
3, 71160, Note_on_c, 1, 58, 64
3, 71208, Note_on_c, 1, 58, 0
3, 71280, Note_on_c, 1, 52, 64
3, 71328, Note_on_c, 1, 52, 0
3, 71400, Note_on_c, 1, 58, 64
3, 71448, Note_on_c, 1, 58, 0
3, 71520, Note_on_c, 1, 52, 64
3, 71640, Note_on_c, 1, 52, 0
3, 71640, Note_on_c, 1, 58, 64
3, 71760, Note_on_c, 1, 58, 0
3, 71760, Note_on_c, 1, 52, 64
3, 71880, Note_on_c, 1, 52, 0
3, 71880, Note_on_c, 1, 58, 64
3, 72000, Note_on_c, 1, 58, 0
3, 72000, Note_on_c, 1, 53, 64
3, 72120, Note_on_c, 1, 53, 0
3, 72120, Note_on_c, 1, 57, 64
3, 72168, Note_on_c, 1, 57, 0
3, 72240, Note_on_c, 1, 53, 64
3, 72288, Note_on_c, 1, 53, 0
3, 72360, Note_on_c, 1, 57, 64
3, 72408, Note_on_c, 1, 57, 0
3, 72480, Note_on_c, 1, 53, 64
3, 72600, Note_on_c, 1, 53, 0
3, 72600, Note_on_c, 1, 57, 64
3, 72720, Note_on_c, 1, 57, 0
3, 72720, Note_on_c, 1, 50, 40
3, 72840, Note_on_c, 1, 50, 0
3, 72840, Note_on_c, 1, 58, 40
3, 72960, Note_on_c, 1, 58, 0
3, 72960, Note_on_c, 1, 51, 40
3, 73080, Note_on_c, 1, 51, 0
3, 73080, Note_on_c, 1, 58, 40
3, 73128, Note_on_c, 1, 58, 0
3, 73200, Note_on_c, 1, 52, 40
3, 73248, Note_on_c, 1, 52, 0
3, 73320, Note_on_c, 1, 58, 40
3, 73368, Note_on_c, 1, 58, 0
3, 73440, Note_on_c, 1, 52, 40
3, 73560, Note_on_c, 1, 52, 0
3, 73560, Note_on_c, 1, 58, 40
3, 73680, Note_on_c, 1, 58, 0
3, 73680, Note_on_c, 1, 52, 40
3, 73800, Note_on_c, 1, 52, 0
3, 73800, Note_on_c, 1, 58, 40
3, 73920, Note_on_c, 1, 58, 0
3, 73920, Note_on_c, 1, 53, 40
3, 74040, Note_on_c, 1, 53, 0
3, 74040, Note_on_c, 1, 57, 40
3, 74088, Note_on_c, 1, 57, 0
3, 74160, Note_on_c, 1, 53, 40
3, 74208, Note_on_c, 1, 53, 0
3, 74280, Note_on_c, 1, 57, 40
3, 74328, Note_on_c, 1, 57, 0
3, 74400, Note_on_c, 1, 50, 64
3, 74520, Note_on_c, 1, 50, 0
3, 74520, Note_on_c, 1, 58, 64
3, 74640, Note_on_c, 1, 58, 0
3, 74640, Note_on_c, 1, 50, 64
3, 74760, Note_on_c, 1, 50, 0
3, 74760, Note_on_c, 1, 58, 64
3, 74880, Note_on_c, 1, 58, 0
3, 74880, Note_on_c, 1, 48, 64
3, 75000, Note_on_c, 1, 48, 0
3, 75000, Note_on_c, 1, 58, 64
3, 75048, Note_on_c, 1, 58, 0
3, 75120, Note_on_c, 1, 48, 64
3, 75168, Note_on_c, 1, 48, 0
3, 75240, Note_on_c, 1, 58, 64
3, 75288, Note_on_c, 1, 58, 0
3, 75360, Note_on_c, 1, 53, 64
3, 75480, Note_on_c, 1, 53, 0
3, 75480, Note_on_c, 1, 57, 64
3, 75600, Note_on_c, 1, 57, 0
3, 75600, Note_on_c, 1, 53, 64
3, 75720, Note_on_c, 1, 53, 0
3, 75720, Note_on_c, 1, 57, 64
3, 75840, Note_on_c, 1, 57, 0
3, 75840, Note_on_c, 1, 46, 64
3, 75960, Note_on_c, 1, 46, 0
3, 75960, Note_on_c, 1, 58, 66
3, 76008, Note_on_c, 1, 58, 0
3, 76080, Note_on_c, 1, 46, 68
3, 76128, Note_on_c, 1, 46, 0
3, 76200, Note_on_c, 1, 58, 70
3, 76248, Note_on_c, 1, 58, 0
3, 76320, Note_on_c, 1, 55, 72
3, 76440, Note_on_c, 1, 55, 0
3, 76440, Note_on_c, 1, 58, 74
3, 76560, Note_on_c, 1, 58, 0
3, 76560, Note_on_c, 1, 55, 76
3, 76680, Note_on_c, 1, 55, 0
3, 76680, Note_on_c, 1, 58, 78
3, 76800, Note_on_c, 1, 58, 0
3, 76800, Note_on_c, 1, 51, 80
3, 76800, Note_on_c, 1, 63, 80
3, 77040, Note_on_c, 1, 63, 0
3, 77040, Note_on_c, 1, 62, 80
3, 77280, Note_on_c, 1, 51, 0
3, 77280, Note_on_c, 1, 53, 80
3, 77520, Note_on_c, 1, 62, 0
3, 77520, Note_on_c, 1, 63, 80
3, 77580, Note_on_c, 1, 63, 0
3, 77580, Note_on_c, 1, 60, 80
3, 77760, Note_on_c, 1, 60, 0
3, 77760, Note_on_c, 1, 53, 0
3, 77760, Note_on_c, 1, 46, 64
3, 77880, Note_on_c, 1, 46, 0
3, 77880, Note_on_c, 1, 58, 64
3, 77928, Note_on_c, 1, 58, 0
3, 78000, Note_on_c, 1, 57, 64
3, 78048, Note_on_c, 1, 57, 0
3, 78120, Note_on_c, 1, 58, 64
3, 78168, Note_on_c, 1, 58, 0
3, 78240, Note_on_c, 1, 50, 64
3, 78360, Note_on_c, 1, 50, 0
3, 78360, Note_on_c, 1, 58, 64
3, 78480, Note_on_c, 1, 58, 0
3, 78480, Note_on_c, 1, 50, 64
3, 78600, Note_on_c, 1, 50, 0
3, 78600, Note_on_c, 1, 58, 64
3, 78720, Note_on_c, 1, 58, 0
3, 78720, Note_on_c, 1, 48, 64
3, 78840, Note_on_c, 1, 48, 0
3, 78840, Note_on_c, 1, 58, 64
3, 78888, Note_on_c, 1, 58, 0
3, 78960, Note_on_c, 1, 48, 64
3, 79008, Note_on_c, 1, 48, 0
3, 79080, Note_on_c, 1, 58, 64
3, 79128, Note_on_c, 1, 58, 0
3, 79200, Note_on_c, 1, 53, 64
3, 79320, Note_on_c, 1, 53, 0
3, 79320, Note_on_c, 1, 57, 64
3, 79440, Note_on_c, 1, 57, 0
3, 79440, Note_on_c, 1, 53, 64
3, 79560, Note_on_c, 1, 53, 0
3, 79560, Note_on_c, 1, 57, 64
3, 79680, Note_on_c, 1, 57, 0
3, 79680, Note_on_c, 1, 46, 64
3, 79800, Note_on_c, 1, 46, 0
3, 79800, Note_on_c, 1, 58, 66
3, 79848, Note_on_c, 1, 58, 0
3, 79920, Note_on_c, 1, 46, 68
3, 79968, Note_on_c, 1, 46, 0
3, 80040, Note_on_c, 1, 58, 70
3, 80088, Note_on_c, 1, 58, 0
3, 80160, Note_on_c, 1, 55, 72
3, 80280, Note_on_c, 1, 55, 0
3, 80280, Note_on_c, 1, 58, 74
3, 80400, Note_on_c, 1, 58, 0
3, 80400, Note_on_c, 1, 55, 76
3, 80520, Note_on_c, 1, 55, 0
3, 80520, Note_on_c, 1, 58, 78
3, 80640, Note_on_c, 1, 58, 0
3, 80640, Note_on_c, 1, 63, 80
3, 80640, Note_on_c, 1, 51, 80
3, 80880, Note_on_c, 1, 63, 0
3, 80880, Note_on_c, 1, 62, 80
3, 81120, Note_on_c, 1, 51, 0
3, 81120, Note_on_c, 1, 53, 80
3, 81360, Note_on_c, 1, 62, 0
3, 81360, Note_on_c, 1, 63, 80
3, 81420, Note_on_c, 1, 63, 0
3, 81420, Note_on_c, 1, 60, 80
3, 81600, Note_on_c, 1, 60, 0
3, 81600, Note_on_c, 1, 53, 0
3, 81720, Note_on_c, 1, 70, 64
3, 81840, Note_on_c, 1, 70, 0
3, 81840, Note_on_c, 1, 62, 64
3, 81882, Note_on_c, 1, 62, 0
3, 81960, Note_on_c, 1, 70, 64
3, 82002, Note_on_c, 1, 70, 0
3, 82080, Note_on_c, 1, 63, 64
3, 82122, Note_on_c, 1, 63, 0
3, 82200, Note_on_c, 1, 70, 64
3, 82242, Note_on_c, 1, 70, 0
3, 82320, Note_on_c, 1, 65, 64
3, 82440, Note_on_c, 1, 65, 0
3, 82440, Note_on_c, 1, 70, 64
3, 82560, Note_on_c, 1, 70, 0
3, 82560, Note_on_c, 1, 67, 64
3, 82680, Note_on_c, 1, 67, 0
3, 82680, Note_on_c, 1, 70, 66
3, 82800, Note_on_c, 1, 70, 0
3, 82800, Note_on_c, 1, 62, 68
3, 82842, Note_on_c, 1, 62, 0
3, 82920, Note_on_c, 1, 70, 70
3, 82962, Note_on_c, 1, 70, 0
3, 83040, Note_on_c, 1, 63, 72
3, 83082, Note_on_c, 1, 63, 0
3, 83160, Note_on_c, 1, 70, 74
3, 83202, Note_on_c, 1, 70, 0
3, 83280, Note_on_c, 1, 65, 76
3, 83400, Note_on_c, 1, 65, 0
3, 83400, Note_on_c, 1, 70, 78
3, 83520, Note_on_c, 1, 70, 0
3, 83520, Note_on_c, 1, 67, 80
3, 83760, Note_on_c, 1, 67, 0
3, 83760, Note_on_c, 1, 63, 80
3, 83880, Note_on_c, 1, 63, 0
3, 84000, Note_on_c, 1, 65, 80
3, 84120, Note_on_c, 1, 65, 0
3, 84240, Note_on_c, 1, 53, 80
3, 84480, Note_on_c, 1, 53, 0
3, 84600, Note_on_c, 1, 70, 40
3, 84720, Note_on_c, 1, 70, 0
3, 84720, Note_on_c, 1, 62, 40
3, 84750, Note_on_c, 1, 62, 0
3, 84840, Note_on_c, 1, 70, 40
3, 84870, Note_on_c, 1, 70, 0
3, 84960, Note_on_c, 1, 63, 40
3, 84990, Note_on_c, 1, 63, 0
3, 85080, Note_on_c, 1, 70, 40
3, 85110, Note_on_c, 1, 70, 0
3, 85200, Note_on_c, 1, 65, 40
3, 85320, Note_on_c, 1, 65, 0
3, 85320, Note_on_c, 1, 70, 40
3, 85440, Note_on_c, 1, 70, 0
3, 85440, Note_on_c, 1, 67, 40
3, 85560, Note_on_c, 1, 67, 0
3, 85560, Note_on_c, 1, 70, 40
3, 85680, Note_on_c, 1, 70, 0
3, 85680, Note_on_c, 1, 62, 40
3, 85710, Note_on_c, 1, 62, 0
3, 85800, Note_on_c, 1, 70, 40
3, 85830, Note_on_c, 1, 70, 0
3, 85920, Note_on_c, 1, 63, 40
3, 85950, Note_on_c, 1, 63, 0
3, 86040, Note_on_c, 1, 70, 40
3, 86070, Note_on_c, 1, 70, 0
3, 86160, Note_on_c, 1, 65, 40
3, 86280, Note_on_c, 1, 65, 0
3, 86280, Note_on_c, 1, 70, 40
3, 86400, Note_on_c, 1, 70, 0
3, 86400, Note_on_c, 1, 67, 40
3, 86640, Note_on_c, 1, 67, 0
3, 86640, Note_on_c, 1, 63, 48
3, 86736, Note_on_c, 1, 63, 0
3, 86880, Note_on_c, 1, 65, 56
3, 86976, Note_on_c, 1, 65, 0
3, 87120, Note_on_c, 1, 53, 64
3, 87360, Note_on_c, 1, 53, 0
3, 87360, Note_on_c, 1, 55, 80
3, 87600, Note_on_c, 1, 55, 0
3, 87600, Note_on_c, 1, 51, 80
3, 87720, Note_on_c, 1, 51, 0
3, 87840, Note_on_c, 1, 53, 80
3, 87984, Note_on_c, 1, 53, 0
3, 88080, Note_on_c, 1, 41, 80
3, 88320, Note_on_c, 1, 41, 0
3, 88320, Note_on_c, 1, 46, 80
3, 88800, Note_on_c, 1, 46, 0
3, 88800, End_track
4, 0, Start_track
4, 0, MIDI_port, 0
4, 0, Title_t, "MIDI by Marty Weimer  4/25/97"
4, 0, End_track
5, 0, Start_track
5, 0, MIDI_port, 0
5, 0, Title_t, "weimermt@libby.org  Eureka, MT  USA"
5, 0, End_track
0, 0, End_of_file
