0, 0, Header, 1, 5, 240
1, 0, Start_track
1, 0, Time_signature, 4, 2, 24, 8
1, 0, Key_signature, 0, "major"
1, 0, Tempo, 444444
1, 7680, Tempo, 451128
1, 8640, Tempo, 444444
1, 15360, Tempo, 500000
1, 16320, Tempo, 444444
1, 38400, Tempo, 461538
1, 39360, Tempo, 444444
1, 75840, Tempo, 454545
1, 76800, Tempo, 444444
1, 99120, Tempo, 526316
1, 99360, Tempo, 652174
1, 99600, Tempo, 845070
1, 99600, End_track
2, 0, Start_track
2, 0, MIDI_port, 0
2, 0, Title_t, "Piano Sonata No. 37 in D (before 1780)"
2, 0, Program_c, 0, 0
2, 0, Control_c, 0, 7, 127
2, 0, Control_c, 0, 10, 72
2, 930, Note_on_c, 0, 85, 80
2, 960, Note_on_c, 0, 85, 0
2, 960, Note_on_c, 0, 86, 80
2, 960, Control_c, 0, 10, 127
2, 1080, Note_on_c, 0, 86, 0
2, 1080, Note_on_c, 0, 74, 80
2, 1116, Note_on_c, 0, 74, 0
2, 1200, Note_on_c, 0, 74, 80
2, 1236, Note_on_c, 0, 74, 0
2, 1320, Note_on_c, 0, 74, 80
2, 1440, Note_on_c, 0, 74, 0
2, 1440, Note_on_c, 0, 76, 80
2, 1470, Note_on_c, 0, 76, 0
2, 1470, Note_on_c, 0, 78, 80
2, 1500, Note_on_c, 0, 78, 0
2, 1500, Note_on_c, 0, 76, 80
2, 1520, Note_on_c, 0, 76, 0
2, 1520, Note_on_c, 0, 78, 80
2, 1540, Note_on_c, 0, 78, 0
2, 1540, Note_on_c, 0, 76, 80
2, 1560, Note_on_c, 0, 76, 0
2, 1560, Note_on_c, 0, 74, 80
2, 1596, Note_on_c, 0, 74, 0
2, 1680, Note_on_c, 0, 76, 80
2, 1710, Note_on_c, 0, 76, 0
2, 1710, Note_on_c, 0, 78, 80
2, 1740, Note_on_c, 0, 78, 0
2, 1740, Note_on_c, 0, 76, 80
2, 1760, Note_on_c, 0, 76, 0
2, 1760, Note_on_c, 0, 78, 80
2, 1780, Note_on_c, 0, 78, 0
2, 1780, Note_on_c, 0, 76, 80
2, 1788, Note_on_c, 0, 76, 0
2, 1800, Note_on_c, 0, 74, 80
2, 1842, Note_on_c, 0, 74, 0
2, 1905, Note_on_c, 0, 85, 80
2, 1920, Note_on_c, 0, 85, 0
2, 1920, Control_c, 0, 10, 127
2, 1920, Note_on_c, 0, 86, 80
2, 2040, Note_on_c, 0, 86, 0
2, 2040, Note_on_c, 0, 74, 80
2, 2076, Note_on_c, 0, 74, 0
2, 2160, Note_on_c, 0, 74, 80
2, 2196, Note_on_c, 0, 74, 0
2, 2280, Note_on_c, 0, 74, 80
2, 2400, Note_on_c, 0, 74, 0
2, 2400, Note_on_c, 0, 76, 80
2, 2430, Note_on_c, 0, 76, 0
2, 2430, Note_on_c, 0, 78, 80
2, 2460, Note_on_c, 0, 78, 0
2, 2460, Note_on_c, 0, 76, 80
2, 2480, Note_on_c, 0, 76, 0
2, 2480, Note_on_c, 0, 78, 80
2, 2500, Note_on_c, 0, 78, 0
2, 2500, Note_on_c, 0, 76, 80
2, 2520, Note_on_c, 0, 76, 0
2, 2520, Note_on_c, 0, 74, 80
2, 2556, Note_on_c, 0, 74, 0
2, 2640, Note_on_c, 0, 76, 80
2, 2670, Note_on_c, 0, 76, 0
2, 2670, Note_on_c, 0, 78, 80
2, 2700, Note_on_c, 0, 78, 0
2, 2700, Note_on_c, 0, 76, 80
2, 2720, Note_on_c, 0, 76, 0
2, 2720, Note_on_c, 0, 78, 80
2, 2740, Note_on_c, 0, 78, 0
2, 2740, Note_on_c, 0, 76, 80
2, 2746, Note_on_c, 0, 76, 0
2, 2760, Note_on_c, 0, 74, 80
2, 2796, Note_on_c, 0, 74, 0
2, 2880, Note_on_c, 0, 74, 80
2, 2880, Note_on_c, 0, 79, 80
2, 2916, Note_on_c, 0, 79, 0
2, 2916, Note_on_c, 0, 74, 0
2, 3000, Note_on_c, 0, 74, 64
2, 3000, Note_on_c, 0, 79, 80
2, 3120, Note_on_c, 0, 79, 0
2, 3120, Note_on_c, 0, 74, 0
2, 3120, Note_on_c, 0, 78, 80
2, 3156, Note_on_c, 0, 78, 0
2, 3240, Note_on_c, 0, 74, 64
2, 3240, Note_on_c, 0, 78, 80
2, 3360, Note_on_c, 0, 78, 0
2, 3360, Note_on_c, 0, 74, 0
2, 3360, Note_on_c, 0, 83, 80
2, 3396, Note_on_c, 0, 83, 0
2, 3480, Note_on_c, 0, 74, 64
2, 3480, Note_on_c, 0, 83, 80
2, 3600, Note_on_c, 0, 83, 0
2, 3600, Note_on_c, 0, 74, 0
2, 3600, Note_on_c, 0, 81, 80
2, 3636, Note_on_c, 0, 81, 0
2, 3720, Note_on_c, 0, 74, 80
2, 3720, Note_on_c, 0, 81, 80
2, 3840, Note_on_c, 0, 81, 0
2, 3840, Note_on_c, 0, 74, 0
2, 3840, Note_on_c, 0, 79, 80
2, 3960, Note_on_c, 0, 79, 0
2, 3960, Note_on_c, 0, 76, 80
2, 4080, Note_on_c, 0, 76, 0
2, 4080, Note_on_c, 0, 78, 80
2, 4200, Note_on_c, 0, 78, 0
2, 4200, Note_on_c, 0, 74, 80
2, 4320, Note_on_c, 0, 74, 0
2, 4320, Note_on_c, 0, 73, 80
2, 4380, Note_on_c, 0, 73, 0
2, 4380, Note_on_c, 0, 74, 80
2, 4440, Note_on_c, 0, 74, 0
2, 4440, Note_on_c, 0, 76, 80
2, 4500, Note_on_c, 0, 76, 0
2, 4500, Note_on_c, 0, 73, 80
2, 4560, Note_on_c, 0, 73, 0
2, 4560, Note_on_c, 0, 69, 80
2, 4620, Note_on_c, 0, 69, 0
2, 4770, Note_on_c, 0, 85, 80
2, 4800, Note_on_c, 0, 85, 0
2, 4800, Control_c, 0, 10, 127
2, 4800, Note_on_c, 0, 86, 80
2, 4920, Note_on_c, 0, 86, 0
2, 4920, Note_on_c, 0, 74, 80
2, 4956, Note_on_c, 0, 74, 0
2, 5040, Note_on_c, 0, 74, 80
2, 5076, Note_on_c, 0, 74, 0
2, 5160, Note_on_c, 0, 74, 80
2, 5187, Note_on_c, 0, 74, 0
2, 5250, Note_on_c, 0, 78, 80
2, 5280, Note_on_c, 0, 78, 0
2, 5280, Note_on_c, 0, 76, 88
2, 5400, Note_on_c, 0, 76, 0
2, 5400, Note_on_c, 0, 74, 80
2, 5427, Note_on_c, 0, 74, 0
2, 5490, Note_on_c, 0, 78, 80
2, 5520, Note_on_c, 0, 78, 0
2, 5520, Note_on_c, 0, 76, 88
2, 5640, Note_on_c, 0, 76, 0
2, 5640, Note_on_c, 0, 74, 80
2, 5667, Note_on_c, 0, 74, 0
2, 5730, Note_on_c, 0, 85, 80
2, 5760, Note_on_c, 0, 85, 0
2, 5760, Note_on_c, 0, 86, 80
2, 5760, Control_c, 0, 10, 127
2, 5880, Note_on_c, 0, 86, 0
2, 5880, Note_on_c, 0, 74, 80
2, 5916, Note_on_c, 0, 74, 0
2, 6000, Note_on_c, 0, 74, 80
2, 6036, Note_on_c, 0, 74, 0
2, 6120, Note_on_c, 0, 74, 80
2, 6147, Note_on_c, 0, 74, 0
2, 6210, Note_on_c, 0, 78, 80
2, 6240, Note_on_c, 0, 78, 0
2, 6240, Note_on_c, 0, 76, 88
2, 6360, Note_on_c, 0, 76, 0
2, 6360, Note_on_c, 0, 74, 80
2, 6387, Note_on_c, 0, 74, 0
2, 6450, Note_on_c, 0, 78, 80
2, 6480, Note_on_c, 0, 78, 0
2, 6480, Note_on_c, 0, 76, 88
2, 6600, Note_on_c, 0, 76, 0
2, 6600, Note_on_c, 0, 74, 80
2, 6636, Note_on_c, 0, 74, 0
2, 6720, Note_on_c, 0, 74, 80
2, 6720, Note_on_c, 0, 79, 80
2, 6756, Note_on_c, 0, 79, 0
2, 6756, Note_on_c, 0, 74, 0
2, 6840, Note_on_c, 0, 79, 80
2, 6840, Note_on_c, 0, 74, 64
2, 6960, Note_on_c, 0, 74, 0
2, 6960, Note_on_c, 0, 79, 0
2, 6960, Note_on_c, 0, 78, 80
2, 6996, Note_on_c, 0, 78, 0
2, 7080, Note_on_c, 0, 78, 80
2, 7080, Note_on_c, 0, 74, 64
2, 7200, Note_on_c, 0, 74, 0
2, 7200, Note_on_c, 0, 78, 0
2, 7200, Note_on_c, 0, 83, 80
2, 7236, Note_on_c, 0, 83, 0
2, 7320, Note_on_c, 0, 83, 80
2, 7320, Note_on_c, 0, 74, 64
2, 7440, Note_on_c, 0, 74, 0
2, 7440, Note_on_c, 0, 83, 0
2, 7440, Note_on_c, 0, 81, 80
2, 7476, Note_on_c, 0, 81, 0
2, 7560, Note_on_c, 0, 74, 80
2, 7560, Note_on_c, 0, 81, 80
2, 7644, Note_on_c, 0, 81, 0
2, 7644, Note_on_c, 0, 74, 0
2, 7800, Note_on_c, 0, 71, 80
2, 7800, Note_on_c, 0, 79, 80
2, 7920, Note_on_c, 0, 79, 0
2, 7920, Note_on_c, 0, 71, 0
2, 7920, Note_on_c, 0, 67, 80
2, 7920, Note_on_c, 0, 76, 80
2, 7968, Note_on_c, 0, 76, 0
2, 7968, Note_on_c, 0, 67, 0
2, 8040, Note_on_c, 0, 64, 80
2, 8040, Note_on_c, 0, 73, 80
2, 8064, Note_on_c, 0, 73, 0
2, 8064, Note_on_c, 0, 64, 0
2, 8160, Note_on_c, 0, 66, 80
2, 8160, Note_on_c, 0, 74, 80
2, 8400, Note_on_c, 0, 74, 0
2, 8400, Note_on_c, 0, 66, 0
2, 8640, Note_on_c, 0, 62, 88
2, 8700, Note_on_c, 0, 62, 0
2, 8700, Note_on_c, 0, 57, 64
2, 8760, Note_on_c, 0, 57, 0
2, 8760, Note_on_c, 0, 54, 64
2, 8820, Note_on_c, 0, 54, 0
2, 8820, Note_on_c, 0, 57, 64
2, 8880, Note_on_c, 0, 57, 0
2, 8880, Note_on_c, 0, 62, 64
2, 8940, Note_on_c, 0, 62, 0
2, 8940, Note_on_c, 0, 57, 64
2, 9000, Note_on_c, 0, 57, 0
2, 9000, Note_on_c, 0, 64, 64
2, 9060, Note_on_c, 0, 64, 0
2, 9060, Note_on_c, 0, 57, 64
2, 9120, Note_on_c, 0, 57, 0
2, 9120, Note_on_c, 0, 66, 64
2, 9180, Note_on_c, 0, 66, 0
2, 9180, Note_on_c, 0, 57, 64
2, 9240, Note_on_c, 0, 57, 0
2, 9240, Note_on_c, 0, 67, 64
2, 9300, Note_on_c, 0, 67, 0
2, 9300, Note_on_c, 0, 57, 64
2, 9360, Note_on_c, 0, 57, 0
2, 9360, Note_on_c, 0, 69, 64
2, 9420, Note_on_c, 0, 69, 0
2, 9420, Note_on_c, 0, 57, 64
2, 9480, Note_on_c, 0, 57, 0
2, 9480, Note_on_c, 0, 67, 64
2, 9540, Note_on_c, 0, 67, 0
2, 9540, Note_on_c, 0, 57, 64
2, 9600, Note_on_c, 0, 57, 0
2, 9600, Note_on_c, 0, 66, 88
2, 9660, Note_on_c, 0, 66, 0
2, 9660, Note_on_c, 0, 62, 64
2, 9720, Note_on_c, 0, 62, 0
2, 9720, Note_on_c, 0, 57, 64
2, 9780, Note_on_c, 0, 57, 0
2, 9780, Note_on_c, 0, 62, 64
2, 9840, Note_on_c, 0, 62, 0
2, 9840, Note_on_c, 0, 66, 64
2, 9900, Note_on_c, 0, 66, 0
2, 9900, Note_on_c, 0, 62, 64
2, 9960, Note_on_c, 0, 62, 0
2, 9960, Note_on_c, 0, 67, 64
2, 10020, Note_on_c, 0, 67, 0
2, 10020, Note_on_c, 0, 62, 64
2, 10080, Note_on_c, 0, 62, 0
2, 10080, Note_on_c, 0, 69, 64
2, 10140, Note_on_c, 0, 69, 0
2, 10140, Note_on_c, 0, 62, 64
2, 10200, Note_on_c, 0, 62, 0
2, 10200, Note_on_c, 0, 71, 64
2, 10260, Note_on_c, 0, 71, 0
2, 10260, Note_on_c, 0, 62, 64
2, 10320, Note_on_c, 0, 62, 0
2, 10320, Note_on_c, 0, 69, 64
2, 10380, Note_on_c, 0, 69, 0
2, 10380, Note_on_c, 0, 62, 64
2, 10440, Note_on_c, 0, 62, 0
2, 10440, Note_on_c, 0, 73, 64
2, 10500, Note_on_c, 0, 73, 0
2, 10500, Note_on_c, 0, 62, 64
2, 10560, Note_on_c, 0, 62, 0
2, 10560, Note_on_c, 0, 74, 88
2, 10620, Note_on_c, 0, 74, 0
2, 10620, Note_on_c, 0, 69, 48
2, 10680, Note_on_c, 0, 69, 0
2, 10680, Note_on_c, 0, 66, 48
2, 10740, Note_on_c, 0, 66, 0
2, 10740, Note_on_c, 0, 69, 48
2, 10800, Note_on_c, 0, 69, 0
2, 10800, Note_on_c, 0, 74, 48
2, 10860, Note_on_c, 0, 74, 0
2, 10860, Note_on_c, 0, 69, 48
2, 10920, Note_on_c, 0, 69, 0
2, 10920, Note_on_c, 0, 76, 48
2, 10980, Note_on_c, 0, 76, 0
2, 10980, Note_on_c, 0, 69, 48
2, 11040, Note_on_c, 0, 69, 0
2, 11040, Note_on_c, 0, 78, 48
2, 11100, Note_on_c, 0, 78, 0
2, 11100, Note_on_c, 0, 69, 48
2, 11160, Note_on_c, 0, 69, 0
2, 11160, Note_on_c, 0, 79, 48
2, 11220, Note_on_c, 0, 79, 0
2, 11220, Note_on_c, 0, 69, 48
2, 11280, Note_on_c, 0, 69, 0
2, 11280, Note_on_c, 0, 81, 48
2, 11340, Note_on_c, 0, 81, 0
2, 11340, Note_on_c, 0, 69, 48
2, 11400, Note_on_c, 0, 69, 0
2, 11400, Note_on_c, 0, 79, 48
2, 11460, Note_on_c, 0, 79, 0
2, 11460, Note_on_c, 0, 69, 48
2, 11520, Note_on_c, 0, 69, 0
2, 11520, Note_on_c, 0, 78, 72
2, 11580, Note_on_c, 0, 78, 0
2, 11580, Note_on_c, 0, 74, 50
2, 11640, Note_on_c, 0, 74, 0
2, 11640, Note_on_c, 0, 69, 52
2, 11700, Note_on_c, 0, 69, 0
2, 11700, Note_on_c, 0, 74, 54
2, 11760, Note_on_c, 0, 74, 0
2, 11760, Note_on_c, 0, 78, 56
2, 11820, Note_on_c, 0, 78, 0
2, 11820, Note_on_c, 0, 74, 58
2, 11880, Note_on_c, 0, 74, 0
2, 11880, Note_on_c, 0, 79, 60
2, 11940, Note_on_c, 0, 79, 0
2, 11940, Note_on_c, 0, 74, 62
2, 12000, Note_on_c, 0, 74, 0
2, 12000, Note_on_c, 0, 81, 64
2, 12060, Note_on_c, 0, 81, 0
2, 12060, Note_on_c, 0, 74, 66
2, 12120, Note_on_c, 0, 74, 0
2, 12120, Note_on_c, 0, 83, 68
2, 12180, Note_on_c, 0, 83, 0
2, 12180, Note_on_c, 0, 74, 70
2, 12240, Note_on_c, 0, 74, 0
2, 12240, Note_on_c, 0, 81, 72
2, 12300, Note_on_c, 0, 81, 0
2, 12300, Note_on_c, 0, 74, 74
2, 12360, Note_on_c, 0, 74, 0
2, 12360, Note_on_c, 0, 79, 76
2, 12420, Note_on_c, 0, 79, 0
2, 12420, Note_on_c, 0, 74, 78
2, 12480, Note_on_c, 0, 74, 0
2, 12480, Note_on_c, 0, 78, 80
2, 12540, Note_on_c, 0, 78, 0
2, 12540, Note_on_c, 0, 74, 80
2, 12600, Note_on_c, 0, 74, 0
2, 12600, Note_on_c, 0, 73, 80
2, 12660, Note_on_c, 0, 73, 0
2, 12660, Note_on_c, 0, 74, 80
2, 12720, Note_on_c, 0, 74, 0
2, 12720, Note_on_c, 0, 83, 80
2, 12780, Note_on_c, 0, 83, 0
2, 12780, Note_on_c, 0, 74, 80
2, 12840, Note_on_c, 0, 74, 0
2, 12840, Note_on_c, 0, 73, 80
2, 12900, Note_on_c, 0, 73, 0
2, 12900, Note_on_c, 0, 74, 80
2, 12960, Note_on_c, 0, 74, 0
2, 12960, Note_on_c, 0, 81, 80
2, 13020, Note_on_c, 0, 81, 0
2, 13020, Note_on_c, 0, 74, 80
2, 13080, Note_on_c, 0, 74, 0
2, 13080, Note_on_c, 0, 73, 80
2, 13140, Note_on_c, 0, 73, 0
2, 13140, Note_on_c, 0, 74, 80
2, 13200, Note_on_c, 0, 74, 0
2, 13200, Note_on_c, 0, 79, 80
2, 13260, Note_on_c, 0, 79, 0
2, 13260, Note_on_c, 0, 74, 80
2, 13320, Note_on_c, 0, 74, 0
2, 13320, Note_on_c, 0, 73, 80
2, 13380, Note_on_c, 0, 73, 0
2, 13380, Note_on_c, 0, 74, 80
2, 13440, Note_on_c, 0, 74, 0
2, 13440, Note_on_c, 0, 78, 48
2, 13500, Note_on_c, 0, 78, 0
2, 13500, Note_on_c, 0, 74, 48
2, 13518, Note_on_c, 0, 74, 0
2, 13560, Note_on_c, 0, 73, 48
2, 13578, Note_on_c, 0, 73, 0
2, 13620, Note_on_c, 0, 74, 48
2, 13638, Note_on_c, 0, 74, 0
2, 13680, Note_on_c, 0, 83, 48
2, 13740, Note_on_c, 0, 83, 0
2, 13740, Note_on_c, 0, 74, 48
2, 13758, Note_on_c, 0, 74, 0
2, 13800, Note_on_c, 0, 73, 48
2, 13818, Note_on_c, 0, 73, 0
2, 13860, Note_on_c, 0, 74, 48
2, 13878, Note_on_c, 0, 74, 0
2, 13920, Note_on_c, 0, 81, 48
2, 13980, Note_on_c, 0, 81, 0
2, 13980, Note_on_c, 0, 74, 48
2, 13998, Note_on_c, 0, 74, 0
2, 14040, Note_on_c, 0, 73, 48
2, 14058, Note_on_c, 0, 73, 0
2, 14100, Note_on_c, 0, 74, 48
2, 14118, Note_on_c, 0, 74, 0
2, 14160, Note_on_c, 0, 79, 48
2, 14220, Note_on_c, 0, 79, 0
2, 14220, Note_on_c, 0, 74, 48
2, 14238, Note_on_c, 0, 74, 0
2, 14280, Note_on_c, 0, 73, 48
2, 14298, Note_on_c, 0, 73, 0
2, 14340, Note_on_c, 0, 74, 48
2, 14358, Note_on_c, 0, 74, 0
2, 14400, Note_on_c, 0, 78, 80
2, 14460, Note_on_c, 0, 78, 0
2, 14460, Note_on_c, 0, 74, 80
2, 14478, Note_on_c, 0, 74, 0
2, 14520, Note_on_c, 0, 76, 80
2, 14538, Note_on_c, 0, 76, 0
2, 14580, Note_on_c, 0, 78, 80
2, 14598, Note_on_c, 0, 78, 0
2, 14640, Note_on_c, 0, 79, 80
2, 14700, Note_on_c, 0, 79, 0
2, 14700, Note_on_c, 0, 81, 80
2, 14760, Note_on_c, 0, 81, 0
2, 14760, Note_on_c, 0, 83, 80
2, 14820, Note_on_c, 0, 83, 0
2, 14820, Note_on_c, 0, 85, 80
2, 14880, Note_on_c, 0, 85, 0
2, 14880, Note_on_c, 0, 86, 80
2, 14940, Note_on_c, 0, 86, 0
2, 14940, Note_on_c, 0, 85, 80
2, 15000, Note_on_c, 0, 85, 0
2, 15000, Note_on_c, 0, 86, 80
2, 15060, Note_on_c, 0, 86, 0
2, 15060, Note_on_c, 0, 85, 80
2, 15120, Note_on_c, 0, 85, 0
2, 15120, Note_on_c, 0, 86, 80
2, 15180, Note_on_c, 0, 86, 0
2, 15180, Note_on_c, 0, 81, 80
2, 15240, Note_on_c, 0, 81, 0
2, 15240, Note_on_c, 0, 78, 80
2, 15300, Note_on_c, 0, 78, 0
2, 15300, Note_on_c, 0, 74, 80
2, 15360, Note_on_c, 0, 74, 0
2, 15360, Note_on_c, 0, 81, 80
2, 15576, Note_on_c, 0, 81, 0
2, 15600, Note_on_c, 0, 61, 88
2, 15600, Note_on_c, 0, 69, 88
2, 15654, Note_on_c, 0, 69, 0
2, 15654, Note_on_c, 0, 61, 0
2, 15780, Note_on_c, 0, 61, 88
2, 15780, Note_on_c, 0, 69, 88
2, 15798, Note_on_c, 0, 69, 0
2, 15798, Note_on_c, 0, 61, 0
2, 15840, Note_on_c, 0, 61, 88
2, 15840, Note_on_c, 0, 69, 88
2, 16080, Note_on_c, 0, 69, 0
2, 16080, Note_on_c, 0, 61, 0
2, 16290, Note_on_c, 0, 83, 48
2, 16320, Note_on_c, 0, 83, 0
2, 16320, Note_on_c, 0, 81, 48
2, 16380, Note_on_c, 0, 81, 0
2, 16380, Note_on_c, 0, 80, 48
2, 16440, Note_on_c, 0, 80, 0
2, 16440, Note_on_c, 0, 81, 48
2, 16500, Note_on_c, 0, 81, 0
2, 16500, Note_on_c, 0, 83, 48
2, 16560, Note_on_c, 0, 83, 0
2, 16560, Note_on_c, 0, 81, 48
2, 16680, Note_on_c, 0, 81, 0
2, 16770, Note_on_c, 0, 80, 48
2, 16800, Note_on_c, 0, 80, 0
2, 16800, Note_on_c, 0, 78, 48
2, 16860, Note_on_c, 0, 78, 0
2, 16860, Note_on_c, 0, 77, 48
2, 16920, Note_on_c, 0, 77, 0
2, 16920, Note_on_c, 0, 78, 48
2, 16980, Note_on_c, 0, 78, 0
2, 16980, Note_on_c, 0, 80, 48
2, 17040, Note_on_c, 0, 80, 0
2, 17040, Note_on_c, 0, 78, 48
2, 17160, Note_on_c, 0, 78, 0
2, 17250, Note_on_c, 0, 88, 48
2, 17280, Note_on_c, 0, 88, 0
2, 17280, Note_on_c, 0, 86, 48
2, 17340, Note_on_c, 0, 86, 0
2, 17340, Note_on_c, 0, 85, 48
2, 17400, Note_on_c, 0, 85, 0
2, 17400, Note_on_c, 0, 86, 48
2, 17460, Note_on_c, 0, 86, 0
2, 17460, Note_on_c, 0, 88, 48
2, 17520, Note_on_c, 0, 88, 0
2, 17520, Note_on_c, 0, 86, 48
2, 17640, Note_on_c, 0, 86, 0
2, 17730, Note_on_c, 0, 86, 48
2, 17760, Note_on_c, 0, 86, 0
2, 17760, Note_on_c, 0, 85, 48
2, 17820, Note_on_c, 0, 85, 0
2, 17820, Note_on_c, 0, 83, 48
2, 17880, Note_on_c, 0, 83, 0
2, 17880, Note_on_c, 0, 85, 48
2, 17940, Note_on_c, 0, 85, 0
2, 17940, Note_on_c, 0, 86, 48
2, 18000, Note_on_c, 0, 86, 0
2, 18000, Note_on_c, 0, 85, 48
2, 18120, Note_on_c, 0, 85, 0
2, 18210, Note_on_c, 0, 85, 48
2, 18240, Note_on_c, 0, 85, 0
2, 18240, Note_on_c, 0, 83, 48
2, 18300, Note_on_c, 0, 83, 0
2, 18300, Note_on_c, 0, 82, 48
2, 18360, Note_on_c, 0, 82, 0
2, 18360, Note_on_c, 0, 83, 48
2, 18420, Note_on_c, 0, 83, 0
2, 18420, Note_on_c, 0, 85, 48
2, 18480, Note_on_c, 0, 85, 0
2, 18480, Note_on_c, 0, 83, 48
2, 18720, Note_on_c, 0, 83, 0
2, 18720, Note_on_c, 0, 71, 72
2, 18720, Note_on_c, 0, 74, 72
2, 18840, Note_on_c, 0, 74, 0
2, 18840, Note_on_c, 0, 71, 0
2, 18840, Note_on_c, 0, 83, 48
2, 18840, Note_on_c, 0, 86, 48
2, 18876, Note_on_c, 0, 86, 0
2, 18876, Note_on_c, 0, 83, 0
2, 18960, Note_on_c, 0, 83, 48
2, 18960, Note_on_c, 0, 86, 48
2, 18996, Note_on_c, 0, 86, 0
2, 18996, Note_on_c, 0, 83, 0
2, 19080, Note_on_c, 0, 82, 48
2, 19080, Note_on_c, 0, 85, 48
2, 19112, Note_on_c, 0, 85, 0
2, 19112, Note_on_c, 0, 82, 0
2, 19185, Note_on_c, 0, 85, 48
2, 19200, Note_on_c, 0, 83, 48
2, 19215, Note_on_c, 0, 85, 0
2, 19260, Note_on_c, 0, 83, 0
2, 19260, Note_on_c, 0, 82, 48
2, 19320, Note_on_c, 0, 82, 0
2, 19320, Note_on_c, 0, 83, 48
2, 19380, Note_on_c, 0, 83, 0
2, 19380, Note_on_c, 0, 85, 48
2, 19440, Note_on_c, 0, 85, 0
2, 19440, Note_on_c, 0, 83, 48
2, 19680, Note_on_c, 0, 83, 0
2, 19680, Note_on_c, 0, 71, 72
2, 19680, Note_on_c, 0, 74, 72
2, 19800, Note_on_c, 0, 74, 0
2, 19800, Note_on_c, 0, 71, 0
2, 19800, Note_on_c, 0, 83, 48
2, 19800, Note_on_c, 0, 86, 48
2, 19836, Note_on_c, 0, 86, 0
2, 19836, Note_on_c, 0, 83, 0
2, 19920, Note_on_c, 0, 83, 48
2, 19920, Note_on_c, 0, 86, 48
2, 19956, Note_on_c, 0, 86, 0
2, 19956, Note_on_c, 0, 83, 0
2, 20040, Note_on_c, 0, 82, 48
2, 20040, Note_on_c, 0, 85, 48
2, 20067, Note_on_c, 0, 85, 0
2, 20067, Note_on_c, 0, 82, 0
2, 20130, Note_on_c, 0, 85, 48
2, 20160, Note_on_c, 0, 85, 0
2, 20160, Note_on_c, 0, 83, 48
2, 20220, Note_on_c, 0, 83, 0
2, 20220, Note_on_c, 0, 82, 50
2, 20280, Note_on_c, 0, 82, 0
2, 20280, Note_on_c, 0, 83, 52
2, 20340, Note_on_c, 0, 83, 0
2, 20340, Note_on_c, 0, 85, 54
2, 20400, Note_on_c, 0, 85, 0
2, 20400, Note_on_c, 0, 83, 56
2, 20520, Note_on_c, 0, 83, 0
2, 20610, Note_on_c, 0, 83, 63
2, 20640, Note_on_c, 0, 83, 0
2, 20640, Note_on_c, 0, 81, 64
2, 20700, Note_on_c, 0, 81, 0
2, 20700, Note_on_c, 0, 80, 66
2, 20760, Note_on_c, 0, 80, 0
2, 20760, Note_on_c, 0, 81, 68
2, 20820, Note_on_c, 0, 81, 0
2, 20820, Note_on_c, 0, 83, 70
2, 20880, Note_on_c, 0, 83, 0
2, 20880, Note_on_c, 0, 81, 72
2, 21120, Note_on_c, 0, 81, 0
2, 21120, Note_on_c, 0, 88, 88
2, 21240, Note_on_c, 0, 88, 0
2, 21240, Note_on_c, 0, 76, 80
2, 21276, Note_on_c, 0, 76, 0
2, 21360, Note_on_c, 0, 76, 80
2, 21396, Note_on_c, 0, 76, 0
2, 21480, Note_on_c, 0, 76, 80
2, 21516, Note_on_c, 0, 76, 0
2, 21600, Note_on_c, 0, 76, 80
2, 21660, Note_on_c, 0, 76, 0
2, 21660, Note_on_c, 0, 78, 80
2, 21720, Note_on_c, 0, 78, 0
2, 21720, Note_on_c, 0, 76, 80
2, 21780, Note_on_c, 0, 76, 0
2, 21780, Note_on_c, 0, 74, 80
2, 21840, Note_on_c, 0, 74, 0
2, 21840, Note_on_c, 0, 73, 80
2, 21900, Note_on_c, 0, 73, 0
2, 21900, Note_on_c, 0, 71, 80
2, 21960, Note_on_c, 0, 71, 0
2, 21960, Note_on_c, 0, 69, 80
2, 22020, Note_on_c, 0, 69, 0
2, 22020, Note_on_c, 0, 68, 80
2, 22080, Note_on_c, 0, 68, 0
2, 22080, Note_on_c, 0, 69, 80
2, 22140, Note_on_c, 0, 69, 0
2, 22140, Note_on_c, 0, 73, 80
2, 22200, Note_on_c, 0, 73, 0
2, 22200, Note_on_c, 0, 71, 80
2, 22260, Note_on_c, 0, 71, 0
2, 22260, Note_on_c, 0, 74, 80
2, 22320, Note_on_c, 0, 74, 0
2, 22320, Note_on_c, 0, 73, 80
2, 22380, Note_on_c, 0, 73, 0
2, 22380, Note_on_c, 0, 76, 80
2, 22440, Note_on_c, 0, 76, 0
2, 22440, Note_on_c, 0, 74, 80
2, 22500, Note_on_c, 0, 74, 0
2, 22500, Note_on_c, 0, 78, 80
2, 22560, Note_on_c, 0, 78, 0
2, 22560, Note_on_c, 0, 76, 77
2, 22680, Note_on_c, 0, 76, 0
2, 22680, Note_on_c, 0, 78, 70
2, 22740, Note_on_c, 0, 78, 0
2, 22740, Note_on_c, 0, 80, 66
2, 22800, Note_on_c, 0, 80, 0
2, 22800, Note_on_c, 0, 81, 62
2, 22860, Note_on_c, 0, 81, 0
2, 22860, Note_on_c, 0, 83, 59
2, 22920, Note_on_c, 0, 83, 0
2, 22920, Note_on_c, 0, 85, 55
2, 22980, Note_on_c, 0, 85, 0
2, 22980, Note_on_c, 0, 86, 51
2, 23040, Note_on_c, 0, 86, 0
2, 23040, Note_on_c, 0, 88, 64
2, 23160, Note_on_c, 0, 88, 0
2, 23160, Note_on_c, 0, 76, 48
2, 23196, Note_on_c, 0, 76, 0
2, 23280, Note_on_c, 0, 76, 48
2, 23316, Note_on_c, 0, 76, 0
2, 23400, Note_on_c, 0, 76, 48
2, 23436, Note_on_c, 0, 76, 0
2, 23520, Note_on_c, 0, 76, 48
2, 23580, Note_on_c, 0, 76, 0
2, 23580, Note_on_c, 0, 78, 48
2, 23640, Note_on_c, 0, 78, 0
2, 23640, Note_on_c, 0, 76, 48
2, 23700, Note_on_c, 0, 76, 0
2, 23700, Note_on_c, 0, 74, 48
2, 23760, Note_on_c, 0, 74, 0
2, 23760, Note_on_c, 0, 73, 48
2, 23820, Note_on_c, 0, 73, 0
2, 23820, Note_on_c, 0, 71, 48
2, 23838, Note_on_c, 0, 71, 0
2, 23880, Note_on_c, 0, 69, 48
2, 23898, Note_on_c, 0, 69, 0
2, 23940, Note_on_c, 0, 68, 48
2, 23958, Note_on_c, 0, 68, 0
2, 24000, Note_on_c, 0, 69, 48
2, 24060, Note_on_c, 0, 69, 0
2, 24060, Note_on_c, 0, 73, 50
2, 24120, Note_on_c, 0, 73, 0
2, 24120, Note_on_c, 0, 71, 52
2, 24180, Note_on_c, 0, 71, 0
2, 24180, Note_on_c, 0, 74, 54
2, 24240, Note_on_c, 0, 74, 0
2, 24240, Note_on_c, 0, 73, 56
2, 24300, Note_on_c, 0, 73, 0
2, 24300, Note_on_c, 0, 76, 58
2, 24360, Note_on_c, 0, 76, 0
2, 24360, Note_on_c, 0, 74, 60
2, 24420, Note_on_c, 0, 74, 0
2, 24420, Note_on_c, 0, 78, 62
2, 24480, Note_on_c, 0, 78, 0
2, 24480, Note_on_c, 0, 76, 64
2, 24600, Note_on_c, 0, 76, 0
2, 24600, Note_on_c, 0, 78, 68
2, 24660, Note_on_c, 0, 78, 0
2, 24660, Note_on_c, 0, 80, 70
2, 24720, Note_on_c, 0, 80, 0
2, 24720, Note_on_c, 0, 81, 72
2, 24780, Note_on_c, 0, 81, 0
2, 24780, Note_on_c, 0, 83, 74
2, 24840, Note_on_c, 0, 83, 0
2, 24840, Note_on_c, 0, 85, 76
2, 24900, Note_on_c, 0, 85, 0
2, 24900, Note_on_c, 0, 86, 78
2, 24960, Note_on_c, 0, 86, 0
2, 24960, Note_on_c, 0, 88, 88
2, 25020, Note_on_c, 0, 88, 0
2, 25020, Note_on_c, 0, 78, 72
2, 25080, Note_on_c, 0, 78, 0
2, 25080, Note_on_c, 0, 77, 72
2, 25140, Note_on_c, 0, 77, 0
2, 25140, Note_on_c, 0, 78, 72
2, 25200, Note_on_c, 0, 78, 0
2, 25200, Note_on_c, 0, 77, 72
2, 25260, Note_on_c, 0, 77, 0
2, 25260, Note_on_c, 0, 78, 72
2, 25320, Note_on_c, 0, 78, 0
2, 25320, Note_on_c, 0, 77, 72
2, 25380, Note_on_c, 0, 77, 0
2, 25380, Note_on_c, 0, 78, 72
2, 25440, Note_on_c, 0, 78, 0
2, 25440, Note_on_c, 0, 86, 88
2, 25500, Note_on_c, 0, 86, 0
2, 25500, Note_on_c, 0, 74, 72
2, 25560, Note_on_c, 0, 74, 0
2, 25560, Note_on_c, 0, 73, 72
2, 25620, Note_on_c, 0, 73, 0
2, 25620, Note_on_c, 0, 74, 72
2, 25680, Note_on_c, 0, 74, 0
2, 25680, Note_on_c, 0, 73, 72
2, 25740, Note_on_c, 0, 73, 0
2, 25740, Note_on_c, 0, 74, 72
2, 25800, Note_on_c, 0, 74, 0
2, 25800, Note_on_c, 0, 73, 72
2, 25860, Note_on_c, 0, 73, 0
2, 25860, Note_on_c, 0, 74, 72
2, 25920, Note_on_c, 0, 74, 0
2, 25920, Note_on_c, 0, 86, 88
2, 25980, Note_on_c, 0, 86, 0
2, 25980, Note_on_c, 0, 83, 72
2, 26040, Note_on_c, 0, 83, 0
2, 26040, Note_on_c, 0, 82, 72
2, 26100, Note_on_c, 0, 82, 0
2, 26100, Note_on_c, 0, 83, 72
2, 26160, Note_on_c, 0, 83, 0
2, 26160, Note_on_c, 0, 82, 72
2, 26220, Note_on_c, 0, 82, 0
2, 26220, Note_on_c, 0, 83, 72
2, 26280, Note_on_c, 0, 83, 0
2, 26280, Note_on_c, 0, 82, 72
2, 26340, Note_on_c, 0, 82, 0
2, 26340, Note_on_c, 0, 83, 72
2, 26400, Note_on_c, 0, 83, 0
2, 26400, Note_on_c, 0, 85, 88
2, 26460, Note_on_c, 0, 85, 0
2, 26460, Note_on_c, 0, 81, 72
2, 26520, Note_on_c, 0, 81, 0
2, 26520, Note_on_c, 0, 80, 72
2, 26580, Note_on_c, 0, 80, 0
2, 26580, Note_on_c, 0, 81, 72
2, 26640, Note_on_c, 0, 81, 0
2, 26640, Note_on_c, 0, 80, 72
2, 26700, Note_on_c, 0, 80, 0
2, 26700, Note_on_c, 0, 81, 72
2, 26760, Note_on_c, 0, 81, 0
2, 26760, Note_on_c, 0, 80, 72
2, 26820, Note_on_c, 0, 80, 0
2, 26820, Note_on_c, 0, 81, 72
2, 26880, Note_on_c, 0, 81, 0
2, 26880, Note_on_c, 0, 86, 80
2, 26940, Note_on_c, 0, 86, 0
2, 26940, Note_on_c, 0, 83, 80
2, 27000, Note_on_c, 0, 83, 0
2, 27000, Note_on_c, 0, 82, 80
2, 27060, Note_on_c, 0, 82, 0
2, 27060, Note_on_c, 0, 83, 80
2, 27120, Note_on_c, 0, 83, 0
2, 27120, Note_on_c, 0, 85, 80
2, 27180, Note_on_c, 0, 85, 0
2, 27180, Note_on_c, 0, 81, 80
2, 27240, Note_on_c, 0, 81, 0
2, 27240, Note_on_c, 0, 80, 80
2, 27300, Note_on_c, 0, 80, 0
2, 27300, Note_on_c, 0, 81, 80
2, 27360, Note_on_c, 0, 81, 0
2, 27360, Note_on_c, 0, 86, 80
2, 27420, Note_on_c, 0, 86, 0
2, 27420, Note_on_c, 0, 83, 80
2, 27480, Note_on_c, 0, 83, 0
2, 27480, Note_on_c, 0, 82, 80
2, 27540, Note_on_c, 0, 82, 0
2, 27540, Note_on_c, 0, 83, 80
2, 27600, Note_on_c, 0, 83, 0
2, 27600, Note_on_c, 0, 85, 80
2, 27660, Note_on_c, 0, 85, 0
2, 27660, Note_on_c, 0, 81, 80
2, 27720, Note_on_c, 0, 81, 0
2, 27720, Note_on_c, 0, 80, 80
2, 27780, Note_on_c, 0, 80, 0
2, 27780, Note_on_c, 0, 81, 80
2, 27840, Note_on_c, 0, 81, 0
2, 27840, Note_on_c, 0, 86, 80
2, 27900, Note_on_c, 0, 86, 0
2, 27900, Note_on_c, 0, 83, 80
2, 27930, Note_on_c, 0, 83, 0
2, 27960, Note_on_c, 0, 82, 80
2, 27990, Note_on_c, 0, 82, 0
2, 28020, Note_on_c, 0, 83, 80
2, 28050, Note_on_c, 0, 83, 0
2, 28080, Note_on_c, 0, 84, 80
2, 28140, Note_on_c, 0, 84, 0
2, 28140, Note_on_c, 0, 81, 80
2, 28170, Note_on_c, 0, 81, 0
2, 28200, Note_on_c, 0, 80, 80
2, 28230, Note_on_c, 0, 80, 0
2, 28260, Note_on_c, 0, 81, 80
2, 28290, Note_on_c, 0, 81, 0
2, 28320, Note_on_c, 0, 86, 80
2, 28380, Note_on_c, 0, 86, 0
2, 28380, Note_on_c, 0, 83, 80
2, 28410, Note_on_c, 0, 83, 0
2, 28440, Note_on_c, 0, 82, 80
2, 28470, Note_on_c, 0, 82, 0
2, 28500, Note_on_c, 0, 83, 80
2, 28530, Note_on_c, 0, 83, 0
2, 28560, Note_on_c, 0, 84, 80
2, 28620, Note_on_c, 0, 84, 0
2, 28620, Note_on_c, 0, 81, 80
2, 28650, Note_on_c, 0, 81, 0
2, 28680, Note_on_c, 0, 80, 80
2, 28710, Note_on_c, 0, 80, 0
2, 28740, Note_on_c, 0, 81, 80
2, 28770, Note_on_c, 0, 81, 0
2, 28860, Note_on_c, 0, 89, 88
2, 28920, Note_on_c, 0, 89, 0
2, 28920, Note_on_c, 0, 86, 88
2, 28980, Note_on_c, 0, 86, 0
2, 28980, Note_on_c, 0, 89, 88
2, 29040, Note_on_c, 0, 89, 0
2, 29040, Note_on_c, 0, 82, 88
2, 29100, Note_on_c, 0, 82, 0
2, 29100, Note_on_c, 0, 86, 88
2, 29160, Note_on_c, 0, 86, 0
2, 29160, Note_on_c, 0, 77, 88
2, 29220, Note_on_c, 0, 77, 0
2, 29220, Note_on_c, 0, 82, 88
2, 29280, Note_on_c, 0, 82, 0
2, 29280, Note_on_c, 0, 74, 88
2, 29400, Note_on_c, 0, 74, 0
2, 29580, Note_on_c, 0, 74, 84
2, 29640, Note_on_c, 0, 74, 0
2, 29640, Note_on_c, 0, 77, 82
2, 29700, Note_on_c, 0, 77, 0
2, 29700, Note_on_c, 0, 82, 79
2, 29760, Note_on_c, 0, 82, 0
2, 29760, Note_on_c, 0, 86, 76
2, 29820, Note_on_c, 0, 86, 0
2, 29820, Note_on_c, 0, 77, 73
2, 29880, Note_on_c, 0, 77, 0
2, 29880, Note_on_c, 0, 82, 71
2, 29940, Note_on_c, 0, 82, 0
2, 29940, Note_on_c, 0, 86, 68
2, 30000, Note_on_c, 0, 86, 0
2, 30000, Note_on_c, 0, 89, 65
2, 30060, Note_on_c, 0, 89, 0
2, 30060, Note_on_c, 0, 77, 62
2, 30078, Note_on_c, 0, 77, 0
2, 30120, Note_on_c, 0, 82, 59
2, 30138, Note_on_c, 0, 82, 0
2, 30180, Note_on_c, 0, 86, 57
2, 30198, Note_on_c, 0, 86, 0
2, 30240, Note_on_c, 0, 89, 54
2, 30360, Note_on_c, 0, 89, 0
2, 30780, Note_on_c, 0, 84, 88
2, 30840, Note_on_c, 0, 84, 0
2, 30840, Note_on_c, 0, 81, 88
2, 30900, Note_on_c, 0, 81, 0
2, 30900, Note_on_c, 0, 84, 88
2, 30960, Note_on_c, 0, 84, 0
2, 30960, Note_on_c, 0, 78, 88
2, 31020, Note_on_c, 0, 78, 0
2, 31020, Note_on_c, 0, 81, 88
2, 31080, Note_on_c, 0, 81, 0
2, 31080, Note_on_c, 0, 75, 88
2, 31140, Note_on_c, 0, 75, 0
2, 31140, Note_on_c, 0, 78, 88
2, 31200, Note_on_c, 0, 78, 0
2, 31200, Note_on_c, 0, 72, 88
2, 31260, Note_on_c, 0, 72, 0
2, 31260, Note_on_c, 0, 75, 88
2, 31320, Note_on_c, 0, 75, 0
2, 31320, Note_on_c, 0, 69, 88
2, 31380, Note_on_c, 0, 69, 0
2, 31380, Note_on_c, 0, 72, 88
2, 31440, Note_on_c, 0, 72, 0
2, 31440, Note_on_c, 0, 66, 88
2, 31500, Note_on_c, 0, 66, 0
2, 31500, Note_on_c, 0, 69, 88
2, 31560, Note_on_c, 0, 69, 0
2, 31560, Note_on_c, 0, 63, 88
2, 31620, Note_on_c, 0, 63, 0
2, 31620, Note_on_c, 0, 66, 88
2, 31680, Note_on_c, 0, 66, 0
2, 31800, Note_on_c, 0, 64, 88
2, 31836, Note_on_c, 0, 64, 0
2, 31920, Note_on_c, 0, 69, 88
2, 31956, Note_on_c, 0, 69, 0
2, 32040, Note_on_c, 0, 73, 88
2, 32076, Note_on_c, 0, 73, 0
2, 32160, Note_on_c, 0, 76, 88
2, 32196, Note_on_c, 0, 76, 0
2, 32280, Note_on_c, 0, 81, 88
2, 32316, Note_on_c, 0, 81, 0
2, 32400, Note_on_c, 0, 85, 88
2, 32436, Note_on_c, 0, 85, 0
2, 32520, Note_on_c, 0, 88, 88
2, 32556, Note_on_c, 0, 88, 0
2, 33120, Note_on_c, 0, 83, 53
2, 33150, Note_on_c, 0, 83, 0
2, 33150, Note_on_c, 0, 85, 55
2, 33180, Note_on_c, 0, 85, 0
2, 33180, Note_on_c, 0, 83, 57
2, 33210, Note_on_c, 0, 83, 0
2, 33210, Note_on_c, 0, 85, 58
2, 33240, Note_on_c, 0, 85, 0
2, 33240, Note_on_c, 0, 83, 60
2, 33270, Note_on_c, 0, 83, 0
2, 33270, Note_on_c, 0, 85, 62
2, 33300, Note_on_c, 0, 85, 0
2, 33300, Note_on_c, 0, 83, 63
2, 33330, Note_on_c, 0, 83, 0
2, 33330, Note_on_c, 0, 85, 65
2, 33360, Note_on_c, 0, 85, 0
2, 33360, Note_on_c, 0, 83, 67
2, 33390, Note_on_c, 0, 83, 0
2, 33390, Note_on_c, 0, 85, 68
2, 33420, Note_on_c, 0, 85, 0
2, 33420, Note_on_c, 0, 83, 70
2, 33450, Note_on_c, 0, 83, 0
2, 33450, Note_on_c, 0, 85, 72
2, 33480, Note_on_c, 0, 85, 0
2, 33480, Note_on_c, 0, 83, 73
2, 33500, Note_on_c, 0, 83, 0
2, 33500, Note_on_c, 0, 85, 74
2, 33520, Note_on_c, 0, 85, 0
2, 33520, Note_on_c, 0, 83, 76
2, 33540, Note_on_c, 0, 83, 0
2, 33540, Note_on_c, 0, 81, 77
2, 33570, Note_on_c, 0, 81, 0
2, 33570, Note_on_c, 0, 83, 78
2, 33600, Note_on_c, 0, 83, 0
2, 33600, Note_on_c, 0, 81, 80
2, 33720, Note_on_c, 0, 81, 0
2, 33840, Note_on_c, 0, 81, 64
2, 33840, Note_on_c, 0, 78, 64
2, 33876, Note_on_c, 0, 78, 0
2, 33876, Note_on_c, 0, 81, 0
2, 33960, Note_on_c, 0, 76, 64
2, 33960, Note_on_c, 0, 80, 64
2, 33978, Note_on_c, 0, 80, 0
2, 33996, Note_on_c, 0, 76, 0
2, 34020, Note_on_c, 0, 78, 64
2, 34050, Note_on_c, 0, 78, 0
2, 34050, Note_on_c, 0, 80, 64
2, 34080, Note_on_c, 0, 80, 0
2, 34080, Note_on_c, 0, 74, 64
2, 34080, Note_on_c, 0, 78, 64
2, 34140, Note_on_c, 0, 78, 0
2, 34140, Note_on_c, 0, 74, 0
2, 34320, Note_on_c, 0, 74, 64
2, 34320, Note_on_c, 0, 78, 64
2, 34356, Note_on_c, 0, 78, 0
2, 34356, Note_on_c, 0, 74, 0
2, 34440, Note_on_c, 0, 73, 64
2, 34440, Note_on_c, 0, 76, 64
2, 34458, Note_on_c, 0, 76, 0
2, 34476, Note_on_c, 0, 73, 0
2, 34500, Note_on_c, 0, 74, 64
2, 34530, Note_on_c, 0, 74, 0
2, 34530, Note_on_c, 0, 76, 64
2, 34560, Note_on_c, 0, 76, 0
2, 34560, Note_on_c, 0, 71, 64
2, 34560, Note_on_c, 0, 74, 64
2, 34620, Note_on_c, 0, 74, 0
2, 34620, Note_on_c, 0, 71, 0
2, 34800, Note_on_c, 0, 73, 88
2, 34800, Note_on_c, 0, 64, 88
2, 34836, Note_on_c, 0, 64, 0
2, 34836, Note_on_c, 0, 73, 0
2, 34920, Note_on_c, 0, 73, 88
2, 34920, Note_on_c, 0, 64, 88
2, 35040, Note_on_c, 0, 64, 0
2, 35040, Note_on_c, 0, 73, 0
2, 35040, Note_on_c, 0, 66, 88
2, 35040, Note_on_c, 0, 71, 88
2, 35160, Note_on_c, 0, 71, 0
2, 35160, Note_on_c, 0, 66, 0
2, 35280, Note_on_c, 0, 62, 88
2, 35280, Note_on_c, 0, 68, 88
2, 35316, Note_on_c, 0, 68, 0
2, 35316, Note_on_c, 0, 62, 0
2, 35400, Note_on_c, 0, 62, 88
2, 35400, Note_on_c, 0, 68, 88
2, 35520, Note_on_c, 0, 68, 0
2, 35520, Note_on_c, 0, 62, 0
2, 35520, Note_on_c, 0, 61, 88
2, 35520, Note_on_c, 0, 69, 88
2, 35640, Note_on_c, 0, 69, 0
2, 35640, Note_on_c, 0, 61, 0
2, 35760, Note_on_c, 0, 81, 64
2, 35820, Note_on_c, 0, 81, 0
2, 35820, Note_on_c, 0, 83, 64
2, 35880, Note_on_c, 0, 83, 0
2, 35880, Note_on_c, 0, 80, 64
2, 35940, Note_on_c, 0, 80, 0
2, 35940, Note_on_c, 0, 81, 64
2, 36000, Note_on_c, 0, 81, 0
2, 36000, Note_on_c, 0, 78, 64
2, 36060, Note_on_c, 0, 78, 0
2, 36240, Note_on_c, 0, 78, 64
2, 36300, Note_on_c, 0, 78, 0
2, 36300, Note_on_c, 0, 80, 64
2, 36360, Note_on_c, 0, 80, 0
2, 36360, Note_on_c, 0, 76, 64
2, 36420, Note_on_c, 0, 76, 0
2, 36420, Note_on_c, 0, 78, 64
2, 36480, Note_on_c, 0, 78, 0
2, 36480, Note_on_c, 0, 74, 64
2, 36540, Note_on_c, 0, 74, 0
2, 36720, Note_on_c, 0, 73, 88
2, 36720, Note_on_c, 0, 64, 88
2, 36756, Note_on_c, 0, 64, 0
2, 36756, Note_on_c, 0, 73, 0
2, 36840, Note_on_c, 0, 64, 88
2, 36840, Note_on_c, 0, 73, 88
2, 36960, Note_on_c, 0, 73, 0
2, 36960, Note_on_c, 0, 64, 0
2, 36960, Note_on_c, 0, 66, 88
2, 36960, Note_on_c, 0, 71, 88
2, 36996, Note_on_c, 0, 71, 0
2, 36996, Note_on_c, 0, 66, 0
2, 37080, Note_on_c, 0, 66, 88
2, 37080, Note_on_c, 0, 71, 88
2, 37200, Note_on_c, 0, 71, 0
2, 37200, Note_on_c, 0, 66, 0
2, 37200, Note_on_c, 0, 62, 88
2, 37200, Note_on_c, 0, 68, 88
2, 37236, Note_on_c, 0, 68, 0
2, 37236, Note_on_c, 0, 62, 0
2, 37320, Note_on_c, 0, 62, 88
2, 37320, Note_on_c, 0, 68, 88
2, 37356, Note_on_c, 0, 68, 0
2, 37356, Note_on_c, 0, 62, 0
2, 37440, Note_on_c, 0, 69, 88
2, 37500, Note_on_c, 0, 69, 0
2, 37500, Note_on_c, 0, 64, 88
2, 37560, Note_on_c, 0, 64, 0
2, 37560, Note_on_c, 0, 73, 88
2, 37620, Note_on_c, 0, 73, 0
2, 37620, Note_on_c, 0, 64, 88
2, 37680, Note_on_c, 0, 64, 0
2, 37680, Note_on_c, 0, 69, 88
2, 37740, Note_on_c, 0, 69, 0
2, 37740, Note_on_c, 0, 64, 88
2, 37800, Note_on_c, 0, 64, 0
2, 37800, Note_on_c, 0, 68, 88
2, 37860, Note_on_c, 0, 68, 0
2, 37860, Note_on_c, 0, 64, 88
2, 37920, Note_on_c, 0, 64, 0
2, 37920, Note_on_c, 0, 69, 88
2, 37980, Note_on_c, 0, 69, 0
2, 37980, Note_on_c, 0, 64, 88
2, 38040, Note_on_c, 0, 64, 0
2, 38040, Note_on_c, 0, 73, 88
2, 38100, Note_on_c, 0, 73, 0
2, 38100, Note_on_c, 0, 64, 88
2, 38160, Note_on_c, 0, 64, 0
2, 38160, Note_on_c, 0, 69, 88
2, 38220, Note_on_c, 0, 69, 0
2, 38220, Note_on_c, 0, 64, 88
2, 38280, Note_on_c, 0, 64, 0
2, 38280, Note_on_c, 0, 68, 88
2, 38340, Note_on_c, 0, 68, 0
2, 38340, Note_on_c, 0, 64, 88
2, 38400, Note_on_c, 0, 64, 0
2, 38400, Note_on_c, 0, 69, 88
2, 38520, Note_on_c, 0, 69, 0
2, 38640, Note_on_c, 0, 69, 88
2, 38640, Note_on_c, 0, 73, 88
2, 38694, Note_on_c, 0, 73, 0
2, 38694, Note_on_c, 0, 69, 0
2, 38820, Note_on_c, 0, 73, 88
2, 38820, Note_on_c, 0, 76, 88
2, 38838, Note_on_c, 0, 76, 0
2, 38838, Note_on_c, 0, 73, 0
2, 38880, Note_on_c, 0, 69, 88
2, 38880, Note_on_c, 0, 73, 88
2, 39120, Note_on_c, 0, 73, 0
2, 39120, Note_on_c, 0, 69, 0
2, 39720, Note_on_c, 0, 73, 80
2, 39720, Note_on_c, 0, 81, 80
2, 39756, Note_on_c, 0, 81, 0
2, 39756, Note_on_c, 0, 73, 0
2, 39840, Note_on_c, 0, 74, 80
2, 39840, Note_on_c, 0, 80, 80
2, 39960, Note_on_c, 0, 80, 0
2, 39960, Note_on_c, 0, 74, 0
2, 39960, Note_on_c, 0, 73, 80
2, 39960, Note_on_c, 0, 81, 80
2, 39996, Note_on_c, 0, 81, 0
2, 39996, Note_on_c, 0, 73, 0
2, 40080, Note_on_c, 0, 74, 80
2, 40080, Note_on_c, 0, 80, 80
2, 40200, Note_on_c, 0, 80, 0
2, 40200, Note_on_c, 0, 74, 0
2, 40200, Note_on_c, 0, 73, 80
2, 40200, Note_on_c, 0, 81, 80
2, 40236, Note_on_c, 0, 81, 0
2, 40236, Note_on_c, 0, 73, 0
2, 40320, Note_on_c, 0, 73, 80
2, 40380, Note_on_c, 0, 73, 0
2, 40380, Note_on_c, 0, 76, 80
2, 40440, Note_on_c, 0, 76, 0
2, 40440, Note_on_c, 0, 74, 80
2, 40500, Note_on_c, 0, 74, 0
2, 40500, Note_on_c, 0, 78, 80
2, 40560, Note_on_c, 0, 78, 0
2, 40560, Note_on_c, 0, 76, 80
2, 40620, Note_on_c, 0, 76, 0
2, 40620, Note_on_c, 0, 79, 80
2, 40680, Note_on_c, 0, 79, 0
2, 40680, Note_on_c, 0, 78, 80
2, 40740, Note_on_c, 0, 78, 0
2, 40740, Note_on_c, 0, 81, 80
2, 40800, Note_on_c, 0, 81, 0
2, 40800, Note_on_c, 0, 79, 80
2, 40920, Note_on_c, 0, 79, 0
2, 40920, Note_on_c, 0, 88, 88
2, 40956, Note_on_c, 0, 88, 0
2, 41040, Note_on_c, 0, 85, 80
2, 41076, Note_on_c, 0, 85, 0
2, 41160, Note_on_c, 0, 76, 80
2, 41160, Note_on_c, 0, 79, 80
2, 41196, Note_on_c, 0, 79, 0
2, 41196, Note_on_c, 0, 76, 0
2, 41280, Note_on_c, 0, 74, 80
2, 41280, Note_on_c, 0, 78, 80
2, 41520, Note_on_c, 0, 78, 0
2, 41520, Note_on_c, 0, 74, 0
2, 41640, Note_on_c, 0, 62, 80
2, 41640, Note_on_c, 0, 71, 80
2, 41676, Note_on_c, 0, 71, 0
2, 41676, Note_on_c, 0, 62, 0
2, 41760, Note_on_c, 0, 64, 80
2, 41760, Note_on_c, 0, 70, 80
2, 41880, Note_on_c, 0, 70, 0
2, 41880, Note_on_c, 0, 64, 0
2, 41880, Note_on_c, 0, 62, 80
2, 41880, Note_on_c, 0, 71, 80
2, 41916, Note_on_c, 0, 71, 0
2, 41916, Note_on_c, 0, 62, 0
2, 42000, Note_on_c, 0, 64, 80
2, 42000, Note_on_c, 0, 70, 80
2, 42120, Note_on_c, 0, 70, 0
2, 42120, Note_on_c, 0, 64, 0
2, 42120, Note_on_c, 0, 62, 80
2, 42120, Note_on_c, 0, 71, 80
2, 42156, Note_on_c, 0, 71, 0
2, 42156, Note_on_c, 0, 62, 0
2, 42240, Note_on_c, 0, 62, 80
2, 42300, Note_on_c, 0, 62, 0
2, 42300, Note_on_c, 0, 66, 80
2, 42360, Note_on_c, 0, 66, 0
2, 42360, Note_on_c, 0, 64, 80
2, 42420, Note_on_c, 0, 64, 0
2, 42420, Note_on_c, 0, 67, 80
2, 42480, Note_on_c, 0, 67, 0
2, 42480, Note_on_c, 0, 66, 80
2, 42540, Note_on_c, 0, 66, 0
2, 42540, Note_on_c, 0, 69, 80
2, 42600, Note_on_c, 0, 69, 0
2, 42600, Note_on_c, 0, 67, 80
2, 42660, Note_on_c, 0, 67, 0
2, 42660, Note_on_c, 0, 71, 80
2, 42720, Note_on_c, 0, 71, 0
2, 42720, Note_on_c, 0, 69, 80
2, 42840, Note_on_c, 0, 69, 0
2, 42840, Note_on_c, 0, 78, 80
2, 42876, Note_on_c, 0, 78, 0
2, 42960, Note_on_c, 0, 75, 80
2, 42996, Note_on_c, 0, 75, 0
2, 43080, Note_on_c, 0, 69, 80
2, 43116, Note_on_c, 0, 69, 0
2, 43200, Note_on_c, 0, 68, 80
2, 43260, Note_on_c, 0, 68, 0
2, 43260, Note_on_c, 0, 71, 80
2, 43320, Note_on_c, 0, 71, 0
2, 43320, Note_on_c, 0, 69, 80
2, 43380, Note_on_c, 0, 69, 0
2, 43380, Note_on_c, 0, 73, 80
2, 43440, Note_on_c, 0, 73, 0
2, 43440, Note_on_c, 0, 71, 80
2, 43500, Note_on_c, 0, 71, 0
2, 43500, Note_on_c, 0, 74, 80
2, 43560, Note_on_c, 0, 74, 0
2, 43560, Note_on_c, 0, 73, 80
2, 43620, Note_on_c, 0, 73, 0
2, 43620, Note_on_c, 0, 76, 80
2, 43680, Note_on_c, 0, 76, 0
2, 43680, Note_on_c, 0, 74, 80
2, 43800, Note_on_c, 0, 74, 0
2, 43800, Note_on_c, 0, 83, 80
2, 43860, Note_on_c, 0, 83, 0
2, 43860, Note_on_c, 0, 81, 80
2, 43920, Note_on_c, 0, 81, 0
2, 43920, Note_on_c, 0, 80, 80
2, 43980, Note_on_c, 0, 80, 0
2, 43980, Note_on_c, 0, 78, 80
2, 44040, Note_on_c, 0, 78, 0
2, 44040, Note_on_c, 0, 76, 80
2, 44100, Note_on_c, 0, 76, 0
2, 44100, Note_on_c, 0, 74, 80
2, 44160, Note_on_c, 0, 74, 0
2, 44160, Note_on_c, 0, 73, 80
2, 44220, Note_on_c, 0, 73, 0
2, 44220, Note_on_c, 0, 76, 80
2, 44280, Note_on_c, 0, 76, 0
2, 44280, Note_on_c, 0, 74, 80
2, 44340, Note_on_c, 0, 74, 0
2, 44340, Note_on_c, 0, 78, 80
2, 44400, Note_on_c, 0, 78, 0
2, 44400, Note_on_c, 0, 76, 80
2, 44460, Note_on_c, 0, 76, 0
2, 44460, Note_on_c, 0, 79, 80
2, 44520, Note_on_c, 0, 79, 0
2, 44520, Note_on_c, 0, 78, 80
2, 44580, Note_on_c, 0, 78, 0
2, 44580, Note_on_c, 0, 81, 80
2, 44640, Note_on_c, 0, 81, 0
2, 44640, Note_on_c, 0, 76, 80
2, 44640, Note_on_c, 0, 79, 80
2, 45120, Note_on_c, 0, 79, 0
2, 45120, Note_on_c, 0, 76, 0
2, 45120, Note_on_c, 0, 78, 80
2, 45120, Note_on_c, 0, 76, 80
2, 45360, Note_on_c, 0, 76, 0
2, 45360, Note_on_c, 0, 74, 80
2, 45600, Note_on_c, 0, 78, 0
2, 45600, Note_on_c, 0, 76, 80
2, 45840, Note_on_c, 0, 74, 0
2, 45840, Note_on_c, 0, 73, 80
2, 46080, Note_on_c, 0, 76, 0
2, 46080, Note_on_c, 0, 74, 80
2, 46320, Note_on_c, 0, 73, 0
2, 46320, Note_on_c, 0, 71, 80
2, 46560, Note_on_c, 0, 74, 0
2, 46560, Note_on_c, 0, 73, 80
2, 46800, Note_on_c, 0, 73, 0
2, 46800, Note_on_c, 0, 71, 0
2, 46800, Note_on_c, 0, 72, 80
2, 46800, Note_on_c, 0, 69, 80
2, 47040, Note_on_c, 0, 72, 0
2, 47040, Note_on_c, 0, 71, 80
2, 47280, Note_on_c, 0, 69, 0
2, 47280, Note_on_c, 0, 67, 80
2, 47520, Note_on_c, 0, 71, 0
2, 47520, Note_on_c, 0, 69, 80
2, 47760, Note_on_c, 0, 67, 0
2, 47760, Note_on_c, 0, 66, 80
2, 48000, Note_on_c, 0, 69, 0
2, 48000, Note_on_c, 0, 67, 80
2, 48240, Note_on_c, 0, 66, 0
2, 48240, Note_on_c, 0, 64, 80
2, 48480, Note_on_c, 0, 67, 0
2, 48480, Note_on_c, 0, 66, 80
2, 48720, Note_on_c, 0, 64, 0
2, 48720, Note_on_c, 0, 62, 80
2, 48960, Note_on_c, 0, 62, 0
2, 48960, Note_on_c, 0, 66, 0
2, 48960, Note_on_c, 0, 66, 80
2, 48960, Note_on_c, 0, 61, 80
2, 49020, Note_on_c, 0, 61, 0
2, 49020, Note_on_c, 0, 59, 80
2, 49080, Note_on_c, 0, 59, 0
2, 49080, Note_on_c, 0, 61, 80
2, 49140, Note_on_c, 0, 61, 0
2, 49140, Note_on_c, 0, 58, 80
2, 49200, Note_on_c, 0, 58, 0
2, 49200, Note_on_c, 0, 66, 0
2, 49200, Note_on_c, 0, 66, 80
2, 49200, Note_on_c, 0, 62, 80
2, 49260, Note_on_c, 0, 62, 0
2, 49260, Note_on_c, 0, 61, 80
2, 49320, Note_on_c, 0, 61, 0
2, 49320, Note_on_c, 0, 62, 80
2, 49380, Note_on_c, 0, 62, 0
2, 49380, Note_on_c, 0, 59, 80
2, 49440, Note_on_c, 0, 59, 0
2, 49440, Note_on_c, 0, 66, 0
2, 49440, Note_on_c, 0, 66, 80
2, 49440, Note_on_c, 0, 64, 80
2, 49500, Note_on_c, 0, 64, 0
2, 49500, Note_on_c, 0, 62, 80
2, 49560, Note_on_c, 0, 62, 0
2, 49560, Note_on_c, 0, 64, 80
2, 49620, Note_on_c, 0, 64, 0
2, 49620, Note_on_c, 0, 61, 80
2, 49680, Note_on_c, 0, 61, 0
2, 49680, Note_on_c, 0, 66, 0
2, 49680, Note_on_c, 0, 62, 80
2, 49680, Note_on_c, 0, 66, 80
2, 49740, Note_on_c, 0, 62, 0
2, 49740, Note_on_c, 0, 61, 80
2, 49800, Note_on_c, 0, 61, 0
2, 49800, Note_on_c, 0, 62, 80
2, 49860, Note_on_c, 0, 62, 0
2, 49860, Note_on_c, 0, 59, 80
2, 49920, Note_on_c, 0, 59, 0
2, 49920, Note_on_c, 0, 66, 0
2, 49920, Note_on_c, 0, 70, 80
2, 49980, Note_on_c, 0, 70, 0
2, 49980, Note_on_c, 0, 68, 80
2, 50040, Note_on_c, 0, 68, 0
2, 50040, Note_on_c, 0, 70, 80
2, 50058, Note_on_c, 0, 70, 0
2, 50100, Note_on_c, 0, 66, 80
2, 50118, Note_on_c, 0, 66, 0
2, 50160, Note_on_c, 0, 71, 80
2, 50220, Note_on_c, 0, 71, 0
2, 50220, Note_on_c, 0, 70, 80
2, 50280, Note_on_c, 0, 70, 0
2, 50280, Note_on_c, 0, 71, 80
2, 50298, Note_on_c, 0, 71, 0
2, 50340, Note_on_c, 0, 66, 80
2, 50358, Note_on_c, 0, 66, 0
2, 50400, Note_on_c, 0, 73, 80
2, 50460, Note_on_c, 0, 73, 0
2, 50460, Note_on_c, 0, 71, 80
2, 50520, Note_on_c, 0, 71, 0
2, 50520, Note_on_c, 0, 73, 80
2, 50538, Note_on_c, 0, 73, 0
2, 50580, Note_on_c, 0, 66, 80
2, 50598, Note_on_c, 0, 66, 0
2, 50640, Note_on_c, 0, 74, 80
2, 50700, Note_on_c, 0, 74, 0
2, 50700, Note_on_c, 0, 73, 80
2, 50760, Note_on_c, 0, 73, 0
2, 50760, Note_on_c, 0, 74, 80
2, 50778, Note_on_c, 0, 74, 0
2, 50820, Note_on_c, 0, 66, 80
2, 50838, Note_on_c, 0, 66, 0
2, 50940, Note_on_c, 0, 79, 80
2, 51000, Note_on_c, 0, 79, 0
2, 51000, Note_on_c, 0, 76, 80
2, 51060, Note_on_c, 0, 76, 0
2, 51060, Note_on_c, 0, 79, 80
2, 51120, Note_on_c, 0, 79, 0
2, 51120, Note_on_c, 0, 73, 80
2, 51180, Note_on_c, 0, 73, 0
2, 51180, Note_on_c, 0, 76, 80
2, 51240, Note_on_c, 0, 76, 0
2, 51240, Note_on_c, 0, 70, 80
2, 51300, Note_on_c, 0, 70, 0
2, 51300, Note_on_c, 0, 73, 80
2, 51360, Note_on_c, 0, 73, 0
2, 51420, Note_on_c, 0, 83, 80
2, 51480, Note_on_c, 0, 83, 0
2, 51480, Note_on_c, 0, 78, 80
2, 51540, Note_on_c, 0, 78, 0
2, 51540, Note_on_c, 0, 83, 80
2, 51600, Note_on_c, 0, 83, 0
2, 51600, Note_on_c, 0, 74, 80
2, 51660, Note_on_c, 0, 74, 0
2, 51660, Note_on_c, 0, 78, 80
2, 51720, Note_on_c, 0, 78, 0
2, 51720, Note_on_c, 0, 71, 80
2, 51780, Note_on_c, 0, 71, 0
2, 51780, Note_on_c, 0, 74, 80
2, 51840, Note_on_c, 0, 74, 0
2, 51900, Note_on_c, 0, 79, 56
2, 51960, Note_on_c, 0, 79, 0
2, 51960, Note_on_c, 0, 76, 56
2, 52020, Note_on_c, 0, 76, 0
2, 52020, Note_on_c, 0, 79, 56
2, 52080, Note_on_c, 0, 79, 0
2, 52080, Note_on_c, 0, 73, 56
2, 52140, Note_on_c, 0, 73, 0
2, 52140, Note_on_c, 0, 76, 56
2, 52200, Note_on_c, 0, 76, 0
2, 52200, Note_on_c, 0, 70, 56
2, 52260, Note_on_c, 0, 70, 0
2, 52260, Note_on_c, 0, 73, 56
2, 52320, Note_on_c, 0, 73, 0
2, 52380, Note_on_c, 0, 83, 56
2, 52440, Note_on_c, 0, 83, 0
2, 52440, Note_on_c, 0, 78, 56
2, 52500, Note_on_c, 0, 78, 0
2, 52500, Note_on_c, 0, 83, 56
2, 52560, Note_on_c, 0, 83, 0
2, 52560, Note_on_c, 0, 74, 56
2, 52620, Note_on_c, 0, 74, 0
2, 52620, Note_on_c, 0, 78, 56
2, 52680, Note_on_c, 0, 78, 0
2, 52680, Note_on_c, 0, 71, 56
2, 52740, Note_on_c, 0, 71, 0
2, 52740, Note_on_c, 0, 74, 56
2, 52800, Note_on_c, 0, 74, 0
2, 52860, Note_on_c, 0, 84, 88
2, 52920, Note_on_c, 0, 84, 0
2, 52920, Note_on_c, 0, 79, 88
2, 52980, Note_on_c, 0, 79, 0
2, 52980, Note_on_c, 0, 84, 88
2, 53040, Note_on_c, 0, 84, 0
2, 53040, Note_on_c, 0, 76, 88
2, 53100, Note_on_c, 0, 76, 0
2, 53100, Note_on_c, 0, 79, 88
2, 53160, Note_on_c, 0, 79, 0
2, 53160, Note_on_c, 0, 72, 88
2, 53220, Note_on_c, 0, 72, 0
2, 53220, Note_on_c, 0, 76, 88
2, 53280, Note_on_c, 0, 76, 0
2, 53280, Note_on_c, 0, 67, 88
2, 53340, Note_on_c, 0, 67, 0
2, 53340, Note_on_c, 0, 72, 88
2, 53400, Note_on_c, 0, 72, 0
2, 53400, Note_on_c, 0, 64, 88
2, 53460, Note_on_c, 0, 64, 0
2, 53460, Note_on_c, 0, 67, 88
2, 53520, Note_on_c, 0, 67, 0
2, 53520, Note_on_c, 0, 60, 88
2, 53580, Note_on_c, 0, 60, 0
2, 53580, Note_on_c, 0, 64, 88
2, 53640, Note_on_c, 0, 64, 0
2, 53640, Note_on_c, 0, 55, 88
2, 53700, Note_on_c, 0, 55, 0
2, 53700, Note_on_c, 0, 60, 88
2, 53760, Note_on_c, 0, 60, 0
2, 53820, Note_on_c, 0, 59, 88
2, 53880, Note_on_c, 0, 59, 0
2, 53880, Note_on_c, 0, 62, 88
2, 53940, Note_on_c, 0, 62, 0
2, 53940, Note_on_c, 0, 65, 88
2, 54000, Note_on_c, 0, 65, 0
2, 54000, Note_on_c, 0, 68, 88
2, 54060, Note_on_c, 0, 68, 0
2, 54060, Note_on_c, 0, 62, 88
2, 54120, Note_on_c, 0, 62, 0
2, 54120, Note_on_c, 0, 65, 88
2, 54180, Note_on_c, 0, 65, 0
2, 54180, Note_on_c, 0, 68, 88
2, 54240, Note_on_c, 0, 68, 0
2, 54240, Note_on_c, 0, 71, 88
2, 54300, Note_on_c, 0, 71, 0
2, 54300, Note_on_c, 0, 65, 88
2, 54360, Note_on_c, 0, 65, 0
2, 54360, Note_on_c, 0, 68, 88
2, 54420, Note_on_c, 0, 68, 0
2, 54420, Note_on_c, 0, 71, 88
2, 54480, Note_on_c, 0, 71, 0
2, 54480, Note_on_c, 0, 74, 88
2, 54540, Note_on_c, 0, 74, 0
2, 54540, Note_on_c, 0, 71, 88
2, 54600, Note_on_c, 0, 71, 0
2, 54600, Note_on_c, 0, 68, 88
2, 54660, Note_on_c, 0, 68, 0
2, 54660, Note_on_c, 0, 65, 88
2, 54720, Note_on_c, 0, 65, 0
2, 54780, Note_on_c, 0, 59, 78
2, 54840, Note_on_c, 0, 59, 0
2, 54840, Note_on_c, 0, 62, 76
2, 54900, Note_on_c, 0, 62, 0
2, 54900, Note_on_c, 0, 66, 74
2, 54960, Note_on_c, 0, 66, 0
2, 54960, Note_on_c, 0, 71, 72
2, 55020, Note_on_c, 0, 71, 0
2, 55020, Note_on_c, 0, 62, 70
2, 55080, Note_on_c, 0, 62, 0
2, 55080, Note_on_c, 0, 66, 68
2, 55140, Note_on_c, 0, 66, 0
2, 55140, Note_on_c, 0, 71, 66
2, 55200, Note_on_c, 0, 71, 0
2, 55200, Note_on_c, 0, 74, 64
2, 55260, Note_on_c, 0, 74, 0
2, 55260, Note_on_c, 0, 71, 62
2, 55320, Note_on_c, 0, 71, 0
2, 55320, Note_on_c, 0, 74, 60
2, 55380, Note_on_c, 0, 74, 0
2, 55380, Note_on_c, 0, 78, 58
2, 55440, Note_on_c, 0, 78, 0
2, 55440, Note_on_c, 0, 83, 56
2, 55680, Note_on_c, 0, 83, 0
2, 55680, Note_on_c, 0, 73, 48
2, 55710, Note_on_c, 0, 73, 0
2, 55710, Note_on_c, 0, 74, 49
2, 55740, Note_on_c, 0, 74, 0
2, 55740, Note_on_c, 0, 73, 50
2, 55770, Note_on_c, 0, 73, 0
2, 55770, Note_on_c, 0, 74, 51
2, 55800, Note_on_c, 0, 74, 0
2, 55800, Note_on_c, 0, 73, 52
2, 55830, Note_on_c, 0, 73, 0
2, 55830, Note_on_c, 0, 74, 53
2, 55860, Note_on_c, 0, 74, 0
2, 55860, Note_on_c, 0, 73, 54
2, 55890, Note_on_c, 0, 73, 0
2, 55890, Note_on_c, 0, 74, 55
2, 55920, Note_on_c, 0, 74, 0
2, 55920, Note_on_c, 0, 73, 56
2, 55950, Note_on_c, 0, 73, 0
2, 55950, Note_on_c, 0, 74, 57
2, 55980, Note_on_c, 0, 74, 0
2, 55980, Note_on_c, 0, 73, 58
2, 56010, Note_on_c, 0, 73, 0
2, 56010, Note_on_c, 0, 74, 59
2, 56040, Note_on_c, 0, 74, 0
2, 56040, Note_on_c, 0, 73, 60
2, 56070, Note_on_c, 0, 73, 0
2, 56070, Note_on_c, 0, 74, 61
2, 56100, Note_on_c, 0, 74, 0
2, 56100, Note_on_c, 0, 73, 62
2, 56130, Note_on_c, 0, 73, 0
2, 56130, Note_on_c, 0, 74, 63
2, 56160, Note_on_c, 0, 74, 0
2, 56160, Note_on_c, 0, 73, 64
2, 56190, Note_on_c, 0, 73, 0
2, 56190, Note_on_c, 0, 74, 65
2, 56220, Note_on_c, 0, 74, 0
2, 56220, Note_on_c, 0, 73, 66
2, 56250, Note_on_c, 0, 73, 0
2, 56250, Note_on_c, 0, 74, 67
2, 56280, Note_on_c, 0, 74, 0
2, 56280, Note_on_c, 0, 73, 68
2, 56310, Note_on_c, 0, 73, 0
2, 56310, Note_on_c, 0, 74, 69
2, 56340, Note_on_c, 0, 74, 0
2, 56340, Note_on_c, 0, 73, 70
2, 56370, Note_on_c, 0, 73, 0
2, 56370, Note_on_c, 0, 74, 71
2, 56400, Note_on_c, 0, 74, 0
2, 56400, Note_on_c, 0, 73, 72
2, 56520, Note_on_c, 0, 73, 0
2, 56520, Note_on_c, 0, 71, 76
2, 56580, Note_on_c, 0, 71, 0
2, 56580, Note_on_c, 0, 73, 78
2, 56640, Note_on_c, 0, 73, 0
2, 56640, Note_on_c, 0, 75, 80
2, 56760, Note_on_c, 0, 75, 0
2, 56760, Note_on_c, 0, 75, 80
2, 56796, Note_on_c, 0, 75, 0
2, 56880, Note_on_c, 0, 75, 80
2, 56916, Note_on_c, 0, 75, 0
2, 57000, Note_on_c, 0, 75, 80
2, 57036, Note_on_c, 0, 75, 0
2, 57120, Note_on_c, 0, 76, 80
2, 57150, Note_on_c, 0, 76, 0
2, 57150, Note_on_c, 0, 78, 80
2, 57180, Note_on_c, 0, 78, 0
2, 57180, Note_on_c, 0, 76, 80
2, 57200, Note_on_c, 0, 76, 0
2, 57200, Note_on_c, 0, 78, 80
2, 57220, Note_on_c, 0, 78, 0
2, 57220, Note_on_c, 0, 76, 80
2, 57240, Note_on_c, 0, 76, 0
2, 57240, Note_on_c, 0, 75, 80
2, 57360, Note_on_c, 0, 75, 0
2, 57360, Note_on_c, 0, 76, 80
2, 57480, Note_on_c, 0, 76, 0
2, 57480, Note_on_c, 0, 79, 80
2, 57600, Note_on_c, 0, 79, 0
2, 57600, Note_on_c, 0, 73, 80
2, 57720, Note_on_c, 0, 73, 0
2, 57720, Note_on_c, 0, 73, 80
2, 57756, Note_on_c, 0, 73, 0
2, 57840, Note_on_c, 0, 73, 80
2, 57876, Note_on_c, 0, 73, 0
2, 57960, Note_on_c, 0, 73, 80
2, 57996, Note_on_c, 0, 73, 0
2, 58080, Note_on_c, 0, 73, 80
2, 58140, Note_on_c, 0, 73, 0
2, 58140, Note_on_c, 0, 74, 80
2, 58200, Note_on_c, 0, 74, 0
2, 58200, Note_on_c, 0, 76, 80
2, 58260, Note_on_c, 0, 76, 0
2, 58260, Note_on_c, 0, 78, 80
2, 58320, Note_on_c, 0, 78, 0
2, 58320, Note_on_c, 0, 79, 80
2, 58380, Note_on_c, 0, 79, 0
2, 58380, Note_on_c, 0, 81, 80
2, 58440, Note_on_c, 0, 81, 0
2, 58440, Note_on_c, 0, 83, 80
2, 58500, Note_on_c, 0, 83, 0
2, 58500, Note_on_c, 0, 85, 80
2, 58560, Note_on_c, 0, 85, 0
2, 58560, Control_c, 0, 10, 127
2, 58560, Note_on_c, 0, 86, 80
2, 58680, Note_on_c, 0, 86, 0
2, 58680, Note_on_c, 0, 74, 80
2, 58716, Note_on_c, 0, 74, 0
2, 58800, Note_on_c, 0, 74, 80
2, 58836, Note_on_c, 0, 74, 0
2, 58920, Note_on_c, 0, 74, 80
2, 59040, Note_on_c, 0, 74, 0
2, 59040, Note_on_c, 0, 76, 80
2, 59070, Note_on_c, 0, 76, 0
2, 59070, Note_on_c, 0, 78, 80
2, 59100, Note_on_c, 0, 78, 0
2, 59100, Note_on_c, 0, 76, 80
2, 59120, Note_on_c, 0, 76, 0
2, 59120, Note_on_c, 0, 78, 80
2, 59140, Note_on_c, 0, 78, 0
2, 59140, Note_on_c, 0, 76, 80
2, 59160, Note_on_c, 0, 76, 0
2, 59160, Note_on_c, 0, 74, 80
2, 59196, Note_on_c, 0, 74, 0
2, 59280, Note_on_c, 0, 76, 80
2, 59310, Note_on_c, 0, 76, 0
2, 59310, Note_on_c, 0, 78, 80
2, 59340, Note_on_c, 0, 78, 0
2, 59340, Note_on_c, 0, 76, 80
2, 59360, Note_on_c, 0, 76, 0
2, 59360, Note_on_c, 0, 78, 80
2, 59380, Note_on_c, 0, 78, 0
2, 59380, Note_on_c, 0, 76, 80
2, 59388, Note_on_c, 0, 76, 0
2, 59400, Note_on_c, 0, 74, 80
2, 59442, Note_on_c, 0, 74, 0
2, 59505, Note_on_c, 0, 85, 80
2, 59520, Note_on_c, 0, 85, 0
2, 59520, Note_on_c, 0, 86, 80
2, 59520, Control_c, 0, 10, 127
2, 59640, Note_on_c, 0, 86, 0
2, 59640, Note_on_c, 0, 74, 80
2, 59676, Note_on_c, 0, 74, 0
2, 59760, Note_on_c, 0, 74, 80
2, 59796, Note_on_c, 0, 74, 0
2, 59880, Note_on_c, 0, 74, 80
2, 60000, Note_on_c, 0, 74, 0
2, 60000, Note_on_c, 0, 76, 80
2, 60030, Note_on_c, 0, 76, 0
2, 60030, Note_on_c, 0, 78, 80
2, 60060, Note_on_c, 0, 78, 0
2, 60060, Note_on_c, 0, 76, 80
2, 60080, Note_on_c, 0, 76, 0
2, 60080, Note_on_c, 0, 78, 80
2, 60100, Note_on_c, 0, 78, 0
2, 60100, Note_on_c, 0, 76, 80
2, 60120, Note_on_c, 0, 76, 0
2, 60120, Note_on_c, 0, 74, 80
2, 60156, Note_on_c, 0, 74, 0
2, 60240, Note_on_c, 0, 76, 80
2, 60270, Note_on_c, 0, 76, 0
2, 60270, Note_on_c, 0, 78, 80
2, 60300, Note_on_c, 0, 78, 0
2, 60300, Note_on_c, 0, 76, 80
2, 60320, Note_on_c, 0, 76, 0
2, 60320, Note_on_c, 0, 78, 80
2, 60340, Note_on_c, 0, 78, 0
2, 60340, Note_on_c, 0, 76, 80
2, 60346, Note_on_c, 0, 76, 0
2, 60360, Note_on_c, 0, 74, 80
2, 60396, Note_on_c, 0, 74, 0
2, 60480, Note_on_c, 0, 79, 80
2, 60480, Note_on_c, 0, 74, 80
2, 60516, Note_on_c, 0, 74, 0
2, 60516, Note_on_c, 0, 79, 0
2, 60600, Note_on_c, 0, 79, 80
2, 60600, Note_on_c, 0, 74, 64
2, 60720, Note_on_c, 0, 74, 0
2, 60720, Note_on_c, 0, 79, 0
2, 60720, Note_on_c, 0, 78, 80
2, 60756, Note_on_c, 0, 78, 0
2, 60840, Note_on_c, 0, 78, 80
2, 60840, Note_on_c, 0, 74, 64
2, 60960, Note_on_c, 0, 74, 0
2, 60960, Note_on_c, 0, 78, 0
2, 60960, Note_on_c, 0, 83, 80
2, 60996, Note_on_c, 0, 83, 0
2, 61080, Note_on_c, 0, 83, 80
2, 61080, Note_on_c, 0, 74, 64
2, 61200, Note_on_c, 0, 74, 0
2, 61200, Note_on_c, 0, 83, 0
2, 61200, Note_on_c, 0, 81, 80
2, 61236, Note_on_c, 0, 81, 0
2, 61320, Note_on_c, 0, 81, 80
2, 61320, Note_on_c, 0, 74, 80
2, 61440, Note_on_c, 0, 74, 0
2, 61440, Note_on_c, 0, 81, 0
2, 61440, Note_on_c, 0, 79, 80
2, 61560, Note_on_c, 0, 79, 0
2, 61560, Note_on_c, 0, 76, 80
2, 61596, Note_on_c, 0, 76, 0
2, 61680, Note_on_c, 0, 78, 80
2, 61716, Note_on_c, 0, 78, 0
2, 61800, Note_on_c, 0, 74, 80
2, 61836, Note_on_c, 0, 74, 0
2, 61920, Note_on_c, 0, 73, 80
2, 61980, Note_on_c, 0, 73, 0
2, 61980, Note_on_c, 0, 74, 80
2, 62040, Note_on_c, 0, 74, 0
2, 62040, Note_on_c, 0, 76, 80
2, 62100, Note_on_c, 0, 76, 0
2, 62100, Note_on_c, 0, 73, 80
2, 62160, Note_on_c, 0, 73, 0
2, 62160, Note_on_c, 0, 69, 80
2, 62220, Note_on_c, 0, 69, 0
2, 62370, Note_on_c, 0, 85, 80
2, 62400, Note_on_c, 0, 85, 0
2, 62400, Note_on_c, 0, 86, 80
2, 62400, Control_c, 0, 10, 127
2, 62520, Note_on_c, 0, 86, 0
2, 62520, Note_on_c, 0, 74, 80
2, 62556, Note_on_c, 0, 74, 0
2, 62640, Note_on_c, 0, 74, 80
2, 62676, Note_on_c, 0, 74, 0
2, 62760, Note_on_c, 0, 74, 80
2, 62787, Note_on_c, 0, 74, 0
2, 62850, Note_on_c, 0, 78, 80
2, 62880, Note_on_c, 0, 78, 0
2, 62880, Note_on_c, 0, 76, 88
2, 63000, Note_on_c, 0, 76, 0
2, 63000, Note_on_c, 0, 74, 80
2, 63027, Note_on_c, 0, 74, 0
2, 63090, Note_on_c, 0, 78, 80
2, 63120, Note_on_c, 0, 78, 0
2, 63120, Note_on_c, 0, 76, 88
2, 63240, Note_on_c, 0, 76, 0
2, 63240, Note_on_c, 0, 74, 80
2, 63267, Note_on_c, 0, 74, 0
2, 63330, Note_on_c, 0, 85, 80
2, 63360, Note_on_c, 0, 85, 0
2, 63360, Control_c, 0, 10, 127
2, 63360, Note_on_c, 0, 86, 80
2, 63480, Note_on_c, 0, 86, 0
2, 63480, Note_on_c, 0, 74, 80
2, 63516, Note_on_c, 0, 74, 0
2, 63600, Note_on_c, 0, 74, 80
2, 63636, Note_on_c, 0, 74, 0
2, 63720, Note_on_c, 0, 74, 80
2, 63747, Note_on_c, 0, 74, 0
2, 63810, Note_on_c, 0, 78, 80
2, 63840, Note_on_c, 0, 78, 0
2, 63840, Note_on_c, 0, 76, 88
2, 63960, Note_on_c, 0, 76, 0
2, 63960, Note_on_c, 0, 74, 80
2, 63987, Note_on_c, 0, 74, 0
2, 64050, Note_on_c, 0, 78, 80
2, 64080, Note_on_c, 0, 78, 0
2, 64080, Note_on_c, 0, 76, 88
2, 64200, Note_on_c, 0, 76, 0
2, 64200, Note_on_c, 0, 74, 80
2, 64272, Note_on_c, 0, 74, 0
2, 64290, Note_on_c, 0, 81, 80
2, 64314, Note_on_c, 0, 81, 0
2, 64320, Note_on_c, 0, 79, 88
2, 64440, Note_on_c, 0, 79, 0
2, 64440, Note_on_c, 0, 78, 80
2, 64476, Note_on_c, 0, 78, 0
2, 64560, Note_on_c, 0, 79, 80
2, 64596, Note_on_c, 0, 79, 0
2, 64680, Note_on_c, 0, 76, 80
2, 64707, Note_on_c, 0, 76, 0
2, 64770, Note_on_c, 0, 79, 80
2, 64800, Note_on_c, 0, 79, 0
2, 64800, Note_on_c, 0, 78, 88
2, 64920, Note_on_c, 0, 78, 0
2, 64920, Note_on_c, 0, 76, 80
2, 64956, Note_on_c, 0, 76, 0
2, 65040, Note_on_c, 0, 78, 80
2, 65076, Note_on_c, 0, 78, 0
2, 65160, Note_on_c, 0, 74, 80
2, 65187, Note_on_c, 0, 74, 0
2, 65250, Note_on_c, 0, 78, 80
2, 65280, Note_on_c, 0, 78, 0
2, 65280, Note_on_c, 0, 76, 88
2, 65400, Note_on_c, 0, 76, 0
2, 65400, Note_on_c, 0, 75, 80
2, 65436, Note_on_c, 0, 75, 0
2, 65520, Note_on_c, 0, 76, 80
2, 65556, Note_on_c, 0, 76, 0
2, 65640, Note_on_c, 0, 73, 80
2, 65676, Note_on_c, 0, 73, 0
2, 65760, Note_on_c, 0, 74, 88
2, 65880, Note_on_c, 0, 74, 0
2, 65880, Note_on_c, 0, 73, 80
2, 65916, Note_on_c, 0, 73, 0
2, 66000, Note_on_c, 0, 74, 80
2, 66036, Note_on_c, 0, 74, 0
2, 66120, Note_on_c, 0, 78, 80
2, 66147, Note_on_c, 0, 78, 0
2, 66210, Note_on_c, 0, 81, 80
2, 66240, Note_on_c, 0, 81, 0
2, 66240, Note_on_c, 0, 79, 48
2, 66360, Note_on_c, 0, 79, 0
2, 66360, Note_on_c, 0, 78, 48
2, 66396, Note_on_c, 0, 78, 0
2, 66480, Note_on_c, 0, 79, 48
2, 66516, Note_on_c, 0, 79, 0
2, 66600, Note_on_c, 0, 76, 48
2, 66627, Note_on_c, 0, 76, 0
2, 66690, Note_on_c, 0, 79, 48
2, 66720, Note_on_c, 0, 79, 0
2, 66720, Note_on_c, 0, 78, 48
2, 66840, Note_on_c, 0, 78, 0
2, 66840, Note_on_c, 0, 76, 48
2, 66876, Note_on_c, 0, 76, 0
2, 66960, Note_on_c, 0, 78, 48
2, 66996, Note_on_c, 0, 78, 0
2, 67080, Note_on_c, 0, 74, 48
2, 67107, Note_on_c, 0, 74, 0
2, 67170, Note_on_c, 0, 78, 48
2, 67200, Note_on_c, 0, 78, 0
2, 67200, Note_on_c, 0, 76, 48
2, 67320, Note_on_c, 0, 76, 0
2, 67320, Note_on_c, 0, 75, 52
2, 67347, Note_on_c, 0, 75, 0
2, 67410, Note_on_c, 0, 78, 55
2, 67440, Note_on_c, 0, 78, 0
2, 67440, Note_on_c, 0, 76, 56
2, 67560, Note_on_c, 0, 76, 0
2, 67560, Note_on_c, 0, 75, 60
2, 67587, Note_on_c, 0, 75, 0
2, 67650, Note_on_c, 0, 78, 63
2, 67680, Note_on_c, 0, 78, 0
2, 67680, Note_on_c, 0, 76, 64
2, 67800, Note_on_c, 0, 76, 0
2, 67800, Note_on_c, 0, 75, 68
2, 67827, Note_on_c, 0, 75, 0
2, 67890, Note_on_c, 0, 78, 71
2, 67920, Note_on_c, 0, 78, 0
2, 67920, Note_on_c, 0, 76, 72
2, 68040, Note_on_c, 0, 76, 0
2, 68040, Note_on_c, 0, 75, 76
2, 68076, Note_on_c, 0, 75, 0
2, 68160, Note_on_c, 0, 76, 80
2, 68220, Note_on_c, 0, 76, 0
2, 68220, Note_on_c, 0, 79, 80
2, 68280, Note_on_c, 0, 79, 0
2, 68280, Note_on_c, 0, 78, 80
2, 68340, Note_on_c, 0, 78, 0
2, 68340, Note_on_c, 0, 81, 80
2, 68400, Note_on_c, 0, 81, 0
2, 68400, Note_on_c, 0, 79, 80
2, 68460, Note_on_c, 0, 79, 0
2, 68460, Note_on_c, 0, 83, 80
2, 68520, Note_on_c, 0, 83, 0
2, 68520, Note_on_c, 0, 81, 80
2, 68580, Note_on_c, 0, 81, 0
2, 68580, Note_on_c, 0, 84, 80
2, 68640, Note_on_c, 0, 84, 0
2, 68640, Note_on_c, 0, 83, 80
2, 68700, Note_on_c, 0, 83, 0
2, 68700, Note_on_c, 0, 81, 80
2, 68760, Note_on_c, 0, 81, 0
2, 68760, Note_on_c, 0, 79, 80
2, 68820, Note_on_c, 0, 79, 0
2, 68820, Note_on_c, 0, 78, 80
2, 68880, Note_on_c, 0, 78, 0
2, 68880, Note_on_c, 0, 76, 80
2, 68940, Note_on_c, 0, 76, 0
2, 68940, Note_on_c, 0, 74, 80
2, 69000, Note_on_c, 0, 74, 0
2, 69000, Note_on_c, 0, 73, 80
2, 69060, Note_on_c, 0, 73, 0
2, 69060, Note_on_c, 0, 71, 80
2, 69120, Note_on_c, 0, 71, 0
2, 69120, Note_on_c, 0, 69, 80
2, 69180, Note_on_c, 0, 69, 0
2, 69180, Note_on_c, 0, 81, 80
2, 69240, Note_on_c, 0, 81, 0
2, 69240, Note_on_c, 0, 80, 80
2, 69300, Note_on_c, 0, 80, 0
2, 69300, Note_on_c, 0, 81, 80
2, 69360, Note_on_c, 0, 81, 0
2, 69360, Note_on_c, 0, 80, 80
2, 69420, Note_on_c, 0, 80, 0
2, 69420, Note_on_c, 0, 81, 80
2, 69480, Note_on_c, 0, 81, 0
2, 69480, Note_on_c, 0, 80, 80
2, 69540, Note_on_c, 0, 80, 0
2, 69540, Note_on_c, 0, 81, 80
2, 69600, Note_on_c, 0, 81, 0
2, 69600, Note_on_c, 0, 69, 80
2, 69660, Note_on_c, 0, 69, 0
2, 69660, Note_on_c, 0, 79, 80
2, 69720, Note_on_c, 0, 79, 0
2, 69720, Note_on_c, 0, 78, 80
2, 69780, Note_on_c, 0, 78, 0
2, 69780, Note_on_c, 0, 79, 80
2, 69840, Note_on_c, 0, 79, 0
2, 69840, Note_on_c, 0, 78, 80
2, 69900, Note_on_c, 0, 78, 0
2, 69900, Note_on_c, 0, 79, 80
2, 69960, Note_on_c, 0, 79, 0
2, 69960, Note_on_c, 0, 78, 80
2, 70020, Note_on_c, 0, 78, 0
2, 70020, Note_on_c, 0, 79, 80
2, 70080, Note_on_c, 0, 79, 0
2, 70080, Note_on_c, 0, 69, 80
2, 70140, Note_on_c, 0, 69, 0
2, 70140, Note_on_c, 0, 78, 78
2, 70200, Note_on_c, 0, 78, 0
2, 70200, Note_on_c, 0, 77, 76
2, 70260, Note_on_c, 0, 77, 0
2, 70260, Note_on_c, 0, 78, 74
2, 70320, Note_on_c, 0, 78, 0
2, 70320, Note_on_c, 0, 77, 72
2, 70380, Note_on_c, 0, 77, 0
2, 70380, Note_on_c, 0, 78, 70
2, 70440, Note_on_c, 0, 78, 0
2, 70440, Note_on_c, 0, 77, 68
2, 70500, Note_on_c, 0, 77, 0
2, 70500, Note_on_c, 0, 78, 66
2, 70560, Note_on_c, 0, 78, 0
2, 70560, Note_on_c, 0, 69, 64
2, 70620, Note_on_c, 0, 69, 0
2, 70620, Note_on_c, 0, 76, 62
2, 70680, Note_on_c, 0, 76, 0
2, 70680, Note_on_c, 0, 75, 60
2, 70740, Note_on_c, 0, 75, 0
2, 70740, Note_on_c, 0, 76, 58
2, 70800, Note_on_c, 0, 76, 0
2, 70800, Note_on_c, 0, 75, 56
2, 70860, Note_on_c, 0, 75, 0
2, 70860, Note_on_c, 0, 76, 54
2, 70920, Note_on_c, 0, 76, 0
2, 70920, Note_on_c, 0, 75, 52
2, 70980, Note_on_c, 0, 75, 0
2, 70980, Note_on_c, 0, 76, 50
2, 71040, Note_on_c, 0, 76, 0
2, 71040, Note_on_c, 0, 74, 88
2, 71100, Note_on_c, 0, 74, 0
2, 71100, Note_on_c, 0, 69, 72
2, 71160, Note_on_c, 0, 69, 0
2, 71160, Note_on_c, 0, 66, 72
2, 71220, Note_on_c, 0, 66, 0
2, 71220, Note_on_c, 0, 69, 72
2, 71280, Note_on_c, 0, 69, 0
2, 71280, Note_on_c, 0, 74, 72
2, 71340, Note_on_c, 0, 74, 0
2, 71340, Note_on_c, 0, 69, 72
2, 71400, Note_on_c, 0, 69, 0
2, 71400, Note_on_c, 0, 76, 72
2, 71460, Note_on_c, 0, 76, 0
2, 71460, Note_on_c, 0, 69, 72
2, 71520, Note_on_c, 0, 69, 0
2, 71520, Note_on_c, 0, 78, 72
2, 71580, Note_on_c, 0, 78, 0
2, 71580, Note_on_c, 0, 69, 72
2, 71640, Note_on_c, 0, 69, 0
2, 71640, Note_on_c, 0, 79, 72
2, 71700, Note_on_c, 0, 79, 0
2, 71700, Note_on_c, 0, 69, 72
2, 71760, Note_on_c, 0, 69, 0
2, 71760, Note_on_c, 0, 81, 72
2, 71820, Note_on_c, 0, 81, 0
2, 71820, Note_on_c, 0, 69, 72
2, 71880, Note_on_c, 0, 69, 0
2, 71880, Note_on_c, 0, 79, 72
2, 71940, Note_on_c, 0, 79, 0
2, 71940, Note_on_c, 0, 69, 72
2, 72000, Note_on_c, 0, 69, 0
2, 72000, Note_on_c, 0, 78, 88
2, 72060, Note_on_c, 0, 78, 0
2, 72060, Note_on_c, 0, 74, 72
2, 72120, Note_on_c, 0, 74, 0
2, 72120, Note_on_c, 0, 69, 72
2, 72180, Note_on_c, 0, 69, 0
2, 72180, Note_on_c, 0, 74, 72
2, 72240, Note_on_c, 0, 74, 0
2, 72240, Note_on_c, 0, 78, 72
2, 72300, Note_on_c, 0, 78, 0
2, 72300, Note_on_c, 0, 74, 72
2, 72360, Note_on_c, 0, 74, 0
2, 72360, Note_on_c, 0, 79, 72
2, 72420, Note_on_c, 0, 79, 0
2, 72420, Note_on_c, 0, 74, 72
2, 72480, Note_on_c, 0, 74, 0
2, 72480, Note_on_c, 0, 81, 72
2, 72540, Note_on_c, 0, 81, 0
2, 72540, Note_on_c, 0, 74, 72
2, 72600, Note_on_c, 0, 74, 0
2, 72600, Note_on_c, 0, 83, 72
2, 72660, Note_on_c, 0, 83, 0
2, 72660, Note_on_c, 0, 74, 72
2, 72720, Note_on_c, 0, 74, 0
2, 72720, Note_on_c, 0, 81, 72
2, 72780, Note_on_c, 0, 81, 0
2, 72780, Note_on_c, 0, 74, 72
2, 72840, Note_on_c, 0, 74, 0
2, 72840, Note_on_c, 0, 79, 72
2, 72900, Note_on_c, 0, 79, 0
2, 72900, Note_on_c, 0, 74, 72
2, 72960, Note_on_c, 0, 74, 0
2, 72960, Note_on_c, 0, 78, 88
2, 73020, Note_on_c, 0, 78, 0
2, 73020, Note_on_c, 0, 74, 72
2, 73080, Note_on_c, 0, 74, 0
2, 73080, Note_on_c, 0, 73, 72
2, 73140, Note_on_c, 0, 73, 0
2, 73140, Note_on_c, 0, 74, 72
2, 73200, Note_on_c, 0, 74, 0
2, 73200, Note_on_c, 0, 83, 72
2, 73260, Note_on_c, 0, 83, 0
2, 73260, Note_on_c, 0, 74, 72
2, 73320, Note_on_c, 0, 74, 0
2, 73320, Note_on_c, 0, 73, 72
2, 73380, Note_on_c, 0, 73, 0
2, 73380, Note_on_c, 0, 74, 72
2, 73440, Note_on_c, 0, 74, 0
2, 73440, Note_on_c, 0, 81, 72
2, 73500, Note_on_c, 0, 81, 0
2, 73500, Note_on_c, 0, 74, 72
2, 73560, Note_on_c, 0, 74, 0
2, 73560, Note_on_c, 0, 73, 72
2, 73620, Note_on_c, 0, 73, 0
2, 73620, Note_on_c, 0, 74, 72
2, 73680, Note_on_c, 0, 74, 0
2, 73680, Note_on_c, 0, 79, 72
2, 73740, Note_on_c, 0, 79, 0
2, 73740, Note_on_c, 0, 74, 72
2, 73800, Note_on_c, 0, 74, 0
2, 73800, Note_on_c, 0, 73, 72
2, 73860, Note_on_c, 0, 73, 0
2, 73860, Note_on_c, 0, 74, 72
2, 73920, Note_on_c, 0, 74, 0
2, 73920, Note_on_c, 0, 78, 80
2, 73980, Note_on_c, 0, 78, 0
2, 73980, Note_on_c, 0, 74, 80
2, 74040, Note_on_c, 0, 74, 0
2, 74040, Note_on_c, 0, 73, 80
2, 74058, Note_on_c, 0, 73, 0
2, 74100, Note_on_c, 0, 74, 80
2, 74118, Note_on_c, 0, 74, 0
2, 74160, Note_on_c, 0, 83, 80
2, 74220, Note_on_c, 0, 83, 0
2, 74220, Note_on_c, 0, 74, 80
2, 74280, Note_on_c, 0, 74, 0
2, 74280, Note_on_c, 0, 86, 80
2, 74298, Note_on_c, 0, 86, 0
2, 74340, Note_on_c, 0, 74, 80
2, 74358, Note_on_c, 0, 74, 0
2, 74400, Note_on_c, 0, 81, 80
2, 74460, Note_on_c, 0, 81, 0
2, 74460, Note_on_c, 0, 74, 80
2, 74520, Note_on_c, 0, 74, 0
2, 74520, Note_on_c, 0, 86, 80
2, 74538, Note_on_c, 0, 86, 0
2, 74580, Note_on_c, 0, 74, 80
2, 74598, Note_on_c, 0, 74, 0
2, 74640, Note_on_c, 0, 79, 80
2, 74700, Note_on_c, 0, 79, 0
2, 74700, Note_on_c, 0, 74, 80
2, 74760, Note_on_c, 0, 74, 0
2, 74760, Note_on_c, 0, 86, 80
2, 74778, Note_on_c, 0, 86, 0
2, 74820, Note_on_c, 0, 74, 80
2, 74838, Note_on_c, 0, 74, 0
2, 74880, Note_on_c, 0, 78, 80
2, 74940, Note_on_c, 0, 78, 0
2, 74940, Note_on_c, 0, 74, 80
2, 75000, Note_on_c, 0, 74, 0
2, 75000, Note_on_c, 0, 86, 80
2, 75018, Note_on_c, 0, 86, 0
2, 75060, Note_on_c, 0, 74, 80
2, 75078, Note_on_c, 0, 74, 0
2, 75120, Note_on_c, 0, 78, 80
2, 75180, Note_on_c, 0, 78, 0
2, 75180, Note_on_c, 0, 74, 80
2, 75240, Note_on_c, 0, 74, 0
2, 75240, Note_on_c, 0, 86, 80
2, 75300, Note_on_c, 0, 86, 0
2, 75300, Note_on_c, 0, 74, 80
2, 75360, Note_on_c, 0, 74, 0
2, 75360, Note_on_c, 0, 80, 80
2, 75420, Note_on_c, 0, 80, 0
2, 75420, Note_on_c, 0, 74, 80
2, 75480, Note_on_c, 0, 74, 0
2, 75480, Note_on_c, 0, 86, 80
2, 75540, Note_on_c, 0, 86, 0
2, 75540, Note_on_c, 0, 74, 80
2, 75600, Note_on_c, 0, 74, 0
2, 75600, Note_on_c, 0, 80, 80
2, 75660, Note_on_c, 0, 80, 0
2, 75660, Note_on_c, 0, 74, 80
2, 75720, Note_on_c, 0, 74, 0
2, 75720, Note_on_c, 0, 86, 80
2, 75780, Note_on_c, 0, 86, 0
2, 75780, Note_on_c, 0, 74, 80
2, 75840, Note_on_c, 0, 74, 0
2, 75840, Note_on_c, 0, 81, 80
2, 75840, Note_on_c, 0, 85, 80
2, 76080, Note_on_c, 0, 85, 0
2, 76080, Note_on_c, 0, 81, 0
2, 76080, Note_on_c, 0, 61, 88
2, 76080, Note_on_c, 0, 69, 88
2, 76134, Note_on_c, 0, 69, 0
2, 76134, Note_on_c, 0, 61, 0
2, 76260, Note_on_c, 0, 61, 88
2, 76260, Note_on_c, 0, 69, 88
2, 76278, Note_on_c, 0, 69, 0
2, 76278, Note_on_c, 0, 61, 0
2, 76320, Note_on_c, 0, 61, 88
2, 76320, Note_on_c, 0, 69, 88
2, 76560, Note_on_c, 0, 69, 0
2, 76560, Note_on_c, 0, 61, 0
2, 76770, Note_on_c, 0, 83, 56
2, 76800, Note_on_c, 0, 83, 0
2, 76800, Note_on_c, 0, 81, 56
2, 76860, Note_on_c, 0, 81, 0
2, 76860, Note_on_c, 0, 80, 56
2, 76920, Note_on_c, 0, 80, 0
2, 76920, Note_on_c, 0, 81, 56
2, 76980, Note_on_c, 0, 81, 0
2, 76980, Note_on_c, 0, 83, 56
2, 77040, Note_on_c, 0, 83, 0
2, 77040, Note_on_c, 0, 81, 56
2, 77160, Note_on_c, 0, 81, 0
2, 77250, Note_on_c, 0, 74, 56
2, 77280, Note_on_c, 0, 74, 0
2, 77280, Note_on_c, 0, 73, 56
2, 77340, Note_on_c, 0, 73, 0
2, 77340, Note_on_c, 0, 71, 56
2, 77400, Note_on_c, 0, 71, 0
2, 77400, Note_on_c, 0, 73, 56
2, 77460, Note_on_c, 0, 73, 0
2, 77460, Note_on_c, 0, 74, 56
2, 77520, Note_on_c, 0, 74, 0
2, 77520, Note_on_c, 0, 73, 56
2, 77640, Note_on_c, 0, 73, 0
2, 77730, Note_on_c, 0, 81, 56
2, 77760, Note_on_c, 0, 81, 0
2, 77760, Note_on_c, 0, 79, 56
2, 77820, Note_on_c, 0, 79, 0
2, 77820, Note_on_c, 0, 78, 56
2, 77880, Note_on_c, 0, 78, 0
2, 77880, Note_on_c, 0, 79, 56
2, 77940, Note_on_c, 0, 79, 0
2, 77940, Note_on_c, 0, 81, 56
2, 78000, Note_on_c, 0, 81, 0
2, 78000, Note_on_c, 0, 79, 56
2, 78120, Note_on_c, 0, 79, 0
2, 78210, Note_on_c, 0, 79, 56
2, 78240, Note_on_c, 0, 79, 0
2, 78240, Note_on_c, 0, 78, 56
2, 78300, Note_on_c, 0, 78, 0
2, 78300, Note_on_c, 0, 76, 56
2, 78360, Note_on_c, 0, 76, 0
2, 78360, Note_on_c, 0, 78, 56
2, 78420, Note_on_c, 0, 78, 0
2, 78420, Note_on_c, 0, 79, 56
2, 78480, Note_on_c, 0, 79, 0
2, 78480, Note_on_c, 0, 78, 56
2, 78600, Note_on_c, 0, 78, 0
2, 78690, Note_on_c, 0, 78, 56
2, 78720, Note_on_c, 0, 78, 0
2, 78720, Note_on_c, 0, 76, 56
2, 78780, Note_on_c, 0, 76, 0
2, 78780, Note_on_c, 0, 75, 56
2, 78840, Note_on_c, 0, 75, 0
2, 78840, Note_on_c, 0, 76, 56
2, 78900, Note_on_c, 0, 76, 0
2, 78900, Note_on_c, 0, 78, 56
2, 78960, Note_on_c, 0, 78, 0
2, 78960, Note_on_c, 0, 76, 56
2, 79200, Note_on_c, 0, 76, 0
2, 79200, Note_on_c, 0, 64, 72
2, 79200, Note_on_c, 0, 67, 72
2, 79320, Note_on_c, 0, 67, 0
2, 79320, Note_on_c, 0, 64, 0
2, 79320, Note_on_c, 0, 76, 48
2, 79320, Note_on_c, 0, 79, 48
2, 79356, Note_on_c, 0, 79, 0
2, 79356, Note_on_c, 0, 76, 0
2, 79440, Note_on_c, 0, 76, 48
2, 79440, Note_on_c, 0, 79, 48
2, 79476, Note_on_c, 0, 79, 0
2, 79476, Note_on_c, 0, 76, 0
2, 79560, Note_on_c, 0, 75, 48
2, 79560, Note_on_c, 0, 78, 48
2, 79587, Note_on_c, 0, 78, 0
2, 79587, Note_on_c, 0, 75, 0
2, 79650, Note_on_c, 0, 78, 48
2, 79680, Note_on_c, 0, 78, 0
2, 79680, Note_on_c, 0, 76, 48
2, 79740, Note_on_c, 0, 76, 0
2, 79740, Note_on_c, 0, 75, 48
2, 79800, Note_on_c, 0, 75, 0
2, 79800, Note_on_c, 0, 76, 48
2, 79860, Note_on_c, 0, 76, 0
2, 79860, Note_on_c, 0, 78, 48
2, 79920, Note_on_c, 0, 78, 0
2, 79920, Note_on_c, 0, 76, 48
2, 80160, Note_on_c, 0, 76, 0
2, 80160, Note_on_c, 0, 64, 72
2, 80160, Note_on_c, 0, 67, 72
2, 80280, Note_on_c, 0, 67, 0
2, 80280, Note_on_c, 0, 64, 0
2, 80280, Note_on_c, 0, 79, 48
2, 80280, Note_on_c, 0, 76, 48
2, 80316, Note_on_c, 0, 76, 0
2, 80316, Note_on_c, 0, 79, 0
2, 80400, Note_on_c, 0, 76, 48
2, 80400, Note_on_c, 0, 79, 48
2, 80436, Note_on_c, 0, 79, 0
2, 80436, Note_on_c, 0, 76, 0
2, 80520, Note_on_c, 0, 75, 48
2, 80520, Note_on_c, 0, 78, 48
2, 80547, Note_on_c, 0, 78, 0
2, 80547, Note_on_c, 0, 75, 0
2, 80610, Note_on_c, 0, 78, 48
2, 80640, Note_on_c, 0, 78, 0
2, 80640, Note_on_c, 0, 76, 48
2, 80700, Note_on_c, 0, 76, 0
2, 80700, Note_on_c, 0, 75, 50
2, 80760, Note_on_c, 0, 75, 0
2, 80760, Note_on_c, 0, 76, 52
2, 80820, Note_on_c, 0, 76, 0
2, 80820, Note_on_c, 0, 78, 54
2, 80880, Note_on_c, 0, 78, 0
2, 80880, Note_on_c, 0, 76, 56
2, 81000, Note_on_c, 0, 76, 0
2, 81090, Note_on_c, 0, 76, 63
2, 81120, Note_on_c, 0, 76, 0
2, 81120, Note_on_c, 0, 74, 64
2, 81180, Note_on_c, 0, 74, 0
2, 81180, Note_on_c, 0, 73, 66
2, 81240, Note_on_c, 0, 73, 0
2, 81240, Note_on_c, 0, 74, 68
2, 81300, Note_on_c, 0, 74, 0
2, 81300, Note_on_c, 0, 76, 70
2, 81360, Note_on_c, 0, 76, 0
2, 81360, Note_on_c, 0, 74, 72
2, 81480, Note_on_c, 0, 74, 0
2, 81600, Note_on_c, 0, 81, 80
2, 81720, Note_on_c, 0, 81, 0
2, 81720, Note_on_c, 0, 69, 80
2, 81756, Note_on_c, 0, 69, 0
2, 81840, Note_on_c, 0, 69, 80
2, 81876, Note_on_c, 0, 69, 0
2, 81960, Note_on_c, 0, 69, 80
2, 81996, Note_on_c, 0, 69, 0
2, 82080, Note_on_c, 0, 69, 80
2, 82140, Note_on_c, 0, 69, 0
2, 82140, Note_on_c, 0, 71, 80
2, 82200, Note_on_c, 0, 71, 0
2, 82200, Note_on_c, 0, 69, 80
2, 82260, Note_on_c, 0, 69, 0
2, 82260, Note_on_c, 0, 67, 80
2, 82320, Note_on_c, 0, 67, 0
2, 82320, Note_on_c, 0, 66, 80
2, 82380, Note_on_c, 0, 66, 0
2, 82380, Note_on_c, 0, 64, 80
2, 82440, Note_on_c, 0, 64, 0
2, 82440, Note_on_c, 0, 62, 80
2, 82500, Note_on_c, 0, 62, 0
2, 82500, Note_on_c, 0, 61, 80
2, 82560, Note_on_c, 0, 61, 0
2, 82560, Note_on_c, 0, 62, 80
2, 82620, Note_on_c, 0, 62, 0
2, 82620, Note_on_c, 0, 66, 78
2, 82680, Note_on_c, 0, 66, 0
2, 82680, Note_on_c, 0, 64, 76
2, 82740, Note_on_c, 0, 64, 0
2, 82740, Note_on_c, 0, 67, 74
2, 82800, Note_on_c, 0, 67, 0
2, 82800, Note_on_c, 0, 66, 72
2, 82860, Note_on_c, 0, 66, 0
2, 82860, Note_on_c, 0, 69, 70
2, 82920, Note_on_c, 0, 69, 0
2, 82920, Note_on_c, 0, 67, 68
2, 82980, Note_on_c, 0, 67, 0
2, 82980, Note_on_c, 0, 71, 66
2, 83040, Note_on_c, 0, 71, 0
2, 83040, Note_on_c, 0, 69, 64
2, 83160, Note_on_c, 0, 69, 0
2, 83160, Note_on_c, 0, 71, 60
2, 83220, Note_on_c, 0, 71, 0
2, 83220, Note_on_c, 0, 73, 58
2, 83280, Note_on_c, 0, 73, 0
2, 83280, Note_on_c, 0, 74, 56
2, 83340, Note_on_c, 0, 74, 0
2, 83340, Note_on_c, 0, 76, 54
2, 83400, Note_on_c, 0, 76, 0
2, 83400, Note_on_c, 0, 78, 52
2, 83460, Note_on_c, 0, 78, 0
2, 83460, Note_on_c, 0, 79, 50
2, 83520, Note_on_c, 0, 79, 0
2, 83520, Note_on_c, 0, 81, 48
2, 83640, Note_on_c, 0, 81, 0
2, 83640, Note_on_c, 0, 69, 48
2, 83676, Note_on_c, 0, 69, 0
2, 83760, Note_on_c, 0, 69, 48
2, 83796, Note_on_c, 0, 69, 0
2, 83880, Note_on_c, 0, 69, 48
2, 83916, Note_on_c, 0, 69, 0
2, 84000, Note_on_c, 0, 69, 48
2, 84060, Note_on_c, 0, 69, 0
2, 84060, Note_on_c, 0, 71, 48
2, 84120, Note_on_c, 0, 71, 0
2, 84120, Note_on_c, 0, 69, 48
2, 84180, Note_on_c, 0, 69, 0
2, 84180, Note_on_c, 0, 67, 48
2, 84240, Note_on_c, 0, 67, 0
2, 84240, Note_on_c, 0, 66, 48
2, 84300, Note_on_c, 0, 66, 0
2, 84300, Note_on_c, 0, 64, 48
2, 84360, Note_on_c, 0, 64, 0
2, 84360, Note_on_c, 0, 62, 48
2, 84420, Note_on_c, 0, 62, 0
2, 84420, Note_on_c, 0, 61, 48
2, 84480, Note_on_c, 0, 61, 0
2, 84480, Note_on_c, 0, 62, 48
2, 84540, Note_on_c, 0, 62, 0
2, 84540, Note_on_c, 0, 66, 50
2, 84600, Note_on_c, 0, 66, 0
2, 84600, Note_on_c, 0, 64, 52
2, 84660, Note_on_c, 0, 64, 0
2, 84660, Note_on_c, 0, 67, 54
2, 84720, Note_on_c, 0, 67, 0
2, 84720, Note_on_c, 0, 66, 56
2, 84780, Note_on_c, 0, 66, 0
2, 84780, Note_on_c, 0, 69, 58
2, 84840, Note_on_c, 0, 69, 0
2, 84840, Note_on_c, 0, 67, 60
2, 84900, Note_on_c, 0, 67, 0
2, 84900, Note_on_c, 0, 71, 62
2, 84960, Note_on_c, 0, 71, 0
2, 84960, Note_on_c, 0, 69, 64
2, 85080, Note_on_c, 0, 69, 0
2, 85080, Note_on_c, 0, 71, 68
2, 85140, Note_on_c, 0, 71, 0
2, 85140, Note_on_c, 0, 73, 70
2, 85200, Note_on_c, 0, 73, 0
2, 85200, Note_on_c, 0, 74, 72
2, 85260, Note_on_c, 0, 74, 0
2, 85260, Note_on_c, 0, 76, 74
2, 85320, Note_on_c, 0, 76, 0
2, 85320, Note_on_c, 0, 78, 76
2, 85380, Note_on_c, 0, 78, 0
2, 85380, Note_on_c, 0, 79, 78
2, 85440, Note_on_c, 0, 79, 0
2, 85440, Note_on_c, 0, 81, 88
2, 85500, Note_on_c, 0, 81, 0
2, 85500, Note_on_c, 0, 71, 80
2, 85560, Note_on_c, 0, 71, 0
2, 85560, Note_on_c, 0, 70, 80
2, 85620, Note_on_c, 0, 70, 0
2, 85620, Note_on_c, 0, 71, 80
2, 85680, Note_on_c, 0, 71, 0
2, 85680, Note_on_c, 0, 70, 80
2, 85740, Note_on_c, 0, 70, 0
2, 85740, Note_on_c, 0, 71, 80
2, 85800, Note_on_c, 0, 71, 0
2, 85800, Note_on_c, 0, 70, 80
2, 85860, Note_on_c, 0, 70, 0
2, 85860, Note_on_c, 0, 71, 80
2, 85920, Note_on_c, 0, 71, 0
2, 85920, Note_on_c, 0, 79, 88
2, 85980, Note_on_c, 0, 79, 0
2, 85980, Note_on_c, 0, 67, 80
2, 86040, Note_on_c, 0, 67, 0
2, 86040, Note_on_c, 0, 66, 80
2, 86100, Note_on_c, 0, 66, 0
2, 86100, Note_on_c, 0, 67, 80
2, 86160, Note_on_c, 0, 67, 0
2, 86160, Note_on_c, 0, 66, 80
2, 86220, Note_on_c, 0, 66, 0
2, 86220, Note_on_c, 0, 67, 80
2, 86280, Note_on_c, 0, 67, 0
2, 86280, Note_on_c, 0, 66, 80
2, 86340, Note_on_c, 0, 66, 0
2, 86340, Note_on_c, 0, 67, 80
2, 86400, Note_on_c, 0, 67, 0
2, 86400, Note_on_c, 0, 79, 88
2, 86460, Note_on_c, 0, 79, 0
2, 86460, Note_on_c, 0, 76, 80
2, 86520, Note_on_c, 0, 76, 0
2, 86520, Note_on_c, 0, 75, 80
2, 86580, Note_on_c, 0, 75, 0
2, 86580, Note_on_c, 0, 76, 80
2, 86640, Note_on_c, 0, 76, 0
2, 86640, Note_on_c, 0, 75, 80
2, 86700, Note_on_c, 0, 75, 0
2, 86700, Note_on_c, 0, 76, 80
2, 86760, Note_on_c, 0, 76, 0
2, 86760, Note_on_c, 0, 75, 80
2, 86820, Note_on_c, 0, 75, 0
2, 86820, Note_on_c, 0, 76, 80
2, 86880, Note_on_c, 0, 76, 0
2, 86880, Note_on_c, 0, 78, 88
2, 86940, Note_on_c, 0, 78, 0
2, 86940, Note_on_c, 0, 74, 80
2, 87000, Note_on_c, 0, 74, 0
2, 87000, Note_on_c, 0, 73, 80
2, 87060, Note_on_c, 0, 73, 0
2, 87060, Note_on_c, 0, 74, 80
2, 87120, Note_on_c, 0, 74, 0
2, 87120, Note_on_c, 0, 73, 80
2, 87180, Note_on_c, 0, 73, 0
2, 87180, Note_on_c, 0, 74, 80
2, 87240, Note_on_c, 0, 74, 0
2, 87240, Note_on_c, 0, 73, 80
2, 87300, Note_on_c, 0, 73, 0
2, 87300, Note_on_c, 0, 74, 80
2, 87360, Note_on_c, 0, 74, 0
2, 87360, Note_on_c, 0, 79, 80
2, 87420, Note_on_c, 0, 79, 0
2, 87420, Note_on_c, 0, 76, 80
2, 87480, Note_on_c, 0, 76, 0
2, 87480, Note_on_c, 0, 75, 80
2, 87540, Note_on_c, 0, 75, 0
2, 87540, Note_on_c, 0, 76, 80
2, 87600, Note_on_c, 0, 76, 0
2, 87600, Note_on_c, 0, 78, 80
2, 87660, Note_on_c, 0, 78, 0
2, 87660, Note_on_c, 0, 74, 80
2, 87720, Note_on_c, 0, 74, 0
2, 87720, Note_on_c, 0, 73, 80
2, 87780, Note_on_c, 0, 73, 0
2, 87780, Note_on_c, 0, 74, 80
2, 87840, Note_on_c, 0, 74, 0
2, 87840, Note_on_c, 0, 79, 80
2, 87900, Note_on_c, 0, 79, 0
2, 87900, Note_on_c, 0, 76, 80
2, 87960, Note_on_c, 0, 76, 0
2, 87960, Note_on_c, 0, 75, 80
2, 88020, Note_on_c, 0, 75, 0
2, 88020, Note_on_c, 0, 76, 80
2, 88080, Note_on_c, 0, 76, 0
2, 88080, Note_on_c, 0, 78, 80
2, 88140, Note_on_c, 0, 78, 0
2, 88140, Note_on_c, 0, 74, 80
2, 88200, Note_on_c, 0, 74, 0
2, 88200, Note_on_c, 0, 73, 80
2, 88260, Note_on_c, 0, 73, 0
2, 88260, Note_on_c, 0, 74, 80
2, 88320, Note_on_c, 0, 74, 0
2, 88320, Note_on_c, 0, 79, 64
2, 88380, Note_on_c, 0, 79, 0
2, 88380, Note_on_c, 0, 76, 64
2, 88440, Note_on_c, 0, 76, 0
2, 88440, Note_on_c, 0, 75, 64
2, 88458, Note_on_c, 0, 75, 0
2, 88500, Note_on_c, 0, 76, 64
2, 88518, Note_on_c, 0, 76, 0
2, 88560, Note_on_c, 0, 77, 64
2, 88620, Note_on_c, 0, 77, 0
2, 88620, Note_on_c, 0, 74, 64
2, 88680, Note_on_c, 0, 74, 0
2, 88680, Note_on_c, 0, 73, 64
2, 88698, Note_on_c, 0, 73, 0
2, 88740, Note_on_c, 0, 74, 64
2, 88758, Note_on_c, 0, 74, 0
2, 88800, Note_on_c, 0, 79, 64
2, 88860, Note_on_c, 0, 79, 0
2, 88860, Note_on_c, 0, 76, 64
2, 88920, Note_on_c, 0, 76, 0
2, 88920, Note_on_c, 0, 75, 64
2, 88938, Note_on_c, 0, 75, 0
2, 88980, Note_on_c, 0, 76, 64
2, 89040, Note_on_c, 0, 76, 0
2, 89040, Note_on_c, 0, 77, 64
2, 89100, Note_on_c, 0, 77, 0
2, 89100, Note_on_c, 0, 74, 64
2, 89160, Note_on_c, 0, 74, 0
2, 89160, Note_on_c, 0, 73, 64
2, 89178, Note_on_c, 0, 73, 0
2, 89220, Note_on_c, 0, 74, 64
2, 89238, Note_on_c, 0, 74, 0
2, 89340, Note_on_c, 0, 86, 79
2, 89400, Note_on_c, 0, 86, 0
2, 89400, Note_on_c, 0, 82, 78
2, 89460, Note_on_c, 0, 82, 0
2, 89460, Note_on_c, 0, 86, 77
2, 89520, Note_on_c, 0, 86, 0
2, 89520, Note_on_c, 0, 77, 76
2, 89580, Note_on_c, 0, 77, 0
2, 89580, Note_on_c, 0, 82, 75
2, 89640, Note_on_c, 0, 82, 0
2, 89640, Note_on_c, 0, 74, 74
2, 89700, Note_on_c, 0, 74, 0
2, 89700, Note_on_c, 0, 77, 73
2, 89760, Note_on_c, 0, 77, 0
2, 89760, Note_on_c, 0, 70, 72
2, 90000, Note_on_c, 0, 70, 0
2, 90060, Note_on_c, 0, 74, 67
2, 90120, Note_on_c, 0, 74, 0
2, 90120, Note_on_c, 0, 77, 66
2, 90180, Note_on_c, 0, 77, 0
2, 90180, Note_on_c, 0, 82, 65
2, 90240, Note_on_c, 0, 82, 0
2, 90240, Note_on_c, 0, 86, 64
2, 90300, Note_on_c, 0, 86, 0
2, 90300, Note_on_c, 0, 77, 62
2, 90360, Note_on_c, 0, 77, 0
2, 90360, Note_on_c, 0, 82, 61
2, 90420, Note_on_c, 0, 82, 0
2, 90420, Note_on_c, 0, 86, 59
2, 90480, Note_on_c, 0, 86, 0
2, 90480, Note_on_c, 0, 89, 58
2, 90540, Note_on_c, 0, 89, 0
2, 90540, Note_on_c, 0, 77, 56
2, 90558, Note_on_c, 0, 77, 0
2, 90600, Note_on_c, 0, 82, 55
2, 90618, Note_on_c, 0, 82, 0
2, 90660, Note_on_c, 0, 86, 53
2, 90678, Note_on_c, 0, 86, 0
2, 90720, Note_on_c, 0, 89, 52
2, 90840, Note_on_c, 0, 89, 0
2, 91260, Note_on_c, 0, 77, 80
2, 91320, Note_on_c, 0, 77, 0
2, 91320, Note_on_c, 0, 74, 80
2, 91380, Note_on_c, 0, 74, 0
2, 91380, Note_on_c, 0, 77, 80
2, 91440, Note_on_c, 0, 77, 0
2, 91440, Note_on_c, 0, 71, 80
2, 91500, Note_on_c, 0, 71, 0
2, 91500, Note_on_c, 0, 74, 80
2, 91560, Note_on_c, 0, 74, 0
2, 91560, Note_on_c, 0, 68, 80
2, 91620, Note_on_c, 0, 68, 0
2, 91620, Note_on_c, 0, 71, 80
2, 91680, Note_on_c, 0, 71, 0
2, 91680, Note_on_c, 0, 65, 80
2, 91740, Note_on_c, 0, 65, 0
2, 91740, Note_on_c, 0, 68, 80
2, 91800, Note_on_c, 0, 68, 0
2, 91800, Note_on_c, 0, 62, 80
2, 91860, Note_on_c, 0, 62, 0
2, 91860, Note_on_c, 0, 65, 80
2, 91920, Note_on_c, 0, 65, 0
2, 91920, Note_on_c, 0, 59, 80
2, 91980, Note_on_c, 0, 59, 0
2, 91980, Note_on_c, 0, 62, 80
2, 92040, Note_on_c, 0, 62, 0
2, 92040, Note_on_c, 0, 56, 80
2, 92100, Note_on_c, 0, 56, 0
2, 92100, Note_on_c, 0, 59, 80
2, 92160, Note_on_c, 0, 59, 0
2, 92280, Note_on_c, 0, 57, 80
2, 92400, Note_on_c, 0, 57, 0
2, 92400, Note_on_c, 0, 62, 80
2, 92436, Note_on_c, 0, 62, 0
2, 92520, Note_on_c, 0, 66, 80
2, 92556, Note_on_c, 0, 66, 0
2, 92640, Note_on_c, 0, 69, 80
2, 92676, Note_on_c, 0, 69, 0
2, 92760, Note_on_c, 0, 74, 80
2, 92796, Note_on_c, 0, 74, 0
2, 92880, Note_on_c, 0, 78, 80
2, 92916, Note_on_c, 0, 78, 0
2, 93000, Note_on_c, 0, 81, 80
2, 93036, Note_on_c, 0, 81, 0
2, 93600, Note_on_c, 0, 76, 67
2, 93630, Note_on_c, 0, 76, 0
2, 93630, Note_on_c, 0, 78, 68
2, 93660, Note_on_c, 0, 78, 0
2, 93660, Note_on_c, 0, 76, 69
2, 93690, Note_on_c, 0, 76, 0
2, 93690, Note_on_c, 0, 78, 70
2, 93720, Note_on_c, 0, 78, 0
2, 93720, Note_on_c, 0, 76, 71
2, 93750, Note_on_c, 0, 76, 0
2, 93750, Note_on_c, 0, 78, 71
2, 93780, Note_on_c, 0, 78, 0
2, 93780, Note_on_c, 0, 76, 72
2, 93810, Note_on_c, 0, 76, 0
2, 93810, Note_on_c, 0, 78, 73
2, 93840, Note_on_c, 0, 78, 0
2, 93840, Note_on_c, 0, 76, 74
2, 93870, Note_on_c, 0, 76, 0
2, 93870, Note_on_c, 0, 78, 75
2, 93900, Note_on_c, 0, 78, 0
2, 93900, Note_on_c, 0, 76, 75
2, 93930, Note_on_c, 0, 76, 0
2, 93930, Note_on_c, 0, 78, 76
2, 93960, Note_on_c, 0, 78, 0
2, 93960, Note_on_c, 0, 76, 77
2, 93980, Note_on_c, 0, 76, 0
2, 93980, Note_on_c, 0, 78, 77
2, 94000, Note_on_c, 0, 78, 0
2, 94000, Note_on_c, 0, 76, 78
2, 94020, Note_on_c, 0, 76, 0
2, 94020, Note_on_c, 0, 74, 79
2, 94050, Note_on_c, 0, 74, 0
2, 94050, Note_on_c, 0, 76, 79
2, 94080, Note_on_c, 0, 76, 0
2, 94080, Note_on_c, 0, 74, 80
2, 94320, Note_on_c, 0, 74, 0
2, 94320, Note_on_c, 0, 71, 64
2, 94320, Note_on_c, 0, 74, 64
2, 94356, Note_on_c, 0, 74, 0
2, 94356, Note_on_c, 0, 71, 0
2, 94440, Note_on_c, 0, 69, 64
2, 94440, Note_on_c, 0, 73, 64
2, 94458, Note_on_c, 0, 73, 0
2, 94476, Note_on_c, 0, 69, 0
2, 94500, Note_on_c, 0, 71, 64
2, 94530, Note_on_c, 0, 71, 0
2, 94530, Note_on_c, 0, 73, 64
2, 94560, Note_on_c, 0, 73, 0
2, 94560, Note_on_c, 0, 67, 64
2, 94560, Note_on_c, 0, 71, 64
2, 94620, Note_on_c, 0, 71, 0
2, 94620, Note_on_c, 0, 67, 0
2, 94800, Note_on_c, 0, 67, 64
2, 94800, Note_on_c, 0, 71, 64
2, 94836, Note_on_c, 0, 71, 0
2, 94836, Note_on_c, 0, 67, 0
2, 94920, Note_on_c, 0, 66, 64
2, 94920, Note_on_c, 0, 69, 64
2, 94938, Note_on_c, 0, 69, 0
2, 94956, Note_on_c, 0, 66, 0
2, 94980, Note_on_c, 0, 67, 64
2, 95010, Note_on_c, 0, 67, 0
2, 95010, Note_on_c, 0, 69, 64
2, 95040, Note_on_c, 0, 69, 0
2, 95040, Note_on_c, 0, 64, 64
2, 95040, Note_on_c, 0, 67, 64
2, 95112, Note_on_c, 0, 67, 0
2, 95112, Note_on_c, 0, 64, 0
2, 95280, Note_on_c, 0, 57, 88
2, 95280, Note_on_c, 0, 66, 88
2, 95316, Note_on_c, 0, 66, 0
2, 95316, Note_on_c, 0, 57, 0
2, 95400, Note_on_c, 0, 57, 88
2, 95400, Note_on_c, 0, 66, 88
2, 95520, Note_on_c, 0, 66, 0
2, 95520, Note_on_c, 0, 57, 0
2, 95520, Note_on_c, 0, 59, 88
2, 95520, Note_on_c, 0, 64, 88
2, 95640, Note_on_c, 0, 64, 0
2, 95640, Note_on_c, 0, 59, 0
2, 95760, Note_on_c, 0, 55, 88
2, 95760, Note_on_c, 0, 61, 88
2, 95796, Note_on_c, 0, 61, 0
2, 95796, Note_on_c, 0, 55, 0
2, 95880, Note_on_c, 0, 55, 88
2, 95880, Note_on_c, 0, 61, 88
2, 96000, Note_on_c, 0, 61, 0
2, 96000, Note_on_c, 0, 55, 0
2, 96000, Note_on_c, 0, 62, 88
2, 96120, Note_on_c, 0, 62, 0
2, 96240, Note_on_c, 0, 86, 64
2, 96300, Note_on_c, 0, 86, 0
2, 96300, Note_on_c, 0, 88, 64
2, 96360, Note_on_c, 0, 88, 0
2, 96360, Note_on_c, 0, 85, 64
2, 96420, Note_on_c, 0, 85, 0
2, 96420, Note_on_c, 0, 86, 64
2, 96480, Note_on_c, 0, 86, 0
2, 96480, Note_on_c, 0, 83, 64
2, 96600, Note_on_c, 0, 83, 0
2, 96720, Note_on_c, 0, 83, 64
2, 96780, Note_on_c, 0, 83, 0
2, 96780, Note_on_c, 0, 85, 64
2, 96840, Note_on_c, 0, 85, 0
2, 96840, Note_on_c, 0, 81, 64
2, 96900, Note_on_c, 0, 81, 0
2, 96900, Note_on_c, 0, 83, 64
2, 96960, Note_on_c, 0, 83, 0
2, 96960, Note_on_c, 0, 79, 64
2, 97080, Note_on_c, 0, 79, 0
2, 97200, Note_on_c, 0, 69, 88
2, 97200, Note_on_c, 0, 78, 88
2, 97236, Note_on_c, 0, 78, 0
2, 97236, Note_on_c, 0, 69, 0
2, 97320, Note_on_c, 0, 69, 88
2, 97320, Note_on_c, 0, 78, 88
2, 97440, Note_on_c, 0, 78, 0
2, 97440, Note_on_c, 0, 69, 0
2, 97440, Note_on_c, 0, 71, 88
2, 97440, Note_on_c, 0, 76, 88
2, 97476, Note_on_c, 0, 76, 0
2, 97476, Note_on_c, 0, 71, 0
2, 97560, Note_on_c, 0, 71, 88
2, 97560, Note_on_c, 0, 76, 88
2, 97680, Note_on_c, 0, 76, 0
2, 97680, Note_on_c, 0, 71, 0
2, 97680, Note_on_c, 0, 67, 88
2, 97680, Note_on_c, 0, 73, 88
2, 97716, Note_on_c, 0, 73, 0
2, 97716, Note_on_c, 0, 67, 0
2, 97800, Note_on_c, 0, 67, 88
2, 97800, Note_on_c, 0, 73, 88
2, 97920, Note_on_c, 0, 73, 0
2, 97920, Note_on_c, 0, 67, 0
2, 97920, Note_on_c, 0, 74, 88
2, 97980, Note_on_c, 0, 74, 0
2, 97980, Note_on_c, 0, 69, 89
2, 98040, Note_on_c, 0, 69, 0
2, 98040, Note_on_c, 0, 78, 89
2, 98100, Note_on_c, 0, 78, 0
2, 98100, Note_on_c, 0, 69, 90
2, 98160, Note_on_c, 0, 69, 0
2, 98160, Note_on_c, 0, 74, 90
2, 98220, Note_on_c, 0, 74, 0
2, 98220, Note_on_c, 0, 69, 91
2, 98280, Note_on_c, 0, 69, 0
2, 98280, Note_on_c, 0, 73, 91
2, 98340, Note_on_c, 0, 73, 0
2, 98340, Note_on_c, 0, 69, 92
2, 98400, Note_on_c, 0, 69, 0
2, 98400, Note_on_c, 0, 74, 92
2, 98460, Note_on_c, 0, 74, 0
2, 98460, Note_on_c, 0, 69, 93
2, 98520, Note_on_c, 0, 69, 0
2, 98520, Note_on_c, 0, 78, 93
2, 98580, Note_on_c, 0, 78, 0
2, 98580, Note_on_c, 0, 69, 94
2, 98640, Note_on_c, 0, 69, 0
2, 98640, Note_on_c, 0, 74, 94
2, 98700, Note_on_c, 0, 74, 0
2, 98700, Note_on_c, 0, 69, 95
2, 98760, Note_on_c, 0, 69, 0
2, 98760, Note_on_c, 0, 73, 95
2, 98820, Note_on_c, 0, 73, 0
2, 98820, Note_on_c, 0, 69, 96
2, 98880, Note_on_c, 0, 69, 0
2, 98880, Note_on_c, 0, 74, 96
2, 99120, Note_on_c, 0, 74, 0
2, 99120, Note_on_c, 0, 74, 96
2, 99120, Note_on_c, 0, 78, 96
2, 99174, Note_on_c, 0, 78, 0
2, 99174, Note_on_c, 0, 74, 0
2, 99300, Note_on_c, 0, 78, 96
2, 99300, Note_on_c, 0, 81, 96
2, 99318, Note_on_c, 0, 81, 0
2, 99318, Note_on_c, 0, 78, 0
2, 99360, Note_on_c, 0, 74, 96
2, 99360, Note_on_c, 0, 78, 96
2, 99600, Note_on_c, 0, 78, 0
2, 99600, Note_on_c, 0, 74, 0
2, 99600, End_track
3, 0, Start_track
3, 0, MIDI_port, 0
3, 0, Title_t, "by F.J. Haydn - 1st mvmt. (allegro con brio)"
3, 0, Program_c, 1, 0
3, 0, Control_c, 1, 7, 127
3, 0, Control_c, 1, 10, 56
3, 960, Note_on_c, 1, 50, 80
3, 960, Note_on_c, 1, 54, 80
3, 960, Note_on_c, 1, 57, 80
3, 960, Note_on_c, 1, 62, 80
3, 960, Control_c, 1, 10, 0
3, 1200, Note_on_c, 1, 62, 0
3, 1200, Note_on_c, 1, 50, 0
3, 1200, Note_on_c, 1, 54, 0
3, 1200, Note_on_c, 1, 57, 0
3, 1320, Note_on_c, 1, 66, 64
3, 1320, Note_on_c, 1, 69, 64
3, 1440, Note_on_c, 1, 69, 0
3, 1440, Note_on_c, 1, 66, 0
3, 1440, Note_on_c, 1, 67, 64
3, 1440, Note_on_c, 1, 71, 64
3, 1560, Note_on_c, 1, 71, 0
3, 1560, Note_on_c, 1, 67, 0
3, 1560, Note_on_c, 1, 66, 64
3, 1560, Note_on_c, 1, 69, 64
3, 1596, Note_on_c, 1, 69, 0
3, 1596, Note_on_c, 1, 66, 0
3, 1680, Note_on_c, 1, 67, 64
3, 1680, Note_on_c, 1, 71, 64
3, 1800, Note_on_c, 1, 71, 0
3, 1800, Note_on_c, 1, 67, 0
3, 1800, Note_on_c, 1, 66, 64
3, 1800, Note_on_c, 1, 69, 64
3, 1836, Note_on_c, 1, 69, 0
3, 1836, Note_on_c, 1, 66, 0
3, 1920, Note_on_c, 1, 62, 80
3, 1920, Note_on_c, 1, 66, 80
3, 1920, Note_on_c, 1, 69, 80
3, 2160, Note_on_c, 1, 69, 0
3, 2160, Note_on_c, 1, 66, 0
3, 2160, Note_on_c, 1, 62, 0
3, 2280, Note_on_c, 1, 66, 64
3, 2280, Note_on_c, 1, 69, 64
3, 2400, Note_on_c, 1, 69, 0
3, 2400, Note_on_c, 1, 66, 0
3, 2400, Note_on_c, 1, 67, 64
3, 2400, Note_on_c, 1, 71, 64
3, 2520, Note_on_c, 1, 71, 0
3, 2520, Note_on_c, 1, 67, 0
3, 2520, Note_on_c, 1, 66, 64
3, 2520, Note_on_c, 1, 69, 64
3, 2556, Note_on_c, 1, 69, 0
3, 2556, Note_on_c, 1, 66, 0
3, 2640, Note_on_c, 1, 67, 64
3, 2640, Note_on_c, 1, 71, 64
3, 2760, Note_on_c, 1, 71, 0
3, 2760, Note_on_c, 1, 67, 0
3, 2760, Note_on_c, 1, 66, 64
3, 2760, Note_on_c, 1, 69, 64
3, 2796, Note_on_c, 1, 69, 0
3, 2796, Note_on_c, 1, 66, 0
3, 2880, Note_on_c, 1, 71, 80
3, 2916, Note_on_c, 1, 71, 0
3, 3000, Note_on_c, 1, 71, 80
3, 3120, Note_on_c, 1, 71, 0
3, 3120, Note_on_c, 1, 69, 80
3, 3156, Note_on_c, 1, 69, 0
3, 3240, Note_on_c, 1, 69, 80
3, 3360, Note_on_c, 1, 69, 0
3, 3360, Note_on_c, 1, 67, 80
3, 3396, Note_on_c, 1, 67, 0
3, 3480, Note_on_c, 1, 67, 80
3, 3600, Note_on_c, 1, 67, 0
3, 3600, Note_on_c, 1, 66, 80
3, 3636, Note_on_c, 1, 66, 0
3, 3720, Note_on_c, 1, 66, 80
3, 3840, Note_on_c, 1, 66, 0
3, 3840, Note_on_c, 1, 64, 80
3, 3960, Note_on_c, 1, 64, 0
3, 3960, Note_on_c, 1, 61, 80
3, 4080, Note_on_c, 1, 61, 0
3, 4080, Note_on_c, 1, 62, 80
3, 4200, Note_on_c, 1, 62, 0
3, 4200, Note_on_c, 1, 66, 80
3, 4320, Note_on_c, 1, 66, 0
3, 4320, Note_on_c, 1, 69, 80
3, 4560, Note_on_c, 1, 69, 0
3, 4800, Note_on_c, 1, 62, 64
3, 4860, Note_on_c, 1, 62, 0
3, 4860, Note_on_c, 1, 69, 64
3, 4920, Note_on_c, 1, 69, 0
3, 4920, Note_on_c, 1, 66, 64
3, 4980, Note_on_c, 1, 66, 0
3, 4980, Note_on_c, 1, 69, 64
3, 5040, Note_on_c, 1, 69, 0
3, 5040, Note_on_c, 1, 66, 64
3, 5100, Note_on_c, 1, 66, 0
3, 5100, Note_on_c, 1, 69, 64
3, 5160, Note_on_c, 1, 69, 0
3, 5160, Note_on_c, 1, 66, 64
3, 5220, Note_on_c, 1, 66, 0
3, 5220, Note_on_c, 1, 69, 64
3, 5280, Note_on_c, 1, 69, 0
3, 5280, Note_on_c, 1, 67, 64
3, 5340, Note_on_c, 1, 67, 0
3, 5340, Note_on_c, 1, 69, 64
3, 5400, Note_on_c, 1, 69, 0
3, 5400, Note_on_c, 1, 66, 64
3, 5460, Note_on_c, 1, 66, 0
3, 5460, Note_on_c, 1, 69, 64
3, 5520, Note_on_c, 1, 69, 0
3, 5520, Note_on_c, 1, 67, 64
3, 5580, Note_on_c, 1, 67, 0
3, 5580, Note_on_c, 1, 69, 64
3, 5640, Note_on_c, 1, 69, 0
3, 5640, Note_on_c, 1, 66, 64
3, 5700, Note_on_c, 1, 66, 0
3, 5700, Note_on_c, 1, 69, 64
3, 5760, Note_on_c, 1, 69, 0
3, 5760, Note_on_c, 1, 62, 64
3, 5820, Note_on_c, 1, 62, 0
3, 5820, Note_on_c, 1, 69, 64
3, 5880, Note_on_c, 1, 69, 0
3, 5880, Note_on_c, 1, 66, 64
3, 5940, Note_on_c, 1, 66, 0
3, 5940, Note_on_c, 1, 69, 64
3, 6000, Note_on_c, 1, 69, 0
3, 6000, Note_on_c, 1, 66, 64
3, 6060, Note_on_c, 1, 66, 0
3, 6060, Note_on_c, 1, 69, 64
3, 6120, Note_on_c, 1, 69, 0
3, 6120, Note_on_c, 1, 66, 64
3, 6180, Note_on_c, 1, 66, 0
3, 6180, Note_on_c, 1, 69, 64
3, 6240, Note_on_c, 1, 69, 0
3, 6240, Note_on_c, 1, 67, 64
3, 6300, Note_on_c, 1, 67, 0
3, 6300, Note_on_c, 1, 69, 64
3, 6360, Note_on_c, 1, 69, 0
3, 6360, Note_on_c, 1, 66, 64
3, 6420, Note_on_c, 1, 66, 0
3, 6420, Note_on_c, 1, 69, 64
3, 6480, Note_on_c, 1, 69, 0
3, 6480, Note_on_c, 1, 67, 64
3, 6540, Note_on_c, 1, 67, 0
3, 6540, Note_on_c, 1, 69, 64
3, 6600, Note_on_c, 1, 69, 0
3, 6600, Note_on_c, 1, 66, 64
3, 6660, Note_on_c, 1, 66, 0
3, 6660, Note_on_c, 1, 69, 64
3, 6720, Note_on_c, 1, 69, 0
3, 6720, Note_on_c, 1, 71, 80
3, 6756, Note_on_c, 1, 71, 0
3, 6840, Note_on_c, 1, 71, 80
3, 6960, Note_on_c, 1, 71, 0
3, 6960, Note_on_c, 1, 69, 80
3, 6996, Note_on_c, 1, 69, 0
3, 7080, Note_on_c, 1, 69, 80
3, 7200, Note_on_c, 1, 69, 0
3, 7200, Note_on_c, 1, 67, 80
3, 7236, Note_on_c, 1, 67, 0
3, 7320, Note_on_c, 1, 67, 80
3, 7440, Note_on_c, 1, 67, 0
3, 7440, Note_on_c, 1, 66, 80
3, 7476, Note_on_c, 1, 66, 0
3, 7560, Note_on_c, 1, 66, 80
3, 7644, Note_on_c, 1, 66, 0
3, 7680, Note_on_c, 1, 67, 80
3, 7920, Note_on_c, 1, 67, 0
3, 8040, Note_on_c, 1, 57, 80
3, 8064, Note_on_c, 1, 57, 0
3, 8160, Note_on_c, 1, 50, 80
3, 8400, Note_on_c, 1, 50, 0
3, 8640, Note_on_c, 1, 38, 88
3, 8640, Note_on_c, 1, 50, 88
3, 8880, Note_on_c, 1, 50, 0
3, 8880, Note_on_c, 1, 38, 0
3, 8880, Note_on_c, 1, 50, 64
3, 8916, Note_on_c, 1, 50, 0
3, 9000, Note_on_c, 1, 49, 64
3, 9036, Note_on_c, 1, 49, 0
3, 9120, Note_on_c, 1, 50, 64
3, 9156, Note_on_c, 1, 50, 0
3, 9240, Note_on_c, 1, 52, 64
3, 9276, Note_on_c, 1, 52, 0
3, 9360, Note_on_c, 1, 54, 64
3, 9480, Note_on_c, 1, 54, 0
3, 9480, Note_on_c, 1, 52, 64
3, 9516, Note_on_c, 1, 52, 0
3, 9600, Note_on_c, 1, 38, 88
3, 9600, Note_on_c, 1, 50, 88
3, 9840, Note_on_c, 1, 50, 0
3, 9840, Note_on_c, 1, 38, 0
3, 9840, Note_on_c, 1, 50, 64
3, 9876, Note_on_c, 1, 50, 0
3, 9960, Note_on_c, 1, 52, 64
3, 9996, Note_on_c, 1, 52, 0
3, 10080, Note_on_c, 1, 54, 64
3, 10200, Note_on_c, 1, 54, 0
3, 10200, Note_on_c, 1, 55, 64
3, 10236, Note_on_c, 1, 55, 0
3, 10320, Note_on_c, 1, 54, 64
3, 10356, Note_on_c, 1, 54, 0
3, 10440, Note_on_c, 1, 52, 64
3, 10476, Note_on_c, 1, 52, 0
3, 10560, Note_on_c, 1, 38, 88
3, 10560, Note_on_c, 1, 50, 88
3, 10800, Note_on_c, 1, 50, 0
3, 10800, Note_on_c, 1, 38, 0
3, 10800, Note_on_c, 1, 62, 48
3, 10836, Note_on_c, 1, 62, 0
3, 10920, Note_on_c, 1, 61, 48
3, 10956, Note_on_c, 1, 61, 0
3, 11040, Note_on_c, 1, 62, 48
3, 11076, Note_on_c, 1, 62, 0
3, 11160, Note_on_c, 1, 64, 48
3, 11196, Note_on_c, 1, 64, 0
3, 11280, Note_on_c, 1, 66, 48
3, 11400, Note_on_c, 1, 66, 0
3, 11400, Note_on_c, 1, 64, 48
3, 11436, Note_on_c, 1, 64, 0
3, 11520, Note_on_c, 1, 50, 72
3, 11520, Note_on_c, 1, 62, 72
3, 11760, Note_on_c, 1, 62, 0
3, 11760, Note_on_c, 1, 50, 0
3, 11760, Note_on_c, 1, 62, 56
3, 11796, Note_on_c, 1, 62, 0
3, 11880, Note_on_c, 1, 64, 60
3, 11916, Note_on_c, 1, 64, 0
3, 12000, Note_on_c, 1, 66, 64
3, 12120, Note_on_c, 1, 66, 0
3, 12120, Note_on_c, 1, 67, 68
3, 12156, Note_on_c, 1, 67, 0
3, 12240, Note_on_c, 1, 66, 72
3, 12276, Note_on_c, 1, 66, 0
3, 12360, Note_on_c, 1, 64, 76
3, 12396, Note_on_c, 1, 64, 0
3, 12480, Note_on_c, 1, 62, 80
3, 12600, Note_on_c, 1, 62, 0
3, 12600, Note_on_c, 1, 66, 80
3, 12720, Note_on_c, 1, 66, 0
3, 12720, Note_on_c, 1, 67, 80
3, 12840, Note_on_c, 1, 67, 0
3, 12840, Note_on_c, 1, 71, 80
3, 12900, Note_on_c, 1, 71, 0
3, 12960, Note_on_c, 1, 66, 80
3, 13080, Note_on_c, 1, 66, 0
3, 13080, Note_on_c, 1, 69, 80
3, 13140, Note_on_c, 1, 69, 0
3, 13200, Note_on_c, 1, 64, 80
3, 13320, Note_on_c, 1, 64, 0
3, 13320, Note_on_c, 1, 67, 80
3, 13380, Note_on_c, 1, 67, 0
3, 13440, Note_on_c, 1, 62, 48
3, 13476, Note_on_c, 1, 62, 0
3, 13560, Note_on_c, 1, 66, 48
3, 13596, Note_on_c, 1, 66, 0
3, 13680, Note_on_c, 1, 67, 48
3, 13800, Note_on_c, 1, 67, 0
3, 13800, Note_on_c, 1, 71, 48
3, 13836, Note_on_c, 1, 71, 0
3, 13920, Note_on_c, 1, 66, 48
3, 14040, Note_on_c, 1, 66, 0
3, 14040, Note_on_c, 1, 69, 48
3, 14076, Note_on_c, 1, 69, 0
3, 14160, Note_on_c, 1, 64, 48
3, 14280, Note_on_c, 1, 64, 0
3, 14280, Note_on_c, 1, 67, 48
3, 14316, Note_on_c, 1, 67, 0
3, 14400, Note_on_c, 1, 66, 80
3, 14460, Note_on_c, 1, 66, 0
3, 14460, Note_on_c, 1, 62, 80
3, 14478, Note_on_c, 1, 62, 0
3, 14520, Note_on_c, 1, 64, 80
3, 14538, Note_on_c, 1, 64, 0
3, 14580, Note_on_c, 1, 66, 80
3, 14598, Note_on_c, 1, 66, 0
3, 14640, Note_on_c, 1, 67, 80
3, 14700, Note_on_c, 1, 67, 0
3, 14700, Note_on_c, 1, 69, 80
3, 14760, Note_on_c, 1, 69, 0
3, 14760, Note_on_c, 1, 71, 80
3, 14820, Note_on_c, 1, 71, 0
3, 14820, Note_on_c, 1, 73, 80
3, 14880, Note_on_c, 1, 73, 0
3, 14880, Note_on_c, 1, 74, 80
3, 14940, Note_on_c, 1, 74, 0
3, 14940, Note_on_c, 1, 73, 80
3, 15000, Note_on_c, 1, 73, 0
3, 15000, Note_on_c, 1, 74, 80
3, 15060, Note_on_c, 1, 74, 0
3, 15060, Note_on_c, 1, 73, 80
3, 15120, Note_on_c, 1, 73, 0
3, 15120, Note_on_c, 1, 74, 80
3, 15180, Note_on_c, 1, 74, 0
3, 15180, Note_on_c, 1, 69, 80
3, 15240, Note_on_c, 1, 69, 0
3, 15240, Note_on_c, 1, 66, 80
3, 15300, Note_on_c, 1, 66, 0
3, 15300, Note_on_c, 1, 62, 80
3, 15360, Note_on_c, 1, 62, 0
3, 15360, Note_on_c, 1, 69, 80
3, 15576, Note_on_c, 1, 69, 0
3, 15600, Note_on_c, 1, 45, 88
3, 15600, Note_on_c, 1, 57, 88
3, 15654, Note_on_c, 1, 57, 0
3, 15654, Note_on_c, 1, 45, 0
3, 15780, Note_on_c, 1, 45, 88
3, 15780, Note_on_c, 1, 57, 88
3, 15798, Note_on_c, 1, 57, 0
3, 15798, Note_on_c, 1, 45, 0
3, 15840, Note_on_c, 1, 45, 88
3, 15840, Note_on_c, 1, 57, 88
3, 16080, Note_on_c, 1, 57, 0
3, 16080, Note_on_c, 1, 45, 0
3, 16320, Note_on_c, 1, 61, 72
3, 16320, Note_on_c, 1, 64, 72
3, 16380, Note_on_c, 1, 64, 0
3, 16380, Note_on_c, 1, 61, 0
3, 16440, Note_on_c, 1, 61, 48
3, 16440, Note_on_c, 1, 64, 48
3, 16476, Note_on_c, 1, 64, 0
3, 16476, Note_on_c, 1, 61, 0
3, 16560, Note_on_c, 1, 61, 48
3, 16560, Note_on_c, 1, 64, 48
3, 16596, Note_on_c, 1, 64, 0
3, 16596, Note_on_c, 1, 61, 0
3, 16680, Note_on_c, 1, 61, 48
3, 16680, Note_on_c, 1, 64, 48
3, 16800, Note_on_c, 1, 64, 0
3, 16800, Note_on_c, 1, 61, 0
3, 16800, Note_on_c, 1, 62, 72
3, 16800, Note_on_c, 1, 66, 72
3, 16860, Note_on_c, 1, 66, 0
3, 16860, Note_on_c, 1, 62, 0
3, 16920, Note_on_c, 1, 62, 48
3, 16920, Note_on_c, 1, 66, 48
3, 16956, Note_on_c, 1, 66, 0
3, 16956, Note_on_c, 1, 62, 0
3, 17040, Note_on_c, 1, 62, 48
3, 17040, Note_on_c, 1, 66, 48
3, 17076, Note_on_c, 1, 66, 0
3, 17076, Note_on_c, 1, 62, 0
3, 17160, Note_on_c, 1, 62, 48
3, 17160, Note_on_c, 1, 66, 48
3, 17280, Note_on_c, 1, 66, 0
3, 17280, Note_on_c, 1, 62, 0
3, 17280, Note_on_c, 1, 64, 72
3, 17280, Note_on_c, 1, 68, 72
3, 17340, Note_on_c, 1, 68, 0
3, 17340, Note_on_c, 1, 64, 0
3, 17400, Note_on_c, 1, 64, 40
3, 17400, Note_on_c, 1, 68, 40
3, 17436, Note_on_c, 1, 68, 0
3, 17436, Note_on_c, 1, 64, 0
3, 17520, Note_on_c, 1, 64, 40
3, 17520, Note_on_c, 1, 68, 40
3, 17556, Note_on_c, 1, 68, 0
3, 17556, Note_on_c, 1, 64, 0
3, 17640, Note_on_c, 1, 64, 40
3, 17640, Note_on_c, 1, 68, 40
3, 17760, Note_on_c, 1, 68, 0
3, 17760, Note_on_c, 1, 64, 0
3, 17760, Note_on_c, 1, 69, 72
3, 17760, Note_on_c, 1, 66, 72
3, 17796, Note_on_c, 1, 66, 0
3, 17796, Note_on_c, 1, 69, 0
3, 17880, Note_on_c, 1, 66, 40
3, 17880, Note_on_c, 1, 69, 40
3, 17916, Note_on_c, 1, 69, 0
3, 17916, Note_on_c, 1, 66, 0
3, 18000, Note_on_c, 1, 66, 40
3, 18000, Note_on_c, 1, 69, 40
3, 18036, Note_on_c, 1, 69, 0
3, 18036, Note_on_c, 1, 66, 0
3, 18120, Note_on_c, 1, 66, 40
3, 18120, Note_on_c, 1, 69, 40
3, 18240, Note_on_c, 1, 69, 0
3, 18240, Note_on_c, 1, 66, 0
3, 18240, Note_on_c, 1, 62, 72
3, 18240, Note_on_c, 1, 66, 72
3, 18276, Note_on_c, 1, 66, 0
3, 18276, Note_on_c, 1, 62, 0
3, 18360, Note_on_c, 1, 62, 40
3, 18360, Note_on_c, 1, 66, 40
3, 18396, Note_on_c, 1, 66, 0
3, 18396, Note_on_c, 1, 62, 0
3, 18480, Note_on_c, 1, 62, 40
3, 18480, Note_on_c, 1, 66, 40
3, 18516, Note_on_c, 1, 66, 0
3, 18516, Note_on_c, 1, 62, 0
3, 18600, Note_on_c, 1, 62, 40
3, 18600, Note_on_c, 1, 66, 40
3, 18636, Note_on_c, 1, 66, 0
3, 18636, Note_on_c, 1, 62, 0
3, 18720, Note_on_c, 1, 62, 40
3, 18720, Note_on_c, 1, 66, 40
3, 18960, Note_on_c, 1, 66, 0
3, 18960, Note_on_c, 1, 62, 0
3, 19200, Note_on_c, 1, 50, 72
3, 19200, Note_on_c, 1, 54, 72
3, 19320, Note_on_c, 1, 54, 0
3, 19320, Note_on_c, 1, 50, 0
3, 19320, Note_on_c, 1, 62, 40
3, 19320, Note_on_c, 1, 66, 40
3, 19356, Note_on_c, 1, 66, 0
3, 19356, Note_on_c, 1, 62, 0
3, 19440, Note_on_c, 1, 62, 40
3, 19440, Note_on_c, 1, 66, 40
3, 19476, Note_on_c, 1, 66, 0
3, 19476, Note_on_c, 1, 62, 0
3, 19560, Note_on_c, 1, 61, 40
3, 19560, Note_on_c, 1, 64, 40
3, 19596, Note_on_c, 1, 64, 0
3, 19596, Note_on_c, 1, 61, 0
3, 19680, Note_on_c, 1, 62, 40
3, 19680, Note_on_c, 1, 66, 40
3, 19920, Note_on_c, 1, 66, 0
3, 19920, Note_on_c, 1, 62, 0
3, 20160, Note_on_c, 1, 50, 72
3, 20160, Note_on_c, 1, 54, 72
3, 20280, Note_on_c, 1, 54, 0
3, 20280, Note_on_c, 1, 50, 0
3, 20280, Note_on_c, 1, 62, 52
3, 20280, Note_on_c, 1, 66, 52
3, 20316, Note_on_c, 1, 66, 0
3, 20316, Note_on_c, 1, 62, 0
3, 20400, Note_on_c, 1, 62, 56
3, 20400, Note_on_c, 1, 66, 56
3, 20436, Note_on_c, 1, 66, 0
3, 20436, Note_on_c, 1, 62, 0
3, 20520, Note_on_c, 1, 66, 60
3, 20520, Note_on_c, 1, 62, 60
3, 20556, Note_on_c, 1, 62, 0
3, 20556, Note_on_c, 1, 66, 0
3, 20640, Note_on_c, 1, 63, 64
3, 20640, Note_on_c, 1, 66, 64
3, 20760, Note_on_c, 1, 66, 0
3, 20760, Note_on_c, 1, 63, 0
3, 20760, Note_on_c, 1, 63, 68
3, 20760, Note_on_c, 1, 66, 68
3, 20796, Note_on_c, 1, 66, 0
3, 20796, Note_on_c, 1, 63, 0
3, 20880, Note_on_c, 1, 66, 72
3, 20880, Note_on_c, 1, 63, 72
3, 20916, Note_on_c, 1, 63, 0
3, 20916, Note_on_c, 1, 66, 0
3, 21000, Note_on_c, 1, 63, 76
3, 21000, Note_on_c, 1, 66, 76
3, 21036, Note_on_c, 1, 66, 0
3, 21036, Note_on_c, 1, 63, 0
3, 21120, Note_on_c, 1, 52, 80
3, 21180, Note_on_c, 1, 52, 0
3, 21180, Note_on_c, 1, 56, 80
3, 21240, Note_on_c, 1, 56, 0
3, 21240, Note_on_c, 1, 54, 80
3, 21300, Note_on_c, 1, 54, 0
3, 21300, Note_on_c, 1, 57, 80
3, 21360, Note_on_c, 1, 57, 0
3, 21360, Note_on_c, 1, 56, 80
3, 21420, Note_on_c, 1, 56, 0
3, 21420, Note_on_c, 1, 59, 80
3, 21438, Note_on_c, 1, 59, 0
3, 21480, Note_on_c, 1, 57, 80
3, 21498, Note_on_c, 1, 57, 0
3, 21540, Note_on_c, 1, 61, 80
3, 21558, Note_on_c, 1, 61, 0
3, 21600, Note_on_c, 1, 59, 80
3, 21840, Note_on_c, 1, 62, 80
3, 22080, Note_on_c, 1, 62, 0
3, 22080, Note_on_c, 1, 59, 0
3, 22080, Note_on_c, 1, 61, 80
3, 22320, Note_on_c, 1, 61, 0
3, 23040, Note_on_c, 1, 52, 64
3, 23100, Note_on_c, 1, 52, 0
3, 23100, Note_on_c, 1, 56, 48
3, 23160, Note_on_c, 1, 56, 0
3, 23160, Note_on_c, 1, 54, 48
3, 23220, Note_on_c, 1, 54, 0
3, 23220, Note_on_c, 1, 57, 48
3, 23280, Note_on_c, 1, 57, 0
3, 23280, Note_on_c, 1, 56, 48
3, 23340, Note_on_c, 1, 56, 0
3, 23340, Note_on_c, 1, 59, 48
3, 23358, Note_on_c, 1, 59, 0
3, 23400, Note_on_c, 1, 57, 48
3, 23418, Note_on_c, 1, 57, 0
3, 23460, Note_on_c, 1, 61, 48
3, 23478, Note_on_c, 1, 61, 0
3, 23520, Note_on_c, 1, 59, 48
3, 23760, Note_on_c, 1, 62, 48
3, 24000, Note_on_c, 1, 62, 0
3, 24000, Note_on_c, 1, 59, 0
3, 24000, Note_on_c, 1, 61, 40
3, 24240, Note_on_c, 1, 61, 0
3, 24960, Note_on_c, 1, 50, 88
3, 25020, Note_on_c, 1, 50, 0
3, 25020, Note_on_c, 1, 62, 72
3, 25080, Note_on_c, 1, 62, 0
3, 25080, Note_on_c, 1, 61, 72
3, 25140, Note_on_c, 1, 61, 0
3, 25140, Note_on_c, 1, 62, 72
3, 25200, Note_on_c, 1, 62, 0
3, 25200, Note_on_c, 1, 61, 72
3, 25260, Note_on_c, 1, 61, 0
3, 25260, Note_on_c, 1, 62, 72
3, 25320, Note_on_c, 1, 62, 0
3, 25320, Note_on_c, 1, 61, 72
3, 25380, Note_on_c, 1, 61, 0
3, 25380, Note_on_c, 1, 62, 72
3, 25440, Note_on_c, 1, 62, 0
3, 25440, Note_on_c, 1, 59, 88
3, 25500, Note_on_c, 1, 59, 0
3, 25500, Note_on_c, 1, 71, 72
3, 25560, Note_on_c, 1, 71, 0
3, 25560, Note_on_c, 1, 70, 72
3, 25620, Note_on_c, 1, 70, 0
3, 25620, Note_on_c, 1, 71, 72
3, 25680, Note_on_c, 1, 71, 0
3, 25680, Note_on_c, 1, 70, 72
3, 25740, Note_on_c, 1, 70, 0
3, 25740, Note_on_c, 1, 71, 72
3, 25800, Note_on_c, 1, 71, 0
3, 25800, Note_on_c, 1, 70, 72
3, 25860, Note_on_c, 1, 70, 0
3, 25860, Note_on_c, 1, 71, 72
3, 25920, Note_on_c, 1, 71, 0
3, 25920, Note_on_c, 1, 64, 88
3, 25980, Note_on_c, 1, 64, 0
3, 25980, Note_on_c, 1, 68, 72
3, 26040, Note_on_c, 1, 68, 0
3, 26040, Note_on_c, 1, 67, 72
3, 26100, Note_on_c, 1, 67, 0
3, 26100, Note_on_c, 1, 68, 72
3, 26160, Note_on_c, 1, 68, 0
3, 26160, Note_on_c, 1, 67, 72
3, 26220, Note_on_c, 1, 67, 0
3, 26220, Note_on_c, 1, 68, 72
3, 26280, Note_on_c, 1, 68, 0
3, 26280, Note_on_c, 1, 67, 72
3, 26340, Note_on_c, 1, 67, 0
3, 26340, Note_on_c, 1, 68, 72
3, 26400, Note_on_c, 1, 68, 0
3, 26400, Note_on_c, 1, 69, 88
3, 26460, Note_on_c, 1, 69, 0
3, 26460, Note_on_c, 1, 73, 72
3, 26520, Note_on_c, 1, 73, 0
3, 26520, Note_on_c, 1, 71, 72
3, 26580, Note_on_c, 1, 71, 0
3, 26580, Note_on_c, 1, 73, 72
3, 26640, Note_on_c, 1, 73, 0
3, 26640, Note_on_c, 1, 71, 72
3, 26700, Note_on_c, 1, 71, 0
3, 26700, Note_on_c, 1, 73, 72
3, 26760, Note_on_c, 1, 73, 0
3, 26760, Note_on_c, 1, 71, 72
3, 26820, Note_on_c, 1, 71, 0
3, 26820, Note_on_c, 1, 73, 72
3, 26880, Note_on_c, 1, 73, 0
3, 26880, Note_on_c, 1, 64, 80
3, 27000, Note_on_c, 1, 68, 80
3, 27120, Note_on_c, 1, 68, 0
3, 27120, Note_on_c, 1, 69, 80
3, 27240, Note_on_c, 1, 69, 0
3, 27240, Note_on_c, 1, 73, 80
3, 27360, Note_on_c, 1, 73, 0
3, 27360, Note_on_c, 1, 64, 0
3, 27360, Note_on_c, 1, 64, 80
3, 27480, Note_on_c, 1, 68, 80
3, 27600, Note_on_c, 1, 68, 0
3, 27600, Note_on_c, 1, 69, 80
3, 27720, Note_on_c, 1, 69, 0
3, 27720, Note_on_c, 1, 73, 80
3, 27840, Note_on_c, 1, 73, 0
3, 27840, Note_on_c, 1, 64, 0
3, 27840, Note_on_c, 1, 64, 80
3, 27960, Note_on_c, 1, 68, 80
3, 27996, Note_on_c, 1, 68, 0
3, 28080, Note_on_c, 1, 69, 80
3, 28116, Note_on_c, 1, 69, 0
3, 28200, Note_on_c, 1, 72, 80
3, 28236, Note_on_c, 1, 72, 0
3, 28320, Note_on_c, 1, 64, 0
3, 28320, Note_on_c, 1, 64, 80
3, 28440, Note_on_c, 1, 68, 80
3, 28476, Note_on_c, 1, 68, 0
3, 28560, Note_on_c, 1, 69, 80
3, 28596, Note_on_c, 1, 69, 0
3, 28680, Note_on_c, 1, 72, 80
3, 28716, Note_on_c, 1, 72, 0
3, 28800, Note_on_c, 1, 64, 0
3, 28800, Note_on_c, 1, 62, 88
3, 28800, Note_on_c, 1, 65, 88
3, 28800, Note_on_c, 1, 70, 88
3, 29280, Note_on_c, 1, 70, 0
3, 29280, Note_on_c, 1, 65, 0
3, 29280, Note_on_c, 1, 62, 0
3, 29340, Note_on_c, 1, 58, 88
3, 29400, Note_on_c, 1, 58, 0
3, 29400, Note_on_c, 1, 62, 88
3, 29460, Note_on_c, 1, 62, 0
3, 29460, Note_on_c, 1, 65, 88
3, 29520, Note_on_c, 1, 65, 0
3, 29520, Note_on_c, 1, 70, 88
3, 29760, Note_on_c, 1, 70, 0
3, 30720, Note_on_c, 1, 51, 88
3, 30720, Note_on_c, 1, 63, 88
3, 30960, Note_on_c, 1, 63, 0
3, 30960, Note_on_c, 1, 51, 0
3, 30960, Note_on_c, 1, 54, 88
3, 30960, Note_on_c, 1, 66, 88
3, 30996, Note_on_c, 1, 66, 0
3, 30996, Note_on_c, 1, 54, 0
3, 31080, Note_on_c, 1, 51, 88
3, 31080, Note_on_c, 1, 63, 88
3, 31116, Note_on_c, 1, 63, 0
3, 31116, Note_on_c, 1, 51, 0
3, 31200, Note_on_c, 1, 48, 88
3, 31200, Note_on_c, 1, 60, 88
3, 31236, Note_on_c, 1, 60, 0
3, 31236, Note_on_c, 1, 48, 0
3, 31320, Note_on_c, 1, 45, 88
3, 31320, Note_on_c, 1, 57, 88
3, 31356, Note_on_c, 1, 57, 0
3, 31356, Note_on_c, 1, 45, 0
3, 31440, Note_on_c, 1, 42, 88
3, 31440, Note_on_c, 1, 54, 88
3, 31476, Note_on_c, 1, 54, 0
3, 31476, Note_on_c, 1, 42, 0
3, 31560, Note_on_c, 1, 39, 88
3, 31560, Note_on_c, 1, 51, 88
3, 31680, Note_on_c, 1, 51, 0
3, 31680, Note_on_c, 1, 39, 0
3, 31680, Note_on_c, 1, 40, 88
3, 31680, Note_on_c, 1, 52, 88
3, 32160, Note_on_c, 1, 52, 0
3, 32160, Note_on_c, 1, 40, 0
3, 32640, Note_on_c, 1, 52, 88
3, 32760, Note_on_c, 1, 52, 0
3, 32760, Note_on_c, 1, 56, 88
3, 32796, Note_on_c, 1, 56, 0
3, 32880, Note_on_c, 1, 59, 88
3, 32916, Note_on_c, 1, 59, 0
3, 33000, Note_on_c, 1, 62, 88
3, 33036, Note_on_c, 1, 62, 0
3, 33120, Note_on_c, 1, 64, 88
3, 33120, Note_on_c, 1, 68, 88
3, 33120, Note_on_c, 1, 71, 88
3, 33120, Note_on_c, 1, 74, 88
3, 33600, Note_on_c, 1, 74, 0
3, 33600, Note_on_c, 1, 64, 0
3, 33600, Note_on_c, 1, 68, 0
3, 33600, Note_on_c, 1, 71, 0
3, 33600, Note_on_c, 1, 69, 80
3, 33600, Note_on_c, 1, 73, 80
3, 33720, Note_on_c, 1, 73, 0
3, 33720, Note_on_c, 1, 69, 0
3, 34800, Note_on_c, 1, 57, 88
3, 34800, Note_on_c, 1, 61, 88
3, 34836, Note_on_c, 1, 61, 0
3, 34836, Note_on_c, 1, 57, 0
3, 34920, Note_on_c, 1, 57, 88
3, 34920, Note_on_c, 1, 61, 88
3, 35040, Note_on_c, 1, 61, 0
3, 35040, Note_on_c, 1, 57, 0
3, 35040, Note_on_c, 1, 50, 88
3, 35040, Note_on_c, 1, 62, 88
3, 35160, Note_on_c, 1, 62, 0
3, 35160, Note_on_c, 1, 50, 0
3, 35280, Note_on_c, 1, 52, 88
3, 35280, Note_on_c, 1, 59, 88
3, 35316, Note_on_c, 1, 59, 0
3, 35316, Note_on_c, 1, 52, 0
3, 35400, Note_on_c, 1, 52, 88
3, 35400, Note_on_c, 1, 59, 88
3, 35520, Note_on_c, 1, 59, 0
3, 35520, Note_on_c, 1, 52, 0
3, 35520, Note_on_c, 1, 45, 88
3, 35520, Note_on_c, 1, 57, 88
3, 35640, Note_on_c, 1, 57, 0
3, 35640, Note_on_c, 1, 45, 0
3, 35760, Note_on_c, 1, 66, 64
3, 35880, Note_on_c, 1, 66, 0
3, 35880, Note_on_c, 1, 64, 64
3, 36000, Note_on_c, 1, 64, 0
3, 36000, Note_on_c, 1, 62, 64
3, 36060, Note_on_c, 1, 62, 0
3, 36240, Note_on_c, 1, 62, 64
3, 36360, Note_on_c, 1, 62, 0
3, 36360, Note_on_c, 1, 61, 64
3, 36480, Note_on_c, 1, 61, 0
3, 36480, Note_on_c, 1, 59, 64
3, 36540, Note_on_c, 1, 59, 0
3, 36720, Note_on_c, 1, 57, 88
3, 36720, Note_on_c, 1, 61, 88
3, 36756, Note_on_c, 1, 61, 0
3, 36756, Note_on_c, 1, 57, 0
3, 36840, Note_on_c, 1, 57, 88
3, 36840, Note_on_c, 1, 61, 88
3, 36960, Note_on_c, 1, 61, 0
3, 36960, Note_on_c, 1, 57, 0
3, 36960, Note_on_c, 1, 50, 88
3, 36960, Note_on_c, 1, 62, 88
3, 36996, Note_on_c, 1, 62, 0
3, 36996, Note_on_c, 1, 50, 0
3, 37080, Note_on_c, 1, 50, 88
3, 37080, Note_on_c, 1, 62, 88
3, 37200, Note_on_c, 1, 62, 0
3, 37200, Note_on_c, 1, 50, 0
3, 37200, Note_on_c, 1, 52, 88
3, 37200, Note_on_c, 1, 59, 88
3, 37236, Note_on_c, 1, 59, 0
3, 37236, Note_on_c, 1, 52, 0
3, 37320, Note_on_c, 1, 52, 88
3, 37320, Note_on_c, 1, 59, 88
3, 37356, Note_on_c, 1, 59, 0
3, 37356, Note_on_c, 1, 52, 0
3, 37440, Note_on_c, 1, 57, 88
3, 37440, Note_on_c, 1, 61, 88
3, 37680, Note_on_c, 1, 61, 0
3, 37680, Note_on_c, 1, 57, 0
3, 37800, Note_on_c, 1, 52, 88
3, 37800, Note_on_c, 1, 62, 88
3, 37836, Note_on_c, 1, 62, 0
3, 37836, Note_on_c, 1, 52, 0
3, 37920, Note_on_c, 1, 57, 88
3, 37920, Note_on_c, 1, 61, 88
3, 38160, Note_on_c, 1, 61, 0
3, 38160, Note_on_c, 1, 57, 0
3, 38280, Note_on_c, 1, 52, 88
3, 38280, Note_on_c, 1, 62, 88
3, 38316, Note_on_c, 1, 62, 0
3, 38316, Note_on_c, 1, 52, 0
3, 38400, Note_on_c, 1, 57, 88
3, 38400, Note_on_c, 1, 61, 88
3, 38520, Note_on_c, 1, 61, 0
3, 38520, Note_on_c, 1, 57, 0
3, 38640, Note_on_c, 1, 45, 88
3, 38640, Note_on_c, 1, 57, 88
3, 38712, Note_on_c, 1, 57, 0
3, 38712, Note_on_c, 1, 45, 0
3, 38880, Note_on_c, 1, 33, 88
3, 38880, Note_on_c, 1, 45, 88
3, 39120, Note_on_c, 1, 45, 0
3, 39120, Note_on_c, 1, 33, 0
3, 39330, Note_on_c, 1, 68, 80
3, 39360, Note_on_c, 1, 68, 0
3, 39360, Note_on_c, 1, 69, 88
3, 39480, Note_on_c, 1, 69, 0
3, 39480, Note_on_c, 1, 57, 80
3, 39516, Note_on_c, 1, 57, 0
3, 39600, Note_on_c, 1, 57, 80
3, 39636, Note_on_c, 1, 57, 0
3, 39720, Note_on_c, 1, 57, 80
3, 39756, Note_on_c, 1, 57, 0
3, 39840, Note_on_c, 1, 59, 80
3, 39870, Note_on_c, 1, 59, 0
3, 39870, Note_on_c, 1, 61, 80
3, 39900, Note_on_c, 1, 61, 0
3, 39900, Note_on_c, 1, 59, 80
3, 39920, Note_on_c, 1, 59, 0
3, 39920, Note_on_c, 1, 61, 80
3, 39940, Note_on_c, 1, 61, 0
3, 39940, Note_on_c, 1, 59, 80
3, 39960, Note_on_c, 1, 59, 0
3, 39960, Note_on_c, 1, 57, 80
3, 39996, Note_on_c, 1, 57, 0
3, 40080, Note_on_c, 1, 59, 80
3, 40110, Note_on_c, 1, 59, 0
3, 40110, Note_on_c, 1, 61, 80
3, 40140, Note_on_c, 1, 61, 0
3, 40140, Note_on_c, 1, 59, 80
3, 40160, Note_on_c, 1, 59, 0
3, 40160, Note_on_c, 1, 61, 80
3, 40180, Note_on_c, 1, 61, 0
3, 40180, Note_on_c, 1, 59, 80
3, 40200, Note_on_c, 1, 59, 0
3, 40200, Note_on_c, 1, 57, 80
3, 40236, Note_on_c, 1, 57, 0
3, 40320, Note_on_c, 1, 69, 80
3, 40440, Note_on_c, 1, 69, 0
3, 40440, Note_on_c, 1, 71, 80
3, 40560, Note_on_c, 1, 71, 0
3, 40560, Note_on_c, 1, 73, 80
3, 40680, Note_on_c, 1, 73, 0
3, 40680, Note_on_c, 1, 74, 80
3, 40800, Note_on_c, 1, 74, 0
3, 40800, Note_on_c, 1, 76, 80
3, 41040, Note_on_c, 1, 76, 0
3, 41160, Note_on_c, 1, 58, 80
3, 41280, Note_on_c, 1, 58, 0
3, 41280, Note_on_c, 1, 59, 88
3, 41400, Note_on_c, 1, 59, 0
3, 41400, Note_on_c, 1, 47, 80
3, 41436, Note_on_c, 1, 47, 0
3, 41520, Note_on_c, 1, 47, 80
3, 41556, Note_on_c, 1, 47, 0
3, 41640, Note_on_c, 1, 47, 80
3, 41676, Note_on_c, 1, 47, 0
3, 41760, Note_on_c, 1, 49, 80
3, 41790, Note_on_c, 1, 49, 0
3, 41790, Note_on_c, 1, 50, 80
3, 41820, Note_on_c, 1, 50, 0
3, 41820, Note_on_c, 1, 49, 80
3, 41840, Note_on_c, 1, 49, 0
3, 41840, Note_on_c, 1, 50, 80
3, 41860, Note_on_c, 1, 50, 0
3, 41860, Note_on_c, 1, 49, 80
3, 41880, Note_on_c, 1, 49, 0
3, 41880, Note_on_c, 1, 47, 80
3, 41916, Note_on_c, 1, 47, 0
3, 42000, Note_on_c, 1, 49, 80
3, 42030, Note_on_c, 1, 49, 0
3, 42030, Note_on_c, 1, 50, 80
3, 42060, Note_on_c, 1, 50, 0
3, 42060, Note_on_c, 1, 49, 80
3, 42080, Note_on_c, 1, 49, 0
3, 42080, Note_on_c, 1, 50, 80
3, 42100, Note_on_c, 1, 50, 0
3, 42100, Note_on_c, 1, 49, 80
3, 42120, Note_on_c, 1, 49, 0
3, 42120, Note_on_c, 1, 47, 80
3, 42156, Note_on_c, 1, 47, 0
3, 42240, Note_on_c, 1, 59, 80
3, 42360, Note_on_c, 1, 59, 0
3, 42360, Note_on_c, 1, 61, 80
3, 42396, Note_on_c, 1, 61, 0
3, 42480, Note_on_c, 1, 63, 80
3, 42516, Note_on_c, 1, 63, 0
3, 42600, Note_on_c, 1, 64, 80
3, 42636, Note_on_c, 1, 64, 0
3, 42720, Note_on_c, 1, 66, 80
3, 42960, Note_on_c, 1, 66, 0
3, 43080, Note_on_c, 1, 63, 80
3, 43116, Note_on_c, 1, 63, 0
3, 43200, Note_on_c, 1, 64, 88
3, 43320, Note_on_c, 1, 64, 0
3, 43320, Note_on_c, 1, 52, 80
3, 43356, Note_on_c, 1, 52, 0
3, 43440, Note_on_c, 1, 52, 80
3, 43476, Note_on_c, 1, 52, 0
3, 43560, Note_on_c, 1, 52, 80
3, 43596, Note_on_c, 1, 52, 0
3, 43680, Note_on_c, 1, 52, 80
3, 43920, Note_on_c, 1, 52, 0
3, 44040, Note_on_c, 1, 56, 80
3, 44160, Note_on_c, 1, 56, 0
3, 44160, Note_on_c, 1, 57, 88
3, 44280, Note_on_c, 1, 57, 0
3, 44280, Note_on_c, 1, 45, 80
3, 44316, Note_on_c, 1, 45, 0
3, 44400, Note_on_c, 1, 45, 80
3, 44436, Note_on_c, 1, 45, 0
3, 44520, Note_on_c, 1, 45, 80
3, 44556, Note_on_c, 1, 45, 0
3, 44640, Note_on_c, 1, 45, 78
3, 44700, Note_on_c, 1, 45, 0
3, 44700, Note_on_c, 1, 47, 76
3, 44760, Note_on_c, 1, 47, 0
3, 44760, Note_on_c, 1, 45, 75
3, 44820, Note_on_c, 1, 45, 0
3, 44820, Note_on_c, 1, 43, 73
3, 44880, Note_on_c, 1, 43, 0
3, 44880, Note_on_c, 1, 42, 71
3, 44940, Note_on_c, 1, 42, 0
3, 44940, Note_on_c, 1, 40, 69
3, 45000, Note_on_c, 1, 40, 0
3, 45000, Note_on_c, 1, 38, 67
3, 45060, Note_on_c, 1, 38, 0
3, 45060, Note_on_c, 1, 37, 66
3, 45120, Note_on_c, 1, 37, 0
3, 45120, Note_on_c, 1, 38, 64
3, 45180, Note_on_c, 1, 38, 0
3, 45180, Note_on_c, 1, 37, 64
3, 45240, Note_on_c, 1, 37, 0
3, 45240, Note_on_c, 1, 38, 64
3, 45300, Note_on_c, 1, 38, 0
3, 45300, Note_on_c, 1, 40, 64
3, 45360, Note_on_c, 1, 40, 0
3, 45360, Note_on_c, 1, 42, 64
3, 45420, Note_on_c, 1, 42, 0
3, 45420, Note_on_c, 1, 40, 64
3, 45480, Note_on_c, 1, 40, 0
3, 45480, Note_on_c, 1, 42, 64
3, 45540, Note_on_c, 1, 42, 0
3, 45540, Note_on_c, 1, 43, 64
3, 45600, Note_on_c, 1, 43, 0
3, 45600, Note_on_c, 1, 45, 64
3, 45660, Note_on_c, 1, 45, 0
3, 45660, Note_on_c, 1, 44, 64
3, 45720, Note_on_c, 1, 44, 0
3, 45720, Note_on_c, 1, 45, 64
3, 45780, Note_on_c, 1, 45, 0
3, 45780, Note_on_c, 1, 47, 64
3, 45840, Note_on_c, 1, 47, 0
3, 45840, Note_on_c, 1, 49, 64
3, 45900, Note_on_c, 1, 49, 0
3, 45900, Note_on_c, 1, 42, 64
3, 45960, Note_on_c, 1, 42, 0
3, 45960, Note_on_c, 1, 44, 64
3, 46020, Note_on_c, 1, 44, 0
3, 46020, Note_on_c, 1, 46, 64
3, 46080, Note_on_c, 1, 46, 0
3, 46080, Note_on_c, 1, 47, 64
3, 46140, Note_on_c, 1, 47, 0
3, 46140, Note_on_c, 1, 46, 64
3, 46200, Note_on_c, 1, 46, 0
3, 46200, Note_on_c, 1, 47, 64
3, 46260, Note_on_c, 1, 47, 0
3, 46260, Note_on_c, 1, 49, 64
3, 46320, Note_on_c, 1, 49, 0
3, 46320, Note_on_c, 1, 50, 64
3, 46380, Note_on_c, 1, 50, 0
3, 46380, Note_on_c, 1, 49, 64
3, 46440, Note_on_c, 1, 49, 0
3, 46440, Note_on_c, 1, 50, 64
3, 46500, Note_on_c, 1, 50, 0
3, 46500, Note_on_c, 1, 52, 64
3, 46560, Note_on_c, 1, 52, 0
3, 46560, Note_on_c, 1, 54, 64
3, 46620, Note_on_c, 1, 54, 0
3, 46620, Note_on_c, 1, 52, 64
3, 46680, Note_on_c, 1, 52, 0
3, 46680, Note_on_c, 1, 54, 64
3, 46740, Note_on_c, 1, 54, 0
3, 46740, Note_on_c, 1, 55, 64
3, 46800, Note_on_c, 1, 55, 0
3, 46800, Note_on_c, 1, 57, 64
3, 46860, Note_on_c, 1, 57, 0
3, 46860, Note_on_c, 1, 50, 64
3, 46920, Note_on_c, 1, 50, 0
3, 46920, Note_on_c, 1, 52, 64
3, 46980, Note_on_c, 1, 52, 0
3, 46980, Note_on_c, 1, 54, 64
3, 47040, Note_on_c, 1, 54, 0
3, 47040, Note_on_c, 1, 55, 64
3, 47100, Note_on_c, 1, 55, 0
3, 47100, Note_on_c, 1, 54, 65
3, 47160, Note_on_c, 1, 54, 0
3, 47160, Note_on_c, 1, 55, 66
3, 47220, Note_on_c, 1, 55, 0
3, 47220, Note_on_c, 1, 57, 67
3, 47280, Note_on_c, 1, 57, 0
3, 47280, Note_on_c, 1, 59, 68
3, 47340, Note_on_c, 1, 59, 0
3, 47340, Note_on_c, 1, 57, 69
3, 47400, Note_on_c, 1, 57, 0
3, 47400, Note_on_c, 1, 59, 70
3, 47460, Note_on_c, 1, 59, 0
3, 47460, Note_on_c, 1, 61, 71
3, 47520, Note_on_c, 1, 61, 0
3, 47520, Note_on_c, 1, 62, 72
3, 47580, Note_on_c, 1, 62, 0
3, 47580, Note_on_c, 1, 61, 73
3, 47640, Note_on_c, 1, 61, 0
3, 47640, Note_on_c, 1, 62, 74
3, 47700, Note_on_c, 1, 62, 0
3, 47700, Note_on_c, 1, 50, 75
3, 47760, Note_on_c, 1, 50, 0
3, 47760, Note_on_c, 1, 63, 76
3, 47820, Note_on_c, 1, 63, 0
3, 47820, Note_on_c, 1, 61, 77
3, 47880, Note_on_c, 1, 61, 0
3, 47880, Note_on_c, 1, 63, 78
3, 47940, Note_on_c, 1, 63, 0
3, 47940, Note_on_c, 1, 51, 79
3, 48000, Note_on_c, 1, 51, 0
3, 48000, Note_on_c, 1, 64, 80
3, 48060, Note_on_c, 1, 64, 0
3, 48060, Note_on_c, 1, 63, 80
3, 48120, Note_on_c, 1, 63, 0
3, 48120, Note_on_c, 1, 64, 80
3, 48180, Note_on_c, 1, 64, 0
3, 48180, Note_on_c, 1, 52, 80
3, 48240, Note_on_c, 1, 52, 0
3, 48240, Note_on_c, 1, 61, 80
3, 48300, Note_on_c, 1, 61, 0
3, 48300, Note_on_c, 1, 59, 80
3, 48360, Note_on_c, 1, 59, 0
3, 48360, Note_on_c, 1, 61, 80
3, 48420, Note_on_c, 1, 61, 0
3, 48420, Note_on_c, 1, 49, 80
3, 48480, Note_on_c, 1, 49, 0
3, 48480, Note_on_c, 1, 58, 80
3, 48540, Note_on_c, 1, 58, 0
3, 48540, Note_on_c, 1, 56, 80
3, 48600, Note_on_c, 1, 56, 0
3, 48600, Note_on_c, 1, 58, 80
3, 48660, Note_on_c, 1, 58, 0
3, 48660, Note_on_c, 1, 46, 80
3, 48720, Note_on_c, 1, 46, 0
3, 48720, Note_on_c, 1, 59, 80
3, 48780, Note_on_c, 1, 59, 0
3, 48780, Note_on_c, 1, 58, 80
3, 48840, Note_on_c, 1, 58, 0
3, 48840, Note_on_c, 1, 59, 80
3, 48900, Note_on_c, 1, 59, 0
3, 48900, Note_on_c, 1, 47, 80
3, 48960, Note_on_c, 1, 47, 0
3, 48960, Note_on_c, 1, 54, 80
3, 49200, Note_on_c, 1, 54, 0
3, 49200, Note_on_c, 1, 50, 80
3, 49440, Note_on_c, 1, 50, 0
3, 49440, Note_on_c, 1, 46, 80
3, 49680, Note_on_c, 1, 46, 0
3, 49680, Note_on_c, 1, 47, 80
3, 49920, Note_on_c, 1, 47, 0
3, 49920, Note_on_c, 1, 54, 80
3, 49920, Note_on_c, 1, 61, 80
3, 50040, Note_on_c, 1, 61, 0
3, 50040, Note_on_c, 1, 54, 0
3, 50040, Note_on_c, 1, 54, 80
3, 50040, Note_on_c, 1, 61, 80
3, 50076, Note_on_c, 1, 61, 0
3, 50076, Note_on_c, 1, 54, 0
3, 50160, Note_on_c, 1, 54, 80
3, 50160, Note_on_c, 1, 62, 80
3, 50196, Note_on_c, 1, 62, 0
3, 50196, Note_on_c, 1, 54, 0
3, 50280, Note_on_c, 1, 54, 80
3, 50280, Note_on_c, 1, 62, 80
3, 50316, Note_on_c, 1, 62, 0
3, 50316, Note_on_c, 1, 54, 0
3, 50400, Note_on_c, 1, 54, 80
3, 50400, Note_on_c, 1, 58, 80
3, 50520, Note_on_c, 1, 58, 0
3, 50520, Note_on_c, 1, 54, 0
3, 50520, Note_on_c, 1, 54, 80
3, 50520, Note_on_c, 1, 58, 80
3, 50556, Note_on_c, 1, 58, 0
3, 50556, Note_on_c, 1, 54, 0
3, 50640, Note_on_c, 1, 54, 80
3, 50640, Note_on_c, 1, 59, 80
3, 50676, Note_on_c, 1, 59, 0
3, 50676, Note_on_c, 1, 54, 0
3, 50760, Note_on_c, 1, 54, 80
3, 50760, Note_on_c, 1, 59, 80
3, 50796, Note_on_c, 1, 59, 0
3, 50796, Note_on_c, 1, 54, 0
3, 50880, Note_on_c, 1, 52, 80
3, 50880, Note_on_c, 1, 55, 80
3, 50880, Note_on_c, 1, 58, 80
3, 50880, Note_on_c, 1, 61, 80
3, 51360, Note_on_c, 1, 61, 0
3, 51360, Note_on_c, 1, 52, 0
3, 51360, Note_on_c, 1, 55, 0
3, 51360, Note_on_c, 1, 58, 0
3, 51360, Note_on_c, 1, 50, 80
3, 51360, Note_on_c, 1, 54, 80
3, 51360, Note_on_c, 1, 59, 80
3, 51840, Note_on_c, 1, 59, 0
3, 51840, Note_on_c, 1, 54, 0
3, 51840, Note_on_c, 1, 50, 0
3, 51840, Note_on_c, 1, 52, 56
3, 51840, Note_on_c, 1, 55, 56
3, 51840, Note_on_c, 1, 58, 56
3, 51840, Note_on_c, 1, 61, 56
3, 52320, Note_on_c, 1, 61, 0
3, 52320, Note_on_c, 1, 52, 0
3, 52320, Note_on_c, 1, 55, 0
3, 52320, Note_on_c, 1, 58, 0
3, 52320, Note_on_c, 1, 50, 56
3, 52320, Note_on_c, 1, 54, 56
3, 52320, Note_on_c, 1, 59, 56
3, 52800, Note_on_c, 1, 59, 0
3, 52800, Note_on_c, 1, 54, 0
3, 52800, Note_on_c, 1, 50, 0
3, 52800, Note_on_c, 1, 52, 88
3, 52800, Note_on_c, 1, 55, 88
3, 52800, Note_on_c, 1, 60, 88
3, 53760, Note_on_c, 1, 60, 0
3, 53760, Note_on_c, 1, 55, 0
3, 53760, Note_on_c, 1, 52, 0
3, 53760, Note_on_c, 1, 41, 88
3, 53760, Note_on_c, 1, 53, 88
3, 54720, Note_on_c, 1, 53, 0
3, 54720, Note_on_c, 1, 41, 0
3, 54720, Note_on_c, 1, 42, 80
3, 54720, Note_on_c, 1, 54, 80
3, 55680, Note_on_c, 1, 54, 0
3, 55680, Note_on_c, 1, 42, 0
3, 56160, Note_on_c, 1, 54, 80
3, 56160, Note_on_c, 1, 58, 80
3, 56160, Note_on_c, 1, 66, 80
3, 56640, Note_on_c, 1, 66, 0
3, 56640, Note_on_c, 1, 58, 0
3, 56640, Note_on_c, 1, 54, 0
3, 56640, Note_on_c, 1, 59, 80
3, 56640, Note_on_c, 1, 66, 80
3, 56640, Note_on_c, 1, 69, 80
3, 56760, Note_on_c, 1, 69, 0
3, 56760, Note_on_c, 1, 66, 0
3, 56760, Note_on_c, 1, 59, 0
3, 56760, Note_on_c, 1, 59, 80
3, 56760, Note_on_c, 1, 66, 80
3, 56760, Note_on_c, 1, 69, 80
3, 56796, Note_on_c, 1, 69, 0
3, 56796, Note_on_c, 1, 66, 0
3, 56796, Note_on_c, 1, 59, 0
3, 56880, Note_on_c, 1, 59, 80
3, 56880, Note_on_c, 1, 66, 80
3, 56880, Note_on_c, 1, 69, 80
3, 56916, Note_on_c, 1, 69, 0
3, 56916, Note_on_c, 1, 66, 0
3, 56916, Note_on_c, 1, 59, 0
3, 57000, Note_on_c, 1, 59, 80
3, 57000, Note_on_c, 1, 66, 80
3, 57000, Note_on_c, 1, 69, 80
3, 57036, Note_on_c, 1, 69, 0
3, 57036, Note_on_c, 1, 66, 0
3, 57036, Note_on_c, 1, 59, 0
3, 57120, Note_on_c, 1, 59, 80
3, 57120, Note_on_c, 1, 67, 80
3, 57240, Note_on_c, 1, 67, 0
3, 57240, Note_on_c, 1, 66, 80
3, 57360, Note_on_c, 1, 66, 0
3, 57360, Note_on_c, 1, 67, 80
3, 57480, Note_on_c, 1, 67, 0
3, 57480, Note_on_c, 1, 64, 80
3, 57600, Note_on_c, 1, 64, 0
3, 57600, Note_on_c, 1, 59, 0
3, 57600, Note_on_c, 1, 57, 80
3, 57600, Note_on_c, 1, 64, 80
3, 57600, Note_on_c, 1, 67, 80
3, 57720, Note_on_c, 1, 67, 0
3, 57720, Note_on_c, 1, 64, 0
3, 57720, Note_on_c, 1, 57, 0
3, 57720, Note_on_c, 1, 57, 80
3, 57720, Note_on_c, 1, 64, 80
3, 57720, Note_on_c, 1, 67, 80
3, 57756, Note_on_c, 1, 67, 0
3, 57756, Note_on_c, 1, 64, 0
3, 57756, Note_on_c, 1, 57, 0
3, 57840, Note_on_c, 1, 57, 80
3, 57840, Note_on_c, 1, 64, 80
3, 57840, Note_on_c, 1, 67, 80
3, 57876, Note_on_c, 1, 67, 0
3, 57876, Note_on_c, 1, 64, 0
3, 57876, Note_on_c, 1, 57, 0
3, 57960, Note_on_c, 1, 57, 80
3, 57960, Note_on_c, 1, 64, 80
3, 57960, Note_on_c, 1, 67, 80
3, 57996, Note_on_c, 1, 67, 0
3, 57996, Note_on_c, 1, 64, 0
3, 57996, Note_on_c, 1, 57, 0
3, 58080, Note_on_c, 1, 57, 80
3, 58080, Note_on_c, 1, 64, 80
3, 58080, Note_on_c, 1, 67, 80
3, 58560, Note_on_c, 1, 67, 0
3, 58560, Note_on_c, 1, 64, 0
3, 58560, Note_on_c, 1, 57, 0
3, 58560, Control_c, 1, 10, 0
3, 58560, Note_on_c, 1, 62, 80
3, 58560, Note_on_c, 1, 57, 80
3, 58560, Note_on_c, 1, 54, 80
3, 58560, Note_on_c, 1, 50, 80
3, 58800, Note_on_c, 1, 50, 0
3, 58800, Note_on_c, 1, 62, 0
3, 58800, Note_on_c, 1, 57, 0
3, 58800, Note_on_c, 1, 54, 0
3, 58920, Note_on_c, 1, 69, 64
3, 58920, Note_on_c, 1, 66, 64
3, 59040, Note_on_c, 1, 66, 0
3, 59040, Note_on_c, 1, 69, 0
3, 59040, Note_on_c, 1, 71, 64
3, 59040, Note_on_c, 1, 67, 64
3, 59160, Note_on_c, 1, 67, 0
3, 59160, Note_on_c, 1, 71, 0
3, 59160, Note_on_c, 1, 69, 64
3, 59160, Note_on_c, 1, 66, 64
3, 59196, Note_on_c, 1, 66, 0
3, 59196, Note_on_c, 1, 69, 0
3, 59280, Note_on_c, 1, 71, 64
3, 59280, Note_on_c, 1, 67, 64
3, 59400, Note_on_c, 1, 67, 0
3, 59400, Note_on_c, 1, 71, 0
3, 59400, Note_on_c, 1, 69, 64
3, 59400, Note_on_c, 1, 66, 64
3, 59436, Note_on_c, 1, 66, 0
3, 59436, Note_on_c, 1, 69, 0
3, 59520, Note_on_c, 1, 69, 80
3, 59520, Note_on_c, 1, 66, 80
3, 59520, Note_on_c, 1, 62, 80
3, 59760, Note_on_c, 1, 62, 0
3, 59760, Note_on_c, 1, 66, 0
3, 59760, Note_on_c, 1, 69, 0
3, 59880, Note_on_c, 1, 69, 64
3, 59880, Note_on_c, 1, 66, 64
3, 60000, Note_on_c, 1, 66, 0
3, 60000, Note_on_c, 1, 69, 0
3, 60000, Note_on_c, 1, 71, 64
3, 60000, Note_on_c, 1, 67, 64
3, 60120, Note_on_c, 1, 67, 0
3, 60120, Note_on_c, 1, 71, 0
3, 60120, Note_on_c, 1, 69, 64
3, 60120, Note_on_c, 1, 66, 64
3, 60156, Note_on_c, 1, 66, 0
3, 60156, Note_on_c, 1, 69, 0
3, 60240, Note_on_c, 1, 71, 64
3, 60240, Note_on_c, 1, 67, 64
3, 60360, Note_on_c, 1, 67, 0
3, 60360, Note_on_c, 1, 71, 0
3, 60360, Note_on_c, 1, 69, 64
3, 60360, Note_on_c, 1, 66, 64
3, 60396, Note_on_c, 1, 66, 0
3, 60396, Note_on_c, 1, 69, 0
3, 60480, Note_on_c, 1, 71, 80
3, 60516, Note_on_c, 1, 71, 0
3, 60600, Note_on_c, 1, 71, 80
3, 60720, Note_on_c, 1, 71, 0
3, 60720, Note_on_c, 1, 69, 80
3, 60756, Note_on_c, 1, 69, 0
3, 60840, Note_on_c, 1, 69, 80
3, 60960, Note_on_c, 1, 69, 0
3, 60960, Note_on_c, 1, 67, 80
3, 60996, Note_on_c, 1, 67, 0
3, 61080, Note_on_c, 1, 67, 80
3, 61200, Note_on_c, 1, 67, 0
3, 61200, Note_on_c, 1, 66, 80
3, 61236, Note_on_c, 1, 66, 0
3, 61320, Note_on_c, 1, 66, 80
3, 61440, Note_on_c, 1, 66, 0
3, 61440, Note_on_c, 1, 64, 80
3, 61560, Note_on_c, 1, 64, 0
3, 61560, Note_on_c, 1, 61, 80
3, 61596, Note_on_c, 1, 61, 0
3, 61680, Note_on_c, 1, 62, 80
3, 61716, Note_on_c, 1, 62, 0
3, 61800, Note_on_c, 1, 66, 80
3, 61836, Note_on_c, 1, 66, 0
3, 61920, Note_on_c, 1, 69, 80
3, 62160, Note_on_c, 1, 69, 0
3, 62400, Note_on_c, 1, 62, 64
3, 62460, Note_on_c, 1, 62, 0
3, 62460, Note_on_c, 1, 69, 64
3, 62520, Note_on_c, 1, 69, 0
3, 62520, Note_on_c, 1, 66, 64
3, 62580, Note_on_c, 1, 66, 0
3, 62580, Note_on_c, 1, 69, 64
3, 62640, Note_on_c, 1, 69, 0
3, 62640, Note_on_c, 1, 66, 64
3, 62700, Note_on_c, 1, 66, 0
3, 62700, Note_on_c, 1, 69, 64
3, 62760, Note_on_c, 1, 69, 0
3, 62760, Note_on_c, 1, 66, 64
3, 62820, Note_on_c, 1, 66, 0
3, 62820, Note_on_c, 1, 69, 64
3, 62880, Note_on_c, 1, 69, 0
3, 62880, Note_on_c, 1, 67, 64
3, 62940, Note_on_c, 1, 67, 0
3, 62940, Note_on_c, 1, 69, 64
3, 63000, Note_on_c, 1, 69, 0
3, 63000, Note_on_c, 1, 66, 64
3, 63060, Note_on_c, 1, 66, 0
3, 63060, Note_on_c, 1, 69, 64
3, 63120, Note_on_c, 1, 69, 0
3, 63120, Note_on_c, 1, 67, 64
3, 63180, Note_on_c, 1, 67, 0
3, 63180, Note_on_c, 1, 69, 64
3, 63240, Note_on_c, 1, 69, 0
3, 63240, Note_on_c, 1, 66, 64
3, 63300, Note_on_c, 1, 66, 0
3, 63300, Note_on_c, 1, 69, 64
3, 63360, Note_on_c, 1, 69, 0
3, 63360, Note_on_c, 1, 62, 64
3, 63420, Note_on_c, 1, 62, 0
3, 63420, Note_on_c, 1, 69, 64
3, 63480, Note_on_c, 1, 69, 0
3, 63480, Note_on_c, 1, 66, 64
3, 63540, Note_on_c, 1, 66, 0
3, 63540, Note_on_c, 1, 69, 64
3, 63600, Note_on_c, 1, 69, 0
3, 63600, Note_on_c, 1, 66, 64
3, 63660, Note_on_c, 1, 66, 0
3, 63660, Note_on_c, 1, 69, 64
3, 63720, Note_on_c, 1, 69, 0
3, 63720, Note_on_c, 1, 66, 64
3, 63780, Note_on_c, 1, 66, 0
3, 63780, Note_on_c, 1, 69, 64
3, 63840, Note_on_c, 1, 69, 0
3, 63840, Note_on_c, 1, 67, 64
3, 63900, Note_on_c, 1, 67, 0
3, 63900, Note_on_c, 1, 69, 64
3, 63960, Note_on_c, 1, 69, 0
3, 63960, Note_on_c, 1, 66, 64
3, 64020, Note_on_c, 1, 66, 0
3, 64020, Note_on_c, 1, 69, 64
3, 64080, Note_on_c, 1, 69, 0
3, 64080, Note_on_c, 1, 67, 64
3, 64140, Note_on_c, 1, 67, 0
3, 64140, Note_on_c, 1, 69, 64
3, 64200, Note_on_c, 1, 69, 0
3, 64200, Note_on_c, 1, 66, 64
3, 64260, Note_on_c, 1, 66, 0
3, 64260, Note_on_c, 1, 69, 64
3, 64320, Note_on_c, 1, 69, 0
3, 64320, Note_on_c, 1, 64, 88
3, 64380, Note_on_c, 1, 64, 0
3, 64380, Note_on_c, 1, 69, 80
3, 64440, Note_on_c, 1, 69, 0
3, 64440, Note_on_c, 1, 63, 80
3, 64500, Note_on_c, 1, 63, 0
3, 64500, Note_on_c, 1, 69, 80
3, 64560, Note_on_c, 1, 69, 0
3, 64560, Note_on_c, 1, 64, 80
3, 64620, Note_on_c, 1, 64, 0
3, 64620, Note_on_c, 1, 69, 80
3, 64680, Note_on_c, 1, 69, 0
3, 64680, Note_on_c, 1, 61, 80
3, 64740, Note_on_c, 1, 61, 0
3, 64740, Note_on_c, 1, 69, 80
3, 64800, Note_on_c, 1, 69, 0
3, 64800, Note_on_c, 1, 62, 88
3, 64860, Note_on_c, 1, 62, 0
3, 64860, Note_on_c, 1, 69, 80
3, 64920, Note_on_c, 1, 69, 0
3, 64920, Note_on_c, 1, 61, 80
3, 64980, Note_on_c, 1, 61, 0
3, 64980, Note_on_c, 1, 69, 80
3, 65040, Note_on_c, 1, 69, 0
3, 65040, Note_on_c, 1, 62, 80
3, 65100, Note_on_c, 1, 62, 0
3, 65100, Note_on_c, 1, 69, 80
3, 65160, Note_on_c, 1, 69, 0
3, 65160, Note_on_c, 1, 66, 80
3, 65220, Note_on_c, 1, 66, 0
3, 65220, Note_on_c, 1, 69, 80
3, 65280, Note_on_c, 1, 69, 0
3, 65280, Note_on_c, 1, 67, 88
3, 65340, Note_on_c, 1, 67, 0
3, 65340, Note_on_c, 1, 69, 80
3, 65400, Note_on_c, 1, 69, 0
3, 65400, Note_on_c, 1, 66, 80
3, 65460, Note_on_c, 1, 66, 0
3, 65460, Note_on_c, 1, 69, 80
3, 65520, Note_on_c, 1, 69, 0
3, 65520, Note_on_c, 1, 67, 80
3, 65580, Note_on_c, 1, 67, 0
3, 65580, Note_on_c, 1, 69, 80
3, 65640, Note_on_c, 1, 69, 0
3, 65640, Note_on_c, 1, 64, 80
3, 65700, Note_on_c, 1, 64, 0
3, 65700, Note_on_c, 1, 69, 80
3, 65760, Note_on_c, 1, 69, 0
3, 65760, Note_on_c, 1, 66, 88
3, 65820, Note_on_c, 1, 66, 0
3, 65820, Note_on_c, 1, 69, 80
3, 65880, Note_on_c, 1, 69, 0
3, 65880, Note_on_c, 1, 64, 80
3, 65940, Note_on_c, 1, 64, 0
3, 65940, Note_on_c, 1, 69, 80
3, 66000, Note_on_c, 1, 69, 0
3, 66000, Note_on_c, 1, 66, 80
3, 66060, Note_on_c, 1, 66, 0
3, 66060, Note_on_c, 1, 69, 80
3, 66120, Note_on_c, 1, 69, 0
3, 66120, Note_on_c, 1, 62, 80
3, 66180, Note_on_c, 1, 62, 0
3, 66180, Note_on_c, 1, 69, 80
3, 66240, Note_on_c, 1, 69, 0
3, 66240, Note_on_c, 1, 64, 48
3, 66300, Note_on_c, 1, 64, 0
3, 66300, Note_on_c, 1, 69, 48
3, 66360, Note_on_c, 1, 69, 0
3, 66360, Note_on_c, 1, 63, 48
3, 66420, Note_on_c, 1, 63, 0
3, 66420, Note_on_c, 1, 69, 48
3, 66480, Note_on_c, 1, 69, 0
3, 66480, Note_on_c, 1, 64, 48
3, 66540, Note_on_c, 1, 64, 0
3, 66540, Note_on_c, 1, 69, 48
3, 66600, Note_on_c, 1, 69, 0
3, 66600, Note_on_c, 1, 61, 48
3, 66660, Note_on_c, 1, 61, 0
3, 66660, Note_on_c, 1, 69, 48
3, 66720, Note_on_c, 1, 69, 0
3, 66720, Note_on_c, 1, 62, 48
3, 66780, Note_on_c, 1, 62, 0
3, 66780, Note_on_c, 1, 69, 48
3, 66840, Note_on_c, 1, 69, 0
3, 66840, Note_on_c, 1, 61, 48
3, 66900, Note_on_c, 1, 61, 0
3, 66900, Note_on_c, 1, 69, 48
3, 66960, Note_on_c, 1, 69, 0
3, 66960, Note_on_c, 1, 62, 48
3, 67020, Note_on_c, 1, 62, 0
3, 67020, Note_on_c, 1, 69, 48
3, 67080, Note_on_c, 1, 69, 0
3, 67080, Note_on_c, 1, 66, 48
3, 67140, Note_on_c, 1, 66, 0
3, 67140, Note_on_c, 1, 69, 48
3, 67200, Note_on_c, 1, 69, 0
3, 67200, Note_on_c, 1, 67, 48
3, 67260, Note_on_c, 1, 67, 0
3, 67260, Note_on_c, 1, 71, 50
3, 67320, Note_on_c, 1, 71, 0
3, 67320, Note_on_c, 1, 66, 52
3, 67380, Note_on_c, 1, 66, 0
3, 67380, Note_on_c, 1, 69, 54
3, 67440, Note_on_c, 1, 69, 0
3, 67440, Note_on_c, 1, 67, 56
3, 67500, Note_on_c, 1, 67, 0
3, 67500, Note_on_c, 1, 71, 58
3, 67560, Note_on_c, 1, 71, 0
3, 67560, Note_on_c, 1, 66, 60
3, 67620, Note_on_c, 1, 66, 0
3, 67620, Note_on_c, 1, 69, 62
3, 67680, Note_on_c, 1, 69, 0
3, 67680, Note_on_c, 1, 67, 64
3, 67740, Note_on_c, 1, 67, 0
3, 67740, Note_on_c, 1, 71, 66
3, 67800, Note_on_c, 1, 71, 0
3, 67800, Note_on_c, 1, 66, 68
3, 67860, Note_on_c, 1, 66, 0
3, 67860, Note_on_c, 1, 69, 70
3, 67920, Note_on_c, 1, 69, 0
3, 67920, Note_on_c, 1, 67, 72
3, 67980, Note_on_c, 1, 67, 0
3, 67980, Note_on_c, 1, 71, 74
3, 68040, Note_on_c, 1, 71, 0
3, 68040, Note_on_c, 1, 66, 76
3, 68100, Note_on_c, 1, 66, 0
3, 68100, Note_on_c, 1, 69, 78
3, 68160, Note_on_c, 1, 69, 0
3, 68160, Note_on_c, 1, 67, 80
3, 68400, Note_on_c, 1, 67, 0
3, 68880, Note_on_c, 1, 68, 80
3, 69120, Note_on_c, 1, 68, 0
3, 69120, Note_on_c, 1, 57, 80
3, 69360, Note_on_c, 1, 57, 0
3, 70080, Note_on_c, 1, 57, 80
3, 70140, Note_on_c, 1, 57, 0
3, 70140, Note_on_c, 1, 69, 78
3, 70200, Note_on_c, 1, 69, 0
3, 70200, Note_on_c, 1, 68, 76
3, 70260, Note_on_c, 1, 68, 0
3, 70260, Note_on_c, 1, 69, 74
3, 70320, Note_on_c, 1, 69, 0
3, 70320, Note_on_c, 1, 68, 72
3, 70380, Note_on_c, 1, 68, 0
3, 70380, Note_on_c, 1, 69, 70
3, 70440, Note_on_c, 1, 69, 0
3, 70440, Note_on_c, 1, 68, 68
3, 70500, Note_on_c, 1, 68, 0
3, 70500, Note_on_c, 1, 69, 66
3, 70560, Note_on_c, 1, 69, 0
3, 70560, Note_on_c, 1, 57, 64
3, 70620, Note_on_c, 1, 57, 0
3, 70620, Note_on_c, 1, 67, 62
3, 70680, Note_on_c, 1, 67, 0
3, 70680, Note_on_c, 1, 66, 60
3, 70740, Note_on_c, 1, 66, 0
3, 70740, Note_on_c, 1, 67, 58
3, 70800, Note_on_c, 1, 67, 0
3, 70800, Note_on_c, 1, 66, 56
3, 70860, Note_on_c, 1, 66, 0
3, 70860, Note_on_c, 1, 67, 54
3, 70920, Note_on_c, 1, 67, 0
3, 70920, Note_on_c, 1, 66, 52
3, 70980, Note_on_c, 1, 66, 0
3, 70980, Note_on_c, 1, 67, 50
3, 71040, Note_on_c, 1, 67, 0
3, 71040, Note_on_c, 1, 62, 88
3, 71040, Note_on_c, 1, 66, 88
3, 71280, Note_on_c, 1, 66, 0
3, 71280, Note_on_c, 1, 62, 0
3, 71280, Note_on_c, 1, 62, 72
3, 71316, Note_on_c, 1, 62, 0
3, 71400, Note_on_c, 1, 61, 72
3, 71436, Note_on_c, 1, 61, 0
3, 71520, Note_on_c, 1, 62, 72
3, 71556, Note_on_c, 1, 62, 0
3, 71640, Note_on_c, 1, 64, 72
3, 71676, Note_on_c, 1, 64, 0
3, 71760, Note_on_c, 1, 66, 72
3, 71796, Note_on_c, 1, 66, 0
3, 71880, Note_on_c, 1, 64, 72
3, 71916, Note_on_c, 1, 64, 0
3, 72000, Note_on_c, 1, 50, 88
3, 72000, Note_on_c, 1, 62, 88
3, 72240, Note_on_c, 1, 62, 0
3, 72240, Note_on_c, 1, 50, 0
3, 72240, Note_on_c, 1, 62, 72
3, 72276, Note_on_c, 1, 62, 0
3, 72360, Note_on_c, 1, 64, 72
3, 72396, Note_on_c, 1, 64, 0
3, 72480, Note_on_c, 1, 66, 72
3, 72516, Note_on_c, 1, 66, 0
3, 72600, Note_on_c, 1, 67, 72
3, 72636, Note_on_c, 1, 67, 0
3, 72720, Note_on_c, 1, 66, 72
3, 72756, Note_on_c, 1, 66, 0
3, 72840, Note_on_c, 1, 64, 72
3, 72876, Note_on_c, 1, 64, 0
3, 72960, Note_on_c, 1, 62, 88
3, 73080, Note_on_c, 1, 62, 0
3, 73080, Note_on_c, 1, 66, 72
3, 73200, Note_on_c, 1, 66, 0
3, 73200, Note_on_c, 1, 67, 72
3, 73320, Note_on_c, 1, 67, 0
3, 73320, Note_on_c, 1, 71, 72
3, 73440, Note_on_c, 1, 71, 0
3, 73440, Note_on_c, 1, 66, 72
3, 73560, Note_on_c, 1, 66, 0
3, 73560, Note_on_c, 1, 69, 72
3, 73680, Note_on_c, 1, 69, 0
3, 73680, Note_on_c, 1, 64, 72
3, 73800, Note_on_c, 1, 64, 0
3, 73800, Note_on_c, 1, 67, 72
3, 73920, Note_on_c, 1, 67, 0
3, 73920, Note_on_c, 1, 62, 80
3, 74040, Note_on_c, 1, 62, 0
3, 74040, Note_on_c, 1, 66, 80
3, 74076, Note_on_c, 1, 66, 0
3, 74160, Note_on_c, 1, 67, 80
3, 74280, Note_on_c, 1, 67, 0
3, 74280, Note_on_c, 1, 71, 80
3, 74316, Note_on_c, 1, 71, 0
3, 74400, Note_on_c, 1, 66, 80
3, 74520, Note_on_c, 1, 66, 0
3, 74520, Note_on_c, 1, 69, 80
3, 74556, Note_on_c, 1, 69, 0
3, 74640, Note_on_c, 1, 64, 80
3, 74760, Note_on_c, 1, 64, 0
3, 74760, Note_on_c, 1, 67, 80
3, 74796, Note_on_c, 1, 67, 0
3, 74880, Note_on_c, 1, 62, 80
3, 75000, Note_on_c, 1, 62, 0
3, 75000, Note_on_c, 1, 66, 80
3, 75036, Note_on_c, 1, 66, 0
3, 75120, Note_on_c, 1, 62, 80
3, 75240, Note_on_c, 1, 62, 0
3, 75240, Note_on_c, 1, 66, 80
3, 75360, Note_on_c, 1, 66, 0
3, 75360, Note_on_c, 1, 59, 80
3, 75480, Note_on_c, 1, 59, 0
3, 75480, Note_on_c, 1, 62, 80
3, 75600, Note_on_c, 1, 62, 0
3, 75600, Note_on_c, 1, 59, 80
3, 75720, Note_on_c, 1, 59, 0
3, 75720, Note_on_c, 1, 62, 80
3, 75840, Note_on_c, 1, 62, 0
3, 75840, Note_on_c, 1, 57, 80
3, 76080, Note_on_c, 1, 57, 0
3, 76080, Note_on_c, 1, 45, 88
3, 76080, Note_on_c, 1, 57, 88
3, 76134, Note_on_c, 1, 57, 0
3, 76134, Note_on_c, 1, 45, 0
3, 76260, Note_on_c, 1, 45, 88
3, 76260, Note_on_c, 1, 57, 88
3, 76278, Note_on_c, 1, 57, 0
3, 76278, Note_on_c, 1, 45, 0
3, 76320, Note_on_c, 1, 45, 88
3, 76320, Note_on_c, 1, 57, 88
3, 76560, Note_on_c, 1, 57, 0
3, 76560, Note_on_c, 1, 45, 0
3, 76800, Note_on_c, 1, 62, 72
3, 76800, Note_on_c, 1, 66, 72
3, 76836, Note_on_c, 1, 66, 0
3, 76836, Note_on_c, 1, 62, 0
3, 76920, Note_on_c, 1, 62, 40
3, 76920, Note_on_c, 1, 66, 40
3, 76956, Note_on_c, 1, 66, 0
3, 76956, Note_on_c, 1, 62, 0
3, 77040, Note_on_c, 1, 62, 40
3, 77040, Note_on_c, 1, 66, 40
3, 77076, Note_on_c, 1, 66, 0
3, 77076, Note_on_c, 1, 62, 0
3, 77160, Note_on_c, 1, 62, 40
3, 77160, Note_on_c, 1, 66, 40
3, 77280, Note_on_c, 1, 66, 0
3, 77280, Note_on_c, 1, 62, 0
3, 77280, Note_on_c, 1, 64, 72
3, 77280, Note_on_c, 1, 67, 72
3, 77316, Note_on_c, 1, 67, 0
3, 77316, Note_on_c, 1, 64, 0
3, 77400, Note_on_c, 1, 64, 40
3, 77400, Note_on_c, 1, 67, 40
3, 77436, Note_on_c, 1, 67, 0
3, 77436, Note_on_c, 1, 64, 0
3, 77520, Note_on_c, 1, 64, 40
3, 77520, Note_on_c, 1, 67, 40
3, 77556, Note_on_c, 1, 67, 0
3, 77556, Note_on_c, 1, 64, 0
3, 77640, Note_on_c, 1, 64, 40
3, 77640, Note_on_c, 1, 67, 40
3, 77760, Note_on_c, 1, 67, 0
3, 77760, Note_on_c, 1, 64, 0
3, 77760, Note_on_c, 1, 61, 72
3, 77760, Note_on_c, 1, 64, 72
3, 77796, Note_on_c, 1, 64, 0
3, 77796, Note_on_c, 1, 61, 0
3, 77880, Note_on_c, 1, 61, 40
3, 77880, Note_on_c, 1, 64, 40
3, 77916, Note_on_c, 1, 64, 0
3, 77916, Note_on_c, 1, 61, 0
3, 78000, Note_on_c, 1, 61, 40
3, 78000, Note_on_c, 1, 64, 40
3, 78036, Note_on_c, 1, 64, 0
3, 78036, Note_on_c, 1, 61, 0
3, 78120, Note_on_c, 1, 61, 40
3, 78120, Note_on_c, 1, 64, 40
3, 78240, Note_on_c, 1, 64, 0
3, 78240, Note_on_c, 1, 61, 0
3, 78240, Note_on_c, 1, 62, 72
3, 78240, Note_on_c, 1, 66, 72
3, 78276, Note_on_c, 1, 66, 0
3, 78276, Note_on_c, 1, 62, 0
3, 78360, Note_on_c, 1, 66, 40
3, 78360, Note_on_c, 1, 62, 40
3, 78396, Note_on_c, 1, 62, 0
3, 78396, Note_on_c, 1, 66, 0
3, 78480, Note_on_c, 1, 62, 40
3, 78480, Note_on_c, 1, 66, 40
3, 78516, Note_on_c, 1, 66, 0
3, 78516, Note_on_c, 1, 62, 0
3, 78600, Note_on_c, 1, 62, 40
3, 78600, Note_on_c, 1, 66, 40
3, 78720, Note_on_c, 1, 66, 0
3, 78720, Note_on_c, 1, 62, 0
3, 78720, Note_on_c, 1, 55, 72
3, 78720, Note_on_c, 1, 59, 72
3, 78756, Note_on_c, 1, 59, 0
3, 78756, Note_on_c, 1, 55, 0
3, 78840, Note_on_c, 1, 55, 40
3, 78840, Note_on_c, 1, 59, 40
3, 78876, Note_on_c, 1, 59, 0
3, 78876, Note_on_c, 1, 55, 0
3, 78960, Note_on_c, 1, 55, 40
3, 78960, Note_on_c, 1, 59, 40
3, 78996, Note_on_c, 1, 59, 0
3, 78996, Note_on_c, 1, 55, 0
3, 79080, Note_on_c, 1, 55, 40
3, 79080, Note_on_c, 1, 59, 40
3, 79116, Note_on_c, 1, 59, 0
3, 79116, Note_on_c, 1, 55, 0
3, 79200, Note_on_c, 1, 55, 40
3, 79200, Note_on_c, 1, 59, 40
3, 79440, Note_on_c, 1, 59, 0
3, 79440, Note_on_c, 1, 55, 0
3, 79680, Note_on_c, 1, 43, 72
3, 79680, Note_on_c, 1, 47, 72
3, 79800, Note_on_c, 1, 47, 0
3, 79800, Note_on_c, 1, 43, 0
3, 79800, Note_on_c, 1, 55, 40
3, 79800, Note_on_c, 1, 59, 40
3, 79836, Note_on_c, 1, 59, 0
3, 79836, Note_on_c, 1, 55, 0
3, 79920, Note_on_c, 1, 55, 40
3, 79920, Note_on_c, 1, 59, 40
3, 79956, Note_on_c, 1, 59, 0
3, 79956, Note_on_c, 1, 55, 0
3, 80040, Note_on_c, 1, 54, 40
3, 80040, Note_on_c, 1, 57, 40
3, 80076, Note_on_c, 1, 57, 0
3, 80076, Note_on_c, 1, 54, 0
3, 80160, Note_on_c, 1, 55, 40
3, 80160, Note_on_c, 1, 59, 40
3, 80400, Note_on_c, 1, 59, 0
3, 80400, Note_on_c, 1, 55, 0
3, 80640, Note_on_c, 1, 43, 72
3, 80640, Note_on_c, 1, 47, 72
3, 80760, Note_on_c, 1, 47, 0
3, 80760, Note_on_c, 1, 43, 0
3, 80760, Note_on_c, 1, 55, 45
3, 80760, Note_on_c, 1, 59, 45
3, 80796, Note_on_c, 1, 59, 0
3, 80796, Note_on_c, 1, 55, 0
3, 80880, Note_on_c, 1, 55, 50
3, 80880, Note_on_c, 1, 59, 50
3, 80916, Note_on_c, 1, 59, 0
3, 80916, Note_on_c, 1, 55, 0
3, 81000, Note_on_c, 1, 55, 55
3, 81000, Note_on_c, 1, 59, 55
3, 81036, Note_on_c, 1, 59, 0
3, 81036, Note_on_c, 1, 55, 0
3, 81120, Note_on_c, 1, 56, 60
3, 81120, Note_on_c, 1, 59, 60
3, 81240, Note_on_c, 1, 59, 0
3, 81240, Note_on_c, 1, 56, 0
3, 81240, Note_on_c, 1, 56, 65
3, 81240, Note_on_c, 1, 59, 65
3, 81276, Note_on_c, 1, 59, 0
3, 81276, Note_on_c, 1, 56, 0
3, 81360, Note_on_c, 1, 56, 70
3, 81360, Note_on_c, 1, 59, 70
3, 81396, Note_on_c, 1, 59, 0
3, 81396, Note_on_c, 1, 56, 0
3, 81480, Note_on_c, 1, 56, 75
3, 81480, Note_on_c, 1, 59, 75
3, 81516, Note_on_c, 1, 59, 0
3, 81516, Note_on_c, 1, 56, 0
3, 81600, Note_on_c, 1, 45, 80
3, 81660, Note_on_c, 1, 45, 0
3, 81660, Note_on_c, 1, 49, 80
3, 81720, Note_on_c, 1, 49, 0
3, 81720, Note_on_c, 1, 47, 80
3, 81780, Note_on_c, 1, 47, 0
3, 81780, Note_on_c, 1, 50, 80
3, 81840, Note_on_c, 1, 50, 0
3, 81840, Note_on_c, 1, 49, 80
3, 81900, Note_on_c, 1, 49, 0
3, 81900, Note_on_c, 1, 52, 80
3, 81960, Note_on_c, 1, 52, 0
3, 81960, Note_on_c, 1, 50, 80
3, 82020, Note_on_c, 1, 50, 0
3, 82020, Note_on_c, 1, 54, 80
3, 82080, Note_on_c, 1, 54, 0
3, 82080, Note_on_c, 1, 52, 80
3, 82320, Note_on_c, 1, 55, 80
3, 82560, Note_on_c, 1, 55, 0
3, 82560, Note_on_c, 1, 52, 0
3, 82560, Note_on_c, 1, 54, 80
3, 82800, Note_on_c, 1, 54, 0
3, 83520, Note_on_c, 1, 45, 48
3, 83580, Note_on_c, 1, 45, 0
3, 83580, Note_on_c, 1, 49, 48
3, 83640, Note_on_c, 1, 49, 0
3, 83640, Note_on_c, 1, 47, 48
3, 83700, Note_on_c, 1, 47, 0
3, 83700, Note_on_c, 1, 50, 48
3, 83760, Note_on_c, 1, 50, 0
3, 83760, Note_on_c, 1, 49, 48
3, 83820, Note_on_c, 1, 49, 0
3, 83820, Note_on_c, 1, 52, 48
3, 83880, Note_on_c, 1, 52, 0
3, 83880, Note_on_c, 1, 50, 48
3, 83940, Note_on_c, 1, 50, 0
3, 83940, Note_on_c, 1, 54, 48
3, 84000, Note_on_c, 1, 54, 0
3, 84000, Note_on_c, 1, 52, 48
3, 84240, Note_on_c, 1, 55, 48
3, 84480, Note_on_c, 1, 55, 0
3, 84480, Note_on_c, 1, 52, 0
3, 84480, Note_on_c, 1, 54, 48
3, 84720, Note_on_c, 1, 54, 0
3, 85440, Note_on_c, 1, 43, 88
3, 85500, Note_on_c, 1, 43, 0
3, 85500, Note_on_c, 1, 55, 80
3, 85560, Note_on_c, 1, 55, 0
3, 85560, Note_on_c, 1, 54, 80
3, 85620, Note_on_c, 1, 54, 0
3, 85620, Note_on_c, 1, 55, 80
3, 85680, Note_on_c, 1, 55, 0
3, 85680, Note_on_c, 1, 54, 80
3, 85740, Note_on_c, 1, 54, 0
3, 85740, Note_on_c, 1, 55, 80
3, 85800, Note_on_c, 1, 55, 0
3, 85800, Note_on_c, 1, 54, 80
3, 85860, Note_on_c, 1, 54, 0
3, 85860, Note_on_c, 1, 55, 80
3, 85920, Note_on_c, 1, 55, 0
3, 85920, Note_on_c, 1, 52, 88
3, 85980, Note_on_c, 1, 52, 0
3, 85980, Note_on_c, 1, 64, 80
3, 86040, Note_on_c, 1, 64, 0
3, 86040, Note_on_c, 1, 63, 80
3, 86100, Note_on_c, 1, 63, 0
3, 86100, Note_on_c, 1, 64, 80
3, 86160, Note_on_c, 1, 64, 0
3, 86160, Note_on_c, 1, 63, 80
3, 86220, Note_on_c, 1, 63, 0
3, 86220, Note_on_c, 1, 64, 80
3, 86280, Note_on_c, 1, 64, 0
3, 86280, Note_on_c, 1, 63, 80
3, 86340, Note_on_c, 1, 63, 0
3, 86340, Note_on_c, 1, 64, 80
3, 86400, Note_on_c, 1, 64, 0
3, 86400, Note_on_c, 1, 57, 88
3, 86460, Note_on_c, 1, 57, 0
3, 86460, Note_on_c, 1, 61, 80
3, 86520, Note_on_c, 1, 61, 0
3, 86520, Note_on_c, 1, 60, 80
3, 86580, Note_on_c, 1, 60, 0
3, 86580, Note_on_c, 1, 61, 80
3, 86640, Note_on_c, 1, 61, 0
3, 86640, Note_on_c, 1, 60, 80
3, 86700, Note_on_c, 1, 60, 0
3, 86700, Note_on_c, 1, 61, 80
3, 86760, Note_on_c, 1, 61, 0
3, 86760, Note_on_c, 1, 60, 80
3, 86820, Note_on_c, 1, 60, 0
3, 86820, Note_on_c, 1, 61, 80
3, 86880, Note_on_c, 1, 61, 0
3, 86880, Note_on_c, 1, 62, 88
3, 86940, Note_on_c, 1, 62, 0
3, 86940, Note_on_c, 1, 66, 80
3, 87000, Note_on_c, 1, 66, 0
3, 87000, Note_on_c, 1, 64, 80
3, 87060, Note_on_c, 1, 64, 0
3, 87060, Note_on_c, 1, 66, 80
3, 87120, Note_on_c, 1, 66, 0
3, 87120, Note_on_c, 1, 64, 80
3, 87180, Note_on_c, 1, 64, 0
3, 87180, Note_on_c, 1, 66, 80
3, 87240, Note_on_c, 1, 66, 0
3, 87240, Note_on_c, 1, 64, 80
3, 87300, Note_on_c, 1, 64, 0
3, 87300, Note_on_c, 1, 66, 80
3, 87360, Note_on_c, 1, 66, 0
3, 87360, Note_on_c, 1, 57, 80
3, 87480, Note_on_c, 1, 61, 80
3, 87600, Note_on_c, 1, 61, 0
3, 87600, Note_on_c, 1, 62, 80
3, 87720, Note_on_c, 1, 62, 0
3, 87720, Note_on_c, 1, 66, 80
3, 87840, Note_on_c, 1, 66, 0
3, 87840, Note_on_c, 1, 57, 0
3, 87840, Note_on_c, 1, 57, 80
3, 87960, Note_on_c, 1, 61, 80
3, 88080, Note_on_c, 1, 61, 0
3, 88080, Note_on_c, 1, 62, 80
3, 88200, Note_on_c, 1, 62, 0
3, 88200, Note_on_c, 1, 66, 80
3, 88320, Note_on_c, 1, 66, 0
3, 88320, Note_on_c, 1, 57, 0
3, 88320, Note_on_c, 1, 57, 64
3, 88440, Note_on_c, 1, 61, 64
3, 88476, Note_on_c, 1, 61, 0
3, 88560, Note_on_c, 1, 62, 64
3, 88596, Note_on_c, 1, 62, 0
3, 88680, Note_on_c, 1, 65, 64
3, 88716, Note_on_c, 1, 65, 0
3, 88800, Note_on_c, 1, 57, 0
3, 88800, Note_on_c, 1, 57, 64
3, 88920, Note_on_c, 1, 61, 64
3, 88956, Note_on_c, 1, 61, 0
3, 89040, Note_on_c, 1, 62, 64
3, 89076, Note_on_c, 1, 62, 0
3, 89160, Note_on_c, 1, 65, 64
3, 89196, Note_on_c, 1, 65, 0
3, 89280, Note_on_c, 1, 57, 0
3, 89280, Note_on_c, 1, 58, 80
3, 89280, Note_on_c, 1, 62, 80
3, 89280, Note_on_c, 1, 65, 80
3, 89520, Note_on_c, 1, 65, 0
3, 89520, Note_on_c, 1, 62, 0
3, 89520, Note_on_c, 1, 58, 0
3, 89820, Note_on_c, 1, 58, 71
3, 89880, Note_on_c, 1, 58, 0
3, 89880, Note_on_c, 1, 62, 70
3, 89940, Note_on_c, 1, 62, 0
3, 89940, Note_on_c, 1, 65, 69
3, 90000, Note_on_c, 1, 65, 0
3, 90000, Note_on_c, 1, 70, 68
3, 90240, Note_on_c, 1, 70, 0
3, 91200, Note_on_c, 1, 56, 80
3, 91200, Note_on_c, 1, 44, 80
3, 91440, Note_on_c, 1, 44, 0
3, 91440, Note_on_c, 1, 56, 0
3, 91440, Note_on_c, 1, 47, 80
3, 91440, Note_on_c, 1, 59, 80
3, 91476, Note_on_c, 1, 59, 0
3, 91476, Note_on_c, 1, 47, 0
3, 91560, Note_on_c, 1, 44, 80
3, 91560, Note_on_c, 1, 56, 80
3, 91596, Note_on_c, 1, 56, 0
3, 91596, Note_on_c, 1, 44, 0
3, 91680, Note_on_c, 1, 41, 80
3, 91680, Note_on_c, 1, 53, 80
3, 91716, Note_on_c, 1, 53, 0
3, 91716, Note_on_c, 1, 41, 0
3, 91800, Note_on_c, 1, 38, 80
3, 91800, Note_on_c, 1, 50, 80
3, 91836, Note_on_c, 1, 50, 0
3, 91836, Note_on_c, 1, 38, 0
3, 91920, Note_on_c, 1, 35, 80
3, 91920, Note_on_c, 1, 47, 80
3, 91956, Note_on_c, 1, 47, 0
3, 91956, Note_on_c, 1, 35, 0
3, 92040, Note_on_c, 1, 32, 80
3, 92040, Note_on_c, 1, 44, 80
3, 92076, Note_on_c, 1, 44, 0
3, 92076, Note_on_c, 1, 32, 0
3, 92160, Note_on_c, 1, 33, 80
3, 92160, Note_on_c, 1, 45, 80
3, 93120, Note_on_c, 1, 45, 0
3, 93120, Note_on_c, 1, 33, 0
3, 93120, Note_on_c, 1, 45, 80
3, 93240, Note_on_c, 1, 45, 0
3, 93240, Note_on_c, 1, 49, 80
3, 93276, Note_on_c, 1, 49, 0
3, 93360, Note_on_c, 1, 52, 80
3, 93396, Note_on_c, 1, 52, 0
3, 93480, Note_on_c, 1, 55, 80
3, 93516, Note_on_c, 1, 55, 0
3, 93600, Note_on_c, 1, 57, 80
3, 93600, Note_on_c, 1, 61, 80
3, 93600, Note_on_c, 1, 64, 80
3, 93600, Note_on_c, 1, 67, 80
3, 94080, Note_on_c, 1, 67, 0
3, 94080, Note_on_c, 1, 57, 0
3, 94080, Note_on_c, 1, 61, 0
3, 94080, Note_on_c, 1, 64, 0
3, 94080, Note_on_c, 1, 62, 80
3, 94080, Note_on_c, 1, 66, 80
3, 94320, Note_on_c, 1, 66, 0
3, 94320, Note_on_c, 1, 62, 0
3, 95280, Note_on_c, 1, 50, 88
3, 95280, Note_on_c, 1, 54, 88
3, 95316, Note_on_c, 1, 54, 0
3, 95316, Note_on_c, 1, 50, 0
3, 95400, Note_on_c, 1, 50, 88
3, 95400, Note_on_c, 1, 54, 88
3, 95520, Note_on_c, 1, 54, 0
3, 95520, Note_on_c, 1, 50, 0
3, 95520, Note_on_c, 1, 43, 88
3, 95520, Note_on_c, 1, 55, 88
3, 95640, Note_on_c, 1, 55, 0
3, 95640, Note_on_c, 1, 43, 0
3, 95760, Note_on_c, 1, 45, 88
3, 95760, Note_on_c, 1, 52, 88
3, 95796, Note_on_c, 1, 52, 0
3, 95796, Note_on_c, 1, 45, 0
3, 95880, Note_on_c, 1, 45, 88
3, 95880, Note_on_c, 1, 52, 88
3, 96000, Note_on_c, 1, 52, 0
3, 96000, Note_on_c, 1, 45, 0
3, 96000, Note_on_c, 1, 38, 88
3, 96000, Note_on_c, 1, 50, 88
3, 96120, Note_on_c, 1, 50, 0
3, 96120, Note_on_c, 1, 38, 0
3, 96240, Note_on_c, 1, 71, 64
3, 96300, Note_on_c, 1, 71, 0
3, 96300, Note_on_c, 1, 73, 64
3, 96360, Note_on_c, 1, 73, 0
3, 96360, Note_on_c, 1, 69, 64
3, 96420, Note_on_c, 1, 69, 0
3, 96420, Note_on_c, 1, 71, 64
3, 96480, Note_on_c, 1, 71, 0
3, 96480, Note_on_c, 1, 67, 64
3, 96600, Note_on_c, 1, 67, 0
3, 96720, Note_on_c, 1, 67, 64
3, 96780, Note_on_c, 1, 67, 0
3, 96780, Note_on_c, 1, 69, 64
3, 96840, Note_on_c, 1, 69, 0
3, 96840, Note_on_c, 1, 66, 64
3, 96900, Note_on_c, 1, 66, 0
3, 96900, Note_on_c, 1, 67, 64
3, 96960, Note_on_c, 1, 67, 0
3, 96960, Note_on_c, 1, 64, 64
3, 97080, Note_on_c, 1, 64, 0
3, 97200, Note_on_c, 1, 62, 88
3, 97200, Note_on_c, 1, 66, 88
3, 97236, Note_on_c, 1, 66, 0
3, 97236, Note_on_c, 1, 62, 0
3, 97320, Note_on_c, 1, 62, 88
3, 97320, Note_on_c, 1, 66, 88
3, 97440, Note_on_c, 1, 66, 0
3, 97440, Note_on_c, 1, 62, 0
3, 97440, Note_on_c, 1, 55, 88
3, 97440, Note_on_c, 1, 67, 88
3, 97476, Note_on_c, 1, 67, 0
3, 97476, Note_on_c, 1, 55, 0
3, 97560, Note_on_c, 1, 55, 88
3, 97560, Note_on_c, 1, 67, 88
3, 97680, Note_on_c, 1, 67, 0
3, 97680, Note_on_c, 1, 55, 0
3, 97680, Note_on_c, 1, 57, 88
3, 97680, Note_on_c, 1, 64, 88
3, 97716, Note_on_c, 1, 64, 0
3, 97716, Note_on_c, 1, 57, 0
3, 97800, Note_on_c, 1, 57, 88
3, 97800, Note_on_c, 1, 64, 88
3, 97920, Note_on_c, 1, 64, 0
3, 97920, Note_on_c, 1, 57, 0
3, 97920, Note_on_c, 1, 62, 88
3, 97920, Note_on_c, 1, 66, 88
3, 98160, Note_on_c, 1, 66, 0
3, 98160, Note_on_c, 1, 62, 0
3, 98280, Note_on_c, 1, 57, 91
3, 98280, Note_on_c, 1, 67, 91
3, 98316, Note_on_c, 1, 67, 0
3, 98316, Note_on_c, 1, 57, 0
3, 98400, Note_on_c, 1, 62, 92
3, 98400, Note_on_c, 1, 66, 92
3, 98640, Note_on_c, 1, 66, 0
3, 98640, Note_on_c, 1, 62, 0
3, 98760, Note_on_c, 1, 57, 95
3, 98760, Note_on_c, 1, 67, 95
3, 98796, Note_on_c, 1, 67, 0
3, 98796, Note_on_c, 1, 57, 0
3, 98880, Note_on_c, 1, 62, 96
3, 98880, Note_on_c, 1, 66, 96
3, 99120, Note_on_c, 1, 66, 0
3, 99120, Note_on_c, 1, 62, 0
3, 99120, Note_on_c, 1, 50, 96
3, 99120, Note_on_c, 1, 62, 96
3, 99192, Note_on_c, 1, 62, 0
3, 99192, Note_on_c, 1, 50, 0
3, 99360, Note_on_c, 1, 38, 96
3, 99360, Note_on_c, 1, 50, 96
3, 99600, Note_on_c, 1, 50, 0
3, 99600, Note_on_c, 1, 38, 0
3, 99600, End_track
4, 0, Start_track
4, 0, MIDI_port, 0
4, 0, Title_t, "MIDI by Marty Weimer 2/1/96"
4, 0, End_track
5, 0, Start_track
5, 0, MIDI_port, 0
5, 0, Title_t, "weimermt@libby.org  Eureka, MT USA"
5, 0, End_track
0, 0, End_of_file
