0, 0, Header, 1, 5, 240
1, 0, Start_track
1, 0, Time_signature, 4, 2, 24, 8
1, 0, Key_signature, 0, "major"
1, 0, Tempo, 666667
1, 23280, Tempo, 689655
1, 23520, Tempo, 705882
1, 23760, Tempo, 731707
1, 24000, Tempo, 750000
1, 24240, Tempo, 895522
1, 24480, Tempo, 1090909
1, 24720, Tempo, 1428571
1, 24960, Tempo, 666667
1, 30720, Tempo, 750000
1, 31920, Tempo, 722892
1, 32160, Tempo, 705882
1, 32400, Tempo, 681818
1, 32640, Tempo, 666667
1, 33840, Tempo, 689655
1, 34080, Tempo, 705882
1, 34320, Tempo, 731707
1, 34560, Tempo, 750000
1, 36480, Tempo, 666667
1, 40560, Tempo, 779221
1, 40800, Tempo, 923077
1, 41040, Tempo, 1153846
1, 41280, Tempo, 750000
1, 43200, Tempo, 666667
1, 62640, Tempo, 705882
1, 62880, Tempo, 750000
1, 63120, Tempo, 800000
1, 63360, Tempo, 750000
1, 64320, Tempo, 666667
1, 91440, Tempo, 674157
1, 91680, Tempo, 689655
1, 91920, Tempo, 697674
1, 92160, Tempo, 705882
1, 92400, Tempo, 779221
1, 92640, Tempo, 923077
1, 92880, Tempo, 1153846
1, 93120, Tempo, 666667
1, 98880, Tempo, 750000
1, 100080, Tempo, 722892
1, 100320, Tempo, 705882
1, 100560, Tempo, 681818
1, 100800, Tempo, 666667
1, 100800, End_track
2, 0, Start_track
2, 0, MIDI_port, 0
2, 0, Title_t, "Piano Sonata No. 52 in E Flat (1794)"
2, 0, Program_c, 0, 0
2, 0, Control_c, 0, 7, 127
2, 0, Control_c, 0, 10, 72
2, 60, Note_on_c, 0, 55, 76
2, 75, Note_on_c, 0, 58, 76
2, 90, Note_on_c, 0, 63, 76
2, 240, Note_on_c, 0, 63, 0
2, 240, Note_on_c, 0, 58, 0
2, 240, Note_on_c, 0, 55, 0
2, 240, Note_on_c, 0, 63, 76
2, 240, Note_on_c, 0, 61, 76
2, 240, Note_on_c, 0, 67, 76
2, 420, Note_on_c, 0, 67, 0
2, 420, Note_on_c, 0, 61, 0
2, 420, Note_on_c, 0, 63, 0
2, 420, Note_on_c, 0, 61, 76
2, 420, Note_on_c, 0, 63, 76
2, 420, Note_on_c, 0, 67, 76
2, 480, Note_on_c, 0, 67, 0
2, 480, Note_on_c, 0, 63, 0
2, 480, Note_on_c, 0, 61, 0
2, 480, Note_on_c, 0, 60, 76
2, 495, Note_on_c, 0, 63, 76
2, 510, Note_on_c, 0, 68, 76
2, 840, Note_on_c, 0, 63, 0
2, 840, Note_on_c, 0, 60, 0
2, 870, Note_on_c, 0, 68, 0
2, 870, Note_on_c, 0, 67, 76
2, 900, Note_on_c, 0, 67, 0
2, 900, Note_on_c, 0, 65, 76
2, 930, Note_on_c, 0, 65, 0
2, 930, Note_on_c, 0, 63, 76
2, 960, Note_on_c, 0, 63, 0
2, 960, Note_on_c, 0, 58, 76
2, 960, Note_on_c, 0, 56, 76
2, 960, Note_on_c, 0, 62, 76
2, 1080, Note_on_c, 0, 56, 0
2, 1080, Note_on_c, 0, 58, 0
2, 1140, Note_on_c, 0, 62, 0
2, 1140, Note_on_c, 0, 65, 76
2, 1200, Note_on_c, 0, 65, 0
2, 1200, Note_on_c, 0, 70, 76
2, 1380, Note_on_c, 0, 70, 0
2, 1380, Note_on_c, 0, 68, 76
2, 1440, Note_on_c, 0, 68, 0
2, 1440, Note_on_c, 0, 58, 76
2, 1440, Note_on_c, 0, 63, 76
2, 1440, Note_on_c, 0, 67, 76
2, 1680, Note_on_c, 0, 67, 0
2, 1680, Note_on_c, 0, 63, 0
2, 1680, Note_on_c, 0, 58, 0
2, 1920, Note_on_c, 0, 74, 48
2, 2100, Note_on_c, 0, 74, 0
2, 2100, Note_on_c, 0, 77, 48
2, 2160, Note_on_c, 0, 77, 0
2, 2160, Note_on_c, 0, 82, 48
2, 2340, Note_on_c, 0, 82, 0
2, 2340, Note_on_c, 0, 80, 48
2, 2400, Note_on_c, 0, 80, 0
2, 2400, Note_on_c, 0, 79, 48
2, 2496, Note_on_c, 0, 79, 0
2, 2700, Note_on_c, 0, 84, 48
2, 2700, Note_on_c, 0, 80, 48
2, 2718, Note_on_c, 0, 80, 0
2, 2718, Note_on_c, 0, 84, 0
2, 2760, Note_on_c, 0, 82, 48
2, 2760, Note_on_c, 0, 79, 48
2, 2778, Note_on_c, 0, 79, 0
2, 2778, Note_on_c, 0, 82, 0
2, 2820, Note_on_c, 0, 77, 48
2, 2820, Note_on_c, 0, 80, 48
2, 2838, Note_on_c, 0, 80, 0
2, 2838, Note_on_c, 0, 77, 0
2, 2880, Note_on_c, 0, 75, 48
2, 2880, Note_on_c, 0, 79, 48
2, 3000, Note_on_c, 0, 79, 0
2, 3000, Note_on_c, 0, 75, 0
2, 3180, Note_on_c, 0, 80, 80
2, 3180, Note_on_c, 0, 84, 80
2, 3198, Note_on_c, 0, 84, 0
2, 3198, Note_on_c, 0, 80, 0
2, 3240, Note_on_c, 0, 79, 80
2, 3240, Note_on_c, 0, 82, 80
2, 3258, Note_on_c, 0, 82, 0
2, 3258, Note_on_c, 0, 79, 0
2, 3300, Note_on_c, 0, 77, 80
2, 3300, Note_on_c, 0, 80, 80
2, 3318, Note_on_c, 0, 80, 0
2, 3318, Note_on_c, 0, 77, 0
2, 3360, Note_on_c, 0, 79, 80
2, 3360, Note_on_c, 0, 75, 80
2, 3480, Note_on_c, 0, 75, 0
2, 3480, Note_on_c, 0, 79, 0
2, 3660, Note_on_c, 0, 80, 80
2, 3660, Note_on_c, 0, 84, 80
2, 3678, Note_on_c, 0, 84, 0
2, 3678, Note_on_c, 0, 80, 0
2, 3720, Note_on_c, 0, 79, 80
2, 3720, Note_on_c, 0, 82, 80
2, 3738, Note_on_c, 0, 82, 0
2, 3738, Note_on_c, 0, 79, 0
2, 3780, Note_on_c, 0, 77, 80
2, 3780, Note_on_c, 0, 80, 80
2, 3798, Note_on_c, 0, 80, 0
2, 3798, Note_on_c, 0, 77, 0
2, 3840, Note_on_c, 0, 75, 80
2, 3840, Note_on_c, 0, 79, 80
2, 3900, Note_on_c, 0, 79, 0
2, 3900, Note_on_c, 0, 75, 0
2, 3900, Note_on_c, 0, 80, 79
2, 3900, Note_on_c, 0, 84, 79
2, 3918, Note_on_c, 0, 84, 0
2, 3918, Note_on_c, 0, 80, 0
2, 3960, Note_on_c, 0, 79, 78
2, 3960, Note_on_c, 0, 82, 78
2, 3978, Note_on_c, 0, 82, 0
2, 3978, Note_on_c, 0, 79, 0
2, 4020, Note_on_c, 0, 77, 77
2, 4020, Note_on_c, 0, 80, 77
2, 4038, Note_on_c, 0, 80, 0
2, 4038, Note_on_c, 0, 77, 0
2, 4080, Note_on_c, 0, 75, 76
2, 4080, Note_on_c, 0, 79, 76
2, 4140, Note_on_c, 0, 79, 0
2, 4140, Note_on_c, 0, 75, 0
2, 4140, Note_on_c, 0, 79, 75
2, 4140, Note_on_c, 0, 82, 75
2, 4170, Note_on_c, 0, 82, 0
2, 4170, Note_on_c, 0, 79, 0
2, 4200, Note_on_c, 0, 77, 74
2, 4200, Note_on_c, 0, 80, 74
2, 4230, Note_on_c, 0, 80, 0
2, 4230, Note_on_c, 0, 77, 0
2, 4260, Note_on_c, 0, 75, 73
2, 4260, Note_on_c, 0, 79, 73
2, 4290, Note_on_c, 0, 79, 0
2, 4290, Note_on_c, 0, 75, 0
2, 4320, Note_on_c, 0, 74, 72
2, 4320, Note_on_c, 0, 77, 72
2, 4380, Note_on_c, 0, 77, 0
2, 4380, Note_on_c, 0, 74, 0
2, 4380, Note_on_c, 0, 72, 71
2, 4380, Note_on_c, 0, 75, 71
2, 4440, Note_on_c, 0, 75, 0
2, 4440, Note_on_c, 0, 72, 0
2, 4440, Note_on_c, 0, 70, 70
2, 4440, Note_on_c, 0, 74, 70
2, 4500, Note_on_c, 0, 74, 0
2, 4500, Note_on_c, 0, 70, 0
2, 4500, Note_on_c, 0, 68, 69
2, 4500, Note_on_c, 0, 72, 69
2, 4560, Note_on_c, 0, 72, 0
2, 4560, Note_on_c, 0, 68, 0
2, 4560, Note_on_c, 0, 67, 68
2, 4560, Note_on_c, 0, 70, 68
2, 4620, Note_on_c, 0, 70, 0
2, 4620, Note_on_c, 0, 67, 0
2, 4620, Note_on_c, 0, 65, 67
2, 4620, Note_on_c, 0, 68, 67
2, 4680, Note_on_c, 0, 68, 0
2, 4680, Note_on_c, 0, 65, 0
2, 4680, Note_on_c, 0, 63, 66
2, 4680, Note_on_c, 0, 67, 66
2, 4740, Note_on_c, 0, 67, 0
2, 4740, Note_on_c, 0, 63, 0
2, 4740, Note_on_c, 0, 62, 65
2, 4740, Note_on_c, 0, 65, 65
2, 4800, Note_on_c, 0, 65, 0
2, 4800, Note_on_c, 0, 62, 0
2, 4800, Note_on_c, 0, 63, 64
2, 5184, Note_on_c, 0, 63, 0
2, 5220, Note_on_c, 0, 65, 64
2, 5244, Note_on_c, 0, 65, 0
2, 5250, Note_on_c, 0, 63, 64
2, 5274, Note_on_c, 0, 63, 0
2, 5280, Note_on_c, 0, 62, 64
2, 5400, Note_on_c, 0, 62, 0
2, 5520, Note_on_c, 0, 61, 72
2, 5760, Note_on_c, 0, 61, 0
2, 5760, Note_on_c, 0, 60, 64
2, 6144, Note_on_c, 0, 60, 0
2, 6180, Note_on_c, 0, 62, 72
2, 6204, Note_on_c, 0, 62, 0
2, 6210, Note_on_c, 0, 60, 72
2, 6234, Note_on_c, 0, 60, 0
2, 6240, Note_on_c, 0, 58, 72
2, 6384, Note_on_c, 0, 58, 0
2, 6420, Note_on_c, 0, 60, 72
2, 6444, Note_on_c, 0, 60, 0
2, 6450, Note_on_c, 0, 62, 72
2, 6474, Note_on_c, 0, 62, 0
2, 6480, Note_on_c, 0, 63, 72
2, 6624, Note_on_c, 0, 63, 0
2, 6660, Note_on_c, 0, 65, 72
2, 6684, Note_on_c, 0, 65, 0
2, 6690, Note_on_c, 0, 67, 72
2, 6714, Note_on_c, 0, 67, 0
2, 6720, Note_on_c, 0, 68, 64
2, 6960, Note_on_c, 0, 68, 0
2, 6960, Note_on_c, 0, 67, 62
2, 7200, Note_on_c, 0, 67, 0
2, 7200, Note_on_c, 0, 60, 60
2, 7200, Note_on_c, 0, 65, 60
2, 7284, Note_on_c, 0, 65, 0
2, 7284, Note_on_c, 0, 60, 0
2, 7440, Note_on_c, 0, 56, 58
2, 7440, Note_on_c, 0, 62, 58
2, 7524, Note_on_c, 0, 62, 0
2, 7524, Note_on_c, 0, 56, 0
2, 7680, Note_on_c, 0, 70, 80
2, 7680, Note_on_c, 0, 67, 80
2, 7680, Note_on_c, 0, 75, 80
2, 7872, Note_on_c, 0, 75, 0
2, 7872, Note_on_c, 0, 67, 0
2, 7872, Note_on_c, 0, 70, 0
2, 7920, Note_on_c, 0, 73, 80
2, 7920, Note_on_c, 0, 75, 80
2, 7920, Note_on_c, 0, 79, 80
2, 8064, Note_on_c, 0, 79, 0
2, 8064, Note_on_c, 0, 75, 0
2, 8064, Note_on_c, 0, 73, 0
2, 8100, Note_on_c, 0, 75, 80
2, 8148, Note_on_c, 0, 75, 0
2, 8160, Note_on_c, 0, 72, 80
2, 8175, Note_on_c, 0, 75, 80
2, 8190, Note_on_c, 0, 80, 80
2, 8364, Note_on_c, 0, 80, 0
2, 8364, Note_on_c, 0, 75, 0
2, 8364, Note_on_c, 0, 72, 0
2, 8400, Note_on_c, 0, 84, 80
2, 8424, Note_on_c, 0, 84, 0
2, 8430, Note_on_c, 0, 82, 80
2, 8454, Note_on_c, 0, 82, 0
2, 8460, Note_on_c, 0, 80, 80
2, 8484, Note_on_c, 0, 80, 0
2, 8490, Note_on_c, 0, 79, 80
2, 8514, Note_on_c, 0, 79, 0
2, 8520, Note_on_c, 0, 77, 80
2, 8544, Note_on_c, 0, 77, 0
2, 8550, Note_on_c, 0, 75, 80
2, 8574, Note_on_c, 0, 75, 0
2, 8580, Note_on_c, 0, 74, 80
2, 8604, Note_on_c, 0, 74, 0
2, 8610, Note_on_c, 0, 72, 80
2, 8634, Note_on_c, 0, 72, 0
2, 8640, Note_on_c, 0, 70, 80
2, 8664, Note_on_c, 0, 70, 0
2, 8670, Note_on_c, 0, 68, 79
2, 8694, Note_on_c, 0, 68, 0
2, 8700, Note_on_c, 0, 67, 78
2, 8724, Note_on_c, 0, 67, 0
2, 8730, Note_on_c, 0, 65, 78
2, 8754, Note_on_c, 0, 65, 0
2, 8760, Note_on_c, 0, 63, 77
2, 8784, Note_on_c, 0, 63, 0
2, 8790, Note_on_c, 0, 62, 76
2, 8814, Note_on_c, 0, 62, 0
2, 8820, Note_on_c, 0, 60, 75
2, 8844, Note_on_c, 0, 60, 0
2, 8850, Note_on_c, 0, 58, 75
2, 8874, Note_on_c, 0, 58, 0
2, 8880, Note_on_c, 0, 56, 74
2, 8899, Note_on_c, 0, 56, 0
2, 8904, Note_on_c, 0, 55, 73
2, 8923, Note_on_c, 0, 55, 0
2, 8928, Note_on_c, 0, 53, 73
2, 8947, Note_on_c, 0, 53, 0
2, 8952, Note_on_c, 0, 51, 72
2, 8971, Note_on_c, 0, 51, 0
2, 8976, Note_on_c, 0, 50, 72
2, 8995, Note_on_c, 0, 50, 0
2, 9000, Note_on_c, 0, 48, 71
2, 9019, Note_on_c, 0, 48, 0
2, 9024, Note_on_c, 0, 46, 70
2, 9043, Note_on_c, 0, 46, 0
2, 9048, Note_on_c, 0, 44, 70
2, 9067, Note_on_c, 0, 44, 0
2, 9072, Note_on_c, 0, 43, 69
2, 9091, Note_on_c, 0, 43, 0
2, 9096, Note_on_c, 0, 41, 69
2, 9115, Note_on_c, 0, 41, 0
2, 9360, Note_on_c, 0, 84, 40
2, 9420, Note_on_c, 0, 84, 0
2, 9420, Note_on_c, 0, 79, 40
2, 9480, Note_on_c, 0, 79, 0
2, 9480, Note_on_c, 0, 84, 40
2, 9540, Note_on_c, 0, 84, 0
2, 9540, Note_on_c, 0, 79, 40
2, 9600, Note_on_c, 0, 79, 0
2, 9600, Note_on_c, 0, 84, 40
2, 9660, Note_on_c, 0, 84, 0
2, 9660, Note_on_c, 0, 77, 40
2, 9720, Note_on_c, 0, 77, 0
2, 9720, Note_on_c, 0, 84, 40
2, 9780, Note_on_c, 0, 84, 0
2, 9780, Note_on_c, 0, 77, 40
2, 9840, Note_on_c, 0, 77, 0
2, 9840, Note_on_c, 0, 82, 40
2, 9900, Note_on_c, 0, 82, 0
2, 9900, Note_on_c, 0, 77, 40
2, 9960, Note_on_c, 0, 77, 0
2, 9960, Note_on_c, 0, 82, 40
2, 10020, Note_on_c, 0, 82, 0
2, 10020, Note_on_c, 0, 77, 40
2, 10080, Note_on_c, 0, 77, 0
2, 10080, Note_on_c, 0, 82, 40
2, 10140, Note_on_c, 0, 82, 0
2, 10140, Note_on_c, 0, 76, 40
2, 10200, Note_on_c, 0, 76, 0
2, 10200, Note_on_c, 0, 82, 40
2, 10260, Note_on_c, 0, 82, 0
2, 10260, Note_on_c, 0, 76, 40
2, 10320, Note_on_c, 0, 76, 0
2, 10320, Note_on_c, 0, 80, 40
2, 10380, Note_on_c, 0, 80, 0
2, 10380, Note_on_c, 0, 75, 40
2, 10440, Note_on_c, 0, 75, 0
2, 10440, Note_on_c, 0, 80, 40
2, 10500, Note_on_c, 0, 80, 0
2, 10500, Note_on_c, 0, 75, 40
2, 10560, Note_on_c, 0, 75, 0
2, 10560, Note_on_c, 0, 80, 40
2, 10620, Note_on_c, 0, 80, 0
2, 10620, Note_on_c, 0, 74, 40
2, 10680, Note_on_c, 0, 74, 0
2, 10680, Note_on_c, 0, 80, 40
2, 10740, Note_on_c, 0, 80, 0
2, 10740, Note_on_c, 0, 74, 40
2, 10800, Note_on_c, 0, 74, 0
2, 10800, Note_on_c, 0, 79, 40
2, 10860, Note_on_c, 0, 79, 0
2, 10860, Note_on_c, 0, 73, 40
2, 10920, Note_on_c, 0, 73, 0
2, 10920, Note_on_c, 0, 79, 40
2, 10980, Note_on_c, 0, 79, 0
2, 10980, Note_on_c, 0, 73, 40
2, 11040, Note_on_c, 0, 73, 0
2, 11040, Note_on_c, 0, 79, 40
2, 11100, Note_on_c, 0, 79, 0
2, 11100, Note_on_c, 0, 72, 40
2, 11160, Note_on_c, 0, 72, 0
2, 11160, Note_on_c, 0, 79, 40
2, 11220, Note_on_c, 0, 79, 0
2, 11220, Note_on_c, 0, 72, 40
2, 11280, Note_on_c, 0, 72, 0
2, 11280, Note_on_c, 0, 77, 40
2, 11340, Note_on_c, 0, 77, 0
2, 11340, Note_on_c, 0, 72, 40
2, 11400, Note_on_c, 0, 72, 0
2, 11400, Note_on_c, 0, 77, 40
2, 11460, Note_on_c, 0, 77, 0
2, 11460, Note_on_c, 0, 72, 40
2, 11520, Note_on_c, 0, 72, 0
2, 11520, Note_on_c, 0, 77, 40
2, 11580, Note_on_c, 0, 77, 0
2, 11580, Note_on_c, 0, 70, 42
2, 11640, Note_on_c, 0, 70, 0
2, 11640, Note_on_c, 0, 77, 44
2, 11700, Note_on_c, 0, 77, 0
2, 11700, Note_on_c, 0, 70, 46
2, 11760, Note_on_c, 0, 70, 0
2, 11760, Note_on_c, 0, 75, 48
2, 11820, Note_on_c, 0, 75, 0
2, 11820, Note_on_c, 0, 70, 50
2, 11880, Note_on_c, 0, 70, 0
2, 11880, Note_on_c, 0, 75, 52
2, 11940, Note_on_c, 0, 75, 0
2, 11940, Note_on_c, 0, 70, 54
2, 12000, Note_on_c, 0, 70, 0
2, 12000, Note_on_c, 0, 75, 56
2, 12060, Note_on_c, 0, 75, 0
2, 12060, Note_on_c, 0, 69, 58
2, 12120, Note_on_c, 0, 69, 0
2, 12120, Note_on_c, 0, 75, 60
2, 12180, Note_on_c, 0, 75, 0
2, 12180, Note_on_c, 0, 69, 62
2, 12240, Note_on_c, 0, 69, 0
2, 12240, Note_on_c, 0, 73, 64
2, 12300, Note_on_c, 0, 73, 0
2, 12300, Note_on_c, 0, 70, 66
2, 12360, Note_on_c, 0, 70, 0
2, 12360, Note_on_c, 0, 73, 68
2, 12420, Note_on_c, 0, 73, 0
2, 12420, Note_on_c, 0, 70, 70
2, 12480, Note_on_c, 0, 70, 0
2, 12480, Note_on_c, 0, 69, 72
2, 12528, Note_on_c, 0, 69, 0
2, 12540, Note_on_c, 0, 72, 72
2, 12588, Note_on_c, 0, 72, 0
2, 12600, Note_on_c, 0, 77, 72
2, 12648, Note_on_c, 0, 77, 0
2, 12660, Note_on_c, 0, 72, 72
2, 12708, Note_on_c, 0, 72, 0
2, 12720, Note_on_c, 0, 78, 72
2, 12768, Note_on_c, 0, 78, 0
2, 12780, Note_on_c, 0, 69, 72
2, 12828, Note_on_c, 0, 69, 0
2, 12840, Note_on_c, 0, 81, 72
2, 12888, Note_on_c, 0, 81, 0
2, 12900, Note_on_c, 0, 72, 72
2, 12948, Note_on_c, 0, 72, 0
2, 12960, Note_on_c, 0, 82, 72
2, 13008, Note_on_c, 0, 82, 0
2, 13020, Note_on_c, 0, 70, 72
2, 13068, Note_on_c, 0, 70, 0
2, 13080, Note_on_c, 0, 78, 72
2, 13128, Note_on_c, 0, 78, 0
2, 13140, Note_on_c, 0, 70, 72
2, 13188, Note_on_c, 0, 70, 0
2, 13200, Note_on_c, 0, 77, 72
2, 13248, Note_on_c, 0, 77, 0
2, 13260, Note_on_c, 0, 70, 72
2, 13308, Note_on_c, 0, 70, 0
2, 13320, Note_on_c, 0, 76, 72
2, 13368, Note_on_c, 0, 76, 0
2, 13380, Note_on_c, 0, 70, 72
2, 13428, Note_on_c, 0, 70, 0
2, 13440, Note_on_c, 0, 77, 48
2, 13488, Note_on_c, 0, 77, 0
2, 13500, Note_on_c, 0, 69, 48
2, 13548, Note_on_c, 0, 69, 0
2, 13560, Note_on_c, 0, 72, 48
2, 13608, Note_on_c, 0, 72, 0
2, 13620, Note_on_c, 0, 69, 48
2, 13668, Note_on_c, 0, 69, 0
2, 13680, Note_on_c, 0, 78, 48
2, 13728, Note_on_c, 0, 78, 0
2, 13740, Note_on_c, 0, 69, 48
2, 13788, Note_on_c, 0, 69, 0
2, 13800, Note_on_c, 0, 81, 48
2, 13848, Note_on_c, 0, 81, 0
2, 13860, Note_on_c, 0, 72, 48
2, 13908, Note_on_c, 0, 72, 0
2, 13920, Note_on_c, 0, 82, 48
2, 13968, Note_on_c, 0, 82, 0
2, 13980, Note_on_c, 0, 70, 48
2, 14028, Note_on_c, 0, 70, 0
2, 14040, Note_on_c, 0, 78, 48
2, 14088, Note_on_c, 0, 78, 0
2, 14100, Note_on_c, 0, 70, 48
2, 14148, Note_on_c, 0, 70, 0
2, 14160, Note_on_c, 0, 77, 48
2, 14208, Note_on_c, 0, 77, 0
2, 14220, Note_on_c, 0, 70, 48
2, 14268, Note_on_c, 0, 70, 0
2, 14280, Note_on_c, 0, 76, 48
2, 14328, Note_on_c, 0, 76, 0
2, 14340, Note_on_c, 0, 70, 48
2, 14388, Note_on_c, 0, 70, 0
2, 14400, Note_on_c, 0, 77, 48
2, 14448, Note_on_c, 0, 77, 0
2, 14460, Note_on_c, 0, 69, 50
2, 14508, Note_on_c, 0, 69, 0
2, 14520, Note_on_c, 0, 72, 52
2, 14568, Note_on_c, 0, 72, 0
2, 14580, Note_on_c, 0, 69, 54
2, 14628, Note_on_c, 0, 69, 0
2, 14640, Note_on_c, 0, 77, 56
2, 14672, Note_on_c, 0, 77, 0
2, 14680, Note_on_c, 0, 72, 57
2, 14712, Note_on_c, 0, 72, 0
2, 14720, Note_on_c, 0, 69, 59
2, 14752, Note_on_c, 0, 69, 0
2, 14760, Note_on_c, 0, 77, 60
2, 14792, Note_on_c, 0, 77, 0
2, 14800, Note_on_c, 0, 72, 61
2, 14832, Note_on_c, 0, 72, 0
2, 14840, Note_on_c, 0, 69, 63
2, 14872, Note_on_c, 0, 69, 0
2, 14880, Note_on_c, 0, 76, 64
2, 14912, Note_on_c, 0, 76, 0
2, 14920, Note_on_c, 0, 70, 65
2, 14952, Note_on_c, 0, 70, 0
2, 14960, Note_on_c, 0, 67, 67
2, 14992, Note_on_c, 0, 67, 0
2, 15000, Note_on_c, 0, 76, 68
2, 15032, Note_on_c, 0, 76, 0
2, 15040, Note_on_c, 0, 70, 69
2, 15072, Note_on_c, 0, 70, 0
2, 15080, Note_on_c, 0, 67, 71
2, 15112, Note_on_c, 0, 67, 0
2, 15120, Note_on_c, 0, 75, 72
2, 15152, Note_on_c, 0, 75, 0
2, 15160, Note_on_c, 0, 72, 73
2, 15192, Note_on_c, 0, 72, 0
2, 15200, Note_on_c, 0, 65, 75
2, 15232, Note_on_c, 0, 65, 0
2, 15240, Note_on_c, 0, 75, 76
2, 15272, Note_on_c, 0, 75, 0
2, 15280, Note_on_c, 0, 72, 77
2, 15312, Note_on_c, 0, 72, 0
2, 15320, Note_on_c, 0, 65, 79
2, 15352, Note_on_c, 0, 65, 0
2, 15360, Note_on_c, 0, 70, 80
2, 15360, Note_on_c, 0, 65, 80
2, 15360, Note_on_c, 0, 62, 80
2, 15552, Note_on_c, 0, 62, 0
2, 15552, Note_on_c, 0, 65, 0
2, 15552, Note_on_c, 0, 70, 0
2, 15600, Note_on_c, 0, 70, 80
2, 15600, Note_on_c, 0, 74, 80
2, 15600, Note_on_c, 0, 68, 80
2, 15744, Note_on_c, 0, 68, 0
2, 15744, Note_on_c, 0, 74, 0
2, 15744, Note_on_c, 0, 70, 0
2, 15780, Note_on_c, 0, 70, 80
2, 15828, Note_on_c, 0, 70, 0
2, 15840, Note_on_c, 0, 75, 80
2, 15840, Note_on_c, 0, 70, 80
2, 15840, Note_on_c, 0, 67, 80
2, 16128, Note_on_c, 0, 67, 0
2, 16128, Note_on_c, 0, 70, 0
2, 16128, Note_on_c, 0, 75, 0
2, 16140, Note_on_c, 0, 79, 56
2, 16164, Note_on_c, 0, 79, 0
2, 16170, Note_on_c, 0, 77, 56
2, 16194, Note_on_c, 0, 77, 0
2, 16200, Note_on_c, 0, 75, 56
2, 16224, Note_on_c, 0, 75, 0
2, 16230, Note_on_c, 0, 74, 56
2, 16254, Note_on_c, 0, 74, 0
2, 16260, Note_on_c, 0, 72, 56
2, 16284, Note_on_c, 0, 72, 0
2, 16290, Note_on_c, 0, 70, 56
2, 16314, Note_on_c, 0, 70, 0
2, 16320, Note_on_c, 0, 69, 56
2, 16344, Note_on_c, 0, 69, 0
2, 16350, Note_on_c, 0, 70, 56
2, 16374, Note_on_c, 0, 70, 0
2, 16380, Note_on_c, 0, 72, 56
2, 16404, Note_on_c, 0, 72, 0
2, 16410, Note_on_c, 0, 74, 56
2, 16434, Note_on_c, 0, 74, 0
2, 16440, Note_on_c, 0, 75, 56
2, 16464, Note_on_c, 0, 75, 0
2, 16470, Note_on_c, 0, 77, 56
2, 16494, Note_on_c, 0, 77, 0
2, 16500, Note_on_c, 0, 79, 56
2, 16524, Note_on_c, 0, 79, 0
2, 16530, Note_on_c, 0, 81, 56
2, 16554, Note_on_c, 0, 81, 0
2, 16560, Note_on_c, 0, 82, 56
2, 16584, Note_on_c, 0, 82, 0
2, 16590, Note_on_c, 0, 84, 56
2, 16614, Note_on_c, 0, 84, 0
2, 16620, Note_on_c, 0, 86, 56
2, 16644, Note_on_c, 0, 86, 0
2, 16650, Note_on_c, 0, 87, 56
2, 16674, Note_on_c, 0, 87, 0
2, 16680, Note_on_c, 0, 89, 56
2, 16710, Note_on_c, 0, 89, 0
2, 16740, Note_on_c, 0, 87, 56
2, 16770, Note_on_c, 0, 87, 0
2, 16800, Note_on_c, 0, 86, 56
2, 16860, Note_on_c, 0, 86, 0
2, 16860, Note_on_c, 0, 84, 56
2, 16890, Note_on_c, 0, 84, 0
2, 16920, Note_on_c, 0, 82, 56
2, 16950, Note_on_c, 0, 82, 0
2, 16980, Note_on_c, 0, 81, 56
2, 17010, Note_on_c, 0, 81, 0
2, 17040, Note_on_c, 0, 79, 56
2, 17100, Note_on_c, 0, 79, 0
2, 17100, Note_on_c, 0, 77, 56
2, 17130, Note_on_c, 0, 77, 0
2, 17160, Note_on_c, 0, 75, 56
2, 17190, Note_on_c, 0, 75, 0
2, 17220, Note_on_c, 0, 74, 56
2, 17250, Note_on_c, 0, 74, 0
2, 17280, Note_on_c, 0, 72, 56
2, 17299, Note_on_c, 0, 72, 0
2, 17304, Note_on_c, 0, 70, 56
2, 17323, Note_on_c, 0, 70, 0
2, 17328, Note_on_c, 0, 69, 57
2, 17347, Note_on_c, 0, 69, 0
2, 17352, Note_on_c, 0, 70, 57
2, 17371, Note_on_c, 0, 70, 0
2, 17376, Note_on_c, 0, 72, 58
2, 17395, Note_on_c, 0, 72, 0
2, 17400, Note_on_c, 0, 74, 58
2, 17419, Note_on_c, 0, 74, 0
2, 17424, Note_on_c, 0, 75, 58
2, 17443, Note_on_c, 0, 75, 0
2, 17448, Note_on_c, 0, 77, 59
2, 17467, Note_on_c, 0, 77, 0
2, 17472, Note_on_c, 0, 79, 59
2, 17491, Note_on_c, 0, 79, 0
2, 17496, Note_on_c, 0, 81, 60
2, 17515, Note_on_c, 0, 81, 0
2, 17520, Note_on_c, 0, 82, 60
2, 17544, Note_on_c, 0, 82, 0
2, 17550, Note_on_c, 0, 84, 61
2, 17574, Note_on_c, 0, 84, 0
2, 17580, Note_on_c, 0, 86, 61
2, 17604, Note_on_c, 0, 86, 0
2, 17610, Note_on_c, 0, 87, 62
2, 17634, Note_on_c, 0, 87, 0
2, 17640, Note_on_c, 0, 89, 62
2, 17670, Note_on_c, 0, 89, 0
2, 17700, Note_on_c, 0, 87, 63
2, 17730, Note_on_c, 0, 87, 0
2, 17760, Note_on_c, 0, 86, 64
2, 17772, Note_on_c, 0, 86, 0
2, 17775, Note_on_c, 0, 87, 64
2, 17787, Note_on_c, 0, 87, 0
2, 17790, Note_on_c, 0, 86, 65
2, 17802, Note_on_c, 0, 86, 0
2, 17805, Note_on_c, 0, 87, 65
2, 17817, Note_on_c, 0, 87, 0
2, 17820, Note_on_c, 0, 84, 65
2, 17838, Note_on_c, 0, 84, 0
2, 17880, Note_on_c, 0, 82, 66
2, 17892, Note_on_c, 0, 82, 0
2, 17895, Note_on_c, 0, 84, 66
2, 17907, Note_on_c, 0, 84, 0
2, 17910, Note_on_c, 0, 82, 67
2, 17922, Note_on_c, 0, 82, 0
2, 17925, Note_on_c, 0, 84, 67
2, 17937, Note_on_c, 0, 84, 0
2, 17940, Note_on_c, 0, 81, 67
2, 17958, Note_on_c, 0, 81, 0
2, 18000, Note_on_c, 0, 79, 68
2, 18012, Note_on_c, 0, 79, 0
2, 18015, Note_on_c, 0, 81, 68
2, 18027, Note_on_c, 0, 81, 0
2, 18030, Note_on_c, 0, 79, 69
2, 18042, Note_on_c, 0, 79, 0
2, 18045, Note_on_c, 0, 81, 69
2, 18057, Note_on_c, 0, 81, 0
2, 18060, Note_on_c, 0, 77, 69
2, 18078, Note_on_c, 0, 77, 0
2, 18120, Note_on_c, 0, 75, 70
2, 18132, Note_on_c, 0, 75, 0
2, 18135, Note_on_c, 0, 77, 70
2, 18147, Note_on_c, 0, 77, 0
2, 18150, Note_on_c, 0, 75, 71
2, 18162, Note_on_c, 0, 75, 0
2, 18165, Note_on_c, 0, 77, 71
2, 18177, Note_on_c, 0, 77, 0
2, 18180, Note_on_c, 0, 74, 71
2, 18240, Note_on_c, 0, 79, 72
2, 18300, Note_on_c, 0, 74, 0
2, 18300, Note_on_c, 0, 77, 72
2, 18360, Note_on_c, 0, 77, 0
2, 18360, Note_on_c, 0, 75, 72
2, 18420, Note_on_c, 0, 75, 0
2, 18420, Note_on_c, 0, 74, 72
2, 18480, Note_on_c, 0, 74, 0
2, 18480, Note_on_c, 0, 75, 72
2, 18540, Note_on_c, 0, 79, 0
2, 18540, Note_on_c, 0, 82, 72
2, 18600, Note_on_c, 0, 82, 0
2, 18600, Note_on_c, 0, 81, 72
2, 18660, Note_on_c, 0, 81, 0
2, 18660, Note_on_c, 0, 79, 72
2, 18720, Note_on_c, 0, 79, 0
2, 18720, Note_on_c, 0, 77, 72
2, 18780, Note_on_c, 0, 75, 0
2, 18780, Note_on_c, 0, 74, 72
2, 18840, Note_on_c, 0, 74, 0
2, 18840, Note_on_c, 0, 75, 72
2, 18900, Note_on_c, 0, 75, 0
2, 18900, Note_on_c, 0, 72, 72
2, 18960, Note_on_c, 0, 72, 0
2, 18960, Note_on_c, 0, 74, 72
2, 19020, Note_on_c, 0, 77, 0
2, 19020, Note_on_c, 0, 82, 72
2, 19080, Note_on_c, 0, 82, 0
2, 19080, Note_on_c, 0, 81, 72
2, 19140, Note_on_c, 0, 81, 0
2, 19140, Note_on_c, 0, 79, 72
2, 19200, Note_on_c, 0, 79, 0
2, 19200, Note_on_c, 0, 74, 0
2, 19200, Note_on_c, 0, 77, 72
2, 19260, Note_on_c, 0, 77, 0
2, 19260, Note_on_c, 0, 76, 71
2, 19320, Note_on_c, 0, 76, 0
2, 19320, Note_on_c, 0, 79, 70
2, 19380, Note_on_c, 0, 79, 0
2, 19380, Note_on_c, 0, 77, 69
2, 19440, Note_on_c, 0, 77, 0
2, 19440, Note_on_c, 0, 76, 68
2, 19500, Note_on_c, 0, 76, 0
2, 19500, Note_on_c, 0, 82, 67
2, 19560, Note_on_c, 0, 82, 0
2, 19560, Note_on_c, 0, 81, 66
2, 19620, Note_on_c, 0, 81, 0
2, 19620, Note_on_c, 0, 79, 65
2, 19680, Note_on_c, 0, 79, 0
2, 19680, Note_on_c, 0, 77, 64
2, 19740, Note_on_c, 0, 77, 0
2, 19740, Note_on_c, 0, 76, 63
2, 19800, Note_on_c, 0, 76, 0
2, 19800, Note_on_c, 0, 79, 62
2, 19860, Note_on_c, 0, 79, 0
2, 19860, Note_on_c, 0, 77, 61
2, 19920, Note_on_c, 0, 77, 0
2, 19920, Note_on_c, 0, 76, 60
2, 19980, Note_on_c, 0, 76, 0
2, 19980, Note_on_c, 0, 82, 59
2, 20040, Note_on_c, 0, 82, 0
2, 20040, Note_on_c, 0, 81, 58
2, 20100, Note_on_c, 0, 81, 0
2, 20100, Note_on_c, 0, 79, 57
2, 20160, Note_on_c, 0, 79, 0
2, 20160, Note_on_c, 0, 77, 56
2, 20220, Note_on_c, 0, 77, 0
2, 20220, Note_on_c, 0, 76, 56
2, 20280, Note_on_c, 0, 76, 0
2, 20280, Note_on_c, 0, 79, 56
2, 20340, Note_on_c, 0, 79, 0
2, 20340, Note_on_c, 0, 77, 56
2, 20400, Note_on_c, 0, 77, 0
2, 20400, Note_on_c, 0, 76, 56
2, 20460, Note_on_c, 0, 76, 0
2, 20460, Note_on_c, 0, 82, 56
2, 20520, Note_on_c, 0, 82, 0
2, 20520, Note_on_c, 0, 79, 56
2, 20580, Note_on_c, 0, 79, 0
2, 20580, Note_on_c, 0, 76, 56
2, 20640, Note_on_c, 0, 76, 0
2, 20640, Note_on_c, 0, 79, 32
2, 20700, Note_on_c, 0, 79, 0
2, 20700, Note_on_c, 0, 77, 42
2, 20760, Note_on_c, 0, 77, 0
2, 20760, Note_on_c, 0, 76, 52
2, 20820, Note_on_c, 0, 76, 0
2, 20820, Note_on_c, 0, 77, 62
2, 20880, Note_on_c, 0, 77, 0
2, 20880, Note_on_c, 0, 76, 72
2, 20940, Note_on_c, 0, 76, 0
2, 20940, Note_on_c, 0, 77, 83
2, 21000, Note_on_c, 0, 77, 0
2, 21000, Note_on_c, 0, 70, 56
2, 21000, Note_on_c, 0, 75, 56
2, 21000, Note_on_c, 0, 79, 56
2, 21000, Note_on_c, 0, 82, 56
2, 21060, Note_on_c, 0, 82, 0
2, 21060, Note_on_c, 0, 70, 0
2, 21060, Note_on_c, 0, 75, 0
2, 21060, Note_on_c, 0, 79, 0
2, 21060, Note_on_c, 0, 75, 56
2, 21120, Note_on_c, 0, 75, 0
2, 21120, Note_on_c, 0, 75, 56
2, 21168, Note_on_c, 0, 75, 0
2, 21180, Note_on_c, 0, 74, 61
2, 21228, Note_on_c, 0, 74, 0
2, 21240, Note_on_c, 0, 73, 66
2, 21288, Note_on_c, 0, 73, 0
2, 21300, Note_on_c, 0, 74, 71
2, 21348, Note_on_c, 0, 74, 0
2, 21360, Note_on_c, 0, 73, 76
2, 21408, Note_on_c, 0, 73, 0
2, 21420, Note_on_c, 0, 74, 80
2, 21468, Note_on_c, 0, 74, 0
2, 21480, Note_on_c, 0, 67, 56
2, 21480, Note_on_c, 0, 72, 56
2, 21480, Note_on_c, 0, 75, 56
2, 21480, Note_on_c, 0, 79, 56
2, 21528, Note_on_c, 0, 79, 0
2, 21528, Note_on_c, 0, 67, 0
2, 21528, Note_on_c, 0, 72, 0
2, 21528, Note_on_c, 0, 75, 0
2, 21540, Note_on_c, 0, 72, 56
2, 21588, Note_on_c, 0, 72, 0
2, 21600, Note_on_c, 0, 72, 30
2, 21648, Note_on_c, 0, 72, 0
2, 21660, Note_on_c, 0, 70, 37
2, 21708, Note_on_c, 0, 70, 0
2, 21720, Note_on_c, 0, 69, 44
2, 21768, Note_on_c, 0, 69, 0
2, 21780, Note_on_c, 0, 70, 51
2, 21828, Note_on_c, 0, 70, 0
2, 21840, Note_on_c, 0, 69, 59
2, 21888, Note_on_c, 0, 69, 0
2, 21900, Note_on_c, 0, 70, 66
2, 21948, Note_on_c, 0, 70, 0
2, 21960, Note_on_c, 0, 65, 56
2, 21960, Note_on_c, 0, 70, 56
2, 21960, Note_on_c, 0, 74, 56
2, 21960, Note_on_c, 0, 77, 56
2, 22008, Note_on_c, 0, 77, 0
2, 22008, Note_on_c, 0, 65, 0
2, 22008, Note_on_c, 0, 70, 0
2, 22008, Note_on_c, 0, 74, 0
2, 22020, Note_on_c, 0, 70, 56
2, 22068, Note_on_c, 0, 70, 0
2, 22080, Note_on_c, 0, 69, 56
2, 22104, Note_on_c, 0, 69, 0
2, 22110, Note_on_c, 0, 79, 56
2, 22134, Note_on_c, 0, 79, 0
2, 22140, Note_on_c, 0, 77, 56
2, 22164, Note_on_c, 0, 77, 0
2, 22170, Note_on_c, 0, 75, 56
2, 22194, Note_on_c, 0, 75, 0
2, 22200, Note_on_c, 0, 74, 56
2, 22224, Note_on_c, 0, 74, 0
2, 22230, Note_on_c, 0, 72, 56
2, 22254, Note_on_c, 0, 72, 0
2, 22260, Note_on_c, 0, 70, 56
2, 22284, Note_on_c, 0, 70, 0
2, 22290, Note_on_c, 0, 69, 56
2, 22314, Note_on_c, 0, 69, 0
2, 22320, Note_on_c, 0, 70, 56
2, 22344, Note_on_c, 0, 70, 0
2, 22350, Note_on_c, 0, 77, 56
2, 22374, Note_on_c, 0, 77, 0
2, 22380, Note_on_c, 0, 79, 56
2, 22404, Note_on_c, 0, 79, 0
2, 22410, Note_on_c, 0, 77, 56
2, 22434, Note_on_c, 0, 77, 0
2, 22440, Note_on_c, 0, 75, 56
2, 22464, Note_on_c, 0, 75, 0
2, 22470, Note_on_c, 0, 74, 56
2, 22494, Note_on_c, 0, 74, 0
2, 22500, Note_on_c, 0, 72, 56
2, 22524, Note_on_c, 0, 72, 0
2, 22530, Note_on_c, 0, 70, 56
2, 22554, Note_on_c, 0, 70, 0
2, 22560, Note_on_c, 0, 69, 56
2, 22584, Note_on_c, 0, 69, 0
2, 22590, Note_on_c, 0, 79, 56
2, 22614, Note_on_c, 0, 79, 0
2, 22620, Note_on_c, 0, 77, 56
2, 22644, Note_on_c, 0, 77, 0
2, 22650, Note_on_c, 0, 75, 56
2, 22674, Note_on_c, 0, 75, 0
2, 22680, Note_on_c, 0, 74, 56
2, 22704, Note_on_c, 0, 74, 0
2, 22710, Note_on_c, 0, 72, 56
2, 22734, Note_on_c, 0, 72, 0
2, 22740, Note_on_c, 0, 70, 56
2, 22764, Note_on_c, 0, 70, 0
2, 22770, Note_on_c, 0, 69, 56
2, 22794, Note_on_c, 0, 69, 0
2, 22800, Note_on_c, 0, 70, 56
2, 22824, Note_on_c, 0, 70, 0
2, 22830, Note_on_c, 0, 72, 56
2, 22854, Note_on_c, 0, 72, 0
2, 22860, Note_on_c, 0, 74, 56
2, 22884, Note_on_c, 0, 74, 0
2, 22890, Note_on_c, 0, 75, 56
2, 22914, Note_on_c, 0, 75, 0
2, 22920, Note_on_c, 0, 77, 56
2, 22944, Note_on_c, 0, 77, 0
2, 22950, Note_on_c, 0, 79, 56
2, 22974, Note_on_c, 0, 79, 0
2, 22980, Note_on_c, 0, 81, 56
2, 23004, Note_on_c, 0, 81, 0
2, 23010, Note_on_c, 0, 82, 56
2, 23034, Note_on_c, 0, 82, 0
2, 23040, Note_on_c, 0, 80, 64
2, 23064, Note_on_c, 0, 80, 0
2, 23070, Note_on_c, 0, 82, 64
2, 23094, Note_on_c, 0, 82, 0
2, 23100, Note_on_c, 0, 84, 64
2, 23124, Note_on_c, 0, 84, 0
2, 23130, Note_on_c, 0, 82, 64
2, 23154, Note_on_c, 0, 82, 0
2, 23160, Note_on_c, 0, 80, 64
2, 23184, Note_on_c, 0, 80, 0
2, 23190, Note_on_c, 0, 79, 64
2, 23214, Note_on_c, 0, 79, 0
2, 23220, Note_on_c, 0, 77, 64
2, 23244, Note_on_c, 0, 77, 0
2, 23250, Note_on_c, 0, 75, 64
2, 23274, Note_on_c, 0, 75, 0
2, 23280, Note_on_c, 0, 74, 64
2, 23304, Note_on_c, 0, 74, 0
2, 23310, Note_on_c, 0, 75, 64
2, 23334, Note_on_c, 0, 75, 0
2, 23340, Note_on_c, 0, 77, 64
2, 23364, Note_on_c, 0, 77, 0
2, 23370, Note_on_c, 0, 75, 64
2, 23394, Note_on_c, 0, 75, 0
2, 23400, Note_on_c, 0, 74, 64
2, 23424, Note_on_c, 0, 74, 0
2, 23430, Note_on_c, 0, 72, 64
2, 23454, Note_on_c, 0, 72, 0
2, 23460, Note_on_c, 0, 70, 64
2, 23484, Note_on_c, 0, 70, 0
2, 23490, Note_on_c, 0, 68, 64
2, 23514, Note_on_c, 0, 68, 0
2, 23520, Note_on_c, 0, 67, 64
2, 23568, Note_on_c, 0, 67, 0
2, 23580, Note_on_c, 0, 79, 64
2, 23598, Note_on_c, 0, 79, 0
2, 23640, Note_on_c, 0, 78, 64
2, 23658, Note_on_c, 0, 78, 0
2, 23700, Note_on_c, 0, 81, 64
2, 23718, Note_on_c, 0, 81, 0
2, 23760, Note_on_c, 0, 79, 64
2, 23820, Note_on_c, 0, 79, 0
2, 23820, Note_on_c, 0, 82, 64
2, 23838, Note_on_c, 0, 82, 0
2, 23880, Note_on_c, 0, 78, 64
2, 23898, Note_on_c, 0, 78, 0
2, 23940, Note_on_c, 0, 81, 64
2, 23958, Note_on_c, 0, 81, 0
2, 24000, Note_on_c, 0, 79, 64
2, 24060, Note_on_c, 0, 79, 0
2, 24060, Note_on_c, 0, 82, 62
2, 24078, Note_on_c, 0, 82, 0
2, 24120, Note_on_c, 0, 78, 61
2, 24138, Note_on_c, 0, 78, 0
2, 24180, Note_on_c, 0, 81, 59
2, 24198, Note_on_c, 0, 81, 0
2, 24240, Note_on_c, 0, 79, 58
2, 24300, Note_on_c, 0, 79, 0
2, 24300, Note_on_c, 0, 82, 56
2, 24360, Note_on_c, 0, 82, 0
2, 24360, Note_on_c, 0, 79, 55
2, 24400, Note_on_c, 0, 79, 0
2, 24400, Note_on_c, 0, 75, 54
2, 24440, Note_on_c, 0, 75, 0
2, 24440, Note_on_c, 0, 72, 53
2, 24480, Note_on_c, 0, 72, 0
2, 24480, Note_on_c, 0, 70, 52
2, 24600, Note_on_c, 0, 70, 0
2, 24600, Note_on_c, 0, 72, 49
2, 24630, Note_on_c, 0, 72, 0
2, 24630, Note_on_c, 0, 70, 48
2, 24660, Note_on_c, 0, 70, 0
2, 24660, Note_on_c, 0, 69, 47
2, 24690, Note_on_c, 0, 69, 0
2, 24690, Note_on_c, 0, 70, 47
2, 24720, Note_on_c, 0, 70, 0
2, 24720, Note_on_c, 0, 69, 46
2, 24720, Note_on_c, 0, 74, 46
2, 24900, Note_on_c, 0, 74, 0
2, 24900, Note_on_c, 0, 72, 41
2, 24960, Note_on_c, 0, 72, 0
2, 24960, Note_on_c, 0, 69, 0
2, 24960, Note_on_c, 0, 70, 40
2, 25056, Note_on_c, 0, 70, 0
2, 25170, Note_on_c, 0, 89, 40
2, 25194, Note_on_c, 0, 89, 0
2, 25200, Note_on_c, 0, 86, 40
2, 25218, Note_on_c, 0, 86, 0
2, 25290, Note_on_c, 0, 89, 40
2, 25314, Note_on_c, 0, 89, 0
2, 25320, Note_on_c, 0, 84, 40
2, 25338, Note_on_c, 0, 84, 0
2, 25410, Note_on_c, 0, 89, 40
2, 25434, Note_on_c, 0, 89, 0
2, 25440, Note_on_c, 0, 82, 40
2, 25458, Note_on_c, 0, 82, 0
2, 25530, Note_on_c, 0, 89, 40
2, 25554, Note_on_c, 0, 89, 0
2, 25560, Note_on_c, 0, 77, 40
2, 25608, Note_on_c, 0, 77, 0
2, 25650, Note_on_c, 0, 89, 40
2, 25674, Note_on_c, 0, 89, 0
2, 25680, Note_on_c, 0, 86, 40
2, 25728, Note_on_c, 0, 86, 0
2, 25770, Note_on_c, 0, 89, 40
2, 25794, Note_on_c, 0, 89, 0
2, 25800, Note_on_c, 0, 84, 40
2, 25848, Note_on_c, 0, 84, 0
2, 25890, Note_on_c, 0, 89, 40
2, 25914, Note_on_c, 0, 89, 0
2, 25920, Note_on_c, 0, 82, 40
2, 25968, Note_on_c, 0, 82, 0
2, 26010, Note_on_c, 0, 89, 40
2, 26034, Note_on_c, 0, 89, 0
2, 26040, Note_on_c, 0, 77, 40
2, 26088, Note_on_c, 0, 77, 0
2, 26130, Note_on_c, 0, 89, 40
2, 26154, Note_on_c, 0, 89, 0
2, 26160, Note_on_c, 0, 80, 40
2, 26208, Note_on_c, 0, 80, 0
2, 26250, Note_on_c, 0, 89, 40
2, 26274, Note_on_c, 0, 89, 0
2, 26280, Note_on_c, 0, 78, 40
2, 26328, Note_on_c, 0, 78, 0
2, 26370, Note_on_c, 0, 89, 40
2, 26394, Note_on_c, 0, 89, 0
2, 26400, Note_on_c, 0, 79, 40
2, 26448, Note_on_c, 0, 79, 0
2, 26490, Note_on_c, 0, 83, 40
2, 26514, Note_on_c, 0, 83, 0
2, 26520, Note_on_c, 0, 84, 40
2, 26568, Note_on_c, 0, 84, 0
2, 26610, Note_on_c, 0, 86, 40
2, 26634, Note_on_c, 0, 86, 0
2, 26640, Note_on_c, 0, 87, 40
2, 26688, Note_on_c, 0, 87, 0
2, 26730, Note_on_c, 0, 86, 40
2, 26754, Note_on_c, 0, 86, 0
2, 26760, Note_on_c, 0, 84, 40
2, 26808, Note_on_c, 0, 84, 0
2, 26850, Note_on_c, 0, 82, 40
2, 26874, Note_on_c, 0, 82, 0
2, 26880, Note_on_c, 0, 81, 40
2, 26928, Note_on_c, 0, 81, 0
2, 26970, Note_on_c, 0, 79, 43
2, 26994, Note_on_c, 0, 79, 0
2, 27000, Note_on_c, 0, 77, 44
2, 27048, Note_on_c, 0, 77, 0
2, 27090, Note_on_c, 0, 76, 47
2, 27114, Note_on_c, 0, 76, 0
2, 27120, Note_on_c, 0, 77, 48
2, 27168, Note_on_c, 0, 77, 0
2, 27210, Note_on_c, 0, 79, 51
2, 27234, Note_on_c, 0, 79, 0
2, 27240, Note_on_c, 0, 77, 52
2, 27288, Note_on_c, 0, 77, 0
2, 27330, Note_on_c, 0, 75, 64
2, 27354, Note_on_c, 0, 75, 0
2, 27360, Note_on_c, 0, 73, 72
2, 27384, Note_on_c, 0, 73, 0
2, 27390, Note_on_c, 0, 75, 72
2, 27414, Note_on_c, 0, 75, 0
2, 27420, Note_on_c, 0, 73, 72
2, 27444, Note_on_c, 0, 73, 0
2, 27450, Note_on_c, 0, 72, 72
2, 27474, Note_on_c, 0, 72, 0
2, 27480, Note_on_c, 0, 70, 72
2, 27504, Note_on_c, 0, 70, 0
2, 27540, Note_on_c, 0, 70, 72
2, 27564, Note_on_c, 0, 70, 0
2, 27600, Note_on_c, 0, 75, 72
2, 27624, Note_on_c, 0, 75, 0
2, 27630, Note_on_c, 0, 77, 72
2, 27654, Note_on_c, 0, 77, 0
2, 27660, Note_on_c, 0, 75, 72
2, 27684, Note_on_c, 0, 75, 0
2, 27690, Note_on_c, 0, 73, 72
2, 27714, Note_on_c, 0, 73, 0
2, 27720, Note_on_c, 0, 72, 72
2, 27744, Note_on_c, 0, 72, 0
2, 27780, Note_on_c, 0, 72, 72
2, 27804, Note_on_c, 0, 72, 0
2, 27840, Note_on_c, 0, 73, 40
2, 27864, Note_on_c, 0, 73, 0
2, 27870, Note_on_c, 0, 75, 40
2, 27894, Note_on_c, 0, 75, 0
2, 27900, Note_on_c, 0, 73, 40
2, 27924, Note_on_c, 0, 73, 0
2, 27930, Note_on_c, 0, 72, 40
2, 27954, Note_on_c, 0, 72, 0
2, 27960, Note_on_c, 0, 70, 40
2, 27990, Note_on_c, 0, 70, 0
2, 28020, Note_on_c, 0, 70, 40
2, 28050, Note_on_c, 0, 70, 0
2, 28080, Note_on_c, 0, 75, 40
2, 28104, Note_on_c, 0, 75, 0
2, 28110, Note_on_c, 0, 77, 40
2, 28134, Note_on_c, 0, 77, 0
2, 28140, Note_on_c, 0, 75, 40
2, 28164, Note_on_c, 0, 75, 0
2, 28170, Note_on_c, 0, 73, 40
2, 28194, Note_on_c, 0, 73, 0
2, 28200, Note_on_c, 0, 72, 40
2, 28230, Note_on_c, 0, 72, 0
2, 28260, Note_on_c, 0, 72, 40
2, 28290, Note_on_c, 0, 72, 0
2, 28320, Note_on_c, 0, 73, 56
2, 28344, Note_on_c, 0, 73, 0
2, 28350, Note_on_c, 0, 75, 56
2, 28374, Note_on_c, 0, 75, 0
2, 28380, Note_on_c, 0, 73, 56
2, 28404, Note_on_c, 0, 73, 0
2, 28410, Note_on_c, 0, 72, 56
2, 28434, Note_on_c, 0, 72, 0
2, 28440, Note_on_c, 0, 70, 56
2, 28464, Note_on_c, 0, 70, 0
2, 28470, Note_on_c, 0, 72, 56
2, 28494, Note_on_c, 0, 72, 0
2, 28500, Note_on_c, 0, 70, 56
2, 28524, Note_on_c, 0, 70, 0
2, 28530, Note_on_c, 0, 68, 56
2, 28554, Note_on_c, 0, 68, 0
2, 28560, Note_on_c, 0, 66, 56
2, 28584, Note_on_c, 0, 66, 0
2, 28590, Note_on_c, 0, 68, 56
2, 28614, Note_on_c, 0, 68, 0
2, 28620, Note_on_c, 0, 66, 56
2, 28644, Note_on_c, 0, 66, 0
2, 28650, Note_on_c, 0, 65, 56
2, 28674, Note_on_c, 0, 65, 0
2, 28680, Note_on_c, 0, 63, 56
2, 28704, Note_on_c, 0, 63, 0
2, 28710, Note_on_c, 0, 65, 56
2, 28734, Note_on_c, 0, 65, 0
2, 28740, Note_on_c, 0, 63, 56
2, 28764, Note_on_c, 0, 63, 0
2, 28770, Note_on_c, 0, 61, 56
2, 28794, Note_on_c, 0, 61, 0
2, 28800, Note_on_c, 0, 60, 56
2, 28824, Note_on_c, 0, 60, 0
2, 28830, Note_on_c, 0, 61, 56
2, 28854, Note_on_c, 0, 61, 0
2, 28860, Note_on_c, 0, 63, 55
2, 28884, Note_on_c, 0, 63, 0
2, 28890, Note_on_c, 0, 61, 55
2, 28914, Note_on_c, 0, 61, 0
2, 28920, Note_on_c, 0, 60, 55
2, 28944, Note_on_c, 0, 60, 0
2, 28950, Note_on_c, 0, 61, 55
2, 28974, Note_on_c, 0, 61, 0
2, 28980, Note_on_c, 0, 63, 54
2, 29004, Note_on_c, 0, 63, 0
2, 29010, Note_on_c, 0, 61, 54
2, 29034, Note_on_c, 0, 61, 0
2, 29040, Note_on_c, 0, 60, 54
2, 29064, Note_on_c, 0, 60, 0
2, 29070, Note_on_c, 0, 61, 54
2, 29094, Note_on_c, 0, 61, 0
2, 29100, Note_on_c, 0, 63, 53
2, 29124, Note_on_c, 0, 63, 0
2, 29130, Note_on_c, 0, 61, 53
2, 29154, Note_on_c, 0, 61, 0
2, 29160, Note_on_c, 0, 60, 53
2, 29184, Note_on_c, 0, 60, 0
2, 29190, Note_on_c, 0, 61, 53
2, 29214, Note_on_c, 0, 61, 0
2, 29220, Note_on_c, 0, 63, 52
2, 29244, Note_on_c, 0, 63, 0
2, 29250, Note_on_c, 0, 61, 52
2, 29274, Note_on_c, 0, 61, 0
2, 29280, Note_on_c, 0, 60, 52
2, 29304, Note_on_c, 0, 60, 0
2, 29310, Note_on_c, 0, 61, 52
2, 29334, Note_on_c, 0, 61, 0
2, 29340, Note_on_c, 0, 63, 51
2, 29364, Note_on_c, 0, 63, 0
2, 29370, Note_on_c, 0, 61, 51
2, 29394, Note_on_c, 0, 61, 0
2, 29400, Note_on_c, 0, 60, 51
2, 29424, Note_on_c, 0, 60, 0
2, 29430, Note_on_c, 0, 61, 51
2, 29454, Note_on_c, 0, 61, 0
2, 29460, Note_on_c, 0, 63, 50
2, 29484, Note_on_c, 0, 63, 0
2, 29490, Note_on_c, 0, 61, 50
2, 29514, Note_on_c, 0, 61, 0
2, 29520, Note_on_c, 0, 60, 50
2, 29544, Note_on_c, 0, 60, 0
2, 29550, Note_on_c, 0, 61, 50
2, 29574, Note_on_c, 0, 61, 0
2, 29580, Note_on_c, 0, 63, 49
2, 29604, Note_on_c, 0, 63, 0
2, 29610, Note_on_c, 0, 61, 49
2, 29634, Note_on_c, 0, 61, 0
2, 29640, Note_on_c, 0, 60, 49
2, 29664, Note_on_c, 0, 60, 0
2, 29670, Note_on_c, 0, 61, 49
2, 29694, Note_on_c, 0, 61, 0
2, 29700, Note_on_c, 0, 63, 48
2, 29724, Note_on_c, 0, 63, 0
2, 29730, Note_on_c, 0, 61, 48
2, 29754, Note_on_c, 0, 61, 0
2, 29760, Note_on_c, 0, 60, 40
2, 29784, Note_on_c, 0, 60, 0
2, 29790, Note_on_c, 0, 62, 41
2, 29814, Note_on_c, 0, 62, 0
2, 29820, Note_on_c, 0, 63, 43
2, 29844, Note_on_c, 0, 63, 0
2, 29850, Note_on_c, 0, 62, 44
2, 29874, Note_on_c, 0, 62, 0
2, 29880, Note_on_c, 0, 60, 45
2, 29904, Note_on_c, 0, 60, 0
2, 29910, Note_on_c, 0, 62, 46
2, 29934, Note_on_c, 0, 62, 0
2, 29940, Note_on_c, 0, 63, 48
2, 29964, Note_on_c, 0, 63, 0
2, 29970, Note_on_c, 0, 62, 49
2, 29994, Note_on_c, 0, 62, 0
2, 30000, Note_on_c, 0, 60, 50
2, 30024, Note_on_c, 0, 60, 0
2, 30030, Note_on_c, 0, 62, 51
2, 30054, Note_on_c, 0, 62, 0
2, 30060, Note_on_c, 0, 63, 53
2, 30084, Note_on_c, 0, 63, 0
2, 30090, Note_on_c, 0, 62, 54
2, 30114, Note_on_c, 0, 62, 0
2, 30120, Note_on_c, 0, 60, 55
2, 30144, Note_on_c, 0, 60, 0
2, 30150, Note_on_c, 0, 62, 56
2, 30174, Note_on_c, 0, 62, 0
2, 30180, Note_on_c, 0, 63, 58
2, 30204, Note_on_c, 0, 63, 0
2, 30210, Note_on_c, 0, 62, 59
2, 30234, Note_on_c, 0, 62, 0
2, 30240, Note_on_c, 0, 60, 60
2, 30264, Note_on_c, 0, 60, 0
2, 30270, Note_on_c, 0, 62, 61
2, 30294, Note_on_c, 0, 62, 0
2, 30300, Note_on_c, 0, 63, 63
2, 30324, Note_on_c, 0, 63, 0
2, 30330, Note_on_c, 0, 62, 64
2, 30354, Note_on_c, 0, 62, 0
2, 30360, Note_on_c, 0, 60, 65
2, 30384, Note_on_c, 0, 60, 0
2, 30390, Note_on_c, 0, 62, 66
2, 30414, Note_on_c, 0, 62, 0
2, 30420, Note_on_c, 0, 63, 68
2, 30444, Note_on_c, 0, 63, 0
2, 30450, Note_on_c, 0, 62, 69
2, 30474, Note_on_c, 0, 62, 0
2, 30480, Note_on_c, 0, 60, 70
2, 30504, Note_on_c, 0, 60, 0
2, 30510, Note_on_c, 0, 62, 71
2, 30534, Note_on_c, 0, 62, 0
2, 30540, Note_on_c, 0, 63, 73
2, 30564, Note_on_c, 0, 63, 0
2, 30570, Note_on_c, 0, 65, 74
2, 30594, Note_on_c, 0, 65, 0
2, 30600, Note_on_c, 0, 67, 75
2, 30624, Note_on_c, 0, 67, 0
2, 30630, Note_on_c, 0, 69, 76
2, 30654, Note_on_c, 0, 69, 0
2, 30660, Note_on_c, 0, 70, 78
2, 30684, Note_on_c, 0, 70, 0
2, 30690, Note_on_c, 0, 72, 79
2, 30714, Note_on_c, 0, 72, 0
2, 30720, Note_on_c, 0, 70, 80
2, 30720, Note_on_c, 0, 74, 80
2, 30912, Note_on_c, 0, 74, 0
2, 30912, Note_on_c, 0, 70, 0
2, 30960, Note_on_c, 0, 77, 80
2, 30960, Note_on_c, 0, 72, 80
2, 31152, Note_on_c, 0, 72, 0
2, 31152, Note_on_c, 0, 77, 0
2, 31200, Note_on_c, 0, 82, 80
2, 31200, Note_on_c, 0, 75, 80
2, 31200, Note_on_c, 0, 70, 80
2, 31584, Note_on_c, 0, 70, 0
2, 31584, Note_on_c, 0, 75, 0
2, 31584, Note_on_c, 0, 82, 0
2, 31620, Note_on_c, 0, 81, 80
2, 31636, Note_on_c, 0, 81, 0
2, 31640, Note_on_c, 0, 79, 80
2, 31656, Note_on_c, 0, 79, 0
2, 31660, Note_on_c, 0, 77, 80
2, 31676, Note_on_c, 0, 77, 0
2, 31680, Note_on_c, 0, 75, 80
2, 31776, Note_on_c, 0, 75, 0
2, 31860, Note_on_c, 0, 74, 80
2, 31908, Note_on_c, 0, 74, 0
2, 31920, Note_on_c, 0, 79, 80
2, 32016, Note_on_c, 0, 79, 0
2, 32100, Note_on_c, 0, 70, 80
2, 32100, Note_on_c, 0, 77, 80
2, 32148, Note_on_c, 0, 77, 0
2, 32148, Note_on_c, 0, 70, 0
2, 32160, Note_on_c, 0, 70, 80
2, 32160, Note_on_c, 0, 76, 80
2, 32400, Note_on_c, 0, 76, 0
2, 32400, Note_on_c, 0, 70, 0
2, 32460, Note_on_c, 0, 75, 48
2, 32460, Note_on_c, 0, 79, 48
2, 32484, Note_on_c, 0, 79, 0
2, 32484, Note_on_c, 0, 75, 0
2, 32520, Note_on_c, 0, 74, 48
2, 32520, Note_on_c, 0, 77, 48
2, 32544, Note_on_c, 0, 77, 0
2, 32544, Note_on_c, 0, 74, 0
2, 32580, Note_on_c, 0, 72, 48
2, 32580, Note_on_c, 0, 75, 48
2, 32604, Note_on_c, 0, 75, 0
2, 32604, Note_on_c, 0, 72, 0
2, 32640, Note_on_c, 0, 74, 48
2, 32640, Note_on_c, 0, 70, 48
2, 32832, Note_on_c, 0, 70, 0
2, 32832, Note_on_c, 0, 74, 0
2, 32940, Note_on_c, 0, 75, 48
2, 32940, Note_on_c, 0, 79, 48
2, 32952, Note_on_c, 0, 79, 0
2, 32952, Note_on_c, 0, 75, 0
2, 33000, Note_on_c, 0, 74, 48
2, 33000, Note_on_c, 0, 77, 48
2, 33012, Note_on_c, 0, 77, 0
2, 33012, Note_on_c, 0, 74, 0
2, 33060, Note_on_c, 0, 72, 48
2, 33060, Note_on_c, 0, 75, 48
2, 33072, Note_on_c, 0, 75, 0
2, 33072, Note_on_c, 0, 72, 0
2, 33120, Note_on_c, 0, 70, 48
2, 33120, Note_on_c, 0, 74, 48
2, 33312, Note_on_c, 0, 74, 0
2, 33312, Note_on_c, 0, 70, 0
2, 33420, Note_on_c, 0, 75, 48
2, 33420, Note_on_c, 0, 79, 48
2, 33480, Note_on_c, 0, 79, 0
2, 33480, Note_on_c, 0, 75, 0
2, 33480, Note_on_c, 0, 74, 56
2, 33480, Note_on_c, 0, 77, 56
2, 33540, Note_on_c, 0, 77, 0
2, 33540, Note_on_c, 0, 74, 0
2, 33540, Note_on_c, 0, 72, 64
2, 33540, Note_on_c, 0, 75, 64
2, 33600, Note_on_c, 0, 75, 0
2, 33600, Note_on_c, 0, 72, 0
2, 33600, Note_on_c, 0, 70, 72
2, 33600, Note_on_c, 0, 74, 72
2, 33648, Note_on_c, 0, 74, 0
2, 33648, Note_on_c, 0, 70, 0
2, 33660, Note_on_c, 0, 77, 80
2, 33660, Note_on_c, 0, 82, 80
2, 33708, Note_on_c, 0, 82, 0
2, 33708, Note_on_c, 0, 77, 0
2, 33720, Note_on_c, 0, 75, 80
2, 33720, Note_on_c, 0, 81, 80
2, 33768, Note_on_c, 0, 81, 0
2, 33768, Note_on_c, 0, 75, 0
2, 33780, Note_on_c, 0, 74, 80
2, 33780, Note_on_c, 0, 79, 80
2, 33828, Note_on_c, 0, 79, 0
2, 33828, Note_on_c, 0, 74, 0
2, 33840, Note_on_c, 0, 72, 80
2, 33840, Note_on_c, 0, 77, 80
2, 33888, Note_on_c, 0, 77, 0
2, 33888, Note_on_c, 0, 72, 0
2, 33900, Note_on_c, 0, 75, 80
2, 33948, Note_on_c, 0, 75, 0
2, 33960, Note_on_c, 0, 74, 80
2, 34008, Note_on_c, 0, 74, 0
2, 34020, Note_on_c, 0, 72, 80
2, 34068, Note_on_c, 0, 72, 0
2, 34080, Note_on_c, 0, 71, 80
2, 34320, Note_on_c, 0, 71, 0
2, 34320, Note_on_c, 0, 72, 80
2, 34416, Note_on_c, 0, 72, 0
2, 34560, Note_on_c, 0, 69, 64
2, 34560, Note_on_c, 0, 65, 64
2, 34800, Note_on_c, 0, 65, 0
2, 34800, Note_on_c, 0, 69, 0
2, 34800, Note_on_c, 0, 65, 64
2, 34800, Note_on_c, 0, 70, 64
2, 34896, Note_on_c, 0, 70, 0
2, 34896, Note_on_c, 0, 65, 0
2, 35520, Note_on_c, 0, 55, 40
2, 35520, Note_on_c, 0, 67, 40
2, 36000, Note_on_c, 0, 67, 0
2, 36000, Note_on_c, 0, 55, 0
2, 36000, Note_on_c, 0, 54, 32
2, 36000, Note_on_c, 0, 66, 32
2, 36480, Note_on_c, 0, 66, 0
2, 36480, Note_on_c, 0, 54, 0
2, 36480, Note_on_c, 0, 53, 80
2, 36480, Note_on_c, 0, 65, 80
2, 36576, Note_on_c, 0, 65, 0
2, 36576, Note_on_c, 0, 53, 0
2, 36600, Note_on_c, 0, 77, 80
2, 36600, Note_on_c, 0, 74, 80
2, 36600, Note_on_c, 0, 70, 80
2, 36600, Note_on_c, 0, 65, 80
2, 36696, Note_on_c, 0, 65, 0
2, 36696, Note_on_c, 0, 77, 0
2, 36696, Note_on_c, 0, 74, 0
2, 36696, Note_on_c, 0, 70, 0
2, 36720, Note_on_c, 0, 82, 80
2, 36720, Note_on_c, 0, 77, 80
2, 36720, Note_on_c, 0, 74, 80
2, 36816, Note_on_c, 0, 74, 0
2, 36816, Note_on_c, 0, 77, 0
2, 36816, Note_on_c, 0, 82, 0
2, 36840, Note_on_c, 0, 86, 80
2, 36840, Note_on_c, 0, 82, 80
2, 36840, Note_on_c, 0, 77, 80
2, 36936, Note_on_c, 0, 77, 0
2, 36936, Note_on_c, 0, 82, 0
2, 36936, Note_on_c, 0, 86, 0
2, 36960, Note_on_c, 0, 89, 80
2, 36960, Note_on_c, 0, 86, 80
2, 36960, Note_on_c, 0, 82, 80
2, 36960, Note_on_c, 0, 77, 80
2, 37056, Note_on_c, 0, 77, 0
2, 37056, Note_on_c, 0, 89, 0
2, 37056, Note_on_c, 0, 86, 0
2, 37056, Note_on_c, 0, 82, 0
2, 37200, Note_on_c, 0, 81, 80
2, 37200, Note_on_c, 0, 77, 80
2, 37200, Note_on_c, 0, 75, 80
2, 37200, Note_on_c, 0, 72, 80
2, 37296, Note_on_c, 0, 72, 0
2, 37296, Note_on_c, 0, 81, 0
2, 37296, Note_on_c, 0, 77, 0
2, 37296, Note_on_c, 0, 75, 0
2, 37440, Note_on_c, 0, 82, 80
2, 37464, Note_on_c, 0, 82, 0
2, 37470, Note_on_c, 0, 86, 80
2, 37494, Note_on_c, 0, 86, 0
2, 37500, Note_on_c, 0, 84, 80
2, 37524, Note_on_c, 0, 84, 0
2, 37530, Note_on_c, 0, 82, 80
2, 37554, Note_on_c, 0, 82, 0
2, 37560, Note_on_c, 0, 81, 80
2, 37584, Note_on_c, 0, 81, 0
2, 37590, Note_on_c, 0, 79, 80
2, 37614, Note_on_c, 0, 79, 0
2, 37620, Note_on_c, 0, 77, 80
2, 37644, Note_on_c, 0, 77, 0
2, 37650, Note_on_c, 0, 76, 80
2, 37674, Note_on_c, 0, 76, 0
2, 37680, Note_on_c, 0, 75, 80
2, 37704, Note_on_c, 0, 75, 0
2, 37710, Note_on_c, 0, 79, 80
2, 37734, Note_on_c, 0, 79, 0
2, 37740, Note_on_c, 0, 77, 80
2, 37764, Note_on_c, 0, 77, 0
2, 37770, Note_on_c, 0, 75, 80
2, 37794, Note_on_c, 0, 75, 0
2, 37800, Note_on_c, 0, 74, 80
2, 37824, Note_on_c, 0, 74, 0
2, 37830, Note_on_c, 0, 72, 80
2, 37854, Note_on_c, 0, 72, 0
2, 37860, Note_on_c, 0, 70, 80
2, 37884, Note_on_c, 0, 70, 0
2, 37890, Note_on_c, 0, 69, 80
2, 37914, Note_on_c, 0, 69, 0
2, 37920, Note_on_c, 0, 70, 80
2, 37944, Note_on_c, 0, 70, 0
2, 37950, Note_on_c, 0, 74, 80
2, 37974, Note_on_c, 0, 74, 0
2, 37980, Note_on_c, 0, 72, 80
2, 38004, Note_on_c, 0, 72, 0
2, 38010, Note_on_c, 0, 70, 80
2, 38034, Note_on_c, 0, 70, 0
2, 38040, Note_on_c, 0, 69, 80
2, 38064, Note_on_c, 0, 69, 0
2, 38070, Note_on_c, 0, 67, 80
2, 38094, Note_on_c, 0, 67, 0
2, 38100, Note_on_c, 0, 65, 80
2, 38124, Note_on_c, 0, 65, 0
2, 38130, Note_on_c, 0, 64, 80
2, 38154, Note_on_c, 0, 64, 0
2, 38160, Note_on_c, 0, 63, 80
2, 38184, Note_on_c, 0, 63, 0
2, 38190, Note_on_c, 0, 67, 80
2, 38214, Note_on_c, 0, 67, 0
2, 38220, Note_on_c, 0, 65, 80
2, 38244, Note_on_c, 0, 65, 0
2, 38250, Note_on_c, 0, 63, 80
2, 38274, Note_on_c, 0, 63, 0
2, 38280, Note_on_c, 0, 62, 80
2, 38304, Note_on_c, 0, 62, 0
2, 38310, Note_on_c, 0, 60, 80
2, 38334, Note_on_c, 0, 60, 0
2, 38340, Note_on_c, 0, 58, 80
2, 38364, Note_on_c, 0, 58, 0
2, 38370, Note_on_c, 0, 57, 80
2, 38394, Note_on_c, 0, 57, 0
2, 38400, Note_on_c, 0, 58, 80
2, 38424, Note_on_c, 0, 58, 0
2, 38430, Note_on_c, 0, 57, 80
2, 38454, Note_on_c, 0, 57, 0
2, 38460, Note_on_c, 0, 58, 80
2, 38484, Note_on_c, 0, 58, 0
2, 38490, Note_on_c, 0, 53, 80
2, 38514, Note_on_c, 0, 53, 0
2, 38520, Note_on_c, 0, 62, 80
2, 38544, Note_on_c, 0, 62, 0
2, 38550, Note_on_c, 0, 61, 80
2, 38574, Note_on_c, 0, 61, 0
2, 38580, Note_on_c, 0, 62, 80
2, 38604, Note_on_c, 0, 62, 0
2, 38610, Note_on_c, 0, 58, 80
2, 38634, Note_on_c, 0, 58, 0
2, 38640, Note_on_c, 0, 65, 80
2, 38664, Note_on_c, 0, 65, 0
2, 38670, Note_on_c, 0, 64, 80
2, 38694, Note_on_c, 0, 64, 0
2, 38700, Note_on_c, 0, 65, 80
2, 38724, Note_on_c, 0, 65, 0
2, 38730, Note_on_c, 0, 62, 80
2, 38754, Note_on_c, 0, 62, 0
2, 38760, Note_on_c, 0, 70, 80
2, 38784, Note_on_c, 0, 70, 0
2, 38790, Note_on_c, 0, 69, 80
2, 38814, Note_on_c, 0, 69, 0
2, 38820, Note_on_c, 0, 70, 80
2, 38844, Note_on_c, 0, 70, 0
2, 38850, Note_on_c, 0, 65, 80
2, 38874, Note_on_c, 0, 65, 0
2, 38880, Note_on_c, 0, 74, 80
2, 38904, Note_on_c, 0, 74, 0
2, 38910, Note_on_c, 0, 73, 80
2, 38934, Note_on_c, 0, 73, 0
2, 38940, Note_on_c, 0, 74, 80
2, 38964, Note_on_c, 0, 74, 0
2, 38970, Note_on_c, 0, 70, 80
2, 38994, Note_on_c, 0, 70, 0
2, 39000, Note_on_c, 0, 77, 80
2, 39024, Note_on_c, 0, 77, 0
2, 39030, Note_on_c, 0, 76, 80
2, 39054, Note_on_c, 0, 76, 0
2, 39060, Note_on_c, 0, 77, 80
2, 39084, Note_on_c, 0, 77, 0
2, 39090, Note_on_c, 0, 74, 80
2, 39114, Note_on_c, 0, 74, 0
2, 39120, Note_on_c, 0, 82, 80
2, 39144, Note_on_c, 0, 82, 0
2, 39150, Note_on_c, 0, 81, 80
2, 39174, Note_on_c, 0, 81, 0
2, 39180, Note_on_c, 0, 82, 80
2, 39204, Note_on_c, 0, 82, 0
2, 39210, Note_on_c, 0, 77, 80
2, 39234, Note_on_c, 0, 77, 0
2, 39240, Note_on_c, 0, 84, 80
2, 39264, Note_on_c, 0, 84, 0
2, 39270, Note_on_c, 0, 83, 80
2, 39294, Note_on_c, 0, 83, 0
2, 39300, Note_on_c, 0, 84, 80
2, 39324, Note_on_c, 0, 84, 0
2, 39330, Note_on_c, 0, 77, 80
2, 39354, Note_on_c, 0, 77, 0
2, 39360, Note_on_c, 0, 82, 80
2, 39384, Note_on_c, 0, 82, 0
2, 39390, Note_on_c, 0, 81, 79
2, 39414, Note_on_c, 0, 81, 0
2, 39420, Note_on_c, 0, 82, 77
2, 39444, Note_on_c, 0, 82, 0
2, 39450, Note_on_c, 0, 77, 76
2, 39474, Note_on_c, 0, 77, 0
2, 39480, Note_on_c, 0, 84, 75
2, 39504, Note_on_c, 0, 84, 0
2, 39510, Note_on_c, 0, 82, 74
2, 39534, Note_on_c, 0, 82, 0
2, 39540, Note_on_c, 0, 84, 72
2, 39564, Note_on_c, 0, 84, 0
2, 39570, Note_on_c, 0, 77, 71
2, 39594, Note_on_c, 0, 77, 0
2, 39600, Note_on_c, 0, 82, 70
2, 39624, Note_on_c, 0, 82, 0
2, 39630, Note_on_c, 0, 81, 69
2, 39654, Note_on_c, 0, 81, 0
2, 39660, Note_on_c, 0, 82, 67
2, 39684, Note_on_c, 0, 82, 0
2, 39690, Note_on_c, 0, 77, 66
2, 39714, Note_on_c, 0, 77, 0
2, 39720, Note_on_c, 0, 84, 65
2, 39744, Note_on_c, 0, 84, 0
2, 39750, Note_on_c, 0, 82, 64
2, 39774, Note_on_c, 0, 82, 0
2, 39780, Note_on_c, 0, 84, 62
2, 39804, Note_on_c, 0, 84, 0
2, 39810, Note_on_c, 0, 77, 61
2, 39834, Note_on_c, 0, 77, 0
2, 39840, Note_on_c, 0, 82, 60
2, 39936, Note_on_c, 0, 82, 0
2, 39960, Note_on_c, 0, 82, 55
2, 39960, Note_on_c, 0, 86, 55
2, 39996, Note_on_c, 0, 86, 0
2, 39996, Note_on_c, 0, 82, 0
2, 40080, Note_on_c, 0, 86, 50
2, 40080, Note_on_c, 0, 89, 50
2, 40116, Note_on_c, 0, 89, 0
2, 40116, Note_on_c, 0, 86, 0
2, 40200, Note_on_c, 0, 82, 45
2, 40200, Note_on_c, 0, 86, 45
2, 40236, Note_on_c, 0, 86, 0
2, 40236, Note_on_c, 0, 82, 0
2, 40320, Note_on_c, 0, 86, 40
2, 40320, Note_on_c, 0, 89, 40
2, 40368, Note_on_c, 0, 89, 0
2, 40368, Note_on_c, 0, 86, 0
2, 40560, Note_on_c, 0, 82, 38
2, 40560, Note_on_c, 0, 86, 38
2, 40632, Note_on_c, 0, 86, 0
2, 40632, Note_on_c, 0, 82, 0
2, 40800, Note_on_c, 0, 82, 36
2, 40800, Note_on_c, 0, 77, 36
2, 40896, Note_on_c, 0, 77, 0
2, 40896, Note_on_c, 0, 82, 0
2, 41280, Note_on_c, 0, 62, 40
2, 41280, Note_on_c, 0, 65, 40
2, 41760, Note_on_c, 0, 65, 0
2, 41760, Note_on_c, 0, 62, 0
2, 41760, Note_on_c, 0, 60, 40
2, 41760, Note_on_c, 0, 66, 40
2, 42240, Note_on_c, 0, 66, 0
2, 42240, Note_on_c, 0, 60, 0
2, 42240, Note_on_c, 0, 59, 40
2, 42240, Note_on_c, 0, 67, 40
2, 43008, Note_on_c, 0, 67, 0
2, 43008, Note_on_c, 0, 59, 0
2, 43380, Note_on_c, 0, 79, 64
2, 43428, Note_on_c, 0, 79, 0
2, 43440, Note_on_c, 0, 76, 64
2, 43470, Note_on_c, 0, 76, 0
2, 43530, Note_on_c, 0, 79, 64
2, 43554, Note_on_c, 0, 79, 0
2, 43560, Note_on_c, 0, 74, 64
2, 43590, Note_on_c, 0, 74, 0
2, 43650, Note_on_c, 0, 79, 64
2, 43674, Note_on_c, 0, 79, 0
2, 43680, Note_on_c, 0, 72, 64
2, 43710, Note_on_c, 0, 72, 0
2, 43770, Note_on_c, 0, 79, 64
2, 43794, Note_on_c, 0, 79, 0
2, 43800, Note_on_c, 0, 67, 64
2, 43830, Note_on_c, 0, 67, 0
2, 43890, Note_on_c, 0, 79, 48
2, 43914, Note_on_c, 0, 79, 0
2, 43920, Note_on_c, 0, 76, 48
2, 43968, Note_on_c, 0, 76, 0
2, 44010, Note_on_c, 0, 79, 48
2, 44034, Note_on_c, 0, 79, 0
2, 44040, Note_on_c, 0, 74, 48
2, 44088, Note_on_c, 0, 74, 0
2, 44130, Note_on_c, 0, 79, 48
2, 44154, Note_on_c, 0, 79, 0
2, 44160, Note_on_c, 0, 72, 48
2, 44208, Note_on_c, 0, 72, 0
2, 44250, Note_on_c, 0, 79, 48
2, 44274, Note_on_c, 0, 79, 0
2, 44280, Note_on_c, 0, 67, 48
2, 44328, Note_on_c, 0, 67, 0
2, 44370, Note_on_c, 0, 84, 68
2, 44394, Note_on_c, 0, 84, 0
2, 44400, Note_on_c, 0, 79, 68
2, 44448, Note_on_c, 0, 79, 0
2, 44490, Note_on_c, 0, 84, 70
2, 44514, Note_on_c, 0, 84, 0
2, 44520, Note_on_c, 0, 81, 70
2, 44568, Note_on_c, 0, 81, 0
2, 44610, Note_on_c, 0, 84, 72
2, 44634, Note_on_c, 0, 84, 0
2, 44640, Note_on_c, 0, 82, 72
2, 44688, Note_on_c, 0, 82, 0
2, 44730, Note_on_c, 0, 84, 74
2, 44754, Note_on_c, 0, 84, 0
2, 44760, Note_on_c, 0, 81, 74
2, 44808, Note_on_c, 0, 81, 0
2, 44850, Note_on_c, 0, 84, 76
2, 44874, Note_on_c, 0, 84, 0
2, 44880, Note_on_c, 0, 79, 76
2, 44928, Note_on_c, 0, 79, 0
2, 44970, Note_on_c, 0, 84, 78
2, 44994, Note_on_c, 0, 84, 0
2, 45000, Note_on_c, 0, 76, 78
2, 45048, Note_on_c, 0, 76, 0
2, 45090, Note_on_c, 0, 84, 80
2, 45114, Note_on_c, 0, 84, 0
2, 45120, Note_on_c, 0, 77, 80
2, 45144, Note_on_c, 0, 77, 0
2, 45150, Note_on_c, 0, 84, 79
2, 45174, Note_on_c, 0, 84, 0
2, 45180, Note_on_c, 0, 86, 79
2, 45204, Note_on_c, 0, 86, 0
2, 45210, Note_on_c, 0, 84, 78
2, 45234, Note_on_c, 0, 84, 0
2, 45240, Note_on_c, 0, 82, 78
2, 45264, Note_on_c, 0, 82, 0
2, 45270, Note_on_c, 0, 81, 77
2, 45294, Note_on_c, 0, 81, 0
2, 45300, Note_on_c, 0, 79, 77
2, 45324, Note_on_c, 0, 79, 0
2, 45330, Note_on_c, 0, 77, 76
2, 45354, Note_on_c, 0, 77, 0
2, 45360, Note_on_c, 0, 76, 76
2, 45384, Note_on_c, 0, 76, 0
2, 45390, Note_on_c, 0, 79, 75
2, 45414, Note_on_c, 0, 79, 0
2, 45420, Note_on_c, 0, 82, 75
2, 45444, Note_on_c, 0, 82, 0
2, 45450, Note_on_c, 0, 86, 74
2, 45474, Note_on_c, 0, 86, 0
2, 45480, Note_on_c, 0, 84, 74
2, 45504, Note_on_c, 0, 84, 0
2, 45510, Note_on_c, 0, 82, 73
2, 45534, Note_on_c, 0, 82, 0
2, 45540, Note_on_c, 0, 81, 73
2, 45564, Note_on_c, 0, 81, 0
2, 45570, Note_on_c, 0, 79, 72
2, 45594, Note_on_c, 0, 79, 0
2, 45600, Note_on_c, 0, 77, 72
2, 45624, Note_on_c, 0, 77, 0
2, 45630, Note_on_c, 0, 76, 71
2, 45654, Note_on_c, 0, 76, 0
2, 45660, Note_on_c, 0, 77, 71
2, 45684, Note_on_c, 0, 77, 0
2, 45690, Note_on_c, 0, 79, 70
2, 45714, Note_on_c, 0, 79, 0
2, 45720, Note_on_c, 0, 81, 70
2, 45744, Note_on_c, 0, 81, 0
2, 45750, Note_on_c, 0, 77, 69
2, 45774, Note_on_c, 0, 77, 0
2, 45780, Note_on_c, 0, 76, 69
2, 45804, Note_on_c, 0, 76, 0
2, 45810, Note_on_c, 0, 74, 68
2, 45834, Note_on_c, 0, 74, 0
2, 45840, Note_on_c, 0, 73, 68
2, 45864, Note_on_c, 0, 73, 0
2, 45870, Note_on_c, 0, 76, 67
2, 45894, Note_on_c, 0, 76, 0
2, 45900, Note_on_c, 0, 79, 67
2, 45924, Note_on_c, 0, 79, 0
2, 45930, Note_on_c, 0, 82, 66
2, 45954, Note_on_c, 0, 82, 0
2, 45960, Note_on_c, 0, 81, 66
2, 45984, Note_on_c, 0, 81, 0
2, 45990, Note_on_c, 0, 79, 65
2, 46014, Note_on_c, 0, 79, 0
2, 46020, Note_on_c, 0, 77, 65
2, 46044, Note_on_c, 0, 77, 0
2, 46050, Note_on_c, 0, 76, 64
2, 46074, Note_on_c, 0, 76, 0
2, 46080, Note_on_c, 0, 74, 64
2, 46104, Note_on_c, 0, 74, 0
2, 46110, Note_on_c, 0, 75, 63
2, 46134, Note_on_c, 0, 75, 0
2, 46140, Note_on_c, 0, 77, 63
2, 46164, Note_on_c, 0, 77, 0
2, 46170, Note_on_c, 0, 79, 62
2, 46194, Note_on_c, 0, 79, 0
2, 46200, Note_on_c, 0, 77, 62
2, 46224, Note_on_c, 0, 77, 0
2, 46230, Note_on_c, 0, 74, 61
2, 46254, Note_on_c, 0, 74, 0
2, 46260, Note_on_c, 0, 72, 61
2, 46284, Note_on_c, 0, 72, 0
2, 46290, Note_on_c, 0, 70, 60
2, 46314, Note_on_c, 0, 70, 0
2, 46320, Note_on_c, 0, 69, 60
2, 46344, Note_on_c, 0, 69, 0
2, 46350, Note_on_c, 0, 72, 59
2, 46374, Note_on_c, 0, 72, 0
2, 46380, Note_on_c, 0, 75, 59
2, 46404, Note_on_c, 0, 75, 0
2, 46410, Note_on_c, 0, 79, 58
2, 46434, Note_on_c, 0, 79, 0
2, 46440, Note_on_c, 0, 77, 58
2, 46464, Note_on_c, 0, 77, 0
2, 46470, Note_on_c, 0, 75, 57
2, 46494, Note_on_c, 0, 75, 0
2, 46500, Note_on_c, 0, 74, 57
2, 46524, Note_on_c, 0, 74, 0
2, 46530, Note_on_c, 0, 72, 56
2, 46554, Note_on_c, 0, 72, 0
2, 46560, Note_on_c, 0, 70, 56
2, 46584, Note_on_c, 0, 70, 0
2, 46590, Note_on_c, 0, 69, 55
2, 46614, Note_on_c, 0, 69, 0
2, 46620, Note_on_c, 0, 70, 55
2, 46644, Note_on_c, 0, 70, 0
2, 46650, Note_on_c, 0, 72, 54
2, 46674, Note_on_c, 0, 72, 0
2, 46680, Note_on_c, 0, 74, 54
2, 46704, Note_on_c, 0, 74, 0
2, 46710, Note_on_c, 0, 70, 53
2, 46734, Note_on_c, 0, 70, 0
2, 46740, Note_on_c, 0, 69, 53
2, 46764, Note_on_c, 0, 69, 0
2, 46770, Note_on_c, 0, 67, 52
2, 46794, Note_on_c, 0, 67, 0
2, 46800, Note_on_c, 0, 66, 52
2, 46824, Note_on_c, 0, 66, 0
2, 46830, Note_on_c, 0, 69, 51
2, 46854, Note_on_c, 0, 69, 0
2, 46860, Note_on_c, 0, 72, 51
2, 46884, Note_on_c, 0, 72, 0
2, 46890, Note_on_c, 0, 75, 50
2, 46914, Note_on_c, 0, 75, 0
2, 46920, Note_on_c, 0, 74, 50
2, 46944, Note_on_c, 0, 74, 0
2, 46950, Note_on_c, 0, 72, 49
2, 46974, Note_on_c, 0, 72, 0
2, 46980, Note_on_c, 0, 70, 49
2, 47004, Note_on_c, 0, 70, 0
2, 47010, Note_on_c, 0, 69, 48
2, 47034, Note_on_c, 0, 69, 0
2, 47040, Note_on_c, 0, 67, 48
2, 47100, Note_on_c, 0, 67, 0
2, 47160, Note_on_c, 0, 70, 90
2, 47160, Note_on_c, 0, 82, 90
2, 47400, Note_on_c, 0, 82, 0
2, 47400, Note_on_c, 0, 70, 0
2, 47400, Note_on_c, 0, 69, 80
2, 47400, Note_on_c, 0, 81, 80
2, 47520, Note_on_c, 0, 81, 0
2, 47520, Note_on_c, 0, 69, 0
2, 47520, Note_on_c, 0, 67, 80
2, 47520, Note_on_c, 0, 79, 80
2, 47556, Note_on_c, 0, 79, 0
2, 47556, Note_on_c, 0, 67, 0
2, 47640, Note_on_c, 0, 63, 80
2, 47640, Note_on_c, 0, 75, 80
2, 47676, Note_on_c, 0, 75, 0
2, 47676, Note_on_c, 0, 63, 0
2, 47760, Note_on_c, 0, 62, 80
2, 47760, Note_on_c, 0, 74, 80
2, 47796, Note_on_c, 0, 74, 0
2, 47796, Note_on_c, 0, 62, 0
2, 47880, Note_on_c, 0, 61, 80
2, 47880, Note_on_c, 0, 73, 80
2, 48000, Note_on_c, 0, 73, 0
2, 48000, Note_on_c, 0, 61, 0
2, 48000, Note_on_c, 0, 74, 80
2, 48048, Note_on_c, 0, 74, 0
2, 48060, Note_on_c, 0, 86, 80
2, 48084, Note_on_c, 0, 86, 0
2, 48120, Note_on_c, 0, 85, 80
2, 48144, Note_on_c, 0, 85, 0
2, 48180, Note_on_c, 0, 87, 80
2, 48204, Note_on_c, 0, 87, 0
2, 48240, Note_on_c, 0, 86, 80
2, 48288, Note_on_c, 0, 86, 0
2, 48300, Note_on_c, 0, 82, 80
2, 48324, Note_on_c, 0, 82, 0
2, 48360, Note_on_c, 0, 81, 80
2, 48384, Note_on_c, 0, 81, 0
2, 48420, Note_on_c, 0, 84, 80
2, 48444, Note_on_c, 0, 84, 0
2, 48480, Note_on_c, 0, 82, 80
2, 48528, Note_on_c, 0, 82, 0
2, 48540, Note_on_c, 0, 79, 80
2, 48564, Note_on_c, 0, 79, 0
2, 48600, Note_on_c, 0, 78, 80
2, 48624, Note_on_c, 0, 78, 0
2, 48660, Note_on_c, 0, 81, 80
2, 48684, Note_on_c, 0, 81, 0
2, 48720, Note_on_c, 0, 79, 80
2, 48768, Note_on_c, 0, 79, 0
2, 48780, Note_on_c, 0, 75, 80
2, 48828, Note_on_c, 0, 75, 0
2, 48840, Note_on_c, 0, 74, 80
2, 48888, Note_on_c, 0, 74, 0
2, 48900, Note_on_c, 0, 73, 80
2, 48948, Note_on_c, 0, 73, 0
2, 48960, Note_on_c, 0, 74, 48
2, 49008, Note_on_c, 0, 74, 0
2, 49020, Note_on_c, 0, 86, 48
2, 49044, Note_on_c, 0, 86, 0
2, 49080, Note_on_c, 0, 85, 48
2, 49104, Note_on_c, 0, 85, 0
2, 49140, Note_on_c, 0, 87, 48
2, 49164, Note_on_c, 0, 87, 0
2, 49200, Note_on_c, 0, 86, 48
2, 49248, Note_on_c, 0, 86, 0
2, 49260, Note_on_c, 0, 82, 48
2, 49284, Note_on_c, 0, 82, 0
2, 49320, Note_on_c, 0, 81, 48
2, 49344, Note_on_c, 0, 81, 0
2, 49380, Note_on_c, 0, 84, 48
2, 49404, Note_on_c, 0, 84, 0
2, 49440, Note_on_c, 0, 82, 50
2, 49488, Note_on_c, 0, 82, 0
2, 49500, Note_on_c, 0, 79, 57
2, 49524, Note_on_c, 0, 79, 0
2, 49560, Note_on_c, 0, 78, 64
2, 49584, Note_on_c, 0, 78, 0
2, 49620, Note_on_c, 0, 81, 70
2, 49644, Note_on_c, 0, 81, 0
2, 49680, Note_on_c, 0, 79, 77
2, 49728, Note_on_c, 0, 79, 0
2, 49740, Note_on_c, 0, 87, 48
2, 49764, Note_on_c, 0, 87, 0
2, 49800, Note_on_c, 0, 86, 48
2, 49824, Note_on_c, 0, 86, 0
2, 49860, Note_on_c, 0, 84, 48
2, 49884, Note_on_c, 0, 84, 0
2, 49920, Note_on_c, 0, 82, 48
2, 49968, Note_on_c, 0, 82, 0
2, 49980, Note_on_c, 0, 79, 55
2, 50028, Note_on_c, 0, 79, 0
2, 50040, Note_on_c, 0, 78, 63
2, 50088, Note_on_c, 0, 78, 0
2, 50100, Note_on_c, 0, 81, 70
2, 50148, Note_on_c, 0, 81, 0
2, 50160, Note_on_c, 0, 79, 77
2, 50208, Note_on_c, 0, 79, 0
2, 50220, Note_on_c, 0, 87, 48
2, 50244, Note_on_c, 0, 87, 0
2, 50280, Note_on_c, 0, 86, 48
2, 50304, Note_on_c, 0, 86, 0
2, 50340, Note_on_c, 0, 84, 48
2, 50364, Note_on_c, 0, 84, 0
2, 50400, Note_on_c, 0, 82, 48
2, 50448, Note_on_c, 0, 82, 0
2, 50460, Note_on_c, 0, 79, 48
2, 50508, Note_on_c, 0, 79, 0
2, 50520, Note_on_c, 0, 78, 48
2, 50568, Note_on_c, 0, 78, 0
2, 50580, Note_on_c, 0, 81, 48
2, 50628, Note_on_c, 0, 81, 0
2, 50640, Note_on_c, 0, 79, 48
2, 50688, Note_on_c, 0, 79, 0
2, 50700, Note_on_c, 0, 82, 48
2, 50724, Note_on_c, 0, 82, 0
2, 50760, Note_on_c, 0, 76, 48
2, 50784, Note_on_c, 0, 76, 0
2, 50820, Note_on_c, 0, 79, 48
2, 50844, Note_on_c, 0, 79, 0
2, 50880, Note_on_c, 0, 77, 48
2, 50928, Note_on_c, 0, 77, 0
2, 50940, Note_on_c, 0, 80, 48
2, 50952, Note_on_c, 0, 80, 0
2, 51000, Note_on_c, 0, 74, 48
2, 51012, Note_on_c, 0, 74, 0
2, 51060, Note_on_c, 0, 77, 48
2, 51072, Note_on_c, 0, 77, 0
2, 51120, Note_on_c, 0, 75, 48
2, 51168, Note_on_c, 0, 75, 0
2, 51180, Note_on_c, 0, 79, 48
2, 51192, Note_on_c, 0, 79, 0
2, 51240, Note_on_c, 0, 72, 48
2, 51252, Note_on_c, 0, 72, 0
2, 51300, Note_on_c, 0, 75, 48
2, 51312, Note_on_c, 0, 75, 0
2, 51360, Note_on_c, 0, 74, 51
2, 51408, Note_on_c, 0, 74, 0
2, 51420, Note_on_c, 0, 77, 60
2, 51444, Note_on_c, 0, 77, 0
2, 51480, Note_on_c, 0, 71, 68
2, 51504, Note_on_c, 0, 71, 0
2, 51540, Note_on_c, 0, 74, 77
2, 51564, Note_on_c, 0, 74, 0
2, 51600, Note_on_c, 0, 72, 86
2, 51648, Note_on_c, 0, 72, 0
2, 51660, Note_on_c, 0, 80, 48
2, 51684, Note_on_c, 0, 80, 0
2, 51720, Note_on_c, 0, 79, 48
2, 51744, Note_on_c, 0, 79, 0
2, 51780, Note_on_c, 0, 77, 48
2, 51804, Note_on_c, 0, 77, 0
2, 51840, Note_on_c, 0, 75, 48
2, 51888, Note_on_c, 0, 75, 0
2, 51900, Note_on_c, 0, 72, 58
2, 51948, Note_on_c, 0, 72, 0
2, 51960, Note_on_c, 0, 71, 67
2, 52008, Note_on_c, 0, 71, 0
2, 52020, Note_on_c, 0, 74, 77
2, 52068, Note_on_c, 0, 74, 0
2, 52080, Note_on_c, 0, 72, 86
2, 52128, Note_on_c, 0, 72, 0
2, 52140, Note_on_c, 0, 80, 48
2, 52164, Note_on_c, 0, 80, 0
2, 52200, Note_on_c, 0, 79, 48
2, 52224, Note_on_c, 0, 79, 0
2, 52260, Note_on_c, 0, 77, 48
2, 52284, Note_on_c, 0, 77, 0
2, 52320, Note_on_c, 0, 75, 48
2, 52368, Note_on_c, 0, 75, 0
2, 52380, Note_on_c, 0, 72, 48
2, 52428, Note_on_c, 0, 72, 0
2, 52440, Note_on_c, 0, 71, 48
2, 52488, Note_on_c, 0, 71, 0
2, 52500, Note_on_c, 0, 74, 48
2, 52548, Note_on_c, 0, 74, 0
2, 52560, Note_on_c, 0, 72, 48
2, 52608, Note_on_c, 0, 72, 0
2, 52620, Note_on_c, 0, 79, 48
2, 52644, Note_on_c, 0, 79, 0
2, 52680, Note_on_c, 0, 71, 48
2, 52704, Note_on_c, 0, 71, 0
2, 52740, Note_on_c, 0, 74, 48
2, 52764, Note_on_c, 0, 74, 0
2, 52800, Note_on_c, 0, 72, 48
2, 52848, Note_on_c, 0, 72, 0
2, 52860, Note_on_c, 0, 79, 50
2, 52872, Note_on_c, 0, 79, 0
2, 52920, Note_on_c, 0, 71, 52
2, 52932, Note_on_c, 0, 71, 0
2, 52980, Note_on_c, 0, 74, 54
2, 52992, Note_on_c, 0, 74, 0
2, 53040, Note_on_c, 0, 72, 56
2, 53088, Note_on_c, 0, 72, 0
2, 53100, Note_on_c, 0, 79, 58
2, 53112, Note_on_c, 0, 79, 0
2, 53160, Note_on_c, 0, 71, 60
2, 53172, Note_on_c, 0, 71, 0
2, 53220, Note_on_c, 0, 74, 62
2, 53232, Note_on_c, 0, 74, 0
2, 53280, Note_on_c, 0, 72, 64
2, 53328, Note_on_c, 0, 72, 0
2, 53340, Note_on_c, 0, 79, 66
2, 53388, Note_on_c, 0, 79, 0
2, 53400, Note_on_c, 0, 72, 68
2, 53448, Note_on_c, 0, 72, 0
2, 53460, Note_on_c, 0, 79, 70
2, 53508, Note_on_c, 0, 79, 0
2, 53520, Note_on_c, 0, 72, 72
2, 53568, Note_on_c, 0, 72, 0
2, 53580, Note_on_c, 0, 79, 74
2, 53628, Note_on_c, 0, 79, 0
2, 53640, Note_on_c, 0, 72, 76
2, 53688, Note_on_c, 0, 72, 0
2, 53700, Note_on_c, 0, 79, 78
2, 53748, Note_on_c, 0, 79, 0
2, 53760, Note_on_c, 0, 72, 48
2, 53808, Note_on_c, 0, 72, 0
2, 53820, Note_on_c, 0, 84, 52
2, 53820, Note_on_c, 0, 79, 52
2, 53844, Note_on_c, 0, 79, 0
2, 53844, Note_on_c, 0, 84, 0
2, 53880, Note_on_c, 0, 72, 57
2, 53904, Note_on_c, 0, 72, 0
2, 53940, Note_on_c, 0, 84, 61
2, 53940, Note_on_c, 0, 79, 61
2, 53964, Note_on_c, 0, 79, 0
2, 53964, Note_on_c, 0, 84, 0
2, 54000, Note_on_c, 0, 72, 65
2, 54024, Note_on_c, 0, 72, 0
2, 54060, Note_on_c, 0, 84, 70
2, 54060, Note_on_c, 0, 79, 70
2, 54084, Note_on_c, 0, 79, 0
2, 54084, Note_on_c, 0, 84, 0
2, 54120, Note_on_c, 0, 72, 74
2, 54144, Note_on_c, 0, 72, 0
2, 54180, Note_on_c, 0, 84, 78
2, 54180, Note_on_c, 0, 79, 78
2, 54204, Note_on_c, 0, 79, 0
2, 54204, Note_on_c, 0, 84, 0
2, 54240, Note_on_c, 0, 84, 48
2, 54240, Note_on_c, 0, 79, 49
2, 54420, Note_on_c, 0, 79, 0
2, 54420, Note_on_c, 0, 80, 62
2, 54450, Note_on_c, 0, 80, 0
2, 54450, Note_on_c, 0, 79, 64
2, 54480, Note_on_c, 0, 79, 0
2, 54480, Note_on_c, 0, 77, 66
2, 54600, Note_on_c, 0, 77, 0
2, 54600, Note_on_c, 0, 77, 74
2, 54720, Note_on_c, 0, 77, 0
2, 54720, Note_on_c, 0, 84, 0
2, 54720, Note_on_c, 0, 85, 48
2, 54720, Note_on_c, 0, 77, 48
2, 54900, Note_on_c, 0, 77, 0
2, 54900, Note_on_c, 0, 79, 61
2, 54930, Note_on_c, 0, 79, 0
2, 54930, Note_on_c, 0, 77, 63
2, 54960, Note_on_c, 0, 77, 0
2, 54960, Note_on_c, 0, 76, 65
2, 55080, Note_on_c, 0, 76, 0
2, 55080, Note_on_c, 0, 85, 0
2, 55080, Note_on_c, 0, 82, 73
2, 55080, Note_on_c, 0, 76, 73
2, 55140, Note_on_c, 0, 82, 0
2, 55140, Note_on_c, 0, 79, 77
2, 55200, Note_on_c, 0, 79, 0
2, 55200, Note_on_c, 0, 76, 0
2, 55200, Note_on_c, 0, 80, 48
2, 55260, Note_on_c, 0, 80, 0
2, 55260, Note_on_c, 0, 72, 48
2, 55320, Note_on_c, 0, 72, 0
2, 55320, Note_on_c, 0, 80, 48
2, 55380, Note_on_c, 0, 80, 0
2, 55380, Note_on_c, 0, 72, 48
2, 55440, Note_on_c, 0, 72, 0
2, 55440, Note_on_c, 0, 80, 48
2, 55500, Note_on_c, 0, 80, 0
2, 55500, Note_on_c, 0, 73, 48
2, 55560, Note_on_c, 0, 73, 0
2, 55560, Note_on_c, 0, 80, 48
2, 55620, Note_on_c, 0, 80, 0
2, 55620, Note_on_c, 0, 73, 48
2, 55680, Note_on_c, 0, 73, 0
2, 55680, Note_on_c, 0, 79, 48
2, 55740, Note_on_c, 0, 79, 0
2, 55740, Note_on_c, 0, 73, 48
2, 55800, Note_on_c, 0, 73, 0
2, 55800, Note_on_c, 0, 79, 48
2, 55860, Note_on_c, 0, 79, 0
2, 55860, Note_on_c, 0, 73, 48
2, 55920, Note_on_c, 0, 73, 0
2, 55920, Note_on_c, 0, 79, 48
2, 55980, Note_on_c, 0, 79, 0
2, 55980, Note_on_c, 0, 72, 48
2, 56040, Note_on_c, 0, 72, 0
2, 56040, Note_on_c, 0, 79, 48
2, 56100, Note_on_c, 0, 79, 0
2, 56100, Note_on_c, 0, 72, 48
2, 56160, Note_on_c, 0, 72, 0
2, 56160, Note_on_c, 0, 77, 48
2, 56220, Note_on_c, 0, 77, 0
2, 56220, Note_on_c, 0, 72, 48
2, 56280, Note_on_c, 0, 72, 0
2, 56280, Note_on_c, 0, 77, 48
2, 56340, Note_on_c, 0, 77, 0
2, 56340, Note_on_c, 0, 72, 48
2, 56400, Note_on_c, 0, 72, 0
2, 56400, Note_on_c, 0, 77, 48
2, 56460, Note_on_c, 0, 77, 0
2, 56460, Note_on_c, 0, 70, 48
2, 56520, Note_on_c, 0, 70, 0
2, 56520, Note_on_c, 0, 77, 48
2, 56580, Note_on_c, 0, 77, 0
2, 56580, Note_on_c, 0, 70, 48
2, 56640, Note_on_c, 0, 70, 0
2, 56640, Note_on_c, 0, 75, 48
2, 56688, Note_on_c, 0, 75, 0
2, 56700, Note_on_c, 0, 70, 50
2, 56748, Note_on_c, 0, 70, 0
2, 56760, Note_on_c, 0, 75, 52
2, 56808, Note_on_c, 0, 75, 0
2, 56820, Note_on_c, 0, 70, 54
2, 56868, Note_on_c, 0, 70, 0
2, 56880, Note_on_c, 0, 75, 56
2, 56928, Note_on_c, 0, 75, 0
2, 56940, Note_on_c, 0, 68, 58
2, 56988, Note_on_c, 0, 68, 0
2, 57000, Note_on_c, 0, 75, 60
2, 57048, Note_on_c, 0, 75, 0
2, 57060, Note_on_c, 0, 68, 62
2, 57108, Note_on_c, 0, 68, 0
2, 57120, Note_on_c, 0, 73, 64
2, 57168, Note_on_c, 0, 73, 0
2, 57180, Note_on_c, 0, 68, 66
2, 57228, Note_on_c, 0, 68, 0
2, 57240, Note_on_c, 0, 73, 68
2, 57288, Note_on_c, 0, 73, 0
2, 57300, Note_on_c, 0, 68, 70
2, 57348, Note_on_c, 0, 68, 0
2, 57360, Note_on_c, 0, 73, 72
2, 57408, Note_on_c, 0, 73, 0
2, 57420, Note_on_c, 0, 67, 74
2, 57468, Note_on_c, 0, 67, 0
2, 57480, Note_on_c, 0, 73, 76
2, 57528, Note_on_c, 0, 73, 0
2, 57540, Note_on_c, 0, 67, 78
2, 57588, Note_on_c, 0, 67, 0
2, 57600, Note_on_c, 0, 72, 80
2, 57624, Note_on_c, 0, 72, 0
2, 57630, Note_on_c, 0, 75, 80
2, 57654, Note_on_c, 0, 75, 0
2, 57660, Note_on_c, 0, 77, 80
2, 57684, Note_on_c, 0, 77, 0
2, 57690, Note_on_c, 0, 75, 80
2, 57714, Note_on_c, 0, 75, 0
2, 57720, Note_on_c, 0, 73, 80
2, 57744, Note_on_c, 0, 73, 0
2, 57750, Note_on_c, 0, 72, 80
2, 57774, Note_on_c, 0, 72, 0
2, 57780, Note_on_c, 0, 70, 80
2, 57804, Note_on_c, 0, 70, 0
2, 57810, Note_on_c, 0, 68, 80
2, 57834, Note_on_c, 0, 68, 0
2, 57840, Note_on_c, 0, 67, 80
2, 57864, Note_on_c, 0, 67, 0
2, 57870, Note_on_c, 0, 77, 80
2, 57894, Note_on_c, 0, 77, 0
2, 57900, Note_on_c, 0, 75, 80
2, 57924, Note_on_c, 0, 75, 0
2, 57930, Note_on_c, 0, 73, 80
2, 57954, Note_on_c, 0, 73, 0
2, 57960, Note_on_c, 0, 72, 80
2, 57984, Note_on_c, 0, 72, 0
2, 57990, Note_on_c, 0, 70, 80
2, 58014, Note_on_c, 0, 70, 0
2, 58020, Note_on_c, 0, 68, 80
2, 58044, Note_on_c, 0, 68, 0
2, 58050, Note_on_c, 0, 67, 80
2, 58074, Note_on_c, 0, 67, 0
2, 58080, Note_on_c, 0, 68, 80
2, 58104, Note_on_c, 0, 68, 0
2, 58110, Note_on_c, 0, 70, 80
2, 58134, Note_on_c, 0, 70, 0
2, 58140, Note_on_c, 0, 72, 80
2, 58164, Note_on_c, 0, 72, 0
2, 58170, Note_on_c, 0, 73, 80
2, 58194, Note_on_c, 0, 73, 0
2, 58200, Note_on_c, 0, 75, 80
2, 58224, Note_on_c, 0, 75, 0
2, 58230, Note_on_c, 0, 77, 80
2, 58254, Note_on_c, 0, 77, 0
2, 58260, Note_on_c, 0, 79, 80
2, 58284, Note_on_c, 0, 79, 0
2, 58290, Note_on_c, 0, 80, 80
2, 58314, Note_on_c, 0, 80, 0
2, 58320, Note_on_c, 0, 82, 80
2, 58344, Note_on_c, 0, 82, 0
2, 58350, Note_on_c, 0, 84, 80
2, 58374, Note_on_c, 0, 84, 0
2, 58380, Note_on_c, 0, 82, 80
2, 58404, Note_on_c, 0, 82, 0
2, 58410, Note_on_c, 0, 80, 80
2, 58434, Note_on_c, 0, 80, 0
2, 58440, Note_on_c, 0, 79, 80
2, 58464, Note_on_c, 0, 79, 0
2, 58470, Note_on_c, 0, 77, 80
2, 58494, Note_on_c, 0, 77, 0
2, 58500, Note_on_c, 0, 75, 80
2, 58524, Note_on_c, 0, 75, 0
2, 58530, Note_on_c, 0, 73, 80
2, 58554, Note_on_c, 0, 73, 0
2, 58560, Note_on_c, 0, 72, 64
2, 58584, Note_on_c, 0, 72, 0
2, 58590, Note_on_c, 0, 75, 64
2, 58614, Note_on_c, 0, 75, 0
2, 58620, Note_on_c, 0, 77, 64
2, 58644, Note_on_c, 0, 77, 0
2, 58650, Note_on_c, 0, 75, 64
2, 58674, Note_on_c, 0, 75, 0
2, 58680, Note_on_c, 0, 73, 64
2, 58704, Note_on_c, 0, 73, 0
2, 58710, Note_on_c, 0, 72, 64
2, 58734, Note_on_c, 0, 72, 0
2, 58740, Note_on_c, 0, 70, 64
2, 58764, Note_on_c, 0, 70, 0
2, 58770, Note_on_c, 0, 68, 64
2, 58794, Note_on_c, 0, 68, 0
2, 58800, Note_on_c, 0, 67, 64
2, 58824, Note_on_c, 0, 67, 0
2, 58830, Note_on_c, 0, 77, 64
2, 58854, Note_on_c, 0, 77, 0
2, 58860, Note_on_c, 0, 75, 64
2, 58884, Note_on_c, 0, 75, 0
2, 58890, Note_on_c, 0, 73, 64
2, 58914, Note_on_c, 0, 73, 0
2, 58920, Note_on_c, 0, 72, 64
2, 58944, Note_on_c, 0, 72, 0
2, 58950, Note_on_c, 0, 70, 64
2, 58974, Note_on_c, 0, 70, 0
2, 58980, Note_on_c, 0, 68, 64
2, 59004, Note_on_c, 0, 68, 0
2, 59010, Note_on_c, 0, 67, 64
2, 59034, Note_on_c, 0, 67, 0
2, 59040, Note_on_c, 0, 68, 64
2, 59064, Note_on_c, 0, 68, 0
2, 59070, Note_on_c, 0, 70, 64
2, 59094, Note_on_c, 0, 70, 0
2, 59100, Note_on_c, 0, 72, 64
2, 59124, Note_on_c, 0, 72, 0
2, 59130, Note_on_c, 0, 73, 64
2, 59154, Note_on_c, 0, 73, 0
2, 59160, Note_on_c, 0, 75, 64
2, 59184, Note_on_c, 0, 75, 0
2, 59190, Note_on_c, 0, 77, 64
2, 59214, Note_on_c, 0, 77, 0
2, 59220, Note_on_c, 0, 79, 64
2, 59244, Note_on_c, 0, 79, 0
2, 59250, Note_on_c, 0, 80, 64
2, 59274, Note_on_c, 0, 80, 0
2, 59280, Note_on_c, 0, 82, 64
2, 59304, Note_on_c, 0, 82, 0
2, 59310, Note_on_c, 0, 84, 64
2, 59334, Note_on_c, 0, 84, 0
2, 59340, Note_on_c, 0, 82, 64
2, 59364, Note_on_c, 0, 82, 0
2, 59370, Note_on_c, 0, 80, 64
2, 59394, Note_on_c, 0, 80, 0
2, 59400, Note_on_c, 0, 79, 64
2, 59424, Note_on_c, 0, 79, 0
2, 59430, Note_on_c, 0, 77, 64
2, 59454, Note_on_c, 0, 77, 0
2, 59460, Note_on_c, 0, 75, 64
2, 59484, Note_on_c, 0, 75, 0
2, 59490, Note_on_c, 0, 73, 64
2, 59514, Note_on_c, 0, 73, 0
2, 59520, Note_on_c, 0, 72, 64
2, 59544, Note_on_c, 0, 72, 0
2, 59550, Note_on_c, 0, 73, 64
2, 59574, Note_on_c, 0, 73, 0
2, 59580, Note_on_c, 0, 75, 64
2, 59604, Note_on_c, 0, 75, 0
2, 59610, Note_on_c, 0, 73, 64
2, 59634, Note_on_c, 0, 73, 0
2, 59640, Note_on_c, 0, 72, 64
2, 59664, Note_on_c, 0, 72, 0
2, 59670, Note_on_c, 0, 73, 64
2, 59694, Note_on_c, 0, 73, 0
2, 59700, Note_on_c, 0, 75, 64
2, 59724, Note_on_c, 0, 75, 0
2, 59730, Note_on_c, 0, 73, 64
2, 59754, Note_on_c, 0, 73, 0
2, 59760, Note_on_c, 0, 72, 64
2, 59784, Note_on_c, 0, 72, 0
2, 59790, Note_on_c, 0, 73, 64
2, 59814, Note_on_c, 0, 73, 0
2, 59820, Note_on_c, 0, 75, 64
2, 59844, Note_on_c, 0, 75, 0
2, 59850, Note_on_c, 0, 73, 64
2, 59874, Note_on_c, 0, 73, 0
2, 59880, Note_on_c, 0, 72, 64
2, 59904, Note_on_c, 0, 72, 0
2, 59910, Note_on_c, 0, 73, 64
2, 59934, Note_on_c, 0, 73, 0
2, 59940, Note_on_c, 0, 75, 64
2, 59964, Note_on_c, 0, 75, 0
2, 59970, Note_on_c, 0, 73, 64
2, 59994, Note_on_c, 0, 73, 0
2, 60000, Note_on_c, 0, 72, 64
2, 60024, Note_on_c, 0, 72, 0
2, 60030, Note_on_c, 0, 73, 64
2, 60054, Note_on_c, 0, 73, 0
2, 60060, Note_on_c, 0, 75, 64
2, 60084, Note_on_c, 0, 75, 0
2, 60090, Note_on_c, 0, 73, 64
2, 60114, Note_on_c, 0, 73, 0
2, 60120, Note_on_c, 0, 72, 64
2, 60144, Note_on_c, 0, 72, 0
2, 60150, Note_on_c, 0, 73, 64
2, 60174, Note_on_c, 0, 73, 0
2, 60180, Note_on_c, 0, 75, 64
2, 60204, Note_on_c, 0, 75, 0
2, 60210, Note_on_c, 0, 73, 64
2, 60234, Note_on_c, 0, 73, 0
2, 60240, Note_on_c, 0, 72, 64
2, 60264, Note_on_c, 0, 72, 0
2, 60270, Note_on_c, 0, 73, 64
2, 60294, Note_on_c, 0, 73, 0
2, 60300, Note_on_c, 0, 75, 64
2, 60324, Note_on_c, 0, 75, 0
2, 60330, Note_on_c, 0, 73, 64
2, 60354, Note_on_c, 0, 73, 0
2, 60360, Note_on_c, 0, 72, 64
2, 60384, Note_on_c, 0, 72, 0
2, 60390, Note_on_c, 0, 73, 64
2, 60414, Note_on_c, 0, 73, 0
2, 60420, Note_on_c, 0, 75, 64
2, 60444, Note_on_c, 0, 75, 0
2, 60450, Note_on_c, 0, 73, 64
2, 60474, Note_on_c, 0, 73, 0
2, 60480, Note_on_c, 0, 72, 48
2, 60504, Note_on_c, 0, 72, 0
2, 60510, Note_on_c, 0, 74, 50
2, 60534, Note_on_c, 0, 74, 0
2, 60540, Note_on_c, 0, 75, 51
2, 60564, Note_on_c, 0, 75, 0
2, 60570, Note_on_c, 0, 74, 53
2, 60594, Note_on_c, 0, 74, 0
2, 60600, Note_on_c, 0, 72, 55
2, 60624, Note_on_c, 0, 72, 0
2, 60630, Note_on_c, 0, 74, 56
2, 60654, Note_on_c, 0, 74, 0
2, 60660, Note_on_c, 0, 75, 58
2, 60684, Note_on_c, 0, 75, 0
2, 60690, Note_on_c, 0, 74, 59
2, 60714, Note_on_c, 0, 74, 0
2, 60720, Note_on_c, 0, 72, 61
2, 60744, Note_on_c, 0, 72, 0
2, 60750, Note_on_c, 0, 74, 63
2, 60774, Note_on_c, 0, 74, 0
2, 60780, Note_on_c, 0, 75, 64
2, 60804, Note_on_c, 0, 75, 0
2, 60810, Note_on_c, 0, 74, 66
2, 60834, Note_on_c, 0, 74, 0
2, 60840, Note_on_c, 0, 72, 68
2, 60864, Note_on_c, 0, 72, 0
2, 60870, Note_on_c, 0, 75, 69
2, 60894, Note_on_c, 0, 75, 0
2, 60900, Note_on_c, 0, 74, 71
2, 60924, Note_on_c, 0, 74, 0
2, 60930, Note_on_c, 0, 72, 72
2, 60954, Note_on_c, 0, 72, 0
2, 60960, Note_on_c, 0, 71, 80
2, 60984, Note_on_c, 0, 71, 0
2, 60990, Note_on_c, 0, 67, 80
2, 61014, Note_on_c, 0, 67, 0
2, 61020, Note_on_c, 0, 71, 80
2, 61044, Note_on_c, 0, 71, 0
2, 61050, Note_on_c, 0, 74, 80
2, 61074, Note_on_c, 0, 74, 0
2, 61080, Note_on_c, 0, 79, 80
2, 61104, Note_on_c, 0, 79, 0
2, 61110, Note_on_c, 0, 74, 80
2, 61134, Note_on_c, 0, 74, 0
2, 61140, Note_on_c, 0, 71, 80
2, 61164, Note_on_c, 0, 71, 0
2, 61170, Note_on_c, 0, 67, 80
2, 61194, Note_on_c, 0, 67, 0
2, 61200, Note_on_c, 0, 66, 80
2, 61224, Note_on_c, 0, 66, 0
2, 61230, Note_on_c, 0, 67, 80
2, 61254, Note_on_c, 0, 67, 0
2, 61260, Note_on_c, 0, 72, 80
2, 61284, Note_on_c, 0, 72, 0
2, 61290, Note_on_c, 0, 75, 80
2, 61314, Note_on_c, 0, 75, 0
2, 61320, Note_on_c, 0, 79, 80
2, 61344, Note_on_c, 0, 79, 0
2, 61350, Note_on_c, 0, 75, 80
2, 61374, Note_on_c, 0, 75, 0
2, 61380, Note_on_c, 0, 72, 80
2, 61404, Note_on_c, 0, 72, 0
2, 61410, Note_on_c, 0, 67, 80
2, 61434, Note_on_c, 0, 67, 0
2, 61440, Note_on_c, 0, 66, 80
2, 61464, Note_on_c, 0, 66, 0
2, 61470, Note_on_c, 0, 67, 80
2, 61494, Note_on_c, 0, 67, 0
2, 61500, Note_on_c, 0, 71, 80
2, 61524, Note_on_c, 0, 71, 0
2, 61530, Note_on_c, 0, 74, 80
2, 61554, Note_on_c, 0, 74, 0
2, 61560, Note_on_c, 0, 79, 80
2, 61584, Note_on_c, 0, 79, 0
2, 61590, Note_on_c, 0, 74, 80
2, 61614, Note_on_c, 0, 74, 0
2, 61620, Note_on_c, 0, 71, 80
2, 61644, Note_on_c, 0, 71, 0
2, 61650, Note_on_c, 0, 67, 80
2, 61674, Note_on_c, 0, 67, 0
2, 61680, Note_on_c, 0, 66, 80
2, 61704, Note_on_c, 0, 66, 0
2, 61710, Note_on_c, 0, 67, 80
2, 61734, Note_on_c, 0, 67, 0
2, 61740, Note_on_c, 0, 72, 80
2, 61764, Note_on_c, 0, 72, 0
2, 61770, Note_on_c, 0, 75, 80
2, 61794, Note_on_c, 0, 75, 0
2, 61800, Note_on_c, 0, 79, 80
2, 61824, Note_on_c, 0, 79, 0
2, 61830, Note_on_c, 0, 75, 80
2, 61854, Note_on_c, 0, 75, 0
2, 61860, Note_on_c, 0, 72, 80
2, 61884, Note_on_c, 0, 72, 0
2, 61890, Note_on_c, 0, 67, 80
2, 61914, Note_on_c, 0, 67, 0
2, 61920, Note_on_c, 0, 79, 80
2, 62016, Note_on_c, 0, 79, 0
2, 62160, Note_on_c, 0, 79, 80
2, 62160, Note_on_c, 0, 75, 80
2, 62160, Note_on_c, 0, 72, 80
2, 62160, Note_on_c, 0, 67, 80
2, 62256, Note_on_c, 0, 67, 0
2, 62256, Note_on_c, 0, 79, 0
2, 62256, Note_on_c, 0, 75, 0
2, 62256, Note_on_c, 0, 72, 0
2, 62400, Note_on_c, 0, 79, 80
2, 62400, Note_on_c, 0, 74, 80
2, 62400, Note_on_c, 0, 71, 80
2, 62400, Note_on_c, 0, 67, 80
2, 62496, Note_on_c, 0, 67, 0
2, 62496, Note_on_c, 0, 79, 0
2, 62496, Note_on_c, 0, 74, 0
2, 62496, Note_on_c, 0, 71, 0
2, 62640, Note_on_c, 0, 79, 80
2, 62640, Note_on_c, 0, 75, 80
2, 62640, Note_on_c, 0, 72, 80
2, 62640, Note_on_c, 0, 67, 80
2, 62736, Note_on_c, 0, 67, 0
2, 62736, Note_on_c, 0, 79, 0
2, 62736, Note_on_c, 0, 75, 0
2, 62736, Note_on_c, 0, 72, 0
2, 62880, Note_on_c, 0, 79, 80
2, 62880, Note_on_c, 0, 74, 80
2, 62880, Note_on_c, 0, 71, 80
2, 62880, Note_on_c, 0, 67, 80
2, 62964, Note_on_c, 0, 67, 0
2, 62964, Note_on_c, 0, 79, 0
2, 62964, Note_on_c, 0, 74, 0
2, 62964, Note_on_c, 0, 71, 0
2, 63120, Note_on_c, 0, 83, 80
2, 63120, Note_on_c, 0, 79, 80
2, 63120, Note_on_c, 0, 74, 80
2, 63204, Note_on_c, 0, 74, 0
2, 63204, Note_on_c, 0, 79, 0
2, 63204, Note_on_c, 0, 83, 0
2, 63360, Note_on_c, 0, 55, 80
2, 63360, Note_on_c, 0, 50, 80
2, 63360, Note_on_c, 0, 47, 80
2, 64128, Note_on_c, 0, 47, 0
2, 64128, Note_on_c, 0, 50, 0
2, 64128, Note_on_c, 0, 55, 0
2, 64500, Note_on_c, 0, 83, 56
2, 64548, Note_on_c, 0, 83, 0
2, 64560, Note_on_c, 0, 80, 56
2, 64608, Note_on_c, 0, 80, 0
2, 64650, Note_on_c, 0, 83, 56
2, 64674, Note_on_c, 0, 83, 0
2, 64680, Note_on_c, 0, 78, 56
2, 64728, Note_on_c, 0, 78, 0
2, 64770, Note_on_c, 0, 83, 56
2, 64794, Note_on_c, 0, 83, 0
2, 64800, Note_on_c, 0, 76, 56
2, 64848, Note_on_c, 0, 76, 0
2, 64890, Note_on_c, 0, 83, 56
2, 64914, Note_on_c, 0, 83, 0
2, 64920, Note_on_c, 0, 71, 56
2, 64968, Note_on_c, 0, 71, 0
2, 65010, Note_on_c, 0, 83, 40
2, 65034, Note_on_c, 0, 83, 0
2, 65040, Note_on_c, 0, 80, 40
2, 65088, Note_on_c, 0, 80, 0
2, 65130, Note_on_c, 0, 83, 40
2, 65154, Note_on_c, 0, 83, 0
2, 65160, Note_on_c, 0, 78, 40
2, 65208, Note_on_c, 0, 78, 0
2, 65250, Note_on_c, 0, 83, 40
2, 65274, Note_on_c, 0, 83, 0
2, 65280, Note_on_c, 0, 76, 40
2, 65328, Note_on_c, 0, 76, 0
2, 65370, Note_on_c, 0, 83, 42
2, 65394, Note_on_c, 0, 83, 0
2, 65400, Note_on_c, 0, 71, 43
2, 65448, Note_on_c, 0, 71, 0
2, 65490, Note_on_c, 0, 88, 45
2, 65514, Note_on_c, 0, 88, 0
2, 65520, Note_on_c, 0, 83, 46
2, 65568, Note_on_c, 0, 83, 0
2, 65610, Note_on_c, 0, 88, 48
2, 65634, Note_on_c, 0, 88, 0
2, 65640, Note_on_c, 0, 85, 49
2, 65688, Note_on_c, 0, 85, 0
2, 65730, Note_on_c, 0, 88, 51
2, 65754, Note_on_c, 0, 88, 0
2, 65760, Note_on_c, 0, 86, 52
2, 65808, Note_on_c, 0, 86, 0
2, 65850, Note_on_c, 0, 88, 54
2, 65874, Note_on_c, 0, 88, 0
2, 65880, Note_on_c, 0, 85, 55
2, 65928, Note_on_c, 0, 85, 0
2, 65970, Note_on_c, 0, 88, 57
2, 65994, Note_on_c, 0, 88, 0
2, 66000, Note_on_c, 0, 83, 58
2, 66048, Note_on_c, 0, 83, 0
2, 66090, Note_on_c, 0, 88, 60
2, 66114, Note_on_c, 0, 88, 0
2, 66120, Note_on_c, 0, 80, 61
2, 66168, Note_on_c, 0, 80, 0
2, 66210, Note_on_c, 0, 88, 63
2, 66234, Note_on_c, 0, 88, 0
2, 66240, Note_on_c, 0, 81, 64
2, 66288, Note_on_c, 0, 81, 0
2, 66330, Note_on_c, 0, 85, 56
2, 66354, Note_on_c, 0, 85, 0
2, 66360, Note_on_c, 0, 76, 56
2, 66408, Note_on_c, 0, 76, 0
2, 66450, Note_on_c, 0, 76, 56
2, 66474, Note_on_c, 0, 76, 0
2, 66480, Note_on_c, 0, 73, 56
2, 66528, Note_on_c, 0, 73, 0
2, 66570, Note_on_c, 0, 76, 56
2, 66594, Note_on_c, 0, 76, 0
2, 66600, Note_on_c, 0, 71, 56
2, 66648, Note_on_c, 0, 71, 0
2, 66690, Note_on_c, 0, 76, 56
2, 66714, Note_on_c, 0, 76, 0
2, 66720, Note_on_c, 0, 69, 56
2, 66768, Note_on_c, 0, 69, 0
2, 66810, Note_on_c, 0, 76, 56
2, 66834, Note_on_c, 0, 76, 0
2, 66840, Note_on_c, 0, 64, 56
2, 66888, Note_on_c, 0, 64, 0
2, 66930, Note_on_c, 0, 76, 40
2, 66954, Note_on_c, 0, 76, 0
2, 66960, Note_on_c, 0, 73, 40
2, 67008, Note_on_c, 0, 73, 0
2, 67050, Note_on_c, 0, 76, 40
2, 67074, Note_on_c, 0, 76, 0
2, 67080, Note_on_c, 0, 71, 40
2, 67128, Note_on_c, 0, 71, 0
2, 67170, Note_on_c, 0, 76, 40
2, 67194, Note_on_c, 0, 76, 0
2, 67200, Note_on_c, 0, 69, 40
2, 67248, Note_on_c, 0, 69, 0
2, 67290, Note_on_c, 0, 76, 42
2, 67314, Note_on_c, 0, 76, 0
2, 67320, Note_on_c, 0, 64, 43
2, 67368, Note_on_c, 0, 64, 0
2, 67410, Note_on_c, 0, 81, 45
2, 67434, Note_on_c, 0, 81, 0
2, 67440, Note_on_c, 0, 69, 46
2, 67488, Note_on_c, 0, 69, 0
2, 67530, Note_on_c, 0, 85, 48
2, 67554, Note_on_c, 0, 85, 0
2, 67560, Note_on_c, 0, 73, 49
2, 67608, Note_on_c, 0, 73, 0
2, 67650, Note_on_c, 0, 88, 51
2, 67674, Note_on_c, 0, 88, 0
2, 67680, Note_on_c, 0, 79, 52
2, 67728, Note_on_c, 0, 79, 0
2, 67770, Note_on_c, 0, 88, 54
2, 67794, Note_on_c, 0, 88, 0
2, 67800, Note_on_c, 0, 79, 55
2, 67848, Note_on_c, 0, 79, 0
2, 67890, Note_on_c, 0, 88, 57
2, 67914, Note_on_c, 0, 88, 0
2, 67920, Note_on_c, 0, 79, 58
2, 67968, Note_on_c, 0, 79, 0
2, 68010, Note_on_c, 0, 88, 60
2, 68034, Note_on_c, 0, 88, 0
2, 68040, Note_on_c, 0, 79, 61
2, 68088, Note_on_c, 0, 79, 0
2, 68130, Note_on_c, 0, 88, 63
2, 68154, Note_on_c, 0, 88, 0
2, 68160, Note_on_c, 0, 78, 64
2, 68208, Note_on_c, 0, 78, 0
2, 68250, Note_on_c, 0, 88, 66
2, 68274, Note_on_c, 0, 88, 0
2, 68280, Note_on_c, 0, 79, 66
2, 68328, Note_on_c, 0, 79, 0
2, 68370, Note_on_c, 0, 88, 68
2, 68394, Note_on_c, 0, 88, 0
2, 68400, Note_on_c, 0, 78, 68
2, 68448, Note_on_c, 0, 78, 0
2, 68490, Note_on_c, 0, 88, 70
2, 68514, Note_on_c, 0, 88, 0
2, 68520, Note_on_c, 0, 85, 70
2, 68592, Note_on_c, 0, 85, 0
2, 68610, Note_on_c, 0, 88, 72
2, 68634, Note_on_c, 0, 88, 0
2, 68640, Note_on_c, 0, 86, 72
2, 68880, Note_on_c, 0, 86, 0
2, 68880, Note_on_c, 0, 79, 80
2, 69060, Note_on_c, 0, 79, 0
2, 69060, Note_on_c, 0, 81, 80
2, 69090, Note_on_c, 0, 81, 0
2, 69090, Note_on_c, 0, 79, 80
2, 69120, Note_on_c, 0, 79, 0
2, 69120, Note_on_c, 0, 78, 80
2, 69360, Note_on_c, 0, 78, 0
2, 69360, Note_on_c, 0, 77, 80
2, 69600, Note_on_c, 0, 77, 0
2, 69600, Note_on_c, 0, 78, 80
2, 69840, Note_on_c, 0, 78, 0
2, 69840, Note_on_c, 0, 86, 64
2, 69900, Note_on_c, 0, 86, 0
2, 69900, Note_on_c, 0, 79, 64
2, 69960, Note_on_c, 0, 79, 0
2, 69960, Note_on_c, 0, 86, 64
2, 70020, Note_on_c, 0, 86, 0
2, 70020, Note_on_c, 0, 79, 64
2, 70080, Note_on_c, 0, 79, 0
2, 70080, Note_on_c, 0, 85, 64
2, 70140, Note_on_c, 0, 85, 0
2, 70140, Note_on_c, 0, 79, 64
2, 70200, Note_on_c, 0, 79, 0
2, 70200, Note_on_c, 0, 85, 64
2, 70260, Note_on_c, 0, 85, 0
2, 70260, Note_on_c, 0, 79, 64
2, 70320, Note_on_c, 0, 79, 0
2, 70320, Note_on_c, 0, 84, 64
2, 70380, Note_on_c, 0, 84, 0
2, 70380, Note_on_c, 0, 78, 64
2, 70440, Note_on_c, 0, 78, 0
2, 70440, Note_on_c, 0, 84, 64
2, 70500, Note_on_c, 0, 84, 0
2, 70500, Note_on_c, 0, 78, 64
2, 70560, Note_on_c, 0, 78, 0
2, 70560, Note_on_c, 0, 83, 64
2, 70620, Note_on_c, 0, 83, 0
2, 70620, Note_on_c, 0, 78, 64
2, 70680, Note_on_c, 0, 78, 0
2, 70680, Note_on_c, 0, 83, 64
2, 70740, Note_on_c, 0, 83, 0
2, 70740, Note_on_c, 0, 78, 64
2, 70800, Note_on_c, 0, 78, 0
2, 70800, Note_on_c, 0, 83, 64
2, 70860, Note_on_c, 0, 83, 0
2, 70860, Note_on_c, 0, 76, 64
2, 70920, Note_on_c, 0, 76, 0
2, 70920, Note_on_c, 0, 83, 64
2, 70980, Note_on_c, 0, 83, 0
2, 70980, Note_on_c, 0, 76, 64
2, 71040, Note_on_c, 0, 76, 0
2, 71040, Note_on_c, 0, 82, 64
2, 71100, Note_on_c, 0, 82, 0
2, 71100, Note_on_c, 0, 76, 64
2, 71160, Note_on_c, 0, 76, 0
2, 71160, Note_on_c, 0, 82, 64
2, 71220, Note_on_c, 0, 82, 0
2, 71220, Note_on_c, 0, 76, 64
2, 71280, Note_on_c, 0, 76, 0
2, 71280, Note_on_c, 0, 82, 64
2, 71340, Note_on_c, 0, 82, 0
2, 71340, Note_on_c, 0, 76, 64
2, 71400, Note_on_c, 0, 76, 0
2, 71400, Note_on_c, 0, 83, 64
2, 71460, Note_on_c, 0, 83, 0
2, 71460, Note_on_c, 0, 76, 64
2, 71520, Note_on_c, 0, 76, 0
2, 71520, Note_on_c, 0, 82, 64
2, 71580, Note_on_c, 0, 82, 0
2, 71580, Note_on_c, 0, 76, 64
2, 71640, Note_on_c, 0, 76, 0
2, 71640, Note_on_c, 0, 82, 64
2, 71700, Note_on_c, 0, 82, 0
2, 71700, Note_on_c, 0, 76, 64
2, 71760, Note_on_c, 0, 76, 0
2, 71760, Note_on_c, 0, 82, 64
2, 71820, Note_on_c, 0, 82, 0
2, 71820, Note_on_c, 0, 76, 64
2, 71880, Note_on_c, 0, 76, 0
2, 71880, Note_on_c, 0, 83, 64
2, 71940, Note_on_c, 0, 83, 0
2, 71940, Note_on_c, 0, 76, 64
2, 72000, Note_on_c, 0, 76, 0
2, 72000, Note_on_c, 0, 82, 64
2, 72060, Note_on_c, 0, 82, 0
2, 72060, Note_on_c, 0, 76, 62
2, 72120, Note_on_c, 0, 76, 0
2, 72120, Note_on_c, 0, 82, 61
2, 72180, Note_on_c, 0, 82, 0
2, 72180, Note_on_c, 0, 76, 59
2, 72240, Note_on_c, 0, 76, 0
2, 72240, Note_on_c, 0, 82, 58
2, 72300, Note_on_c, 0, 82, 0
2, 72300, Note_on_c, 0, 76, 56
2, 72360, Note_on_c, 0, 76, 0
2, 72360, Note_on_c, 0, 82, 55
2, 72420, Note_on_c, 0, 82, 0
2, 72420, Note_on_c, 0, 76, 53
2, 72480, Note_on_c, 0, 76, 0
2, 72480, Note_on_c, 0, 81, 52
2, 72540, Note_on_c, 0, 81, 0
2, 72540, Note_on_c, 0, 75, 50
2, 72600, Note_on_c, 0, 75, 0
2, 72600, Note_on_c, 0, 81, 49
2, 72660, Note_on_c, 0, 81, 0
2, 72660, Note_on_c, 0, 75, 47
2, 72720, Note_on_c, 0, 75, 0
2, 72720, Note_on_c, 0, 81, 46
2, 72780, Note_on_c, 0, 81, 0
2, 72780, Note_on_c, 0, 75, 44
2, 72840, Note_on_c, 0, 75, 0
2, 72840, Note_on_c, 0, 81, 43
2, 72900, Note_on_c, 0, 81, 0
2, 72900, Note_on_c, 0, 75, 41
2, 72960, Note_on_c, 0, 75, 0
2, 72960, Note_on_c, 0, 80, 40
2, 73020, Note_on_c, 0, 80, 0
2, 73020, Note_on_c, 0, 74, 40
2, 73080, Note_on_c, 0, 74, 0
2, 73080, Note_on_c, 0, 80, 40
2, 73140, Note_on_c, 0, 80, 0
2, 73140, Note_on_c, 0, 74, 40
2, 73200, Note_on_c, 0, 74, 0
2, 73200, Note_on_c, 0, 80, 40
2, 73260, Note_on_c, 0, 80, 0
2, 73260, Note_on_c, 0, 74, 40
2, 73320, Note_on_c, 0, 74, 0
2, 73320, Note_on_c, 0, 80, 40
2, 73380, Note_on_c, 0, 80, 0
2, 73380, Note_on_c, 0, 75, 40
2, 73440, Note_on_c, 0, 75, 0
2, 73440, Note_on_c, 0, 80, 40
2, 73500, Note_on_c, 0, 80, 0
2, 73500, Note_on_c, 0, 74, 40
2, 73560, Note_on_c, 0, 74, 0
2, 73560, Note_on_c, 0, 80, 40
2, 73620, Note_on_c, 0, 80, 0
2, 73620, Note_on_c, 0, 74, 40
2, 73680, Note_on_c, 0, 74, 0
2, 73680, Note_on_c, 0, 80, 40
2, 73740, Note_on_c, 0, 80, 0
2, 73740, Note_on_c, 0, 74, 40
2, 73800, Note_on_c, 0, 74, 0
2, 73800, Note_on_c, 0, 80, 40
2, 73860, Note_on_c, 0, 80, 0
2, 73860, Note_on_c, 0, 75, 40
2, 73920, Note_on_c, 0, 75, 0
2, 73920, Note_on_c, 0, 80, 40
2, 73968, Note_on_c, 0, 80, 0
2, 73980, Note_on_c, 0, 74, 43
2, 74028, Note_on_c, 0, 74, 0
2, 74040, Note_on_c, 0, 77, 45
2, 74088, Note_on_c, 0, 77, 0
2, 74100, Note_on_c, 0, 68, 48
2, 74148, Note_on_c, 0, 68, 0
2, 74160, Note_on_c, 0, 72, 50
2, 74208, Note_on_c, 0, 72, 0
2, 74220, Note_on_c, 0, 65, 53
2, 74268, Note_on_c, 0, 65, 0
2, 74280, Note_on_c, 0, 68, 55
2, 74328, Note_on_c, 0, 68, 0
2, 74340, Note_on_c, 0, 62, 58
2, 74388, Note_on_c, 0, 62, 0
2, 74400, Note_on_c, 0, 65, 60
2, 74448, Note_on_c, 0, 65, 0
2, 74460, Note_on_c, 0, 56, 63
2, 74508, Note_on_c, 0, 56, 0
2, 74520, Note_on_c, 0, 60, 65
2, 74568, Note_on_c, 0, 60, 0
2, 74580, Note_on_c, 0, 53, 68
2, 74628, Note_on_c, 0, 53, 0
2, 74640, Note_on_c, 0, 56, 70
2, 74688, Note_on_c, 0, 56, 0
2, 74940, Note_on_c, 0, 55, 76
2, 74955, Note_on_c, 0, 58, 76
2, 74970, Note_on_c, 0, 63, 76
2, 75120, Note_on_c, 0, 63, 0
2, 75120, Note_on_c, 0, 58, 0
2, 75120, Note_on_c, 0, 55, 0
2, 75120, Note_on_c, 0, 67, 76
2, 75120, Note_on_c, 0, 61, 76
2, 75120, Note_on_c, 0, 63, 76
2, 75300, Note_on_c, 0, 63, 0
2, 75300, Note_on_c, 0, 61, 0
2, 75300, Note_on_c, 0, 67, 0
2, 75300, Note_on_c, 0, 67, 76
2, 75300, Note_on_c, 0, 63, 76
2, 75300, Note_on_c, 0, 61, 76
2, 75360, Note_on_c, 0, 61, 0
2, 75360, Note_on_c, 0, 63, 0
2, 75360, Note_on_c, 0, 67, 0
2, 75360, Note_on_c, 0, 60, 76
2, 75375, Note_on_c, 0, 63, 76
2, 75390, Note_on_c, 0, 68, 76
2, 75720, Note_on_c, 0, 63, 0
2, 75720, Note_on_c, 0, 60, 0
2, 75750, Note_on_c, 0, 68, 0
2, 75750, Note_on_c, 0, 67, 76
2, 75780, Note_on_c, 0, 67, 0
2, 75780, Note_on_c, 0, 65, 76
2, 75810, Note_on_c, 0, 65, 0
2, 75810, Note_on_c, 0, 63, 76
2, 75840, Note_on_c, 0, 63, 0
2, 75840, Note_on_c, 0, 62, 76
2, 75840, Note_on_c, 0, 56, 76
2, 75840, Note_on_c, 0, 58, 76
2, 75960, Note_on_c, 0, 58, 0
2, 75960, Note_on_c, 0, 56, 0
2, 76020, Note_on_c, 0, 62, 0
2, 76020, Note_on_c, 0, 65, 76
2, 76080, Note_on_c, 0, 65, 0
2, 76080, Note_on_c, 0, 70, 76
2, 76260, Note_on_c, 0, 70, 0
2, 76260, Note_on_c, 0, 68, 76
2, 76320, Note_on_c, 0, 68, 0
2, 76320, Note_on_c, 0, 67, 76
2, 76320, Note_on_c, 0, 63, 76
2, 76320, Note_on_c, 0, 58, 76
2, 76560, Note_on_c, 0, 58, 0
2, 76560, Note_on_c, 0, 63, 0
2, 76560, Note_on_c, 0, 67, 0
2, 76800, Note_on_c, 0, 74, 48
2, 76980, Note_on_c, 0, 74, 0
2, 76980, Note_on_c, 0, 77, 48
2, 77040, Note_on_c, 0, 77, 0
2, 77040, Note_on_c, 0, 82, 48
2, 77220, Note_on_c, 0, 82, 0
2, 77220, Note_on_c, 0, 80, 48
2, 77280, Note_on_c, 0, 80, 0
2, 77280, Note_on_c, 0, 79, 48
2, 77376, Note_on_c, 0, 79, 0
2, 77580, Note_on_c, 0, 80, 48
2, 77580, Note_on_c, 0, 84, 48
2, 77598, Note_on_c, 0, 84, 0
2, 77598, Note_on_c, 0, 80, 0
2, 77640, Note_on_c, 0, 79, 48
2, 77640, Note_on_c, 0, 82, 48
2, 77658, Note_on_c, 0, 82, 0
2, 77658, Note_on_c, 0, 79, 0
2, 77700, Note_on_c, 0, 80, 48
2, 77700, Note_on_c, 0, 77, 48
2, 77718, Note_on_c, 0, 77, 0
2, 77718, Note_on_c, 0, 80, 0
2, 77760, Note_on_c, 0, 79, 48
2, 77760, Note_on_c, 0, 75, 48
2, 77880, Note_on_c, 0, 75, 0
2, 77880, Note_on_c, 0, 79, 0
2, 78060, Note_on_c, 0, 84, 80
2, 78060, Note_on_c, 0, 80, 80
2, 78078, Note_on_c, 0, 80, 0
2, 78078, Note_on_c, 0, 84, 0
2, 78120, Note_on_c, 0, 82, 80
2, 78120, Note_on_c, 0, 79, 80
2, 78138, Note_on_c, 0, 79, 0
2, 78138, Note_on_c, 0, 82, 0
2, 78180, Note_on_c, 0, 80, 80
2, 78180, Note_on_c, 0, 77, 80
2, 78198, Note_on_c, 0, 77, 0
2, 78198, Note_on_c, 0, 80, 0
2, 78240, Note_on_c, 0, 75, 80
2, 78240, Note_on_c, 0, 79, 80
2, 78360, Note_on_c, 0, 79, 0
2, 78360, Note_on_c, 0, 75, 0
2, 78540, Note_on_c, 0, 84, 80
2, 78540, Note_on_c, 0, 80, 80
2, 78558, Note_on_c, 0, 80, 0
2, 78558, Note_on_c, 0, 84, 0
2, 78600, Note_on_c, 0, 82, 80
2, 78600, Note_on_c, 0, 79, 80
2, 78618, Note_on_c, 0, 79, 0
2, 78618, Note_on_c, 0, 82, 0
2, 78660, Note_on_c, 0, 80, 80
2, 78660, Note_on_c, 0, 77, 80
2, 78678, Note_on_c, 0, 77, 0
2, 78678, Note_on_c, 0, 80, 0
2, 78720, Note_on_c, 0, 79, 80
2, 78720, Note_on_c, 0, 75, 80
2, 78780, Note_on_c, 0, 75, 0
2, 78780, Note_on_c, 0, 79, 0
2, 78780, Note_on_c, 0, 84, 79
2, 78780, Note_on_c, 0, 80, 79
2, 78798, Note_on_c, 0, 80, 0
2, 78798, Note_on_c, 0, 84, 0
2, 78840, Note_on_c, 0, 82, 78
2, 78840, Note_on_c, 0, 79, 78
2, 78858, Note_on_c, 0, 79, 0
2, 78858, Note_on_c, 0, 82, 0
2, 78900, Note_on_c, 0, 80, 77
2, 78900, Note_on_c, 0, 77, 77
2, 78918, Note_on_c, 0, 77, 0
2, 78918, Note_on_c, 0, 80, 0
2, 78960, Note_on_c, 0, 79, 76
2, 78960, Note_on_c, 0, 75, 76
2, 79020, Note_on_c, 0, 75, 0
2, 79020, Note_on_c, 0, 79, 0
2, 79020, Note_on_c, 0, 82, 75
2, 79020, Note_on_c, 0, 79, 75
2, 79050, Note_on_c, 0, 79, 0
2, 79050, Note_on_c, 0, 82, 0
2, 79080, Note_on_c, 0, 80, 74
2, 79080, Note_on_c, 0, 77, 74
2, 79110, Note_on_c, 0, 77, 0
2, 79110, Note_on_c, 0, 80, 0
2, 79140, Note_on_c, 0, 79, 73
2, 79140, Note_on_c, 0, 75, 73
2, 79170, Note_on_c, 0, 75, 0
2, 79170, Note_on_c, 0, 79, 0
2, 79200, Note_on_c, 0, 77, 72
2, 79200, Note_on_c, 0, 74, 72
2, 79260, Note_on_c, 0, 74, 0
2, 79260, Note_on_c, 0, 77, 0
2, 79260, Note_on_c, 0, 75, 71
2, 79260, Note_on_c, 0, 72, 71
2, 79320, Note_on_c, 0, 72, 0
2, 79320, Note_on_c, 0, 75, 0
2, 79320, Note_on_c, 0, 74, 70
2, 79320, Note_on_c, 0, 70, 70
2, 79380, Note_on_c, 0, 70, 0
2, 79380, Note_on_c, 0, 74, 0
2, 79380, Note_on_c, 0, 72, 69
2, 79380, Note_on_c, 0, 68, 69
2, 79440, Note_on_c, 0, 68, 0
2, 79440, Note_on_c, 0, 72, 0
2, 79440, Note_on_c, 0, 70, 68
2, 79440, Note_on_c, 0, 67, 68
2, 79500, Note_on_c, 0, 67, 0
2, 79500, Note_on_c, 0, 70, 0
2, 79500, Note_on_c, 0, 68, 67
2, 79500, Note_on_c, 0, 65, 67
2, 79560, Note_on_c, 0, 65, 0
2, 79560, Note_on_c, 0, 68, 0
2, 79560, Note_on_c, 0, 67, 66
2, 79560, Note_on_c, 0, 63, 66
2, 79620, Note_on_c, 0, 63, 0
2, 79620, Note_on_c, 0, 67, 0
2, 79620, Note_on_c, 0, 65, 65
2, 79620, Note_on_c, 0, 62, 65
2, 79680, Note_on_c, 0, 62, 0
2, 79680, Note_on_c, 0, 65, 0
2, 79680, Note_on_c, 0, 63, 64
2, 80064, Note_on_c, 0, 63, 0
2, 80100, Note_on_c, 0, 65, 64
2, 80124, Note_on_c, 0, 65, 0
2, 80130, Note_on_c, 0, 63, 64
2, 80154, Note_on_c, 0, 63, 0
2, 80160, Note_on_c, 0, 62, 64
2, 80280, Note_on_c, 0, 62, 0
2, 80400, Note_on_c, 0, 61, 72
2, 80640, Note_on_c, 0, 61, 0
2, 80640, Note_on_c, 0, 60, 64
2, 81024, Note_on_c, 0, 60, 0
2, 81060, Note_on_c, 0, 62, 72
2, 81084, Note_on_c, 0, 62, 0
2, 81090, Note_on_c, 0, 60, 72
2, 81114, Note_on_c, 0, 60, 0
2, 81120, Note_on_c, 0, 58, 72
2, 81264, Note_on_c, 0, 58, 0
2, 81300, Note_on_c, 0, 60, 72
2, 81324, Note_on_c, 0, 60, 0
2, 81330, Note_on_c, 0, 62, 72
2, 81354, Note_on_c, 0, 62, 0
2, 81360, Note_on_c, 0, 63, 72
2, 81504, Note_on_c, 0, 63, 0
2, 81540, Note_on_c, 0, 65, 72
2, 81564, Note_on_c, 0, 65, 0
2, 81570, Note_on_c, 0, 67, 72
2, 81594, Note_on_c, 0, 67, 0
2, 81600, Note_on_c, 0, 68, 72
2, 81792, Note_on_c, 0, 68, 0
2, 81840, Note_on_c, 0, 67, 72
2, 82032, Note_on_c, 0, 67, 0
2, 82080, Note_on_c, 0, 65, 80
2, 82128, Note_on_c, 0, 65, 0
2, 82140, Note_on_c, 0, 70, 80
2, 82158, Note_on_c, 0, 70, 0
2, 82200, Note_on_c, 0, 69, 80
2, 82218, Note_on_c, 0, 69, 0
2, 82260, Note_on_c, 0, 72, 80
2, 82278, Note_on_c, 0, 72, 0
2, 82320, Note_on_c, 0, 70, 80
2, 82368, Note_on_c, 0, 70, 0
2, 82380, Note_on_c, 0, 74, 80
2, 82398, Note_on_c, 0, 74, 0
2, 82440, Note_on_c, 0, 72, 80
2, 82458, Note_on_c, 0, 72, 0
2, 82500, Note_on_c, 0, 75, 80
2, 82518, Note_on_c, 0, 75, 0
2, 82560, Note_on_c, 0, 74, 80
2, 82608, Note_on_c, 0, 74, 0
2, 82620, Note_on_c, 0, 77, 80
2, 82638, Note_on_c, 0, 77, 0
2, 82680, Note_on_c, 0, 75, 80
2, 82698, Note_on_c, 0, 75, 0
2, 82740, Note_on_c, 0, 79, 80
2, 82758, Note_on_c, 0, 79, 0
2, 82800, Note_on_c, 0, 77, 80
2, 82848, Note_on_c, 0, 77, 0
2, 82860, Note_on_c, 0, 80, 80
2, 82878, Note_on_c, 0, 80, 0
2, 82920, Note_on_c, 0, 79, 80
2, 82938, Note_on_c, 0, 79, 0
2, 82980, Note_on_c, 0, 82, 80
2, 82998, Note_on_c, 0, 82, 0
2, 83040, Note_on_c, 0, 80, 80
2, 83100, Note_on_c, 0, 80, 0
2, 83100, Note_on_c, 0, 79, 80
2, 83160, Note_on_c, 0, 79, 0
2, 83160, Note_on_c, 0, 77, 80
2, 83220, Note_on_c, 0, 77, 0
2, 83220, Note_on_c, 0, 75, 80
2, 83280, Note_on_c, 0, 75, 0
2, 83280, Note_on_c, 0, 74, 80
2, 83340, Note_on_c, 0, 74, 0
2, 83340, Note_on_c, 0, 84, 80
2, 83400, Note_on_c, 0, 84, 0
2, 83400, Note_on_c, 0, 82, 80
2, 83460, Note_on_c, 0, 82, 0
2, 83460, Note_on_c, 0, 80, 80
2, 83520, Note_on_c, 0, 80, 0
2, 83520, Note_on_c, 0, 79, 80
2, 83580, Note_on_c, 0, 79, 0
2, 83580, Note_on_c, 0, 80, 72
2, 83640, Note_on_c, 0, 80, 0
2, 83640, Note_on_c, 0, 82, 64
2, 83700, Note_on_c, 0, 82, 0
2, 83700, Note_on_c, 0, 83, 56
2, 83760, Note_on_c, 0, 83, 0
2, 83760, Note_on_c, 0, 84, 48
2, 83820, Note_on_c, 0, 84, 0
2, 83820, Note_on_c, 0, 79, 48
2, 83880, Note_on_c, 0, 79, 0
2, 83880, Note_on_c, 0, 84, 48
2, 83940, Note_on_c, 0, 84, 0
2, 83940, Note_on_c, 0, 79, 48
2, 84000, Note_on_c, 0, 79, 0
2, 84000, Note_on_c, 0, 84, 48
2, 84060, Note_on_c, 0, 84, 0
2, 84060, Note_on_c, 0, 77, 48
2, 84120, Note_on_c, 0, 77, 0
2, 84120, Note_on_c, 0, 84, 48
2, 84180, Note_on_c, 0, 84, 0
2, 84180, Note_on_c, 0, 77, 48
2, 84240, Note_on_c, 0, 77, 0
2, 84240, Note_on_c, 0, 82, 48
2, 84300, Note_on_c, 0, 82, 0
2, 84300, Note_on_c, 0, 77, 48
2, 84360, Note_on_c, 0, 77, 0
2, 84360, Note_on_c, 0, 82, 48
2, 84420, Note_on_c, 0, 82, 0
2, 84420, Note_on_c, 0, 77, 48
2, 84480, Note_on_c, 0, 77, 0
2, 84480, Note_on_c, 0, 82, 48
2, 84540, Note_on_c, 0, 82, 0
2, 84540, Note_on_c, 0, 76, 48
2, 84600, Note_on_c, 0, 76, 0
2, 84600, Note_on_c, 0, 82, 48
2, 84660, Note_on_c, 0, 82, 0
2, 84660, Note_on_c, 0, 76, 48
2, 84720, Note_on_c, 0, 76, 0
2, 84720, Note_on_c, 0, 80, 48
2, 84780, Note_on_c, 0, 80, 0
2, 84780, Note_on_c, 0, 75, 48
2, 84840, Note_on_c, 0, 75, 0
2, 84840, Note_on_c, 0, 80, 48
2, 84900, Note_on_c, 0, 80, 0
2, 84900, Note_on_c, 0, 75, 48
2, 84960, Note_on_c, 0, 75, 0
2, 84960, Note_on_c, 0, 80, 48
2, 85020, Note_on_c, 0, 80, 0
2, 85020, Note_on_c, 0, 74, 48
2, 85080, Note_on_c, 0, 74, 0
2, 85080, Note_on_c, 0, 80, 48
2, 85140, Note_on_c, 0, 80, 0
2, 85140, Note_on_c, 0, 74, 48
2, 85200, Note_on_c, 0, 74, 0
2, 85200, Note_on_c, 0, 79, 48
2, 85260, Note_on_c, 0, 79, 0
2, 85260, Note_on_c, 0, 73, 48
2, 85320, Note_on_c, 0, 73, 0
2, 85320, Note_on_c, 0, 79, 48
2, 85380, Note_on_c, 0, 79, 0
2, 85380, Note_on_c, 0, 73, 48
2, 85440, Note_on_c, 0, 73, 0
2, 85440, Note_on_c, 0, 79, 48
2, 85488, Note_on_c, 0, 79, 0
2, 85500, Note_on_c, 0, 72, 48
2, 85548, Note_on_c, 0, 72, 0
2, 85560, Note_on_c, 0, 79, 48
2, 85608, Note_on_c, 0, 79, 0
2, 85620, Note_on_c, 0, 72, 48
2, 85668, Note_on_c, 0, 72, 0
2, 85680, Note_on_c, 0, 77, 48
2, 85728, Note_on_c, 0, 77, 0
2, 85740, Note_on_c, 0, 72, 48
2, 85788, Note_on_c, 0, 72, 0
2, 85800, Note_on_c, 0, 77, 48
2, 85848, Note_on_c, 0, 77, 0
2, 85860, Note_on_c, 0, 72, 48
2, 85908, Note_on_c, 0, 72, 0
2, 85920, Note_on_c, 0, 77, 48
2, 85968, Note_on_c, 0, 77, 0
2, 85980, Note_on_c, 0, 70, 48
2, 86028, Note_on_c, 0, 70, 0
2, 86040, Note_on_c, 0, 77, 48
2, 86088, Note_on_c, 0, 77, 0
2, 86100, Note_on_c, 0, 70, 48
2, 86148, Note_on_c, 0, 70, 0
2, 86160, Note_on_c, 0, 75, 48
2, 86208, Note_on_c, 0, 75, 0
2, 86220, Note_on_c, 0, 70, 48
2, 86268, Note_on_c, 0, 70, 0
2, 86280, Note_on_c, 0, 75, 48
2, 86328, Note_on_c, 0, 75, 0
2, 86340, Note_on_c, 0, 70, 48
2, 86388, Note_on_c, 0, 70, 0
2, 86400, Note_on_c, 0, 74, 48
2, 86448, Note_on_c, 0, 74, 0
2, 86460, Note_on_c, 0, 70, 48
2, 86508, Note_on_c, 0, 70, 0
2, 86520, Note_on_c, 0, 80, 48
2, 86568, Note_on_c, 0, 80, 0
2, 86580, Note_on_c, 0, 70, 48
2, 86628, Note_on_c, 0, 70, 0
2, 86640, Note_on_c, 0, 79, 48
2, 86688, Note_on_c, 0, 79, 0
2, 86700, Note_on_c, 0, 70, 48
2, 86748, Note_on_c, 0, 70, 0
2, 86760, Note_on_c, 0, 75, 48
2, 86808, Note_on_c, 0, 75, 0
2, 86820, Note_on_c, 0, 70, 48
2, 86868, Note_on_c, 0, 70, 0
2, 86880, Note_on_c, 0, 74, 48
2, 86940, Note_on_c, 0, 74, 0
2, 87000, Note_on_c, 0, 82, 64
2, 87000, Note_on_c, 0, 74, 64
2, 87096, Note_on_c, 0, 74, 0
2, 87096, Note_on_c, 0, 82, 0
2, 87120, Note_on_c, 0, 81, 64
2, 87120, Note_on_c, 0, 75, 64
2, 87216, Note_on_c, 0, 75, 0
2, 87216, Note_on_c, 0, 81, 0
2, 87240, Note_on_c, 0, 78, 64
2, 87240, Note_on_c, 0, 75, 64
2, 87336, Note_on_c, 0, 75, 0
2, 87336, Note_on_c, 0, 78, 0
2, 87360, Note_on_c, 0, 74, 64
2, 87360, Note_on_c, 0, 77, 64
2, 87420, Note_on_c, 0, 77, 0
2, 87420, Note_on_c, 0, 74, 0
2, 87480, Note_on_c, 0, 74, 41
2, 87480, Note_on_c, 0, 82, 41
2, 87576, Note_on_c, 0, 82, 0
2, 87576, Note_on_c, 0, 74, 0
2, 87600, Note_on_c, 0, 75, 45
2, 87600, Note_on_c, 0, 81, 45
2, 87696, Note_on_c, 0, 81, 0
2, 87696, Note_on_c, 0, 75, 0
2, 87720, Note_on_c, 0, 75, 48
2, 87720, Note_on_c, 0, 78, 48
2, 87816, Note_on_c, 0, 78, 0
2, 87816, Note_on_c, 0, 75, 0
2, 87840, Note_on_c, 0, 74, 52
2, 87840, Note_on_c, 0, 77, 52
2, 87936, Note_on_c, 0, 77, 0
2, 87936, Note_on_c, 0, 74, 0
2, 87960, Note_on_c, 0, 76, 56
2, 87960, Note_on_c, 0, 79, 56
2, 88056, Note_on_c, 0, 79, 0
2, 88056, Note_on_c, 0, 76, 0
2, 88080, Note_on_c, 0, 77, 59
2, 88080, Note_on_c, 0, 80, 59
2, 88176, Note_on_c, 0, 80, 0
2, 88176, Note_on_c, 0, 77, 0
2, 88200, Note_on_c, 0, 76, 63
2, 88200, Note_on_c, 0, 79, 63
2, 88296, Note_on_c, 0, 79, 0
2, 88296, Note_on_c, 0, 76, 0
2, 88320, Note_on_c, 0, 79, 67
2, 88320, Note_on_c, 0, 82, 67
2, 88512, Note_on_c, 0, 82, 0
2, 88512, Note_on_c, 0, 79, 0
2, 88560, Note_on_c, 0, 77, 74
2, 88560, Note_on_c, 0, 80, 74
2, 88620, Note_on_c, 0, 80, 0
2, 88620, Note_on_c, 0, 77, 0
2, 88680, Note_on_c, 0, 74, 78
2, 88680, Note_on_c, 0, 77, 78
2, 88776, Note_on_c, 0, 77, 0
2, 88776, Note_on_c, 0, 74, 0
2, 88800, Note_on_c, 0, 75, 80
2, 88800, Note_on_c, 0, 70, 80
2, 88800, Note_on_c, 0, 67, 80
2, 88992, Note_on_c, 0, 67, 0
2, 88992, Note_on_c, 0, 70, 0
2, 88992, Note_on_c, 0, 75, 0
2, 89040, Note_on_c, 0, 79, 80
2, 89040, Note_on_c, 0, 75, 80
2, 89040, Note_on_c, 0, 73, 80
2, 89184, Note_on_c, 0, 73, 0
2, 89184, Note_on_c, 0, 75, 0
2, 89184, Note_on_c, 0, 79, 0
2, 89220, Note_on_c, 0, 79, 80
2, 89220, Note_on_c, 0, 75, 80
2, 89220, Note_on_c, 0, 73, 80
2, 89268, Note_on_c, 0, 73, 0
2, 89268, Note_on_c, 0, 75, 0
2, 89268, Note_on_c, 0, 79, 0
2, 89280, Note_on_c, 0, 80, 80
2, 89280, Note_on_c, 0, 75, 80
2, 89280, Note_on_c, 0, 72, 80
2, 89520, Note_on_c, 0, 72, 0
2, 89520, Note_on_c, 0, 75, 0
2, 89550, Note_on_c, 0, 80, 0
2, 89550, Note_on_c, 0, 82, 64
2, 89580, Note_on_c, 0, 82, 0
2, 89580, Note_on_c, 0, 84, 64
2, 89610, Note_on_c, 0, 84, 0
2, 89610, Note_on_c, 0, 82, 64
2, 89640, Note_on_c, 0, 82, 0
2, 89640, Note_on_c, 0, 80, 64
2, 89670, Note_on_c, 0, 80, 0
2, 89670, Note_on_c, 0, 79, 64
2, 89700, Note_on_c, 0, 79, 0
2, 89700, Note_on_c, 0, 77, 64
2, 89730, Note_on_c, 0, 77, 0
2, 89730, Note_on_c, 0, 75, 64
2, 89760, Note_on_c, 0, 75, 0
2, 89760, Note_on_c, 0, 74, 64
2, 89790, Note_on_c, 0, 74, 0
2, 89790, Note_on_c, 0, 75, 64
2, 89820, Note_on_c, 0, 75, 0
2, 89820, Note_on_c, 0, 77, 64
2, 89850, Note_on_c, 0, 77, 0
2, 89850, Note_on_c, 0, 79, 64
2, 89880, Note_on_c, 0, 79, 0
2, 89880, Note_on_c, 0, 80, 64
2, 89910, Note_on_c, 0, 80, 0
2, 89910, Note_on_c, 0, 79, 64
2, 89940, Note_on_c, 0, 79, 0
2, 89940, Note_on_c, 0, 77, 64
2, 89970, Note_on_c, 0, 77, 0
2, 89970, Note_on_c, 0, 75, 64
2, 90000, Note_on_c, 0, 75, 0
2, 90000, Note_on_c, 0, 74, 64
2, 90030, Note_on_c, 0, 74, 0
2, 90030, Note_on_c, 0, 75, 64
2, 90060, Note_on_c, 0, 75, 0
2, 90060, Note_on_c, 0, 77, 64
2, 90090, Note_on_c, 0, 77, 0
2, 90090, Note_on_c, 0, 75, 64
2, 90120, Note_on_c, 0, 75, 0
2, 90120, Note_on_c, 0, 74, 64
2, 90150, Note_on_c, 0, 74, 0
2, 90150, Note_on_c, 0, 72, 64
2, 90180, Note_on_c, 0, 72, 0
2, 90180, Note_on_c, 0, 70, 64
2, 90210, Note_on_c, 0, 70, 0
2, 90210, Note_on_c, 0, 68, 64
2, 90240, Note_on_c, 0, 68, 0
2, 90240, Note_on_c, 0, 67, 64
2, 90270, Note_on_c, 0, 67, 0
2, 90270, Note_on_c, 0, 82, 64
2, 90300, Note_on_c, 0, 82, 0
2, 90300, Note_on_c, 0, 84, 64
2, 90330, Note_on_c, 0, 84, 0
2, 90330, Note_on_c, 0, 82, 64
2, 90360, Note_on_c, 0, 82, 0
2, 90360, Note_on_c, 0, 80, 64
2, 90390, Note_on_c, 0, 80, 0
2, 90390, Note_on_c, 0, 79, 64
2, 90420, Note_on_c, 0, 79, 0
2, 90420, Note_on_c, 0, 77, 64
2, 90450, Note_on_c, 0, 77, 0
2, 90450, Note_on_c, 0, 75, 64
2, 90480, Note_on_c, 0, 75, 0
2, 90480, Note_on_c, 0, 74, 64
2, 90510, Note_on_c, 0, 74, 0
2, 90510, Note_on_c, 0, 84, 64
2, 90540, Note_on_c, 0, 84, 0
2, 90540, Note_on_c, 0, 82, 64
2, 90570, Note_on_c, 0, 82, 0
2, 90570, Note_on_c, 0, 80, 64
2, 90600, Note_on_c, 0, 80, 0
2, 90600, Note_on_c, 0, 79, 64
2, 90630, Note_on_c, 0, 79, 0
2, 90630, Note_on_c, 0, 77, 64
2, 90660, Note_on_c, 0, 77, 0
2, 90660, Note_on_c, 0, 75, 64
2, 90690, Note_on_c, 0, 75, 0
2, 90690, Note_on_c, 0, 74, 64
2, 90720, Note_on_c, 0, 74, 0
2, 90720, Note_on_c, 0, 75, 48
2, 90750, Note_on_c, 0, 75, 0
2, 90750, Note_on_c, 0, 82, 48
2, 90780, Note_on_c, 0, 82, 0
2, 90780, Note_on_c, 0, 84, 48
2, 90810, Note_on_c, 0, 84, 0
2, 90810, Note_on_c, 0, 82, 48
2, 90840, Note_on_c, 0, 82, 0
2, 90840, Note_on_c, 0, 80, 48
2, 90870, Note_on_c, 0, 80, 0
2, 90870, Note_on_c, 0, 79, 48
2, 90900, Note_on_c, 0, 79, 0
2, 90900, Note_on_c, 0, 77, 48
2, 90930, Note_on_c, 0, 77, 0
2, 90930, Note_on_c, 0, 75, 48
2, 90960, Note_on_c, 0, 75, 0
2, 90960, Note_on_c, 0, 74, 48
2, 90990, Note_on_c, 0, 74, 0
2, 90990, Note_on_c, 0, 84, 48
2, 91020, Note_on_c, 0, 84, 0
2, 91020, Note_on_c, 0, 82, 48
2, 91050, Note_on_c, 0, 82, 0
2, 91050, Note_on_c, 0, 80, 48
2, 91080, Note_on_c, 0, 80, 0
2, 91080, Note_on_c, 0, 79, 48
2, 91110, Note_on_c, 0, 79, 0
2, 91110, Note_on_c, 0, 77, 48
2, 91140, Note_on_c, 0, 77, 0
2, 91140, Note_on_c, 0, 75, 48
2, 91170, Note_on_c, 0, 75, 0
2, 91170, Note_on_c, 0, 74, 48
2, 91200, Note_on_c, 0, 74, 0
2, 91200, Note_on_c, 0, 75, 48
2, 91224, Note_on_c, 0, 75, 0
2, 91230, Note_on_c, 0, 77, 48
2, 91254, Note_on_c, 0, 77, 0
2, 91260, Note_on_c, 0, 79, 48
2, 91284, Note_on_c, 0, 79, 0
2, 91290, Note_on_c, 0, 80, 48
2, 91314, Note_on_c, 0, 80, 0
2, 91320, Note_on_c, 0, 82, 48
2, 91344, Note_on_c, 0, 82, 0
2, 91350, Note_on_c, 0, 84, 48
2, 91374, Note_on_c, 0, 84, 0
2, 91380, Note_on_c, 0, 85, 48
2, 91404, Note_on_c, 0, 85, 0
2, 91410, Note_on_c, 0, 87, 48
2, 91434, Note_on_c, 0, 87, 0
2, 91440, Note_on_c, 0, 85, 48
2, 91464, Note_on_c, 0, 85, 0
2, 91470, Note_on_c, 0, 84, 48
2, 91494, Note_on_c, 0, 84, 0
2, 91500, Note_on_c, 0, 82, 48
2, 91524, Note_on_c, 0, 82, 0
2, 91530, Note_on_c, 0, 80, 48
2, 91554, Note_on_c, 0, 80, 0
2, 91560, Note_on_c, 0, 79, 48
2, 91584, Note_on_c, 0, 79, 0
2, 91590, Note_on_c, 0, 77, 48
2, 91614, Note_on_c, 0, 77, 0
2, 91620, Note_on_c, 0, 75, 48
2, 91644, Note_on_c, 0, 75, 0
2, 91650, Note_on_c, 0, 73, 48
2, 91674, Note_on_c, 0, 73, 0
2, 91680, Note_on_c, 0, 72, 48
2, 91728, Note_on_c, 0, 72, 0
2, 91740, Note_on_c, 0, 84, 48
2, 91758, Note_on_c, 0, 84, 0
2, 91800, Note_on_c, 0, 83, 48
2, 91818, Note_on_c, 0, 83, 0
2, 91860, Note_on_c, 0, 86, 48
2, 91878, Note_on_c, 0, 86, 0
2, 91920, Note_on_c, 0, 84, 48
2, 91968, Note_on_c, 0, 84, 0
2, 91980, Note_on_c, 0, 87, 48
2, 91998, Note_on_c, 0, 87, 0
2, 92040, Note_on_c, 0, 83, 48
2, 92058, Note_on_c, 0, 83, 0
2, 92100, Note_on_c, 0, 86, 48
2, 92118, Note_on_c, 0, 86, 0
2, 92160, Note_on_c, 0, 84, 48
2, 92208, Note_on_c, 0, 84, 0
2, 92220, Note_on_c, 0, 87, 48
2, 92238, Note_on_c, 0, 87, 0
2, 92280, Note_on_c, 0, 83, 48
2, 92298, Note_on_c, 0, 83, 0
2, 92340, Note_on_c, 0, 86, 48
2, 92358, Note_on_c, 0, 86, 0
2, 92400, Note_on_c, 0, 84, 48
2, 92460, Note_on_c, 0, 84, 0
2, 92460, Note_on_c, 0, 87, 48
2, 92520, Note_on_c, 0, 87, 0
2, 92520, Note_on_c, 0, 84, 48
2, 92560, Note_on_c, 0, 84, 0
2, 92560, Note_on_c, 0, 80, 48
2, 92600, Note_on_c, 0, 80, 0
2, 92600, Note_on_c, 0, 77, 48
2, 92640, Note_on_c, 0, 77, 0
2, 92640, Note_on_c, 0, 75, 48
2, 92760, Note_on_c, 0, 75, 0
2, 92760, Note_on_c, 0, 77, 48
2, 92790, Note_on_c, 0, 77, 0
2, 92790, Note_on_c, 0, 75, 48
2, 92820, Note_on_c, 0, 75, 0
2, 92820, Note_on_c, 0, 74, 48
2, 92850, Note_on_c, 0, 74, 0
2, 92850, Note_on_c, 0, 75, 48
2, 92880, Note_on_c, 0, 75, 0
2, 92880, Note_on_c, 0, 74, 48
2, 92880, Note_on_c, 0, 79, 48
2, 93060, Note_on_c, 0, 79, 0
2, 93060, Note_on_c, 0, 77, 48
2, 93120, Note_on_c, 0, 77, 0
2, 93120, Note_on_c, 0, 74, 0
2, 93120, Note_on_c, 0, 75, 48
2, 93216, Note_on_c, 0, 75, 0
2, 93330, Note_on_c, 0, 82, 40
2, 93354, Note_on_c, 0, 82, 0
2, 93360, Note_on_c, 0, 79, 40
2, 93390, Note_on_c, 0, 79, 0
2, 93450, Note_on_c, 0, 82, 40
2, 93474, Note_on_c, 0, 82, 0
2, 93480, Note_on_c, 0, 77, 40
2, 93510, Note_on_c, 0, 77, 0
2, 93570, Note_on_c, 0, 82, 40
2, 93594, Note_on_c, 0, 82, 0
2, 93600, Note_on_c, 0, 75, 40
2, 93630, Note_on_c, 0, 75, 0
2, 93690, Note_on_c, 0, 82, 40
2, 93714, Note_on_c, 0, 82, 0
2, 93720, Note_on_c, 0, 70, 40
2, 93750, Note_on_c, 0, 70, 0
2, 93810, Note_on_c, 0, 82, 40
2, 93834, Note_on_c, 0, 82, 0
2, 93840, Note_on_c, 0, 79, 40
2, 93870, Note_on_c, 0, 79, 0
2, 93930, Note_on_c, 0, 82, 40
2, 93954, Note_on_c, 0, 82, 0
2, 93960, Note_on_c, 0, 77, 40
2, 94008, Note_on_c, 0, 77, 0
2, 94050, Note_on_c, 0, 82, 40
2, 94074, Note_on_c, 0, 82, 0
2, 94080, Note_on_c, 0, 75, 40
2, 94128, Note_on_c, 0, 75, 0
2, 94170, Note_on_c, 0, 82, 40
2, 94194, Note_on_c, 0, 82, 0
2, 94200, Note_on_c, 0, 70, 40
2, 94248, Note_on_c, 0, 70, 0
2, 94290, Note_on_c, 0, 82, 40
2, 94314, Note_on_c, 0, 82, 0
2, 94320, Note_on_c, 0, 73, 40
2, 94368, Note_on_c, 0, 73, 0
2, 94410, Note_on_c, 0, 82, 40
2, 94434, Note_on_c, 0, 82, 0
2, 94440, Note_on_c, 0, 71, 40
2, 94488, Note_on_c, 0, 71, 0
2, 94530, Note_on_c, 0, 82, 40
2, 94554, Note_on_c, 0, 82, 0
2, 94560, Note_on_c, 0, 72, 40
2, 94608, Note_on_c, 0, 72, 0
2, 94650, Note_on_c, 0, 76, 40
2, 94674, Note_on_c, 0, 76, 0
2, 94680, Note_on_c, 0, 77, 40
2, 94728, Note_on_c, 0, 77, 0
2, 94770, Note_on_c, 0, 79, 40
2, 94794, Note_on_c, 0, 79, 0
2, 94800, Note_on_c, 0, 80, 40
2, 94848, Note_on_c, 0, 80, 0
2, 94890, Note_on_c, 0, 79, 40
2, 94914, Note_on_c, 0, 79, 0
2, 94920, Note_on_c, 0, 77, 40
2, 94968, Note_on_c, 0, 77, 0
2, 95010, Note_on_c, 0, 75, 40
2, 95034, Note_on_c, 0, 75, 0
2, 95040, Note_on_c, 0, 74, 56
2, 95088, Note_on_c, 0, 74, 0
2, 95130, Note_on_c, 0, 84, 56
2, 95154, Note_on_c, 0, 84, 0
2, 95160, Note_on_c, 0, 82, 56
2, 95208, Note_on_c, 0, 82, 0
2, 95250, Note_on_c, 0, 81, 56
2, 95274, Note_on_c, 0, 81, 0
2, 95280, Note_on_c, 0, 82, 56
2, 95328, Note_on_c, 0, 82, 0
2, 95370, Note_on_c, 0, 84, 56
2, 95394, Note_on_c, 0, 84, 0
2, 95400, Note_on_c, 0, 82, 56
2, 95448, Note_on_c, 0, 82, 0
2, 95490, Note_on_c, 0, 80, 56
2, 95514, Note_on_c, 0, 80, 0
2, 95520, Note_on_c, 0, 78, 64
2, 95544, Note_on_c, 0, 78, 0
2, 95550, Note_on_c, 0, 80, 64
2, 95574, Note_on_c, 0, 80, 0
2, 95580, Note_on_c, 0, 78, 64
2, 95604, Note_on_c, 0, 78, 0
2, 95610, Note_on_c, 0, 77, 64
2, 95634, Note_on_c, 0, 77, 0
2, 95640, Note_on_c, 0, 75, 64
2, 95658, Note_on_c, 0, 75, 0
2, 95700, Note_on_c, 0, 75, 64
2, 95718, Note_on_c, 0, 75, 0
2, 95760, Note_on_c, 0, 80, 64
2, 95784, Note_on_c, 0, 80, 0
2, 95790, Note_on_c, 0, 82, 64
2, 95814, Note_on_c, 0, 82, 0
2, 95820, Note_on_c, 0, 80, 64
2, 95844, Note_on_c, 0, 80, 0
2, 95850, Note_on_c, 0, 78, 64
2, 95874, Note_on_c, 0, 78, 0
2, 95880, Note_on_c, 0, 77, 64
2, 95898, Note_on_c, 0, 77, 0
2, 95940, Note_on_c, 0, 77, 64
2, 95958, Note_on_c, 0, 77, 0
2, 96000, Note_on_c, 0, 78, 48
2, 96024, Note_on_c, 0, 78, 0
2, 96030, Note_on_c, 0, 80, 48
2, 96054, Note_on_c, 0, 80, 0
2, 96060, Note_on_c, 0, 78, 48
2, 96084, Note_on_c, 0, 78, 0
2, 96090, Note_on_c, 0, 77, 48
2, 96114, Note_on_c, 0, 77, 0
2, 96120, Note_on_c, 0, 75, 48
2, 96150, Note_on_c, 0, 75, 0
2, 96180, Note_on_c, 0, 75, 48
2, 96210, Note_on_c, 0, 75, 0
2, 96240, Note_on_c, 0, 80, 48
2, 96264, Note_on_c, 0, 80, 0
2, 96270, Note_on_c, 0, 82, 48
2, 96294, Note_on_c, 0, 82, 0
2, 96300, Note_on_c, 0, 80, 48
2, 96324, Note_on_c, 0, 80, 0
2, 96330, Note_on_c, 0, 78, 48
2, 96354, Note_on_c, 0, 78, 0
2, 96360, Note_on_c, 0, 77, 48
2, 96390, Note_on_c, 0, 77, 0
2, 96420, Note_on_c, 0, 77, 48
2, 96450, Note_on_c, 0, 77, 0
2, 96480, Note_on_c, 0, 78, 48
2, 96504, Note_on_c, 0, 78, 0
2, 96510, Note_on_c, 0, 80, 48
2, 96534, Note_on_c, 0, 80, 0
2, 96540, Note_on_c, 0, 78, 48
2, 96564, Note_on_c, 0, 78, 0
2, 96570, Note_on_c, 0, 77, 48
2, 96594, Note_on_c, 0, 77, 0
2, 96600, Note_on_c, 0, 75, 48
2, 96624, Note_on_c, 0, 75, 0
2, 96630, Note_on_c, 0, 77, 48
2, 96654, Note_on_c, 0, 77, 0
2, 96660, Note_on_c, 0, 75, 48
2, 96684, Note_on_c, 0, 75, 0
2, 96690, Note_on_c, 0, 73, 48
2, 96714, Note_on_c, 0, 73, 0
2, 96720, Note_on_c, 0, 71, 48
2, 96744, Note_on_c, 0, 71, 0
2, 96750, Note_on_c, 0, 73, 48
2, 96774, Note_on_c, 0, 73, 0
2, 96780, Note_on_c, 0, 71, 48
2, 96804, Note_on_c, 0, 71, 0
2, 96810, Note_on_c, 0, 70, 48
2, 96834, Note_on_c, 0, 70, 0
2, 96840, Note_on_c, 0, 68, 48
2, 96864, Note_on_c, 0, 68, 0
2, 96870, Note_on_c, 0, 70, 48
2, 96894, Note_on_c, 0, 70, 0
2, 96900, Note_on_c, 0, 68, 48
2, 96924, Note_on_c, 0, 68, 0
2, 96930, Note_on_c, 0, 66, 48
2, 96954, Note_on_c, 0, 66, 0
2, 96960, Note_on_c, 0, 65, 48
2, 96984, Note_on_c, 0, 65, 0
2, 96990, Note_on_c, 0, 66, 48
2, 97014, Note_on_c, 0, 66, 0
2, 97020, Note_on_c, 0, 68, 48
2, 97044, Note_on_c, 0, 68, 0
2, 97050, Note_on_c, 0, 66, 48
2, 97074, Note_on_c, 0, 66, 0
2, 97080, Note_on_c, 0, 65, 48
2, 97104, Note_on_c, 0, 65, 0
2, 97110, Note_on_c, 0, 66, 48
2, 97134, Note_on_c, 0, 66, 0
2, 97140, Note_on_c, 0, 68, 48
2, 97164, Note_on_c, 0, 68, 0
2, 97170, Note_on_c, 0, 66, 48
2, 97194, Note_on_c, 0, 66, 0
2, 97200, Note_on_c, 0, 65, 48
2, 97224, Note_on_c, 0, 65, 0
2, 97230, Note_on_c, 0, 66, 48
2, 97254, Note_on_c, 0, 66, 0
2, 97260, Note_on_c, 0, 68, 48
2, 97284, Note_on_c, 0, 68, 0
2, 97290, Note_on_c, 0, 66, 48
2, 97314, Note_on_c, 0, 66, 0
2, 97320, Note_on_c, 0, 65, 48
2, 97344, Note_on_c, 0, 65, 0
2, 97350, Note_on_c, 0, 66, 48
2, 97374, Note_on_c, 0, 66, 0
2, 97380, Note_on_c, 0, 68, 48
2, 97404, Note_on_c, 0, 68, 0
2, 97410, Note_on_c, 0, 66, 48
2, 97434, Note_on_c, 0, 66, 0
2, 97440, Note_on_c, 0, 65, 48
2, 97464, Note_on_c, 0, 65, 0
2, 97470, Note_on_c, 0, 66, 48
2, 97494, Note_on_c, 0, 66, 0
2, 97500, Note_on_c, 0, 68, 48
2, 97524, Note_on_c, 0, 68, 0
2, 97530, Note_on_c, 0, 66, 48
2, 97554, Note_on_c, 0, 66, 0
2, 97560, Note_on_c, 0, 65, 48
2, 97584, Note_on_c, 0, 65, 0
2, 97590, Note_on_c, 0, 66, 48
2, 97614, Note_on_c, 0, 66, 0
2, 97620, Note_on_c, 0, 68, 48
2, 97644, Note_on_c, 0, 68, 0
2, 97650, Note_on_c, 0, 66, 48
2, 97674, Note_on_c, 0, 66, 0
2, 97680, Note_on_c, 0, 65, 48
2, 97704, Note_on_c, 0, 65, 0
2, 97710, Note_on_c, 0, 66, 48
2, 97734, Note_on_c, 0, 66, 0
2, 97740, Note_on_c, 0, 68, 48
2, 97764, Note_on_c, 0, 68, 0
2, 97770, Note_on_c, 0, 66, 48
2, 97794, Note_on_c, 0, 66, 0
2, 97800, Note_on_c, 0, 65, 48
2, 97824, Note_on_c, 0, 65, 0
2, 97830, Note_on_c, 0, 66, 48
2, 97854, Note_on_c, 0, 66, 0
2, 97860, Note_on_c, 0, 68, 48
2, 97884, Note_on_c, 0, 68, 0
2, 97890, Note_on_c, 0, 66, 48
2, 97914, Note_on_c, 0, 66, 0
2, 97920, Note_on_c, 0, 65, 48
2, 97944, Note_on_c, 0, 65, 0
2, 97950, Note_on_c, 0, 67, 49
2, 97974, Note_on_c, 0, 67, 0
2, 97980, Note_on_c, 0, 68, 50
2, 98004, Note_on_c, 0, 68, 0
2, 98010, Note_on_c, 0, 67, 51
2, 98034, Note_on_c, 0, 67, 0
2, 98040, Note_on_c, 0, 65, 52
2, 98064, Note_on_c, 0, 65, 0
2, 98070, Note_on_c, 0, 67, 53
2, 98094, Note_on_c, 0, 67, 0
2, 98100, Note_on_c, 0, 68, 54
2, 98124, Note_on_c, 0, 68, 0
2, 98130, Note_on_c, 0, 67, 55
2, 98154, Note_on_c, 0, 67, 0
2, 98160, Note_on_c, 0, 65, 56
2, 98184, Note_on_c, 0, 65, 0
2, 98190, Note_on_c, 0, 67, 57
2, 98214, Note_on_c, 0, 67, 0
2, 98220, Note_on_c, 0, 68, 58
2, 98244, Note_on_c, 0, 68, 0
2, 98250, Note_on_c, 0, 67, 59
2, 98274, Note_on_c, 0, 67, 0
2, 98280, Note_on_c, 0, 65, 60
2, 98304, Note_on_c, 0, 65, 0
2, 98310, Note_on_c, 0, 67, 61
2, 98334, Note_on_c, 0, 67, 0
2, 98340, Note_on_c, 0, 68, 62
2, 98364, Note_on_c, 0, 68, 0
2, 98370, Note_on_c, 0, 67, 63
2, 98394, Note_on_c, 0, 67, 0
2, 98400, Note_on_c, 0, 65, 64
2, 98424, Note_on_c, 0, 65, 0
2, 98430, Note_on_c, 0, 67, 65
2, 98454, Note_on_c, 0, 67, 0
2, 98460, Note_on_c, 0, 68, 66
2, 98484, Note_on_c, 0, 68, 0
2, 98490, Note_on_c, 0, 67, 67
2, 98514, Note_on_c, 0, 67, 0
2, 98520, Note_on_c, 0, 65, 68
2, 98544, Note_on_c, 0, 65, 0
2, 98550, Note_on_c, 0, 67, 69
2, 98574, Note_on_c, 0, 67, 0
2, 98580, Note_on_c, 0, 68, 70
2, 98604, Note_on_c, 0, 68, 0
2, 98610, Note_on_c, 0, 67, 71
2, 98634, Note_on_c, 0, 67, 0
2, 98640, Note_on_c, 0, 65, 72
2, 98664, Note_on_c, 0, 65, 0
2, 98670, Note_on_c, 0, 67, 73
2, 98694, Note_on_c, 0, 67, 0
2, 98700, Note_on_c, 0, 68, 74
2, 98724, Note_on_c, 0, 68, 0
2, 98730, Note_on_c, 0, 70, 75
2, 98754, Note_on_c, 0, 70, 0
2, 98760, Note_on_c, 0, 72, 76
2, 98784, Note_on_c, 0, 72, 0
2, 98790, Note_on_c, 0, 74, 77
2, 98814, Note_on_c, 0, 74, 0
2, 98820, Note_on_c, 0, 75, 78
2, 98844, Note_on_c, 0, 75, 0
2, 98850, Note_on_c, 0, 77, 79
2, 98874, Note_on_c, 0, 77, 0
2, 98880, Note_on_c, 0, 79, 80
2, 98880, Note_on_c, 0, 75, 80
2, 99072, Note_on_c, 0, 75, 0
2, 99072, Note_on_c, 0, 79, 0
2, 99120, Note_on_c, 0, 82, 80
2, 99120, Note_on_c, 0, 77, 80
2, 99312, Note_on_c, 0, 77, 0
2, 99312, Note_on_c, 0, 82, 0
2, 99360, Note_on_c, 0, 87, 80
2, 99360, Note_on_c, 0, 80, 80
2, 99360, Note_on_c, 0, 75, 80
2, 99552, Note_on_c, 0, 75, 0
2, 99552, Note_on_c, 0, 80, 0
2, 99744, Note_on_c, 0, 87, 0
2, 99780, Note_on_c, 0, 86, 80
2, 99796, Note_on_c, 0, 86, 0
2, 99800, Note_on_c, 0, 84, 80
2, 99816, Note_on_c, 0, 84, 0
2, 99820, Note_on_c, 0, 82, 80
2, 99836, Note_on_c, 0, 82, 0
2, 99840, Note_on_c, 0, 80, 80
2, 99936, Note_on_c, 0, 80, 0
2, 100020, Note_on_c, 0, 79, 80
2, 100068, Note_on_c, 0, 79, 0
2, 100080, Note_on_c, 0, 84, 80
2, 100176, Note_on_c, 0, 84, 0
2, 100260, Note_on_c, 0, 75, 80
2, 100260, Note_on_c, 0, 82, 80
2, 100308, Note_on_c, 0, 82, 0
2, 100320, Note_on_c, 0, 81, 80
2, 100512, Note_on_c, 0, 81, 0
2, 100512, Note_on_c, 0, 75, 0
2, 100620, Note_on_c, 0, 80, 48
2, 100620, Note_on_c, 0, 84, 48
2, 100644, Note_on_c, 0, 84, 0
2, 100644, Note_on_c, 0, 80, 0
2, 100680, Note_on_c, 0, 79, 48
2, 100680, Note_on_c, 0, 82, 48
2, 100704, Note_on_c, 0, 82, 0
2, 100704, Note_on_c, 0, 79, 0
2, 100740, Note_on_c, 0, 77, 48
2, 100740, Note_on_c, 0, 80, 48
2, 100764, Note_on_c, 0, 80, 0
2, 100764, Note_on_c, 0, 77, 0
2, 100800, Note_on_c, 0, 79, 48
2, 100800, Note_on_c, 0, 75, 48
2, 100992, Note_on_c, 0, 75, 0
2, 100992, Note_on_c, 0, 79, 0
2, 101100, Note_on_c, 0, 80, 48
2, 101100, Note_on_c, 0, 84, 48
2, 101112, Note_on_c, 0, 84, 0
2, 101112, Note_on_c, 0, 80, 0
2, 101160, Note_on_c, 0, 79, 48
2, 101160, Note_on_c, 0, 82, 48
2, 101172, Note_on_c, 0, 82, 0
2, 101172, Note_on_c, 0, 79, 0
2, 101220, Note_on_c, 0, 77, 48
2, 101220, Note_on_c, 0, 80, 48
2, 101232, Note_on_c, 0, 80, 0
2, 101232, Note_on_c, 0, 77, 0
2, 101280, Note_on_c, 0, 75, 48
2, 101280, Note_on_c, 0, 79, 48
2, 101472, Note_on_c, 0, 79, 0
2, 101472, Note_on_c, 0, 75, 0
2, 101580, Note_on_c, 0, 80, 48
2, 101580, Note_on_c, 0, 84, 48
2, 101628, Note_on_c, 0, 84, 0
2, 101628, Note_on_c, 0, 80, 0
2, 101640, Note_on_c, 0, 79, 56
2, 101640, Note_on_c, 0, 82, 56
2, 101688, Note_on_c, 0, 82, 0
2, 101688, Note_on_c, 0, 79, 0
2, 101700, Note_on_c, 0, 77, 64
2, 101700, Note_on_c, 0, 80, 64
2, 101748, Note_on_c, 0, 80, 0
2, 101748, Note_on_c, 0, 77, 0
2, 101760, Note_on_c, 0, 79, 72
2, 101760, Note_on_c, 0, 75, 72
2, 101808, Note_on_c, 0, 75, 0
2, 101808, Note_on_c, 0, 79, 0
2, 101820, Note_on_c, 0, 82, 80
2, 101820, Note_on_c, 0, 87, 80
2, 101868, Note_on_c, 0, 87, 0
2, 101868, Note_on_c, 0, 82, 0
2, 101880, Note_on_c, 0, 80, 80
2, 101880, Note_on_c, 0, 86, 80
2, 101928, Note_on_c, 0, 86, 0
2, 101928, Note_on_c, 0, 80, 0
2, 101940, Note_on_c, 0, 79, 80
2, 101940, Note_on_c, 0, 84, 80
2, 101988, Note_on_c, 0, 84, 0
2, 101988, Note_on_c, 0, 79, 0
2, 102000, Note_on_c, 0, 77, 80
2, 102000, Note_on_c, 0, 82, 80
2, 102048, Note_on_c, 0, 82, 0
2, 102048, Note_on_c, 0, 77, 0
2, 102060, Note_on_c, 0, 80, 80
2, 102108, Note_on_c, 0, 80, 0
2, 102120, Note_on_c, 0, 79, 80
2, 102168, Note_on_c, 0, 79, 0
2, 102180, Note_on_c, 0, 77, 80
2, 102228, Note_on_c, 0, 77, 0
2, 102240, Note_on_c, 0, 76, 80
2, 102480, Note_on_c, 0, 76, 0
2, 102480, Note_on_c, 0, 77, 80
2, 102576, Note_on_c, 0, 77, 0
2, 102720, Note_on_c, 0, 70, 64
2, 102720, Note_on_c, 0, 74, 64
2, 102960, Note_on_c, 0, 74, 0
2, 102960, Note_on_c, 0, 75, 64
2, 103056, Note_on_c, 0, 75, 0
2, 103056, Note_on_c, 0, 70, 0
2, 103680, Note_on_c, 0, 60, 40
2, 103680, Note_on_c, 0, 72, 40
2, 104160, Note_on_c, 0, 72, 0
2, 104160, Note_on_c, 0, 60, 0
2, 104160, Note_on_c, 0, 59, 40
2, 104160, Note_on_c, 0, 71, 40
2, 104640, Note_on_c, 0, 71, 0
2, 104640, Note_on_c, 0, 59, 0
2, 104640, Note_on_c, 0, 57, 40
2, 104640, Note_on_c, 0, 69, 40
2, 105120, Note_on_c, 0, 69, 0
2, 105120, Note_on_c, 0, 57, 0
2, 105120, Note_on_c, 0, 56, 40
2, 105120, Note_on_c, 0, 68, 40
2, 105360, Note_on_c, 0, 68, 0
2, 105360, Note_on_c, 0, 56, 0
2, 105360, Note_on_c, 0, 57, 40
2, 105360, Note_on_c, 0, 69, 40
2, 105600, Note_on_c, 0, 69, 0
2, 105600, Note_on_c, 0, 57, 0
2, 105600, Note_on_c, 0, 70, 80
2, 105600, Note_on_c, 0, 67, 80
2, 105600, Note_on_c, 0, 63, 80
2, 105600, Note_on_c, 0, 58, 80
2, 105792, Note_on_c, 0, 58, 0
2, 105792, Note_on_c, 0, 70, 0
2, 105792, Note_on_c, 0, 67, 0
2, 105792, Note_on_c, 0, 63, 0
2, 105840, Note_on_c, 0, 67, 80
2, 105840, Note_on_c, 0, 70, 80
2, 105840, Note_on_c, 0, 75, 80
2, 105900, Note_on_c, 0, 75, 0
2, 105900, Note_on_c, 0, 70, 0
2, 105900, Note_on_c, 0, 67, 0
2, 105960, Note_on_c, 0, 70, 80
2, 105960, Note_on_c, 0, 75, 80
2, 105960, Note_on_c, 0, 79, 80
2, 106020, Note_on_c, 0, 79, 0
2, 106020, Note_on_c, 0, 75, 0
2, 106020, Note_on_c, 0, 70, 0
2, 106080, Note_on_c, 0, 75, 80
2, 106080, Note_on_c, 0, 79, 80
2, 106080, Note_on_c, 0, 82, 80
2, 106140, Note_on_c, 0, 82, 0
2, 106140, Note_on_c, 0, 79, 0
2, 106140, Note_on_c, 0, 75, 0
2, 106260, Note_on_c, 0, 79, 80
2, 106260, Note_on_c, 0, 75, 80
2, 106320, Note_on_c, 0, 75, 0
2, 106320, Note_on_c, 0, 79, 0
2, 106320, Note_on_c, 0, 79, 80
2, 106320, Note_on_c, 0, 82, 80
2, 106338, Note_on_c, 0, 82, 0
2, 106338, Note_on_c, 0, 79, 0
2, 106380, Note_on_c, 0, 75, 80
2, 106380, Note_on_c, 0, 79, 80
2, 106398, Note_on_c, 0, 79, 0
2, 106398, Note_on_c, 0, 75, 0
2, 106440, Note_on_c, 0, 79, 80
2, 106440, Note_on_c, 0, 82, 80
2, 106458, Note_on_c, 0, 82, 0
2, 106458, Note_on_c, 0, 79, 0
2, 106500, Note_on_c, 0, 75, 80
2, 106500, Note_on_c, 0, 79, 80
2, 106518, Note_on_c, 0, 79, 0
2, 106518, Note_on_c, 0, 75, 0
2, 106560, Note_on_c, 0, 79, 80
2, 106560, Note_on_c, 0, 82, 80
2, 106620, Note_on_c, 0, 82, 0
2, 106620, Note_on_c, 0, 79, 0
2, 106800, Note_on_c, 0, 65, 80
2, 106800, Note_on_c, 0, 68, 80
2, 106800, Note_on_c, 0, 70, 80
2, 106800, Note_on_c, 0, 74, 80
2, 106896, Note_on_c, 0, 74, 0
2, 106896, Note_on_c, 0, 65, 0
2, 106896, Note_on_c, 0, 68, 0
2, 106896, Note_on_c, 0, 70, 0
2, 107040, Note_on_c, 0, 75, 56
2, 107064, Note_on_c, 0, 75, 0
2, 107070, Note_on_c, 0, 79, 56
2, 107094, Note_on_c, 0, 79, 0
2, 107100, Note_on_c, 0, 77, 56
2, 107124, Note_on_c, 0, 77, 0
2, 107130, Note_on_c, 0, 75, 56
2, 107154, Note_on_c, 0, 75, 0
2, 107160, Note_on_c, 0, 74, 56
2, 107184, Note_on_c, 0, 74, 0
2, 107190, Note_on_c, 0, 72, 56
2, 107214, Note_on_c, 0, 72, 0
2, 107220, Note_on_c, 0, 70, 56
2, 107244, Note_on_c, 0, 70, 0
2, 107250, Note_on_c, 0, 69, 56
2, 107274, Note_on_c, 0, 69, 0
2, 107280, Note_on_c, 0, 68, 56
2, 107304, Note_on_c, 0, 68, 0
2, 107310, Note_on_c, 0, 72, 56
2, 107334, Note_on_c, 0, 72, 0
2, 107340, Note_on_c, 0, 70, 56
2, 107364, Note_on_c, 0, 70, 0
2, 107370, Note_on_c, 0, 68, 56
2, 107394, Note_on_c, 0, 68, 0
2, 107400, Note_on_c, 0, 67, 56
2, 107424, Note_on_c, 0, 67, 0
2, 107430, Note_on_c, 0, 65, 56
2, 107454, Note_on_c, 0, 65, 0
2, 107460, Note_on_c, 0, 63, 56
2, 107484, Note_on_c, 0, 63, 0
2, 107490, Note_on_c, 0, 62, 56
2, 107514, Note_on_c, 0, 62, 0
2, 107520, Note_on_c, 0, 63, 56
2, 107544, Note_on_c, 0, 63, 0
2, 107550, Note_on_c, 0, 79, 57
2, 107574, Note_on_c, 0, 79, 0
2, 107580, Note_on_c, 0, 77, 57
2, 107604, Note_on_c, 0, 77, 0
2, 107610, Note_on_c, 0, 75, 58
2, 107634, Note_on_c, 0, 75, 0
2, 107640, Note_on_c, 0, 74, 58
2, 107664, Note_on_c, 0, 74, 0
2, 107670, Note_on_c, 0, 72, 59
2, 107694, Note_on_c, 0, 72, 0
2, 107700, Note_on_c, 0, 70, 59
2, 107724, Note_on_c, 0, 70, 0
2, 107730, Note_on_c, 0, 69, 60
2, 107754, Note_on_c, 0, 69, 0
2, 107760, Note_on_c, 0, 68, 60
2, 107784, Note_on_c, 0, 68, 0
2, 107790, Note_on_c, 0, 72, 61
2, 107814, Note_on_c, 0, 72, 0
2, 107820, Note_on_c, 0, 70, 61
2, 107844, Note_on_c, 0, 70, 0
2, 107850, Note_on_c, 0, 68, 62
2, 107874, Note_on_c, 0, 68, 0
2, 107880, Note_on_c, 0, 67, 62
2, 107904, Note_on_c, 0, 67, 0
2, 107910, Note_on_c, 0, 65, 63
2, 107934, Note_on_c, 0, 65, 0
2, 107940, Note_on_c, 0, 63, 63
2, 107964, Note_on_c, 0, 63, 0
2, 107970, Note_on_c, 0, 62, 64
2, 107994, Note_on_c, 0, 62, 0
2, 108000, Note_on_c, 0, 63, 64
2, 108024, Note_on_c, 0, 63, 0
2, 108030, Note_on_c, 0, 62, 65
2, 108054, Note_on_c, 0, 62, 0
2, 108060, Note_on_c, 0, 63, 65
2, 108084, Note_on_c, 0, 63, 0
2, 108090, Note_on_c, 0, 67, 66
2, 108114, Note_on_c, 0, 67, 0
2, 108120, Note_on_c, 0, 67, 66
2, 108144, Note_on_c, 0, 67, 0
2, 108150, Note_on_c, 0, 66, 67
2, 108174, Note_on_c, 0, 66, 0
2, 108180, Note_on_c, 0, 67, 67
2, 108204, Note_on_c, 0, 67, 0
2, 108210, Note_on_c, 0, 70, 68
2, 108234, Note_on_c, 0, 70, 0
2, 108240, Note_on_c, 0, 70, 68
2, 108264, Note_on_c, 0, 70, 0
2, 108270, Note_on_c, 0, 69, 69
2, 108294, Note_on_c, 0, 69, 0
2, 108300, Note_on_c, 0, 70, 69
2, 108324, Note_on_c, 0, 70, 0
2, 108330, Note_on_c, 0, 75, 70
2, 108354, Note_on_c, 0, 75, 0
2, 108360, Note_on_c, 0, 75, 70
2, 108384, Note_on_c, 0, 75, 0
2, 108390, Note_on_c, 0, 74, 71
2, 108414, Note_on_c, 0, 74, 0
2, 108420, Note_on_c, 0, 75, 71
2, 108444, Note_on_c, 0, 75, 0
2, 108450, Note_on_c, 0, 79, 72
2, 108474, Note_on_c, 0, 79, 0
2, 108480, Note_on_c, 0, 79, 72
2, 108504, Note_on_c, 0, 79, 0
2, 108510, Note_on_c, 0, 78, 73
2, 108534, Note_on_c, 0, 78, 0
2, 108540, Note_on_c, 0, 79, 73
2, 108564, Note_on_c, 0, 79, 0
2, 108570, Note_on_c, 0, 82, 74
2, 108594, Note_on_c, 0, 82, 0
2, 108600, Note_on_c, 0, 82, 74
2, 108624, Note_on_c, 0, 82, 0
2, 108630, Note_on_c, 0, 81, 75
2, 108654, Note_on_c, 0, 81, 0
2, 108660, Note_on_c, 0, 82, 75
2, 108684, Note_on_c, 0, 82, 0
2, 108690, Note_on_c, 0, 87, 76
2, 108714, Note_on_c, 0, 87, 0
2, 108720, Note_on_c, 0, 87, 76
2, 108744, Note_on_c, 0, 87, 0
2, 108750, Note_on_c, 0, 82, 77
2, 108774, Note_on_c, 0, 82, 0
2, 108780, Note_on_c, 0, 81, 77
2, 108804, Note_on_c, 0, 81, 0
2, 108810, Note_on_c, 0, 82, 78
2, 108834, Note_on_c, 0, 82, 0
2, 108840, Note_on_c, 0, 86, 78
2, 108864, Note_on_c, 0, 86, 0
2, 108870, Note_on_c, 0, 82, 79
2, 108894, Note_on_c, 0, 82, 0
2, 108900, Note_on_c, 0, 81, 79
2, 108924, Note_on_c, 0, 81, 0
2, 108930, Note_on_c, 0, 82, 80
2, 108954, Note_on_c, 0, 82, 0
2, 108960, Note_on_c, 0, 87, 80
2, 108984, Note_on_c, 0, 87, 0
2, 108990, Note_on_c, 0, 82, 81
2, 109014, Note_on_c, 0, 82, 0
2, 109020, Note_on_c, 0, 81, 81
2, 109044, Note_on_c, 0, 81, 0
2, 109050, Note_on_c, 0, 82, 82
2, 109074, Note_on_c, 0, 82, 0
2, 109080, Note_on_c, 0, 86, 82
2, 109104, Note_on_c, 0, 86, 0
2, 109110, Note_on_c, 0, 82, 83
2, 109134, Note_on_c, 0, 82, 0
2, 109140, Note_on_c, 0, 81, 83
2, 109164, Note_on_c, 0, 81, 0
2, 109170, Note_on_c, 0, 82, 84
2, 109194, Note_on_c, 0, 82, 0
2, 109200, Note_on_c, 0, 87, 84
2, 109224, Note_on_c, 0, 87, 0
2, 109230, Note_on_c, 0, 82, 85
2, 109254, Note_on_c, 0, 82, 0
2, 109260, Note_on_c, 0, 81, 85
2, 109284, Note_on_c, 0, 81, 0
2, 109290, Note_on_c, 0, 82, 86
2, 109314, Note_on_c, 0, 82, 0
2, 109320, Note_on_c, 0, 86, 86
2, 109344, Note_on_c, 0, 86, 0
2, 109350, Note_on_c, 0, 82, 87
2, 109374, Note_on_c, 0, 82, 0
2, 109380, Note_on_c, 0, 81, 87
2, 109404, Note_on_c, 0, 81, 0
2, 109410, Note_on_c, 0, 82, 88
2, 109434, Note_on_c, 0, 82, 0
2, 109440, Note_on_c, 0, 87, 88
2, 109536, Note_on_c, 0, 87, 0
2, 109560, Note_on_c, 0, 75, 88
2, 109560, Note_on_c, 0, 79, 88
2, 109656, Note_on_c, 0, 79, 0
2, 109656, Note_on_c, 0, 75, 0
2, 109680, Note_on_c, 0, 79, 88
2, 109680, Note_on_c, 0, 82, 88
2, 109740, Note_on_c, 0, 82, 0
2, 109740, Note_on_c, 0, 79, 0
2, 109800, Note_on_c, 0, 75, 88
2, 109800, Note_on_c, 0, 79, 88
2, 109896, Note_on_c, 0, 79, 0
2, 109896, Note_on_c, 0, 75, 0
2, 109920, Note_on_c, 0, 79, 88
2, 109920, Note_on_c, 0, 82, 88
2, 109973, Note_on_c, 0, 82, 0
2, 109973, Note_on_c, 0, 79, 0
2, 110025, Note_on_c, 0, 50, 88
2, 110033, Note_on_c, 0, 50, 0
2, 110040, Note_on_c, 0, 51, 88
2, 110093, Note_on_c, 0, 51, 0
2, 110145, Note_on_c, 0, 45, 88
2, 110153, Note_on_c, 0, 45, 0
2, 110160, Note_on_c, 0, 46, 88
2, 110213, Note_on_c, 0, 46, 0
2, 110265, Note_on_c, 0, 63, 88
2, 110273, Note_on_c, 0, 63, 0
2, 110280, Note_on_c, 0, 43, 88
2, 110340, Note_on_c, 0, 43, 0
2, 110400, Note_on_c, 0, 39, 88
2, 110520, Note_on_c, 0, 39, 0
2, 110640, Note_on_c, 0, 87, 88
2, 110640, Note_on_c, 0, 82, 88
2, 110640, Note_on_c, 0, 79, 88
2, 110760, Note_on_c, 0, 79, 0
2, 110760, Note_on_c, 0, 82, 0
2, 110760, Note_on_c, 0, 87, 0
2, 110880, Note_on_c, 0, 55, 88
2, 110880, Note_on_c, 0, 58, 88
2, 110880, Note_on_c, 0, 63, 88
2, 111072, Note_on_c, 0, 63, 0
2, 111072, Note_on_c, 0, 58, 0
2, 111072, Note_on_c, 0, 55, 0
2, 111072, End_track
3, 0, Start_track
3, 0, MIDI_port, 0
3, 0, Title_t, "by F.J. Haydn  -  1st mvmt. (allegro moderato)"
3, 0, Program_c, 1, 0
3, 0, Control_c, 1, 7, 127
3, 0, Control_c, 1, 10, 56
3, 0, Note_on_c, 1, 39, 76
3, 15, Note_on_c, 1, 43, 76
3, 30, Note_on_c, 1, 46, 76
3, 45, Note_on_c, 1, 51, 76
3, 240, Note_on_c, 1, 51, 0
3, 240, Note_on_c, 1, 39, 0
3, 240, Note_on_c, 1, 43, 0
3, 240, Note_on_c, 1, 46, 0
3, 240, Note_on_c, 1, 46, 76
3, 240, Note_on_c, 1, 43, 76
3, 240, Note_on_c, 1, 39, 76
3, 240, Note_on_c, 1, 49, 76
3, 420, Note_on_c, 1, 49, 0
3, 420, Note_on_c, 1, 46, 0
3, 420, Note_on_c, 1, 43, 0
3, 420, Note_on_c, 1, 39, 0
3, 420, Note_on_c, 1, 39, 76
3, 420, Note_on_c, 1, 43, 76
3, 420, Note_on_c, 1, 46, 76
3, 420, Note_on_c, 1, 49, 76
3, 480, Note_on_c, 1, 49, 0
3, 480, Note_on_c, 1, 39, 0
3, 480, Note_on_c, 1, 43, 0
3, 480, Note_on_c, 1, 46, 0
3, 480, Note_on_c, 1, 39, 76
3, 480, Note_on_c, 1, 48, 76
3, 480, Note_on_c, 1, 44, 76
3, 840, Note_on_c, 1, 44, 0
3, 840, Note_on_c, 1, 48, 0
3, 840, Note_on_c, 1, 39, 0
3, 885, Note_on_c, 1, 39, 76
3, 900, Note_on_c, 1, 41, 76
3, 915, Note_on_c, 1, 46, 76
3, 930, Note_on_c, 1, 50, 76
3, 1080, Note_on_c, 1, 50, 0
3, 1080, Note_on_c, 1, 39, 0
3, 1080, Note_on_c, 1, 41, 0
3, 1080, Note_on_c, 1, 46, 0
3, 1200, Note_on_c, 1, 65, 76
3, 1200, Note_on_c, 1, 62, 76
3, 1200, Note_on_c, 1, 50, 76
3, 1200, Note_on_c, 1, 44, 76
3, 1200, Note_on_c, 1, 41, 76
3, 1200, Note_on_c, 1, 39, 76
3, 1320, Note_on_c, 1, 39, 0
3, 1320, Note_on_c, 1, 62, 0
3, 1320, Note_on_c, 1, 50, 0
3, 1320, Note_on_c, 1, 65, 0
3, 1320, Note_on_c, 1, 41, 0
3, 1320, Note_on_c, 1, 44, 0
3, 1380, Note_on_c, 1, 39, 76
3, 1395, Note_on_c, 1, 43, 76
3, 1410, Note_on_c, 1, 46, 76
3, 1425, Note_on_c, 1, 51, 76
3, 1440, Note_on_c, 1, 51, 0
3, 1440, Note_on_c, 1, 43, 0
3, 1440, Note_on_c, 1, 43, 76
3, 1440, Note_on_c, 1, 51, 76
3, 1680, Note_on_c, 1, 51, 0
3, 1680, Note_on_c, 1, 39, 0
3, 1680, Note_on_c, 1, 46, 0
3, 1680, Note_on_c, 1, 43, 0
3, 1920, Note_on_c, 1, 58, 48
3, 1920, Note_on_c, 1, 65, 48
3, 1920, Note_on_c, 1, 68, 48
3, 2040, Note_on_c, 1, 68, 0
3, 2040, Note_on_c, 1, 65, 0
3, 2040, Note_on_c, 1, 58, 0
3, 2160, Note_on_c, 1, 58, 48
3, 2160, Note_on_c, 1, 65, 48
3, 2160, Note_on_c, 1, 68, 48
3, 2280, Note_on_c, 1, 68, 0
3, 2280, Note_on_c, 1, 65, 0
3, 2280, Note_on_c, 1, 58, 0
3, 2340, Note_on_c, 1, 62, 48
3, 2400, Note_on_c, 1, 62, 0
3, 2400, Note_on_c, 1, 63, 48
3, 2496, Note_on_c, 1, 63, 0
3, 2700, Note_on_c, 1, 58, 48
3, 2718, Note_on_c, 1, 58, 0
3, 2760, Note_on_c, 1, 60, 48
3, 2778, Note_on_c, 1, 60, 0
3, 2820, Note_on_c, 1, 62, 48
3, 2838, Note_on_c, 1, 62, 0
3, 2880, Note_on_c, 1, 63, 48
3, 3000, Note_on_c, 1, 63, 0
3, 3180, Note_on_c, 1, 58, 80
3, 3198, Note_on_c, 1, 58, 0
3, 3240, Note_on_c, 1, 60, 80
3, 3258, Note_on_c, 1, 60, 0
3, 3300, Note_on_c, 1, 62, 80
3, 3318, Note_on_c, 1, 62, 0
3, 3360, Note_on_c, 1, 63, 80
3, 3480, Note_on_c, 1, 63, 0
3, 4800, Note_on_c, 1, 48, 40
3, 4860, Note_on_c, 1, 48, 0
3, 4860, Note_on_c, 1, 56, 40
3, 4920, Note_on_c, 1, 56, 0
3, 4920, Note_on_c, 1, 48, 40
3, 4980, Note_on_c, 1, 48, 0
3, 4980, Note_on_c, 1, 56, 40
3, 5040, Note_on_c, 1, 56, 0
3, 5040, Note_on_c, 1, 48, 40
3, 5100, Note_on_c, 1, 48, 0
3, 5100, Note_on_c, 1, 56, 40
3, 5160, Note_on_c, 1, 56, 0
3, 5160, Note_on_c, 1, 48, 40
3, 5220, Note_on_c, 1, 48, 0
3, 5220, Note_on_c, 1, 56, 40
3, 5280, Note_on_c, 1, 56, 0
3, 5280, Note_on_c, 1, 46, 40
3, 5340, Note_on_c, 1, 46, 0
3, 5340, Note_on_c, 1, 56, 40
3, 5400, Note_on_c, 1, 56, 0
3, 5400, Note_on_c, 1, 46, 40
3, 5460, Note_on_c, 1, 46, 0
3, 5460, Note_on_c, 1, 56, 40
3, 5520, Note_on_c, 1, 56, 0
3, 5520, Note_on_c, 1, 46, 40
3, 5580, Note_on_c, 1, 46, 0
3, 5580, Note_on_c, 1, 55, 40
3, 5640, Note_on_c, 1, 55, 0
3, 5640, Note_on_c, 1, 46, 40
3, 5700, Note_on_c, 1, 46, 0
3, 5700, Note_on_c, 1, 55, 40
3, 5760, Note_on_c, 1, 55, 0
3, 5760, Note_on_c, 1, 44, 40
3, 5820, Note_on_c, 1, 44, 0
3, 5820, Note_on_c, 1, 55, 40
3, 5880, Note_on_c, 1, 55, 0
3, 5880, Note_on_c, 1, 44, 40
3, 5940, Note_on_c, 1, 44, 0
3, 5940, Note_on_c, 1, 55, 40
3, 6000, Note_on_c, 1, 55, 0
3, 6000, Note_on_c, 1, 44, 40
3, 6060, Note_on_c, 1, 44, 0
3, 6060, Note_on_c, 1, 53, 40
3, 6120, Note_on_c, 1, 53, 0
3, 6120, Note_on_c, 1, 44, 40
3, 6180, Note_on_c, 1, 44, 0
3, 6180, Note_on_c, 1, 53, 40
3, 6240, Note_on_c, 1, 53, 0
3, 6240, Note_on_c, 1, 43, 40
3, 6300, Note_on_c, 1, 43, 0
3, 6300, Note_on_c, 1, 53, 40
3, 6360, Note_on_c, 1, 53, 0
3, 6360, Note_on_c, 1, 43, 40
3, 6420, Note_on_c, 1, 43, 0
3, 6420, Note_on_c, 1, 53, 40
3, 6480, Note_on_c, 1, 53, 0
3, 6480, Note_on_c, 1, 43, 40
3, 6540, Note_on_c, 1, 43, 0
3, 6540, Note_on_c, 1, 51, 40
3, 6600, Note_on_c, 1, 51, 0
3, 6600, Note_on_c, 1, 43, 40
3, 6660, Note_on_c, 1, 43, 0
3, 6660, Note_on_c, 1, 51, 40
3, 6720, Note_on_c, 1, 51, 0
3, 6720, Note_on_c, 1, 41, 48
3, 6780, Note_on_c, 1, 41, 0
3, 6780, Note_on_c, 1, 50, 47
3, 6840, Note_on_c, 1, 50, 0
3, 6840, Note_on_c, 1, 41, 47
3, 6900, Note_on_c, 1, 41, 0
3, 6900, Note_on_c, 1, 50, 46
3, 6960, Note_on_c, 1, 50, 0
3, 6960, Note_on_c, 1, 39, 46
3, 7020, Note_on_c, 1, 39, 0
3, 7020, Note_on_c, 1, 43, 45
3, 7050, Note_on_c, 1, 43, 0
3, 7080, Note_on_c, 1, 46, 45
3, 7110, Note_on_c, 1, 46, 0
3, 7140, Note_on_c, 1, 51, 44
3, 7170, Note_on_c, 1, 51, 0
3, 7200, Note_on_c, 1, 44, 44
3, 7200, Note_on_c, 1, 56, 44
3, 7284, Note_on_c, 1, 56, 0
3, 7284, Note_on_c, 1, 44, 0
3, 7440, Note_on_c, 1, 46, 42
3, 7440, Note_on_c, 1, 53, 42
3, 7524, Note_on_c, 1, 53, 0
3, 7524, Note_on_c, 1, 46, 0
3, 7605, Note_on_c, 1, 51, 80
3, 7620, Note_on_c, 1, 55, 80
3, 7635, Note_on_c, 1, 58, 80
3, 7650, Note_on_c, 1, 63, 80
3, 7872, Note_on_c, 1, 63, 0
3, 7872, Note_on_c, 1, 51, 0
3, 7872, Note_on_c, 1, 55, 0
3, 7872, Note_on_c, 1, 58, 0
3, 7920, Note_on_c, 1, 61, 80
3, 7920, Note_on_c, 1, 58, 80
3, 7920, Note_on_c, 1, 55, 80
3, 7920, Note_on_c, 1, 51, 80
3, 8112, Note_on_c, 1, 51, 0
3, 8112, Note_on_c, 1, 61, 0
3, 8112, Note_on_c, 1, 58, 0
3, 8112, Note_on_c, 1, 55, 0
3, 8160, Note_on_c, 1, 51, 80
3, 8160, Note_on_c, 1, 56, 80
3, 8160, Note_on_c, 1, 60, 80
3, 8544, Note_on_c, 1, 60, 0
3, 8544, Note_on_c, 1, 56, 0
3, 8544, Note_on_c, 1, 51, 0
3, 8640, Note_on_c, 1, 53, 80
3, 8640, Note_on_c, 1, 56, 80
3, 8640, Note_on_c, 1, 58, 80
3, 8640, Note_on_c, 1, 62, 80
3, 8832, Note_on_c, 1, 62, 0
3, 8832, Note_on_c, 1, 53, 0
3, 8832, Note_on_c, 1, 56, 0
3, 8832, Note_on_c, 1, 58, 0
3, 9120, Note_on_c, 1, 39, 68
3, 9312, Note_on_c, 1, 39, 0
3, 9360, Note_on_c, 1, 75, 56
3, 9540, Note_on_c, 1, 75, 0
3, 9540, Note_on_c, 1, 77, 64
3, 9570, Note_on_c, 1, 77, 0
3, 9570, Note_on_c, 1, 75, 64
3, 9600, Note_on_c, 1, 75, 0
3, 9600, Note_on_c, 1, 74, 56
3, 9840, Note_on_c, 1, 74, 0
3, 9840, Note_on_c, 1, 73, 56
3, 10080, Note_on_c, 1, 73, 0
3, 10080, Note_on_c, 1, 72, 56
3, 10500, Note_on_c, 1, 72, 0
3, 10500, Note_on_c, 1, 74, 72
3, 10530, Note_on_c, 1, 74, 0
3, 10530, Note_on_c, 1, 72, 72
3, 10560, Note_on_c, 1, 72, 0
3, 10560, Note_on_c, 1, 70, 56
3, 10980, Note_on_c, 1, 70, 0
3, 10980, Note_on_c, 1, 72, 72
3, 11010, Note_on_c, 1, 72, 0
3, 11010, Note_on_c, 1, 70, 72
3, 11040, Note_on_c, 1, 70, 0
3, 11040, Note_on_c, 1, 69, 56
3, 11280, Note_on_c, 1, 69, 0
3, 11280, Note_on_c, 1, 68, 56
3, 11460, Note_on_c, 1, 68, 0
3, 11460, Note_on_c, 1, 70, 72
3, 11490, Note_on_c, 1, 70, 0
3, 11490, Note_on_c, 1, 68, 72
3, 11520, Note_on_c, 1, 68, 0
3, 11520, Note_on_c, 1, 67, 56
3, 11712, Note_on_c, 1, 67, 0
3, 11760, Note_on_c, 1, 66, 62
3, 11952, Note_on_c, 1, 66, 0
3, 12000, Note_on_c, 1, 65, 68
3, 12192, Note_on_c, 1, 65, 0
3, 12240, Note_on_c, 1, 64, 74
3, 12432, Note_on_c, 1, 64, 0
3, 12480, Note_on_c, 1, 65, 80
3, 12480, Note_on_c, 1, 53, 80
3, 12672, Note_on_c, 1, 65, 0
3, 12720, Note_on_c, 1, 63, 80
3, 12864, Note_on_c, 1, 63, 0
3, 12900, Note_on_c, 1, 65, 80
3, 12924, Note_on_c, 1, 65, 0
3, 12930, Note_on_c, 1, 63, 80
3, 12954, Note_on_c, 1, 63, 0
3, 12960, Note_on_c, 1, 61, 80
3, 13056, Note_on_c, 1, 61, 0
3, 13080, Note_on_c, 1, 58, 80
3, 13176, Note_on_c, 1, 58, 0
3, 13200, Note_on_c, 1, 60, 80
3, 13248, Note_on_c, 1, 53, 0
3, 13296, Note_on_c, 1, 60, 0
3, 13320, Note_on_c, 1, 61, 80
3, 13416, Note_on_c, 1, 61, 0
3, 13440, Note_on_c, 1, 53, 56
3, 13440, Note_on_c, 1, 60, 56
3, 13632, Note_on_c, 1, 60, 0
3, 13680, Note_on_c, 1, 63, 56
3, 13824, Note_on_c, 1, 63, 0
3, 13860, Note_on_c, 1, 65, 56
3, 13884, Note_on_c, 1, 65, 0
3, 13890, Note_on_c, 1, 63, 56
3, 13914, Note_on_c, 1, 63, 0
3, 13920, Note_on_c, 1, 61, 56
3, 14016, Note_on_c, 1, 61, 0
3, 14040, Note_on_c, 1, 58, 56
3, 14136, Note_on_c, 1, 58, 0
3, 14160, Note_on_c, 1, 60, 56
3, 14208, Note_on_c, 1, 53, 0
3, 14256, Note_on_c, 1, 60, 0
3, 14280, Note_on_c, 1, 61, 56
3, 14376, Note_on_c, 1, 61, 0
3, 14400, Note_on_c, 1, 60, 56
3, 14400, Note_on_c, 1, 53, 56
3, 14592, Note_on_c, 1, 60, 0
3, 14640, Note_on_c, 1, 57, 62
3, 14640, Note_on_c, 1, 60, 62
3, 14832, Note_on_c, 1, 60, 0
3, 14832, Note_on_c, 1, 57, 0
3, 14880, Note_on_c, 1, 58, 68
3, 14880, Note_on_c, 1, 61, 68
3, 15072, Note_on_c, 1, 61, 0
3, 15072, Note_on_c, 1, 58, 0
3, 15120, Note_on_c, 1, 57, 74
3, 15120, Note_on_c, 1, 60, 74
3, 15168, Note_on_c, 1, 53, 0
3, 15312, Note_on_c, 1, 60, 0
3, 15312, Note_on_c, 1, 57, 0
3, 15360, Note_on_c, 1, 46, 80
3, 15375, Note_on_c, 1, 50, 80
3, 15390, Note_on_c, 1, 53, 80
3, 15405, Note_on_c, 1, 58, 80
3, 15564, Note_on_c, 1, 58, 0
3, 15564, Note_on_c, 1, 46, 0
3, 15564, Note_on_c, 1, 50, 0
3, 15564, Note_on_c, 1, 53, 0
3, 15600, Note_on_c, 1, 46, 80
3, 15615, Note_on_c, 1, 50, 80
3, 15630, Note_on_c, 1, 53, 80
3, 15645, Note_on_c, 1, 56, 80
3, 15804, Note_on_c, 1, 56, 0
3, 15804, Note_on_c, 1, 46, 0
3, 15804, Note_on_c, 1, 50, 0
3, 15804, Note_on_c, 1, 53, 0
3, 15840, Note_on_c, 1, 46, 80
3, 15840, Note_on_c, 1, 51, 80
3, 15840, Note_on_c, 1, 55, 80
3, 16224, Note_on_c, 1, 55, 0
3, 16224, Note_on_c, 1, 51, 0
3, 16224, Note_on_c, 1, 46, 0
3, 16320, Note_on_c, 1, 46, 40
3, 16320, Note_on_c, 1, 48, 40
3, 16320, Note_on_c, 1, 51, 40
3, 16320, Note_on_c, 1, 57, 40
3, 16800, Note_on_c, 1, 57, 0
3, 16800, Note_on_c, 1, 46, 0
3, 16800, Note_on_c, 1, 48, 0
3, 16800, Note_on_c, 1, 51, 0
3, 16800, Note_on_c, 1, 58, 32
3, 16800, Note_on_c, 1, 53, 32
3, 16800, Note_on_c, 1, 50, 32
3, 16800, Note_on_c, 1, 46, 32
3, 17040, Note_on_c, 1, 46, 0
3, 17040, Note_on_c, 1, 58, 0
3, 17040, Note_on_c, 1, 53, 0
3, 17040, Note_on_c, 1, 50, 0
3, 17280, Note_on_c, 1, 57, 40
3, 17280, Note_on_c, 1, 51, 40
3, 17280, Note_on_c, 1, 48, 40
3, 17280, Note_on_c, 1, 46, 40
3, 17760, Note_on_c, 1, 46, 0
3, 17760, Note_on_c, 1, 57, 0
3, 17760, Note_on_c, 1, 51, 0
3, 17760, Note_on_c, 1, 48, 0
3, 17760, Note_on_c, 1, 46, 32
3, 17760, Note_on_c, 1, 50, 32
3, 17760, Note_on_c, 1, 53, 32
3, 17760, Note_on_c, 1, 58, 32
3, 18000, Note_on_c, 1, 58, 0
3, 18000, Note_on_c, 1, 46, 0
3, 18000, Note_on_c, 1, 50, 0
3, 18000, Note_on_c, 1, 53, 0
3, 18240, Note_on_c, 1, 51, 64
3, 18300, Note_on_c, 1, 51, 0
3, 18300, Note_on_c, 1, 55, 64
3, 18360, Note_on_c, 1, 55, 0
3, 18360, Note_on_c, 1, 57, 64
3, 18420, Note_on_c, 1, 57, 0
3, 18420, Note_on_c, 1, 59, 64
3, 18480, Note_on_c, 1, 59, 0
3, 18480, Note_on_c, 1, 60, 64
3, 18660, Note_on_c, 1, 60, 0
3, 18660, Note_on_c, 1, 58, 64
3, 18720, Note_on_c, 1, 58, 0
3, 18720, Note_on_c, 1, 57, 64
3, 18780, Note_on_c, 1, 57, 0
3, 18780, Note_on_c, 1, 65, 64
3, 18840, Note_on_c, 1, 65, 0
3, 18840, Note_on_c, 1, 67, 64
3, 18900, Note_on_c, 1, 67, 0
3, 18900, Note_on_c, 1, 69, 64
3, 18960, Note_on_c, 1, 69, 0
3, 18960, Note_on_c, 1, 70, 64
3, 19200, Note_on_c, 1, 70, 0
3, 19200, Note_on_c, 1, 67, 64
3, 19200, Note_on_c, 1, 70, 64
3, 19200, Note_on_c, 1, 72, 64
3, 19680, Note_on_c, 1, 72, 0
3, 19680, Note_on_c, 1, 70, 0
3, 19680, Note_on_c, 1, 67, 0
3, 19680, Note_on_c, 1, 67, 56
3, 19680, Note_on_c, 1, 73, 56
3, 20160, Note_on_c, 1, 73, 0
3, 20160, Note_on_c, 1, 72, 48
3, 20400, Note_on_c, 1, 72, 0
3, 20400, Note_on_c, 1, 70, 48
3, 20640, Note_on_c, 1, 70, 0
3, 20640, Note_on_c, 1, 67, 0
3, 20640, Note_on_c, 1, 69, 48
3, 20640, Note_on_c, 1, 65, 48
3, 21000, Note_on_c, 1, 65, 0
3, 21000, Note_on_c, 1, 69, 0
3, 21000, Note_on_c, 1, 55, 48
3, 21000, Note_on_c, 1, 58, 48
3, 21000, Note_on_c, 1, 63, 48
3, 21000, Note_on_c, 1, 67, 48
3, 21120, Note_on_c, 1, 67, 0
3, 21120, Note_on_c, 1, 55, 0
3, 21120, Note_on_c, 1, 58, 0
3, 21120, Note_on_c, 1, 63, 0
3, 21120, Note_on_c, 1, 69, 48
3, 21120, Note_on_c, 1, 65, 48
3, 21408, Note_on_c, 1, 65, 0
3, 21408, Note_on_c, 1, 69, 0
3, 21480, Note_on_c, 1, 63, 48
3, 21480, Note_on_c, 1, 60, 48
3, 21480, Note_on_c, 1, 55, 48
3, 21480, Note_on_c, 1, 51, 48
3, 21576, Note_on_c, 1, 51, 0
3, 21576, Note_on_c, 1, 63, 0
3, 21576, Note_on_c, 1, 60, 0
3, 21576, Note_on_c, 1, 55, 0
3, 21600, Note_on_c, 1, 65, 48
3, 21600, Note_on_c, 1, 62, 48
3, 21888, Note_on_c, 1, 62, 0
3, 21888, Note_on_c, 1, 65, 0
3, 21960, Note_on_c, 1, 62, 48
3, 21960, Note_on_c, 1, 58, 48
3, 21960, Note_on_c, 1, 53, 48
3, 21960, Note_on_c, 1, 50, 48
3, 22056, Note_on_c, 1, 50, 0
3, 22056, Note_on_c, 1, 62, 0
3, 22056, Note_on_c, 1, 58, 0
3, 22056, Note_on_c, 1, 53, 0
3, 22080, Note_on_c, 1, 60, 48
3, 22080, Note_on_c, 1, 57, 48
3, 22080, Note_on_c, 1, 53, 48
3, 22080, Note_on_c, 1, 51, 48
3, 22116, Note_on_c, 1, 51, 0
3, 22116, Note_on_c, 1, 60, 0
3, 22116, Note_on_c, 1, 57, 0
3, 22116, Note_on_c, 1, 53, 0
3, 22320, Note_on_c, 1, 62, 48
3, 22320, Note_on_c, 1, 58, 48
3, 22320, Note_on_c, 1, 53, 48
3, 22320, Note_on_c, 1, 50, 48
3, 22356, Note_on_c, 1, 50, 0
3, 22356, Note_on_c, 1, 62, 0
3, 22356, Note_on_c, 1, 58, 0
3, 22356, Note_on_c, 1, 53, 0
3, 22560, Note_on_c, 1, 60, 48
3, 22560, Note_on_c, 1, 57, 48
3, 22560, Note_on_c, 1, 53, 48
3, 22560, Note_on_c, 1, 51, 48
3, 22596, Note_on_c, 1, 51, 0
3, 22596, Note_on_c, 1, 60, 0
3, 22596, Note_on_c, 1, 57, 0
3, 22596, Note_on_c, 1, 53, 0
3, 22800, Note_on_c, 1, 62, 48
3, 22800, Note_on_c, 1, 58, 48
3, 22800, Note_on_c, 1, 53, 48
3, 22800, Note_on_c, 1, 50, 48
3, 22836, Note_on_c, 1, 50, 0
3, 22836, Note_on_c, 1, 62, 0
3, 22836, Note_on_c, 1, 58, 0
3, 22836, Note_on_c, 1, 53, 0
3, 23040, Note_on_c, 1, 62, 48
3, 23040, Note_on_c, 1, 58, 48
3, 23040, Note_on_c, 1, 56, 48
3, 23040, Note_on_c, 1, 53, 48
3, 23040, Note_on_c, 1, 50, 48
3, 23424, Note_on_c, 1, 50, 0
3, 23424, Note_on_c, 1, 56, 0
3, 23424, Note_on_c, 1, 62, 0
3, 23424, Note_on_c, 1, 58, 0
3, 23424, Note_on_c, 1, 53, 0
3, 23520, Note_on_c, 1, 63, 48
3, 23520, Note_on_c, 1, 58, 48
3, 23520, Note_on_c, 1, 55, 48
3, 23520, Note_on_c, 1, 51, 48
3, 23712, Note_on_c, 1, 51, 0
3, 23712, Note_on_c, 1, 63, 0
3, 23712, Note_on_c, 1, 58, 0
3, 23712, Note_on_c, 1, 55, 0
3, 24120, Note_on_c, 1, 66, 54
3, 24138, Note_on_c, 1, 66, 0
3, 24180, Note_on_c, 1, 69, 53
3, 24198, Note_on_c, 1, 69, 0
3, 24240, Note_on_c, 1, 67, 52
3, 24300, Note_on_c, 1, 67, 0
3, 24300, Note_on_c, 1, 70, 51
3, 24360, Note_on_c, 1, 70, 0
3, 24360, Note_on_c, 1, 67, 50
3, 24400, Note_on_c, 1, 67, 0
3, 24400, Note_on_c, 1, 63, 49
3, 24440, Note_on_c, 1, 63, 0
3, 24440, Note_on_c, 1, 60, 49
3, 24480, Note_on_c, 1, 60, 0
3, 24480, Note_on_c, 1, 53, 48
3, 24480, Note_on_c, 1, 62, 48
3, 24720, Note_on_c, 1, 62, 0
3, 24720, Note_on_c, 1, 63, 44
3, 24960, Note_on_c, 1, 63, 0
3, 24960, Note_on_c, 1, 53, 0
3, 24960, Note_on_c, 1, 58, 40
3, 24960, Note_on_c, 1, 62, 40
3, 25056, Note_on_c, 1, 62, 0
3, 25056, Note_on_c, 1, 58, 0
3, 25200, Note_on_c, 1, 70, 56
3, 25200, Note_on_c, 1, 74, 56
3, 25236, Note_on_c, 1, 74, 0
3, 25236, Note_on_c, 1, 70, 0
3, 25320, Note_on_c, 1, 65, 56
3, 25320, Note_on_c, 1, 72, 56
3, 25356, Note_on_c, 1, 72, 0
3, 25356, Note_on_c, 1, 65, 0
3, 25440, Note_on_c, 1, 62, 56
3, 25440, Note_on_c, 1, 70, 56
3, 25560, Note_on_c, 1, 70, 0
3, 25560, Note_on_c, 1, 62, 0
3, 25680, Note_on_c, 1, 70, 56
3, 25680, Note_on_c, 1, 74, 56
3, 25716, Note_on_c, 1, 74, 0
3, 25716, Note_on_c, 1, 70, 0
3, 25800, Note_on_c, 1, 65, 56
3, 25800, Note_on_c, 1, 72, 56
3, 25836, Note_on_c, 1, 72, 0
3, 25836, Note_on_c, 1, 65, 0
3, 25920, Note_on_c, 1, 62, 56
3, 25920, Note_on_c, 1, 70, 56
3, 26040, Note_on_c, 1, 70, 0
3, 26040, Note_on_c, 1, 62, 0
3, 26160, Note_on_c, 1, 62, 56
3, 26160, Note_on_c, 1, 70, 56
3, 26196, Note_on_c, 1, 70, 0
3, 26196, Note_on_c, 1, 62, 0
3, 26280, Note_on_c, 1, 62, 56
3, 26280, Note_on_c, 1, 70, 56
3, 26316, Note_on_c, 1, 70, 0
3, 26316, Note_on_c, 1, 62, 0
3, 26400, Note_on_c, 1, 63, 56
3, 26400, Note_on_c, 1, 70, 56
3, 26496, Note_on_c, 1, 70, 0
3, 26520, Note_on_c, 1, 67, 56
3, 26616, Note_on_c, 1, 67, 0
3, 26640, Note_on_c, 1, 72, 56
3, 26688, Note_on_c, 1, 63, 0
3, 26760, Note_on_c, 1, 64, 56
3, 26856, Note_on_c, 1, 64, 0
3, 26880, Note_on_c, 1, 65, 56
3, 26976, Note_on_c, 1, 65, 0
3, 27000, Note_on_c, 1, 67, 58
3, 27096, Note_on_c, 1, 67, 0
3, 27120, Note_on_c, 1, 69, 60
3, 27168, Note_on_c, 1, 72, 0
3, 27216, Note_on_c, 1, 69, 0
3, 27240, Note_on_c, 1, 57, 62
3, 27240, Note_on_c, 1, 65, 62
3, 27336, Note_on_c, 1, 65, 0
3, 27336, Note_on_c, 1, 57, 0
3, 27360, Note_on_c, 1, 58, 72
3, 27360, Note_on_c, 1, 61, 72
3, 27408, Note_on_c, 1, 61, 0
3, 27408, Note_on_c, 1, 58, 0
3, 27420, Note_on_c, 1, 65, 72
3, 27468, Note_on_c, 1, 65, 0
3, 27480, Note_on_c, 1, 58, 72
3, 27480, Note_on_c, 1, 61, 72
3, 27504, Note_on_c, 1, 61, 0
3, 27504, Note_on_c, 1, 58, 0
3, 27540, Note_on_c, 1, 65, 72
3, 27564, Note_on_c, 1, 65, 0
3, 27600, Note_on_c, 1, 57, 72
3, 27600, Note_on_c, 1, 60, 72
3, 27648, Note_on_c, 1, 60, 0
3, 27648, Note_on_c, 1, 57, 0
3, 27660, Note_on_c, 1, 65, 72
3, 27708, Note_on_c, 1, 65, 0
3, 27720, Note_on_c, 1, 57, 72
3, 27720, Note_on_c, 1, 60, 72
3, 27744, Note_on_c, 1, 60, 0
3, 27744, Note_on_c, 1, 57, 0
3, 27780, Note_on_c, 1, 65, 72
3, 27804, Note_on_c, 1, 65, 0
3, 27840, Note_on_c, 1, 61, 40
3, 27840, Note_on_c, 1, 58, 40
3, 27888, Note_on_c, 1, 58, 0
3, 27888, Note_on_c, 1, 61, 0
3, 27900, Note_on_c, 1, 65, 40
3, 27948, Note_on_c, 1, 65, 0
3, 27960, Note_on_c, 1, 61, 40
3, 27960, Note_on_c, 1, 58, 40
3, 27990, Note_on_c, 1, 58, 0
3, 27990, Note_on_c, 1, 61, 0
3, 28020, Note_on_c, 1, 65, 40
3, 28050, Note_on_c, 1, 65, 0
3, 28080, Note_on_c, 1, 60, 40
3, 28080, Note_on_c, 1, 57, 40
3, 28128, Note_on_c, 1, 57, 0
3, 28128, Note_on_c, 1, 60, 0
3, 28140, Note_on_c, 1, 65, 40
3, 28188, Note_on_c, 1, 65, 0
3, 28200, Note_on_c, 1, 60, 40
3, 28200, Note_on_c, 1, 57, 40
3, 28230, Note_on_c, 1, 57, 0
3, 28230, Note_on_c, 1, 60, 0
3, 28260, Note_on_c, 1, 65, 40
3, 28290, Note_on_c, 1, 65, 0
3, 28320, Note_on_c, 1, 49, 64
3, 28320, Note_on_c, 1, 61, 64
3, 28416, Note_on_c, 1, 61, 0
3, 28416, Note_on_c, 1, 49, 0
3, 28440, Note_on_c, 1, 46, 62
3, 28440, Note_on_c, 1, 58, 62
3, 28536, Note_on_c, 1, 58, 0
3, 28536, Note_on_c, 1, 46, 0
3, 28560, Note_on_c, 1, 42, 60
3, 28560, Note_on_c, 1, 54, 60
3, 28656, Note_on_c, 1, 54, 0
3, 28656, Note_on_c, 1, 42, 0
3, 28680, Note_on_c, 1, 39, 58
3, 28680, Note_on_c, 1, 51, 58
3, 28776, Note_on_c, 1, 51, 0
3, 28776, Note_on_c, 1, 39, 0
3, 28800, Note_on_c, 1, 36, 56
3, 28800, Note_on_c, 1, 48, 56
3, 28992, Note_on_c, 1, 48, 0
3, 28992, Note_on_c, 1, 36, 0
3, 29040, Note_on_c, 1, 34, 52
3, 29040, Note_on_c, 1, 46, 52
3, 29232, Note_on_c, 1, 46, 0
3, 29232, Note_on_c, 1, 34, 0
3, 29280, Note_on_c, 1, 33, 48
3, 29280, Note_on_c, 1, 45, 48
3, 29472, Note_on_c, 1, 45, 0
3, 29472, Note_on_c, 1, 33, 0
3, 29520, Note_on_c, 1, 30, 44
3, 29520, Note_on_c, 1, 42, 44
3, 29712, Note_on_c, 1, 42, 0
3, 29712, Note_on_c, 1, 30, 0
3, 29760, Note_on_c, 1, 29, 40
3, 29760, Note_on_c, 1, 41, 40
3, 30528, Note_on_c, 1, 41, 0
3, 30528, Note_on_c, 1, 29, 0
3, 30720, Note_on_c, 1, 65, 80
3, 30720, Note_on_c, 1, 62, 80
3, 30720, Note_on_c, 1, 58, 80
3, 30912, Note_on_c, 1, 58, 0
3, 30912, Note_on_c, 1, 62, 0
3, 30912, Note_on_c, 1, 65, 0
3, 30960, Note_on_c, 1, 65, 80
3, 30960, Note_on_c, 1, 60, 80
3, 30960, Note_on_c, 1, 57, 80
3, 31128, Note_on_c, 1, 57, 0
3, 31128, Note_on_c, 1, 60, 0
3, 31128, Note_on_c, 1, 65, 0
3, 31155, Note_on_c, 1, 55, 80
3, 31170, Note_on_c, 1, 58, 80
3, 31185, Note_on_c, 1, 63, 80
3, 31584, Note_on_c, 1, 63, 0
3, 31584, Note_on_c, 1, 58, 0
3, 31584, Note_on_c, 1, 55, 0
3, 31680, Note_on_c, 1, 67, 80
3, 31680, Note_on_c, 1, 70, 80
3, 31776, Note_on_c, 1, 70, 0
3, 31776, Note_on_c, 1, 67, 0
3, 31860, Note_on_c, 1, 65, 80
3, 31860, Note_on_c, 1, 70, 80
3, 31908, Note_on_c, 1, 65, 0
3, 31920, Note_on_c, 1, 63, 80
3, 32016, Note_on_c, 1, 63, 0
3, 32016, Note_on_c, 1, 70, 0
3, 32100, Note_on_c, 1, 61, 80
3, 32100, Note_on_c, 1, 65, 80
3, 32148, Note_on_c, 1, 65, 0
3, 32148, Note_on_c, 1, 61, 0
3, 32160, Note_on_c, 1, 60, 80
3, 32160, Note_on_c, 1, 67, 80
3, 32400, Note_on_c, 1, 67, 0
3, 32400, Note_on_c, 1, 60, 0
3, 32700, Note_on_c, 1, 65, 48
3, 32700, Note_on_c, 1, 62, 48
3, 32724, Note_on_c, 1, 62, 0
3, 32724, Note_on_c, 1, 65, 0
3, 32760, Note_on_c, 1, 63, 48
3, 32760, Note_on_c, 1, 60, 48
3, 32784, Note_on_c, 1, 60, 0
3, 32784, Note_on_c, 1, 63, 0
3, 32820, Note_on_c, 1, 62, 48
3, 32820, Note_on_c, 1, 58, 48
3, 32844, Note_on_c, 1, 58, 0
3, 32844, Note_on_c, 1, 62, 0
3, 32880, Note_on_c, 1, 57, 48
3, 32880, Note_on_c, 1, 60, 48
3, 33072, Note_on_c, 1, 60, 0
3, 33072, Note_on_c, 1, 57, 0
3, 33180, Note_on_c, 1, 62, 48
3, 33180, Note_on_c, 1, 65, 48
3, 33192, Note_on_c, 1, 65, 0
3, 33192, Note_on_c, 1, 62, 0
3, 33240, Note_on_c, 1, 60, 48
3, 33240, Note_on_c, 1, 63, 48
3, 33252, Note_on_c, 1, 63, 0
3, 33252, Note_on_c, 1, 60, 0
3, 33300, Note_on_c, 1, 58, 48
3, 33300, Note_on_c, 1, 62, 48
3, 33312, Note_on_c, 1, 62, 0
3, 33312, Note_on_c, 1, 58, 0
3, 33360, Note_on_c, 1, 57, 48
3, 33360, Note_on_c, 1, 60, 48
3, 33420, Note_on_c, 1, 60, 0
3, 33420, Note_on_c, 1, 57, 0
3, 33420, Note_on_c, 1, 65, 48
3, 33480, Note_on_c, 1, 65, 0
3, 33480, Note_on_c, 1, 67, 56
3, 33540, Note_on_c, 1, 67, 0
3, 33540, Note_on_c, 1, 69, 64
3, 33600, Note_on_c, 1, 69, 0
3, 33600, Note_on_c, 1, 70, 72
3, 33648, Note_on_c, 1, 70, 0
3, 33660, Note_on_c, 1, 74, 80
3, 33708, Note_on_c, 1, 74, 0
3, 33720, Note_on_c, 1, 72, 80
3, 33768, Note_on_c, 1, 72, 0
3, 33780, Note_on_c, 1, 70, 80
3, 33828, Note_on_c, 1, 70, 0
3, 33840, Note_on_c, 1, 69, 80
3, 33888, Note_on_c, 1, 69, 0
3, 33900, Note_on_c, 1, 67, 80
3, 33900, Note_on_c, 1, 70, 80
3, 33948, Note_on_c, 1, 70, 0
3, 33948, Note_on_c, 1, 67, 0
3, 33960, Note_on_c, 1, 65, 80
3, 33960, Note_on_c, 1, 69, 80
3, 34008, Note_on_c, 1, 69, 0
3, 34008, Note_on_c, 1, 65, 0
3, 34020, Note_on_c, 1, 63, 80
3, 34020, Note_on_c, 1, 67, 80
3, 34068, Note_on_c, 1, 67, 0
3, 34068, Note_on_c, 1, 63, 0
3, 34080, Note_on_c, 1, 62, 80
3, 34080, Note_on_c, 1, 65, 80
3, 34320, Note_on_c, 1, 65, 0
3, 34320, Note_on_c, 1, 62, 0
3, 34320, Note_on_c, 1, 63, 80
3, 34320, Note_on_c, 1, 67, 80
3, 34416, Note_on_c, 1, 67, 0
3, 34416, Note_on_c, 1, 63, 0
3, 34560, Note_on_c, 1, 60, 64
3, 34560, Note_on_c, 1, 63, 64
3, 34800, Note_on_c, 1, 63, 0
3, 34800, Note_on_c, 1, 60, 0
3, 34800, Note_on_c, 1, 62, 64
3, 34896, Note_on_c, 1, 62, 0
3, 36000, Note_on_c, 1, 30, 32
3, 36000, Note_on_c, 1, 42, 32
3, 36480, Note_on_c, 1, 42, 0
3, 36480, Note_on_c, 1, 30, 0
3, 36480, Note_on_c, 1, 29, 80
3, 36504, Note_on_c, 1, 29, 0
3, 36510, Note_on_c, 1, 41, 80
3, 36534, Note_on_c, 1, 41, 0
3, 36540, Note_on_c, 1, 29, 80
3, 36564, Note_on_c, 1, 29, 0
3, 36570, Note_on_c, 1, 41, 80
3, 36594, Note_on_c, 1, 41, 0
3, 36600, Note_on_c, 1, 29, 80
3, 36624, Note_on_c, 1, 29, 0
3, 36630, Note_on_c, 1, 41, 80
3, 36654, Note_on_c, 1, 41, 0
3, 36660, Note_on_c, 1, 29, 80
3, 36684, Note_on_c, 1, 29, 0
3, 36690, Note_on_c, 1, 41, 80
3, 36714, Note_on_c, 1, 41, 0
3, 36720, Note_on_c, 1, 29, 80
3, 36744, Note_on_c, 1, 29, 0
3, 36750, Note_on_c, 1, 41, 80
3, 36774, Note_on_c, 1, 41, 0
3, 36780, Note_on_c, 1, 29, 80
3, 36804, Note_on_c, 1, 29, 0
3, 36810, Note_on_c, 1, 41, 80
3, 36834, Note_on_c, 1, 41, 0
3, 36840, Note_on_c, 1, 29, 80
3, 36864, Note_on_c, 1, 29, 0
3, 36870, Note_on_c, 1, 41, 80
3, 36894, Note_on_c, 1, 41, 0
3, 36900, Note_on_c, 1, 29, 80
3, 36924, Note_on_c, 1, 29, 0
3, 36930, Note_on_c, 1, 41, 80
3, 36954, Note_on_c, 1, 41, 0
3, 36960, Note_on_c, 1, 29, 80
3, 37056, Note_on_c, 1, 29, 0
3, 37200, Note_on_c, 1, 63, 80
3, 37200, Note_on_c, 1, 60, 80
3, 37200, Note_on_c, 1, 57, 80
3, 37200, Note_on_c, 1, 53, 80
3, 37296, Note_on_c, 1, 53, 0
3, 37296, Note_on_c, 1, 63, 0
3, 37296, Note_on_c, 1, 60, 0
3, 37296, Note_on_c, 1, 57, 0
3, 37440, Note_on_c, 1, 58, 80
3, 37440, Note_on_c, 1, 53, 80
3, 37440, Note_on_c, 1, 50, 80
3, 37440, Note_on_c, 1, 46, 80
3, 37560, Note_on_c, 1, 46, 0
3, 37560, Note_on_c, 1, 58, 0
3, 37560, Note_on_c, 1, 53, 0
3, 37560, Note_on_c, 1, 50, 0
3, 37680, Note_on_c, 1, 57, 80
3, 37680, Note_on_c, 1, 51, 80
3, 37680, Note_on_c, 1, 48, 80
3, 37680, Note_on_c, 1, 46, 80
3, 37740, Note_on_c, 1, 46, 0
3, 37740, Note_on_c, 1, 57, 0
3, 37740, Note_on_c, 1, 51, 0
3, 37740, Note_on_c, 1, 48, 0
3, 37920, Note_on_c, 1, 58, 80
3, 37920, Note_on_c, 1, 53, 80
3, 37920, Note_on_c, 1, 50, 80
3, 37920, Note_on_c, 1, 46, 80
3, 38040, Note_on_c, 1, 46, 0
3, 38040, Note_on_c, 1, 58, 0
3, 38040, Note_on_c, 1, 53, 0
3, 38040, Note_on_c, 1, 50, 0
3, 38160, Note_on_c, 1, 57, 80
3, 38160, Note_on_c, 1, 51, 80
3, 38160, Note_on_c, 1, 48, 80
3, 38160, Note_on_c, 1, 46, 80
3, 38220, Note_on_c, 1, 46, 0
3, 38220, Note_on_c, 1, 57, 0
3, 38220, Note_on_c, 1, 51, 0
3, 38220, Note_on_c, 1, 48, 0
3, 38400, Note_on_c, 1, 46, 80
3, 38400, Note_on_c, 1, 34, 80
3, 38496, Note_on_c, 1, 34, 0
3, 38496, Note_on_c, 1, 46, 0
3, 38520, Note_on_c, 1, 50, 80
3, 38520, Note_on_c, 1, 38, 80
3, 38616, Note_on_c, 1, 38, 0
3, 38616, Note_on_c, 1, 50, 0
3, 38640, Note_on_c, 1, 53, 80
3, 38640, Note_on_c, 1, 41, 80
3, 38736, Note_on_c, 1, 41, 0
3, 38736, Note_on_c, 1, 53, 0
3, 38760, Note_on_c, 1, 58, 80
3, 38760, Note_on_c, 1, 46, 80
3, 38856, Note_on_c, 1, 46, 0
3, 38856, Note_on_c, 1, 58, 0
3, 38880, Note_on_c, 1, 62, 80
3, 38880, Note_on_c, 1, 50, 80
3, 38976, Note_on_c, 1, 50, 0
3, 38976, Note_on_c, 1, 62, 0
3, 39000, Note_on_c, 1, 65, 80
3, 39000, Note_on_c, 1, 53, 80
3, 39096, Note_on_c, 1, 53, 0
3, 39096, Note_on_c, 1, 65, 0
3, 39120, Note_on_c, 1, 70, 80
3, 39120, Note_on_c, 1, 58, 80
3, 39216, Note_on_c, 1, 58, 0
3, 39216, Note_on_c, 1, 70, 0
3, 39240, Note_on_c, 1, 75, 80
3, 39240, Note_on_c, 1, 65, 80
3, 39336, Note_on_c, 1, 65, 0
3, 39336, Note_on_c, 1, 75, 0
3, 39360, Note_on_c, 1, 70, 80
3, 39360, Note_on_c, 1, 74, 80
3, 39456, Note_on_c, 1, 74, 0
3, 39456, Note_on_c, 1, 70, 0
3, 39480, Note_on_c, 1, 65, 75
3, 39480, Note_on_c, 1, 75, 75
3, 39576, Note_on_c, 1, 75, 0
3, 39576, Note_on_c, 1, 65, 0
3, 39600, Note_on_c, 1, 70, 70
3, 39600, Note_on_c, 1, 74, 70
3, 39696, Note_on_c, 1, 74, 0
3, 39696, Note_on_c, 1, 70, 0
3, 39720, Note_on_c, 1, 65, 65
3, 39720, Note_on_c, 1, 75, 65
3, 39816, Note_on_c, 1, 75, 0
3, 39816, Note_on_c, 1, 65, 0
3, 39840, Note_on_c, 1, 70, 40
3, 39864, Note_on_c, 1, 70, 0
3, 39870, Note_on_c, 1, 74, 40
3, 39894, Note_on_c, 1, 74, 0
3, 39900, Note_on_c, 1, 70, 40
3, 39924, Note_on_c, 1, 70, 0
3, 39930, Note_on_c, 1, 74, 40
3, 39954, Note_on_c, 1, 74, 0
3, 39960, Note_on_c, 1, 70, 40
3, 39984, Note_on_c, 1, 70, 0
3, 39990, Note_on_c, 1, 74, 40
3, 40014, Note_on_c, 1, 74, 0
3, 40020, Note_on_c, 1, 70, 40
3, 40044, Note_on_c, 1, 70, 0
3, 40050, Note_on_c, 1, 74, 40
3, 40074, Note_on_c, 1, 74, 0
3, 40080, Note_on_c, 1, 70, 40
3, 40104, Note_on_c, 1, 70, 0
3, 40110, Note_on_c, 1, 74, 40
3, 40134, Note_on_c, 1, 74, 0
3, 40140, Note_on_c, 1, 70, 40
3, 40164, Note_on_c, 1, 70, 0
3, 40170, Note_on_c, 1, 74, 40
3, 40194, Note_on_c, 1, 74, 0
3, 40200, Note_on_c, 1, 70, 40
3, 40224, Note_on_c, 1, 70, 0
3, 40230, Note_on_c, 1, 74, 40
3, 40254, Note_on_c, 1, 74, 0
3, 40260, Note_on_c, 1, 70, 40
3, 40284, Note_on_c, 1, 70, 0
3, 40290, Note_on_c, 1, 74, 40
3, 40314, Note_on_c, 1, 74, 0
3, 40320, Note_on_c, 1, 70, 40
3, 40368, Note_on_c, 1, 70, 0
3, 40560, Note_on_c, 1, 70, 38
3, 40560, Note_on_c, 1, 74, 38
3, 40632, Note_on_c, 1, 74, 0
3, 40632, Note_on_c, 1, 70, 0
3, 40800, Note_on_c, 1, 70, 36
3, 40800, Note_on_c, 1, 74, 36
3, 40896, Note_on_c, 1, 74, 0
3, 40896, Note_on_c, 1, 70, 0
3, 41280, Note_on_c, 1, 34, 40
3, 41280, Note_on_c, 1, 46, 40
3, 41760, Note_on_c, 1, 46, 0
3, 41760, Note_on_c, 1, 34, 0
3, 41760, Note_on_c, 1, 44, 40
3, 41760, Note_on_c, 1, 32, 40
3, 42240, Note_on_c, 1, 32, 0
3, 42240, Note_on_c, 1, 44, 0
3, 42240, Note_on_c, 1, 31, 40
3, 42240, Note_on_c, 1, 43, 40
3, 43008, Note_on_c, 1, 43, 0
3, 43008, Note_on_c, 1, 31, 0
3, 43440, Note_on_c, 1, 64, 80
3, 43440, Note_on_c, 1, 60, 80
3, 43476, Note_on_c, 1, 60, 0
3, 43476, Note_on_c, 1, 64, 0
3, 43560, Note_on_c, 1, 55, 80
3, 43560, Note_on_c, 1, 62, 80
3, 43596, Note_on_c, 1, 62, 0
3, 43596, Note_on_c, 1, 55, 0
3, 43680, Note_on_c, 1, 52, 80
3, 43680, Note_on_c, 1, 60, 80
3, 43776, Note_on_c, 1, 60, 0
3, 43776, Note_on_c, 1, 52, 0
3, 43920, Note_on_c, 1, 64, 64
3, 43920, Note_on_c, 1, 60, 64
3, 43956, Note_on_c, 1, 60, 0
3, 43956, Note_on_c, 1, 64, 0
3, 44040, Note_on_c, 1, 55, 64
3, 44040, Note_on_c, 1, 62, 64
3, 44076, Note_on_c, 1, 62, 0
3, 44076, Note_on_c, 1, 55, 0
3, 44160, Note_on_c, 1, 60, 64
3, 44160, Note_on_c, 1, 52, 64
3, 44256, Note_on_c, 1, 52, 0
3, 44256, Note_on_c, 1, 60, 0
3, 44370, Note_on_c, 1, 60, 80
3, 44394, Note_on_c, 1, 60, 0
3, 44400, Note_on_c, 1, 64, 80
3, 44448, Note_on_c, 1, 64, 0
3, 44490, Note_on_c, 1, 60, 80
3, 44514, Note_on_c, 1, 60, 0
3, 44520, Note_on_c, 1, 65, 80
3, 44568, Note_on_c, 1, 65, 0
3, 44610, Note_on_c, 1, 60, 80
3, 44634, Note_on_c, 1, 60, 0
3, 44640, Note_on_c, 1, 67, 80
3, 44688, Note_on_c, 1, 67, 0
3, 44730, Note_on_c, 1, 60, 80
3, 44754, Note_on_c, 1, 60, 0
3, 44760, Note_on_c, 1, 69, 80
3, 44808, Note_on_c, 1, 69, 0
3, 44850, Note_on_c, 1, 60, 80
3, 44874, Note_on_c, 1, 60, 0
3, 44880, Note_on_c, 1, 70, 80
3, 44928, Note_on_c, 1, 70, 0
3, 44970, Note_on_c, 1, 60, 80
3, 44994, Note_on_c, 1, 60, 0
3, 45000, Note_on_c, 1, 70, 80
3, 45048, Note_on_c, 1, 70, 0
3, 45090, Note_on_c, 1, 60, 80
3, 45114, Note_on_c, 1, 60, 0
3, 45120, Note_on_c, 1, 69, 80
3, 45120, Note_on_c, 1, 65, 80
3, 45240, Note_on_c, 1, 65, 0
3, 45240, Note_on_c, 1, 69, 0
3, 45360, Note_on_c, 1, 60, 76
3, 45360, Note_on_c, 1, 70, 76
3, 45420, Note_on_c, 1, 70, 0
3, 45420, Note_on_c, 1, 60, 0
3, 45600, Note_on_c, 1, 69, 72
3, 45600, Note_on_c, 1, 65, 72
3, 45600, Note_on_c, 1, 62, 72
3, 45660, Note_on_c, 1, 62, 0
3, 45660, Note_on_c, 1, 65, 0
3, 45660, Note_on_c, 1, 69, 0
3, 45840, Note_on_c, 1, 67, 68
3, 45840, Note_on_c, 1, 57, 68
3, 45900, Note_on_c, 1, 57, 0
3, 45900, Note_on_c, 1, 67, 0
3, 46080, Note_on_c, 1, 58, 64
3, 46080, Note_on_c, 1, 65, 64
3, 46200, Note_on_c, 1, 65, 0
3, 46200, Note_on_c, 1, 58, 0
3, 46320, Note_on_c, 1, 63, 60
3, 46320, Note_on_c, 1, 53, 60
3, 46380, Note_on_c, 1, 53, 0
3, 46380, Note_on_c, 1, 63, 0
3, 46560, Note_on_c, 1, 62, 56
3, 46560, Note_on_c, 1, 55, 56
3, 46620, Note_on_c, 1, 55, 0
3, 46620, Note_on_c, 1, 62, 0
3, 46800, Note_on_c, 1, 60, 52
3, 46800, Note_on_c, 1, 50, 52
3, 46860, Note_on_c, 1, 50, 0
3, 46860, Note_on_c, 1, 60, 0
3, 47040, Note_on_c, 1, 51, 56
3, 47070, Note_on_c, 1, 51, 0
3, 47070, Note_on_c, 1, 55, 56
3, 47100, Note_on_c, 1, 55, 0
3, 47100, Note_on_c, 1, 51, 56
3, 47130, Note_on_c, 1, 51, 0
3, 47130, Note_on_c, 1, 55, 56
3, 47160, Note_on_c, 1, 55, 0
3, 47160, Note_on_c, 1, 51, 56
3, 47190, Note_on_c, 1, 51, 0
3, 47190, Note_on_c, 1, 55, 56
3, 47220, Note_on_c, 1, 55, 0
3, 47220, Note_on_c, 1, 51, 56
3, 47250, Note_on_c, 1, 51, 0
3, 47250, Note_on_c, 1, 55, 56
3, 47280, Note_on_c, 1, 55, 0
3, 47280, Note_on_c, 1, 51, 56
3, 47310, Note_on_c, 1, 51, 0
3, 47310, Note_on_c, 1, 55, 56
3, 47340, Note_on_c, 1, 55, 0
3, 47340, Note_on_c, 1, 51, 56
3, 47370, Note_on_c, 1, 51, 0
3, 47370, Note_on_c, 1, 55, 56
3, 47400, Note_on_c, 1, 55, 0
3, 47400, Note_on_c, 1, 51, 56
3, 47430, Note_on_c, 1, 51, 0
3, 47430, Note_on_c, 1, 55, 56
3, 47460, Note_on_c, 1, 55, 0
3, 47460, Note_on_c, 1, 51, 56
3, 47490, Note_on_c, 1, 51, 0
3, 47490, Note_on_c, 1, 55, 56
3, 47520, Note_on_c, 1, 55, 0
3, 47520, Note_on_c, 1, 51, 56
3, 47550, Note_on_c, 1, 51, 0
3, 47550, Note_on_c, 1, 55, 56
3, 47580, Note_on_c, 1, 55, 0
3, 47580, Note_on_c, 1, 51, 56
3, 47610, Note_on_c, 1, 51, 0
3, 47610, Note_on_c, 1, 55, 56
3, 47640, Note_on_c, 1, 55, 0
3, 47640, Note_on_c, 1, 51, 56
3, 47670, Note_on_c, 1, 51, 0
3, 47670, Note_on_c, 1, 55, 56
3, 47700, Note_on_c, 1, 55, 0
3, 47700, Note_on_c, 1, 51, 56
3, 47730, Note_on_c, 1, 51, 0
3, 47730, Note_on_c, 1, 55, 56
3, 47760, Note_on_c, 1, 55, 0
3, 47760, Note_on_c, 1, 51, 56
3, 47790, Note_on_c, 1, 51, 0
3, 47790, Note_on_c, 1, 55, 56
3, 47820, Note_on_c, 1, 55, 0
3, 47820, Note_on_c, 1, 51, 56
3, 47850, Note_on_c, 1, 51, 0
3, 47850, Note_on_c, 1, 55, 56
3, 47880, Note_on_c, 1, 55, 0
3, 47880, Note_on_c, 1, 51, 56
3, 47910, Note_on_c, 1, 51, 0
3, 47910, Note_on_c, 1, 55, 56
3, 47940, Note_on_c, 1, 55, 0
3, 47940, Note_on_c, 1, 51, 56
3, 47970, Note_on_c, 1, 51, 0
3, 47970, Note_on_c, 1, 55, 56
3, 48000, Note_on_c, 1, 55, 0
3, 48000, Note_on_c, 1, 54, 64
3, 48000, Note_on_c, 1, 50, 64
3, 48192, Note_on_c, 1, 54, 0
3, 48300, Note_on_c, 1, 55, 80
3, 48324, Note_on_c, 1, 55, 0
3, 48360, Note_on_c, 1, 54, 80
3, 48384, Note_on_c, 1, 54, 0
3, 48420, Note_on_c, 1, 57, 80
3, 48444, Note_on_c, 1, 57, 0
3, 48480, Note_on_c, 1, 55, 80
3, 48528, Note_on_c, 1, 55, 0
3, 48540, Note_on_c, 1, 58, 80
3, 48564, Note_on_c, 1, 58, 0
3, 48600, Note_on_c, 1, 57, 80
3, 48624, Note_on_c, 1, 57, 0
3, 48660, Note_on_c, 1, 60, 80
3, 48684, Note_on_c, 1, 60, 0
3, 48720, Note_on_c, 1, 58, 80
3, 48768, Note_on_c, 1, 50, 0
3, 48816, Note_on_c, 1, 58, 0
3, 48840, Note_on_c, 1, 55, 80
3, 48936, Note_on_c, 1, 55, 0
3, 48960, Note_on_c, 1, 50, 48
3, 48960, Note_on_c, 1, 54, 48
3, 49152, Note_on_c, 1, 54, 0
3, 49152, Note_on_c, 1, 50, 0
3, 49260, Note_on_c, 1, 67, 48
3, 49284, Note_on_c, 1, 67, 0
3, 49320, Note_on_c, 1, 66, 48
3, 49344, Note_on_c, 1, 66, 0
3, 49380, Note_on_c, 1, 69, 48
3, 49404, Note_on_c, 1, 69, 0
3, 49440, Note_on_c, 1, 67, 48
3, 49488, Note_on_c, 1, 67, 0
3, 49500, Note_on_c, 1, 70, 48
3, 49524, Note_on_c, 1, 70, 0
3, 49560, Note_on_c, 1, 69, 48
3, 49584, Note_on_c, 1, 69, 0
3, 49620, Note_on_c, 1, 72, 48
3, 49644, Note_on_c, 1, 72, 0
3, 49680, Note_on_c, 1, 70, 51
3, 49728, Note_on_c, 1, 70, 0
3, 49740, Note_on_c, 1, 67, 57
3, 49764, Note_on_c, 1, 67, 0
3, 49800, Note_on_c, 1, 66, 64
3, 49824, Note_on_c, 1, 66, 0
3, 49860, Note_on_c, 1, 69, 70
3, 49884, Note_on_c, 1, 69, 0
3, 49920, Note_on_c, 1, 67, 76
3, 49968, Note_on_c, 1, 67, 0
3, 49980, Note_on_c, 1, 75, 48
3, 50028, Note_on_c, 1, 75, 0
3, 50040, Note_on_c, 1, 74, 48
3, 50088, Note_on_c, 1, 74, 0
3, 50100, Note_on_c, 1, 72, 48
3, 50148, Note_on_c, 1, 72, 0
3, 50160, Note_on_c, 1, 70, 50
3, 50208, Note_on_c, 1, 70, 0
3, 50220, Note_on_c, 1, 67, 57
3, 50244, Note_on_c, 1, 67, 0
3, 50280, Note_on_c, 1, 66, 64
3, 50304, Note_on_c, 1, 66, 0
3, 50340, Note_on_c, 1, 69, 71
3, 50364, Note_on_c, 1, 69, 0
3, 50400, Note_on_c, 1, 67, 77
3, 50448, Note_on_c, 1, 67, 0
3, 50460, Note_on_c, 1, 75, 48
3, 50508, Note_on_c, 1, 75, 0
3, 50520, Note_on_c, 1, 74, 48
3, 50568, Note_on_c, 1, 74, 0
3, 50580, Note_on_c, 1, 72, 48
3, 50628, Note_on_c, 1, 72, 0
3, 50640, Note_on_c, 1, 70, 48
3, 50688, Note_on_c, 1, 70, 0
3, 50700, Note_on_c, 1, 67, 48
3, 50724, Note_on_c, 1, 67, 0
3, 50760, Note_on_c, 1, 72, 48
3, 50784, Note_on_c, 1, 72, 0
3, 50820, Note_on_c, 1, 70, 48
3, 50844, Note_on_c, 1, 70, 0
3, 50880, Note_on_c, 1, 68, 48
3, 50928, Note_on_c, 1, 68, 0
3, 50940, Note_on_c, 1, 65, 48
3, 50952, Note_on_c, 1, 65, 0
3, 51000, Note_on_c, 1, 70, 48
3, 51012, Note_on_c, 1, 70, 0
3, 51060, Note_on_c, 1, 68, 48
3, 51072, Note_on_c, 1, 68, 0
3, 51120, Note_on_c, 1, 67, 48
3, 51168, Note_on_c, 1, 67, 0
3, 51180, Note_on_c, 1, 63, 48
3, 51192, Note_on_c, 1, 63, 0
3, 51240, Note_on_c, 1, 68, 48
3, 51252, Note_on_c, 1, 68, 0
3, 51300, Note_on_c, 1, 67, 48
3, 51312, Note_on_c, 1, 67, 0
3, 51360, Note_on_c, 1, 65, 48
3, 51408, Note_on_c, 1, 65, 0
3, 51420, Note_on_c, 1, 62, 48
3, 51444, Note_on_c, 1, 62, 0
3, 51480, Note_on_c, 1, 67, 48
3, 51504, Note_on_c, 1, 67, 0
3, 51540, Note_on_c, 1, 65, 48
3, 51564, Note_on_c, 1, 65, 0
3, 51600, Note_on_c, 1, 63, 50
3, 51648, Note_on_c, 1, 63, 0
3, 51660, Note_on_c, 1, 60, 59
3, 51684, Note_on_c, 1, 60, 0
3, 51720, Note_on_c, 1, 59, 67
3, 51744, Note_on_c, 1, 59, 0
3, 51780, Note_on_c, 1, 62, 76
3, 51804, Note_on_c, 1, 62, 0
3, 51840, Note_on_c, 1, 60, 85
3, 51888, Note_on_c, 1, 60, 0
3, 51900, Note_on_c, 1, 68, 48
3, 51948, Note_on_c, 1, 68, 0
3, 51960, Note_on_c, 1, 67, 48
3, 52008, Note_on_c, 1, 67, 0
3, 52020, Note_on_c, 1, 65, 48
3, 52068, Note_on_c, 1, 65, 0
3, 52080, Note_on_c, 1, 63, 51
3, 52128, Note_on_c, 1, 63, 0
3, 52140, Note_on_c, 1, 60, 59
3, 52164, Note_on_c, 1, 60, 0
3, 52200, Note_on_c, 1, 59, 68
3, 52224, Note_on_c, 1, 59, 0
3, 52260, Note_on_c, 1, 62, 77
3, 52284, Note_on_c, 1, 62, 0
3, 52320, Note_on_c, 1, 60, 85
3, 52368, Note_on_c, 1, 60, 0
3, 52380, Note_on_c, 1, 68, 48
3, 52428, Note_on_c, 1, 68, 0
3, 52440, Note_on_c, 1, 67, 48
3, 52488, Note_on_c, 1, 67, 0
3, 52500, Note_on_c, 1, 65, 48
3, 52548, Note_on_c, 1, 65, 0
3, 52560, Note_on_c, 1, 63, 48
3, 52656, Note_on_c, 1, 63, 0
3, 52740, Note_on_c, 1, 65, 48
3, 52740, Note_on_c, 1, 68, 48
3, 52764, Note_on_c, 1, 68, 0
3, 52764, Note_on_c, 1, 65, 0
3, 52800, Note_on_c, 1, 63, 48
3, 52800, Note_on_c, 1, 67, 48
3, 52896, Note_on_c, 1, 67, 0
3, 52896, Note_on_c, 1, 63, 0
3, 52980, Note_on_c, 1, 65, 54
3, 52980, Note_on_c, 1, 68, 54
3, 52992, Note_on_c, 1, 68, 0
3, 52992, Note_on_c, 1, 65, 0
3, 53040, Note_on_c, 1, 63, 56
3, 53040, Note_on_c, 1, 67, 56
3, 53136, Note_on_c, 1, 67, 0
3, 53136, Note_on_c, 1, 63, 0
3, 53220, Note_on_c, 1, 65, 62
3, 53220, Note_on_c, 1, 68, 62
3, 53232, Note_on_c, 1, 68, 0
3, 53232, Note_on_c, 1, 65, 0
3, 53280, Note_on_c, 1, 63, 64
3, 53280, Note_on_c, 1, 67, 64
3, 53664, Note_on_c, 1, 67, 0
3, 53664, Note_on_c, 1, 63, 0
3, 53760, Note_on_c, 1, 67, 48
3, 53760, Note_on_c, 1, 63, 48
3, 53808, Note_on_c, 1, 63, 0
3, 53820, Note_on_c, 1, 60, 52
3, 53844, Note_on_c, 1, 60, 0
3, 53856, Note_on_c, 1, 67, 0
3, 53880, Note_on_c, 1, 67, 57
3, 53880, Note_on_c, 1, 63, 57
3, 53904, Note_on_c, 1, 63, 0
3, 53928, Note_on_c, 1, 67, 0
3, 53940, Note_on_c, 1, 60, 61
3, 53964, Note_on_c, 1, 60, 0
3, 54000, Note_on_c, 1, 67, 65
3, 54000, Note_on_c, 1, 63, 65
3, 54024, Note_on_c, 1, 63, 0
3, 54048, Note_on_c, 1, 67, 0
3, 54060, Note_on_c, 1, 60, 70
3, 54084, Note_on_c, 1, 60, 0
3, 54120, Note_on_c, 1, 67, 74
3, 54120, Note_on_c, 1, 63, 74
3, 54144, Note_on_c, 1, 63, 0
3, 54168, Note_on_c, 1, 67, 0
3, 54180, Note_on_c, 1, 60, 78
3, 54204, Note_on_c, 1, 60, 0
3, 54240, Note_on_c, 1, 68, 48
3, 54300, Note_on_c, 1, 68, 0
3, 54300, Note_on_c, 1, 72, 48
3, 54360, Note_on_c, 1, 72, 0
3, 54360, Note_on_c, 1, 68, 48
3, 54420, Note_on_c, 1, 68, 0
3, 54420, Note_on_c, 1, 72, 48
3, 54480, Note_on_c, 1, 72, 0
3, 54480, Note_on_c, 1, 68, 48
3, 54540, Note_on_c, 1, 68, 0
3, 54540, Note_on_c, 1, 72, 48
3, 54600, Note_on_c, 1, 72, 0
3, 54600, Note_on_c, 1, 68, 48
3, 54660, Note_on_c, 1, 68, 0
3, 54660, Note_on_c, 1, 72, 48
3, 54720, Note_on_c, 1, 72, 0
3, 54720, Note_on_c, 1, 67, 48
3, 54780, Note_on_c, 1, 67, 0
3, 54780, Note_on_c, 1, 70, 48
3, 54840, Note_on_c, 1, 70, 0
3, 54840, Note_on_c, 1, 67, 48
3, 54900, Note_on_c, 1, 67, 0
3, 54900, Note_on_c, 1, 70, 48
3, 54960, Note_on_c, 1, 70, 0
3, 54960, Note_on_c, 1, 60, 48
3, 55020, Note_on_c, 1, 60, 0
3, 55020, Note_on_c, 1, 70, 48
3, 55080, Note_on_c, 1, 70, 0
3, 55080, Note_on_c, 1, 60, 48
3, 55140, Note_on_c, 1, 60, 0
3, 55140, Note_on_c, 1, 70, 48
3, 55200, Note_on_c, 1, 70, 0
3, 55200, Note_on_c, 1, 65, 48
3, 55440, Note_on_c, 1, 65, 0
3, 55440, Note_on_c, 1, 41, 64
3, 55620, Note_on_c, 1, 41, 0
3, 55620, Note_on_c, 1, 43, 64
3, 55650, Note_on_c, 1, 43, 0
3, 55650, Note_on_c, 1, 41, 64
3, 55680, Note_on_c, 1, 41, 0
3, 55680, Note_on_c, 1, 40, 64
3, 55800, Note_on_c, 1, 40, 0
3, 55920, Note_on_c, 1, 63, 64
3, 56100, Note_on_c, 1, 63, 0
3, 56100, Note_on_c, 1, 65, 64
3, 56130, Note_on_c, 1, 65, 0
3, 56130, Note_on_c, 1, 63, 64
3, 56160, Note_on_c, 1, 63, 0
3, 56160, Note_on_c, 1, 62, 64
3, 56280, Note_on_c, 1, 62, 0
3, 56400, Note_on_c, 1, 37, 64
3, 56580, Note_on_c, 1, 37, 0
3, 56580, Note_on_c, 1, 39, 64
3, 56610, Note_on_c, 1, 39, 0
3, 56610, Note_on_c, 1, 37, 64
3, 56640, Note_on_c, 1, 37, 0
3, 56640, Note_on_c, 1, 36, 64
3, 56736, Note_on_c, 1, 36, 0
3, 56880, Note_on_c, 1, 60, 64
3, 57024, Note_on_c, 1, 60, 0
3, 57060, Note_on_c, 1, 61, 64
3, 57084, Note_on_c, 1, 61, 0
3, 57090, Note_on_c, 1, 60, 64
3, 57114, Note_on_c, 1, 60, 0
3, 57120, Note_on_c, 1, 58, 64
3, 57216, Note_on_c, 1, 58, 0
3, 57360, Note_on_c, 1, 34, 64
3, 57504, Note_on_c, 1, 34, 0
3, 57540, Note_on_c, 1, 36, 64
3, 57564, Note_on_c, 1, 36, 0
3, 57570, Note_on_c, 1, 34, 64
3, 57594, Note_on_c, 1, 34, 0
3, 57600, Note_on_c, 1, 32, 72
3, 57840, Note_on_c, 1, 32, 0
3, 57840, Note_on_c, 1, 61, 72
3, 57840, Note_on_c, 1, 58, 72
3, 57840, Note_on_c, 1, 51, 72
3, 57960, Note_on_c, 1, 51, 0
3, 57960, Note_on_c, 1, 58, 0
3, 57960, Note_on_c, 1, 61, 0
3, 58080, Note_on_c, 1, 60, 72
3, 58080, Note_on_c, 1, 56, 72
3, 58200, Note_on_c, 1, 56, 0
3, 58200, Note_on_c, 1, 60, 0
3, 58320, Note_on_c, 1, 63, 72
3, 58320, Note_on_c, 1, 58, 72
3, 58320, Note_on_c, 1, 55, 72
3, 58440, Note_on_c, 1, 55, 0
3, 58440, Note_on_c, 1, 58, 0
3, 58440, Note_on_c, 1, 63, 0
3, 58560, Note_on_c, 1, 60, 48
3, 58560, Note_on_c, 1, 56, 48
3, 58560, Note_on_c, 1, 63, 48
3, 58800, Note_on_c, 1, 63, 0
3, 58800, Note_on_c, 1, 56, 0
3, 58800, Note_on_c, 1, 60, 0
3, 58800, Note_on_c, 1, 63, 48
3, 58800, Note_on_c, 1, 61, 48
3, 58800, Note_on_c, 1, 58, 48
3, 58920, Note_on_c, 1, 58, 0
3, 58920, Note_on_c, 1, 61, 0
3, 58920, Note_on_c, 1, 63, 0
3, 59040, Note_on_c, 1, 63, 48
3, 59040, Note_on_c, 1, 60, 48
3, 59160, Note_on_c, 1, 60, 0
3, 59160, Note_on_c, 1, 63, 0
3, 59280, Note_on_c, 1, 63, 48
3, 59280, Note_on_c, 1, 58, 48
3, 59280, Note_on_c, 1, 55, 48
3, 59400, Note_on_c, 1, 55, 0
3, 59400, Note_on_c, 1, 58, 0
3, 59400, Note_on_c, 1, 63, 0
3, 59520, Note_on_c, 1, 68, 80
3, 59616, Note_on_c, 1, 68, 0
3, 59640, Note_on_c, 1, 63, 80
3, 59676, Note_on_c, 1, 63, 0
3, 59760, Note_on_c, 1, 60, 80
3, 59796, Note_on_c, 1, 60, 0
3, 59880, Note_on_c, 1, 56, 80
3, 59916, Note_on_c, 1, 56, 0
3, 60000, Note_on_c, 1, 66, 80
3, 60096, Note_on_c, 1, 66, 0
3, 60120, Note_on_c, 1, 63, 80
3, 60156, Note_on_c, 1, 63, 0
3, 60240, Note_on_c, 1, 60, 80
3, 60276, Note_on_c, 1, 60, 0
3, 60360, Note_on_c, 1, 54, 80
3, 60396, Note_on_c, 1, 54, 0
3, 60480, Note_on_c, 1, 30, 80
3, 60480, Note_on_c, 1, 42, 80
3, 60864, Note_on_c, 1, 42, 0
3, 60864, Note_on_c, 1, 30, 0
3, 60960, Note_on_c, 1, 31, 80
3, 60960, Note_on_c, 1, 43, 80
3, 61056, Note_on_c, 1, 43, 0
3, 61056, Note_on_c, 1, 31, 0
3, 61200, Note_on_c, 1, 55, 80
3, 61200, Note_on_c, 1, 51, 80
3, 61200, Note_on_c, 1, 48, 80
3, 61200, Note_on_c, 1, 43, 80
3, 61296, Note_on_c, 1, 43, 0
3, 61296, Note_on_c, 1, 55, 0
3, 61296, Note_on_c, 1, 51, 0
3, 61296, Note_on_c, 1, 48, 0
3, 61440, Note_on_c, 1, 55, 80
3, 61440, Note_on_c, 1, 50, 80
3, 61440, Note_on_c, 1, 47, 80
3, 61440, Note_on_c, 1, 43, 80
3, 61536, Note_on_c, 1, 43, 0
3, 61536, Note_on_c, 1, 55, 0
3, 61536, Note_on_c, 1, 50, 0
3, 61536, Note_on_c, 1, 47, 0
3, 61680, Note_on_c, 1, 55, 80
3, 61680, Note_on_c, 1, 51, 80
3, 61680, Note_on_c, 1, 48, 80
3, 61680, Note_on_c, 1, 43, 80
3, 61776, Note_on_c, 1, 43, 0
3, 61776, Note_on_c, 1, 55, 0
3, 61776, Note_on_c, 1, 51, 0
3, 61776, Note_on_c, 1, 48, 0
3, 61920, Note_on_c, 1, 43, 80
3, 61944, Note_on_c, 1, 43, 0
3, 61950, Note_on_c, 1, 47, 80
3, 61974, Note_on_c, 1, 47, 0
3, 61980, Note_on_c, 1, 50, 80
3, 62004, Note_on_c, 1, 50, 0
3, 62010, Note_on_c, 1, 55, 80
3, 62034, Note_on_c, 1, 55, 0
3, 62040, Note_on_c, 1, 56, 80
3, 62064, Note_on_c, 1, 56, 0
3, 62070, Note_on_c, 1, 55, 80
3, 62094, Note_on_c, 1, 55, 0
3, 62100, Note_on_c, 1, 50, 80
3, 62124, Note_on_c, 1, 50, 0
3, 62130, Note_on_c, 1, 47, 80
3, 62154, Note_on_c, 1, 47, 0
3, 62160, Note_on_c, 1, 43, 80
3, 62184, Note_on_c, 1, 43, 0
3, 62190, Note_on_c, 1, 48, 80
3, 62214, Note_on_c, 1, 48, 0
3, 62220, Note_on_c, 1, 51, 80
3, 62244, Note_on_c, 1, 51, 0
3, 62250, Note_on_c, 1, 55, 80
3, 62274, Note_on_c, 1, 55, 0
3, 62280, Note_on_c, 1, 56, 80
3, 62304, Note_on_c, 1, 56, 0
3, 62310, Note_on_c, 1, 55, 80
3, 62334, Note_on_c, 1, 55, 0
3, 62340, Note_on_c, 1, 51, 80
3, 62364, Note_on_c, 1, 51, 0
3, 62370, Note_on_c, 1, 48, 80
3, 62394, Note_on_c, 1, 48, 0
3, 62400, Note_on_c, 1, 43, 80
3, 62424, Note_on_c, 1, 43, 0
3, 62430, Note_on_c, 1, 47, 80
3, 62454, Note_on_c, 1, 47, 0
3, 62460, Note_on_c, 1, 50, 80
3, 62484, Note_on_c, 1, 50, 0
3, 62490, Note_on_c, 1, 55, 80
3, 62514, Note_on_c, 1, 55, 0
3, 62520, Note_on_c, 1, 56, 80
3, 62544, Note_on_c, 1, 56, 0
3, 62550, Note_on_c, 1, 55, 80
3, 62574, Note_on_c, 1, 55, 0
3, 62580, Note_on_c, 1, 50, 80
3, 62604, Note_on_c, 1, 50, 0
3, 62610, Note_on_c, 1, 47, 80
3, 62634, Note_on_c, 1, 47, 0
3, 62640, Note_on_c, 1, 43, 80
3, 62664, Note_on_c, 1, 43, 0
3, 62670, Note_on_c, 1, 48, 80
3, 62694, Note_on_c, 1, 48, 0
3, 62700, Note_on_c, 1, 51, 80
3, 62724, Note_on_c, 1, 51, 0
3, 62730, Note_on_c, 1, 55, 80
3, 62754, Note_on_c, 1, 55, 0
3, 62760, Note_on_c, 1, 56, 80
3, 62784, Note_on_c, 1, 56, 0
3, 62790, Note_on_c, 1, 55, 80
3, 62814, Note_on_c, 1, 55, 0
3, 62820, Note_on_c, 1, 51, 80
3, 62844, Note_on_c, 1, 51, 0
3, 62850, Note_on_c, 1, 48, 80
3, 62874, Note_on_c, 1, 48, 0
3, 62880, Note_on_c, 1, 43, 80
3, 62964, Note_on_c, 1, 43, 0
3, 63120, Note_on_c, 1, 55, 80
3, 63120, Note_on_c, 1, 50, 80
3, 63120, Note_on_c, 1, 47, 80
3, 63120, Note_on_c, 1, 43, 80
3, 63204, Note_on_c, 1, 43, 0
3, 63204, Note_on_c, 1, 55, 0
3, 63204, Note_on_c, 1, 50, 0
3, 63204, Note_on_c, 1, 47, 0
3, 63360, Note_on_c, 1, 31, 56
3, 63360, Note_on_c, 1, 43, 80
3, 64128, Note_on_c, 1, 43, 0
3, 64128, Note_on_c, 1, 31, 0
3, 64560, Note_on_c, 1, 64, 64
3, 64560, Note_on_c, 1, 68, 64
3, 64596, Note_on_c, 1, 68, 0
3, 64596, Note_on_c, 1, 64, 0
3, 64680, Note_on_c, 1, 59, 64
3, 64680, Note_on_c, 1, 66, 64
3, 64716, Note_on_c, 1, 66, 0
3, 64716, Note_on_c, 1, 59, 0
3, 64800, Note_on_c, 1, 56, 64
3, 64800, Note_on_c, 1, 64, 64
3, 64896, Note_on_c, 1, 64, 0
3, 64896, Note_on_c, 1, 56, 0
3, 65040, Note_on_c, 1, 64, 48
3, 65040, Note_on_c, 1, 68, 48
3, 65076, Note_on_c, 1, 68, 0
3, 65076, Note_on_c, 1, 64, 0
3, 65160, Note_on_c, 1, 59, 48
3, 65160, Note_on_c, 1, 66, 48
3, 65196, Note_on_c, 1, 66, 0
3, 65196, Note_on_c, 1, 59, 0
3, 65280, Note_on_c, 1, 56, 40
3, 65280, Note_on_c, 1, 64, 40
3, 65376, Note_on_c, 1, 64, 0
3, 65376, Note_on_c, 1, 56, 0
3, 65490, Note_on_c, 1, 64, 45
3, 65514, Note_on_c, 1, 64, 0
3, 65520, Note_on_c, 1, 68, 46
3, 65568, Note_on_c, 1, 68, 0
3, 65610, Note_on_c, 1, 64, 48
3, 65634, Note_on_c, 1, 64, 0
3, 65640, Note_on_c, 1, 69, 49
3, 65688, Note_on_c, 1, 69, 0
3, 65730, Note_on_c, 1, 64, 51
3, 65754, Note_on_c, 1, 64, 0
3, 65760, Note_on_c, 1, 71, 52
3, 65808, Note_on_c, 1, 71, 0
3, 65850, Note_on_c, 1, 64, 54
3, 65874, Note_on_c, 1, 64, 0
3, 65880, Note_on_c, 1, 73, 55
3, 65928, Note_on_c, 1, 73, 0
3, 65970, Note_on_c, 1, 64, 57
3, 65994, Note_on_c, 1, 64, 0
3, 66000, Note_on_c, 1, 74, 58
3, 66048, Note_on_c, 1, 74, 0
3, 66090, Note_on_c, 1, 64, 60
3, 66114, Note_on_c, 1, 64, 0
3, 66120, Note_on_c, 1, 74, 61
3, 66168, Note_on_c, 1, 74, 0
3, 66210, Note_on_c, 1, 64, 63
3, 66234, Note_on_c, 1, 64, 0
3, 66240, Note_on_c, 1, 73, 64
3, 66336, Note_on_c, 1, 73, 0
3, 66480, Note_on_c, 1, 61, 64
3, 66480, Note_on_c, 1, 57, 64
3, 66516, Note_on_c, 1, 57, 0
3, 66516, Note_on_c, 1, 61, 0
3, 66600, Note_on_c, 1, 59, 64
3, 66600, Note_on_c, 1, 52, 64
3, 66636, Note_on_c, 1, 52, 0
3, 66636, Note_on_c, 1, 59, 0
3, 66720, Note_on_c, 1, 57, 64
3, 66720, Note_on_c, 1, 49, 64
3, 66816, Note_on_c, 1, 49, 0
3, 66816, Note_on_c, 1, 57, 0
3, 66960, Note_on_c, 1, 61, 48
3, 66960, Note_on_c, 1, 57, 48
3, 66996, Note_on_c, 1, 57, 0
3, 66996, Note_on_c, 1, 61, 0
3, 67080, Note_on_c, 1, 59, 48
3, 67080, Note_on_c, 1, 52, 48
3, 67116, Note_on_c, 1, 52, 0
3, 67116, Note_on_c, 1, 59, 0
3, 67200, Note_on_c, 1, 57, 48
3, 67200, Note_on_c, 1, 49, 48
3, 67296, Note_on_c, 1, 49, 0
3, 67296, Note_on_c, 1, 57, 0
3, 67680, Note_on_c, 1, 76, 52
3, 67680, Note_on_c, 1, 73, 52
3, 67920, Note_on_c, 1, 73, 0
3, 67920, Note_on_c, 1, 76, 0
3, 67920, Note_on_c, 1, 74, 58
3, 67920, Note_on_c, 1, 71, 58
3, 68160, Note_on_c, 1, 71, 0
3, 68160, Note_on_c, 1, 74, 0
3, 68160, Note_on_c, 1, 70, 64
3, 68160, Note_on_c, 1, 73, 64
3, 68280, Note_on_c, 1, 73, 0
3, 68280, Note_on_c, 1, 70, 0
3, 68280, Note_on_c, 1, 71, 66
3, 68280, Note_on_c, 1, 74, 66
3, 68400, Note_on_c, 1, 74, 0
3, 68400, Note_on_c, 1, 71, 0
3, 68400, Note_on_c, 1, 70, 68
3, 68400, Note_on_c, 1, 73, 68
3, 68520, Note_on_c, 1, 73, 0
3, 68520, Note_on_c, 1, 70, 0
3, 68520, Note_on_c, 1, 66, 70
3, 68520, Note_on_c, 1, 70, 70
3, 68640, Note_on_c, 1, 70, 0
3, 68640, Note_on_c, 1, 66, 0
3, 68640, Note_on_c, 1, 71, 64
3, 68700, Note_on_c, 1, 71, 0
3, 68700, Note_on_c, 1, 74, 64
3, 68760, Note_on_c, 1, 74, 0
3, 68760, Note_on_c, 1, 71, 64
3, 68820, Note_on_c, 1, 71, 0
3, 68820, Note_on_c, 1, 74, 64
3, 68880, Note_on_c, 1, 74, 0
3, 68880, Note_on_c, 1, 71, 64
3, 68940, Note_on_c, 1, 71, 0
3, 68940, Note_on_c, 1, 74, 64
3, 69000, Note_on_c, 1, 74, 0
3, 69000, Note_on_c, 1, 71, 64
3, 69060, Note_on_c, 1, 71, 0
3, 69060, Note_on_c, 1, 74, 64
3, 69120, Note_on_c, 1, 74, 0
3, 69120, Note_on_c, 1, 70, 64
3, 69180, Note_on_c, 1, 70, 0
3, 69180, Note_on_c, 1, 73, 64
3, 69240, Note_on_c, 1, 73, 0
3, 69240, Note_on_c, 1, 70, 64
3, 69300, Note_on_c, 1, 70, 0
3, 69300, Note_on_c, 1, 73, 64
3, 69360, Note_on_c, 1, 73, 0
3, 69360, Note_on_c, 1, 71, 64
3, 69420, Note_on_c, 1, 71, 0
3, 69420, Note_on_c, 1, 74, 64
3, 69480, Note_on_c, 1, 74, 0
3, 69480, Note_on_c, 1, 71, 64
3, 69540, Note_on_c, 1, 71, 0
3, 69540, Note_on_c, 1, 74, 64
3, 69600, Note_on_c, 1, 74, 0
3, 69600, Note_on_c, 1, 70, 64
3, 69660, Note_on_c, 1, 70, 0
3, 69660, Note_on_c, 1, 73, 64
3, 69720, Note_on_c, 1, 73, 0
3, 69720, Note_on_c, 1, 70, 64
3, 69780, Note_on_c, 1, 70, 0
3, 69780, Note_on_c, 1, 73, 64
3, 69840, Note_on_c, 1, 73, 0
3, 69840, Note_on_c, 1, 71, 80
3, 70020, Note_on_c, 1, 71, 0
3, 70020, Note_on_c, 1, 73, 80
3, 70050, Note_on_c, 1, 73, 0
3, 70050, Note_on_c, 1, 71, 80
3, 70080, Note_on_c, 1, 71, 0
3, 70080, Note_on_c, 1, 70, 80
3, 70320, Note_on_c, 1, 70, 0
3, 70320, Note_on_c, 1, 69, 80
3, 70560, Note_on_c, 1, 69, 0
3, 70560, Note_on_c, 1, 68, 80
3, 70800, Note_on_c, 1, 68, 0
3, 70800, Note_on_c, 1, 67, 80
3, 70980, Note_on_c, 1, 67, 0
3, 70980, Note_on_c, 1, 69, 80
3, 71010, Note_on_c, 1, 69, 0
3, 71010, Note_on_c, 1, 67, 80
3, 71040, Note_on_c, 1, 67, 0
3, 71040, Note_on_c, 1, 66, 80
3, 71400, Note_on_c, 1, 66, 0
3, 71400, Note_on_c, 1, 67, 80
3, 71520, Note_on_c, 1, 67, 0
3, 71520, Note_on_c, 1, 66, 80
3, 71880, Note_on_c, 1, 66, 0
3, 71880, Note_on_c, 1, 67, 80
3, 72000, Note_on_c, 1, 67, 0
3, 72000, Note_on_c, 1, 66, 80
3, 72480, Note_on_c, 1, 66, 0
3, 72480, Note_on_c, 1, 65, 68
3, 72960, Note_on_c, 1, 65, 0
3, 72960, Note_on_c, 1, 58, 56
3, 72960, Note_on_c, 1, 65, 56
3, 73320, Note_on_c, 1, 58, 0
3, 73320, Note_on_c, 1, 59, 56
3, 73440, Note_on_c, 1, 59, 0
3, 73440, Note_on_c, 1, 65, 0
3, 73440, Note_on_c, 1, 58, 56
3, 73440, Note_on_c, 1, 65, 56
3, 73800, Note_on_c, 1, 58, 0
3, 73800, Note_on_c, 1, 59, 56
3, 73920, Note_on_c, 1, 59, 0
3, 73920, Note_on_c, 1, 65, 0
3, 73920, Note_on_c, 1, 58, 56
3, 73920, Note_on_c, 1, 65, 56
3, 74304, Note_on_c, 1, 65, 0
3, 74304, Note_on_c, 1, 58, 0
3, 74700, Note_on_c, 1, 46, 76
3, 74748, Note_on_c, 1, 46, 0
3, 74760, Note_on_c, 1, 48, 77
3, 74808, Note_on_c, 1, 48, 0
3, 74820, Note_on_c, 1, 50, 79
3, 74868, Note_on_c, 1, 50, 0
3, 74880, Note_on_c, 1, 39, 76
3, 74895, Note_on_c, 1, 43, 76
3, 74910, Note_on_c, 1, 46, 76
3, 74925, Note_on_c, 1, 51, 76
3, 75120, Note_on_c, 1, 51, 0
3, 75120, Note_on_c, 1, 39, 0
3, 75120, Note_on_c, 1, 43, 0
3, 75120, Note_on_c, 1, 46, 0
3, 75120, Note_on_c, 1, 49, 76
3, 75120, Note_on_c, 1, 39, 76
3, 75120, Note_on_c, 1, 43, 76
3, 75120, Note_on_c, 1, 46, 76
3, 75300, Note_on_c, 1, 46, 0
3, 75300, Note_on_c, 1, 49, 0
3, 75300, Note_on_c, 1, 39, 0
3, 75300, Note_on_c, 1, 43, 0
3, 75300, Note_on_c, 1, 49, 76
3, 75300, Note_on_c, 1, 46, 76
3, 75300, Note_on_c, 1, 43, 76
3, 75300, Note_on_c, 1, 39, 76
3, 75360, Note_on_c, 1, 39, 0
3, 75360, Note_on_c, 1, 49, 0
3, 75360, Note_on_c, 1, 46, 0
3, 75360, Note_on_c, 1, 43, 0
3, 75360, Note_on_c, 1, 44, 76
3, 75360, Note_on_c, 1, 48, 76
3, 75360, Note_on_c, 1, 39, 76
3, 75720, Note_on_c, 1, 39, 0
3, 75720, Note_on_c, 1, 48, 0
3, 75720, Note_on_c, 1, 44, 0
3, 75765, Note_on_c, 1, 39, 76
3, 75780, Note_on_c, 1, 41, 76
3, 75795, Note_on_c, 1, 46, 76
3, 75810, Note_on_c, 1, 50, 76
3, 75960, Note_on_c, 1, 50, 0
3, 75960, Note_on_c, 1, 39, 0
3, 75960, Note_on_c, 1, 41, 0
3, 75960, Note_on_c, 1, 46, 0
3, 76080, Note_on_c, 1, 39, 76
3, 76080, Note_on_c, 1, 41, 76
3, 76080, Note_on_c, 1, 44, 76
3, 76080, Note_on_c, 1, 50, 76
3, 76080, Note_on_c, 1, 62, 76
3, 76080, Note_on_c, 1, 65, 76
3, 76200, Note_on_c, 1, 65, 0
3, 76200, Note_on_c, 1, 41, 0
3, 76200, Note_on_c, 1, 44, 0
3, 76200, Note_on_c, 1, 39, 0
3, 76200, Note_on_c, 1, 62, 0
3, 76200, Note_on_c, 1, 50, 0
3, 76260, Note_on_c, 1, 39, 76
3, 76275, Note_on_c, 1, 43, 76
3, 76290, Note_on_c, 1, 46, 76
3, 76305, Note_on_c, 1, 51, 76
3, 76320, Note_on_c, 1, 51, 0
3, 76320, Note_on_c, 1, 43, 0
3, 76320, Note_on_c, 1, 51, 76
3, 76320, Note_on_c, 1, 43, 76
3, 76560, Note_on_c, 1, 43, 0
3, 76560, Note_on_c, 1, 39, 0
3, 76560, Note_on_c, 1, 46, 0
3, 76560, Note_on_c, 1, 51, 0
3, 76800, Note_on_c, 1, 68, 48
3, 76800, Note_on_c, 1, 65, 48
3, 76800, Note_on_c, 1, 58, 48
3, 76920, Note_on_c, 1, 58, 0
3, 76920, Note_on_c, 1, 65, 0
3, 76920, Note_on_c, 1, 68, 0
3, 77040, Note_on_c, 1, 68, 48
3, 77040, Note_on_c, 1, 65, 48
3, 77040, Note_on_c, 1, 58, 48
3, 77160, Note_on_c, 1, 58, 0
3, 77160, Note_on_c, 1, 65, 0
3, 77160, Note_on_c, 1, 68, 0
3, 77220, Note_on_c, 1, 62, 48
3, 77280, Note_on_c, 1, 62, 0
3, 77280, Note_on_c, 1, 63, 48
3, 77376, Note_on_c, 1, 63, 0
3, 77580, Note_on_c, 1, 58, 48
3, 77598, Note_on_c, 1, 58, 0
3, 77640, Note_on_c, 1, 60, 48
3, 77658, Note_on_c, 1, 60, 0
3, 77700, Note_on_c, 1, 62, 48
3, 77718, Note_on_c, 1, 62, 0
3, 77760, Note_on_c, 1, 63, 48
3, 77880, Note_on_c, 1, 63, 0
3, 78060, Note_on_c, 1, 58, 80
3, 78078, Note_on_c, 1, 58, 0
3, 78120, Note_on_c, 1, 60, 80
3, 78138, Note_on_c, 1, 60, 0
3, 78180, Note_on_c, 1, 62, 80
3, 78198, Note_on_c, 1, 62, 0
3, 78240, Note_on_c, 1, 63, 80
3, 78360, Note_on_c, 1, 63, 0
3, 79680, Note_on_c, 1, 48, 40
3, 79740, Note_on_c, 1, 48, 0
3, 79740, Note_on_c, 1, 56, 40
3, 79800, Note_on_c, 1, 56, 0
3, 79800, Note_on_c, 1, 48, 40
3, 79860, Note_on_c, 1, 48, 0
3, 79860, Note_on_c, 1, 56, 40
3, 79920, Note_on_c, 1, 56, 0
3, 79920, Note_on_c, 1, 48, 40
3, 79980, Note_on_c, 1, 48, 0
3, 79980, Note_on_c, 1, 56, 40
3, 80040, Note_on_c, 1, 56, 0
3, 80040, Note_on_c, 1, 48, 40
3, 80100, Note_on_c, 1, 48, 0
3, 80100, Note_on_c, 1, 56, 40
3, 80160, Note_on_c, 1, 56, 0
3, 80160, Note_on_c, 1, 46, 40
3, 80220, Note_on_c, 1, 46, 0
3, 80220, Note_on_c, 1, 56, 40
3, 80280, Note_on_c, 1, 56, 0
3, 80280, Note_on_c, 1, 46, 40
3, 80340, Note_on_c, 1, 46, 0
3, 80340, Note_on_c, 1, 56, 40
3, 80400, Note_on_c, 1, 56, 0
3, 80400, Note_on_c, 1, 46, 40
3, 80460, Note_on_c, 1, 46, 0
3, 80460, Note_on_c, 1, 55, 40
3, 80520, Note_on_c, 1, 55, 0
3, 80520, Note_on_c, 1, 46, 40
3, 80580, Note_on_c, 1, 46, 0
3, 80580, Note_on_c, 1, 55, 40
3, 80640, Note_on_c, 1, 55, 0
3, 80640, Note_on_c, 1, 44, 40
3, 80700, Note_on_c, 1, 44, 0
3, 80700, Note_on_c, 1, 55, 40
3, 80760, Note_on_c, 1, 55, 0
3, 80760, Note_on_c, 1, 44, 40
3, 80820, Note_on_c, 1, 44, 0
3, 80820, Note_on_c, 1, 55, 40
3, 80880, Note_on_c, 1, 55, 0
3, 80880, Note_on_c, 1, 44, 40
3, 80940, Note_on_c, 1, 44, 0
3, 80940, Note_on_c, 1, 53, 40
3, 81000, Note_on_c, 1, 53, 0
3, 81000, Note_on_c, 1, 44, 40
3, 81060, Note_on_c, 1, 44, 0
3, 81060, Note_on_c, 1, 53, 40
3, 81120, Note_on_c, 1, 53, 0
3, 81120, Note_on_c, 1, 43, 40
3, 81180, Note_on_c, 1, 43, 0
3, 81180, Note_on_c, 1, 53, 40
3, 81240, Note_on_c, 1, 53, 0
3, 81240, Note_on_c, 1, 43, 40
3, 81300, Note_on_c, 1, 43, 0
3, 81300, Note_on_c, 1, 53, 40
3, 81360, Note_on_c, 1, 53, 0
3, 81360, Note_on_c, 1, 43, 40
3, 81420, Note_on_c, 1, 43, 0
3, 81420, Note_on_c, 1, 51, 40
3, 81480, Note_on_c, 1, 51, 0
3, 81480, Note_on_c, 1, 43, 40
3, 81540, Note_on_c, 1, 43, 0
3, 81540, Note_on_c, 1, 51, 40
3, 81600, Note_on_c, 1, 51, 0
3, 81600, Note_on_c, 1, 41, 48
3, 81660, Note_on_c, 1, 41, 0
3, 81660, Note_on_c, 1, 50, 48
3, 81720, Note_on_c, 1, 50, 0
3, 81720, Note_on_c, 1, 41, 48
3, 81780, Note_on_c, 1, 41, 0
3, 81780, Note_on_c, 1, 50, 48
3, 81840, Note_on_c, 1, 50, 0
3, 81840, Note_on_c, 1, 39, 48
3, 81900, Note_on_c, 1, 39, 0
3, 81900, Note_on_c, 1, 43, 48
3, 81918, Note_on_c, 1, 43, 0
3, 81960, Note_on_c, 1, 46, 48
3, 81978, Note_on_c, 1, 46, 0
3, 82020, Note_on_c, 1, 51, 48
3, 82038, Note_on_c, 1, 51, 0
3, 82080, Note_on_c, 1, 46, 48
3, 82272, Note_on_c, 1, 46, 0
3, 82380, Note_on_c, 1, 58, 48
3, 82398, Note_on_c, 1, 58, 0
3, 82440, Note_on_c, 1, 57, 48
3, 82458, Note_on_c, 1, 57, 0
3, 82500, Note_on_c, 1, 60, 48
3, 82518, Note_on_c, 1, 60, 0
3, 82560, Note_on_c, 1, 58, 80
3, 82608, Note_on_c, 1, 58, 0
3, 82620, Note_on_c, 1, 62, 80
3, 82638, Note_on_c, 1, 62, 0
3, 82680, Note_on_c, 1, 60, 80
3, 82698, Note_on_c, 1, 60, 0
3, 82740, Note_on_c, 1, 63, 80
3, 82758, Note_on_c, 1, 63, 0
3, 82800, Note_on_c, 1, 62, 80
3, 82848, Note_on_c, 1, 62, 0
3, 82860, Note_on_c, 1, 65, 80
3, 82878, Note_on_c, 1, 65, 0
3, 82920, Note_on_c, 1, 64, 80
3, 82938, Note_on_c, 1, 64, 0
3, 82980, Note_on_c, 1, 67, 80
3, 82998, Note_on_c, 1, 67, 0
3, 83040, Note_on_c, 1, 65, 80
3, 83280, Note_on_c, 1, 58, 80
3, 83520, Note_on_c, 1, 58, 0
3, 83520, Note_on_c, 1, 65, 0
3, 83520, Note_on_c, 1, 63, 80
3, 83520, Note_on_c, 1, 67, 80
3, 83760, Note_on_c, 1, 67, 0
3, 83760, Note_on_c, 1, 63, 0
3, 83760, Note_on_c, 1, 75, 64
3, 83940, Note_on_c, 1, 75, 0
3, 83940, Note_on_c, 1, 77, 72
3, 83970, Note_on_c, 1, 77, 0
3, 83970, Note_on_c, 1, 75, 72
3, 84000, Note_on_c, 1, 75, 0
3, 84000, Note_on_c, 1, 74, 64
3, 84120, Note_on_c, 1, 74, 0
3, 84240, Note_on_c, 1, 38, 64
3, 84420, Note_on_c, 1, 38, 0
3, 84420, Note_on_c, 1, 39, 72
3, 84450, Note_on_c, 1, 39, 0
3, 84450, Note_on_c, 1, 38, 72
3, 84480, Note_on_c, 1, 38, 0
3, 84480, Note_on_c, 1, 36, 64
3, 84600, Note_on_c, 1, 36, 0
3, 84720, Note_on_c, 1, 72, 64
3, 84900, Note_on_c, 1, 72, 0
3, 84900, Note_on_c, 1, 74, 72
3, 84930, Note_on_c, 1, 74, 0
3, 84930, Note_on_c, 1, 72, 72
3, 84960, Note_on_c, 1, 72, 0
3, 84960, Note_on_c, 1, 70, 64
3, 85080, Note_on_c, 1, 70, 0
3, 85200, Note_on_c, 1, 34, 64
3, 85380, Note_on_c, 1, 34, 0
3, 85380, Note_on_c, 1, 36, 64
3, 85410, Note_on_c, 1, 36, 0
3, 85410, Note_on_c, 1, 34, 64
3, 85440, Note_on_c, 1, 34, 0
3, 85440, Note_on_c, 1, 32, 64
3, 85560, Note_on_c, 1, 32, 0
3, 85680, Note_on_c, 1, 68, 64
3, 85860, Note_on_c, 1, 68, 0
3, 85860, Note_on_c, 1, 70, 72
3, 85890, Note_on_c, 1, 70, 0
3, 85890, Note_on_c, 1, 68, 72
3, 85920, Note_on_c, 1, 68, 0
3, 85920, Note_on_c, 1, 67, 64
3, 86040, Note_on_c, 1, 67, 0
3, 86160, Note_on_c, 1, 31, 64
3, 86340, Note_on_c, 1, 31, 0
3, 86340, Note_on_c, 1, 32, 72
3, 86370, Note_on_c, 1, 32, 0
3, 86370, Note_on_c, 1, 31, 72
3, 86400, Note_on_c, 1, 31, 0
3, 86400, Note_on_c, 1, 29, 64
3, 86520, Note_on_c, 1, 29, 0
3, 86520, Note_on_c, 1, 38, 64
3, 86640, Note_on_c, 1, 38, 0
3, 86640, Note_on_c, 1, 39, 64
3, 86760, Note_on_c, 1, 39, 0
3, 86760, Note_on_c, 1, 43, 64
3, 86880, Note_on_c, 1, 43, 0
3, 86880, Note_on_c, 1, 46, 64
3, 86940, Note_on_c, 1, 46, 0
3, 87000, Note_on_c, 1, 53, 64
3, 87060, Note_on_c, 1, 53, 0
3, 87060, Note_on_c, 1, 46, 64
3, 87120, Note_on_c, 1, 46, 0
3, 87120, Note_on_c, 1, 54, 64
3, 87180, Note_on_c, 1, 54, 0
3, 87180, Note_on_c, 1, 46, 64
3, 87240, Note_on_c, 1, 46, 0
3, 87240, Note_on_c, 1, 57, 64
3, 87300, Note_on_c, 1, 57, 0
3, 87300, Note_on_c, 1, 46, 64
3, 87360, Note_on_c, 1, 46, 0
3, 87360, Note_on_c, 1, 58, 64
3, 87408, Note_on_c, 1, 58, 0
3, 87420, Note_on_c, 1, 46, 64
3, 87468, Note_on_c, 1, 46, 0
3, 87480, Note_on_c, 1, 53, 41
3, 87528, Note_on_c, 1, 53, 0
3, 87540, Note_on_c, 1, 46, 43
3, 87588, Note_on_c, 1, 46, 0
3, 87600, Note_on_c, 1, 54, 45
3, 87648, Note_on_c, 1, 54, 0
3, 87660, Note_on_c, 1, 46, 47
3, 87708, Note_on_c, 1, 46, 0
3, 87720, Note_on_c, 1, 57, 48
3, 87768, Note_on_c, 1, 57, 0
3, 87780, Note_on_c, 1, 46, 50
3, 87828, Note_on_c, 1, 46, 0
3, 87840, Note_on_c, 1, 58, 52
3, 87888, Note_on_c, 1, 58, 0
3, 87900, Note_on_c, 1, 46, 54
3, 87948, Note_on_c, 1, 46, 0
3, 87960, Note_on_c, 1, 58, 56
3, 88008, Note_on_c, 1, 58, 0
3, 88020, Note_on_c, 1, 46, 57
3, 88068, Note_on_c, 1, 46, 0
3, 88080, Note_on_c, 1, 58, 59
3, 88128, Note_on_c, 1, 58, 0
3, 88140, Note_on_c, 1, 46, 61
3, 88188, Note_on_c, 1, 46, 0
3, 88200, Note_on_c, 1, 58, 63
3, 88248, Note_on_c, 1, 58, 0
3, 88260, Note_on_c, 1, 46, 65
3, 88308, Note_on_c, 1, 46, 0
3, 88320, Note_on_c, 1, 58, 67
3, 88368, Note_on_c, 1, 58, 0
3, 88380, Note_on_c, 1, 46, 68
3, 88428, Note_on_c, 1, 46, 0
3, 88440, Note_on_c, 1, 58, 70
3, 88488, Note_on_c, 1, 58, 0
3, 88500, Note_on_c, 1, 46, 72
3, 88548, Note_on_c, 1, 46, 0
3, 88560, Note_on_c, 1, 58, 74
3, 88608, Note_on_c, 1, 58, 0
3, 88620, Note_on_c, 1, 46, 76
3, 88668, Note_on_c, 1, 46, 0
3, 88680, Note_on_c, 1, 58, 78
3, 88728, Note_on_c, 1, 58, 0
3, 88740, Note_on_c, 1, 46, 79
3, 88788, Note_on_c, 1, 46, 0
3, 88800, Note_on_c, 1, 58, 80
3, 88800, Note_on_c, 1, 55, 80
3, 88800, Note_on_c, 1, 51, 80
3, 88992, Note_on_c, 1, 51, 0
3, 88992, Note_on_c, 1, 55, 0
3, 88992, Note_on_c, 1, 58, 0
3, 89040, Note_on_c, 1, 61, 80
3, 89040, Note_on_c, 1, 58, 80
3, 89040, Note_on_c, 1, 55, 80
3, 89040, Note_on_c, 1, 51, 80
3, 89184, Note_on_c, 1, 51, 0
3, 89184, Note_on_c, 1, 61, 0
3, 89184, Note_on_c, 1, 58, 0
3, 89184, Note_on_c, 1, 55, 0
3, 89220, Note_on_c, 1, 61, 80
3, 89220, Note_on_c, 1, 58, 80
3, 89220, Note_on_c, 1, 55, 80
3, 89220, Note_on_c, 1, 51, 80
3, 89268, Note_on_c, 1, 51, 0
3, 89268, Note_on_c, 1, 61, 0
3, 89268, Note_on_c, 1, 58, 0
3, 89268, Note_on_c, 1, 55, 0
3, 89280, Note_on_c, 1, 60, 80
3, 89280, Note_on_c, 1, 56, 80
3, 89280, Note_on_c, 1, 51, 80
3, 89664, Note_on_c, 1, 51, 0
3, 89664, Note_on_c, 1, 56, 0
3, 89664, Note_on_c, 1, 60, 0
3, 89760, Note_on_c, 1, 62, 56
3, 89760, Note_on_c, 1, 56, 56
3, 89760, Note_on_c, 1, 53, 56
3, 89760, Note_on_c, 1, 51, 56
3, 90144, Note_on_c, 1, 51, 0
3, 90144, Note_on_c, 1, 62, 0
3, 90144, Note_on_c, 1, 56, 0
3, 90144, Note_on_c, 1, 53, 0
3, 90240, Note_on_c, 1, 63, 56
3, 90240, Note_on_c, 1, 58, 56
3, 90240, Note_on_c, 1, 55, 56
3, 90240, Note_on_c, 1, 51, 56
3, 90432, Note_on_c, 1, 51, 0
3, 90432, Note_on_c, 1, 63, 0
3, 90432, Note_on_c, 1, 58, 0
3, 90432, Note_on_c, 1, 55, 0
3, 90480, Note_on_c, 1, 65, 56
3, 90480, Note_on_c, 1, 58, 56
3, 90480, Note_on_c, 1, 56, 56
3, 90600, Note_on_c, 1, 56, 0
3, 90600, Note_on_c, 1, 58, 0
3, 90600, Note_on_c, 1, 65, 0
3, 90720, Note_on_c, 1, 63, 40
3, 90720, Note_on_c, 1, 58, 40
3, 90720, Note_on_c, 1, 55, 40
3, 90840, Note_on_c, 1, 55, 0
3, 90840, Note_on_c, 1, 58, 0
3, 90840, Note_on_c, 1, 63, 0
3, 90960, Note_on_c, 1, 65, 40
3, 90960, Note_on_c, 1, 58, 40
3, 90960, Note_on_c, 1, 56, 40
3, 91080, Note_on_c, 1, 56, 0
3, 91080, Note_on_c, 1, 58, 0
3, 91080, Note_on_c, 1, 65, 0
3, 91200, Note_on_c, 1, 63, 40
3, 91200, Note_on_c, 1, 58, 40
3, 91200, Note_on_c, 1, 55, 40
3, 91584, Note_on_c, 1, 55, 0
3, 91584, Note_on_c, 1, 58, 0
3, 91584, Note_on_c, 1, 63, 0
3, 91680, Note_on_c, 1, 63, 40
3, 91680, Note_on_c, 1, 60, 40
3, 91680, Note_on_c, 1, 56, 40
3, 91872, Note_on_c, 1, 56, 0
3, 91872, Note_on_c, 1, 60, 0
3, 91872, Note_on_c, 1, 63, 0
3, 92280, Note_on_c, 1, 71, 48
3, 92298, Note_on_c, 1, 71, 0
3, 92340, Note_on_c, 1, 74, 48
3, 92358, Note_on_c, 1, 74, 0
3, 92400, Note_on_c, 1, 72, 48
3, 92460, Note_on_c, 1, 72, 0
3, 92460, Note_on_c, 1, 75, 48
3, 92520, Note_on_c, 1, 75, 0
3, 92520, Note_on_c, 1, 72, 48
3, 92560, Note_on_c, 1, 72, 0
3, 92560, Note_on_c, 1, 68, 48
3, 92600, Note_on_c, 1, 68, 0
3, 92600, Note_on_c, 1, 65, 48
3, 92640, Note_on_c, 1, 65, 0
3, 92640, Note_on_c, 1, 58, 48
3, 92640, Note_on_c, 1, 67, 48
3, 92880, Note_on_c, 1, 67, 0
3, 92880, Note_on_c, 1, 68, 48
3, 93120, Note_on_c, 1, 68, 0
3, 93120, Note_on_c, 1, 58, 0
3, 93120, Note_on_c, 1, 63, 48
3, 93120, Note_on_c, 1, 67, 48
3, 93216, Note_on_c, 1, 67, 0
3, 93216, Note_on_c, 1, 63, 0
3, 93360, Note_on_c, 1, 63, 56
3, 93360, Note_on_c, 1, 67, 56
3, 93396, Note_on_c, 1, 67, 0
3, 93396, Note_on_c, 1, 63, 0
3, 93480, Note_on_c, 1, 58, 56
3, 93480, Note_on_c, 1, 65, 56
3, 93516, Note_on_c, 1, 65, 0
3, 93516, Note_on_c, 1, 58, 0
3, 93600, Note_on_c, 1, 55, 56
3, 93600, Note_on_c, 1, 63, 56
3, 93696, Note_on_c, 1, 63, 0
3, 93696, Note_on_c, 1, 55, 0
3, 93840, Note_on_c, 1, 63, 56
3, 93840, Note_on_c, 1, 67, 56
3, 93876, Note_on_c, 1, 67, 0
3, 93876, Note_on_c, 1, 63, 0
3, 93960, Note_on_c, 1, 58, 56
3, 93960, Note_on_c, 1, 65, 56
3, 93996, Note_on_c, 1, 65, 0
3, 93996, Note_on_c, 1, 58, 0
3, 94080, Note_on_c, 1, 55, 56
3, 94080, Note_on_c, 1, 63, 56
3, 94176, Note_on_c, 1, 63, 0
3, 94176, Note_on_c, 1, 55, 0
3, 94320, Note_on_c, 1, 63, 56
3, 94320, Note_on_c, 1, 55, 56
3, 94416, Note_on_c, 1, 55, 0
3, 94416, Note_on_c, 1, 63, 0
3, 94440, Note_on_c, 1, 63, 56
3, 94440, Note_on_c, 1, 55, 56
3, 94536, Note_on_c, 1, 55, 0
3, 94536, Note_on_c, 1, 63, 0
3, 94560, Note_on_c, 1, 56, 56
3, 94560, Note_on_c, 1, 63, 56
3, 94656, Note_on_c, 1, 63, 0
3, 94680, Note_on_c, 1, 60, 56
3, 94776, Note_on_c, 1, 60, 0
3, 94800, Note_on_c, 1, 65, 56
3, 94848, Note_on_c, 1, 56, 0
3, 94920, Note_on_c, 1, 57, 56
3, 95016, Note_on_c, 1, 57, 0
3, 95040, Note_on_c, 1, 58, 56
3, 95136, Note_on_c, 1, 58, 0
3, 95160, Note_on_c, 1, 60, 59
3, 95256, Note_on_c, 1, 60, 0
3, 95280, Note_on_c, 1, 62, 62
3, 95328, Note_on_c, 1, 65, 0
3, 95400, Note_on_c, 1, 70, 65
3, 95472, Note_on_c, 1, 62, 0
3, 95496, Note_on_c, 1, 70, 0
3, 95520, Note_on_c, 1, 66, 56
3, 95520, Note_on_c, 1, 63, 56
3, 95568, Note_on_c, 1, 66, 0
3, 95580, Note_on_c, 1, 70, 56
3, 95616, Note_on_c, 1, 63, 0
3, 95628, Note_on_c, 1, 70, 0
3, 95640, Note_on_c, 1, 66, 56
3, 95640, Note_on_c, 1, 63, 56
3, 95658, Note_on_c, 1, 66, 0
3, 95676, Note_on_c, 1, 63, 0
3, 95700, Note_on_c, 1, 70, 56
3, 95718, Note_on_c, 1, 70, 0
3, 95760, Note_on_c, 1, 65, 56
3, 95760, Note_on_c, 1, 62, 56
3, 95808, Note_on_c, 1, 65, 0
3, 95820, Note_on_c, 1, 70, 56
3, 95856, Note_on_c, 1, 62, 0
3, 95868, Note_on_c, 1, 70, 0
3, 95880, Note_on_c, 1, 65, 56
3, 95880, Note_on_c, 1, 62, 56
3, 95898, Note_on_c, 1, 65, 0
3, 95916, Note_on_c, 1, 62, 0
3, 95940, Note_on_c, 1, 70, 56
3, 95958, Note_on_c, 1, 70, 0
3, 96000, Note_on_c, 1, 66, 40
3, 96000, Note_on_c, 1, 63, 40
3, 96048, Note_on_c, 1, 66, 0
3, 96060, Note_on_c, 1, 70, 40
3, 96096, Note_on_c, 1, 63, 0
3, 96108, Note_on_c, 1, 70, 0
3, 96120, Note_on_c, 1, 66, 40
3, 96120, Note_on_c, 1, 63, 40
3, 96150, Note_on_c, 1, 66, 0
3, 96180, Note_on_c, 1, 63, 0
3, 96180, Note_on_c, 1, 70, 40
3, 96210, Note_on_c, 1, 70, 0
3, 96240, Note_on_c, 1, 65, 40
3, 96240, Note_on_c, 1, 62, 40
3, 96288, Note_on_c, 1, 65, 0
3, 96300, Note_on_c, 1, 70, 40
3, 96336, Note_on_c, 1, 62, 0
3, 96348, Note_on_c, 1, 70, 0
3, 96360, Note_on_c, 1, 65, 40
3, 96360, Note_on_c, 1, 62, 40
3, 96390, Note_on_c, 1, 65, 0
3, 96420, Note_on_c, 1, 62, 0
3, 96420, Note_on_c, 1, 70, 40
3, 96450, Note_on_c, 1, 70, 0
3, 96480, Note_on_c, 1, 66, 64
3, 96480, Note_on_c, 1, 54, 64
3, 96576, Note_on_c, 1, 54, 0
3, 96576, Note_on_c, 1, 66, 0
3, 96600, Note_on_c, 1, 51, 64
3, 96600, Note_on_c, 1, 63, 64
3, 96696, Note_on_c, 1, 63, 0
3, 96696, Note_on_c, 1, 51, 0
3, 96720, Note_on_c, 1, 47, 64
3, 96720, Note_on_c, 1, 59, 64
3, 96816, Note_on_c, 1, 59, 0
3, 96816, Note_on_c, 1, 47, 0
3, 96840, Note_on_c, 1, 44, 64
3, 96840, Note_on_c, 1, 56, 64
3, 96936, Note_on_c, 1, 56, 0
3, 96936, Note_on_c, 1, 44, 0
3, 96960, Note_on_c, 1, 41, 64
3, 96960, Note_on_c, 1, 53, 64
3, 97200, Note_on_c, 1, 53, 0
3, 97200, Note_on_c, 1, 41, 0
3, 97200, Note_on_c, 1, 39, 64
3, 97200, Note_on_c, 1, 51, 64
3, 97440, Note_on_c, 1, 51, 0
3, 97440, Note_on_c, 1, 39, 0
3, 97440, Note_on_c, 1, 38, 64
3, 97440, Note_on_c, 1, 50, 64
3, 97680, Note_on_c, 1, 50, 0
3, 97680, Note_on_c, 1, 38, 0
3, 97680, Note_on_c, 1, 35, 64
3, 97680, Note_on_c, 1, 47, 64
3, 97920, Note_on_c, 1, 47, 0
3, 97920, Note_on_c, 1, 35, 0
3, 97920, Note_on_c, 1, 34, 64
3, 97920, Note_on_c, 1, 46, 64
3, 98688, Note_on_c, 1, 46, 0
3, 98688, Note_on_c, 1, 34, 0
3, 98880, Note_on_c, 1, 70, 80
3, 98880, Note_on_c, 1, 67, 80
3, 98880, Note_on_c, 1, 63, 80
3, 99072, Note_on_c, 1, 63, 0
3, 99072, Note_on_c, 1, 67, 0
3, 99072, Note_on_c, 1, 70, 0
3, 99120, Note_on_c, 1, 70, 80
3, 99120, Note_on_c, 1, 65, 80
3, 99120, Note_on_c, 1, 62, 80
3, 99288, Note_on_c, 1, 62, 0
3, 99288, Note_on_c, 1, 65, 0
3, 99288, Note_on_c, 1, 70, 0
3, 99315, Note_on_c, 1, 60, 80
3, 99330, Note_on_c, 1, 63, 80
3, 99345, Note_on_c, 1, 68, 80
3, 99744, Note_on_c, 1, 68, 0
3, 99744, Note_on_c, 1, 63, 0
3, 99744, Note_on_c, 1, 60, 0
3, 99840, Note_on_c, 1, 75, 80
3, 99840, Note_on_c, 1, 72, 80
3, 99936, Note_on_c, 1, 72, 0
3, 99936, Note_on_c, 1, 75, 0
3, 100020, Note_on_c, 1, 75, 80
3, 100020, Note_on_c, 1, 70, 80
3, 100068, Note_on_c, 1, 70, 0
3, 100080, Note_on_c, 1, 68, 80
3, 100176, Note_on_c, 1, 68, 0
3, 100176, Note_on_c, 1, 75, 0
3, 100260, Note_on_c, 1, 66, 80
3, 100260, Note_on_c, 1, 70, 80
3, 100308, Note_on_c, 1, 70, 0
3, 100308, Note_on_c, 1, 66, 0
3, 100320, Note_on_c, 1, 65, 80
3, 100320, Note_on_c, 1, 72, 80
3, 100512, Note_on_c, 1, 72, 0
3, 100512, Note_on_c, 1, 65, 0
3, 100860, Note_on_c, 1, 67, 48
3, 100860, Note_on_c, 1, 70, 48
3, 100884, Note_on_c, 1, 70, 0
3, 100884, Note_on_c, 1, 67, 0
3, 100920, Note_on_c, 1, 65, 48
3, 100920, Note_on_c, 1, 68, 48
3, 100944, Note_on_c, 1, 68, 0
3, 100944, Note_on_c, 1, 65, 0
3, 100980, Note_on_c, 1, 63, 48
3, 100980, Note_on_c, 1, 67, 48
3, 101004, Note_on_c, 1, 67, 0
3, 101004, Note_on_c, 1, 63, 0
3, 101040, Note_on_c, 1, 62, 48
3, 101040, Note_on_c, 1, 65, 48
3, 101232, Note_on_c, 1, 65, 0
3, 101232, Note_on_c, 1, 62, 0
3, 101340, Note_on_c, 1, 67, 48
3, 101340, Note_on_c, 1, 70, 48
3, 101352, Note_on_c, 1, 70, 0
3, 101352, Note_on_c, 1, 67, 0
3, 101400, Note_on_c, 1, 65, 48
3, 101400, Note_on_c, 1, 68, 48
3, 101412, Note_on_c, 1, 68, 0
3, 101412, Note_on_c, 1, 65, 0
3, 101460, Note_on_c, 1, 63, 48
3, 101460, Note_on_c, 1, 67, 48
3, 101472, Note_on_c, 1, 67, 0
3, 101472, Note_on_c, 1, 63, 0
3, 101520, Note_on_c, 1, 65, 48
3, 101520, Note_on_c, 1, 62, 48
3, 101568, Note_on_c, 1, 62, 0
3, 101568, Note_on_c, 1, 65, 0
3, 101580, Note_on_c, 1, 70, 48
3, 101628, Note_on_c, 1, 70, 0
3, 101640, Note_on_c, 1, 72, 56
3, 101688, Note_on_c, 1, 72, 0
3, 101700, Note_on_c, 1, 74, 64
3, 101748, Note_on_c, 1, 74, 0
3, 101760, Note_on_c, 1, 75, 72
3, 101808, Note_on_c, 1, 75, 0
3, 101820, Note_on_c, 1, 79, 80
3, 101868, Note_on_c, 1, 79, 0
3, 101880, Note_on_c, 1, 77, 80
3, 101928, Note_on_c, 1, 77, 0
3, 101940, Note_on_c, 1, 75, 80
3, 101988, Note_on_c, 1, 75, 0
3, 102000, Note_on_c, 1, 74, 80
3, 102048, Note_on_c, 1, 74, 0
3, 102060, Note_on_c, 1, 72, 80
3, 102060, Note_on_c, 1, 75, 80
3, 102108, Note_on_c, 1, 75, 0
3, 102108, Note_on_c, 1, 72, 0
3, 102120, Note_on_c, 1, 70, 80
3, 102120, Note_on_c, 1, 74, 80
3, 102168, Note_on_c, 1, 74, 0
3, 102168, Note_on_c, 1, 70, 0
3, 102180, Note_on_c, 1, 68, 80
3, 102180, Note_on_c, 1, 72, 80
3, 102228, Note_on_c, 1, 72, 0
3, 102228, Note_on_c, 1, 68, 0
3, 102240, Note_on_c, 1, 67, 80
3, 102240, Note_on_c, 1, 70, 80
3, 102480, Note_on_c, 1, 70, 0
3, 102480, Note_on_c, 1, 67, 0
3, 102480, Note_on_c, 1, 68, 80
3, 102480, Note_on_c, 1, 72, 80
3, 102576, Note_on_c, 1, 72, 0
3, 102576, Note_on_c, 1, 68, 0
3, 102720, Note_on_c, 1, 65, 64
3, 102720, Note_on_c, 1, 68, 64
3, 102960, Note_on_c, 1, 68, 0
3, 102960, Note_on_c, 1, 65, 0
3, 102960, Note_on_c, 1, 67, 64
3, 103056, Note_on_c, 1, 67, 0
3, 104160, Note_on_c, 1, 35, 40
3, 104160, Note_on_c, 1, 47, 40
3, 104640, Note_on_c, 1, 47, 0
3, 104640, Note_on_c, 1, 35, 0
3, 104640, Note_on_c, 1, 33, 40
3, 104640, Note_on_c, 1, 45, 40
3, 105120, Note_on_c, 1, 45, 0
3, 105120, Note_on_c, 1, 33, 0
3, 105120, Note_on_c, 1, 32, 40
3, 105120, Note_on_c, 1, 44, 40
3, 105360, Note_on_c, 1, 44, 0
3, 105360, Note_on_c, 1, 32, 0
3, 105360, Note_on_c, 1, 33, 40
3, 105360, Note_on_c, 1, 45, 40
3, 105600, Note_on_c, 1, 45, 0
3, 105600, Note_on_c, 1, 33, 0
3, 105600, Note_on_c, 1, 34, 80
3, 105624, Note_on_c, 1, 34, 0
3, 105630, Note_on_c, 1, 46, 80
3, 105654, Note_on_c, 1, 46, 0
3, 105660, Note_on_c, 1, 34, 80
3, 105684, Note_on_c, 1, 34, 0
3, 105690, Note_on_c, 1, 46, 80
3, 105714, Note_on_c, 1, 46, 0
3, 105720, Note_on_c, 1, 34, 80
3, 105744, Note_on_c, 1, 34, 0
3, 105750, Note_on_c, 1, 46, 80
3, 105774, Note_on_c, 1, 46, 0
3, 105780, Note_on_c, 1, 34, 80
3, 105804, Note_on_c, 1, 34, 0
3, 105810, Note_on_c, 1, 46, 80
3, 105834, Note_on_c, 1, 46, 0
3, 105840, Note_on_c, 1, 34, 80
3, 105864, Note_on_c, 1, 34, 0
3, 105870, Note_on_c, 1, 46, 80
3, 105894, Note_on_c, 1, 46, 0
3, 105900, Note_on_c, 1, 34, 80
3, 105924, Note_on_c, 1, 34, 0
3, 105930, Note_on_c, 1, 46, 80
3, 105954, Note_on_c, 1, 46, 0
3, 105960, Note_on_c, 1, 34, 80
3, 105984, Note_on_c, 1, 34, 0
3, 105990, Note_on_c, 1, 46, 80
3, 106014, Note_on_c, 1, 46, 0
3, 106020, Note_on_c, 1, 34, 80
3, 106044, Note_on_c, 1, 34, 0
3, 106050, Note_on_c, 1, 46, 80
3, 106074, Note_on_c, 1, 46, 0
3, 106080, Note_on_c, 1, 34, 80
3, 106176, Note_on_c, 1, 34, 0
3, 106260, Note_on_c, 1, 63, 80
3, 106260, Note_on_c, 1, 67, 80
3, 106320, Note_on_c, 1, 67, 0
3, 106320, Note_on_c, 1, 63, 0
3, 106320, Note_on_c, 1, 67, 80
3, 106320, Note_on_c, 1, 70, 80
3, 106338, Note_on_c, 1, 70, 0
3, 106338, Note_on_c, 1, 67, 0
3, 106380, Note_on_c, 1, 63, 80
3, 106380, Note_on_c, 1, 67, 80
3, 106398, Note_on_c, 1, 67, 0
3, 106398, Note_on_c, 1, 63, 0
3, 106440, Note_on_c, 1, 67, 80
3, 106440, Note_on_c, 1, 70, 80
3, 106458, Note_on_c, 1, 70, 0
3, 106458, Note_on_c, 1, 67, 0
3, 106500, Note_on_c, 1, 63, 80
3, 106500, Note_on_c, 1, 67, 80
3, 106518, Note_on_c, 1, 67, 0
3, 106518, Note_on_c, 1, 63, 0
3, 106560, Note_on_c, 1, 67, 80
3, 106560, Note_on_c, 1, 70, 80
3, 106620, Note_on_c, 1, 70, 0
3, 106620, Note_on_c, 1, 67, 0
3, 106800, Note_on_c, 1, 46, 80
3, 106800, Note_on_c, 1, 50, 80
3, 106800, Note_on_c, 1, 53, 80
3, 106800, Note_on_c, 1, 58, 80
3, 106896, Note_on_c, 1, 58, 0
3, 106896, Note_on_c, 1, 46, 0
3, 106896, Note_on_c, 1, 50, 0
3, 106896, Note_on_c, 1, 53, 0
3, 107040, Note_on_c, 1, 51, 40
3, 107040, Note_on_c, 1, 55, 40
3, 107136, Note_on_c, 1, 55, 0
3, 107136, Note_on_c, 1, 51, 0
3, 107280, Note_on_c, 1, 46, 40
3, 107280, Note_on_c, 1, 53, 40
3, 107376, Note_on_c, 1, 53, 0
3, 107376, Note_on_c, 1, 46, 0
3, 107520, Note_on_c, 1, 55, 56
3, 107520, Note_on_c, 1, 51, 56
3, 107616, Note_on_c, 1, 51, 0
3, 107616, Note_on_c, 1, 55, 0
3, 107760, Note_on_c, 1, 46, 60
3, 107760, Note_on_c, 1, 53, 60
3, 107856, Note_on_c, 1, 53, 0
3, 107856, Note_on_c, 1, 46, 0
3, 108000, Note_on_c, 1, 39, 64
3, 108000, Note_on_c, 1, 51, 64
3, 108096, Note_on_c, 1, 51, 0
3, 108096, Note_on_c, 1, 39, 0
3, 108120, Note_on_c, 1, 43, 66
3, 108120, Note_on_c, 1, 55, 66
3, 108216, Note_on_c, 1, 55, 0
3, 108216, Note_on_c, 1, 43, 0
3, 108240, Note_on_c, 1, 46, 68
3, 108240, Note_on_c, 1, 58, 68
3, 108336, Note_on_c, 1, 58, 0
3, 108336, Note_on_c, 1, 46, 0
3, 108360, Note_on_c, 1, 51, 70
3, 108360, Note_on_c, 1, 63, 70
3, 108456, Note_on_c, 1, 63, 0
3, 108456, Note_on_c, 1, 51, 0
3, 108480, Note_on_c, 1, 55, 72
3, 108480, Note_on_c, 1, 67, 72
3, 108576, Note_on_c, 1, 67, 0
3, 108576, Note_on_c, 1, 55, 0
3, 108600, Note_on_c, 1, 58, 74
3, 108600, Note_on_c, 1, 70, 74
3, 108696, Note_on_c, 1, 70, 0
3, 108696, Note_on_c, 1, 58, 0
3, 108720, Note_on_c, 1, 63, 76
3, 108720, Note_on_c, 1, 75, 76
3, 108780, Note_on_c, 1, 75, 0
3, 108780, Note_on_c, 1, 63, 0
3, 108840, Note_on_c, 1, 58, 78
3, 108840, Note_on_c, 1, 68, 78
3, 108936, Note_on_c, 1, 68, 0
3, 108936, Note_on_c, 1, 58, 0
3, 108960, Note_on_c, 1, 63, 80
3, 108960, Note_on_c, 1, 67, 80
3, 109020, Note_on_c, 1, 67, 0
3, 109020, Note_on_c, 1, 63, 0
3, 109080, Note_on_c, 1, 58, 82
3, 109080, Note_on_c, 1, 68, 82
3, 109176, Note_on_c, 1, 68, 0
3, 109176, Note_on_c, 1, 58, 0
3, 109200, Note_on_c, 1, 63, 84
3, 109200, Note_on_c, 1, 67, 84
3, 109260, Note_on_c, 1, 67, 0
3, 109260, Note_on_c, 1, 63, 0
3, 109320, Note_on_c, 1, 58, 86
3, 109320, Note_on_c, 1, 68, 86
3, 109416, Note_on_c, 1, 68, 0
3, 109416, Note_on_c, 1, 58, 0
3, 109440, Note_on_c, 1, 63, 72
3, 109464, Note_on_c, 1, 63, 0
3, 109470, Note_on_c, 1, 67, 72
3, 109494, Note_on_c, 1, 67, 0
3, 109500, Note_on_c, 1, 63, 72
3, 109524, Note_on_c, 1, 63, 0
3, 109530, Note_on_c, 1, 67, 72
3, 109554, Note_on_c, 1, 67, 0
3, 109560, Note_on_c, 1, 63, 72
3, 109584, Note_on_c, 1, 63, 0
3, 109590, Note_on_c, 1, 67, 72
3, 109614, Note_on_c, 1, 67, 0
3, 109620, Note_on_c, 1, 63, 72
3, 109644, Note_on_c, 1, 63, 0
3, 109650, Note_on_c, 1, 67, 72
3, 109674, Note_on_c, 1, 67, 0
3, 109680, Note_on_c, 1, 63, 72
3, 109704, Note_on_c, 1, 63, 0
3, 109710, Note_on_c, 1, 67, 72
3, 109734, Note_on_c, 1, 67, 0
3, 109740, Note_on_c, 1, 63, 72
3, 109764, Note_on_c, 1, 63, 0
3, 109770, Note_on_c, 1, 67, 72
3, 109794, Note_on_c, 1, 67, 0
3, 109800, Note_on_c, 1, 63, 72
3, 109824, Note_on_c, 1, 63, 0
3, 109830, Note_on_c, 1, 67, 72
3, 109854, Note_on_c, 1, 67, 0
3, 109860, Note_on_c, 1, 63, 72
3, 109884, Note_on_c, 1, 63, 0
3, 109890, Note_on_c, 1, 67, 72
3, 109914, Note_on_c, 1, 67, 0
3, 109920, Note_on_c, 1, 63, 72
3, 109944, Note_on_c, 1, 63, 0
3, 109950, Note_on_c, 1, 67, 72
3, 109974, Note_on_c, 1, 67, 0
3, 109980, Note_on_c, 1, 63, 72
3, 110004, Note_on_c, 1, 63, 0
3, 110010, Note_on_c, 1, 67, 72
3, 110034, Note_on_c, 1, 67, 0
3, 110040, Note_on_c, 1, 63, 72
3, 110064, Note_on_c, 1, 63, 0
3, 110070, Note_on_c, 1, 67, 72
3, 110094, Note_on_c, 1, 67, 0
3, 110100, Note_on_c, 1, 63, 72
3, 110124, Note_on_c, 1, 63, 0
3, 110130, Note_on_c, 1, 67, 72
3, 110154, Note_on_c, 1, 67, 0
3, 110160, Note_on_c, 1, 63, 72
3, 110184, Note_on_c, 1, 63, 0
3, 110190, Note_on_c, 1, 67, 72
3, 110214, Note_on_c, 1, 67, 0
3, 110220, Note_on_c, 1, 63, 72
3, 110244, Note_on_c, 1, 63, 0
3, 110250, Note_on_c, 1, 67, 72
3, 110274, Note_on_c, 1, 67, 0
3, 110280, Note_on_c, 1, 63, 72
3, 110304, Note_on_c, 1, 63, 0
3, 110310, Note_on_c, 1, 67, 72
3, 110334, Note_on_c, 1, 67, 0
3, 110340, Note_on_c, 1, 63, 72
3, 110364, Note_on_c, 1, 63, 0
3, 110370, Note_on_c, 1, 67, 72
3, 110394, Note_on_c, 1, 67, 0
3, 110400, Note_on_c, 1, 63, 88
3, 110520, Note_on_c, 1, 63, 0
3, 110640, Note_on_c, 1, 63, 88
3, 110640, Note_on_c, 1, 58, 88
3, 110640, Note_on_c, 1, 55, 88
3, 110640, Note_on_c, 1, 51, 88
3, 110760, Note_on_c, 1, 51, 0
3, 110760, Note_on_c, 1, 63, 0
3, 110760, Note_on_c, 1, 58, 0
3, 110760, Note_on_c, 1, 55, 0
3, 110880, Note_on_c, 1, 39, 88
3, 110880, Note_on_c, 1, 43, 88
3, 110880, Note_on_c, 1, 46, 88
3, 110880, Note_on_c, 1, 51, 88
3, 111072, Note_on_c, 1, 51, 0
3, 111072, Note_on_c, 1, 39, 0
3, 111072, Note_on_c, 1, 43, 0
3, 111072, Note_on_c, 1, 46, 0
3, 111072, End_track
4, 0, Start_track
4, 0, MIDI_port, 0
4, 0, Title_t, "MIDI by Marty Weimer 1/31/96"
4, 0, End_track
5, 0, Start_track
5, 0, MIDI_port, 0
5, 0, Title_t, "weimermt@libby.org  Eureka, MT USA"
5, 0, End_track
0, 0, End_of_file
