0, 0, Header, 1, 5, 240
1, 0, Start_track
1, 0, Time_signature, 2, 2, 24, 8
1, 0, Key_signature, 0, "major"
1, 0, Tempo, 571429
1, 25440, Tempo, 1250000
1, 25920, Tempo, 571429
1, 56160, Tempo, 750000
1, 56640, Tempo, 571429
1, 86400, Tempo, 1250000
1, 86880, Tempo, 571429
1, 86880, End_track
2, 0, Start_track
2, 0, MIDI_port, 0
2, 0, Title_t, "Piano Sonata No.33 in D (1777?)"
2, 0, Program_c, 0, 0
2, 0, Control_c, 0, 7, 127
2, 0, Control_c, 0, 10, 72
2, 360, Note_on_c, 0, 57, 85
2, 388, Note_on_c, 0, 57, 0
2, 390, Note_on_c, 0, 62, 85
2, 418, Note_on_c, 0, 62, 0
2, 420, Note_on_c, 0, 66, 85
2, 448, Note_on_c, 0, 66, 0
2, 450, Note_on_c, 0, 69, 85
2, 478, Note_on_c, 0, 69, 0
2, 480, Note_on_c, 0, 66, 85
2, 598, Note_on_c, 0, 66, 0
2, 600, Note_on_c, 0, 62, 85
2, 718, Note_on_c, 0, 62, 0
2, 720, Note_on_c, 0, 74, 85
2, 768, Note_on_c, 0, 74, 0
2, 840, Note_on_c, 0, 69, 85
2, 912, Note_on_c, 0, 69, 0
2, 960, Note_on_c, 0, 71, 80
2, 984, Note_on_c, 0, 71, 0
2, 990, Note_on_c, 0, 73, 80
2, 1014, Note_on_c, 0, 73, 0
2, 1020, Note_on_c, 0, 71, 80
2, 1036, Note_on_c, 0, 71, 0
2, 1040, Note_on_c, 0, 73, 80
2, 1056, Note_on_c, 0, 73, 0
2, 1060, Note_on_c, 0, 71, 80
2, 1076, Note_on_c, 0, 71, 0
2, 1080, Note_on_c, 0, 69, 80
2, 1128, Note_on_c, 0, 69, 0
2, 1320, Note_on_c, 0, 57, 80
2, 1344, Note_on_c, 0, 57, 0
2, 1350, Note_on_c, 0, 62, 80
2, 1374, Note_on_c, 0, 62, 0
2, 1380, Note_on_c, 0, 66, 80
2, 1404, Note_on_c, 0, 66, 0
2, 1410, Note_on_c, 0, 69, 80
2, 1434, Note_on_c, 0, 69, 0
2, 1440, Note_on_c, 0, 66, 85
2, 1558, Note_on_c, 0, 66, 0
2, 1560, Note_on_c, 0, 62, 85
2, 1678, Note_on_c, 0, 62, 0
2, 1680, Note_on_c, 0, 78, 85
2, 1680, Note_on_c, 0, 81, 85
2, 1728, Note_on_c, 0, 81, 0
2, 1728, Note_on_c, 0, 78, 0
2, 1800, Note_on_c, 0, 74, 85
2, 1800, Note_on_c, 0, 78, 85
2, 1872, Note_on_c, 0, 78, 0
2, 1872, Note_on_c, 0, 74, 0
2, 1920, Note_on_c, 0, 76, 80
2, 1920, Note_on_c, 0, 79, 80
2, 1944, Note_on_c, 0, 79, 0
2, 1950, Note_on_c, 0, 81, 80
2, 1974, Note_on_c, 0, 81, 0
2, 1980, Note_on_c, 0, 79, 80
2, 1996, Note_on_c, 0, 79, 0
2, 2000, Note_on_c, 0, 81, 80
2, 2016, Note_on_c, 0, 81, 0
2, 2020, Note_on_c, 0, 79, 80
2, 2036, Note_on_c, 0, 79, 0
2, 2036, Note_on_c, 0, 76, 0
2, 2040, Note_on_c, 0, 78, 80
2, 2088, Note_on_c, 0, 78, 0
2, 2280, Note_on_c, 0, 74, 80
2, 2304, Note_on_c, 0, 74, 0
2, 2310, Note_on_c, 0, 78, 80
2, 2334, Note_on_c, 0, 78, 0
2, 2340, Note_on_c, 0, 81, 80
2, 2364, Note_on_c, 0, 81, 0
2, 2370, Note_on_c, 0, 86, 80
2, 2394, Note_on_c, 0, 86, 0
2, 2400, Note_on_c, 0, 72, 85
2, 2758, Note_on_c, 0, 72, 0
2, 2760, Note_on_c, 0, 84, 85
2, 2788, Note_on_c, 0, 84, 0
2, 2790, Note_on_c, 0, 81, 85
2, 2818, Note_on_c, 0, 81, 0
2, 2820, Note_on_c, 0, 78, 85
2, 2848, Note_on_c, 0, 78, 0
2, 2850, Note_on_c, 0, 72, 85
2, 2878, Note_on_c, 0, 72, 0
2, 2880, Note_on_c, 0, 71, 85
2, 3238, Note_on_c, 0, 71, 0
2, 3240, Note_on_c, 0, 71, 85
2, 3268, Note_on_c, 0, 71, 0
2, 3270, Note_on_c, 0, 74, 85
2, 3298, Note_on_c, 0, 74, 0
2, 3300, Note_on_c, 0, 79, 85
2, 3328, Note_on_c, 0, 79, 0
2, 3330, Note_on_c, 0, 83, 85
2, 3358, Note_on_c, 0, 83, 0
2, 3360, Note_on_c, 0, 78, 85
2, 3360, Note_on_c, 0, 81, 85
2, 3478, Note_on_c, 0, 81, 0
2, 3478, Note_on_c, 0, 78, 0
2, 3480, Note_on_c, 0, 74, 85
2, 3480, Note_on_c, 0, 78, 85
2, 3528, Note_on_c, 0, 78, 0
2, 3528, Note_on_c, 0, 74, 0
2, 3600, Note_on_c, 0, 76, 85
2, 3600, Note_on_c, 0, 79, 85
2, 3648, Note_on_c, 0, 79, 0
2, 3648, Note_on_c, 0, 76, 0
2, 3720, Note_on_c, 0, 73, 85
2, 3720, Note_on_c, 0, 76, 85
2, 3768, Note_on_c, 0, 76, 0
2, 3768, Note_on_c, 0, 73, 0
2, 3840, Note_on_c, 0, 73, 85
2, 3840, Note_on_c, 0, 76, 85
2, 4078, Note_on_c, 0, 76, 0
2, 4078, Note_on_c, 0, 73, 0
2, 4080, Note_on_c, 0, 74, 85
2, 4080, Note_on_c, 0, 78, 85
2, 4128, Note_on_c, 0, 78, 0
2, 4128, Note_on_c, 0, 74, 0
2, 4200, Note_on_c, 0, 74, 85
2, 4228, Note_on_c, 0, 74, 0
2, 4230, Note_on_c, 0, 78, 85
2, 4258, Note_on_c, 0, 78, 0
2, 4260, Note_on_c, 0, 81, 85
2, 4288, Note_on_c, 0, 81, 0
2, 4290, Note_on_c, 0, 86, 85
2, 4318, Note_on_c, 0, 86, 0
2, 4320, Note_on_c, 0, 72, 85
2, 4678, Note_on_c, 0, 72, 0
2, 4680, Note_on_c, 0, 84, 85
2, 4708, Note_on_c, 0, 84, 0
2, 4710, Note_on_c, 0, 81, 85
2, 4738, Note_on_c, 0, 81, 0
2, 4740, Note_on_c, 0, 78, 85
2, 4768, Note_on_c, 0, 78, 0
2, 4770, Note_on_c, 0, 72, 85
2, 4798, Note_on_c, 0, 72, 0
2, 4800, Note_on_c, 0, 71, 85
2, 5158, Note_on_c, 0, 71, 0
2, 5160, Note_on_c, 0, 83, 85
2, 5198, Note_on_c, 0, 83, 0
2, 5200, Note_on_c, 0, 85, 85
2, 5238, Note_on_c, 0, 85, 0
2, 5240, Note_on_c, 0, 86, 85
2, 5278, Note_on_c, 0, 86, 0
2, 5280, Note_on_c, 0, 85, 85
2, 5318, Note_on_c, 0, 85, 0
2, 5320, Note_on_c, 0, 83, 85
2, 5358, Note_on_c, 0, 83, 0
2, 5360, Note_on_c, 0, 81, 85
2, 5398, Note_on_c, 0, 81, 0
2, 5400, Note_on_c, 0, 79, 85
2, 5438, Note_on_c, 0, 79, 0
2, 5440, Note_on_c, 0, 78, 85
2, 5478, Note_on_c, 0, 78, 0
2, 5480, Note_on_c, 0, 76, 85
2, 5518, Note_on_c, 0, 76, 0
2, 5520, Note_on_c, 0, 74, 85
2, 5558, Note_on_c, 0, 74, 0
2, 5560, Note_on_c, 0, 73, 85
2, 5598, Note_on_c, 0, 73, 0
2, 5600, Note_on_c, 0, 71, 85
2, 5638, Note_on_c, 0, 71, 0
2, 5640, Note_on_c, 0, 69, 85
2, 5668, Note_on_c, 0, 69, 0
2, 5670, Note_on_c, 0, 67, 85
2, 5698, Note_on_c, 0, 67, 0
2, 5700, Note_on_c, 0, 66, 85
2, 5728, Note_on_c, 0, 66, 0
2, 5730, Note_on_c, 0, 64, 85
2, 5758, Note_on_c, 0, 64, 0
2, 5760, Note_on_c, 0, 62, 85
2, 5998, Note_on_c, 0, 62, 0
2, 6120, Note_on_c, 0, 57, 64
2, 6238, Note_on_c, 0, 57, 0
2, 6240, Note_on_c, 0, 62, 64
2, 6298, Note_on_c, 0, 62, 0
2, 6300, Note_on_c, 0, 61, 66
2, 6358, Note_on_c, 0, 61, 0
2, 6360, Note_on_c, 0, 64, 68
2, 6418, Note_on_c, 0, 64, 0
2, 6420, Note_on_c, 0, 62, 70
2, 6478, Note_on_c, 0, 62, 0
2, 6480, Note_on_c, 0, 66, 72
2, 6538, Note_on_c, 0, 66, 0
2, 6540, Note_on_c, 0, 64, 74
2, 6598, Note_on_c, 0, 64, 0
2, 6600, Note_on_c, 0, 67, 76
2, 6658, Note_on_c, 0, 67, 0
2, 6660, Note_on_c, 0, 66, 78
2, 6718, Note_on_c, 0, 66, 0
2, 6720, Note_on_c, 0, 62, 88
2, 6720, Note_on_c, 0, 66, 88
2, 6958, Note_on_c, 0, 66, 0
2, 6958, Note_on_c, 0, 62, 0
2, 6960, Note_on_c, 0, 61, 64
2, 6960, Note_on_c, 0, 64, 64
2, 7008, Note_on_c, 0, 64, 0
2, 7008, Note_on_c, 0, 61, 0
2, 7080, Note_on_c, 0, 57, 64
2, 7198, Note_on_c, 0, 57, 0
2, 7200, Note_on_c, 0, 64, 64
2, 7260, Note_on_c, 0, 64, 0
2, 7260, Note_on_c, 0, 63, 66
2, 7308, Note_on_c, 0, 63, 0
2, 7320, Note_on_c, 0, 66, 68
2, 7380, Note_on_c, 0, 66, 0
2, 7380, Note_on_c, 0, 64, 70
2, 7428, Note_on_c, 0, 64, 0
2, 7440, Note_on_c, 0, 67, 72
2, 7500, Note_on_c, 0, 67, 0
2, 7500, Note_on_c, 0, 66, 74
2, 7548, Note_on_c, 0, 66, 0
2, 7560, Note_on_c, 0, 69, 76
2, 7620, Note_on_c, 0, 69, 0
2, 7620, Note_on_c, 0, 67, 78
2, 7668, Note_on_c, 0, 67, 0
2, 7680, Note_on_c, 0, 64, 88
2, 7680, Note_on_c, 0, 67, 88
2, 7918, Note_on_c, 0, 67, 0
2, 7918, Note_on_c, 0, 64, 0
2, 7920, Note_on_c, 0, 62, 64
2, 7920, Note_on_c, 0, 66, 64
2, 7968, Note_on_c, 0, 66, 0
2, 7968, Note_on_c, 0, 62, 0
2, 8040, Note_on_c, 0, 62, 64
2, 8158, Note_on_c, 0, 62, 0
2, 8160, Note_on_c, 0, 67, 64
2, 8218, Note_on_c, 0, 67, 0
2, 8220, Note_on_c, 0, 66, 66
2, 8278, Note_on_c, 0, 66, 0
2, 8280, Note_on_c, 0, 69, 68
2, 8338, Note_on_c, 0, 69, 0
2, 8340, Note_on_c, 0, 67, 70
2, 8398, Note_on_c, 0, 67, 0
2, 8400, Note_on_c, 0, 71, 72
2, 8458, Note_on_c, 0, 71, 0
2, 8460, Note_on_c, 0, 69, 74
2, 8518, Note_on_c, 0, 69, 0
2, 8520, Note_on_c, 0, 72, 76
2, 8578, Note_on_c, 0, 72, 0
2, 8580, Note_on_c, 0, 71, 78
2, 8638, Note_on_c, 0, 71, 0
2, 8640, Note_on_c, 0, 71, 85
2, 8688, Note_on_c, 0, 71, 0
2, 8760, Note_on_c, 0, 71, 85
2, 8818, Note_on_c, 0, 71, 0
2, 8820, Note_on_c, 0, 74, 85
2, 8878, Note_on_c, 0, 74, 0
2, 8880, Note_on_c, 0, 69, 85
2, 8998, Note_on_c, 0, 69, 0
2, 9120, Note_on_c, 0, 67, 80
2, 9144, Note_on_c, 0, 67, 0
2, 9180, Note_on_c, 0, 69, 80
2, 9196, Note_on_c, 0, 69, 0
2, 9200, Note_on_c, 0, 67, 80
2, 9216, Note_on_c, 0, 67, 0
2, 9220, Note_on_c, 0, 66, 80
2, 9236, Note_on_c, 0, 66, 0
2, 9240, Note_on_c, 0, 67, 80
2, 9288, Note_on_c, 0, 67, 0
2, 9300, Note_on_c, 0, 71, 80
2, 9348, Note_on_c, 0, 71, 0
2, 9360, Note_on_c, 0, 66, 80
2, 9456, Note_on_c, 0, 66, 0
2, 9600, Note_on_c, 0, 71, 56
2, 9648, Note_on_c, 0, 71, 0
2, 9660, Note_on_c, 0, 73, 56
2, 9676, Note_on_c, 0, 73, 0
2, 9680, Note_on_c, 0, 71, 56
2, 9696, Note_on_c, 0, 71, 0
2, 9700, Note_on_c, 0, 69, 56
2, 9716, Note_on_c, 0, 69, 0
2, 9720, Note_on_c, 0, 71, 56
2, 9768, Note_on_c, 0, 71, 0
2, 9780, Note_on_c, 0, 74, 56
2, 9828, Note_on_c, 0, 74, 0
2, 9840, Note_on_c, 0, 69, 56
2, 9936, Note_on_c, 0, 69, 0
2, 10080, Note_on_c, 0, 67, 56
2, 10104, Note_on_c, 0, 67, 0
2, 10140, Note_on_c, 0, 69, 56
2, 10156, Note_on_c, 0, 69, 0
2, 10160, Note_on_c, 0, 67, 56
2, 10176, Note_on_c, 0, 67, 0
2, 10180, Note_on_c, 0, 66, 56
2, 10196, Note_on_c, 0, 66, 0
2, 10200, Note_on_c, 0, 67, 56
2, 10248, Note_on_c, 0, 67, 0
2, 10260, Note_on_c, 0, 71, 56
2, 10308, Note_on_c, 0, 71, 0
2, 10320, Note_on_c, 0, 66, 56
2, 10416, Note_on_c, 0, 66, 0
2, 10560, Note_on_c, 0, 63, 56
2, 10618, Note_on_c, 0, 63, 0
2, 10620, Note_on_c, 0, 64, 59
2, 10678, Note_on_c, 0, 64, 0
2, 10680, Note_on_c, 0, 66, 62
2, 10738, Note_on_c, 0, 66, 0
2, 10740, Note_on_c, 0, 67, 65
2, 10798, Note_on_c, 0, 67, 0
2, 10800, Note_on_c, 0, 69, 68
2, 10858, Note_on_c, 0, 69, 0
2, 10860, Note_on_c, 0, 71, 71
2, 10918, Note_on_c, 0, 71, 0
2, 10920, Note_on_c, 0, 67, 74
2, 10978, Note_on_c, 0, 67, 0
2, 10980, Note_on_c, 0, 64, 77
2, 11038, Note_on_c, 0, 64, 0
2, 11040, Note_on_c, 0, 62, 85
2, 11518, Note_on_c, 0, 62, 0
2, 11520, Note_on_c, 0, 61, 68
2, 11592, Note_on_c, 0, 61, 0
2, 11880, Note_on_c, 0, 64, 85
2, 11908, Note_on_c, 0, 64, 0
2, 11910, Note_on_c, 0, 69, 85
2, 11938, Note_on_c, 0, 69, 0
2, 11940, Note_on_c, 0, 73, 85
2, 11968, Note_on_c, 0, 73, 0
2, 11970, Note_on_c, 0, 76, 85
2, 11998, Note_on_c, 0, 76, 0
2, 12000, Note_on_c, 0, 73, 85
2, 12048, Note_on_c, 0, 73, 0
2, 12120, Note_on_c, 0, 69, 85
2, 12148, Note_on_c, 0, 69, 0
2, 12150, Note_on_c, 0, 73, 85
2, 12178, Note_on_c, 0, 73, 0
2, 12180, Note_on_c, 0, 76, 85
2, 12208, Note_on_c, 0, 76, 0
2, 12210, Note_on_c, 0, 81, 85
2, 12238, Note_on_c, 0, 81, 0
2, 12240, Note_on_c, 0, 76, 85
2, 12288, Note_on_c, 0, 76, 0
2, 12360, Note_on_c, 0, 76, 85
2, 12388, Note_on_c, 0, 76, 0
2, 12390, Note_on_c, 0, 81, 85
2, 12418, Note_on_c, 0, 81, 0
2, 12420, Note_on_c, 0, 85, 85
2, 12448, Note_on_c, 0, 85, 0
2, 12450, Note_on_c, 0, 88, 85
2, 12478, Note_on_c, 0, 88, 0
2, 12480, Note_on_c, 0, 85, 85
2, 12552, Note_on_c, 0, 85, 0
2, 12840, Note_on_c, 0, 69, 85
2, 12868, Note_on_c, 0, 69, 0
2, 12870, Note_on_c, 0, 64, 85
2, 12898, Note_on_c, 0, 64, 0
2, 12900, Note_on_c, 0, 61, 85
2, 12928, Note_on_c, 0, 61, 0
2, 12930, Note_on_c, 0, 57, 85
2, 12958, Note_on_c, 0, 57, 0
2, 12960, Note_on_c, 0, 55, 85
2, 13438, Note_on_c, 0, 55, 0
2, 13440, Note_on_c, 0, 54, 85
2, 13498, Note_on_c, 0, 54, 0
2, 13500, Note_on_c, 0, 59, 85
2, 13558, Note_on_c, 0, 59, 0
2, 13560, Note_on_c, 0, 58, 85
2, 13618, Note_on_c, 0, 58, 0
2, 13620, Note_on_c, 0, 59, 85
2, 13678, Note_on_c, 0, 59, 0
2, 13680, Note_on_c, 0, 61, 85
2, 13738, Note_on_c, 0, 61, 0
2, 13740, Note_on_c, 0, 59, 85
2, 13798, Note_on_c, 0, 59, 0
2, 13800, Note_on_c, 0, 58, 85
2, 13858, Note_on_c, 0, 58, 0
2, 13860, Note_on_c, 0, 59, 85
2, 13918, Note_on_c, 0, 59, 0
2, 13920, Note_on_c, 0, 57, 85
2, 14398, Note_on_c, 0, 57, 0
2, 14400, Note_on_c, 0, 56, 80
2, 14458, Note_on_c, 0, 56, 0
2, 14460, Note_on_c, 0, 64, 78
2, 14518, Note_on_c, 0, 64, 0
2, 14520, Note_on_c, 0, 63, 76
2, 14578, Note_on_c, 0, 63, 0
2, 14580, Note_on_c, 0, 64, 74
2, 14638, Note_on_c, 0, 64, 0
2, 14640, Note_on_c, 0, 66, 72
2, 14698, Note_on_c, 0, 66, 0
2, 14700, Note_on_c, 0, 64, 70
2, 14758, Note_on_c, 0, 64, 0
2, 14760, Note_on_c, 0, 63, 68
2, 14818, Note_on_c, 0, 63, 0
2, 14820, Note_on_c, 0, 64, 66
2, 14878, Note_on_c, 0, 64, 0
2, 14880, Note_on_c, 0, 63, 64
2, 15000, Note_on_c, 0, 63, 0
2, 15000, Note_on_c, 0, 69, 68
2, 15118, Note_on_c, 0, 69, 0
2, 15240, Note_on_c, 0, 63, 76
2, 15360, Note_on_c, 0, 63, 0
2, 15360, Note_on_c, 0, 64, 85
2, 15408, Note_on_c, 0, 64, 0
2, 15480, Note_on_c, 0, 64, 64
2, 15538, Note_on_c, 0, 64, 0
2, 15540, Note_on_c, 0, 71, 64
2, 15598, Note_on_c, 0, 71, 0
2, 15600, Note_on_c, 0, 64, 64
2, 15648, Note_on_c, 0, 64, 0
2, 15720, Note_on_c, 0, 64, 64
2, 15840, Note_on_c, 0, 64, 0
2, 15840, Note_on_c, 0, 63, 64
2, 15960, Note_on_c, 0, 63, 0
2, 15960, Note_on_c, 0, 69, 68
2, 16078, Note_on_c, 0, 69, 0
2, 16200, Note_on_c, 0, 63, 76
2, 16318, Note_on_c, 0, 63, 0
2, 16320, Note_on_c, 0, 64, 85
2, 16368, Note_on_c, 0, 64, 0
2, 16440, Note_on_c, 0, 64, 50
2, 16498, Note_on_c, 0, 64, 0
2, 16500, Note_on_c, 0, 71, 51
2, 16558, Note_on_c, 0, 71, 0
2, 16560, Note_on_c, 0, 64, 52
2, 16632, Note_on_c, 0, 64, 0
2, 16650, Note_on_c, 0, 62, 53
2, 16674, Note_on_c, 0, 62, 0
2, 16680, Note_on_c, 0, 64, 54
2, 16704, Note_on_c, 0, 64, 0
2, 16710, Note_on_c, 0, 62, 54
2, 16734, Note_on_c, 0, 62, 0
2, 16740, Note_on_c, 0, 61, 55
2, 16764, Note_on_c, 0, 61, 0
2, 16770, Note_on_c, 0, 62, 56
2, 16794, Note_on_c, 0, 62, 0
2, 16800, Note_on_c, 0, 61, 56
2, 16918, Note_on_c, 0, 61, 0
2, 16920, Note_on_c, 0, 76, 58
2, 16992, Note_on_c, 0, 76, 0
2, 17160, Note_on_c, 0, 69, 63
2, 17278, Note_on_c, 0, 69, 0
2, 17280, Note_on_c, 0, 68, 64
2, 17328, Note_on_c, 0, 68, 0
2, 17400, Note_on_c, 0, 68, 66
2, 17458, Note_on_c, 0, 68, 0
2, 17460, Note_on_c, 0, 76, 67
2, 17518, Note_on_c, 0, 76, 0
2, 17520, Note_on_c, 0, 68, 68
2, 17568, Note_on_c, 0, 68, 0
2, 17640, Note_on_c, 0, 68, 70
2, 17758, Note_on_c, 0, 68, 0
2, 17760, Note_on_c, 0, 69, 72
2, 17808, Note_on_c, 0, 69, 0
2, 17880, Note_on_c, 0, 69, 74
2, 17938, Note_on_c, 0, 69, 0
2, 17940, Note_on_c, 0, 76, 75
2, 17998, Note_on_c, 0, 76, 0
2, 18000, Note_on_c, 0, 69, 76
2, 18048, Note_on_c, 0, 69, 0
2, 18120, Note_on_c, 0, 69, 78
2, 18238, Note_on_c, 0, 69, 0
2, 18240, Note_on_c, 0, 71, 85
2, 18288, Note_on_c, 0, 71, 0
2, 18360, Note_on_c, 0, 71, 85
2, 18418, Note_on_c, 0, 71, 0
2, 18420, Note_on_c, 0, 76, 85
2, 18478, Note_on_c, 0, 76, 0
2, 18480, Note_on_c, 0, 71, 85
2, 18598, Note_on_c, 0, 71, 0
2, 18600, Note_on_c, 0, 74, 85
2, 18718, Note_on_c, 0, 74, 0
2, 18720, Note_on_c, 0, 73, 85
2, 18778, Note_on_c, 0, 73, 0
2, 18780, Note_on_c, 0, 74, 85
2, 18838, Note_on_c, 0, 74, 0
2, 18840, Note_on_c, 0, 76, 85
2, 18898, Note_on_c, 0, 76, 0
2, 18900, Note_on_c, 0, 73, 85
2, 18958, Note_on_c, 0, 73, 0
2, 18960, Note_on_c, 0, 71, 85
2, 19018, Note_on_c, 0, 71, 0
2, 19020, Note_on_c, 0, 69, 85
2, 19078, Note_on_c, 0, 69, 0
2, 19080, Note_on_c, 0, 68, 85
2, 19138, Note_on_c, 0, 68, 0
2, 19140, Note_on_c, 0, 66, 85
2, 19198, Note_on_c, 0, 66, 0
2, 19200, Note_on_c, 0, 64, 85
2, 19258, Note_on_c, 0, 64, 0
2, 19260, Note_on_c, 0, 63, 85
2, 19318, Note_on_c, 0, 63, 0
2, 19320, Note_on_c, 0, 64, 85
2, 19378, Note_on_c, 0, 64, 0
2, 19380, Note_on_c, 0, 66, 85
2, 19438, Note_on_c, 0, 66, 0
2, 19440, Note_on_c, 0, 64, 85
2, 19498, Note_on_c, 0, 64, 0
2, 19500, Note_on_c, 0, 62, 85
2, 19558, Note_on_c, 0, 62, 0
2, 19560, Note_on_c, 0, 61, 85
2, 19618, Note_on_c, 0, 61, 0
2, 19620, Note_on_c, 0, 59, 85
2, 19678, Note_on_c, 0, 59, 0
2, 19680, Note_on_c, 0, 61, 85
2, 19738, Note_on_c, 0, 61, 0
2, 19740, Note_on_c, 0, 62, 85
2, 19798, Note_on_c, 0, 62, 0
2, 19800, Note_on_c, 0, 64, 85
2, 19858, Note_on_c, 0, 64, 0
2, 19860, Note_on_c, 0, 61, 85
2, 19918, Note_on_c, 0, 61, 0
2, 20640, Note_on_c, 0, 73, 85
2, 20698, Note_on_c, 0, 73, 0
2, 20700, Note_on_c, 0, 74, 85
2, 20758, Note_on_c, 0, 74, 0
2, 20760, Note_on_c, 0, 76, 85
2, 20818, Note_on_c, 0, 76, 0
2, 20820, Note_on_c, 0, 73, 85
2, 20878, Note_on_c, 0, 73, 0
2, 20880, Note_on_c, 0, 71, 85
2, 20938, Note_on_c, 0, 71, 0
2, 20940, Note_on_c, 0, 69, 85
2, 20998, Note_on_c, 0, 69, 0
2, 21000, Note_on_c, 0, 68, 85
2, 21058, Note_on_c, 0, 68, 0
2, 21060, Note_on_c, 0, 69, 85
2, 21118, Note_on_c, 0, 69, 0
2, 21120, Note_on_c, 0, 78, 85
2, 21178, Note_on_c, 0, 78, 0
2, 21180, Note_on_c, 0, 80, 85
2, 21238, Note_on_c, 0, 80, 0
2, 21240, Note_on_c, 0, 81, 85
2, 21298, Note_on_c, 0, 81, 0
2, 21300, Note_on_c, 0, 78, 85
2, 21358, Note_on_c, 0, 78, 0
2, 21360, Note_on_c, 0, 76, 85
2, 21418, Note_on_c, 0, 76, 0
2, 21420, Note_on_c, 0, 74, 85
2, 21478, Note_on_c, 0, 74, 0
2, 21480, Note_on_c, 0, 73, 85
2, 21538, Note_on_c, 0, 73, 0
2, 21540, Note_on_c, 0, 71, 85
2, 21598, Note_on_c, 0, 71, 0
2, 21600, Note_on_c, 0, 70, 80
2, 21658, Note_on_c, 0, 70, 0
2, 21660, Note_on_c, 0, 71, 76
2, 21718, Note_on_c, 0, 71, 0
2, 21720, Note_on_c, 0, 73, 72
2, 21778, Note_on_c, 0, 73, 0
2, 21780, Note_on_c, 0, 71, 68
2, 21838, Note_on_c, 0, 71, 0
2, 21840, Note_on_c, 0, 74, 64
2, 21898, Note_on_c, 0, 74, 0
2, 21900, Note_on_c, 0, 73, 60
2, 21958, Note_on_c, 0, 73, 0
2, 21960, Note_on_c, 0, 76, 56
2, 22018, Note_on_c, 0, 76, 0
2, 22020, Note_on_c, 0, 74, 52
2, 22078, Note_on_c, 0, 74, 0
2, 22080, Note_on_c, 0, 78, 48
2, 22198, Note_on_c, 0, 78, 0
2, 22320, Note_on_c, 0, 76, 85
2, 22378, Note_on_c, 0, 76, 0
2, 22380, Note_on_c, 0, 74, 85
2, 22438, Note_on_c, 0, 74, 0
2, 22440, Note_on_c, 0, 73, 85
2, 22498, Note_on_c, 0, 73, 0
2, 22500, Note_on_c, 0, 71, 85
2, 22558, Note_on_c, 0, 71, 0
2, 22560, Note_on_c, 0, 69, 85
2, 22798, Note_on_c, 0, 69, 0
2, 22800, Note_on_c, 0, 71, 80
2, 22824, Note_on_c, 0, 71, 0
2, 22830, Note_on_c, 0, 73, 80
2, 22854, Note_on_c, 0, 73, 0
2, 22860, Note_on_c, 0, 71, 80
2, 22884, Note_on_c, 0, 71, 0
2, 22890, Note_on_c, 0, 73, 80
2, 22914, Note_on_c, 0, 73, 0
2, 22920, Note_on_c, 0, 71, 80
2, 22936, Note_on_c, 0, 71, 0
2, 22940, Note_on_c, 0, 73, 80
2, 22956, Note_on_c, 0, 73, 0
2, 22960, Note_on_c, 0, 71, 80
2, 22976, Note_on_c, 0, 71, 0
2, 22980, Note_on_c, 0, 69, 80
2, 23004, Note_on_c, 0, 69, 0
2, 23010, Note_on_c, 0, 71, 80
2, 23034, Note_on_c, 0, 71, 0
2, 23040, Note_on_c, 0, 73, 85
2, 23098, Note_on_c, 0, 73, 0
2, 23100, Note_on_c, 0, 74, 85
2, 23158, Note_on_c, 0, 74, 0
2, 23160, Note_on_c, 0, 76, 85
2, 23218, Note_on_c, 0, 76, 0
2, 23220, Note_on_c, 0, 73, 85
2, 23278, Note_on_c, 0, 73, 0
2, 23280, Note_on_c, 0, 71, 85
2, 23338, Note_on_c, 0, 71, 0
2, 23340, Note_on_c, 0, 69, 85
2, 23398, Note_on_c, 0, 69, 0
2, 23400, Note_on_c, 0, 68, 85
2, 23458, Note_on_c, 0, 68, 0
2, 23460, Note_on_c, 0, 69, 85
2, 23518, Note_on_c, 0, 69, 0
2, 23520, Note_on_c, 0, 78, 85
2, 23578, Note_on_c, 0, 78, 0
2, 23580, Note_on_c, 0, 80, 85
2, 23638, Note_on_c, 0, 80, 0
2, 23640, Note_on_c, 0, 81, 85
2, 23698, Note_on_c, 0, 81, 0
2, 23700, Note_on_c, 0, 78, 85
2, 23758, Note_on_c, 0, 78, 0
2, 23760, Note_on_c, 0, 76, 85
2, 23818, Note_on_c, 0, 76, 0
2, 23820, Note_on_c, 0, 74, 85
2, 23878, Note_on_c, 0, 74, 0
2, 23880, Note_on_c, 0, 73, 85
2, 23938, Note_on_c, 0, 73, 0
2, 23940, Note_on_c, 0, 71, 85
2, 23998, Note_on_c, 0, 71, 0
2, 24000, Note_on_c, 0, 70, 80
2, 24058, Note_on_c, 0, 70, 0
2, 24060, Note_on_c, 0, 71, 76
2, 24118, Note_on_c, 0, 71, 0
2, 24120, Note_on_c, 0, 73, 72
2, 24178, Note_on_c, 0, 73, 0
2, 24180, Note_on_c, 0, 71, 68
2, 24238, Note_on_c, 0, 71, 0
2, 24240, Note_on_c, 0, 74, 64
2, 24298, Note_on_c, 0, 74, 0
2, 24300, Note_on_c, 0, 73, 60
2, 24358, Note_on_c, 0, 73, 0
2, 24360, Note_on_c, 0, 76, 56
2, 24418, Note_on_c, 0, 76, 0
2, 24420, Note_on_c, 0, 74, 52
2, 24478, Note_on_c, 0, 74, 0
2, 24480, Note_on_c, 0, 78, 48
2, 24598, Note_on_c, 0, 78, 0
2, 24720, Note_on_c, 0, 74, 48
2, 24778, Note_on_c, 0, 74, 0
2, 24780, Note_on_c, 0, 73, 48
2, 24838, Note_on_c, 0, 73, 0
2, 24840, Note_on_c, 0, 76, 48
2, 24898, Note_on_c, 0, 76, 0
2, 24900, Note_on_c, 0, 74, 48
2, 24958, Note_on_c, 0, 74, 0
2, 24960, Note_on_c, 0, 78, 48
2, 25078, Note_on_c, 0, 78, 0
2, 25440, Note_on_c, 0, 74, 32
2, 25498, Note_on_c, 0, 74, 0
2, 25500, Note_on_c, 0, 73, 32
2, 25558, Note_on_c, 0, 73, 0
2, 25560, Note_on_c, 0, 76, 32
2, 25618, Note_on_c, 0, 76, 0
2, 25620, Note_on_c, 0, 74, 32
2, 25678, Note_on_c, 0, 74, 0
2, 25680, Note_on_c, 0, 78, 32
2, 26112, Note_on_c, 0, 78, 0
2, 26250, Note_on_c, 0, 65, 80
2, 26279, Note_on_c, 0, 65, 0
2, 26280, Note_on_c, 0, 77, 80
2, 26352, Note_on_c, 0, 77, 0
2, 26370, Note_on_c, 0, 66, 80
2, 26394, Note_on_c, 0, 66, 0
2, 26400, Note_on_c, 0, 78, 85
2, 26472, Note_on_c, 0, 78, 0
2, 26490, Note_on_c, 0, 70, 80
2, 26514, Note_on_c, 0, 70, 0
2, 26520, Note_on_c, 0, 82, 80
2, 26592, Note_on_c, 0, 82, 0
2, 26610, Note_on_c, 0, 71, 80
2, 26634, Note_on_c, 0, 71, 0
2, 26640, Note_on_c, 0, 83, 80
2, 26712, Note_on_c, 0, 83, 0
2, 26730, Note_on_c, 0, 73, 80
2, 26754, Note_on_c, 0, 73, 0
2, 26760, Note_on_c, 0, 85, 80
2, 26832, Note_on_c, 0, 85, 0
2, 26850, Note_on_c, 0, 74, 80
2, 26874, Note_on_c, 0, 74, 0
2, 26880, Note_on_c, 0, 86, 85
2, 27058, Note_on_c, 0, 86, 0
2, 27060, Note_on_c, 0, 86, 85
2, 27118, Note_on_c, 0, 86, 0
2, 27120, Note_on_c, 0, 86, 85
2, 27178, Note_on_c, 0, 86, 0
2, 27180, Note_on_c, 0, 83, 85
2, 27238, Note_on_c, 0, 83, 0
2, 27240, Note_on_c, 0, 86, 85
2, 27298, Note_on_c, 0, 86, 0
2, 27300, Note_on_c, 0, 83, 85
2, 27358, Note_on_c, 0, 83, 0
2, 27360, Note_on_c, 0, 76, 85
2, 27538, Note_on_c, 0, 76, 0
2, 27540, Note_on_c, 0, 81, 85
2, 27568, Note_on_c, 0, 81, 0
2, 27570, Note_on_c, 0, 85, 85
2, 27598, Note_on_c, 0, 85, 0
2, 27600, Note_on_c, 0, 88, 85
2, 27778, Note_on_c, 0, 88, 0
2, 27780, Note_on_c, 0, 81, 85
2, 27808, Note_on_c, 0, 81, 0
2, 27810, Note_on_c, 0, 83, 85
2, 27838, Note_on_c, 0, 83, 0
2, 27840, Note_on_c, 0, 83, 64
2, 27864, Note_on_c, 0, 83, 0
2, 27870, Note_on_c, 0, 85, 65
2, 27894, Note_on_c, 0, 85, 0
2, 27900, Note_on_c, 0, 83, 66
2, 27924, Note_on_c, 0, 83, 0
2, 27930, Note_on_c, 0, 85, 67
2, 27954, Note_on_c, 0, 85, 0
2, 27960, Note_on_c, 0, 83, 68
2, 27984, Note_on_c, 0, 83, 0
2, 27990, Note_on_c, 0, 85, 69
2, 28014, Note_on_c, 0, 85, 0
2, 28020, Note_on_c, 0, 83, 70
2, 28044, Note_on_c, 0, 83, 0
2, 28050, Note_on_c, 0, 85, 71
2, 28074, Note_on_c, 0, 85, 0
2, 28080, Note_on_c, 0, 83, 72
2, 28104, Note_on_c, 0, 83, 0
2, 28110, Note_on_c, 0, 85, 73
2, 28134, Note_on_c, 0, 85, 0
2, 28140, Note_on_c, 0, 83, 74
2, 28164, Note_on_c, 0, 83, 0
2, 28170, Note_on_c, 0, 85, 75
2, 28194, Note_on_c, 0, 85, 0
2, 28200, Note_on_c, 0, 83, 76
2, 28216, Note_on_c, 0, 83, 0
2, 28220, Note_on_c, 0, 85, 77
2, 28236, Note_on_c, 0, 85, 0
2, 28240, Note_on_c, 0, 83, 77
2, 28256, Note_on_c, 0, 83, 0
2, 28260, Note_on_c, 0, 81, 78
2, 28284, Note_on_c, 0, 81, 0
2, 28290, Note_on_c, 0, 83, 79
2, 28314, Note_on_c, 0, 83, 0
2, 28320, Note_on_c, 0, 81, 85
2, 28558, Note_on_c, 0, 81, 0
2, 28680, Note_on_c, 0, 76, 85
2, 28798, Note_on_c, 0, 76, 0
2, 28800, Note_on_c, 0, 78, 80
2, 28832, Note_on_c, 0, 78, 0
2, 28840, Note_on_c, 0, 80, 80
2, 28872, Note_on_c, 0, 80, 0
2, 28880, Note_on_c, 0, 78, 80
2, 28912, Note_on_c, 0, 78, 0
2, 28920, Note_on_c, 0, 76, 80
2, 29016, Note_on_c, 0, 76, 0
2, 29040, Note_on_c, 0, 78, 80
2, 29072, Note_on_c, 0, 78, 0
2, 29080, Note_on_c, 0, 80, 80
2, 29112, Note_on_c, 0, 80, 0
2, 29120, Note_on_c, 0, 78, 80
2, 29152, Note_on_c, 0, 78, 0
2, 29160, Note_on_c, 0, 76, 80
2, 29208, Note_on_c, 0, 76, 0
2, 29220, Note_on_c, 0, 76, 88
2, 29240, Note_on_c, 0, 80, 88
2, 29260, Note_on_c, 0, 83, 88
2, 29280, Note_on_c, 0, 86, 88
2, 29472, Note_on_c, 0, 86, 0
2, 29472, Note_on_c, 0, 76, 0
2, 29472, Note_on_c, 0, 80, 0
2, 29472, Note_on_c, 0, 83, 0
2, 29640, Note_on_c, 0, 85, 80
2, 29736, Note_on_c, 0, 85, 0
2, 29760, Note_on_c, 0, 83, 80
2, 29792, Note_on_c, 0, 83, 0
2, 29800, Note_on_c, 0, 85, 80
2, 29832, Note_on_c, 0, 85, 0
2, 29840, Note_on_c, 0, 83, 80
2, 29872, Note_on_c, 0, 83, 0
2, 29880, Note_on_c, 0, 86, 80
2, 29976, Note_on_c, 0, 86, 0
2, 30000, Note_on_c, 0, 76, 80
2, 30032, Note_on_c, 0, 76, 0
2, 30040, Note_on_c, 0, 78, 80
2, 30072, Note_on_c, 0, 78, 0
2, 30080, Note_on_c, 0, 76, 80
2, 30112, Note_on_c, 0, 76, 0
2, 30120, Note_on_c, 0, 74, 80
2, 30120, Note_on_c, 0, 80, 80
2, 30216, Note_on_c, 0, 80, 0
2, 30216, Note_on_c, 0, 74, 0
2, 30240, Note_on_c, 0, 73, 80
2, 30240, Note_on_c, 0, 81, 80
2, 30478, Note_on_c, 0, 81, 0
2, 30478, Note_on_c, 0, 73, 0
2, 30600, Note_on_c, 0, 76, 56
2, 30718, Note_on_c, 0, 76, 0
2, 30720, Note_on_c, 0, 78, 56
2, 30752, Note_on_c, 0, 78, 0
2, 30760, Note_on_c, 0, 80, 56
2, 30792, Note_on_c, 0, 80, 0
2, 30800, Note_on_c, 0, 78, 56
2, 30832, Note_on_c, 0, 78, 0
2, 30840, Note_on_c, 0, 76, 56
2, 30936, Note_on_c, 0, 76, 0
2, 30960, Note_on_c, 0, 78, 56
2, 30992, Note_on_c, 0, 78, 0
2, 31000, Note_on_c, 0, 80, 56
2, 31032, Note_on_c, 0, 80, 0
2, 31040, Note_on_c, 0, 78, 56
2, 31072, Note_on_c, 0, 78, 0
2, 31080, Note_on_c, 0, 76, 56
2, 31128, Note_on_c, 0, 76, 0
2, 31140, Note_on_c, 0, 76, 64
2, 31160, Note_on_c, 0, 80, 64
2, 31180, Note_on_c, 0, 83, 64
2, 31200, Note_on_c, 0, 86, 64
2, 31392, Note_on_c, 0, 86, 0
2, 31392, Note_on_c, 0, 76, 0
2, 31392, Note_on_c, 0, 80, 0
2, 31392, Note_on_c, 0, 83, 0
2, 31560, Note_on_c, 0, 85, 56
2, 31656, Note_on_c, 0, 85, 0
2, 31680, Note_on_c, 0, 83, 56
2, 31712, Note_on_c, 0, 83, 0
2, 31720, Note_on_c, 0, 85, 56
2, 31752, Note_on_c, 0, 85, 0
2, 31760, Note_on_c, 0, 83, 56
2, 31792, Note_on_c, 0, 83, 0
2, 31800, Note_on_c, 0, 86, 56
2, 31896, Note_on_c, 0, 86, 0
2, 31920, Note_on_c, 0, 76, 56
2, 31952, Note_on_c, 0, 76, 0
2, 31960, Note_on_c, 0, 78, 56
2, 31992, Note_on_c, 0, 78, 0
2, 32000, Note_on_c, 0, 76, 56
2, 32032, Note_on_c, 0, 76, 0
2, 32040, Note_on_c, 0, 80, 56
2, 32040, Note_on_c, 0, 74, 56
2, 32136, Note_on_c, 0, 74, 0
2, 32136, Note_on_c, 0, 80, 0
2, 32160, Note_on_c, 0, 73, 56
2, 32160, Note_on_c, 0, 81, 56
2, 32278, Note_on_c, 0, 81, 0
2, 32278, Note_on_c, 0, 73, 0
2, 32460, Note_on_c, 0, 64, 56
2, 32518, Note_on_c, 0, 64, 0
2, 32520, Note_on_c, 0, 68, 56
2, 32578, Note_on_c, 0, 68, 0
2, 32580, Note_on_c, 0, 76, 56
2, 32638, Note_on_c, 0, 76, 0
2, 32700, Note_on_c, 0, 64, 56
2, 32758, Note_on_c, 0, 64, 0
2, 32760, Note_on_c, 0, 69, 56
2, 32818, Note_on_c, 0, 69, 0
2, 32820, Note_on_c, 0, 76, 56
2, 32878, Note_on_c, 0, 76, 0
2, 32940, Note_on_c, 0, 59, 56
2, 32998, Note_on_c, 0, 59, 0
2, 33000, Note_on_c, 0, 62, 56
2, 33058, Note_on_c, 0, 62, 0
2, 33060, Note_on_c, 0, 68, 56
2, 33118, Note_on_c, 0, 68, 0
2, 33120, Note_on_c, 0, 61, 56
2, 33120, Note_on_c, 0, 69, 56
2, 33358, Note_on_c, 0, 69, 0
2, 33358, Note_on_c, 0, 61, 0
2, 34560, Note_on_c, 0, 59, 80
2, 34592, Note_on_c, 0, 59, 0
2, 34600, Note_on_c, 0, 61, 80
2, 34632, Note_on_c, 0, 61, 0
2, 34640, Note_on_c, 0, 59, 80
2, 34672, Note_on_c, 0, 59, 0
2, 34680, Note_on_c, 0, 62, 80
2, 34752, Note_on_c, 0, 62, 0
2, 34800, Note_on_c, 0, 61, 80
2, 34832, Note_on_c, 0, 61, 0
2, 34840, Note_on_c, 0, 62, 80
2, 34872, Note_on_c, 0, 62, 0
2, 34880, Note_on_c, 0, 61, 80
2, 34912, Note_on_c, 0, 61, 0
2, 34920, Note_on_c, 0, 64, 80
2, 34992, Note_on_c, 0, 64, 0
2, 35040, Note_on_c, 0, 62, 80
2, 35072, Note_on_c, 0, 62, 0
2, 35080, Note_on_c, 0, 64, 80
2, 35112, Note_on_c, 0, 64, 0
2, 35120, Note_on_c, 0, 62, 80
2, 35152, Note_on_c, 0, 62, 0
2, 35160, Note_on_c, 0, 66, 80
2, 35208, Note_on_c, 0, 66, 0
2, 35400, Note_on_c, 0, 62, 80
2, 35424, Note_on_c, 0, 62, 0
2, 35430, Note_on_c, 0, 66, 80
2, 35454, Note_on_c, 0, 66, 0
2, 35460, Note_on_c, 0, 71, 80
2, 35484, Note_on_c, 0, 71, 0
2, 35490, Note_on_c, 0, 74, 80
2, 35514, Note_on_c, 0, 74, 0
2, 35520, Note_on_c, 0, 71, 85
2, 35640, Note_on_c, 0, 71, 0
2, 35640, Note_on_c, 0, 66, 85
2, 35760, Note_on_c, 0, 66, 0
2, 35760, Note_on_c, 0, 78, 85
2, 35808, Note_on_c, 0, 78, 0
2, 35880, Note_on_c, 0, 71, 85
2, 35928, Note_on_c, 0, 71, 0
2, 36000, Note_on_c, 0, 73, 80
2, 36032, Note_on_c, 0, 73, 0
2, 36040, Note_on_c, 0, 74, 80
2, 36072, Note_on_c, 0, 74, 0
2, 36080, Note_on_c, 0, 73, 80
2, 36112, Note_on_c, 0, 73, 0
2, 36120, Note_on_c, 0, 71, 80
2, 36168, Note_on_c, 0, 71, 0
2, 36360, Note_on_c, 0, 62, 80
2, 36384, Note_on_c, 0, 62, 0
2, 36390, Note_on_c, 0, 66, 80
2, 36414, Note_on_c, 0, 66, 0
2, 36420, Note_on_c, 0, 71, 80
2, 36444, Note_on_c, 0, 71, 0
2, 36450, Note_on_c, 0, 74, 80
2, 36474, Note_on_c, 0, 74, 0
2, 36480, Note_on_c, 0, 71, 85
2, 36600, Note_on_c, 0, 71, 0
2, 36600, Note_on_c, 0, 66, 85
2, 36720, Note_on_c, 0, 66, 0
2, 36720, Note_on_c, 0, 83, 85
2, 36768, Note_on_c, 0, 83, 0
2, 36840, Note_on_c, 0, 78, 85
2, 36888, Note_on_c, 0, 78, 0
2, 36960, Note_on_c, 0, 79, 80
2, 36992, Note_on_c, 0, 79, 0
2, 37000, Note_on_c, 0, 81, 80
2, 37032, Note_on_c, 0, 81, 0
2, 37040, Note_on_c, 0, 79, 80
2, 37072, Note_on_c, 0, 79, 0
2, 37080, Note_on_c, 0, 78, 80
2, 37128, Note_on_c, 0, 78, 0
2, 37320, Note_on_c, 0, 71, 80
2, 37344, Note_on_c, 0, 71, 0
2, 37350, Note_on_c, 0, 74, 80
2, 37374, Note_on_c, 0, 74, 0
2, 37380, Note_on_c, 0, 78, 80
2, 37404, Note_on_c, 0, 78, 0
2, 37410, Note_on_c, 0, 83, 80
2, 37434, Note_on_c, 0, 83, 0
2, 37440, Note_on_c, 0, 78, 85
2, 37560, Note_on_c, 0, 78, 0
2, 37560, Note_on_c, 0, 74, 85
2, 37680, Note_on_c, 0, 74, 0
2, 37680, Note_on_c, 0, 79, 85
2, 37728, Note_on_c, 0, 79, 0
2, 37800, Note_on_c, 0, 78, 85
2, 37848, Note_on_c, 0, 78, 0
2, 37920, Note_on_c, 0, 76, 80
2, 37952, Note_on_c, 0, 76, 0
2, 37960, Note_on_c, 0, 78, 80
2, 37992, Note_on_c, 0, 78, 0
2, 38000, Note_on_c, 0, 76, 80
2, 38032, Note_on_c, 0, 76, 0
2, 38040, Note_on_c, 0, 74, 80
2, 38088, Note_on_c, 0, 74, 0
2, 38460, Note_on_c, 0, 60, 85
2, 38518, Note_on_c, 0, 60, 0
2, 38520, Note_on_c, 0, 59, 85
2, 38578, Note_on_c, 0, 59, 0
2, 38580, Note_on_c, 0, 60, 85
2, 38638, Note_on_c, 0, 60, 0
2, 38640, Note_on_c, 0, 62, 85
2, 38698, Note_on_c, 0, 62, 0
2, 38700, Note_on_c, 0, 60, 85
2, 38758, Note_on_c, 0, 60, 0
2, 38760, Note_on_c, 0, 64, 85
2, 38818, Note_on_c, 0, 64, 0
2, 38820, Note_on_c, 0, 60, 85
2, 38878, Note_on_c, 0, 60, 0
2, 38940, Note_on_c, 0, 67, 85
2, 38998, Note_on_c, 0, 67, 0
2, 39000, Note_on_c, 0, 66, 85
2, 39058, Note_on_c, 0, 66, 0
2, 39060, Note_on_c, 0, 67, 85
2, 39118, Note_on_c, 0, 67, 0
2, 39120, Note_on_c, 0, 69, 85
2, 39178, Note_on_c, 0, 69, 0
2, 39180, Note_on_c, 0, 67, 85
2, 39238, Note_on_c, 0, 67, 0
2, 39240, Note_on_c, 0, 71, 85
2, 39298, Note_on_c, 0, 71, 0
2, 39300, Note_on_c, 0, 67, 85
2, 39358, Note_on_c, 0, 67, 0
2, 39360, Note_on_c, 0, 66, 85
2, 39838, Note_on_c, 0, 66, 0
2, 39840, Note_on_c, 0, 59, 85
2, 39898, Note_on_c, 0, 59, 0
2, 39900, Note_on_c, 0, 64, 85
2, 39958, Note_on_c, 0, 64, 0
2, 39960, Note_on_c, 0, 63, 85
2, 40018, Note_on_c, 0, 63, 0
2, 40020, Note_on_c, 0, 64, 85
2, 40078, Note_on_c, 0, 64, 0
2, 40080, Note_on_c, 0, 66, 85
2, 40138, Note_on_c, 0, 66, 0
2, 40140, Note_on_c, 0, 64, 85
2, 40198, Note_on_c, 0, 64, 0
2, 40200, Note_on_c, 0, 67, 85
2, 40258, Note_on_c, 0, 67, 0
2, 40260, Note_on_c, 0, 64, 85
2, 40318, Note_on_c, 0, 64, 0
2, 40320, Note_on_c, 0, 67, 85
2, 40320, Note_on_c, 0, 76, 85
2, 40798, Note_on_c, 0, 76, 0
2, 40798, Note_on_c, 0, 67, 0
2, 40860, Note_on_c, 0, 76, 85
2, 40918, Note_on_c, 0, 76, 0
2, 40920, Note_on_c, 0, 75, 85
2, 40978, Note_on_c, 0, 75, 0
2, 40980, Note_on_c, 0, 76, 85
2, 41038, Note_on_c, 0, 76, 0
2, 41040, Note_on_c, 0, 78, 85
2, 41098, Note_on_c, 0, 78, 0
2, 41100, Note_on_c, 0, 76, 85
2, 41158, Note_on_c, 0, 76, 0
2, 41160, Note_on_c, 0, 79, 85
2, 41218, Note_on_c, 0, 79, 0
2, 41220, Note_on_c, 0, 76, 85
2, 41278, Note_on_c, 0, 76, 0
2, 41280, Note_on_c, 0, 74, 80
2, 41338, Note_on_c, 0, 74, 0
2, 41340, Note_on_c, 0, 83, 82
2, 41398, Note_on_c, 0, 83, 0
2, 41400, Note_on_c, 0, 82, 84
2, 41458, Note_on_c, 0, 82, 0
2, 41460, Note_on_c, 0, 83, 86
2, 41518, Note_on_c, 0, 83, 0
2, 41520, Note_on_c, 0, 85, 88
2, 41578, Note_on_c, 0, 85, 0
2, 41580, Note_on_c, 0, 83, 90
2, 41638, Note_on_c, 0, 83, 0
2, 41640, Note_on_c, 0, 86, 92
2, 41698, Note_on_c, 0, 86, 0
2, 41700, Note_on_c, 0, 83, 94
2, 41758, Note_on_c, 0, 83, 0
2, 41760, Note_on_c, 0, 82, 96
2, 41818, Note_on_c, 0, 82, 0
2, 41820, Note_on_c, 0, 85, 96
2, 41844, Note_on_c, 0, 85, 0
2, 41880, Note_on_c, 0, 78, 96
2, 41904, Note_on_c, 0, 78, 0
2, 41940, Note_on_c, 0, 82, 96
2, 41964, Note_on_c, 0, 82, 0
2, 42000, Note_on_c, 0, 73, 96
2, 42058, Note_on_c, 0, 73, 0
2, 42060, Note_on_c, 0, 78, 96
2, 42118, Note_on_c, 0, 78, 0
2, 42120, Note_on_c, 0, 70, 96
2, 42178, Note_on_c, 0, 70, 0
2, 42180, Note_on_c, 0, 73, 96
2, 42238, Note_on_c, 0, 73, 0
2, 42240, Note_on_c, 0, 66, 96
2, 42478, Note_on_c, 0, 66, 0
2, 42600, Note_on_c, 0, 66, 64
2, 42718, Note_on_c, 0, 66, 0
2, 42720, Note_on_c, 0, 71, 64
2, 42778, Note_on_c, 0, 71, 0
2, 42780, Note_on_c, 0, 70, 66
2, 42838, Note_on_c, 0, 70, 0
2, 42840, Note_on_c, 0, 73, 68
2, 42898, Note_on_c, 0, 73, 0
2, 42900, Note_on_c, 0, 71, 70
2, 42958, Note_on_c, 0, 71, 0
2, 42960, Note_on_c, 0, 74, 72
2, 43018, Note_on_c, 0, 74, 0
2, 43020, Note_on_c, 0, 73, 74
2, 43078, Note_on_c, 0, 73, 0
2, 43080, Note_on_c, 0, 76, 76
2, 43138, Note_on_c, 0, 76, 0
2, 43140, Note_on_c, 0, 74, 78
2, 43198, Note_on_c, 0, 74, 0
2, 43200, Note_on_c, 0, 71, 85
2, 43200, Note_on_c, 0, 74, 85
2, 43438, Note_on_c, 0, 74, 0
2, 43438, Note_on_c, 0, 71, 0
2, 43440, Note_on_c, 0, 70, 64
2, 43440, Note_on_c, 0, 73, 64
2, 43488, Note_on_c, 0, 73, 0
2, 43488, Note_on_c, 0, 70, 0
2, 43560, Note_on_c, 0, 66, 64
2, 43678, Note_on_c, 0, 66, 0
2, 43680, Note_on_c, 0, 73, 64
2, 43738, Note_on_c, 0, 73, 0
2, 43740, Note_on_c, 0, 71, 66
2, 43798, Note_on_c, 0, 71, 0
2, 43800, Note_on_c, 0, 74, 68
2, 43858, Note_on_c, 0, 74, 0
2, 43860, Note_on_c, 0, 73, 70
2, 43918, Note_on_c, 0, 73, 0
2, 43920, Note_on_c, 0, 76, 72
2, 43978, Note_on_c, 0, 76, 0
2, 43980, Note_on_c, 0, 74, 74
2, 44038, Note_on_c, 0, 74, 0
2, 44040, Note_on_c, 0, 78, 76
2, 44098, Note_on_c, 0, 78, 0
2, 44100, Note_on_c, 0, 76, 78
2, 44158, Note_on_c, 0, 76, 0
2, 44160, Note_on_c, 0, 73, 85
2, 44160, Note_on_c, 0, 76, 85
2, 44398, Note_on_c, 0, 76, 0
2, 44398, Note_on_c, 0, 73, 0
2, 44400, Note_on_c, 0, 71, 64
2, 44400, Note_on_c, 0, 74, 64
2, 44448, Note_on_c, 0, 74, 0
2, 44448, Note_on_c, 0, 71, 0
2, 44520, Note_on_c, 0, 71, 64
2, 44638, Note_on_c, 0, 71, 0
2, 44640, Note_on_c, 0, 76, 85
2, 44698, Note_on_c, 0, 76, 0
2, 44700, Note_on_c, 0, 75, 85
2, 44758, Note_on_c, 0, 75, 0
2, 44760, Note_on_c, 0, 78, 85
2, 44818, Note_on_c, 0, 78, 0
2, 44820, Note_on_c, 0, 76, 85
2, 44878, Note_on_c, 0, 76, 0
2, 44880, Note_on_c, 0, 79, 85
2, 44938, Note_on_c, 0, 79, 0
2, 44940, Note_on_c, 0, 78, 85
2, 44998, Note_on_c, 0, 78, 0
2, 45000, Note_on_c, 0, 81, 85
2, 45058, Note_on_c, 0, 81, 0
2, 45060, Note_on_c, 0, 79, 85
2, 45118, Note_on_c, 0, 79, 0
2, 45120, Note_on_c, 0, 83, 85
2, 45178, Note_on_c, 0, 83, 0
2, 45180, Note_on_c, 0, 81, 85
2, 45238, Note_on_c, 0, 81, 0
2, 45240, Note_on_c, 0, 79, 85
2, 45298, Note_on_c, 0, 79, 0
2, 45300, Note_on_c, 0, 78, 85
2, 45358, Note_on_c, 0, 78, 0
2, 45360, Note_on_c, 0, 76, 85
2, 45418, Note_on_c, 0, 76, 0
2, 45420, Note_on_c, 0, 74, 85
2, 45478, Note_on_c, 0, 74, 0
2, 45480, Note_on_c, 0, 73, 85
2, 45538, Note_on_c, 0, 73, 0
2, 45540, Note_on_c, 0, 71, 85
2, 45598, Note_on_c, 0, 71, 0
2, 45600, Note_on_c, 0, 73, 85
2, 45658, Note_on_c, 0, 73, 0
2, 45660, Note_on_c, 0, 71, 85
2, 45718, Note_on_c, 0, 71, 0
2, 45720, Note_on_c, 0, 74, 85
2, 45778, Note_on_c, 0, 74, 0
2, 45780, Note_on_c, 0, 73, 85
2, 45838, Note_on_c, 0, 73, 0
2, 45840, Note_on_c, 0, 76, 85
2, 45898, Note_on_c, 0, 76, 0
2, 45900, Note_on_c, 0, 74, 85
2, 45958, Note_on_c, 0, 74, 0
2, 45960, Note_on_c, 0, 78, 85
2, 46018, Note_on_c, 0, 78, 0
2, 46020, Note_on_c, 0, 76, 85
2, 46078, Note_on_c, 0, 76, 0
2, 46080, Note_on_c, 0, 79, 85
2, 46138, Note_on_c, 0, 79, 0
2, 46140, Note_on_c, 0, 78, 85
2, 46198, Note_on_c, 0, 78, 0
2, 46200, Note_on_c, 0, 76, 85
2, 46258, Note_on_c, 0, 76, 0
2, 46260, Note_on_c, 0, 74, 85
2, 46318, Note_on_c, 0, 74, 0
2, 46320, Note_on_c, 0, 73, 85
2, 46378, Note_on_c, 0, 73, 0
2, 46380, Note_on_c, 0, 71, 85
2, 46438, Note_on_c, 0, 71, 0
2, 46440, Note_on_c, 0, 69, 85
2, 46498, Note_on_c, 0, 69, 0
2, 46500, Note_on_c, 0, 67, 85
2, 46558, Note_on_c, 0, 67, 0
2, 46560, Note_on_c, 0, 66, 85
2, 46618, Note_on_c, 0, 66, 0
2, 46620, Note_on_c, 0, 64, 85
2, 46678, Note_on_c, 0, 64, 0
2, 46680, Note_on_c, 0, 67, 85
2, 46738, Note_on_c, 0, 67, 0
2, 46740, Note_on_c, 0, 66, 85
2, 46798, Note_on_c, 0, 66, 0
2, 46800, Note_on_c, 0, 69, 85
2, 46858, Note_on_c, 0, 69, 0
2, 46860, Note_on_c, 0, 67, 85
2, 46918, Note_on_c, 0, 67, 0
2, 46920, Note_on_c, 0, 71, 85
2, 46978, Note_on_c, 0, 71, 0
2, 46980, Note_on_c, 0, 69, 85
2, 47038, Note_on_c, 0, 69, 0
2, 47040, Note_on_c, 0, 72, 85
2, 47098, Note_on_c, 0, 72, 0
2, 47100, Note_on_c, 0, 71, 85
2, 47158, Note_on_c, 0, 71, 0
2, 47160, Note_on_c, 0, 69, 85
2, 47218, Note_on_c, 0, 69, 0
2, 47220, Note_on_c, 0, 67, 85
2, 47278, Note_on_c, 0, 67, 0
2, 47280, Note_on_c, 0, 66, 85
2, 47338, Note_on_c, 0, 66, 0
2, 47340, Note_on_c, 0, 64, 85
2, 47398, Note_on_c, 0, 64, 0
2, 47400, Note_on_c, 0, 62, 85
2, 47458, Note_on_c, 0, 62, 0
2, 47460, Note_on_c, 0, 60, 85
2, 47518, Note_on_c, 0, 60, 0
2, 47520, Note_on_c, 0, 59, 85
2, 47578, Note_on_c, 0, 59, 0
2, 47580, Note_on_c, 0, 71, 85
2, 47638, Note_on_c, 0, 71, 0
2, 47640, Note_on_c, 0, 70, 85
2, 47698, Note_on_c, 0, 70, 0
2, 47700, Note_on_c, 0, 71, 85
2, 47758, Note_on_c, 0, 71, 0
2, 47760, Note_on_c, 0, 69, 85
2, 47818, Note_on_c, 0, 69, 0
2, 47820, Note_on_c, 0, 67, 85
2, 47878, Note_on_c, 0, 67, 0
2, 47880, Note_on_c, 0, 66, 85
2, 47938, Note_on_c, 0, 66, 0
2, 47940, Note_on_c, 0, 64, 85
2, 47998, Note_on_c, 0, 64, 0
2, 48000, Note_on_c, 0, 63, 85
2, 48058, Note_on_c, 0, 63, 0
2, 48060, Note_on_c, 0, 64, 85
2, 48118, Note_on_c, 0, 64, 0
2, 48120, Note_on_c, 0, 66, 85
2, 48178, Note_on_c, 0, 66, 0
2, 48180, Note_on_c, 0, 64, 85
2, 48238, Note_on_c, 0, 64, 0
2, 48240, Note_on_c, 0, 67, 85
2, 48298, Note_on_c, 0, 67, 0
2, 48300, Note_on_c, 0, 66, 85
2, 48358, Note_on_c, 0, 66, 0
2, 48360, Note_on_c, 0, 64, 85
2, 48418, Note_on_c, 0, 64, 0
2, 48420, Note_on_c, 0, 62, 85
2, 48478, Note_on_c, 0, 62, 0
2, 48480, Note_on_c, 0, 62, 85
2, 48958, Note_on_c, 0, 62, 0
2, 48960, Note_on_c, 0, 61, 80
2, 49018, Note_on_c, 0, 61, 0
2, 49020, Note_on_c, 0, 57, 78
2, 49078, Note_on_c, 0, 57, 0
2, 49080, Note_on_c, 0, 64, 76
2, 49138, Note_on_c, 0, 64, 0
2, 49140, Note_on_c, 0, 61, 74
2, 49198, Note_on_c, 0, 61, 0
2, 49200, Note_on_c, 0, 67, 72
2, 49258, Note_on_c, 0, 67, 0
2, 49260, Note_on_c, 0, 64, 70
2, 49318, Note_on_c, 0, 64, 0
2, 49320, Note_on_c, 0, 73, 68
2, 49378, Note_on_c, 0, 73, 0
2, 49380, Note_on_c, 0, 67, 66
2, 49438, Note_on_c, 0, 67, 0
2, 49440, Note_on_c, 0, 76, 64
2, 49498, Note_on_c, 0, 76, 0
2, 49500, Note_on_c, 0, 73, 62
2, 49558, Note_on_c, 0, 73, 0
2, 49560, Note_on_c, 0, 79, 60
2, 49618, Note_on_c, 0, 79, 0
2, 49620, Note_on_c, 0, 76, 58
2, 49678, Note_on_c, 0, 76, 0
2, 49680, Note_on_c, 0, 83, 56
2, 49776, Note_on_c, 0, 83, 0
2, 50220, Note_on_c, 0, 82, 48
2, 50268, Note_on_c, 0, 82, 0
2, 50280, Note_on_c, 0, 83, 48
2, 50328, Note_on_c, 0, 83, 0
2, 50340, Note_on_c, 0, 82, 48
2, 50388, Note_on_c, 0, 82, 0
2, 50400, Note_on_c, 0, 83, 48
2, 50484, Note_on_c, 0, 83, 0
2, 50700, Note_on_c, 0, 82, 56
2, 50748, Note_on_c, 0, 82, 0
2, 50760, Note_on_c, 0, 83, 56
2, 50808, Note_on_c, 0, 83, 0
2, 50820, Note_on_c, 0, 82, 56
2, 50868, Note_on_c, 0, 82, 0
2, 50880, Note_on_c, 0, 83, 56
2, 51024, Note_on_c, 0, 83, 0
2, 51180, Note_on_c, 0, 82, 64
2, 51238, Note_on_c, 0, 82, 0
2, 51240, Note_on_c, 0, 83, 64
2, 51298, Note_on_c, 0, 83, 0
2, 51300, Note_on_c, 0, 82, 64
2, 51358, Note_on_c, 0, 82, 0
2, 51360, Note_on_c, 0, 83, 64
2, 51418, Note_on_c, 0, 83, 0
2, 51420, Note_on_c, 0, 85, 66
2, 51478, Note_on_c, 0, 85, 0
2, 51480, Note_on_c, 0, 86, 68
2, 51538, Note_on_c, 0, 86, 0
2, 51540, Note_on_c, 0, 85, 70
2, 51598, Note_on_c, 0, 85, 0
2, 51600, Note_on_c, 0, 83, 72
2, 51658, Note_on_c, 0, 83, 0
2, 51660, Note_on_c, 0, 81, 74
2, 51718, Note_on_c, 0, 81, 0
2, 51720, Note_on_c, 0, 79, 76
2, 51778, Note_on_c, 0, 79, 0
2, 51780, Note_on_c, 0, 78, 78
2, 51838, Note_on_c, 0, 78, 0
2, 51840, Note_on_c, 0, 79, 80
2, 51888, Note_on_c, 0, 79, 0
2, 51900, Note_on_c, 0, 81, 80
2, 51948, Note_on_c, 0, 81, 0
2, 51960, Note_on_c, 0, 83, 80
2, 52008, Note_on_c, 0, 83, 0
2, 52020, Note_on_c, 0, 81, 80
2, 52068, Note_on_c, 0, 81, 0
2, 52080, Note_on_c, 0, 79, 80
2, 52128, Note_on_c, 0, 79, 0
2, 52140, Note_on_c, 0, 78, 80
2, 52188, Note_on_c, 0, 78, 0
2, 52200, Note_on_c, 0, 76, 80
2, 52248, Note_on_c, 0, 76, 0
2, 52260, Note_on_c, 0, 75, 80
2, 52308, Note_on_c, 0, 75, 0
2, 52320, Note_on_c, 0, 76, 85
2, 52378, Note_on_c, 0, 76, 0
2, 52380, Note_on_c, 0, 78, 85
2, 52438, Note_on_c, 0, 78, 0
2, 52440, Note_on_c, 0, 79, 85
2, 52498, Note_on_c, 0, 79, 0
2, 52500, Note_on_c, 0, 78, 85
2, 52558, Note_on_c, 0, 78, 0
2, 52560, Note_on_c, 0, 76, 85
2, 52618, Note_on_c, 0, 76, 0
2, 52620, Note_on_c, 0, 74, 85
2, 52678, Note_on_c, 0, 74, 0
2, 52680, Note_on_c, 0, 73, 85
2, 52738, Note_on_c, 0, 73, 0
2, 52740, Note_on_c, 0, 71, 85
2, 52798, Note_on_c, 0, 71, 0
2, 52800, Note_on_c, 0, 69, 85
2, 52858, Note_on_c, 0, 69, 0
2, 52860, Note_on_c, 0, 71, 85
2, 52918, Note_on_c, 0, 71, 0
2, 52920, Note_on_c, 0, 68, 85
2, 52978, Note_on_c, 0, 68, 0
2, 52980, Note_on_c, 0, 71, 85
2, 53038, Note_on_c, 0, 71, 0
2, 53040, Note_on_c, 0, 69, 85
2, 53098, Note_on_c, 0, 69, 0
2, 53100, Note_on_c, 0, 71, 85
2, 53158, Note_on_c, 0, 71, 0
2, 53160, Note_on_c, 0, 68, 85
2, 53218, Note_on_c, 0, 68, 0
2, 53220, Note_on_c, 0, 71, 85
2, 53278, Note_on_c, 0, 71, 0
2, 53280, Note_on_c, 0, 69, 85
2, 53338, Note_on_c, 0, 69, 0
2, 53340, Note_on_c, 0, 71, 85
2, 53398, Note_on_c, 0, 71, 0
2, 53400, Note_on_c, 0, 68, 85
2, 53458, Note_on_c, 0, 68, 0
2, 53460, Note_on_c, 0, 71, 85
2, 53518, Note_on_c, 0, 71, 0
2, 53520, Note_on_c, 0, 69, 85
2, 53578, Note_on_c, 0, 69, 0
2, 53580, Note_on_c, 0, 71, 85
2, 53638, Note_on_c, 0, 71, 0
2, 53640, Note_on_c, 0, 66, 85
2, 53698, Note_on_c, 0, 66, 0
2, 53700, Note_on_c, 0, 69, 85
2, 53758, Note_on_c, 0, 69, 0
2, 53760, Note_on_c, 0, 67, 85
2, 53818, Note_on_c, 0, 67, 0
2, 53820, Note_on_c, 0, 69, 85
2, 53878, Note_on_c, 0, 69, 0
2, 53880, Note_on_c, 0, 66, 85
2, 53938, Note_on_c, 0, 66, 0
2, 53940, Note_on_c, 0, 69, 85
2, 53998, Note_on_c, 0, 69, 0
2, 54000, Note_on_c, 0, 67, 85
2, 54058, Note_on_c, 0, 67, 0
2, 54060, Note_on_c, 0, 69, 85
2, 54118, Note_on_c, 0, 69, 0
2, 54120, Note_on_c, 0, 66, 85
2, 54178, Note_on_c, 0, 66, 0
2, 54180, Note_on_c, 0, 69, 85
2, 54238, Note_on_c, 0, 69, 0
2, 54240, Note_on_c, 0, 67, 85
2, 54298, Note_on_c, 0, 67, 0
2, 54300, Note_on_c, 0, 69, 85
2, 54358, Note_on_c, 0, 69, 0
2, 54360, Note_on_c, 0, 66, 85
2, 54418, Note_on_c, 0, 66, 0
2, 54420, Note_on_c, 0, 69, 85
2, 54478, Note_on_c, 0, 69, 0
2, 54480, Note_on_c, 0, 67, 85
2, 54538, Note_on_c, 0, 67, 0
2, 54540, Note_on_c, 0, 69, 85
2, 54598, Note_on_c, 0, 69, 0
2, 54600, Note_on_c, 0, 66, 85
2, 54658, Note_on_c, 0, 66, 0
2, 54660, Note_on_c, 0, 69, 85
2, 54718, Note_on_c, 0, 69, 0
2, 54720, Note_on_c, 0, 67, 80
2, 54898, Note_on_c, 0, 67, 0
2, 54900, Note_on_c, 0, 66, 74
2, 54958, Note_on_c, 0, 66, 0
2, 54960, Note_on_c, 0, 67, 72
2, 55138, Note_on_c, 0, 67, 0
2, 55140, Note_on_c, 0, 66, 66
2, 55198, Note_on_c, 0, 66, 0
2, 55200, Note_on_c, 0, 67, 64
2, 55378, Note_on_c, 0, 67, 0
2, 55380, Note_on_c, 0, 66, 58
2, 55438, Note_on_c, 0, 66, 0
2, 55440, Note_on_c, 0, 67, 56
2, 55498, Note_on_c, 0, 67, 0
2, 55500, Note_on_c, 0, 66, 54
2, 55558, Note_on_c, 0, 66, 0
2, 55560, Note_on_c, 0, 67, 52
2, 55618, Note_on_c, 0, 67, 0
2, 55620, Note_on_c, 0, 66, 50
2, 55678, Note_on_c, 0, 66, 0
2, 55680, Note_on_c, 0, 67, 48
2, 55918, Note_on_c, 0, 67, 0
2, 56280, Note_on_c, 0, 69, 48
2, 56310, Note_on_c, 0, 73, 48
2, 56340, Note_on_c, 0, 76, 48
2, 56370, Note_on_c, 0, 79, 48
2, 56398, Note_on_c, 0, 76, 0
2, 56592, Note_on_c, 0, 69, 0
2, 56592, Note_on_c, 0, 73, 0
2, 56592, Note_on_c, 0, 79, 0
2, 57000, Note_on_c, 0, 57, 80
2, 57024, Note_on_c, 0, 57, 0
2, 57030, Note_on_c, 0, 62, 80
2, 57054, Note_on_c, 0, 62, 0
2, 57060, Note_on_c, 0, 66, 80
2, 57084, Note_on_c, 0, 66, 0
2, 57090, Note_on_c, 0, 69, 80
2, 57114, Note_on_c, 0, 69, 0
2, 57120, Note_on_c, 0, 66, 85
2, 57238, Note_on_c, 0, 66, 0
2, 57240, Note_on_c, 0, 62, 85
2, 57358, Note_on_c, 0, 62, 0
2, 57360, Note_on_c, 0, 74, 85
2, 57408, Note_on_c, 0, 74, 0
2, 57480, Note_on_c, 0, 69, 85
2, 57552, Note_on_c, 0, 69, 0
2, 57600, Note_on_c, 0, 71, 80
2, 57624, Note_on_c, 0, 71, 0
2, 57630, Note_on_c, 0, 73, 80
2, 57654, Note_on_c, 0, 73, 0
2, 57660, Note_on_c, 0, 71, 80
2, 57676, Note_on_c, 0, 71, 0
2, 57680, Note_on_c, 0, 73, 80
2, 57696, Note_on_c, 0, 73, 0
2, 57700, Note_on_c, 0, 71, 80
2, 57716, Note_on_c, 0, 71, 0
2, 57720, Note_on_c, 0, 69, 80
2, 57768, Note_on_c, 0, 69, 0
2, 57960, Note_on_c, 0, 57, 80
2, 57984, Note_on_c, 0, 57, 0
2, 57990, Note_on_c, 0, 62, 80
2, 58014, Note_on_c, 0, 62, 0
2, 58020, Note_on_c, 0, 66, 80
2, 58044, Note_on_c, 0, 66, 0
2, 58050, Note_on_c, 0, 69, 80
2, 58074, Note_on_c, 0, 69, 0
2, 58080, Note_on_c, 0, 66, 85
2, 58198, Note_on_c, 0, 66, 0
2, 58200, Note_on_c, 0, 62, 85
2, 58318, Note_on_c, 0, 62, 0
2, 58320, Note_on_c, 0, 81, 85
2, 58320, Note_on_c, 0, 78, 85
2, 58368, Note_on_c, 0, 78, 0
2, 58368, Note_on_c, 0, 81, 0
2, 58440, Note_on_c, 0, 78, 85
2, 58440, Note_on_c, 0, 74, 85
2, 58512, Note_on_c, 0, 74, 0
2, 58512, Note_on_c, 0, 78, 0
2, 58560, Note_on_c, 0, 79, 80
2, 58560, Note_on_c, 0, 76, 80
2, 58584, Note_on_c, 0, 79, 0
2, 58590, Note_on_c, 0, 81, 80
2, 58614, Note_on_c, 0, 81, 0
2, 58620, Note_on_c, 0, 79, 80
2, 58636, Note_on_c, 0, 79, 0
2, 58640, Note_on_c, 0, 81, 80
2, 58656, Note_on_c, 0, 81, 0
2, 58660, Note_on_c, 0, 79, 80
2, 58676, Note_on_c, 0, 79, 0
2, 58676, Note_on_c, 0, 76, 0
2, 58680, Note_on_c, 0, 78, 80
2, 58728, Note_on_c, 0, 78, 0
2, 58920, Note_on_c, 0, 74, 80
2, 58944, Note_on_c, 0, 74, 0
2, 58950, Note_on_c, 0, 78, 80
2, 58974, Note_on_c, 0, 78, 0
2, 58980, Note_on_c, 0, 81, 80
2, 59004, Note_on_c, 0, 81, 0
2, 59010, Note_on_c, 0, 86, 80
2, 59034, Note_on_c, 0, 86, 0
2, 59040, Note_on_c, 0, 72, 85
2, 59398, Note_on_c, 0, 72, 0
2, 59400, Note_on_c, 0, 84, 85
2, 59428, Note_on_c, 0, 84, 0
2, 59430, Note_on_c, 0, 81, 85
2, 59458, Note_on_c, 0, 81, 0
2, 59460, Note_on_c, 0, 78, 85
2, 59488, Note_on_c, 0, 78, 0
2, 59490, Note_on_c, 0, 72, 85
2, 59518, Note_on_c, 0, 72, 0
2, 59520, Note_on_c, 0, 71, 85
2, 59878, Note_on_c, 0, 71, 0
2, 59880, Note_on_c, 0, 71, 85
2, 59908, Note_on_c, 0, 71, 0
2, 59910, Note_on_c, 0, 74, 85
2, 59938, Note_on_c, 0, 74, 0
2, 59940, Note_on_c, 0, 79, 85
2, 59968, Note_on_c, 0, 79, 0
2, 59970, Note_on_c, 0, 83, 85
2, 59998, Note_on_c, 0, 83, 0
2, 60000, Note_on_c, 0, 81, 85
2, 60000, Note_on_c, 0, 78, 85
2, 60118, Note_on_c, 0, 78, 0
2, 60118, Note_on_c, 0, 81, 0
2, 60120, Note_on_c, 0, 78, 85
2, 60120, Note_on_c, 0, 74, 85
2, 60192, Note_on_c, 0, 74, 0
2, 60192, Note_on_c, 0, 78, 0
2, 60240, Note_on_c, 0, 79, 85
2, 60240, Note_on_c, 0, 76, 85
2, 60312, Note_on_c, 0, 76, 0
2, 60312, Note_on_c, 0, 79, 0
2, 60360, Note_on_c, 0, 76, 85
2, 60360, Note_on_c, 0, 73, 85
2, 60432, Note_on_c, 0, 73, 0
2, 60432, Note_on_c, 0, 76, 0
2, 60480, Note_on_c, 0, 76, 85
2, 60480, Note_on_c, 0, 73, 85
2, 60718, Note_on_c, 0, 73, 0
2, 60718, Note_on_c, 0, 76, 0
2, 60720, Note_on_c, 0, 78, 85
2, 60720, Note_on_c, 0, 74, 85
2, 60768, Note_on_c, 0, 74, 0
2, 60768, Note_on_c, 0, 78, 0
2, 60840, Note_on_c, 0, 74, 85
2, 60868, Note_on_c, 0, 74, 0
2, 60870, Note_on_c, 0, 78, 85
2, 60898, Note_on_c, 0, 78, 0
2, 60900, Note_on_c, 0, 81, 85
2, 60928, Note_on_c, 0, 81, 0
2, 60930, Note_on_c, 0, 86, 85
2, 60958, Note_on_c, 0, 86, 0
2, 60960, Note_on_c, 0, 72, 85
2, 61318, Note_on_c, 0, 72, 0
2, 61320, Note_on_c, 0, 84, 85
2, 61348, Note_on_c, 0, 84, 0
2, 61350, Note_on_c, 0, 81, 85
2, 61378, Note_on_c, 0, 81, 0
2, 61380, Note_on_c, 0, 78, 85
2, 61408, Note_on_c, 0, 78, 0
2, 61410, Note_on_c, 0, 72, 85
2, 61438, Note_on_c, 0, 72, 0
2, 61440, Note_on_c, 0, 71, 85
2, 61798, Note_on_c, 0, 71, 0
2, 61800, Note_on_c, 0, 83, 85
2, 61838, Note_on_c, 0, 83, 0
2, 61840, Note_on_c, 0, 85, 85
2, 61878, Note_on_c, 0, 85, 0
2, 61880, Note_on_c, 0, 86, 85
2, 61918, Note_on_c, 0, 86, 0
2, 61920, Note_on_c, 0, 85, 85
2, 61958, Note_on_c, 0, 85, 0
2, 61960, Note_on_c, 0, 83, 85
2, 61998, Note_on_c, 0, 83, 0
2, 62000, Note_on_c, 0, 81, 85
2, 62038, Note_on_c, 0, 81, 0
2, 62040, Note_on_c, 0, 79, 85
2, 62078, Note_on_c, 0, 79, 0
2, 62080, Note_on_c, 0, 78, 85
2, 62118, Note_on_c, 0, 78, 0
2, 62120, Note_on_c, 0, 76, 85
2, 62158, Note_on_c, 0, 76, 0
2, 62160, Note_on_c, 0, 74, 85
2, 62198, Note_on_c, 0, 74, 0
2, 62200, Note_on_c, 0, 73, 85
2, 62238, Note_on_c, 0, 73, 0
2, 62240, Note_on_c, 0, 71, 85
2, 62278, Note_on_c, 0, 71, 0
2, 62280, Note_on_c, 0, 69, 85
2, 62308, Note_on_c, 0, 69, 0
2, 62310, Note_on_c, 0, 67, 85
2, 62338, Note_on_c, 0, 67, 0
2, 62340, Note_on_c, 0, 66, 85
2, 62368, Note_on_c, 0, 66, 0
2, 62370, Note_on_c, 0, 64, 85
2, 62398, Note_on_c, 0, 64, 0
2, 62400, Note_on_c, 0, 62, 85
2, 62638, Note_on_c, 0, 62, 0
2, 62760, Note_on_c, 0, 57, 64
2, 62878, Note_on_c, 0, 57, 0
2, 62880, Note_on_c, 0, 62, 64
2, 62938, Note_on_c, 0, 62, 0
2, 62940, Note_on_c, 0, 61, 66
2, 62998, Note_on_c, 0, 61, 0
2, 63000, Note_on_c, 0, 64, 68
2, 63058, Note_on_c, 0, 64, 0
2, 63060, Note_on_c, 0, 62, 70
2, 63118, Note_on_c, 0, 62, 0
2, 63120, Note_on_c, 0, 66, 72
2, 63178, Note_on_c, 0, 66, 0
2, 63180, Note_on_c, 0, 64, 74
2, 63238, Note_on_c, 0, 64, 0
2, 63240, Note_on_c, 0, 67, 76
2, 63298, Note_on_c, 0, 67, 0
2, 63300, Note_on_c, 0, 66, 78
2, 63358, Note_on_c, 0, 66, 0
2, 63360, Note_on_c, 0, 62, 85
2, 63360, Note_on_c, 0, 66, 85
2, 63598, Note_on_c, 0, 66, 0
2, 63598, Note_on_c, 0, 62, 0
2, 63600, Note_on_c, 0, 61, 64
2, 63600, Note_on_c, 0, 64, 64
2, 63648, Note_on_c, 0, 64, 0
2, 63648, Note_on_c, 0, 61, 0
2, 63720, Note_on_c, 0, 57, 64
2, 63838, Note_on_c, 0, 57, 0
2, 63840, Note_on_c, 0, 64, 64
2, 63898, Note_on_c, 0, 64, 0
2, 63900, Note_on_c, 0, 63, 66
2, 63958, Note_on_c, 0, 63, 0
2, 63960, Note_on_c, 0, 66, 68
2, 64018, Note_on_c, 0, 66, 0
2, 64020, Note_on_c, 0, 64, 70
2, 64078, Note_on_c, 0, 64, 0
2, 64080, Note_on_c, 0, 67, 72
2, 64138, Note_on_c, 0, 67, 0
2, 64140, Note_on_c, 0, 66, 74
2, 64198, Note_on_c, 0, 66, 0
2, 64200, Note_on_c, 0, 69, 76
2, 64258, Note_on_c, 0, 69, 0
2, 64260, Note_on_c, 0, 67, 78
2, 64318, Note_on_c, 0, 67, 0
2, 64320, Note_on_c, 0, 64, 85
2, 64320, Note_on_c, 0, 67, 85
2, 64558, Note_on_c, 0, 67, 0
2, 64558, Note_on_c, 0, 64, 0
2, 64560, Note_on_c, 0, 62, 64
2, 64560, Note_on_c, 0, 66, 64
2, 64608, Note_on_c, 0, 66, 0
2, 64608, Note_on_c, 0, 62, 0
2, 64680, Note_on_c, 0, 62, 64
2, 64798, Note_on_c, 0, 62, 0
2, 64800, Note_on_c, 0, 67, 64
2, 64858, Note_on_c, 0, 67, 0
2, 64860, Note_on_c, 0, 66, 66
2, 64918, Note_on_c, 0, 66, 0
2, 64920, Note_on_c, 0, 69, 68
2, 64978, Note_on_c, 0, 69, 0
2, 64980, Note_on_c, 0, 67, 70
2, 65038, Note_on_c, 0, 67, 0
2, 65040, Note_on_c, 0, 71, 72
2, 65098, Note_on_c, 0, 71, 0
2, 65100, Note_on_c, 0, 69, 74
2, 65158, Note_on_c, 0, 69, 0
2, 65160, Note_on_c, 0, 72, 76
2, 65218, Note_on_c, 0, 72, 0
2, 65220, Note_on_c, 0, 71, 78
2, 65278, Note_on_c, 0, 71, 0
2, 65280, Note_on_c, 0, 71, 85
2, 65398, Note_on_c, 0, 71, 0
2, 65400, Note_on_c, 0, 71, 85
2, 65458, Note_on_c, 0, 71, 0
2, 65460, Note_on_c, 0, 74, 85
2, 65518, Note_on_c, 0, 74, 0
2, 65520, Note_on_c, 0, 69, 85
2, 65758, Note_on_c, 0, 69, 0
2, 65760, Note_on_c, 0, 67, 80
2, 65808, Note_on_c, 0, 67, 0
2, 65820, Note_on_c, 0, 69, 80
2, 65836, Note_on_c, 0, 69, 0
2, 65840, Note_on_c, 0, 67, 80
2, 65856, Note_on_c, 0, 67, 0
2, 65860, Note_on_c, 0, 66, 80
2, 65876, Note_on_c, 0, 66, 0
2, 65880, Note_on_c, 0, 67, 80
2, 65928, Note_on_c, 0, 67, 0
2, 65940, Note_on_c, 0, 71, 80
2, 65988, Note_on_c, 0, 71, 0
2, 66000, Note_on_c, 0, 66, 80
2, 66096, Note_on_c, 0, 66, 0
2, 66240, Note_on_c, 0, 71, 56
2, 66288, Note_on_c, 0, 71, 0
2, 66300, Note_on_c, 0, 73, 56
2, 66316, Note_on_c, 0, 73, 0
2, 66320, Note_on_c, 0, 71, 56
2, 66336, Note_on_c, 0, 71, 0
2, 66340, Note_on_c, 0, 69, 56
2, 66356, Note_on_c, 0, 69, 0
2, 66360, Note_on_c, 0, 71, 56
2, 66408, Note_on_c, 0, 71, 0
2, 66420, Note_on_c, 0, 74, 56
2, 66468, Note_on_c, 0, 74, 0
2, 66480, Note_on_c, 0, 69, 56
2, 66576, Note_on_c, 0, 69, 0
2, 66720, Note_on_c, 0, 67, 56
2, 66768, Note_on_c, 0, 67, 0
2, 66780, Note_on_c, 0, 69, 56
2, 66796, Note_on_c, 0, 69, 0
2, 66800, Note_on_c, 0, 67, 56
2, 66816, Note_on_c, 0, 67, 0
2, 66820, Note_on_c, 0, 66, 56
2, 66836, Note_on_c, 0, 66, 0
2, 66840, Note_on_c, 0, 67, 56
2, 66888, Note_on_c, 0, 67, 0
2, 66900, Note_on_c, 0, 71, 56
2, 66948, Note_on_c, 0, 71, 0
2, 66960, Note_on_c, 0, 66, 56
2, 67056, Note_on_c, 0, 66, 0
2, 67200, Note_on_c, 0, 63, 56
2, 67258, Note_on_c, 0, 63, 0
2, 67260, Note_on_c, 0, 64, 59
2, 67284, Note_on_c, 0, 64, 0
2, 67320, Note_on_c, 0, 66, 62
2, 67344, Note_on_c, 0, 66, 0
2, 67380, Note_on_c, 0, 67, 65
2, 67404, Note_on_c, 0, 67, 0
2, 67440, Note_on_c, 0, 69, 68
2, 67498, Note_on_c, 0, 69, 0
2, 67500, Note_on_c, 0, 71, 71
2, 67558, Note_on_c, 0, 71, 0
2, 67560, Note_on_c, 0, 67, 74
2, 67618, Note_on_c, 0, 67, 0
2, 67620, Note_on_c, 0, 64, 77
2, 67678, Note_on_c, 0, 64, 0
2, 67680, Note_on_c, 0, 62, 85
2, 68158, Note_on_c, 0, 62, 0
2, 68160, Note_on_c, 0, 61, 68
2, 68278, Note_on_c, 0, 61, 0
2, 68520, Note_on_c, 0, 57, 85
2, 68548, Note_on_c, 0, 57, 0
2, 68550, Note_on_c, 0, 61, 85
2, 68578, Note_on_c, 0, 61, 0
2, 68580, Note_on_c, 0, 64, 85
2, 68608, Note_on_c, 0, 64, 0
2, 68610, Note_on_c, 0, 67, 85
2, 68638, Note_on_c, 0, 67, 0
2, 68640, Note_on_c, 0, 64, 85
2, 68688, Note_on_c, 0, 64, 0
2, 68760, Note_on_c, 0, 64, 85
2, 68788, Note_on_c, 0, 64, 0
2, 68790, Note_on_c, 0, 67, 85
2, 68818, Note_on_c, 0, 67, 0
2, 68820, Note_on_c, 0, 73, 85
2, 68848, Note_on_c, 0, 73, 0
2, 68850, Note_on_c, 0, 76, 85
2, 68878, Note_on_c, 0, 76, 0
2, 68880, Note_on_c, 0, 73, 85
2, 68928, Note_on_c, 0, 73, 0
2, 69000, Note_on_c, 0, 67, 85
2, 69028, Note_on_c, 0, 67, 0
2, 69030, Note_on_c, 0, 73, 85
2, 69058, Note_on_c, 0, 73, 0
2, 69060, Note_on_c, 0, 76, 85
2, 69088, Note_on_c, 0, 76, 0
2, 69090, Note_on_c, 0, 79, 85
2, 69118, Note_on_c, 0, 79, 0
2, 69120, Note_on_c, 0, 76, 85
2, 69238, Note_on_c, 0, 76, 0
2, 69480, Note_on_c, 0, 67, 85
2, 69508, Note_on_c, 0, 67, 0
2, 69510, Note_on_c, 0, 64, 85
2, 69538, Note_on_c, 0, 64, 0
2, 69540, Note_on_c, 0, 61, 85
2, 69568, Note_on_c, 0, 61, 0
2, 69570, Note_on_c, 0, 57, 85
2, 69598, Note_on_c, 0, 57, 0
2, 69600, Note_on_c, 0, 55, 85
2, 70078, Note_on_c, 0, 55, 0
2, 70080, Note_on_c, 0, 54, 85
2, 70138, Note_on_c, 0, 54, 0
2, 70140, Note_on_c, 0, 62, 85
2, 70198, Note_on_c, 0, 62, 0
2, 70200, Note_on_c, 0, 61, 85
2, 70258, Note_on_c, 0, 61, 0
2, 70260, Note_on_c, 0, 62, 85
2, 70318, Note_on_c, 0, 62, 0
2, 70320, Note_on_c, 0, 64, 85
2, 70378, Note_on_c, 0, 64, 0
2, 70380, Note_on_c, 0, 62, 85
2, 70438, Note_on_c, 0, 62, 0
2, 70440, Note_on_c, 0, 61, 85
2, 70498, Note_on_c, 0, 61, 0
2, 70500, Note_on_c, 0, 62, 85
2, 70558, Note_on_c, 0, 62, 0
2, 70560, Note_on_c, 0, 60, 85
2, 71038, Note_on_c, 0, 60, 0
2, 71040, Note_on_c, 0, 59, 85
2, 71098, Note_on_c, 0, 59, 0
2, 71100, Note_on_c, 0, 64, 85
2, 71158, Note_on_c, 0, 64, 0
2, 71160, Note_on_c, 0, 63, 85
2, 71218, Note_on_c, 0, 63, 0
2, 71220, Note_on_c, 0, 64, 85
2, 71278, Note_on_c, 0, 64, 0
2, 71280, Note_on_c, 0, 66, 85
2, 71338, Note_on_c, 0, 66, 0
2, 71340, Note_on_c, 0, 64, 85
2, 71398, Note_on_c, 0, 64, 0
2, 71400, Note_on_c, 0, 63, 85
2, 71458, Note_on_c, 0, 63, 0
2, 71460, Note_on_c, 0, 64, 85
2, 71518, Note_on_c, 0, 64, 0
2, 71520, Note_on_c, 0, 62, 85
2, 71998, Note_on_c, 0, 62, 0
2, 72000, Note_on_c, 0, 61, 80
2, 72058, Note_on_c, 0, 61, 0
2, 72060, Note_on_c, 0, 69, 78
2, 72118, Note_on_c, 0, 69, 0
2, 72120, Note_on_c, 0, 68, 76
2, 72178, Note_on_c, 0, 68, 0
2, 72180, Note_on_c, 0, 69, 74
2, 72238, Note_on_c, 0, 69, 0
2, 72240, Note_on_c, 0, 71, 72
2, 72298, Note_on_c, 0, 71, 0
2, 72300, Note_on_c, 0, 69, 70
2, 72358, Note_on_c, 0, 69, 0
2, 72360, Note_on_c, 0, 68, 68
2, 72418, Note_on_c, 0, 68, 0
2, 72420, Note_on_c, 0, 69, 66
2, 72478, Note_on_c, 0, 69, 0
2, 72480, Note_on_c, 0, 68, 64
2, 72598, Note_on_c, 0, 68, 0
2, 72600, Note_on_c, 0, 74, 68
2, 72718, Note_on_c, 0, 74, 0
2, 72840, Note_on_c, 0, 68, 76
2, 72958, Note_on_c, 0, 68, 0
2, 72960, Note_on_c, 0, 69, 80
2, 73008, Note_on_c, 0, 69, 0
2, 73080, Note_on_c, 0, 69, 64
2, 73138, Note_on_c, 0, 69, 0
2, 73140, Note_on_c, 0, 76, 64
2, 73198, Note_on_c, 0, 76, 0
2, 73200, Note_on_c, 0, 69, 64
2, 73248, Note_on_c, 0, 69, 0
2, 73320, Note_on_c, 0, 69, 64
2, 73438, Note_on_c, 0, 69, 0
2, 73440, Note_on_c, 0, 68, 64
2, 73558, Note_on_c, 0, 68, 0
2, 73560, Note_on_c, 0, 74, 68
2, 73678, Note_on_c, 0, 74, 0
2, 73800, Note_on_c, 0, 68, 76
2, 73918, Note_on_c, 0, 68, 0
2, 73920, Note_on_c, 0, 69, 85
2, 73968, Note_on_c, 0, 69, 0
2, 74040, Note_on_c, 0, 69, 64
2, 74098, Note_on_c, 0, 69, 0
2, 74100, Note_on_c, 0, 76, 64
2, 74158, Note_on_c, 0, 76, 0
2, 74160, Note_on_c, 0, 69, 64
2, 74232, Note_on_c, 0, 69, 0
2, 74250, Note_on_c, 0, 67, 64
2, 74274, Note_on_c, 0, 67, 0
2, 74280, Note_on_c, 0, 69, 64
2, 74304, Note_on_c, 0, 69, 0
2, 74310, Note_on_c, 0, 67, 64
2, 74334, Note_on_c, 0, 67, 0
2, 74340, Note_on_c, 0, 66, 64
2, 74364, Note_on_c, 0, 66, 0
2, 74370, Note_on_c, 0, 67, 64
2, 74394, Note_on_c, 0, 67, 0
2, 74400, Note_on_c, 0, 66, 64
2, 74518, Note_on_c, 0, 66, 0
2, 74520, Note_on_c, 0, 81, 64
2, 74604, Note_on_c, 0, 81, 0
2, 74760, Note_on_c, 0, 74, 64
2, 74878, Note_on_c, 0, 74, 0
2, 74880, Note_on_c, 0, 73, 64
2, 74928, Note_on_c, 0, 73, 0
2, 75000, Note_on_c, 0, 73, 64
2, 75058, Note_on_c, 0, 73, 0
2, 75060, Note_on_c, 0, 81, 64
2, 75118, Note_on_c, 0, 81, 0
2, 75120, Note_on_c, 0, 73, 64
2, 75168, Note_on_c, 0, 73, 0
2, 75240, Note_on_c, 0, 73, 64
2, 75358, Note_on_c, 0, 73, 0
2, 75360, Note_on_c, 0, 74, 64
2, 75408, Note_on_c, 0, 74, 0
2, 75480, Note_on_c, 0, 74, 66
2, 75538, Note_on_c, 0, 74, 0
2, 75540, Note_on_c, 0, 81, 67
2, 75598, Note_on_c, 0, 81, 0
2, 75600, Note_on_c, 0, 74, 68
2, 75648, Note_on_c, 0, 74, 0
2, 75720, Note_on_c, 0, 74, 70
2, 75838, Note_on_c, 0, 74, 0
2, 75840, Note_on_c, 0, 76, 72
2, 75888, Note_on_c, 0, 76, 0
2, 75960, Note_on_c, 0, 76, 74
2, 76018, Note_on_c, 0, 76, 0
2, 76020, Note_on_c, 0, 81, 75
2, 76078, Note_on_c, 0, 81, 0
2, 76080, Note_on_c, 0, 76, 76
2, 76152, Note_on_c, 0, 76, 0
2, 76200, Note_on_c, 0, 79, 78
2, 76318, Note_on_c, 0, 79, 0
2, 76320, Note_on_c, 0, 78, 85
2, 76378, Note_on_c, 0, 78, 0
2, 76380, Note_on_c, 0, 79, 85
2, 76438, Note_on_c, 0, 79, 0
2, 76440, Note_on_c, 0, 81, 85
2, 76498, Note_on_c, 0, 81, 0
2, 76500, Note_on_c, 0, 78, 85
2, 76558, Note_on_c, 0, 78, 0
2, 76560, Note_on_c, 0, 76, 85
2, 76618, Note_on_c, 0, 76, 0
2, 76620, Note_on_c, 0, 74, 85
2, 76678, Note_on_c, 0, 74, 0
2, 76680, Note_on_c, 0, 73, 85
2, 76738, Note_on_c, 0, 73, 0
2, 76740, Note_on_c, 0, 71, 85
2, 76798, Note_on_c, 0, 71, 0
2, 76800, Note_on_c, 0, 69, 85
2, 76858, Note_on_c, 0, 69, 0
2, 76860, Note_on_c, 0, 68, 85
2, 76918, Note_on_c, 0, 68, 0
2, 76920, Note_on_c, 0, 69, 85
2, 76978, Note_on_c, 0, 69, 0
2, 76980, Note_on_c, 0, 71, 85
2, 77038, Note_on_c, 0, 71, 0
2, 77040, Note_on_c, 0, 69, 85
2, 77098, Note_on_c, 0, 69, 0
2, 77100, Note_on_c, 0, 67, 85
2, 77158, Note_on_c, 0, 67, 0
2, 77160, Note_on_c, 0, 66, 85
2, 77218, Note_on_c, 0, 66, 0
2, 77220, Note_on_c, 0, 64, 85
2, 77278, Note_on_c, 0, 64, 0
2, 77280, Note_on_c, 0, 66, 85
2, 77338, Note_on_c, 0, 66, 0
2, 77340, Note_on_c, 0, 67, 85
2, 77398, Note_on_c, 0, 67, 0
2, 77400, Note_on_c, 0, 69, 85
2, 77458, Note_on_c, 0, 69, 0
2, 77460, Note_on_c, 0, 66, 85
2, 77518, Note_on_c, 0, 66, 0
2, 77520, Note_on_c, 0, 64, 85
2, 77578, Note_on_c, 0, 64, 0
2, 77580, Note_on_c, 0, 62, 85
2, 77638, Note_on_c, 0, 62, 0
2, 77640, Note_on_c, 0, 61, 85
2, 77698, Note_on_c, 0, 61, 0
2, 77700, Note_on_c, 0, 59, 85
2, 77758, Note_on_c, 0, 59, 0
2, 78240, Note_on_c, 0, 78, 85
2, 78298, Note_on_c, 0, 78, 0
2, 78300, Note_on_c, 0, 79, 85
2, 78358, Note_on_c, 0, 79, 0
2, 78360, Note_on_c, 0, 81, 85
2, 78418, Note_on_c, 0, 81, 0
2, 78420, Note_on_c, 0, 78, 85
2, 78478, Note_on_c, 0, 78, 0
2, 78480, Note_on_c, 0, 76, 85
2, 78538, Note_on_c, 0, 76, 0
2, 78540, Note_on_c, 0, 74, 85
2, 78598, Note_on_c, 0, 74, 0
2, 78600, Note_on_c, 0, 73, 85
2, 78658, Note_on_c, 0, 73, 0
2, 78660, Note_on_c, 0, 74, 85
2, 78718, Note_on_c, 0, 74, 0
2, 78720, Note_on_c, 0, 83, 85
2, 78778, Note_on_c, 0, 83, 0
2, 78780, Note_on_c, 0, 85, 85
2, 78838, Note_on_c, 0, 85, 0
2, 78840, Note_on_c, 0, 86, 85
2, 78898, Note_on_c, 0, 86, 0
2, 78900, Note_on_c, 0, 83, 85
2, 78958, Note_on_c, 0, 83, 0
2, 78960, Note_on_c, 0, 81, 85
2, 79018, Note_on_c, 0, 81, 0
2, 79020, Note_on_c, 0, 79, 85
2, 79078, Note_on_c, 0, 79, 0
2, 79080, Note_on_c, 0, 78, 85
2, 79138, Note_on_c, 0, 78, 0
2, 79140, Note_on_c, 0, 76, 85
2, 79198, Note_on_c, 0, 76, 0
2, 79200, Note_on_c, 0, 75, 80
2, 79258, Note_on_c, 0, 75, 0
2, 79260, Note_on_c, 0, 76, 76
2, 79318, Note_on_c, 0, 76, 0
2, 79320, Note_on_c, 0, 78, 72
2, 79378, Note_on_c, 0, 78, 0
2, 79380, Note_on_c, 0, 76, 68
2, 79438, Note_on_c, 0, 76, 0
2, 79440, Note_on_c, 0, 79, 64
2, 79498, Note_on_c, 0, 79, 0
2, 79500, Note_on_c, 0, 78, 60
2, 79558, Note_on_c, 0, 78, 0
2, 79560, Note_on_c, 0, 81, 56
2, 79618, Note_on_c, 0, 81, 0
2, 79620, Note_on_c, 0, 79, 52
2, 79678, Note_on_c, 0, 79, 0
2, 79680, Note_on_c, 0, 83, 48
2, 79798, Note_on_c, 0, 83, 0
2, 79920, Note_on_c, 0, 81, 85
2, 79978, Note_on_c, 0, 81, 0
2, 79980, Note_on_c, 0, 79, 85
2, 80038, Note_on_c, 0, 79, 0
2, 80040, Note_on_c, 0, 78, 85
2, 80098, Note_on_c, 0, 78, 0
2, 80100, Note_on_c, 0, 76, 85
2, 80158, Note_on_c, 0, 76, 0
2, 80160, Note_on_c, 0, 74, 85
2, 80398, Note_on_c, 0, 74, 0
2, 80400, Note_on_c, 0, 76, 68
2, 80424, Note_on_c, 0, 76, 0
2, 80430, Note_on_c, 0, 78, 69
2, 80454, Note_on_c, 0, 78, 0
2, 80460, Note_on_c, 0, 76, 71
2, 80484, Note_on_c, 0, 76, 0
2, 80490, Note_on_c, 0, 78, 72
2, 80514, Note_on_c, 0, 78, 0
2, 80520, Note_on_c, 0, 76, 74
2, 80536, Note_on_c, 0, 76, 0
2, 80540, Note_on_c, 0, 78, 75
2, 80556, Note_on_c, 0, 78, 0
2, 80560, Note_on_c, 0, 76, 76
2, 80576, Note_on_c, 0, 76, 0
2, 80580, Note_on_c, 0, 74, 77
2, 80604, Note_on_c, 0, 74, 0
2, 80610, Note_on_c, 0, 76, 79
2, 80634, Note_on_c, 0, 76, 0
2, 80640, Note_on_c, 0, 78, 85
2, 80698, Note_on_c, 0, 78, 0
2, 80700, Note_on_c, 0, 79, 85
2, 80758, Note_on_c, 0, 79, 0
2, 80760, Note_on_c, 0, 81, 85
2, 80818, Note_on_c, 0, 81, 0
2, 80820, Note_on_c, 0, 78, 85
2, 80878, Note_on_c, 0, 78, 0
2, 80880, Note_on_c, 0, 76, 85
2, 80938, Note_on_c, 0, 76, 0
2, 80940, Note_on_c, 0, 74, 85
2, 80998, Note_on_c, 0, 74, 0
2, 81000, Note_on_c, 0, 73, 85
2, 81058, Note_on_c, 0, 73, 0
2, 81060, Note_on_c, 0, 74, 85
2, 81118, Note_on_c, 0, 74, 0
2, 81120, Note_on_c, 0, 83, 85
2, 81178, Note_on_c, 0, 83, 0
2, 81180, Note_on_c, 0, 85, 85
2, 81238, Note_on_c, 0, 85, 0
2, 81240, Note_on_c, 0, 86, 85
2, 81298, Note_on_c, 0, 86, 0
2, 81300, Note_on_c, 0, 85, 85
2, 81358, Note_on_c, 0, 85, 0
2, 81360, Note_on_c, 0, 83, 85
2, 81418, Note_on_c, 0, 83, 0
2, 81420, Note_on_c, 0, 81, 85
2, 81478, Note_on_c, 0, 81, 0
2, 81480, Note_on_c, 0, 79, 85
2, 81538, Note_on_c, 0, 79, 0
2, 81540, Note_on_c, 0, 78, 85
2, 81598, Note_on_c, 0, 78, 0
2, 81600, Note_on_c, 0, 76, 85
2, 81658, Note_on_c, 0, 76, 0
2, 81660, Note_on_c, 0, 78, 85
2, 81718, Note_on_c, 0, 78, 0
2, 81720, Note_on_c, 0, 79, 85
2, 81778, Note_on_c, 0, 79, 0
2, 81780, Note_on_c, 0, 76, 85
2, 81838, Note_on_c, 0, 76, 0
2, 81840, Note_on_c, 0, 74, 85
2, 81898, Note_on_c, 0, 74, 0
2, 81900, Note_on_c, 0, 73, 85
2, 81958, Note_on_c, 0, 73, 0
2, 81960, Note_on_c, 0, 71, 85
2, 82018, Note_on_c, 0, 71, 0
2, 82020, Note_on_c, 0, 73, 85
2, 82078, Note_on_c, 0, 73, 0
2, 82080, Note_on_c, 0, 81, 85
2, 82138, Note_on_c, 0, 81, 0
2, 82140, Note_on_c, 0, 83, 85
2, 82198, Note_on_c, 0, 83, 0
2, 82200, Note_on_c, 0, 85, 85
2, 82258, Note_on_c, 0, 85, 0
2, 82260, Note_on_c, 0, 83, 85
2, 82318, Note_on_c, 0, 83, 0
2, 82320, Note_on_c, 0, 81, 85
2, 82378, Note_on_c, 0, 81, 0
2, 82380, Note_on_c, 0, 79, 85
2, 82438, Note_on_c, 0, 79, 0
2, 82440, Note_on_c, 0, 78, 85
2, 82498, Note_on_c, 0, 78, 0
2, 82500, Note_on_c, 0, 76, 85
2, 82558, Note_on_c, 0, 76, 0
2, 82560, Note_on_c, 0, 74, 85
2, 82618, Note_on_c, 0, 74, 0
2, 82620, Note_on_c, 0, 76, 85
2, 82678, Note_on_c, 0, 76, 0
2, 82680, Note_on_c, 0, 78, 85
2, 82738, Note_on_c, 0, 78, 0
2, 82740, Note_on_c, 0, 74, 85
2, 82798, Note_on_c, 0, 74, 0
2, 82800, Note_on_c, 0, 73, 85
2, 82858, Note_on_c, 0, 73, 0
2, 82860, Note_on_c, 0, 71, 85
2, 82918, Note_on_c, 0, 71, 0
2, 82920, Note_on_c, 0, 70, 85
2, 82978, Note_on_c, 0, 70, 0
2, 82980, Note_on_c, 0, 71, 85
2, 83038, Note_on_c, 0, 71, 0
2, 83040, Note_on_c, 0, 79, 85
2, 83098, Note_on_c, 0, 79, 0
2, 83100, Note_on_c, 0, 81, 85
2, 83158, Note_on_c, 0, 81, 0
2, 83160, Note_on_c, 0, 83, 85
2, 83218, Note_on_c, 0, 83, 0
2, 83220, Note_on_c, 0, 81, 85
2, 83278, Note_on_c, 0, 81, 0
2, 83280, Note_on_c, 0, 79, 85
2, 83338, Note_on_c, 0, 79, 0
2, 83340, Note_on_c, 0, 78, 85
2, 83398, Note_on_c, 0, 78, 0
2, 83400, Note_on_c, 0, 76, 85
2, 83458, Note_on_c, 0, 76, 0
2, 83460, Note_on_c, 0, 74, 85
2, 83518, Note_on_c, 0, 74, 0
2, 83520, Note_on_c, 0, 73, 85
2, 83578, Note_on_c, 0, 73, 0
2, 83580, Note_on_c, 0, 74, 85
2, 83638, Note_on_c, 0, 74, 0
2, 83640, Note_on_c, 0, 76, 85
2, 83698, Note_on_c, 0, 76, 0
2, 83700, Note_on_c, 0, 74, 85
2, 83758, Note_on_c, 0, 74, 0
2, 83760, Note_on_c, 0, 73, 85
2, 83818, Note_on_c, 0, 73, 0
2, 83820, Note_on_c, 0, 71, 85
2, 83878, Note_on_c, 0, 71, 0
2, 83880, Note_on_c, 0, 69, 85
2, 83938, Note_on_c, 0, 69, 0
2, 83940, Note_on_c, 0, 67, 85
2, 83998, Note_on_c, 0, 67, 0
2, 84000, Note_on_c, 0, 66, 85
2, 84058, Note_on_c, 0, 66, 0
2, 84060, Note_on_c, 0, 67, 85
2, 84118, Note_on_c, 0, 67, 0
2, 84120, Note_on_c, 0, 69, 85
2, 84178, Note_on_c, 0, 69, 0
2, 84180, Note_on_c, 0, 66, 85
2, 84238, Note_on_c, 0, 66, 0
2, 84240, Note_on_c, 0, 64, 85
2, 84298, Note_on_c, 0, 64, 0
2, 84300, Note_on_c, 0, 62, 85
2, 84358, Note_on_c, 0, 62, 0
2, 84360, Note_on_c, 0, 61, 85
2, 84418, Note_on_c, 0, 61, 0
2, 84420, Note_on_c, 0, 62, 85
2, 84478, Note_on_c, 0, 62, 0
2, 84480, Note_on_c, 0, 71, 85
2, 84538, Note_on_c, 0, 71, 0
2, 84540, Note_on_c, 0, 73, 85
2, 84598, Note_on_c, 0, 73, 0
2, 84600, Note_on_c, 0, 74, 85
2, 84658, Note_on_c, 0, 74, 0
2, 84660, Note_on_c, 0, 71, 85
2, 84718, Note_on_c, 0, 71, 0
2, 84720, Note_on_c, 0, 69, 85
2, 84778, Note_on_c, 0, 69, 0
2, 84780, Note_on_c, 0, 67, 85
2, 84838, Note_on_c, 0, 67, 0
2, 84840, Note_on_c, 0, 66, 85
2, 84898, Note_on_c, 0, 66, 0
2, 84900, Note_on_c, 0, 64, 85
2, 84958, Note_on_c, 0, 64, 0
2, 84960, Note_on_c, 0, 63, 80
2, 85018, Note_on_c, 0, 63, 0
2, 85020, Note_on_c, 0, 64, 76
2, 85078, Note_on_c, 0, 64, 0
2, 85080, Note_on_c, 0, 66, 72
2, 85138, Note_on_c, 0, 66, 0
2, 85140, Note_on_c, 0, 64, 68
2, 85198, Note_on_c, 0, 64, 0
2, 85200, Note_on_c, 0, 67, 64
2, 85258, Note_on_c, 0, 67, 0
2, 85260, Note_on_c, 0, 66, 60
2, 85318, Note_on_c, 0, 66, 0
2, 85320, Note_on_c, 0, 69, 56
2, 85378, Note_on_c, 0, 69, 0
2, 85380, Note_on_c, 0, 67, 52
2, 85438, Note_on_c, 0, 67, 0
2, 85440, Note_on_c, 0, 71, 48
2, 85558, Note_on_c, 0, 71, 0
2, 85680, Note_on_c, 0, 79, 48
2, 85738, Note_on_c, 0, 79, 0
2, 85740, Note_on_c, 0, 78, 48
2, 85798, Note_on_c, 0, 78, 0
2, 85800, Note_on_c, 0, 81, 48
2, 85858, Note_on_c, 0, 81, 0
2, 85860, Note_on_c, 0, 79, 48
2, 85918, Note_on_c, 0, 79, 0
2, 85920, Note_on_c, 0, 83, 48
2, 86038, Note_on_c, 0, 83, 0
2, 86400, Note_on_c, 0, 55, 32
2, 86458, Note_on_c, 0, 55, 0
2, 86460, Note_on_c, 0, 54, 32
2, 86518, Note_on_c, 0, 54, 0
2, 86520, Note_on_c, 0, 57, 32
2, 86578, Note_on_c, 0, 57, 0
2, 86580, Note_on_c, 0, 55, 32
2, 86638, Note_on_c, 0, 55, 0
2, 86640, Note_on_c, 0, 59, 32
2, 87072, Note_on_c, 0, 59, 0
2, 87210, Note_on_c, 0, 63, 80
2, 87234, Note_on_c, 0, 63, 0
2, 87240, Note_on_c, 0, 75, 80
2, 87312, Note_on_c, 0, 75, 0
2, 87330, Note_on_c, 0, 64, 80
2, 87354, Note_on_c, 0, 64, 0
2, 87360, Note_on_c, 0, 76, 80
2, 87432, Note_on_c, 0, 76, 0
2, 87450, Note_on_c, 0, 66, 80
2, 87474, Note_on_c, 0, 66, 0
2, 87480, Note_on_c, 0, 78, 80
2, 87552, Note_on_c, 0, 78, 0
2, 87570, Note_on_c, 0, 67, 80
2, 87594, Note_on_c, 0, 67, 0
2, 87600, Note_on_c, 0, 79, 80
2, 87672, Note_on_c, 0, 79, 0
2, 87690, Note_on_c, 0, 70, 80
2, 87714, Note_on_c, 0, 70, 0
2, 87720, Note_on_c, 0, 82, 80
2, 87792, Note_on_c, 0, 82, 0
2, 87810, Note_on_c, 0, 71, 80
2, 87834, Note_on_c, 0, 71, 0
2, 87840, Note_on_c, 0, 83, 80
2, 87912, Note_on_c, 0, 83, 0
2, 87930, Note_on_c, 0, 73, 80
2, 87954, Note_on_c, 0, 73, 0
2, 87960, Note_on_c, 0, 85, 80
2, 88032, Note_on_c, 0, 85, 0
2, 88050, Note_on_c, 0, 74, 80
2, 88074, Note_on_c, 0, 74, 0
2, 88080, Note_on_c, 0, 86, 80
2, 88152, Note_on_c, 0, 86, 0
2, 88170, Note_on_c, 0, 68, 80
2, 88194, Note_on_c, 0, 68, 0
2, 88200, Note_on_c, 0, 80, 80
2, 88272, Note_on_c, 0, 80, 0
2, 88290, Note_on_c, 0, 69, 80
2, 88314, Note_on_c, 0, 69, 0
2, 88320, Note_on_c, 0, 81, 85
2, 88678, Note_on_c, 0, 81, 0
2, 88680, Note_on_c, 0, 79, 85
2, 88708, Note_on_c, 0, 79, 0
2, 88710, Note_on_c, 0, 78, 85
2, 88738, Note_on_c, 0, 78, 0
2, 88740, Note_on_c, 0, 76, 85
2, 88768, Note_on_c, 0, 76, 0
2, 88770, Note_on_c, 0, 74, 85
2, 88798, Note_on_c, 0, 74, 0
2, 88800, Note_on_c, 0, 76, 64
2, 88824, Note_on_c, 0, 76, 0
2, 88830, Note_on_c, 0, 78, 65
2, 88854, Note_on_c, 0, 78, 0
2, 88860, Note_on_c, 0, 76, 66
2, 88884, Note_on_c, 0, 76, 0
2, 88890, Note_on_c, 0, 78, 67
2, 88914, Note_on_c, 0, 78, 0
2, 88920, Note_on_c, 0, 76, 68
2, 88944, Note_on_c, 0, 76, 0
2, 88950, Note_on_c, 0, 78, 69
2, 88974, Note_on_c, 0, 78, 0
2, 88980, Note_on_c, 0, 76, 70
2, 89004, Note_on_c, 0, 76, 0
2, 89010, Note_on_c, 0, 78, 71
2, 89034, Note_on_c, 0, 78, 0
2, 89040, Note_on_c, 0, 76, 72
2, 89064, Note_on_c, 0, 76, 0
2, 89070, Note_on_c, 0, 78, 73
2, 89094, Note_on_c, 0, 78, 0
2, 89100, Note_on_c, 0, 76, 74
2, 89124, Note_on_c, 0, 76, 0
2, 89130, Note_on_c, 0, 78, 75
2, 89154, Note_on_c, 0, 78, 0
2, 89160, Note_on_c, 0, 76, 76
2, 89176, Note_on_c, 0, 76, 0
2, 89180, Note_on_c, 0, 78, 77
2, 89196, Note_on_c, 0, 78, 0
2, 89200, Note_on_c, 0, 76, 77
2, 89216, Note_on_c, 0, 76, 0
2, 89220, Note_on_c, 0, 74, 78
2, 89244, Note_on_c, 0, 74, 0
2, 89250, Note_on_c, 0, 76, 79
2, 89274, Note_on_c, 0, 76, 0
2, 89280, Note_on_c, 0, 74, 85
2, 89518, Note_on_c, 0, 74, 0
2, 89640, Note_on_c, 0, 69, 85
2, 89758, Note_on_c, 0, 69, 0
2, 89760, Note_on_c, 0, 71, 80
2, 89792, Note_on_c, 0, 71, 0
2, 89800, Note_on_c, 0, 73, 80
2, 89832, Note_on_c, 0, 73, 0
2, 89840, Note_on_c, 0, 71, 80
2, 89872, Note_on_c, 0, 71, 0
2, 89880, Note_on_c, 0, 69, 80
2, 89928, Note_on_c, 0, 69, 0
2, 90000, Note_on_c, 0, 71, 80
2, 90032, Note_on_c, 0, 71, 0
2, 90040, Note_on_c, 0, 73, 80
2, 90072, Note_on_c, 0, 73, 0
2, 90080, Note_on_c, 0, 71, 80
2, 90112, Note_on_c, 0, 71, 0
2, 90120, Note_on_c, 0, 69, 80
2, 90177, Note_on_c, 0, 69, 0
2, 90180, Note_on_c, 0, 69, 88
2, 90200, Note_on_c, 0, 73, 88
2, 90220, Note_on_c, 0, 76, 88
2, 90240, Note_on_c, 0, 79, 88
2, 90478, Note_on_c, 0, 79, 0
2, 90478, Note_on_c, 0, 69, 0
2, 90478, Note_on_c, 0, 73, 0
2, 90478, Note_on_c, 0, 76, 0
2, 90600, Note_on_c, 0, 78, 85
2, 90660, Note_on_c, 0, 78, 0
2, 90720, Note_on_c, 0, 76, 80
2, 90752, Note_on_c, 0, 76, 0
2, 90760, Note_on_c, 0, 78, 80
2, 90792, Note_on_c, 0, 78, 0
2, 90800, Note_on_c, 0, 76, 80
2, 90832, Note_on_c, 0, 76, 0
2, 90840, Note_on_c, 0, 79, 80
2, 90936, Note_on_c, 0, 79, 0
2, 90960, Note_on_c, 0, 69, 80
2, 90992, Note_on_c, 0, 69, 0
2, 91000, Note_on_c, 0, 71, 80
2, 91032, Note_on_c, 0, 71, 0
2, 91040, Note_on_c, 0, 69, 80
2, 91072, Note_on_c, 0, 69, 0
2, 91080, Note_on_c, 0, 67, 80
2, 91080, Note_on_c, 0, 73, 80
2, 91176, Note_on_c, 0, 73, 0
2, 91176, Note_on_c, 0, 67, 0
2, 91200, Note_on_c, 0, 66, 76
2, 91200, Note_on_c, 0, 74, 76
2, 91438, Note_on_c, 0, 74, 0
2, 91438, Note_on_c, 0, 66, 0
2, 91560, Note_on_c, 0, 69, 56
2, 91678, Note_on_c, 0, 69, 0
2, 91680, Note_on_c, 0, 71, 56
2, 91712, Note_on_c, 0, 71, 0
2, 91720, Note_on_c, 0, 73, 56
2, 91752, Note_on_c, 0, 73, 0
2, 91760, Note_on_c, 0, 71, 56
2, 91792, Note_on_c, 0, 71, 0
2, 91800, Note_on_c, 0, 69, 56
2, 91860, Note_on_c, 0, 69, 0
2, 91920, Note_on_c, 0, 71, 56
2, 91952, Note_on_c, 0, 71, 0
2, 91960, Note_on_c, 0, 73, 56
2, 91992, Note_on_c, 0, 73, 0
2, 92000, Note_on_c, 0, 71, 56
2, 92032, Note_on_c, 0, 71, 0
2, 92040, Note_on_c, 0, 69, 56
2, 92070, Note_on_c, 0, 69, 0
2, 92100, Note_on_c, 0, 69, 64
2, 92120, Note_on_c, 0, 73, 64
2, 92140, Note_on_c, 0, 76, 64
2, 92160, Note_on_c, 0, 79, 64
2, 92398, Note_on_c, 0, 79, 0
2, 92398, Note_on_c, 0, 69, 0
2, 92398, Note_on_c, 0, 73, 0
2, 92398, Note_on_c, 0, 76, 0
2, 92520, Note_on_c, 0, 78, 56
2, 92580, Note_on_c, 0, 78, 0
2, 92640, Note_on_c, 0, 76, 56
2, 92672, Note_on_c, 0, 76, 0
2, 92680, Note_on_c, 0, 78, 56
2, 92712, Note_on_c, 0, 78, 0
2, 92720, Note_on_c, 0, 76, 56
2, 92752, Note_on_c, 0, 76, 0
2, 92760, Note_on_c, 0, 79, 56
2, 92820, Note_on_c, 0, 79, 0
2, 92880, Note_on_c, 0, 69, 56
2, 92912, Note_on_c, 0, 69, 0
2, 92920, Note_on_c, 0, 71, 56
2, 92952, Note_on_c, 0, 71, 0
2, 92960, Note_on_c, 0, 69, 56
2, 92992, Note_on_c, 0, 69, 0
2, 93000, Note_on_c, 0, 73, 56
2, 93000, Note_on_c, 0, 67, 56
2, 93060, Note_on_c, 0, 67, 0
2, 93060, Note_on_c, 0, 73, 0
2, 93120, Note_on_c, 0, 66, 56
2, 93120, Note_on_c, 0, 74, 56
2, 93238, Note_on_c, 0, 74, 0
2, 93238, Note_on_c, 0, 66, 0
2, 93420, Note_on_c, 0, 57, 56
2, 93478, Note_on_c, 0, 57, 0
2, 93480, Note_on_c, 0, 61, 56
2, 93538, Note_on_c, 0, 61, 0
2, 93540, Note_on_c, 0, 69, 56
2, 93598, Note_on_c, 0, 69, 0
2, 93660, Note_on_c, 0, 57, 55
2, 93718, Note_on_c, 0, 57, 0
2, 93720, Note_on_c, 0, 62, 54
2, 93778, Note_on_c, 0, 62, 0
2, 93780, Note_on_c, 0, 69, 53
2, 93838, Note_on_c, 0, 69, 0
2, 93900, Note_on_c, 0, 52, 51
2, 93958, Note_on_c, 0, 52, 0
2, 93960, Note_on_c, 0, 55, 50
2, 94018, Note_on_c, 0, 55, 0
2, 94020, Note_on_c, 0, 61, 49
2, 94078, Note_on_c, 0, 61, 0
2, 94080, Note_on_c, 0, 54, 32
2, 94080, Note_on_c, 0, 62, 32
2, 94318, Note_on_c, 0, 62, 0
2, 94318, Note_on_c, 0, 54, 0
2, 94318, End_track
3, 0, Start_track
3, 0, MIDI_port, 0
3, 0, Title_t, "by F.J. Haydn  (1st mvmt - allegro)"
3, 0, Program_c, 1, 0
3, 0, Control_c, 1, 7, 120
3, 0, Control_c, 1, 10, 56
3, 480, Note_on_c, 1, 38, 85
3, 480, Note_on_c, 1, 50, 85
3, 718, Note_on_c, 1, 50, 0
3, 718, Note_on_c, 1, 38, 0
3, 840, Note_on_c, 1, 62, 85
3, 840, Note_on_c, 1, 66, 85
3, 912, Note_on_c, 1, 66, 0
3, 912, Note_on_c, 1, 62, 0
3, 960, Note_on_c, 1, 62, 85
3, 960, Note_on_c, 1, 67, 85
3, 1032, Note_on_c, 1, 67, 0
3, 1032, Note_on_c, 1, 62, 0
3, 1080, Note_on_c, 1, 66, 85
3, 1080, Note_on_c, 1, 62, 85
3, 1128, Note_on_c, 1, 62, 0
3, 1128, Note_on_c, 1, 66, 0
3, 1440, Note_on_c, 1, 38, 85
3, 1440, Note_on_c, 1, 50, 85
3, 1678, Note_on_c, 1, 50, 0
3, 1678, Note_on_c, 1, 38, 0
3, 1800, Note_on_c, 1, 62, 85
3, 1872, Note_on_c, 1, 62, 0
3, 1920, Note_on_c, 1, 57, 85
3, 1992, Note_on_c, 1, 57, 0
3, 2040, Note_on_c, 1, 62, 85
3, 2088, Note_on_c, 1, 62, 0
3, 2520, Note_on_c, 1, 54, 85
3, 2520, Note_on_c, 1, 62, 85
3, 2568, Note_on_c, 1, 62, 0
3, 2568, Note_on_c, 1, 54, 0
3, 2640, Note_on_c, 1, 54, 85
3, 2640, Note_on_c, 1, 62, 85
3, 2736, Note_on_c, 1, 62, 0
3, 2736, Note_on_c, 1, 54, 0
3, 3000, Note_on_c, 1, 55, 85
3, 3000, Note_on_c, 1, 62, 85
3, 3048, Note_on_c, 1, 62, 0
3, 3048, Note_on_c, 1, 55, 0
3, 3120, Note_on_c, 1, 55, 85
3, 3120, Note_on_c, 1, 62, 85
3, 3216, Note_on_c, 1, 62, 0
3, 3216, Note_on_c, 1, 55, 0
3, 3360, Note_on_c, 1, 57, 85
3, 3598, Note_on_c, 1, 57, 0
3, 3600, Note_on_c, 1, 45, 85
3, 3838, Note_on_c, 1, 45, 0
3, 3840, Note_on_c, 1, 50, 85
3, 4078, Note_on_c, 1, 50, 0
3, 4080, Note_on_c, 1, 38, 85
3, 4128, Note_on_c, 1, 38, 0
3, 4440, Note_on_c, 1, 54, 85
3, 4440, Note_on_c, 1, 62, 85
3, 4488, Note_on_c, 1, 62, 0
3, 4488, Note_on_c, 1, 54, 0
3, 4560, Note_on_c, 1, 54, 85
3, 4560, Note_on_c, 1, 62, 85
3, 4656, Note_on_c, 1, 62, 0
3, 4656, Note_on_c, 1, 54, 0
3, 4920, Note_on_c, 1, 55, 85
3, 4920, Note_on_c, 1, 62, 85
3, 4968, Note_on_c, 1, 62, 0
3, 4968, Note_on_c, 1, 55, 0
3, 5040, Note_on_c, 1, 55, 85
3, 5040, Note_on_c, 1, 62, 85
3, 5136, Note_on_c, 1, 62, 0
3, 5136, Note_on_c, 1, 55, 0
3, 5280, Note_on_c, 1, 57, 85
3, 5398, Note_on_c, 1, 57, 0
3, 5520, Note_on_c, 1, 45, 85
3, 5638, Note_on_c, 1, 45, 0
3, 5760, Note_on_c, 1, 38, 85
3, 5998, Note_on_c, 1, 38, 0
3, 6840, Note_on_c, 1, 56, 64
3, 6960, Note_on_c, 1, 56, 0
3, 6960, Note_on_c, 1, 57, 64
3, 7056, Note_on_c, 1, 57, 0
3, 7800, Note_on_c, 1, 49, 64
3, 7918, Note_on_c, 1, 49, 0
3, 7920, Note_on_c, 1, 50, 64
3, 8016, Note_on_c, 1, 50, 0
3, 8640, Note_on_c, 1, 55, 72
3, 8698, Note_on_c, 1, 55, 0
3, 8700, Note_on_c, 1, 62, 72
3, 8758, Note_on_c, 1, 62, 0
3, 8760, Note_on_c, 1, 55, 72
3, 8818, Note_on_c, 1, 55, 0
3, 8820, Note_on_c, 1, 62, 72
3, 8878, Note_on_c, 1, 62, 0
3, 8880, Note_on_c, 1, 54, 72
3, 8938, Note_on_c, 1, 54, 0
3, 8940, Note_on_c, 1, 62, 72
3, 8998, Note_on_c, 1, 62, 0
3, 9000, Note_on_c, 1, 54, 72
3, 9058, Note_on_c, 1, 54, 0
3, 9060, Note_on_c, 1, 62, 72
3, 9118, Note_on_c, 1, 62, 0
3, 9120, Note_on_c, 1, 59, 72
3, 9178, Note_on_c, 1, 59, 0
3, 9180, Note_on_c, 1, 62, 72
3, 9238, Note_on_c, 1, 62, 0
3, 9240, Note_on_c, 1, 59, 72
3, 9298, Note_on_c, 1, 59, 0
3, 9300, Note_on_c, 1, 62, 72
3, 9358, Note_on_c, 1, 62, 0
3, 9360, Note_on_c, 1, 57, 72
3, 9418, Note_on_c, 1, 57, 0
3, 9420, Note_on_c, 1, 62, 72
3, 9478, Note_on_c, 1, 62, 0
3, 9480, Note_on_c, 1, 57, 72
3, 9538, Note_on_c, 1, 57, 0
3, 9540, Note_on_c, 1, 62, 72
3, 9598, Note_on_c, 1, 62, 0
3, 9600, Note_on_c, 1, 55, 48
3, 9658, Note_on_c, 1, 55, 0
3, 9660, Note_on_c, 1, 62, 48
3, 9718, Note_on_c, 1, 62, 0
3, 9720, Note_on_c, 1, 55, 48
3, 9778, Note_on_c, 1, 55, 0
3, 9780, Note_on_c, 1, 62, 48
3, 9838, Note_on_c, 1, 62, 0
3, 9840, Note_on_c, 1, 54, 48
3, 9898, Note_on_c, 1, 54, 0
3, 9900, Note_on_c, 1, 62, 48
3, 9958, Note_on_c, 1, 62, 0
3, 9960, Note_on_c, 1, 54, 48
3, 10018, Note_on_c, 1, 54, 0
3, 10020, Note_on_c, 1, 62, 48
3, 10078, Note_on_c, 1, 62, 0
3, 10080, Note_on_c, 1, 59, 48
3, 10138, Note_on_c, 1, 59, 0
3, 10140, Note_on_c, 1, 62, 48
3, 10198, Note_on_c, 1, 62, 0
3, 10200, Note_on_c, 1, 59, 48
3, 10258, Note_on_c, 1, 59, 0
3, 10260, Note_on_c, 1, 62, 48
3, 10318, Note_on_c, 1, 62, 0
3, 10320, Note_on_c, 1, 57, 48
3, 10378, Note_on_c, 1, 57, 0
3, 10380, Note_on_c, 1, 62, 48
3, 10438, Note_on_c, 1, 62, 0
3, 10440, Note_on_c, 1, 57, 48
3, 10498, Note_on_c, 1, 57, 0
3, 10500, Note_on_c, 1, 62, 48
3, 10558, Note_on_c, 1, 62, 0
3, 10560, Note_on_c, 1, 55, 48
3, 10798, Note_on_c, 1, 55, 0
3, 10920, Note_on_c, 1, 43, 72
3, 10920, Note_on_c, 1, 55, 72
3, 11038, Note_on_c, 1, 55, 0
3, 11038, Note_on_c, 1, 43, 0
3, 11040, Note_on_c, 1, 45, 85
3, 11040, Note_on_c, 1, 54, 85
3, 11518, Note_on_c, 1, 54, 0
3, 11520, Note_on_c, 1, 52, 68
3, 11592, Note_on_c, 1, 52, 0
3, 11592, Note_on_c, 1, 45, 0
3, 12000, Note_on_c, 1, 45, 85
3, 12000, Note_on_c, 1, 49, 85
3, 12000, Note_on_c, 1, 52, 85
3, 12000, Note_on_c, 1, 57, 85
3, 12072, Note_on_c, 1, 57, 0
3, 12072, Note_on_c, 1, 45, 0
3, 12072, Note_on_c, 1, 49, 0
3, 12072, Note_on_c, 1, 52, 0
3, 12240, Note_on_c, 1, 45, 85
3, 12240, Note_on_c, 1, 49, 85
3, 12240, Note_on_c, 1, 52, 85
3, 12240, Note_on_c, 1, 57, 85
3, 12312, Note_on_c, 1, 57, 0
3, 12312, Note_on_c, 1, 45, 0
3, 12312, Note_on_c, 1, 49, 0
3, 12312, Note_on_c, 1, 52, 0
3, 12480, Note_on_c, 1, 49, 85
3, 12480, Note_on_c, 1, 52, 85
3, 12480, Note_on_c, 1, 57, 85
3, 12480, Note_on_c, 1, 45, 85
3, 12552, Note_on_c, 1, 45, 0
3, 12552, Note_on_c, 1, 49, 0
3, 12552, Note_on_c, 1, 52, 0
3, 12552, Note_on_c, 1, 57, 0
3, 12960, Note_on_c, 1, 45, 85
3, 13018, Note_on_c, 1, 45, 0
3, 13020, Note_on_c, 1, 52, 85
3, 13078, Note_on_c, 1, 52, 0
3, 13080, Note_on_c, 1, 50, 85
3, 13138, Note_on_c, 1, 50, 0
3, 13140, Note_on_c, 1, 52, 85
3, 13198, Note_on_c, 1, 52, 0
3, 13200, Note_on_c, 1, 49, 85
3, 13258, Note_on_c, 1, 49, 0
3, 13260, Note_on_c, 1, 52, 85
3, 13318, Note_on_c, 1, 52, 0
3, 13320, Note_on_c, 1, 45, 85
3, 13378, Note_on_c, 1, 45, 0
3, 13380, Note_on_c, 1, 49, 85
3, 13438, Note_on_c, 1, 49, 0
3, 13440, Note_on_c, 1, 50, 85
3, 13678, Note_on_c, 1, 50, 0
3, 13920, Note_on_c, 1, 51, 85
3, 13978, Note_on_c, 1, 51, 0
3, 13980, Note_on_c, 1, 54, 85
3, 14038, Note_on_c, 1, 54, 0
3, 14040, Note_on_c, 1, 52, 85
3, 14098, Note_on_c, 1, 52, 0
3, 14100, Note_on_c, 1, 54, 85
3, 14158, Note_on_c, 1, 54, 0
3, 14160, Note_on_c, 1, 51, 85
3, 14218, Note_on_c, 1, 51, 0
3, 14220, Note_on_c, 1, 54, 85
3, 14278, Note_on_c, 1, 54, 0
3, 14280, Note_on_c, 1, 47, 85
3, 14338, Note_on_c, 1, 47, 0
3, 14340, Note_on_c, 1, 51, 85
3, 14398, Note_on_c, 1, 51, 0
3, 14400, Note_on_c, 1, 52, 80
3, 14638, Note_on_c, 1, 52, 0
3, 14880, Note_on_c, 1, 54, 48
3, 14938, Note_on_c, 1, 54, 0
3, 14940, Note_on_c, 1, 60, 50
3, 14998, Note_on_c, 1, 60, 0
3, 15000, Note_on_c, 1, 54, 52
3, 15058, Note_on_c, 1, 54, 0
3, 15060, Note_on_c, 1, 60, 54
3, 15118, Note_on_c, 1, 60, 0
3, 15120, Note_on_c, 1, 54, 56
3, 15178, Note_on_c, 1, 54, 0
3, 15180, Note_on_c, 1, 60, 58
3, 15238, Note_on_c, 1, 60, 0
3, 15240, Note_on_c, 1, 54, 60
3, 15298, Note_on_c, 1, 54, 0
3, 15300, Note_on_c, 1, 60, 62
3, 15358, Note_on_c, 1, 60, 0
3, 15360, Note_on_c, 1, 56, 64
3, 15418, Note_on_c, 1, 56, 0
3, 15420, Note_on_c, 1, 59, 56
3, 15478, Note_on_c, 1, 59, 0
3, 15480, Note_on_c, 1, 56, 56
3, 15538, Note_on_c, 1, 56, 0
3, 15540, Note_on_c, 1, 59, 56
3, 15598, Note_on_c, 1, 59, 0
3, 15600, Note_on_c, 1, 56, 56
3, 15658, Note_on_c, 1, 56, 0
3, 15660, Note_on_c, 1, 59, 56
3, 15718, Note_on_c, 1, 59, 0
3, 15720, Note_on_c, 1, 56, 56
3, 15778, Note_on_c, 1, 56, 0
3, 15780, Note_on_c, 1, 59, 56
3, 15838, Note_on_c, 1, 59, 0
3, 15840, Note_on_c, 1, 54, 48
3, 15898, Note_on_c, 1, 54, 0
3, 15900, Note_on_c, 1, 60, 50
3, 15958, Note_on_c, 1, 60, 0
3, 15960, Note_on_c, 1, 54, 52
3, 16018, Note_on_c, 1, 54, 0
3, 16020, Note_on_c, 1, 60, 54
3, 16078, Note_on_c, 1, 60, 0
3, 16080, Note_on_c, 1, 54, 56
3, 16138, Note_on_c, 1, 54, 0
3, 16140, Note_on_c, 1, 60, 58
3, 16198, Note_on_c, 1, 60, 0
3, 16200, Note_on_c, 1, 54, 60
3, 16258, Note_on_c, 1, 54, 0
3, 16260, Note_on_c, 1, 60, 62
3, 16318, Note_on_c, 1, 60, 0
3, 16320, Note_on_c, 1, 56, 64
3, 16378, Note_on_c, 1, 56, 0
3, 16380, Note_on_c, 1, 59, 48
3, 16438, Note_on_c, 1, 59, 0
3, 16440, Note_on_c, 1, 56, 48
3, 16498, Note_on_c, 1, 56, 0
3, 16500, Note_on_c, 1, 59, 48
3, 16558, Note_on_c, 1, 59, 0
3, 16560, Note_on_c, 1, 56, 48
3, 16618, Note_on_c, 1, 56, 0
3, 16620, Note_on_c, 1, 59, 48
3, 16678, Note_on_c, 1, 59, 0
3, 16680, Note_on_c, 1, 56, 48
3, 16738, Note_on_c, 1, 56, 0
3, 16740, Note_on_c, 1, 59, 48
3, 16798, Note_on_c, 1, 59, 0
3, 16800, Note_on_c, 1, 57, 48
3, 16858, Note_on_c, 1, 57, 0
3, 16860, Note_on_c, 1, 61, 48
3, 16918, Note_on_c, 1, 61, 0
3, 16920, Note_on_c, 1, 57, 48
3, 16978, Note_on_c, 1, 57, 0
3, 16980, Note_on_c, 1, 61, 48
3, 17038, Note_on_c, 1, 61, 0
3, 17040, Note_on_c, 1, 57, 48
3, 17098, Note_on_c, 1, 57, 0
3, 17100, Note_on_c, 1, 61, 48
3, 17158, Note_on_c, 1, 61, 0
3, 17160, Note_on_c, 1, 57, 48
3, 17218, Note_on_c, 1, 57, 0
3, 17220, Note_on_c, 1, 61, 48
3, 17278, Note_on_c, 1, 61, 0
3, 17280, Note_on_c, 1, 59, 56
3, 17338, Note_on_c, 1, 59, 0
3, 17340, Note_on_c, 1, 62, 57
3, 17398, Note_on_c, 1, 62, 0
3, 17400, Note_on_c, 1, 59, 58
3, 17458, Note_on_c, 1, 59, 0
3, 17460, Note_on_c, 1, 62, 59
3, 17518, Note_on_c, 1, 62, 0
3, 17520, Note_on_c, 1, 59, 60
3, 17578, Note_on_c, 1, 59, 0
3, 17580, Note_on_c, 1, 62, 61
3, 17638, Note_on_c, 1, 62, 0
3, 17640, Note_on_c, 1, 59, 62
3, 17698, Note_on_c, 1, 59, 0
3, 17700, Note_on_c, 1, 62, 63
3, 17758, Note_on_c, 1, 62, 0
3, 17760, Note_on_c, 1, 61, 64
3, 17818, Note_on_c, 1, 61, 0
3, 17820, Note_on_c, 1, 64, 65
3, 17878, Note_on_c, 1, 64, 0
3, 17880, Note_on_c, 1, 61, 66
3, 17938, Note_on_c, 1, 61, 0
3, 17940, Note_on_c, 1, 64, 67
3, 17998, Note_on_c, 1, 64, 0
3, 18000, Note_on_c, 1, 61, 68
3, 18058, Note_on_c, 1, 61, 0
3, 18060, Note_on_c, 1, 64, 69
3, 18118, Note_on_c, 1, 64, 0
3, 18120, Note_on_c, 1, 61, 70
3, 18178, Note_on_c, 1, 61, 0
3, 18180, Note_on_c, 1, 64, 71
3, 18238, Note_on_c, 1, 64, 0
3, 18240, Note_on_c, 1, 56, 72
3, 18298, Note_on_c, 1, 56, 0
3, 18300, Note_on_c, 1, 64, 73
3, 18358, Note_on_c, 1, 64, 0
3, 18360, Note_on_c, 1, 56, 74
3, 18418, Note_on_c, 1, 56, 0
3, 18420, Note_on_c, 1, 64, 75
3, 18478, Note_on_c, 1, 64, 0
3, 18480, Note_on_c, 1, 56, 76
3, 18538, Note_on_c, 1, 56, 0
3, 18540, Note_on_c, 1, 64, 77
3, 18598, Note_on_c, 1, 64, 0
3, 18600, Note_on_c, 1, 56, 78
3, 18658, Note_on_c, 1, 56, 0
3, 18660, Note_on_c, 1, 64, 79
3, 18718, Note_on_c, 1, 64, 0
3, 18720, Note_on_c, 1, 57, 85
3, 18958, Note_on_c, 1, 57, 0
3, 19200, Note_on_c, 1, 56, 85
3, 19200, Note_on_c, 1, 59, 85
3, 19438, Note_on_c, 1, 59, 0
3, 19438, Note_on_c, 1, 56, 0
3, 19680, Note_on_c, 1, 45, 85
3, 19680, Note_on_c, 1, 57, 85
3, 19918, Note_on_c, 1, 57, 0
3, 19918, Note_on_c, 1, 45, 0
3, 19920, Note_on_c, 1, 59, 85
3, 19978, Note_on_c, 1, 59, 0
3, 19980, Note_on_c, 1, 57, 85
3, 20038, Note_on_c, 1, 57, 0
3, 20040, Note_on_c, 1, 56, 85
3, 20098, Note_on_c, 1, 56, 0
3, 20100, Note_on_c, 1, 54, 85
3, 20158, Note_on_c, 1, 54, 0
3, 20160, Note_on_c, 1, 52, 85
3, 20218, Note_on_c, 1, 52, 0
3, 20220, Note_on_c, 1, 51, 85
3, 20278, Note_on_c, 1, 51, 0
3, 20280, Note_on_c, 1, 52, 85
3, 20338, Note_on_c, 1, 52, 0
3, 20340, Note_on_c, 1, 54, 85
3, 20398, Note_on_c, 1, 54, 0
3, 20400, Note_on_c, 1, 52, 85
3, 20458, Note_on_c, 1, 52, 0
3, 20460, Note_on_c, 1, 50, 85
3, 20518, Note_on_c, 1, 50, 0
3, 20520, Note_on_c, 1, 49, 85
3, 20578, Note_on_c, 1, 49, 0
3, 20580, Note_on_c, 1, 47, 85
3, 20638, Note_on_c, 1, 47, 0
3, 20640, Note_on_c, 1, 45, 85
3, 20878, Note_on_c, 1, 45, 0
3, 21120, Note_on_c, 1, 62, 85
3, 21358, Note_on_c, 1, 62, 0
3, 21600, Note_on_c, 1, 38, 80
3, 21838, Note_on_c, 1, 38, 0
3, 22680, Note_on_c, 1, 57, 85
3, 22680, Note_on_c, 1, 49, 85
3, 22798, Note_on_c, 1, 49, 0
3, 22800, Note_on_c, 1, 50, 85
3, 22918, Note_on_c, 1, 50, 0
3, 22918, Note_on_c, 1, 57, 0
3, 22920, Note_on_c, 1, 52, 85
3, 22920, Note_on_c, 1, 56, 85
3, 23038, Note_on_c, 1, 56, 0
3, 23038, Note_on_c, 1, 52, 0
3, 23040, Note_on_c, 1, 45, 85
3, 23040, Note_on_c, 1, 57, 85
3, 23158, Note_on_c, 1, 57, 0
3, 23158, Note_on_c, 1, 45, 0
3, 23280, Note_on_c, 1, 61, 85
3, 23398, Note_on_c, 1, 61, 0
3, 23520, Note_on_c, 1, 62, 85
3, 23758, Note_on_c, 1, 62, 0
3, 24000, Note_on_c, 1, 50, 85
3, 24238, Note_on_c, 1, 50, 0
3, 26880, Note_on_c, 1, 62, 85
3, 26880, Note_on_c, 1, 66, 85
3, 26880, Note_on_c, 1, 71, 85
3, 26998, Note_on_c, 1, 71, 0
3, 26998, Note_on_c, 1, 66, 0
3, 26998, Note_on_c, 1, 62, 0
3, 27000, Note_on_c, 1, 62, 85
3, 27000, Note_on_c, 1, 66, 85
3, 27000, Note_on_c, 1, 71, 85
3, 27118, Note_on_c, 1, 71, 0
3, 27118, Note_on_c, 1, 66, 0
3, 27118, Note_on_c, 1, 62, 0
3, 27120, Note_on_c, 1, 62, 85
3, 27120, Note_on_c, 1, 66, 85
3, 27120, Note_on_c, 1, 71, 85
3, 27238, Note_on_c, 1, 71, 0
3, 27238, Note_on_c, 1, 66, 0
3, 27238, Note_on_c, 1, 62, 0
3, 27240, Note_on_c, 1, 62, 85
3, 27240, Note_on_c, 1, 66, 85
3, 27240, Note_on_c, 1, 71, 85
3, 27358, Note_on_c, 1, 71, 0
3, 27358, Note_on_c, 1, 66, 0
3, 27358, Note_on_c, 1, 62, 0
3, 27360, Note_on_c, 1, 64, 85
3, 27360, Note_on_c, 1, 69, 85
3, 27360, Note_on_c, 1, 73, 85
3, 27478, Note_on_c, 1, 73, 0
3, 27478, Note_on_c, 1, 69, 0
3, 27478, Note_on_c, 1, 64, 0
3, 27480, Note_on_c, 1, 64, 85
3, 27480, Note_on_c, 1, 69, 85
3, 27480, Note_on_c, 1, 73, 85
3, 27598, Note_on_c, 1, 73, 0
3, 27598, Note_on_c, 1, 69, 0
3, 27598, Note_on_c, 1, 64, 0
3, 27600, Note_on_c, 1, 64, 85
3, 27600, Note_on_c, 1, 69, 85
3, 27600, Note_on_c, 1, 73, 85
3, 27718, Note_on_c, 1, 73, 0
3, 27718, Note_on_c, 1, 69, 0
3, 27718, Note_on_c, 1, 64, 0
3, 27720, Note_on_c, 1, 64, 85
3, 27720, Note_on_c, 1, 69, 85
3, 27720, Note_on_c, 1, 73, 85
3, 27838, Note_on_c, 1, 73, 0
3, 27838, Note_on_c, 1, 69, 0
3, 27838, Note_on_c, 1, 64, 0
3, 27840, Note_on_c, 1, 64, 85
3, 27840, Note_on_c, 1, 68, 85
3, 27958, Note_on_c, 1, 68, 0
3, 27958, Note_on_c, 1, 64, 0
3, 27960, Note_on_c, 1, 64, 85
3, 27960, Note_on_c, 1, 68, 85
3, 28078, Note_on_c, 1, 68, 0
3, 28078, Note_on_c, 1, 64, 0
3, 28080, Note_on_c, 1, 64, 85
3, 28080, Note_on_c, 1, 68, 85
3, 28198, Note_on_c, 1, 68, 0
3, 28198, Note_on_c, 1, 64, 0
3, 28200, Note_on_c, 1, 64, 85
3, 28200, Note_on_c, 1, 68, 85
3, 28318, Note_on_c, 1, 68, 0
3, 28318, Note_on_c, 1, 64, 0
3, 28320, Note_on_c, 1, 57, 85
3, 28378, Note_on_c, 1, 57, 0
3, 28380, Note_on_c, 1, 69, 85
3, 28438, Note_on_c, 1, 69, 0
3, 28440, Note_on_c, 1, 68, 85
3, 28498, Note_on_c, 1, 68, 0
3, 28500, Note_on_c, 1, 69, 85
3, 28558, Note_on_c, 1, 69, 0
3, 28560, Note_on_c, 1, 61, 85
3, 28618, Note_on_c, 1, 61, 0
3, 28620, Note_on_c, 1, 69, 85
3, 28678, Note_on_c, 1, 69, 0
3, 28680, Note_on_c, 1, 68, 85
3, 28738, Note_on_c, 1, 68, 0
3, 28740, Note_on_c, 1, 69, 85
3, 28798, Note_on_c, 1, 69, 0
3, 28800, Note_on_c, 1, 62, 85
3, 28858, Note_on_c, 1, 62, 0
3, 28860, Note_on_c, 1, 69, 85
3, 28918, Note_on_c, 1, 69, 0
3, 28920, Note_on_c, 1, 61, 85
3, 28978, Note_on_c, 1, 61, 0
3, 28980, Note_on_c, 1, 69, 85
3, 29038, Note_on_c, 1, 69, 0
3, 29040, Note_on_c, 1, 62, 85
3, 29098, Note_on_c, 1, 62, 0
3, 29100, Note_on_c, 1, 69, 85
3, 29158, Note_on_c, 1, 69, 0
3, 29160, Note_on_c, 1, 61, 85
3, 29218, Note_on_c, 1, 61, 0
3, 29220, Note_on_c, 1, 69, 85
3, 29278, Note_on_c, 1, 69, 0
3, 29280, Note_on_c, 1, 59, 85
3, 29280, Note_on_c, 1, 68, 85
3, 29518, Note_on_c, 1, 68, 0
3, 29518, Note_on_c, 1, 59, 0
3, 29640, Note_on_c, 1, 57, 85
3, 29640, Note_on_c, 1, 69, 85
3, 29758, Note_on_c, 1, 69, 0
3, 29758, Note_on_c, 1, 57, 0
3, 29760, Note_on_c, 1, 62, 85
3, 29760, Note_on_c, 1, 66, 85
3, 29878, Note_on_c, 1, 66, 0
3, 29878, Note_on_c, 1, 62, 0
3, 30000, Note_on_c, 1, 52, 85
3, 30000, Note_on_c, 1, 64, 85
3, 30118, Note_on_c, 1, 64, 0
3, 30118, Note_on_c, 1, 52, 0
3, 30240, Note_on_c, 1, 57, 48
3, 30298, Note_on_c, 1, 57, 0
3, 30300, Note_on_c, 1, 69, 48
3, 30358, Note_on_c, 1, 69, 0
3, 30360, Note_on_c, 1, 68, 48
3, 30418, Note_on_c, 1, 68, 0
3, 30420, Note_on_c, 1, 69, 48
3, 30478, Note_on_c, 1, 69, 0
3, 30480, Note_on_c, 1, 61, 48
3, 30538, Note_on_c, 1, 61, 0
3, 30540, Note_on_c, 1, 69, 48
3, 30598, Note_on_c, 1, 69, 0
3, 30600, Note_on_c, 1, 68, 48
3, 30658, Note_on_c, 1, 68, 0
3, 30660, Note_on_c, 1, 69, 48
3, 30718, Note_on_c, 1, 69, 0
3, 30720, Note_on_c, 1, 62, 48
3, 30778, Note_on_c, 1, 62, 0
3, 30780, Note_on_c, 1, 69, 48
3, 30838, Note_on_c, 1, 69, 0
3, 30840, Note_on_c, 1, 61, 48
3, 30898, Note_on_c, 1, 61, 0
3, 30900, Note_on_c, 1, 69, 48
3, 30958, Note_on_c, 1, 69, 0
3, 30960, Note_on_c, 1, 62, 48
3, 31018, Note_on_c, 1, 62, 0
3, 31020, Note_on_c, 1, 69, 48
3, 31078, Note_on_c, 1, 69, 0
3, 31080, Note_on_c, 1, 61, 48
3, 31138, Note_on_c, 1, 61, 0
3, 31140, Note_on_c, 1, 69, 48
3, 31198, Note_on_c, 1, 69, 0
3, 31200, Note_on_c, 1, 59, 64
3, 31200, Note_on_c, 1, 68, 64
3, 31438, Note_on_c, 1, 68, 0
3, 31438, Note_on_c, 1, 59, 0
3, 31560, Note_on_c, 1, 57, 48
3, 31560, Note_on_c, 1, 69, 48
3, 31678, Note_on_c, 1, 69, 0
3, 31678, Note_on_c, 1, 57, 0
3, 31680, Note_on_c, 1, 62, 48
3, 31680, Note_on_c, 1, 66, 48
3, 31776, Note_on_c, 1, 66, 0
3, 31776, Note_on_c, 1, 62, 0
3, 31920, Note_on_c, 1, 64, 48
3, 31920, Note_on_c, 1, 52, 48
3, 32016, Note_on_c, 1, 52, 0
3, 32016, Note_on_c, 1, 64, 0
3, 32160, Note_on_c, 1, 45, 48
3, 32160, Note_on_c, 1, 57, 48
3, 32256, Note_on_c, 1, 57, 0
3, 32256, Note_on_c, 1, 45, 0
3, 32400, Note_on_c, 1, 62, 48
3, 32400, Note_on_c, 1, 52, 48
3, 32496, Note_on_c, 1, 52, 0
3, 32496, Note_on_c, 1, 62, 0
3, 32640, Note_on_c, 1, 52, 48
3, 32640, Note_on_c, 1, 61, 48
3, 32736, Note_on_c, 1, 61, 0
3, 32736, Note_on_c, 1, 52, 0
3, 32880, Note_on_c, 1, 52, 48
3, 32880, Note_on_c, 1, 59, 48
3, 32976, Note_on_c, 1, 59, 0
3, 32976, Note_on_c, 1, 52, 0
3, 33120, Note_on_c, 1, 45, 48
3, 33120, Note_on_c, 1, 57, 48
3, 33312, Note_on_c, 1, 57, 0
3, 33312, Note_on_c, 1, 45, 0
3, 33600, Note_on_c, 1, 42, 96
3, 33600, Note_on_c, 1, 30, 96
3, 34078, Note_on_c, 1, 30, 0
3, 34320, Note_on_c, 1, 54, 80
3, 34352, Note_on_c, 1, 54, 0
3, 34360, Note_on_c, 1, 56, 80
3, 34392, Note_on_c, 1, 56, 0
3, 34400, Note_on_c, 1, 54, 80
3, 34432, Note_on_c, 1, 54, 0
3, 34440, Note_on_c, 1, 52, 80
3, 34440, Note_on_c, 1, 58, 80
3, 34512, Note_on_c, 1, 58, 0
3, 34512, Note_on_c, 1, 52, 0
3, 34560, Note_on_c, 1, 50, 85
3, 34678, Note_on_c, 1, 50, 0
3, 34680, Note_on_c, 1, 47, 85
3, 34752, Note_on_c, 1, 47, 0
3, 34800, Note_on_c, 1, 46, 85
3, 34918, Note_on_c, 1, 46, 0
3, 34920, Note_on_c, 1, 49, 85
3, 34992, Note_on_c, 1, 49, 0
3, 35038, Note_on_c, 1, 42, 0
3, 35040, Note_on_c, 1, 47, 85
3, 35278, Note_on_c, 1, 47, 0
3, 35880, Note_on_c, 1, 62, 85
3, 35880, Note_on_c, 1, 66, 85
3, 35928, Note_on_c, 1, 66, 0
3, 35928, Note_on_c, 1, 62, 0
3, 36000, Note_on_c, 1, 64, 85
3, 36000, Note_on_c, 1, 67, 85
3, 36118, Note_on_c, 1, 67, 0
3, 36118, Note_on_c, 1, 64, 0
3, 36120, Note_on_c, 1, 62, 85
3, 36120, Note_on_c, 1, 66, 85
3, 36168, Note_on_c, 1, 66, 0
3, 36168, Note_on_c, 1, 62, 0
3, 36840, Note_on_c, 1, 71, 85
3, 36840, Note_on_c, 1, 74, 85
3, 36888, Note_on_c, 1, 74, 0
3, 36888, Note_on_c, 1, 71, 0
3, 36960, Note_on_c, 1, 70, 85
3, 36960, Note_on_c, 1, 73, 85
3, 37078, Note_on_c, 1, 73, 0
3, 37078, Note_on_c, 1, 70, 0
3, 37080, Note_on_c, 1, 71, 85
3, 37080, Note_on_c, 1, 74, 85
3, 37128, Note_on_c, 1, 74, 0
3, 37128, Note_on_c, 1, 71, 0
3, 37680, Note_on_c, 1, 71, 85
3, 37680, Note_on_c, 1, 74, 85
3, 37728, Note_on_c, 1, 74, 0
3, 37728, Note_on_c, 1, 71, 0
3, 37800, Note_on_c, 1, 69, 85
3, 37800, Note_on_c, 1, 73, 85
3, 37848, Note_on_c, 1, 73, 0
3, 37848, Note_on_c, 1, 69, 0
3, 37920, Note_on_c, 1, 67, 85
3, 37920, Note_on_c, 1, 71, 85
3, 38038, Note_on_c, 1, 71, 0
3, 38038, Note_on_c, 1, 67, 0
3, 38040, Note_on_c, 1, 66, 85
3, 38040, Note_on_c, 1, 69, 85
3, 38088, Note_on_c, 1, 69, 0
3, 38088, Note_on_c, 1, 66, 0
3, 38400, Note_on_c, 1, 50, 85
3, 38880, Note_on_c, 1, 59, 85
3, 39358, Note_on_c, 1, 50, 0
3, 39360, Note_on_c, 1, 51, 85
3, 39418, Note_on_c, 1, 59, 0
3, 39420, Note_on_c, 1, 57, 85
3, 39478, Note_on_c, 1, 57, 0
3, 39480, Note_on_c, 1, 56, 85
3, 39538, Note_on_c, 1, 56, 0
3, 39540, Note_on_c, 1, 57, 85
3, 39598, Note_on_c, 1, 57, 0
3, 39600, Note_on_c, 1, 59, 85
3, 39658, Note_on_c, 1, 59, 0
3, 39660, Note_on_c, 1, 57, 85
3, 39718, Note_on_c, 1, 57, 0
3, 39720, Note_on_c, 1, 60, 85
3, 39778, Note_on_c, 1, 60, 0
3, 39780, Note_on_c, 1, 57, 85
3, 39838, Note_on_c, 1, 51, 0
3, 39840, Note_on_c, 1, 52, 85
3, 40078, Note_on_c, 1, 57, 0
3, 40080, Note_on_c, 1, 55, 85
3, 40318, Note_on_c, 1, 55, 0
3, 40318, Note_on_c, 1, 52, 0
3, 40380, Note_on_c, 1, 61, 85
3, 40438, Note_on_c, 1, 61, 0
3, 40440, Note_on_c, 1, 59, 85
3, 40498, Note_on_c, 1, 59, 0
3, 40500, Note_on_c, 1, 61, 85
3, 40558, Note_on_c, 1, 61, 0
3, 40560, Note_on_c, 1, 62, 85
3, 40618, Note_on_c, 1, 62, 0
3, 40620, Note_on_c, 1, 61, 85
3, 40678, Note_on_c, 1, 61, 0
3, 40680, Note_on_c, 1, 64, 85
3, 40738, Note_on_c, 1, 64, 0
3, 40740, Note_on_c, 1, 59, 85
3, 40798, Note_on_c, 1, 59, 0
3, 40800, Note_on_c, 1, 66, 85
3, 40800, Note_on_c, 1, 58, 85
3, 41278, Note_on_c, 1, 58, 0
3, 41280, Note_on_c, 1, 59, 85
3, 41518, Note_on_c, 1, 59, 0
3, 41518, Note_on_c, 1, 66, 0
3, 41520, Note_on_c, 1, 55, 85
3, 41520, Note_on_c, 1, 65, 85
3, 41758, Note_on_c, 1, 65, 0
3, 41758, Note_on_c, 1, 55, 0
3, 41760, Note_on_c, 1, 54, 85
3, 41760, Note_on_c, 1, 66, 85
3, 41998, Note_on_c, 1, 66, 0
3, 41998, Note_on_c, 1, 54, 0
3, 42240, Note_on_c, 1, 42, 96
3, 42478, Note_on_c, 1, 42, 0
3, 43320, Note_on_c, 1, 53, 64
3, 43438, Note_on_c, 1, 53, 0
3, 43440, Note_on_c, 1, 54, 64
3, 43536, Note_on_c, 1, 54, 0
3, 44280, Note_on_c, 1, 58, 64
3, 44398, Note_on_c, 1, 58, 0
3, 44400, Note_on_c, 1, 59, 64
3, 44496, Note_on_c, 1, 59, 0
3, 44760, Note_on_c, 1, 59, 85
3, 44878, Note_on_c, 1, 59, 0
3, 44880, Note_on_c, 1, 64, 85
3, 44928, Note_on_c, 1, 64, 0
3, 45000, Note_on_c, 1, 66, 85
3, 45048, Note_on_c, 1, 66, 0
3, 45120, Note_on_c, 1, 67, 85
3, 45358, Note_on_c, 1, 67, 0
3, 45480, Note_on_c, 1, 52, 85
3, 45598, Note_on_c, 1, 52, 0
3, 45600, Note_on_c, 1, 57, 85
3, 45648, Note_on_c, 1, 57, 0
3, 45720, Note_on_c, 1, 59, 85
3, 45768, Note_on_c, 1, 59, 0
3, 45840, Note_on_c, 1, 61, 85
3, 45888, Note_on_c, 1, 61, 0
3, 45960, Note_on_c, 1, 62, 85
3, 46008, Note_on_c, 1, 62, 0
3, 46080, Note_on_c, 1, 64, 85
3, 46318, Note_on_c, 1, 64, 0
3, 46440, Note_on_c, 1, 45, 85
3, 46558, Note_on_c, 1, 45, 0
3, 46560, Note_on_c, 1, 50, 85
3, 46608, Note_on_c, 1, 50, 0
3, 46680, Note_on_c, 1, 52, 85
3, 46728, Note_on_c, 1, 52, 0
3, 46800, Note_on_c, 1, 54, 85
3, 46848, Note_on_c, 1, 54, 0
3, 46920, Note_on_c, 1, 55, 85
3, 46968, Note_on_c, 1, 55, 0
3, 47040, Note_on_c, 1, 57, 85
3, 47278, Note_on_c, 1, 57, 0
3, 47400, Note_on_c, 1, 50, 85
3, 47518, Note_on_c, 1, 50, 0
3, 47520, Note_on_c, 1, 55, 85
3, 47758, Note_on_c, 1, 55, 0
3, 48000, Note_on_c, 1, 43, 85
3, 48238, Note_on_c, 1, 43, 0
3, 48480, Note_on_c, 1, 45, 85
3, 48538, Note_on_c, 1, 45, 0
3, 48540, Note_on_c, 1, 47, 85
3, 48598, Note_on_c, 1, 47, 0
3, 48600, Note_on_c, 1, 49, 85
3, 48658, Note_on_c, 1, 49, 0
3, 48660, Note_on_c, 1, 50, 85
3, 48718, Note_on_c, 1, 50, 0
3, 48720, Note_on_c, 1, 52, 85
3, 48778, Note_on_c, 1, 52, 0
3, 48780, Note_on_c, 1, 54, 85
3, 48838, Note_on_c, 1, 54, 0
3, 48840, Note_on_c, 1, 55, 85
3, 48898, Note_on_c, 1, 55, 0
3, 48900, Note_on_c, 1, 54, 85
3, 48958, Note_on_c, 1, 54, 0
3, 48960, Note_on_c, 1, 55, 85
3, 49198, Note_on_c, 1, 55, 0
3, 51840, Note_on_c, 1, 71, 85
3, 51898, Note_on_c, 1, 71, 0
3, 51900, Note_on_c, 1, 73, 85
3, 51958, Note_on_c, 1, 73, 0
3, 51960, Note_on_c, 1, 74, 85
3, 52018, Note_on_c, 1, 74, 0
3, 52020, Note_on_c, 1, 73, 85
3, 52078, Note_on_c, 1, 73, 0
3, 52080, Note_on_c, 1, 71, 85
3, 52138, Note_on_c, 1, 71, 0
3, 52140, Note_on_c, 1, 69, 85
3, 52198, Note_on_c, 1, 69, 0
3, 52200, Note_on_c, 1, 67, 85
3, 52258, Note_on_c, 1, 67, 0
3, 52260, Note_on_c, 1, 66, 85
3, 52318, Note_on_c, 1, 66, 0
3, 52320, Note_on_c, 1, 67, 85
3, 52378, Note_on_c, 1, 67, 0
3, 52380, Note_on_c, 1, 69, 85
3, 52438, Note_on_c, 1, 69, 0
3, 52440, Note_on_c, 1, 71, 85
3, 52498, Note_on_c, 1, 71, 0
3, 52500, Note_on_c, 1, 69, 85
3, 52558, Note_on_c, 1, 69, 0
3, 52560, Note_on_c, 1, 67, 85
3, 52618, Note_on_c, 1, 67, 0
3, 52620, Note_on_c, 1, 66, 85
3, 52678, Note_on_c, 1, 66, 0
3, 52680, Note_on_c, 1, 64, 85
3, 52738, Note_on_c, 1, 64, 0
3, 52740, Note_on_c, 1, 62, 85
3, 52798, Note_on_c, 1, 62, 0
3, 52800, Note_on_c, 1, 61, 85
3, 53158, Note_on_c, 1, 61, 0
3, 53160, Note_on_c, 1, 62, 85
3, 53278, Note_on_c, 1, 62, 0
3, 53280, Note_on_c, 1, 61, 85
3, 53398, Note_on_c, 1, 61, 0
3, 53400, Note_on_c, 1, 62, 85
3, 53518, Note_on_c, 1, 62, 0
3, 53520, Note_on_c, 1, 61, 85
3, 53638, Note_on_c, 1, 61, 0
3, 53640, Note_on_c, 1, 63, 85
3, 53758, Note_on_c, 1, 63, 0
3, 53760, Note_on_c, 1, 57, 85
3, 53760, Note_on_c, 1, 64, 85
3, 54118, Note_on_c, 1, 64, 0
3, 54120, Note_on_c, 1, 63, 85
3, 54238, Note_on_c, 1, 63, 0
3, 54240, Note_on_c, 1, 64, 85
3, 54358, Note_on_c, 1, 64, 0
3, 54360, Note_on_c, 1, 63, 85
3, 54478, Note_on_c, 1, 63, 0
3, 54480, Note_on_c, 1, 64, 85
3, 54598, Note_on_c, 1, 64, 0
3, 54600, Note_on_c, 1, 63, 85
3, 54718, Note_on_c, 1, 63, 0
3, 54720, Note_on_c, 1, 64, 80
3, 54898, Note_on_c, 1, 64, 0
3, 54900, Note_on_c, 1, 63, 74
3, 54958, Note_on_c, 1, 63, 0
3, 54960, Note_on_c, 1, 64, 72
3, 55138, Note_on_c, 1, 64, 0
3, 55140, Note_on_c, 1, 63, 66
3, 55198, Note_on_c, 1, 63, 0
3, 55200, Note_on_c, 1, 64, 64
3, 55378, Note_on_c, 1, 64, 0
3, 55380, Note_on_c, 1, 63, 58
3, 55438, Note_on_c, 1, 63, 0
3, 55440, Note_on_c, 1, 64, 56
3, 55498, Note_on_c, 1, 64, 0
3, 55500, Note_on_c, 1, 63, 54
3, 55558, Note_on_c, 1, 63, 0
3, 55560, Note_on_c, 1, 64, 52
3, 55618, Note_on_c, 1, 64, 0
3, 55620, Note_on_c, 1, 63, 50
3, 55678, Note_on_c, 1, 63, 0
3, 55680, Note_on_c, 1, 64, 48
3, 55918, Note_on_c, 1, 64, 0
3, 55918, Note_on_c, 1, 57, 0
3, 56160, Note_on_c, 1, 57, 48
3, 56190, Note_on_c, 1, 61, 48
3, 56220, Note_on_c, 1, 64, 48
3, 56250, Note_on_c, 1, 67, 48
3, 56664, Note_on_c, 1, 67, 0
3, 56664, Note_on_c, 1, 57, 0
3, 56664, Note_on_c, 1, 61, 0
3, 56664, Note_on_c, 1, 64, 0
3, 57120, Note_on_c, 1, 50, 85
3, 57120, Note_on_c, 1, 38, 85
3, 57358, Note_on_c, 1, 38, 0
3, 57358, Note_on_c, 1, 50, 0
3, 57480, Note_on_c, 1, 66, 85
3, 57480, Note_on_c, 1, 62, 85
3, 57552, Note_on_c, 1, 62, 0
3, 57552, Note_on_c, 1, 66, 0
3, 57600, Note_on_c, 1, 67, 85
3, 57600, Note_on_c, 1, 62, 85
3, 57672, Note_on_c, 1, 62, 0
3, 57672, Note_on_c, 1, 67, 0
3, 57720, Note_on_c, 1, 62, 85
3, 57720, Note_on_c, 1, 66, 85
3, 57768, Note_on_c, 1, 66, 0
3, 57768, Note_on_c, 1, 62, 0
3, 58080, Note_on_c, 1, 50, 85
3, 58080, Note_on_c, 1, 38, 85
3, 58318, Note_on_c, 1, 38, 0
3, 58318, Note_on_c, 1, 50, 0
3, 58440, Note_on_c, 1, 62, 85
3, 58512, Note_on_c, 1, 62, 0
3, 58560, Note_on_c, 1, 57, 85
3, 58632, Note_on_c, 1, 57, 0
3, 58680, Note_on_c, 1, 62, 85
3, 58728, Note_on_c, 1, 62, 0
3, 59160, Note_on_c, 1, 62, 85
3, 59160, Note_on_c, 1, 54, 85
3, 59208, Note_on_c, 1, 54, 0
3, 59208, Note_on_c, 1, 62, 0
3, 59280, Note_on_c, 1, 62, 85
3, 59280, Note_on_c, 1, 54, 85
3, 59376, Note_on_c, 1, 54, 0
3, 59376, Note_on_c, 1, 62, 0
3, 59640, Note_on_c, 1, 62, 85
3, 59640, Note_on_c, 1, 55, 85
3, 59688, Note_on_c, 1, 55, 0
3, 59688, Note_on_c, 1, 62, 0
3, 59760, Note_on_c, 1, 62, 85
3, 59760, Note_on_c, 1, 55, 85
3, 59856, Note_on_c, 1, 55, 0
3, 59856, Note_on_c, 1, 62, 0
3, 60000, Note_on_c, 1, 57, 85
3, 60096, Note_on_c, 1, 57, 0
3, 60240, Note_on_c, 1, 45, 85
3, 60336, Note_on_c, 1, 45, 0
3, 60480, Note_on_c, 1, 50, 85
3, 60718, Note_on_c, 1, 50, 0
3, 60720, Note_on_c, 1, 38, 85
3, 60768, Note_on_c, 1, 38, 0
3, 61080, Note_on_c, 1, 62, 85
3, 61080, Note_on_c, 1, 54, 85
3, 61128, Note_on_c, 1, 54, 0
3, 61128, Note_on_c, 1, 62, 0
3, 61200, Note_on_c, 1, 62, 85
3, 61200, Note_on_c, 1, 54, 85
3, 61296, Note_on_c, 1, 54, 0
3, 61296, Note_on_c, 1, 62, 0
3, 61560, Note_on_c, 1, 62, 85
3, 61560, Note_on_c, 1, 55, 85
3, 61608, Note_on_c, 1, 55, 0
3, 61608, Note_on_c, 1, 62, 0
3, 61680, Note_on_c, 1, 62, 85
3, 61680, Note_on_c, 1, 55, 85
3, 61776, Note_on_c, 1, 55, 0
3, 61776, Note_on_c, 1, 62, 0
3, 61920, Note_on_c, 1, 57, 85
3, 62038, Note_on_c, 1, 57, 0
3, 62160, Note_on_c, 1, 45, 85
3, 62278, Note_on_c, 1, 45, 0
3, 62400, Note_on_c, 1, 38, 85
3, 62638, Note_on_c, 1, 38, 0
3, 63480, Note_on_c, 1, 56, 64
3, 63598, Note_on_c, 1, 56, 0
3, 63600, Note_on_c, 1, 57, 64
3, 63696, Note_on_c, 1, 57, 0
3, 64440, Note_on_c, 1, 58, 64
3, 64558, Note_on_c, 1, 58, 0
3, 64560, Note_on_c, 1, 59, 64
3, 64656, Note_on_c, 1, 59, 0
3, 65280, Note_on_c, 1, 55, 72
3, 65338, Note_on_c, 1, 55, 0
3, 65340, Note_on_c, 1, 62, 72
3, 65398, Note_on_c, 1, 62, 0
3, 65400, Note_on_c, 1, 55, 72
3, 65458, Note_on_c, 1, 55, 0
3, 65460, Note_on_c, 1, 62, 72
3, 65518, Note_on_c, 1, 62, 0
3, 65520, Note_on_c, 1, 54, 72
3, 65578, Note_on_c, 1, 54, 0
3, 65580, Note_on_c, 1, 62, 72
3, 65638, Note_on_c, 1, 62, 0
3, 65640, Note_on_c, 1, 54, 72
3, 65698, Note_on_c, 1, 54, 0
3, 65700, Note_on_c, 1, 62, 72
3, 65758, Note_on_c, 1, 62, 0
3, 65760, Note_on_c, 1, 59, 72
3, 65818, Note_on_c, 1, 59, 0
3, 65820, Note_on_c, 1, 62, 72
3, 65878, Note_on_c, 1, 62, 0
3, 65880, Note_on_c, 1, 59, 72
3, 65938, Note_on_c, 1, 59, 0
3, 65940, Note_on_c, 1, 62, 72
3, 65998, Note_on_c, 1, 62, 0
3, 66000, Note_on_c, 1, 57, 72
3, 66058, Note_on_c, 1, 57, 0
3, 66060, Note_on_c, 1, 62, 72
3, 66118, Note_on_c, 1, 62, 0
3, 66120, Note_on_c, 1, 57, 72
3, 66178, Note_on_c, 1, 57, 0
3, 66180, Note_on_c, 1, 62, 72
3, 66238, Note_on_c, 1, 62, 0
3, 66240, Note_on_c, 1, 55, 48
3, 66298, Note_on_c, 1, 55, 0
3, 66300, Note_on_c, 1, 62, 48
3, 66358, Note_on_c, 1, 62, 0
3, 66360, Note_on_c, 1, 55, 48
3, 66418, Note_on_c, 1, 55, 0
3, 66420, Note_on_c, 1, 62, 48
3, 66478, Note_on_c, 1, 62, 0
3, 66480, Note_on_c, 1, 54, 48
3, 66538, Note_on_c, 1, 54, 0
3, 66540, Note_on_c, 1, 62, 48
3, 66598, Note_on_c, 1, 62, 0
3, 66600, Note_on_c, 1, 54, 48
3, 66658, Note_on_c, 1, 54, 0
3, 66660, Note_on_c, 1, 62, 48
3, 66718, Note_on_c, 1, 62, 0
3, 66720, Note_on_c, 1, 59, 48
3, 66778, Note_on_c, 1, 59, 0
3, 66780, Note_on_c, 1, 62, 48
3, 66838, Note_on_c, 1, 62, 0
3, 66840, Note_on_c, 1, 59, 48
3, 66898, Note_on_c, 1, 59, 0
3, 66900, Note_on_c, 1, 62, 48
3, 66958, Note_on_c, 1, 62, 0
3, 66960, Note_on_c, 1, 57, 48
3, 67018, Note_on_c, 1, 57, 0
3, 67020, Note_on_c, 1, 62, 48
3, 67078, Note_on_c, 1, 62, 0
3, 67080, Note_on_c, 1, 57, 48
3, 67138, Note_on_c, 1, 57, 0
3, 67140, Note_on_c, 1, 62, 48
3, 67198, Note_on_c, 1, 62, 0
3, 67200, Note_on_c, 1, 55, 48
3, 67438, Note_on_c, 1, 55, 0
3, 67560, Note_on_c, 1, 43, 72
3, 67560, Note_on_c, 1, 55, 72
3, 67678, Note_on_c, 1, 55, 0
3, 67678, Note_on_c, 1, 43, 0
3, 67680, Note_on_c, 1, 45, 85
3, 67680, Note_on_c, 1, 54, 85
3, 68158, Note_on_c, 1, 54, 0
3, 68160, Note_on_c, 1, 52, 68
3, 68278, Note_on_c, 1, 52, 0
3, 68278, Note_on_c, 1, 45, 0
3, 68640, Note_on_c, 1, 45, 85
3, 68640, Note_on_c, 1, 49, 85
3, 68640, Note_on_c, 1, 52, 85
3, 68640, Note_on_c, 1, 55, 85
3, 68736, Note_on_c, 1, 55, 0
3, 68736, Note_on_c, 1, 45, 0
3, 68736, Note_on_c, 1, 49, 0
3, 68736, Note_on_c, 1, 52, 0
3, 68880, Note_on_c, 1, 45, 85
3, 68880, Note_on_c, 1, 49, 85
3, 68880, Note_on_c, 1, 52, 85
3, 68880, Note_on_c, 1, 55, 85
3, 68976, Note_on_c, 1, 55, 0
3, 68976, Note_on_c, 1, 45, 0
3, 68976, Note_on_c, 1, 49, 0
3, 68976, Note_on_c, 1, 52, 0
3, 69120, Note_on_c, 1, 45, 85
3, 69120, Note_on_c, 1, 49, 85
3, 69120, Note_on_c, 1, 52, 85
3, 69120, Note_on_c, 1, 55, 85
3, 69238, Note_on_c, 1, 55, 0
3, 69238, Note_on_c, 1, 45, 0
3, 69238, Note_on_c, 1, 49, 0
3, 69238, Note_on_c, 1, 52, 0
3, 69600, Note_on_c, 1, 45, 85
3, 69658, Note_on_c, 1, 45, 0
3, 69660, Note_on_c, 1, 52, 85
3, 69718, Note_on_c, 1, 52, 0
3, 69720, Note_on_c, 1, 50, 85
3, 69778, Note_on_c, 1, 50, 0
3, 69780, Note_on_c, 1, 52, 85
3, 69838, Note_on_c, 1, 52, 0
3, 69840, Note_on_c, 1, 49, 85
3, 69898, Note_on_c, 1, 49, 0
3, 69900, Note_on_c, 1, 52, 85
3, 69924, Note_on_c, 1, 52, 0
3, 69960, Note_on_c, 1, 45, 85
3, 69984, Note_on_c, 1, 45, 0
3, 70020, Note_on_c, 1, 49, 85
3, 70044, Note_on_c, 1, 49, 0
3, 70080, Note_on_c, 1, 50, 85
3, 70318, Note_on_c, 1, 50, 0
3, 70560, Note_on_c, 1, 50, 85
3, 70618, Note_on_c, 1, 50, 0
3, 70620, Note_on_c, 1, 57, 85
3, 70678, Note_on_c, 1, 57, 0
3, 70680, Note_on_c, 1, 55, 85
3, 70738, Note_on_c, 1, 55, 0
3, 70740, Note_on_c, 1, 57, 85
3, 70798, Note_on_c, 1, 57, 0
3, 70800, Note_on_c, 1, 54, 85
3, 70858, Note_on_c, 1, 54, 0
3, 70860, Note_on_c, 1, 57, 85
3, 70884, Note_on_c, 1, 57, 0
3, 70920, Note_on_c, 1, 50, 85
3, 70944, Note_on_c, 1, 50, 0
3, 70980, Note_on_c, 1, 54, 85
3, 71004, Note_on_c, 1, 54, 0
3, 71040, Note_on_c, 1, 55, 85
3, 71278, Note_on_c, 1, 55, 0
3, 71520, Note_on_c, 1, 52, 85
3, 71578, Note_on_c, 1, 52, 0
3, 71580, Note_on_c, 1, 59, 85
3, 71638, Note_on_c, 1, 59, 0
3, 71640, Note_on_c, 1, 57, 85
3, 71698, Note_on_c, 1, 57, 0
3, 71700, Note_on_c, 1, 59, 85
3, 71758, Note_on_c, 1, 59, 0
3, 71760, Note_on_c, 1, 56, 85
3, 71818, Note_on_c, 1, 56, 0
3, 71820, Note_on_c, 1, 59, 85
3, 71844, Note_on_c, 1, 59, 0
3, 71880, Note_on_c, 1, 52, 85
3, 71904, Note_on_c, 1, 52, 0
3, 71940, Note_on_c, 1, 56, 85
3, 71964, Note_on_c, 1, 56, 0
3, 72000, Note_on_c, 1, 57, 85
3, 72238, Note_on_c, 1, 57, 0
3, 72480, Note_on_c, 1, 59, 56
3, 72538, Note_on_c, 1, 59, 0
3, 72540, Note_on_c, 1, 65, 58
3, 72598, Note_on_c, 1, 65, 0
3, 72600, Note_on_c, 1, 59, 60
3, 72658, Note_on_c, 1, 59, 0
3, 72660, Note_on_c, 1, 65, 62
3, 72718, Note_on_c, 1, 65, 0
3, 72720, Note_on_c, 1, 59, 64
3, 72778, Note_on_c, 1, 59, 0
3, 72780, Note_on_c, 1, 65, 66
3, 72838, Note_on_c, 1, 65, 0
3, 72840, Note_on_c, 1, 59, 68
3, 72898, Note_on_c, 1, 59, 0
3, 72900, Note_on_c, 1, 65, 70
3, 72958, Note_on_c, 1, 65, 0
3, 72960, Note_on_c, 1, 61, 80
3, 73018, Note_on_c, 1, 61, 0
3, 73020, Note_on_c, 1, 64, 64
3, 73078, Note_on_c, 1, 64, 0
3, 73080, Note_on_c, 1, 61, 64
3, 73138, Note_on_c, 1, 61, 0
3, 73140, Note_on_c, 1, 64, 64
3, 73198, Note_on_c, 1, 64, 0
3, 73200, Note_on_c, 1, 61, 64
3, 73258, Note_on_c, 1, 61, 0
3, 73260, Note_on_c, 1, 64, 64
3, 73318, Note_on_c, 1, 64, 0
3, 73320, Note_on_c, 1, 61, 64
3, 73378, Note_on_c, 1, 61, 0
3, 73380, Note_on_c, 1, 64, 64
3, 73438, Note_on_c, 1, 64, 0
3, 73440, Note_on_c, 1, 59, 56
3, 73498, Note_on_c, 1, 59, 0
3, 73500, Note_on_c, 1, 65, 58
3, 73558, Note_on_c, 1, 65, 0
3, 73560, Note_on_c, 1, 59, 60
3, 73618, Note_on_c, 1, 59, 0
3, 73620, Note_on_c, 1, 65, 62
3, 73678, Note_on_c, 1, 65, 0
3, 73680, Note_on_c, 1, 59, 64
3, 73738, Note_on_c, 1, 59, 0
3, 73740, Note_on_c, 1, 65, 66
3, 73798, Note_on_c, 1, 65, 0
3, 73800, Note_on_c, 1, 59, 68
3, 73858, Note_on_c, 1, 59, 0
3, 73860, Note_on_c, 1, 65, 70
3, 73918, Note_on_c, 1, 65, 0
3, 73920, Note_on_c, 1, 61, 85
3, 73978, Note_on_c, 1, 61, 0
3, 73980, Note_on_c, 1, 64, 64
3, 74038, Note_on_c, 1, 64, 0
3, 74040, Note_on_c, 1, 61, 64
3, 74098, Note_on_c, 1, 61, 0
3, 74100, Note_on_c, 1, 64, 64
3, 74158, Note_on_c, 1, 64, 0
3, 74160, Note_on_c, 1, 61, 64
3, 74218, Note_on_c, 1, 61, 0
3, 74220, Note_on_c, 1, 64, 64
3, 74278, Note_on_c, 1, 64, 0
3, 74280, Note_on_c, 1, 61, 64
3, 74338, Note_on_c, 1, 61, 0
3, 74340, Note_on_c, 1, 64, 64
3, 74398, Note_on_c, 1, 64, 0
3, 74400, Note_on_c, 1, 62, 64
3, 74458, Note_on_c, 1, 62, 0
3, 74460, Note_on_c, 1, 66, 64
3, 74518, Note_on_c, 1, 66, 0
3, 74520, Note_on_c, 1, 62, 64
3, 74578, Note_on_c, 1, 62, 0
3, 74580, Note_on_c, 1, 66, 64
3, 74638, Note_on_c, 1, 66, 0
3, 74640, Note_on_c, 1, 62, 64
3, 74698, Note_on_c, 1, 62, 0
3, 74700, Note_on_c, 1, 66, 64
3, 74758, Note_on_c, 1, 66, 0
3, 74760, Note_on_c, 1, 62, 64
3, 74818, Note_on_c, 1, 62, 0
3, 74820, Note_on_c, 1, 66, 64
3, 74878, Note_on_c, 1, 66, 0
3, 74880, Note_on_c, 1, 64, 64
3, 74938, Note_on_c, 1, 64, 0
3, 74940, Note_on_c, 1, 67, 64
3, 74998, Note_on_c, 1, 67, 0
3, 75000, Note_on_c, 1, 64, 64
3, 75058, Note_on_c, 1, 64, 0
3, 75060, Note_on_c, 1, 67, 64
3, 75118, Note_on_c, 1, 67, 0
3, 75120, Note_on_c, 1, 64, 64
3, 75178, Note_on_c, 1, 64, 0
3, 75180, Note_on_c, 1, 67, 64
3, 75238, Note_on_c, 1, 67, 0
3, 75240, Note_on_c, 1, 64, 64
3, 75298, Note_on_c, 1, 64, 0
3, 75300, Note_on_c, 1, 67, 64
3, 75358, Note_on_c, 1, 67, 0
3, 75360, Note_on_c, 1, 66, 64
3, 75418, Note_on_c, 1, 66, 0
3, 75420, Note_on_c, 1, 69, 65
3, 75478, Note_on_c, 1, 69, 0
3, 75480, Note_on_c, 1, 66, 66
3, 75538, Note_on_c, 1, 66, 0
3, 75540, Note_on_c, 1, 69, 67
3, 75598, Note_on_c, 1, 69, 0
3, 75600, Note_on_c, 1, 66, 68
3, 75658, Note_on_c, 1, 66, 0
3, 75660, Note_on_c, 1, 69, 69
3, 75718, Note_on_c, 1, 69, 0
3, 75720, Note_on_c, 1, 66, 70
3, 75778, Note_on_c, 1, 66, 0
3, 75780, Note_on_c, 1, 69, 71
3, 75838, Note_on_c, 1, 69, 0
3, 75840, Note_on_c, 1, 61, 72
3, 75898, Note_on_c, 1, 61, 0
3, 75900, Note_on_c, 1, 69, 73
3, 75958, Note_on_c, 1, 69, 0
3, 75960, Note_on_c, 1, 61, 74
3, 76018, Note_on_c, 1, 61, 0
3, 76020, Note_on_c, 1, 69, 75
3, 76078, Note_on_c, 1, 69, 0
3, 76080, Note_on_c, 1, 61, 76
3, 76138, Note_on_c, 1, 61, 0
3, 76140, Note_on_c, 1, 69, 77
3, 76198, Note_on_c, 1, 69, 0
3, 76200, Note_on_c, 1, 61, 78
3, 76258, Note_on_c, 1, 61, 0
3, 76260, Note_on_c, 1, 69, 79
3, 76318, Note_on_c, 1, 69, 0
3, 76320, Note_on_c, 1, 62, 85
3, 76558, Note_on_c, 1, 62, 0
3, 76800, Note_on_c, 1, 61, 85
3, 76800, Note_on_c, 1, 64, 85
3, 77038, Note_on_c, 1, 64, 0
3, 77038, Note_on_c, 1, 61, 0
3, 77280, Note_on_c, 1, 50, 85
3, 77518, Note_on_c, 1, 50, 0
3, 77760, Note_on_c, 1, 57, 85
3, 77818, Note_on_c, 1, 57, 0
3, 77820, Note_on_c, 1, 56, 85
3, 77878, Note_on_c, 1, 56, 0
3, 77880, Note_on_c, 1, 57, 85
3, 77938, Note_on_c, 1, 57, 0
3, 77940, Note_on_c, 1, 59, 85
3, 77998, Note_on_c, 1, 59, 0
3, 78000, Note_on_c, 1, 57, 85
3, 78058, Note_on_c, 1, 57, 0
3, 78060, Note_on_c, 1, 55, 85
3, 78118, Note_on_c, 1, 55, 0
3, 78120, Note_on_c, 1, 54, 85
3, 78178, Note_on_c, 1, 54, 0
3, 78180, Note_on_c, 1, 52, 85
3, 78238, Note_on_c, 1, 52, 0
3, 78240, Note_on_c, 1, 50, 85
3, 78478, Note_on_c, 1, 50, 0
3, 78720, Note_on_c, 1, 67, 85
3, 78958, Note_on_c, 1, 67, 0
3, 79200, Note_on_c, 1, 55, 85
3, 79438, Note_on_c, 1, 55, 0
3, 80280, Note_on_c, 1, 62, 85
3, 80280, Note_on_c, 1, 54, 85
3, 80398, Note_on_c, 1, 54, 0
3, 80400, Note_on_c, 1, 55, 85
3, 80518, Note_on_c, 1, 55, 0
3, 80518, Note_on_c, 1, 62, 0
3, 80520, Note_on_c, 1, 57, 85
3, 80520, Note_on_c, 1, 61, 85
3, 80638, Note_on_c, 1, 61, 0
3, 80638, Note_on_c, 1, 57, 0
3, 80640, Note_on_c, 1, 62, 85
3, 80758, Note_on_c, 1, 62, 0
3, 80880, Note_on_c, 1, 66, 85
3, 80998, Note_on_c, 1, 66, 0
3, 81120, Note_on_c, 1, 67, 85
3, 81178, Note_on_c, 1, 67, 0
3, 81180, Note_on_c, 1, 69, 85
3, 81238, Note_on_c, 1, 69, 0
3, 81240, Note_on_c, 1, 71, 85
3, 81298, Note_on_c, 1, 71, 0
3, 81300, Note_on_c, 1, 69, 85
3, 81358, Note_on_c, 1, 69, 0
3, 81360, Note_on_c, 1, 67, 85
3, 81418, Note_on_c, 1, 67, 0
3, 81420, Note_on_c, 1, 66, 85
3, 81478, Note_on_c, 1, 66, 0
3, 81480, Note_on_c, 1, 64, 85
3, 81538, Note_on_c, 1, 64, 0
3, 81540, Note_on_c, 1, 62, 85
3, 81598, Note_on_c, 1, 62, 0
3, 81600, Note_on_c, 1, 61, 85
3, 81718, Note_on_c, 1, 61, 0
3, 81840, Note_on_c, 1, 64, 85
3, 81958, Note_on_c, 1, 64, 0
3, 82080, Note_on_c, 1, 66, 85
3, 82138, Note_on_c, 1, 66, 0
3, 82140, Note_on_c, 1, 67, 85
3, 82198, Note_on_c, 1, 67, 0
3, 82200, Note_on_c, 1, 69, 85
3, 82258, Note_on_c, 1, 69, 0
3, 82260, Note_on_c, 1, 67, 85
3, 82318, Note_on_c, 1, 67, 0
3, 82320, Note_on_c, 1, 66, 85
3, 82378, Note_on_c, 1, 66, 0
3, 82380, Note_on_c, 1, 64, 85
3, 82438, Note_on_c, 1, 64, 0
3, 82440, Note_on_c, 1, 62, 85
3, 82498, Note_on_c, 1, 62, 0
3, 82500, Note_on_c, 1, 61, 85
3, 82558, Note_on_c, 1, 61, 0
3, 82560, Note_on_c, 1, 59, 85
3, 82678, Note_on_c, 1, 59, 0
3, 82800, Note_on_c, 1, 62, 85
3, 82918, Note_on_c, 1, 62, 0
3, 83040, Note_on_c, 1, 64, 85
3, 83098, Note_on_c, 1, 64, 0
3, 83100, Note_on_c, 1, 66, 85
3, 83158, Note_on_c, 1, 66, 0
3, 83160, Note_on_c, 1, 67, 85
3, 83218, Note_on_c, 1, 67, 0
3, 83220, Note_on_c, 1, 66, 85
3, 83278, Note_on_c, 1, 66, 0
3, 83280, Note_on_c, 1, 64, 85
3, 83338, Note_on_c, 1, 64, 0
3, 83340, Note_on_c, 1, 62, 85
3, 83398, Note_on_c, 1, 62, 0
3, 83400, Note_on_c, 1, 61, 85
3, 83458, Note_on_c, 1, 61, 0
3, 83460, Note_on_c, 1, 59, 85
3, 83518, Note_on_c, 1, 59, 0
3, 83520, Note_on_c, 1, 57, 85
3, 83638, Note_on_c, 1, 57, 0
3, 83760, Note_on_c, 1, 61, 85
3, 83878, Note_on_c, 1, 61, 0
3, 84000, Note_on_c, 1, 62, 85
3, 84238, Note_on_c, 1, 62, 0
3, 84480, Note_on_c, 1, 55, 85
3, 84718, Note_on_c, 1, 55, 0
3, 84960, Note_on_c, 1, 43, 85
3, 85198, Note_on_c, 1, 43, 0
3, 88320, Note_on_c, 1, 57, 64
3, 88320, Note_on_c, 1, 62, 64
3, 88320, Note_on_c, 1, 66, 64
3, 88368, Note_on_c, 1, 66, 0
3, 88368, Note_on_c, 1, 62, 0
3, 88368, Note_on_c, 1, 57, 0
3, 88440, Note_on_c, 1, 57, 64
3, 88440, Note_on_c, 1, 62, 64
3, 88440, Note_on_c, 1, 66, 64
3, 88488, Note_on_c, 1, 66, 0
3, 88488, Note_on_c, 1, 62, 0
3, 88488, Note_on_c, 1, 57, 0
3, 88560, Note_on_c, 1, 57, 64
3, 88560, Note_on_c, 1, 62, 64
3, 88560, Note_on_c, 1, 66, 64
3, 88608, Note_on_c, 1, 66, 0
3, 88608, Note_on_c, 1, 62, 0
3, 88608, Note_on_c, 1, 57, 0
3, 88680, Note_on_c, 1, 57, 64
3, 88680, Note_on_c, 1, 62, 64
3, 88680, Note_on_c, 1, 66, 64
3, 88798, Note_on_c, 1, 66, 0
3, 88798, Note_on_c, 1, 62, 0
3, 88798, Note_on_c, 1, 57, 0
3, 88800, Note_on_c, 1, 57, 64
3, 88800, Note_on_c, 1, 61, 64
3, 88848, Note_on_c, 1, 61, 0
3, 88848, Note_on_c, 1, 57, 0
3, 88920, Note_on_c, 1, 57, 68
3, 88920, Note_on_c, 1, 61, 68
3, 88968, Note_on_c, 1, 61, 0
3, 88968, Note_on_c, 1, 57, 0
3, 89040, Note_on_c, 1, 57, 72
3, 89040, Note_on_c, 1, 61, 72
3, 89088, Note_on_c, 1, 61, 0
3, 89088, Note_on_c, 1, 57, 0
3, 89160, Note_on_c, 1, 57, 76
3, 89160, Note_on_c, 1, 61, 76
3, 89278, Note_on_c, 1, 61, 0
3, 89278, Note_on_c, 1, 57, 0
3, 89280, Note_on_c, 1, 50, 85
3, 89338, Note_on_c, 1, 50, 0
3, 89340, Note_on_c, 1, 62, 85
3, 89398, Note_on_c, 1, 62, 0
3, 89400, Note_on_c, 1, 61, 85
3, 89458, Note_on_c, 1, 61, 0
3, 89460, Note_on_c, 1, 62, 85
3, 89518, Note_on_c, 1, 62, 0
3, 89520, Note_on_c, 1, 54, 85
3, 89578, Note_on_c, 1, 54, 0
3, 89580, Note_on_c, 1, 62, 85
3, 89638, Note_on_c, 1, 62, 0
3, 89640, Note_on_c, 1, 61, 85
3, 89698, Note_on_c, 1, 61, 0
3, 89700, Note_on_c, 1, 62, 85
3, 89758, Note_on_c, 1, 62, 0
3, 89760, Note_on_c, 1, 55, 85
3, 89818, Note_on_c, 1, 55, 0
3, 89820, Note_on_c, 1, 62, 85
3, 89878, Note_on_c, 1, 62, 0
3, 89880, Note_on_c, 1, 54, 85
3, 89938, Note_on_c, 1, 54, 0
3, 89940, Note_on_c, 1, 62, 85
3, 89998, Note_on_c, 1, 62, 0
3, 90000, Note_on_c, 1, 55, 85
3, 90058, Note_on_c, 1, 55, 0
3, 90060, Note_on_c, 1, 62, 85
3, 90118, Note_on_c, 1, 62, 0
3, 90120, Note_on_c, 1, 54, 85
3, 90178, Note_on_c, 1, 54, 0
3, 90180, Note_on_c, 1, 62, 85
3, 90238, Note_on_c, 1, 62, 0
3, 90240, Note_on_c, 1, 52, 88
3, 90240, Note_on_c, 1, 61, 88
3, 90478, Note_on_c, 1, 61, 0
3, 90478, Note_on_c, 1, 52, 0
3, 90600, Note_on_c, 1, 50, 85
3, 90600, Note_on_c, 1, 62, 85
3, 90660, Note_on_c, 1, 62, 0
3, 90660, Note_on_c, 1, 50, 0
3, 90720, Note_on_c, 1, 55, 85
3, 90720, Note_on_c, 1, 59, 85
3, 90838, Note_on_c, 1, 59, 0
3, 90838, Note_on_c, 1, 55, 0
3, 90960, Note_on_c, 1, 45, 85
3, 90960, Note_on_c, 1, 57, 85
3, 91078, Note_on_c, 1, 57, 0
3, 91078, Note_on_c, 1, 45, 0
3, 91200, Note_on_c, 1, 50, 48
3, 91258, Note_on_c, 1, 50, 0
3, 91260, Note_on_c, 1, 62, 48
3, 91318, Note_on_c, 1, 62, 0
3, 91320, Note_on_c, 1, 61, 48
3, 91378, Note_on_c, 1, 61, 0
3, 91380, Note_on_c, 1, 62, 48
3, 91438, Note_on_c, 1, 62, 0
3, 91440, Note_on_c, 1, 54, 48
3, 91498, Note_on_c, 1, 54, 0
3, 91500, Note_on_c, 1, 62, 48
3, 91558, Note_on_c, 1, 62, 0
3, 91560, Note_on_c, 1, 61, 48
3, 91618, Note_on_c, 1, 61, 0
3, 91620, Note_on_c, 1, 62, 48
3, 91678, Note_on_c, 1, 62, 0
3, 91680, Note_on_c, 1, 55, 48
3, 91738, Note_on_c, 1, 55, 0
3, 91740, Note_on_c, 1, 62, 48
3, 91798, Note_on_c, 1, 62, 0
3, 91800, Note_on_c, 1, 54, 48
3, 91858, Note_on_c, 1, 54, 0
3, 91860, Note_on_c, 1, 62, 48
3, 91918, Note_on_c, 1, 62, 0
3, 91920, Note_on_c, 1, 55, 48
3, 91978, Note_on_c, 1, 55, 0
3, 91980, Note_on_c, 1, 62, 48
3, 92038, Note_on_c, 1, 62, 0
3, 92040, Note_on_c, 1, 54, 48
3, 92098, Note_on_c, 1, 54, 0
3, 92100, Note_on_c, 1, 62, 48
3, 92158, Note_on_c, 1, 62, 0
3, 92160, Note_on_c, 1, 52, 64
3, 92160, Note_on_c, 1, 61, 64
3, 92398, Note_on_c, 1, 61, 0
3, 92398, Note_on_c, 1, 52, 0
3, 92520, Note_on_c, 1, 50, 48
3, 92520, Note_on_c, 1, 62, 48
3, 92580, Note_on_c, 1, 62, 0
3, 92580, Note_on_c, 1, 50, 0
3, 92640, Note_on_c, 1, 55, 48
3, 92640, Note_on_c, 1, 59, 48
3, 92760, Note_on_c, 1, 59, 0
3, 92760, Note_on_c, 1, 55, 0
3, 92880, Note_on_c, 1, 45, 48
3, 92880, Note_on_c, 1, 57, 48
3, 93000, Note_on_c, 1, 57, 0
3, 93000, Note_on_c, 1, 45, 0
3, 93120, Note_on_c, 1, 38, 48
3, 93120, Note_on_c, 1, 50, 48
3, 93240, Note_on_c, 1, 50, 0
3, 93240, Note_on_c, 1, 38, 0
3, 93360, Note_on_c, 1, 45, 48
3, 93360, Note_on_c, 1, 55, 48
3, 93480, Note_on_c, 1, 55, 0
3, 93480, Note_on_c, 1, 45, 0
3, 93600, Note_on_c, 1, 45, 48
3, 93600, Note_on_c, 1, 54, 48
3, 93720, Note_on_c, 1, 54, 0
3, 93720, Note_on_c, 1, 45, 0
3, 93840, Note_on_c, 1, 45, 44
3, 93840, Note_on_c, 1, 52, 44
3, 93960, Note_on_c, 1, 52, 0
3, 93960, Note_on_c, 1, 45, 0
3, 94080, Note_on_c, 1, 38, 32
3, 94080, Note_on_c, 1, 50, 32
3, 94318, Note_on_c, 1, 50, 0
3, 94318, Note_on_c, 1, 38, 0
3, 94318, End_track
4, 0, Start_track
4, 0, MIDI_port, 0
4, 0, Title_t, "MIDI by Marty Weimer 7/6/96"
4, 0, End_track
5, 0, Start_track
5, 0, MIDI_port, 0
5, 0, Title_t, "weimermt@libby.org  Eureka, MT  USA"
5, 0, End_track
0, 0, End_of_file
