0, 0, Header, 1, 5, 240
1, 0, Start_track
1, 0, Time_signature, 3, 2, 24, 8
1, 0, Key_signature, 0, "major"
1, 0, Tempo, 1333333
1, 960, Tempo, 1276596
1, 1200, Tempo, 1200000
1, 1440, Tempo, 1333333
1, 2400, Tempo, 1276596
1, 2640, Tempo, 1200000
1, 2880, Tempo, 1333333
1, 3120, Tempo, 1304348
1, 3360, Tempo, 1276596
1, 3600, Tempo, 1333333
1, 3840, Tempo, 1304348
1, 4080, Tempo, 1276596
1, 4320, Tempo, 1250000
1, 4560, Tempo, 1276596
1, 4800, Tempo, 1304348
1, 5040, Tempo, 1333333
1, 6000, Tempo, 1276596
1, 6240, Tempo, 1250000
1, 6480, Tempo, 1333333
1, 6720, Tempo, 1304348
1, 6960, Tempo, 1276596
1, 7200, Tempo, 1333333
1, 7440, Tempo, 1304348
1, 7680, Tempo, 1276596
1, 7920, Tempo, 1250000
1, 8160, Tempo, 1276596
1, 8400, Tempo, 1304348
1, 8640, Tempo, 1333333
1, 8880, Tempo, 1276596
1, 9120, Tempo, 1224490
1, 10320, Tempo, 1250000
1, 10560, Tempo, 1304348
1, 10800, Tempo, 1250000
1, 11040, Tempo, 1276596
1, 11280, Tempo, 1333333
1, 11520, Tempo, 1363636
1, 12240, Tempo, 1250000
1, 12480, Tempo, 1304348
1, 12720, Tempo, 1333333
1, 12960, Tempo, 1395349
1, 13200, Tempo, 1428571
1, 13440, Tempo, 1463415
1, 13680, Tempo, 1714286
1, 14400, Tempo, 1333333
1, 14640, Tempo, 1363636
1, 14880, Tempo, 1428571
1, 15120, Tempo, 1395349
1, 15360, Tempo, 1428571
1, 15600, Tempo, 1428571
1, 15840, Tempo, 1463415
1, 16560, Tempo, 1333333
1, 16800, Tempo, 1304348
1, 17040, Tempo, 1276596
1, 17280, Tempo, 1250000
1, 17520, Tempo, 1276596
1, 17760, Tempo, 1304348
1, 18240, Tempo, 1276596
1, 18480, Tempo, 1250000
1, 18720, Tempo, 1224490
1, 18960, Tempo, 1224490
1, 19200, Tempo, 1224490
1, 20400, Tempo, 1250000
1, 20640, Tempo, 1304348
1, 20880, Tempo, 1333333
1, 21120, Tempo, 1395349
1, 21360, Tempo, 1500000
1, 21600, Tempo, 1714286
1, 21840, Tempo, 1818182
1, 22320, Tempo, 1333333
1, 23280, Tempo, 1395349
1, 23520, Tempo, 1428571
1, 23760, Tempo, 1276596
1, 24000, Tempo, 1304348
1, 24240, Tempo, 1363636
1, 24480, Tempo, 1250000
1, 24720, Tempo, 1333333
1, 24960, Tempo, 1395349
1, 25200, Tempo, 1333333
1, 25440, Tempo, 1304348
1, 25680, Tempo, 1276596
1, 25920, Tempo, 1224490
1, 26160, Tempo, 1276596
1, 26400, Tempo, 1333333
1, 26880, Tempo, 1304348
1, 27120, Tempo, 1276596
1, 27360, Tempo, 1250000
1, 29040, Tempo, 1224490
1, 29280, Tempo, 1200000
1, 29520, Tempo, 1176471
1, 29760, Tempo, 1200000
1, 30000, Tempo, 1224490
1, 30240, Tempo, 1250000
1, 30480, Tempo, 1304348
1, 30720, Tempo, 1333333
1, 30960, Tempo, 1395349
1, 31680, Tempo, 1333333
1, 32640, Tempo, 1428571
1, 32880, Tempo, 1500000
1, 33120, Tempo, 1333333
1, 33360, Tempo, 1395349
1, 33600, Tempo, 1428571
1, 33840, Tempo, 1333333
1, 34080, Tempo, 1395349
1, 34320, Tempo, 1428571
1, 34560, Tempo, 1500000
1, 35280, Tempo, 1333333
1, 35280, End_track
2, 0, Start_track
2, 0, MIDI_port, 0
2, 0, Title_t, "Piano Sonata No.34 in e "
2, 0, Program_c, 0, 0
2, 0, Control_c, 0, 7, 127
2, 0, Control_c, 0, 10, 72
2, 0, Note_on_c, 0, 67, 64
2, 178, Note_on_c, 0, 67, 0
2, 180, Note_on_c, 0, 69, 64
2, 198, Note_on_c, 0, 69, 0
2, 200, Note_on_c, 0, 67, 64
2, 218, Note_on_c, 0, 67, 0
2, 220, Note_on_c, 0, 66, 64
2, 238, Note_on_c, 0, 66, 0
2, 240, Note_on_c, 0, 67, 72
2, 358, Note_on_c, 0, 67, 0
2, 360, Note_on_c, 0, 71, 64
2, 450, Note_on_c, 0, 71, 0
2, 480, Note_on_c, 0, 74, 64
2, 570, Note_on_c, 0, 74, 0
2, 600, Note_on_c, 0, 67, 64
2, 718, Note_on_c, 0, 67, 0
2, 720, Note_on_c, 0, 66, 64
2, 898, Note_on_c, 0, 66, 0
2, 900, Note_on_c, 0, 67, 64
2, 918, Note_on_c, 0, 67, 0
2, 920, Note_on_c, 0, 66, 64
2, 938, Note_on_c, 0, 66, 0
2, 940, Note_on_c, 0, 64, 64
2, 958, Note_on_c, 0, 64, 0
2, 960, Note_on_c, 0, 66, 64
2, 988, Note_on_c, 0, 66, 0
2, 990, Note_on_c, 0, 69, 64
2, 1018, Note_on_c, 0, 69, 0
2, 1020, Note_on_c, 0, 67, 64
2, 1048, Note_on_c, 0, 67, 0
2, 1050, Note_on_c, 0, 71, 64
2, 1078, Note_on_c, 0, 71, 0
2, 1080, Note_on_c, 0, 69, 64
2, 1108, Note_on_c, 0, 69, 0
2, 1110, Note_on_c, 0, 72, 64
2, 1138, Note_on_c, 0, 72, 0
2, 1140, Note_on_c, 0, 71, 64
2, 1168, Note_on_c, 0, 71, 0
2, 1170, Note_on_c, 0, 74, 64
2, 1198, Note_on_c, 0, 74, 0
2, 1200, Note_on_c, 0, 72, 64
2, 1296, Note_on_c, 0, 72, 0
2, 1440, Note_on_c, 0, 69, 64
2, 1618, Note_on_c, 0, 69, 0
2, 1620, Note_on_c, 0, 71, 64
2, 1638, Note_on_c, 0, 71, 0
2, 1640, Note_on_c, 0, 69, 64
2, 1658, Note_on_c, 0, 69, 0
2, 1660, Note_on_c, 0, 68, 64
2, 1678, Note_on_c, 0, 68, 0
2, 1680, Note_on_c, 0, 69, 64
2, 1738, Note_on_c, 0, 69, 0
2, 1740, Note_on_c, 0, 71, 64
2, 1785, Note_on_c, 0, 71, 0
2, 1800, Note_on_c, 0, 72, 64
2, 1845, Note_on_c, 0, 72, 0
2, 1860, Note_on_c, 0, 74, 64
2, 1905, Note_on_c, 0, 74, 0
2, 1920, Note_on_c, 0, 76, 64
2, 1965, Note_on_c, 0, 76, 0
2, 1980, Note_on_c, 0, 72, 64
2, 2040, Note_on_c, 0, 72, 0
2, 2040, Note_on_c, 0, 71, 64
2, 2100, Note_on_c, 0, 71, 0
2, 2100, Note_on_c, 0, 69, 64
2, 2160, Note_on_c, 0, 69, 0
2, 2160, Note_on_c, 0, 71, 64
2, 2338, Note_on_c, 0, 71, 0
2, 2340, Note_on_c, 0, 72, 64
2, 2358, Note_on_c, 0, 72, 0
2, 2360, Note_on_c, 0, 71, 64
2, 2378, Note_on_c, 0, 71, 0
2, 2380, Note_on_c, 0, 69, 64
2, 2398, Note_on_c, 0, 69, 0
2, 2400, Note_on_c, 0, 71, 64
2, 2428, Note_on_c, 0, 71, 0
2, 2430, Note_on_c, 0, 67, 64
2, 2458, Note_on_c, 0, 67, 0
2, 2460, Note_on_c, 0, 72, 64
2, 2488, Note_on_c, 0, 72, 0
2, 2490, Note_on_c, 0, 69, 64
2, 2518, Note_on_c, 0, 69, 0
2, 2520, Note_on_c, 0, 74, 64
2, 2548, Note_on_c, 0, 74, 0
2, 2550, Note_on_c, 0, 71, 64
2, 2578, Note_on_c, 0, 71, 0
2, 2580, Note_on_c, 0, 76, 64
2, 2608, Note_on_c, 0, 76, 0
2, 2610, Note_on_c, 0, 72, 64
2, 2638, Note_on_c, 0, 72, 0
2, 2640, Note_on_c, 0, 74, 64
2, 2758, Note_on_c, 0, 74, 0
2, 2880, Note_on_c, 0, 79, 64
2, 3058, Note_on_c, 0, 79, 0
2, 3060, Note_on_c, 0, 81, 64
2, 3078, Note_on_c, 0, 81, 0
2, 3080, Note_on_c, 0, 79, 64
2, 3098, Note_on_c, 0, 79, 0
2, 3100, Note_on_c, 0, 78, 64
2, 3118, Note_on_c, 0, 78, 0
2, 3120, Note_on_c, 0, 79, 64
2, 3178, Note_on_c, 0, 79, 0
2, 3180, Note_on_c, 0, 83, 64
2, 3216, Note_on_c, 0, 83, 0
2, 3240, Note_on_c, 0, 86, 64
2, 3276, Note_on_c, 0, 86, 0
2, 3300, Note_on_c, 0, 83, 64
2, 3336, Note_on_c, 0, 83, 0
2, 3360, Note_on_c, 0, 79, 64
2, 3396, Note_on_c, 0, 79, 0
2, 3420, Note_on_c, 0, 74, 64
2, 3480, Note_on_c, 0, 74, 0
2, 3480, Note_on_c, 0, 72, 64
2, 3540, Note_on_c, 0, 72, 0
2, 3540, Note_on_c, 0, 71, 64
2, 3600, Note_on_c, 0, 71, 0
2, 3600, Note_on_c, 0, 69, 64
2, 3778, Note_on_c, 0, 69, 0
2, 3780, Note_on_c, 0, 71, 64
2, 3798, Note_on_c, 0, 71, 0
2, 3800, Note_on_c, 0, 69, 64
2, 3818, Note_on_c, 0, 69, 0
2, 3820, Note_on_c, 0, 68, 64
2, 3838, Note_on_c, 0, 68, 0
2, 3840, Note_on_c, 0, 69, 64
2, 3898, Note_on_c, 0, 69, 0
2, 3900, Note_on_c, 0, 71, 64
2, 3936, Note_on_c, 0, 71, 0
2, 3960, Note_on_c, 0, 72, 64
2, 3996, Note_on_c, 0, 72, 0
2, 4020, Note_on_c, 0, 74, 64
2, 4056, Note_on_c, 0, 74, 0
2, 4080, Note_on_c, 0, 75, 64
2, 4116, Note_on_c, 0, 75, 0
2, 4140, Note_on_c, 0, 76, 64
2, 4198, Note_on_c, 0, 76, 0
2, 4200, Note_on_c, 0, 72, 64
2, 4258, Note_on_c, 0, 72, 0
2, 4260, Note_on_c, 0, 69, 64
2, 4318, Note_on_c, 0, 69, 0
2, 4320, Note_on_c, 0, 74, 64
2, 4838, Note_on_c, 0, 74, 0
2, 4840, Note_on_c, 0, 73, 32
2, 4878, Note_on_c, 0, 73, 0
2, 4880, Note_on_c, 0, 72, 32
2, 4918, Note_on_c, 0, 72, 0
2, 4920, Note_on_c, 0, 71, 32
2, 4958, Note_on_c, 0, 71, 0
2, 4960, Note_on_c, 0, 70, 32
2, 4998, Note_on_c, 0, 70, 0
2, 5000, Note_on_c, 0, 69, 32
2, 5038, Note_on_c, 0, 69, 0
2, 5040, Note_on_c, 0, 67, 32
2, 5278, Note_on_c, 0, 67, 0
2, 5520, Note_on_c, 0, 55, 64
2, 5550, Note_on_c, 0, 59, 64
2, 5580, Note_on_c, 0, 62, 64
2, 5608, Note_on_c, 0, 55, 0
2, 5610, Note_on_c, 0, 67, 64
2, 5638, Note_on_c, 0, 59, 0
2, 5640, Note_on_c, 0, 71, 64
2, 5668, Note_on_c, 0, 62, 0
2, 5670, Note_on_c, 0, 74, 64
2, 5698, Note_on_c, 0, 67, 0
2, 5700, Note_on_c, 0, 79, 64
2, 5728, Note_on_c, 0, 71, 0
2, 5730, Note_on_c, 0, 83, 64
2, 5758, Note_on_c, 0, 83, 0
2, 5758, Note_on_c, 0, 79, 0
2, 5758, Note_on_c, 0, 74, 0
2, 5760, Note_on_c, 0, 86, 64
2, 6058, Note_on_c, 0, 86, 0
2, 6060, Note_on_c, 0, 84, 64
2, 6088, Note_on_c, 0, 84, 0
2, 6090, Note_on_c, 0, 83, 64
2, 6118, Note_on_c, 0, 83, 0
2, 6120, Note_on_c, 0, 81, 64
2, 6148, Note_on_c, 0, 81, 0
2, 6150, Note_on_c, 0, 79, 64
2, 6178, Note_on_c, 0, 79, 0
2, 6180, Note_on_c, 0, 78, 64
2, 6208, Note_on_c, 0, 78, 0
2, 6210, Note_on_c, 0, 79, 64
2, 6238, Note_on_c, 0, 79, 0
2, 6240, Note_on_c, 0, 81, 64
2, 6268, Note_on_c, 0, 81, 0
2, 6270, Note_on_c, 0, 79, 64
2, 6298, Note_on_c, 0, 79, 0
2, 6300, Note_on_c, 0, 83, 64
2, 6328, Note_on_c, 0, 83, 0
2, 6330, Note_on_c, 0, 81, 64
2, 6358, Note_on_c, 0, 81, 0
2, 6360, Note_on_c, 0, 84, 64
2, 6388, Note_on_c, 0, 84, 0
2, 6390, Note_on_c, 0, 83, 64
2, 6418, Note_on_c, 0, 83, 0
2, 6420, Note_on_c, 0, 81, 64
2, 6448, Note_on_c, 0, 81, 0
2, 6450, Note_on_c, 0, 79, 64
2, 6478, Note_on_c, 0, 79, 0
2, 6480, Note_on_c, 0, 80, 64
2, 6660, Note_on_c, 0, 80, 0
2, 6660, Note_on_c, 0, 83, 64
2, 6718, Note_on_c, 0, 83, 0
2, 6720, Note_on_c, 0, 81, 48
2, 6838, Note_on_c, 0, 81, 0
2, 7020, Note_on_c, 0, 74, 70
2, 7048, Note_on_c, 0, 74, 0
2, 7050, Note_on_c, 0, 76, 73
2, 7078, Note_on_c, 0, 76, 0
2, 7080, Note_on_c, 0, 78, 76
2, 7108, Note_on_c, 0, 78, 0
2, 7110, Note_on_c, 0, 79, 79
2, 7138, Note_on_c, 0, 79, 0
2, 7140, Note_on_c, 0, 81, 82
2, 7168, Note_on_c, 0, 81, 0
2, 7170, Note_on_c, 0, 83, 85
2, 7198, Note_on_c, 0, 83, 0
2, 7200, Note_on_c, 0, 86, 56
2, 7468, Note_on_c, 0, 86, 0
2, 7470, Note_on_c, 0, 81, 64
2, 7498, Note_on_c, 0, 81, 0
2, 7500, Note_on_c, 0, 79, 64
2, 7528, Note_on_c, 0, 79, 0
2, 7530, Note_on_c, 0, 81, 64
2, 7558, Note_on_c, 0, 81, 0
2, 7560, Note_on_c, 0, 78, 64
2, 7588, Note_on_c, 0, 78, 0
2, 7590, Note_on_c, 0, 79, 64
2, 7618, Note_on_c, 0, 79, 0
2, 7620, Note_on_c, 0, 76, 64
2, 7648, Note_on_c, 0, 76, 0
2, 7650, Note_on_c, 0, 78, 64
2, 7678, Note_on_c, 0, 78, 0
2, 7680, Note_on_c, 0, 74, 64
2, 7708, Note_on_c, 0, 74, 0
2, 7710, Note_on_c, 0, 76, 64
2, 7738, Note_on_c, 0, 76, 0
2, 7740, Note_on_c, 0, 73, 64
2, 7768, Note_on_c, 0, 73, 0
2, 7770, Note_on_c, 0, 76, 64
2, 7798, Note_on_c, 0, 76, 0
2, 7800, Note_on_c, 0, 74, 64
2, 7858, Note_on_c, 0, 74, 0
2, 7890, Note_on_c, 0, 81, 64
2, 7918, Note_on_c, 0, 81, 0
2, 7920, Note_on_c, 0, 81, 64
2, 8038, Note_on_c, 0, 81, 0
2, 8040, Note_on_c, 0, 80, 64
2, 8278, Note_on_c, 0, 80, 0
2, 8280, Note_on_c, 0, 80, 64
2, 8484, Note_on_c, 0, 80, 0
2, 8520, Note_on_c, 0, 79, 64
2, 8668, Note_on_c, 0, 79, 0
2, 8670, Note_on_c, 0, 76, 64
2, 8698, Note_on_c, 0, 76, 0
2, 8700, Note_on_c, 0, 78, 64
2, 8728, Note_on_c, 0, 78, 0
2, 8730, Note_on_c, 0, 79, 64
2, 8758, Note_on_c, 0, 79, 0
2, 8760, Note_on_c, 0, 81, 64
2, 8788, Note_on_c, 0, 81, 0
2, 8790, Note_on_c, 0, 83, 64
2, 8818, Note_on_c, 0, 83, 0
2, 8820, Note_on_c, 0, 85, 64
2, 8848, Note_on_c, 0, 85, 0
2, 8850, Note_on_c, 0, 86, 64
2, 8878, Note_on_c, 0, 86, 0
2, 8880, Note_on_c, 0, 88, 64
2, 8908, Note_on_c, 0, 88, 0
2, 8910, Note_on_c, 0, 86, 64
2, 8938, Note_on_c, 0, 86, 0
2, 8940, Note_on_c, 0, 85, 64
2, 8968, Note_on_c, 0, 85, 0
2, 8970, Note_on_c, 0, 83, 64
2, 8998, Note_on_c, 0, 83, 0
2, 9000, Note_on_c, 0, 81, 64
2, 9028, Note_on_c, 0, 81, 0
2, 9030, Note_on_c, 0, 80, 64
2, 9058, Note_on_c, 0, 80, 0
2, 9060, Note_on_c, 0, 81, 64
2, 9088, Note_on_c, 0, 81, 0
2, 9090, Note_on_c, 0, 80, 64
2, 9118, Note_on_c, 0, 80, 0
2, 9120, Note_on_c, 0, 81, 64
2, 9148, Note_on_c, 0, 81, 0
2, 9150, Note_on_c, 0, 82, 64
2, 9178, Note_on_c, 0, 82, 0
2, 9180, Note_on_c, 0, 83, 64
2, 9208, Note_on_c, 0, 83, 0
2, 9210, Note_on_c, 0, 82, 64
2, 9238, Note_on_c, 0, 82, 0
2, 9240, Note_on_c, 0, 83, 64
2, 9268, Note_on_c, 0, 83, 0
2, 9270, Note_on_c, 0, 79, 64
2, 9298, Note_on_c, 0, 79, 0
2, 9300, Note_on_c, 0, 78, 64
2, 9328, Note_on_c, 0, 78, 0
2, 9330, Note_on_c, 0, 76, 64
2, 9358, Note_on_c, 0, 76, 0
2, 9360, Note_on_c, 0, 78, 64
2, 9388, Note_on_c, 0, 78, 0
2, 9390, Note_on_c, 0, 74, 64
2, 9418, Note_on_c, 0, 74, 0
2, 9420, Note_on_c, 0, 76, 64
2, 9448, Note_on_c, 0, 76, 0
2, 9450, Note_on_c, 0, 78, 64
2, 9478, Note_on_c, 0, 78, 0
2, 9480, Note_on_c, 0, 79, 64
2, 9508, Note_on_c, 0, 79, 0
2, 9510, Note_on_c, 0, 81, 64
2, 9538, Note_on_c, 0, 81, 0
2, 9540, Note_on_c, 0, 83, 64
2, 9568, Note_on_c, 0, 83, 0
2, 9570, Note_on_c, 0, 85, 64
2, 9598, Note_on_c, 0, 85, 0
2, 9600, Note_on_c, 0, 86, 64
2, 9628, Note_on_c, 0, 86, 0
2, 9630, Note_on_c, 0, 85, 64
2, 9645, Note_on_c, 0, 85, 0
2, 9660, Note_on_c, 0, 86, 64
2, 9688, Note_on_c, 0, 86, 0
2, 9690, Note_on_c, 0, 85, 64
2, 9705, Note_on_c, 0, 85, 0
2, 9720, Note_on_c, 0, 86, 64
2, 9748, Note_on_c, 0, 86, 0
2, 9750, Note_on_c, 0, 85, 64
2, 9765, Note_on_c, 0, 85, 0
2, 9780, Note_on_c, 0, 86, 64
2, 9808, Note_on_c, 0, 86, 0
2, 9810, Note_on_c, 0, 85, 64
2, 9838, Note_on_c, 0, 85, 0
2, 9840, Note_on_c, 0, 86, 64
2, 9868, Note_on_c, 0, 86, 0
2, 9870, Note_on_c, 0, 85, 64
2, 9898, Note_on_c, 0, 85, 0
2, 9900, Note_on_c, 0, 83, 64
2, 9928, Note_on_c, 0, 83, 0
2, 9930, Note_on_c, 0, 81, 64
2, 9958, Note_on_c, 0, 81, 0
2, 9960, Note_on_c, 0, 79, 64
2, 9988, Note_on_c, 0, 79, 0
2, 9990, Note_on_c, 0, 78, 64
2, 10018, Note_on_c, 0, 78, 0
2, 10020, Note_on_c, 0, 76, 64
2, 10048, Note_on_c, 0, 76, 0
2, 10050, Note_on_c, 0, 74, 64
2, 10078, Note_on_c, 0, 74, 0
2, 10080, Note_on_c, 0, 76, 64
2, 10108, Note_on_c, 0, 76, 0
2, 10110, Note_on_c, 0, 75, 41
2, 10138, Note_on_c, 0, 75, 0
2, 10140, Note_on_c, 0, 78, 42
2, 10168, Note_on_c, 0, 78, 0
2, 10170, Note_on_c, 0, 76, 43
2, 10198, Note_on_c, 0, 76, 0
2, 10200, Note_on_c, 0, 79, 44
2, 10228, Note_on_c, 0, 79, 0
2, 10230, Note_on_c, 0, 78, 45
2, 10258, Note_on_c, 0, 78, 0
2, 10260, Note_on_c, 0, 81, 46
2, 10288, Note_on_c, 0, 81, 0
2, 10290, Note_on_c, 0, 79, 47
2, 10318, Note_on_c, 0, 79, 0
2, 10320, Note_on_c, 0, 83, 48
2, 10348, Note_on_c, 0, 83, 0
2, 10350, Note_on_c, 0, 79, 49
2, 10378, Note_on_c, 0, 79, 0
2, 10380, Note_on_c, 0, 78, 50
2, 10408, Note_on_c, 0, 78, 0
2, 10410, Note_on_c, 0, 76, 51
2, 10438, Note_on_c, 0, 76, 0
2, 10440, Note_on_c, 0, 75, 52
2, 10468, Note_on_c, 0, 75, 0
2, 10470, Note_on_c, 0, 76, 53
2, 10498, Note_on_c, 0, 76, 0
2, 10500, Note_on_c, 0, 78, 54
2, 10528, Note_on_c, 0, 78, 0
2, 10530, Note_on_c, 0, 76, 55
2, 10558, Note_on_c, 0, 76, 0
2, 10560, Note_on_c, 0, 79, 56
2, 10588, Note_on_c, 0, 79, 0
2, 10590, Note_on_c, 0, 78, 57
2, 10618, Note_on_c, 0, 78, 0
2, 10620, Note_on_c, 0, 81, 58
2, 10648, Note_on_c, 0, 81, 0
2, 10650, Note_on_c, 0, 79, 59
2, 10678, Note_on_c, 0, 79, 0
2, 10680, Note_on_c, 0, 83, 60
2, 10708, Note_on_c, 0, 83, 0
2, 10710, Note_on_c, 0, 79, 61
2, 10725, Note_on_c, 0, 79, 0
2, 10740, Note_on_c, 0, 78, 62
2, 10755, Note_on_c, 0, 78, 0
2, 10770, Note_on_c, 0, 76, 63
2, 10785, Note_on_c, 0, 76, 0
2, 10800, Note_on_c, 0, 81, 56
2, 10828, Note_on_c, 0, 81, 0
2, 10830, Note_on_c, 0, 83, 57
2, 10858, Note_on_c, 0, 83, 0
2, 10860, Note_on_c, 0, 80, 57
2, 10888, Note_on_c, 0, 80, 0
2, 10890, Note_on_c, 0, 83, 58
2, 10918, Note_on_c, 0, 83, 0
2, 10920, Note_on_c, 0, 81, 59
2, 10948, Note_on_c, 0, 81, 0
2, 10950, Note_on_c, 0, 83, 59
2, 10978, Note_on_c, 0, 83, 0
2, 10980, Note_on_c, 0, 80, 60
2, 11008, Note_on_c, 0, 80, 0
2, 11010, Note_on_c, 0, 83, 61
2, 11038, Note_on_c, 0, 83, 0
2, 11040, Note_on_c, 0, 81, 61
2, 11068, Note_on_c, 0, 81, 0
2, 11070, Note_on_c, 0, 83, 62
2, 11098, Note_on_c, 0, 83, 0
2, 11100, Note_on_c, 0, 80, 63
2, 11128, Note_on_c, 0, 80, 0
2, 11130, Note_on_c, 0, 83, 63
2, 11158, Note_on_c, 0, 83, 0
2, 11160, Note_on_c, 0, 81, 64
2, 11188, Note_on_c, 0, 81, 0
2, 11190, Note_on_c, 0, 83, 65
2, 11218, Note_on_c, 0, 83, 0
2, 11220, Note_on_c, 0, 80, 65
2, 11248, Note_on_c, 0, 80, 0
2, 11250, Note_on_c, 0, 83, 66
2, 11278, Note_on_c, 0, 83, 0
2, 11280, Note_on_c, 0, 81, 67
2, 11340, Note_on_c, 0, 81, 0
2, 11340, Note_on_c, 0, 82, 68
2, 11364, Note_on_c, 0, 82, 0
2, 11400, Note_on_c, 0, 83, 69
2, 11424, Note_on_c, 0, 83, 0
2, 11460, Note_on_c, 0, 86, 71
2, 11484, Note_on_c, 0, 86, 0
2, 11520, Note_on_c, 0, 76, 56
2, 11544, Note_on_c, 0, 76, 0
2, 11550, Note_on_c, 0, 78, 57
2, 11574, Note_on_c, 0, 78, 0
2, 11580, Note_on_c, 0, 76, 57
2, 11604, Note_on_c, 0, 76, 0
2, 11610, Note_on_c, 0, 78, 58
2, 11634, Note_on_c, 0, 78, 0
2, 11640, Note_on_c, 0, 76, 59
2, 11656, Note_on_c, 0, 76, 0
2, 11660, Note_on_c, 0, 78, 59
2, 11676, Note_on_c, 0, 78, 0
2, 11680, Note_on_c, 0, 76, 60
2, 11696, Note_on_c, 0, 76, 0
2, 11700, Note_on_c, 0, 78, 60
2, 11716, Note_on_c, 0, 78, 0
2, 11720, Note_on_c, 0, 76, 60
2, 11736, Note_on_c, 0, 76, 0
2, 11740, Note_on_c, 0, 78, 61
2, 11756, Note_on_c, 0, 78, 0
2, 11760, Note_on_c, 0, 76, 61
2, 11772, Note_on_c, 0, 76, 0
2, 11775, Note_on_c, 0, 78, 62
2, 11787, Note_on_c, 0, 78, 0
2, 11790, Note_on_c, 0, 76, 62
2, 11802, Note_on_c, 0, 76, 0
2, 11805, Note_on_c, 0, 78, 62
2, 11817, Note_on_c, 0, 78, 0
2, 11820, Note_on_c, 0, 76, 63
2, 11832, Note_on_c, 0, 76, 0
2, 11835, Note_on_c, 0, 78, 63
2, 11847, Note_on_c, 0, 78, 0
2, 11850, Note_on_c, 0, 76, 63
2, 11862, Note_on_c, 0, 76, 0
2, 11865, Note_on_c, 0, 78, 64
2, 11877, Note_on_c, 0, 78, 0
2, 11880, Note_on_c, 0, 76, 64
2, 11892, Note_on_c, 0, 76, 0
2, 11895, Note_on_c, 0, 78, 64
2, 11907, Note_on_c, 0, 78, 0
2, 11910, Note_on_c, 0, 76, 65
2, 11922, Note_on_c, 0, 76, 0
2, 11925, Note_on_c, 0, 78, 65
2, 11937, Note_on_c, 0, 78, 0
2, 11940, Note_on_c, 0, 76, 65
2, 11952, Note_on_c, 0, 76, 0
2, 11955, Note_on_c, 0, 78, 66
2, 11967, Note_on_c, 0, 78, 0
2, 11970, Note_on_c, 0, 76, 66
2, 11982, Note_on_c, 0, 76, 0
2, 11985, Note_on_c, 0, 78, 66
2, 11997, Note_on_c, 0, 78, 0
2, 12000, Note_on_c, 0, 76, 67
2, 12012, Note_on_c, 0, 76, 0
2, 12015, Note_on_c, 0, 78, 67
2, 12027, Note_on_c, 0, 78, 0
2, 12030, Note_on_c, 0, 76, 67
2, 12042, Note_on_c, 0, 76, 0
2, 12045, Note_on_c, 0, 78, 68
2, 12057, Note_on_c, 0, 78, 0
2, 12060, Note_on_c, 0, 76, 68
2, 12072, Note_on_c, 0, 76, 0
2, 12075, Note_on_c, 0, 78, 68
2, 12087, Note_on_c, 0, 78, 0
2, 12090, Note_on_c, 0, 76, 69
2, 12102, Note_on_c, 0, 76, 0
2, 12105, Note_on_c, 0, 78, 69
2, 12117, Note_on_c, 0, 78, 0
2, 12120, Note_on_c, 0, 76, 69
2, 12132, Note_on_c, 0, 76, 0
2, 12135, Note_on_c, 0, 78, 70
2, 12147, Note_on_c, 0, 78, 0
2, 12150, Note_on_c, 0, 76, 70
2, 12162, Note_on_c, 0, 76, 0
2, 12165, Note_on_c, 0, 78, 70
2, 12177, Note_on_c, 0, 78, 0
2, 12180, Note_on_c, 0, 76, 71
2, 12188, Note_on_c, 0, 76, 0
2, 12190, Note_on_c, 0, 78, 71
2, 12198, Note_on_c, 0, 78, 0
2, 12200, Note_on_c, 0, 76, 71
2, 12208, Note_on_c, 0, 76, 0
2, 12210, Note_on_c, 0, 74, 71
2, 12222, Note_on_c, 0, 74, 0
2, 12225, Note_on_c, 0, 76, 72
2, 12237, Note_on_c, 0, 76, 0
2, 12240, Note_on_c, 0, 74, 72
2, 12432, Note_on_c, 0, 74, 0
2, 12510, Note_on_c, 0, 81, 57
2, 12538, Note_on_c, 0, 81, 0
2, 12540, Note_on_c, 0, 79, 58
2, 12568, Note_on_c, 0, 79, 0
2, 12570, Note_on_c, 0, 78, 59
2, 12598, Note_on_c, 0, 78, 0
2, 12600, Note_on_c, 0, 76, 60
2, 12628, Note_on_c, 0, 76, 0
2, 12630, Note_on_c, 0, 74, 61
2, 12645, Note_on_c, 0, 74, 0
2, 12660, Note_on_c, 0, 73, 62
2, 12675, Note_on_c, 0, 73, 0
2, 12690, Note_on_c, 0, 71, 63
2, 12705, Note_on_c, 0, 71, 0
2, 12720, Note_on_c, 0, 69, 64
2, 12748, Note_on_c, 0, 69, 0
2, 12750, Note_on_c, 0, 67, 65
2, 12765, Note_on_c, 0, 67, 0
2, 12780, Note_on_c, 0, 66, 66
2, 12795, Note_on_c, 0, 66, 0
2, 12810, Note_on_c, 0, 64, 67
2, 12825, Note_on_c, 0, 64, 0
2, 12840, Note_on_c, 0, 62, 68
2, 12868, Note_on_c, 0, 62, 0
2, 12870, Note_on_c, 0, 61, 69
2, 12885, Note_on_c, 0, 61, 0
2, 12900, Note_on_c, 0, 59, 70
2, 12915, Note_on_c, 0, 59, 0
2, 12930, Note_on_c, 0, 57, 71
2, 12945, Note_on_c, 0, 57, 0
2, 12960, Note_on_c, 0, 58, 64
2, 13258, Note_on_c, 0, 58, 0
2, 13260, Note_on_c, 0, 59, 64
2, 13318, Note_on_c, 0, 59, 0
2, 13320, Note_on_c, 0, 61, 64
2, 13378, Note_on_c, 0, 61, 0
2, 13380, Note_on_c, 0, 62, 64
2, 13438, Note_on_c, 0, 62, 0
2, 13440, Note_on_c, 0, 52, 64
2, 13498, Note_on_c, 0, 52, 0
2, 13500, Note_on_c, 0, 54, 64
2, 13558, Note_on_c, 0, 54, 0
2, 13560, Note_on_c, 0, 55, 64
2, 13618, Note_on_c, 0, 55, 0
2, 13620, Note_on_c, 0, 49, 64
2, 13678, Note_on_c, 0, 49, 0
2, 13680, Note_on_c, 0, 49, 64
2, 13824, Note_on_c, 0, 49, 0
2, 13860, Note_on_c, 0, 50, 24
2, 13908, Note_on_c, 0, 50, 0
2, 14400, Note_on_c, 0, 71, 64
2, 14578, Note_on_c, 0, 71, 0
2, 14580, Note_on_c, 0, 73, 64
2, 14598, Note_on_c, 0, 73, 0
2, 14600, Note_on_c, 0, 71, 64
2, 14618, Note_on_c, 0, 71, 0
2, 14620, Note_on_c, 0, 70, 64
2, 14638, Note_on_c, 0, 70, 0
2, 14640, Note_on_c, 0, 71, 64
2, 14758, Note_on_c, 0, 71, 0
2, 14760, Note_on_c, 0, 75, 64
2, 14878, Note_on_c, 0, 75, 0
2, 14880, Note_on_c, 0, 78, 64
2, 14998, Note_on_c, 0, 78, 0
2, 15000, Note_on_c, 0, 66, 64
2, 15000, Note_on_c, 0, 69, 64
2, 15118, Note_on_c, 0, 69, 0
2, 15118, Note_on_c, 0, 66, 0
2, 15120, Note_on_c, 0, 66, 64
2, 15120, Note_on_c, 0, 69, 64
2, 15238, Note_on_c, 0, 69, 0
2, 15238, Note_on_c, 0, 66, 0
2, 15240, Note_on_c, 0, 64, 64
2, 15240, Note_on_c, 0, 67, 64
2, 15270, Note_on_c, 0, 67, 0
2, 15270, Note_on_c, 0, 64, 0
2, 15270, Note_on_c, 0, 66, 64
2, 15270, Note_on_c, 0, 69, 64
2, 15300, Note_on_c, 0, 69, 0
2, 15300, Note_on_c, 0, 66, 0
2, 15300, Note_on_c, 0, 67, 64
2, 15300, Note_on_c, 0, 64, 64
2, 15320, Note_on_c, 0, 64, 0
2, 15320, Note_on_c, 0, 67, 0
2, 15320, Note_on_c, 0, 69, 64
2, 15320, Note_on_c, 0, 66, 64
2, 15340, Note_on_c, 0, 66, 0
2, 15340, Note_on_c, 0, 69, 0
2, 15340, Note_on_c, 0, 64, 64
2, 15340, Note_on_c, 0, 67, 64
2, 15360, Note_on_c, 0, 67, 0
2, 15360, Note_on_c, 0, 64, 0
2, 15360, Note_on_c, 0, 63, 64
2, 15360, Note_on_c, 0, 66, 64
2, 15480, Note_on_c, 0, 66, 0
2, 15480, Note_on_c, 0, 63, 0
2, 15840, Note_on_c, 0, 76, 24
2, 16018, Note_on_c, 0, 76, 0
2, 16020, Note_on_c, 0, 78, 64
2, 16038, Note_on_c, 0, 78, 0
2, 16040, Note_on_c, 0, 76, 64
2, 16058, Note_on_c, 0, 76, 0
2, 16060, Note_on_c, 0, 75, 64
2, 16078, Note_on_c, 0, 75, 0
2, 16080, Note_on_c, 0, 76, 64
2, 16198, Note_on_c, 0, 76, 0
2, 16200, Note_on_c, 0, 79, 64
2, 16290, Note_on_c, 0, 79, 0
2, 16320, Note_on_c, 0, 83, 64
2, 16410, Note_on_c, 0, 83, 0
2, 16440, Note_on_c, 0, 76, 64
2, 16558, Note_on_c, 0, 76, 0
2, 16560, Note_on_c, 0, 75, 64
2, 16588, Note_on_c, 0, 75, 0
2, 16590, Note_on_c, 0, 76, 67
2, 16618, Note_on_c, 0, 76, 0
2, 16620, Note_on_c, 0, 78, 69
2, 16648, Note_on_c, 0, 78, 0
2, 16650, Note_on_c, 0, 76, 72
2, 16678, Note_on_c, 0, 76, 0
2, 16680, Note_on_c, 0, 79, 74
2, 16708, Note_on_c, 0, 79, 0
2, 16710, Note_on_c, 0, 78, 77
2, 16738, Note_on_c, 0, 78, 0
2, 16740, Note_on_c, 0, 81, 79
2, 16768, Note_on_c, 0, 81, 0
2, 16770, Note_on_c, 0, 79, 82
2, 16798, Note_on_c, 0, 79, 0
2, 16800, Note_on_c, 0, 83, 84
2, 16828, Note_on_c, 0, 83, 0
2, 16830, Note_on_c, 0, 81, 87
2, 16858, Note_on_c, 0, 81, 0
2, 16860, Note_on_c, 0, 84, 85
2, 16888, Note_on_c, 0, 84, 0
2, 16890, Note_on_c, 0, 83, 80
2, 16918, Note_on_c, 0, 83, 0
2, 16920, Note_on_c, 0, 81, 75
2, 16948, Note_on_c, 0, 81, 0
2, 16950, Note_on_c, 0, 79, 70
2, 16978, Note_on_c, 0, 79, 0
2, 16980, Note_on_c, 0, 78, 65
2, 17008, Note_on_c, 0, 78, 0
2, 17010, Note_on_c, 0, 76, 60
2, 17038, Note_on_c, 0, 76, 0
2, 17040, Note_on_c, 0, 75, 55
2, 17158, Note_on_c, 0, 75, 0
2, 17400, Note_on_c, 0, 64, 64
2, 17428, Note_on_c, 0, 64, 0
2, 17430, Note_on_c, 0, 68, 64
2, 17458, Note_on_c, 0, 68, 0
2, 17460, Note_on_c, 0, 71, 64
2, 17488, Note_on_c, 0, 71, 0
2, 17490, Note_on_c, 0, 74, 64
2, 17518, Note_on_c, 0, 74, 0
2, 17520, Note_on_c, 0, 64, 64
2, 17550, Note_on_c, 0, 68, 64
2, 17580, Note_on_c, 0, 71, 64
2, 17610, Note_on_c, 0, 74, 64
2, 17640, Note_on_c, 0, 76, 64
2, 17668, Note_on_c, 0, 76, 0
2, 17670, Note_on_c, 0, 80, 64
2, 17698, Note_on_c, 0, 80, 0
2, 17698, Note_on_c, 0, 74, 0
2, 17698, Note_on_c, 0, 64, 0
2, 17698, Note_on_c, 0, 68, 0
2, 17698, Note_on_c, 0, 71, 0
2, 17700, Note_on_c, 0, 83, 64
2, 17728, Note_on_c, 0, 83, 0
2, 17730, Note_on_c, 0, 84, 64
2, 17758, Note_on_c, 0, 84, 0
2, 17760, Note_on_c, 0, 86, 64
2, 17788, Note_on_c, 0, 86, 0
2, 17790, Note_on_c, 0, 84, 64
2, 17818, Note_on_c, 0, 84, 0
2, 17820, Note_on_c, 0, 83, 64
2, 17848, Note_on_c, 0, 83, 0
2, 17850, Note_on_c, 0, 81, 64
2, 17878, Note_on_c, 0, 81, 0
2, 17880, Note_on_c, 0, 80, 64
2, 17908, Note_on_c, 0, 80, 0
2, 17910, Note_on_c, 0, 77, 64
2, 17938, Note_on_c, 0, 77, 0
2, 17940, Note_on_c, 0, 76, 64
2, 17968, Note_on_c, 0, 76, 0
2, 17970, Note_on_c, 0, 74, 64
2, 17998, Note_on_c, 0, 74, 0
2, 18000, Note_on_c, 0, 72, 64
2, 18028, Note_on_c, 0, 72, 0
2, 18030, Note_on_c, 0, 76, 64
2, 18058, Note_on_c, 0, 76, 0
2, 18060, Note_on_c, 0, 78, 64
2, 18088, Note_on_c, 0, 78, 0
2, 18090, Note_on_c, 0, 80, 64
2, 18118, Note_on_c, 0, 80, 0
2, 18120, Note_on_c, 0, 81, 64
2, 18148, Note_on_c, 0, 81, 0
2, 18150, Note_on_c, 0, 76, 64
2, 18178, Note_on_c, 0, 76, 0
2, 18180, Note_on_c, 0, 78, 64
2, 18208, Note_on_c, 0, 78, 0
2, 18210, Note_on_c, 0, 80, 64
2, 18238, Note_on_c, 0, 80, 0
2, 18240, Note_on_c, 0, 81, 64
2, 18268, Note_on_c, 0, 81, 0
2, 18270, Note_on_c, 0, 83, 64
2, 18298, Note_on_c, 0, 83, 0
2, 18300, Note_on_c, 0, 84, 64
2, 18328, Note_on_c, 0, 84, 0
2, 18330, Note_on_c, 0, 86, 64
2, 18358, Note_on_c, 0, 86, 0
2, 18360, Note_on_c, 0, 88, 64
2, 18388, Note_on_c, 0, 88, 0
2, 18390, Note_on_c, 0, 86, 64
2, 18418, Note_on_c, 0, 86, 0
2, 18420, Note_on_c, 0, 84, 64
2, 18448, Note_on_c, 0, 84, 0
2, 18450, Note_on_c, 0, 83, 64
2, 18478, Note_on_c, 0, 83, 0
2, 18480, Note_on_c, 0, 81, 64
2, 18508, Note_on_c, 0, 81, 0
2, 18510, Note_on_c, 0, 83, 64
2, 18538, Note_on_c, 0, 83, 0
2, 18540, Note_on_c, 0, 84, 64
2, 18568, Note_on_c, 0, 84, 0
2, 18570, Note_on_c, 0, 83, 64
2, 18598, Note_on_c, 0, 83, 0
2, 18600, Note_on_c, 0, 81, 64
2, 18628, Note_on_c, 0, 81, 0
2, 18630, Note_on_c, 0, 79, 64
2, 18658, Note_on_c, 0, 79, 0
2, 18660, Note_on_c, 0, 78, 64
2, 18688, Note_on_c, 0, 78, 0
2, 18690, Note_on_c, 0, 76, 64
2, 18718, Note_on_c, 0, 76, 0
2, 18720, Note_on_c, 0, 74, 64
2, 18748, Note_on_c, 0, 74, 0
2, 18840, Note_on_c, 0, 60, 64
2, 18870, Note_on_c, 0, 62, 64
2, 18900, Note_on_c, 0, 66, 64
2, 18930, Note_on_c, 0, 69, 64
2, 18958, Note_on_c, 0, 69, 0
2, 18958, Note_on_c, 0, 60, 0
2, 18958, Note_on_c, 0, 62, 0
2, 18958, Note_on_c, 0, 66, 0
2, 18960, Note_on_c, 0, 72, 64
2, 18988, Note_on_c, 0, 72, 0
2, 18990, Note_on_c, 0, 74, 64
2, 19018, Note_on_c, 0, 74, 0
2, 19020, Note_on_c, 0, 78, 64
2, 19048, Note_on_c, 0, 78, 0
2, 19050, Note_on_c, 0, 81, 64
2, 19078, Note_on_c, 0, 81, 0
2, 19080, Note_on_c, 0, 84, 64
2, 19108, Note_on_c, 0, 84, 0
2, 19110, Note_on_c, 0, 83, 64
2, 19138, Note_on_c, 0, 83, 0
2, 19140, Note_on_c, 0, 81, 64
2, 19168, Note_on_c, 0, 81, 0
2, 19170, Note_on_c, 0, 79, 64
2, 19198, Note_on_c, 0, 79, 0
2, 19200, Note_on_c, 0, 78, 64
2, 19228, Note_on_c, 0, 78, 0
2, 19230, Note_on_c, 0, 79, 64
2, 19258, Note_on_c, 0, 79, 0
2, 19260, Note_on_c, 0, 81, 64
2, 19288, Note_on_c, 0, 81, 0
2, 19290, Note_on_c, 0, 79, 64
2, 19318, Note_on_c, 0, 79, 0
2, 19320, Note_on_c, 0, 78, 64
2, 19348, Note_on_c, 0, 78, 0
2, 19350, Note_on_c, 0, 76, 64
2, 19378, Note_on_c, 0, 76, 0
2, 19380, Note_on_c, 0, 74, 64
2, 19408, Note_on_c, 0, 74, 0
2, 19410, Note_on_c, 0, 72, 64
2, 19438, Note_on_c, 0, 72, 0
2, 19440, Note_on_c, 0, 71, 64
2, 19468, Note_on_c, 0, 71, 0
2, 19470, Note_on_c, 0, 55, 64
2, 19500, Note_on_c, 0, 59, 64
2, 19530, Note_on_c, 0, 62, 64
2, 19560, Note_on_c, 0, 67, 64
2, 19590, Note_on_c, 0, 71, 64
2, 19620, Note_on_c, 0, 74, 64
2, 19648, Note_on_c, 0, 74, 0
2, 19648, Note_on_c, 0, 59, 0
2, 19648, Note_on_c, 0, 62, 0
2, 19648, Note_on_c, 0, 55, 0
2, 19648, Note_on_c, 0, 71, 0
2, 19648, Note_on_c, 0, 67, 0
2, 19650, Note_on_c, 0, 79, 64
2, 19678, Note_on_c, 0, 79, 0
2, 19680, Note_on_c, 0, 83, 64
2, 19708, Note_on_c, 0, 83, 0
2, 19710, Note_on_c, 0, 74, 64
2, 19738, Note_on_c, 0, 74, 0
2, 19740, Note_on_c, 0, 79, 64
2, 19768, Note_on_c, 0, 79, 0
2, 19770, Note_on_c, 0, 83, 64
2, 19798, Note_on_c, 0, 83, 0
2, 19800, Note_on_c, 0, 86, 64
2, 19828, Note_on_c, 0, 86, 0
2, 19830, Note_on_c, 0, 83, 64
2, 19858, Note_on_c, 0, 83, 0
2, 19860, Note_on_c, 0, 81, 64
2, 19888, Note_on_c, 0, 81, 0
2, 19890, Note_on_c, 0, 79, 64
2, 19918, Note_on_c, 0, 79, 0
2, 19920, Note_on_c, 0, 78, 64
2, 19948, Note_on_c, 0, 78, 0
2, 19950, Note_on_c, 0, 79, 64
2, 19978, Note_on_c, 0, 79, 0
2, 19980, Note_on_c, 0, 81, 64
2, 20008, Note_on_c, 0, 81, 0
2, 20010, Note_on_c, 0, 79, 64
2, 20038, Note_on_c, 0, 79, 0
2, 20040, Note_on_c, 0, 83, 64
2, 20068, Note_on_c, 0, 83, 0
2, 20070, Note_on_c, 0, 67, 64
2, 20100, Note_on_c, 0, 71, 64
2, 20130, Note_on_c, 0, 74, 64
2, 20158, Note_on_c, 0, 74, 0
2, 20158, Note_on_c, 0, 71, 0
2, 20158, Note_on_c, 0, 67, 0
2, 20160, Note_on_c, 0, 66, 64
2, 20190, Note_on_c, 0, 74, 64
2, 20220, Note_on_c, 0, 78, 64
2, 20250, Note_on_c, 0, 81, 64
2, 20278, Note_on_c, 0, 81, 0
2, 20278, Note_on_c, 0, 66, 0
2, 20278, Note_on_c, 0, 74, 0
2, 20278, Note_on_c, 0, 78, 0
2, 20280, Note_on_c, 0, 86, 64
2, 20308, Note_on_c, 0, 86, 0
2, 20310, Note_on_c, 0, 85, 64
2, 20338, Note_on_c, 0, 85, 0
2, 20340, Note_on_c, 0, 83, 64
2, 20368, Note_on_c, 0, 83, 0
2, 20370, Note_on_c, 0, 81, 64
2, 20398, Note_on_c, 0, 81, 0
2, 20400, Note_on_c, 0, 79, 64
2, 20428, Note_on_c, 0, 79, 0
2, 20430, Note_on_c, 0, 78, 64
2, 20458, Note_on_c, 0, 78, 0
2, 20460, Note_on_c, 0, 76, 64
2, 20488, Note_on_c, 0, 76, 0
2, 20490, Note_on_c, 0, 74, 64
2, 20518, Note_on_c, 0, 74, 0
2, 20520, Note_on_c, 0, 73, 64
2, 20548, Note_on_c, 0, 73, 0
2, 20550, Note_on_c, 0, 74, 64
2, 20578, Note_on_c, 0, 74, 0
2, 20580, Note_on_c, 0, 76, 64
2, 20608, Note_on_c, 0, 76, 0
2, 20610, Note_on_c, 0, 74, 64
2, 20638, Note_on_c, 0, 74, 0
2, 20640, Note_on_c, 0, 79, 64
2, 20668, Note_on_c, 0, 79, 0
2, 20670, Note_on_c, 0, 78, 64
2, 20698, Note_on_c, 0, 78, 0
2, 20700, Note_on_c, 0, 76, 64
2, 20728, Note_on_c, 0, 76, 0
2, 20730, Note_on_c, 0, 74, 64
2, 20758, Note_on_c, 0, 74, 0
2, 20760, Note_on_c, 0, 73, 64
2, 20788, Note_on_c, 0, 73, 0
2, 20790, Note_on_c, 0, 71, 64
2, 20818, Note_on_c, 0, 71, 0
2, 20820, Note_on_c, 0, 69, 64
2, 20848, Note_on_c, 0, 69, 0
2, 20850, Note_on_c, 0, 67, 64
2, 20878, Note_on_c, 0, 67, 0
2, 20880, Note_on_c, 0, 66, 64
2, 20908, Note_on_c, 0, 66, 0
2, 20910, Note_on_c, 0, 69, 64
2, 20938, Note_on_c, 0, 69, 0
2, 20940, Note_on_c, 0, 67, 64
2, 20968, Note_on_c, 0, 67, 0
2, 20970, Note_on_c, 0, 66, 64
2, 20998, Note_on_c, 0, 66, 0
2, 21000, Note_on_c, 0, 64, 64
2, 21028, Note_on_c, 0, 64, 0
2, 21030, Note_on_c, 0, 62, 64
2, 21058, Note_on_c, 0, 62, 0
2, 21060, Note_on_c, 0, 61, 64
2, 21088, Note_on_c, 0, 61, 0
2, 21090, Note_on_c, 0, 62, 64
2, 21118, Note_on_c, 0, 62, 0
2, 21120, Note_on_c, 0, 61, 64
2, 21148, Note_on_c, 0, 61, 0
2, 21150, Note_on_c, 0, 62, 64
2, 21178, Note_on_c, 0, 62, 0
2, 21180, Note_on_c, 0, 64, 64
2, 21208, Note_on_c, 0, 64, 0
2, 21210, Note_on_c, 0, 62, 64
2, 21238, Note_on_c, 0, 62, 0
2, 21240, Note_on_c, 0, 66, 64
2, 21268, Note_on_c, 0, 66, 0
2, 21270, Note_on_c, 0, 64, 64
2, 21285, Note_on_c, 0, 64, 0
2, 21300, Note_on_c, 0, 67, 64
2, 21315, Note_on_c, 0, 67, 0
2, 21330, Note_on_c, 0, 66, 64
2, 21345, Note_on_c, 0, 66, 0
2, 21360, Note_on_c, 0, 69, 64
2, 21418, Note_on_c, 0, 69, 0
2, 21420, Note_on_c, 0, 67, 64
2, 21478, Note_on_c, 0, 67, 0
2, 21480, Note_on_c, 0, 71, 64
2, 21538, Note_on_c, 0, 71, 0
2, 21540, Note_on_c, 0, 61, 64
2, 21598, Note_on_c, 0, 61, 0
2, 21600, Note_on_c, 0, 61, 56
2, 21778, Note_on_c, 0, 61, 0
2, 21780, Note_on_c, 0, 64, 48
2, 21808, Note_on_c, 0, 64, 0
2, 21810, Note_on_c, 0, 62, 48
2, 21838, Note_on_c, 0, 62, 0
2, 22320, Note_on_c, 0, 67, 64
2, 22498, Note_on_c, 0, 67, 0
2, 22500, Note_on_c, 0, 69, 64
2, 22518, Note_on_c, 0, 69, 0
2, 22520, Note_on_c, 0, 67, 64
2, 22538, Note_on_c, 0, 67, 0
2, 22540, Note_on_c, 0, 66, 64
2, 22558, Note_on_c, 0, 66, 0
2, 22560, Note_on_c, 0, 67, 72
2, 22678, Note_on_c, 0, 67, 0
2, 22680, Note_on_c, 0, 71, 64
2, 22752, Note_on_c, 0, 71, 0
2, 22800, Note_on_c, 0, 74, 64
2, 22872, Note_on_c, 0, 74, 0
2, 22920, Note_on_c, 0, 67, 64
2, 23038, Note_on_c, 0, 67, 0
2, 23040, Note_on_c, 0, 66, 64
2, 23218, Note_on_c, 0, 66, 0
2, 23220, Note_on_c, 0, 67, 64
2, 23238, Note_on_c, 0, 67, 0
2, 23240, Note_on_c, 0, 66, 64
2, 23258, Note_on_c, 0, 66, 0
2, 23260, Note_on_c, 0, 64, 64
2, 23278, Note_on_c, 0, 64, 0
2, 23280, Note_on_c, 0, 66, 65
2, 23318, Note_on_c, 0, 66, 0
2, 23320, Note_on_c, 0, 67, 58
2, 23340, Note_on_c, 0, 67, 0
2, 23360, Note_on_c, 0, 68, 52
2, 23380, Note_on_c, 0, 68, 0
2, 23400, Note_on_c, 0, 69, 45
2, 23420, Note_on_c, 0, 69, 0
2, 23440, Note_on_c, 0, 70, 39
2, 23460, Note_on_c, 0, 70, 0
2, 23480, Note_on_c, 0, 71, 32
2, 23512, Note_on_c, 0, 71, 0
2, 23520, Note_on_c, 0, 72, 26
2, 23638, Note_on_c, 0, 72, 0
2, 23760, Note_on_c, 0, 69, 48
2, 23938, Note_on_c, 0, 69, 0
2, 23940, Note_on_c, 0, 71, 52
2, 23958, Note_on_c, 0, 71, 0
2, 23960, Note_on_c, 0, 69, 52
2, 23978, Note_on_c, 0, 69, 0
2, 23980, Note_on_c, 0, 68, 53
2, 23998, Note_on_c, 0, 68, 0
2, 24000, Note_on_c, 0, 69, 53
2, 24060, Note_on_c, 0, 69, 0
2, 24060, Note_on_c, 0, 71, 55
2, 24102, Note_on_c, 0, 71, 0
2, 24120, Note_on_c, 0, 72, 56
2, 24180, Note_on_c, 0, 72, 0
2, 24180, Note_on_c, 0, 74, 57
2, 24222, Note_on_c, 0, 74, 0
2, 24240, Note_on_c, 0, 75, 65
2, 24300, Note_on_c, 0, 75, 0
2, 24300, Note_on_c, 0, 76, 67
2, 24342, Note_on_c, 0, 76, 0
2, 24360, Note_on_c, 0, 72, 69
2, 24402, Note_on_c, 0, 72, 0
2, 24420, Note_on_c, 0, 69, 70
2, 24462, Note_on_c, 0, 69, 0
2, 24480, Note_on_c, 0, 71, 56
2, 24658, Note_on_c, 0, 71, 0
2, 24660, Note_on_c, 0, 72, 64
2, 24678, Note_on_c, 0, 72, 0
2, 24680, Note_on_c, 0, 71, 64
2, 24698, Note_on_c, 0, 71, 0
2, 24700, Note_on_c, 0, 69, 64
2, 24718, Note_on_c, 0, 69, 0
2, 24720, Note_on_c, 0, 71, 64
2, 24748, Note_on_c, 0, 71, 0
2, 24750, Note_on_c, 0, 67, 64
2, 24778, Note_on_c, 0, 67, 0
2, 24780, Note_on_c, 0, 72, 64
2, 24808, Note_on_c, 0, 72, 0
2, 24810, Note_on_c, 0, 69, 64
2, 24838, Note_on_c, 0, 69, 0
2, 24840, Note_on_c, 0, 74, 64
2, 24868, Note_on_c, 0, 74, 0
2, 24870, Note_on_c, 0, 71, 64
2, 24898, Note_on_c, 0, 71, 0
2, 24900, Note_on_c, 0, 76, 64
2, 24928, Note_on_c, 0, 76, 0
2, 24930, Note_on_c, 0, 72, 64
2, 24958, Note_on_c, 0, 72, 0
2, 24960, Note_on_c, 0, 74, 64
2, 25078, Note_on_c, 0, 74, 0
2, 25200, Note_on_c, 0, 79, 64
2, 25378, Note_on_c, 0, 79, 0
2, 25380, Note_on_c, 0, 81, 64
2, 25398, Note_on_c, 0, 81, 0
2, 25400, Note_on_c, 0, 79, 64
2, 25418, Note_on_c, 0, 79, 0
2, 25420, Note_on_c, 0, 78, 72
2, 25438, Note_on_c, 0, 78, 0
2, 25440, Note_on_c, 0, 79, 71
2, 25500, Note_on_c, 0, 79, 0
2, 25500, Note_on_c, 0, 83, 66
2, 25530, Note_on_c, 0, 83, 0
2, 25560, Note_on_c, 0, 86, 62
2, 25620, Note_on_c, 0, 86, 0
2, 25620, Note_on_c, 0, 83, 58
2, 25650, Note_on_c, 0, 83, 0
2, 25680, Note_on_c, 0, 79, 65
2, 25740, Note_on_c, 0, 79, 0
2, 25740, Note_on_c, 0, 74, 67
2, 25798, Note_on_c, 0, 74, 0
2, 25800, Note_on_c, 0, 72, 69
2, 25858, Note_on_c, 0, 72, 0
2, 25860, Note_on_c, 0, 71, 71
2, 25918, Note_on_c, 0, 71, 0
2, 25920, Note_on_c, 0, 69, 64
2, 26098, Note_on_c, 0, 69, 0
2, 26100, Note_on_c, 0, 71, 64
2, 26118, Note_on_c, 0, 71, 0
2, 26120, Note_on_c, 0, 69, 64
2, 26138, Note_on_c, 0, 69, 0
2, 26140, Note_on_c, 0, 68, 64
2, 26158, Note_on_c, 0, 68, 0
2, 26160, Note_on_c, 0, 69, 64
2, 26220, Note_on_c, 0, 69, 0
2, 26220, Note_on_c, 0, 71, 64
2, 26250, Note_on_c, 0, 71, 0
2, 26280, Note_on_c, 0, 72, 64
2, 26340, Note_on_c, 0, 72, 0
2, 26340, Note_on_c, 0, 74, 64
2, 26370, Note_on_c, 0, 74, 0
2, 26400, Note_on_c, 0, 76, 64
2, 26460, Note_on_c, 0, 76, 0
2, 26460, Note_on_c, 0, 72, 64
2, 26518, Note_on_c, 0, 72, 0
2, 26520, Note_on_c, 0, 69, 64
2, 26578, Note_on_c, 0, 69, 0
2, 26580, Note_on_c, 0, 67, 64
2, 26638, Note_on_c, 0, 67, 0
2, 26640, Note_on_c, 0, 66, 64
2, 26668, Note_on_c, 0, 66, 0
2, 26670, Note_on_c, 0, 64, 64
2, 26698, Note_on_c, 0, 64, 0
2, 26700, Note_on_c, 0, 62, 64
2, 26728, Note_on_c, 0, 62, 0
2, 26730, Note_on_c, 0, 61, 64
2, 26758, Note_on_c, 0, 61, 0
2, 26760, Note_on_c, 0, 62, 64
2, 26788, Note_on_c, 0, 62, 0
2, 26790, Note_on_c, 0, 64, 64
2, 26818, Note_on_c, 0, 64, 0
2, 26820, Note_on_c, 0, 66, 64
2, 26848, Note_on_c, 0, 66, 0
2, 26850, Note_on_c, 0, 67, 64
2, 26878, Note_on_c, 0, 67, 0
2, 26880, Note_on_c, 0, 69, 64
2, 26908, Note_on_c, 0, 69, 0
2, 26910, Note_on_c, 0, 67, 64
2, 26938, Note_on_c, 0, 67, 0
2, 26940, Note_on_c, 0, 66, 64
2, 26968, Note_on_c, 0, 66, 0
2, 26970, Note_on_c, 0, 64, 64
2, 26998, Note_on_c, 0, 64, 0
2, 27000, Note_on_c, 0, 66, 64
2, 27028, Note_on_c, 0, 66, 0
2, 27030, Note_on_c, 0, 67, 64
2, 27058, Note_on_c, 0, 67, 0
2, 27060, Note_on_c, 0, 69, 64
2, 27088, Note_on_c, 0, 69, 0
2, 27090, Note_on_c, 0, 71, 64
2, 27118, Note_on_c, 0, 71, 0
2, 27120, Note_on_c, 0, 72, 64
2, 27148, Note_on_c, 0, 72, 0
2, 27150, Note_on_c, 0, 69, 64
2, 27178, Note_on_c, 0, 69, 0
2, 27180, Note_on_c, 0, 74, 64
2, 27208, Note_on_c, 0, 74, 0
2, 27210, Note_on_c, 0, 71, 64
2, 27238, Note_on_c, 0, 71, 0
2, 27240, Note_on_c, 0, 76, 64
2, 27268, Note_on_c, 0, 76, 0
2, 27270, Note_on_c, 0, 72, 64
2, 27298, Note_on_c, 0, 72, 0
2, 27300, Note_on_c, 0, 71, 64
2, 27328, Note_on_c, 0, 71, 0
2, 27330, Note_on_c, 0, 69, 64
2, 27358, Note_on_c, 0, 69, 0
2, 27360, Note_on_c, 0, 71, 64
2, 27388, Note_on_c, 0, 71, 0
2, 27390, Note_on_c, 0, 67, 64
2, 27418, Note_on_c, 0, 67, 0
2, 27420, Note_on_c, 0, 69, 64
2, 27448, Note_on_c, 0, 69, 0
2, 27450, Note_on_c, 0, 71, 64
2, 27478, Note_on_c, 0, 71, 0
2, 27480, Note_on_c, 0, 72, 64
2, 27508, Note_on_c, 0, 72, 0
2, 27510, Note_on_c, 0, 74, 64
2, 27538, Note_on_c, 0, 74, 0
2, 27540, Note_on_c, 0, 76, 64
2, 27568, Note_on_c, 0, 76, 0
2, 27570, Note_on_c, 0, 78, 64
2, 27598, Note_on_c, 0, 78, 0
2, 27600, Note_on_c, 0, 79, 64
2, 27628, Note_on_c, 0, 79, 0
2, 27630, Note_on_c, 0, 78, 64
2, 27645, Note_on_c, 0, 78, 0
2, 27660, Note_on_c, 0, 79, 64
2, 27688, Note_on_c, 0, 79, 0
2, 27690, Note_on_c, 0, 78, 64
2, 27705, Note_on_c, 0, 78, 0
2, 27720, Note_on_c, 0, 79, 64
2, 27748, Note_on_c, 0, 79, 0
2, 27750, Note_on_c, 0, 78, 64
2, 27765, Note_on_c, 0, 78, 0
2, 27780, Note_on_c, 0, 79, 64
2, 27808, Note_on_c, 0, 79, 0
2, 27810, Note_on_c, 0, 78, 64
2, 27825, Note_on_c, 0, 78, 0
2, 27840, Note_on_c, 0, 79, 64
2, 27868, Note_on_c, 0, 79, 0
2, 27870, Note_on_c, 0, 78, 64
2, 27898, Note_on_c, 0, 78, 0
2, 27900, Note_on_c, 0, 76, 64
2, 27928, Note_on_c, 0, 76, 0
2, 27930, Note_on_c, 0, 74, 64
2, 27954, Note_on_c, 0, 74, 0
2, 27960, Note_on_c, 0, 72, 64
2, 27984, Note_on_c, 0, 72, 0
2, 27990, Note_on_c, 0, 71, 64
2, 28014, Note_on_c, 0, 71, 0
2, 28020, Note_on_c, 0, 69, 64
2, 28044, Note_on_c, 0, 69, 0
2, 28050, Note_on_c, 0, 67, 64
2, 28074, Note_on_c, 0, 67, 0
2, 28080, Note_on_c, 0, 69, 64
2, 28108, Note_on_c, 0, 69, 0
2, 28110, Note_on_c, 0, 68, 64
2, 28138, Note_on_c, 0, 68, 0
2, 28140, Note_on_c, 0, 71, 64
2, 28168, Note_on_c, 0, 71, 0
2, 28170, Note_on_c, 0, 69, 64
2, 28198, Note_on_c, 0, 69, 0
2, 28200, Note_on_c, 0, 72, 64
2, 28228, Note_on_c, 0, 72, 0
2, 28230, Note_on_c, 0, 71, 64
2, 28258, Note_on_c, 0, 71, 0
2, 28260, Note_on_c, 0, 74, 64
2, 28288, Note_on_c, 0, 74, 0
2, 28290, Note_on_c, 0, 72, 64
2, 28318, Note_on_c, 0, 72, 0
2, 28320, Note_on_c, 0, 76, 64
2, 28348, Note_on_c, 0, 76, 0
2, 28350, Note_on_c, 0, 72, 64
2, 28378, Note_on_c, 0, 72, 0
2, 28380, Note_on_c, 0, 71, 64
2, 28408, Note_on_c, 0, 71, 0
2, 28410, Note_on_c, 0, 69, 64
2, 28438, Note_on_c, 0, 69, 0
2, 28440, Note_on_c, 0, 68, 64
2, 28468, Note_on_c, 0, 68, 0
2, 28470, Note_on_c, 0, 69, 64
2, 28498, Note_on_c, 0, 69, 0
2, 28500, Note_on_c, 0, 71, 64
2, 28528, Note_on_c, 0, 71, 0
2, 28530, Note_on_c, 0, 69, 64
2, 28558, Note_on_c, 0, 69, 0
2, 28560, Note_on_c, 0, 72, 64
2, 28588, Note_on_c, 0, 72, 0
2, 28590, Note_on_c, 0, 71, 63
2, 28618, Note_on_c, 0, 71, 0
2, 28620, Note_on_c, 0, 74, 62
2, 28648, Note_on_c, 0, 74, 0
2, 28650, Note_on_c, 0, 72, 61
2, 28678, Note_on_c, 0, 72, 0
2, 28680, Note_on_c, 0, 76, 60
2, 28708, Note_on_c, 0, 76, 0
2, 28710, Note_on_c, 0, 72, 58
2, 28725, Note_on_c, 0, 72, 0
2, 28740, Note_on_c, 0, 71, 57
2, 28755, Note_on_c, 0, 71, 0
2, 28770, Note_on_c, 0, 69, 56
2, 28785, Note_on_c, 0, 69, 0
2, 28800, Note_on_c, 0, 74, 56
2, 28824, Note_on_c, 0, 74, 0
2, 28830, Note_on_c, 0, 76, 57
2, 28854, Note_on_c, 0, 76, 0
2, 28860, Note_on_c, 0, 73, 58
2, 28884, Note_on_c, 0, 73, 0
2, 28890, Note_on_c, 0, 76, 59
2, 28914, Note_on_c, 0, 76, 0
2, 28920, Note_on_c, 0, 74, 60
2, 28944, Note_on_c, 0, 74, 0
2, 28950, Note_on_c, 0, 76, 61
2, 28974, Note_on_c, 0, 76, 0
2, 28980, Note_on_c, 0, 73, 62
2, 29004, Note_on_c, 0, 73, 0
2, 29010, Note_on_c, 0, 76, 63
2, 29034, Note_on_c, 0, 76, 0
2, 29040, Note_on_c, 0, 74, 64
2, 29064, Note_on_c, 0, 74, 0
2, 29070, Note_on_c, 0, 79, 65
2, 29094, Note_on_c, 0, 79, 0
2, 29100, Note_on_c, 0, 78, 66
2, 29124, Note_on_c, 0, 78, 0
2, 29130, Note_on_c, 0, 81, 67
2, 29154, Note_on_c, 0, 81, 0
2, 29160, Note_on_c, 0, 79, 68
2, 29184, Note_on_c, 0, 79, 0
2, 29190, Note_on_c, 0, 81, 69
2, 29214, Note_on_c, 0, 81, 0
2, 29220, Note_on_c, 0, 78, 70
2, 29244, Note_on_c, 0, 78, 0
2, 29250, Note_on_c, 0, 81, 71
2, 29274, Note_on_c, 0, 81, 0
2, 29280, Note_on_c, 0, 79, 72
2, 29304, Note_on_c, 0, 79, 0
2, 29310, Note_on_c, 0, 83, 73
2, 29334, Note_on_c, 0, 83, 0
2, 29340, Note_on_c, 0, 81, 74
2, 29364, Note_on_c, 0, 81, 0
2, 29370, Note_on_c, 0, 84, 75
2, 29394, Note_on_c, 0, 84, 0
2, 29400, Note_on_c, 0, 83, 76
2, 29424, Note_on_c, 0, 83, 0
2, 29430, Note_on_c, 0, 86, 77
2, 29445, Note_on_c, 0, 86, 0
2, 29460, Note_on_c, 0, 78, 78
2, 29475, Note_on_c, 0, 78, 0
2, 29490, Note_on_c, 0, 81, 79
2, 29505, Note_on_c, 0, 81, 0
2, 29520, Note_on_c, 0, 79, 80
2, 29548, Note_on_c, 0, 79, 0
2, 29550, Note_on_c, 0, 83, 79
2, 29578, Note_on_c, 0, 83, 0
2, 29580, Note_on_c, 0, 75, 78
2, 29608, Note_on_c, 0, 75, 0
2, 29610, Note_on_c, 0, 78, 77
2, 29638, Note_on_c, 0, 78, 0
2, 29640, Note_on_c, 0, 76, 76
2, 29668, Note_on_c, 0, 76, 0
2, 29670, Note_on_c, 0, 79, 75
2, 29698, Note_on_c, 0, 79, 0
2, 29700, Note_on_c, 0, 71, 74
2, 29728, Note_on_c, 0, 71, 0
2, 29730, Note_on_c, 0, 74, 73
2, 29758, Note_on_c, 0, 74, 0
2, 29760, Note_on_c, 0, 72, 72
2, 29788, Note_on_c, 0, 72, 0
2, 29790, Note_on_c, 0, 76, 71
2, 29818, Note_on_c, 0, 76, 0
2, 29820, Note_on_c, 0, 69, 70
2, 29848, Note_on_c, 0, 69, 0
2, 29850, Note_on_c, 0, 72, 69
2, 29878, Note_on_c, 0, 72, 0
2, 29880, Note_on_c, 0, 71, 68
2, 29908, Note_on_c, 0, 71, 0
2, 29910, Note_on_c, 0, 74, 67
2, 29938, Note_on_c, 0, 74, 0
2, 29940, Note_on_c, 0, 67, 66
2, 29968, Note_on_c, 0, 67, 0
2, 29970, Note_on_c, 0, 71, 65
2, 29998, Note_on_c, 0, 71, 0
2, 30000, Note_on_c, 0, 69, 64
2, 30028, Note_on_c, 0, 69, 0
2, 30030, Note_on_c, 0, 72, 63
2, 30058, Note_on_c, 0, 72, 0
2, 30060, Note_on_c, 0, 66, 62
2, 30088, Note_on_c, 0, 66, 0
2, 30090, Note_on_c, 0, 69, 61
2, 30118, Note_on_c, 0, 69, 0
2, 30120, Note_on_c, 0, 67, 60
2, 30148, Note_on_c, 0, 67, 0
2, 30150, Note_on_c, 0, 71, 59
2, 30178, Note_on_c, 0, 71, 0
2, 30180, Note_on_c, 0, 59, 58
2, 30208, Note_on_c, 0, 59, 0
2, 30210, Note_on_c, 0, 71, 57
2, 30238, Note_on_c, 0, 71, 0
2, 30240, Note_on_c, 0, 60, 64
2, 30268, Note_on_c, 0, 60, 0
2, 30270, Note_on_c, 0, 71, 64
2, 30298, Note_on_c, 0, 71, 0
2, 30300, Note_on_c, 0, 61, 64
2, 30328, Note_on_c, 0, 61, 0
2, 30330, Note_on_c, 0, 71, 64
2, 30358, Note_on_c, 0, 71, 0
2, 30360, Note_on_c, 0, 62, 64
2, 30388, Note_on_c, 0, 62, 0
2, 30390, Note_on_c, 0, 71, 64
2, 30418, Note_on_c, 0, 71, 0
2, 30420, Note_on_c, 0, 63, 64
2, 30448, Note_on_c, 0, 63, 0
2, 30450, Note_on_c, 0, 71, 64
2, 30478, Note_on_c, 0, 71, 0
2, 30480, Note_on_c, 0, 64, 64
2, 30508, Note_on_c, 0, 64, 0
2, 30510, Note_on_c, 0, 71, 64
2, 30538, Note_on_c, 0, 71, 0
2, 30540, Note_on_c, 0, 66, 64
2, 30568, Note_on_c, 0, 66, 0
2, 30570, Note_on_c, 0, 71, 64
2, 30598, Note_on_c, 0, 71, 0
2, 30600, Note_on_c, 0, 67, 64
2, 30628, Note_on_c, 0, 67, 0
2, 30630, Note_on_c, 0, 71, 64
2, 30658, Note_on_c, 0, 71, 0
2, 30660, Note_on_c, 0, 66, 64
2, 30688, Note_on_c, 0, 66, 0
2, 30690, Note_on_c, 0, 71, 64
2, 30718, Note_on_c, 0, 71, 0
2, 30720, Note_on_c, 0, 64, 64
2, 30748, Note_on_c, 0, 64, 0
2, 30750, Note_on_c, 0, 71, 64
2, 30778, Note_on_c, 0, 71, 0
2, 30780, Note_on_c, 0, 62, 64
2, 30808, Note_on_c, 0, 62, 0
2, 30810, Note_on_c, 0, 71, 64
2, 30838, Note_on_c, 0, 71, 0
2, 30840, Note_on_c, 0, 60, 64
2, 30868, Note_on_c, 0, 60, 0
2, 30870, Note_on_c, 0, 71, 64
2, 30898, Note_on_c, 0, 71, 0
2, 30900, Note_on_c, 0, 61, 64
2, 30928, Note_on_c, 0, 61, 0
2, 30930, Note_on_c, 0, 71, 64
2, 30958, Note_on_c, 0, 71, 0
2, 31080, Note_on_c, 0, 67, 71
2, 31100, Note_on_c, 0, 71, 70
2, 31118, Note_on_c, 0, 71, 0
2, 31118, Note_on_c, 0, 67, 0
2, 31120, Note_on_c, 0, 74, 69
2, 31138, Note_on_c, 0, 74, 0
2, 31140, Note_on_c, 0, 71, 67
2, 31158, Note_on_c, 0, 71, 0
2, 31160, Note_on_c, 0, 67, 66
2, 31178, Note_on_c, 0, 67, 0
2, 31180, Note_on_c, 0, 62, 65
2, 31195, Note_on_c, 0, 79, 72
2, 31198, Note_on_c, 0, 62, 0
2, 31211, Note_on_c, 0, 79, 0
2, 31215, Note_on_c, 0, 81, 70
2, 31231, Note_on_c, 0, 81, 0
2, 31235, Note_on_c, 0, 83, 68
2, 31251, Note_on_c, 0, 83, 0
2, 31255, Note_on_c, 0, 81, 66
2, 31267, Note_on_c, 0, 81, 0
2, 31270, Note_on_c, 0, 83, 64
2, 31282, Note_on_c, 0, 83, 0
2, 31285, Note_on_c, 0, 81, 63
2, 31297, Note_on_c, 0, 81, 0
2, 31300, Note_on_c, 0, 83, 61
2, 31312, Note_on_c, 0, 83, 0
2, 31315, Note_on_c, 0, 81, 60
2, 31327, Note_on_c, 0, 81, 0
2, 31330, Note_on_c, 0, 83, 58
2, 31342, Note_on_c, 0, 83, 0
2, 31345, Note_on_c, 0, 81, 57
2, 31357, Note_on_c, 0, 81, 0
2, 31360, Note_on_c, 0, 83, 55
2, 31372, Note_on_c, 0, 83, 0
2, 31375, Note_on_c, 0, 81, 54
2, 31387, Note_on_c, 0, 81, 0
2, 31390, Note_on_c, 0, 83, 52
2, 31402, Note_on_c, 0, 83, 0
2, 31405, Note_on_c, 0, 81, 51
2, 31417, Note_on_c, 0, 81, 0
2, 31420, Note_on_c, 0, 83, 49
2, 31432, Note_on_c, 0, 83, 0
2, 31435, Note_on_c, 0, 81, 48
2, 31447, Note_on_c, 0, 81, 0
2, 31450, Note_on_c, 0, 83, 50
2, 31462, Note_on_c, 0, 83, 0
2, 31465, Note_on_c, 0, 81, 52
2, 31477, Note_on_c, 0, 81, 0
2, 31480, Note_on_c, 0, 83, 54
2, 31492, Note_on_c, 0, 83, 0
2, 31495, Note_on_c, 0, 81, 56
2, 31507, Note_on_c, 0, 81, 0
2, 31510, Note_on_c, 0, 83, 58
2, 31522, Note_on_c, 0, 83, 0
2, 31525, Note_on_c, 0, 81, 60
2, 31537, Note_on_c, 0, 81, 0
2, 31540, Note_on_c, 0, 83, 62
2, 31552, Note_on_c, 0, 83, 0
2, 31555, Note_on_c, 0, 81, 64
2, 31567, Note_on_c, 0, 81, 0
2, 31570, Note_on_c, 0, 83, 66
2, 31582, Note_on_c, 0, 83, 0
2, 31585, Note_on_c, 0, 81, 68
2, 31597, Note_on_c, 0, 81, 0
2, 31600, Note_on_c, 0, 83, 70
2, 31612, Note_on_c, 0, 83, 0
2, 31615, Note_on_c, 0, 81, 72
2, 31623, Note_on_c, 0, 81, 0
2, 31625, Note_on_c, 0, 83, 73
2, 31633, Note_on_c, 0, 83, 0
2, 31635, Note_on_c, 0, 81, 74
2, 31643, Note_on_c, 0, 81, 0
2, 31645, Note_on_c, 0, 79, 76
2, 31657, Note_on_c, 0, 79, 0
2, 31660, Note_on_c, 0, 81, 78
2, 31672, Note_on_c, 0, 81, 0
2, 31680, Note_on_c, 0, 79, 80
2, 31848, Note_on_c, 0, 79, 0
2, 31920, Note_on_c, 0, 72, 88
2, 31920, Note_on_c, 0, 76, 88
2, 31920, Note_on_c, 0, 79, 88
2, 31920, Note_on_c, 0, 84, 88
2, 32160, Note_on_c, 0, 84, 0
2, 32160, Note_on_c, 0, 72, 0
2, 32160, Note_on_c, 0, 76, 0
2, 32160, Note_on_c, 0, 79, 0
2, 32340, Note_on_c, 0, 67, 80
2, 32340, Note_on_c, 0, 72, 80
2, 32398, Note_on_c, 0, 72, 0
2, 32398, Note_on_c, 0, 67, 0
2, 32400, Note_on_c, 0, 66, 80
2, 32400, Note_on_c, 0, 71, 80
2, 32520, Note_on_c, 0, 71, 0
2, 32520, Note_on_c, 0, 66, 0
2, 32640, Note_on_c, 0, 71, 88
2, 32640, Note_on_c, 0, 75, 88
2, 32640, Note_on_c, 0, 78, 88
2, 32640, Note_on_c, 0, 83, 88
2, 32832, Note_on_c, 0, 83, 0
2, 32832, Note_on_c, 0, 71, 0
2, 32832, Note_on_c, 0, 75, 0
2, 32832, Note_on_c, 0, 78, 0
2, 33060, Note_on_c, 0, 66, 64
2, 33060, Note_on_c, 0, 69, 64
2, 33118, Note_on_c, 0, 69, 0
2, 33118, Note_on_c, 0, 66, 0
2, 33120, Note_on_c, 0, 66, 64
2, 33120, Note_on_c, 0, 69, 64
2, 33598, Note_on_c, 0, 69, 0
2, 33598, Note_on_c, 0, 66, 0
2, 33600, Note_on_c, 0, 66, 64
2, 33600, Note_on_c, 0, 69, 64
2, 33660, Note_on_c, 0, 69, 0
2, 33660, Note_on_c, 0, 66, 0
2, 33660, Note_on_c, 0, 64, 64
2, 33660, Note_on_c, 0, 67, 64
2, 33718, Note_on_c, 0, 67, 0
2, 33718, Note_on_c, 0, 64, 0
2, 33720, Note_on_c, 0, 63, 64
2, 33720, Note_on_c, 0, 66, 64
2, 33780, Note_on_c, 0, 66, 0
2, 33780, Note_on_c, 0, 63, 0
2, 33780, Note_on_c, 0, 64, 64
2, 33780, Note_on_c, 0, 67, 64
2, 33840, Note_on_c, 0, 67, 0
2, 33840, Note_on_c, 0, 64, 0
2, 33840, Note_on_c, 0, 63, 64
2, 33840, Note_on_c, 0, 66, 64
2, 33960, Note_on_c, 0, 66, 0
2, 33960, Note_on_c, 0, 63, 0
2, 34080, Note_on_c, 0, 51, 40
2, 34080, Note_on_c, 0, 59, 40
2, 34176, Note_on_c, 0, 59, 0
2, 34176, Note_on_c, 0, 51, 0
2, 34320, Note_on_c, 0, 51, 32
2, 34320, Note_on_c, 0, 59, 32
2, 34416, Note_on_c, 0, 59, 0
2, 34416, Note_on_c, 0, 51, 0
2, 34560, Note_on_c, 0, 51, 24
2, 34560, Note_on_c, 0, 59, 24
2, 34776, Note_on_c, 0, 59, 0
2, 34776, Note_on_c, 0, 51, 0
2, 34776, End_track
3, 0, Start_track
3, 0, MIDI_port, 0
3, 0, Title_t, "by F.J. Haydn (2nd mvmt - adagio)"
3, 0, Program_c, 1, 0
3, 0, Control_c, 1, 7, 120
3, 0, Control_c, 1, 10, 56
3, 0, Note_on_c, 1, 55, 56
3, 0, Note_on_c, 1, 59, 56
3, 720, Note_on_c, 1, 59, 0
3, 720, Note_on_c, 1, 55, 0
3, 720, Note_on_c, 1, 50, 56
3, 720, Note_on_c, 1, 57, 56
3, 720, Note_on_c, 1, 60, 56
3, 1296, Note_on_c, 1, 60, 0
3, 1296, Note_on_c, 1, 57, 0
3, 1296, Note_on_c, 1, 50, 0
3, 1440, Note_on_c, 1, 50, 56
3, 1440, Note_on_c, 1, 54, 56
3, 1440, Note_on_c, 1, 60, 56
3, 2160, Note_on_c, 1, 60, 0
3, 2160, Note_on_c, 1, 54, 0
3, 2160, Note_on_c, 1, 50, 0
3, 2160, Note_on_c, 1, 55, 64
3, 2160, Note_on_c, 1, 59, 64
3, 2400, Note_on_c, 1, 59, 0
3, 2400, Note_on_c, 1, 55, 0
3, 2400, Note_on_c, 1, 43, 56
3, 2400, Note_on_c, 1, 47, 56
3, 2640, Note_on_c, 1, 47, 0
3, 2640, Note_on_c, 1, 43, 0
3, 2880, Note_on_c, 1, 59, 64
3, 2880, Note_on_c, 1, 62, 64
3, 2880, Note_on_c, 1, 67, 64
3, 3600, Note_on_c, 1, 67, 0
3, 3600, Note_on_c, 1, 62, 0
3, 3600, Note_on_c, 1, 59, 0
3, 3600, Note_on_c, 1, 60, 64
3, 3600, Note_on_c, 1, 64, 64
3, 3840, Note_on_c, 1, 64, 0
3, 3840, Note_on_c, 1, 60, 0
3, 3840, Note_on_c, 1, 48, 56
3, 3840, Note_on_c, 1, 52, 56
3, 4080, Note_on_c, 1, 52, 0
3, 4080, Note_on_c, 1, 48, 0
3, 4320, Note_on_c, 1, 50, 64
3, 4560, Note_on_c, 1, 50, 0
3, 4560, Note_on_c, 1, 55, 64
3, 4560, Note_on_c, 1, 59, 64
3, 4800, Note_on_c, 1, 59, 0
3, 4800, Note_on_c, 1, 55, 0
3, 4800, Note_on_c, 1, 57, 48
3, 4800, Note_on_c, 1, 60, 48
3, 4920, Note_on_c, 1, 60, 0
3, 4920, Note_on_c, 1, 57, 0
3, 5040, Note_on_c, 1, 59, 32
3, 5040, Note_on_c, 1, 55, 32
3, 5280, Note_on_c, 1, 55, 0
3, 5280, Note_on_c, 1, 59, 0
3, 5280, Note_on_c, 1, 43, 16
3, 5400, Note_on_c, 1, 43, 0
3, 6000, Note_on_c, 1, 55, 64
3, 6000, Note_on_c, 1, 59, 64
3, 6120, Note_on_c, 1, 59, 0
3, 6120, Note_on_c, 1, 55, 0
3, 6240, Note_on_c, 1, 67, 64
3, 6240, Note_on_c, 1, 71, 64
3, 6360, Note_on_c, 1, 71, 0
3, 6360, Note_on_c, 1, 67, 0
3, 6720, Note_on_c, 1, 62, 64
3, 6720, Note_on_c, 1, 54, 64
3, 6840, Note_on_c, 1, 54, 0
3, 6840, Note_on_c, 1, 62, 0
3, 6960, Note_on_c, 1, 54, 48
3, 6960, Note_on_c, 1, 62, 48
3, 7080, Note_on_c, 1, 62, 0
3, 7080, Note_on_c, 1, 54, 0
3, 7440, Note_on_c, 1, 54, 56
3, 7440, Note_on_c, 1, 62, 56
3, 7560, Note_on_c, 1, 62, 0
3, 7560, Note_on_c, 1, 54, 0
3, 7680, Note_on_c, 1, 54, 48
3, 7680, Note_on_c, 1, 62, 48
3, 7800, Note_on_c, 1, 62, 0
3, 7800, Note_on_c, 1, 54, 0
3, 8160, Note_on_c, 1, 71, 64
3, 8160, Note_on_c, 1, 64, 64
3, 8400, Note_on_c, 1, 64, 0
3, 8400, Note_on_c, 1, 62, 64
3, 8640, Note_on_c, 1, 62, 0
3, 8640, Note_on_c, 1, 71, 0
3, 8640, Note_on_c, 1, 61, 64
3, 8640, Note_on_c, 1, 69, 64
3, 9360, Note_on_c, 1, 69, 0
3, 9360, Note_on_c, 1, 61, 0
3, 9360, Note_on_c, 1, 62, 64
3, 9360, Note_on_c, 1, 69, 64
3, 9600, Note_on_c, 1, 69, 0
3, 9600, Note_on_c, 1, 62, 0
3, 9840, Note_on_c, 1, 54, 64
3, 9840, Note_on_c, 1, 62, 64
3, 10080, Note_on_c, 1, 62, 0
3, 10080, Note_on_c, 1, 54, 0
3, 10080, Note_on_c, 1, 55, 40
3, 10080, Note_on_c, 1, 59, 40
3, 10320, Note_on_c, 1, 59, 0
3, 10320, Note_on_c, 1, 55, 0
3, 10800, Note_on_c, 1, 57, 64
3, 10800, Note_on_c, 1, 62, 64
3, 10800, Note_on_c, 1, 66, 64
3, 11520, Note_on_c, 1, 66, 0
3, 11520, Note_on_c, 1, 62, 0
3, 11520, Note_on_c, 1, 57, 0
3, 11760, Note_on_c, 1, 33, 64
3, 11760, Note_on_c, 1, 45, 64
3, 12000, Note_on_c, 1, 45, 0
3, 12000, Note_on_c, 1, 33, 0
3, 12000, Note_on_c, 1, 57, 64
3, 12000, Note_on_c, 1, 61, 64
3, 12000, Note_on_c, 1, 67, 64
3, 12240, Note_on_c, 1, 67, 0
3, 12240, Note_on_c, 1, 61, 0
3, 12240, Note_on_c, 1, 57, 0
3, 12240, Note_on_c, 1, 62, 64
3, 12240, Note_on_c, 1, 66, 64
3, 12432, Note_on_c, 1, 66, 0
3, 12432, Note_on_c, 1, 62, 0
3, 12480, Note_on_c, 1, 42, 24
3, 12600, Note_on_c, 1, 42, 0
3, 13200, Note_on_c, 1, 31, 56
3, 13320, Note_on_c, 1, 31, 0
3, 13440, Note_on_c, 1, 33, 40
3, 13560, Note_on_c, 1, 33, 0
3, 13920, Note_on_c, 1, 38, 24
3, 14088, Note_on_c, 1, 38, 0
3, 14400, Note_on_c, 1, 59, 64
3, 14400, Note_on_c, 1, 51, 64
3, 14400, Note_on_c, 1, 54, 64
3, 15120, Note_on_c, 1, 54, 0
3, 15120, Note_on_c, 1, 51, 0
3, 15120, Note_on_c, 1, 52, 64
3, 15240, Note_on_c, 1, 52, 0
3, 15240, Note_on_c, 1, 59, 0
3, 15240, Note_on_c, 1, 58, 64
3, 15240, Note_on_c, 1, 61, 64
3, 15360, Note_on_c, 1, 61, 0
3, 15360, Note_on_c, 1, 58, 0
3, 15360, Note_on_c, 1, 59, 64
3, 15528, Note_on_c, 1, 59, 0
3, 15840, Note_on_c, 1, 64, 24
3, 15840, Note_on_c, 1, 67, 24
3, 16560, Note_on_c, 1, 67, 0
3, 16560, Note_on_c, 1, 64, 0
3, 16560, Note_on_c, 1, 59, 56
3, 16560, Note_on_c, 1, 66, 56
3, 16560, Note_on_c, 1, 69, 56
3, 17280, Note_on_c, 1, 69, 0
3, 17280, Note_on_c, 1, 66, 0
3, 17280, Note_on_c, 1, 59, 0
3, 17280, Note_on_c, 1, 52, 64
3, 17310, Note_on_c, 1, 56, 64
3, 17340, Note_on_c, 1, 59, 64
3, 17370, Note_on_c, 1, 62, 64
3, 17460, Note_on_c, 1, 62, 0
3, 17460, Note_on_c, 1, 52, 0
3, 17460, Note_on_c, 1, 56, 0
3, 17460, Note_on_c, 1, 59, 0
3, 18750, Note_on_c, 1, 50, 64
3, 18780, Note_on_c, 1, 54, 64
3, 18810, Note_on_c, 1, 57, 64
3, 18900, Note_on_c, 1, 57, 0
3, 18900, Note_on_c, 1, 54, 0
3, 18900, Note_on_c, 1, 50, 0
3, 20640, Note_on_c, 1, 40, 48
3, 20880, Note_on_c, 1, 40, 0
3, 20880, Note_on_c, 1, 45, 56
3, 21120, Note_on_c, 1, 45, 0
3, 21840, Note_on_c, 1, 38, 24
3, 22080, Note_on_c, 1, 38, 0
3, 22320, Note_on_c, 1, 55, 56
3, 22320, Note_on_c, 1, 59, 56
3, 23040, Note_on_c, 1, 59, 0
3, 23040, Note_on_c, 1, 55, 0
3, 23040, Note_on_c, 1, 50, 48
3, 23040, Note_on_c, 1, 57, 48
3, 23040, Note_on_c, 1, 60, 48
3, 23616, Note_on_c, 1, 60, 0
3, 23616, Note_on_c, 1, 57, 0
3, 23616, Note_on_c, 1, 50, 0
3, 23760, Note_on_c, 1, 50, 48
3, 23760, Note_on_c, 1, 54, 48
3, 23760, Note_on_c, 1, 60, 48
3, 24480, Note_on_c, 1, 60, 0
3, 24480, Note_on_c, 1, 54, 0
3, 24480, Note_on_c, 1, 50, 0
3, 24480, Note_on_c, 1, 55, 56
3, 24480, Note_on_c, 1, 59, 56
3, 24720, Note_on_c, 1, 59, 0
3, 24720, Note_on_c, 1, 55, 0
3, 24720, Note_on_c, 1, 43, 40
3, 24720, Note_on_c, 1, 47, 40
3, 24960, Note_on_c, 1, 47, 0
3, 24960, Note_on_c, 1, 43, 0
3, 25200, Note_on_c, 1, 59, 48
3, 25200, Note_on_c, 1, 62, 48
3, 25200, Note_on_c, 1, 67, 48
3, 25920, Note_on_c, 1, 67, 0
3, 25920, Note_on_c, 1, 62, 0
3, 25920, Note_on_c, 1, 59, 0
3, 25920, Note_on_c, 1, 60, 64
3, 25920, Note_on_c, 1, 64, 64
3, 26400, Note_on_c, 1, 64, 0
3, 26400, Note_on_c, 1, 60, 0
3, 26520, Note_on_c, 1, 61, 64
3, 26640, Note_on_c, 1, 61, 0
3, 26640, Note_on_c, 1, 62, 64
3, 26880, Note_on_c, 1, 62, 0
3, 27120, Note_on_c, 1, 54, 64
3, 27120, Note_on_c, 1, 62, 64
3, 27360, Note_on_c, 1, 62, 0
3, 27360, Note_on_c, 1, 54, 0
3, 27360, Note_on_c, 1, 55, 64
3, 27360, Note_on_c, 1, 62, 64
3, 27600, Note_on_c, 1, 62, 0
3, 27600, Note_on_c, 1, 55, 0
3, 27840, Note_on_c, 1, 47, 64
3, 27840, Note_on_c, 1, 55, 64
3, 28080, Note_on_c, 1, 55, 0
3, 28080, Note_on_c, 1, 47, 0
3, 28080, Note_on_c, 1, 52, 64
3, 28080, Note_on_c, 1, 48, 64
3, 28320, Note_on_c, 1, 48, 0
3, 28320, Note_on_c, 1, 52, 0
3, 28800, Note_on_c, 1, 50, 64
3, 28800, Note_on_c, 1, 55, 64
3, 28800, Note_on_c, 1, 59, 64
3, 29040, Note_on_c, 1, 59, 0
3, 29040, Note_on_c, 1, 55, 0
3, 29040, Note_on_c, 1, 50, 0
3, 30180, Note_on_c, 1, 47, 64
3, 30240, Note_on_c, 1, 47, 0
3, 30240, Note_on_c, 1, 48, 64
3, 30300, Note_on_c, 1, 48, 0
3, 30300, Note_on_c, 1, 49, 64
3, 30360, Note_on_c, 1, 49, 0
3, 30360, Note_on_c, 1, 50, 64
3, 30420, Note_on_c, 1, 50, 0
3, 30420, Note_on_c, 1, 51, 64
3, 30480, Note_on_c, 1, 51, 0
3, 30480, Note_on_c, 1, 52, 64
3, 30540, Note_on_c, 1, 52, 0
3, 30540, Note_on_c, 1, 54, 64
3, 30600, Note_on_c, 1, 54, 0
3, 30600, Note_on_c, 1, 55, 64
3, 30660, Note_on_c, 1, 55, 0
3, 30660, Note_on_c, 1, 54, 64
3, 30720, Note_on_c, 1, 54, 0
3, 30720, Note_on_c, 1, 52, 64
3, 30780, Note_on_c, 1, 52, 0
3, 30780, Note_on_c, 1, 50, 64
3, 30840, Note_on_c, 1, 50, 0
3, 30840, Note_on_c, 1, 48, 64
3, 30900, Note_on_c, 1, 48, 0
3, 30900, Note_on_c, 1, 49, 64
3, 30960, Note_on_c, 1, 49, 0
3, 30960, Note_on_c, 1, 50, 64
3, 30990, Note_on_c, 1, 55, 66
3, 31020, Note_on_c, 1, 59, 69
3, 31050, Note_on_c, 1, 62, 71
3, 31140, Note_on_c, 1, 62, 0
3, 31140, Note_on_c, 1, 50, 0
3, 31140, Note_on_c, 1, 55, 0
3, 31140, Note_on_c, 1, 59, 0
3, 31200, Note_on_c, 1, 38, 64
3, 31440, Note_on_c, 1, 38, 0
3, 31440, Note_on_c, 1, 62, 64
3, 31440, Note_on_c, 1, 66, 64
3, 31440, Note_on_c, 1, 72, 49
3, 31680, Note_on_c, 1, 72, 0
3, 31680, Note_on_c, 1, 66, 0
3, 31680, Note_on_c, 1, 62, 0
3, 31680, Note_on_c, 1, 64, 80
3, 31680, Note_on_c, 1, 67, 80
3, 31680, Note_on_c, 1, 71, 80
3, 31848, Note_on_c, 1, 71, 0
3, 31848, Note_on_c, 1, 67, 0
3, 31848, Note_on_c, 1, 64, 0
3, 31920, Note_on_c, 1, 52, 88
3, 31920, Note_on_c, 1, 64, 88
3, 32160, Note_on_c, 1, 64, 0
3, 32160, Note_on_c, 1, 52, 0
3, 32340, Note_on_c, 1, 52, 80
3, 32340, Note_on_c, 1, 64, 80
3, 32400, Note_on_c, 1, 64, 0
3, 32400, Note_on_c, 1, 52, 0
3, 32400, Note_on_c, 1, 51, 80
3, 32400, Note_on_c, 1, 63, 80
3, 32520, Note_on_c, 1, 63, 0
3, 32520, Note_on_c, 1, 51, 0
3, 32640, Note_on_c, 1, 51, 88
3, 32640, Note_on_c, 1, 54, 88
3, 32640, Note_on_c, 1, 59, 88
3, 32832, Note_on_c, 1, 59, 0
3, 32832, Note_on_c, 1, 54, 0
3, 32832, Note_on_c, 1, 51, 0
3, 33360, Note_on_c, 1, 52, 56
3, 33600, Note_on_c, 1, 52, 0
3, 33600, Note_on_c, 1, 46, 48
3, 33840, Note_on_c, 1, 46, 0
3, 33840, Note_on_c, 1, 47, 40
3, 33960, Note_on_c, 1, 47, 0
3, 34080, Note_on_c, 1, 35, 40
3, 34080, Note_on_c, 1, 47, 40
3, 34176, Note_on_c, 1, 47, 0
3, 34176, Note_on_c, 1, 35, 0
3, 34320, Note_on_c, 1, 35, 32
3, 34320, Note_on_c, 1, 47, 32
3, 34416, Note_on_c, 1, 47, 0
3, 34416, Note_on_c, 1, 35, 0
3, 34560, Note_on_c, 1, 35, 24
3, 34560, Note_on_c, 1, 47, 24
3, 34776, Note_on_c, 1, 47, 0
3, 34776, Note_on_c, 1, 35, 0
3, 34776, End_track
4, 0, Start_track
4, 0, MIDI_port, 0
4, 0, Title_t, "MIDI by Marty Weimer 7/8/96"
4, 0, End_track
5, 0, Start_track
5, 0, MIDI_port, 0
5, 0, Title_t, "weimermt@libby.org  Eureka, MT  USA"
5, 0, End_track
0, 0, End_of_file
