0, 0, Header, 1, 5, 240
1, 0, Start_track
1, 0, Time_signature, 4, 2, 24, 8
1, 0, Key_signature, 0, "major"
1, 0, Tempo, 500000
1, 19440, Tempo, 508475
1, 19680, Tempo, 517241
1, 19920, Tempo, 526316
1, 20160, Tempo, 535714
1, 20400, Tempo, 545455
1, 20640, Tempo, 550459
1, 20880, Tempo, 560748
1, 21120, Tempo, 566038
1, 21360, Tempo, 588235
1, 21600, Tempo, 612245
1, 21840, Tempo, 638298
1, 22080, Tempo, 857143
1, 22320, Tempo, 705882
1, 22560, Tempo, 600000
1, 22800, Tempo, 521739
1, 23040, Tempo, 500000
1, 41280, Time_signature, 2, 2, 24, 8
1, 41760, Time_signature, 4, 2, 24, 8
1, 81360, Tempo, 560748
1, 81600, Tempo, 631579
1, 81840, Tempo, 731707
1, 82080, Tempo, 857143
1, 82320, Tempo, 923077
1, 82560, Tempo, 1000000
1, 82800, Tempo, 1090909
1, 83040, Tempo, 500000
1, 83040, End_track
2, 0, Start_track
2, 0, MIDI_port, 0
2, 0, Title_t, "Piano Sonata No.36 in c sharp"
2, 0, Program_c, 0, 0
2, 0, Control_c, 0, 7, 127
2, 0, Control_c, 0, 10, 72
2, 0, Note_on_c, 0, 61, 85
2, 63, Note_on_c, 0, 61, 0
2, 90, Note_on_c, 0, 63, 85
2, 120, Note_on_c, 0, 63, 0
2, 120, Note_on_c, 0, 61, 85
2, 150, Note_on_c, 0, 61, 0
2, 150, Note_on_c, 0, 60, 85
2, 180, Note_on_c, 0, 60, 0
2, 180, Note_on_c, 0, 61, 85
2, 210, Note_on_c, 0, 61, 0
2, 210, Note_on_c, 0, 63, 85
2, 240, Note_on_c, 0, 63, 0
2, 240, Note_on_c, 0, 64, 85
2, 360, Note_on_c, 0, 64, 0
2, 360, Note_on_c, 0, 63, 85
2, 420, Note_on_c, 0, 63, 0
2, 480, Note_on_c, 0, 61, 85
2, 540, Note_on_c, 0, 61, 0
2, 600, Note_on_c, 0, 56, 85
2, 660, Note_on_c, 0, 56, 0
2, 720, Note_on_c, 0, 61, 85
2, 780, Note_on_c, 0, 61, 0
2, 840, Note_on_c, 0, 64, 85
2, 900, Note_on_c, 0, 64, 0
2, 960, Note_on_c, 0, 61, 85
2, 1078, Note_on_c, 0, 61, 0
2, 1080, Note_on_c, 0, 68, 64
2, 1198, Note_on_c, 0, 68, 0
2, 1200, Note_on_c, 0, 68, 64
2, 1318, Note_on_c, 0, 68, 0
2, 1320, Note_on_c, 0, 68, 64
2, 1438, Note_on_c, 0, 68, 0
2, 1440, Note_on_c, 0, 69, 64
2, 1472, Note_on_c, 0, 69, 0
2, 1480, Note_on_c, 0, 68, 64
2, 1512, Note_on_c, 0, 68, 0
2, 1520, Note_on_c, 0, 67, 64
2, 1552, Note_on_c, 0, 67, 0
2, 1560, Note_on_c, 0, 68, 64
2, 1656, Note_on_c, 0, 68, 0
2, 2040, Note_on_c, 0, 68, 64
2, 2136, Note_on_c, 0, 68, 0
2, 2160, Note_on_c, 0, 68, 64
2, 2256, Note_on_c, 0, 68, 0
2, 2280, Note_on_c, 0, 68, 64
2, 2376, Note_on_c, 0, 68, 0
2, 2400, Note_on_c, 0, 69, 64
2, 2432, Note_on_c, 0, 69, 0
2, 2440, Note_on_c, 0, 68, 64
2, 2472, Note_on_c, 0, 68, 0
2, 2480, Note_on_c, 0, 67, 64
2, 2512, Note_on_c, 0, 67, 0
2, 2520, Note_on_c, 0, 68, 64
2, 2616, Note_on_c, 0, 68, 0
2, 3000, Note_on_c, 0, 73, 67
2, 3118, Note_on_c, 0, 73, 0
2, 3120, Note_on_c, 0, 73, 69
2, 3238, Note_on_c, 0, 73, 0
2, 3240, Note_on_c, 0, 73, 72
2, 3312, Note_on_c, 0, 73, 0
2, 3330, Note_on_c, 0, 75, 74
2, 3359, Note_on_c, 0, 75, 0
2, 3360, Note_on_c, 0, 73, 75
2, 3384, Note_on_c, 0, 73, 0
2, 3390, Note_on_c, 0, 72, 75
2, 3414, Note_on_c, 0, 72, 0
2, 3420, Note_on_c, 0, 73, 76
2, 3444, Note_on_c, 0, 73, 0
2, 3450, Note_on_c, 0, 75, 76
2, 3474, Note_on_c, 0, 75, 0
2, 3480, Note_on_c, 0, 76, 77
2, 3576, Note_on_c, 0, 76, 0
2, 3600, Note_on_c, 0, 76, 80
2, 3696, Note_on_c, 0, 76, 0
2, 3720, Note_on_c, 0, 76, 82
2, 3816, Note_on_c, 0, 76, 0
2, 3840, Note_on_c, 0, 76, 96
2, 4078, Note_on_c, 0, 76, 0
2, 4080, Note_on_c, 0, 74, 80
2, 4198, Note_on_c, 0, 74, 0
2, 4200, Note_on_c, 0, 81, 77
2, 4318, Note_on_c, 0, 81, 0
2, 4320, Note_on_c, 0, 73, 74
2, 4618, Note_on_c, 0, 73, 0
2, 4620, Note_on_c, 0, 72, 68
2, 4678, Note_on_c, 0, 72, 0
2, 4680, Note_on_c, 0, 75, 67
2, 4738, Note_on_c, 0, 75, 0
2, 4740, Note_on_c, 0, 72, 65
2, 4798, Note_on_c, 0, 72, 0
2, 4800, Note_on_c, 0, 73, 60
2, 5038, Note_on_c, 0, 73, 0
2, 5160, Note_on_c, 0, 69, 69
2, 5184, Note_on_c, 0, 69, 0
2, 5190, Note_on_c, 0, 66, 70
2, 5262, Note_on_c, 0, 66, 0
2, 5280, Note_on_c, 0, 68, 73
2, 5304, Note_on_c, 0, 68, 0
2, 5310, Note_on_c, 0, 64, 73
2, 5382, Note_on_c, 0, 64, 0
2, 5400, Note_on_c, 0, 66, 76
2, 5424, Note_on_c, 0, 66, 0
2, 5430, Note_on_c, 0, 63, 76
2, 5502, Note_on_c, 0, 63, 0
2, 5520, Note_on_c, 0, 64, 79
2, 5544, Note_on_c, 0, 64, 0
2, 5550, Note_on_c, 0, 61, 80
2, 5622, Note_on_c, 0, 61, 0
2, 5640, Note_on_c, 0, 63, 82
2, 5664, Note_on_c, 0, 63, 0
2, 5670, Note_on_c, 0, 60, 83
2, 5742, Note_on_c, 0, 60, 0
2, 5760, Note_on_c, 0, 61, 85
2, 5832, Note_on_c, 0, 61, 0
2, 5850, Note_on_c, 0, 63, 85
2, 5880, Note_on_c, 0, 63, 0
2, 5880, Note_on_c, 0, 61, 85
2, 5910, Note_on_c, 0, 61, 0
2, 5910, Note_on_c, 0, 60, 85
2, 5940, Note_on_c, 0, 60, 0
2, 5940, Note_on_c, 0, 61, 85
2, 5970, Note_on_c, 0, 61, 0
2, 5970, Note_on_c, 0, 63, 85
2, 6000, Note_on_c, 0, 63, 0
2, 6000, Note_on_c, 0, 64, 85
2, 6120, Note_on_c, 0, 64, 0
2, 6120, Note_on_c, 0, 63, 85
2, 6180, Note_on_c, 0, 63, 0
2, 6240, Note_on_c, 0, 61, 85
2, 6300, Note_on_c, 0, 61, 0
2, 6360, Note_on_c, 0, 56, 85
2, 6420, Note_on_c, 0, 56, 0
2, 6480, Note_on_c, 0, 61, 85
2, 6540, Note_on_c, 0, 61, 0
2, 6600, Note_on_c, 0, 64, 85
2, 6660, Note_on_c, 0, 64, 0
2, 6720, Note_on_c, 0, 57, 64
2, 6792, Note_on_c, 0, 57, 0
2, 6810, Note_on_c, 0, 59, 64
2, 6840, Note_on_c, 0, 59, 0
2, 6840, Note_on_c, 0, 57, 64
2, 6870, Note_on_c, 0, 57, 0
2, 6870, Note_on_c, 0, 56, 64
2, 6900, Note_on_c, 0, 56, 0
2, 6900, Note_on_c, 0, 57, 64
2, 6930, Note_on_c, 0, 57, 0
2, 6930, Note_on_c, 0, 59, 64
2, 6960, Note_on_c, 0, 59, 0
2, 6960, Note_on_c, 0, 61, 64
2, 7080, Note_on_c, 0, 61, 0
2, 7080, Note_on_c, 0, 59, 64
2, 7140, Note_on_c, 0, 59, 0
2, 7200, Note_on_c, 0, 57, 64
2, 7260, Note_on_c, 0, 57, 0
2, 7320, Note_on_c, 0, 52, 64
2, 7380, Note_on_c, 0, 52, 0
2, 7440, Note_on_c, 0, 57, 64
2, 7500, Note_on_c, 0, 57, 0
2, 7560, Note_on_c, 0, 61, 64
2, 7620, Note_on_c, 0, 61, 0
2, 7680, Note_on_c, 0, 51, 96
2, 8038, Note_on_c, 0, 51, 0
2, 8040, Note_on_c, 0, 54, 85
2, 8100, Note_on_c, 0, 54, 0
2, 8100, Note_on_c, 0, 58, 85
2, 8160, Note_on_c, 0, 58, 0
2, 8160, Note_on_c, 0, 59, 85
2, 8280, Note_on_c, 0, 59, 0
2, 8280, Note_on_c, 0, 63, 85
2, 8340, Note_on_c, 0, 63, 0
2, 8400, Note_on_c, 0, 66, 85
2, 8460, Note_on_c, 0, 66, 0
2, 8520, Note_on_c, 0, 70, 85
2, 8592, Note_on_c, 0, 70, 0
2, 8610, Note_on_c, 0, 70, 85
2, 8634, Note_on_c, 0, 70, 0
2, 8640, Note_on_c, 0, 71, 85
2, 8928, Note_on_c, 0, 71, 0
2, 8940, Note_on_c, 0, 73, 85
2, 8970, Note_on_c, 0, 73, 0
2, 8970, Note_on_c, 0, 75, 85
2, 9000, Note_on_c, 0, 75, 0
2, 9000, Note_on_c, 0, 76, 85
2, 9030, Note_on_c, 0, 76, 0
2, 9030, Note_on_c, 0, 78, 85
2, 9060, Note_on_c, 0, 78, 0
2, 9060, Note_on_c, 0, 80, 85
2, 9090, Note_on_c, 0, 80, 0
2, 9090, Note_on_c, 0, 82, 85
2, 9120, Note_on_c, 0, 82, 0
2, 9120, Note_on_c, 0, 83, 85
2, 9240, Note_on_c, 0, 83, 0
2, 9240, Note_on_c, 0, 78, 85
2, 9240, Note_on_c, 0, 81, 85
2, 9288, Note_on_c, 0, 81, 0
2, 9288, Note_on_c, 0, 78, 0
2, 9300, Note_on_c, 0, 71, 85
2, 9348, Note_on_c, 0, 71, 0
2, 9360, Note_on_c, 0, 78, 85
2, 9360, Note_on_c, 0, 81, 85
2, 9408, Note_on_c, 0, 81, 0
2, 9408, Note_on_c, 0, 78, 0
2, 9420, Note_on_c, 0, 71, 85
2, 9468, Note_on_c, 0, 71, 0
2, 9480, Note_on_c, 0, 78, 85
2, 9480, Note_on_c, 0, 81, 85
2, 9528, Note_on_c, 0, 81, 0
2, 9528, Note_on_c, 0, 78, 0
2, 9540, Note_on_c, 0, 71, 85
2, 9588, Note_on_c, 0, 71, 0
2, 9600, Note_on_c, 0, 78, 85
2, 9600, Note_on_c, 0, 81, 85
2, 9838, Note_on_c, 0, 81, 0
2, 9838, Note_on_c, 0, 78, 0
2, 10560, Note_on_c, 0, 64, 85
2, 10632, Note_on_c, 0, 64, 0
2, 10650, Note_on_c, 0, 66, 85
2, 10680, Note_on_c, 0, 66, 0
2, 10680, Note_on_c, 0, 64, 85
2, 10710, Note_on_c, 0, 64, 0
2, 10710, Note_on_c, 0, 63, 85
2, 10740, Note_on_c, 0, 63, 0
2, 10740, Note_on_c, 0, 64, 85
2, 10770, Note_on_c, 0, 64, 0
2, 10770, Note_on_c, 0, 66, 85
2, 10800, Note_on_c, 0, 66, 0
2, 10800, Note_on_c, 0, 68, 85
2, 10920, Note_on_c, 0, 68, 0
2, 10920, Note_on_c, 0, 66, 85
2, 10980, Note_on_c, 0, 66, 0
2, 11040, Note_on_c, 0, 64, 85
2, 11100, Note_on_c, 0, 64, 0
2, 11160, Note_on_c, 0, 59, 85
2, 11220, Note_on_c, 0, 59, 0
2, 11280, Note_on_c, 0, 64, 85
2, 11340, Note_on_c, 0, 64, 0
2, 11400, Note_on_c, 0, 68, 85
2, 11460, Note_on_c, 0, 68, 0
2, 11520, Note_on_c, 0, 66, 85
2, 11592, Note_on_c, 0, 66, 0
2, 11610, Note_on_c, 0, 68, 85
2, 11640, Note_on_c, 0, 68, 0
2, 11640, Note_on_c, 0, 66, 85
2, 11670, Note_on_c, 0, 66, 0
2, 11670, Note_on_c, 0, 64, 85
2, 11700, Note_on_c, 0, 64, 0
2, 11700, Note_on_c, 0, 66, 85
2, 11730, Note_on_c, 0, 66, 0
2, 11730, Note_on_c, 0, 68, 85
2, 11760, Note_on_c, 0, 68, 0
2, 11760, Note_on_c, 0, 69, 85
2, 11880, Note_on_c, 0, 69, 0
2, 11880, Note_on_c, 0, 68, 85
2, 11940, Note_on_c, 0, 68, 0
2, 12000, Note_on_c, 0, 66, 85
2, 12060, Note_on_c, 0, 66, 0
2, 12120, Note_on_c, 0, 59, 85
2, 12180, Note_on_c, 0, 59, 0
2, 12240, Note_on_c, 0, 66, 85
2, 12300, Note_on_c, 0, 66, 0
2, 12360, Note_on_c, 0, 69, 85
2, 12420, Note_on_c, 0, 69, 0
2, 12480, Note_on_c, 0, 68, 85
2, 12552, Note_on_c, 0, 68, 0
2, 12570, Note_on_c, 0, 69, 85
2, 12600, Note_on_c, 0, 69, 0
2, 12600, Note_on_c, 0, 68, 85
2, 12630, Note_on_c, 0, 68, 0
2, 12630, Note_on_c, 0, 66, 85
2, 12660, Note_on_c, 0, 66, 0
2, 12660, Note_on_c, 0, 68, 85
2, 12690, Note_on_c, 0, 68, 0
2, 12690, Note_on_c, 0, 69, 85
2, 12720, Note_on_c, 0, 69, 0
2, 12720, Note_on_c, 0, 71, 85
2, 12840, Note_on_c, 0, 71, 0
2, 12840, Note_on_c, 0, 69, 85
2, 12900, Note_on_c, 0, 69, 0
2, 12960, Note_on_c, 0, 68, 85
2, 13020, Note_on_c, 0, 68, 0
2, 13080, Note_on_c, 0, 64, 85
2, 13140, Note_on_c, 0, 64, 0
2, 13200, Note_on_c, 0, 68, 85
2, 13260, Note_on_c, 0, 68, 0
2, 13320, Note_on_c, 0, 71, 85
2, 13380, Note_on_c, 0, 71, 0
2, 13440, Note_on_c, 0, 69, 85
2, 13558, Note_on_c, 0, 69, 0
2, 13560, Note_on_c, 0, 64, 85
2, 13678, Note_on_c, 0, 64, 0
2, 13680, Note_on_c, 0, 69, 85
2, 13798, Note_on_c, 0, 69, 0
2, 13800, Note_on_c, 0, 73, 85
2, 13918, Note_on_c, 0, 73, 0
2, 13920, Note_on_c, 0, 69, 85
2, 14038, Note_on_c, 0, 69, 0
2, 14040, Note_on_c, 0, 73, 85
2, 14158, Note_on_c, 0, 73, 0
2, 14160, Note_on_c, 0, 81, 85
2, 14208, Note_on_c, 0, 81, 0
2, 14280, Note_on_c, 0, 81, 85
2, 14328, Note_on_c, 0, 81, 0
2, 14400, Note_on_c, 0, 81, 85
2, 14458, Note_on_c, 0, 81, 0
2, 14460, Note_on_c, 0, 80, 85
2, 14518, Note_on_c, 0, 80, 0
2, 14520, Note_on_c, 0, 78, 85
2, 14578, Note_on_c, 0, 78, 0
2, 14580, Note_on_c, 0, 76, 85
2, 14638, Note_on_c, 0, 76, 0
2, 14640, Note_on_c, 0, 75, 85
2, 14698, Note_on_c, 0, 75, 0
2, 14700, Note_on_c, 0, 73, 85
2, 14730, Note_on_c, 0, 73, 0
2, 14760, Note_on_c, 0, 71, 85
2, 14790, Note_on_c, 0, 71, 0
2, 14820, Note_on_c, 0, 69, 85
2, 14850, Note_on_c, 0, 69, 0
2, 14880, Note_on_c, 0, 68, 85
2, 14938, Note_on_c, 0, 68, 0
2, 14940, Note_on_c, 0, 71, 85
2, 14998, Note_on_c, 0, 71, 0
2, 15000, Note_on_c, 0, 69, 85
2, 15058, Note_on_c, 0, 69, 0
2, 15060, Note_on_c, 0, 68, 85
2, 15118, Note_on_c, 0, 68, 0
2, 15120, Note_on_c, 0, 66, 85
2, 15178, Note_on_c, 0, 66, 0
2, 15180, Note_on_c, 0, 64, 85
2, 15210, Note_on_c, 0, 64, 0
2, 15240, Note_on_c, 0, 63, 85
2, 15270, Note_on_c, 0, 63, 0
2, 15300, Note_on_c, 0, 61, 85
2, 15330, Note_on_c, 0, 61, 0
2, 15360, Note_on_c, 0, 59, 85
2, 15478, Note_on_c, 0, 59, 0
2, 15480, Note_on_c, 0, 71, 64
2, 15598, Note_on_c, 0, 71, 0
2, 15600, Note_on_c, 0, 71, 64
2, 15718, Note_on_c, 0, 71, 0
2, 15720, Note_on_c, 0, 71, 64
2, 15838, Note_on_c, 0, 71, 0
2, 15840, Note_on_c, 0, 73, 64
2, 15872, Note_on_c, 0, 73, 0
2, 15880, Note_on_c, 0, 71, 64
2, 15912, Note_on_c, 0, 71, 0
2, 15920, Note_on_c, 0, 70, 64
2, 15952, Note_on_c, 0, 70, 0
2, 15960, Note_on_c, 0, 71, 64
2, 16056, Note_on_c, 0, 71, 0
2, 16440, Note_on_c, 0, 71, 64
2, 16558, Note_on_c, 0, 71, 0
2, 16560, Note_on_c, 0, 71, 64
2, 16678, Note_on_c, 0, 71, 0
2, 16680, Note_on_c, 0, 71, 64
2, 16798, Note_on_c, 0, 71, 0
2, 16800, Note_on_c, 0, 73, 64
2, 16832, Note_on_c, 0, 73, 0
2, 16840, Note_on_c, 0, 71, 64
2, 16872, Note_on_c, 0, 71, 0
2, 16880, Note_on_c, 0, 70, 64
2, 16912, Note_on_c, 0, 70, 0
2, 16920, Note_on_c, 0, 71, 64
2, 17016, Note_on_c, 0, 71, 0
2, 17400, Note_on_c, 0, 76, 67
2, 17496, Note_on_c, 0, 76, 0
2, 17520, Note_on_c, 0, 76, 69
2, 17616, Note_on_c, 0, 76, 0
2, 17640, Note_on_c, 0, 76, 72
2, 17736, Note_on_c, 0, 76, 0
2, 17760, Note_on_c, 0, 77, 75
2, 17784, Note_on_c, 0, 77, 0
2, 17790, Note_on_c, 0, 76, 75
2, 17814, Note_on_c, 0, 76, 0
2, 17820, Note_on_c, 0, 74, 76
2, 17844, Note_on_c, 0, 74, 0
2, 17850, Note_on_c, 0, 76, 76
2, 17874, Note_on_c, 0, 76, 0
2, 17880, Note_on_c, 0, 74, 77
2, 17880, Note_on_c, 0, 77, 77
2, 17976, Note_on_c, 0, 77, 0
2, 17976, Note_on_c, 0, 74, 0
2, 18000, Note_on_c, 0, 74, 80
2, 18000, Note_on_c, 0, 77, 80
2, 18096, Note_on_c, 0, 77, 0
2, 18096, Note_on_c, 0, 74, 0
2, 18120, Note_on_c, 0, 74, 82
2, 18120, Note_on_c, 0, 77, 82
2, 18216, Note_on_c, 0, 77, 0
2, 18216, Note_on_c, 0, 74, 0
2, 18240, Note_on_c, 0, 74, 96
2, 18240, Note_on_c, 0, 77, 96
2, 18478, Note_on_c, 0, 77, 0
2, 18478, Note_on_c, 0, 74, 0
2, 18480, Note_on_c, 0, 73, 74
2, 18480, Note_on_c, 0, 78, 74
2, 18516, Note_on_c, 0, 78, 0
2, 18516, Note_on_c, 0, 73, 0
2, 18600, Note_on_c, 0, 74, 74
2, 18600, Note_on_c, 0, 80, 74
2, 18636, Note_on_c, 0, 80, 0
2, 18636, Note_on_c, 0, 74, 0
2, 18720, Note_on_c, 0, 74, 96
2, 18720, Note_on_c, 0, 80, 96
2, 18958, Note_on_c, 0, 80, 0
2, 18958, Note_on_c, 0, 74, 0
2, 18960, Note_on_c, 0, 73, 74
2, 18960, Note_on_c, 0, 81, 74
2, 19008, Note_on_c, 0, 81, 0
2, 19008, Note_on_c, 0, 73, 0
2, 19080, Note_on_c, 0, 72, 74
2, 19080, Note_on_c, 0, 75, 74
2, 19128, Note_on_c, 0, 75, 0
2, 19128, Note_on_c, 0, 72, 0
2, 19200, Note_on_c, 0, 72, 96
2, 19200, Note_on_c, 0, 75, 96
2, 19438, Note_on_c, 0, 75, 0
2, 19438, Note_on_c, 0, 72, 0
2, 19440, Note_on_c, 0, 71, 74
2, 19440, Note_on_c, 0, 76, 74
2, 19512, Note_on_c, 0, 76, 0
2, 19512, Note_on_c, 0, 71, 0
2, 19560, Note_on_c, 0, 72, 74
2, 19560, Note_on_c, 0, 78, 74
2, 19632, Note_on_c, 0, 78, 0
2, 19632, Note_on_c, 0, 72, 0
2, 19680, Note_on_c, 0, 72, 96
2, 19680, Note_on_c, 0, 78, 96
2, 19918, Note_on_c, 0, 78, 0
2, 19918, Note_on_c, 0, 72, 0
2, 19920, Note_on_c, 0, 71, 85
2, 19920, Note_on_c, 0, 80, 85
2, 20016, Note_on_c, 0, 80, 0
2, 20016, Note_on_c, 0, 71, 0
2, 20040, Note_on_c, 0, 71, 85
2, 20040, Note_on_c, 0, 83, 85
2, 20136, Note_on_c, 0, 83, 0
2, 20136, Note_on_c, 0, 71, 0
2, 20160, Note_on_c, 0, 71, 85
2, 20160, Note_on_c, 0, 83, 85
2, 20400, Note_on_c, 0, 83, 0
2, 20400, Note_on_c, 0, 71, 0
2, 20400, Note_on_c, 0, 70, 85
2, 20400, Note_on_c, 0, 82, 85
2, 20520, Note_on_c, 0, 82, 0
2, 20520, Note_on_c, 0, 70, 0
2, 20520, Note_on_c, 0, 71, 85
2, 20520, Note_on_c, 0, 83, 85
2, 20640, Note_on_c, 0, 83, 0
2, 20640, Note_on_c, 0, 71, 0
2, 20640, Note_on_c, 0, 72, 85
2, 20640, Note_on_c, 0, 84, 85
2, 20880, Note_on_c, 0, 84, 0
2, 20880, Note_on_c, 0, 72, 0
2, 20880, Note_on_c, 0, 73, 85
2, 20880, Note_on_c, 0, 85, 85
2, 21000, Note_on_c, 0, 85, 0
2, 21000, Note_on_c, 0, 73, 0
2, 21000, Note_on_c, 0, 71, 85
2, 21000, Note_on_c, 0, 83, 85
2, 21036, Note_on_c, 0, 83, 0
2, 21036, Note_on_c, 0, 71, 0
2, 21120, Note_on_c, 0, 71, 85
2, 21120, Note_on_c, 0, 83, 85
2, 21238, Note_on_c, 0, 83, 0
2, 21238, Note_on_c, 0, 71, 0
2, 21240, Note_on_c, 0, 69, 82
2, 21240, Note_on_c, 0, 81, 82
2, 21298, Note_on_c, 0, 81, 0
2, 21298, Note_on_c, 0, 69, 0
2, 21360, Note_on_c, 0, 69, 80
2, 21360, Note_on_c, 0, 81, 80
2, 21478, Note_on_c, 0, 81, 0
2, 21478, Note_on_c, 0, 69, 0
2, 21480, Note_on_c, 0, 68, 77
2, 21480, Note_on_c, 0, 80, 77
2, 21538, Note_on_c, 0, 80, 0
2, 21538, Note_on_c, 0, 68, 0
2, 21600, Note_on_c, 0, 68, 74
2, 21600, Note_on_c, 0, 80, 74
2, 21718, Note_on_c, 0, 80, 0
2, 21718, Note_on_c, 0, 68, 0
2, 21720, Note_on_c, 0, 66, 72
2, 21720, Note_on_c, 0, 78, 72
2, 21778, Note_on_c, 0, 78, 0
2, 21778, Note_on_c, 0, 66, 0
2, 21840, Note_on_c, 0, 81, 69
2, 21958, Note_on_c, 0, 81, 0
2, 21960, Note_on_c, 0, 75, 67
2, 22078, Note_on_c, 0, 75, 0
2, 22080, Note_on_c, 0, 75, 64
2, 22368, Note_on_c, 0, 75, 0
2, 22440, Note_on_c, 0, 78, 64
2, 22536, Note_on_c, 0, 78, 0
2, 22560, Note_on_c, 0, 76, 64
2, 22812, Note_on_c, 0, 76, 0
2, 22920, Note_on_c, 0, 76, 85
2, 22944, Note_on_c, 0, 76, 0
2, 22950, Note_on_c, 0, 75, 85
2, 22974, Note_on_c, 0, 75, 0
2, 22980, Note_on_c, 0, 73, 85
2, 23004, Note_on_c, 0, 73, 0
2, 23010, Note_on_c, 0, 71, 85
2, 23034, Note_on_c, 0, 71, 0
2, 23040, Note_on_c, 0, 70, 85
2, 23208, Note_on_c, 0, 70, 0
2, 23250, Note_on_c, 0, 70, 87
2, 23274, Note_on_c, 0, 70, 0
2, 23280, Note_on_c, 0, 88, 88
2, 23370, Note_on_c, 0, 88, 0
2, 23370, Note_on_c, 0, 73, 89
2, 23400, Note_on_c, 0, 73, 0
2, 23400, Note_on_c, 0, 85, 89
2, 23490, Note_on_c, 0, 85, 0
2, 23490, Note_on_c, 0, 70, 90
2, 23520, Note_on_c, 0, 70, 0
2, 23520, Note_on_c, 0, 82, 91
2, 23610, Note_on_c, 0, 82, 0
2, 23610, Note_on_c, 0, 67, 92
2, 23640, Note_on_c, 0, 67, 0
2, 23640, Note_on_c, 0, 79, 92
2, 23730, Note_on_c, 0, 79, 0
2, 23730, Note_on_c, 0, 64, 93
2, 23760, Note_on_c, 0, 64, 0
2, 23760, Note_on_c, 0, 76, 93
2, 23850, Note_on_c, 0, 76, 0
2, 23850, Note_on_c, 0, 61, 94
2, 23880, Note_on_c, 0, 61, 0
2, 23880, Note_on_c, 0, 73, 95
2, 24000, Note_on_c, 0, 73, 0
2, 24000, Note_on_c, 0, 58, 96
2, 24000, Note_on_c, 0, 70, 96
2, 24478, Note_on_c, 0, 70, 0
2, 24478, Note_on_c, 0, 58, 0
2, 24480, Note_on_c, 0, 57, 85
2, 24480, Note_on_c, 0, 69, 85
2, 24958, Note_on_c, 0, 69, 0
2, 24958, Note_on_c, 0, 57, 0
2, 24960, Note_on_c, 0, 56, 85
2, 25018, Note_on_c, 0, 56, 0
2, 25020, Note_on_c, 0, 68, 85
2, 25078, Note_on_c, 0, 68, 0
2, 25080, Note_on_c, 0, 59, 85
2, 25138, Note_on_c, 0, 59, 0
2, 25140, Note_on_c, 0, 71, 85
2, 25198, Note_on_c, 0, 71, 0
2, 25200, Note_on_c, 0, 69, 85
2, 25258, Note_on_c, 0, 69, 0
2, 25260, Note_on_c, 0, 68, 85
2, 25296, Note_on_c, 0, 68, 0
2, 25320, Note_on_c, 0, 66, 85
2, 25356, Note_on_c, 0, 66, 0
2, 25380, Note_on_c, 0, 64, 85
2, 25416, Note_on_c, 0, 64, 0
2, 25440, Note_on_c, 0, 61, 85
2, 25498, Note_on_c, 0, 61, 0
2, 25500, Note_on_c, 0, 73, 85
2, 25558, Note_on_c, 0, 73, 0
2, 25560, Note_on_c, 0, 64, 85
2, 25618, Note_on_c, 0, 64, 0
2, 25620, Note_on_c, 0, 76, 85
2, 25678, Note_on_c, 0, 76, 0
2, 25680, Note_on_c, 0, 75, 85
2, 25738, Note_on_c, 0, 75, 0
2, 25740, Note_on_c, 0, 73, 85
2, 25764, Note_on_c, 0, 73, 0
2, 25800, Note_on_c, 0, 71, 85
2, 25824, Note_on_c, 0, 71, 0
2, 25860, Note_on_c, 0, 69, 85
2, 25884, Note_on_c, 0, 69, 0
2, 25920, Note_on_c, 0, 68, 85
2, 26158, Note_on_c, 0, 68, 0
2, 26160, Note_on_c, 0, 71, 85
2, 26218, Note_on_c, 0, 71, 0
2, 26220, Note_on_c, 0, 69, 85
2, 26244, Note_on_c, 0, 69, 0
2, 26280, Note_on_c, 0, 68, 85
2, 26304, Note_on_c, 0, 68, 0
2, 26340, Note_on_c, 0, 66, 85
2, 26364, Note_on_c, 0, 66, 0
2, 26400, Note_on_c, 0, 68, 85
2, 26458, Note_on_c, 0, 68, 0
2, 26460, Note_on_c, 0, 80, 85
2, 26518, Note_on_c, 0, 80, 0
2, 26520, Note_on_c, 0, 68, 85
2, 26578, Note_on_c, 0, 68, 0
2, 26580, Note_on_c, 0, 83, 85
2, 26638, Note_on_c, 0, 83, 0
2, 26640, Note_on_c, 0, 81, 85
2, 26698, Note_on_c, 0, 81, 0
2, 26700, Note_on_c, 0, 80, 85
2, 26736, Note_on_c, 0, 80, 0
2, 26760, Note_on_c, 0, 78, 85
2, 26796, Note_on_c, 0, 78, 0
2, 26820, Note_on_c, 0, 76, 85
2, 26856, Note_on_c, 0, 76, 0
2, 26880, Note_on_c, 0, 73, 85
2, 26938, Note_on_c, 0, 73, 0
2, 26940, Note_on_c, 0, 85, 85
2, 26998, Note_on_c, 0, 85, 0
2, 27000, Note_on_c, 0, 76, 85
2, 27058, Note_on_c, 0, 76, 0
2, 27060, Note_on_c, 0, 88, 85
2, 27118, Note_on_c, 0, 88, 0
2, 27240, Note_on_c, 0, 85, 85
2, 27270, Note_on_c, 0, 85, 0
2, 27270, Note_on_c, 0, 84, 85
2, 27300, Note_on_c, 0, 84, 0
2, 27300, Note_on_c, 0, 85, 85
2, 27330, Note_on_c, 0, 85, 0
2, 27330, Note_on_c, 0, 87, 85
2, 27360, Note_on_c, 0, 87, 0
2, 27360, Note_on_c, 0, 88, 85
2, 27480, Note_on_c, 0, 88, 0
2, 27480, Note_on_c, 0, 81, 85
2, 27540, Note_on_c, 0, 81, 0
2, 27600, Note_on_c, 0, 85, 85
2, 27660, Note_on_c, 0, 85, 0
2, 27720, Note_on_c, 0, 78, 85
2, 27777, Note_on_c, 0, 78, 0
2, 27780, Note_on_c, 0, 71, 85
2, 27795, Note_on_c, 0, 75, 85
2, 27810, Note_on_c, 0, 78, 85
2, 27840, Note_on_c, 0, 81, 85
2, 27984, Note_on_c, 0, 81, 0
2, 27984, Note_on_c, 0, 71, 0
2, 27984, Note_on_c, 0, 75, 0
2, 27984, Note_on_c, 0, 78, 0
2, 28020, Note_on_c, 0, 73, 85
2, 28040, Note_on_c, 0, 75, 85
2, 28060, Note_on_c, 0, 76, 85
2, 28076, Note_on_c, 0, 76, 0
2, 28076, Note_on_c, 0, 75, 0
2, 28076, Note_on_c, 0, 73, 0
2, 28080, Note_on_c, 0, 80, 85
2, 28224, Note_on_c, 0, 80, 0
2, 28260, Note_on_c, 0, 69, 85
2, 28280, Note_on_c, 0, 73, 85
2, 28300, Note_on_c, 0, 77, 85
2, 28316, Note_on_c, 0, 77, 0
2, 28316, Note_on_c, 0, 73, 0
2, 28316, Note_on_c, 0, 69, 0
2, 28320, Note_on_c, 0, 78, 85
2, 28512, Note_on_c, 0, 78, 0
2, 28680, Note_on_c, 0, 75, 85
2, 28752, Note_on_c, 0, 75, 0
2, 28770, Note_on_c, 0, 71, 85
2, 28794, Note_on_c, 0, 71, 0
2, 28800, Note_on_c, 0, 76, 85
2, 28914, Note_on_c, 0, 76, 0
2, 28920, Note_on_c, 0, 80, 85
2, 28920, Note_on_c, 0, 83, 85
2, 29038, Note_on_c, 0, 83, 0
2, 29038, Note_on_c, 0, 80, 0
2, 29040, Note_on_c, 0, 76, 85
2, 29040, Note_on_c, 0, 80, 85
2, 29158, Note_on_c, 0, 80, 0
2, 29158, Note_on_c, 0, 76, 0
2, 29160, Note_on_c, 0, 75, 85
2, 29248, Note_on_c, 0, 75, 0
2, 29250, Note_on_c, 0, 71, 85
2, 29278, Note_on_c, 0, 71, 0
2, 29280, Note_on_c, 0, 76, 85
2, 29398, Note_on_c, 0, 76, 0
2, 29400, Note_on_c, 0, 75, 85
2, 29400, Note_on_c, 0, 78, 85
2, 29448, Note_on_c, 0, 78, 0
2, 29448, Note_on_c, 0, 75, 0
2, 29520, Note_on_c, 0, 76, 85
2, 29520, Note_on_c, 0, 80, 85
2, 29568, Note_on_c, 0, 80, 0
2, 29568, Note_on_c, 0, 76, 0
2, 29640, Note_on_c, 0, 75, 64
2, 29712, Note_on_c, 0, 75, 0
2, 29730, Note_on_c, 0, 71, 64
2, 29754, Note_on_c, 0, 71, 0
2, 29760, Note_on_c, 0, 76, 64
2, 29878, Note_on_c, 0, 76, 0
2, 29880, Note_on_c, 0, 80, 62
2, 29880, Note_on_c, 0, 83, 62
2, 29998, Note_on_c, 0, 83, 0
2, 29998, Note_on_c, 0, 80, 0
2, 30000, Note_on_c, 0, 76, 60
2, 30000, Note_on_c, 0, 80, 60
2, 30118, Note_on_c, 0, 80, 0
2, 30118, Note_on_c, 0, 76, 0
2, 30120, Note_on_c, 0, 75, 58
2, 30208, Note_on_c, 0, 75, 0
2, 30210, Note_on_c, 0, 71, 56
2, 30238, Note_on_c, 0, 71, 0
2, 30240, Note_on_c, 0, 76, 56
2, 30358, Note_on_c, 0, 76, 0
2, 30360, Note_on_c, 0, 75, 54
2, 30360, Note_on_c, 0, 78, 54
2, 30408, Note_on_c, 0, 78, 0
2, 30408, Note_on_c, 0, 75, 0
2, 30480, Note_on_c, 0, 76, 52
2, 30480, Note_on_c, 0, 80, 52
2, 30528, Note_on_c, 0, 80, 0
2, 30528, Note_on_c, 0, 76, 0
2, 30600, Note_on_c, 0, 75, 50
2, 30688, Note_on_c, 0, 75, 0
2, 30690, Note_on_c, 0, 71, 48
2, 30718, Note_on_c, 0, 71, 0
2, 30720, Note_on_c, 0, 76, 48
2, 30840, Note_on_c, 0, 76, 0
2, 30960, Note_on_c, 0, 78, 41
2, 30960, Note_on_c, 0, 87, 41
2, 31080, Note_on_c, 0, 87, 0
2, 31080, Note_on_c, 0, 78, 0
2, 31200, Note_on_c, 0, 80, 34
2, 31200, Note_on_c, 0, 88, 34
2, 31438, Note_on_c, 0, 88, 0
2, 31438, Note_on_c, 0, 80, 0
2, 31680, Note_on_c, 0, 76, 85
2, 31752, Note_on_c, 0, 76, 0
2, 31770, Note_on_c, 0, 78, 85
2, 31800, Note_on_c, 0, 78, 0
2, 31800, Note_on_c, 0, 76, 85
2, 31830, Note_on_c, 0, 76, 0
2, 31830, Note_on_c, 0, 75, 85
2, 31860, Note_on_c, 0, 75, 0
2, 31860, Note_on_c, 0, 76, 85
2, 31890, Note_on_c, 0, 76, 0
2, 31890, Note_on_c, 0, 78, 85
2, 31920, Note_on_c, 0, 78, 0
2, 31920, Note_on_c, 0, 80, 85
2, 32040, Note_on_c, 0, 80, 0
2, 32040, Note_on_c, 0, 78, 85
2, 32100, Note_on_c, 0, 78, 0
2, 32160, Note_on_c, 0, 76, 85
2, 32220, Note_on_c, 0, 76, 0
2, 32280, Note_on_c, 0, 71, 85
2, 32340, Note_on_c, 0, 71, 0
2, 32400, Note_on_c, 0, 76, 85
2, 32460, Note_on_c, 0, 76, 0
2, 32520, Note_on_c, 0, 80, 85
2, 32580, Note_on_c, 0, 80, 0
2, 32640, Note_on_c, 0, 78, 85
2, 32712, Note_on_c, 0, 78, 0
2, 32730, Note_on_c, 0, 80, 85
2, 32760, Note_on_c, 0, 80, 0
2, 32760, Note_on_c, 0, 78, 85
2, 32790, Note_on_c, 0, 78, 0
2, 32790, Note_on_c, 0, 77, 85
2, 32820, Note_on_c, 0, 77, 0
2, 32820, Note_on_c, 0, 78, 85
2, 32850, Note_on_c, 0, 78, 0
2, 32850, Note_on_c, 0, 80, 85
2, 32880, Note_on_c, 0, 80, 0
2, 32880, Note_on_c, 0, 81, 85
2, 33000, Note_on_c, 0, 81, 0
2, 33000, Note_on_c, 0, 80, 85
2, 33060, Note_on_c, 0, 80, 0
2, 33120, Note_on_c, 0, 78, 85
2, 33180, Note_on_c, 0, 78, 0
2, 33240, Note_on_c, 0, 71, 85
2, 33300, Note_on_c, 0, 71, 0
2, 33360, Note_on_c, 0, 78, 85
2, 33420, Note_on_c, 0, 78, 0
2, 33480, Note_on_c, 0, 81, 85
2, 33540, Note_on_c, 0, 81, 0
2, 33600, Note_on_c, 0, 80, 85
2, 33672, Note_on_c, 0, 80, 0
2, 33690, Note_on_c, 0, 81, 85
2, 33720, Note_on_c, 0, 81, 0
2, 33720, Note_on_c, 0, 80, 85
2, 33750, Note_on_c, 0, 80, 0
2, 33750, Note_on_c, 0, 78, 85
2, 33780, Note_on_c, 0, 78, 0
2, 33780, Note_on_c, 0, 80, 85
2, 33810, Note_on_c, 0, 80, 0
2, 33810, Note_on_c, 0, 81, 85
2, 33840, Note_on_c, 0, 81, 0
2, 33840, Note_on_c, 0, 83, 85
2, 33900, Note_on_c, 0, 83, 0
2, 33900, Note_on_c, 0, 81, 85
2, 33924, Note_on_c, 0, 81, 0
2, 33960, Note_on_c, 0, 80, 85
2, 33984, Note_on_c, 0, 80, 0
2, 34020, Note_on_c, 0, 78, 85
2, 34044, Note_on_c, 0, 78, 0
2, 34080, Note_on_c, 0, 77, 85
2, 34128, Note_on_c, 0, 77, 0
2, 34140, Note_on_c, 0, 80, 85
2, 34188, Note_on_c, 0, 80, 0
2, 34200, Note_on_c, 0, 83, 85
2, 34248, Note_on_c, 0, 83, 0
2, 34260, Note_on_c, 0, 86, 85
2, 34308, Note_on_c, 0, 86, 0
2, 34320, Note_on_c, 0, 85, 85
2, 34368, Note_on_c, 0, 85, 0
2, 34380, Note_on_c, 0, 83, 85
2, 34428, Note_on_c, 0, 83, 0
2, 34440, Note_on_c, 0, 81, 85
2, 34488, Note_on_c, 0, 81, 0
2, 34500, Note_on_c, 0, 80, 85
2, 34548, Note_on_c, 0, 80, 0
2, 34560, Note_on_c, 0, 78, 85
2, 34632, Note_on_c, 0, 78, 0
2, 34650, Note_on_c, 0, 80, 85
2, 34680, Note_on_c, 0, 80, 0
2, 34680, Note_on_c, 0, 78, 85
2, 34710, Note_on_c, 0, 78, 0
2, 34710, Note_on_c, 0, 77, 85
2, 34740, Note_on_c, 0, 77, 0
2, 34740, Note_on_c, 0, 78, 85
2, 34770, Note_on_c, 0, 78, 0
2, 34770, Note_on_c, 0, 80, 85
2, 34800, Note_on_c, 0, 80, 0
2, 34800, Note_on_c, 0, 81, 85
2, 34920, Note_on_c, 0, 81, 0
2, 34920, Note_on_c, 0, 80, 85
2, 34980, Note_on_c, 0, 80, 0
2, 35040, Note_on_c, 0, 78, 85
2, 35100, Note_on_c, 0, 78, 0
2, 35160, Note_on_c, 0, 73, 85
2, 35220, Note_on_c, 0, 73, 0
2, 35280, Note_on_c, 0, 78, 85
2, 35340, Note_on_c, 0, 78, 0
2, 35400, Note_on_c, 0, 81, 85
2, 35460, Note_on_c, 0, 81, 0
2, 35520, Note_on_c, 0, 78, 85
2, 35638, Note_on_c, 0, 78, 0
2, 35640, Note_on_c, 0, 85, 64
2, 35758, Note_on_c, 0, 85, 0
2, 35760, Note_on_c, 0, 85, 64
2, 35878, Note_on_c, 0, 85, 0
2, 35880, Note_on_c, 0, 85, 64
2, 35998, Note_on_c, 0, 85, 0
2, 36000, Note_on_c, 0, 86, 64
2, 36032, Note_on_c, 0, 86, 0
2, 36040, Note_on_c, 0, 85, 64
2, 36072, Note_on_c, 0, 85, 0
2, 36080, Note_on_c, 0, 84, 64
2, 36112, Note_on_c, 0, 84, 0
2, 36120, Note_on_c, 0, 85, 64
2, 36216, Note_on_c, 0, 85, 0
2, 36600, Note_on_c, 0, 85, 64
2, 36718, Note_on_c, 0, 85, 0
2, 36720, Note_on_c, 0, 85, 64
2, 36838, Note_on_c, 0, 85, 0
2, 36840, Note_on_c, 0, 85, 64
2, 36958, Note_on_c, 0, 85, 0
2, 36960, Note_on_c, 0, 86, 64
2, 36992, Note_on_c, 0, 86, 0
2, 37000, Note_on_c, 0, 85, 64
2, 37032, Note_on_c, 0, 85, 0
2, 37040, Note_on_c, 0, 84, 64
2, 37072, Note_on_c, 0, 84, 0
2, 37080, Note_on_c, 0, 85, 64
2, 37176, Note_on_c, 0, 85, 0
2, 37560, Note_on_c, 0, 78, 67
2, 37656, Note_on_c, 0, 78, 0
2, 37680, Note_on_c, 0, 78, 69
2, 37776, Note_on_c, 0, 78, 0
2, 37800, Note_on_c, 0, 78, 72
2, 37872, Note_on_c, 0, 78, 0
2, 37890, Note_on_c, 0, 80, 74
2, 37914, Note_on_c, 0, 80, 0
2, 37920, Note_on_c, 0, 78, 75
2, 37944, Note_on_c, 0, 78, 0
2, 37950, Note_on_c, 0, 77, 75
2, 37974, Note_on_c, 0, 77, 0
2, 37980, Note_on_c, 0, 78, 76
2, 38004, Note_on_c, 0, 78, 0
2, 38010, Note_on_c, 0, 80, 76
2, 38034, Note_on_c, 0, 80, 0
2, 38040, Note_on_c, 0, 69, 77
2, 38040, Note_on_c, 0, 73, 77
2, 38040, Note_on_c, 0, 81, 77
2, 38136, Note_on_c, 0, 81, 0
2, 38136, Note_on_c, 0, 73, 0
2, 38136, Note_on_c, 0, 69, 0
2, 38160, Note_on_c, 0, 69, 80
2, 38160, Note_on_c, 0, 73, 80
2, 38160, Note_on_c, 0, 81, 80
2, 38256, Note_on_c, 0, 81, 0
2, 38256, Note_on_c, 0, 73, 0
2, 38256, Note_on_c, 0, 69, 0
2, 38280, Note_on_c, 0, 69, 82
2, 38280, Note_on_c, 0, 73, 82
2, 38280, Note_on_c, 0, 81, 82
2, 38376, Note_on_c, 0, 81, 0
2, 38376, Note_on_c, 0, 73, 0
2, 38376, Note_on_c, 0, 69, 0
2, 38400, Note_on_c, 0, 81, 85
2, 38400, Note_on_c, 0, 69, 85
2, 38400, Note_on_c, 0, 73, 85
2, 38496, Note_on_c, 0, 81, 0
2, 38518, Note_on_c, 0, 73, 0
2, 38518, Note_on_c, 0, 69, 0
2, 38520, Note_on_c, 0, 79, 85
2, 38520, Note_on_c, 0, 76, 85
2, 38578, Note_on_c, 0, 76, 0
2, 38580, Note_on_c, 0, 69, 85
2, 38616, Note_on_c, 0, 79, 0
2, 38638, Note_on_c, 0, 69, 0
2, 38640, Note_on_c, 0, 79, 85
2, 38640, Note_on_c, 0, 76, 85
2, 38698, Note_on_c, 0, 76, 0
2, 38700, Note_on_c, 0, 69, 85
2, 38736, Note_on_c, 0, 79, 0
2, 38758, Note_on_c, 0, 69, 0
2, 38760, Note_on_c, 0, 79, 85
2, 38760, Note_on_c, 0, 76, 85
2, 38818, Note_on_c, 0, 76, 0
2, 38820, Note_on_c, 0, 69, 85
2, 38856, Note_on_c, 0, 79, 0
2, 38880, Note_on_c, 0, 76, 85
2, 38880, Note_on_c, 0, 79, 85
2, 39072, Note_on_c, 0, 79, 0
2, 39118, Note_on_c, 0, 76, 0
2, 39118, Note_on_c, 0, 69, 0
2, 39480, Note_on_c, 0, 79, 48
2, 39480, Note_on_c, 0, 76, 48
2, 39538, Note_on_c, 0, 76, 0
2, 39540, Note_on_c, 0, 69, 48
2, 39576, Note_on_c, 0, 79, 0
2, 39598, Note_on_c, 0, 69, 0
2, 39600, Note_on_c, 0, 79, 48
2, 39600, Note_on_c, 0, 76, 48
2, 39658, Note_on_c, 0, 76, 0
2, 39660, Note_on_c, 0, 69, 48
2, 39696, Note_on_c, 0, 79, 0
2, 39718, Note_on_c, 0, 69, 0
2, 39720, Note_on_c, 0, 79, 48
2, 39720, Note_on_c, 0, 76, 48
2, 39778, Note_on_c, 0, 76, 0
2, 39780, Note_on_c, 0, 69, 48
2, 39816, Note_on_c, 0, 79, 0
2, 39838, Note_on_c, 0, 69, 0
2, 39840, Note_on_c, 0, 79, 48
2, 39840, Note_on_c, 0, 76, 48
2, 39912, Note_on_c, 0, 76, 0
2, 39912, Note_on_c, 0, 79, 0
2, 39960, Note_on_c, 0, 79, 96
2, 39960, Note_on_c, 0, 73, 96
2, 40018, Note_on_c, 0, 73, 0
2, 40020, Note_on_c, 0, 69, 96
2, 40056, Note_on_c, 0, 79, 0
2, 40078, Note_on_c, 0, 69, 0
2, 40080, Note_on_c, 0, 79, 96
2, 40080, Note_on_c, 0, 73, 96
2, 40138, Note_on_c, 0, 73, 0
2, 40140, Note_on_c, 0, 69, 96
2, 40176, Note_on_c, 0, 79, 0
2, 40198, Note_on_c, 0, 69, 0
2, 40200, Note_on_c, 0, 79, 96
2, 40200, Note_on_c, 0, 73, 96
2, 40258, Note_on_c, 0, 73, 0
2, 40260, Note_on_c, 0, 69, 96
2, 40296, Note_on_c, 0, 79, 0
2, 40318, Note_on_c, 0, 69, 0
2, 40320, Note_on_c, 0, 80, 96
2, 40320, Note_on_c, 0, 72, 96
2, 40320, Note_on_c, 0, 75, 96
2, 40416, Note_on_c, 0, 80, 0
2, 40438, Note_on_c, 0, 75, 0
2, 40438, Note_on_c, 0, 72, 0
2, 40440, Note_on_c, 0, 80, 96
2, 40440, Note_on_c, 0, 75, 96
2, 40498, Note_on_c, 0, 75, 0
2, 40500, Note_on_c, 0, 72, 96
2, 40536, Note_on_c, 0, 80, 0
2, 40558, Note_on_c, 0, 72, 0
2, 40560, Note_on_c, 0, 80, 96
2, 40560, Note_on_c, 0, 75, 96
2, 40618, Note_on_c, 0, 75, 0
2, 40620, Note_on_c, 0, 72, 96
2, 40656, Note_on_c, 0, 80, 0
2, 40678, Note_on_c, 0, 72, 0
2, 40680, Note_on_c, 0, 80, 96
2, 40680, Note_on_c, 0, 75, 96
2, 40738, Note_on_c, 0, 75, 0
2, 40740, Note_on_c, 0, 72, 96
2, 40776, Note_on_c, 0, 80, 0
2, 40798, Note_on_c, 0, 72, 0
2, 40800, Note_on_c, 0, 80, 96
2, 40800, Note_on_c, 0, 75, 96
2, 41250, Note_on_c, 0, 75, 0
2, 41250, Note_on_c, 0, 80, 0
2, 41760, Note_on_c, 0, 56, 85
2, 41832, Note_on_c, 0, 56, 0
2, 41850, Note_on_c, 0, 58, 85
2, 41880, Note_on_c, 0, 58, 0
2, 41880, Note_on_c, 0, 56, 85
2, 41910, Note_on_c, 0, 56, 0
2, 41910, Note_on_c, 0, 55, 85
2, 41940, Note_on_c, 0, 55, 0
2, 41940, Note_on_c, 0, 56, 85
2, 41970, Note_on_c, 0, 56, 0
2, 41970, Note_on_c, 0, 58, 85
2, 42000, Note_on_c, 0, 58, 0
2, 42000, Note_on_c, 0, 59, 85
2, 42120, Note_on_c, 0, 59, 0
2, 42120, Note_on_c, 0, 58, 85
2, 42180, Note_on_c, 0, 58, 0
2, 42240, Note_on_c, 0, 56, 85
2, 42300, Note_on_c, 0, 56, 0
2, 42360, Note_on_c, 0, 51, 85
2, 42420, Note_on_c, 0, 51, 0
2, 42480, Note_on_c, 0, 56, 85
2, 42540, Note_on_c, 0, 56, 0
2, 42600, Note_on_c, 0, 59, 85
2, 42660, Note_on_c, 0, 59, 0
2, 42720, Note_on_c, 0, 56, 85
2, 42838, Note_on_c, 0, 56, 0
2, 42840, Note_on_c, 0, 63, 64
2, 42958, Note_on_c, 0, 63, 0
2, 42960, Note_on_c, 0, 63, 64
2, 43078, Note_on_c, 0, 63, 0
2, 43080, Note_on_c, 0, 63, 64
2, 43198, Note_on_c, 0, 63, 0
2, 43200, Note_on_c, 0, 64, 64
2, 43232, Note_on_c, 0, 64, 0
2, 43240, Note_on_c, 0, 63, 64
2, 43272, Note_on_c, 0, 63, 0
2, 43280, Note_on_c, 0, 62, 64
2, 43312, Note_on_c, 0, 62, 0
2, 43320, Note_on_c, 0, 63, 64
2, 43416, Note_on_c, 0, 63, 0
2, 43800, Note_on_c, 0, 63, 64
2, 43918, Note_on_c, 0, 63, 0
2, 43920, Note_on_c, 0, 63, 64
2, 44038, Note_on_c, 0, 63, 0
2, 44040, Note_on_c, 0, 63, 64
2, 44158, Note_on_c, 0, 63, 0
2, 44160, Note_on_c, 0, 64, 64
2, 44192, Note_on_c, 0, 64, 0
2, 44200, Note_on_c, 0, 63, 64
2, 44232, Note_on_c, 0, 63, 0
2, 44240, Note_on_c, 0, 62, 64
2, 44272, Note_on_c, 0, 62, 0
2, 44280, Note_on_c, 0, 63, 64
2, 44376, Note_on_c, 0, 63, 0
2, 44760, Note_on_c, 0, 68, 67
2, 44878, Note_on_c, 0, 68, 0
2, 44880, Note_on_c, 0, 68, 69
2, 44998, Note_on_c, 0, 68, 0
2, 45000, Note_on_c, 0, 68, 72
2, 45072, Note_on_c, 0, 68, 0
2, 45090, Note_on_c, 0, 70, 74
2, 45114, Note_on_c, 0, 70, 0
2, 45120, Note_on_c, 0, 68, 75
2, 45144, Note_on_c, 0, 68, 0
2, 45150, Note_on_c, 0, 67, 75
2, 45174, Note_on_c, 0, 67, 0
2, 45180, Note_on_c, 0, 68, 76
2, 45204, Note_on_c, 0, 68, 0
2, 45210, Note_on_c, 0, 70, 76
2, 45234, Note_on_c, 0, 70, 0
2, 45240, Note_on_c, 0, 71, 77
2, 45336, Note_on_c, 0, 71, 0
2, 45360, Note_on_c, 0, 71, 80
2, 45456, Note_on_c, 0, 71, 0
2, 45480, Note_on_c, 0, 71, 82
2, 45576, Note_on_c, 0, 71, 0
2, 45600, Note_on_c, 0, 71, 96
2, 45838, Note_on_c, 0, 71, 0
2, 45840, Note_on_c, 0, 70, 48
2, 45900, Note_on_c, 0, 70, 0
2, 45960, Note_on_c, 0, 76, 48
2, 46020, Note_on_c, 0, 76, 0
2, 46080, Note_on_c, 0, 68, 48
2, 46318, Note_on_c, 0, 68, 0
2, 46320, Note_on_c, 0, 67, 48
2, 46438, Note_on_c, 0, 67, 0
2, 46440, Note_on_c, 0, 73, 64
2, 46558, Note_on_c, 0, 73, 0
2, 46560, Note_on_c, 0, 73, 96
2, 46798, Note_on_c, 0, 73, 0
2, 46800, Note_on_c, 0, 72, 48
2, 46860, Note_on_c, 0, 72, 0
2, 46920, Note_on_c, 0, 78, 48
2, 46980, Note_on_c, 0, 78, 0
2, 47040, Note_on_c, 0, 66, 48
2, 47278, Note_on_c, 0, 66, 0
2, 47280, Note_on_c, 0, 65, 48
2, 47398, Note_on_c, 0, 65, 0
2, 47400, Note_on_c, 0, 71, 64
2, 47518, Note_on_c, 0, 71, 0
2, 47520, Note_on_c, 0, 71, 96
2, 47758, Note_on_c, 0, 71, 0
2, 47760, Note_on_c, 0, 70, 57
2, 47820, Note_on_c, 0, 70, 0
2, 47880, Note_on_c, 0, 76, 62
2, 47940, Note_on_c, 0, 76, 0
2, 48000, Note_on_c, 0, 64, 67
2, 48238, Note_on_c, 0, 64, 0
2, 48240, Note_on_c, 0, 63, 76
2, 48358, Note_on_c, 0, 63, 0
2, 48360, Note_on_c, 0, 69, 80
2, 48478, Note_on_c, 0, 69, 0
2, 48480, Note_on_c, 0, 64, 85
2, 48538, Note_on_c, 0, 64, 0
2, 48540, Note_on_c, 0, 76, 85
2, 48598, Note_on_c, 0, 76, 0
2, 48600, Note_on_c, 0, 68, 85
2, 48658, Note_on_c, 0, 68, 0
2, 48660, Note_on_c, 0, 76, 85
2, 48718, Note_on_c, 0, 76, 0
2, 48720, Note_on_c, 0, 71, 85
2, 48778, Note_on_c, 0, 71, 0
2, 48780, Note_on_c, 0, 76, 85
2, 48838, Note_on_c, 0, 76, 0
2, 48840, Note_on_c, 0, 68, 85
2, 48898, Note_on_c, 0, 68, 0
2, 48900, Note_on_c, 0, 76, 85
2, 48958, Note_on_c, 0, 76, 0
2, 48960, Note_on_c, 0, 64, 85
2, 49018, Note_on_c, 0, 64, 0
2, 49020, Note_on_c, 0, 76, 85
2, 49078, Note_on_c, 0, 76, 0
2, 49080, Note_on_c, 0, 68, 85
2, 49138, Note_on_c, 0, 68, 0
2, 49140, Note_on_c, 0, 76, 85
2, 49198, Note_on_c, 0, 76, 0
2, 49200, Note_on_c, 0, 71, 85
2, 49258, Note_on_c, 0, 71, 0
2, 49260, Note_on_c, 0, 76, 85
2, 49318, Note_on_c, 0, 76, 0
2, 49320, Note_on_c, 0, 68, 85
2, 49378, Note_on_c, 0, 68, 0
2, 49380, Note_on_c, 0, 76, 85
2, 49438, Note_on_c, 0, 76, 0
2, 49440, Note_on_c, 0, 65, 85
2, 49498, Note_on_c, 0, 65, 0
2, 49500, Note_on_c, 0, 74, 85
2, 49558, Note_on_c, 0, 74, 0
2, 49560, Note_on_c, 0, 68, 85
2, 49618, Note_on_c, 0, 68, 0
2, 49620, Note_on_c, 0, 74, 85
2, 49678, Note_on_c, 0, 74, 0
2, 49680, Note_on_c, 0, 71, 85
2, 49738, Note_on_c, 0, 71, 0
2, 49740, Note_on_c, 0, 74, 85
2, 49798, Note_on_c, 0, 74, 0
2, 49800, Note_on_c, 0, 68, 85
2, 49858, Note_on_c, 0, 68, 0
2, 49860, Note_on_c, 0, 74, 85
2, 49918, Note_on_c, 0, 74, 0
2, 49920, Note_on_c, 0, 65, 85
2, 49978, Note_on_c, 0, 65, 0
2, 49980, Note_on_c, 0, 74, 85
2, 50038, Note_on_c, 0, 74, 0
2, 50040, Note_on_c, 0, 68, 85
2, 50098, Note_on_c, 0, 68, 0
2, 50100, Note_on_c, 0, 74, 85
2, 50158, Note_on_c, 0, 74, 0
2, 50160, Note_on_c, 0, 71, 85
2, 50218, Note_on_c, 0, 71, 0
2, 50220, Note_on_c, 0, 74, 85
2, 50278, Note_on_c, 0, 74, 0
2, 50280, Note_on_c, 0, 68, 85
2, 50338, Note_on_c, 0, 68, 0
2, 50340, Note_on_c, 0, 74, 85
2, 50398, Note_on_c, 0, 74, 0
2, 50400, Note_on_c, 0, 66, 85
2, 50458, Note_on_c, 0, 66, 0
2, 50460, Note_on_c, 0, 78, 85
2, 50518, Note_on_c, 0, 78, 0
2, 50520, Note_on_c, 0, 69, 85
2, 50578, Note_on_c, 0, 69, 0
2, 50580, Note_on_c, 0, 78, 85
2, 50638, Note_on_c, 0, 78, 0
2, 50640, Note_on_c, 0, 73, 85
2, 50698, Note_on_c, 0, 73, 0
2, 50700, Note_on_c, 0, 78, 85
2, 50758, Note_on_c, 0, 78, 0
2, 50760, Note_on_c, 0, 69, 85
2, 50818, Note_on_c, 0, 69, 0
2, 50820, Note_on_c, 0, 78, 85
2, 50878, Note_on_c, 0, 78, 0
2, 50880, Note_on_c, 0, 66, 85
2, 50938, Note_on_c, 0, 66, 0
2, 50940, Note_on_c, 0, 78, 85
2, 50998, Note_on_c, 0, 78, 0
2, 51000, Note_on_c, 0, 69, 85
2, 51058, Note_on_c, 0, 69, 0
2, 51060, Note_on_c, 0, 78, 85
2, 51118, Note_on_c, 0, 78, 0
2, 51120, Note_on_c, 0, 73, 85
2, 51178, Note_on_c, 0, 73, 0
2, 51180, Note_on_c, 0, 78, 85
2, 51238, Note_on_c, 0, 78, 0
2, 51240, Note_on_c, 0, 69, 85
2, 51298, Note_on_c, 0, 69, 0
2, 51300, Note_on_c, 0, 78, 85
2, 51358, Note_on_c, 0, 78, 0
2, 51360, Note_on_c, 0, 67, 85
2, 51418, Note_on_c, 0, 67, 0
2, 51420, Note_on_c, 0, 76, 85
2, 51478, Note_on_c, 0, 76, 0
2, 51480, Note_on_c, 0, 70, 85
2, 51538, Note_on_c, 0, 70, 0
2, 51540, Note_on_c, 0, 76, 85
2, 51598, Note_on_c, 0, 76, 0
2, 51600, Note_on_c, 0, 73, 85
2, 51658, Note_on_c, 0, 73, 0
2, 51660, Note_on_c, 0, 76, 85
2, 51718, Note_on_c, 0, 76, 0
2, 51720, Note_on_c, 0, 70, 85
2, 51778, Note_on_c, 0, 70, 0
2, 51780, Note_on_c, 0, 76, 85
2, 51838, Note_on_c, 0, 76, 0
2, 51840, Note_on_c, 0, 67, 85
2, 51898, Note_on_c, 0, 67, 0
2, 51900, Note_on_c, 0, 76, 85
2, 51958, Note_on_c, 0, 76, 0
2, 51960, Note_on_c, 0, 70, 85
2, 52018, Note_on_c, 0, 70, 0
2, 52020, Note_on_c, 0, 76, 85
2, 52078, Note_on_c, 0, 76, 0
2, 52080, Note_on_c, 0, 73, 85
2, 52138, Note_on_c, 0, 73, 0
2, 52140, Note_on_c, 0, 76, 85
2, 52198, Note_on_c, 0, 76, 0
2, 52200, Note_on_c, 0, 70, 85
2, 52258, Note_on_c, 0, 70, 0
2, 52260, Note_on_c, 0, 76, 85
2, 52318, Note_on_c, 0, 76, 0
2, 52320, Note_on_c, 0, 68, 50
2, 52378, Note_on_c, 0, 68, 0
2, 52380, Note_on_c, 0, 80, 50
2, 52438, Note_on_c, 0, 80, 0
2, 52440, Note_on_c, 0, 71, 51
2, 52498, Note_on_c, 0, 71, 0
2, 52500, Note_on_c, 0, 80, 51
2, 52558, Note_on_c, 0, 80, 0
2, 52560, Note_on_c, 0, 75, 51
2, 52618, Note_on_c, 0, 75, 0
2, 52620, Note_on_c, 0, 80, 52
2, 52678, Note_on_c, 0, 80, 0
2, 52680, Note_on_c, 0, 71, 52
2, 52738, Note_on_c, 0, 71, 0
2, 52740, Note_on_c, 0, 80, 52
2, 52798, Note_on_c, 0, 80, 0
2, 52800, Note_on_c, 0, 68, 53
2, 52858, Note_on_c, 0, 68, 0
2, 52860, Note_on_c, 0, 80, 53
2, 52918, Note_on_c, 0, 80, 0
2, 52920, Note_on_c, 0, 71, 53
2, 52978, Note_on_c, 0, 71, 0
2, 52980, Note_on_c, 0, 80, 53
2, 53038, Note_on_c, 0, 80, 0
2, 53040, Note_on_c, 0, 75, 54
2, 53098, Note_on_c, 0, 75, 0
2, 53100, Note_on_c, 0, 80, 54
2, 53158, Note_on_c, 0, 80, 0
2, 53160, Note_on_c, 0, 71, 54
2, 53218, Note_on_c, 0, 71, 0
2, 53220, Note_on_c, 0, 80, 55
2, 53278, Note_on_c, 0, 80, 0
2, 53280, Note_on_c, 0, 69, 55
2, 53338, Note_on_c, 0, 69, 0
2, 53340, Note_on_c, 0, 81, 55
2, 53398, Note_on_c, 0, 81, 0
2, 53400, Note_on_c, 0, 72, 56
2, 53458, Note_on_c, 0, 72, 0
2, 53460, Note_on_c, 0, 81, 56
2, 53518, Note_on_c, 0, 81, 0
2, 53520, Note_on_c, 0, 75, 56
2, 53578, Note_on_c, 0, 75, 0
2, 53580, Note_on_c, 0, 81, 57
2, 53638, Note_on_c, 0, 81, 0
2, 53640, Note_on_c, 0, 72, 57
2, 53698, Note_on_c, 0, 72, 0
2, 53700, Note_on_c, 0, 81, 57
2, 53758, Note_on_c, 0, 81, 0
2, 53760, Note_on_c, 0, 69, 58
2, 53818, Note_on_c, 0, 69, 0
2, 53820, Note_on_c, 0, 81, 58
2, 53878, Note_on_c, 0, 81, 0
2, 53880, Note_on_c, 0, 72, 58
2, 53938, Note_on_c, 0, 72, 0
2, 53940, Note_on_c, 0, 81, 58
2, 53998, Note_on_c, 0, 81, 0
2, 54000, Note_on_c, 0, 75, 59
2, 54058, Note_on_c, 0, 75, 0
2, 54060, Note_on_c, 0, 81, 59
2, 54118, Note_on_c, 0, 81, 0
2, 54120, Note_on_c, 0, 72, 59
2, 54178, Note_on_c, 0, 72, 0
2, 54180, Note_on_c, 0, 81, 60
2, 54238, Note_on_c, 0, 81, 0
2, 54240, Note_on_c, 0, 69, 60
2, 54298, Note_on_c, 0, 69, 0
2, 54300, Note_on_c, 0, 81, 60
2, 54358, Note_on_c, 0, 81, 0
2, 54360, Note_on_c, 0, 72, 61
2, 54418, Note_on_c, 0, 72, 0
2, 54420, Note_on_c, 0, 81, 61
2, 54478, Note_on_c, 0, 81, 0
2, 54480, Note_on_c, 0, 75, 61
2, 54538, Note_on_c, 0, 75, 0
2, 54540, Note_on_c, 0, 81, 62
2, 54598, Note_on_c, 0, 81, 0
2, 54600, Note_on_c, 0, 72, 62
2, 54658, Note_on_c, 0, 72, 0
2, 54660, Note_on_c, 0, 81, 62
2, 54718, Note_on_c, 0, 81, 0
2, 54720, Note_on_c, 0, 69, 63
2, 54778, Note_on_c, 0, 69, 0
2, 54780, Note_on_c, 0, 81, 63
2, 54838, Note_on_c, 0, 81, 0
2, 54840, Note_on_c, 0, 72, 63
2, 54898, Note_on_c, 0, 72, 0
2, 54900, Note_on_c, 0, 81, 63
2, 54958, Note_on_c, 0, 81, 0
2, 54960, Note_on_c, 0, 75, 64
2, 55018, Note_on_c, 0, 75, 0
2, 55020, Note_on_c, 0, 81, 64
2, 55078, Note_on_c, 0, 81, 0
2, 55080, Note_on_c, 0, 72, 64
2, 55138, Note_on_c, 0, 72, 0
2, 55140, Note_on_c, 0, 81, 65
2, 55198, Note_on_c, 0, 81, 0
2, 55200, Note_on_c, 0, 69, 65
2, 55258, Note_on_c, 0, 69, 0
2, 55260, Note_on_c, 0, 81, 65
2, 55318, Note_on_c, 0, 81, 0
2, 55320, Note_on_c, 0, 73, 66
2, 55378, Note_on_c, 0, 73, 0
2, 55380, Note_on_c, 0, 81, 66
2, 55438, Note_on_c, 0, 81, 0
2, 55440, Note_on_c, 0, 76, 66
2, 55498, Note_on_c, 0, 76, 0
2, 55500, Note_on_c, 0, 81, 67
2, 55558, Note_on_c, 0, 81, 0
2, 55560, Note_on_c, 0, 73, 67
2, 55618, Note_on_c, 0, 73, 0
2, 55620, Note_on_c, 0, 81, 67
2, 55678, Note_on_c, 0, 81, 0
2, 55680, Note_on_c, 0, 69, 68
2, 55738, Note_on_c, 0, 69, 0
2, 55740, Note_on_c, 0, 81, 68
2, 55798, Note_on_c, 0, 81, 0
2, 55800, Note_on_c, 0, 73, 68
2, 55858, Note_on_c, 0, 73, 0
2, 55860, Note_on_c, 0, 81, 68
2, 55918, Note_on_c, 0, 81, 0
2, 55920, Note_on_c, 0, 76, 69
2, 55978, Note_on_c, 0, 76, 0
2, 55980, Note_on_c, 0, 81, 69
2, 56038, Note_on_c, 0, 81, 0
2, 56040, Note_on_c, 0, 73, 69
2, 56098, Note_on_c, 0, 73, 0
2, 56100, Note_on_c, 0, 81, 70
2, 56158, Note_on_c, 0, 81, 0
2, 56160, Note_on_c, 0, 69, 70
2, 56218, Note_on_c, 0, 69, 0
2, 56220, Note_on_c, 0, 81, 70
2, 56278, Note_on_c, 0, 81, 0
2, 56280, Note_on_c, 0, 72, 71
2, 56338, Note_on_c, 0, 72, 0
2, 56340, Note_on_c, 0, 81, 71
2, 56398, Note_on_c, 0, 81, 0
2, 56400, Note_on_c, 0, 75, 71
2, 56458, Note_on_c, 0, 75, 0
2, 56460, Note_on_c, 0, 81, 72
2, 56518, Note_on_c, 0, 81, 0
2, 56520, Note_on_c, 0, 72, 72
2, 56578, Note_on_c, 0, 72, 0
2, 56580, Note_on_c, 0, 81, 72
2, 56638, Note_on_c, 0, 81, 0
2, 56640, Note_on_c, 0, 69, 73
2, 56698, Note_on_c, 0, 69, 0
2, 56700, Note_on_c, 0, 81, 73
2, 56758, Note_on_c, 0, 81, 0
2, 56760, Note_on_c, 0, 72, 73
2, 56818, Note_on_c, 0, 72, 0
2, 56820, Note_on_c, 0, 81, 73
2, 56878, Note_on_c, 0, 81, 0
2, 56880, Note_on_c, 0, 75, 74
2, 56938, Note_on_c, 0, 75, 0
2, 56940, Note_on_c, 0, 81, 74
2, 56998, Note_on_c, 0, 81, 0
2, 57000, Note_on_c, 0, 72, 74
2, 57058, Note_on_c, 0, 72, 0
2, 57060, Note_on_c, 0, 81, 75
2, 57118, Note_on_c, 0, 81, 0
2, 57120, Note_on_c, 0, 68, 75
2, 57178, Note_on_c, 0, 68, 0
2, 57180, Note_on_c, 0, 80, 75
2, 57238, Note_on_c, 0, 80, 0
2, 57240, Note_on_c, 0, 73, 76
2, 57298, Note_on_c, 0, 73, 0
2, 57300, Note_on_c, 0, 80, 76
2, 57358, Note_on_c, 0, 80, 0
2, 57360, Note_on_c, 0, 76, 76
2, 57418, Note_on_c, 0, 76, 0
2, 57420, Note_on_c, 0, 80, 77
2, 57478, Note_on_c, 0, 80, 0
2, 57480, Note_on_c, 0, 73, 77
2, 57538, Note_on_c, 0, 73, 0
2, 57540, Note_on_c, 0, 80, 77
2, 57598, Note_on_c, 0, 80, 0
2, 57600, Note_on_c, 0, 68, 78
2, 57658, Note_on_c, 0, 68, 0
2, 57660, Note_on_c, 0, 80, 78
2, 57718, Note_on_c, 0, 80, 0
2, 57720, Note_on_c, 0, 73, 78
2, 57778, Note_on_c, 0, 73, 0
2, 57780, Note_on_c, 0, 80, 78
2, 57838, Note_on_c, 0, 80, 0
2, 57840, Note_on_c, 0, 76, 79
2, 57898, Note_on_c, 0, 76, 0
2, 57900, Note_on_c, 0, 80, 79
2, 57958, Note_on_c, 0, 80, 0
2, 57960, Note_on_c, 0, 73, 79
2, 58018, Note_on_c, 0, 73, 0
2, 58020, Note_on_c, 0, 80, 80
2, 58078, Note_on_c, 0, 80, 0
2, 58080, Note_on_c, 0, 68, 80
2, 58138, Note_on_c, 0, 68, 0
2, 58140, Note_on_c, 0, 78, 80
2, 58198, Note_on_c, 0, 78, 0
2, 58200, Note_on_c, 0, 75, 81
2, 58258, Note_on_c, 0, 75, 0
2, 58260, Note_on_c, 0, 78, 81
2, 58318, Note_on_c, 0, 78, 0
2, 58320, Note_on_c, 0, 68, 81
2, 58378, Note_on_c, 0, 68, 0
2, 58380, Note_on_c, 0, 78, 82
2, 58438, Note_on_c, 0, 78, 0
2, 58440, Note_on_c, 0, 75, 82
2, 58498, Note_on_c, 0, 75, 0
2, 58500, Note_on_c, 0, 78, 82
2, 58558, Note_on_c, 0, 78, 0
2, 58560, Note_on_c, 0, 68, 83
2, 58618, Note_on_c, 0, 68, 0
2, 58620, Note_on_c, 0, 76, 83
2, 58678, Note_on_c, 0, 76, 0
2, 58680, Note_on_c, 0, 73, 83
2, 58738, Note_on_c, 0, 73, 0
2, 58740, Note_on_c, 0, 76, 83
2, 58798, Note_on_c, 0, 76, 0
2, 58800, Note_on_c, 0, 68, 84
2, 58858, Note_on_c, 0, 68, 0
2, 58860, Note_on_c, 0, 76, 84
2, 58918, Note_on_c, 0, 76, 0
2, 58920, Note_on_c, 0, 73, 84
2, 58978, Note_on_c, 0, 73, 0
2, 58980, Note_on_c, 0, 76, 85
2, 59038, Note_on_c, 0, 76, 0
2, 59040, Note_on_c, 0, 75, 85
2, 59098, Note_on_c, 0, 75, 0
2, 59100, Note_on_c, 0, 68, 85
2, 59158, Note_on_c, 0, 68, 0
2, 59160, Note_on_c, 0, 75, 85
2, 59218, Note_on_c, 0, 75, 0
2, 59220, Note_on_c, 0, 68, 85
2, 59278, Note_on_c, 0, 68, 0
2, 59280, Note_on_c, 0, 80, 85
2, 59338, Note_on_c, 0, 80, 0
2, 59340, Note_on_c, 0, 68, 85
2, 59398, Note_on_c, 0, 68, 0
2, 59400, Note_on_c, 0, 80, 85
2, 59458, Note_on_c, 0, 80, 0
2, 59460, Note_on_c, 0, 68, 85
2, 59518, Note_on_c, 0, 68, 0
2, 59520, Note_on_c, 0, 78, 85
2, 59578, Note_on_c, 0, 78, 0
2, 59580, Note_on_c, 0, 68, 85
2, 59638, Note_on_c, 0, 68, 0
2, 59640, Note_on_c, 0, 78, 85
2, 59698, Note_on_c, 0, 78, 0
2, 59700, Note_on_c, 0, 68, 85
2, 59758, Note_on_c, 0, 68, 0
2, 59760, Note_on_c, 0, 76, 85
2, 59818, Note_on_c, 0, 76, 0
2, 59820, Note_on_c, 0, 68, 85
2, 59878, Note_on_c, 0, 68, 0
2, 59880, Note_on_c, 0, 76, 85
2, 59938, Note_on_c, 0, 76, 0
2, 59940, Note_on_c, 0, 68, 85
2, 59998, Note_on_c, 0, 68, 0
2, 60000, Note_on_c, 0, 75, 85
2, 60058, Note_on_c, 0, 75, 0
2, 60060, Note_on_c, 0, 68, 85
2, 60118, Note_on_c, 0, 68, 0
2, 60120, Note_on_c, 0, 75, 85
2, 60178, Note_on_c, 0, 75, 0
2, 60180, Note_on_c, 0, 68, 85
2, 60238, Note_on_c, 0, 68, 0
2, 60240, Note_on_c, 0, 73, 85
2, 60298, Note_on_c, 0, 73, 0
2, 60300, Note_on_c, 0, 68, 85
2, 60358, Note_on_c, 0, 68, 0
2, 60360, Note_on_c, 0, 73, 85
2, 60418, Note_on_c, 0, 73, 0
2, 60420, Note_on_c, 0, 68, 85
2, 60478, Note_on_c, 0, 68, 0
2, 60480, Note_on_c, 0, 72, 85
2, 60538, Note_on_c, 0, 72, 0
2, 60540, Note_on_c, 0, 66, 85
2, 60598, Note_on_c, 0, 66, 0
2, 60600, Note_on_c, 0, 72, 85
2, 60658, Note_on_c, 0, 72, 0
2, 60660, Note_on_c, 0, 66, 85
2, 60718, Note_on_c, 0, 66, 0
2, 60720, Note_on_c, 0, 73, 85
2, 60778, Note_on_c, 0, 73, 0
2, 60780, Note_on_c, 0, 64, 85
2, 60838, Note_on_c, 0, 64, 0
2, 60840, Note_on_c, 0, 73, 85
2, 60898, Note_on_c, 0, 73, 0
2, 60900, Note_on_c, 0, 64, 85
2, 60958, Note_on_c, 0, 64, 0
2, 60960, Note_on_c, 0, 75, 96
2, 61104, Note_on_c, 0, 75, 0
2, 61200, Note_on_c, 0, 60, 85
2, 61200, Note_on_c, 0, 63, 85
2, 61200, Note_on_c, 0, 68, 85
2, 61378, Note_on_c, 0, 68, 0
2, 61378, Note_on_c, 0, 63, 0
2, 61378, Note_on_c, 0, 60, 0
2, 61380, Note_on_c, 0, 60, 85
2, 61380, Note_on_c, 0, 63, 85
2, 61380, Note_on_c, 0, 68, 85
2, 61438, Note_on_c, 0, 68, 0
2, 61438, Note_on_c, 0, 63, 0
2, 61438, Note_on_c, 0, 60, 0
2, 61440, Note_on_c, 0, 60, 85
2, 61440, Note_on_c, 0, 63, 85
2, 61440, Note_on_c, 0, 68, 85
2, 61678, Note_on_c, 0, 68, 0
2, 61678, Note_on_c, 0, 63, 0
2, 61678, Note_on_c, 0, 60, 0
2, 61920, Note_on_c, 0, 61, 85
2, 61992, Note_on_c, 0, 61, 0
2, 62010, Note_on_c, 0, 63, 85
2, 62040, Note_on_c, 0, 63, 0
2, 62040, Note_on_c, 0, 61, 85
2, 62070, Note_on_c, 0, 61, 0
2, 62070, Note_on_c, 0, 60, 85
2, 62100, Note_on_c, 0, 60, 0
2, 62100, Note_on_c, 0, 61, 85
2, 62130, Note_on_c, 0, 61, 0
2, 62130, Note_on_c, 0, 63, 85
2, 62160, Note_on_c, 0, 63, 0
2, 62160, Note_on_c, 0, 64, 85
2, 62280, Note_on_c, 0, 64, 0
2, 62280, Note_on_c, 0, 63, 85
2, 62340, Note_on_c, 0, 63, 0
2, 62400, Note_on_c, 0, 61, 85
2, 62460, Note_on_c, 0, 61, 0
2, 62520, Note_on_c, 0, 56, 85
2, 62580, Note_on_c, 0, 56, 0
2, 62640, Note_on_c, 0, 61, 85
2, 62700, Note_on_c, 0, 61, 0
2, 62760, Note_on_c, 0, 64, 85
2, 62820, Note_on_c, 0, 64, 0
2, 62880, Note_on_c, 0, 61, 85
2, 62998, Note_on_c, 0, 61, 0
2, 63000, Note_on_c, 0, 68, 64
2, 63118, Note_on_c, 0, 68, 0
2, 63120, Note_on_c, 0, 68, 64
2, 63238, Note_on_c, 0, 68, 0
2, 63240, Note_on_c, 0, 68, 64
2, 63358, Note_on_c, 0, 68, 0
2, 63360, Note_on_c, 0, 69, 64
2, 63392, Note_on_c, 0, 69, 0
2, 63400, Note_on_c, 0, 68, 64
2, 63432, Note_on_c, 0, 68, 0
2, 63440, Note_on_c, 0, 67, 64
2, 63472, Note_on_c, 0, 67, 0
2, 63480, Note_on_c, 0, 68, 64
2, 63576, Note_on_c, 0, 68, 0
2, 63960, Note_on_c, 0, 68, 64
2, 64078, Note_on_c, 0, 68, 0
2, 64080, Note_on_c, 0, 68, 64
2, 64198, Note_on_c, 0, 68, 0
2, 64200, Note_on_c, 0, 68, 64
2, 64318, Note_on_c, 0, 68, 0
2, 64320, Note_on_c, 0, 69, 64
2, 64352, Note_on_c, 0, 69, 0
2, 64360, Note_on_c, 0, 68, 64
2, 64392, Note_on_c, 0, 68, 0
2, 64400, Note_on_c, 0, 67, 64
2, 64432, Note_on_c, 0, 67, 0
2, 64440, Note_on_c, 0, 68, 64
2, 64536, Note_on_c, 0, 68, 0
2, 64920, Note_on_c, 0, 73, 65
2, 64920, Note_on_c, 0, 76, 65
2, 65038, Note_on_c, 0, 76, 0
2, 65038, Note_on_c, 0, 73, 0
2, 65040, Note_on_c, 0, 72, 66
2, 65040, Note_on_c, 0, 75, 66
2, 65158, Note_on_c, 0, 75, 0
2, 65158, Note_on_c, 0, 72, 0
2, 65160, Note_on_c, 0, 73, 67
2, 65160, Note_on_c, 0, 76, 67
2, 65278, Note_on_c, 0, 76, 0
2, 65278, Note_on_c, 0, 73, 0
2, 65280, Note_on_c, 0, 75, 68
2, 65280, Note_on_c, 0, 78, 68
2, 65518, Note_on_c, 0, 78, 0
2, 65518, Note_on_c, 0, 75, 0
2, 65880, Note_on_c, 0, 77, 72
2, 65880, Note_on_c, 0, 80, 72
2, 65998, Note_on_c, 0, 80, 0
2, 65998, Note_on_c, 0, 77, 0
2, 66000, Note_on_c, 0, 75, 73
2, 66000, Note_on_c, 0, 78, 73
2, 66118, Note_on_c, 0, 78, 0
2, 66118, Note_on_c, 0, 75, 0
2, 66120, Note_on_c, 0, 77, 74
2, 66120, Note_on_c, 0, 80, 74
2, 66238, Note_on_c, 0, 80, 0
2, 66238, Note_on_c, 0, 77, 0
2, 66240, Note_on_c, 0, 78, 76
2, 66240, Note_on_c, 0, 81, 76
2, 66478, Note_on_c, 0, 81, 0
2, 66478, Note_on_c, 0, 78, 0
2, 66840, Note_on_c, 0, 81, 79
2, 66840, Note_on_c, 0, 85, 79
2, 66958, Note_on_c, 0, 85, 0
2, 66958, Note_on_c, 0, 81, 0
2, 66960, Note_on_c, 0, 80, 78
2, 66960, Note_on_c, 0, 83, 78
2, 67078, Note_on_c, 0, 83, 0
2, 67078, Note_on_c, 0, 80, 0
2, 67080, Note_on_c, 0, 81, 77
2, 67080, Note_on_c, 0, 85, 77
2, 67198, Note_on_c, 0, 85, 0
2, 67198, Note_on_c, 0, 81, 0
2, 67200, Note_on_c, 0, 78, 75
2, 67200, Note_on_c, 0, 81, 75
2, 67318, Note_on_c, 0, 81, 0
2, 67318, Note_on_c, 0, 78, 0
2, 67320, Note_on_c, 0, 81, 74
2, 67438, Note_on_c, 0, 81, 0
2, 67440, Note_on_c, 0, 80, 73
2, 67558, Note_on_c, 0, 80, 0
2, 67560, Note_on_c, 0, 81, 72
2, 67678, Note_on_c, 0, 81, 0
2, 67680, Note_on_c, 0, 78, 71
2, 67798, Note_on_c, 0, 78, 0
2, 67800, Note_on_c, 0, 78, 70
2, 67918, Note_on_c, 0, 78, 0
2, 67920, Note_on_c, 0, 77, 69
2, 68038, Note_on_c, 0, 77, 0
2, 68040, Note_on_c, 0, 78, 68
2, 68158, Note_on_c, 0, 78, 0
2, 68160, Note_on_c, 0, 74, 67
2, 68278, Note_on_c, 0, 74, 0
2, 68280, Note_on_c, 0, 74, 64
2, 68398, Note_on_c, 0, 74, 0
2, 68400, Note_on_c, 0, 78, 72
2, 68518, Note_on_c, 0, 78, 0
2, 68520, Note_on_c, 0, 81, 80
2, 68638, Note_on_c, 0, 81, 0
2, 68640, Note_on_c, 0, 73, 85
2, 68938, Note_on_c, 0, 73, 0
2, 68940, Note_on_c, 0, 72, 73
2, 68998, Note_on_c, 0, 72, 0
2, 69000, Note_on_c, 0, 75, 71
2, 69058, Note_on_c, 0, 75, 0
2, 69060, Note_on_c, 0, 72, 69
2, 69118, Note_on_c, 0, 72, 0
2, 69120, Note_on_c, 0, 73, 66
2, 69358, Note_on_c, 0, 73, 0
2, 69480, Note_on_c, 0, 69, 85
2, 69508, Note_on_c, 0, 69, 0
2, 69510, Note_on_c, 0, 66, 85
2, 69598, Note_on_c, 0, 66, 0
2, 69600, Note_on_c, 0, 68, 85
2, 69628, Note_on_c, 0, 68, 0
2, 69630, Note_on_c, 0, 64, 85
2, 69718, Note_on_c, 0, 64, 0
2, 69720, Note_on_c, 0, 66, 85
2, 69748, Note_on_c, 0, 66, 0
2, 69750, Note_on_c, 0, 63, 85
2, 69838, Note_on_c, 0, 63, 0
2, 69840, Note_on_c, 0, 64, 85
2, 69868, Note_on_c, 0, 64, 0
2, 69870, Note_on_c, 0, 61, 85
2, 69958, Note_on_c, 0, 61, 0
2, 69960, Note_on_c, 0, 76, 85
2, 69988, Note_on_c, 0, 76, 0
2, 69990, Note_on_c, 0, 73, 85
2, 70078, Note_on_c, 0, 73, 0
2, 70080, Note_on_c, 0, 75, 85
2, 70108, Note_on_c, 0, 75, 0
2, 70110, Note_on_c, 0, 72, 85
2, 70198, Note_on_c, 0, 72, 0
2, 70200, Note_on_c, 0, 73, 85
2, 70228, Note_on_c, 0, 73, 0
2, 70230, Note_on_c, 0, 70, 85
2, 70318, Note_on_c, 0, 70, 0
2, 70320, Note_on_c, 0, 72, 85
2, 70348, Note_on_c, 0, 72, 0
2, 70350, Note_on_c, 0, 68, 85
2, 70438, Note_on_c, 0, 68, 0
2, 70440, Note_on_c, 0, 81, 85
2, 70468, Note_on_c, 0, 81, 0
2, 70470, Note_on_c, 0, 78, 85
2, 70558, Note_on_c, 0, 78, 0
2, 70560, Note_on_c, 0, 80, 85
2, 70588, Note_on_c, 0, 80, 0
2, 70590, Note_on_c, 0, 76, 85
2, 70678, Note_on_c, 0, 76, 0
2, 70680, Note_on_c, 0, 78, 85
2, 70708, Note_on_c, 0, 78, 0
2, 70710, Note_on_c, 0, 75, 85
2, 70798, Note_on_c, 0, 75, 0
2, 70800, Note_on_c, 0, 76, 85
2, 70828, Note_on_c, 0, 76, 0
2, 70830, Note_on_c, 0, 73, 85
2, 70918, Note_on_c, 0, 73, 0
2, 70920, Note_on_c, 0, 85, 85
2, 70948, Note_on_c, 0, 85, 0
2, 70950, Note_on_c, 0, 80, 85
2, 71038, Note_on_c, 0, 80, 0
2, 71040, Note_on_c, 0, 81, 85
2, 71068, Note_on_c, 0, 81, 0
2, 71070, Note_on_c, 0, 78, 85
2, 71158, Note_on_c, 0, 78, 0
2, 71160, Note_on_c, 0, 80, 85
2, 71188, Note_on_c, 0, 80, 0
2, 71190, Note_on_c, 0, 76, 85
2, 71278, Note_on_c, 0, 76, 0
2, 71280, Note_on_c, 0, 78, 85
2, 71308, Note_on_c, 0, 78, 0
2, 71310, Note_on_c, 0, 75, 85
2, 71398, Note_on_c, 0, 75, 0
2, 71400, Note_on_c, 0, 76, 85
2, 71428, Note_on_c, 0, 76, 0
2, 71430, Note_on_c, 0, 73, 85
2, 71518, Note_on_c, 0, 73, 0
2, 71520, Note_on_c, 0, 75, 85
2, 71550, Note_on_c, 0, 75, 0
2, 71550, Note_on_c, 0, 73, 85
2, 71640, Note_on_c, 0, 73, 0
2, 71640, Note_on_c, 0, 75, 85
2, 71670, Note_on_c, 0, 75, 0
2, 71670, Note_on_c, 0, 73, 85
2, 71760, Note_on_c, 0, 73, 0
2, 71760, Note_on_c, 0, 76, 85
2, 71790, Note_on_c, 0, 76, 0
2, 71790, Note_on_c, 0, 73, 85
2, 71880, Note_on_c, 0, 73, 0
2, 71880, Note_on_c, 0, 76, 85
2, 71910, Note_on_c, 0, 76, 0
2, 71910, Note_on_c, 0, 73, 85
2, 72000, Note_on_c, 0, 73, 0
2, 72000, Note_on_c, 0, 78, 85
2, 72030, Note_on_c, 0, 78, 0
2, 72030, Note_on_c, 0, 73, 85
2, 72120, Note_on_c, 0, 73, 0
2, 72120, Note_on_c, 0, 78, 85
2, 72150, Note_on_c, 0, 78, 0
2, 72150, Note_on_c, 0, 73, 85
2, 72240, Note_on_c, 0, 73, 0
2, 72240, Note_on_c, 0, 76, 85
2, 72270, Note_on_c, 0, 76, 0
2, 72270, Note_on_c, 0, 73, 85
2, 72360, Note_on_c, 0, 73, 0
2, 72360, Note_on_c, 0, 76, 85
2, 72390, Note_on_c, 0, 76, 0
2, 72390, Note_on_c, 0, 73, 85
2, 72480, Note_on_c, 0, 73, 0
2, 72480, Note_on_c, 0, 75, 85
2, 72510, Note_on_c, 0, 75, 0
2, 72510, Note_on_c, 0, 73, 85
2, 72600, Note_on_c, 0, 73, 0
2, 72600, Note_on_c, 0, 75, 85
2, 72630, Note_on_c, 0, 75, 0
2, 72630, Note_on_c, 0, 73, 85
2, 72720, Note_on_c, 0, 73, 0
2, 72720, Note_on_c, 0, 76, 85
2, 72750, Note_on_c, 0, 76, 0
2, 72750, Note_on_c, 0, 73, 85
2, 72840, Note_on_c, 0, 73, 0
2, 72840, Note_on_c, 0, 76, 85
2, 72870, Note_on_c, 0, 76, 0
2, 72870, Note_on_c, 0, 73, 85
2, 72960, Note_on_c, 0, 73, 0
2, 72960, Note_on_c, 0, 78, 85
2, 72990, Note_on_c, 0, 78, 0
2, 72990, Note_on_c, 0, 73, 85
2, 73080, Note_on_c, 0, 73, 0
2, 73080, Note_on_c, 0, 78, 85
2, 73110, Note_on_c, 0, 78, 0
2, 73110, Note_on_c, 0, 73, 85
2, 73200, Note_on_c, 0, 73, 0
2, 73200, Note_on_c, 0, 76, 85
2, 73230, Note_on_c, 0, 76, 0
2, 73230, Note_on_c, 0, 73, 85
2, 73320, Note_on_c, 0, 73, 0
2, 73320, Note_on_c, 0, 76, 85
2, 73350, Note_on_c, 0, 76, 0
2, 73350, Note_on_c, 0, 73, 85
2, 73440, Note_on_c, 0, 73, 0
2, 73440, Note_on_c, 0, 75, 85
2, 73470, Note_on_c, 0, 75, 0
2, 73470, Note_on_c, 0, 73, 85
2, 73560, Note_on_c, 0, 73, 0
2, 73560, Note_on_c, 0, 75, 85
2, 73590, Note_on_c, 0, 75, 0
2, 73590, Note_on_c, 0, 73, 85
2, 73680, Note_on_c, 0, 73, 0
2, 73680, Note_on_c, 0, 75, 85
2, 73710, Note_on_c, 0, 75, 0
2, 73710, Note_on_c, 0, 73, 85
2, 73800, Note_on_c, 0, 73, 0
2, 73800, Note_on_c, 0, 75, 85
2, 73830, Note_on_c, 0, 75, 0
2, 73830, Note_on_c, 0, 73, 85
2, 73920, Note_on_c, 0, 73, 0
2, 73920, Note_on_c, 0, 72, 85
2, 74040, Note_on_c, 0, 72, 0
2, 74040, Note_on_c, 0, 68, 64
2, 74158, Note_on_c, 0, 68, 0
2, 74160, Note_on_c, 0, 68, 64
2, 74278, Note_on_c, 0, 68, 0
2, 74280, Note_on_c, 0, 68, 64
2, 74398, Note_on_c, 0, 68, 0
2, 74400, Note_on_c, 0, 69, 64
2, 74432, Note_on_c, 0, 69, 0
2, 74440, Note_on_c, 0, 68, 64
2, 74472, Note_on_c, 0, 68, 0
2, 74480, Note_on_c, 0, 67, 64
2, 74512, Note_on_c, 0, 67, 0
2, 74520, Note_on_c, 0, 68, 64
2, 74616, Note_on_c, 0, 68, 0
2, 75000, Note_on_c, 0, 68, 64
2, 75096, Note_on_c, 0, 68, 0
2, 75120, Note_on_c, 0, 68, 64
2, 75216, Note_on_c, 0, 68, 0
2, 75240, Note_on_c, 0, 68, 64
2, 75336, Note_on_c, 0, 68, 0
2, 75360, Note_on_c, 0, 69, 64
2, 75392, Note_on_c, 0, 69, 0
2, 75400, Note_on_c, 0, 68, 64
2, 75432, Note_on_c, 0, 68, 0
2, 75440, Note_on_c, 0, 67, 64
2, 75472, Note_on_c, 0, 67, 0
2, 75480, Note_on_c, 0, 68, 64
2, 75576, Note_on_c, 0, 68, 0
2, 75960, Note_on_c, 0, 73, 64
2, 76056, Note_on_c, 0, 73, 0
2, 76080, Note_on_c, 0, 73, 64
2, 76176, Note_on_c, 0, 73, 0
2, 76200, Note_on_c, 0, 73, 64
2, 76296, Note_on_c, 0, 73, 0
2, 76320, Note_on_c, 0, 75, 64
2, 76344, Note_on_c, 0, 75, 0
2, 76350, Note_on_c, 0, 73, 65
2, 76374, Note_on_c, 0, 73, 0
2, 76380, Note_on_c, 0, 72, 66
2, 76404, Note_on_c, 0, 72, 0
2, 76410, Note_on_c, 0, 73, 67
2, 76434, Note_on_c, 0, 73, 0
2, 76440, Note_on_c, 0, 71, 68
2, 76440, Note_on_c, 0, 74, 68
2, 76536, Note_on_c, 0, 74, 0
2, 76536, Note_on_c, 0, 71, 0
2, 76560, Note_on_c, 0, 71, 72
2, 76560, Note_on_c, 0, 74, 72
2, 76656, Note_on_c, 0, 74, 0
2, 76656, Note_on_c, 0, 71, 0
2, 76680, Note_on_c, 0, 71, 76
2, 76680, Note_on_c, 0, 74, 76
2, 76776, Note_on_c, 0, 74, 0
2, 76776, Note_on_c, 0, 71, 0
2, 76800, Note_on_c, 0, 71, 96
2, 76800, Note_on_c, 0, 74, 96
2, 77025, Note_on_c, 0, 74, 0
2, 77025, Note_on_c, 0, 71, 0
2, 77040, Note_on_c, 0, 69, 72
2, 77040, Note_on_c, 0, 73, 72
2, 77076, Note_on_c, 0, 73, 0
2, 77076, Note_on_c, 0, 69, 0
2, 77160, Note_on_c, 0, 71, 72
2, 77160, Note_on_c, 0, 77, 72
2, 77196, Note_on_c, 0, 77, 0
2, 77196, Note_on_c, 0, 71, 0
2, 77280, Note_on_c, 0, 71, 96
2, 77280, Note_on_c, 0, 77, 96
2, 77518, Note_on_c, 0, 77, 0
2, 77518, Note_on_c, 0, 71, 0
2, 77520, Note_on_c, 0, 69, 72
2, 77520, Note_on_c, 0, 78, 72
2, 77580, Note_on_c, 0, 78, 0
2, 77580, Note_on_c, 0, 69, 0
2, 77640, Note_on_c, 0, 73, 72
2, 77640, Note_on_c, 0, 76, 72
2, 77700, Note_on_c, 0, 76, 0
2, 77700, Note_on_c, 0, 73, 0
2, 77760, Note_on_c, 0, 73, 96
2, 77760, Note_on_c, 0, 76, 96
2, 77998, Note_on_c, 0, 76, 0
2, 77998, Note_on_c, 0, 73, 0
2, 78000, Note_on_c, 0, 72, 72
2, 78000, Note_on_c, 0, 75, 72
2, 78084, Note_on_c, 0, 75, 0
2, 78084, Note_on_c, 0, 72, 0
2, 78120, Note_on_c, 0, 73, 72
2, 78120, Note_on_c, 0, 79, 72
2, 78204, Note_on_c, 0, 79, 0
2, 78204, Note_on_c, 0, 73, 0
2, 78240, Note_on_c, 0, 73, 96
2, 78240, Note_on_c, 0, 79, 96
2, 78478, Note_on_c, 0, 79, 0
2, 78478, Note_on_c, 0, 73, 0
2, 78480, Note_on_c, 0, 72, 85
2, 78480, Note_on_c, 0, 80, 85
2, 78588, Note_on_c, 0, 80, 0
2, 78588, Note_on_c, 0, 72, 0
2, 78600, Note_on_c, 0, 68, 85
2, 78600, Note_on_c, 0, 80, 85
2, 78708, Note_on_c, 0, 80, 0
2, 78708, Note_on_c, 0, 68, 0
2, 78720, Note_on_c, 0, 68, 85
2, 78720, Note_on_c, 0, 80, 85
2, 78958, Note_on_c, 0, 80, 0
2, 78958, Note_on_c, 0, 68, 0
2, 78960, Note_on_c, 0, 73, 85
2, 78960, Note_on_c, 0, 85, 85
2, 79080, Note_on_c, 0, 85, 0
2, 79080, Note_on_c, 0, 73, 0
2, 79080, Note_on_c, 0, 71, 85
2, 79080, Note_on_c, 0, 83, 85
2, 79200, Note_on_c, 0, 83, 0
2, 79200, Note_on_c, 0, 71, 0
2, 79200, Note_on_c, 0, 71, 85
2, 79200, Note_on_c, 0, 83, 85
2, 79318, Note_on_c, 0, 83, 0
2, 79318, Note_on_c, 0, 71, 0
2, 79320, Note_on_c, 0, 69, 85
2, 79320, Note_on_c, 0, 81, 85
2, 79378, Note_on_c, 0, 81, 0
2, 79378, Note_on_c, 0, 69, 0
2, 79440, Note_on_c, 0, 69, 85
2, 79440, Note_on_c, 0, 81, 85
2, 79558, Note_on_c, 0, 81, 0
2, 79558, Note_on_c, 0, 69, 0
2, 79560, Note_on_c, 0, 68, 85
2, 79560, Note_on_c, 0, 80, 85
2, 79618, Note_on_c, 0, 80, 0
2, 79618, Note_on_c, 0, 68, 0
2, 79680, Note_on_c, 0, 68, 85
2, 79680, Note_on_c, 0, 80, 85
2, 79798, Note_on_c, 0, 80, 0
2, 79798, Note_on_c, 0, 68, 0
2, 79800, Note_on_c, 0, 66, 85
2, 79800, Note_on_c, 0, 78, 85
2, 79858, Note_on_c, 0, 78, 0
2, 79858, Note_on_c, 0, 66, 0
2, 80040, Note_on_c, 0, 71, 64
2, 80040, Note_on_c, 0, 83, 64
2, 80158, Note_on_c, 0, 83, 0
2, 80158, Note_on_c, 0, 71, 0
2, 80160, Note_on_c, 0, 71, 64
2, 80160, Note_on_c, 0, 83, 64
2, 80278, Note_on_c, 0, 83, 0
2, 80278, Note_on_c, 0, 71, 0
2, 80280, Note_on_c, 0, 69, 64
2, 80280, Note_on_c, 0, 81, 64
2, 80338, Note_on_c, 0, 81, 0
2, 80338, Note_on_c, 0, 69, 0
2, 80400, Note_on_c, 0, 69, 64
2, 80400, Note_on_c, 0, 81, 64
2, 80518, Note_on_c, 0, 81, 0
2, 80518, Note_on_c, 0, 69, 0
2, 80520, Note_on_c, 0, 68, 64
2, 80520, Note_on_c, 0, 80, 64
2, 80578, Note_on_c, 0, 80, 0
2, 80578, Note_on_c, 0, 68, 0
2, 80640, Note_on_c, 0, 68, 64
2, 80640, Note_on_c, 0, 80, 64
2, 80758, Note_on_c, 0, 80, 0
2, 80758, Note_on_c, 0, 68, 0
2, 80760, Note_on_c, 0, 66, 64
2, 80760, Note_on_c, 0, 78, 64
2, 80818, Note_on_c, 0, 78, 0
2, 80818, Note_on_c, 0, 66, 0
2, 81000, Note_on_c, 0, 78, 64
2, 81118, Note_on_c, 0, 78, 0
2, 81120, Note_on_c, 0, 78, 60
2, 81238, Note_on_c, 0, 78, 0
2, 81240, Note_on_c, 0, 76, 55
2, 81298, Note_on_c, 0, 76, 0
2, 81360, Note_on_c, 0, 76, 50
2, 81478, Note_on_c, 0, 76, 0
2, 81480, Note_on_c, 0, 75, 52
2, 81538, Note_on_c, 0, 75, 0
2, 81600, Note_on_c, 0, 75, 56
2, 81658, Note_on_c, 0, 75, 0
2, 81660, Note_on_c, 0, 78, 58
2, 81718, Note_on_c, 0, 78, 0
2, 81720, Note_on_c, 0, 76, 60
2, 81778, Note_on_c, 0, 76, 0
2, 81780, Note_on_c, 0, 80, 62
2, 81838, Note_on_c, 0, 80, 0
2, 81840, Note_on_c, 0, 78, 64
2, 81898, Note_on_c, 0, 78, 0
2, 81900, Note_on_c, 0, 81, 66
2, 81958, Note_on_c, 0, 81, 0
2, 81960, Note_on_c, 0, 80, 68
2, 82018, Note_on_c, 0, 80, 0
2, 82020, Note_on_c, 0, 83, 70
2, 82078, Note_on_c, 0, 83, 0
2, 82080, Note_on_c, 0, 81, 85
2, 82358, Note_on_c, 0, 81, 0
2, 82360, Note_on_c, 0, 80, 74
2, 82398, Note_on_c, 0, 80, 0
2, 82400, Note_on_c, 0, 78, 73
2, 82438, Note_on_c, 0, 78, 0
2, 82440, Note_on_c, 0, 76, 71
2, 82478, Note_on_c, 0, 76, 0
2, 82480, Note_on_c, 0, 75, 70
2, 82518, Note_on_c, 0, 75, 0
2, 82520, Note_on_c, 0, 73, 68
2, 82558, Note_on_c, 0, 73, 0
2, 82560, Note_on_c, 0, 72, 66
2, 82896, Note_on_c, 0, 72, 0
2, 83280, Note_on_c, 0, 75, 85
2, 83338, Note_on_c, 0, 75, 0
2, 83340, Note_on_c, 0, 87, 85
2, 83398, Note_on_c, 0, 87, 0
2, 83400, Note_on_c, 0, 72, 85
2, 83458, Note_on_c, 0, 72, 0
2, 83460, Note_on_c, 0, 84, 85
2, 83518, Note_on_c, 0, 84, 0
2, 83520, Note_on_c, 0, 69, 85
2, 83578, Note_on_c, 0, 69, 0
2, 83580, Note_on_c, 0, 81, 85
2, 83638, Note_on_c, 0, 81, 0
2, 83640, Note_on_c, 0, 66, 85
2, 83698, Note_on_c, 0, 66, 0
2, 83700, Note_on_c, 0, 78, 85
2, 83758, Note_on_c, 0, 78, 0
2, 83760, Note_on_c, 0, 63, 85
2, 83818, Note_on_c, 0, 63, 0
2, 83820, Note_on_c, 0, 75, 85
2, 83878, Note_on_c, 0, 75, 0
2, 83880, Note_on_c, 0, 60, 85
2, 83938, Note_on_c, 0, 60, 0
2, 83940, Note_on_c, 0, 72, 85
2, 83998, Note_on_c, 0, 72, 0
2, 84000, Note_on_c, 0, 57, 85
2, 84000, Note_on_c, 0, 69, 85
2, 84478, Note_on_c, 0, 69, 0
2, 84478, Note_on_c, 0, 57, 0
2, 84480, Note_on_c, 0, 56, 85
2, 84480, Note_on_c, 0, 68, 85
2, 84718, Note_on_c, 0, 68, 0
2, 84718, Note_on_c, 0, 56, 0
2, 84720, Note_on_c, 0, 66, 85
2, 84958, Note_on_c, 0, 66, 0
2, 84960, Note_on_c, 0, 52, 85
2, 85018, Note_on_c, 0, 52, 0
2, 85020, Note_on_c, 0, 64, 85
2, 85078, Note_on_c, 0, 64, 0
2, 85080, Note_on_c, 0, 56, 85
2, 85138, Note_on_c, 0, 56, 0
2, 85140, Note_on_c, 0, 68, 85
2, 85198, Note_on_c, 0, 68, 0
2, 85200, Note_on_c, 0, 60, 85
2, 85258, Note_on_c, 0, 60, 0
2, 85260, Note_on_c, 0, 61, 85
2, 85318, Note_on_c, 0, 61, 0
2, 85320, Note_on_c, 0, 63, 85
2, 85378, Note_on_c, 0, 63, 0
2, 85380, Note_on_c, 0, 61, 85
2, 85438, Note_on_c, 0, 61, 0
2, 85440, Note_on_c, 0, 57, 85
2, 85498, Note_on_c, 0, 57, 0
2, 85500, Note_on_c, 0, 69, 85
2, 85558, Note_on_c, 0, 69, 0
2, 85560, Note_on_c, 0, 61, 85
2, 85618, Note_on_c, 0, 61, 0
2, 85620, Note_on_c, 0, 73, 85
2, 85678, Note_on_c, 0, 73, 0
2, 85680, Note_on_c, 0, 65, 85
2, 85738, Note_on_c, 0, 65, 0
2, 85740, Note_on_c, 0, 66, 85
2, 85798, Note_on_c, 0, 66, 0
2, 85800, Note_on_c, 0, 68, 85
2, 85858, Note_on_c, 0, 68, 0
2, 85860, Note_on_c, 0, 66, 85
2, 85918, Note_on_c, 0, 66, 0
2, 85920, Note_on_c, 0, 64, 85
2, 86158, Note_on_c, 0, 64, 0
2, 86160, Note_on_c, 0, 68, 85
2, 86218, Note_on_c, 0, 68, 0
2, 86220, Note_on_c, 0, 66, 85
2, 86278, Note_on_c, 0, 66, 0
2, 86280, Note_on_c, 0, 64, 85
2, 86338, Note_on_c, 0, 64, 0
2, 86340, Note_on_c, 0, 63, 85
2, 86398, Note_on_c, 0, 63, 0
2, 86400, Note_on_c, 0, 64, 85
2, 86458, Note_on_c, 0, 64, 0
2, 86460, Note_on_c, 0, 76, 85
2, 86518, Note_on_c, 0, 76, 0
2, 86520, Note_on_c, 0, 68, 85
2, 86578, Note_on_c, 0, 68, 0
2, 86580, Note_on_c, 0, 80, 85
2, 86638, Note_on_c, 0, 80, 0
2, 86640, Note_on_c, 0, 72, 85
2, 86698, Note_on_c, 0, 72, 0
2, 86700, Note_on_c, 0, 73, 85
2, 86758, Note_on_c, 0, 73, 0
2, 86760, Note_on_c, 0, 75, 85
2, 86818, Note_on_c, 0, 75, 0
2, 86820, Note_on_c, 0, 73, 85
2, 86878, Note_on_c, 0, 73, 0
2, 86880, Note_on_c, 0, 69, 85
2, 86938, Note_on_c, 0, 69, 0
2, 86940, Note_on_c, 0, 81, 85
2, 86998, Note_on_c, 0, 81, 0
2, 87000, Note_on_c, 0, 73, 85
2, 87058, Note_on_c, 0, 73, 0
2, 87060, Note_on_c, 0, 85, 85
2, 87118, Note_on_c, 0, 85, 0
2, 87120, Note_on_c, 0, 72, 85
2, 87178, Note_on_c, 0, 72, 0
2, 87180, Note_on_c, 0, 84, 85
2, 87238, Note_on_c, 0, 84, 0
2, 87240, Note_on_c, 0, 75, 85
2, 87298, Note_on_c, 0, 75, 0
2, 87300, Note_on_c, 0, 87, 85
2, 87358, Note_on_c, 0, 87, 0
2, 87360, Note_on_c, 0, 73, 85
2, 87418, Note_on_c, 0, 73, 0
2, 87420, Note_on_c, 0, 85, 85
2, 87478, Note_on_c, 0, 85, 0
2, 87480, Note_on_c, 0, 76, 85
2, 87538, Note_on_c, 0, 76, 0
2, 87540, Note_on_c, 0, 88, 85
2, 87598, Note_on_c, 0, 88, 0
2, 87600, Note_on_c, 0, 75, 85
2, 87658, Note_on_c, 0, 75, 0
2, 87660, Note_on_c, 0, 87, 85
2, 87718, Note_on_c, 0, 87, 0
2, 87720, Note_on_c, 0, 73, 85
2, 87778, Note_on_c, 0, 73, 0
2, 87780, Note_on_c, 0, 85, 85
2, 87838, Note_on_c, 0, 85, 0
2, 87840, Note_on_c, 0, 71, 85
2, 87898, Note_on_c, 0, 71, 0
2, 87900, Note_on_c, 0, 83, 85
2, 87958, Note_on_c, 0, 83, 0
2, 87960, Note_on_c, 0, 69, 85
2, 88018, Note_on_c, 0, 69, 0
2, 88020, Note_on_c, 0, 81, 85
2, 88078, Note_on_c, 0, 81, 0
2, 88080, Note_on_c, 0, 68, 85
2, 88138, Note_on_c, 0, 68, 0
2, 88140, Note_on_c, 0, 80, 85
2, 88198, Note_on_c, 0, 80, 0
2, 88200, Note_on_c, 0, 67, 85
2, 88258, Note_on_c, 0, 67, 0
2, 88260, Note_on_c, 0, 79, 85
2, 88318, Note_on_c, 0, 79, 0
2, 88320, Note_on_c, 0, 68, 85
2, 88378, Note_on_c, 0, 68, 0
2, 88380, Note_on_c, 0, 80, 85
2, 88438, Note_on_c, 0, 80, 0
2, 88440, Note_on_c, 0, 67, 85
2, 88498, Note_on_c, 0, 67, 0
2, 88500, Note_on_c, 0, 79, 85
2, 88558, Note_on_c, 0, 79, 0
2, 88560, Note_on_c, 0, 68, 85
2, 88618, Note_on_c, 0, 68, 0
2, 88620, Note_on_c, 0, 80, 85
2, 88678, Note_on_c, 0, 80, 0
2, 88680, Note_on_c, 0, 67, 85
2, 88738, Note_on_c, 0, 67, 0
2, 88740, Note_on_c, 0, 79, 85
2, 88798, Note_on_c, 0, 79, 0
2, 88800, Note_on_c, 0, 68, 85
2, 88858, Note_on_c, 0, 68, 0
2, 88860, Note_on_c, 0, 80, 85
2, 88918, Note_on_c, 0, 80, 0
2, 89160, Note_on_c, 0, 72, 85
2, 89188, Note_on_c, 0, 72, 0
2, 89190, Note_on_c, 0, 70, 85
2, 89218, Note_on_c, 0, 70, 0
2, 89220, Note_on_c, 0, 72, 85
2, 89248, Note_on_c, 0, 72, 0
2, 89250, Note_on_c, 0, 73, 85
2, 89278, Note_on_c, 0, 73, 0
2, 89280, Note_on_c, 0, 75, 85
2, 89398, Note_on_c, 0, 75, 0
2, 89400, Note_on_c, 0, 75, 85
2, 89428, Note_on_c, 0, 75, 0
2, 89430, Note_on_c, 0, 73, 85
2, 89458, Note_on_c, 0, 73, 0
2, 89460, Note_on_c, 0, 75, 85
2, 89488, Note_on_c, 0, 75, 0
2, 89490, Note_on_c, 0, 76, 85
2, 89518, Note_on_c, 0, 76, 0
2, 89520, Note_on_c, 0, 78, 85
2, 89638, Note_on_c, 0, 78, 0
2, 89640, Note_on_c, 0, 78, 85
2, 89668, Note_on_c, 0, 78, 0
2, 89670, Note_on_c, 0, 76, 85
2, 89698, Note_on_c, 0, 76, 0
2, 89700, Note_on_c, 0, 78, 85
2, 89728, Note_on_c, 0, 78, 0
2, 89730, Note_on_c, 0, 80, 85
2, 89758, Note_on_c, 0, 80, 0
2, 89760, Note_on_c, 0, 81, 85
2, 89878, Note_on_c, 0, 81, 0
2, 89880, Note_on_c, 0, 75, 85
2, 89998, Note_on_c, 0, 75, 0
2, 90000, Note_on_c, 0, 78, 85
2, 90118, Note_on_c, 0, 78, 0
2, 90120, Note_on_c, 0, 72, 85
2, 90238, Note_on_c, 0, 72, 0
2, 90240, Note_on_c, 0, 68, 85
2, 90240, Note_on_c, 0, 73, 85
2, 90240, Note_on_c, 0, 76, 85
2, 90240, Note_on_c, 0, 80, 85
2, 90358, Note_on_c, 0, 80, 0
2, 90358, Note_on_c, 0, 68, 0
2, 90358, Note_on_c, 0, 73, 0
2, 90358, Note_on_c, 0, 76, 0
2, 90480, Note_on_c, 0, 69, 85
2, 90480, Note_on_c, 0, 75, 85
2, 90480, Note_on_c, 0, 78, 85
2, 90598, Note_on_c, 0, 78, 0
2, 90598, Note_on_c, 0, 75, 0
2, 90598, Note_on_c, 0, 69, 0
2, 90720, Note_on_c, 0, 68, 85
2, 90720, Note_on_c, 0, 73, 85
2, 90720, Note_on_c, 0, 76, 85
2, 90838, Note_on_c, 0, 76, 0
2, 90838, Note_on_c, 0, 73, 0
2, 90838, Note_on_c, 0, 68, 0
2, 91080, Note_on_c, 0, 75, 85
2, 91152, Note_on_c, 0, 75, 0
2, 91170, Note_on_c, 0, 72, 85
2, 91199, Note_on_c, 0, 72, 0
2, 91200, Note_on_c, 0, 73, 85
2, 91318, Note_on_c, 0, 73, 0
2, 91320, Note_on_c, 0, 76, 85
2, 91320, Note_on_c, 0, 80, 85
2, 91438, Note_on_c, 0, 80, 0
2, 91438, Note_on_c, 0, 76, 0
2, 91440, Note_on_c, 0, 73, 85
2, 91440, Note_on_c, 0, 76, 85
2, 91558, Note_on_c, 0, 76, 0
2, 91558, Note_on_c, 0, 73, 0
2, 91560, Note_on_c, 0, 72, 85
2, 91632, Note_on_c, 0, 72, 0
2, 91650, Note_on_c, 0, 68, 85
2, 91679, Note_on_c, 0, 68, 0
2, 91680, Note_on_c, 0, 73, 85
2, 91798, Note_on_c, 0, 73, 0
2, 91800, Note_on_c, 0, 72, 85
2, 91800, Note_on_c, 0, 75, 85
2, 91848, Note_on_c, 0, 75, 0
2, 91848, Note_on_c, 0, 72, 0
2, 91920, Note_on_c, 0, 73, 85
2, 91920, Note_on_c, 0, 76, 85
2, 91968, Note_on_c, 0, 76, 0
2, 91968, Note_on_c, 0, 73, 0
2, 92040, Note_on_c, 0, 75, 48
2, 92112, Note_on_c, 0, 75, 0
2, 92130, Note_on_c, 0, 72, 48
2, 92159, Note_on_c, 0, 72, 0
2, 92160, Note_on_c, 0, 73, 48
2, 92278, Note_on_c, 0, 73, 0
2, 92280, Note_on_c, 0, 76, 48
2, 92280, Note_on_c, 0, 80, 48
2, 92398, Note_on_c, 0, 80, 0
2, 92398, Note_on_c, 0, 76, 0
2, 92400, Note_on_c, 0, 73, 48
2, 92400, Note_on_c, 0, 76, 48
2, 92518, Note_on_c, 0, 76, 0
2, 92518, Note_on_c, 0, 73, 0
2, 92520, Note_on_c, 0, 72, 48
2, 92592, Note_on_c, 0, 72, 0
2, 92610, Note_on_c, 0, 68, 48
2, 92639, Note_on_c, 0, 68, 0
2, 92640, Note_on_c, 0, 73, 48
2, 92758, Note_on_c, 0, 73, 0
2, 92880, Note_on_c, 0, 75, 41
2, 92880, Note_on_c, 0, 84, 41
2, 92998, Note_on_c, 0, 84, 0
2, 92998, Note_on_c, 0, 75, 0
2, 93120, Note_on_c, 0, 76, 34
2, 93120, Note_on_c, 0, 85, 34
2, 93358, Note_on_c, 0, 85, 0
2, 93358, Note_on_c, 0, 76, 0
2, 93358, End_track
3, 0, Start_track
3, 0, MIDI_port, 0
3, 0, Title_t, "by F.J. Haydn (1st mvmt - moderato)"
3, 0, Program_c, 1, 0
3, 0, Control_c, 1, 7, 127
3, 0, Control_c, 1, 10, 56
3, 0, Note_on_c, 1, 37, 85
3, 0, Note_on_c, 1, 49, 85
3, 63, Note_on_c, 1, 49, 0
3, 63, Note_on_c, 1, 37, 0
3, 90, Note_on_c, 1, 51, 85
3, 120, Note_on_c, 1, 51, 0
3, 120, Note_on_c, 1, 49, 85
3, 150, Note_on_c, 1, 49, 0
3, 150, Note_on_c, 1, 48, 85
3, 180, Note_on_c, 1, 48, 0
3, 180, Note_on_c, 1, 49, 85
3, 210, Note_on_c, 1, 49, 0
3, 210, Note_on_c, 1, 51, 85
3, 240, Note_on_c, 1, 51, 0
3, 240, Note_on_c, 1, 52, 85
3, 360, Note_on_c, 1, 52, 0
3, 360, Note_on_c, 1, 51, 85
3, 420, Note_on_c, 1, 51, 0
3, 480, Note_on_c, 1, 49, 85
3, 540, Note_on_c, 1, 49, 0
3, 600, Note_on_c, 1, 44, 85
3, 660, Note_on_c, 1, 44, 0
3, 720, Note_on_c, 1, 49, 85
3, 780, Note_on_c, 1, 49, 0
3, 840, Note_on_c, 1, 52, 85
3, 900, Note_on_c, 1, 52, 0
3, 960, Note_on_c, 1, 49, 85
3, 1198, Note_on_c, 1, 49, 0
3, 1560, Note_on_c, 1, 61, 64
3, 1560, Note_on_c, 1, 64, 64
3, 1680, Note_on_c, 1, 64, 0
3, 1680, Note_on_c, 1, 61, 0
3, 1680, Note_on_c, 1, 60, 64
3, 1680, Note_on_c, 1, 63, 64
3, 1800, Note_on_c, 1, 63, 0
3, 1800, Note_on_c, 1, 60, 0
3, 1800, Note_on_c, 1, 61, 64
3, 1800, Note_on_c, 1, 64, 64
3, 1920, Note_on_c, 1, 64, 0
3, 1920, Note_on_c, 1, 61, 0
3, 1920, Note_on_c, 1, 63, 64
3, 1920, Note_on_c, 1, 66, 64
3, 2158, Note_on_c, 1, 66, 0
3, 2158, Note_on_c, 1, 63, 0
3, 2520, Note_on_c, 1, 63, 64
3, 2520, Note_on_c, 1, 66, 64
3, 2640, Note_on_c, 1, 66, 0
3, 2640, Note_on_c, 1, 63, 0
3, 2640, Note_on_c, 1, 61, 64
3, 2640, Note_on_c, 1, 64, 64
3, 2760, Note_on_c, 1, 64, 0
3, 2760, Note_on_c, 1, 61, 0
3, 2760, Note_on_c, 1, 63, 64
3, 2760, Note_on_c, 1, 66, 64
3, 2880, Note_on_c, 1, 66, 0
3, 2880, Note_on_c, 1, 63, 0
3, 2880, Note_on_c, 1, 64, 64
3, 2880, Note_on_c, 1, 68, 64
3, 3118, Note_on_c, 1, 68, 0
3, 3118, Note_on_c, 1, 64, 0
3, 3480, Note_on_c, 1, 52, 77
3, 3480, Note_on_c, 1, 56, 77
3, 3576, Note_on_c, 1, 56, 0
3, 3576, Note_on_c, 1, 52, 0
3, 3600, Note_on_c, 1, 52, 80
3, 3600, Note_on_c, 1, 56, 80
3, 3696, Note_on_c, 1, 56, 0
3, 3696, Note_on_c, 1, 52, 0
3, 3720, Note_on_c, 1, 52, 82
3, 3720, Note_on_c, 1, 56, 82
3, 3816, Note_on_c, 1, 56, 0
3, 3816, Note_on_c, 1, 52, 0
3, 3960, Note_on_c, 1, 54, 72
3, 3960, Note_on_c, 1, 57, 72
3, 4078, Note_on_c, 1, 57, 0
3, 4078, Note_on_c, 1, 54, 0
3, 4080, Note_on_c, 1, 54, 68
3, 4080, Note_on_c, 1, 57, 68
3, 4198, Note_on_c, 1, 57, 0
3, 4198, Note_on_c, 1, 54, 0
3, 4200, Note_on_c, 1, 54, 64
3, 4200, Note_on_c, 1, 57, 64
3, 4318, Note_on_c, 1, 57, 0
3, 4318, Note_on_c, 1, 54, 0
3, 4440, Note_on_c, 1, 56, 72
3, 4440, Note_on_c, 1, 64, 72
3, 4558, Note_on_c, 1, 64, 0
3, 4560, Note_on_c, 1, 63, 69
3, 4678, Note_on_c, 1, 63, 0
3, 4680, Note_on_c, 1, 66, 67
3, 4798, Note_on_c, 1, 66, 0
3, 4798, Note_on_c, 1, 56, 0
3, 4800, Note_on_c, 1, 61, 60
3, 4800, Note_on_c, 1, 64, 60
3, 5038, Note_on_c, 1, 64, 0
3, 5038, Note_on_c, 1, 61, 0
3, 5760, Note_on_c, 1, 37, 85
3, 5760, Note_on_c, 1, 49, 85
3, 5832, Note_on_c, 1, 49, 0
3, 5832, Note_on_c, 1, 37, 0
3, 5850, Note_on_c, 1, 51, 85
3, 5880, Note_on_c, 1, 51, 0
3, 5880, Note_on_c, 1, 49, 85
3, 5910, Note_on_c, 1, 49, 0
3, 5910, Note_on_c, 1, 48, 85
3, 5940, Note_on_c, 1, 48, 0
3, 5940, Note_on_c, 1, 49, 85
3, 5970, Note_on_c, 1, 49, 0
3, 5970, Note_on_c, 1, 51, 85
3, 6000, Note_on_c, 1, 51, 0
3, 6000, Note_on_c, 1, 52, 85
3, 6120, Note_on_c, 1, 52, 0
3, 6120, Note_on_c, 1, 51, 85
3, 6180, Note_on_c, 1, 51, 0
3, 6240, Note_on_c, 1, 49, 85
3, 6300, Note_on_c, 1, 49, 0
3, 6360, Note_on_c, 1, 44, 85
3, 6420, Note_on_c, 1, 44, 0
3, 6480, Note_on_c, 1, 49, 85
3, 6540, Note_on_c, 1, 49, 0
3, 6600, Note_on_c, 1, 52, 85
3, 6660, Note_on_c, 1, 52, 0
3, 6720, Note_on_c, 1, 33, 64
3, 6720, Note_on_c, 1, 45, 64
3, 6792, Note_on_c, 1, 45, 0
3, 6792, Note_on_c, 1, 33, 0
3, 6810, Note_on_c, 1, 47, 64
3, 6840, Note_on_c, 1, 47, 0
3, 6840, Note_on_c, 1, 45, 64
3, 6870, Note_on_c, 1, 45, 0
3, 6870, Note_on_c, 1, 44, 64
3, 6900, Note_on_c, 1, 44, 0
3, 6900, Note_on_c, 1, 45, 64
3, 6930, Note_on_c, 1, 45, 0
3, 6930, Note_on_c, 1, 47, 64
3, 6960, Note_on_c, 1, 47, 0
3, 6960, Note_on_c, 1, 49, 64
3, 7080, Note_on_c, 1, 49, 0
3, 7080, Note_on_c, 1, 47, 64
3, 7140, Note_on_c, 1, 47, 0
3, 7200, Note_on_c, 1, 45, 64
3, 7260, Note_on_c, 1, 45, 0
3, 7320, Note_on_c, 1, 40, 64
3, 7380, Note_on_c, 1, 40, 0
3, 7440, Note_on_c, 1, 45, 64
3, 7500, Note_on_c, 1, 45, 0
3, 7560, Note_on_c, 1, 49, 64
3, 7620, Note_on_c, 1, 49, 0
3, 7680, Note_on_c, 1, 39, 96
3, 8038, Note_on_c, 1, 39, 0
3, 8040, Note_on_c, 1, 42, 85
3, 8100, Note_on_c, 1, 42, 0
3, 8100, Note_on_c, 1, 46, 85
3, 8160, Note_on_c, 1, 46, 0
3, 8160, Note_on_c, 1, 47, 85
3, 8280, Note_on_c, 1, 47, 0
3, 8280, Note_on_c, 1, 51, 85
3, 8340, Note_on_c, 1, 51, 0
3, 8400, Note_on_c, 1, 54, 85
3, 8460, Note_on_c, 1, 54, 0
3, 8520, Note_on_c, 1, 58, 85
3, 8592, Note_on_c, 1, 58, 0
3, 8610, Note_on_c, 1, 58, 85
3, 8634, Note_on_c, 1, 58, 0
3, 8640, Note_on_c, 1, 59, 85
3, 9238, Note_on_c, 1, 59, 0
3, 9240, Note_on_c, 1, 63, 85
3, 9240, Note_on_c, 1, 66, 85
3, 9358, Note_on_c, 1, 66, 0
3, 9358, Note_on_c, 1, 63, 0
3, 9360, Note_on_c, 1, 63, 85
3, 9360, Note_on_c, 1, 66, 85
3, 9478, Note_on_c, 1, 66, 0
3, 9478, Note_on_c, 1, 63, 0
3, 9480, Note_on_c, 1, 63, 85
3, 9480, Note_on_c, 1, 66, 85
3, 9598, Note_on_c, 1, 66, 0
3, 9598, Note_on_c, 1, 63, 0
3, 9600, Note_on_c, 1, 63, 85
3, 9600, Note_on_c, 1, 66, 85
3, 9838, Note_on_c, 1, 66, 0
3, 9838, Note_on_c, 1, 63, 0
3, 11040, Note_on_c, 1, 52, 85
3, 11098, Note_on_c, 1, 52, 0
3, 11100, Note_on_c, 1, 51, 85
3, 11130, Note_on_c, 1, 51, 0
3, 11160, Note_on_c, 1, 49, 85
3, 11190, Note_on_c, 1, 49, 0
3, 11220, Note_on_c, 1, 47, 85
3, 11250, Note_on_c, 1, 47, 0
3, 11280, Note_on_c, 1, 45, 85
3, 11338, Note_on_c, 1, 45, 0
3, 11340, Note_on_c, 1, 44, 85
3, 11370, Note_on_c, 1, 44, 0
3, 11400, Note_on_c, 1, 42, 85
3, 11430, Note_on_c, 1, 42, 0
3, 11460, Note_on_c, 1, 40, 85
3, 11490, Note_on_c, 1, 40, 0
3, 11520, Note_on_c, 1, 39, 85
3, 11758, Note_on_c, 1, 39, 0
3, 12000, Note_on_c, 1, 57, 85
3, 12060, Note_on_c, 1, 57, 0
3, 12060, Note_on_c, 1, 56, 85
3, 12090, Note_on_c, 1, 56, 0
3, 12120, Note_on_c, 1, 54, 85
3, 12150, Note_on_c, 1, 54, 0
3, 12180, Note_on_c, 1, 52, 85
3, 12210, Note_on_c, 1, 52, 0
3, 12240, Note_on_c, 1, 51, 85
3, 12300, Note_on_c, 1, 51, 0
3, 12300, Note_on_c, 1, 49, 85
3, 12330, Note_on_c, 1, 49, 0
3, 12360, Note_on_c, 1, 47, 85
3, 12390, Note_on_c, 1, 47, 0
3, 12420, Note_on_c, 1, 51, 85
3, 12450, Note_on_c, 1, 51, 0
3, 12480, Note_on_c, 1, 52, 85
3, 12718, Note_on_c, 1, 52, 0
3, 12960, Note_on_c, 1, 62, 85
3, 13020, Note_on_c, 1, 62, 0
3, 13020, Note_on_c, 1, 61, 85
3, 13050, Note_on_c, 1, 61, 0
3, 13080, Note_on_c, 1, 59, 85
3, 13110, Note_on_c, 1, 59, 0
3, 13140, Note_on_c, 1, 57, 85
3, 13170, Note_on_c, 1, 57, 0
3, 13200, Note_on_c, 1, 56, 85
3, 13258, Note_on_c, 1, 56, 0
3, 13260, Note_on_c, 1, 54, 85
3, 13290, Note_on_c, 1, 54, 0
3, 13320, Note_on_c, 1, 52, 85
3, 13350, Note_on_c, 1, 52, 0
3, 13380, Note_on_c, 1, 50, 85
3, 13410, Note_on_c, 1, 50, 0
3, 13440, Note_on_c, 1, 49, 85
3, 13498, Note_on_c, 1, 49, 0
3, 13500, Note_on_c, 1, 50, 85
3, 13558, Note_on_c, 1, 50, 0
3, 13560, Note_on_c, 1, 52, 85
3, 13618, Note_on_c, 1, 52, 0
3, 13620, Note_on_c, 1, 50, 85
3, 13678, Note_on_c, 1, 50, 0
3, 13680, Note_on_c, 1, 49, 85
3, 13738, Note_on_c, 1, 49, 0
3, 13740, Note_on_c, 1, 47, 85
3, 13764, Note_on_c, 1, 47, 0
3, 13800, Note_on_c, 1, 45, 85
3, 13824, Note_on_c, 1, 45, 0
3, 13860, Note_on_c, 1, 44, 85
3, 13884, Note_on_c, 1, 44, 0
3, 13920, Note_on_c, 1, 42, 85
3, 13978, Note_on_c, 1, 42, 0
3, 13980, Note_on_c, 1, 44, 85
3, 14038, Note_on_c, 1, 44, 0
3, 14040, Note_on_c, 1, 45, 85
3, 14098, Note_on_c, 1, 45, 0
3, 14100, Note_on_c, 1, 44, 85
3, 14158, Note_on_c, 1, 44, 0
3, 14160, Note_on_c, 1, 42, 85
3, 14218, Note_on_c, 1, 42, 0
3, 14220, Note_on_c, 1, 40, 85
3, 14244, Note_on_c, 1, 40, 0
3, 14280, Note_on_c, 1, 39, 85
3, 14304, Note_on_c, 1, 39, 0
3, 14340, Note_on_c, 1, 37, 85
3, 14364, Note_on_c, 1, 37, 0
3, 14400, Note_on_c, 1, 35, 85
3, 14638, Note_on_c, 1, 35, 0
3, 14760, Note_on_c, 1, 39, 85
3, 14878, Note_on_c, 1, 39, 0
3, 14880, Note_on_c, 1, 40, 85
3, 14940, Note_on_c, 1, 40, 0
3, 15000, Note_on_c, 1, 44, 85
3, 15060, Note_on_c, 1, 44, 0
3, 15120, Note_on_c, 1, 45, 85
3, 15180, Note_on_c, 1, 45, 0
3, 15240, Note_on_c, 1, 46, 85
3, 15300, Note_on_c, 1, 46, 0
3, 15360, Note_on_c, 1, 47, 85
3, 15598, Note_on_c, 1, 47, 0
3, 15960, Note_on_c, 1, 64, 64
3, 15960, Note_on_c, 1, 68, 64
3, 16080, Note_on_c, 1, 68, 0
3, 16080, Note_on_c, 1, 64, 0
3, 16080, Note_on_c, 1, 63, 64
3, 16080, Note_on_c, 1, 66, 64
3, 16200, Note_on_c, 1, 66, 0
3, 16200, Note_on_c, 1, 63, 0
3, 16200, Note_on_c, 1, 64, 64
3, 16200, Note_on_c, 1, 68, 64
3, 16320, Note_on_c, 1, 68, 0
3, 16320, Note_on_c, 1, 64, 0
3, 16320, Note_on_c, 1, 66, 64
3, 16320, Note_on_c, 1, 69, 64
3, 16558, Note_on_c, 1, 69, 0
3, 16558, Note_on_c, 1, 66, 0
3, 16920, Note_on_c, 1, 69, 64
3, 16920, Note_on_c, 1, 66, 64
3, 17040, Note_on_c, 1, 66, 0
3, 17040, Note_on_c, 1, 69, 0
3, 17040, Note_on_c, 1, 64, 64
3, 17040, Note_on_c, 1, 68, 64
3, 17160, Note_on_c, 1, 68, 0
3, 17160, Note_on_c, 1, 64, 0
3, 17160, Note_on_c, 1, 66, 64
3, 17160, Note_on_c, 1, 69, 64
3, 17280, Note_on_c, 1, 69, 0
3, 17280, Note_on_c, 1, 66, 0
3, 17280, Note_on_c, 1, 68, 64
3, 17280, Note_on_c, 1, 71, 64
3, 17518, Note_on_c, 1, 71, 0
3, 17518, Note_on_c, 1, 68, 0
3, 17880, Note_on_c, 1, 68, 77
3, 17880, Note_on_c, 1, 71, 77
3, 17998, Note_on_c, 1, 71, 0
3, 17998, Note_on_c, 1, 68, 0
3, 18000, Note_on_c, 1, 68, 80
3, 18000, Note_on_c, 1, 71, 80
3, 18118, Note_on_c, 1, 71, 0
3, 18118, Note_on_c, 1, 68, 0
3, 18120, Note_on_c, 1, 68, 82
3, 18120, Note_on_c, 1, 71, 82
3, 18238, Note_on_c, 1, 71, 0
3, 18238, Note_on_c, 1, 68, 0
3, 18240, Note_on_c, 1, 68, 96
3, 18240, Note_on_c, 1, 71, 96
3, 18478, Note_on_c, 1, 71, 0
3, 18478, Note_on_c, 1, 68, 0
3, 18480, Note_on_c, 1, 66, 74
3, 18480, Note_on_c, 1, 69, 74
3, 18516, Note_on_c, 1, 69, 0
3, 18516, Note_on_c, 1, 66, 0
3, 18600, Note_on_c, 1, 65, 74
3, 18600, Note_on_c, 1, 71, 74
3, 18636, Note_on_c, 1, 71, 0
3, 18636, Note_on_c, 1, 65, 0
3, 18720, Note_on_c, 1, 65, 96
3, 18720, Note_on_c, 1, 71, 96
3, 18958, Note_on_c, 1, 71, 0
3, 18958, Note_on_c, 1, 65, 0
3, 18960, Note_on_c, 1, 66, 74
3, 18960, Note_on_c, 1, 69, 74
3, 19008, Note_on_c, 1, 69, 0
3, 19008, Note_on_c, 1, 66, 0
3, 19080, Note_on_c, 1, 66, 74
3, 19080, Note_on_c, 1, 69, 74
3, 19128, Note_on_c, 1, 69, 0
3, 19128, Note_on_c, 1, 66, 0
3, 19200, Note_on_c, 1, 66, 96
3, 19200, Note_on_c, 1, 69, 96
3, 19438, Note_on_c, 1, 69, 0
3, 19438, Note_on_c, 1, 66, 0
3, 19440, Note_on_c, 1, 64, 74
3, 19440, Note_on_c, 1, 68, 74
3, 19512, Note_on_c, 1, 68, 0
3, 19512, Note_on_c, 1, 64, 0
3, 19560, Note_on_c, 1, 63, 74
3, 19560, Note_on_c, 1, 69, 74
3, 19632, Note_on_c, 1, 69, 0
3, 19632, Note_on_c, 1, 63, 0
3, 19680, Note_on_c, 1, 63, 96
3, 19680, Note_on_c, 1, 69, 96
3, 19918, Note_on_c, 1, 69, 0
3, 19918, Note_on_c, 1, 63, 0
3, 19920, Note_on_c, 1, 64, 85
3, 19920, Note_on_c, 1, 68, 85
3, 20016, Note_on_c, 1, 68, 0
3, 20016, Note_on_c, 1, 64, 0
3, 20040, Note_on_c, 1, 56, 85
3, 20040, Note_on_c, 1, 64, 85
3, 20136, Note_on_c, 1, 64, 0
3, 20136, Note_on_c, 1, 56, 0
3, 20160, Note_on_c, 1, 64, 85
3, 20160, Note_on_c, 1, 56, 85
3, 20400, Note_on_c, 1, 56, 0
3, 20400, Note_on_c, 1, 55, 85
3, 20520, Note_on_c, 1, 55, 0
3, 20520, Note_on_c, 1, 56, 85
3, 20640, Note_on_c, 1, 56, 0
3, 20640, Note_on_c, 1, 64, 0
3, 20640, Note_on_c, 1, 57, 85
3, 20640, Note_on_c, 1, 64, 85
3, 21000, Note_on_c, 1, 64, 0
3, 21000, Note_on_c, 1, 57, 0
3, 21000, Note_on_c, 1, 56, 85
3, 21120, Note_on_c, 1, 56, 0
3, 21120, Note_on_c, 1, 54, 85
3, 21120, Note_on_c, 1, 63, 85
3, 21238, Note_on_c, 1, 63, 0
3, 21238, Note_on_c, 1, 54, 0
3, 21360, Note_on_c, 1, 52, 80
3, 21360, Note_on_c, 1, 64, 80
3, 21478, Note_on_c, 1, 64, 0
3, 21478, Note_on_c, 1, 52, 0
3, 21600, Note_on_c, 1, 57, 74
3, 21600, Note_on_c, 1, 61, 74
3, 21718, Note_on_c, 1, 61, 0
3, 21718, Note_on_c, 1, 57, 0
3, 21960, Note_on_c, 1, 59, 67
3, 21960, Note_on_c, 1, 69, 67
3, 22078, Note_on_c, 1, 69, 0
3, 22078, Note_on_c, 1, 59, 0
3, 22080, Note_on_c, 1, 61, 64
3, 22080, Note_on_c, 1, 69, 64
3, 22558, Note_on_c, 1, 69, 0
3, 22560, Note_on_c, 1, 68, 64
3, 22800, Note_on_c, 1, 68, 0
3, 23038, Note_on_c, 1, 61, 0
3, 23040, Note_on_c, 1, 61, 85
3, 23040, Note_on_c, 1, 64, 85
3, 23040, Note_on_c, 1, 67, 85
3, 23278, Note_on_c, 1, 67, 0
3, 23278, Note_on_c, 1, 64, 0
3, 23278, Note_on_c, 1, 61, 0
3, 24000, Note_on_c, 1, 34, 96
3, 24000, Note_on_c, 1, 46, 96
3, 24478, Note_on_c, 1, 46, 0
3, 24478, Note_on_c, 1, 34, 0
3, 24480, Note_on_c, 1, 33, 85
3, 24480, Note_on_c, 1, 45, 85
3, 24958, Note_on_c, 1, 45, 0
3, 24958, Note_on_c, 1, 33, 0
3, 24960, Note_on_c, 1, 32, 85
3, 24960, Note_on_c, 1, 44, 85
3, 25198, Note_on_c, 1, 44, 0
3, 25198, Note_on_c, 1, 32, 0
3, 25440, Note_on_c, 1, 33, 85
3, 25440, Note_on_c, 1, 45, 85
3, 25678, Note_on_c, 1, 45, 0
3, 25678, Note_on_c, 1, 33, 0
3, 25920, Note_on_c, 1, 47, 85
3, 25920, Note_on_c, 1, 52, 85
3, 26158, Note_on_c, 1, 52, 0
3, 26158, Note_on_c, 1, 47, 0
3, 26160, Note_on_c, 1, 47, 85
3, 26160, Note_on_c, 1, 51, 85
3, 26398, Note_on_c, 1, 51, 0
3, 26398, Note_on_c, 1, 47, 0
3, 26400, Note_on_c, 1, 40, 85
3, 26458, Note_on_c, 1, 40, 0
3, 26460, Note_on_c, 1, 52, 85
3, 26518, Note_on_c, 1, 52, 0
3, 26520, Note_on_c, 1, 44, 85
3, 26578, Note_on_c, 1, 44, 0
3, 26580, Note_on_c, 1, 56, 85
3, 26638, Note_on_c, 1, 56, 0
3, 26880, Note_on_c, 1, 45, 85
3, 26938, Note_on_c, 1, 45, 0
3, 26940, Note_on_c, 1, 57, 85
3, 26998, Note_on_c, 1, 57, 0
3, 27000, Note_on_c, 1, 49, 85
3, 27058, Note_on_c, 1, 49, 0
3, 27060, Note_on_c, 1, 61, 85
3, 27118, Note_on_c, 1, 61, 0
3, 27840, Note_on_c, 1, 59, 85
3, 27840, Note_on_c, 1, 63, 85
3, 27840, Note_on_c, 1, 66, 85
3, 27840, Note_on_c, 1, 69, 85
3, 28078, Note_on_c, 1, 69, 0
3, 28078, Note_on_c, 1, 59, 0
3, 28078, Note_on_c, 1, 63, 0
3, 28078, Note_on_c, 1, 66, 0
3, 28080, Note_on_c, 1, 61, 85
3, 28080, Note_on_c, 1, 64, 85
3, 28080, Note_on_c, 1, 68, 85
3, 28318, Note_on_c, 1, 68, 0
3, 28318, Note_on_c, 1, 64, 0
3, 28318, Note_on_c, 1, 61, 0
3, 28320, Note_on_c, 1, 57, 85
3, 28320, Note_on_c, 1, 61, 85
3, 28320, Note_on_c, 1, 66, 85
3, 28558, Note_on_c, 1, 66, 0
3, 28558, Note_on_c, 1, 61, 0
3, 28558, Note_on_c, 1, 57, 0
3, 28680, Note_on_c, 1, 59, 85
3, 28680, Note_on_c, 1, 69, 85
3, 28798, Note_on_c, 1, 69, 0
3, 28798, Note_on_c, 1, 59, 0
3, 28800, Note_on_c, 1, 64, 85
3, 28800, Note_on_c, 1, 68, 85
3, 29038, Note_on_c, 1, 68, 0
3, 29038, Note_on_c, 1, 64, 0
3, 29160, Note_on_c, 1, 59, 85
3, 29160, Note_on_c, 1, 69, 85
3, 29278, Note_on_c, 1, 69, 0
3, 29278, Note_on_c, 1, 59, 0
3, 29280, Note_on_c, 1, 64, 85
3, 29280, Note_on_c, 1, 68, 85
3, 29518, Note_on_c, 1, 68, 0
3, 29518, Note_on_c, 1, 64, 0
3, 29640, Note_on_c, 1, 59, 64
3, 29640, Note_on_c, 1, 69, 64
3, 29758, Note_on_c, 1, 69, 0
3, 29758, Note_on_c, 1, 59, 0
3, 29760, Note_on_c, 1, 64, 64
3, 29760, Note_on_c, 1, 68, 64
3, 29998, Note_on_c, 1, 68, 0
3, 29998, Note_on_c, 1, 64, 0
3, 30120, Note_on_c, 1, 59, 58
3, 30120, Note_on_c, 1, 69, 58
3, 30238, Note_on_c, 1, 69, 0
3, 30238, Note_on_c, 1, 59, 0
3, 30240, Note_on_c, 1, 64, 56
3, 30240, Note_on_c, 1, 68, 56
3, 30478, Note_on_c, 1, 68, 0
3, 30478, Note_on_c, 1, 64, 0
3, 30600, Note_on_c, 1, 59, 50
3, 30600, Note_on_c, 1, 69, 50
3, 30718, Note_on_c, 1, 69, 0
3, 30718, Note_on_c, 1, 59, 0
3, 30720, Note_on_c, 1, 64, 48
3, 30720, Note_on_c, 1, 68, 48
3, 30840, Note_on_c, 1, 68, 0
3, 30840, Note_on_c, 1, 64, 0
3, 30960, Note_on_c, 1, 59, 41
3, 31080, Note_on_c, 1, 59, 0
3, 31200, Note_on_c, 1, 52, 34
3, 31438, Note_on_c, 1, 52, 0
3, 32160, Note_on_c, 1, 64, 85
3, 32220, Note_on_c, 1, 64, 0
3, 32220, Note_on_c, 1, 63, 85
3, 32250, Note_on_c, 1, 63, 0
3, 32280, Note_on_c, 1, 61, 85
3, 32310, Note_on_c, 1, 61, 0
3, 32340, Note_on_c, 1, 59, 85
3, 32370, Note_on_c, 1, 59, 0
3, 32400, Note_on_c, 1, 57, 85
3, 32460, Note_on_c, 1, 57, 0
3, 32460, Note_on_c, 1, 56, 85
3, 32490, Note_on_c, 1, 56, 0
3, 32520, Note_on_c, 1, 54, 85
3, 32550, Note_on_c, 1, 54, 0
3, 32580, Note_on_c, 1, 52, 85
3, 32610, Note_on_c, 1, 52, 0
3, 32640, Note_on_c, 1, 51, 85
3, 32878, Note_on_c, 1, 51, 0
3, 33120, Note_on_c, 1, 69, 85
3, 33180, Note_on_c, 1, 69, 0
3, 33180, Note_on_c, 1, 68, 85
3, 33210, Note_on_c, 1, 68, 0
3, 33240, Note_on_c, 1, 66, 85
3, 33270, Note_on_c, 1, 66, 0
3, 33300, Note_on_c, 1, 64, 85
3, 33330, Note_on_c, 1, 64, 0
3, 33360, Note_on_c, 1, 63, 85
3, 33420, Note_on_c, 1, 63, 0
3, 33420, Note_on_c, 1, 61, 85
3, 33450, Note_on_c, 1, 61, 0
3, 33480, Note_on_c, 1, 59, 85
3, 33510, Note_on_c, 1, 59, 0
3, 33540, Note_on_c, 1, 63, 85
3, 33570, Note_on_c, 1, 63, 0
3, 33600, Note_on_c, 1, 64, 85
3, 33958, Note_on_c, 1, 64, 0
3, 33960, Note_on_c, 1, 62, 85
3, 34078, Note_on_c, 1, 62, 0
3, 34080, Note_on_c, 1, 61, 85
3, 34318, Note_on_c, 1, 61, 0
3, 34320, Note_on_c, 1, 65, 85
3, 34558, Note_on_c, 1, 65, 0
3, 34560, Note_on_c, 1, 66, 85
3, 34632, Note_on_c, 1, 66, 0
3, 34650, Note_on_c, 1, 68, 85
3, 34680, Note_on_c, 1, 68, 0
3, 34680, Note_on_c, 1, 66, 85
3, 34710, Note_on_c, 1, 66, 0
3, 34710, Note_on_c, 1, 65, 85
3, 34740, Note_on_c, 1, 65, 0
3, 34740, Note_on_c, 1, 66, 85
3, 34770, Note_on_c, 1, 66, 0
3, 34770, Note_on_c, 1, 68, 85
3, 34800, Note_on_c, 1, 68, 0
3, 34800, Note_on_c, 1, 69, 85
3, 34920, Note_on_c, 1, 69, 0
3, 34920, Note_on_c, 1, 68, 85
3, 34980, Note_on_c, 1, 68, 0
3, 35040, Note_on_c, 1, 66, 85
3, 35100, Note_on_c, 1, 66, 0
3, 35160, Note_on_c, 1, 61, 85
3, 35220, Note_on_c, 1, 61, 0
3, 35280, Note_on_c, 1, 66, 85
3, 35340, Note_on_c, 1, 66, 0
3, 35400, Note_on_c, 1, 69, 85
3, 35460, Note_on_c, 1, 69, 0
3, 35520, Note_on_c, 1, 66, 85
3, 35758, Note_on_c, 1, 66, 0
3, 36120, Note_on_c, 1, 66, 64
3, 36120, Note_on_c, 1, 69, 64
3, 36240, Note_on_c, 1, 69, 0
3, 36240, Note_on_c, 1, 66, 0
3, 36240, Note_on_c, 1, 65, 64
3, 36240, Note_on_c, 1, 68, 64
3, 36360, Note_on_c, 1, 68, 0
3, 36360, Note_on_c, 1, 65, 0
3, 36360, Note_on_c, 1, 66, 64
3, 36360, Note_on_c, 1, 69, 64
3, 36480, Note_on_c, 1, 69, 0
3, 36480, Note_on_c, 1, 66, 0
3, 36480, Note_on_c, 1, 68, 64
3, 36480, Note_on_c, 1, 71, 64
3, 36718, Note_on_c, 1, 71, 0
3, 36718, Note_on_c, 1, 68, 0
3, 37080, Note_on_c, 1, 68, 64
3, 37080, Note_on_c, 1, 71, 64
3, 37200, Note_on_c, 1, 71, 0
3, 37200, Note_on_c, 1, 68, 0
3, 37200, Note_on_c, 1, 66, 64
3, 37200, Note_on_c, 1, 69, 64
3, 37320, Note_on_c, 1, 69, 0
3, 37320, Note_on_c, 1, 66, 0
3, 37320, Note_on_c, 1, 68, 64
3, 37320, Note_on_c, 1, 71, 64
3, 37440, Note_on_c, 1, 71, 0
3, 37440, Note_on_c, 1, 68, 0
3, 37440, Note_on_c, 1, 69, 64
3, 37440, Note_on_c, 1, 73, 64
3, 37678, Note_on_c, 1, 73, 0
3, 37678, Note_on_c, 1, 69, 0
3, 38040, Note_on_c, 1, 57, 77
3, 38040, Note_on_c, 1, 61, 77
3, 38040, Note_on_c, 1, 64, 77
3, 38158, Note_on_c, 1, 64, 0
3, 38158, Note_on_c, 1, 61, 0
3, 38158, Note_on_c, 1, 57, 0
3, 38160, Note_on_c, 1, 57, 80
3, 38160, Note_on_c, 1, 61, 80
3, 38160, Note_on_c, 1, 64, 80
3, 38278, Note_on_c, 1, 64, 0
3, 38278, Note_on_c, 1, 61, 0
3, 38278, Note_on_c, 1, 57, 0
3, 38280, Note_on_c, 1, 57, 82
3, 38280, Note_on_c, 1, 61, 82
3, 38280, Note_on_c, 1, 64, 82
3, 38398, Note_on_c, 1, 64, 0
3, 38398, Note_on_c, 1, 61, 0
3, 38398, Note_on_c, 1, 57, 0
3, 38400, Note_on_c, 1, 57, 85
3, 38400, Note_on_c, 1, 61, 85
3, 38400, Note_on_c, 1, 64, 85
3, 38518, Note_on_c, 1, 64, 0
3, 38518, Note_on_c, 1, 61, 0
3, 38518, Note_on_c, 1, 57, 0
3, 38520, Note_on_c, 1, 61, 85
3, 38520, Note_on_c, 1, 64, 85
3, 38638, Note_on_c, 1, 64, 0
3, 38638, Note_on_c, 1, 61, 0
3, 38640, Note_on_c, 1, 61, 85
3, 38640, Note_on_c, 1, 64, 85
3, 38758, Note_on_c, 1, 64, 0
3, 38758, Note_on_c, 1, 61, 0
3, 38760, Note_on_c, 1, 61, 85
3, 38760, Note_on_c, 1, 64, 85
3, 38878, Note_on_c, 1, 64, 0
3, 38878, Note_on_c, 1, 61, 0
3, 38880, Note_on_c, 1, 61, 85
3, 38880, Note_on_c, 1, 64, 85
3, 39118, Note_on_c, 1, 64, 0
3, 39118, Note_on_c, 1, 61, 0
3, 39360, Note_on_c, 1, 61, 48
3, 39360, Note_on_c, 1, 64, 48
3, 39598, Note_on_c, 1, 64, 0
3, 39598, Note_on_c, 1, 61, 0
3, 39960, Note_on_c, 1, 57, 96
3, 39960, Note_on_c, 1, 64, 96
3, 40078, Note_on_c, 1, 64, 0
3, 40078, Note_on_c, 1, 57, 0
3, 40080, Note_on_c, 1, 57, 96
3, 40080, Note_on_c, 1, 64, 96
3, 40198, Note_on_c, 1, 64, 0
3, 40198, Note_on_c, 1, 57, 0
3, 40200, Note_on_c, 1, 57, 96
3, 40200, Note_on_c, 1, 61, 96
3, 40318, Note_on_c, 1, 61, 0
3, 40318, Note_on_c, 1, 57, 0
3, 40320, Note_on_c, 1, 56, 96
3, 40320, Note_on_c, 1, 60, 96
3, 40320, Note_on_c, 1, 63, 96
3, 40438, Note_on_c, 1, 63, 0
3, 40438, Note_on_c, 1, 60, 0
3, 40438, Note_on_c, 1, 56, 0
3, 40440, Note_on_c, 1, 56, 96
3, 40440, Note_on_c, 1, 60, 96
3, 40440, Note_on_c, 1, 63, 96
3, 40558, Note_on_c, 1, 63, 0
3, 40558, Note_on_c, 1, 60, 0
3, 40558, Note_on_c, 1, 56, 0
3, 40560, Note_on_c, 1, 56, 96
3, 40560, Note_on_c, 1, 60, 96
3, 40560, Note_on_c, 1, 63, 96
3, 40678, Note_on_c, 1, 63, 0
3, 40678, Note_on_c, 1, 60, 0
3, 40678, Note_on_c, 1, 56, 0
3, 40680, Note_on_c, 1, 56, 96
3, 40680, Note_on_c, 1, 60, 96
3, 40680, Note_on_c, 1, 63, 96
3, 40798, Note_on_c, 1, 63, 0
3, 40798, Note_on_c, 1, 60, 0
3, 40798, Note_on_c, 1, 56, 0
3, 40800, Note_on_c, 1, 56, 96
3, 40800, Note_on_c, 1, 60, 96
3, 40800, Note_on_c, 1, 63, 96
3, 41250, Note_on_c, 1, 63, 0
3, 41250, Note_on_c, 1, 60, 0
3, 41250, Note_on_c, 1, 56, 0
3, 41760, Note_on_c, 1, 32, 85
3, 41760, Note_on_c, 1, 44, 85
3, 41832, Note_on_c, 1, 44, 0
3, 41832, Note_on_c, 1, 32, 0
3, 41850, Note_on_c, 1, 46, 85
3, 41880, Note_on_c, 1, 46, 0
3, 41880, Note_on_c, 1, 44, 85
3, 41910, Note_on_c, 1, 44, 0
3, 41910, Note_on_c, 1, 43, 85
3, 41940, Note_on_c, 1, 43, 0
3, 41940, Note_on_c, 1, 44, 85
3, 41970, Note_on_c, 1, 44, 0
3, 41970, Note_on_c, 1, 46, 85
3, 42000, Note_on_c, 1, 46, 0
3, 42000, Note_on_c, 1, 47, 85
3, 42120, Note_on_c, 1, 47, 0
3, 42120, Note_on_c, 1, 46, 85
3, 42180, Note_on_c, 1, 46, 0
3, 42240, Note_on_c, 1, 44, 85
3, 42300, Note_on_c, 1, 44, 0
3, 42360, Note_on_c, 1, 39, 85
3, 42420, Note_on_c, 1, 39, 0
3, 42480, Note_on_c, 1, 44, 85
3, 42540, Note_on_c, 1, 44, 0
3, 42600, Note_on_c, 1, 47, 85
3, 42660, Note_on_c, 1, 47, 0
3, 42720, Note_on_c, 1, 44, 85
3, 42958, Note_on_c, 1, 44, 0
3, 43320, Note_on_c, 1, 59, 64
3, 43320, Note_on_c, 1, 56, 64
3, 43440, Note_on_c, 1, 56, 0
3, 43440, Note_on_c, 1, 59, 0
3, 43440, Note_on_c, 1, 58, 64
3, 43440, Note_on_c, 1, 55, 64
3, 43560, Note_on_c, 1, 55, 0
3, 43560, Note_on_c, 1, 58, 0
3, 43560, Note_on_c, 1, 56, 64
3, 43560, Note_on_c, 1, 59, 64
3, 43680, Note_on_c, 1, 59, 0
3, 43680, Note_on_c, 1, 56, 0
3, 43680, Note_on_c, 1, 58, 64
3, 43680, Note_on_c, 1, 61, 64
3, 43918, Note_on_c, 1, 61, 0
3, 43918, Note_on_c, 1, 58, 0
3, 44280, Note_on_c, 1, 58, 64
3, 44280, Note_on_c, 1, 61, 64
3, 44400, Note_on_c, 1, 61, 0
3, 44400, Note_on_c, 1, 58, 0
3, 44400, Note_on_c, 1, 56, 64
3, 44400, Note_on_c, 1, 59, 64
3, 44520, Note_on_c, 1, 59, 0
3, 44520, Note_on_c, 1, 56, 0
3, 44520, Note_on_c, 1, 58, 64
3, 44520, Note_on_c, 1, 61, 64
3, 44640, Note_on_c, 1, 61, 0
3, 44640, Note_on_c, 1, 58, 0
3, 44640, Note_on_c, 1, 59, 64
3, 44640, Note_on_c, 1, 63, 64
3, 44878, Note_on_c, 1, 63, 0
3, 44878, Note_on_c, 1, 59, 0
3, 45240, Note_on_c, 1, 47, 77
3, 45240, Note_on_c, 1, 51, 77
3, 45358, Note_on_c, 1, 51, 0
3, 45358, Note_on_c, 1, 47, 0
3, 45360, Note_on_c, 1, 47, 80
3, 45360, Note_on_c, 1, 51, 80
3, 45478, Note_on_c, 1, 51, 0
3, 45478, Note_on_c, 1, 47, 0
3, 45480, Note_on_c, 1, 47, 82
3, 45480, Note_on_c, 1, 51, 82
3, 45598, Note_on_c, 1, 51, 0
3, 45598, Note_on_c, 1, 47, 0
3, 45720, Note_on_c, 1, 49, 48
3, 45720, Note_on_c, 1, 52, 48
3, 45780, Note_on_c, 1, 52, 0
3, 45780, Note_on_c, 1, 49, 0
3, 45840, Note_on_c, 1, 49, 48
3, 45840, Note_on_c, 1, 52, 48
3, 45900, Note_on_c, 1, 52, 0
3, 45900, Note_on_c, 1, 49, 0
3, 45960, Note_on_c, 1, 49, 48
3, 45960, Note_on_c, 1, 52, 48
3, 46020, Note_on_c, 1, 52, 0
3, 46020, Note_on_c, 1, 49, 0
3, 46200, Note_on_c, 1, 51, 48
3, 46200, Note_on_c, 1, 58, 48
3, 46318, Note_on_c, 1, 58, 0
3, 46318, Note_on_c, 1, 51, 0
3, 46320, Note_on_c, 1, 51, 48
3, 46320, Note_on_c, 1, 58, 48
3, 46438, Note_on_c, 1, 58, 0
3, 46438, Note_on_c, 1, 51, 0
3, 46440, Note_on_c, 1, 51, 64
3, 46440, Note_on_c, 1, 58, 64
3, 46558, Note_on_c, 1, 58, 0
3, 46558, Note_on_c, 1, 51, 0
3, 46680, Note_on_c, 1, 44, 48
3, 46680, Note_on_c, 1, 56, 48
3, 46740, Note_on_c, 1, 56, 0
3, 46740, Note_on_c, 1, 44, 0
3, 46800, Note_on_c, 1, 44, 48
3, 46800, Note_on_c, 1, 56, 48
3, 46860, Note_on_c, 1, 56, 0
3, 46860, Note_on_c, 1, 44, 0
3, 46920, Note_on_c, 1, 44, 48
3, 46920, Note_on_c, 1, 56, 48
3, 46980, Note_on_c, 1, 56, 0
3, 46980, Note_on_c, 1, 44, 0
3, 47160, Note_on_c, 1, 49, 48
3, 47160, Note_on_c, 1, 56, 48
3, 47278, Note_on_c, 1, 56, 0
3, 47278, Note_on_c, 1, 49, 0
3, 47280, Note_on_c, 1, 49, 48
3, 47280, Note_on_c, 1, 56, 48
3, 47398, Note_on_c, 1, 56, 0
3, 47398, Note_on_c, 1, 49, 0
3, 47400, Note_on_c, 1, 49, 64
3, 47400, Note_on_c, 1, 56, 64
3, 47518, Note_on_c, 1, 56, 0
3, 47518, Note_on_c, 1, 49, 0
3, 47640, Note_on_c, 1, 42, 53
3, 47640, Note_on_c, 1, 54, 53
3, 47700, Note_on_c, 1, 54, 0
3, 47700, Note_on_c, 1, 42, 0
3, 47760, Note_on_c, 1, 42, 57
3, 47760, Note_on_c, 1, 54, 57
3, 47820, Note_on_c, 1, 54, 0
3, 47820, Note_on_c, 1, 42, 0
3, 47880, Note_on_c, 1, 42, 62
3, 47880, Note_on_c, 1, 54, 62
3, 47940, Note_on_c, 1, 54, 0
3, 47940, Note_on_c, 1, 42, 0
3, 48120, Note_on_c, 1, 47, 71
3, 48120, Note_on_c, 1, 54, 71
3, 48238, Note_on_c, 1, 54, 0
3, 48238, Note_on_c, 1, 47, 0
3, 48240, Note_on_c, 1, 47, 76
3, 48240, Note_on_c, 1, 54, 76
3, 48358, Note_on_c, 1, 54, 0
3, 48358, Note_on_c, 1, 47, 0
3, 48360, Note_on_c, 1, 47, 80
3, 48360, Note_on_c, 1, 54, 80
3, 48478, Note_on_c, 1, 54, 0
3, 48478, Note_on_c, 1, 47, 0
3, 48480, Note_on_c, 1, 40, 85
3, 48480, Note_on_c, 1, 52, 85
3, 48598, Note_on_c, 1, 52, 0
3, 48598, Note_on_c, 1, 40, 0
3, 48600, Note_on_c, 1, 56, 85
3, 48648, Note_on_c, 1, 56, 0
3, 48720, Note_on_c, 1, 59, 85
3, 48768, Note_on_c, 1, 59, 0
3, 48840, Note_on_c, 1, 56, 85
3, 48888, Note_on_c, 1, 56, 0
3, 48960, Note_on_c, 1, 52, 85
3, 49198, Note_on_c, 1, 52, 0
3, 49440, Note_on_c, 1, 41, 85
3, 49440, Note_on_c, 1, 53, 85
3, 49558, Note_on_c, 1, 53, 0
3, 49558, Note_on_c, 1, 41, 0
3, 49560, Note_on_c, 1, 56, 85
3, 49678, Note_on_c, 1, 56, 0
3, 49680, Note_on_c, 1, 59, 85
3, 49798, Note_on_c, 1, 59, 0
3, 49800, Note_on_c, 1, 56, 85
3, 49918, Note_on_c, 1, 56, 0
3, 49920, Note_on_c, 1, 53, 85
3, 50158, Note_on_c, 1, 53, 0
3, 50400, Note_on_c, 1, 42, 85
3, 50400, Note_on_c, 1, 54, 85
3, 50518, Note_on_c, 1, 54, 0
3, 50518, Note_on_c, 1, 42, 0
3, 50520, Note_on_c, 1, 57, 85
3, 50568, Note_on_c, 1, 57, 0
3, 50640, Note_on_c, 1, 61, 85
3, 50688, Note_on_c, 1, 61, 0
3, 50760, Note_on_c, 1, 57, 85
3, 50808, Note_on_c, 1, 57, 0
3, 50880, Note_on_c, 1, 54, 85
3, 51118, Note_on_c, 1, 54, 0
3, 51360, Note_on_c, 1, 43, 85
3, 51360, Note_on_c, 1, 55, 85
3, 51478, Note_on_c, 1, 55, 0
3, 51478, Note_on_c, 1, 43, 0
3, 51480, Note_on_c, 1, 58, 85
3, 51598, Note_on_c, 1, 58, 0
3, 51600, Note_on_c, 1, 61, 85
3, 51718, Note_on_c, 1, 61, 0
3, 51720, Note_on_c, 1, 58, 85
3, 51838, Note_on_c, 1, 58, 0
3, 51840, Note_on_c, 1, 55, 85
3, 52080, Note_on_c, 1, 55, 0
3, 52320, Note_on_c, 1, 56, 50
3, 52440, Note_on_c, 1, 59, 51
3, 52488, Note_on_c, 1, 59, 0
3, 52560, Note_on_c, 1, 63, 51
3, 52608, Note_on_c, 1, 63, 0
3, 52680, Note_on_c, 1, 59, 52
3, 52728, Note_on_c, 1, 59, 0
3, 52798, Note_on_c, 1, 56, 0
3, 52800, Note_on_c, 1, 56, 53
3, 52920, Note_on_c, 1, 59, 53
3, 53040, Note_on_c, 1, 59, 0
3, 53040, Note_on_c, 1, 63, 54
3, 53160, Note_on_c, 1, 63, 0
3, 53160, Note_on_c, 1, 59, 54
3, 53278, Note_on_c, 1, 56, 0
3, 53280, Note_on_c, 1, 59, 0
3, 53280, Note_on_c, 1, 54, 55
3, 53400, Note_on_c, 1, 57, 56
3, 53448, Note_on_c, 1, 57, 0
3, 53520, Note_on_c, 1, 60, 56
3, 53568, Note_on_c, 1, 60, 0
3, 53640, Note_on_c, 1, 57, 57
3, 53688, Note_on_c, 1, 57, 0
3, 53758, Note_on_c, 1, 54, 0
3, 53760, Note_on_c, 1, 54, 58
3, 53880, Note_on_c, 1, 57, 58
3, 54000, Note_on_c, 1, 57, 0
3, 54000, Note_on_c, 1, 60, 59
3, 54120, Note_on_c, 1, 60, 0
3, 54120, Note_on_c, 1, 57, 59
3, 54238, Note_on_c, 1, 54, 0
3, 54240, Note_on_c, 1, 57, 0
3, 54240, Note_on_c, 1, 53, 60
3, 54360, Note_on_c, 1, 57, 61
3, 54408, Note_on_c, 1, 57, 0
3, 54480, Note_on_c, 1, 60, 61
3, 54528, Note_on_c, 1, 60, 0
3, 54600, Note_on_c, 1, 57, 62
3, 54648, Note_on_c, 1, 57, 0
3, 54718, Note_on_c, 1, 53, 0
3, 54720, Note_on_c, 1, 53, 63
3, 54840, Note_on_c, 1, 57, 63
3, 54960, Note_on_c, 1, 57, 0
3, 54960, Note_on_c, 1, 60, 64
3, 55080, Note_on_c, 1, 60, 0
3, 55080, Note_on_c, 1, 57, 64
3, 55198, Note_on_c, 1, 53, 0
3, 55200, Note_on_c, 1, 57, 0
3, 55200, Note_on_c, 1, 52, 65
3, 55320, Note_on_c, 1, 57, 66
3, 55368, Note_on_c, 1, 57, 0
3, 55440, Note_on_c, 1, 61, 66
3, 55488, Note_on_c, 1, 61, 0
3, 55560, Note_on_c, 1, 57, 67
3, 55608, Note_on_c, 1, 57, 0
3, 55678, Note_on_c, 1, 52, 0
3, 55680, Note_on_c, 1, 52, 68
3, 55800, Note_on_c, 1, 57, 68
3, 55920, Note_on_c, 1, 57, 0
3, 55920, Note_on_c, 1, 61, 69
3, 56040, Note_on_c, 1, 61, 0
3, 56040, Note_on_c, 1, 57, 69
3, 56158, Note_on_c, 1, 52, 0
3, 56160, Note_on_c, 1, 57, 0
3, 56160, Note_on_c, 1, 51, 70
3, 56280, Note_on_c, 1, 57, 71
3, 56328, Note_on_c, 1, 57, 0
3, 56400, Note_on_c, 1, 60, 71
3, 56448, Note_on_c, 1, 60, 0
3, 56520, Note_on_c, 1, 57, 72
3, 56568, Note_on_c, 1, 57, 0
3, 56638, Note_on_c, 1, 51, 0
3, 56640, Note_on_c, 1, 51, 73
3, 56760, Note_on_c, 1, 57, 73
3, 56880, Note_on_c, 1, 57, 0
3, 56880, Note_on_c, 1, 60, 74
3, 57000, Note_on_c, 1, 60, 0
3, 57000, Note_on_c, 1, 57, 74
3, 57118, Note_on_c, 1, 51, 0
3, 57120, Note_on_c, 1, 57, 0
3, 57120, Note_on_c, 1, 52, 75
3, 57240, Note_on_c, 1, 56, 76
3, 57288, Note_on_c, 1, 56, 0
3, 57360, Note_on_c, 1, 61, 76
3, 57408, Note_on_c, 1, 61, 0
3, 57480, Note_on_c, 1, 56, 77
3, 57528, Note_on_c, 1, 56, 0
3, 57598, Note_on_c, 1, 52, 0
3, 57600, Note_on_c, 1, 52, 78
3, 57720, Note_on_c, 1, 56, 78
3, 57840, Note_on_c, 1, 56, 0
3, 57840, Note_on_c, 1, 61, 79
3, 57960, Note_on_c, 1, 61, 0
3, 57960, Note_on_c, 1, 56, 79
3, 58078, Note_on_c, 1, 52, 0
3, 58080, Note_on_c, 1, 56, 0
3, 58080, Note_on_c, 1, 48, 80
3, 58200, Note_on_c, 1, 51, 81
3, 58248, Note_on_c, 1, 51, 0
3, 58320, Note_on_c, 1, 56, 81
3, 58368, Note_on_c, 1, 56, 0
3, 58440, Note_on_c, 1, 51, 82
3, 58488, Note_on_c, 1, 51, 0
3, 58558, Note_on_c, 1, 48, 0
3, 58560, Note_on_c, 1, 49, 83
3, 58680, Note_on_c, 1, 52, 83
3, 58800, Note_on_c, 1, 52, 0
3, 58800, Note_on_c, 1, 56, 84
3, 58920, Note_on_c, 1, 56, 0
3, 58920, Note_on_c, 1, 52, 84
3, 59038, Note_on_c, 1, 49, 0
3, 59040, Note_on_c, 1, 52, 0
3, 59040, Note_on_c, 1, 56, 85
3, 59040, Note_on_c, 1, 60, 85
3, 59158, Note_on_c, 1, 60, 0
3, 59158, Note_on_c, 1, 56, 0
3, 59160, Note_on_c, 1, 56, 85
3, 59160, Note_on_c, 1, 60, 85
3, 59278, Note_on_c, 1, 60, 0
3, 59278, Note_on_c, 1, 56, 0
3, 59280, Note_on_c, 1, 56, 85
3, 59280, Note_on_c, 1, 64, 85
3, 59328, Note_on_c, 1, 64, 0
3, 59328, Note_on_c, 1, 56, 0
3, 59400, Note_on_c, 1, 56, 85
3, 59400, Note_on_c, 1, 64, 85
3, 59448, Note_on_c, 1, 64, 0
3, 59448, Note_on_c, 1, 56, 0
3, 59520, Note_on_c, 1, 56, 85
3, 59520, Note_on_c, 1, 63, 85
3, 59568, Note_on_c, 1, 63, 0
3, 59568, Note_on_c, 1, 56, 0
3, 59640, Note_on_c, 1, 56, 85
3, 59640, Note_on_c, 1, 63, 85
3, 59688, Note_on_c, 1, 63, 0
3, 59688, Note_on_c, 1, 56, 0
3, 59760, Note_on_c, 1, 56, 85
3, 59760, Note_on_c, 1, 61, 85
3, 59808, Note_on_c, 1, 61, 0
3, 59808, Note_on_c, 1, 56, 0
3, 59880, Note_on_c, 1, 56, 85
3, 59880, Note_on_c, 1, 61, 85
3, 59928, Note_on_c, 1, 61, 0
3, 59928, Note_on_c, 1, 56, 0
3, 60000, Note_on_c, 1, 56, 85
3, 60000, Note_on_c, 1, 60, 85
3, 60118, Note_on_c, 1, 60, 0
3, 60118, Note_on_c, 1, 56, 0
3, 60120, Note_on_c, 1, 56, 85
3, 60120, Note_on_c, 1, 60, 85
3, 60238, Note_on_c, 1, 60, 0
3, 60238, Note_on_c, 1, 56, 0
3, 60240, Note_on_c, 1, 56, 85
3, 60240, Note_on_c, 1, 64, 85
3, 60288, Note_on_c, 1, 64, 0
3, 60288, Note_on_c, 1, 56, 0
3, 60360, Note_on_c, 1, 56, 85
3, 60360, Note_on_c, 1, 64, 85
3, 60408, Note_on_c, 1, 64, 0
3, 60408, Note_on_c, 1, 56, 0
3, 60480, Note_on_c, 1, 56, 85
3, 60480, Note_on_c, 1, 63, 85
3, 60528, Note_on_c, 1, 63, 0
3, 60528, Note_on_c, 1, 56, 0
3, 60600, Note_on_c, 1, 56, 85
3, 60600, Note_on_c, 1, 63, 85
3, 60648, Note_on_c, 1, 63, 0
3, 60648, Note_on_c, 1, 56, 0
3, 60720, Note_on_c, 1, 56, 85
3, 60720, Note_on_c, 1, 61, 85
3, 60768, Note_on_c, 1, 61, 0
3, 60768, Note_on_c, 1, 56, 0
3, 60840, Note_on_c, 1, 56, 85
3, 60840, Note_on_c, 1, 61, 85
3, 60888, Note_on_c, 1, 61, 0
3, 60888, Note_on_c, 1, 56, 0
3, 60960, Note_on_c, 1, 56, 96
3, 60960, Note_on_c, 1, 60, 96
3, 61104, Note_on_c, 1, 60, 0
3, 61104, Note_on_c, 1, 56, 0
3, 61200, Note_on_c, 1, 44, 85
3, 61200, Note_on_c, 1, 56, 85
3, 61378, Note_on_c, 1, 56, 0
3, 61378, Note_on_c, 1, 44, 0
3, 61380, Note_on_c, 1, 44, 85
3, 61380, Note_on_c, 1, 56, 85
3, 61438, Note_on_c, 1, 56, 0
3, 61438, Note_on_c, 1, 44, 0
3, 61440, Note_on_c, 1, 44, 85
3, 61440, Note_on_c, 1, 56, 85
3, 61678, Note_on_c, 1, 56, 0
3, 61678, Note_on_c, 1, 44, 0
3, 61920, Note_on_c, 1, 37, 85
3, 61920, Note_on_c, 1, 49, 85
3, 61992, Note_on_c, 1, 49, 0
3, 61992, Note_on_c, 1, 37, 0
3, 62010, Note_on_c, 1, 51, 85
3, 62040, Note_on_c, 1, 51, 0
3, 62040, Note_on_c, 1, 49, 85
3, 62070, Note_on_c, 1, 49, 0
3, 62070, Note_on_c, 1, 48, 85
3, 62100, Note_on_c, 1, 48, 0
3, 62100, Note_on_c, 1, 49, 85
3, 62130, Note_on_c, 1, 49, 0
3, 62130, Note_on_c, 1, 51, 85
3, 62160, Note_on_c, 1, 51, 0
3, 62160, Note_on_c, 1, 52, 85
3, 62280, Note_on_c, 1, 52, 0
3, 62280, Note_on_c, 1, 51, 85
3, 62340, Note_on_c, 1, 51, 0
3, 62400, Note_on_c, 1, 49, 85
3, 62460, Note_on_c, 1, 49, 0
3, 62520, Note_on_c, 1, 44, 85
3, 62580, Note_on_c, 1, 44, 0
3, 62640, Note_on_c, 1, 49, 85
3, 62700, Note_on_c, 1, 49, 0
3, 62760, Note_on_c, 1, 52, 85
3, 62820, Note_on_c, 1, 52, 0
3, 62880, Note_on_c, 1, 49, 85
3, 63118, Note_on_c, 1, 49, 0
3, 63480, Note_on_c, 1, 61, 64
3, 63480, Note_on_c, 1, 64, 64
3, 63600, Note_on_c, 1, 64, 0
3, 63600, Note_on_c, 1, 61, 0
3, 63600, Note_on_c, 1, 60, 64
3, 63600, Note_on_c, 1, 63, 64
3, 63720, Note_on_c, 1, 63, 0
3, 63720, Note_on_c, 1, 60, 0
3, 63720, Note_on_c, 1, 61, 64
3, 63720, Note_on_c, 1, 64, 64
3, 63840, Note_on_c, 1, 64, 0
3, 63840, Note_on_c, 1, 61, 0
3, 63840, Note_on_c, 1, 63, 64
3, 63840, Note_on_c, 1, 66, 64
3, 64078, Note_on_c, 1, 66, 0
3, 64078, Note_on_c, 1, 63, 0
3, 64440, Note_on_c, 1, 63, 64
3, 64440, Note_on_c, 1, 66, 64
3, 64560, Note_on_c, 1, 66, 0
3, 64560, Note_on_c, 1, 63, 0
3, 64560, Note_on_c, 1, 61, 64
3, 64560, Note_on_c, 1, 64, 64
3, 64680, Note_on_c, 1, 64, 0
3, 64680, Note_on_c, 1, 61, 0
3, 64680, Note_on_c, 1, 63, 64
3, 64680, Note_on_c, 1, 66, 64
3, 64800, Note_on_c, 1, 66, 0
3, 64800, Note_on_c, 1, 63, 0
3, 64800, Note_on_c, 1, 64, 64
3, 64800, Note_on_c, 1, 68, 64
3, 65038, Note_on_c, 1, 68, 0
3, 65038, Note_on_c, 1, 64, 0
3, 65400, Note_on_c, 1, 66, 68
3, 65400, Note_on_c, 1, 69, 68
3, 65520, Note_on_c, 1, 69, 0
3, 65520, Note_on_c, 1, 66, 0
3, 65520, Note_on_c, 1, 64, 69
3, 65520, Note_on_c, 1, 68, 69
3, 65640, Note_on_c, 1, 68, 0
3, 65640, Note_on_c, 1, 64, 0
3, 65640, Note_on_c, 1, 66, 70
3, 65640, Note_on_c, 1, 69, 70
3, 65760, Note_on_c, 1, 69, 0
3, 65760, Note_on_c, 1, 66, 0
3, 65760, Note_on_c, 1, 68, 71
3, 65760, Note_on_c, 1, 71, 71
3, 65998, Note_on_c, 1, 71, 0
3, 65998, Note_on_c, 1, 68, 0
3, 66360, Note_on_c, 1, 69, 77
3, 66360, Note_on_c, 1, 73, 77
3, 66478, Note_on_c, 1, 73, 0
3, 66478, Note_on_c, 1, 69, 0
3, 66480, Note_on_c, 1, 68, 78
3, 66480, Note_on_c, 1, 71, 78
3, 66598, Note_on_c, 1, 71, 0
3, 66598, Note_on_c, 1, 68, 0
3, 66600, Note_on_c, 1, 69, 79
3, 66600, Note_on_c, 1, 73, 79
3, 66718, Note_on_c, 1, 73, 0
3, 66718, Note_on_c, 1, 69, 0
3, 66720, Note_on_c, 1, 66, 80
3, 66720, Note_on_c, 1, 69, 80
3, 66958, Note_on_c, 1, 69, 0
3, 66958, Note_on_c, 1, 66, 0
3, 67320, Note_on_c, 1, 73, 74
3, 67438, Note_on_c, 1, 73, 0
3, 67440, Note_on_c, 1, 71, 73
3, 67558, Note_on_c, 1, 71, 0
3, 67560, Note_on_c, 1, 73, 72
3, 67678, Note_on_c, 1, 73, 0
3, 67680, Note_on_c, 1, 69, 71
3, 67798, Note_on_c, 1, 69, 0
3, 67800, Note_on_c, 1, 69, 70
3, 67800, Note_on_c, 1, 73, 70
3, 67918, Note_on_c, 1, 73, 0
3, 67918, Note_on_c, 1, 69, 0
3, 67920, Note_on_c, 1, 68, 69
3, 67920, Note_on_c, 1, 71, 69
3, 68038, Note_on_c, 1, 71, 0
3, 68038, Note_on_c, 1, 68, 0
3, 68040, Note_on_c, 1, 69, 68
3, 68040, Note_on_c, 1, 73, 68
3, 68158, Note_on_c, 1, 73, 0
3, 68158, Note_on_c, 1, 69, 0
3, 68160, Note_on_c, 1, 66, 67
3, 68160, Note_on_c, 1, 69, 67
3, 68398, Note_on_c, 1, 69, 0
3, 68398, Note_on_c, 1, 66, 0
3, 68400, Note_on_c, 1, 54, 72
3, 68400, Note_on_c, 1, 57, 72
3, 68638, Note_on_c, 1, 57, 0
3, 68638, Note_on_c, 1, 54, 0
3, 68640, Note_on_c, 1, 56, 85
3, 68760, Note_on_c, 1, 64, 80
3, 68878, Note_on_c, 1, 64, 0
3, 68880, Note_on_c, 1, 63, 76
3, 68998, Note_on_c, 1, 63, 0
3, 69000, Note_on_c, 1, 66, 71
3, 69024, Note_on_c, 1, 56, 0
3, 69118, Note_on_c, 1, 66, 0
3, 69120, Note_on_c, 1, 61, 66
3, 69120, Note_on_c, 1, 64, 66
3, 69358, Note_on_c, 1, 64, 0
3, 69358, Note_on_c, 1, 61, 0
3, 69480, Note_on_c, 1, 36, 85
3, 69480, Note_on_c, 1, 48, 85
3, 69598, Note_on_c, 1, 48, 0
3, 69598, Note_on_c, 1, 36, 0
3, 69600, Note_on_c, 1, 37, 85
3, 69600, Note_on_c, 1, 49, 85
3, 69838, Note_on_c, 1, 49, 0
3, 69838, Note_on_c, 1, 37, 0
3, 69960, Note_on_c, 1, 43, 85
3, 69960, Note_on_c, 1, 55, 85
3, 70078, Note_on_c, 1, 55, 0
3, 70078, Note_on_c, 1, 43, 0
3, 70080, Note_on_c, 1, 44, 85
3, 70080, Note_on_c, 1, 56, 85
3, 70318, Note_on_c, 1, 56, 0
3, 70318, Note_on_c, 1, 44, 0
3, 70440, Note_on_c, 1, 48, 85
3, 70440, Note_on_c, 1, 60, 85
3, 70558, Note_on_c, 1, 60, 0
3, 70558, Note_on_c, 1, 48, 0
3, 70560, Note_on_c, 1, 49, 85
3, 70560, Note_on_c, 1, 61, 85
3, 70798, Note_on_c, 1, 61, 0
3, 70798, Note_on_c, 1, 49, 0
3, 70920, Note_on_c, 1, 64, 85
3, 71038, Note_on_c, 1, 64, 0
3, 71040, Note_on_c, 1, 66, 85
3, 71158, Note_on_c, 1, 66, 0
3, 71160, Note_on_c, 1, 68, 85
3, 71278, Note_on_c, 1, 68, 0
3, 71280, Note_on_c, 1, 69, 85
3, 71398, Note_on_c, 1, 69, 0
3, 71400, Note_on_c, 1, 68, 85
3, 71518, Note_on_c, 1, 68, 0
3, 71520, Note_on_c, 1, 66, 85
3, 71638, Note_on_c, 1, 66, 0
3, 71640, Note_on_c, 1, 66, 85
3, 71758, Note_on_c, 1, 66, 0
3, 71760, Note_on_c, 1, 68, 85
3, 71878, Note_on_c, 1, 68, 0
3, 71880, Note_on_c, 1, 68, 85
3, 71998, Note_on_c, 1, 68, 0
3, 72000, Note_on_c, 1, 69, 85
3, 72118, Note_on_c, 1, 69, 0
3, 72120, Note_on_c, 1, 69, 85
3, 72238, Note_on_c, 1, 69, 0
3, 72240, Note_on_c, 1, 68, 85
3, 72358, Note_on_c, 1, 68, 0
3, 72360, Note_on_c, 1, 68, 85
3, 72478, Note_on_c, 1, 68, 0
3, 72480, Note_on_c, 1, 66, 85
3, 72528, Note_on_c, 1, 66, 0
3, 72600, Note_on_c, 1, 66, 85
3, 72718, Note_on_c, 1, 66, 0
3, 72720, Note_on_c, 1, 68, 85
3, 72768, Note_on_c, 1, 68, 0
3, 72840, Note_on_c, 1, 68, 85
3, 72958, Note_on_c, 1, 68, 0
3, 72960, Note_on_c, 1, 69, 85
3, 73008, Note_on_c, 1, 69, 0
3, 73080, Note_on_c, 1, 69, 85
3, 73198, Note_on_c, 1, 69, 0
3, 73200, Note_on_c, 1, 68, 85
3, 73248, Note_on_c, 1, 68, 0
3, 73320, Note_on_c, 1, 68, 85
3, 73368, Note_on_c, 1, 68, 0
3, 73440, Note_on_c, 1, 67, 85
3, 73560, Note_on_c, 1, 67, 0
3, 73560, Note_on_c, 1, 67, 85
3, 73680, Note_on_c, 1, 67, 0
3, 73680, Note_on_c, 1, 67, 85
3, 73800, Note_on_c, 1, 67, 0
3, 73800, Note_on_c, 1, 67, 85
3, 73920, Note_on_c, 1, 67, 0
3, 73920, Note_on_c, 1, 68, 85
3, 74160, Note_on_c, 1, 68, 0
3, 74520, Note_on_c, 1, 61, 64
3, 74520, Note_on_c, 1, 64, 64
3, 74640, Note_on_c, 1, 64, 0
3, 74640, Note_on_c, 1, 61, 0
3, 74640, Note_on_c, 1, 60, 64
3, 74640, Note_on_c, 1, 63, 64
3, 74760, Note_on_c, 1, 63, 0
3, 74760, Note_on_c, 1, 60, 0
3, 74760, Note_on_c, 1, 61, 64
3, 74760, Note_on_c, 1, 64, 64
3, 74880, Note_on_c, 1, 64, 0
3, 74880, Note_on_c, 1, 61, 0
3, 74880, Note_on_c, 1, 63, 64
3, 74880, Note_on_c, 1, 66, 64
3, 75118, Note_on_c, 1, 66, 0
3, 75118, Note_on_c, 1, 63, 0
3, 75480, Note_on_c, 1, 63, 64
3, 75480, Note_on_c, 1, 66, 64
3, 75600, Note_on_c, 1, 66, 0
3, 75600, Note_on_c, 1, 63, 0
3, 75600, Note_on_c, 1, 61, 64
3, 75600, Note_on_c, 1, 64, 64
3, 75720, Note_on_c, 1, 64, 0
3, 75720, Note_on_c, 1, 61, 0
3, 75720, Note_on_c, 1, 63, 64
3, 75720, Note_on_c, 1, 66, 64
3, 75840, Note_on_c, 1, 66, 0
3, 75840, Note_on_c, 1, 63, 0
3, 75840, Note_on_c, 1, 64, 64
3, 75840, Note_on_c, 1, 68, 64
3, 76078, Note_on_c, 1, 68, 0
3, 76078, Note_on_c, 1, 64, 0
3, 76440, Note_on_c, 1, 65, 68
3, 76440, Note_on_c, 1, 68, 68
3, 76558, Note_on_c, 1, 68, 0
3, 76558, Note_on_c, 1, 65, 0
3, 76560, Note_on_c, 1, 65, 72
3, 76560, Note_on_c, 1, 68, 72
3, 76678, Note_on_c, 1, 68, 0
3, 76678, Note_on_c, 1, 65, 0
3, 76680, Note_on_c, 1, 65, 76
3, 76680, Note_on_c, 1, 68, 76
3, 76798, Note_on_c, 1, 68, 0
3, 76798, Note_on_c, 1, 65, 0
3, 76800, Note_on_c, 1, 65, 96
3, 76800, Note_on_c, 1, 68, 96
3, 77038, Note_on_c, 1, 68, 0
3, 77038, Note_on_c, 1, 65, 0
3, 77040, Note_on_c, 1, 66, 72
3, 77040, Note_on_c, 1, 69, 72
3, 77076, Note_on_c, 1, 69, 0
3, 77076, Note_on_c, 1, 66, 0
3, 77160, Note_on_c, 1, 61, 72
3, 77160, Note_on_c, 1, 68, 72
3, 77196, Note_on_c, 1, 68, 0
3, 77196, Note_on_c, 1, 61, 0
3, 77280, Note_on_c, 1, 61, 96
3, 77280, Note_on_c, 1, 68, 96
3, 77518, Note_on_c, 1, 68, 0
3, 77518, Note_on_c, 1, 61, 0
3, 77520, Note_on_c, 1, 66, 72
3, 77580, Note_on_c, 1, 66, 0
3, 77640, Note_on_c, 1, 67, 72
3, 77640, Note_on_c, 1, 70, 72
3, 77700, Note_on_c, 1, 70, 0
3, 77700, Note_on_c, 1, 67, 0
3, 77760, Note_on_c, 1, 67, 96
3, 77760, Note_on_c, 1, 70, 96
3, 77998, Note_on_c, 1, 70, 0
3, 77998, Note_on_c, 1, 67, 0
3, 78000, Note_on_c, 1, 68, 72
3, 78084, Note_on_c, 1, 68, 0
3, 78120, Note_on_c, 1, 63, 72
3, 78120, Note_on_c, 1, 70, 72
3, 78204, Note_on_c, 1, 70, 0
3, 78204, Note_on_c, 1, 63, 0
3, 78240, Note_on_c, 1, 63, 96
3, 78240, Note_on_c, 1, 70, 96
3, 78478, Note_on_c, 1, 70, 0
3, 78478, Note_on_c, 1, 63, 0
3, 78480, Note_on_c, 1, 68, 85
3, 78588, Note_on_c, 1, 68, 0
3, 78600, Note_on_c, 1, 52, 85
3, 78600, Note_on_c, 1, 61, 85
3, 78708, Note_on_c, 1, 61, 0
3, 78708, Note_on_c, 1, 52, 0
3, 78720, Note_on_c, 1, 52, 85
3, 78720, Note_on_c, 1, 61, 85
3, 79078, Note_on_c, 1, 61, 0
3, 79078, Note_on_c, 1, 52, 0
3, 79080, Note_on_c, 1, 53, 85
3, 79080, Note_on_c, 1, 61, 85
3, 79200, Note_on_c, 1, 61, 0
3, 79200, Note_on_c, 1, 53, 0
3, 79200, Note_on_c, 1, 54, 85
3, 79200, Note_on_c, 1, 61, 85
3, 79318, Note_on_c, 1, 61, 0
3, 79318, Note_on_c, 1, 54, 0
3, 79440, Note_on_c, 1, 56, 85
3, 79440, Note_on_c, 1, 61, 85
3, 79558, Note_on_c, 1, 61, 0
3, 79558, Note_on_c, 1, 56, 0
3, 79680, Note_on_c, 1, 57, 85
3, 79680, Note_on_c, 1, 61, 85
3, 79798, Note_on_c, 1, 61, 0
3, 79798, Note_on_c, 1, 57, 0
3, 80040, Note_on_c, 1, 53, 64
3, 80040, Note_on_c, 1, 61, 64
3, 80158, Note_on_c, 1, 61, 0
3, 80158, Note_on_c, 1, 53, 0
3, 80160, Note_on_c, 1, 54, 64
3, 80160, Note_on_c, 1, 61, 64
3, 80278, Note_on_c, 1, 61, 0
3, 80278, Note_on_c, 1, 54, 0
3, 80400, Note_on_c, 1, 56, 64
3, 80400, Note_on_c, 1, 61, 64
3, 80518, Note_on_c, 1, 61, 0
3, 80518, Note_on_c, 1, 56, 0
3, 80640, Note_on_c, 1, 57, 64
3, 80640, Note_on_c, 1, 61, 64
3, 80758, Note_on_c, 1, 61, 0
3, 80758, Note_on_c, 1, 57, 0
3, 81600, Note_on_c, 1, 66, 50
3, 81600, Note_on_c, 1, 69, 50
3, 82944, Note_on_c, 1, 69, 0
3, 82944, Note_on_c, 1, 66, 0
3, 84000, Note_on_c, 1, 33, 85
3, 84000, Note_on_c, 1, 45, 85
3, 84478, Note_on_c, 1, 45, 0
3, 84478, Note_on_c, 1, 33, 0
3, 84480, Note_on_c, 1, 32, 85
3, 84480, Note_on_c, 1, 44, 85
3, 84718, Note_on_c, 1, 44, 0
3, 84718, Note_on_c, 1, 32, 0
3, 84720, Note_on_c, 1, 30, 85
3, 84720, Note_on_c, 1, 42, 85
3, 84720, Note_on_c, 1, 54, 85
3, 84958, Note_on_c, 1, 54, 0
3, 84958, Note_on_c, 1, 42, 0
3, 84958, Note_on_c, 1, 30, 0
3, 84960, Note_on_c, 1, 40, 85
3, 85198, Note_on_c, 1, 40, 0
3, 85440, Note_on_c, 1, 42, 85
3, 85440, Note_on_c, 1, 54, 85
3, 85678, Note_on_c, 1, 54, 0
3, 85678, Note_on_c, 1, 42, 0
3, 85920, Note_on_c, 1, 44, 85
3, 85920, Note_on_c, 1, 49, 85
3, 86158, Note_on_c, 1, 49, 0
3, 86160, Note_on_c, 1, 48, 85
3, 86304, Note_on_c, 1, 44, 0
3, 86398, Note_on_c, 1, 48, 0
3, 86400, Note_on_c, 1, 37, 85
3, 86400, Note_on_c, 1, 49, 85
3, 86518, Note_on_c, 1, 49, 0
3, 86518, Note_on_c, 1, 37, 0
3, 86520, Note_on_c, 1, 40, 85
3, 86520, Note_on_c, 1, 52, 85
3, 86638, Note_on_c, 1, 52, 0
3, 86638, Note_on_c, 1, 40, 0
3, 86880, Note_on_c, 1, 42, 85
3, 86880, Note_on_c, 1, 54, 85
3, 86998, Note_on_c, 1, 54, 0
3, 86998, Note_on_c, 1, 42, 0
3, 87000, Note_on_c, 1, 45, 85
3, 87000, Note_on_c, 1, 57, 85
3, 87118, Note_on_c, 1, 57, 0
3, 87118, Note_on_c, 1, 45, 0
3, 87120, Note_on_c, 1, 44, 85
3, 87120, Note_on_c, 1, 56, 85
3, 87238, Note_on_c, 1, 56, 0
3, 87238, Note_on_c, 1, 44, 0
3, 87240, Note_on_c, 1, 42, 85
3, 87240, Note_on_c, 1, 54, 85
3, 87358, Note_on_c, 1, 54, 0
3, 87358, Note_on_c, 1, 42, 0
3, 87360, Note_on_c, 1, 40, 85
3, 87360, Note_on_c, 1, 52, 85
3, 87598, Note_on_c, 1, 52, 0
3, 87598, Note_on_c, 1, 40, 0
3, 88200, Note_on_c, 1, 61, 85
3, 88200, Note_on_c, 1, 64, 85
3, 88318, Note_on_c, 1, 64, 0
3, 88318, Note_on_c, 1, 61, 0
3, 88320, Note_on_c, 1, 60, 85
3, 88320, Note_on_c, 1, 63, 85
3, 88438, Note_on_c, 1, 63, 0
3, 88438, Note_on_c, 1, 60, 0
3, 88440, Note_on_c, 1, 61, 85
3, 88440, Note_on_c, 1, 64, 85
3, 88558, Note_on_c, 1, 64, 0
3, 88558, Note_on_c, 1, 61, 0
3, 88560, Note_on_c, 1, 60, 85
3, 88560, Note_on_c, 1, 63, 85
3, 88678, Note_on_c, 1, 63, 0
3, 88678, Note_on_c, 1, 60, 0
3, 88680, Note_on_c, 1, 61, 85
3, 88680, Note_on_c, 1, 64, 85
3, 88798, Note_on_c, 1, 64, 0
3, 88798, Note_on_c, 1, 61, 0
3, 88800, Note_on_c, 1, 60, 85
3, 88800, Note_on_c, 1, 63, 85
3, 88918, Note_on_c, 1, 63, 0
3, 88918, Note_on_c, 1, 60, 0
3, 89280, Note_on_c, 1, 54, 85
3, 89280, Note_on_c, 1, 56, 85
3, 89280, Note_on_c, 1, 60, 85
3, 89398, Note_on_c, 1, 60, 0
3, 89398, Note_on_c, 1, 56, 0
3, 89398, Note_on_c, 1, 54, 0
3, 89520, Note_on_c, 1, 54, 85
3, 89520, Note_on_c, 1, 56, 85
3, 89520, Note_on_c, 1, 60, 85
3, 89638, Note_on_c, 1, 60, 0
3, 89638, Note_on_c, 1, 56, 0
3, 89638, Note_on_c, 1, 54, 0
3, 89760, Note_on_c, 1, 54, 85
3, 89760, Note_on_c, 1, 56, 85
3, 89760, Note_on_c, 1, 60, 85
3, 89878, Note_on_c, 1, 60, 0
3, 89878, Note_on_c, 1, 56, 0
3, 89878, Note_on_c, 1, 54, 0
3, 90240, Note_on_c, 1, 52, 85
3, 90240, Note_on_c, 1, 56, 85
3, 90240, Note_on_c, 1, 61, 85
3, 90358, Note_on_c, 1, 61, 0
3, 90358, Note_on_c, 1, 56, 0
3, 90358, Note_on_c, 1, 52, 0
3, 90480, Note_on_c, 1, 54, 85
3, 90480, Note_on_c, 1, 57, 85
3, 90480, Note_on_c, 1, 63, 85
3, 90598, Note_on_c, 1, 63, 0
3, 90598, Note_on_c, 1, 57, 0
3, 90598, Note_on_c, 1, 54, 0
3, 90720, Note_on_c, 1, 56, 85
3, 90720, Note_on_c, 1, 61, 85
3, 90720, Note_on_c, 1, 64, 85
3, 90838, Note_on_c, 1, 64, 0
3, 90838, Note_on_c, 1, 61, 0
3, 90838, Note_on_c, 1, 56, 0
3, 91080, Note_on_c, 1, 56, 85
3, 91080, Note_on_c, 1, 66, 85
3, 91198, Note_on_c, 1, 66, 0
3, 91198, Note_on_c, 1, 56, 0
3, 91200, Note_on_c, 1, 64, 85
3, 91200, Note_on_c, 1, 61, 85
3, 91438, Note_on_c, 1, 61, 0
3, 91438, Note_on_c, 1, 64, 0
3, 91560, Note_on_c, 1, 56, 85
3, 91560, Note_on_c, 1, 66, 85
3, 91678, Note_on_c, 1, 66, 0
3, 91678, Note_on_c, 1, 56, 0
3, 91680, Note_on_c, 1, 61, 85
3, 91680, Note_on_c, 1, 64, 85
3, 91798, Note_on_c, 1, 64, 0
3, 91798, Note_on_c, 1, 61, 0
3, 92040, Note_on_c, 1, 56, 48
3, 92040, Note_on_c, 1, 66, 48
3, 92158, Note_on_c, 1, 66, 0
3, 92158, Note_on_c, 1, 56, 0
3, 92160, Note_on_c, 1, 64, 48
3, 92160, Note_on_c, 1, 61, 48
3, 92398, Note_on_c, 1, 61, 0
3, 92398, Note_on_c, 1, 64, 0
3, 92520, Note_on_c, 1, 56, 48
3, 92520, Note_on_c, 1, 66, 48
3, 92638, Note_on_c, 1, 66, 0
3, 92638, Note_on_c, 1, 56, 0
3, 92640, Note_on_c, 1, 64, 48
3, 92640, Note_on_c, 1, 61, 48
3, 92736, Note_on_c, 1, 61, 0
3, 92736, Note_on_c, 1, 64, 0
3, 92880, Note_on_c, 1, 56, 41
3, 92976, Note_on_c, 1, 56, 0
3, 93120, Note_on_c, 1, 49, 34
3, 93312, Note_on_c, 1, 49, 0
3, 93312, End_track
4, 0, Start_track
4, 0, MIDI_port, 0
4, 0, Title_t, "MIDI by Marty Weimer 7/29/96"
4, 0, End_track
5, 0, Start_track
5, 0, MIDI_port, 0
5, 0, Title_t, "weimermt@libby.org  Eureka, MT  USA"
5, 0, End_track
0, 0, End_of_file
