0, 0, Header, 1, 6, 240
1, 0, Start_track
1, 0, Time_signature, 3, 2, 24, 8
1, 0, Key_signature, 0, "major"
1, 0, Tempo, 545455
1, 0, End_track
2, 0, Start_track
2, 0, MIDI_port, 0
2, 0, Title_t, "Piano Sonata No.33 in D (1777?)"
2, 0, Program_c, 0, 0
2, 0, Control_c, 0, 7, 127
2, 0, Control_c, 0, 10, 72
2, 480, Note_on_c, 0, 69, 85
2, 658, Note_on_c, 0, 69, 0
2, 660, Note_on_c, 0, 66, 85
2, 718, Note_on_c, 0, 66, 0
2, 720, Note_on_c, 0, 74, 85
2, 936, Note_on_c, 0, 74, 0
2, 960, Note_on_c, 0, 74, 72
2, 1104, Note_on_c, 0, 74, 0
2, 1200, Note_on_c, 0, 76, 85
2, 1258, Note_on_c, 0, 76, 0
2, 1260, Note_on_c, 0, 74, 85
2, 1318, Note_on_c, 0, 74, 0
2, 1320, Note_on_c, 0, 73, 85
2, 1378, Note_on_c, 0, 73, 0
2, 1380, Note_on_c, 0, 74, 85
2, 1438, Note_on_c, 0, 74, 0
2, 1440, Note_on_c, 0, 73, 85
2, 1618, Note_on_c, 0, 73, 0
2, 1620, Note_on_c, 0, 76, 85
2, 1678, Note_on_c, 0, 76, 0
2, 1680, Note_on_c, 0, 79, 85
2, 2100, Note_on_c, 0, 79, 0
2, 2100, Note_on_c, 0, 76, 85
2, 2158, Note_on_c, 0, 76, 0
2, 2160, Note_on_c, 0, 78, 85
2, 2338, Note_on_c, 0, 78, 0
2, 2340, Note_on_c, 0, 74, 85
2, 2398, Note_on_c, 0, 74, 0
2, 2400, Note_on_c, 0, 81, 85
2, 2578, Note_on_c, 0, 81, 0
2, 2580, Note_on_c, 0, 78, 85
2, 2638, Note_on_c, 0, 78, 0
2, 2640, Note_on_c, 0, 83, 85
2, 2818, Note_on_c, 0, 83, 0
2, 2820, Note_on_c, 0, 79, 85
2, 2878, Note_on_c, 0, 79, 0
2, 2880, Note_on_c, 0, 78, 85
2, 3118, Note_on_c, 0, 78, 0
2, 3120, Note_on_c, 0, 76, 72
2, 3240, Note_on_c, 0, 76, 0
2, 3360, Note_on_c, 0, 69, 85
2, 3538, Note_on_c, 0, 69, 0
2, 3540, Note_on_c, 0, 66, 85
2, 3598, Note_on_c, 0, 66, 0
2, 3600, Note_on_c, 0, 74, 85
2, 3816, Note_on_c, 0, 74, 0
2, 3840, Note_on_c, 0, 74, 72
2, 4008, Note_on_c, 0, 74, 0
2, 4080, Note_on_c, 0, 76, 85
2, 4138, Note_on_c, 0, 76, 0
2, 4140, Note_on_c, 0, 74, 85
2, 4198, Note_on_c, 0, 74, 0
2, 4200, Note_on_c, 0, 73, 85
2, 4258, Note_on_c, 0, 73, 0
2, 4260, Note_on_c, 0, 74, 85
2, 4318, Note_on_c, 0, 74, 0
2, 4320, Note_on_c, 0, 73, 85
2, 4498, Note_on_c, 0, 73, 0
2, 4500, Note_on_c, 0, 76, 85
2, 4558, Note_on_c, 0, 76, 0
2, 4560, Note_on_c, 0, 79, 85
2, 4738, Note_on_c, 0, 79, 0
2, 4740, Note_on_c, 0, 76, 85
2, 4798, Note_on_c, 0, 76, 0
2, 4800, Note_on_c, 0, 78, 85
2, 4978, Note_on_c, 0, 78, 0
2, 4980, Note_on_c, 0, 74, 85
2, 5038, Note_on_c, 0, 74, 0
2, 5040, Note_on_c, 0, 71, 85
2, 5278, Note_on_c, 0, 71, 0
2, 5280, Note_on_c, 0, 76, 85
2, 5400, Note_on_c, 0, 76, 0
2, 5520, Note_on_c, 0, 67, 80
2, 5520, Note_on_c, 0, 74, 85
2, 5578, Note_on_c, 0, 74, 0
2, 5580, Note_on_c, 0, 73, 85
2, 5638, Note_on_c, 0, 73, 0
2, 5640, Note_on_c, 0, 71, 85
2, 5698, Note_on_c, 0, 71, 0
2, 5700, Note_on_c, 0, 73, 85
2, 5712, Note_on_c, 0, 67, 0
2, 5758, Note_on_c, 0, 73, 0
2, 5760, Note_on_c, 0, 74, 85
2, 5998, Note_on_c, 0, 74, 0
2, 6240, Note_on_c, 0, 81, 85
2, 6418, Note_on_c, 0, 81, 0
2, 6420, Note_on_c, 0, 78, 85
2, 6478, Note_on_c, 0, 78, 0
2, 6480, Note_on_c, 0, 86, 85
2, 6658, Note_on_c, 0, 86, 0
2, 6660, Note_on_c, 0, 81, 85
2, 6718, Note_on_c, 0, 81, 0
2, 6720, Note_on_c, 0, 83, 85
2, 6898, Note_on_c, 0, 83, 0
2, 6900, Note_on_c, 0, 80, 85
2, 6958, Note_on_c, 0, 80, 0
2, 6960, Note_on_c, 0, 81, 85
2, 7138, Note_on_c, 0, 81, 0
2, 7140, Note_on_c, 0, 76, 85
2, 7198, Note_on_c, 0, 76, 0
2, 7200, Note_on_c, 0, 79, 85
2, 7378, Note_on_c, 0, 79, 0
2, 7380, Note_on_c, 0, 74, 85
2, 7438, Note_on_c, 0, 74, 0
2, 7440, Note_on_c, 0, 78, 85
2, 7618, Note_on_c, 0, 78, 0
2, 7620, Note_on_c, 0, 73, 85
2, 7678, Note_on_c, 0, 73, 0
2, 7680, Note_on_c, 0, 76, 85
2, 7858, Note_on_c, 0, 76, 0
2, 7860, Note_on_c, 0, 71, 85
2, 7918, Note_on_c, 0, 71, 0
2, 7920, Note_on_c, 0, 74, 85
2, 8098, Note_on_c, 0, 74, 0
2, 8100, Note_on_c, 0, 69, 85
2, 8158, Note_on_c, 0, 69, 0
2, 8160, Note_on_c, 0, 73, 85
2, 8160, Note_on_c, 0, 79, 85
2, 8338, Note_on_c, 0, 79, 0
2, 8340, Note_on_c, 0, 76, 85
2, 8398, Note_on_c, 0, 76, 0
2, 8398, Note_on_c, 0, 73, 0
2, 8400, Note_on_c, 0, 74, 85
2, 8400, Note_on_c, 0, 78, 85
2, 8578, Note_on_c, 0, 78, 0
2, 8580, Note_on_c, 0, 81, 85
2, 8638, Note_on_c, 0, 81, 0
2, 8638, Note_on_c, 0, 74, 0
2, 8640, Note_on_c, 0, 74, 85
2, 8640, Note_on_c, 0, 78, 85
2, 8878, Note_on_c, 0, 78, 0
2, 8878, Note_on_c, 0, 74, 0
2, 8880, Note_on_c, 0, 73, 72
2, 8880, Note_on_c, 0, 76, 72
2, 9000, Note_on_c, 0, 76, 0
2, 9000, Note_on_c, 0, 73, 0
2, 9120, Note_on_c, 0, 81, 85
2, 9298, Note_on_c, 0, 81, 0
2, 9300, Note_on_c, 0, 78, 85
2, 9358, Note_on_c, 0, 78, 0
2, 9360, Note_on_c, 0, 86, 85
2, 9538, Note_on_c, 0, 86, 0
2, 9540, Note_on_c, 0, 81, 85
2, 9598, Note_on_c, 0, 81, 0
2, 9600, Note_on_c, 0, 83, 85
2, 9778, Note_on_c, 0, 83, 0
2, 9780, Note_on_c, 0, 80, 85
2, 9838, Note_on_c, 0, 80, 0
2, 9840, Note_on_c, 0, 81, 85
2, 10018, Note_on_c, 0, 81, 0
2, 10020, Note_on_c, 0, 76, 85
2, 10078, Note_on_c, 0, 76, 0
2, 10080, Note_on_c, 0, 79, 85
2, 10258, Note_on_c, 0, 79, 0
2, 10260, Note_on_c, 0, 74, 85
2, 10318, Note_on_c, 0, 74, 0
2, 10320, Note_on_c, 0, 78, 85
2, 10498, Note_on_c, 0, 78, 0
2, 10500, Note_on_c, 0, 73, 85
2, 10558, Note_on_c, 0, 73, 0
2, 10560, Note_on_c, 0, 76, 85
2, 10738, Note_on_c, 0, 76, 0
2, 10740, Note_on_c, 0, 71, 85
2, 10798, Note_on_c, 0, 71, 0
2, 10800, Note_on_c, 0, 74, 85
2, 10978, Note_on_c, 0, 74, 0
2, 10980, Note_on_c, 0, 69, 85
2, 11038, Note_on_c, 0, 69, 0
2, 11040, Note_on_c, 0, 78, 72
2, 11278, Note_on_c, 0, 78, 0
2, 11280, Note_on_c, 0, 76, 74
2, 11304, Note_on_c, 0, 76, 0
2, 11310, Note_on_c, 0, 78, 75
2, 11334, Note_on_c, 0, 78, 0
2, 11340, Note_on_c, 0, 76, 75
2, 11364, Note_on_c, 0, 76, 0
2, 11370, Note_on_c, 0, 78, 76
2, 11394, Note_on_c, 0, 78, 0
2, 11400, Note_on_c, 0, 76, 77
2, 11416, Note_on_c, 0, 76, 0
2, 11420, Note_on_c, 0, 78, 77
2, 11436, Note_on_c, 0, 78, 0
2, 11440, Note_on_c, 0, 76, 78
2, 11456, Note_on_c, 0, 76, 0
2, 11460, Note_on_c, 0, 74, 79
2, 11484, Note_on_c, 0, 74, 0
2, 11490, Note_on_c, 0, 76, 79
2, 11514, Note_on_c, 0, 76, 0
2, 11520, Note_on_c, 0, 74, 85
2, 11758, Note_on_c, 0, 74, 0
2, 12000, Note_on_c, 0, 67, 64
2, 12058, Note_on_c, 0, 67, 0
2, 12060, Note_on_c, 0, 65, 64
2, 12090, Note_on_c, 0, 65, 0
2, 12120, Note_on_c, 0, 64, 64
2, 12150, Note_on_c, 0, 64, 0
2, 12180, Note_on_c, 0, 62, 64
2, 12210, Note_on_c, 0, 62, 0
2, 12240, Note_on_c, 0, 74, 64
2, 12660, Note_on_c, 0, 74, 0
2, 12660, Note_on_c, 0, 69, 64
2, 12718, Note_on_c, 0, 69, 0
2, 12720, Note_on_c, 0, 77, 64
2, 12898, Note_on_c, 0, 77, 0
2, 12900, Note_on_c, 0, 69, 64
2, 12958, Note_on_c, 0, 69, 0
2, 12960, Note_on_c, 0, 69, 64
2, 13138, Note_on_c, 0, 69, 0
2, 13140, Note_on_c, 0, 68, 64
2, 13198, Note_on_c, 0, 68, 0
2, 13200, Note_on_c, 0, 67, 64
2, 13620, Note_on_c, 0, 67, 0
2, 13620, Note_on_c, 0, 64, 64
2, 13678, Note_on_c, 0, 64, 0
2, 13680, Note_on_c, 0, 65, 64
2, 13858, Note_on_c, 0, 65, 0
2, 13860, Note_on_c, 0, 62, 64
2, 13918, Note_on_c, 0, 62, 0
2, 13920, Note_on_c, 0, 69, 64
2, 14098, Note_on_c, 0, 69, 0
2, 14100, Note_on_c, 0, 65, 64
2, 14158, Note_on_c, 0, 65, 0
2, 14160, Note_on_c, 0, 70, 64
2, 14338, Note_on_c, 0, 70, 0
2, 14340, Note_on_c, 0, 62, 64
2, 14398, Note_on_c, 0, 62, 0
2, 14400, Note_on_c, 0, 62, 64
2, 14592, Note_on_c, 0, 62, 0
2, 14640, Note_on_c, 0, 61, 56
2, 14760, Note_on_c, 0, 61, 0
2, 14880, Note_on_c, 0, 70, 80
2, 14928, Note_on_c, 0, 70, 0
2, 14940, Note_on_c, 0, 69, 80
2, 14970, Note_on_c, 0, 69, 0
2, 15000, Note_on_c, 0, 67, 80
2, 15030, Note_on_c, 0, 67, 0
2, 15060, Note_on_c, 0, 65, 80
2, 15090, Note_on_c, 0, 65, 0
2, 15120, Note_on_c, 0, 72, 85
2, 15298, Note_on_c, 0, 72, 0
2, 15300, Note_on_c, 0, 69, 85
2, 15358, Note_on_c, 0, 69, 0
2, 15360, Note_on_c, 0, 77, 85
2, 15538, Note_on_c, 0, 77, 0
2, 15540, Note_on_c, 0, 72, 85
2, 15598, Note_on_c, 0, 72, 0
2, 15600, Note_on_c, 0, 81, 85
2, 15778, Note_on_c, 0, 81, 0
2, 15780, Note_on_c, 0, 77, 85
2, 15838, Note_on_c, 0, 77, 0
2, 15840, Note_on_c, 0, 82, 80
2, 16018, Note_on_c, 0, 82, 0
2, 16020, Note_on_c, 0, 77, 82
2, 16078, Note_on_c, 0, 77, 0
2, 16080, Note_on_c, 0, 86, 83
2, 16258, Note_on_c, 0, 86, 0
2, 16260, Note_on_c, 0, 77, 85
2, 16318, Note_on_c, 0, 77, 0
2, 16320, Note_on_c, 0, 88, 85
2, 16498, Note_on_c, 0, 88, 0
2, 16500, Note_on_c, 0, 79, 87
2, 16558, Note_on_c, 0, 79, 0
2, 16560, Note_on_c, 0, 89, 80
2, 16738, Note_on_c, 0, 89, 0
2, 16740, Note_on_c, 0, 77, 85
2, 16798, Note_on_c, 0, 77, 0
2, 16800, Note_on_c, 0, 81, 85
2, 17038, Note_on_c, 0, 81, 0
2, 17040, Note_on_c, 0, 79, 81
2, 17064, Note_on_c, 0, 79, 0
2, 17070, Note_on_c, 0, 81, 82
2, 17094, Note_on_c, 0, 81, 0
2, 17100, Note_on_c, 0, 79, 83
2, 17124, Note_on_c, 0, 79, 0
2, 17130, Note_on_c, 0, 81, 84
2, 17154, Note_on_c, 0, 81, 0
2, 17160, Note_on_c, 0, 79, 85
2, 17176, Note_on_c, 0, 79, 0
2, 17180, Note_on_c, 0, 81, 85
2, 17196, Note_on_c, 0, 81, 0
2, 17200, Note_on_c, 0, 79, 86
2, 17216, Note_on_c, 0, 79, 0
2, 17220, Note_on_c, 0, 77, 86
2, 17244, Note_on_c, 0, 77, 0
2, 17250, Note_on_c, 0, 79, 87
2, 17274, Note_on_c, 0, 79, 0
2, 17280, Note_on_c, 0, 77, 85
2, 17664, Note_on_c, 0, 77, 0
2, 17760, Note_on_c, 0, 82, 64
2, 17818, Note_on_c, 0, 82, 0
2, 17820, Note_on_c, 0, 81, 64
2, 17850, Note_on_c, 0, 81, 0
2, 17880, Note_on_c, 0, 79, 64
2, 17910, Note_on_c, 0, 79, 0
2, 17940, Note_on_c, 0, 77, 64
2, 17970, Note_on_c, 0, 77, 0
2, 18000, Note_on_c, 0, 84, 64
2, 18420, Note_on_c, 0, 84, 0
2, 18420, Note_on_c, 0, 75, 64
2, 18478, Note_on_c, 0, 75, 0
2, 18480, Note_on_c, 0, 77, 64
2, 18658, Note_on_c, 0, 77, 0
2, 18660, Note_on_c, 0, 75, 64
2, 18718, Note_on_c, 0, 75, 0
2, 18720, Note_on_c, 0, 74, 64
2, 18898, Note_on_c, 0, 74, 0
2, 18900, Note_on_c, 0, 81, 64
2, 18958, Note_on_c, 0, 81, 0
2, 18960, Note_on_c, 0, 86, 64
2, 19138, Note_on_c, 0, 86, 0
2, 19140, Note_on_c, 0, 81, 64
2, 19198, Note_on_c, 0, 81, 0
2, 19200, Note_on_c, 0, 82, 64
2, 19378, Note_on_c, 0, 82, 0
2, 19380, Note_on_c, 0, 79, 64
2, 19438, Note_on_c, 0, 79, 0
2, 19440, Note_on_c, 0, 84, 64
2, 19618, Note_on_c, 0, 84, 0
2, 19620, Note_on_c, 0, 79, 64
2, 19678, Note_on_c, 0, 79, 0
2, 19680, Note_on_c, 0, 81, 64
2, 19858, Note_on_c, 0, 81, 0
2, 19860, Note_on_c, 0, 77, 64
2, 19918, Note_on_c, 0, 77, 0
2, 19920, Note_on_c, 0, 82, 64
2, 20038, Note_on_c, 0, 82, 0
2, 20040, Note_on_c, 0, 79, 64
2, 20098, Note_on_c, 0, 79, 0
2, 20100, Note_on_c, 0, 76, 64
2, 20158, Note_on_c, 0, 76, 0
2, 20160, Note_on_c, 0, 74, 64
2, 20398, Note_on_c, 0, 74, 0
2, 20400, Note_on_c, 0, 73, 56
2, 20520, Note_on_c, 0, 73, 0
2, 20640, Note_on_c, 0, 69, 85
2, 20698, Note_on_c, 0, 69, 0
2, 20700, Note_on_c, 0, 67, 85
2, 20758, Note_on_c, 0, 67, 0
2, 20760, Note_on_c, 0, 65, 85
2, 20818, Note_on_c, 0, 65, 0
2, 20820, Note_on_c, 0, 64, 85
2, 20878, Note_on_c, 0, 64, 0
2, 20880, Note_on_c, 0, 79, 85
2, 21300, Note_on_c, 0, 79, 0
2, 21300, Note_on_c, 0, 76, 85
2, 21358, Note_on_c, 0, 76, 0
2, 21360, Note_on_c, 0, 85, 85
2, 21538, Note_on_c, 0, 85, 0
2, 21540, Note_on_c, 0, 82, 85
2, 21598, Note_on_c, 0, 82, 0
2, 21600, Note_on_c, 0, 86, 80
2, 21778, Note_on_c, 0, 86, 0
2, 21780, Note_on_c, 0, 81, 82
2, 21838, Note_on_c, 0, 81, 0
2, 21840, Note_on_c, 0, 88, 83
2, 22018, Note_on_c, 0, 88, 0
2, 22020, Note_on_c, 0, 81, 85
2, 22078, Note_on_c, 0, 81, 0
2, 22080, Note_on_c, 0, 89, 85
2, 22258, Note_on_c, 0, 89, 0
2, 22260, Note_on_c, 0, 86, 87
2, 22318, Note_on_c, 0, 86, 0
2, 22320, Note_on_c, 0, 84, 88
2, 22378, Note_on_c, 0, 84, 0
2, 22380, Note_on_c, 0, 82, 85
2, 22410, Note_on_c, 0, 82, 0
2, 22440, Note_on_c, 0, 81, 85
2, 22470, Note_on_c, 0, 81, 0
2, 22500, Note_on_c, 0, 79, 85
2, 22530, Note_on_c, 0, 79, 0
2, 22560, Note_on_c, 0, 77, 85
2, 22798, Note_on_c, 0, 77, 0
2, 22800, Note_on_c, 0, 76, 73
2, 22824, Note_on_c, 0, 76, 0
2, 22830, Note_on_c, 0, 77, 74
2, 22854, Note_on_c, 0, 77, 0
2, 22860, Note_on_c, 0, 76, 75
2, 22884, Note_on_c, 0, 76, 0
2, 22890, Note_on_c, 0, 77, 76
2, 22914, Note_on_c, 0, 77, 0
2, 22920, Note_on_c, 0, 76, 77
2, 22936, Note_on_c, 0, 76, 0
2, 22940, Note_on_c, 0, 77, 77
2, 22956, Note_on_c, 0, 77, 0
2, 22960, Note_on_c, 0, 76, 78
2, 22976, Note_on_c, 0, 76, 0
2, 22980, Note_on_c, 0, 74, 78
2, 23004, Note_on_c, 0, 74, 0
2, 23010, Note_on_c, 0, 76, 79
2, 23034, Note_on_c, 0, 76, 0
2, 23040, Note_on_c, 0, 74, 85
2, 23376, Note_on_c, 0, 74, 0
2, 23520, Note_on_c, 0, 67, 85
2, 23578, Note_on_c, 0, 67, 0
2, 23580, Note_on_c, 0, 66, 85
2, 23610, Note_on_c, 0, 66, 0
2, 23640, Note_on_c, 0, 64, 85
2, 23670, Note_on_c, 0, 64, 0
2, 23700, Note_on_c, 0, 62, 85
2, 23730, Note_on_c, 0, 62, 0
2, 23760, Note_on_c, 0, 74, 85
2, 23878, Note_on_c, 0, 74, 0
2, 23880, Note_on_c, 0, 74, 72
2, 23998, Note_on_c, 0, 74, 0
2, 24120, Note_on_c, 0, 74, 85
2, 24180, Note_on_c, 0, 74, 0
2, 24240, Note_on_c, 0, 76, 85
2, 24298, Note_on_c, 0, 76, 0
2, 24300, Note_on_c, 0, 74, 85
2, 24330, Note_on_c, 0, 74, 0
2, 24360, Note_on_c, 0, 73, 85
2, 24390, Note_on_c, 0, 73, 0
2, 24420, Note_on_c, 0, 74, 85
2, 24450, Note_on_c, 0, 74, 0
2, 24480, Note_on_c, 0, 73, 85
2, 24598, Note_on_c, 0, 73, 0
2, 24600, Note_on_c, 0, 79, 72
2, 24718, Note_on_c, 0, 79, 0
2, 24840, Note_on_c, 0, 79, 85
2, 24958, Note_on_c, 0, 79, 0
2, 24960, Note_on_c, 0, 81, 85
2, 25018, Note_on_c, 0, 81, 0
2, 25020, Note_on_c, 0, 79, 85
2, 25078, Note_on_c, 0, 79, 0
2, 25080, Note_on_c, 0, 78, 85
2, 25138, Note_on_c, 0, 78, 0
2, 25140, Note_on_c, 0, 76, 85
2, 25198, Note_on_c, 0, 76, 0
2, 25200, Note_on_c, 0, 79, 85
2, 25258, Note_on_c, 0, 79, 0
2, 25260, Note_on_c, 0, 78, 85
2, 25318, Note_on_c, 0, 78, 0
2, 25320, Note_on_c, 0, 76, 85
2, 25378, Note_on_c, 0, 76, 0
2, 25380, Note_on_c, 0, 74, 85
2, 25438, Note_on_c, 0, 74, 0
2, 25440, Note_on_c, 0, 83, 85
2, 25498, Note_on_c, 0, 83, 0
2, 25500, Note_on_c, 0, 81, 85
2, 25558, Note_on_c, 0, 81, 0
2, 25560, Note_on_c, 0, 79, 85
2, 25618, Note_on_c, 0, 79, 0
2, 25620, Note_on_c, 0, 78, 85
2, 25678, Note_on_c, 0, 78, 0
2, 25680, Note_on_c, 0, 83, 85
2, 25738, Note_on_c, 0, 83, 0
2, 25740, Note_on_c, 0, 85, 85
2, 25798, Note_on_c, 0, 85, 0
2, 25800, Note_on_c, 0, 86, 85
2, 25858, Note_on_c, 0, 86, 0
2, 25860, Note_on_c, 0, 79, 85
2, 25918, Note_on_c, 0, 79, 0
2, 25920, Note_on_c, 0, 74, 85
2, 25920, Note_on_c, 0, 78, 85
2, 26158, Note_on_c, 0, 78, 0
2, 26158, Note_on_c, 0, 74, 0
2, 26160, Note_on_c, 0, 73, 72
2, 26160, Note_on_c, 0, 76, 72
2, 26280, Note_on_c, 0, 76, 0
2, 26280, Note_on_c, 0, 73, 0
2, 26400, Note_on_c, 0, 67, 85
2, 26458, Note_on_c, 0, 67, 0
2, 26460, Note_on_c, 0, 66, 85
2, 26490, Note_on_c, 0, 66, 0
2, 26520, Note_on_c, 0, 64, 85
2, 26550, Note_on_c, 0, 64, 0
2, 26580, Note_on_c, 0, 62, 85
2, 26610, Note_on_c, 0, 62, 0
2, 26640, Note_on_c, 0, 74, 85
2, 26758, Note_on_c, 0, 74, 0
2, 26760, Note_on_c, 0, 74, 72
2, 26878, Note_on_c, 0, 74, 0
2, 27000, Note_on_c, 0, 74, 85
2, 27118, Note_on_c, 0, 74, 0
2, 27120, Note_on_c, 0, 76, 85
2, 27178, Note_on_c, 0, 76, 0
2, 27180, Note_on_c, 0, 74, 85
2, 27238, Note_on_c, 0, 74, 0
2, 27240, Note_on_c, 0, 73, 85
2, 27298, Note_on_c, 0, 73, 0
2, 27300, Note_on_c, 0, 74, 85
2, 27358, Note_on_c, 0, 74, 0
2, 27360, Note_on_c, 0, 73, 85
2, 27478, Note_on_c, 0, 73, 0
2, 27480, Note_on_c, 0, 79, 72
2, 27598, Note_on_c, 0, 79, 0
2, 27600, Note_on_c, 0, 81, 85
2, 27658, Note_on_c, 0, 81, 0
2, 27660, Note_on_c, 0, 79, 85
2, 27718, Note_on_c, 0, 79, 0
2, 27720, Note_on_c, 0, 78, 85
2, 27778, Note_on_c, 0, 78, 0
2, 27780, Note_on_c, 0, 76, 85
2, 27838, Note_on_c, 0, 76, 0
2, 27840, Note_on_c, 0, 79, 85
2, 27898, Note_on_c, 0, 79, 0
2, 27900, Note_on_c, 0, 78, 85
2, 27958, Note_on_c, 0, 78, 0
2, 27960, Note_on_c, 0, 76, 85
2, 28018, Note_on_c, 0, 76, 0
2, 28020, Note_on_c, 0, 74, 85
2, 28078, Note_on_c, 0, 74, 0
2, 28080, Note_on_c, 0, 83, 85
2, 28138, Note_on_c, 0, 83, 0
2, 28140, Note_on_c, 0, 85, 85
2, 28198, Note_on_c, 0, 85, 0
2, 28200, Note_on_c, 0, 86, 85
2, 28258, Note_on_c, 0, 86, 0
2, 28260, Note_on_c, 0, 79, 85
2, 28318, Note_on_c, 0, 79, 0
2, 28320, Note_on_c, 0, 78, 85
2, 28378, Note_on_c, 0, 78, 0
2, 28380, Note_on_c, 0, 79, 85
2, 28438, Note_on_c, 0, 79, 0
2, 28440, Note_on_c, 0, 81, 85
2, 28498, Note_on_c, 0, 81, 0
2, 28500, Note_on_c, 0, 74, 85
2, 28558, Note_on_c, 0, 74, 0
2, 28560, Note_on_c, 0, 76, 85
2, 28618, Note_on_c, 0, 76, 0
2, 28620, Note_on_c, 0, 78, 85
2, 28678, Note_on_c, 0, 78, 0
2, 28680, Note_on_c, 0, 79, 85
2, 28738, Note_on_c, 0, 79, 0
2, 28740, Note_on_c, 0, 73, 85
2, 28798, Note_on_c, 0, 73, 0
2, 28800, Note_on_c, 0, 74, 85
2, 29038, Note_on_c, 0, 74, 0
2, 29280, Note_on_c, 0, 67, 85
2, 29338, Note_on_c, 0, 67, 0
2, 29340, Note_on_c, 0, 66, 85
2, 29370, Note_on_c, 0, 66, 0
2, 29400, Note_on_c, 0, 64, 85
2, 29430, Note_on_c, 0, 64, 0
2, 29460, Note_on_c, 0, 62, 85
2, 29490, Note_on_c, 0, 62, 0
2, 29520, Note_on_c, 0, 74, 85
2, 29638, Note_on_c, 0, 74, 0
2, 29640, Note_on_c, 0, 74, 72
2, 29758, Note_on_c, 0, 74, 0
2, 29880, Note_on_c, 0, 68, 85
2, 29998, Note_on_c, 0, 68, 0
2, 30000, Note_on_c, 0, 69, 85
2, 30058, Note_on_c, 0, 69, 0
2, 30060, Note_on_c, 0, 71, 85
2, 30118, Note_on_c, 0, 71, 0
2, 30120, Note_on_c, 0, 69, 85
2, 30178, Note_on_c, 0, 69, 0
2, 30180, Note_on_c, 0, 64, 85
2, 30238, Note_on_c, 0, 64, 0
2, 30240, Note_on_c, 0, 67, 85
2, 30358, Note_on_c, 0, 67, 0
2, 30360, Note_on_c, 0, 67, 72
2, 30478, Note_on_c, 0, 67, 0
2, 30600, Note_on_c, 0, 66, 85
2, 30718, Note_on_c, 0, 66, 0
2, 30720, Note_on_c, 0, 64, 85
2, 30778, Note_on_c, 0, 64, 0
2, 30780, Note_on_c, 0, 66, 85
2, 30810, Note_on_c, 0, 66, 0
2, 30840, Note_on_c, 0, 64, 85
2, 30870, Note_on_c, 0, 64, 0
2, 30900, Note_on_c, 0, 59, 85
2, 30930, Note_on_c, 0, 59, 0
2, 30960, Note_on_c, 0, 62, 85
2, 31018, Note_on_c, 0, 62, 0
2, 31020, Note_on_c, 0, 64, 85
2, 31078, Note_on_c, 0, 64, 0
2, 31080, Note_on_c, 0, 62, 85
2, 31138, Note_on_c, 0, 62, 0
2, 31140, Note_on_c, 0, 57, 85
2, 31198, Note_on_c, 0, 57, 0
2, 31200, Note_on_c, 0, 67, 85
2, 31258, Note_on_c, 0, 67, 0
2, 31260, Note_on_c, 0, 69, 85
2, 31318, Note_on_c, 0, 69, 0
2, 31320, Note_on_c, 0, 67, 85
2, 31378, Note_on_c, 0, 67, 0
2, 31380, Note_on_c, 0, 64, 85
2, 31438, Note_on_c, 0, 64, 0
2, 31440, Note_on_c, 0, 66, 85
2, 31498, Note_on_c, 0, 66, 0
2, 31500, Note_on_c, 0, 67, 85
2, 31530, Note_on_c, 0, 67, 0
2, 31560, Note_on_c, 0, 66, 85
2, 31590, Note_on_c, 0, 66, 0
2, 31620, Note_on_c, 0, 62, 85
2, 31650, Note_on_c, 0, 62, 0
2, 31680, Note_on_c, 0, 62, 85
2, 31680, Note_on_c, 0, 66, 85
2, 31918, Note_on_c, 0, 66, 0
2, 31918, Note_on_c, 0, 62, 0
2, 31920, Note_on_c, 0, 61, 72
2, 31920, Note_on_c, 0, 64, 72
2, 32040, Note_on_c, 0, 64, 0
2, 32040, Note_on_c, 0, 61, 0
2, 32160, Note_on_c, 0, 79, 85
2, 32218, Note_on_c, 0, 79, 0
2, 32220, Note_on_c, 0, 78, 85
2, 32250, Note_on_c, 0, 78, 0
2, 32280, Note_on_c, 0, 76, 85
2, 32310, Note_on_c, 0, 76, 0
2, 32340, Note_on_c, 0, 74, 85
2, 32370, Note_on_c, 0, 74, 0
2, 32400, Note_on_c, 0, 86, 85
2, 32518, Note_on_c, 0, 86, 0
2, 32520, Note_on_c, 0, 86, 72
2, 32638, Note_on_c, 0, 86, 0
2, 32760, Note_on_c, 0, 80, 85
2, 32878, Note_on_c, 0, 80, 0
2, 32880, Note_on_c, 0, 80, 85
2, 32938, Note_on_c, 0, 80, 0
2, 32940, Note_on_c, 0, 81, 85
2, 32970, Note_on_c, 0, 81, 0
2, 33000, Note_on_c, 0, 83, 85
2, 33030, Note_on_c, 0, 83, 0
2, 33060, Note_on_c, 0, 81, 85
2, 33090, Note_on_c, 0, 81, 0
2, 33120, Note_on_c, 0, 81, 85
2, 33178, Note_on_c, 0, 81, 0
2, 33180, Note_on_c, 0, 79, 85
2, 33238, Note_on_c, 0, 79, 0
2, 33240, Note_on_c, 0, 78, 85
2, 33298, Note_on_c, 0, 78, 0
2, 33300, Note_on_c, 0, 79, 85
2, 33358, Note_on_c, 0, 79, 0
2, 33360, Note_on_c, 0, 79, 85
2, 33418, Note_on_c, 0, 79, 0
2, 33420, Note_on_c, 0, 78, 85
2, 33478, Note_on_c, 0, 78, 0
2, 33480, Note_on_c, 0, 76, 85
2, 33538, Note_on_c, 0, 76, 0
2, 33540, Note_on_c, 0, 78, 85
2, 33598, Note_on_c, 0, 78, 0
2, 33600, Note_on_c, 0, 78, 85
2, 33658, Note_on_c, 0, 78, 0
2, 33660, Note_on_c, 0, 76, 85
2, 33690, Note_on_c, 0, 76, 0
2, 33720, Note_on_c, 0, 74, 85
2, 33750, Note_on_c, 0, 74, 0
2, 33780, Note_on_c, 0, 76, 85
2, 33810, Note_on_c, 0, 76, 0
2, 33840, Note_on_c, 0, 81, 85
2, 34018, Note_on_c, 0, 81, 0
2, 34020, Note_on_c, 0, 83, 85
2, 34078, Note_on_c, 0, 83, 0
2, 34080, Note_on_c, 0, 74, 85
2, 34318, Note_on_c, 0, 74, 0
2, 34320, Note_on_c, 0, 76, 74
2, 34344, Note_on_c, 0, 76, 0
2, 34350, Note_on_c, 0, 78, 75
2, 34374, Note_on_c, 0, 78, 0
2, 34380, Note_on_c, 0, 76, 75
2, 34404, Note_on_c, 0, 76, 0
2, 34410, Note_on_c, 0, 78, 76
2, 34434, Note_on_c, 0, 78, 0
2, 34440, Note_on_c, 0, 76, 77
2, 34456, Note_on_c, 0, 76, 0
2, 34460, Note_on_c, 0, 78, 78
2, 34476, Note_on_c, 0, 78, 0
2, 34480, Note_on_c, 0, 76, 78
2, 34496, Note_on_c, 0, 76, 0
2, 34500, Note_on_c, 0, 74, 79
2, 34524, Note_on_c, 0, 74, 0
2, 34530, Note_on_c, 0, 76, 80
2, 34554, Note_on_c, 0, 76, 0
2, 34560, Note_on_c, 0, 74, 85
2, 35038, Note_on_c, 0, 74, 0
2, 35041, Note_on_c, 0, 67, 64
2, 35099, Note_on_c, 0, 67, 0
2, 35101, Note_on_c, 0, 65, 64
2, 35131, Note_on_c, 0, 65, 0
2, 35161, Note_on_c, 0, 64, 64
2, 35191, Note_on_c, 0, 64, 0
2, 35221, Note_on_c, 0, 62, 64
2, 35251, Note_on_c, 0, 62, 0
2, 35280, Note_on_c, 0, 74, 64
2, 35638, Note_on_c, 0, 74, 0
2, 35640, Note_on_c, 0, 76, 64
2, 35880, Note_on_c, 0, 76, 0
2, 35880, Note_on_c, 0, 77, 64
2, 36118, Note_on_c, 0, 77, 0
2, 36120, Note_on_c, 0, 69, 64
2, 36358, Note_on_c, 0, 69, 0
2, 36360, Note_on_c, 0, 68, 64
2, 36600, Note_on_c, 0, 68, 0
2, 36600, Note_on_c, 0, 67, 64
2, 36838, Note_on_c, 0, 67, 0
2, 36840, Note_on_c, 0, 65, 64
2, 37078, Note_on_c, 0, 65, 0
2, 37080, Note_on_c, 0, 69, 64
2, 37176, Note_on_c, 0, 69, 0
2, 37200, Note_on_c, 0, 69, 64
2, 37248, Note_on_c, 0, 69, 0
2, 37260, Note_on_c, 0, 70, 64
2, 37276, Note_on_c, 0, 70, 0
2, 37280, Note_on_c, 0, 69, 64
2, 37296, Note_on_c, 0, 69, 0
2, 37300, Note_on_c, 0, 67, 64
2, 37316, Note_on_c, 0, 67, 0
2, 37320, Note_on_c, 0, 69, 64
2, 37368, Note_on_c, 0, 69, 0
2, 37380, Note_on_c, 0, 70, 64
2, 37428, Note_on_c, 0, 70, 0
2, 37440, Note_on_c, 0, 62, 64
2, 37632, Note_on_c, 0, 62, 0
2, 37680, Note_on_c, 0, 61, 56
2, 37800, Note_on_c, 0, 61, 0
2, 37920, Note_on_c, 0, 70, 80
2, 37968, Note_on_c, 0, 70, 0
2, 37980, Note_on_c, 0, 69, 80
2, 38010, Note_on_c, 0, 69, 0
2, 38040, Note_on_c, 0, 67, 80
2, 38070, Note_on_c, 0, 67, 0
2, 38100, Note_on_c, 0, 65, 80
2, 38130, Note_on_c, 0, 65, 0
2, 38160, Note_on_c, 0, 74, 85
2, 38218, Note_on_c, 0, 74, 0
2, 38220, Note_on_c, 0, 72, 85
2, 38278, Note_on_c, 0, 72, 0
2, 38280, Note_on_c, 0, 70, 85
2, 38338, Note_on_c, 0, 70, 0
2, 38340, Note_on_c, 0, 69, 85
2, 38398, Note_on_c, 0, 69, 0
2, 38400, Note_on_c, 0, 79, 85
2, 38458, Note_on_c, 0, 79, 0
2, 38460, Note_on_c, 0, 77, 85
2, 38518, Note_on_c, 0, 77, 0
2, 38520, Note_on_c, 0, 76, 85
2, 38578, Note_on_c, 0, 76, 0
2, 38580, Note_on_c, 0, 77, 85
2, 38638, Note_on_c, 0, 77, 0
2, 38640, Note_on_c, 0, 82, 85
2, 38698, Note_on_c, 0, 82, 0
2, 38700, Note_on_c, 0, 81, 85
2, 38730, Note_on_c, 0, 81, 0
2, 38760, Note_on_c, 0, 79, 85
2, 38790, Note_on_c, 0, 79, 0
2, 38820, Note_on_c, 0, 77, 85
2, 38850, Note_on_c, 0, 77, 0
2, 38880, Note_on_c, 0, 82, 80
2, 38998, Note_on_c, 0, 82, 0
2, 39000, Note_on_c, 0, 81, 81
2, 39058, Note_on_c, 0, 81, 0
2, 39060, Note_on_c, 0, 82, 82
2, 39118, Note_on_c, 0, 82, 0
2, 39120, Note_on_c, 0, 86, 83
2, 39178, Note_on_c, 0, 86, 0
2, 39180, Note_on_c, 0, 82, 83
2, 39238, Note_on_c, 0, 82, 0
2, 39240, Note_on_c, 0, 81, 84
2, 39298, Note_on_c, 0, 81, 0
2, 39300, Note_on_c, 0, 79, 85
2, 39358, Note_on_c, 0, 79, 0
2, 39360, Note_on_c, 0, 88, 85
2, 39418, Note_on_c, 0, 88, 0
2, 39420, Note_on_c, 0, 82, 86
2, 39450, Note_on_c, 0, 82, 0
2, 39480, Note_on_c, 0, 81, 87
2, 39510, Note_on_c, 0, 81, 0
2, 39540, Note_on_c, 0, 79, 87
2, 39570, Note_on_c, 0, 79, 0
2, 39600, Note_on_c, 0, 89, 88
2, 39658, Note_on_c, 0, 89, 0
2, 39660, Note_on_c, 0, 84, 85
2, 39718, Note_on_c, 0, 84, 0
2, 39720, Note_on_c, 0, 81, 85
2, 39778, Note_on_c, 0, 81, 0
2, 39780, Note_on_c, 0, 77, 85
2, 39838, Note_on_c, 0, 77, 0
2, 39840, Note_on_c, 0, 79, 72
2, 39864, Note_on_c, 0, 79, 0
2, 39870, Note_on_c, 0, 81, 73
2, 39894, Note_on_c, 0, 81, 0
2, 39900, Note_on_c, 0, 79, 73
2, 39924, Note_on_c, 0, 79, 0
2, 39930, Note_on_c, 0, 81, 74
2, 39954, Note_on_c, 0, 81, 0
2, 39960, Note_on_c, 0, 79, 74
2, 39984, Note_on_c, 0, 79, 0
2, 39990, Note_on_c, 0, 81, 75
2, 40014, Note_on_c, 0, 81, 0
2, 40020, Note_on_c, 0, 79, 75
2, 40044, Note_on_c, 0, 79, 0
2, 40050, Note_on_c, 0, 81, 76
2, 40074, Note_on_c, 0, 81, 0
2, 40080, Note_on_c, 0, 79, 76
2, 40104, Note_on_c, 0, 79, 0
2, 40110, Note_on_c, 0, 81, 77
2, 40134, Note_on_c, 0, 81, 0
2, 40140, Note_on_c, 0, 79, 77
2, 40164, Note_on_c, 0, 79, 0
2, 40170, Note_on_c, 0, 81, 78
2, 40194, Note_on_c, 0, 81, 0
2, 40200, Note_on_c, 0, 79, 78
2, 40216, Note_on_c, 0, 79, 0
2, 40220, Note_on_c, 0, 81, 79
2, 40236, Note_on_c, 0, 81, 0
2, 40240, Note_on_c, 0, 79, 79
2, 40256, Note_on_c, 0, 79, 0
2, 40260, Note_on_c, 0, 77, 79
2, 40284, Note_on_c, 0, 77, 0
2, 40290, Note_on_c, 0, 79, 80
2, 40314, Note_on_c, 0, 79, 0
2, 40320, Note_on_c, 0, 77, 85
2, 40770, Note_on_c, 0, 77, 0
2, 40800, Note_on_c, 0, 82, 64
2, 40858, Note_on_c, 0, 82, 0
2, 40860, Note_on_c, 0, 81, 64
2, 40890, Note_on_c, 0, 81, 0
2, 40920, Note_on_c, 0, 79, 64
2, 40950, Note_on_c, 0, 79, 0
2, 40980, Note_on_c, 0, 77, 64
2, 41010, Note_on_c, 0, 77, 0
2, 41040, Note_on_c, 0, 84, 64
2, 41338, Note_on_c, 0, 84, 0
2, 41340, Note_on_c, 0, 75, 64
2, 41398, Note_on_c, 0, 75, 0
2, 41400, Note_on_c, 0, 74, 64
2, 41458, Note_on_c, 0, 74, 0
2, 41460, Note_on_c, 0, 75, 64
2, 41518, Note_on_c, 0, 75, 0
2, 41520, Note_on_c, 0, 77, 64
2, 41578, Note_on_c, 0, 77, 0
2, 41580, Note_on_c, 0, 75, 64
2, 41610, Note_on_c, 0, 75, 0
2, 41640, Note_on_c, 0, 74, 64
2, 41670, Note_on_c, 0, 74, 0
2, 41700, Note_on_c, 0, 75, 64
2, 41730, Note_on_c, 0, 75, 0
2, 41760, Note_on_c, 0, 74, 64
2, 41818, Note_on_c, 0, 74, 0
2, 41820, Note_on_c, 0, 81, 64
2, 41878, Note_on_c, 0, 81, 0
2, 41880, Note_on_c, 0, 82, 64
2, 41938, Note_on_c, 0, 82, 0
2, 41940, Note_on_c, 0, 81, 64
2, 41998, Note_on_c, 0, 81, 0
2, 42000, Note_on_c, 0, 86, 64
2, 42058, Note_on_c, 0, 86, 0
2, 42060, Note_on_c, 0, 84, 64
2, 42118, Note_on_c, 0, 84, 0
2, 42120, Note_on_c, 0, 82, 64
2, 42178, Note_on_c, 0, 82, 0
2, 42180, Note_on_c, 0, 81, 64
2, 42238, Note_on_c, 0, 81, 0
2, 42240, Note_on_c, 0, 82, 64
2, 42298, Note_on_c, 0, 82, 0
2, 42300, Note_on_c, 0, 79, 64
2, 42330, Note_on_c, 0, 79, 0
2, 42360, Note_on_c, 0, 81, 64
2, 42390, Note_on_c, 0, 81, 0
2, 42420, Note_on_c, 0, 82, 64
2, 42450, Note_on_c, 0, 82, 0
2, 42480, Note_on_c, 0, 84, 64
2, 42538, Note_on_c, 0, 84, 0
2, 42540, Note_on_c, 0, 82, 64
2, 42598, Note_on_c, 0, 82, 0
2, 42600, Note_on_c, 0, 81, 64
2, 42658, Note_on_c, 0, 81, 0
2, 42660, Note_on_c, 0, 79, 64
2, 42718, Note_on_c, 0, 79, 0
2, 42720, Note_on_c, 0, 81, 64
2, 42778, Note_on_c, 0, 81, 0
2, 42780, Note_on_c, 0, 77, 64
2, 42838, Note_on_c, 0, 77, 0
2, 42840, Note_on_c, 0, 76, 64
2, 42898, Note_on_c, 0, 76, 0
2, 42900, Note_on_c, 0, 74, 64
2, 42958, Note_on_c, 0, 74, 0
2, 42960, Note_on_c, 0, 82, 64
2, 43018, Note_on_c, 0, 82, 0
2, 43020, Note_on_c, 0, 79, 64
2, 43050, Note_on_c, 0, 79, 0
2, 43080, Note_on_c, 0, 77, 64
2, 43110, Note_on_c, 0, 77, 0
2, 43140, Note_on_c, 0, 76, 64
2, 43170, Note_on_c, 0, 76, 0
2, 43200, Note_on_c, 0, 74, 64
2, 43438, Note_on_c, 0, 74, 0
2, 43440, Note_on_c, 0, 73, 56
2, 43560, Note_on_c, 0, 73, 0
2, 43680, Note_on_c, 0, 69, 85
2, 43738, Note_on_c, 0, 69, 0
2, 43740, Note_on_c, 0, 67, 85
2, 43770, Note_on_c, 0, 67, 0
2, 43800, Note_on_c, 0, 65, 85
2, 43830, Note_on_c, 0, 65, 0
2, 43860, Note_on_c, 0, 64, 85
2, 43890, Note_on_c, 0, 64, 0
2, 43920, Note_on_c, 0, 79, 85
2, 44218, Note_on_c, 0, 79, 0
2, 44220, Note_on_c, 0, 81, 85
2, 44278, Note_on_c, 0, 81, 0
2, 44280, Note_on_c, 0, 79, 85
2, 44338, Note_on_c, 0, 79, 0
2, 44340, Note_on_c, 0, 76, 85
2, 44398, Note_on_c, 0, 76, 0
2, 44400, Note_on_c, 0, 85, 85
2, 44458, Note_on_c, 0, 85, 0
2, 44460, Note_on_c, 0, 86, 85
2, 44490, Note_on_c, 0, 86, 0
2, 44520, Note_on_c, 0, 85, 85
2, 44550, Note_on_c, 0, 85, 0
2, 44580, Note_on_c, 0, 82, 85
2, 44610, Note_on_c, 0, 82, 0
2, 44640, Note_on_c, 0, 86, 80
2, 44698, Note_on_c, 0, 86, 0
2, 44700, Note_on_c, 0, 88, 81
2, 44758, Note_on_c, 0, 88, 0
2, 44760, Note_on_c, 0, 86, 81
2, 44818, Note_on_c, 0, 86, 0
2, 44820, Note_on_c, 0, 81, 82
2, 44878, Note_on_c, 0, 81, 0
2, 44880, Note_on_c, 0, 88, 83
2, 44938, Note_on_c, 0, 88, 0
2, 44940, Note_on_c, 0, 89, 83
2, 44998, Note_on_c, 0, 89, 0
2, 45000, Note_on_c, 0, 88, 84
2, 45058, Note_on_c, 0, 88, 0
2, 45060, Note_on_c, 0, 81, 85
2, 45118, Note_on_c, 0, 81, 0
2, 45120, Note_on_c, 0, 89, 85
2, 45178, Note_on_c, 0, 89, 0
2, 45180, Note_on_c, 0, 86, 86
2, 45210, Note_on_c, 0, 86, 0
2, 45240, Note_on_c, 0, 85, 87
2, 45270, Note_on_c, 0, 85, 0
2, 45300, Note_on_c, 0, 86, 87
2, 45330, Note_on_c, 0, 86, 0
2, 45360, Note_on_c, 0, 84, 88
2, 45418, Note_on_c, 0, 84, 0
2, 45420, Note_on_c, 0, 82, 85
2, 45450, Note_on_c, 0, 82, 0
2, 45480, Note_on_c, 0, 81, 85
2, 45510, Note_on_c, 0, 81, 0
2, 45540, Note_on_c, 0, 79, 85
2, 45570, Note_on_c, 0, 79, 0
2, 45600, Note_on_c, 0, 77, 85
2, 45838, Note_on_c, 0, 77, 0
2, 45840, Note_on_c, 0, 76, 69
2, 45864, Note_on_c, 0, 76, 0
2, 45870, Note_on_c, 0, 77, 69
2, 45894, Note_on_c, 0, 77, 0
2, 45900, Note_on_c, 0, 76, 70
2, 45924, Note_on_c, 0, 76, 0
2, 45930, Note_on_c, 0, 77, 71
2, 45954, Note_on_c, 0, 77, 0
2, 45960, Note_on_c, 0, 76, 72
2, 45976, Note_on_c, 0, 76, 0
2, 45980, Note_on_c, 0, 77, 72
2, 45996, Note_on_c, 0, 77, 0
2, 46000, Note_on_c, 0, 76, 73
2, 46016, Note_on_c, 0, 76, 0
2, 46020, Note_on_c, 0, 74, 73
2, 46044, Note_on_c, 0, 74, 0
2, 46050, Note_on_c, 0, 76, 74
2, 46074, Note_on_c, 0, 76, 0
2, 46080, Note_on_c, 0, 74, 85
2, 46530, Note_on_c, 0, 74, 0
2, 46560, Note_on_c, 0, 69, 85
2, 46738, Note_on_c, 0, 69, 0
2, 46740, Note_on_c, 0, 66, 85
2, 46798, Note_on_c, 0, 66, 0
2, 46800, Note_on_c, 0, 74, 85
2, 47016, Note_on_c, 0, 74, 0
2, 47040, Note_on_c, 0, 74, 72
2, 47184, Note_on_c, 0, 74, 0
2, 47280, Note_on_c, 0, 76, 85
2, 47338, Note_on_c, 0, 76, 0
2, 47340, Note_on_c, 0, 74, 85
2, 47398, Note_on_c, 0, 74, 0
2, 47400, Note_on_c, 0, 73, 85
2, 47458, Note_on_c, 0, 73, 0
2, 47460, Note_on_c, 0, 74, 85
2, 47518, Note_on_c, 0, 74, 0
2, 47520, Note_on_c, 0, 73, 85
2, 47698, Note_on_c, 0, 73, 0
2, 47700, Note_on_c, 0, 76, 85
2, 47758, Note_on_c, 0, 76, 0
2, 47760, Note_on_c, 0, 79, 85
2, 48180, Note_on_c, 0, 79, 0
2, 48180, Note_on_c, 0, 76, 85
2, 48238, Note_on_c, 0, 76, 0
2, 48240, Note_on_c, 0, 78, 85
2, 48418, Note_on_c, 0, 78, 0
2, 48420, Note_on_c, 0, 74, 85
2, 48478, Note_on_c, 0, 74, 0
2, 48480, Note_on_c, 0, 81, 85
2, 48658, Note_on_c, 0, 81, 0
2, 48660, Note_on_c, 0, 78, 85
2, 48718, Note_on_c, 0, 78, 0
2, 48720, Note_on_c, 0, 83, 85
2, 48898, Note_on_c, 0, 83, 0
2, 48900, Note_on_c, 0, 79, 85
2, 48958, Note_on_c, 0, 79, 0
2, 48960, Note_on_c, 0, 78, 85
2, 49198, Note_on_c, 0, 78, 0
2, 49200, Note_on_c, 0, 76, 72
2, 49320, Note_on_c, 0, 76, 0
2, 49440, Note_on_c, 0, 69, 85
2, 49618, Note_on_c, 0, 69, 0
2, 49620, Note_on_c, 0, 66, 85
2, 49678, Note_on_c, 0, 66, 0
2, 49680, Note_on_c, 0, 74, 85
2, 49896, Note_on_c, 0, 74, 0
2, 49920, Note_on_c, 0, 74, 72
2, 50088, Note_on_c, 0, 74, 0
2, 50160, Note_on_c, 0, 76, 85
2, 50218, Note_on_c, 0, 76, 0
2, 50220, Note_on_c, 0, 74, 85
2, 50278, Note_on_c, 0, 74, 0
2, 50280, Note_on_c, 0, 73, 85
2, 50338, Note_on_c, 0, 73, 0
2, 50340, Note_on_c, 0, 74, 85
2, 50398, Note_on_c, 0, 74, 0
2, 50400, Note_on_c, 0, 73, 85
2, 50578, Note_on_c, 0, 73, 0
2, 50580, Note_on_c, 0, 76, 85
2, 50638, Note_on_c, 0, 76, 0
2, 50640, Note_on_c, 0, 79, 85
2, 50818, Note_on_c, 0, 79, 0
2, 50820, Note_on_c, 0, 76, 85
2, 50878, Note_on_c, 0, 76, 0
2, 50880, Note_on_c, 0, 78, 85
2, 51058, Note_on_c, 0, 78, 0
2, 51060, Note_on_c, 0, 74, 85
2, 51118, Note_on_c, 0, 74, 0
2, 51120, Note_on_c, 0, 71, 85
2, 51358, Note_on_c, 0, 71, 0
2, 51360, Note_on_c, 0, 76, 85
2, 51480, Note_on_c, 0, 76, 0
2, 51600, Note_on_c, 0, 74, 85
2, 51600, Note_on_c, 0, 67, 80
2, 51658, Note_on_c, 0, 74, 0
2, 51660, Note_on_c, 0, 73, 85
2, 51690, Note_on_c, 0, 73, 0
2, 51720, Note_on_c, 0, 71, 85
2, 51750, Note_on_c, 0, 71, 0
2, 51780, Note_on_c, 0, 73, 85
2, 51792, Note_on_c, 0, 67, 0
2, 51810, Note_on_c, 0, 73, 0
2, 51840, Note_on_c, 0, 66, 85
2, 51840, Note_on_c, 0, 74, 85
2, 52078, Note_on_c, 0, 74, 0
2, 52078, Note_on_c, 0, 66, 0
2, 52320, Note_on_c, 0, 66, 85
2, 52378, Note_on_c, 0, 66, 0
2, 52380, Note_on_c, 0, 62, 85
2, 52410, Note_on_c, 0, 62, 0
2, 52440, Note_on_c, 0, 69, 85
2, 52470, Note_on_c, 0, 69, 0
2, 52500, Note_on_c, 0, 66, 85
2, 52530, Note_on_c, 0, 66, 0
2, 52560, Note_on_c, 0, 74, 80
2, 52608, Note_on_c, 0, 74, 0
2, 52620, Note_on_c, 0, 69, 80
2, 52668, Note_on_c, 0, 69, 0
2, 52680, Note_on_c, 0, 71, 80
2, 52728, Note_on_c, 0, 71, 0
2, 52740, Note_on_c, 0, 73, 80
2, 52788, Note_on_c, 0, 73, 0
2, 52800, Note_on_c, 0, 74, 80
2, 52848, Note_on_c, 0, 74, 0
2, 52860, Note_on_c, 0, 76, 80
2, 52908, Note_on_c, 0, 76, 0
2, 52920, Note_on_c, 0, 78, 80
2, 52968, Note_on_c, 0, 78, 0
2, 52980, Note_on_c, 0, 79, 80
2, 53028, Note_on_c, 0, 79, 0
2, 53040, Note_on_c, 0, 81, 80
2, 53088, Note_on_c, 0, 81, 0
2, 53100, Note_on_c, 0, 78, 80
2, 53130, Note_on_c, 0, 78, 0
2, 53160, Note_on_c, 0, 76, 80
2, 53190, Note_on_c, 0, 76, 0
2, 53220, Note_on_c, 0, 74, 80
2, 53250, Note_on_c, 0, 74, 0
2, 53280, Note_on_c, 0, 73, 85
2, 53338, Note_on_c, 0, 73, 0
2, 53340, Note_on_c, 0, 74, 85
2, 53398, Note_on_c, 0, 74, 0
2, 53400, Note_on_c, 0, 76, 85
2, 53458, Note_on_c, 0, 76, 0
2, 53460, Note_on_c, 0, 78, 85
2, 53518, Note_on_c, 0, 78, 0
2, 53520, Note_on_c, 0, 79, 85
2, 53578, Note_on_c, 0, 79, 0
2, 53580, Note_on_c, 0, 76, 85
2, 53638, Note_on_c, 0, 76, 0
2, 53640, Note_on_c, 0, 79, 85
2, 53698, Note_on_c, 0, 79, 0
2, 53700, Note_on_c, 0, 81, 85
2, 53758, Note_on_c, 0, 81, 0
2, 53760, Note_on_c, 0, 83, 85
2, 53818, Note_on_c, 0, 83, 0
2, 53820, Note_on_c, 0, 79, 85
2, 53850, Note_on_c, 0, 79, 0
2, 53880, Note_on_c, 0, 78, 85
2, 53910, Note_on_c, 0, 78, 0
2, 53940, Note_on_c, 0, 76, 85
2, 53970, Note_on_c, 0, 76, 0
2, 54000, Note_on_c, 0, 78, 85
2, 54058, Note_on_c, 0, 78, 0
2, 54060, Note_on_c, 0, 74, 85
2, 54118, Note_on_c, 0, 74, 0
2, 54120, Note_on_c, 0, 76, 85
2, 54178, Note_on_c, 0, 76, 0
2, 54180, Note_on_c, 0, 78, 85
2, 54238, Note_on_c, 0, 78, 0
2, 54240, Note_on_c, 0, 79, 85
2, 54298, Note_on_c, 0, 79, 0
2, 54300, Note_on_c, 0, 81, 85
2, 54358, Note_on_c, 0, 81, 0
2, 54360, Note_on_c, 0, 83, 85
2, 54418, Note_on_c, 0, 83, 0
2, 54420, Note_on_c, 0, 85, 85
2, 54478, Note_on_c, 0, 85, 0
2, 54480, Note_on_c, 0, 86, 85
2, 54538, Note_on_c, 0, 86, 0
2, 54540, Note_on_c, 0, 83, 85
2, 54570, Note_on_c, 0, 83, 0
2, 54600, Note_on_c, 0, 81, 85
2, 54630, Note_on_c, 0, 81, 0
2, 54660, Note_on_c, 0, 79, 85
2, 54690, Note_on_c, 0, 79, 0
2, 54720, Note_on_c, 0, 74, 85
2, 54720, Note_on_c, 0, 78, 85
2, 54958, Note_on_c, 0, 78, 0
2, 54958, Note_on_c, 0, 74, 0
2, 54960, Note_on_c, 0, 73, 72
2, 54960, Note_on_c, 0, 76, 72
2, 55080, Note_on_c, 0, 76, 0
2, 55080, Note_on_c, 0, 73, 0
2, 55200, Note_on_c, 0, 66, 85
2, 55258, Note_on_c, 0, 66, 0
2, 55260, Note_on_c, 0, 62, 85
2, 55290, Note_on_c, 0, 62, 0
2, 55320, Note_on_c, 0, 69, 85
2, 55350, Note_on_c, 0, 69, 0
2, 55380, Note_on_c, 0, 66, 85
2, 55410, Note_on_c, 0, 66, 0
2, 55440, Note_on_c, 0, 74, 85
2, 55498, Note_on_c, 0, 74, 0
2, 55500, Note_on_c, 0, 69, 85
2, 55558, Note_on_c, 0, 69, 0
2, 55560, Note_on_c, 0, 71, 85
2, 55618, Note_on_c, 0, 71, 0
2, 55620, Note_on_c, 0, 73, 85
2, 55678, Note_on_c, 0, 73, 0
2, 55680, Note_on_c, 0, 74, 85
2, 55738, Note_on_c, 0, 74, 0
2, 55740, Note_on_c, 0, 76, 85
2, 55798, Note_on_c, 0, 76, 0
2, 55800, Note_on_c, 0, 78, 85
2, 55858, Note_on_c, 0, 78, 0
2, 55860, Note_on_c, 0, 79, 85
2, 55918, Note_on_c, 0, 79, 0
2, 55920, Note_on_c, 0, 81, 85
2, 55978, Note_on_c, 0, 81, 0
2, 55980, Note_on_c, 0, 78, 85
2, 56010, Note_on_c, 0, 78, 0
2, 56040, Note_on_c, 0, 76, 85
2, 56070, Note_on_c, 0, 76, 0
2, 56100, Note_on_c, 0, 74, 85
2, 56130, Note_on_c, 0, 74, 0
2, 56160, Note_on_c, 0, 73, 85
2, 56218, Note_on_c, 0, 73, 0
2, 56220, Note_on_c, 0, 74, 85
2, 56278, Note_on_c, 0, 74, 0
2, 56280, Note_on_c, 0, 76, 85
2, 56338, Note_on_c, 0, 76, 0
2, 56340, Note_on_c, 0, 78, 85
2, 56398, Note_on_c, 0, 78, 0
2, 56400, Note_on_c, 0, 79, 85
2, 56458, Note_on_c, 0, 79, 0
2, 56460, Note_on_c, 0, 78, 85
2, 56518, Note_on_c, 0, 78, 0
2, 56520, Note_on_c, 0, 76, 85
2, 56578, Note_on_c, 0, 76, 0
2, 56580, Note_on_c, 0, 74, 85
2, 56638, Note_on_c, 0, 74, 0
2, 56640, Note_on_c, 0, 73, 85
2, 56698, Note_on_c, 0, 73, 0
2, 56700, Note_on_c, 0, 71, 85
2, 56730, Note_on_c, 0, 71, 0
2, 56760, Note_on_c, 0, 69, 85
2, 56790, Note_on_c, 0, 69, 0
2, 56820, Note_on_c, 0, 67, 85
2, 56850, Note_on_c, 0, 67, 0
2, 56880, Note_on_c, 0, 66, 85
2, 56938, Note_on_c, 0, 66, 0
2, 56940, Note_on_c, 0, 69, 85
2, 56998, Note_on_c, 0, 69, 0
2, 57000, Note_on_c, 0, 67, 85
2, 57058, Note_on_c, 0, 67, 0
2, 57060, Note_on_c, 0, 66, 85
2, 57118, Note_on_c, 0, 66, 0
2, 57120, Note_on_c, 0, 64, 85
2, 57178, Note_on_c, 0, 64, 0
2, 57180, Note_on_c, 0, 71, 85
2, 57238, Note_on_c, 0, 71, 0
2, 57240, Note_on_c, 0, 69, 85
2, 57298, Note_on_c, 0, 69, 0
2, 57300, Note_on_c, 0, 67, 85
2, 57358, Note_on_c, 0, 67, 0
2, 57360, Note_on_c, 0, 66, 85
2, 57418, Note_on_c, 0, 66, 0
2, 57420, Note_on_c, 0, 64, 85
2, 57450, Note_on_c, 0, 64, 0
2, 57480, Note_on_c, 0, 62, 85
2, 57510, Note_on_c, 0, 62, 0
2, 57540, Note_on_c, 0, 61, 85
2, 57570, Note_on_c, 0, 61, 0
2, 57600, Note_on_c, 0, 62, 85
2, 57838, Note_on_c, 0, 62, 0
2, 58080, Note_on_c, 0, 78, 85
2, 58138, Note_on_c, 0, 78, 0
2, 58140, Note_on_c, 0, 74, 85
2, 58170, Note_on_c, 0, 74, 0
2, 58200, Note_on_c, 0, 81, 85
2, 58230, Note_on_c, 0, 81, 0
2, 58260, Note_on_c, 0, 78, 85
2, 58290, Note_on_c, 0, 78, 0
2, 58320, Note_on_c, 0, 86, 85
2, 58378, Note_on_c, 0, 86, 0
2, 58380, Note_on_c, 0, 81, 85
2, 58438, Note_on_c, 0, 81, 0
2, 58440, Note_on_c, 0, 78, 85
2, 58498, Note_on_c, 0, 78, 0
2, 58500, Note_on_c, 0, 74, 85
2, 58558, Note_on_c, 0, 74, 0
2, 58560, Note_on_c, 0, 71, 85
2, 58618, Note_on_c, 0, 71, 0
2, 58620, Note_on_c, 0, 74, 85
2, 58678, Note_on_c, 0, 74, 0
2, 58680, Note_on_c, 0, 76, 85
2, 58738, Note_on_c, 0, 76, 0
2, 58740, Note_on_c, 0, 80, 85
2, 58798, Note_on_c, 0, 80, 0
2, 58800, Note_on_c, 0, 73, 85
2, 58858, Note_on_c, 0, 73, 0
2, 58860, Note_on_c, 0, 76, 85
2, 58890, Note_on_c, 0, 76, 0
2, 58920, Note_on_c, 0, 81, 85
2, 58950, Note_on_c, 0, 81, 0
2, 58980, Note_on_c, 0, 85, 85
2, 59010, Note_on_c, 0, 85, 0
2, 59040, Note_on_c, 0, 71, 85
2, 59098, Note_on_c, 0, 71, 0
2, 59100, Note_on_c, 0, 74, 85
2, 59158, Note_on_c, 0, 74, 0
2, 59160, Note_on_c, 0, 79, 85
2, 59218, Note_on_c, 0, 79, 0
2, 59220, Note_on_c, 0, 83, 85
2, 59278, Note_on_c, 0, 83, 0
2, 59280, Note_on_c, 0, 69, 85
2, 59338, Note_on_c, 0, 69, 0
2, 59340, Note_on_c, 0, 73, 85
2, 59398, Note_on_c, 0, 73, 0
2, 59400, Note_on_c, 0, 78, 85
2, 59458, Note_on_c, 0, 78, 0
2, 59460, Note_on_c, 0, 81, 85
2, 59518, Note_on_c, 0, 81, 0
2, 59520, Note_on_c, 0, 67, 85
2, 59578, Note_on_c, 0, 67, 0
2, 59580, Note_on_c, 0, 71, 85
2, 59610, Note_on_c, 0, 71, 0
2, 59640, Note_on_c, 0, 76, 85
2, 59670, Note_on_c, 0, 76, 0
2, 59700, Note_on_c, 0, 79, 85
2, 59730, Note_on_c, 0, 79, 0
2, 59760, Note_on_c, 0, 66, 85
2, 59818, Note_on_c, 0, 66, 0
2, 59820, Note_on_c, 0, 69, 85
2, 59878, Note_on_c, 0, 69, 0
2, 59880, Note_on_c, 0, 74, 85
2, 59938, Note_on_c, 0, 74, 0
2, 59940, Note_on_c, 0, 78, 85
2, 59998, Note_on_c, 0, 78, 0
2, 60000, Note_on_c, 0, 64, 85
2, 60058, Note_on_c, 0, 64, 0
2, 60060, Note_on_c, 0, 67, 85
2, 60118, Note_on_c, 0, 67, 0
2, 60120, Note_on_c, 0, 73, 85
2, 60178, Note_on_c, 0, 73, 0
2, 60180, Note_on_c, 0, 79, 85
2, 60238, Note_on_c, 0, 79, 0
2, 60240, Note_on_c, 0, 62, 85
2, 60298, Note_on_c, 0, 62, 0
2, 60300, Note_on_c, 0, 69, 85
2, 60330, Note_on_c, 0, 69, 0
2, 60360, Note_on_c, 0, 78, 85
2, 60390, Note_on_c, 0, 78, 0
2, 60420, Note_on_c, 0, 86, 85
2, 60450, Note_on_c, 0, 86, 0
2, 60480, Note_on_c, 0, 69, 85
2, 60480, Note_on_c, 0, 78, 85
2, 60480, Note_on_c, 0, 74, 85
2, 60718, Note_on_c, 0, 74, 0
2, 60718, Note_on_c, 0, 78, 0
2, 60718, Note_on_c, 0, 69, 0
2, 60720, Note_on_c, 0, 57, 72
2, 60720, Note_on_c, 0, 76, 72
2, 60720, Note_on_c, 0, 73, 72
2, 60840, Note_on_c, 0, 73, 0
2, 60840, Note_on_c, 0, 76, 0
2, 60840, Note_on_c, 0, 57, 0
2, 60960, Note_on_c, 0, 78, 85
2, 61018, Note_on_c, 0, 78, 0
2, 61020, Note_on_c, 0, 74, 85
2, 61050, Note_on_c, 0, 74, 0
2, 61080, Note_on_c, 0, 81, 85
2, 61110, Note_on_c, 0, 81, 0
2, 61140, Note_on_c, 0, 78, 85
2, 61170, Note_on_c, 0, 78, 0
2, 61200, Note_on_c, 0, 86, 85
2, 61258, Note_on_c, 0, 86, 0
2, 61260, Note_on_c, 0, 81, 85
2, 61318, Note_on_c, 0, 81, 0
2, 61320, Note_on_c, 0, 78, 85
2, 61378, Note_on_c, 0, 78, 0
2, 61380, Note_on_c, 0, 74, 85
2, 61438, Note_on_c, 0, 74, 0
2, 61440, Note_on_c, 0, 71, 85
2, 61498, Note_on_c, 0, 71, 0
2, 61500, Note_on_c, 0, 74, 85
2, 61558, Note_on_c, 0, 74, 0
2, 61560, Note_on_c, 0, 76, 85
2, 61618, Note_on_c, 0, 76, 0
2, 61620, Note_on_c, 0, 80, 85
2, 61678, Note_on_c, 0, 80, 0
2, 61680, Note_on_c, 0, 73, 85
2, 61738, Note_on_c, 0, 73, 0
2, 61740, Note_on_c, 0, 76, 85
2, 61770, Note_on_c, 0, 76, 0
2, 61800, Note_on_c, 0, 81, 85
2, 61830, Note_on_c, 0, 81, 0
2, 61860, Note_on_c, 0, 85, 85
2, 61890, Note_on_c, 0, 85, 0
2, 61920, Note_on_c, 0, 71, 85
2, 61978, Note_on_c, 0, 71, 0
2, 61980, Note_on_c, 0, 74, 85
2, 62038, Note_on_c, 0, 74, 0
2, 62040, Note_on_c, 0, 79, 85
2, 62098, Note_on_c, 0, 79, 0
2, 62100, Note_on_c, 0, 83, 85
2, 62158, Note_on_c, 0, 83, 0
2, 62160, Note_on_c, 0, 69, 85
2, 62218, Note_on_c, 0, 69, 0
2, 62220, Note_on_c, 0, 73, 85
2, 62278, Note_on_c, 0, 73, 0
2, 62280, Note_on_c, 0, 78, 85
2, 62338, Note_on_c, 0, 78, 0
2, 62340, Note_on_c, 0, 81, 85
2, 62398, Note_on_c, 0, 81, 0
2, 62400, Note_on_c, 0, 67, 85
2, 62458, Note_on_c, 0, 67, 0
2, 62460, Note_on_c, 0, 71, 85
2, 62490, Note_on_c, 0, 71, 0
2, 62520, Note_on_c, 0, 76, 85
2, 62550, Note_on_c, 0, 76, 0
2, 62580, Note_on_c, 0, 79, 85
2, 62610, Note_on_c, 0, 79, 0
2, 62640, Note_on_c, 0, 66, 85
2, 62698, Note_on_c, 0, 66, 0
2, 62700, Note_on_c, 0, 69, 85
2, 62758, Note_on_c, 0, 69, 0
2, 62760, Note_on_c, 0, 74, 85
2, 62818, Note_on_c, 0, 74, 0
2, 62820, Note_on_c, 0, 78, 85
2, 62878, Note_on_c, 0, 78, 0
2, 62880, Note_on_c, 0, 67, 85
2, 62938, Note_on_c, 0, 67, 0
2, 62940, Note_on_c, 0, 71, 85
2, 62998, Note_on_c, 0, 71, 0
2, 63000, Note_on_c, 0, 76, 85
2, 63058, Note_on_c, 0, 76, 0
2, 63060, Note_on_c, 0, 79, 85
2, 63118, Note_on_c, 0, 79, 0
2, 63120, Note_on_c, 0, 57, 85
2, 63178, Note_on_c, 0, 57, 0
2, 63180, Note_on_c, 0, 64, 85
2, 63210, Note_on_c, 0, 64, 0
2, 63240, Note_on_c, 0, 67, 85
2, 63270, Note_on_c, 0, 67, 0
2, 63300, Note_on_c, 0, 73, 85
2, 63330, Note_on_c, 0, 73, 0
2, 63360, Note_on_c, 0, 74, 85
2, 63360, Note_on_c, 0, 66, 85
2, 63598, Note_on_c, 0, 66, 0
2, 63598, Note_on_c, 0, 74, 0
2, 63598, End_track
3, 0, Start_track
3, 0, MIDI_port, 0
3, 0, Title_t, "by F.J. Haydn (3rd mvmt - minuet)"
3, 0, Program_c, 1, 0
3, 0, Control_c, 1, 7, 120
3, 0, Control_c, 1, 10, 56
3, 720, Note_on_c, 1, 62, 85
3, 936, Note_on_c, 1, 62, 0
3, 960, Note_on_c, 1, 66, 72
3, 1104, Note_on_c, 1, 66, 0
3, 1200, Note_on_c, 1, 62, 85
3, 1438, Note_on_c, 1, 62, 0
3, 1440, Note_on_c, 1, 69, 85
3, 1678, Note_on_c, 1, 69, 0
3, 1680, Note_on_c, 1, 57, 85
3, 1918, Note_on_c, 1, 57, 0
3, 1920, Note_on_c, 1, 61, 85
3, 2158, Note_on_c, 1, 61, 0
3, 2160, Note_on_c, 1, 62, 85
3, 2398, Note_on_c, 1, 62, 0
3, 2400, Note_on_c, 1, 66, 85
3, 2638, Note_on_c, 1, 66, 0
3, 2640, Note_on_c, 1, 67, 85
3, 2878, Note_on_c, 1, 67, 0
3, 2880, Note_on_c, 1, 69, 85
3, 3118, Note_on_c, 1, 69, 0
3, 3120, Note_on_c, 1, 57, 72
3, 3240, Note_on_c, 1, 57, 0
3, 3600, Note_on_c, 1, 62, 85
3, 3816, Note_on_c, 1, 62, 0
3, 3840, Note_on_c, 1, 66, 72
3, 4008, Note_on_c, 1, 66, 0
3, 4080, Note_on_c, 1, 62, 85
3, 4318, Note_on_c, 1, 62, 0
3, 4320, Note_on_c, 1, 69, 85
3, 4558, Note_on_c, 1, 69, 0
3, 4560, Note_on_c, 1, 61, 85
3, 4798, Note_on_c, 1, 61, 0
3, 4800, Note_on_c, 1, 62, 85
3, 5038, Note_on_c, 1, 62, 0
3, 5040, Note_on_c, 1, 55, 85
3, 5040, Note_on_c, 1, 67, 85
3, 5518, Note_on_c, 1, 67, 0
3, 5518, Note_on_c, 1, 55, 0
3, 5520, Note_on_c, 1, 57, 85
3, 5520, Note_on_c, 1, 64, 85
3, 5758, Note_on_c, 1, 64, 0
3, 5758, Note_on_c, 1, 57, 0
3, 5760, Note_on_c, 1, 62, 85
3, 5998, Note_on_c, 1, 62, 0
3, 6000, Note_on_c, 1, 50, 72
3, 6120, Note_on_c, 1, 50, 0
3, 6720, Note_on_c, 1, 74, 85
3, 6958, Note_on_c, 1, 74, 0
3, 6960, Note_on_c, 1, 73, 85
3, 7198, Note_on_c, 1, 73, 0
3, 7200, Note_on_c, 1, 71, 85
3, 7438, Note_on_c, 1, 71, 0
3, 7440, Note_on_c, 1, 69, 85
3, 7678, Note_on_c, 1, 69, 0
3, 7680, Note_on_c, 1, 67, 85
3, 7918, Note_on_c, 1, 67, 0
3, 7920, Note_on_c, 1, 66, 85
3, 8158, Note_on_c, 1, 66, 0
3, 8160, Note_on_c, 1, 64, 85
3, 8398, Note_on_c, 1, 64, 0
3, 8400, Note_on_c, 1, 62, 85
3, 8638, Note_on_c, 1, 62, 0
3, 8640, Note_on_c, 1, 69, 85
3, 8878, Note_on_c, 1, 69, 0
3, 8880, Note_on_c, 1, 57, 72
3, 9000, Note_on_c, 1, 57, 0
3, 9600, Note_on_c, 1, 74, 85
3, 9838, Note_on_c, 1, 74, 0
3, 9840, Note_on_c, 1, 73, 85
3, 10078, Note_on_c, 1, 73, 0
3, 10080, Note_on_c, 1, 71, 85
3, 10318, Note_on_c, 1, 71, 0
3, 10320, Note_on_c, 1, 69, 85
3, 10558, Note_on_c, 1, 69, 0
3, 10560, Note_on_c, 1, 67, 85
3, 10798, Note_on_c, 1, 67, 0
3, 10800, Note_on_c, 1, 66, 85
3, 11038, Note_on_c, 1, 66, 0
3, 11040, Note_on_c, 1, 69, 72
3, 11278, Note_on_c, 1, 69, 0
3, 11280, Note_on_c, 1, 57, 85
3, 11518, Note_on_c, 1, 57, 0
3, 11520, Note_on_c, 1, 62, 85
3, 11758, Note_on_c, 1, 62, 0
3, 11760, Note_on_c, 1, 50, 72
3, 11880, Note_on_c, 1, 50, 0
3, 12480, Note_on_c, 1, 53, 64
3, 12648, Note_on_c, 1, 53, 0
3, 12720, Note_on_c, 1, 50, 64
3, 12888, Note_on_c, 1, 50, 0
3, 12960, Note_on_c, 1, 52, 64
3, 13438, Note_on_c, 1, 52, 0
3, 13440, Note_on_c, 1, 49, 64
3, 13678, Note_on_c, 1, 49, 0
3, 13680, Note_on_c, 1, 50, 64
3, 13918, Note_on_c, 1, 50, 0
3, 13920, Note_on_c, 1, 41, 64
3, 14158, Note_on_c, 1, 41, 0
3, 14160, Note_on_c, 1, 43, 64
3, 14398, Note_on_c, 1, 43, 0
3, 14400, Note_on_c, 1, 45, 64
3, 14638, Note_on_c, 1, 45, 0
3, 14640, Note_on_c, 1, 33, 56
3, 14760, Note_on_c, 1, 33, 0
3, 15120, Note_on_c, 1, 53, 85
3, 15120, Note_on_c, 1, 57, 85
3, 15120, Note_on_c, 1, 60, 85
3, 15598, Note_on_c, 1, 60, 0
3, 15598, Note_on_c, 1, 57, 0
3, 15598, Note_on_c, 1, 53, 0
3, 15600, Note_on_c, 1, 63, 85
3, 15600, Note_on_c, 1, 65, 85
3, 15838, Note_on_c, 1, 65, 0
3, 15838, Note_on_c, 1, 63, 0
3, 15840, Note_on_c, 1, 65, 80
3, 15840, Note_on_c, 1, 62, 80
3, 16078, Note_on_c, 1, 62, 0
3, 16080, Note_on_c, 1, 58, 83
3, 16318, Note_on_c, 1, 58, 0
3, 16318, Note_on_c, 1, 65, 0
3, 16320, Note_on_c, 1, 55, 85
3, 16320, Note_on_c, 1, 58, 85
3, 16320, Note_on_c, 1, 58, 85
3, 16320, Note_on_c, 1, 55, 85
3, 16558, Note_on_c, 1, 55, 0
3, 16558, Note_on_c, 1, 55, 0
3, 16558, Note_on_c, 1, 58, 0
3, 16558, Note_on_c, 1, 58, 0
3, 16560, Note_on_c, 1, 57, 127
3, 16560, Note_on_c, 1, 60, 127
3, 16798, Note_on_c, 1, 60, 0
3, 16798, Note_on_c, 1, 57, 0
3, 16800, Note_on_c, 1, 60, 85
3, 17038, Note_on_c, 1, 60, 0
3, 17040, Note_on_c, 1, 48, 85
3, 17278, Note_on_c, 1, 48, 0
3, 17280, Note_on_c, 1, 53, 85
3, 17518, Note_on_c, 1, 53, 0
3, 17520, Note_on_c, 1, 41, 72
3, 17640, Note_on_c, 1, 41, 0
3, 18240, Note_on_c, 1, 69, 64
3, 18240, Note_on_c, 1, 72, 64
3, 18478, Note_on_c, 1, 72, 0
3, 18478, Note_on_c, 1, 69, 0
3, 18480, Note_on_c, 1, 67, 64
3, 18480, Note_on_c, 1, 70, 64
3, 18718, Note_on_c, 1, 70, 0
3, 18718, Note_on_c, 1, 67, 0
3, 18720, Note_on_c, 1, 66, 64
3, 18720, Note_on_c, 1, 69, 64
3, 19198, Note_on_c, 1, 69, 0
3, 19198, Note_on_c, 1, 66, 0
3, 19200, Note_on_c, 1, 67, 64
3, 19200, Note_on_c, 1, 74, 64
3, 19438, Note_on_c, 1, 74, 0
3, 19438, Note_on_c, 1, 67, 0
3, 19440, Note_on_c, 1, 72, 64
3, 19440, Note_on_c, 1, 64, 64
3, 19678, Note_on_c, 1, 64, 0
3, 19680, Note_on_c, 1, 65, 64
3, 19918, Note_on_c, 1, 65, 0
3, 19918, Note_on_c, 1, 72, 0
3, 19920, Note_on_c, 1, 55, 64
3, 19920, Note_on_c, 1, 67, 64
3, 20158, Note_on_c, 1, 67, 0
3, 20158, Note_on_c, 1, 55, 0
3, 20160, Note_on_c, 1, 57, 64
3, 20160, Note_on_c, 1, 64, 64
3, 20520, Note_on_c, 1, 64, 0
3, 20520, Note_on_c, 1, 57, 0
3, 21120, Note_on_c, 1, 58, 85
3, 21120, Note_on_c, 1, 61, 85
3, 21358, Note_on_c, 1, 61, 0
3, 21358, Note_on_c, 1, 58, 0
3, 21360, Note_on_c, 1, 55, 85
3, 21360, Note_on_c, 1, 58, 85
3, 21598, Note_on_c, 1, 58, 0
3, 21598, Note_on_c, 1, 55, 0
3, 21600, Note_on_c, 1, 53, 80
3, 21600, Note_on_c, 1, 57, 80
3, 21600, Note_on_c, 1, 62, 80
3, 21838, Note_on_c, 1, 62, 0
3, 21838, Note_on_c, 1, 57, 0
3, 21838, Note_on_c, 1, 53, 0
3, 21840, Note_on_c, 1, 52, 83
3, 21840, Note_on_c, 1, 55, 83
3, 22078, Note_on_c, 1, 55, 0
3, 22078, Note_on_c, 1, 52, 0
3, 22080, Note_on_c, 1, 50, 85
3, 22080, Note_on_c, 1, 53, 85
3, 22080, Note_on_c, 1, 62, 85
3, 22318, Note_on_c, 1, 62, 0
3, 22318, Note_on_c, 1, 53, 0
3, 22318, Note_on_c, 1, 50, 0
3, 22320, Note_on_c, 1, 55, 88
3, 22558, Note_on_c, 1, 55, 0
3, 22560, Note_on_c, 1, 57, 85
3, 22798, Note_on_c, 1, 57, 0
3, 22800, Note_on_c, 1, 45, 85
3, 23038, Note_on_c, 1, 45, 0
3, 23040, Note_on_c, 1, 50, 80
3, 23232, Note_on_c, 1, 50, 0
3, 23280, Note_on_c, 1, 38, 72
3, 23400, Note_on_c, 1, 38, 0
3, 23760, Note_on_c, 1, 62, 85
3, 23998, Note_on_c, 1, 62, 0
3, 24000, Note_on_c, 1, 66, 85
3, 24238, Note_on_c, 1, 66, 0
3, 24240, Note_on_c, 1, 62, 85
3, 24478, Note_on_c, 1, 62, 0
3, 24480, Note_on_c, 1, 69, 85
3, 24718, Note_on_c, 1, 69, 0
3, 24720, Note_on_c, 1, 57, 85
3, 24958, Note_on_c, 1, 57, 0
3, 24960, Note_on_c, 1, 61, 85
3, 25198, Note_on_c, 1, 61, 0
3, 25200, Note_on_c, 1, 62, 85
3, 25438, Note_on_c, 1, 62, 0
3, 25440, Note_on_c, 1, 66, 85
3, 25678, Note_on_c, 1, 66, 0
3, 25680, Note_on_c, 1, 67, 85
3, 25918, Note_on_c, 1, 67, 0
3, 25920, Note_on_c, 1, 69, 85
3, 26158, Note_on_c, 1, 69, 0
3, 26160, Note_on_c, 1, 57, 72
3, 26280, Note_on_c, 1, 57, 0
3, 26640, Note_on_c, 1, 62, 85
3, 26878, Note_on_c, 1, 62, 0
3, 26880, Note_on_c, 1, 66, 85
3, 27118, Note_on_c, 1, 66, 0
3, 27120, Note_on_c, 1, 62, 85
3, 27358, Note_on_c, 1, 62, 0
3, 27360, Note_on_c, 1, 69, 85
3, 27598, Note_on_c, 1, 69, 0
3, 27600, Note_on_c, 1, 61, 85
3, 27838, Note_on_c, 1, 61, 0
3, 27840, Note_on_c, 1, 62, 85
3, 28078, Note_on_c, 1, 62, 0
3, 28080, Note_on_c, 1, 55, 85
3, 28318, Note_on_c, 1, 55, 0
3, 28320, Note_on_c, 1, 57, 85
3, 28558, Note_on_c, 1, 57, 0
3, 28560, Note_on_c, 1, 45, 85
3, 28798, Note_on_c, 1, 45, 0
3, 28800, Note_on_c, 1, 50, 85
3, 29038, Note_on_c, 1, 50, 0
3, 29040, Note_on_c, 1, 38, 72
3, 29160, Note_on_c, 1, 38, 0
3, 29760, Note_on_c, 1, 62, 85
3, 30000, Note_on_c, 1, 62, 0
3, 30000, Note_on_c, 1, 61, 85
3, 30240, Note_on_c, 1, 61, 0
3, 30240, Note_on_c, 1, 59, 85
3, 30480, Note_on_c, 1, 59, 0
3, 30480, Note_on_c, 1, 57, 85
3, 30720, Note_on_c, 1, 57, 0
3, 30720, Note_on_c, 1, 55, 85
3, 30960, Note_on_c, 1, 55, 0
3, 30960, Note_on_c, 1, 54, 85
3, 31200, Note_on_c, 1, 54, 0
3, 31200, Note_on_c, 1, 52, 85
3, 31440, Note_on_c, 1, 52, 0
3, 31440, Note_on_c, 1, 50, 85
3, 31680, Note_on_c, 1, 50, 0
3, 31680, Note_on_c, 1, 57, 85
3, 31918, Note_on_c, 1, 57, 0
3, 31920, Note_on_c, 1, 45, 72
3, 32040, Note_on_c, 1, 45, 0
3, 32640, Note_on_c, 1, 74, 85
3, 32880, Note_on_c, 1, 74, 0
3, 32880, Note_on_c, 1, 73, 85
3, 33120, Note_on_c, 1, 73, 0
3, 33120, Note_on_c, 1, 71, 85
3, 33360, Note_on_c, 1, 71, 0
3, 33360, Note_on_c, 1, 69, 85
3, 33600, Note_on_c, 1, 69, 0
3, 33600, Note_on_c, 1, 67, 85
3, 33840, Note_on_c, 1, 67, 0
3, 33840, Note_on_c, 1, 66, 85
3, 34018, Note_on_c, 1, 66, 0
3, 34020, Note_on_c, 1, 67, 85
3, 34078, Note_on_c, 1, 67, 0
3, 34080, Note_on_c, 1, 69, 85
3, 34318, Note_on_c, 1, 69, 0
3, 34320, Note_on_c, 1, 57, 85
3, 34558, Note_on_c, 1, 57, 0
3, 34560, Note_on_c, 1, 62, 85
3, 34798, Note_on_c, 1, 62, 0
3, 34800, Note_on_c, 1, 50, 72
3, 34920, Note_on_c, 1, 50, 0
3, 35520, Note_on_c, 1, 53, 64
3, 35758, Note_on_c, 1, 53, 0
3, 35760, Note_on_c, 1, 50, 64
3, 35998, Note_on_c, 1, 50, 0
3, 36000, Note_on_c, 1, 52, 64
3, 36238, Note_on_c, 1, 52, 0
3, 36240, Note_on_c, 1, 47, 64
3, 36478, Note_on_c, 1, 47, 0
3, 36480, Note_on_c, 1, 49, 64
3, 36718, Note_on_c, 1, 49, 0
3, 36720, Note_on_c, 1, 50, 64
3, 36958, Note_on_c, 1, 50, 0
3, 36960, Note_on_c, 1, 41, 64
3, 37198, Note_on_c, 1, 41, 0
3, 37200, Note_on_c, 1, 43, 64
3, 37438, Note_on_c, 1, 43, 0
3, 37440, Note_on_c, 1, 45, 64
3, 37678, Note_on_c, 1, 45, 0
3, 37680, Note_on_c, 1, 33, 56
3, 37800, Note_on_c, 1, 33, 0
3, 38160, Note_on_c, 1, 53, 85
3, 38160, Note_on_c, 1, 57, 85
3, 38160, Note_on_c, 1, 60, 85
3, 38638, Note_on_c, 1, 60, 0
3, 38638, Note_on_c, 1, 57, 0
3, 38638, Note_on_c, 1, 53, 0
3, 38640, Note_on_c, 1, 63, 85
3, 38640, Note_on_c, 1, 65, 85
3, 38878, Note_on_c, 1, 65, 0
3, 38878, Note_on_c, 1, 63, 0
3, 38880, Note_on_c, 1, 65, 80
3, 38880, Note_on_c, 1, 62, 80
3, 39118, Note_on_c, 1, 62, 0
3, 39120, Note_on_c, 1, 58, 83
3, 39358, Note_on_c, 1, 58, 0
3, 39358, Note_on_c, 1, 65, 0
3, 39360, Note_on_c, 1, 55, 85
3, 39360, Note_on_c, 1, 58, 85
3, 39598, Note_on_c, 1, 58, 0
3, 39598, Note_on_c, 1, 55, 0
3, 39600, Note_on_c, 1, 57, 88
3, 39600, Note_on_c, 1, 60, 88
3, 39838, Note_on_c, 1, 60, 0
3, 39838, Note_on_c, 1, 57, 0
3, 39840, Note_on_c, 1, 60, 85
3, 40078, Note_on_c, 1, 60, 0
3, 40080, Note_on_c, 1, 48, 85
3, 40318, Note_on_c, 1, 48, 0
3, 40320, Note_on_c, 1, 53, 85
3, 40558, Note_on_c, 1, 53, 0
3, 40560, Note_on_c, 1, 41, 72
3, 40680, Note_on_c, 1, 41, 0
3, 41280, Note_on_c, 1, 69, 64
3, 41280, Note_on_c, 1, 72, 64
3, 41518, Note_on_c, 1, 72, 0
3, 41518, Note_on_c, 1, 69, 0
3, 41520, Note_on_c, 1, 67, 64
3, 41520, Note_on_c, 1, 70, 64
3, 41758, Note_on_c, 1, 70, 0
3, 41758, Note_on_c, 1, 67, 0
3, 41760, Note_on_c, 1, 66, 64
3, 41760, Note_on_c, 1, 69, 64
3, 42238, Note_on_c, 1, 69, 0
3, 42238, Note_on_c, 1, 66, 0
3, 42240, Note_on_c, 1, 67, 64
3, 42240, Note_on_c, 1, 74, 64
3, 42478, Note_on_c, 1, 74, 0
3, 42478, Note_on_c, 1, 67, 0
3, 42480, Note_on_c, 1, 72, 64
3, 42480, Note_on_c, 1, 64, 64
3, 42718, Note_on_c, 1, 64, 0
3, 42720, Note_on_c, 1, 65, 64
3, 42958, Note_on_c, 1, 65, 0
3, 42958, Note_on_c, 1, 72, 0
3, 42960, Note_on_c, 1, 55, 64
3, 42960, Note_on_c, 1, 67, 64
3, 43198, Note_on_c, 1, 67, 0
3, 43198, Note_on_c, 1, 55, 0
3, 43200, Note_on_c, 1, 57, 64
3, 43200, Note_on_c, 1, 64, 64
3, 43560, Note_on_c, 1, 64, 0
3, 43560, Note_on_c, 1, 57, 0
3, 44160, Note_on_c, 1, 58, 85
3, 44160, Note_on_c, 1, 61, 85
3, 44398, Note_on_c, 1, 61, 0
3, 44398, Note_on_c, 1, 58, 0
3, 44400, Note_on_c, 1, 55, 85
3, 44400, Note_on_c, 1, 58, 85
3, 44638, Note_on_c, 1, 58, 0
3, 44638, Note_on_c, 1, 55, 0
3, 44640, Note_on_c, 1, 53, 80
3, 44640, Note_on_c, 1, 57, 80
3, 44640, Note_on_c, 1, 62, 80
3, 44878, Note_on_c, 1, 62, 0
3, 44878, Note_on_c, 1, 57, 0
3, 44878, Note_on_c, 1, 53, 0
3, 44880, Note_on_c, 1, 52, 83
3, 44880, Note_on_c, 1, 55, 83
3, 44880, Note_on_c, 1, 61, 83
3, 45118, Note_on_c, 1, 61, 0
3, 45118, Note_on_c, 1, 55, 0
3, 45118, Note_on_c, 1, 52, 0
3, 45120, Note_on_c, 1, 50, 85
3, 45120, Note_on_c, 1, 53, 85
3, 45120, Note_on_c, 1, 62, 85
3, 45358, Note_on_c, 1, 62, 0
3, 45358, Note_on_c, 1, 53, 0
3, 45358, Note_on_c, 1, 50, 0
3, 45360, Note_on_c, 1, 55, 88
3, 45598, Note_on_c, 1, 55, 0
3, 45600, Note_on_c, 1, 57, 85
3, 45838, Note_on_c, 1, 57, 0
3, 45840, Note_on_c, 1, 45, 85
3, 46078, Note_on_c, 1, 45, 0
3, 46080, Note_on_c, 1, 50, 85
3, 46318, Note_on_c, 1, 50, 0
3, 46320, Note_on_c, 1, 38, 72
3, 46440, Note_on_c, 1, 38, 0
3, 46800, Note_on_c, 1, 62, 85
3, 47016, Note_on_c, 1, 62, 0
3, 47040, Note_on_c, 1, 66, 72
3, 47184, Note_on_c, 1, 66, 0
3, 47280, Note_on_c, 1, 62, 85
3, 47518, Note_on_c, 1, 62, 0
3, 47520, Note_on_c, 1, 69, 85
3, 47758, Note_on_c, 1, 69, 0
3, 47760, Note_on_c, 1, 57, 85
3, 47998, Note_on_c, 1, 57, 0
3, 48000, Note_on_c, 1, 61, 85
3, 48238, Note_on_c, 1, 61, 0
3, 48240, Note_on_c, 1, 62, 85
3, 48478, Note_on_c, 1, 62, 0
3, 48480, Note_on_c, 1, 66, 85
3, 48718, Note_on_c, 1, 66, 0
3, 48720, Note_on_c, 1, 67, 85
3, 48958, Note_on_c, 1, 67, 0
3, 48960, Note_on_c, 1, 69, 85
3, 49198, Note_on_c, 1, 69, 0
3, 49200, Note_on_c, 1, 57, 72
3, 49320, Note_on_c, 1, 57, 0
3, 49680, Note_on_c, 1, 62, 85
3, 49896, Note_on_c, 1, 62, 0
3, 49920, Note_on_c, 1, 66, 72
3, 50088, Note_on_c, 1, 66, 0
3, 50160, Note_on_c, 1, 62, 85
3, 50398, Note_on_c, 1, 62, 0
3, 50400, Note_on_c, 1, 69, 85
3, 50638, Note_on_c, 1, 69, 0
3, 50640, Note_on_c, 1, 61, 85
3, 50878, Note_on_c, 1, 61, 0
3, 50880, Note_on_c, 1, 62, 85
3, 51118, Note_on_c, 1, 62, 0
3, 51120, Note_on_c, 1, 67, 85
3, 51120, Note_on_c, 1, 55, 85
3, 51598, Note_on_c, 1, 55, 0
3, 51598, Note_on_c, 1, 67, 0
3, 51600, Note_on_c, 1, 64, 85
3, 51600, Note_on_c, 1, 57, 85
3, 51838, Note_on_c, 1, 57, 0
3, 51838, Note_on_c, 1, 64, 0
3, 51840, Note_on_c, 1, 62, 85
3, 52078, Note_on_c, 1, 62, 0
3, 52080, Note_on_c, 1, 50, 72
3, 52200, Note_on_c, 1, 50, 0
3, 52800, Note_on_c, 1, 66, 85
3, 53038, Note_on_c, 1, 66, 0
3, 53040, Note_on_c, 1, 62, 85
3, 53278, Note_on_c, 1, 62, 0
3, 53280, Note_on_c, 1, 64, 85
3, 53518, Note_on_c, 1, 64, 0
3, 53520, Note_on_c, 1, 61, 85
3, 53758, Note_on_c, 1, 61, 0
3, 53760, Note_on_c, 1, 57, 85
3, 53998, Note_on_c, 1, 57, 0
3, 54000, Note_on_c, 1, 62, 85
3, 54238, Note_on_c, 1, 62, 0
3, 54240, Note_on_c, 1, 59, 85
3, 54478, Note_on_c, 1, 59, 0
3, 54480, Note_on_c, 1, 55, 85
3, 54718, Note_on_c, 1, 55, 0
3, 54720, Note_on_c, 1, 57, 85
3, 54958, Note_on_c, 1, 57, 0
3, 54960, Note_on_c, 1, 45, 72
3, 55080, Note_on_c, 1, 45, 0
3, 55680, Note_on_c, 1, 66, 85
3, 55918, Note_on_c, 1, 66, 0
3, 55920, Note_on_c, 1, 62, 85
3, 56158, Note_on_c, 1, 62, 0
3, 56160, Note_on_c, 1, 64, 85
3, 56398, Note_on_c, 1, 64, 0
3, 56400, Note_on_c, 1, 57, 85
3, 56638, Note_on_c, 1, 57, 0
3, 56640, Note_on_c, 1, 61, 85
3, 56878, Note_on_c, 1, 61, 0
3, 56880, Note_on_c, 1, 62, 85
3, 57118, Note_on_c, 1, 62, 0
3, 57120, Note_on_c, 1, 55, 85
3, 57358, Note_on_c, 1, 55, 0
3, 57360, Note_on_c, 1, 45, 85
3, 57360, Note_on_c, 1, 57, 85
3, 57598, Note_on_c, 1, 57, 0
3, 57598, Note_on_c, 1, 45, 0
3, 57600, Note_on_c, 1, 50, 85
3, 57838, Note_on_c, 1, 50, 0
3, 57840, Note_on_c, 1, 38, 72
3, 57960, Note_on_c, 1, 38, 0
3, 63360, Note_on_c, 1, 62, 85
3, 63598, Note_on_c, 1, 62, 0
3, 63600, Note_on_c, 1, 50, 85
3, 63838, Note_on_c, 1, 50, 0
3, 63838, End_track
4, 0, Start_track
4, 0, MIDI_port, 0
4, 0, Title_t, "      repeat sections omitted"
4, 0, End_track
5, 0, Start_track
5, 0, MIDI_port, 0
5, 0, Title_t, "MIDI by Marty Weimer 7/6/96"
5, 0, End_track
6, 0, Start_track
6, 0, MIDI_port, 0
6, 0, Title_t, "weimermt@libby.org  Eureka, MT  USA"
6, 0, End_track
0, 0, End_of_file
