0, 0, Header, 1, 5, 240
1, 0, Start_track
1, 0, Time_signature, 3, 2, 24, 8
1, 0, Key_signature, 0, "major"
1, 0, Tempo, 545455
1, 72960, Tempo, 600000
1, 73200, Tempo, 666667
1, 73440, Tempo, 750000
1, 74160, Tempo, 545455
1, 74160, End_track
2, 0, Start_track
2, 0, MIDI_port, 0
2, 0, Title_t, "Piano Sonata No. 32 in b"
2, 0, Program_c, 0, 0
2, 0, Control_c, 0, 7, 127
2, 0, Control_c, 0, 10, 72
2, 480, Note_on_c, 0, 80, 80
2, 528, Note_on_c, 0, 80, 0
2, 540, Note_on_c, 0, 78, 80
2, 570, Note_on_c, 0, 78, 0
2, 600, Note_on_c, 0, 76, 80
2, 630, Note_on_c, 0, 76, 0
2, 660, Note_on_c, 0, 75, 80
2, 690, Note_on_c, 0, 75, 0
2, 720, Note_on_c, 0, 73, 80
2, 898, Note_on_c, 0, 73, 0
2, 900, Note_on_c, 0, 71, 80
2, 958, Note_on_c, 0, 71, 0
2, 960, Note_on_c, 0, 83, 80
2, 1380, Note_on_c, 0, 83, 0
2, 1380, Note_on_c, 0, 82, 80
2, 1438, Note_on_c, 0, 82, 0
2, 1440, Note_on_c, 0, 80, 80
2, 1464, Note_on_c, 0, 80, 0
2, 1470, Note_on_c, 0, 82, 80
2, 1494, Note_on_c, 0, 82, 0
2, 1500, Note_on_c, 0, 80, 80
2, 1524, Note_on_c, 0, 80, 0
2, 1530, Note_on_c, 0, 82, 80
2, 1554, Note_on_c, 0, 82, 0
2, 1560, Note_on_c, 0, 80, 80
2, 1576, Note_on_c, 0, 80, 0
2, 1580, Note_on_c, 0, 82, 80
2, 1596, Note_on_c, 0, 82, 0
2, 1600, Note_on_c, 0, 80, 80
2, 1616, Note_on_c, 0, 80, 0
2, 1620, Note_on_c, 0, 78, 80
2, 1644, Note_on_c, 0, 78, 0
2, 1650, Note_on_c, 0, 80, 80
2, 1674, Note_on_c, 0, 80, 0
2, 1680, Note_on_c, 0, 78, 80
2, 1824, Note_on_c, 0, 78, 0
2, 1920, Note_on_c, 0, 80, 80
2, 1968, Note_on_c, 0, 80, 0
2, 1980, Note_on_c, 0, 78, 80
2, 2010, Note_on_c, 0, 78, 0
2, 2040, Note_on_c, 0, 76, 80
2, 2070, Note_on_c, 0, 76, 0
2, 2100, Note_on_c, 0, 75, 80
2, 2130, Note_on_c, 0, 75, 0
2, 2160, Note_on_c, 0, 73, 80
2, 2338, Note_on_c, 0, 73, 0
2, 2340, Note_on_c, 0, 71, 80
2, 2398, Note_on_c, 0, 71, 0
2, 2400, Note_on_c, 0, 76, 80
2, 2820, Note_on_c, 0, 76, 0
2, 2820, Note_on_c, 0, 75, 80
2, 2878, Note_on_c, 0, 75, 0
2, 2880, Note_on_c, 0, 73, 80
2, 2904, Note_on_c, 0, 73, 0
2, 2910, Note_on_c, 0, 75, 80
2, 2934, Note_on_c, 0, 75, 0
2, 2940, Note_on_c, 0, 73, 80
2, 2964, Note_on_c, 0, 73, 0
2, 2970, Note_on_c, 0, 75, 80
2, 2994, Note_on_c, 0, 75, 0
2, 3000, Note_on_c, 0, 73, 80
2, 3016, Note_on_c, 0, 73, 0
2, 3020, Note_on_c, 0, 75, 80
2, 3036, Note_on_c, 0, 75, 0
2, 3040, Note_on_c, 0, 73, 80
2, 3056, Note_on_c, 0, 73, 0
2, 3060, Note_on_c, 0, 71, 80
2, 3084, Note_on_c, 0, 71, 0
2, 3090, Note_on_c, 0, 73, 80
2, 3114, Note_on_c, 0, 73, 0
2, 3120, Note_on_c, 0, 71, 80
2, 3264, Note_on_c, 0, 71, 0
2, 3360, Note_on_c, 0, 68, 80
2, 3408, Note_on_c, 0, 68, 0
2, 3420, Note_on_c, 0, 66, 80
2, 3450, Note_on_c, 0, 66, 0
2, 3480, Note_on_c, 0, 64, 80
2, 3510, Note_on_c, 0, 64, 0
2, 3540, Note_on_c, 0, 63, 80
2, 3570, Note_on_c, 0, 63, 0
2, 3600, Note_on_c, 0, 61, 80
2, 3778, Note_on_c, 0, 61, 0
2, 3780, Note_on_c, 0, 59, 80
2, 3838, Note_on_c, 0, 59, 0
2, 3840, Note_on_c, 0, 75, 80
2, 4200, Note_on_c, 0, 75, 0
2, 4200, Note_on_c, 0, 75, 80
2, 4318, Note_on_c, 0, 75, 0
2, 4320, Note_on_c, 0, 75, 80
2, 4378, Note_on_c, 0, 75, 0
2, 4380, Note_on_c, 0, 73, 80
2, 4438, Note_on_c, 0, 73, 0
2, 4440, Note_on_c, 0, 72, 80
2, 4498, Note_on_c, 0, 72, 0
2, 4500, Note_on_c, 0, 73, 80
2, 4558, Note_on_c, 0, 73, 0
2, 4560, Note_on_c, 0, 78, 80
2, 4620, Note_on_c, 0, 78, 0
2, 4680, Note_on_c, 0, 78, 80
2, 4740, Note_on_c, 0, 78, 0
2, 4920, Note_on_c, 0, 75, 48
2, 5038, Note_on_c, 0, 75, 0
2, 5040, Note_on_c, 0, 75, 48
2, 5098, Note_on_c, 0, 75, 0
2, 5100, Note_on_c, 0, 73, 48
2, 5158, Note_on_c, 0, 73, 0
2, 5160, Note_on_c, 0, 72, 48
2, 5218, Note_on_c, 0, 72, 0
2, 5220, Note_on_c, 0, 73, 48
2, 5278, Note_on_c, 0, 73, 0
2, 5280, Note_on_c, 0, 78, 48
2, 5352, Note_on_c, 0, 78, 0
2, 5400, Note_on_c, 0, 78, 48
2, 5472, Note_on_c, 0, 78, 0
2, 5640, Note_on_c, 0, 75, 80
2, 5758, Note_on_c, 0, 75, 0
2, 5760, Note_on_c, 0, 75, 80
2, 5818, Note_on_c, 0, 75, 0
2, 5820, Note_on_c, 0, 73, 80
2, 5878, Note_on_c, 0, 73, 0
2, 5880, Note_on_c, 0, 72, 80
2, 5938, Note_on_c, 0, 72, 0
2, 5940, Note_on_c, 0, 73, 80
2, 5998, Note_on_c, 0, 73, 0
2, 6000, Note_on_c, 0, 75, 80
2, 6058, Note_on_c, 0, 75, 0
2, 6060, Note_on_c, 0, 77, 80
2, 6118, Note_on_c, 0, 77, 0
2, 6120, Note_on_c, 0, 78, 80
2, 6178, Note_on_c, 0, 78, 0
2, 6180, Note_on_c, 0, 80, 80
2, 6238, Note_on_c, 0, 80, 0
2, 6240, Note_on_c, 0, 82, 80
2, 6298, Note_on_c, 0, 82, 0
2, 6300, Note_on_c, 0, 78, 80
2, 6358, Note_on_c, 0, 78, 0
2, 6360, Note_on_c, 0, 77, 80
2, 6418, Note_on_c, 0, 77, 0
2, 6420, Note_on_c, 0, 78, 80
2, 6478, Note_on_c, 0, 78, 0
2, 6480, Note_on_c, 0, 77, 80
2, 6528, Note_on_c, 0, 77, 0
2, 6540, Note_on_c, 0, 75, 80
2, 6588, Note_on_c, 0, 75, 0
2, 6600, Note_on_c, 0, 73, 80
2, 6648, Note_on_c, 0, 73, 0
2, 6660, Note_on_c, 0, 71, 80
2, 6708, Note_on_c, 0, 71, 0
2, 6720, Note_on_c, 0, 70, 80
2, 6912, Note_on_c, 0, 70, 0
2, 6960, Note_on_c, 0, 68, 80
2, 6984, Note_on_c, 0, 68, 0
2, 6990, Note_on_c, 0, 70, 80
2, 7014, Note_on_c, 0, 70, 0
2, 7020, Note_on_c, 0, 68, 80
2, 7044, Note_on_c, 0, 68, 0
2, 7050, Note_on_c, 0, 70, 80
2, 7074, Note_on_c, 0, 70, 0
2, 7080, Note_on_c, 0, 68, 80
2, 7096, Note_on_c, 0, 68, 0
2, 7100, Note_on_c, 0, 70, 80
2, 7116, Note_on_c, 0, 70, 0
2, 7120, Note_on_c, 0, 68, 80
2, 7136, Note_on_c, 0, 68, 0
2, 7140, Note_on_c, 0, 66, 80
2, 7164, Note_on_c, 0, 66, 0
2, 7170, Note_on_c, 0, 68, 80
2, 7194, Note_on_c, 0, 68, 0
2, 7200, Note_on_c, 0, 66, 80
2, 7678, Note_on_c, 0, 66, 0
2, 7680, Note_on_c, 0, 80, 80
2, 7728, Note_on_c, 0, 80, 0
2, 7740, Note_on_c, 0, 78, 80
2, 7770, Note_on_c, 0, 78, 0
2, 7800, Note_on_c, 0, 76, 80
2, 7830, Note_on_c, 0, 76, 0
2, 7860, Note_on_c, 0, 75, 80
2, 7890, Note_on_c, 0, 75, 0
2, 7920, Note_on_c, 0, 73, 80
2, 8098, Note_on_c, 0, 73, 0
2, 8100, Note_on_c, 0, 71, 80
2, 8158, Note_on_c, 0, 71, 0
2, 8160, Note_on_c, 0, 83, 80
2, 8580, Note_on_c, 0, 83, 0
2, 8580, Note_on_c, 0, 82, 80
2, 8638, Note_on_c, 0, 82, 0
2, 8640, Note_on_c, 0, 80, 80
2, 8664, Note_on_c, 0, 80, 0
2, 8670, Note_on_c, 0, 82, 80
2, 8694, Note_on_c, 0, 82, 0
2, 8700, Note_on_c, 0, 80, 80
2, 8724, Note_on_c, 0, 80, 0
2, 8730, Note_on_c, 0, 82, 80
2, 8754, Note_on_c, 0, 82, 0
2, 8760, Note_on_c, 0, 80, 80
2, 8776, Note_on_c, 0, 80, 0
2, 8780, Note_on_c, 0, 82, 80
2, 8796, Note_on_c, 0, 82, 0
2, 8800, Note_on_c, 0, 80, 80
2, 8816, Note_on_c, 0, 80, 0
2, 8820, Note_on_c, 0, 78, 80
2, 8844, Note_on_c, 0, 78, 0
2, 8850, Note_on_c, 0, 80, 80
2, 8874, Note_on_c, 0, 80, 0
2, 8880, Note_on_c, 0, 78, 80
2, 9024, Note_on_c, 0, 78, 0
2, 9120, Note_on_c, 0, 80, 80
2, 9168, Note_on_c, 0, 80, 0
2, 9180, Note_on_c, 0, 78, 80
2, 9210, Note_on_c, 0, 78, 0
2, 9240, Note_on_c, 0, 76, 80
2, 9270, Note_on_c, 0, 76, 0
2, 9300, Note_on_c, 0, 75, 80
2, 9330, Note_on_c, 0, 75, 0
2, 9360, Note_on_c, 0, 73, 80
2, 9538, Note_on_c, 0, 73, 0
2, 9540, Note_on_c, 0, 71, 80
2, 9598, Note_on_c, 0, 71, 0
2, 9600, Note_on_c, 0, 76, 80
2, 10020, Note_on_c, 0, 76, 0
2, 10020, Note_on_c, 0, 75, 80
2, 10078, Note_on_c, 0, 75, 0
2, 10080, Note_on_c, 0, 73, 80
2, 10104, Note_on_c, 0, 73, 0
2, 10110, Note_on_c, 0, 75, 80
2, 10134, Note_on_c, 0, 75, 0
2, 10140, Note_on_c, 0, 73, 80
2, 10164, Note_on_c, 0, 73, 0
2, 10170, Note_on_c, 0, 75, 80
2, 10194, Note_on_c, 0, 75, 0
2, 10200, Note_on_c, 0, 73, 80
2, 10216, Note_on_c, 0, 73, 0
2, 10220, Note_on_c, 0, 75, 80
2, 10236, Note_on_c, 0, 75, 0
2, 10240, Note_on_c, 0, 73, 80
2, 10256, Note_on_c, 0, 73, 0
2, 10260, Note_on_c, 0, 71, 80
2, 10284, Note_on_c, 0, 71, 0
2, 10290, Note_on_c, 0, 73, 80
2, 10314, Note_on_c, 0, 73, 0
2, 10320, Note_on_c, 0, 71, 80
2, 10464, Note_on_c, 0, 71, 0
2, 10560, Note_on_c, 0, 68, 80
2, 10608, Note_on_c, 0, 68, 0
2, 10620, Note_on_c, 0, 66, 80
2, 10650, Note_on_c, 0, 66, 0
2, 10680, Note_on_c, 0, 64, 80
2, 10710, Note_on_c, 0, 64, 0
2, 10740, Note_on_c, 0, 63, 80
2, 10770, Note_on_c, 0, 63, 0
2, 10800, Note_on_c, 0, 61, 80
2, 10978, Note_on_c, 0, 61, 0
2, 10980, Note_on_c, 0, 59, 80
2, 11038, Note_on_c, 0, 59, 0
2, 11040, Note_on_c, 0, 75, 80
2, 11400, Note_on_c, 0, 75, 0
2, 11400, Note_on_c, 0, 75, 80
2, 11518, Note_on_c, 0, 75, 0
2, 11520, Note_on_c, 0, 75, 80
2, 11578, Note_on_c, 0, 75, 0
2, 11580, Note_on_c, 0, 73, 80
2, 11638, Note_on_c, 0, 73, 0
2, 11640, Note_on_c, 0, 72, 80
2, 11698, Note_on_c, 0, 72, 0
2, 11700, Note_on_c, 0, 73, 80
2, 11758, Note_on_c, 0, 73, 0
2, 11760, Note_on_c, 0, 78, 80
2, 11820, Note_on_c, 0, 78, 0
2, 11880, Note_on_c, 0, 78, 80
2, 11940, Note_on_c, 0, 78, 0
2, 12120, Note_on_c, 0, 75, 48
2, 12238, Note_on_c, 0, 75, 0
2, 12240, Note_on_c, 0, 75, 48
2, 12298, Note_on_c, 0, 75, 0
2, 12300, Note_on_c, 0, 73, 48
2, 12358, Note_on_c, 0, 73, 0
2, 12360, Note_on_c, 0, 72, 48
2, 12418, Note_on_c, 0, 72, 0
2, 12420, Note_on_c, 0, 73, 48
2, 12478, Note_on_c, 0, 73, 0
2, 12480, Note_on_c, 0, 78, 48
2, 12552, Note_on_c, 0, 78, 0
2, 12600, Note_on_c, 0, 78, 48
2, 12672, Note_on_c, 0, 78, 0
2, 12840, Note_on_c, 0, 75, 80
2, 12958, Note_on_c, 0, 75, 0
2, 12960, Note_on_c, 0, 75, 80
2, 13018, Note_on_c, 0, 75, 0
2, 13020, Note_on_c, 0, 73, 80
2, 13078, Note_on_c, 0, 73, 0
2, 13080, Note_on_c, 0, 72, 80
2, 13138, Note_on_c, 0, 72, 0
2, 13140, Note_on_c, 0, 73, 80
2, 13198, Note_on_c, 0, 73, 0
2, 13200, Note_on_c, 0, 75, 80
2, 13258, Note_on_c, 0, 75, 0
2, 13260, Note_on_c, 0, 77, 80
2, 13318, Note_on_c, 0, 77, 0
2, 13320, Note_on_c, 0, 78, 80
2, 13378, Note_on_c, 0, 78, 0
2, 13380, Note_on_c, 0, 80, 80
2, 13438, Note_on_c, 0, 80, 0
2, 13440, Note_on_c, 0, 82, 80
2, 13498, Note_on_c, 0, 82, 0
2, 13500, Note_on_c, 0, 78, 80
2, 13558, Note_on_c, 0, 78, 0
2, 13560, Note_on_c, 0, 77, 80
2, 13618, Note_on_c, 0, 77, 0
2, 13620, Note_on_c, 0, 78, 80
2, 13678, Note_on_c, 0, 78, 0
2, 13680, Note_on_c, 0, 77, 80
2, 13728, Note_on_c, 0, 77, 0
2, 13740, Note_on_c, 0, 75, 80
2, 13788, Note_on_c, 0, 75, 0
2, 13800, Note_on_c, 0, 73, 80
2, 13848, Note_on_c, 0, 73, 0
2, 13860, Note_on_c, 0, 71, 80
2, 13908, Note_on_c, 0, 71, 0
2, 13920, Note_on_c, 0, 70, 80
2, 14112, Note_on_c, 0, 70, 0
2, 14160, Note_on_c, 0, 68, 80
2, 14184, Note_on_c, 0, 68, 0
2, 14190, Note_on_c, 0, 70, 80
2, 14214, Note_on_c, 0, 70, 0
2, 14220, Note_on_c, 0, 68, 80
2, 14244, Note_on_c, 0, 68, 0
2, 14250, Note_on_c, 0, 70, 80
2, 14274, Note_on_c, 0, 70, 0
2, 14280, Note_on_c, 0, 68, 80
2, 14296, Note_on_c, 0, 68, 0
2, 14300, Note_on_c, 0, 70, 80
2, 14316, Note_on_c, 0, 70, 0
2, 14320, Note_on_c, 0, 68, 80
2, 14336, Note_on_c, 0, 68, 0
2, 14340, Note_on_c, 0, 66, 80
2, 14364, Note_on_c, 0, 66, 0
2, 14370, Note_on_c, 0, 68, 80
2, 14394, Note_on_c, 0, 68, 0
2, 14400, Note_on_c, 0, 66, 80
2, 14878, Note_on_c, 0, 66, 0
2, 14880, Note_on_c, 0, 68, 80
2, 14928, Note_on_c, 0, 68, 0
2, 14940, Note_on_c, 0, 66, 80
2, 14970, Note_on_c, 0, 66, 0
2, 15000, Note_on_c, 0, 64, 80
2, 15030, Note_on_c, 0, 64, 0
2, 15060, Note_on_c, 0, 63, 80
2, 15090, Note_on_c, 0, 63, 0
2, 15120, Note_on_c, 0, 61, 80
2, 15298, Note_on_c, 0, 61, 0
2, 15300, Note_on_c, 0, 60, 80
2, 15358, Note_on_c, 0, 60, 0
2, 15360, Note_on_c, 0, 69, 80
2, 15720, Note_on_c, 0, 69, 0
2, 15720, Note_on_c, 0, 60, 80
2, 15838, Note_on_c, 0, 60, 0
2, 15840, Note_on_c, 0, 61, 80
2, 15958, Note_on_c, 0, 61, 0
2, 15960, Note_on_c, 0, 64, 80
2, 16020, Note_on_c, 0, 64, 0
2, 16080, Note_on_c, 0, 68, 80
2, 16140, Note_on_c, 0, 68, 0
2, 16200, Note_on_c, 0, 73, 80
2, 16260, Note_on_c, 0, 73, 0
2, 16320, Note_on_c, 0, 78, 80
2, 16368, Note_on_c, 0, 78, 0
2, 16380, Note_on_c, 0, 76, 80
2, 16428, Note_on_c, 0, 76, 0
2, 16440, Note_on_c, 0, 75, 80
2, 16488, Note_on_c, 0, 75, 0
2, 16500, Note_on_c, 0, 73, 80
2, 16548, Note_on_c, 0, 73, 0
2, 16560, Note_on_c, 0, 71, 80
2, 16738, Note_on_c, 0, 71, 0
2, 16740, Note_on_c, 0, 70, 80
2, 16798, Note_on_c, 0, 70, 0
2, 16800, Note_on_c, 0, 80, 80
2, 17160, Note_on_c, 0, 80, 0
2, 17160, Note_on_c, 0, 70, 80
2, 17278, Note_on_c, 0, 70, 0
2, 17280, Note_on_c, 0, 71, 80
2, 17338, Note_on_c, 0, 71, 0
2, 17340, Note_on_c, 0, 73, 80
2, 17398, Note_on_c, 0, 73, 0
2, 17400, Note_on_c, 0, 75, 80
2, 17458, Note_on_c, 0, 75, 0
2, 17460, Note_on_c, 0, 76, 80
2, 17518, Note_on_c, 0, 76, 0
2, 17520, Note_on_c, 0, 78, 80
2, 17578, Note_on_c, 0, 78, 0
2, 17580, Note_on_c, 0, 80, 80
2, 17638, Note_on_c, 0, 80, 0
2, 17640, Note_on_c, 0, 82, 80
2, 17698, Note_on_c, 0, 82, 0
2, 17700, Note_on_c, 0, 83, 80
2, 17758, Note_on_c, 0, 83, 0
2, 17760, Note_on_c, 0, 82, 80
2, 17818, Note_on_c, 0, 82, 0
2, 17820, Note_on_c, 0, 83, 80
2, 17878, Note_on_c, 0, 83, 0
2, 17880, Note_on_c, 0, 82, 80
2, 17938, Note_on_c, 0, 82, 0
2, 17940, Note_on_c, 0, 83, 80
2, 17998, Note_on_c, 0, 83, 0
2, 18000, Note_on_c, 0, 82, 80
2, 18058, Note_on_c, 0, 82, 0
2, 18060, Note_on_c, 0, 80, 80
2, 18118, Note_on_c, 0, 80, 0
2, 18120, Note_on_c, 0, 79, 80
2, 18178, Note_on_c, 0, 79, 0
2, 18180, Note_on_c, 0, 80, 80
2, 18238, Note_on_c, 0, 80, 0
2, 18240, Note_on_c, 0, 78, 80
2, 18298, Note_on_c, 0, 78, 0
2, 18300, Note_on_c, 0, 76, 80
2, 18358, Note_on_c, 0, 76, 0
2, 18360, Note_on_c, 0, 75, 80
2, 18418, Note_on_c, 0, 75, 0
2, 18420, Note_on_c, 0, 76, 80
2, 18478, Note_on_c, 0, 76, 0
2, 18480, Note_on_c, 0, 75, 80
2, 18538, Note_on_c, 0, 75, 0
2, 18540, Note_on_c, 0, 73, 80
2, 18598, Note_on_c, 0, 73, 0
2, 18600, Note_on_c, 0, 72, 80
2, 18658, Note_on_c, 0, 72, 0
2, 18660, Note_on_c, 0, 73, 80
2, 18718, Note_on_c, 0, 73, 0
2, 18720, Note_on_c, 0, 71, 80
2, 18960, Note_on_c, 0, 71, 0
2, 18960, Note_on_c, 0, 70, 80
2, 19080, Note_on_c, 0, 70, 0
2, 19200, Note_on_c, 0, 66, 80
2, 19248, Note_on_c, 0, 66, 0
2, 19260, Note_on_c, 0, 64, 80
2, 19284, Note_on_c, 0, 64, 0
2, 19320, Note_on_c, 0, 63, 80
2, 19344, Note_on_c, 0, 63, 0
2, 19380, Note_on_c, 0, 61, 80
2, 19404, Note_on_c, 0, 61, 0
2, 19440, Note_on_c, 0, 59, 80
2, 19618, Note_on_c, 0, 59, 0
2, 19620, Note_on_c, 0, 58, 80
2, 19678, Note_on_c, 0, 58, 0
2, 19680, Note_on_c, 0, 80, 80
2, 20040, Note_on_c, 0, 80, 0
2, 20040, Note_on_c, 0, 80, 80
2, 20158, Note_on_c, 0, 80, 0
2, 20160, Note_on_c, 0, 80, 80
2, 20218, Note_on_c, 0, 80, 0
2, 20220, Note_on_c, 0, 78, 80
2, 20278, Note_on_c, 0, 78, 0
2, 20280, Note_on_c, 0, 77, 80
2, 20338, Note_on_c, 0, 77, 0
2, 20340, Note_on_c, 0, 78, 80
2, 20398, Note_on_c, 0, 78, 0
2, 20400, Note_on_c, 0, 83, 80
2, 20460, Note_on_c, 0, 83, 0
2, 20520, Note_on_c, 0, 83, 80
2, 20580, Note_on_c, 0, 83, 0
2, 20760, Note_on_c, 0, 80, 48
2, 20878, Note_on_c, 0, 80, 0
2, 20880, Note_on_c, 0, 80, 48
2, 20938, Note_on_c, 0, 80, 0
2, 20940, Note_on_c, 0, 78, 48
2, 20998, Note_on_c, 0, 78, 0
2, 21000, Note_on_c, 0, 77, 48
2, 21058, Note_on_c, 0, 77, 0
2, 21060, Note_on_c, 0, 78, 48
2, 21118, Note_on_c, 0, 78, 0
2, 21120, Note_on_c, 0, 83, 48
2, 21198, Note_on_c, 0, 83, 0
2, 21240, Note_on_c, 0, 83, 48
2, 21318, Note_on_c, 0, 83, 0
2, 21480, Note_on_c, 0, 80, 80
2, 21598, Note_on_c, 0, 80, 0
2, 21600, Note_on_c, 0, 80, 80
2, 21658, Note_on_c, 0, 80, 0
2, 21660, Note_on_c, 0, 78, 80
2, 21718, Note_on_c, 0, 78, 0
2, 21720, Note_on_c, 0, 77, 80
2, 21778, Note_on_c, 0, 77, 0
2, 21780, Note_on_c, 0, 78, 80
2, 21838, Note_on_c, 0, 78, 0
2, 21840, Note_on_c, 0, 83, 80
2, 21898, Note_on_c, 0, 83, 0
2, 21900, Note_on_c, 0, 82, 80
2, 21958, Note_on_c, 0, 82, 0
2, 21960, Note_on_c, 0, 80, 80
2, 22018, Note_on_c, 0, 80, 0
2, 22020, Note_on_c, 0, 78, 80
2, 22078, Note_on_c, 0, 78, 0
2, 22080, Note_on_c, 0, 76, 80
2, 22138, Note_on_c, 0, 76, 0
2, 22140, Note_on_c, 0, 75, 80
2, 22198, Note_on_c, 0, 75, 0
2, 22200, Note_on_c, 0, 73, 80
2, 22258, Note_on_c, 0, 73, 0
2, 22260, Note_on_c, 0, 71, 80
2, 22318, Note_on_c, 0, 71, 0
2, 22320, Note_on_c, 0, 75, 80
2, 22378, Note_on_c, 0, 75, 0
2, 22380, Note_on_c, 0, 73, 80
2, 22438, Note_on_c, 0, 73, 0
2, 22440, Note_on_c, 0, 76, 80
2, 22498, Note_on_c, 0, 76, 0
2, 22500, Note_on_c, 0, 73, 80
2, 22558, Note_on_c, 0, 73, 0
2, 22560, Note_on_c, 0, 71, 80
2, 22798, Note_on_c, 0, 71, 0
2, 22800, Note_on_c, 0, 70, 80
2, 22824, Note_on_c, 0, 70, 0
2, 22830, Note_on_c, 0, 71, 80
2, 22854, Note_on_c, 0, 71, 0
2, 22860, Note_on_c, 0, 70, 80
2, 22884, Note_on_c, 0, 70, 0
2, 22890, Note_on_c, 0, 71, 80
2, 22914, Note_on_c, 0, 71, 0
2, 22920, Note_on_c, 0, 70, 80
2, 22936, Note_on_c, 0, 70, 0
2, 22940, Note_on_c, 0, 71, 80
2, 22956, Note_on_c, 0, 71, 0
2, 22960, Note_on_c, 0, 70, 80
2, 22976, Note_on_c, 0, 70, 0
2, 22980, Note_on_c, 0, 68, 80
2, 23004, Note_on_c, 0, 68, 0
2, 23010, Note_on_c, 0, 70, 80
2, 23034, Note_on_c, 0, 70, 0
2, 23040, Note_on_c, 0, 71, 80
2, 23490, Note_on_c, 0, 71, 0
2, 23520, Note_on_c, 0, 68, 80
2, 23568, Note_on_c, 0, 68, 0
2, 23580, Note_on_c, 0, 66, 80
2, 23610, Note_on_c, 0, 66, 0
2, 23640, Note_on_c, 0, 64, 80
2, 23670, Note_on_c, 0, 64, 0
2, 23700, Note_on_c, 0, 63, 80
2, 23730, Note_on_c, 0, 63, 0
2, 23760, Note_on_c, 0, 61, 80
2, 23938, Note_on_c, 0, 61, 0
2, 23940, Note_on_c, 0, 60, 80
2, 23998, Note_on_c, 0, 60, 0
2, 24000, Note_on_c, 0, 69, 80
2, 24360, Note_on_c, 0, 69, 0
2, 24360, Note_on_c, 0, 60, 80
2, 24478, Note_on_c, 0, 60, 0
2, 24480, Note_on_c, 0, 61, 80
2, 24598, Note_on_c, 0, 61, 0
2, 24600, Note_on_c, 0, 64, 80
2, 24660, Note_on_c, 0, 64, 0
2, 24720, Note_on_c, 0, 68, 80
2, 24780, Note_on_c, 0, 68, 0
2, 24840, Note_on_c, 0, 73, 80
2, 24900, Note_on_c, 0, 73, 0
2, 24960, Note_on_c, 0, 78, 80
2, 25008, Note_on_c, 0, 78, 0
2, 25020, Note_on_c, 0, 76, 80
2, 25068, Note_on_c, 0, 76, 0
2, 25080, Note_on_c, 0, 75, 80
2, 25128, Note_on_c, 0, 75, 0
2, 25140, Note_on_c, 0, 73, 80
2, 25188, Note_on_c, 0, 73, 0
2, 25200, Note_on_c, 0, 71, 80
2, 25378, Note_on_c, 0, 71, 0
2, 25380, Note_on_c, 0, 70, 80
2, 25438, Note_on_c, 0, 70, 0
2, 25440, Note_on_c, 0, 80, 80
2, 25800, Note_on_c, 0, 80, 0
2, 25800, Note_on_c, 0, 70, 80
2, 25918, Note_on_c, 0, 70, 0
2, 25920, Note_on_c, 0, 71, 80
2, 25978, Note_on_c, 0, 71, 0
2, 25980, Note_on_c, 0, 73, 80
2, 26038, Note_on_c, 0, 73, 0
2, 26040, Note_on_c, 0, 75, 80
2, 26098, Note_on_c, 0, 75, 0
2, 26100, Note_on_c, 0, 76, 80
2, 26158, Note_on_c, 0, 76, 0
2, 26160, Note_on_c, 0, 78, 80
2, 26218, Note_on_c, 0, 78, 0
2, 26220, Note_on_c, 0, 80, 80
2, 26278, Note_on_c, 0, 80, 0
2, 26280, Note_on_c, 0, 82, 80
2, 26338, Note_on_c, 0, 82, 0
2, 26340, Note_on_c, 0, 83, 80
2, 26398, Note_on_c, 0, 83, 0
2, 26400, Note_on_c, 0, 82, 80
2, 26458, Note_on_c, 0, 82, 0
2, 26460, Note_on_c, 0, 83, 80
2, 26518, Note_on_c, 0, 83, 0
2, 26520, Note_on_c, 0, 82, 80
2, 26578, Note_on_c, 0, 82, 0
2, 26580, Note_on_c, 0, 83, 80
2, 26638, Note_on_c, 0, 83, 0
2, 26640, Note_on_c, 0, 82, 80
2, 26698, Note_on_c, 0, 82, 0
2, 26700, Note_on_c, 0, 80, 80
2, 26758, Note_on_c, 0, 80, 0
2, 26760, Note_on_c, 0, 79, 80
2, 26818, Note_on_c, 0, 79, 0
2, 26820, Note_on_c, 0, 80, 80
2, 26878, Note_on_c, 0, 80, 0
2, 26880, Note_on_c, 0, 78, 80
2, 26938, Note_on_c, 0, 78, 0
2, 26940, Note_on_c, 0, 76, 80
2, 26998, Note_on_c, 0, 76, 0
2, 27000, Note_on_c, 0, 75, 80
2, 27058, Note_on_c, 0, 75, 0
2, 27060, Note_on_c, 0, 76, 80
2, 27118, Note_on_c, 0, 76, 0
2, 27120, Note_on_c, 0, 75, 80
2, 27178, Note_on_c, 0, 75, 0
2, 27180, Note_on_c, 0, 73, 80
2, 27238, Note_on_c, 0, 73, 0
2, 27240, Note_on_c, 0, 72, 80
2, 27298, Note_on_c, 0, 72, 0
2, 27300, Note_on_c, 0, 73, 80
2, 27358, Note_on_c, 0, 73, 0
2, 27360, Note_on_c, 0, 71, 80
2, 27600, Note_on_c, 0, 71, 0
2, 27600, Note_on_c, 0, 70, 80
2, 27720, Note_on_c, 0, 70, 0
2, 27840, Note_on_c, 0, 66, 80
2, 27888, Note_on_c, 0, 66, 0
2, 27900, Note_on_c, 0, 64, 80
2, 27924, Note_on_c, 0, 64, 0
2, 27960, Note_on_c, 0, 63, 80
2, 27984, Note_on_c, 0, 63, 0
2, 28020, Note_on_c, 0, 61, 80
2, 28044, Note_on_c, 0, 61, 0
2, 28080, Note_on_c, 0, 59, 80
2, 28258, Note_on_c, 0, 59, 0
2, 28260, Note_on_c, 0, 58, 80
2, 28318, Note_on_c, 0, 58, 0
2, 28320, Note_on_c, 0, 80, 80
2, 28680, Note_on_c, 0, 80, 0
2, 28680, Note_on_c, 0, 80, 80
2, 28798, Note_on_c, 0, 80, 0
2, 28800, Note_on_c, 0, 80, 80
2, 28858, Note_on_c, 0, 80, 0
2, 28860, Note_on_c, 0, 78, 80
2, 28918, Note_on_c, 0, 78, 0
2, 28920, Note_on_c, 0, 77, 80
2, 28978, Note_on_c, 0, 77, 0
2, 28980, Note_on_c, 0, 78, 80
2, 29038, Note_on_c, 0, 78, 0
2, 29040, Note_on_c, 0, 83, 80
2, 29100, Note_on_c, 0, 83, 0
2, 29160, Note_on_c, 0, 83, 80
2, 29220, Note_on_c, 0, 83, 0
2, 29400, Note_on_c, 0, 80, 48
2, 29460, Note_on_c, 0, 80, 0
2, 29520, Note_on_c, 0, 80, 48
2, 29578, Note_on_c, 0, 80, 0
2, 29580, Note_on_c, 0, 78, 48
2, 29638, Note_on_c, 0, 78, 0
2, 29640, Note_on_c, 0, 77, 48
2, 29698, Note_on_c, 0, 77, 0
2, 29700, Note_on_c, 0, 78, 48
2, 29758, Note_on_c, 0, 78, 0
2, 29760, Note_on_c, 0, 83, 48
2, 29838, Note_on_c, 0, 83, 0
2, 29880, Note_on_c, 0, 83, 48
2, 29958, Note_on_c, 0, 83, 0
2, 30120, Note_on_c, 0, 80, 80
2, 30238, Note_on_c, 0, 80, 0
2, 30240, Note_on_c, 0, 80, 80
2, 30298, Note_on_c, 0, 80, 0
2, 30300, Note_on_c, 0, 78, 80
2, 30358, Note_on_c, 0, 78, 0
2, 30360, Note_on_c, 0, 77, 80
2, 30418, Note_on_c, 0, 77, 0
2, 30420, Note_on_c, 0, 78, 80
2, 30478, Note_on_c, 0, 78, 0
2, 30480, Note_on_c, 0, 83, 80
2, 30538, Note_on_c, 0, 83, 0
2, 30540, Note_on_c, 0, 82, 80
2, 30598, Note_on_c, 0, 82, 0
2, 30600, Note_on_c, 0, 80, 80
2, 30658, Note_on_c, 0, 80, 0
2, 30660, Note_on_c, 0, 78, 80
2, 30718, Note_on_c, 0, 78, 0
2, 30720, Note_on_c, 0, 76, 80
2, 30778, Note_on_c, 0, 76, 0
2, 30780, Note_on_c, 0, 75, 80
2, 30838, Note_on_c, 0, 75, 0
2, 30840, Note_on_c, 0, 73, 80
2, 30898, Note_on_c, 0, 73, 0
2, 30900, Note_on_c, 0, 71, 80
2, 30958, Note_on_c, 0, 71, 0
2, 30960, Note_on_c, 0, 75, 80
2, 31018, Note_on_c, 0, 75, 0
2, 31020, Note_on_c, 0, 73, 80
2, 31078, Note_on_c, 0, 73, 0
2, 31080, Note_on_c, 0, 76, 80
2, 31138, Note_on_c, 0, 76, 0
2, 31140, Note_on_c, 0, 73, 80
2, 31198, Note_on_c, 0, 73, 0
2, 31200, Note_on_c, 0, 71, 80
2, 31438, Note_on_c, 0, 71, 0
2, 31440, Note_on_c, 0, 70, 80
2, 31464, Note_on_c, 0, 70, 0
2, 31470, Note_on_c, 0, 71, 80
2, 31494, Note_on_c, 0, 71, 0
2, 31500, Note_on_c, 0, 70, 80
2, 31524, Note_on_c, 0, 70, 0
2, 31530, Note_on_c, 0, 71, 80
2, 31554, Note_on_c, 0, 71, 0
2, 31560, Note_on_c, 0, 70, 80
2, 31576, Note_on_c, 0, 70, 0
2, 31580, Note_on_c, 0, 71, 80
2, 31596, Note_on_c, 0, 71, 0
2, 31600, Note_on_c, 0, 70, 80
2, 31616, Note_on_c, 0, 70, 0
2, 31620, Note_on_c, 0, 68, 80
2, 31644, Note_on_c, 0, 68, 0
2, 31650, Note_on_c, 0, 70, 80
2, 31674, Note_on_c, 0, 70, 0
2, 31680, Note_on_c, 0, 71, 80
2, 32130, Note_on_c, 0, 71, 0
2, 32160, Note_on_c, 0, 59, 80
2, 32352, Note_on_c, 0, 59, 0
2, 32400, Note_on_c, 0, 62, 88
2, 32458, Note_on_c, 0, 62, 0
2, 32460, Note_on_c, 0, 54, 51
2, 32518, Note_on_c, 0, 54, 0
2, 32520, Note_on_c, 0, 53, 53
2, 32578, Note_on_c, 0, 53, 0
2, 32580, Note_on_c, 0, 54, 56
2, 32638, Note_on_c, 0, 54, 0
2, 32640, Note_on_c, 0, 59, 59
2, 32698, Note_on_c, 0, 59, 0
2, 32700, Note_on_c, 0, 54, 61
2, 32758, Note_on_c, 0, 54, 0
2, 32760, Note_on_c, 0, 58, 64
2, 32818, Note_on_c, 0, 58, 0
2, 32820, Note_on_c, 0, 54, 67
2, 32878, Note_on_c, 0, 54, 0
2, 32880, Note_on_c, 0, 59, 69
2, 32938, Note_on_c, 0, 59, 0
2, 32940, Note_on_c, 0, 54, 72
2, 32998, Note_on_c, 0, 54, 0
2, 33000, Note_on_c, 0, 61, 75
2, 33058, Note_on_c, 0, 61, 0
2, 33060, Note_on_c, 0, 54, 77
2, 33118, Note_on_c, 0, 54, 0
2, 33120, Note_on_c, 0, 62, 88
2, 33178, Note_on_c, 0, 62, 0
2, 33180, Note_on_c, 0, 54, 51
2, 33238, Note_on_c, 0, 54, 0
2, 33240, Note_on_c, 0, 53, 53
2, 33298, Note_on_c, 0, 53, 0
2, 33300, Note_on_c, 0, 54, 56
2, 33358, Note_on_c, 0, 54, 0
2, 33360, Note_on_c, 0, 59, 59
2, 33418, Note_on_c, 0, 59, 0
2, 33420, Note_on_c, 0, 54, 61
2, 33478, Note_on_c, 0, 54, 0
2, 33480, Note_on_c, 0, 58, 64
2, 33538, Note_on_c, 0, 58, 0
2, 33540, Note_on_c, 0, 54, 67
2, 33598, Note_on_c, 0, 54, 0
2, 33600, Note_on_c, 0, 59, 69
2, 33658, Note_on_c, 0, 59, 0
2, 33660, Note_on_c, 0, 54, 72
2, 33718, Note_on_c, 0, 54, 0
2, 33720, Note_on_c, 0, 61, 75
2, 33778, Note_on_c, 0, 61, 0
2, 33780, Note_on_c, 0, 54, 77
2, 33838, Note_on_c, 0, 54, 0
2, 33840, Note_on_c, 0, 62, 85
2, 33960, Note_on_c, 0, 62, 0
2, 33960, Note_on_c, 0, 58, 64
2, 34020, Note_on_c, 0, 58, 0
2, 34080, Note_on_c, 0, 59, 64
2, 34140, Note_on_c, 0, 59, 0
2, 34200, Note_on_c, 0, 61, 64
2, 34260, Note_on_c, 0, 61, 0
2, 34320, Note_on_c, 0, 62, 64
2, 34380, Note_on_c, 0, 62, 0
2, 34440, Note_on_c, 0, 64, 64
2, 34500, Note_on_c, 0, 64, 0
2, 34560, Note_on_c, 0, 66, 64
2, 34680, Note_on_c, 0, 66, 0
2, 34680, Note_on_c, 0, 64, 67
2, 34728, Note_on_c, 0, 64, 0
2, 34800, Note_on_c, 0, 66, 69
2, 34920, Note_on_c, 0, 66, 0
2, 34920, Note_on_c, 0, 62, 72
2, 34968, Note_on_c, 0, 62, 0
2, 35040, Note_on_c, 0, 64, 75
2, 35088, Note_on_c, 0, 64, 0
2, 35160, Note_on_c, 0, 66, 77
2, 35268, Note_on_c, 0, 66, 0
2, 35280, Note_on_c, 0, 67, 85
2, 35338, Note_on_c, 0, 67, 0
2, 35340, Note_on_c, 0, 59, 85
2, 35398, Note_on_c, 0, 59, 0
2, 35400, Note_on_c, 0, 61, 85
2, 35458, Note_on_c, 0, 61, 0
2, 35460, Note_on_c, 0, 59, 85
2, 35518, Note_on_c, 0, 59, 0
2, 35520, Note_on_c, 0, 67, 85
2, 35578, Note_on_c, 0, 67, 0
2, 35580, Note_on_c, 0, 55, 85
2, 35638, Note_on_c, 0, 55, 0
2, 35640, Note_on_c, 0, 66, 85
2, 35698, Note_on_c, 0, 66, 0
2, 35700, Note_on_c, 0, 55, 85
2, 35758, Note_on_c, 0, 55, 0
2, 35760, Note_on_c, 0, 64, 85
2, 35818, Note_on_c, 0, 64, 0
2, 35820, Note_on_c, 0, 55, 85
2, 35878, Note_on_c, 0, 55, 0
2, 35880, Note_on_c, 0, 62, 85
2, 35938, Note_on_c, 0, 62, 0
2, 35940, Note_on_c, 0, 55, 85
2, 35998, Note_on_c, 0, 55, 0
2, 36000, Note_on_c, 0, 61, 85
2, 36058, Note_on_c, 0, 61, 0
2, 36060, Note_on_c, 0, 55, 85
2, 36118, Note_on_c, 0, 55, 0
2, 36120, Note_on_c, 0, 62, 85
2, 36178, Note_on_c, 0, 62, 0
2, 36180, Note_on_c, 0, 55, 85
2, 36238, Note_on_c, 0, 55, 0
2, 36240, Note_on_c, 0, 64, 85
2, 36298, Note_on_c, 0, 64, 0
2, 36300, Note_on_c, 0, 55, 85
2, 36358, Note_on_c, 0, 55, 0
2, 36360, Note_on_c, 0, 62, 85
2, 36418, Note_on_c, 0, 62, 0
2, 36420, Note_on_c, 0, 55, 85
2, 36478, Note_on_c, 0, 55, 0
2, 36480, Note_on_c, 0, 64, 85
2, 36538, Note_on_c, 0, 64, 0
2, 36540, Note_on_c, 0, 55, 85
2, 36598, Note_on_c, 0, 55, 0
2, 36600, Note_on_c, 0, 61, 85
2, 36658, Note_on_c, 0, 61, 0
2, 36660, Note_on_c, 0, 55, 85
2, 36718, Note_on_c, 0, 55, 0
2, 36720, Note_on_c, 0, 62, 85
2, 36778, Note_on_c, 0, 62, 0
2, 36780, Note_on_c, 0, 57, 85
2, 36838, Note_on_c, 0, 57, 0
2, 36840, Note_on_c, 0, 59, 85
2, 36898, Note_on_c, 0, 59, 0
2, 36900, Note_on_c, 0, 57, 85
2, 36958, Note_on_c, 0, 57, 0
2, 36960, Note_on_c, 0, 59, 85
2, 37018, Note_on_c, 0, 59, 0
2, 37020, Note_on_c, 0, 52, 85
2, 37078, Note_on_c, 0, 52, 0
2, 37080, Note_on_c, 0, 54, 85
2, 37138, Note_on_c, 0, 54, 0
2, 37140, Note_on_c, 0, 52, 85
2, 37198, Note_on_c, 0, 52, 0
2, 37200, Note_on_c, 0, 55, 85
2, 37258, Note_on_c, 0, 55, 0
2, 37260, Note_on_c, 0, 49, 85
2, 37318, Note_on_c, 0, 49, 0
2, 37320, Note_on_c, 0, 50, 85
2, 37378, Note_on_c, 0, 50, 0
2, 37380, Note_on_c, 0, 49, 85
2, 37438, Note_on_c, 0, 49, 0
2, 37440, Note_on_c, 0, 50, 85
2, 37678, Note_on_c, 0, 50, 0
2, 37920, Note_on_c, 0, 59, 80
2, 38112, Note_on_c, 0, 59, 0
2, 38160, Note_on_c, 0, 62, 88
2, 38218, Note_on_c, 0, 62, 0
2, 38220, Note_on_c, 0, 54, 51
2, 38278, Note_on_c, 0, 54, 0
2, 38280, Note_on_c, 0, 53, 53
2, 38338, Note_on_c, 0, 53, 0
2, 38340, Note_on_c, 0, 54, 56
2, 38398, Note_on_c, 0, 54, 0
2, 38400, Note_on_c, 0, 59, 59
2, 38458, Note_on_c, 0, 59, 0
2, 38460, Note_on_c, 0, 54, 61
2, 38518, Note_on_c, 0, 54, 0
2, 38520, Note_on_c, 0, 58, 64
2, 38578, Note_on_c, 0, 58, 0
2, 38580, Note_on_c, 0, 54, 67
2, 38638, Note_on_c, 0, 54, 0
2, 38640, Note_on_c, 0, 59, 69
2, 38698, Note_on_c, 0, 59, 0
2, 38700, Note_on_c, 0, 54, 72
2, 38758, Note_on_c, 0, 54, 0
2, 38760, Note_on_c, 0, 61, 75
2, 38818, Note_on_c, 0, 61, 0
2, 38820, Note_on_c, 0, 54, 77
2, 38878, Note_on_c, 0, 54, 0
2, 38880, Note_on_c, 0, 62, 88
2, 38938, Note_on_c, 0, 62, 0
2, 38940, Note_on_c, 0, 54, 51
2, 38998, Note_on_c, 0, 54, 0
2, 39000, Note_on_c, 0, 53, 53
2, 39058, Note_on_c, 0, 53, 0
2, 39060, Note_on_c, 0, 54, 56
2, 39118, Note_on_c, 0, 54, 0
2, 39120, Note_on_c, 0, 59, 59
2, 39178, Note_on_c, 0, 59, 0
2, 39180, Note_on_c, 0, 54, 61
2, 39238, Note_on_c, 0, 54, 0
2, 39240, Note_on_c, 0, 58, 64
2, 39298, Note_on_c, 0, 58, 0
2, 39300, Note_on_c, 0, 54, 67
2, 39358, Note_on_c, 0, 54, 0
2, 39360, Note_on_c, 0, 59, 69
2, 39418, Note_on_c, 0, 59, 0
2, 39420, Note_on_c, 0, 54, 72
2, 39478, Note_on_c, 0, 54, 0
2, 39480, Note_on_c, 0, 61, 75
2, 39538, Note_on_c, 0, 61, 0
2, 39540, Note_on_c, 0, 54, 77
2, 39598, Note_on_c, 0, 54, 0
2, 39600, Note_on_c, 0, 62, 85
2, 39720, Note_on_c, 0, 62, 0
2, 39720, Note_on_c, 0, 58, 64
2, 39780, Note_on_c, 0, 58, 0
2, 39840, Note_on_c, 0, 59, 64
2, 39900, Note_on_c, 0, 59, 0
2, 39960, Note_on_c, 0, 61, 64
2, 40020, Note_on_c, 0, 61, 0
2, 40080, Note_on_c, 0, 62, 64
2, 40140, Note_on_c, 0, 62, 0
2, 40200, Note_on_c, 0, 64, 64
2, 40260, Note_on_c, 0, 64, 0
2, 40320, Note_on_c, 0, 66, 64
2, 40440, Note_on_c, 0, 66, 0
2, 40440, Note_on_c, 0, 64, 67
2, 40488, Note_on_c, 0, 64, 0
2, 40560, Note_on_c, 0, 66, 69
2, 40680, Note_on_c, 0, 66, 0
2, 40680, Note_on_c, 0, 62, 72
2, 40728, Note_on_c, 0, 62, 0
2, 40800, Note_on_c, 0, 64, 75
2, 40848, Note_on_c, 0, 64, 0
2, 40920, Note_on_c, 0, 66, 77
2, 41028, Note_on_c, 0, 66, 0
2, 41040, Note_on_c, 0, 67, 85
2, 41098, Note_on_c, 0, 67, 0
2, 41100, Note_on_c, 0, 59, 85
2, 41158, Note_on_c, 0, 59, 0
2, 41160, Note_on_c, 0, 61, 85
2, 41218, Note_on_c, 0, 61, 0
2, 41220, Note_on_c, 0, 59, 85
2, 41278, Note_on_c, 0, 59, 0
2, 41280, Note_on_c, 0, 67, 85
2, 41338, Note_on_c, 0, 67, 0
2, 41340, Note_on_c, 0, 55, 85
2, 41398, Note_on_c, 0, 55, 0
2, 41400, Note_on_c, 0, 66, 85
2, 41458, Note_on_c, 0, 66, 0
2, 41460, Note_on_c, 0, 55, 85
2, 41518, Note_on_c, 0, 55, 0
2, 41520, Note_on_c, 0, 64, 85
2, 41578, Note_on_c, 0, 64, 0
2, 41580, Note_on_c, 0, 55, 85
2, 41638, Note_on_c, 0, 55, 0
2, 41640, Note_on_c, 0, 62, 85
2, 41698, Note_on_c, 0, 62, 0
2, 41700, Note_on_c, 0, 55, 85
2, 41758, Note_on_c, 0, 55, 0
2, 41760, Note_on_c, 0, 61, 85
2, 41818, Note_on_c, 0, 61, 0
2, 41820, Note_on_c, 0, 55, 85
2, 41878, Note_on_c, 0, 55, 0
2, 41880, Note_on_c, 0, 62, 85
2, 41938, Note_on_c, 0, 62, 0
2, 41940, Note_on_c, 0, 55, 85
2, 41998, Note_on_c, 0, 55, 0
2, 42000, Note_on_c, 0, 64, 85
2, 42058, Note_on_c, 0, 64, 0
2, 42060, Note_on_c, 0, 55, 85
2, 42118, Note_on_c, 0, 55, 0
2, 42120, Note_on_c, 0, 62, 85
2, 42178, Note_on_c, 0, 62, 0
2, 42180, Note_on_c, 0, 55, 85
2, 42238, Note_on_c, 0, 55, 0
2, 42240, Note_on_c, 0, 64, 85
2, 42298, Note_on_c, 0, 64, 0
2, 42300, Note_on_c, 0, 55, 85
2, 42358, Note_on_c, 0, 55, 0
2, 42360, Note_on_c, 0, 61, 85
2, 42418, Note_on_c, 0, 61, 0
2, 42420, Note_on_c, 0, 55, 85
2, 42478, Note_on_c, 0, 55, 0
2, 42480, Note_on_c, 0, 62, 85
2, 42538, Note_on_c, 0, 62, 0
2, 42540, Note_on_c, 0, 57, 85
2, 42598, Note_on_c, 0, 57, 0
2, 42600, Note_on_c, 0, 59, 85
2, 42658, Note_on_c, 0, 59, 0
2, 42660, Note_on_c, 0, 57, 85
2, 42718, Note_on_c, 0, 57, 0
2, 42720, Note_on_c, 0, 59, 85
2, 42778, Note_on_c, 0, 59, 0
2, 42780, Note_on_c, 0, 52, 85
2, 42838, Note_on_c, 0, 52, 0
2, 42840, Note_on_c, 0, 54, 85
2, 42898, Note_on_c, 0, 54, 0
2, 42900, Note_on_c, 0, 52, 85
2, 42958, Note_on_c, 0, 52, 0
2, 42960, Note_on_c, 0, 55, 85
2, 43018, Note_on_c, 0, 55, 0
2, 43020, Note_on_c, 0, 49, 85
2, 43078, Note_on_c, 0, 49, 0
2, 43080, Note_on_c, 0, 50, 85
2, 43138, Note_on_c, 0, 50, 0
2, 43140, Note_on_c, 0, 49, 85
2, 43198, Note_on_c, 0, 49, 0
2, 43200, Note_on_c, 0, 50, 85
2, 43368, Note_on_c, 0, 50, 0
2, 43680, Note_on_c, 0, 66, 85
2, 43918, Note_on_c, 0, 66, 0
2, 43920, Note_on_c, 0, 65, 80
2, 43968, Note_on_c, 0, 65, 0
2, 43980, Note_on_c, 0, 66, 80
2, 44028, Note_on_c, 0, 66, 0
2, 44040, Note_on_c, 0, 67, 80
2, 44088, Note_on_c, 0, 67, 0
2, 44100, Note_on_c, 0, 66, 80
2, 44148, Note_on_c, 0, 66, 0
2, 44160, Note_on_c, 0, 65, 80
2, 44208, Note_on_c, 0, 65, 0
2, 44220, Note_on_c, 0, 66, 80
2, 44268, Note_on_c, 0, 66, 0
2, 44280, Note_on_c, 0, 67, 80
2, 44328, Note_on_c, 0, 67, 0
2, 44340, Note_on_c, 0, 66, 80
2, 44388, Note_on_c, 0, 66, 0
2, 44400, Note_on_c, 0, 65, 80
2, 44448, Note_on_c, 0, 65, 0
2, 44460, Note_on_c, 0, 66, 80
2, 44508, Note_on_c, 0, 66, 0
2, 44520, Note_on_c, 0, 67, 80
2, 44568, Note_on_c, 0, 67, 0
2, 44580, Note_on_c, 0, 66, 80
2, 44628, Note_on_c, 0, 66, 0
2, 44640, Note_on_c, 0, 65, 80
2, 44688, Note_on_c, 0, 65, 0
2, 44700, Note_on_c, 0, 66, 80
2, 44748, Note_on_c, 0, 66, 0
2, 44760, Note_on_c, 0, 67, 80
2, 44808, Note_on_c, 0, 67, 0
2, 44820, Note_on_c, 0, 66, 80
2, 44868, Note_on_c, 0, 66, 0
2, 44880, Note_on_c, 0, 65, 80
2, 44928, Note_on_c, 0, 65, 0
2, 44940, Note_on_c, 0, 66, 80
2, 44988, Note_on_c, 0, 66, 0
2, 45000, Note_on_c, 0, 67, 80
2, 45048, Note_on_c, 0, 67, 0
2, 45060, Note_on_c, 0, 66, 80
2, 45108, Note_on_c, 0, 66, 0
2, 45120, Note_on_c, 0, 65, 80
2, 45168, Note_on_c, 0, 65, 0
2, 45180, Note_on_c, 0, 66, 80
2, 45228, Note_on_c, 0, 66, 0
2, 45240, Note_on_c, 0, 67, 80
2, 45288, Note_on_c, 0, 67, 0
2, 45300, Note_on_c, 0, 66, 80
2, 45348, Note_on_c, 0, 66, 0
2, 45360, Note_on_c, 0, 65, 80
2, 45408, Note_on_c, 0, 65, 0
2, 45420, Note_on_c, 0, 66, 80
2, 45468, Note_on_c, 0, 66, 0
2, 45480, Note_on_c, 0, 67, 80
2, 45528, Note_on_c, 0, 67, 0
2, 45540, Note_on_c, 0, 66, 80
2, 45588, Note_on_c, 0, 66, 0
2, 45600, Note_on_c, 0, 65, 80
2, 45648, Note_on_c, 0, 65, 0
2, 45660, Note_on_c, 0, 66, 80
2, 45708, Note_on_c, 0, 66, 0
2, 45720, Note_on_c, 0, 67, 80
2, 45768, Note_on_c, 0, 67, 0
2, 45780, Note_on_c, 0, 66, 80
2, 45828, Note_on_c, 0, 66, 0
2, 45840, Note_on_c, 0, 65, 80
2, 45888, Note_on_c, 0, 65, 0
2, 45900, Note_on_c, 0, 66, 80
2, 45948, Note_on_c, 0, 66, 0
2, 45960, Note_on_c, 0, 67, 80
2, 46008, Note_on_c, 0, 67, 0
2, 46020, Note_on_c, 0, 66, 80
2, 46068, Note_on_c, 0, 66, 0
2, 46080, Note_on_c, 0, 65, 85
2, 46138, Note_on_c, 0, 65, 0
2, 46140, Note_on_c, 0, 66, 85
2, 46198, Note_on_c, 0, 66, 0
2, 46200, Note_on_c, 0, 67, 85
2, 46258, Note_on_c, 0, 67, 0
2, 46260, Note_on_c, 0, 66, 85
2, 46318, Note_on_c, 0, 66, 0
2, 46320, Note_on_c, 0, 64, 85
2, 46378, Note_on_c, 0, 64, 0
2, 46380, Note_on_c, 0, 67, 85
2, 46438, Note_on_c, 0, 67, 0
2, 46440, Note_on_c, 0, 66, 85
2, 46498, Note_on_c, 0, 66, 0
2, 46500, Note_on_c, 0, 64, 85
2, 46558, Note_on_c, 0, 64, 0
2, 46560, Note_on_c, 0, 62, 85
2, 46618, Note_on_c, 0, 62, 0
2, 46620, Note_on_c, 0, 61, 85
2, 46678, Note_on_c, 0, 61, 0
2, 46680, Note_on_c, 0, 59, 85
2, 46738, Note_on_c, 0, 59, 0
2, 46740, Note_on_c, 0, 58, 85
2, 46798, Note_on_c, 0, 58, 0
2, 46800, Note_on_c, 0, 59, 96
2, 46858, Note_on_c, 0, 59, 0
2, 46860, Note_on_c, 0, 54, 51
2, 46918, Note_on_c, 0, 54, 0
2, 46920, Note_on_c, 0, 53, 53
2, 46978, Note_on_c, 0, 53, 0
2, 46980, Note_on_c, 0, 54, 56
2, 47038, Note_on_c, 0, 54, 0
2, 47040, Note_on_c, 0, 59, 59
2, 47098, Note_on_c, 0, 59, 0
2, 47100, Note_on_c, 0, 54, 61
2, 47158, Note_on_c, 0, 54, 0
2, 47160, Note_on_c, 0, 58, 64
2, 47218, Note_on_c, 0, 58, 0
2, 47220, Note_on_c, 0, 54, 67
2, 47278, Note_on_c, 0, 54, 0
2, 47280, Note_on_c, 0, 59, 69
2, 47338, Note_on_c, 0, 59, 0
2, 47340, Note_on_c, 0, 54, 72
2, 47398, Note_on_c, 0, 54, 0
2, 47400, Note_on_c, 0, 61, 75
2, 47458, Note_on_c, 0, 61, 0
2, 47460, Note_on_c, 0, 54, 77
2, 47518, Note_on_c, 0, 54, 0
2, 47520, Note_on_c, 0, 62, 96
2, 47578, Note_on_c, 0, 62, 0
2, 47580, Note_on_c, 0, 54, 51
2, 47638, Note_on_c, 0, 54, 0
2, 47640, Note_on_c, 0, 53, 53
2, 47698, Note_on_c, 0, 53, 0
2, 47700, Note_on_c, 0, 54, 56
2, 47758, Note_on_c, 0, 54, 0
2, 47760, Note_on_c, 0, 59, 59
2, 47818, Note_on_c, 0, 59, 0
2, 47820, Note_on_c, 0, 54, 61
2, 47878, Note_on_c, 0, 54, 0
2, 47880, Note_on_c, 0, 58, 64
2, 47938, Note_on_c, 0, 58, 0
2, 47940, Note_on_c, 0, 54, 67
2, 47998, Note_on_c, 0, 54, 0
2, 48000, Note_on_c, 0, 59, 69
2, 48058, Note_on_c, 0, 59, 0
2, 48060, Note_on_c, 0, 54, 72
2, 48118, Note_on_c, 0, 54, 0
2, 48120, Note_on_c, 0, 61, 75
2, 48178, Note_on_c, 0, 61, 0
2, 48180, Note_on_c, 0, 54, 77
2, 48238, Note_on_c, 0, 54, 0
2, 48240, Note_on_c, 0, 62, 85
2, 48298, Note_on_c, 0, 62, 0
2, 48300, Note_on_c, 0, 55, 85
2, 48358, Note_on_c, 0, 55, 0
2, 48360, Note_on_c, 0, 57, 85
2, 48418, Note_on_c, 0, 57, 0
2, 48420, Note_on_c, 0, 55, 85
2, 48478, Note_on_c, 0, 55, 0
2, 48480, Note_on_c, 0, 64, 85
2, 48538, Note_on_c, 0, 64, 0
2, 48540, Note_on_c, 0, 58, 85
2, 48598, Note_on_c, 0, 58, 0
2, 48600, Note_on_c, 0, 59, 85
2, 48658, Note_on_c, 0, 59, 0
2, 48660, Note_on_c, 0, 58, 85
2, 48718, Note_on_c, 0, 58, 0
2, 48720, Note_on_c, 0, 66, 85
2, 48778, Note_on_c, 0, 66, 0
2, 48780, Note_on_c, 0, 59, 85
2, 48838, Note_on_c, 0, 59, 0
2, 48840, Note_on_c, 0, 61, 85
2, 48898, Note_on_c, 0, 61, 0
2, 48900, Note_on_c, 0, 59, 85
2, 48958, Note_on_c, 0, 59, 0
2, 48960, Note_on_c, 0, 67, 85
2, 49018, Note_on_c, 0, 67, 0
2, 49020, Note_on_c, 0, 61, 85
2, 49078, Note_on_c, 0, 61, 0
2, 49080, Note_on_c, 0, 62, 85
2, 49138, Note_on_c, 0, 62, 0
2, 49140, Note_on_c, 0, 61, 85
2, 49198, Note_on_c, 0, 61, 0
2, 49200, Note_on_c, 0, 66, 85
2, 49258, Note_on_c, 0, 66, 0
2, 49260, Note_on_c, 0, 59, 85
2, 49318, Note_on_c, 0, 59, 0
2, 49320, Note_on_c, 0, 61, 85
2, 49378, Note_on_c, 0, 61, 0
2, 49380, Note_on_c, 0, 59, 85
2, 49438, Note_on_c, 0, 59, 0
2, 49440, Note_on_c, 0, 64, 85
2, 49498, Note_on_c, 0, 64, 0
2, 49500, Note_on_c, 0, 58, 85
2, 49558, Note_on_c, 0, 58, 0
2, 49560, Note_on_c, 0, 59, 85
2, 49618, Note_on_c, 0, 59, 0
2, 49620, Note_on_c, 0, 58, 85
2, 49678, Note_on_c, 0, 58, 0
2, 49680, Note_on_c, 0, 62, 85
2, 49738, Note_on_c, 0, 62, 0
2, 49740, Note_on_c, 0, 59, 85
2, 49798, Note_on_c, 0, 59, 0
2, 49800, Note_on_c, 0, 58, 85
2, 49858, Note_on_c, 0, 58, 0
2, 49860, Note_on_c, 0, 59, 85
2, 49918, Note_on_c, 0, 59, 0
2, 50040, Note_on_c, 0, 61, 85
2, 50124, Note_on_c, 0, 61, 0
2, 50280, Note_on_c, 0, 58, 85
2, 50364, Note_on_c, 0, 58, 0
2, 50640, Note_on_c, 0, 59, 85
2, 50878, Note_on_c, 0, 59, 0
2, 50880, Note_on_c, 0, 66, 80
2, 51072, Note_on_c, 0, 66, 0
2, 51120, Note_on_c, 0, 65, 80
2, 51168, Note_on_c, 0, 65, 0
2, 51180, Note_on_c, 0, 66, 80
2, 51228, Note_on_c, 0, 66, 0
2, 51240, Note_on_c, 0, 67, 80
2, 51288, Note_on_c, 0, 67, 0
2, 51300, Note_on_c, 0, 66, 80
2, 51348, Note_on_c, 0, 66, 0
2, 51360, Note_on_c, 0, 65, 80
2, 51408, Note_on_c, 0, 65, 0
2, 51420, Note_on_c, 0, 66, 80
2, 51468, Note_on_c, 0, 66, 0
2, 51480, Note_on_c, 0, 67, 80
2, 51528, Note_on_c, 0, 67, 0
2, 51540, Note_on_c, 0, 66, 80
2, 51588, Note_on_c, 0, 66, 0
2, 51600, Note_on_c, 0, 65, 80
2, 51648, Note_on_c, 0, 65, 0
2, 51660, Note_on_c, 0, 66, 80
2, 51708, Note_on_c, 0, 66, 0
2, 51720, Note_on_c, 0, 67, 80
2, 51768, Note_on_c, 0, 67, 0
2, 51780, Note_on_c, 0, 66, 80
2, 51828, Note_on_c, 0, 66, 0
2, 51840, Note_on_c, 0, 65, 80
2, 51888, Note_on_c, 0, 65, 0
2, 51900, Note_on_c, 0, 66, 80
2, 51948, Note_on_c, 0, 66, 0
2, 51960, Note_on_c, 0, 67, 80
2, 52008, Note_on_c, 0, 67, 0
2, 52020, Note_on_c, 0, 66, 80
2, 52068, Note_on_c, 0, 66, 0
2, 52080, Note_on_c, 0, 65, 80
2, 52128, Note_on_c, 0, 65, 0
2, 52140, Note_on_c, 0, 66, 80
2, 52188, Note_on_c, 0, 66, 0
2, 52200, Note_on_c, 0, 67, 80
2, 52248, Note_on_c, 0, 67, 0
2, 52260, Note_on_c, 0, 66, 80
2, 52308, Note_on_c, 0, 66, 0
2, 52320, Note_on_c, 0, 65, 80
2, 52368, Note_on_c, 0, 65, 0
2, 52380, Note_on_c, 0, 66, 80
2, 52428, Note_on_c, 0, 66, 0
2, 52440, Note_on_c, 0, 67, 80
2, 52488, Note_on_c, 0, 67, 0
2, 52500, Note_on_c, 0, 66, 80
2, 52548, Note_on_c, 0, 66, 0
2, 52560, Note_on_c, 0, 65, 80
2, 52608, Note_on_c, 0, 65, 0
2, 52620, Note_on_c, 0, 66, 80
2, 52668, Note_on_c, 0, 66, 0
2, 52680, Note_on_c, 0, 67, 80
2, 52728, Note_on_c, 0, 67, 0
2, 52740, Note_on_c, 0, 66, 80
2, 52788, Note_on_c, 0, 66, 0
2, 52800, Note_on_c, 0, 65, 80
2, 52848, Note_on_c, 0, 65, 0
2, 52860, Note_on_c, 0, 66, 80
2, 52908, Note_on_c, 0, 66, 0
2, 52920, Note_on_c, 0, 67, 80
2, 52968, Note_on_c, 0, 67, 0
2, 52980, Note_on_c, 0, 66, 80
2, 53028, Note_on_c, 0, 66, 0
2, 53040, Note_on_c, 0, 65, 80
2, 53088, Note_on_c, 0, 65, 0
2, 53100, Note_on_c, 0, 66, 80
2, 53148, Note_on_c, 0, 66, 0
2, 53160, Note_on_c, 0, 67, 80
2, 53208, Note_on_c, 0, 67, 0
2, 53220, Note_on_c, 0, 66, 80
2, 53268, Note_on_c, 0, 66, 0
2, 53280, Note_on_c, 0, 65, 85
2, 53338, Note_on_c, 0, 65, 0
2, 53340, Note_on_c, 0, 66, 85
2, 53398, Note_on_c, 0, 66, 0
2, 53400, Note_on_c, 0, 67, 85
2, 53458, Note_on_c, 0, 67, 0
2, 53460, Note_on_c, 0, 66, 85
2, 53518, Note_on_c, 0, 66, 0
2, 53520, Note_on_c, 0, 64, 85
2, 53578, Note_on_c, 0, 64, 0
2, 53580, Note_on_c, 0, 67, 85
2, 53638, Note_on_c, 0, 67, 0
2, 53640, Note_on_c, 0, 66, 85
2, 53698, Note_on_c, 0, 66, 0
2, 53700, Note_on_c, 0, 64, 85
2, 53758, Note_on_c, 0, 64, 0
2, 53760, Note_on_c, 0, 62, 85
2, 53818, Note_on_c, 0, 62, 0
2, 53820, Note_on_c, 0, 61, 85
2, 53878, Note_on_c, 0, 61, 0
2, 53880, Note_on_c, 0, 59, 85
2, 53938, Note_on_c, 0, 59, 0
2, 53940, Note_on_c, 0, 58, 85
2, 53998, Note_on_c, 0, 58, 0
2, 54000, Note_on_c, 0, 59, 96
2, 54058, Note_on_c, 0, 59, 0
2, 54060, Note_on_c, 0, 54, 51
2, 54118, Note_on_c, 0, 54, 0
2, 54120, Note_on_c, 0, 53, 53
2, 54178, Note_on_c, 0, 53, 0
2, 54180, Note_on_c, 0, 54, 56
2, 54238, Note_on_c, 0, 54, 0
2, 54240, Note_on_c, 0, 59, 59
2, 54298, Note_on_c, 0, 59, 0
2, 54300, Note_on_c, 0, 54, 61
2, 54358, Note_on_c, 0, 54, 0
2, 54360, Note_on_c, 0, 58, 64
2, 54418, Note_on_c, 0, 58, 0
2, 54420, Note_on_c, 0, 54, 67
2, 54478, Note_on_c, 0, 54, 0
2, 54480, Note_on_c, 0, 59, 69
2, 54538, Note_on_c, 0, 59, 0
2, 54540, Note_on_c, 0, 54, 72
2, 54598, Note_on_c, 0, 54, 0
2, 54600, Note_on_c, 0, 61, 75
2, 54658, Note_on_c, 0, 61, 0
2, 54660, Note_on_c, 0, 54, 77
2, 54718, Note_on_c, 0, 54, 0
2, 54720, Note_on_c, 0, 62, 96
2, 54778, Note_on_c, 0, 62, 0
2, 54780, Note_on_c, 0, 54, 51
2, 54838, Note_on_c, 0, 54, 0
2, 54840, Note_on_c, 0, 53, 53
2, 54898, Note_on_c, 0, 53, 0
2, 54900, Note_on_c, 0, 54, 56
2, 54958, Note_on_c, 0, 54, 0
2, 54960, Note_on_c, 0, 59, 59
2, 55018, Note_on_c, 0, 59, 0
2, 55020, Note_on_c, 0, 54, 61
2, 55078, Note_on_c, 0, 54, 0
2, 55080, Note_on_c, 0, 58, 64
2, 55138, Note_on_c, 0, 58, 0
2, 55140, Note_on_c, 0, 54, 67
2, 55198, Note_on_c, 0, 54, 0
2, 55200, Note_on_c, 0, 59, 69
2, 55258, Note_on_c, 0, 59, 0
2, 55260, Note_on_c, 0, 54, 72
2, 55318, Note_on_c, 0, 54, 0
2, 55320, Note_on_c, 0, 61, 75
2, 55378, Note_on_c, 0, 61, 0
2, 55380, Note_on_c, 0, 54, 77
2, 55438, Note_on_c, 0, 54, 0
2, 55440, Note_on_c, 0, 62, 85
2, 55498, Note_on_c, 0, 62, 0
2, 55500, Note_on_c, 0, 55, 85
2, 55558, Note_on_c, 0, 55, 0
2, 55560, Note_on_c, 0, 57, 85
2, 55618, Note_on_c, 0, 57, 0
2, 55620, Note_on_c, 0, 55, 85
2, 55678, Note_on_c, 0, 55, 0
2, 55680, Note_on_c, 0, 64, 85
2, 55738, Note_on_c, 0, 64, 0
2, 55740, Note_on_c, 0, 58, 85
2, 55798, Note_on_c, 0, 58, 0
2, 55800, Note_on_c, 0, 59, 85
2, 55858, Note_on_c, 0, 59, 0
2, 55860, Note_on_c, 0, 58, 85
2, 55918, Note_on_c, 0, 58, 0
2, 55920, Note_on_c, 0, 66, 85
2, 55978, Note_on_c, 0, 66, 0
2, 55980, Note_on_c, 0, 59, 85
2, 56038, Note_on_c, 0, 59, 0
2, 56040, Note_on_c, 0, 61, 85
2, 56098, Note_on_c, 0, 61, 0
2, 56100, Note_on_c, 0, 59, 85
2, 56158, Note_on_c, 0, 59, 0
2, 56160, Note_on_c, 0, 67, 85
2, 56218, Note_on_c, 0, 67, 0
2, 56220, Note_on_c, 0, 61, 85
2, 56278, Note_on_c, 0, 61, 0
2, 56280, Note_on_c, 0, 62, 85
2, 56338, Note_on_c, 0, 62, 0
2, 56340, Note_on_c, 0, 61, 85
2, 56398, Note_on_c, 0, 61, 0
2, 56400, Note_on_c, 0, 66, 85
2, 56458, Note_on_c, 0, 66, 0
2, 56460, Note_on_c, 0, 59, 85
2, 56518, Note_on_c, 0, 59, 0
2, 56520, Note_on_c, 0, 61, 85
2, 56578, Note_on_c, 0, 61, 0
2, 56580, Note_on_c, 0, 59, 85
2, 56638, Note_on_c, 0, 59, 0
2, 56640, Note_on_c, 0, 64, 85
2, 56698, Note_on_c, 0, 64, 0
2, 56700, Note_on_c, 0, 58, 85
2, 56758, Note_on_c, 0, 58, 0
2, 56760, Note_on_c, 0, 59, 85
2, 56818, Note_on_c, 0, 59, 0
2, 56820, Note_on_c, 0, 58, 85
2, 56878, Note_on_c, 0, 58, 0
2, 56880, Note_on_c, 0, 62, 85
2, 56938, Note_on_c, 0, 62, 0
2, 56940, Note_on_c, 0, 59, 85
2, 56998, Note_on_c, 0, 59, 0
2, 57000, Note_on_c, 0, 58, 85
2, 57058, Note_on_c, 0, 58, 0
2, 57060, Note_on_c, 0, 59, 85
2, 57118, Note_on_c, 0, 59, 0
2, 57240, Note_on_c, 0, 61, 85
2, 57324, Note_on_c, 0, 61, 0
2, 57480, Note_on_c, 0, 58, 85
2, 57564, Note_on_c, 0, 58, 0
2, 57840, Note_on_c, 0, 59, 85
2, 58078, Note_on_c, 0, 59, 0
2, 58080, Note_on_c, 0, 80, 80
2, 58128, Note_on_c, 0, 80, 0
2, 58140, Note_on_c, 0, 78, 80
2, 58170, Note_on_c, 0, 78, 0
2, 58200, Note_on_c, 0, 76, 80
2, 58230, Note_on_c, 0, 76, 0
2, 58260, Note_on_c, 0, 75, 80
2, 58290, Note_on_c, 0, 75, 0
2, 58320, Note_on_c, 0, 73, 80
2, 58498, Note_on_c, 0, 73, 0
2, 58500, Note_on_c, 0, 71, 80
2, 58558, Note_on_c, 0, 71, 0
2, 58560, Note_on_c, 0, 83, 80
2, 58980, Note_on_c, 0, 83, 0
2, 58980, Note_on_c, 0, 82, 80
2, 59038, Note_on_c, 0, 82, 0
2, 59040, Note_on_c, 0, 80, 80
2, 59064, Note_on_c, 0, 80, 0
2, 59070, Note_on_c, 0, 82, 80
2, 59094, Note_on_c, 0, 82, 0
2, 59100, Note_on_c, 0, 80, 80
2, 59124, Note_on_c, 0, 80, 0
2, 59130, Note_on_c, 0, 82, 80
2, 59154, Note_on_c, 0, 82, 0
2, 59160, Note_on_c, 0, 80, 80
2, 59176, Note_on_c, 0, 80, 0
2, 59180, Note_on_c, 0, 82, 80
2, 59196, Note_on_c, 0, 82, 0
2, 59200, Note_on_c, 0, 80, 80
2, 59216, Note_on_c, 0, 80, 0
2, 59220, Note_on_c, 0, 78, 80
2, 59244, Note_on_c, 0, 78, 0
2, 59250, Note_on_c, 0, 80, 80
2, 59274, Note_on_c, 0, 80, 0
2, 59280, Note_on_c, 0, 78, 80
2, 59424, Note_on_c, 0, 78, 0
2, 59520, Note_on_c, 0, 80, 80
2, 59568, Note_on_c, 0, 80, 0
2, 59580, Note_on_c, 0, 78, 80
2, 59610, Note_on_c, 0, 78, 0
2, 59640, Note_on_c, 0, 76, 80
2, 59670, Note_on_c, 0, 76, 0
2, 59700, Note_on_c, 0, 75, 80
2, 59730, Note_on_c, 0, 75, 0
2, 59760, Note_on_c, 0, 73, 80
2, 59938, Note_on_c, 0, 73, 0
2, 59940, Note_on_c, 0, 71, 80
2, 59998, Note_on_c, 0, 71, 0
2, 60000, Note_on_c, 0, 76, 80
2, 60420, Note_on_c, 0, 76, 0
2, 60420, Note_on_c, 0, 75, 80
2, 60478, Note_on_c, 0, 75, 0
2, 60480, Note_on_c, 0, 73, 80
2, 60504, Note_on_c, 0, 73, 0
2, 60510, Note_on_c, 0, 75, 80
2, 60534, Note_on_c, 0, 75, 0
2, 60540, Note_on_c, 0, 73, 80
2, 60564, Note_on_c, 0, 73, 0
2, 60570, Note_on_c, 0, 75, 80
2, 60594, Note_on_c, 0, 75, 0
2, 60600, Note_on_c, 0, 73, 80
2, 60616, Note_on_c, 0, 73, 0
2, 60620, Note_on_c, 0, 75, 80
2, 60636, Note_on_c, 0, 75, 0
2, 60640, Note_on_c, 0, 73, 80
2, 60656, Note_on_c, 0, 73, 0
2, 60660, Note_on_c, 0, 71, 80
2, 60684, Note_on_c, 0, 71, 0
2, 60690, Note_on_c, 0, 73, 80
2, 60714, Note_on_c, 0, 73, 0
2, 60720, Note_on_c, 0, 71, 80
2, 60864, Note_on_c, 0, 71, 0
2, 60960, Note_on_c, 0, 68, 80
2, 61008, Note_on_c, 0, 68, 0
2, 61020, Note_on_c, 0, 66, 80
2, 61050, Note_on_c, 0, 66, 0
2, 61080, Note_on_c, 0, 64, 80
2, 61110, Note_on_c, 0, 64, 0
2, 61140, Note_on_c, 0, 63, 80
2, 61170, Note_on_c, 0, 63, 0
2, 61200, Note_on_c, 0, 61, 80
2, 61378, Note_on_c, 0, 61, 0
2, 61380, Note_on_c, 0, 59, 80
2, 61438, Note_on_c, 0, 59, 0
2, 61440, Note_on_c, 0, 75, 80
2, 61800, Note_on_c, 0, 75, 0
2, 61800, Note_on_c, 0, 75, 80
2, 61896, Note_on_c, 0, 75, 0
2, 61920, Note_on_c, 0, 75, 80
2, 61978, Note_on_c, 0, 75, 0
2, 61980, Note_on_c, 0, 73, 80
2, 62038, Note_on_c, 0, 73, 0
2, 62040, Note_on_c, 0, 72, 80
2, 62098, Note_on_c, 0, 72, 0
2, 62100, Note_on_c, 0, 73, 80
2, 62158, Note_on_c, 0, 73, 0
2, 62160, Note_on_c, 0, 78, 80
2, 62220, Note_on_c, 0, 78, 0
2, 62280, Note_on_c, 0, 78, 80
2, 62340, Note_on_c, 0, 78, 0
2, 62520, Note_on_c, 0, 75, 48
2, 62568, Note_on_c, 0, 75, 0
2, 62640, Note_on_c, 0, 75, 48
2, 62698, Note_on_c, 0, 75, 0
2, 62700, Note_on_c, 0, 73, 48
2, 62758, Note_on_c, 0, 73, 0
2, 62760, Note_on_c, 0, 72, 48
2, 62818, Note_on_c, 0, 72, 0
2, 62820, Note_on_c, 0, 73, 48
2, 62878, Note_on_c, 0, 73, 0
2, 62880, Note_on_c, 0, 78, 48
2, 62952, Note_on_c, 0, 78, 0
2, 63000, Note_on_c, 0, 78, 48
2, 63072, Note_on_c, 0, 78, 0
2, 63240, Note_on_c, 0, 75, 80
2, 63358, Note_on_c, 0, 75, 0
2, 63360, Note_on_c, 0, 75, 80
2, 63418, Note_on_c, 0, 75, 0
2, 63420, Note_on_c, 0, 73, 80
2, 63478, Note_on_c, 0, 73, 0
2, 63480, Note_on_c, 0, 72, 80
2, 63538, Note_on_c, 0, 72, 0
2, 63540, Note_on_c, 0, 73, 80
2, 63598, Note_on_c, 0, 73, 0
2, 63600, Note_on_c, 0, 75, 80
2, 63658, Note_on_c, 0, 75, 0
2, 63660, Note_on_c, 0, 77, 80
2, 63718, Note_on_c, 0, 77, 0
2, 63720, Note_on_c, 0, 78, 80
2, 63778, Note_on_c, 0, 78, 0
2, 63780, Note_on_c, 0, 80, 80
2, 63838, Note_on_c, 0, 80, 0
2, 63840, Note_on_c, 0, 82, 80
2, 63898, Note_on_c, 0, 82, 0
2, 63900, Note_on_c, 0, 78, 80
2, 63958, Note_on_c, 0, 78, 0
2, 63960, Note_on_c, 0, 77, 80
2, 64018, Note_on_c, 0, 77, 0
2, 64020, Note_on_c, 0, 78, 80
2, 64078, Note_on_c, 0, 78, 0
2, 64080, Note_on_c, 0, 77, 80
2, 64128, Note_on_c, 0, 77, 0
2, 64140, Note_on_c, 0, 75, 80
2, 64188, Note_on_c, 0, 75, 0
2, 64200, Note_on_c, 0, 73, 80
2, 64248, Note_on_c, 0, 73, 0
2, 64260, Note_on_c, 0, 71, 80
2, 64308, Note_on_c, 0, 71, 0
2, 64320, Note_on_c, 0, 70, 80
2, 64512, Note_on_c, 0, 70, 0
2, 64560, Note_on_c, 0, 68, 80
2, 64584, Note_on_c, 0, 68, 0
2, 64590, Note_on_c, 0, 70, 80
2, 64614, Note_on_c, 0, 70, 0
2, 64620, Note_on_c, 0, 68, 80
2, 64644, Note_on_c, 0, 68, 0
2, 64650, Note_on_c, 0, 70, 80
2, 64674, Note_on_c, 0, 70, 0
2, 64680, Note_on_c, 0, 68, 80
2, 64696, Note_on_c, 0, 68, 0
2, 64700, Note_on_c, 0, 70, 80
2, 64716, Note_on_c, 0, 70, 0
2, 64720, Note_on_c, 0, 68, 80
2, 64736, Note_on_c, 0, 68, 0
2, 64740, Note_on_c, 0, 66, 80
2, 64764, Note_on_c, 0, 66, 0
2, 64770, Note_on_c, 0, 68, 80
2, 64794, Note_on_c, 0, 68, 0
2, 64800, Note_on_c, 0, 66, 80
2, 65278, Note_on_c, 0, 66, 0
2, 65280, Note_on_c, 0, 68, 80
2, 65328, Note_on_c, 0, 68, 0
2, 65340, Note_on_c, 0, 66, 80
2, 65370, Note_on_c, 0, 66, 0
2, 65400, Note_on_c, 0, 64, 80
2, 65430, Note_on_c, 0, 64, 0
2, 65460, Note_on_c, 0, 63, 80
2, 65490, Note_on_c, 0, 63, 0
2, 65520, Note_on_c, 0, 61, 80
2, 65698, Note_on_c, 0, 61, 0
2, 65700, Note_on_c, 0, 60, 80
2, 65758, Note_on_c, 0, 60, 0
2, 65760, Note_on_c, 0, 69, 80
2, 66120, Note_on_c, 0, 69, 0
2, 66120, Note_on_c, 0, 60, 80
2, 66238, Note_on_c, 0, 60, 0
2, 66240, Note_on_c, 0, 61, 80
2, 66358, Note_on_c, 0, 61, 0
2, 66360, Note_on_c, 0, 64, 80
2, 66420, Note_on_c, 0, 64, 0
2, 66480, Note_on_c, 0, 68, 80
2, 66540, Note_on_c, 0, 68, 0
2, 66600, Note_on_c, 0, 73, 80
2, 66660, Note_on_c, 0, 73, 0
2, 66720, Note_on_c, 0, 78, 80
2, 66768, Note_on_c, 0, 78, 0
2, 66780, Note_on_c, 0, 76, 80
2, 66828, Note_on_c, 0, 76, 0
2, 66840, Note_on_c, 0, 75, 80
2, 66888, Note_on_c, 0, 75, 0
2, 66900, Note_on_c, 0, 73, 80
2, 66948, Note_on_c, 0, 73, 0
2, 66960, Note_on_c, 0, 71, 80
2, 67138, Note_on_c, 0, 71, 0
2, 67140, Note_on_c, 0, 70, 80
2, 67198, Note_on_c, 0, 70, 0
2, 67200, Note_on_c, 0, 80, 80
2, 67560, Note_on_c, 0, 80, 0
2, 67560, Note_on_c, 0, 70, 80
2, 67678, Note_on_c, 0, 70, 0
2, 67680, Note_on_c, 0, 71, 80
2, 67738, Note_on_c, 0, 71, 0
2, 67740, Note_on_c, 0, 73, 80
2, 67798, Note_on_c, 0, 73, 0
2, 67800, Note_on_c, 0, 75, 80
2, 67858, Note_on_c, 0, 75, 0
2, 67860, Note_on_c, 0, 76, 80
2, 67918, Note_on_c, 0, 76, 0
2, 67920, Note_on_c, 0, 78, 80
2, 67978, Note_on_c, 0, 78, 0
2, 67980, Note_on_c, 0, 80, 80
2, 68038, Note_on_c, 0, 80, 0
2, 68040, Note_on_c, 0, 82, 80
2, 68098, Note_on_c, 0, 82, 0
2, 68100, Note_on_c, 0, 83, 80
2, 68158, Note_on_c, 0, 83, 0
2, 68160, Note_on_c, 0, 82, 80
2, 68218, Note_on_c, 0, 82, 0
2, 68220, Note_on_c, 0, 83, 80
2, 68278, Note_on_c, 0, 83, 0
2, 68280, Note_on_c, 0, 82, 80
2, 68338, Note_on_c, 0, 82, 0
2, 68340, Note_on_c, 0, 83, 80
2, 68398, Note_on_c, 0, 83, 0
2, 68400, Note_on_c, 0, 82, 80
2, 68458, Note_on_c, 0, 82, 0
2, 68460, Note_on_c, 0, 80, 80
2, 68518, Note_on_c, 0, 80, 0
2, 68520, Note_on_c, 0, 79, 80
2, 68578, Note_on_c, 0, 79, 0
2, 68580, Note_on_c, 0, 80, 80
2, 68638, Note_on_c, 0, 80, 0
2, 68640, Note_on_c, 0, 78, 80
2, 68698, Note_on_c, 0, 78, 0
2, 68700, Note_on_c, 0, 76, 80
2, 68758, Note_on_c, 0, 76, 0
2, 68760, Note_on_c, 0, 75, 80
2, 68818, Note_on_c, 0, 75, 0
2, 68820, Note_on_c, 0, 76, 80
2, 68878, Note_on_c, 0, 76, 0
2, 68880, Note_on_c, 0, 75, 80
2, 68938, Note_on_c, 0, 75, 0
2, 68940, Note_on_c, 0, 73, 80
2, 68998, Note_on_c, 0, 73, 0
2, 69000, Note_on_c, 0, 72, 80
2, 69058, Note_on_c, 0, 72, 0
2, 69060, Note_on_c, 0, 73, 80
2, 69118, Note_on_c, 0, 73, 0
2, 69120, Note_on_c, 0, 71, 80
2, 69360, Note_on_c, 0, 71, 0
2, 69360, Note_on_c, 0, 70, 80
2, 69480, Note_on_c, 0, 70, 0
2, 69600, Note_on_c, 0, 66, 80
2, 69648, Note_on_c, 0, 66, 0
2, 69660, Note_on_c, 0, 64, 80
2, 69684, Note_on_c, 0, 64, 0
2, 69720, Note_on_c, 0, 63, 80
2, 69744, Note_on_c, 0, 63, 0
2, 69780, Note_on_c, 0, 61, 80
2, 69804, Note_on_c, 0, 61, 0
2, 69840, Note_on_c, 0, 59, 80
2, 70018, Note_on_c, 0, 59, 0
2, 70020, Note_on_c, 0, 58, 80
2, 70078, Note_on_c, 0, 58, 0
2, 70080, Note_on_c, 0, 80, 80
2, 70440, Note_on_c, 0, 80, 0
2, 70440, Note_on_c, 0, 80, 80
2, 70558, Note_on_c, 0, 80, 0
2, 70560, Note_on_c, 0, 80, 80
2, 70618, Note_on_c, 0, 80, 0
2, 70620, Note_on_c, 0, 78, 80
2, 70678, Note_on_c, 0, 78, 0
2, 70680, Note_on_c, 0, 77, 80
2, 70738, Note_on_c, 0, 77, 0
2, 70740, Note_on_c, 0, 78, 80
2, 70798, Note_on_c, 0, 78, 0
2, 70800, Note_on_c, 0, 83, 80
2, 70860, Note_on_c, 0, 83, 0
2, 70920, Note_on_c, 0, 83, 80
2, 70980, Note_on_c, 0, 83, 0
2, 71160, Note_on_c, 0, 80, 48
2, 71278, Note_on_c, 0, 80, 0
2, 71280, Note_on_c, 0, 80, 48
2, 71338, Note_on_c, 0, 80, 0
2, 71340, Note_on_c, 0, 78, 48
2, 71398, Note_on_c, 0, 78, 0
2, 71400, Note_on_c, 0, 77, 48
2, 71458, Note_on_c, 0, 77, 0
2, 71460, Note_on_c, 0, 78, 48
2, 71518, Note_on_c, 0, 78, 0
2, 71520, Note_on_c, 0, 83, 48
2, 71598, Note_on_c, 0, 83, 0
2, 71640, Note_on_c, 0, 83, 48
2, 71718, Note_on_c, 0, 83, 0
2, 71880, Note_on_c, 0, 80, 80
2, 71998, Note_on_c, 0, 80, 0
2, 72000, Note_on_c, 0, 80, 80
2, 72058, Note_on_c, 0, 80, 0
2, 72060, Note_on_c, 0, 78, 80
2, 72118, Note_on_c, 0, 78, 0
2, 72120, Note_on_c, 0, 77, 80
2, 72178, Note_on_c, 0, 77, 0
2, 72180, Note_on_c, 0, 78, 80
2, 72238, Note_on_c, 0, 78, 0
2, 72240, Note_on_c, 0, 83, 80
2, 72298, Note_on_c, 0, 83, 0
2, 72300, Note_on_c, 0, 82, 80
2, 72358, Note_on_c, 0, 82, 0
2, 72360, Note_on_c, 0, 80, 80
2, 72418, Note_on_c, 0, 80, 0
2, 72420, Note_on_c, 0, 78, 80
2, 72478, Note_on_c, 0, 78, 0
2, 72480, Note_on_c, 0, 76, 80
2, 72538, Note_on_c, 0, 76, 0
2, 72540, Note_on_c, 0, 75, 80
2, 72598, Note_on_c, 0, 75, 0
2, 72600, Note_on_c, 0, 73, 80
2, 72658, Note_on_c, 0, 73, 0
2, 72660, Note_on_c, 0, 71, 80
2, 72718, Note_on_c, 0, 71, 0
2, 72720, Note_on_c, 0, 75, 80
2, 72778, Note_on_c, 0, 75, 0
2, 72780, Note_on_c, 0, 73, 80
2, 72838, Note_on_c, 0, 73, 0
2, 72840, Note_on_c, 0, 76, 80
2, 72898, Note_on_c, 0, 76, 0
2, 72900, Note_on_c, 0, 73, 80
2, 72958, Note_on_c, 0, 73, 0
2, 72960, Note_on_c, 0, 71, 80
2, 73198, Note_on_c, 0, 71, 0
2, 73200, Note_on_c, 0, 70, 80
2, 73224, Note_on_c, 0, 70, 0
2, 73230, Note_on_c, 0, 71, 80
2, 73254, Note_on_c, 0, 71, 0
2, 73260, Note_on_c, 0, 70, 80
2, 73284, Note_on_c, 0, 70, 0
2, 73290, Note_on_c, 0, 71, 80
2, 73314, Note_on_c, 0, 71, 0
2, 73320, Note_on_c, 0, 70, 80
2, 73336, Note_on_c, 0, 70, 0
2, 73340, Note_on_c, 0, 71, 80
2, 73356, Note_on_c, 0, 71, 0
2, 73360, Note_on_c, 0, 70, 80
2, 73376, Note_on_c, 0, 70, 0
2, 73380, Note_on_c, 0, 68, 80
2, 73404, Note_on_c, 0, 68, 0
2, 73410, Note_on_c, 0, 70, 80
2, 73434, Note_on_c, 0, 70, 0
2, 73440, Note_on_c, 0, 71, 80
2, 73890, Note_on_c, 0, 71, 0
2, 73890, End_track
3, 0, Start_track
3, 0, MIDI_port, 0
3, 0, Title_t, "by F.J. Haydn (2nd mvmt - minuet)"
3, 0, Program_c, 1, 0
3, 0, Control_c, 1, 7, 127
3, 0, Control_c, 1, 10, 56
3, 1200, Note_on_c, 1, 63, 80
3, 1200, Note_on_c, 1, 71, 80
3, 1438, Note_on_c, 1, 71, 0
3, 1438, Note_on_c, 1, 63, 0
3, 1440, Note_on_c, 1, 64, 80
3, 1440, Note_on_c, 1, 71, 80
3, 1678, Note_on_c, 1, 71, 0
3, 1678, Note_on_c, 1, 64, 0
3, 1680, Note_on_c, 1, 63, 80
3, 1680, Note_on_c, 1, 71, 80
3, 1824, Note_on_c, 1, 71, 0
3, 1824, Note_on_c, 1, 63, 0
3, 2400, Note_on_c, 1, 68, 80
3, 2638, Note_on_c, 1, 68, 0
3, 2640, Note_on_c, 1, 66, 80
3, 2878, Note_on_c, 1, 66, 0
3, 2880, Note_on_c, 1, 64, 80
3, 3118, Note_on_c, 1, 64, 0
3, 3120, Note_on_c, 1, 63, 80
3, 3264, Note_on_c, 1, 63, 0
3, 4080, Note_on_c, 1, 59, 80
3, 4080, Note_on_c, 1, 65, 80
3, 4318, Note_on_c, 1, 65, 0
3, 4318, Note_on_c, 1, 59, 0
3, 4320, Note_on_c, 1, 58, 80
3, 4320, Note_on_c, 1, 66, 80
3, 4558, Note_on_c, 1, 66, 0
3, 4558, Note_on_c, 1, 58, 0
3, 4800, Note_on_c, 1, 59, 48
3, 4800, Note_on_c, 1, 65, 48
3, 5038, Note_on_c, 1, 65, 0
3, 5038, Note_on_c, 1, 59, 0
3, 5040, Note_on_c, 1, 58, 48
3, 5040, Note_on_c, 1, 66, 48
3, 5278, Note_on_c, 1, 66, 0
3, 5278, Note_on_c, 1, 58, 0
3, 5520, Note_on_c, 1, 59, 80
3, 5520, Note_on_c, 1, 65, 80
3, 5758, Note_on_c, 1, 65, 0
3, 5758, Note_on_c, 1, 59, 0
3, 5760, Note_on_c, 1, 58, 80
3, 5760, Note_on_c, 1, 66, 80
3, 6478, Note_on_c, 1, 66, 0
3, 6478, Note_on_c, 1, 58, 0
3, 6720, Note_on_c, 1, 59, 80
3, 6720, Note_on_c, 1, 66, 80
3, 6958, Note_on_c, 1, 66, 0
3, 6958, Note_on_c, 1, 59, 0
3, 6960, Note_on_c, 1, 61, 80
3, 6960, Note_on_c, 1, 66, 80
3, 7198, Note_on_c, 1, 66, 0
3, 7200, Note_on_c, 1, 61, 0
3, 7200, Note_on_c, 1, 54, 80
3, 7438, Note_on_c, 1, 54, 0
3, 7440, Note_on_c, 1, 42, 80
3, 7560, Note_on_c, 1, 42, 0
3, 8400, Note_on_c, 1, 71, 80
3, 8400, Note_on_c, 1, 63, 80
3, 8638, Note_on_c, 1, 63, 0
3, 8638, Note_on_c, 1, 71, 0
3, 8640, Note_on_c, 1, 71, 80
3, 8640, Note_on_c, 1, 64, 80
3, 8878, Note_on_c, 1, 64, 0
3, 8878, Note_on_c, 1, 71, 0
3, 8880, Note_on_c, 1, 71, 80
3, 8880, Note_on_c, 1, 63, 80
3, 9024, Note_on_c, 1, 63, 0
3, 9024, Note_on_c, 1, 71, 0
3, 9600, Note_on_c, 1, 68, 80
3, 9838, Note_on_c, 1, 68, 0
3, 9840, Note_on_c, 1, 66, 80
3, 10078, Note_on_c, 1, 66, 0
3, 10080, Note_on_c, 1, 64, 80
3, 10318, Note_on_c, 1, 64, 0
3, 10320, Note_on_c, 1, 63, 80
3, 10464, Note_on_c, 1, 63, 0
3, 11280, Note_on_c, 1, 65, 80
3, 11280, Note_on_c, 1, 59, 80
3, 11518, Note_on_c, 1, 59, 0
3, 11518, Note_on_c, 1, 65, 0
3, 11520, Note_on_c, 1, 66, 80
3, 11520, Note_on_c, 1, 58, 80
3, 11758, Note_on_c, 1, 58, 0
3, 11758, Note_on_c, 1, 66, 0
3, 12000, Note_on_c, 1, 65, 48
3, 12000, Note_on_c, 1, 59, 48
3, 12238, Note_on_c, 1, 59, 0
3, 12238, Note_on_c, 1, 65, 0
3, 12240, Note_on_c, 1, 66, 48
3, 12240, Note_on_c, 1, 58, 48
3, 12478, Note_on_c, 1, 58, 0
3, 12478, Note_on_c, 1, 66, 0
3, 12720, Note_on_c, 1, 65, 80
3, 12720, Note_on_c, 1, 59, 80
3, 12958, Note_on_c, 1, 59, 0
3, 12958, Note_on_c, 1, 65, 0
3, 12960, Note_on_c, 1, 66, 80
3, 12960, Note_on_c, 1, 58, 80
3, 13678, Note_on_c, 1, 58, 0
3, 13678, Note_on_c, 1, 66, 0
3, 13920, Note_on_c, 1, 66, 80
3, 13920, Note_on_c, 1, 59, 80
3, 14158, Note_on_c, 1, 59, 0
3, 14158, Note_on_c, 1, 66, 0
3, 14160, Note_on_c, 1, 66, 80
3, 14160, Note_on_c, 1, 61, 80
3, 14398, Note_on_c, 1, 66, 0
3, 14400, Note_on_c, 1, 61, 0
3, 14400, Note_on_c, 1, 54, 80
3, 14638, Note_on_c, 1, 54, 0
3, 14640, Note_on_c, 1, 42, 80
3, 14760, Note_on_c, 1, 42, 0
3, 15600, Note_on_c, 1, 54, 80
3, 15838, Note_on_c, 1, 54, 0
3, 15840, Note_on_c, 1, 52, 80
3, 16078, Note_on_c, 1, 52, 0
3, 17040, Note_on_c, 1, 64, 80
3, 17278, Note_on_c, 1, 64, 0
3, 17280, Note_on_c, 1, 63, 80
3, 17998, Note_on_c, 1, 63, 0
3, 18000, Note_on_c, 1, 64, 80
3, 18598, Note_on_c, 1, 64, 0
3, 18600, Note_on_c, 1, 65, 80
3, 18718, Note_on_c, 1, 65, 0
3, 18720, Note_on_c, 1, 66, 80
3, 18960, Note_on_c, 1, 66, 0
3, 18960, Note_on_c, 1, 54, 80
3, 19080, Note_on_c, 1, 54, 0
3, 19920, Note_on_c, 1, 64, 80
3, 19920, Note_on_c, 1, 70, 80
3, 20158, Note_on_c, 1, 70, 0
3, 20158, Note_on_c, 1, 64, 0
3, 20160, Note_on_c, 1, 63, 80
3, 20160, Note_on_c, 1, 71, 80
3, 20398, Note_on_c, 1, 71, 0
3, 20398, Note_on_c, 1, 63, 0
3, 20640, Note_on_c, 1, 64, 48
3, 20640, Note_on_c, 1, 70, 48
3, 20878, Note_on_c, 1, 70, 0
3, 20878, Note_on_c, 1, 64, 0
3, 20880, Note_on_c, 1, 63, 48
3, 20880, Note_on_c, 1, 71, 48
3, 21118, Note_on_c, 1, 71, 0
3, 21118, Note_on_c, 1, 63, 0
3, 21360, Note_on_c, 1, 52, 80
3, 21360, Note_on_c, 1, 58, 80
3, 21598, Note_on_c, 1, 58, 0
3, 21598, Note_on_c, 1, 52, 0
3, 21600, Note_on_c, 1, 51, 80
3, 21600, Note_on_c, 1, 59, 80
3, 22318, Note_on_c, 1, 59, 0
3, 22318, Note_on_c, 1, 51, 0
3, 22320, Note_on_c, 1, 52, 80
3, 22440, Note_on_c, 1, 64, 80
3, 22558, Note_on_c, 1, 64, 0
3, 22558, Note_on_c, 1, 52, 0
3, 22560, Note_on_c, 1, 54, 80
3, 22560, Note_on_c, 1, 63, 80
3, 22798, Note_on_c, 1, 63, 0
3, 22800, Note_on_c, 1, 61, 80
3, 23038, Note_on_c, 1, 61, 0
3, 23038, Note_on_c, 1, 54, 0
3, 23040, Note_on_c, 1, 59, 80
3, 23278, Note_on_c, 1, 59, 0
3, 23280, Note_on_c, 1, 47, 80
3, 23518, Note_on_c, 1, 47, 0
3, 24240, Note_on_c, 1, 54, 80
3, 24478, Note_on_c, 1, 54, 0
3, 24480, Note_on_c, 1, 52, 80
3, 24718, Note_on_c, 1, 52, 0
3, 25680, Note_on_c, 1, 64, 80
3, 25918, Note_on_c, 1, 64, 0
3, 25920, Note_on_c, 1, 63, 80
3, 26638, Note_on_c, 1, 63, 0
3, 26640, Note_on_c, 1, 64, 80
3, 27238, Note_on_c, 1, 64, 0
3, 27240, Note_on_c, 1, 65, 80
3, 27358, Note_on_c, 1, 65, 0
3, 27360, Note_on_c, 1, 66, 80
3, 27600, Note_on_c, 1, 66, 0
3, 27600, Note_on_c, 1, 54, 80
3, 27720, Note_on_c, 1, 54, 0
3, 28560, Note_on_c, 1, 70, 80
3, 28560, Note_on_c, 1, 64, 80
3, 28798, Note_on_c, 1, 64, 0
3, 28798, Note_on_c, 1, 70, 0
3, 28800, Note_on_c, 1, 71, 80
3, 28800, Note_on_c, 1, 63, 80
3, 29038, Note_on_c, 1, 63, 0
3, 29038, Note_on_c, 1, 71, 0
3, 29280, Note_on_c, 1, 70, 48
3, 29280, Note_on_c, 1, 64, 48
3, 29518, Note_on_c, 1, 64, 0
3, 29518, Note_on_c, 1, 70, 0
3, 29520, Note_on_c, 1, 71, 48
3, 29520, Note_on_c, 1, 63, 48
3, 29758, Note_on_c, 1, 63, 0
3, 29758, Note_on_c, 1, 71, 0
3, 30000, Note_on_c, 1, 58, 80
3, 30000, Note_on_c, 1, 52, 80
3, 30238, Note_on_c, 1, 52, 0
3, 30238, Note_on_c, 1, 58, 0
3, 30240, Note_on_c, 1, 59, 80
3, 30240, Note_on_c, 1, 51, 80
3, 30958, Note_on_c, 1, 51, 0
3, 30958, Note_on_c, 1, 59, 0
3, 30960, Note_on_c, 1, 52, 80
3, 31080, Note_on_c, 1, 64, 80
3, 31198, Note_on_c, 1, 64, 0
3, 31198, Note_on_c, 1, 52, 0
3, 31200, Note_on_c, 1, 63, 80
3, 31200, Note_on_c, 1, 54, 80
3, 31438, Note_on_c, 1, 63, 0
3, 31440, Note_on_c, 1, 61, 80
3, 31678, Note_on_c, 1, 61, 0
3, 31678, Note_on_c, 1, 54, 0
3, 31680, Note_on_c, 1, 59, 80
3, 31918, Note_on_c, 1, 59, 0
3, 31920, Note_on_c, 1, 47, 80
3, 32158, Note_on_c, 1, 47, 0
3, 32400, Note_on_c, 1, 35, 88
3, 32400, Note_on_c, 1, 47, 88
3, 32638, Note_on_c, 1, 47, 0
3, 32638, Note_on_c, 1, 35, 0
3, 32640, Note_on_c, 1, 50, 59
3, 32700, Note_on_c, 1, 50, 0
3, 32760, Note_on_c, 1, 49, 64
3, 32820, Note_on_c, 1, 49, 0
3, 32880, Note_on_c, 1, 50, 69
3, 32940, Note_on_c, 1, 50, 0
3, 33000, Note_on_c, 1, 46, 75
3, 33060, Note_on_c, 1, 46, 0
3, 33120, Note_on_c, 1, 35, 88
3, 33120, Note_on_c, 1, 47, 88
3, 33358, Note_on_c, 1, 47, 0
3, 33358, Note_on_c, 1, 35, 0
3, 33360, Note_on_c, 1, 50, 59
3, 33420, Note_on_c, 1, 50, 0
3, 33480, Note_on_c, 1, 49, 64
3, 33540, Note_on_c, 1, 49, 0
3, 33600, Note_on_c, 1, 50, 69
3, 33660, Note_on_c, 1, 50, 0
3, 33720, Note_on_c, 1, 46, 75
3, 33780, Note_on_c, 1, 46, 0
3, 33840, Note_on_c, 1, 47, 85
3, 33960, Note_on_c, 1, 47, 0
3, 33960, Note_on_c, 1, 49, 64
3, 34020, Note_on_c, 1, 49, 0
3, 34080, Note_on_c, 1, 50, 64
3, 34140, Note_on_c, 1, 50, 0
3, 34200, Note_on_c, 1, 46, 64
3, 34260, Note_on_c, 1, 46, 0
3, 34320, Note_on_c, 1, 47, 64
3, 34380, Note_on_c, 1, 47, 0
3, 34440, Note_on_c, 1, 49, 64
3, 34500, Note_on_c, 1, 49, 0
3, 34560, Note_on_c, 1, 50, 64
3, 34680, Note_on_c, 1, 50, 0
3, 34680, Note_on_c, 1, 49, 67
3, 34728, Note_on_c, 1, 49, 0
3, 34800, Note_on_c, 1, 50, 69
3, 34920, Note_on_c, 1, 50, 0
3, 34920, Note_on_c, 1, 47, 72
3, 34968, Note_on_c, 1, 47, 0
3, 35040, Note_on_c, 1, 49, 75
3, 35088, Note_on_c, 1, 49, 0
3, 35160, Note_on_c, 1, 50, 77
3, 35268, Note_on_c, 1, 50, 0
3, 35280, Note_on_c, 1, 52, 85
3, 35398, Note_on_c, 1, 52, 0
3, 35400, Note_on_c, 1, 55, 85
3, 35518, Note_on_c, 1, 55, 0
3, 35520, Note_on_c, 1, 52, 85
3, 35638, Note_on_c, 1, 52, 0
3, 35640, Note_on_c, 1, 50, 85
3, 35758, Note_on_c, 1, 50, 0
3, 35760, Note_on_c, 1, 49, 85
3, 35878, Note_on_c, 1, 49, 0
3, 35880, Note_on_c, 1, 47, 85
3, 35998, Note_on_c, 1, 47, 0
3, 36000, Note_on_c, 1, 45, 85
3, 36118, Note_on_c, 1, 45, 0
3, 36120, Note_on_c, 1, 47, 85
3, 36238, Note_on_c, 1, 47, 0
3, 36240, Note_on_c, 1, 49, 85
3, 36358, Note_on_c, 1, 49, 0
3, 36360, Note_on_c, 1, 47, 85
3, 36478, Note_on_c, 1, 47, 0
3, 36480, Note_on_c, 1, 49, 85
3, 36598, Note_on_c, 1, 49, 0
3, 36600, Note_on_c, 1, 45, 85
3, 36718, Note_on_c, 1, 45, 0
3, 36720, Note_on_c, 1, 42, 85
3, 36958, Note_on_c, 1, 42, 0
3, 36960, Note_on_c, 1, 43, 85
3, 37198, Note_on_c, 1, 43, 0
3, 37200, Note_on_c, 1, 45, 85
3, 37438, Note_on_c, 1, 45, 0
3, 37440, Note_on_c, 1, 38, 85
3, 37678, Note_on_c, 1, 38, 0
3, 37680, Note_on_c, 1, 50, 85
3, 37918, Note_on_c, 1, 50, 0
3, 38160, Note_on_c, 1, 47, 88
3, 38160, Note_on_c, 1, 35, 88
3, 38398, Note_on_c, 1, 35, 0
3, 38398, Note_on_c, 1, 47, 0
3, 38400, Note_on_c, 1, 50, 59
3, 38460, Note_on_c, 1, 50, 0
3, 38520, Note_on_c, 1, 49, 64
3, 38580, Note_on_c, 1, 49, 0
3, 38640, Note_on_c, 1, 50, 69
3, 38700, Note_on_c, 1, 50, 0
3, 38760, Note_on_c, 1, 46, 75
3, 38820, Note_on_c, 1, 46, 0
3, 38880, Note_on_c, 1, 47, 88
3, 38880, Note_on_c, 1, 35, 88
3, 39118, Note_on_c, 1, 35, 0
3, 39118, Note_on_c, 1, 47, 0
3, 39120, Note_on_c, 1, 50, 59
3, 39180, Note_on_c, 1, 50, 0
3, 39240, Note_on_c, 1, 49, 64
3, 39300, Note_on_c, 1, 49, 0
3, 39360, Note_on_c, 1, 50, 69
3, 39420, Note_on_c, 1, 50, 0
3, 39480, Note_on_c, 1, 46, 75
3, 39540, Note_on_c, 1, 46, 0
3, 39600, Note_on_c, 1, 47, 85
3, 39720, Note_on_c, 1, 47, 0
3, 39720, Note_on_c, 1, 49, 64
3, 39780, Note_on_c, 1, 49, 0
3, 39840, Note_on_c, 1, 50, 64
3, 39900, Note_on_c, 1, 50, 0
3, 39960, Note_on_c, 1, 46, 64
3, 40020, Note_on_c, 1, 46, 0
3, 40080, Note_on_c, 1, 47, 64
3, 40140, Note_on_c, 1, 47, 0
3, 40200, Note_on_c, 1, 49, 64
3, 40260, Note_on_c, 1, 49, 0
3, 40320, Note_on_c, 1, 50, 64
3, 40440, Note_on_c, 1, 50, 0
3, 40440, Note_on_c, 1, 49, 67
3, 40488, Note_on_c, 1, 49, 0
3, 40560, Note_on_c, 1, 50, 69
3, 40680, Note_on_c, 1, 50, 0
3, 40680, Note_on_c, 1, 47, 72
3, 40728, Note_on_c, 1, 47, 0
3, 40800, Note_on_c, 1, 49, 75
3, 40848, Note_on_c, 1, 49, 0
3, 40920, Note_on_c, 1, 50, 77
3, 41028, Note_on_c, 1, 50, 0
3, 41040, Note_on_c, 1, 52, 85
3, 41158, Note_on_c, 1, 52, 0
3, 41160, Note_on_c, 1, 55, 85
3, 41208, Note_on_c, 1, 55, 0
3, 41280, Note_on_c, 1, 52, 85
3, 41328, Note_on_c, 1, 52, 0
3, 41400, Note_on_c, 1, 50, 85
3, 41448, Note_on_c, 1, 50, 0
3, 41520, Note_on_c, 1, 49, 85
3, 41568, Note_on_c, 1, 49, 0
3, 41640, Note_on_c, 1, 47, 85
3, 41688, Note_on_c, 1, 47, 0
3, 41760, Note_on_c, 1, 45, 85
3, 41878, Note_on_c, 1, 45, 0
3, 41880, Note_on_c, 1, 47, 85
3, 41928, Note_on_c, 1, 47, 0
3, 42000, Note_on_c, 1, 49, 85
3, 42048, Note_on_c, 1, 49, 0
3, 42120, Note_on_c, 1, 47, 85
3, 42168, Note_on_c, 1, 47, 0
3, 42240, Note_on_c, 1, 49, 85
3, 42288, Note_on_c, 1, 49, 0
3, 42360, Note_on_c, 1, 45, 85
3, 42408, Note_on_c, 1, 45, 0
3, 42480, Note_on_c, 1, 42, 85
3, 42718, Note_on_c, 1, 42, 0
3, 42720, Note_on_c, 1, 43, 85
3, 42840, Note_on_c, 1, 43, 0
3, 42960, Note_on_c, 1, 45, 85
3, 43080, Note_on_c, 1, 45, 0
3, 43200, Note_on_c, 1, 38, 85
3, 43368, Note_on_c, 1, 38, 0
3, 43440, Note_on_c, 1, 50, 85
3, 43656, Note_on_c, 1, 50, 0
3, 44040, Note_on_c, 1, 54, 85
3, 44088, Note_on_c, 1, 54, 0
3, 44160, Note_on_c, 1, 58, 85
3, 44278, Note_on_c, 1, 58, 0
3, 44280, Note_on_c, 1, 61, 85
3, 44328, Note_on_c, 1, 61, 0
3, 44400, Note_on_c, 1, 64, 85
3, 44448, Note_on_c, 1, 64, 0
3, 44520, Note_on_c, 1, 61, 85
3, 44568, Note_on_c, 1, 61, 0
3, 44640, Note_on_c, 1, 62, 85
3, 44758, Note_on_c, 1, 62, 0
3, 44760, Note_on_c, 1, 54, 85
3, 44808, Note_on_c, 1, 54, 0
3, 44880, Note_on_c, 1, 59, 85
3, 44998, Note_on_c, 1, 59, 0
3, 45000, Note_on_c, 1, 50, 85
3, 45048, Note_on_c, 1, 50, 0
3, 45120, Note_on_c, 1, 54, 85
3, 45168, Note_on_c, 1, 54, 0
3, 45240, Note_on_c, 1, 47, 85
3, 45288, Note_on_c, 1, 47, 0
3, 45360, Note_on_c, 1, 46, 85
3, 45478, Note_on_c, 1, 46, 0
3, 45480, Note_on_c, 1, 37, 85
3, 45480, Note_on_c, 1, 49, 85
3, 45528, Note_on_c, 1, 49, 0
3, 45528, Note_on_c, 1, 37, 0
3, 45600, Note_on_c, 1, 40, 85
3, 45600, Note_on_c, 1, 52, 85
3, 45648, Note_on_c, 1, 52, 0
3, 45648, Note_on_c, 1, 40, 0
3, 45720, Note_on_c, 1, 37, 85
3, 45720, Note_on_c, 1, 49, 85
3, 45768, Note_on_c, 1, 49, 0
3, 45768, Note_on_c, 1, 37, 0
3, 45840, Note_on_c, 1, 38, 85
3, 45840, Note_on_c, 1, 50, 85
3, 45888, Note_on_c, 1, 50, 0
3, 45888, Note_on_c, 1, 38, 0
3, 45960, Note_on_c, 1, 35, 85
3, 45960, Note_on_c, 1, 47, 85
3, 46008, Note_on_c, 1, 47, 0
3, 46008, Note_on_c, 1, 35, 0
3, 46080, Note_on_c, 1, 30, 85
3, 46080, Note_on_c, 1, 42, 85
3, 46318, Note_on_c, 1, 42, 0
3, 46318, Note_on_c, 1, 30, 0
3, 46800, Note_on_c, 1, 35, 96
3, 46800, Note_on_c, 1, 47, 96
3, 46968, Note_on_c, 1, 47, 0
3, 46968, Note_on_c, 1, 35, 0
3, 47040, Note_on_c, 1, 50, 59
3, 47088, Note_on_c, 1, 50, 0
3, 47160, Note_on_c, 1, 49, 64
3, 47208, Note_on_c, 1, 49, 0
3, 47280, Note_on_c, 1, 50, 69
3, 47328, Note_on_c, 1, 50, 0
3, 47400, Note_on_c, 1, 46, 75
3, 47448, Note_on_c, 1, 46, 0
3, 47520, Note_on_c, 1, 35, 96
3, 47520, Note_on_c, 1, 47, 96
3, 47688, Note_on_c, 1, 47, 0
3, 47688, Note_on_c, 1, 35, 0
3, 47760, Note_on_c, 1, 50, 59
3, 47808, Note_on_c, 1, 50, 0
3, 47880, Note_on_c, 1, 49, 64
3, 47928, Note_on_c, 1, 49, 0
3, 48000, Note_on_c, 1, 50, 69
3, 48048, Note_on_c, 1, 50, 0
3, 48120, Note_on_c, 1, 46, 75
3, 48168, Note_on_c, 1, 46, 0
3, 48240, Note_on_c, 1, 47, 85
3, 48478, Note_on_c, 1, 47, 0
3, 48480, Note_on_c, 1, 49, 85
3, 48600, Note_on_c, 1, 49, 0
3, 48720, Note_on_c, 1, 50, 85
3, 48840, Note_on_c, 1, 50, 0
3, 48960, Note_on_c, 1, 52, 85
3, 49198, Note_on_c, 1, 52, 0
3, 49200, Note_on_c, 1, 50, 85
3, 49320, Note_on_c, 1, 50, 0
3, 49440, Note_on_c, 1, 49, 85
3, 49560, Note_on_c, 1, 49, 0
3, 49680, Note_on_c, 1, 47, 85
3, 49918, Note_on_c, 1, 47, 0
3, 49920, Note_on_c, 1, 40, 85
3, 50040, Note_on_c, 1, 40, 0
3, 50160, Note_on_c, 1, 42, 85
3, 50280, Note_on_c, 1, 42, 0
3, 50400, Note_on_c, 1, 35, 85
3, 50638, Note_on_c, 1, 35, 0
3, 51240, Note_on_c, 1, 54, 85
3, 51288, Note_on_c, 1, 54, 0
3, 51360, Note_on_c, 1, 58, 85
3, 51478, Note_on_c, 1, 58, 0
3, 51480, Note_on_c, 1, 61, 85
3, 51528, Note_on_c, 1, 61, 0
3, 51600, Note_on_c, 1, 64, 85
3, 51648, Note_on_c, 1, 64, 0
3, 51720, Note_on_c, 1, 61, 85
3, 51768, Note_on_c, 1, 61, 0
3, 51840, Note_on_c, 1, 62, 85
3, 51958, Note_on_c, 1, 62, 0
3, 51960, Note_on_c, 1, 54, 85
3, 52008, Note_on_c, 1, 54, 0
3, 52080, Note_on_c, 1, 59, 85
3, 52198, Note_on_c, 1, 59, 0
3, 52200, Note_on_c, 1, 50, 85
3, 52248, Note_on_c, 1, 50, 0
3, 52320, Note_on_c, 1, 54, 85
3, 52368, Note_on_c, 1, 54, 0
3, 52440, Note_on_c, 1, 47, 85
3, 52488, Note_on_c, 1, 47, 0
3, 52560, Note_on_c, 1, 46, 85
3, 52678, Note_on_c, 1, 46, 0
3, 52680, Note_on_c, 1, 49, 85
3, 52680, Note_on_c, 1, 37, 85
3, 52728, Note_on_c, 1, 37, 0
3, 52728, Note_on_c, 1, 49, 0
3, 52800, Note_on_c, 1, 52, 85
3, 52800, Note_on_c, 1, 40, 85
3, 52848, Note_on_c, 1, 40, 0
3, 52848, Note_on_c, 1, 52, 0
3, 52920, Note_on_c, 1, 49, 85
3, 52920, Note_on_c, 1, 37, 85
3, 52968, Note_on_c, 1, 37, 0
3, 52968, Note_on_c, 1, 49, 0
3, 53040, Note_on_c, 1, 50, 85
3, 53040, Note_on_c, 1, 38, 85
3, 53088, Note_on_c, 1, 38, 0
3, 53088, Note_on_c, 1, 50, 0
3, 53160, Note_on_c, 1, 47, 85
3, 53160, Note_on_c, 1, 35, 85
3, 53208, Note_on_c, 1, 35, 0
3, 53208, Note_on_c, 1, 47, 0
3, 53280, Note_on_c, 1, 42, 85
3, 53280, Note_on_c, 1, 30, 85
3, 53518, Note_on_c, 1, 30, 0
3, 53518, Note_on_c, 1, 42, 0
3, 54000, Note_on_c, 1, 47, 96
3, 54000, Note_on_c, 1, 35, 96
3, 54168, Note_on_c, 1, 35, 0
3, 54168, Note_on_c, 1, 47, 0
3, 54240, Note_on_c, 1, 50, 59
3, 54288, Note_on_c, 1, 50, 0
3, 54360, Note_on_c, 1, 49, 64
3, 54408, Note_on_c, 1, 49, 0
3, 54480, Note_on_c, 1, 50, 69
3, 54528, Note_on_c, 1, 50, 0
3, 54600, Note_on_c, 1, 46, 75
3, 54648, Note_on_c, 1, 46, 0
3, 54720, Note_on_c, 1, 47, 96
3, 54720, Note_on_c, 1, 35, 96
3, 54888, Note_on_c, 1, 35, 0
3, 54888, Note_on_c, 1, 47, 0
3, 54960, Note_on_c, 1, 50, 59
3, 55008, Note_on_c, 1, 50, 0
3, 55080, Note_on_c, 1, 49, 64
3, 55128, Note_on_c, 1, 49, 0
3, 55200, Note_on_c, 1, 50, 69
3, 55248, Note_on_c, 1, 50, 0
3, 55320, Note_on_c, 1, 46, 75
3, 55368, Note_on_c, 1, 46, 0
3, 55440, Note_on_c, 1, 47, 85
3, 55678, Note_on_c, 1, 47, 0
3, 55680, Note_on_c, 1, 49, 85
3, 55800, Note_on_c, 1, 49, 0
3, 55920, Note_on_c, 1, 50, 85
3, 56040, Note_on_c, 1, 50, 0
3, 56160, Note_on_c, 1, 52, 85
3, 56398, Note_on_c, 1, 52, 0
3, 56400, Note_on_c, 1, 50, 85
3, 56520, Note_on_c, 1, 50, 0
3, 56640, Note_on_c, 1, 49, 85
3, 56760, Note_on_c, 1, 49, 0
3, 56880, Note_on_c, 1, 47, 85
3, 57118, Note_on_c, 1, 47, 0
3, 57120, Note_on_c, 1, 40, 85
3, 57240, Note_on_c, 1, 40, 0
3, 57360, Note_on_c, 1, 42, 85
3, 57480, Note_on_c, 1, 42, 0
3, 57600, Note_on_c, 1, 35, 85
3, 57838, Note_on_c, 1, 35, 0
3, 58800, Note_on_c, 1, 63, 80
3, 58800, Note_on_c, 1, 71, 80
3, 59038, Note_on_c, 1, 71, 0
3, 59038, Note_on_c, 1, 63, 0
3, 59040, Note_on_c, 1, 64, 80
3, 59040, Note_on_c, 1, 71, 80
3, 59278, Note_on_c, 1, 71, 0
3, 59278, Note_on_c, 1, 64, 0
3, 59280, Note_on_c, 1, 63, 80
3, 59280, Note_on_c, 1, 71, 80
3, 59424, Note_on_c, 1, 71, 0
3, 59424, Note_on_c, 1, 63, 0
3, 60000, Note_on_c, 1, 68, 80
3, 60238, Note_on_c, 1, 68, 0
3, 60240, Note_on_c, 1, 66, 80
3, 60478, Note_on_c, 1, 66, 0
3, 60480, Note_on_c, 1, 64, 80
3, 60718, Note_on_c, 1, 64, 0
3, 60720, Note_on_c, 1, 63, 80
3, 60864, Note_on_c, 1, 63, 0
3, 61680, Note_on_c, 1, 59, 80
3, 61680, Note_on_c, 1, 65, 80
3, 61918, Note_on_c, 1, 65, 0
3, 61918, Note_on_c, 1, 59, 0
3, 61920, Note_on_c, 1, 58, 80
3, 61920, Note_on_c, 1, 66, 80
3, 62158, Note_on_c, 1, 66, 0
3, 62158, Note_on_c, 1, 58, 0
3, 62400, Note_on_c, 1, 59, 48
3, 62400, Note_on_c, 1, 65, 48
3, 62638, Note_on_c, 1, 65, 0
3, 62638, Note_on_c, 1, 59, 0
3, 62640, Note_on_c, 1, 58, 48
3, 62640, Note_on_c, 1, 66, 48
3, 62878, Note_on_c, 1, 66, 0
3, 62878, Note_on_c, 1, 58, 0
3, 63120, Note_on_c, 1, 59, 80
3, 63120, Note_on_c, 1, 65, 80
3, 63358, Note_on_c, 1, 65, 0
3, 63358, Note_on_c, 1, 59, 0
3, 63360, Note_on_c, 1, 58, 80
3, 63360, Note_on_c, 1, 66, 80
3, 64078, Note_on_c, 1, 66, 0
3, 64078, Note_on_c, 1, 58, 0
3, 64320, Note_on_c, 1, 59, 80
3, 64320, Note_on_c, 1, 66, 80
3, 64558, Note_on_c, 1, 66, 0
3, 64558, Note_on_c, 1, 59, 0
3, 64560, Note_on_c, 1, 61, 80
3, 64560, Note_on_c, 1, 66, 80
3, 64798, Note_on_c, 1, 66, 0
3, 64800, Note_on_c, 1, 61, 0
3, 64800, Note_on_c, 1, 54, 80
3, 65038, Note_on_c, 1, 54, 0
3, 65040, Note_on_c, 1, 42, 80
3, 65160, Note_on_c, 1, 42, 0
3, 66000, Note_on_c, 1, 54, 80
3, 66238, Note_on_c, 1, 54, 0
3, 66240, Note_on_c, 1, 52, 80
3, 66478, Note_on_c, 1, 52, 0
3, 67440, Note_on_c, 1, 64, 80
3, 67678, Note_on_c, 1, 64, 0
3, 67680, Note_on_c, 1, 63, 80
3, 68398, Note_on_c, 1, 63, 0
3, 68400, Note_on_c, 1, 64, 80
3, 68998, Note_on_c, 1, 64, 0
3, 69000, Note_on_c, 1, 65, 80
3, 69118, Note_on_c, 1, 65, 0
3, 69120, Note_on_c, 1, 66, 80
3, 69360, Note_on_c, 1, 66, 0
3, 69360, Note_on_c, 1, 54, 80
3, 69480, Note_on_c, 1, 54, 0
3, 70320, Note_on_c, 1, 64, 80
3, 70320, Note_on_c, 1, 70, 80
3, 70558, Note_on_c, 1, 70, 0
3, 70558, Note_on_c, 1, 64, 0
3, 70560, Note_on_c, 1, 63, 80
3, 70560, Note_on_c, 1, 71, 80
3, 70798, Note_on_c, 1, 71, 0
3, 70798, Note_on_c, 1, 63, 0
3, 71040, Note_on_c, 1, 64, 48
3, 71040, Note_on_c, 1, 70, 48
3, 71278, Note_on_c, 1, 70, 0
3, 71278, Note_on_c, 1, 64, 0
3, 71280, Note_on_c, 1, 63, 48
3, 71280, Note_on_c, 1, 71, 48
3, 71518, Note_on_c, 1, 71, 0
3, 71518, Note_on_c, 1, 63, 0
3, 71760, Note_on_c, 1, 52, 80
3, 71760, Note_on_c, 1, 58, 80
3, 71998, Note_on_c, 1, 58, 0
3, 71998, Note_on_c, 1, 52, 0
3, 72000, Note_on_c, 1, 51, 80
3, 72000, Note_on_c, 1, 59, 80
3, 72718, Note_on_c, 1, 59, 0
3, 72718, Note_on_c, 1, 51, 0
3, 72720, Note_on_c, 1, 52, 80
3, 72840, Note_on_c, 1, 64, 80
3, 72958, Note_on_c, 1, 64, 0
3, 72958, Note_on_c, 1, 52, 0
3, 72960, Note_on_c, 1, 54, 80
3, 72960, Note_on_c, 1, 63, 80
3, 73198, Note_on_c, 1, 63, 0
3, 73200, Note_on_c, 1, 61, 80
3, 73438, Note_on_c, 1, 61, 0
3, 73438, Note_on_c, 1, 54, 0
3, 73440, Note_on_c, 1, 59, 80
3, 73678, Note_on_c, 1, 59, 0
3, 73680, Note_on_c, 1, 47, 80
3, 73918, Note_on_c, 1, 47, 0
3, 73918, End_track
4, 0, Start_track
4, 0, MIDI_port, 0
4, 0, Title_t, "MIDI by Marty Weimer  7/6/96"
4, 0, End_track
5, 0, Start_track
5, 0, MIDI_port, 0
5, 0, Title_t, "weimermt@libby.org  Eureka, MT  USA"
5, 0, End_track
0, 0, End_of_file
