0, 0, Header, 1, 5, 240
1, 0, Start_track
1, 0, Time_signature, 4, 2, 24, 8
1, 0, Key_signature, 0, "major"
1, 0, Tempo, 652174
1, 16320, Tempo, 681818
1, 16560, Tempo, 674157
1, 16800, Tempo, 666667
1, 17040, Tempo, 659341
1, 17280, Tempo, 652174
1, 23040, Time_signature, 2, 2, 24, 8
1, 23280, Tempo, 674157
1, 23520, Time_signature, 4, 2, 24, 8
1, 23520, Tempo, 689655
1, 23760, Tempo, 714286
1, 24000, Tempo, 740741
1, 24240, Tempo, 759494
1, 24480, Tempo, 789474
1, 24720, Tempo, 821918
1, 24960, Tempo, 845070
1, 25200, Tempo, 882353
1, 25440, Tempo, 652174
1, 43920, Tempo, 681818
1, 44160, Tempo, 714286
1, 44400, Tempo, 750000
1, 44640, Tempo, 789474
1, 44880, Tempo, 833333
1, 45120, Tempo, 882353
1, 45360, Tempo, 937500
1, 45600, Tempo, 652174
1, 78240, Tempo, 689655
1, 78480, Tempo, 681818
1, 78720, Tempo, 666667
1, 78960, Tempo, 659341
1, 79200, Tempo, 652174
1, 84960, Time_signature, 2, 2, 24, 8
1, 85200, Tempo, 674157
1, 85440, Time_signature, 4, 2, 24, 8
1, 85440, Tempo, 689655
1, 85680, Tempo, 714286
1, 85920, Tempo, 740741
1, 86160, Tempo, 759494
1, 86400, Tempo, 789474
1, 86640, Tempo, 821918
1, 86880, Tempo, 845070
1, 87120, Tempo, 882353
1, 87360, Tempo, 652174
1, 87360, End_track
2, 0, Start_track
2, 0, MIDI_port, 0
2, 0, Title_t, "Piano Sonata No. 20 in c"
2, 0, Program_c, 0, 0
2, 0, Control_c, 0, 7, 127
2, 0, Control_c, 0, 10, 72
2, 0, Note_on_c, 0, 75, 80
2, 0, Note_on_c, 0, 79, 80
2, 360, Note_on_c, 0, 79, 0
2, 360, Note_on_c, 0, 75, 0
2, 360, Note_on_c, 0, 74, 80
2, 360, Note_on_c, 0, 77, 80
2, 420, Note_on_c, 0, 77, 0
2, 420, Note_on_c, 0, 74, 0
2, 480, Note_on_c, 0, 77, 80
2, 480, Note_on_c, 0, 80, 80
2, 840, Note_on_c, 0, 80, 0
2, 840, Note_on_c, 0, 77, 0
2, 840, Note_on_c, 0, 75, 80
2, 840, Note_on_c, 0, 79, 80
2, 900, Note_on_c, 0, 79, 0
2, 900, Note_on_c, 0, 75, 0
2, 960, Note_on_c, 0, 68, 80
2, 960, Note_on_c, 0, 77, 80
2, 1080, Note_on_c, 0, 77, 0
2, 1080, Note_on_c, 0, 68, 0
2, 1080, Note_on_c, 0, 67, 80
2, 1080, Note_on_c, 0, 75, 80
2, 1200, Note_on_c, 0, 75, 0
2, 1200, Note_on_c, 0, 67, 0
2, 1200, Note_on_c, 0, 65, 80
2, 1200, Note_on_c, 0, 74, 80
2, 1320, Note_on_c, 0, 74, 0
2, 1320, Note_on_c, 0, 65, 0
2, 1320, Note_on_c, 0, 63, 80
2, 1320, Note_on_c, 0, 72, 80
2, 1380, Note_on_c, 0, 72, 0
2, 1380, Note_on_c, 0, 63, 0
2, 1380, Note_on_c, 0, 71, 80
2, 1400, Note_on_c, 0, 71, 0
2, 1400, Note_on_c, 0, 72, 80
2, 1420, Note_on_c, 0, 72, 0
2, 1420, Note_on_c, 0, 74, 80
2, 1440, Note_on_c, 0, 74, 0
2, 1440, Note_on_c, 0, 63, 80
2, 1440, Note_on_c, 0, 72, 80
2, 1680, Note_on_c, 0, 72, 0
2, 1680, Note_on_c, 0, 63, 0
2, 1680, Note_on_c, 0, 62, 80
2, 1680, Note_on_c, 0, 71, 80
2, 1740, Note_on_c, 0, 71, 0
2, 1740, Note_on_c, 0, 62, 0
2, 1800, Note_on_c, 0, 68, 80
2, 1860, Note_on_c, 0, 68, 0
2, 1860, Note_on_c, 0, 67, 80
2, 1880, Note_on_c, 0, 67, 0
2, 1880, Note_on_c, 0, 68, 80
2, 1900, Note_on_c, 0, 68, 0
2, 1900, Note_on_c, 0, 70, 80
2, 1920, Note_on_c, 0, 70, 0
2, 1920, Note_on_c, 0, 68, 80
2, 2160, Note_on_c, 0, 68, 0
2, 2160, Note_on_c, 0, 67, 80
2, 2220, Note_on_c, 0, 67, 0
2, 2280, Note_on_c, 0, 72, 80
2, 2340, Note_on_c, 0, 72, 0
2, 2340, Note_on_c, 0, 71, 80
2, 2360, Note_on_c, 0, 71, 0
2, 2360, Note_on_c, 0, 72, 80
2, 2380, Note_on_c, 0, 72, 0
2, 2380, Note_on_c, 0, 74, 80
2, 2400, Note_on_c, 0, 74, 0
2, 2400, Note_on_c, 0, 72, 80
2, 2640, Note_on_c, 0, 72, 0
2, 2640, Note_on_c, 0, 71, 80
2, 2670, Note_on_c, 0, 71, 0
2, 2700, Note_on_c, 0, 80, 80
2, 2760, Note_on_c, 0, 80, 0
2, 2760, Note_on_c, 0, 79, 80
2, 2820, Note_on_c, 0, 79, 0
2, 2820, Note_on_c, 0, 77, 80
2, 2880, Note_on_c, 0, 77, 0
2, 2880, Note_on_c, 0, 77, 80
2, 2940, Note_on_c, 0, 77, 0
2, 2940, Note_on_c, 0, 75, 80
2, 3000, Note_on_c, 0, 75, 0
2, 3000, Note_on_c, 0, 74, 80
2, 3020, Note_on_c, 0, 74, 0
2, 3020, Note_on_c, 0, 75, 80
2, 3040, Note_on_c, 0, 75, 0
2, 3040, Note_on_c, 0, 74, 80
2, 3060, Note_on_c, 0, 74, 0
2, 3060, Note_on_c, 0, 72, 80
2, 3120, Note_on_c, 0, 72, 0
2, 3120, Note_on_c, 0, 71, 80
2, 3168, Note_on_c, 0, 71, 0
2, 3240, Note_on_c, 0, 72, 80
2, 3288, Note_on_c, 0, 72, 0
2, 3360, Note_on_c, 0, 75, 80
2, 3600, Note_on_c, 0, 75, 0
2, 3600, Note_on_c, 0, 74, 80
2, 3684, Note_on_c, 0, 74, 0
2, 3840, Note_on_c, 0, 63, 56
2, 3840, Note_on_c, 0, 67, 56
2, 4200, Note_on_c, 0, 67, 0
2, 4200, Note_on_c, 0, 63, 0
2, 4200, Note_on_c, 0, 62, 56
2, 4200, Note_on_c, 0, 65, 56
2, 4260, Note_on_c, 0, 65, 0
2, 4260, Note_on_c, 0, 62, 0
2, 4320, Note_on_c, 0, 65, 56
2, 4320, Note_on_c, 0, 68, 56
2, 4680, Note_on_c, 0, 68, 0
2, 4680, Note_on_c, 0, 65, 0
2, 4680, Note_on_c, 0, 63, 56
2, 4680, Note_on_c, 0, 67, 56
2, 4740, Note_on_c, 0, 67, 0
2, 4740, Note_on_c, 0, 63, 0
2, 4800, Note_on_c, 0, 72, 56
2, 5130, Note_on_c, 0, 72, 0
2, 5130, Note_on_c, 0, 71, 56
2, 5160, Note_on_c, 0, 71, 0
2, 5160, Note_on_c, 0, 74, 56
2, 5250, Note_on_c, 0, 74, 0
2, 5250, Note_on_c, 0, 72, 56
2, 5280, Note_on_c, 0, 72, 0
2, 5280, Note_on_c, 0, 75, 56
2, 5340, Note_on_c, 0, 75, 0
2, 5520, Note_on_c, 0, 72, 56
2, 5550, Note_on_c, 0, 72, 0
2, 5550, Note_on_c, 0, 74, 56
2, 5580, Note_on_c, 0, 74, 0
2, 5580, Note_on_c, 0, 75, 56
2, 5610, Note_on_c, 0, 75, 0
2, 5610, Note_on_c, 0, 77, 56
2, 5640, Note_on_c, 0, 77, 0
2, 5640, Note_on_c, 0, 79, 56
2, 5670, Note_on_c, 0, 79, 0
2, 5670, Note_on_c, 0, 80, 56
2, 5700, Note_on_c, 0, 80, 0
2, 5700, Note_on_c, 0, 82, 56
2, 5730, Note_on_c, 0, 82, 0
2, 5730, Note_on_c, 0, 84, 56
2, 5760, Note_on_c, 0, 84, 0
2, 5760, Note_on_c, 0, 82, 56
2, 5940, Note_on_c, 0, 82, 0
2, 5940, Note_on_c, 0, 80, 56
2, 5960, Note_on_c, 0, 80, 0
2, 5960, Note_on_c, 0, 82, 56
2, 5980, Note_on_c, 0, 82, 0
2, 5980, Note_on_c, 0, 80, 56
2, 6000, Note_on_c, 0, 80, 0
2, 6000, Note_on_c, 0, 79, 56
2, 6180, Note_on_c, 0, 79, 0
2, 6180, Note_on_c, 0, 84, 56
2, 6240, Note_on_c, 0, 84, 0
2, 6240, Note_on_c, 0, 79, 56
2, 6420, Note_on_c, 0, 79, 0
2, 6420, Note_on_c, 0, 77, 56
2, 6440, Note_on_c, 0, 77, 0
2, 6440, Note_on_c, 0, 79, 56
2, 6460, Note_on_c, 0, 79, 0
2, 6460, Note_on_c, 0, 77, 56
2, 6480, Note_on_c, 0, 77, 0
2, 6480, Note_on_c, 0, 75, 56
2, 6552, Note_on_c, 0, 75, 0
2, 6780, Note_on_c, 0, 73, 54
2, 6840, Note_on_c, 0, 73, 0
2, 6840, Note_on_c, 0, 75, 53
2, 6855, Note_on_c, 0, 75, 0
2, 6855, Note_on_c, 0, 73, 53
2, 6870, Note_on_c, 0, 73, 0
2, 6870, Note_on_c, 0, 72, 52
2, 6885, Note_on_c, 0, 72, 0
2, 6885, Note_on_c, 0, 73, 52
2, 6900, Note_on_c, 0, 73, 0
2, 6900, Note_on_c, 0, 80, 51
2, 6960, Note_on_c, 0, 80, 0
2, 6960, Note_on_c, 0, 72, 50
2, 7020, Note_on_c, 0, 72, 0
2, 7080, Note_on_c, 0, 71, 47
2, 7110, Note_on_c, 0, 71, 0
2, 7110, Note_on_c, 0, 72, 46
2, 7140, Note_on_c, 0, 72, 0
2, 7140, Note_on_c, 0, 71, 45
2, 7160, Note_on_c, 0, 71, 0
2, 7160, Note_on_c, 0, 72, 45
2, 7180, Note_on_c, 0, 72, 0
2, 7180, Note_on_c, 0, 71, 44
2, 7200, Note_on_c, 0, 71, 0
2, 7200, Note_on_c, 0, 72, 44
2, 7440, Note_on_c, 0, 72, 0
2, 7680, Note_on_c, 0, 63, 80
2, 7980, Note_on_c, 0, 63, 0
2, 7980, Note_on_c, 0, 63, 80
2, 8040, Note_on_c, 0, 63, 0
2, 8040, Note_on_c, 0, 65, 80
2, 8070, Note_on_c, 0, 65, 0
2, 8070, Note_on_c, 0, 63, 80
2, 8100, Note_on_c, 0, 63, 0
2, 8100, Note_on_c, 0, 62, 80
2, 8130, Note_on_c, 0, 62, 0
2, 8130, Note_on_c, 0, 63, 80
2, 8160, Note_on_c, 0, 63, 0
2, 8160, Note_on_c, 0, 68, 80
2, 8220, Note_on_c, 0, 68, 0
2, 8220, Note_on_c, 0, 63, 80
2, 8280, Note_on_c, 0, 63, 0
2, 8280, Note_on_c, 0, 65, 80
2, 8310, Note_on_c, 0, 65, 0
2, 8310, Note_on_c, 0, 63, 80
2, 8340, Note_on_c, 0, 63, 0
2, 8340, Note_on_c, 0, 62, 80
2, 8370, Note_on_c, 0, 62, 0
2, 8370, Note_on_c, 0, 63, 80
2, 8400, Note_on_c, 0, 63, 0
2, 8400, Note_on_c, 0, 70, 80
2, 8460, Note_on_c, 0, 70, 0
2, 8460, Note_on_c, 0, 63, 80
2, 8520, Note_on_c, 0, 63, 0
2, 8520, Note_on_c, 0, 65, 80
2, 8550, Note_on_c, 0, 65, 0
2, 8550, Note_on_c, 0, 63, 80
2, 8580, Note_on_c, 0, 63, 0
2, 8580, Note_on_c, 0, 62, 80
2, 8610, Note_on_c, 0, 62, 0
2, 8610, Note_on_c, 0, 63, 80
2, 8640, Note_on_c, 0, 63, 0
2, 8640, Note_on_c, 0, 72, 80
2, 8760, Note_on_c, 0, 72, 0
2, 8880, Note_on_c, 0, 74, 56
2, 8940, Note_on_c, 0, 74, 0
2, 8940, Note_on_c, 0, 75, 56
2, 8970, Note_on_c, 0, 75, 0
2, 9000, Note_on_c, 0, 77, 56
2, 9030, Note_on_c, 0, 77, 0
2, 9060, Note_on_c, 0, 75, 56
2, 9090, Note_on_c, 0, 75, 0
2, 9120, Note_on_c, 0, 73, 56
2, 9180, Note_on_c, 0, 73, 0
2, 9180, Note_on_c, 0, 72, 56
2, 9240, Note_on_c, 0, 72, 0
2, 9240, Note_on_c, 0, 70, 56
2, 9300, Note_on_c, 0, 70, 0
2, 9300, Note_on_c, 0, 68, 56
2, 9360, Note_on_c, 0, 68, 0
2, 9360, Note_on_c, 0, 67, 56
2, 9480, Note_on_c, 0, 67, 0
2, 9480, Note_on_c, 0, 70, 80
2, 9600, Note_on_c, 0, 70, 0
2, 9600, Note_on_c, 0, 68, 56
2, 9720, Note_on_c, 0, 68, 0
2, 9720, Note_on_c, 0, 73, 80
2, 9840, Note_on_c, 0, 73, 0
2, 9840, Note_on_c, 0, 72, 56
2, 9960, Note_on_c, 0, 72, 0
2, 9960, Note_on_c, 0, 77, 84
2, 10080, Note_on_c, 0, 77, 0
2, 10080, Note_on_c, 0, 75, 56
2, 10380, Note_on_c, 0, 75, 0
2, 10380, Note_on_c, 0, 73, 56
2, 10440, Note_on_c, 0, 73, 0
2, 10440, Note_on_c, 0, 72, 56
2, 10470, Note_on_c, 0, 72, 0
2, 10500, Note_on_c, 0, 70, 56
2, 10530, Note_on_c, 0, 70, 0
2, 10560, Note_on_c, 0, 70, 56
2, 10800, Note_on_c, 0, 70, 0
2, 10800, Note_on_c, 0, 69, 80
2, 10860, Note_on_c, 0, 69, 0
2, 10860, Note_on_c, 0, 65, 80
2, 10920, Note_on_c, 0, 65, 0
2, 10920, Note_on_c, 0, 67, 80
2, 10950, Note_on_c, 0, 67, 0
2, 10950, Note_on_c, 0, 65, 80
2, 10980, Note_on_c, 0, 65, 0
2, 10980, Note_on_c, 0, 64, 80
2, 11010, Note_on_c, 0, 64, 0
2, 11010, Note_on_c, 0, 65, 80
2, 11040, Note_on_c, 0, 65, 0
2, 11040, Note_on_c, 0, 70, 80
2, 11100, Note_on_c, 0, 70, 0
2, 11100, Note_on_c, 0, 65, 80
2, 11160, Note_on_c, 0, 65, 0
2, 11160, Note_on_c, 0, 67, 80
2, 11190, Note_on_c, 0, 67, 0
2, 11190, Note_on_c, 0, 65, 80
2, 11220, Note_on_c, 0, 65, 0
2, 11220, Note_on_c, 0, 64, 80
2, 11250, Note_on_c, 0, 64, 0
2, 11250, Note_on_c, 0, 65, 80
2, 11280, Note_on_c, 0, 65, 0
2, 11280, Note_on_c, 0, 72, 80
2, 11340, Note_on_c, 0, 72, 0
2, 11340, Note_on_c, 0, 65, 80
2, 11400, Note_on_c, 0, 65, 0
2, 11400, Note_on_c, 0, 67, 80
2, 11430, Note_on_c, 0, 67, 0
2, 11430, Note_on_c, 0, 65, 80
2, 11460, Note_on_c, 0, 65, 0
2, 11460, Note_on_c, 0, 64, 80
2, 11490, Note_on_c, 0, 64, 0
2, 11490, Note_on_c, 0, 65, 80
2, 11520, Note_on_c, 0, 65, 0
2, 11520, Note_on_c, 0, 74, 80
2, 11640, Note_on_c, 0, 74, 0
2, 11760, Note_on_c, 0, 76, 56
2, 11820, Note_on_c, 0, 76, 0
2, 11820, Note_on_c, 0, 77, 56
2, 11850, Note_on_c, 0, 77, 0
2, 11880, Note_on_c, 0, 79, 56
2, 11910, Note_on_c, 0, 79, 0
2, 11940, Note_on_c, 0, 77, 56
2, 11970, Note_on_c, 0, 77, 0
2, 12000, Note_on_c, 0, 75, 56
2, 12060, Note_on_c, 0, 75, 0
2, 12060, Note_on_c, 0, 74, 56
2, 12120, Note_on_c, 0, 74, 0
2, 12120, Note_on_c, 0, 72, 56
2, 12180, Note_on_c, 0, 72, 0
2, 12180, Note_on_c, 0, 70, 56
2, 12240, Note_on_c, 0, 70, 0
2, 12240, Note_on_c, 0, 69, 56
2, 12360, Note_on_c, 0, 69, 0
2, 12360, Note_on_c, 0, 72, 80
2, 12480, Note_on_c, 0, 72, 0
2, 12480, Note_on_c, 0, 70, 56
2, 12600, Note_on_c, 0, 70, 0
2, 12600, Note_on_c, 0, 75, 80
2, 12720, Note_on_c, 0, 75, 0
2, 12720, Note_on_c, 0, 74, 56
2, 12840, Note_on_c, 0, 74, 0
2, 12840, Note_on_c, 0, 79, 80
2, 12960, Note_on_c, 0, 79, 0
2, 12960, Note_on_c, 0, 77, 56
2, 13200, Note_on_c, 0, 77, 0
2, 13200, Note_on_c, 0, 75, 62
2, 13260, Note_on_c, 0, 75, 0
2, 13260, Note_on_c, 0, 74, 67
2, 13290, Note_on_c, 0, 74, 0
2, 13320, Note_on_c, 0, 72, 72
2, 13350, Note_on_c, 0, 72, 0
2, 13380, Note_on_c, 0, 70, 76
2, 13410, Note_on_c, 0, 70, 0
2, 13440, Note_on_c, 0, 68, 80
2, 13440, Note_on_c, 0, 65, 80
2, 14040, Note_on_c, 0, 65, 0
2, 14040, Note_on_c, 0, 68, 0
2, 14040, Note_on_c, 0, 65, 80
2, 14040, Note_on_c, 0, 68, 80
2, 14100, Note_on_c, 0, 68, 0
2, 14100, Note_on_c, 0, 65, 0
2, 14160, Note_on_c, 0, 67, 80
2, 14160, Note_on_c, 0, 70, 80
2, 14220, Note_on_c, 0, 70, 0
2, 14220, Note_on_c, 0, 67, 0
2, 14220, Note_on_c, 0, 65, 80
2, 14220, Note_on_c, 0, 68, 80
2, 14250, Note_on_c, 0, 68, 0
2, 14250, Note_on_c, 0, 65, 0
2, 14280, Note_on_c, 0, 63, 80
2, 14280, Note_on_c, 0, 67, 80
2, 14310, Note_on_c, 0, 67, 0
2, 14310, Note_on_c, 0, 63, 0
2, 14340, Note_on_c, 0, 62, 80
2, 14340, Note_on_c, 0, 65, 80
2, 14370, Note_on_c, 0, 65, 0
2, 14370, Note_on_c, 0, 62, 0
2, 14400, Note_on_c, 0, 62, 80
2, 14400, Note_on_c, 0, 66, 80
2, 14640, Note_on_c, 0, 66, 0
2, 14640, Note_on_c, 0, 62, 0
2, 14640, Note_on_c, 0, 63, 80
2, 14640, Note_on_c, 0, 67, 80
2, 15000, Note_on_c, 0, 67, 0
2, 15000, Note_on_c, 0, 63, 0
2, 15000, Note_on_c, 0, 79, 80
2, 15000, Note_on_c, 0, 82, 80
2, 15060, Note_on_c, 0, 82, 0
2, 15060, Note_on_c, 0, 79, 0
2, 15120, Note_on_c, 0, 80, 80
2, 15120, Note_on_c, 0, 84, 80
2, 15180, Note_on_c, 0, 84, 0
2, 15180, Note_on_c, 0, 80, 0
2, 15180, Note_on_c, 0, 79, 80
2, 15180, Note_on_c, 0, 82, 80
2, 15210, Note_on_c, 0, 82, 0
2, 15210, Note_on_c, 0, 79, 0
2, 15240, Note_on_c, 0, 77, 80
2, 15240, Note_on_c, 0, 80, 80
2, 15270, Note_on_c, 0, 80, 0
2, 15270, Note_on_c, 0, 77, 0
2, 15300, Note_on_c, 0, 76, 80
2, 15300, Note_on_c, 0, 79, 80
2, 15330, Note_on_c, 0, 79, 0
2, 15330, Note_on_c, 0, 76, 0
2, 15360, Note_on_c, 0, 76, 80
2, 15360, Note_on_c, 0, 79, 80
2, 15600, Note_on_c, 0, 79, 0
2, 15600, Note_on_c, 0, 76, 0
2, 15600, Note_on_c, 0, 77, 80
2, 15600, Note_on_c, 0, 80, 80
2, 15960, Note_on_c, 0, 80, 0
2, 15960, Note_on_c, 0, 77, 0
2, 15960, Note_on_c, 0, 77, 80
2, 15960, Note_on_c, 0, 80, 80
2, 16020, Note_on_c, 0, 80, 0
2, 16020, Note_on_c, 0, 77, 0
2, 16080, Note_on_c, 0, 78, 80
2, 16080, Note_on_c, 0, 82, 80
2, 16140, Note_on_c, 0, 82, 0
2, 16140, Note_on_c, 0, 78, 0
2, 16140, Note_on_c, 0, 77, 80
2, 16140, Note_on_c, 0, 80, 80
2, 16170, Note_on_c, 0, 80, 0
2, 16170, Note_on_c, 0, 77, 0
2, 16200, Note_on_c, 0, 75, 80
2, 16200, Note_on_c, 0, 78, 80
2, 16230, Note_on_c, 0, 78, 0
2, 16230, Note_on_c, 0, 75, 0
2, 16260, Note_on_c, 0, 74, 80
2, 16260, Note_on_c, 0, 77, 80
2, 16290, Note_on_c, 0, 77, 0
2, 16290, Note_on_c, 0, 74, 0
2, 16320, Note_on_c, 0, 78, 56
2, 16320, Note_on_c, 0, 75, 56
2, 16440, Note_on_c, 0, 75, 0
2, 16440, Note_on_c, 0, 78, 0
2, 16560, Note_on_c, 0, 75, 62
2, 16560, Note_on_c, 0, 79, 62
2, 16800, Note_on_c, 0, 79, 0
2, 16800, Note_on_c, 0, 75, 0
2, 16800, Note_on_c, 0, 75, 68
2, 16800, Note_on_c, 0, 80, 68
2, 17040, Note_on_c, 0, 80, 0
2, 17040, Note_on_c, 0, 75, 0
2, 17040, Note_on_c, 0, 75, 74
2, 17040, Note_on_c, 0, 81, 74
2, 17280, Note_on_c, 0, 81, 0
2, 17280, Note_on_c, 0, 75, 0
2, 17400, Note_on_c, 0, 74, 80
2, 17460, Note_on_c, 0, 74, 0
2, 17460, Note_on_c, 0, 82, 80
2, 17520, Note_on_c, 0, 82, 0
2, 17520, Note_on_c, 0, 80, 80
2, 17580, Note_on_c, 0, 80, 0
2, 17580, Note_on_c, 0, 79, 80
2, 17640, Note_on_c, 0, 79, 0
2, 17640, Note_on_c, 0, 77, 80
2, 17700, Note_on_c, 0, 77, 0
2, 17700, Note_on_c, 0, 75, 80
2, 17760, Note_on_c, 0, 75, 0
2, 17760, Note_on_c, 0, 74, 80
2, 17820, Note_on_c, 0, 74, 0
2, 17820, Note_on_c, 0, 72, 80
2, 17880, Note_on_c, 0, 72, 0
2, 17880, Note_on_c, 0, 70, 80
2, 17940, Note_on_c, 0, 70, 0
2, 18420, Note_on_c, 0, 84, 80
2, 18480, Note_on_c, 0, 84, 0
2, 18480, Note_on_c, 0, 82, 80
2, 18540, Note_on_c, 0, 82, 0
2, 18540, Note_on_c, 0, 80, 80
2, 18600, Note_on_c, 0, 80, 0
2, 18600, Note_on_c, 0, 79, 80
2, 18660, Note_on_c, 0, 79, 0
2, 18660, Note_on_c, 0, 77, 80
2, 18720, Note_on_c, 0, 77, 0
2, 18720, Note_on_c, 0, 76, 48
2, 18780, Note_on_c, 0, 76, 0
2, 18780, Note_on_c, 0, 77, 48
2, 18840, Note_on_c, 0, 77, 0
2, 18840, Note_on_c, 0, 78, 48
2, 18900, Note_on_c, 0, 78, 0
2, 18900, Note_on_c, 0, 77, 48
2, 18960, Note_on_c, 0, 77, 0
2, 18960, Note_on_c, 0, 79, 48
2, 19020, Note_on_c, 0, 79, 0
2, 19020, Note_on_c, 0, 77, 48
2, 19080, Note_on_c, 0, 77, 0
2, 19080, Note_on_c, 0, 80, 48
2, 19140, Note_on_c, 0, 80, 0
2, 19140, Note_on_c, 0, 77, 48
2, 19200, Note_on_c, 0, 77, 0
2, 19200, Note_on_c, 0, 76, 48
2, 19260, Note_on_c, 0, 76, 0
2, 19260, Note_on_c, 0, 77, 50
2, 19320, Note_on_c, 0, 77, 0
2, 19320, Note_on_c, 0, 78, 52
2, 19380, Note_on_c, 0, 78, 0
2, 19380, Note_on_c, 0, 77, 54
2, 19440, Note_on_c, 0, 77, 0
2, 19440, Note_on_c, 0, 79, 56
2, 19500, Note_on_c, 0, 79, 0
2, 19500, Note_on_c, 0, 77, 58
2, 19560, Note_on_c, 0, 77, 0
2, 19560, Note_on_c, 0, 80, 60
2, 19620, Note_on_c, 0, 80, 0
2, 19620, Note_on_c, 0, 77, 62
2, 19680, Note_on_c, 0, 77, 0
2, 19680, Note_on_c, 0, 76, 64
2, 19740, Note_on_c, 0, 76, 0
2, 19740, Note_on_c, 0, 77, 66
2, 19800, Note_on_c, 0, 77, 0
2, 19800, Note_on_c, 0, 78, 68
2, 19860, Note_on_c, 0, 78, 0
2, 19860, Note_on_c, 0, 77, 70
2, 19920, Note_on_c, 0, 77, 0
2, 19920, Note_on_c, 0, 79, 72
2, 19980, Note_on_c, 0, 79, 0
2, 19980, Note_on_c, 0, 77, 74
2, 20040, Note_on_c, 0, 77, 0
2, 20040, Note_on_c, 0, 80, 76
2, 20100, Note_on_c, 0, 80, 0
2, 20100, Note_on_c, 0, 77, 78
2, 20160, Note_on_c, 0, 77, 0
2, 20160, Note_on_c, 0, 75, 80
2, 20680, Note_on_c, 0, 75, 0
2, 20680, Note_on_c, 0, 74, 80
2, 20720, Note_on_c, 0, 74, 0
2, 20720, Note_on_c, 0, 75, 80
2, 20760, Note_on_c, 0, 75, 0
2, 20760, Note_on_c, 0, 77, 80
2, 20800, Note_on_c, 0, 77, 0
2, 20800, Note_on_c, 0, 75, 80
2, 20840, Note_on_c, 0, 75, 0
2, 20840, Note_on_c, 0, 74, 80
2, 20880, Note_on_c, 0, 74, 0
2, 20880, Note_on_c, 0, 80, 80
2, 20920, Note_on_c, 0, 80, 0
2, 20920, Note_on_c, 0, 79, 80
2, 20960, Note_on_c, 0, 79, 0
2, 20960, Note_on_c, 0, 77, 80
2, 21000, Note_on_c, 0, 77, 0
2, 21000, Note_on_c, 0, 84, 80
2, 21040, Note_on_c, 0, 84, 0
2, 21040, Note_on_c, 0, 80, 80
2, 21080, Note_on_c, 0, 80, 0
2, 21080, Note_on_c, 0, 77, 80
2, 21120, Note_on_c, 0, 77, 0
2, 21120, Note_on_c, 0, 75, 80
2, 21640, Note_on_c, 0, 75, 0
2, 21640, Note_on_c, 0, 74, 80
2, 21680, Note_on_c, 0, 74, 0
2, 21680, Note_on_c, 0, 75, 80
2, 21720, Note_on_c, 0, 75, 0
2, 21720, Note_on_c, 0, 77, 80
2, 21760, Note_on_c, 0, 77, 0
2, 21760, Note_on_c, 0, 75, 80
2, 21800, Note_on_c, 0, 75, 0
2, 21800, Note_on_c, 0, 74, 80
2, 21840, Note_on_c, 0, 74, 0
2, 21840, Note_on_c, 0, 80, 80
2, 21880, Note_on_c, 0, 80, 0
2, 21880, Note_on_c, 0, 78, 80
2, 21920, Note_on_c, 0, 78, 0
2, 21920, Note_on_c, 0, 77, 80
2, 21960, Note_on_c, 0, 77, 0
2, 21960, Note_on_c, 0, 83, 80
2, 22000, Note_on_c, 0, 83, 0
2, 22000, Note_on_c, 0, 80, 80
2, 22040, Note_on_c, 0, 80, 0
2, 22040, Note_on_c, 0, 77, 80
2, 22080, Note_on_c, 0, 77, 0
2, 22080, Note_on_c, 0, 75, 80
2, 22592, Note_on_c, 0, 75, 0
2, 22600, Note_on_c, 0, 74, 48
2, 22632, Note_on_c, 0, 74, 0
2, 22640, Note_on_c, 0, 75, 48
2, 22672, Note_on_c, 0, 75, 0
2, 22680, Note_on_c, 0, 77, 48
2, 22712, Note_on_c, 0, 77, 0
2, 22720, Note_on_c, 0, 75, 48
2, 22752, Note_on_c, 0, 75, 0
2, 22760, Note_on_c, 0, 74, 48
2, 22792, Note_on_c, 0, 74, 0
2, 22800, Note_on_c, 0, 80, 48
2, 22864, Note_on_c, 0, 80, 0
2, 22880, Note_on_c, 0, 79, 48
2, 22944, Note_on_c, 0, 79, 0
2, 22960, Note_on_c, 0, 77, 48
2, 23024, Note_on_c, 0, 77, 0
2, 23040, Note_on_c, 0, 83, 48
2, 23400, Note_on_c, 0, 83, 0
2, 23400, Note_on_c, 0, 82, 48
2, 23460, Note_on_c, 0, 82, 0
2, 23520, Note_on_c, 0, 80, 48
2, 23640, Note_on_c, 0, 80, 0
2, 23640, Note_on_c, 0, 78, 48
2, 23700, Note_on_c, 0, 78, 0
2, 23760, Note_on_c, 0, 77, 48
2, 23880, Note_on_c, 0, 77, 0
2, 23880, Note_on_c, 0, 75, 48
2, 23940, Note_on_c, 0, 75, 0
2, 24000, Note_on_c, 0, 75, 48
2, 24360, Note_on_c, 0, 75, 0
2, 24360, Note_on_c, 0, 74, 48
2, 24480, Note_on_c, 0, 84, 48
2, 24840, Note_on_c, 0, 74, 0
2, 24840, Note_on_c, 0, 74, 42
2, 24960, Note_on_c, 0, 84, 0
2, 24960, Note_on_c, 0, 84, 40
2, 25920, Note_on_c, 0, 84, 0
2, 25920, Note_on_c, 0, 74, 0
2, 26040, Note_on_c, 0, 79, 80
2, 26070, Note_on_c, 0, 79, 0
2, 26070, Note_on_c, 0, 75, 80
2, 26106, Note_on_c, 0, 75, 0
2, 26160, Note_on_c, 0, 75, 80
2, 26190, Note_on_c, 0, 75, 0
2, 26190, Note_on_c, 0, 70, 80
2, 26226, Note_on_c, 0, 70, 0
2, 26280, Note_on_c, 0, 70, 80
2, 26310, Note_on_c, 0, 70, 0
2, 26310, Note_on_c, 0, 67, 80
2, 26355, Note_on_c, 0, 67, 0
2, 26520, Note_on_c, 0, 72, 80
2, 26550, Note_on_c, 0, 72, 0
2, 26550, Note_on_c, 0, 68, 80
2, 26595, Note_on_c, 0, 68, 0
2, 26640, Note_on_c, 0, 68, 80
2, 26670, Note_on_c, 0, 68, 0
2, 26670, Note_on_c, 0, 65, 80
2, 26715, Note_on_c, 0, 65, 0
2, 26760, Note_on_c, 0, 65, 80
2, 26790, Note_on_c, 0, 65, 0
2, 26790, Note_on_c, 0, 60, 80
2, 26844, Note_on_c, 0, 60, 0
2, 26880, Note_on_c, 0, 63, 64
2, 27180, Note_on_c, 0, 63, 0
2, 27180, Note_on_c, 0, 62, 64
2, 27240, Note_on_c, 0, 62, 0
2, 27240, Note_on_c, 0, 68, 64
2, 27280, Note_on_c, 0, 68, 0
2, 27280, Note_on_c, 0, 65, 64
2, 27320, Note_on_c, 0, 65, 0
2, 27320, Note_on_c, 0, 62, 64
2, 27360, Note_on_c, 0, 62, 0
2, 27420, Note_on_c, 0, 75, 80
2, 27480, Note_on_c, 0, 75, 0
2, 27480, Note_on_c, 0, 75, 80
2, 27500, Note_on_c, 0, 75, 0
2, 27500, Note_on_c, 0, 77, 80
2, 27520, Note_on_c, 0, 77, 0
2, 27520, Note_on_c, 0, 75, 80
2, 27540, Note_on_c, 0, 75, 0
2, 27540, Note_on_c, 0, 74, 80
2, 27560, Note_on_c, 0, 74, 0
2, 27560, Note_on_c, 0, 75, 80
2, 27580, Note_on_c, 0, 75, 0
2, 27580, Note_on_c, 0, 79, 80
2, 27600, Note_on_c, 0, 79, 0
2, 27600, Note_on_c, 0, 70, 80
2, 27636, Note_on_c, 0, 70, 0
2, 27690, Note_on_c, 0, 70, 80
2, 27720, Note_on_c, 0, 70, 0
2, 27720, Note_on_c, 0, 70, 80
2, 27740, Note_on_c, 0, 70, 0
2, 27740, Note_on_c, 0, 72, 80
2, 27760, Note_on_c, 0, 72, 0
2, 27760, Note_on_c, 0, 70, 80
2, 27780, Note_on_c, 0, 70, 0
2, 27780, Note_on_c, 0, 69, 80
2, 27800, Note_on_c, 0, 69, 0
2, 27800, Note_on_c, 0, 70, 80
2, 27820, Note_on_c, 0, 70, 0
2, 27820, Note_on_c, 0, 75, 80
2, 27840, Note_on_c, 0, 75, 0
2, 27840, Note_on_c, 0, 65, 80
2, 27876, Note_on_c, 0, 65, 0
2, 27930, Note_on_c, 0, 65, 80
2, 27960, Note_on_c, 0, 65, 0
2, 27960, Note_on_c, 0, 65, 80
2, 27980, Note_on_c, 0, 65, 0
2, 27980, Note_on_c, 0, 67, 80
2, 28000, Note_on_c, 0, 67, 0
2, 28000, Note_on_c, 0, 65, 80
2, 28020, Note_on_c, 0, 65, 0
2, 28020, Note_on_c, 0, 64, 80
2, 28040, Note_on_c, 0, 64, 0
2, 28040, Note_on_c, 0, 65, 80
2, 28060, Note_on_c, 0, 65, 0
2, 28060, Note_on_c, 0, 72, 80
2, 28080, Note_on_c, 0, 72, 0
2, 28080, Note_on_c, 0, 60, 80
2, 28116, Note_on_c, 0, 60, 0
2, 28170, Note_on_c, 0, 60, 80
2, 28200, Note_on_c, 0, 60, 0
2, 28200, Note_on_c, 0, 60, 80
2, 28220, Note_on_c, 0, 60, 0
2, 28220, Note_on_c, 0, 62, 80
2, 28240, Note_on_c, 0, 62, 0
2, 28240, Note_on_c, 0, 60, 80
2, 28260, Note_on_c, 0, 60, 0
2, 28260, Note_on_c, 0, 58, 80
2, 28280, Note_on_c, 0, 58, 0
2, 28280, Note_on_c, 0, 60, 80
2, 28300, Note_on_c, 0, 60, 0
2, 28300, Note_on_c, 0, 68, 80
2, 28320, Note_on_c, 0, 68, 0
2, 28320, Note_on_c, 0, 63, 64
2, 28620, Note_on_c, 0, 63, 0
2, 28620, Note_on_c, 0, 62, 64
2, 28680, Note_on_c, 0, 62, 0
2, 28680, Note_on_c, 0, 68, 64
2, 28720, Note_on_c, 0, 68, 0
2, 28720, Note_on_c, 0, 65, 64
2, 28760, Note_on_c, 0, 65, 0
2, 28760, Note_on_c, 0, 62, 64
2, 28800, Note_on_c, 0, 62, 0
2, 28800, Note_on_c, 0, 70, 80
2, 29080, Note_on_c, 0, 70, 0
2, 29080, Note_on_c, 0, 67, 80
2, 29120, Note_on_c, 0, 67, 0
2, 29120, Note_on_c, 0, 63, 80
2, 29160, Note_on_c, 0, 63, 0
2, 29160, Note_on_c, 0, 68, 80
2, 29200, Note_on_c, 0, 68, 0
2, 29200, Note_on_c, 0, 65, 80
2, 29240, Note_on_c, 0, 65, 0
2, 29240, Note_on_c, 0, 62, 80
2, 29280, Note_on_c, 0, 62, 0
2, 29280, Note_on_c, 0, 70, 48
2, 29560, Note_on_c, 0, 70, 0
2, 29560, Note_on_c, 0, 67, 48
2, 29600, Note_on_c, 0, 67, 0
2, 29600, Note_on_c, 0, 63, 48
2, 29640, Note_on_c, 0, 63, 0
2, 29640, Note_on_c, 0, 68, 48
2, 29680, Note_on_c, 0, 68, 0
2, 29680, Note_on_c, 0, 65, 48
2, 29720, Note_on_c, 0, 65, 0
2, 29720, Note_on_c, 0, 62, 48
2, 29760, Note_on_c, 0, 62, 0
2, 29760, Note_on_c, 0, 70, 80
2, 30040, Note_on_c, 0, 70, 0
2, 30040, Note_on_c, 0, 67, 80
2, 30080, Note_on_c, 0, 67, 0
2, 30080, Note_on_c, 0, 63, 80
2, 30120, Note_on_c, 0, 63, 0
2, 30120, Note_on_c, 0, 72, 80
2, 30160, Note_on_c, 0, 72, 0
2, 30160, Note_on_c, 0, 68, 80
2, 30200, Note_on_c, 0, 68, 0
2, 30200, Note_on_c, 0, 65, 80
2, 30240, Note_on_c, 0, 65, 0
2, 30240, Note_on_c, 0, 74, 80
2, 30280, Note_on_c, 0, 74, 0
2, 30280, Note_on_c, 0, 68, 81
2, 30320, Note_on_c, 0, 68, 0
2, 30320, Note_on_c, 0, 65, 81
2, 30360, Note_on_c, 0, 65, 0
2, 30360, Note_on_c, 0, 75, 82
2, 30400, Note_on_c, 0, 75, 0
2, 30400, Note_on_c, 0, 70, 83
2, 30440, Note_on_c, 0, 70, 0
2, 30440, Note_on_c, 0, 67, 83
2, 30480, Note_on_c, 0, 67, 0
2, 30480, Note_on_c, 0, 77, 84
2, 30520, Note_on_c, 0, 77, 0
2, 30520, Note_on_c, 0, 74, 85
2, 30560, Note_on_c, 0, 74, 0
2, 30560, Note_on_c, 0, 70, 85
2, 30600, Note_on_c, 0, 70, 0
2, 30600, Note_on_c, 0, 79, 86
2, 30640, Note_on_c, 0, 79, 0
2, 30640, Note_on_c, 0, 75, 87
2, 30680, Note_on_c, 0, 75, 0
2, 30680, Note_on_c, 0, 70, 87
2, 30720, Note_on_c, 0, 70, 0
2, 30720, Note_on_c, 0, 80, 88
2, 30840, Note_on_c, 0, 80, 0
2, 31560, Note_on_c, 0, 80, 56
2, 31590, Note_on_c, 0, 80, 0
2, 31590, Note_on_c, 0, 79, 56
2, 31620, Note_on_c, 0, 79, 0
2, 31620, Note_on_c, 0, 77, 56
2, 31650, Note_on_c, 0, 77, 0
2, 31650, Note_on_c, 0, 75, 56
2, 31680, Note_on_c, 0, 75, 0
2, 31680, Note_on_c, 0, 74, 56
2, 31740, Note_on_c, 0, 74, 0
2, 32040, Note_on_c, 0, 86, 56
2, 32070, Note_on_c, 0, 86, 0
2, 32070, Note_on_c, 0, 84, 56
2, 32100, Note_on_c, 0, 84, 0
2, 32100, Note_on_c, 0, 82, 56
2, 32130, Note_on_c, 0, 82, 0
2, 32130, Note_on_c, 0, 80, 56
2, 32160, Note_on_c, 0, 80, 0
2, 32160, Note_on_c, 0, 79, 56
2, 32280, Note_on_c, 0, 79, 0
2, 32520, Note_on_c, 0, 80, 65
2, 32550, Note_on_c, 0, 80, 0
2, 32550, Note_on_c, 0, 79, 66
2, 32580, Note_on_c, 0, 79, 0
2, 32580, Note_on_c, 0, 77, 67
2, 32610, Note_on_c, 0, 77, 0
2, 32610, Note_on_c, 0, 75, 67
2, 32640, Note_on_c, 0, 75, 0
2, 32640, Note_on_c, 0, 74, 68
2, 32700, Note_on_c, 0, 74, 0
2, 33000, Note_on_c, 0, 86, 77
2, 33030, Note_on_c, 0, 86, 0
2, 33030, Note_on_c, 0, 84, 78
2, 33060, Note_on_c, 0, 84, 0
2, 33060, Note_on_c, 0, 82, 79
2, 33090, Note_on_c, 0, 82, 0
2, 33090, Note_on_c, 0, 80, 79
2, 33120, Note_on_c, 0, 80, 0
2, 33120, Note_on_c, 0, 79, 80
2, 33240, Note_on_c, 0, 79, 0
2, 33240, Note_on_c, 0, 80, 80
2, 33270, Note_on_c, 0, 80, 0
2, 33270, Note_on_c, 0, 79, 80
2, 33300, Note_on_c, 0, 79, 0
2, 33300, Note_on_c, 0, 77, 80
2, 33330, Note_on_c, 0, 77, 0
2, 33330, Note_on_c, 0, 75, 80
2, 33360, Note_on_c, 0, 75, 0
2, 33360, Note_on_c, 0, 74, 80
2, 33408, Note_on_c, 0, 74, 0
2, 33480, Note_on_c, 0, 86, 80
2, 33510, Note_on_c, 0, 86, 0
2, 33510, Note_on_c, 0, 84, 80
2, 33540, Note_on_c, 0, 84, 0
2, 33540, Note_on_c, 0, 82, 80
2, 33570, Note_on_c, 0, 82, 0
2, 33570, Note_on_c, 0, 80, 80
2, 33600, Note_on_c, 0, 80, 0
2, 33600, Note_on_c, 0, 79, 80
2, 33720, Note_on_c, 0, 79, 0
2, 33720, Note_on_c, 0, 80, 80
2, 33750, Note_on_c, 0, 80, 0
2, 33750, Note_on_c, 0, 79, 80
2, 33780, Note_on_c, 0, 79, 0
2, 33780, Note_on_c, 0, 77, 80
2, 33810, Note_on_c, 0, 77, 0
2, 33810, Note_on_c, 0, 75, 80
2, 33840, Note_on_c, 0, 75, 0
2, 33840, Note_on_c, 0, 74, 80
2, 33888, Note_on_c, 0, 74, 0
2, 33960, Note_on_c, 0, 86, 80
2, 33990, Note_on_c, 0, 86, 0
2, 33990, Note_on_c, 0, 84, 80
2, 34020, Note_on_c, 0, 84, 0
2, 34020, Note_on_c, 0, 82, 80
2, 34050, Note_on_c, 0, 82, 0
2, 34050, Note_on_c, 0, 80, 80
2, 34080, Note_on_c, 0, 80, 0
2, 34080, Note_on_c, 0, 79, 80
2, 34200, Note_on_c, 0, 79, 0
2, 34200, Note_on_c, 0, 87, 80
2, 34240, Note_on_c, 0, 87, 0
2, 34240, Note_on_c, 0, 86, 80
2, 34280, Note_on_c, 0, 86, 0
2, 34280, Note_on_c, 0, 84, 80
2, 34320, Note_on_c, 0, 84, 0
2, 34320, Note_on_c, 0, 82, 80
2, 34360, Note_on_c, 0, 82, 0
2, 34360, Note_on_c, 0, 80, 80
2, 34400, Note_on_c, 0, 80, 0
2, 34400, Note_on_c, 0, 79, 80
2, 34440, Note_on_c, 0, 79, 0
2, 34440, Note_on_c, 0, 77, 80
2, 34480, Note_on_c, 0, 77, 0
2, 34480, Note_on_c, 0, 75, 80
2, 34520, Note_on_c, 0, 75, 0
2, 34520, Note_on_c, 0, 74, 80
2, 34560, Note_on_c, 0, 74, 0
2, 34560, Note_on_c, 0, 72, 80
2, 34632, Note_on_c, 0, 72, 0
2, 34740, Note_on_c, 0, 76, 80
2, 34800, Note_on_c, 0, 76, 0
2, 34800, Note_on_c, 0, 77, 80
2, 34860, Note_on_c, 0, 77, 0
2, 34860, Note_on_c, 0, 78, 80
2, 34920, Note_on_c, 0, 78, 0
2, 34920, Note_on_c, 0, 79, 80
2, 34980, Note_on_c, 0, 79, 0
2, 34980, Note_on_c, 0, 80, 80
2, 35040, Note_on_c, 0, 80, 0
2, 35040, Note_on_c, 0, 81, 80
2, 35100, Note_on_c, 0, 81, 0
2, 35100, Note_on_c, 0, 82, 80
2, 35160, Note_on_c, 0, 82, 0
2, 35160, Note_on_c, 0, 83, 80
2, 35220, Note_on_c, 0, 83, 0
2, 35220, Note_on_c, 0, 84, 80
2, 35280, Note_on_c, 0, 84, 0
2, 35280, Note_on_c, 0, 82, 80
2, 35340, Note_on_c, 0, 82, 0
2, 35340, Note_on_c, 0, 80, 80
2, 35400, Note_on_c, 0, 80, 0
2, 35400, Note_on_c, 0, 79, 80
2, 35460, Note_on_c, 0, 79, 0
2, 35460, Note_on_c, 0, 77, 80
2, 35520, Note_on_c, 0, 77, 0
2, 35520, Note_on_c, 0, 75, 80
2, 35820, Note_on_c, 0, 75, 0
2, 35820, Note_on_c, 0, 74, 80
2, 35880, Note_on_c, 0, 74, 0
2, 35880, Note_on_c, 0, 80, 80
2, 35920, Note_on_c, 0, 80, 0
2, 35920, Note_on_c, 0, 77, 80
2, 35960, Note_on_c, 0, 77, 0
2, 35960, Note_on_c, 0, 74, 80
2, 36000, Note_on_c, 0, 74, 0
2, 36000, Note_on_c, 0, 75, 80
2, 36120, Note_on_c, 0, 75, 0
2, 36240, Note_on_c, 0, 67, 56
2, 36240, Note_on_c, 0, 70, 56
2, 36336, Note_on_c, 0, 70, 0
2, 36360, Note_on_c, 0, 74, 56
2, 36408, Note_on_c, 0, 74, 0
2, 36408, Note_on_c, 0, 67, 0
2, 36420, Note_on_c, 0, 68, 56
2, 36420, Note_on_c, 0, 72, 56
2, 36468, Note_on_c, 0, 72, 0
2, 36468, Note_on_c, 0, 68, 0
2, 36480, Note_on_c, 0, 67, 56
2, 36480, Note_on_c, 0, 70, 56
2, 36576, Note_on_c, 0, 70, 0
2, 36576, Note_on_c, 0, 67, 0
2, 36960, Note_on_c, 0, 79, 56
2, 36960, Note_on_c, 0, 82, 56
2, 37320, Note_on_c, 0, 82, 0
2, 37320, Note_on_c, 0, 79, 0
2, 37320, Note_on_c, 0, 80, 56
2, 37320, Note_on_c, 0, 77, 56
2, 37380, Note_on_c, 0, 77, 0
2, 37380, Note_on_c, 0, 80, 0
2, 37440, Note_on_c, 0, 80, 56
2, 37440, Note_on_c, 0, 84, 56
2, 37800, Note_on_c, 0, 84, 0
2, 37800, Note_on_c, 0, 80, 0
2, 37800, Note_on_c, 0, 79, 56
2, 37800, Note_on_c, 0, 82, 56
2, 37860, Note_on_c, 0, 82, 0
2, 37860, Note_on_c, 0, 79, 0
2, 37920, Note_on_c, 0, 82, 80
2, 37920, Note_on_c, 0, 85, 80
2, 38280, Note_on_c, 0, 85, 0
2, 38280, Note_on_c, 0, 82, 0
2, 38280, Note_on_c, 0, 80, 80
2, 38280, Note_on_c, 0, 84, 80
2, 38340, Note_on_c, 0, 84, 0
2, 38340, Note_on_c, 0, 80, 0
2, 38400, Note_on_c, 0, 79, 80
2, 38400, Note_on_c, 0, 82, 80
2, 38520, Note_on_c, 0, 82, 0
2, 38520, Note_on_c, 0, 79, 0
2, 38520, Note_on_c, 0, 77, 80
2, 38520, Note_on_c, 0, 80, 80
2, 38640, Note_on_c, 0, 80, 0
2, 38640, Note_on_c, 0, 77, 0
2, 38640, Note_on_c, 0, 76, 80
2, 38640, Note_on_c, 0, 79, 80
2, 38760, Note_on_c, 0, 79, 0
2, 38760, Note_on_c, 0, 76, 0
2, 38760, Note_on_c, 0, 79, 80
2, 38760, Note_on_c, 0, 82, 80
2, 38880, Note_on_c, 0, 82, 0
2, 38880, Note_on_c, 0, 79, 0
2, 38880, Note_on_c, 0, 77, 80
2, 38880, Note_on_c, 0, 80, 80
2, 38940, Note_on_c, 0, 80, 0
2, 38940, Note_on_c, 0, 77, 0
2, 39000, Note_on_c, 0, 72, 80
2, 39120, Note_on_c, 0, 72, 0
2, 39120, Note_on_c, 0, 84, 80
2, 39240, Note_on_c, 0, 84, 0
2, 39480, Note_on_c, 0, 72, 80
2, 39600, Note_on_c, 0, 72, 0
2, 39600, Note_on_c, 0, 84, 80
2, 39720, Note_on_c, 0, 84, 0
2, 39960, Note_on_c, 0, 77, 80
2, 40080, Note_on_c, 0, 77, 0
2, 40080, Note_on_c, 0, 89, 80
2, 40200, Note_on_c, 0, 89, 0
2, 40200, Note_on_c, 0, 75, 80
2, 40260, Note_on_c, 0, 75, 0
2, 40260, Note_on_c, 0, 87, 80
2, 40320, Note_on_c, 0, 87, 0
2, 40320, Note_on_c, 0, 73, 80
2, 40380, Note_on_c, 0, 73, 0
2, 40380, Note_on_c, 0, 85, 80
2, 40440, Note_on_c, 0, 85, 0
2, 40440, Note_on_c, 0, 72, 80
2, 40500, Note_on_c, 0, 72, 0
2, 40500, Note_on_c, 0, 84, 80
2, 40560, Note_on_c, 0, 84, 0
2, 40560, Note_on_c, 0, 70, 80
2, 40620, Note_on_c, 0, 70, 0
2, 40620, Note_on_c, 0, 82, 80
2, 40680, Note_on_c, 0, 82, 0
2, 40680, Note_on_c, 0, 68, 80
2, 40740, Note_on_c, 0, 68, 0
2, 40740, Note_on_c, 0, 80, 80
2, 40800, Note_on_c, 0, 80, 0
2, 40800, Note_on_c, 0, 67, 80
2, 40860, Note_on_c, 0, 67, 0
2, 40860, Note_on_c, 0, 79, 80
2, 40920, Note_on_c, 0, 79, 0
2, 40920, Note_on_c, 0, 65, 80
2, 40980, Note_on_c, 0, 65, 0
2, 40980, Note_on_c, 0, 77, 80
2, 41040, Note_on_c, 0, 77, 0
2, 41040, Note_on_c, 0, 63, 80
2, 41100, Note_on_c, 0, 63, 0
2, 41100, Note_on_c, 0, 75, 80
2, 41160, Note_on_c, 0, 75, 0
2, 41160, Note_on_c, 0, 62, 80
2, 41220, Note_on_c, 0, 62, 0
2, 41220, Note_on_c, 0, 74, 80
2, 41280, Note_on_c, 0, 74, 0
2, 41280, Note_on_c, 0, 63, 80
2, 41340, Note_on_c, 0, 63, 0
2, 41340, Note_on_c, 0, 75, 80
2, 41400, Note_on_c, 0, 75, 0
2, 41400, Note_on_c, 0, 73, 80
2, 41460, Note_on_c, 0, 73, 0
2, 41460, Note_on_c, 0, 77, 80
2, 41520, Note_on_c, 0, 77, 0
2, 41520, Note_on_c, 0, 75, 80
2, 41580, Note_on_c, 0, 75, 0
2, 41580, Note_on_c, 0, 72, 74
2, 41640, Note_on_c, 0, 72, 0
2, 41640, Note_on_c, 0, 73, 68
2, 41700, Note_on_c, 0, 73, 0
2, 41700, Note_on_c, 0, 70, 62
2, 41760, Note_on_c, 0, 70, 0
2, 41760, Note_on_c, 0, 68, 56
2, 41760, Note_on_c, 0, 72, 56
2, 42120, Note_on_c, 0, 72, 0
2, 42120, Note_on_c, 0, 68, 0
2, 42120, Note_on_c, 0, 67, 56
2, 42120, Note_on_c, 0, 70, 56
2, 42180, Note_on_c, 0, 70, 0
2, 42180, Note_on_c, 0, 67, 0
2, 42240, Note_on_c, 0, 70, 56
2, 42240, Note_on_c, 0, 73, 56
2, 42600, Note_on_c, 0, 73, 0
2, 42600, Note_on_c, 0, 70, 0
2, 42600, Note_on_c, 0, 68, 56
2, 42600, Note_on_c, 0, 72, 56
2, 42660, Note_on_c, 0, 72, 0
2, 42660, Note_on_c, 0, 68, 0
2, 42720, Note_on_c, 0, 72, 56
2, 42720, Note_on_c, 0, 75, 56
2, 43080, Note_on_c, 0, 75, 0
2, 43080, Note_on_c, 0, 72, 0
2, 43080, Note_on_c, 0, 70, 65
2, 43080, Note_on_c, 0, 73, 65
2, 43140, Note_on_c, 0, 73, 0
2, 43140, Note_on_c, 0, 70, 0
2, 43200, Note_on_c, 0, 73, 68
2, 43200, Note_on_c, 0, 77, 68
2, 43560, Note_on_c, 0, 77, 0
2, 43560, Note_on_c, 0, 73, 0
2, 43560, Note_on_c, 0, 72, 77
2, 43560, Note_on_c, 0, 75, 77
2, 43620, Note_on_c, 0, 75, 0
2, 43620, Note_on_c, 0, 72, 0
2, 43680, Note_on_c, 0, 75, 80
2, 43680, Note_on_c, 0, 78, 80
2, 44040, Note_on_c, 0, 78, 0
2, 44040, Note_on_c, 0, 75, 0
2, 44040, Note_on_c, 0, 73, 83
2, 44040, Note_on_c, 0, 77, 83
2, 44160, Note_on_c, 0, 77, 0
2, 44160, Note_on_c, 0, 73, 0
2, 44160, Note_on_c, 0, 72, 84
2, 44160, Note_on_c, 0, 75, 84
2, 44280, Note_on_c, 0, 75, 0
2, 44280, Note_on_c, 0, 72, 0
2, 44280, Note_on_c, 0, 70, 85
2, 44280, Note_on_c, 0, 73, 85
2, 44400, Note_on_c, 0, 73, 0
2, 44400, Note_on_c, 0, 70, 0
2, 44400, Note_on_c, 0, 69, 86
2, 44400, Note_on_c, 0, 72, 86
2, 44520, Note_on_c, 0, 72, 0
2, 44520, Note_on_c, 0, 69, 0
2, 44520, Note_on_c, 0, 61, 87
2, 44520, Note_on_c, 0, 65, 87
2, 44520, Note_on_c, 0, 70, 87
2, 44640, Note_on_c, 0, 70, 0
2, 44640, Note_on_c, 0, 65, 0
2, 44640, Note_on_c, 0, 61, 0
2, 44640, Note_on_c, 0, 60, 88
2, 44640, Note_on_c, 0, 63, 88
2, 44640, Note_on_c, 0, 69, 88
2, 44760, Note_on_c, 0, 69, 0
2, 44760, Note_on_c, 0, 63, 0
2, 44760, Note_on_c, 0, 60, 0
2, 44760, Note_on_c, 0, 58, 89
2, 44760, Note_on_c, 0, 61, 89
2, 44760, Note_on_c, 0, 66, 89
2, 44832, Note_on_c, 0, 66, 0
2, 44832, Note_on_c, 0, 61, 0
2, 44832, Note_on_c, 0, 58, 0
2, 44880, Note_on_c, 0, 57, 90
2, 44880, Note_on_c, 0, 60, 90
2, 44880, Note_on_c, 0, 65, 90
2, 44979, Note_on_c, 0, 65, 0
2, 44979, Note_on_c, 0, 60, 0
2, 44979, Note_on_c, 0, 57, 0
2, 45000, Note_on_c, 0, 55, 91
2, 45000, Note_on_c, 0, 58, 91
2, 45000, Note_on_c, 0, 64, 91
2, 45119, Note_on_c, 0, 64, 0
2, 45119, Note_on_c, 0, 58, 0
2, 45119, Note_on_c, 0, 55, 0
2, 45120, Note_on_c, 0, 57, 92
2, 45120, Note_on_c, 0, 60, 92
2, 45120, Note_on_c, 0, 63, 92
2, 45600, Note_on_c, 0, 63, 0
2, 45600, Note_on_c, 0, 60, 0
2, 45600, Note_on_c, 0, 57, 0
2, 45960, Note_on_c, 0, 75, 80
2, 45990, Note_on_c, 0, 75, 0
2, 45990, Note_on_c, 0, 73, 80
2, 46020, Note_on_c, 0, 73, 0
2, 46020, Note_on_c, 0, 72, 80
2, 46050, Note_on_c, 0, 72, 0
2, 46050, Note_on_c, 0, 70, 80
2, 46080, Note_on_c, 0, 70, 0
2, 46080, Note_on_c, 0, 69, 80
2, 46152, Note_on_c, 0, 69, 0
2, 46440, Note_on_c, 0, 80, 80
2, 46470, Note_on_c, 0, 80, 0
2, 46470, Note_on_c, 0, 78, 80
2, 46500, Note_on_c, 0, 78, 0
2, 46500, Note_on_c, 0, 77, 80
2, 46530, Note_on_c, 0, 77, 0
2, 46530, Note_on_c, 0, 75, 80
2, 46560, Note_on_c, 0, 75, 0
2, 46560, Note_on_c, 0, 73, 80
2, 46680, Note_on_c, 0, 73, 0
2, 46920, Note_on_c, 0, 75, 80
2, 46950, Note_on_c, 0, 75, 0
2, 46950, Note_on_c, 0, 73, 80
2, 46980, Note_on_c, 0, 73, 0
2, 46980, Note_on_c, 0, 72, 80
2, 47010, Note_on_c, 0, 72, 0
2, 47010, Note_on_c, 0, 70, 80
2, 47040, Note_on_c, 0, 70, 0
2, 47040, Note_on_c, 0, 69, 80
2, 47112, Note_on_c, 0, 69, 0
2, 47400, Note_on_c, 0, 80, 80
2, 47430, Note_on_c, 0, 80, 0
2, 47430, Note_on_c, 0, 78, 80
2, 47460, Note_on_c, 0, 78, 0
2, 47460, Note_on_c, 0, 77, 80
2, 47490, Note_on_c, 0, 77, 0
2, 47490, Note_on_c, 0, 75, 80
2, 47520, Note_on_c, 0, 75, 0
2, 47520, Note_on_c, 0, 73, 80
2, 47640, Note_on_c, 0, 73, 0
2, 47880, Note_on_c, 0, 78, 80
2, 47910, Note_on_c, 0, 78, 0
2, 47910, Note_on_c, 0, 77, 80
2, 47940, Note_on_c, 0, 77, 0
2, 47940, Note_on_c, 0, 75, 80
2, 47970, Note_on_c, 0, 75, 0
2, 47970, Note_on_c, 0, 73, 80
2, 48000, Note_on_c, 0, 73, 0
2, 48000, Note_on_c, 0, 72, 80
2, 48072, Note_on_c, 0, 72, 0
2, 48360, Note_on_c, 0, 84, 80
2, 48390, Note_on_c, 0, 84, 0
2, 48390, Note_on_c, 0, 82, 80
2, 48420, Note_on_c, 0, 82, 0
2, 48420, Note_on_c, 0, 80, 80
2, 48450, Note_on_c, 0, 80, 0
2, 48450, Note_on_c, 0, 78, 80
2, 48480, Note_on_c, 0, 78, 0
2, 48480, Note_on_c, 0, 77, 80
2, 48600, Note_on_c, 0, 77, 0
2, 48840, Note_on_c, 0, 78, 80
2, 48870, Note_on_c, 0, 78, 0
2, 48870, Note_on_c, 0, 77, 80
2, 48900, Note_on_c, 0, 77, 0
2, 48900, Note_on_c, 0, 75, 80
2, 48930, Note_on_c, 0, 75, 0
2, 48930, Note_on_c, 0, 73, 80
2, 48960, Note_on_c, 0, 73, 0
2, 48960, Note_on_c, 0, 72, 80
2, 49032, Note_on_c, 0, 72, 0
2, 49320, Note_on_c, 0, 84, 80
2, 49350, Note_on_c, 0, 84, 0
2, 49350, Note_on_c, 0, 82, 80
2, 49380, Note_on_c, 0, 82, 0
2, 49380, Note_on_c, 0, 80, 80
2, 49410, Note_on_c, 0, 80, 0
2, 49410, Note_on_c, 0, 78, 80
2, 49440, Note_on_c, 0, 78, 0
2, 49440, Note_on_c, 0, 77, 80
2, 49560, Note_on_c, 0, 77, 0
2, 49560, Note_on_c, 0, 89, 80
2, 49600, Note_on_c, 0, 89, 0
2, 49600, Note_on_c, 0, 87, 80
2, 49640, Note_on_c, 0, 87, 0
2, 49640, Note_on_c, 0, 85, 80
2, 49680, Note_on_c, 0, 85, 0
2, 49680, Note_on_c, 0, 84, 80
2, 49720, Note_on_c, 0, 84, 0
2, 49720, Note_on_c, 0, 82, 80
2, 49760, Note_on_c, 0, 82, 0
2, 49760, Note_on_c, 0, 80, 80
2, 49800, Note_on_c, 0, 80, 0
2, 49800, Note_on_c, 0, 78, 80
2, 49840, Note_on_c, 0, 78, 0
2, 49840, Note_on_c, 0, 77, 80
2, 49880, Note_on_c, 0, 77, 0
2, 49880, Note_on_c, 0, 75, 80
2, 49920, Note_on_c, 0, 75, 0
2, 49920, Note_on_c, 0, 73, 80
2, 49992, Note_on_c, 0, 73, 0
2, 50040, Note_on_c, 0, 77, 80
2, 50080, Note_on_c, 0, 77, 0
2, 50080, Note_on_c, 0, 75, 80
2, 50120, Note_on_c, 0, 75, 0
2, 50120, Note_on_c, 0, 73, 80
2, 50160, Note_on_c, 0, 73, 0
2, 50160, Note_on_c, 0, 72, 80
2, 50200, Note_on_c, 0, 72, 0
2, 50200, Note_on_c, 0, 70, 80
2, 50240, Note_on_c, 0, 70, 0
2, 50240, Note_on_c, 0, 68, 80
2, 50280, Note_on_c, 0, 68, 0
2, 50280, Note_on_c, 0, 66, 80
2, 50320, Note_on_c, 0, 66, 0
2, 50320, Note_on_c, 0, 65, 80
2, 50360, Note_on_c, 0, 65, 0
2, 50360, Note_on_c, 0, 63, 80
2, 50400, Note_on_c, 0, 63, 0
2, 50400, Note_on_c, 0, 61, 80
2, 50640, Note_on_c, 0, 61, 0
2, 50640, Note_on_c, 0, 59, 80
2, 50670, Note_on_c, 0, 59, 0
2, 50670, Note_on_c, 0, 61, 80
2, 50700, Note_on_c, 0, 61, 0
2, 50700, Note_on_c, 0, 59, 80
2, 50730, Note_on_c, 0, 59, 0
2, 50730, Note_on_c, 0, 61, 80
2, 50760, Note_on_c, 0, 61, 0
2, 50760, Note_on_c, 0, 59, 80
2, 50780, Note_on_c, 0, 59, 0
2, 50780, Note_on_c, 0, 61, 80
2, 50800, Note_on_c, 0, 61, 0
2, 50800, Note_on_c, 0, 59, 80
2, 50820, Note_on_c, 0, 59, 0
2, 50820, Note_on_c, 0, 58, 80
2, 50850, Note_on_c, 0, 58, 0
2, 50850, Note_on_c, 0, 59, 80
2, 50880, Note_on_c, 0, 59, 0
2, 50880, Note_on_c, 0, 58, 96
2, 50920, Note_on_c, 0, 58, 0
2, 50920, Note_on_c, 0, 62, 80
2, 50960, Note_on_c, 0, 62, 0
2, 50960, Note_on_c, 0, 65, 80
2, 51000, Note_on_c, 0, 65, 0
2, 51000, Note_on_c, 0, 62, 80
2, 51040, Note_on_c, 0, 62, 0
2, 51040, Note_on_c, 0, 65, 80
2, 51080, Note_on_c, 0, 65, 0
2, 51080, Note_on_c, 0, 70, 80
2, 51120, Note_on_c, 0, 70, 0
2, 51120, Note_on_c, 0, 65, 80
2, 51160, Note_on_c, 0, 65, 0
2, 51160, Note_on_c, 0, 70, 80
2, 51200, Note_on_c, 0, 70, 0
2, 51200, Note_on_c, 0, 74, 80
2, 51240, Note_on_c, 0, 74, 0
2, 51240, Note_on_c, 0, 70, 80
2, 51280, Note_on_c, 0, 70, 0
2, 51280, Note_on_c, 0, 74, 80
2, 51320, Note_on_c, 0, 74, 0
2, 51320, Note_on_c, 0, 77, 80
2, 51360, Note_on_c, 0, 77, 0
2, 51360, Note_on_c, 0, 74, 80
2, 51400, Note_on_c, 0, 74, 0
2, 51400, Note_on_c, 0, 77, 80
2, 51440, Note_on_c, 0, 77, 0
2, 51440, Note_on_c, 0, 80, 80
2, 51480, Note_on_c, 0, 80, 0
2, 51480, Note_on_c, 0, 77, 80
2, 51520, Note_on_c, 0, 77, 0
2, 51520, Note_on_c, 0, 80, 80
2, 51560, Note_on_c, 0, 80, 0
2, 51560, Note_on_c, 0, 83, 80
2, 51600, Note_on_c, 0, 83, 0
2, 51600, Note_on_c, 0, 82, 80
2, 51640, Note_on_c, 0, 82, 0
2, 51640, Note_on_c, 0, 80, 80
2, 51680, Note_on_c, 0, 80, 0
2, 51680, Note_on_c, 0, 78, 80
2, 51720, Note_on_c, 0, 78, 0
2, 51720, Note_on_c, 0, 77, 80
2, 51760, Note_on_c, 0, 77, 0
2, 51760, Note_on_c, 0, 75, 80
2, 51800, Note_on_c, 0, 75, 0
2, 51800, Note_on_c, 0, 74, 80
2, 51840, Note_on_c, 0, 74, 0
2, 51840, Note_on_c, 0, 75, 80
2, 51960, Note_on_c, 0, 75, 0
2, 52200, Note_on_c, 0, 80, 80
2, 52230, Note_on_c, 0, 80, 0
2, 52230, Note_on_c, 0, 78, 80
2, 52260, Note_on_c, 0, 78, 0
2, 52260, Note_on_c, 0, 77, 80
2, 52290, Note_on_c, 0, 77, 0
2, 52290, Note_on_c, 0, 75, 80
2, 52320, Note_on_c, 0, 75, 0
2, 52320, Note_on_c, 0, 74, 80
2, 52392, Note_on_c, 0, 74, 0
2, 52680, Note_on_c, 0, 85, 80
2, 52710, Note_on_c, 0, 85, 0
2, 52710, Note_on_c, 0, 83, 80
2, 52740, Note_on_c, 0, 83, 0
2, 52740, Note_on_c, 0, 82, 80
2, 52770, Note_on_c, 0, 82, 0
2, 52770, Note_on_c, 0, 80, 80
2, 52800, Note_on_c, 0, 80, 0
2, 52800, Note_on_c, 0, 78, 80
2, 52920, Note_on_c, 0, 78, 0
2, 53160, Note_on_c, 0, 80, 80
2, 53190, Note_on_c, 0, 80, 0
2, 53190, Note_on_c, 0, 78, 80
2, 53220, Note_on_c, 0, 78, 0
2, 53220, Note_on_c, 0, 77, 80
2, 53250, Note_on_c, 0, 77, 0
2, 53250, Note_on_c, 0, 75, 80
2, 53280, Note_on_c, 0, 75, 0
2, 53280, Note_on_c, 0, 74, 80
2, 53352, Note_on_c, 0, 74, 0
2, 53640, Note_on_c, 0, 85, 80
2, 53670, Note_on_c, 0, 85, 0
2, 53670, Note_on_c, 0, 83, 80
2, 53700, Note_on_c, 0, 83, 0
2, 53700, Note_on_c, 0, 82, 80
2, 53730, Note_on_c, 0, 82, 0
2, 53730, Note_on_c, 0, 80, 80
2, 53760, Note_on_c, 0, 80, 0
2, 53760, Note_on_c, 0, 78, 80
2, 54000, Note_on_c, 0, 78, 0
2, 54000, Note_on_c, 0, 79, 96
2, 54144, Note_on_c, 0, 79, 0
2, 54240, Note_on_c, 0, 80, 80
2, 54300, Note_on_c, 0, 80, 0
2, 54300, Note_on_c, 0, 82, 80
2, 54320, Note_on_c, 0, 82, 0
2, 54320, Note_on_c, 0, 80, 80
2, 54340, Note_on_c, 0, 80, 0
2, 54340, Note_on_c, 0, 79, 80
2, 54360, Note_on_c, 0, 79, 0
2, 54360, Note_on_c, 0, 80, 80
2, 54420, Note_on_c, 0, 80, 0
2, 54420, Note_on_c, 0, 82, 80
2, 54480, Note_on_c, 0, 82, 0
2, 54480, Note_on_c, 0, 85, 80
2, 54540, Note_on_c, 0, 85, 0
2, 54540, Note_on_c, 0, 83, 80
2, 54576, Note_on_c, 0, 83, 0
2, 54600, Note_on_c, 0, 82, 80
2, 54660, Note_on_c, 0, 82, 0
2, 54660, Note_on_c, 0, 80, 80
2, 54696, Note_on_c, 0, 80, 0
2, 54720, Note_on_c, 0, 78, 80
2, 54960, Note_on_c, 0, 78, 0
2, 54960, Note_on_c, 0, 77, 80
2, 54990, Note_on_c, 0, 77, 0
2, 54990, Note_on_c, 0, 78, 80
2, 55020, Note_on_c, 0, 78, 0
2, 55020, Note_on_c, 0, 77, 80
2, 55050, Note_on_c, 0, 77, 0
2, 55050, Note_on_c, 0, 78, 80
2, 55080, Note_on_c, 0, 78, 0
2, 55080, Note_on_c, 0, 77, 80
2, 55100, Note_on_c, 0, 77, 0
2, 55100, Note_on_c, 0, 78, 80
2, 55120, Note_on_c, 0, 78, 0
2, 55120, Note_on_c, 0, 77, 80
2, 55140, Note_on_c, 0, 77, 0
2, 55140, Note_on_c, 0, 75, 80
2, 55170, Note_on_c, 0, 75, 0
2, 55170, Note_on_c, 0, 77, 80
2, 55200, Note_on_c, 0, 77, 0
2, 55200, Note_on_c, 0, 78, 80
2, 55260, Note_on_c, 0, 78, 0
2, 55260, Note_on_c, 0, 80, 80
2, 55280, Note_on_c, 0, 80, 0
2, 55280, Note_on_c, 0, 78, 80
2, 55300, Note_on_c, 0, 78, 0
2, 55300, Note_on_c, 0, 77, 80
2, 55320, Note_on_c, 0, 77, 0
2, 55320, Note_on_c, 0, 78, 80
2, 55380, Note_on_c, 0, 78, 0
2, 55380, Note_on_c, 0, 80, 80
2, 55440, Note_on_c, 0, 80, 0
2, 55440, Note_on_c, 0, 83, 80
2, 55500, Note_on_c, 0, 83, 0
2, 55500, Note_on_c, 0, 82, 80
2, 55536, Note_on_c, 0, 82, 0
2, 55560, Note_on_c, 0, 80, 80
2, 55620, Note_on_c, 0, 80, 0
2, 55620, Note_on_c, 0, 78, 80
2, 55656, Note_on_c, 0, 78, 0
2, 55680, Note_on_c, 0, 77, 80
2, 55920, Note_on_c, 0, 77, 0
2, 55920, Note_on_c, 0, 75, 80
2, 55950, Note_on_c, 0, 75, 0
2, 55950, Note_on_c, 0, 77, 80
2, 55980, Note_on_c, 0, 77, 0
2, 55980, Note_on_c, 0, 75, 80
2, 56010, Note_on_c, 0, 75, 0
2, 56010, Note_on_c, 0, 77, 80
2, 56040, Note_on_c, 0, 77, 0
2, 56040, Note_on_c, 0, 75, 80
2, 56060, Note_on_c, 0, 75, 0
2, 56060, Note_on_c, 0, 77, 80
2, 56080, Note_on_c, 0, 77, 0
2, 56080, Note_on_c, 0, 75, 80
2, 56100, Note_on_c, 0, 75, 0
2, 56100, Note_on_c, 0, 74, 80
2, 56130, Note_on_c, 0, 74, 0
2, 56130, Note_on_c, 0, 75, 80
2, 56160, Note_on_c, 0, 75, 0
2, 56160, Note_on_c, 0, 77, 80
2, 56220, Note_on_c, 0, 77, 0
2, 56220, Note_on_c, 0, 78, 80
2, 56235, Note_on_c, 0, 78, 0
2, 56240, Note_on_c, 0, 77, 80
2, 56260, Note_on_c, 0, 75, 80
2, 56270, Note_on_c, 0, 77, 0
2, 56275, Note_on_c, 0, 75, 0
2, 56280, Note_on_c, 0, 77, 80
2, 56340, Note_on_c, 0, 77, 0
2, 56340, Note_on_c, 0, 78, 80
2, 56400, Note_on_c, 0, 78, 0
2, 56400, Note_on_c, 0, 82, 80
2, 56460, Note_on_c, 0, 82, 0
2, 56460, Note_on_c, 0, 80, 80
2, 56496, Note_on_c, 0, 80, 0
2, 56520, Note_on_c, 0, 78, 80
2, 56580, Note_on_c, 0, 78, 0
2, 56580, Note_on_c, 0, 77, 80
2, 56616, Note_on_c, 0, 77, 0
2, 56640, Note_on_c, 0, 75, 80
2, 56880, Note_on_c, 0, 75, 0
2, 56880, Note_on_c, 0, 74, 80
2, 56910, Note_on_c, 0, 74, 0
2, 56910, Note_on_c, 0, 75, 80
2, 56940, Note_on_c, 0, 75, 0
2, 56940, Note_on_c, 0, 74, 80
2, 56970, Note_on_c, 0, 74, 0
2, 56970, Note_on_c, 0, 75, 80
2, 57000, Note_on_c, 0, 75, 0
2, 57000, Note_on_c, 0, 74, 80
2, 57015, Note_on_c, 0, 74, 0
2, 57020, Note_on_c, 0, 75, 80
2, 57040, Note_on_c, 0, 74, 80
2, 57050, Note_on_c, 0, 75, 0
2, 57055, Note_on_c, 0, 74, 0
2, 57060, Note_on_c, 0, 72, 80
2, 57090, Note_on_c, 0, 72, 0
2, 57090, Note_on_c, 0, 74, 80
2, 57120, Note_on_c, 0, 74, 0
2, 57120, Note_on_c, 0, 75, 80
2, 57360, Note_on_c, 0, 75, 0
2, 57420, Note_on_c, 0, 75, 80
2, 57480, Note_on_c, 0, 75, 0
2, 57480, Note_on_c, 0, 75, 80
2, 57500, Note_on_c, 0, 75, 0
2, 57500, Note_on_c, 0, 77, 80
2, 57520, Note_on_c, 0, 77, 0
2, 57520, Note_on_c, 0, 75, 80
2, 57540, Note_on_c, 0, 75, 0
2, 57540, Note_on_c, 0, 74, 80
2, 57570, Note_on_c, 0, 74, 0
2, 57570, Note_on_c, 0, 75, 80
2, 57600, Note_on_c, 0, 75, 0
2, 57600, Note_on_c, 0, 79, 80
2, 57720, Note_on_c, 0, 79, 0
2, 57720, Note_on_c, 0, 75, 80
2, 57792, Note_on_c, 0, 75, 0
2, 57900, Note_on_c, 0, 75, 80
2, 57960, Note_on_c, 0, 75, 0
2, 57960, Note_on_c, 0, 75, 80
2, 57980, Note_on_c, 0, 75, 0
2, 57980, Note_on_c, 0, 77, 80
2, 58000, Note_on_c, 0, 77, 0
2, 58000, Note_on_c, 0, 75, 80
2, 58020, Note_on_c, 0, 75, 0
2, 58020, Note_on_c, 0, 74, 80
2, 58050, Note_on_c, 0, 74, 0
2, 58050, Note_on_c, 0, 75, 80
2, 58080, Note_on_c, 0, 75, 0
2, 58080, Note_on_c, 0, 79, 80
2, 58200, Note_on_c, 0, 79, 0
2, 58200, Note_on_c, 0, 75, 80
2, 58320, Note_on_c, 0, 75, 0
2, 58380, Note_on_c, 0, 75, 80
2, 58440, Note_on_c, 0, 75, 0
2, 58440, Note_on_c, 0, 75, 80
2, 58460, Note_on_c, 0, 75, 0
2, 58460, Note_on_c, 0, 77, 80
2, 58480, Note_on_c, 0, 77, 0
2, 58480, Note_on_c, 0, 75, 80
2, 58500, Note_on_c, 0, 75, 0
2, 58500, Note_on_c, 0, 74, 80
2, 58530, Note_on_c, 0, 74, 0
2, 58530, Note_on_c, 0, 75, 80
2, 58560, Note_on_c, 0, 75, 0
2, 58560, Note_on_c, 0, 84, 80
2, 58680, Note_on_c, 0, 84, 0
2, 58680, Note_on_c, 0, 75, 80
2, 58752, Note_on_c, 0, 75, 0
2, 58860, Note_on_c, 0, 75, 80
2, 58920, Note_on_c, 0, 75, 0
2, 58920, Note_on_c, 0, 75, 80
2, 58940, Note_on_c, 0, 75, 0
2, 58940, Note_on_c, 0, 77, 80
2, 58960, Note_on_c, 0, 77, 0
2, 58960, Note_on_c, 0, 75, 80
2, 58980, Note_on_c, 0, 75, 0
2, 58980, Note_on_c, 0, 74, 80
2, 59010, Note_on_c, 0, 74, 0
2, 59010, Note_on_c, 0, 75, 80
2, 59040, Note_on_c, 0, 75, 0
2, 59040, Note_on_c, 0, 70, 64
2, 59080, Note_on_c, 0, 70, 0
2, 59080, Note_on_c, 0, 75, 65
2, 59120, Note_on_c, 0, 75, 0
2, 59120, Note_on_c, 0, 79, 66
2, 59160, Note_on_c, 0, 79, 0
2, 59160, Note_on_c, 0, 70, 67
2, 59200, Note_on_c, 0, 70, 0
2, 59200, Note_on_c, 0, 75, 68
2, 59240, Note_on_c, 0, 75, 0
2, 59240, Note_on_c, 0, 79, 69
2, 59280, Note_on_c, 0, 79, 0
2, 59280, Note_on_c, 0, 71, 70
2, 59320, Note_on_c, 0, 71, 0
2, 59320, Note_on_c, 0, 75, 71
2, 59360, Note_on_c, 0, 75, 0
2, 59360, Note_on_c, 0, 79, 72
2, 59400, Note_on_c, 0, 79, 0
2, 59400, Note_on_c, 0, 71, 73
2, 59440, Note_on_c, 0, 71, 0
2, 59440, Note_on_c, 0, 75, 74
2, 59480, Note_on_c, 0, 75, 0
2, 59480, Note_on_c, 0, 79, 75
2, 59520, Note_on_c, 0, 79, 0
2, 59520, Note_on_c, 0, 72, 76
2, 59560, Note_on_c, 0, 72, 0
2, 59560, Note_on_c, 0, 75, 77
2, 59600, Note_on_c, 0, 75, 0
2, 59600, Note_on_c, 0, 79, 78
2, 59640, Note_on_c, 0, 79, 0
2, 59640, Note_on_c, 0, 72, 79
2, 59680, Note_on_c, 0, 72, 0
2, 59680, Note_on_c, 0, 75, 80
2, 59720, Note_on_c, 0, 75, 0
2, 59720, Note_on_c, 0, 79, 81
2, 59760, Note_on_c, 0, 79, 0
2, 59760, Note_on_c, 0, 73, 82
2, 59800, Note_on_c, 0, 73, 0
2, 59800, Note_on_c, 0, 76, 83
2, 59840, Note_on_c, 0, 76, 0
2, 59840, Note_on_c, 0, 79, 84
2, 59880, Note_on_c, 0, 79, 0
2, 59880, Note_on_c, 0, 73, 85
2, 59920, Note_on_c, 0, 73, 0
2, 59920, Note_on_c, 0, 76, 86
2, 59960, Note_on_c, 0, 76, 0
2, 59960, Note_on_c, 0, 79, 87
2, 60000, Note_on_c, 0, 79, 0
2, 60000, Note_on_c, 0, 74, 88
2, 60040, Note_on_c, 0, 74, 0
2, 60040, Note_on_c, 0, 79, 88
2, 60080, Note_on_c, 0, 79, 0
2, 60080, Note_on_c, 0, 82, 88
2, 60120, Note_on_c, 0, 82, 0
2, 60120, Note_on_c, 0, 86, 88
2, 60160, Note_on_c, 0, 86, 0
2, 60160, Note_on_c, 0, 82, 88
2, 60200, Note_on_c, 0, 82, 0
2, 60200, Note_on_c, 0, 79, 88
2, 60240, Note_on_c, 0, 79, 0
2, 60240, Note_on_c, 0, 74, 88
2, 60280, Note_on_c, 0, 74, 0
2, 60280, Note_on_c, 0, 79, 88
2, 60320, Note_on_c, 0, 79, 0
2, 60320, Note_on_c, 0, 82, 88
2, 60360, Note_on_c, 0, 82, 0
2, 60360, Note_on_c, 0, 86, 88
2, 60400, Note_on_c, 0, 86, 0
2, 60400, Note_on_c, 0, 82, 88
2, 60440, Note_on_c, 0, 82, 0
2, 60440, Note_on_c, 0, 79, 88
2, 60480, Note_on_c, 0, 79, 0
2, 60480, Note_on_c, 0, 74, 88
2, 60520, Note_on_c, 0, 74, 0
2, 60520, Note_on_c, 0, 78, 88
2, 60560, Note_on_c, 0, 78, 0
2, 60560, Note_on_c, 0, 81, 88
2, 60600, Note_on_c, 0, 81, 0
2, 60600, Note_on_c, 0, 84, 88
2, 60640, Note_on_c, 0, 84, 0
2, 60640, Note_on_c, 0, 81, 88
2, 60680, Note_on_c, 0, 81, 0
2, 60680, Note_on_c, 0, 78, 88
2, 60720, Note_on_c, 0, 78, 0
2, 60720, Note_on_c, 0, 74, 88
2, 60760, Note_on_c, 0, 74, 0
2, 60760, Note_on_c, 0, 78, 88
2, 60800, Note_on_c, 0, 78, 0
2, 60800, Note_on_c, 0, 81, 88
2, 60840, Note_on_c, 0, 81, 0
2, 60840, Note_on_c, 0, 84, 88
2, 60880, Note_on_c, 0, 84, 0
2, 60880, Note_on_c, 0, 81, 88
2, 60920, Note_on_c, 0, 81, 0
2, 60920, Note_on_c, 0, 78, 88
2, 60960, Note_on_c, 0, 78, 0
2, 60960, Note_on_c, 0, 79, 88
2, 61000, Note_on_c, 0, 79, 0
2, 61000, Note_on_c, 0, 82, 87
2, 61040, Note_on_c, 0, 82, 0
2, 61040, Note_on_c, 0, 81, 87
2, 61080, Note_on_c, 0, 81, 0
2, 61080, Note_on_c, 0, 79, 86
2, 61120, Note_on_c, 0, 79, 0
2, 61120, Note_on_c, 0, 77, 85
2, 61160, Note_on_c, 0, 77, 0
2, 61160, Note_on_c, 0, 75, 85
2, 61200, Note_on_c, 0, 75, 0
2, 61200, Note_on_c, 0, 74, 84
2, 61240, Note_on_c, 0, 74, 0
2, 61240, Note_on_c, 0, 72, 83
2, 61280, Note_on_c, 0, 72, 0
2, 61280, Note_on_c, 0, 70, 83
2, 61320, Note_on_c, 0, 70, 0
2, 61320, Note_on_c, 0, 69, 82
2, 61360, Note_on_c, 0, 69, 0
2, 61360, Note_on_c, 0, 67, 81
2, 61400, Note_on_c, 0, 67, 0
2, 61400, Note_on_c, 0, 65, 81
2, 61440, Note_on_c, 0, 65, 0
2, 61440, Note_on_c, 0, 63, 80
2, 61480, Note_on_c, 0, 63, 0
2, 61480, Note_on_c, 0, 67, 79
2, 61520, Note_on_c, 0, 67, 0
2, 61520, Note_on_c, 0, 70, 79
2, 61560, Note_on_c, 0, 70, 0
2, 61560, Note_on_c, 0, 63, 78
2, 61600, Note_on_c, 0, 63, 0
2, 61600, Note_on_c, 0, 67, 77
2, 61640, Note_on_c, 0, 67, 0
2, 61640, Note_on_c, 0, 70, 77
2, 61680, Note_on_c, 0, 70, 0
2, 61680, Note_on_c, 0, 62, 76
2, 61720, Note_on_c, 0, 62, 0
2, 61720, Note_on_c, 0, 67, 75
2, 61760, Note_on_c, 0, 67, 0
2, 61760, Note_on_c, 0, 70, 75
2, 61800, Note_on_c, 0, 70, 0
2, 61800, Note_on_c, 0, 62, 74
2, 61840, Note_on_c, 0, 62, 0
2, 61840, Note_on_c, 0, 67, 73
2, 61880, Note_on_c, 0, 67, 0
2, 61880, Note_on_c, 0, 70, 73
2, 61920, Note_on_c, 0, 70, 0
2, 61920, Note_on_c, 0, 61, 88
2, 61960, Note_on_c, 0, 61, 0
2, 61960, Note_on_c, 0, 67, 80
2, 62000, Note_on_c, 0, 67, 0
2, 62000, Note_on_c, 0, 70, 80
2, 62040, Note_on_c, 0, 70, 0
2, 62040, Note_on_c, 0, 61, 80
2, 62080, Note_on_c, 0, 61, 0
2, 62080, Note_on_c, 0, 67, 80
2, 62120, Note_on_c, 0, 67, 0
2, 62120, Note_on_c, 0, 70, 80
2, 62160, Note_on_c, 0, 70, 0
2, 62160, Note_on_c, 0, 61, 80
2, 62200, Note_on_c, 0, 61, 0
2, 62200, Note_on_c, 0, 67, 80
2, 62240, Note_on_c, 0, 67, 0
2, 62240, Note_on_c, 0, 70, 80
2, 62280, Note_on_c, 0, 70, 0
2, 62280, Note_on_c, 0, 61, 80
2, 62320, Note_on_c, 0, 61, 0
2, 62320, Note_on_c, 0, 67, 80
2, 62360, Note_on_c, 0, 67, 0
2, 62360, Note_on_c, 0, 70, 80
2, 62400, Note_on_c, 0, 70, 0
2, 62400, Note_on_c, 0, 62, 80
2, 62440, Note_on_c, 0, 62, 0
2, 62440, Note_on_c, 0, 67, 80
2, 62480, Note_on_c, 0, 67, 0
2, 62480, Note_on_c, 0, 70, 80
2, 62520, Note_on_c, 0, 70, 0
2, 62520, Note_on_c, 0, 74, 80
2, 62560, Note_on_c, 0, 74, 0
2, 62560, Note_on_c, 0, 70, 80
2, 62600, Note_on_c, 0, 70, 0
2, 62600, Note_on_c, 0, 67, 80
2, 62640, Note_on_c, 0, 67, 0
2, 62640, Note_on_c, 0, 62, 80
2, 62712, Note_on_c, 0, 62, 0
2, 62760, Note_on_c, 0, 60, 80
2, 62760, Note_on_c, 0, 66, 80
2, 62832, Note_on_c, 0, 66, 0
2, 62832, Note_on_c, 0, 60, 0
2, 63120, Note_on_c, 0, 79, 56
2, 63180, Note_on_c, 0, 79, 0
2, 63180, Note_on_c, 0, 78, 56
2, 63216, Note_on_c, 0, 78, 0
2, 63240, Note_on_c, 0, 81, 56
2, 63276, Note_on_c, 0, 81, 0
2, 63300, Note_on_c, 0, 79, 56
2, 63336, Note_on_c, 0, 79, 0
2, 63360, Note_on_c, 0, 82, 56
2, 63420, Note_on_c, 0, 82, 0
2, 63420, Note_on_c, 0, 81, 56
2, 63480, Note_on_c, 0, 81, 0
2, 63480, Note_on_c, 0, 79, 56
2, 63540, Note_on_c, 0, 79, 0
2, 63540, Note_on_c, 0, 77, 56
2, 63600, Note_on_c, 0, 77, 0
2, 63600, Note_on_c, 0, 75, 56
2, 63720, Note_on_c, 0, 75, 0
2, 63720, Note_on_c, 0, 74, 56
2, 63840, Note_on_c, 0, 74, 0
2, 63840, Note_on_c, 0, 74, 56
2, 64080, Note_on_c, 0, 74, 0
2, 64080, Note_on_c, 0, 73, 80
2, 64140, Note_on_c, 0, 73, 0
2, 64140, Note_on_c, 0, 69, 80
2, 64200, Note_on_c, 0, 69, 0
2, 64200, Note_on_c, 0, 70, 80
2, 64230, Note_on_c, 0, 70, 0
2, 64230, Note_on_c, 0, 69, 80
2, 64260, Note_on_c, 0, 69, 0
2, 64260, Note_on_c, 0, 68, 80
2, 64290, Note_on_c, 0, 68, 0
2, 64290, Note_on_c, 0, 69, 80
2, 64320, Note_on_c, 0, 69, 0
2, 64320, Note_on_c, 0, 74, 80
2, 64380, Note_on_c, 0, 74, 0
2, 64380, Note_on_c, 0, 69, 80
2, 64440, Note_on_c, 0, 69, 0
2, 64440, Note_on_c, 0, 70, 80
2, 64470, Note_on_c, 0, 70, 0
2, 64470, Note_on_c, 0, 69, 80
2, 64500, Note_on_c, 0, 69, 0
2, 64500, Note_on_c, 0, 68, 80
2, 64530, Note_on_c, 0, 68, 0
2, 64530, Note_on_c, 0, 69, 80
2, 64560, Note_on_c, 0, 69, 0
2, 64560, Note_on_c, 0, 76, 80
2, 64620, Note_on_c, 0, 76, 0
2, 64620, Note_on_c, 0, 69, 80
2, 64680, Note_on_c, 0, 69, 0
2, 64680, Note_on_c, 0, 70, 80
2, 64710, Note_on_c, 0, 70, 0
2, 64710, Note_on_c, 0, 69, 80
2, 64740, Note_on_c, 0, 69, 0
2, 64740, Note_on_c, 0, 68, 80
2, 64770, Note_on_c, 0, 68, 0
2, 64770, Note_on_c, 0, 69, 80
2, 64800, Note_on_c, 0, 69, 0
2, 64800, Note_on_c, 0, 77, 80
2, 64920, Note_on_c, 0, 77, 0
2, 65040, Note_on_c, 0, 77, 56
2, 65100, Note_on_c, 0, 77, 0
2, 65100, Note_on_c, 0, 76, 56
2, 65136, Note_on_c, 0, 76, 0
2, 65160, Note_on_c, 0, 79, 56
2, 65196, Note_on_c, 0, 79, 0
2, 65220, Note_on_c, 0, 77, 56
2, 65256, Note_on_c, 0, 77, 0
2, 65280, Note_on_c, 0, 80, 56
2, 65340, Note_on_c, 0, 80, 0
2, 65340, Note_on_c, 0, 79, 56
2, 65400, Note_on_c, 0, 79, 0
2, 65400, Note_on_c, 0, 77, 56
2, 65460, Note_on_c, 0, 77, 0
2, 65460, Note_on_c, 0, 75, 56
2, 65520, Note_on_c, 0, 75, 0
2, 65520, Note_on_c, 0, 74, 56
2, 65640, Note_on_c, 0, 74, 0
2, 65640, Note_on_c, 0, 72, 56
2, 65712, Note_on_c, 0, 72, 0
2, 65760, Note_on_c, 0, 72, 56
2, 66000, Note_on_c, 0, 72, 0
2, 66000, Note_on_c, 0, 71, 80
2, 66060, Note_on_c, 0, 71, 0
2, 66060, Note_on_c, 0, 67, 80
2, 66120, Note_on_c, 0, 67, 0
2, 66120, Note_on_c, 0, 68, 80
2, 66150, Note_on_c, 0, 68, 0
2, 66150, Note_on_c, 0, 67, 80
2, 66180, Note_on_c, 0, 67, 0
2, 66180, Note_on_c, 0, 66, 80
2, 66210, Note_on_c, 0, 66, 0
2, 66210, Note_on_c, 0, 67, 80
2, 66240, Note_on_c, 0, 67, 0
2, 66240, Note_on_c, 0, 72, 80
2, 66300, Note_on_c, 0, 72, 0
2, 66300, Note_on_c, 0, 67, 80
2, 66360, Note_on_c, 0, 67, 0
2, 66360, Note_on_c, 0, 68, 80
2, 66390, Note_on_c, 0, 68, 0
2, 66390, Note_on_c, 0, 67, 80
2, 66420, Note_on_c, 0, 67, 0
2, 66420, Note_on_c, 0, 66, 80
2, 66450, Note_on_c, 0, 66, 0
2, 66450, Note_on_c, 0, 67, 80
2, 66480, Note_on_c, 0, 67, 0
2, 66480, Note_on_c, 0, 74, 80
2, 66540, Note_on_c, 0, 74, 0
2, 66540, Note_on_c, 0, 67, 80
2, 66600, Note_on_c, 0, 67, 0
2, 66600, Note_on_c, 0, 68, 80
2, 66630, Note_on_c, 0, 68, 0
2, 66630, Note_on_c, 0, 67, 80
2, 66660, Note_on_c, 0, 67, 0
2, 66660, Note_on_c, 0, 66, 80
2, 66690, Note_on_c, 0, 66, 0
2, 66690, Note_on_c, 0, 67, 80
2, 66720, Note_on_c, 0, 67, 0
2, 66720, Note_on_c, 0, 75, 80
2, 66720, Note_on_c, 0, 79, 80
2, 67080, Note_on_c, 0, 79, 0
2, 67080, Note_on_c, 0, 75, 0
2, 67080, Note_on_c, 0, 74, 80
2, 67080, Note_on_c, 0, 77, 80
2, 67140, Note_on_c, 0, 77, 0
2, 67140, Note_on_c, 0, 74, 0
2, 67200, Note_on_c, 0, 77, 80
2, 67200, Note_on_c, 0, 80, 80
2, 67560, Note_on_c, 0, 80, 0
2, 67560, Note_on_c, 0, 77, 0
2, 67560, Note_on_c, 0, 75, 80
2, 67560, Note_on_c, 0, 79, 80
2, 67620, Note_on_c, 0, 79, 0
2, 67620, Note_on_c, 0, 75, 0
2, 67680, Note_on_c, 0, 68, 80
2, 67680, Note_on_c, 0, 77, 80
2, 67800, Note_on_c, 0, 77, 0
2, 67800, Note_on_c, 0, 68, 0
2, 67800, Note_on_c, 0, 67, 80
2, 67800, Note_on_c, 0, 75, 80
2, 67920, Note_on_c, 0, 75, 0
2, 67920, Note_on_c, 0, 67, 0
2, 67920, Note_on_c, 0, 65, 80
2, 67920, Note_on_c, 0, 74, 80
2, 68040, Note_on_c, 0, 74, 0
2, 68040, Note_on_c, 0, 65, 0
2, 68040, Note_on_c, 0, 63, 80
2, 68040, Note_on_c, 0, 72, 80
2, 68100, Note_on_c, 0, 72, 0
2, 68100, Note_on_c, 0, 63, 0
2, 68100, Note_on_c, 0, 71, 80
2, 68120, Note_on_c, 0, 71, 0
2, 68120, Note_on_c, 0, 72, 80
2, 68140, Note_on_c, 0, 72, 0
2, 68140, Note_on_c, 0, 74, 80
2, 68160, Note_on_c, 0, 74, 0
2, 68160, Note_on_c, 0, 63, 80
2, 68160, Note_on_c, 0, 72, 80
2, 68400, Note_on_c, 0, 72, 0
2, 68400, Note_on_c, 0, 63, 0
2, 68400, Note_on_c, 0, 62, 80
2, 68400, Note_on_c, 0, 71, 80
2, 68460, Note_on_c, 0, 71, 0
2, 68460, Note_on_c, 0, 62, 0
2, 68520, Note_on_c, 0, 68, 80
2, 68580, Note_on_c, 0, 68, 0
2, 68580, Note_on_c, 0, 67, 80
2, 68600, Note_on_c, 0, 67, 0
2, 68600, Note_on_c, 0, 68, 80
2, 68620, Note_on_c, 0, 68, 0
2, 68620, Note_on_c, 0, 70, 80
2, 68640, Note_on_c, 0, 70, 0
2, 68640, Note_on_c, 0, 68, 80
2, 68880, Note_on_c, 0, 68, 0
2, 68880, Note_on_c, 0, 67, 80
2, 68940, Note_on_c, 0, 67, 0
2, 69000, Note_on_c, 0, 72, 80
2, 69060, Note_on_c, 0, 72, 0
2, 69060, Note_on_c, 0, 71, 80
2, 69080, Note_on_c, 0, 71, 0
2, 69080, Note_on_c, 0, 72, 80
2, 69100, Note_on_c, 0, 72, 0
2, 69100, Note_on_c, 0, 74, 80
2, 69120, Note_on_c, 0, 74, 0
2, 69120, Note_on_c, 0, 72, 80
2, 69360, Note_on_c, 0, 72, 0
2, 69360, Note_on_c, 0, 71, 80
2, 69396, Note_on_c, 0, 71, 0
2, 69420, Note_on_c, 0, 80, 80
2, 69480, Note_on_c, 0, 80, 0
2, 69480, Note_on_c, 0, 79, 80
2, 69540, Note_on_c, 0, 79, 0
2, 69540, Note_on_c, 0, 77, 80
2, 69600, Note_on_c, 0, 77, 0
2, 69600, Note_on_c, 0, 77, 80
2, 69660, Note_on_c, 0, 77, 0
2, 69660, Note_on_c, 0, 75, 80
2, 69720, Note_on_c, 0, 75, 0
2, 69720, Note_on_c, 0, 74, 80
2, 69740, Note_on_c, 0, 74, 0
2, 69740, Note_on_c, 0, 75, 80
2, 69760, Note_on_c, 0, 75, 0
2, 69760, Note_on_c, 0, 74, 80
2, 69780, Note_on_c, 0, 74, 0
2, 69780, Note_on_c, 0, 72, 80
2, 69840, Note_on_c, 0, 72, 0
2, 69840, Note_on_c, 0, 71, 80
2, 69900, Note_on_c, 0, 71, 0
2, 69960, Note_on_c, 0, 72, 80
2, 70020, Note_on_c, 0, 72, 0
2, 70080, Note_on_c, 0, 75, 80
2, 70320, Note_on_c, 0, 75, 0
2, 70320, Note_on_c, 0, 74, 80
2, 70440, Note_on_c, 0, 74, 0
2, 70680, Note_on_c, 0, 67, 80
2, 70800, Note_on_c, 0, 67, 0
2, 70800, Note_on_c, 0, 79, 80
2, 70920, Note_on_c, 0, 79, 0
2, 71160, Note_on_c, 0, 68, 80
2, 71280, Note_on_c, 0, 68, 0
2, 71280, Note_on_c, 0, 80, 80
2, 71400, Note_on_c, 0, 80, 0
2, 71640, Note_on_c, 0, 71, 80
2, 71760, Note_on_c, 0, 71, 0
2, 71760, Note_on_c, 0, 83, 80
2, 71880, Note_on_c, 0, 83, 0
2, 72120, Note_on_c, 0, 72, 80
2, 72240, Note_on_c, 0, 72, 0
2, 72240, Note_on_c, 0, 84, 80
2, 72360, Note_on_c, 0, 84, 0
2, 72600, Note_on_c, 0, 73, 89
2, 72720, Note_on_c, 0, 85, 90
2, 72840, Note_on_c, 0, 85, 0
2, 72840, Note_on_c, 0, 73, 0
2, 72840, Note_on_c, 0, 86, 91
2, 72840, Note_on_c, 0, 74, 91
2, 72900, Note_on_c, 0, 74, 0
2, 72900, Note_on_c, 0, 86, 0
2, 72960, Note_on_c, 0, 71, 92
2, 72960, Note_on_c, 0, 83, 92
2, 73080, Note_on_c, 0, 83, 0
2, 73080, Note_on_c, 0, 71, 0
2, 73080, Note_on_c, 0, 72, 93
2, 73080, Note_on_c, 0, 84, 93
2, 73140, Note_on_c, 0, 84, 0
2, 73140, Note_on_c, 0, 72, 0
2, 73200, Note_on_c, 0, 69, 94
2, 73200, Note_on_c, 0, 81, 94
2, 73320, Note_on_c, 0, 81, 0
2, 73320, Note_on_c, 0, 69, 0
2, 73320, Note_on_c, 0, 70, 95
2, 73320, Note_on_c, 0, 82, 95
2, 73380, Note_on_c, 0, 82, 0
2, 73380, Note_on_c, 0, 70, 0
2, 74040, Note_on_c, 0, 68, 56
2, 74040, Note_on_c, 0, 80, 56
2, 74160, Note_on_c, 0, 80, 0
2, 74160, Note_on_c, 0, 68, 0
2, 74160, Note_on_c, 0, 67, 56
2, 74160, Note_on_c, 0, 79, 56
2, 74280, Note_on_c, 0, 79, 0
2, 74280, Note_on_c, 0, 67, 0
2, 74280, Note_on_c, 0, 66, 56
2, 74280, Note_on_c, 0, 78, 56
2, 74340, Note_on_c, 0, 78, 0
2, 74340, Note_on_c, 0, 66, 0
2, 74400, Note_on_c, 0, 66, 56
2, 74400, Note_on_c, 0, 78, 56
2, 74880, Note_on_c, 0, 78, 0
2, 74880, Note_on_c, 0, 66, 0
2, 74880, Note_on_c, 0, 67, 56
2, 74880, Note_on_c, 0, 79, 56
2, 74940, Note_on_c, 0, 79, 0
2, 74940, Note_on_c, 0, 67, 0
2, 75000, Note_on_c, 0, 67, 80
2, 75120, Note_on_c, 0, 67, 0
2, 75120, Note_on_c, 0, 71, 80
2, 75240, Note_on_c, 0, 71, 0
2, 75240, Note_on_c, 0, 74, 80
2, 75360, Note_on_c, 0, 74, 0
2, 75360, Note_on_c, 0, 74, 80
2, 75360, Note_on_c, 0, 77, 80
2, 75960, Note_on_c, 0, 77, 0
2, 75960, Note_on_c, 0, 74, 0
2, 75960, Note_on_c, 0, 74, 80
2, 75960, Note_on_c, 0, 77, 80
2, 76032, Note_on_c, 0, 77, 0
2, 76032, Note_on_c, 0, 74, 0
2, 76080, Note_on_c, 0, 75, 80
2, 76080, Note_on_c, 0, 79, 80
2, 76140, Note_on_c, 0, 79, 0
2, 76140, Note_on_c, 0, 75, 0
2, 76140, Note_on_c, 0, 74, 80
2, 76140, Note_on_c, 0, 77, 80
2, 76176, Note_on_c, 0, 77, 0
2, 76176, Note_on_c, 0, 74, 0
2, 76200, Note_on_c, 0, 72, 80
2, 76200, Note_on_c, 0, 75, 80
2, 76236, Note_on_c, 0, 75, 0
2, 76236, Note_on_c, 0, 72, 0
2, 76260, Note_on_c, 0, 71, 80
2, 76260, Note_on_c, 0, 74, 80
2, 76296, Note_on_c, 0, 74, 0
2, 76296, Note_on_c, 0, 71, 0
2, 76320, Note_on_c, 0, 71, 80
2, 76320, Note_on_c, 0, 74, 80
2, 76560, Note_on_c, 0, 74, 0
2, 76560, Note_on_c, 0, 71, 0
2, 76560, Note_on_c, 0, 72, 80
2, 76560, Note_on_c, 0, 75, 80
2, 76920, Note_on_c, 0, 75, 0
2, 76920, Note_on_c, 0, 72, 0
2, 76920, Note_on_c, 0, 75, 80
2, 76920, Note_on_c, 0, 79, 80
2, 76992, Note_on_c, 0, 79, 0
2, 76992, Note_on_c, 0, 75, 0
2, 77040, Note_on_c, 0, 77, 80
2, 77040, Note_on_c, 0, 80, 80
2, 77100, Note_on_c, 0, 80, 0
2, 77100, Note_on_c, 0, 77, 0
2, 77100, Note_on_c, 0, 75, 80
2, 77100, Note_on_c, 0, 79, 80
2, 77130, Note_on_c, 0, 79, 0
2, 77130, Note_on_c, 0, 75, 0
2, 77160, Note_on_c, 0, 74, 80
2, 77160, Note_on_c, 0, 77, 80
2, 77190, Note_on_c, 0, 77, 0
2, 77190, Note_on_c, 0, 74, 0
2, 77220, Note_on_c, 0, 72, 80
2, 77220, Note_on_c, 0, 75, 80
2, 77250, Note_on_c, 0, 75, 0
2, 77250, Note_on_c, 0, 72, 0
2, 77280, Note_on_c, 0, 76, 80
2, 77280, Note_on_c, 0, 73, 80
2, 77520, Note_on_c, 0, 73, 0
2, 77520, Note_on_c, 0, 76, 0
2, 77520, Note_on_c, 0, 77, 80
2, 77520, Note_on_c, 0, 74, 80
2, 77880, Note_on_c, 0, 74, 0
2, 77880, Note_on_c, 0, 77, 0
2, 77880, Note_on_c, 0, 77, 80
2, 77880, Note_on_c, 0, 74, 80
2, 77940, Note_on_c, 0, 74, 0
2, 77940, Note_on_c, 0, 77, 0
2, 78000, Note_on_c, 0, 75, 80
2, 78000, Note_on_c, 0, 79, 80
2, 78060, Note_on_c, 0, 79, 0
2, 78060, Note_on_c, 0, 75, 0
2, 78060, Note_on_c, 0, 74, 80
2, 78060, Note_on_c, 0, 77, 80
2, 78090, Note_on_c, 0, 77, 0
2, 78090, Note_on_c, 0, 74, 0
2, 78120, Note_on_c, 0, 72, 80
2, 78120, Note_on_c, 0, 75, 80
2, 78150, Note_on_c, 0, 75, 0
2, 78150, Note_on_c, 0, 72, 0
2, 78180, Note_on_c, 0, 71, 80
2, 78180, Note_on_c, 0, 74, 80
2, 78210, Note_on_c, 0, 74, 0
2, 78210, Note_on_c, 0, 71, 0
2, 78240, Note_on_c, 0, 72, 64
2, 78240, Note_on_c, 0, 75, 64
2, 78480, Note_on_c, 0, 75, 0
2, 78480, Note_on_c, 0, 72, 0
2, 78480, Note_on_c, 0, 73, 68
2, 78480, Note_on_c, 0, 76, 68
2, 78720, Note_on_c, 0, 76, 0
2, 78720, Note_on_c, 0, 73, 0
2, 78720, Note_on_c, 0, 72, 72
2, 78720, Note_on_c, 0, 77, 72
2, 78960, Note_on_c, 0, 77, 0
2, 78960, Note_on_c, 0, 72, 0
2, 78960, Note_on_c, 0, 72, 76
2, 78960, Note_on_c, 0, 78, 76
2, 79200, Note_on_c, 0, 78, 0
2, 79200, Note_on_c, 0, 72, 0
2, 79320, Note_on_c, 0, 71, 80
2, 79380, Note_on_c, 0, 71, 0
2, 79380, Note_on_c, 0, 79, 80
2, 79440, Note_on_c, 0, 79, 0
2, 79440, Note_on_c, 0, 77, 80
2, 79500, Note_on_c, 0, 77, 0
2, 79500, Note_on_c, 0, 75, 80
2, 79560, Note_on_c, 0, 75, 0
2, 79560, Note_on_c, 0, 74, 80
2, 79620, Note_on_c, 0, 74, 0
2, 79620, Note_on_c, 0, 72, 80
2, 79680, Note_on_c, 0, 72, 0
2, 79680, Note_on_c, 0, 71, 80
2, 79740, Note_on_c, 0, 71, 0
2, 79740, Note_on_c, 0, 68, 80
2, 79800, Note_on_c, 0, 68, 0
2, 79800, Note_on_c, 0, 67, 80
2, 79860, Note_on_c, 0, 67, 0
2, 79860, Note_on_c, 0, 65, 80
2, 79920, Note_on_c, 0, 65, 0
2, 79920, Note_on_c, 0, 63, 80
2, 79980, Note_on_c, 0, 63, 0
2, 79980, Note_on_c, 0, 62, 80
2, 80040, Note_on_c, 0, 62, 0
2, 80040, Note_on_c, 0, 60, 80
2, 80100, Note_on_c, 0, 60, 0
2, 80100, Note_on_c, 0, 59, 80
2, 80160, Note_on_c, 0, 59, 0
2, 80340, Note_on_c, 0, 80, 80
2, 80400, Note_on_c, 0, 80, 0
2, 80400, Note_on_c, 0, 79, 80
2, 80460, Note_on_c, 0, 79, 0
2, 80460, Note_on_c, 0, 77, 80
2, 80520, Note_on_c, 0, 77, 0
2, 80520, Note_on_c, 0, 75, 80
2, 80580, Note_on_c, 0, 75, 0
2, 80580, Note_on_c, 0, 74, 80
2, 80640, Note_on_c, 0, 74, 0
2, 80640, Note_on_c, 0, 73, 56
2, 80700, Note_on_c, 0, 73, 0
2, 80700, Note_on_c, 0, 74, 56
2, 80760, Note_on_c, 0, 74, 0
2, 80760, Note_on_c, 0, 75, 56
2, 80820, Note_on_c, 0, 75, 0
2, 80820, Note_on_c, 0, 74, 56
2, 80880, Note_on_c, 0, 74, 0
2, 80880, Note_on_c, 0, 77, 56
2, 80940, Note_on_c, 0, 77, 0
2, 80940, Note_on_c, 0, 75, 56
2, 81000, Note_on_c, 0, 75, 0
2, 81000, Note_on_c, 0, 79, 56
2, 81060, Note_on_c, 0, 79, 0
2, 81060, Note_on_c, 0, 77, 56
2, 81120, Note_on_c, 0, 77, 0
2, 81120, Note_on_c, 0, 80, 56
2, 81180, Note_on_c, 0, 80, 0
2, 81180, Note_on_c, 0, 79, 56
2, 81240, Note_on_c, 0, 79, 0
2, 81240, Note_on_c, 0, 82, 56
2, 81300, Note_on_c, 0, 82, 0
2, 81300, Note_on_c, 0, 80, 56
2, 81360, Note_on_c, 0, 80, 0
2, 81360, Note_on_c, 0, 79, 56
2, 81420, Note_on_c, 0, 79, 0
2, 81420, Note_on_c, 0, 77, 56
2, 81480, Note_on_c, 0, 77, 0
2, 81480, Note_on_c, 0, 75, 56
2, 81540, Note_on_c, 0, 75, 0
2, 81540, Note_on_c, 0, 74, 56
2, 81600, Note_on_c, 0, 74, 0
2, 81600, Note_on_c, 0, 73, 56
2, 81660, Note_on_c, 0, 73, 0
2, 81660, Note_on_c, 0, 74, 56
2, 81720, Note_on_c, 0, 74, 0
2, 81720, Note_on_c, 0, 75, 56
2, 81780, Note_on_c, 0, 75, 0
2, 81780, Note_on_c, 0, 74, 56
2, 81840, Note_on_c, 0, 74, 0
2, 81840, Note_on_c, 0, 77, 56
2, 81900, Note_on_c, 0, 77, 0
2, 81900, Note_on_c, 0, 75, 56
2, 81960, Note_on_c, 0, 75, 0
2, 81960, Note_on_c, 0, 74, 56
2, 82020, Note_on_c, 0, 74, 0
2, 82020, Note_on_c, 0, 72, 56
2, 82080, Note_on_c, 0, 72, 0
2, 82080, Note_on_c, 0, 72, 56
2, 82600, Note_on_c, 0, 72, 0
2, 82600, Note_on_c, 0, 71, 80
2, 82640, Note_on_c, 0, 71, 0
2, 82640, Note_on_c, 0, 72, 80
2, 82680, Note_on_c, 0, 72, 0
2, 82680, Note_on_c, 0, 74, 80
2, 82720, Note_on_c, 0, 74, 0
2, 82720, Note_on_c, 0, 72, 80
2, 82760, Note_on_c, 0, 72, 0
2, 82760, Note_on_c, 0, 71, 80
2, 82800, Note_on_c, 0, 71, 0
2, 82800, Note_on_c, 0, 77, 80
2, 82840, Note_on_c, 0, 77, 0
2, 82840, Note_on_c, 0, 75, 80
2, 82880, Note_on_c, 0, 75, 0
2, 82880, Note_on_c, 0, 74, 80
2, 82920, Note_on_c, 0, 74, 0
2, 82920, Note_on_c, 0, 80, 80
2, 82960, Note_on_c, 0, 80, 0
2, 82960, Note_on_c, 0, 77, 80
2, 83000, Note_on_c, 0, 77, 0
2, 83000, Note_on_c, 0, 74, 80
2, 83040, Note_on_c, 0, 74, 0
2, 83040, Note_on_c, 0, 72, 80
2, 83560, Note_on_c, 0, 72, 0
2, 83560, Note_on_c, 0, 71, 56
2, 83600, Note_on_c, 0, 71, 0
2, 83600, Note_on_c, 0, 72, 56
2, 83640, Note_on_c, 0, 72, 0
2, 83640, Note_on_c, 0, 74, 56
2, 83680, Note_on_c, 0, 74, 0
2, 83680, Note_on_c, 0, 72, 56
2, 83720, Note_on_c, 0, 72, 0
2, 83720, Note_on_c, 0, 71, 56
2, 83760, Note_on_c, 0, 71, 0
2, 83760, Note_on_c, 0, 77, 56
2, 83800, Note_on_c, 0, 77, 0
2, 83800, Note_on_c, 0, 75, 56
2, 83840, Note_on_c, 0, 75, 0
2, 83840, Note_on_c, 0, 74, 56
2, 83880, Note_on_c, 0, 74, 0
2, 83880, Note_on_c, 0, 80, 56
2, 83920, Note_on_c, 0, 80, 0
2, 83920, Note_on_c, 0, 77, 56
2, 83960, Note_on_c, 0, 77, 0
2, 83960, Note_on_c, 0, 74, 56
2, 84000, Note_on_c, 0, 74, 0
2, 84000, Note_on_c, 0, 72, 56
2, 84520, Note_on_c, 0, 72, 0
2, 84520, Note_on_c, 0, 71, 56
2, 84560, Note_on_c, 0, 71, 0
2, 84560, Note_on_c, 0, 72, 56
2, 84600, Note_on_c, 0, 72, 0
2, 84600, Note_on_c, 0, 74, 56
2, 84640, Note_on_c, 0, 74, 0
2, 84640, Note_on_c, 0, 72, 56
2, 84680, Note_on_c, 0, 72, 0
2, 84680, Note_on_c, 0, 71, 56
2, 84720, Note_on_c, 0, 71, 0
2, 84720, Note_on_c, 0, 77, 56
2, 84800, Note_on_c, 0, 77, 0
2, 84800, Note_on_c, 0, 75, 56
2, 84880, Note_on_c, 0, 75, 0
2, 84880, Note_on_c, 0, 74, 56
2, 84960, Note_on_c, 0, 74, 0
2, 84960, Note_on_c, 0, 80, 56
2, 85320, Note_on_c, 0, 80, 0
2, 85320, Note_on_c, 0, 79, 50
2, 85440, Note_on_c, 0, 79, 0
2, 85440, Note_on_c, 0, 77, 48
2, 85560, Note_on_c, 0, 77, 0
2, 85560, Note_on_c, 0, 75, 47
2, 85632, Note_on_c, 0, 75, 0
2, 85680, Note_on_c, 0, 74, 46
2, 85800, Note_on_c, 0, 74, 0
2, 85800, Note_on_c, 0, 72, 45
2, 85872, Note_on_c, 0, 72, 0
2, 85920, Note_on_c, 0, 72, 44
2, 86280, Note_on_c, 0, 72, 0
2, 86280, Note_on_c, 0, 71, 41
2, 86400, Note_on_c, 0, 80, 40
2, 86760, Note_on_c, 0, 71, 0
2, 86760, Note_on_c, 0, 71, 37
2, 86880, Note_on_c, 0, 80, 0
2, 86880, Note_on_c, 0, 80, 36
2, 87840, Note_on_c, 0, 80, 0
2, 87840, Note_on_c, 0, 71, 0
2, 87960, Note_on_c, 0, 84, 80
2, 87990, Note_on_c, 0, 84, 0
2, 87990, Note_on_c, 0, 79, 80
2, 88044, Note_on_c, 0, 79, 0
2, 88080, Note_on_c, 0, 79, 80
2, 88110, Note_on_c, 0, 79, 0
2, 88110, Note_on_c, 0, 75, 80
2, 88200, Note_on_c, 0, 75, 0
2, 88200, Note_on_c, 0, 75, 80
2, 88230, Note_on_c, 0, 75, 0
2, 88230, Note_on_c, 0, 72, 80
2, 88320, Note_on_c, 0, 72, 0
2, 88440, Note_on_c, 0, 84, 80
2, 88470, Note_on_c, 0, 84, 0
2, 88470, Note_on_c, 0, 80, 80
2, 88524, Note_on_c, 0, 80, 0
2, 88560, Note_on_c, 0, 80, 80
2, 88590, Note_on_c, 0, 80, 0
2, 88590, Note_on_c, 0, 77, 80
2, 88680, Note_on_c, 0, 77, 0
2, 88680, Note_on_c, 0, 77, 80
2, 88710, Note_on_c, 0, 77, 0
2, 88710, Note_on_c, 0, 74, 80
2, 88773, Note_on_c, 0, 74, 0
2, 88800, Note_on_c, 0, 72, 56
2, 89100, Note_on_c, 0, 72, 0
2, 89100, Note_on_c, 0, 71, 56
2, 89160, Note_on_c, 0, 71, 0
2, 89160, Note_on_c, 0, 77, 56
2, 89200, Note_on_c, 0, 77, 0
2, 89200, Note_on_c, 0, 74, 56
2, 89240, Note_on_c, 0, 74, 0
2, 89240, Note_on_c, 0, 71, 56
2, 89280, Note_on_c, 0, 71, 0
2, 89280, Note_on_c, 0, 79, 80
2, 89560, Note_on_c, 0, 79, 0
2, 89560, Note_on_c, 0, 75, 80
2, 89600, Note_on_c, 0, 75, 0
2, 89600, Note_on_c, 0, 72, 80
2, 89640, Note_on_c, 0, 72, 0
2, 89640, Note_on_c, 0, 77, 80
2, 89680, Note_on_c, 0, 77, 0
2, 89680, Note_on_c, 0, 74, 80
2, 89720, Note_on_c, 0, 74, 0
2, 89720, Note_on_c, 0, 71, 80
2, 89760, Note_on_c, 0, 71, 0
2, 89760, Note_on_c, 0, 79, 56
2, 90040, Note_on_c, 0, 79, 0
2, 90040, Note_on_c, 0, 75, 56
2, 90080, Note_on_c, 0, 75, 0
2, 90080, Note_on_c, 0, 72, 56
2, 90120, Note_on_c, 0, 72, 0
2, 90120, Note_on_c, 0, 77, 56
2, 90160, Note_on_c, 0, 77, 0
2, 90160, Note_on_c, 0, 74, 56
2, 90200, Note_on_c, 0, 74, 0
2, 90200, Note_on_c, 0, 71, 56
2, 90240, Note_on_c, 0, 71, 0
2, 90240, Note_on_c, 0, 79, 80
2, 90520, Note_on_c, 0, 79, 0
2, 90520, Note_on_c, 0, 75, 85
2, 90560, Note_on_c, 0, 75, 0
2, 90560, Note_on_c, 0, 72, 85
2, 90600, Note_on_c, 0, 72, 0
2, 90600, Note_on_c, 0, 80, 86
2, 90640, Note_on_c, 0, 80, 0
2, 90640, Note_on_c, 0, 77, 87
2, 90680, Note_on_c, 0, 77, 0
2, 90680, Note_on_c, 0, 74, 87
2, 90720, Note_on_c, 0, 74, 0
2, 90720, Note_on_c, 0, 83, 88
2, 90760, Note_on_c, 0, 83, 0
2, 90760, Note_on_c, 0, 77, 89
2, 90800, Note_on_c, 0, 77, 0
2, 90800, Note_on_c, 0, 74, 89
2, 90840, Note_on_c, 0, 74, 0
2, 90840, Note_on_c, 0, 84, 90
2, 90880, Note_on_c, 0, 84, 0
2, 90880, Note_on_c, 0, 79, 91
2, 90920, Note_on_c, 0, 79, 0
2, 90920, Note_on_c, 0, 75, 91
2, 90960, Note_on_c, 0, 75, 0
2, 90960, Note_on_c, 0, 86, 92
2, 91000, Note_on_c, 0, 86, 0
2, 91000, Note_on_c, 0, 83, 93
2, 91040, Note_on_c, 0, 83, 0
2, 91040, Note_on_c, 0, 79, 93
2, 91080, Note_on_c, 0, 79, 0
2, 91080, Note_on_c, 0, 87, 94
2, 91120, Note_on_c, 0, 87, 0
2, 91120, Note_on_c, 0, 84, 95
2, 91160, Note_on_c, 0, 84, 0
2, 91160, Note_on_c, 0, 79, 95
2, 91200, Note_on_c, 0, 79, 0
2, 91200, Note_on_c, 0, 89, 96
2, 91440, Note_on_c, 0, 89, 0
2, 92040, Note_on_c, 0, 77, 56
2, 92070, Note_on_c, 0, 77, 0
2, 92070, Note_on_c, 0, 75, 56
2, 92100, Note_on_c, 0, 75, 0
2, 92100, Note_on_c, 0, 74, 56
2, 92130, Note_on_c, 0, 74, 0
2, 92130, Note_on_c, 0, 72, 56
2, 92160, Note_on_c, 0, 72, 0
2, 92160, Note_on_c, 0, 71, 56
2, 92232, Note_on_c, 0, 71, 0
2, 92520, Note_on_c, 0, 82, 56
2, 92550, Note_on_c, 0, 82, 0
2, 92550, Note_on_c, 0, 80, 56
2, 92580, Note_on_c, 0, 80, 0
2, 92580, Note_on_c, 0, 79, 56
2, 92610, Note_on_c, 0, 79, 0
2, 92610, Note_on_c, 0, 77, 56
2, 92640, Note_on_c, 0, 77, 0
2, 92640, Note_on_c, 0, 75, 56
2, 92760, Note_on_c, 0, 75, 0
2, 93000, Note_on_c, 0, 77, 56
2, 93030, Note_on_c, 0, 77, 0
2, 93030, Note_on_c, 0, 75, 56
2, 93060, Note_on_c, 0, 75, 0
2, 93060, Note_on_c, 0, 74, 56
2, 93090, Note_on_c, 0, 74, 0
2, 93090, Note_on_c, 0, 72, 56
2, 93120, Note_on_c, 0, 72, 0
2, 93120, Note_on_c, 0, 71, 56
2, 93192, Note_on_c, 0, 71, 0
2, 93480, Note_on_c, 0, 82, 65
2, 93510, Note_on_c, 0, 82, 0
2, 93510, Note_on_c, 0, 80, 66
2, 93540, Note_on_c, 0, 80, 0
2, 93540, Note_on_c, 0, 79, 67
2, 93570, Note_on_c, 0, 79, 0
2, 93570, Note_on_c, 0, 77, 67
2, 93600, Note_on_c, 0, 77, 0
2, 93600, Note_on_c, 0, 75, 68
2, 93720, Note_on_c, 0, 75, 0
2, 93720, Note_on_c, 0, 77, 71
2, 93750, Note_on_c, 0, 77, 0
2, 93750, Note_on_c, 0, 75, 72
2, 93780, Note_on_c, 0, 75, 0
2, 93780, Note_on_c, 0, 74, 73
2, 93810, Note_on_c, 0, 74, 0
2, 93810, Note_on_c, 0, 72, 73
2, 93840, Note_on_c, 0, 72, 0
2, 93840, Note_on_c, 0, 71, 74
2, 93912, Note_on_c, 0, 71, 0
2, 93960, Note_on_c, 0, 82, 77
2, 93990, Note_on_c, 0, 82, 0
2, 93990, Note_on_c, 0, 80, 78
2, 94020, Note_on_c, 0, 80, 0
2, 94020, Note_on_c, 0, 79, 79
2, 94050, Note_on_c, 0, 79, 0
2, 94050, Note_on_c, 0, 77, 79
2, 94080, Note_on_c, 0, 77, 0
2, 94080, Note_on_c, 0, 75, 80
2, 94200, Note_on_c, 0, 75, 0
2, 94200, Note_on_c, 0, 77, 80
2, 94230, Note_on_c, 0, 77, 0
2, 94230, Note_on_c, 0, 75, 80
2, 94260, Note_on_c, 0, 75, 0
2, 94260, Note_on_c, 0, 74, 80
2, 94290, Note_on_c, 0, 74, 0
2, 94290, Note_on_c, 0, 72, 80
2, 94320, Note_on_c, 0, 72, 0
2, 94320, Note_on_c, 0, 71, 80
2, 94392, Note_on_c, 0, 71, 0
2, 94440, Note_on_c, 0, 82, 80
2, 94470, Note_on_c, 0, 82, 0
2, 94470, Note_on_c, 0, 80, 80
2, 94500, Note_on_c, 0, 80, 0
2, 94500, Note_on_c, 0, 79, 80
2, 94530, Note_on_c, 0, 79, 0
2, 94530, Note_on_c, 0, 77, 80
2, 94560, Note_on_c, 0, 77, 0
2, 94560, Note_on_c, 0, 75, 80
2, 94680, Note_on_c, 0, 75, 0
2, 94680, Note_on_c, 0, 89, 80
2, 94720, Note_on_c, 0, 89, 0
2, 94720, Note_on_c, 0, 87, 80
2, 94760, Note_on_c, 0, 87, 0
2, 94760, Note_on_c, 0, 86, 80
2, 94800, Note_on_c, 0, 86, 0
2, 94800, Note_on_c, 0, 84, 80
2, 94840, Note_on_c, 0, 84, 0
2, 94840, Note_on_c, 0, 82, 80
2, 94880, Note_on_c, 0, 82, 0
2, 94880, Note_on_c, 0, 80, 80
2, 94920, Note_on_c, 0, 80, 0
2, 94920, Note_on_c, 0, 79, 80
2, 94960, Note_on_c, 0, 79, 0
2, 94960, Note_on_c, 0, 77, 80
2, 95000, Note_on_c, 0, 77, 0
2, 95000, Note_on_c, 0, 75, 80
2, 95040, Note_on_c, 0, 75, 0
2, 95040, Note_on_c, 0, 74, 80
2, 95160, Note_on_c, 0, 74, 0
2, 95220, Note_on_c, 0, 73, 80
2, 95280, Note_on_c, 0, 73, 0
2, 95280, Note_on_c, 0, 74, 80
2, 95340, Note_on_c, 0, 74, 0
2, 95340, Note_on_c, 0, 75, 80
2, 95400, Note_on_c, 0, 75, 0
2, 95400, Note_on_c, 0, 76, 80
2, 95460, Note_on_c, 0, 76, 0
2, 95460, Note_on_c, 0, 77, 80
2, 95520, Note_on_c, 0, 77, 0
2, 95520, Note_on_c, 0, 78, 80
2, 95580, Note_on_c, 0, 78, 0
2, 95580, Note_on_c, 0, 79, 80
2, 95640, Note_on_c, 0, 79, 0
2, 95640, Note_on_c, 0, 82, 80
2, 95700, Note_on_c, 0, 82, 0
2, 95700, Note_on_c, 0, 80, 80
2, 95760, Note_on_c, 0, 80, 0
2, 95760, Note_on_c, 0, 79, 80
2, 95820, Note_on_c, 0, 79, 0
2, 95820, Note_on_c, 0, 77, 80
2, 95880, Note_on_c, 0, 77, 0
2, 95880, Note_on_c, 0, 75, 80
2, 95940, Note_on_c, 0, 75, 0
2, 95940, Note_on_c, 0, 74, 80
2, 96000, Note_on_c, 0, 74, 0
2, 96000, Note_on_c, 0, 72, 80
2, 96300, Note_on_c, 0, 72, 0
2, 96300, Note_on_c, 0, 71, 80
2, 96360, Note_on_c, 0, 71, 0
2, 96360, Note_on_c, 0, 77, 80
2, 96400, Note_on_c, 0, 77, 0
2, 96400, Note_on_c, 0, 74, 80
2, 96440, Note_on_c, 0, 74, 0
2, 96440, Note_on_c, 0, 71, 80
2, 96480, Note_on_c, 0, 71, 0
2, 96480, Note_on_c, 0, 72, 80
2, 96600, Note_on_c, 0, 72, 0
2, 96720, Note_on_c, 0, 75, 80
2, 96720, Note_on_c, 0, 79, 80
2, 96900, Note_on_c, 0, 79, 0
2, 96900, Note_on_c, 0, 75, 0
2, 96900, Note_on_c, 0, 77, 80
2, 96900, Note_on_c, 0, 80, 80
2, 96960, Note_on_c, 0, 80, 0
2, 96960, Note_on_c, 0, 77, 0
2, 96960, Note_on_c, 0, 75, 80
2, 96960, Note_on_c, 0, 79, 80
2, 97032, Note_on_c, 0, 79, 0
2, 97032, Note_on_c, 0, 75, 0
2, 97200, Note_on_c, 0, 67, 74
2, 97200, Note_on_c, 0, 75, 74
2, 97320, Note_on_c, 0, 75, 0
2, 97320, Note_on_c, 0, 67, 0
2, 97320, Note_on_c, 0, 65, 71
2, 97320, Note_on_c, 0, 71, 71
2, 97440, Note_on_c, 0, 71, 0
2, 97440, Note_on_c, 0, 65, 0
2, 97440, Note_on_c, 0, 63, 68
2, 97440, Note_on_c, 0, 72, 68
2, 97560, Note_on_c, 0, 72, 0
2, 97560, Note_on_c, 0, 63, 0
2, 97680, Note_on_c, 0, 63, 62
2, 97680, Note_on_c, 0, 67, 62
2, 97860, Note_on_c, 0, 67, 0
2, 97860, Note_on_c, 0, 63, 0
2, 97860, Note_on_c, 0, 65, 57
2, 97860, Note_on_c, 0, 68, 57
2, 97920, Note_on_c, 0, 68, 0
2, 97920, Note_on_c, 0, 65, 0
2, 97920, Note_on_c, 0, 63, 56
2, 97920, Note_on_c, 0, 67, 56
2, 97992, Note_on_c, 0, 67, 0
2, 97992, Note_on_c, 0, 63, 0
2, 98160, Note_on_c, 0, 55, 50
2, 98160, Note_on_c, 0, 63, 50
2, 98280, Note_on_c, 0, 63, 0
2, 98280, Note_on_c, 0, 55, 0
2, 98280, Note_on_c, 0, 53, 47
2, 98280, Note_on_c, 0, 59, 47
2, 98400, Note_on_c, 0, 59, 0
2, 98400, Note_on_c, 0, 53, 0
2, 98400, Note_on_c, 0, 51, 44
2, 98400, Note_on_c, 0, 60, 44
2, 98640, Note_on_c, 0, 60, 0
2, 98640, Note_on_c, 0, 51, 0
2, 98640, End_track
3, 0, Start_track
3, 0, MIDI_port, 0
3, 0, Title_t, "by FJ Haydn  (1st mvmt - Allegro Moderato)"
3, 0, Program_c, 1, 0
3, 0, Control_c, 1, 7, 127
3, 0, Control_c, 1, 10, 56
3, 120, Note_on_c, 1, 48, 80
3, 240, Note_on_c, 1, 48, 0
3, 240, Note_on_c, 1, 60, 80
3, 360, Note_on_c, 1, 60, 0
3, 600, Note_on_c, 1, 48, 80
3, 720, Note_on_c, 1, 48, 0
3, 720, Note_on_c, 1, 60, 80
3, 840, Note_on_c, 1, 60, 0
3, 1080, Note_on_c, 1, 48, 80
3, 1200, Note_on_c, 1, 48, 0
3, 1200, Note_on_c, 1, 53, 80
3, 1320, Note_on_c, 1, 53, 0
3, 1320, Note_on_c, 1, 54, 80
3, 1440, Note_on_c, 1, 54, 0
3, 1440, Note_on_c, 1, 55, 80
3, 1680, Note_on_c, 1, 55, 0
3, 1680, Note_on_c, 1, 43, 80
3, 1740, Note_on_c, 1, 43, 0
3, 1800, Note_on_c, 1, 60, 80
3, 1800, Note_on_c, 1, 63, 80
3, 1920, Note_on_c, 1, 63, 0
3, 1920, Note_on_c, 1, 60, 0
3, 1920, Note_on_c, 1, 59, 80
3, 1920, Note_on_c, 1, 62, 80
3, 2280, Note_on_c, 1, 62, 0
3, 2280, Note_on_c, 1, 59, 0
3, 2280, Note_on_c, 1, 63, 80
3, 2280, Note_on_c, 1, 67, 80
3, 2340, Note_on_c, 1, 67, 0
3, 2340, Note_on_c, 1, 63, 0
3, 2400, Note_on_c, 1, 62, 80
3, 2400, Note_on_c, 1, 65, 80
3, 2760, Note_on_c, 1, 65, 0
3, 2760, Note_on_c, 1, 62, 0
3, 2760, Note_on_c, 1, 59, 80
3, 2760, Note_on_c, 1, 67, 80
3, 2880, Note_on_c, 1, 59, 0
3, 2880, Note_on_c, 1, 60, 80
3, 3000, Note_on_c, 1, 60, 0
3, 3000, Note_on_c, 1, 63, 80
3, 3120, Note_on_c, 1, 63, 0
3, 3120, Note_on_c, 1, 67, 0
3, 3120, Note_on_c, 1, 62, 80
3, 3120, Note_on_c, 1, 65, 80
3, 3168, Note_on_c, 1, 65, 0
3, 3168, Note_on_c, 1, 62, 0
3, 3240, Note_on_c, 1, 60, 80
3, 3240, Note_on_c, 1, 63, 80
3, 3288, Note_on_c, 1, 63, 0
3, 3288, Note_on_c, 1, 60, 0
3, 3360, Note_on_c, 1, 55, 80
3, 3360, Note_on_c, 1, 60, 80
3, 3600, Note_on_c, 1, 60, 0
3, 3600, Note_on_c, 1, 55, 0
3, 3600, Note_on_c, 1, 59, 80
3, 3684, Note_on_c, 1, 59, 0
3, 3960, Note_on_c, 1, 36, 56
3, 4080, Note_on_c, 1, 36, 0
3, 4080, Note_on_c, 1, 48, 56
3, 4200, Note_on_c, 1, 48, 0
3, 4440, Note_on_c, 1, 36, 56
3, 4560, Note_on_c, 1, 36, 0
3, 4560, Note_on_c, 1, 48, 56
3, 4680, Note_on_c, 1, 48, 0
3, 4920, Note_on_c, 1, 63, 56
3, 4920, Note_on_c, 1, 67, 56
3, 5040, Note_on_c, 1, 67, 0
3, 5040, Note_on_c, 1, 63, 0
3, 5040, Note_on_c, 1, 62, 56
3, 5040, Note_on_c, 1, 65, 56
3, 5160, Note_on_c, 1, 65, 0
3, 5160, Note_on_c, 1, 62, 0
3, 5160, Note_on_c, 1, 65, 56
3, 5160, Note_on_c, 1, 68, 56
3, 5280, Note_on_c, 1, 68, 0
3, 5280, Note_on_c, 1, 65, 0
3, 5280, Note_on_c, 1, 63, 56
3, 5280, Note_on_c, 1, 67, 56
3, 5340, Note_on_c, 1, 67, 0
3, 5340, Note_on_c, 1, 63, 0
3, 5880, Note_on_c, 1, 65, 56
3, 5880, Note_on_c, 1, 72, 56
3, 6000, Note_on_c, 1, 72, 0
3, 6000, Note_on_c, 1, 65, 0
3, 6120, Note_on_c, 1, 63, 56
3, 6120, Note_on_c, 1, 72, 56
3, 6240, Note_on_c, 1, 72, 0
3, 6240, Note_on_c, 1, 63, 0
3, 6360, Note_on_c, 1, 62, 56
3, 6360, Note_on_c, 1, 71, 56
3, 6480, Note_on_c, 1, 71, 0
3, 6480, Note_on_c, 1, 62, 0
3, 6600, Note_on_c, 1, 60, 56
3, 6600, Note_on_c, 1, 72, 56
3, 6672, Note_on_c, 1, 72, 0
3, 6672, Note_on_c, 1, 60, 0
3, 6720, Note_on_c, 1, 65, 56
3, 6720, Note_on_c, 1, 68, 56
3, 6960, Note_on_c, 1, 68, 0
3, 6960, Note_on_c, 1, 65, 0
3, 6960, Note_on_c, 1, 55, 50
3, 6960, Note_on_c, 1, 63, 50
3, 7020, Note_on_c, 1, 63, 0
3, 7020, Note_on_c, 1, 55, 0
3, 7080, Note_on_c, 1, 55, 47
3, 7080, Note_on_c, 1, 62, 47
3, 7200, Note_on_c, 1, 62, 0
3, 7200, Note_on_c, 1, 55, 0
3, 7200, Note_on_c, 1, 48, 44
3, 7200, Note_on_c, 1, 60, 44
3, 7440, Note_on_c, 1, 60, 0
3, 7440, Note_on_c, 1, 48, 0
3, 7920, Note_on_c, 1, 61, 80
3, 7920, Note_on_c, 1, 58, 80
3, 7920, Note_on_c, 1, 51, 80
3, 8160, Note_on_c, 1, 51, 0
3, 8160, Note_on_c, 1, 58, 0
3, 8160, Note_on_c, 1, 61, 0
3, 8160, Note_on_c, 1, 60, 80
3, 8160, Note_on_c, 1, 56, 80
3, 8160, Note_on_c, 1, 51, 80
3, 8400, Note_on_c, 1, 51, 0
3, 8400, Note_on_c, 1, 56, 0
3, 8400, Note_on_c, 1, 60, 0
3, 8400, Note_on_c, 1, 61, 80
3, 8400, Note_on_c, 1, 55, 80
3, 8400, Note_on_c, 1, 51, 80
3, 8640, Note_on_c, 1, 51, 0
3, 8640, Note_on_c, 1, 55, 0
3, 8640, Note_on_c, 1, 61, 0
3, 8640, Note_on_c, 1, 56, 80
3, 8640, Note_on_c, 1, 60, 80
3, 8760, Note_on_c, 1, 60, 0
3, 8760, Note_on_c, 1, 56, 0
3, 10800, Note_on_c, 1, 63, 80
3, 10800, Note_on_c, 1, 60, 80
3, 10800, Note_on_c, 1, 53, 80
3, 11040, Note_on_c, 1, 53, 0
3, 11040, Note_on_c, 1, 60, 0
3, 11040, Note_on_c, 1, 63, 0
3, 11040, Note_on_c, 1, 62, 80
3, 11040, Note_on_c, 1, 58, 80
3, 11040, Note_on_c, 1, 53, 80
3, 11280, Note_on_c, 1, 53, 0
3, 11280, Note_on_c, 1, 58, 0
3, 11280, Note_on_c, 1, 62, 0
3, 11280, Note_on_c, 1, 63, 80
3, 11280, Note_on_c, 1, 57, 80
3, 11280, Note_on_c, 1, 53, 80
3, 11520, Note_on_c, 1, 53, 0
3, 11520, Note_on_c, 1, 57, 0
3, 11520, Note_on_c, 1, 63, 0
3, 11520, Note_on_c, 1, 62, 80
3, 11520, Note_on_c, 1, 58, 80
3, 11640, Note_on_c, 1, 58, 0
3, 11640, Note_on_c, 1, 62, 0
3, 13560, Note_on_c, 1, 46, 64
3, 13680, Note_on_c, 1, 46, 0
3, 13680, Note_on_c, 1, 50, 64
3, 13800, Note_on_c, 1, 50, 0
3, 13800, Note_on_c, 1, 53, 64
3, 13920, Note_on_c, 1, 53, 0
3, 13920, Note_on_c, 1, 58, 64
3, 14160, Note_on_c, 1, 58, 0
3, 14520, Note_on_c, 1, 46, 64
3, 14640, Note_on_c, 1, 46, 0
3, 14640, Note_on_c, 1, 51, 64
3, 14760, Note_on_c, 1, 51, 0
3, 14760, Note_on_c, 1, 55, 64
3, 14880, Note_on_c, 1, 55, 0
3, 14880, Note_on_c, 1, 58, 64
3, 15120, Note_on_c, 1, 58, 0
3, 15480, Note_on_c, 1, 46, 80
3, 15600, Note_on_c, 1, 46, 0
3, 15600, Note_on_c, 1, 50, 80
3, 15660, Note_on_c, 1, 50, 0
3, 15660, Note_on_c, 1, 46, 80
3, 15690, Note_on_c, 1, 46, 0
3, 15720, Note_on_c, 1, 53, 80
3, 15750, Note_on_c, 1, 53, 0
3, 15780, Note_on_c, 1, 50, 80
3, 15810, Note_on_c, 1, 50, 0
3, 15840, Note_on_c, 1, 58, 80
3, 16080, Note_on_c, 1, 58, 0
3, 16440, Note_on_c, 1, 57, 59
3, 16500, Note_on_c, 1, 57, 0
3, 16500, Note_on_c, 1, 45, 61
3, 16530, Note_on_c, 1, 45, 0
3, 16680, Note_on_c, 1, 58, 65
3, 16740, Note_on_c, 1, 58, 0
3, 16740, Note_on_c, 1, 46, 67
3, 16770, Note_on_c, 1, 46, 0
3, 16920, Note_on_c, 1, 60, 71
3, 16980, Note_on_c, 1, 60, 0
3, 16980, Note_on_c, 1, 48, 73
3, 17040, Note_on_c, 1, 48, 0
3, 17160, Note_on_c, 1, 59, 77
3, 17220, Note_on_c, 1, 59, 0
3, 17220, Note_on_c, 1, 47, 79
3, 17280, Note_on_c, 1, 47, 0
3, 17280, Note_on_c, 1, 46, 80
3, 17340, Note_on_c, 1, 46, 0
3, 17340, Note_on_c, 1, 58, 80
3, 17400, Note_on_c, 1, 58, 0
3, 17940, Note_on_c, 1, 68, 80
3, 18000, Note_on_c, 1, 68, 0
3, 18000, Note_on_c, 1, 67, 80
3, 18060, Note_on_c, 1, 67, 0
3, 18060, Note_on_c, 1, 65, 80
3, 18120, Note_on_c, 1, 65, 0
3, 18120, Note_on_c, 1, 63, 80
3, 18180, Note_on_c, 1, 63, 0
3, 18180, Note_on_c, 1, 62, 80
3, 18240, Note_on_c, 1, 62, 0
3, 18240, Note_on_c, 1, 60, 80
3, 18300, Note_on_c, 1, 60, 0
3, 18300, Note_on_c, 1, 58, 80
3, 18360, Note_on_c, 1, 58, 0
3, 18360, Note_on_c, 1, 56, 80
3, 18420, Note_on_c, 1, 56, 0
3, 20280, Note_on_c, 1, 68, 80
3, 20280, Note_on_c, 1, 65, 80
3, 20280, Note_on_c, 1, 58, 80
3, 20340, Note_on_c, 1, 58, 0
3, 20340, Note_on_c, 1, 65, 0
3, 20340, Note_on_c, 1, 68, 0
3, 20400, Note_on_c, 1, 68, 80
3, 20400, Note_on_c, 1, 65, 80
3, 20400, Note_on_c, 1, 58, 80
3, 20460, Note_on_c, 1, 58, 0
3, 20460, Note_on_c, 1, 65, 0
3, 20460, Note_on_c, 1, 68, 0
3, 20520, Note_on_c, 1, 68, 80
3, 20520, Note_on_c, 1, 65, 80
3, 20520, Note_on_c, 1, 58, 80
3, 20580, Note_on_c, 1, 58, 0
3, 20580, Note_on_c, 1, 65, 0
3, 20580, Note_on_c, 1, 68, 0
3, 20640, Note_on_c, 1, 68, 80
3, 20640, Note_on_c, 1, 65, 80
3, 20640, Note_on_c, 1, 58, 80
3, 21120, Note_on_c, 1, 58, 0
3, 21120, Note_on_c, 1, 65, 0
3, 21120, Note_on_c, 1, 68, 0
3, 21240, Note_on_c, 1, 59, 80
3, 21280, Note_on_c, 1, 59, 0
3, 21280, Note_on_c, 1, 65, 80
3, 21320, Note_on_c, 1, 65, 0
3, 21320, Note_on_c, 1, 68, 80
3, 21360, Note_on_c, 1, 68, 0
3, 21360, Note_on_c, 1, 59, 80
3, 21400, Note_on_c, 1, 59, 0
3, 21400, Note_on_c, 1, 65, 80
3, 21440, Note_on_c, 1, 65, 0
3, 21440, Note_on_c, 1, 68, 80
3, 21480, Note_on_c, 1, 68, 0
3, 21480, Note_on_c, 1, 59, 80
3, 21520, Note_on_c, 1, 59, 0
3, 21520, Note_on_c, 1, 65, 80
3, 21560, Note_on_c, 1, 65, 0
3, 21560, Note_on_c, 1, 68, 80
3, 21600, Note_on_c, 1, 68, 0
3, 21600, Note_on_c, 1, 59, 80
3, 22080, Note_on_c, 1, 59, 0
3, 22200, Note_on_c, 1, 59, 48
3, 22240, Note_on_c, 1, 59, 0
3, 22240, Note_on_c, 1, 65, 48
3, 22280, Note_on_c, 1, 65, 0
3, 22280, Note_on_c, 1, 68, 48
3, 22320, Note_on_c, 1, 68, 0
3, 22320, Note_on_c, 1, 59, 48
3, 22360, Note_on_c, 1, 59, 0
3, 22360, Note_on_c, 1, 65, 48
3, 22400, Note_on_c, 1, 65, 0
3, 22400, Note_on_c, 1, 68, 48
3, 22440, Note_on_c, 1, 68, 0
3, 22440, Note_on_c, 1, 59, 48
3, 22480, Note_on_c, 1, 59, 0
3, 22480, Note_on_c, 1, 65, 48
3, 22520, Note_on_c, 1, 68, 48
3, 22560, Note_on_c, 1, 59, 48
3, 24000, Note_on_c, 1, 59, 0
3, 24000, Note_on_c, 1, 65, 0
3, 24120, Note_on_c, 1, 58, 48
3, 24240, Note_on_c, 1, 68, 0
3, 24240, Note_on_c, 1, 68, 48
3, 24600, Note_on_c, 1, 58, 0
3, 24600, Note_on_c, 1, 58, 46
3, 24720, Note_on_c, 1, 68, 0
3, 24720, Note_on_c, 1, 68, 44
3, 25920, Note_on_c, 1, 68, 0
3, 25920, Note_on_c, 1, 58, 0
3, 25920, Note_on_c, 1, 51, 88
3, 25920, Note_on_c, 1, 46, 88
3, 25920, Note_on_c, 1, 43, 88
3, 26040, Note_on_c, 1, 43, 0
3, 26040, Note_on_c, 1, 46, 0
3, 26040, Note_on_c, 1, 51, 0
3, 26400, Note_on_c, 1, 51, 80
3, 26400, Note_on_c, 1, 48, 80
3, 26400, Note_on_c, 1, 44, 80
3, 26520, Note_on_c, 1, 44, 0
3, 26520, Note_on_c, 1, 48, 0
3, 26520, Note_on_c, 1, 51, 0
3, 27000, Note_on_c, 1, 46, 64
3, 27000, Note_on_c, 1, 55, 64
3, 27120, Note_on_c, 1, 55, 0
3, 27120, Note_on_c, 1, 46, 0
3, 27120, Note_on_c, 1, 46, 64
3, 27120, Note_on_c, 1, 55, 64
3, 27240, Note_on_c, 1, 55, 0
3, 27240, Note_on_c, 1, 46, 0
3, 27240, Note_on_c, 1, 46, 64
3, 27240, Note_on_c, 1, 53, 64
3, 27360, Note_on_c, 1, 53, 0
3, 27360, Note_on_c, 1, 46, 0
3, 27360, Note_on_c, 1, 51, 80
3, 27360, Note_on_c, 1, 46, 80
3, 27360, Note_on_c, 1, 43, 80
3, 27600, Note_on_c, 1, 43, 0
3, 27600, Note_on_c, 1, 46, 0
3, 27600, Note_on_c, 1, 51, 0
3, 27840, Note_on_c, 1, 51, 80
3, 27840, Note_on_c, 1, 48, 80
3, 27840, Note_on_c, 1, 44, 80
3, 28080, Note_on_c, 1, 44, 0
3, 28080, Note_on_c, 1, 48, 0
3, 28080, Note_on_c, 1, 51, 0
3, 28440, Note_on_c, 1, 46, 64
3, 28440, Note_on_c, 1, 55, 64
3, 28560, Note_on_c, 1, 55, 0
3, 28560, Note_on_c, 1, 46, 0
3, 28560, Note_on_c, 1, 46, 64
3, 28560, Note_on_c, 1, 55, 64
3, 28680, Note_on_c, 1, 55, 0
3, 28680, Note_on_c, 1, 46, 0
3, 28680, Note_on_c, 1, 46, 64
3, 28680, Note_on_c, 1, 53, 64
3, 28800, Note_on_c, 1, 53, 0
3, 28800, Note_on_c, 1, 46, 0
3, 28920, Note_on_c, 1, 46, 80
3, 28920, Note_on_c, 1, 55, 80
3, 29040, Note_on_c, 1, 55, 0
3, 29040, Note_on_c, 1, 46, 0
3, 29040, Note_on_c, 1, 46, 80
3, 29040, Note_on_c, 1, 55, 80
3, 29160, Note_on_c, 1, 55, 0
3, 29160, Note_on_c, 1, 46, 0
3, 29160, Note_on_c, 1, 46, 80
3, 29160, Note_on_c, 1, 53, 80
3, 29280, Note_on_c, 1, 53, 0
3, 29280, Note_on_c, 1, 46, 0
3, 29400, Note_on_c, 1, 46, 48
3, 29400, Note_on_c, 1, 55, 48
3, 29520, Note_on_c, 1, 55, 0
3, 29520, Note_on_c, 1, 46, 0
3, 29520, Note_on_c, 1, 46, 48
3, 29520, Note_on_c, 1, 55, 48
3, 29640, Note_on_c, 1, 55, 0
3, 29640, Note_on_c, 1, 46, 0
3, 29640, Note_on_c, 1, 46, 48
3, 29640, Note_on_c, 1, 53, 48
3, 29760, Note_on_c, 1, 53, 0
3, 29760, Note_on_c, 1, 46, 0
3, 29880, Note_on_c, 1, 46, 80
3, 29880, Note_on_c, 1, 55, 80
3, 30000, Note_on_c, 1, 55, 0
3, 30000, Note_on_c, 1, 46, 0
3, 30000, Note_on_c, 1, 46, 80
3, 30000, Note_on_c, 1, 55, 80
3, 30120, Note_on_c, 1, 55, 0
3, 30120, Note_on_c, 1, 46, 0
3, 30120, Note_on_c, 1, 46, 80
3, 30120, Note_on_c, 1, 56, 80
3, 30240, Note_on_c, 1, 56, 0
3, 30240, Note_on_c, 1, 46, 0
3, 30240, Note_on_c, 1, 46, 80
3, 30240, Note_on_c, 1, 53, 80
3, 30360, Note_on_c, 1, 53, 0
3, 30360, Note_on_c, 1, 46, 0
3, 30360, Note_on_c, 1, 46, 82
3, 30360, Note_on_c, 1, 55, 82
3, 30480, Note_on_c, 1, 55, 0
3, 30480, Note_on_c, 1, 46, 0
3, 30480, Note_on_c, 1, 46, 84
3, 30480, Note_on_c, 1, 50, 84
3, 30600, Note_on_c, 1, 50, 0
3, 30600, Note_on_c, 1, 46, 0
3, 30600, Note_on_c, 1, 46, 86
3, 30600, Note_on_c, 1, 51, 86
3, 30720, Note_on_c, 1, 51, 0
3, 30720, Note_on_c, 1, 46, 0
3, 30720, Note_on_c, 1, 53, 88
3, 30720, Note_on_c, 1, 46, 88
3, 30840, Note_on_c, 1, 46, 0
3, 30840, Note_on_c, 1, 53, 0
3, 31200, Note_on_c, 1, 63, 40
3, 31240, Note_on_c, 1, 63, 0
3, 31240, Note_on_c, 1, 67, 40
3, 31280, Note_on_c, 1, 67, 0
3, 31280, Note_on_c, 1, 70, 40
3, 31320, Note_on_c, 1, 70, 0
3, 31320, Note_on_c, 1, 63, 40
3, 31360, Note_on_c, 1, 63, 0
3, 31360, Note_on_c, 1, 67, 40
3, 31400, Note_on_c, 1, 67, 0
3, 31400, Note_on_c, 1, 70, 40
3, 31440, Note_on_c, 1, 70, 0
3, 31440, Note_on_c, 1, 63, 40
3, 31480, Note_on_c, 1, 63, 0
3, 31480, Note_on_c, 1, 67, 40
3, 31520, Note_on_c, 1, 67, 0
3, 31520, Note_on_c, 1, 70, 40
3, 31560, Note_on_c, 1, 70, 0
3, 31560, Note_on_c, 1, 63, 40
3, 31600, Note_on_c, 1, 63, 0
3, 31600, Note_on_c, 1, 67, 40
3, 31640, Note_on_c, 1, 67, 0
3, 31640, Note_on_c, 1, 70, 40
3, 31680, Note_on_c, 1, 70, 0
3, 31680, Note_on_c, 1, 65, 40
3, 31720, Note_on_c, 1, 65, 0
3, 31720, Note_on_c, 1, 68, 40
3, 31760, Note_on_c, 1, 68, 0
3, 31760, Note_on_c, 1, 70, 40
3, 31800, Note_on_c, 1, 70, 0
3, 31800, Note_on_c, 1, 65, 40
3, 31840, Note_on_c, 1, 65, 0
3, 31840, Note_on_c, 1, 68, 40
3, 31880, Note_on_c, 1, 68, 0
3, 31880, Note_on_c, 1, 70, 40
3, 31920, Note_on_c, 1, 70, 0
3, 31920, Note_on_c, 1, 62, 40
3, 31960, Note_on_c, 1, 62, 0
3, 31960, Note_on_c, 1, 65, 40
3, 32000, Note_on_c, 1, 65, 0
3, 32000, Note_on_c, 1, 70, 40
3, 32040, Note_on_c, 1, 70, 0
3, 32040, Note_on_c, 1, 62, 40
3, 32080, Note_on_c, 1, 62, 0
3, 32080, Note_on_c, 1, 65, 40
3, 32120, Note_on_c, 1, 65, 0
3, 32120, Note_on_c, 1, 70, 40
3, 32160, Note_on_c, 1, 70, 0
3, 32160, Note_on_c, 1, 63, 40
3, 32200, Note_on_c, 1, 63, 0
3, 32200, Note_on_c, 1, 67, 41
3, 32240, Note_on_c, 1, 67, 0
3, 32240, Note_on_c, 1, 70, 43
3, 32280, Note_on_c, 1, 70, 0
3, 32280, Note_on_c, 1, 63, 44
3, 32320, Note_on_c, 1, 63, 0
3, 32320, Note_on_c, 1, 67, 45
3, 32360, Note_on_c, 1, 67, 0
3, 32360, Note_on_c, 1, 70, 47
3, 32400, Note_on_c, 1, 70, 0
3, 32400, Note_on_c, 1, 63, 48
3, 32440, Note_on_c, 1, 63, 0
3, 32440, Note_on_c, 1, 67, 49
3, 32480, Note_on_c, 1, 67, 0
3, 32480, Note_on_c, 1, 70, 51
3, 32520, Note_on_c, 1, 70, 0
3, 32520, Note_on_c, 1, 63, 52
3, 32560, Note_on_c, 1, 63, 0
3, 32560, Note_on_c, 1, 67, 53
3, 32600, Note_on_c, 1, 67, 0
3, 32600, Note_on_c, 1, 70, 55
3, 32640, Note_on_c, 1, 70, 0
3, 32640, Note_on_c, 1, 65, 56
3, 32680, Note_on_c, 1, 65, 0
3, 32680, Note_on_c, 1, 68, 57
3, 32720, Note_on_c, 1, 68, 0
3, 32720, Note_on_c, 1, 70, 59
3, 32760, Note_on_c, 1, 70, 0
3, 32760, Note_on_c, 1, 65, 60
3, 32800, Note_on_c, 1, 65, 0
3, 32800, Note_on_c, 1, 68, 61
3, 32840, Note_on_c, 1, 68, 0
3, 32840, Note_on_c, 1, 70, 63
3, 32880, Note_on_c, 1, 70, 0
3, 32880, Note_on_c, 1, 62, 64
3, 32920, Note_on_c, 1, 62, 0
3, 32920, Note_on_c, 1, 65, 65
3, 32960, Note_on_c, 1, 65, 0
3, 32960, Note_on_c, 1, 70, 67
3, 33000, Note_on_c, 1, 70, 0
3, 33000, Note_on_c, 1, 62, 68
3, 33040, Note_on_c, 1, 62, 0
3, 33040, Note_on_c, 1, 65, 69
3, 33080, Note_on_c, 1, 65, 0
3, 33080, Note_on_c, 1, 70, 71
3, 33120, Note_on_c, 1, 70, 0
3, 33120, Note_on_c, 1, 63, 80
3, 33160, Note_on_c, 1, 63, 0
3, 33160, Note_on_c, 1, 67, 80
3, 33200, Note_on_c, 1, 67, 0
3, 33200, Note_on_c, 1, 70, 80
3, 33240, Note_on_c, 1, 70, 0
3, 33240, Note_on_c, 1, 63, 80
3, 33280, Note_on_c, 1, 63, 0
3, 33280, Note_on_c, 1, 67, 80
3, 33320, Note_on_c, 1, 67, 0
3, 33320, Note_on_c, 1, 70, 80
3, 33360, Note_on_c, 1, 70, 0
3, 33360, Note_on_c, 1, 65, 80
3, 33400, Note_on_c, 1, 65, 0
3, 33400, Note_on_c, 1, 68, 80
3, 33440, Note_on_c, 1, 68, 0
3, 33440, Note_on_c, 1, 70, 80
3, 33480, Note_on_c, 1, 70, 0
3, 33480, Note_on_c, 1, 62, 80
3, 33520, Note_on_c, 1, 62, 0
3, 33520, Note_on_c, 1, 65, 80
3, 33560, Note_on_c, 1, 65, 0
3, 33560, Note_on_c, 1, 70, 80
3, 33600, Note_on_c, 1, 70, 0
3, 33600, Note_on_c, 1, 63, 80
3, 33640, Note_on_c, 1, 63, 0
3, 33640, Note_on_c, 1, 67, 80
3, 33680, Note_on_c, 1, 67, 0
3, 33680, Note_on_c, 1, 70, 80
3, 33720, Note_on_c, 1, 70, 0
3, 33720, Note_on_c, 1, 63, 80
3, 33760, Note_on_c, 1, 63, 0
3, 33760, Note_on_c, 1, 67, 80
3, 33800, Note_on_c, 1, 67, 0
3, 33800, Note_on_c, 1, 70, 80
3, 33840, Note_on_c, 1, 70, 0
3, 33840, Note_on_c, 1, 65, 80
3, 33880, Note_on_c, 1, 65, 0
3, 33880, Note_on_c, 1, 68, 80
3, 33920, Note_on_c, 1, 68, 0
3, 33920, Note_on_c, 1, 70, 80
3, 33960, Note_on_c, 1, 70, 0
3, 33960, Note_on_c, 1, 62, 80
3, 34000, Note_on_c, 1, 62, 0
3, 34000, Note_on_c, 1, 65, 80
3, 34040, Note_on_c, 1, 65, 0
3, 34040, Note_on_c, 1, 70, 80
3, 34080, Note_on_c, 1, 70, 0
3, 34080, Note_on_c, 1, 63, 80
3, 34320, Note_on_c, 1, 63, 0
3, 34560, Note_on_c, 1, 56, 80
3, 34800, Note_on_c, 1, 56, 0
3, 35640, Note_on_c, 1, 58, 80
3, 35640, Note_on_c, 1, 67, 80
3, 35760, Note_on_c, 1, 67, 0
3, 35760, Note_on_c, 1, 58, 0
3, 35760, Note_on_c, 1, 58, 80
3, 35760, Note_on_c, 1, 67, 80
3, 35880, Note_on_c, 1, 67, 0
3, 35880, Note_on_c, 1, 58, 0
3, 35880, Note_on_c, 1, 58, 80
3, 35880, Note_on_c, 1, 65, 80
3, 36000, Note_on_c, 1, 65, 0
3, 36000, Note_on_c, 1, 58, 0
3, 36000, Note_on_c, 1, 63, 80
3, 36120, Note_on_c, 1, 63, 0
3, 36480, Note_on_c, 1, 39, 56
3, 36600, Note_on_c, 1, 39, 0
3, 37080, Note_on_c, 1, 51, 56
3, 37200, Note_on_c, 1, 51, 0
3, 37200, Note_on_c, 1, 63, 56
3, 37320, Note_on_c, 1, 63, 0
3, 37560, Note_on_c, 1, 51, 56
3, 37680, Note_on_c, 1, 51, 0
3, 37680, Note_on_c, 1, 63, 56
3, 37800, Note_on_c, 1, 63, 0
3, 38040, Note_on_c, 1, 36, 80
3, 38160, Note_on_c, 1, 36, 0
3, 38160, Note_on_c, 1, 48, 80
3, 38880, Note_on_c, 1, 48, 0
3, 38880, Note_on_c, 1, 65, 80
3, 38880, Note_on_c, 1, 68, 80
3, 39240, Note_on_c, 1, 68, 0
3, 39240, Note_on_c, 1, 65, 0
3, 39240, Note_on_c, 1, 64, 80
3, 39240, Note_on_c, 1, 67, 80
3, 39300, Note_on_c, 1, 67, 0
3, 39300, Note_on_c, 1, 64, 0
3, 39360, Note_on_c, 1, 67, 80
3, 39360, Note_on_c, 1, 70, 80
3, 39720, Note_on_c, 1, 70, 0
3, 39720, Note_on_c, 1, 67, 0
3, 39720, Note_on_c, 1, 65, 80
3, 39720, Note_on_c, 1, 68, 80
3, 39780, Note_on_c, 1, 68, 0
3, 39780, Note_on_c, 1, 65, 0
3, 39840, Note_on_c, 1, 68, 80
3, 39840, Note_on_c, 1, 72, 80
3, 40200, Note_on_c, 1, 72, 0
3, 40200, Note_on_c, 1, 68, 0
3, 40200, Note_on_c, 1, 67, 80
3, 40200, Note_on_c, 1, 70, 80
3, 40320, Note_on_c, 1, 70, 0
3, 40320, Note_on_c, 1, 67, 0
3, 40320, Note_on_c, 1, 65, 80
3, 40320, Note_on_c, 1, 68, 80
3, 40440, Note_on_c, 1, 68, 0
3, 40440, Note_on_c, 1, 65, 0
3, 40440, Note_on_c, 1, 63, 80
3, 40440, Note_on_c, 1, 67, 80
3, 40560, Note_on_c, 1, 67, 0
3, 40560, Note_on_c, 1, 63, 0
3, 40560, Note_on_c, 1, 61, 80
3, 40560, Note_on_c, 1, 65, 80
3, 40680, Note_on_c, 1, 65, 0
3, 40680, Note_on_c, 1, 61, 0
3, 40680, Note_on_c, 1, 60, 80
3, 40680, Note_on_c, 1, 63, 80
3, 40800, Note_on_c, 1, 63, 0
3, 40800, Note_on_c, 1, 60, 0
3, 40800, Note_on_c, 1, 58, 80
3, 40800, Note_on_c, 1, 61, 80
3, 40920, Note_on_c, 1, 61, 0
3, 40920, Note_on_c, 1, 58, 0
3, 40920, Note_on_c, 1, 56, 80
3, 40920, Note_on_c, 1, 60, 80
3, 41040, Note_on_c, 1, 60, 0
3, 41040, Note_on_c, 1, 56, 0
3, 41040, Note_on_c, 1, 55, 80
3, 41040, Note_on_c, 1, 58, 80
3, 41160, Note_on_c, 1, 58, 0
3, 41160, Note_on_c, 1, 55, 0
3, 41160, Note_on_c, 1, 53, 80
3, 41160, Note_on_c, 1, 56, 80
3, 41280, Note_on_c, 1, 56, 0
3, 41280, Note_on_c, 1, 53, 0
3, 41280, Note_on_c, 1, 55, 80
3, 41280, Note_on_c, 1, 58, 80
3, 41760, Note_on_c, 1, 58, 0
3, 41760, Note_on_c, 1, 55, 0
3, 41880, Note_on_c, 1, 44, 56
3, 42000, Note_on_c, 1, 44, 0
3, 42000, Note_on_c, 1, 56, 56
3, 42120, Note_on_c, 1, 56, 0
3, 42360, Note_on_c, 1, 44, 56
3, 42480, Note_on_c, 1, 44, 0
3, 42480, Note_on_c, 1, 56, 56
3, 42600, Note_on_c, 1, 56, 0
3, 42840, Note_on_c, 1, 42, 59
3, 42960, Note_on_c, 1, 42, 0
3, 42960, Note_on_c, 1, 54, 62
3, 43080, Note_on_c, 1, 54, 0
3, 43320, Note_on_c, 1, 42, 71
3, 43440, Note_on_c, 1, 42, 0
3, 43440, Note_on_c, 1, 54, 74
3, 43560, Note_on_c, 1, 54, 0
3, 43800, Note_on_c, 1, 41, 80
3, 43920, Note_on_c, 1, 41, 0
3, 43920, Note_on_c, 1, 53, 96
3, 45600, Note_on_c, 1, 53, 0
3, 45600, Note_on_c, 1, 58, 64
3, 45640, Note_on_c, 1, 58, 0
3, 45640, Note_on_c, 1, 61, 64
3, 45680, Note_on_c, 1, 61, 0
3, 45680, Note_on_c, 1, 65, 64
3, 45720, Note_on_c, 1, 65, 0
3, 45720, Note_on_c, 1, 58, 64
3, 45760, Note_on_c, 1, 58, 0
3, 45760, Note_on_c, 1, 61, 64
3, 45800, Note_on_c, 1, 61, 0
3, 45800, Note_on_c, 1, 65, 64
3, 45840, Note_on_c, 1, 65, 0
3, 45840, Note_on_c, 1, 58, 64
3, 45880, Note_on_c, 1, 58, 0
3, 45880, Note_on_c, 1, 61, 64
3, 45920, Note_on_c, 1, 61, 0
3, 45920, Note_on_c, 1, 65, 64
3, 45960, Note_on_c, 1, 65, 0
3, 45960, Note_on_c, 1, 58, 64
3, 46000, Note_on_c, 1, 58, 0
3, 46000, Note_on_c, 1, 61, 64
3, 46040, Note_on_c, 1, 61, 0
3, 46040, Note_on_c, 1, 65, 64
3, 46080, Note_on_c, 1, 65, 0
3, 46080, Note_on_c, 1, 60, 64
3, 46120, Note_on_c, 1, 60, 0
3, 46120, Note_on_c, 1, 63, 64
3, 46160, Note_on_c, 1, 63, 0
3, 46160, Note_on_c, 1, 65, 64
3, 46200, Note_on_c, 1, 65, 0
3, 46200, Note_on_c, 1, 60, 64
3, 46240, Note_on_c, 1, 60, 0
3, 46240, Note_on_c, 1, 63, 64
3, 46280, Note_on_c, 1, 63, 0
3, 46280, Note_on_c, 1, 65, 64
3, 46320, Note_on_c, 1, 65, 0
3, 46320, Note_on_c, 1, 57, 64
3, 46360, Note_on_c, 1, 57, 0
3, 46360, Note_on_c, 1, 60, 64
3, 46400, Note_on_c, 1, 60, 0
3, 46400, Note_on_c, 1, 65, 64
3, 46440, Note_on_c, 1, 65, 0
3, 46440, Note_on_c, 1, 57, 64
3, 46480, Note_on_c, 1, 57, 0
3, 46480, Note_on_c, 1, 60, 64
3, 46520, Note_on_c, 1, 60, 0
3, 46520, Note_on_c, 1, 65, 64
3, 46560, Note_on_c, 1, 65, 0
3, 46560, Note_on_c, 1, 58, 64
3, 46600, Note_on_c, 1, 58, 0
3, 46600, Note_on_c, 1, 61, 64
3, 46640, Note_on_c, 1, 61, 0
3, 46640, Note_on_c, 1, 65, 64
3, 46680, Note_on_c, 1, 65, 0
3, 46680, Note_on_c, 1, 58, 64
3, 46720, Note_on_c, 1, 58, 0
3, 46720, Note_on_c, 1, 61, 64
3, 46760, Note_on_c, 1, 61, 0
3, 46760, Note_on_c, 1, 65, 64
3, 46800, Note_on_c, 1, 65, 0
3, 46800, Note_on_c, 1, 58, 64
3, 46840, Note_on_c, 1, 58, 0
3, 46840, Note_on_c, 1, 61, 64
3, 46880, Note_on_c, 1, 61, 0
3, 46880, Note_on_c, 1, 65, 64
3, 46920, Note_on_c, 1, 65, 0
3, 46920, Note_on_c, 1, 58, 64
3, 46960, Note_on_c, 1, 58, 0
3, 46960, Note_on_c, 1, 61, 64
3, 47000, Note_on_c, 1, 61, 0
3, 47000, Note_on_c, 1, 65, 64
3, 47040, Note_on_c, 1, 65, 0
3, 47040, Note_on_c, 1, 60, 64
3, 47080, Note_on_c, 1, 60, 0
3, 47080, Note_on_c, 1, 63, 64
3, 47120, Note_on_c, 1, 63, 0
3, 47120, Note_on_c, 1, 65, 64
3, 47160, Note_on_c, 1, 65, 0
3, 47160, Note_on_c, 1, 60, 64
3, 47200, Note_on_c, 1, 60, 0
3, 47200, Note_on_c, 1, 63, 64
3, 47240, Note_on_c, 1, 63, 0
3, 47240, Note_on_c, 1, 65, 64
3, 47280, Note_on_c, 1, 65, 0
3, 47280, Note_on_c, 1, 57, 64
3, 47320, Note_on_c, 1, 57, 0
3, 47320, Note_on_c, 1, 60, 64
3, 47360, Note_on_c, 1, 60, 0
3, 47360, Note_on_c, 1, 65, 64
3, 47400, Note_on_c, 1, 65, 0
3, 47400, Note_on_c, 1, 57, 64
3, 47440, Note_on_c, 1, 57, 0
3, 47440, Note_on_c, 1, 60, 64
3, 47480, Note_on_c, 1, 60, 0
3, 47480, Note_on_c, 1, 65, 64
3, 47520, Note_on_c, 1, 65, 0
3, 47520, Note_on_c, 1, 58, 64
3, 47560, Note_on_c, 1, 58, 0
3, 47560, Note_on_c, 1, 61, 64
3, 47600, Note_on_c, 1, 61, 0
3, 47600, Note_on_c, 1, 65, 64
3, 47640, Note_on_c, 1, 65, 0
3, 47640, Note_on_c, 1, 58, 64
3, 47680, Note_on_c, 1, 58, 0
3, 47680, Note_on_c, 1, 61, 64
3, 47720, Note_on_c, 1, 61, 0
3, 47720, Note_on_c, 1, 65, 64
3, 47760, Note_on_c, 1, 65, 0
3, 47760, Note_on_c, 1, 58, 64
3, 47800, Note_on_c, 1, 58, 0
3, 47800, Note_on_c, 1, 61, 64
3, 47840, Note_on_c, 1, 61, 0
3, 47840, Note_on_c, 1, 65, 64
3, 47880, Note_on_c, 1, 65, 0
3, 47880, Note_on_c, 1, 58, 64
3, 47920, Note_on_c, 1, 58, 0
3, 47920, Note_on_c, 1, 61, 64
3, 47960, Note_on_c, 1, 61, 0
3, 47960, Note_on_c, 1, 65, 64
3, 48000, Note_on_c, 1, 65, 0
3, 48000, Note_on_c, 1, 56, 64
3, 48040, Note_on_c, 1, 56, 0
3, 48040, Note_on_c, 1, 63, 64
3, 48080, Note_on_c, 1, 63, 0
3, 48080, Note_on_c, 1, 66, 64
3, 48120, Note_on_c, 1, 66, 0
3, 48120, Note_on_c, 1, 56, 64
3, 48160, Note_on_c, 1, 56, 0
3, 48160, Note_on_c, 1, 63, 64
3, 48200, Note_on_c, 1, 63, 0
3, 48200, Note_on_c, 1, 66, 64
3, 48240, Note_on_c, 1, 66, 0
3, 48240, Note_on_c, 1, 56, 64
3, 48280, Note_on_c, 1, 56, 0
3, 48280, Note_on_c, 1, 63, 64
3, 48320, Note_on_c, 1, 63, 0
3, 48320, Note_on_c, 1, 66, 64
3, 48360, Note_on_c, 1, 66, 0
3, 48360, Note_on_c, 1, 56, 64
3, 48400, Note_on_c, 1, 56, 0
3, 48400, Note_on_c, 1, 63, 64
3, 48440, Note_on_c, 1, 63, 0
3, 48440, Note_on_c, 1, 66, 64
3, 48480, Note_on_c, 1, 66, 0
3, 48480, Note_on_c, 1, 61, 64
3, 48520, Note_on_c, 1, 61, 0
3, 48520, Note_on_c, 1, 65, 64
3, 48560, Note_on_c, 1, 65, 0
3, 48560, Note_on_c, 1, 68, 64
3, 48600, Note_on_c, 1, 68, 0
3, 48600, Note_on_c, 1, 61, 64
3, 48640, Note_on_c, 1, 61, 0
3, 48640, Note_on_c, 1, 65, 64
3, 48680, Note_on_c, 1, 65, 0
3, 48680, Note_on_c, 1, 68, 64
3, 48720, Note_on_c, 1, 68, 0
3, 48720, Note_on_c, 1, 61, 64
3, 48760, Note_on_c, 1, 61, 0
3, 48760, Note_on_c, 1, 65, 64
3, 48800, Note_on_c, 1, 65, 0
3, 48800, Note_on_c, 1, 68, 64
3, 48840, Note_on_c, 1, 68, 0
3, 48840, Note_on_c, 1, 61, 64
3, 48880, Note_on_c, 1, 61, 0
3, 48880, Note_on_c, 1, 65, 64
3, 48920, Note_on_c, 1, 65, 0
3, 48920, Note_on_c, 1, 68, 64
3, 48960, Note_on_c, 1, 68, 0
3, 48960, Note_on_c, 1, 63, 64
3, 49000, Note_on_c, 1, 63, 0
3, 49000, Note_on_c, 1, 66, 64
3, 49040, Note_on_c, 1, 66, 0
3, 49040, Note_on_c, 1, 68, 64
3, 49080, Note_on_c, 1, 68, 0
3, 49080, Note_on_c, 1, 63, 64
3, 49120, Note_on_c, 1, 63, 0
3, 49120, Note_on_c, 1, 66, 64
3, 49160, Note_on_c, 1, 66, 0
3, 49160, Note_on_c, 1, 68, 64
3, 49200, Note_on_c, 1, 68, 0
3, 49200, Note_on_c, 1, 60, 64
3, 49240, Note_on_c, 1, 60, 0
3, 49240, Note_on_c, 1, 63, 64
3, 49280, Note_on_c, 1, 63, 0
3, 49280, Note_on_c, 1, 68, 64
3, 49320, Note_on_c, 1, 68, 0
3, 49320, Note_on_c, 1, 60, 64
3, 49360, Note_on_c, 1, 60, 0
3, 49360, Note_on_c, 1, 63, 64
3, 49400, Note_on_c, 1, 63, 0
3, 49400, Note_on_c, 1, 68, 64
3, 49440, Note_on_c, 1, 68, 0
3, 49440, Note_on_c, 1, 61, 80
3, 49680, Note_on_c, 1, 61, 0
3, 50040, Note_on_c, 1, 65, 80
3, 50080, Note_on_c, 1, 65, 0
3, 50080, Note_on_c, 1, 63, 80
3, 50120, Note_on_c, 1, 63, 0
3, 50120, Note_on_c, 1, 61, 80
3, 50160, Note_on_c, 1, 61, 0
3, 50160, Note_on_c, 1, 60, 80
3, 50200, Note_on_c, 1, 60, 0
3, 50200, Note_on_c, 1, 58, 80
3, 50240, Note_on_c, 1, 58, 0
3, 50240, Note_on_c, 1, 56, 80
3, 50280, Note_on_c, 1, 56, 0
3, 50280, Note_on_c, 1, 54, 80
3, 50320, Note_on_c, 1, 54, 0
3, 50320, Note_on_c, 1, 53, 80
3, 50360, Note_on_c, 1, 53, 0
3, 50360, Note_on_c, 1, 51, 80
3, 50400, Note_on_c, 1, 51, 0
3, 50400, Note_on_c, 1, 49, 80
3, 50640, Note_on_c, 1, 49, 0
3, 50640, Note_on_c, 1, 47, 80
3, 50880, Note_on_c, 1, 47, 0
3, 50880, Note_on_c, 1, 34, 96
3, 50880, Note_on_c, 1, 46, 96
3, 51759, Note_on_c, 1, 46, 0
3, 51759, Note_on_c, 1, 34, 0
3, 51840, Note_on_c, 1, 63, 64
3, 51880, Note_on_c, 1, 63, 0
3, 51880, Note_on_c, 1, 66, 64
3, 51920, Note_on_c, 1, 66, 0
3, 51920, Note_on_c, 1, 70, 64
3, 51960, Note_on_c, 1, 70, 0
3, 51960, Note_on_c, 1, 63, 64
3, 52000, Note_on_c, 1, 63, 0
3, 52000, Note_on_c, 1, 66, 64
3, 52040, Note_on_c, 1, 66, 0
3, 52040, Note_on_c, 1, 70, 64
3, 52080, Note_on_c, 1, 70, 0
3, 52080, Note_on_c, 1, 63, 64
3, 52120, Note_on_c, 1, 63, 0
3, 52120, Note_on_c, 1, 66, 64
3, 52160, Note_on_c, 1, 66, 0
3, 52160, Note_on_c, 1, 70, 64
3, 52200, Note_on_c, 1, 70, 0
3, 52200, Note_on_c, 1, 63, 64
3, 52240, Note_on_c, 1, 63, 0
3, 52240, Note_on_c, 1, 66, 64
3, 52280, Note_on_c, 1, 66, 0
3, 52280, Note_on_c, 1, 70, 64
3, 52320, Note_on_c, 1, 70, 0
3, 52320, Note_on_c, 1, 65, 64
3, 52360, Note_on_c, 1, 65, 0
3, 52360, Note_on_c, 1, 68, 64
3, 52400, Note_on_c, 1, 68, 0
3, 52400, Note_on_c, 1, 70, 64
3, 52440, Note_on_c, 1, 70, 0
3, 52440, Note_on_c, 1, 65, 64
3, 52480, Note_on_c, 1, 65, 0
3, 52480, Note_on_c, 1, 68, 64
3, 52520, Note_on_c, 1, 68, 0
3, 52520, Note_on_c, 1, 70, 64
3, 52560, Note_on_c, 1, 70, 0
3, 52560, Note_on_c, 1, 62, 64
3, 52600, Note_on_c, 1, 62, 0
3, 52600, Note_on_c, 1, 65, 64
3, 52640, Note_on_c, 1, 65, 0
3, 52640, Note_on_c, 1, 70, 64
3, 52680, Note_on_c, 1, 70, 0
3, 52680, Note_on_c, 1, 62, 64
3, 52720, Note_on_c, 1, 62, 0
3, 52720, Note_on_c, 1, 65, 64
3, 52760, Note_on_c, 1, 65, 0
3, 52760, Note_on_c, 1, 70, 64
3, 52800, Note_on_c, 1, 70, 0
3, 52800, Note_on_c, 1, 63, 64
3, 52840, Note_on_c, 1, 63, 0
3, 52840, Note_on_c, 1, 66, 64
3, 52880, Note_on_c, 1, 66, 0
3, 52880, Note_on_c, 1, 70, 64
3, 52920, Note_on_c, 1, 70, 0
3, 52920, Note_on_c, 1, 63, 64
3, 52960, Note_on_c, 1, 63, 0
3, 52960, Note_on_c, 1, 66, 64
3, 53000, Note_on_c, 1, 66, 0
3, 53000, Note_on_c, 1, 70, 64
3, 53040, Note_on_c, 1, 70, 0
3, 53040, Note_on_c, 1, 63, 64
3, 53080, Note_on_c, 1, 63, 0
3, 53080, Note_on_c, 1, 66, 64
3, 53120, Note_on_c, 1, 66, 0
3, 53120, Note_on_c, 1, 70, 64
3, 53160, Note_on_c, 1, 70, 0
3, 53160, Note_on_c, 1, 63, 64
3, 53200, Note_on_c, 1, 63, 0
3, 53200, Note_on_c, 1, 66, 64
3, 53240, Note_on_c, 1, 66, 0
3, 53240, Note_on_c, 1, 70, 64
3, 53280, Note_on_c, 1, 70, 0
3, 53280, Note_on_c, 1, 65, 64
3, 53320, Note_on_c, 1, 65, 0
3, 53320, Note_on_c, 1, 68, 64
3, 53360, Note_on_c, 1, 68, 0
3, 53360, Note_on_c, 1, 70, 64
3, 53400, Note_on_c, 1, 70, 0
3, 53400, Note_on_c, 1, 65, 64
3, 53440, Note_on_c, 1, 65, 0
3, 53440, Note_on_c, 1, 68, 64
3, 53480, Note_on_c, 1, 68, 0
3, 53480, Note_on_c, 1, 70, 64
3, 53520, Note_on_c, 1, 70, 0
3, 53520, Note_on_c, 1, 62, 64
3, 53560, Note_on_c, 1, 62, 0
3, 53560, Note_on_c, 1, 65, 64
3, 53600, Note_on_c, 1, 65, 0
3, 53600, Note_on_c, 1, 70, 64
3, 53640, Note_on_c, 1, 70, 0
3, 53640, Note_on_c, 1, 62, 64
3, 53680, Note_on_c, 1, 62, 0
3, 53680, Note_on_c, 1, 65, 64
3, 53720, Note_on_c, 1, 65, 0
3, 53720, Note_on_c, 1, 70, 64
3, 53760, Note_on_c, 1, 70, 0
3, 53760, Note_on_c, 1, 63, 64
3, 53800, Note_on_c, 1, 63, 0
3, 53800, Note_on_c, 1, 66, 64
3, 53840, Note_on_c, 1, 66, 0
3, 53840, Note_on_c, 1, 70, 64
3, 53880, Note_on_c, 1, 70, 0
3, 53880, Note_on_c, 1, 63, 64
3, 53920, Note_on_c, 1, 63, 0
3, 53920, Note_on_c, 1, 66, 64
3, 53960, Note_on_c, 1, 66, 0
3, 53960, Note_on_c, 1, 70, 64
3, 54000, Note_on_c, 1, 70, 0
3, 54000, Note_on_c, 1, 63, 64
3, 54040, Note_on_c, 1, 63, 0
3, 54040, Note_on_c, 1, 70, 64
3, 54080, Note_on_c, 1, 70, 0
3, 54080, Note_on_c, 1, 73, 64
3, 54120, Note_on_c, 1, 73, 0
3, 54120, Note_on_c, 1, 63, 64
3, 54160, Note_on_c, 1, 63, 0
3, 54160, Note_on_c, 1, 70, 64
3, 54200, Note_on_c, 1, 70, 0
3, 54200, Note_on_c, 1, 73, 64
3, 54240, Note_on_c, 1, 73, 0
3, 54240, Note_on_c, 1, 63, 64
3, 54280, Note_on_c, 1, 63, 0
3, 54280, Note_on_c, 1, 68, 64
3, 54320, Note_on_c, 1, 68, 0
3, 54320, Note_on_c, 1, 71, 64
3, 54360, Note_on_c, 1, 71, 0
3, 54360, Note_on_c, 1, 63, 64
3, 54400, Note_on_c, 1, 63, 0
3, 54400, Note_on_c, 1, 68, 64
3, 54440, Note_on_c, 1, 68, 0
3, 54440, Note_on_c, 1, 71, 64
3, 54480, Note_on_c, 1, 71, 0
3, 54480, Note_on_c, 1, 63, 64
3, 54520, Note_on_c, 1, 63, 0
3, 54520, Note_on_c, 1, 68, 64
3, 54560, Note_on_c, 1, 68, 0
3, 54560, Note_on_c, 1, 71, 64
3, 54600, Note_on_c, 1, 71, 0
3, 54600, Note_on_c, 1, 63, 64
3, 54640, Note_on_c, 1, 63, 0
3, 54640, Note_on_c, 1, 68, 64
3, 54680, Note_on_c, 1, 68, 0
3, 54680, Note_on_c, 1, 71, 64
3, 54720, Note_on_c, 1, 71, 0
3, 54720, Note_on_c, 1, 61, 64
3, 54760, Note_on_c, 1, 61, 0
3, 54760, Note_on_c, 1, 68, 64
3, 54800, Note_on_c, 1, 68, 0
3, 54800, Note_on_c, 1, 71, 64
3, 54840, Note_on_c, 1, 71, 0
3, 54840, Note_on_c, 1, 61, 64
3, 54880, Note_on_c, 1, 61, 0
3, 54880, Note_on_c, 1, 68, 64
3, 54920, Note_on_c, 1, 68, 0
3, 54920, Note_on_c, 1, 71, 64
3, 54960, Note_on_c, 1, 71, 0
3, 54960, Note_on_c, 1, 61, 64
3, 55000, Note_on_c, 1, 61, 0
3, 55000, Note_on_c, 1, 68, 64
3, 55040, Note_on_c, 1, 68, 0
3, 55040, Note_on_c, 1, 71, 64
3, 55080, Note_on_c, 1, 71, 0
3, 55080, Note_on_c, 1, 61, 64
3, 55120, Note_on_c, 1, 61, 0
3, 55120, Note_on_c, 1, 68, 64
3, 55160, Note_on_c, 1, 68, 0
3, 55160, Note_on_c, 1, 71, 64
3, 55200, Note_on_c, 1, 71, 0
3, 55200, Note_on_c, 1, 61, 64
3, 55240, Note_on_c, 1, 61, 0
3, 55240, Note_on_c, 1, 66, 64
3, 55280, Note_on_c, 1, 66, 0
3, 55280, Note_on_c, 1, 70, 64
3, 55320, Note_on_c, 1, 70, 0
3, 55320, Note_on_c, 1, 61, 64
3, 55360, Note_on_c, 1, 61, 0
3, 55360, Note_on_c, 1, 66, 64
3, 55400, Note_on_c, 1, 66, 0
3, 55400, Note_on_c, 1, 70, 64
3, 55440, Note_on_c, 1, 70, 0
3, 55440, Note_on_c, 1, 61, 64
3, 55480, Note_on_c, 1, 61, 0
3, 55480, Note_on_c, 1, 66, 64
3, 55520, Note_on_c, 1, 66, 0
3, 55520, Note_on_c, 1, 70, 64
3, 55560, Note_on_c, 1, 70, 0
3, 55560, Note_on_c, 1, 61, 64
3, 55600, Note_on_c, 1, 61, 0
3, 55600, Note_on_c, 1, 66, 64
3, 55640, Note_on_c, 1, 66, 0
3, 55640, Note_on_c, 1, 70, 64
3, 55680, Note_on_c, 1, 70, 0
3, 55680, Note_on_c, 1, 59, 64
3, 55720, Note_on_c, 1, 59, 0
3, 55720, Note_on_c, 1, 66, 64
3, 55760, Note_on_c, 1, 66, 0
3, 55760, Note_on_c, 1, 70, 64
3, 55800, Note_on_c, 1, 70, 0
3, 55800, Note_on_c, 1, 59, 64
3, 55840, Note_on_c, 1, 59, 0
3, 55840, Note_on_c, 1, 66, 64
3, 55880, Note_on_c, 1, 66, 0
3, 55880, Note_on_c, 1, 70, 64
3, 55920, Note_on_c, 1, 70, 0
3, 55920, Note_on_c, 1, 59, 64
3, 55960, Note_on_c, 1, 59, 0
3, 55960, Note_on_c, 1, 66, 64
3, 56000, Note_on_c, 1, 66, 0
3, 56000, Note_on_c, 1, 70, 64
3, 56040, Note_on_c, 1, 70, 0
3, 56040, Note_on_c, 1, 59, 64
3, 56080, Note_on_c, 1, 59, 0
3, 56080, Note_on_c, 1, 66, 64
3, 56120, Note_on_c, 1, 66, 0
3, 56120, Note_on_c, 1, 70, 64
3, 56160, Note_on_c, 1, 70, 0
3, 56160, Note_on_c, 1, 59, 64
3, 56200, Note_on_c, 1, 59, 0
3, 56200, Note_on_c, 1, 65, 64
3, 56240, Note_on_c, 1, 65, 0
3, 56240, Note_on_c, 1, 68, 64
3, 56280, Note_on_c, 1, 68, 0
3, 56280, Note_on_c, 1, 59, 64
3, 56320, Note_on_c, 1, 59, 0
3, 56320, Note_on_c, 1, 65, 64
3, 56360, Note_on_c, 1, 65, 0
3, 56360, Note_on_c, 1, 68, 64
3, 56400, Note_on_c, 1, 68, 0
3, 56400, Note_on_c, 1, 59, 64
3, 56440, Note_on_c, 1, 59, 0
3, 56440, Note_on_c, 1, 65, 64
3, 56480, Note_on_c, 1, 65, 0
3, 56480, Note_on_c, 1, 68, 64
3, 56520, Note_on_c, 1, 68, 0
3, 56520, Note_on_c, 1, 59, 64
3, 56560, Note_on_c, 1, 59, 0
3, 56560, Note_on_c, 1, 65, 64
3, 56600, Note_on_c, 1, 65, 0
3, 56600, Note_on_c, 1, 68, 64
3, 56640, Note_on_c, 1, 68, 0
3, 56640, Note_on_c, 1, 58, 64
3, 56680, Note_on_c, 1, 58, 0
3, 56680, Note_on_c, 1, 65, 64
3, 56720, Note_on_c, 1, 65, 0
3, 56720, Note_on_c, 1, 68, 64
3, 56760, Note_on_c, 1, 68, 0
3, 56760, Note_on_c, 1, 58, 64
3, 56800, Note_on_c, 1, 58, 0
3, 56800, Note_on_c, 1, 65, 64
3, 56840, Note_on_c, 1, 65, 0
3, 56840, Note_on_c, 1, 68, 64
3, 56880, Note_on_c, 1, 68, 0
3, 56880, Note_on_c, 1, 58, 64
3, 56920, Note_on_c, 1, 58, 0
3, 56920, Note_on_c, 1, 65, 64
3, 56960, Note_on_c, 1, 65, 0
3, 56960, Note_on_c, 1, 68, 64
3, 57000, Note_on_c, 1, 68, 0
3, 57000, Note_on_c, 1, 58, 64
3, 57040, Note_on_c, 1, 58, 0
3, 57040, Note_on_c, 1, 65, 64
3, 57080, Note_on_c, 1, 65, 0
3, 57080, Note_on_c, 1, 68, 64
3, 57120, Note_on_c, 1, 68, 0
3, 57120, Note_on_c, 1, 58, 64
3, 57160, Note_on_c, 1, 58, 0
3, 57160, Note_on_c, 1, 63, 64
3, 57200, Note_on_c, 1, 63, 0
3, 57200, Note_on_c, 1, 67, 64
3, 57240, Note_on_c, 1, 67, 0
3, 57240, Note_on_c, 1, 58, 64
3, 57280, Note_on_c, 1, 58, 0
3, 57280, Note_on_c, 1, 63, 64
3, 57320, Note_on_c, 1, 63, 0
3, 57320, Note_on_c, 1, 67, 64
3, 57360, Note_on_c, 1, 67, 0
3, 57360, Note_on_c, 1, 58, 64
3, 57400, Note_on_c, 1, 58, 0
3, 57400, Note_on_c, 1, 63, 64
3, 57440, Note_on_c, 1, 63, 0
3, 57440, Note_on_c, 1, 67, 64
3, 57480, Note_on_c, 1, 67, 0
3, 57480, Note_on_c, 1, 58, 64
3, 57520, Note_on_c, 1, 58, 0
3, 57520, Note_on_c, 1, 63, 64
3, 57560, Note_on_c, 1, 63, 0
3, 57560, Note_on_c, 1, 67, 64
3, 57600, Note_on_c, 1, 67, 0
3, 57600, Note_on_c, 1, 60, 64
3, 57640, Note_on_c, 1, 60, 0
3, 57640, Note_on_c, 1, 63, 64
3, 57680, Note_on_c, 1, 63, 0
3, 57680, Note_on_c, 1, 67, 64
3, 57720, Note_on_c, 1, 67, 0
3, 57720, Note_on_c, 1, 60, 64
3, 57760, Note_on_c, 1, 60, 0
3, 57760, Note_on_c, 1, 63, 64
3, 57800, Note_on_c, 1, 63, 0
3, 57800, Note_on_c, 1, 67, 64
3, 57840, Note_on_c, 1, 67, 0
3, 57840, Note_on_c, 1, 60, 64
3, 57880, Note_on_c, 1, 60, 0
3, 57880, Note_on_c, 1, 63, 64
3, 57920, Note_on_c, 1, 63, 0
3, 57920, Note_on_c, 1, 67, 64
3, 57960, Note_on_c, 1, 67, 0
3, 57960, Note_on_c, 1, 60, 64
3, 58000, Note_on_c, 1, 60, 0
3, 58000, Note_on_c, 1, 63, 64
3, 58040, Note_on_c, 1, 63, 0
3, 58040, Note_on_c, 1, 67, 64
3, 58080, Note_on_c, 1, 67, 0
3, 58080, Note_on_c, 1, 58, 64
3, 58120, Note_on_c, 1, 58, 0
3, 58120, Note_on_c, 1, 63, 64
3, 58160, Note_on_c, 1, 63, 0
3, 58160, Note_on_c, 1, 67, 64
3, 58200, Note_on_c, 1, 67, 0
3, 58200, Note_on_c, 1, 58, 64
3, 58240, Note_on_c, 1, 58, 0
3, 58240, Note_on_c, 1, 63, 64
3, 58280, Note_on_c, 1, 63, 0
3, 58280, Note_on_c, 1, 67, 64
3, 58320, Note_on_c, 1, 67, 0
3, 58320, Note_on_c, 1, 58, 64
3, 58360, Note_on_c, 1, 58, 0
3, 58360, Note_on_c, 1, 63, 64
3, 58400, Note_on_c, 1, 63, 0
3, 58400, Note_on_c, 1, 67, 64
3, 58440, Note_on_c, 1, 67, 0
3, 58440, Note_on_c, 1, 58, 64
3, 58480, Note_on_c, 1, 58, 0
3, 58480, Note_on_c, 1, 63, 64
3, 58520, Note_on_c, 1, 63, 0
3, 58520, Note_on_c, 1, 67, 64
3, 58560, Note_on_c, 1, 67, 0
3, 58560, Note_on_c, 1, 57, 64
3, 58600, Note_on_c, 1, 57, 0
3, 58600, Note_on_c, 1, 63, 64
3, 58640, Note_on_c, 1, 63, 0
3, 58640, Note_on_c, 1, 67, 64
3, 58680, Note_on_c, 1, 67, 0
3, 58680, Note_on_c, 1, 57, 64
3, 58720, Note_on_c, 1, 57, 0
3, 58720, Note_on_c, 1, 63, 64
3, 58760, Note_on_c, 1, 63, 0
3, 58760, Note_on_c, 1, 67, 64
3, 58800, Note_on_c, 1, 67, 0
3, 58800, Note_on_c, 1, 57, 64
3, 58840, Note_on_c, 1, 57, 0
3, 58840, Note_on_c, 1, 63, 64
3, 58880, Note_on_c, 1, 63, 0
3, 58880, Note_on_c, 1, 67, 64
3, 58920, Note_on_c, 1, 67, 0
3, 58920, Note_on_c, 1, 57, 64
3, 58960, Note_on_c, 1, 57, 0
3, 58960, Note_on_c, 1, 63, 64
3, 59000, Note_on_c, 1, 63, 0
3, 59000, Note_on_c, 1, 67, 64
3, 59040, Note_on_c, 1, 67, 0
3, 59040, Note_on_c, 1, 58, 64
3, 59080, Note_on_c, 1, 58, 0
3, 59080, Note_on_c, 1, 63, 65
3, 59120, Note_on_c, 1, 63, 0
3, 59120, Note_on_c, 1, 67, 66
3, 59160, Note_on_c, 1, 67, 0
3, 59160, Note_on_c, 1, 58, 67
3, 59200, Note_on_c, 1, 58, 0
3, 59200, Note_on_c, 1, 63, 68
3, 59240, Note_on_c, 1, 63, 0
3, 59240, Note_on_c, 1, 67, 69
3, 59280, Note_on_c, 1, 67, 0
3, 59280, Note_on_c, 1, 59, 70
3, 59320, Note_on_c, 1, 59, 0
3, 59320, Note_on_c, 1, 63, 71
3, 59360, Note_on_c, 1, 63, 0
3, 59360, Note_on_c, 1, 67, 72
3, 59400, Note_on_c, 1, 67, 0
3, 59400, Note_on_c, 1, 59, 73
3, 59440, Note_on_c, 1, 59, 0
3, 59440, Note_on_c, 1, 63, 74
3, 59480, Note_on_c, 1, 63, 0
3, 59480, Note_on_c, 1, 67, 75
3, 59520, Note_on_c, 1, 67, 0
3, 59520, Note_on_c, 1, 60, 76
3, 59560, Note_on_c, 1, 60, 0
3, 59560, Note_on_c, 1, 63, 77
3, 59600, Note_on_c, 1, 63, 0
3, 59600, Note_on_c, 1, 67, 78
3, 59640, Note_on_c, 1, 67, 0
3, 59640, Note_on_c, 1, 60, 79
3, 59680, Note_on_c, 1, 60, 0
3, 59680, Note_on_c, 1, 63, 80
3, 59720, Note_on_c, 1, 63, 0
3, 59720, Note_on_c, 1, 67, 81
3, 59760, Note_on_c, 1, 67, 0
3, 59760, Note_on_c, 1, 61, 82
3, 59800, Note_on_c, 1, 61, 0
3, 59800, Note_on_c, 1, 64, 83
3, 59840, Note_on_c, 1, 64, 0
3, 59840, Note_on_c, 1, 67, 84
3, 59880, Note_on_c, 1, 67, 0
3, 59880, Note_on_c, 1, 61, 85
3, 59920, Note_on_c, 1, 61, 0
3, 59920, Note_on_c, 1, 64, 86
3, 59960, Note_on_c, 1, 64, 0
3, 59960, Note_on_c, 1, 67, 87
3, 60000, Note_on_c, 1, 67, 0
3, 60000, Note_on_c, 1, 62, 88
3, 60040, Note_on_c, 1, 62, 0
3, 60040, Note_on_c, 1, 67, 88
3, 60080, Note_on_c, 1, 67, 0
3, 60080, Note_on_c, 1, 70, 88
3, 60120, Note_on_c, 1, 70, 0
3, 60120, Note_on_c, 1, 74, 88
3, 60160, Note_on_c, 1, 74, 0
3, 60160, Note_on_c, 1, 70, 88
3, 60200, Note_on_c, 1, 70, 0
3, 60200, Note_on_c, 1, 67, 88
3, 60240, Note_on_c, 1, 67, 0
3, 60240, Note_on_c, 1, 62, 88
3, 60280, Note_on_c, 1, 62, 0
3, 60280, Note_on_c, 1, 67, 88
3, 60320, Note_on_c, 1, 67, 0
3, 60320, Note_on_c, 1, 70, 88
3, 60360, Note_on_c, 1, 70, 0
3, 60360, Note_on_c, 1, 74, 88
3, 60400, Note_on_c, 1, 74, 0
3, 60400, Note_on_c, 1, 70, 88
3, 60440, Note_on_c, 1, 70, 0
3, 60440, Note_on_c, 1, 67, 88
3, 60480, Note_on_c, 1, 67, 0
3, 60480, Note_on_c, 1, 62, 88
3, 60520, Note_on_c, 1, 62, 0
3, 60520, Note_on_c, 1, 66, 88
3, 60560, Note_on_c, 1, 66, 0
3, 60560, Note_on_c, 1, 69, 88
3, 60600, Note_on_c, 1, 69, 0
3, 60600, Note_on_c, 1, 72, 88
3, 60640, Note_on_c, 1, 72, 0
3, 60640, Note_on_c, 1, 69, 88
3, 60680, Note_on_c, 1, 69, 0
3, 60680, Note_on_c, 1, 66, 88
3, 60720, Note_on_c, 1, 66, 0
3, 60720, Note_on_c, 1, 62, 88
3, 60760, Note_on_c, 1, 62, 0
3, 60760, Note_on_c, 1, 66, 88
3, 60800, Note_on_c, 1, 66, 0
3, 60800, Note_on_c, 1, 69, 88
3, 60840, Note_on_c, 1, 69, 0
3, 60840, Note_on_c, 1, 72, 88
3, 60880, Note_on_c, 1, 72, 0
3, 60880, Note_on_c, 1, 69, 88
3, 60920, Note_on_c, 1, 69, 0
3, 60920, Note_on_c, 1, 66, 88
3, 60960, Note_on_c, 1, 66, 0
3, 60960, Note_on_c, 1, 67, 88
3, 61200, Note_on_c, 1, 67, 0
3, 61440, Note_on_c, 1, 39, 80
3, 61440, Note_on_c, 1, 51, 80
3, 61680, Note_on_c, 1, 51, 0
3, 61680, Note_on_c, 1, 39, 0
3, 61680, Note_on_c, 1, 38, 80
3, 61680, Note_on_c, 1, 50, 80
3, 61920, Note_on_c, 1, 50, 0
3, 61920, Note_on_c, 1, 38, 0
3, 61920, Note_on_c, 1, 37, 88
3, 61920, Note_on_c, 1, 49, 88
3, 62400, Note_on_c, 1, 49, 0
3, 62400, Note_on_c, 1, 37, 0
3, 62400, Note_on_c, 1, 38, 80
3, 62400, Note_on_c, 1, 50, 80
3, 62544, Note_on_c, 1, 50, 0
3, 62544, Note_on_c, 1, 38, 0
3, 62880, Note_on_c, 1, 31, 88
3, 62880, Note_on_c, 1, 43, 88
3, 63120, Note_on_c, 1, 43, 0
3, 63120, Note_on_c, 1, 31, 0
3, 64080, Note_on_c, 1, 57, 80
3, 64080, Note_on_c, 1, 64, 80
3, 64080, Note_on_c, 1, 67, 80
3, 64320, Note_on_c, 1, 67, 0
3, 64320, Note_on_c, 1, 64, 0
3, 64320, Note_on_c, 1, 57, 0
3, 64320, Note_on_c, 1, 57, 80
3, 64320, Note_on_c, 1, 62, 80
3, 64320, Note_on_c, 1, 65, 80
3, 64560, Note_on_c, 1, 65, 0
3, 64560, Note_on_c, 1, 62, 0
3, 64560, Note_on_c, 1, 57, 0
3, 64560, Note_on_c, 1, 57, 80
3, 64560, Note_on_c, 1, 61, 80
3, 64560, Note_on_c, 1, 67, 80
3, 64800, Note_on_c, 1, 67, 0
3, 64800, Note_on_c, 1, 61, 0
3, 64800, Note_on_c, 1, 57, 0
3, 64800, Note_on_c, 1, 62, 80
3, 64800, Note_on_c, 1, 65, 80
3, 64920, Note_on_c, 1, 65, 0
3, 64920, Note_on_c, 1, 62, 0
3, 66000, Note_on_c, 1, 55, 80
3, 66000, Note_on_c, 1, 62, 80
3, 66000, Note_on_c, 1, 65, 80
3, 66240, Note_on_c, 1, 65, 0
3, 66240, Note_on_c, 1, 62, 0
3, 66240, Note_on_c, 1, 55, 0
3, 66240, Note_on_c, 1, 55, 80
3, 66240, Note_on_c, 1, 60, 80
3, 66240, Note_on_c, 1, 63, 80
3, 66480, Note_on_c, 1, 63, 0
3, 66480, Note_on_c, 1, 60, 0
3, 66480, Note_on_c, 1, 55, 0
3, 66480, Note_on_c, 1, 55, 80
3, 66480, Note_on_c, 1, 59, 80
3, 66480, Note_on_c, 1, 65, 80
3, 66720, Note_on_c, 1, 65, 0
3, 66720, Note_on_c, 1, 59, 0
3, 66720, Note_on_c, 1, 55, 0
3, 66840, Note_on_c, 1, 48, 80
3, 66960, Note_on_c, 1, 48, 0
3, 66960, Note_on_c, 1, 60, 80
3, 67080, Note_on_c, 1, 60, 0
3, 67320, Note_on_c, 1, 48, 80
3, 67440, Note_on_c, 1, 48, 0
3, 67440, Note_on_c, 1, 60, 80
3, 67560, Note_on_c, 1, 60, 0
3, 67800, Note_on_c, 1, 48, 80
3, 67920, Note_on_c, 1, 48, 0
3, 67920, Note_on_c, 1, 53, 80
3, 68040, Note_on_c, 1, 53, 0
3, 68040, Note_on_c, 1, 54, 80
3, 68160, Note_on_c, 1, 54, 0
3, 68160, Note_on_c, 1, 55, 80
3, 68400, Note_on_c, 1, 55, 0
3, 68400, Note_on_c, 1, 43, 80
3, 68460, Note_on_c, 1, 43, 0
3, 68520, Note_on_c, 1, 60, 80
3, 68520, Note_on_c, 1, 63, 80
3, 68640, Note_on_c, 1, 63, 0
3, 68640, Note_on_c, 1, 60, 0
3, 68640, Note_on_c, 1, 59, 80
3, 68640, Note_on_c, 1, 62, 80
3, 69000, Note_on_c, 1, 62, 0
3, 69000, Note_on_c, 1, 59, 0
3, 69000, Note_on_c, 1, 63, 80
3, 69000, Note_on_c, 1, 67, 80
3, 69120, Note_on_c, 1, 67, 0
3, 69120, Note_on_c, 1, 63, 0
3, 69120, Note_on_c, 1, 62, 80
3, 69120, Note_on_c, 1, 65, 80
3, 69480, Note_on_c, 1, 65, 0
3, 69480, Note_on_c, 1, 62, 0
3, 69480, Note_on_c, 1, 59, 80
3, 69480, Note_on_c, 1, 67, 80
3, 69600, Note_on_c, 1, 59, 0
3, 69600, Note_on_c, 1, 60, 80
3, 69720, Note_on_c, 1, 60, 0
3, 69720, Note_on_c, 1, 63, 80
3, 69840, Note_on_c, 1, 63, 0
3, 69840, Note_on_c, 1, 67, 0
3, 69840, Note_on_c, 1, 62, 80
3, 69840, Note_on_c, 1, 65, 80
3, 69900, Note_on_c, 1, 65, 0
3, 69900, Note_on_c, 1, 62, 0
3, 69960, Note_on_c, 1, 60, 80
3, 69960, Note_on_c, 1, 63, 80
3, 70020, Note_on_c, 1, 63, 0
3, 70020, Note_on_c, 1, 60, 0
3, 70080, Note_on_c, 1, 55, 80
3, 70080, Note_on_c, 1, 60, 80
3, 70320, Note_on_c, 1, 60, 0
3, 70320, Note_on_c, 1, 59, 80
3, 70440, Note_on_c, 1, 59, 0
3, 70440, Note_on_c, 1, 55, 0
3, 70560, Note_on_c, 1, 60, 80
3, 70560, Note_on_c, 1, 63, 80
3, 70920, Note_on_c, 1, 63, 0
3, 70920, Note_on_c, 1, 60, 0
3, 70920, Note_on_c, 1, 59, 80
3, 70920, Note_on_c, 1, 62, 80
3, 70980, Note_on_c, 1, 62, 0
3, 70980, Note_on_c, 1, 59, 0
3, 71040, Note_on_c, 1, 62, 80
3, 71040, Note_on_c, 1, 65, 80
3, 71400, Note_on_c, 1, 65, 0
3, 71400, Note_on_c, 1, 62, 0
3, 71400, Note_on_c, 1, 60, 80
3, 71400, Note_on_c, 1, 63, 80
3, 71460, Note_on_c, 1, 63, 0
3, 71460, Note_on_c, 1, 60, 0
3, 71520, Note_on_c, 1, 63, 80
3, 71520, Note_on_c, 1, 67, 80
3, 71880, Note_on_c, 1, 67, 0
3, 71880, Note_on_c, 1, 63, 0
3, 71880, Note_on_c, 1, 62, 80
3, 71880, Note_on_c, 1, 65, 80
3, 71940, Note_on_c, 1, 65, 0
3, 71940, Note_on_c, 1, 62, 0
3, 72000, Note_on_c, 1, 65, 80
3, 72000, Note_on_c, 1, 68, 80
3, 72360, Note_on_c, 1, 68, 0
3, 72360, Note_on_c, 1, 65, 0
3, 72360, Note_on_c, 1, 63, 80
3, 72360, Note_on_c, 1, 67, 80
3, 72420, Note_on_c, 1, 67, 0
3, 72420, Note_on_c, 1, 63, 0
3, 72480, Note_on_c, 1, 67, 88
3, 72480, Note_on_c, 1, 70, 88
3, 72840, Note_on_c, 1, 70, 0
3, 72840, Note_on_c, 1, 67, 0
3, 72840, Note_on_c, 1, 66, 91
3, 72840, Note_on_c, 1, 69, 91
3, 72900, Note_on_c, 1, 69, 0
3, 72900, Note_on_c, 1, 66, 0
3, 72960, Note_on_c, 1, 65, 92
3, 72960, Note_on_c, 1, 68, 92
3, 73080, Note_on_c, 1, 68, 0
3, 73080, Note_on_c, 1, 65, 0
3, 73080, Note_on_c, 1, 64, 93
3, 73080, Note_on_c, 1, 67, 93
3, 73140, Note_on_c, 1, 67, 0
3, 73140, Note_on_c, 1, 64, 0
3, 73200, Note_on_c, 1, 63, 94
3, 73200, Note_on_c, 1, 66, 94
3, 73320, Note_on_c, 1, 66, 0
3, 73320, Note_on_c, 1, 63, 0
3, 73320, Note_on_c, 1, 62, 95
3, 73320, Note_on_c, 1, 65, 95
3, 73380, Note_on_c, 1, 65, 0
3, 73380, Note_on_c, 1, 62, 0
3, 73920, Note_on_c, 1, 60, 56
3, 73920, Note_on_c, 1, 63, 56
3, 74400, Note_on_c, 1, 63, 0
3, 74400, Note_on_c, 1, 60, 0
3, 74400, Note_on_c, 1, 59, 56
3, 74400, Note_on_c, 1, 62, 56
3, 74940, Note_on_c, 1, 62, 0
3, 74940, Note_on_c, 1, 59, 0
3, 75480, Note_on_c, 1, 43, 80
3, 75600, Note_on_c, 1, 43, 0
3, 75600, Note_on_c, 1, 47, 80
3, 75720, Note_on_c, 1, 47, 0
3, 75720, Note_on_c, 1, 50, 80
3, 75840, Note_on_c, 1, 50, 0
3, 75840, Note_on_c, 1, 55, 80
3, 76080, Note_on_c, 1, 55, 0
3, 76440, Note_on_c, 1, 43, 80
3, 76560, Note_on_c, 1, 43, 0
3, 76560, Note_on_c, 1, 48, 80
3, 76680, Note_on_c, 1, 48, 0
3, 76680, Note_on_c, 1, 51, 80
3, 76800, Note_on_c, 1, 51, 0
3, 76800, Note_on_c, 1, 55, 80
3, 77040, Note_on_c, 1, 55, 0
3, 77400, Note_on_c, 1, 43, 80
3, 77460, Note_on_c, 1, 43, 0
3, 77520, Note_on_c, 1, 47, 80
3, 77580, Note_on_c, 1, 47, 0
3, 77580, Note_on_c, 1, 43, 80
3, 77610, Note_on_c, 1, 43, 0
3, 77640, Note_on_c, 1, 50, 80
3, 77670, Note_on_c, 1, 50, 0
3, 77700, Note_on_c, 1, 47, 80
3, 77730, Note_on_c, 1, 47, 0
3, 77760, Note_on_c, 1, 55, 80
3, 78000, Note_on_c, 1, 55, 0
3, 78360, Note_on_c, 1, 60, 66
3, 78420, Note_on_c, 1, 60, 0
3, 78420, Note_on_c, 1, 48, 67
3, 78480, Note_on_c, 1, 48, 0
3, 78600, Note_on_c, 1, 58, 70
3, 78660, Note_on_c, 1, 58, 0
3, 78660, Note_on_c, 1, 46, 71
3, 78720, Note_on_c, 1, 46, 0
3, 78840, Note_on_c, 1, 57, 74
3, 78900, Note_on_c, 1, 57, 0
3, 78900, Note_on_c, 1, 45, 75
3, 78960, Note_on_c, 1, 45, 0
3, 79080, Note_on_c, 1, 56, 78
3, 79140, Note_on_c, 1, 56, 0
3, 79140, Note_on_c, 1, 44, 79
3, 79200, Note_on_c, 1, 44, 0
3, 79200, Note_on_c, 1, 43, 80
3, 79260, Note_on_c, 1, 43, 0
3, 79260, Note_on_c, 1, 55, 80
3, 79320, Note_on_c, 1, 55, 0
3, 80160, Note_on_c, 1, 56, 80
3, 80220, Note_on_c, 1, 56, 0
3, 80220, Note_on_c, 1, 55, 80
3, 80280, Note_on_c, 1, 55, 0
3, 80280, Note_on_c, 1, 53, 80
3, 80340, Note_on_c, 1, 53, 0
3, 82200, Note_on_c, 1, 65, 56
3, 82200, Note_on_c, 1, 62, 56
3, 82200, Note_on_c, 1, 55, 56
3, 82272, Note_on_c, 1, 55, 0
3, 82272, Note_on_c, 1, 62, 0
3, 82272, Note_on_c, 1, 65, 0
3, 82320, Note_on_c, 1, 65, 56
3, 82320, Note_on_c, 1, 62, 56
3, 82320, Note_on_c, 1, 55, 56
3, 82392, Note_on_c, 1, 55, 0
3, 82392, Note_on_c, 1, 62, 0
3, 82392, Note_on_c, 1, 65, 0
3, 82440, Note_on_c, 1, 65, 56
3, 82440, Note_on_c, 1, 62, 56
3, 82440, Note_on_c, 1, 55, 56
3, 82512, Note_on_c, 1, 55, 0
3, 82512, Note_on_c, 1, 62, 0
3, 82512, Note_on_c, 1, 65, 0
3, 82560, Note_on_c, 1, 65, 80
3, 82560, Note_on_c, 1, 62, 80
3, 82560, Note_on_c, 1, 55, 80
3, 83040, Note_on_c, 1, 55, 0
3, 83040, Note_on_c, 1, 62, 0
3, 83040, Note_on_c, 1, 65, 0
3, 83160, Note_on_c, 1, 56, 72
3, 83200, Note_on_c, 1, 56, 0
3, 83200, Note_on_c, 1, 62, 72
3, 83240, Note_on_c, 1, 62, 0
3, 83240, Note_on_c, 1, 65, 72
3, 83280, Note_on_c, 1, 65, 0
3, 83280, Note_on_c, 1, 56, 72
3, 83320, Note_on_c, 1, 56, 0
3, 83320, Note_on_c, 1, 62, 72
3, 83360, Note_on_c, 1, 62, 0
3, 83360, Note_on_c, 1, 65, 72
3, 83400, Note_on_c, 1, 65, 0
3, 83400, Note_on_c, 1, 56, 72
3, 83440, Note_on_c, 1, 56, 0
3, 83440, Note_on_c, 1, 62, 72
3, 83480, Note_on_c, 1, 62, 0
3, 83480, Note_on_c, 1, 65, 72
3, 83520, Note_on_c, 1, 65, 0
3, 83520, Note_on_c, 1, 56, 56
3, 84000, Note_on_c, 1, 56, 0
3, 84120, Note_on_c, 1, 56, 56
3, 84160, Note_on_c, 1, 56, 0
3, 84160, Note_on_c, 1, 62, 56
3, 84200, Note_on_c, 1, 62, 0
3, 84200, Note_on_c, 1, 65, 56
3, 84240, Note_on_c, 1, 65, 0
3, 84240, Note_on_c, 1, 56, 56
3, 84280, Note_on_c, 1, 56, 0
3, 84280, Note_on_c, 1, 62, 56
3, 84320, Note_on_c, 1, 62, 0
3, 84320, Note_on_c, 1, 65, 56
3, 84360, Note_on_c, 1, 65, 0
3, 84360, Note_on_c, 1, 56, 56
3, 84400, Note_on_c, 1, 56, 0
3, 84400, Note_on_c, 1, 62, 56
3, 84440, Note_on_c, 1, 65, 56
3, 84480, Note_on_c, 1, 56, 56
3, 85920, Note_on_c, 1, 56, 0
3, 85920, Note_on_c, 1, 65, 0
3, 85920, Note_on_c, 1, 62, 0
3, 86040, Note_on_c, 1, 55, 43
3, 86160, Note_on_c, 1, 65, 42
3, 86520, Note_on_c, 1, 55, 0
3, 86520, Note_on_c, 1, 55, 39
3, 86640, Note_on_c, 1, 65, 0
3, 86640, Note_on_c, 1, 65, 38
3, 87840, Note_on_c, 1, 65, 0
3, 87840, Note_on_c, 1, 55, 0
3, 87840, Note_on_c, 1, 60, 88
3, 87840, Note_on_c, 1, 55, 88
3, 87840, Note_on_c, 1, 51, 88
3, 88080, Note_on_c, 1, 51, 0
3, 88080, Note_on_c, 1, 55, 0
3, 88080, Note_on_c, 1, 60, 0
3, 88320, Note_on_c, 1, 60, 80
3, 88320, Note_on_c, 1, 56, 80
3, 88320, Note_on_c, 1, 53, 80
3, 88560, Note_on_c, 1, 53, 0
3, 88560, Note_on_c, 1, 56, 0
3, 88560, Note_on_c, 1, 60, 0
3, 88920, Note_on_c, 1, 63, 56
3, 88920, Note_on_c, 1, 55, 56
3, 89040, Note_on_c, 1, 55, 0
3, 89040, Note_on_c, 1, 63, 0
3, 89040, Note_on_c, 1, 63, 56
3, 89040, Note_on_c, 1, 55, 56
3, 89160, Note_on_c, 1, 55, 0
3, 89160, Note_on_c, 1, 63, 0
3, 89160, Note_on_c, 1, 62, 56
3, 89160, Note_on_c, 1, 55, 56
3, 89280, Note_on_c, 1, 55, 0
3, 89280, Note_on_c, 1, 62, 0
3, 89400, Note_on_c, 1, 63, 80
3, 89400, Note_on_c, 1, 55, 80
3, 89520, Note_on_c, 1, 55, 0
3, 89520, Note_on_c, 1, 63, 0
3, 89520, Note_on_c, 1, 63, 80
3, 89520, Note_on_c, 1, 55, 80
3, 89640, Note_on_c, 1, 55, 0
3, 89640, Note_on_c, 1, 63, 0
3, 89640, Note_on_c, 1, 62, 80
3, 89640, Note_on_c, 1, 55, 80
3, 89760, Note_on_c, 1, 55, 0
3, 89760, Note_on_c, 1, 62, 0
3, 89880, Note_on_c, 1, 63, 56
3, 89880, Note_on_c, 1, 55, 56
3, 90000, Note_on_c, 1, 55, 0
3, 90000, Note_on_c, 1, 63, 0
3, 90000, Note_on_c, 1, 63, 56
3, 90000, Note_on_c, 1, 55, 56
3, 90120, Note_on_c, 1, 55, 0
3, 90120, Note_on_c, 1, 63, 0
3, 90120, Note_on_c, 1, 62, 56
3, 90120, Note_on_c, 1, 55, 56
3, 90240, Note_on_c, 1, 55, 0
3, 90240, Note_on_c, 1, 62, 0
3, 90360, Note_on_c, 1, 63, 82
3, 90360, Note_on_c, 1, 55, 82
3, 90480, Note_on_c, 1, 55, 0
3, 90480, Note_on_c, 1, 63, 0
3, 90480, Note_on_c, 1, 63, 84
3, 90480, Note_on_c, 1, 55, 84
3, 90600, Note_on_c, 1, 55, 0
3, 90600, Note_on_c, 1, 63, 0
3, 90600, Note_on_c, 1, 65, 86
3, 90600, Note_on_c, 1, 55, 86
3, 90720, Note_on_c, 1, 55, 0
3, 90720, Note_on_c, 1, 65, 0
3, 90720, Note_on_c, 1, 62, 88
3, 90720, Note_on_c, 1, 55, 88
3, 90840, Note_on_c, 1, 55, 0
3, 90840, Note_on_c, 1, 62, 0
3, 90840, Note_on_c, 1, 63, 90
3, 90840, Note_on_c, 1, 55, 90
3, 90960, Note_on_c, 1, 55, 0
3, 90960, Note_on_c, 1, 63, 0
3, 90960, Note_on_c, 1, 59, 92
3, 90960, Note_on_c, 1, 55, 92
3, 91080, Note_on_c, 1, 55, 0
3, 91080, Note_on_c, 1, 59, 0
3, 91080, Note_on_c, 1, 60, 94
3, 91080, Note_on_c, 1, 55, 94
3, 91200, Note_on_c, 1, 55, 0
3, 91200, Note_on_c, 1, 60, 0
3, 91200, Note_on_c, 1, 55, 96
3, 91200, Note_on_c, 1, 62, 96
3, 91440, Note_on_c, 1, 62, 0
3, 91440, Note_on_c, 1, 55, 0
3, 91680, Note_on_c, 1, 60, 48
3, 91720, Note_on_c, 1, 60, 0
3, 91720, Note_on_c, 1, 63, 48
3, 91760, Note_on_c, 1, 63, 0
3, 91760, Note_on_c, 1, 67, 48
3, 91800, Note_on_c, 1, 67, 0
3, 91800, Note_on_c, 1, 60, 48
3, 91840, Note_on_c, 1, 60, 0
3, 91840, Note_on_c, 1, 63, 48
3, 91880, Note_on_c, 1, 63, 0
3, 91880, Note_on_c, 1, 67, 48
3, 91920, Note_on_c, 1, 67, 0
3, 91920, Note_on_c, 1, 60, 48
3, 91960, Note_on_c, 1, 60, 0
3, 91960, Note_on_c, 1, 63, 48
3, 92000, Note_on_c, 1, 63, 0
3, 92000, Note_on_c, 1, 67, 48
3, 92040, Note_on_c, 1, 67, 0
3, 92040, Note_on_c, 1, 60, 48
3, 92080, Note_on_c, 1, 60, 0
3, 92080, Note_on_c, 1, 63, 48
3, 92120, Note_on_c, 1, 63, 0
3, 92120, Note_on_c, 1, 67, 48
3, 92160, Note_on_c, 1, 67, 0
3, 92160, Note_on_c, 1, 62, 48
3, 92200, Note_on_c, 1, 62, 0
3, 92200, Note_on_c, 1, 65, 48
3, 92240, Note_on_c, 1, 65, 0
3, 92240, Note_on_c, 1, 67, 48
3, 92280, Note_on_c, 1, 67, 0
3, 92280, Note_on_c, 1, 62, 48
3, 92320, Note_on_c, 1, 62, 0
3, 92320, Note_on_c, 1, 65, 48
3, 92360, Note_on_c, 1, 65, 0
3, 92360, Note_on_c, 1, 67, 48
3, 92400, Note_on_c, 1, 67, 0
3, 92400, Note_on_c, 1, 59, 48
3, 92440, Note_on_c, 1, 59, 0
3, 92440, Note_on_c, 1, 62, 48
3, 92480, Note_on_c, 1, 62, 0
3, 92480, Note_on_c, 1, 67, 48
3, 92520, Note_on_c, 1, 67, 0
3, 92520, Note_on_c, 1, 59, 48
3, 92560, Note_on_c, 1, 59, 0
3, 92560, Note_on_c, 1, 62, 48
3, 92600, Note_on_c, 1, 62, 0
3, 92600, Note_on_c, 1, 67, 48
3, 92640, Note_on_c, 1, 67, 0
3, 92640, Note_on_c, 1, 60, 48
3, 92680, Note_on_c, 1, 60, 0
3, 92680, Note_on_c, 1, 63, 48
3, 92720, Note_on_c, 1, 63, 0
3, 92720, Note_on_c, 1, 67, 48
3, 92760, Note_on_c, 1, 67, 0
3, 92760, Note_on_c, 1, 60, 48
3, 92800, Note_on_c, 1, 60, 0
3, 92800, Note_on_c, 1, 63, 48
3, 92840, Note_on_c, 1, 63, 0
3, 92840, Note_on_c, 1, 67, 48
3, 92880, Note_on_c, 1, 67, 0
3, 92880, Note_on_c, 1, 60, 48
3, 92920, Note_on_c, 1, 60, 0
3, 92920, Note_on_c, 1, 63, 48
3, 92960, Note_on_c, 1, 63, 0
3, 92960, Note_on_c, 1, 67, 48
3, 93000, Note_on_c, 1, 67, 0
3, 93000, Note_on_c, 1, 60, 48
3, 93040, Note_on_c, 1, 60, 0
3, 93040, Note_on_c, 1, 63, 48
3, 93080, Note_on_c, 1, 63, 0
3, 93080, Note_on_c, 1, 67, 48
3, 93120, Note_on_c, 1, 67, 0
3, 93120, Note_on_c, 1, 62, 48
3, 93160, Note_on_c, 1, 62, 0
3, 93160, Note_on_c, 1, 65, 49
3, 93200, Note_on_c, 1, 65, 0
3, 93200, Note_on_c, 1, 67, 50
3, 93240, Note_on_c, 1, 67, 0
3, 93240, Note_on_c, 1, 62, 51
3, 93280, Note_on_c, 1, 62, 0
3, 93280, Note_on_c, 1, 65, 52
3, 93320, Note_on_c, 1, 65, 0
3, 93320, Note_on_c, 1, 67, 53
3, 93360, Note_on_c, 1, 67, 0
3, 93360, Note_on_c, 1, 59, 54
3, 93400, Note_on_c, 1, 59, 0
3, 93400, Note_on_c, 1, 62, 55
3, 93440, Note_on_c, 1, 62, 0
3, 93440, Note_on_c, 1, 67, 56
3, 93480, Note_on_c, 1, 67, 0
3, 93480, Note_on_c, 1, 59, 57
3, 93520, Note_on_c, 1, 59, 0
3, 93520, Note_on_c, 1, 62, 58
3, 93560, Note_on_c, 1, 62, 0
3, 93560, Note_on_c, 1, 67, 59
3, 93600, Note_on_c, 1, 67, 0
3, 93600, Note_on_c, 1, 60, 60
3, 93640, Note_on_c, 1, 60, 0
3, 93640, Note_on_c, 1, 63, 61
3, 93680, Note_on_c, 1, 63, 0
3, 93680, Note_on_c, 1, 67, 62
3, 93720, Note_on_c, 1, 67, 0
3, 93720, Note_on_c, 1, 60, 63
3, 93760, Note_on_c, 1, 60, 0
3, 93760, Note_on_c, 1, 63, 64
3, 93800, Note_on_c, 1, 63, 0
3, 93800, Note_on_c, 1, 67, 65
3, 93840, Note_on_c, 1, 67, 0
3, 93840, Note_on_c, 1, 62, 66
3, 93880, Note_on_c, 1, 62, 0
3, 93880, Note_on_c, 1, 65, 67
3, 93920, Note_on_c, 1, 65, 0
3, 93920, Note_on_c, 1, 67, 68
3, 93960, Note_on_c, 1, 67, 0
3, 93960, Note_on_c, 1, 59, 69
3, 94000, Note_on_c, 1, 59, 0
3, 94000, Note_on_c, 1, 62, 70
3, 94040, Note_on_c, 1, 62, 0
3, 94040, Note_on_c, 1, 67, 71
3, 94080, Note_on_c, 1, 67, 0
3, 94080, Note_on_c, 1, 60, 80
3, 94120, Note_on_c, 1, 60, 0
3, 94120, Note_on_c, 1, 63, 80
3, 94160, Note_on_c, 1, 63, 0
3, 94160, Note_on_c, 1, 67, 80
3, 94200, Note_on_c, 1, 67, 0
3, 94200, Note_on_c, 1, 60, 80
3, 94240, Note_on_c, 1, 60, 0
3, 94240, Note_on_c, 1, 63, 80
3, 94280, Note_on_c, 1, 63, 0
3, 94280, Note_on_c, 1, 67, 80
3, 94320, Note_on_c, 1, 67, 0
3, 94320, Note_on_c, 1, 62, 80
3, 94360, Note_on_c, 1, 62, 0
3, 94360, Note_on_c, 1, 65, 80
3, 94400, Note_on_c, 1, 65, 0
3, 94400, Note_on_c, 1, 67, 80
3, 94440, Note_on_c, 1, 67, 0
3, 94440, Note_on_c, 1, 59, 80
3, 94480, Note_on_c, 1, 59, 0
3, 94480, Note_on_c, 1, 62, 80
3, 94520, Note_on_c, 1, 62, 0
3, 94520, Note_on_c, 1, 67, 80
3, 94560, Note_on_c, 1, 67, 0
3, 94560, Note_on_c, 1, 60, 80
3, 94680, Note_on_c, 1, 60, 0
3, 95040, Note_on_c, 1, 56, 80
3, 95040, Note_on_c, 1, 53, 80
3, 95280, Note_on_c, 1, 53, 0
3, 95280, Note_on_c, 1, 56, 0
3, 96120, Note_on_c, 1, 55, 80
3, 96120, Note_on_c, 1, 63, 80
3, 96240, Note_on_c, 1, 63, 0
3, 96240, Note_on_c, 1, 55, 0
3, 96240, Note_on_c, 1, 55, 80
3, 96240, Note_on_c, 1, 63, 80
3, 96360, Note_on_c, 1, 63, 0
3, 96360, Note_on_c, 1, 55, 0
3, 96360, Note_on_c, 1, 55, 80
3, 96360, Note_on_c, 1, 62, 80
3, 96480, Note_on_c, 1, 62, 0
3, 96480, Note_on_c, 1, 55, 0
3, 96480, Note_on_c, 1, 48, 72
3, 96480, Note_on_c, 1, 60, 72
3, 96564, Note_on_c, 1, 60, 0
3, 96564, Note_on_c, 1, 48, 0
3, 96600, Note_on_c, 1, 48, 72
3, 96600, Note_on_c, 1, 60, 72
3, 96684, Note_on_c, 1, 60, 0
3, 96684, Note_on_c, 1, 48, 0
3, 96720, Note_on_c, 1, 48, 72
3, 96720, Note_on_c, 1, 60, 72
3, 96804, Note_on_c, 1, 60, 0
3, 96804, Note_on_c, 1, 48, 0
3, 96840, Note_on_c, 1, 48, 72
3, 96840, Note_on_c, 1, 60, 72
3, 96924, Note_on_c, 1, 60, 0
3, 96924, Note_on_c, 1, 48, 0
3, 96960, Note_on_c, 1, 48, 72
3, 96960, Note_on_c, 1, 60, 72
3, 97044, Note_on_c, 1, 60, 0
3, 97044, Note_on_c, 1, 48, 0
3, 97080, Note_on_c, 1, 48, 69
3, 97080, Note_on_c, 1, 60, 69
3, 97164, Note_on_c, 1, 60, 0
3, 97164, Note_on_c, 1, 48, 0
3, 97200, Note_on_c, 1, 48, 66
3, 97200, Note_on_c, 1, 60, 66
3, 97284, Note_on_c, 1, 60, 0
3, 97284, Note_on_c, 1, 48, 0
3, 97320, Note_on_c, 1, 48, 63
3, 97320, Note_on_c, 1, 60, 63
3, 97404, Note_on_c, 1, 60, 0
3, 97404, Note_on_c, 1, 48, 0
3, 97440, Note_on_c, 1, 48, 60
3, 97440, Note_on_c, 1, 36, 60
3, 97524, Note_on_c, 1, 36, 0
3, 97524, Note_on_c, 1, 48, 0
3, 97560, Note_on_c, 1, 48, 57
3, 97560, Note_on_c, 1, 36, 57
3, 97644, Note_on_c, 1, 36, 0
3, 97644, Note_on_c, 1, 48, 0
3, 97680, Note_on_c, 1, 48, 54
3, 97680, Note_on_c, 1, 36, 54
3, 97764, Note_on_c, 1, 36, 0
3, 97764, Note_on_c, 1, 48, 0
3, 97800, Note_on_c, 1, 48, 51
3, 97800, Note_on_c, 1, 36, 51
3, 97884, Note_on_c, 1, 36, 0
3, 97884, Note_on_c, 1, 48, 0
3, 97920, Note_on_c, 1, 48, 48
3, 97920, Note_on_c, 1, 36, 48
3, 98004, Note_on_c, 1, 36, 0
3, 98004, Note_on_c, 1, 48, 0
3, 98040, Note_on_c, 1, 48, 45
3, 98040, Note_on_c, 1, 36, 45
3, 98124, Note_on_c, 1, 36, 0
3, 98124, Note_on_c, 1, 48, 0
3, 98160, Note_on_c, 1, 48, 42
3, 98160, Note_on_c, 1, 36, 42
3, 98244, Note_on_c, 1, 36, 0
3, 98244, Note_on_c, 1, 48, 0
3, 98280, Note_on_c, 1, 48, 39
3, 98280, Note_on_c, 1, 36, 39
3, 98364, Note_on_c, 1, 36, 0
3, 98364, Note_on_c, 1, 48, 0
3, 98400, Note_on_c, 1, 36, 36
3, 98400, Note_on_c, 1, 48, 36
3, 98640, Note_on_c, 1, 48, 0
3, 98640, Note_on_c, 1, 36, 0
3, 98640, End_track
4, 0, Start_track
4, 0, MIDI_port, 0
4, 0, Title_t, "MIDI by Marty Weimer  4/25/97"
4, 0, End_track
5, 0, Start_track
5, 0, MIDI_port, 0
5, 0, Title_t, "weimermt@libby.org  Eureka, MT  USA"
5, 0, End_track
0, 0, End_of_file
