0, 0, Header, 1, 5, 240
1, 0, Start_track
1, 0, Time_signature, 3, 2, 24, 8
1, 0, Key_signature, 0, "major"
1, 0, Tempo, 1111111
1, 16800, Tempo, 1176471
1, 17040, Tempo, 1250000
1, 17280, Tempo, 1333333
1, 18000, Tempo, 1111111
1, 47040, Tempo, 1176471
1, 47280, Tempo, 1250000
1, 47520, Tempo, 1333333
1, 47520, End_track
2, 0, Start_track
2, 0, MIDI_port, 0
2, 0, Title_t, "Piano Sonata No.20 in c"
2, 0, Program_c, 0, 0
2, 0, Control_c, 0, 7, 127
2, 0, Control_c, 0, 10, 72
2, 0, Note_on_c, 0, 63, 64
2, 240, Note_on_c, 0, 63, 0
2, 240, Note_on_c, 0, 63, 64
2, 480, Note_on_c, 0, 63, 0
2, 480, Note_on_c, 0, 63, 64
2, 720, Note_on_c, 0, 63, 0
2, 720, Note_on_c, 0, 62, 64
2, 780, Note_on_c, 0, 62, 0
2, 780, Note_on_c, 0, 63, 64
2, 810, Note_on_c, 0, 63, 0
2, 810, Note_on_c, 0, 65, 64
2, 840, Note_on_c, 0, 65, 0
2, 840, Note_on_c, 0, 63, 64
2, 860, Note_on_c, 0, 63, 0
2, 860, Note_on_c, 0, 65, 64
2, 880, Note_on_c, 0, 65, 0
2, 880, Note_on_c, 0, 63, 64
2, 900, Note_on_c, 0, 63, 0
2, 900, Note_on_c, 0, 65, 64
2, 920, Note_on_c, 0, 65, 0
2, 920, Note_on_c, 0, 63, 64
2, 940, Note_on_c, 0, 63, 0
2, 940, Note_on_c, 0, 65, 64
2, 960, Note_on_c, 0, 65, 0
2, 960, Note_on_c, 0, 63, 64
2, 1140, Note_on_c, 0, 63, 0
2, 1140, Note_on_c, 0, 65, 64
2, 1170, Note_on_c, 0, 65, 0
2, 1170, Note_on_c, 0, 67, 64
2, 1200, Note_on_c, 0, 67, 0
2, 1200, Note_on_c, 0, 68, 64
2, 1380, Note_on_c, 0, 68, 0
2, 1380, Note_on_c, 0, 67, 64
2, 1440, Note_on_c, 0, 67, 0
2, 1440, Note_on_c, 0, 67, 64
2, 1560, Note_on_c, 0, 67, 0
2, 1560, Note_on_c, 0, 65, 64
2, 1580, Note_on_c, 0, 65, 0
2, 1580, Note_on_c, 0, 67, 64
2, 1600, Note_on_c, 0, 67, 0
2, 1600, Note_on_c, 0, 65, 64
2, 1620, Note_on_c, 0, 65, 0
2, 1620, Note_on_c, 0, 63, 64
2, 1650, Note_on_c, 0, 63, 0
2, 1650, Note_on_c, 0, 65, 64
2, 1680, Note_on_c, 0, 65, 0
2, 1680, Note_on_c, 0, 63, 64
2, 1980, Note_on_c, 0, 63, 0
2, 1980, Note_on_c, 0, 65, 64
2, 2022, Note_on_c, 0, 65, 0
2, 2040, Note_on_c, 0, 67, 64
2, 2082, Note_on_c, 0, 67, 0
2, 2100, Note_on_c, 0, 68, 64
2, 2142, Note_on_c, 0, 68, 0
2, 2160, Note_on_c, 0, 63, 64
2, 2280, Note_on_c, 0, 63, 0
2, 2280, Note_on_c, 0, 61, 64
2, 2300, Note_on_c, 0, 61, 0
2, 2300, Note_on_c, 0, 63, 64
2, 2320, Note_on_c, 0, 63, 0
2, 2320, Note_on_c, 0, 61, 64
2, 2340, Note_on_c, 0, 61, 0
2, 2340, Note_on_c, 0, 60, 64
2, 2370, Note_on_c, 0, 60, 0
2, 2370, Note_on_c, 0, 61, 64
2, 2400, Note_on_c, 0, 61, 0
2, 2400, Note_on_c, 0, 60, 64
2, 2640, Note_on_c, 0, 60, 0
2, 2880, Note_on_c, 0, 65, 64
2, 3120, Note_on_c, 0, 65, 0
2, 3120, Note_on_c, 0, 65, 64
2, 3420, Note_on_c, 0, 65, 0
2, 3420, Note_on_c, 0, 69, 64
2, 3480, Note_on_c, 0, 69, 0
2, 3480, Note_on_c, 0, 72, 64
2, 3540, Note_on_c, 0, 72, 0
2, 3540, Note_on_c, 0, 75, 64
2, 3600, Note_on_c, 0, 75, 0
2, 3600, Note_on_c, 0, 75, 64
2, 3660, Note_on_c, 0, 75, 0
2, 3660, Note_on_c, 0, 73, 64
2, 3720, Note_on_c, 0, 73, 0
2, 3720, Note_on_c, 0, 72, 64
2, 3780, Note_on_c, 0, 72, 0
2, 3780, Note_on_c, 0, 73, 64
2, 3840, Note_on_c, 0, 73, 0
2, 3840, Note_on_c, 0, 73, 64
2, 4170, Note_on_c, 0, 73, 0
2, 4170, Note_on_c, 0, 70, 64
2, 4200, Note_on_c, 0, 70, 0
2, 4200, Note_on_c, 0, 72, 64
2, 4220, Note_on_c, 0, 72, 0
2, 4220, Note_on_c, 0, 70, 64
2, 4240, Note_on_c, 0, 70, 0
2, 4240, Note_on_c, 0, 72, 64
2, 4260, Note_on_c, 0, 72, 0
2, 4260, Note_on_c, 0, 70, 64
2, 4280, Note_on_c, 0, 70, 0
2, 4280, Note_on_c, 0, 72, 64
2, 4300, Note_on_c, 0, 72, 0
2, 4300, Note_on_c, 0, 70, 64
2, 4320, Note_on_c, 0, 70, 0
2, 4320, Note_on_c, 0, 72, 64
2, 4410, Note_on_c, 0, 72, 0
2, 4410, Note_on_c, 0, 68, 64
2, 4440, Note_on_c, 0, 68, 0
2, 4440, Note_on_c, 0, 70, 64
2, 4460, Note_on_c, 0, 70, 0
2, 4460, Note_on_c, 0, 68, 64
2, 4480, Note_on_c, 0, 68, 0
2, 4480, Note_on_c, 0, 70, 64
2, 4500, Note_on_c, 0, 70, 0
2, 4500, Note_on_c, 0, 68, 64
2, 4520, Note_on_c, 0, 68, 0
2, 4520, Note_on_c, 0, 70, 64
2, 4540, Note_on_c, 0, 70, 0
2, 4540, Note_on_c, 0, 68, 64
2, 4560, Note_on_c, 0, 68, 0
2, 4560, Note_on_c, 0, 65, 64
2, 4680, Note_on_c, 0, 65, 0
2, 4680, Note_on_c, 0, 77, 64
2, 4800, Note_on_c, 0, 77, 0
2, 4800, Note_on_c, 0, 75, 64
2, 4860, Note_on_c, 0, 75, 0
2, 4860, Note_on_c, 0, 73, 64
2, 4920, Note_on_c, 0, 73, 0
2, 4920, Note_on_c, 0, 72, 64
2, 4980, Note_on_c, 0, 72, 0
2, 4980, Note_on_c, 0, 70, 64
2, 5040, Note_on_c, 0, 70, 0
2, 5040, Note_on_c, 0, 68, 64
2, 5280, Note_on_c, 0, 68, 0
2, 5280, Note_on_c, 0, 67, 64
2, 5300, Note_on_c, 0, 67, 0
2, 5300, Note_on_c, 0, 68, 64
2, 5320, Note_on_c, 0, 68, 0
2, 5320, Note_on_c, 0, 67, 64
2, 5340, Note_on_c, 0, 67, 0
2, 5340, Note_on_c, 0, 68, 64
2, 5360, Note_on_c, 0, 68, 0
2, 5360, Note_on_c, 0, 67, 64
2, 5380, Note_on_c, 0, 67, 0
2, 5380, Note_on_c, 0, 68, 64
2, 5400, Note_on_c, 0, 68, 0
2, 5400, Note_on_c, 0, 67, 64
2, 5520, Note_on_c, 0, 67, 0
2, 5760, Note_on_c, 0, 69, 64
2, 5820, Note_on_c, 0, 69, 0
2, 5820, Note_on_c, 0, 70, 64
2, 6000, Note_on_c, 0, 70, 0
2, 6000, Note_on_c, 0, 69, 64
2, 6060, Note_on_c, 0, 69, 0
2, 6060, Note_on_c, 0, 70, 64
2, 6240, Note_on_c, 0, 70, 0
2, 6240, Note_on_c, 0, 69, 64
2, 6300, Note_on_c, 0, 69, 0
2, 6300, Note_on_c, 0, 70, 64
2, 6480, Note_on_c, 0, 70, 0
2, 6480, Note_on_c, 0, 69, 64
2, 6540, Note_on_c, 0, 69, 0
2, 6540, Note_on_c, 0, 70, 64
2, 6570, Note_on_c, 0, 70, 0
2, 6570, Note_on_c, 0, 72, 64
2, 6600, Note_on_c, 0, 72, 0
2, 6600, Note_on_c, 0, 70, 64
2, 6620, Note_on_c, 0, 70, 0
2, 6620, Note_on_c, 0, 72, 64
2, 6640, Note_on_c, 0, 72, 0
2, 6640, Note_on_c, 0, 70, 64
2, 6660, Note_on_c, 0, 70, 0
2, 6660, Note_on_c, 0, 72, 64
2, 6680, Note_on_c, 0, 72, 0
2, 6680, Note_on_c, 0, 70, 64
2, 6700, Note_on_c, 0, 70, 0
2, 6700, Note_on_c, 0, 72, 64
2, 6720, Note_on_c, 0, 72, 0
2, 6720, Note_on_c, 0, 70, 64
2, 6900, Note_on_c, 0, 70, 0
2, 6900, Note_on_c, 0, 72, 64
2, 6930, Note_on_c, 0, 72, 0
2, 6930, Note_on_c, 0, 74, 64
2, 6960, Note_on_c, 0, 74, 0
2, 6960, Note_on_c, 0, 75, 64
2, 6980, Note_on_c, 0, 75, 0
2, 6980, Note_on_c, 0, 77, 64
2, 7000, Note_on_c, 0, 77, 0
2, 7000, Note_on_c, 0, 75, 64
2, 7020, Note_on_c, 0, 75, 0
2, 7020, Note_on_c, 0, 77, 64
2, 7040, Note_on_c, 0, 77, 0
2, 7040, Note_on_c, 0, 75, 64
2, 7060, Note_on_c, 0, 75, 0
2, 7060, Note_on_c, 0, 77, 64
2, 7080, Note_on_c, 0, 77, 0
2, 7080, Note_on_c, 0, 75, 64
2, 7100, Note_on_c, 0, 75, 0
2, 7100, Note_on_c, 0, 77, 64
2, 7120, Note_on_c, 0, 77, 0
2, 7120, Note_on_c, 0, 75, 64
2, 7140, Note_on_c, 0, 75, 0
2, 7140, Note_on_c, 0, 77, 64
2, 7170, Note_on_c, 0, 77, 0
2, 7170, Note_on_c, 0, 79, 64
2, 7200, Note_on_c, 0, 79, 0
2, 7200, Note_on_c, 0, 80, 64
2, 7220, Note_on_c, 0, 80, 0
2, 7220, Note_on_c, 0, 82, 64
2, 7240, Note_on_c, 0, 82, 0
2, 7240, Note_on_c, 0, 80, 65
2, 7260, Note_on_c, 0, 80, 0
2, 7260, Note_on_c, 0, 82, 65
2, 7280, Note_on_c, 0, 82, 0
2, 7280, Note_on_c, 0, 80, 66
2, 7300, Note_on_c, 0, 80, 0
2, 7300, Note_on_c, 0, 82, 66
2, 7320, Note_on_c, 0, 82, 0
2, 7320, Note_on_c, 0, 80, 67
2, 7340, Note_on_c, 0, 80, 0
2, 7340, Note_on_c, 0, 82, 67
2, 7360, Note_on_c, 0, 82, 0
2, 7360, Note_on_c, 0, 80, 68
2, 7380, Note_on_c, 0, 80, 0
2, 7380, Note_on_c, 0, 82, 68
2, 7410, Note_on_c, 0, 82, 0
2, 7410, Note_on_c, 0, 84, 69
2, 7440, Note_on_c, 0, 84, 0
2, 7440, Note_on_c, 0, 84, 69
2, 7740, Note_on_c, 0, 84, 0
2, 7740, Note_on_c, 0, 84, 64
2, 7800, Note_on_c, 0, 84, 0
2, 7800, Note_on_c, 0, 82, 64
2, 7860, Note_on_c, 0, 82, 0
2, 7860, Note_on_c, 0, 80, 64
2, 7920, Note_on_c, 0, 80, 0
2, 7920, Note_on_c, 0, 79, 64
2, 7940, Note_on_c, 0, 79, 0
2, 7940, Note_on_c, 0, 80, 64
2, 7960, Note_on_c, 0, 80, 0
2, 7960, Note_on_c, 0, 79, 64
2, 7980, Note_on_c, 0, 79, 0
2, 7980, Note_on_c, 0, 77, 64
2, 8040, Note_on_c, 0, 77, 0
2, 8040, Note_on_c, 0, 79, 64
2, 8100, Note_on_c, 0, 79, 0
2, 8100, Note_on_c, 0, 82, 64
2, 8160, Note_on_c, 0, 82, 0
2, 8160, Note_on_c, 0, 82, 64
2, 8220, Note_on_c, 0, 82, 0
2, 8220, Note_on_c, 0, 80, 64
2, 8250, Note_on_c, 0, 80, 0
2, 8280, Note_on_c, 0, 80, 64
2, 8340, Note_on_c, 0, 80, 0
2, 8340, Note_on_c, 0, 79, 64
2, 8370, Note_on_c, 0, 79, 0
2, 8400, Note_on_c, 0, 79, 64
2, 8460, Note_on_c, 0, 79, 0
2, 8460, Note_on_c, 0, 77, 64
2, 8520, Note_on_c, 0, 77, 0
2, 8520, Note_on_c, 0, 77, 64
2, 8580, Note_on_c, 0, 77, 0
2, 8580, Note_on_c, 0, 75, 64
2, 8640, Note_on_c, 0, 75, 0
2, 8640, Note_on_c, 0, 75, 64
2, 8880, Note_on_c, 0, 75, 0
2, 8880, Note_on_c, 0, 74, 64
2, 8900, Note_on_c, 0, 74, 0
2, 8900, Note_on_c, 0, 75, 64
2, 8920, Note_on_c, 0, 75, 0
2, 8920, Note_on_c, 0, 74, 64
2, 8940, Note_on_c, 0, 74, 0
2, 8940, Note_on_c, 0, 75, 64
2, 8960, Note_on_c, 0, 75, 0
2, 8960, Note_on_c, 0, 74, 64
2, 8980, Note_on_c, 0, 74, 0
2, 8980, Note_on_c, 0, 75, 64
2, 9000, Note_on_c, 0, 75, 0
2, 9000, Note_on_c, 0, 74, 64
2, 9120, Note_on_c, 0, 74, 0
2, 9420, Note_on_c, 0, 70, 72
2, 9480, Note_on_c, 0, 70, 0
2, 9480, Note_on_c, 0, 72, 72
2, 9500, Note_on_c, 0, 72, 0
2, 9500, Note_on_c, 0, 70, 72
2, 9520, Note_on_c, 0, 70, 0
2, 9520, Note_on_c, 0, 69, 72
2, 9540, Note_on_c, 0, 69, 0
2, 9540, Note_on_c, 0, 70, 72
2, 9600, Note_on_c, 0, 70, 0
2, 9660, Note_on_c, 0, 82, 72
2, 9720, Note_on_c, 0, 82, 0
2, 9780, Note_on_c, 0, 75, 72
2, 9900, Note_on_c, 0, 75, 0
2, 9900, Note_on_c, 0, 74, 72
2, 10020, Note_on_c, 0, 74, 0
2, 10020, Note_on_c, 0, 72, 72
2, 10080, Note_on_c, 0, 72, 0
2, 10140, Note_on_c, 0, 70, 49
2, 10200, Note_on_c, 0, 70, 0
2, 10200, Note_on_c, 0, 72, 51
2, 10220, Note_on_c, 0, 72, 0
2, 10220, Note_on_c, 0, 70, 51
2, 10240, Note_on_c, 0, 70, 0
2, 10240, Note_on_c, 0, 69, 52
2, 10260, Note_on_c, 0, 69, 0
2, 10260, Note_on_c, 0, 70, 52
2, 10320, Note_on_c, 0, 70, 0
2, 10380, Note_on_c, 0, 82, 55
2, 10440, Note_on_c, 0, 82, 0
2, 10500, Note_on_c, 0, 75, 57
2, 10620, Note_on_c, 0, 75, 0
2, 10620, Note_on_c, 0, 74, 60
2, 10740, Note_on_c, 0, 74, 0
2, 10740, Note_on_c, 0, 72, 63
2, 10860, Note_on_c, 0, 72, 0
2, 10860, Note_on_c, 0, 71, 64
2, 10980, Note_on_c, 0, 71, 0
2, 10980, Note_on_c, 0, 74, 64
2, 11100, Note_on_c, 0, 74, 0
2, 11100, Note_on_c, 0, 72, 64
2, 11220, Note_on_c, 0, 72, 0
2, 11220, Note_on_c, 0, 74, 64
2, 11340, Note_on_c, 0, 74, 0
2, 11340, Note_on_c, 0, 75, 64
2, 11460, Note_on_c, 0, 75, 0
2, 11460, Note_on_c, 0, 69, 64
2, 11580, Note_on_c, 0, 69, 0
2, 11580, Note_on_c, 0, 70, 63
2, 11700, Note_on_c, 0, 70, 0
2, 11700, Note_on_c, 0, 68, 60
2, 11820, Note_on_c, 0, 68, 0
2, 11820, Note_on_c, 0, 67, 57
2, 11940, Note_on_c, 0, 67, 0
2, 11940, Note_on_c, 0, 65, 55
2, 12060, Note_on_c, 0, 65, 0
2, 12060, Note_on_c, 0, 63, 52
2, 12180, Note_on_c, 0, 63, 0
2, 12180, Note_on_c, 0, 64, 49
2, 12300, Note_on_c, 0, 64, 0
2, 12300, Note_on_c, 0, 65, 49
2, 12420, Note_on_c, 0, 65, 0
2, 12420, Note_on_c, 0, 67, 52
2, 12540, Note_on_c, 0, 67, 0
2, 12540, Note_on_c, 0, 68, 55
2, 12660, Note_on_c, 0, 68, 0
2, 12660, Note_on_c, 0, 71, 57
2, 12780, Note_on_c, 0, 71, 0
2, 12780, Note_on_c, 0, 70, 60
2, 12900, Note_on_c, 0, 70, 0
2, 12900, Note_on_c, 0, 69, 63
2, 13020, Note_on_c, 0, 69, 0
2, 13020, Note_on_c, 0, 70, 64
2, 13140, Note_on_c, 0, 70, 0
2, 13140, Note_on_c, 0, 71, 48
2, 13260, Note_on_c, 0, 71, 0
2, 13260, Note_on_c, 0, 70, 48
2, 13380, Note_on_c, 0, 70, 0
2, 13380, Note_on_c, 0, 69, 48
2, 13500, Note_on_c, 0, 69, 0
2, 13500, Note_on_c, 0, 70, 64
2, 13560, Note_on_c, 0, 70, 0
2, 13560, Note_on_c, 0, 68, 64
2, 13620, Note_on_c, 0, 68, 0
2, 13620, Note_on_c, 0, 75, 64
2, 13680, Note_on_c, 0, 75, 0
2, 13680, Note_on_c, 0, 74, 64
2, 13740, Note_on_c, 0, 74, 0
2, 13740, Note_on_c, 0, 67, 64
2, 13800, Note_on_c, 0, 67, 0
2, 13800, Note_on_c, 0, 65, 64
2, 13860, Note_on_c, 0, 65, 0
2, 13860, Note_on_c, 0, 72, 64
2, 13920, Note_on_c, 0, 72, 0
2, 13920, Note_on_c, 0, 70, 64
2, 13980, Note_on_c, 0, 70, 0
2, 13980, Note_on_c, 0, 63, 64
2, 14040, Note_on_c, 0, 63, 0
2, 14040, Note_on_c, 0, 62, 64
2, 14100, Note_on_c, 0, 62, 0
2, 14100, Note_on_c, 0, 68, 64
2, 14160, Note_on_c, 0, 68, 0
2, 14160, Note_on_c, 0, 67, 64
2, 14190, Note_on_c, 0, 67, 0
2, 14190, Note_on_c, 0, 65, 64
2, 14205, Note_on_c, 0, 65, 0
2, 14220, Note_on_c, 0, 63, 64
2, 14235, Note_on_c, 0, 63, 0
2, 14250, Note_on_c, 0, 62, 64
2, 14265, Note_on_c, 0, 62, 0
2, 14280, Note_on_c, 0, 60, 64
2, 14310, Note_on_c, 0, 60, 0
2, 14310, Note_on_c, 0, 58, 64
2, 14340, Note_on_c, 0, 58, 0
2, 14340, Note_on_c, 0, 56, 64
2, 14370, Note_on_c, 0, 56, 0
2, 14370, Note_on_c, 0, 55, 64
2, 14400, Note_on_c, 0, 55, 0
2, 14400, Note_on_c, 0, 53, 64
2, 14520, Note_on_c, 0, 53, 0
2, 14520, Note_on_c, 0, 72, 61
2, 14520, Note_on_c, 0, 68, 61
2, 14640, Note_on_c, 0, 68, 0
2, 14640, Note_on_c, 0, 72, 0
2, 14760, Note_on_c, 0, 67, 56
2, 14760, Note_on_c, 0, 70, 56
2, 14880, Note_on_c, 0, 70, 0
2, 14880, Note_on_c, 0, 67, 0
2, 15000, Note_on_c, 0, 56, 51
2, 15000, Note_on_c, 0, 62, 51
2, 15120, Note_on_c, 0, 62, 0
2, 15120, Note_on_c, 0, 56, 0
2, 15120, Note_on_c, 0, 55, 48
2, 15120, Note_on_c, 0, 63, 48
2, 15240, Note_on_c, 0, 63, 0
2, 15240, Note_on_c, 0, 55, 0
2, 15240, Note_on_c, 0, 68, 72
2, 15300, Note_on_c, 0, 68, 0
2, 15300, Note_on_c, 0, 75, 72
2, 15360, Note_on_c, 0, 75, 0
2, 15360, Note_on_c, 0, 74, 72
2, 15420, Note_on_c, 0, 74, 0
2, 15420, Note_on_c, 0, 67, 72
2, 15480, Note_on_c, 0, 67, 0
2, 15480, Note_on_c, 0, 65, 72
2, 15540, Note_on_c, 0, 65, 0
2, 15540, Note_on_c, 0, 72, 72
2, 15600, Note_on_c, 0, 72, 0
2, 15600, Note_on_c, 0, 70, 72
2, 15660, Note_on_c, 0, 70, 0
2, 15660, Note_on_c, 0, 63, 64
2, 15720, Note_on_c, 0, 63, 0
2, 15720, Note_on_c, 0, 75, 48
2, 15780, Note_on_c, 0, 75, 0
2, 15780, Note_on_c, 0, 80, 48
2, 15840, Note_on_c, 0, 80, 0
2, 15840, Note_on_c, 0, 79, 48
2, 15900, Note_on_c, 0, 79, 0
2, 15900, Note_on_c, 0, 74, 48
2, 15960, Note_on_c, 0, 74, 0
2, 15960, Note_on_c, 0, 72, 48
2, 16020, Note_on_c, 0, 72, 0
2, 16020, Note_on_c, 0, 84, 48
2, 16080, Note_on_c, 0, 84, 0
2, 16080, Note_on_c, 0, 82, 48
2, 16140, Note_on_c, 0, 82, 0
2, 16140, Note_on_c, 0, 75, 48
2, 16200, Note_on_c, 0, 75, 0
2, 16200, Note_on_c, 0, 80, 48
2, 16260, Note_on_c, 0, 80, 0
2, 16260, Note_on_c, 0, 74, 48
2, 16320, Note_on_c, 0, 74, 0
2, 16320, Note_on_c, 0, 79, 64
2, 16350, Note_on_c, 0, 79, 0
2, 16350, Note_on_c, 0, 77, 64
2, 16365, Note_on_c, 0, 77, 0
2, 16380, Note_on_c, 0, 75, 64
2, 16395, Note_on_c, 0, 75, 0
2, 16410, Note_on_c, 0, 74, 64
2, 16425, Note_on_c, 0, 74, 0
2, 16440, Note_on_c, 0, 72, 64
2, 16470, Note_on_c, 0, 72, 0
2, 16470, Note_on_c, 0, 70, 64
2, 16500, Note_on_c, 0, 70, 0
2, 16500, Note_on_c, 0, 68, 64
2, 16530, Note_on_c, 0, 68, 0
2, 16530, Note_on_c, 0, 67, 64
2, 16560, Note_on_c, 0, 67, 0
2, 16560, Note_on_c, 0, 65, 64
2, 16680, Note_on_c, 0, 65, 0
2, 16680, Note_on_c, 0, 84, 64
2, 16680, Note_on_c, 0, 80, 64
2, 16800, Note_on_c, 0, 80, 0
2, 16800, Note_on_c, 0, 84, 0
2, 16920, Note_on_c, 0, 82, 64
2, 16920, Note_on_c, 0, 79, 64
2, 17040, Note_on_c, 0, 79, 0
2, 17040, Note_on_c, 0, 82, 0
2, 17160, Note_on_c, 0, 56, 64
2, 17160, Note_on_c, 0, 62, 64
2, 17280, Note_on_c, 0, 62, 0
2, 17280, Note_on_c, 0, 56, 0
2, 17280, Note_on_c, 0, 56, 64
2, 17280, Note_on_c, 0, 62, 64
2, 17520, Note_on_c, 0, 62, 0
2, 17520, Note_on_c, 0, 56, 0
2, 17520, Note_on_c, 0, 55, 48
2, 17520, Note_on_c, 0, 63, 48
2, 17760, Note_on_c, 0, 63, 0
2, 17760, Note_on_c, 0, 55, 0
2, 18000, Note_on_c, 0, 69, 64
2, 18060, Note_on_c, 0, 69, 0
2, 18060, Note_on_c, 0, 70, 64
2, 18240, Note_on_c, 0, 70, 0
2, 18240, Note_on_c, 0, 69, 64
2, 18300, Note_on_c, 0, 69, 0
2, 18300, Note_on_c, 0, 70, 64
2, 18480, Note_on_c, 0, 70, 0
2, 18480, Note_on_c, 0, 69, 64
2, 18540, Note_on_c, 0, 69, 0
2, 18540, Note_on_c, 0, 70, 64
2, 18720, Note_on_c, 0, 70, 0
2, 18720, Note_on_c, 0, 69, 64
2, 18780, Note_on_c, 0, 69, 0
2, 18780, Note_on_c, 0, 70, 64
2, 18810, Note_on_c, 0, 70, 0
2, 18810, Note_on_c, 0, 72, 64
2, 18840, Note_on_c, 0, 72, 0
2, 18840, Note_on_c, 0, 70, 64
2, 18860, Note_on_c, 0, 70, 0
2, 18860, Note_on_c, 0, 72, 64
2, 18880, Note_on_c, 0, 72, 0
2, 18880, Note_on_c, 0, 70, 64
2, 18900, Note_on_c, 0, 70, 0
2, 18900, Note_on_c, 0, 72, 64
2, 18920, Note_on_c, 0, 72, 0
2, 18920, Note_on_c, 0, 70, 64
2, 18940, Note_on_c, 0, 70, 0
2, 18940, Note_on_c, 0, 72, 64
2, 18960, Note_on_c, 0, 72, 0
2, 18960, Note_on_c, 0, 70, 64
2, 19140, Note_on_c, 0, 70, 0
2, 19140, Note_on_c, 0, 72, 64
2, 19170, Note_on_c, 0, 72, 0
2, 19170, Note_on_c, 0, 74, 64
2, 19200, Note_on_c, 0, 74, 0
2, 19200, Note_on_c, 0, 75, 64
2, 19380, Note_on_c, 0, 75, 0
2, 19380, Note_on_c, 0, 74, 64
2, 19440, Note_on_c, 0, 74, 0
2, 19440, Note_on_c, 0, 74, 64
2, 19560, Note_on_c, 0, 74, 0
2, 19560, Note_on_c, 0, 72, 64
2, 19590, Note_on_c, 0, 72, 0
2, 19590, Note_on_c, 0, 74, 64
2, 19620, Note_on_c, 0, 74, 0
2, 19620, Note_on_c, 0, 72, 64
2, 19640, Note_on_c, 0, 72, 0
2, 19640, Note_on_c, 0, 74, 64
2, 19660, Note_on_c, 0, 74, 0
2, 19660, Note_on_c, 0, 72, 64
2, 19680, Note_on_c, 0, 72, 0
2, 19680, Note_on_c, 0, 70, 64
2, 19980, Note_on_c, 0, 70, 0
2, 19980, Note_on_c, 0, 72, 64
2, 20010, Note_on_c, 0, 72, 0
2, 20040, Note_on_c, 0, 74, 64
2, 20070, Note_on_c, 0, 74, 0
2, 20100, Note_on_c, 0, 75, 64
2, 20130, Note_on_c, 0, 75, 0
2, 20160, Note_on_c, 0, 70, 64
2, 20280, Note_on_c, 0, 70, 0
2, 20280, Note_on_c, 0, 68, 64
2, 20310, Note_on_c, 0, 68, 0
2, 20310, Note_on_c, 0, 70, 64
2, 20340, Note_on_c, 0, 70, 0
2, 20340, Note_on_c, 0, 68, 64
2, 20360, Note_on_c, 0, 68, 0
2, 20360, Note_on_c, 0, 70, 64
2, 20380, Note_on_c, 0, 70, 0
2, 20380, Note_on_c, 0, 68, 64
2, 20400, Note_on_c, 0, 68, 0
2, 20400, Note_on_c, 0, 67, 64
2, 20640, Note_on_c, 0, 67, 0
2, 20880, Note_on_c, 0, 73, 64
2, 21120, Note_on_c, 0, 73, 0
2, 21120, Note_on_c, 0, 73, 67
2, 21360, Note_on_c, 0, 73, 0
2, 21360, Note_on_c, 0, 73, 69
2, 21660, Note_on_c, 0, 73, 0
2, 21660, Note_on_c, 0, 72, 73
2, 21780, Note_on_c, 0, 72, 0
2, 21780, Note_on_c, 0, 73, 74
2, 21900, Note_on_c, 0, 73, 0
2, 21900, Note_on_c, 0, 72, 75
2, 22020, Note_on_c, 0, 72, 0
2, 22020, Note_on_c, 0, 71, 77
2, 22140, Note_on_c, 0, 71, 0
2, 22140, Note_on_c, 0, 72, 78
2, 22260, Note_on_c, 0, 72, 0
2, 22260, Note_on_c, 0, 82, 79
2, 22380, Note_on_c, 0, 82, 0
2, 22380, Note_on_c, 0, 80, 63
2, 22500, Note_on_c, 0, 80, 0
2, 22500, Note_on_c, 0, 79, 60
2, 22620, Note_on_c, 0, 79, 0
2, 22620, Note_on_c, 0, 77, 57
2, 22740, Note_on_c, 0, 77, 0
2, 22740, Note_on_c, 0, 76, 55
2, 22860, Note_on_c, 0, 76, 0
2, 22860, Note_on_c, 0, 77, 52
2, 22980, Note_on_c, 0, 77, 0
2, 22980, Note_on_c, 0, 79, 49
2, 23100, Note_on_c, 0, 79, 0
2, 23100, Note_on_c, 0, 80, 47
2, 23220, Note_on_c, 0, 80, 0
2, 23220, Note_on_c, 0, 71, 44
2, 23340, Note_on_c, 0, 71, 0
2, 23340, Note_on_c, 0, 70, 41
2, 23460, Note_on_c, 0, 70, 0
2, 23460, Note_on_c, 0, 69, 39
2, 23580, Note_on_c, 0, 69, 0
2, 23580, Note_on_c, 0, 70, 36
2, 23700, Note_on_c, 0, 70, 0
2, 23700, Note_on_c, 0, 80, 33
2, 23820, Note_on_c, 0, 80, 0
2, 23820, Note_on_c, 0, 78, 34
2, 23940, Note_on_c, 0, 78, 0
2, 23940, Note_on_c, 0, 77, 38
2, 24060, Note_on_c, 0, 77, 0
2, 24060, Note_on_c, 0, 75, 42
2, 24180, Note_on_c, 0, 75, 0
2, 24180, Note_on_c, 0, 74, 46
2, 24300, Note_on_c, 0, 74, 0
2, 24300, Note_on_c, 0, 75, 50
2, 24420, Note_on_c, 0, 75, 0
2, 24420, Note_on_c, 0, 77, 54
2, 24540, Note_on_c, 0, 77, 0
2, 24540, Note_on_c, 0, 78, 54
2, 24660, Note_on_c, 0, 78, 0
2, 24660, Note_on_c, 0, 69, 50
2, 24780, Note_on_c, 0, 69, 0
2, 24780, Note_on_c, 0, 68, 46
2, 24900, Note_on_c, 0, 68, 0
2, 24900, Note_on_c, 0, 67, 42
2, 25020, Note_on_c, 0, 67, 0
2, 25020, Note_on_c, 0, 68, 38
2, 25140, Note_on_c, 0, 68, 0
2, 25140, Note_on_c, 0, 78, 34
2, 25260, Note_on_c, 0, 78, 0
2, 25260, Note_on_c, 0, 77, 35
2, 25380, Note_on_c, 0, 77, 0
2, 25380, Note_on_c, 0, 77, 42
2, 25500, Note_on_c, 0, 77, 0
2, 25500, Note_on_c, 0, 77, 49
2, 25560, Note_on_c, 0, 77, 0
2, 25560, Note_on_c, 0, 82, 52
2, 25620, Note_on_c, 0, 82, 0
2, 25620, Note_on_c, 0, 77, 55
2, 25740, Note_on_c, 0, 77, 0
2, 25740, Note_on_c, 0, 75, 62
2, 25800, Note_on_c, 0, 75, 0
2, 25800, Note_on_c, 0, 84, 65
2, 25860, Note_on_c, 0, 84, 0
2, 25860, Note_on_c, 0, 75, 69
2, 25980, Note_on_c, 0, 75, 0
2, 25980, Note_on_c, 0, 74, 71
2, 26040, Note_on_c, 0, 74, 0
2, 26040, Note_on_c, 0, 82, 69
2, 26100, Note_on_c, 0, 82, 0
2, 26100, Note_on_c, 0, 74, 68
2, 26160, Note_on_c, 0, 74, 0
2, 26220, Note_on_c, 0, 75, 65
2, 26280, Note_on_c, 0, 75, 0
2, 26280, Note_on_c, 0, 82, 64
2, 26340, Note_on_c, 0, 82, 0
2, 26340, Note_on_c, 0, 75, 63
2, 26400, Note_on_c, 0, 75, 0
2, 26400, Note_on_c, 0, 73, 61
2, 26460, Note_on_c, 0, 73, 0
2, 26460, Note_on_c, 0, 72, 60
2, 26520, Note_on_c, 0, 72, 0
2, 26520, Note_on_c, 0, 80, 59
2, 26580, Note_on_c, 0, 80, 0
2, 26580, Note_on_c, 0, 72, 57
2, 26640, Note_on_c, 0, 72, 0
2, 26700, Note_on_c, 0, 73, 55
2, 26760, Note_on_c, 0, 73, 0
2, 26760, Note_on_c, 0, 77, 53
2, 26820, Note_on_c, 0, 77, 0
2, 26820, Note_on_c, 0, 68, 52
2, 26940, Note_on_c, 0, 68, 0
2, 26940, Note_on_c, 0, 66, 49
2, 27000, Note_on_c, 0, 66, 0
2, 27000, Note_on_c, 0, 75, 48
2, 27060, Note_on_c, 0, 75, 0
2, 27060, Note_on_c, 0, 66, 47
2, 27180, Note_on_c, 0, 66, 0
2, 27180, Note_on_c, 0, 65, 44
2, 27240, Note_on_c, 0, 65, 0
2, 27240, Note_on_c, 0, 73, 43
2, 27300, Note_on_c, 0, 73, 0
2, 27300, Note_on_c, 0, 65, 41
2, 27360, Note_on_c, 0, 65, 0
2, 27360, Note_on_c, 0, 65, 40
2, 27390, Note_on_c, 0, 65, 0
2, 27390, Note_on_c, 0, 66, 40
2, 27420, Note_on_c, 0, 66, 0
2, 27420, Note_on_c, 0, 65, 39
2, 27440, Note_on_c, 0, 65, 0
2, 27440, Note_on_c, 0, 66, 39
2, 27460, Note_on_c, 0, 66, 0
2, 27460, Note_on_c, 0, 65, 39
2, 27480, Note_on_c, 0, 65, 0
2, 27480, Note_on_c, 0, 66, 39
2, 27500, Note_on_c, 0, 66, 0
2, 27500, Note_on_c, 0, 65, 38
2, 27520, Note_on_c, 0, 65, 0
2, 27520, Note_on_c, 0, 66, 38
2, 27540, Note_on_c, 0, 66, 0
2, 27540, Note_on_c, 0, 65, 38
2, 27560, Note_on_c, 0, 65, 0
2, 27560, Note_on_c, 0, 66, 38
2, 27580, Note_on_c, 0, 66, 0
2, 27580, Note_on_c, 0, 65, 38
2, 27600, Note_on_c, 0, 65, 0
2, 27600, Note_on_c, 0, 63, 37
2, 27840, Note_on_c, 0, 63, 0
2, 28140, Note_on_c, 0, 68, 64
2, 28200, Note_on_c, 0, 68, 0
2, 28200, Note_on_c, 0, 70, 64
2, 28220, Note_on_c, 0, 70, 0
2, 28220, Note_on_c, 0, 68, 64
2, 28240, Note_on_c, 0, 68, 0
2, 28240, Note_on_c, 0, 67, 64
2, 28260, Note_on_c, 0, 67, 0
2, 28260, Note_on_c, 0, 68, 64
2, 28320, Note_on_c, 0, 68, 0
2, 28380, Note_on_c, 0, 80, 64
2, 28440, Note_on_c, 0, 80, 0
2, 28500, Note_on_c, 0, 73, 64
2, 28620, Note_on_c, 0, 73, 0
2, 28620, Note_on_c, 0, 72, 64
2, 28740, Note_on_c, 0, 72, 0
2, 28740, Note_on_c, 0, 70, 64
2, 28800, Note_on_c, 0, 70, 0
2, 28860, Note_on_c, 0, 68, 49
2, 28920, Note_on_c, 0, 68, 0
2, 28920, Note_on_c, 0, 70, 51
2, 28940, Note_on_c, 0, 70, 0
2, 28940, Note_on_c, 0, 68, 51
2, 28960, Note_on_c, 0, 68, 0
2, 28960, Note_on_c, 0, 67, 52
2, 28980, Note_on_c, 0, 67, 0
2, 28980, Note_on_c, 0, 68, 52
2, 29040, Note_on_c, 0, 68, 0
2, 29100, Note_on_c, 0, 80, 55
2, 29160, Note_on_c, 0, 80, 0
2, 29220, Note_on_c, 0, 73, 57
2, 29340, Note_on_c, 0, 73, 0
2, 29340, Note_on_c, 0, 72, 60
2, 29460, Note_on_c, 0, 72, 0
2, 29460, Note_on_c, 0, 70, 63
2, 29580, Note_on_c, 0, 70, 0
2, 29580, Note_on_c, 0, 68, 65
2, 29700, Note_on_c, 0, 68, 0
2, 29700, Note_on_c, 0, 67, 68
2, 29820, Note_on_c, 0, 67, 0
2, 29820, Note_on_c, 0, 68, 71
2, 29940, Note_on_c, 0, 68, 0
2, 29940, Note_on_c, 0, 66, 73
2, 30060, Note_on_c, 0, 66, 0
2, 30060, Note_on_c, 0, 65, 76
2, 30180, Note_on_c, 0, 65, 0
2, 30180, Note_on_c, 0, 63, 79
2, 30240, Note_on_c, 0, 63, 0
2, 30300, Note_on_c, 0, 61, 72
2, 30360, Note_on_c, 0, 61, 0
2, 30360, Note_on_c, 0, 68, 72
2, 30420, Note_on_c, 0, 68, 0
2, 30420, Note_on_c, 0, 65, 72
2, 30540, Note_on_c, 0, 65, 0
2, 30540, Note_on_c, 0, 63, 72
2, 30600, Note_on_c, 0, 63, 0
2, 30600, Note_on_c, 0, 70, 72
2, 30660, Note_on_c, 0, 70, 0
2, 30660, Note_on_c, 0, 66, 72
2, 30720, Note_on_c, 0, 66, 0
2, 30720, Note_on_c, 0, 65, 72
2, 30780, Note_on_c, 0, 65, 0
2, 30780, Note_on_c, 0, 63, 72
2, 30840, Note_on_c, 0, 63, 0
2, 30840, Note_on_c, 0, 66, 72
2, 30900, Note_on_c, 0, 66, 0
2, 30900, Note_on_c, 0, 60, 72
2, 30960, Note_on_c, 0, 60, 0
2, 31020, Note_on_c, 0, 61, 49
2, 31080, Note_on_c, 0, 61, 0
2, 31080, Note_on_c, 0, 68, 51
2, 31140, Note_on_c, 0, 68, 0
2, 31140, Note_on_c, 0, 65, 52
2, 31260, Note_on_c, 0, 65, 0
2, 31260, Note_on_c, 0, 63, 55
2, 31320, Note_on_c, 0, 63, 0
2, 31320, Note_on_c, 0, 70, 56
2, 31380, Note_on_c, 0, 70, 0
2, 31380, Note_on_c, 0, 66, 57
2, 31440, Note_on_c, 0, 66, 0
2, 31440, Note_on_c, 0, 65, 59
2, 31500, Note_on_c, 0, 65, 0
2, 31500, Note_on_c, 0, 63, 60
2, 31560, Note_on_c, 0, 63, 0
2, 31560, Note_on_c, 0, 66, 61
2, 31620, Note_on_c, 0, 66, 0
2, 31620, Note_on_c, 0, 60, 63
2, 31680, Note_on_c, 0, 60, 0
2, 31680, Note_on_c, 0, 61, 64
2, 31740, Note_on_c, 0, 61, 0
2, 31740, Note_on_c, 0, 77, 64
2, 31860, Note_on_c, 0, 77, 0
2, 31860, Note_on_c, 0, 73, 64
2, 31980, Note_on_c, 0, 73, 0
2, 31980, Note_on_c, 0, 68, 64
2, 32100, Note_on_c, 0, 68, 0
2, 32100, Note_on_c, 0, 65, 64
2, 32160, Note_on_c, 0, 65, 0
2, 32160, Note_on_c, 0, 68, 64
2, 32220, Note_on_c, 0, 68, 0
2, 32220, Note_on_c, 0, 66, 64
2, 32280, Note_on_c, 0, 66, 0
2, 32280, Note_on_c, 0, 75, 64
2, 32340, Note_on_c, 0, 75, 0
2, 32340, Note_on_c, 0, 66, 64
2, 32400, Note_on_c, 0, 66, 0
2, 32400, Note_on_c, 0, 65, 32
2, 32460, Note_on_c, 0, 65, 0
2, 32460, Note_on_c, 0, 77, 32
2, 32580, Note_on_c, 0, 77, 0
2, 32580, Note_on_c, 0, 73, 32
2, 32700, Note_on_c, 0, 73, 0
2, 32700, Note_on_c, 0, 68, 32
2, 32820, Note_on_c, 0, 68, 0
2, 32820, Note_on_c, 0, 65, 32
2, 32880, Note_on_c, 0, 65, 0
2, 32880, Note_on_c, 0, 68, 32
2, 32940, Note_on_c, 0, 68, 0
2, 32940, Note_on_c, 0, 66, 32
2, 33000, Note_on_c, 0, 66, 0
2, 33000, Note_on_c, 0, 75, 32
2, 33060, Note_on_c, 0, 75, 0
2, 33060, Note_on_c, 0, 66, 32
2, 33120, Note_on_c, 0, 66, 0
2, 33120, Note_on_c, 0, 65, 40
2, 33180, Note_on_c, 0, 65, 0
2, 33180, Note_on_c, 0, 77, 40
2, 33300, Note_on_c, 0, 77, 0
2, 33300, Note_on_c, 0, 75, 40
2, 33420, Note_on_c, 0, 75, 0
2, 33420, Note_on_c, 0, 73, 40
2, 33540, Note_on_c, 0, 73, 0
2, 33540, Note_on_c, 0, 72, 40
2, 33660, Note_on_c, 0, 72, 0
2, 33660, Note_on_c, 0, 70, 40
2, 33780, Note_on_c, 0, 70, 0
2, 33780, Note_on_c, 0, 68, 40
2, 33840, Note_on_c, 0, 68, 0
2, 33840, Note_on_c, 0, 67, 48
2, 33900, Note_on_c, 0, 67, 0
2, 33900, Note_on_c, 0, 79, 48
2, 34020, Note_on_c, 0, 79, 0
2, 34020, Note_on_c, 0, 77, 48
2, 34140, Note_on_c, 0, 77, 0
2, 34140, Note_on_c, 0, 75, 48
2, 34260, Note_on_c, 0, 75, 0
2, 34260, Note_on_c, 0, 73, 48
2, 34380, Note_on_c, 0, 73, 0
2, 34380, Note_on_c, 0, 72, 48
2, 34500, Note_on_c, 0, 72, 0
2, 34500, Note_on_c, 0, 70, 48
2, 34560, Note_on_c, 0, 70, 0
2, 34560, Note_on_c, 0, 68, 56
2, 34620, Note_on_c, 0, 68, 0
2, 34620, Note_on_c, 0, 80, 56
2, 34740, Note_on_c, 0, 80, 0
2, 34740, Note_on_c, 0, 79, 56
2, 34860, Note_on_c, 0, 79, 0
2, 34860, Note_on_c, 0, 77, 56
2, 34980, Note_on_c, 0, 77, 0
2, 34980, Note_on_c, 0, 75, 56
2, 35100, Note_on_c, 0, 75, 0
2, 35100, Note_on_c, 0, 73, 56
2, 35220, Note_on_c, 0, 73, 0
2, 35220, Note_on_c, 0, 72, 56
2, 35280, Note_on_c, 0, 72, 0
2, 35280, Note_on_c, 0, 70, 64
2, 35340, Note_on_c, 0, 70, 0
2, 35340, Note_on_c, 0, 82, 64
2, 35460, Note_on_c, 0, 82, 0
2, 35460, Note_on_c, 0, 80, 64
2, 35580, Note_on_c, 0, 80, 0
2, 35580, Note_on_c, 0, 79, 64
2, 35700, Note_on_c, 0, 79, 0
2, 35700, Note_on_c, 0, 77, 64
2, 35820, Note_on_c, 0, 77, 0
2, 35820, Note_on_c, 0, 75, 64
2, 35940, Note_on_c, 0, 75, 0
2, 35940, Note_on_c, 0, 73, 64
2, 36000, Note_on_c, 0, 73, 0
2, 36000, Note_on_c, 0, 72, 64
2, 36060, Note_on_c, 0, 72, 0
2, 36060, Note_on_c, 0, 75, 64
2, 36180, Note_on_c, 0, 75, 0
2, 36180, Note_on_c, 0, 75, 64
2, 36300, Note_on_c, 0, 75, 0
2, 36300, Note_on_c, 0, 75, 64
2, 36420, Note_on_c, 0, 75, 0
2, 36420, Note_on_c, 0, 75, 64
2, 36480, Note_on_c, 0, 75, 0
2, 36480, Note_on_c, 0, 75, 64
2, 36500, Note_on_c, 0, 75, 0
2, 36500, Note_on_c, 0, 77, 64
2, 36520, Note_on_c, 0, 77, 0
2, 36520, Note_on_c, 0, 75, 64
2, 36540, Note_on_c, 0, 75, 0
2, 36540, Note_on_c, 0, 77, 64
2, 36560, Note_on_c, 0, 77, 0
2, 36560, Note_on_c, 0, 75, 64
2, 36580, Note_on_c, 0, 75, 0
2, 36580, Note_on_c, 0, 77, 64
2, 36600, Note_on_c, 0, 77, 0
2, 36600, Note_on_c, 0, 75, 64
2, 36620, Note_on_c, 0, 75, 0
2, 36620, Note_on_c, 0, 77, 64
2, 36640, Note_on_c, 0, 77, 0
2, 36640, Note_on_c, 0, 75, 64
2, 36660, Note_on_c, 0, 75, 0
2, 36660, Note_on_c, 0, 77, 64
2, 36690, Note_on_c, 0, 77, 0
2, 36690, Note_on_c, 0, 79, 64
2, 36720, Note_on_c, 0, 79, 0
2, 36720, Note_on_c, 0, 80, 64
2, 36780, Note_on_c, 0, 80, 0
2, 36780, Note_on_c, 0, 80, 64
2, 36900, Note_on_c, 0, 80, 0
2, 36900, Note_on_c, 0, 80, 64
2, 37020, Note_on_c, 0, 80, 0
2, 37020, Note_on_c, 0, 80, 64
2, 37140, Note_on_c, 0, 80, 0
2, 37140, Note_on_c, 0, 80, 64
2, 37200, Note_on_c, 0, 80, 0
2, 37200, Note_on_c, 0, 80, 64
2, 37220, Note_on_c, 0, 80, 0
2, 37220, Note_on_c, 0, 82, 64
2, 37240, Note_on_c, 0, 82, 0
2, 37240, Note_on_c, 0, 80, 64
2, 37260, Note_on_c, 0, 80, 0
2, 37260, Note_on_c, 0, 82, 64
2, 37280, Note_on_c, 0, 82, 0
2, 37280, Note_on_c, 0, 80, 64
2, 37300, Note_on_c, 0, 80, 0
2, 37300, Note_on_c, 0, 82, 64
2, 37320, Note_on_c, 0, 82, 0
2, 37320, Note_on_c, 0, 80, 64
2, 37340, Note_on_c, 0, 80, 0
2, 37340, Note_on_c, 0, 82, 64
2, 37360, Note_on_c, 0, 82, 0
2, 37360, Note_on_c, 0, 80, 64
2, 37380, Note_on_c, 0, 80, 0
2, 37380, Note_on_c, 0, 82, 64
2, 37410, Note_on_c, 0, 82, 0
2, 37410, Note_on_c, 0, 84, 64
2, 37440, Note_on_c, 0, 84, 0
2, 37440, Note_on_c, 0, 85, 64
2, 37460, Note_on_c, 0, 85, 0
2, 37460, Note_on_c, 0, 87, 64
2, 37480, Note_on_c, 0, 87, 0
2, 37480, Note_on_c, 0, 85, 64
2, 37500, Note_on_c, 0, 85, 0
2, 37500, Note_on_c, 0, 87, 64
2, 37520, Note_on_c, 0, 87, 0
2, 37520, Note_on_c, 0, 85, 64
2, 37540, Note_on_c, 0, 85, 0
2, 37540, Note_on_c, 0, 87, 64
2, 37560, Note_on_c, 0, 87, 0
2, 37560, Note_on_c, 0, 85, 64
2, 37590, Note_on_c, 0, 85, 0
2, 37590, Note_on_c, 0, 84, 64
2, 37620, Note_on_c, 0, 84, 0
2, 37620, Note_on_c, 0, 85, 64
2, 37650, Note_on_c, 0, 85, 0
2, 37650, Note_on_c, 0, 87, 64
2, 37680, Note_on_c, 0, 87, 0
2, 37680, Note_on_c, 0, 89, 64
2, 37740, Note_on_c, 0, 89, 0
2, 37740, Note_on_c, 0, 89, 64
2, 37860, Note_on_c, 0, 89, 0
2, 37860, Note_on_c, 0, 89, 64
2, 37980, Note_on_c, 0, 89, 0
2, 37980, Note_on_c, 0, 89, 64
2, 38040, Note_on_c, 0, 89, 0
2, 38040, Note_on_c, 0, 87, 64
2, 38100, Note_on_c, 0, 87, 0
2, 38100, Note_on_c, 0, 85, 64
2, 38160, Note_on_c, 0, 85, 0
2, 38160, Note_on_c, 0, 84, 64
2, 38180, Note_on_c, 0, 84, 0
2, 38180, Note_on_c, 0, 85, 64
2, 38200, Note_on_c, 0, 85, 0
2, 38200, Note_on_c, 0, 84, 64
2, 38220, Note_on_c, 0, 84, 0
2, 38220, Note_on_c, 0, 82, 63
2, 38280, Note_on_c, 0, 82, 0
2, 38280, Note_on_c, 0, 84, 63
2, 38340, Note_on_c, 0, 84, 0
2, 38340, Note_on_c, 0, 87, 62
2, 38400, Note_on_c, 0, 87, 0
2, 38400, Note_on_c, 0, 87, 61
2, 38460, Note_on_c, 0, 87, 0
2, 38460, Note_on_c, 0, 85, 61
2, 38490, Note_on_c, 0, 85, 0
2, 38520, Note_on_c, 0, 85, 60
2, 38580, Note_on_c, 0, 85, 0
2, 38580, Note_on_c, 0, 84, 59
2, 38610, Note_on_c, 0, 84, 0
2, 38640, Note_on_c, 0, 84, 59
2, 38700, Note_on_c, 0, 84, 0
2, 38700, Note_on_c, 0, 82, 58
2, 38760, Note_on_c, 0, 82, 0
2, 38760, Note_on_c, 0, 82, 57
2, 38820, Note_on_c, 0, 82, 0
2, 38820, Note_on_c, 0, 80, 57
2, 38880, Note_on_c, 0, 80, 0
2, 38880, Note_on_c, 0, 80, 56
2, 39120, Note_on_c, 0, 80, 0
2, 39120, Note_on_c, 0, 79, 51
2, 39140, Note_on_c, 0, 79, 0
2, 39140, Note_on_c, 0, 80, 50
2, 39160, Note_on_c, 0, 80, 0
2, 39160, Note_on_c, 0, 79, 50
2, 39180, Note_on_c, 0, 79, 0
2, 39180, Note_on_c, 0, 80, 49
2, 39200, Note_on_c, 0, 80, 0
2, 39200, Note_on_c, 0, 79, 49
2, 39220, Note_on_c, 0, 79, 0
2, 39220, Note_on_c, 0, 80, 48
2, 39240, Note_on_c, 0, 80, 0
2, 39240, Note_on_c, 0, 79, 48
2, 39360, Note_on_c, 0, 79, 0
2, 39660, Note_on_c, 0, 75, 72
2, 39720, Note_on_c, 0, 75, 0
2, 39720, Note_on_c, 0, 77, 72
2, 39740, Note_on_c, 0, 77, 0
2, 39740, Note_on_c, 0, 75, 72
2, 39760, Note_on_c, 0, 75, 0
2, 39760, Note_on_c, 0, 74, 72
2, 39780, Note_on_c, 0, 74, 0
2, 39780, Note_on_c, 0, 75, 72
2, 39840, Note_on_c, 0, 75, 0
2, 39900, Note_on_c, 0, 87, 72
2, 39960, Note_on_c, 0, 87, 0
2, 40020, Note_on_c, 0, 80, 72
2, 40140, Note_on_c, 0, 80, 0
2, 40140, Note_on_c, 0, 79, 72
2, 40260, Note_on_c, 0, 79, 0
2, 40260, Note_on_c, 0, 77, 72
2, 40320, Note_on_c, 0, 77, 0
2, 40380, Note_on_c, 0, 75, 49
2, 40440, Note_on_c, 0, 75, 0
2, 40440, Note_on_c, 0, 77, 51
2, 40460, Note_on_c, 0, 77, 0
2, 40460, Note_on_c, 0, 75, 51
2, 40480, Note_on_c, 0, 75, 0
2, 40480, Note_on_c, 0, 74, 52
2, 40500, Note_on_c, 0, 74, 0
2, 40500, Note_on_c, 0, 75, 52
2, 40560, Note_on_c, 0, 75, 0
2, 40620, Note_on_c, 0, 87, 55
2, 40680, Note_on_c, 0, 87, 0
2, 40740, Note_on_c, 0, 80, 57
2, 40860, Note_on_c, 0, 80, 0
2, 40860, Note_on_c, 0, 79, 60
2, 40980, Note_on_c, 0, 79, 0
2, 40980, Note_on_c, 0, 77, 63
2, 41100, Note_on_c, 0, 77, 0
2, 41100, Note_on_c, 0, 76, 64
2, 41220, Note_on_c, 0, 76, 0
2, 41220, Note_on_c, 0, 79, 64
2, 41340, Note_on_c, 0, 79, 0
2, 41340, Note_on_c, 0, 77, 64
2, 41460, Note_on_c, 0, 77, 0
2, 41460, Note_on_c, 0, 79, 64
2, 41580, Note_on_c, 0, 79, 0
2, 41580, Note_on_c, 0, 80, 64
2, 41700, Note_on_c, 0, 80, 0
2, 41700, Note_on_c, 0, 74, 64
2, 41820, Note_on_c, 0, 74, 0
2, 41820, Note_on_c, 0, 75, 63
2, 41940, Note_on_c, 0, 75, 0
2, 41940, Note_on_c, 0, 73, 60
2, 42060, Note_on_c, 0, 73, 0
2, 42060, Note_on_c, 0, 72, 57
2, 42180, Note_on_c, 0, 72, 0
2, 42180, Note_on_c, 0, 70, 55
2, 42300, Note_on_c, 0, 70, 0
2, 42300, Note_on_c, 0, 68, 52
2, 42420, Note_on_c, 0, 68, 0
2, 42420, Note_on_c, 0, 69, 49
2, 42540, Note_on_c, 0, 69, 0
2, 42540, Note_on_c, 0, 70, 49
2, 42660, Note_on_c, 0, 70, 0
2, 42660, Note_on_c, 0, 72, 52
2, 42780, Note_on_c, 0, 72, 0
2, 42780, Note_on_c, 0, 73, 55
2, 42900, Note_on_c, 0, 73, 0
2, 42900, Note_on_c, 0, 76, 57
2, 43020, Note_on_c, 0, 76, 0
2, 43020, Note_on_c, 0, 75, 60
2, 43140, Note_on_c, 0, 75, 0
2, 43140, Note_on_c, 0, 74, 63
2, 43260, Note_on_c, 0, 74, 0
2, 43260, Note_on_c, 0, 75, 64
2, 43380, Note_on_c, 0, 75, 0
2, 43380, Note_on_c, 0, 76, 48
2, 43500, Note_on_c, 0, 76, 0
2, 43500, Note_on_c, 0, 75, 48
2, 43620, Note_on_c, 0, 75, 0
2, 43620, Note_on_c, 0, 74, 48
2, 43740, Note_on_c, 0, 74, 0
2, 43740, Note_on_c, 0, 75, 64
2, 43800, Note_on_c, 0, 75, 0
2, 43800, Note_on_c, 0, 73, 64
2, 43860, Note_on_c, 0, 73, 0
2, 43860, Note_on_c, 0, 80, 64
2, 43920, Note_on_c, 0, 80, 0
2, 43920, Note_on_c, 0, 79, 64
2, 43980, Note_on_c, 0, 79, 0
2, 43980, Note_on_c, 0, 72, 64
2, 44040, Note_on_c, 0, 72, 0
2, 44040, Note_on_c, 0, 70, 64
2, 44100, Note_on_c, 0, 70, 0
2, 44100, Note_on_c, 0, 77, 64
2, 44160, Note_on_c, 0, 77, 0
2, 44160, Note_on_c, 0, 75, 64
2, 44220, Note_on_c, 0, 75, 0
2, 44220, Note_on_c, 0, 68, 64
2, 44280, Note_on_c, 0, 68, 0
2, 44280, Note_on_c, 0, 67, 64
2, 44340, Note_on_c, 0, 67, 0
2, 44340, Note_on_c, 0, 73, 64
2, 44400, Note_on_c, 0, 73, 0
2, 44400, Note_on_c, 0, 72, 64
2, 44430, Note_on_c, 0, 72, 0
2, 44430, Note_on_c, 0, 70, 64
2, 44445, Note_on_c, 0, 70, 0
2, 44460, Note_on_c, 0, 68, 64
2, 44475, Note_on_c, 0, 68, 0
2, 44490, Note_on_c, 0, 67, 64
2, 44505, Note_on_c, 0, 67, 0
2, 44520, Note_on_c, 0, 65, 64
2, 44550, Note_on_c, 0, 65, 0
2, 44550, Note_on_c, 0, 63, 64
2, 44580, Note_on_c, 0, 63, 0
2, 44580, Note_on_c, 0, 61, 64
2, 44610, Note_on_c, 0, 61, 0
2, 44610, Note_on_c, 0, 60, 64
2, 44640, Note_on_c, 0, 60, 0
2, 44640, Note_on_c, 0, 58, 64
2, 44760, Note_on_c, 0, 58, 0
2, 44760, Note_on_c, 0, 73, 64
2, 44760, Note_on_c, 0, 77, 64
2, 44880, Note_on_c, 0, 77, 0
2, 44880, Note_on_c, 0, 73, 0
2, 45000, Note_on_c, 0, 72, 64
2, 45000, Note_on_c, 0, 75, 64
2, 45120, Note_on_c, 0, 75, 0
2, 45120, Note_on_c, 0, 72, 0
2, 45240, Note_on_c, 0, 61, 64
2, 45240, Note_on_c, 0, 67, 64
2, 45360, Note_on_c, 0, 67, 0
2, 45360, Note_on_c, 0, 61, 0
2, 45360, Note_on_c, 0, 60, 48
2, 45360, Note_on_c, 0, 68, 48
2, 45480, Note_on_c, 0, 68, 0
2, 45480, Note_on_c, 0, 60, 0
2, 45480, Note_on_c, 0, 73, 72
2, 45540, Note_on_c, 0, 73, 0
2, 45540, Note_on_c, 0, 80, 72
2, 45600, Note_on_c, 0, 80, 0
2, 45600, Note_on_c, 0, 79, 72
2, 45660, Note_on_c, 0, 79, 0
2, 45660, Note_on_c, 0, 72, 72
2, 45720, Note_on_c, 0, 72, 0
2, 45720, Note_on_c, 0, 70, 72
2, 45780, Note_on_c, 0, 70, 0
2, 45780, Note_on_c, 0, 77, 72
2, 45840, Note_on_c, 0, 77, 0
2, 45840, Note_on_c, 0, 75, 72
2, 45900, Note_on_c, 0, 75, 0
2, 45900, Note_on_c, 0, 68, 64
2, 45960, Note_on_c, 0, 68, 0
2, 45960, Note_on_c, 0, 80, 48
2, 46020, Note_on_c, 0, 80, 0
2, 46020, Note_on_c, 0, 85, 48
2, 46080, Note_on_c, 0, 85, 0
2, 46080, Note_on_c, 0, 84, 48
2, 46140, Note_on_c, 0, 84, 0
2, 46140, Note_on_c, 0, 79, 48
2, 46200, Note_on_c, 0, 79, 0
2, 46200, Note_on_c, 0, 77, 48
2, 46260, Note_on_c, 0, 77, 0
2, 46260, Note_on_c, 0, 89, 48
2, 46320, Note_on_c, 0, 89, 0
2, 46320, Note_on_c, 0, 87, 48
2, 46380, Note_on_c, 0, 87, 0
2, 46380, Note_on_c, 0, 80, 48
2, 46440, Note_on_c, 0, 80, 0
2, 46440, Note_on_c, 0, 85, 48
2, 46500, Note_on_c, 0, 85, 0
2, 46500, Note_on_c, 0, 79, 48
2, 46560, Note_on_c, 0, 79, 0
2, 46560, Note_on_c, 0, 84, 64
2, 46590, Note_on_c, 0, 84, 0
2, 46590, Note_on_c, 0, 82, 64
2, 46605, Note_on_c, 0, 82, 0
2, 46620, Note_on_c, 0, 80, 64
2, 46635, Note_on_c, 0, 80, 0
2, 46650, Note_on_c, 0, 79, 64
2, 46665, Note_on_c, 0, 79, 0
2, 46680, Note_on_c, 0, 77, 64
2, 46710, Note_on_c, 0, 77, 0
2, 46710, Note_on_c, 0, 75, 64
2, 46740, Note_on_c, 0, 75, 0
2, 46740, Note_on_c, 0, 73, 64
2, 46770, Note_on_c, 0, 73, 0
2, 46770, Note_on_c, 0, 72, 64
2, 46800, Note_on_c, 0, 72, 0
2, 46800, Note_on_c, 0, 70, 64
2, 46920, Note_on_c, 0, 70, 0
2, 46920, Note_on_c, 0, 85, 64
2, 46920, Note_on_c, 0, 89, 64
2, 47040, Note_on_c, 0, 89, 0
2, 47040, Note_on_c, 0, 85, 0
2, 47160, Note_on_c, 0, 84, 64
2, 47160, Note_on_c, 0, 87, 64
2, 47280, Note_on_c, 0, 87, 0
2, 47280, Note_on_c, 0, 84, 0
2, 47400, Note_on_c, 0, 61, 64
2, 47400, Note_on_c, 0, 67, 64
2, 47520, Note_on_c, 0, 67, 0
2, 47520, Note_on_c, 0, 61, 0
2, 47520, Note_on_c, 0, 61, 64
2, 47520, Note_on_c, 0, 67, 64
2, 47760, Note_on_c, 0, 67, 0
2, 47760, Note_on_c, 0, 61, 0
2, 47760, Note_on_c, 0, 60, 48
2, 47760, Note_on_c, 0, 68, 48
2, 48000, Note_on_c, 0, 68, 0
2, 48000, Note_on_c, 0, 60, 0
2, 48000, End_track
3, 0, Start_track
3, 0, MIDI_port, 0
3, 0, Title_t, "by FJ Haydn (2nd mvmt. - Andante con Moto)"
3, 0, Program_c, 1, 0
3, 0, Control_c, 1, 7, 112
3, 0, Control_c, 1, 10, 56
3, 120, Note_on_c, 1, 60, 64
3, 240, Note_on_c, 1, 60, 0
3, 240, Note_on_c, 1, 58, 64
3, 360, Note_on_c, 1, 58, 0
3, 360, Note_on_c, 1, 56, 64
3, 480, Note_on_c, 1, 56, 0
3, 480, Note_on_c, 1, 55, 64
3, 600, Note_on_c, 1, 55, 0
3, 600, Note_on_c, 1, 53, 64
3, 720, Note_on_c, 1, 53, 0
3, 720, Note_on_c, 1, 51, 64
3, 840, Note_on_c, 1, 51, 0
3, 840, Note_on_c, 1, 49, 64
3, 960, Note_on_c, 1, 49, 0
3, 960, Note_on_c, 1, 48, 64
3, 1080, Note_on_c, 1, 48, 0
3, 1080, Note_on_c, 1, 46, 64
3, 1200, Note_on_c, 1, 46, 0
3, 1200, Note_on_c, 1, 44, 64
3, 1320, Note_on_c, 1, 44, 0
3, 1320, Note_on_c, 1, 48, 64
3, 1440, Note_on_c, 1, 48, 0
3, 1440, Note_on_c, 1, 49, 64
3, 1560, Note_on_c, 1, 49, 0
3, 1560, Note_on_c, 1, 61, 64
3, 1680, Note_on_c, 1, 61, 0
3, 1680, Note_on_c, 1, 60, 64
3, 1800, Note_on_c, 1, 60, 0
3, 1800, Note_on_c, 1, 58, 64
3, 1920, Note_on_c, 1, 58, 0
3, 1920, Note_on_c, 1, 60, 64
3, 2040, Note_on_c, 1, 60, 0
3, 2040, Note_on_c, 1, 56, 64
3, 2160, Note_on_c, 1, 56, 0
3, 2160, Note_on_c, 1, 58, 64
3, 2280, Note_on_c, 1, 58, 0
3, 2280, Note_on_c, 1, 51, 64
3, 2400, Note_on_c, 1, 51, 0
3, 2400, Note_on_c, 1, 56, 64
3, 2520, Note_on_c, 1, 56, 0
3, 2520, Note_on_c, 1, 51, 64
3, 2640, Note_on_c, 1, 51, 0
3, 2640, Note_on_c, 1, 48, 64
3, 2760, Note_on_c, 1, 48, 0
3, 2760, Note_on_c, 1, 44, 64
3, 2880, Note_on_c, 1, 44, 0
3, 3000, Note_on_c, 1, 61, 64
3, 3120, Note_on_c, 1, 61, 0
3, 3120, Note_on_c, 1, 60, 64
3, 3240, Note_on_c, 1, 60, 0
3, 3240, Note_on_c, 1, 58, 64
3, 3360, Note_on_c, 1, 58, 0
3, 3360, Note_on_c, 1, 57, 64
3, 3480, Note_on_c, 1, 57, 0
3, 3480, Note_on_c, 1, 53, 64
3, 3600, Note_on_c, 1, 53, 0
3, 3600, Note_on_c, 1, 58, 64
3, 3720, Note_on_c, 1, 58, 0
3, 3720, Note_on_c, 1, 46, 64
3, 3840, Note_on_c, 1, 46, 0
3, 3840, Note_on_c, 1, 58, 64
3, 3960, Note_on_c, 1, 58, 0
3, 3960, Note_on_c, 1, 56, 64
3, 4080, Note_on_c, 1, 56, 0
3, 4080, Note_on_c, 1, 55, 64
3, 4200, Note_on_c, 1, 55, 0
3, 4200, Note_on_c, 1, 63, 64
3, 4320, Note_on_c, 1, 63, 0
3, 4320, Note_on_c, 1, 56, 64
3, 4440, Note_on_c, 1, 56, 0
3, 4440, Note_on_c, 1, 60, 64
3, 4560, Note_on_c, 1, 60, 0
3, 4560, Note_on_c, 1, 61, 64
3, 4680, Note_on_c, 1, 61, 0
3, 4680, Note_on_c, 1, 49, 64
3, 4920, Note_on_c, 1, 49, 0
3, 4920, Note_on_c, 1, 50, 64
3, 5040, Note_on_c, 1, 50, 0
3, 5040, Note_on_c, 1, 51, 64
3, 5160, Note_on_c, 1, 51, 0
3, 5160, Note_on_c, 1, 39, 64
3, 5280, Note_on_c, 1, 39, 0
3, 5280, Note_on_c, 1, 51, 64
3, 5400, Note_on_c, 1, 51, 0
3, 5400, Note_on_c, 1, 55, 64
3, 5520, Note_on_c, 1, 55, 0
3, 5520, Note_on_c, 1, 58, 64
3, 5640, Note_on_c, 1, 58, 0
3, 5640, Note_on_c, 1, 63, 64
3, 5760, Note_on_c, 1, 63, 0
3, 5760, Note_on_c, 1, 51, 64
3, 5880, Note_on_c, 1, 51, 0
3, 5880, Note_on_c, 1, 63, 64
3, 5880, Note_on_c, 1, 67, 64
3, 6000, Note_on_c, 1, 67, 0
3, 6000, Note_on_c, 1, 63, 0
3, 6000, Note_on_c, 1, 62, 64
3, 6000, Note_on_c, 1, 65, 64
3, 6120, Note_on_c, 1, 65, 0
3, 6120, Note_on_c, 1, 62, 0
3, 6120, Note_on_c, 1, 60, 64
3, 6120, Note_on_c, 1, 63, 64
3, 6240, Note_on_c, 1, 63, 0
3, 6240, Note_on_c, 1, 60, 0
3, 6240, Note_on_c, 1, 58, 64
3, 6240, Note_on_c, 1, 62, 64
3, 6360, Note_on_c, 1, 62, 0
3, 6360, Note_on_c, 1, 58, 0
3, 6360, Note_on_c, 1, 56, 64
3, 6360, Note_on_c, 1, 60, 64
3, 6480, Note_on_c, 1, 60, 0
3, 6480, Note_on_c, 1, 56, 0
3, 6480, Note_on_c, 1, 55, 64
3, 6480, Note_on_c, 1, 58, 64
3, 6600, Note_on_c, 1, 58, 0
3, 6600, Note_on_c, 1, 55, 0
3, 6600, Note_on_c, 1, 53, 64
3, 6600, Note_on_c, 1, 56, 64
3, 6720, Note_on_c, 1, 56, 0
3, 6720, Note_on_c, 1, 53, 0
3, 6720, Note_on_c, 1, 51, 64
3, 6720, Note_on_c, 1, 55, 64
3, 6840, Note_on_c, 1, 55, 0
3, 6840, Note_on_c, 1, 51, 0
3, 6840, Note_on_c, 1, 50, 64
3, 6840, Note_on_c, 1, 53, 64
3, 6960, Note_on_c, 1, 53, 0
3, 6960, Note_on_c, 1, 50, 0
3, 6960, Note_on_c, 1, 48, 64
3, 6960, Note_on_c, 1, 51, 64
3, 7080, Note_on_c, 1, 51, 0
3, 7080, Note_on_c, 1, 48, 0
3, 7080, Note_on_c, 1, 46, 64
3, 7080, Note_on_c, 1, 49, 64
3, 7200, Note_on_c, 1, 49, 0
3, 7200, Note_on_c, 1, 46, 0
3, 7200, Note_on_c, 1, 44, 64
3, 7200, Note_on_c, 1, 48, 64
3, 7320, Note_on_c, 1, 48, 0
3, 7320, Note_on_c, 1, 44, 0
3, 7320, Note_on_c, 1, 43, 67
3, 7320, Note_on_c, 1, 46, 67
3, 7440, Note_on_c, 1, 46, 0
3, 7440, Note_on_c, 1, 43, 0
3, 7440, Note_on_c, 1, 41, 69
3, 7440, Note_on_c, 1, 44, 69
3, 7560, Note_on_c, 1, 44, 0
3, 7560, Note_on_c, 1, 41, 0
3, 7560, Note_on_c, 1, 39, 72
3, 7560, Note_on_c, 1, 43, 72
3, 7680, Note_on_c, 1, 43, 0
3, 7680, Note_on_c, 1, 39, 0
3, 7680, Note_on_c, 1, 38, 75
3, 7680, Note_on_c, 1, 41, 75
3, 7800, Note_on_c, 1, 41, 0
3, 7800, Note_on_c, 1, 38, 0
3, 7800, Note_on_c, 1, 62, 64
3, 7800, Note_on_c, 1, 65, 64
3, 7920, Note_on_c, 1, 65, 0
3, 7920, Note_on_c, 1, 62, 0
3, 7920, Note_on_c, 1, 63, 64
3, 7920, Note_on_c, 1, 67, 64
3, 8040, Note_on_c, 1, 67, 0
3, 8040, Note_on_c, 1, 63, 0
3, 8040, Note_on_c, 1, 62, 64
3, 8040, Note_on_c, 1, 65, 64
3, 8160, Note_on_c, 1, 65, 0
3, 8160, Note_on_c, 1, 62, 0
3, 8160, Note_on_c, 1, 60, 64
3, 8160, Note_on_c, 1, 63, 64
3, 8280, Note_on_c, 1, 63, 0
3, 8280, Note_on_c, 1, 60, 0
3, 8280, Note_on_c, 1, 58, 64
3, 8280, Note_on_c, 1, 62, 64
3, 8400, Note_on_c, 1, 62, 0
3, 8400, Note_on_c, 1, 58, 0
3, 8400, Note_on_c, 1, 56, 64
3, 8400, Note_on_c, 1, 60, 64
3, 8520, Note_on_c, 1, 60, 0
3, 8520, Note_on_c, 1, 56, 0
3, 8520, Note_on_c, 1, 57, 64
3, 8640, Note_on_c, 1, 57, 0
3, 8640, Note_on_c, 1, 58, 64
3, 8760, Note_on_c, 1, 58, 0
3, 8760, Note_on_c, 1, 46, 56
3, 8832, Note_on_c, 1, 46, 0
3, 8880, Note_on_c, 1, 58, 64
3, 8880, Note_on_c, 1, 62, 64
3, 9000, Note_on_c, 1, 62, 0
3, 9000, Note_on_c, 1, 58, 0
3, 9000, Note_on_c, 1, 60, 64
3, 9000, Note_on_c, 1, 63, 64
3, 9120, Note_on_c, 1, 63, 0
3, 9120, Note_on_c, 1, 60, 0
3, 9120, Note_on_c, 1, 62, 64
3, 9120, Note_on_c, 1, 65, 64
3, 9240, Note_on_c, 1, 65, 0
3, 9240, Note_on_c, 1, 62, 0
3, 9240, Note_on_c, 1, 63, 64
3, 9240, Note_on_c, 1, 67, 64
3, 9360, Note_on_c, 1, 67, 0
3, 9360, Note_on_c, 1, 63, 0
3, 9360, Note_on_c, 1, 65, 72
3, 9360, Note_on_c, 1, 68, 72
3, 9480, Note_on_c, 1, 68, 0
3, 9480, Note_on_c, 1, 65, 0
3, 9480, Note_on_c, 1, 62, 72
3, 9480, Note_on_c, 1, 65, 72
3, 9600, Note_on_c, 1, 65, 0
3, 9600, Note_on_c, 1, 62, 0
3, 9600, Note_on_c, 1, 63, 72
3, 9600, Note_on_c, 1, 67, 72
3, 9720, Note_on_c, 1, 67, 0
3, 9720, Note_on_c, 1, 63, 0
3, 9720, Note_on_c, 1, 67, 72
3, 9720, Note_on_c, 1, 70, 72
3, 9840, Note_on_c, 1, 70, 0
3, 9840, Note_on_c, 1, 67, 0
3, 9840, Note_on_c, 1, 65, 72
3, 9840, Note_on_c, 1, 68, 72
3, 9960, Note_on_c, 1, 68, 0
3, 9960, Note_on_c, 1, 65, 0
3, 9960, Note_on_c, 1, 63, 72
3, 9960, Note_on_c, 1, 67, 72
3, 10080, Note_on_c, 1, 67, 0
3, 10080, Note_on_c, 1, 63, 0
3, 10080, Note_on_c, 1, 62, 48
3, 10080, Note_on_c, 1, 65, 48
3, 10200, Note_on_c, 1, 65, 0
3, 10200, Note_on_c, 1, 62, 0
3, 10200, Note_on_c, 1, 65, 51
3, 10200, Note_on_c, 1, 68, 51
3, 10320, Note_on_c, 1, 68, 0
3, 10320, Note_on_c, 1, 65, 0
3, 10320, Note_on_c, 1, 63, 53
3, 10320, Note_on_c, 1, 67, 53
3, 10440, Note_on_c, 1, 67, 0
3, 10440, Note_on_c, 1, 63, 0
3, 10440, Note_on_c, 1, 67, 56
3, 10440, Note_on_c, 1, 70, 56
3, 10560, Note_on_c, 1, 70, 0
3, 10560, Note_on_c, 1, 67, 0
3, 10560, Note_on_c, 1, 65, 59
3, 10560, Note_on_c, 1, 68, 59
3, 10680, Note_on_c, 1, 68, 0
3, 10680, Note_on_c, 1, 65, 0
3, 10680, Note_on_c, 1, 63, 61
3, 10680, Note_on_c, 1, 67, 61
3, 10800, Note_on_c, 1, 67, 0
3, 10800, Note_on_c, 1, 63, 0
3, 10800, Note_on_c, 1, 62, 64
3, 10800, Note_on_c, 1, 65, 64
3, 10920, Note_on_c, 1, 65, 0
3, 10920, Note_on_c, 1, 62, 0
3, 10920, Note_on_c, 1, 65, 64
3, 10920, Note_on_c, 1, 68, 64
3, 11040, Note_on_c, 1, 68, 0
3, 11040, Note_on_c, 1, 65, 0
3, 11040, Note_on_c, 1, 63, 64
3, 11040, Note_on_c, 1, 67, 64
3, 11160, Note_on_c, 1, 67, 0
3, 11160, Note_on_c, 1, 63, 0
3, 11160, Note_on_c, 1, 62, 64
3, 11160, Note_on_c, 1, 65, 64
3, 11280, Note_on_c, 1, 65, 0
3, 11280, Note_on_c, 1, 62, 0
3, 11280, Note_on_c, 1, 60, 64
3, 11280, Note_on_c, 1, 63, 64
3, 11400, Note_on_c, 1, 63, 0
3, 11400, Note_on_c, 1, 60, 0
3, 11400, Note_on_c, 1, 63, 64
3, 11400, Note_on_c, 1, 66, 64
3, 11520, Note_on_c, 1, 66, 0
3, 11520, Note_on_c, 1, 63, 0
3, 11520, Note_on_c, 1, 62, 64
3, 11520, Note_on_c, 1, 65, 64
3, 11640, Note_on_c, 1, 65, 0
3, 11640, Note_on_c, 1, 62, 0
3, 11640, Note_on_c, 1, 60, 61
3, 11640, Note_on_c, 1, 63, 61
3, 11760, Note_on_c, 1, 63, 0
3, 11760, Note_on_c, 1, 60, 0
3, 11760, Note_on_c, 1, 58, 59
3, 11760, Note_on_c, 1, 62, 59
3, 11880, Note_on_c, 1, 62, 0
3, 11880, Note_on_c, 1, 58, 0
3, 11880, Note_on_c, 1, 56, 56
3, 11880, Note_on_c, 1, 60, 56
3, 12000, Note_on_c, 1, 60, 0
3, 12000, Note_on_c, 1, 56, 0
3, 12000, Note_on_c, 1, 55, 53
3, 12000, Note_on_c, 1, 58, 53
3, 12120, Note_on_c, 1, 58, 0
3, 12120, Note_on_c, 1, 55, 0
3, 12120, Note_on_c, 1, 58, 51
3, 12120, Note_on_c, 1, 61, 51
3, 12240, Note_on_c, 1, 61, 0
3, 12240, Note_on_c, 1, 58, 0
3, 12240, Note_on_c, 1, 56, 48
3, 12240, Note_on_c, 1, 60, 48
3, 12360, Note_on_c, 1, 60, 0
3, 12360, Note_on_c, 1, 56, 0
3, 12360, Note_on_c, 1, 55, 51
3, 12360, Note_on_c, 1, 58, 51
3, 12480, Note_on_c, 1, 58, 0
3, 12480, Note_on_c, 1, 55, 0
3, 12480, Note_on_c, 1, 53, 53
3, 12480, Note_on_c, 1, 56, 53
3, 12600, Note_on_c, 1, 56, 0
3, 12600, Note_on_c, 1, 53, 0
3, 12600, Note_on_c, 1, 51, 56
3, 12600, Note_on_c, 1, 54, 56
3, 12720, Note_on_c, 1, 54, 0
3, 12720, Note_on_c, 1, 51, 0
3, 12720, Note_on_c, 1, 50, 59
3, 12720, Note_on_c, 1, 53, 59
3, 12840, Note_on_c, 1, 53, 0
3, 12840, Note_on_c, 1, 50, 0
3, 12840, Note_on_c, 1, 63, 61
3, 12840, Note_on_c, 1, 66, 61
3, 12960, Note_on_c, 1, 66, 0
3, 12960, Note_on_c, 1, 63, 0
3, 12960, Note_on_c, 1, 62, 64
3, 12960, Note_on_c, 1, 65, 64
3, 13080, Note_on_c, 1, 65, 0
3, 13080, Note_on_c, 1, 62, 0
3, 13080, Note_on_c, 1, 51, 48
3, 13080, Note_on_c, 1, 54, 48
3, 13200, Note_on_c, 1, 54, 0
3, 13200, Note_on_c, 1, 51, 0
3, 13200, Note_on_c, 1, 50, 48
3, 13200, Note_on_c, 1, 53, 48
3, 13320, Note_on_c, 1, 53, 0
3, 13320, Note_on_c, 1, 50, 0
3, 13320, Note_on_c, 1, 66, 48
3, 13320, Note_on_c, 1, 63, 48
3, 13440, Note_on_c, 1, 63, 0
3, 13440, Note_on_c, 1, 66, 0
3, 13440, Note_on_c, 1, 65, 48
3, 13440, Note_on_c, 1, 62, 48
3, 13560, Note_on_c, 1, 62, 0
3, 13560, Note_on_c, 1, 65, 0
3, 13560, Note_on_c, 1, 60, 64
3, 13680, Note_on_c, 1, 60, 0
3, 13680, Note_on_c, 1, 58, 64
3, 13800, Note_on_c, 1, 58, 0
3, 13800, Note_on_c, 1, 56, 64
3, 13920, Note_on_c, 1, 56, 0
3, 13920, Note_on_c, 1, 55, 64
3, 14040, Note_on_c, 1, 55, 0
3, 14040, Note_on_c, 1, 53, 64
3, 14160, Note_on_c, 1, 53, 0
3, 14160, Note_on_c, 1, 51, 64
3, 14280, Note_on_c, 1, 51, 0
3, 14280, Note_on_c, 1, 43, 64
3, 14400, Note_on_c, 1, 43, 0
3, 14400, Note_on_c, 1, 44, 64
3, 14568, Note_on_c, 1, 44, 0
3, 14640, Note_on_c, 1, 46, 59
3, 14808, Note_on_c, 1, 46, 0
3, 14880, Note_on_c, 1, 34, 53
3, 15120, Note_on_c, 1, 34, 0
3, 15120, Note_on_c, 1, 39, 48
3, 15240, Note_on_c, 1, 39, 0
3, 15240, Note_on_c, 1, 60, 72
3, 15360, Note_on_c, 1, 60, 0
3, 15360, Note_on_c, 1, 58, 72
3, 15480, Note_on_c, 1, 58, 0
3, 15480, Note_on_c, 1, 56, 72
3, 15600, Note_on_c, 1, 56, 0
3, 15600, Note_on_c, 1, 55, 72
3, 15720, Note_on_c, 1, 55, 0
3, 15720, Note_on_c, 1, 60, 48
3, 15840, Note_on_c, 1, 60, 0
3, 15840, Note_on_c, 1, 58, 48
3, 15960, Note_on_c, 1, 58, 0
3, 15960, Note_on_c, 1, 68, 48
3, 16080, Note_on_c, 1, 68, 0
3, 16080, Note_on_c, 1, 67, 48
3, 16200, Note_on_c, 1, 67, 0
3, 16200, Note_on_c, 1, 65, 48
3, 16320, Note_on_c, 1, 65, 0
3, 16320, Note_on_c, 1, 63, 64
3, 16440, Note_on_c, 1, 63, 0
3, 16440, Note_on_c, 1, 55, 64
3, 16560, Note_on_c, 1, 55, 0
3, 16560, Note_on_c, 1, 56, 64
3, 16800, Note_on_c, 1, 56, 0
3, 16800, Note_on_c, 1, 58, 64
3, 17040, Note_on_c, 1, 58, 0
3, 17040, Note_on_c, 1, 46, 64
3, 17280, Note_on_c, 1, 46, 0
3, 17280, Note_on_c, 1, 51, 64
3, 17520, Note_on_c, 1, 51, 0
3, 17520, Note_on_c, 1, 39, 48
3, 17760, Note_on_c, 1, 39, 0
3, 18120, Note_on_c, 1, 67, 64
3, 18204, Note_on_c, 1, 67, 0
3, 18240, Note_on_c, 1, 65, 64
3, 18360, Note_on_c, 1, 65, 0
3, 18360, Note_on_c, 1, 63, 64
3, 18444, Note_on_c, 1, 63, 0
3, 18480, Note_on_c, 1, 62, 64
3, 18600, Note_on_c, 1, 62, 0
3, 18600, Note_on_c, 1, 60, 64
3, 18720, Note_on_c, 1, 60, 0
3, 18720, Note_on_c, 1, 58, 64
3, 18840, Note_on_c, 1, 58, 0
3, 18840, Note_on_c, 1, 56, 64
3, 18960, Note_on_c, 1, 56, 0
3, 18960, Note_on_c, 1, 55, 64
3, 19080, Note_on_c, 1, 55, 0
3, 19080, Note_on_c, 1, 53, 64
3, 19200, Note_on_c, 1, 53, 0
3, 19200, Note_on_c, 1, 51, 64
3, 19320, Note_on_c, 1, 51, 0
3, 19320, Note_on_c, 1, 55, 64
3, 19440, Note_on_c, 1, 55, 0
3, 19440, Note_on_c, 1, 56, 64
3, 19560, Note_on_c, 1, 56, 0
3, 19560, Note_on_c, 1, 68, 64
3, 19680, Note_on_c, 1, 68, 0
3, 19680, Note_on_c, 1, 67, 64
3, 19800, Note_on_c, 1, 67, 0
3, 19800, Note_on_c, 1, 65, 64
3, 19920, Note_on_c, 1, 65, 0
3, 19920, Note_on_c, 1, 67, 64
3, 20040, Note_on_c, 1, 67, 0
3, 20040, Note_on_c, 1, 63, 64
3, 20160, Note_on_c, 1, 63, 0
3, 20160, Note_on_c, 1, 65, 64
3, 20280, Note_on_c, 1, 65, 0
3, 20280, Note_on_c, 1, 58, 64
3, 20400, Note_on_c, 1, 58, 0
3, 20400, Note_on_c, 1, 63, 64
3, 20520, Note_on_c, 1, 63, 0
3, 20520, Note_on_c, 1, 58, 64
3, 20640, Note_on_c, 1, 58, 0
3, 20640, Note_on_c, 1, 55, 64
3, 20760, Note_on_c, 1, 55, 0
3, 20760, Note_on_c, 1, 51, 64
3, 20880, Note_on_c, 1, 51, 0
3, 21000, Note_on_c, 1, 63, 65
3, 21000, Note_on_c, 1, 67, 65
3, 21120, Note_on_c, 1, 67, 0
3, 21120, Note_on_c, 1, 63, 0
3, 21120, Note_on_c, 1, 67, 67
3, 21120, Note_on_c, 1, 70, 67
3, 21240, Note_on_c, 1, 70, 0
3, 21240, Note_on_c, 1, 67, 0
3, 21240, Note_on_c, 1, 68, 68
3, 21240, Note_on_c, 1, 72, 68
3, 21360, Note_on_c, 1, 72, 0
3, 21360, Note_on_c, 1, 68, 0
3, 21360, Note_on_c, 1, 67, 69
3, 21360, Note_on_c, 1, 70, 69
3, 21480, Note_on_c, 1, 70, 0
3, 21480, Note_on_c, 1, 67, 0
3, 21480, Note_on_c, 1, 65, 71
3, 21480, Note_on_c, 1, 68, 71
3, 21600, Note_on_c, 1, 68, 0
3, 21600, Note_on_c, 1, 65, 0
3, 21600, Note_on_c, 1, 64, 72
3, 21600, Note_on_c, 1, 67, 72
3, 21720, Note_on_c, 1, 67, 0
3, 21720, Note_on_c, 1, 64, 0
3, 21720, Note_on_c, 1, 65, 73
3, 21720, Note_on_c, 1, 68, 73
3, 21840, Note_on_c, 1, 68, 0
3, 21840, Note_on_c, 1, 65, 0
3, 21840, Note_on_c, 1, 64, 75
3, 21840, Note_on_c, 1, 67, 75
3, 21960, Note_on_c, 1, 67, 0
3, 21960, Note_on_c, 1, 64, 0
3, 21960, Note_on_c, 1, 65, 76
3, 21960, Note_on_c, 1, 68, 76
3, 22080, Note_on_c, 1, 68, 0
3, 22080, Note_on_c, 1, 65, 0
3, 22080, Note_on_c, 1, 64, 77
3, 22080, Note_on_c, 1, 67, 77
3, 22200, Note_on_c, 1, 67, 0
3, 22200, Note_on_c, 1, 64, 0
3, 22200, Note_on_c, 1, 60, 79
3, 22200, Note_on_c, 1, 64, 79
3, 22320, Note_on_c, 1, 64, 0
3, 22320, Note_on_c, 1, 60, 0
3, 22320, Note_on_c, 1, 65, 64
3, 22320, Note_on_c, 1, 68, 64
3, 22440, Note_on_c, 1, 68, 0
3, 22440, Note_on_c, 1, 65, 0
3, 22440, Note_on_c, 1, 67, 61
3, 22440, Note_on_c, 1, 70, 61
3, 22560, Note_on_c, 1, 70, 0
3, 22560, Note_on_c, 1, 67, 0
3, 22560, Note_on_c, 1, 68, 59
3, 22560, Note_on_c, 1, 72, 59
3, 22680, Note_on_c, 1, 72, 0
3, 22680, Note_on_c, 1, 68, 0
3, 22680, Note_on_c, 1, 70, 56
3, 22680, Note_on_c, 1, 73, 56
3, 22800, Note_on_c, 1, 73, 0
3, 22800, Note_on_c, 1, 70, 0
3, 22800, Note_on_c, 1, 68, 53
3, 22800, Note_on_c, 1, 72, 53
3, 22920, Note_on_c, 1, 72, 0
3, 22920, Note_on_c, 1, 68, 0
3, 22920, Note_on_c, 1, 67, 51
3, 22920, Note_on_c, 1, 70, 51
3, 23040, Note_on_c, 1, 70, 0
3, 23040, Note_on_c, 1, 67, 0
3, 23040, Note_on_c, 1, 65, 48
3, 23040, Note_on_c, 1, 68, 48
3, 23160, Note_on_c, 1, 68, 0
3, 23160, Note_on_c, 1, 65, 0
3, 23160, Note_on_c, 1, 63, 45
3, 23160, Note_on_c, 1, 66, 45
3, 23280, Note_on_c, 1, 66, 0
3, 23280, Note_on_c, 1, 63, 0
3, 23280, Note_on_c, 1, 62, 43
3, 23280, Note_on_c, 1, 65, 43
3, 23400, Note_on_c, 1, 65, 0
3, 23400, Note_on_c, 1, 62, 0
3, 23400, Note_on_c, 1, 63, 40
3, 23400, Note_on_c, 1, 66, 40
3, 23520, Note_on_c, 1, 66, 0
3, 23520, Note_on_c, 1, 63, 0
3, 23520, Note_on_c, 1, 62, 37
3, 23520, Note_on_c, 1, 65, 37
3, 23640, Note_on_c, 1, 65, 0
3, 23640, Note_on_c, 1, 62, 0
3, 23640, Note_on_c, 1, 58, 35
3, 23640, Note_on_c, 1, 62, 35
3, 23760, Note_on_c, 1, 62, 0
3, 23760, Note_on_c, 1, 58, 0
3, 23760, Note_on_c, 1, 63, 32
3, 23760, Note_on_c, 1, 66, 32
3, 23880, Note_on_c, 1, 66, 0
3, 23880, Note_on_c, 1, 63, 0
3, 23880, Note_on_c, 1, 65, 36
3, 23880, Note_on_c, 1, 68, 36
3, 24000, Note_on_c, 1, 68, 0
3, 24000, Note_on_c, 1, 65, 0
3, 24000, Note_on_c, 1, 66, 40
3, 24000, Note_on_c, 1, 70, 40
3, 24120, Note_on_c, 1, 70, 0
3, 24120, Note_on_c, 1, 66, 0
3, 24120, Note_on_c, 1, 68, 44
3, 24120, Note_on_c, 1, 71, 44
3, 24240, Note_on_c, 1, 71, 0
3, 24240, Note_on_c, 1, 68, 0
3, 24240, Note_on_c, 1, 66, 48
3, 24240, Note_on_c, 1, 70, 48
3, 24360, Note_on_c, 1, 70, 0
3, 24360, Note_on_c, 1, 66, 0
3, 24360, Note_on_c, 1, 65, 52
3, 24360, Note_on_c, 1, 68, 52
3, 24480, Note_on_c, 1, 68, 0
3, 24480, Note_on_c, 1, 65, 0
3, 24480, Note_on_c, 1, 63, 56
3, 24480, Note_on_c, 1, 66, 56
3, 24600, Note_on_c, 1, 66, 0
3, 24600, Note_on_c, 1, 63, 0
3, 24600, Note_on_c, 1, 61, 52
3, 24600, Note_on_c, 1, 64, 52
3, 24720, Note_on_c, 1, 64, 0
3, 24720, Note_on_c, 1, 61, 0
3, 24720, Note_on_c, 1, 60, 48
3, 24720, Note_on_c, 1, 63, 48
3, 24840, Note_on_c, 1, 63, 0
3, 24840, Note_on_c, 1, 60, 0
3, 24840, Note_on_c, 1, 61, 44
3, 24840, Note_on_c, 1, 64, 44
3, 24960, Note_on_c, 1, 64, 0
3, 24960, Note_on_c, 1, 61, 0
3, 24960, Note_on_c, 1, 60, 40
3, 24960, Note_on_c, 1, 63, 40
3, 25080, Note_on_c, 1, 63, 0
3, 25080, Note_on_c, 1, 60, 0
3, 25080, Note_on_c, 1, 68, 36
3, 25200, Note_on_c, 1, 61, 32
3, 25320, Note_on_c, 1, 68, 0
3, 25320, Note_on_c, 1, 69, 39
3, 25440, Note_on_c, 1, 69, 0
3, 25440, Note_on_c, 1, 70, 45
3, 25560, Note_on_c, 1, 61, 0
3, 25560, Note_on_c, 1, 61, 52
3, 25680, Note_on_c, 1, 61, 0
3, 25680, Note_on_c, 1, 60, 59
3, 25800, Note_on_c, 1, 70, 0
3, 25800, Note_on_c, 1, 69, 65
3, 25920, Note_on_c, 1, 60, 0
3, 25920, Note_on_c, 1, 58, 72
3, 26040, Note_on_c, 1, 69, 0
3, 26040, Note_on_c, 1, 68, 69
3, 26160, Note_on_c, 1, 68, 0
3, 26160, Note_on_c, 1, 67, 67
3, 26280, Note_on_c, 1, 67, 0
3, 26280, Note_on_c, 1, 66, 64
3, 26400, Note_on_c, 1, 58, 0
3, 26400, Note_on_c, 1, 56, 61
3, 26520, Note_on_c, 1, 66, 0
3, 26520, Note_on_c, 1, 66, 59
3, 26640, Note_on_c, 1, 66, 0
3, 26640, Note_on_c, 1, 65, 56
3, 26760, Note_on_c, 1, 65, 0
3, 26760, Note_on_c, 1, 61, 53
3, 26880, Note_on_c, 1, 61, 0
3, 26880, Note_on_c, 1, 63, 51
3, 27000, Note_on_c, 1, 63, 0
3, 27000, Note_on_c, 1, 60, 48
3, 27120, Note_on_c, 1, 60, 0
3, 27120, Note_on_c, 1, 61, 45
3, 27240, Note_on_c, 1, 56, 0
3, 27240, Note_on_c, 1, 55, 43
3, 27360, Note_on_c, 1, 55, 0
3, 27360, Note_on_c, 1, 61, 0
3, 27360, Note_on_c, 1, 56, 40
3, 27360, Note_on_c, 1, 61, 40
3, 27600, Note_on_c, 1, 61, 0
3, 27600, Note_on_c, 1, 60, 37
3, 27684, Note_on_c, 1, 60, 0
3, 27684, Note_on_c, 1, 56, 0
3, 27720, Note_on_c, 1, 58, 36
3, 27720, Note_on_c, 1, 61, 36
3, 27840, Note_on_c, 1, 61, 0
3, 27840, Note_on_c, 1, 58, 0
3, 27840, Note_on_c, 1, 60, 35
3, 27840, Note_on_c, 1, 63, 35
3, 27960, Note_on_c, 1, 63, 0
3, 27960, Note_on_c, 1, 60, 0
3, 27960, Note_on_c, 1, 61, 33
3, 27960, Note_on_c, 1, 65, 33
3, 28080, Note_on_c, 1, 65, 0
3, 28080, Note_on_c, 1, 61, 0
3, 28080, Note_on_c, 1, 63, 64
3, 28080, Note_on_c, 1, 66, 64
3, 28200, Note_on_c, 1, 66, 0
3, 28200, Note_on_c, 1, 63, 0
3, 28200, Note_on_c, 1, 60, 64
3, 28200, Note_on_c, 1, 63, 64
3, 28320, Note_on_c, 1, 63, 0
3, 28320, Note_on_c, 1, 60, 0
3, 28320, Note_on_c, 1, 61, 64
3, 28320, Note_on_c, 1, 65, 64
3, 28440, Note_on_c, 1, 65, 0
3, 28440, Note_on_c, 1, 61, 0
3, 28440, Note_on_c, 1, 65, 64
3, 28440, Note_on_c, 1, 68, 64
3, 28560, Note_on_c, 1, 68, 0
3, 28560, Note_on_c, 1, 65, 0
3, 28560, Note_on_c, 1, 63, 64
3, 28560, Note_on_c, 1, 66, 64
3, 28680, Note_on_c, 1, 66, 0
3, 28680, Note_on_c, 1, 63, 0
3, 28680, Note_on_c, 1, 61, 64
3, 28680, Note_on_c, 1, 65, 64
3, 28764, Note_on_c, 1, 65, 0
3, 28764, Note_on_c, 1, 61, 0
3, 28800, Note_on_c, 1, 63, 48
3, 28800, Note_on_c, 1, 60, 48
3, 28920, Note_on_c, 1, 60, 0
3, 28920, Note_on_c, 1, 63, 0
3, 28920, Note_on_c, 1, 66, 51
3, 28920, Note_on_c, 1, 63, 51
3, 29040, Note_on_c, 1, 63, 0
3, 29040, Note_on_c, 1, 66, 0
3, 29040, Note_on_c, 1, 65, 53
3, 29040, Note_on_c, 1, 61, 53
3, 29160, Note_on_c, 1, 61, 0
3, 29160, Note_on_c, 1, 65, 0
3, 29160, Note_on_c, 1, 68, 56
3, 29160, Note_on_c, 1, 65, 56
3, 29280, Note_on_c, 1, 65, 0
3, 29280, Note_on_c, 1, 68, 0
3, 29280, Note_on_c, 1, 66, 59
3, 29280, Note_on_c, 1, 63, 59
3, 29400, Note_on_c, 1, 63, 0
3, 29400, Note_on_c, 1, 66, 0
3, 29400, Note_on_c, 1, 65, 61
3, 29400, Note_on_c, 1, 61, 61
3, 29520, Note_on_c, 1, 61, 0
3, 29520, Note_on_c, 1, 65, 0
3, 29520, Note_on_c, 1, 60, 64
3, 29520, Note_on_c, 1, 63, 64
3, 29640, Note_on_c, 1, 63, 0
3, 29640, Note_on_c, 1, 60, 0
3, 29640, Note_on_c, 1, 61, 67
3, 29640, Note_on_c, 1, 64, 67
3, 29760, Note_on_c, 1, 64, 0
3, 29760, Note_on_c, 1, 61, 0
3, 29760, Note_on_c, 1, 60, 69
3, 29760, Note_on_c, 1, 63, 69
3, 29880, Note_on_c, 1, 63, 0
3, 29880, Note_on_c, 1, 60, 0
3, 29880, Note_on_c, 1, 58, 72
3, 29880, Note_on_c, 1, 61, 72
3, 30000, Note_on_c, 1, 61, 0
3, 30000, Note_on_c, 1, 58, 0
3, 30000, Note_on_c, 1, 56, 75
3, 30000, Note_on_c, 1, 60, 75
3, 30120, Note_on_c, 1, 60, 0
3, 30120, Note_on_c, 1, 56, 0
3, 30120, Note_on_c, 1, 54, 77
3, 30120, Note_on_c, 1, 58, 77
3, 30240, Note_on_c, 1, 58, 0
3, 30240, Note_on_c, 1, 54, 0
3, 30240, Note_on_c, 1, 53, 72
3, 30240, Note_on_c, 1, 56, 72
3, 30480, Note_on_c, 1, 56, 0
3, 30480, Note_on_c, 1, 53, 0
3, 30480, Note_on_c, 1, 54, 72
3, 30720, Note_on_c, 1, 54, 0
3, 30720, Note_on_c, 1, 56, 72
3, 30960, Note_on_c, 1, 56, 0
3, 30960, Note_on_c, 1, 53, 48
3, 31200, Note_on_c, 1, 53, 0
3, 31200, Note_on_c, 1, 54, 53
3, 31440, Note_on_c, 1, 54, 0
3, 31440, Note_on_c, 1, 56, 59
3, 31680, Note_on_c, 1, 56, 0
3, 31680, Note_on_c, 1, 49, 64
3, 31800, Note_on_c, 1, 53, 64
3, 31920, Note_on_c, 1, 53, 0
3, 31920, Note_on_c, 1, 56, 64
3, 32040, Note_on_c, 1, 56, 0
3, 32040, Note_on_c, 1, 61, 64
3, 32160, Note_on_c, 1, 61, 0
3, 32160, Note_on_c, 1, 49, 0
3, 32160, Note_on_c, 1, 48, 64
3, 32280, Note_on_c, 1, 56, 64
3, 32400, Note_on_c, 1, 56, 0
3, 32400, Note_on_c, 1, 48, 0
3, 32400, Note_on_c, 1, 49, 32
3, 32520, Note_on_c, 1, 53, 32
3, 32640, Note_on_c, 1, 53, 0
3, 32640, Note_on_c, 1, 56, 32
3, 32760, Note_on_c, 1, 56, 0
3, 32760, Note_on_c, 1, 61, 32
3, 32880, Note_on_c, 1, 61, 0
3, 32880, Note_on_c, 1, 49, 0
3, 32880, Note_on_c, 1, 48, 32
3, 33000, Note_on_c, 1, 56, 32
3, 33120, Note_on_c, 1, 56, 0
3, 33120, Note_on_c, 1, 48, 0
3, 33120, Note_on_c, 1, 49, 40
3, 33240, Note_on_c, 1, 53, 40
3, 33360, Note_on_c, 1, 53, 0
3, 33360, Note_on_c, 1, 55, 40
3, 33480, Note_on_c, 1, 55, 0
3, 33480, Note_on_c, 1, 57, 40
3, 33600, Note_on_c, 1, 57, 0
3, 33600, Note_on_c, 1, 58, 40
3, 33720, Note_on_c, 1, 58, 0
3, 33720, Note_on_c, 1, 61, 40
3, 33840, Note_on_c, 1, 49, 0
3, 33840, Note_on_c, 1, 51, 48
3, 33960, Note_on_c, 1, 61, 0
3, 33960, Note_on_c, 1, 55, 48
3, 34080, Note_on_c, 1, 55, 0
3, 34080, Note_on_c, 1, 56, 48
3, 34200, Note_on_c, 1, 56, 0
3, 34200, Note_on_c, 1, 58, 48
3, 34320, Note_on_c, 1, 58, 0
3, 34320, Note_on_c, 1, 60, 48
3, 34440, Note_on_c, 1, 60, 0
3, 34440, Note_on_c, 1, 63, 48
3, 34560, Note_on_c, 1, 51, 0
3, 34560, Note_on_c, 1, 53, 56
3, 34680, Note_on_c, 1, 63, 0
3, 34680, Note_on_c, 1, 56, 56
3, 34800, Note_on_c, 1, 56, 0
3, 34800, Note_on_c, 1, 58, 56
3, 34920, Note_on_c, 1, 58, 0
3, 34920, Note_on_c, 1, 60, 56
3, 35040, Note_on_c, 1, 60, 0
3, 35040, Note_on_c, 1, 61, 56
3, 35160, Note_on_c, 1, 61, 0
3, 35160, Note_on_c, 1, 65, 56
3, 35280, Note_on_c, 1, 53, 0
3, 35280, Note_on_c, 1, 55, 64
3, 35400, Note_on_c, 1, 65, 0
3, 35400, Note_on_c, 1, 58, 64
3, 35520, Note_on_c, 1, 58, 0
3, 35520, Note_on_c, 1, 60, 64
3, 35640, Note_on_c, 1, 60, 0
3, 35640, Note_on_c, 1, 62, 64
3, 35760, Note_on_c, 1, 62, 0
3, 35760, Note_on_c, 1, 63, 64
3, 35880, Note_on_c, 1, 63, 0
3, 35880, Note_on_c, 1, 67, 64
3, 36000, Note_on_c, 1, 67, 0
3, 36000, Note_on_c, 1, 55, 0
3, 36000, Note_on_c, 1, 56, 64
3, 36120, Note_on_c, 1, 56, 0
3, 36120, Note_on_c, 1, 68, 64
3, 36120, Note_on_c, 1, 72, 64
3, 36240, Note_on_c, 1, 72, 0
3, 36240, Note_on_c, 1, 68, 0
3, 36240, Note_on_c, 1, 67, 64
3, 36240, Note_on_c, 1, 70, 64
3, 36360, Note_on_c, 1, 70, 0
3, 36360, Note_on_c, 1, 67, 0
3, 36360, Note_on_c, 1, 65, 64
3, 36360, Note_on_c, 1, 68, 64
3, 36480, Note_on_c, 1, 68, 0
3, 36480, Note_on_c, 1, 65, 0
3, 36480, Note_on_c, 1, 63, 64
3, 36480, Note_on_c, 1, 67, 64
3, 36600, Note_on_c, 1, 67, 0
3, 36600, Note_on_c, 1, 63, 0
3, 36600, Note_on_c, 1, 61, 64
3, 36600, Note_on_c, 1, 65, 64
3, 36660, Note_on_c, 1, 65, 0
3, 36660, Note_on_c, 1, 61, 0
3, 36720, Note_on_c, 1, 60, 64
3, 36720, Note_on_c, 1, 63, 64
3, 36840, Note_on_c, 1, 63, 0
3, 36840, Note_on_c, 1, 60, 0
3, 36840, Note_on_c, 1, 58, 64
3, 36840, Note_on_c, 1, 61, 64
3, 36960, Note_on_c, 1, 61, 0
3, 36960, Note_on_c, 1, 58, 0
3, 36960, Note_on_c, 1, 56, 64
3, 36960, Note_on_c, 1, 60, 64
3, 37080, Note_on_c, 1, 60, 0
3, 37080, Note_on_c, 1, 56, 0
3, 37080, Note_on_c, 1, 55, 64
3, 37080, Note_on_c, 1, 58, 64
3, 37200, Note_on_c, 1, 58, 0
3, 37200, Note_on_c, 1, 55, 0
3, 37200, Note_on_c, 1, 53, 64
3, 37200, Note_on_c, 1, 56, 64
3, 37320, Note_on_c, 1, 56, 0
3, 37320, Note_on_c, 1, 53, 0
3, 37320, Note_on_c, 1, 51, 64
3, 37320, Note_on_c, 1, 55, 64
3, 37440, Note_on_c, 1, 55, 0
3, 37440, Note_on_c, 1, 51, 0
3, 37440, Note_on_c, 1, 49, 64
3, 37440, Note_on_c, 1, 53, 64
3, 37560, Note_on_c, 1, 53, 0
3, 37560, Note_on_c, 1, 49, 0
3, 37560, Note_on_c, 1, 48, 64
3, 37560, Note_on_c, 1, 51, 64
3, 37680, Note_on_c, 1, 51, 0
3, 37680, Note_on_c, 1, 48, 0
3, 37680, Note_on_c, 1, 46, 64
3, 37680, Note_on_c, 1, 49, 64
3, 37800, Note_on_c, 1, 49, 0
3, 37800, Note_on_c, 1, 46, 0
3, 37800, Note_on_c, 1, 44, 64
3, 37800, Note_on_c, 1, 48, 64
3, 37920, Note_on_c, 1, 48, 0
3, 37920, Note_on_c, 1, 44, 0
3, 37920, Note_on_c, 1, 43, 64
3, 37920, Note_on_c, 1, 46, 64
3, 38040, Note_on_c, 1, 46, 0
3, 38040, Note_on_c, 1, 43, 0
3, 38040, Note_on_c, 1, 67, 64
3, 38040, Note_on_c, 1, 70, 64
3, 38160, Note_on_c, 1, 70, 0
3, 38160, Note_on_c, 1, 67, 0
3, 38160, Note_on_c, 1, 68, 64
3, 38160, Note_on_c, 1, 72, 64
3, 38280, Note_on_c, 1, 72, 0
3, 38280, Note_on_c, 1, 68, 0
3, 38280, Note_on_c, 1, 67, 63
3, 38280, Note_on_c, 1, 70, 63
3, 38400, Note_on_c, 1, 70, 0
3, 38400, Note_on_c, 1, 67, 0
3, 38400, Note_on_c, 1, 65, 61
3, 38400, Note_on_c, 1, 68, 61
3, 38520, Note_on_c, 1, 68, 0
3, 38520, Note_on_c, 1, 65, 0
3, 38520, Note_on_c, 1, 63, 60
3, 38520, Note_on_c, 1, 67, 60
3, 38640, Note_on_c, 1, 67, 0
3, 38640, Note_on_c, 1, 63, 0
3, 38640, Note_on_c, 1, 61, 59
3, 38640, Note_on_c, 1, 65, 59
3, 38760, Note_on_c, 1, 65, 0
3, 38760, Note_on_c, 1, 61, 0
3, 38760, Note_on_c, 1, 60, 57
3, 38760, Note_on_c, 1, 63, 57
3, 38880, Note_on_c, 1, 63, 0
3, 38880, Note_on_c, 1, 60, 0
3, 38880, Note_on_c, 1, 63, 56
3, 39000, Note_on_c, 1, 63, 0
3, 39000, Note_on_c, 1, 51, 53
3, 39120, Note_on_c, 1, 51, 0
3, 39120, Note_on_c, 1, 63, 51
3, 39120, Note_on_c, 1, 67, 51
3, 39240, Note_on_c, 1, 67, 0
3, 39240, Note_on_c, 1, 63, 0
3, 39240, Note_on_c, 1, 65, 48
3, 39240, Note_on_c, 1, 68, 48
3, 39360, Note_on_c, 1, 68, 0
3, 39360, Note_on_c, 1, 65, 0
3, 39360, Note_on_c, 1, 67, 45
3, 39360, Note_on_c, 1, 70, 45
3, 39480, Note_on_c, 1, 70, 0
3, 39480, Note_on_c, 1, 67, 0
3, 39480, Note_on_c, 1, 68, 43
3, 39480, Note_on_c, 1, 72, 43
3, 39600, Note_on_c, 1, 72, 0
3, 39600, Note_on_c, 1, 68, 0
3, 39600, Note_on_c, 1, 70, 72
3, 39600, Note_on_c, 1, 73, 72
3, 39720, Note_on_c, 1, 73, 0
3, 39720, Note_on_c, 1, 70, 0
3, 39720, Note_on_c, 1, 67, 72
3, 39720, Note_on_c, 1, 70, 72
3, 39840, Note_on_c, 1, 70, 0
3, 39840, Note_on_c, 1, 67, 0
3, 39840, Note_on_c, 1, 68, 72
3, 39840, Note_on_c, 1, 72, 72
3, 39960, Note_on_c, 1, 72, 0
3, 39960, Note_on_c, 1, 68, 0
3, 39960, Note_on_c, 1, 72, 72
3, 39960, Note_on_c, 1, 75, 72
3, 40080, Note_on_c, 1, 75, 0
3, 40080, Note_on_c, 1, 72, 0
3, 40080, Note_on_c, 1, 70, 72
3, 40080, Note_on_c, 1, 73, 72
3, 40200, Note_on_c, 1, 73, 0
3, 40200, Note_on_c, 1, 70, 0
3, 40200, Note_on_c, 1, 68, 72
3, 40200, Note_on_c, 1, 72, 72
3, 40320, Note_on_c, 1, 72, 0
3, 40320, Note_on_c, 1, 68, 0
3, 40320, Note_on_c, 1, 67, 48
3, 40320, Note_on_c, 1, 70, 48
3, 40440, Note_on_c, 1, 70, 0
3, 40440, Note_on_c, 1, 67, 0
3, 40440, Note_on_c, 1, 70, 51
3, 40440, Note_on_c, 1, 73, 51
3, 40560, Note_on_c, 1, 73, 0
3, 40560, Note_on_c, 1, 70, 0
3, 40560, Note_on_c, 1, 68, 53
3, 40560, Note_on_c, 1, 72, 53
3, 40680, Note_on_c, 1, 72, 0
3, 40680, Note_on_c, 1, 68, 0
3, 40680, Note_on_c, 1, 72, 56
3, 40680, Note_on_c, 1, 75, 56
3, 40800, Note_on_c, 1, 75, 0
3, 40800, Note_on_c, 1, 72, 0
3, 40800, Note_on_c, 1, 70, 59
3, 40800, Note_on_c, 1, 73, 59
3, 40920, Note_on_c, 1, 73, 0
3, 40920, Note_on_c, 1, 70, 0
3, 40920, Note_on_c, 1, 68, 61
3, 40920, Note_on_c, 1, 72, 61
3, 41040, Note_on_c, 1, 72, 0
3, 41040, Note_on_c, 1, 68, 0
3, 41040, Note_on_c, 1, 67, 64
3, 41040, Note_on_c, 1, 70, 64
3, 41160, Note_on_c, 1, 70, 0
3, 41160, Note_on_c, 1, 67, 0
3, 41160, Note_on_c, 1, 70, 64
3, 41160, Note_on_c, 1, 73, 64
3, 41280, Note_on_c, 1, 73, 0
3, 41280, Note_on_c, 1, 70, 0
3, 41280, Note_on_c, 1, 68, 64
3, 41280, Note_on_c, 1, 72, 64
3, 41400, Note_on_c, 1, 72, 0
3, 41400, Note_on_c, 1, 68, 0
3, 41400, Note_on_c, 1, 67, 64
3, 41400, Note_on_c, 1, 70, 64
3, 41520, Note_on_c, 1, 70, 0
3, 41520, Note_on_c, 1, 67, 0
3, 41520, Note_on_c, 1, 65, 64
3, 41520, Note_on_c, 1, 68, 64
3, 41640, Note_on_c, 1, 68, 0
3, 41640, Note_on_c, 1, 65, 0
3, 41640, Note_on_c, 1, 68, 64
3, 41640, Note_on_c, 1, 71, 64
3, 41760, Note_on_c, 1, 71, 0
3, 41760, Note_on_c, 1, 68, 0
3, 41760, Note_on_c, 1, 67, 64
3, 41760, Note_on_c, 1, 70, 64
3, 41880, Note_on_c, 1, 70, 0
3, 41880, Note_on_c, 1, 67, 0
3, 41880, Note_on_c, 1, 65, 61
3, 41880, Note_on_c, 1, 68, 61
3, 42000, Note_on_c, 1, 68, 0
3, 42000, Note_on_c, 1, 65, 0
3, 42000, Note_on_c, 1, 63, 59
3, 42000, Note_on_c, 1, 67, 59
3, 42120, Note_on_c, 1, 67, 0
3, 42120, Note_on_c, 1, 63, 0
3, 42120, Note_on_c, 1, 61, 56
3, 42120, Note_on_c, 1, 65, 56
3, 42240, Note_on_c, 1, 65, 0
3, 42240, Note_on_c, 1, 61, 0
3, 42240, Note_on_c, 1, 60, 53
3, 42240, Note_on_c, 1, 63, 53
3, 42360, Note_on_c, 1, 63, 0
3, 42360, Note_on_c, 1, 60, 0
3, 42360, Note_on_c, 1, 63, 51
3, 42360, Note_on_c, 1, 66, 51
3, 42480, Note_on_c, 1, 66, 0
3, 42480, Note_on_c, 1, 63, 0
3, 42480, Note_on_c, 1, 61, 48
3, 42480, Note_on_c, 1, 65, 48
3, 42600, Note_on_c, 1, 65, 0
3, 42600, Note_on_c, 1, 61, 0
3, 42600, Note_on_c, 1, 60, 51
3, 42600, Note_on_c, 1, 63, 51
3, 42720, Note_on_c, 1, 63, 0
3, 42720, Note_on_c, 1, 60, 0
3, 42720, Note_on_c, 1, 58, 53
3, 42720, Note_on_c, 1, 61, 53
3, 42840, Note_on_c, 1, 61, 0
3, 42840, Note_on_c, 1, 58, 0
3, 42840, Note_on_c, 1, 56, 56
3, 42840, Note_on_c, 1, 59, 56
3, 42960, Note_on_c, 1, 59, 0
3, 42960, Note_on_c, 1, 56, 0
3, 42960, Note_on_c, 1, 55, 59
3, 42960, Note_on_c, 1, 58, 59
3, 43080, Note_on_c, 1, 58, 0
3, 43080, Note_on_c, 1, 55, 0
3, 43080, Note_on_c, 1, 68, 61
3, 43080, Note_on_c, 1, 71, 61
3, 43200, Note_on_c, 1, 71, 0
3, 43200, Note_on_c, 1, 68, 0
3, 43200, Note_on_c, 1, 67, 64
3, 43200, Note_on_c, 1, 70, 64
3, 43320, Note_on_c, 1, 70, 0
3, 43320, Note_on_c, 1, 67, 0
3, 43320, Note_on_c, 1, 56, 48
3, 43320, Note_on_c, 1, 59, 48
3, 43440, Note_on_c, 1, 59, 0
3, 43440, Note_on_c, 1, 56, 0
3, 43440, Note_on_c, 1, 55, 48
3, 43440, Note_on_c, 1, 58, 48
3, 43560, Note_on_c, 1, 58, 0
3, 43560, Note_on_c, 1, 55, 0
3, 43560, Note_on_c, 1, 68, 48
3, 43560, Note_on_c, 1, 71, 48
3, 43680, Note_on_c, 1, 71, 0
3, 43680, Note_on_c, 1, 68, 0
3, 43680, Note_on_c, 1, 67, 48
3, 43680, Note_on_c, 1, 70, 48
3, 43800, Note_on_c, 1, 70, 0
3, 43800, Note_on_c, 1, 67, 0
3, 43800, Note_on_c, 1, 65, 64
3, 43920, Note_on_c, 1, 65, 0
3, 43920, Note_on_c, 1, 63, 64
3, 44040, Note_on_c, 1, 63, 0
3, 44040, Note_on_c, 1, 61, 64
3, 44160, Note_on_c, 1, 61, 0
3, 44160, Note_on_c, 1, 60, 64
3, 44280, Note_on_c, 1, 60, 0
3, 44280, Note_on_c, 1, 58, 64
3, 44400, Note_on_c, 1, 58, 0
3, 44400, Note_on_c, 1, 56, 64
3, 44520, Note_on_c, 1, 56, 0
3, 44520, Note_on_c, 1, 48, 64
3, 44640, Note_on_c, 1, 48, 0
3, 44640, Note_on_c, 1, 49, 64
3, 44808, Note_on_c, 1, 49, 0
3, 44880, Note_on_c, 1, 51, 64
3, 45048, Note_on_c, 1, 51, 0
3, 45120, Note_on_c, 1, 39, 64
3, 45360, Note_on_c, 1, 39, 0
3, 45360, Note_on_c, 1, 44, 48
3, 45480, Note_on_c, 1, 44, 0
3, 45480, Note_on_c, 1, 65, 72
3, 45600, Note_on_c, 1, 65, 0
3, 45600, Note_on_c, 1, 63, 72
3, 45720, Note_on_c, 1, 63, 0
3, 45720, Note_on_c, 1, 61, 72
3, 45840, Note_on_c, 1, 61, 0
3, 45840, Note_on_c, 1, 60, 72
3, 45960, Note_on_c, 1, 60, 0
3, 45960, Note_on_c, 1, 65, 48
3, 46080, Note_on_c, 1, 65, 0
3, 46080, Note_on_c, 1, 63, 48
3, 46200, Note_on_c, 1, 63, 0
3, 46200, Note_on_c, 1, 73, 48
3, 46320, Note_on_c, 1, 73, 0
3, 46320, Note_on_c, 1, 72, 48
3, 46440, Note_on_c, 1, 72, 0
3, 46440, Note_on_c, 1, 70, 48
3, 46560, Note_on_c, 1, 70, 0
3, 46560, Note_on_c, 1, 68, 64
3, 46680, Note_on_c, 1, 68, 0
3, 46680, Note_on_c, 1, 60, 64
3, 46800, Note_on_c, 1, 60, 0
3, 46800, Note_on_c, 1, 61, 64
3, 47040, Note_on_c, 1, 61, 0
3, 47040, Note_on_c, 1, 63, 64
3, 47280, Note_on_c, 1, 63, 0
3, 47280, Note_on_c, 1, 51, 64
3, 47520, Note_on_c, 1, 51, 0
3, 47520, Note_on_c, 1, 56, 64
3, 47760, Note_on_c, 1, 56, 0
3, 47760, Note_on_c, 1, 44, 48
3, 48000, Note_on_c, 1, 44, 0
3, 48000, End_track
4, 0, Start_track
4, 0, MIDI_port, 0
4, 0, Title_t, "MIDI by Marty Weimer 4/27/97"
4, 0, End_track
5, 0, Start_track
5, 0, MIDI_port, 0
5, 0, Title_t, "weimermt@libby.org  Eureka, MT  USA"
5, 0, End_track
0, 0, End_of_file
