0, 0, Header, 1, 5, 240
1, 0, Start_track
1, 0, Time_signature, 6, 3, 12, 8
1, 0, Key_signature, 0, "major"
1, 0, Tempo, 480000
1, 4440, Tempo, 487805
1, 4560, Tempo, 500000
1, 4680, Tempo, 508475
1, 4800, Tempo, 521739
1, 4920, Tempo, 530973
1, 5040, Tempo, 666667
1, 5160, Tempo, 714286
1, 5280, Tempo, 779221
1, 5400, Tempo, 857143
1, 5520, Tempo, 937500
1, 5640, Tempo, 1052632
1, 5760, Tempo, 480000
1, 5760, End_track
2, 0, Start_track
2, 0, MIDI_port, 0
2, 0, Title_t, "Piano Sonata No.34 in e"
2, 0, Program_c, 0, 0
2, 0, Control_c, 0, 7, 127
2, 0, Control_c, 0, 10, 72
2, 480, Note_on_c, 0, 59, 64
2, 480, Note_on_c, 0, 67, 64
2, 600, Note_on_c, 0, 67, 0
2, 600, Note_on_c, 0, 59, 0
2, 600, Note_on_c, 0, 57, 64
2, 600, Note_on_c, 0, 63, 64
2, 720, Note_on_c, 0, 63, 0
2, 720, Note_on_c, 0, 57, 0
2, 720, Note_on_c, 0, 55, 64
2, 720, Note_on_c, 0, 64, 64
2, 840, Note_on_c, 0, 64, 0
2, 840, Note_on_c, 0, 55, 0
2, 1200, Note_on_c, 0, 67, 64
2, 1200, Note_on_c, 0, 71, 64
2, 1320, Note_on_c, 0, 71, 0
2, 1320, Note_on_c, 0, 67, 0
2, 1320, Note_on_c, 0, 66, 64
2, 1320, Note_on_c, 0, 69, 64
2, 1440, Note_on_c, 0, 69, 0
2, 1440, Note_on_c, 0, 66, 0
2, 1440, Note_on_c, 0, 64, 64
2, 1440, Note_on_c, 0, 67, 64
2, 1560, Note_on_c, 0, 67, 0
2, 1560, Note_on_c, 0, 64, 0
2, 1920, Note_on_c, 0, 71, 64
2, 1920, Note_on_c, 0, 79, 64
2, 2040, Note_on_c, 0, 79, 0
2, 2040, Note_on_c, 0, 71, 0
2, 2040, Note_on_c, 0, 69, 64
2, 2040, Note_on_c, 0, 78, 64
2, 2160, Note_on_c, 0, 78, 0
2, 2160, Note_on_c, 0, 69, 0
2, 2160, Note_on_c, 0, 67, 64
2, 2160, Note_on_c, 0, 76, 64
2, 2640, Note_on_c, 0, 76, 0
2, 2640, Note_on_c, 0, 67, 0
2, 2640, Note_on_c, 0, 69, 64
2, 2640, Note_on_c, 0, 72, 64
2, 2760, Note_on_c, 0, 72, 0
2, 2760, Note_on_c, 0, 69, 0
2, 2760, Note_on_c, 0, 66, 64
2, 2760, Note_on_c, 0, 69, 64
2, 2880, Note_on_c, 0, 69, 0
2, 2880, Note_on_c, 0, 66, 0
2, 2880, Note_on_c, 0, 63, 64
2, 2880, Note_on_c, 0, 66, 64
2, 3360, Note_on_c, 0, 66, 0
2, 3360, Note_on_c, 0, 63, 0
2, 3360, Note_on_c, 0, 71, 64
2, 3480, Note_on_c, 0, 71, 0
2, 3480, Note_on_c, 0, 69, 64
2, 3600, Note_on_c, 0, 69, 0
2, 3600, Note_on_c, 0, 66, 64
2, 3600, Note_on_c, 0, 69, 64
2, 3840, Note_on_c, 0, 69, 0
2, 3840, Note_on_c, 0, 66, 0
2, 3840, Note_on_c, 0, 64, 64
2, 3840, Note_on_c, 0, 67, 64
2, 3960, Note_on_c, 0, 67, 0
2, 3960, Note_on_c, 0, 64, 0
2, 3960, Note_on_c, 0, 66, 64
2, 4008, Note_on_c, 0, 66, 0
2, 4080, Note_on_c, 0, 70, 40
2, 4200, Note_on_c, 0, 70, 0
2, 4200, Note_on_c, 0, 71, 40
2, 4320, Note_on_c, 0, 71, 0
2, 4320, Note_on_c, 0, 66, 40
2, 4320, Note_on_c, 0, 69, 40
2, 4558, Note_on_c, 0, 69, 0
2, 4558, Note_on_c, 0, 66, 0
2, 4560, Note_on_c, 0, 64, 40
2, 4560, Note_on_c, 0, 67, 40
2, 4678, Note_on_c, 0, 67, 0
2, 4678, Note_on_c, 0, 64, 0
2, 4680, Note_on_c, 0, 66, 40
2, 4728, Note_on_c, 0, 66, 0
2, 4800, Note_on_c, 0, 70, 64
2, 4918, Note_on_c, 0, 70, 0
2, 4920, Note_on_c, 0, 71, 72
2, 5038, Note_on_c, 0, 71, 0
2, 5040, Note_on_c, 0, 66, 80
2, 5040, Note_on_c, 0, 69, 80
2, 5278, Note_on_c, 0, 69, 0
2, 5278, Note_on_c, 0, 66, 0
2, 5280, Note_on_c, 0, 64, 64
2, 5280, Note_on_c, 0, 67, 64
2, 5312, Note_on_c, 0, 67, 0
2, 5312, Note_on_c, 0, 64, 0
2, 5320, Note_on_c, 0, 66, 64
2, 5320, Note_on_c, 0, 69, 64
2, 5352, Note_on_c, 0, 69, 0
2, 5352, Note_on_c, 0, 66, 0
2, 5360, Note_on_c, 0, 64, 64
2, 5360, Note_on_c, 0, 67, 64
2, 5392, Note_on_c, 0, 67, 0
2, 5392, Note_on_c, 0, 64, 0
2, 5400, Note_on_c, 0, 63, 48
2, 5400, Note_on_c, 0, 66, 48
2, 5688, Note_on_c, 0, 66, 0
2, 5688, Note_on_c, 0, 63, 0
2, 6240, Note_on_c, 0, 59, 64
2, 6240, Note_on_c, 0, 67, 64
2, 6360, Note_on_c, 0, 67, 0
2, 6360, Note_on_c, 0, 59, 0
2, 6360, Note_on_c, 0, 57, 64
2, 6360, Note_on_c, 0, 63, 64
2, 6480, Note_on_c, 0, 63, 0
2, 6480, Note_on_c, 0, 57, 0
2, 6480, Note_on_c, 0, 55, 64
2, 6480, Note_on_c, 0, 64, 64
2, 6600, Note_on_c, 0, 64, 0
2, 6600, Note_on_c, 0, 55, 0
2, 6960, Note_on_c, 0, 67, 64
2, 6960, Note_on_c, 0, 71, 64
2, 7080, Note_on_c, 0, 71, 0
2, 7080, Note_on_c, 0, 67, 0
2, 7080, Note_on_c, 0, 66, 64
2, 7080, Note_on_c, 0, 69, 64
2, 7200, Note_on_c, 0, 69, 0
2, 7200, Note_on_c, 0, 66, 0
2, 7200, Note_on_c, 0, 64, 64
2, 7200, Note_on_c, 0, 67, 64
2, 7320, Note_on_c, 0, 67, 0
2, 7320, Note_on_c, 0, 64, 0
2, 7680, Note_on_c, 0, 68, 64
2, 7680, Note_on_c, 0, 76, 64
2, 7800, Note_on_c, 0, 76, 0
2, 7800, Note_on_c, 0, 68, 0
2, 7800, Note_on_c, 0, 71, 64
2, 7800, Note_on_c, 0, 74, 64
2, 7920, Note_on_c, 0, 74, 0
2, 7920, Note_on_c, 0, 71, 0
2, 7920, Note_on_c, 0, 69, 64
2, 7920, Note_on_c, 0, 72, 64
2, 8040, Note_on_c, 0, 72, 0
2, 8040, Note_on_c, 0, 69, 0
2, 8400, Note_on_c, 0, 69, 69
2, 8400, Note_on_c, 0, 72, 69
2, 8520, Note_on_c, 0, 72, 0
2, 8520, Note_on_c, 0, 69, 0
2, 8520, Note_on_c, 0, 67, 71
2, 8520, Note_on_c, 0, 76, 71
2, 8640, Note_on_c, 0, 76, 0
2, 8640, Note_on_c, 0, 67, 0
2, 8640, Note_on_c, 0, 66, 72
2, 8640, Note_on_c, 0, 74, 72
2, 8758, Note_on_c, 0, 74, 0
2, 8758, Note_on_c, 0, 66, 0
2, 9120, Note_on_c, 0, 66, 77
2, 9120, Note_on_c, 0, 69, 77
2, 9238, Note_on_c, 0, 69, 0
2, 9238, Note_on_c, 0, 66, 0
2, 9240, Note_on_c, 0, 69, 79
2, 9240, Note_on_c, 0, 72, 79
2, 9358, Note_on_c, 0, 72, 0
2, 9358, Note_on_c, 0, 69, 0
2, 9360, Note_on_c, 0, 67, 80
2, 9360, Note_on_c, 0, 71, 80
2, 9478, Note_on_c, 0, 71, 0
2, 9478, Note_on_c, 0, 67, 0
2, 9780, Note_on_c, 0, 62, 80
2, 9838, Note_on_c, 0, 62, 0
2, 9840, Note_on_c, 0, 74, 80
2, 9898, Note_on_c, 0, 74, 0
2, 9900, Note_on_c, 0, 71, 80
2, 9958, Note_on_c, 0, 71, 0
2, 9960, Note_on_c, 0, 69, 80
2, 10018, Note_on_c, 0, 69, 0
2, 10020, Note_on_c, 0, 67, 80
2, 10078, Note_on_c, 0, 67, 0
2, 10080, Note_on_c, 0, 66, 80
2, 10198, Note_on_c, 0, 66, 0
2, 10500, Note_on_c, 0, 62, 80
2, 10558, Note_on_c, 0, 62, 0
2, 10560, Note_on_c, 0, 74, 80
2, 10618, Note_on_c, 0, 74, 0
2, 10620, Note_on_c, 0, 72, 80
2, 10678, Note_on_c, 0, 72, 0
2, 10680, Note_on_c, 0, 71, 80
2, 10738, Note_on_c, 0, 71, 0
2, 10740, Note_on_c, 0, 69, 80
2, 10798, Note_on_c, 0, 69, 0
2, 10800, Note_on_c, 0, 71, 48
2, 10918, Note_on_c, 0, 71, 0
2, 11220, Note_on_c, 0, 74, 48
2, 11278, Note_on_c, 0, 74, 0
2, 11280, Note_on_c, 0, 86, 48
2, 11338, Note_on_c, 0, 86, 0
2, 11340, Note_on_c, 0, 83, 48
2, 11398, Note_on_c, 0, 83, 0
2, 11400, Note_on_c, 0, 81, 48
2, 11458, Note_on_c, 0, 81, 0
2, 11460, Note_on_c, 0, 79, 48
2, 11518, Note_on_c, 0, 79, 0
2, 11520, Note_on_c, 0, 79, 48
2, 11758, Note_on_c, 0, 79, 0
2, 11760, Note_on_c, 0, 78, 48
2, 11832, Note_on_c, 0, 78, 0
2, 11940, Note_on_c, 0, 74, 48
2, 11998, Note_on_c, 0, 74, 0
2, 12000, Note_on_c, 0, 86, 48
2, 12058, Note_on_c, 0, 86, 0
2, 12060, Note_on_c, 0, 84, 48
2, 12118, Note_on_c, 0, 84, 0
2, 12120, Note_on_c, 0, 83, 48
2, 12178, Note_on_c, 0, 83, 0
2, 12180, Note_on_c, 0, 81, 48
2, 12238, Note_on_c, 0, 81, 0
2, 12240, Note_on_c, 0, 81, 48
2, 12478, Note_on_c, 0, 81, 0
2, 12480, Note_on_c, 0, 83, 56
2, 12552, Note_on_c, 0, 83, 0
2, 12660, Note_on_c, 0, 74, 62
2, 12718, Note_on_c, 0, 74, 0
2, 12720, Note_on_c, 0, 86, 64
2, 12778, Note_on_c, 0, 86, 0
2, 12780, Note_on_c, 0, 83, 66
2, 12838, Note_on_c, 0, 83, 0
2, 12840, Note_on_c, 0, 81, 68
2, 12898, Note_on_c, 0, 81, 0
2, 12900, Note_on_c, 0, 79, 70
2, 12958, Note_on_c, 0, 79, 0
2, 12960, Note_on_c, 0, 88, 72
2, 13020, Note_on_c, 0, 88, 0
2, 13020, Note_on_c, 0, 76, 72
2, 13080, Note_on_c, 0, 76, 0
2, 13080, Note_on_c, 0, 84, 72
2, 13140, Note_on_c, 0, 84, 0
2, 13140, Note_on_c, 0, 88, 72
2, 13200, Note_on_c, 0, 88, 0
2, 13200, Note_on_c, 0, 83, 72
2, 13260, Note_on_c, 0, 83, 0
2, 13260, Note_on_c, 0, 88, 72
2, 13320, Note_on_c, 0, 88, 0
2, 13320, Note_on_c, 0, 81, 72
2, 13380, Note_on_c, 0, 81, 0
2, 13380, Note_on_c, 0, 83, 72
2, 13440, Note_on_c, 0, 83, 0
2, 13440, Note_on_c, 0, 84, 72
2, 13500, Note_on_c, 0, 84, 0
2, 13500, Note_on_c, 0, 86, 72
2, 13560, Note_on_c, 0, 86, 0
2, 13560, Note_on_c, 0, 88, 72
2, 13620, Note_on_c, 0, 88, 0
2, 13620, Note_on_c, 0, 84, 72
2, 13680, Note_on_c, 0, 84, 0
2, 13680, Note_on_c, 0, 86, 72
2, 13740, Note_on_c, 0, 86, 0
2, 13740, Note_on_c, 0, 74, 72
2, 13800, Note_on_c, 0, 74, 0
2, 13800, Note_on_c, 0, 83, 72
2, 13860, Note_on_c, 0, 83, 0
2, 13860, Note_on_c, 0, 86, 72
2, 13920, Note_on_c, 0, 86, 0
2, 13920, Note_on_c, 0, 81, 72
2, 13980, Note_on_c, 0, 81, 0
2, 13980, Note_on_c, 0, 86, 72
2, 14040, Note_on_c, 0, 86, 0
2, 14040, Note_on_c, 0, 79, 72
2, 14100, Note_on_c, 0, 79, 0
2, 14100, Note_on_c, 0, 81, 72
2, 14160, Note_on_c, 0, 81, 0
2, 14160, Note_on_c, 0, 83, 72
2, 14220, Note_on_c, 0, 83, 0
2, 14220, Note_on_c, 0, 84, 72
2, 14280, Note_on_c, 0, 84, 0
2, 14280, Note_on_c, 0, 86, 72
2, 14340, Note_on_c, 0, 86, 0
2, 14340, Note_on_c, 0, 83, 72
2, 14400, Note_on_c, 0, 83, 0
2, 14400, Note_on_c, 0, 84, 72
2, 14460, Note_on_c, 0, 84, 0
2, 14460, Note_on_c, 0, 72, 72
2, 14520, Note_on_c, 0, 72, 0
2, 14520, Note_on_c, 0, 81, 72
2, 14580, Note_on_c, 0, 81, 0
2, 14580, Note_on_c, 0, 84, 72
2, 14640, Note_on_c, 0, 84, 0
2, 14640, Note_on_c, 0, 79, 72
2, 14700, Note_on_c, 0, 79, 0
2, 14700, Note_on_c, 0, 84, 72
2, 14760, Note_on_c, 0, 84, 0
2, 14760, Note_on_c, 0, 78, 72
2, 14820, Note_on_c, 0, 78, 0
2, 14820, Note_on_c, 0, 84, 72
2, 14880, Note_on_c, 0, 84, 0
2, 14880, Note_on_c, 0, 79, 72
2, 14940, Note_on_c, 0, 79, 0
2, 14940, Note_on_c, 0, 84, 72
2, 15000, Note_on_c, 0, 84, 0
2, 15000, Note_on_c, 0, 81, 72
2, 15060, Note_on_c, 0, 81, 0
2, 15060, Note_on_c, 0, 84, 72
2, 15120, Note_on_c, 0, 84, 0
2, 15120, Note_on_c, 0, 83, 72
2, 15216, Note_on_c, 0, 83, 0
2, 15240, Note_on_c, 0, 84, 72
2, 15272, Note_on_c, 0, 84, 0
2, 15280, Note_on_c, 0, 86, 72
2, 15312, Note_on_c, 0, 86, 0
2, 15320, Note_on_c, 0, 84, 72
2, 15352, Note_on_c, 0, 84, 0
2, 15360, Note_on_c, 0, 86, 72
2, 15456, Note_on_c, 0, 86, 0
2, 15480, Note_on_c, 0, 81, 72
2, 15528, Note_on_c, 0, 81, 0
2, 15600, Note_on_c, 0, 81, 72
2, 15648, Note_on_c, 0, 81, 0
2, 15720, Note_on_c, 0, 81, 72
2, 15768, Note_on_c, 0, 81, 0
2, 15840, Note_on_c, 0, 83, 48
2, 15936, Note_on_c, 0, 83, 0
2, 15960, Note_on_c, 0, 84, 48
2, 15992, Note_on_c, 0, 84, 0
2, 16000, Note_on_c, 0, 86, 48
2, 16032, Note_on_c, 0, 86, 0
2, 16040, Note_on_c, 0, 84, 48
2, 16072, Note_on_c, 0, 84, 0
2, 16080, Note_on_c, 0, 86, 48
2, 16176, Note_on_c, 0, 86, 0
2, 16200, Note_on_c, 0, 81, 48
2, 16248, Note_on_c, 0, 81, 0
2, 16320, Note_on_c, 0, 81, 48
2, 16368, Note_on_c, 0, 81, 0
2, 16440, Note_on_c, 0, 81, 48
2, 16488, Note_on_c, 0, 81, 0
2, 16560, Note_on_c, 0, 83, 56
2, 16656, Note_on_c, 0, 83, 0
2, 16680, Note_on_c, 0, 84, 60
2, 16712, Note_on_c, 0, 84, 0
2, 16720, Note_on_c, 0, 86, 61
2, 16752, Note_on_c, 0, 86, 0
2, 16760, Note_on_c, 0, 84, 63
2, 16792, Note_on_c, 0, 84, 0
2, 16800, Note_on_c, 0, 86, 64
2, 16896, Note_on_c, 0, 86, 0
2, 16920, Note_on_c, 0, 81, 68
2, 16968, Note_on_c, 0, 81, 0
2, 17040, Note_on_c, 0, 81, 72
2, 17088, Note_on_c, 0, 81, 0
2, 17160, Note_on_c, 0, 81, 76
2, 17280, Note_on_c, 0, 81, 0
2, 17280, Note_on_c, 0, 79, 80
2, 17328, Note_on_c, 0, 79, 0
2, 17400, Note_on_c, 0, 79, 80
2, 17448, Note_on_c, 0, 79, 0
2, 17520, Note_on_c, 0, 79, 80
2, 17640, Note_on_c, 0, 79, 0
2, 17640, Note_on_c, 0, 78, 80
2, 17688, Note_on_c, 0, 78, 0
2, 17760, Note_on_c, 0, 78, 80
2, 17808, Note_on_c, 0, 78, 0
2, 17880, Note_on_c, 0, 78, 80
2, 18000, Note_on_c, 0, 78, 0
2, 18000, Note_on_c, 0, 73, 80
2, 18048, Note_on_c, 0, 73, 0
2, 18120, Note_on_c, 0, 73, 80
2, 18168, Note_on_c, 0, 73, 0
2, 18240, Note_on_c, 0, 73, 80
2, 18360, Note_on_c, 0, 73, 0
2, 18360, Note_on_c, 0, 74, 80
2, 18418, Note_on_c, 0, 74, 0
2, 18420, Note_on_c, 0, 69, 80
2, 18478, Note_on_c, 0, 69, 0
2, 18480, Note_on_c, 0, 71, 80
2, 18538, Note_on_c, 0, 71, 0
2, 18540, Note_on_c, 0, 73, 80
2, 18598, Note_on_c, 0, 73, 0
2, 18600, Note_on_c, 0, 74, 80
2, 18658, Note_on_c, 0, 74, 0
2, 18660, Note_on_c, 0, 76, 80
2, 18718, Note_on_c, 0, 76, 0
2, 18720, Note_on_c, 0, 78, 80
2, 18778, Note_on_c, 0, 78, 0
2, 18780, Note_on_c, 0, 74, 80
2, 18838, Note_on_c, 0, 74, 0
2, 18840, Note_on_c, 0, 76, 80
2, 18898, Note_on_c, 0, 76, 0
2, 18900, Note_on_c, 0, 78, 80
2, 18958, Note_on_c, 0, 78, 0
2, 18960, Note_on_c, 0, 79, 80
2, 19018, Note_on_c, 0, 79, 0
2, 19020, Note_on_c, 0, 81, 80
2, 19078, Note_on_c, 0, 81, 0
2, 19080, Note_on_c, 0, 83, 80
2, 19138, Note_on_c, 0, 83, 0
2, 19140, Note_on_c, 0, 81, 80
2, 19198, Note_on_c, 0, 81, 0
2, 19200, Note_on_c, 0, 79, 80
2, 19258, Note_on_c, 0, 79, 0
2, 19260, Note_on_c, 0, 81, 80
2, 19318, Note_on_c, 0, 81, 0
2, 19320, Note_on_c, 0, 83, 80
2, 19378, Note_on_c, 0, 83, 0
2, 19380, Note_on_c, 0, 85, 80
2, 19438, Note_on_c, 0, 85, 0
2, 19440, Note_on_c, 0, 86, 80
2, 19558, Note_on_c, 0, 86, 0
2, 19560, Note_on_c, 0, 81, 83
2, 19608, Note_on_c, 0, 81, 0
2, 19680, Note_on_c, 0, 78, 85
2, 19728, Note_on_c, 0, 78, 0
2, 19800, Note_on_c, 0, 74, 88
2, 19848, Note_on_c, 0, 74, 0
2, 19920, Note_on_c, 0, 69, 91
2, 19968, Note_on_c, 0, 69, 0
2, 20040, Note_on_c, 0, 66, 93
2, 20088, Note_on_c, 0, 66, 0
2, 20160, Note_on_c, 0, 62, 96
2, 20736, Note_on_c, 0, 62, 0
2, 21000, Note_on_c, 0, 71, 48
2, 21000, Note_on_c, 0, 74, 48
2, 21120, Note_on_c, 0, 74, 0
2, 21120, Note_on_c, 0, 71, 0
2, 21120, Note_on_c, 0, 69, 48
2, 21120, Note_on_c, 0, 72, 48
2, 21240, Note_on_c, 0, 72, 0
2, 21240, Note_on_c, 0, 69, 0
2, 21240, Note_on_c, 0, 67, 48
2, 21240, Note_on_c, 0, 71, 48
2, 21288, Note_on_c, 0, 71, 0
2, 21288, Note_on_c, 0, 67, 0
2, 21360, Note_on_c, 0, 74, 48
2, 21360, Note_on_c, 0, 83, 48
2, 21408, Note_on_c, 0, 83, 0
2, 21408, Note_on_c, 0, 74, 0
2, 21480, Note_on_c, 0, 71, 48
2, 21480, Note_on_c, 0, 79, 48
2, 21528, Note_on_c, 0, 79, 0
2, 21528, Note_on_c, 0, 71, 0
2, 21600, Note_on_c, 0, 69, 48
2, 21600, Note_on_c, 0, 78, 48
2, 21720, Note_on_c, 0, 78, 0
2, 21720, Note_on_c, 0, 69, 0
2, 21720, Note_on_c, 0, 81, 48
2, 21720, Note_on_c, 0, 84, 48
2, 21840, Note_on_c, 0, 84, 0
2, 21840, Note_on_c, 0, 81, 0
2, 21840, Note_on_c, 0, 79, 48
2, 21840, Note_on_c, 0, 83, 48
2, 21960, Note_on_c, 0, 83, 0
2, 21960, Note_on_c, 0, 79, 0
2, 21960, Note_on_c, 0, 78, 48
2, 21960, Note_on_c, 0, 81, 48
2, 22008, Note_on_c, 0, 81, 0
2, 22008, Note_on_c, 0, 78, 0
2, 22080, Note_on_c, 0, 84, 48
2, 22080, Note_on_c, 0, 88, 48
2, 22128, Note_on_c, 0, 88, 0
2, 22128, Note_on_c, 0, 84, 0
2, 22200, Note_on_c, 0, 81, 48
2, 22200, Note_on_c, 0, 84, 48
2, 22248, Note_on_c, 0, 84, 0
2, 22248, Note_on_c, 0, 81, 0
2, 22320, Note_on_c, 0, 83, 48
2, 22320, Note_on_c, 0, 79, 48
2, 22440, Note_on_c, 0, 83, 0
2, 22440, Note_on_c, 0, 86, 48
2, 22560, Note_on_c, 0, 79, 0
2, 22560, Note_on_c, 0, 74, 48
2, 22680, Note_on_c, 0, 74, 0
2, 22680, Note_on_c, 0, 76, 48
2, 22800, Note_on_c, 0, 76, 0
2, 22800, Note_on_c, 0, 80, 48
2, 22920, Note_on_c, 0, 80, 0
2, 22920, Note_on_c, 0, 86, 0
2, 22920, Note_on_c, 0, 84, 48
2, 22920, Note_on_c, 0, 81, 48
2, 23040, Note_on_c, 0, 81, 0
2, 23040, Note_on_c, 0, 75, 48
2, 23160, Note_on_c, 0, 75, 0
2, 23160, Note_on_c, 0, 74, 48
2, 23280, Note_on_c, 0, 84, 0
2, 23280, Note_on_c, 0, 83, 48
2, 23400, Note_on_c, 0, 83, 0
2, 23400, Note_on_c, 0, 74, 0
2, 23400, Note_on_c, 0, 76, 48
2, 23400, Note_on_c, 0, 81, 48
2, 23448, Note_on_c, 0, 81, 0
2, 23448, Note_on_c, 0, 76, 0
2, 23520, Note_on_c, 0, 74, 48
2, 23520, Note_on_c, 0, 83, 48
2, 23568, Note_on_c, 0, 83, 0
2, 23568, Note_on_c, 0, 74, 0
2, 23640, Note_on_c, 0, 72, 48
2, 23640, Note_on_c, 0, 84, 48
2, 23688, Note_on_c, 0, 84, 0
2, 23688, Note_on_c, 0, 72, 0
2, 23760, Note_on_c, 0, 79, 48
2, 23760, Note_on_c, 0, 74, 48
2, 24120, Note_on_c, 0, 74, 0
2, 24120, Note_on_c, 0, 79, 0
2, 24120, Note_on_c, 0, 72, 48
2, 24240, Note_on_c, 0, 72, 0
2, 24240, Note_on_c, 0, 81, 48
2, 24360, Note_on_c, 0, 81, 0
2, 24360, Note_on_c, 0, 78, 48
2, 24480, Note_on_c, 0, 78, 0
2, 24480, Note_on_c, 0, 71, 48
2, 24480, Note_on_c, 0, 79, 48
2, 24600, Note_on_c, 0, 79, 0
2, 24600, Note_on_c, 0, 71, 0
2, 25320, Note_on_c, 0, 71, 80
2, 25320, Note_on_c, 0, 74, 80
2, 25440, Note_on_c, 0, 74, 0
2, 25440, Note_on_c, 0, 71, 0
2, 25440, Note_on_c, 0, 69, 80
2, 25440, Note_on_c, 0, 72, 80
2, 25560, Note_on_c, 0, 72, 0
2, 25560, Note_on_c, 0, 69, 0
2, 25560, Note_on_c, 0, 67, 80
2, 25560, Note_on_c, 0, 71, 80
2, 25608, Note_on_c, 0, 71, 0
2, 25608, Note_on_c, 0, 67, 0
2, 25680, Note_on_c, 0, 74, 80
2, 25680, Note_on_c, 0, 83, 80
2, 25728, Note_on_c, 0, 83, 0
2, 25728, Note_on_c, 0, 74, 0
2, 25800, Note_on_c, 0, 71, 80
2, 25800, Note_on_c, 0, 79, 80
2, 25848, Note_on_c, 0, 79, 0
2, 25848, Note_on_c, 0, 71, 0
2, 25920, Note_on_c, 0, 69, 80
2, 25920, Note_on_c, 0, 78, 80
2, 26040, Note_on_c, 0, 78, 0
2, 26040, Note_on_c, 0, 69, 0
2, 26040, Note_on_c, 0, 81, 80
2, 26040, Note_on_c, 0, 84, 80
2, 26160, Note_on_c, 0, 84, 0
2, 26160, Note_on_c, 0, 81, 0
2, 26160, Note_on_c, 0, 79, 80
2, 26160, Note_on_c, 0, 83, 80
2, 26280, Note_on_c, 0, 83, 0
2, 26280, Note_on_c, 0, 79, 0
2, 26280, Note_on_c, 0, 78, 80
2, 26280, Note_on_c, 0, 81, 80
2, 26328, Note_on_c, 0, 81, 0
2, 26328, Note_on_c, 0, 78, 0
2, 26400, Note_on_c, 0, 84, 80
2, 26400, Note_on_c, 0, 88, 80
2, 26448, Note_on_c, 0, 88, 0
2, 26448, Note_on_c, 0, 84, 0
2, 26520, Note_on_c, 0, 81, 80
2, 26520, Note_on_c, 0, 84, 80
2, 26568, Note_on_c, 0, 84, 0
2, 26568, Note_on_c, 0, 81, 0
2, 26640, Note_on_c, 0, 79, 80
2, 26640, Note_on_c, 0, 83, 80
2, 26760, Note_on_c, 0, 83, 0
2, 26760, Note_on_c, 0, 79, 0
2, 26760, Note_on_c, 0, 86, 80
2, 26880, Note_on_c, 0, 86, 0
2, 26880, Note_on_c, 0, 74, 80
2, 27000, Note_on_c, 0, 74, 0
2, 27000, Note_on_c, 0, 76, 80
2, 27120, Note_on_c, 0, 76, 0
2, 27120, Note_on_c, 0, 80, 80
2, 27240, Note_on_c, 0, 80, 0
2, 27240, Note_on_c, 0, 84, 80
2, 27240, Note_on_c, 0, 81, 80
2, 27360, Note_on_c, 0, 81, 0
2, 27360, Note_on_c, 0, 75, 80
2, 27480, Note_on_c, 0, 75, 0
2, 27480, Note_on_c, 0, 84, 0
2, 27480, Note_on_c, 0, 74, 80
2, 27600, Note_on_c, 0, 74, 0
2, 27600, Note_on_c, 0, 83, 80
2, 27720, Note_on_c, 0, 83, 0
2, 27720, Note_on_c, 0, 72, 80
2, 27840, Note_on_c, 0, 81, 80
2, 27960, Note_on_c, 0, 72, 0
2, 27960, Note_on_c, 0, 71, 80
2, 28080, Note_on_c, 0, 81, 0
2, 28080, Note_on_c, 0, 79, 85
2, 28200, Note_on_c, 0, 79, 0
2, 28200, Note_on_c, 0, 71, 0
2, 28200, Note_on_c, 0, 69, 85
2, 28200, Note_on_c, 0, 79, 85
2, 28320, Note_on_c, 0, 79, 0
2, 28320, Note_on_c, 0, 69, 0
2, 28320, Note_on_c, 0, 70, 85
2, 28320, Note_on_c, 0, 79, 85
2, 28440, Note_on_c, 0, 79, 0
2, 28440, Note_on_c, 0, 70, 0
2, 28440, Note_on_c, 0, 71, 85
2, 28440, Note_on_c, 0, 79, 85
2, 28488, Note_on_c, 0, 79, 0
2, 28488, Note_on_c, 0, 71, 0
2, 28560, Note_on_c, 0, 72, 85
2, 28560, Note_on_c, 0, 79, 85
2, 28608, Note_on_c, 0, 79, 0
2, 28608, Note_on_c, 0, 72, 0
2, 28680, Note_on_c, 0, 73, 85
2, 28680, Note_on_c, 0, 79, 85
2, 28728, Note_on_c, 0, 79, 0
2, 28728, Note_on_c, 0, 73, 0
2, 28800, Note_on_c, 0, 79, 85
2, 28800, Note_on_c, 0, 74, 85
2, 29160, Note_on_c, 0, 74, 0
2, 29160, Note_on_c, 0, 79, 0
2, 29160, Note_on_c, 0, 72, 85
2, 29280, Note_on_c, 0, 81, 85
2, 29398, Note_on_c, 0, 81, 0
2, 29400, Note_on_c, 0, 78, 85
2, 29518, Note_on_c, 0, 78, 0
2, 29518, Note_on_c, 0, 72, 0
2, 29520, Note_on_c, 0, 79, 85
2, 29578, Note_on_c, 0, 79, 0
2, 29580, Note_on_c, 0, 74, 85
2, 29638, Note_on_c, 0, 74, 0
2, 29640, Note_on_c, 0, 71, 85
2, 29698, Note_on_c, 0, 71, 0
2, 29700, Note_on_c, 0, 74, 85
2, 29758, Note_on_c, 0, 74, 0
2, 29760, Note_on_c, 0, 72, 85
2, 29818, Note_on_c, 0, 72, 0
2, 29820, Note_on_c, 0, 74, 85
2, 29878, Note_on_c, 0, 74, 0
2, 29880, Note_on_c, 0, 71, 85
2, 29938, Note_on_c, 0, 71, 0
2, 29940, Note_on_c, 0, 74, 85
2, 29998, Note_on_c, 0, 74, 0
2, 30000, Note_on_c, 0, 79, 85
2, 30058, Note_on_c, 0, 79, 0
2, 30060, Note_on_c, 0, 74, 85
2, 30118, Note_on_c, 0, 74, 0
2, 30120, Note_on_c, 0, 81, 85
2, 30178, Note_on_c, 0, 81, 0
2, 30180, Note_on_c, 0, 74, 85
2, 30238, Note_on_c, 0, 74, 0
2, 30240, Note_on_c, 0, 83, 85
2, 30298, Note_on_c, 0, 83, 0
2, 30300, Note_on_c, 0, 74, 85
2, 30358, Note_on_c, 0, 74, 0
2, 30360, Note_on_c, 0, 71, 85
2, 30418, Note_on_c, 0, 71, 0
2, 30420, Note_on_c, 0, 74, 85
2, 30478, Note_on_c, 0, 74, 0
2, 30480, Note_on_c, 0, 72, 85
2, 30538, Note_on_c, 0, 72, 0
2, 30540, Note_on_c, 0, 74, 85
2, 30598, Note_on_c, 0, 74, 0
2, 30600, Note_on_c, 0, 71, 85
2, 30658, Note_on_c, 0, 71, 0
2, 30660, Note_on_c, 0, 74, 85
2, 30718, Note_on_c, 0, 74, 0
2, 30720, Note_on_c, 0, 79, 85
2, 30778, Note_on_c, 0, 79, 0
2, 30780, Note_on_c, 0, 74, 85
2, 30838, Note_on_c, 0, 74, 0
2, 30840, Note_on_c, 0, 81, 85
2, 30898, Note_on_c, 0, 81, 0
2, 30900, Note_on_c, 0, 74, 85
2, 30958, Note_on_c, 0, 74, 0
2, 30960, Note_on_c, 0, 83, 80
2, 31018, Note_on_c, 0, 83, 0
2, 31020, Note_on_c, 0, 74, 77
2, 31078, Note_on_c, 0, 74, 0
2, 31080, Note_on_c, 0, 71, 75
2, 31138, Note_on_c, 0, 71, 0
2, 31140, Note_on_c, 0, 74, 72
2, 31198, Note_on_c, 0, 74, 0
2, 31200, Note_on_c, 0, 72, 69
2, 31258, Note_on_c, 0, 72, 0
2, 31260, Note_on_c, 0, 74, 67
2, 31318, Note_on_c, 0, 74, 0
2, 31320, Note_on_c, 0, 71, 64
2, 31378, Note_on_c, 0, 71, 0
2, 31380, Note_on_c, 0, 74, 61
2, 31438, Note_on_c, 0, 74, 0
2, 31440, Note_on_c, 0, 79, 59
2, 31498, Note_on_c, 0, 79, 0
2, 31500, Note_on_c, 0, 74, 56
2, 31558, Note_on_c, 0, 74, 0
2, 31560, Note_on_c, 0, 81, 53
2, 31618, Note_on_c, 0, 81, 0
2, 31620, Note_on_c, 0, 74, 51
2, 31678, Note_on_c, 0, 74, 0
2, 31680, Note_on_c, 0, 83, 48
2, 31788, Note_on_c, 0, 83, 0
2, 31800, Note_on_c, 0, 79, 48
2, 31800, Note_on_c, 0, 83, 48
2, 31848, Note_on_c, 0, 83, 0
2, 31848, Note_on_c, 0, 79, 0
2, 31920, Note_on_c, 0, 83, 48
2, 31920, Note_on_c, 0, 86, 48
2, 31968, Note_on_c, 0, 86, 0
2, 31968, Note_on_c, 0, 83, 0
2, 32040, Note_on_c, 0, 79, 48
2, 32040, Note_on_c, 0, 83, 48
2, 32112, Note_on_c, 0, 83, 0
2, 32112, Note_on_c, 0, 79, 0
2, 32880, Note_on_c, 0, 56, 64
2, 32880, Note_on_c, 0, 64, 64
2, 33000, Note_on_c, 0, 64, 0
2, 33000, Note_on_c, 0, 56, 0
2, 33000, Note_on_c, 0, 59, 64
2, 33000, Note_on_c, 0, 62, 64
2, 33120, Note_on_c, 0, 62, 0
2, 33120, Note_on_c, 0, 59, 0
2, 33120, Note_on_c, 0, 57, 64
2, 33120, Note_on_c, 0, 60, 64
2, 33240, Note_on_c, 0, 60, 0
2, 33240, Note_on_c, 0, 57, 0
2, 33600, Note_on_c, 0, 64, 64
2, 33600, Note_on_c, 0, 72, 64
2, 33720, Note_on_c, 0, 72, 0
2, 33720, Note_on_c, 0, 64, 0
2, 33720, Note_on_c, 0, 60, 64
2, 33720, Note_on_c, 0, 69, 64
2, 33840, Note_on_c, 0, 69, 0
2, 33840, Note_on_c, 0, 60, 0
2, 33840, Note_on_c, 0, 59, 64
2, 33840, Note_on_c, 0, 68, 64
2, 33960, Note_on_c, 0, 68, 0
2, 33960, Note_on_c, 0, 59, 0
2, 34320, Note_on_c, 0, 68, 64
2, 34320, Note_on_c, 0, 76, 64
2, 34440, Note_on_c, 0, 76, 0
2, 34440, Note_on_c, 0, 68, 0
2, 34440, Note_on_c, 0, 71, 64
2, 34440, Note_on_c, 0, 74, 64
2, 34560, Note_on_c, 0, 74, 0
2, 34560, Note_on_c, 0, 71, 0
2, 34560, Note_on_c, 0, 69, 64
2, 34560, Note_on_c, 0, 72, 64
2, 34680, Note_on_c, 0, 72, 0
2, 34680, Note_on_c, 0, 69, 0
2, 35040, Note_on_c, 0, 72, 64
2, 35040, Note_on_c, 0, 81, 64
2, 35160, Note_on_c, 0, 81, 0
2, 35160, Note_on_c, 0, 72, 0
2, 35160, Note_on_c, 0, 69, 64
2, 35160, Note_on_c, 0, 75, 64
2, 35280, Note_on_c, 0, 75, 0
2, 35280, Note_on_c, 0, 69, 0
2, 35280, Note_on_c, 0, 68, 64
2, 35280, Note_on_c, 0, 76, 64
2, 35400, Note_on_c, 0, 76, 0
2, 35400, Note_on_c, 0, 68, 0
2, 37140, Note_on_c, 0, 67, 85
2, 37198, Note_on_c, 0, 67, 0
2, 37200, Note_on_c, 0, 79, 85
2, 37258, Note_on_c, 0, 79, 0
2, 37260, Note_on_c, 0, 76, 85
2, 37318, Note_on_c, 0, 76, 0
2, 37320, Note_on_c, 0, 74, 85
2, 37378, Note_on_c, 0, 74, 0
2, 37380, Note_on_c, 0, 72, 85
2, 37438, Note_on_c, 0, 72, 0
2, 37440, Note_on_c, 0, 71, 85
2, 37558, Note_on_c, 0, 71, 0
2, 37860, Note_on_c, 0, 67, 85
2, 37918, Note_on_c, 0, 67, 0
2, 37920, Note_on_c, 0, 79, 85
2, 37978, Note_on_c, 0, 79, 0
2, 37980, Note_on_c, 0, 77, 85
2, 38038, Note_on_c, 0, 77, 0
2, 38040, Note_on_c, 0, 76, 85
2, 38098, Note_on_c, 0, 76, 0
2, 38100, Note_on_c, 0, 74, 85
2, 38158, Note_on_c, 0, 74, 0
2, 38160, Note_on_c, 0, 76, 48
2, 38398, Note_on_c, 0, 76, 0
2, 38580, Note_on_c, 0, 67, 48
2, 38638, Note_on_c, 0, 67, 0
2, 38640, Note_on_c, 0, 79, 48
2, 38698, Note_on_c, 0, 79, 0
2, 38700, Note_on_c, 0, 76, 48
2, 38758, Note_on_c, 0, 76, 0
2, 38760, Note_on_c, 0, 74, 48
2, 38818, Note_on_c, 0, 74, 0
2, 38820, Note_on_c, 0, 72, 48
2, 38878, Note_on_c, 0, 72, 0
2, 38880, Note_on_c, 0, 72, 48
2, 39118, Note_on_c, 0, 72, 0
2, 39120, Note_on_c, 0, 71, 48
2, 39238, Note_on_c, 0, 71, 0
2, 39300, Note_on_c, 0, 67, 48
2, 39358, Note_on_c, 0, 67, 0
2, 39360, Note_on_c, 0, 79, 48
2, 39418, Note_on_c, 0, 79, 0
2, 39420, Note_on_c, 0, 77, 48
2, 39478, Note_on_c, 0, 77, 0
2, 39480, Note_on_c, 0, 76, 48
2, 39538, Note_on_c, 0, 76, 0
2, 39540, Note_on_c, 0, 74, 48
2, 39598, Note_on_c, 0, 74, 0
2, 39600, Note_on_c, 0, 74, 48
2, 39838, Note_on_c, 0, 74, 0
2, 39840, Note_on_c, 0, 73, 48
2, 39958, Note_on_c, 0, 73, 0
2, 40020, Note_on_c, 0, 82, 48
2, 40078, Note_on_c, 0, 82, 0
2, 40080, Note_on_c, 0, 81, 48
2, 40138, Note_on_c, 0, 81, 0
2, 40140, Note_on_c, 0, 79, 48
2, 40198, Note_on_c, 0, 79, 0
2, 40200, Note_on_c, 0, 77, 48
2, 40258, Note_on_c, 0, 77, 0
2, 40260, Note_on_c, 0, 76, 48
2, 40318, Note_on_c, 0, 76, 0
2, 40320, Note_on_c, 0, 76, 48
2, 40558, Note_on_c, 0, 76, 0
2, 40560, Note_on_c, 0, 74, 48
2, 40678, Note_on_c, 0, 74, 0
2, 40740, Note_on_c, 0, 69, 48
2, 40798, Note_on_c, 0, 69, 0
2, 40800, Note_on_c, 0, 81, 48
2, 40858, Note_on_c, 0, 81, 0
2, 40860, Note_on_c, 0, 77, 48
2, 40918, Note_on_c, 0, 77, 0
2, 40920, Note_on_c, 0, 76, 48
2, 40978, Note_on_c, 0, 76, 0
2, 40980, Note_on_c, 0, 74, 48
2, 41038, Note_on_c, 0, 74, 0
2, 41040, Note_on_c, 0, 74, 48
2, 41278, Note_on_c, 0, 74, 0
2, 41280, Note_on_c, 0, 73, 48
2, 41398, Note_on_c, 0, 73, 0
2, 41460, Note_on_c, 0, 82, 48
2, 41518, Note_on_c, 0, 82, 0
2, 41520, Note_on_c, 0, 81, 48
2, 41578, Note_on_c, 0, 81, 0
2, 41580, Note_on_c, 0, 79, 48
2, 41638, Note_on_c, 0, 79, 0
2, 41640, Note_on_c, 0, 77, 48
2, 41698, Note_on_c, 0, 77, 0
2, 41700, Note_on_c, 0, 76, 48
2, 41758, Note_on_c, 0, 76, 0
2, 41760, Note_on_c, 0, 76, 48
2, 41998, Note_on_c, 0, 76, 0
2, 42000, Note_on_c, 0, 75, 48
2, 42118, Note_on_c, 0, 75, 0
2, 42180, Note_on_c, 0, 84, 48
2, 42238, Note_on_c, 0, 84, 0
2, 42240, Note_on_c, 0, 83, 48
2, 42298, Note_on_c, 0, 83, 0
2, 42300, Note_on_c, 0, 81, 48
2, 42358, Note_on_c, 0, 81, 0
2, 42360, Note_on_c, 0, 79, 48
2, 42418, Note_on_c, 0, 79, 0
2, 42420, Note_on_c, 0, 78, 48
2, 42478, Note_on_c, 0, 78, 0
2, 42480, Note_on_c, 0, 78, 48
2, 42718, Note_on_c, 0, 78, 0
2, 42720, Note_on_c, 0, 76, 48
2, 42838, Note_on_c, 0, 76, 0
2, 42900, Note_on_c, 0, 71, 48
2, 42958, Note_on_c, 0, 71, 0
2, 42960, Note_on_c, 0, 83, 48
2, 43018, Note_on_c, 0, 83, 0
2, 43020, Note_on_c, 0, 79, 48
2, 43078, Note_on_c, 0, 79, 0
2, 43080, Note_on_c, 0, 78, 48
2, 43138, Note_on_c, 0, 78, 0
2, 43140, Note_on_c, 0, 76, 48
2, 43198, Note_on_c, 0, 76, 0
2, 43200, Note_on_c, 0, 83, 48
2, 43438, Note_on_c, 0, 83, 0
2, 43440, Note_on_c, 0, 82, 48
2, 43558, Note_on_c, 0, 82, 0
2, 43620, Note_on_c, 0, 79, 48
2, 43678, Note_on_c, 0, 79, 0
2, 43680, Note_on_c, 0, 78, 48
2, 43738, Note_on_c, 0, 78, 0
2, 43740, Note_on_c, 0, 76, 48
2, 43798, Note_on_c, 0, 76, 0
2, 43800, Note_on_c, 0, 74, 48
2, 43858, Note_on_c, 0, 74, 0
2, 43860, Note_on_c, 0, 73, 48
2, 43918, Note_on_c, 0, 73, 0
2, 43920, Note_on_c, 0, 76, 48
2, 44158, Note_on_c, 0, 76, 0
2, 44160, Note_on_c, 0, 74, 48
2, 44278, Note_on_c, 0, 74, 0
2, 44340, Note_on_c, 0, 74, 48
2, 44398, Note_on_c, 0, 74, 0
2, 44400, Note_on_c, 0, 78, 48
2, 44458, Note_on_c, 0, 78, 0
2, 44460, Note_on_c, 0, 74, 48
2, 44518, Note_on_c, 0, 74, 0
2, 44520, Note_on_c, 0, 73, 48
2, 44578, Note_on_c, 0, 73, 0
2, 44580, Note_on_c, 0, 71, 48
2, 44638, Note_on_c, 0, 71, 0
2, 44640, Note_on_c, 0, 71, 48
2, 44878, Note_on_c, 0, 71, 0
2, 44880, Note_on_c, 0, 70, 48
2, 44998, Note_on_c, 0, 70, 0
2, 45060, Note_on_c, 0, 79, 48
2, 45118, Note_on_c, 0, 79, 0
2, 45120, Note_on_c, 0, 78, 48
2, 45178, Note_on_c, 0, 78, 0
2, 45180, Note_on_c, 0, 76, 48
2, 45238, Note_on_c, 0, 76, 0
2, 45240, Note_on_c, 0, 74, 48
2, 45298, Note_on_c, 0, 74, 0
2, 45300, Note_on_c, 0, 73, 48
2, 45358, Note_on_c, 0, 73, 0
2, 45360, Note_on_c, 0, 76, 48
2, 45598, Note_on_c, 0, 76, 0
2, 45600, Note_on_c, 0, 74, 48
2, 45718, Note_on_c, 0, 74, 0
2, 45780, Note_on_c, 0, 83, 80
2, 45838, Note_on_c, 0, 83, 0
2, 45840, Note_on_c, 0, 82, 80
2, 45898, Note_on_c, 0, 82, 0
2, 45900, Note_on_c, 0, 83, 80
2, 45958, Note_on_c, 0, 83, 0
2, 45960, Note_on_c, 0, 86, 80
2, 46018, Note_on_c, 0, 86, 0
2, 46020, Note_on_c, 0, 83, 80
2, 46078, Note_on_c, 0, 83, 0
2, 46080, Note_on_c, 0, 79, 80
2, 46138, Note_on_c, 0, 79, 0
2, 46140, Note_on_c, 0, 83, 80
2, 46198, Note_on_c, 0, 83, 0
2, 46200, Note_on_c, 0, 78, 80
2, 46258, Note_on_c, 0, 78, 0
2, 46260, Note_on_c, 0, 83, 80
2, 46318, Note_on_c, 0, 83, 0
2, 46320, Note_on_c, 0, 76, 80
2, 46378, Note_on_c, 0, 76, 0
2, 46380, Note_on_c, 0, 83, 80
2, 46438, Note_on_c, 0, 83, 0
2, 46440, Note_on_c, 0, 74, 80
2, 46498, Note_on_c, 0, 74, 0
2, 46500, Note_on_c, 0, 83, 80
2, 46558, Note_on_c, 0, 83, 0
2, 46560, Note_on_c, 0, 82, 80
2, 46618, Note_on_c, 0, 82, 0
2, 46620, Note_on_c, 0, 83, 80
2, 46678, Note_on_c, 0, 83, 0
2, 46680, Note_on_c, 0, 86, 80
2, 46738, Note_on_c, 0, 86, 0
2, 46740, Note_on_c, 0, 83, 80
2, 46798, Note_on_c, 0, 83, 0
2, 46800, Note_on_c, 0, 76, 80
2, 46858, Note_on_c, 0, 76, 0
2, 46860, Note_on_c, 0, 83, 80
2, 46918, Note_on_c, 0, 83, 0
2, 46920, Note_on_c, 0, 74, 80
2, 46978, Note_on_c, 0, 74, 0
2, 46980, Note_on_c, 0, 83, 80
2, 47038, Note_on_c, 0, 83, 0
2, 47040, Note_on_c, 0, 73, 80
2, 47098, Note_on_c, 0, 73, 0
2, 47100, Note_on_c, 0, 83, 80
2, 47158, Note_on_c, 0, 83, 0
2, 47160, Note_on_c, 0, 71, 80
2, 47218, Note_on_c, 0, 71, 0
2, 47220, Note_on_c, 0, 83, 80
2, 47278, Note_on_c, 0, 83, 0
2, 47280, Note_on_c, 0, 82, 80
2, 47338, Note_on_c, 0, 82, 0
2, 47340, Note_on_c, 0, 83, 80
2, 47398, Note_on_c, 0, 83, 0
2, 47400, Note_on_c, 0, 86, 80
2, 47458, Note_on_c, 0, 86, 0
2, 47460, Note_on_c, 0, 83, 80
2, 47518, Note_on_c, 0, 83, 0
2, 47520, Note_on_c, 0, 79, 80
2, 47578, Note_on_c, 0, 79, 0
2, 47580, Note_on_c, 0, 83, 80
2, 47638, Note_on_c, 0, 83, 0
2, 47640, Note_on_c, 0, 78, 80
2, 47698, Note_on_c, 0, 78, 0
2, 47700, Note_on_c, 0, 83, 80
2, 47758, Note_on_c, 0, 83, 0
2, 47760, Note_on_c, 0, 76, 80
2, 47818, Note_on_c, 0, 76, 0
2, 47820, Note_on_c, 0, 83, 80
2, 47878, Note_on_c, 0, 83, 0
2, 47880, Note_on_c, 0, 74, 80
2, 47938, Note_on_c, 0, 74, 0
2, 47940, Note_on_c, 0, 83, 80
2, 47998, Note_on_c, 0, 83, 0
2, 48000, Note_on_c, 0, 82, 80
2, 48058, Note_on_c, 0, 82, 0
2, 48060, Note_on_c, 0, 83, 80
2, 48118, Note_on_c, 0, 83, 0
2, 48120, Note_on_c, 0, 86, 80
2, 48178, Note_on_c, 0, 86, 0
2, 48180, Note_on_c, 0, 83, 80
2, 48238, Note_on_c, 0, 83, 0
2, 48240, Note_on_c, 0, 76, 80
2, 48298, Note_on_c, 0, 76, 0
2, 48300, Note_on_c, 0, 83, 80
2, 48358, Note_on_c, 0, 83, 0
2, 48360, Note_on_c, 0, 74, 80
2, 48418, Note_on_c, 0, 74, 0
2, 48420, Note_on_c, 0, 83, 80
2, 48478, Note_on_c, 0, 83, 0
2, 48480, Note_on_c, 0, 73, 80
2, 48538, Note_on_c, 0, 73, 0
2, 48540, Note_on_c, 0, 83, 80
2, 48598, Note_on_c, 0, 83, 0
2, 48600, Note_on_c, 0, 71, 80
2, 48792, Note_on_c, 0, 71, 0
2, 48840, Note_on_c, 0, 83, 80
2, 48888, Note_on_c, 0, 83, 0
2, 48960, Note_on_c, 0, 73, 80
2, 49152, Note_on_c, 0, 73, 0
2, 49200, Note_on_c, 0, 79, 80
2, 49248, Note_on_c, 0, 79, 0
2, 49320, Note_on_c, 0, 78, 80
2, 49512, Note_on_c, 0, 78, 0
2, 49560, Note_on_c, 0, 76, 80
2, 49608, Note_on_c, 0, 76, 0
2, 49680, Note_on_c, 0, 76, 80
2, 49872, Note_on_c, 0, 76, 0
2, 49920, Note_on_c, 0, 74, 80
2, 49968, Note_on_c, 0, 74, 0
2, 50040, Note_on_c, 0, 71, 80
2, 50232, Note_on_c, 0, 71, 0
2, 50280, Note_on_c, 0, 83, 80
2, 50328, Note_on_c, 0, 83, 0
2, 50400, Note_on_c, 0, 73, 80
2, 50592, Note_on_c, 0, 73, 0
2, 50640, Note_on_c, 0, 79, 80
2, 50688, Note_on_c, 0, 79, 0
2, 50880, Note_on_c, 0, 78, 80
2, 50998, Note_on_c, 0, 78, 0
2, 51000, Note_on_c, 0, 70, 80
2, 51118, Note_on_c, 0, 70, 0
2, 51120, Note_on_c, 0, 71, 80
2, 51238, Note_on_c, 0, 71, 0
2, 51240, Note_on_c, 0, 74, 80
2, 51288, Note_on_c, 0, 74, 0
2, 51360, Note_on_c, 0, 78, 80
2, 51408, Note_on_c, 0, 78, 0
2, 51480, Note_on_c, 0, 83, 80
2, 51598, Note_on_c, 0, 83, 0
2, 51840, Note_on_c, 0, 71, 80
2, 51958, Note_on_c, 0, 71, 0
2, 51960, Note_on_c, 0, 74, 80
2, 52008, Note_on_c, 0, 74, 0
2, 52080, Note_on_c, 0, 78, 80
2, 52128, Note_on_c, 0, 78, 0
2, 52200, Note_on_c, 0, 83, 80
2, 52318, Note_on_c, 0, 83, 0
2, 52560, Note_on_c, 0, 71, 80
2, 52678, Note_on_c, 0, 71, 0
2, 52680, Note_on_c, 0, 74, 80
2, 52728, Note_on_c, 0, 74, 0
2, 52800, Note_on_c, 0, 79, 80
2, 52848, Note_on_c, 0, 79, 0
2, 52920, Note_on_c, 0, 83, 80
2, 53038, Note_on_c, 0, 83, 0
2, 53280, Note_on_c, 0, 71, 80
2, 53398, Note_on_c, 0, 71, 0
2, 53400, Note_on_c, 0, 76, 80
2, 53448, Note_on_c, 0, 76, 0
2, 53520, Note_on_c, 0, 79, 80
2, 53568, Note_on_c, 0, 79, 0
2, 53640, Note_on_c, 0, 83, 80
2, 53758, Note_on_c, 0, 83, 0
2, 54000, Note_on_c, 0, 72, 80
2, 54118, Note_on_c, 0, 72, 0
2, 54120, Note_on_c, 0, 76, 80
2, 54168, Note_on_c, 0, 76, 0
2, 54240, Note_on_c, 0, 79, 80
2, 54288, Note_on_c, 0, 79, 0
2, 54360, Note_on_c, 0, 84, 80
2, 54478, Note_on_c, 0, 84, 0
2, 54720, Note_on_c, 0, 72, 80
2, 54838, Note_on_c, 0, 72, 0
2, 54840, Note_on_c, 0, 76, 80
2, 54888, Note_on_c, 0, 76, 0
2, 54960, Note_on_c, 0, 81, 80
2, 55008, Note_on_c, 0, 81, 0
2, 55080, Note_on_c, 0, 84, 80
2, 55198, Note_on_c, 0, 84, 0
2, 55440, Note_on_c, 0, 72, 80
2, 55558, Note_on_c, 0, 72, 0
2, 55560, Note_on_c, 0, 78, 83
2, 55608, Note_on_c, 0, 78, 0
2, 55680, Note_on_c, 0, 81, 85
2, 55728, Note_on_c, 0, 81, 0
2, 55800, Note_on_c, 0, 84, 88
2, 55918, Note_on_c, 0, 84, 0
2, 56160, Note_on_c, 0, 71, 96
2, 56256, Note_on_c, 0, 71, 0
2, 56280, Note_on_c, 0, 75, 96
2, 56328, Note_on_c, 0, 75, 0
2, 56400, Note_on_c, 0, 78, 96
2, 56448, Note_on_c, 0, 78, 0
2, 56520, Note_on_c, 0, 83, 96
2, 56808, Note_on_c, 0, 83, 0
2, 58080, Note_on_c, 0, 59, 64
2, 58080, Note_on_c, 0, 67, 64
2, 58200, Note_on_c, 0, 67, 0
2, 58200, Note_on_c, 0, 59, 0
2, 58200, Note_on_c, 0, 57, 64
2, 58200, Note_on_c, 0, 63, 64
2, 58320, Note_on_c, 0, 63, 0
2, 58320, Note_on_c, 0, 57, 0
2, 58320, Note_on_c, 0, 64, 64
2, 58320, Note_on_c, 0, 55, 64
2, 58440, Note_on_c, 0, 55, 0
2, 58440, Note_on_c, 0, 64, 0
2, 58800, Note_on_c, 0, 71, 64
2, 58800, Note_on_c, 0, 67, 64
2, 58920, Note_on_c, 0, 67, 0
2, 58920, Note_on_c, 0, 71, 0
2, 58920, Note_on_c, 0, 69, 64
2, 58920, Note_on_c, 0, 66, 64
2, 59040, Note_on_c, 0, 66, 0
2, 59040, Note_on_c, 0, 69, 0
2, 59040, Note_on_c, 0, 64, 64
2, 59040, Note_on_c, 0, 67, 64
2, 59158, Note_on_c, 0, 67, 0
2, 59158, Note_on_c, 0, 64, 0
2, 59460, Note_on_c, 0, 83, 48
2, 59518, Note_on_c, 0, 83, 0
2, 59520, Note_on_c, 0, 81, 48
2, 59578, Note_on_c, 0, 81, 0
2, 59580, Note_on_c, 0, 79, 48
2, 59638, Note_on_c, 0, 79, 0
2, 59640, Note_on_c, 0, 78, 48
2, 59698, Note_on_c, 0, 78, 0
2, 59700, Note_on_c, 0, 76, 48
2, 59758, Note_on_c, 0, 76, 0
2, 59760, Note_on_c, 0, 76, 48
2, 59998, Note_on_c, 0, 76, 0
2, 60000, Note_on_c, 0, 75, 48
2, 60118, Note_on_c, 0, 75, 0
2, 60180, Note_on_c, 0, 84, 48
2, 60238, Note_on_c, 0, 84, 0
2, 60240, Note_on_c, 0, 83, 48
2, 60298, Note_on_c, 0, 83, 0
2, 60300, Note_on_c, 0, 81, 48
2, 60358, Note_on_c, 0, 81, 0
2, 60360, Note_on_c, 0, 79, 48
2, 60418, Note_on_c, 0, 79, 0
2, 60420, Note_on_c, 0, 78, 48
2, 60478, Note_on_c, 0, 78, 0
2, 60480, Note_on_c, 0, 78, 48
2, 60718, Note_on_c, 0, 78, 0
2, 60720, Note_on_c, 0, 76, 48
2, 60838, Note_on_c, 0, 76, 0
2, 60900, Note_on_c, 0, 83, 80
2, 60958, Note_on_c, 0, 83, 0
2, 60960, Note_on_c, 0, 81, 80
2, 61018, Note_on_c, 0, 81, 0
2, 61020, Note_on_c, 0, 79, 80
2, 61078, Note_on_c, 0, 79, 0
2, 61080, Note_on_c, 0, 78, 80
2, 61138, Note_on_c, 0, 78, 0
2, 61140, Note_on_c, 0, 76, 80
2, 61198, Note_on_c, 0, 76, 0
2, 61200, Note_on_c, 0, 84, 80
2, 61258, Note_on_c, 0, 84, 0
2, 61260, Note_on_c, 0, 72, 80
2, 61318, Note_on_c, 0, 72, 0
2, 61320, Note_on_c, 0, 81, 80
2, 61378, Note_on_c, 0, 81, 0
2, 61380, Note_on_c, 0, 84, 80
2, 61438, Note_on_c, 0, 84, 0
2, 61440, Note_on_c, 0, 79, 80
2, 61498, Note_on_c, 0, 79, 0
2, 61500, Note_on_c, 0, 84, 80
2, 61558, Note_on_c, 0, 84, 0
2, 61560, Note_on_c, 0, 78, 80
2, 61618, Note_on_c, 0, 78, 0
2, 61620, Note_on_c, 0, 81, 80
2, 61678, Note_on_c, 0, 81, 0
2, 61680, Note_on_c, 0, 86, 80
2, 61738, Note_on_c, 0, 86, 0
2, 61740, Note_on_c, 0, 84, 80
2, 61798, Note_on_c, 0, 84, 0
2, 61800, Note_on_c, 0, 83, 80
2, 61858, Note_on_c, 0, 83, 0
2, 61860, Note_on_c, 0, 81, 80
2, 61918, Note_on_c, 0, 81, 0
2, 61920, Note_on_c, 0, 83, 80
2, 61978, Note_on_c, 0, 83, 0
2, 61980, Note_on_c, 0, 71, 80
2, 62038, Note_on_c, 0, 71, 0
2, 62040, Note_on_c, 0, 79, 80
2, 62098, Note_on_c, 0, 79, 0
2, 62100, Note_on_c, 0, 83, 80
2, 62158, Note_on_c, 0, 83, 0
2, 62160, Note_on_c, 0, 78, 80
2, 62218, Note_on_c, 0, 78, 0
2, 62220, Note_on_c, 0, 83, 80
2, 62278, Note_on_c, 0, 83, 0
2, 62280, Note_on_c, 0, 76, 80
2, 62338, Note_on_c, 0, 76, 0
2, 62340, Note_on_c, 0, 79, 80
2, 62398, Note_on_c, 0, 79, 0
2, 62400, Note_on_c, 0, 84, 80
2, 62458, Note_on_c, 0, 84, 0
2, 62460, Note_on_c, 0, 83, 80
2, 62518, Note_on_c, 0, 83, 0
2, 62520, Note_on_c, 0, 81, 80
2, 62578, Note_on_c, 0, 81, 0
2, 62580, Note_on_c, 0, 79, 80
2, 62638, Note_on_c, 0, 79, 0
2, 62640, Note_on_c, 0, 81, 80
2, 62698, Note_on_c, 0, 81, 0
2, 62700, Note_on_c, 0, 69, 80
2, 62758, Note_on_c, 0, 69, 0
2, 62760, Note_on_c, 0, 78, 80
2, 62818, Note_on_c, 0, 78, 0
2, 62820, Note_on_c, 0, 83, 80
2, 62878, Note_on_c, 0, 83, 0
2, 62880, Note_on_c, 0, 76, 80
2, 62938, Note_on_c, 0, 76, 0
2, 62940, Note_on_c, 0, 81, 80
2, 62998, Note_on_c, 0, 81, 0
2, 63000, Note_on_c, 0, 75, 80
2, 63058, Note_on_c, 0, 75, 0
2, 63060, Note_on_c, 0, 78, 80
2, 63118, Note_on_c, 0, 78, 0
2, 63120, Note_on_c, 0, 83, 80
2, 63178, Note_on_c, 0, 83, 0
2, 63180, Note_on_c, 0, 81, 80
2, 63238, Note_on_c, 0, 81, 0
2, 63240, Note_on_c, 0, 79, 80
2, 63298, Note_on_c, 0, 79, 0
2, 63300, Note_on_c, 0, 78, 80
2, 63358, Note_on_c, 0, 78, 0
2, 63360, Note_on_c, 0, 79, 80
2, 63456, Note_on_c, 0, 79, 0
2, 63480, Note_on_c, 0, 81, 80
2, 63512, Note_on_c, 0, 81, 0
2, 63520, Note_on_c, 0, 83, 80
2, 63552, Note_on_c, 0, 83, 0
2, 63560, Note_on_c, 0, 81, 80
2, 63592, Note_on_c, 0, 81, 0
2, 63600, Note_on_c, 0, 83, 80
2, 63696, Note_on_c, 0, 83, 0
2, 63720, Note_on_c, 0, 78, 80
2, 63768, Note_on_c, 0, 78, 0
2, 63840, Note_on_c, 0, 78, 80
2, 63888, Note_on_c, 0, 78, 0
2, 63960, Note_on_c, 0, 78, 80
2, 64008, Note_on_c, 0, 78, 0
2, 64080, Note_on_c, 0, 79, 48
2, 64176, Note_on_c, 0, 79, 0
2, 64200, Note_on_c, 0, 81, 48
2, 64232, Note_on_c, 0, 81, 0
2, 64240, Note_on_c, 0, 83, 48
2, 64272, Note_on_c, 0, 83, 0
2, 64280, Note_on_c, 0, 81, 48
2, 64312, Note_on_c, 0, 81, 0
2, 64320, Note_on_c, 0, 83, 48
2, 64416, Note_on_c, 0, 83, 0
2, 64440, Note_on_c, 0, 78, 48
2, 64488, Note_on_c, 0, 78, 0
2, 64560, Note_on_c, 0, 78, 48
2, 64608, Note_on_c, 0, 78, 0
2, 64680, Note_on_c, 0, 78, 48
2, 64728, Note_on_c, 0, 78, 0
2, 64800, Note_on_c, 0, 79, 48
2, 64896, Note_on_c, 0, 79, 0
2, 64920, Note_on_c, 0, 81, 53
2, 64952, Note_on_c, 0, 81, 0
2, 64960, Note_on_c, 0, 83, 55
2, 64992, Note_on_c, 0, 83, 0
2, 65000, Note_on_c, 0, 81, 57
2, 65032, Note_on_c, 0, 81, 0
2, 65040, Note_on_c, 0, 83, 59
2, 65136, Note_on_c, 0, 83, 0
2, 65160, Note_on_c, 0, 78, 64
2, 65208, Note_on_c, 0, 78, 0
2, 65280, Note_on_c, 0, 78, 69
2, 65328, Note_on_c, 0, 78, 0
2, 65400, Note_on_c, 0, 78, 75
2, 65520, Note_on_c, 0, 78, 0
2, 65520, Note_on_c, 0, 76, 85
2, 65568, Note_on_c, 0, 76, 0
2, 65640, Note_on_c, 0, 76, 85
2, 65688, Note_on_c, 0, 76, 0
2, 65760, Note_on_c, 0, 76, 85
2, 65880, Note_on_c, 0, 76, 0
2, 65880, Note_on_c, 0, 75, 85
2, 65928, Note_on_c, 0, 75, 0
2, 66000, Note_on_c, 0, 75, 85
2, 66048, Note_on_c, 0, 75, 0
2, 66120, Note_on_c, 0, 75, 85
2, 66240, Note_on_c, 0, 75, 0
2, 66240, Note_on_c, 0, 70, 85
2, 66288, Note_on_c, 0, 70, 0
2, 66360, Note_on_c, 0, 70, 85
2, 66408, Note_on_c, 0, 70, 0
2, 66480, Note_on_c, 0, 70, 85
2, 66598, Note_on_c, 0, 70, 0
2, 66660, Note_on_c, 0, 71, 85
2, 66718, Note_on_c, 0, 71, 0
2, 66720, Note_on_c, 0, 73, 85
2, 66778, Note_on_c, 0, 73, 0
2, 66780, Note_on_c, 0, 75, 85
2, 66838, Note_on_c, 0, 75, 0
2, 66840, Note_on_c, 0, 76, 85
2, 66898, Note_on_c, 0, 76, 0
2, 66900, Note_on_c, 0, 78, 85
2, 66958, Note_on_c, 0, 78, 0
2, 66960, Note_on_c, 0, 79, 85
2, 67018, Note_on_c, 0, 79, 0
2, 67020, Note_on_c, 0, 71, 85
2, 67078, Note_on_c, 0, 71, 0
2, 67080, Note_on_c, 0, 73, 85
2, 67138, Note_on_c, 0, 73, 0
2, 67140, Note_on_c, 0, 75, 85
2, 67198, Note_on_c, 0, 75, 0
2, 67200, Note_on_c, 0, 76, 85
2, 67258, Note_on_c, 0, 76, 0
2, 67260, Note_on_c, 0, 78, 85
2, 67318, Note_on_c, 0, 78, 0
2, 67320, Note_on_c, 0, 79, 85
2, 67378, Note_on_c, 0, 79, 0
2, 67380, Note_on_c, 0, 78, 85
2, 67438, Note_on_c, 0, 78, 0
2, 67440, Note_on_c, 0, 76, 85
2, 67498, Note_on_c, 0, 76, 0
2, 67500, Note_on_c, 0, 78, 85
2, 67558, Note_on_c, 0, 78, 0
2, 67560, Note_on_c, 0, 79, 85
2, 67618, Note_on_c, 0, 79, 0
2, 67620, Note_on_c, 0, 81, 85
2, 67678, Note_on_c, 0, 81, 0
2, 67680, Note_on_c, 0, 83, 80
2, 67798, Note_on_c, 0, 83, 0
2, 67800, Note_on_c, 0, 78, 83
2, 67848, Note_on_c, 0, 78, 0
2, 67920, Note_on_c, 0, 75, 85
2, 67968, Note_on_c, 0, 75, 0
2, 68040, Note_on_c, 0, 71, 88
2, 68088, Note_on_c, 0, 71, 0
2, 68160, Note_on_c, 0, 66, 91
2, 68208, Note_on_c, 0, 66, 0
2, 68280, Note_on_c, 0, 63, 93
2, 68328, Note_on_c, 0, 63, 0
2, 68400, Note_on_c, 0, 59, 96
2, 68976, Note_on_c, 0, 59, 0
2, 69240, Note_on_c, 0, 67, 48
2, 69240, Note_on_c, 0, 71, 48
2, 69358, Note_on_c, 0, 71, 0
2, 69358, Note_on_c, 0, 67, 0
2, 69360, Note_on_c, 0, 66, 48
2, 69360, Note_on_c, 0, 69, 48
2, 69478, Note_on_c, 0, 69, 0
2, 69478, Note_on_c, 0, 66, 0
2, 69480, Note_on_c, 0, 64, 48
2, 69480, Note_on_c, 0, 67, 48
2, 69528, Note_on_c, 0, 67, 0
2, 69528, Note_on_c, 0, 64, 0
2, 69600, Note_on_c, 0, 71, 48
2, 69600, Note_on_c, 0, 79, 48
2, 69648, Note_on_c, 0, 79, 0
2, 69648, Note_on_c, 0, 71, 0
2, 69720, Note_on_c, 0, 67, 48
2, 69720, Note_on_c, 0, 76, 48
2, 69768, Note_on_c, 0, 76, 0
2, 69768, Note_on_c, 0, 67, 0
2, 69840, Note_on_c, 0, 66, 48
2, 69840, Note_on_c, 0, 75, 48
2, 69958, Note_on_c, 0, 75, 0
2, 69958, Note_on_c, 0, 66, 0
2, 69960, Note_on_c, 0, 78, 48
2, 69960, Note_on_c, 0, 81, 48
2, 70078, Note_on_c, 0, 81, 0
2, 70078, Note_on_c, 0, 78, 0
2, 70080, Note_on_c, 0, 76, 48
2, 70080, Note_on_c, 0, 79, 48
2, 70198, Note_on_c, 0, 79, 0
2, 70198, Note_on_c, 0, 76, 0
2, 70200, Note_on_c, 0, 75, 48
2, 70200, Note_on_c, 0, 78, 48
2, 70248, Note_on_c, 0, 78, 0
2, 70248, Note_on_c, 0, 75, 0
2, 70320, Note_on_c, 0, 81, 48
2, 70320, Note_on_c, 0, 84, 48
2, 70368, Note_on_c, 0, 84, 0
2, 70368, Note_on_c, 0, 81, 0
2, 70440, Note_on_c, 0, 78, 48
2, 70440, Note_on_c, 0, 81, 48
2, 70488, Note_on_c, 0, 81, 0
2, 70488, Note_on_c, 0, 78, 0
2, 70560, Note_on_c, 0, 76, 48
2, 70560, Note_on_c, 0, 79, 48
2, 70680, Note_on_c, 0, 79, 0
2, 70680, Note_on_c, 0, 83, 48
2, 70800, Note_on_c, 0, 76, 0
2, 70800, Note_on_c, 0, 71, 48
2, 70920, Note_on_c, 0, 71, 0
2, 70920, Note_on_c, 0, 72, 48
2, 71040, Note_on_c, 0, 83, 0
2, 71040, Note_on_c, 0, 81, 48
2, 71280, Note_on_c, 0, 72, 0
2, 71280, Note_on_c, 0, 71, 48
2, 71400, Note_on_c, 0, 81, 0
2, 71400, Note_on_c, 0, 79, 48
2, 71520, Note_on_c, 0, 79, 0
2, 71520, Note_on_c, 0, 76, 48
2, 71640, Note_on_c, 0, 71, 0
2, 71640, Note_on_c, 0, 69, 48
2, 71760, Note_on_c, 0, 76, 0
2, 71760, Note_on_c, 0, 78, 48
2, 71880, Note_on_c, 0, 78, 0
2, 71880, Note_on_c, 0, 81, 48
2, 72000, Note_on_c, 0, 81, 0
2, 72000, Note_on_c, 0, 69, 0
2, 72000, Note_on_c, 0, 76, 48
2, 72000, Note_on_c, 0, 71, 48
2, 72360, Note_on_c, 0, 71, 0
2, 72360, Note_on_c, 0, 76, 0
2, 72360, Note_on_c, 0, 69, 48
2, 72480, Note_on_c, 0, 78, 48
2, 72528, Note_on_c, 0, 78, 0
2, 72600, Note_on_c, 0, 75, 48
2, 72648, Note_on_c, 0, 75, 0
2, 72718, Note_on_c, 0, 69, 0
2, 72720, Note_on_c, 0, 67, 48
2, 72720, Note_on_c, 0, 76, 48
2, 73080, Note_on_c, 0, 76, 0
2, 73080, Note_on_c, 0, 67, 0
2, 73560, Note_on_c, 0, 67, 80
2, 73560, Note_on_c, 0, 71, 80
2, 73678, Note_on_c, 0, 71, 0
2, 73678, Note_on_c, 0, 67, 0
2, 73680, Note_on_c, 0, 66, 80
2, 73680, Note_on_c, 0, 69, 80
2, 73798, Note_on_c, 0, 69, 0
2, 73798, Note_on_c, 0, 66, 0
2, 73800, Note_on_c, 0, 64, 80
2, 73800, Note_on_c, 0, 67, 80
2, 73848, Note_on_c, 0, 67, 0
2, 73848, Note_on_c, 0, 64, 0
2, 73920, Note_on_c, 0, 71, 80
2, 73920, Note_on_c, 0, 79, 80
2, 73968, Note_on_c, 0, 79, 0
2, 73968, Note_on_c, 0, 71, 0
2, 74040, Note_on_c, 0, 67, 80
2, 74040, Note_on_c, 0, 76, 80
2, 74088, Note_on_c, 0, 76, 0
2, 74088, Note_on_c, 0, 67, 0
2, 74160, Note_on_c, 0, 66, 80
2, 74160, Note_on_c, 0, 75, 80
2, 74278, Note_on_c, 0, 75, 0
2, 74278, Note_on_c, 0, 66, 0
2, 74280, Note_on_c, 0, 78, 80
2, 74280, Note_on_c, 0, 81, 80
2, 74398, Note_on_c, 0, 81, 0
2, 74398, Note_on_c, 0, 78, 0
2, 74400, Note_on_c, 0, 76, 80
2, 74400, Note_on_c, 0, 79, 80
2, 74518, Note_on_c, 0, 79, 0
2, 74518, Note_on_c, 0, 76, 0
2, 74520, Note_on_c, 0, 75, 80
2, 74520, Note_on_c, 0, 78, 80
2, 74568, Note_on_c, 0, 78, 0
2, 74568, Note_on_c, 0, 75, 0
2, 74640, Note_on_c, 0, 81, 80
2, 74640, Note_on_c, 0, 84, 80
2, 74688, Note_on_c, 0, 84, 0
2, 74688, Note_on_c, 0, 81, 0
2, 74760, Note_on_c, 0, 78, 80
2, 74760, Note_on_c, 0, 81, 80
2, 74808, Note_on_c, 0, 81, 0
2, 74808, Note_on_c, 0, 78, 0
2, 74880, Note_on_c, 0, 79, 80
2, 74880, Note_on_c, 0, 76, 80
2, 75000, Note_on_c, 0, 79, 0
2, 75000, Note_on_c, 0, 83, 80
2, 75120, Note_on_c, 0, 76, 0
2, 75120, Note_on_c, 0, 71, 80
2, 75240, Note_on_c, 0, 71, 0
2, 75240, Note_on_c, 0, 72, 80
2, 75360, Note_on_c, 0, 83, 0
2, 75360, Note_on_c, 0, 81, 80
2, 75600, Note_on_c, 0, 72, 0
2, 75600, Note_on_c, 0, 71, 80
2, 75720, Note_on_c, 0, 81, 0
2, 75720, Note_on_c, 0, 79, 80
2, 75840, Note_on_c, 0, 79, 0
2, 75840, Note_on_c, 0, 71, 0
2, 75840, Note_on_c, 0, 76, 80
2, 75840, Note_on_c, 0, 77, 80
2, 76080, Note_on_c, 0, 76, 0
2, 76080, Note_on_c, 0, 74, 80
2, 76200, Note_on_c, 0, 77, 0
2, 76320, Note_on_c, 0, 76, 80
2, 76440, Note_on_c, 0, 74, 0
2, 76440, Note_on_c, 0, 72, 80
2, 76680, Note_on_c, 0, 76, 0
2, 76680, Note_on_c, 0, 74, 80
2, 76800, Note_on_c, 0, 72, 0
2, 76800, Note_on_c, 0, 71, 80
2, 77040, Note_on_c, 0, 74, 0
2, 77040, Note_on_c, 0, 72, 80
2, 77160, Note_on_c, 0, 71, 0
2, 77160, Note_on_c, 0, 69, 80
2, 77400, Note_on_c, 0, 72, 0
2, 77400, Note_on_c, 0, 71, 80
2, 77520, Note_on_c, 0, 69, 0
2, 77520, Note_on_c, 0, 67, 80
2, 77640, Note_on_c, 0, 67, 0
2, 77640, Note_on_c, 0, 71, 0
2, 77640, Note_on_c, 0, 76, 80
2, 77640, Note_on_c, 0, 64, 80
2, 77760, Note_on_c, 0, 64, 0
2, 77760, Note_on_c, 0, 76, 0
2, 77760, Note_on_c, 0, 65, 80
2, 77760, Note_on_c, 0, 76, 80
2, 77880, Note_on_c, 0, 76, 0
2, 77880, Note_on_c, 0, 65, 0
2, 77880, Note_on_c, 0, 66, 80
2, 77880, Note_on_c, 0, 76, 80
2, 78000, Note_on_c, 0, 76, 0
2, 78000, Note_on_c, 0, 66, 0
2, 78000, Note_on_c, 0, 67, 80
2, 78000, Note_on_c, 0, 76, 80
2, 78120, Note_on_c, 0, 76, 0
2, 78120, Note_on_c, 0, 67, 0
2, 78120, Note_on_c, 0, 68, 80
2, 78120, Note_on_c, 0, 76, 80
2, 78168, Note_on_c, 0, 76, 0
2, 78168, Note_on_c, 0, 68, 0
2, 78240, Note_on_c, 0, 69, 80
2, 78240, Note_on_c, 0, 76, 80
2, 78288, Note_on_c, 0, 76, 0
2, 78288, Note_on_c, 0, 69, 0
2, 78360, Note_on_c, 0, 70, 80
2, 78360, Note_on_c, 0, 76, 80
2, 78408, Note_on_c, 0, 76, 0
2, 78408, Note_on_c, 0, 70, 0
2, 78480, Note_on_c, 0, 71, 80
2, 78480, Note_on_c, 0, 76, 80
2, 78768, Note_on_c, 0, 71, 0
2, 78840, Note_on_c, 0, 69, 80
2, 78936, Note_on_c, 0, 76, 0
2, 78960, Note_on_c, 0, 78, 80
2, 79056, Note_on_c, 0, 78, 0
2, 79080, Note_on_c, 0, 75, 80
2, 79176, Note_on_c, 0, 75, 0
2, 79176, Note_on_c, 0, 69, 0
2, 79200, Note_on_c, 0, 76, 85
2, 79258, Note_on_c, 0, 76, 0
2, 79260, Note_on_c, 0, 71, 85
2, 79318, Note_on_c, 0, 71, 0
2, 79320, Note_on_c, 0, 67, 85
2, 79378, Note_on_c, 0, 67, 0
2, 79380, Note_on_c, 0, 71, 85
2, 79438, Note_on_c, 0, 71, 0
2, 79440, Note_on_c, 0, 69, 85
2, 79498, Note_on_c, 0, 69, 0
2, 79500, Note_on_c, 0, 71, 85
2, 79558, Note_on_c, 0, 71, 0
2, 79560, Note_on_c, 0, 67, 85
2, 79618, Note_on_c, 0, 67, 0
2, 79620, Note_on_c, 0, 71, 85
2, 79678, Note_on_c, 0, 71, 0
2, 79680, Note_on_c, 0, 76, 85
2, 79738, Note_on_c, 0, 76, 0
2, 79740, Note_on_c, 0, 71, 85
2, 79798, Note_on_c, 0, 71, 0
2, 79800, Note_on_c, 0, 78, 85
2, 79858, Note_on_c, 0, 78, 0
2, 79860, Note_on_c, 0, 71, 85
2, 79918, Note_on_c, 0, 71, 0
2, 79920, Note_on_c, 0, 79, 85
2, 79978, Note_on_c, 0, 79, 0
2, 79980, Note_on_c, 0, 71, 85
2, 80038, Note_on_c, 0, 71, 0
2, 80040, Note_on_c, 0, 67, 85
2, 80098, Note_on_c, 0, 67, 0
2, 80100, Note_on_c, 0, 71, 85
2, 80158, Note_on_c, 0, 71, 0
2, 80160, Note_on_c, 0, 69, 85
2, 80218, Note_on_c, 0, 69, 0
2, 80220, Note_on_c, 0, 71, 85
2, 80278, Note_on_c, 0, 71, 0
2, 80280, Note_on_c, 0, 67, 85
2, 80338, Note_on_c, 0, 67, 0
2, 80340, Note_on_c, 0, 71, 85
2, 80398, Note_on_c, 0, 71, 0
2, 80400, Note_on_c, 0, 76, 85
2, 80458, Note_on_c, 0, 76, 0
2, 80460, Note_on_c, 0, 71, 85
2, 80518, Note_on_c, 0, 71, 0
2, 80520, Note_on_c, 0, 78, 85
2, 80578, Note_on_c, 0, 78, 0
2, 80580, Note_on_c, 0, 71, 85
2, 80638, Note_on_c, 0, 71, 0
2, 80640, Note_on_c, 0, 79, 85
2, 80998, Note_on_c, 0, 79, 0
2, 81000, Note_on_c, 0, 77, 85
2, 81358, Note_on_c, 0, 77, 0
2, 81360, Note_on_c, 0, 76, 85
2, 81418, Note_on_c, 0, 76, 0
2, 81420, Note_on_c, 0, 79, 85
2, 81478, Note_on_c, 0, 79, 0
2, 81480, Note_on_c, 0, 76, 85
2, 81538, Note_on_c, 0, 76, 0
2, 81540, Note_on_c, 0, 79, 85
2, 81598, Note_on_c, 0, 79, 0
2, 81600, Note_on_c, 0, 77, 85
2, 81658, Note_on_c, 0, 77, 0
2, 81660, Note_on_c, 0, 79, 85
2, 81718, Note_on_c, 0, 79, 0
2, 81720, Note_on_c, 0, 76, 85
2, 81778, Note_on_c, 0, 76, 0
2, 81780, Note_on_c, 0, 79, 85
2, 81838, Note_on_c, 0, 79, 0
2, 81840, Note_on_c, 0, 84, 85
2, 81898, Note_on_c, 0, 84, 0
2, 81900, Note_on_c, 0, 79, 85
2, 81958, Note_on_c, 0, 79, 0
2, 81960, Note_on_c, 0, 86, 85
2, 82018, Note_on_c, 0, 86, 0
2, 82020, Note_on_c, 0, 79, 85
2, 82078, Note_on_c, 0, 79, 0
2, 82080, Note_on_c, 0, 88, 85
2, 82138, Note_on_c, 0, 88, 0
2, 82140, Note_on_c, 0, 79, 85
2, 82198, Note_on_c, 0, 79, 0
2, 82200, Note_on_c, 0, 76, 85
2, 82258, Note_on_c, 0, 76, 0
2, 82260, Note_on_c, 0, 79, 85
2, 82318, Note_on_c, 0, 79, 0
2, 82320, Note_on_c, 0, 77, 85
2, 82378, Note_on_c, 0, 77, 0
2, 82380, Note_on_c, 0, 79, 85
2, 82438, Note_on_c, 0, 79, 0
2, 82440, Note_on_c, 0, 76, 85
2, 82498, Note_on_c, 0, 76, 0
2, 82500, Note_on_c, 0, 79, 85
2, 82558, Note_on_c, 0, 79, 0
2, 82560, Note_on_c, 0, 84, 85
2, 82618, Note_on_c, 0, 84, 0
2, 82620, Note_on_c, 0, 79, 85
2, 82678, Note_on_c, 0, 79, 0
2, 82680, Note_on_c, 0, 86, 85
2, 82738, Note_on_c, 0, 86, 0
2, 82740, Note_on_c, 0, 79, 85
2, 82798, Note_on_c, 0, 79, 0
2, 82800, Note_on_c, 0, 88, 85
2, 82918, Note_on_c, 0, 88, 0
2, 82920, Note_on_c, 0, 81, 85
2, 82968, Note_on_c, 0, 81, 0
2, 83040, Note_on_c, 0, 81, 85
2, 83088, Note_on_c, 0, 81, 0
2, 83160, Note_on_c, 0, 86, 85
2, 83278, Note_on_c, 0, 86, 0
2, 83280, Note_on_c, 0, 80, 85
2, 83328, Note_on_c, 0, 80, 0
2, 83400, Note_on_c, 0, 80, 85
2, 83448, Note_on_c, 0, 80, 0
2, 83520, Note_on_c, 0, 84, 85
2, 83638, Note_on_c, 0, 84, 0
2, 83640, Note_on_c, 0, 77, 85
2, 83688, Note_on_c, 0, 77, 0
2, 83760, Note_on_c, 0, 77, 85
2, 83808, Note_on_c, 0, 77, 0
2, 83880, Note_on_c, 0, 83, 85
2, 83998, Note_on_c, 0, 83, 0
2, 84000, Note_on_c, 0, 76, 85
2, 84048, Note_on_c, 0, 76, 0
2, 84120, Note_on_c, 0, 76, 85
2, 84168, Note_on_c, 0, 76, 0
2, 84240, Note_on_c, 0, 81, 85
2, 84358, Note_on_c, 0, 81, 0
2, 84360, Note_on_c, 0, 75, 85
2, 84408, Note_on_c, 0, 75, 0
2, 84480, Note_on_c, 0, 75, 85
2, 84528, Note_on_c, 0, 75, 0
2, 84600, Note_on_c, 0, 79, 85
2, 84718, Note_on_c, 0, 79, 0
2, 84720, Note_on_c, 0, 70, 85
2, 84768, Note_on_c, 0, 70, 0
2, 84840, Note_on_c, 0, 70, 85
2, 84888, Note_on_c, 0, 70, 0
2, 84960, Note_on_c, 0, 78, 85
2, 85078, Note_on_c, 0, 78, 0
2, 85080, Note_on_c, 0, 71, 85
2, 85128, Note_on_c, 0, 71, 0
2, 85200, Note_on_c, 0, 71, 85
2, 85248, Note_on_c, 0, 71, 0
2, 85320, Note_on_c, 0, 81, 85
2, 85438, Note_on_c, 0, 81, 0
2, 85440, Note_on_c, 0, 69, 85
2, 85488, Note_on_c, 0, 69, 0
2, 85560, Note_on_c, 0, 69, 85
2, 85608, Note_on_c, 0, 69, 0
2, 85680, Note_on_c, 0, 79, 85
2, 85738, Note_on_c, 0, 79, 0
2, 85740, Note_on_c, 0, 71, 85
2, 85798, Note_on_c, 0, 71, 0
2, 85800, Note_on_c, 0, 67, 85
2, 85858, Note_on_c, 0, 67, 0
2, 85860, Note_on_c, 0, 71, 85
2, 85918, Note_on_c, 0, 71, 0
2, 85920, Note_on_c, 0, 69, 85
2, 85978, Note_on_c, 0, 69, 0
2, 85980, Note_on_c, 0, 71, 85
2, 86038, Note_on_c, 0, 71, 0
2, 86040, Note_on_c, 0, 67, 85
2, 86098, Note_on_c, 0, 67, 0
2, 86100, Note_on_c, 0, 71, 85
2, 86158, Note_on_c, 0, 71, 0
2, 86160, Note_on_c, 0, 76, 85
2, 86218, Note_on_c, 0, 76, 0
2, 86220, Note_on_c, 0, 71, 85
2, 86278, Note_on_c, 0, 71, 0
2, 86280, Note_on_c, 0, 78, 85
2, 86338, Note_on_c, 0, 78, 0
2, 86340, Note_on_c, 0, 71, 85
2, 86398, Note_on_c, 0, 71, 0
2, 86400, Note_on_c, 0, 79, 85
2, 86458, Note_on_c, 0, 79, 0
2, 86460, Note_on_c, 0, 71, 85
2, 86518, Note_on_c, 0, 71, 0
2, 86520, Note_on_c, 0, 67, 85
2, 86578, Note_on_c, 0, 67, 0
2, 86580, Note_on_c, 0, 71, 85
2, 86638, Note_on_c, 0, 71, 0
2, 86640, Note_on_c, 0, 69, 85
2, 86698, Note_on_c, 0, 69, 0
2, 86700, Note_on_c, 0, 71, 85
2, 86758, Note_on_c, 0, 71, 0
2, 86760, Note_on_c, 0, 67, 85
2, 86818, Note_on_c, 0, 67, 0
2, 86820, Note_on_c, 0, 71, 85
2, 86878, Note_on_c, 0, 71, 0
2, 86880, Note_on_c, 0, 76, 85
2, 86938, Note_on_c, 0, 76, 0
2, 86940, Note_on_c, 0, 71, 85
2, 86998, Note_on_c, 0, 71, 0
2, 87000, Note_on_c, 0, 78, 85
2, 87058, Note_on_c, 0, 78, 0
2, 87060, Note_on_c, 0, 71, 85
2, 87118, Note_on_c, 0, 71, 0
2, 87120, Note_on_c, 0, 79, 85
2, 87178, Note_on_c, 0, 79, 0
2, 87180, Note_on_c, 0, 71, 85
2, 87238, Note_on_c, 0, 71, 0
2, 87240, Note_on_c, 0, 67, 85
2, 87298, Note_on_c, 0, 67, 0
2, 87300, Note_on_c, 0, 71, 85
2, 87358, Note_on_c, 0, 71, 0
2, 87360, Note_on_c, 0, 67, 85
2, 87418, Note_on_c, 0, 67, 0
2, 87420, Note_on_c, 0, 71, 85
2, 87478, Note_on_c, 0, 71, 0
2, 87480, Note_on_c, 0, 76, 85
2, 87538, Note_on_c, 0, 76, 0
2, 87540, Note_on_c, 0, 72, 85
2, 87598, Note_on_c, 0, 72, 0
2, 87600, Note_on_c, 0, 67, 85
2, 87658, Note_on_c, 0, 67, 0
2, 87660, Note_on_c, 0, 72, 85
2, 87718, Note_on_c, 0, 72, 0
2, 87720, Note_on_c, 0, 67, 85
2, 87778, Note_on_c, 0, 67, 0
2, 87780, Note_on_c, 0, 72, 85
2, 87838, Note_on_c, 0, 72, 0
2, 87840, Note_on_c, 0, 66, 85
2, 87898, Note_on_c, 0, 66, 0
2, 87900, Note_on_c, 0, 72, 85
2, 87958, Note_on_c, 0, 72, 0
2, 87960, Note_on_c, 0, 76, 85
2, 88018, Note_on_c, 0, 76, 0
2, 88020, Note_on_c, 0, 72, 85
2, 88078, Note_on_c, 0, 72, 0
2, 88080, Note_on_c, 0, 76, 85
2, 88138, Note_on_c, 0, 76, 0
2, 88140, Note_on_c, 0, 72, 85
2, 88198, Note_on_c, 0, 72, 0
2, 88200, Note_on_c, 0, 66, 85
2, 88258, Note_on_c, 0, 66, 0
2, 88260, Note_on_c, 0, 71, 85
2, 88318, Note_on_c, 0, 71, 0
2, 88320, Note_on_c, 0, 75, 85
2, 88378, Note_on_c, 0, 75, 0
2, 88380, Note_on_c, 0, 71, 85
2, 88438, Note_on_c, 0, 71, 0
2, 88440, Note_on_c, 0, 75, 85
2, 88498, Note_on_c, 0, 75, 0
2, 88500, Note_on_c, 0, 71, 85
2, 88558, Note_on_c, 0, 71, 0
2, 88560, Note_on_c, 0, 79, 85
2, 88618, Note_on_c, 0, 79, 0
2, 88620, Note_on_c, 0, 71, 85
2, 88678, Note_on_c, 0, 71, 0
2, 88680, Note_on_c, 0, 67, 85
2, 88738, Note_on_c, 0, 67, 0
2, 88740, Note_on_c, 0, 71, 85
2, 88798, Note_on_c, 0, 71, 0
2, 88800, Note_on_c, 0, 67, 85
2, 88858, Note_on_c, 0, 67, 0
2, 88860, Note_on_c, 0, 71, 85
2, 88918, Note_on_c, 0, 71, 0
2, 88920, Note_on_c, 0, 76, 85
2, 88978, Note_on_c, 0, 76, 0
2, 88980, Note_on_c, 0, 72, 85
2, 89038, Note_on_c, 0, 72, 0
2, 89040, Note_on_c, 0, 67, 85
2, 89098, Note_on_c, 0, 67, 0
2, 89100, Note_on_c, 0, 72, 85
2, 89158, Note_on_c, 0, 72, 0
2, 89160, Note_on_c, 0, 67, 85
2, 89218, Note_on_c, 0, 67, 0
2, 89220, Note_on_c, 0, 72, 85
2, 89278, Note_on_c, 0, 72, 0
2, 89280, Note_on_c, 0, 66, 85
2, 89338, Note_on_c, 0, 66, 0
2, 89340, Note_on_c, 0, 72, 85
2, 89398, Note_on_c, 0, 72, 0
2, 89400, Note_on_c, 0, 76, 85
2, 89458, Note_on_c, 0, 76, 0
2, 89460, Note_on_c, 0, 72, 85
2, 89518, Note_on_c, 0, 72, 0
2, 89520, Note_on_c, 0, 76, 85
2, 89578, Note_on_c, 0, 76, 0
2, 89580, Note_on_c, 0, 72, 85
2, 89638, Note_on_c, 0, 72, 0
2, 89640, Note_on_c, 0, 66, 85
2, 89698, Note_on_c, 0, 66, 0
2, 89700, Note_on_c, 0, 71, 85
2, 89758, Note_on_c, 0, 71, 0
2, 89760, Note_on_c, 0, 75, 85
2, 89818, Note_on_c, 0, 75, 0
2, 89820, Note_on_c, 0, 71, 85
2, 89878, Note_on_c, 0, 71, 0
2, 89880, Note_on_c, 0, 75, 85
2, 89938, Note_on_c, 0, 75, 0
2, 89940, Note_on_c, 0, 71, 85
2, 89998, Note_on_c, 0, 71, 0
2, 90000, Note_on_c, 0, 76, 80
2, 90238, Note_on_c, 0, 76, 0
2, 90480, Note_on_c, 0, 59, 75
2, 90480, Note_on_c, 0, 67, 75
2, 90600, Note_on_c, 0, 67, 0
2, 90600, Note_on_c, 0, 59, 0
2, 90600, Note_on_c, 0, 57, 73
2, 90600, Note_on_c, 0, 63, 73
2, 90720, Note_on_c, 0, 63, 0
2, 90720, Note_on_c, 0, 57, 0
2, 90720, Note_on_c, 0, 55, 72
2, 90720, Note_on_c, 0, 64, 72
2, 90840, Note_on_c, 0, 64, 0
2, 90840, Note_on_c, 0, 55, 0
2, 91200, Note_on_c, 0, 67, 67
2, 91200, Note_on_c, 0, 71, 67
2, 91320, Note_on_c, 0, 71, 0
2, 91320, Note_on_c, 0, 67, 0
2, 91320, Note_on_c, 0, 63, 65
2, 91320, Note_on_c, 0, 66, 65
2, 91440, Note_on_c, 0, 66, 0
2, 91440, Note_on_c, 0, 63, 0
2, 91440, Note_on_c, 0, 64, 64
2, 91440, Note_on_c, 0, 67, 64
2, 91560, Note_on_c, 0, 67, 0
2, 91560, Note_on_c, 0, 64, 0
2, 91920, Note_on_c, 0, 79, 59
2, 91920, Note_on_c, 0, 83, 59
2, 92040, Note_on_c, 0, 83, 0
2, 92040, Note_on_c, 0, 79, 0
2, 92040, Note_on_c, 0, 78, 57
2, 92040, Note_on_c, 0, 81, 57
2, 92160, Note_on_c, 0, 81, 0
2, 92160, Note_on_c, 0, 78, 0
2, 92160, Note_on_c, 0, 76, 56
2, 92160, Note_on_c, 0, 79, 56
2, 92278, Note_on_c, 0, 79, 0
2, 92278, Note_on_c, 0, 76, 0
2, 92280, Note_on_c, 0, 76, 53
2, 92280, Note_on_c, 0, 88, 53
2, 92328, Note_on_c, 0, 88, 0
2, 92328, Note_on_c, 0, 76, 0
2, 92400, Note_on_c, 0, 76, 51
2, 92400, Note_on_c, 0, 88, 51
2, 92448, Note_on_c, 0, 88, 0
2, 92448, Note_on_c, 0, 76, 0
2, 92520, Note_on_c, 0, 76, 48
2, 92520, Note_on_c, 0, 88, 48
2, 92638, Note_on_c, 0, 88, 0
2, 92638, Note_on_c, 0, 76, 0
2, 92638, End_track
3, 0, Start_track
3, 0, MIDI_port, 0
3, 0, Title_t, "by F.J. Haydn (1st mvmt - presto)"
3, 0, Program_c, 1, 0
3, 0, Control_c, 1, 7, 121
3, 0, Control_c, 1, 10, 56
3, 0, Note_on_c, 1, 40, 64
3, 120, Note_on_c, 1, 40, 0
3, 120, Note_on_c, 1, 43, 64
3, 168, Note_on_c, 1, 43, 0
3, 240, Note_on_c, 1, 47, 64
3, 288, Note_on_c, 1, 47, 0
3, 360, Note_on_c, 1, 52, 64
3, 408, Note_on_c, 1, 52, 0
3, 720, Note_on_c, 1, 40, 64
3, 840, Note_on_c, 1, 40, 0
3, 840, Note_on_c, 1, 43, 64
3, 888, Note_on_c, 1, 43, 0
3, 960, Note_on_c, 1, 47, 64
3, 1008, Note_on_c, 1, 47, 0
3, 1080, Note_on_c, 1, 52, 64
3, 1128, Note_on_c, 1, 52, 0
3, 1440, Note_on_c, 1, 40, 64
3, 1560, Note_on_c, 1, 40, 0
3, 1560, Note_on_c, 1, 43, 64
3, 1608, Note_on_c, 1, 43, 0
3, 1680, Note_on_c, 1, 47, 64
3, 1728, Note_on_c, 1, 47, 0
3, 1800, Note_on_c, 1, 52, 64
3, 1848, Note_on_c, 1, 52, 0
3, 2160, Note_on_c, 1, 48, 64
3, 2280, Note_on_c, 1, 48, 0
3, 2280, Note_on_c, 1, 52, 64
3, 2328, Note_on_c, 1, 52, 0
3, 2400, Note_on_c, 1, 55, 64
3, 2448, Note_on_c, 1, 55, 0
3, 2520, Note_on_c, 1, 60, 64
3, 3000, Note_on_c, 1, 60, 0
3, 3000, Note_on_c, 1, 51, 64
3, 3048, Note_on_c, 1, 51, 0
3, 3120, Note_on_c, 1, 54, 64
3, 3168, Note_on_c, 1, 54, 0
3, 3240, Note_on_c, 1, 59, 64
3, 3600, Note_on_c, 1, 59, 0
3, 3720, Note_on_c, 1, 52, 64
3, 3768, Note_on_c, 1, 52, 0
3, 3840, Note_on_c, 1, 58, 64
3, 3888, Note_on_c, 1, 58, 0
3, 3960, Note_on_c, 1, 59, 64
3, 4008, Note_on_c, 1, 59, 0
3, 4440, Note_on_c, 1, 52, 40
3, 4488, Note_on_c, 1, 52, 0
3, 4560, Note_on_c, 1, 58, 40
3, 4608, Note_on_c, 1, 58, 0
3, 4680, Note_on_c, 1, 59, 40
3, 4728, Note_on_c, 1, 59, 0
3, 5160, Note_on_c, 1, 52, 64
3, 5278, Note_on_c, 1, 52, 0
3, 5280, Note_on_c, 1, 58, 64
3, 5398, Note_on_c, 1, 58, 0
3, 5400, Note_on_c, 1, 59, 48
3, 5688, Note_on_c, 1, 59, 0
3, 5760, Note_on_c, 1, 40, 64
3, 5878, Note_on_c, 1, 40, 0
3, 5880, Note_on_c, 1, 43, 64
3, 5928, Note_on_c, 1, 43, 0
3, 6000, Note_on_c, 1, 47, 64
3, 6048, Note_on_c, 1, 47, 0
3, 6120, Note_on_c, 1, 52, 64
3, 6168, Note_on_c, 1, 52, 0
3, 6480, Note_on_c, 1, 40, 64
3, 6598, Note_on_c, 1, 40, 0
3, 6600, Note_on_c, 1, 43, 64
3, 6648, Note_on_c, 1, 43, 0
3, 6720, Note_on_c, 1, 47, 64
3, 6768, Note_on_c, 1, 47, 0
3, 6840, Note_on_c, 1, 52, 64
3, 6888, Note_on_c, 1, 52, 0
3, 7200, Note_on_c, 1, 40, 64
3, 7318, Note_on_c, 1, 40, 0
3, 7320, Note_on_c, 1, 43, 64
3, 7368, Note_on_c, 1, 43, 0
3, 7440, Note_on_c, 1, 47, 64
3, 7488, Note_on_c, 1, 47, 0
3, 7560, Note_on_c, 1, 52, 64
3, 7608, Note_on_c, 1, 52, 0
3, 7920, Note_on_c, 1, 40, 64
3, 8038, Note_on_c, 1, 40, 0
3, 8040, Note_on_c, 1, 45, 65
3, 8088, Note_on_c, 1, 45, 0
3, 8160, Note_on_c, 1, 48, 67
3, 8208, Note_on_c, 1, 48, 0
3, 8280, Note_on_c, 1, 52, 68
3, 8328, Note_on_c, 1, 52, 0
3, 8640, Note_on_c, 1, 38, 72
3, 8758, Note_on_c, 1, 38, 0
3, 8760, Note_on_c, 1, 42, 73
3, 8808, Note_on_c, 1, 42, 0
3, 8880, Note_on_c, 1, 45, 75
3, 8928, Note_on_c, 1, 45, 0
3, 9000, Note_on_c, 1, 50, 76
3, 9048, Note_on_c, 1, 50, 0
3, 9360, Note_on_c, 1, 31, 80
3, 9360, Note_on_c, 1, 43, 80
3, 9478, Note_on_c, 1, 43, 0
3, 9478, Note_on_c, 1, 31, 0
3, 9480, Note_on_c, 1, 35, 80
3, 9480, Note_on_c, 1, 47, 80
3, 9528, Note_on_c, 1, 47, 0
3, 9528, Note_on_c, 1, 35, 0
3, 9600, Note_on_c, 1, 38, 80
3, 9600, Note_on_c, 1, 50, 80
3, 9648, Note_on_c, 1, 50, 0
3, 9648, Note_on_c, 1, 38, 0
3, 9720, Note_on_c, 1, 43, 80
3, 9720, Note_on_c, 1, 55, 80
3, 9768, Note_on_c, 1, 55, 0
3, 9768, Note_on_c, 1, 43, 0
3, 10080, Note_on_c, 1, 33, 80
3, 10080, Note_on_c, 1, 45, 80
3, 10198, Note_on_c, 1, 45, 0
3, 10198, Note_on_c, 1, 33, 0
3, 10200, Note_on_c, 1, 36, 80
3, 10200, Note_on_c, 1, 48, 80
3, 10248, Note_on_c, 1, 48, 0
3, 10248, Note_on_c, 1, 36, 0
3, 10320, Note_on_c, 1, 38, 80
3, 10320, Note_on_c, 1, 50, 80
3, 10368, Note_on_c, 1, 50, 0
3, 10368, Note_on_c, 1, 38, 0
3, 10440, Note_on_c, 1, 42, 80
3, 10440, Note_on_c, 1, 54, 80
3, 10488, Note_on_c, 1, 54, 0
3, 10488, Note_on_c, 1, 42, 0
3, 10800, Note_on_c, 1, 55, 48
3, 10920, Note_on_c, 1, 59, 48
3, 11040, Note_on_c, 1, 62, 48
3, 11160, Note_on_c, 1, 67, 48
3, 11448, Note_on_c, 1, 67, 0
3, 11448, Note_on_c, 1, 55, 0
3, 11448, Note_on_c, 1, 59, 0
3, 11448, Note_on_c, 1, 62, 0
3, 11520, Note_on_c, 1, 57, 48
3, 11640, Note_on_c, 1, 60, 48
3, 11760, Note_on_c, 1, 62, 48
3, 11880, Note_on_c, 1, 66, 48
3, 12168, Note_on_c, 1, 66, 0
3, 12168, Note_on_c, 1, 57, 0
3, 12168, Note_on_c, 1, 60, 0
3, 12168, Note_on_c, 1, 62, 0
3, 12240, Note_on_c, 1, 59, 48
3, 12360, Note_on_c, 1, 62, 52
3, 12480, Note_on_c, 1, 66, 56
3, 12576, Note_on_c, 1, 66, 0
3, 12600, Note_on_c, 1, 67, 60
3, 12888, Note_on_c, 1, 67, 0
3, 12888, Note_on_c, 1, 62, 0
3, 12888, Note_on_c, 1, 59, 0
3, 12960, Note_on_c, 1, 60, 72
3, 13080, Note_on_c, 1, 60, 0
3, 13080, Note_on_c, 1, 69, 72
3, 13200, Note_on_c, 1, 69, 0
3, 13200, Note_on_c, 1, 67, 72
3, 13320, Note_on_c, 1, 67, 0
3, 13320, Note_on_c, 1, 66, 72
3, 13440, Note_on_c, 1, 66, 0
3, 13680, Note_on_c, 1, 59, 72
3, 13800, Note_on_c, 1, 59, 0
3, 13800, Note_on_c, 1, 67, 72
3, 13920, Note_on_c, 1, 67, 0
3, 13920, Note_on_c, 1, 66, 72
3, 14040, Note_on_c, 1, 66, 0
3, 14040, Note_on_c, 1, 64, 72
3, 14160, Note_on_c, 1, 64, 0
3, 14400, Note_on_c, 1, 57, 72
3, 14520, Note_on_c, 1, 57, 0
3, 14520, Note_on_c, 1, 66, 72
3, 14640, Note_on_c, 1, 66, 0
3, 14640, Note_on_c, 1, 64, 72
3, 14760, Note_on_c, 1, 64, 0
3, 14760, Note_on_c, 1, 62, 72
3, 14880, Note_on_c, 1, 62, 0
3, 14880, Note_on_c, 1, 64, 72
3, 15000, Note_on_c, 1, 64, 0
3, 15000, Note_on_c, 1, 66, 72
3, 15120, Note_on_c, 1, 66, 0
3, 15120, Note_on_c, 1, 55, 72
3, 15178, Note_on_c, 1, 55, 0
3, 15180, Note_on_c, 1, 67, 72
3, 15238, Note_on_c, 1, 67, 0
3, 15240, Note_on_c, 1, 57, 72
3, 15298, Note_on_c, 1, 57, 0
3, 15300, Note_on_c, 1, 67, 72
3, 15358, Note_on_c, 1, 67, 0
3, 15360, Note_on_c, 1, 59, 72
3, 15418, Note_on_c, 1, 59, 0
3, 15420, Note_on_c, 1, 67, 72
3, 15478, Note_on_c, 1, 67, 0
3, 15480, Note_on_c, 1, 60, 72
3, 15538, Note_on_c, 1, 60, 0
3, 15540, Note_on_c, 1, 67, 72
3, 15598, Note_on_c, 1, 67, 0
3, 15600, Note_on_c, 1, 60, 72
3, 15658, Note_on_c, 1, 60, 0
3, 15660, Note_on_c, 1, 67, 72
3, 15718, Note_on_c, 1, 67, 0
3, 15720, Note_on_c, 1, 60, 72
3, 15778, Note_on_c, 1, 60, 0
3, 15780, Note_on_c, 1, 67, 72
3, 15838, Note_on_c, 1, 67, 0
3, 15840, Note_on_c, 1, 55, 48
3, 15898, Note_on_c, 1, 55, 0
3, 15900, Note_on_c, 1, 67, 48
3, 15958, Note_on_c, 1, 67, 0
3, 15960, Note_on_c, 1, 57, 48
3, 16018, Note_on_c, 1, 57, 0
3, 16020, Note_on_c, 1, 67, 48
3, 16078, Note_on_c, 1, 67, 0
3, 16080, Note_on_c, 1, 59, 48
3, 16138, Note_on_c, 1, 59, 0
3, 16140, Note_on_c, 1, 67, 48
3, 16198, Note_on_c, 1, 67, 0
3, 16200, Note_on_c, 1, 60, 48
3, 16258, Note_on_c, 1, 60, 0
3, 16260, Note_on_c, 1, 67, 48
3, 16318, Note_on_c, 1, 67, 0
3, 16320, Note_on_c, 1, 60, 48
3, 16378, Note_on_c, 1, 60, 0
3, 16380, Note_on_c, 1, 67, 48
3, 16438, Note_on_c, 1, 67, 0
3, 16440, Note_on_c, 1, 60, 48
3, 16497, Note_on_c, 1, 60, 0
3, 16500, Note_on_c, 1, 67, 48
3, 16548, Note_on_c, 1, 67, 0
3, 16560, Note_on_c, 1, 55, 56
3, 16618, Note_on_c, 1, 55, 0
3, 16620, Note_on_c, 1, 67, 58
3, 16678, Note_on_c, 1, 67, 0
3, 16680, Note_on_c, 1, 57, 60
3, 16738, Note_on_c, 1, 57, 0
3, 16740, Note_on_c, 1, 67, 62
3, 16798, Note_on_c, 1, 67, 0
3, 16800, Note_on_c, 1, 59, 64
3, 16858, Note_on_c, 1, 59, 0
3, 16860, Note_on_c, 1, 67, 66
3, 16918, Note_on_c, 1, 67, 0
3, 16920, Note_on_c, 1, 60, 68
3, 16978, Note_on_c, 1, 60, 0
3, 16980, Note_on_c, 1, 67, 70
3, 17038, Note_on_c, 1, 67, 0
3, 17040, Note_on_c, 1, 60, 72
3, 17098, Note_on_c, 1, 60, 0
3, 17100, Note_on_c, 1, 67, 74
3, 17158, Note_on_c, 1, 67, 0
3, 17160, Note_on_c, 1, 60, 76
3, 17218, Note_on_c, 1, 60, 0
3, 17220, Note_on_c, 1, 67, 78
3, 17278, Note_on_c, 1, 67, 0
3, 17280, Note_on_c, 1, 61, 80
3, 17338, Note_on_c, 1, 61, 0
3, 17340, Note_on_c, 1, 70, 80
3, 17398, Note_on_c, 1, 70, 0
3, 17400, Note_on_c, 1, 61, 80
3, 17458, Note_on_c, 1, 61, 0
3, 17460, Note_on_c, 1, 70, 80
3, 17518, Note_on_c, 1, 70, 0
3, 17520, Note_on_c, 1, 61, 80
3, 17578, Note_on_c, 1, 61, 0
3, 17580, Note_on_c, 1, 70, 80
3, 17638, Note_on_c, 1, 70, 0
3, 17640, Note_on_c, 1, 62, 80
3, 17698, Note_on_c, 1, 62, 0
3, 17700, Note_on_c, 1, 69, 80
3, 17758, Note_on_c, 1, 69, 0
3, 17760, Note_on_c, 1, 62, 80
3, 17818, Note_on_c, 1, 62, 0
3, 17820, Note_on_c, 1, 69, 80
3, 17878, Note_on_c, 1, 69, 0
3, 17880, Note_on_c, 1, 62, 80
3, 17938, Note_on_c, 1, 62, 0
3, 17940, Note_on_c, 1, 69, 80
3, 17998, Note_on_c, 1, 69, 0
3, 18000, Note_on_c, 1, 64, 80
3, 18058, Note_on_c, 1, 64, 0
3, 18060, Note_on_c, 1, 67, 80
3, 18118, Note_on_c, 1, 67, 0
3, 18120, Note_on_c, 1, 64, 80
3, 18178, Note_on_c, 1, 64, 0
3, 18180, Note_on_c, 1, 67, 80
3, 18238, Note_on_c, 1, 67, 0
3, 18240, Note_on_c, 1, 64, 80
3, 18298, Note_on_c, 1, 64, 0
3, 18300, Note_on_c, 1, 67, 80
3, 18358, Note_on_c, 1, 67, 0
3, 18360, Note_on_c, 1, 66, 80
3, 18478, Note_on_c, 1, 66, 0
3, 18780, Note_on_c, 1, 62, 80
3, 18838, Note_on_c, 1, 62, 0
3, 18840, Note_on_c, 1, 64, 80
3, 18898, Note_on_c, 1, 64, 0
3, 18900, Note_on_c, 1, 66, 80
3, 18958, Note_on_c, 1, 66, 0
3, 18960, Note_on_c, 1, 67, 80
3, 19018, Note_on_c, 1, 67, 0
3, 19020, Note_on_c, 1, 69, 80
3, 19078, Note_on_c, 1, 69, 0
3, 19080, Note_on_c, 1, 71, 80
3, 19138, Note_on_c, 1, 71, 0
3, 19140, Note_on_c, 1, 69, 80
3, 19198, Note_on_c, 1, 69, 0
3, 19200, Note_on_c, 1, 67, 80
3, 19258, Note_on_c, 1, 67, 0
3, 19260, Note_on_c, 1, 69, 80
3, 19318, Note_on_c, 1, 69, 0
3, 19320, Note_on_c, 1, 71, 80
3, 19378, Note_on_c, 1, 71, 0
3, 19380, Note_on_c, 1, 73, 80
3, 19438, Note_on_c, 1, 73, 0
3, 19440, Note_on_c, 1, 74, 80
3, 19558, Note_on_c, 1, 74, 0
3, 19560, Note_on_c, 1, 69, 83
3, 19608, Note_on_c, 1, 69, 0
3, 19680, Note_on_c, 1, 66, 85
3, 19728, Note_on_c, 1, 66, 0
3, 19800, Note_on_c, 1, 62, 88
3, 19848, Note_on_c, 1, 62, 0
3, 19920, Note_on_c, 1, 57, 91
3, 19968, Note_on_c, 1, 57, 0
3, 20040, Note_on_c, 1, 54, 93
3, 20088, Note_on_c, 1, 54, 0
3, 20160, Note_on_c, 1, 50, 96
3, 20736, Note_on_c, 1, 50, 0
3, 20880, Note_on_c, 1, 31, 48
3, 20880, Note_on_c, 1, 43, 48
3, 21120, Note_on_c, 1, 43, 0
3, 21120, Note_on_c, 1, 31, 0
3, 21480, Note_on_c, 1, 59, 48
3, 21480, Note_on_c, 1, 55, 48
3, 21528, Note_on_c, 1, 55, 0
3, 21528, Note_on_c, 1, 59, 0
3, 21600, Note_on_c, 1, 57, 48
3, 21600, Note_on_c, 1, 60, 48
3, 21840, Note_on_c, 1, 60, 0
3, 21840, Note_on_c, 1, 57, 0
3, 22080, Note_on_c, 1, 66, 48
3, 22080, Note_on_c, 1, 62, 48
3, 22128, Note_on_c, 1, 62, 0
3, 22128, Note_on_c, 1, 66, 0
3, 22200, Note_on_c, 1, 69, 48
3, 22200, Note_on_c, 1, 66, 48
3, 22248, Note_on_c, 1, 66, 0
3, 22248, Note_on_c, 1, 69, 0
3, 22320, Note_on_c, 1, 67, 48
3, 22320, Note_on_c, 1, 71, 48
3, 22560, Note_on_c, 1, 71, 0
3, 22560, Note_on_c, 1, 67, 0
3, 22560, Note_on_c, 1, 71, 48
3, 22680, Note_on_c, 1, 71, 0
3, 22680, Note_on_c, 1, 72, 48
3, 22800, Note_on_c, 1, 72, 0
3, 22800, Note_on_c, 1, 71, 48
3, 22920, Note_on_c, 1, 71, 0
3, 22920, Note_on_c, 1, 69, 48
3, 23040, Note_on_c, 1, 69, 0
3, 23040, Note_on_c, 1, 67, 48
3, 23160, Note_on_c, 1, 67, 0
3, 23160, Note_on_c, 1, 66, 48
3, 23280, Note_on_c, 1, 66, 0
3, 23280, Note_on_c, 1, 67, 48
3, 23400, Note_on_c, 1, 67, 0
3, 23400, Note_on_c, 1, 72, 48
3, 23448, Note_on_c, 1, 72, 0
3, 23520, Note_on_c, 1, 71, 48
3, 23568, Note_on_c, 1, 71, 0
3, 23640, Note_on_c, 1, 69, 48
3, 23688, Note_on_c, 1, 69, 0
3, 23760, Note_on_c, 1, 62, 48
3, 23760, Note_on_c, 1, 71, 48
3, 24120, Note_on_c, 1, 71, 0
3, 24120, Note_on_c, 1, 62, 0
3, 24120, Note_on_c, 1, 69, 48
3, 24480, Note_on_c, 1, 69, 0
3, 24480, Note_on_c, 1, 67, 48
3, 24600, Note_on_c, 1, 67, 0
3, 25200, Note_on_c, 1, 31, 80
3, 25200, Note_on_c, 1, 43, 80
3, 25438, Note_on_c, 1, 43, 0
3, 25438, Note_on_c, 1, 31, 0
3, 25800, Note_on_c, 1, 55, 80
3, 25800, Note_on_c, 1, 59, 80
3, 25848, Note_on_c, 1, 59, 0
3, 25848, Note_on_c, 1, 55, 0
3, 25920, Note_on_c, 1, 57, 80
3, 25920, Note_on_c, 1, 60, 80
3, 26158, Note_on_c, 1, 60, 0
3, 26158, Note_on_c, 1, 57, 0
3, 26400, Note_on_c, 1, 62, 80
3, 26400, Note_on_c, 1, 66, 80
3, 26448, Note_on_c, 1, 66, 0
3, 26448, Note_on_c, 1, 62, 0
3, 26520, Note_on_c, 1, 66, 80
3, 26520, Note_on_c, 1, 69, 80
3, 26568, Note_on_c, 1, 69, 0
3, 26568, Note_on_c, 1, 66, 0
3, 26640, Note_on_c, 1, 67, 80
3, 26640, Note_on_c, 1, 71, 80
3, 26880, Note_on_c, 1, 71, 0
3, 26880, Note_on_c, 1, 67, 0
3, 26880, Note_on_c, 1, 71, 80
3, 27000, Note_on_c, 1, 71, 0
3, 27000, Note_on_c, 1, 72, 80
3, 27120, Note_on_c, 1, 72, 0
3, 27120, Note_on_c, 1, 71, 80
3, 27240, Note_on_c, 1, 71, 0
3, 27240, Note_on_c, 1, 69, 80
3, 27360, Note_on_c, 1, 69, 0
3, 27360, Note_on_c, 1, 67, 80
3, 27480, Note_on_c, 1, 67, 0
3, 27480, Note_on_c, 1, 66, 80
3, 27600, Note_on_c, 1, 66, 0
3, 27600, Note_on_c, 1, 67, 80
3, 27720, Note_on_c, 1, 67, 0
3, 27720, Note_on_c, 1, 64, 80
3, 27840, Note_on_c, 1, 64, 0
3, 27840, Note_on_c, 1, 66, 80
3, 27960, Note_on_c, 1, 66, 0
3, 27960, Note_on_c, 1, 63, 80
3, 28080, Note_on_c, 1, 63, 0
3, 28080, Note_on_c, 1, 64, 85
3, 28200, Note_on_c, 1, 64, 0
3, 28200, Note_on_c, 1, 60, 85
3, 28320, Note_on_c, 1, 60, 0
3, 28320, Note_on_c, 1, 61, 85
3, 28440, Note_on_c, 1, 61, 0
3, 28440, Note_on_c, 1, 62, 85
3, 28488, Note_on_c, 1, 62, 0
3, 28560, Note_on_c, 1, 63, 85
3, 28608, Note_on_c, 1, 63, 0
3, 28680, Note_on_c, 1, 64, 85
3, 28728, Note_on_c, 1, 64, 0
3, 28800, Note_on_c, 1, 62, 85
3, 28800, Note_on_c, 1, 71, 85
3, 29160, Note_on_c, 1, 71, 0
3, 29160, Note_on_c, 1, 62, 0
3, 29160, Note_on_c, 1, 69, 85
3, 29518, Note_on_c, 1, 69, 0
3, 29520, Note_on_c, 1, 55, 85
3, 29520, Note_on_c, 1, 67, 85
3, 29712, Note_on_c, 1, 67, 0
3, 29712, Note_on_c, 1, 55, 0
3, 29760, Note_on_c, 1, 62, 85
3, 29760, Note_on_c, 1, 66, 85
3, 29808, Note_on_c, 1, 66, 0
3, 29808, Note_on_c, 1, 62, 0
3, 29880, Note_on_c, 1, 55, 85
3, 29880, Note_on_c, 1, 67, 85
3, 30072, Note_on_c, 1, 67, 0
3, 30072, Note_on_c, 1, 55, 0
3, 30120, Note_on_c, 1, 62, 85
3, 30120, Note_on_c, 1, 66, 85
3, 30168, Note_on_c, 1, 66, 0
3, 30168, Note_on_c, 1, 62, 0
3, 30240, Note_on_c, 1, 55, 85
3, 30240, Note_on_c, 1, 67, 85
3, 30432, Note_on_c, 1, 67, 0
3, 30432, Note_on_c, 1, 55, 0
3, 30480, Note_on_c, 1, 62, 85
3, 30480, Note_on_c, 1, 66, 85
3, 30528, Note_on_c, 1, 66, 0
3, 30528, Note_on_c, 1, 62, 0
3, 30600, Note_on_c, 1, 55, 85
3, 30600, Note_on_c, 1, 67, 85
3, 30792, Note_on_c, 1, 67, 0
3, 30792, Note_on_c, 1, 55, 0
3, 30840, Note_on_c, 1, 62, 85
3, 30840, Note_on_c, 1, 66, 85
3, 30888, Note_on_c, 1, 66, 0
3, 30888, Note_on_c, 1, 62, 0
3, 30960, Note_on_c, 1, 55, 80
3, 30960, Note_on_c, 1, 67, 80
3, 31152, Note_on_c, 1, 67, 0
3, 31152, Note_on_c, 1, 55, 0
3, 31200, Note_on_c, 1, 62, 69
3, 31200, Note_on_c, 1, 66, 69
3, 31248, Note_on_c, 1, 66, 0
3, 31248, Note_on_c, 1, 62, 0
3, 31320, Note_on_c, 1, 55, 64
3, 31320, Note_on_c, 1, 67, 64
3, 31512, Note_on_c, 1, 67, 0
3, 31512, Note_on_c, 1, 55, 0
3, 31560, Note_on_c, 1, 62, 53
3, 31560, Note_on_c, 1, 66, 53
3, 31608, Note_on_c, 1, 66, 0
3, 31608, Note_on_c, 1, 62, 0
3, 31680, Note_on_c, 1, 55, 48
3, 31680, Note_on_c, 1, 67, 48
3, 31918, Note_on_c, 1, 67, 0
3, 31918, Note_on_c, 1, 55, 0
3, 32400, Note_on_c, 1, 40, 64
3, 32518, Note_on_c, 1, 40, 0
3, 32520, Note_on_c, 1, 44, 64
3, 32568, Note_on_c, 1, 44, 0
3, 32640, Note_on_c, 1, 47, 64
3, 32688, Note_on_c, 1, 47, 0
3, 32760, Note_on_c, 1, 52, 64
3, 32868, Note_on_c, 1, 52, 0
3, 33120, Note_on_c, 1, 40, 64
3, 33238, Note_on_c, 1, 40, 0
3, 33240, Note_on_c, 1, 45, 64
3, 33288, Note_on_c, 1, 45, 0
3, 33360, Note_on_c, 1, 48, 64
3, 33408, Note_on_c, 1, 48, 0
3, 33480, Note_on_c, 1, 52, 64
3, 33588, Note_on_c, 1, 52, 0
3, 33840, Note_on_c, 1, 40, 64
3, 33958, Note_on_c, 1, 40, 0
3, 33960, Note_on_c, 1, 44, 64
3, 34008, Note_on_c, 1, 44, 0
3, 34080, Note_on_c, 1, 47, 64
3, 34128, Note_on_c, 1, 47, 0
3, 34200, Note_on_c, 1, 52, 64
3, 34318, Note_on_c, 1, 52, 0
3, 34560, Note_on_c, 1, 40, 64
3, 34678, Note_on_c, 1, 40, 0
3, 34680, Note_on_c, 1, 45, 64
3, 34728, Note_on_c, 1, 45, 0
3, 34800, Note_on_c, 1, 48, 64
3, 34848, Note_on_c, 1, 48, 0
3, 34920, Note_on_c, 1, 52, 64
3, 35038, Note_on_c, 1, 52, 0
3, 35280, Note_on_c, 1, 40, 64
3, 35398, Note_on_c, 1, 40, 0
3, 35400, Note_on_c, 1, 44, 64
3, 35448, Note_on_c, 1, 44, 0
3, 35520, Note_on_c, 1, 47, 64
3, 35568, Note_on_c, 1, 47, 0
3, 35640, Note_on_c, 1, 52, 64
3, 35928, Note_on_c, 1, 52, 0
3, 36720, Note_on_c, 1, 36, 85
3, 36720, Note_on_c, 1, 48, 85
3, 36838, Note_on_c, 1, 48, 0
3, 36838, Note_on_c, 1, 36, 0
3, 36840, Note_on_c, 1, 40, 85
3, 36840, Note_on_c, 1, 52, 85
3, 36888, Note_on_c, 1, 52, 0
3, 36888, Note_on_c, 1, 40, 0
3, 36960, Note_on_c, 1, 43, 85
3, 36960, Note_on_c, 1, 55, 85
3, 37008, Note_on_c, 1, 55, 0
3, 37008, Note_on_c, 1, 43, 0
3, 37080, Note_on_c, 1, 48, 85
3, 37080, Note_on_c, 1, 60, 85
3, 37318, Note_on_c, 1, 60, 0
3, 37318, Note_on_c, 1, 48, 0
3, 37440, Note_on_c, 1, 38, 85
3, 37440, Note_on_c, 1, 50, 85
3, 37558, Note_on_c, 1, 50, 0
3, 37558, Note_on_c, 1, 38, 0
3, 37560, Note_on_c, 1, 41, 85
3, 37560, Note_on_c, 1, 53, 85
3, 37608, Note_on_c, 1, 53, 0
3, 37608, Note_on_c, 1, 41, 0
3, 37680, Note_on_c, 1, 43, 85
3, 37680, Note_on_c, 1, 55, 85
3, 37728, Note_on_c, 1, 55, 0
3, 37728, Note_on_c, 1, 43, 0
3, 37800, Note_on_c, 1, 47, 85
3, 37800, Note_on_c, 1, 59, 85
3, 38038, Note_on_c, 1, 59, 0
3, 38038, Note_on_c, 1, 47, 0
3, 38160, Note_on_c, 1, 48, 48
3, 38280, Note_on_c, 1, 52, 48
3, 38400, Note_on_c, 1, 55, 48
3, 38520, Note_on_c, 1, 60, 48
3, 38808, Note_on_c, 1, 60, 0
3, 38808, Note_on_c, 1, 48, 0
3, 38808, Note_on_c, 1, 52, 0
3, 38808, Note_on_c, 1, 55, 0
3, 38880, Note_on_c, 1, 50, 48
3, 39000, Note_on_c, 1, 53, 48
3, 39120, Note_on_c, 1, 55, 48
3, 39240, Note_on_c, 1, 59, 48
3, 39528, Note_on_c, 1, 59, 0
3, 39528, Note_on_c, 1, 50, 0
3, 39528, Note_on_c, 1, 53, 0
3, 39528, Note_on_c, 1, 55, 0
3, 39600, Note_on_c, 1, 52, 48
3, 39720, Note_on_c, 1, 55, 48
3, 39840, Note_on_c, 1, 58, 48
3, 39960, Note_on_c, 1, 61, 48
3, 40248, Note_on_c, 1, 61, 0
3, 40248, Note_on_c, 1, 52, 0
3, 40248, Note_on_c, 1, 55, 0
3, 40248, Note_on_c, 1, 58, 0
3, 40320, Note_on_c, 1, 53, 48
3, 40440, Note_on_c, 1, 57, 48
3, 40560, Note_on_c, 1, 61, 48
3, 40656, Note_on_c, 1, 61, 0
3, 40680, Note_on_c, 1, 62, 48
3, 40968, Note_on_c, 1, 62, 0
3, 40968, Note_on_c, 1, 57, 0
3, 40968, Note_on_c, 1, 53, 0
3, 41040, Note_on_c, 1, 52, 48
3, 41160, Note_on_c, 1, 55, 48
3, 41280, Note_on_c, 1, 58, 48
3, 41400, Note_on_c, 1, 61, 48
3, 41688, Note_on_c, 1, 61, 0
3, 41688, Note_on_c, 1, 52, 0
3, 41688, Note_on_c, 1, 55, 0
3, 41688, Note_on_c, 1, 58, 0
3, 41760, Note_on_c, 1, 54, 48
3, 41880, Note_on_c, 1, 57, 48
3, 42000, Note_on_c, 1, 60, 48
3, 42120, Note_on_c, 1, 63, 48
3, 42408, Note_on_c, 1, 63, 0
3, 42408, Note_on_c, 1, 54, 0
3, 42408, Note_on_c, 1, 57, 0
3, 42408, Note_on_c, 1, 60, 0
3, 42480, Note_on_c, 1, 55, 48
3, 42600, Note_on_c, 1, 59, 48
3, 42720, Note_on_c, 1, 63, 48
3, 42816, Note_on_c, 1, 63, 0
3, 42840, Note_on_c, 1, 64, 48
3, 43128, Note_on_c, 1, 64, 0
3, 43128, Note_on_c, 1, 59, 0
3, 43128, Note_on_c, 1, 55, 0
3, 43200, Note_on_c, 1, 54, 48
3, 43320, Note_on_c, 1, 58, 48
3, 43440, Note_on_c, 1, 61, 48
3, 43560, Note_on_c, 1, 64, 48
3, 43848, Note_on_c, 1, 64, 0
3, 43848, Note_on_c, 1, 54, 0
3, 43848, Note_on_c, 1, 58, 0
3, 43848, Note_on_c, 1, 61, 0
3, 43920, Note_on_c, 1, 59, 48
3, 44040, Note_on_c, 1, 62, 48
3, 44160, Note_on_c, 1, 66, 48
3, 44280, Note_on_c, 1, 71, 48
3, 44568, Note_on_c, 1, 71, 0
3, 44568, Note_on_c, 1, 59, 0
3, 44568, Note_on_c, 1, 62, 0
3, 44568, Note_on_c, 1, 66, 0
3, 44640, Note_on_c, 1, 61, 48
3, 44760, Note_on_c, 1, 64, 48
3, 44880, Note_on_c, 1, 67, 48
3, 45000, Note_on_c, 1, 70, 48
3, 45288, Note_on_c, 1, 70, 0
3, 45288, Note_on_c, 1, 61, 0
3, 45288, Note_on_c, 1, 64, 0
3, 45288, Note_on_c, 1, 67, 0
3, 45360, Note_on_c, 1, 62, 48
3, 45480, Note_on_c, 1, 66, 48
3, 45600, Note_on_c, 1, 70, 48
3, 45696, Note_on_c, 1, 70, 0
3, 45720, Note_on_c, 1, 71, 48
3, 46008, Note_on_c, 1, 71, 0
3, 46008, Note_on_c, 1, 66, 0
3, 46008, Note_on_c, 1, 62, 0
3, 46080, Note_on_c, 1, 64, 80
3, 46198, Note_on_c, 1, 64, 0
3, 46200, Note_on_c, 1, 62, 80
3, 46248, Note_on_c, 1, 62, 0
3, 46320, Note_on_c, 1, 61, 80
3, 46368, Note_on_c, 1, 61, 0
3, 46440, Note_on_c, 1, 59, 80
3, 46678, Note_on_c, 1, 59, 0
3, 46800, Note_on_c, 1, 67, 80
3, 46918, Note_on_c, 1, 67, 0
3, 46920, Note_on_c, 1, 66, 80
3, 46968, Note_on_c, 1, 66, 0
3, 47040, Note_on_c, 1, 64, 80
3, 47088, Note_on_c, 1, 64, 0
3, 47160, Note_on_c, 1, 62, 80
3, 47398, Note_on_c, 1, 62, 0
3, 47520, Note_on_c, 1, 76, 80
3, 47638, Note_on_c, 1, 76, 0
3, 47640, Note_on_c, 1, 74, 80
3, 47688, Note_on_c, 1, 74, 0
3, 47760, Note_on_c, 1, 73, 80
3, 47808, Note_on_c, 1, 73, 0
3, 47880, Note_on_c, 1, 71, 80
3, 48118, Note_on_c, 1, 71, 0
3, 48240, Note_on_c, 1, 67, 80
3, 48358, Note_on_c, 1, 67, 0
3, 48360, Note_on_c, 1, 66, 80
3, 48408, Note_on_c, 1, 66, 0
3, 48480, Note_on_c, 1, 64, 80
3, 48528, Note_on_c, 1, 64, 0
3, 48600, Note_on_c, 1, 62, 80
3, 48658, Note_on_c, 1, 62, 0
3, 48660, Note_on_c, 1, 66, 80
3, 48718, Note_on_c, 1, 66, 0
3, 48720, Note_on_c, 1, 62, 80
3, 48778, Note_on_c, 1, 62, 0
3, 48780, Note_on_c, 1, 66, 80
3, 48838, Note_on_c, 1, 66, 0
3, 48840, Note_on_c, 1, 62, 80
3, 48898, Note_on_c, 1, 62, 0
3, 48900, Note_on_c, 1, 66, 80
3, 48958, Note_on_c, 1, 66, 0
3, 48960, Note_on_c, 1, 64, 80
3, 49018, Note_on_c, 1, 64, 0
3, 49020, Note_on_c, 1, 67, 80
3, 49078, Note_on_c, 1, 67, 0
3, 49080, Note_on_c, 1, 64, 80
3, 49138, Note_on_c, 1, 64, 0
3, 49140, Note_on_c, 1, 67, 80
3, 49198, Note_on_c, 1, 67, 0
3, 49200, Note_on_c, 1, 64, 80
3, 49258, Note_on_c, 1, 64, 0
3, 49260, Note_on_c, 1, 67, 80
3, 49318, Note_on_c, 1, 67, 0
3, 49320, Note_on_c, 1, 66, 80
3, 49378, Note_on_c, 1, 66, 0
3, 49380, Note_on_c, 1, 70, 80
3, 49438, Note_on_c, 1, 70, 0
3, 49440, Note_on_c, 1, 66, 80
3, 49498, Note_on_c, 1, 66, 0
3, 49500, Note_on_c, 1, 70, 80
3, 49558, Note_on_c, 1, 70, 0
3, 49560, Note_on_c, 1, 66, 80
3, 49618, Note_on_c, 1, 66, 0
3, 49620, Note_on_c, 1, 70, 80
3, 49678, Note_on_c, 1, 70, 0
3, 49680, Note_on_c, 1, 67, 80
3, 49738, Note_on_c, 1, 67, 0
3, 49740, Note_on_c, 1, 71, 80
3, 49798, Note_on_c, 1, 71, 0
3, 49800, Note_on_c, 1, 67, 80
3, 49858, Note_on_c, 1, 67, 0
3, 49860, Note_on_c, 1, 71, 80
3, 49918, Note_on_c, 1, 71, 0
3, 49920, Note_on_c, 1, 67, 80
3, 49978, Note_on_c, 1, 67, 0
3, 49980, Note_on_c, 1, 71, 80
3, 50038, Note_on_c, 1, 71, 0
3, 50040, Note_on_c, 1, 62, 80
3, 50098, Note_on_c, 1, 62, 0
3, 50100, Note_on_c, 1, 66, 80
3, 50158, Note_on_c, 1, 66, 0
3, 50160, Note_on_c, 1, 62, 80
3, 50218, Note_on_c, 1, 62, 0
3, 50220, Note_on_c, 1, 66, 80
3, 50278, Note_on_c, 1, 66, 0
3, 50280, Note_on_c, 1, 62, 80
3, 50338, Note_on_c, 1, 62, 0
3, 50340, Note_on_c, 1, 66, 80
3, 50398, Note_on_c, 1, 66, 0
3, 50400, Note_on_c, 1, 64, 80
3, 50448, Note_on_c, 1, 64, 0
3, 50460, Note_on_c, 1, 67, 80
3, 50508, Note_on_c, 1, 67, 0
3, 50520, Note_on_c, 1, 64, 80
3, 50568, Note_on_c, 1, 64, 0
3, 50580, Note_on_c, 1, 67, 80
3, 50628, Note_on_c, 1, 67, 0
3, 50640, Note_on_c, 1, 64, 80
3, 50688, Note_on_c, 1, 64, 0
3, 50700, Note_on_c, 1, 67, 80
3, 50748, Note_on_c, 1, 67, 0
3, 50760, Note_on_c, 1, 66, 80
3, 50856, Note_on_c, 1, 66, 0
3, 51120, Note_on_c, 1, 59, 80
3, 51358, Note_on_c, 1, 59, 0
3, 51600, Note_on_c, 1, 62, 80
3, 51600, Note_on_c, 1, 66, 80
3, 51720, Note_on_c, 1, 66, 0
3, 51720, Note_on_c, 1, 62, 0
3, 51720, Note_on_c, 1, 61, 80
3, 51720, Note_on_c, 1, 64, 80
3, 51840, Note_on_c, 1, 64, 0
3, 51840, Note_on_c, 1, 61, 0
3, 51840, Note_on_c, 1, 59, 80
3, 51840, Note_on_c, 1, 62, 80
3, 51960, Note_on_c, 1, 62, 0
3, 51960, Note_on_c, 1, 59, 0
3, 52320, Note_on_c, 1, 59, 80
3, 52320, Note_on_c, 1, 62, 80
3, 52440, Note_on_c, 1, 62, 0
3, 52440, Note_on_c, 1, 59, 0
3, 52440, Note_on_c, 1, 57, 80
3, 52440, Note_on_c, 1, 60, 80
3, 52560, Note_on_c, 1, 60, 0
3, 52560, Note_on_c, 1, 57, 0
3, 52560, Note_on_c, 1, 55, 80
3, 52560, Note_on_c, 1, 59, 80
3, 52680, Note_on_c, 1, 59, 0
3, 52680, Note_on_c, 1, 55, 0
3, 53040, Note_on_c, 1, 55, 80
3, 53040, Note_on_c, 1, 59, 80
3, 53160, Note_on_c, 1, 59, 0
3, 53160, Note_on_c, 1, 55, 0
3, 53160, Note_on_c, 1, 54, 80
3, 53160, Note_on_c, 1, 57, 80
3, 53280, Note_on_c, 1, 57, 0
3, 53280, Note_on_c, 1, 54, 0
3, 53280, Note_on_c, 1, 52, 80
3, 53280, Note_on_c, 1, 55, 80
3, 53400, Note_on_c, 1, 55, 0
3, 53400, Note_on_c, 1, 52, 0
3, 53760, Note_on_c, 1, 52, 80
3, 53760, Note_on_c, 1, 55, 80
3, 53880, Note_on_c, 1, 55, 0
3, 53880, Note_on_c, 1, 52, 0
3, 53880, Note_on_c, 1, 50, 80
3, 53880, Note_on_c, 1, 53, 80
3, 54000, Note_on_c, 1, 53, 0
3, 54000, Note_on_c, 1, 50, 0
3, 54000, Note_on_c, 1, 48, 80
3, 54000, Note_on_c, 1, 52, 80
3, 54120, Note_on_c, 1, 52, 0
3, 54120, Note_on_c, 1, 48, 0
3, 54480, Note_on_c, 1, 48, 80
3, 54480, Note_on_c, 1, 52, 80
3, 54600, Note_on_c, 1, 52, 0
3, 54600, Note_on_c, 1, 48, 0
3, 54600, Note_on_c, 1, 47, 80
3, 54600, Note_on_c, 1, 50, 80
3, 54720, Note_on_c, 1, 50, 0
3, 54720, Note_on_c, 1, 47, 0
3, 54720, Note_on_c, 1, 45, 80
3, 54720, Note_on_c, 1, 48, 80
3, 54840, Note_on_c, 1, 48, 0
3, 54840, Note_on_c, 1, 45, 0
3, 55200, Note_on_c, 1, 45, 80
3, 55200, Note_on_c, 1, 48, 80
3, 55320, Note_on_c, 1, 48, 0
3, 55320, Note_on_c, 1, 45, 0
3, 55320, Note_on_c, 1, 43, 80
3, 55320, Note_on_c, 1, 47, 80
3, 55440, Note_on_c, 1, 47, 0
3, 55440, Note_on_c, 1, 43, 0
3, 55440, Note_on_c, 1, 42, 80
3, 55440, Note_on_c, 1, 45, 80
3, 55560, Note_on_c, 1, 45, 0
3, 55560, Note_on_c, 1, 42, 0
3, 55920, Note_on_c, 1, 42, 91
3, 55920, Note_on_c, 1, 45, 91
3, 56040, Note_on_c, 1, 45, 0
3, 56040, Note_on_c, 1, 42, 0
3, 56040, Note_on_c, 1, 40, 93
3, 56040, Note_on_c, 1, 43, 93
3, 56160, Note_on_c, 1, 43, 0
3, 56160, Note_on_c, 1, 40, 0
3, 56160, Note_on_c, 1, 39, 96
3, 56160, Note_on_c, 1, 42, 96
3, 56878, Note_on_c, 1, 42, 0
3, 56878, Note_on_c, 1, 39, 0
3, 57600, Note_on_c, 1, 40, 64
3, 57718, Note_on_c, 1, 40, 0
3, 57720, Note_on_c, 1, 43, 64
3, 57768, Note_on_c, 1, 43, 0
3, 57840, Note_on_c, 1, 47, 64
3, 57888, Note_on_c, 1, 47, 0
3, 57960, Note_on_c, 1, 52, 64
3, 58078, Note_on_c, 1, 52, 0
3, 58320, Note_on_c, 1, 40, 64
3, 58440, Note_on_c, 1, 40, 0
3, 58440, Note_on_c, 1, 43, 64
3, 58488, Note_on_c, 1, 43, 0
3, 58560, Note_on_c, 1, 47, 64
3, 58608, Note_on_c, 1, 47, 0
3, 58680, Note_on_c, 1, 52, 64
3, 58728, Note_on_c, 1, 52, 0
3, 59040, Note_on_c, 1, 52, 48
3, 59160, Note_on_c, 1, 55, 48
3, 59280, Note_on_c, 1, 59, 48
3, 59400, Note_on_c, 1, 64, 48
3, 59688, Note_on_c, 1, 64, 0
3, 59688, Note_on_c, 1, 52, 0
3, 59688, Note_on_c, 1, 55, 0
3, 59688, Note_on_c, 1, 59, 0
3, 59760, Note_on_c, 1, 54, 48
3, 59880, Note_on_c, 1, 57, 48
3, 60000, Note_on_c, 1, 60, 48
3, 60120, Note_on_c, 1, 63, 48
3, 60408, Note_on_c, 1, 63, 0
3, 60408, Note_on_c, 1, 54, 0
3, 60408, Note_on_c, 1, 57, 0
3, 60408, Note_on_c, 1, 60, 0
3, 60480, Note_on_c, 1, 55, 48
3, 60600, Note_on_c, 1, 59, 48
3, 60720, Note_on_c, 1, 63, 48
3, 60816, Note_on_c, 1, 63, 0
3, 60840, Note_on_c, 1, 64, 48
3, 61128, Note_on_c, 1, 64, 0
3, 61128, Note_on_c, 1, 59, 0
3, 61128, Note_on_c, 1, 55, 0
3, 61200, Note_on_c, 1, 57, 80
3, 61318, Note_on_c, 1, 57, 0
3, 61320, Note_on_c, 1, 66, 80
3, 61368, Note_on_c, 1, 66, 0
3, 61440, Note_on_c, 1, 64, 80
3, 61488, Note_on_c, 1, 64, 0
3, 61560, Note_on_c, 1, 62, 80
3, 61798, Note_on_c, 1, 62, 0
3, 61920, Note_on_c, 1, 55, 80
3, 62038, Note_on_c, 1, 55, 0
3, 62040, Note_on_c, 1, 64, 80
3, 62088, Note_on_c, 1, 64, 0
3, 62160, Note_on_c, 1, 62, 80
3, 62208, Note_on_c, 1, 62, 0
3, 62280, Note_on_c, 1, 60, 80
3, 62518, Note_on_c, 1, 60, 0
3, 62640, Note_on_c, 1, 54, 80
3, 62758, Note_on_c, 1, 54, 0
3, 62760, Note_on_c, 1, 63, 80
3, 62808, Note_on_c, 1, 63, 0
3, 62880, Note_on_c, 1, 61, 80
3, 62928, Note_on_c, 1, 61, 0
3, 63000, Note_on_c, 1, 59, 80
3, 63238, Note_on_c, 1, 59, 0
3, 63360, Note_on_c, 1, 52, 80
3, 63418, Note_on_c, 1, 52, 0
3, 63420, Note_on_c, 1, 64, 80
3, 63478, Note_on_c, 1, 64, 0
3, 63480, Note_on_c, 1, 54, 80
3, 63538, Note_on_c, 1, 54, 0
3, 63540, Note_on_c, 1, 64, 80
3, 63598, Note_on_c, 1, 64, 0
3, 63600, Note_on_c, 1, 55, 80
3, 63658, Note_on_c, 1, 55, 0
3, 63660, Note_on_c, 1, 64, 80
3, 63718, Note_on_c, 1, 64, 0
3, 63720, Note_on_c, 1, 57, 80
3, 63778, Note_on_c, 1, 57, 0
3, 63780, Note_on_c, 1, 64, 80
3, 63838, Note_on_c, 1, 64, 0
3, 63840, Note_on_c, 1, 57, 80
3, 63898, Note_on_c, 1, 57, 0
3, 63900, Note_on_c, 1, 64, 80
3, 63958, Note_on_c, 1, 64, 0
3, 63960, Note_on_c, 1, 57, 80
3, 64018, Note_on_c, 1, 57, 0
3, 64020, Note_on_c, 1, 64, 80
3, 64078, Note_on_c, 1, 64, 0
3, 64080, Note_on_c, 1, 52, 48
3, 64138, Note_on_c, 1, 52, 0
3, 64140, Note_on_c, 1, 64, 48
3, 64198, Note_on_c, 1, 64, 0
3, 64200, Note_on_c, 1, 54, 48
3, 64258, Note_on_c, 1, 54, 0
3, 64260, Note_on_c, 1, 64, 48
3, 64318, Note_on_c, 1, 64, 0
3, 64320, Note_on_c, 1, 55, 48
3, 64378, Note_on_c, 1, 55, 0
3, 64380, Note_on_c, 1, 64, 48
3, 64438, Note_on_c, 1, 64, 0
3, 64440, Note_on_c, 1, 57, 48
3, 64498, Note_on_c, 1, 57, 0
3, 64500, Note_on_c, 1, 64, 48
3, 64558, Note_on_c, 1, 64, 0
3, 64560, Note_on_c, 1, 57, 48
3, 64618, Note_on_c, 1, 57, 0
3, 64620, Note_on_c, 1, 64, 48
3, 64678, Note_on_c, 1, 64, 0
3, 64680, Note_on_c, 1, 57, 48
3, 64738, Note_on_c, 1, 57, 0
3, 64740, Note_on_c, 1, 64, 48
3, 64798, Note_on_c, 1, 64, 0
3, 64800, Note_on_c, 1, 52, 48
3, 64858, Note_on_c, 1, 52, 0
3, 64860, Note_on_c, 1, 64, 51
3, 64918, Note_on_c, 1, 64, 0
3, 64920, Note_on_c, 1, 54, 53
3, 64978, Note_on_c, 1, 54, 0
3, 64980, Note_on_c, 1, 64, 56
3, 65038, Note_on_c, 1, 64, 0
3, 65040, Note_on_c, 1, 55, 59
3, 65098, Note_on_c, 1, 55, 0
3, 65100, Note_on_c, 1, 64, 61
3, 65158, Note_on_c, 1, 64, 0
3, 65160, Note_on_c, 1, 57, 64
3, 65218, Note_on_c, 1, 57, 0
3, 65220, Note_on_c, 1, 64, 67
3, 65278, Note_on_c, 1, 64, 0
3, 65280, Note_on_c, 1, 57, 69
3, 65338, Note_on_c, 1, 57, 0
3, 65340, Note_on_c, 1, 64, 72
3, 65398, Note_on_c, 1, 64, 0
3, 65400, Note_on_c, 1, 57, 75
3, 65458, Note_on_c, 1, 57, 0
3, 65460, Note_on_c, 1, 64, 77
3, 65518, Note_on_c, 1, 64, 0
3, 65520, Note_on_c, 1, 58, 85
3, 65578, Note_on_c, 1, 58, 0
3, 65580, Note_on_c, 1, 61, 85
3, 65638, Note_on_c, 1, 61, 0
3, 65640, Note_on_c, 1, 58, 85
3, 65698, Note_on_c, 1, 58, 0
3, 65700, Note_on_c, 1, 61, 85
3, 65758, Note_on_c, 1, 61, 0
3, 65760, Note_on_c, 1, 58, 85
3, 65818, Note_on_c, 1, 58, 0
3, 65820, Note_on_c, 1, 61, 85
3, 65878, Note_on_c, 1, 61, 0
3, 65880, Note_on_c, 1, 59, 85
3, 65938, Note_on_c, 1, 59, 0
3, 65940, Note_on_c, 1, 66, 85
3, 65998, Note_on_c, 1, 66, 0
3, 66000, Note_on_c, 1, 59, 85
3, 66058, Note_on_c, 1, 59, 0
3, 66060, Note_on_c, 1, 66, 85
3, 66118, Note_on_c, 1, 66, 0
3, 66120, Note_on_c, 1, 59, 85
3, 66178, Note_on_c, 1, 59, 0
3, 66180, Note_on_c, 1, 66, 85
3, 66238, Note_on_c, 1, 66, 0
3, 66240, Note_on_c, 1, 60, 85
3, 66298, Note_on_c, 1, 60, 0
3, 66300, Note_on_c, 1, 64, 85
3, 66358, Note_on_c, 1, 64, 0
3, 66360, Note_on_c, 1, 60, 85
3, 66418, Note_on_c, 1, 60, 0
3, 66420, Note_on_c, 1, 64, 85
3, 66478, Note_on_c, 1, 64, 0
3, 66480, Note_on_c, 1, 60, 85
3, 66538, Note_on_c, 1, 60, 0
3, 66540, Note_on_c, 1, 64, 85
3, 66598, Note_on_c, 1, 64, 0
3, 66600, Note_on_c, 1, 59, 85
3, 66838, Note_on_c, 1, 59, 0
3, 67020, Note_on_c, 1, 59, 85
3, 67078, Note_on_c, 1, 59, 0
3, 67080, Note_on_c, 1, 61, 85
3, 67138, Note_on_c, 1, 61, 0
3, 67140, Note_on_c, 1, 63, 85
3, 67198, Note_on_c, 1, 63, 0
3, 67200, Note_on_c, 1, 64, 85
3, 67258, Note_on_c, 1, 64, 0
3, 67260, Note_on_c, 1, 66, 85
3, 67318, Note_on_c, 1, 66, 0
3, 67320, Note_on_c, 1, 67, 85
3, 67378, Note_on_c, 1, 67, 0
3, 67380, Note_on_c, 1, 66, 85
3, 67438, Note_on_c, 1, 66, 0
3, 67440, Note_on_c, 1, 64, 85
3, 67498, Note_on_c, 1, 64, 0
3, 67500, Note_on_c, 1, 66, 85
3, 67558, Note_on_c, 1, 66, 0
3, 67560, Note_on_c, 1, 67, 85
3, 67618, Note_on_c, 1, 67, 0
3, 67620, Note_on_c, 1, 69, 85
3, 67678, Note_on_c, 1, 69, 0
3, 67680, Note_on_c, 1, 71, 80
3, 67798, Note_on_c, 1, 71, 0
3, 67800, Note_on_c, 1, 66, 83
3, 67848, Note_on_c, 1, 66, 0
3, 67920, Note_on_c, 1, 63, 85
3, 67968, Note_on_c, 1, 63, 0
3, 68040, Note_on_c, 1, 59, 88
3, 68088, Note_on_c, 1, 59, 0
3, 68160, Note_on_c, 1, 54, 91
3, 68208, Note_on_c, 1, 54, 0
3, 68280, Note_on_c, 1, 51, 93
3, 68328, Note_on_c, 1, 51, 0
3, 68400, Note_on_c, 1, 47, 96
3, 68976, Note_on_c, 1, 47, 0
3, 69120, Note_on_c, 1, 40, 48
3, 69358, Note_on_c, 1, 40, 0
3, 69720, Note_on_c, 1, 52, 48
3, 69720, Note_on_c, 1, 55, 48
3, 69768, Note_on_c, 1, 55, 0
3, 69768, Note_on_c, 1, 52, 0
3, 69840, Note_on_c, 1, 54, 48
3, 69840, Note_on_c, 1, 57, 48
3, 70078, Note_on_c, 1, 57, 0
3, 70078, Note_on_c, 1, 54, 0
3, 70320, Note_on_c, 1, 63, 48
3, 70320, Note_on_c, 1, 59, 48
3, 70368, Note_on_c, 1, 59, 0
3, 70368, Note_on_c, 1, 63, 0
3, 70440, Note_on_c, 1, 66, 48
3, 70488, Note_on_c, 1, 66, 0
3, 70560, Note_on_c, 1, 64, 48
3, 70560, Note_on_c, 1, 67, 48
3, 70800, Note_on_c, 1, 67, 0
3, 70800, Note_on_c, 1, 64, 0
3, 70800, Note_on_c, 1, 67, 48
3, 70920, Note_on_c, 1, 67, 0
3, 70920, Note_on_c, 1, 69, 48
3, 71040, Note_on_c, 1, 69, 0
3, 71040, Note_on_c, 1, 66, 48
3, 71160, Note_on_c, 1, 66, 0
3, 71160, Note_on_c, 1, 64, 48
3, 71280, Note_on_c, 1, 64, 0
3, 71280, Note_on_c, 1, 63, 48
3, 71400, Note_on_c, 1, 63, 0
3, 71400, Note_on_c, 1, 64, 48
3, 71520, Note_on_c, 1, 64, 0
3, 71520, Note_on_c, 1, 67, 48
3, 71520, Note_on_c, 1, 71, 48
3, 71640, Note_on_c, 1, 71, 0
3, 71640, Note_on_c, 1, 67, 0
3, 71640, Note_on_c, 1, 69, 48
3, 71640, Note_on_c, 1, 72, 48
3, 72000, Note_on_c, 1, 72, 0
3, 72000, Note_on_c, 1, 69, 0
3, 72000, Note_on_c, 1, 59, 48
3, 72000, Note_on_c, 1, 67, 48
3, 72360, Note_on_c, 1, 67, 0
3, 72360, Note_on_c, 1, 59, 0
3, 72360, Note_on_c, 1, 66, 48
3, 72718, Note_on_c, 1, 66, 0
3, 72720, Note_on_c, 1, 64, 48
3, 72720, Note_on_c, 1, 64, 48
3, 73080, Note_on_c, 1, 64, 0
3, 73080, Note_on_c, 1, 64, 0
3, 73440, Note_on_c, 1, 40, 80
3, 73678, Note_on_c, 1, 40, 0
3, 74040, Note_on_c, 1, 52, 80
3, 74040, Note_on_c, 1, 55, 80
3, 74088, Note_on_c, 1, 55, 0
3, 74088, Note_on_c, 1, 52, 0
3, 74160, Note_on_c, 1, 54, 80
3, 74160, Note_on_c, 1, 57, 80
3, 74398, Note_on_c, 1, 57, 0
3, 74398, Note_on_c, 1, 54, 0
3, 74640, Note_on_c, 1, 59, 80
3, 74640, Note_on_c, 1, 63, 80
3, 74688, Note_on_c, 1, 63, 0
3, 74688, Note_on_c, 1, 59, 0
3, 74760, Note_on_c, 1, 63, 80
3, 74760, Note_on_c, 1, 66, 80
3, 74808, Note_on_c, 1, 66, 0
3, 74808, Note_on_c, 1, 63, 0
3, 74880, Note_on_c, 1, 64, 80
3, 74880, Note_on_c, 1, 67, 80
3, 75120, Note_on_c, 1, 67, 0
3, 75120, Note_on_c, 1, 64, 0
3, 75120, Note_on_c, 1, 67, 80
3, 75240, Note_on_c, 1, 67, 0
3, 75240, Note_on_c, 1, 69, 80
3, 75360, Note_on_c, 1, 69, 0
3, 75360, Note_on_c, 1, 66, 80
3, 75480, Note_on_c, 1, 66, 0
3, 75480, Note_on_c, 1, 64, 80
3, 75600, Note_on_c, 1, 64, 0
3, 75600, Note_on_c, 1, 63, 80
3, 75720, Note_on_c, 1, 63, 0
3, 75720, Note_on_c, 1, 64, 80
3, 75840, Note_on_c, 1, 64, 0
3, 75840, Note_on_c, 1, 67, 80
3, 75960, Note_on_c, 1, 67, 0
3, 75960, Note_on_c, 1, 69, 80
3, 76080, Note_on_c, 1, 69, 0
3, 76080, Note_on_c, 1, 71, 80
3, 76200, Note_on_c, 1, 71, 0
3, 76200, Note_on_c, 1, 69, 80
3, 76320, Note_on_c, 1, 69, 0
3, 76320, Note_on_c, 1, 68, 80
3, 76440, Note_on_c, 1, 68, 0
3, 76440, Note_on_c, 1, 69, 80
3, 76560, Note_on_c, 1, 69, 0
3, 76560, Note_on_c, 1, 67, 80
3, 76680, Note_on_c, 1, 67, 0
3, 76680, Note_on_c, 1, 66, 80
3, 76800, Note_on_c, 1, 66, 0
3, 76800, Note_on_c, 1, 67, 80
3, 76920, Note_on_c, 1, 67, 0
3, 76920, Note_on_c, 1, 66, 80
3, 77040, Note_on_c, 1, 66, 0
3, 77040, Note_on_c, 1, 64, 80
3, 77160, Note_on_c, 1, 64, 0
3, 77160, Note_on_c, 1, 66, 80
3, 77280, Note_on_c, 1, 66, 0
3, 77280, Note_on_c, 1, 64, 80
3, 77400, Note_on_c, 1, 64, 0
3, 77400, Note_on_c, 1, 63, 80
3, 77520, Note_on_c, 1, 63, 0
3, 77520, Note_on_c, 1, 64, 80
3, 77640, Note_on_c, 1, 64, 0
3, 77640, Note_on_c, 1, 55, 80
3, 77760, Note_on_c, 1, 55, 0
3, 77760, Note_on_c, 1, 56, 80
3, 77880, Note_on_c, 1, 56, 0
3, 77880, Note_on_c, 1, 57, 80
3, 78000, Note_on_c, 1, 57, 0
3, 78000, Note_on_c, 1, 58, 80
3, 78120, Note_on_c, 1, 58, 0
3, 78120, Note_on_c, 1, 59, 80
3, 78168, Note_on_c, 1, 59, 0
3, 78240, Note_on_c, 1, 60, 80
3, 78288, Note_on_c, 1, 60, 0
3, 78360, Note_on_c, 1, 61, 80
3, 78408, Note_on_c, 1, 61, 0
3, 78480, Note_on_c, 1, 67, 80
3, 78480, Note_on_c, 1, 59, 80
3, 78768, Note_on_c, 1, 67, 0
3, 78840, Note_on_c, 1, 66, 80
3, 79128, Note_on_c, 1, 66, 0
3, 79128, Note_on_c, 1, 59, 0
3, 79200, Note_on_c, 1, 52, 85
3, 79200, Note_on_c, 1, 64, 85
3, 79392, Note_on_c, 1, 64, 0
3, 79392, Note_on_c, 1, 52, 0
3, 79440, Note_on_c, 1, 59, 85
3, 79440, Note_on_c, 1, 63, 85
3, 79488, Note_on_c, 1, 63, 0
3, 79488, Note_on_c, 1, 59, 0
3, 79560, Note_on_c, 1, 52, 85
3, 79560, Note_on_c, 1, 64, 85
3, 79752, Note_on_c, 1, 64, 0
3, 79752, Note_on_c, 1, 52, 0
3, 79800, Note_on_c, 1, 59, 85
3, 79800, Note_on_c, 1, 63, 85
3, 79848, Note_on_c, 1, 63, 0
3, 79848, Note_on_c, 1, 59, 0
3, 79920, Note_on_c, 1, 52, 85
3, 79920, Note_on_c, 1, 64, 85
3, 80112, Note_on_c, 1, 64, 0
3, 80112, Note_on_c, 1, 52, 0
3, 80160, Note_on_c, 1, 59, 85
3, 80160, Note_on_c, 1, 63, 85
3, 80208, Note_on_c, 1, 63, 0
3, 80208, Note_on_c, 1, 59, 0
3, 80280, Note_on_c, 1, 52, 85
3, 80280, Note_on_c, 1, 64, 85
3, 80472, Note_on_c, 1, 64, 0
3, 80472, Note_on_c, 1, 52, 0
3, 80520, Note_on_c, 1, 59, 85
3, 80520, Note_on_c, 1, 63, 85
3, 80568, Note_on_c, 1, 63, 0
3, 80568, Note_on_c, 1, 59, 0
3, 80640, Note_on_c, 1, 64, 85
3, 80698, Note_on_c, 1, 64, 0
3, 80700, Note_on_c, 1, 71, 85
3, 80758, Note_on_c, 1, 71, 0
3, 80760, Note_on_c, 1, 67, 85
3, 80818, Note_on_c, 1, 67, 0
3, 80820, Note_on_c, 1, 71, 85
3, 80878, Note_on_c, 1, 71, 0
3, 80880, Note_on_c, 1, 67, 85
3, 80938, Note_on_c, 1, 67, 0
3, 80940, Note_on_c, 1, 71, 85
3, 80998, Note_on_c, 1, 71, 0
3, 81000, Note_on_c, 1, 62, 85
3, 81058, Note_on_c, 1, 62, 0
3, 81060, Note_on_c, 1, 71, 85
3, 81118, Note_on_c, 1, 71, 0
3, 81120, Note_on_c, 1, 67, 85
3, 81178, Note_on_c, 1, 67, 0
3, 81180, Note_on_c, 1, 71, 85
3, 81238, Note_on_c, 1, 71, 0
3, 81240, Note_on_c, 1, 62, 85
3, 81298, Note_on_c, 1, 62, 0
3, 81300, Note_on_c, 1, 71, 85
3, 81358, Note_on_c, 1, 71, 0
3, 81360, Note_on_c, 1, 60, 85
3, 81552, Note_on_c, 1, 60, 0
3, 81600, Note_on_c, 1, 67, 85
3, 81600, Note_on_c, 1, 71, 85
3, 81648, Note_on_c, 1, 71, 0
3, 81648, Note_on_c, 1, 67, 0
3, 81720, Note_on_c, 1, 60, 85
3, 81720, Note_on_c, 1, 72, 85
3, 81912, Note_on_c, 1, 72, 0
3, 81912, Note_on_c, 1, 60, 0
3, 81960, Note_on_c, 1, 67, 85
3, 81960, Note_on_c, 1, 71, 85
3, 82008, Note_on_c, 1, 71, 0
3, 82008, Note_on_c, 1, 67, 0
3, 82080, Note_on_c, 1, 60, 85
3, 82080, Note_on_c, 1, 72, 85
3, 82272, Note_on_c, 1, 72, 0
3, 82272, Note_on_c, 1, 60, 0
3, 82320, Note_on_c, 1, 67, 85
3, 82320, Note_on_c, 1, 71, 85
3, 82368, Note_on_c, 1, 71, 0
3, 82368, Note_on_c, 1, 67, 0
3, 82440, Note_on_c, 1, 60, 85
3, 82440, Note_on_c, 1, 72, 85
3, 82632, Note_on_c, 1, 72, 0
3, 82632, Note_on_c, 1, 60, 0
3, 82680, Note_on_c, 1, 67, 85
3, 82680, Note_on_c, 1, 71, 85
3, 82728, Note_on_c, 1, 71, 0
3, 82728, Note_on_c, 1, 67, 0
3, 82800, Note_on_c, 1, 72, 85
3, 82858, Note_on_c, 1, 72, 0
3, 82860, Note_on_c, 1, 76, 85
3, 82918, Note_on_c, 1, 76, 0
3, 82920, Note_on_c, 1, 72, 85
3, 82978, Note_on_c, 1, 72, 0
3, 82980, Note_on_c, 1, 76, 85
3, 83038, Note_on_c, 1, 76, 0
3, 83040, Note_on_c, 1, 72, 85
3, 83098, Note_on_c, 1, 72, 0
3, 83100, Note_on_c, 1, 76, 85
3, 83158, Note_on_c, 1, 76, 0
3, 83160, Note_on_c, 1, 71, 85
3, 83218, Note_on_c, 1, 71, 0
3, 83220, Note_on_c, 1, 74, 85
3, 83278, Note_on_c, 1, 74, 0
3, 83280, Note_on_c, 1, 71, 85
3, 83338, Note_on_c, 1, 71, 0
3, 83340, Note_on_c, 1, 74, 85
3, 83398, Note_on_c, 1, 74, 0
3, 83400, Note_on_c, 1, 71, 85
3, 83458, Note_on_c, 1, 71, 0
3, 83460, Note_on_c, 1, 74, 85
3, 83518, Note_on_c, 1, 74, 0
3, 83520, Note_on_c, 1, 69, 85
3, 83578, Note_on_c, 1, 69, 0
3, 83580, Note_on_c, 1, 72, 85
3, 83638, Note_on_c, 1, 72, 0
3, 83640, Note_on_c, 1, 69, 85
3, 83698, Note_on_c, 1, 69, 0
3, 83700, Note_on_c, 1, 72, 85
3, 83758, Note_on_c, 1, 72, 0
3, 83760, Note_on_c, 1, 69, 85
3, 83818, Note_on_c, 1, 69, 0
3, 83820, Note_on_c, 1, 72, 85
3, 83878, Note_on_c, 1, 72, 0
3, 83880, Note_on_c, 1, 67, 85
3, 83938, Note_on_c, 1, 67, 0
3, 83940, Note_on_c, 1, 71, 85
3, 83998, Note_on_c, 1, 71, 0
3, 84000, Note_on_c, 1, 67, 85
3, 84058, Note_on_c, 1, 67, 0
3, 84060, Note_on_c, 1, 71, 85
3, 84118, Note_on_c, 1, 71, 0
3, 84120, Note_on_c, 1, 67, 85
3, 84178, Note_on_c, 1, 67, 0
3, 84180, Note_on_c, 1, 71, 85
3, 84238, Note_on_c, 1, 71, 0
3, 84240, Note_on_c, 1, 66, 85
3, 84298, Note_on_c, 1, 66, 0
3, 84300, Note_on_c, 1, 69, 85
3, 84358, Note_on_c, 1, 69, 0
3, 84360, Note_on_c, 1, 66, 85
3, 84418, Note_on_c, 1, 66, 0
3, 84420, Note_on_c, 1, 69, 85
3, 84478, Note_on_c, 1, 69, 0
3, 84480, Note_on_c, 1, 66, 85
3, 84538, Note_on_c, 1, 66, 0
3, 84540, Note_on_c, 1, 69, 85
3, 84598, Note_on_c, 1, 69, 0
3, 84600, Note_on_c, 1, 64, 85
3, 84658, Note_on_c, 1, 64, 0
3, 84660, Note_on_c, 1, 67, 85
3, 84718, Note_on_c, 1, 67, 0
3, 84720, Note_on_c, 1, 64, 85
3, 84778, Note_on_c, 1, 64, 0
3, 84780, Note_on_c, 1, 67, 85
3, 84838, Note_on_c, 1, 67, 0
3, 84840, Note_on_c, 1, 64, 85
3, 84898, Note_on_c, 1, 64, 0
3, 84900, Note_on_c, 1, 67, 85
3, 84958, Note_on_c, 1, 67, 0
3, 84960, Note_on_c, 1, 63, 85
3, 85018, Note_on_c, 1, 63, 0
3, 85020, Note_on_c, 1, 66, 85
3, 85078, Note_on_c, 1, 66, 0
3, 85080, Note_on_c, 1, 63, 85
3, 85138, Note_on_c, 1, 63, 0
3, 85140, Note_on_c, 1, 66, 85
3, 85198, Note_on_c, 1, 66, 0
3, 85200, Note_on_c, 1, 63, 85
3, 85258, Note_on_c, 1, 63, 0
3, 85260, Note_on_c, 1, 66, 85
3, 85318, Note_on_c, 1, 66, 0
3, 85320, Note_on_c, 1, 63, 85
3, 85378, Note_on_c, 1, 63, 0
3, 85380, Note_on_c, 1, 66, 85
3, 85438, Note_on_c, 1, 66, 0
3, 85440, Note_on_c, 1, 63, 85
3, 85498, Note_on_c, 1, 63, 0
3, 85500, Note_on_c, 1, 66, 85
3, 85558, Note_on_c, 1, 66, 0
3, 85560, Note_on_c, 1, 63, 85
3, 85618, Note_on_c, 1, 63, 0
3, 85620, Note_on_c, 1, 66, 85
3, 85678, Note_on_c, 1, 66, 0
3, 85680, Note_on_c, 1, 52, 85
3, 85680, Note_on_c, 1, 64, 85
3, 85872, Note_on_c, 1, 64, 0
3, 85872, Note_on_c, 1, 52, 0
3, 85920, Note_on_c, 1, 59, 85
3, 85920, Note_on_c, 1, 63, 85
3, 85968, Note_on_c, 1, 63, 0
3, 85968, Note_on_c, 1, 59, 0
3, 86040, Note_on_c, 1, 52, 85
3, 86040, Note_on_c, 1, 64, 85
3, 86232, Note_on_c, 1, 64, 0
3, 86232, Note_on_c, 1, 52, 0
3, 86280, Note_on_c, 1, 59, 85
3, 86280, Note_on_c, 1, 63, 85
3, 86328, Note_on_c, 1, 63, 0
3, 86328, Note_on_c, 1, 59, 0
3, 86400, Note_on_c, 1, 52, 85
3, 86400, Note_on_c, 1, 64, 85
3, 86592, Note_on_c, 1, 64, 0
3, 86592, Note_on_c, 1, 52, 0
3, 86640, Note_on_c, 1, 59, 85
3, 86640, Note_on_c, 1, 63, 85
3, 86688, Note_on_c, 1, 63, 0
3, 86688, Note_on_c, 1, 59, 0
3, 86760, Note_on_c, 1, 52, 85
3, 86760, Note_on_c, 1, 64, 85
3, 86952, Note_on_c, 1, 64, 0
3, 86952, Note_on_c, 1, 52, 0
3, 87000, Note_on_c, 1, 59, 85
3, 87000, Note_on_c, 1, 63, 85
3, 87048, Note_on_c, 1, 63, 0
3, 87048, Note_on_c, 1, 59, 0
3, 87120, Note_on_c, 1, 52, 85
3, 87120, Note_on_c, 1, 64, 85
3, 87358, Note_on_c, 1, 64, 0
3, 87358, Note_on_c, 1, 52, 0
3, 87480, Note_on_c, 1, 48, 85
3, 87480, Note_on_c, 1, 60, 85
3, 87718, Note_on_c, 1, 60, 0
3, 87718, Note_on_c, 1, 48, 0
3, 87840, Note_on_c, 1, 45, 85
3, 87840, Note_on_c, 1, 57, 85
3, 88078, Note_on_c, 1, 57, 0
3, 88078, Note_on_c, 1, 45, 0
3, 88200, Note_on_c, 1, 47, 85
3, 88200, Note_on_c, 1, 59, 85
3, 88438, Note_on_c, 1, 59, 0
3, 88438, Note_on_c, 1, 47, 0
3, 88560, Note_on_c, 1, 40, 85
3, 88560, Note_on_c, 1, 52, 85
3, 88798, Note_on_c, 1, 52, 0
3, 88798, Note_on_c, 1, 40, 0
3, 88920, Note_on_c, 1, 48, 85
3, 88920, Note_on_c, 1, 60, 85
3, 89158, Note_on_c, 1, 60, 0
3, 89158, Note_on_c, 1, 48, 0
3, 89280, Note_on_c, 1, 45, 85
3, 89280, Note_on_c, 1, 57, 85
3, 89518, Note_on_c, 1, 57, 0
3, 89518, Note_on_c, 1, 45, 0
3, 89640, Note_on_c, 1, 47, 85
3, 89640, Note_on_c, 1, 59, 85
3, 89878, Note_on_c, 1, 59, 0
3, 89878, Note_on_c, 1, 47, 0
3, 90000, Note_on_c, 1, 40, 80
3, 90118, Note_on_c, 1, 40, 0
3, 90120, Note_on_c, 1, 43, 79
3, 90168, Note_on_c, 1, 43, 0
3, 90240, Note_on_c, 1, 47, 77
3, 90288, Note_on_c, 1, 47, 0
3, 90360, Note_on_c, 1, 52, 76
3, 90478, Note_on_c, 1, 52, 0
3, 90720, Note_on_c, 1, 40, 72
3, 90838, Note_on_c, 1, 40, 0
3, 90840, Note_on_c, 1, 43, 71
3, 90888, Note_on_c, 1, 43, 0
3, 90960, Note_on_c, 1, 47, 69
3, 91008, Note_on_c, 1, 47, 0
3, 91080, Note_on_c, 1, 52, 68
3, 91198, Note_on_c, 1, 52, 0
3, 91440, Note_on_c, 1, 40, 64
3, 91558, Note_on_c, 1, 40, 0
3, 91560, Note_on_c, 1, 43, 63
3, 91608, Note_on_c, 1, 43, 0
3, 91680, Note_on_c, 1, 47, 61
3, 91728, Note_on_c, 1, 47, 0
3, 91800, Note_on_c, 1, 52, 60
3, 91918, Note_on_c, 1, 52, 0
3, 91918, End_track
4, 0, Start_track
4, 0, MIDI_port, 0
4, 0, Title_t, "MIDI by Marty Weimer 7/7/96"
4, 0, End_track
5, 0, Start_track
5, 0, MIDI_port, 0
5, 0, Title_t, "weimermt@libby.org  Eureka, MT  USA"
5, 0, End_track
0, 0, End_of_file
