0, 0, Header, 1, 5, 240
1, 0, Start_track
1, 0, Time_signature, 4, 2, 24, 8
1, 0, Key_signature, 0, "major"
1, 0, Tempo, 400000
1, 0, End_track
2, 0, Start_track
2, 0, MIDI_port, 0
2, 0, Title_t, "Piano Sonata No.40 in G (1784)"
2, 0, Program_c, 0, 0
2, 0, Control_c, 0, 7, 127
2, 0, Control_c, 0, 10, 72
2, 0, Note_on_c, 0, 67, 80
2, 180, Note_on_c, 0, 67, 0
2, 180, Note_on_c, 0, 71, 80
2, 210, Note_on_c, 0, 71, 0
2, 210, Note_on_c, 0, 69, 80
2, 240, Note_on_c, 0, 69, 0
2, 240, Note_on_c, 0, 67, 80
2, 324, Note_on_c, 0, 67, 0
2, 600, Note_on_c, 0, 62, 80
2, 648, Note_on_c, 0, 62, 0
2, 720, Note_on_c, 0, 67, 80
2, 768, Note_on_c, 0, 67, 0
2, 840, Note_on_c, 0, 71, 80
2, 888, Note_on_c, 0, 71, 0
2, 960, Note_on_c, 0, 71, 80
2, 1020, Note_on_c, 0, 71, 0
2, 1020, Note_on_c, 0, 69, 80
2, 1080, Note_on_c, 0, 69, 0
2, 1080, Note_on_c, 0, 67, 80
2, 1140, Note_on_c, 0, 67, 0
2, 1140, Note_on_c, 0, 69, 80
2, 1200, Note_on_c, 0, 69, 0
2, 1200, Note_on_c, 0, 67, 80
2, 1320, Note_on_c, 0, 67, 0
2, 1320, Note_on_c, 0, 74, 80
2, 1368, Note_on_c, 0, 74, 0
2, 1440, Note_on_c, 0, 74, 80
2, 1488, Note_on_c, 0, 74, 0
2, 1560, Note_on_c, 0, 74, 80
2, 1608, Note_on_c, 0, 74, 0
2, 1680, Note_on_c, 0, 74, 80
2, 1728, Note_on_c, 0, 74, 0
2, 1800, Note_on_c, 0, 74, 80
2, 1872, Note_on_c, 0, 74, 0
2, 1920, Note_on_c, 0, 74, 80
2, 2100, Note_on_c, 0, 74, 0
2, 2100, Note_on_c, 0, 76, 80
2, 2130, Note_on_c, 0, 76, 0
2, 2130, Note_on_c, 0, 74, 80
2, 2160, Note_on_c, 0, 74, 0
2, 2160, Note_on_c, 0, 72, 80
2, 2232, Note_on_c, 0, 72, 0
2, 2280, Note_on_c, 0, 71, 80
2, 2352, Note_on_c, 0, 71, 0
2, 2400, Note_on_c, 0, 69, 80
2, 2472, Note_on_c, 0, 69, 0
2, 2520, Note_on_c, 0, 81, 96
2, 2760, Note_on_c, 0, 81, 0
2, 2760, Note_on_c, 0, 79, 80
2, 2832, Note_on_c, 0, 79, 0
2, 2880, Note_on_c, 0, 79, 80
2, 2940, Note_on_c, 0, 79, 0
2, 2940, Note_on_c, 0, 78, 80
2, 3000, Note_on_c, 0, 78, 0
2, 3000, Note_on_c, 0, 76, 80
2, 3060, Note_on_c, 0, 76, 0
2, 3060, Note_on_c, 0, 74, 80
2, 3120, Note_on_c, 0, 74, 0
2, 3120, Note_on_c, 0, 74, 80
2, 3192, Note_on_c, 0, 74, 0
2, 3240, Note_on_c, 0, 74, 80
2, 3312, Note_on_c, 0, 74, 0
2, 3360, Note_on_c, 0, 74, 80
2, 3420, Note_on_c, 0, 74, 0
2, 3420, Note_on_c, 0, 76, 80
2, 3480, Note_on_c, 0, 76, 0
2, 3480, Note_on_c, 0, 72, 80
2, 3540, Note_on_c, 0, 72, 0
2, 3540, Note_on_c, 0, 74, 80
2, 3600, Note_on_c, 0, 74, 0
2, 3600, Note_on_c, 0, 71, 80
2, 3660, Note_on_c, 0, 71, 0
2, 3660, Note_on_c, 0, 72, 80
2, 3720, Note_on_c, 0, 72, 0
2, 3720, Note_on_c, 0, 69, 80
2, 3780, Note_on_c, 0, 69, 0
2, 3780, Note_on_c, 0, 71, 80
2, 3840, Note_on_c, 0, 71, 0
2, 3840, Note_on_c, 0, 67, 80
2, 4020, Note_on_c, 0, 67, 0
2, 4020, Note_on_c, 0, 71, 80
2, 4050, Note_on_c, 0, 71, 0
2, 4050, Note_on_c, 0, 69, 80
2, 4080, Note_on_c, 0, 69, 0
2, 4080, Note_on_c, 0, 67, 80
2, 4164, Note_on_c, 0, 67, 0
2, 4440, Note_on_c, 0, 62, 80
2, 4488, Note_on_c, 0, 62, 0
2, 4560, Note_on_c, 0, 67, 80
2, 4608, Note_on_c, 0, 67, 0
2, 4680, Note_on_c, 0, 71, 80
2, 4728, Note_on_c, 0, 71, 0
2, 4800, Note_on_c, 0, 71, 80
2, 4860, Note_on_c, 0, 71, 0
2, 4860, Note_on_c, 0, 69, 80
2, 4920, Note_on_c, 0, 69, 0
2, 4920, Note_on_c, 0, 67, 80
2, 4980, Note_on_c, 0, 67, 0
2, 4980, Note_on_c, 0, 69, 80
2, 5040, Note_on_c, 0, 69, 0
2, 5040, Note_on_c, 0, 67, 80
2, 5160, Note_on_c, 0, 67, 0
2, 5160, Note_on_c, 0, 76, 80
2, 5208, Note_on_c, 0, 76, 0
2, 5280, Note_on_c, 0, 76, 80
2, 5328, Note_on_c, 0, 76, 0
2, 5400, Note_on_c, 0, 76, 80
2, 5448, Note_on_c, 0, 76, 0
2, 5520, Note_on_c, 0, 76, 80
2, 5568, Note_on_c, 0, 76, 0
2, 5640, Note_on_c, 0, 76, 80
2, 5712, Note_on_c, 0, 76, 0
2, 5760, Note_on_c, 0, 76, 80
2, 5940, Note_on_c, 0, 76, 0
2, 5940, Note_on_c, 0, 79, 80
2, 5970, Note_on_c, 0, 79, 0
2, 5970, Note_on_c, 0, 81, 80
2, 6000, Note_on_c, 0, 81, 0
2, 6000, Note_on_c, 0, 83, 80
2, 6180, Note_on_c, 0, 83, 0
2, 6180, Note_on_c, 0, 79, 80
2, 6210, Note_on_c, 0, 79, 0
2, 6210, Note_on_c, 0, 76, 80
2, 6240, Note_on_c, 0, 76, 0
2, 6240, Note_on_c, 0, 74, 80
2, 6480, Note_on_c, 0, 74, 0
2, 6480, Note_on_c, 0, 73, 80
2, 6510, Note_on_c, 0, 73, 0
2, 6510, Note_on_c, 0, 74, 80
2, 6540, Note_on_c, 0, 74, 0
2, 6540, Note_on_c, 0, 73, 80
2, 6570, Note_on_c, 0, 73, 0
2, 6570, Note_on_c, 0, 74, 80
2, 6600, Note_on_c, 0, 74, 0
2, 6600, Note_on_c, 0, 73, 80
2, 6620, Note_on_c, 0, 73, 0
2, 6620, Note_on_c, 0, 74, 80
2, 6640, Note_on_c, 0, 74, 0
2, 6640, Note_on_c, 0, 73, 80
2, 6660, Note_on_c, 0, 73, 0
2, 6660, Note_on_c, 0, 71, 80
2, 6690, Note_on_c, 0, 71, 0
2, 6690, Note_on_c, 0, 73, 80
2, 6720, Note_on_c, 0, 73, 0
2, 6720, Note_on_c, 0, 74, 80
2, 6780, Note_on_c, 0, 74, 0
2, 6780, Note_on_c, 0, 76, 80
2, 6840, Note_on_c, 0, 76, 0
2, 6840, Note_on_c, 0, 78, 80
2, 6900, Note_on_c, 0, 78, 0
2, 6900, Note_on_c, 0, 79, 80
2, 6960, Note_on_c, 0, 79, 0
2, 6960, Note_on_c, 0, 81, 80
2, 7020, Note_on_c, 0, 81, 0
2, 7020, Note_on_c, 0, 78, 80
2, 7080, Note_on_c, 0, 78, 0
2, 7080, Note_on_c, 0, 76, 80
2, 7140, Note_on_c, 0, 76, 0
2, 7140, Note_on_c, 0, 74, 80
2, 7200, Note_on_c, 0, 74, 0
2, 7200, Note_on_c, 0, 73, 80
2, 7260, Note_on_c, 0, 73, 0
2, 7260, Note_on_c, 0, 74, 80
2, 7320, Note_on_c, 0, 74, 0
2, 7320, Note_on_c, 0, 76, 80
2, 7380, Note_on_c, 0, 76, 0
2, 7380, Note_on_c, 0, 78, 80
2, 7440, Note_on_c, 0, 78, 0
2, 7440, Note_on_c, 0, 79, 80
2, 7500, Note_on_c, 0, 79, 0
2, 7500, Note_on_c, 0, 76, 80
2, 7560, Note_on_c, 0, 76, 0
2, 7560, Note_on_c, 0, 74, 80
2, 7620, Note_on_c, 0, 74, 0
2, 7620, Note_on_c, 0, 73, 80
2, 7680, Note_on_c, 0, 73, 0
2, 7680, Note_on_c, 0, 74, 56
2, 7740, Note_on_c, 0, 74, 0
2, 7740, Note_on_c, 0, 76, 58
2, 7800, Note_on_c, 0, 76, 0
2, 7800, Note_on_c, 0, 78, 59
2, 7860, Note_on_c, 0, 78, 0
2, 7860, Note_on_c, 0, 79, 61
2, 7920, Note_on_c, 0, 79, 0
2, 7920, Note_on_c, 0, 81, 62
2, 7980, Note_on_c, 0, 81, 0
2, 7980, Note_on_c, 0, 78, 64
2, 8040, Note_on_c, 0, 78, 0
2, 8040, Note_on_c, 0, 76, 65
2, 8100, Note_on_c, 0, 76, 0
2, 8100, Note_on_c, 0, 74, 67
2, 8160, Note_on_c, 0, 74, 0
2, 8160, Note_on_c, 0, 73, 68
2, 8220, Note_on_c, 0, 73, 0
2, 8220, Note_on_c, 0, 74, 70
2, 8280, Note_on_c, 0, 74, 0
2, 8280, Note_on_c, 0, 76, 71
2, 8340, Note_on_c, 0, 76, 0
2, 8340, Note_on_c, 0, 78, 73
2, 8400, Note_on_c, 0, 78, 0
2, 8400, Note_on_c, 0, 79, 74
2, 8460, Note_on_c, 0, 79, 0
2, 8460, Note_on_c, 0, 76, 76
2, 8520, Note_on_c, 0, 76, 0
2, 8520, Note_on_c, 0, 74, 77
2, 8580, Note_on_c, 0, 74, 0
2, 8580, Note_on_c, 0, 73, 79
2, 8640, Note_on_c, 0, 73, 0
2, 8640, Note_on_c, 0, 74, 80
2, 8808, Note_on_c, 0, 74, 0
2, 8850, Note_on_c, 0, 85, 80
2, 8874, Note_on_c, 0, 85, 0
2, 8880, Note_on_c, 0, 86, 96
2, 9048, Note_on_c, 0, 86, 0
2, 9600, Note_on_c, 0, 67, 80
2, 9780, Note_on_c, 0, 67, 0
2, 9780, Note_on_c, 0, 71, 80
2, 9810, Note_on_c, 0, 71, 0
2, 9810, Note_on_c, 0, 69, 80
2, 9840, Note_on_c, 0, 69, 0
2, 9840, Note_on_c, 0, 67, 80
2, 9924, Note_on_c, 0, 67, 0
2, 10200, Note_on_c, 0, 62, 80
2, 10248, Note_on_c, 0, 62, 0
2, 10320, Note_on_c, 0, 67, 80
2, 10368, Note_on_c, 0, 67, 0
2, 10440, Note_on_c, 0, 71, 80
2, 10488, Note_on_c, 0, 71, 0
2, 10560, Note_on_c, 0, 71, 80
2, 10620, Note_on_c, 0, 71, 0
2, 10620, Note_on_c, 0, 69, 80
2, 10680, Note_on_c, 0, 69, 0
2, 10680, Note_on_c, 0, 67, 80
2, 10740, Note_on_c, 0, 67, 0
2, 10740, Note_on_c, 0, 69, 80
2, 10800, Note_on_c, 0, 69, 0
2, 10800, Note_on_c, 0, 67, 80
2, 10920, Note_on_c, 0, 67, 0
2, 10920, Note_on_c, 0, 74, 80
2, 10968, Note_on_c, 0, 74, 0
2, 11040, Note_on_c, 0, 74, 80
2, 11088, Note_on_c, 0, 74, 0
2, 11160, Note_on_c, 0, 74, 80
2, 11208, Note_on_c, 0, 74, 0
2, 11280, Note_on_c, 0, 74, 80
2, 11328, Note_on_c, 0, 74, 0
2, 11400, Note_on_c, 0, 74, 80
2, 11472, Note_on_c, 0, 74, 0
2, 11520, Note_on_c, 0, 74, 80
2, 11700, Note_on_c, 0, 74, 0
2, 11700, Note_on_c, 0, 76, 80
2, 11730, Note_on_c, 0, 76, 0
2, 11730, Note_on_c, 0, 74, 80
2, 11760, Note_on_c, 0, 74, 0
2, 11760, Note_on_c, 0, 72, 80
2, 11832, Note_on_c, 0, 72, 0
2, 11880, Note_on_c, 0, 71, 80
2, 11952, Note_on_c, 0, 71, 0
2, 12000, Note_on_c, 0, 69, 80
2, 12072, Note_on_c, 0, 69, 0
2, 12120, Note_on_c, 0, 81, 96
2, 12360, Note_on_c, 0, 81, 0
2, 12360, Note_on_c, 0, 79, 80
2, 12432, Note_on_c, 0, 79, 0
2, 12480, Note_on_c, 0, 79, 80
2, 12540, Note_on_c, 0, 79, 0
2, 12540, Note_on_c, 0, 78, 80
2, 12600, Note_on_c, 0, 78, 0
2, 12600, Note_on_c, 0, 76, 80
2, 12660, Note_on_c, 0, 76, 0
2, 12660, Note_on_c, 0, 74, 80
2, 12720, Note_on_c, 0, 74, 0
2, 12720, Note_on_c, 0, 74, 80
2, 12792, Note_on_c, 0, 74, 0
2, 12840, Note_on_c, 0, 74, 80
2, 12912, Note_on_c, 0, 74, 0
2, 12960, Note_on_c, 0, 74, 80
2, 13020, Note_on_c, 0, 74, 0
2, 13020, Note_on_c, 0, 76, 80
2, 13080, Note_on_c, 0, 76, 0
2, 13080, Note_on_c, 0, 72, 80
2, 13140, Note_on_c, 0, 72, 0
2, 13140, Note_on_c, 0, 74, 80
2, 13200, Note_on_c, 0, 74, 0
2, 13200, Note_on_c, 0, 71, 80
2, 13260, Note_on_c, 0, 71, 0
2, 13260, Note_on_c, 0, 72, 80
2, 13320, Note_on_c, 0, 72, 0
2, 13320, Note_on_c, 0, 69, 80
2, 13380, Note_on_c, 0, 69, 0
2, 13380, Note_on_c, 0, 71, 80
2, 13440, Note_on_c, 0, 71, 0
2, 13440, Note_on_c, 0, 67, 80
2, 13620, Note_on_c, 0, 67, 0
2, 13620, Note_on_c, 0, 71, 80
2, 13650, Note_on_c, 0, 71, 0
2, 13650, Note_on_c, 0, 69, 80
2, 13680, Note_on_c, 0, 69, 0
2, 13680, Note_on_c, 0, 67, 80
2, 13764, Note_on_c, 0, 67, 0
2, 14040, Note_on_c, 0, 62, 80
2, 14088, Note_on_c, 0, 62, 0
2, 14160, Note_on_c, 0, 67, 80
2, 14208, Note_on_c, 0, 67, 0
2, 14280, Note_on_c, 0, 71, 80
2, 14328, Note_on_c, 0, 71, 0
2, 14400, Note_on_c, 0, 71, 80
2, 14460, Note_on_c, 0, 71, 0
2, 14460, Note_on_c, 0, 69, 80
2, 14520, Note_on_c, 0, 69, 0
2, 14520, Note_on_c, 0, 67, 80
2, 14580, Note_on_c, 0, 67, 0
2, 14580, Note_on_c, 0, 69, 80
2, 14640, Note_on_c, 0, 69, 0
2, 14640, Note_on_c, 0, 67, 80
2, 14760, Note_on_c, 0, 67, 0
2, 14760, Note_on_c, 0, 76, 80
2, 14808, Note_on_c, 0, 76, 0
2, 14880, Note_on_c, 0, 76, 80
2, 14928, Note_on_c, 0, 76, 0
2, 15000, Note_on_c, 0, 76, 80
2, 15048, Note_on_c, 0, 76, 0
2, 15120, Note_on_c, 0, 76, 80
2, 15168, Note_on_c, 0, 76, 0
2, 15240, Note_on_c, 0, 76, 80
2, 15312, Note_on_c, 0, 76, 0
2, 15360, Note_on_c, 0, 76, 80
2, 15540, Note_on_c, 0, 76, 0
2, 15540, Note_on_c, 0, 79, 80
2, 15570, Note_on_c, 0, 79, 0
2, 15570, Note_on_c, 0, 81, 80
2, 15600, Note_on_c, 0, 81, 0
2, 15600, Note_on_c, 0, 83, 80
2, 15780, Note_on_c, 0, 83, 0
2, 15780, Note_on_c, 0, 79, 80
2, 15810, Note_on_c, 0, 79, 0
2, 15810, Note_on_c, 0, 76, 80
2, 15840, Note_on_c, 0, 76, 0
2, 15840, Note_on_c, 0, 74, 80
2, 16080, Note_on_c, 0, 74, 0
2, 16080, Note_on_c, 0, 73, 80
2, 16110, Note_on_c, 0, 73, 0
2, 16110, Note_on_c, 0, 74, 80
2, 16140, Note_on_c, 0, 74, 0
2, 16140, Note_on_c, 0, 73, 80
2, 16170, Note_on_c, 0, 73, 0
2, 16170, Note_on_c, 0, 74, 80
2, 16200, Note_on_c, 0, 74, 0
2, 16200, Note_on_c, 0, 73, 80
2, 16220, Note_on_c, 0, 73, 0
2, 16220, Note_on_c, 0, 74, 80
2, 16240, Note_on_c, 0, 74, 0
2, 16240, Note_on_c, 0, 73, 80
2, 16260, Note_on_c, 0, 73, 0
2, 16260, Note_on_c, 0, 71, 80
2, 16290, Note_on_c, 0, 71, 0
2, 16290, Note_on_c, 0, 73, 80
2, 16320, Note_on_c, 0, 73, 0
2, 16320, Note_on_c, 0, 74, 80
2, 16380, Note_on_c, 0, 74, 0
2, 16380, Note_on_c, 0, 76, 80
2, 16440, Note_on_c, 0, 76, 0
2, 16440, Note_on_c, 0, 78, 80
2, 16500, Note_on_c, 0, 78, 0
2, 16500, Note_on_c, 0, 79, 80
2, 16560, Note_on_c, 0, 79, 0
2, 16560, Note_on_c, 0, 81, 80
2, 16620, Note_on_c, 0, 81, 0
2, 16620, Note_on_c, 0, 78, 80
2, 16680, Note_on_c, 0, 78, 0
2, 16680, Note_on_c, 0, 76, 80
2, 16740, Note_on_c, 0, 76, 0
2, 16740, Note_on_c, 0, 74, 80
2, 16800, Note_on_c, 0, 74, 0
2, 16800, Note_on_c, 0, 73, 80
2, 16860, Note_on_c, 0, 73, 0
2, 16860, Note_on_c, 0, 74, 80
2, 16920, Note_on_c, 0, 74, 0
2, 16920, Note_on_c, 0, 76, 80
2, 16980, Note_on_c, 0, 76, 0
2, 16980, Note_on_c, 0, 78, 80
2, 17040, Note_on_c, 0, 78, 0
2, 17040, Note_on_c, 0, 79, 80
2, 17100, Note_on_c, 0, 79, 0
2, 17100, Note_on_c, 0, 76, 80
2, 17160, Note_on_c, 0, 76, 0
2, 17160, Note_on_c, 0, 74, 80
2, 17220, Note_on_c, 0, 74, 0
2, 17220, Note_on_c, 0, 73, 80
2, 17280, Note_on_c, 0, 73, 0
2, 17280, Note_on_c, 0, 74, 56
2, 17340, Note_on_c, 0, 74, 0
2, 17340, Note_on_c, 0, 76, 58
2, 17400, Note_on_c, 0, 76, 0
2, 17400, Note_on_c, 0, 78, 59
2, 17460, Note_on_c, 0, 78, 0
2, 17460, Note_on_c, 0, 79, 61
2, 17520, Note_on_c, 0, 79, 0
2, 17520, Note_on_c, 0, 81, 62
2, 17580, Note_on_c, 0, 81, 0
2, 17580, Note_on_c, 0, 78, 64
2, 17640, Note_on_c, 0, 78, 0
2, 17640, Note_on_c, 0, 76, 65
2, 17700, Note_on_c, 0, 76, 0
2, 17700, Note_on_c, 0, 74, 67
2, 17760, Note_on_c, 0, 74, 0
2, 17760, Note_on_c, 0, 73, 68
2, 17820, Note_on_c, 0, 73, 0
2, 17820, Note_on_c, 0, 74, 70
2, 17880, Note_on_c, 0, 74, 0
2, 17880, Note_on_c, 0, 76, 71
2, 17940, Note_on_c, 0, 76, 0
2, 17940, Note_on_c, 0, 78, 73
2, 18000, Note_on_c, 0, 78, 0
2, 18000, Note_on_c, 0, 79, 74
2, 18060, Note_on_c, 0, 79, 0
2, 18060, Note_on_c, 0, 76, 76
2, 18120, Note_on_c, 0, 76, 0
2, 18120, Note_on_c, 0, 74, 77
2, 18180, Note_on_c, 0, 74, 0
2, 18180, Note_on_c, 0, 73, 79
2, 18240, Note_on_c, 0, 73, 0
2, 18240, Note_on_c, 0, 74, 80
2, 18408, Note_on_c, 0, 74, 0
2, 18450, Note_on_c, 0, 85, 80
2, 18474, Note_on_c, 0, 85, 0
2, 18480, Note_on_c, 0, 86, 96
2, 18648, Note_on_c, 0, 86, 0
2, 19200, Note_on_c, 0, 77, 56
2, 19380, Note_on_c, 0, 77, 0
2, 19380, Note_on_c, 0, 74, 56
2, 19410, Note_on_c, 0, 74, 0
2, 19410, Note_on_c, 0, 75, 56
2, 19440, Note_on_c, 0, 75, 0
2, 19440, Note_on_c, 0, 77, 56
2, 19560, Note_on_c, 0, 77, 0
2, 19800, Note_on_c, 0, 69, 56
2, 19848, Note_on_c, 0, 69, 0
2, 19920, Note_on_c, 0, 69, 56
2, 19968, Note_on_c, 0, 69, 0
2, 20040, Note_on_c, 0, 69, 56
2, 20088, Note_on_c, 0, 69, 0
2, 20160, Note_on_c, 0, 70, 56
2, 20340, Note_on_c, 0, 70, 0
2, 20340, Note_on_c, 0, 70, 56
2, 20370, Note_on_c, 0, 70, 0
2, 20370, Note_on_c, 0, 72, 56
2, 20400, Note_on_c, 0, 72, 0
2, 20400, Note_on_c, 0, 74, 56
2, 20520, Note_on_c, 0, 74, 0
2, 20760, Note_on_c, 0, 66, 56
2, 20808, Note_on_c, 0, 66, 0
2, 20880, Note_on_c, 0, 66, 56
2, 20928, Note_on_c, 0, 66, 0
2, 21000, Note_on_c, 0, 66, 56
2, 21048, Note_on_c, 0, 66, 0
2, 21120, Note_on_c, 0, 67, 56
2, 21300, Note_on_c, 0, 67, 0
2, 21300, Note_on_c, 0, 67, 56
2, 21330, Note_on_c, 0, 67, 0
2, 21330, Note_on_c, 0, 69, 56
2, 21360, Note_on_c, 0, 69, 0
2, 21360, Note_on_c, 0, 70, 56
2, 21480, Note_on_c, 0, 70, 0
2, 21720, Note_on_c, 0, 61, 56
2, 21768, Note_on_c, 0, 61, 0
2, 21840, Note_on_c, 0, 61, 56
2, 21888, Note_on_c, 0, 61, 0
2, 21960, Note_on_c, 0, 61, 56
2, 22008, Note_on_c, 0, 61, 0
2, 22080, Note_on_c, 0, 62, 80
2, 22260, Note_on_c, 0, 62, 0
2, 22260, Note_on_c, 0, 54, 80
2, 22290, Note_on_c, 0, 54, 0
2, 22290, Note_on_c, 0, 55, 80
2, 22320, Note_on_c, 0, 55, 0
2, 22320, Note_on_c, 0, 57, 80
2, 22368, Note_on_c, 0, 57, 0
2, 22440, Note_on_c, 0, 54, 80
2, 22488, Note_on_c, 0, 54, 0
2, 22560, Note_on_c, 0, 50, 80
2, 22800, Note_on_c, 0, 50, 0
2, 23040, Note_on_c, 0, 67, 80
2, 23220, Note_on_c, 0, 67, 0
2, 23220, Note_on_c, 0, 71, 80
2, 23250, Note_on_c, 0, 71, 0
2, 23250, Note_on_c, 0, 69, 80
2, 23280, Note_on_c, 0, 69, 0
2, 23280, Note_on_c, 0, 67, 80
2, 23400, Note_on_c, 0, 67, 0
2, 23640, Note_on_c, 0, 62, 80
2, 23688, Note_on_c, 0, 62, 0
2, 23760, Note_on_c, 0, 67, 80
2, 23808, Note_on_c, 0, 67, 0
2, 23880, Note_on_c, 0, 71, 80
2, 23928, Note_on_c, 0, 71, 0
2, 24000, Note_on_c, 0, 71, 80
2, 24060, Note_on_c, 0, 71, 0
2, 24060, Note_on_c, 0, 69, 80
2, 24120, Note_on_c, 0, 69, 0
2, 24120, Note_on_c, 0, 67, 80
2, 24180, Note_on_c, 0, 67, 0
2, 24180, Note_on_c, 0, 69, 80
2, 24240, Note_on_c, 0, 69, 0
2, 24240, Note_on_c, 0, 67, 80
2, 24360, Note_on_c, 0, 67, 0
2, 24360, Note_on_c, 0, 76, 80
2, 24408, Note_on_c, 0, 76, 0
2, 24480, Note_on_c, 0, 76, 80
2, 24528, Note_on_c, 0, 76, 0
2, 24600, Note_on_c, 0, 76, 80
2, 24648, Note_on_c, 0, 76, 0
2, 24720, Note_on_c, 0, 76, 80
2, 24768, Note_on_c, 0, 76, 0
2, 24840, Note_on_c, 0, 76, 80
2, 24888, Note_on_c, 0, 76, 0
2, 24960, Note_on_c, 0, 76, 80
2, 25140, Note_on_c, 0, 76, 0
2, 25140, Note_on_c, 0, 81, 80
2, 25170, Note_on_c, 0, 81, 0
2, 25170, Note_on_c, 0, 83, 80
2, 25200, Note_on_c, 0, 83, 0
2, 25200, Note_on_c, 0, 84, 80
2, 25320, Note_on_c, 0, 84, 0
2, 25320, Note_on_c, 0, 74, 80
2, 25368, Note_on_c, 0, 74, 0
2, 25440, Note_on_c, 0, 74, 80
2, 25488, Note_on_c, 0, 74, 0
2, 25560, Note_on_c, 0, 74, 80
2, 25608, Note_on_c, 0, 74, 0
2, 25680, Note_on_c, 0, 74, 80
2, 25728, Note_on_c, 0, 74, 0
2, 25800, Note_on_c, 0, 74, 80
2, 25848, Note_on_c, 0, 74, 0
2, 25920, Note_on_c, 0, 74, 80
2, 26100, Note_on_c, 0, 74, 0
2, 26100, Note_on_c, 0, 79, 80
2, 26130, Note_on_c, 0, 79, 0
2, 26130, Note_on_c, 0, 81, 80
2, 26160, Note_on_c, 0, 81, 0
2, 26160, Note_on_c, 0, 83, 80
2, 26280, Note_on_c, 0, 83, 0
2, 27300, Note_on_c, 0, 83, 56
2, 27330, Note_on_c, 0, 83, 0
2, 27330, Note_on_c, 0, 81, 56
2, 27360, Note_on_c, 0, 81, 0
2, 27360, Note_on_c, 0, 79, 56
2, 27432, Note_on_c, 0, 79, 0
2, 27540, Note_on_c, 0, 79, 56
2, 27570, Note_on_c, 0, 79, 0
2, 27570, Note_on_c, 0, 78, 56
2, 27600, Note_on_c, 0, 78, 0
2, 27600, Note_on_c, 0, 76, 56
2, 27720, Note_on_c, 0, 76, 0
2, 27780, Note_on_c, 0, 76, 56
2, 27810, Note_on_c, 0, 76, 0
2, 27810, Note_on_c, 0, 74, 56
2, 27840, Note_on_c, 0, 74, 0
2, 27840, Note_on_c, 0, 72, 56
2, 28080, Note_on_c, 0, 72, 0
2, 28260, Note_on_c, 0, 75, 80
2, 28290, Note_on_c, 0, 75, 0
2, 28290, Note_on_c, 0, 74, 80
2, 28320, Note_on_c, 0, 74, 0
2, 28320, Note_on_c, 0, 72, 80
2, 28368, Note_on_c, 0, 72, 0
2, 28440, Note_on_c, 0, 72, 80
2, 28488, Note_on_c, 0, 72, 0
2, 28560, Note_on_c, 0, 72, 80
2, 28608, Note_on_c, 0, 72, 0
2, 28680, Note_on_c, 0, 72, 80
2, 28728, Note_on_c, 0, 72, 0
2, 28800, Note_on_c, 0, 72, 80
2, 28980, Note_on_c, 0, 72, 0
2, 28980, Note_on_c, 0, 74, 80
2, 29010, Note_on_c, 0, 74, 0
2, 29010, Note_on_c, 0, 72, 80
2, 29040, Note_on_c, 0, 72, 0
2, 29040, Note_on_c, 0, 71, 80
2, 29088, Note_on_c, 0, 71, 0
2, 29160, Note_on_c, 0, 71, 80
2, 29208, Note_on_c, 0, 71, 0
2, 29280, Note_on_c, 0, 69, 80
2, 29400, Note_on_c, 0, 69, 0
2, 29400, Note_on_c, 0, 76, 80
2, 29448, Note_on_c, 0, 76, 0
2, 29520, Note_on_c, 0, 74, 80
2, 29568, Note_on_c, 0, 74, 0
2, 29640, Note_on_c, 0, 66, 80
2, 29688, Note_on_c, 0, 66, 0
2, 29760, Note_on_c, 0, 67, 80
2, 29820, Note_on_c, 0, 67, 0
2, 29820, Note_on_c, 0, 69, 80
2, 29880, Note_on_c, 0, 69, 0
2, 29880, Note_on_c, 0, 71, 80
2, 29940, Note_on_c, 0, 71, 0
2, 29940, Note_on_c, 0, 72, 80
2, 30000, Note_on_c, 0, 72, 0
2, 30000, Note_on_c, 0, 74, 80
2, 30060, Note_on_c, 0, 74, 0
2, 30060, Note_on_c, 0, 71, 80
2, 30120, Note_on_c, 0, 71, 0
2, 30120, Note_on_c, 0, 69, 80
2, 30180, Note_on_c, 0, 69, 0
2, 30180, Note_on_c, 0, 67, 80
2, 30240, Note_on_c, 0, 67, 0
2, 30240, Note_on_c, 0, 66, 80
2, 30300, Note_on_c, 0, 66, 0
2, 30300, Note_on_c, 0, 67, 80
2, 30360, Note_on_c, 0, 67, 0
2, 30360, Note_on_c, 0, 69, 80
2, 30420, Note_on_c, 0, 69, 0
2, 30420, Note_on_c, 0, 71, 80
2, 30480, Note_on_c, 0, 71, 0
2, 30480, Note_on_c, 0, 72, 80
2, 30540, Note_on_c, 0, 72, 0
2, 30540, Note_on_c, 0, 69, 80
2, 30600, Note_on_c, 0, 69, 0
2, 30600, Note_on_c, 0, 67, 80
2, 30660, Note_on_c, 0, 67, 0
2, 30660, Note_on_c, 0, 66, 80
2, 30720, Note_on_c, 0, 66, 0
2, 30720, Note_on_c, 0, 67, 64
2, 30780, Note_on_c, 0, 67, 0
2, 30780, Note_on_c, 0, 69, 65
2, 30840, Note_on_c, 0, 69, 0
2, 30840, Note_on_c, 0, 71, 66
2, 30900, Note_on_c, 0, 71, 0
2, 30900, Note_on_c, 0, 72, 67
2, 30960, Note_on_c, 0, 72, 0
2, 30960, Note_on_c, 0, 74, 68
2, 31020, Note_on_c, 0, 74, 0
2, 31020, Note_on_c, 0, 71, 69
2, 31080, Note_on_c, 0, 71, 0
2, 31080, Note_on_c, 0, 69, 70
2, 31140, Note_on_c, 0, 69, 0
2, 31140, Note_on_c, 0, 67, 71
2, 31200, Note_on_c, 0, 67, 0
2, 31200, Note_on_c, 0, 66, 72
2, 31260, Note_on_c, 0, 66, 0
2, 31260, Note_on_c, 0, 67, 73
2, 31320, Note_on_c, 0, 67, 0
2, 31320, Note_on_c, 0, 69, 74
2, 31380, Note_on_c, 0, 69, 0
2, 31380, Note_on_c, 0, 71, 75
2, 31440, Note_on_c, 0, 71, 0
2, 31440, Note_on_c, 0, 72, 76
2, 31500, Note_on_c, 0, 72, 0
2, 31500, Note_on_c, 0, 69, 77
2, 31560, Note_on_c, 0, 69, 0
2, 31560, Note_on_c, 0, 67, 78
2, 31620, Note_on_c, 0, 67, 0
2, 31620, Note_on_c, 0, 66, 79
2, 31680, Note_on_c, 0, 66, 0
2, 31680, Note_on_c, 0, 67, 80
2, 31827, Note_on_c, 0, 67, 0
2, 31890, Note_on_c, 0, 78, 80
2, 31920, Note_on_c, 0, 78, 0
2, 31920, Note_on_c, 0, 79, 96
2, 32088, Note_on_c, 0, 79, 0
2, 32640, Note_on_c, 0, 77, 56
2, 32820, Note_on_c, 0, 77, 0
2, 32820, Note_on_c, 0, 74, 56
2, 32850, Note_on_c, 0, 74, 0
2, 32850, Note_on_c, 0, 75, 56
2, 32880, Note_on_c, 0, 75, 0
2, 32880, Note_on_c, 0, 77, 56
2, 33000, Note_on_c, 0, 77, 0
2, 33240, Note_on_c, 0, 69, 56
2, 33288, Note_on_c, 0, 69, 0
2, 33360, Note_on_c, 0, 69, 56
2, 33408, Note_on_c, 0, 69, 0
2, 33480, Note_on_c, 0, 69, 56
2, 33528, Note_on_c, 0, 69, 0
2, 33600, Note_on_c, 0, 70, 56
2, 33780, Note_on_c, 0, 70, 0
2, 33780, Note_on_c, 0, 70, 56
2, 33810, Note_on_c, 0, 70, 0
2, 33810, Note_on_c, 0, 72, 56
2, 33840, Note_on_c, 0, 72, 0
2, 33840, Note_on_c, 0, 74, 56
2, 33960, Note_on_c, 0, 74, 0
2, 34200, Note_on_c, 0, 66, 56
2, 34248, Note_on_c, 0, 66, 0
2, 34320, Note_on_c, 0, 66, 56
2, 34368, Note_on_c, 0, 66, 0
2, 34440, Note_on_c, 0, 66, 56
2, 34488, Note_on_c, 0, 66, 0
2, 34560, Note_on_c, 0, 67, 56
2, 34740, Note_on_c, 0, 67, 0
2, 34740, Note_on_c, 0, 67, 56
2, 34770, Note_on_c, 0, 67, 0
2, 34770, Note_on_c, 0, 69, 56
2, 34800, Note_on_c, 0, 69, 0
2, 34800, Note_on_c, 0, 70, 56
2, 34920, Note_on_c, 0, 70, 0
2, 35160, Note_on_c, 0, 61, 56
2, 35208, Note_on_c, 0, 61, 0
2, 35280, Note_on_c, 0, 61, 56
2, 35328, Note_on_c, 0, 61, 0
2, 35400, Note_on_c, 0, 61, 56
2, 35448, Note_on_c, 0, 61, 0
2, 35520, Note_on_c, 0, 62, 80
2, 35700, Note_on_c, 0, 62, 0
2, 35700, Note_on_c, 0, 54, 80
2, 35730, Note_on_c, 0, 54, 0
2, 35730, Note_on_c, 0, 55, 80
2, 35760, Note_on_c, 0, 55, 0
2, 35760, Note_on_c, 0, 57, 80
2, 35808, Note_on_c, 0, 57, 0
2, 35880, Note_on_c, 0, 54, 80
2, 35928, Note_on_c, 0, 54, 0
2, 36000, Note_on_c, 0, 50, 80
2, 36240, Note_on_c, 0, 50, 0
2, 36480, Note_on_c, 0, 67, 80
2, 36660, Note_on_c, 0, 67, 0
2, 36660, Note_on_c, 0, 71, 80
2, 36690, Note_on_c, 0, 71, 0
2, 36690, Note_on_c, 0, 69, 80
2, 36720, Note_on_c, 0, 69, 0
2, 36720, Note_on_c, 0, 67, 80
2, 36840, Note_on_c, 0, 67, 0
2, 37080, Note_on_c, 0, 62, 80
2, 37128, Note_on_c, 0, 62, 0
2, 37200, Note_on_c, 0, 67, 80
2, 37248, Note_on_c, 0, 67, 0
2, 37320, Note_on_c, 0, 71, 80
2, 37368, Note_on_c, 0, 71, 0
2, 37440, Note_on_c, 0, 71, 80
2, 37500, Note_on_c, 0, 71, 0
2, 37500, Note_on_c, 0, 69, 80
2, 37560, Note_on_c, 0, 69, 0
2, 37560, Note_on_c, 0, 67, 80
2, 37620, Note_on_c, 0, 67, 0
2, 37620, Note_on_c, 0, 69, 80
2, 37680, Note_on_c, 0, 69, 0
2, 37680, Note_on_c, 0, 67, 80
2, 37800, Note_on_c, 0, 67, 0
2, 37800, Note_on_c, 0, 76, 80
2, 37848, Note_on_c, 0, 76, 0
2, 37920, Note_on_c, 0, 76, 80
2, 37968, Note_on_c, 0, 76, 0
2, 38040, Note_on_c, 0, 76, 80
2, 38088, Note_on_c, 0, 76, 0
2, 38160, Note_on_c, 0, 76, 80
2, 38208, Note_on_c, 0, 76, 0
2, 38280, Note_on_c, 0, 76, 80
2, 38328, Note_on_c, 0, 76, 0
2, 38400, Note_on_c, 0, 76, 80
2, 38580, Note_on_c, 0, 76, 0
2, 38580, Note_on_c, 0, 81, 80
2, 38610, Note_on_c, 0, 81, 0
2, 38610, Note_on_c, 0, 83, 80
2, 38640, Note_on_c, 0, 83, 0
2, 38640, Note_on_c, 0, 84, 80
2, 38760, Note_on_c, 0, 84, 0
2, 38760, Note_on_c, 0, 74, 80
2, 38808, Note_on_c, 0, 74, 0
2, 38880, Note_on_c, 0, 74, 80
2, 38928, Note_on_c, 0, 74, 0
2, 39000, Note_on_c, 0, 74, 80
2, 39048, Note_on_c, 0, 74, 0
2, 39120, Note_on_c, 0, 74, 80
2, 39168, Note_on_c, 0, 74, 0
2, 39240, Note_on_c, 0, 74, 80
2, 39288, Note_on_c, 0, 74, 0
2, 39360, Note_on_c, 0, 74, 80
2, 39540, Note_on_c, 0, 74, 0
2, 39540, Note_on_c, 0, 79, 80
2, 39570, Note_on_c, 0, 79, 0
2, 39570, Note_on_c, 0, 81, 80
2, 39600, Note_on_c, 0, 81, 0
2, 39600, Note_on_c, 0, 83, 80
2, 39720, Note_on_c, 0, 83, 0
2, 40740, Note_on_c, 0, 83, 56
2, 40770, Note_on_c, 0, 83, 0
2, 40770, Note_on_c, 0, 81, 56
2, 40800, Note_on_c, 0, 81, 0
2, 40800, Note_on_c, 0, 79, 56
2, 40872, Note_on_c, 0, 79, 0
2, 40980, Note_on_c, 0, 79, 56
2, 41010, Note_on_c, 0, 79, 0
2, 41010, Note_on_c, 0, 78, 56
2, 41040, Note_on_c, 0, 78, 0
2, 41040, Note_on_c, 0, 76, 56
2, 41160, Note_on_c, 0, 76, 0
2, 41220, Note_on_c, 0, 76, 56
2, 41250, Note_on_c, 0, 76, 0
2, 41250, Note_on_c, 0, 74, 56
2, 41280, Note_on_c, 0, 74, 0
2, 41280, Note_on_c, 0, 72, 56
2, 41520, Note_on_c, 0, 72, 0
2, 41700, Note_on_c, 0, 75, 80
2, 41730, Note_on_c, 0, 75, 0
2, 41730, Note_on_c, 0, 74, 80
2, 41760, Note_on_c, 0, 74, 0
2, 41760, Note_on_c, 0, 72, 80
2, 41808, Note_on_c, 0, 72, 0
2, 41880, Note_on_c, 0, 72, 80
2, 41928, Note_on_c, 0, 72, 0
2, 42000, Note_on_c, 0, 72, 80
2, 42048, Note_on_c, 0, 72, 0
2, 42120, Note_on_c, 0, 72, 80
2, 42168, Note_on_c, 0, 72, 0
2, 42240, Note_on_c, 0, 72, 80
2, 42420, Note_on_c, 0, 72, 0
2, 42420, Note_on_c, 0, 74, 80
2, 42450, Note_on_c, 0, 74, 0
2, 42450, Note_on_c, 0, 72, 80
2, 42480, Note_on_c, 0, 72, 0
2, 42480, Note_on_c, 0, 71, 80
2, 42528, Note_on_c, 0, 71, 0
2, 42600, Note_on_c, 0, 71, 80
2, 42648, Note_on_c, 0, 71, 0
2, 42720, Note_on_c, 0, 69, 80
2, 42840, Note_on_c, 0, 69, 0
2, 42840, Note_on_c, 0, 76, 80
2, 42888, Note_on_c, 0, 76, 0
2, 42960, Note_on_c, 0, 74, 80
2, 43008, Note_on_c, 0, 74, 0
2, 43080, Note_on_c, 0, 66, 80
2, 43128, Note_on_c, 0, 66, 0
2, 43200, Note_on_c, 0, 67, 80
2, 43260, Note_on_c, 0, 67, 0
2, 43260, Note_on_c, 0, 69, 80
2, 43320, Note_on_c, 0, 69, 0
2, 43320, Note_on_c, 0, 71, 80
2, 43380, Note_on_c, 0, 71, 0
2, 43380, Note_on_c, 0, 72, 80
2, 43440, Note_on_c, 0, 72, 0
2, 43440, Note_on_c, 0, 74, 80
2, 43500, Note_on_c, 0, 74, 0
2, 43500, Note_on_c, 0, 71, 80
2, 43560, Note_on_c, 0, 71, 0
2, 43560, Note_on_c, 0, 69, 80
2, 43620, Note_on_c, 0, 69, 0
2, 43620, Note_on_c, 0, 67, 80
2, 43680, Note_on_c, 0, 67, 0
2, 43680, Note_on_c, 0, 66, 80
2, 43740, Note_on_c, 0, 66, 0
2, 43740, Note_on_c, 0, 67, 80
2, 43800, Note_on_c, 0, 67, 0
2, 43800, Note_on_c, 0, 69, 80
2, 43860, Note_on_c, 0, 69, 0
2, 43860, Note_on_c, 0, 71, 80
2, 43920, Note_on_c, 0, 71, 0
2, 43920, Note_on_c, 0, 72, 80
2, 43980, Note_on_c, 0, 72, 0
2, 43980, Note_on_c, 0, 69, 80
2, 44040, Note_on_c, 0, 69, 0
2, 44040, Note_on_c, 0, 67, 80
2, 44100, Note_on_c, 0, 67, 0
2, 44100, Note_on_c, 0, 66, 80
2, 44160, Note_on_c, 0, 66, 0
2, 44160, Note_on_c, 0, 67, 64
2, 44220, Note_on_c, 0, 67, 0
2, 44220, Note_on_c, 0, 69, 65
2, 44280, Note_on_c, 0, 69, 0
2, 44280, Note_on_c, 0, 71, 66
2, 44340, Note_on_c, 0, 71, 0
2, 44340, Note_on_c, 0, 72, 67
2, 44400, Note_on_c, 0, 72, 0
2, 44400, Note_on_c, 0, 74, 68
2, 44460, Note_on_c, 0, 74, 0
2, 44460, Note_on_c, 0, 71, 69
2, 44520, Note_on_c, 0, 71, 0
2, 44520, Note_on_c, 0, 69, 70
2, 44580, Note_on_c, 0, 69, 0
2, 44580, Note_on_c, 0, 67, 71
2, 44640, Note_on_c, 0, 67, 0
2, 44640, Note_on_c, 0, 66, 72
2, 44700, Note_on_c, 0, 66, 0
2, 44700, Note_on_c, 0, 67, 73
2, 44760, Note_on_c, 0, 67, 0
2, 44760, Note_on_c, 0, 69, 74
2, 44820, Note_on_c, 0, 69, 0
2, 44820, Note_on_c, 0, 71, 75
2, 44880, Note_on_c, 0, 71, 0
2, 44880, Note_on_c, 0, 72, 76
2, 44940, Note_on_c, 0, 72, 0
2, 44940, Note_on_c, 0, 69, 77
2, 45000, Note_on_c, 0, 69, 0
2, 45000, Note_on_c, 0, 67, 78
2, 45060, Note_on_c, 0, 67, 0
2, 45060, Note_on_c, 0, 66, 79
2, 45120, Note_on_c, 0, 66, 0
2, 45120, Note_on_c, 0, 67, 80
2, 45267, Note_on_c, 0, 67, 0
2, 45330, Note_on_c, 0, 78, 80
2, 45360, Note_on_c, 0, 78, 0
2, 45360, Note_on_c, 0, 79, 96
2, 45528, Note_on_c, 0, 79, 0
2, 46200, Note_on_c, 0, 64, 80
2, 46320, Note_on_c, 0, 64, 0
2, 46320, Note_on_c, 0, 76, 80
2, 46680, Note_on_c, 0, 76, 0
2, 46680, Note_on_c, 0, 75, 80
2, 46800, Note_on_c, 0, 75, 0
2, 46800, Note_on_c, 0, 78, 80
2, 47160, Note_on_c, 0, 78, 0
2, 47160, Note_on_c, 0, 76, 80
2, 47280, Note_on_c, 0, 76, 0
2, 47280, Note_on_c, 0, 79, 80
2, 47640, Note_on_c, 0, 79, 0
2, 47640, Note_on_c, 0, 78, 80
2, 47760, Note_on_c, 0, 78, 0
2, 47760, Note_on_c, 0, 83, 80
2, 48120, Note_on_c, 0, 83, 0
2, 48120, Note_on_c, 0, 82, 80
2, 48240, Note_on_c, 0, 82, 0
2, 48240, Note_on_c, 0, 85, 80
2, 48240, Note_on_c, 0, 88, 80
2, 48600, Note_on_c, 0, 88, 0
2, 48600, Note_on_c, 0, 85, 0
2, 48600, Note_on_c, 0, 83, 80
2, 48600, Note_on_c, 0, 86, 80
2, 48696, Note_on_c, 0, 86, 0
2, 48696, Note_on_c, 0, 83, 0
2, 48840, Note_on_c, 0, 76, 80
2, 48840, Note_on_c, 0, 85, 80
2, 48972, Note_on_c, 0, 85, 0
2, 48972, Note_on_c, 0, 76, 0
2, 49080, Note_on_c, 0, 74, 80
2, 49080, Note_on_c, 0, 83, 80
2, 49176, Note_on_c, 0, 83, 0
2, 49176, Note_on_c, 0, 74, 0
2, 49320, Note_on_c, 0, 73, 80
2, 49320, Note_on_c, 0, 82, 80
2, 49428, Note_on_c, 0, 82, 0
2, 49428, Note_on_c, 0, 73, 0
2, 49560, Note_on_c, 0, 71, 80
2, 49668, Note_on_c, 0, 71, 0
2, 49680, Note_on_c, 0, 83, 80
2, 49788, Note_on_c, 0, 83, 0
2, 50040, Note_on_c, 0, 64, 56
2, 50160, Note_on_c, 0, 64, 0
2, 50160, Note_on_c, 0, 76, 56
2, 50520, Note_on_c, 0, 76, 0
2, 50520, Note_on_c, 0, 75, 56
2, 50640, Note_on_c, 0, 75, 0
2, 50640, Note_on_c, 0, 78, 56
2, 51000, Note_on_c, 0, 78, 0
2, 51000, Note_on_c, 0, 76, 56
2, 51120, Note_on_c, 0, 76, 0
2, 51120, Note_on_c, 0, 79, 56
2, 51480, Note_on_c, 0, 79, 0
2, 51480, Note_on_c, 0, 78, 56
2, 51600, Note_on_c, 0, 78, 0
2, 51600, Note_on_c, 0, 83, 56
2, 51960, Note_on_c, 0, 83, 0
2, 51960, Note_on_c, 0, 82, 56
2, 52080, Note_on_c, 0, 82, 0
2, 52080, Note_on_c, 0, 88, 56
2, 52080, Note_on_c, 0, 85, 56
2, 52440, Note_on_c, 0, 85, 0
2, 52440, Note_on_c, 0, 88, 0
2, 52440, Note_on_c, 0, 83, 56
2, 52440, Note_on_c, 0, 86, 56
2, 52536, Note_on_c, 0, 86, 0
2, 52536, Note_on_c, 0, 83, 0
2, 52680, Note_on_c, 0, 76, 56
2, 52680, Note_on_c, 0, 85, 56
2, 52812, Note_on_c, 0, 85, 0
2, 52812, Note_on_c, 0, 76, 0
2, 52920, Note_on_c, 0, 74, 56
2, 52920, Note_on_c, 0, 83, 56
2, 53016, Note_on_c, 0, 83, 0
2, 53016, Note_on_c, 0, 74, 0
2, 53160, Note_on_c, 0, 73, 56
2, 53160, Note_on_c, 0, 82, 56
2, 53280, Note_on_c, 0, 82, 0
2, 53280, Note_on_c, 0, 73, 0
2, 53400, Note_on_c, 0, 71, 56
2, 53520, Note_on_c, 0, 71, 0
2, 53520, Note_on_c, 0, 83, 56
2, 53640, Note_on_c, 0, 83, 0
2, 53880, Note_on_c, 0, 69, 80
2, 54000, Note_on_c, 0, 69, 0
2, 54000, Note_on_c, 0, 81, 80
2, 54360, Note_on_c, 0, 81, 0
2, 54360, Note_on_c, 0, 80, 80
2, 54480, Note_on_c, 0, 80, 0
2, 54480, Note_on_c, 0, 86, 80
2, 54732, Note_on_c, 0, 86, 0
2, 54840, Note_on_c, 0, 84, 80
2, 54936, Note_on_c, 0, 84, 0
2, 55080, Note_on_c, 0, 83, 80
2, 55176, Note_on_c, 0, 83, 0
2, 55320, Note_on_c, 0, 81, 80
2, 55440, Note_on_c, 0, 81, 0
2, 55560, Note_on_c, 0, 78, 56
2, 55680, Note_on_c, 0, 78, 0
2, 55680, Note_on_c, 0, 79, 56
2, 56040, Note_on_c, 0, 79, 0
2, 56040, Note_on_c, 0, 78, 56
2, 56160, Note_on_c, 0, 78, 0
2, 56160, Note_on_c, 0, 81, 56
2, 56160, Note_on_c, 0, 84, 56
2, 56520, Note_on_c, 0, 84, 0
2, 56520, Note_on_c, 0, 81, 0
2, 56520, Note_on_c, 0, 79, 56
2, 56520, Note_on_c, 0, 83, 56
2, 56652, Note_on_c, 0, 83, 0
2, 56652, Note_on_c, 0, 79, 0
2, 56760, Note_on_c, 0, 78, 56
2, 56760, Note_on_c, 0, 81, 56
2, 56856, Note_on_c, 0, 81, 0
2, 56856, Note_on_c, 0, 78, 0
2, 57000, Note_on_c, 0, 76, 56
2, 57000, Note_on_c, 0, 79, 56
2, 57096, Note_on_c, 0, 79, 0
2, 57096, Note_on_c, 0, 76, 0
2, 57240, Note_on_c, 0, 75, 56
2, 57240, Note_on_c, 0, 78, 56
2, 57360, Note_on_c, 0, 78, 0
2, 57360, Note_on_c, 0, 75, 0
2, 57360, Note_on_c, 0, 83, 80
2, 57420, Note_on_c, 0, 83, 0
2, 57420, Note_on_c, 0, 81, 80
2, 57480, Note_on_c, 0, 81, 0
2, 57480, Note_on_c, 0, 79, 80
2, 57540, Note_on_c, 0, 79, 0
2, 57540, Note_on_c, 0, 78, 80
2, 57600, Note_on_c, 0, 78, 0
2, 57600, Note_on_c, 0, 76, 80
2, 57840, Note_on_c, 0, 76, 0
2, 57960, Note_on_c, 0, 67, 80
2, 57960, Note_on_c, 0, 76, 80
2, 58080, Note_on_c, 0, 76, 0
2, 58080, Note_on_c, 0, 67, 0
2, 58080, Note_on_c, 0, 69, 80
2, 58080, Note_on_c, 0, 78, 80
2, 58440, Note_on_c, 0, 78, 0
2, 58440, Note_on_c, 0, 69, 0
2, 58440, Note_on_c, 0, 69, 80
2, 58440, Note_on_c, 0, 78, 80
2, 58560, Note_on_c, 0, 78, 0
2, 58560, Note_on_c, 0, 69, 0
2, 58560, Note_on_c, 0, 71, 80
2, 58560, Note_on_c, 0, 79, 80
2, 58920, Note_on_c, 0, 79, 0
2, 58920, Note_on_c, 0, 71, 0
2, 58920, Note_on_c, 0, 71, 80
2, 58920, Note_on_c, 0, 79, 80
2, 59040, Note_on_c, 0, 79, 0
2, 59040, Note_on_c, 0, 71, 0
2, 59040, Note_on_c, 0, 72, 80
2, 59040, Note_on_c, 0, 81, 80
2, 59400, Note_on_c, 0, 81, 0
2, 59400, Note_on_c, 0, 72, 0
2, 59400, Note_on_c, 0, 78, 80
2, 59520, Note_on_c, 0, 78, 0
2, 59520, Note_on_c, 0, 75, 80
2, 59880, Note_on_c, 0, 75, 0
2, 59880, Note_on_c, 0, 72, 80
2, 60000, Note_on_c, 0, 72, 0
2, 60000, Note_on_c, 0, 69, 80
2, 60360, Note_on_c, 0, 69, 0
2, 60360, Note_on_c, 0, 66, 80
2, 60480, Note_on_c, 0, 66, 0
2, 60480, Note_on_c, 0, 63, 80
2, 60840, Note_on_c, 0, 63, 0
2, 60840, Note_on_c, 0, 63, 80
2, 60900, Note_on_c, 0, 63, 0
2, 60900, Note_on_c, 0, 60, 80
2, 60960, Note_on_c, 0, 60, 0
2, 60960, Note_on_c, 0, 57, 80
2, 61008, Note_on_c, 0, 57, 0
2, 61080, Note_on_c, 0, 60, 80
2, 61140, Note_on_c, 0, 60, 0
2, 61140, Note_on_c, 0, 57, 80
2, 61200, Note_on_c, 0, 57, 0
2, 61200, Note_on_c, 0, 54, 80
2, 61260, Note_on_c, 0, 54, 0
2, 61320, Note_on_c, 0, 57, 80
2, 61380, Note_on_c, 0, 57, 0
2, 61380, Note_on_c, 0, 54, 80
2, 61440, Note_on_c, 0, 54, 0
2, 61440, Note_on_c, 0, 51, 80
2, 61680, Note_on_c, 0, 51, 0
2, 61800, Note_on_c, 0, 84, 56
2, 61860, Note_on_c, 0, 84, 0
2, 61860, Note_on_c, 0, 81, 56
2, 61920, Note_on_c, 0, 81, 0
2, 61920, Note_on_c, 0, 78, 56
2, 61968, Note_on_c, 0, 78, 0
2, 62040, Note_on_c, 0, 81, 56
2, 62100, Note_on_c, 0, 81, 0
2, 62100, Note_on_c, 0, 78, 56
2, 62160, Note_on_c, 0, 78, 0
2, 62160, Note_on_c, 0, 75, 56
2, 62208, Note_on_c, 0, 75, 0
2, 62280, Note_on_c, 0, 78, 56
2, 62340, Note_on_c, 0, 78, 0
2, 62340, Note_on_c, 0, 75, 56
2, 62400, Note_on_c, 0, 75, 0
2, 62400, Note_on_c, 0, 72, 56
2, 62640, Note_on_c, 0, 72, 0
2, 63000, Note_on_c, 0, 60, 80
2, 63120, Note_on_c, 0, 60, 0
2, 63120, Note_on_c, 0, 59, 80
2, 63240, Note_on_c, 0, 59, 0
2, 63240, Note_on_c, 0, 69, 80
2, 63360, Note_on_c, 0, 69, 0
2, 63480, Note_on_c, 0, 59, 80
2, 63480, Note_on_c, 0, 67, 80
2, 63528, Note_on_c, 0, 67, 0
2, 63528, Note_on_c, 0, 59, 0
2, 63720, Note_on_c, 0, 57, 80
2, 63720, Note_on_c, 0, 66, 80
2, 63768, Note_on_c, 0, 66, 0
2, 63768, Note_on_c, 0, 57, 0
2, 63960, Note_on_c, 0, 55, 80
2, 63960, Note_on_c, 0, 64, 80
2, 64008, Note_on_c, 0, 64, 0
2, 64008, Note_on_c, 0, 55, 0
2, 64200, Note_on_c, 0, 54, 80
2, 64200, Note_on_c, 0, 63, 80
2, 64248, Note_on_c, 0, 63, 0
2, 64248, Note_on_c, 0, 54, 0
2, 64320, Note_on_c, 0, 55, 80
2, 64320, Note_on_c, 0, 64, 80
2, 64560, Note_on_c, 0, 64, 0
2, 64560, Note_on_c, 0, 55, 0
2, 64680, Note_on_c, 0, 87, 80
2, 64800, Note_on_c, 0, 87, 0
2, 64800, Note_on_c, 0, 88, 80
2, 65040, Note_on_c, 0, 88, 0
2, 65160, Note_on_c, 0, 64, 80
2, 65280, Note_on_c, 0, 64, 0
2, 65280, Note_on_c, 0, 62, 80
2, 65280, Note_on_c, 0, 65, 80
2, 65520, Note_on_c, 0, 65, 0
2, 65520, Note_on_c, 0, 62, 0
2, 65640, Note_on_c, 0, 62, 80
2, 65640, Note_on_c, 0, 65, 80
2, 65760, Note_on_c, 0, 65, 0
2, 65760, Note_on_c, 0, 62, 0
2, 65760, Note_on_c, 0, 59, 80
2, 65760, Note_on_c, 0, 68, 80
2, 66000, Note_on_c, 0, 68, 0
2, 66000, Note_on_c, 0, 59, 0
2, 66120, Note_on_c, 0, 59, 80
2, 66120, Note_on_c, 0, 68, 80
2, 66240, Note_on_c, 0, 68, 0
2, 66240, Note_on_c, 0, 59, 0
2, 66240, Note_on_c, 0, 60, 80
2, 66240, Note_on_c, 0, 69, 80
2, 66480, Note_on_c, 0, 69, 0
2, 66480, Note_on_c, 0, 60, 0
2, 66600, Note_on_c, 0, 60, 80
2, 66600, Note_on_c, 0, 69, 80
2, 66720, Note_on_c, 0, 69, 0
2, 66720, Note_on_c, 0, 60, 0
2, 66720, Note_on_c, 0, 61, 80
2, 66720, Note_on_c, 0, 67, 80
2, 66960, Note_on_c, 0, 67, 0
2, 66960, Note_on_c, 0, 61, 0
2, 67080, Note_on_c, 0, 61, 80
2, 67080, Note_on_c, 0, 67, 80
2, 67200, Note_on_c, 0, 67, 0
2, 67200, Note_on_c, 0, 61, 0
2, 67200, Note_on_c, 0, 62, 80
2, 67200, Note_on_c, 0, 66, 80
2, 67440, Note_on_c, 0, 66, 0
2, 67440, Note_on_c, 0, 62, 0
2, 67560, Note_on_c, 0, 85, 80
2, 67680, Note_on_c, 0, 85, 0
2, 67680, Note_on_c, 0, 86, 80
2, 67920, Note_on_c, 0, 86, 0
2, 68040, Note_on_c, 0, 62, 56
2, 68160, Note_on_c, 0, 62, 0
2, 68160, Note_on_c, 0, 61, 56
2, 68160, Note_on_c, 0, 64, 56
2, 68400, Note_on_c, 0, 64, 0
2, 68400, Note_on_c, 0, 61, 0
2, 68520, Note_on_c, 0, 61, 56
2, 68520, Note_on_c, 0, 64, 56
2, 68640, Note_on_c, 0, 64, 0
2, 68640, Note_on_c, 0, 61, 0
2, 68640, Note_on_c, 0, 60, 56
2, 68640, Note_on_c, 0, 66, 56
2, 68880, Note_on_c, 0, 66, 0
2, 68880, Note_on_c, 0, 60, 0
2, 69000, Note_on_c, 0, 62, 56
2, 69120, Note_on_c, 0, 62, 0
2, 69120, Note_on_c, 0, 67, 80
2, 69300, Note_on_c, 0, 67, 0
2, 69300, Note_on_c, 0, 71, 80
2, 69330, Note_on_c, 0, 71, 0
2, 69330, Note_on_c, 0, 69, 80
2, 69360, Note_on_c, 0, 69, 0
2, 69360, Note_on_c, 0, 67, 80
2, 69444, Note_on_c, 0, 67, 0
2, 69720, Note_on_c, 0, 62, 80
2, 69768, Note_on_c, 0, 62, 0
2, 69840, Note_on_c, 0, 67, 80
2, 69888, Note_on_c, 0, 67, 0
2, 69960, Note_on_c, 0, 71, 80
2, 70008, Note_on_c, 0, 71, 0
2, 70080, Note_on_c, 0, 71, 80
2, 70140, Note_on_c, 0, 71, 0
2, 70140, Note_on_c, 0, 69, 80
2, 70200, Note_on_c, 0, 69, 0
2, 70200, Note_on_c, 0, 67, 80
2, 70260, Note_on_c, 0, 67, 0
2, 70260, Note_on_c, 0, 69, 80
2, 70320, Note_on_c, 0, 69, 0
2, 70320, Note_on_c, 0, 67, 80
2, 70440, Note_on_c, 0, 67, 0
2, 70440, Note_on_c, 0, 74, 80
2, 70488, Note_on_c, 0, 74, 0
2, 70560, Note_on_c, 0, 74, 80
2, 70608, Note_on_c, 0, 74, 0
2, 70680, Note_on_c, 0, 74, 80
2, 70728, Note_on_c, 0, 74, 0
2, 70800, Note_on_c, 0, 74, 80
2, 70848, Note_on_c, 0, 74, 0
2, 70920, Note_on_c, 0, 74, 80
2, 70968, Note_on_c, 0, 74, 0
2, 71040, Note_on_c, 0, 74, 80
2, 71220, Note_on_c, 0, 74, 0
2, 71220, Note_on_c, 0, 76, 80
2, 71250, Note_on_c, 0, 76, 0
2, 71250, Note_on_c, 0, 74, 80
2, 71280, Note_on_c, 0, 74, 0
2, 71280, Note_on_c, 0, 72, 80
2, 71328, Note_on_c, 0, 72, 0
2, 71400, Note_on_c, 0, 71, 80
2, 71448, Note_on_c, 0, 71, 0
2, 71520, Note_on_c, 0, 69, 80
2, 71568, Note_on_c, 0, 69, 0
2, 71640, Note_on_c, 0, 81, 96
2, 71880, Note_on_c, 0, 81, 0
2, 71880, Note_on_c, 0, 79, 80
2, 71928, Note_on_c, 0, 79, 0
2, 72000, Note_on_c, 0, 79, 80
2, 72060, Note_on_c, 0, 79, 0
2, 72060, Note_on_c, 0, 78, 80
2, 72120, Note_on_c, 0, 78, 0
2, 72120, Note_on_c, 0, 76, 80
2, 72180, Note_on_c, 0, 76, 0
2, 72180, Note_on_c, 0, 74, 80
2, 72240, Note_on_c, 0, 74, 0
2, 72240, Note_on_c, 0, 74, 80
2, 72288, Note_on_c, 0, 74, 0
2, 72360, Note_on_c, 0, 74, 80
2, 72408, Note_on_c, 0, 74, 0
2, 72480, Note_on_c, 0, 74, 80
2, 72540, Note_on_c, 0, 74, 0
2, 72540, Note_on_c, 0, 76, 80
2, 72600, Note_on_c, 0, 76, 0
2, 72600, Note_on_c, 0, 72, 80
2, 72660, Note_on_c, 0, 72, 0
2, 72660, Note_on_c, 0, 74, 80
2, 72720, Note_on_c, 0, 74, 0
2, 72720, Note_on_c, 0, 71, 80
2, 72780, Note_on_c, 0, 71, 0
2, 72780, Note_on_c, 0, 72, 80
2, 72840, Note_on_c, 0, 72, 0
2, 72840, Note_on_c, 0, 69, 80
2, 72900, Note_on_c, 0, 69, 0
2, 72900, Note_on_c, 0, 71, 80
2, 72960, Note_on_c, 0, 71, 0
2, 72960, Note_on_c, 0, 67, 80
2, 73140, Note_on_c, 0, 67, 0
2, 73140, Note_on_c, 0, 71, 80
2, 73170, Note_on_c, 0, 71, 0
2, 73170, Note_on_c, 0, 69, 80
2, 73200, Note_on_c, 0, 69, 0
2, 73200, Note_on_c, 0, 67, 80
2, 73260, Note_on_c, 0, 67, 0
2, 73260, Note_on_c, 0, 62, 80
2, 73320, Note_on_c, 0, 62, 0
2, 73320, Note_on_c, 0, 71, 80
2, 73380, Note_on_c, 0, 71, 0
2, 73380, Note_on_c, 0, 69, 80
2, 73440, Note_on_c, 0, 69, 0
2, 73440, Note_on_c, 0, 67, 80
2, 73500, Note_on_c, 0, 67, 0
2, 73500, Note_on_c, 0, 62, 80
2, 73560, Note_on_c, 0, 62, 0
2, 73560, Note_on_c, 0, 67, 80
2, 73620, Note_on_c, 0, 67, 0
2, 73620, Note_on_c, 0, 71, 80
2, 73680, Note_on_c, 0, 71, 0
2, 73680, Note_on_c, 0, 74, 80
2, 73740, Note_on_c, 0, 74, 0
2, 73740, Note_on_c, 0, 71, 80
2, 73800, Note_on_c, 0, 71, 0
2, 73800, Note_on_c, 0, 69, 80
2, 73860, Note_on_c, 0, 69, 0
2, 73860, Note_on_c, 0, 67, 80
2, 73920, Note_on_c, 0, 67, 0
2, 73920, Note_on_c, 0, 71, 80
2, 73980, Note_on_c, 0, 71, 0
2, 73980, Note_on_c, 0, 69, 80
2, 74040, Note_on_c, 0, 69, 0
2, 74040, Note_on_c, 0, 67, 80
2, 74100, Note_on_c, 0, 67, 0
2, 74100, Note_on_c, 0, 69, 80
2, 74160, Note_on_c, 0, 69, 0
2, 74160, Note_on_c, 0, 67, 80
2, 74280, Note_on_c, 0, 67, 0
2, 74280, Note_on_c, 0, 76, 80
2, 74400, Note_on_c, 0, 76, 0
2, 74400, Note_on_c, 0, 75, 80
2, 74460, Note_on_c, 0, 75, 0
2, 74460, Note_on_c, 0, 76, 80
2, 74520, Note_on_c, 0, 76, 0
2, 74520, Note_on_c, 0, 77, 80
2, 74580, Note_on_c, 0, 77, 0
2, 74580, Note_on_c, 0, 78, 80
2, 74640, Note_on_c, 0, 78, 0
2, 74640, Note_on_c, 0, 79, 80
2, 74700, Note_on_c, 0, 79, 0
2, 74700, Note_on_c, 0, 80, 80
2, 74760, Note_on_c, 0, 80, 0
2, 74760, Note_on_c, 0, 81, 80
2, 74820, Note_on_c, 0, 81, 0
2, 74820, Note_on_c, 0, 82, 80
2, 74880, Note_on_c, 0, 82, 0
2, 74880, Note_on_c, 0, 83, 80
2, 75120, Note_on_c, 0, 83, 0
2, 75120, Note_on_c, 0, 81, 80
2, 75180, Note_on_c, 0, 81, 0
2, 75180, Note_on_c, 0, 79, 80
2, 75240, Note_on_c, 0, 79, 0
2, 75240, Note_on_c, 0, 78, 80
2, 75300, Note_on_c, 0, 78, 0
2, 75300, Note_on_c, 0, 76, 80
2, 75360, Note_on_c, 0, 76, 0
2, 75360, Note_on_c, 0, 74, 80
2, 75600, Note_on_c, 0, 74, 0
2, 75600, Note_on_c, 0, 73, 80
2, 75630, Note_on_c, 0, 73, 0
2, 75630, Note_on_c, 0, 74, 80
2, 75660, Note_on_c, 0, 74, 0
2, 75660, Note_on_c, 0, 73, 80
2, 75690, Note_on_c, 0, 73, 0
2, 75690, Note_on_c, 0, 74, 80
2, 75720, Note_on_c, 0, 74, 0
2, 75720, Note_on_c, 0, 73, 80
2, 75740, Note_on_c, 0, 73, 0
2, 75740, Note_on_c, 0, 74, 80
2, 75760, Note_on_c, 0, 74, 0
2, 75760, Note_on_c, 0, 73, 80
2, 75780, Note_on_c, 0, 73, 0
2, 75780, Note_on_c, 0, 71, 80
2, 75810, Note_on_c, 0, 71, 0
2, 75810, Note_on_c, 0, 73, 80
2, 75840, Note_on_c, 0, 73, 0
2, 75840, Note_on_c, 0, 74, 80
2, 75900, Note_on_c, 0, 74, 0
2, 75900, Note_on_c, 0, 76, 80
2, 75960, Note_on_c, 0, 76, 0
2, 75960, Note_on_c, 0, 78, 80
2, 76020, Note_on_c, 0, 78, 0
2, 76020, Note_on_c, 0, 79, 80
2, 76080, Note_on_c, 0, 79, 0
2, 76080, Note_on_c, 0, 81, 80
2, 76140, Note_on_c, 0, 81, 0
2, 76140, Note_on_c, 0, 83, 80
2, 76200, Note_on_c, 0, 83, 0
2, 76200, Note_on_c, 0, 85, 80
2, 76260, Note_on_c, 0, 85, 0
2, 76260, Note_on_c, 0, 86, 80
2, 76320, Note_on_c, 0, 86, 0
2, 76320, Note_on_c, 0, 85, 80
2, 76380, Note_on_c, 0, 85, 0
2, 76380, Note_on_c, 0, 88, 80
2, 76440, Note_on_c, 0, 88, 0
2, 76440, Note_on_c, 0, 85, 80
2, 76500, Note_on_c, 0, 85, 0
2, 76500, Note_on_c, 0, 81, 80
2, 76560, Note_on_c, 0, 81, 0
2, 76560, Note_on_c, 0, 79, 80
2, 76620, Note_on_c, 0, 79, 0
2, 76620, Note_on_c, 0, 83, 80
2, 76680, Note_on_c, 0, 83, 0
2, 76680, Note_on_c, 0, 79, 80
2, 76740, Note_on_c, 0, 79, 0
2, 76740, Note_on_c, 0, 76, 80
2, 76800, Note_on_c, 0, 76, 0
2, 76800, Note_on_c, 0, 78, 80
2, 76860, Note_on_c, 0, 78, 0
2, 76860, Note_on_c, 0, 81, 80
2, 76920, Note_on_c, 0, 81, 0
2, 76920, Note_on_c, 0, 79, 80
2, 76980, Note_on_c, 0, 79, 0
2, 76980, Note_on_c, 0, 78, 80
2, 77040, Note_on_c, 0, 78, 0
2, 77040, Note_on_c, 0, 76, 80
2, 77100, Note_on_c, 0, 76, 0
2, 77100, Note_on_c, 0, 74, 80
2, 77160, Note_on_c, 0, 74, 0
2, 77160, Note_on_c, 0, 73, 80
2, 77220, Note_on_c, 0, 73, 0
2, 77220, Note_on_c, 0, 71, 80
2, 77280, Note_on_c, 0, 71, 0
2, 77280, Note_on_c, 0, 69, 80
2, 77340, Note_on_c, 0, 69, 0
2, 77340, Note_on_c, 0, 71, 80
2, 77400, Note_on_c, 0, 71, 0
2, 77400, Note_on_c, 0, 73, 80
2, 77460, Note_on_c, 0, 73, 0
2, 77460, Note_on_c, 0, 74, 80
2, 77520, Note_on_c, 0, 74, 0
2, 77520, Note_on_c, 0, 76, 80
2, 77580, Note_on_c, 0, 76, 0
2, 77580, Note_on_c, 0, 78, 80
2, 77640, Note_on_c, 0, 78, 0
2, 77640, Note_on_c, 0, 79, 80
2, 77700, Note_on_c, 0, 79, 0
2, 77700, Note_on_c, 0, 76, 80
2, 77760, Note_on_c, 0, 76, 0
2, 77760, Note_on_c, 0, 74, 80
2, 77820, Note_on_c, 0, 74, 0
2, 77820, Note_on_c, 0, 76, 80
2, 77880, Note_on_c, 0, 76, 0
2, 77880, Note_on_c, 0, 78, 80
2, 77940, Note_on_c, 0, 78, 0
2, 77940, Note_on_c, 0, 79, 80
2, 78000, Note_on_c, 0, 79, 0
2, 78000, Note_on_c, 0, 81, 80
2, 78060, Note_on_c, 0, 81, 0
2, 78060, Note_on_c, 0, 83, 80
2, 78120, Note_on_c, 0, 83, 0
2, 78120, Note_on_c, 0, 85, 80
2, 78180, Note_on_c, 0, 85, 0
2, 78180, Note_on_c, 0, 86, 80
2, 78240, Note_on_c, 0, 86, 0
2, 78240, Note_on_c, 0, 74, 80
2, 78480, Note_on_c, 0, 74, 0
2, 78720, Note_on_c, 0, 67, 80
2, 78900, Note_on_c, 0, 67, 0
2, 78900, Note_on_c, 0, 71, 80
2, 78930, Note_on_c, 0, 71, 0
2, 78930, Note_on_c, 0, 69, 80
2, 78960, Note_on_c, 0, 69, 0
2, 78960, Note_on_c, 0, 67, 80
2, 79020, Note_on_c, 0, 67, 0
2, 79020, Note_on_c, 0, 62, 80
2, 79080, Note_on_c, 0, 62, 0
2, 79080, Note_on_c, 0, 71, 80
2, 79140, Note_on_c, 0, 71, 0
2, 79140, Note_on_c, 0, 69, 80
2, 79200, Note_on_c, 0, 69, 0
2, 79200, Note_on_c, 0, 67, 80
2, 79260, Note_on_c, 0, 67, 0
2, 79260, Note_on_c, 0, 62, 80
2, 79320, Note_on_c, 0, 62, 0
2, 79320, Note_on_c, 0, 67, 80
2, 79380, Note_on_c, 0, 67, 0
2, 79380, Note_on_c, 0, 71, 80
2, 79440, Note_on_c, 0, 71, 0
2, 79440, Note_on_c, 0, 74, 80
2, 79500, Note_on_c, 0, 74, 0
2, 79500, Note_on_c, 0, 71, 80
2, 79560, Note_on_c, 0, 71, 0
2, 79560, Note_on_c, 0, 69, 80
2, 79620, Note_on_c, 0, 69, 0
2, 79620, Note_on_c, 0, 67, 80
2, 79680, Note_on_c, 0, 67, 0
2, 79680, Note_on_c, 0, 71, 80
2, 79740, Note_on_c, 0, 71, 0
2, 79740, Note_on_c, 0, 69, 80
2, 79800, Note_on_c, 0, 69, 0
2, 79800, Note_on_c, 0, 67, 80
2, 79860, Note_on_c, 0, 67, 0
2, 79860, Note_on_c, 0, 69, 80
2, 79920, Note_on_c, 0, 69, 0
2, 79920, Note_on_c, 0, 67, 80
2, 79968, Note_on_c, 0, 67, 0
2, 80040, Note_on_c, 0, 74, 80
2, 80088, Note_on_c, 0, 74, 0
2, 80160, Note_on_c, 0, 74, 80
2, 80208, Note_on_c, 0, 74, 0
2, 80280, Note_on_c, 0, 74, 80
2, 80328, Note_on_c, 0, 74, 0
2, 80400, Note_on_c, 0, 74, 80
2, 80448, Note_on_c, 0, 74, 0
2, 80520, Note_on_c, 0, 74, 80
2, 80568, Note_on_c, 0, 74, 0
2, 80640, Note_on_c, 0, 74, 80
2, 80700, Note_on_c, 0, 74, 0
2, 80700, Note_on_c, 0, 79, 80
2, 80760, Note_on_c, 0, 79, 0
2, 80760, Note_on_c, 0, 76, 80
2, 80820, Note_on_c, 0, 76, 0
2, 80820, Note_on_c, 0, 74, 80
2, 80880, Note_on_c, 0, 74, 0
2, 80880, Note_on_c, 0, 72, 80
2, 80940, Note_on_c, 0, 72, 0
2, 80940, Note_on_c, 0, 76, 80
2, 81000, Note_on_c, 0, 76, 0
2, 81000, Note_on_c, 0, 72, 80
2, 81060, Note_on_c, 0, 72, 0
2, 81060, Note_on_c, 0, 71, 80
2, 81120, Note_on_c, 0, 71, 0
2, 81120, Note_on_c, 0, 69, 80
2, 81180, Note_on_c, 0, 69, 0
2, 81180, Note_on_c, 0, 88, 80
2, 81240, Note_on_c, 0, 88, 0
2, 81240, Note_on_c, 0, 84, 80
2, 81300, Note_on_c, 0, 84, 0
2, 81300, Note_on_c, 0, 83, 80
2, 81360, Note_on_c, 0, 83, 0
2, 81360, Note_on_c, 0, 81, 80
2, 81420, Note_on_c, 0, 81, 0
2, 81420, Note_on_c, 0, 84, 80
2, 81480, Note_on_c, 0, 84, 0
2, 81480, Note_on_c, 0, 81, 80
2, 81540, Note_on_c, 0, 81, 0
2, 81540, Note_on_c, 0, 79, 80
2, 81600, Note_on_c, 0, 79, 0
2, 81600, Note_on_c, 0, 78, 80
2, 81660, Note_on_c, 0, 78, 0
2, 81660, Note_on_c, 0, 79, 80
2, 81720, Note_on_c, 0, 79, 0
2, 81720, Note_on_c, 0, 81, 80
2, 81780, Note_on_c, 0, 81, 0
2, 81780, Note_on_c, 0, 79, 80
2, 81840, Note_on_c, 0, 79, 0
2, 81840, Note_on_c, 0, 78, 80
2, 81900, Note_on_c, 0, 78, 0
2, 81900, Note_on_c, 0, 76, 80
2, 81960, Note_on_c, 0, 76, 0
2, 81960, Note_on_c, 0, 74, 80
2, 82020, Note_on_c, 0, 74, 0
2, 82020, Note_on_c, 0, 73, 80
2, 82080, Note_on_c, 0, 73, 0
2, 82080, Note_on_c, 0, 74, 80
2, 82140, Note_on_c, 0, 74, 0
2, 82140, Note_on_c, 0, 86, 80
2, 82200, Note_on_c, 0, 86, 0
2, 82200, Note_on_c, 0, 72, 80
2, 82260, Note_on_c, 0, 72, 0
2, 82260, Note_on_c, 0, 84, 80
2, 82320, Note_on_c, 0, 84, 0
2, 82320, Note_on_c, 0, 71, 80
2, 82380, Note_on_c, 0, 71, 0
2, 82380, Note_on_c, 0, 83, 80
2, 82440, Note_on_c, 0, 83, 0
2, 82440, Note_on_c, 0, 69, 80
2, 82500, Note_on_c, 0, 69, 0
2, 82500, Note_on_c, 0, 81, 80
2, 82560, Note_on_c, 0, 81, 0
2, 82560, Note_on_c, 0, 67, 80
2, 82740, Note_on_c, 0, 67, 0
2, 82740, Note_on_c, 0, 71, 80
2, 82770, Note_on_c, 0, 71, 0
2, 82770, Note_on_c, 0, 69, 80
2, 82800, Note_on_c, 0, 69, 0
2, 82800, Note_on_c, 0, 67, 80
2, 82860, Note_on_c, 0, 67, 0
2, 82860, Note_on_c, 0, 62, 80
2, 82920, Note_on_c, 0, 62, 0
2, 82920, Note_on_c, 0, 71, 80
2, 82980, Note_on_c, 0, 71, 0
2, 82980, Note_on_c, 0, 69, 80
2, 83040, Note_on_c, 0, 69, 0
2, 83040, Note_on_c, 0, 67, 80
2, 83100, Note_on_c, 0, 67, 0
2, 83100, Note_on_c, 0, 62, 80
2, 83160, Note_on_c, 0, 62, 0
2, 83160, Note_on_c, 0, 67, 80
2, 83220, Note_on_c, 0, 67, 0
2, 83220, Note_on_c, 0, 71, 80
2, 83280, Note_on_c, 0, 71, 0
2, 83280, Note_on_c, 0, 74, 80
2, 83340, Note_on_c, 0, 74, 0
2, 83340, Note_on_c, 0, 71, 80
2, 83400, Note_on_c, 0, 71, 0
2, 83400, Note_on_c, 0, 69, 80
2, 83460, Note_on_c, 0, 69, 0
2, 83460, Note_on_c, 0, 67, 80
2, 83520, Note_on_c, 0, 67, 0
2, 83520, Note_on_c, 0, 71, 80
2, 83580, Note_on_c, 0, 71, 0
2, 83580, Note_on_c, 0, 69, 80
2, 83640, Note_on_c, 0, 69, 0
2, 83640, Note_on_c, 0, 67, 80
2, 83700, Note_on_c, 0, 67, 0
2, 83700, Note_on_c, 0, 69, 80
2, 83760, Note_on_c, 0, 69, 0
2, 83760, Note_on_c, 0, 67, 80
2, 83880, Note_on_c, 0, 67, 0
2, 83880, Note_on_c, 0, 76, 80
2, 84000, Note_on_c, 0, 76, 0
2, 84000, Note_on_c, 0, 75, 80
2, 84060, Note_on_c, 0, 75, 0
2, 84060, Note_on_c, 0, 76, 80
2, 84120, Note_on_c, 0, 76, 0
2, 84120, Note_on_c, 0, 77, 80
2, 84180, Note_on_c, 0, 77, 0
2, 84180, Note_on_c, 0, 78, 80
2, 84240, Note_on_c, 0, 78, 0
2, 84240, Note_on_c, 0, 79, 80
2, 84300, Note_on_c, 0, 79, 0
2, 84300, Note_on_c, 0, 80, 80
2, 84360, Note_on_c, 0, 80, 0
2, 84360, Note_on_c, 0, 81, 80
2, 84420, Note_on_c, 0, 81, 0
2, 84420, Note_on_c, 0, 82, 80
2, 84480, Note_on_c, 0, 82, 0
2, 84480, Note_on_c, 0, 83, 80
2, 84720, Note_on_c, 0, 83, 0
2, 84720, Note_on_c, 0, 81, 80
2, 84780, Note_on_c, 0, 81, 0
2, 84780, Note_on_c, 0, 79, 80
2, 84840, Note_on_c, 0, 79, 0
2, 84840, Note_on_c, 0, 78, 80
2, 84900, Note_on_c, 0, 78, 0
2, 84900, Note_on_c, 0, 76, 80
2, 84960, Note_on_c, 0, 76, 0
2, 84960, Note_on_c, 0, 74, 80
2, 85200, Note_on_c, 0, 74, 0
2, 85200, Note_on_c, 0, 73, 80
2, 85230, Note_on_c, 0, 73, 0
2, 85230, Note_on_c, 0, 74, 80
2, 85260, Note_on_c, 0, 74, 0
2, 85260, Note_on_c, 0, 73, 80
2, 85290, Note_on_c, 0, 73, 0
2, 85290, Note_on_c, 0, 74, 80
2, 85320, Note_on_c, 0, 74, 0
2, 85320, Note_on_c, 0, 73, 80
2, 85340, Note_on_c, 0, 73, 0
2, 85340, Note_on_c, 0, 74, 80
2, 85360, Note_on_c, 0, 74, 0
2, 85360, Note_on_c, 0, 73, 80
2, 85380, Note_on_c, 0, 73, 0
2, 85380, Note_on_c, 0, 71, 80
2, 85410, Note_on_c, 0, 71, 0
2, 85410, Note_on_c, 0, 73, 80
2, 85440, Note_on_c, 0, 73, 0
2, 85440, Note_on_c, 0, 74, 80
2, 85500, Note_on_c, 0, 74, 0
2, 85500, Note_on_c, 0, 76, 80
2, 85560, Note_on_c, 0, 76, 0
2, 85560, Note_on_c, 0, 78, 80
2, 85620, Note_on_c, 0, 78, 0
2, 85620, Note_on_c, 0, 79, 80
2, 85680, Note_on_c, 0, 79, 0
2, 85680, Note_on_c, 0, 81, 80
2, 85740, Note_on_c, 0, 81, 0
2, 85740, Note_on_c, 0, 83, 80
2, 85800, Note_on_c, 0, 83, 0
2, 85800, Note_on_c, 0, 85, 80
2, 85860, Note_on_c, 0, 85, 0
2, 85860, Note_on_c, 0, 86, 80
2, 85920, Note_on_c, 0, 86, 0
2, 85920, Note_on_c, 0, 85, 80
2, 85980, Note_on_c, 0, 85, 0
2, 85980, Note_on_c, 0, 88, 80
2, 86040, Note_on_c, 0, 88, 0
2, 86040, Note_on_c, 0, 85, 80
2, 86100, Note_on_c, 0, 85, 0
2, 86100, Note_on_c, 0, 81, 80
2, 86160, Note_on_c, 0, 81, 0
2, 86160, Note_on_c, 0, 79, 80
2, 86220, Note_on_c, 0, 79, 0
2, 86220, Note_on_c, 0, 83, 80
2, 86280, Note_on_c, 0, 83, 0
2, 86280, Note_on_c, 0, 79, 80
2, 86340, Note_on_c, 0, 79, 0
2, 86340, Note_on_c, 0, 76, 80
2, 86400, Note_on_c, 0, 76, 0
2, 86400, Note_on_c, 0, 78, 80
2, 86448, Note_on_c, 0, 78, 0
2, 86460, Note_on_c, 0, 81, 80
2, 86508, Note_on_c, 0, 81, 0
2, 86520, Note_on_c, 0, 79, 80
2, 86568, Note_on_c, 0, 79, 0
2, 86580, Note_on_c, 0, 78, 80
2, 86628, Note_on_c, 0, 78, 0
2, 86640, Note_on_c, 0, 76, 80
2, 86688, Note_on_c, 0, 76, 0
2, 86700, Note_on_c, 0, 74, 80
2, 86748, Note_on_c, 0, 74, 0
2, 86760, Note_on_c, 0, 73, 80
2, 86808, Note_on_c, 0, 73, 0
2, 86820, Note_on_c, 0, 71, 80
2, 86868, Note_on_c, 0, 71, 0
2, 86880, Note_on_c, 0, 69, 80
2, 86928, Note_on_c, 0, 69, 0
2, 86940, Note_on_c, 0, 71, 80
2, 86988, Note_on_c, 0, 71, 0
2, 87000, Note_on_c, 0, 73, 80
2, 87048, Note_on_c, 0, 73, 0
2, 87060, Note_on_c, 0, 74, 80
2, 87108, Note_on_c, 0, 74, 0
2, 87120, Note_on_c, 0, 76, 80
2, 87168, Note_on_c, 0, 76, 0
2, 87180, Note_on_c, 0, 78, 80
2, 87228, Note_on_c, 0, 78, 0
2, 87240, Note_on_c, 0, 79, 80
2, 87288, Note_on_c, 0, 79, 0
2, 87300, Note_on_c, 0, 76, 80
2, 87348, Note_on_c, 0, 76, 0
2, 87360, Note_on_c, 0, 74, 80
2, 87420, Note_on_c, 0, 74, 0
2, 87420, Note_on_c, 0, 76, 80
2, 87480, Note_on_c, 0, 76, 0
2, 87480, Note_on_c, 0, 78, 80
2, 87540, Note_on_c, 0, 78, 0
2, 87540, Note_on_c, 0, 79, 80
2, 87600, Note_on_c, 0, 79, 0
2, 87600, Note_on_c, 0, 81, 80
2, 87660, Note_on_c, 0, 81, 0
2, 87660, Note_on_c, 0, 83, 80
2, 87720, Note_on_c, 0, 83, 0
2, 87720, Note_on_c, 0, 85, 80
2, 87780, Note_on_c, 0, 85, 0
2, 87780, Note_on_c, 0, 86, 80
2, 87840, Note_on_c, 0, 86, 0
2, 87840, Note_on_c, 0, 74, 80
2, 88080, Note_on_c, 0, 74, 0
2, 88320, Note_on_c, 0, 77, 80
2, 88500, Note_on_c, 0, 77, 0
2, 88500, Note_on_c, 0, 74, 80
2, 88530, Note_on_c, 0, 74, 0
2, 88530, Note_on_c, 0, 75, 80
2, 88560, Note_on_c, 0, 75, 0
2, 88560, Note_on_c, 0, 77, 80
2, 88680, Note_on_c, 0, 77, 0
2, 88680, Note_on_c, 0, 89, 96
2, 88920, Note_on_c, 0, 89, 0
2, 88920, Note_on_c, 0, 69, 80
2, 88968, Note_on_c, 0, 69, 0
2, 89040, Note_on_c, 0, 69, 80
2, 89088, Note_on_c, 0, 69, 0
2, 89160, Note_on_c, 0, 69, 80
2, 89208, Note_on_c, 0, 69, 0
2, 89280, Note_on_c, 0, 70, 80
2, 89460, Note_on_c, 0, 70, 0
2, 89460, Note_on_c, 0, 70, 80
2, 89490, Note_on_c, 0, 70, 0
2, 89490, Note_on_c, 0, 72, 80
2, 89520, Note_on_c, 0, 72, 0
2, 89520, Note_on_c, 0, 74, 80
2, 89640, Note_on_c, 0, 74, 0
2, 89640, Note_on_c, 0, 86, 96
2, 89880, Note_on_c, 0, 86, 0
2, 89880, Note_on_c, 0, 66, 80
2, 89928, Note_on_c, 0, 66, 0
2, 90000, Note_on_c, 0, 66, 80
2, 90048, Note_on_c, 0, 66, 0
2, 90120, Note_on_c, 0, 66, 80
2, 90168, Note_on_c, 0, 66, 0
2, 90240, Note_on_c, 0, 67, 80
2, 90420, Note_on_c, 0, 67, 0
2, 90420, Note_on_c, 0, 67, 80
2, 90450, Note_on_c, 0, 67, 0
2, 90450, Note_on_c, 0, 69, 80
2, 90480, Note_on_c, 0, 69, 0
2, 90480, Note_on_c, 0, 70, 80
2, 90600, Note_on_c, 0, 70, 0
2, 90600, Note_on_c, 0, 82, 96
2, 90840, Note_on_c, 0, 82, 0
2, 90840, Note_on_c, 0, 61, 80
2, 90888, Note_on_c, 0, 61, 0
2, 90960, Note_on_c, 0, 61, 80
2, 91008, Note_on_c, 0, 61, 0
2, 91080, Note_on_c, 0, 61, 80
2, 91128, Note_on_c, 0, 61, 0
2, 91200, Note_on_c, 0, 62, 80
2, 91260, Note_on_c, 0, 62, 0
2, 91260, Note_on_c, 0, 64, 80
2, 91320, Note_on_c, 0, 64, 0
2, 91320, Note_on_c, 0, 66, 80
2, 91380, Note_on_c, 0, 66, 0
2, 91380, Note_on_c, 0, 67, 80
2, 91440, Note_on_c, 0, 67, 0
2, 91440, Note_on_c, 0, 69, 80
2, 91500, Note_on_c, 0, 69, 0
2, 91500, Note_on_c, 0, 67, 80
2, 91560, Note_on_c, 0, 67, 0
2, 91560, Note_on_c, 0, 66, 80
2, 91620, Note_on_c, 0, 66, 0
2, 91620, Note_on_c, 0, 64, 80
2, 91680, Note_on_c, 0, 64, 0
2, 91680, Note_on_c, 0, 62, 80
2, 91920, Note_on_c, 0, 62, 0
2, 92160, Note_on_c, 0, 67, 80
2, 92340, Note_on_c, 0, 67, 0
2, 92340, Note_on_c, 0, 71, 80
2, 92370, Note_on_c, 0, 71, 0
2, 92370, Note_on_c, 0, 69, 80
2, 92400, Note_on_c, 0, 69, 0
2, 92400, Note_on_c, 0, 67, 80
2, 92460, Note_on_c, 0, 67, 0
2, 92460, Note_on_c, 0, 62, 80
2, 92520, Note_on_c, 0, 62, 0
2, 92520, Note_on_c, 0, 71, 80
2, 92580, Note_on_c, 0, 71, 0
2, 92580, Note_on_c, 0, 69, 80
2, 92640, Note_on_c, 0, 69, 0
2, 92640, Note_on_c, 0, 67, 80
2, 92700, Note_on_c, 0, 67, 0
2, 92700, Note_on_c, 0, 62, 80
2, 92760, Note_on_c, 0, 62, 0
2, 92760, Note_on_c, 0, 67, 80
2, 92820, Note_on_c, 0, 67, 0
2, 92820, Note_on_c, 0, 71, 80
2, 92880, Note_on_c, 0, 71, 0
2, 92880, Note_on_c, 0, 74, 80
2, 92940, Note_on_c, 0, 74, 0
2, 92940, Note_on_c, 0, 71, 80
2, 93000, Note_on_c, 0, 71, 0
2, 93000, Note_on_c, 0, 69, 80
2, 93060, Note_on_c, 0, 69, 0
2, 93060, Note_on_c, 0, 67, 80
2, 93120, Note_on_c, 0, 67, 0
2, 93120, Note_on_c, 0, 71, 80
2, 93180, Note_on_c, 0, 71, 0
2, 93180, Note_on_c, 0, 69, 80
2, 93240, Note_on_c, 0, 69, 0
2, 93240, Note_on_c, 0, 67, 80
2, 93300, Note_on_c, 0, 67, 0
2, 93300, Note_on_c, 0, 69, 80
2, 93360, Note_on_c, 0, 69, 0
2, 93360, Note_on_c, 0, 67, 80
2, 93444, Note_on_c, 0, 67, 0
2, 93480, Note_on_c, 0, 88, 80
2, 93540, Note_on_c, 0, 88, 0
2, 93540, Note_on_c, 0, 76, 80
2, 93600, Note_on_c, 0, 76, 0
2, 93600, Note_on_c, 0, 88, 80
2, 93660, Note_on_c, 0, 88, 0
2, 93660, Note_on_c, 0, 76, 80
2, 93720, Note_on_c, 0, 76, 0
2, 93720, Note_on_c, 0, 88, 80
2, 93780, Note_on_c, 0, 88, 0
2, 93780, Note_on_c, 0, 76, 80
2, 93840, Note_on_c, 0, 76, 0
2, 93840, Note_on_c, 0, 88, 80
2, 93900, Note_on_c, 0, 88, 0
2, 93900, Note_on_c, 0, 76, 80
2, 93960, Note_on_c, 0, 76, 0
2, 93960, Note_on_c, 0, 88, 80
2, 94020, Note_on_c, 0, 88, 0
2, 94020, Note_on_c, 0, 76, 80
2, 94080, Note_on_c, 0, 76, 0
2, 94080, Note_on_c, 0, 88, 80
2, 94230, Note_on_c, 0, 88, 0
2, 94230, Note_on_c, 0, 86, 80
2, 94260, Note_on_c, 0, 86, 0
2, 94260, Note_on_c, 0, 84, 80
2, 94290, Note_on_c, 0, 84, 0
2, 94290, Note_on_c, 0, 83, 80
2, 94320, Note_on_c, 0, 83, 0
2, 94320, Note_on_c, 0, 81, 80
2, 94404, Note_on_c, 0, 81, 0
2, 94440, Note_on_c, 0, 86, 80
2, 94500, Note_on_c, 0, 86, 0
2, 94500, Note_on_c, 0, 74, 80
2, 94560, Note_on_c, 0, 74, 0
2, 94560, Note_on_c, 0, 86, 80
2, 94620, Note_on_c, 0, 86, 0
2, 94620, Note_on_c, 0, 74, 80
2, 94680, Note_on_c, 0, 74, 0
2, 94680, Note_on_c, 0, 86, 80
2, 94740, Note_on_c, 0, 86, 0
2, 94740, Note_on_c, 0, 74, 80
2, 94800, Note_on_c, 0, 74, 0
2, 94800, Note_on_c, 0, 86, 80
2, 94860, Note_on_c, 0, 86, 0
2, 94860, Note_on_c, 0, 74, 80
2, 94920, Note_on_c, 0, 74, 0
2, 94920, Note_on_c, 0, 86, 80
2, 94980, Note_on_c, 0, 86, 0
2, 94980, Note_on_c, 0, 74, 80
2, 95040, Note_on_c, 0, 74, 0
2, 95040, Note_on_c, 0, 86, 80
2, 95190, Note_on_c, 0, 86, 0
2, 95190, Note_on_c, 0, 84, 80
2, 95220, Note_on_c, 0, 84, 0
2, 95220, Note_on_c, 0, 83, 80
2, 95250, Note_on_c, 0, 83, 0
2, 95250, Note_on_c, 0, 81, 80
2, 95280, Note_on_c, 0, 81, 0
2, 95280, Note_on_c, 0, 79, 80
2, 95400, Note_on_c, 0, 79, 0
2, 96360, Note_on_c, 0, 86, 56
2, 96390, Note_on_c, 0, 86, 0
2, 96390, Note_on_c, 0, 84, 56
2, 96420, Note_on_c, 0, 84, 0
2, 96420, Note_on_c, 0, 83, 56
2, 96450, Note_on_c, 0, 83, 0
2, 96450, Note_on_c, 0, 81, 56
2, 96480, Note_on_c, 0, 81, 0
2, 96480, Note_on_c, 0, 79, 56
2, 96528, Note_on_c, 0, 79, 0
2, 96600, Note_on_c, 0, 83, 56
2, 96630, Note_on_c, 0, 83, 0
2, 96630, Note_on_c, 0, 81, 56
2, 96660, Note_on_c, 0, 81, 0
2, 96660, Note_on_c, 0, 79, 56
2, 96690, Note_on_c, 0, 79, 0
2, 96690, Note_on_c, 0, 78, 56
2, 96720, Note_on_c, 0, 78, 0
2, 96720, Note_on_c, 0, 76, 56
2, 96768, Note_on_c, 0, 76, 0
2, 96840, Note_on_c, 0, 79, 56
2, 96870, Note_on_c, 0, 79, 0
2, 96870, Note_on_c, 0, 78, 56
2, 96900, Note_on_c, 0, 78, 0
2, 96900, Note_on_c, 0, 76, 56
2, 96930, Note_on_c, 0, 76, 0
2, 96930, Note_on_c, 0, 74, 56
2, 96960, Note_on_c, 0, 74, 0
2, 96960, Note_on_c, 0, 72, 56
2, 97200, Note_on_c, 0, 72, 0
2, 97320, Note_on_c, 0, 79, 80
2, 97350, Note_on_c, 0, 79, 0
2, 97350, Note_on_c, 0, 77, 80
2, 97380, Note_on_c, 0, 77, 0
2, 97380, Note_on_c, 0, 75, 80
2, 97410, Note_on_c, 0, 75, 0
2, 97410, Note_on_c, 0, 74, 80
2, 97440, Note_on_c, 0, 74, 0
2, 97440, Note_on_c, 0, 72, 80
2, 97524, Note_on_c, 0, 72, 0
2, 97560, Note_on_c, 0, 83, 80
2, 97680, Note_on_c, 0, 83, 0
2, 97680, Note_on_c, 0, 84, 80
2, 97728, Note_on_c, 0, 84, 0
2, 97800, Note_on_c, 0, 84, 80
2, 97848, Note_on_c, 0, 84, 0
2, 97920, Note_on_c, 0, 84, 80
2, 97980, Note_on_c, 0, 84, 0
2, 97980, Note_on_c, 0, 83, 80
2, 98040, Note_on_c, 0, 83, 0
2, 98040, Note_on_c, 0, 84, 80
2, 98100, Note_on_c, 0, 84, 0
2, 98100, Note_on_c, 0, 81, 80
2, 98160, Note_on_c, 0, 81, 0
2, 98160, Note_on_c, 0, 83, 80
2, 98220, Note_on_c, 0, 83, 0
2, 98220, Note_on_c, 0, 81, 80
2, 98280, Note_on_c, 0, 81, 0
2, 98280, Note_on_c, 0, 83, 80
2, 98340, Note_on_c, 0, 83, 0
2, 98340, Note_on_c, 0, 79, 80
2, 98400, Note_on_c, 0, 79, 0
2, 98400, Note_on_c, 0, 81, 80
2, 98460, Note_on_c, 0, 81, 0
2, 98460, Note_on_c, 0, 80, 80
2, 98520, Note_on_c, 0, 80, 0
2, 98520, Note_on_c, 0, 81, 80
2, 98580, Note_on_c, 0, 81, 0
2, 98580, Note_on_c, 0, 76, 80
2, 98640, Note_on_c, 0, 76, 0
2, 98640, Note_on_c, 0, 79, 80
2, 98700, Note_on_c, 0, 79, 0
2, 98700, Note_on_c, 0, 78, 80
2, 98760, Note_on_c, 0, 78, 0
2, 98760, Note_on_c, 0, 76, 80
2, 98820, Note_on_c, 0, 76, 0
2, 98820, Note_on_c, 0, 74, 80
2, 98880, Note_on_c, 0, 74, 0
2, 98880, Note_on_c, 0, 79, 80
2, 98940, Note_on_c, 0, 79, 0
2, 98940, Note_on_c, 0, 74, 80
2, 99000, Note_on_c, 0, 74, 0
2, 99000, Note_on_c, 0, 79, 80
2, 99060, Note_on_c, 0, 79, 0
2, 99060, Note_on_c, 0, 83, 80
2, 99120, Note_on_c, 0, 83, 0
2, 99120, Note_on_c, 0, 86, 80
2, 99180, Note_on_c, 0, 86, 0
2, 99180, Note_on_c, 0, 83, 80
2, 99240, Note_on_c, 0, 83, 0
2, 99240, Note_on_c, 0, 81, 80
2, 99300, Note_on_c, 0, 81, 0
2, 99300, Note_on_c, 0, 79, 80
2, 99360, Note_on_c, 0, 79, 0
2, 99360, Note_on_c, 0, 78, 80
2, 99420, Note_on_c, 0, 78, 0
2, 99420, Note_on_c, 0, 74, 80
2, 99480, Note_on_c, 0, 74, 0
2, 99480, Note_on_c, 0, 78, 80
2, 99540, Note_on_c, 0, 78, 0
2, 99540, Note_on_c, 0, 81, 80
2, 99600, Note_on_c, 0, 81, 0
2, 99600, Note_on_c, 0, 84, 80
2, 99660, Note_on_c, 0, 84, 0
2, 99660, Note_on_c, 0, 81, 80
2, 99720, Note_on_c, 0, 81, 0
2, 99720, Note_on_c, 0, 79, 80
2, 99780, Note_on_c, 0, 79, 0
2, 99780, Note_on_c, 0, 78, 80
2, 99840, Note_on_c, 0, 78, 0
2, 99840, Note_on_c, 0, 79, 56
2, 99900, Note_on_c, 0, 79, 0
2, 99900, Note_on_c, 0, 74, 58
2, 99960, Note_on_c, 0, 74, 0
2, 99960, Note_on_c, 0, 79, 59
2, 100020, Note_on_c, 0, 79, 0
2, 100020, Note_on_c, 0, 83, 61
2, 100080, Note_on_c, 0, 83, 0
2, 100080, Note_on_c, 0, 86, 62
2, 100140, Note_on_c, 0, 86, 0
2, 100140, Note_on_c, 0, 83, 64
2, 100200, Note_on_c, 0, 83, 0
2, 100200, Note_on_c, 0, 81, 65
2, 100260, Note_on_c, 0, 81, 0
2, 100260, Note_on_c, 0, 79, 67
2, 100320, Note_on_c, 0, 79, 0
2, 100320, Note_on_c, 0, 78, 68
2, 100380, Note_on_c, 0, 78, 0
2, 100380, Note_on_c, 0, 74, 70
2, 100440, Note_on_c, 0, 74, 0
2, 100440, Note_on_c, 0, 78, 71
2, 100500, Note_on_c, 0, 78, 0
2, 100500, Note_on_c, 0, 81, 73
2, 100560, Note_on_c, 0, 81, 0
2, 100560, Note_on_c, 0, 84, 74
2, 100620, Note_on_c, 0, 84, 0
2, 100620, Note_on_c, 0, 81, 76
2, 100680, Note_on_c, 0, 81, 0
2, 100680, Note_on_c, 0, 79, 77
2, 100740, Note_on_c, 0, 79, 0
2, 100740, Note_on_c, 0, 78, 79
2, 100800, Note_on_c, 0, 78, 0
2, 100800, Note_on_c, 0, 79, 80
2, 100860, Note_on_c, 0, 79, 0
2, 100860, Note_on_c, 0, 83, 80
2, 100920, Note_on_c, 0, 83, 0
2, 100920, Note_on_c, 0, 79, 80
2, 100980, Note_on_c, 0, 79, 0
2, 100980, Note_on_c, 0, 74, 80
2, 101040, Note_on_c, 0, 74, 0
2, 101040, Note_on_c, 0, 71, 80
2, 101100, Note_on_c, 0, 71, 0
2, 101100, Note_on_c, 0, 67, 80
2, 101160, Note_on_c, 0, 67, 0
2, 101160, Note_on_c, 0, 62, 80
2, 101220, Note_on_c, 0, 62, 0
2, 101220, Note_on_c, 0, 59, 80
2, 101280, Note_on_c, 0, 59, 0
2, 101280, Note_on_c, 0, 55, 80
2, 101400, Note_on_c, 0, 55, 0
2, 101760, Note_on_c, 0, 77, 80
2, 101940, Note_on_c, 0, 77, 0
2, 101940, Note_on_c, 0, 74, 80
2, 101970, Note_on_c, 0, 74, 0
2, 101970, Note_on_c, 0, 75, 80
2, 102000, Note_on_c, 0, 75, 0
2, 102000, Note_on_c, 0, 77, 80
2, 102120, Note_on_c, 0, 77, 0
2, 102120, Note_on_c, 0, 89, 96
2, 102360, Note_on_c, 0, 89, 0
2, 102360, Note_on_c, 0, 69, 80
2, 102408, Note_on_c, 0, 69, 0
2, 102480, Note_on_c, 0, 69, 80
2, 102528, Note_on_c, 0, 69, 0
2, 102600, Note_on_c, 0, 69, 80
2, 102648, Note_on_c, 0, 69, 0
2, 102720, Note_on_c, 0, 70, 80
2, 102900, Note_on_c, 0, 70, 0
2, 102900, Note_on_c, 0, 70, 80
2, 102930, Note_on_c, 0, 70, 0
2, 102930, Note_on_c, 0, 72, 80
2, 102960, Note_on_c, 0, 72, 0
2, 102960, Note_on_c, 0, 74, 80
2, 103080, Note_on_c, 0, 74, 0
2, 103080, Note_on_c, 0, 86, 96
2, 103320, Note_on_c, 0, 86, 0
2, 103320, Note_on_c, 0, 66, 80
2, 103368, Note_on_c, 0, 66, 0
2, 103440, Note_on_c, 0, 66, 80
2, 103488, Note_on_c, 0, 66, 0
2, 103560, Note_on_c, 0, 66, 80
2, 103608, Note_on_c, 0, 66, 0
2, 103680, Note_on_c, 0, 67, 80
2, 103860, Note_on_c, 0, 67, 0
2, 103860, Note_on_c, 0, 67, 80
2, 103890, Note_on_c, 0, 67, 0
2, 103890, Note_on_c, 0, 69, 80
2, 103920, Note_on_c, 0, 69, 0
2, 103920, Note_on_c, 0, 70, 80
2, 104040, Note_on_c, 0, 70, 0
2, 104040, Note_on_c, 0, 82, 96
2, 104280, Note_on_c, 0, 82, 0
2, 104280, Note_on_c, 0, 61, 80
2, 104328, Note_on_c, 0, 61, 0
2, 104400, Note_on_c, 0, 61, 80
2, 104448, Note_on_c, 0, 61, 0
2, 104520, Note_on_c, 0, 61, 80
2, 104568, Note_on_c, 0, 61, 0
2, 104640, Note_on_c, 0, 62, 80
2, 104700, Note_on_c, 0, 62, 0
2, 104700, Note_on_c, 0, 64, 80
2, 104760, Note_on_c, 0, 64, 0
2, 104760, Note_on_c, 0, 66, 80
2, 104820, Note_on_c, 0, 66, 0
2, 104820, Note_on_c, 0, 67, 80
2, 104880, Note_on_c, 0, 67, 0
2, 104880, Note_on_c, 0, 69, 80
2, 104940, Note_on_c, 0, 69, 0
2, 104940, Note_on_c, 0, 67, 80
2, 105000, Note_on_c, 0, 67, 0
2, 105000, Note_on_c, 0, 66, 80
2, 105060, Note_on_c, 0, 66, 0
2, 105060, Note_on_c, 0, 64, 80
2, 105120, Note_on_c, 0, 64, 0
2, 105120, Note_on_c, 0, 62, 80
2, 105360, Note_on_c, 0, 62, 0
2, 105600, Note_on_c, 0, 67, 80
2, 105780, Note_on_c, 0, 67, 0
2, 105780, Note_on_c, 0, 71, 80
2, 105810, Note_on_c, 0, 71, 0
2, 105810, Note_on_c, 0, 69, 80
2, 105840, Note_on_c, 0, 69, 0
2, 105840, Note_on_c, 0, 67, 80
2, 105900, Note_on_c, 0, 67, 0
2, 105900, Note_on_c, 0, 62, 80
2, 105960, Note_on_c, 0, 62, 0
2, 105960, Note_on_c, 0, 71, 80
2, 106020, Note_on_c, 0, 71, 0
2, 106020, Note_on_c, 0, 69, 80
2, 106080, Note_on_c, 0, 69, 0
2, 106080, Note_on_c, 0, 67, 80
2, 106140, Note_on_c, 0, 67, 0
2, 106140, Note_on_c, 0, 62, 80
2, 106200, Note_on_c, 0, 62, 0
2, 106200, Note_on_c, 0, 67, 80
2, 106260, Note_on_c, 0, 67, 0
2, 106260, Note_on_c, 0, 71, 80
2, 106320, Note_on_c, 0, 71, 0
2, 106320, Note_on_c, 0, 74, 80
2, 106380, Note_on_c, 0, 74, 0
2, 106380, Note_on_c, 0, 71, 80
2, 106440, Note_on_c, 0, 71, 0
2, 106440, Note_on_c, 0, 69, 80
2, 106500, Note_on_c, 0, 69, 0
2, 106500, Note_on_c, 0, 67, 80
2, 106560, Note_on_c, 0, 67, 0
2, 106560, Note_on_c, 0, 71, 80
2, 106620, Note_on_c, 0, 71, 0
2, 106620, Note_on_c, 0, 69, 80
2, 106680, Note_on_c, 0, 69, 0
2, 106680, Note_on_c, 0, 67, 80
2, 106740, Note_on_c, 0, 67, 0
2, 106740, Note_on_c, 0, 69, 80
2, 106800, Note_on_c, 0, 69, 0
2, 106800, Note_on_c, 0, 67, 80
2, 106884, Note_on_c, 0, 67, 0
2, 106920, Note_on_c, 0, 88, 80
2, 106980, Note_on_c, 0, 88, 0
2, 106980, Note_on_c, 0, 76, 80
2, 107040, Note_on_c, 0, 76, 0
2, 107040, Note_on_c, 0, 88, 80
2, 107100, Note_on_c, 0, 88, 0
2, 107100, Note_on_c, 0, 76, 80
2, 107160, Note_on_c, 0, 76, 0
2, 107160, Note_on_c, 0, 88, 80
2, 107220, Note_on_c, 0, 88, 0
2, 107220, Note_on_c, 0, 76, 80
2, 107280, Note_on_c, 0, 76, 0
2, 107280, Note_on_c, 0, 88, 80
2, 107340, Note_on_c, 0, 88, 0
2, 107340, Note_on_c, 0, 76, 80
2, 107400, Note_on_c, 0, 76, 0
2, 107400, Note_on_c, 0, 88, 80
2, 107460, Note_on_c, 0, 88, 0
2, 107460, Note_on_c, 0, 76, 80
2, 107520, Note_on_c, 0, 76, 0
2, 107520, Note_on_c, 0, 88, 80
2, 107670, Note_on_c, 0, 88, 0
2, 107670, Note_on_c, 0, 86, 80
2, 107700, Note_on_c, 0, 86, 0
2, 107700, Note_on_c, 0, 84, 80
2, 107730, Note_on_c, 0, 84, 0
2, 107730, Note_on_c, 0, 83, 80
2, 107760, Note_on_c, 0, 83, 0
2, 107760, Note_on_c, 0, 81, 80
2, 107844, Note_on_c, 0, 81, 0
2, 107880, Note_on_c, 0, 86, 80
2, 107940, Note_on_c, 0, 86, 0
2, 107940, Note_on_c, 0, 74, 80
2, 108000, Note_on_c, 0, 74, 0
2, 108000, Note_on_c, 0, 86, 80
2, 108060, Note_on_c, 0, 86, 0
2, 108060, Note_on_c, 0, 74, 80
2, 108120, Note_on_c, 0, 74, 0
2, 108120, Note_on_c, 0, 86, 80
2, 108180, Note_on_c, 0, 86, 0
2, 108180, Note_on_c, 0, 74, 80
2, 108240, Note_on_c, 0, 74, 0
2, 108240, Note_on_c, 0, 86, 80
2, 108300, Note_on_c, 0, 86, 0
2, 108300, Note_on_c, 0, 74, 80
2, 108360, Note_on_c, 0, 74, 0
2, 108360, Note_on_c, 0, 86, 80
2, 108420, Note_on_c, 0, 86, 0
2, 108420, Note_on_c, 0, 74, 80
2, 108480, Note_on_c, 0, 74, 0
2, 108480, Note_on_c, 0, 86, 80
2, 108630, Note_on_c, 0, 86, 0
2, 108630, Note_on_c, 0, 84, 80
2, 108660, Note_on_c, 0, 84, 0
2, 108660, Note_on_c, 0, 83, 80
2, 108690, Note_on_c, 0, 83, 0
2, 108690, Note_on_c, 0, 81, 80
2, 108720, Note_on_c, 0, 81, 0
2, 108720, Note_on_c, 0, 79, 80
2, 108840, Note_on_c, 0, 79, 0
2, 109800, Note_on_c, 0, 86, 56
2, 109830, Note_on_c, 0, 86, 0
2, 109830, Note_on_c, 0, 84, 56
2, 109860, Note_on_c, 0, 84, 0
2, 109860, Note_on_c, 0, 83, 56
2, 109890, Note_on_c, 0, 83, 0
2, 109890, Note_on_c, 0, 81, 56
2, 109920, Note_on_c, 0, 81, 0
2, 109920, Note_on_c, 0, 79, 56
2, 109968, Note_on_c, 0, 79, 0
2, 110040, Note_on_c, 0, 83, 56
2, 110070, Note_on_c, 0, 83, 0
2, 110070, Note_on_c, 0, 81, 56
2, 110100, Note_on_c, 0, 81, 0
2, 110100, Note_on_c, 0, 79, 56
2, 110130, Note_on_c, 0, 79, 0
2, 110130, Note_on_c, 0, 78, 56
2, 110160, Note_on_c, 0, 78, 0
2, 110160, Note_on_c, 0, 76, 56
2, 110208, Note_on_c, 0, 76, 0
2, 110280, Note_on_c, 0, 79, 56
2, 110310, Note_on_c, 0, 79, 0
2, 110310, Note_on_c, 0, 78, 56
2, 110340, Note_on_c, 0, 78, 0
2, 110340, Note_on_c, 0, 76, 56
2, 110370, Note_on_c, 0, 76, 0
2, 110370, Note_on_c, 0, 74, 56
2, 110400, Note_on_c, 0, 74, 0
2, 110400, Note_on_c, 0, 72, 56
2, 110640, Note_on_c, 0, 72, 0
2, 110760, Note_on_c, 0, 79, 80
2, 110790, Note_on_c, 0, 79, 0
2, 110790, Note_on_c, 0, 77, 80
2, 110820, Note_on_c, 0, 77, 0
2, 110820, Note_on_c, 0, 75, 80
2, 110850, Note_on_c, 0, 75, 0
2, 110850, Note_on_c, 0, 74, 80
2, 110880, Note_on_c, 0, 74, 0
2, 110880, Note_on_c, 0, 72, 80
2, 110964, Note_on_c, 0, 72, 0
2, 111000, Note_on_c, 0, 83, 80
2, 111120, Note_on_c, 0, 83, 0
2, 111120, Note_on_c, 0, 84, 80
2, 111168, Note_on_c, 0, 84, 0
2, 111240, Note_on_c, 0, 84, 80
2, 111288, Note_on_c, 0, 84, 0
2, 111360, Note_on_c, 0, 84, 80
2, 111420, Note_on_c, 0, 84, 0
2, 111420, Note_on_c, 0, 83, 80
2, 111480, Note_on_c, 0, 83, 0
2, 111480, Note_on_c, 0, 84, 80
2, 111540, Note_on_c, 0, 84, 0
2, 111540, Note_on_c, 0, 81, 80
2, 111600, Note_on_c, 0, 81, 0
2, 111600, Note_on_c, 0, 83, 80
2, 111660, Note_on_c, 0, 83, 0
2, 111660, Note_on_c, 0, 81, 80
2, 111720, Note_on_c, 0, 81, 0
2, 111720, Note_on_c, 0, 83, 80
2, 111780, Note_on_c, 0, 83, 0
2, 111780, Note_on_c, 0, 79, 80
2, 111840, Note_on_c, 0, 79, 0
2, 111840, Note_on_c, 0, 81, 80
2, 111900, Note_on_c, 0, 81, 0
2, 111900, Note_on_c, 0, 80, 80
2, 111960, Note_on_c, 0, 80, 0
2, 111960, Note_on_c, 0, 81, 80
2, 112020, Note_on_c, 0, 81, 0
2, 112020, Note_on_c, 0, 76, 80
2, 112080, Note_on_c, 0, 76, 0
2, 112080, Note_on_c, 0, 79, 80
2, 112140, Note_on_c, 0, 79, 0
2, 112140, Note_on_c, 0, 78, 80
2, 112200, Note_on_c, 0, 78, 0
2, 112200, Note_on_c, 0, 76, 80
2, 112260, Note_on_c, 0, 76, 0
2, 112260, Note_on_c, 0, 74, 80
2, 112320, Note_on_c, 0, 74, 0
2, 112320, Note_on_c, 0, 79, 80
2, 112380, Note_on_c, 0, 79, 0
2, 112380, Note_on_c, 0, 74, 80
2, 112440, Note_on_c, 0, 74, 0
2, 112440, Note_on_c, 0, 79, 80
2, 112500, Note_on_c, 0, 79, 0
2, 112500, Note_on_c, 0, 83, 80
2, 112560, Note_on_c, 0, 83, 0
2, 112560, Note_on_c, 0, 86, 80
2, 112620, Note_on_c, 0, 86, 0
2, 112620, Note_on_c, 0, 83, 80
2, 112680, Note_on_c, 0, 83, 0
2, 112680, Note_on_c, 0, 81, 80
2, 112740, Note_on_c, 0, 81, 0
2, 112740, Note_on_c, 0, 79, 80
2, 112800, Note_on_c, 0, 79, 0
2, 112800, Note_on_c, 0, 78, 80
2, 112860, Note_on_c, 0, 78, 0
2, 112860, Note_on_c, 0, 74, 80
2, 112920, Note_on_c, 0, 74, 0
2, 112920, Note_on_c, 0, 78, 80
2, 112980, Note_on_c, 0, 78, 0
2, 112980, Note_on_c, 0, 81, 80
2, 113040, Note_on_c, 0, 81, 0
2, 113040, Note_on_c, 0, 84, 80
2, 113100, Note_on_c, 0, 84, 0
2, 113100, Note_on_c, 0, 81, 80
2, 113160, Note_on_c, 0, 81, 0
2, 113160, Note_on_c, 0, 79, 80
2, 113220, Note_on_c, 0, 79, 0
2, 113220, Note_on_c, 0, 78, 80
2, 113280, Note_on_c, 0, 78, 0
2, 113280, Note_on_c, 0, 79, 56
2, 113340, Note_on_c, 0, 79, 0
2, 113340, Note_on_c, 0, 74, 58
2, 113400, Note_on_c, 0, 74, 0
2, 113400, Note_on_c, 0, 79, 59
2, 113460, Note_on_c, 0, 79, 0
2, 113460, Note_on_c, 0, 83, 61
2, 113520, Note_on_c, 0, 83, 0
2, 113520, Note_on_c, 0, 86, 62
2, 113580, Note_on_c, 0, 86, 0
2, 113580, Note_on_c, 0, 83, 64
2, 113640, Note_on_c, 0, 83, 0
2, 113640, Note_on_c, 0, 81, 65
2, 113700, Note_on_c, 0, 81, 0
2, 113700, Note_on_c, 0, 79, 67
2, 113760, Note_on_c, 0, 79, 0
2, 113760, Note_on_c, 0, 78, 68
2, 113820, Note_on_c, 0, 78, 0
2, 113820, Note_on_c, 0, 74, 70
2, 113880, Note_on_c, 0, 74, 0
2, 113880, Note_on_c, 0, 78, 71
2, 113940, Note_on_c, 0, 78, 0
2, 113940, Note_on_c, 0, 81, 73
2, 114000, Note_on_c, 0, 81, 0
2, 114000, Note_on_c, 0, 84, 74
2, 114060, Note_on_c, 0, 84, 0
2, 114060, Note_on_c, 0, 81, 76
2, 114120, Note_on_c, 0, 81, 0
2, 114120, Note_on_c, 0, 79, 77
2, 114180, Note_on_c, 0, 79, 0
2, 114180, Note_on_c, 0, 78, 79
2, 114240, Note_on_c, 0, 78, 0
2, 114240, Note_on_c, 0, 79, 80
2, 114300, Note_on_c, 0, 79, 0
2, 114300, Note_on_c, 0, 83, 82
2, 114360, Note_on_c, 0, 83, 0
2, 114360, Note_on_c, 0, 79, 84
2, 114420, Note_on_c, 0, 79, 0
2, 114420, Note_on_c, 0, 74, 86
2, 114480, Note_on_c, 0, 74, 0
2, 114480, Note_on_c, 0, 71, 88
2, 114540, Note_on_c, 0, 71, 0
2, 114540, Note_on_c, 0, 67, 90
2, 114600, Note_on_c, 0, 67, 0
2, 114600, Note_on_c, 0, 62, 92
2, 114660, Note_on_c, 0, 62, 0
2, 114660, Note_on_c, 0, 59, 94
2, 114720, Note_on_c, 0, 59, 0
2, 114720, Note_on_c, 0, 55, 96
2, 114840, Note_on_c, 0, 55, 0
2, 114840, End_track
3, 0, Start_track
3, 0, MIDI_port, 0
3, 0, Title_t, "by FJ Haydn (2nd mvmt-Finale.Presto)"
3, 0, Program_c, 1, 0
3, 0, Control_c, 1, 7, 112
3, 0, Control_c, 1, 10, 56
3, 0, Note_on_c, 1, 59, 80
3, 0, Note_on_c, 1, 55, 80
3, 48, Note_on_c, 1, 55, 0
3, 48, Note_on_c, 1, 59, 0
3, 120, Note_on_c, 1, 59, 80
3, 120, Note_on_c, 1, 55, 80
3, 168, Note_on_c, 1, 55, 0
3, 168, Note_on_c, 1, 59, 0
3, 240, Note_on_c, 1, 59, 80
3, 240, Note_on_c, 1, 55, 80
3, 288, Note_on_c, 1, 55, 0
3, 288, Note_on_c, 1, 59, 0
3, 360, Note_on_c, 1, 59, 80
3, 360, Note_on_c, 1, 55, 80
3, 408, Note_on_c, 1, 55, 0
3, 408, Note_on_c, 1, 59, 0
3, 480, Note_on_c, 1, 59, 80
3, 480, Note_on_c, 1, 55, 80
3, 528, Note_on_c, 1, 55, 0
3, 528, Note_on_c, 1, 59, 0
3, 600, Note_on_c, 1, 59, 80
3, 600, Note_on_c, 1, 55, 80
3, 648, Note_on_c, 1, 55, 0
3, 648, Note_on_c, 1, 59, 0
3, 720, Note_on_c, 1, 59, 80
3, 720, Note_on_c, 1, 55, 80
3, 768, Note_on_c, 1, 55, 0
3, 768, Note_on_c, 1, 59, 0
3, 840, Note_on_c, 1, 59, 80
3, 840, Note_on_c, 1, 55, 80
3, 888, Note_on_c, 1, 55, 0
3, 888, Note_on_c, 1, 59, 0
3, 960, Note_on_c, 1, 55, 80
3, 960, Note_on_c, 1, 60, 80
3, 1200, Note_on_c, 1, 60, 0
3, 1200, Note_on_c, 1, 55, 0
3, 1200, Note_on_c, 1, 55, 80
3, 1200, Note_on_c, 1, 59, 80
3, 1320, Note_on_c, 1, 59, 0
3, 1320, Note_on_c, 1, 55, 0
3, 1440, Note_on_c, 1, 67, 80
3, 1440, Note_on_c, 1, 65, 80
3, 1488, Note_on_c, 1, 65, 0
3, 1488, Note_on_c, 1, 67, 0
3, 1560, Note_on_c, 1, 67, 80
3, 1560, Note_on_c, 1, 65, 80
3, 1608, Note_on_c, 1, 65, 0
3, 1608, Note_on_c, 1, 67, 0
3, 1680, Note_on_c, 1, 67, 80
3, 1680, Note_on_c, 1, 65, 80
3, 1728, Note_on_c, 1, 65, 0
3, 1728, Note_on_c, 1, 67, 0
3, 1800, Note_on_c, 1, 67, 80
3, 1800, Note_on_c, 1, 65, 80
3, 1872, Note_on_c, 1, 65, 0
3, 1872, Note_on_c, 1, 67, 0
3, 1920, Note_on_c, 1, 64, 80
3, 1920, Note_on_c, 1, 67, 80
3, 2280, Note_on_c, 1, 67, 0
3, 2280, Note_on_c, 1, 64, 0
3, 2280, Note_on_c, 1, 62, 80
3, 2280, Note_on_c, 1, 65, 80
3, 2400, Note_on_c, 1, 65, 0
3, 2400, Note_on_c, 1, 62, 0
3, 2400, Note_on_c, 1, 60, 80
3, 2400, Note_on_c, 1, 64, 80
3, 2640, Note_on_c, 1, 64, 0
3, 2640, Note_on_c, 1, 60, 0
3, 2640, Note_on_c, 1, 61, 80
3, 2640, Note_on_c, 1, 64, 80
3, 2880, Note_on_c, 1, 64, 0
3, 2880, Note_on_c, 1, 61, 0
3, 2880, Note_on_c, 1, 62, 80
3, 3120, Note_on_c, 1, 62, 0
3, 3840, Note_on_c, 1, 55, 80
3, 3840, Note_on_c, 1, 59, 80
3, 3888, Note_on_c, 1, 59, 0
3, 3888, Note_on_c, 1, 55, 0
3, 3960, Note_on_c, 1, 55, 80
3, 3960, Note_on_c, 1, 59, 80
3, 4008, Note_on_c, 1, 59, 0
3, 4008, Note_on_c, 1, 55, 0
3, 4080, Note_on_c, 1, 55, 80
3, 4080, Note_on_c, 1, 59, 80
3, 4128, Note_on_c, 1, 59, 0
3, 4128, Note_on_c, 1, 55, 0
3, 4200, Note_on_c, 1, 55, 80
3, 4200, Note_on_c, 1, 59, 80
3, 4248, Note_on_c, 1, 59, 0
3, 4248, Note_on_c, 1, 55, 0
3, 4320, Note_on_c, 1, 55, 80
3, 4320, Note_on_c, 1, 59, 80
3, 4368, Note_on_c, 1, 59, 0
3, 4368, Note_on_c, 1, 55, 0
3, 4440, Note_on_c, 1, 55, 80
3, 4440, Note_on_c, 1, 59, 80
3, 4488, Note_on_c, 1, 59, 0
3, 4488, Note_on_c, 1, 55, 0
3, 4560, Note_on_c, 1, 55, 80
3, 4560, Note_on_c, 1, 59, 80
3, 4608, Note_on_c, 1, 59, 0
3, 4608, Note_on_c, 1, 55, 0
3, 4680, Note_on_c, 1, 55, 80
3, 4680, Note_on_c, 1, 59, 80
3, 4728, Note_on_c, 1, 59, 0
3, 4728, Note_on_c, 1, 55, 0
3, 4800, Note_on_c, 1, 60, 80
3, 4800, Note_on_c, 1, 55, 80
3, 5040, Note_on_c, 1, 55, 0
3, 5040, Note_on_c, 1, 60, 0
3, 5040, Note_on_c, 1, 59, 80
3, 5040, Note_on_c, 1, 55, 80
3, 5160, Note_on_c, 1, 55, 0
3, 5160, Note_on_c, 1, 59, 0
3, 5280, Note_on_c, 1, 67, 80
3, 5280, Note_on_c, 1, 71, 80
3, 5328, Note_on_c, 1, 71, 0
3, 5328, Note_on_c, 1, 67, 0
3, 5400, Note_on_c, 1, 67, 80
3, 5400, Note_on_c, 1, 71, 80
3, 5448, Note_on_c, 1, 71, 0
3, 5448, Note_on_c, 1, 67, 0
3, 5520, Note_on_c, 1, 67, 80
3, 5520, Note_on_c, 1, 71, 80
3, 5568, Note_on_c, 1, 71, 0
3, 5568, Note_on_c, 1, 67, 0
3, 5640, Note_on_c, 1, 67, 80
3, 5640, Note_on_c, 1, 71, 80
3, 5712, Note_on_c, 1, 71, 0
3, 5712, Note_on_c, 1, 67, 0
3, 5760, Note_on_c, 1, 67, 80
3, 5760, Note_on_c, 1, 71, 80
3, 5808, Note_on_c, 1, 71, 0
3, 5808, Note_on_c, 1, 67, 0
3, 5880, Note_on_c, 1, 67, 80
3, 5880, Note_on_c, 1, 71, 80
3, 5928, Note_on_c, 1, 71, 0
3, 5928, Note_on_c, 1, 67, 0
3, 6000, Note_on_c, 1, 67, 80
3, 6000, Note_on_c, 1, 71, 80
3, 6048, Note_on_c, 1, 71, 0
3, 6048, Note_on_c, 1, 67, 0
3, 6120, Note_on_c, 1, 71, 80
3, 6120, Note_on_c, 1, 67, 80
3, 6168, Note_on_c, 1, 67, 0
3, 6168, Note_on_c, 1, 71, 0
3, 6240, Note_on_c, 1, 57, 80
3, 6240, Note_on_c, 1, 66, 80
3, 6288, Note_on_c, 1, 66, 0
3, 6288, Note_on_c, 1, 57, 0
3, 6360, Note_on_c, 1, 57, 80
3, 6360, Note_on_c, 1, 66, 80
3, 6408, Note_on_c, 1, 66, 0
3, 6408, Note_on_c, 1, 57, 0
3, 6480, Note_on_c, 1, 57, 80
3, 6480, Note_on_c, 1, 64, 80
3, 6528, Note_on_c, 1, 64, 0
3, 6528, Note_on_c, 1, 57, 0
3, 6600, Note_on_c, 1, 57, 80
3, 6600, Note_on_c, 1, 64, 80
3, 6648, Note_on_c, 1, 64, 0
3, 6648, Note_on_c, 1, 57, 0
3, 6720, Note_on_c, 1, 62, 80
3, 6720, Note_on_c, 1, 66, 80
3, 6768, Note_on_c, 1, 66, 0
3, 6768, Note_on_c, 1, 62, 0
3, 6840, Note_on_c, 1, 62, 80
3, 6840, Note_on_c, 1, 66, 80
3, 6888, Note_on_c, 1, 66, 0
3, 6888, Note_on_c, 1, 62, 0
3, 6960, Note_on_c, 1, 62, 80
3, 6960, Note_on_c, 1, 66, 80
3, 7008, Note_on_c, 1, 66, 0
3, 7008, Note_on_c, 1, 62, 0
3, 7080, Note_on_c, 1, 62, 80
3, 7080, Note_on_c, 1, 66, 80
3, 7128, Note_on_c, 1, 66, 0
3, 7128, Note_on_c, 1, 62, 0
3, 7200, Note_on_c, 1, 62, 80
3, 7200, Note_on_c, 1, 67, 80
3, 7248, Note_on_c, 1, 67, 0
3, 7248, Note_on_c, 1, 62, 0
3, 7320, Note_on_c, 1, 62, 80
3, 7320, Note_on_c, 1, 67, 80
3, 7368, Note_on_c, 1, 67, 0
3, 7368, Note_on_c, 1, 62, 0
3, 7440, Note_on_c, 1, 62, 80
3, 7440, Note_on_c, 1, 67, 80
3, 7488, Note_on_c, 1, 67, 0
3, 7488, Note_on_c, 1, 62, 0
3, 7560, Note_on_c, 1, 62, 80
3, 7560, Note_on_c, 1, 67, 80
3, 7608, Note_on_c, 1, 67, 0
3, 7608, Note_on_c, 1, 62, 0
3, 7680, Note_on_c, 1, 66, 56
3, 7680, Note_on_c, 1, 62, 56
3, 7728, Note_on_c, 1, 62, 0
3, 7728, Note_on_c, 1, 66, 0
3, 7800, Note_on_c, 1, 66, 59
3, 7800, Note_on_c, 1, 62, 59
3, 7848, Note_on_c, 1, 62, 0
3, 7848, Note_on_c, 1, 66, 0
3, 7920, Note_on_c, 1, 66, 62
3, 7920, Note_on_c, 1, 62, 62
3, 7968, Note_on_c, 1, 62, 0
3, 7968, Note_on_c, 1, 66, 0
3, 8040, Note_on_c, 1, 66, 65
3, 8040, Note_on_c, 1, 62, 65
3, 8088, Note_on_c, 1, 62, 0
3, 8088, Note_on_c, 1, 66, 0
3, 8160, Note_on_c, 1, 67, 68
3, 8160, Note_on_c, 1, 62, 68
3, 8208, Note_on_c, 1, 62, 0
3, 8208, Note_on_c, 1, 67, 0
3, 8280, Note_on_c, 1, 67, 71
3, 8280, Note_on_c, 1, 62, 71
3, 8328, Note_on_c, 1, 62, 0
3, 8328, Note_on_c, 1, 67, 0
3, 8400, Note_on_c, 1, 67, 74
3, 8400, Note_on_c, 1, 62, 74
3, 8448, Note_on_c, 1, 62, 0
3, 8448, Note_on_c, 1, 67, 0
3, 8520, Note_on_c, 1, 67, 77
3, 8520, Note_on_c, 1, 62, 77
3, 8568, Note_on_c, 1, 62, 0
3, 8568, Note_on_c, 1, 67, 0
3, 8640, Note_on_c, 1, 62, 80
3, 8640, Note_on_c, 1, 66, 80
3, 8880, Note_on_c, 1, 66, 0
3, 8880, Note_on_c, 1, 62, 0
3, 9120, Note_on_c, 1, 38, 96
3, 9120, Note_on_c, 1, 50, 96
3, 9288, Note_on_c, 1, 50, 0
3, 9288, Note_on_c, 1, 38, 0
3, 9600, Note_on_c, 1, 55, 80
3, 9600, Note_on_c, 1, 59, 80
3, 9648, Note_on_c, 1, 59, 0
3, 9648, Note_on_c, 1, 55, 0
3, 9720, Note_on_c, 1, 55, 80
3, 9720, Note_on_c, 1, 59, 80
3, 9768, Note_on_c, 1, 59, 0
3, 9768, Note_on_c, 1, 55, 0
3, 9840, Note_on_c, 1, 55, 80
3, 9840, Note_on_c, 1, 59, 80
3, 9888, Note_on_c, 1, 59, 0
3, 9888, Note_on_c, 1, 55, 0
3, 9960, Note_on_c, 1, 55, 80
3, 9960, Note_on_c, 1, 59, 80
3, 10008, Note_on_c, 1, 59, 0
3, 10008, Note_on_c, 1, 55, 0
3, 10080, Note_on_c, 1, 55, 80
3, 10080, Note_on_c, 1, 59, 80
3, 10128, Note_on_c, 1, 59, 0
3, 10128, Note_on_c, 1, 55, 0
3, 10200, Note_on_c, 1, 55, 80
3, 10200, Note_on_c, 1, 59, 80
3, 10248, Note_on_c, 1, 59, 0
3, 10248, Note_on_c, 1, 55, 0
3, 10320, Note_on_c, 1, 55, 80
3, 10320, Note_on_c, 1, 59, 80
3, 10368, Note_on_c, 1, 59, 0
3, 10368, Note_on_c, 1, 55, 0
3, 10440, Note_on_c, 1, 55, 80
3, 10440, Note_on_c, 1, 59, 80
3, 10488, Note_on_c, 1, 59, 0
3, 10488, Note_on_c, 1, 55, 0
3, 10560, Note_on_c, 1, 60, 80
3, 10560, Note_on_c, 1, 55, 80
3, 10800, Note_on_c, 1, 55, 0
3, 10800, Note_on_c, 1, 60, 0
3, 10800, Note_on_c, 1, 59, 80
3, 10800, Note_on_c, 1, 55, 80
3, 10920, Note_on_c, 1, 55, 0
3, 10920, Note_on_c, 1, 59, 0
3, 11040, Note_on_c, 1, 65, 80
3, 11040, Note_on_c, 1, 67, 80
3, 11088, Note_on_c, 1, 67, 0
3, 11088, Note_on_c, 1, 65, 0
3, 11160, Note_on_c, 1, 65, 80
3, 11160, Note_on_c, 1, 67, 80
3, 11208, Note_on_c, 1, 67, 0
3, 11208, Note_on_c, 1, 65, 0
3, 11280, Note_on_c, 1, 65, 80
3, 11280, Note_on_c, 1, 67, 80
3, 11328, Note_on_c, 1, 67, 0
3, 11328, Note_on_c, 1, 65, 0
3, 11400, Note_on_c, 1, 65, 80
3, 11400, Note_on_c, 1, 67, 80
3, 11472, Note_on_c, 1, 67, 0
3, 11472, Note_on_c, 1, 65, 0
3, 11520, Note_on_c, 1, 67, 80
3, 11520, Note_on_c, 1, 64, 80
3, 11880, Note_on_c, 1, 64, 0
3, 11880, Note_on_c, 1, 67, 0
3, 11880, Note_on_c, 1, 65, 80
3, 11880, Note_on_c, 1, 62, 80
3, 12000, Note_on_c, 1, 62, 0
3, 12000, Note_on_c, 1, 65, 0
3, 12000, Note_on_c, 1, 64, 80
3, 12000, Note_on_c, 1, 60, 80
3, 12240, Note_on_c, 1, 60, 0
3, 12240, Note_on_c, 1, 64, 0
3, 12240, Note_on_c, 1, 64, 80
3, 12240, Note_on_c, 1, 61, 80
3, 12480, Note_on_c, 1, 61, 0
3, 12480, Note_on_c, 1, 64, 0
3, 12480, Note_on_c, 1, 62, 80
3, 12720, Note_on_c, 1, 62, 0
3, 13440, Note_on_c, 1, 59, 80
3, 13440, Note_on_c, 1, 55, 80
3, 13488, Note_on_c, 1, 55, 0
3, 13488, Note_on_c, 1, 59, 0
3, 13560, Note_on_c, 1, 59, 80
3, 13560, Note_on_c, 1, 55, 80
3, 13608, Note_on_c, 1, 55, 0
3, 13608, Note_on_c, 1, 59, 0
3, 13680, Note_on_c, 1, 59, 80
3, 13680, Note_on_c, 1, 55, 80
3, 13728, Note_on_c, 1, 55, 0
3, 13728, Note_on_c, 1, 59, 0
3, 13800, Note_on_c, 1, 59, 80
3, 13800, Note_on_c, 1, 55, 80
3, 13848, Note_on_c, 1, 55, 0
3, 13848, Note_on_c, 1, 59, 0
3, 13920, Note_on_c, 1, 59, 80
3, 13920, Note_on_c, 1, 55, 80
3, 13968, Note_on_c, 1, 55, 0
3, 13968, Note_on_c, 1, 59, 0
3, 14040, Note_on_c, 1, 59, 80
3, 14040, Note_on_c, 1, 55, 80
3, 14088, Note_on_c, 1, 55, 0
3, 14088, Note_on_c, 1, 59, 0
3, 14160, Note_on_c, 1, 59, 80
3, 14160, Note_on_c, 1, 55, 80
3, 14208, Note_on_c, 1, 55, 0
3, 14208, Note_on_c, 1, 59, 0
3, 14280, Note_on_c, 1, 59, 80
3, 14280, Note_on_c, 1, 55, 80
3, 14328, Note_on_c, 1, 55, 0
3, 14328, Note_on_c, 1, 59, 0
3, 14400, Note_on_c, 1, 55, 80
3, 14400, Note_on_c, 1, 60, 80
3, 14640, Note_on_c, 1, 60, 0
3, 14640, Note_on_c, 1, 55, 0
3, 14640, Note_on_c, 1, 55, 80
3, 14640, Note_on_c, 1, 59, 80
3, 14760, Note_on_c, 1, 59, 0
3, 14760, Note_on_c, 1, 55, 0
3, 14880, Note_on_c, 1, 71, 80
3, 14880, Note_on_c, 1, 67, 80
3, 14928, Note_on_c, 1, 67, 0
3, 14928, Note_on_c, 1, 71, 0
3, 15000, Note_on_c, 1, 71, 80
3, 15000, Note_on_c, 1, 67, 80
3, 15048, Note_on_c, 1, 67, 0
3, 15048, Note_on_c, 1, 71, 0
3, 15120, Note_on_c, 1, 71, 80
3, 15120, Note_on_c, 1, 67, 80
3, 15168, Note_on_c, 1, 67, 0
3, 15168, Note_on_c, 1, 71, 0
3, 15240, Note_on_c, 1, 71, 80
3, 15240, Note_on_c, 1, 67, 80
3, 15312, Note_on_c, 1, 67, 0
3, 15312, Note_on_c, 1, 71, 0
3, 15360, Note_on_c, 1, 71, 80
3, 15360, Note_on_c, 1, 67, 80
3, 15408, Note_on_c, 1, 67, 0
3, 15408, Note_on_c, 1, 71, 0
3, 15480, Note_on_c, 1, 71, 80
3, 15480, Note_on_c, 1, 67, 80
3, 15528, Note_on_c, 1, 67, 0
3, 15528, Note_on_c, 1, 71, 0
3, 15600, Note_on_c, 1, 71, 80
3, 15600, Note_on_c, 1, 67, 80
3, 15648, Note_on_c, 1, 67, 0
3, 15648, Note_on_c, 1, 71, 0
3, 15720, Note_on_c, 1, 67, 80
3, 15720, Note_on_c, 1, 71, 80
3, 15768, Note_on_c, 1, 71, 0
3, 15768, Note_on_c, 1, 67, 0
3, 15840, Note_on_c, 1, 66, 80
3, 15840, Note_on_c, 1, 57, 80
3, 15888, Note_on_c, 1, 57, 0
3, 15888, Note_on_c, 1, 66, 0
3, 15960, Note_on_c, 1, 66, 80
3, 15960, Note_on_c, 1, 57, 80
3, 16008, Note_on_c, 1, 57, 0
3, 16008, Note_on_c, 1, 66, 0
3, 16080, Note_on_c, 1, 64, 80
3, 16080, Note_on_c, 1, 57, 80
3, 16128, Note_on_c, 1, 57, 0
3, 16128, Note_on_c, 1, 64, 0
3, 16200, Note_on_c, 1, 64, 80
3, 16200, Note_on_c, 1, 57, 80
3, 16248, Note_on_c, 1, 57, 0
3, 16248, Note_on_c, 1, 64, 0
3, 16320, Note_on_c, 1, 66, 80
3, 16320, Note_on_c, 1, 62, 80
3, 16368, Note_on_c, 1, 62, 0
3, 16368, Note_on_c, 1, 66, 0
3, 16440, Note_on_c, 1, 66, 80
3, 16440, Note_on_c, 1, 62, 80
3, 16488, Note_on_c, 1, 62, 0
3, 16488, Note_on_c, 1, 66, 0
3, 16560, Note_on_c, 1, 66, 80
3, 16560, Note_on_c, 1, 62, 80
3, 16608, Note_on_c, 1, 62, 0
3, 16608, Note_on_c, 1, 66, 0
3, 16680, Note_on_c, 1, 66, 80
3, 16680, Note_on_c, 1, 62, 80
3, 16728, Note_on_c, 1, 62, 0
3, 16728, Note_on_c, 1, 66, 0
3, 16800, Note_on_c, 1, 67, 80
3, 16800, Note_on_c, 1, 62, 80
3, 16848, Note_on_c, 1, 62, 0
3, 16848, Note_on_c, 1, 67, 0
3, 16920, Note_on_c, 1, 67, 80
3, 16920, Note_on_c, 1, 62, 80
3, 16968, Note_on_c, 1, 62, 0
3, 16968, Note_on_c, 1, 67, 0
3, 17040, Note_on_c, 1, 67, 80
3, 17040, Note_on_c, 1, 62, 80
3, 17088, Note_on_c, 1, 62, 0
3, 17088, Note_on_c, 1, 67, 0
3, 17160, Note_on_c, 1, 67, 80
3, 17160, Note_on_c, 1, 62, 80
3, 17208, Note_on_c, 1, 62, 0
3, 17208, Note_on_c, 1, 67, 0
3, 17280, Note_on_c, 1, 62, 56
3, 17280, Note_on_c, 1, 66, 56
3, 17328, Note_on_c, 1, 66, 0
3, 17328, Note_on_c, 1, 62, 0
3, 17400, Note_on_c, 1, 62, 59
3, 17400, Note_on_c, 1, 66, 59
3, 17448, Note_on_c, 1, 66, 0
3, 17448, Note_on_c, 1, 62, 0
3, 17520, Note_on_c, 1, 62, 62
3, 17520, Note_on_c, 1, 66, 62
3, 17568, Note_on_c, 1, 66, 0
3, 17568, Note_on_c, 1, 62, 0
3, 17640, Note_on_c, 1, 62, 65
3, 17640, Note_on_c, 1, 66, 65
3, 17688, Note_on_c, 1, 66, 0
3, 17688, Note_on_c, 1, 62, 0
3, 17760, Note_on_c, 1, 62, 68
3, 17760, Note_on_c, 1, 67, 68
3, 17808, Note_on_c, 1, 67, 0
3, 17808, Note_on_c, 1, 62, 0
3, 17880, Note_on_c, 1, 62, 71
3, 17880, Note_on_c, 1, 67, 71
3, 17928, Note_on_c, 1, 67, 0
3, 17928, Note_on_c, 1, 62, 0
3, 18000, Note_on_c, 1, 62, 74
3, 18000, Note_on_c, 1, 67, 74
3, 18048, Note_on_c, 1, 67, 0
3, 18048, Note_on_c, 1, 62, 0
3, 18120, Note_on_c, 1, 62, 77
3, 18120, Note_on_c, 1, 67, 77
3, 18168, Note_on_c, 1, 67, 0
3, 18168, Note_on_c, 1, 62, 0
3, 18240, Note_on_c, 1, 66, 80
3, 18240, Note_on_c, 1, 62, 80
3, 18480, Note_on_c, 1, 62, 0
3, 18480, Note_on_c, 1, 66, 0
3, 18720, Note_on_c, 1, 50, 96
3, 18720, Note_on_c, 1, 38, 96
3, 18888, Note_on_c, 1, 38, 0
3, 18888, Note_on_c, 1, 50, 0
3, 19200, Note_on_c, 1, 62, 56
3, 19200, Note_on_c, 1, 58, 56
3, 19440, Note_on_c, 1, 58, 0
3, 19440, Note_on_c, 1, 62, 0
3, 19560, Note_on_c, 1, 62, 56
3, 19560, Note_on_c, 1, 58, 56
3, 19680, Note_on_c, 1, 58, 0
3, 19680, Note_on_c, 1, 62, 0
3, 19680, Note_on_c, 1, 60, 56
3, 19680, Note_on_c, 1, 63, 56
3, 19920, Note_on_c, 1, 63, 0
3, 19920, Note_on_c, 1, 60, 0
3, 20040, Note_on_c, 1, 60, 56
3, 20040, Note_on_c, 1, 63, 56
3, 20160, Note_on_c, 1, 63, 0
3, 20160, Note_on_c, 1, 60, 0
3, 20160, Note_on_c, 1, 62, 56
3, 20160, Note_on_c, 1, 65, 56
3, 20400, Note_on_c, 1, 65, 0
3, 20400, Note_on_c, 1, 62, 0
3, 20520, Note_on_c, 1, 62, 56
3, 20520, Note_on_c, 1, 58, 56
3, 20640, Note_on_c, 1, 58, 0
3, 20640, Note_on_c, 1, 62, 0
3, 20640, Note_on_c, 1, 57, 56
3, 20640, Note_on_c, 1, 60, 56
3, 20880, Note_on_c, 1, 60, 0
3, 20880, Note_on_c, 1, 57, 0
3, 21000, Note_on_c, 1, 57, 56
3, 21000, Note_on_c, 1, 60, 56
3, 21120, Note_on_c, 1, 60, 0
3, 21120, Note_on_c, 1, 57, 0
3, 21120, Note_on_c, 1, 62, 56
3, 21120, Note_on_c, 1, 58, 56
3, 21360, Note_on_c, 1, 58, 0
3, 21360, Note_on_c, 1, 62, 0
3, 21480, Note_on_c, 1, 55, 56
3, 21480, Note_on_c, 1, 58, 56
3, 21600, Note_on_c, 1, 58, 0
3, 21600, Note_on_c, 1, 55, 0
3, 21600, Note_on_c, 1, 51, 56
3, 21600, Note_on_c, 1, 55, 56
3, 21840, Note_on_c, 1, 55, 0
3, 21840, Note_on_c, 1, 51, 0
3, 21960, Note_on_c, 1, 51, 56
3, 21960, Note_on_c, 1, 55, 56
3, 22080, Note_on_c, 1, 55, 0
3, 22080, Note_on_c, 1, 51, 0
3, 22080, Note_on_c, 1, 50, 80
3, 22080, Note_on_c, 1, 54, 80
3, 22260, Note_on_c, 1, 54, 0
3, 22260, Note_on_c, 1, 50, 0
3, 22260, Note_on_c, 1, 42, 80
3, 22290, Note_on_c, 1, 42, 0
3, 22290, Note_on_c, 1, 43, 80
3, 22320, Note_on_c, 1, 43, 0
3, 22320, Note_on_c, 1, 45, 80
3, 22368, Note_on_c, 1, 45, 0
3, 22440, Note_on_c, 1, 42, 80
3, 22488, Note_on_c, 1, 42, 0
3, 22560, Note_on_c, 1, 38, 80
3, 22800, Note_on_c, 1, 38, 0
3, 23040, Note_on_c, 1, 59, 80
3, 23040, Note_on_c, 1, 55, 80
3, 23088, Note_on_c, 1, 55, 0
3, 23088, Note_on_c, 1, 59, 0
3, 23160, Note_on_c, 1, 59, 80
3, 23160, Note_on_c, 1, 55, 80
3, 23208, Note_on_c, 1, 55, 0
3, 23208, Note_on_c, 1, 59, 0
3, 23280, Note_on_c, 1, 59, 80
3, 23280, Note_on_c, 1, 55, 80
3, 23328, Note_on_c, 1, 55, 0
3, 23328, Note_on_c, 1, 59, 0
3, 23400, Note_on_c, 1, 59, 80
3, 23400, Note_on_c, 1, 55, 80
3, 23448, Note_on_c, 1, 55, 0
3, 23448, Note_on_c, 1, 59, 0
3, 23520, Note_on_c, 1, 59, 80
3, 23520, Note_on_c, 1, 55, 80
3, 23568, Note_on_c, 1, 55, 0
3, 23568, Note_on_c, 1, 59, 0
3, 23640, Note_on_c, 1, 59, 80
3, 23640, Note_on_c, 1, 55, 80
3, 23688, Note_on_c, 1, 55, 0
3, 23688, Note_on_c, 1, 59, 0
3, 23760, Note_on_c, 1, 59, 80
3, 23760, Note_on_c, 1, 55, 80
3, 23808, Note_on_c, 1, 55, 0
3, 23808, Note_on_c, 1, 59, 0
3, 23880, Note_on_c, 1, 59, 80
3, 23880, Note_on_c, 1, 55, 80
3, 23928, Note_on_c, 1, 55, 0
3, 23928, Note_on_c, 1, 59, 0
3, 24000, Note_on_c, 1, 55, 80
3, 24000, Note_on_c, 1, 60, 80
3, 24240, Note_on_c, 1, 60, 0
3, 24240, Note_on_c, 1, 55, 0
3, 24240, Note_on_c, 1, 55, 80
3, 24240, Note_on_c, 1, 59, 80
3, 24360, Note_on_c, 1, 59, 0
3, 24360, Note_on_c, 1, 55, 0
3, 24480, Note_on_c, 1, 74, 80
3, 24480, Note_on_c, 1, 68, 80
3, 24528, Note_on_c, 1, 68, 0
3, 24528, Note_on_c, 1, 74, 0
3, 24600, Note_on_c, 1, 74, 80
3, 24600, Note_on_c, 1, 68, 80
3, 24648, Note_on_c, 1, 68, 0
3, 24648, Note_on_c, 1, 74, 0
3, 24720, Note_on_c, 1, 74, 80
3, 24720, Note_on_c, 1, 68, 80
3, 24768, Note_on_c, 1, 68, 0
3, 24768, Note_on_c, 1, 74, 0
3, 24840, Note_on_c, 1, 74, 80
3, 24840, Note_on_c, 1, 68, 80
3, 24888, Note_on_c, 1, 68, 0
3, 24888, Note_on_c, 1, 74, 0
3, 24960, Note_on_c, 1, 69, 80
3, 24960, Note_on_c, 1, 72, 80
3, 25200, Note_on_c, 1, 72, 0
3, 25200, Note_on_c, 1, 69, 0
3, 25440, Note_on_c, 1, 66, 80
3, 25440, Note_on_c, 1, 72, 80
3, 25488, Note_on_c, 1, 72, 0
3, 25488, Note_on_c, 1, 66, 0
3, 25560, Note_on_c, 1, 66, 80
3, 25560, Note_on_c, 1, 72, 80
3, 25608, Note_on_c, 1, 72, 0
3, 25608, Note_on_c, 1, 66, 0
3, 25680, Note_on_c, 1, 66, 80
3, 25680, Note_on_c, 1, 72, 80
3, 25728, Note_on_c, 1, 72, 0
3, 25728, Note_on_c, 1, 66, 0
3, 25800, Note_on_c, 1, 66, 80
3, 25800, Note_on_c, 1, 72, 80
3, 25848, Note_on_c, 1, 72, 0
3, 25848, Note_on_c, 1, 66, 0
3, 25920, Note_on_c, 1, 67, 80
3, 25920, Note_on_c, 1, 71, 80
3, 26160, Note_on_c, 1, 71, 0
3, 26160, Note_on_c, 1, 67, 0
3, 27840, Note_on_c, 1, 64, 56
3, 27840, Note_on_c, 1, 67, 56
3, 28080, Note_on_c, 1, 67, 0
3, 28080, Note_on_c, 1, 64, 0
3, 28260, Note_on_c, 1, 67, 80
3, 28290, Note_on_c, 1, 67, 0
3, 28290, Note_on_c, 1, 65, 80
3, 28320, Note_on_c, 1, 65, 0
3, 28320, Note_on_c, 1, 63, 80
3, 28560, Note_on_c, 1, 63, 0
3, 28740, Note_on_c, 1, 69, 80
3, 28770, Note_on_c, 1, 69, 0
3, 28770, Note_on_c, 1, 67, 80
3, 28800, Note_on_c, 1, 67, 0
3, 28800, Note_on_c, 1, 62, 80
3, 28800, Note_on_c, 1, 66, 80
3, 29040, Note_on_c, 1, 66, 0
3, 29040, Note_on_c, 1, 62, 0
3, 29040, Note_on_c, 1, 64, 80
3, 29040, Note_on_c, 1, 67, 80
3, 29280, Note_on_c, 1, 67, 0
3, 29280, Note_on_c, 1, 64, 0
3, 29280, Note_on_c, 1, 60, 80
3, 29280, Note_on_c, 1, 64, 80
3, 29520, Note_on_c, 1, 64, 0
3, 29520, Note_on_c, 1, 60, 0
3, 29520, Note_on_c, 1, 62, 80
3, 29760, Note_on_c, 1, 62, 0
3, 29760, Note_on_c, 1, 55, 80
3, 29760, Note_on_c, 1, 59, 80
3, 29808, Note_on_c, 1, 59, 0
3, 29808, Note_on_c, 1, 55, 0
3, 29880, Note_on_c, 1, 55, 80
3, 29880, Note_on_c, 1, 59, 80
3, 29928, Note_on_c, 1, 59, 0
3, 29928, Note_on_c, 1, 55, 0
3, 30000, Note_on_c, 1, 55, 80
3, 30000, Note_on_c, 1, 59, 80
3, 30048, Note_on_c, 1, 59, 0
3, 30048, Note_on_c, 1, 55, 0
3, 30120, Note_on_c, 1, 55, 80
3, 30120, Note_on_c, 1, 59, 80
3, 30168, Note_on_c, 1, 59, 0
3, 30168, Note_on_c, 1, 55, 0
3, 30240, Note_on_c, 1, 55, 80
3, 30240, Note_on_c, 1, 60, 80
3, 30288, Note_on_c, 1, 60, 0
3, 30288, Note_on_c, 1, 55, 0
3, 30360, Note_on_c, 1, 55, 80
3, 30360, Note_on_c, 1, 60, 80
3, 30408, Note_on_c, 1, 60, 0
3, 30408, Note_on_c, 1, 55, 0
3, 30480, Note_on_c, 1, 55, 80
3, 30480, Note_on_c, 1, 60, 80
3, 30528, Note_on_c, 1, 60, 0
3, 30528, Note_on_c, 1, 55, 0
3, 30600, Note_on_c, 1, 55, 80
3, 30600, Note_on_c, 1, 60, 80
3, 30648, Note_on_c, 1, 60, 0
3, 30648, Note_on_c, 1, 55, 0
3, 30720, Note_on_c, 1, 59, 64
3, 30720, Note_on_c, 1, 55, 64
3, 30768, Note_on_c, 1, 55, 0
3, 30768, Note_on_c, 1, 59, 0
3, 30840, Note_on_c, 1, 59, 66
3, 30840, Note_on_c, 1, 55, 66
3, 30888, Note_on_c, 1, 55, 0
3, 30888, Note_on_c, 1, 59, 0
3, 30960, Note_on_c, 1, 59, 68
3, 30960, Note_on_c, 1, 55, 68
3, 31008, Note_on_c, 1, 55, 0
3, 31008, Note_on_c, 1, 59, 0
3, 31080, Note_on_c, 1, 59, 70
3, 31080, Note_on_c, 1, 55, 70
3, 31128, Note_on_c, 1, 55, 0
3, 31128, Note_on_c, 1, 59, 0
3, 31200, Note_on_c, 1, 60, 72
3, 31200, Note_on_c, 1, 55, 72
3, 31248, Note_on_c, 1, 55, 0
3, 31248, Note_on_c, 1, 60, 0
3, 31320, Note_on_c, 1, 60, 74
3, 31320, Note_on_c, 1, 55, 74
3, 31368, Note_on_c, 1, 55, 0
3, 31368, Note_on_c, 1, 60, 0
3, 31440, Note_on_c, 1, 60, 76
3, 31440, Note_on_c, 1, 55, 76
3, 31488, Note_on_c, 1, 55, 0
3, 31488, Note_on_c, 1, 60, 0
3, 31560, Note_on_c, 1, 60, 78
3, 31560, Note_on_c, 1, 55, 78
3, 31608, Note_on_c, 1, 55, 0
3, 31608, Note_on_c, 1, 60, 0
3, 31680, Note_on_c, 1, 55, 80
3, 31680, Note_on_c, 1, 59, 80
3, 31920, Note_on_c, 1, 59, 0
3, 31920, Note_on_c, 1, 55, 0
3, 32160, Note_on_c, 1, 31, 96
3, 32160, Note_on_c, 1, 43, 96
3, 32328, Note_on_c, 1, 43, 0
3, 32328, Note_on_c, 1, 31, 0
3, 32640, Note_on_c, 1, 58, 56
3, 32640, Note_on_c, 1, 62, 56
3, 32880, Note_on_c, 1, 62, 0
3, 32880, Note_on_c, 1, 58, 0
3, 33000, Note_on_c, 1, 58, 56
3, 33000, Note_on_c, 1, 62, 56
3, 33120, Note_on_c, 1, 62, 0
3, 33120, Note_on_c, 1, 58, 0
3, 33120, Note_on_c, 1, 63, 56
3, 33120, Note_on_c, 1, 60, 56
3, 33360, Note_on_c, 1, 60, 0
3, 33360, Note_on_c, 1, 63, 0
3, 33480, Note_on_c, 1, 63, 56
3, 33480, Note_on_c, 1, 60, 56
3, 33600, Note_on_c, 1, 60, 0
3, 33600, Note_on_c, 1, 63, 0
3, 33600, Note_on_c, 1, 65, 56
3, 33600, Note_on_c, 1, 62, 56
3, 33840, Note_on_c, 1, 62, 0
3, 33840, Note_on_c, 1, 65, 0
3, 33960, Note_on_c, 1, 58, 56
3, 33960, Note_on_c, 1, 62, 56
3, 34080, Note_on_c, 1, 62, 0
3, 34080, Note_on_c, 1, 58, 0
3, 34080, Note_on_c, 1, 60, 56
3, 34080, Note_on_c, 1, 57, 56
3, 34320, Note_on_c, 1, 57, 0
3, 34320, Note_on_c, 1, 60, 0
3, 34440, Note_on_c, 1, 60, 56
3, 34440, Note_on_c, 1, 57, 56
3, 34560, Note_on_c, 1, 57, 0
3, 34560, Note_on_c, 1, 60, 0
3, 34560, Note_on_c, 1, 58, 56
3, 34560, Note_on_c, 1, 62, 56
3, 34800, Note_on_c, 1, 62, 0
3, 34800, Note_on_c, 1, 58, 0
3, 34920, Note_on_c, 1, 58, 56
3, 34920, Note_on_c, 1, 55, 56
3, 35040, Note_on_c, 1, 55, 0
3, 35040, Note_on_c, 1, 58, 0
3, 35040, Note_on_c, 1, 55, 56
3, 35040, Note_on_c, 1, 51, 56
3, 35280, Note_on_c, 1, 51, 0
3, 35280, Note_on_c, 1, 55, 0
3, 35400, Note_on_c, 1, 55, 56
3, 35400, Note_on_c, 1, 51, 56
3, 35520, Note_on_c, 1, 51, 0
3, 35520, Note_on_c, 1, 55, 0
3, 35520, Note_on_c, 1, 54, 80
3, 35520, Note_on_c, 1, 50, 80
3, 35700, Note_on_c, 1, 50, 0
3, 35700, Note_on_c, 1, 54, 0
3, 35700, Note_on_c, 1, 42, 80
3, 35730, Note_on_c, 1, 42, 0
3, 35730, Note_on_c, 1, 43, 80
3, 35760, Note_on_c, 1, 43, 0
3, 35760, Note_on_c, 1, 45, 80
3, 35808, Note_on_c, 1, 45, 0
3, 35880, Note_on_c, 1, 42, 80
3, 35928, Note_on_c, 1, 42, 0
3, 36000, Note_on_c, 1, 38, 80
3, 36240, Note_on_c, 1, 38, 0
3, 36480, Note_on_c, 1, 55, 80
3, 36480, Note_on_c, 1, 59, 80
3, 36528, Note_on_c, 1, 59, 0
3, 36528, Note_on_c, 1, 55, 0
3, 36600, Note_on_c, 1, 55, 80
3, 36600, Note_on_c, 1, 59, 80
3, 36648, Note_on_c, 1, 59, 0
3, 36648, Note_on_c, 1, 55, 0
3, 36720, Note_on_c, 1, 55, 80
3, 36720, Note_on_c, 1, 59, 80
3, 36768, Note_on_c, 1, 59, 0
3, 36768, Note_on_c, 1, 55, 0
3, 36840, Note_on_c, 1, 55, 80
3, 36840, Note_on_c, 1, 59, 80
3, 36888, Note_on_c, 1, 59, 0
3, 36888, Note_on_c, 1, 55, 0
3, 36960, Note_on_c, 1, 55, 80
3, 36960, Note_on_c, 1, 59, 80
3, 37008, Note_on_c, 1, 59, 0
3, 37008, Note_on_c, 1, 55, 0
3, 37080, Note_on_c, 1, 55, 80
3, 37080, Note_on_c, 1, 59, 80
3, 37128, Note_on_c, 1, 59, 0
3, 37128, Note_on_c, 1, 55, 0
3, 37200, Note_on_c, 1, 55, 80
3, 37200, Note_on_c, 1, 59, 80
3, 37248, Note_on_c, 1, 59, 0
3, 37248, Note_on_c, 1, 55, 0
3, 37320, Note_on_c, 1, 55, 80
3, 37320, Note_on_c, 1, 59, 80
3, 37368, Note_on_c, 1, 59, 0
3, 37368, Note_on_c, 1, 55, 0
3, 37440, Note_on_c, 1, 60, 80
3, 37440, Note_on_c, 1, 55, 80
3, 37680, Note_on_c, 1, 55, 0
3, 37680, Note_on_c, 1, 60, 0
3, 37680, Note_on_c, 1, 59, 80
3, 37680, Note_on_c, 1, 55, 80
3, 37800, Note_on_c, 1, 55, 0
3, 37800, Note_on_c, 1, 59, 0
3, 37920, Note_on_c, 1, 68, 80
3, 37920, Note_on_c, 1, 74, 80
3, 37968, Note_on_c, 1, 74, 0
3, 37968, Note_on_c, 1, 68, 0
3, 38040, Note_on_c, 1, 68, 80
3, 38040, Note_on_c, 1, 74, 80
3, 38088, Note_on_c, 1, 74, 0
3, 38088, Note_on_c, 1, 68, 0
3, 38160, Note_on_c, 1, 68, 80
3, 38160, Note_on_c, 1, 74, 80
3, 38208, Note_on_c, 1, 74, 0
3, 38208, Note_on_c, 1, 68, 0
3, 38280, Note_on_c, 1, 68, 80
3, 38280, Note_on_c, 1, 74, 80
3, 38328, Note_on_c, 1, 74, 0
3, 38328, Note_on_c, 1, 68, 0
3, 38400, Note_on_c, 1, 72, 80
3, 38400, Note_on_c, 1, 69, 80
3, 38640, Note_on_c, 1, 69, 0
3, 38640, Note_on_c, 1, 72, 0
3, 38880, Note_on_c, 1, 72, 80
3, 38880, Note_on_c, 1, 66, 80
3, 38928, Note_on_c, 1, 66, 0
3, 38928, Note_on_c, 1, 72, 0
3, 39000, Note_on_c, 1, 72, 80
3, 39000, Note_on_c, 1, 66, 80
3, 39048, Note_on_c, 1, 66, 0
3, 39048, Note_on_c, 1, 72, 0
3, 39120, Note_on_c, 1, 72, 80
3, 39120, Note_on_c, 1, 66, 80
3, 39168, Note_on_c, 1, 66, 0
3, 39168, Note_on_c, 1, 72, 0
3, 39240, Note_on_c, 1, 72, 80
3, 39240, Note_on_c, 1, 66, 80
3, 39288, Note_on_c, 1, 66, 0
3, 39288, Note_on_c, 1, 72, 0
3, 39360, Note_on_c, 1, 71, 80
3, 39360, Note_on_c, 1, 67, 80
3, 39600, Note_on_c, 1, 67, 0
3, 39600, Note_on_c, 1, 71, 0
3, 41280, Note_on_c, 1, 67, 56
3, 41280, Note_on_c, 1, 64, 56
3, 41520, Note_on_c, 1, 64, 0
3, 41520, Note_on_c, 1, 67, 0
3, 41700, Note_on_c, 1, 67, 80
3, 41730, Note_on_c, 1, 67, 0
3, 41730, Note_on_c, 1, 65, 80
3, 41760, Note_on_c, 1, 65, 0
3, 41760, Note_on_c, 1, 63, 80
3, 42000, Note_on_c, 1, 63, 0
3, 42180, Note_on_c, 1, 69, 80
3, 42210, Note_on_c, 1, 69, 0
3, 42210, Note_on_c, 1, 67, 80
3, 42240, Note_on_c, 1, 67, 0
3, 42240, Note_on_c, 1, 66, 80
3, 42240, Note_on_c, 1, 62, 80
3, 42480, Note_on_c, 1, 62, 0
3, 42480, Note_on_c, 1, 66, 0
3, 42480, Note_on_c, 1, 67, 80
3, 42480, Note_on_c, 1, 64, 80
3, 42720, Note_on_c, 1, 64, 0
3, 42720, Note_on_c, 1, 67, 0
3, 42720, Note_on_c, 1, 64, 80
3, 42720, Note_on_c, 1, 60, 80
3, 42960, Note_on_c, 1, 60, 0
3, 42960, Note_on_c, 1, 64, 0
3, 42960, Note_on_c, 1, 62, 80
3, 43200, Note_on_c, 1, 62, 0
3, 43200, Note_on_c, 1, 59, 80
3, 43200, Note_on_c, 1, 55, 80
3, 43248, Note_on_c, 1, 55, 0
3, 43248, Note_on_c, 1, 59, 0
3, 43320, Note_on_c, 1, 59, 80
3, 43320, Note_on_c, 1, 55, 80
3, 43368, Note_on_c, 1, 55, 0
3, 43368, Note_on_c, 1, 59, 0
3, 43440, Note_on_c, 1, 59, 80
3, 43440, Note_on_c, 1, 55, 80
3, 43488, Note_on_c, 1, 55, 0
3, 43488, Note_on_c, 1, 59, 0
3, 43560, Note_on_c, 1, 59, 80
3, 43560, Note_on_c, 1, 55, 80
3, 43608, Note_on_c, 1, 55, 0
3, 43608, Note_on_c, 1, 59, 0
3, 43680, Note_on_c, 1, 60, 80
3, 43680, Note_on_c, 1, 55, 80
3, 43728, Note_on_c, 1, 55, 0
3, 43728, Note_on_c, 1, 60, 0
3, 43800, Note_on_c, 1, 60, 80
3, 43800, Note_on_c, 1, 55, 80
3, 43848, Note_on_c, 1, 55, 0
3, 43848, Note_on_c, 1, 60, 0
3, 43920, Note_on_c, 1, 60, 80
3, 43920, Note_on_c, 1, 55, 80
3, 43968, Note_on_c, 1, 55, 0
3, 43968, Note_on_c, 1, 60, 0
3, 44040, Note_on_c, 1, 60, 80
3, 44040, Note_on_c, 1, 55, 80
3, 44088, Note_on_c, 1, 55, 0
3, 44088, Note_on_c, 1, 60, 0
3, 44160, Note_on_c, 1, 55, 64
3, 44160, Note_on_c, 1, 59, 64
3, 44208, Note_on_c, 1, 59, 0
3, 44208, Note_on_c, 1, 55, 0
3, 44280, Note_on_c, 1, 55, 66
3, 44280, Note_on_c, 1, 59, 66
3, 44328, Note_on_c, 1, 59, 0
3, 44328, Note_on_c, 1, 55, 0
3, 44400, Note_on_c, 1, 55, 68
3, 44400, Note_on_c, 1, 59, 68
3, 44448, Note_on_c, 1, 59, 0
3, 44448, Note_on_c, 1, 55, 0
3, 44520, Note_on_c, 1, 55, 70
3, 44520, Note_on_c, 1, 59, 70
3, 44568, Note_on_c, 1, 59, 0
3, 44568, Note_on_c, 1, 55, 0
3, 44640, Note_on_c, 1, 55, 72
3, 44640, Note_on_c, 1, 60, 72
3, 44688, Note_on_c, 1, 60, 0
3, 44688, Note_on_c, 1, 55, 0
3, 44760, Note_on_c, 1, 55, 74
3, 44760, Note_on_c, 1, 60, 74
3, 44808, Note_on_c, 1, 60, 0
3, 44808, Note_on_c, 1, 55, 0
3, 44880, Note_on_c, 1, 55, 76
3, 44880, Note_on_c, 1, 60, 76
3, 44928, Note_on_c, 1, 60, 0
3, 44928, Note_on_c, 1, 55, 0
3, 45000, Note_on_c, 1, 55, 78
3, 45000, Note_on_c, 1, 60, 78
3, 45048, Note_on_c, 1, 60, 0
3, 45048, Note_on_c, 1, 55, 0
3, 45120, Note_on_c, 1, 59, 80
3, 45120, Note_on_c, 1, 55, 80
3, 45360, Note_on_c, 1, 55, 0
3, 45360, Note_on_c, 1, 59, 0
3, 45600, Note_on_c, 1, 43, 96
3, 45600, Note_on_c, 1, 31, 96
3, 45696, Note_on_c, 1, 31, 0
3, 45768, Note_on_c, 1, 43, 0
3, 46080, Note_on_c, 1, 40, 80
3, 46080, Note_on_c, 1, 52, 80
3, 46320, Note_on_c, 1, 52, 0
3, 46320, Note_on_c, 1, 40, 0
3, 46440, Note_on_c, 1, 67, 80
3, 46440, Note_on_c, 1, 71, 80
3, 46560, Note_on_c, 1, 71, 0
3, 46560, Note_on_c, 1, 67, 0
3, 46560, Note_on_c, 1, 66, 80
3, 46560, Note_on_c, 1, 69, 80
3, 46920, Note_on_c, 1, 69, 0
3, 46920, Note_on_c, 1, 66, 0
3, 46920, Note_on_c, 1, 69, 80
3, 46920, Note_on_c, 1, 72, 80
3, 47040, Note_on_c, 1, 72, 0
3, 47040, Note_on_c, 1, 69, 0
3, 47040, Note_on_c, 1, 67, 80
3, 47040, Note_on_c, 1, 71, 80
3, 47400, Note_on_c, 1, 71, 0
3, 47400, Note_on_c, 1, 67, 0
3, 47400, Note_on_c, 1, 64, 80
3, 47400, Note_on_c, 1, 70, 80
3, 47520, Note_on_c, 1, 70, 0
3, 47520, Note_on_c, 1, 64, 0
3, 47520, Note_on_c, 1, 62, 80
3, 47520, Note_on_c, 1, 71, 80
3, 47880, Note_on_c, 1, 71, 0
3, 47880, Note_on_c, 1, 62, 0
3, 47880, Note_on_c, 1, 62, 80
3, 47880, Note_on_c, 1, 66, 80
3, 48000, Note_on_c, 1, 66, 0
3, 48000, Note_on_c, 1, 62, 0
3, 48000, Note_on_c, 1, 61, 80
3, 48000, Note_on_c, 1, 64, 80
3, 48360, Note_on_c, 1, 64, 0
3, 48360, Note_on_c, 1, 61, 0
3, 48360, Note_on_c, 1, 58, 80
3, 48480, Note_on_c, 1, 58, 0
3, 48480, Note_on_c, 1, 59, 80
3, 48576, Note_on_c, 1, 59, 0
3, 48720, Note_on_c, 1, 64, 80
3, 48816, Note_on_c, 1, 64, 0
3, 48960, Note_on_c, 1, 66, 80
3, 49056, Note_on_c, 1, 66, 0
3, 49200, Note_on_c, 1, 66, 80
3, 49296, Note_on_c, 1, 66, 0
3, 49440, Note_on_c, 1, 59, 56
3, 49536, Note_on_c, 1, 59, 0
3, 49800, Note_on_c, 1, 39, 56
3, 49800, Note_on_c, 1, 51, 56
3, 49920, Note_on_c, 1, 51, 0
3, 49920, Note_on_c, 1, 39, 0
3, 49920, Note_on_c, 1, 40, 56
3, 49920, Note_on_c, 1, 52, 56
3, 50160, Note_on_c, 1, 52, 0
3, 50160, Note_on_c, 1, 40, 0
3, 50280, Note_on_c, 1, 67, 56
3, 50280, Note_on_c, 1, 71, 56
3, 50400, Note_on_c, 1, 71, 0
3, 50400, Note_on_c, 1, 67, 0
3, 50400, Note_on_c, 1, 66, 56
3, 50400, Note_on_c, 1, 69, 56
3, 50760, Note_on_c, 1, 69, 0
3, 50760, Note_on_c, 1, 66, 0
3, 50760, Note_on_c, 1, 69, 56
3, 50760, Note_on_c, 1, 72, 56
3, 50880, Note_on_c, 1, 72, 0
3, 50880, Note_on_c, 1, 69, 0
3, 50880, Note_on_c, 1, 67, 56
3, 50880, Note_on_c, 1, 71, 56
3, 51240, Note_on_c, 1, 71, 0
3, 51240, Note_on_c, 1, 67, 0
3, 51240, Note_on_c, 1, 64, 56
3, 51240, Note_on_c, 1, 70, 56
3, 51360, Note_on_c, 1, 70, 0
3, 51360, Note_on_c, 1, 64, 0
3, 51360, Note_on_c, 1, 62, 56
3, 51360, Note_on_c, 1, 71, 56
3, 51720, Note_on_c, 1, 71, 0
3, 51720, Note_on_c, 1, 62, 0
3, 51720, Note_on_c, 1, 62, 56
3, 51720, Note_on_c, 1, 66, 56
3, 51840, Note_on_c, 1, 66, 0
3, 51840, Note_on_c, 1, 62, 0
3, 51840, Note_on_c, 1, 61, 56
3, 51840, Note_on_c, 1, 64, 56
3, 52200, Note_on_c, 1, 64, 0
3, 52200, Note_on_c, 1, 61, 0
3, 52200, Note_on_c, 1, 58, 56
3, 52320, Note_on_c, 1, 58, 0
3, 52320, Note_on_c, 1, 59, 56
3, 52416, Note_on_c, 1, 59, 0
3, 52560, Note_on_c, 1, 64, 56
3, 52656, Note_on_c, 1, 64, 0
3, 52800, Note_on_c, 1, 66, 56
3, 52896, Note_on_c, 1, 66, 0
3, 53040, Note_on_c, 1, 66, 56
3, 53136, Note_on_c, 1, 66, 0
3, 53280, Note_on_c, 1, 59, 56
3, 53520, Note_on_c, 1, 59, 0
3, 53640, Note_on_c, 1, 35, 80
3, 53640, Note_on_c, 1, 47, 80
3, 53760, Note_on_c, 1, 47, 0
3, 53760, Note_on_c, 1, 35, 0
3, 53760, Note_on_c, 1, 36, 80
3, 53760, Note_on_c, 1, 48, 80
3, 54000, Note_on_c, 1, 48, 0
3, 54000, Note_on_c, 1, 36, 0
3, 54120, Note_on_c, 1, 64, 80
3, 54120, Note_on_c, 1, 60, 80
3, 54240, Note_on_c, 1, 60, 0
3, 54240, Note_on_c, 1, 64, 0
3, 54240, Note_on_c, 1, 59, 80
3, 54240, Note_on_c, 1, 62, 80
3, 54600, Note_on_c, 1, 62, 0
3, 54600, Note_on_c, 1, 59, 0
3, 54600, Note_on_c, 1, 56, 80
3, 54600, Note_on_c, 1, 59, 80
3, 54720, Note_on_c, 1, 59, 0
3, 54720, Note_on_c, 1, 56, 0
3, 54720, Note_on_c, 1, 60, 80
3, 54720, Note_on_c, 1, 57, 80
3, 54816, Note_on_c, 1, 57, 0
3, 54816, Note_on_c, 1, 60, 0
3, 54960, Note_on_c, 1, 62, 80
3, 54960, Note_on_c, 1, 59, 80
3, 55056, Note_on_c, 1, 59, 0
3, 55056, Note_on_c, 1, 62, 0
3, 55200, Note_on_c, 1, 64, 80
3, 55200, Note_on_c, 1, 60, 80
3, 55296, Note_on_c, 1, 60, 0
3, 55296, Note_on_c, 1, 64, 0
3, 55800, Note_on_c, 1, 71, 56
3, 55800, Note_on_c, 1, 74, 56
3, 55920, Note_on_c, 1, 74, 0
3, 55920, Note_on_c, 1, 71, 0
3, 55920, Note_on_c, 1, 69, 56
3, 55920, Note_on_c, 1, 72, 56
3, 56160, Note_on_c, 1, 72, 0
3, 56160, Note_on_c, 1, 69, 0
3, 56280, Note_on_c, 1, 66, 56
3, 56400, Note_on_c, 1, 66, 0
3, 56400, Note_on_c, 1, 67, 56
3, 56640, Note_on_c, 1, 67, 0
3, 56640, Note_on_c, 1, 63, 56
3, 56736, Note_on_c, 1, 63, 0
3, 56880, Note_on_c, 1, 64, 56
3, 56976, Note_on_c, 1, 64, 0
3, 57120, Note_on_c, 1, 59, 56
3, 57216, Note_on_c, 1, 59, 0
3, 57720, Note_on_c, 1, 52, 80
3, 57840, Note_on_c, 1, 52, 0
3, 57840, Note_on_c, 1, 64, 80
3, 58200, Note_on_c, 1, 64, 0
3, 58200, Note_on_c, 1, 63, 80
3, 58320, Note_on_c, 1, 63, 0
3, 58320, Note_on_c, 1, 66, 80
3, 58680, Note_on_c, 1, 66, 0
3, 58680, Note_on_c, 1, 64, 80
3, 58800, Note_on_c, 1, 64, 0
3, 58800, Note_on_c, 1, 67, 80
3, 59160, Note_on_c, 1, 67, 0
3, 59160, Note_on_c, 1, 66, 80
3, 59280, Note_on_c, 1, 66, 0
3, 59280, Note_on_c, 1, 69, 80
3, 59640, Note_on_c, 1, 69, 0
3, 59640, Note_on_c, 1, 66, 80
3, 59760, Note_on_c, 1, 66, 0
3, 59760, Note_on_c, 1, 63, 80
3, 60120, Note_on_c, 1, 63, 0
3, 60120, Note_on_c, 1, 60, 80
3, 60240, Note_on_c, 1, 60, 0
3, 60240, Note_on_c, 1, 57, 80
3, 60600, Note_on_c, 1, 57, 0
3, 60600, Note_on_c, 1, 54, 80
3, 60720, Note_on_c, 1, 54, 0
3, 60720, Note_on_c, 1, 51, 80
3, 60840, Note_on_c, 1, 51, 0
3, 60840, Note_on_c, 1, 51, 80
3, 60900, Note_on_c, 1, 51, 0
3, 60900, Note_on_c, 1, 48, 80
3, 60960, Note_on_c, 1, 48, 0
3, 60960, Note_on_c, 1, 45, 80
3, 61008, Note_on_c, 1, 45, 0
3, 61080, Note_on_c, 1, 48, 80
3, 61140, Note_on_c, 1, 48, 0
3, 61140, Note_on_c, 1, 45, 80
3, 61200, Note_on_c, 1, 45, 0
3, 61200, Note_on_c, 1, 42, 80
3, 61260, Note_on_c, 1, 42, 0
3, 61320, Note_on_c, 1, 45, 80
3, 61380, Note_on_c, 1, 45, 0
3, 61380, Note_on_c, 1, 42, 80
3, 61440, Note_on_c, 1, 42, 0
3, 61440, Note_on_c, 1, 39, 80
3, 61680, Note_on_c, 1, 39, 0
3, 63120, Note_on_c, 1, 51, 80
3, 63360, Note_on_c, 1, 51, 0
3, 63360, Note_on_c, 1, 52, 80
3, 63408, Note_on_c, 1, 52, 0
3, 63600, Note_on_c, 1, 45, 80
3, 63648, Note_on_c, 1, 45, 0
3, 63840, Note_on_c, 1, 47, 80
3, 63888, Note_on_c, 1, 47, 0
3, 64080, Note_on_c, 1, 47, 80
3, 64128, Note_on_c, 1, 47, 0
3, 64440, Note_on_c, 1, 52, 80
3, 64560, Note_on_c, 1, 52, 0
3, 64560, Note_on_c, 1, 40, 80
3, 64680, Note_on_c, 1, 40, 0
3, 64920, Note_on_c, 1, 52, 80
3, 65040, Note_on_c, 1, 52, 0
3, 65040, Note_on_c, 1, 40, 80
3, 65160, Note_on_c, 1, 40, 0
3, 65400, Note_on_c, 1, 52, 80
3, 65520, Note_on_c, 1, 52, 0
3, 65520, Note_on_c, 1, 40, 80
3, 65640, Note_on_c, 1, 40, 0
3, 65880, Note_on_c, 1, 52, 80
3, 66000, Note_on_c, 1, 52, 0
3, 66000, Note_on_c, 1, 40, 80
3, 66120, Note_on_c, 1, 40, 0
3, 66360, Note_on_c, 1, 52, 80
3, 66480, Note_on_c, 1, 52, 0
3, 66480, Note_on_c, 1, 40, 80
3, 66600, Note_on_c, 1, 40, 0
3, 66840, Note_on_c, 1, 51, 80
3, 66960, Note_on_c, 1, 51, 0
3, 66960, Note_on_c, 1, 39, 80
3, 67080, Note_on_c, 1, 39, 0
3, 67320, Note_on_c, 1, 50, 80
3, 67440, Note_on_c, 1, 50, 0
3, 67440, Note_on_c, 1, 38, 80
3, 67560, Note_on_c, 1, 38, 0
3, 67800, Note_on_c, 1, 50, 56
3, 67920, Note_on_c, 1, 50, 0
3, 67920, Note_on_c, 1, 38, 56
3, 68040, Note_on_c, 1, 38, 0
3, 68280, Note_on_c, 1, 50, 56
3, 68400, Note_on_c, 1, 50, 0
3, 68400, Note_on_c, 1, 38, 56
3, 68520, Note_on_c, 1, 38, 0
3, 68760, Note_on_c, 1, 50, 56
3, 68880, Note_on_c, 1, 50, 0
3, 68880, Note_on_c, 1, 38, 56
3, 69000, Note_on_c, 1, 38, 0
3, 69120, Note_on_c, 1, 55, 80
3, 69120, Note_on_c, 1, 59, 80
3, 69168, Note_on_c, 1, 59, 0
3, 69168, Note_on_c, 1, 55, 0
3, 69240, Note_on_c, 1, 55, 80
3, 69240, Note_on_c, 1, 59, 80
3, 69288, Note_on_c, 1, 59, 0
3, 69288, Note_on_c, 1, 55, 0
3, 69360, Note_on_c, 1, 55, 80
3, 69360, Note_on_c, 1, 59, 80
3, 69408, Note_on_c, 1, 59, 0
3, 69408, Note_on_c, 1, 55, 0
3, 69480, Note_on_c, 1, 55, 80
3, 69480, Note_on_c, 1, 59, 80
3, 69528, Note_on_c, 1, 59, 0
3, 69528, Note_on_c, 1, 55, 0
3, 69600, Note_on_c, 1, 55, 80
3, 69600, Note_on_c, 1, 59, 80
3, 69648, Note_on_c, 1, 59, 0
3, 69648, Note_on_c, 1, 55, 0
3, 69720, Note_on_c, 1, 55, 80
3, 69720, Note_on_c, 1, 59, 80
3, 69768, Note_on_c, 1, 59, 0
3, 69768, Note_on_c, 1, 55, 0
3, 69840, Note_on_c, 1, 55, 80
3, 69840, Note_on_c, 1, 59, 80
3, 69888, Note_on_c, 1, 59, 0
3, 69888, Note_on_c, 1, 55, 0
3, 69960, Note_on_c, 1, 55, 80
3, 69960, Note_on_c, 1, 59, 80
3, 70008, Note_on_c, 1, 59, 0
3, 70008, Note_on_c, 1, 55, 0
3, 70080, Note_on_c, 1, 60, 80
3, 70080, Note_on_c, 1, 55, 80
3, 70320, Note_on_c, 1, 55, 0
3, 70320, Note_on_c, 1, 60, 0
3, 70320, Note_on_c, 1, 59, 80
3, 70320, Note_on_c, 1, 55, 80
3, 70440, Note_on_c, 1, 55, 0
3, 70440, Note_on_c, 1, 59, 0
3, 70560, Note_on_c, 1, 65, 80
3, 70560, Note_on_c, 1, 67, 80
3, 70608, Note_on_c, 1, 67, 0
3, 70608, Note_on_c, 1, 65, 0
3, 70680, Note_on_c, 1, 65, 80
3, 70680, Note_on_c, 1, 67, 80
3, 70728, Note_on_c, 1, 67, 0
3, 70728, Note_on_c, 1, 65, 0
3, 70800, Note_on_c, 1, 65, 80
3, 70800, Note_on_c, 1, 67, 80
3, 70848, Note_on_c, 1, 67, 0
3, 70848, Note_on_c, 1, 65, 0
3, 70920, Note_on_c, 1, 65, 80
3, 70920, Note_on_c, 1, 67, 80
3, 70968, Note_on_c, 1, 67, 0
3, 70968, Note_on_c, 1, 65, 0
3, 71040, Note_on_c, 1, 67, 80
3, 71040, Note_on_c, 1, 64, 80
3, 71400, Note_on_c, 1, 64, 0
3, 71400, Note_on_c, 1, 67, 0
3, 71400, Note_on_c, 1, 65, 80
3, 71400, Note_on_c, 1, 62, 80
3, 71520, Note_on_c, 1, 62, 0
3, 71520, Note_on_c, 1, 65, 0
3, 71520, Note_on_c, 1, 64, 80
3, 71520, Note_on_c, 1, 60, 80
3, 71760, Note_on_c, 1, 60, 0
3, 71760, Note_on_c, 1, 64, 0
3, 71760, Note_on_c, 1, 64, 80
3, 71760, Note_on_c, 1, 61, 80
3, 72000, Note_on_c, 1, 61, 0
3, 72000, Note_on_c, 1, 64, 0
3, 72000, Note_on_c, 1, 62, 80
3, 72240, Note_on_c, 1, 62, 0
3, 72960, Note_on_c, 1, 59, 80
3, 72960, Note_on_c, 1, 55, 80
3, 73008, Note_on_c, 1, 55, 0
3, 73008, Note_on_c, 1, 59, 0
3, 73080, Note_on_c, 1, 59, 80
3, 73080, Note_on_c, 1, 55, 80
3, 73128, Note_on_c, 1, 55, 0
3, 73128, Note_on_c, 1, 59, 0
3, 73200, Note_on_c, 1, 59, 80
3, 73200, Note_on_c, 1, 55, 80
3, 73248, Note_on_c, 1, 55, 0
3, 73248, Note_on_c, 1, 59, 0
3, 73320, Note_on_c, 1, 59, 80
3, 73320, Note_on_c, 1, 55, 80
3, 73368, Note_on_c, 1, 55, 0
3, 73368, Note_on_c, 1, 59, 0
3, 73440, Note_on_c, 1, 59, 80
3, 73440, Note_on_c, 1, 55, 80
3, 73488, Note_on_c, 1, 55, 0
3, 73488, Note_on_c, 1, 59, 0
3, 73560, Note_on_c, 1, 59, 80
3, 73560, Note_on_c, 1, 55, 80
3, 73608, Note_on_c, 1, 55, 0
3, 73608, Note_on_c, 1, 59, 0
3, 73680, Note_on_c, 1, 59, 80
3, 73680, Note_on_c, 1, 55, 80
3, 73728, Note_on_c, 1, 55, 0
3, 73728, Note_on_c, 1, 59, 0
3, 73800, Note_on_c, 1, 59, 80
3, 73800, Note_on_c, 1, 55, 80
3, 73848, Note_on_c, 1, 55, 0
3, 73848, Note_on_c, 1, 59, 0
3, 73920, Note_on_c, 1, 55, 80
3, 73920, Note_on_c, 1, 60, 80
3, 74160, Note_on_c, 1, 60, 0
3, 74160, Note_on_c, 1, 55, 0
3, 74160, Note_on_c, 1, 55, 80
3, 74160, Note_on_c, 1, 59, 80
3, 74280, Note_on_c, 1, 59, 0
3, 74280, Note_on_c, 1, 55, 0
3, 74400, Note_on_c, 1, 67, 80
3, 74400, Note_on_c, 1, 71, 80
3, 74448, Note_on_c, 1, 71, 0
3, 74448, Note_on_c, 1, 67, 0
3, 74520, Note_on_c, 1, 67, 80
3, 74520, Note_on_c, 1, 71, 80
3, 74568, Note_on_c, 1, 71, 0
3, 74568, Note_on_c, 1, 67, 0
3, 74640, Note_on_c, 1, 67, 80
3, 74640, Note_on_c, 1, 71, 80
3, 74688, Note_on_c, 1, 71, 0
3, 74688, Note_on_c, 1, 67, 0
3, 74760, Note_on_c, 1, 67, 80
3, 74760, Note_on_c, 1, 71, 80
3, 74808, Note_on_c, 1, 71, 0
3, 74808, Note_on_c, 1, 67, 0
3, 74880, Note_on_c, 1, 67, 80
3, 74880, Note_on_c, 1, 71, 80
3, 74928, Note_on_c, 1, 71, 0
3, 74928, Note_on_c, 1, 67, 0
3, 75000, Note_on_c, 1, 67, 80
3, 75000, Note_on_c, 1, 71, 80
3, 75048, Note_on_c, 1, 71, 0
3, 75048, Note_on_c, 1, 67, 0
3, 75120, Note_on_c, 1, 67, 80
3, 75120, Note_on_c, 1, 71, 80
3, 75168, Note_on_c, 1, 71, 0
3, 75168, Note_on_c, 1, 67, 0
3, 75240, Note_on_c, 1, 67, 80
3, 75240, Note_on_c, 1, 71, 80
3, 75288, Note_on_c, 1, 71, 0
3, 75288, Note_on_c, 1, 67, 0
3, 75360, Note_on_c, 1, 66, 80
3, 75360, Note_on_c, 1, 57, 80
3, 75408, Note_on_c, 1, 57, 0
3, 75408, Note_on_c, 1, 66, 0
3, 75480, Note_on_c, 1, 66, 80
3, 75480, Note_on_c, 1, 57, 80
3, 75528, Note_on_c, 1, 57, 0
3, 75528, Note_on_c, 1, 66, 0
3, 75600, Note_on_c, 1, 64, 80
3, 75600, Note_on_c, 1, 57, 80
3, 75648, Note_on_c, 1, 57, 0
3, 75648, Note_on_c, 1, 64, 0
3, 75720, Note_on_c, 1, 64, 80
3, 75720, Note_on_c, 1, 57, 80
3, 75768, Note_on_c, 1, 57, 0
3, 75768, Note_on_c, 1, 64, 0
3, 75840, Note_on_c, 1, 62, 80
3, 75840, Note_on_c, 1, 66, 80
3, 75888, Note_on_c, 1, 66, 0
3, 75888, Note_on_c, 1, 62, 0
3, 75960, Note_on_c, 1, 62, 80
3, 75960, Note_on_c, 1, 66, 80
3, 76008, Note_on_c, 1, 66, 0
3, 76008, Note_on_c, 1, 62, 0
3, 76080, Note_on_c, 1, 62, 80
3, 76080, Note_on_c, 1, 66, 80
3, 76128, Note_on_c, 1, 66, 0
3, 76128, Note_on_c, 1, 62, 0
3, 76200, Note_on_c, 1, 62, 80
3, 76200, Note_on_c, 1, 66, 80
3, 76248, Note_on_c, 1, 66, 0
3, 76248, Note_on_c, 1, 62, 0
3, 76320, Note_on_c, 1, 62, 80
3, 76320, Note_on_c, 1, 67, 80
3, 76368, Note_on_c, 1, 67, 0
3, 76368, Note_on_c, 1, 62, 0
3, 76440, Note_on_c, 1, 62, 80
3, 76440, Note_on_c, 1, 67, 80
3, 76488, Note_on_c, 1, 67, 0
3, 76488, Note_on_c, 1, 62, 0
3, 76560, Note_on_c, 1, 62, 80
3, 76560, Note_on_c, 1, 67, 80
3, 76608, Note_on_c, 1, 67, 0
3, 76608, Note_on_c, 1, 62, 0
3, 76680, Note_on_c, 1, 62, 80
3, 76680, Note_on_c, 1, 67, 80
3, 76728, Note_on_c, 1, 67, 0
3, 76728, Note_on_c, 1, 62, 0
3, 76800, Note_on_c, 1, 66, 80
3, 76800, Note_on_c, 1, 62, 80
3, 76848, Note_on_c, 1, 62, 0
3, 76848, Note_on_c, 1, 66, 0
3, 76920, Note_on_c, 1, 66, 80
3, 76920, Note_on_c, 1, 62, 80
3, 76968, Note_on_c, 1, 62, 0
3, 76968, Note_on_c, 1, 66, 0
3, 77040, Note_on_c, 1, 66, 80
3, 77040, Note_on_c, 1, 62, 80
3, 77088, Note_on_c, 1, 62, 0
3, 77088, Note_on_c, 1, 66, 0
3, 77160, Note_on_c, 1, 66, 80
3, 77160, Note_on_c, 1, 62, 80
3, 77208, Note_on_c, 1, 62, 0
3, 77208, Note_on_c, 1, 66, 0
3, 77280, Note_on_c, 1, 67, 80
3, 77280, Note_on_c, 1, 62, 80
3, 77328, Note_on_c, 1, 62, 0
3, 77328, Note_on_c, 1, 67, 0
3, 77400, Note_on_c, 1, 67, 80
3, 77400, Note_on_c, 1, 62, 80
3, 77448, Note_on_c, 1, 62, 0
3, 77448, Note_on_c, 1, 67, 0
3, 77520, Note_on_c, 1, 67, 80
3, 77520, Note_on_c, 1, 62, 80
3, 77568, Note_on_c, 1, 62, 0
3, 77568, Note_on_c, 1, 67, 0
3, 77640, Note_on_c, 1, 67, 80
3, 77640, Note_on_c, 1, 62, 80
3, 77688, Note_on_c, 1, 62, 0
3, 77688, Note_on_c, 1, 67, 0
3, 77760, Note_on_c, 1, 62, 80
3, 77760, Note_on_c, 1, 66, 80
3, 77808, Note_on_c, 1, 66, 0
3, 77808, Note_on_c, 1, 62, 0
3, 77880, Note_on_c, 1, 62, 80
3, 77880, Note_on_c, 1, 66, 80
3, 77928, Note_on_c, 1, 66, 0
3, 77928, Note_on_c, 1, 62, 0
3, 78000, Note_on_c, 1, 62, 80
3, 78000, Note_on_c, 1, 66, 80
3, 78048, Note_on_c, 1, 66, 0
3, 78048, Note_on_c, 1, 62, 0
3, 78120, Note_on_c, 1, 62, 80
3, 78120, Note_on_c, 1, 66, 80
3, 78168, Note_on_c, 1, 66, 0
3, 78168, Note_on_c, 1, 62, 0
3, 78240, Note_on_c, 1, 62, 80
3, 78240, Note_on_c, 1, 66, 80
3, 78480, Note_on_c, 1, 66, 0
3, 78480, Note_on_c, 1, 62, 0
3, 78720, Note_on_c, 1, 55, 80
3, 78720, Note_on_c, 1, 59, 80
3, 78768, Note_on_c, 1, 59, 0
3, 78768, Note_on_c, 1, 55, 0
3, 78840, Note_on_c, 1, 55, 80
3, 78840, Note_on_c, 1, 59, 80
3, 78888, Note_on_c, 1, 59, 0
3, 78888, Note_on_c, 1, 55, 0
3, 78960, Note_on_c, 1, 55, 80
3, 78960, Note_on_c, 1, 59, 80
3, 79008, Note_on_c, 1, 59, 0
3, 79008, Note_on_c, 1, 55, 0
3, 79080, Note_on_c, 1, 55, 80
3, 79080, Note_on_c, 1, 59, 80
3, 79128, Note_on_c, 1, 59, 0
3, 79128, Note_on_c, 1, 55, 0
3, 79200, Note_on_c, 1, 55, 80
3, 79200, Note_on_c, 1, 59, 80
3, 79248, Note_on_c, 1, 59, 0
3, 79248, Note_on_c, 1, 55, 0
3, 79320, Note_on_c, 1, 55, 80
3, 79320, Note_on_c, 1, 59, 80
3, 79368, Note_on_c, 1, 59, 0
3, 79368, Note_on_c, 1, 55, 0
3, 79440, Note_on_c, 1, 55, 80
3, 79440, Note_on_c, 1, 59, 80
3, 79488, Note_on_c, 1, 59, 0
3, 79488, Note_on_c, 1, 55, 0
3, 79560, Note_on_c, 1, 55, 80
3, 79560, Note_on_c, 1, 59, 80
3, 79608, Note_on_c, 1, 59, 0
3, 79608, Note_on_c, 1, 55, 0
3, 79680, Note_on_c, 1, 55, 80
3, 79680, Note_on_c, 1, 60, 80
3, 79920, Note_on_c, 1, 60, 0
3, 79920, Note_on_c, 1, 55, 0
3, 79920, Note_on_c, 1, 55, 80
3, 79920, Note_on_c, 1, 59, 80
3, 80040, Note_on_c, 1, 59, 0
3, 80040, Note_on_c, 1, 55, 0
3, 80160, Note_on_c, 1, 65, 80
3, 80220, Note_on_c, 1, 65, 0
3, 80220, Note_on_c, 1, 67, 80
3, 80280, Note_on_c, 1, 67, 0
3, 80280, Note_on_c, 1, 65, 80
3, 80340, Note_on_c, 1, 65, 0
3, 80340, Note_on_c, 1, 67, 80
3, 80400, Note_on_c, 1, 67, 0
3, 80400, Note_on_c, 1, 65, 80
3, 80460, Note_on_c, 1, 65, 0
3, 80460, Note_on_c, 1, 67, 80
3, 80520, Note_on_c, 1, 67, 0
3, 80520, Note_on_c, 1, 65, 80
3, 80580, Note_on_c, 1, 65, 0
3, 80580, Note_on_c, 1, 67, 80
3, 80640, Note_on_c, 1, 67, 0
3, 80640, Note_on_c, 1, 64, 80
3, 80880, Note_on_c, 1, 64, 0
3, 81000, Note_on_c, 1, 64, 80
3, 81060, Note_on_c, 1, 64, 0
3, 81060, Note_on_c, 1, 62, 80
3, 81120, Note_on_c, 1, 62, 0
3, 81120, Note_on_c, 1, 60, 80
3, 81360, Note_on_c, 1, 60, 0
3, 81480, Note_on_c, 1, 61, 80
3, 81600, Note_on_c, 1, 61, 0
3, 81600, Note_on_c, 1, 62, 80
3, 82080, Note_on_c, 1, 62, 0
3, 82080, Note_on_c, 1, 50, 80
3, 82320, Note_on_c, 1, 50, 0
3, 82560, Note_on_c, 1, 55, 80
3, 82560, Note_on_c, 1, 59, 80
3, 82608, Note_on_c, 1, 59, 0
3, 82608, Note_on_c, 1, 55, 0
3, 82680, Note_on_c, 1, 55, 80
3, 82680, Note_on_c, 1, 59, 80
3, 82728, Note_on_c, 1, 59, 0
3, 82728, Note_on_c, 1, 55, 0
3, 82800, Note_on_c, 1, 55, 80
3, 82800, Note_on_c, 1, 59, 80
3, 82848, Note_on_c, 1, 59, 0
3, 82848, Note_on_c, 1, 55, 0
3, 82920, Note_on_c, 1, 55, 80
3, 82920, Note_on_c, 1, 59, 80
3, 82968, Note_on_c, 1, 59, 0
3, 82968, Note_on_c, 1, 55, 0
3, 83040, Note_on_c, 1, 55, 80
3, 83040, Note_on_c, 1, 59, 80
3, 83088, Note_on_c, 1, 59, 0
3, 83088, Note_on_c, 1, 55, 0
3, 83160, Note_on_c, 1, 55, 80
3, 83160, Note_on_c, 1, 59, 80
3, 83208, Note_on_c, 1, 59, 0
3, 83208, Note_on_c, 1, 55, 0
3, 83280, Note_on_c, 1, 55, 80
3, 83280, Note_on_c, 1, 59, 80
3, 83328, Note_on_c, 1, 59, 0
3, 83328, Note_on_c, 1, 55, 0
3, 83400, Note_on_c, 1, 55, 80
3, 83400, Note_on_c, 1, 59, 80
3, 83448, Note_on_c, 1, 59, 0
3, 83448, Note_on_c, 1, 55, 0
3, 83520, Note_on_c, 1, 60, 80
3, 83520, Note_on_c, 1, 55, 80
3, 83760, Note_on_c, 1, 55, 0
3, 83760, Note_on_c, 1, 60, 0
3, 83760, Note_on_c, 1, 59, 80
3, 83760, Note_on_c, 1, 55, 80
3, 83808, Note_on_c, 1, 55, 0
3, 83808, Note_on_c, 1, 59, 0
3, 84000, Note_on_c, 1, 71, 80
3, 84000, Note_on_c, 1, 67, 80
3, 84048, Note_on_c, 1, 67, 0
3, 84048, Note_on_c, 1, 71, 0
3, 84120, Note_on_c, 1, 71, 80
3, 84120, Note_on_c, 1, 67, 80
3, 84168, Note_on_c, 1, 67, 0
3, 84168, Note_on_c, 1, 71, 0
3, 84240, Note_on_c, 1, 71, 80
3, 84240, Note_on_c, 1, 67, 80
3, 84288, Note_on_c, 1, 67, 0
3, 84288, Note_on_c, 1, 71, 0
3, 84360, Note_on_c, 1, 71, 80
3, 84360, Note_on_c, 1, 67, 80
3, 84408, Note_on_c, 1, 67, 0
3, 84408, Note_on_c, 1, 71, 0
3, 84480, Note_on_c, 1, 71, 80
3, 84480, Note_on_c, 1, 67, 80
3, 84528, Note_on_c, 1, 67, 0
3, 84528, Note_on_c, 1, 71, 0
3, 84600, Note_on_c, 1, 71, 80
3, 84600, Note_on_c, 1, 67, 80
3, 84648, Note_on_c, 1, 67, 0
3, 84648, Note_on_c, 1, 71, 0
3, 84720, Note_on_c, 1, 71, 80
3, 84720, Note_on_c, 1, 67, 80
3, 84768, Note_on_c, 1, 67, 0
3, 84768, Note_on_c, 1, 71, 0
3, 84840, Note_on_c, 1, 71, 80
3, 84840, Note_on_c, 1, 67, 80
3, 84888, Note_on_c, 1, 67, 0
3, 84888, Note_on_c, 1, 71, 0
3, 84960, Note_on_c, 1, 57, 80
3, 84960, Note_on_c, 1, 66, 80
3, 85008, Note_on_c, 1, 66, 0
3, 85008, Note_on_c, 1, 57, 0
3, 85080, Note_on_c, 1, 57, 80
3, 85080, Note_on_c, 1, 66, 80
3, 85128, Note_on_c, 1, 66, 0
3, 85128, Note_on_c, 1, 57, 0
3, 85200, Note_on_c, 1, 57, 80
3, 85200, Note_on_c, 1, 64, 80
3, 85248, Note_on_c, 1, 64, 0
3, 85248, Note_on_c, 1, 57, 0
3, 85320, Note_on_c, 1, 57, 80
3, 85320, Note_on_c, 1, 64, 80
3, 85368, Note_on_c, 1, 64, 0
3, 85368, Note_on_c, 1, 57, 0
3, 85440, Note_on_c, 1, 66, 80
3, 85440, Note_on_c, 1, 62, 80
3, 85488, Note_on_c, 1, 62, 0
3, 85488, Note_on_c, 1, 66, 0
3, 85560, Note_on_c, 1, 66, 80
3, 85560, Note_on_c, 1, 62, 80
3, 85608, Note_on_c, 1, 62, 0
3, 85608, Note_on_c, 1, 66, 0
3, 85680, Note_on_c, 1, 66, 80
3, 85680, Note_on_c, 1, 62, 80
3, 85728, Note_on_c, 1, 62, 0
3, 85728, Note_on_c, 1, 66, 0
3, 85800, Note_on_c, 1, 66, 80
3, 85800, Note_on_c, 1, 62, 80
3, 85848, Note_on_c, 1, 62, 0
3, 85848, Note_on_c, 1, 66, 0
3, 85920, Note_on_c, 1, 67, 80
3, 85920, Note_on_c, 1, 62, 80
3, 85968, Note_on_c, 1, 62, 0
3, 85968, Note_on_c, 1, 67, 0
3, 86040, Note_on_c, 1, 67, 80
3, 86040, Note_on_c, 1, 62, 80
3, 86088, Note_on_c, 1, 62, 0
3, 86088, Note_on_c, 1, 67, 0
3, 86160, Note_on_c, 1, 67, 80
3, 86160, Note_on_c, 1, 62, 80
3, 86208, Note_on_c, 1, 62, 0
3, 86208, Note_on_c, 1, 67, 0
3, 86280, Note_on_c, 1, 67, 80
3, 86280, Note_on_c, 1, 62, 80
3, 86328, Note_on_c, 1, 62, 0
3, 86328, Note_on_c, 1, 67, 0
3, 86400, Note_on_c, 1, 62, 80
3, 86400, Note_on_c, 1, 66, 80
3, 86448, Note_on_c, 1, 66, 0
3, 86448, Note_on_c, 1, 62, 0
3, 86520, Note_on_c, 1, 62, 80
3, 86520, Note_on_c, 1, 66, 80
3, 86568, Note_on_c, 1, 66, 0
3, 86568, Note_on_c, 1, 62, 0
3, 86640, Note_on_c, 1, 62, 80
3, 86640, Note_on_c, 1, 66, 80
3, 86688, Note_on_c, 1, 66, 0
3, 86688, Note_on_c, 1, 62, 0
3, 86760, Note_on_c, 1, 62, 80
3, 86760, Note_on_c, 1, 66, 80
3, 86808, Note_on_c, 1, 66, 0
3, 86808, Note_on_c, 1, 62, 0
3, 86880, Note_on_c, 1, 62, 80
3, 86880, Note_on_c, 1, 67, 80
3, 86928, Note_on_c, 1, 67, 0
3, 86928, Note_on_c, 1, 62, 0
3, 87000, Note_on_c, 1, 62, 80
3, 87000, Note_on_c, 1, 67, 80
3, 87048, Note_on_c, 1, 67, 0
3, 87048, Note_on_c, 1, 62, 0
3, 87120, Note_on_c, 1, 62, 80
3, 87120, Note_on_c, 1, 67, 80
3, 87168, Note_on_c, 1, 67, 0
3, 87168, Note_on_c, 1, 62, 0
3, 87240, Note_on_c, 1, 62, 80
3, 87240, Note_on_c, 1, 67, 80
3, 87288, Note_on_c, 1, 67, 0
3, 87288, Note_on_c, 1, 62, 0
3, 87360, Note_on_c, 1, 66, 80
3, 87360, Note_on_c, 1, 62, 80
3, 87408, Note_on_c, 1, 62, 0
3, 87408, Note_on_c, 1, 66, 0
3, 87480, Note_on_c, 1, 66, 80
3, 87480, Note_on_c, 1, 62, 80
3, 87528, Note_on_c, 1, 62, 0
3, 87528, Note_on_c, 1, 66, 0
3, 87600, Note_on_c, 1, 66, 80
3, 87600, Note_on_c, 1, 62, 80
3, 87648, Note_on_c, 1, 62, 0
3, 87648, Note_on_c, 1, 66, 0
3, 87720, Note_on_c, 1, 66, 80
3, 87720, Note_on_c, 1, 62, 80
3, 87768, Note_on_c, 1, 62, 0
3, 87768, Note_on_c, 1, 66, 0
3, 87840, Note_on_c, 1, 66, 80
3, 87840, Note_on_c, 1, 62, 80
3, 88080, Note_on_c, 1, 62, 0
3, 88080, Note_on_c, 1, 66, 0
3, 88320, Note_on_c, 1, 58, 80
3, 88380, Note_on_c, 1, 58, 0
3, 88380, Note_on_c, 1, 65, 80
3, 88440, Note_on_c, 1, 65, 0
3, 88440, Note_on_c, 1, 62, 80
3, 88500, Note_on_c, 1, 62, 0
3, 88500, Note_on_c, 1, 65, 80
3, 88560, Note_on_c, 1, 65, 0
3, 88560, Note_on_c, 1, 58, 80
3, 88620, Note_on_c, 1, 58, 0
3, 88620, Note_on_c, 1, 65, 80
3, 88680, Note_on_c, 1, 65, 0
3, 88680, Note_on_c, 1, 62, 80
3, 88740, Note_on_c, 1, 62, 0
3, 88740, Note_on_c, 1, 65, 80
3, 88800, Note_on_c, 1, 65, 0
3, 88800, Note_on_c, 1, 60, 80
3, 88860, Note_on_c, 1, 60, 0
3, 88860, Note_on_c, 1, 65, 80
3, 88920, Note_on_c, 1, 65, 0
3, 88920, Note_on_c, 1, 63, 80
3, 88980, Note_on_c, 1, 63, 0
3, 88980, Note_on_c, 1, 65, 80
3, 89040, Note_on_c, 1, 65, 0
3, 89040, Note_on_c, 1, 60, 80
3, 89100, Note_on_c, 1, 60, 0
3, 89100, Note_on_c, 1, 65, 80
3, 89160, Note_on_c, 1, 65, 0
3, 89160, Note_on_c, 1, 63, 80
3, 89220, Note_on_c, 1, 63, 0
3, 89220, Note_on_c, 1, 65, 80
3, 89280, Note_on_c, 1, 65, 0
3, 89280, Note_on_c, 1, 58, 80
3, 89340, Note_on_c, 1, 58, 0
3, 89340, Note_on_c, 1, 65, 80
3, 89400, Note_on_c, 1, 65, 0
3, 89400, Note_on_c, 1, 62, 80
3, 89460, Note_on_c, 1, 62, 0
3, 89460, Note_on_c, 1, 65, 80
3, 89520, Note_on_c, 1, 65, 0
3, 89520, Note_on_c, 1, 58, 80
3, 89580, Note_on_c, 1, 58, 0
3, 89580, Note_on_c, 1, 65, 80
3, 89640, Note_on_c, 1, 65, 0
3, 89640, Note_on_c, 1, 62, 80
3, 89700, Note_on_c, 1, 62, 0
3, 89700, Note_on_c, 1, 65, 80
3, 89760, Note_on_c, 1, 65, 0
3, 89760, Note_on_c, 1, 57, 80
3, 89820, Note_on_c, 1, 57, 0
3, 89820, Note_on_c, 1, 62, 80
3, 89880, Note_on_c, 1, 62, 0
3, 89880, Note_on_c, 1, 60, 80
3, 89940, Note_on_c, 1, 60, 0
3, 89940, Note_on_c, 1, 62, 80
3, 90000, Note_on_c, 1, 62, 0
3, 90000, Note_on_c, 1, 57, 80
3, 90060, Note_on_c, 1, 57, 0
3, 90060, Note_on_c, 1, 62, 80
3, 90120, Note_on_c, 1, 62, 0
3, 90120, Note_on_c, 1, 60, 80
3, 90180, Note_on_c, 1, 60, 0
3, 90180, Note_on_c, 1, 62, 80
3, 90240, Note_on_c, 1, 62, 0
3, 90240, Note_on_c, 1, 55, 80
3, 90300, Note_on_c, 1, 55, 0
3, 90300, Note_on_c, 1, 62, 80
3, 90360, Note_on_c, 1, 62, 0
3, 90360, Note_on_c, 1, 58, 80
3, 90420, Note_on_c, 1, 58, 0
3, 90420, Note_on_c, 1, 62, 80
3, 90480, Note_on_c, 1, 62, 0
3, 90480, Note_on_c, 1, 55, 80
3, 90540, Note_on_c, 1, 55, 0
3, 90540, Note_on_c, 1, 62, 80
3, 90600, Note_on_c, 1, 62, 0
3, 90600, Note_on_c, 1, 58, 80
3, 90660, Note_on_c, 1, 58, 0
3, 90660, Note_on_c, 1, 62, 80
3, 90720, Note_on_c, 1, 62, 0
3, 90720, Note_on_c, 1, 51, 80
3, 90780, Note_on_c, 1, 51, 0
3, 90780, Note_on_c, 1, 55, 80
3, 90840, Note_on_c, 1, 55, 0
3, 90840, Note_on_c, 1, 54, 80
3, 90900, Note_on_c, 1, 54, 0
3, 90900, Note_on_c, 1, 55, 80
3, 90960, Note_on_c, 1, 55, 0
3, 90960, Note_on_c, 1, 51, 80
3, 91020, Note_on_c, 1, 51, 0
3, 91020, Note_on_c, 1, 55, 80
3, 91080, Note_on_c, 1, 55, 0
3, 91080, Note_on_c, 1, 54, 80
3, 91140, Note_on_c, 1, 54, 0
3, 91140, Note_on_c, 1, 55, 80
3, 91200, Note_on_c, 1, 55, 0
3, 91200, Note_on_c, 1, 50, 80
3, 91440, Note_on_c, 1, 50, 0
3, 91680, Note_on_c, 1, 38, 80
3, 91740, Note_on_c, 1, 38, 0
3, 91740, Note_on_c, 1, 50, 80
3, 91800, Note_on_c, 1, 50, 0
3, 91800, Note_on_c, 1, 36, 80
3, 91860, Note_on_c, 1, 36, 0
3, 91860, Note_on_c, 1, 48, 80
3, 91920, Note_on_c, 1, 48, 0
3, 91920, Note_on_c, 1, 35, 80
3, 91980, Note_on_c, 1, 35, 0
3, 91980, Note_on_c, 1, 47, 80
3, 92040, Note_on_c, 1, 47, 0
3, 92040, Note_on_c, 1, 33, 80
3, 92100, Note_on_c, 1, 33, 0
3, 92100, Note_on_c, 1, 45, 80
3, 92160, Note_on_c, 1, 45, 0
3, 92160, Note_on_c, 1, 31, 80
3, 92400, Note_on_c, 1, 31, 0
3, 92400, Note_on_c, 1, 55, 80
3, 92400, Note_on_c, 1, 59, 80
3, 92448, Note_on_c, 1, 59, 0
3, 92448, Note_on_c, 1, 55, 0
3, 92520, Note_on_c, 1, 55, 80
3, 92520, Note_on_c, 1, 59, 80
3, 92568, Note_on_c, 1, 59, 0
3, 92568, Note_on_c, 1, 55, 0
3, 92640, Note_on_c, 1, 55, 80
3, 92640, Note_on_c, 1, 59, 80
3, 92688, Note_on_c, 1, 59, 0
3, 92688, Note_on_c, 1, 55, 0
3, 92760, Note_on_c, 1, 55, 80
3, 92760, Note_on_c, 1, 59, 80
3, 92808, Note_on_c, 1, 59, 0
3, 92808, Note_on_c, 1, 55, 0
3, 92880, Note_on_c, 1, 55, 80
3, 92880, Note_on_c, 1, 59, 80
3, 92928, Note_on_c, 1, 59, 0
3, 92928, Note_on_c, 1, 55, 0
3, 93000, Note_on_c, 1, 55, 80
3, 93000, Note_on_c, 1, 59, 80
3, 93048, Note_on_c, 1, 59, 0
3, 93048, Note_on_c, 1, 55, 0
3, 93120, Note_on_c, 1, 55, 80
3, 93120, Note_on_c, 1, 60, 80
3, 93360, Note_on_c, 1, 60, 0
3, 93360, Note_on_c, 1, 55, 0
3, 93360, Note_on_c, 1, 55, 80
3, 93360, Note_on_c, 1, 59, 80
3, 93444, Note_on_c, 1, 59, 0
3, 93444, Note_on_c, 1, 55, 0
3, 93600, Note_on_c, 1, 68, 80
3, 93600, Note_on_c, 1, 74, 80
3, 93648, Note_on_c, 1, 74, 0
3, 93648, Note_on_c, 1, 68, 0
3, 93720, Note_on_c, 1, 68, 80
3, 93720, Note_on_c, 1, 74, 80
3, 93768, Note_on_c, 1, 74, 0
3, 93768, Note_on_c, 1, 68, 0
3, 93840, Note_on_c, 1, 68, 80
3, 93840, Note_on_c, 1, 74, 80
3, 93888, Note_on_c, 1, 74, 0
3, 93888, Note_on_c, 1, 68, 0
3, 93960, Note_on_c, 1, 68, 80
3, 93960, Note_on_c, 1, 74, 80
3, 94008, Note_on_c, 1, 74, 0
3, 94008, Note_on_c, 1, 68, 0
3, 94080, Note_on_c, 1, 69, 80
3, 94080, Note_on_c, 1, 72, 80
3, 94320, Note_on_c, 1, 72, 0
3, 94320, Note_on_c, 1, 69, 0
3, 94440, Note_on_c, 1, 66, 80
3, 94440, Note_on_c, 1, 72, 80
3, 94488, Note_on_c, 1, 72, 0
3, 94488, Note_on_c, 1, 66, 0
3, 94560, Note_on_c, 1, 66, 80
3, 94560, Note_on_c, 1, 72, 80
3, 94608, Note_on_c, 1, 72, 0
3, 94608, Note_on_c, 1, 66, 0
3, 94680, Note_on_c, 1, 66, 80
3, 94680, Note_on_c, 1, 72, 80
3, 94728, Note_on_c, 1, 72, 0
3, 94728, Note_on_c, 1, 66, 0
3, 94800, Note_on_c, 1, 66, 80
3, 94800, Note_on_c, 1, 72, 80
3, 94848, Note_on_c, 1, 72, 0
3, 94848, Note_on_c, 1, 66, 0
3, 94920, Note_on_c, 1, 66, 80
3, 94920, Note_on_c, 1, 72, 80
3, 94968, Note_on_c, 1, 72, 0
3, 94968, Note_on_c, 1, 66, 0
3, 95040, Note_on_c, 1, 71, 80
3, 95040, Note_on_c, 1, 67, 80
3, 95280, Note_on_c, 1, 67, 0
3, 95280, Note_on_c, 1, 71, 0
3, 96960, Note_on_c, 1, 64, 56
3, 96960, Note_on_c, 1, 67, 56
3, 97200, Note_on_c, 1, 67, 0
3, 97200, Note_on_c, 1, 64, 0
3, 97440, Note_on_c, 1, 63, 80
3, 97500, Note_on_c, 1, 63, 0
3, 97500, Note_on_c, 1, 67, 80
3, 97560, Note_on_c, 1, 67, 0
3, 97560, Note_on_c, 1, 63, 80
3, 97620, Note_on_c, 1, 63, 0
3, 97620, Note_on_c, 1, 67, 80
3, 97680, Note_on_c, 1, 67, 0
3, 97680, Note_on_c, 1, 63, 80
3, 97740, Note_on_c, 1, 63, 0
3, 97740, Note_on_c, 1, 67, 80
3, 97800, Note_on_c, 1, 67, 0
3, 97800, Note_on_c, 1, 63, 80
3, 97860, Note_on_c, 1, 63, 0
3, 97860, Note_on_c, 1, 67, 80
3, 97920, Note_on_c, 1, 67, 0
3, 97920, Note_on_c, 1, 62, 80
3, 97920, Note_on_c, 1, 66, 80
3, 98160, Note_on_c, 1, 66, 0
3, 98160, Note_on_c, 1, 62, 0
3, 98160, Note_on_c, 1, 67, 80
3, 98400, Note_on_c, 1, 67, 0
3, 98400, Note_on_c, 1, 60, 80
3, 98400, Note_on_c, 1, 72, 80
3, 98640, Note_on_c, 1, 72, 0
3, 98640, Note_on_c, 1, 60, 0
3, 98640, Note_on_c, 1, 62, 80
3, 98640, Note_on_c, 1, 72, 80
3, 98880, Note_on_c, 1, 72, 0
3, 98880, Note_on_c, 1, 62, 0
3, 98880, Note_on_c, 1, 67, 80
3, 98880, Note_on_c, 1, 71, 80
3, 98928, Note_on_c, 1, 71, 0
3, 98928, Note_on_c, 1, 67, 0
3, 99000, Note_on_c, 1, 67, 80
3, 99000, Note_on_c, 1, 71, 80
3, 99048, Note_on_c, 1, 71, 0
3, 99048, Note_on_c, 1, 67, 0
3, 99120, Note_on_c, 1, 67, 80
3, 99120, Note_on_c, 1, 71, 80
3, 99168, Note_on_c, 1, 71, 0
3, 99168, Note_on_c, 1, 67, 0
3, 99240, Note_on_c, 1, 67, 80
3, 99240, Note_on_c, 1, 71, 80
3, 99288, Note_on_c, 1, 71, 0
3, 99288, Note_on_c, 1, 67, 0
3, 99360, Note_on_c, 1, 67, 80
3, 99360, Note_on_c, 1, 72, 80
3, 99408, Note_on_c, 1, 72, 0
3, 99408, Note_on_c, 1, 67, 0
3, 99480, Note_on_c, 1, 67, 80
3, 99480, Note_on_c, 1, 72, 80
3, 99528, Note_on_c, 1, 72, 0
3, 99528, Note_on_c, 1, 67, 0
3, 99600, Note_on_c, 1, 67, 80
3, 99600, Note_on_c, 1, 72, 80
3, 99648, Note_on_c, 1, 72, 0
3, 99648, Note_on_c, 1, 67, 0
3, 99720, Note_on_c, 1, 67, 80
3, 99720, Note_on_c, 1, 72, 80
3, 99768, Note_on_c, 1, 72, 0
3, 99768, Note_on_c, 1, 67, 0
3, 99840, Note_on_c, 1, 71, 56
3, 99840, Note_on_c, 1, 67, 56
3, 99888, Note_on_c, 1, 67, 0
3, 99888, Note_on_c, 1, 71, 0
3, 99960, Note_on_c, 1, 71, 59
3, 99960, Note_on_c, 1, 67, 59
3, 100008, Note_on_c, 1, 67, 0
3, 100008, Note_on_c, 1, 71, 0
3, 100080, Note_on_c, 1, 71, 62
3, 100080, Note_on_c, 1, 67, 62
3, 100128, Note_on_c, 1, 67, 0
3, 100128, Note_on_c, 1, 71, 0
3, 100200, Note_on_c, 1, 71, 65
3, 100200, Note_on_c, 1, 67, 65
3, 100248, Note_on_c, 1, 67, 0
3, 100248, Note_on_c, 1, 71, 0
3, 100320, Note_on_c, 1, 72, 68
3, 100320, Note_on_c, 1, 67, 68
3, 100368, Note_on_c, 1, 67, 0
3, 100368, Note_on_c, 1, 72, 0
3, 100440, Note_on_c, 1, 72, 71
3, 100440, Note_on_c, 1, 67, 71
3, 100488, Note_on_c, 1, 67, 0
3, 100488, Note_on_c, 1, 72, 0
3, 100560, Note_on_c, 1, 72, 74
3, 100560, Note_on_c, 1, 67, 74
3, 100608, Note_on_c, 1, 67, 0
3, 100608, Note_on_c, 1, 72, 0
3, 100680, Note_on_c, 1, 72, 77
3, 100680, Note_on_c, 1, 67, 77
3, 100728, Note_on_c, 1, 67, 0
3, 100728, Note_on_c, 1, 72, 0
3, 100800, Note_on_c, 1, 67, 80
3, 100800, Note_on_c, 1, 71, 80
3, 101040, Note_on_c, 1, 71, 0
3, 101040, Note_on_c, 1, 67, 0
3, 101760, Note_on_c, 1, 58, 80
3, 101820, Note_on_c, 1, 58, 0
3, 101820, Note_on_c, 1, 65, 80
3, 101880, Note_on_c, 1, 65, 0
3, 101880, Note_on_c, 1, 62, 80
3, 101940, Note_on_c, 1, 62, 0
3, 101940, Note_on_c, 1, 65, 80
3, 102000, Note_on_c, 1, 65, 0
3, 102000, Note_on_c, 1, 58, 80
3, 102060, Note_on_c, 1, 58, 0
3, 102060, Note_on_c, 1, 65, 80
3, 102120, Note_on_c, 1, 65, 0
3, 102120, Note_on_c, 1, 62, 80
3, 102180, Note_on_c, 1, 62, 0
3, 102180, Note_on_c, 1, 65, 80
3, 102240, Note_on_c, 1, 65, 0
3, 102240, Note_on_c, 1, 60, 80
3, 102300, Note_on_c, 1, 60, 0
3, 102300, Note_on_c, 1, 65, 80
3, 102360, Note_on_c, 1, 65, 0
3, 102360, Note_on_c, 1, 63, 80
3, 102420, Note_on_c, 1, 63, 0
3, 102420, Note_on_c, 1, 65, 80
3, 102480, Note_on_c, 1, 65, 0
3, 102480, Note_on_c, 1, 60, 80
3, 102540, Note_on_c, 1, 60, 0
3, 102540, Note_on_c, 1, 65, 80
3, 102600, Note_on_c, 1, 65, 0
3, 102600, Note_on_c, 1, 63, 80
3, 102660, Note_on_c, 1, 63, 0
3, 102660, Note_on_c, 1, 65, 80
3, 102720, Note_on_c, 1, 65, 0
3, 102720, Note_on_c, 1, 58, 80
3, 102780, Note_on_c, 1, 58, 0
3, 102780, Note_on_c, 1, 65, 80
3, 102840, Note_on_c, 1, 65, 0
3, 102840, Note_on_c, 1, 62, 80
3, 102900, Note_on_c, 1, 62, 0
3, 102900, Note_on_c, 1, 65, 80
3, 102960, Note_on_c, 1, 65, 0
3, 102960, Note_on_c, 1, 58, 80
3, 103020, Note_on_c, 1, 58, 0
3, 103020, Note_on_c, 1, 65, 80
3, 103080, Note_on_c, 1, 65, 0
3, 103080, Note_on_c, 1, 62, 80
3, 103140, Note_on_c, 1, 62, 0
3, 103140, Note_on_c, 1, 65, 80
3, 103200, Note_on_c, 1, 65, 0
3, 103200, Note_on_c, 1, 57, 80
3, 103260, Note_on_c, 1, 57, 0
3, 103260, Note_on_c, 1, 62, 80
3, 103320, Note_on_c, 1, 62, 0
3, 103320, Note_on_c, 1, 60, 80
3, 103380, Note_on_c, 1, 60, 0
3, 103380, Note_on_c, 1, 62, 80
3, 103440, Note_on_c, 1, 62, 0
3, 103440, Note_on_c, 1, 57, 80
3, 103500, Note_on_c, 1, 57, 0
3, 103500, Note_on_c, 1, 62, 80
3, 103560, Note_on_c, 1, 62, 0
3, 103560, Note_on_c, 1, 60, 80
3, 103620, Note_on_c, 1, 60, 0
3, 103620, Note_on_c, 1, 62, 80
3, 103680, Note_on_c, 1, 62, 0
3, 103680, Note_on_c, 1, 55, 80
3, 103740, Note_on_c, 1, 55, 0
3, 103740, Note_on_c, 1, 62, 80
3, 103800, Note_on_c, 1, 62, 0
3, 103800, Note_on_c, 1, 58, 80
3, 103860, Note_on_c, 1, 58, 0
3, 103860, Note_on_c, 1, 62, 80
3, 103920, Note_on_c, 1, 62, 0
3, 103920, Note_on_c, 1, 55, 80
3, 103980, Note_on_c, 1, 55, 0
3, 103980, Note_on_c, 1, 62, 80
3, 104040, Note_on_c, 1, 62, 0
3, 104040, Note_on_c, 1, 58, 80
3, 104100, Note_on_c, 1, 58, 0
3, 104100, Note_on_c, 1, 62, 80
3, 104160, Note_on_c, 1, 62, 0
3, 104160, Note_on_c, 1, 51, 80
3, 104220, Note_on_c, 1, 51, 0
3, 104220, Note_on_c, 1, 55, 80
3, 104280, Note_on_c, 1, 55, 0
3, 104280, Note_on_c, 1, 54, 80
3, 104340, Note_on_c, 1, 54, 0
3, 104340, Note_on_c, 1, 55, 80
3, 104400, Note_on_c, 1, 55, 0
3, 104400, Note_on_c, 1, 51, 80
3, 104460, Note_on_c, 1, 51, 0
3, 104460, Note_on_c, 1, 55, 80
3, 104520, Note_on_c, 1, 55, 0
3, 104520, Note_on_c, 1, 54, 80
3, 104580, Note_on_c, 1, 54, 0
3, 104580, Note_on_c, 1, 55, 80
3, 104640, Note_on_c, 1, 55, 0
3, 104640, Note_on_c, 1, 50, 80
3, 104880, Note_on_c, 1, 50, 0
3, 105120, Note_on_c, 1, 38, 80
3, 105180, Note_on_c, 1, 38, 0
3, 105180, Note_on_c, 1, 50, 80
3, 105240, Note_on_c, 1, 50, 0
3, 105240, Note_on_c, 1, 36, 80
3, 105300, Note_on_c, 1, 36, 0
3, 105300, Note_on_c, 1, 48, 80
3, 105360, Note_on_c, 1, 48, 0
3, 105360, Note_on_c, 1, 35, 80
3, 105420, Note_on_c, 1, 35, 0
3, 105420, Note_on_c, 1, 47, 80
3, 105480, Note_on_c, 1, 47, 0
3, 105480, Note_on_c, 1, 33, 80
3, 105540, Note_on_c, 1, 33, 0
3, 105540, Note_on_c, 1, 45, 80
3, 105600, Note_on_c, 1, 45, 0
3, 105600, Note_on_c, 1, 31, 80
3, 105840, Note_on_c, 1, 31, 0
3, 105840, Note_on_c, 1, 59, 80
3, 105840, Note_on_c, 1, 55, 80
3, 105888, Note_on_c, 1, 55, 0
3, 105888, Note_on_c, 1, 59, 0
3, 105960, Note_on_c, 1, 59, 80
3, 105960, Note_on_c, 1, 55, 80
3, 106008, Note_on_c, 1, 55, 0
3, 106008, Note_on_c, 1, 59, 0
3, 106080, Note_on_c, 1, 59, 80
3, 106080, Note_on_c, 1, 55, 80
3, 106128, Note_on_c, 1, 55, 0
3, 106128, Note_on_c, 1, 59, 0
3, 106200, Note_on_c, 1, 59, 80
3, 106200, Note_on_c, 1, 55, 80
3, 106248, Note_on_c, 1, 55, 0
3, 106248, Note_on_c, 1, 59, 0
3, 106320, Note_on_c, 1, 59, 80
3, 106320, Note_on_c, 1, 55, 80
3, 106368, Note_on_c, 1, 55, 0
3, 106368, Note_on_c, 1, 59, 0
3, 106440, Note_on_c, 1, 59, 80
3, 106440, Note_on_c, 1, 55, 80
3, 106488, Note_on_c, 1, 55, 0
3, 106488, Note_on_c, 1, 59, 0
3, 106560, Note_on_c, 1, 60, 80
3, 106560, Note_on_c, 1, 55, 80
3, 106800, Note_on_c, 1, 55, 0
3, 106800, Note_on_c, 1, 60, 0
3, 106800, Note_on_c, 1, 59, 80
3, 106800, Note_on_c, 1, 55, 80
3, 106884, Note_on_c, 1, 55, 0
3, 106884, Note_on_c, 1, 59, 0
3, 107040, Note_on_c, 1, 74, 80
3, 107040, Note_on_c, 1, 68, 80
3, 107088, Note_on_c, 1, 68, 0
3, 107088, Note_on_c, 1, 74, 0
3, 107160, Note_on_c, 1, 74, 80
3, 107160, Note_on_c, 1, 68, 80
3, 107208, Note_on_c, 1, 68, 0
3, 107208, Note_on_c, 1, 74, 0
3, 107280, Note_on_c, 1, 74, 80
3, 107280, Note_on_c, 1, 68, 80
3, 107328, Note_on_c, 1, 68, 0
3, 107328, Note_on_c, 1, 74, 0
3, 107400, Note_on_c, 1, 74, 80
3, 107400, Note_on_c, 1, 68, 80
3, 107448, Note_on_c, 1, 68, 0
3, 107448, Note_on_c, 1, 74, 0
3, 107520, Note_on_c, 1, 72, 80
3, 107520, Note_on_c, 1, 69, 80
3, 107760, Note_on_c, 1, 69, 0
3, 107760, Note_on_c, 1, 72, 0
3, 107880, Note_on_c, 1, 72, 80
3, 107880, Note_on_c, 1, 66, 80
3, 107928, Note_on_c, 1, 66, 0
3, 107928, Note_on_c, 1, 72, 0
3, 108000, Note_on_c, 1, 72, 80
3, 108000, Note_on_c, 1, 66, 80
3, 108048, Note_on_c, 1, 66, 0
3, 108048, Note_on_c, 1, 72, 0
3, 108120, Note_on_c, 1, 72, 80
3, 108120, Note_on_c, 1, 66, 80
3, 108168, Note_on_c, 1, 66, 0
3, 108168, Note_on_c, 1, 72, 0
3, 108240, Note_on_c, 1, 72, 80
3, 108240, Note_on_c, 1, 66, 80
3, 108288, Note_on_c, 1, 66, 0
3, 108288, Note_on_c, 1, 72, 0
3, 108360, Note_on_c, 1, 72, 80
3, 108360, Note_on_c, 1, 66, 80
3, 108408, Note_on_c, 1, 66, 0
3, 108408, Note_on_c, 1, 72, 0
3, 108480, Note_on_c, 1, 67, 80
3, 108480, Note_on_c, 1, 71, 80
3, 108720, Note_on_c, 1, 71, 0
3, 108720, Note_on_c, 1, 67, 0
3, 110400, Note_on_c, 1, 67, 56
3, 110400, Note_on_c, 1, 64, 56
3, 110640, Note_on_c, 1, 64, 0
3, 110640, Note_on_c, 1, 67, 0
3, 110880, Note_on_c, 1, 63, 80
3, 110940, Note_on_c, 1, 63, 0
3, 110940, Note_on_c, 1, 67, 80
3, 111000, Note_on_c, 1, 67, 0
3, 111000, Note_on_c, 1, 63, 80
3, 111060, Note_on_c, 1, 63, 0
3, 111060, Note_on_c, 1, 67, 80
3, 111120, Note_on_c, 1, 67, 0
3, 111120, Note_on_c, 1, 63, 80
3, 111180, Note_on_c, 1, 63, 0
3, 111180, Note_on_c, 1, 67, 80
3, 111240, Note_on_c, 1, 67, 0
3, 111240, Note_on_c, 1, 63, 80
3, 111300, Note_on_c, 1, 63, 0
3, 111300, Note_on_c, 1, 67, 80
3, 111360, Note_on_c, 1, 67, 0
3, 111360, Note_on_c, 1, 66, 80
3, 111360, Note_on_c, 1, 62, 80
3, 111600, Note_on_c, 1, 62, 0
3, 111600, Note_on_c, 1, 66, 0
3, 111600, Note_on_c, 1, 67, 80
3, 111840, Note_on_c, 1, 67, 0
3, 111840, Note_on_c, 1, 72, 80
3, 111840, Note_on_c, 1, 60, 80
3, 112080, Note_on_c, 1, 60, 0
3, 112080, Note_on_c, 1, 72, 0
3, 112080, Note_on_c, 1, 72, 80
3, 112080, Note_on_c, 1, 62, 80
3, 112320, Note_on_c, 1, 62, 0
3, 112320, Note_on_c, 1, 72, 0
3, 112320, Note_on_c, 1, 71, 80
3, 112320, Note_on_c, 1, 67, 80
3, 112368, Note_on_c, 1, 67, 0
3, 112368, Note_on_c, 1, 71, 0
3, 112440, Note_on_c, 1, 71, 80
3, 112440, Note_on_c, 1, 67, 80
3, 112488, Note_on_c, 1, 67, 0
3, 112488, Note_on_c, 1, 71, 0
3, 112560, Note_on_c, 1, 71, 80
3, 112560, Note_on_c, 1, 67, 80
3, 112608, Note_on_c, 1, 67, 0
3, 112608, Note_on_c, 1, 71, 0
3, 112680, Note_on_c, 1, 71, 80
3, 112680, Note_on_c, 1, 67, 80
3, 112728, Note_on_c, 1, 67, 0
3, 112728, Note_on_c, 1, 71, 0
3, 112800, Note_on_c, 1, 72, 80
3, 112800, Note_on_c, 1, 67, 80
3, 112848, Note_on_c, 1, 67, 0
3, 112848, Note_on_c, 1, 72, 0
3, 112920, Note_on_c, 1, 72, 80
3, 112920, Note_on_c, 1, 67, 80
3, 112968, Note_on_c, 1, 67, 0
3, 112968, Note_on_c, 1, 72, 0
3, 113040, Note_on_c, 1, 72, 80
3, 113040, Note_on_c, 1, 67, 80
3, 113088, Note_on_c, 1, 67, 0
3, 113088, Note_on_c, 1, 72, 0
3, 113160, Note_on_c, 1, 72, 80
3, 113160, Note_on_c, 1, 67, 80
3, 113208, Note_on_c, 1, 67, 0
3, 113208, Note_on_c, 1, 72, 0
3, 113280, Note_on_c, 1, 67, 56
3, 113280, Note_on_c, 1, 71, 56
3, 113328, Note_on_c, 1, 71, 0
3, 113328, Note_on_c, 1, 67, 0
3, 113400, Note_on_c, 1, 67, 59
3, 113400, Note_on_c, 1, 71, 59
3, 113448, Note_on_c, 1, 71, 0
3, 113448, Note_on_c, 1, 67, 0
3, 113520, Note_on_c, 1, 67, 62
3, 113520, Note_on_c, 1, 71, 62
3, 113568, Note_on_c, 1, 71, 0
3, 113568, Note_on_c, 1, 67, 0
3, 113640, Note_on_c, 1, 67, 65
3, 113640, Note_on_c, 1, 71, 65
3, 113688, Note_on_c, 1, 71, 0
3, 113688, Note_on_c, 1, 67, 0
3, 113760, Note_on_c, 1, 67, 68
3, 113760, Note_on_c, 1, 72, 68
3, 113808, Note_on_c, 1, 72, 0
3, 113808, Note_on_c, 1, 67, 0
3, 113880, Note_on_c, 1, 67, 71
3, 113880, Note_on_c, 1, 72, 71
3, 113928, Note_on_c, 1, 72, 0
3, 113928, Note_on_c, 1, 67, 0
3, 114000, Note_on_c, 1, 67, 74
3, 114000, Note_on_c, 1, 72, 74
3, 114048, Note_on_c, 1, 72, 0
3, 114048, Note_on_c, 1, 67, 0
3, 114120, Note_on_c, 1, 67, 77
3, 114120, Note_on_c, 1, 72, 77
3, 114168, Note_on_c, 1, 72, 0
3, 114168, Note_on_c, 1, 67, 0
3, 114240, Note_on_c, 1, 71, 80
3, 114240, Note_on_c, 1, 67, 80
3, 114480, Note_on_c, 1, 67, 0
3, 114480, Note_on_c, 1, 71, 0
3, 114480, End_track
4, 0, Start_track
4, 0, MIDI_port, 0
4, 0, Title_t, "MIDI by Marty Weimer  5/24/97"
4, 0, End_track
5, 0, Start_track
5, 0, MIDI_port, 0
5, 0, Title_t, "weimermt@libby.org Eureka, MT  USA"
5, 0, End_track
0, 0, End_of_file
