0, 0, Header, 1, 5, 240
1, 0, Start_track
1, 0, Time_signature, 3, 2, 24, 8
1, 0, Key_signature, 0, "major"
1, 0, Tempo, 1132075
1, 8880, Tempo, 1153846
1, 9120, Tempo, 1200000
1, 9360, Tempo, 1224490
1, 10080, Tempo, 1132075
1, 36240, Tempo, 1153846
1, 36480, Tempo, 1200000
1, 36720, Tempo, 1224490
1, 36720, End_track
2, 0, Start_track
2, 0, MIDI_port, 0
2, 0, Title_t, "Piano Sonata No.17 in B Flat"
2, 0, Program_c, 0, 0
2, 0, Control_c, 0, 7, 127
2, 0, Control_c, 0, 10, 72
2, 120, Note_on_c, 0, 74, 64
2, 180, Note_on_c, 0, 74, 0
2, 240, Note_on_c, 0, 75, 64
2, 360, Note_on_c, 0, 75, 0
2, 360, Note_on_c, 0, 74, 64
2, 444, Note_on_c, 0, 74, 0
2, 480, Note_on_c, 0, 79, 64
2, 600, Note_on_c, 0, 79, 0
2, 600, Note_on_c, 0, 74, 64
2, 720, Note_on_c, 0, 74, 0
2, 840, Note_on_c, 0, 74, 64
2, 900, Note_on_c, 0, 74, 0
2, 960, Note_on_c, 0, 75, 64
2, 1080, Note_on_c, 0, 75, 0
2, 1080, Note_on_c, 0, 74, 64
2, 1164, Note_on_c, 0, 74, 0
2, 1200, Note_on_c, 0, 81, 64
2, 1320, Note_on_c, 0, 81, 0
2, 1320, Note_on_c, 0, 74, 64
2, 1440, Note_on_c, 0, 74, 0
2, 1560, Note_on_c, 0, 74, 64
2, 1620, Note_on_c, 0, 74, 0
2, 1680, Note_on_c, 0, 75, 64
2, 1800, Note_on_c, 0, 75, 0
2, 1800, Note_on_c, 0, 74, 64
2, 1920, Note_on_c, 0, 74, 0
2, 1920, Note_on_c, 0, 82, 64
2, 1980, Note_on_c, 0, 82, 0
2, 2040, Note_on_c, 0, 79, 64
2, 2040, Note_on_c, 0, 82, 64
2, 2124, Note_on_c, 0, 82, 0
2, 2124, Note_on_c, 0, 79, 0
2, 2160, Note_on_c, 0, 79, 64
2, 2160, Note_on_c, 0, 82, 64
2, 2280, Note_on_c, 0, 82, 0
2, 2280, Note_on_c, 0, 84, 64
2, 2310, Note_on_c, 0, 84, 0
2, 2310, Note_on_c, 0, 82, 64
2, 2340, Note_on_c, 0, 82, 0
2, 2340, Note_on_c, 0, 81, 64
2, 2370, Note_on_c, 0, 81, 0
2, 2370, Note_on_c, 0, 82, 64
2, 2400, Note_on_c, 0, 82, 0
2, 2400, Note_on_c, 0, 79, 0
2, 2400, Note_on_c, 0, 81, 64
2, 2640, Note_on_c, 0, 81, 0
2, 3000, Note_on_c, 0, 79, 64
2, 3060, Note_on_c, 0, 79, 0
2, 3120, Note_on_c, 0, 81, 64
2, 3240, Note_on_c, 0, 81, 0
2, 3240, Note_on_c, 0, 79, 64
2, 3324, Note_on_c, 0, 79, 0
2, 3360, Note_on_c, 0, 86, 64
2, 3480, Note_on_c, 0, 86, 0
2, 3480, Note_on_c, 0, 77, 64
2, 3600, Note_on_c, 0, 77, 0
2, 3600, Note_on_c, 0, 67, 64
2, 3600, Note_on_c, 0, 77, 64
2, 3840, Note_on_c, 0, 77, 0
2, 3840, Note_on_c, 0, 75, 64
2, 4080, Note_on_c, 0, 75, 0
2, 4080, Note_on_c, 0, 67, 0
2, 4080, Note_on_c, 0, 66, 64
2, 4080, Note_on_c, 0, 74, 64
2, 4320, Note_on_c, 0, 74, 0
2, 4320, Note_on_c, 0, 66, 0
2, 4320, Note_on_c, 0, 67, 64
2, 4320, Note_on_c, 0, 74, 64
2, 4440, Note_on_c, 0, 74, 0
2, 4440, Note_on_c, 0, 73, 64
2, 4560, Note_on_c, 0, 73, 0
2, 4560, Note_on_c, 0, 67, 0
2, 4560, Note_on_c, 0, 79, 64
2, 4686, Note_on_c, 0, 79, 0
2, 4740, Note_on_c, 0, 70, 64
2, 4800, Note_on_c, 0, 70, 0
2, 4800, Note_on_c, 0, 69, 64
2, 4926, Note_on_c, 0, 69, 0
2, 4980, Note_on_c, 0, 67, 64
2, 5040, Note_on_c, 0, 67, 0
2, 5040, Note_on_c, 0, 66, 64
2, 5240, Note_on_c, 0, 85, 40
2, 5250, Note_on_c, 0, 66, 0
2, 5279, Note_on_c, 0, 85, 0
2, 5280, Note_on_c, 0, 86, 40
2, 5505, Note_on_c, 0, 86, 0
2, 5880, Note_on_c, 0, 70, 64
2, 5940, Note_on_c, 0, 70, 0
2, 6000, Note_on_c, 0, 69, 64
2, 6120, Note_on_c, 0, 69, 0
2, 6120, Note_on_c, 0, 70, 64
2, 6204, Note_on_c, 0, 70, 0
2, 6240, Note_on_c, 0, 77, 64
2, 6360, Note_on_c, 0, 77, 0
2, 6360, Note_on_c, 0, 74, 64
2, 6480, Note_on_c, 0, 74, 0
2, 6480, Note_on_c, 0, 71, 64
2, 6600, Note_on_c, 0, 71, 0
2, 6600, Note_on_c, 0, 72, 64
2, 6720, Note_on_c, 0, 72, 0
2, 6720, Note_on_c, 0, 60, 64
2, 6960, Note_on_c, 0, 60, 0
2, 7440, Note_on_c, 0, 82, 64
2, 7440, Note_on_c, 0, 86, 64
2, 7500, Note_on_c, 0, 86, 0
2, 7500, Note_on_c, 0, 82, 0
2, 7500, Note_on_c, 0, 81, 64
2, 7500, Note_on_c, 0, 84, 64
2, 7524, Note_on_c, 0, 84, 0
2, 7524, Note_on_c, 0, 81, 0
2, 7560, Note_on_c, 0, 79, 64
2, 7560, Note_on_c, 0, 82, 64
2, 7584, Note_on_c, 0, 82, 0
2, 7584, Note_on_c, 0, 79, 0
2, 7620, Note_on_c, 0, 77, 64
2, 7620, Note_on_c, 0, 81, 64
2, 7644, Note_on_c, 0, 81, 0
2, 7644, Note_on_c, 0, 77, 0
2, 7680, Note_on_c, 0, 75, 64
2, 7680, Note_on_c, 0, 79, 64
2, 7740, Note_on_c, 0, 79, 0
2, 7740, Note_on_c, 0, 75, 0
2, 7740, Note_on_c, 0, 74, 64
2, 7740, Note_on_c, 0, 77, 64
2, 7770, Note_on_c, 0, 77, 0
2, 7770, Note_on_c, 0, 74, 0
2, 7800, Note_on_c, 0, 72, 64
2, 7800, Note_on_c, 0, 75, 64
2, 7860, Note_on_c, 0, 75, 0
2, 7860, Note_on_c, 0, 72, 0
2, 7860, Note_on_c, 0, 70, 64
2, 7860, Note_on_c, 0, 74, 64
2, 7920, Note_on_c, 0, 74, 0
2, 7920, Note_on_c, 0, 70, 0
2, 7920, Note_on_c, 0, 72, 64
2, 7920, Note_on_c, 0, 75, 64
2, 8160, Note_on_c, 0, 75, 0
2, 8160, Note_on_c, 0, 72, 0
2, 8160, Note_on_c, 0, 70, 64
2, 8160, Note_on_c, 0, 74, 64
2, 8400, Note_on_c, 0, 74, 0
2, 8400, Note_on_c, 0, 70, 0
2, 8640, Note_on_c, 0, 70, 64
2, 8700, Note_on_c, 0, 70, 0
2, 8700, Note_on_c, 0, 72, 64
2, 8730, Note_on_c, 0, 72, 0
2, 8730, Note_on_c, 0, 70, 64
2, 8760, Note_on_c, 0, 70, 0
2, 8760, Note_on_c, 0, 69, 64
2, 8790, Note_on_c, 0, 69, 0
2, 8790, Note_on_c, 0, 70, 64
2, 8820, Note_on_c, 0, 70, 0
2, 8820, Note_on_c, 0, 72, 64
2, 8850, Note_on_c, 0, 72, 0
2, 8850, Note_on_c, 0, 74, 64
2, 8880, Note_on_c, 0, 74, 0
2, 8880, Note_on_c, 0, 75, 64
2, 9000, Note_on_c, 0, 75, 0
2, 9000, Note_on_c, 0, 74, 64
2, 9060, Note_on_c, 0, 74, 0
2, 9120, Note_on_c, 0, 82, 64
2, 9300, Note_on_c, 0, 82, 0
2, 9300, Note_on_c, 0, 70, 48
2, 9300, Note_on_c, 0, 76, 48
2, 9360, Note_on_c, 0, 76, 0
2, 9360, Note_on_c, 0, 70, 0
2, 9360, Note_on_c, 0, 70, 48
2, 9360, Note_on_c, 0, 79, 48
2, 9600, Note_on_c, 0, 79, 0
2, 9600, Note_on_c, 0, 70, 0
2, 9600, Note_on_c, 0, 69, 48
2, 9600, Note_on_c, 0, 77, 48
2, 9840, Note_on_c, 0, 77, 0
2, 9840, Note_on_c, 0, 69, 0
2, 10080, Note_on_c, 0, 75, 64
2, 10110, Note_on_c, 0, 75, 0
2, 10110, Note_on_c, 0, 77, 64
2, 10140, Note_on_c, 0, 77, 0
2, 10140, Note_on_c, 0, 75, 64
2, 10170, Note_on_c, 0, 75, 0
2, 10170, Note_on_c, 0, 77, 64
2, 10200, Note_on_c, 0, 77, 0
2, 10200, Note_on_c, 0, 75, 64
2, 10220, Note_on_c, 0, 75, 0
2, 10220, Note_on_c, 0, 77, 64
2, 10240, Note_on_c, 0, 77, 0
2, 10240, Note_on_c, 0, 75, 64
2, 10260, Note_on_c, 0, 75, 0
2, 10260, Note_on_c, 0, 74, 64
2, 10290, Note_on_c, 0, 74, 0
2, 10290, Note_on_c, 0, 72, 64
2, 10320, Note_on_c, 0, 72, 0
2, 10320, Note_on_c, 0, 72, 64
2, 10560, Note_on_c, 0, 72, 0
2, 10560, Note_on_c, 0, 74, 64
2, 10800, Note_on_c, 0, 74, 0
2, 10800, Note_on_c, 0, 72, 64
2, 10830, Note_on_c, 0, 72, 0
2, 10830, Note_on_c, 0, 74, 64
2, 10860, Note_on_c, 0, 74, 0
2, 10860, Note_on_c, 0, 72, 64
2, 10890, Note_on_c, 0, 72, 0
2, 10890, Note_on_c, 0, 74, 64
2, 10920, Note_on_c, 0, 74, 0
2, 10920, Note_on_c, 0, 72, 64
2, 10940, Note_on_c, 0, 72, 0
2, 10940, Note_on_c, 0, 74, 64
2, 10960, Note_on_c, 0, 74, 0
2, 10960, Note_on_c, 0, 72, 64
2, 10980, Note_on_c, 0, 72, 0
2, 10980, Note_on_c, 0, 70, 64
2, 11010, Note_on_c, 0, 70, 0
2, 11010, Note_on_c, 0, 69, 64
2, 11040, Note_on_c, 0, 69, 0
2, 11040, Note_on_c, 0, 69, 64
2, 11280, Note_on_c, 0, 69, 0
2, 11280, Note_on_c, 0, 70, 64
2, 11520, Note_on_c, 0, 70, 0
2, 11520, Note_on_c, 0, 79, 64
2, 11580, Note_on_c, 0, 79, 0
2, 11580, Note_on_c, 0, 82, 64
2, 11610, Note_on_c, 0, 82, 0
2, 11640, Note_on_c, 0, 75, 64
2, 11700, Note_on_c, 0, 75, 0
2, 11700, Note_on_c, 0, 79, 64
2, 11730, Note_on_c, 0, 79, 0
2, 11760, Note_on_c, 0, 74, 64
2, 11820, Note_on_c, 0, 74, 0
2, 11820, Note_on_c, 0, 77, 64
2, 11850, Note_on_c, 0, 77, 0
2, 11880, Note_on_c, 0, 70, 64
2, 11940, Note_on_c, 0, 70, 0
2, 11940, Note_on_c, 0, 74, 64
2, 12000, Note_on_c, 0, 74, 0
2, 12000, Note_on_c, 0, 69, 64
2, 12060, Note_on_c, 0, 69, 0
2, 12060, Note_on_c, 0, 72, 64
2, 12120, Note_on_c, 0, 72, 0
2, 12120, Note_on_c, 0, 60, 64
2, 12180, Note_on_c, 0, 60, 0
2, 12180, Note_on_c, 0, 63, 64
2, 12210, Note_on_c, 0, 63, 0
2, 12210, Note_on_c, 0, 62, 64
2, 12225, Note_on_c, 0, 62, 0
2, 12225, Note_on_c, 0, 65, 64
2, 12240, Note_on_c, 0, 65, 0
2, 12240, Note_on_c, 0, 63, 64
2, 12480, Note_on_c, 0, 63, 0
2, 12480, Note_on_c, 0, 62, 64
2, 12720, Note_on_c, 0, 62, 0
2, 12960, Note_on_c, 0, 75, 64
2, 12990, Note_on_c, 0, 75, 0
2, 12990, Note_on_c, 0, 77, 64
2, 13020, Note_on_c, 0, 77, 0
2, 13020, Note_on_c, 0, 75, 64
2, 13050, Note_on_c, 0, 75, 0
2, 13050, Note_on_c, 0, 77, 64
2, 13080, Note_on_c, 0, 77, 0
2, 13080, Note_on_c, 0, 75, 64
2, 13100, Note_on_c, 0, 75, 0
2, 13100, Note_on_c, 0, 77, 64
2, 13120, Note_on_c, 0, 77, 0
2, 13120, Note_on_c, 0, 75, 64
2, 13140, Note_on_c, 0, 75, 0
2, 13140, Note_on_c, 0, 74, 64
2, 13170, Note_on_c, 0, 74, 0
2, 13170, Note_on_c, 0, 72, 64
2, 13200, Note_on_c, 0, 72, 0
2, 13200, Note_on_c, 0, 72, 64
2, 13440, Note_on_c, 0, 72, 0
2, 13440, Note_on_c, 0, 74, 64
2, 13680, Note_on_c, 0, 74, 0
2, 13680, Note_on_c, 0, 72, 64
2, 13710, Note_on_c, 0, 72, 0
2, 13710, Note_on_c, 0, 74, 64
2, 13740, Note_on_c, 0, 74, 0
2, 13740, Note_on_c, 0, 72, 64
2, 13770, Note_on_c, 0, 72, 0
2, 13770, Note_on_c, 0, 74, 64
2, 13800, Note_on_c, 0, 74, 0
2, 13800, Note_on_c, 0, 72, 64
2, 13820, Note_on_c, 0, 72, 0
2, 13820, Note_on_c, 0, 74, 64
2, 13840, Note_on_c, 0, 74, 0
2, 13840, Note_on_c, 0, 72, 64
2, 13860, Note_on_c, 0, 72, 0
2, 13860, Note_on_c, 0, 70, 64
2, 13890, Note_on_c, 0, 70, 0
2, 13890, Note_on_c, 0, 69, 64
2, 13920, Note_on_c, 0, 69, 0
2, 13920, Note_on_c, 0, 69, 64
2, 14160, Note_on_c, 0, 69, 0
2, 14160, Note_on_c, 0, 70, 64
2, 14400, Note_on_c, 0, 70, 0
2, 14400, Note_on_c, 0, 79, 64
2, 14460, Note_on_c, 0, 79, 0
2, 14460, Note_on_c, 0, 75, 64
2, 14496, Note_on_c, 0, 75, 0
2, 14520, Note_on_c, 0, 72, 64
2, 14556, Note_on_c, 0, 72, 0
2, 14580, Note_on_c, 0, 67, 64
2, 14640, Note_on_c, 0, 67, 0
2, 14640, Note_on_c, 0, 70, 64
2, 14880, Note_on_c, 0, 70, 0
2, 14880, Note_on_c, 0, 69, 64
2, 14910, Note_on_c, 0, 69, 0
2, 14910, Note_on_c, 0, 70, 64
2, 14940, Note_on_c, 0, 70, 0
2, 14940, Note_on_c, 0, 69, 64
2, 14970, Note_on_c, 0, 69, 0
2, 14970, Note_on_c, 0, 70, 64
2, 15000, Note_on_c, 0, 70, 0
2, 15000, Note_on_c, 0, 69, 64
2, 15020, Note_on_c, 0, 69, 0
2, 15020, Note_on_c, 0, 70, 64
2, 15040, Note_on_c, 0, 70, 0
2, 15040, Note_on_c, 0, 69, 64
2, 15060, Note_on_c, 0, 69, 0
2, 15060, Note_on_c, 0, 67, 64
2, 15090, Note_on_c, 0, 67, 0
2, 15090, Note_on_c, 0, 69, 64
2, 15120, Note_on_c, 0, 69, 0
2, 15120, Note_on_c, 0, 82, 80
2, 15156, Note_on_c, 0, 82, 0
2, 15180, Note_on_c, 0, 81, 80
2, 15216, Note_on_c, 0, 81, 0
2, 15240, Note_on_c, 0, 84, 80
2, 15300, Note_on_c, 0, 84, 0
2, 15300, Note_on_c, 0, 82, 80
2, 15360, Note_on_c, 0, 82, 0
2, 15360, Note_on_c, 0, 80, 80
2, 15396, Note_on_c, 0, 80, 0
2, 15420, Note_on_c, 0, 79, 80
2, 15456, Note_on_c, 0, 79, 0
2, 15480, Note_on_c, 0, 82, 80
2, 15540, Note_on_c, 0, 82, 0
2, 15540, Note_on_c, 0, 80, 80
2, 15600, Note_on_c, 0, 80, 0
2, 15600, Note_on_c, 0, 79, 80
2, 15636, Note_on_c, 0, 79, 0
2, 15660, Note_on_c, 0, 78, 80
2, 15696, Note_on_c, 0, 78, 0
2, 15720, Note_on_c, 0, 81, 80
2, 15780, Note_on_c, 0, 81, 0
2, 15780, Note_on_c, 0, 79, 80
2, 15840, Note_on_c, 0, 79, 0
2, 15840, Note_on_c, 0, 82, 80
2, 15900, Note_on_c, 0, 82, 0
2, 15900, Note_on_c, 0, 75, 79
2, 15900, Note_on_c, 0, 79, 79
2, 15936, Note_on_c, 0, 79, 0
2, 15936, Note_on_c, 0, 75, 0
2, 15960, Note_on_c, 0, 74, 77
2, 15960, Note_on_c, 0, 77, 77
2, 15996, Note_on_c, 0, 77, 0
2, 15996, Note_on_c, 0, 74, 0
2, 16020, Note_on_c, 0, 72, 76
2, 16020, Note_on_c, 0, 75, 76
2, 16080, Note_on_c, 0, 75, 0
2, 16080, Note_on_c, 0, 72, 0
2, 16080, Note_on_c, 0, 70, 75
2, 16080, Note_on_c, 0, 74, 75
2, 16320, Note_on_c, 0, 74, 0
2, 16320, Note_on_c, 0, 70, 0
2, 16320, Note_on_c, 0, 69, 69
2, 16320, Note_on_c, 0, 72, 69
2, 16380, Note_on_c, 0, 72, 0
2, 16380, Note_on_c, 0, 74, 68
2, 16410, Note_on_c, 0, 74, 0
2, 16410, Note_on_c, 0, 72, 67
2, 16440, Note_on_c, 0, 72, 0
2, 16440, Note_on_c, 0, 70, 67
2, 16500, Note_on_c, 0, 70, 0
2, 16500, Note_on_c, 0, 72, 65
2, 16560, Note_on_c, 0, 72, 0
2, 16560, Note_on_c, 0, 69, 0
2, 16560, Note_on_c, 0, 70, 64
2, 16680, Note_on_c, 0, 70, 0
2, 16680, Note_on_c, 0, 65, 64
2, 16710, Note_on_c, 0, 65, 0
2, 16740, Note_on_c, 0, 62, 64
2, 16782, Note_on_c, 0, 62, 0
2, 16800, Note_on_c, 0, 60, 64
2, 17040, Note_on_c, 0, 60, 0
2, 17040, Note_on_c, 0, 58, 48
2, 17208, Note_on_c, 0, 58, 0
2, 17400, Note_on_c, 0, 77, 64
2, 17460, Note_on_c, 0, 77, 0
2, 17520, Note_on_c, 0, 79, 64
2, 17640, Note_on_c, 0, 79, 0
2, 17640, Note_on_c, 0, 77, 64
2, 17724, Note_on_c, 0, 77, 0
2, 17760, Note_on_c, 0, 82, 64
2, 17880, Note_on_c, 0, 82, 0
2, 17880, Note_on_c, 0, 77, 64
2, 18000, Note_on_c, 0, 77, 0
2, 18120, Note_on_c, 0, 77, 64
2, 18180, Note_on_c, 0, 77, 0
2, 18240, Note_on_c, 0, 79, 64
2, 18360, Note_on_c, 0, 79, 0
2, 18360, Note_on_c, 0, 77, 64
2, 18444, Note_on_c, 0, 77, 0
2, 18480, Note_on_c, 0, 84, 64
2, 18600, Note_on_c, 0, 84, 0
2, 18600, Note_on_c, 0, 75, 64
2, 18720, Note_on_c, 0, 75, 0
2, 18720, Note_on_c, 0, 72, 64
2, 18720, Note_on_c, 0, 75, 64
2, 18960, Note_on_c, 0, 75, 0
2, 18960, Note_on_c, 0, 72, 0
2, 19080, Note_on_c, 0, 72, 64
2, 19080, Note_on_c, 0, 75, 64
2, 19164, Note_on_c, 0, 75, 0
2, 19164, Note_on_c, 0, 72, 0
2, 19200, Note_on_c, 0, 70, 64
2, 19200, Note_on_c, 0, 74, 64
2, 19320, Note_on_c, 0, 74, 0
2, 19320, Note_on_c, 0, 70, 0
2, 19320, Note_on_c, 0, 82, 64
2, 19320, Note_on_c, 0, 74, 64
2, 19440, Note_on_c, 0, 74, 0
2, 19440, Note_on_c, 0, 82, 0
2, 19560, Note_on_c, 0, 70, 64
2, 19560, Note_on_c, 0, 74, 64
2, 19680, Note_on_c, 0, 74, 0
2, 19680, Note_on_c, 0, 70, 0
2, 19680, Note_on_c, 0, 69, 64
2, 19680, Note_on_c, 0, 72, 64
2, 19800, Note_on_c, 0, 72, 0
2, 19800, Note_on_c, 0, 69, 0
2, 20040, Note_on_c, 0, 72, 64
2, 20040, Note_on_c, 0, 81, 64
2, 20124, Note_on_c, 0, 81, 0
2, 20124, Note_on_c, 0, 72, 0
2, 20160, Note_on_c, 0, 69, 64
2, 20160, Note_on_c, 0, 72, 64
2, 20400, Note_on_c, 0, 72, 0
2, 20400, Note_on_c, 0, 69, 0
2, 20520, Note_on_c, 0, 69, 64
2, 20520, Note_on_c, 0, 72, 64
2, 20604, Note_on_c, 0, 72, 0
2, 20604, Note_on_c, 0, 69, 0
2, 20640, Note_on_c, 0, 67, 64
2, 20640, Note_on_c, 0, 70, 64
2, 20760, Note_on_c, 0, 70, 0
2, 20760, Note_on_c, 0, 67, 0
2, 20760, Note_on_c, 0, 79, 64
2, 20760, Note_on_c, 0, 70, 64
2, 20880, Note_on_c, 0, 70, 0
2, 20880, Note_on_c, 0, 79, 0
2, 21000, Note_on_c, 0, 67, 64
2, 21000, Note_on_c, 0, 70, 64
2, 21120, Note_on_c, 0, 70, 0
2, 21120, Note_on_c, 0, 67, 0
2, 21120, Note_on_c, 0, 66, 64
2, 21120, Note_on_c, 0, 69, 64
2, 21240, Note_on_c, 0, 69, 0
2, 21240, Note_on_c, 0, 66, 0
2, 21480, Note_on_c, 0, 75, 64
2, 21480, Note_on_c, 0, 66, 64
2, 21564, Note_on_c, 0, 66, 0
2, 21564, Note_on_c, 0, 75, 0
2, 21600, Note_on_c, 0, 67, 64
2, 21600, Note_on_c, 0, 74, 64
2, 21840, Note_on_c, 0, 74, 0
2, 21840, Note_on_c, 0, 67, 0
2, 22020, Note_on_c, 0, 67, 64
2, 22080, Note_on_c, 0, 67, 0
2, 22080, Note_on_c, 0, 72, 64
2, 22110, Note_on_c, 0, 72, 0
2, 22110, Note_on_c, 0, 74, 64
2, 22140, Note_on_c, 0, 74, 0
2, 22140, Note_on_c, 0, 72, 64
2, 22170, Note_on_c, 0, 72, 0
2, 22170, Note_on_c, 0, 74, 64
2, 22200, Note_on_c, 0, 74, 0
2, 22200, Note_on_c, 0, 72, 64
2, 22220, Note_on_c, 0, 72, 0
2, 22220, Note_on_c, 0, 74, 64
2, 22240, Note_on_c, 0, 74, 0
2, 22240, Note_on_c, 0, 72, 64
2, 22260, Note_on_c, 0, 72, 0
2, 22260, Note_on_c, 0, 70, 64
2, 22290, Note_on_c, 0, 70, 0
2, 22290, Note_on_c, 0, 69, 64
2, 22320, Note_on_c, 0, 69, 0
2, 22320, Note_on_c, 0, 70, 64
2, 22380, Note_on_c, 0, 70, 0
2, 22380, Note_on_c, 0, 67, 64
2, 22416, Note_on_c, 0, 67, 0
2, 22440, Note_on_c, 0, 66, 64
2, 22476, Note_on_c, 0, 66, 0
2, 22500, Note_on_c, 0, 67, 64
2, 22560, Note_on_c, 0, 67, 0
2, 22560, Note_on_c, 0, 55, 64
2, 22800, Note_on_c, 0, 55, 0
2, 22920, Note_on_c, 0, 80, 64
2, 22920, Note_on_c, 0, 71, 64
2, 23004, Note_on_c, 0, 71, 0
2, 23004, Note_on_c, 0, 80, 0
2, 23040, Note_on_c, 0, 72, 64
2, 23040, Note_on_c, 0, 79, 64
2, 23280, Note_on_c, 0, 79, 0
2, 23280, Note_on_c, 0, 72, 0
2, 23460, Note_on_c, 0, 72, 64
2, 23520, Note_on_c, 0, 72, 0
2, 23520, Note_on_c, 0, 77, 64
2, 23550, Note_on_c, 0, 77, 0
2, 23550, Note_on_c, 0, 79, 64
2, 23580, Note_on_c, 0, 79, 0
2, 23580, Note_on_c, 0, 77, 64
2, 23610, Note_on_c, 0, 77, 0
2, 23610, Note_on_c, 0, 79, 64
2, 23640, Note_on_c, 0, 79, 0
2, 23640, Note_on_c, 0, 77, 64
2, 23660, Note_on_c, 0, 77, 0
2, 23660, Note_on_c, 0, 79, 64
2, 23680, Note_on_c, 0, 79, 0
2, 23680, Note_on_c, 0, 77, 64
2, 23700, Note_on_c, 0, 77, 0
2, 23700, Note_on_c, 0, 75, 64
2, 23730, Note_on_c, 0, 75, 0
2, 23730, Note_on_c, 0, 74, 64
2, 23760, Note_on_c, 0, 74, 0
2, 23760, Note_on_c, 0, 74, 64
2, 23790, Note_on_c, 0, 74, 0
2, 23790, Note_on_c, 0, 77, 64
2, 23820, Note_on_c, 0, 77, 0
2, 23820, Note_on_c, 0, 75, 64
2, 23964, Note_on_c, 0, 75, 0
2, 24000, Note_on_c, 0, 74, 64
2, 24240, Note_on_c, 0, 74, 0
2, 24480, Note_on_c, 0, 62, 64
2, 24480, Note_on_c, 0, 72, 64
2, 24720, Note_on_c, 0, 72, 0
2, 24720, Note_on_c, 0, 62, 0
2, 24720, Note_on_c, 0, 71, 64
2, 25020, Note_on_c, 0, 71, 0
2, 25020, Note_on_c, 0, 67, 64
2, 25080, Note_on_c, 0, 67, 0
2, 25080, Note_on_c, 0, 71, 64
2, 25116, Note_on_c, 0, 71, 0
2, 25140, Note_on_c, 0, 74, 64
2, 25176, Note_on_c, 0, 74, 0
2, 25200, Note_on_c, 0, 72, 48
2, 25200, Note_on_c, 0, 62, 48
2, 25440, Note_on_c, 0, 62, 0
2, 25440, Note_on_c, 0, 72, 0
2, 25440, Note_on_c, 0, 71, 53
2, 25740, Note_on_c, 0, 71, 0
2, 25740, Note_on_c, 0, 67, 60
2, 25800, Note_on_c, 0, 67, 0
2, 25800, Note_on_c, 0, 71, 61
2, 25836, Note_on_c, 0, 71, 0
2, 25860, Note_on_c, 0, 74, 63
2, 25896, Note_on_c, 0, 74, 0
2, 25920, Note_on_c, 0, 72, 64
2, 25980, Note_on_c, 0, 72, 0
2, 25980, Note_on_c, 0, 67, 65
2, 26040, Note_on_c, 0, 67, 0
2, 26040, Note_on_c, 0, 72, 67
2, 26100, Note_on_c, 0, 72, 0
2, 26100, Note_on_c, 0, 75, 68
2, 26160, Note_on_c, 0, 75, 0
2, 26160, Note_on_c, 0, 74, 69
2, 26220, Note_on_c, 0, 74, 0
2, 26220, Note_on_c, 0, 67, 71
2, 26280, Note_on_c, 0, 67, 0
2, 26280, Note_on_c, 0, 74, 72
2, 26340, Note_on_c, 0, 74, 0
2, 26340, Note_on_c, 0, 77, 73
2, 26400, Note_on_c, 0, 77, 0
2, 26400, Note_on_c, 0, 75, 75
2, 26460, Note_on_c, 0, 75, 0
2, 26460, Note_on_c, 0, 72, 76
2, 26520, Note_on_c, 0, 72, 0
2, 26520, Note_on_c, 0, 79, 77
2, 26580, Note_on_c, 0, 79, 0
2, 26580, Note_on_c, 0, 75, 79
2, 26640, Note_on_c, 0, 75, 0
2, 26640, Note_on_c, 0, 82, 80
2, 26700, Note_on_c, 0, 82, 0
2, 26700, Note_on_c, 0, 80, 80
2, 26730, Note_on_c, 0, 80, 0
2, 26760, Note_on_c, 0, 79, 80
2, 26790, Note_on_c, 0, 79, 0
2, 26820, Note_on_c, 0, 77, 80
2, 26850, Note_on_c, 0, 77, 0
2, 26880, Note_on_c, 0, 75, 80
2, 26952, Note_on_c, 0, 75, 0
2, 27000, Note_on_c, 0, 67, 72
2, 27000, Note_on_c, 0, 75, 72
2, 27240, Note_on_c, 0, 75, 0
2, 27240, Note_on_c, 0, 67, 0
2, 27240, Note_on_c, 0, 65, 64
2, 27240, Note_on_c, 0, 74, 64
2, 27360, Note_on_c, 0, 74, 0
2, 27360, Note_on_c, 0, 65, 0
2, 27360, Note_on_c, 0, 73, 56
2, 27420, Note_on_c, 0, 73, 0
2, 27420, Note_on_c, 0, 69, 57
2, 27480, Note_on_c, 0, 69, 0
2, 27480, Note_on_c, 0, 73, 57
2, 27540, Note_on_c, 0, 73, 0
2, 27540, Note_on_c, 0, 76, 58
2, 27600, Note_on_c, 0, 76, 0
2, 27600, Note_on_c, 0, 74, 59
2, 27660, Note_on_c, 0, 74, 0
2, 27660, Note_on_c, 0, 69, 59
2, 27720, Note_on_c, 0, 69, 0
2, 27720, Note_on_c, 0, 74, 60
2, 27780, Note_on_c, 0, 74, 0
2, 27780, Note_on_c, 0, 77, 61
2, 27840, Note_on_c, 0, 77, 0
2, 27840, Note_on_c, 0, 76, 61
2, 27900, Note_on_c, 0, 76, 0
2, 27900, Note_on_c, 0, 73, 62
2, 27960, Note_on_c, 0, 73, 0
2, 27960, Note_on_c, 0, 69, 63
2, 28020, Note_on_c, 0, 69, 0
2, 28020, Note_on_c, 0, 67, 63
2, 28080, Note_on_c, 0, 67, 0
2, 28080, Note_on_c, 0, 65, 64
2, 28140, Note_on_c, 0, 65, 0
2, 28140, Note_on_c, 0, 62, 65
2, 28200, Note_on_c, 0, 62, 0
2, 28200, Note_on_c, 0, 64, 65
2, 28260, Note_on_c, 0, 64, 0
2, 28260, Note_on_c, 0, 62, 66
2, 28320, Note_on_c, 0, 62, 0
2, 28320, Note_on_c, 0, 65, 67
2, 28380, Note_on_c, 0, 65, 0
2, 28380, Note_on_c, 0, 62, 67
2, 28440, Note_on_c, 0, 62, 0
2, 28440, Note_on_c, 0, 66, 68
2, 28500, Note_on_c, 0, 66, 0
2, 28500, Note_on_c, 0, 62, 69
2, 28560, Note_on_c, 0, 62, 0
2, 28560, Note_on_c, 0, 67, 69
2, 28620, Note_on_c, 0, 67, 0
2, 28620, Note_on_c, 0, 62, 70
2, 28680, Note_on_c, 0, 62, 0
2, 28680, Note_on_c, 0, 69, 71
2, 28740, Note_on_c, 0, 69, 0
2, 28740, Note_on_c, 0, 62, 71
2, 28800, Note_on_c, 0, 62, 0
2, 28800, Note_on_c, 0, 70, 72
2, 28860, Note_on_c, 0, 70, 0
2, 28860, Note_on_c, 0, 67, 73
2, 28920, Note_on_c, 0, 67, 0
2, 28920, Note_on_c, 0, 69, 73
2, 28980, Note_on_c, 0, 69, 0
2, 28980, Note_on_c, 0, 67, 74
2, 29040, Note_on_c, 0, 67, 0
2, 29040, Note_on_c, 0, 70, 75
2, 29100, Note_on_c, 0, 70, 0
2, 29100, Note_on_c, 0, 67, 75
2, 29160, Note_on_c, 0, 67, 0
2, 29160, Note_on_c, 0, 69, 76
2, 29220, Note_on_c, 0, 69, 0
2, 29220, Note_on_c, 0, 67, 77
2, 29280, Note_on_c, 0, 67, 0
2, 29280, Note_on_c, 0, 79, 77
2, 29388, Note_on_c, 0, 79, 0
2, 29460, Note_on_c, 0, 67, 56
2, 29460, Note_on_c, 0, 73, 56
2, 29520, Note_on_c, 0, 73, 0
2, 29520, Note_on_c, 0, 67, 0
2, 29520, Note_on_c, 0, 67, 56
2, 29520, Note_on_c, 0, 73, 56
2, 29760, Note_on_c, 0, 73, 0
2, 29760, Note_on_c, 0, 67, 0
2, 29760, Note_on_c, 0, 66, 40
2, 29760, Note_on_c, 0, 74, 40
2, 30000, Note_on_c, 0, 74, 0
2, 30000, Note_on_c, 0, 66, 0
2, 30240, Note_on_c, 0, 72, 64
2, 30270, Note_on_c, 0, 72, 0
2, 30270, Note_on_c, 0, 74, 64
2, 30300, Note_on_c, 0, 74, 0
2, 30300, Note_on_c, 0, 72, 64
2, 30330, Note_on_c, 0, 72, 0
2, 30330, Note_on_c, 0, 74, 64
2, 30360, Note_on_c, 0, 74, 0
2, 30360, Note_on_c, 0, 72, 64
2, 30380, Note_on_c, 0, 72, 0
2, 30380, Note_on_c, 0, 74, 64
2, 30400, Note_on_c, 0, 74, 0
2, 30400, Note_on_c, 0, 72, 64
2, 30420, Note_on_c, 0, 72, 0
2, 30420, Note_on_c, 0, 70, 64
2, 30450, Note_on_c, 0, 70, 0
2, 30450, Note_on_c, 0, 69, 64
2, 30480, Note_on_c, 0, 69, 0
2, 30480, Note_on_c, 0, 69, 64
2, 30720, Note_on_c, 0, 69, 0
2, 30720, Note_on_c, 0, 70, 64
2, 30960, Note_on_c, 0, 70, 0
2, 30960, Note_on_c, 0, 69, 64
2, 30990, Note_on_c, 0, 69, 0
2, 30990, Note_on_c, 0, 70, 64
2, 31020, Note_on_c, 0, 70, 0
2, 31020, Note_on_c, 0, 69, 64
2, 31050, Note_on_c, 0, 69, 0
2, 31050, Note_on_c, 0, 70, 64
2, 31080, Note_on_c, 0, 70, 0
2, 31080, Note_on_c, 0, 69, 64
2, 31100, Note_on_c, 0, 69, 0
2, 31100, Note_on_c, 0, 70, 64
2, 31120, Note_on_c, 0, 70, 0
2, 31120, Note_on_c, 0, 69, 64
2, 31140, Note_on_c, 0, 69, 0
2, 31140, Note_on_c, 0, 67, 64
2, 31170, Note_on_c, 0, 67, 0
2, 31170, Note_on_c, 0, 66, 64
2, 31200, Note_on_c, 0, 66, 0
2, 31200, Note_on_c, 0, 66, 64
2, 31440, Note_on_c, 0, 66, 0
2, 31440, Note_on_c, 0, 67, 64
2, 31680, Note_on_c, 0, 67, 0
2, 31680, Note_on_c, 0, 75, 64
2, 31740, Note_on_c, 0, 75, 0
2, 31740, Note_on_c, 0, 79, 64
2, 31764, Note_on_c, 0, 79, 0
2, 31800, Note_on_c, 0, 72, 64
2, 31824, Note_on_c, 0, 72, 0
2, 31860, Note_on_c, 0, 75, 64
2, 31884, Note_on_c, 0, 75, 0
2, 31920, Note_on_c, 0, 70, 64
2, 31980, Note_on_c, 0, 70, 0
2, 31980, Note_on_c, 0, 74, 64
2, 32016, Note_on_c, 0, 74, 0
2, 32040, Note_on_c, 0, 67, 64
2, 32076, Note_on_c, 0, 67, 0
2, 32100, Note_on_c, 0, 70, 64
2, 32136, Note_on_c, 0, 70, 0
2, 32160, Note_on_c, 0, 66, 64
2, 32220, Note_on_c, 0, 66, 0
2, 32220, Note_on_c, 0, 69, 64
2, 32280, Note_on_c, 0, 69, 0
2, 32280, Note_on_c, 0, 57, 64
2, 32340, Note_on_c, 0, 57, 0
2, 32340, Note_on_c, 0, 60, 64
2, 32370, Note_on_c, 0, 60, 0
2, 32370, Note_on_c, 0, 58, 64
2, 32385, Note_on_c, 0, 58, 0
2, 32385, Note_on_c, 0, 62, 64
2, 32400, Note_on_c, 0, 62, 0
2, 32400, Note_on_c, 0, 60, 64
2, 32640, Note_on_c, 0, 60, 0
2, 32640, Note_on_c, 0, 58, 64
2, 32880, Note_on_c, 0, 58, 0
2, 33120, Note_on_c, 0, 72, 64
2, 33150, Note_on_c, 0, 72, 0
2, 33150, Note_on_c, 0, 74, 64
2, 33180, Note_on_c, 0, 74, 0
2, 33180, Note_on_c, 0, 72, 64
2, 33210, Note_on_c, 0, 72, 0
2, 33210, Note_on_c, 0, 74, 64
2, 33240, Note_on_c, 0, 74, 0
2, 33240, Note_on_c, 0, 72, 64
2, 33260, Note_on_c, 0, 72, 0
2, 33260, Note_on_c, 0, 74, 64
2, 33280, Note_on_c, 0, 74, 0
2, 33280, Note_on_c, 0, 72, 64
2, 33300, Note_on_c, 0, 72, 0
2, 33300, Note_on_c, 0, 70, 64
2, 33330, Note_on_c, 0, 70, 0
2, 33330, Note_on_c, 0, 69, 64
2, 33360, Note_on_c, 0, 69, 0
2, 33360, Note_on_c, 0, 69, 64
2, 33600, Note_on_c, 0, 69, 0
2, 33600, Note_on_c, 0, 70, 64
2, 33840, Note_on_c, 0, 70, 0
2, 33840, Note_on_c, 0, 69, 48
2, 33870, Note_on_c, 0, 69, 0
2, 33870, Note_on_c, 0, 70, 49
2, 33900, Note_on_c, 0, 70, 0
2, 33900, Note_on_c, 0, 69, 49
2, 33930, Note_on_c, 0, 69, 0
2, 33930, Note_on_c, 0, 70, 50
2, 33960, Note_on_c, 0, 70, 0
2, 33960, Note_on_c, 0, 69, 51
2, 33980, Note_on_c, 0, 69, 0
2, 33980, Note_on_c, 0, 70, 51
2, 34000, Note_on_c, 0, 70, 0
2, 34000, Note_on_c, 0, 69, 52
2, 34020, Note_on_c, 0, 69, 0
2, 34020, Note_on_c, 0, 67, 52
2, 34050, Note_on_c, 0, 67, 0
2, 34050, Note_on_c, 0, 66, 53
2, 34080, Note_on_c, 0, 66, 0
2, 34080, Note_on_c, 0, 66, 53
2, 34320, Note_on_c, 0, 66, 0
2, 34320, Note_on_c, 0, 67, 59
2, 34560, Note_on_c, 0, 67, 0
2, 34560, Note_on_c, 0, 75, 64
2, 34620, Note_on_c, 0, 75, 0
2, 34620, Note_on_c, 0, 72, 65
2, 34656, Note_on_c, 0, 72, 0
2, 34680, Note_on_c, 0, 70, 67
2, 34716, Note_on_c, 0, 70, 0
2, 34740, Note_on_c, 0, 69, 68
2, 34800, Note_on_c, 0, 69, 0
2, 34800, Note_on_c, 0, 67, 69
2, 35040, Note_on_c, 0, 67, 0
2, 35040, Note_on_c, 0, 66, 75
2, 35280, Note_on_c, 0, 66, 0
2, 35280, Note_on_c, 0, 79, 80
2, 35340, Note_on_c, 0, 79, 0
2, 35340, Note_on_c, 0, 67, 80
2, 35376, Note_on_c, 0, 67, 0
2, 35400, Note_on_c, 0, 74, 80
2, 35436, Note_on_c, 0, 74, 0
2, 35460, Note_on_c, 0, 67, 80
2, 35496, Note_on_c, 0, 67, 0
2, 35520, Note_on_c, 0, 79, 80
2, 35580, Note_on_c, 0, 79, 0
2, 35580, Note_on_c, 0, 67, 80
2, 35622, Note_on_c, 0, 67, 0
2, 35640, Note_on_c, 0, 74, 80
2, 35682, Note_on_c, 0, 74, 0
2, 35700, Note_on_c, 0, 67, 80
2, 35742, Note_on_c, 0, 67, 0
2, 35760, Note_on_c, 0, 75, 80
2, 35820, Note_on_c, 0, 75, 0
2, 35820, Note_on_c, 0, 67, 80
2, 35880, Note_on_c, 0, 67, 0
2, 35880, Note_on_c, 0, 72, 80
2, 35940, Note_on_c, 0, 72, 0
2, 35940, Note_on_c, 0, 67, 80
2, 36000, Note_on_c, 0, 67, 0
2, 36000, Note_on_c, 0, 70, 80
2, 36060, Note_on_c, 0, 70, 0
2, 36060, Note_on_c, 0, 67, 80
2, 36120, Note_on_c, 0, 67, 0
2, 36120, Note_on_c, 0, 66, 80
2, 36180, Note_on_c, 0, 66, 0
2, 36180, Note_on_c, 0, 67, 80
2, 36240, Note_on_c, 0, 67, 0
2, 36240, Note_on_c, 0, 62, 80
2, 36300, Note_on_c, 0, 62, 0
2, 36300, Note_on_c, 0, 67, 80
2, 36360, Note_on_c, 0, 67, 0
2, 36360, Note_on_c, 0, 58, 80
2, 36420, Note_on_c, 0, 58, 0
2, 36420, Note_on_c, 0, 62, 80
2, 36480, Note_on_c, 0, 62, 0
2, 36480, Note_on_c, 0, 57, 80
2, 36540, Note_on_c, 0, 57, 0
2, 36540, Note_on_c, 0, 62, 80
2, 36600, Note_on_c, 0, 62, 0
2, 36600, Note_on_c, 0, 67, 80
2, 36636, Note_on_c, 0, 67, 0
2, 36660, Note_on_c, 0, 66, 80
2, 36696, Note_on_c, 0, 66, 0
2, 36720, Note_on_c, 0, 67, 80
2, 36840, Note_on_c, 0, 67, 0
2, 36840, Note_on_c, 0, 62, 80
2, 36870, Note_on_c, 0, 62, 0
2, 36900, Note_on_c, 0, 58, 80
2, 36942, Note_on_c, 0, 58, 0
2, 36960, Note_on_c, 0, 57, 80
2, 37200, Note_on_c, 0, 57, 0
2, 37200, Note_on_c, 0, 55, 80
2, 37440, Note_on_c, 0, 55, 0
2, 37440, End_track
3, 0, Start_track
3, 0, MIDI_port, 0
3, 0, Title_t, "by FJ Haydn (2nd mvmt. - Andante)"
3, 0, Program_c, 1, 0
3, 0, Control_c, 1, 7, 127
3, 0, Control_c, 1, 10, 56
3, 0, Note_on_c, 1, 58, 64
3, 0, Note_on_c, 1, 55, 64
3, 240, Note_on_c, 1, 55, 0
3, 240, Note_on_c, 1, 58, 0
3, 720, Note_on_c, 1, 57, 64
3, 720, Note_on_c, 1, 54, 64
3, 960, Note_on_c, 1, 54, 0
3, 960, Note_on_c, 1, 57, 0
3, 1440, Note_on_c, 1, 58, 64
3, 1440, Note_on_c, 1, 55, 64
3, 1680, Note_on_c, 1, 55, 0
3, 1680, Note_on_c, 1, 58, 0
3, 2280, Note_on_c, 1, 50, 64
3, 2340, Note_on_c, 1, 50, 0
3, 2400, Note_on_c, 1, 51, 64
3, 2520, Note_on_c, 1, 51, 0
3, 2520, Note_on_c, 1, 50, 64
3, 2604, Note_on_c, 1, 50, 0
3, 2640, Note_on_c, 1, 57, 64
3, 2760, Note_on_c, 1, 57, 0
3, 2760, Note_on_c, 1, 48, 64
3, 2880, Note_on_c, 1, 48, 0
3, 2880, Note_on_c, 1, 46, 64
3, 3120, Note_on_c, 1, 46, 0
3, 3120, Note_on_c, 1, 47, 64
3, 3600, Note_on_c, 1, 47, 0
3, 3720, Note_on_c, 1, 48, 64
3, 3780, Note_on_c, 1, 48, 0
3, 3840, Note_on_c, 1, 36, 64
3, 3960, Note_on_c, 1, 36, 0
3, 3960, Note_on_c, 1, 48, 64
3, 4044, Note_on_c, 1, 48, 0
3, 4080, Note_on_c, 1, 50, 64
3, 4200, Note_on_c, 1, 50, 0
3, 4200, Note_on_c, 1, 38, 64
3, 4320, Note_on_c, 1, 38, 0
3, 4320, Note_on_c, 1, 51, 64
3, 4440, Note_on_c, 1, 51, 0
3, 4440, Note_on_c, 1, 39, 64
3, 4560, Note_on_c, 1, 39, 0
3, 4560, Note_on_c, 1, 51, 64
3, 4800, Note_on_c, 1, 61, 64
3, 4800, Note_on_c, 1, 55, 64
3, 5040, Note_on_c, 1, 55, 0
3, 5040, Note_on_c, 1, 61, 0
3, 5040, Note_on_c, 1, 51, 0
3, 5040, Note_on_c, 1, 50, 64
3, 5040, Note_on_c, 1, 57, 64
3, 5040, Note_on_c, 1, 62, 64
3, 5280, Note_on_c, 1, 62, 0
3, 5280, Note_on_c, 1, 57, 0
3, 5280, Note_on_c, 1, 50, 0
3, 5760, Note_on_c, 1, 50, 64
3, 5760, Note_on_c, 1, 53, 64
3, 6000, Note_on_c, 1, 53, 0
3, 6000, Note_on_c, 1, 50, 0
3, 6600, Note_on_c, 1, 51, 64
3, 6660, Note_on_c, 1, 51, 0
3, 6720, Note_on_c, 1, 50, 64
3, 6840, Note_on_c, 1, 50, 0
3, 6840, Note_on_c, 1, 51, 64
3, 6924, Note_on_c, 1, 51, 0
3, 6960, Note_on_c, 1, 60, 64
3, 7080, Note_on_c, 1, 60, 0
3, 7080, Note_on_c, 1, 55, 64
3, 7200, Note_on_c, 1, 55, 0
3, 7200, Note_on_c, 1, 52, 64
3, 7320, Note_on_c, 1, 52, 0
3, 7320, Note_on_c, 1, 53, 64
3, 7440, Note_on_c, 1, 53, 0
3, 7440, Note_on_c, 1, 41, 64
3, 7680, Note_on_c, 1, 41, 0
3, 8100, Note_on_c, 1, 53, 64
3, 8120, Note_on_c, 1, 53, 0
3, 8120, Note_on_c, 1, 55, 64
3, 8140, Note_on_c, 1, 55, 0
3, 8140, Note_on_c, 1, 57, 64
3, 8160, Note_on_c, 1, 57, 0
3, 8160, Note_on_c, 1, 58, 64
3, 8280, Note_on_c, 1, 58, 0
3, 8280, Note_on_c, 1, 55, 64
3, 8352, Note_on_c, 1, 55, 0
3, 8400, Note_on_c, 1, 53, 64
3, 8472, Note_on_c, 1, 53, 0
3, 8520, Note_on_c, 1, 51, 64
3, 8640, Note_on_c, 1, 51, 0
3, 8640, Note_on_c, 1, 50, 64
3, 8820, Note_on_c, 1, 50, 0
3, 8820, Note_on_c, 1, 48, 64
3, 8850, Note_on_c, 1, 48, 0
3, 8850, Note_on_c, 1, 46, 64
3, 8880, Note_on_c, 1, 46, 0
3, 8880, Note_on_c, 1, 45, 64
3, 9000, Note_on_c, 1, 45, 0
3, 9000, Note_on_c, 1, 46, 64
3, 9060, Note_on_c, 1, 46, 0
3, 9120, Note_on_c, 1, 43, 64
3, 9120, Note_on_c, 1, 48, 64
3, 9360, Note_on_c, 1, 48, 0
3, 9360, Note_on_c, 1, 43, 0
3, 9360, Note_on_c, 1, 41, 48
3, 9360, Note_on_c, 1, 48, 48
3, 9840, Note_on_c, 1, 48, 0
3, 9840, Note_on_c, 1, 41, 0
3, 10080, Note_on_c, 1, 65, 64
3, 10080, Note_on_c, 1, 57, 64
3, 10320, Note_on_c, 1, 57, 0
3, 10320, Note_on_c, 1, 65, 0
3, 10560, Note_on_c, 1, 65, 64
3, 10560, Note_on_c, 1, 58, 64
3, 10800, Note_on_c, 1, 58, 0
3, 10800, Note_on_c, 1, 65, 0
3, 10800, Note_on_c, 1, 53, 64
3, 10800, Note_on_c, 1, 63, 64
3, 11040, Note_on_c, 1, 63, 0
3, 11040, Note_on_c, 1, 53, 0
3, 11280, Note_on_c, 1, 62, 64
3, 11280, Note_on_c, 1, 55, 64
3, 11520, Note_on_c, 1, 55, 0
3, 11520, Note_on_c, 1, 62, 0
3, 11520, Note_on_c, 1, 63, 64
3, 11520, Note_on_c, 1, 51, 64
3, 11760, Note_on_c, 1, 51, 0
3, 11760, Note_on_c, 1, 63, 0
3, 11760, Note_on_c, 1, 65, 64
3, 11760, Note_on_c, 1, 53, 64
3, 12000, Note_on_c, 1, 53, 0
3, 12000, Note_on_c, 1, 65, 0
3, 12000, Note_on_c, 1, 53, 64
3, 12000, Note_on_c, 1, 41, 64
3, 12240, Note_on_c, 1, 41, 0
3, 12240, Note_on_c, 1, 53, 0
3, 12420, Note_on_c, 1, 53, 64
3, 12440, Note_on_c, 1, 53, 0
3, 12440, Note_on_c, 1, 55, 64
3, 12460, Note_on_c, 1, 55, 0
3, 12460, Note_on_c, 1, 57, 64
3, 12480, Note_on_c, 1, 57, 0
3, 12480, Note_on_c, 1, 58, 64
3, 12600, Note_on_c, 1, 58, 0
3, 12600, Note_on_c, 1, 53, 64
3, 12660, Note_on_c, 1, 53, 0
3, 12720, Note_on_c, 1, 50, 64
3, 12780, Note_on_c, 1, 50, 0
3, 12840, Note_on_c, 1, 46, 64
3, 12900, Note_on_c, 1, 46, 0
3, 12960, Note_on_c, 1, 57, 64
3, 12960, Note_on_c, 1, 65, 64
3, 13200, Note_on_c, 1, 65, 0
3, 13200, Note_on_c, 1, 57, 0
3, 13440, Note_on_c, 1, 58, 64
3, 13440, Note_on_c, 1, 65, 64
3, 13680, Note_on_c, 1, 65, 0
3, 13680, Note_on_c, 1, 58, 0
3, 13680, Note_on_c, 1, 63, 64
3, 13680, Note_on_c, 1, 53, 64
3, 13920, Note_on_c, 1, 53, 0
3, 13920, Note_on_c, 1, 63, 0
3, 14160, Note_on_c, 1, 55, 64
3, 14160, Note_on_c, 1, 62, 64
3, 14400, Note_on_c, 1, 62, 0
3, 14400, Note_on_c, 1, 55, 0
3, 14400, Note_on_c, 1, 51, 64
3, 14400, Note_on_c, 1, 63, 64
3, 14640, Note_on_c, 1, 63, 0
3, 14640, Note_on_c, 1, 51, 0
3, 14640, Note_on_c, 1, 62, 64
3, 14640, Note_on_c, 1, 53, 64
3, 14880, Note_on_c, 1, 62, 0
3, 14880, Note_on_c, 1, 60, 64
3, 15120, Note_on_c, 1, 60, 0
3, 15120, Note_on_c, 1, 53, 0
3, 15360, Note_on_c, 1, 58, 80
3, 15360, Note_on_c, 1, 50, 80
3, 15600, Note_on_c, 1, 50, 0
3, 15600, Note_on_c, 1, 51, 80
3, 15840, Note_on_c, 1, 51, 0
3, 15840, Note_on_c, 1, 58, 0
3, 16080, Note_on_c, 1, 53, 75
3, 16320, Note_on_c, 1, 53, 0
3, 16320, Note_on_c, 1, 41, 69
3, 16560, Note_on_c, 1, 41, 0
3, 16560, Note_on_c, 1, 46, 64
3, 17040, Note_on_c, 1, 46, 0
3, 17280, Note_on_c, 1, 62, 64
3, 17280, Note_on_c, 1, 58, 64
3, 17520, Note_on_c, 1, 58, 0
3, 17520, Note_on_c, 1, 62, 0
3, 18000, Note_on_c, 1, 60, 64
3, 18000, Note_on_c, 1, 57, 64
3, 18240, Note_on_c, 1, 57, 0
3, 18240, Note_on_c, 1, 60, 0
3, 18840, Note_on_c, 1, 57, 64
3, 18900, Note_on_c, 1, 57, 0
3, 18960, Note_on_c, 1, 58, 64
3, 19080, Note_on_c, 1, 58, 0
3, 19080, Note_on_c, 1, 57, 64
3, 19164, Note_on_c, 1, 57, 0
3, 19200, Note_on_c, 1, 58, 64
3, 19320, Note_on_c, 1, 58, 0
3, 19320, Note_on_c, 1, 52, 64
3, 19440, Note_on_c, 1, 52, 0
3, 19440, Note_on_c, 1, 53, 64
3, 19560, Note_on_c, 1, 53, 0
3, 19560, Note_on_c, 1, 41, 64
3, 19680, Note_on_c, 1, 41, 0
3, 19800, Note_on_c, 1, 41, 64
3, 19860, Note_on_c, 1, 41, 0
3, 19920, Note_on_c, 1, 53, 64
3, 20040, Note_on_c, 1, 53, 0
3, 20040, Note_on_c, 1, 54, 64
3, 20124, Note_on_c, 1, 54, 0
3, 20280, Note_on_c, 1, 54, 64
3, 20340, Note_on_c, 1, 54, 0
3, 20400, Note_on_c, 1, 55, 64
3, 20520, Note_on_c, 1, 55, 0
3, 20520, Note_on_c, 1, 54, 64
3, 20604, Note_on_c, 1, 54, 0
3, 20640, Note_on_c, 1, 55, 64
3, 20760, Note_on_c, 1, 55, 0
3, 20760, Note_on_c, 1, 49, 64
3, 20880, Note_on_c, 1, 49, 0
3, 20880, Note_on_c, 1, 50, 64
3, 21000, Note_on_c, 1, 50, 0
3, 21000, Note_on_c, 1, 38, 64
3, 21120, Note_on_c, 1, 38, 0
3, 21240, Note_on_c, 1, 38, 64
3, 21300, Note_on_c, 1, 38, 0
3, 21360, Note_on_c, 1, 50, 64
3, 21480, Note_on_c, 1, 50, 0
3, 21480, Note_on_c, 1, 48, 64
3, 21564, Note_on_c, 1, 48, 0
3, 21600, Note_on_c, 1, 46, 64
3, 21720, Note_on_c, 1, 50, 64
3, 21840, Note_on_c, 1, 50, 0
3, 21840, Note_on_c, 1, 55, 64
3, 21960, Note_on_c, 1, 46, 0
3, 21960, Note_on_c, 1, 46, 64
3, 22080, Note_on_c, 1, 46, 0
3, 22080, Note_on_c, 1, 45, 64
3, 22200, Note_on_c, 1, 45, 0
3, 22200, Note_on_c, 1, 55, 0
3, 22200, Note_on_c, 1, 54, 64
3, 22200, Note_on_c, 1, 50, 64
3, 22320, Note_on_c, 1, 50, 0
3, 22320, Note_on_c, 1, 54, 0
3, 22320, Note_on_c, 1, 43, 64
3, 22320, Note_on_c, 1, 55, 64
3, 22560, Note_on_c, 1, 55, 0
3, 22560, Note_on_c, 1, 43, 0
3, 22680, Note_on_c, 1, 43, 64
3, 22740, Note_on_c, 1, 43, 0
3, 22800, Note_on_c, 1, 55, 64
3, 22920, Note_on_c, 1, 55, 0
3, 22920, Note_on_c, 1, 53, 64
3, 23004, Note_on_c, 1, 53, 0
3, 23040, Note_on_c, 1, 51, 64
3, 23160, Note_on_c, 1, 55, 64
3, 23280, Note_on_c, 1, 55, 0
3, 23280, Note_on_c, 1, 60, 64
3, 23400, Note_on_c, 1, 51, 0
3, 23400, Note_on_c, 1, 51, 64
3, 23520, Note_on_c, 1, 51, 0
3, 23520, Note_on_c, 1, 50, 64
3, 23640, Note_on_c, 1, 50, 0
3, 23640, Note_on_c, 1, 60, 0
3, 23640, Note_on_c, 1, 59, 64
3, 23640, Note_on_c, 1, 55, 64
3, 23760, Note_on_c, 1, 55, 0
3, 23760, Note_on_c, 1, 59, 0
3, 23760, Note_on_c, 1, 48, 64
3, 23760, Note_on_c, 1, 60, 64
3, 23964, Note_on_c, 1, 60, 0
3, 23964, Note_on_c, 1, 48, 0
3, 24000, Note_on_c, 1, 55, 64
3, 24000, Note_on_c, 1, 58, 64
3, 24240, Note_on_c, 1, 58, 0
3, 24240, Note_on_c, 1, 55, 0
3, 24600, Note_on_c, 1, 55, 64
3, 24660, Note_on_c, 1, 55, 0
3, 24720, Note_on_c, 1, 56, 64
3, 24840, Note_on_c, 1, 56, 0
3, 24840, Note_on_c, 1, 55, 64
3, 24924, Note_on_c, 1, 55, 0
3, 24960, Note_on_c, 1, 62, 64
3, 25080, Note_on_c, 1, 62, 0
3, 25080, Note_on_c, 1, 55, 64
3, 25200, Note_on_c, 1, 55, 0
3, 25320, Note_on_c, 1, 53, 51
3, 25380, Note_on_c, 1, 53, 0
3, 25440, Note_on_c, 1, 55, 53
3, 25560, Note_on_c, 1, 55, 0
3, 25560, Note_on_c, 1, 53, 56
3, 25644, Note_on_c, 1, 53, 0
3, 25680, Note_on_c, 1, 62, 59
3, 25800, Note_on_c, 1, 62, 0
3, 25800, Note_on_c, 1, 53, 61
3, 25920, Note_on_c, 1, 53, 0
3, 25920, Note_on_c, 1, 51, 64
3, 25920, Note_on_c, 1, 55, 64
3, 26160, Note_on_c, 1, 51, 0
3, 26160, Note_on_c, 1, 47, 69
3, 26400, Note_on_c, 1, 47, 0
3, 26400, Note_on_c, 1, 48, 75
3, 26484, Note_on_c, 1, 48, 0
3, 26484, Note_on_c, 1, 55, 0
3, 26520, Note_on_c, 1, 51, 77
3, 26520, Note_on_c, 1, 55, 77
3, 26604, Note_on_c, 1, 55, 0
3, 26604, Note_on_c, 1, 51, 0
3, 26640, Note_on_c, 1, 53, 80
3, 26880, Note_on_c, 1, 53, 0
3, 26880, Note_on_c, 1, 55, 64
3, 26952, Note_on_c, 1, 55, 0
3, 27000, Note_on_c, 1, 43, 64
3, 27120, Note_on_c, 1, 43, 0
3, 27120, Note_on_c, 1, 55, 64
3, 27360, Note_on_c, 1, 55, 0
3, 27360, Note_on_c, 1, 57, 56
3, 27360, Note_on_c, 1, 55, 56
3, 27600, Note_on_c, 1, 55, 0
3, 27600, Note_on_c, 1, 53, 59
3, 27840, Note_on_c, 1, 53, 0
3, 27840, Note_on_c, 1, 49, 61
3, 28080, Note_on_c, 1, 49, 0
3, 28080, Note_on_c, 1, 50, 64
3, 28440, Note_on_c, 1, 50, 0
3, 28440, Note_on_c, 1, 57, 0
3, 28440, Note_on_c, 1, 48, 68
3, 28440, Note_on_c, 1, 50, 68
3, 28500, Note_on_c, 1, 50, 0
3, 28500, Note_on_c, 1, 48, 0
3, 28560, Note_on_c, 1, 46, 69
3, 28560, Note_on_c, 1, 50, 69
3, 28680, Note_on_c, 1, 50, 0
3, 28680, Note_on_c, 1, 46, 0
3, 28680, Note_on_c, 1, 42, 71
3, 28680, Note_on_c, 1, 50, 71
3, 28764, Note_on_c, 1, 50, 0
3, 28764, Note_on_c, 1, 42, 0
3, 28800, Note_on_c, 1, 43, 72
3, 28800, Note_on_c, 1, 50, 72
3, 29040, Note_on_c, 1, 50, 0
3, 29040, Note_on_c, 1, 43, 0
3, 29040, Note_on_c, 1, 55, 75
3, 29280, Note_on_c, 1, 51, 64
3, 29424, Note_on_c, 1, 51, 0
3, 29424, Note_on_c, 1, 55, 0
3, 29520, Note_on_c, 1, 50, 32
3, 29520, Note_on_c, 1, 57, 32
3, 30002, Note_on_c, 1, 57, 0
3, 30002, Note_on_c, 1, 50, 0
3, 30240, Note_on_c, 1, 62, 64
3, 30240, Note_on_c, 1, 54, 64
3, 30480, Note_on_c, 1, 54, 0
3, 30480, Note_on_c, 1, 62, 0
3, 30720, Note_on_c, 1, 62, 64
3, 30720, Note_on_c, 1, 55, 64
3, 30960, Note_on_c, 1, 55, 0
3, 30960, Note_on_c, 1, 62, 0
3, 30960, Note_on_c, 1, 50, 64
3, 30960, Note_on_c, 1, 60, 64
3, 31200, Note_on_c, 1, 60, 0
3, 31200, Note_on_c, 1, 50, 0
3, 31440, Note_on_c, 1, 51, 64
3, 31440, Note_on_c, 1, 58, 64
3, 31680, Note_on_c, 1, 58, 0
3, 31680, Note_on_c, 1, 51, 0
3, 31680, Note_on_c, 1, 60, 64
3, 31680, Note_on_c, 1, 48, 64
3, 31920, Note_on_c, 1, 48, 0
3, 31920, Note_on_c, 1, 60, 0
3, 31920, Note_on_c, 1, 62, 64
3, 31920, Note_on_c, 1, 50, 64
3, 32160, Note_on_c, 1, 50, 0
3, 32160, Note_on_c, 1, 62, 0
3, 32160, Note_on_c, 1, 38, 64
3, 32160, Note_on_c, 1, 50, 64
3, 32400, Note_on_c, 1, 50, 0
3, 32400, Note_on_c, 1, 38, 0
3, 32580, Note_on_c, 1, 50, 64
3, 32600, Note_on_c, 1, 50, 0
3, 32600, Note_on_c, 1, 52, 64
3, 32620, Note_on_c, 1, 52, 0
3, 32620, Note_on_c, 1, 54, 64
3, 32640, Note_on_c, 1, 54, 0
3, 32640, Note_on_c, 1, 55, 64
3, 32760, Note_on_c, 1, 55, 0
3, 32760, Note_on_c, 1, 50, 64
3, 32820, Note_on_c, 1, 50, 0
3, 32880, Note_on_c, 1, 46, 64
3, 32964, Note_on_c, 1, 46, 0
3, 33000, Note_on_c, 1, 43, 64
3, 33120, Note_on_c, 1, 43, 0
3, 33120, Note_on_c, 1, 54, 64
3, 33120, Note_on_c, 1, 62, 64
3, 33360, Note_on_c, 1, 62, 0
3, 33360, Note_on_c, 1, 54, 0
3, 33600, Note_on_c, 1, 55, 64
3, 33600, Note_on_c, 1, 62, 64
3, 33840, Note_on_c, 1, 62, 0
3, 33840, Note_on_c, 1, 55, 0
3, 33840, Note_on_c, 1, 60, 48
3, 33840, Note_on_c, 1, 50, 48
3, 34080, Note_on_c, 1, 50, 0
3, 34080, Note_on_c, 1, 60, 0
3, 34320, Note_on_c, 1, 58, 59
3, 34320, Note_on_c, 1, 51, 59
3, 34560, Note_on_c, 1, 51, 0
3, 34560, Note_on_c, 1, 58, 0
3, 34560, Note_on_c, 1, 48, 64
3, 34560, Note_on_c, 1, 60, 64
3, 34800, Note_on_c, 1, 60, 0
3, 34800, Note_on_c, 1, 48, 0
3, 34800, Note_on_c, 1, 50, 69
3, 34800, Note_on_c, 1, 58, 69
3, 35040, Note_on_c, 1, 58, 0
3, 35040, Note_on_c, 1, 57, 75
3, 35112, Note_on_c, 1, 50, 0
3, 35160, Note_on_c, 1, 48, 77
3, 35280, Note_on_c, 1, 48, 0
3, 35280, Note_on_c, 1, 57, 0
3, 35280, Note_on_c, 1, 50, 80
3, 35280, Note_on_c, 1, 55, 80
3, 35280, Note_on_c, 1, 46, 80
3, 35520, Note_on_c, 1, 46, 0
3, 35520, Note_on_c, 1, 47, 80
3, 35760, Note_on_c, 1, 47, 0
3, 35760, Note_on_c, 1, 48, 80
3, 35880, Note_on_c, 1, 48, 0
3, 35880, Note_on_c, 1, 51, 80
3, 36000, Note_on_c, 1, 51, 0
3, 36000, Note_on_c, 1, 55, 0
3, 36000, Note_on_c, 1, 50, 0
3, 36000, Note_on_c, 1, 50, 80
3, 36480, Note_on_c, 1, 50, 0
3, 36480, Note_on_c, 1, 38, 80
3, 36480, Note_on_c, 1, 45, 80
3, 36480, Note_on_c, 1, 50, 80
3, 36720, Note_on_c, 1, 50, 0
3, 36720, Note_on_c, 1, 45, 0
3, 36720, Note_on_c, 1, 38, 0
3, 36720, Note_on_c, 1, 43, 80
3, 37440, Note_on_c, 1, 43, 0
3, 37440, End_track
4, 0, Start_track
4, 0, MIDI_port, 0
4, 0, Title_t, "MIDI by Marty Weimer 4/26/97"
4, 0, End_track
5, 0, Start_track
5, 0, MIDI_port, 0
5, 0, Title_t, "weimermt@libby.org  Eureka, MT  USA"
5, 0, End_track
0, 0, End_of_file
