0, 0, Header, 1, 5, 240
1, 0, Start_track
1, 0, Time_signature, 6, 3, 12, 8
1, 0, Key_signature, 0, "major"
1, 0, Tempo, 2000000
1, 31800, Tempo, 2068966
1, 31920, Tempo, 2068966
1, 32040, Tempo, 2142857
1, 32160, Tempo, 2222222
1, 32280, Tempo, 2307692
1, 32400, Tempo, 2400000
1, 32400, End_track
2, 0, Start_track
2, 0, MIDI_port, 0
2, 0, Title_t, "Piano Sonata No.38 in E Flat"
2, 0, Program_c, 0, 0
2, 0, Control_c, 0, 7, 127
2, 0, Control_c, 0, 10, 72
2, 660, Note_on_c, 0, 55, 56
2, 690, Note_on_c, 0, 55, 0
2, 690, Note_on_c, 0, 60, 56
2, 720, Note_on_c, 0, 60, 0
2, 720, Note_on_c, 0, 63, 56
2, 900, Note_on_c, 0, 63, 0
2, 900, Note_on_c, 0, 62, 56
2, 960, Note_on_c, 0, 62, 0
2, 960, Note_on_c, 0, 60, 56
2, 1080, Note_on_c, 0, 60, 0
2, 1080, Note_on_c, 0, 59, 64
2, 1140, Note_on_c, 0, 59, 0
2, 1200, Note_on_c, 0, 80, 56
2, 1200, Note_on_c, 0, 71, 56
2, 1260, Note_on_c, 0, 71, 0
2, 1260, Note_on_c, 0, 80, 0
2, 1380, Note_on_c, 0, 59, 56
2, 1410, Note_on_c, 0, 59, 0
2, 1410, Note_on_c, 0, 62, 56
2, 1440, Note_on_c, 0, 62, 0
2, 1440, Note_on_c, 0, 65, 56
2, 1620, Note_on_c, 0, 65, 0
2, 1620, Note_on_c, 0, 63, 56
2, 1680, Note_on_c, 0, 63, 0
2, 1680, Note_on_c, 0, 62, 56
2, 1800, Note_on_c, 0, 62, 0
2, 1800, Note_on_c, 0, 60, 64
2, 1860, Note_on_c, 0, 60, 0
2, 1920, Note_on_c, 0, 75, 56
2, 1920, Note_on_c, 0, 79, 56
2, 1980, Note_on_c, 0, 79, 0
2, 1980, Note_on_c, 0, 75, 0
2, 2100, Note_on_c, 0, 60, 56
2, 2130, Note_on_c, 0, 60, 0
2, 2130, Note_on_c, 0, 63, 56
2, 2160, Note_on_c, 0, 63, 0
2, 2160, Note_on_c, 0, 67, 56
2, 2340, Note_on_c, 0, 67, 0
2, 2340, Note_on_c, 0, 60, 56
2, 2400, Note_on_c, 0, 60, 0
2, 2400, Note_on_c, 0, 72, 56
2, 2520, Note_on_c, 0, 72, 0
2, 2520, Note_on_c, 0, 70, 56
2, 2640, Note_on_c, 0, 70, 0
2, 2640, Note_on_c, 0, 68, 56
2, 2655, Note_on_c, 0, 68, 0
2, 2655, Note_on_c, 0, 70, 56
2, 2670, Note_on_c, 0, 70, 0
2, 2670, Note_on_c, 0, 68, 56
2, 2685, Note_on_c, 0, 68, 0
2, 2685, Note_on_c, 0, 70, 56
2, 2700, Note_on_c, 0, 70, 0
2, 2700, Note_on_c, 0, 68, 56
2, 2710, Note_on_c, 0, 68, 0
2, 2710, Note_on_c, 0, 70, 56
2, 2720, Note_on_c, 0, 70, 0
2, 2720, Note_on_c, 0, 68, 56
2, 2730, Note_on_c, 0, 68, 0
2, 2730, Note_on_c, 0, 67, 56
2, 2745, Note_on_c, 0, 67, 0
2, 2745, Note_on_c, 0, 68, 56
2, 2760, Note_on_c, 0, 68, 0
2, 2760, Note_on_c, 0, 67, 56
2, 2781, Note_on_c, 0, 67, 0
2, 2790, Note_on_c, 0, 68, 56
2, 2800, Note_on_c, 0, 68, 0
2, 2800, Note_on_c, 0, 67, 56
2, 2810, Note_on_c, 0, 67, 0
2, 2810, Note_on_c, 0, 65, 56
2, 2820, Note_on_c, 0, 65, 0
2, 2820, Note_on_c, 0, 67, 56
2, 2850, Note_on_c, 0, 67, 0
2, 2850, Note_on_c, 0, 68, 56
2, 2880, Note_on_c, 0, 68, 0
2, 2880, Note_on_c, 0, 67, 56
2, 3000, Note_on_c, 0, 67, 0
2, 3000, Note_on_c, 0, 65, 56
2, 3015, Note_on_c, 0, 65, 0
2, 3015, Note_on_c, 0, 67, 56
2, 3030, Note_on_c, 0, 67, 0
2, 3030, Note_on_c, 0, 65, 56
2, 3045, Note_on_c, 0, 65, 0
2, 3045, Note_on_c, 0, 67, 56
2, 3060, Note_on_c, 0, 67, 0
2, 3060, Note_on_c, 0, 65, 56
2, 3070, Note_on_c, 0, 65, 0
2, 3070, Note_on_c, 0, 67, 56
2, 3080, Note_on_c, 0, 67, 0
2, 3080, Note_on_c, 0, 65, 56
2, 3090, Note_on_c, 0, 65, 0
2, 3090, Note_on_c, 0, 62, 56
2, 3120, Note_on_c, 0, 62, 0
2, 3120, Note_on_c, 0, 63, 56
2, 3210, Note_on_c, 0, 63, 0
2, 3210, Note_on_c, 0, 60, 56
2, 3240, Note_on_c, 0, 60, 0
2, 3240, Note_on_c, 0, 59, 56
2, 3240, Note_on_c, 0, 67, 56
2, 3300, Note_on_c, 0, 67, 0
2, 3300, Note_on_c, 0, 59, 0
2, 3540, Note_on_c, 0, 58, 80
2, 3570, Note_on_c, 0, 58, 0
2, 3570, Note_on_c, 0, 63, 80
2, 3600, Note_on_c, 0, 63, 0
2, 3600, Note_on_c, 0, 67, 80
2, 3780, Note_on_c, 0, 67, 0
2, 3780, Note_on_c, 0, 65, 80
2, 3840, Note_on_c, 0, 65, 0
2, 3840, Note_on_c, 0, 63, 80
2, 3960, Note_on_c, 0, 63, 0
2, 3960, Note_on_c, 0, 62, 80
2, 4020, Note_on_c, 0, 62, 0
2, 4080, Note_on_c, 0, 80, 80
2, 4080, Note_on_c, 0, 74, 80
2, 4140, Note_on_c, 0, 74, 0
2, 4140, Note_on_c, 0, 80, 0
2, 4260, Note_on_c, 0, 62, 80
2, 4280, Note_on_c, 0, 62, 0
2, 4280, Note_on_c, 0, 65, 80
2, 4300, Note_on_c, 0, 65, 0
2, 4300, Note_on_c, 0, 68, 80
2, 4320, Note_on_c, 0, 72, 80
2, 4500, Note_on_c, 0, 72, 0
2, 4500, Note_on_c, 0, 68, 0
2, 4500, Note_on_c, 0, 67, 80
2, 4500, Note_on_c, 0, 70, 80
2, 4560, Note_on_c, 0, 70, 0
2, 4560, Note_on_c, 0, 67, 0
2, 4560, Note_on_c, 0, 65, 80
2, 4560, Note_on_c, 0, 68, 80
2, 4680, Note_on_c, 0, 68, 0
2, 4680, Note_on_c, 0, 65, 0
2, 4680, Note_on_c, 0, 63, 80
2, 4680, Note_on_c, 0, 67, 80
2, 4740, Note_on_c, 0, 67, 0
2, 4740, Note_on_c, 0, 63, 0
2, 4800, Note_on_c, 0, 82, 64
2, 4800, Note_on_c, 0, 79, 64
2, 4860, Note_on_c, 0, 79, 0
2, 4860, Note_on_c, 0, 82, 0
2, 4980, Note_on_c, 0, 63, 64
2, 5010, Note_on_c, 0, 63, 0
2, 5010, Note_on_c, 0, 67, 64
2, 5040, Note_on_c, 0, 67, 0
2, 5040, Note_on_c, 0, 75, 56
2, 5220, Note_on_c, 0, 75, 0
2, 5220, Note_on_c, 0, 74, 56
2, 5280, Note_on_c, 0, 74, 0
2, 5280, Note_on_c, 0, 72, 56
2, 5400, Note_on_c, 0, 72, 0
2, 5400, Note_on_c, 0, 72, 56
2, 5520, Note_on_c, 0, 72, 0
2, 5520, Note_on_c, 0, 70, 56
2, 5640, Note_on_c, 0, 70, 0
2, 5640, Note_on_c, 0, 68, 56
2, 5730, Note_on_c, 0, 68, 0
2, 5730, Note_on_c, 0, 67, 56
2, 5745, Note_on_c, 0, 67, 0
2, 5745, Note_on_c, 0, 70, 56
2, 5760, Note_on_c, 0, 70, 0
2, 5760, Note_on_c, 0, 68, 56
2, 5880, Note_on_c, 0, 68, 0
2, 5880, Note_on_c, 0, 67, 56
2, 5976, Note_on_c, 0, 67, 0
2, 6000, Note_on_c, 0, 65, 56
2, 6096, Note_on_c, 0, 65, 0
2, 6120, Note_on_c, 0, 70, 80
2, 6264, Note_on_c, 0, 70, 0
2, 6300, Note_on_c, 0, 72, 80
2, 6324, Note_on_c, 0, 72, 0
2, 6330, Note_on_c, 0, 70, 80
2, 6354, Note_on_c, 0, 70, 0
2, 6360, Note_on_c, 0, 72, 80
2, 6384, Note_on_c, 0, 72, 0
2, 6390, Note_on_c, 0, 70, 80
2, 6414, Note_on_c, 0, 70, 0
2, 6420, Note_on_c, 0, 68, 80
2, 6444, Note_on_c, 0, 68, 0
2, 6450, Note_on_c, 0, 67, 80
2, 6474, Note_on_c, 0, 67, 0
2, 6480, Note_on_c, 0, 67, 80
2, 6540, Note_on_c, 0, 67, 0
2, 6540, Note_on_c, 0, 65, 80
2, 6600, Note_on_c, 0, 65, 0
2, 6600, Note_on_c, 0, 63, 80
2, 6690, Note_on_c, 0, 63, 0
2, 6690, Note_on_c, 0, 63, 80
2, 6700, Note_on_c, 0, 63, 0
2, 6700, Note_on_c, 0, 65, 80
2, 6710, Note_on_c, 0, 65, 0
2, 6710, Note_on_c, 0, 63, 80
2, 6720, Note_on_c, 0, 63, 0
2, 6720, Note_on_c, 0, 62, 80
2, 6810, Note_on_c, 0, 62, 0
2, 6810, Note_on_c, 0, 63, 80
2, 6840, Note_on_c, 0, 63, 0
2, 6840, Note_on_c, 0, 63, 80
2, 7080, Note_on_c, 0, 63, 0
2, 7080, Note_on_c, 0, 63, 56
2, 7080, Note_on_c, 0, 67, 56
2, 7200, Note_on_c, 0, 67, 0
2, 7200, Note_on_c, 0, 63, 0
2, 7200, Note_on_c, 0, 63, 56
2, 7200, Note_on_c, 0, 65, 56
2, 7440, Note_on_c, 0, 65, 0
2, 7440, Note_on_c, 0, 63, 0
2, 7440, Note_on_c, 0, 63, 72
2, 7440, Note_on_c, 0, 68, 72
2, 7440, Note_on_c, 0, 72, 72
2, 7560, Note_on_c, 0, 72, 0
2, 7560, Note_on_c, 0, 68, 0
2, 7560, Note_on_c, 0, 63, 0
2, 7560, Note_on_c, 0, 62, 80
2, 7560, Note_on_c, 0, 68, 80
2, 7560, Note_on_c, 0, 72, 80
2, 7680, Note_on_c, 0, 72, 0
2, 7680, Note_on_c, 0, 68, 0
2, 7680, Note_on_c, 0, 62, 0
2, 7680, Note_on_c, 0, 67, 80
2, 7680, Note_on_c, 0, 70, 80
2, 7800, Note_on_c, 0, 70, 0
2, 7800, Note_on_c, 0, 67, 0
2, 7800, Note_on_c, 0, 65, 80
2, 7800, Note_on_c, 0, 68, 80
2, 7887, Note_on_c, 0, 68, 0
2, 7887, Note_on_c, 0, 65, 0
2, 7887, Note_on_c, 0, 67, 80
2, 7897, Note_on_c, 0, 67, 0
2, 7897, Note_on_c, 0, 68, 80
2, 7907, Note_on_c, 0, 68, 0
2, 7907, Note_on_c, 0, 70, 80
2, 7917, Note_on_c, 0, 70, 0
2, 7920, Note_on_c, 0, 65, 80
2, 7920, Note_on_c, 0, 68, 80
2, 8160, Note_on_c, 0, 68, 0
2, 8160, Note_on_c, 0, 65, 0
2, 8160, Note_on_c, 0, 63, 80
2, 8160, Note_on_c, 0, 67, 80
2, 8280, Note_on_c, 0, 67, 0
2, 8280, Note_on_c, 0, 63, 0
2, 8280, Note_on_c, 0, 61, 96
2, 8280, Note_on_c, 0, 63, 96
2, 8280, Note_on_c, 0, 70, 96
2, 8640, Note_on_c, 0, 70, 0
2, 8640, Note_on_c, 0, 63, 0
2, 8640, Note_on_c, 0, 61, 0
2, 8640, Note_on_c, 0, 60, 96
2, 8640, Note_on_c, 0, 63, 96
2, 8640, Note_on_c, 0, 70, 96
2, 8820, Note_on_c, 0, 70, 0
2, 8820, Note_on_c, 0, 68, 96
2, 8880, Note_on_c, 0, 68, 0
2, 8880, Note_on_c, 0, 67, 96
2, 8940, Note_on_c, 0, 67, 0
2, 8940, Note_on_c, 0, 65, 96
2, 9000, Note_on_c, 0, 65, 0
2, 9000, Note_on_c, 0, 63, 0
2, 9000, Note_on_c, 0, 60, 0
2, 9000, Note_on_c, 0, 58, 96
2, 9000, Note_on_c, 0, 63, 96
2, 9180, Note_on_c, 0, 63, 0
2, 9180, Note_on_c, 0, 67, 96
2, 9240, Note_on_c, 0, 67, 0
2, 9240, Note_on_c, 0, 58, 0
2, 9240, Note_on_c, 0, 62, 96
2, 9240, Note_on_c, 0, 65, 96
2, 9330, Note_on_c, 0, 65, 0
2, 9330, Note_on_c, 0, 63, 96
2, 9360, Note_on_c, 0, 63, 0
2, 9360, Note_on_c, 0, 62, 0
2, 9360, Note_on_c, 0, 63, 96
2, 9444, Note_on_c, 0, 63, 0
2, 9600, Note_on_c, 0, 55, 48
2, 9600, Note_on_c, 0, 58, 48
2, 9660, Note_on_c, 0, 58, 0
2, 9660, Note_on_c, 0, 55, 0
2, 9720, Note_on_c, 0, 51, 48
2, 9720, Note_on_c, 0, 55, 48
2, 9780, Note_on_c, 0, 55, 0
2, 9780, Note_on_c, 0, 51, 0
2, 10020, Note_on_c, 0, 55, 56
2, 10050, Note_on_c, 0, 55, 0
2, 10050, Note_on_c, 0, 60, 56
2, 10080, Note_on_c, 0, 60, 0
2, 10080, Note_on_c, 0, 63, 56
2, 10260, Note_on_c, 0, 63, 0
2, 10260, Note_on_c, 0, 62, 56
2, 10320, Note_on_c, 0, 62, 0
2, 10320, Note_on_c, 0, 60, 56
2, 10440, Note_on_c, 0, 60, 0
2, 10440, Note_on_c, 0, 59, 56
2, 10485, Note_on_c, 0, 59, 0
2, 10530, Note_on_c, 0, 74, 56
2, 10540, Note_on_c, 0, 77, 56
2, 10550, Note_on_c, 0, 80, 56
2, 10560, Note_on_c, 0, 83, 56
2, 10680, Note_on_c, 0, 83, 0
2, 10680, Note_on_c, 0, 74, 0
2, 10680, Note_on_c, 0, 77, 0
2, 10680, Note_on_c, 0, 80, 0
2, 10740, Note_on_c, 0, 59, 56
2, 10770, Note_on_c, 0, 59, 0
2, 10770, Note_on_c, 0, 62, 56
2, 10800, Note_on_c, 0, 62, 0
2, 10800, Note_on_c, 0, 65, 56
2, 10980, Note_on_c, 0, 65, 0
2, 10980, Note_on_c, 0, 63, 56
2, 11040, Note_on_c, 0, 63, 0
2, 11040, Note_on_c, 0, 62, 56
2, 11160, Note_on_c, 0, 62, 0
2, 11160, Note_on_c, 0, 60, 56
2, 11213, Note_on_c, 0, 60, 0
2, 11265, Note_on_c, 0, 79, 56
2, 11272, Note_on_c, 0, 84, 56
2, 11279, Note_on_c, 0, 87, 56
2, 11399, Note_on_c, 0, 87, 0
2, 11399, Note_on_c, 0, 84, 0
2, 11399, Note_on_c, 0, 79, 0
2, 11459, Note_on_c, 0, 60, 56
2, 11489, Note_on_c, 0, 60, 0
2, 11489, Note_on_c, 0, 63, 56
2, 11519, Note_on_c, 0, 63, 0
2, 11520, Note_on_c, 0, 67, 56
2, 11700, Note_on_c, 0, 67, 0
2, 11700, Note_on_c, 0, 60, 56
2, 11760, Note_on_c, 0, 60, 0
2, 11760, Note_on_c, 0, 72, 56
2, 11880, Note_on_c, 0, 72, 0
2, 11880, Note_on_c, 0, 70, 56
2, 12000, Note_on_c, 0, 70, 0
2, 12000, Note_on_c, 0, 68, 56
2, 12015, Note_on_c, 0, 68, 0
2, 12015, Note_on_c, 0, 70, 56
2, 12030, Note_on_c, 0, 70, 0
2, 12030, Note_on_c, 0, 68, 56
2, 12045, Note_on_c, 0, 68, 0
2, 12045, Note_on_c, 0, 70, 56
2, 12060, Note_on_c, 0, 70, 0
2, 12060, Note_on_c, 0, 68, 56
2, 12070, Note_on_c, 0, 68, 0
2, 12070, Note_on_c, 0, 70, 56
2, 12080, Note_on_c, 0, 70, 0
2, 12080, Note_on_c, 0, 68, 56
2, 12090, Note_on_c, 0, 68, 0
2, 12090, Note_on_c, 0, 67, 56
2, 12105, Note_on_c, 0, 67, 0
2, 12105, Note_on_c, 0, 68, 56
2, 12120, Note_on_c, 0, 68, 0
2, 12120, Note_on_c, 0, 67, 56
2, 12150, Note_on_c, 0, 67, 0
2, 12150, Note_on_c, 0, 68, 56
2, 12160, Note_on_c, 0, 68, 0
2, 12160, Note_on_c, 0, 67, 56
2, 12170, Note_on_c, 0, 67, 0
2, 12170, Note_on_c, 0, 65, 56
2, 12180, Note_on_c, 0, 65, 0
2, 12180, Note_on_c, 0, 67, 56
2, 12210, Note_on_c, 0, 67, 0
2, 12210, Note_on_c, 0, 68, 56
2, 12240, Note_on_c, 0, 68, 0
2, 12240, Note_on_c, 0, 67, 56
2, 12255, Note_on_c, 0, 67, 0
2, 12255, Note_on_c, 0, 68, 56
2, 12270, Note_on_c, 0, 68, 0
2, 12270, Note_on_c, 0, 67, 56
2, 12285, Note_on_c, 0, 67, 0
2, 12285, Note_on_c, 0, 68, 56
2, 12300, Note_on_c, 0, 68, 0
2, 12300, Note_on_c, 0, 67, 56
2, 12315, Note_on_c, 0, 67, 0
2, 12315, Note_on_c, 0, 68, 56
2, 12330, Note_on_c, 0, 68, 0
2, 12330, Note_on_c, 0, 67, 56
2, 12340, Note_on_c, 0, 67, 0
2, 12340, Note_on_c, 0, 68, 56
2, 12350, Note_on_c, 0, 68, 0
2, 12350, Note_on_c, 0, 67, 56
2, 12360, Note_on_c, 0, 67, 0
2, 12360, Note_on_c, 0, 65, 56
2, 12420, Note_on_c, 0, 65, 0
2, 12420, Note_on_c, 0, 63, 56
2, 12438, Note_on_c, 0, 63, 0
2, 12450, Note_on_c, 0, 62, 56
2, 12468, Note_on_c, 0, 62, 0
2, 12480, Note_on_c, 0, 65, 56
2, 12510, Note_on_c, 0, 65, 0
2, 12510, Note_on_c, 0, 63, 56
2, 12540, Note_on_c, 0, 63, 0
2, 12540, Note_on_c, 0, 62, 56
2, 12570, Note_on_c, 0, 62, 0
2, 12570, Note_on_c, 0, 60, 56
2, 12600, Note_on_c, 0, 60, 0
2, 12600, Note_on_c, 0, 67, 56
2, 12600, Note_on_c, 0, 59, 56
2, 12660, Note_on_c, 0, 59, 0
2, 12660, Note_on_c, 0, 67, 0
2, 12900, Note_on_c, 0, 58, 56
2, 12930, Note_on_c, 0, 58, 0
2, 12930, Note_on_c, 0, 63, 80
2, 12960, Note_on_c, 0, 63, 0
2, 12960, Note_on_c, 0, 67, 80
2, 13140, Note_on_c, 0, 67, 0
2, 13140, Note_on_c, 0, 65, 80
2, 13200, Note_on_c, 0, 65, 0
2, 13200, Note_on_c, 0, 63, 80
2, 13320, Note_on_c, 0, 63, 0
2, 13320, Note_on_c, 0, 62, 80
2, 13380, Note_on_c, 0, 62, 0
2, 13440, Note_on_c, 0, 80, 80
2, 13470, Note_on_c, 0, 80, 0
2, 13470, Note_on_c, 0, 79, 80
2, 13488, Note_on_c, 0, 79, 0
2, 13500, Note_on_c, 0, 82, 80
2, 13530, Note_on_c, 0, 82, 0
2, 13530, Note_on_c, 0, 80, 80
2, 13548, Note_on_c, 0, 80, 0
2, 13560, Note_on_c, 0, 84, 80
2, 13590, Note_on_c, 0, 84, 0
2, 13590, Note_on_c, 0, 82, 80
2, 13620, Note_on_c, 0, 82, 0
2, 13620, Note_on_c, 0, 80, 80
2, 13650, Note_on_c, 0, 80, 0
2, 13650, Note_on_c, 0, 79, 80
2, 13680, Note_on_c, 0, 79, 0
2, 13680, Note_on_c, 0, 77, 80
2, 13710, Note_on_c, 0, 77, 0
2, 13710, Note_on_c, 0, 75, 80
2, 13740, Note_on_c, 0, 75, 0
2, 13740, Note_on_c, 0, 74, 80
2, 13770, Note_on_c, 0, 74, 0
2, 13770, Note_on_c, 0, 72, 80
2, 13800, Note_on_c, 0, 72, 0
2, 13800, Note_on_c, 0, 70, 80
2, 13830, Note_on_c, 0, 70, 0
2, 13830, Note_on_c, 0, 68, 80
2, 13860, Note_on_c, 0, 68, 0
2, 13860, Note_on_c, 0, 67, 80
2, 13890, Note_on_c, 0, 67, 0
2, 13890, Note_on_c, 0, 65, 80
2, 13920, Note_on_c, 0, 65, 0
2, 13920, Note_on_c, 0, 63, 80
2, 13950, Note_on_c, 0, 63, 0
2, 13950, Note_on_c, 0, 62, 80
2, 13980, Note_on_c, 0, 62, 0
2, 13980, Note_on_c, 0, 65, 80
2, 14010, Note_on_c, 0, 65, 0
2, 14010, Note_on_c, 0, 68, 80
2, 14040, Note_on_c, 0, 68, 0
2, 14040, Note_on_c, 0, 67, 80
2, 14040, Note_on_c, 0, 63, 80
2, 14100, Note_on_c, 0, 63, 0
2, 14100, Note_on_c, 0, 67, 0
2, 14160, Note_on_c, 0, 82, 80
2, 14160, Note_on_c, 0, 79, 80
2, 14220, Note_on_c, 0, 79, 0
2, 14220, Note_on_c, 0, 82, 0
2, 14280, Note_on_c, 0, 63, 80
2, 14287, Note_on_c, 0, 63, 0
2, 14287, Note_on_c, 0, 65, 80
2, 14294, Note_on_c, 0, 65, 0
2, 14294, Note_on_c, 0, 67, 80
2, 14301, Note_on_c, 0, 67, 0
2, 14301, Note_on_c, 0, 68, 80
2, 14308, Note_on_c, 0, 68, 0
2, 14308, Note_on_c, 0, 70, 80
2, 14315, Note_on_c, 0, 70, 0
2, 14315, Note_on_c, 0, 72, 80
2, 14322, Note_on_c, 0, 72, 0
2, 14322, Note_on_c, 0, 74, 80
2, 14329, Note_on_c, 0, 74, 0
2, 14329, Note_on_c, 0, 75, 80
2, 14336, Note_on_c, 0, 75, 0
2, 14336, Note_on_c, 0, 74, 80
2, 14356, Note_on_c, 0, 74, 0
2, 14356, Note_on_c, 0, 75, 80
2, 14376, Note_on_c, 0, 75, 0
2, 14376, Note_on_c, 0, 77, 80
2, 14396, Note_on_c, 0, 77, 0
2, 14400, Note_on_c, 0, 75, 80
2, 14580, Note_on_c, 0, 75, 0
2, 14580, Note_on_c, 0, 74, 56
2, 14640, Note_on_c, 0, 74, 0
2, 14640, Note_on_c, 0, 72, 56
2, 14760, Note_on_c, 0, 72, 0
2, 14760, Note_on_c, 0, 72, 56
2, 14880, Note_on_c, 0, 72, 0
2, 14880, Note_on_c, 0, 70, 56
2, 14900, Note_on_c, 0, 70, 0
2, 14900, Note_on_c, 0, 72, 56
2, 14920, Note_on_c, 0, 72, 0
2, 14920, Note_on_c, 0, 70, 56
2, 14940, Note_on_c, 0, 70, 0
2, 14940, Note_on_c, 0, 69, 56
2, 14970, Note_on_c, 0, 69, 0
2, 14970, Note_on_c, 0, 70, 56
2, 15000, Note_on_c, 0, 70, 0
2, 15000, Note_on_c, 0, 74, 56
2, 15030, Note_on_c, 0, 74, 0
2, 15030, Note_on_c, 0, 72, 56
2, 15048, Note_on_c, 0, 72, 0
2, 15060, Note_on_c, 0, 70, 56
2, 15078, Note_on_c, 0, 70, 0
2, 15090, Note_on_c, 0, 68, 56
2, 15108, Note_on_c, 0, 68, 0
2, 15120, Note_on_c, 0, 68, 56
2, 15135, Note_on_c, 0, 68, 0
2, 15135, Note_on_c, 0, 70, 56
2, 15150, Note_on_c, 0, 70, 0
2, 15150, Note_on_c, 0, 68, 56
2, 15165, Note_on_c, 0, 68, 0
2, 15165, Note_on_c, 0, 70, 56
2, 15180, Note_on_c, 0, 70, 0
2, 15180, Note_on_c, 0, 68, 56
2, 15195, Note_on_c, 0, 68, 0
2, 15195, Note_on_c, 0, 70, 56
2, 15210, Note_on_c, 0, 70, 0
2, 15210, Note_on_c, 0, 68, 56
2, 15220, Note_on_c, 0, 68, 0
2, 15220, Note_on_c, 0, 70, 56
2, 15230, Note_on_c, 0, 70, 0
2, 15230, Note_on_c, 0, 68, 56
2, 15240, Note_on_c, 0, 68, 0
2, 15240, Note_on_c, 0, 67, 56
2, 15300, Note_on_c, 0, 67, 0
2, 15300, Note_on_c, 0, 65, 56
2, 15330, Note_on_c, 0, 65, 0
2, 15330, Note_on_c, 0, 67, 56
2, 15360, Note_on_c, 0, 67, 0
2, 15360, Note_on_c, 0, 70, 56
2, 15390, Note_on_c, 0, 70, 0
2, 15390, Note_on_c, 0, 68, 56
2, 15420, Note_on_c, 0, 68, 0
2, 15420, Note_on_c, 0, 67, 56
2, 15450, Note_on_c, 0, 67, 0
2, 15450, Note_on_c, 0, 65, 56
2, 15468, Note_on_c, 0, 65, 0
2, 15480, Note_on_c, 0, 70, 80
2, 15540, Note_on_c, 0, 70, 0
2, 15540, Note_on_c, 0, 69, 80
2, 15570, Note_on_c, 0, 69, 0
2, 15570, Note_on_c, 0, 70, 80
2, 15600, Note_on_c, 0, 70, 0
2, 15600, Note_on_c, 0, 69, 80
2, 15630, Note_on_c, 0, 69, 0
2, 15630, Note_on_c, 0, 70, 80
2, 15660, Note_on_c, 0, 70, 0
2, 15660, Note_on_c, 0, 69, 80
2, 15690, Note_on_c, 0, 69, 0
2, 15690, Note_on_c, 0, 70, 80
2, 15720, Note_on_c, 0, 70, 0
2, 15720, Note_on_c, 0, 72, 80
2, 15750, Note_on_c, 0, 72, 0
2, 15750, Note_on_c, 0, 70, 80
2, 15780, Note_on_c, 0, 70, 0
2, 15780, Note_on_c, 0, 68, 80
2, 15810, Note_on_c, 0, 68, 0
2, 15810, Note_on_c, 0, 67, 80
2, 15840, Note_on_c, 0, 67, 0
2, 15840, Note_on_c, 0, 67, 80
2, 15870, Note_on_c, 0, 67, 0
2, 15870, Note_on_c, 0, 65, 80
2, 15888, Note_on_c, 0, 65, 0
2, 15900, Note_on_c, 0, 68, 80
2, 15918, Note_on_c, 0, 68, 0
2, 15930, Note_on_c, 0, 65, 80
2, 15948, Note_on_c, 0, 65, 0
2, 15960, Note_on_c, 0, 65, 80
2, 15990, Note_on_c, 0, 65, 0
2, 15990, Note_on_c, 0, 63, 80
2, 16014, Note_on_c, 0, 63, 0
2, 16020, Note_on_c, 0, 67, 80
2, 16044, Note_on_c, 0, 67, 0
2, 16050, Note_on_c, 0, 63, 80
2, 16074, Note_on_c, 0, 63, 0
2, 16080, Note_on_c, 0, 63, 80
2, 16110, Note_on_c, 0, 63, 0
2, 16110, Note_on_c, 0, 62, 80
2, 16140, Note_on_c, 0, 62, 0
2, 16140, Note_on_c, 0, 65, 80
2, 16170, Note_on_c, 0, 65, 0
2, 16170, Note_on_c, 0, 62, 80
2, 16200, Note_on_c, 0, 62, 0
2, 16200, Note_on_c, 0, 63, 80
2, 16440, Note_on_c, 0, 63, 0
2, 16440, Note_on_c, 0, 63, 56
2, 16440, Note_on_c, 0, 67, 56
2, 16560, Note_on_c, 0, 67, 0
2, 16560, Note_on_c, 0, 63, 0
2, 16560, Note_on_c, 0, 65, 56
2, 16560, Note_on_c, 0, 63, 56
2, 16800, Note_on_c, 0, 63, 0
2, 16800, Note_on_c, 0, 65, 0
2, 16800, Note_on_c, 0, 72, 72
2, 16800, Note_on_c, 0, 68, 72
2, 16800, Note_on_c, 0, 63, 72
2, 16920, Note_on_c, 0, 63, 0
2, 16920, Note_on_c, 0, 68, 0
2, 16920, Note_on_c, 0, 72, 0
2, 16920, Note_on_c, 0, 72, 80
2, 16920, Note_on_c, 0, 68, 80
2, 16920, Note_on_c, 0, 62, 80
2, 17040, Note_on_c, 0, 62, 0
2, 17040, Note_on_c, 0, 68, 0
2, 17040, Note_on_c, 0, 72, 0
2, 17040, Note_on_c, 0, 70, 80
2, 17040, Note_on_c, 0, 67, 80
2, 17160, Note_on_c, 0, 67, 0
2, 17160, Note_on_c, 0, 70, 0
2, 17160, Note_on_c, 0, 65, 80
2, 17160, Note_on_c, 0, 68, 80
2, 17247, Note_on_c, 0, 68, 0
2, 17247, Note_on_c, 0, 65, 0
2, 17247, Note_on_c, 0, 67, 80
2, 17257, Note_on_c, 0, 67, 0
2, 17257, Note_on_c, 0, 68, 80
2, 17267, Note_on_c, 0, 68, 0
2, 17267, Note_on_c, 0, 70, 80
2, 17277, Note_on_c, 0, 70, 0
2, 17280, Note_on_c, 0, 68, 80
2, 17280, Note_on_c, 0, 65, 80
2, 17520, Note_on_c, 0, 65, 0
2, 17520, Note_on_c, 0, 68, 0
2, 17520, Note_on_c, 0, 67, 80
2, 17520, Note_on_c, 0, 63, 80
2, 17640, Note_on_c, 0, 63, 0
2, 17640, Note_on_c, 0, 67, 0
2, 17640, Note_on_c, 0, 70, 96
2, 17640, Note_on_c, 0, 63, 96
2, 17640, Note_on_c, 0, 61, 96
2, 18000, Note_on_c, 0, 61, 0
2, 18000, Note_on_c, 0, 63, 0
2, 18000, Note_on_c, 0, 70, 0
2, 18000, Note_on_c, 0, 60, 96
2, 18000, Note_on_c, 0, 63, 96
2, 18000, Note_on_c, 0, 70, 96
2, 18180, Note_on_c, 0, 70, 0
2, 18180, Note_on_c, 0, 63, 0
2, 18180, Note_on_c, 0, 60, 0
2, 18180, Note_on_c, 0, 68, 96
2, 18240, Note_on_c, 0, 68, 0
2, 18240, Note_on_c, 0, 67, 96
2, 18300, Note_on_c, 0, 67, 0
2, 18300, Note_on_c, 0, 65, 96
2, 18360, Note_on_c, 0, 65, 0
2, 18360, Note_on_c, 0, 63, 96
2, 18360, Note_on_c, 0, 58, 96
2, 18540, Note_on_c, 0, 63, 0
2, 18540, Note_on_c, 0, 67, 96
2, 18600, Note_on_c, 0, 67, 0
2, 18600, Note_on_c, 0, 58, 0
2, 18600, Note_on_c, 0, 65, 96
2, 18600, Note_on_c, 0, 62, 96
2, 18690, Note_on_c, 0, 65, 0
2, 18690, Note_on_c, 0, 63, 96
2, 18720, Note_on_c, 0, 63, 0
2, 18720, Note_on_c, 0, 62, 0
2, 18720, Note_on_c, 0, 63, 96
2, 18840, Note_on_c, 0, 63, 0
2, 18960, Note_on_c, 0, 55, 48
2, 18960, Note_on_c, 0, 58, 48
2, 19020, Note_on_c, 0, 58, 0
2, 19020, Note_on_c, 0, 55, 0
2, 19080, Note_on_c, 0, 51, 48
2, 19080, Note_on_c, 0, 55, 48
2, 19140, Note_on_c, 0, 55, 0
2, 19140, Note_on_c, 0, 51, 0
2, 19380, Note_on_c, 0, 70, 56
2, 19410, Note_on_c, 0, 70, 0
2, 19410, Note_on_c, 0, 75, 56
2, 19440, Note_on_c, 0, 75, 0
2, 19440, Note_on_c, 0, 79, 56
2, 19620, Note_on_c, 0, 79, 0
2, 19620, Note_on_c, 0, 77, 56
2, 19680, Note_on_c, 0, 77, 0
2, 19680, Note_on_c, 0, 75, 56
2, 19800, Note_on_c, 0, 75, 0
2, 19800, Note_on_c, 0, 74, 56
2, 19860, Note_on_c, 0, 74, 0
2, 19920, Note_on_c, 0, 77, 56
2, 19920, Note_on_c, 0, 80, 56
2, 19980, Note_on_c, 0, 80, 0
2, 19980, Note_on_c, 0, 77, 0
2, 20040, Note_on_c, 0, 58, 56
2, 20054, Note_on_c, 0, 58, 0
2, 20054, Note_on_c, 0, 60, 56
2, 20061, Note_on_c, 0, 60, 0
2, 20061, Note_on_c, 0, 62, 56
2, 20068, Note_on_c, 0, 62, 0
2, 20068, Note_on_c, 0, 63, 56
2, 20075, Note_on_c, 0, 63, 0
2, 20075, Note_on_c, 0, 65, 56
2, 20082, Note_on_c, 0, 65, 0
2, 20082, Note_on_c, 0, 67, 56
2, 20089, Note_on_c, 0, 67, 0
2, 20089, Note_on_c, 0, 68, 56
2, 20096, Note_on_c, 0, 68, 0
2, 20096, Note_on_c, 0, 70, 56
2, 20103, Note_on_c, 0, 70, 0
2, 20103, Note_on_c, 0, 72, 56
2, 20110, Note_on_c, 0, 72, 0
2, 20110, Note_on_c, 0, 74, 56
2, 20117, Note_on_c, 0, 74, 0
2, 20117, Note_on_c, 0, 75, 56
2, 20124, Note_on_c, 0, 75, 0
2, 20124, Note_on_c, 0, 77, 56
2, 20131, Note_on_c, 0, 77, 0
2, 20131, Note_on_c, 0, 79, 56
2, 20138, Note_on_c, 0, 79, 0
2, 20138, Note_on_c, 0, 80, 56
2, 20145, Note_on_c, 0, 80, 0
2, 20145, Note_on_c, 0, 82, 56
2, 20152, Note_on_c, 0, 82, 0
2, 20160, Note_on_c, 0, 80, 56
2, 20160, Note_on_c, 0, 84, 56
2, 20340, Note_on_c, 0, 84, 0
2, 20340, Note_on_c, 0, 80, 0
2, 20340, Note_on_c, 0, 79, 56
2, 20340, Note_on_c, 0, 82, 56
2, 20400, Note_on_c, 0, 82, 0
2, 20400, Note_on_c, 0, 79, 0
2, 20400, Note_on_c, 0, 77, 56
2, 20400, Note_on_c, 0, 80, 56
2, 20520, Note_on_c, 0, 80, 0
2, 20520, Note_on_c, 0, 77, 0
2, 20520, Note_on_c, 0, 75, 56
2, 20520, Note_on_c, 0, 79, 56
2, 20580, Note_on_c, 0, 79, 0
2, 20580, Note_on_c, 0, 75, 0
2, 20640, Note_on_c, 0, 79, 56
2, 20640, Note_on_c, 0, 82, 56
2, 20700, Note_on_c, 0, 82, 0
2, 20700, Note_on_c, 0, 79, 0
2, 20880, Note_on_c, 0, 63, 80
2, 20880, Note_on_c, 0, 67, 80
2, 20964, Note_on_c, 0, 67, 0
2, 20964, Note_on_c, 0, 63, 0
2, 21000, Note_on_c, 0, 82, 80
2, 21000, Note_on_c, 0, 79, 80
2, 21060, Note_on_c, 0, 79, 0
2, 21060, Note_on_c, 0, 82, 0
2, 21240, Note_on_c, 0, 60, 80
2, 21240, Note_on_c, 0, 67, 80
2, 21324, Note_on_c, 0, 67, 0
2, 21324, Note_on_c, 0, 60, 0
2, 21360, Note_on_c, 0, 82, 80
2, 21360, Note_on_c, 0, 79, 80
2, 21420, Note_on_c, 0, 79, 0
2, 21420, Note_on_c, 0, 82, 0
2, 21600, Note_on_c, 0, 65, 80
2, 21600, Note_on_c, 0, 68, 80
2, 21672, Note_on_c, 0, 68, 0
2, 21672, Note_on_c, 0, 65, 0
2, 21720, Note_on_c, 0, 77, 80
2, 21720, Note_on_c, 0, 80, 80
2, 21792, Note_on_c, 0, 80, 0
2, 21792, Note_on_c, 0, 77, 0
2, 21960, Note_on_c, 0, 65, 80
2, 21960, Note_on_c, 0, 68, 80
2, 22044, Note_on_c, 0, 68, 0
2, 22044, Note_on_c, 0, 65, 0
2, 22080, Note_on_c, 0, 77, 80
2, 22080, Note_on_c, 0, 80, 80
2, 22164, Note_on_c, 0, 80, 0
2, 22164, Note_on_c, 0, 77, 0
2, 22200, Note_on_c, 0, 77, 80
2, 22200, Note_on_c, 0, 80, 80
2, 22284, Note_on_c, 0, 80, 0
2, 22284, Note_on_c, 0, 77, 0
2, 22320, Note_on_c, 0, 79, 80
2, 22560, Note_on_c, 0, 79, 0
2, 22560, Note_on_c, 0, 77, 80
2, 22590, Note_on_c, 0, 77, 0
2, 22590, Note_on_c, 0, 75, 80
2, 22611, Note_on_c, 0, 75, 0
2, 22620, Note_on_c, 0, 74, 80
2, 22641, Note_on_c, 0, 74, 0
2, 22650, Note_on_c, 0, 72, 80
2, 22671, Note_on_c, 0, 72, 0
2, 22680, Note_on_c, 0, 74, 80
2, 22680, Note_on_c, 0, 77, 80
2, 22920, Note_on_c, 0, 77, 0
2, 22920, Note_on_c, 0, 74, 0
2, 22920, Note_on_c, 0, 77, 80
2, 22950, Note_on_c, 0, 77, 0
2, 22950, Note_on_c, 0, 75, 80
2, 22980, Note_on_c, 0, 75, 0
2, 22980, Note_on_c, 0, 74, 80
2, 23010, Note_on_c, 0, 74, 0
2, 23010, Note_on_c, 0, 72, 80
2, 23040, Note_on_c, 0, 72, 0
2, 23040, Note_on_c, 0, 71, 80
2, 23136, Note_on_c, 0, 71, 0
2, 23160, Note_on_c, 0, 71, 80
2, 23160, Note_on_c, 0, 79, 80
2, 23220, Note_on_c, 0, 79, 0
2, 23220, Note_on_c, 0, 71, 0
2, 23280, Note_on_c, 0, 71, 80
2, 23280, Note_on_c, 0, 79, 80
2, 23340, Note_on_c, 0, 79, 0
2, 23340, Note_on_c, 0, 71, 0
2, 23400, Note_on_c, 0, 71, 80
2, 23400, Note_on_c, 0, 79, 80
2, 23460, Note_on_c, 0, 79, 0
2, 23460, Note_on_c, 0, 71, 0
2, 23700, Note_on_c, 0, 55, 56
2, 23730, Note_on_c, 0, 55, 0
2, 23730, Note_on_c, 0, 60, 56
2, 23760, Note_on_c, 0, 60, 0
2, 23760, Note_on_c, 0, 63, 56
2, 23940, Note_on_c, 0, 63, 0
2, 23940, Note_on_c, 0, 62, 56
2, 24000, Note_on_c, 0, 62, 0
2, 24000, Note_on_c, 0, 60, 56
2, 24120, Note_on_c, 0, 60, 0
2, 24120, Note_on_c, 0, 59, 56
2, 24174, Note_on_c, 0, 59, 0
2, 24210, Note_on_c, 0, 80, 56
2, 24228, Note_on_c, 0, 80, 0
2, 24240, Note_on_c, 0, 80, 56
2, 24270, Note_on_c, 0, 80, 0
2, 24270, Note_on_c, 0, 79, 56
2, 24288, Note_on_c, 0, 79, 0
2, 24300, Note_on_c, 0, 79, 56
2, 24330, Note_on_c, 0, 79, 0
2, 24330, Note_on_c, 0, 77, 56
2, 24348, Note_on_c, 0, 77, 0
2, 24360, Note_on_c, 0, 77, 56
2, 24390, Note_on_c, 0, 77, 0
2, 24390, Note_on_c, 0, 75, 56
2, 24408, Note_on_c, 0, 75, 0
2, 24420, Note_on_c, 0, 75, 56
2, 24450, Note_on_c, 0, 75, 0
2, 24450, Note_on_c, 0, 74, 56
2, 24468, Note_on_c, 0, 74, 0
2, 24480, Note_on_c, 0, 74, 56
2, 24510, Note_on_c, 0, 74, 0
2, 24510, Note_on_c, 0, 72, 56
2, 24540, Note_on_c, 0, 72, 0
2, 24540, Note_on_c, 0, 72, 56
2, 24570, Note_on_c, 0, 72, 0
2, 24570, Note_on_c, 0, 71, 56
2, 24600, Note_on_c, 0, 71, 0
2, 24600, Note_on_c, 0, 71, 56
2, 24630, Note_on_c, 0, 71, 0
2, 24630, Note_on_c, 0, 68, 56
2, 24660, Note_on_c, 0, 68, 0
2, 24660, Note_on_c, 0, 67, 56
2, 24690, Note_on_c, 0, 67, 0
2, 24690, Note_on_c, 0, 65, 56
2, 24720, Note_on_c, 0, 65, 0
2, 24720, Note_on_c, 0, 63, 56
2, 24750, Note_on_c, 0, 63, 0
2, 24750, Note_on_c, 0, 62, 56
2, 24780, Note_on_c, 0, 62, 0
2, 24780, Note_on_c, 0, 60, 56
2, 24810, Note_on_c, 0, 60, 0
2, 24810, Note_on_c, 0, 59, 56
2, 24840, Note_on_c, 0, 59, 0
2, 24840, Note_on_c, 0, 60, 56
2, 24870, Note_on_c, 0, 60, 0
2, 24870, Note_on_c, 0, 55, 56
2, 24900, Note_on_c, 0, 55, 0
2, 24900, Note_on_c, 0, 63, 56
2, 24930, Note_on_c, 0, 63, 0
2, 24930, Note_on_c, 0, 60, 56
2, 24960, Note_on_c, 0, 60, 0
2, 24960, Note_on_c, 0, 67, 56
2, 24990, Note_on_c, 0, 67, 0
2, 24990, Note_on_c, 0, 63, 56
2, 25020, Note_on_c, 0, 63, 0
2, 25020, Note_on_c, 0, 72, 56
2, 25050, Note_on_c, 0, 72, 0
2, 25050, Note_on_c, 0, 67, 56
2, 25080, Note_on_c, 0, 67, 0
2, 25080, Note_on_c, 0, 75, 56
2, 25110, Note_on_c, 0, 75, 0
2, 25110, Note_on_c, 0, 72, 56
2, 25140, Note_on_c, 0, 72, 0
2, 25140, Note_on_c, 0, 79, 56
2, 25170, Note_on_c, 0, 79, 0
2, 25170, Note_on_c, 0, 75, 56
2, 25200, Note_on_c, 0, 75, 0
2, 25200, Note_on_c, 0, 84, 56
2, 25254, Note_on_c, 0, 84, 0
2, 25290, Note_on_c, 0, 79, 56
2, 25308, Note_on_c, 0, 79, 0
2, 25320, Note_on_c, 0, 84, 56
2, 25350, Note_on_c, 0, 84, 0
2, 25350, Note_on_c, 0, 79, 56
2, 25368, Note_on_c, 0, 79, 0
2, 25380, Note_on_c, 0, 84, 56
2, 25398, Note_on_c, 0, 84, 0
2, 25410, Note_on_c, 0, 79, 56
2, 25428, Note_on_c, 0, 79, 0
2, 25440, Note_on_c, 0, 84, 80
2, 25470, Note_on_c, 0, 84, 0
2, 25470, Note_on_c, 0, 79, 80
2, 25500, Note_on_c, 0, 79, 0
2, 25500, Note_on_c, 0, 84, 80
2, 25530, Note_on_c, 0, 84, 0
2, 25530, Note_on_c, 0, 79, 80
2, 25560, Note_on_c, 0, 79, 0
2, 25560, Note_on_c, 0, 82, 80
2, 25680, Note_on_c, 0, 82, 0
2, 25680, Note_on_c, 0, 80, 80
2, 25695, Note_on_c, 0, 80, 0
2, 25695, Note_on_c, 0, 82, 80
2, 25710, Note_on_c, 0, 82, 0
2, 25710, Note_on_c, 0, 80, 80
2, 25725, Note_on_c, 0, 80, 0
2, 25725, Note_on_c, 0, 82, 80
2, 25740, Note_on_c, 0, 82, 0
2, 25740, Note_on_c, 0, 80, 80
2, 25750, Note_on_c, 0, 80, 0
2, 25750, Note_on_c, 0, 82, 80
2, 25760, Note_on_c, 0, 82, 0
2, 25760, Note_on_c, 0, 80, 80
2, 25770, Note_on_c, 0, 80, 0
2, 25770, Note_on_c, 0, 79, 80
2, 25785, Note_on_c, 0, 79, 0
2, 25785, Note_on_c, 0, 80, 80
2, 25800, Note_on_c, 0, 80, 0
2, 25800, Note_on_c, 0, 79, 80
2, 25830, Note_on_c, 0, 79, 0
2, 25830, Note_on_c, 0, 80, 80
2, 25840, Note_on_c, 0, 80, 0
2, 25840, Note_on_c, 0, 79, 80
2, 25850, Note_on_c, 0, 79, 0
2, 25850, Note_on_c, 0, 77, 80
2, 25860, Note_on_c, 0, 77, 0
2, 25860, Note_on_c, 0, 79, 80
2, 25890, Note_on_c, 0, 79, 0
2, 25890, Note_on_c, 0, 80, 80
2, 25920, Note_on_c, 0, 80, 0
2, 25920, Note_on_c, 0, 79, 80
2, 26016, Note_on_c, 0, 79, 0
2, 26040, Note_on_c, 0, 77, 80
2, 26052, Note_on_c, 0, 77, 0
2, 26055, Note_on_c, 0, 79, 80
2, 26067, Note_on_c, 0, 79, 0
2, 26070, Note_on_c, 0, 77, 80
2, 26078, Note_on_c, 0, 77, 0
2, 26080, Note_on_c, 0, 79, 80
2, 26088, Note_on_c, 0, 79, 0
2, 26090, Note_on_c, 0, 77, 80
2, 26098, Note_on_c, 0, 77, 0
2, 26100, Note_on_c, 0, 75, 80
2, 26124, Note_on_c, 0, 75, 0
2, 26130, Note_on_c, 0, 74, 80
2, 26154, Note_on_c, 0, 74, 0
2, 26160, Note_on_c, 0, 77, 80
2, 26184, Note_on_c, 0, 77, 0
2, 26190, Note_on_c, 0, 75, 80
2, 26214, Note_on_c, 0, 75, 0
2, 26220, Note_on_c, 0, 74, 80
2, 26244, Note_on_c, 0, 74, 0
2, 26250, Note_on_c, 0, 72, 80
2, 26274, Note_on_c, 0, 72, 0
2, 26280, Note_on_c, 0, 71, 80
2, 26280, Note_on_c, 0, 79, 80
2, 26376, Note_on_c, 0, 79, 0
2, 26376, Note_on_c, 0, 71, 0
2, 26580, Note_on_c, 0, 71, 56
2, 26604, Note_on_c, 0, 71, 0
2, 26610, Note_on_c, 0, 74, 56
2, 26640, Note_on_c, 0, 77, 56
2, 26820, Note_on_c, 0, 77, 0
2, 26820, Note_on_c, 0, 74, 0
2, 26820, Note_on_c, 0, 72, 56
2, 26820, Note_on_c, 0, 75, 56
2, 26868, Note_on_c, 0, 75, 0
2, 26868, Note_on_c, 0, 72, 0
2, 26880, Note_on_c, 0, 71, 56
2, 26880, Note_on_c, 0, 74, 56
2, 26976, Note_on_c, 0, 74, 0
2, 26976, Note_on_c, 0, 71, 0
2, 27000, Note_on_c, 0, 75, 56
2, 27000, Note_on_c, 0, 79, 56
2, 27180, Note_on_c, 0, 79, 0
2, 27180, Note_on_c, 0, 75, 0
2, 27180, Note_on_c, 0, 74, 56
2, 27180, Note_on_c, 0, 77, 56
2, 27228, Note_on_c, 0, 77, 0
2, 27228, Note_on_c, 0, 74, 0
2, 27240, Note_on_c, 0, 72, 56
2, 27240, Note_on_c, 0, 75, 56
2, 27336, Note_on_c, 0, 75, 0
2, 27336, Note_on_c, 0, 72, 0
2, 27390, Note_on_c, 0, 73, 56
2, 27420, Note_on_c, 0, 73, 0
2, 27420, Note_on_c, 0, 72, 56
2, 27450, Note_on_c, 0, 72, 0
2, 27450, Note_on_c, 0, 73, 56
2, 27480, Note_on_c, 0, 73, 0
2, 27480, Note_on_c, 0, 75, 56
2, 27510, Note_on_c, 0, 75, 0
2, 27510, Note_on_c, 0, 73, 56
2, 27540, Note_on_c, 0, 73, 0
2, 27540, Note_on_c, 0, 77, 56
2, 27570, Note_on_c, 0, 77, 0
2, 27570, Note_on_c, 0, 75, 56
2, 27600, Note_on_c, 0, 75, 0
2, 27600, Note_on_c, 0, 79, 56
2, 27630, Note_on_c, 0, 79, 0
2, 27630, Note_on_c, 0, 77, 56
2, 27660, Note_on_c, 0, 77, 0
2, 27660, Note_on_c, 0, 75, 56
2, 27690, Note_on_c, 0, 75, 0
2, 27690, Note_on_c, 0, 73, 56
2, 27720, Note_on_c, 0, 73, 0
2, 27720, Note_on_c, 0, 72, 56
2, 27840, Note_on_c, 0, 72, 0
2, 27840, Note_on_c, 0, 74, 56
2, 27855, Note_on_c, 0, 74, 0
2, 27855, Note_on_c, 0, 72, 56
2, 27870, Note_on_c, 0, 72, 0
2, 27870, Note_on_c, 0, 71, 56
2, 27885, Note_on_c, 0, 71, 0
2, 27885, Note_on_c, 0, 72, 56
2, 27900, Note_on_c, 0, 72, 0
2, 27900, Note_on_c, 0, 74, 56
2, 27960, Note_on_c, 0, 74, 0
2, 27960, Note_on_c, 0, 71, 56
2, 28080, Note_on_c, 0, 71, 0
2, 28080, Note_on_c, 0, 79, 80
2, 28260, Note_on_c, 0, 79, 0
2, 28260, Note_on_c, 0, 77, 80
2, 28290, Note_on_c, 0, 77, 0
2, 28290, Note_on_c, 0, 75, 80
2, 28320, Note_on_c, 0, 75, 0
2, 28320, Note_on_c, 0, 74, 80
2, 28350, Note_on_c, 0, 74, 0
2, 28350, Note_on_c, 0, 72, 80
2, 28380, Note_on_c, 0, 72, 0
2, 28380, Note_on_c, 0, 71, 80
2, 28410, Note_on_c, 0, 71, 0
2, 28410, Note_on_c, 0, 72, 80
2, 28440, Note_on_c, 0, 72, 0
2, 28440, Note_on_c, 0, 72, 80
2, 28620, Note_on_c, 0, 72, 0
2, 28620, Note_on_c, 0, 70, 80
2, 28650, Note_on_c, 0, 70, 0
2, 28650, Note_on_c, 0, 68, 80
2, 28680, Note_on_c, 0, 68, 0
2, 28680, Note_on_c, 0, 67, 80
2, 28710, Note_on_c, 0, 67, 0
2, 28710, Note_on_c, 0, 68, 80
2, 28740, Note_on_c, 0, 68, 0
2, 28740, Note_on_c, 0, 67, 80
2, 28770, Note_on_c, 0, 67, 0
2, 28770, Note_on_c, 0, 68, 80
2, 28800, Note_on_c, 0, 68, 0
2, 28800, Note_on_c, 0, 59, 80
2, 28800, Note_on_c, 0, 62, 80
2, 28800, Note_on_c, 0, 65, 80
2, 28800, Note_on_c, 0, 68, 80
2, 28980, Note_on_c, 0, 68, 0
2, 28980, Note_on_c, 0, 59, 0
2, 28980, Note_on_c, 0, 62, 0
2, 28980, Note_on_c, 0, 65, 0
2, 28980, Note_on_c, 0, 67, 80
2, 29040, Note_on_c, 0, 67, 0
2, 29040, Note_on_c, 0, 62, 80
2, 29040, Note_on_c, 0, 65, 80
2, 29160, Note_on_c, 0, 65, 0
2, 29160, Note_on_c, 0, 62, 0
2, 29160, Note_on_c, 0, 62, 80
2, 29160, Note_on_c, 0, 65, 80
2, 29400, Note_on_c, 0, 65, 0
2, 29400, Note_on_c, 0, 62, 0
2, 29400, Note_on_c, 0, 60, 80
2, 29400, Note_on_c, 0, 63, 80
2, 29520, Note_on_c, 0, 63, 0
2, 29520, Note_on_c, 0, 60, 0
2, 29520, Note_on_c, 0, 56, 80
2, 29520, Note_on_c, 0, 62, 80
2, 29700, Note_on_c, 0, 62, 0
2, 29700, Note_on_c, 0, 63, 80
2, 29760, Note_on_c, 0, 63, 0
2, 29760, Note_on_c, 0, 56, 0
2, 29760, Note_on_c, 0, 65, 80
2, 29880, Note_on_c, 0, 65, 0
2, 29880, Note_on_c, 0, 55, 80
2, 29880, Note_on_c, 0, 60, 80
2, 30060, Note_on_c, 0, 60, 0
2, 30060, Note_on_c, 0, 62, 80
2, 30120, Note_on_c, 0, 62, 0
2, 30120, Note_on_c, 0, 55, 0
2, 30120, Note_on_c, 0, 59, 80
2, 30240, Note_on_c, 0, 59, 0
2, 30240, Note_on_c, 0, 60, 72
2, 30600, Note_on_c, 0, 60, 0
2, 30720, Note_on_c, 0, 63, 56
2, 30750, Note_on_c, 0, 63, 0
2, 30750, Note_on_c, 0, 62, 56
2, 30780, Note_on_c, 0, 62, 0
2, 30780, Note_on_c, 0, 65, 56
2, 30810, Note_on_c, 0, 65, 0
2, 30810, Note_on_c, 0, 63, 56
2, 30840, Note_on_c, 0, 63, 0
2, 30840, Note_on_c, 0, 67, 56
2, 30870, Note_on_c, 0, 67, 0
2, 30870, Note_on_c, 0, 65, 56
2, 30900, Note_on_c, 0, 65, 0
2, 30900, Note_on_c, 0, 63, 56
2, 30930, Note_on_c, 0, 63, 0
2, 30930, Note_on_c, 0, 62, 56
2, 30960, Note_on_c, 0, 62, 0
2, 30960, Note_on_c, 0, 60, 56
2, 30990, Note_on_c, 0, 60, 0
2, 30990, Note_on_c, 0, 59, 56
2, 31020, Note_on_c, 0, 59, 0
2, 31020, Note_on_c, 0, 62, 56
2, 31050, Note_on_c, 0, 62, 0
2, 31050, Note_on_c, 0, 60, 56
2, 31080, Note_on_c, 0, 60, 0
2, 31080, Note_on_c, 0, 63, 56
2, 31110, Note_on_c, 0, 63, 0
2, 31110, Note_on_c, 0, 62, 56
2, 31140, Note_on_c, 0, 62, 0
2, 31140, Note_on_c, 0, 60, 56
2, 31170, Note_on_c, 0, 60, 0
2, 31170, Note_on_c, 0, 58, 56
2, 31200, Note_on_c, 0, 58, 0
2, 31200, Note_on_c, 0, 56, 56
2, 31230, Note_on_c, 0, 56, 0
2, 31230, Note_on_c, 0, 55, 56
2, 31260, Note_on_c, 0, 55, 0
2, 31260, Note_on_c, 0, 58, 56
2, 31290, Note_on_c, 0, 58, 0
2, 31290, Note_on_c, 0, 56, 56
2, 31320, Note_on_c, 0, 56, 0
2, 31320, Note_on_c, 0, 60, 56
2, 31350, Note_on_c, 0, 60, 0
2, 31350, Note_on_c, 0, 58, 56
2, 31380, Note_on_c, 0, 58, 0
2, 31380, Note_on_c, 0, 56, 56
2, 31410, Note_on_c, 0, 56, 0
2, 31410, Note_on_c, 0, 55, 56
2, 31440, Note_on_c, 0, 55, 0
2, 31440, Note_on_c, 0, 54, 56
2, 31500, Note_on_c, 0, 51, 56
2, 31560, Note_on_c, 0, 51, 0
2, 31560, Note_on_c, 0, 50, 56
2, 31576, Note_on_c, 0, 50, 0
2, 31580, Note_on_c, 0, 51, 56
2, 31596, Note_on_c, 0, 51, 0
2, 31600, Note_on_c, 0, 50, 56
2, 31616, Note_on_c, 0, 50, 0
2, 31620, Note_on_c, 0, 48, 56
2, 31668, Note_on_c, 0, 48, 0
2, 31668, Note_on_c, 0, 54, 0
2, 31680, Note_on_c, 0, 47, 56
2, 31680, Note_on_c, 0, 50, 56
2, 31680, Note_on_c, 0, 55, 56
2, 31890, Note_on_c, 0, 50, 0
2, 31890, Note_on_c, 0, 47, 0
2, 31890, Note_on_c, 0, 53, 56
2, 31920, Note_on_c, 0, 53, 0
2, 31920, Note_on_c, 0, 48, 56
2, 31920, Note_on_c, 0, 51, 56
2, 32004, Note_on_c, 0, 51, 0
2, 32004, Note_on_c, 0, 48, 0
2, 32004, Note_on_c, 0, 55, 0
2, 32040, Note_on_c, 0, 55, 56
2, 32040, Note_on_c, 0, 50, 56
2, 32040, Note_on_c, 0, 47, 56
2, 32250, Note_on_c, 0, 47, 0
2, 32250, Note_on_c, 0, 50, 0
2, 32250, Note_on_c, 0, 53, 56
2, 32280, Note_on_c, 0, 53, 0
2, 32280, Note_on_c, 0, 51, 56
2, 32280, Note_on_c, 0, 48, 56
2, 32364, Note_on_c, 0, 48, 0
2, 32364, Note_on_c, 0, 51, 0
2, 32364, Note_on_c, 0, 55, 0
2, 32400, Note_on_c, 0, 55, 56
2, 32400, Note_on_c, 0, 50, 56
2, 32400, Note_on_c, 0, 47, 56
2, 32484, Note_on_c, 0, 47, 0
2, 32484, Note_on_c, 0, 50, 0
2, 32484, Note_on_c, 0, 55, 0
2, 32520, Note_on_c, 0, 55, 48
2, 32520, Note_on_c, 0, 50, 48
2, 32520, Note_on_c, 0, 47, 48
2, 32604, Note_on_c, 0, 47, 0
2, 32604, Note_on_c, 0, 50, 0
2, 32604, Note_on_c, 0, 55, 0
2, 32640, Note_on_c, 0, 55, 40
2, 32640, Note_on_c, 0, 50, 40
2, 32640, Note_on_c, 0, 47, 40
2, 32724, Note_on_c, 0, 47, 0
2, 32724, Note_on_c, 0, 50, 0
2, 32724, Note_on_c, 0, 55, 0
2, 32760, Note_on_c, 0, 55, 32
2, 32760, Note_on_c, 0, 50, 32
2, 32760, Note_on_c, 0, 47, 32
2, 33048, Note_on_c, 0, 47, 0
2, 33048, Note_on_c, 0, 50, 0
2, 33048, Note_on_c, 0, 55, 0
2, 33048, End_track
3, 0, Start_track
3, 0, MIDI_port, 0
3, 0, Title_t, "by FJ Haydn (2nd mvmt. - Adagio)"
3, 0, Program_c, 1, 0
3, 0, Control_c, 1, 7, 112
3, 0, Control_c, 1, 10, 56
3, 960, Note_on_c, 1, 48, 56
3, 960, Note_on_c, 1, 51, 56
3, 1080, Note_on_c, 1, 51, 0
3, 1080, Note_on_c, 1, 48, 0
3, 1080, Note_on_c, 1, 50, 64
3, 1080, Note_on_c, 1, 53, 64
3, 1140, Note_on_c, 1, 53, 0
3, 1140, Note_on_c, 1, 50, 0
3, 1680, Note_on_c, 1, 50, 56
3, 1680, Note_on_c, 1, 53, 56
3, 1800, Note_on_c, 1, 53, 0
3, 1800, Note_on_c, 1, 50, 0
3, 1800, Note_on_c, 1, 51, 64
3, 1800, Note_on_c, 1, 55, 64
3, 1860, Note_on_c, 1, 55, 0
3, 1860, Note_on_c, 1, 51, 0
3, 2400, Note_on_c, 1, 51, 56
3, 2400, Note_on_c, 1, 60, 56
3, 2520, Note_on_c, 1, 60, 0
3, 2520, Note_on_c, 1, 51, 0
3, 2520, Note_on_c, 1, 53, 56
3, 2520, Note_on_c, 1, 60, 56
3, 2760, Note_on_c, 1, 60, 0
3, 2760, Note_on_c, 1, 53, 0
3, 2760, Note_on_c, 1, 51, 56
3, 2760, Note_on_c, 1, 60, 56
3, 2880, Note_on_c, 1, 60, 0
3, 2880, Note_on_c, 1, 51, 0
3, 2880, Note_on_c, 1, 50, 56
3, 2880, Note_on_c, 1, 59, 56
3, 3120, Note_on_c, 1, 59, 0
3, 3120, Note_on_c, 1, 50, 0
3, 3120, Note_on_c, 1, 48, 56
3, 3120, Note_on_c, 1, 60, 56
3, 3240, Note_on_c, 1, 60, 0
3, 3240, Note_on_c, 1, 48, 0
3, 3240, Note_on_c, 1, 43, 56
3, 3240, Note_on_c, 1, 55, 56
3, 3300, Note_on_c, 1, 55, 0
3, 3300, Note_on_c, 1, 43, 0
3, 3840, Note_on_c, 1, 55, 80
3, 3840, Note_on_c, 1, 51, 80
3, 3960, Note_on_c, 1, 51, 0
3, 3960, Note_on_c, 1, 55, 0
3, 3960, Note_on_c, 1, 56, 80
3, 3960, Note_on_c, 1, 53, 80
3, 4020, Note_on_c, 1, 53, 0
3, 4020, Note_on_c, 1, 56, 0
3, 4560, Note_on_c, 1, 58, 80
3, 4560, Note_on_c, 1, 50, 80
3, 4680, Note_on_c, 1, 50, 0
3, 4680, Note_on_c, 1, 51, 80
3, 4740, Note_on_c, 1, 51, 0
3, 4740, Note_on_c, 1, 58, 0
3, 5280, Note_on_c, 1, 63, 56
3, 5280, Note_on_c, 1, 67, 56
3, 5400, Note_on_c, 1, 67, 0
3, 5400, Note_on_c, 1, 63, 0
3, 5400, Note_on_c, 1, 62, 56
3, 5400, Note_on_c, 1, 65, 56
3, 5640, Note_on_c, 1, 65, 0
3, 5640, Note_on_c, 1, 62, 0
3, 5640, Note_on_c, 1, 60, 56
3, 5640, Note_on_c, 1, 63, 56
3, 5760, Note_on_c, 1, 63, 0
3, 5760, Note_on_c, 1, 60, 0
3, 5760, Note_on_c, 1, 58, 56
3, 5760, Note_on_c, 1, 62, 56
3, 6000, Note_on_c, 1, 62, 0
3, 6000, Note_on_c, 1, 58, 0
3, 6000, Note_on_c, 1, 56, 56
3, 6000, Note_on_c, 1, 60, 56
3, 6120, Note_on_c, 1, 60, 0
3, 6120, Note_on_c, 1, 56, 0
3, 6120, Note_on_c, 1, 56, 80
3, 6120, Note_on_c, 1, 58, 80
3, 6120, Note_on_c, 1, 62, 80
3, 6120, Note_on_c, 1, 65, 80
3, 6360, Note_on_c, 1, 65, 0
3, 6360, Note_on_c, 1, 56, 0
3, 6360, Note_on_c, 1, 58, 0
3, 6360, Note_on_c, 1, 62, 0
3, 6360, Note_on_c, 1, 55, 80
3, 6360, Note_on_c, 1, 58, 80
3, 6360, Note_on_c, 1, 63, 80
3, 6480, Note_on_c, 1, 63, 0
3, 6480, Note_on_c, 1, 58, 0
3, 6480, Note_on_c, 1, 55, 0
3, 6480, Note_on_c, 1, 56, 80
3, 6480, Note_on_c, 1, 60, 80
3, 6600, Note_on_c, 1, 60, 0
3, 6600, Note_on_c, 1, 56, 0
3, 6600, Note_on_c, 1, 46, 80
3, 6600, Note_on_c, 1, 55, 80
3, 6720, Note_on_c, 1, 55, 0
3, 6720, Note_on_c, 1, 46, 0
3, 6720, Note_on_c, 1, 46, 80
3, 6720, Note_on_c, 1, 53, 80
3, 6840, Note_on_c, 1, 53, 0
3, 6840, Note_on_c, 1, 46, 0
3, 6840, Note_on_c, 1, 39, 56
3, 6900, Note_on_c, 1, 39, 0
3, 6900, Note_on_c, 1, 51, 56
3, 6960, Note_on_c, 1, 51, 0
3, 6960, Note_on_c, 1, 43, 56
3, 7020, Note_on_c, 1, 43, 0
3, 7020, Note_on_c, 1, 51, 56
3, 7080, Note_on_c, 1, 51, 0
3, 7080, Note_on_c, 1, 39, 56
3, 7140, Note_on_c, 1, 39, 0
3, 7140, Note_on_c, 1, 51, 56
3, 7200, Note_on_c, 1, 51, 0
3, 7200, Note_on_c, 1, 44, 56
3, 7260, Note_on_c, 1, 44, 0
3, 7260, Note_on_c, 1, 56, 56
3, 7320, Note_on_c, 1, 56, 0
3, 7320, Note_on_c, 1, 48, 56
3, 7380, Note_on_c, 1, 48, 0
3, 7380, Note_on_c, 1, 56, 56
3, 7440, Note_on_c, 1, 56, 0
3, 7440, Note_on_c, 1, 44, 56
3, 7500, Note_on_c, 1, 44, 0
3, 7500, Note_on_c, 1, 56, 56
3, 7560, Note_on_c, 1, 56, 0
3, 7560, Note_on_c, 1, 46, 64
3, 7620, Note_on_c, 1, 46, 0
3, 7620, Note_on_c, 1, 58, 64
3, 7680, Note_on_c, 1, 58, 0
3, 7680, Note_on_c, 1, 50, 64
3, 7740, Note_on_c, 1, 50, 0
3, 7740, Note_on_c, 1, 58, 64
3, 7800, Note_on_c, 1, 58, 0
3, 7800, Note_on_c, 1, 46, 64
3, 7860, Note_on_c, 1, 46, 0
3, 7860, Note_on_c, 1, 58, 64
3, 7920, Note_on_c, 1, 58, 0
3, 7920, Note_on_c, 1, 48, 64
3, 7980, Note_on_c, 1, 48, 0
3, 7980, Note_on_c, 1, 60, 64
3, 8040, Note_on_c, 1, 60, 0
3, 8040, Note_on_c, 1, 59, 64
3, 8100, Note_on_c, 1, 59, 0
3, 8100, Note_on_c, 1, 60, 64
3, 8160, Note_on_c, 1, 60, 0
3, 8160, Note_on_c, 1, 48, 64
3, 8220, Note_on_c, 1, 48, 0
3, 8220, Note_on_c, 1, 60, 64
3, 8280, Note_on_c, 1, 60, 0
3, 8280, Note_on_c, 1, 43, 72
3, 8340, Note_on_c, 1, 43, 0
3, 8340, Note_on_c, 1, 51, 72
3, 8400, Note_on_c, 1, 51, 0
3, 8400, Note_on_c, 1, 46, 72
3, 8460, Note_on_c, 1, 46, 0
3, 8460, Note_on_c, 1, 51, 72
3, 8520, Note_on_c, 1, 51, 0
3, 8520, Note_on_c, 1, 43, 72
3, 8580, Note_on_c, 1, 43, 0
3, 8580, Note_on_c, 1, 51, 72
3, 8640, Note_on_c, 1, 51, 0
3, 8640, Note_on_c, 1, 44, 72
3, 8700, Note_on_c, 1, 44, 0
3, 8700, Note_on_c, 1, 56, 72
3, 8760, Note_on_c, 1, 56, 0
3, 8760, Note_on_c, 1, 51, 72
3, 8820, Note_on_c, 1, 51, 0
3, 8820, Note_on_c, 1, 56, 72
3, 8880, Note_on_c, 1, 56, 0
3, 8880, Note_on_c, 1, 44, 72
3, 8940, Note_on_c, 1, 44, 0
3, 8940, Note_on_c, 1, 56, 72
3, 9000, Note_on_c, 1, 56, 0
3, 9000, Note_on_c, 1, 46, 72
3, 9060, Note_on_c, 1, 46, 0
3, 9060, Note_on_c, 1, 55, 72
3, 9120, Note_on_c, 1, 55, 0
3, 9120, Note_on_c, 1, 51, 72
3, 9180, Note_on_c, 1, 51, 0
3, 9180, Note_on_c, 1, 55, 72
3, 9240, Note_on_c, 1, 55, 0
3, 9240, Note_on_c, 1, 46, 72
3, 9300, Note_on_c, 1, 46, 0
3, 9300, Note_on_c, 1, 56, 72
3, 9360, Note_on_c, 1, 56, 0
3, 9360, Note_on_c, 1, 51, 72
3, 9360, Note_on_c, 1, 55, 72
3, 9444, Note_on_c, 1, 55, 0
3, 9444, Note_on_c, 1, 51, 0
3, 10320, Note_on_c, 1, 48, 56
3, 10320, Note_on_c, 1, 51, 56
3, 10440, Note_on_c, 1, 51, 0
3, 10440, Note_on_c, 1, 48, 0
3, 10440, Note_on_c, 1, 50, 56
3, 10440, Note_on_c, 1, 53, 56
3, 10485, Note_on_c, 1, 53, 0
3, 10485, Note_on_c, 1, 50, 0
3, 10530, Note_on_c, 1, 62, 56
3, 10540, Note_on_c, 1, 65, 56
3, 10550, Note_on_c, 1, 68, 56
3, 10560, Note_on_c, 1, 71, 56
3, 10680, Note_on_c, 1, 71, 0
3, 10680, Note_on_c, 1, 62, 0
3, 10680, Note_on_c, 1, 65, 0
3, 10680, Note_on_c, 1, 68, 0
3, 11040, Note_on_c, 1, 53, 56
3, 11040, Note_on_c, 1, 50, 56
3, 11160, Note_on_c, 1, 50, 0
3, 11160, Note_on_c, 1, 53, 0
3, 11160, Note_on_c, 1, 55, 56
3, 11160, Note_on_c, 1, 51, 56
3, 11213, Note_on_c, 1, 51, 0
3, 11213, Note_on_c, 1, 55, 0
3, 11265, Note_on_c, 1, 63, 56
3, 11269, Note_on_c, 1, 67, 56
3, 11273, Note_on_c, 1, 72, 56
3, 11277, Note_on_c, 1, 75, 56
3, 11397, Note_on_c, 1, 75, 0
3, 11397, Note_on_c, 1, 63, 0
3, 11397, Note_on_c, 1, 67, 0
3, 11397, Note_on_c, 1, 72, 0
3, 11760, Note_on_c, 1, 60, 56
3, 11760, Note_on_c, 1, 51, 56
3, 11880, Note_on_c, 1, 51, 0
3, 11880, Note_on_c, 1, 60, 0
3, 11880, Note_on_c, 1, 60, 56
3, 11880, Note_on_c, 1, 53, 56
3, 12120, Note_on_c, 1, 53, 0
3, 12120, Note_on_c, 1, 60, 0
3, 12120, Note_on_c, 1, 60, 56
3, 12120, Note_on_c, 1, 51, 56
3, 12240, Note_on_c, 1, 51, 0
3, 12240, Note_on_c, 1, 60, 0
3, 12240, Note_on_c, 1, 59, 56
3, 12240, Note_on_c, 1, 50, 56
3, 12480, Note_on_c, 1, 50, 0
3, 12480, Note_on_c, 1, 59, 0
3, 12480, Note_on_c, 1, 60, 56
3, 12480, Note_on_c, 1, 48, 56
3, 12600, Note_on_c, 1, 48, 0
3, 12600, Note_on_c, 1, 60, 0
3, 12600, Note_on_c, 1, 55, 56
3, 12600, Note_on_c, 1, 43, 56
3, 12660, Note_on_c, 1, 43, 0
3, 12660, Note_on_c, 1, 55, 0
3, 13200, Note_on_c, 1, 55, 80
3, 13200, Note_on_c, 1, 51, 80
3, 13320, Note_on_c, 1, 51, 0
3, 13320, Note_on_c, 1, 55, 0
3, 13320, Note_on_c, 1, 56, 80
3, 13320, Note_on_c, 1, 53, 80
3, 13380, Note_on_c, 1, 53, 0
3, 13380, Note_on_c, 1, 56, 0
3, 13920, Note_on_c, 1, 46, 80
3, 13920, Note_on_c, 1, 53, 80
3, 14040, Note_on_c, 1, 53, 0
3, 14040, Note_on_c, 1, 46, 0
3, 14040, Note_on_c, 1, 51, 80
3, 14100, Note_on_c, 1, 51, 0
3, 14640, Note_on_c, 1, 63, 56
3, 14640, Note_on_c, 1, 67, 56
3, 14760, Note_on_c, 1, 67, 0
3, 14760, Note_on_c, 1, 63, 0
3, 14760, Note_on_c, 1, 62, 56
3, 14760, Note_on_c, 1, 65, 56
3, 15000, Note_on_c, 1, 65, 0
3, 15000, Note_on_c, 1, 62, 0
3, 15000, Note_on_c, 1, 60, 56
3, 15000, Note_on_c, 1, 63, 56
3, 15120, Note_on_c, 1, 63, 0
3, 15120, Note_on_c, 1, 60, 0
3, 15120, Note_on_c, 1, 58, 56
3, 15120, Note_on_c, 1, 62, 56
3, 15360, Note_on_c, 1, 62, 0
3, 15360, Note_on_c, 1, 58, 0
3, 15360, Note_on_c, 1, 56, 56
3, 15360, Note_on_c, 1, 60, 56
3, 15480, Note_on_c, 1, 60, 0
3, 15480, Note_on_c, 1, 56, 0
3, 15480, Note_on_c, 1, 56, 80
3, 15480, Note_on_c, 1, 58, 80
3, 15480, Note_on_c, 1, 62, 80
3, 15480, Note_on_c, 1, 65, 80
3, 15720, Note_on_c, 1, 65, 0
3, 15720, Note_on_c, 1, 56, 0
3, 15720, Note_on_c, 1, 58, 0
3, 15720, Note_on_c, 1, 62, 0
3, 15720, Note_on_c, 1, 55, 80
3, 15720, Note_on_c, 1, 58, 80
3, 15720, Note_on_c, 1, 63, 80
3, 15840, Note_on_c, 1, 63, 0
3, 15840, Note_on_c, 1, 58, 0
3, 15840, Note_on_c, 1, 55, 0
3, 15840, Note_on_c, 1, 56, 80
3, 15840, Note_on_c, 1, 60, 80
3, 15960, Note_on_c, 1, 60, 0
3, 15960, Note_on_c, 1, 56, 0
3, 15960, Note_on_c, 1, 46, 80
3, 15960, Note_on_c, 1, 55, 80
3, 16080, Note_on_c, 1, 55, 0
3, 16080, Note_on_c, 1, 46, 0
3, 16080, Note_on_c, 1, 46, 80
3, 16080, Note_on_c, 1, 53, 80
3, 16200, Note_on_c, 1, 53, 0
3, 16200, Note_on_c, 1, 46, 0
3, 16200, Note_on_c, 1, 39, 56
3, 16260, Note_on_c, 1, 39, 0
3, 16260, Note_on_c, 1, 51, 56
3, 16320, Note_on_c, 1, 51, 0
3, 16320, Note_on_c, 1, 43, 56
3, 16380, Note_on_c, 1, 43, 0
3, 16380, Note_on_c, 1, 51, 56
3, 16440, Note_on_c, 1, 51, 0
3, 16440, Note_on_c, 1, 39, 56
3, 16500, Note_on_c, 1, 39, 0
3, 16500, Note_on_c, 1, 51, 56
3, 16560, Note_on_c, 1, 51, 0
3, 16560, Note_on_c, 1, 44, 56
3, 16620, Note_on_c, 1, 44, 0
3, 16620, Note_on_c, 1, 56, 56
3, 16680, Note_on_c, 1, 56, 0
3, 16680, Note_on_c, 1, 48, 56
3, 16740, Note_on_c, 1, 48, 0
3, 16740, Note_on_c, 1, 56, 56
3, 16800, Note_on_c, 1, 56, 0
3, 16800, Note_on_c, 1, 44, 56
3, 16860, Note_on_c, 1, 44, 0
3, 16860, Note_on_c, 1, 56, 56
3, 16920, Note_on_c, 1, 56, 0
3, 16920, Note_on_c, 1, 46, 64
3, 16980, Note_on_c, 1, 46, 0
3, 16980, Note_on_c, 1, 58, 64
3, 17040, Note_on_c, 1, 58, 0
3, 17040, Note_on_c, 1, 50, 64
3, 17100, Note_on_c, 1, 50, 0
3, 17100, Note_on_c, 1, 58, 64
3, 17160, Note_on_c, 1, 58, 0
3, 17160, Note_on_c, 1, 46, 64
3, 17220, Note_on_c, 1, 46, 0
3, 17220, Note_on_c, 1, 58, 64
3, 17280, Note_on_c, 1, 58, 0
3, 17280, Note_on_c, 1, 48, 64
3, 17340, Note_on_c, 1, 48, 0
3, 17340, Note_on_c, 1, 60, 64
3, 17400, Note_on_c, 1, 60, 0
3, 17400, Note_on_c, 1, 59, 64
3, 17460, Note_on_c, 1, 59, 0
3, 17460, Note_on_c, 1, 60, 64
3, 17520, Note_on_c, 1, 60, 0
3, 17520, Note_on_c, 1, 48, 64
3, 17580, Note_on_c, 1, 48, 0
3, 17580, Note_on_c, 1, 60, 64
3, 17640, Note_on_c, 1, 60, 0
3, 17640, Note_on_c, 1, 43, 72
3, 17670, Note_on_c, 1, 43, 0
3, 17670, Note_on_c, 1, 51, 72
3, 17700, Note_on_c, 1, 51, 0
3, 17700, Note_on_c, 1, 46, 72
3, 17730, Note_on_c, 1, 46, 0
3, 17730, Note_on_c, 1, 51, 72
3, 17760, Note_on_c, 1, 51, 0
3, 17760, Note_on_c, 1, 43, 72
3, 17790, Note_on_c, 1, 43, 0
3, 17790, Note_on_c, 1, 51, 72
3, 17820, Note_on_c, 1, 51, 0
3, 17820, Note_on_c, 1, 46, 72
3, 17850, Note_on_c, 1, 46, 0
3, 17850, Note_on_c, 1, 51, 72
3, 17880, Note_on_c, 1, 51, 0
3, 17880, Note_on_c, 1, 43, 72
3, 17910, Note_on_c, 1, 43, 0
3, 17910, Note_on_c, 1, 51, 72
3, 17940, Note_on_c, 1, 51, 0
3, 17940, Note_on_c, 1, 46, 72
3, 17970, Note_on_c, 1, 46, 0
3, 17970, Note_on_c, 1, 51, 72
3, 18000, Note_on_c, 1, 51, 0
3, 18000, Note_on_c, 1, 44, 72
3, 18030, Note_on_c, 1, 44, 0
3, 18030, Note_on_c, 1, 56, 72
3, 18060, Note_on_c, 1, 56, 0
3, 18060, Note_on_c, 1, 51, 72
3, 18090, Note_on_c, 1, 51, 0
3, 18090, Note_on_c, 1, 56, 72
3, 18120, Note_on_c, 1, 56, 0
3, 18120, Note_on_c, 1, 44, 72
3, 18150, Note_on_c, 1, 44, 0
3, 18150, Note_on_c, 1, 56, 72
3, 18180, Note_on_c, 1, 56, 0
3, 18180, Note_on_c, 1, 51, 72
3, 18210, Note_on_c, 1, 51, 0
3, 18210, Note_on_c, 1, 56, 72
3, 18240, Note_on_c, 1, 56, 0
3, 18240, Note_on_c, 1, 44, 72
3, 18270, Note_on_c, 1, 44, 0
3, 18270, Note_on_c, 1, 56, 72
3, 18300, Note_on_c, 1, 56, 0
3, 18300, Note_on_c, 1, 51, 72
3, 18330, Note_on_c, 1, 51, 0
3, 18330, Note_on_c, 1, 56, 72
3, 18360, Note_on_c, 1, 56, 0
3, 18360, Note_on_c, 1, 46, 72
3, 18390, Note_on_c, 1, 46, 0
3, 18390, Note_on_c, 1, 55, 72
3, 18420, Note_on_c, 1, 55, 0
3, 18420, Note_on_c, 1, 51, 72
3, 18450, Note_on_c, 1, 51, 0
3, 18450, Note_on_c, 1, 55, 72
3, 18480, Note_on_c, 1, 55, 0
3, 18480, Note_on_c, 1, 46, 72
3, 18510, Note_on_c, 1, 46, 0
3, 18510, Note_on_c, 1, 55, 72
3, 18540, Note_on_c, 1, 55, 0
3, 18540, Note_on_c, 1, 51, 72
3, 18570, Note_on_c, 1, 51, 0
3, 18570, Note_on_c, 1, 55, 72
3, 18600, Note_on_c, 1, 55, 0
3, 18600, Note_on_c, 1, 46, 72
3, 18630, Note_on_c, 1, 46, 0
3, 18630, Note_on_c, 1, 56, 72
3, 18660, Note_on_c, 1, 56, 0
3, 18660, Note_on_c, 1, 53, 72
3, 18690, Note_on_c, 1, 53, 0
3, 18690, Note_on_c, 1, 56, 72
3, 18720, Note_on_c, 1, 56, 0
3, 18720, Note_on_c, 1, 51, 88
3, 18720, Note_on_c, 1, 55, 88
3, 18840, Note_on_c, 1, 55, 0
3, 18840, Note_on_c, 1, 51, 0
3, 19680, Note_on_c, 1, 63, 56
3, 19680, Note_on_c, 1, 67, 56
3, 19800, Note_on_c, 1, 67, 0
3, 19800, Note_on_c, 1, 63, 0
3, 19800, Note_on_c, 1, 65, 56
3, 19800, Note_on_c, 1, 68, 56
3, 19860, Note_on_c, 1, 68, 0
3, 19860, Note_on_c, 1, 65, 0
3, 20400, Note_on_c, 1, 62, 56
3, 20400, Note_on_c, 1, 70, 56
3, 20520, Note_on_c, 1, 70, 0
3, 20520, Note_on_c, 1, 62, 0
3, 20520, Note_on_c, 1, 63, 56
3, 20520, Note_on_c, 1, 70, 56
3, 20580, Note_on_c, 1, 70, 0
3, 20580, Note_on_c, 1, 63, 0
3, 20880, Note_on_c, 1, 51, 80
3, 20940, Note_on_c, 1, 61, 80
3, 21000, Note_on_c, 1, 61, 0
3, 21000, Note_on_c, 1, 58, 80
3, 21060, Note_on_c, 1, 58, 0
3, 21060, Note_on_c, 1, 61, 80
3, 21120, Note_on_c, 1, 61, 0
3, 21120, Note_on_c, 1, 58, 80
3, 21180, Note_on_c, 1, 58, 0
3, 21180, Note_on_c, 1, 61, 80
3, 21240, Note_on_c, 1, 61, 0
3, 21240, Note_on_c, 1, 51, 0
3, 21240, Note_on_c, 1, 52, 80
3, 21300, Note_on_c, 1, 60, 80
3, 21360, Note_on_c, 1, 60, 0
3, 21360, Note_on_c, 1, 59, 80
3, 21420, Note_on_c, 1, 59, 0
3, 21420, Note_on_c, 1, 60, 80
3, 21480, Note_on_c, 1, 60, 0
3, 21480, Note_on_c, 1, 55, 80
3, 21540, Note_on_c, 1, 55, 0
3, 21540, Note_on_c, 1, 60, 80
3, 21600, Note_on_c, 1, 60, 0
3, 21600, Note_on_c, 1, 52, 0
3, 21600, Note_on_c, 1, 53, 80
3, 21660, Note_on_c, 1, 60, 80
3, 21720, Note_on_c, 1, 60, 0
3, 21720, Note_on_c, 1, 59, 80
3, 21780, Note_on_c, 1, 59, 0
3, 21780, Note_on_c, 1, 60, 80
3, 21840, Note_on_c, 1, 60, 0
3, 21840, Note_on_c, 1, 59, 80
3, 21900, Note_on_c, 1, 59, 0
3, 21900, Note_on_c, 1, 60, 80
3, 21960, Note_on_c, 1, 60, 0
3, 21960, Note_on_c, 1, 53, 0
3, 21960, Note_on_c, 1, 53, 80
3, 22020, Note_on_c, 1, 62, 80
3, 22080, Note_on_c, 1, 62, 0
3, 22080, Note_on_c, 1, 59, 80
3, 22140, Note_on_c, 1, 59, 0
3, 22140, Note_on_c, 1, 62, 80
3, 22200, Note_on_c, 1, 62, 0
3, 22200, Note_on_c, 1, 59, 80
3, 22260, Note_on_c, 1, 59, 0
3, 22260, Note_on_c, 1, 62, 80
3, 22320, Note_on_c, 1, 62, 0
3, 22320, Note_on_c, 1, 53, 0
3, 22320, Note_on_c, 1, 51, 80
3, 22380, Note_on_c, 1, 60, 80
3, 22440, Note_on_c, 1, 60, 0
3, 22440, Note_on_c, 1, 55, 80
3, 22500, Note_on_c, 1, 55, 0
3, 22500, Note_on_c, 1, 60, 80
3, 22560, Note_on_c, 1, 60, 0
3, 22560, Note_on_c, 1, 51, 0
3, 22560, Note_on_c, 1, 51, 80
3, 22620, Note_on_c, 1, 60, 80
3, 22680, Note_on_c, 1, 60, 0
3, 22680, Note_on_c, 1, 51, 0
3, 22680, Note_on_c, 1, 47, 80
3, 22740, Note_on_c, 1, 55, 80
3, 22800, Note_on_c, 1, 55, 0
3, 22800, Note_on_c, 1, 50, 80
3, 22860, Note_on_c, 1, 50, 0
3, 22860, Note_on_c, 1, 55, 80
3, 22920, Note_on_c, 1, 55, 0
3, 22920, Note_on_c, 1, 47, 0
3, 22920, Note_on_c, 1, 48, 80
3, 22980, Note_on_c, 1, 55, 80
3, 23040, Note_on_c, 1, 55, 0
3, 23040, Note_on_c, 1, 48, 0
3, 23040, Note_on_c, 1, 43, 80
3, 23100, Note_on_c, 1, 43, 0
3, 23100, Note_on_c, 1, 55, 80
3, 23160, Note_on_c, 1, 55, 0
3, 23160, Note_on_c, 1, 50, 80
3, 23220, Note_on_c, 1, 50, 0
3, 23220, Note_on_c, 1, 55, 80
3, 23280, Note_on_c, 1, 55, 0
3, 23280, Note_on_c, 1, 47, 80
3, 23340, Note_on_c, 1, 47, 0
3, 23340, Note_on_c, 1, 50, 80
3, 23400, Note_on_c, 1, 50, 0
3, 23400, Note_on_c, 1, 43, 80
3, 23460, Note_on_c, 1, 43, 0
3, 24000, Note_on_c, 1, 48, 56
3, 24000, Note_on_c, 1, 51, 56
3, 24120, Note_on_c, 1, 51, 0
3, 24120, Note_on_c, 1, 48, 0
3, 24120, Note_on_c, 1, 50, 56
3, 24120, Note_on_c, 1, 53, 56
3, 24192, Note_on_c, 1, 53, 0
3, 24192, Note_on_c, 1, 50, 0
3, 24720, Note_on_c, 1, 50, 56
3, 24720, Note_on_c, 1, 53, 56
3, 24840, Note_on_c, 1, 53, 0
3, 24840, Note_on_c, 1, 50, 0
3, 24840, Note_on_c, 1, 51, 56
3, 24840, Note_on_c, 1, 55, 56
3, 24960, Note_on_c, 1, 55, 0
3, 24960, Note_on_c, 1, 51, 0
3, 25440, Note_on_c, 1, 63, 80
3, 25440, Note_on_c, 1, 72, 80
3, 25560, Note_on_c, 1, 72, 0
3, 25560, Note_on_c, 1, 63, 0
3, 25560, Note_on_c, 1, 65, 80
3, 25560, Note_on_c, 1, 72, 80
3, 25800, Note_on_c, 1, 72, 0
3, 25800, Note_on_c, 1, 65, 0
3, 25800, Note_on_c, 1, 63, 80
3, 25800, Note_on_c, 1, 72, 80
3, 25920, Note_on_c, 1, 72, 0
3, 25920, Note_on_c, 1, 63, 0
3, 25920, Note_on_c, 1, 62, 80
3, 25920, Note_on_c, 1, 71, 80
3, 26112, Note_on_c, 1, 71, 0
3, 26112, Note_on_c, 1, 62, 0
3, 26160, Note_on_c, 1, 60, 80
3, 26160, Note_on_c, 1, 72, 80
3, 26256, Note_on_c, 1, 72, 0
3, 26256, Note_on_c, 1, 60, 0
3, 26280, Note_on_c, 1, 55, 80
3, 26280, Note_on_c, 1, 67, 80
3, 26376, Note_on_c, 1, 67, 0
3, 26376, Note_on_c, 1, 55, 0
3, 26880, Note_on_c, 1, 65, 56
3, 26976, Note_on_c, 1, 65, 0
3, 27000, Note_on_c, 1, 63, 56
3, 27192, Note_on_c, 1, 63, 0
3, 27240, Note_on_c, 1, 68, 56
3, 27336, Note_on_c, 1, 68, 0
3, 27360, Note_on_c, 1, 65, 56
3, 27600, Note_on_c, 1, 65, 0
3, 27720, Note_on_c, 1, 55, 56
3, 27720, Note_on_c, 1, 63, 56
3, 27960, Note_on_c, 1, 63, 0
3, 27960, Note_on_c, 1, 62, 56
3, 28080, Note_on_c, 1, 62, 0
3, 28080, Note_on_c, 1, 55, 0
3, 28080, Note_on_c, 1, 39, 64
3, 28140, Note_on_c, 1, 39, 0
3, 28140, Note_on_c, 1, 48, 64
3, 28200, Note_on_c, 1, 48, 0
3, 28200, Note_on_c, 1, 43, 64
3, 28260, Note_on_c, 1, 43, 0
3, 28260, Note_on_c, 1, 48, 64
3, 28320, Note_on_c, 1, 48, 0
3, 28320, Note_on_c, 1, 39, 64
3, 28380, Note_on_c, 1, 39, 0
3, 28380, Note_on_c, 1, 48, 64
3, 28440, Note_on_c, 1, 48, 0
3, 28440, Note_on_c, 1, 41, 64
3, 28500, Note_on_c, 1, 41, 0
3, 28500, Note_on_c, 1, 48, 64
3, 28560, Note_on_c, 1, 48, 0
3, 28560, Note_on_c, 1, 44, 64
3, 28620, Note_on_c, 1, 44, 0
3, 28620, Note_on_c, 1, 48, 64
3, 28680, Note_on_c, 1, 48, 0
3, 28680, Note_on_c, 1, 41, 64
3, 28740, Note_on_c, 1, 41, 0
3, 28740, Note_on_c, 1, 48, 64
3, 28800, Note_on_c, 1, 48, 0
3, 28800, Note_on_c, 1, 43, 64
3, 28860, Note_on_c, 1, 43, 0
3, 28860, Note_on_c, 1, 55, 64
3, 28920, Note_on_c, 1, 55, 0
3, 28920, Note_on_c, 1, 47, 64
3, 28980, Note_on_c, 1, 47, 0
3, 28980, Note_on_c, 1, 55, 64
3, 29040, Note_on_c, 1, 55, 0
3, 29040, Note_on_c, 1, 43, 64
3, 29100, Note_on_c, 1, 43, 0
3, 29100, Note_on_c, 1, 55, 64
3, 29160, Note_on_c, 1, 55, 0
3, 29160, Note_on_c, 1, 44, 64
3, 29220, Note_on_c, 1, 44, 0
3, 29220, Note_on_c, 1, 56, 64
3, 29280, Note_on_c, 1, 56, 0
3, 29280, Note_on_c, 1, 55, 64
3, 29340, Note_on_c, 1, 55, 0
3, 29340, Note_on_c, 1, 56, 64
3, 29400, Note_on_c, 1, 56, 0
3, 29400, Note_on_c, 1, 44, 64
3, 29460, Note_on_c, 1, 44, 0
3, 29460, Note_on_c, 1, 56, 64
3, 29520, Note_on_c, 1, 56, 0
3, 29520, Note_on_c, 1, 41, 64
3, 29580, Note_on_c, 1, 41, 0
3, 29580, Note_on_c, 1, 53, 64
3, 29640, Note_on_c, 1, 53, 0
3, 29640, Note_on_c, 1, 44, 64
3, 29700, Note_on_c, 1, 44, 0
3, 29700, Note_on_c, 1, 53, 64
3, 29760, Note_on_c, 1, 53, 0
3, 29760, Note_on_c, 1, 41, 64
3, 29820, Note_on_c, 1, 41, 0
3, 29820, Note_on_c, 1, 53, 64
3, 29880, Note_on_c, 1, 53, 0
3, 29880, Note_on_c, 1, 43, 64
3, 29940, Note_on_c, 1, 43, 0
3, 29940, Note_on_c, 1, 51, 64
3, 30000, Note_on_c, 1, 51, 0
3, 30000, Note_on_c, 1, 48, 64
3, 30060, Note_on_c, 1, 48, 0
3, 30060, Note_on_c, 1, 51, 64
3, 30120, Note_on_c, 1, 51, 0
3, 30120, Note_on_c, 1, 43, 64
3, 30120, Note_on_c, 1, 53, 64
3, 30240, Note_on_c, 1, 53, 0
3, 30240, Note_on_c, 1, 43, 0
3, 30240, Note_on_c, 1, 32, 72
3, 30240, Note_on_c, 1, 44, 72
3, 30240, Note_on_c, 1, 51, 72
3, 30600, Note_on_c, 1, 51, 0
3, 30600, Note_on_c, 1, 44, 0
3, 30600, Note_on_c, 1, 32, 0
3, 31560, Note_on_c, 1, 44, 56
3, 31560, Note_on_c, 1, 32, 56
3, 31680, Note_on_c, 1, 32, 0
3, 31680, Note_on_c, 1, 44, 0
3, 31680, Note_on_c, 1, 31, 56
3, 31710, Note_on_c, 1, 31, 0
3, 31710, Note_on_c, 1, 43, 56
3, 31740, Note_on_c, 1, 43, 0
3, 31740, Note_on_c, 1, 42, 56
3, 31770, Note_on_c, 1, 42, 0
3, 31770, Note_on_c, 1, 43, 56
3, 31800, Note_on_c, 1, 43, 0
3, 31800, Note_on_c, 1, 42, 56
3, 31830, Note_on_c, 1, 42, 0
3, 31830, Note_on_c, 1, 43, 56
3, 31860, Note_on_c, 1, 43, 0
3, 31860, Note_on_c, 1, 42, 56
3, 31890, Note_on_c, 1, 42, 0
3, 31890, Note_on_c, 1, 43, 56
3, 31920, Note_on_c, 1, 43, 0
3, 31920, Note_on_c, 1, 31, 56
3, 31950, Note_on_c, 1, 31, 0
3, 31950, Note_on_c, 1, 43, 56
3, 31980, Note_on_c, 1, 43, 0
3, 31980, Note_on_c, 1, 42, 56
3, 32010, Note_on_c, 1, 42, 0
3, 32010, Note_on_c, 1, 43, 56
3, 32040, Note_on_c, 1, 43, 0
3, 32040, Note_on_c, 1, 31, 56
3, 32070, Note_on_c, 1, 31, 0
3, 32070, Note_on_c, 1, 43, 56
3, 32100, Note_on_c, 1, 43, 0
3, 32100, Note_on_c, 1, 42, 56
3, 32130, Note_on_c, 1, 42, 0
3, 32130, Note_on_c, 1, 43, 56
3, 32160, Note_on_c, 1, 43, 0
3, 32160, Note_on_c, 1, 42, 56
3, 32190, Note_on_c, 1, 42, 0
3, 32190, Note_on_c, 1, 43, 56
3, 32220, Note_on_c, 1, 43, 0
3, 32220, Note_on_c, 1, 42, 56
3, 32250, Note_on_c, 1, 42, 0
3, 32250, Note_on_c, 1, 43, 56
3, 32280, Note_on_c, 1, 43, 0
3, 32280, Note_on_c, 1, 31, 56
3, 32310, Note_on_c, 1, 31, 0
3, 32310, Note_on_c, 1, 43, 56
3, 32340, Note_on_c, 1, 43, 0
3, 32340, Note_on_c, 1, 42, 56
3, 32370, Note_on_c, 1, 42, 0
3, 32370, Note_on_c, 1, 43, 56
3, 32400, Note_on_c, 1, 43, 0
3, 32400, Note_on_c, 1, 31, 56
3, 32484, Note_on_c, 1, 31, 0
3, 32520, Note_on_c, 1, 31, 48
3, 32520, Note_on_c, 1, 43, 48
3, 32604, Note_on_c, 1, 43, 0
3, 32604, Note_on_c, 1, 31, 0
3, 32640, Note_on_c, 1, 31, 40
3, 32640, Note_on_c, 1, 43, 40
3, 32724, Note_on_c, 1, 43, 0
3, 32724, Note_on_c, 1, 31, 0
3, 32760, Note_on_c, 1, 31, 32
3, 32760, Note_on_c, 1, 43, 32
3, 33048, Note_on_c, 1, 43, 0
3, 33048, Note_on_c, 1, 31, 0
3, 33048, End_track
4, 0, Start_track
4, 0, MIDI_port, 0
4, 0, Title_t, "MIDI by Marty Weimer 5/31/97"
4, 0, End_track
5, 0, Start_track
5, 0, MIDI_port, 0
5, 0, Title_t, "weimermt@libby.org Eureka, MT  USA"
5, 0, End_track
0, 0, End_of_file
