0, 0, Header, 1, 5, 240
1, 0, Start_track
1, 0, Time_signature, 2, 2, 24, 8
1, 0, Key_signature, 0, "major"
1, 0, Tempo, 333333
1, 18000, Tempo, 342857
1, 18240, Tempo, 352941
1, 18480, Tempo, 363636
1, 18720, Tempo, 333333
1, 27600, Tempo, 338983
1, 27840, Tempo, 346821
1, 28080, Tempo, 352941
1, 28320, Tempo, 359281
1, 28560, Tempo, 368098
1, 28800, Time_signature, 4, 2, 24, 8
1, 28800, Tempo, 400000
1, 29760, Time_signature, 2, 2, 24, 8
1, 31200, Tempo, 333333
1, 32640, Tempo, 352941
1, 32880, Tempo, 346821
1, 33120, Tempo, 342857
1, 33360, Tempo, 337079
1, 33600, Tempo, 333333
1, 48000, Tempo, 352941
1, 48960, Tempo, 333333
1, 61200, Tempo, 342857
1, 61440, Tempo, 352941
1, 61680, Tempo, 363636
1, 61920, Tempo, 333333
1, 97200, Tempo, 363636
1, 97440, Tempo, 400000
1, 97680, Tempo, 444444
1, 97920, Tempo, 500000
1, 98400, Tempo, 333333
1, 99120, Tempo, 400000
1, 99360, Tempo, 600000
1, 99840, Time_signature, 3, 2, 24, 8
1, 99840, Tempo, 375000
1, 100080, Tempo, 392157
1, 100320, Tempo, 408163
1, 100560, Time_signature, 2, 2, 24, 8
1, 100560, Tempo, 428571
1, 100800, Tempo, 500000
1, 101040, Tempo, 545455
1, 101520, Tempo, 461538
1, 102000, Tempo, 857143
1, 102240, Tempo, 1333333
1, 102480, Tempo, 1500000
1, 102960, Tempo, 333333
1, 129120, Tempo, 348837
1, 129360, Tempo, 363636
1, 129600, Tempo, 382166
1, 129840, Tempo, 400000
1, 131280, Time_signature, 4, 2, 24, 8
1, 131280, Tempo, 428571
1, 132240, Time_signature, 2, 2, 24, 8
1, 132240, Tempo, 400000
1, 132480, Tempo, 400000
1, 132960, Tempo, 400000
1, 133680, Tempo, 333333
1, 154320, Tempo, 400000
1, 154800, Tempo, 600000
1, 155280, Tempo, 1200000
1, 155280, End_track
2, 0, Start_track
2, 0, MIDI_port, 0
2, 0, Title_t, "Piano Sonata No. 52 in E Flat (1794)"
2, 0, Program_c, 0, 0
2, 0, Control_c, 0, 7, 127
2, 0, Control_c, 0, 10, 72
2, 360, Note_on_c, 0, 67, 43
2, 396, Note_on_c, 0, 67, 0
2, 480, Note_on_c, 0, 67, 47
2, 516, Note_on_c, 0, 67, 0
2, 600, Note_on_c, 0, 67, 52
2, 636, Note_on_c, 0, 67, 0
2, 720, Note_on_c, 0, 67, 56
2, 756, Note_on_c, 0, 67, 0
2, 840, Note_on_c, 0, 67, 61
2, 876, Note_on_c, 0, 67, 0
2, 960, Note_on_c, 0, 67, 72
2, 1200, Note_on_c, 0, 67, 0
2, 1200, Note_on_c, 0, 70, 64
2, 1236, Note_on_c, 0, 70, 0
2, 1320, Note_on_c, 0, 63, 64
2, 1356, Note_on_c, 0, 63, 0
2, 1440, Note_on_c, 0, 62, 64
2, 1560, Note_on_c, 0, 62, 0
2, 1560, Note_on_c, 0, 65, 64
2, 1596, Note_on_c, 0, 65, 0
2, 1680, Note_on_c, 0, 68, 64
2, 1716, Note_on_c, 0, 68, 0
2, 1800, Note_on_c, 0, 62, 64
2, 1836, Note_on_c, 0, 62, 0
2, 1920, Note_on_c, 0, 63, 72
2, 2040, Note_on_c, 0, 63, 0
2, 2040, Note_on_c, 0, 67, 64
2, 2076, Note_on_c, 0, 67, 0
2, 2160, Note_on_c, 0, 58, 64
2, 2196, Note_on_c, 0, 58, 0
2, 2280, Note_on_c, 0, 58, 64
2, 2316, Note_on_c, 0, 58, 0
2, 2400, Note_on_c, 0, 56, 64
2, 2436, Note_on_c, 0, 56, 0
2, 2520, Note_on_c, 0, 62, 64
2, 2556, Note_on_c, 0, 62, 0
2, 2640, Note_on_c, 0, 65, 64
2, 2676, Note_on_c, 0, 65, 0
2, 2760, Note_on_c, 0, 62, 64
2, 2796, Note_on_c, 0, 62, 0
2, 2880, Note_on_c, 0, 63, 72
2, 3000, Note_on_c, 0, 63, 0
2, 3000, Note_on_c, 0, 67, 64
2, 3036, Note_on_c, 0, 67, 0
2, 3120, Note_on_c, 0, 58, 64
2, 3156, Note_on_c, 0, 58, 0
2, 3240, Note_on_c, 0, 58, 64
2, 3276, Note_on_c, 0, 58, 0
2, 3360, Note_on_c, 0, 56, 64
2, 3480, Note_on_c, 0, 56, 0
2, 3480, Note_on_c, 0, 62, 60
2, 3516, Note_on_c, 0, 62, 0
2, 3600, Note_on_c, 0, 65, 56
2, 3636, Note_on_c, 0, 65, 0
2, 3720, Note_on_c, 0, 62, 52
2, 3756, Note_on_c, 0, 62, 0
2, 3840, Note_on_c, 0, 63, 48
2, 4080, Note_on_c, 0, 63, 0
2, 5160, Note_on_c, 0, 68, 43
2, 5196, Note_on_c, 0, 68, 0
2, 5280, Note_on_c, 0, 68, 47
2, 5316, Note_on_c, 0, 68, 0
2, 5400, Note_on_c, 0, 68, 51
2, 5436, Note_on_c, 0, 68, 0
2, 5520, Note_on_c, 0, 68, 55
2, 5556, Note_on_c, 0, 68, 0
2, 5640, Note_on_c, 0, 68, 60
2, 5676, Note_on_c, 0, 68, 0
2, 5760, Note_on_c, 0, 68, 72
2, 6000, Note_on_c, 0, 68, 0
2, 6000, Note_on_c, 0, 72, 64
2, 6036, Note_on_c, 0, 72, 0
2, 6120, Note_on_c, 0, 65, 64
2, 6156, Note_on_c, 0, 65, 0
2, 6240, Note_on_c, 0, 64, 64
2, 6360, Note_on_c, 0, 64, 0
2, 6360, Note_on_c, 0, 67, 64
2, 6396, Note_on_c, 0, 67, 0
2, 6480, Note_on_c, 0, 70, 64
2, 6516, Note_on_c, 0, 70, 0
2, 6600, Note_on_c, 0, 64, 64
2, 6636, Note_on_c, 0, 64, 0
2, 6720, Note_on_c, 0, 65, 72
2, 6840, Note_on_c, 0, 65, 0
2, 6840, Note_on_c, 0, 68, 64
2, 6876, Note_on_c, 0, 68, 0
2, 6960, Note_on_c, 0, 60, 64
2, 6996, Note_on_c, 0, 60, 0
2, 7080, Note_on_c, 0, 60, 64
2, 7116, Note_on_c, 0, 60, 0
2, 7200, Note_on_c, 0, 58, 64
2, 7236, Note_on_c, 0, 58, 0
2, 7320, Note_on_c, 0, 64, 64
2, 7356, Note_on_c, 0, 64, 0
2, 7440, Note_on_c, 0, 67, 64
2, 7476, Note_on_c, 0, 67, 0
2, 7560, Note_on_c, 0, 64, 64
2, 7596, Note_on_c, 0, 64, 0
2, 7680, Note_on_c, 0, 65, 72
2, 7800, Note_on_c, 0, 65, 0
2, 7800, Note_on_c, 0, 68, 64
2, 7836, Note_on_c, 0, 68, 0
2, 7920, Note_on_c, 0, 60, 64
2, 7956, Note_on_c, 0, 60, 0
2, 8040, Note_on_c, 0, 60, 64
2, 8076, Note_on_c, 0, 60, 0
2, 8160, Note_on_c, 0, 58, 64
2, 8280, Note_on_c, 0, 58, 0
2, 8280, Note_on_c, 0, 64, 60
2, 8316, Note_on_c, 0, 64, 0
2, 8400, Note_on_c, 0, 67, 56
2, 8436, Note_on_c, 0, 67, 0
2, 8520, Note_on_c, 0, 64, 52
2, 8556, Note_on_c, 0, 64, 0
2, 8640, Note_on_c, 0, 65, 48
2, 8880, Note_on_c, 0, 65, 0
2, 10440, Note_on_c, 0, 84, 80
2, 10500, Note_on_c, 0, 84, 0
2, 10500, Note_on_c, 0, 82, 80
2, 10560, Note_on_c, 0, 82, 0
2, 10560, Note_on_c, 0, 80, 80
2, 10620, Note_on_c, 0, 80, 0
2, 10620, Note_on_c, 0, 79, 80
2, 10680, Note_on_c, 0, 79, 0
2, 10680, Note_on_c, 0, 77, 80
2, 10740, Note_on_c, 0, 77, 0
2, 10740, Note_on_c, 0, 75, 80
2, 10800, Note_on_c, 0, 75, 0
2, 10800, Note_on_c, 0, 74, 80
2, 10860, Note_on_c, 0, 74, 0
2, 10860, Note_on_c, 0, 75, 80
2, 10920, Note_on_c, 0, 75, 0
2, 10920, Note_on_c, 0, 77, 80
2, 10980, Note_on_c, 0, 77, 0
2, 10980, Note_on_c, 0, 74, 80
2, 11040, Note_on_c, 0, 74, 0
2, 11040, Note_on_c, 0, 75, 80
2, 11100, Note_on_c, 0, 75, 0
2, 11100, Note_on_c, 0, 79, 80
2, 11160, Note_on_c, 0, 79, 0
2, 11160, Note_on_c, 0, 77, 80
2, 11220, Note_on_c, 0, 77, 0
2, 11220, Note_on_c, 0, 75, 80
2, 11280, Note_on_c, 0, 75, 0
2, 11280, Note_on_c, 0, 74, 80
2, 11340, Note_on_c, 0, 74, 0
2, 11340, Note_on_c, 0, 72, 80
2, 11400, Note_on_c, 0, 72, 0
2, 11400, Note_on_c, 0, 70, 80
2, 11460, Note_on_c, 0, 70, 0
2, 11460, Note_on_c, 0, 75, 80
2, 11520, Note_on_c, 0, 75, 0
2, 11520, Note_on_c, 0, 74, 80
2, 11580, Note_on_c, 0, 74, 0
2, 11580, Note_on_c, 0, 75, 80
2, 11640, Note_on_c, 0, 75, 0
2, 11640, Note_on_c, 0, 77, 80
2, 11700, Note_on_c, 0, 77, 0
2, 11700, Note_on_c, 0, 79, 80
2, 11760, Note_on_c, 0, 79, 0
2, 11760, Note_on_c, 0, 80, 80
2, 11820, Note_on_c, 0, 80, 0
2, 11820, Note_on_c, 0, 77, 80
2, 11880, Note_on_c, 0, 77, 0
2, 11880, Note_on_c, 0, 75, 80
2, 11940, Note_on_c, 0, 75, 0
2, 11940, Note_on_c, 0, 74, 80
2, 12000, Note_on_c, 0, 74, 0
2, 12000, Note_on_c, 0, 75, 80
2, 12060, Note_on_c, 0, 75, 0
2, 12060, Note_on_c, 0, 79, 80
2, 12120, Note_on_c, 0, 79, 0
2, 12120, Note_on_c, 0, 77, 80
2, 12180, Note_on_c, 0, 77, 0
2, 12180, Note_on_c, 0, 75, 80
2, 12240, Note_on_c, 0, 75, 0
2, 12240, Note_on_c, 0, 74, 80
2, 12300, Note_on_c, 0, 74, 0
2, 12300, Note_on_c, 0, 72, 80
2, 12360, Note_on_c, 0, 72, 0
2, 12360, Note_on_c, 0, 70, 80
2, 12420, Note_on_c, 0, 70, 0
2, 12420, Note_on_c, 0, 75, 80
2, 12480, Note_on_c, 0, 75, 0
2, 12480, Note_on_c, 0, 74, 64
2, 12540, Note_on_c, 0, 74, 0
2, 12540, Note_on_c, 0, 75, 65
2, 12600, Note_on_c, 0, 75, 0
2, 12600, Note_on_c, 0, 77, 66
2, 12660, Note_on_c, 0, 77, 0
2, 12660, Note_on_c, 0, 79, 67
2, 12720, Note_on_c, 0, 79, 0
2, 12720, Note_on_c, 0, 80, 68
2, 12780, Note_on_c, 0, 80, 0
2, 12780, Note_on_c, 0, 77, 69
2, 12840, Note_on_c, 0, 77, 0
2, 12840, Note_on_c, 0, 75, 70
2, 12900, Note_on_c, 0, 75, 0
2, 12900, Note_on_c, 0, 74, 71
2, 12960, Note_on_c, 0, 74, 0
2, 12960, Note_on_c, 0, 75, 72
2, 13020, Note_on_c, 0, 75, 0
2, 13020, Note_on_c, 0, 77, 73
2, 13080, Note_on_c, 0, 77, 0
2, 13080, Note_on_c, 0, 79, 74
2, 13140, Note_on_c, 0, 79, 0
2, 13140, Note_on_c, 0, 77, 75
2, 13200, Note_on_c, 0, 77, 0
2, 13200, Note_on_c, 0, 75, 76
2, 13260, Note_on_c, 0, 75, 0
2, 13260, Note_on_c, 0, 74, 77
2, 13320, Note_on_c, 0, 74, 0
2, 13320, Note_on_c, 0, 72, 78
2, 13380, Note_on_c, 0, 72, 0
2, 13380, Note_on_c, 0, 70, 79
2, 13440, Note_on_c, 0, 70, 0
2, 13440, Note_on_c, 0, 72, 80
2, 13500, Note_on_c, 0, 72, 0
2, 13500, Note_on_c, 0, 75, 80
2, 13560, Note_on_c, 0, 75, 0
2, 13560, Note_on_c, 0, 77, 80
2, 13620, Note_on_c, 0, 77, 0
2, 13620, Note_on_c, 0, 75, 80
2, 13680, Note_on_c, 0, 75, 0
2, 13680, Note_on_c, 0, 74, 80
2, 13740, Note_on_c, 0, 74, 0
2, 13740, Note_on_c, 0, 72, 80
2, 13800, Note_on_c, 0, 72, 0
2, 13800, Note_on_c, 0, 70, 80
2, 13860, Note_on_c, 0, 70, 0
2, 13860, Note_on_c, 0, 68, 80
2, 13920, Note_on_c, 0, 68, 0
2, 13920, Note_on_c, 0, 67, 80
2, 13980, Note_on_c, 0, 67, 0
2, 13980, Note_on_c, 0, 70, 80
2, 14040, Note_on_c, 0, 70, 0
2, 14040, Note_on_c, 0, 67, 80
2, 14100, Note_on_c, 0, 67, 0
2, 14100, Note_on_c, 0, 70, 80
2, 14160, Note_on_c, 0, 70, 0
2, 14160, Note_on_c, 0, 65, 80
2, 14220, Note_on_c, 0, 65, 0
2, 14220, Note_on_c, 0, 68, 80
2, 14280, Note_on_c, 0, 68, 0
2, 14280, Note_on_c, 0, 65, 80
2, 14340, Note_on_c, 0, 65, 0
2, 14340, Note_on_c, 0, 68, 80
2, 14400, Note_on_c, 0, 68, 0
2, 14400, Note_on_c, 0, 63, 80
2, 14460, Note_on_c, 0, 63, 0
2, 14460, Note_on_c, 0, 67, 80
2, 14520, Note_on_c, 0, 67, 0
2, 14520, Note_on_c, 0, 63, 80
2, 14580, Note_on_c, 0, 63, 0
2, 14580, Note_on_c, 0, 67, 80
2, 14640, Note_on_c, 0, 67, 0
2, 14640, Note_on_c, 0, 62, 80
2, 14700, Note_on_c, 0, 62, 0
2, 14700, Note_on_c, 0, 65, 80
2, 14760, Note_on_c, 0, 65, 0
2, 14760, Note_on_c, 0, 62, 80
2, 14820, Note_on_c, 0, 62, 0
2, 14820, Note_on_c, 0, 65, 80
2, 14880, Note_on_c, 0, 65, 0
2, 14880, Note_on_c, 0, 63, 80
2, 14940, Note_on_c, 0, 63, 0
2, 14940, Note_on_c, 0, 58, 80
2, 15000, Note_on_c, 0, 58, 0
2, 15000, Note_on_c, 0, 63, 80
2, 15060, Note_on_c, 0, 63, 0
2, 15060, Note_on_c, 0, 58, 80
2, 15120, Note_on_c, 0, 58, 0
2, 15120, Note_on_c, 0, 63, 80
2, 15180, Note_on_c, 0, 63, 0
2, 15180, Note_on_c, 0, 58, 80
2, 15240, Note_on_c, 0, 58, 0
2, 15240, Note_on_c, 0, 63, 80
2, 15300, Note_on_c, 0, 63, 0
2, 15300, Note_on_c, 0, 58, 80
2, 15360, Note_on_c, 0, 58, 0
2, 15360, Note_on_c, 0, 63, 80
2, 15600, Note_on_c, 0, 63, 0
2, 15720, Note_on_c, 0, 79, 49
2, 15840, Note_on_c, 0, 79, 0
2, 15840, Note_on_c, 0, 80, 52
2, 15876, Note_on_c, 0, 80, 0
2, 15960, Note_on_c, 0, 81, 56
2, 15996, Note_on_c, 0, 81, 0
2, 16080, Note_on_c, 0, 82, 59
2, 16116, Note_on_c, 0, 82, 0
2, 16200, Note_on_c, 0, 83, 62
2, 16236, Note_on_c, 0, 83, 0
2, 16320, Note_on_c, 0, 84, 64
2, 16440, Note_on_c, 0, 84, 0
2, 16440, Note_on_c, 0, 79, 64
2, 16560, Note_on_c, 0, 79, 0
2, 16680, Note_on_c, 0, 79, 64
2, 16800, Note_on_c, 0, 79, 0
2, 16800, Note_on_c, 0, 79, 64
2, 16920, Note_on_c, 0, 79, 0
2, 16920, Note_on_c, 0, 77, 64
2, 17040, Note_on_c, 0, 77, 0
2, 17040, Note_on_c, 0, 80, 64
2, 17160, Note_on_c, 0, 80, 0
2, 17160, Note_on_c, 0, 77, 64
2, 17280, Note_on_c, 0, 77, 0
2, 17280, Note_on_c, 0, 77, 64
2, 17400, Note_on_c, 0, 77, 0
2, 17400, Note_on_c, 0, 75, 64
2, 17520, Note_on_c, 0, 75, 0
2, 17640, Note_on_c, 0, 79, 64
2, 17760, Note_on_c, 0, 79, 0
2, 17760, Note_on_c, 0, 80, 64
2, 17880, Note_on_c, 0, 80, 0
2, 17880, Note_on_c, 0, 81, 64
2, 18000, Note_on_c, 0, 81, 0
2, 18000, Note_on_c, 0, 82, 64
2, 18120, Note_on_c, 0, 82, 0
2, 18120, Note_on_c, 0, 83, 64
2, 18210, Note_on_c, 0, 83, 0
2, 18210, Note_on_c, 0, 86, 64
2, 18240, Note_on_c, 0, 86, 0
2, 18240, Note_on_c, 0, 84, 64
2, 18300, Note_on_c, 0, 84, 0
2, 18300, Note_on_c, 0, 83, 66
2, 18360, Note_on_c, 0, 83, 0
2, 18360, Note_on_c, 0, 84, 68
2, 18420, Note_on_c, 0, 84, 0
2, 18420, Note_on_c, 0, 86, 70
2, 18480, Note_on_c, 0, 86, 0
2, 18480, Note_on_c, 0, 87, 72
2, 18780, Note_on_c, 0, 87, 0
2, 18780, Note_on_c, 0, 86, 50
2, 18840, Note_on_c, 0, 86, 0
2, 18840, Note_on_c, 0, 84, 52
2, 18900, Note_on_c, 0, 84, 0
2, 18900, Note_on_c, 0, 82, 54
2, 18960, Note_on_c, 0, 82, 0
2, 18960, Note_on_c, 0, 81, 56
2, 19020, Note_on_c, 0, 81, 0
2, 19020, Note_on_c, 0, 79, 58
2, 19080, Note_on_c, 0, 79, 0
2, 19080, Note_on_c, 0, 77, 60
2, 19140, Note_on_c, 0, 77, 0
2, 19140, Note_on_c, 0, 75, 62
2, 19200, Note_on_c, 0, 75, 0
2, 19200, Note_on_c, 0, 74, 72
2, 19260, Note_on_c, 0, 74, 0
2, 19320, Note_on_c, 0, 89, 56
2, 19560, Note_on_c, 0, 89, 0
2, 19560, Note_on_c, 0, 81, 56
2, 19800, Note_on_c, 0, 81, 0
2, 19800, Note_on_c, 0, 82, 56
2, 20040, Note_on_c, 0, 82, 0
2, 20040, Note_on_c, 0, 80, 56
2, 20280, Note_on_c, 0, 80, 0
2, 20280, Note_on_c, 0, 79, 56
2, 20520, Note_on_c, 0, 79, 0
2, 20520, Note_on_c, 0, 77, 56
2, 20760, Note_on_c, 0, 77, 0
2, 20760, Note_on_c, 0, 76, 56
2, 21000, Note_on_c, 0, 76, 0
2, 21000, Note_on_c, 0, 75, 56
2, 21240, Note_on_c, 0, 75, 0
2, 21240, Note_on_c, 0, 74, 50
2, 21480, Note_on_c, 0, 74, 0
2, 21480, Note_on_c, 0, 73, 54
2, 21720, Note_on_c, 0, 73, 0
2, 21720, Note_on_c, 0, 72, 55
2, 21960, Note_on_c, 0, 72, 0
2, 21960, Note_on_c, 0, 70, 53
2, 22200, Note_on_c, 0, 70, 0
2, 22200, Note_on_c, 0, 69, 51
2, 22440, Note_on_c, 0, 69, 0
2, 22440, Note_on_c, 0, 70, 49
2, 22680, Note_on_c, 0, 70, 0
2, 22680, Note_on_c, 0, 69, 47
2, 22920, Note_on_c, 0, 69, 0
2, 22920, Note_on_c, 0, 70, 45
2, 23040, Note_on_c, 0, 70, 0
2, 23040, Note_on_c, 0, 69, 44
2, 23160, Note_on_c, 0, 69, 0
2, 23160, Note_on_c, 0, 77, 56
2, 23196, Note_on_c, 0, 77, 0
2, 23280, Note_on_c, 0, 77, 56
2, 23316, Note_on_c, 0, 77, 0
2, 23400, Note_on_c, 0, 77, 88
2, 23436, Note_on_c, 0, 77, 0
2, 23520, Note_on_c, 0, 77, 56
2, 23556, Note_on_c, 0, 77, 0
2, 23640, Note_on_c, 0, 77, 56
2, 23676, Note_on_c, 0, 77, 0
2, 23760, Note_on_c, 0, 77, 56
2, 23796, Note_on_c, 0, 77, 0
2, 23880, Note_on_c, 0, 76, 88
2, 23880, Note_on_c, 0, 77, 88
2, 23916, Note_on_c, 0, 77, 0
2, 23916, Note_on_c, 0, 76, 0
2, 24000, Note_on_c, 0, 76, 56
2, 24000, Note_on_c, 0, 77, 56
2, 24036, Note_on_c, 0, 77, 0
2, 24036, Note_on_c, 0, 76, 0
2, 24120, Note_on_c, 0, 76, 56
2, 24120, Note_on_c, 0, 77, 56
2, 24156, Note_on_c, 0, 77, 0
2, 24156, Note_on_c, 0, 76, 0
2, 24240, Note_on_c, 0, 76, 56
2, 24240, Note_on_c, 0, 77, 56
2, 24276, Note_on_c, 0, 77, 0
2, 24276, Note_on_c, 0, 76, 0
2, 24360, Note_on_c, 0, 75, 88
2, 24360, Note_on_c, 0, 77, 88
2, 24396, Note_on_c, 0, 77, 0
2, 24396, Note_on_c, 0, 75, 0
2, 24480, Note_on_c, 0, 75, 56
2, 24480, Note_on_c, 0, 77, 56
2, 24516, Note_on_c, 0, 77, 0
2, 24516, Note_on_c, 0, 75, 0
2, 24600, Note_on_c, 0, 75, 56
2, 24600, Note_on_c, 0, 77, 56
2, 24636, Note_on_c, 0, 77, 0
2, 24636, Note_on_c, 0, 75, 0
2, 24720, Note_on_c, 0, 75, 56
2, 24720, Note_on_c, 0, 77, 56
2, 24756, Note_on_c, 0, 77, 0
2, 24756, Note_on_c, 0, 75, 0
2, 24840, Note_on_c, 0, 75, 88
2, 24840, Note_on_c, 0, 77, 88
2, 24876, Note_on_c, 0, 77, 0
2, 24876, Note_on_c, 0, 75, 0
2, 24960, Note_on_c, 0, 74, 56
2, 24960, Note_on_c, 0, 77, 56
2, 24996, Note_on_c, 0, 77, 0
2, 24996, Note_on_c, 0, 74, 0
2, 25080, Note_on_c, 0, 74, 56
2, 25080, Note_on_c, 0, 77, 56
2, 25116, Note_on_c, 0, 77, 0
2, 25116, Note_on_c, 0, 74, 0
2, 25200, Note_on_c, 0, 74, 56
2, 25200, Note_on_c, 0, 77, 56
2, 25236, Note_on_c, 0, 77, 0
2, 25236, Note_on_c, 0, 74, 0
2, 25320, Note_on_c, 0, 89, 80
2, 25320, Note_on_c, 0, 86, 80
2, 25320, Note_on_c, 0, 82, 80
2, 25320, Note_on_c, 0, 77, 80
2, 25356, Note_on_c, 0, 77, 0
2, 25356, Note_on_c, 0, 89, 0
2, 25356, Note_on_c, 0, 86, 0
2, 25356, Note_on_c, 0, 82, 0
2, 25440, Note_on_c, 0, 77, 80
2, 25440, Note_on_c, 0, 82, 80
2, 25440, Note_on_c, 0, 89, 80
2, 25440, Note_on_c, 0, 86, 80
2, 25476, Note_on_c, 0, 86, 0
2, 25476, Note_on_c, 0, 77, 0
2, 25476, Note_on_c, 0, 82, 0
2, 25476, Note_on_c, 0, 89, 0
2, 25560, Note_on_c, 0, 77, 80
2, 25560, Note_on_c, 0, 82, 80
2, 25560, Note_on_c, 0, 89, 80
2, 25560, Note_on_c, 0, 86, 80
2, 25596, Note_on_c, 0, 86, 0
2, 25596, Note_on_c, 0, 77, 0
2, 25596, Note_on_c, 0, 82, 0
2, 25596, Note_on_c, 0, 89, 0
2, 25680, Note_on_c, 0, 77, 80
2, 25680, Note_on_c, 0, 82, 80
2, 25680, Note_on_c, 0, 89, 80
2, 25680, Note_on_c, 0, 86, 80
2, 25716, Note_on_c, 0, 86, 0
2, 25716, Note_on_c, 0, 77, 0
2, 25716, Note_on_c, 0, 82, 0
2, 25716, Note_on_c, 0, 89, 0
2, 25800, Note_on_c, 0, 77, 80
2, 25800, Note_on_c, 0, 82, 80
2, 25800, Note_on_c, 0, 89, 80
2, 25800, Note_on_c, 0, 86, 80
2, 25836, Note_on_c, 0, 86, 0
2, 25836, Note_on_c, 0, 77, 0
2, 25836, Note_on_c, 0, 82, 0
2, 25836, Note_on_c, 0, 89, 0
2, 25920, Note_on_c, 0, 75, 88
2, 25920, Note_on_c, 0, 81, 88
2, 26160, Note_on_c, 0, 81, 0
2, 26160, Note_on_c, 0, 75, 0
2, 26160, Note_on_c, 0, 74, 72
2, 26160, Note_on_c, 0, 82, 72
2, 26196, Note_on_c, 0, 82, 0
2, 26196, Note_on_c, 0, 74, 0
2, 26280, Note_on_c, 0, 74, 72
2, 26280, Note_on_c, 0, 77, 72
2, 26316, Note_on_c, 0, 77, 0
2, 26316, Note_on_c, 0, 74, 0
2, 26400, Note_on_c, 0, 81, 80
2, 26400, Note_on_c, 0, 75, 80
2, 26640, Note_on_c, 0, 75, 0
2, 26640, Note_on_c, 0, 81, 0
2, 26640, Note_on_c, 0, 82, 64
2, 26640, Note_on_c, 0, 74, 64
2, 26676, Note_on_c, 0, 74, 0
2, 26676, Note_on_c, 0, 82, 0
2, 26760, Note_on_c, 0, 77, 64
2, 26760, Note_on_c, 0, 74, 64
2, 26796, Note_on_c, 0, 74, 0
2, 26796, Note_on_c, 0, 77, 0
2, 26880, Note_on_c, 0, 81, 72
2, 26880, Note_on_c, 0, 75, 72
2, 27120, Note_on_c, 0, 75, 0
2, 27120, Note_on_c, 0, 81, 0
2, 27120, Note_on_c, 0, 82, 88
2, 27120, Note_on_c, 0, 74, 88
2, 27240, Note_on_c, 0, 74, 0
2, 27240, Note_on_c, 0, 82, 0
2, 27240, Note_on_c, 0, 83, 88
2, 27240, Note_on_c, 0, 74, 88
2, 27360, Note_on_c, 0, 74, 0
2, 27360, Note_on_c, 0, 83, 0
2, 27360, Note_on_c, 0, 74, 80
2, 27360, Note_on_c, 0, 83, 80
2, 27840, Note_on_c, 0, 83, 0
2, 27840, Note_on_c, 0, 74, 0
2, 27840, Note_on_c, 0, 72, 72
2, 27840, Note_on_c, 0, 84, 72
2, 28080, Note_on_c, 0, 84, 0
2, 28080, Note_on_c, 0, 82, 64
2, 28320, Note_on_c, 0, 82, 0
2, 28320, Note_on_c, 0, 72, 0
2, 28320, Note_on_c, 0, 72, 56
2, 28320, Note_on_c, 0, 81, 56
2, 28800, Note_on_c, 0, 81, 0
2, 28800, Note_on_c, 0, 72, 0
2, 28800, Note_on_c, 0, 70, 48
2, 28800, Note_on_c, 0, 82, 48
2, 29520, Note_on_c, 0, 82, 0
2, 29520, Note_on_c, 0, 70, 0
2, 29520, Note_on_c, 0, 70, 48
2, 29520, Note_on_c, 0, 77, 48
2, 29760, Note_on_c, 0, 77, 0
2, 29760, Note_on_c, 0, 70, 0
2, 29760, Note_on_c, 0, 70, 48
2, 29760, Note_on_c, 0, 78, 48
2, 30240, Note_on_c, 0, 78, 0
2, 30240, Note_on_c, 0, 79, 48
2, 30480, Note_on_c, 0, 79, 0
2, 30480, Note_on_c, 0, 70, 0
2, 30480, Note_on_c, 0, 79, 72
2, 30480, Note_on_c, 0, 71, 72
2, 30720, Note_on_c, 0, 71, 0
2, 30720, Note_on_c, 0, 79, 0
2, 30720, Note_on_c, 0, 71, 72
2, 30720, Note_on_c, 0, 79, 72
2, 31200, Note_on_c, 0, 71, 0
2, 31200, Note_on_c, 0, 74, 48
2, 31320, Note_on_c, 0, 74, 0
2, 31320, Note_on_c, 0, 72, 52
2, 31440, Note_on_c, 0, 72, 0
2, 31440, Note_on_c, 0, 75, 56
2, 31560, Note_on_c, 0, 75, 0
2, 31560, Note_on_c, 0, 74, 60
2, 31680, Note_on_c, 0, 74, 0
2, 31680, Note_on_c, 0, 77, 72
2, 31800, Note_on_c, 0, 77, 0
2, 31800, Note_on_c, 0, 75, 70
2, 31920, Note_on_c, 0, 75, 0
2, 31920, Note_on_c, 0, 79, 0
2, 31920, Note_on_c, 0, 77, 64
2, 31920, Note_on_c, 0, 80, 64
2, 32040, Note_on_c, 0, 80, 0
2, 32040, Note_on_c, 0, 77, 0
2, 32040, Note_on_c, 0, 75, 64
2, 32040, Note_on_c, 0, 79, 64
2, 32160, Note_on_c, 0, 79, 0
2, 32160, Note_on_c, 0, 75, 0
2, 32160, Note_on_c, 0, 74, 72
2, 32160, Note_on_c, 0, 78, 72
2, 32280, Note_on_c, 0, 78, 0
2, 32280, Note_on_c, 0, 74, 0
2, 32280, Note_on_c, 0, 75, 70
2, 32280, Note_on_c, 0, 79, 70
2, 32316, Note_on_c, 0, 79, 0
2, 32316, Note_on_c, 0, 75, 0
2, 32400, Note_on_c, 0, 74, 68
2, 32400, Note_on_c, 0, 77, 68
2, 32436, Note_on_c, 0, 77, 0
2, 32436, Note_on_c, 0, 74, 0
2, 32520, Note_on_c, 0, 72, 66
2, 32520, Note_on_c, 0, 75, 66
2, 32556, Note_on_c, 0, 75, 0
2, 32556, Note_on_c, 0, 72, 0
2, 32640, Note_on_c, 0, 70, 48
2, 32640, Note_on_c, 0, 74, 48
2, 33000, Note_on_c, 0, 74, 0
2, 33000, Note_on_c, 0, 70, 0
2, 33000, Note_on_c, 0, 74, 48
2, 33000, Note_on_c, 0, 77, 48
2, 33120, Note_on_c, 0, 77, 0
2, 33120, Note_on_c, 0, 74, 0
2, 33120, Note_on_c, 0, 74, 48
2, 33120, Note_on_c, 0, 77, 48
2, 33240, Note_on_c, 0, 77, 0
2, 33240, Note_on_c, 0, 74, 0
2, 33240, Note_on_c, 0, 72, 48
2, 33240, Note_on_c, 0, 75, 48
2, 33276, Note_on_c, 0, 75, 0
2, 33276, Note_on_c, 0, 72, 0
2, 33360, Note_on_c, 0, 70, 48
2, 33360, Note_on_c, 0, 74, 48
2, 33396, Note_on_c, 0, 74, 0
2, 33396, Note_on_c, 0, 70, 0
2, 33480, Note_on_c, 0, 69, 48
2, 33480, Note_on_c, 0, 72, 48
2, 33516, Note_on_c, 0, 72, 0
2, 33516, Note_on_c, 0, 69, 0
2, 33600, Note_on_c, 0, 70, 72
2, 33660, Note_on_c, 0, 70, 0
2, 33660, Note_on_c, 0, 77, 72
2, 33720, Note_on_c, 0, 77, 0
2, 33720, Note_on_c, 0, 74, 72
2, 33780, Note_on_c, 0, 74, 0
2, 33780, Note_on_c, 0, 70, 72
2, 33840, Note_on_c, 0, 70, 0
2, 33840, Note_on_c, 0, 65, 72
2, 33900, Note_on_c, 0, 65, 0
2, 33900, Note_on_c, 0, 62, 72
2, 33960, Note_on_c, 0, 62, 0
2, 33960, Note_on_c, 0, 58, 72
2, 34020, Note_on_c, 0, 58, 0
2, 34020, Note_on_c, 0, 62, 72
2, 34080, Note_on_c, 0, 62, 0
2, 34080, Note_on_c, 0, 69, 72
2, 34140, Note_on_c, 0, 69, 0
2, 34140, Note_on_c, 0, 77, 72
2, 34200, Note_on_c, 0, 77, 0
2, 34200, Note_on_c, 0, 75, 72
2, 34260, Note_on_c, 0, 75, 0
2, 34260, Note_on_c, 0, 72, 72
2, 34320, Note_on_c, 0, 72, 0
2, 34320, Note_on_c, 0, 69, 72
2, 34380, Note_on_c, 0, 69, 0
2, 34380, Note_on_c, 0, 65, 72
2, 34440, Note_on_c, 0, 65, 0
2, 34440, Note_on_c, 0, 60, 72
2, 34500, Note_on_c, 0, 60, 0
2, 34500, Note_on_c, 0, 63, 72
2, 34560, Note_on_c, 0, 63, 0
2, 34560, Note_on_c, 0, 70, 48
2, 34620, Note_on_c, 0, 70, 0
2, 34620, Note_on_c, 0, 77, 48
2, 34680, Note_on_c, 0, 77, 0
2, 34680, Note_on_c, 0, 74, 48
2, 34740, Note_on_c, 0, 74, 0
2, 34740, Note_on_c, 0, 70, 48
2, 34800, Note_on_c, 0, 70, 0
2, 34800, Note_on_c, 0, 65, 48
2, 34860, Note_on_c, 0, 65, 0
2, 34860, Note_on_c, 0, 62, 48
2, 34920, Note_on_c, 0, 62, 0
2, 34920, Note_on_c, 0, 58, 48
2, 34980, Note_on_c, 0, 58, 0
2, 34980, Note_on_c, 0, 62, 48
2, 35040, Note_on_c, 0, 62, 0
2, 35040, Note_on_c, 0, 69, 48
2, 35100, Note_on_c, 0, 69, 0
2, 35100, Note_on_c, 0, 77, 48
2, 35160, Note_on_c, 0, 77, 0
2, 35160, Note_on_c, 0, 75, 48
2, 35220, Note_on_c, 0, 75, 0
2, 35220, Note_on_c, 0, 72, 48
2, 35280, Note_on_c, 0, 72, 0
2, 35280, Note_on_c, 0, 69, 48
2, 35340, Note_on_c, 0, 69, 0
2, 35340, Note_on_c, 0, 65, 48
2, 35400, Note_on_c, 0, 65, 0
2, 35400, Note_on_c, 0, 60, 48
2, 35460, Note_on_c, 0, 60, 0
2, 35460, Note_on_c, 0, 63, 48
2, 35520, Note_on_c, 0, 63, 0
2, 35520, Note_on_c, 0, 77, 48
2, 35580, Note_on_c, 0, 77, 0
2, 35580, Note_on_c, 0, 70, 48
2, 35640, Note_on_c, 0, 70, 0
2, 35640, Note_on_c, 0, 62, 48
2, 35700, Note_on_c, 0, 62, 0
2, 35700, Note_on_c, 0, 70, 48
2, 35760, Note_on_c, 0, 70, 0
2, 35760, Note_on_c, 0, 79, 48
2, 35820, Note_on_c, 0, 79, 0
2, 35820, Note_on_c, 0, 70, 48
2, 35880, Note_on_c, 0, 70, 0
2, 35880, Note_on_c, 0, 63, 48
2, 35940, Note_on_c, 0, 63, 0
2, 35940, Note_on_c, 0, 70, 48
2, 36000, Note_on_c, 0, 70, 0
2, 36000, Note_on_c, 0, 81, 48
2, 36060, Note_on_c, 0, 81, 0
2, 36060, Note_on_c, 0, 70, 48
2, 36120, Note_on_c, 0, 70, 0
2, 36120, Note_on_c, 0, 65, 48
2, 36180, Note_on_c, 0, 65, 0
2, 36180, Note_on_c, 0, 70, 48
2, 36240, Note_on_c, 0, 70, 0
2, 36240, Note_on_c, 0, 82, 48
2, 36300, Note_on_c, 0, 82, 0
2, 36300, Note_on_c, 0, 70, 48
2, 36360, Note_on_c, 0, 70, 0
2, 36360, Note_on_c, 0, 67, 48
2, 36420, Note_on_c, 0, 67, 0
2, 36420, Note_on_c, 0, 70, 48
2, 36480, Note_on_c, 0, 70, 0
2, 36480, Note_on_c, 0, 77, 80
2, 36540, Note_on_c, 0, 77, 0
2, 36540, Note_on_c, 0, 70, 80
2, 36600, Note_on_c, 0, 70, 0
2, 36600, Note_on_c, 0, 62, 80
2, 36660, Note_on_c, 0, 62, 0
2, 36660, Note_on_c, 0, 70, 80
2, 36720, Note_on_c, 0, 70, 0
2, 36720, Note_on_c, 0, 79, 80
2, 36780, Note_on_c, 0, 79, 0
2, 36780, Note_on_c, 0, 70, 80
2, 36840, Note_on_c, 0, 70, 0
2, 36840, Note_on_c, 0, 63, 80
2, 36900, Note_on_c, 0, 63, 0
2, 36900, Note_on_c, 0, 70, 80
2, 36960, Note_on_c, 0, 70, 0
2, 36960, Note_on_c, 0, 81, 80
2, 37020, Note_on_c, 0, 81, 0
2, 37020, Note_on_c, 0, 70, 80
2, 37080, Note_on_c, 0, 70, 0
2, 37080, Note_on_c, 0, 65, 80
2, 37140, Note_on_c, 0, 65, 0
2, 37140, Note_on_c, 0, 70, 80
2, 37200, Note_on_c, 0, 70, 0
2, 37200, Note_on_c, 0, 82, 80
2, 37260, Note_on_c, 0, 82, 0
2, 37260, Note_on_c, 0, 70, 80
2, 37320, Note_on_c, 0, 70, 0
2, 37320, Note_on_c, 0, 67, 80
2, 37380, Note_on_c, 0, 67, 0
2, 37380, Note_on_c, 0, 70, 80
2, 37440, Note_on_c, 0, 70, 0
2, 37440, Note_on_c, 0, 85, 72
2, 37500, Note_on_c, 0, 85, 0
2, 37500, Note_on_c, 0, 73, 73
2, 37560, Note_on_c, 0, 73, 0
2, 37560, Note_on_c, 0, 66, 74
2, 37620, Note_on_c, 0, 66, 0
2, 37620, Note_on_c, 0, 70, 75
2, 37680, Note_on_c, 0, 70, 0
2, 37680, Note_on_c, 0, 82, 76
2, 37740, Note_on_c, 0, 82, 0
2, 37740, Note_on_c, 0, 70, 77
2, 37800, Note_on_c, 0, 70, 0
2, 37800, Note_on_c, 0, 66, 78
2, 37860, Note_on_c, 0, 66, 0
2, 37860, Note_on_c, 0, 70, 79
2, 37920, Note_on_c, 0, 70, 0
2, 37920, Note_on_c, 0, 88, 80
2, 37980, Note_on_c, 0, 88, 0
2, 37980, Note_on_c, 0, 76, 81
2, 38040, Note_on_c, 0, 76, 0
2, 38040, Note_on_c, 0, 66, 82
2, 38100, Note_on_c, 0, 66, 0
2, 38100, Note_on_c, 0, 70, 83
2, 38160, Note_on_c, 0, 70, 0
2, 38160, Note_on_c, 0, 82, 84
2, 38220, Note_on_c, 0, 82, 0
2, 38220, Note_on_c, 0, 70, 85
2, 38280, Note_on_c, 0, 70, 0
2, 38280, Note_on_c, 0, 66, 86
2, 38340, Note_on_c, 0, 66, 0
2, 38340, Note_on_c, 0, 70, 87
2, 38400, Note_on_c, 0, 70, 0
2, 38400, Note_on_c, 0, 81, 88
2, 38460, Note_on_c, 0, 81, 0
2, 38460, Note_on_c, 0, 69, 88
2, 38616, Note_on_c, 0, 69, 0
2, 38640, Note_on_c, 0, 77, 88
2, 38688, Note_on_c, 0, 77, 0
2, 38700, Note_on_c, 0, 65, 88
2, 38856, Note_on_c, 0, 65, 0
2, 38880, Note_on_c, 0, 72, 88
2, 38940, Note_on_c, 0, 72, 0
2, 38940, Note_on_c, 0, 60, 88
2, 39096, Note_on_c, 0, 60, 0
2, 39120, Note_on_c, 0, 69, 88
2, 39168, Note_on_c, 0, 69, 0
2, 39180, Note_on_c, 0, 57, 88
2, 39336, Note_on_c, 0, 57, 0
2, 40200, Note_on_c, 0, 72, 80
2, 40296, Note_on_c, 0, 72, 0
2, 40320, Note_on_c, 0, 65, 72
2, 40440, Note_on_c, 0, 65, 0
2, 40440, Note_on_c, 0, 66, 72
2, 40560, Note_on_c, 0, 66, 0
2, 40560, Note_on_c, 0, 65, 72
2, 40596, Note_on_c, 0, 65, 0
2, 40680, Note_on_c, 0, 75, 88
2, 40716, Note_on_c, 0, 75, 0
2, 40800, Note_on_c, 0, 69, 72
2, 40920, Note_on_c, 0, 69, 0
2, 40920, Note_on_c, 0, 70, 72
2, 41040, Note_on_c, 0, 70, 0
2, 41040, Note_on_c, 0, 69, 72
2, 41076, Note_on_c, 0, 69, 0
2, 41160, Note_on_c, 0, 78, 88
2, 41196, Note_on_c, 0, 78, 0
2, 41280, Note_on_c, 0, 72, 72
2, 41400, Note_on_c, 0, 72, 0
2, 41400, Note_on_c, 0, 73, 72
2, 41520, Note_on_c, 0, 73, 0
2, 41520, Note_on_c, 0, 72, 72
2, 41556, Note_on_c, 0, 72, 0
2, 41640, Note_on_c, 0, 81, 88
2, 41676, Note_on_c, 0, 81, 0
2, 41760, Note_on_c, 0, 77, 80
2, 41880, Note_on_c, 0, 77, 0
2, 41880, Note_on_c, 0, 78, 80
2, 42000, Note_on_c, 0, 78, 0
2, 42000, Note_on_c, 0, 77, 80
2, 42036, Note_on_c, 0, 77, 0
2, 42120, Note_on_c, 0, 89, 80
2, 42156, Note_on_c, 0, 89, 0
2, 42360, Note_on_c, 0, 89, 80
2, 42360, Note_on_c, 0, 86, 80
2, 42396, Note_on_c, 0, 86, 0
2, 42396, Note_on_c, 0, 89, 0
2, 42600, Note_on_c, 0, 87, 80
2, 42600, Note_on_c, 0, 84, 80
2, 42636, Note_on_c, 0, 84, 0
2, 42636, Note_on_c, 0, 87, 0
2, 42840, Note_on_c, 0, 86, 80
2, 42840, Note_on_c, 0, 82, 80
2, 42876, Note_on_c, 0, 82, 0
2, 42876, Note_on_c, 0, 86, 0
2, 43080, Note_on_c, 0, 84, 80
2, 43080, Note_on_c, 0, 81, 80
2, 43116, Note_on_c, 0, 81, 0
2, 43116, Note_on_c, 0, 84, 0
2, 43200, Note_on_c, 0, 82, 80
2, 43320, Note_on_c, 0, 82, 0
2, 43320, Note_on_c, 0, 63, 64
2, 43440, Note_on_c, 0, 63, 0
2, 43440, Note_on_c, 0, 63, 64
2, 43476, Note_on_c, 0, 63, 0
2, 43560, Note_on_c, 0, 63, 64
2, 43596, Note_on_c, 0, 63, 0
2, 43680, Note_on_c, 0, 63, 64
2, 43716, Note_on_c, 0, 63, 0
2, 43800, Note_on_c, 0, 63, 64
2, 43836, Note_on_c, 0, 63, 0
2, 43920, Note_on_c, 0, 63, 64
2, 43956, Note_on_c, 0, 63, 0
2, 44040, Note_on_c, 0, 63, 72
2, 44076, Note_on_c, 0, 63, 0
2, 44160, Note_on_c, 0, 63, 64
2, 44196, Note_on_c, 0, 63, 0
2, 44280, Note_on_c, 0, 63, 64
2, 44316, Note_on_c, 0, 63, 0
2, 44400, Note_on_c, 0, 63, 64
2, 44436, Note_on_c, 0, 63, 0
2, 44520, Note_on_c, 0, 63, 72
2, 44556, Note_on_c, 0, 63, 0
2, 44640, Note_on_c, 0, 63, 64
2, 44676, Note_on_c, 0, 63, 0
2, 44760, Note_on_c, 0, 63, 64
2, 44796, Note_on_c, 0, 63, 0
2, 44880, Note_on_c, 0, 63, 64
2, 44916, Note_on_c, 0, 63, 0
2, 45000, Note_on_c, 0, 63, 72
2, 45036, Note_on_c, 0, 63, 0
2, 45120, Note_on_c, 0, 63, 64
2, 45156, Note_on_c, 0, 63, 0
2, 45240, Note_on_c, 0, 63, 64
2, 45276, Note_on_c, 0, 63, 0
2, 45360, Note_on_c, 0, 63, 64
2, 45396, Note_on_c, 0, 63, 0
2, 45480, Note_on_c, 0, 63, 72
2, 45516, Note_on_c, 0, 63, 0
2, 45600, Note_on_c, 0, 63, 64
2, 45636, Note_on_c, 0, 63, 0
2, 45720, Note_on_c, 0, 63, 64
2, 45756, Note_on_c, 0, 63, 0
2, 45840, Note_on_c, 0, 63, 64
2, 45876, Note_on_c, 0, 63, 0
2, 45960, Note_on_c, 0, 63, 72
2, 45996, Note_on_c, 0, 63, 0
2, 46080, Note_on_c, 0, 62, 80
2, 46140, Note_on_c, 0, 62, 0
2, 46140, Note_on_c, 0, 70, 80
2, 46200, Note_on_c, 0, 70, 0
2, 46200, Note_on_c, 0, 62, 80
2, 46260, Note_on_c, 0, 62, 0
2, 46260, Note_on_c, 0, 70, 80
2, 46320, Note_on_c, 0, 70, 0
2, 46320, Note_on_c, 0, 63, 80
2, 46380, Note_on_c, 0, 63, 0
2, 46380, Note_on_c, 0, 69, 80
2, 46440, Note_on_c, 0, 69, 0
2, 46440, Note_on_c, 0, 63, 80
2, 46500, Note_on_c, 0, 63, 0
2, 46500, Note_on_c, 0, 69, 80
2, 46560, Note_on_c, 0, 69, 0
2, 46560, Note_on_c, 0, 69, 80
2, 46620, Note_on_c, 0, 69, 0
2, 46620, Note_on_c, 0, 75, 80
2, 46680, Note_on_c, 0, 75, 0
2, 46680, Note_on_c, 0, 69, 80
2, 46740, Note_on_c, 0, 69, 0
2, 46740, Note_on_c, 0, 75, 80
2, 46800, Note_on_c, 0, 75, 0
2, 46800, Note_on_c, 0, 70, 80
2, 46860, Note_on_c, 0, 70, 0
2, 46860, Note_on_c, 0, 74, 80
2, 46920, Note_on_c, 0, 74, 0
2, 46920, Note_on_c, 0, 70, 80
2, 46980, Note_on_c, 0, 70, 0
2, 46980, Note_on_c, 0, 74, 80
2, 47040, Note_on_c, 0, 74, 0
2, 47040, Note_on_c, 0, 74, 80
2, 47100, Note_on_c, 0, 74, 0
2, 47100, Note_on_c, 0, 82, 80
2, 47160, Note_on_c, 0, 82, 0
2, 47160, Note_on_c, 0, 74, 80
2, 47220, Note_on_c, 0, 74, 0
2, 47220, Note_on_c, 0, 82, 80
2, 47280, Note_on_c, 0, 82, 0
2, 47280, Note_on_c, 0, 75, 80
2, 47340, Note_on_c, 0, 75, 0
2, 47340, Note_on_c, 0, 81, 80
2, 47400, Note_on_c, 0, 81, 0
2, 47400, Note_on_c, 0, 75, 80
2, 47460, Note_on_c, 0, 75, 0
2, 47460, Note_on_c, 0, 81, 80
2, 47520, Note_on_c, 0, 81, 0
2, 47520, Note_on_c, 0, 81, 80
2, 47580, Note_on_c, 0, 81, 0
2, 47580, Note_on_c, 0, 87, 80
2, 47640, Note_on_c, 0, 87, 0
2, 47640, Note_on_c, 0, 81, 80
2, 47700, Note_on_c, 0, 81, 0
2, 47700, Note_on_c, 0, 87, 80
2, 47760, Note_on_c, 0, 87, 0
2, 47760, Note_on_c, 0, 82, 80
2, 47820, Note_on_c, 0, 82, 0
2, 47820, Note_on_c, 0, 86, 80
2, 47880, Note_on_c, 0, 86, 0
2, 47880, Note_on_c, 0, 82, 80
2, 47940, Note_on_c, 0, 82, 0
2, 47940, Note_on_c, 0, 86, 80
2, 48000, Note_on_c, 0, 86, 0
2, 48000, Note_on_c, 0, 89, 80
2, 48000, Note_on_c, 0, 86, 80
2, 48000, Note_on_c, 0, 82, 80
2, 48000, Note_on_c, 0, 77, 80
2, 48036, Note_on_c, 0, 77, 0
2, 48036, Note_on_c, 0, 89, 0
2, 48036, Note_on_c, 0, 86, 0
2, 48036, Note_on_c, 0, 82, 0
2, 48240, Note_on_c, 0, 87, 80
2, 48240, Note_on_c, 0, 84, 80
2, 48240, Note_on_c, 0, 79, 80
2, 48294, Note_on_c, 0, 79, 0
2, 48294, Note_on_c, 0, 84, 0
2, 48294, Note_on_c, 0, 87, 0
2, 48480, Note_on_c, 0, 77, 80
2, 48480, Note_on_c, 0, 82, 80
2, 48480, Note_on_c, 0, 86, 80
2, 48552, Note_on_c, 0, 86, 0
2, 48552, Note_on_c, 0, 82, 0
2, 48552, Note_on_c, 0, 77, 0
2, 48720, Note_on_c, 0, 81, 80
2, 48720, Note_on_c, 0, 75, 80
2, 48720, Note_on_c, 0, 72, 80
2, 48960, Note_on_c, 0, 72, 0
2, 48960, Note_on_c, 0, 75, 0
2, 48960, Note_on_c, 0, 81, 0
2, 48960, Note_on_c, 0, 82, 80
2, 48960, Note_on_c, 0, 77, 80
2, 48960, Note_on_c, 0, 74, 80
2, 49200, Note_on_c, 0, 74, 0
2, 49200, Note_on_c, 0, 77, 0
2, 49200, Note_on_c, 0, 82, 0
2, 49320, Note_on_c, 0, 75, 80
2, 49320, Note_on_c, 0, 79, 80
2, 49440, Note_on_c, 0, 79, 0
2, 49440, Note_on_c, 0, 75, 0
2, 49440, Note_on_c, 0, 74, 80
2, 49440, Note_on_c, 0, 77, 80
2, 49560, Note_on_c, 0, 77, 0
2, 49560, Note_on_c, 0, 74, 0
2, 49560, Note_on_c, 0, 72, 80
2, 49560, Note_on_c, 0, 75, 80
2, 49596, Note_on_c, 0, 75, 0
2, 49596, Note_on_c, 0, 72, 0
2, 49680, Note_on_c, 0, 70, 80
2, 49680, Note_on_c, 0, 74, 80
2, 49716, Note_on_c, 0, 74, 0
2, 49716, Note_on_c, 0, 70, 0
2, 49800, Note_on_c, 0, 69, 80
2, 49800, Note_on_c, 0, 72, 80
2, 49836, Note_on_c, 0, 72, 0
2, 49836, Note_on_c, 0, 69, 0
2, 49920, Note_on_c, 0, 70, 80
2, 49980, Note_on_c, 0, 70, 0
2, 49980, Note_on_c, 0, 69, 80
2, 50040, Note_on_c, 0, 69, 0
2, 50040, Note_on_c, 0, 70, 80
2, 50100, Note_on_c, 0, 70, 0
2, 50100, Note_on_c, 0, 69, 80
2, 50160, Note_on_c, 0, 69, 0
2, 50160, Note_on_c, 0, 70, 80
2, 50220, Note_on_c, 0, 70, 0
2, 50220, Note_on_c, 0, 69, 80
2, 50280, Note_on_c, 0, 69, 0
2, 50280, Note_on_c, 0, 70, 80
2, 50340, Note_on_c, 0, 70, 0
2, 50340, Note_on_c, 0, 69, 80
2, 50400, Note_on_c, 0, 69, 0
2, 50400, Note_on_c, 0, 70, 80
2, 50460, Note_on_c, 0, 70, 0
2, 50460, Note_on_c, 0, 69, 80
2, 50520, Note_on_c, 0, 69, 0
2, 50520, Note_on_c, 0, 70, 80
2, 50580, Note_on_c, 0, 70, 0
2, 50580, Note_on_c, 0, 69, 80
2, 50640, Note_on_c, 0, 69, 0
2, 50640, Note_on_c, 0, 70, 80
2, 50700, Note_on_c, 0, 70, 0
2, 50700, Note_on_c, 0, 69, 80
2, 50760, Note_on_c, 0, 69, 0
2, 50760, Note_on_c, 0, 70, 80
2, 50820, Note_on_c, 0, 70, 0
2, 50820, Note_on_c, 0, 69, 80
2, 50880, Note_on_c, 0, 69, 0
2, 50880, Note_on_c, 0, 70, 80
2, 50952, Note_on_c, 0, 70, 0
2, 51120, Note_on_c, 0, 82, 80
2, 51120, Note_on_c, 0, 77, 80
2, 51120, Note_on_c, 0, 74, 80
2, 51264, Note_on_c, 0, 74, 0
2, 51264, Note_on_c, 0, 77, 0
2, 51264, Note_on_c, 0, 82, 0
2, 51720, Note_on_c, 0, 65, 48
2, 51756, Note_on_c, 0, 65, 0
2, 51840, Note_on_c, 0, 56, 48
2, 51960, Note_on_c, 0, 56, 0
2, 51960, Note_on_c, 0, 58, 48
2, 52080, Note_on_c, 0, 58, 0
2, 52080, Note_on_c, 0, 56, 48
2, 52116, Note_on_c, 0, 56, 0
2, 52200, Note_on_c, 0, 65, 48
2, 52236, Note_on_c, 0, 65, 0
2, 52320, Note_on_c, 0, 55, 48
2, 52440, Note_on_c, 0, 55, 0
2, 52440, Note_on_c, 0, 56, 48
2, 52560, Note_on_c, 0, 56, 0
2, 52560, Note_on_c, 0, 55, 48
2, 52596, Note_on_c, 0, 55, 0
2, 52680, Note_on_c, 0, 68, 48
2, 52800, Note_on_c, 0, 68, 0
2, 52800, Note_on_c, 0, 67, 48
2, 52920, Note_on_c, 0, 67, 0
2, 52920, Note_on_c, 0, 68, 48
2, 52956, Note_on_c, 0, 68, 0
2, 53040, Note_on_c, 0, 67, 48
2, 53076, Note_on_c, 0, 67, 0
2, 53160, Note_on_c, 0, 65, 48
2, 53196, Note_on_c, 0, 65, 0
2, 53280, Note_on_c, 0, 63, 48
2, 53400, Note_on_c, 0, 63, 0
2, 53400, Note_on_c, 0, 72, 48
2, 53436, Note_on_c, 0, 72, 0
2, 53520, Note_on_c, 0, 72, 48
2, 53556, Note_on_c, 0, 72, 0
2, 53640, Note_on_c, 0, 72, 72
2, 53676, Note_on_c, 0, 72, 0
2, 53760, Note_on_c, 0, 72, 48
2, 53796, Note_on_c, 0, 72, 0
2, 53880, Note_on_c, 0, 72, 48
2, 53916, Note_on_c, 0, 72, 0
2, 54000, Note_on_c, 0, 72, 48
2, 54036, Note_on_c, 0, 72, 0
2, 54120, Note_on_c, 0, 72, 48
2, 54156, Note_on_c, 0, 72, 0
2, 54240, Note_on_c, 0, 72, 48
2, 54276, Note_on_c, 0, 72, 0
2, 54360, Note_on_c, 0, 72, 48
2, 54396, Note_on_c, 0, 72, 0
2, 54480, Note_on_c, 0, 72, 48
2, 54516, Note_on_c, 0, 72, 0
2, 54600, Note_on_c, 0, 74, 72
2, 54600, Note_on_c, 0, 72, 72
2, 54636, Note_on_c, 0, 72, 0
2, 54636, Note_on_c, 0, 74, 0
2, 54720, Note_on_c, 0, 72, 48
2, 54720, Note_on_c, 0, 75, 48
2, 54756, Note_on_c, 0, 72, 0
2, 54840, Note_on_c, 0, 75, 0
2, 54840, Note_on_c, 0, 72, 48
2, 54840, Note_on_c, 0, 76, 48
2, 54876, Note_on_c, 0, 72, 0
2, 54960, Note_on_c, 0, 76, 0
2, 54960, Note_on_c, 0, 72, 48
2, 54960, Note_on_c, 0, 77, 48
2, 54996, Note_on_c, 0, 72, 0
2, 55080, Note_on_c, 0, 77, 0
2, 55080, Note_on_c, 0, 72, 48
2, 55080, Note_on_c, 0, 78, 48
2, 55116, Note_on_c, 0, 72, 0
2, 55200, Note_on_c, 0, 78, 0
2, 55200, Note_on_c, 0, 72, 48
2, 55200, Note_on_c, 0, 79, 48
2, 55236, Note_on_c, 0, 72, 0
2, 55320, Note_on_c, 0, 72, 48
2, 55356, Note_on_c, 0, 72, 0
2, 55440, Note_on_c, 0, 72, 48
2, 55476, Note_on_c, 0, 72, 0
2, 55560, Note_on_c, 0, 79, 0
2, 55560, Note_on_c, 0, 72, 72
2, 55560, Note_on_c, 0, 76, 72
2, 55596, Note_on_c, 0, 72, 0
2, 55680, Note_on_c, 0, 76, 0
2, 55680, Note_on_c, 0, 72, 48
2, 55680, Note_on_c, 0, 77, 48
2, 55716, Note_on_c, 0, 72, 0
2, 55800, Note_on_c, 0, 77, 0
2, 55800, Note_on_c, 0, 72, 48
2, 55800, Note_on_c, 0, 79, 48
2, 55836, Note_on_c, 0, 72, 0
2, 55920, Note_on_c, 0, 79, 0
2, 55920, Note_on_c, 0, 72, 48
2, 55920, Note_on_c, 0, 80, 48
2, 55956, Note_on_c, 0, 72, 0
2, 56040, Note_on_c, 0, 80, 0
2, 56040, Note_on_c, 0, 72, 48
2, 56040, Note_on_c, 0, 82, 48
2, 56076, Note_on_c, 0, 72, 0
2, 56160, Note_on_c, 0, 82, 0
2, 56160, Note_on_c, 0, 84, 48
2, 56160, Note_on_c, 0, 72, 48
2, 56196, Note_on_c, 0, 72, 0
2, 56280, Note_on_c, 0, 72, 48
2, 56316, Note_on_c, 0, 72, 0
2, 56400, Note_on_c, 0, 72, 48
2, 56436, Note_on_c, 0, 72, 0
2, 56520, Note_on_c, 0, 84, 0
2, 56520, Note_on_c, 0, 80, 48
2, 56520, Note_on_c, 0, 72, 48
2, 56556, Note_on_c, 0, 72, 0
2, 56640, Note_on_c, 0, 80, 0
2, 56640, Note_on_c, 0, 82, 48
2, 56640, Note_on_c, 0, 72, 48
2, 56676, Note_on_c, 0, 72, 0
2, 56760, Note_on_c, 0, 72, 48
2, 56796, Note_on_c, 0, 72, 0
2, 56880, Note_on_c, 0, 72, 48
2, 56916, Note_on_c, 0, 72, 0
2, 57000, Note_on_c, 0, 82, 0
2, 57000, Note_on_c, 0, 79, 48
2, 57000, Note_on_c, 0, 72, 48
2, 57036, Note_on_c, 0, 72, 0
2, 57120, Note_on_c, 0, 79, 0
2, 57120, Note_on_c, 0, 80, 48
2, 57120, Note_on_c, 0, 72, 48
2, 57156, Note_on_c, 0, 72, 0
2, 57240, Note_on_c, 0, 72, 48
2, 57360, Note_on_c, 0, 72, 0
2, 57360, Note_on_c, 0, 72, 48
2, 57480, Note_on_c, 0, 72, 0
2, 57480, Note_on_c, 0, 72, 48
2, 57600, Note_on_c, 0, 72, 0
2, 57600, Note_on_c, 0, 73, 48
2, 57720, Note_on_c, 0, 73, 0
2, 57720, Note_on_c, 0, 73, 48
2, 57840, Note_on_c, 0, 73, 0
2, 57840, Note_on_c, 0, 73, 48
2, 57960, Note_on_c, 0, 73, 0
2, 57960, Note_on_c, 0, 73, 48
2, 58080, Note_on_c, 0, 73, 0
2, 58080, Note_on_c, 0, 80, 0
2, 58080, Note_on_c, 0, 79, 48
2, 58080, Note_on_c, 0, 73, 48
2, 58116, Note_on_c, 0, 73, 0
2, 58200, Note_on_c, 0, 73, 48
2, 58320, Note_on_c, 0, 73, 0
2, 58320, Note_on_c, 0, 72, 48
2, 58356, Note_on_c, 0, 72, 0
2, 58440, Note_on_c, 0, 72, 48
2, 58560, Note_on_c, 0, 72, 0
2, 58560, Note_on_c, 0, 79, 0
2, 58560, Note_on_c, 0, 77, 48
2, 58560, Note_on_c, 0, 72, 48
2, 58596, Note_on_c, 0, 72, 0
2, 58680, Note_on_c, 0, 72, 48
2, 58800, Note_on_c, 0, 72, 0
2, 58800, Note_on_c, 0, 71, 48
2, 58920, Note_on_c, 0, 71, 0
2, 58920, Note_on_c, 0, 71, 48
2, 59040, Note_on_c, 0, 71, 0
2, 59040, Note_on_c, 0, 77, 0
2, 59040, Note_on_c, 0, 72, 80
2, 59040, Note_on_c, 0, 76, 80
2, 59280, Note_on_c, 0, 76, 0
2, 59280, Note_on_c, 0, 72, 0
2, 59400, Note_on_c, 0, 84, 80
2, 59400, Note_on_c, 0, 80, 80
2, 59436, Note_on_c, 0, 80, 0
2, 59436, Note_on_c, 0, 84, 0
2, 59520, Note_on_c, 0, 79, 80
2, 59520, Note_on_c, 0, 82, 80
2, 59556, Note_on_c, 0, 82, 0
2, 59556, Note_on_c, 0, 79, 0
2, 59640, Note_on_c, 0, 80, 80
2, 59640, Note_on_c, 0, 84, 80
2, 59676, Note_on_c, 0, 84, 0
2, 59676, Note_on_c, 0, 80, 0
2, 59760, Note_on_c, 0, 79, 80
2, 59760, Note_on_c, 0, 82, 80
2, 59796, Note_on_c, 0, 82, 0
2, 59796, Note_on_c, 0, 79, 0
2, 59880, Note_on_c, 0, 77, 80
2, 59880, Note_on_c, 0, 80, 80
2, 59916, Note_on_c, 0, 80, 0
2, 59916, Note_on_c, 0, 77, 0
2, 60000, Note_on_c, 0, 79, 80
2, 60000, Note_on_c, 0, 76, 80
2, 60120, Note_on_c, 0, 76, 0
2, 60120, Note_on_c, 0, 79, 0
2, 60360, Note_on_c, 0, 44, 56
2, 60360, Note_on_c, 0, 48, 56
2, 60480, Note_on_c, 0, 48, 0
2, 60480, Note_on_c, 0, 44, 0
2, 60480, Note_on_c, 0, 43, 56
2, 60480, Note_on_c, 0, 46, 56
2, 60516, Note_on_c, 0, 46, 0
2, 60516, Note_on_c, 0, 43, 0
2, 60600, Note_on_c, 0, 41, 56
2, 60600, Note_on_c, 0, 44, 56
2, 60636, Note_on_c, 0, 44, 0
2, 60636, Note_on_c, 0, 41, 0
2, 60720, Note_on_c, 0, 40, 56
2, 60720, Note_on_c, 0, 43, 56
2, 60756, Note_on_c, 0, 43, 0
2, 60756, Note_on_c, 0, 40, 0
2, 60840, Note_on_c, 0, 38, 56
2, 60840, Note_on_c, 0, 41, 56
2, 60876, Note_on_c, 0, 41, 0
2, 60876, Note_on_c, 0, 38, 0
2, 60960, Note_on_c, 0, 36, 56
2, 60960, Note_on_c, 0, 40, 56
2, 61080, Note_on_c, 0, 40, 0
2, 61080, Note_on_c, 0, 36, 0
2, 61320, Note_on_c, 0, 84, 48
2, 61356, Note_on_c, 0, 84, 0
2, 61440, Note_on_c, 0, 84, 48
2, 61476, Note_on_c, 0, 84, 0
2, 61560, Note_on_c, 0, 84, 48
2, 61596, Note_on_c, 0, 84, 0
2, 61680, Note_on_c, 0, 84, 48
2, 61716, Note_on_c, 0, 84, 0
2, 61800, Note_on_c, 0, 84, 48
2, 61824, Note_on_c, 0, 84, 0
2, 61880, Note_on_c, 0, 85, 48
2, 61920, Note_on_c, 0, 85, 0
2, 61920, Note_on_c, 0, 84, 48
2, 61980, Note_on_c, 0, 84, 0
2, 61980, Note_on_c, 0, 82, 48
2, 62040, Note_on_c, 0, 82, 0
2, 62040, Note_on_c, 0, 84, 48
2, 62100, Note_on_c, 0, 84, 0
2, 62100, Note_on_c, 0, 85, 48
2, 62160, Note_on_c, 0, 85, 0
2, 62160, Note_on_c, 0, 87, 48
2, 62280, Note_on_c, 0, 87, 0
2, 62280, Note_on_c, 0, 80, 48
2, 62400, Note_on_c, 0, 80, 0
2, 62400, Note_on_c, 0, 79, 48
2, 62520, Note_on_c, 0, 79, 0
2, 62520, Note_on_c, 0, 82, 48
2, 62556, Note_on_c, 0, 82, 0
2, 62640, Note_on_c, 0, 85, 48
2, 62676, Note_on_c, 0, 85, 0
2, 62760, Note_on_c, 0, 79, 48
2, 62796, Note_on_c, 0, 79, 0
2, 62880, Note_on_c, 0, 80, 48
2, 63000, Note_on_c, 0, 80, 0
2, 63000, Note_on_c, 0, 84, 48
2, 63120, Note_on_c, 0, 84, 0
2, 63120, Note_on_c, 0, 75, 48
2, 63240, Note_on_c, 0, 75, 0
2, 63240, Note_on_c, 0, 75, 48
2, 63360, Note_on_c, 0, 75, 0
2, 63360, Note_on_c, 0, 73, 48
2, 63480, Note_on_c, 0, 73, 0
2, 63480, Note_on_c, 0, 79, 48
2, 63516, Note_on_c, 0, 79, 0
2, 63600, Note_on_c, 0, 82, 48
2, 63636, Note_on_c, 0, 82, 0
2, 63720, Note_on_c, 0, 79, 48
2, 63756, Note_on_c, 0, 79, 0
2, 63840, Note_on_c, 0, 80, 48
2, 63900, Note_on_c, 0, 80, 0
2, 63900, Note_on_c, 0, 82, 48
2, 63960, Note_on_c, 0, 82, 0
2, 63960, Note_on_c, 0, 84, 48
2, 64020, Note_on_c, 0, 84, 0
2, 64020, Note_on_c, 0, 82, 48
2, 64080, Note_on_c, 0, 82, 0
2, 64080, Note_on_c, 0, 80, 48
2, 64140, Note_on_c, 0, 80, 0
2, 64140, Note_on_c, 0, 79, 48
2, 64200, Note_on_c, 0, 79, 0
2, 64200, Note_on_c, 0, 77, 48
2, 64260, Note_on_c, 0, 77, 0
2, 64260, Note_on_c, 0, 75, 48
2, 64320, Note_on_c, 0, 75, 0
2, 64320, Note_on_c, 0, 73, 48
2, 64380, Note_on_c, 0, 73, 0
2, 64380, Note_on_c, 0, 72, 48
2, 64440, Note_on_c, 0, 72, 0
2, 64440, Note_on_c, 0, 70, 48
2, 64500, Note_on_c, 0, 70, 0
2, 64500, Note_on_c, 0, 68, 48
2, 64560, Note_on_c, 0, 68, 0
2, 64560, Note_on_c, 0, 67, 48
2, 64620, Note_on_c, 0, 67, 0
2, 64620, Note_on_c, 0, 65, 48
2, 64680, Note_on_c, 0, 65, 0
2, 64680, Note_on_c, 0, 63, 48
2, 64740, Note_on_c, 0, 63, 0
2, 64740, Note_on_c, 0, 61, 48
2, 64800, Note_on_c, 0, 61, 0
2, 64800, Note_on_c, 0, 60, 48
2, 64860, Note_on_c, 0, 60, 0
2, 64860, Note_on_c, 0, 61, 48
2, 64920, Note_on_c, 0, 61, 0
2, 64920, Note_on_c, 0, 63, 48
2, 64980, Note_on_c, 0, 63, 0
2, 64980, Note_on_c, 0, 61, 48
2, 65040, Note_on_c, 0, 61, 0
2, 65040, Note_on_c, 0, 60, 48
2, 65100, Note_on_c, 0, 60, 0
2, 65100, Note_on_c, 0, 72, 48
2, 65160, Note_on_c, 0, 72, 0
2, 65160, Note_on_c, 0, 70, 48
2, 65220, Note_on_c, 0, 70, 0
2, 65220, Note_on_c, 0, 68, 48
2, 65280, Note_on_c, 0, 68, 0
2, 65280, Note_on_c, 0, 67, 48
2, 65340, Note_on_c, 0, 67, 0
2, 65340, Note_on_c, 0, 68, 48
2, 65400, Note_on_c, 0, 68, 0
2, 65400, Note_on_c, 0, 70, 48
2, 65460, Note_on_c, 0, 70, 0
2, 65460, Note_on_c, 0, 68, 48
2, 65520, Note_on_c, 0, 68, 0
2, 65520, Note_on_c, 0, 67, 48
2, 65580, Note_on_c, 0, 67, 0
2, 65580, Note_on_c, 0, 77, 48
2, 65640, Note_on_c, 0, 77, 0
2, 65640, Note_on_c, 0, 75, 48
2, 65700, Note_on_c, 0, 75, 0
2, 65700, Note_on_c, 0, 73, 48
2, 65760, Note_on_c, 0, 73, 0
2, 65760, Note_on_c, 0, 72, 48
2, 65820, Note_on_c, 0, 72, 0
2, 65820, Note_on_c, 0, 73, 48
2, 65880, Note_on_c, 0, 73, 0
2, 65880, Note_on_c, 0, 75, 48
2, 65940, Note_on_c, 0, 75, 0
2, 65940, Note_on_c, 0, 73, 48
2, 66000, Note_on_c, 0, 73, 0
2, 66000, Note_on_c, 0, 72, 48
2, 66060, Note_on_c, 0, 72, 0
2, 66060, Note_on_c, 0, 84, 48
2, 66120, Note_on_c, 0, 84, 0
2, 66120, Note_on_c, 0, 82, 48
2, 66180, Note_on_c, 0, 82, 0
2, 66180, Note_on_c, 0, 80, 48
2, 66240, Note_on_c, 0, 80, 0
2, 66240, Note_on_c, 0, 79, 48
2, 66300, Note_on_c, 0, 79, 0
2, 66300, Note_on_c, 0, 80, 48
2, 66360, Note_on_c, 0, 80, 0
2, 66360, Note_on_c, 0, 82, 48
2, 66420, Note_on_c, 0, 82, 0
2, 66420, Note_on_c, 0, 80, 48
2, 66480, Note_on_c, 0, 80, 0
2, 66480, Note_on_c, 0, 79, 48
2, 66540, Note_on_c, 0, 79, 0
2, 66540, Note_on_c, 0, 89, 48
2, 66600, Note_on_c, 0, 89, 0
2, 66600, Note_on_c, 0, 87, 48
2, 66660, Note_on_c, 0, 87, 0
2, 66660, Note_on_c, 0, 85, 48
2, 66720, Note_on_c, 0, 85, 0
2, 66720, Note_on_c, 0, 84, 48
2, 66780, Note_on_c, 0, 84, 0
2, 66780, Note_on_c, 0, 85, 48
2, 66840, Note_on_c, 0, 85, 0
2, 66840, Note_on_c, 0, 87, 48
2, 66900, Note_on_c, 0, 87, 0
2, 66900, Note_on_c, 0, 85, 48
2, 66960, Note_on_c, 0, 85, 0
2, 66960, Note_on_c, 0, 84, 48
2, 67020, Note_on_c, 0, 84, 0
2, 67020, Note_on_c, 0, 82, 48
2, 67080, Note_on_c, 0, 82, 0
2, 67080, Note_on_c, 0, 80, 48
2, 67140, Note_on_c, 0, 80, 0
2, 67140, Note_on_c, 0, 79, 48
2, 67200, Note_on_c, 0, 79, 0
2, 67200, Note_on_c, 0, 80, 48
2, 67260, Note_on_c, 0, 80, 0
2, 67260, Note_on_c, 0, 82, 48
2, 67320, Note_on_c, 0, 82, 0
2, 67320, Note_on_c, 0, 84, 48
2, 67380, Note_on_c, 0, 84, 0
2, 67380, Note_on_c, 0, 82, 48
2, 67440, Note_on_c, 0, 82, 0
2, 67440, Note_on_c, 0, 80, 48
2, 67500, Note_on_c, 0, 80, 0
2, 67500, Note_on_c, 0, 79, 48
2, 67560, Note_on_c, 0, 79, 0
2, 67560, Note_on_c, 0, 77, 48
2, 67620, Note_on_c, 0, 77, 0
2, 67620, Note_on_c, 0, 75, 48
2, 67680, Note_on_c, 0, 75, 0
2, 67680, Note_on_c, 0, 74, 48
2, 67740, Note_on_c, 0, 74, 0
2, 67740, Note_on_c, 0, 75, 48
2, 67800, Note_on_c, 0, 75, 0
2, 67800, Note_on_c, 0, 77, 48
2, 67860, Note_on_c, 0, 77, 0
2, 67860, Note_on_c, 0, 75, 48
2, 67920, Note_on_c, 0, 75, 0
2, 67920, Note_on_c, 0, 74, 48
2, 67980, Note_on_c, 0, 74, 0
2, 67980, Note_on_c, 0, 80, 48
2, 68040, Note_on_c, 0, 80, 0
2, 68040, Note_on_c, 0, 77, 48
2, 68100, Note_on_c, 0, 77, 0
2, 68100, Note_on_c, 0, 75, 48
2, 68160, Note_on_c, 0, 75, 0
2, 68160, Note_on_c, 0, 74, 48
2, 68220, Note_on_c, 0, 74, 0
2, 68220, Note_on_c, 0, 75, 48
2, 68280, Note_on_c, 0, 75, 0
2, 68280, Note_on_c, 0, 77, 48
2, 68340, Note_on_c, 0, 77, 0
2, 68340, Note_on_c, 0, 75, 48
2, 68400, Note_on_c, 0, 75, 0
2, 68400, Note_on_c, 0, 74, 48
2, 68460, Note_on_c, 0, 74, 0
2, 68460, Note_on_c, 0, 80, 48
2, 68520, Note_on_c, 0, 80, 0
2, 68520, Note_on_c, 0, 77, 48
2, 68580, Note_on_c, 0, 77, 0
2, 68580, Note_on_c, 0, 75, 48
2, 68640, Note_on_c, 0, 75, 0
2, 68640, Note_on_c, 0, 74, 48
2, 68700, Note_on_c, 0, 74, 0
2, 68700, Note_on_c, 0, 77, 48
2, 68760, Note_on_c, 0, 77, 0
2, 68760, Note_on_c, 0, 75, 48
2, 68820, Note_on_c, 0, 75, 0
2, 68820, Note_on_c, 0, 79, 48
2, 68880, Note_on_c, 0, 79, 0
2, 68880, Note_on_c, 0, 77, 48
2, 68940, Note_on_c, 0, 77, 0
2, 68940, Note_on_c, 0, 80, 48
2, 69000, Note_on_c, 0, 80, 0
2, 69000, Note_on_c, 0, 79, 48
2, 69060, Note_on_c, 0, 79, 0
2, 69060, Note_on_c, 0, 82, 48
2, 69120, Note_on_c, 0, 82, 0
2, 69120, Note_on_c, 0, 80, 48
2, 69180, Note_on_c, 0, 80, 0
2, 69180, Note_on_c, 0, 79, 48
2, 69240, Note_on_c, 0, 79, 0
2, 69240, Note_on_c, 0, 77, 48
2, 69300, Note_on_c, 0, 77, 0
2, 69300, Note_on_c, 0, 75, 48
2, 69360, Note_on_c, 0, 75, 0
2, 69360, Note_on_c, 0, 74, 48
2, 69420, Note_on_c, 0, 74, 0
2, 69420, Note_on_c, 0, 72, 48
2, 69480, Note_on_c, 0, 72, 0
2, 69480, Note_on_c, 0, 70, 48
2, 69540, Note_on_c, 0, 70, 0
2, 69540, Note_on_c, 0, 68, 48
2, 69600, Note_on_c, 0, 68, 0
2, 69600, Note_on_c, 0, 67, 48
2, 69660, Note_on_c, 0, 67, 0
2, 69660, Note_on_c, 0, 70, 48
2, 69720, Note_on_c, 0, 70, 0
2, 69720, Note_on_c, 0, 72, 48
2, 69780, Note_on_c, 0, 72, 0
2, 69780, Note_on_c, 0, 70, 48
2, 69840, Note_on_c, 0, 70, 0
2, 69840, Note_on_c, 0, 68, 48
2, 69900, Note_on_c, 0, 68, 0
2, 69900, Note_on_c, 0, 67, 48
2, 69960, Note_on_c, 0, 67, 0
2, 69960, Note_on_c, 0, 65, 48
2, 70020, Note_on_c, 0, 65, 0
2, 70020, Note_on_c, 0, 63, 48
2, 70080, Note_on_c, 0, 63, 0
2, 70080, Note_on_c, 0, 62, 48
2, 70140, Note_on_c, 0, 62, 0
2, 70140, Note_on_c, 0, 63, 48
2, 70200, Note_on_c, 0, 63, 0
2, 70200, Note_on_c, 0, 65, 48
2, 70260, Note_on_c, 0, 65, 0
2, 70260, Note_on_c, 0, 63, 48
2, 70320, Note_on_c, 0, 63, 0
2, 70320, Note_on_c, 0, 62, 48
2, 70380, Note_on_c, 0, 62, 0
2, 70380, Note_on_c, 0, 60, 48
2, 70440, Note_on_c, 0, 60, 0
2, 70440, Note_on_c, 0, 58, 48
2, 70500, Note_on_c, 0, 58, 0
2, 70500, Note_on_c, 0, 56, 48
2, 70560, Note_on_c, 0, 56, 0
2, 70560, Note_on_c, 0, 55, 48
2, 70620, Note_on_c, 0, 55, 0
2, 70620, Note_on_c, 0, 56, 48
2, 70680, Note_on_c, 0, 56, 0
2, 70680, Note_on_c, 0, 58, 48
2, 70740, Note_on_c, 0, 58, 0
2, 70740, Note_on_c, 0, 56, 48
2, 70800, Note_on_c, 0, 56, 0
2, 70800, Note_on_c, 0, 55, 48
2, 70860, Note_on_c, 0, 55, 0
2, 70860, Note_on_c, 0, 67, 48
2, 70920, Note_on_c, 0, 67, 0
2, 70920, Note_on_c, 0, 65, 48
2, 70980, Note_on_c, 0, 65, 0
2, 70980, Note_on_c, 0, 63, 48
2, 71040, Note_on_c, 0, 63, 0
2, 71040, Note_on_c, 0, 62, 48
2, 71100, Note_on_c, 0, 62, 0
2, 71100, Note_on_c, 0, 63, 48
2, 71160, Note_on_c, 0, 63, 0
2, 71160, Note_on_c, 0, 65, 48
2, 71220, Note_on_c, 0, 65, 0
2, 71220, Note_on_c, 0, 63, 48
2, 71280, Note_on_c, 0, 63, 0
2, 71280, Note_on_c, 0, 62, 48
2, 71340, Note_on_c, 0, 62, 0
2, 71340, Note_on_c, 0, 72, 48
2, 71400, Note_on_c, 0, 72, 0
2, 71400, Note_on_c, 0, 70, 48
2, 71460, Note_on_c, 0, 70, 0
2, 71460, Note_on_c, 0, 68, 48
2, 71520, Note_on_c, 0, 68, 0
2, 71520, Note_on_c, 0, 67, 48
2, 71580, Note_on_c, 0, 67, 0
2, 71580, Note_on_c, 0, 68, 48
2, 71640, Note_on_c, 0, 68, 0
2, 71640, Note_on_c, 0, 70, 48
2, 71700, Note_on_c, 0, 70, 0
2, 71700, Note_on_c, 0, 68, 48
2, 71760, Note_on_c, 0, 68, 0
2, 71760, Note_on_c, 0, 67, 48
2, 71820, Note_on_c, 0, 67, 0
2, 71820, Note_on_c, 0, 79, 48
2, 71880, Note_on_c, 0, 79, 0
2, 71880, Note_on_c, 0, 77, 48
2, 71940, Note_on_c, 0, 77, 0
2, 71940, Note_on_c, 0, 75, 48
2, 72000, Note_on_c, 0, 75, 0
2, 72000, Note_on_c, 0, 74, 48
2, 72060, Note_on_c, 0, 74, 0
2, 72060, Note_on_c, 0, 75, 48
2, 72120, Note_on_c, 0, 75, 0
2, 72120, Note_on_c, 0, 77, 48
2, 72180, Note_on_c, 0, 77, 0
2, 72180, Note_on_c, 0, 75, 48
2, 72240, Note_on_c, 0, 75, 0
2, 72240, Note_on_c, 0, 74, 48
2, 72300, Note_on_c, 0, 74, 0
2, 72300, Note_on_c, 0, 84, 48
2, 72360, Note_on_c, 0, 84, 0
2, 72360, Note_on_c, 0, 80, 48
2, 72420, Note_on_c, 0, 80, 0
2, 72420, Note_on_c, 0, 77, 48
2, 72480, Note_on_c, 0, 77, 0
2, 72480, Note_on_c, 0, 79, 48
2, 72540, Note_on_c, 0, 79, 0
2, 72540, Note_on_c, 0, 75, 48
2, 72600, Note_on_c, 0, 75, 0
2, 72600, Note_on_c, 0, 74, 48
2, 72660, Note_on_c, 0, 74, 0
2, 72660, Note_on_c, 0, 75, 48
2, 72720, Note_on_c, 0, 75, 0
2, 72720, Note_on_c, 0, 79, 48
2, 72780, Note_on_c, 0, 79, 0
2, 72780, Note_on_c, 0, 75, 48
2, 72840, Note_on_c, 0, 75, 0
2, 72840, Note_on_c, 0, 74, 48
2, 72900, Note_on_c, 0, 74, 0
2, 72900, Note_on_c, 0, 75, 48
2, 72960, Note_on_c, 0, 75, 0
2, 72960, Note_on_c, 0, 80, 48
2, 73020, Note_on_c, 0, 80, 0
2, 73020, Note_on_c, 0, 75, 48
2, 73080, Note_on_c, 0, 75, 0
2, 73080, Note_on_c, 0, 72, 48
2, 73140, Note_on_c, 0, 72, 0
2, 73140, Note_on_c, 0, 75, 48
2, 73200, Note_on_c, 0, 75, 0
2, 73200, Note_on_c, 0, 80, 48
2, 73260, Note_on_c, 0, 80, 0
2, 73260, Note_on_c, 0, 75, 48
2, 73320, Note_on_c, 0, 75, 0
2, 73320, Note_on_c, 0, 72, 48
2, 73380, Note_on_c, 0, 72, 0
2, 73380, Note_on_c, 0, 75, 48
2, 73440, Note_on_c, 0, 75, 0
2, 73440, Note_on_c, 0, 82, 48
2, 73500, Note_on_c, 0, 82, 0
2, 73500, Note_on_c, 0, 75, 48
2, 73560, Note_on_c, 0, 75, 0
2, 73560, Note_on_c, 0, 67, 48
2, 73620, Note_on_c, 0, 67, 0
2, 73620, Note_on_c, 0, 75, 48
2, 73680, Note_on_c, 0, 75, 0
2, 73680, Note_on_c, 0, 82, 48
2, 73740, Note_on_c, 0, 82, 0
2, 73740, Note_on_c, 0, 75, 48
2, 73800, Note_on_c, 0, 75, 0
2, 73800, Note_on_c, 0, 67, 48
2, 73860, Note_on_c, 0, 67, 0
2, 73860, Note_on_c, 0, 75, 48
2, 73920, Note_on_c, 0, 75, 0
2, 73920, Note_on_c, 0, 84, 48
2, 73980, Note_on_c, 0, 84, 0
2, 73980, Note_on_c, 0, 75, 48
2, 74040, Note_on_c, 0, 75, 0
2, 74040, Note_on_c, 0, 68, 48
2, 74100, Note_on_c, 0, 68, 0
2, 74100, Note_on_c, 0, 75, 48
2, 74160, Note_on_c, 0, 75, 0
2, 74160, Note_on_c, 0, 82, 48
2, 74220, Note_on_c, 0, 82, 0
2, 74220, Note_on_c, 0, 75, 48
2, 74280, Note_on_c, 0, 75, 0
2, 74280, Note_on_c, 0, 66, 48
2, 74340, Note_on_c, 0, 66, 0
2, 74340, Note_on_c, 0, 75, 48
2, 74400, Note_on_c, 0, 75, 0
2, 74400, Note_on_c, 0, 81, 48
2, 74460, Note_on_c, 0, 81, 0
2, 74460, Note_on_c, 0, 75, 48
2, 74520, Note_on_c, 0, 75, 0
2, 74520, Note_on_c, 0, 65, 48
2, 74580, Note_on_c, 0, 65, 0
2, 74580, Note_on_c, 0, 75, 48
2, 74640, Note_on_c, 0, 75, 0
2, 74640, Note_on_c, 0, 82, 48
2, 74700, Note_on_c, 0, 82, 0
2, 74700, Note_on_c, 0, 75, 48
2, 74760, Note_on_c, 0, 75, 0
2, 74760, Note_on_c, 0, 66, 48
2, 74820, Note_on_c, 0, 66, 0
2, 74820, Note_on_c, 0, 75, 48
2, 74880, Note_on_c, 0, 75, 0
2, 74880, Note_on_c, 0, 81, 48
2, 74940, Note_on_c, 0, 81, 0
2, 74940, Note_on_c, 0, 75, 48
2, 75000, Note_on_c, 0, 75, 0
2, 75000, Note_on_c, 0, 65, 48
2, 75060, Note_on_c, 0, 65, 0
2, 75060, Note_on_c, 0, 75, 48
2, 75120, Note_on_c, 0, 75, 0
2, 75120, Note_on_c, 0, 84, 48
2, 75180, Note_on_c, 0, 84, 0
2, 75180, Note_on_c, 0, 75, 48
2, 75240, Note_on_c, 0, 75, 0
2, 75240, Note_on_c, 0, 69, 48
2, 75300, Note_on_c, 0, 69, 0
2, 75300, Note_on_c, 0, 75, 48
2, 75360, Note_on_c, 0, 75, 0
2, 75360, Note_on_c, 0, 77, 48
2, 75420, Note_on_c, 0, 77, 0
2, 75420, Note_on_c, 0, 74, 48
2, 75480, Note_on_c, 0, 74, 0
2, 75480, Note_on_c, 0, 70, 48
2, 75540, Note_on_c, 0, 70, 0
2, 75540, Note_on_c, 0, 74, 48
2, 75600, Note_on_c, 0, 74, 0
2, 75600, Note_on_c, 0, 79, 48
2, 75660, Note_on_c, 0, 79, 0
2, 75660, Note_on_c, 0, 75, 48
2, 75720, Note_on_c, 0, 75, 0
2, 75720, Note_on_c, 0, 70, 48
2, 75780, Note_on_c, 0, 70, 0
2, 75780, Note_on_c, 0, 75, 48
2, 75840, Note_on_c, 0, 75, 0
2, 75840, Note_on_c, 0, 80, 48
2, 75900, Note_on_c, 0, 80, 0
2, 75900, Note_on_c, 0, 77, 48
2, 75960, Note_on_c, 0, 77, 0
2, 75960, Note_on_c, 0, 70, 48
2, 76020, Note_on_c, 0, 70, 0
2, 76020, Note_on_c, 0, 77, 48
2, 76080, Note_on_c, 0, 77, 0
2, 76080, Note_on_c, 0, 77, 48
2, 76140, Note_on_c, 0, 77, 0
2, 76140, Note_on_c, 0, 74, 48
2, 76200, Note_on_c, 0, 74, 0
2, 76200, Note_on_c, 0, 70, 48
2, 76260, Note_on_c, 0, 70, 0
2, 76260, Note_on_c, 0, 74, 48
2, 76320, Note_on_c, 0, 74, 0
2, 76320, Note_on_c, 0, 79, 48
2, 76380, Note_on_c, 0, 79, 0
2, 76380, Note_on_c, 0, 70, 48
2, 76440, Note_on_c, 0, 70, 0
2, 76440, Note_on_c, 0, 63, 48
2, 76500, Note_on_c, 0, 63, 0
2, 76500, Note_on_c, 0, 70, 48
2, 76560, Note_on_c, 0, 70, 0
2, 76560, Note_on_c, 0, 77, 48
2, 76620, Note_on_c, 0, 77, 0
2, 76620, Note_on_c, 0, 68, 48
2, 76680, Note_on_c, 0, 68, 0
2, 76680, Note_on_c, 0, 63, 48
2, 76740, Note_on_c, 0, 63, 0
2, 76740, Note_on_c, 0, 68, 48
2, 76800, Note_on_c, 0, 68, 0
2, 76800, Note_on_c, 0, 75, 48
2, 76860, Note_on_c, 0, 75, 0
2, 76860, Note_on_c, 0, 67, 48
2, 76920, Note_on_c, 0, 67, 0
2, 76920, Note_on_c, 0, 63, 48
2, 76980, Note_on_c, 0, 63, 0
2, 76980, Note_on_c, 0, 67, 48
2, 77040, Note_on_c, 0, 67, 0
2, 77040, Note_on_c, 0, 79, 48
2, 77100, Note_on_c, 0, 79, 0
2, 77100, Note_on_c, 0, 70, 48
2, 77160, Note_on_c, 0, 70, 0
2, 77160, Note_on_c, 0, 63, 48
2, 77220, Note_on_c, 0, 63, 0
2, 77220, Note_on_c, 0, 70, 48
2, 77280, Note_on_c, 0, 70, 0
2, 77280, Note_on_c, 0, 80, 48
2, 77340, Note_on_c, 0, 80, 0
2, 77340, Note_on_c, 0, 72, 48
2, 77400, Note_on_c, 0, 72, 0
2, 77400, Note_on_c, 0, 63, 48
2, 77460, Note_on_c, 0, 63, 0
2, 77460, Note_on_c, 0, 72, 48
2, 77520, Note_on_c, 0, 72, 0
2, 77520, Note_on_c, 0, 79, 48
2, 77580, Note_on_c, 0, 79, 0
2, 77580, Note_on_c, 0, 70, 48
2, 77640, Note_on_c, 0, 70, 0
2, 77640, Note_on_c, 0, 63, 48
2, 77700, Note_on_c, 0, 63, 0
2, 77700, Note_on_c, 0, 70, 48
2, 77760, Note_on_c, 0, 70, 0
2, 77760, Note_on_c, 0, 77, 48
2, 77820, Note_on_c, 0, 77, 0
2, 77820, Note_on_c, 0, 68, 48
2, 77880, Note_on_c, 0, 68, 0
2, 77880, Note_on_c, 0, 63, 48
2, 77940, Note_on_c, 0, 63, 0
2, 77940, Note_on_c, 0, 68, 48
2, 78000, Note_on_c, 0, 68, 0
2, 78000, Note_on_c, 0, 80, 48
2, 78060, Note_on_c, 0, 80, 0
2, 78060, Note_on_c, 0, 72, 48
2, 78120, Note_on_c, 0, 72, 0
2, 78120, Note_on_c, 0, 63, 48
2, 78180, Note_on_c, 0, 63, 0
2, 78180, Note_on_c, 0, 72, 48
2, 78240, Note_on_c, 0, 72, 0
2, 78240, Note_on_c, 0, 79, 48
2, 78300, Note_on_c, 0, 79, 0
2, 78300, Note_on_c, 0, 70, 48
2, 78360, Note_on_c, 0, 70, 0
2, 78360, Note_on_c, 0, 63, 48
2, 78420, Note_on_c, 0, 63, 0
2, 78420, Note_on_c, 0, 70, 48
2, 78480, Note_on_c, 0, 70, 0
2, 78480, Note_on_c, 0, 77, 48
2, 78540, Note_on_c, 0, 77, 0
2, 78540, Note_on_c, 0, 68, 48
2, 78600, Note_on_c, 0, 68, 0
2, 78600, Note_on_c, 0, 63, 48
2, 78660, Note_on_c, 0, 63, 0
2, 78660, Note_on_c, 0, 68, 48
2, 78720, Note_on_c, 0, 68, 0
2, 78720, Note_on_c, 0, 75, 48
2, 78780, Note_on_c, 0, 75, 0
2, 78780, Note_on_c, 0, 67, 48
2, 78840, Note_on_c, 0, 67, 0
2, 78840, Note_on_c, 0, 63, 48
2, 78900, Note_on_c, 0, 63, 0
2, 78900, Note_on_c, 0, 67, 48
2, 78960, Note_on_c, 0, 67, 0
2, 78960, Note_on_c, 0, 82, 48
2, 79020, Note_on_c, 0, 82, 0
2, 79020, Note_on_c, 0, 79, 48
2, 79080, Note_on_c, 0, 79, 0
2, 79080, Note_on_c, 0, 75, 48
2, 79140, Note_on_c, 0, 75, 0
2, 79140, Note_on_c, 0, 79, 48
2, 79200, Note_on_c, 0, 79, 0
2, 79200, Note_on_c, 0, 82, 48
2, 79260, Note_on_c, 0, 82, 0
2, 79260, Note_on_c, 0, 77, 48
2, 79320, Note_on_c, 0, 77, 0
2, 79320, Note_on_c, 0, 74, 48
2, 79380, Note_on_c, 0, 74, 0
2, 79380, Note_on_c, 0, 77, 48
2, 79440, Note_on_c, 0, 77, 0
2, 79440, Note_on_c, 0, 82, 48
2, 79500, Note_on_c, 0, 82, 0
2, 79500, Note_on_c, 0, 75, 48
2, 79560, Note_on_c, 0, 75, 0
2, 79560, Note_on_c, 0, 72, 48
2, 79620, Note_on_c, 0, 72, 0
2, 79620, Note_on_c, 0, 75, 48
2, 79680, Note_on_c, 0, 75, 0
2, 79680, Note_on_c, 0, 82, 48
2, 79740, Note_on_c, 0, 82, 0
2, 79740, Note_on_c, 0, 74, 48
2, 79800, Note_on_c, 0, 74, 0
2, 79800, Note_on_c, 0, 70, 48
2, 79860, Note_on_c, 0, 70, 0
2, 79860, Note_on_c, 0, 74, 48
2, 79920, Note_on_c, 0, 74, 0
2, 79920, Note_on_c, 0, 82, 48
2, 79980, Note_on_c, 0, 82, 0
2, 79980, Note_on_c, 0, 79, 48
2, 80040, Note_on_c, 0, 79, 0
2, 80040, Note_on_c, 0, 75, 48
2, 80100, Note_on_c, 0, 75, 0
2, 80100, Note_on_c, 0, 79, 48
2, 80160, Note_on_c, 0, 79, 0
2, 80160, Note_on_c, 0, 82, 48
2, 80220, Note_on_c, 0, 82, 0
2, 80220, Note_on_c, 0, 77, 48
2, 80280, Note_on_c, 0, 77, 0
2, 80280, Note_on_c, 0, 74, 48
2, 80340, Note_on_c, 0, 74, 0
2, 80340, Note_on_c, 0, 77, 48
2, 80400, Note_on_c, 0, 77, 0
2, 80400, Note_on_c, 0, 82, 48
2, 80460, Note_on_c, 0, 82, 0
2, 80460, Note_on_c, 0, 75, 48
2, 80520, Note_on_c, 0, 75, 0
2, 80520, Note_on_c, 0, 72, 48
2, 80580, Note_on_c, 0, 72, 0
2, 80580, Note_on_c, 0, 75, 48
2, 80640, Note_on_c, 0, 75, 0
2, 80640, Note_on_c, 0, 82, 48
2, 80700, Note_on_c, 0, 82, 0
2, 80700, Note_on_c, 0, 74, 48
2, 80760, Note_on_c, 0, 74, 0
2, 80760, Note_on_c, 0, 70, 48
2, 80820, Note_on_c, 0, 70, 0
2, 80820, Note_on_c, 0, 74, 48
2, 80880, Note_on_c, 0, 74, 0
2, 80880, Note_on_c, 0, 82, 48
2, 80940, Note_on_c, 0, 82, 0
2, 80940, Note_on_c, 0, 74, 48
2, 81000, Note_on_c, 0, 74, 0
2, 81000, Note_on_c, 0, 68, 48
2, 81060, Note_on_c, 0, 68, 0
2, 81060, Note_on_c, 0, 74, 48
2, 81120, Note_on_c, 0, 74, 0
2, 81120, Note_on_c, 0, 83, 48
2, 81180, Note_on_c, 0, 83, 0
2, 81180, Note_on_c, 0, 74, 49
2, 81240, Note_on_c, 0, 74, 0
2, 81240, Note_on_c, 0, 67, 50
2, 81300, Note_on_c, 0, 67, 0
2, 81300, Note_on_c, 0, 74, 51
2, 81360, Note_on_c, 0, 74, 0
2, 81360, Note_on_c, 0, 83, 52
2, 81420, Note_on_c, 0, 83, 0
2, 81420, Note_on_c, 0, 74, 53
2, 81480, Note_on_c, 0, 74, 0
2, 81480, Note_on_c, 0, 67, 54
2, 81540, Note_on_c, 0, 67, 0
2, 81540, Note_on_c, 0, 74, 55
2, 81600, Note_on_c, 0, 74, 0
2, 81600, Note_on_c, 0, 84, 56
2, 81660, Note_on_c, 0, 84, 0
2, 81660, Note_on_c, 0, 75, 57
2, 81720, Note_on_c, 0, 75, 0
2, 81720, Note_on_c, 0, 66, 58
2, 81780, Note_on_c, 0, 66, 0
2, 81780, Note_on_c, 0, 75, 59
2, 81840, Note_on_c, 0, 75, 0
2, 81840, Note_on_c, 0, 84, 60
2, 81900, Note_on_c, 0, 84, 0
2, 81900, Note_on_c, 0, 75, 61
2, 81960, Note_on_c, 0, 75, 0
2, 81960, Note_on_c, 0, 66, 62
2, 82020, Note_on_c, 0, 66, 0
2, 82020, Note_on_c, 0, 75, 63
2, 82080, Note_on_c, 0, 75, 0
2, 82080, Note_on_c, 0, 83, 64
2, 82140, Note_on_c, 0, 83, 0
2, 82140, Note_on_c, 0, 74, 65
2, 82200, Note_on_c, 0, 74, 0
2, 82200, Note_on_c, 0, 67, 66
2, 82260, Note_on_c, 0, 67, 0
2, 82260, Note_on_c, 0, 74, 67
2, 82320, Note_on_c, 0, 74, 0
2, 82320, Note_on_c, 0, 83, 68
2, 82380, Note_on_c, 0, 83, 0
2, 82380, Note_on_c, 0, 74, 69
2, 82440, Note_on_c, 0, 74, 0
2, 82440, Note_on_c, 0, 67, 70
2, 82500, Note_on_c, 0, 67, 0
2, 82500, Note_on_c, 0, 74, 71
2, 82560, Note_on_c, 0, 74, 0
2, 82560, Note_on_c, 0, 84, 72
2, 82620, Note_on_c, 0, 84, 0
2, 82620, Note_on_c, 0, 75, 73
2, 82680, Note_on_c, 0, 75, 0
2, 82680, Note_on_c, 0, 66, 74
2, 82740, Note_on_c, 0, 66, 0
2, 82740, Note_on_c, 0, 75, 75
2, 82800, Note_on_c, 0, 75, 0
2, 82800, Note_on_c, 0, 84, 76
2, 82860, Note_on_c, 0, 84, 0
2, 82860, Note_on_c, 0, 75, 77
2, 82920, Note_on_c, 0, 75, 0
2, 82920, Note_on_c, 0, 66, 78
2, 82980, Note_on_c, 0, 66, 0
2, 82980, Note_on_c, 0, 75, 79
2, 83040, Note_on_c, 0, 75, 0
2, 83040, Note_on_c, 0, 83, 88
2, 83100, Note_on_c, 0, 83, 0
2, 83100, Note_on_c, 0, 71, 88
2, 83256, Note_on_c, 0, 71, 0
2, 83280, Note_on_c, 0, 79, 88
2, 83328, Note_on_c, 0, 79, 0
2, 83340, Note_on_c, 0, 67, 88
2, 83496, Note_on_c, 0, 67, 0
2, 83520, Note_on_c, 0, 74, 88
2, 83568, Note_on_c, 0, 74, 0
2, 83580, Note_on_c, 0, 62, 88
2, 83736, Note_on_c, 0, 62, 0
2, 83760, Note_on_c, 0, 71, 88
2, 83808, Note_on_c, 0, 71, 0
2, 83820, Note_on_c, 0, 59, 88
2, 83976, Note_on_c, 0, 59, 0
2, 84840, Note_on_c, 0, 67, 88
2, 84876, Note_on_c, 0, 67, 0
2, 84960, Note_on_c, 0, 67, 72
2, 84996, Note_on_c, 0, 67, 0
2, 85080, Note_on_c, 0, 67, 72
2, 85116, Note_on_c, 0, 67, 0
2, 85200, Note_on_c, 0, 67, 72
2, 85236, Note_on_c, 0, 67, 0
2, 85320, Note_on_c, 0, 67, 88
2, 85320, Note_on_c, 0, 68, 88
2, 85356, Note_on_c, 0, 68, 0
2, 85356, Note_on_c, 0, 67, 0
2, 85440, Note_on_c, 0, 67, 72
2, 85440, Note_on_c, 0, 68, 72
2, 85476, Note_on_c, 0, 68, 0
2, 85476, Note_on_c, 0, 67, 0
2, 85560, Note_on_c, 0, 67, 72
2, 85560, Note_on_c, 0, 68, 72
2, 85596, Note_on_c, 0, 68, 0
2, 85596, Note_on_c, 0, 67, 0
2, 85680, Note_on_c, 0, 67, 72
2, 85680, Note_on_c, 0, 68, 72
2, 85716, Note_on_c, 0, 68, 0
2, 85716, Note_on_c, 0, 67, 0
2, 85800, Note_on_c, 0, 68, 88
2, 85800, Note_on_c, 0, 65, 88
2, 85836, Note_on_c, 0, 65, 0
2, 85836, Note_on_c, 0, 68, 0
2, 85920, Note_on_c, 0, 65, 72
2, 85920, Note_on_c, 0, 68, 72
2, 85956, Note_on_c, 0, 68, 0
2, 85956, Note_on_c, 0, 65, 0
2, 86040, Note_on_c, 0, 65, 72
2, 86040, Note_on_c, 0, 68, 72
2, 86076, Note_on_c, 0, 68, 0
2, 86076, Note_on_c, 0, 65, 0
2, 86160, Note_on_c, 0, 65, 72
2, 86160, Note_on_c, 0, 68, 72
2, 86196, Note_on_c, 0, 68, 0
2, 86196, Note_on_c, 0, 65, 0
2, 86280, Note_on_c, 0, 65, 72
2, 86280, Note_on_c, 0, 68, 72
2, 86316, Note_on_c, 0, 68, 0
2, 86316, Note_on_c, 0, 65, 0
2, 86400, Note_on_c, 0, 67, 72
2, 86400, Note_on_c, 0, 65, 72
2, 86640, Note_on_c, 0, 65, 0
2, 86640, Note_on_c, 0, 67, 0
2, 86760, Note_on_c, 0, 72, 88
2, 86796, Note_on_c, 0, 72, 0
2, 86880, Note_on_c, 0, 72, 72
2, 86916, Note_on_c, 0, 72, 0
2, 87000, Note_on_c, 0, 72, 72
2, 87036, Note_on_c, 0, 72, 0
2, 87120, Note_on_c, 0, 72, 72
2, 87156, Note_on_c, 0, 72, 0
2, 87240, Note_on_c, 0, 73, 88
2, 87240, Note_on_c, 0, 72, 88
2, 87276, Note_on_c, 0, 72, 0
2, 87276, Note_on_c, 0, 73, 0
2, 87360, Note_on_c, 0, 72, 72
2, 87360, Note_on_c, 0, 73, 72
2, 87396, Note_on_c, 0, 73, 0
2, 87396, Note_on_c, 0, 72, 0
2, 87480, Note_on_c, 0, 72, 72
2, 87480, Note_on_c, 0, 73, 72
2, 87516, Note_on_c, 0, 73, 0
2, 87516, Note_on_c, 0, 72, 0
2, 87600, Note_on_c, 0, 72, 72
2, 87600, Note_on_c, 0, 73, 72
2, 87636, Note_on_c, 0, 73, 0
2, 87636, Note_on_c, 0, 72, 0
2, 87720, Note_on_c, 0, 70, 88
2, 87720, Note_on_c, 0, 73, 88
2, 87756, Note_on_c, 0, 73, 0
2, 87756, Note_on_c, 0, 70, 0
2, 87840, Note_on_c, 0, 70, 72
2, 87840, Note_on_c, 0, 73, 72
2, 87876, Note_on_c, 0, 73, 0
2, 87876, Note_on_c, 0, 70, 0
2, 87960, Note_on_c, 0, 70, 72
2, 87960, Note_on_c, 0, 73, 72
2, 87996, Note_on_c, 0, 73, 0
2, 87996, Note_on_c, 0, 70, 0
2, 88080, Note_on_c, 0, 70, 72
2, 88080, Note_on_c, 0, 73, 72
2, 88116, Note_on_c, 0, 73, 0
2, 88116, Note_on_c, 0, 70, 0
2, 88200, Note_on_c, 0, 70, 72
2, 88200, Note_on_c, 0, 73, 72
2, 88236, Note_on_c, 0, 73, 0
2, 88236, Note_on_c, 0, 70, 0
2, 88320, Note_on_c, 0, 72, 72
2, 88320, Note_on_c, 0, 68, 72
2, 88560, Note_on_c, 0, 68, 0
2, 88560, Note_on_c, 0, 72, 0
2, 88680, Note_on_c, 0, 84, 80
2, 88680, Note_on_c, 0, 80, 80
2, 88680, Note_on_c, 0, 75, 80
2, 88716, Note_on_c, 0, 75, 0
2, 88716, Note_on_c, 0, 80, 0
2, 88716, Note_on_c, 0, 84, 0
2, 88800, Note_on_c, 0, 84, 88
2, 88800, Note_on_c, 0, 80, 88
2, 88800, Note_on_c, 0, 75, 88
2, 88836, Note_on_c, 0, 75, 0
2, 88836, Note_on_c, 0, 80, 0
2, 88836, Note_on_c, 0, 84, 0
2, 88920, Note_on_c, 0, 84, 88
2, 88920, Note_on_c, 0, 80, 88
2, 88920, Note_on_c, 0, 75, 88
2, 88956, Note_on_c, 0, 75, 0
2, 88956, Note_on_c, 0, 80, 0
2, 88956, Note_on_c, 0, 84, 0
2, 89040, Note_on_c, 0, 84, 88
2, 89040, Note_on_c, 0, 80, 88
2, 89040, Note_on_c, 0, 75, 88
2, 89076, Note_on_c, 0, 75, 0
2, 89076, Note_on_c, 0, 80, 0
2, 89076, Note_on_c, 0, 84, 0
2, 89160, Note_on_c, 0, 84, 88
2, 89160, Note_on_c, 0, 80, 88
2, 89160, Note_on_c, 0, 75, 88
2, 89196, Note_on_c, 0, 75, 0
2, 89196, Note_on_c, 0, 80, 0
2, 89196, Note_on_c, 0, 84, 0
2, 89280, Note_on_c, 0, 79, 88
2, 89280, Note_on_c, 0, 73, 88
2, 89520, Note_on_c, 0, 73, 0
2, 89520, Note_on_c, 0, 79, 0
2, 89520, Note_on_c, 0, 72, 80
2, 89520, Note_on_c, 0, 80, 80
2, 89640, Note_on_c, 0, 80, 0
2, 89640, Note_on_c, 0, 72, 0
2, 89640, Note_on_c, 0, 84, 80
2, 89640, Note_on_c, 0, 87, 80
2, 89676, Note_on_c, 0, 87, 0
2, 89676, Note_on_c, 0, 84, 0
2, 89760, Note_on_c, 0, 84, 80
2, 89760, Note_on_c, 0, 87, 80
2, 89796, Note_on_c, 0, 87, 0
2, 89796, Note_on_c, 0, 84, 0
2, 89880, Note_on_c, 0, 84, 80
2, 89880, Note_on_c, 0, 87, 80
2, 89916, Note_on_c, 0, 87, 0
2, 89916, Note_on_c, 0, 84, 0
2, 90000, Note_on_c, 0, 84, 80
2, 90000, Note_on_c, 0, 87, 80
2, 90036, Note_on_c, 0, 87, 0
2, 90036, Note_on_c, 0, 84, 0
2, 90120, Note_on_c, 0, 84, 80
2, 90120, Note_on_c, 0, 87, 80
2, 90156, Note_on_c, 0, 87, 0
2, 90156, Note_on_c, 0, 84, 0
2, 90240, Note_on_c, 0, 82, 80
2, 90240, Note_on_c, 0, 79, 80
2, 90480, Note_on_c, 0, 79, 0
2, 90480, Note_on_c, 0, 82, 0
2, 90480, Note_on_c, 0, 84, 48
2, 90480, Note_on_c, 0, 80, 48
2, 90516, Note_on_c, 0, 80, 0
2, 90516, Note_on_c, 0, 84, 0
2, 90600, Note_on_c, 0, 84, 48
2, 90600, Note_on_c, 0, 80, 48
2, 90636, Note_on_c, 0, 80, 0
2, 90636, Note_on_c, 0, 84, 0
2, 90720, Note_on_c, 0, 80, 48
2, 90720, Note_on_c, 0, 84, 48
2, 90756, Note_on_c, 0, 84, 0
2, 90756, Note_on_c, 0, 80, 0
2, 90840, Note_on_c, 0, 80, 48
2, 90840, Note_on_c, 0, 84, 48
2, 90876, Note_on_c, 0, 84, 0
2, 90876, Note_on_c, 0, 80, 0
2, 90960, Note_on_c, 0, 80, 48
2, 90960, Note_on_c, 0, 84, 48
2, 90996, Note_on_c, 0, 84, 0
2, 90996, Note_on_c, 0, 80, 0
2, 91080, Note_on_c, 0, 80, 48
2, 91080, Note_on_c, 0, 84, 48
2, 91116, Note_on_c, 0, 84, 0
2, 91116, Note_on_c, 0, 80, 0
2, 91200, Note_on_c, 0, 76, 48
2, 91200, Note_on_c, 0, 79, 48
2, 91440, Note_on_c, 0, 79, 0
2, 91440, Note_on_c, 0, 76, 0
2, 91440, Note_on_c, 0, 77, 32
2, 91440, Note_on_c, 0, 80, 32
2, 91560, Note_on_c, 0, 80, 0
2, 91560, Note_on_c, 0, 77, 0
2, 93000, Note_on_c, 0, 77, 80
2, 93000, Note_on_c, 0, 80, 80
2, 93036, Note_on_c, 0, 80, 0
2, 93036, Note_on_c, 0, 77, 0
2, 93120, Note_on_c, 0, 77, 80
2, 93120, Note_on_c, 0, 80, 80
2, 93156, Note_on_c, 0, 80, 0
2, 93156, Note_on_c, 0, 77, 0
2, 93240, Note_on_c, 0, 77, 80
2, 93240, Note_on_c, 0, 80, 80
2, 93276, Note_on_c, 0, 80, 0
2, 93276, Note_on_c, 0, 77, 0
2, 93360, Note_on_c, 0, 77, 80
2, 93360, Note_on_c, 0, 80, 80
2, 93396, Note_on_c, 0, 80, 0
2, 93396, Note_on_c, 0, 77, 0
2, 93480, Note_on_c, 0, 77, 80
2, 93480, Note_on_c, 0, 80, 80
2, 93516, Note_on_c, 0, 80, 0
2, 93516, Note_on_c, 0, 77, 0
2, 93600, Note_on_c, 0, 77, 80
2, 93600, Note_on_c, 0, 80, 80
2, 93840, Note_on_c, 0, 80, 0
2, 93840, Note_on_c, 0, 77, 0
2, 93840, Note_on_c, 0, 76, 80
2, 93840, Note_on_c, 0, 79, 80
2, 93876, Note_on_c, 0, 79, 0
2, 93876, Note_on_c, 0, 76, 0
2, 93960, Note_on_c, 0, 75, 80
2, 93960, Note_on_c, 0, 79, 80
2, 93996, Note_on_c, 0, 79, 0
2, 93996, Note_on_c, 0, 75, 0
2, 94080, Note_on_c, 0, 75, 80
2, 94080, Note_on_c, 0, 78, 80
2, 94116, Note_on_c, 0, 78, 0
2, 94116, Note_on_c, 0, 75, 0
2, 94200, Note_on_c, 0, 75, 80
2, 94200, Note_on_c, 0, 78, 80
2, 94236, Note_on_c, 0, 78, 0
2, 94236, Note_on_c, 0, 75, 0
2, 94320, Note_on_c, 0, 75, 80
2, 94320, Note_on_c, 0, 78, 80
2, 94356, Note_on_c, 0, 78, 0
2, 94356, Note_on_c, 0, 75, 0
2, 94440, Note_on_c, 0, 75, 80
2, 94440, Note_on_c, 0, 78, 80
2, 94476, Note_on_c, 0, 78, 0
2, 94476, Note_on_c, 0, 75, 0
2, 94560, Note_on_c, 0, 75, 80
2, 94560, Note_on_c, 0, 78, 80
2, 94800, Note_on_c, 0, 78, 0
2, 94800, Note_on_c, 0, 75, 0
2, 94800, Note_on_c, 0, 74, 80
2, 94800, Note_on_c, 0, 77, 80
2, 94836, Note_on_c, 0, 77, 0
2, 94836, Note_on_c, 0, 74, 0
2, 94920, Note_on_c, 0, 82, 80
2, 94956, Note_on_c, 0, 82, 0
2, 95040, Note_on_c, 0, 81, 80
2, 95160, Note_on_c, 0, 81, 0
2, 95160, Note_on_c, 0, 80, 80
2, 95280, Note_on_c, 0, 80, 0
2, 95280, Note_on_c, 0, 79, 80
2, 95400, Note_on_c, 0, 79, 0
2, 95400, Note_on_c, 0, 78, 80
2, 95520, Note_on_c, 0, 78, 0
2, 95520, Note_on_c, 0, 77, 80
2, 95640, Note_on_c, 0, 77, 0
2, 95640, Note_on_c, 0, 76, 80
2, 95760, Note_on_c, 0, 76, 0
2, 95760, Note_on_c, 0, 77, 80
2, 95796, Note_on_c, 0, 77, 0
2, 95880, Note_on_c, 0, 80, 80
2, 96000, Note_on_c, 0, 80, 0
2, 96000, Note_on_c, 0, 79, 80
2, 96120, Note_on_c, 0, 79, 0
2, 96120, Note_on_c, 0, 78, 80
2, 96240, Note_on_c, 0, 78, 0
2, 96240, Note_on_c, 0, 77, 80
2, 96360, Note_on_c, 0, 77, 0
2, 96360, Note_on_c, 0, 76, 80
2, 96480, Note_on_c, 0, 76, 0
2, 96480, Note_on_c, 0, 75, 80
2, 96600, Note_on_c, 0, 75, 0
2, 96600, Note_on_c, 0, 74, 80
2, 96720, Note_on_c, 0, 74, 0
2, 96720, Note_on_c, 0, 75, 80
2, 96756, Note_on_c, 0, 75, 0
2, 96840, Note_on_c, 0, 87, 48
2, 96960, Note_on_c, 0, 87, 0
2, 96960, Note_on_c, 0, 86, 48
2, 97080, Note_on_c, 0, 86, 0
2, 97080, Note_on_c, 0, 85, 48
2, 97200, Note_on_c, 0, 85, 0
2, 97200, Note_on_c, 0, 84, 48
2, 97320, Note_on_c, 0, 84, 0
2, 97320, Note_on_c, 0, 83, 48
2, 97440, Note_on_c, 0, 83, 0
2, 97440, Note_on_c, 0, 82, 48
2, 97776, Note_on_c, 0, 82, 0
2, 97860, Note_on_c, 0, 72, 48
2, 97875, Note_on_c, 0, 75, 48
2, 97890, Note_on_c, 0, 77, 48
2, 97905, Note_on_c, 0, 81, 48
2, 98400, Note_on_c, 0, 81, 0
2, 98400, Note_on_c, 0, 72, 0
2, 98400, Note_on_c, 0, 75, 0
2, 98400, Note_on_c, 0, 77, 0
2, 98760, Note_on_c, 0, 80, 48
2, 98880, Note_on_c, 0, 80, 0
2, 98880, Note_on_c, 0, 79, 48
2, 98916, Note_on_c, 0, 79, 0
2, 99000, Note_on_c, 0, 78, 48
2, 99036, Note_on_c, 0, 78, 0
2, 99120, Note_on_c, 0, 77, 48
2, 99156, Note_on_c, 0, 77, 0
2, 99240, Note_on_c, 0, 76, 48
2, 99276, Note_on_c, 0, 76, 0
2, 99360, Note_on_c, 0, 75, 48
2, 99840, Note_on_c, 0, 75, 0
2, 99840, Note_on_c, 0, 74, 48
2, 99960, Note_on_c, 0, 74, 0
2, 99960, Note_on_c, 0, 84, 48
2, 99996, Note_on_c, 0, 84, 0
2, 100080, Note_on_c, 0, 83, 48
2, 100116, Note_on_c, 0, 83, 0
2, 100200, Note_on_c, 0, 82, 48
2, 100236, Note_on_c, 0, 82, 0
2, 100320, Note_on_c, 0, 81, 48
2, 100440, Note_on_c, 0, 81, 0
2, 100440, Note_on_c, 0, 80, 48
2, 100560, Note_on_c, 0, 80, 0
2, 100560, Note_on_c, 0, 79, 48
2, 100680, Note_on_c, 0, 79, 0
2, 100680, Note_on_c, 0, 78, 48
2, 100800, Note_on_c, 0, 78, 0
2, 100800, Note_on_c, 0, 77, 48
2, 100920, Note_on_c, 0, 77, 0
2, 100920, Note_on_c, 0, 76, 48
2, 101040, Note_on_c, 0, 76, 0
2, 101040, Note_on_c, 0, 75, 48
2, 101520, Note_on_c, 0, 75, 0
2, 101520, Note_on_c, 0, 74, 48
2, 101640, Note_on_c, 0, 74, 0
2, 101640, Note_on_c, 0, 75, 48
2, 101760, Note_on_c, 0, 75, 0
2, 101760, Note_on_c, 0, 77, 48
2, 101880, Note_on_c, 0, 77, 0
2, 101880, Note_on_c, 0, 75, 48
2, 102000, Note_on_c, 0, 75, 0
2, 102000, Note_on_c, 0, 74, 48
2, 102120, Note_on_c, 0, 74, 0
2, 102120, Note_on_c, 0, 77, 48
2, 102240, Note_on_c, 0, 77, 0
2, 102240, Note_on_c, 0, 75, 48
2, 102360, Note_on_c, 0, 75, 0
2, 102360, Note_on_c, 0, 74, 48
2, 102480, Note_on_c, 0, 74, 0
2, 102480, Note_on_c, 0, 74, 32
2, 102960, Note_on_c, 0, 74, 0
2, 103320, Note_on_c, 0, 67, 43
2, 103356, Note_on_c, 0, 67, 0
2, 103440, Note_on_c, 0, 67, 47
2, 103476, Note_on_c, 0, 67, 0
2, 103560, Note_on_c, 0, 67, 52
2, 103596, Note_on_c, 0, 67, 0
2, 103680, Note_on_c, 0, 67, 56
2, 103716, Note_on_c, 0, 67, 0
2, 103800, Note_on_c, 0, 67, 61
2, 103836, Note_on_c, 0, 67, 0
2, 103920, Note_on_c, 0, 67, 72
2, 104160, Note_on_c, 0, 67, 0
2, 104160, Note_on_c, 0, 70, 64
2, 104196, Note_on_c, 0, 70, 0
2, 104280, Note_on_c, 0, 63, 64
2, 104316, Note_on_c, 0, 63, 0
2, 104400, Note_on_c, 0, 62, 64
2, 104520, Note_on_c, 0, 62, 0
2, 104520, Note_on_c, 0, 65, 64
2, 104556, Note_on_c, 0, 65, 0
2, 104640, Note_on_c, 0, 68, 64
2, 104676, Note_on_c, 0, 68, 0
2, 104760, Note_on_c, 0, 62, 64
2, 104796, Note_on_c, 0, 62, 0
2, 104880, Note_on_c, 0, 63, 72
2, 105000, Note_on_c, 0, 63, 0
2, 105000, Note_on_c, 0, 67, 64
2, 105036, Note_on_c, 0, 67, 0
2, 105120, Note_on_c, 0, 58, 64
2, 105156, Note_on_c, 0, 58, 0
2, 105240, Note_on_c, 0, 58, 64
2, 105276, Note_on_c, 0, 58, 0
2, 105360, Note_on_c, 0, 56, 64
2, 105396, Note_on_c, 0, 56, 0
2, 105480, Note_on_c, 0, 62, 64
2, 105516, Note_on_c, 0, 62, 0
2, 105600, Note_on_c, 0, 65, 64
2, 105636, Note_on_c, 0, 65, 0
2, 105720, Note_on_c, 0, 62, 64
2, 105756, Note_on_c, 0, 62, 0
2, 105840, Note_on_c, 0, 63, 72
2, 105960, Note_on_c, 0, 63, 0
2, 105960, Note_on_c, 0, 67, 64
2, 105996, Note_on_c, 0, 67, 0
2, 106080, Note_on_c, 0, 58, 64
2, 106116, Note_on_c, 0, 58, 0
2, 106200, Note_on_c, 0, 58, 64
2, 106236, Note_on_c, 0, 58, 0
2, 106320, Note_on_c, 0, 56, 64
2, 106440, Note_on_c, 0, 56, 0
2, 106440, Note_on_c, 0, 62, 60
2, 106476, Note_on_c, 0, 62, 0
2, 106560, Note_on_c, 0, 65, 56
2, 106596, Note_on_c, 0, 65, 0
2, 106680, Note_on_c, 0, 62, 52
2, 106716, Note_on_c, 0, 62, 0
2, 106800, Note_on_c, 0, 63, 48
2, 107040, Note_on_c, 0, 63, 0
2, 108120, Note_on_c, 0, 68, 41
2, 108156, Note_on_c, 0, 68, 0
2, 108240, Note_on_c, 0, 68, 46
2, 108276, Note_on_c, 0, 68, 0
2, 108360, Note_on_c, 0, 68, 51
2, 108396, Note_on_c, 0, 68, 0
2, 108480, Note_on_c, 0, 68, 55
2, 108516, Note_on_c, 0, 68, 0
2, 108600, Note_on_c, 0, 68, 60
2, 108624, Note_on_c, 0, 68, 0
2, 108680, Note_on_c, 0, 70, 63
2, 108720, Note_on_c, 0, 70, 0
2, 108720, Note_on_c, 0, 68, 72
2, 108780, Note_on_c, 0, 68, 0
2, 108780, Note_on_c, 0, 67, 64
2, 108840, Note_on_c, 0, 67, 0
2, 108840, Note_on_c, 0, 68, 64
2, 108900, Note_on_c, 0, 68, 0
2, 108900, Note_on_c, 0, 70, 64
2, 108960, Note_on_c, 0, 70, 0
2, 108960, Note_on_c, 0, 72, 64
2, 108996, Note_on_c, 0, 72, 0
2, 109080, Note_on_c, 0, 65, 64
2, 109116, Note_on_c, 0, 65, 0
2, 109200, Note_on_c, 0, 61, 72
2, 109200, Note_on_c, 0, 64, 64
2, 109320, Note_on_c, 0, 64, 0
2, 109320, Note_on_c, 0, 67, 64
2, 109356, Note_on_c, 0, 67, 0
2, 109440, Note_on_c, 0, 70, 64
2, 109476, Note_on_c, 0, 70, 0
2, 109560, Note_on_c, 0, 64, 64
2, 109596, Note_on_c, 0, 64, 0
2, 109680, Note_on_c, 0, 61, 0
2, 109680, Note_on_c, 0, 60, 64
2, 109680, Note_on_c, 0, 65, 72
2, 109800, Note_on_c, 0, 65, 0
2, 109800, Note_on_c, 0, 68, 64
2, 109836, Note_on_c, 0, 68, 0
2, 109920, Note_on_c, 0, 60, 0
2, 109920, Note_on_c, 0, 60, 64
2, 109956, Note_on_c, 0, 60, 0
2, 110040, Note_on_c, 0, 60, 64
2, 110076, Note_on_c, 0, 60, 0
2, 110160, Note_on_c, 0, 61, 72
2, 110160, Note_on_c, 0, 64, 64
2, 110196, Note_on_c, 0, 64, 0
2, 110280, Note_on_c, 0, 67, 64
2, 110316, Note_on_c, 0, 67, 0
2, 110400, Note_on_c, 0, 70, 64
2, 110436, Note_on_c, 0, 70, 0
2, 110520, Note_on_c, 0, 64, 64
2, 110556, Note_on_c, 0, 64, 0
2, 110640, Note_on_c, 0, 61, 0
2, 110640, Note_on_c, 0, 60, 64
2, 110640, Note_on_c, 0, 65, 64
2, 110760, Note_on_c, 0, 65, 0
2, 110760, Note_on_c, 0, 68, 64
2, 110796, Note_on_c, 0, 68, 0
2, 110880, Note_on_c, 0, 60, 0
2, 110880, Note_on_c, 0, 60, 64
2, 110916, Note_on_c, 0, 60, 0
2, 111000, Note_on_c, 0, 60, 64
2, 111036, Note_on_c, 0, 60, 0
2, 111120, Note_on_c, 0, 61, 72
2, 111120, Note_on_c, 0, 64, 64
2, 111240, Note_on_c, 0, 64, 0
2, 111240, Note_on_c, 0, 67, 60
2, 111276, Note_on_c, 0, 67, 0
2, 111360, Note_on_c, 0, 70, 56
2, 111396, Note_on_c, 0, 70, 0
2, 111480, Note_on_c, 0, 64, 52
2, 111516, Note_on_c, 0, 64, 0
2, 111600, Note_on_c, 0, 61, 0
2, 111600, Note_on_c, 0, 60, 48
2, 111600, Note_on_c, 0, 65, 48
2, 111840, Note_on_c, 0, 65, 0
2, 111840, Note_on_c, 0, 60, 0
2, 113400, Note_on_c, 0, 84, 80
2, 113460, Note_on_c, 0, 84, 0
2, 113460, Note_on_c, 0, 82, 80
2, 113520, Note_on_c, 0, 82, 0
2, 113520, Note_on_c, 0, 80, 80
2, 113580, Note_on_c, 0, 80, 0
2, 113580, Note_on_c, 0, 79, 80
2, 113640, Note_on_c, 0, 79, 0
2, 113640, Note_on_c, 0, 77, 80
2, 113700, Note_on_c, 0, 77, 0
2, 113700, Note_on_c, 0, 75, 80
2, 113760, Note_on_c, 0, 75, 0
2, 113760, Note_on_c, 0, 74, 80
2, 113820, Note_on_c, 0, 74, 0
2, 113820, Note_on_c, 0, 75, 80
2, 113880, Note_on_c, 0, 75, 0
2, 113880, Note_on_c, 0, 77, 80
2, 113940, Note_on_c, 0, 77, 0
2, 113940, Note_on_c, 0, 74, 80
2, 114000, Note_on_c, 0, 74, 0
2, 114000, Note_on_c, 0, 75, 80
2, 114060, Note_on_c, 0, 75, 0
2, 114060, Note_on_c, 0, 79, 80
2, 114120, Note_on_c, 0, 79, 0
2, 114120, Note_on_c, 0, 77, 80
2, 114180, Note_on_c, 0, 77, 0
2, 114180, Note_on_c, 0, 75, 80
2, 114240, Note_on_c, 0, 75, 0
2, 114240, Note_on_c, 0, 74, 80
2, 114300, Note_on_c, 0, 74, 0
2, 114300, Note_on_c, 0, 72, 80
2, 114360, Note_on_c, 0, 72, 0
2, 114360, Note_on_c, 0, 70, 80
2, 114420, Note_on_c, 0, 70, 0
2, 114420, Note_on_c, 0, 75, 80
2, 114480, Note_on_c, 0, 75, 0
2, 114480, Note_on_c, 0, 74, 80
2, 114540, Note_on_c, 0, 74, 0
2, 114540, Note_on_c, 0, 75, 80
2, 114600, Note_on_c, 0, 75, 0
2, 114600, Note_on_c, 0, 77, 80
2, 114660, Note_on_c, 0, 77, 0
2, 114660, Note_on_c, 0, 79, 80
2, 114720, Note_on_c, 0, 79, 0
2, 114720, Note_on_c, 0, 80, 80
2, 114780, Note_on_c, 0, 80, 0
2, 114780, Note_on_c, 0, 77, 80
2, 114840, Note_on_c, 0, 77, 0
2, 114840, Note_on_c, 0, 75, 80
2, 114900, Note_on_c, 0, 75, 0
2, 114900, Note_on_c, 0, 74, 80
2, 114960, Note_on_c, 0, 74, 0
2, 114960, Note_on_c, 0, 75, 80
2, 115020, Note_on_c, 0, 75, 0
2, 115020, Note_on_c, 0, 79, 80
2, 115080, Note_on_c, 0, 79, 0
2, 115080, Note_on_c, 0, 77, 80
2, 115140, Note_on_c, 0, 77, 0
2, 115140, Note_on_c, 0, 75, 80
2, 115200, Note_on_c, 0, 75, 0
2, 115200, Note_on_c, 0, 74, 80
2, 115260, Note_on_c, 0, 74, 0
2, 115260, Note_on_c, 0, 72, 80
2, 115320, Note_on_c, 0, 72, 0
2, 115320, Note_on_c, 0, 70, 80
2, 115380, Note_on_c, 0, 70, 0
2, 115380, Note_on_c, 0, 75, 80
2, 115440, Note_on_c, 0, 75, 0
2, 115440, Note_on_c, 0, 74, 64
2, 115500, Note_on_c, 0, 74, 0
2, 115500, Note_on_c, 0, 75, 65
2, 115560, Note_on_c, 0, 75, 0
2, 115560, Note_on_c, 0, 77, 66
2, 115620, Note_on_c, 0, 77, 0
2, 115620, Note_on_c, 0, 79, 67
2, 115680, Note_on_c, 0, 79, 0
2, 115680, Note_on_c, 0, 80, 68
2, 115740, Note_on_c, 0, 80, 0
2, 115740, Note_on_c, 0, 77, 69
2, 115800, Note_on_c, 0, 77, 0
2, 115800, Note_on_c, 0, 75, 70
2, 115860, Note_on_c, 0, 75, 0
2, 115860, Note_on_c, 0, 74, 71
2, 115920, Note_on_c, 0, 74, 0
2, 115920, Note_on_c, 0, 75, 72
2, 115980, Note_on_c, 0, 75, 0
2, 115980, Note_on_c, 0, 77, 73
2, 116040, Note_on_c, 0, 77, 0
2, 116040, Note_on_c, 0, 79, 74
2, 116100, Note_on_c, 0, 79, 0
2, 116100, Note_on_c, 0, 77, 75
2, 116160, Note_on_c, 0, 77, 0
2, 116160, Note_on_c, 0, 75, 76
2, 116220, Note_on_c, 0, 75, 0
2, 116220, Note_on_c, 0, 74, 77
2, 116280, Note_on_c, 0, 74, 0
2, 116280, Note_on_c, 0, 72, 78
2, 116340, Note_on_c, 0, 72, 0
2, 116340, Note_on_c, 0, 70, 79
2, 116400, Note_on_c, 0, 70, 0
2, 116400, Note_on_c, 0, 72, 80
2, 116460, Note_on_c, 0, 72, 0
2, 116460, Note_on_c, 0, 75, 80
2, 116520, Note_on_c, 0, 75, 0
2, 116520, Note_on_c, 0, 77, 80
2, 116580, Note_on_c, 0, 77, 0
2, 116580, Note_on_c, 0, 75, 80
2, 116640, Note_on_c, 0, 75, 0
2, 116640, Note_on_c, 0, 74, 80
2, 116700, Note_on_c, 0, 74, 0
2, 116700, Note_on_c, 0, 72, 80
2, 116760, Note_on_c, 0, 72, 0
2, 116760, Note_on_c, 0, 70, 80
2, 116820, Note_on_c, 0, 70, 0
2, 116820, Note_on_c, 0, 68, 80
2, 116880, Note_on_c, 0, 68, 0
2, 116880, Note_on_c, 0, 67, 80
2, 116940, Note_on_c, 0, 67, 0
2, 116940, Note_on_c, 0, 70, 80
2, 117000, Note_on_c, 0, 70, 0
2, 117000, Note_on_c, 0, 67, 80
2, 117060, Note_on_c, 0, 67, 0
2, 117060, Note_on_c, 0, 70, 80
2, 117120, Note_on_c, 0, 70, 0
2, 117120, Note_on_c, 0, 65, 80
2, 117180, Note_on_c, 0, 65, 0
2, 117180, Note_on_c, 0, 68, 80
2, 117240, Note_on_c, 0, 68, 0
2, 117240, Note_on_c, 0, 65, 80
2, 117300, Note_on_c, 0, 65, 0
2, 117300, Note_on_c, 0, 68, 80
2, 117360, Note_on_c, 0, 68, 0
2, 117360, Note_on_c, 0, 63, 80
2, 117420, Note_on_c, 0, 63, 0
2, 117420, Note_on_c, 0, 67, 80
2, 117480, Note_on_c, 0, 67, 0
2, 117480, Note_on_c, 0, 63, 80
2, 117540, Note_on_c, 0, 63, 0
2, 117540, Note_on_c, 0, 67, 80
2, 117600, Note_on_c, 0, 67, 0
2, 117600, Note_on_c, 0, 62, 80
2, 117660, Note_on_c, 0, 62, 0
2, 117660, Note_on_c, 0, 65, 80
2, 117720, Note_on_c, 0, 65, 0
2, 117720, Note_on_c, 0, 62, 80
2, 117780, Note_on_c, 0, 62, 0
2, 117780, Note_on_c, 0, 65, 80
2, 117840, Note_on_c, 0, 65, 0
2, 117840, Note_on_c, 0, 63, 80
2, 117900, Note_on_c, 0, 63, 0
2, 117900, Note_on_c, 0, 58, 80
2, 117960, Note_on_c, 0, 58, 0
2, 117960, Note_on_c, 0, 63, 80
2, 118020, Note_on_c, 0, 63, 0
2, 118020, Note_on_c, 0, 58, 80
2, 118080, Note_on_c, 0, 58, 0
2, 118080, Note_on_c, 0, 63, 80
2, 118140, Note_on_c, 0, 63, 0
2, 118140, Note_on_c, 0, 58, 80
2, 118200, Note_on_c, 0, 58, 0
2, 118200, Note_on_c, 0, 63, 80
2, 118260, Note_on_c, 0, 63, 0
2, 118260, Note_on_c, 0, 58, 80
2, 118320, Note_on_c, 0, 58, 0
2, 118320, Note_on_c, 0, 63, 80
2, 118560, Note_on_c, 0, 63, 0
2, 118680, Note_on_c, 0, 79, 48
2, 118800, Note_on_c, 0, 79, 0
2, 118800, Note_on_c, 0, 80, 48
2, 118836, Note_on_c, 0, 80, 0
2, 118920, Note_on_c, 0, 81, 52
2, 118956, Note_on_c, 0, 81, 0
2, 119040, Note_on_c, 0, 82, 56
2, 119076, Note_on_c, 0, 82, 0
2, 119160, Note_on_c, 0, 83, 60
2, 119196, Note_on_c, 0, 83, 0
2, 119280, Note_on_c, 0, 84, 64
2, 119400, Note_on_c, 0, 84, 0
2, 119400, Note_on_c, 0, 79, 64
2, 119520, Note_on_c, 0, 79, 0
2, 119640, Note_on_c, 0, 79, 64
2, 119760, Note_on_c, 0, 79, 0
2, 119760, Note_on_c, 0, 79, 64
2, 119880, Note_on_c, 0, 79, 0
2, 119880, Note_on_c, 0, 77, 64
2, 120000, Note_on_c, 0, 77, 0
2, 120000, Note_on_c, 0, 80, 64
2, 120120, Note_on_c, 0, 80, 0
2, 120120, Note_on_c, 0, 77, 64
2, 120240, Note_on_c, 0, 77, 0
2, 120240, Note_on_c, 0, 77, 64
2, 120360, Note_on_c, 0, 77, 0
2, 120360, Note_on_c, 0, 75, 64
2, 120480, Note_on_c, 0, 75, 0
2, 120600, Note_on_c, 0, 75, 64
2, 120720, Note_on_c, 0, 75, 0
2, 120720, Note_on_c, 0, 76, 64
2, 120756, Note_on_c, 0, 76, 0
2, 120840, Note_on_c, 0, 77, 64
2, 120876, Note_on_c, 0, 77, 0
2, 120960, Note_on_c, 0, 78, 64
2, 120996, Note_on_c, 0, 78, 0
2, 121080, Note_on_c, 0, 79, 64
2, 121116, Note_on_c, 0, 79, 0
2, 121200, Note_on_c, 0, 80, 64
2, 121320, Note_on_c, 0, 80, 0
2, 121320, Note_on_c, 0, 75, 64
2, 121440, Note_on_c, 0, 75, 0
2, 121560, Note_on_c, 0, 75, 64
2, 121680, Note_on_c, 0, 75, 0
2, 121680, Note_on_c, 0, 75, 64
2, 121800, Note_on_c, 0, 75, 0
2, 121800, Note_on_c, 0, 73, 64
2, 121920, Note_on_c, 0, 73, 0
2, 121920, Note_on_c, 0, 77, 64
2, 122040, Note_on_c, 0, 77, 0
2, 122040, Note_on_c, 0, 73, 64
2, 122160, Note_on_c, 0, 73, 0
2, 122160, Note_on_c, 0, 72, 64
2, 122196, Note_on_c, 0, 72, 0
2, 122280, Note_on_c, 0, 84, 64
2, 122520, Note_on_c, 0, 84, 0
2, 122520, Note_on_c, 0, 82, 64
2, 122760, Note_on_c, 0, 82, 0
2, 122760, Note_on_c, 0, 80, 63
2, 123000, Note_on_c, 0, 80, 0
2, 123000, Note_on_c, 0, 79, 61
2, 123240, Note_on_c, 0, 79, 0
2, 123240, Note_on_c, 0, 77, 59
2, 123480, Note_on_c, 0, 77, 0
2, 123480, Note_on_c, 0, 75, 57
2, 123720, Note_on_c, 0, 75, 0
2, 123720, Note_on_c, 0, 74, 55
2, 123960, Note_on_c, 0, 74, 0
2, 123960, Note_on_c, 0, 72, 53
2, 124200, Note_on_c, 0, 72, 0
2, 124200, Note_on_c, 0, 70, 51
2, 124440, Note_on_c, 0, 70, 0
2, 124440, Note_on_c, 0, 69, 49
2, 124680, Note_on_c, 0, 69, 0
2, 124680, Note_on_c, 0, 70, 47
2, 124920, Note_on_c, 0, 70, 0
2, 124920, Note_on_c, 0, 69, 45
2, 125160, Note_on_c, 0, 69, 0
2, 125160, Note_on_c, 0, 70, 43
2, 125400, Note_on_c, 0, 70, 0
2, 125400, Note_on_c, 0, 69, 41
2, 125520, Note_on_c, 0, 69, 0
2, 125520, Note_on_c, 0, 70, 40
2, 125640, Note_on_c, 0, 70, 0
2, 125640, Note_on_c, 0, 82, 56
2, 125676, Note_on_c, 0, 82, 0
2, 125760, Note_on_c, 0, 82, 56
2, 125796, Note_on_c, 0, 82, 0
2, 125880, Note_on_c, 0, 82, 88
2, 125916, Note_on_c, 0, 82, 0
2, 126000, Note_on_c, 0, 82, 56
2, 126036, Note_on_c, 0, 82, 0
2, 126120, Note_on_c, 0, 82, 56
2, 126156, Note_on_c, 0, 82, 0
2, 126240, Note_on_c, 0, 82, 56
2, 126276, Note_on_c, 0, 82, 0
2, 126360, Note_on_c, 0, 82, 88
2, 126360, Note_on_c, 0, 81, 88
2, 126396, Note_on_c, 0, 81, 0
2, 126396, Note_on_c, 0, 82, 0
2, 126480, Note_on_c, 0, 81, 56
2, 126480, Note_on_c, 0, 82, 56
2, 126516, Note_on_c, 0, 82, 0
2, 126516, Note_on_c, 0, 81, 0
2, 126600, Note_on_c, 0, 81, 56
2, 126600, Note_on_c, 0, 82, 56
2, 126636, Note_on_c, 0, 82, 0
2, 126636, Note_on_c, 0, 81, 0
2, 126720, Note_on_c, 0, 81, 56
2, 126720, Note_on_c, 0, 82, 56
2, 126756, Note_on_c, 0, 82, 0
2, 126756, Note_on_c, 0, 81, 0
2, 126840, Note_on_c, 0, 80, 88
2, 126840, Note_on_c, 0, 82, 88
2, 126876, Note_on_c, 0, 82, 0
2, 126876, Note_on_c, 0, 80, 0
2, 126960, Note_on_c, 0, 80, 56
2, 126960, Note_on_c, 0, 82, 56
2, 126996, Note_on_c, 0, 82, 0
2, 126996, Note_on_c, 0, 80, 0
2, 127080, Note_on_c, 0, 80, 56
2, 127080, Note_on_c, 0, 82, 56
2, 127116, Note_on_c, 0, 82, 0
2, 127116, Note_on_c, 0, 80, 0
2, 127200, Note_on_c, 0, 80, 56
2, 127200, Note_on_c, 0, 82, 56
2, 127236, Note_on_c, 0, 82, 0
2, 127236, Note_on_c, 0, 80, 0
2, 127320, Note_on_c, 0, 80, 88
2, 127320, Note_on_c, 0, 82, 88
2, 127356, Note_on_c, 0, 82, 0
2, 127356, Note_on_c, 0, 80, 0
2, 127440, Note_on_c, 0, 82, 56
2, 127440, Note_on_c, 0, 79, 56
2, 127476, Note_on_c, 0, 79, 0
2, 127476, Note_on_c, 0, 82, 0
2, 127560, Note_on_c, 0, 82, 56
2, 127560, Note_on_c, 0, 79, 56
2, 127596, Note_on_c, 0, 79, 0
2, 127596, Note_on_c, 0, 82, 0
2, 127680, Note_on_c, 0, 82, 56
2, 127680, Note_on_c, 0, 79, 56
2, 127716, Note_on_c, 0, 79, 0
2, 127716, Note_on_c, 0, 82, 0
2, 127800, Note_on_c, 0, 70, 88
2, 127800, Note_on_c, 0, 75, 88
2, 127800, Note_on_c, 0, 79, 88
2, 127836, Note_on_c, 0, 79, 0
2, 127836, Note_on_c, 0, 75, 0
2, 127836, Note_on_c, 0, 70, 0
2, 127920, Note_on_c, 0, 79, 88
2, 127920, Note_on_c, 0, 75, 88
2, 127920, Note_on_c, 0, 70, 88
2, 127956, Note_on_c, 0, 70, 0
2, 127956, Note_on_c, 0, 75, 0
2, 127956, Note_on_c, 0, 79, 0
2, 128040, Note_on_c, 0, 79, 88
2, 128040, Note_on_c, 0, 75, 88
2, 128040, Note_on_c, 0, 70, 88
2, 128076, Note_on_c, 0, 70, 0
2, 128076, Note_on_c, 0, 75, 0
2, 128076, Note_on_c, 0, 79, 0
2, 128160, Note_on_c, 0, 79, 88
2, 128160, Note_on_c, 0, 75, 88
2, 128160, Note_on_c, 0, 70, 88
2, 128196, Note_on_c, 0, 70, 0
2, 128196, Note_on_c, 0, 75, 0
2, 128196, Note_on_c, 0, 79, 0
2, 128280, Note_on_c, 0, 79, 88
2, 128280, Note_on_c, 0, 75, 88
2, 128280, Note_on_c, 0, 70, 88
2, 128316, Note_on_c, 0, 70, 0
2, 128316, Note_on_c, 0, 75, 0
2, 128316, Note_on_c, 0, 79, 0
2, 128400, Note_on_c, 0, 68, 88
2, 128400, Note_on_c, 0, 70, 88
2, 128400, Note_on_c, 0, 74, 88
2, 128640, Note_on_c, 0, 74, 0
2, 128640, Note_on_c, 0, 70, 0
2, 128640, Note_on_c, 0, 68, 0
2, 128640, Note_on_c, 0, 67, 72
2, 128640, Note_on_c, 0, 70, 72
2, 128640, Note_on_c, 0, 75, 72
2, 128676, Note_on_c, 0, 75, 0
2, 128676, Note_on_c, 0, 70, 0
2, 128676, Note_on_c, 0, 67, 0
2, 128760, Note_on_c, 0, 75, 72
2, 128760, Note_on_c, 0, 79, 72
2, 128796, Note_on_c, 0, 79, 0
2, 128796, Note_on_c, 0, 75, 0
2, 128880, Note_on_c, 0, 74, 80
2, 128880, Note_on_c, 0, 77, 80
2, 128880, Note_on_c, 0, 80, 80
2, 129120, Note_on_c, 0, 80, 0
2, 129120, Note_on_c, 0, 77, 0
2, 129120, Note_on_c, 0, 74, 0
2, 129120, Note_on_c, 0, 75, 64
2, 129120, Note_on_c, 0, 79, 64
2, 129156, Note_on_c, 0, 79, 0
2, 129156, Note_on_c, 0, 75, 0
2, 129240, Note_on_c, 0, 82, 64
2, 129240, Note_on_c, 0, 79, 64
2, 129276, Note_on_c, 0, 79, 0
2, 129276, Note_on_c, 0, 82, 0
2, 129360, Note_on_c, 0, 77, 72
2, 129360, Note_on_c, 0, 80, 72
2, 129360, Note_on_c, 0, 86, 72
2, 129600, Note_on_c, 0, 86, 0
2, 129600, Note_on_c, 0, 80, 0
2, 129600, Note_on_c, 0, 77, 0
2, 129600, Note_on_c, 0, 79, 88
2, 129600, Note_on_c, 0, 87, 88
2, 129636, Note_on_c, 0, 87, 0
2, 129636, Note_on_c, 0, 79, 0
2, 129720, Note_on_c, 0, 79, 88
2, 129720, Note_on_c, 0, 88, 88
2, 129756, Note_on_c, 0, 88, 0
2, 129756, Note_on_c, 0, 79, 0
2, 129840, Note_on_c, 0, 79, 88
2, 129840, Note_on_c, 0, 88, 88
2, 130320, Note_on_c, 0, 88, 0
2, 130320, Note_on_c, 0, 79, 0
2, 130320, Note_on_c, 0, 77, 56
2, 130320, Note_on_c, 0, 89, 56
2, 130560, Note_on_c, 0, 89, 0
2, 130560, Note_on_c, 0, 87, 56
2, 130800, Note_on_c, 0, 87, 0
2, 130800, Note_on_c, 0, 77, 0
2, 130800, Note_on_c, 0, 77, 56
2, 130800, Note_on_c, 0, 86, 56
2, 131280, Note_on_c, 0, 86, 0
2, 131280, Note_on_c, 0, 77, 0
2, 131280, Note_on_c, 0, 75, 56
2, 131280, Note_on_c, 0, 87, 56
2, 132000, Note_on_c, 0, 87, 0
2, 132000, Note_on_c, 0, 75, 0
2, 132000, Note_on_c, 0, 75, 48
2, 132000, Note_on_c, 0, 83, 48
2, 132240, Note_on_c, 0, 83, 0
2, 132240, Note_on_c, 0, 75, 0
2, 132240, Note_on_c, 0, 75, 48
2, 132240, Note_on_c, 0, 83, 48
2, 132720, Note_on_c, 0, 83, 0
2, 132720, Note_on_c, 0, 75, 0
2, 132720, Note_on_c, 0, 75, 48
2, 132720, Note_on_c, 0, 84, 48
2, 132960, Note_on_c, 0, 84, 0
2, 132960, Note_on_c, 0, 75, 0
2, 132960, Note_on_c, 0, 76, 80
2, 132960, Note_on_c, 0, 84, 80
2, 133200, Note_on_c, 0, 84, 0
2, 133200, Note_on_c, 0, 76, 0
2, 133200, Note_on_c, 0, 76, 80
2, 133200, Note_on_c, 0, 84, 80
2, 133680, Note_on_c, 0, 76, 0
2, 133680, Note_on_c, 0, 79, 64
2, 133800, Note_on_c, 0, 79, 0
2, 133800, Note_on_c, 0, 77, 66
2, 133920, Note_on_c, 0, 77, 0
2, 133920, Note_on_c, 0, 80, 68
2, 134040, Note_on_c, 0, 80, 0
2, 134040, Note_on_c, 0, 79, 70
2, 134160, Note_on_c, 0, 79, 0
2, 134160, Note_on_c, 0, 82, 72
2, 134280, Note_on_c, 0, 82, 0
2, 134280, Note_on_c, 0, 80, 74
2, 134400, Note_on_c, 0, 80, 0
2, 134400, Note_on_c, 0, 84, 0
2, 134400, Note_on_c, 0, 85, 76
2, 134400, Note_on_c, 0, 82, 76
2, 134436, Note_on_c, 0, 82, 0
2, 134436, Note_on_c, 0, 85, 0
2, 134520, Note_on_c, 0, 84, 78
2, 134520, Note_on_c, 0, 80, 78
2, 134556, Note_on_c, 0, 80, 0
2, 134556, Note_on_c, 0, 84, 0
2, 134640, Note_on_c, 0, 79, 80
2, 134640, Note_on_c, 0, 83, 80
2, 134760, Note_on_c, 0, 83, 0
2, 134760, Note_on_c, 0, 79, 0
2, 134760, Note_on_c, 0, 80, 80
2, 134760, Note_on_c, 0, 84, 80
2, 134880, Note_on_c, 0, 84, 0
2, 134880, Note_on_c, 0, 80, 0
2, 134880, Note_on_c, 0, 79, 80
2, 134880, Note_on_c, 0, 82, 80
2, 135000, Note_on_c, 0, 82, 0
2, 135000, Note_on_c, 0, 79, 0
2, 135000, Note_on_c, 0, 77, 80
2, 135000, Note_on_c, 0, 80, 80
2, 135120, Note_on_c, 0, 80, 0
2, 135120, Note_on_c, 0, 77, 0
2, 135120, Note_on_c, 0, 75, 80
2, 135120, Note_on_c, 0, 79, 80
2, 135480, Note_on_c, 0, 79, 0
2, 135480, Note_on_c, 0, 75, 0
2, 135480, Note_on_c, 0, 82, 80
2, 135480, Note_on_c, 0, 79, 80
2, 135600, Note_on_c, 0, 79, 0
2, 135600, Note_on_c, 0, 82, 0
2, 135600, Note_on_c, 0, 79, 80
2, 135600, Note_on_c, 0, 82, 80
2, 135720, Note_on_c, 0, 82, 0
2, 135720, Note_on_c, 0, 79, 0
2, 135720, Note_on_c, 0, 77, 80
2, 135720, Note_on_c, 0, 80, 80
2, 135756, Note_on_c, 0, 80, 0
2, 135756, Note_on_c, 0, 77, 0
2, 135840, Note_on_c, 0, 75, 80
2, 135840, Note_on_c, 0, 79, 80
2, 135876, Note_on_c, 0, 79, 0
2, 135876, Note_on_c, 0, 75, 0
2, 135960, Note_on_c, 0, 74, 80
2, 135960, Note_on_c, 0, 77, 80
2, 135996, Note_on_c, 0, 77, 0
2, 135996, Note_on_c, 0, 74, 0
2, 136080, Note_on_c, 0, 75, 80
2, 136140, Note_on_c, 0, 75, 0
2, 136140, Note_on_c, 0, 79, 80
2, 136200, Note_on_c, 0, 79, 0
2, 136200, Note_on_c, 0, 75, 80
2, 136260, Note_on_c, 0, 75, 0
2, 136260, Note_on_c, 0, 70, 80
2, 136320, Note_on_c, 0, 70, 0
2, 136320, Note_on_c, 0, 67, 80
2, 136380, Note_on_c, 0, 67, 0
2, 136380, Note_on_c, 0, 63, 80
2, 136440, Note_on_c, 0, 63, 0
2, 136560, Note_on_c, 0, 74, 80
2, 136620, Note_on_c, 0, 74, 0
2, 136620, Note_on_c, 0, 80, 80
2, 136680, Note_on_c, 0, 80, 0
2, 136680, Note_on_c, 0, 77, 80
2, 136740, Note_on_c, 0, 77, 0
2, 136740, Note_on_c, 0, 74, 80
2, 136800, Note_on_c, 0, 74, 0
2, 136800, Note_on_c, 0, 70, 80
2, 136860, Note_on_c, 0, 70, 0
2, 136860, Note_on_c, 0, 68, 80
2, 136920, Note_on_c, 0, 68, 0
2, 137040, Note_on_c, 0, 75, 80
2, 137100, Note_on_c, 0, 75, 0
2, 137100, Note_on_c, 0, 79, 80
2, 137160, Note_on_c, 0, 79, 0
2, 137160, Note_on_c, 0, 75, 80
2, 137220, Note_on_c, 0, 75, 0
2, 137220, Note_on_c, 0, 70, 80
2, 137280, Note_on_c, 0, 70, 0
2, 137280, Note_on_c, 0, 67, 80
2, 137340, Note_on_c, 0, 67, 0
2, 137340, Note_on_c, 0, 63, 80
2, 137400, Note_on_c, 0, 63, 0
2, 137520, Note_on_c, 0, 74, 80
2, 137580, Note_on_c, 0, 74, 0
2, 137580, Note_on_c, 0, 80, 80
2, 137640, Note_on_c, 0, 80, 0
2, 137640, Note_on_c, 0, 77, 80
2, 137700, Note_on_c, 0, 77, 0
2, 137700, Note_on_c, 0, 74, 80
2, 137760, Note_on_c, 0, 74, 0
2, 137760, Note_on_c, 0, 70, 80
2, 137820, Note_on_c, 0, 70, 0
2, 137820, Note_on_c, 0, 68, 80
2, 137880, Note_on_c, 0, 68, 0
2, 138000, Note_on_c, 0, 82, 80
2, 138060, Note_on_c, 0, 82, 0
2, 138060, Note_on_c, 0, 75, 80
2, 138120, Note_on_c, 0, 75, 0
2, 138120, Note_on_c, 0, 67, 80
2, 138180, Note_on_c, 0, 67, 0
2, 138180, Note_on_c, 0, 75, 80
2, 138240, Note_on_c, 0, 75, 0
2, 138240, Note_on_c, 0, 84, 80
2, 138300, Note_on_c, 0, 84, 0
2, 138300, Note_on_c, 0, 75, 80
2, 138360, Note_on_c, 0, 75, 0
2, 138360, Note_on_c, 0, 68, 80
2, 138420, Note_on_c, 0, 68, 0
2, 138420, Note_on_c, 0, 75, 80
2, 138480, Note_on_c, 0, 75, 0
2, 138480, Note_on_c, 0, 86, 80
2, 138540, Note_on_c, 0, 86, 0
2, 138540, Note_on_c, 0, 75, 80
2, 138600, Note_on_c, 0, 75, 0
2, 138600, Note_on_c, 0, 70, 80
2, 138660, Note_on_c, 0, 70, 0
2, 138660, Note_on_c, 0, 75, 80
2, 138720, Note_on_c, 0, 75, 0
2, 138720, Note_on_c, 0, 87, 80
2, 138780, Note_on_c, 0, 87, 0
2, 138780, Note_on_c, 0, 75, 80
2, 138840, Note_on_c, 0, 75, 0
2, 138840, Note_on_c, 0, 72, 80
2, 138900, Note_on_c, 0, 72, 0
2, 138900, Note_on_c, 0, 75, 80
2, 138960, Note_on_c, 0, 75, 0
2, 138960, Note_on_c, 0, 82, 80
2, 139020, Note_on_c, 0, 82, 0
2, 139020, Note_on_c, 0, 75, 80
2, 139080, Note_on_c, 0, 75, 0
2, 139080, Note_on_c, 0, 67, 80
2, 139140, Note_on_c, 0, 67, 0
2, 139140, Note_on_c, 0, 75, 80
2, 139200, Note_on_c, 0, 75, 0
2, 139200, Note_on_c, 0, 84, 80
2, 139260, Note_on_c, 0, 84, 0
2, 139260, Note_on_c, 0, 75, 80
2, 139320, Note_on_c, 0, 75, 0
2, 139320, Note_on_c, 0, 68, 80
2, 139380, Note_on_c, 0, 68, 0
2, 139380, Note_on_c, 0, 75, 80
2, 139440, Note_on_c, 0, 75, 0
2, 139440, Note_on_c, 0, 86, 80
2, 139500, Note_on_c, 0, 86, 0
2, 139500, Note_on_c, 0, 75, 80
2, 139560, Note_on_c, 0, 75, 0
2, 139560, Note_on_c, 0, 70, 80
2, 139620, Note_on_c, 0, 70, 0
2, 139620, Note_on_c, 0, 75, 80
2, 139680, Note_on_c, 0, 75, 0
2, 139680, Note_on_c, 0, 87, 80
2, 139740, Note_on_c, 0, 87, 0
2, 139740, Note_on_c, 0, 75, 80
2, 139800, Note_on_c, 0, 75, 0
2, 139800, Note_on_c, 0, 72, 80
2, 139860, Note_on_c, 0, 72, 0
2, 139860, Note_on_c, 0, 75, 80
2, 139920, Note_on_c, 0, 75, 0
2, 139920, Note_on_c, 0, 85, 80
2, 139980, Note_on_c, 0, 85, 0
2, 139980, Note_on_c, 0, 75, 80
2, 140040, Note_on_c, 0, 75, 0
2, 140040, Note_on_c, 0, 67, 80
2, 140100, Note_on_c, 0, 67, 0
2, 140100, Note_on_c, 0, 75, 80
2, 140160, Note_on_c, 0, 75, 0
2, 140160, Note_on_c, 0, 84, 80
2, 140220, Note_on_c, 0, 84, 0
2, 140220, Note_on_c, 0, 75, 80
2, 140280, Note_on_c, 0, 75, 0
2, 140280, Note_on_c, 0, 68, 80
2, 140340, Note_on_c, 0, 68, 0
2, 140340, Note_on_c, 0, 75, 80
2, 140400, Note_on_c, 0, 75, 0
2, 140400, Note_on_c, 0, 82, 80
2, 140460, Note_on_c, 0, 82, 0
2, 140460, Note_on_c, 0, 72, 80
2, 140520, Note_on_c, 0, 72, 0
2, 140520, Note_on_c, 0, 64, 80
2, 140580, Note_on_c, 0, 64, 0
2, 140580, Note_on_c, 0, 72, 80
2, 140640, Note_on_c, 0, 72, 0
2, 140640, Note_on_c, 0, 80, 80
2, 140700, Note_on_c, 0, 80, 0
2, 140700, Note_on_c, 0, 72, 80
2, 140760, Note_on_c, 0, 72, 0
2, 140760, Note_on_c, 0, 65, 80
2, 140820, Note_on_c, 0, 65, 0
2, 140820, Note_on_c, 0, 72, 80
2, 140880, Note_on_c, 0, 72, 0
2, 140880, Note_on_c, 0, 76, 80
2, 140940, Note_on_c, 0, 76, 0
2, 140940, Note_on_c, 0, 72, 80
2, 141000, Note_on_c, 0, 72, 0
2, 141000, Note_on_c, 0, 67, 80
2, 141060, Note_on_c, 0, 67, 0
2, 141060, Note_on_c, 0, 72, 80
2, 141120, Note_on_c, 0, 72, 0
2, 141120, Note_on_c, 0, 77, 80
2, 141180, Note_on_c, 0, 77, 0
2, 141180, Note_on_c, 0, 72, 80
2, 141240, Note_on_c, 0, 72, 0
2, 141240, Note_on_c, 0, 68, 80
2, 141300, Note_on_c, 0, 68, 0
2, 141300, Note_on_c, 0, 72, 80
2, 141360, Note_on_c, 0, 72, 0
2, 141360, Note_on_c, 0, 84, 80
2, 141420, Note_on_c, 0, 84, 0
2, 141420, Note_on_c, 0, 75, 80
2, 141480, Note_on_c, 0, 75, 0
2, 141480, Note_on_c, 0, 69, 80
2, 141540, Note_on_c, 0, 69, 0
2, 141540, Note_on_c, 0, 75, 80
2, 141600, Note_on_c, 0, 75, 0
2, 141600, Note_on_c, 0, 87, 80
2, 141660, Note_on_c, 0, 87, 0
2, 141660, Note_on_c, 0, 75, 80
2, 141720, Note_on_c, 0, 75, 0
2, 141720, Note_on_c, 0, 69, 80
2, 141780, Note_on_c, 0, 69, 0
2, 141780, Note_on_c, 0, 75, 80
2, 141840, Note_on_c, 0, 75, 0
2, 141840, Note_on_c, 0, 86, 80
2, 141900, Note_on_c, 0, 86, 0
2, 141900, Note_on_c, 0, 74, 81
2, 141960, Note_on_c, 0, 74, 0
2, 141960, Note_on_c, 0, 70, 82
2, 142020, Note_on_c, 0, 70, 0
2, 142020, Note_on_c, 0, 58, 83
2, 142080, Note_on_c, 0, 58, 0
2, 142080, Note_on_c, 0, 82, 84
2, 142140, Note_on_c, 0, 82, 0
2, 142140, Note_on_c, 0, 70, 85
2, 142296, Note_on_c, 0, 70, 0
2, 142320, Note_on_c, 0, 77, 88
2, 142380, Note_on_c, 0, 77, 0
2, 142380, Note_on_c, 0, 65, 89
2, 142536, Note_on_c, 0, 65, 0
2, 142560, Note_on_c, 0, 74, 92
2, 142608, Note_on_c, 0, 74, 0
2, 142620, Note_on_c, 0, 62, 93
2, 142776, Note_on_c, 0, 62, 0
2, 143640, Note_on_c, 0, 65, 88
2, 143760, Note_on_c, 0, 65, 0
2, 143760, Note_on_c, 0, 58, 56
2, 143880, Note_on_c, 0, 58, 0
2, 143880, Note_on_c, 0, 59, 56
2, 144000, Note_on_c, 0, 59, 0
2, 144000, Note_on_c, 0, 58, 56
2, 144036, Note_on_c, 0, 58, 0
2, 144120, Note_on_c, 0, 68, 88
2, 144156, Note_on_c, 0, 68, 0
2, 144240, Note_on_c, 0, 62, 56
2, 144360, Note_on_c, 0, 62, 0
2, 144360, Note_on_c, 0, 63, 56
2, 144480, Note_on_c, 0, 63, 0
2, 144480, Note_on_c, 0, 62, 56
2, 144516, Note_on_c, 0, 62, 0
2, 144600, Note_on_c, 0, 71, 88
2, 144636, Note_on_c, 0, 71, 0
2, 144720, Note_on_c, 0, 65, 56
2, 144840, Note_on_c, 0, 65, 0
2, 144840, Note_on_c, 0, 66, 56
2, 144960, Note_on_c, 0, 66, 0
2, 144960, Note_on_c, 0, 65, 56
2, 144996, Note_on_c, 0, 65, 0
2, 145080, Note_on_c, 0, 74, 88
2, 145116, Note_on_c, 0, 74, 0
2, 145200, Note_on_c, 0, 70, 56
2, 145320, Note_on_c, 0, 70, 0
2, 145320, Note_on_c, 0, 71, 56
2, 145440, Note_on_c, 0, 71, 0
2, 145440, Note_on_c, 0, 70, 56
2, 145476, Note_on_c, 0, 70, 0
2, 145560, Note_on_c, 0, 82, 88
2, 145596, Note_on_c, 0, 82, 0
2, 145800, Note_on_c, 0, 79, 56
2, 145800, Note_on_c, 0, 82, 56
2, 145836, Note_on_c, 0, 82, 0
2, 145836, Note_on_c, 0, 79, 0
2, 146040, Note_on_c, 0, 77, 56
2, 146040, Note_on_c, 0, 80, 56
2, 146076, Note_on_c, 0, 80, 0
2, 146076, Note_on_c, 0, 77, 0
2, 146280, Note_on_c, 0, 75, 56
2, 146280, Note_on_c, 0, 79, 56
2, 146316, Note_on_c, 0, 79, 0
2, 146316, Note_on_c, 0, 75, 0
2, 146520, Note_on_c, 0, 74, 56
2, 146520, Note_on_c, 0, 77, 56
2, 146556, Note_on_c, 0, 77, 0
2, 146556, Note_on_c, 0, 74, 0
2, 146640, Note_on_c, 0, 75, 56
2, 146760, Note_on_c, 0, 75, 0
2, 146760, Note_on_c, 0, 68, 56
2, 146796, Note_on_c, 0, 68, 0
2, 146880, Note_on_c, 0, 68, 56
2, 146916, Note_on_c, 0, 68, 0
2, 147000, Note_on_c, 0, 68, 56
2, 147036, Note_on_c, 0, 68, 0
2, 147120, Note_on_c, 0, 68, 56
2, 147156, Note_on_c, 0, 68, 0
2, 147240, Note_on_c, 0, 68, 56
2, 147276, Note_on_c, 0, 68, 0
2, 147360, Note_on_c, 0, 68, 56
2, 147396, Note_on_c, 0, 68, 0
2, 147480, Note_on_c, 0, 68, 56
2, 147516, Note_on_c, 0, 68, 0
2, 147600, Note_on_c, 0, 68, 40
2, 147632, Note_on_c, 0, 68, 0
2, 147640, Note_on_c, 0, 70, 40
2, 147672, Note_on_c, 0, 70, 0
2, 147680, Note_on_c, 0, 68, 40
2, 147712, Note_on_c, 0, 68, 0
2, 147720, Note_on_c, 0, 70, 40
2, 147752, Note_on_c, 0, 70, 0
2, 147760, Note_on_c, 0, 68, 40
2, 147792, Note_on_c, 0, 68, 0
2, 147800, Note_on_c, 0, 70, 40
2, 147832, Note_on_c, 0, 70, 0
2, 147840, Note_on_c, 0, 68, 40
2, 147872, Note_on_c, 0, 68, 0
2, 147880, Note_on_c, 0, 70, 40
2, 147912, Note_on_c, 0, 70, 0
2, 147920, Note_on_c, 0, 68, 40
2, 147952, Note_on_c, 0, 68, 0
2, 147960, Note_on_c, 0, 70, 40
2, 147992, Note_on_c, 0, 70, 0
2, 148000, Note_on_c, 0, 68, 40
2, 148032, Note_on_c, 0, 68, 0
2, 148040, Note_on_c, 0, 70, 40
2, 148072, Note_on_c, 0, 70, 0
2, 148080, Note_on_c, 0, 68, 40
2, 148112, Note_on_c, 0, 68, 0
2, 148120, Note_on_c, 0, 70, 40
2, 148152, Note_on_c, 0, 70, 0
2, 148160, Note_on_c, 0, 68, 40
2, 148192, Note_on_c, 0, 68, 0
2, 148200, Note_on_c, 0, 70, 40
2, 148232, Note_on_c, 0, 70, 0
2, 148240, Note_on_c, 0, 68, 40
2, 148272, Note_on_c, 0, 68, 0
2, 148280, Note_on_c, 0, 70, 40
2, 148312, Note_on_c, 0, 70, 0
2, 148320, Note_on_c, 0, 68, 40
2, 148352, Note_on_c, 0, 68, 0
2, 148360, Note_on_c, 0, 70, 40
2, 148392, Note_on_c, 0, 70, 0
2, 148400, Note_on_c, 0, 68, 40
2, 148432, Note_on_c, 0, 68, 0
2, 148440, Note_on_c, 0, 70, 40
2, 148472, Note_on_c, 0, 70, 0
2, 148480, Note_on_c, 0, 68, 40
2, 148512, Note_on_c, 0, 68, 0
2, 148520, Note_on_c, 0, 70, 40
2, 148552, Note_on_c, 0, 70, 0
2, 148560, Note_on_c, 0, 68, 40
2, 148592, Note_on_c, 0, 68, 0
2, 148600, Note_on_c, 0, 70, 41
2, 148632, Note_on_c, 0, 70, 0
2, 148640, Note_on_c, 0, 68, 43
2, 148672, Note_on_c, 0, 68, 0
2, 148680, Note_on_c, 0, 70, 44
2, 148712, Note_on_c, 0, 70, 0
2, 148720, Note_on_c, 0, 68, 45
2, 148752, Note_on_c, 0, 68, 0
2, 148760, Note_on_c, 0, 70, 47
2, 148792, Note_on_c, 0, 70, 0
2, 148800, Note_on_c, 0, 68, 48
2, 148832, Note_on_c, 0, 68, 0
2, 148840, Note_on_c, 0, 70, 49
2, 148872, Note_on_c, 0, 70, 0
2, 148880, Note_on_c, 0, 68, 51
2, 148912, Note_on_c, 0, 68, 0
2, 148920, Note_on_c, 0, 70, 52
2, 148952, Note_on_c, 0, 70, 0
2, 148960, Note_on_c, 0, 68, 53
2, 148992, Note_on_c, 0, 68, 0
2, 149000, Note_on_c, 0, 70, 55
2, 149032, Note_on_c, 0, 70, 0
2, 149040, Note_on_c, 0, 68, 56
2, 149072, Note_on_c, 0, 68, 0
2, 149080, Note_on_c, 0, 70, 58
2, 149112, Note_on_c, 0, 70, 0
2, 149120, Note_on_c, 0, 68, 60
2, 149152, Note_on_c, 0, 68, 0
2, 149160, Note_on_c, 0, 70, 62
2, 149192, Note_on_c, 0, 70, 0
2, 149200, Note_on_c, 0, 68, 64
2, 149232, Note_on_c, 0, 68, 0
2, 149240, Note_on_c, 0, 70, 66
2, 149272, Note_on_c, 0, 70, 0
2, 149280, Note_on_c, 0, 68, 68
2, 149312, Note_on_c, 0, 68, 0
2, 149320, Note_on_c, 0, 70, 70
2, 149352, Note_on_c, 0, 70, 0
2, 149360, Note_on_c, 0, 68, 72
2, 149392, Note_on_c, 0, 68, 0
2, 149400, Note_on_c, 0, 70, 74
2, 149432, Note_on_c, 0, 70, 0
2, 149440, Note_on_c, 0, 68, 76
2, 149472, Note_on_c, 0, 68, 0
2, 149480, Note_on_c, 0, 70, 78
2, 149512, Note_on_c, 0, 70, 0
2, 149520, Note_on_c, 0, 67, 80
2, 149580, Note_on_c, 0, 67, 0
2, 149580, Note_on_c, 0, 75, 80
2, 149640, Note_on_c, 0, 75, 0
2, 149640, Note_on_c, 0, 67, 80
2, 149700, Note_on_c, 0, 67, 0
2, 149700, Note_on_c, 0, 75, 80
2, 149760, Note_on_c, 0, 75, 0
2, 149760, Note_on_c, 0, 68, 80
2, 149820, Note_on_c, 0, 68, 0
2, 149820, Note_on_c, 0, 74, 80
2, 149880, Note_on_c, 0, 74, 0
2, 149880, Note_on_c, 0, 68, 80
2, 149940, Note_on_c, 0, 68, 0
2, 149940, Note_on_c, 0, 74, 80
2, 150000, Note_on_c, 0, 74, 0
2, 150000, Note_on_c, 0, 74, 80
2, 150060, Note_on_c, 0, 74, 0
2, 150060, Note_on_c, 0, 80, 80
2, 150120, Note_on_c, 0, 80, 0
2, 150120, Note_on_c, 0, 74, 80
2, 150180, Note_on_c, 0, 74, 0
2, 150180, Note_on_c, 0, 80, 80
2, 150240, Note_on_c, 0, 80, 0
2, 150240, Note_on_c, 0, 75, 80
2, 150300, Note_on_c, 0, 75, 0
2, 150300, Note_on_c, 0, 79, 80
2, 150360, Note_on_c, 0, 79, 0
2, 150360, Note_on_c, 0, 75, 80
2, 150420, Note_on_c, 0, 75, 0
2, 150420, Note_on_c, 0, 79, 80
2, 150480, Note_on_c, 0, 79, 0
2, 150480, Note_on_c, 0, 80, 80
2, 150540, Note_on_c, 0, 80, 0
2, 150540, Note_on_c, 0, 84, 80
2, 150600, Note_on_c, 0, 84, 0
2, 150600, Note_on_c, 0, 80, 80
2, 150660, Note_on_c, 0, 80, 0
2, 150660, Note_on_c, 0, 84, 80
2, 150720, Note_on_c, 0, 84, 0
2, 150720, Note_on_c, 0, 79, 80
2, 150780, Note_on_c, 0, 79, 0
2, 150780, Note_on_c, 0, 82, 80
2, 150840, Note_on_c, 0, 82, 0
2, 150840, Note_on_c, 0, 79, 80
2, 150900, Note_on_c, 0, 79, 0
2, 150900, Note_on_c, 0, 82, 80
2, 150960, Note_on_c, 0, 82, 0
2, 150960, Note_on_c, 0, 80, 80
2, 151020, Note_on_c, 0, 80, 0
2, 151020, Note_on_c, 0, 86, 80
2, 151080, Note_on_c, 0, 86, 0
2, 151080, Note_on_c, 0, 80, 80
2, 151140, Note_on_c, 0, 80, 0
2, 151140, Note_on_c, 0, 86, 80
2, 151200, Note_on_c, 0, 86, 0
2, 151200, Note_on_c, 0, 79, 80
2, 151260, Note_on_c, 0, 79, 0
2, 151260, Note_on_c, 0, 87, 80
2, 151320, Note_on_c, 0, 87, 0
2, 151320, Note_on_c, 0, 79, 80
2, 151380, Note_on_c, 0, 79, 0
2, 151380, Note_on_c, 0, 87, 80
2, 151440, Note_on_c, 0, 87, 0
2, 151440, Note_on_c, 0, 84, 80
2, 151440, Note_on_c, 0, 80, 80
2, 151560, Note_on_c, 0, 80, 0
2, 151560, Note_on_c, 0, 84, 0
2, 151920, Note_on_c, 0, 65, 80
2, 151920, Note_on_c, 0, 68, 80
2, 151920, Note_on_c, 0, 74, 80
2, 152160, Note_on_c, 0, 74, 0
2, 152160, Note_on_c, 0, 68, 0
2, 152160, Note_on_c, 0, 65, 0
2, 152400, Note_on_c, 0, 67, 80
2, 152400, Note_on_c, 0, 70, 80
2, 152400, Note_on_c, 0, 75, 80
2, 152640, Note_on_c, 0, 75, 0
2, 152640, Note_on_c, 0, 70, 0
2, 152640, Note_on_c, 0, 67, 0
2, 152760, Note_on_c, 0, 80, 80
2, 152760, Note_on_c, 0, 84, 80
2, 152880, Note_on_c, 0, 84, 0
2, 152880, Note_on_c, 0, 80, 0
2, 152880, Note_on_c, 0, 79, 80
2, 152880, Note_on_c, 0, 82, 80
2, 152916, Note_on_c, 0, 82, 0
2, 152916, Note_on_c, 0, 79, 0
2, 153000, Note_on_c, 0, 77, 80
2, 153000, Note_on_c, 0, 80, 80
2, 153036, Note_on_c, 0, 80, 0
2, 153036, Note_on_c, 0, 77, 0
2, 153120, Note_on_c, 0, 75, 80
2, 153120, Note_on_c, 0, 79, 80
2, 153156, Note_on_c, 0, 79, 0
2, 153156, Note_on_c, 0, 75, 0
2, 153240, Note_on_c, 0, 74, 80
2, 153240, Note_on_c, 0, 77, 80
2, 153276, Note_on_c, 0, 77, 0
2, 153276, Note_on_c, 0, 74, 0
2, 153360, Note_on_c, 0, 75, 80
2, 153420, Note_on_c, 0, 75, 0
2, 153420, Note_on_c, 0, 74, 80
2, 153480, Note_on_c, 0, 74, 0
2, 153480, Note_on_c, 0, 75, 80
2, 153540, Note_on_c, 0, 75, 0
2, 153540, Note_on_c, 0, 74, 80
2, 153600, Note_on_c, 0, 74, 0
2, 153600, Note_on_c, 0, 75, 80
2, 153660, Note_on_c, 0, 75, 0
2, 153660, Note_on_c, 0, 74, 80
2, 153720, Note_on_c, 0, 74, 0
2, 153720, Note_on_c, 0, 75, 80
2, 153780, Note_on_c, 0, 75, 0
2, 153780, Note_on_c, 0, 74, 80
2, 153840, Note_on_c, 0, 74, 0
2, 153840, Note_on_c, 0, 75, 80
2, 153900, Note_on_c, 0, 75, 0
2, 153900, Note_on_c, 0, 74, 80
2, 153960, Note_on_c, 0, 74, 0
2, 153960, Note_on_c, 0, 75, 80
2, 154020, Note_on_c, 0, 75, 0
2, 154020, Note_on_c, 0, 74, 80
2, 154080, Note_on_c, 0, 74, 0
2, 154080, Note_on_c, 0, 75, 80
2, 154140, Note_on_c, 0, 75, 0
2, 154140, Note_on_c, 0, 74, 80
2, 154200, Note_on_c, 0, 74, 0
2, 154200, Note_on_c, 0, 75, 80
2, 154260, Note_on_c, 0, 75, 0
2, 154260, Note_on_c, 0, 74, 80
2, 154320, Note_on_c, 0, 74, 0
2, 154320, Note_on_c, 0, 75, 80
2, 154440, Note_on_c, 0, 75, 0
2, 154800, Note_on_c, 0, 87, 96
2, 154800, Note_on_c, 0, 82, 96
2, 154800, Note_on_c, 0, 79, 96
2, 155040, Note_on_c, 0, 79, 0
2, 155040, Note_on_c, 0, 82, 0
2, 155040, Note_on_c, 0, 87, 0
2, 155280, Note_on_c, 0, 55, 96
2, 155280, Note_on_c, 0, 58, 96
2, 155280, Note_on_c, 0, 63, 96
2, 155520, Note_on_c, 0, 63, 0
2, 155520, Note_on_c, 0, 58, 0
2, 155520, Note_on_c, 0, 55, 0
2, 155520, End_track
3, 0, Start_track
3, 0, MIDI_port, 0
3, 0, Title_t, "by F.J. Haydn  -  3rd mvmt. (presto)"
3, 0, Program_c, 1, 0
3, 0, Control_c, 1, 7, 127
3, 0, Control_c, 1, 10, 56
3, 960, Note_on_c, 1, 39, 48
3, 960, Note_on_c, 1, 39, 48
3, 1080, Note_on_c, 1, 39, 0
3, 1080, Note_on_c, 1, 51, 48
3, 1116, Note_on_c, 1, 51, 0
3, 1200, Note_on_c, 1, 51, 48
3, 1236, Note_on_c, 1, 51, 0
3, 1320, Note_on_c, 1, 51, 48
3, 1356, Note_on_c, 1, 51, 0
3, 1440, Note_on_c, 1, 51, 48
3, 1560, Note_on_c, 1, 51, 0
3, 1560, Note_on_c, 1, 51, 48
3, 1596, Note_on_c, 1, 51, 0
3, 1680, Note_on_c, 1, 51, 48
3, 1716, Note_on_c, 1, 51, 0
3, 1800, Note_on_c, 1, 51, 48
3, 1836, Note_on_c, 1, 51, 0
3, 1920, Note_on_c, 1, 39, 0
3, 1920, Note_on_c, 1, 39, 48
3, 2040, Note_on_c, 1, 51, 48
3, 2076, Note_on_c, 1, 51, 0
3, 2160, Note_on_c, 1, 51, 48
3, 2196, Note_on_c, 1, 51, 0
3, 2280, Note_on_c, 1, 51, 48
3, 2316, Note_on_c, 1, 51, 0
3, 2400, Note_on_c, 1, 51, 48
3, 2436, Note_on_c, 1, 51, 0
3, 2520, Note_on_c, 1, 51, 48
3, 2544, Note_on_c, 1, 39, 0
3, 2556, Note_on_c, 1, 51, 0
3, 2640, Note_on_c, 1, 51, 48
3, 2676, Note_on_c, 1, 51, 0
3, 2760, Note_on_c, 1, 51, 48
3, 2796, Note_on_c, 1, 51, 0
3, 2880, Note_on_c, 1, 39, 48
3, 3000, Note_on_c, 1, 51, 48
3, 3036, Note_on_c, 1, 51, 0
3, 3120, Note_on_c, 1, 51, 48
3, 3156, Note_on_c, 1, 51, 0
3, 3240, Note_on_c, 1, 51, 48
3, 3276, Note_on_c, 1, 51, 0
3, 3360, Note_on_c, 1, 51, 48
3, 3480, Note_on_c, 1, 51, 0
3, 3480, Note_on_c, 1, 51, 44
3, 3516, Note_on_c, 1, 51, 0
3, 3600, Note_on_c, 1, 51, 40
3, 3636, Note_on_c, 1, 51, 0
3, 3720, Note_on_c, 1, 51, 36
3, 3756, Note_on_c, 1, 51, 0
3, 3840, Note_on_c, 1, 39, 0
3, 3840, Note_on_c, 1, 39, 32
3, 4080, Note_on_c, 1, 39, 0
3, 5760, Note_on_c, 1, 41, 48
3, 5880, Note_on_c, 1, 53, 48
3, 5916, Note_on_c, 1, 53, 0
3, 6000, Note_on_c, 1, 53, 48
3, 6036, Note_on_c, 1, 53, 0
3, 6120, Note_on_c, 1, 53, 48
3, 6156, Note_on_c, 1, 53, 0
3, 6240, Note_on_c, 1, 53, 48
3, 6360, Note_on_c, 1, 53, 0
3, 6360, Note_on_c, 1, 53, 48
3, 6396, Note_on_c, 1, 53, 0
3, 6480, Note_on_c, 1, 53, 48
3, 6516, Note_on_c, 1, 53, 0
3, 6600, Note_on_c, 1, 53, 48
3, 6636, Note_on_c, 1, 53, 0
3, 6720, Note_on_c, 1, 41, 0
3, 6720, Note_on_c, 1, 41, 48
3, 6840, Note_on_c, 1, 53, 48
3, 6876, Note_on_c, 1, 53, 0
3, 6960, Note_on_c, 1, 53, 48
3, 6996, Note_on_c, 1, 53, 0
3, 7080, Note_on_c, 1, 53, 48
3, 7116, Note_on_c, 1, 53, 0
3, 7200, Note_on_c, 1, 53, 48
3, 7236, Note_on_c, 1, 53, 0
3, 7320, Note_on_c, 1, 53, 48
3, 7344, Note_on_c, 1, 41, 0
3, 7356, Note_on_c, 1, 53, 0
3, 7440, Note_on_c, 1, 53, 48
3, 7476, Note_on_c, 1, 53, 0
3, 7560, Note_on_c, 1, 53, 48
3, 7596, Note_on_c, 1, 53, 0
3, 7680, Note_on_c, 1, 41, 48
3, 7800, Note_on_c, 1, 53, 48
3, 7836, Note_on_c, 1, 53, 0
3, 7920, Note_on_c, 1, 53, 48
3, 7956, Note_on_c, 1, 53, 0
3, 8040, Note_on_c, 1, 53, 48
3, 8076, Note_on_c, 1, 53, 0
3, 8160, Note_on_c, 1, 53, 48
3, 8280, Note_on_c, 1, 53, 0
3, 8280, Note_on_c, 1, 53, 44
3, 8316, Note_on_c, 1, 53, 0
3, 8400, Note_on_c, 1, 53, 40
3, 8436, Note_on_c, 1, 53, 0
3, 8520, Note_on_c, 1, 53, 36
3, 8556, Note_on_c, 1, 53, 0
3, 8640, Note_on_c, 1, 41, 0
3, 8640, Note_on_c, 1, 41, 32
3, 8880, Note_on_c, 1, 41, 0
3, 9960, Note_on_c, 1, 46, 88
3, 9960, Note_on_c, 1, 34, 88
3, 9984, Note_on_c, 1, 34, 0
3, 9984, Note_on_c, 1, 46, 0
3, 10080, Note_on_c, 1, 46, 88
3, 10080, Note_on_c, 1, 34, 88
3, 10104, Note_on_c, 1, 34, 0
3, 10104, Note_on_c, 1, 46, 0
3, 10200, Note_on_c, 1, 46, 88
3, 10200, Note_on_c, 1, 34, 88
3, 10224, Note_on_c, 1, 34, 0
3, 10224, Note_on_c, 1, 46, 0
3, 10320, Note_on_c, 1, 46, 88
3, 10320, Note_on_c, 1, 34, 88
3, 10344, Note_on_c, 1, 34, 0
3, 10344, Note_on_c, 1, 46, 0
3, 10440, Note_on_c, 1, 46, 88
3, 10440, Note_on_c, 1, 34, 88
3, 10464, Note_on_c, 1, 34, 0
3, 10464, Note_on_c, 1, 46, 0
3, 10560, Note_on_c, 1, 34, 96
3, 10560, Note_on_c, 1, 46, 96
3, 10800, Note_on_c, 1, 46, 0
3, 10800, Note_on_c, 1, 34, 0
3, 10800, Note_on_c, 1, 53, 80
3, 10836, Note_on_c, 1, 53, 0
3, 10920, Note_on_c, 1, 44, 80
3, 10956, Note_on_c, 1, 44, 0
3, 11040, Note_on_c, 1, 43, 80
3, 11160, Note_on_c, 1, 43, 0
3, 11160, Note_on_c, 1, 46, 80
3, 11196, Note_on_c, 1, 46, 0
3, 11280, Note_on_c, 1, 51, 80
3, 11316, Note_on_c, 1, 51, 0
3, 11400, Note_on_c, 1, 43, 80
3, 11436, Note_on_c, 1, 43, 0
3, 11520, Note_on_c, 1, 44, 80
3, 11640, Note_on_c, 1, 44, 0
3, 11640, Note_on_c, 1, 50, 80
3, 11676, Note_on_c, 1, 50, 0
3, 11760, Note_on_c, 1, 53, 80
3, 11796, Note_on_c, 1, 53, 0
3, 11880, Note_on_c, 1, 44, 80
3, 11916, Note_on_c, 1, 44, 0
3, 12000, Note_on_c, 1, 43, 80
3, 12120, Note_on_c, 1, 43, 0
3, 12120, Note_on_c, 1, 46, 80
3, 12156, Note_on_c, 1, 46, 0
3, 12240, Note_on_c, 1, 51, 80
3, 12276, Note_on_c, 1, 51, 0
3, 12360, Note_on_c, 1, 43, 80
3, 12396, Note_on_c, 1, 43, 0
3, 12480, Note_on_c, 1, 44, 64
3, 12600, Note_on_c, 1, 44, 0
3, 12600, Note_on_c, 1, 50, 66
3, 12636, Note_on_c, 1, 50, 0
3, 12720, Note_on_c, 1, 53, 68
3, 12756, Note_on_c, 1, 53, 0
3, 12840, Note_on_c, 1, 44, 70
3, 12876, Note_on_c, 1, 44, 0
3, 12960, Note_on_c, 1, 43, 72
3, 13080, Note_on_c, 1, 43, 0
3, 13080, Note_on_c, 1, 46, 74
3, 13116, Note_on_c, 1, 46, 0
3, 13200, Note_on_c, 1, 51, 76
3, 13236, Note_on_c, 1, 51, 0
3, 13320, Note_on_c, 1, 55, 78
3, 13356, Note_on_c, 1, 55, 0
3, 13440, Note_on_c, 1, 44, 80
3, 13560, Note_on_c, 1, 44, 0
3, 13560, Note_on_c, 1, 48, 80
3, 13596, Note_on_c, 1, 48, 0
3, 13680, Note_on_c, 1, 53, 80
3, 13716, Note_on_c, 1, 53, 0
3, 13800, Note_on_c, 1, 56, 80
3, 13836, Note_on_c, 1, 56, 0
3, 13920, Note_on_c, 1, 58, 88
3, 13956, Note_on_c, 1, 58, 0
3, 14040, Note_on_c, 1, 58, 80
3, 14076, Note_on_c, 1, 58, 0
3, 14160, Note_on_c, 1, 58, 80
3, 14196, Note_on_c, 1, 58, 0
3, 14280, Note_on_c, 1, 58, 80
3, 14316, Note_on_c, 1, 58, 0
3, 14400, Note_on_c, 1, 46, 88
3, 14436, Note_on_c, 1, 46, 0
3, 14520, Note_on_c, 1, 46, 80
3, 14556, Note_on_c, 1, 46, 0
3, 14640, Note_on_c, 1, 46, 80
3, 14676, Note_on_c, 1, 46, 0
3, 14760, Note_on_c, 1, 46, 80
3, 14796, Note_on_c, 1, 46, 0
3, 14880, Note_on_c, 1, 51, 80
3, 14916, Note_on_c, 1, 51, 0
3, 15000, Note_on_c, 1, 55, 80
3, 15036, Note_on_c, 1, 55, 0
3, 15120, Note_on_c, 1, 51, 80
3, 15156, Note_on_c, 1, 51, 0
3, 15240, Note_on_c, 1, 55, 80
3, 15276, Note_on_c, 1, 55, 0
3, 15360, Note_on_c, 1, 51, 80
3, 15600, Note_on_c, 1, 51, 0
3, 16320, Note_on_c, 1, 63, 64
3, 16440, Note_on_c, 1, 67, 64
3, 16560, Note_on_c, 1, 67, 0
3, 16560, Note_on_c, 1, 72, 64
3, 16680, Note_on_c, 1, 72, 0
3, 16680, Note_on_c, 1, 67, 64
3, 16800, Note_on_c, 1, 67, 0
3, 16800, Note_on_c, 1, 63, 0
3, 16800, Note_on_c, 1, 62, 64
3, 16920, Note_on_c, 1, 67, 64
3, 17040, Note_on_c, 1, 67, 0
3, 17040, Note_on_c, 1, 71, 64
3, 17160, Note_on_c, 1, 71, 0
3, 17160, Note_on_c, 1, 67, 64
3, 17280, Note_on_c, 1, 67, 0
3, 17280, Note_on_c, 1, 62, 0
3, 17280, Note_on_c, 1, 60, 64
3, 17400, Note_on_c, 1, 63, 64
3, 17520, Note_on_c, 1, 63, 0
3, 17520, Note_on_c, 1, 67, 64
3, 17640, Note_on_c, 1, 67, 0
3, 17640, Note_on_c, 1, 63, 64
3, 17760, Note_on_c, 1, 63, 0
3, 17760, Note_on_c, 1, 60, 0
3, 17760, Note_on_c, 1, 58, 64
3, 17880, Note_on_c, 1, 63, 64
3, 18000, Note_on_c, 1, 63, 0
3, 18000, Note_on_c, 1, 67, 64
3, 18120, Note_on_c, 1, 67, 0
3, 18120, Note_on_c, 1, 63, 64
3, 18240, Note_on_c, 1, 63, 0
3, 18240, Note_on_c, 1, 58, 0
3, 18240, Note_on_c, 1, 57, 64
3, 18360, Note_on_c, 1, 60, 64
3, 18480, Note_on_c, 1, 60, 0
3, 18480, Note_on_c, 1, 65, 64
3, 18600, Note_on_c, 1, 65, 0
3, 18600, Note_on_c, 1, 60, 64
3, 18720, Note_on_c, 1, 60, 0
3, 18720, Note_on_c, 1, 57, 0
3, 18720, Note_on_c, 1, 57, 64
3, 18840, Note_on_c, 1, 60, 64
3, 18960, Note_on_c, 1, 60, 0
3, 18960, Note_on_c, 1, 65, 64
3, 19080, Note_on_c, 1, 65, 0
3, 19080, Note_on_c, 1, 60, 64
3, 19200, Note_on_c, 1, 60, 0
3, 19200, Note_on_c, 1, 57, 0
3, 19200, Note_on_c, 1, 58, 72
3, 19260, Note_on_c, 1, 58, 0
3, 19320, Note_on_c, 1, 62, 56
3, 19440, Note_on_c, 1, 62, 0
3, 19440, Note_on_c, 1, 60, 56
3, 19560, Note_on_c, 1, 60, 0
3, 19560, Note_on_c, 1, 63, 56
3, 19680, Note_on_c, 1, 63, 0
3, 19680, Note_on_c, 1, 62, 56
3, 19800, Note_on_c, 1, 62, 0
3, 19800, Note_on_c, 1, 65, 56
3, 19920, Note_on_c, 1, 65, 0
3, 19920, Note_on_c, 1, 50, 56
3, 20040, Note_on_c, 1, 50, 0
3, 20040, Note_on_c, 1, 58, 56
3, 20160, Note_on_c, 1, 58, 0
3, 20160, Note_on_c, 1, 51, 56
3, 20280, Note_on_c, 1, 51, 0
3, 20280, Note_on_c, 1, 58, 56
3, 20400, Note_on_c, 1, 58, 0
3, 20400, Note_on_c, 1, 53, 56
3, 20520, Note_on_c, 1, 53, 0
3, 20520, Note_on_c, 1, 58, 56
3, 20640, Note_on_c, 1, 58, 0
3, 20640, Note_on_c, 1, 55, 56
3, 20760, Note_on_c, 1, 55, 0
3, 20760, Note_on_c, 1, 58, 56
3, 20880, Note_on_c, 1, 58, 0
3, 20880, Note_on_c, 1, 54, 56
3, 21000, Note_on_c, 1, 54, 0
3, 21000, Note_on_c, 1, 58, 56
3, 21120, Note_on_c, 1, 58, 0
3, 21120, Note_on_c, 1, 53, 48
3, 21240, Note_on_c, 1, 53, 0
3, 21240, Note_on_c, 1, 58, 50
3, 21360, Note_on_c, 1, 58, 0
3, 21360, Note_on_c, 1, 52, 52
3, 21480, Note_on_c, 1, 52, 0
3, 21480, Note_on_c, 1, 58, 54
3, 21600, Note_on_c, 1, 58, 0
3, 21600, Note_on_c, 1, 52, 56
3, 21720, Note_on_c, 1, 52, 0
3, 21720, Note_on_c, 1, 60, 55
3, 21840, Note_on_c, 1, 60, 0
3, 21840, Note_on_c, 1, 52, 54
3, 21960, Note_on_c, 1, 52, 0
3, 21960, Note_on_c, 1, 61, 53
3, 22080, Note_on_c, 1, 61, 0
3, 22080, Note_on_c, 1, 53, 52
3, 22200, Note_on_c, 1, 53, 0
3, 22200, Note_on_c, 1, 60, 51
3, 22320, Note_on_c, 1, 60, 0
3, 22320, Note_on_c, 1, 52, 50
3, 22440, Note_on_c, 1, 52, 0
3, 22440, Note_on_c, 1, 61, 49
3, 22560, Note_on_c, 1, 61, 0
3, 22560, Note_on_c, 1, 53, 48
3, 22680, Note_on_c, 1, 53, 0
3, 22680, Note_on_c, 1, 60, 47
3, 22800, Note_on_c, 1, 60, 0
3, 22800, Note_on_c, 1, 52, 46
3, 22920, Note_on_c, 1, 52, 0
3, 22920, Note_on_c, 1, 61, 45
3, 23040, Note_on_c, 1, 61, 0
3, 23040, Note_on_c, 1, 60, 44
3, 23040, Note_on_c, 1, 53, 44
3, 23280, Note_on_c, 1, 53, 0
3, 23280, Note_on_c, 1, 60, 0
3, 24360, Note_on_c, 1, 65, 88
3, 24480, Note_on_c, 1, 65, 0
3, 24480, Note_on_c, 1, 66, 80
3, 24600, Note_on_c, 1, 66, 0
3, 24600, Note_on_c, 1, 67, 80
3, 24720, Note_on_c, 1, 67, 0
3, 24720, Note_on_c, 1, 68, 80
3, 24840, Note_on_c, 1, 68, 0
3, 24840, Note_on_c, 1, 69, 88
3, 24960, Note_on_c, 1, 69, 0
3, 24960, Note_on_c, 1, 70, 80
3, 25320, Note_on_c, 1, 70, 0
3, 25320, Note_on_c, 1, 65, 80
3, 25320, Note_on_c, 1, 62, 80
3, 25320, Note_on_c, 1, 58, 80
3, 25356, Note_on_c, 1, 58, 0
3, 25356, Note_on_c, 1, 62, 0
3, 25356, Note_on_c, 1, 65, 0
3, 25440, Note_on_c, 1, 65, 80
3, 25440, Note_on_c, 1, 62, 80
3, 25440, Note_on_c, 1, 58, 80
3, 25476, Note_on_c, 1, 58, 0
3, 25476, Note_on_c, 1, 62, 0
3, 25476, Note_on_c, 1, 65, 0
3, 25560, Note_on_c, 1, 65, 80
3, 25560, Note_on_c, 1, 62, 80
3, 25560, Note_on_c, 1, 58, 80
3, 25596, Note_on_c, 1, 58, 0
3, 25596, Note_on_c, 1, 62, 0
3, 25596, Note_on_c, 1, 65, 0
3, 25680, Note_on_c, 1, 65, 80
3, 25680, Note_on_c, 1, 62, 80
3, 25680, Note_on_c, 1, 58, 80
3, 25716, Note_on_c, 1, 58, 0
3, 25716, Note_on_c, 1, 62, 0
3, 25716, Note_on_c, 1, 65, 0
3, 25800, Note_on_c, 1, 65, 80
3, 25800, Note_on_c, 1, 62, 80
3, 25800, Note_on_c, 1, 58, 80
3, 25836, Note_on_c, 1, 58, 0
3, 25836, Note_on_c, 1, 62, 0
3, 25836, Note_on_c, 1, 65, 0
3, 25920, Note_on_c, 1, 60, 88
3, 25920, Note_on_c, 1, 53, 88
3, 26160, Note_on_c, 1, 53, 0
3, 26160, Note_on_c, 1, 60, 0
3, 26160, Note_on_c, 1, 62, 72
3, 26160, Note_on_c, 1, 58, 72
3, 26196, Note_on_c, 1, 58, 0
3, 26196, Note_on_c, 1, 62, 0
3, 26280, Note_on_c, 1, 62, 72
3, 26280, Note_on_c, 1, 58, 72
3, 26316, Note_on_c, 1, 58, 0
3, 26316, Note_on_c, 1, 62, 0
3, 26400, Note_on_c, 1, 53, 80
3, 26400, Note_on_c, 1, 60, 80
3, 26640, Note_on_c, 1, 60, 0
3, 26640, Note_on_c, 1, 53, 0
3, 26640, Note_on_c, 1, 58, 64
3, 26640, Note_on_c, 1, 62, 64
3, 26676, Note_on_c, 1, 62, 0
3, 26676, Note_on_c, 1, 58, 0
3, 26760, Note_on_c, 1, 58, 64
3, 26760, Note_on_c, 1, 62, 64
3, 26796, Note_on_c, 1, 62, 0
3, 26796, Note_on_c, 1, 58, 0
3, 26880, Note_on_c, 1, 53, 72
3, 26880, Note_on_c, 1, 60, 72
3, 27120, Note_on_c, 1, 60, 0
3, 27120, Note_on_c, 1, 53, 0
3, 27120, Note_on_c, 1, 58, 88
3, 27120, Note_on_c, 1, 62, 88
3, 27240, Note_on_c, 1, 62, 0
3, 27240, Note_on_c, 1, 58, 0
3, 27240, Note_on_c, 1, 56, 88
3, 27240, Note_on_c, 1, 65, 88
3, 27360, Note_on_c, 1, 65, 0
3, 27360, Note_on_c, 1, 56, 0
3, 27360, Note_on_c, 1, 56, 80
3, 27360, Note_on_c, 1, 65, 80
3, 27840, Note_on_c, 1, 65, 0
3, 27840, Note_on_c, 1, 63, 72
3, 28080, Note_on_c, 1, 56, 0
3, 28080, Note_on_c, 1, 54, 64
3, 28320, Note_on_c, 1, 54, 0
3, 28320, Note_on_c, 1, 63, 0
3, 28320, Note_on_c, 1, 53, 56
3, 28320, Note_on_c, 1, 63, 56
3, 28800, Note_on_c, 1, 63, 0
3, 28800, Note_on_c, 1, 53, 0
3, 28800, Note_on_c, 1, 55, 48
3, 28800, Note_on_c, 1, 62, 48
3, 29520, Note_on_c, 1, 62, 0
3, 29520, Note_on_c, 1, 55, 0
3, 29520, Note_on_c, 1, 74, 48
3, 29760, Note_on_c, 1, 74, 0
3, 29760, Note_on_c, 1, 74, 48
3, 30240, Note_on_c, 1, 74, 0
3, 30240, Note_on_c, 1, 75, 48
3, 30480, Note_on_c, 1, 75, 0
3, 30480, Note_on_c, 1, 63, 72
3, 30480, Note_on_c, 1, 51, 72
3, 30720, Note_on_c, 1, 51, 0
3, 30720, Note_on_c, 1, 63, 0
3, 30720, Note_on_c, 1, 51, 72
3, 30720, Note_on_c, 1, 63, 72
3, 32640, Note_on_c, 1, 63, 0
3, 32640, Note_on_c, 1, 51, 0
3, 32640, Note_on_c, 1, 53, 48
3, 32640, Note_on_c, 1, 65, 48
3, 33120, Note_on_c, 1, 65, 0
3, 33120, Note_on_c, 1, 53, 0
3, 33120, Note_on_c, 1, 41, 48
3, 33120, Note_on_c, 1, 53, 48
3, 33600, Note_on_c, 1, 53, 0
3, 33600, Note_on_c, 1, 41, 0
3, 38520, Note_on_c, 1, 65, 88
3, 38580, Note_on_c, 1, 65, 0
3, 38580, Note_on_c, 1, 53, 88
3, 38736, Note_on_c, 1, 53, 0
3, 38760, Note_on_c, 1, 60, 88
3, 38808, Note_on_c, 1, 60, 0
3, 38820, Note_on_c, 1, 48, 88
3, 38976, Note_on_c, 1, 48, 0
3, 39000, Note_on_c, 1, 57, 88
3, 39048, Note_on_c, 1, 57, 0
3, 39060, Note_on_c, 1, 45, 88
3, 39216, Note_on_c, 1, 45, 0
3, 39240, Note_on_c, 1, 53, 96
3, 39288, Note_on_c, 1, 53, 0
3, 39300, Note_on_c, 1, 41, 96
3, 39348, Note_on_c, 1, 41, 0
3, 39360, Note_on_c, 1, 29, 96
3, 39720, Note_on_c, 1, 29, 0
3, 39720, Note_on_c, 1, 63, 88
3, 39756, Note_on_c, 1, 63, 0
3, 39840, Note_on_c, 1, 63, 64
3, 39876, Note_on_c, 1, 63, 0
3, 39960, Note_on_c, 1, 63, 64
3, 39996, Note_on_c, 1, 63, 0
3, 40080, Note_on_c, 1, 63, 64
3, 40116, Note_on_c, 1, 63, 0
3, 40200, Note_on_c, 1, 63, 80
3, 40236, Note_on_c, 1, 63, 0
3, 40320, Note_on_c, 1, 63, 64
3, 40356, Note_on_c, 1, 63, 0
3, 40440, Note_on_c, 1, 63, 64
3, 40476, Note_on_c, 1, 63, 0
3, 40560, Note_on_c, 1, 63, 64
3, 40596, Note_on_c, 1, 63, 0
3, 40680, Note_on_c, 1, 63, 80
3, 40716, Note_on_c, 1, 63, 0
3, 40800, Note_on_c, 1, 63, 64
3, 40836, Note_on_c, 1, 63, 0
3, 40920, Note_on_c, 1, 63, 64
3, 40956, Note_on_c, 1, 63, 0
3, 41040, Note_on_c, 1, 63, 64
3, 41076, Note_on_c, 1, 63, 0
3, 41160, Note_on_c, 1, 63, 80
3, 41196, Note_on_c, 1, 63, 0
3, 41280, Note_on_c, 1, 63, 64
3, 41316, Note_on_c, 1, 63, 0
3, 41400, Note_on_c, 1, 63, 64
3, 41436, Note_on_c, 1, 63, 0
3, 41520, Note_on_c, 1, 63, 64
3, 41556, Note_on_c, 1, 63, 0
3, 41640, Note_on_c, 1, 63, 80
3, 41676, Note_on_c, 1, 63, 0
3, 41760, Note_on_c, 1, 63, 80
3, 41880, Note_on_c, 1, 63, 0
3, 41880, Note_on_c, 1, 63, 80
3, 42000, Note_on_c, 1, 63, 0
3, 42000, Note_on_c, 1, 63, 80
3, 42036, Note_on_c, 1, 63, 0
3, 42120, Note_on_c, 1, 63, 80
3, 42156, Note_on_c, 1, 63, 0
3, 42240, Note_on_c, 1, 62, 80
3, 42276, Note_on_c, 1, 62, 0
3, 42480, Note_on_c, 1, 63, 80
3, 42516, Note_on_c, 1, 63, 0
3, 42720, Note_on_c, 1, 65, 80
3, 42756, Note_on_c, 1, 65, 0
3, 42960, Note_on_c, 1, 65, 80
3, 42996, Note_on_c, 1, 65, 0
3, 43200, Note_on_c, 1, 58, 80
3, 43440, Note_on_c, 1, 58, 0
3, 44040, Note_on_c, 1, 48, 88
3, 44160, Note_on_c, 1, 48, 0
3, 44160, Note_on_c, 1, 41, 72
3, 44280, Note_on_c, 1, 41, 0
3, 44280, Note_on_c, 1, 42, 72
3, 44400, Note_on_c, 1, 42, 0
3, 44400, Note_on_c, 1, 41, 72
3, 44436, Note_on_c, 1, 41, 0
3, 44520, Note_on_c, 1, 51, 80
3, 44556, Note_on_c, 1, 51, 0
3, 44640, Note_on_c, 1, 45, 72
3, 44760, Note_on_c, 1, 45, 0
3, 44760, Note_on_c, 1, 46, 72
3, 44880, Note_on_c, 1, 46, 0
3, 44880, Note_on_c, 1, 45, 72
3, 44916, Note_on_c, 1, 45, 0
3, 45000, Note_on_c, 1, 54, 88
3, 45036, Note_on_c, 1, 54, 0
3, 45120, Note_on_c, 1, 48, 72
3, 45240, Note_on_c, 1, 48, 0
3, 45240, Note_on_c, 1, 49, 72
3, 45360, Note_on_c, 1, 49, 0
3, 45360, Note_on_c, 1, 48, 72
3, 45396, Note_on_c, 1, 48, 0
3, 45480, Note_on_c, 1, 57, 88
3, 45516, Note_on_c, 1, 57, 0
3, 45600, Note_on_c, 1, 53, 72
3, 45720, Note_on_c, 1, 53, 0
3, 45720, Note_on_c, 1, 54, 72
3, 45840, Note_on_c, 1, 54, 0
3, 45840, Note_on_c, 1, 53, 72
3, 45876, Note_on_c, 1, 53, 0
3, 45960, Note_on_c, 1, 57, 88
3, 45996, Note_on_c, 1, 57, 0
3, 46080, Note_on_c, 1, 58, 80
3, 46200, Note_on_c, 1, 58, 0
3, 46200, Note_on_c, 1, 46, 80
3, 46320, Note_on_c, 1, 46, 0
3, 46320, Note_on_c, 1, 58, 80
3, 46440, Note_on_c, 1, 58, 0
3, 46440, Note_on_c, 1, 46, 80
3, 46560, Note_on_c, 1, 46, 0
3, 46560, Note_on_c, 1, 58, 80
3, 46680, Note_on_c, 1, 58, 0
3, 46680, Note_on_c, 1, 46, 80
3, 46800, Note_on_c, 1, 46, 0
3, 46800, Note_on_c, 1, 58, 80
3, 46920, Note_on_c, 1, 58, 0
3, 46920, Note_on_c, 1, 46, 80
3, 47040, Note_on_c, 1, 46, 0
3, 47040, Note_on_c, 1, 58, 80
3, 47160, Note_on_c, 1, 58, 0
3, 47160, Note_on_c, 1, 46, 80
3, 47280, Note_on_c, 1, 46, 0
3, 47280, Note_on_c, 1, 58, 80
3, 47400, Note_on_c, 1, 58, 0
3, 47400, Note_on_c, 1, 46, 80
3, 47520, Note_on_c, 1, 46, 0
3, 47520, Note_on_c, 1, 58, 80
3, 47640, Note_on_c, 1, 58, 0
3, 47640, Note_on_c, 1, 46, 80
3, 47760, Note_on_c, 1, 46, 0
3, 47760, Note_on_c, 1, 58, 80
3, 48000, Note_on_c, 1, 58, 0
3, 48000, Note_on_c, 1, 62, 80
3, 48000, Note_on_c, 1, 58, 80
3, 48000, Note_on_c, 1, 53, 80
3, 48000, Note_on_c, 1, 50, 80
3, 48036, Note_on_c, 1, 50, 0
3, 48036, Note_on_c, 1, 62, 0
3, 48036, Note_on_c, 1, 58, 0
3, 48036, Note_on_c, 1, 53, 0
3, 48240, Note_on_c, 1, 60, 80
3, 48240, Note_on_c, 1, 55, 80
3, 48240, Note_on_c, 1, 51, 80
3, 48294, Note_on_c, 1, 51, 0
3, 48294, Note_on_c, 1, 55, 0
3, 48294, Note_on_c, 1, 60, 0
3, 48480, Note_on_c, 1, 53, 80
3, 48480, Note_on_c, 1, 58, 80
3, 48480, Note_on_c, 1, 62, 80
3, 48552, Note_on_c, 1, 62, 0
3, 48552, Note_on_c, 1, 58, 0
3, 48552, Note_on_c, 1, 53, 0
3, 48720, Note_on_c, 1, 60, 80
3, 48720, Note_on_c, 1, 57, 80
3, 48720, Note_on_c, 1, 53, 80
3, 48960, Note_on_c, 1, 53, 0
3, 48960, Note_on_c, 1, 57, 0
3, 48960, Note_on_c, 1, 60, 0
3, 48960, Note_on_c, 1, 58, 80
3, 49020, Note_on_c, 1, 58, 0
3, 49020, Note_on_c, 1, 57, 80
3, 49080, Note_on_c, 1, 57, 0
3, 49080, Note_on_c, 1, 58, 80
3, 49140, Note_on_c, 1, 58, 0
3, 49140, Note_on_c, 1, 57, 80
3, 49200, Note_on_c, 1, 57, 0
3, 49200, Note_on_c, 1, 58, 80
3, 49260, Note_on_c, 1, 58, 0
3, 49260, Note_on_c, 1, 57, 80
3, 49320, Note_on_c, 1, 57, 0
3, 49320, Note_on_c, 1, 58, 80
3, 49380, Note_on_c, 1, 58, 0
3, 49380, Note_on_c, 1, 57, 80
3, 49440, Note_on_c, 1, 57, 0
3, 49440, Note_on_c, 1, 58, 80
3, 49500, Note_on_c, 1, 58, 0
3, 49500, Note_on_c, 1, 57, 80
3, 49560, Note_on_c, 1, 57, 0
3, 49560, Note_on_c, 1, 58, 80
3, 49620, Note_on_c, 1, 58, 0
3, 49620, Note_on_c, 1, 57, 80
3, 49680, Note_on_c, 1, 57, 0
3, 49680, Note_on_c, 1, 58, 80
3, 49740, Note_on_c, 1, 58, 0
3, 49740, Note_on_c, 1, 57, 80
3, 49800, Note_on_c, 1, 57, 0
3, 49800, Note_on_c, 1, 58, 80
3, 49860, Note_on_c, 1, 58, 0
3, 49860, Note_on_c, 1, 57, 80
3, 49920, Note_on_c, 1, 57, 0
3, 49920, Note_on_c, 1, 58, 80
3, 50160, Note_on_c, 1, 58, 0
3, 50280, Note_on_c, 1, 51, 80
3, 50280, Note_on_c, 1, 55, 80
3, 50400, Note_on_c, 1, 55, 0
3, 50400, Note_on_c, 1, 51, 0
3, 50400, Note_on_c, 1, 50, 80
3, 50400, Note_on_c, 1, 53, 80
3, 50520, Note_on_c, 1, 53, 0
3, 50520, Note_on_c, 1, 50, 0
3, 50520, Note_on_c, 1, 51, 80
3, 50520, Note_on_c, 1, 55, 80
3, 50556, Note_on_c, 1, 55, 0
3, 50556, Note_on_c, 1, 51, 0
3, 50640, Note_on_c, 1, 50, 80
3, 50640, Note_on_c, 1, 53, 80
3, 50676, Note_on_c, 1, 53, 0
3, 50676, Note_on_c, 1, 50, 0
3, 50760, Note_on_c, 1, 48, 80
3, 50760, Note_on_c, 1, 51, 80
3, 50796, Note_on_c, 1, 51, 0
3, 50796, Note_on_c, 1, 48, 0
3, 50880, Note_on_c, 1, 50, 80
3, 50880, Note_on_c, 1, 46, 80
3, 50952, Note_on_c, 1, 46, 0
3, 50952, Note_on_c, 1, 50, 0
3, 51120, Note_on_c, 1, 58, 80
3, 51120, Note_on_c, 1, 53, 80
3, 51120, Note_on_c, 1, 50, 80
3, 51120, Note_on_c, 1, 46, 80
3, 51264, Note_on_c, 1, 46, 0
3, 51264, Note_on_c, 1, 58, 0
3, 51264, Note_on_c, 1, 53, 0
3, 51264, Note_on_c, 1, 50, 0
3, 51840, Note_on_c, 1, 36, 32
3, 51840, Note_on_c, 1, 48, 32
3, 52128, Note_on_c, 1, 48, 0
3, 52128, Note_on_c, 1, 36, 0
3, 52320, Note_on_c, 1, 35, 32
3, 52320, Note_on_c, 1, 47, 32
3, 52680, Note_on_c, 1, 47, 0
3, 52680, Note_on_c, 1, 35, 0
3, 52680, Note_on_c, 1, 60, 48
3, 52800, Note_on_c, 1, 60, 0
3, 52800, Note_on_c, 1, 59, 48
3, 52920, Note_on_c, 1, 59, 0
3, 52920, Note_on_c, 1, 60, 48
3, 52956, Note_on_c, 1, 60, 0
3, 53040, Note_on_c, 1, 59, 48
3, 53076, Note_on_c, 1, 59, 0
3, 53160, Note_on_c, 1, 62, 48
3, 53196, Note_on_c, 1, 62, 0
3, 53280, Note_on_c, 1, 60, 48
3, 53520, Note_on_c, 1, 60, 0
3, 53640, Note_on_c, 1, 63, 72
3, 53760, Note_on_c, 1, 63, 0
3, 53760, Note_on_c, 1, 64, 48
3, 53880, Note_on_c, 1, 64, 0
3, 53880, Note_on_c, 1, 65, 48
3, 53916, Note_on_c, 1, 65, 0
3, 54000, Note_on_c, 1, 66, 48
3, 54036, Note_on_c, 1, 66, 0
3, 54120, Note_on_c, 1, 67, 48
3, 54156, Note_on_c, 1, 67, 0
3, 54240, Note_on_c, 1, 68, 48
3, 54600, Note_on_c, 1, 68, 0
3, 54600, Note_on_c, 1, 65, 72
3, 54720, Note_on_c, 1, 65, 0
3, 54720, Note_on_c, 1, 66, 48
3, 54840, Note_on_c, 1, 66, 0
3, 54840, Note_on_c, 1, 67, 48
3, 54960, Note_on_c, 1, 67, 0
3, 54960, Note_on_c, 1, 68, 48
3, 55080, Note_on_c, 1, 68, 0
3, 55080, Note_on_c, 1, 69, 48
3, 55200, Note_on_c, 1, 69, 0
3, 55200, Note_on_c, 1, 70, 48
3, 55560, Note_on_c, 1, 70, 0
3, 55560, Note_on_c, 1, 67, 72
3, 55680, Note_on_c, 1, 67, 0
3, 55680, Note_on_c, 1, 68, 48
3, 55800, Note_on_c, 1, 68, 0
3, 55800, Note_on_c, 1, 64, 48
3, 55920, Note_on_c, 1, 64, 0
3, 55920, Note_on_c, 1, 65, 48
3, 56040, Note_on_c, 1, 65, 0
3, 56040, Note_on_c, 1, 67, 48
3, 56160, Note_on_c, 1, 67, 0
3, 56160, Note_on_c, 1, 68, 48
3, 56520, Note_on_c, 1, 68, 0
3, 56520, Note_on_c, 1, 65, 48
3, 56640, Note_on_c, 1, 65, 0
3, 56640, Note_on_c, 1, 67, 48
3, 57000, Note_on_c, 1, 67, 0
3, 57000, Note_on_c, 1, 64, 48
3, 57120, Note_on_c, 1, 64, 0
3, 57120, Note_on_c, 1, 65, 48
3, 58080, Note_on_c, 1, 65, 0
3, 58080, Note_on_c, 1, 64, 48
3, 58320, Note_on_c, 1, 64, 0
3, 58320, Note_on_c, 1, 63, 48
3, 58560, Note_on_c, 1, 63, 0
3, 58560, Note_on_c, 1, 62, 48
3, 58800, Note_on_c, 1, 62, 0
3, 58800, Note_on_c, 1, 61, 48
3, 59040, Note_on_c, 1, 61, 0
3, 59040, Note_on_c, 1, 60, 72
3, 59100, Note_on_c, 1, 60, 0
3, 59100, Note_on_c, 1, 59, 72
3, 59160, Note_on_c, 1, 59, 0
3, 59160, Note_on_c, 1, 60, 72
3, 59220, Note_on_c, 1, 60, 0
3, 59220, Note_on_c, 1, 59, 72
3, 59280, Note_on_c, 1, 59, 0
3, 59280, Note_on_c, 1, 60, 72
3, 59340, Note_on_c, 1, 60, 0
3, 59340, Note_on_c, 1, 59, 72
3, 59400, Note_on_c, 1, 59, 0
3, 59400, Note_on_c, 1, 60, 72
3, 59460, Note_on_c, 1, 60, 0
3, 59460, Note_on_c, 1, 59, 72
3, 59520, Note_on_c, 1, 59, 0
3, 59520, Note_on_c, 1, 60, 72
3, 59580, Note_on_c, 1, 60, 0
3, 59580, Note_on_c, 1, 59, 72
3, 59640, Note_on_c, 1, 59, 0
3, 59640, Note_on_c, 1, 60, 72
3, 59700, Note_on_c, 1, 60, 0
3, 59700, Note_on_c, 1, 59, 72
3, 59760, Note_on_c, 1, 59, 0
3, 59760, Note_on_c, 1, 60, 72
3, 59820, Note_on_c, 1, 60, 0
3, 59820, Note_on_c, 1, 59, 72
3, 59880, Note_on_c, 1, 59, 0
3, 59880, Note_on_c, 1, 60, 72
3, 59940, Note_on_c, 1, 60, 0
3, 59940, Note_on_c, 1, 59, 72
3, 60000, Note_on_c, 1, 59, 0
3, 60000, Note_on_c, 1, 60, 64
3, 60060, Note_on_c, 1, 60, 0
3, 60060, Note_on_c, 1, 59, 63
3, 60120, Note_on_c, 1, 59, 0
3, 60120, Note_on_c, 1, 60, 62
3, 60180, Note_on_c, 1, 60, 0
3, 60180, Note_on_c, 1, 59, 61
3, 60240, Note_on_c, 1, 59, 0
3, 60240, Note_on_c, 1, 60, 60
3, 60300, Note_on_c, 1, 60, 0
3, 60300, Note_on_c, 1, 59, 59
3, 60360, Note_on_c, 1, 59, 0
3, 60360, Note_on_c, 1, 60, 58
3, 60420, Note_on_c, 1, 60, 0
3, 60420, Note_on_c, 1, 59, 57
3, 60480, Note_on_c, 1, 59, 0
3, 60480, Note_on_c, 1, 60, 56
3, 60540, Note_on_c, 1, 60, 0
3, 60540, Note_on_c, 1, 59, 55
3, 60600, Note_on_c, 1, 59, 0
3, 60600, Note_on_c, 1, 60, 54
3, 60660, Note_on_c, 1, 60, 0
3, 60660, Note_on_c, 1, 59, 53
3, 60720, Note_on_c, 1, 59, 0
3, 60720, Note_on_c, 1, 60, 52
3, 60780, Note_on_c, 1, 60, 0
3, 60780, Note_on_c, 1, 59, 51
3, 60840, Note_on_c, 1, 59, 0
3, 60840, Note_on_c, 1, 60, 50
3, 60900, Note_on_c, 1, 60, 0
3, 60900, Note_on_c, 1, 59, 49
3, 60960, Note_on_c, 1, 59, 0
3, 60960, Note_on_c, 1, 60, 56
3, 61080, Note_on_c, 1, 60, 0
3, 61920, Note_on_c, 1, 56, 40
3, 61920, Note_on_c, 1, 60, 40
3, 62040, Note_on_c, 1, 60, 0
3, 62040, Note_on_c, 1, 63, 40
3, 62160, Note_on_c, 1, 63, 0
3, 62160, Note_on_c, 1, 56, 0
3, 62160, Note_on_c, 1, 56, 40
3, 62160, Note_on_c, 1, 60, 40
3, 62280, Note_on_c, 1, 60, 0
3, 62280, Note_on_c, 1, 63, 40
3, 62400, Note_on_c, 1, 63, 0
3, 62400, Note_on_c, 1, 56, 0
3, 62400, Note_on_c, 1, 56, 40
3, 62400, Note_on_c, 1, 61, 40
3, 62400, Note_on_c, 1, 58, 40
3, 62520, Note_on_c, 1, 58, 0
3, 62520, Note_on_c, 1, 61, 0
3, 62520, Note_on_c, 1, 63, 40
3, 62640, Note_on_c, 1, 63, 0
3, 62640, Note_on_c, 1, 56, 0
3, 62640, Note_on_c, 1, 56, 40
3, 62640, Note_on_c, 1, 61, 40
3, 62640, Note_on_c, 1, 58, 40
3, 62760, Note_on_c, 1, 58, 0
3, 62760, Note_on_c, 1, 61, 0
3, 62760, Note_on_c, 1, 63, 40
3, 62880, Note_on_c, 1, 63, 0
3, 62880, Note_on_c, 1, 56, 0
3, 62880, Note_on_c, 1, 56, 40
3, 62880, Note_on_c, 1, 60, 40
3, 63000, Note_on_c, 1, 60, 0
3, 63000, Note_on_c, 1, 63, 40
3, 63120, Note_on_c, 1, 63, 0
3, 63120, Note_on_c, 1, 56, 0
3, 63120, Note_on_c, 1, 56, 40
3, 63120, Note_on_c, 1, 60, 40
3, 63240, Note_on_c, 1, 60, 0
3, 63240, Note_on_c, 1, 63, 40
3, 63360, Note_on_c, 1, 63, 0
3, 63360, Note_on_c, 1, 56, 0
3, 63360, Note_on_c, 1, 56, 40
3, 63360, Note_on_c, 1, 61, 40
3, 63360, Note_on_c, 1, 58, 40
3, 63480, Note_on_c, 1, 58, 0
3, 63480, Note_on_c, 1, 61, 0
3, 63480, Note_on_c, 1, 63, 40
3, 63600, Note_on_c, 1, 63, 0
3, 63600, Note_on_c, 1, 56, 0
3, 63600, Note_on_c, 1, 56, 40
3, 63600, Note_on_c, 1, 61, 40
3, 63600, Note_on_c, 1, 58, 40
3, 63720, Note_on_c, 1, 58, 0
3, 63720, Note_on_c, 1, 61, 0
3, 63720, Note_on_c, 1, 63, 40
3, 63840, Note_on_c, 1, 63, 0
3, 63840, Note_on_c, 1, 56, 0
3, 63840, Note_on_c, 1, 60, 40
3, 63840, Note_on_c, 1, 56, 40
3, 63912, Note_on_c, 1, 56, 0
3, 63912, Note_on_c, 1, 60, 0
3, 64320, Note_on_c, 1, 61, 40
3, 64320, Note_on_c, 1, 58, 40
3, 64320, Note_on_c, 1, 55, 40
3, 64320, Note_on_c, 1, 51, 40
3, 64392, Note_on_c, 1, 51, 0
3, 64392, Note_on_c, 1, 61, 0
3, 64392, Note_on_c, 1, 58, 0
3, 64392, Note_on_c, 1, 55, 0
3, 64800, Note_on_c, 1, 56, 40
3, 64800, Note_on_c, 1, 44, 40
3, 64920, Note_on_c, 1, 44, 0
3, 64920, Note_on_c, 1, 56, 0
3, 65160, Note_on_c, 1, 60, 40
3, 65160, Note_on_c, 1, 56, 40
3, 65196, Note_on_c, 1, 56, 0
3, 65196, Note_on_c, 1, 60, 0
3, 65280, Note_on_c, 1, 61, 40
3, 65280, Note_on_c, 1, 58, 40
3, 65352, Note_on_c, 1, 58, 0
3, 65352, Note_on_c, 1, 61, 0
3, 65640, Note_on_c, 1, 58, 40
3, 65640, Note_on_c, 1, 55, 40
3, 65676, Note_on_c, 1, 55, 0
3, 65676, Note_on_c, 1, 58, 0
3, 65760, Note_on_c, 1, 60, 40
3, 65760, Note_on_c, 1, 56, 40
3, 65832, Note_on_c, 1, 56, 0
3, 65832, Note_on_c, 1, 60, 0
3, 66120, Note_on_c, 1, 60, 40
3, 66120, Note_on_c, 1, 56, 40
3, 66156, Note_on_c, 1, 56, 0
3, 66156, Note_on_c, 1, 60, 0
3, 66240, Note_on_c, 1, 61, 40
3, 66240, Note_on_c, 1, 58, 40
3, 66312, Note_on_c, 1, 58, 0
3, 66312, Note_on_c, 1, 61, 0
3, 66600, Note_on_c, 1, 58, 40
3, 66600, Note_on_c, 1, 55, 40
3, 66636, Note_on_c, 1, 55, 0
3, 66636, Note_on_c, 1, 58, 0
3, 66720, Note_on_c, 1, 60, 40
3, 66720, Note_on_c, 1, 56, 40
3, 66792, Note_on_c, 1, 56, 0
3, 66792, Note_on_c, 1, 60, 0
3, 67080, Note_on_c, 1, 61, 40
3, 67080, Note_on_c, 1, 58, 40
3, 67116, Note_on_c, 1, 58, 0
3, 67116, Note_on_c, 1, 61, 0
3, 67200, Note_on_c, 1, 63, 40
3, 67200, Note_on_c, 1, 60, 40
3, 67272, Note_on_c, 1, 60, 0
3, 67272, Note_on_c, 1, 63, 0
3, 67560, Note_on_c, 1, 59, 40
3, 67560, Note_on_c, 1, 68, 40
3, 67596, Note_on_c, 1, 68, 0
3, 67596, Note_on_c, 1, 59, 0
3, 67680, Note_on_c, 1, 58, 40
3, 67680, Note_on_c, 1, 68, 40
3, 68040, Note_on_c, 1, 68, 0
3, 68040, Note_on_c, 1, 58, 0
3, 68040, Note_on_c, 1, 59, 40
3, 68040, Note_on_c, 1, 68, 40
3, 68160, Note_on_c, 1, 68, 0
3, 68160, Note_on_c, 1, 59, 0
3, 68160, Note_on_c, 1, 68, 40
3, 68160, Note_on_c, 1, 58, 40
3, 68520, Note_on_c, 1, 58, 0
3, 68520, Note_on_c, 1, 68, 0
3, 68520, Note_on_c, 1, 68, 40
3, 68520, Note_on_c, 1, 59, 40
3, 68640, Note_on_c, 1, 59, 0
3, 68640, Note_on_c, 1, 68, 0
3, 68640, Note_on_c, 1, 58, 40
3, 68640, Note_on_c, 1, 68, 40
3, 69120, Note_on_c, 1, 68, 0
3, 69120, Note_on_c, 1, 58, 0
3, 69120, Note_on_c, 1, 58, 40
3, 69120, Note_on_c, 1, 62, 40
3, 69600, Note_on_c, 1, 62, 0
3, 69600, Note_on_c, 1, 58, 0
3, 69600, Note_on_c, 1, 63, 40
3, 69600, Note_on_c, 1, 58, 40
3, 69600, Note_on_c, 1, 55, 40
3, 69600, Note_on_c, 1, 51, 40
3, 69672, Note_on_c, 1, 51, 0
3, 69672, Note_on_c, 1, 63, 0
3, 69672, Note_on_c, 1, 58, 0
3, 69672, Note_on_c, 1, 55, 0
3, 70080, Note_on_c, 1, 46, 40
3, 70080, Note_on_c, 1, 56, 40
3, 70152, Note_on_c, 1, 56, 0
3, 70152, Note_on_c, 1, 46, 0
3, 70560, Note_on_c, 1, 39, 40
3, 70560, Note_on_c, 1, 51, 40
3, 70704, Note_on_c, 1, 51, 0
3, 70704, Note_on_c, 1, 39, 0
3, 70920, Note_on_c, 1, 51, 40
3, 70920, Note_on_c, 1, 55, 40
3, 70956, Note_on_c, 1, 55, 0
3, 70956, Note_on_c, 1, 51, 0
3, 71040, Note_on_c, 1, 56, 40
3, 71040, Note_on_c, 1, 53, 40
3, 71112, Note_on_c, 1, 53, 0
3, 71112, Note_on_c, 1, 56, 0
3, 71400, Note_on_c, 1, 53, 40
3, 71400, Note_on_c, 1, 50, 40
3, 71436, Note_on_c, 1, 50, 0
3, 71436, Note_on_c, 1, 53, 0
3, 71520, Note_on_c, 1, 51, 40
3, 71520, Note_on_c, 1, 55, 40
3, 71592, Note_on_c, 1, 55, 0
3, 71592, Note_on_c, 1, 51, 0
3, 71880, Note_on_c, 1, 67, 40
3, 71880, Note_on_c, 1, 63, 40
3, 71916, Note_on_c, 1, 63, 0
3, 71916, Note_on_c, 1, 67, 0
3, 72000, Note_on_c, 1, 65, 40
3, 72000, Note_on_c, 1, 68, 40
3, 72072, Note_on_c, 1, 68, 0
3, 72072, Note_on_c, 1, 65, 0
3, 83160, Note_on_c, 1, 67, 88
3, 83220, Note_on_c, 1, 67, 0
3, 83220, Note_on_c, 1, 55, 88
3, 83376, Note_on_c, 1, 55, 0
3, 83400, Note_on_c, 1, 62, 88
3, 83448, Note_on_c, 1, 62, 0
3, 83460, Note_on_c, 1, 50, 88
3, 83616, Note_on_c, 1, 50, 0
3, 83640, Note_on_c, 1, 59, 88
3, 83688, Note_on_c, 1, 59, 0
3, 83700, Note_on_c, 1, 47, 88
3, 83856, Note_on_c, 1, 47, 0
3, 83880, Note_on_c, 1, 55, 88
3, 83928, Note_on_c, 1, 55, 0
3, 83940, Note_on_c, 1, 43, 88
3, 83988, Note_on_c, 1, 43, 0
3, 84000, Note_on_c, 1, 43, 88
3, 84000, Note_on_c, 1, 31, 88
3, 84480, Note_on_c, 1, 31, 0
3, 84480, Note_on_c, 1, 43, 0
3, 85800, Note_on_c, 1, 53, 88
3, 85920, Note_on_c, 1, 53, 0
3, 85920, Note_on_c, 1, 63, 72
3, 86040, Note_on_c, 1, 63, 0
3, 86040, Note_on_c, 1, 62, 72
3, 86160, Note_on_c, 1, 62, 0
3, 86160, Note_on_c, 1, 61, 72
3, 86280, Note_on_c, 1, 61, 0
3, 86280, Note_on_c, 1, 60, 72
3, 86400, Note_on_c, 1, 60, 0
3, 86400, Note_on_c, 1, 59, 72
3, 86640, Note_on_c, 1, 59, 0
3, 87720, Note_on_c, 1, 51, 88
3, 87840, Note_on_c, 1, 51, 0
3, 87840, Note_on_c, 1, 52, 72
3, 87960, Note_on_c, 1, 52, 0
3, 87960, Note_on_c, 1, 53, 72
3, 88080, Note_on_c, 1, 53, 0
3, 88080, Note_on_c, 1, 54, 72
3, 88200, Note_on_c, 1, 54, 0
3, 88200, Note_on_c, 1, 55, 72
3, 88320, Note_on_c, 1, 55, 0
3, 88320, Note_on_c, 1, 56, 72
3, 88560, Note_on_c, 1, 56, 0
3, 88680, Note_on_c, 1, 63, 88
3, 88680, Note_on_c, 1, 60, 88
3, 88680, Note_on_c, 1, 56, 88
3, 88716, Note_on_c, 1, 56, 0
3, 88716, Note_on_c, 1, 60, 0
3, 88716, Note_on_c, 1, 63, 0
3, 88800, Note_on_c, 1, 63, 88
3, 88800, Note_on_c, 1, 60, 88
3, 88800, Note_on_c, 1, 56, 88
3, 88836, Note_on_c, 1, 56, 0
3, 88836, Note_on_c, 1, 60, 0
3, 88836, Note_on_c, 1, 63, 0
3, 88920, Note_on_c, 1, 63, 88
3, 88920, Note_on_c, 1, 60, 88
3, 88920, Note_on_c, 1, 56, 88
3, 88956, Note_on_c, 1, 56, 0
3, 88956, Note_on_c, 1, 60, 0
3, 88956, Note_on_c, 1, 63, 0
3, 89040, Note_on_c, 1, 63, 88
3, 89040, Note_on_c, 1, 60, 88
3, 89040, Note_on_c, 1, 56, 88
3, 89076, Note_on_c, 1, 56, 0
3, 89076, Note_on_c, 1, 60, 0
3, 89076, Note_on_c, 1, 63, 0
3, 89160, Note_on_c, 1, 63, 88
3, 89160, Note_on_c, 1, 60, 88
3, 89160, Note_on_c, 1, 56, 88
3, 89196, Note_on_c, 1, 56, 0
3, 89196, Note_on_c, 1, 60, 0
3, 89196, Note_on_c, 1, 63, 0
3, 89280, Note_on_c, 1, 63, 88
3, 89280, Note_on_c, 1, 58, 88
3, 89520, Note_on_c, 1, 58, 0
3, 89520, Note_on_c, 1, 63, 0
3, 89520, Note_on_c, 1, 60, 80
3, 89520, Note_on_c, 1, 63, 80
3, 89640, Note_on_c, 1, 63, 0
3, 89640, Note_on_c, 1, 60, 0
3, 90240, Note_on_c, 1, 75, 80
3, 90480, Note_on_c, 1, 75, 0
3, 90480, Note_on_c, 1, 68, 48
3, 90516, Note_on_c, 1, 68, 0
3, 91200, Note_on_c, 1, 72, 48
3, 91440, Note_on_c, 1, 72, 0
3, 91440, Note_on_c, 1, 65, 32
3, 91560, Note_on_c, 1, 65, 0
3, 93000, Note_on_c, 1, 65, 80
3, 93036, Note_on_c, 1, 65, 0
3, 93120, Note_on_c, 1, 64, 80
3, 93240, Note_on_c, 1, 64, 0
3, 93240, Note_on_c, 1, 63, 80
3, 93360, Note_on_c, 1, 63, 0
3, 93360, Note_on_c, 1, 62, 80
3, 93480, Note_on_c, 1, 62, 0
3, 93480, Note_on_c, 1, 61, 80
3, 93600, Note_on_c, 1, 61, 0
3, 93600, Note_on_c, 1, 60, 80
3, 93720, Note_on_c, 1, 60, 0
3, 93720, Note_on_c, 1, 59, 80
3, 93840, Note_on_c, 1, 59, 0
3, 93840, Note_on_c, 1, 60, 80
3, 93876, Note_on_c, 1, 60, 0
3, 93960, Note_on_c, 1, 63, 80
3, 94080, Note_on_c, 1, 63, 0
3, 94080, Note_on_c, 1, 62, 80
3, 94200, Note_on_c, 1, 62, 0
3, 94200, Note_on_c, 1, 61, 80
3, 94320, Note_on_c, 1, 61, 0
3, 94320, Note_on_c, 1, 60, 80
3, 94440, Note_on_c, 1, 60, 0
3, 94440, Note_on_c, 1, 59, 80
3, 94560, Note_on_c, 1, 59, 0
3, 94560, Note_on_c, 1, 58, 80
3, 94680, Note_on_c, 1, 58, 0
3, 94680, Note_on_c, 1, 57, 80
3, 94800, Note_on_c, 1, 57, 0
3, 94800, Note_on_c, 1, 58, 80
3, 94836, Note_on_c, 1, 58, 0
3, 94920, Note_on_c, 1, 70, 80
3, 94920, Note_on_c, 1, 73, 80
3, 94956, Note_on_c, 1, 73, 0
3, 94956, Note_on_c, 1, 70, 0
3, 95040, Note_on_c, 1, 70, 80
3, 95040, Note_on_c, 1, 73, 80
3, 95076, Note_on_c, 1, 73, 0
3, 95076, Note_on_c, 1, 70, 0
3, 95160, Note_on_c, 1, 70, 80
3, 95160, Note_on_c, 1, 73, 80
3, 95196, Note_on_c, 1, 73, 0
3, 95196, Note_on_c, 1, 70, 0
3, 95280, Note_on_c, 1, 70, 80
3, 95280, Note_on_c, 1, 73, 80
3, 95316, Note_on_c, 1, 73, 0
3, 95316, Note_on_c, 1, 70, 0
3, 95400, Note_on_c, 1, 70, 80
3, 95400, Note_on_c, 1, 73, 80
3, 95436, Note_on_c, 1, 73, 0
3, 95436, Note_on_c, 1, 70, 0
3, 95520, Note_on_c, 1, 70, 80
3, 95520, Note_on_c, 1, 73, 80
3, 95760, Note_on_c, 1, 73, 0
3, 95760, Note_on_c, 1, 70, 0
3, 95760, Note_on_c, 1, 68, 80
3, 95760, Note_on_c, 1, 72, 80
3, 95796, Note_on_c, 1, 72, 0
3, 95796, Note_on_c, 1, 68, 0
3, 95880, Note_on_c, 1, 68, 80
3, 95880, Note_on_c, 1, 71, 80
3, 95916, Note_on_c, 1, 71, 0
3, 95916, Note_on_c, 1, 68, 0
3, 96000, Note_on_c, 1, 68, 80
3, 96000, Note_on_c, 1, 71, 80
3, 96036, Note_on_c, 1, 71, 0
3, 96036, Note_on_c, 1, 68, 0
3, 96120, Note_on_c, 1, 68, 80
3, 96120, Note_on_c, 1, 71, 80
3, 96156, Note_on_c, 1, 71, 0
3, 96156, Note_on_c, 1, 68, 0
3, 96240, Note_on_c, 1, 68, 80
3, 96240, Note_on_c, 1, 71, 80
3, 96276, Note_on_c, 1, 71, 0
3, 96276, Note_on_c, 1, 68, 0
3, 96360, Note_on_c, 1, 68, 80
3, 96360, Note_on_c, 1, 71, 80
3, 96396, Note_on_c, 1, 71, 0
3, 96396, Note_on_c, 1, 68, 0
3, 96480, Note_on_c, 1, 68, 80
3, 96480, Note_on_c, 1, 71, 80
3, 96720, Note_on_c, 1, 71, 0
3, 96720, Note_on_c, 1, 68, 0
3, 96720, Note_on_c, 1, 67, 80
3, 96720, Note_on_c, 1, 70, 80
3, 96756, Note_on_c, 1, 70, 0
3, 96756, Note_on_c, 1, 67, 0
3, 97440, Note_on_c, 1, 60, 48
3, 97440, Note_on_c, 1, 63, 48
3, 97728, Note_on_c, 1, 63, 0
3, 97728, Note_on_c, 1, 60, 0
3, 97800, Note_on_c, 1, 60, 48
3, 97815, Note_on_c, 1, 63, 48
3, 97830, Note_on_c, 1, 65, 48
3, 97845, Note_on_c, 1, 69, 48
3, 98400, Note_on_c, 1, 69, 0
3, 98400, Note_on_c, 1, 60, 0
3, 98400, Note_on_c, 1, 63, 0
3, 98400, Note_on_c, 1, 65, 0
3, 99360, Note_on_c, 1, 58, 48
3, 99360, Note_on_c, 1, 65, 48
3, 99360, Note_on_c, 1, 68, 48
3, 99840, Note_on_c, 1, 68, 0
3, 99840, Note_on_c, 1, 65, 0
3, 99840, Note_on_c, 1, 58, 0
3, 101040, Note_on_c, 1, 58, 48
3, 101040, Note_on_c, 1, 65, 48
3, 101040, Note_on_c, 1, 68, 48
3, 102960, Note_on_c, 1, 68, 0
3, 102960, Note_on_c, 1, 65, 0
3, 102960, Note_on_c, 1, 58, 0
3, 103920, Note_on_c, 1, 39, 48
3, 103920, Note_on_c, 1, 39, 48
3, 104040, Note_on_c, 1, 39, 0
3, 104040, Note_on_c, 1, 51, 48
3, 104076, Note_on_c, 1, 51, 0
3, 104160, Note_on_c, 1, 51, 48
3, 104196, Note_on_c, 1, 51, 0
3, 104280, Note_on_c, 1, 51, 48
3, 104316, Note_on_c, 1, 51, 0
3, 104400, Note_on_c, 1, 51, 48
3, 104520, Note_on_c, 1, 51, 0
3, 104520, Note_on_c, 1, 51, 48
3, 104556, Note_on_c, 1, 51, 0
3, 104640, Note_on_c, 1, 51, 48
3, 104676, Note_on_c, 1, 51, 0
3, 104760, Note_on_c, 1, 51, 48
3, 104796, Note_on_c, 1, 51, 0
3, 104880, Note_on_c, 1, 39, 0
3, 104880, Note_on_c, 1, 39, 48
3, 105000, Note_on_c, 1, 51, 48
3, 105036, Note_on_c, 1, 51, 0
3, 105120, Note_on_c, 1, 51, 48
3, 105156, Note_on_c, 1, 51, 0
3, 105240, Note_on_c, 1, 51, 48
3, 105276, Note_on_c, 1, 51, 0
3, 105360, Note_on_c, 1, 51, 48
3, 105396, Note_on_c, 1, 51, 0
3, 105480, Note_on_c, 1, 51, 48
3, 105504, Note_on_c, 1, 39, 0
3, 105516, Note_on_c, 1, 51, 0
3, 105600, Note_on_c, 1, 51, 48
3, 105636, Note_on_c, 1, 51, 0
3, 105720, Note_on_c, 1, 51, 48
3, 105756, Note_on_c, 1, 51, 0
3, 105840, Note_on_c, 1, 39, 48
3, 105960, Note_on_c, 1, 51, 48
3, 105996, Note_on_c, 1, 51, 0
3, 106080, Note_on_c, 1, 51, 48
3, 106116, Note_on_c, 1, 51, 0
3, 106200, Note_on_c, 1, 51, 48
3, 106236, Note_on_c, 1, 51, 0
3, 106320, Note_on_c, 1, 51, 48
3, 106440, Note_on_c, 1, 51, 0
3, 106440, Note_on_c, 1, 51, 44
3, 106476, Note_on_c, 1, 51, 0
3, 106560, Note_on_c, 1, 51, 40
3, 106596, Note_on_c, 1, 51, 0
3, 106680, Note_on_c, 1, 51, 36
3, 106716, Note_on_c, 1, 51, 0
3, 106800, Note_on_c, 1, 39, 0
3, 106800, Note_on_c, 1, 39, 32
3, 107040, Note_on_c, 1, 39, 0
3, 108720, Note_on_c, 1, 41, 48
3, 108840, Note_on_c, 1, 53, 48
3, 108876, Note_on_c, 1, 53, 0
3, 108960, Note_on_c, 1, 53, 48
3, 108996, Note_on_c, 1, 53, 0
3, 109080, Note_on_c, 1, 53, 48
3, 109116, Note_on_c, 1, 53, 0
3, 109320, Note_on_c, 1, 55, 48
3, 109356, Note_on_c, 1, 55, 0
3, 109440, Note_on_c, 1, 55, 48
3, 109476, Note_on_c, 1, 55, 0
3, 109560, Note_on_c, 1, 55, 48
3, 109596, Note_on_c, 1, 55, 0
3, 109680, Note_on_c, 1, 41, 0
3, 109680, Note_on_c, 1, 41, 48
3, 109800, Note_on_c, 1, 56, 48
3, 109836, Note_on_c, 1, 56, 0
3, 109920, Note_on_c, 1, 56, 48
3, 109956, Note_on_c, 1, 56, 0
3, 110040, Note_on_c, 1, 56, 48
3, 110076, Note_on_c, 1, 56, 0
3, 110280, Note_on_c, 1, 55, 48
3, 110316, Note_on_c, 1, 55, 0
3, 110400, Note_on_c, 1, 55, 48
3, 110436, Note_on_c, 1, 55, 0
3, 110520, Note_on_c, 1, 55, 48
3, 110556, Note_on_c, 1, 55, 0
3, 110640, Note_on_c, 1, 41, 0
3, 110640, Note_on_c, 1, 41, 48
3, 110760, Note_on_c, 1, 56, 48
3, 110796, Note_on_c, 1, 56, 0
3, 110880, Note_on_c, 1, 56, 48
3, 110916, Note_on_c, 1, 56, 0
3, 111000, Note_on_c, 1, 56, 48
3, 111036, Note_on_c, 1, 56, 0
3, 111240, Note_on_c, 1, 55, 44
3, 111276, Note_on_c, 1, 55, 0
3, 111360, Note_on_c, 1, 55, 40
3, 111396, Note_on_c, 1, 55, 0
3, 111480, Note_on_c, 1, 55, 36
3, 111516, Note_on_c, 1, 55, 0
3, 111600, Note_on_c, 1, 41, 0
3, 111600, Note_on_c, 1, 56, 32
3, 111600, Note_on_c, 1, 41, 32
3, 111840, Note_on_c, 1, 41, 0
3, 111840, Note_on_c, 1, 56, 0
3, 112920, Note_on_c, 1, 34, 80
3, 112920, Note_on_c, 1, 46, 80
3, 112956, Note_on_c, 1, 46, 0
3, 112956, Note_on_c, 1, 34, 0
3, 113040, Note_on_c, 1, 34, 88
3, 113040, Note_on_c, 1, 46, 88
3, 113076, Note_on_c, 1, 46, 0
3, 113076, Note_on_c, 1, 34, 0
3, 113160, Note_on_c, 1, 34, 88
3, 113160, Note_on_c, 1, 46, 88
3, 113196, Note_on_c, 1, 46, 0
3, 113196, Note_on_c, 1, 34, 0
3, 113280, Note_on_c, 1, 34, 88
3, 113280, Note_on_c, 1, 46, 88
3, 113316, Note_on_c, 1, 46, 0
3, 113316, Note_on_c, 1, 34, 0
3, 113400, Note_on_c, 1, 34, 88
3, 113400, Note_on_c, 1, 46, 88
3, 113436, Note_on_c, 1, 46, 0
3, 113436, Note_on_c, 1, 34, 0
3, 113520, Note_on_c, 1, 46, 96
3, 113520, Note_on_c, 1, 34, 96
3, 113760, Note_on_c, 1, 34, 0
3, 113760, Note_on_c, 1, 46, 0
3, 113760, Note_on_c, 1, 53, 80
3, 113796, Note_on_c, 1, 53, 0
3, 113880, Note_on_c, 1, 44, 80
3, 113916, Note_on_c, 1, 44, 0
3, 114000, Note_on_c, 1, 43, 80
3, 114120, Note_on_c, 1, 43, 0
3, 114120, Note_on_c, 1, 46, 80
3, 114156, Note_on_c, 1, 46, 0
3, 114240, Note_on_c, 1, 51, 80
3, 114276, Note_on_c, 1, 51, 0
3, 114360, Note_on_c, 1, 43, 80
3, 114396, Note_on_c, 1, 43, 0
3, 114480, Note_on_c, 1, 44, 80
3, 114600, Note_on_c, 1, 44, 0
3, 114600, Note_on_c, 1, 50, 80
3, 114636, Note_on_c, 1, 50, 0
3, 114720, Note_on_c, 1, 53, 80
3, 114756, Note_on_c, 1, 53, 0
3, 114840, Note_on_c, 1, 44, 80
3, 114876, Note_on_c, 1, 44, 0
3, 114960, Note_on_c, 1, 43, 80
3, 115080, Note_on_c, 1, 43, 0
3, 115080, Note_on_c, 1, 46, 80
3, 115116, Note_on_c, 1, 46, 0
3, 115200, Note_on_c, 1, 51, 80
3, 115236, Note_on_c, 1, 51, 0
3, 115320, Note_on_c, 1, 43, 80
3, 115356, Note_on_c, 1, 43, 0
3, 115440, Note_on_c, 1, 44, 64
3, 115560, Note_on_c, 1, 44, 0
3, 115560, Note_on_c, 1, 50, 66
3, 115596, Note_on_c, 1, 50, 0
3, 115680, Note_on_c, 1, 53, 68
3, 115716, Note_on_c, 1, 53, 0
3, 115800, Note_on_c, 1, 44, 70
3, 115836, Note_on_c, 1, 44, 0
3, 115920, Note_on_c, 1, 43, 72
3, 116040, Note_on_c, 1, 43, 0
3, 116040, Note_on_c, 1, 46, 74
3, 116076, Note_on_c, 1, 46, 0
3, 116160, Note_on_c, 1, 51, 76
3, 116196, Note_on_c, 1, 51, 0
3, 116280, Note_on_c, 1, 55, 78
3, 116316, Note_on_c, 1, 55, 0
3, 116400, Note_on_c, 1, 44, 80
3, 116520, Note_on_c, 1, 44, 0
3, 116520, Note_on_c, 1, 48, 80
3, 116556, Note_on_c, 1, 48, 0
3, 116640, Note_on_c, 1, 53, 80
3, 116676, Note_on_c, 1, 53, 0
3, 116760, Note_on_c, 1, 56, 80
3, 116796, Note_on_c, 1, 56, 0
3, 116880, Note_on_c, 1, 58, 80
3, 116916, Note_on_c, 1, 58, 0
3, 117000, Note_on_c, 1, 58, 80
3, 117036, Note_on_c, 1, 58, 0
3, 117120, Note_on_c, 1, 58, 80
3, 117156, Note_on_c, 1, 58, 0
3, 117240, Note_on_c, 1, 58, 80
3, 117276, Note_on_c, 1, 58, 0
3, 117360, Note_on_c, 1, 46, 80
3, 117396, Note_on_c, 1, 46, 0
3, 117480, Note_on_c, 1, 46, 80
3, 117516, Note_on_c, 1, 46, 0
3, 117600, Note_on_c, 1, 46, 80
3, 117636, Note_on_c, 1, 46, 0
3, 117720, Note_on_c, 1, 46, 80
3, 117756, Note_on_c, 1, 46, 0
3, 117840, Note_on_c, 1, 51, 80
3, 117876, Note_on_c, 1, 51, 0
3, 117960, Note_on_c, 1, 55, 80
3, 117996, Note_on_c, 1, 55, 0
3, 118080, Note_on_c, 1, 51, 80
3, 118116, Note_on_c, 1, 51, 0
3, 118200, Note_on_c, 1, 55, 80
3, 118236, Note_on_c, 1, 55, 0
3, 118320, Note_on_c, 1, 51, 80
3, 118560, Note_on_c, 1, 51, 0
3, 119280, Note_on_c, 1, 63, 56
3, 119400, Note_on_c, 1, 67, 56
3, 119520, Note_on_c, 1, 67, 0
3, 119520, Note_on_c, 1, 72, 56
3, 119640, Note_on_c, 1, 72, 0
3, 119640, Note_on_c, 1, 67, 56
3, 119760, Note_on_c, 1, 67, 0
3, 119760, Note_on_c, 1, 63, 0
3, 119760, Note_on_c, 1, 62, 56
3, 119880, Note_on_c, 1, 67, 56
3, 120000, Note_on_c, 1, 67, 0
3, 120000, Note_on_c, 1, 71, 56
3, 120120, Note_on_c, 1, 71, 0
3, 120120, Note_on_c, 1, 67, 56
3, 120240, Note_on_c, 1, 67, 0
3, 120240, Note_on_c, 1, 62, 0
3, 120240, Note_on_c, 1, 60, 56
3, 120360, Note_on_c, 1, 63, 56
3, 120480, Note_on_c, 1, 63, 0
3, 120480, Note_on_c, 1, 67, 56
3, 120600, Note_on_c, 1, 67, 0
3, 120600, Note_on_c, 1, 63, 56
3, 120720, Note_on_c, 1, 63, 0
3, 120720, Note_on_c, 1, 60, 0
3, 120720, Note_on_c, 1, 58, 56
3, 120840, Note_on_c, 1, 61, 56
3, 120960, Note_on_c, 1, 61, 0
3, 120960, Note_on_c, 1, 67, 56
3, 121080, Note_on_c, 1, 67, 0
3, 121080, Note_on_c, 1, 61, 56
3, 121200, Note_on_c, 1, 61, 0
3, 121200, Note_on_c, 1, 58, 0
3, 121200, Note_on_c, 1, 56, 56
3, 121320, Note_on_c, 1, 60, 56
3, 121440, Note_on_c, 1, 60, 0
3, 121440, Note_on_c, 1, 63, 56
3, 121560, Note_on_c, 1, 63, 0
3, 121560, Note_on_c, 1, 60, 56
3, 121680, Note_on_c, 1, 60, 0
3, 121680, Note_on_c, 1, 56, 0
3, 121680, Note_on_c, 1, 55, 56
3, 121800, Note_on_c, 1, 58, 56
3, 121920, Note_on_c, 1, 58, 0
3, 121920, Note_on_c, 1, 63, 56
3, 122040, Note_on_c, 1, 63, 0
3, 122040, Note_on_c, 1, 58, 56
3, 122160, Note_on_c, 1, 58, 0
3, 122160, Note_on_c, 1, 55, 0
3, 122160, Note_on_c, 1, 56, 64
3, 122196, Note_on_c, 1, 56, 0
3, 122280, Note_on_c, 1, 63, 64
3, 122400, Note_on_c, 1, 63, 0
3, 122400, Note_on_c, 1, 55, 64
3, 122520, Note_on_c, 1, 55, 0
3, 122520, Note_on_c, 1, 64, 64
3, 122640, Note_on_c, 1, 64, 0
3, 122640, Note_on_c, 1, 53, 64
3, 122760, Note_on_c, 1, 53, 0
3, 122760, Note_on_c, 1, 65, 63
3, 122880, Note_on_c, 1, 65, 0
3, 122880, Note_on_c, 1, 55, 62
3, 123000, Note_on_c, 1, 55, 0
3, 123000, Note_on_c, 1, 58, 61
3, 123120, Note_on_c, 1, 58, 0
3, 123120, Note_on_c, 1, 56, 60
3, 123240, Note_on_c, 1, 56, 0
3, 123240, Note_on_c, 1, 60, 59
3, 123360, Note_on_c, 1, 60, 0
3, 123360, Note_on_c, 1, 56, 58
3, 123480, Note_on_c, 1, 56, 0
3, 123480, Note_on_c, 1, 65, 57
3, 123600, Note_on_c, 1, 65, 0
3, 123600, Note_on_c, 1, 58, 56
3, 123720, Note_on_c, 1, 58, 0
3, 123720, Note_on_c, 1, 65, 55
3, 123840, Note_on_c, 1, 65, 0
3, 123840, Note_on_c, 1, 60, 54
3, 123960, Note_on_c, 1, 60, 0
3, 123960, Note_on_c, 1, 63, 53
3, 124080, Note_on_c, 1, 63, 0
3, 124080, Note_on_c, 1, 62, 52
3, 124200, Note_on_c, 1, 62, 0
3, 124200, Note_on_c, 1, 65, 51
3, 124320, Note_on_c, 1, 65, 0
3, 124320, Note_on_c, 1, 63, 50
3, 124440, Note_on_c, 1, 63, 0
3, 124440, Note_on_c, 1, 66, 49
3, 124560, Note_on_c, 1, 66, 0
3, 124560, Note_on_c, 1, 62, 48
3, 124680, Note_on_c, 1, 62, 0
3, 124680, Note_on_c, 1, 65, 47
3, 124800, Note_on_c, 1, 65, 0
3, 124800, Note_on_c, 1, 63, 46
3, 124920, Note_on_c, 1, 63, 0
3, 124920, Note_on_c, 1, 66, 45
3, 125040, Note_on_c, 1, 66, 0
3, 125040, Note_on_c, 1, 62, 44
3, 125160, Note_on_c, 1, 62, 0
3, 125160, Note_on_c, 1, 65, 43
3, 125280, Note_on_c, 1, 65, 0
3, 125280, Note_on_c, 1, 63, 42
3, 125400, Note_on_c, 1, 63, 0
3, 125400, Note_on_c, 1, 66, 41
3, 125520, Note_on_c, 1, 66, 0
3, 125520, Note_on_c, 1, 65, 40
3, 125520, Note_on_c, 1, 62, 40
3, 125760, Note_on_c, 1, 62, 0
3, 125760, Note_on_c, 1, 65, 0
3, 126840, Note_on_c, 1, 70, 88
3, 126960, Note_on_c, 1, 70, 0
3, 126960, Note_on_c, 1, 71, 56
3, 127080, Note_on_c, 1, 71, 0
3, 127080, Note_on_c, 1, 72, 56
3, 127200, Note_on_c, 1, 72, 0
3, 127200, Note_on_c, 1, 73, 56
3, 127320, Note_on_c, 1, 73, 0
3, 127320, Note_on_c, 1, 74, 56
3, 127440, Note_on_c, 1, 74, 0
3, 127440, Note_on_c, 1, 75, 56
3, 127800, Note_on_c, 1, 75, 0
3, 127800, Note_on_c, 1, 63, 88
3, 127800, Note_on_c, 1, 58, 88
3, 127800, Note_on_c, 1, 55, 88
3, 127800, Note_on_c, 1, 51, 88
3, 127836, Note_on_c, 1, 51, 0
3, 127836, Note_on_c, 1, 63, 0
3, 127836, Note_on_c, 1, 58, 0
3, 127836, Note_on_c, 1, 55, 0
3, 127920, Note_on_c, 1, 63, 88
3, 127920, Note_on_c, 1, 58, 88
3, 127920, Note_on_c, 1, 55, 88
3, 127920, Note_on_c, 1, 51, 88
3, 127956, Note_on_c, 1, 51, 0
3, 127956, Note_on_c, 1, 63, 0
3, 127956, Note_on_c, 1, 58, 0
3, 127956, Note_on_c, 1, 55, 0
3, 128040, Note_on_c, 1, 63, 88
3, 128040, Note_on_c, 1, 58, 88
3, 128040, Note_on_c, 1, 55, 88
3, 128040, Note_on_c, 1, 51, 88
3, 128076, Note_on_c, 1, 51, 0
3, 128076, Note_on_c, 1, 63, 0
3, 128076, Note_on_c, 1, 58, 0
3, 128076, Note_on_c, 1, 55, 0
3, 128160, Note_on_c, 1, 63, 88
3, 128160, Note_on_c, 1, 58, 88
3, 128160, Note_on_c, 1, 55, 88
3, 128160, Note_on_c, 1, 51, 88
3, 128196, Note_on_c, 1, 51, 0
3, 128196, Note_on_c, 1, 63, 0
3, 128196, Note_on_c, 1, 58, 0
3, 128196, Note_on_c, 1, 55, 0
3, 128280, Note_on_c, 1, 63, 88
3, 128280, Note_on_c, 1, 58, 88
3, 128280, Note_on_c, 1, 55, 88
3, 128280, Note_on_c, 1, 51, 88
3, 128316, Note_on_c, 1, 51, 0
3, 128316, Note_on_c, 1, 63, 0
3, 128316, Note_on_c, 1, 58, 0
3, 128316, Note_on_c, 1, 55, 0
3, 128400, Note_on_c, 1, 62, 88
3, 128400, Note_on_c, 1, 58, 88
3, 128400, Note_on_c, 1, 56, 88
3, 128400, Note_on_c, 1, 53, 88
3, 128640, Note_on_c, 1, 53, 0
3, 128640, Note_on_c, 1, 62, 0
3, 128640, Note_on_c, 1, 58, 0
3, 128640, Note_on_c, 1, 56, 0
3, 128640, Note_on_c, 1, 55, 72
3, 128640, Note_on_c, 1, 58, 72
3, 128640, Note_on_c, 1, 63, 72
3, 128676, Note_on_c, 1, 63, 0
3, 128676, Note_on_c, 1, 58, 0
3, 128676, Note_on_c, 1, 55, 0
3, 128880, Note_on_c, 1, 65, 80
3, 128880, Note_on_c, 1, 58, 80
3, 129120, Note_on_c, 1, 58, 0
3, 129120, Note_on_c, 1, 65, 0
3, 129120, Note_on_c, 1, 70, 64
3, 129120, Note_on_c, 1, 63, 64
3, 129156, Note_on_c, 1, 63, 0
3, 129156, Note_on_c, 1, 70, 0
3, 129360, Note_on_c, 1, 65, 72
3, 129360, Note_on_c, 1, 58, 72
3, 129600, Note_on_c, 1, 58, 0
3, 129600, Note_on_c, 1, 65, 0
3, 129600, Note_on_c, 1, 67, 88
3, 129600, Note_on_c, 1, 63, 88
3, 129636, Note_on_c, 1, 63, 0
3, 129636, Note_on_c, 1, 67, 0
3, 129720, Note_on_c, 1, 61, 88
3, 129720, Note_on_c, 1, 70, 88
3, 129756, Note_on_c, 1, 70, 0
3, 129756, Note_on_c, 1, 61, 0
3, 129840, Note_on_c, 1, 61, 88
3, 129840, Note_on_c, 1, 70, 88
3, 130320, Note_on_c, 1, 70, 0
3, 130320, Note_on_c, 1, 68, 56
3, 130560, Note_on_c, 1, 61, 0
3, 130560, Note_on_c, 1, 60, 56
3, 130800, Note_on_c, 1, 60, 0
3, 130800, Note_on_c, 1, 68, 0
3, 130800, Note_on_c, 1, 68, 56
3, 130800, Note_on_c, 1, 58, 56
3, 131280, Note_on_c, 1, 58, 0
3, 131280, Note_on_c, 1, 68, 0
3, 131280, Note_on_c, 1, 60, 56
3, 131280, Note_on_c, 1, 67, 56
3, 132000, Note_on_c, 1, 67, 0
3, 132000, Note_on_c, 1, 60, 0
3, 132000, Note_on_c, 1, 79, 48
3, 132240, Note_on_c, 1, 79, 0
3, 132240, Note_on_c, 1, 79, 48
3, 132720, Note_on_c, 1, 79, 0
3, 132720, Note_on_c, 1, 80, 48
3, 132960, Note_on_c, 1, 80, 0
3, 132960, Note_on_c, 1, 56, 80
3, 132960, Note_on_c, 1, 68, 80
3, 133200, Note_on_c, 1, 68, 0
3, 133200, Note_on_c, 1, 56, 0
3, 133200, Note_on_c, 1, 56, 80
3, 133200, Note_on_c, 1, 68, 80
3, 135120, Note_on_c, 1, 68, 0
3, 135120, Note_on_c, 1, 56, 0
3, 135120, Note_on_c, 1, 58, 80
3, 135120, Note_on_c, 1, 70, 80
3, 136080, Note_on_c, 1, 70, 0
3, 136080, Note_on_c, 1, 58, 0
3, 136440, Note_on_c, 1, 51, 80
3, 136500, Note_on_c, 1, 51, 0
3, 136500, Note_on_c, 1, 63, 80
3, 136560, Note_on_c, 1, 63, 0
3, 136920, Note_on_c, 1, 62, 80
3, 136980, Note_on_c, 1, 62, 0
3, 136980, Note_on_c, 1, 65, 80
3, 137040, Note_on_c, 1, 65, 0
3, 137400, Note_on_c, 1, 51, 80
3, 137460, Note_on_c, 1, 51, 0
3, 137460, Note_on_c, 1, 63, 80
3, 137520, Note_on_c, 1, 63, 0
3, 137880, Note_on_c, 1, 62, 80
3, 137940, Note_on_c, 1, 62, 0
3, 137940, Note_on_c, 1, 65, 80
3, 138000, Note_on_c, 1, 65, 0
3, 142200, Note_on_c, 1, 65, 86
3, 142260, Note_on_c, 1, 65, 0
3, 142260, Note_on_c, 1, 53, 86
3, 142416, Note_on_c, 1, 53, 0
3, 142440, Note_on_c, 1, 62, 90
3, 142488, Note_on_c, 1, 62, 0
3, 142500, Note_on_c, 1, 50, 91
3, 142656, Note_on_c, 1, 50, 0
3, 142680, Note_on_c, 1, 58, 94
3, 142728, Note_on_c, 1, 58, 0
3, 142740, Note_on_c, 1, 46, 95
3, 142788, Note_on_c, 1, 46, 0
3, 142800, Note_on_c, 1, 34, 96
3, 142800, Note_on_c, 1, 46, 96
3, 143160, Note_on_c, 1, 46, 0
3, 143160, Note_on_c, 1, 34, 0
3, 143160, Note_on_c, 1, 56, 56
3, 143196, Note_on_c, 1, 56, 0
3, 143280, Note_on_c, 1, 56, 56
3, 143316, Note_on_c, 1, 56, 0
3, 143400, Note_on_c, 1, 56, 56
3, 143436, Note_on_c, 1, 56, 0
3, 143520, Note_on_c, 1, 56, 56
3, 143556, Note_on_c, 1, 56, 0
3, 143640, Note_on_c, 1, 56, 88
3, 143676, Note_on_c, 1, 56, 0
3, 143760, Note_on_c, 1, 56, 56
3, 143796, Note_on_c, 1, 56, 0
3, 143880, Note_on_c, 1, 56, 56
3, 143916, Note_on_c, 1, 56, 0
3, 144000, Note_on_c, 1, 56, 56
3, 144036, Note_on_c, 1, 56, 0
3, 144120, Note_on_c, 1, 56, 88
3, 144156, Note_on_c, 1, 56, 0
3, 144240, Note_on_c, 1, 56, 56
3, 144276, Note_on_c, 1, 56, 0
3, 144360, Note_on_c, 1, 56, 56
3, 144396, Note_on_c, 1, 56, 0
3, 144480, Note_on_c, 1, 56, 56
3, 144516, Note_on_c, 1, 56, 0
3, 144600, Note_on_c, 1, 56, 88
3, 144636, Note_on_c, 1, 56, 0
3, 144720, Note_on_c, 1, 56, 56
3, 144756, Note_on_c, 1, 56, 0
3, 144840, Note_on_c, 1, 56, 56
3, 144876, Note_on_c, 1, 56, 0
3, 144960, Note_on_c, 1, 56, 56
3, 144996, Note_on_c, 1, 56, 0
3, 145080, Note_on_c, 1, 56, 88
3, 145116, Note_on_c, 1, 56, 0
3, 145200, Note_on_c, 1, 56, 56
3, 145236, Note_on_c, 1, 56, 0
3, 145320, Note_on_c, 1, 56, 56
3, 145356, Note_on_c, 1, 56, 0
3, 145440, Note_on_c, 1, 56, 56
3, 145476, Note_on_c, 1, 56, 0
3, 145560, Note_on_c, 1, 56, 88
3, 145596, Note_on_c, 1, 56, 0
3, 145680, Note_on_c, 1, 55, 56
3, 145716, Note_on_c, 1, 55, 0
3, 145920, Note_on_c, 1, 56, 56
3, 145956, Note_on_c, 1, 56, 0
3, 146160, Note_on_c, 1, 58, 56
3, 146196, Note_on_c, 1, 58, 0
3, 146400, Note_on_c, 1, 46, 56
3, 146436, Note_on_c, 1, 46, 0
3, 146640, Note_on_c, 1, 51, 56
3, 146880, Note_on_c, 1, 51, 0
3, 147480, Note_on_c, 1, 53, 88
3, 147516, Note_on_c, 1, 53, 0
3, 147600, Note_on_c, 1, 46, 56
3, 147720, Note_on_c, 1, 46, 0
3, 147720, Note_on_c, 1, 47, 56
3, 147840, Note_on_c, 1, 47, 0
3, 147840, Note_on_c, 1, 46, 56
3, 147876, Note_on_c, 1, 46, 0
3, 147960, Note_on_c, 1, 56, 88
3, 147996, Note_on_c, 1, 56, 0
3, 148080, Note_on_c, 1, 50, 56
3, 148200, Note_on_c, 1, 50, 0
3, 148200, Note_on_c, 1, 51, 56
3, 148320, Note_on_c, 1, 51, 0
3, 148320, Note_on_c, 1, 50, 56
3, 148356, Note_on_c, 1, 50, 0
3, 148440, Note_on_c, 1, 59, 88
3, 148476, Note_on_c, 1, 59, 0
3, 148560, Note_on_c, 1, 53, 56
3, 148680, Note_on_c, 1, 53, 0
3, 148680, Note_on_c, 1, 54, 56
3, 148800, Note_on_c, 1, 54, 0
3, 148800, Note_on_c, 1, 53, 56
3, 148836, Note_on_c, 1, 53, 0
3, 148920, Note_on_c, 1, 62, 88
3, 148956, Note_on_c, 1, 62, 0
3, 149040, Note_on_c, 1, 58, 56
3, 149160, Note_on_c, 1, 58, 0
3, 149160, Note_on_c, 1, 59, 56
3, 149280, Note_on_c, 1, 59, 0
3, 149280, Note_on_c, 1, 58, 56
3, 149316, Note_on_c, 1, 58, 0
3, 149400, Note_on_c, 1, 62, 88
3, 149436, Note_on_c, 1, 62, 0
3, 149520, Note_on_c, 1, 63, 80
3, 149640, Note_on_c, 1, 63, 0
3, 149640, Note_on_c, 1, 51, 80
3, 149760, Note_on_c, 1, 51, 0
3, 149760, Note_on_c, 1, 63, 80
3, 149880, Note_on_c, 1, 63, 0
3, 149880, Note_on_c, 1, 51, 80
3, 150000, Note_on_c, 1, 51, 0
3, 150000, Note_on_c, 1, 63, 80
3, 150120, Note_on_c, 1, 63, 0
3, 150120, Note_on_c, 1, 51, 80
3, 150240, Note_on_c, 1, 51, 0
3, 150240, Note_on_c, 1, 63, 80
3, 150360, Note_on_c, 1, 63, 0
3, 150360, Note_on_c, 1, 51, 80
3, 150480, Note_on_c, 1, 51, 0
3, 150480, Note_on_c, 1, 63, 80
3, 150600, Note_on_c, 1, 63, 0
3, 150600, Note_on_c, 1, 51, 80
3, 150720, Note_on_c, 1, 51, 0
3, 150720, Note_on_c, 1, 63, 80
3, 150840, Note_on_c, 1, 63, 0
3, 150840, Note_on_c, 1, 51, 80
3, 150960, Note_on_c, 1, 51, 0
3, 150960, Note_on_c, 1, 63, 80
3, 151080, Note_on_c, 1, 63, 0
3, 151080, Note_on_c, 1, 51, 80
3, 151200, Note_on_c, 1, 51, 0
3, 151200, Note_on_c, 1, 63, 80
3, 151320, Note_on_c, 1, 63, 0
3, 151320, Note_on_c, 1, 51, 80
3, 151440, Note_on_c, 1, 51, 0
3, 151440, Note_on_c, 1, 63, 80
3, 151440, Note_on_c, 1, 56, 80
3, 151560, Note_on_c, 1, 56, 0
3, 151560, Note_on_c, 1, 63, 0
3, 151920, Note_on_c, 1, 46, 80
3, 151920, Note_on_c, 1, 58, 80
3, 152160, Note_on_c, 1, 58, 0
3, 152160, Note_on_c, 1, 46, 0
3, 152400, Note_on_c, 1, 63, 80
3, 152460, Note_on_c, 1, 63, 0
3, 152460, Note_on_c, 1, 62, 80
3, 152520, Note_on_c, 1, 62, 0
3, 152520, Note_on_c, 1, 63, 80
3, 152580, Note_on_c, 1, 63, 0
3, 152580, Note_on_c, 1, 62, 80
3, 152640, Note_on_c, 1, 62, 0
3, 152640, Note_on_c, 1, 63, 80
3, 152700, Note_on_c, 1, 63, 0
3, 152700, Note_on_c, 1, 62, 80
3, 152760, Note_on_c, 1, 62, 0
3, 152760, Note_on_c, 1, 63, 80
3, 152820, Note_on_c, 1, 63, 0
3, 152820, Note_on_c, 1, 62, 80
3, 152880, Note_on_c, 1, 62, 0
3, 152880, Note_on_c, 1, 63, 80
3, 152940, Note_on_c, 1, 63, 0
3, 152940, Note_on_c, 1, 62, 80
3, 153000, Note_on_c, 1, 62, 0
3, 153000, Note_on_c, 1, 63, 80
3, 153060, Note_on_c, 1, 63, 0
3, 153060, Note_on_c, 1, 62, 80
3, 153120, Note_on_c, 1, 62, 0
3, 153120, Note_on_c, 1, 63, 80
3, 153180, Note_on_c, 1, 63, 0
3, 153180, Note_on_c, 1, 62, 80
3, 153240, Note_on_c, 1, 62, 0
3, 153240, Note_on_c, 1, 63, 80
3, 153300, Note_on_c, 1, 63, 0
3, 153300, Note_on_c, 1, 62, 80
3, 153360, Note_on_c, 1, 62, 0
3, 153360, Note_on_c, 1, 63, 80
3, 153600, Note_on_c, 1, 63, 0
3, 153720, Note_on_c, 1, 56, 80
3, 153720, Note_on_c, 1, 60, 80
3, 153840, Note_on_c, 1, 60, 0
3, 153840, Note_on_c, 1, 56, 0
3, 153840, Note_on_c, 1, 55, 80
3, 153840, Note_on_c, 1, 58, 80
3, 153960, Note_on_c, 1, 58, 0
3, 153960, Note_on_c, 1, 55, 0
3, 153960, Note_on_c, 1, 56, 80
3, 153960, Note_on_c, 1, 60, 80
3, 153996, Note_on_c, 1, 60, 0
3, 153996, Note_on_c, 1, 56, 0
3, 154080, Note_on_c, 1, 55, 80
3, 154080, Note_on_c, 1, 58, 80
3, 154116, Note_on_c, 1, 58, 0
3, 154116, Note_on_c, 1, 55, 0
3, 154200, Note_on_c, 1, 53, 80
3, 154200, Note_on_c, 1, 56, 80
3, 154236, Note_on_c, 1, 56, 0
3, 154236, Note_on_c, 1, 53, 0
3, 154320, Note_on_c, 1, 55, 80
3, 154320, Note_on_c, 1, 51, 80
3, 154440, Note_on_c, 1, 51, 0
3, 154440, Note_on_c, 1, 55, 0
3, 154800, Note_on_c, 1, 51, 96
3, 154800, Note_on_c, 1, 46, 96
3, 154800, Note_on_c, 1, 43, 96
3, 154800, Note_on_c, 1, 39, 96
3, 155040, Note_on_c, 1, 39, 0
3, 155040, Note_on_c, 1, 51, 0
3, 155040, Note_on_c, 1, 46, 0
3, 155040, Note_on_c, 1, 43, 0
3, 155280, Note_on_c, 1, 51, 96
3, 155280, Note_on_c, 1, 46, 96
3, 155280, Note_on_c, 1, 43, 96
3, 155280, Note_on_c, 1, 39, 96
3, 155520, Note_on_c, 1, 39, 0
3, 155520, Note_on_c, 1, 51, 0
3, 155520, Note_on_c, 1, 46, 0
3, 155520, Note_on_c, 1, 43, 0
3, 155520, End_track
4, 0, Start_track
4, 0, MIDI_port, 0
4, 0, Title_t, "MIDI by Marty Weimer 2/4/96"
4, 0, End_track
5, 0, Start_track
5, 0, MIDI_port, 0
5, 0, Title_t, "weimermt@libby.org  Eureka, MT USA"
5, 0, End_track
0, 0, End_of_file
