0, 0, Header, 1, 5, 240
1, 0, Start_track
1, 0, Time_signature, 4, 2, 24, 8
1, 0, Key_signature, 0, "major"
1, 0, Tempo, 582524
1, 0, End_track
2, 0, Start_track
2, 0, MIDI_port, 0
2, 0, Title_t, "Piano Sonata No.32 in b"
2, 0, Program_c, 0, 0
2, 0, Control_c, 0, 7, 127
2, 0, Control_c, 0, 10, 72
2, 900, Note_on_c, 0, 59, 80
2, 924, Note_on_c, 0, 59, 0
2, 930, Note_on_c, 0, 58, 80
2, 954, Note_on_c, 0, 58, 0
2, 960, Note_on_c, 0, 59, 80
2, 1344, Note_on_c, 0, 59, 0
2, 1380, Note_on_c, 0, 66, 80
2, 1404, Note_on_c, 0, 66, 0
2, 1410, Note_on_c, 0, 65, 80
2, 1434, Note_on_c, 0, 65, 0
2, 1440, Note_on_c, 0, 66, 80
2, 1824, Note_on_c, 0, 66, 0
2, 1920, Note_on_c, 0, 71, 85
2, 2278, Note_on_c, 0, 71, 0
2, 2280, Note_on_c, 0, 73, 85
2, 2368, Note_on_c, 0, 73, 0
2, 2370, Note_on_c, 0, 74, 85
2, 2398, Note_on_c, 0, 74, 0
2, 2400, Note_on_c, 0, 71, 85
2, 2518, Note_on_c, 0, 71, 0
2, 2520, Note_on_c, 0, 78, 67
2, 2604, Note_on_c, 0, 78, 0
2, 2640, Note_on_c, 0, 78, 72
2, 2724, Note_on_c, 0, 78, 0
2, 2760, Note_on_c, 0, 78, 78
2, 2844, Note_on_c, 0, 78, 0
2, 2880, Note_on_c, 0, 78, 88
2, 3072, Note_on_c, 0, 78, 0
2, 3120, Note_on_c, 0, 79, 80
2, 3144, Note_on_c, 0, 79, 0
2, 3150, Note_on_c, 0, 78, 80
2, 3174, Note_on_c, 0, 78, 0
2, 3180, Note_on_c, 0, 76, 80
2, 3204, Note_on_c, 0, 76, 0
2, 3210, Note_on_c, 0, 78, 80
2, 3234, Note_on_c, 0, 78, 0
2, 3240, Note_on_c, 0, 79, 80
2, 3312, Note_on_c, 0, 79, 0
2, 3330, Note_on_c, 0, 76, 80
2, 3354, Note_on_c, 0, 76, 0
2, 3360, Note_on_c, 0, 76, 80
2, 3600, Note_on_c, 0, 76, 0
2, 3600, Note_on_c, 0, 74, 80
2, 3624, Note_on_c, 0, 74, 0
2, 3630, Note_on_c, 0, 76, 80
2, 3654, Note_on_c, 0, 76, 0
2, 3660, Note_on_c, 0, 74, 80
2, 3684, Note_on_c, 0, 74, 0
2, 3690, Note_on_c, 0, 73, 80
2, 3714, Note_on_c, 0, 73, 0
2, 3720, Note_on_c, 0, 78, 80
2, 3792, Note_on_c, 0, 78, 0
2, 3810, Note_on_c, 0, 71, 80
2, 3834, Note_on_c, 0, 71, 0
2, 3840, Note_on_c, 0, 73, 80
2, 3864, Note_on_c, 0, 73, 0
2, 3870, Note_on_c, 0, 74, 80
2, 3894, Note_on_c, 0, 74, 0
2, 3900, Note_on_c, 0, 73, 80
2, 3916, Note_on_c, 0, 73, 0
2, 3920, Note_on_c, 0, 74, 80
2, 3936, Note_on_c, 0, 74, 0
2, 3940, Note_on_c, 0, 73, 80
2, 3956, Note_on_c, 0, 73, 0
2, 3960, Note_on_c, 0, 71, 80
2, 4056, Note_on_c, 0, 71, 0
2, 4080, Note_on_c, 0, 74, 80
2, 4128, Note_on_c, 0, 74, 0
2, 4140, Note_on_c, 0, 73, 80
2, 4188, Note_on_c, 0, 73, 0
2, 4200, Note_on_c, 0, 71, 80
2, 4248, Note_on_c, 0, 71, 0
2, 4260, Note_on_c, 0, 70, 80
2, 4308, Note_on_c, 0, 70, 0
2, 4320, Note_on_c, 0, 71, 80
2, 4512, Note_on_c, 0, 71, 0
2, 4680, Note_on_c, 0, 83, 80
2, 4728, Note_on_c, 0, 83, 0
2, 4740, Note_on_c, 0, 79, 80
2, 4788, Note_on_c, 0, 79, 0
2, 4800, Note_on_c, 0, 78, 85
2, 4858, Note_on_c, 0, 78, 0
2, 4860, Note_on_c, 0, 76, 85
2, 4918, Note_on_c, 0, 76, 0
2, 4920, Note_on_c, 0, 75, 85
2, 4978, Note_on_c, 0, 75, 0
2, 4980, Note_on_c, 0, 76, 85
2, 5038, Note_on_c, 0, 76, 0
2, 5040, Note_on_c, 0, 78, 85
2, 5098, Note_on_c, 0, 78, 0
2, 5100, Note_on_c, 0, 76, 85
2, 5158, Note_on_c, 0, 76, 0
2, 5160, Note_on_c, 0, 79, 85
2, 5218, Note_on_c, 0, 79, 0
2, 5220, Note_on_c, 0, 76, 85
2, 5278, Note_on_c, 0, 76, 0
2, 5280, Note_on_c, 0, 70, 85
2, 5518, Note_on_c, 0, 70, 0
2, 5520, Note_on_c, 0, 71, 85
2, 5580, Note_on_c, 0, 71, 0
2, 5640, Note_on_c, 0, 83, 48
2, 5698, Note_on_c, 0, 83, 0
2, 5700, Note_on_c, 0, 79, 48
2, 5758, Note_on_c, 0, 79, 0
2, 5760, Note_on_c, 0, 78, 48
2, 5818, Note_on_c, 0, 78, 0
2, 5820, Note_on_c, 0, 76, 48
2, 5878, Note_on_c, 0, 76, 0
2, 5880, Note_on_c, 0, 75, 48
2, 5938, Note_on_c, 0, 75, 0
2, 5940, Note_on_c, 0, 76, 48
2, 5998, Note_on_c, 0, 76, 0
2, 6000, Note_on_c, 0, 78, 48
2, 6058, Note_on_c, 0, 78, 0
2, 6060, Note_on_c, 0, 76, 48
2, 6118, Note_on_c, 0, 76, 0
2, 6120, Note_on_c, 0, 79, 48
2, 6178, Note_on_c, 0, 79, 0
2, 6180, Note_on_c, 0, 76, 48
2, 6238, Note_on_c, 0, 76, 0
2, 6240, Note_on_c, 0, 70, 48
2, 6478, Note_on_c, 0, 70, 0
2, 6480, Note_on_c, 0, 71, 48
2, 6540, Note_on_c, 0, 71, 0
2, 6600, Note_on_c, 0, 83, 85
2, 6658, Note_on_c, 0, 83, 0
2, 6660, Note_on_c, 0, 79, 85
2, 6718, Note_on_c, 0, 79, 0
2, 6720, Note_on_c, 0, 78, 85
2, 6778, Note_on_c, 0, 78, 0
2, 6780, Note_on_c, 0, 76, 85
2, 6838, Note_on_c, 0, 76, 0
2, 6840, Note_on_c, 0, 75, 85
2, 6898, Note_on_c, 0, 75, 0
2, 6900, Note_on_c, 0, 76, 85
2, 6958, Note_on_c, 0, 76, 0
2, 6960, Note_on_c, 0, 78, 85
2, 7018, Note_on_c, 0, 78, 0
2, 7020, Note_on_c, 0, 76, 85
2, 7078, Note_on_c, 0, 76, 0
2, 7080, Note_on_c, 0, 79, 85
2, 7138, Note_on_c, 0, 79, 0
2, 7140, Note_on_c, 0, 76, 85
2, 7198, Note_on_c, 0, 76, 0
2, 7200, Note_on_c, 0, 73, 88
2, 7200, Note_on_c, 0, 82, 88
2, 7438, Note_on_c, 0, 82, 0
2, 7438, Note_on_c, 0, 73, 0
2, 7440, Note_on_c, 0, 74, 85
2, 7440, Note_on_c, 0, 83, 85
2, 7500, Note_on_c, 0, 83, 0
2, 7500, Note_on_c, 0, 74, 0
2, 7560, Note_on_c, 0, 76, 80
2, 7560, Note_on_c, 0, 79, 80
2, 7584, Note_on_c, 0, 79, 0
2, 7584, Note_on_c, 0, 76, 0
2, 7590, Note_on_c, 0, 74, 80
2, 7590, Note_on_c, 0, 78, 80
2, 7614, Note_on_c, 0, 78, 0
2, 7614, Note_on_c, 0, 74, 0
2, 7620, Note_on_c, 0, 76, 80
2, 7620, Note_on_c, 0, 73, 80
2, 7644, Note_on_c, 0, 73, 0
2, 7644, Note_on_c, 0, 76, 0
2, 7650, Note_on_c, 0, 76, 80
2, 7650, Note_on_c, 0, 79, 80
2, 7674, Note_on_c, 0, 79, 0
2, 7674, Note_on_c, 0, 76, 0
2, 7680, Note_on_c, 0, 74, 80
2, 7680, Note_on_c, 0, 78, 80
2, 7728, Note_on_c, 0, 78, 0
2, 7728, Note_on_c, 0, 74, 0
2, 7800, Note_on_c, 0, 73, 80
2, 7800, Note_on_c, 0, 76, 80
2, 7872, Note_on_c, 0, 76, 0
2, 7872, Note_on_c, 0, 73, 0
2, 7920, Note_on_c, 0, 71, 80
2, 7920, Note_on_c, 0, 74, 80
2, 7952, Note_on_c, 0, 74, 0
2, 7952, Note_on_c, 0, 71, 0
2, 7960, Note_on_c, 0, 73, 80
2, 7960, Note_on_c, 0, 76, 80
2, 7992, Note_on_c, 0, 76, 0
2, 7992, Note_on_c, 0, 73, 0
2, 8000, Note_on_c, 0, 71, 80
2, 8000, Note_on_c, 0, 74, 80
2, 8032, Note_on_c, 0, 74, 0
2, 8032, Note_on_c, 0, 71, 0
2, 8040, Note_on_c, 0, 70, 80
2, 8040, Note_on_c, 0, 73, 80
2, 8136, Note_on_c, 0, 73, 0
2, 8136, Note_on_c, 0, 70, 0
2, 8160, Note_on_c, 0, 71, 80
2, 8352, Note_on_c, 0, 71, 0
2, 8580, Note_on_c, 0, 59, 80
2, 8604, Note_on_c, 0, 59, 0
2, 8610, Note_on_c, 0, 58, 80
2, 8634, Note_on_c, 0, 58, 0
2, 8640, Note_on_c, 0, 59, 80
2, 9024, Note_on_c, 0, 59, 0
2, 9060, Note_on_c, 0, 66, 80
2, 9084, Note_on_c, 0, 66, 0
2, 9090, Note_on_c, 0, 65, 80
2, 9114, Note_on_c, 0, 65, 0
2, 9120, Note_on_c, 0, 66, 80
2, 9504, Note_on_c, 0, 66, 0
2, 9600, Note_on_c, 0, 71, 85
2, 9958, Note_on_c, 0, 71, 0
2, 9960, Note_on_c, 0, 73, 85
2, 10048, Note_on_c, 0, 73, 0
2, 10050, Note_on_c, 0, 74, 85
2, 10078, Note_on_c, 0, 74, 0
2, 10080, Note_on_c, 0, 71, 85
2, 10198, Note_on_c, 0, 71, 0
2, 10200, Note_on_c, 0, 73, 85
2, 10288, Note_on_c, 0, 73, 0
2, 10290, Note_on_c, 0, 74, 85
2, 10318, Note_on_c, 0, 74, 0
2, 10320, Note_on_c, 0, 71, 85
2, 10438, Note_on_c, 0, 71, 0
2, 10440, Note_on_c, 0, 73, 85
2, 10528, Note_on_c, 0, 73, 0
2, 10530, Note_on_c, 0, 74, 85
2, 10558, Note_on_c, 0, 74, 0
2, 10560, Note_on_c, 0, 71, 85
2, 10918, Note_on_c, 0, 71, 0
2, 10920, Note_on_c, 0, 73, 85
2, 11008, Note_on_c, 0, 73, 0
2, 11010, Note_on_c, 0, 74, 85
2, 11038, Note_on_c, 0, 74, 0
2, 11040, Note_on_c, 0, 69, 85
2, 11368, Note_on_c, 0, 69, 0
2, 11370, Note_on_c, 0, 74, 85
2, 11398, Note_on_c, 0, 74, 0
2, 11400, Note_on_c, 0, 78, 85
2, 11488, Note_on_c, 0, 78, 0
2, 11490, Note_on_c, 0, 81, 85
2, 11518, Note_on_c, 0, 81, 0
2, 11520, Note_on_c, 0, 79, 85
2, 11608, Note_on_c, 0, 79, 0
2, 11610, Note_on_c, 0, 85, 85
2, 11638, Note_on_c, 0, 85, 0
2, 11640, Note_on_c, 0, 76, 85
2, 11728, Note_on_c, 0, 76, 0
2, 11730, Note_on_c, 0, 79, 85
2, 11758, Note_on_c, 0, 79, 0
2, 11760, Note_on_c, 0, 78, 85
2, 11848, Note_on_c, 0, 78, 0
2, 11850, Note_on_c, 0, 74, 85
2, 11878, Note_on_c, 0, 74, 0
2, 11880, Note_on_c, 0, 86, 85
2, 11968, Note_on_c, 0, 86, 0
2, 11970, Note_on_c, 0, 78, 85
2, 11998, Note_on_c, 0, 78, 0
2, 12000, Note_on_c, 0, 78, 80
2, 12024, Note_on_c, 0, 78, 0
2, 12030, Note_on_c, 0, 79, 80
2, 12054, Note_on_c, 0, 79, 0
2, 12060, Note_on_c, 0, 78, 80
2, 12076, Note_on_c, 0, 78, 0
2, 12080, Note_on_c, 0, 79, 80
2, 12096, Note_on_c, 0, 79, 0
2, 12100, Note_on_c, 0, 78, 80
2, 12116, Note_on_c, 0, 78, 0
2, 12120, Note_on_c, 0, 76, 80
2, 12216, Note_on_c, 0, 76, 0
2, 12600, Note_on_c, 0, 74, 66
2, 12658, Note_on_c, 0, 74, 0
2, 12660, Note_on_c, 0, 62, 67
2, 12718, Note_on_c, 0, 62, 0
2, 12720, Note_on_c, 0, 73, 68
2, 12778, Note_on_c, 0, 73, 0
2, 12780, Note_on_c, 0, 62, 69
2, 12838, Note_on_c, 0, 62, 0
2, 12840, Note_on_c, 0, 72, 70
2, 12898, Note_on_c, 0, 72, 0
2, 12900, Note_on_c, 0, 62, 71
2, 12958, Note_on_c, 0, 62, 0
2, 12960, Note_on_c, 0, 71, 72
2, 13018, Note_on_c, 0, 71, 0
2, 13020, Note_on_c, 0, 62, 73
2, 13078, Note_on_c, 0, 62, 0
2, 13080, Note_on_c, 0, 70, 74
2, 13138, Note_on_c, 0, 70, 0
2, 13140, Note_on_c, 0, 62, 75
2, 13198, Note_on_c, 0, 62, 0
2, 13200, Note_on_c, 0, 71, 76
2, 13258, Note_on_c, 0, 71, 0
2, 13260, Note_on_c, 0, 62, 77
2, 13318, Note_on_c, 0, 62, 0
2, 13320, Note_on_c, 0, 67, 78
2, 13378, Note_on_c, 0, 67, 0
2, 13380, Note_on_c, 0, 62, 79
2, 13438, Note_on_c, 0, 62, 0
2, 13440, Note_on_c, 0, 66, 96
2, 13498, Note_on_c, 0, 66, 0
2, 13500, Note_on_c, 0, 62, 65
2, 13558, Note_on_c, 0, 62, 0
2, 13560, Note_on_c, 0, 74, 66
2, 13618, Note_on_c, 0, 74, 0
2, 13620, Note_on_c, 0, 62, 67
2, 13678, Note_on_c, 0, 62, 0
2, 13680, Note_on_c, 0, 73, 68
2, 13738, Note_on_c, 0, 73, 0
2, 13740, Note_on_c, 0, 62, 69
2, 13798, Note_on_c, 0, 62, 0
2, 13800, Note_on_c, 0, 72, 70
2, 13858, Note_on_c, 0, 72, 0
2, 13860, Note_on_c, 0, 62, 71
2, 13918, Note_on_c, 0, 62, 0
2, 13920, Note_on_c, 0, 71, 72
2, 13978, Note_on_c, 0, 71, 0
2, 13980, Note_on_c, 0, 62, 73
2, 14038, Note_on_c, 0, 62, 0
2, 14040, Note_on_c, 0, 70, 74
2, 14098, Note_on_c, 0, 70, 0
2, 14100, Note_on_c, 0, 62, 75
2, 14158, Note_on_c, 0, 62, 0
2, 14160, Note_on_c, 0, 71, 76
2, 14218, Note_on_c, 0, 71, 0
2, 14220, Note_on_c, 0, 62, 77
2, 14278, Note_on_c, 0, 62, 0
2, 14280, Note_on_c, 0, 67, 78
2, 14338, Note_on_c, 0, 67, 0
2, 14340, Note_on_c, 0, 62, 79
2, 14398, Note_on_c, 0, 62, 0
2, 14400, Note_on_c, 0, 66, 96
2, 14458, Note_on_c, 0, 66, 0
2, 14460, Note_on_c, 0, 62, 48
2, 14518, Note_on_c, 0, 62, 0
2, 14520, Note_on_c, 0, 74, 48
2, 14578, Note_on_c, 0, 74, 0
2, 14580, Note_on_c, 0, 62, 48
2, 14638, Note_on_c, 0, 62, 0
2, 14640, Note_on_c, 0, 73, 48
2, 14698, Note_on_c, 0, 73, 0
2, 14700, Note_on_c, 0, 62, 48
2, 14758, Note_on_c, 0, 62, 0
2, 14760, Note_on_c, 0, 72, 48
2, 14818, Note_on_c, 0, 72, 0
2, 14820, Note_on_c, 0, 62, 48
2, 14878, Note_on_c, 0, 62, 0
2, 14880, Note_on_c, 0, 71, 48
2, 14938, Note_on_c, 0, 71, 0
2, 14940, Note_on_c, 0, 62, 48
2, 14998, Note_on_c, 0, 62, 0
2, 15000, Note_on_c, 0, 70, 48
2, 15058, Note_on_c, 0, 70, 0
2, 15060, Note_on_c, 0, 62, 48
2, 15118, Note_on_c, 0, 62, 0
2, 15120, Note_on_c, 0, 71, 48
2, 15178, Note_on_c, 0, 71, 0
2, 15180, Note_on_c, 0, 62, 48
2, 15238, Note_on_c, 0, 62, 0
2, 15240, Note_on_c, 0, 74, 48
2, 15298, Note_on_c, 0, 74, 0
2, 15300, Note_on_c, 0, 62, 48
2, 15358, Note_on_c, 0, 62, 0
2, 15360, Note_on_c, 0, 69, 48
2, 15418, Note_on_c, 0, 69, 0
2, 15420, Note_on_c, 0, 62, 49
2, 15478, Note_on_c, 0, 62, 0
2, 15480, Note_on_c, 0, 68, 50
2, 15538, Note_on_c, 0, 68, 0
2, 15540, Note_on_c, 0, 62, 51
2, 15598, Note_on_c, 0, 62, 0
2, 15600, Note_on_c, 0, 69, 52
2, 15658, Note_on_c, 0, 69, 0
2, 15660, Note_on_c, 0, 62, 53
2, 15718, Note_on_c, 0, 62, 0
2, 15720, Note_on_c, 0, 72, 54
2, 15778, Note_on_c, 0, 72, 0
2, 15780, Note_on_c, 0, 62, 55
2, 15838, Note_on_c, 0, 62, 0
2, 15840, Note_on_c, 0, 71, 56
2, 15898, Note_on_c, 0, 71, 0
2, 15900, Note_on_c, 0, 62, 57
2, 15958, Note_on_c, 0, 62, 0
2, 15960, Note_on_c, 0, 70, 58
2, 16018, Note_on_c, 0, 70, 0
2, 16020, Note_on_c, 0, 62, 59
2, 16078, Note_on_c, 0, 62, 0
2, 16080, Note_on_c, 0, 71, 60
2, 16138, Note_on_c, 0, 71, 0
2, 16140, Note_on_c, 0, 62, 61
2, 16198, Note_on_c, 0, 62, 0
2, 16200, Note_on_c, 0, 74, 62
2, 16258, Note_on_c, 0, 74, 0
2, 16260, Note_on_c, 0, 62, 63
2, 16318, Note_on_c, 0, 62, 0
2, 16320, Note_on_c, 0, 69, 64
2, 16378, Note_on_c, 0, 69, 0
2, 16380, Note_on_c, 0, 62, 65
2, 16438, Note_on_c, 0, 62, 0
2, 16440, Note_on_c, 0, 68, 66
2, 16498, Note_on_c, 0, 68, 0
2, 16500, Note_on_c, 0, 62, 67
2, 16558, Note_on_c, 0, 62, 0
2, 16560, Note_on_c, 0, 69, 68
2, 16618, Note_on_c, 0, 69, 0
2, 16620, Note_on_c, 0, 62, 69
2, 16678, Note_on_c, 0, 62, 0
2, 16680, Note_on_c, 0, 72, 70
2, 16738, Note_on_c, 0, 72, 0
2, 16740, Note_on_c, 0, 62, 71
2, 16798, Note_on_c, 0, 62, 0
2, 16800, Note_on_c, 0, 71, 72
2, 16858, Note_on_c, 0, 71, 0
2, 16860, Note_on_c, 0, 62, 73
2, 16918, Note_on_c, 0, 62, 0
2, 16920, Note_on_c, 0, 71, 74
2, 16978, Note_on_c, 0, 71, 0
2, 16980, Note_on_c, 0, 62, 75
2, 17038, Note_on_c, 0, 62, 0
2, 17040, Note_on_c, 0, 69, 76
2, 17098, Note_on_c, 0, 69, 0
2, 17100, Note_on_c, 0, 63, 77
2, 17158, Note_on_c, 0, 63, 0
2, 17160, Note_on_c, 0, 69, 78
2, 17208, Note_on_c, 0, 69, 0
2, 17220, Note_on_c, 0, 63, 79
2, 17268, Note_on_c, 0, 63, 0
2, 17280, Note_on_c, 0, 67, 80
2, 17338, Note_on_c, 0, 67, 0
2, 17340, Note_on_c, 0, 64, 79
2, 17398, Note_on_c, 0, 64, 0
2, 17400, Note_on_c, 0, 67, 78
2, 17458, Note_on_c, 0, 67, 0
2, 17460, Note_on_c, 0, 64, 77
2, 17518, Note_on_c, 0, 64, 0
2, 17520, Note_on_c, 0, 66, 76
2, 17578, Note_on_c, 0, 66, 0
2, 17580, Note_on_c, 0, 63, 75
2, 17638, Note_on_c, 0, 63, 0
2, 17640, Note_on_c, 0, 66, 74
2, 17698, Note_on_c, 0, 66, 0
2, 17700, Note_on_c, 0, 63, 73
2, 17758, Note_on_c, 0, 63, 0
2, 17760, Note_on_c, 0, 67, 72
2, 17818, Note_on_c, 0, 67, 0
2, 17820, Note_on_c, 0, 64, 71
2, 17878, Note_on_c, 0, 64, 0
2, 17880, Note_on_c, 0, 67, 70
2, 17938, Note_on_c, 0, 67, 0
2, 17940, Note_on_c, 0, 64, 69
2, 17998, Note_on_c, 0, 64, 0
2, 18000, Note_on_c, 0, 66, 68
2, 18058, Note_on_c, 0, 66, 0
2, 18060, Note_on_c, 0, 62, 67
2, 18118, Note_on_c, 0, 62, 0
2, 18120, Note_on_c, 0, 66, 66
2, 18178, Note_on_c, 0, 66, 0
2, 18180, Note_on_c, 0, 62, 65
2, 18238, Note_on_c, 0, 62, 0
2, 18240, Note_on_c, 0, 61, 64
2, 18358, Note_on_c, 0, 61, 0
2, 18360, Note_on_c, 0, 62, 64
2, 18478, Note_on_c, 0, 62, 0
2, 18480, Note_on_c, 0, 64, 64
2, 18598, Note_on_c, 0, 64, 0
2, 18600, Note_on_c, 0, 67, 64
2, 18624, Note_on_c, 0, 67, 0
2, 18630, Note_on_c, 0, 66, 64
2, 18654, Note_on_c, 0, 66, 0
2, 18660, Note_on_c, 0, 64, 64
2, 18684, Note_on_c, 0, 64, 0
2, 18690, Note_on_c, 0, 66, 64
2, 18714, Note_on_c, 0, 66, 0
2, 18720, Note_on_c, 0, 67, 64
2, 18816, Note_on_c, 0, 67, 0
2, 18840, Note_on_c, 0, 66, 64
2, 18936, Note_on_c, 0, 66, 0
2, 18960, Note_on_c, 0, 67, 64
2, 19056, Note_on_c, 0, 67, 0
2, 19080, Note_on_c, 0, 64, 64
2, 19176, Note_on_c, 0, 64, 0
2, 19200, Note_on_c, 0, 66, 64
2, 19258, Note_on_c, 0, 66, 0
2, 19260, Note_on_c, 0, 62, 65
2, 19318, Note_on_c, 0, 62, 0
2, 19320, Note_on_c, 0, 67, 66
2, 19378, Note_on_c, 0, 67, 0
2, 19380, Note_on_c, 0, 62, 67
2, 19438, Note_on_c, 0, 62, 0
2, 19440, Note_on_c, 0, 69, 68
2, 19498, Note_on_c, 0, 69, 0
2, 19500, Note_on_c, 0, 62, 69
2, 19558, Note_on_c, 0, 62, 0
2, 19560, Note_on_c, 0, 71, 70
2, 19618, Note_on_c, 0, 71, 0
2, 19620, Note_on_c, 0, 62, 71
2, 19678, Note_on_c, 0, 62, 0
2, 19680, Note_on_c, 0, 72, 72
2, 19738, Note_on_c, 0, 72, 0
2, 19740, Note_on_c, 0, 62, 73
2, 19798, Note_on_c, 0, 62, 0
2, 19800, Note_on_c, 0, 71, 74
2, 19858, Note_on_c, 0, 71, 0
2, 19860, Note_on_c, 0, 62, 75
2, 19918, Note_on_c, 0, 62, 0
2, 19920, Note_on_c, 0, 72, 76
2, 19978, Note_on_c, 0, 72, 0
2, 19980, Note_on_c, 0, 62, 77
2, 20038, Note_on_c, 0, 62, 0
2, 20040, Note_on_c, 0, 69, 78
2, 20098, Note_on_c, 0, 69, 0
2, 20100, Note_on_c, 0, 62, 79
2, 20158, Note_on_c, 0, 62, 0
2, 20160, Note_on_c, 0, 71, 85
2, 20218, Note_on_c, 0, 71, 0
2, 20220, Note_on_c, 0, 62, 85
2, 20278, Note_on_c, 0, 62, 0
2, 20280, Note_on_c, 0, 70, 85
2, 20338, Note_on_c, 0, 70, 0
2, 20340, Note_on_c, 0, 62, 85
2, 20398, Note_on_c, 0, 62, 0
2, 20400, Note_on_c, 0, 71, 85
2, 20458, Note_on_c, 0, 71, 0
2, 20460, Note_on_c, 0, 62, 85
2, 20518, Note_on_c, 0, 62, 0
2, 20520, Note_on_c, 0, 73, 85
2, 20578, Note_on_c, 0, 73, 0
2, 20580, Note_on_c, 0, 64, 85
2, 20638, Note_on_c, 0, 64, 0
2, 20640, Note_on_c, 0, 74, 85
2, 20698, Note_on_c, 0, 74, 0
2, 20700, Note_on_c, 0, 62, 85
2, 20758, Note_on_c, 0, 62, 0
2, 20760, Note_on_c, 0, 76, 85
2, 20818, Note_on_c, 0, 76, 0
2, 20820, Note_on_c, 0, 70, 85
2, 20878, Note_on_c, 0, 70, 0
2, 20880, Note_on_c, 0, 78, 85
2, 20938, Note_on_c, 0, 78, 0
2, 20940, Note_on_c, 0, 70, 85
2, 20998, Note_on_c, 0, 70, 0
2, 21000, Note_on_c, 0, 79, 85
2, 21058, Note_on_c, 0, 79, 0
2, 21060, Note_on_c, 0, 70, 85
2, 21118, Note_on_c, 0, 70, 0
2, 21120, Note_on_c, 0, 81, 85
2, 21180, Note_on_c, 0, 81, 0
2, 21240, Note_on_c, 0, 86, 85
2, 21278, Note_on_c, 0, 86, 0
2, 21280, Note_on_c, 0, 85, 85
2, 21318, Note_on_c, 0, 85, 0
2, 21320, Note_on_c, 0, 83, 85
2, 21358, Note_on_c, 0, 83, 0
2, 21360, Note_on_c, 0, 81, 85
2, 21398, Note_on_c, 0, 81, 0
2, 21400, Note_on_c, 0, 79, 85
2, 21438, Note_on_c, 0, 79, 0
2, 21440, Note_on_c, 0, 78, 85
2, 21478, Note_on_c, 0, 78, 0
2, 21480, Note_on_c, 0, 76, 85
2, 21518, Note_on_c, 0, 76, 0
2, 21520, Note_on_c, 0, 74, 85
2, 21558, Note_on_c, 0, 74, 0
2, 21560, Note_on_c, 0, 73, 85
2, 21598, Note_on_c, 0, 73, 0
2, 21600, Note_on_c, 0, 71, 85
2, 21660, Note_on_c, 0, 71, 0
2, 21720, Note_on_c, 0, 66, 85
2, 21758, Note_on_c, 0, 66, 0
2, 21760, Note_on_c, 0, 67, 85
2, 21798, Note_on_c, 0, 67, 0
2, 21800, Note_on_c, 0, 69, 85
2, 21838, Note_on_c, 0, 69, 0
2, 21840, Note_on_c, 0, 71, 85
2, 21878, Note_on_c, 0, 71, 0
2, 21880, Note_on_c, 0, 73, 85
2, 21918, Note_on_c, 0, 73, 0
2, 21920, Note_on_c, 0, 74, 85
2, 21958, Note_on_c, 0, 74, 0
2, 21960, Note_on_c, 0, 76, 85
2, 21998, Note_on_c, 0, 76, 0
2, 22000, Note_on_c, 0, 78, 85
2, 22038, Note_on_c, 0, 78, 0
2, 22040, Note_on_c, 0, 79, 85
2, 22078, Note_on_c, 0, 79, 0
2, 22080, Note_on_c, 0, 81, 85
2, 22140, Note_on_c, 0, 81, 0
2, 22200, Note_on_c, 0, 78, 85
2, 22238, Note_on_c, 0, 78, 0
2, 22240, Note_on_c, 0, 76, 85
2, 22278, Note_on_c, 0, 76, 0
2, 22280, Note_on_c, 0, 74, 85
2, 22318, Note_on_c, 0, 74, 0
2, 22320, Note_on_c, 0, 76, 80
2, 22344, Note_on_c, 0, 76, 0
2, 22350, Note_on_c, 0, 78, 80
2, 22374, Note_on_c, 0, 78, 0
2, 22380, Note_on_c, 0, 76, 80
2, 22404, Note_on_c, 0, 76, 0
2, 22410, Note_on_c, 0, 78, 80
2, 22434, Note_on_c, 0, 78, 0
2, 22440, Note_on_c, 0, 76, 80
2, 22456, Note_on_c, 0, 76, 0
2, 22460, Note_on_c, 0, 78, 80
2, 22476, Note_on_c, 0, 78, 0
2, 22480, Note_on_c, 0, 76, 80
2, 22496, Note_on_c, 0, 76, 0
2, 22500, Note_on_c, 0, 74, 80
2, 22524, Note_on_c, 0, 74, 0
2, 22530, Note_on_c, 0, 76, 80
2, 22554, Note_on_c, 0, 76, 0
2, 22560, Note_on_c, 0, 74, 80
2, 22620, Note_on_c, 0, 74, 0
2, 22680, Note_on_c, 0, 86, 64
2, 22712, Note_on_c, 0, 86, 0
2, 22720, Note_on_c, 0, 85, 64
2, 22752, Note_on_c, 0, 85, 0
2, 22760, Note_on_c, 0, 83, 64
2, 22792, Note_on_c, 0, 83, 0
2, 22800, Note_on_c, 0, 81, 64
2, 22832, Note_on_c, 0, 81, 0
2, 22840, Note_on_c, 0, 79, 64
2, 22872, Note_on_c, 0, 79, 0
2, 22880, Note_on_c, 0, 78, 64
2, 22912, Note_on_c, 0, 78, 0
2, 22920, Note_on_c, 0, 76, 64
2, 22952, Note_on_c, 0, 76, 0
2, 22960, Note_on_c, 0, 74, 64
2, 22992, Note_on_c, 0, 74, 0
2, 23000, Note_on_c, 0, 73, 64
2, 23032, Note_on_c, 0, 73, 0
2, 23040, Note_on_c, 0, 71, 64
2, 23158, Note_on_c, 0, 71, 0
2, 23160, Note_on_c, 0, 66, 64
2, 23198, Note_on_c, 0, 66, 0
2, 23200, Note_on_c, 0, 67, 64
2, 23238, Note_on_c, 0, 67, 0
2, 23240, Note_on_c, 0, 69, 64
2, 23278, Note_on_c, 0, 69, 0
2, 23280, Note_on_c, 0, 71, 64
2, 23318, Note_on_c, 0, 71, 0
2, 23320, Note_on_c, 0, 73, 64
2, 23358, Note_on_c, 0, 73, 0
2, 23360, Note_on_c, 0, 74, 64
2, 23398, Note_on_c, 0, 74, 0
2, 23400, Note_on_c, 0, 76, 64
2, 23438, Note_on_c, 0, 76, 0
2, 23440, Note_on_c, 0, 78, 64
2, 23478, Note_on_c, 0, 78, 0
2, 23480, Note_on_c, 0, 79, 64
2, 23518, Note_on_c, 0, 79, 0
2, 23520, Note_on_c, 0, 81, 64
2, 23638, Note_on_c, 0, 81, 0
2, 23640, Note_on_c, 0, 78, 64
2, 23678, Note_on_c, 0, 78, 0
2, 23680, Note_on_c, 0, 76, 64
2, 23718, Note_on_c, 0, 76, 0
2, 23720, Note_on_c, 0, 74, 64
2, 23758, Note_on_c, 0, 74, 0
2, 23760, Note_on_c, 0, 76, 64
2, 23784, Note_on_c, 0, 76, 0
2, 23790, Note_on_c, 0, 78, 64
2, 23814, Note_on_c, 0, 78, 0
2, 23820, Note_on_c, 0, 76, 64
2, 23844, Note_on_c, 0, 76, 0
2, 23850, Note_on_c, 0, 78, 64
2, 23874, Note_on_c, 0, 78, 0
2, 23880, Note_on_c, 0, 76, 64
2, 23896, Note_on_c, 0, 76, 0
2, 23900, Note_on_c, 0, 78, 64
2, 23916, Note_on_c, 0, 78, 0
2, 23920, Note_on_c, 0, 76, 64
2, 23936, Note_on_c, 0, 76, 0
2, 23940, Note_on_c, 0, 74, 64
2, 23964, Note_on_c, 0, 74, 0
2, 23970, Note_on_c, 0, 76, 64
2, 23994, Note_on_c, 0, 76, 0
2, 24000, Note_on_c, 0, 74, 64
2, 24118, Note_on_c, 0, 74, 0
2, 24120, Note_on_c, 0, 66, 64
2, 24178, Note_on_c, 0, 66, 0
2, 24180, Note_on_c, 0, 74, 64
2, 24238, Note_on_c, 0, 74, 0
2, 24240, Note_on_c, 0, 67, 64
2, 24298, Note_on_c, 0, 67, 0
2, 24300, Note_on_c, 0, 74, 64
2, 24358, Note_on_c, 0, 74, 0
2, 24360, Note_on_c, 0, 69, 64
2, 24418, Note_on_c, 0, 69, 0
2, 24420, Note_on_c, 0, 74, 64
2, 24478, Note_on_c, 0, 74, 0
2, 24480, Note_on_c, 0, 71, 64
2, 24538, Note_on_c, 0, 71, 0
2, 24540, Note_on_c, 0, 74, 64
2, 24598, Note_on_c, 0, 74, 0
2, 24600, Note_on_c, 0, 70, 64
2, 24658, Note_on_c, 0, 70, 0
2, 24660, Note_on_c, 0, 74, 64
2, 24718, Note_on_c, 0, 74, 0
2, 24720, Note_on_c, 0, 71, 64
2, 24778, Note_on_c, 0, 71, 0
2, 24780, Note_on_c, 0, 74, 64
2, 24838, Note_on_c, 0, 74, 0
2, 24840, Note_on_c, 0, 73, 64
2, 24898, Note_on_c, 0, 73, 0
2, 24900, Note_on_c, 0, 79, 64
2, 24958, Note_on_c, 0, 79, 0
2, 24960, Note_on_c, 0, 78, 64
2, 25018, Note_on_c, 0, 78, 0
2, 25020, Note_on_c, 0, 74, 64
2, 25078, Note_on_c, 0, 74, 0
2, 25080, Note_on_c, 0, 67, 64
2, 25138, Note_on_c, 0, 67, 0
2, 25140, Note_on_c, 0, 76, 64
2, 25198, Note_on_c, 0, 76, 0
2, 25200, Note_on_c, 0, 66, 64
2, 25258, Note_on_c, 0, 66, 0
2, 25260, Note_on_c, 0, 74, 64
2, 25318, Note_on_c, 0, 74, 0
2, 25320, Note_on_c, 0, 64, 64
2, 25378, Note_on_c, 0, 64, 0
2, 25380, Note_on_c, 0, 73, 64
2, 25438, Note_on_c, 0, 73, 0
2, 25440, Note_on_c, 0, 66, 64
2, 25440, Note_on_c, 0, 74, 64
2, 25512, Note_on_c, 0, 74, 0
2, 25512, Note_on_c, 0, 66, 0
2, 25560, Note_on_c, 0, 66, 80
2, 25618, Note_on_c, 0, 66, 0
2, 25620, Note_on_c, 0, 74, 80
2, 25678, Note_on_c, 0, 74, 0
2, 25680, Note_on_c, 0, 67, 80
2, 25738, Note_on_c, 0, 67, 0
2, 25740, Note_on_c, 0, 74, 80
2, 25798, Note_on_c, 0, 74, 0
2, 25800, Note_on_c, 0, 69, 80
2, 25858, Note_on_c, 0, 69, 0
2, 25860, Note_on_c, 0, 74, 80
2, 25918, Note_on_c, 0, 74, 0
2, 25920, Note_on_c, 0, 71, 85
2, 25978, Note_on_c, 0, 71, 0
2, 25980, Note_on_c, 0, 74, 85
2, 26038, Note_on_c, 0, 74, 0
2, 26040, Note_on_c, 0, 70, 85
2, 26098, Note_on_c, 0, 70, 0
2, 26100, Note_on_c, 0, 74, 85
2, 26158, Note_on_c, 0, 74, 0
2, 26160, Note_on_c, 0, 71, 85
2, 26218, Note_on_c, 0, 71, 0
2, 26220, Note_on_c, 0, 74, 85
2, 26278, Note_on_c, 0, 74, 0
2, 26280, Note_on_c, 0, 73, 85
2, 26338, Note_on_c, 0, 73, 0
2, 26340, Note_on_c, 0, 79, 85
2, 26398, Note_on_c, 0, 79, 0
2, 26400, Note_on_c, 0, 78, 85
2, 26458, Note_on_c, 0, 78, 0
2, 26460, Note_on_c, 0, 74, 85
2, 26518, Note_on_c, 0, 74, 0
2, 26520, Note_on_c, 0, 67, 85
2, 26578, Note_on_c, 0, 67, 0
2, 26580, Note_on_c, 0, 76, 85
2, 26638, Note_on_c, 0, 76, 0
2, 26640, Note_on_c, 0, 66, 85
2, 26698, Note_on_c, 0, 66, 0
2, 26700, Note_on_c, 0, 74, 85
2, 26758, Note_on_c, 0, 74, 0
2, 26760, Note_on_c, 0, 64, 85
2, 26818, Note_on_c, 0, 64, 0
2, 26820, Note_on_c, 0, 73, 85
2, 26878, Note_on_c, 0, 73, 0
2, 26880, Note_on_c, 0, 66, 85
2, 26880, Note_on_c, 0, 74, 85
2, 26998, Note_on_c, 0, 74, 0
2, 26998, Note_on_c, 0, 66, 0
2, 27000, Note_on_c, 0, 74, 85
2, 27000, Note_on_c, 0, 78, 85
2, 27060, Note_on_c, 0, 78, 0
2, 27060, Note_on_c, 0, 74, 0
2, 27120, Note_on_c, 0, 78, 85
2, 27120, Note_on_c, 0, 81, 85
2, 27180, Note_on_c, 0, 81, 0
2, 27180, Note_on_c, 0, 78, 0
2, 27240, Note_on_c, 0, 74, 85
2, 27240, Note_on_c, 0, 78, 85
2, 27300, Note_on_c, 0, 78, 0
2, 27300, Note_on_c, 0, 74, 0
2, 27360, Note_on_c, 0, 74, 96
2, 27360, Note_on_c, 0, 78, 96
2, 27360, Note_on_c, 0, 81, 96
2, 27360, Note_on_c, 0, 86, 96
2, 27598, Note_on_c, 0, 86, 0
2, 27598, Note_on_c, 0, 74, 0
2, 27598, Note_on_c, 0, 78, 0
2, 27598, Note_on_c, 0, 81, 0
2, 27780, Note_on_c, 0, 60, 80
2, 27804, Note_on_c, 0, 60, 0
2, 27810, Note_on_c, 0, 59, 80
2, 27834, Note_on_c, 0, 59, 0
2, 27840, Note_on_c, 0, 60, 85
2, 28224, Note_on_c, 0, 60, 0
2, 28260, Note_on_c, 0, 69, 80
2, 28284, Note_on_c, 0, 69, 0
2, 28290, Note_on_c, 0, 68, 80
2, 28314, Note_on_c, 0, 68, 0
2, 28320, Note_on_c, 0, 69, 80
2, 28704, Note_on_c, 0, 69, 0
2, 28740, Note_on_c, 0, 78, 80
2, 28764, Note_on_c, 0, 78, 0
2, 28770, Note_on_c, 0, 77, 80
2, 28794, Note_on_c, 0, 77, 0
2, 28800, Note_on_c, 0, 78, 85
2, 29278, Note_on_c, 0, 78, 0
2, 29280, Note_on_c, 0, 84, 85
2, 29638, Note_on_c, 0, 84, 0
2, 29640, Note_on_c, 0, 63, 80
2, 29688, Note_on_c, 0, 63, 0
2, 29700, Note_on_c, 0, 64, 80
2, 29724, Note_on_c, 0, 64, 0
2, 29730, Note_on_c, 0, 63, 80
2, 29754, Note_on_c, 0, 63, 0
2, 29760, Note_on_c, 0, 64, 85
2, 30144, Note_on_c, 0, 64, 0
2, 30180, Note_on_c, 0, 71, 80
2, 30204, Note_on_c, 0, 71, 0
2, 30210, Note_on_c, 0, 70, 80
2, 30234, Note_on_c, 0, 70, 0
2, 30240, Note_on_c, 0, 71, 80
2, 30624, Note_on_c, 0, 71, 0
2, 30720, Note_on_c, 0, 76, 85
2, 31078, Note_on_c, 0, 76, 0
2, 31080, Note_on_c, 0, 78, 85
2, 31168, Note_on_c, 0, 78, 0
2, 31170, Note_on_c, 0, 79, 85
2, 31198, Note_on_c, 0, 79, 0
2, 31200, Note_on_c, 0, 76, 85
2, 31318, Note_on_c, 0, 76, 0
2, 31320, Note_on_c, 0, 83, 67
2, 31368, Note_on_c, 0, 83, 0
2, 31440, Note_on_c, 0, 83, 72
2, 31512, Note_on_c, 0, 83, 0
2, 31560, Note_on_c, 0, 83, 77
2, 31656, Note_on_c, 0, 83, 0
2, 31680, Note_on_c, 0, 83, 88
2, 31905, Note_on_c, 0, 83, 0
2, 31920, Note_on_c, 0, 84, 80
2, 31944, Note_on_c, 0, 84, 0
2, 31950, Note_on_c, 0, 83, 80
2, 31974, Note_on_c, 0, 83, 0
2, 31980, Note_on_c, 0, 81, 80
2, 32004, Note_on_c, 0, 81, 0
2, 32010, Note_on_c, 0, 83, 80
2, 32034, Note_on_c, 0, 83, 0
2, 32040, Note_on_c, 0, 84, 80
2, 32112, Note_on_c, 0, 84, 0
2, 32130, Note_on_c, 0, 81, 80
2, 32154, Note_on_c, 0, 81, 0
2, 32160, Note_on_c, 0, 81, 80
2, 32352, Note_on_c, 0, 81, 0
2, 32400, Note_on_c, 0, 79, 80
2, 32496, Note_on_c, 0, 79, 0
2, 32520, Note_on_c, 0, 83, 80
2, 32592, Note_on_c, 0, 83, 0
2, 32610, Note_on_c, 0, 76, 80
2, 32634, Note_on_c, 0, 76, 0
2, 32640, Note_on_c, 0, 79, 80
2, 32688, Note_on_c, 0, 79, 0
2, 32700, Note_on_c, 0, 78, 80
2, 32748, Note_on_c, 0, 78, 0
2, 32760, Note_on_c, 0, 76, 80
2, 32856, Note_on_c, 0, 76, 0
2, 32880, Note_on_c, 0, 79, 80
2, 32928, Note_on_c, 0, 79, 0
2, 32940, Note_on_c, 0, 78, 80
2, 32988, Note_on_c, 0, 78, 0
2, 33000, Note_on_c, 0, 76, 80
2, 33048, Note_on_c, 0, 76, 0
2, 33060, Note_on_c, 0, 75, 80
2, 33108, Note_on_c, 0, 75, 0
2, 33120, Note_on_c, 0, 76, 64
2, 33216, Note_on_c, 0, 76, 0
2, 33240, Note_on_c, 0, 74, 64
2, 33336, Note_on_c, 0, 74, 0
2, 33360, Note_on_c, 0, 83, 64
2, 33648, Note_on_c, 0, 83, 0
2, 33660, Note_on_c, 0, 81, 64
2, 33708, Note_on_c, 0, 81, 0
2, 33720, Note_on_c, 0, 80, 64
2, 33768, Note_on_c, 0, 80, 0
2, 33780, Note_on_c, 0, 81, 64
2, 33828, Note_on_c, 0, 81, 0
2, 33840, Note_on_c, 0, 80, 64
2, 33888, Note_on_c, 0, 80, 0
2, 33900, Note_on_c, 0, 78, 64
2, 33948, Note_on_c, 0, 78, 0
2, 33960, Note_on_c, 0, 76, 64
2, 34008, Note_on_c, 0, 76, 0
2, 34020, Note_on_c, 0, 74, 64
2, 34044, Note_on_c, 0, 74, 0
2, 34050, Note_on_c, 0, 76, 64
2, 34074, Note_on_c, 0, 76, 0
2, 34080, Note_on_c, 0, 74, 64
2, 34176, Note_on_c, 0, 74, 0
2, 34200, Note_on_c, 0, 73, 64
2, 34296, Note_on_c, 0, 73, 0
2, 34320, Note_on_c, 0, 80, 64
2, 34608, Note_on_c, 0, 80, 0
2, 34620, Note_on_c, 0, 78, 65
2, 34668, Note_on_c, 0, 78, 0
2, 34680, Note_on_c, 0, 77, 66
2, 34728, Note_on_c, 0, 77, 0
2, 34740, Note_on_c, 0, 78, 67
2, 34788, Note_on_c, 0, 78, 0
2, 34800, Note_on_c, 0, 77, 68
2, 34848, Note_on_c, 0, 77, 0
2, 34860, Note_on_c, 0, 74, 69
2, 34908, Note_on_c, 0, 74, 0
2, 34920, Note_on_c, 0, 73, 70
2, 34968, Note_on_c, 0, 73, 0
2, 34980, Note_on_c, 0, 71, 71
2, 35028, Note_on_c, 0, 71, 0
2, 35040, Note_on_c, 0, 69, 72
2, 35112, Note_on_c, 0, 69, 0
2, 35130, Note_on_c, 0, 73, 74
2, 35154, Note_on_c, 0, 73, 0
2, 35160, Note_on_c, 0, 74, 74
2, 35184, Note_on_c, 0, 74, 0
2, 35190, Note_on_c, 0, 73, 75
2, 35214, Note_on_c, 0, 73, 0
2, 35220, Note_on_c, 0, 71, 75
2, 35244, Note_on_c, 0, 71, 0
2, 35250, Note_on_c, 0, 73, 76
2, 35274, Note_on_c, 0, 73, 0
2, 35280, Note_on_c, 0, 81, 76
2, 35616, Note_on_c, 0, 81, 0
2, 35640, Note_on_c, 0, 80, 80
2, 35688, Note_on_c, 0, 80, 0
2, 35700, Note_on_c, 0, 78, 80
2, 35748, Note_on_c, 0, 78, 0
2, 35760, Note_on_c, 0, 76, 80
2, 35808, Note_on_c, 0, 76, 0
2, 35820, Note_on_c, 0, 74, 80
2, 35868, Note_on_c, 0, 74, 0
2, 35880, Note_on_c, 0, 73, 80
2, 35928, Note_on_c, 0, 73, 0
2, 35940, Note_on_c, 0, 72, 80
2, 35988, Note_on_c, 0, 72, 0
2, 36000, Note_on_c, 0, 72, 80
2, 36192, Note_on_c, 0, 72, 0
2, 36240, Note_on_c, 0, 73, 80
2, 36300, Note_on_c, 0, 73, 0
2, 36420, Note_on_c, 0, 66, 80
2, 36444, Note_on_c, 0, 66, 0
2, 36450, Note_on_c, 0, 65, 80
2, 36474, Note_on_c, 0, 65, 0
2, 36480, Note_on_c, 0, 66, 85
2, 36864, Note_on_c, 0, 66, 0
2, 36900, Note_on_c, 0, 73, 80
2, 36924, Note_on_c, 0, 73, 0
2, 36930, Note_on_c, 0, 72, 80
2, 36954, Note_on_c, 0, 72, 0
2, 36960, Note_on_c, 0, 73, 80
2, 37344, Note_on_c, 0, 73, 0
2, 37440, Note_on_c, 0, 78, 85
2, 37798, Note_on_c, 0, 78, 0
2, 37800, Note_on_c, 0, 80, 85
2, 37888, Note_on_c, 0, 80, 0
2, 37890, Note_on_c, 0, 81, 85
2, 37918, Note_on_c, 0, 81, 0
2, 37920, Note_on_c, 0, 78, 85
2, 38038, Note_on_c, 0, 78, 0
2, 38040, Note_on_c, 0, 80, 85
2, 38128, Note_on_c, 0, 80, 0
2, 38130, Note_on_c, 0, 81, 85
2, 38158, Note_on_c, 0, 81, 0
2, 38160, Note_on_c, 0, 78, 85
2, 38278, Note_on_c, 0, 78, 0
2, 38280, Note_on_c, 0, 80, 85
2, 38368, Note_on_c, 0, 80, 0
2, 38370, Note_on_c, 0, 81, 85
2, 38398, Note_on_c, 0, 81, 0
2, 38400, Note_on_c, 0, 78, 85
2, 38758, Note_on_c, 0, 78, 0
2, 38760, Note_on_c, 0, 80, 48
2, 38848, Note_on_c, 0, 80, 0
2, 38850, Note_on_c, 0, 81, 48
2, 38878, Note_on_c, 0, 81, 0
2, 38880, Note_on_c, 0, 78, 48
2, 39238, Note_on_c, 0, 78, 0
2, 39240, Note_on_c, 0, 80, 48
2, 39328, Note_on_c, 0, 80, 0
2, 39330, Note_on_c, 0, 81, 48
2, 39358, Note_on_c, 0, 81, 0
2, 39360, Note_on_c, 0, 76, 48
2, 39456, Note_on_c, 0, 76, 0
2, 39480, Note_on_c, 0, 80, 50
2, 39552, Note_on_c, 0, 80, 0
2, 39570, Note_on_c, 0, 81, 52
2, 39594, Note_on_c, 0, 81, 0
2, 39600, Note_on_c, 0, 74, 52
2, 39696, Note_on_c, 0, 74, 0
2, 39720, Note_on_c, 0, 80, 54
2, 39792, Note_on_c, 0, 80, 0
2, 39810, Note_on_c, 0, 81, 56
2, 39834, Note_on_c, 0, 81, 0
2, 39840, Note_on_c, 0, 73, 56
2, 39936, Note_on_c, 0, 73, 0
2, 39960, Note_on_c, 0, 80, 58
2, 40032, Note_on_c, 0, 80, 0
2, 40050, Note_on_c, 0, 81, 60
2, 40074, Note_on_c, 0, 81, 0
2, 40080, Note_on_c, 0, 71, 60
2, 40176, Note_on_c, 0, 71, 0
2, 40200, Note_on_c, 0, 80, 62
2, 40272, Note_on_c, 0, 80, 0
2, 40290, Note_on_c, 0, 81, 64
2, 40314, Note_on_c, 0, 81, 0
2, 40320, Note_on_c, 0, 69, 64
2, 40438, Note_on_c, 0, 69, 0
2, 40440, Note_on_c, 0, 80, 66
2, 40528, Note_on_c, 0, 80, 0
2, 40530, Note_on_c, 0, 81, 68
2, 40558, Note_on_c, 0, 81, 0
2, 40560, Note_on_c, 0, 72, 68
2, 40678, Note_on_c, 0, 72, 0
2, 40680, Note_on_c, 0, 78, 70
2, 40768, Note_on_c, 0, 78, 0
2, 40770, Note_on_c, 0, 81, 72
2, 40798, Note_on_c, 0, 81, 0
2, 40800, Note_on_c, 0, 73, 72
2, 40918, Note_on_c, 0, 73, 0
2, 40920, Note_on_c, 0, 76, 74
2, 41008, Note_on_c, 0, 76, 0
2, 41010, Note_on_c, 0, 80, 76
2, 41038, Note_on_c, 0, 80, 0
2, 41040, Note_on_c, 0, 68, 76
2, 41158, Note_on_c, 0, 68, 0
2, 41160, Note_on_c, 0, 75, 78
2, 41248, Note_on_c, 0, 75, 0
2, 41250, Note_on_c, 0, 78, 80
2, 41278, Note_on_c, 0, 78, 0
2, 41280, Note_on_c, 0, 68, 85
2, 41398, Note_on_c, 0, 68, 0
2, 41400, Note_on_c, 0, 73, 85
2, 41488, Note_on_c, 0, 73, 0
2, 41490, Note_on_c, 0, 76, 85
2, 41518, Note_on_c, 0, 76, 0
2, 41520, Note_on_c, 0, 69, 85
2, 41638, Note_on_c, 0, 69, 0
2, 41640, Note_on_c, 0, 73, 85
2, 41728, Note_on_c, 0, 73, 0
2, 41730, Note_on_c, 0, 76, 85
2, 41758, Note_on_c, 0, 76, 0
2, 41760, Note_on_c, 0, 68, 85
2, 41878, Note_on_c, 0, 68, 0
2, 41880, Note_on_c, 0, 73, 85
2, 41968, Note_on_c, 0, 73, 0
2, 41970, Note_on_c, 0, 76, 85
2, 41998, Note_on_c, 0, 76, 0
2, 42000, Note_on_c, 0, 67, 85
2, 42118, Note_on_c, 0, 67, 0
2, 42120, Note_on_c, 0, 73, 85
2, 42208, Note_on_c, 0, 73, 0
2, 42210, Note_on_c, 0, 76, 85
2, 42238, Note_on_c, 0, 76, 0
2, 42240, Note_on_c, 0, 66, 85
2, 42358, Note_on_c, 0, 66, 0
2, 42360, Note_on_c, 0, 73, 85
2, 42448, Note_on_c, 0, 73, 0
2, 42450, Note_on_c, 0, 76, 85
2, 42478, Note_on_c, 0, 76, 0
2, 42480, Note_on_c, 0, 66, 85
2, 42598, Note_on_c, 0, 66, 0
2, 42600, Note_on_c, 0, 70, 85
2, 42688, Note_on_c, 0, 70, 0
2, 42690, Note_on_c, 0, 73, 85
2, 42718, Note_on_c, 0, 73, 0
2, 42720, Note_on_c, 0, 66, 85
2, 42838, Note_on_c, 0, 66, 0
2, 42840, Note_on_c, 0, 71, 85
2, 42928, Note_on_c, 0, 71, 0
2, 42930, Note_on_c, 0, 74, 85
2, 42958, Note_on_c, 0, 74, 0
2, 42960, Note_on_c, 0, 66, 85
2, 43078, Note_on_c, 0, 66, 0
2, 43080, Note_on_c, 0, 73, 85
2, 43168, Note_on_c, 0, 73, 0
2, 43170, Note_on_c, 0, 76, 85
2, 43198, Note_on_c, 0, 76, 0
2, 43200, Note_on_c, 0, 66, 85
2, 43318, Note_on_c, 0, 66, 0
2, 43320, Note_on_c, 0, 74, 85
2, 43408, Note_on_c, 0, 74, 0
2, 43410, Note_on_c, 0, 78, 85
2, 43438, Note_on_c, 0, 78, 0
2, 43440, Note_on_c, 0, 66, 85
2, 43558, Note_on_c, 0, 66, 0
2, 43560, Note_on_c, 0, 69, 85
2, 43648, Note_on_c, 0, 69, 0
2, 43650, Note_on_c, 0, 73, 85
2, 43678, Note_on_c, 0, 73, 0
2, 43680, Note_on_c, 0, 66, 85
2, 43798, Note_on_c, 0, 66, 0
2, 43800, Note_on_c, 0, 71, 85
2, 43888, Note_on_c, 0, 71, 0
2, 43890, Note_on_c, 0, 74, 85
2, 43918, Note_on_c, 0, 74, 0
2, 43920, Note_on_c, 0, 65, 85
2, 44038, Note_on_c, 0, 65, 0
2, 44040, Note_on_c, 0, 71, 85
2, 44128, Note_on_c, 0, 71, 0
2, 44130, Note_on_c, 0, 74, 85
2, 44158, Note_on_c, 0, 74, 0
2, 44160, Note_on_c, 0, 66, 80
2, 44278, Note_on_c, 0, 66, 0
2, 44280, Note_on_c, 0, 70, 78
2, 44368, Note_on_c, 0, 70, 0
2, 44370, Note_on_c, 0, 73, 76
2, 44398, Note_on_c, 0, 73, 0
2, 44400, Note_on_c, 0, 64, 76
2, 44518, Note_on_c, 0, 64, 0
2, 44520, Note_on_c, 0, 70, 74
2, 44608, Note_on_c, 0, 70, 0
2, 44610, Note_on_c, 0, 73, 72
2, 44638, Note_on_c, 0, 73, 0
2, 44640, Note_on_c, 0, 62, 72
2, 44758, Note_on_c, 0, 62, 0
2, 44760, Note_on_c, 0, 66, 70
2, 44848, Note_on_c, 0, 66, 0
2, 44850, Note_on_c, 0, 71, 68
2, 44878, Note_on_c, 0, 71, 0
2, 44880, Note_on_c, 0, 59, 68
2, 44998, Note_on_c, 0, 59, 0
2, 45000, Note_on_c, 0, 62, 66
2, 45088, Note_on_c, 0, 62, 0
2, 45090, Note_on_c, 0, 65, 64
2, 45118, Note_on_c, 0, 65, 0
2, 45120, Note_on_c, 0, 58, 64
2, 45238, Note_on_c, 0, 58, 0
2, 45240, Note_on_c, 0, 61, 66
2, 45328, Note_on_c, 0, 61, 0
2, 45330, Note_on_c, 0, 66, 68
2, 45358, Note_on_c, 0, 66, 0
2, 45360, Note_on_c, 0, 55, 68
2, 45478, Note_on_c, 0, 55, 0
2, 45480, Note_on_c, 0, 58, 70
2, 45568, Note_on_c, 0, 58, 0
2, 45570, Note_on_c, 0, 61, 72
2, 45598, Note_on_c, 0, 61, 0
2, 45600, Note_on_c, 0, 54, 72
2, 45718, Note_on_c, 0, 54, 0
2, 45720, Note_on_c, 0, 58, 74
2, 45808, Note_on_c, 0, 58, 0
2, 45810, Note_on_c, 0, 61, 76
2, 45838, Note_on_c, 0, 61, 0
2, 45840, Note_on_c, 0, 52, 76
2, 45958, Note_on_c, 0, 52, 0
2, 45960, Note_on_c, 0, 58, 78
2, 46048, Note_on_c, 0, 58, 0
2, 46050, Note_on_c, 0, 61, 80
2, 46078, Note_on_c, 0, 61, 0
2, 46080, Note_on_c, 0, 59, 85
2, 46464, Note_on_c, 0, 59, 0
2, 46500, Note_on_c, 0, 66, 80
2, 46524, Note_on_c, 0, 66, 0
2, 46530, Note_on_c, 0, 65, 80
2, 46554, Note_on_c, 0, 65, 0
2, 46560, Note_on_c, 0, 66, 80
2, 46944, Note_on_c, 0, 66, 0
2, 46980, Note_on_c, 0, 71, 80
2, 47004, Note_on_c, 0, 71, 0
2, 47010, Note_on_c, 0, 70, 80
2, 47034, Note_on_c, 0, 70, 0
2, 47040, Note_on_c, 0, 71, 85
2, 47398, Note_on_c, 0, 71, 0
2, 47400, Note_on_c, 0, 73, 85
2, 47488, Note_on_c, 0, 73, 0
2, 47490, Note_on_c, 0, 74, 85
2, 47518, Note_on_c, 0, 74, 0
2, 47520, Note_on_c, 0, 71, 85
2, 47638, Note_on_c, 0, 71, 0
2, 47640, Note_on_c, 0, 78, 66
2, 47724, Note_on_c, 0, 78, 0
2, 47760, Note_on_c, 0, 78, 71
2, 47844, Note_on_c, 0, 78, 0
2, 47880, Note_on_c, 0, 78, 76
2, 47964, Note_on_c, 0, 78, 0
2, 48000, Note_on_c, 0, 78, 88
2, 48240, Note_on_c, 0, 78, 0
2, 48240, Note_on_c, 0, 79, 80
2, 48264, Note_on_c, 0, 79, 0
2, 48270, Note_on_c, 0, 78, 80
2, 48294, Note_on_c, 0, 78, 0
2, 48300, Note_on_c, 0, 76, 80
2, 48324, Note_on_c, 0, 76, 0
2, 48330, Note_on_c, 0, 78, 80
2, 48354, Note_on_c, 0, 78, 0
2, 48360, Note_on_c, 0, 79, 80
2, 48432, Note_on_c, 0, 79, 0
2, 48450, Note_on_c, 0, 76, 80
2, 48474, Note_on_c, 0, 76, 0
2, 48480, Note_on_c, 0, 76, 80
2, 48720, Note_on_c, 0, 76, 0
2, 48720, Note_on_c, 0, 74, 80
2, 48744, Note_on_c, 0, 74, 0
2, 48750, Note_on_c, 0, 76, 80
2, 48774, Note_on_c, 0, 76, 0
2, 48780, Note_on_c, 0, 74, 80
2, 48804, Note_on_c, 0, 74, 0
2, 48810, Note_on_c, 0, 73, 80
2, 48834, Note_on_c, 0, 73, 0
2, 48840, Note_on_c, 0, 78, 80
2, 48912, Note_on_c, 0, 78, 0
2, 48930, Note_on_c, 0, 71, 80
2, 48954, Note_on_c, 0, 71, 0
2, 48960, Note_on_c, 0, 73, 80
2, 48984, Note_on_c, 0, 73, 0
2, 48990, Note_on_c, 0, 74, 80
2, 49014, Note_on_c, 0, 74, 0
2, 49020, Note_on_c, 0, 73, 80
2, 49036, Note_on_c, 0, 73, 0
2, 49040, Note_on_c, 0, 74, 80
2, 49056, Note_on_c, 0, 74, 0
2, 49060, Note_on_c, 0, 73, 80
2, 49076, Note_on_c, 0, 73, 0
2, 49080, Note_on_c, 0, 71, 80
2, 49176, Note_on_c, 0, 71, 0
2, 49200, Note_on_c, 0, 74, 80
2, 49248, Note_on_c, 0, 74, 0
2, 49260, Note_on_c, 0, 73, 80
2, 49308, Note_on_c, 0, 73, 0
2, 49320, Note_on_c, 0, 71, 80
2, 49368, Note_on_c, 0, 71, 0
2, 49380, Note_on_c, 0, 70, 80
2, 49428, Note_on_c, 0, 70, 0
2, 49440, Note_on_c, 0, 71, 80
2, 49632, Note_on_c, 0, 71, 0
2, 49800, Note_on_c, 0, 83, 80
2, 49848, Note_on_c, 0, 83, 0
2, 49860, Note_on_c, 0, 79, 80
2, 49908, Note_on_c, 0, 79, 0
2, 49920, Note_on_c, 0, 78, 85
2, 49978, Note_on_c, 0, 78, 0
2, 49980, Note_on_c, 0, 76, 85
2, 50038, Note_on_c, 0, 76, 0
2, 50040, Note_on_c, 0, 75, 85
2, 50098, Note_on_c, 0, 75, 0
2, 50100, Note_on_c, 0, 76, 85
2, 50158, Note_on_c, 0, 76, 0
2, 50160, Note_on_c, 0, 78, 85
2, 50218, Note_on_c, 0, 78, 0
2, 50220, Note_on_c, 0, 76, 85
2, 50278, Note_on_c, 0, 76, 0
2, 50280, Note_on_c, 0, 79, 85
2, 50338, Note_on_c, 0, 79, 0
2, 50340, Note_on_c, 0, 76, 85
2, 50398, Note_on_c, 0, 76, 0
2, 50400, Note_on_c, 0, 70, 85
2, 50638, Note_on_c, 0, 70, 0
2, 50640, Note_on_c, 0, 71, 85
2, 50688, Note_on_c, 0, 71, 0
2, 50760, Note_on_c, 0, 78, 64
2, 50818, Note_on_c, 0, 78, 0
2, 50820, Note_on_c, 0, 74, 64
2, 50878, Note_on_c, 0, 74, 0
2, 50880, Note_on_c, 0, 73, 64
2, 50938, Note_on_c, 0, 73, 0
2, 50940, Note_on_c, 0, 71, 64
2, 50998, Note_on_c, 0, 71, 0
2, 51000, Note_on_c, 0, 70, 64
2, 51058, Note_on_c, 0, 70, 0
2, 51060, Note_on_c, 0, 71, 64
2, 51118, Note_on_c, 0, 71, 0
2, 51120, Note_on_c, 0, 73, 64
2, 51178, Note_on_c, 0, 73, 0
2, 51180, Note_on_c, 0, 71, 64
2, 51238, Note_on_c, 0, 71, 0
2, 51240, Note_on_c, 0, 74, 64
2, 51298, Note_on_c, 0, 74, 0
2, 51300, Note_on_c, 0, 71, 64
2, 51358, Note_on_c, 0, 71, 0
2, 51360, Note_on_c, 0, 65, 64
2, 51598, Note_on_c, 0, 65, 0
2, 51600, Note_on_c, 0, 66, 64
2, 51648, Note_on_c, 0, 66, 0
2, 51720, Note_on_c, 0, 73, 88
2, 51750, Note_on_c, 0, 73, 0
2, 51780, Note_on_c, 0, 64, 88
2, 51810, Note_on_c, 0, 64, 0
2, 51840, Note_on_c, 0, 64, 88
2, 51898, Note_on_c, 0, 64, 0
2, 51900, Note_on_c, 0, 62, 88
2, 51958, Note_on_c, 0, 62, 0
2, 51960, Note_on_c, 0, 61, 88
2, 52018, Note_on_c, 0, 61, 0
2, 52020, Note_on_c, 0, 62, 88
2, 52078, Note_on_c, 0, 62, 0
2, 52080, Note_on_c, 0, 61, 88
2, 52138, Note_on_c, 0, 61, 0
2, 52140, Note_on_c, 0, 59, 88
2, 52170, Note_on_c, 0, 59, 0
2, 52200, Note_on_c, 0, 58, 88
2, 52230, Note_on_c, 0, 58, 0
2, 52260, Note_on_c, 0, 59, 88
2, 52290, Note_on_c, 0, 59, 0
2, 52320, Note_on_c, 0, 66, 88
2, 52558, Note_on_c, 0, 66, 0
2, 52800, Note_on_c, 0, 62, 96
2, 52800, Note_on_c, 0, 66, 96
2, 52800, Note_on_c, 0, 71, 96
2, 52918, Note_on_c, 0, 71, 0
2, 52918, Note_on_c, 0, 66, 0
2, 52918, Note_on_c, 0, 62, 0
2, 52920, Note_on_c, 0, 83, 66
2, 52978, Note_on_c, 0, 83, 0
2, 52980, Note_on_c, 0, 71, 67
2, 53038, Note_on_c, 0, 71, 0
2, 53040, Note_on_c, 0, 82, 68
2, 53098, Note_on_c, 0, 82, 0
2, 53100, Note_on_c, 0, 71, 69
2, 53158, Note_on_c, 0, 71, 0
2, 53160, Note_on_c, 0, 81, 70
2, 53218, Note_on_c, 0, 81, 0
2, 53220, Note_on_c, 0, 71, 71
2, 53278, Note_on_c, 0, 71, 0
2, 53280, Note_on_c, 0, 79, 72
2, 53338, Note_on_c, 0, 79, 0
2, 53340, Note_on_c, 0, 71, 73
2, 53398, Note_on_c, 0, 71, 0
2, 53400, Note_on_c, 0, 78, 74
2, 53458, Note_on_c, 0, 78, 0
2, 53460, Note_on_c, 0, 71, 75
2, 53518, Note_on_c, 0, 71, 0
2, 53520, Note_on_c, 0, 79, 76
2, 53578, Note_on_c, 0, 79, 0
2, 53580, Note_on_c, 0, 71, 77
2, 53638, Note_on_c, 0, 71, 0
2, 53640, Note_on_c, 0, 76, 78
2, 53698, Note_on_c, 0, 76, 0
2, 53700, Note_on_c, 0, 70, 79
2, 53758, Note_on_c, 0, 70, 0
2, 53760, Note_on_c, 0, 66, 96
2, 53760, Note_on_c, 0, 71, 96
2, 53760, Note_on_c, 0, 74, 96
2, 53878, Note_on_c, 0, 74, 0
2, 53878, Note_on_c, 0, 71, 0
2, 53878, Note_on_c, 0, 66, 0
2, 53880, Note_on_c, 0, 83, 66
2, 53938, Note_on_c, 0, 83, 0
2, 53940, Note_on_c, 0, 71, 67
2, 53998, Note_on_c, 0, 71, 0
2, 54000, Note_on_c, 0, 82, 68
2, 54058, Note_on_c, 0, 82, 0
2, 54060, Note_on_c, 0, 71, 69
2, 54118, Note_on_c, 0, 71, 0
2, 54120, Note_on_c, 0, 81, 70
2, 54178, Note_on_c, 0, 81, 0
2, 54180, Note_on_c, 0, 71, 71
2, 54238, Note_on_c, 0, 71, 0
2, 54240, Note_on_c, 0, 79, 72
2, 54298, Note_on_c, 0, 79, 0
2, 54300, Note_on_c, 0, 71, 73
2, 54358, Note_on_c, 0, 71, 0
2, 54360, Note_on_c, 0, 78, 74
2, 54418, Note_on_c, 0, 78, 0
2, 54420, Note_on_c, 0, 71, 75
2, 54478, Note_on_c, 0, 71, 0
2, 54480, Note_on_c, 0, 79, 76
2, 54538, Note_on_c, 0, 79, 0
2, 54540, Note_on_c, 0, 71, 77
2, 54598, Note_on_c, 0, 71, 0
2, 54600, Note_on_c, 0, 76, 78
2, 54658, Note_on_c, 0, 76, 0
2, 54660, Note_on_c, 0, 70, 79
2, 54718, Note_on_c, 0, 70, 0
2, 54720, Note_on_c, 0, 66, 96
2, 54720, Note_on_c, 0, 71, 96
2, 54720, Note_on_c, 0, 74, 96
2, 54838, Note_on_c, 0, 74, 0
2, 54838, Note_on_c, 0, 71, 0
2, 54838, Note_on_c, 0, 66, 0
2, 54840, Note_on_c, 0, 83, 48
2, 54898, Note_on_c, 0, 83, 0
2, 54900, Note_on_c, 0, 71, 48
2, 54958, Note_on_c, 0, 71, 0
2, 54960, Note_on_c, 0, 82, 48
2, 55018, Note_on_c, 0, 82, 0
2, 55020, Note_on_c, 0, 71, 48
2, 55078, Note_on_c, 0, 71, 0
2, 55080, Note_on_c, 0, 81, 48
2, 55138, Note_on_c, 0, 81, 0
2, 55140, Note_on_c, 0, 71, 48
2, 55198, Note_on_c, 0, 71, 0
2, 55200, Note_on_c, 0, 79, 48
2, 55258, Note_on_c, 0, 79, 0
2, 55260, Note_on_c, 0, 71, 48
2, 55318, Note_on_c, 0, 71, 0
2, 55320, Note_on_c, 0, 78, 48
2, 55378, Note_on_c, 0, 78, 0
2, 55380, Note_on_c, 0, 71, 48
2, 55438, Note_on_c, 0, 71, 0
2, 55440, Note_on_c, 0, 79, 48
2, 55498, Note_on_c, 0, 79, 0
2, 55500, Note_on_c, 0, 71, 48
2, 55558, Note_on_c, 0, 71, 0
2, 55560, Note_on_c, 0, 83, 48
2, 55618, Note_on_c, 0, 83, 0
2, 55620, Note_on_c, 0, 71, 48
2, 55678, Note_on_c, 0, 71, 0
2, 55680, Note_on_c, 0, 78, 48
2, 55738, Note_on_c, 0, 78, 0
2, 55740, Note_on_c, 0, 71, 49
2, 55798, Note_on_c, 0, 71, 0
2, 55800, Note_on_c, 0, 76, 50
2, 55858, Note_on_c, 0, 76, 0
2, 55860, Note_on_c, 0, 71, 51
2, 55918, Note_on_c, 0, 71, 0
2, 55920, Note_on_c, 0, 78, 52
2, 55978, Note_on_c, 0, 78, 0
2, 55980, Note_on_c, 0, 71, 53
2, 56038, Note_on_c, 0, 71, 0
2, 56040, Note_on_c, 0, 74, 54
2, 56098, Note_on_c, 0, 74, 0
2, 56100, Note_on_c, 0, 71, 55
2, 56158, Note_on_c, 0, 71, 0
2, 56160, Note_on_c, 0, 76, 56
2, 56218, Note_on_c, 0, 76, 0
2, 56220, Note_on_c, 0, 71, 57
2, 56278, Note_on_c, 0, 71, 0
2, 56280, Note_on_c, 0, 74, 58
2, 56338, Note_on_c, 0, 74, 0
2, 56340, Note_on_c, 0, 71, 59
2, 56398, Note_on_c, 0, 71, 0
2, 56400, Note_on_c, 0, 76, 60
2, 56458, Note_on_c, 0, 76, 0
2, 56460, Note_on_c, 0, 71, 61
2, 56518, Note_on_c, 0, 71, 0
2, 56520, Note_on_c, 0, 73, 62
2, 56578, Note_on_c, 0, 73, 0
2, 56580, Note_on_c, 0, 71, 63
2, 56638, Note_on_c, 0, 71, 0
2, 56640, Note_on_c, 0, 74, 64
2, 56698, Note_on_c, 0, 74, 0
2, 56700, Note_on_c, 0, 71, 65
2, 56758, Note_on_c, 0, 71, 0
2, 56760, Note_on_c, 0, 73, 66
2, 56818, Note_on_c, 0, 73, 0
2, 56820, Note_on_c, 0, 71, 67
2, 56878, Note_on_c, 0, 71, 0
2, 56880, Note_on_c, 0, 74, 68
2, 56938, Note_on_c, 0, 74, 0
2, 56940, Note_on_c, 0, 71, 69
2, 56998, Note_on_c, 0, 71, 0
2, 57000, Note_on_c, 0, 78, 70
2, 57058, Note_on_c, 0, 78, 0
2, 57060, Note_on_c, 0, 71, 71
2, 57118, Note_on_c, 0, 71, 0
2, 57120, Note_on_c, 0, 77, 72
2, 57178, Note_on_c, 0, 77, 0
2, 57180, Note_on_c, 0, 71, 73
2, 57238, Note_on_c, 0, 71, 0
2, 57240, Note_on_c, 0, 77, 74
2, 57298, Note_on_c, 0, 77, 0
2, 57300, Note_on_c, 0, 71, 75
2, 57358, Note_on_c, 0, 71, 0
2, 57360, Note_on_c, 0, 76, 76
2, 57418, Note_on_c, 0, 76, 0
2, 57420, Note_on_c, 0, 70, 77
2, 57478, Note_on_c, 0, 70, 0
2, 57480, Note_on_c, 0, 76, 78
2, 57538, Note_on_c, 0, 76, 0
2, 57540, Note_on_c, 0, 70, 79
2, 57598, Note_on_c, 0, 70, 0
2, 57600, Note_on_c, 0, 74, 80
2, 57658, Note_on_c, 0, 74, 0
2, 57660, Note_on_c, 0, 71, 79
2, 57718, Note_on_c, 0, 71, 0
2, 57720, Note_on_c, 0, 74, 78
2, 57778, Note_on_c, 0, 74, 0
2, 57780, Note_on_c, 0, 71, 77
2, 57838, Note_on_c, 0, 71, 0
2, 57840, Note_on_c, 0, 78, 76
2, 57898, Note_on_c, 0, 78, 0
2, 57900, Note_on_c, 0, 69, 75
2, 57958, Note_on_c, 0, 69, 0
2, 57960, Note_on_c, 0, 78, 74
2, 58018, Note_on_c, 0, 78, 0
2, 58020, Note_on_c, 0, 69, 73
2, 58078, Note_on_c, 0, 69, 0
2, 58080, Note_on_c, 0, 76, 72
2, 58138, Note_on_c, 0, 76, 0
2, 58140, Note_on_c, 0, 67, 71
2, 58198, Note_on_c, 0, 67, 0
2, 58200, Note_on_c, 0, 76, 70
2, 58258, Note_on_c, 0, 76, 0
2, 58260, Note_on_c, 0, 67, 69
2, 58318, Note_on_c, 0, 67, 0
2, 58320, Note_on_c, 0, 74, 68
2, 58378, Note_on_c, 0, 74, 0
2, 58380, Note_on_c, 0, 71, 67
2, 58438, Note_on_c, 0, 71, 0
2, 58440, Note_on_c, 0, 74, 66
2, 58498, Note_on_c, 0, 74, 0
2, 58500, Note_on_c, 0, 71, 65
2, 58558, Note_on_c, 0, 71, 0
2, 58560, Note_on_c, 0, 70, 48
2, 58678, Note_on_c, 0, 70, 0
2, 58680, Note_on_c, 0, 71, 50
2, 58798, Note_on_c, 0, 71, 0
2, 58800, Note_on_c, 0, 73, 52
2, 58918, Note_on_c, 0, 73, 0
2, 58920, Note_on_c, 0, 76, 54
2, 58944, Note_on_c, 0, 76, 0
2, 58950, Note_on_c, 0, 74, 55
2, 58974, Note_on_c, 0, 74, 0
2, 58980, Note_on_c, 0, 73, 55
2, 59004, Note_on_c, 0, 73, 0
2, 59010, Note_on_c, 0, 74, 56
2, 59034, Note_on_c, 0, 74, 0
2, 59040, Note_on_c, 0, 76, 56
2, 59136, Note_on_c, 0, 76, 0
2, 59160, Note_on_c, 0, 74, 58
2, 59256, Note_on_c, 0, 74, 0
2, 59280, Note_on_c, 0, 76, 60
2, 59376, Note_on_c, 0, 76, 0
2, 59400, Note_on_c, 0, 73, 62
2, 59496, Note_on_c, 0, 73, 0
2, 59520, Note_on_c, 0, 75, 64
2, 59578, Note_on_c, 0, 75, 0
2, 59580, Note_on_c, 0, 71, 65
2, 59638, Note_on_c, 0, 71, 0
2, 59640, Note_on_c, 0, 76, 66
2, 59698, Note_on_c, 0, 76, 0
2, 59700, Note_on_c, 0, 71, 67
2, 59758, Note_on_c, 0, 71, 0
2, 59760, Note_on_c, 0, 78, 68
2, 59818, Note_on_c, 0, 78, 0
2, 59820, Note_on_c, 0, 71, 69
2, 59878, Note_on_c, 0, 71, 0
2, 59880, Note_on_c, 0, 79, 70
2, 59938, Note_on_c, 0, 79, 0
2, 59940, Note_on_c, 0, 71, 71
2, 59998, Note_on_c, 0, 71, 0
2, 60000, Note_on_c, 0, 81, 72
2, 60058, Note_on_c, 0, 81, 0
2, 60060, Note_on_c, 0, 71, 73
2, 60118, Note_on_c, 0, 71, 0
2, 60120, Note_on_c, 0, 79, 74
2, 60178, Note_on_c, 0, 79, 0
2, 60180, Note_on_c, 0, 71, 75
2, 60238, Note_on_c, 0, 71, 0
2, 60240, Note_on_c, 0, 81, 76
2, 60298, Note_on_c, 0, 81, 0
2, 60300, Note_on_c, 0, 71, 77
2, 60358, Note_on_c, 0, 71, 0
2, 60360, Note_on_c, 0, 78, 78
2, 60418, Note_on_c, 0, 78, 0
2, 60420, Note_on_c, 0, 71, 79
2, 60478, Note_on_c, 0, 71, 0
2, 60480, Note_on_c, 0, 79, 85
2, 60538, Note_on_c, 0, 79, 0
2, 60540, Note_on_c, 0, 71, 85
2, 60598, Note_on_c, 0, 71, 0
2, 60600, Note_on_c, 0, 78, 85
2, 60658, Note_on_c, 0, 78, 0
2, 60660, Note_on_c, 0, 71, 85
2, 60718, Note_on_c, 0, 71, 0
2, 60720, Note_on_c, 0, 79, 85
2, 60778, Note_on_c, 0, 79, 0
2, 60780, Note_on_c, 0, 71, 85
2, 60838, Note_on_c, 0, 71, 0
2, 60840, Note_on_c, 0, 82, 85
2, 60898, Note_on_c, 0, 82, 0
2, 60900, Note_on_c, 0, 71, 85
2, 60958, Note_on_c, 0, 71, 0
2, 60960, Note_on_c, 0, 83, 85
2, 61018, Note_on_c, 0, 83, 0
2, 61020, Note_on_c, 0, 71, 85
2, 61078, Note_on_c, 0, 71, 0
2, 61080, Note_on_c, 0, 82, 85
2, 61138, Note_on_c, 0, 82, 0
2, 61140, Note_on_c, 0, 73, 85
2, 61198, Note_on_c, 0, 73, 0
2, 61200, Note_on_c, 0, 83, 85
2, 61258, Note_on_c, 0, 83, 0
2, 61260, Note_on_c, 0, 71, 85
2, 61318, Note_on_c, 0, 71, 0
2, 61320, Note_on_c, 0, 82, 85
2, 61378, Note_on_c, 0, 82, 0
2, 61380, Note_on_c, 0, 73, 85
2, 61438, Note_on_c, 0, 73, 0
2, 61440, Note_on_c, 0, 83, 85
2, 61500, Note_on_c, 0, 83, 0
2, 61560, Note_on_c, 0, 86, 85
2, 61598, Note_on_c, 0, 86, 0
2, 61600, Note_on_c, 0, 85, 85
2, 61638, Note_on_c, 0, 85, 0
2, 61640, Note_on_c, 0, 83, 85
2, 61678, Note_on_c, 0, 83, 0
2, 61680, Note_on_c, 0, 81, 85
2, 61718, Note_on_c, 0, 81, 0
2, 61720, Note_on_c, 0, 79, 85
2, 61758, Note_on_c, 0, 79, 0
2, 61760, Note_on_c, 0, 78, 85
2, 61798, Note_on_c, 0, 78, 0
2, 61800, Note_on_c, 0, 76, 85
2, 61838, Note_on_c, 0, 76, 0
2, 61840, Note_on_c, 0, 74, 85
2, 61878, Note_on_c, 0, 74, 0
2, 61880, Note_on_c, 0, 73, 85
2, 61918, Note_on_c, 0, 73, 0
2, 61920, Note_on_c, 0, 71, 85
2, 61980, Note_on_c, 0, 71, 0
2, 62040, Note_on_c, 0, 75, 85
2, 62078, Note_on_c, 0, 75, 0
2, 62080, Note_on_c, 0, 76, 85
2, 62118, Note_on_c, 0, 76, 0
2, 62120, Note_on_c, 0, 78, 85
2, 62158, Note_on_c, 0, 78, 0
2, 62160, Note_on_c, 0, 79, 85
2, 62198, Note_on_c, 0, 79, 0
2, 62200, Note_on_c, 0, 78, 85
2, 62238, Note_on_c, 0, 78, 0
2, 62240, Note_on_c, 0, 76, 85
2, 62278, Note_on_c, 0, 76, 0
2, 62280, Note_on_c, 0, 88, 85
2, 62318, Note_on_c, 0, 88, 0
2, 62320, Note_on_c, 0, 85, 85
2, 62358, Note_on_c, 0, 85, 0
2, 62360, Note_on_c, 0, 82, 85
2, 62398, Note_on_c, 0, 82, 0
2, 62400, Note_on_c, 0, 83, 85
2, 62518, Note_on_c, 0, 83, 0
2, 62520, Note_on_c, 0, 79, 85
2, 62558, Note_on_c, 0, 79, 0
2, 62560, Note_on_c, 0, 78, 85
2, 62598, Note_on_c, 0, 78, 0
2, 62600, Note_on_c, 0, 76, 85
2, 62638, Note_on_c, 0, 76, 0
2, 62640, Note_on_c, 0, 74, 85
2, 62700, Note_on_c, 0, 74, 0
2, 62760, Note_on_c, 0, 73, 80
2, 62784, Note_on_c, 0, 73, 0
2, 62790, Note_on_c, 0, 74, 80
2, 62814, Note_on_c, 0, 74, 0
2, 62820, Note_on_c, 0, 73, 80
2, 62836, Note_on_c, 0, 73, 0
2, 62840, Note_on_c, 0, 74, 80
2, 62856, Note_on_c, 0, 74, 0
2, 62860, Note_on_c, 0, 73, 80
2, 62876, Note_on_c, 0, 73, 0
2, 62880, Note_on_c, 0, 71, 80
2, 62976, Note_on_c, 0, 71, 0
2, 63000, Note_on_c, 0, 74, 64
2, 63032, Note_on_c, 0, 74, 0
2, 63040, Note_on_c, 0, 73, 64
2, 63072, Note_on_c, 0, 73, 0
2, 63080, Note_on_c, 0, 71, 64
2, 63112, Note_on_c, 0, 71, 0
2, 63120, Note_on_c, 0, 69, 64
2, 63152, Note_on_c, 0, 69, 0
2, 63160, Note_on_c, 0, 67, 64
2, 63192, Note_on_c, 0, 67, 0
2, 63200, Note_on_c, 0, 66, 64
2, 63232, Note_on_c, 0, 66, 0
2, 63240, Note_on_c, 0, 64, 64
2, 63272, Note_on_c, 0, 64, 0
2, 63280, Note_on_c, 0, 62, 64
2, 63312, Note_on_c, 0, 62, 0
2, 63320, Note_on_c, 0, 61, 64
2, 63352, Note_on_c, 0, 61, 0
2, 63360, Note_on_c, 0, 59, 64
2, 63478, Note_on_c, 0, 59, 0
2, 63600, Note_on_c, 0, 67, 64
2, 63638, Note_on_c, 0, 67, 0
2, 63640, Note_on_c, 0, 70, 64
2, 63678, Note_on_c, 0, 70, 0
2, 63680, Note_on_c, 0, 73, 64
2, 63718, Note_on_c, 0, 73, 0
2, 63720, Note_on_c, 0, 76, 64
2, 63758, Note_on_c, 0, 76, 0
2, 63760, Note_on_c, 0, 79, 64
2, 63798, Note_on_c, 0, 79, 0
2, 63800, Note_on_c, 0, 82, 64
2, 63838, Note_on_c, 0, 82, 0
2, 63840, Note_on_c, 0, 83, 64
2, 63958, Note_on_c, 0, 83, 0
2, 63960, Note_on_c, 0, 79, 64
2, 63998, Note_on_c, 0, 79, 0
2, 64000, Note_on_c, 0, 78, 64
2, 64038, Note_on_c, 0, 78, 0
2, 64040, Note_on_c, 0, 76, 64
2, 64078, Note_on_c, 0, 76, 0
2, 64080, Note_on_c, 0, 74, 64
2, 64140, Note_on_c, 0, 74, 0
2, 64200, Note_on_c, 0, 73, 64
2, 64224, Note_on_c, 0, 73, 0
2, 64230, Note_on_c, 0, 74, 64
2, 64254, Note_on_c, 0, 74, 0
2, 64260, Note_on_c, 0, 73, 64
2, 64276, Note_on_c, 0, 73, 0
2, 64280, Note_on_c, 0, 74, 64
2, 64296, Note_on_c, 0, 74, 0
2, 64300, Note_on_c, 0, 73, 64
2, 64316, Note_on_c, 0, 73, 0
2, 64320, Note_on_c, 0, 71, 64
2, 64438, Note_on_c, 0, 71, 0
2, 64440, Note_on_c, 0, 74, 85
2, 64498, Note_on_c, 0, 74, 0
2, 64500, Note_on_c, 0, 83, 85
2, 64558, Note_on_c, 0, 83, 0
2, 64560, Note_on_c, 0, 76, 85
2, 64618, Note_on_c, 0, 76, 0
2, 64620, Note_on_c, 0, 83, 85
2, 64678, Note_on_c, 0, 83, 0
2, 64680, Note_on_c, 0, 78, 85
2, 64738, Note_on_c, 0, 78, 0
2, 64740, Note_on_c, 0, 83, 85
2, 64798, Note_on_c, 0, 83, 0
2, 64800, Note_on_c, 0, 79, 85
2, 64858, Note_on_c, 0, 79, 0
2, 64860, Note_on_c, 0, 83, 85
2, 64918, Note_on_c, 0, 83, 0
2, 64920, Note_on_c, 0, 78, 85
2, 64978, Note_on_c, 0, 78, 0
2, 64980, Note_on_c, 0, 83, 85
2, 65038, Note_on_c, 0, 83, 0
2, 65040, Note_on_c, 0, 79, 85
2, 65098, Note_on_c, 0, 79, 0
2, 65100, Note_on_c, 0, 83, 85
2, 65158, Note_on_c, 0, 83, 0
2, 65160, Note_on_c, 0, 82, 85
2, 65218, Note_on_c, 0, 82, 0
2, 65220, Note_on_c, 0, 88, 85
2, 65278, Note_on_c, 0, 88, 0
2, 65280, Note_on_c, 0, 86, 85
2, 65338, Note_on_c, 0, 86, 0
2, 65340, Note_on_c, 0, 83, 85
2, 65398, Note_on_c, 0, 83, 0
2, 65400, Note_on_c, 0, 76, 85
2, 65458, Note_on_c, 0, 76, 0
2, 65460, Note_on_c, 0, 85, 85
2, 65518, Note_on_c, 0, 85, 0
2, 65520, Note_on_c, 0, 74, 85
2, 65578, Note_on_c, 0, 74, 0
2, 65580, Note_on_c, 0, 83, 85
2, 65638, Note_on_c, 0, 83, 0
2, 65640, Note_on_c, 0, 73, 85
2, 65698, Note_on_c, 0, 73, 0
2, 65700, Note_on_c, 0, 82, 85
2, 65758, Note_on_c, 0, 82, 0
2, 65760, Note_on_c, 0, 74, 85
2, 65760, Note_on_c, 0, 83, 85
2, 65832, Note_on_c, 0, 83, 0
2, 65832, Note_on_c, 0, 74, 0
2, 65880, Note_on_c, 0, 62, 85
2, 65938, Note_on_c, 0, 62, 0
2, 65940, Note_on_c, 0, 71, 85
2, 65998, Note_on_c, 0, 71, 0
2, 66000, Note_on_c, 0, 64, 85
2, 66058, Note_on_c, 0, 64, 0
2, 66060, Note_on_c, 0, 71, 85
2, 66118, Note_on_c, 0, 71, 0
2, 66120, Note_on_c, 0, 66, 85
2, 66178, Note_on_c, 0, 66, 0
2, 66180, Note_on_c, 0, 71, 85
2, 66238, Note_on_c, 0, 71, 0
2, 66240, Note_on_c, 0, 67, 85
2, 66298, Note_on_c, 0, 67, 0
2, 66300, Note_on_c, 0, 71, 85
2, 66358, Note_on_c, 0, 71, 0
2, 66360, Note_on_c, 0, 66, 85
2, 66418, Note_on_c, 0, 66, 0
2, 66420, Note_on_c, 0, 71, 85
2, 66478, Note_on_c, 0, 71, 0
2, 66480, Note_on_c, 0, 67, 85
2, 66538, Note_on_c, 0, 67, 0
2, 66540, Note_on_c, 0, 71, 85
2, 66598, Note_on_c, 0, 71, 0
2, 66600, Note_on_c, 0, 70, 85
2, 66658, Note_on_c, 0, 70, 0
2, 66660, Note_on_c, 0, 76, 85
2, 66718, Note_on_c, 0, 76, 0
2, 66720, Note_on_c, 0, 74, 85
2, 66778, Note_on_c, 0, 74, 0
2, 66780, Note_on_c, 0, 71, 85
2, 66838, Note_on_c, 0, 71, 0
2, 66840, Note_on_c, 0, 64, 85
2, 66898, Note_on_c, 0, 64, 0
2, 66900, Note_on_c, 0, 73, 85
2, 66958, Note_on_c, 0, 73, 0
2, 66960, Note_on_c, 0, 62, 85
2, 67018, Note_on_c, 0, 62, 0
2, 67020, Note_on_c, 0, 71, 85
2, 67078, Note_on_c, 0, 71, 0
2, 67080, Note_on_c, 0, 61, 85
2, 67138, Note_on_c, 0, 61, 0
2, 67140, Note_on_c, 0, 70, 85
2, 67198, Note_on_c, 0, 70, 0
2, 67200, Note_on_c, 0, 62, 80
2, 67200, Note_on_c, 0, 71, 80
2, 67320, Note_on_c, 0, 71, 0
2, 67320, Note_on_c, 0, 62, 0
2, 67320, Note_on_c, 0, 71, 84
2, 67320, Note_on_c, 0, 74, 84
2, 67392, Note_on_c, 0, 74, 0
2, 67392, Note_on_c, 0, 71, 0
2, 67440, Note_on_c, 0, 74, 88
2, 67440, Note_on_c, 0, 78, 88
2, 67512, Note_on_c, 0, 78, 0
2, 67512, Note_on_c, 0, 74, 0
2, 67560, Note_on_c, 0, 71, 92
2, 67560, Note_on_c, 0, 74, 92
2, 67632, Note_on_c, 0, 74, 0
2, 67632, Note_on_c, 0, 71, 0
2, 67680, Note_on_c, 0, 71, 108
2, 67680, Note_on_c, 0, 74, 108
2, 67680, Note_on_c, 0, 78, 108
2, 67680, Note_on_c, 0, 83, 108
2, 67918, Note_on_c, 0, 83, 0
2, 67918, Note_on_c, 0, 71, 0
2, 67918, Note_on_c, 0, 74, 0
2, 67918, Note_on_c, 0, 78, 0
2, 67918, End_track
3, 0, Start_track
3, 0, MIDI_port, 0
3, 0, Title_t, "by F.J. Haydn  (1st mvmt - allegro moderato)"
3, 0, Program_c, 1, 0
3, 0, Control_c, 1, 7, 127
3, 0, Control_c, 1, 10, 56
3, 960, Control_c, 1, 10, 40
3, 1080, Note_on_c, 1, 47, 85
3, 1140, Note_on_c, 1, 47, 0
3, 1200, Note_on_c, 1, 50, 85
3, 1318, Note_on_c, 1, 50, 0
3, 1320, Note_on_c, 1, 47, 64
3, 1438, Note_on_c, 1, 47, 0
3, 1560, Note_on_c, 1, 46, 85
3, 1620, Note_on_c, 1, 46, 0
3, 1680, Note_on_c, 1, 49, 85
3, 1798, Note_on_c, 1, 49, 0
3, 1800, Note_on_c, 1, 42, 64
3, 1918, Note_on_c, 1, 42, 0
3, 2040, Note_on_c, 1, 43, 68
3, 2158, Note_on_c, 1, 43, 0
3, 2160, Note_on_c, 1, 42, 72
3, 2220, Note_on_c, 1, 42, 0
3, 2280, Note_on_c, 1, 40, 76
3, 2340, Note_on_c, 1, 40, 0
3, 2400, Note_on_c, 1, 38, 80
3, 2638, Note_on_c, 1, 38, 0
3, 3000, Note_on_c, 1, 58, 72
3, 3000, Note_on_c, 1, 61, 72
3, 3118, Note_on_c, 1, 61, 0
3, 3118, Note_on_c, 1, 58, 0
3, 3120, Note_on_c, 1, 58, 85
3, 3120, Note_on_c, 1, 61, 85
3, 3238, Note_on_c, 1, 61, 0
3, 3238, Note_on_c, 1, 58, 0
3, 3240, Note_on_c, 1, 58, 72
3, 3240, Note_on_c, 1, 61, 72
3, 3358, Note_on_c, 1, 61, 0
3, 3358, Note_on_c, 1, 58, 0
3, 3480, Note_on_c, 1, 59, 72
3, 3480, Note_on_c, 1, 66, 72
3, 3598, Note_on_c, 1, 66, 0
3, 3598, Note_on_c, 1, 59, 0
3, 3600, Note_on_c, 1, 59, 85
3, 3600, Note_on_c, 1, 66, 85
3, 3718, Note_on_c, 1, 66, 0
3, 3718, Note_on_c, 1, 59, 0
3, 3720, Note_on_c, 1, 62, 72
3, 3838, Note_on_c, 1, 62, 0
3, 3840, Note_on_c, 1, 64, 85
3, 3958, Note_on_c, 1, 64, 0
3, 3960, Note_on_c, 1, 62, 85
3, 4078, Note_on_c, 1, 62, 0
3, 4080, Note_on_c, 1, 64, 85
3, 4198, Note_on_c, 1, 64, 0
3, 4200, Note_on_c, 1, 66, 85
3, 4318, Note_on_c, 1, 66, 0
3, 4320, Note_on_c, 1, 67, 85
3, 4558, Note_on_c, 1, 67, 0
3, 5280, Note_on_c, 1, 64, 85
3, 5280, Note_on_c, 1, 67, 85
3, 5518, Note_on_c, 1, 67, 0
3, 5518, Note_on_c, 1, 64, 0
3, 5520, Note_on_c, 1, 62, 72
3, 5520, Note_on_c, 1, 66, 72
3, 5580, Note_on_c, 1, 66, 0
3, 5580, Note_on_c, 1, 62, 0
3, 6240, Note_on_c, 1, 64, 48
3, 6240, Note_on_c, 1, 67, 48
3, 6478, Note_on_c, 1, 67, 0
3, 6478, Note_on_c, 1, 64, 0
3, 6480, Note_on_c, 1, 62, 48
3, 6480, Note_on_c, 1, 66, 48
3, 6540, Note_on_c, 1, 66, 0
3, 6540, Note_on_c, 1, 62, 0
3, 7200, Note_on_c, 1, 64, 88
3, 7200, Note_on_c, 1, 67, 88
3, 7438, Note_on_c, 1, 67, 0
3, 7438, Note_on_c, 1, 64, 0
3, 7440, Note_on_c, 1, 62, 85
3, 7440, Note_on_c, 1, 66, 85
3, 7500, Note_on_c, 1, 66, 0
3, 7500, Note_on_c, 1, 62, 0
3, 7560, Note_on_c, 1, 64, 85
3, 7678, Note_on_c, 1, 64, 0
3, 7680, Note_on_c, 1, 66, 85
3, 7918, Note_on_c, 1, 66, 0
3, 7920, Note_on_c, 1, 54, 85
3, 8158, Note_on_c, 1, 54, 0
3, 8160, Note_on_c, 1, 47, 85
3, 8160, Note_on_c, 1, 59, 85
3, 8398, Note_on_c, 1, 59, 0
3, 8398, Note_on_c, 1, 47, 0
3, 8640, Control_c, 1, 10, 40
3, 8760, Note_on_c, 1, 47, 85
3, 8820, Note_on_c, 1, 47, 0
3, 8880, Note_on_c, 1, 50, 85
3, 8998, Note_on_c, 1, 50, 0
3, 9000, Note_on_c, 1, 47, 64
3, 9118, Note_on_c, 1, 47, 0
3, 9240, Note_on_c, 1, 46, 85
3, 9300, Note_on_c, 1, 46, 0
3, 9360, Note_on_c, 1, 49, 85
3, 9478, Note_on_c, 1, 49, 0
3, 9480, Note_on_c, 1, 42, 64
3, 9598, Note_on_c, 1, 42, 0
3, 9720, Note_on_c, 1, 43, 68
3, 9780, Note_on_c, 1, 43, 0
3, 9840, Note_on_c, 1, 42, 72
3, 9958, Note_on_c, 1, 42, 0
3, 9960, Note_on_c, 1, 40, 76
3, 10078, Note_on_c, 1, 40, 0
3, 10080, Note_on_c, 1, 38, 80
3, 10318, Note_on_c, 1, 38, 0
3, 10680, Note_on_c, 1, 55, 85
3, 10798, Note_on_c, 1, 55, 0
3, 10800, Note_on_c, 1, 67, 85
3, 10918, Note_on_c, 1, 67, 0
3, 11160, Note_on_c, 1, 54, 85
3, 11278, Note_on_c, 1, 54, 0
3, 11280, Note_on_c, 1, 66, 85
3, 11518, Note_on_c, 1, 66, 0
3, 11520, Note_on_c, 1, 64, 85
3, 11638, Note_on_c, 1, 64, 0
3, 11640, Note_on_c, 1, 61, 85
3, 11758, Note_on_c, 1, 61, 0
3, 11760, Note_on_c, 1, 62, 85
3, 11760, Note_on_c, 1, 62, 85
3, 11878, Note_on_c, 1, 62, 0
3, 11880, Note_on_c, 1, 56, 85
3, 11998, Note_on_c, 1, 56, 0
3, 12000, Note_on_c, 1, 57, 85
3, 12118, Note_on_c, 1, 62, 0
3, 12120, Note_on_c, 1, 61, 85
3, 12238, Note_on_c, 1, 61, 0
3, 12238, Note_on_c, 1, 57, 0
3, 12480, Note_on_c, 1, 38, 96
3, 12480, Note_on_c, 1, 42, 96
3, 12480, Note_on_c, 1, 45, 96
3, 12480, Note_on_c, 1, 50, 96
3, 12598, Note_on_c, 1, 50, 0
3, 12598, Note_on_c, 1, 38, 0
3, 12598, Note_on_c, 1, 42, 0
3, 12598, Note_on_c, 1, 45, 0
3, 12600, Note_on_c, 1, 50, 66
3, 12720, Note_on_c, 1, 52, 68
3, 12816, Note_on_c, 1, 52, 0
3, 12840, Note_on_c, 1, 54, 70
3, 12936, Note_on_c, 1, 54, 0
3, 12960, Note_on_c, 1, 55, 72
3, 13056, Note_on_c, 1, 55, 0
3, 13080, Note_on_c, 1, 54, 74
3, 13176, Note_on_c, 1, 54, 0
3, 13200, Note_on_c, 1, 55, 76
3, 13296, Note_on_c, 1, 55, 0
3, 13320, Note_on_c, 1, 59, 78
3, 13416, Note_on_c, 1, 59, 0
3, 13416, Note_on_c, 1, 50, 0
3, 13440, Note_on_c, 1, 50, 96
3, 13440, Note_on_c, 1, 45, 96
3, 13440, Note_on_c, 1, 42, 96
3, 13440, Note_on_c, 1, 38, 96
3, 13558, Note_on_c, 1, 38, 0
3, 13558, Note_on_c, 1, 50, 0
3, 13558, Note_on_c, 1, 45, 0
3, 13558, Note_on_c, 1, 42, 0
3, 13560, Note_on_c, 1, 50, 66
3, 13680, Note_on_c, 1, 52, 68
3, 13776, Note_on_c, 1, 52, 0
3, 13800, Note_on_c, 1, 54, 70
3, 13896, Note_on_c, 1, 54, 0
3, 13920, Note_on_c, 1, 55, 72
3, 14016, Note_on_c, 1, 55, 0
3, 14040, Note_on_c, 1, 54, 74
3, 14136, Note_on_c, 1, 54, 0
3, 14160, Note_on_c, 1, 55, 76
3, 14256, Note_on_c, 1, 55, 0
3, 14280, Note_on_c, 1, 59, 78
3, 14376, Note_on_c, 1, 59, 0
3, 14376, Note_on_c, 1, 50, 0
3, 14400, Note_on_c, 1, 38, 96
3, 14400, Note_on_c, 1, 42, 96
3, 14400, Note_on_c, 1, 45, 96
3, 14400, Note_on_c, 1, 50, 96
3, 14518, Note_on_c, 1, 50, 0
3, 14518, Note_on_c, 1, 38, 0
3, 14518, Note_on_c, 1, 42, 0
3, 14518, Note_on_c, 1, 45, 0
3, 14520, Note_on_c, 1, 50, 48
3, 14640, Note_on_c, 1, 52, 48
3, 14736, Note_on_c, 1, 52, 0
3, 14760, Note_on_c, 1, 54, 48
3, 14856, Note_on_c, 1, 54, 0
3, 14880, Note_on_c, 1, 55, 48
3, 14976, Note_on_c, 1, 55, 0
3, 15000, Note_on_c, 1, 54, 48
3, 15096, Note_on_c, 1, 54, 0
3, 15120, Note_on_c, 1, 55, 48
3, 15216, Note_on_c, 1, 55, 0
3, 15240, Note_on_c, 1, 59, 48
3, 15336, Note_on_c, 1, 59, 0
3, 15336, Note_on_c, 1, 50, 0
3, 15360, Note_on_c, 1, 54, 48
3, 15478, Note_on_c, 1, 54, 0
3, 15480, Note_on_c, 1, 53, 50
3, 15598, Note_on_c, 1, 53, 0
3, 15600, Note_on_c, 1, 54, 52
3, 15718, Note_on_c, 1, 54, 0
3, 15720, Note_on_c, 1, 57, 54
3, 15838, Note_on_c, 1, 57, 0
3, 15840, Note_on_c, 1, 55, 56
3, 15958, Note_on_c, 1, 55, 0
3, 15960, Note_on_c, 1, 54, 58
3, 16078, Note_on_c, 1, 54, 0
3, 16080, Note_on_c, 1, 55, 60
3, 16198, Note_on_c, 1, 55, 0
3, 16200, Note_on_c, 1, 59, 62
3, 16318, Note_on_c, 1, 59, 0
3, 16320, Note_on_c, 1, 54, 64
3, 16438, Note_on_c, 1, 54, 0
3, 16440, Note_on_c, 1, 53, 66
3, 16558, Note_on_c, 1, 53, 0
3, 16560, Note_on_c, 1, 54, 68
3, 16678, Note_on_c, 1, 54, 0
3, 16680, Note_on_c, 1, 57, 70
3, 16798, Note_on_c, 1, 57, 0
3, 16800, Note_on_c, 1, 55, 72
3, 16858, Note_on_c, 1, 55, 0
3, 16860, Note_on_c, 1, 59, 73
3, 16918, Note_on_c, 1, 59, 0
3, 16920, Note_on_c, 1, 55, 74
3, 16978, Note_on_c, 1, 55, 0
3, 16980, Note_on_c, 1, 59, 75
3, 17038, Note_on_c, 1, 59, 0
3, 17040, Note_on_c, 1, 54, 76
3, 17098, Note_on_c, 1, 54, 0
3, 17100, Note_on_c, 1, 60, 77
3, 17158, Note_on_c, 1, 60, 0
3, 17160, Note_on_c, 1, 54, 78
3, 17218, Note_on_c, 1, 54, 0
3, 17220, Note_on_c, 1, 60, 79
3, 17278, Note_on_c, 1, 60, 0
3, 17280, Note_on_c, 1, 55, 80
3, 17338, Note_on_c, 1, 55, 0
3, 17340, Note_on_c, 1, 59, 79
3, 17398, Note_on_c, 1, 59, 0
3, 17400, Note_on_c, 1, 55, 78
3, 17458, Note_on_c, 1, 55, 0
3, 17460, Note_on_c, 1, 59, 77
3, 17518, Note_on_c, 1, 59, 0
3, 17520, Note_on_c, 1, 57, 76
3, 17578, Note_on_c, 1, 57, 0
3, 17580, Note_on_c, 1, 60, 75
3, 17638, Note_on_c, 1, 60, 0
3, 17640, Note_on_c, 1, 57, 74
3, 17698, Note_on_c, 1, 57, 0
3, 17700, Note_on_c, 1, 60, 73
3, 17758, Note_on_c, 1, 60, 0
3, 17760, Note_on_c, 1, 55, 72
3, 17818, Note_on_c, 1, 55, 0
3, 17820, Note_on_c, 1, 59, 71
3, 17878, Note_on_c, 1, 59, 0
3, 17880, Note_on_c, 1, 55, 70
3, 17938, Note_on_c, 1, 55, 0
3, 17940, Note_on_c, 1, 59, 69
3, 17998, Note_on_c, 1, 59, 0
3, 18000, Note_on_c, 1, 56, 68
3, 18058, Note_on_c, 1, 56, 0
3, 18060, Note_on_c, 1, 59, 67
3, 18118, Note_on_c, 1, 59, 0
3, 18120, Note_on_c, 1, 56, 66
3, 18178, Note_on_c, 1, 56, 0
3, 18180, Note_on_c, 1, 59, 65
3, 18238, Note_on_c, 1, 59, 0
3, 18240, Note_on_c, 1, 45, 64
3, 18298, Note_on_c, 1, 45, 0
3, 18300, Note_on_c, 1, 57, 64
3, 18358, Note_on_c, 1, 57, 0
3, 18360, Note_on_c, 1, 47, 64
3, 18418, Note_on_c, 1, 47, 0
3, 18420, Note_on_c, 1, 57, 64
3, 18478, Note_on_c, 1, 57, 0
3, 18480, Note_on_c, 1, 49, 64
3, 18538, Note_on_c, 1, 49, 0
3, 18540, Note_on_c, 1, 57, 64
3, 18598, Note_on_c, 1, 57, 0
3, 18600, Note_on_c, 1, 50, 64
3, 18658, Note_on_c, 1, 50, 0
3, 18660, Note_on_c, 1, 57, 64
3, 18718, Note_on_c, 1, 57, 0
3, 18720, Note_on_c, 1, 52, 64
3, 18778, Note_on_c, 1, 52, 0
3, 18780, Note_on_c, 1, 57, 64
3, 18838, Note_on_c, 1, 57, 0
3, 18840, Note_on_c, 1, 51, 64
3, 18898, Note_on_c, 1, 51, 0
3, 18900, Note_on_c, 1, 57, 64
3, 18958, Note_on_c, 1, 57, 0
3, 18960, Note_on_c, 1, 52, 64
3, 19018, Note_on_c, 1, 52, 0
3, 19020, Note_on_c, 1, 57, 64
3, 19078, Note_on_c, 1, 57, 0
3, 19080, Note_on_c, 1, 49, 64
3, 19138, Note_on_c, 1, 49, 0
3, 19140, Note_on_c, 1, 57, 64
3, 19198, Note_on_c, 1, 57, 0
3, 19200, Note_on_c, 1, 50, 64
3, 19318, Note_on_c, 1, 50, 0
3, 19320, Note_on_c, 1, 52, 66
3, 19438, Note_on_c, 1, 52, 0
3, 19440, Note_on_c, 1, 54, 68
3, 19558, Note_on_c, 1, 54, 0
3, 19560, Note_on_c, 1, 55, 70
3, 19678, Note_on_c, 1, 55, 0
3, 19680, Note_on_c, 1, 57, 72
3, 19798, Note_on_c, 1, 57, 0
3, 19800, Note_on_c, 1, 55, 74
3, 19918, Note_on_c, 1, 55, 0
3, 19920, Note_on_c, 1, 57, 76
3, 20038, Note_on_c, 1, 57, 0
3, 20040, Note_on_c, 1, 54, 78
3, 20158, Note_on_c, 1, 54, 0
3, 20160, Note_on_c, 1, 55, 85
3, 20278, Note_on_c, 1, 55, 0
3, 20280, Note_on_c, 1, 54, 85
3, 20398, Note_on_c, 1, 54, 0
3, 20400, Note_on_c, 1, 55, 85
3, 20518, Note_on_c, 1, 55, 0
3, 20520, Note_on_c, 1, 67, 85
3, 20580, Note_on_c, 1, 67, 0
3, 20640, Note_on_c, 1, 66, 85
3, 20700, Note_on_c, 1, 66, 0
3, 20760, Note_on_c, 1, 61, 85
3, 20820, Note_on_c, 1, 61, 0
3, 20880, Note_on_c, 1, 62, 85
3, 20940, Note_on_c, 1, 62, 0
3, 21000, Note_on_c, 1, 64, 85
3, 21060, Note_on_c, 1, 64, 0
3, 21120, Note_on_c, 1, 66, 85
3, 21358, Note_on_c, 1, 66, 0
3, 21600, Note_on_c, 1, 55, 85
3, 21838, Note_on_c, 1, 55, 0
3, 22200, Note_on_c, 1, 54, 85
3, 22260, Note_on_c, 1, 54, 0
3, 22320, Note_on_c, 1, 55, 85
3, 22380, Note_on_c, 1, 55, 0
3, 22440, Note_on_c, 1, 57, 85
3, 22500, Note_on_c, 1, 57, 0
3, 22560, Note_on_c, 1, 50, 85
3, 22798, Note_on_c, 1, 50, 0
3, 23040, Note_on_c, 1, 55, 64
3, 23278, Note_on_c, 1, 55, 0
3, 23640, Note_on_c, 1, 54, 64
3, 23700, Note_on_c, 1, 54, 0
3, 23760, Note_on_c, 1, 55, 64
3, 23820, Note_on_c, 1, 55, 0
3, 23880, Note_on_c, 1, 57, 64
3, 23940, Note_on_c, 1, 57, 0
3, 24000, Note_on_c, 1, 50, 64
3, 24118, Note_on_c, 1, 50, 0
3, 24120, Note_on_c, 1, 62, 64
3, 24238, Note_on_c, 1, 62, 0
3, 24240, Note_on_c, 1, 64, 64
3, 24358, Note_on_c, 1, 64, 0
3, 24360, Note_on_c, 1, 66, 64
3, 24478, Note_on_c, 1, 66, 0
3, 24480, Note_on_c, 1, 67, 64
3, 24598, Note_on_c, 1, 67, 0
3, 24600, Note_on_c, 1, 66, 64
3, 24718, Note_on_c, 1, 66, 0
3, 24720, Note_on_c, 1, 67, 64
3, 24838, Note_on_c, 1, 67, 0
3, 24840, Note_on_c, 1, 69, 64
3, 24958, Note_on_c, 1, 69, 0
3, 24960, Note_on_c, 1, 71, 64
3, 25078, Note_on_c, 1, 71, 0
3, 25080, Note_on_c, 1, 55, 64
3, 25140, Note_on_c, 1, 55, 0
3, 25200, Note_on_c, 1, 57, 64
3, 25260, Note_on_c, 1, 57, 0
3, 25320, Note_on_c, 1, 45, 64
3, 25380, Note_on_c, 1, 45, 0
3, 25440, Note_on_c, 1, 50, 64
3, 25512, Note_on_c, 1, 50, 0
3, 25560, Note_on_c, 1, 38, 80
3, 25618, Note_on_c, 1, 38, 0
3, 25620, Note_on_c, 1, 50, 80
3, 25678, Note_on_c, 1, 50, 0
3, 25680, Note_on_c, 1, 40, 80
3, 25738, Note_on_c, 1, 40, 0
3, 25740, Note_on_c, 1, 52, 80
3, 25798, Note_on_c, 1, 52, 0
3, 25800, Note_on_c, 1, 42, 80
3, 25858, Note_on_c, 1, 42, 0
3, 25860, Note_on_c, 1, 54, 80
3, 25918, Note_on_c, 1, 54, 0
3, 25920, Note_on_c, 1, 43, 85
3, 25978, Note_on_c, 1, 43, 0
3, 25980, Note_on_c, 1, 55, 85
3, 26038, Note_on_c, 1, 55, 0
3, 26040, Note_on_c, 1, 42, 85
3, 26098, Note_on_c, 1, 42, 0
3, 26100, Note_on_c, 1, 54, 85
3, 26158, Note_on_c, 1, 54, 0
3, 26160, Note_on_c, 1, 43, 85
3, 26218, Note_on_c, 1, 43, 0
3, 26220, Note_on_c, 1, 55, 85
3, 26278, Note_on_c, 1, 55, 0
3, 26280, Note_on_c, 1, 45, 85
3, 26338, Note_on_c, 1, 45, 0
3, 26340, Note_on_c, 1, 57, 85
3, 26398, Note_on_c, 1, 57, 0
3, 26400, Note_on_c, 1, 47, 85
3, 26458, Note_on_c, 1, 47, 0
3, 26460, Note_on_c, 1, 59, 85
3, 26518, Note_on_c, 1, 59, 0
3, 26520, Note_on_c, 1, 55, 85
3, 26580, Note_on_c, 1, 55, 0
3, 26640, Note_on_c, 1, 57, 85
3, 26700, Note_on_c, 1, 57, 0
3, 26760, Note_on_c, 1, 45, 85
3, 26820, Note_on_c, 1, 45, 0
3, 26880, Note_on_c, 1, 50, 85
3, 27118, Note_on_c, 1, 50, 0
3, 27360, Note_on_c, 1, 38, 96
3, 27360, Note_on_c, 1, 42, 96
3, 27360, Note_on_c, 1, 45, 96
3, 27360, Note_on_c, 1, 50, 96
3, 27598, Note_on_c, 1, 50, 0
3, 27598, Note_on_c, 1, 38, 0
3, 27598, Note_on_c, 1, 42, 0
3, 27598, Note_on_c, 1, 45, 0
3, 27960, Note_on_c, 1, 50, 85
3, 28008, Note_on_c, 1, 50, 0
3, 28080, Note_on_c, 1, 54, 85
3, 28198, Note_on_c, 1, 54, 0
3, 28200, Note_on_c, 1, 50, 64
3, 28320, Note_on_c, 1, 50, 0
3, 28440, Note_on_c, 1, 48, 85
3, 28488, Note_on_c, 1, 48, 0
3, 28560, Note_on_c, 1, 54, 85
3, 28673, Note_on_c, 1, 54, 0
3, 28680, Note_on_c, 1, 48, 64
3, 28793, Note_on_c, 1, 48, 0
3, 28920, Note_on_c, 1, 45, 85
3, 28980, Note_on_c, 1, 45, 0
3, 29040, Note_on_c, 1, 51, 85
3, 29158, Note_on_c, 1, 51, 0
3, 29160, Note_on_c, 1, 45, 64
3, 29278, Note_on_c, 1, 45, 0
3, 29400, Note_on_c, 1, 42, 85
3, 29472, Note_on_c, 1, 42, 0
3, 29520, Note_on_c, 1, 51, 85
3, 29638, Note_on_c, 1, 51, 0
3, 29640, Note_on_c, 1, 57, 85
3, 29758, Note_on_c, 1, 57, 0
3, 29880, Note_on_c, 1, 52, 85
3, 29928, Note_on_c, 1, 52, 0
3, 30000, Note_on_c, 1, 55, 85
3, 30118, Note_on_c, 1, 55, 0
3, 30120, Note_on_c, 1, 52, 64
3, 30238, Note_on_c, 1, 52, 0
3, 30360, Note_on_c, 1, 51, 85
3, 30408, Note_on_c, 1, 51, 0
3, 30480, Note_on_c, 1, 54, 85
3, 30598, Note_on_c, 1, 54, 0
3, 30600, Note_on_c, 1, 47, 64
3, 30718, Note_on_c, 1, 47, 0
3, 30840, Note_on_c, 1, 48, 68
3, 30958, Note_on_c, 1, 48, 0
3, 30960, Note_on_c, 1, 47, 72
3, 31008, Note_on_c, 1, 47, 0
3, 31080, Note_on_c, 1, 45, 76
3, 31128, Note_on_c, 1, 45, 0
3, 31200, Note_on_c, 1, 43, 80
3, 31438, Note_on_c, 1, 43, 0
3, 31800, Note_on_c, 1, 63, 85
3, 31800, Note_on_c, 1, 66, 85
3, 31918, Note_on_c, 1, 66, 0
3, 31918, Note_on_c, 1, 63, 0
3, 31920, Note_on_c, 1, 66, 85
3, 31920, Note_on_c, 1, 63, 85
3, 32038, Note_on_c, 1, 63, 0
3, 32038, Note_on_c, 1, 66, 0
3, 32040, Note_on_c, 1, 66, 85
3, 32040, Note_on_c, 1, 63, 85
3, 32158, Note_on_c, 1, 63, 0
3, 32158, Note_on_c, 1, 66, 0
3, 32280, Note_on_c, 1, 71, 85
3, 32280, Note_on_c, 1, 64, 85
3, 32398, Note_on_c, 1, 64, 0
3, 32398, Note_on_c, 1, 71, 0
3, 32400, Note_on_c, 1, 71, 85
3, 32400, Note_on_c, 1, 64, 85
3, 32518, Note_on_c, 1, 64, 0
3, 32518, Note_on_c, 1, 71, 0
3, 32520, Note_on_c, 1, 67, 85
3, 32638, Note_on_c, 1, 67, 0
3, 32640, Note_on_c, 1, 69, 85
3, 32758, Note_on_c, 1, 69, 0
3, 32760, Note_on_c, 1, 67, 85
3, 32878, Note_on_c, 1, 67, 0
3, 32880, Note_on_c, 1, 69, 85
3, 32998, Note_on_c, 1, 69, 0
3, 33000, Note_on_c, 1, 71, 85
3, 33118, Note_on_c, 1, 71, 0
3, 33120, Note_on_c, 1, 68, 48
3, 33180, Note_on_c, 1, 68, 0
3, 33180, Note_on_c, 1, 71, 48
3, 33240, Note_on_c, 1, 71, 0
3, 33240, Note_on_c, 1, 68, 48
3, 33300, Note_on_c, 1, 68, 0
3, 33300, Note_on_c, 1, 71, 48
3, 33360, Note_on_c, 1, 71, 0
3, 33360, Note_on_c, 1, 68, 48
3, 33420, Note_on_c, 1, 68, 0
3, 33420, Note_on_c, 1, 71, 48
3, 33480, Note_on_c, 1, 71, 0
3, 33480, Note_on_c, 1, 68, 48
3, 33540, Note_on_c, 1, 68, 0
3, 33540, Note_on_c, 1, 71, 48
3, 33600, Note_on_c, 1, 71, 0
3, 33600, Note_on_c, 1, 68, 48
3, 33660, Note_on_c, 1, 68, 0
3, 33660, Note_on_c, 1, 71, 48
3, 33720, Note_on_c, 1, 71, 0
3, 33720, Note_on_c, 1, 68, 48
3, 33780, Note_on_c, 1, 68, 0
3, 33780, Note_on_c, 1, 71, 48
3, 33840, Note_on_c, 1, 71, 0
3, 33840, Note_on_c, 1, 68, 48
3, 33900, Note_on_c, 1, 68, 0
3, 33900, Note_on_c, 1, 71, 48
3, 33960, Note_on_c, 1, 71, 0
3, 33960, Note_on_c, 1, 68, 48
3, 34020, Note_on_c, 1, 68, 0
3, 34020, Note_on_c, 1, 71, 48
3, 34080, Note_on_c, 1, 71, 0
3, 34080, Note_on_c, 1, 65, 48
3, 34140, Note_on_c, 1, 65, 0
3, 34140, Note_on_c, 1, 68, 48
3, 34200, Note_on_c, 1, 68, 0
3, 34200, Note_on_c, 1, 65, 48
3, 34260, Note_on_c, 1, 65, 0
3, 34260, Note_on_c, 1, 68, 48
3, 34320, Note_on_c, 1, 68, 0
3, 34320, Note_on_c, 1, 65, 48
3, 34380, Note_on_c, 1, 65, 0
3, 34380, Note_on_c, 1, 68, 48
3, 34440, Note_on_c, 1, 68, 0
3, 34440, Note_on_c, 1, 65, 48
3, 34500, Note_on_c, 1, 65, 0
3, 34500, Note_on_c, 1, 68, 48
3, 34560, Note_on_c, 1, 68, 0
3, 34560, Note_on_c, 1, 65, 72
3, 34618, Note_on_c, 1, 65, 0
3, 34620, Note_on_c, 1, 68, 72
3, 34678, Note_on_c, 1, 68, 0
3, 34680, Note_on_c, 1, 65, 72
3, 34738, Note_on_c, 1, 65, 0
3, 34740, Note_on_c, 1, 68, 72
3, 34798, Note_on_c, 1, 68, 0
3, 34800, Note_on_c, 1, 65, 72
3, 34858, Note_on_c, 1, 65, 0
3, 34860, Note_on_c, 1, 68, 72
3, 34918, Note_on_c, 1, 68, 0
3, 34920, Note_on_c, 1, 65, 72
3, 34978, Note_on_c, 1, 65, 0
3, 34980, Note_on_c, 1, 68, 72
3, 35038, Note_on_c, 1, 68, 0
3, 35040, Note_on_c, 1, 66, 72
3, 35098, Note_on_c, 1, 66, 0
3, 35100, Note_on_c, 1, 69, 72
3, 35158, Note_on_c, 1, 69, 0
3, 35160, Note_on_c, 1, 66, 72
3, 35218, Note_on_c, 1, 66, 0
3, 35220, Note_on_c, 1, 69, 72
3, 35278, Note_on_c, 1, 69, 0
3, 35280, Note_on_c, 1, 66, 72
3, 35338, Note_on_c, 1, 66, 0
3, 35340, Note_on_c, 1, 69, 72
3, 35398, Note_on_c, 1, 69, 0
3, 35400, Note_on_c, 1, 66, 72
3, 35458, Note_on_c, 1, 66, 0
3, 35460, Note_on_c, 1, 69, 72
3, 35518, Note_on_c, 1, 69, 0
3, 35520, Note_on_c, 1, 62, 72
3, 35578, Note_on_c, 1, 62, 0
3, 35580, Note_on_c, 1, 66, 73
3, 35638, Note_on_c, 1, 66, 0
3, 35640, Note_on_c, 1, 62, 73
3, 35698, Note_on_c, 1, 62, 0
3, 35700, Note_on_c, 1, 66, 74
3, 35758, Note_on_c, 1, 66, 0
3, 35760, Note_on_c, 1, 62, 74
3, 35818, Note_on_c, 1, 62, 0
3, 35820, Note_on_c, 1, 66, 75
3, 35878, Note_on_c, 1, 66, 0
3, 35880, Note_on_c, 1, 62, 75
3, 35938, Note_on_c, 1, 62, 0
3, 35940, Note_on_c, 1, 66, 76
3, 35998, Note_on_c, 1, 66, 0
3, 36000, Note_on_c, 1, 66, 76
3, 36000, Note_on_c, 1, 61, 76
3, 36238, Note_on_c, 1, 61, 0
3, 36238, Note_on_c, 1, 66, 0
3, 36240, Note_on_c, 1, 65, 78
3, 36240, Note_on_c, 1, 61, 78
3, 36300, Note_on_c, 1, 61, 0
3, 36300, Note_on_c, 1, 65, 0
3, 36600, Note_on_c, 1, 42, 80
3, 36600, Note_on_c, 1, 54, 80
3, 36660, Note_on_c, 1, 54, 0
3, 36660, Note_on_c, 1, 42, 0
3, 36720, Note_on_c, 1, 45, 80
3, 36720, Note_on_c, 1, 57, 80
3, 36840, Note_on_c, 1, 57, 0
3, 36840, Note_on_c, 1, 45, 0
3, 36840, Note_on_c, 1, 42, 64
3, 36840, Note_on_c, 1, 54, 64
3, 36936, Note_on_c, 1, 54, 0
3, 36936, Note_on_c, 1, 42, 0
3, 37080, Note_on_c, 1, 41, 80
3, 37080, Note_on_c, 1, 53, 80
3, 37140, Note_on_c, 1, 53, 0
3, 37140, Note_on_c, 1, 41, 0
3, 37200, Note_on_c, 1, 44, 80
3, 37200, Note_on_c, 1, 56, 80
3, 37320, Note_on_c, 1, 56, 0
3, 37320, Note_on_c, 1, 44, 0
3, 37320, Note_on_c, 1, 37, 64
3, 37320, Note_on_c, 1, 49, 64
3, 37416, Note_on_c, 1, 49, 0
3, 37416, Note_on_c, 1, 37, 0
3, 37560, Note_on_c, 1, 38, 68
3, 37560, Note_on_c, 1, 50, 68
3, 37678, Note_on_c, 1, 50, 0
3, 37678, Note_on_c, 1, 38, 0
3, 37680, Note_on_c, 1, 37, 72
3, 37680, Note_on_c, 1, 49, 72
3, 37728, Note_on_c, 1, 49, 0
3, 37728, Note_on_c, 1, 37, 0
3, 37800, Note_on_c, 1, 35, 76
3, 37800, Note_on_c, 1, 47, 76
3, 37848, Note_on_c, 1, 47, 0
3, 37848, Note_on_c, 1, 35, 0
3, 37920, Note_on_c, 1, 33, 80
3, 37920, Note_on_c, 1, 45, 80
3, 38158, Note_on_c, 1, 45, 0
3, 38158, Note_on_c, 1, 33, 0
3, 38520, Note_on_c, 1, 57, 48
3, 38638, Note_on_c, 1, 57, 0
3, 38640, Note_on_c, 1, 69, 48
3, 38758, Note_on_c, 1, 69, 0
3, 39000, Note_on_c, 1, 62, 48
3, 39118, Note_on_c, 1, 62, 0
3, 39120, Note_on_c, 1, 74, 48
3, 39238, Note_on_c, 1, 74, 0
3, 39360, Note_on_c, 1, 73, 48
3, 39552, Note_on_c, 1, 73, 0
3, 39600, Note_on_c, 1, 71, 52
3, 39792, Note_on_c, 1, 71, 0
3, 39840, Note_on_c, 1, 69, 56
3, 40032, Note_on_c, 1, 69, 0
3, 40080, Note_on_c, 1, 68, 60
3, 40272, Note_on_c, 1, 68, 0
3, 40320, Note_on_c, 1, 66, 64
3, 40798, Note_on_c, 1, 66, 0
3, 40800, Note_on_c, 1, 64, 72
3, 41038, Note_on_c, 1, 64, 0
3, 41040, Note_on_c, 1, 60, 76
3, 41278, Note_on_c, 1, 60, 0
3, 41280, Note_on_c, 1, 61, 85
3, 41518, Note_on_c, 1, 61, 0
3, 41520, Note_on_c, 1, 57, 85
3, 41638, Note_on_c, 1, 57, 0
3, 41640, Note_on_c, 1, 61, 85
3, 41728, Note_on_c, 1, 61, 0
3, 41730, Note_on_c, 1, 64, 85
3, 41758, Note_on_c, 1, 64, 0
3, 41760, Note_on_c, 1, 56, 85
3, 41878, Note_on_c, 1, 56, 0
3, 41880, Note_on_c, 1, 61, 85
3, 41968, Note_on_c, 1, 61, 0
3, 41970, Note_on_c, 1, 64, 85
3, 41998, Note_on_c, 1, 64, 0
3, 42000, Note_on_c, 1, 55, 85
3, 42118, Note_on_c, 1, 55, 0
3, 42120, Note_on_c, 1, 61, 85
3, 42208, Note_on_c, 1, 61, 0
3, 42210, Note_on_c, 1, 64, 85
3, 42238, Note_on_c, 1, 64, 0
3, 42240, Note_on_c, 1, 54, 85
3, 42358, Note_on_c, 1, 54, 0
3, 42360, Note_on_c, 1, 61, 85
3, 42448, Note_on_c, 1, 61, 0
3, 42450, Note_on_c, 1, 64, 85
3, 42478, Note_on_c, 1, 64, 0
3, 42480, Note_on_c, 1, 54, 85
3, 42598, Note_on_c, 1, 54, 0
3, 42600, Note_on_c, 1, 61, 85
3, 42688, Note_on_c, 1, 61, 0
3, 42690, Note_on_c, 1, 64, 85
3, 42718, Note_on_c, 1, 64, 0
3, 42720, Note_on_c, 1, 54, 85
3, 42838, Note_on_c, 1, 54, 0
3, 42840, Note_on_c, 1, 59, 85
3, 42928, Note_on_c, 1, 59, 0
3, 42930, Note_on_c, 1, 62, 85
3, 42958, Note_on_c, 1, 62, 0
3, 42960, Note_on_c, 1, 54, 85
3, 43078, Note_on_c, 1, 54, 0
3, 43080, Note_on_c, 1, 58, 85
3, 43168, Note_on_c, 1, 58, 0
3, 43170, Note_on_c, 1, 61, 85
3, 43198, Note_on_c, 1, 61, 0
3, 43200, Note_on_c, 1, 54, 85
3, 43318, Note_on_c, 1, 54, 0
3, 43320, Note_on_c, 1, 59, 85
3, 43408, Note_on_c, 1, 59, 0
3, 43410, Note_on_c, 1, 62, 85
3, 43438, Note_on_c, 1, 62, 0
3, 43440, Note_on_c, 1, 54, 85
3, 43558, Note_on_c, 1, 54, 0
3, 43560, Note_on_c, 1, 61, 85
3, 43648, Note_on_c, 1, 61, 0
3, 43650, Note_on_c, 1, 64, 85
3, 43678, Note_on_c, 1, 64, 0
3, 43680, Note_on_c, 1, 54, 85
3, 43798, Note_on_c, 1, 54, 0
3, 43800, Note_on_c, 1, 59, 85
3, 43888, Note_on_c, 1, 59, 0
3, 43890, Note_on_c, 1, 62, 85
3, 43918, Note_on_c, 1, 62, 0
3, 43920, Note_on_c, 1, 54, 85
3, 44038, Note_on_c, 1, 54, 0
3, 44040, Note_on_c, 1, 56, 85
3, 44128, Note_on_c, 1, 56, 0
3, 44130, Note_on_c, 1, 59, 85
3, 44158, Note_on_c, 1, 59, 0
3, 44160, Note_on_c, 1, 54, 80
3, 45118, Note_on_c, 1, 54, 0
3, 45120, Note_on_c, 1, 42, 64
3, 45600, Note_on_c, 1, 30, 72
3, 46078, Note_on_c, 1, 30, 0
3, 46078, Note_on_c, 1, 42, 0
3, 46080, Note_on_c, 1, 35, 85
3, 46198, Note_on_c, 1, 35, 0
3, 46200, Note_on_c, 1, 47, 85
3, 46248, Note_on_c, 1, 47, 0
3, 46320, Note_on_c, 1, 50, 85
3, 46438, Note_on_c, 1, 50, 0
3, 46440, Note_on_c, 1, 47, 64
3, 46558, Note_on_c, 1, 47, 0
3, 46680, Note_on_c, 1, 46, 85
3, 46728, Note_on_c, 1, 46, 0
3, 46800, Note_on_c, 1, 49, 85
3, 46918, Note_on_c, 1, 49, 0
3, 46920, Note_on_c, 1, 42, 64
3, 47038, Note_on_c, 1, 42, 0
3, 47160, Note_on_c, 1, 43, 68
3, 47280, Note_on_c, 1, 43, 0
3, 47280, Note_on_c, 1, 42, 72
3, 47328, Note_on_c, 1, 42, 0
3, 47400, Note_on_c, 1, 40, 76
3, 47448, Note_on_c, 1, 40, 0
3, 47520, Note_on_c, 1, 38, 80
3, 47758, Note_on_c, 1, 38, 0
3, 48120, Note_on_c, 1, 58, 85
3, 48120, Note_on_c, 1, 61, 85
3, 48192, Note_on_c, 1, 61, 0
3, 48192, Note_on_c, 1, 58, 0
3, 48240, Note_on_c, 1, 58, 85
3, 48240, Note_on_c, 1, 61, 85
3, 48358, Note_on_c, 1, 61, 0
3, 48358, Note_on_c, 1, 58, 0
3, 48360, Note_on_c, 1, 58, 64
3, 48360, Note_on_c, 1, 61, 64
3, 48478, Note_on_c, 1, 61, 0
3, 48478, Note_on_c, 1, 58, 0
3, 48600, Note_on_c, 1, 59, 85
3, 48600, Note_on_c, 1, 66, 85
3, 48672, Note_on_c, 1, 66, 0
3, 48672, Note_on_c, 1, 59, 0
3, 48720, Note_on_c, 1, 59, 85
3, 48720, Note_on_c, 1, 66, 85
3, 48838, Note_on_c, 1, 66, 0
3, 48838, Note_on_c, 1, 59, 0
3, 48840, Note_on_c, 1, 62, 64
3, 48958, Note_on_c, 1, 62, 0
3, 48960, Note_on_c, 1, 64, 85
3, 49078, Note_on_c, 1, 64, 0
3, 49080, Note_on_c, 1, 62, 85
3, 49198, Note_on_c, 1, 62, 0
3, 49200, Note_on_c, 1, 64, 85
3, 49318, Note_on_c, 1, 64, 0
3, 49320, Note_on_c, 1, 66, 85
3, 49438, Note_on_c, 1, 66, 0
3, 49440, Note_on_c, 1, 67, 85
3, 49678, Note_on_c, 1, 67, 0
3, 50400, Note_on_c, 1, 64, 85
3, 50400, Note_on_c, 1, 67, 85
3, 50638, Note_on_c, 1, 67, 0
3, 50638, Note_on_c, 1, 64, 0
3, 50640, Note_on_c, 1, 62, 85
3, 50640, Note_on_c, 1, 66, 85
3, 50688, Note_on_c, 1, 66, 0
3, 50688, Note_on_c, 1, 62, 0
3, 51360, Note_on_c, 1, 59, 64
3, 51360, Note_on_c, 1, 62, 64
3, 51598, Note_on_c, 1, 62, 0
3, 51598, Note_on_c, 1, 59, 0
3, 51600, Note_on_c, 1, 58, 64
3, 51600, Note_on_c, 1, 61, 64
3, 51648, Note_on_c, 1, 61, 0
3, 51648, Note_on_c, 1, 58, 0
3, 51720, Note_on_c, 1, 61, 88
3, 51750, Note_on_c, 1, 61, 0
3, 51780, Note_on_c, 1, 52, 88
3, 51810, Note_on_c, 1, 52, 0
3, 51840, Note_on_c, 1, 52, 88
3, 51898, Note_on_c, 1, 52, 0
3, 51900, Note_on_c, 1, 50, 88
3, 51958, Note_on_c, 1, 50, 0
3, 51960, Note_on_c, 1, 49, 88
3, 52018, Note_on_c, 1, 49, 0
3, 52020, Note_on_c, 1, 50, 88
3, 52078, Note_on_c, 1, 50, 0
3, 52080, Note_on_c, 1, 49, 88
3, 52138, Note_on_c, 1, 49, 0
3, 52140, Note_on_c, 1, 47, 88
3, 52170, Note_on_c, 1, 47, 0
3, 52200, Note_on_c, 1, 46, 88
3, 52230, Note_on_c, 1, 46, 0
3, 52260, Note_on_c, 1, 47, 88
3, 52290, Note_on_c, 1, 47, 0
3, 52320, Note_on_c, 1, 42, 88
3, 52558, Note_on_c, 1, 42, 0
3, 52800, Note_on_c, 1, 47, 96
3, 52800, Note_on_c, 1, 50, 96
3, 52800, Note_on_c, 1, 54, 96
3, 52800, Note_on_c, 1, 59, 96
3, 52918, Note_on_c, 1, 59, 0
3, 52918, Note_on_c, 1, 47, 0
3, 52918, Note_on_c, 1, 50, 0
3, 52918, Note_on_c, 1, 54, 0
3, 52920, Note_on_c, 1, 59, 66
3, 53040, Note_on_c, 1, 61, 68
3, 53136, Note_on_c, 1, 61, 0
3, 53160, Note_on_c, 1, 63, 70
3, 53256, Note_on_c, 1, 63, 0
3, 53280, Note_on_c, 1, 64, 72
3, 53376, Note_on_c, 1, 64, 0
3, 53400, Note_on_c, 1, 63, 74
3, 53496, Note_on_c, 1, 63, 0
3, 53520, Note_on_c, 1, 64, 76
3, 53616, Note_on_c, 1, 64, 0
3, 53640, Note_on_c, 1, 67, 78
3, 53736, Note_on_c, 1, 67, 0
3, 53736, Note_on_c, 1, 59, 0
3, 53760, Note_on_c, 1, 59, 96
3, 53760, Note_on_c, 1, 54, 96
3, 53760, Note_on_c, 1, 50, 96
3, 53760, Note_on_c, 1, 47, 96
3, 53878, Note_on_c, 1, 47, 0
3, 53878, Note_on_c, 1, 59, 0
3, 53878, Note_on_c, 1, 54, 0
3, 53878, Note_on_c, 1, 50, 0
3, 53880, Note_on_c, 1, 59, 66
3, 54000, Note_on_c, 1, 61, 68
3, 54096, Note_on_c, 1, 61, 0
3, 54120, Note_on_c, 1, 63, 70
3, 54216, Note_on_c, 1, 63, 0
3, 54240, Note_on_c, 1, 64, 72
3, 54336, Note_on_c, 1, 64, 0
3, 54360, Note_on_c, 1, 63, 74
3, 54456, Note_on_c, 1, 63, 0
3, 54480, Note_on_c, 1, 64, 76
3, 54576, Note_on_c, 1, 64, 0
3, 54600, Note_on_c, 1, 67, 78
3, 54696, Note_on_c, 1, 67, 0
3, 54696, Note_on_c, 1, 59, 0
3, 54720, Note_on_c, 1, 47, 96
3, 54720, Note_on_c, 1, 50, 96
3, 54720, Note_on_c, 1, 54, 96
3, 54720, Note_on_c, 1, 59, 96
3, 54838, Note_on_c, 1, 59, 0
3, 54838, Note_on_c, 1, 47, 0
3, 54838, Note_on_c, 1, 50, 0
3, 54838, Note_on_c, 1, 54, 0
3, 54840, Note_on_c, 1, 59, 48
3, 54840, Note_on_c, 1, 59, 48
3, 54958, Note_on_c, 1, 59, 0
3, 54960, Note_on_c, 1, 61, 48
3, 55078, Note_on_c, 1, 61, 0
3, 55080, Note_on_c, 1, 63, 48
3, 55198, Note_on_c, 1, 63, 0
3, 55200, Note_on_c, 1, 64, 48
3, 55318, Note_on_c, 1, 64, 0
3, 55320, Note_on_c, 1, 63, 48
3, 55438, Note_on_c, 1, 63, 0
3, 55440, Note_on_c, 1, 64, 48
3, 55558, Note_on_c, 1, 64, 0
3, 55560, Note_on_c, 1, 67, 48
3, 55678, Note_on_c, 1, 67, 0
3, 55678, Note_on_c, 1, 59, 0
3, 55680, Note_on_c, 1, 59, 48
3, 55680, Note_on_c, 1, 62, 48
3, 55798, Note_on_c, 1, 62, 0
3, 55800, Note_on_c, 1, 61, 50
3, 55918, Note_on_c, 1, 61, 0
3, 55920, Note_on_c, 1, 62, 52
3, 56038, Note_on_c, 1, 62, 0
3, 56040, Note_on_c, 1, 66, 54
3, 56158, Note_on_c, 1, 66, 0
3, 56160, Note_on_c, 1, 67, 56
3, 56278, Note_on_c, 1, 67, 0
3, 56280, Note_on_c, 1, 66, 58
3, 56398, Note_on_c, 1, 66, 0
3, 56400, Note_on_c, 1, 67, 60
3, 56518, Note_on_c, 1, 67, 0
3, 56520, Note_on_c, 1, 64, 62
3, 56638, Note_on_c, 1, 64, 0
3, 56638, Note_on_c, 1, 59, 0
3, 56640, Note_on_c, 1, 59, 64
3, 56640, Note_on_c, 1, 66, 64
3, 56758, Note_on_c, 1, 66, 0
3, 56760, Note_on_c, 1, 64, 66
3, 56878, Note_on_c, 1, 64, 0
3, 56880, Note_on_c, 1, 66, 68
3, 56998, Note_on_c, 1, 66, 0
3, 57000, Note_on_c, 1, 62, 70
3, 57118, Note_on_c, 1, 62, 0
3, 57118, Note_on_c, 1, 59, 0
3, 57120, Note_on_c, 1, 61, 72
3, 57178, Note_on_c, 1, 61, 0
3, 57180, Note_on_c, 1, 68, 73
3, 57238, Note_on_c, 1, 68, 0
3, 57240, Note_on_c, 1, 61, 74
3, 57298, Note_on_c, 1, 61, 0
3, 57300, Note_on_c, 1, 68, 75
3, 57358, Note_on_c, 1, 68, 0
3, 57360, Note_on_c, 1, 61, 76
3, 57418, Note_on_c, 1, 61, 0
3, 57420, Note_on_c, 1, 67, 77
3, 57478, Note_on_c, 1, 67, 0
3, 57480, Note_on_c, 1, 61, 78
3, 57538, Note_on_c, 1, 61, 0
3, 57540, Note_on_c, 1, 67, 79
3, 57598, Note_on_c, 1, 67, 0
3, 57600, Note_on_c, 1, 62, 80
3, 57658, Note_on_c, 1, 62, 0
3, 57660, Note_on_c, 1, 66, 79
3, 57718, Note_on_c, 1, 66, 0
3, 57720, Note_on_c, 1, 62, 78
3, 57778, Note_on_c, 1, 62, 0
3, 57780, Note_on_c, 1, 66, 77
3, 57838, Note_on_c, 1, 66, 0
3, 57840, Note_on_c, 1, 63, 76
3, 57898, Note_on_c, 1, 63, 0
3, 57900, Note_on_c, 1, 72, 75
3, 57958, Note_on_c, 1, 72, 0
3, 57960, Note_on_c, 1, 63, 74
3, 58018, Note_on_c, 1, 63, 0
3, 58020, Note_on_c, 1, 72, 73
3, 58078, Note_on_c, 1, 72, 0
3, 58080, Note_on_c, 1, 64, 72
3, 58138, Note_on_c, 1, 64, 0
3, 58140, Note_on_c, 1, 71, 71
3, 58198, Note_on_c, 1, 71, 0
3, 58200, Note_on_c, 1, 64, 70
3, 58258, Note_on_c, 1, 64, 0
3, 58260, Note_on_c, 1, 71, 69
3, 58318, Note_on_c, 1, 71, 0
3, 58320, Note_on_c, 1, 65, 68
3, 58378, Note_on_c, 1, 65, 0
3, 58380, Note_on_c, 1, 68, 67
3, 58438, Note_on_c, 1, 68, 0
3, 58440, Note_on_c, 1, 65, 66
3, 58498, Note_on_c, 1, 65, 0
3, 58500, Note_on_c, 1, 68, 65
3, 58558, Note_on_c, 1, 68, 0
3, 58560, Note_on_c, 1, 54, 64
3, 58618, Note_on_c, 1, 54, 0
3, 58620, Note_on_c, 1, 66, 64
3, 58678, Note_on_c, 1, 66, 0
3, 58680, Note_on_c, 1, 56, 64
3, 58738, Note_on_c, 1, 56, 0
3, 58740, Note_on_c, 1, 66, 64
3, 58798, Note_on_c, 1, 66, 0
3, 58800, Note_on_c, 1, 58, 64
3, 58858, Note_on_c, 1, 58, 0
3, 58860, Note_on_c, 1, 66, 64
3, 58918, Note_on_c, 1, 66, 0
3, 58920, Note_on_c, 1, 59, 64
3, 58978, Note_on_c, 1, 59, 0
3, 58980, Note_on_c, 1, 66, 64
3, 59038, Note_on_c, 1, 66, 0
3, 59040, Note_on_c, 1, 61, 64
3, 59098, Note_on_c, 1, 61, 0
3, 59100, Note_on_c, 1, 66, 64
3, 59158, Note_on_c, 1, 66, 0
3, 59160, Note_on_c, 1, 59, 64
3, 59218, Note_on_c, 1, 59, 0
3, 59220, Note_on_c, 1, 66, 64
3, 59278, Note_on_c, 1, 66, 0
3, 59280, Note_on_c, 1, 61, 64
3, 59338, Note_on_c, 1, 61, 0
3, 59340, Note_on_c, 1, 66, 64
3, 59398, Note_on_c, 1, 66, 0
3, 59400, Note_on_c, 1, 58, 64
3, 59458, Note_on_c, 1, 58, 0
3, 59460, Note_on_c, 1, 66, 64
3, 59518, Note_on_c, 1, 66, 0
3, 59520, Note_on_c, 1, 59, 64
3, 59640, Note_on_c, 1, 61, 66
3, 59736, Note_on_c, 1, 61, 0
3, 59760, Note_on_c, 1, 63, 68
3, 59856, Note_on_c, 1, 63, 0
3, 59880, Note_on_c, 1, 64, 70
3, 59976, Note_on_c, 1, 64, 0
3, 60000, Note_on_c, 1, 66, 72
3, 60096, Note_on_c, 1, 66, 0
3, 60120, Note_on_c, 1, 64, 74
3, 60216, Note_on_c, 1, 64, 0
3, 60240, Note_on_c, 1, 66, 76
3, 60336, Note_on_c, 1, 66, 0
3, 60360, Note_on_c, 1, 63, 78
3, 60456, Note_on_c, 1, 63, 0
3, 60456, Note_on_c, 1, 59, 0
3, 60480, Note_on_c, 1, 64, 80
3, 60576, Note_on_c, 1, 64, 0
3, 60600, Note_on_c, 1, 63, 80
3, 60696, Note_on_c, 1, 63, 0
3, 60720, Note_on_c, 1, 64, 80
3, 60816, Note_on_c, 1, 64, 0
3, 60840, Note_on_c, 1, 61, 80
3, 60936, Note_on_c, 1, 61, 0
3, 60960, Note_on_c, 1, 66, 80
3, 60960, Note_on_c, 1, 62, 80
3, 61056, Note_on_c, 1, 62, 0
3, 61056, Note_on_c, 1, 66, 0
3, 61080, Note_on_c, 1, 67, 80
3, 61080, Note_on_c, 1, 64, 80
3, 61176, Note_on_c, 1, 64, 0
3, 61176, Note_on_c, 1, 67, 0
3, 61200, Note_on_c, 1, 66, 80
3, 61200, Note_on_c, 1, 62, 80
3, 61296, Note_on_c, 1, 62, 0
3, 61296, Note_on_c, 1, 66, 0
3, 61320, Note_on_c, 1, 67, 80
3, 61320, Note_on_c, 1, 64, 80
3, 61416, Note_on_c, 1, 64, 0
3, 61416, Note_on_c, 1, 67, 0
3, 61440, Note_on_c, 1, 59, 85
3, 61440, Note_on_c, 1, 62, 85
3, 61440, Note_on_c, 1, 66, 85
3, 61678, Note_on_c, 1, 66, 0
3, 61678, Note_on_c, 1, 62, 0
3, 61678, Note_on_c, 1, 59, 0
3, 61920, Note_on_c, 1, 67, 85
3, 62158, Note_on_c, 1, 67, 0
3, 62280, Note_on_c, 1, 64, 85
3, 62398, Note_on_c, 1, 64, 0
3, 62400, Note_on_c, 1, 62, 85
3, 62518, Note_on_c, 1, 62, 0
3, 62520, Note_on_c, 1, 64, 85
3, 62580, Note_on_c, 1, 64, 0
3, 62640, Note_on_c, 1, 66, 85
3, 62700, Note_on_c, 1, 66, 0
3, 62760, Note_on_c, 1, 54, 85
3, 62820, Note_on_c, 1, 54, 0
3, 62880, Note_on_c, 1, 59, 85
3, 63118, Note_on_c, 1, 59, 0
3, 63360, Note_on_c, 1, 55, 64
3, 63478, Note_on_c, 1, 55, 0
3, 63480, Note_on_c, 1, 58, 64
3, 63518, Note_on_c, 1, 58, 0
3, 63520, Note_on_c, 1, 61, 64
3, 63558, Note_on_c, 1, 61, 0
3, 63560, Note_on_c, 1, 64, 64
3, 63598, Note_on_c, 1, 64, 0
3, 63840, Note_on_c, 1, 62, 64
3, 63958, Note_on_c, 1, 62, 0
3, 63960, Note_on_c, 1, 64, 64
3, 64078, Note_on_c, 1, 64, 0
3, 64080, Note_on_c, 1, 66, 64
3, 64140, Note_on_c, 1, 66, 0
3, 64200, Note_on_c, 1, 54, 64
3, 64260, Note_on_c, 1, 54, 0
3, 64320, Note_on_c, 1, 59, 64
3, 64438, Note_on_c, 1, 59, 0
3, 64440, Note_on_c, 1, 59, 85
3, 64558, Note_on_c, 1, 59, 0
3, 64560, Note_on_c, 1, 61, 85
3, 64678, Note_on_c, 1, 61, 0
3, 64680, Note_on_c, 1, 62, 85
3, 64798, Note_on_c, 1, 62, 0
3, 64800, Note_on_c, 1, 64, 85
3, 64918, Note_on_c, 1, 64, 0
3, 64920, Note_on_c, 1, 62, 85
3, 65038, Note_on_c, 1, 62, 0
3, 65040, Note_on_c, 1, 64, 85
3, 65158, Note_on_c, 1, 64, 0
3, 65160, Note_on_c, 1, 66, 85
3, 65278, Note_on_c, 1, 66, 0
3, 65280, Note_on_c, 1, 67, 85
3, 65398, Note_on_c, 1, 67, 0
3, 65400, Note_on_c, 1, 64, 85
3, 65518, Note_on_c, 1, 64, 0
3, 65520, Note_on_c, 1, 66, 85
3, 65638, Note_on_c, 1, 66, 0
3, 65640, Note_on_c, 1, 54, 85
3, 65758, Note_on_c, 1, 54, 0
3, 65760, Note_on_c, 1, 59, 85
3, 65832, Note_on_c, 1, 59, 0
3, 65880, Note_on_c, 1, 35, 85
3, 65938, Note_on_c, 1, 35, 0
3, 65940, Note_on_c, 1, 47, 85
3, 65998, Note_on_c, 1, 47, 0
3, 66000, Note_on_c, 1, 37, 85
3, 66058, Note_on_c, 1, 37, 0
3, 66060, Note_on_c, 1, 49, 85
3, 66118, Note_on_c, 1, 49, 0
3, 66120, Note_on_c, 1, 38, 85
3, 66178, Note_on_c, 1, 38, 0
3, 66180, Note_on_c, 1, 50, 85
3, 66238, Note_on_c, 1, 50, 0
3, 66240, Note_on_c, 1, 40, 80
3, 66288, Note_on_c, 1, 40, 0
3, 66300, Note_on_c, 1, 52, 80
3, 66348, Note_on_c, 1, 52, 0
3, 66360, Note_on_c, 1, 38, 80
3, 66408, Note_on_c, 1, 38, 0
3, 66420, Note_on_c, 1, 50, 80
3, 66468, Note_on_c, 1, 50, 0
3, 66480, Note_on_c, 1, 40, 80
3, 66528, Note_on_c, 1, 40, 0
3, 66540, Note_on_c, 1, 52, 80
3, 66588, Note_on_c, 1, 52, 0
3, 66600, Note_on_c, 1, 42, 80
3, 66648, Note_on_c, 1, 42, 0
3, 66660, Note_on_c, 1, 54, 80
3, 66708, Note_on_c, 1, 54, 0
3, 66720, Note_on_c, 1, 43, 80
3, 66768, Note_on_c, 1, 43, 0
3, 66780, Note_on_c, 1, 55, 80
3, 66828, Note_on_c, 1, 55, 0
3, 66840, Note_on_c, 1, 52, 80
3, 66936, Note_on_c, 1, 52, 0
3, 66960, Note_on_c, 1, 54, 80
3, 67056, Note_on_c, 1, 54, 0
3, 67080, Note_on_c, 1, 42, 80
3, 67176, Note_on_c, 1, 42, 0
3, 67200, Note_on_c, 1, 47, 80
3, 67320, Note_on_c, 1, 47, 0
3, 67680, Note_on_c, 1, 35, 108
3, 67680, Note_on_c, 1, 38, 108
3, 67680, Note_on_c, 1, 42, 108
3, 67680, Note_on_c, 1, 47, 108
3, 67918, Note_on_c, 1, 47, 0
3, 67918, Note_on_c, 1, 35, 0
3, 67918, Note_on_c, 1, 38, 0
3, 67918, Note_on_c, 1, 42, 0
3, 67918, End_track
4, 0, Start_track
4, 0, MIDI_port, 0
4, 0, Title_t, "MIDI by Marty Weimer 7/5/96"
4, 0, End_track
5, 0, Start_track
5, 0, MIDI_port, 0
5, 0, Title_t, "weimermt@libby.org Eureka, MT  USA"
5, 0, End_track
0, 0, End_of_file
