0, 0, Header, 1, 5, 240
1, 0, Start_track
1, 0, Time_signature, 2, 2, 24, 8
1, 0, Key_signature, 0, "major"
1, 0, Tempo, 500000
1, 480, Tempo, 437956
1, 3840, Tempo, 500000
1, 4080, Tempo, 465116
1, 4320, Tempo, 437956
1, 8880, Tempo, 487805
1, 9120, Tempo, 461538
1, 19440, Tempo, 480000
1, 19680, Tempo, 437956
1, 23280, Tempo, 465116
1, 23520, Tempo, 437956
1, 28080, Tempo, 487805
1, 28320, Tempo, 437956
1, 31920, Tempo, 480000
1, 32160, Tempo, 530973
1, 32400, Tempo, 588235
1, 32640, Tempo, 857143
1, 32880, Tempo, 576923
1, 33120, Tempo, 437956
1, 36720, Tempo, 468750
1, 36960, Tempo, 461538
1, 40560, Tempo, 480000
1, 40800, Tempo, 461538
1, 43920, Tempo, 545455
1, 44160, Tempo, 666667
1, 44400, Tempo, 545455
1, 44640, Tempo, 461538
1, 48360, Tempo, 480000
1, 48600, Tempo, 465116
1, 48608, Tempo, 437956
1, 52208, Tempo, 468750
1, 52448, Tempo, 437956
1, 52448, End_track
2, 0, Start_track
2, 0, MIDI_port, 0
2, 0, Title_t, "Piano Sonata No. 34 in e"
2, 0, Program_c, 0, 0
2, 0, Control_c, 0, 7, 127
2, 0, Control_c, 0, 10, 72
2, 360, Note_on_c, 0, 67, 80
2, 408, Note_on_c, 0, 67, 0
2, 480, Note_on_c, 0, 67, 88
2, 660, Note_on_c, 0, 67, 0
2, 660, Note_on_c, 0, 69, 80
2, 720, Note_on_c, 0, 69, 0
2, 720, Note_on_c, 0, 71, 80
2, 768, Note_on_c, 0, 71, 0
2, 840, Note_on_c, 0, 76, 80
2, 900, Note_on_c, 0, 76, 0
2, 960, Note_on_c, 0, 75, 80
2, 1080, Note_on_c, 0, 75, 0
2, 1080, Note_on_c, 0, 78, 64
2, 1164, Note_on_c, 0, 78, 0
2, 1320, Note_on_c, 0, 71, 80
2, 1440, Note_on_c, 0, 71, 0
2, 1440, Note_on_c, 0, 76, 80
2, 1488, Note_on_c, 0, 76, 0
2, 1560, Note_on_c, 0, 76, 80
2, 1680, Note_on_c, 0, 76, 0
2, 1680, Note_on_c, 0, 78, 80
2, 1728, Note_on_c, 0, 78, 0
2, 1800, Note_on_c, 0, 78, 80
2, 1920, Note_on_c, 0, 78, 0
2, 1920, Note_on_c, 0, 81, 80
2, 2040, Note_on_c, 0, 81, 0
2, 2040, Note_on_c, 0, 79, 72
2, 2072, Note_on_c, 0, 79, 0
2, 2080, Note_on_c, 0, 81, 72
2, 2112, Note_on_c, 0, 81, 0
2, 2120, Note_on_c, 0, 79, 72
2, 2152, Note_on_c, 0, 79, 0
2, 2160, Note_on_c, 0, 78, 72
2, 2208, Note_on_c, 0, 78, 0
2, 2280, Note_on_c, 0, 78, 80
2, 2376, Note_on_c, 0, 78, 0
2, 2400, Note_on_c, 0, 79, 88
2, 2580, Note_on_c, 0, 79, 0
2, 2580, Note_on_c, 0, 81, 80
2, 2640, Note_on_c, 0, 81, 0
2, 2640, Note_on_c, 0, 83, 80
2, 2688, Note_on_c, 0, 83, 0
2, 2760, Note_on_c, 0, 83, 80
2, 2844, Note_on_c, 0, 83, 0
2, 2880, Note_on_c, 0, 81, 88
2, 3000, Note_on_c, 0, 81, 0
2, 3000, Note_on_c, 0, 84, 72
2, 3084, Note_on_c, 0, 84, 0
2, 3240, Note_on_c, 0, 81, 80
2, 3360, Note_on_c, 0, 81, 0
2, 3360, Note_on_c, 0, 78, 80
2, 3408, Note_on_c, 0, 78, 0
2, 3480, Note_on_c, 0, 78, 80
2, 3528, Note_on_c, 0, 78, 0
2, 3600, Note_on_c, 0, 79, 80
2, 3660, Note_on_c, 0, 79, 0
2, 3660, Note_on_c, 0, 78, 80
2, 3720, Note_on_c, 0, 78, 0
2, 3720, Note_on_c, 0, 76, 80
2, 3780, Note_on_c, 0, 76, 0
2, 3780, Note_on_c, 0, 74, 80
2, 3840, Note_on_c, 0, 74, 0
2, 3840, Note_on_c, 0, 79, 80
2, 4080, Note_on_c, 0, 79, 0
2, 4200, Note_on_c, 0, 83, 72
2, 4284, Note_on_c, 0, 83, 0
2, 4320, Note_on_c, 0, 83, 80
2, 4500, Note_on_c, 0, 83, 0
2, 4500, Note_on_c, 0, 84, 72
2, 4560, Note_on_c, 0, 84, 0
2, 4560, Note_on_c, 0, 86, 72
2, 4608, Note_on_c, 0, 86, 0
2, 4680, Note_on_c, 0, 86, 72
2, 4764, Note_on_c, 0, 86, 0
2, 4800, Note_on_c, 0, 86, 72
2, 4920, Note_on_c, 0, 86, 0
2, 4920, Note_on_c, 0, 76, 64
2, 4992, Note_on_c, 0, 76, 0
2, 5160, Note_on_c, 0, 76, 64
2, 5280, Note_on_c, 0, 76, 0
2, 5280, Note_on_c, 0, 81, 64
2, 5460, Note_on_c, 0, 81, 0
2, 5460, Note_on_c, 0, 83, 64
2, 5520, Note_on_c, 0, 83, 0
2, 5520, Note_on_c, 0, 84, 64
2, 5568, Note_on_c, 0, 84, 0
2, 5640, Note_on_c, 0, 84, 64
2, 5724, Note_on_c, 0, 84, 0
2, 5760, Note_on_c, 0, 84, 72
2, 5880, Note_on_c, 0, 84, 0
2, 5880, Note_on_c, 0, 75, 64
2, 5952, Note_on_c, 0, 75, 0
2, 6120, Note_on_c, 0, 71, 72
2, 6240, Note_on_c, 0, 71, 0
2, 6240, Note_on_c, 0, 76, 72
2, 6288, Note_on_c, 0, 76, 0
2, 6360, Note_on_c, 0, 76, 72
2, 6480, Note_on_c, 0, 76, 0
2, 6480, Note_on_c, 0, 78, 72
2, 6528, Note_on_c, 0, 78, 0
2, 6600, Note_on_c, 0, 78, 72
2, 6720, Note_on_c, 0, 78, 0
2, 6720, Note_on_c, 0, 81, 72
2, 6840, Note_on_c, 0, 81, 0
2, 6840, Note_on_c, 0, 79, 72
2, 6880, Note_on_c, 0, 79, 0
2, 6880, Note_on_c, 0, 81, 72
2, 6920, Note_on_c, 0, 81, 0
2, 6920, Note_on_c, 0, 79, 72
2, 6960, Note_on_c, 0, 79, 0
2, 6960, Note_on_c, 0, 78, 72
2, 7008, Note_on_c, 0, 78, 0
2, 7080, Note_on_c, 0, 83, 72
2, 7164, Note_on_c, 0, 83, 0
2, 7200, Note_on_c, 0, 76, 72
2, 7248, Note_on_c, 0, 76, 0
2, 7320, Note_on_c, 0, 76, 74
2, 7440, Note_on_c, 0, 76, 0
2, 7440, Note_on_c, 0, 84, 76
2, 7488, Note_on_c, 0, 84, 0
2, 7560, Note_on_c, 0, 84, 78
2, 7680, Note_on_c, 0, 84, 0
2, 7680, Note_on_c, 0, 75, 96
2, 7920, Note_on_c, 0, 75, 0
2, 7920, Note_on_c, 0, 76, 80
2, 7968, Note_on_c, 0, 76, 0
2, 8040, Note_on_c, 0, 76, 80
2, 8160, Note_on_c, 0, 76, 0
2, 8160, Note_on_c, 0, 78, 80
2, 8208, Note_on_c, 0, 78, 0
2, 8280, Note_on_c, 0, 78, 80
2, 8400, Note_on_c, 0, 78, 0
2, 8400, Note_on_c, 0, 76, 80
2, 8460, Note_on_c, 0, 76, 0
2, 8460, Note_on_c, 0, 75, 80
2, 8520, Note_on_c, 0, 75, 0
2, 8520, Note_on_c, 0, 73, 80
2, 8580, Note_on_c, 0, 73, 0
2, 8580, Note_on_c, 0, 71, 80
2, 8640, Note_on_c, 0, 71, 0
2, 8640, Note_on_c, 0, 76, 80
2, 8856, Note_on_c, 0, 76, 0
2, 9000, Note_on_c, 0, 80, 80
2, 9120, Note_on_c, 0, 80, 0
2, 9120, Note_on_c, 0, 80, 80
2, 9300, Note_on_c, 0, 80, 0
2, 9300, Note_on_c, 0, 81, 80
2, 9360, Note_on_c, 0, 81, 0
2, 9360, Note_on_c, 0, 83, 80
2, 9408, Note_on_c, 0, 83, 0
2, 9480, Note_on_c, 0, 76, 80
2, 9564, Note_on_c, 0, 76, 0
2, 9600, Note_on_c, 0, 75, 80
2, 9720, Note_on_c, 0, 75, 0
2, 9720, Note_on_c, 0, 78, 72
2, 9840, Note_on_c, 0, 78, 0
2, 9900, Note_on_c, 0, 59, 64
2, 9960, Note_on_c, 0, 59, 0
2, 9960, Note_on_c, 0, 61, 64
2, 10020, Note_on_c, 0, 61, 0
2, 10020, Note_on_c, 0, 63, 64
2, 10080, Note_on_c, 0, 63, 0
2, 10080, Note_on_c, 0, 64, 64
2, 10140, Note_on_c, 0, 64, 0
2, 10140, Note_on_c, 0, 66, 66
2, 10200, Note_on_c, 0, 66, 0
2, 10200, Note_on_c, 0, 68, 68
2, 10260, Note_on_c, 0, 68, 0
2, 10260, Note_on_c, 0, 69, 70
2, 10320, Note_on_c, 0, 69, 0
2, 10320, Note_on_c, 0, 71, 72
2, 10380, Note_on_c, 0, 71, 0
2, 10380, Note_on_c, 0, 73, 74
2, 10440, Note_on_c, 0, 73, 0
2, 10440, Note_on_c, 0, 75, 76
2, 10500, Note_on_c, 0, 75, 0
2, 10500, Note_on_c, 0, 76, 78
2, 10560, Note_on_c, 0, 76, 0
2, 10560, Note_on_c, 0, 71, 80
2, 10680, Note_on_c, 0, 71, 0
2, 10680, Note_on_c, 0, 69, 80
2, 10720, Note_on_c, 0, 69, 0
2, 10720, Note_on_c, 0, 71, 80
2, 10760, Note_on_c, 0, 71, 0
2, 10760, Note_on_c, 0, 69, 80
2, 10800, Note_on_c, 0, 69, 0
2, 10800, Note_on_c, 0, 68, 80
2, 10848, Note_on_c, 0, 68, 0
2, 10920, Note_on_c, 0, 80, 80
2, 11040, Note_on_c, 0, 80, 0
2, 11040, Note_on_c, 0, 80, 80
2, 11100, Note_on_c, 0, 80, 0
2, 11100, Note_on_c, 0, 82, 80
2, 11130, Note_on_c, 0, 82, 0
2, 11130, Note_on_c, 0, 80, 80
2, 11160, Note_on_c, 0, 80, 0
2, 11160, Note_on_c, 0, 79, 80
2, 11190, Note_on_c, 0, 79, 0
2, 11190, Note_on_c, 0, 80, 80
2, 11220, Note_on_c, 0, 80, 0
2, 11220, Note_on_c, 0, 82, 80
2, 11280, Note_on_c, 0, 82, 0
2, 11280, Note_on_c, 0, 83, 80
2, 11328, Note_on_c, 0, 83, 0
2, 11400, Note_on_c, 0, 72, 80
2, 11448, Note_on_c, 0, 72, 0
2, 11520, Note_on_c, 0, 73, 80
2, 11580, Note_on_c, 0, 73, 0
2, 11580, Note_on_c, 0, 75, 80
2, 11610, Note_on_c, 0, 75, 0
2, 11610, Note_on_c, 0, 73, 80
2, 11640, Note_on_c, 0, 73, 0
2, 11640, Note_on_c, 0, 72, 80
2, 11670, Note_on_c, 0, 72, 0
2, 11670, Note_on_c, 0, 73, 80
2, 11700, Note_on_c, 0, 73, 0
2, 11700, Note_on_c, 0, 76, 80
2, 11760, Note_on_c, 0, 76, 0
2, 11760, Note_on_c, 0, 80, 80
2, 11808, Note_on_c, 0, 80, 0
2, 11880, Note_on_c, 0, 70, 80
2, 11952, Note_on_c, 0, 70, 0
2, 12000, Note_on_c, 0, 71, 80
2, 12120, Note_on_c, 0, 71, 0
2, 12120, Note_on_c, 0, 76, 80
2, 12180, Note_on_c, 0, 76, 0
2, 12180, Note_on_c, 0, 73, 80
2, 12240, Note_on_c, 0, 73, 0
2, 12240, Note_on_c, 0, 75, 80
2, 12300, Note_on_c, 0, 75, 0
2, 12300, Note_on_c, 0, 71, 80
2, 12360, Note_on_c, 0, 71, 0
2, 12360, Note_on_c, 0, 73, 80
2, 12420, Note_on_c, 0, 73, 0
2, 12420, Note_on_c, 0, 70, 80
2, 12480, Note_on_c, 0, 70, 0
2, 12480, Note_on_c, 0, 71, 80
2, 12720, Note_on_c, 0, 71, 0
2, 12840, Note_on_c, 0, 78, 80
2, 12888, Note_on_c, 0, 78, 0
2, 12960, Note_on_c, 0, 78, 80
2, 13140, Note_on_c, 0, 78, 0
2, 13140, Note_on_c, 0, 80, 80
2, 13200, Note_on_c, 0, 80, 0
2, 13200, Note_on_c, 0, 81, 80
2, 13260, Note_on_c, 0, 81, 0
2, 13260, Note_on_c, 0, 78, 80
2, 13320, Note_on_c, 0, 78, 0
2, 13320, Note_on_c, 0, 76, 80
2, 13380, Note_on_c, 0, 76, 0
2, 13380, Note_on_c, 0, 75, 80
2, 13440, Note_on_c, 0, 75, 0
2, 13440, Note_on_c, 0, 76, 80
2, 13500, Note_on_c, 0, 76, 0
2, 13500, Note_on_c, 0, 75, 80
2, 13560, Note_on_c, 0, 75, 0
2, 13560, Note_on_c, 0, 76, 80
2, 13620, Note_on_c, 0, 76, 0
2, 13620, Note_on_c, 0, 75, 80
2, 13680, Note_on_c, 0, 75, 0
2, 13680, Note_on_c, 0, 76, 80
2, 13740, Note_on_c, 0, 76, 0
2, 13740, Note_on_c, 0, 83, 80
2, 13800, Note_on_c, 0, 83, 0
2, 13800, Note_on_c, 0, 81, 80
2, 13860, Note_on_c, 0, 81, 0
2, 13860, Note_on_c, 0, 80, 80
2, 13920, Note_on_c, 0, 80, 0
2, 13920, Note_on_c, 0, 78, 64
2, 14100, Note_on_c, 0, 78, 0
2, 14100, Note_on_c, 0, 80, 64
2, 14160, Note_on_c, 0, 80, 0
2, 14160, Note_on_c, 0, 81, 64
2, 14220, Note_on_c, 0, 81, 0
2, 14220, Note_on_c, 0, 78, 64
2, 14280, Note_on_c, 0, 78, 0
2, 14280, Note_on_c, 0, 76, 64
2, 14340, Note_on_c, 0, 76, 0
2, 14340, Note_on_c, 0, 75, 64
2, 14400, Note_on_c, 0, 75, 0
2, 14400, Note_on_c, 0, 76, 64
2, 14460, Note_on_c, 0, 76, 0
2, 14460, Note_on_c, 0, 75, 64
2, 14520, Note_on_c, 0, 75, 0
2, 14520, Note_on_c, 0, 76, 64
2, 14580, Note_on_c, 0, 76, 0
2, 14580, Note_on_c, 0, 75, 64
2, 14640, Note_on_c, 0, 75, 0
2, 14640, Note_on_c, 0, 76, 64
2, 14700, Note_on_c, 0, 76, 0
2, 14700, Note_on_c, 0, 83, 64
2, 14760, Note_on_c, 0, 83, 0
2, 14760, Note_on_c, 0, 81, 64
2, 14820, Note_on_c, 0, 81, 0
2, 14820, Note_on_c, 0, 80, 64
2, 14880, Note_on_c, 0, 80, 0
2, 14880, Note_on_c, 0, 78, 64
2, 14940, Note_on_c, 0, 78, 0
2, 14940, Note_on_c, 0, 80, 64
2, 15000, Note_on_c, 0, 80, 0
2, 15000, Note_on_c, 0, 81, 64
2, 15060, Note_on_c, 0, 81, 0
2, 15060, Note_on_c, 0, 80, 64
2, 15120, Note_on_c, 0, 80, 0
2, 15120, Note_on_c, 0, 78, 64
2, 15180, Note_on_c, 0, 78, 0
2, 15180, Note_on_c, 0, 76, 64
2, 15240, Note_on_c, 0, 76, 0
2, 15240, Note_on_c, 0, 75, 64
2, 15300, Note_on_c, 0, 75, 0
2, 15300, Note_on_c, 0, 73, 64
2, 15360, Note_on_c, 0, 73, 0
2, 15360, Note_on_c, 0, 71, 64
2, 15420, Note_on_c, 0, 71, 0
2, 15420, Note_on_c, 0, 70, 66
2, 15480, Note_on_c, 0, 70, 0
2, 15480, Note_on_c, 0, 71, 68
2, 15540, Note_on_c, 0, 71, 0
2, 15540, Note_on_c, 0, 73, 70
2, 15600, Note_on_c, 0, 73, 0
2, 15600, Note_on_c, 0, 71, 72
2, 15660, Note_on_c, 0, 71, 0
2, 15660, Note_on_c, 0, 69, 74
2, 15720, Note_on_c, 0, 69, 0
2, 15720, Note_on_c, 0, 68, 76
2, 15780, Note_on_c, 0, 68, 0
2, 15780, Note_on_c, 0, 66, 78
2, 15840, Note_on_c, 0, 66, 0
2, 15840, Note_on_c, 0, 68, 80
2, 15900, Note_on_c, 0, 68, 0
2, 15900, Note_on_c, 0, 69, 80
2, 15930, Note_on_c, 0, 69, 0
2, 15930, Note_on_c, 0, 68, 80
2, 15960, Note_on_c, 0, 68, 0
2, 15960, Note_on_c, 0, 66, 80
2, 15990, Note_on_c, 0, 66, 0
2, 15990, Note_on_c, 0, 68, 80
2, 16020, Note_on_c, 0, 68, 0
2, 16020, Note_on_c, 0, 69, 80
2, 16080, Note_on_c, 0, 69, 0
2, 16080, Note_on_c, 0, 71, 80
2, 16128, Note_on_c, 0, 71, 0
2, 16200, Note_on_c, 0, 64, 80
2, 16248, Note_on_c, 0, 64, 0
2, 16320, Note_on_c, 0, 63, 80
2, 16440, Note_on_c, 0, 63, 0
2, 16440, Note_on_c, 0, 66, 80
2, 16560, Note_on_c, 0, 66, 0
2, 16620, Note_on_c, 0, 59, 80
2, 16680, Note_on_c, 0, 59, 0
2, 16680, Note_on_c, 0, 61, 80
2, 16740, Note_on_c, 0, 61, 0
2, 16740, Note_on_c, 0, 63, 80
2, 16800, Note_on_c, 0, 63, 0
2, 16800, Note_on_c, 0, 64, 80
2, 16860, Note_on_c, 0, 64, 0
2, 16860, Note_on_c, 0, 66, 80
2, 16920, Note_on_c, 0, 66, 0
2, 16920, Note_on_c, 0, 68, 80
2, 16980, Note_on_c, 0, 68, 0
2, 16980, Note_on_c, 0, 69, 80
2, 17040, Note_on_c, 0, 69, 0
2, 17040, Note_on_c, 0, 71, 80
2, 17100, Note_on_c, 0, 71, 0
2, 17100, Note_on_c, 0, 73, 80
2, 17160, Note_on_c, 0, 73, 0
2, 17160, Note_on_c, 0, 75, 80
2, 17220, Note_on_c, 0, 75, 0
2, 17220, Note_on_c, 0, 76, 80
2, 17280, Note_on_c, 0, 76, 0
2, 17280, Note_on_c, 0, 71, 80
2, 17400, Note_on_c, 0, 71, 0
2, 17400, Note_on_c, 0, 69, 80
2, 17440, Note_on_c, 0, 69, 0
2, 17440, Note_on_c, 0, 71, 80
2, 17480, Note_on_c, 0, 71, 0
2, 17480, Note_on_c, 0, 69, 80
2, 17520, Note_on_c, 0, 69, 0
2, 17520, Note_on_c, 0, 68, 80
2, 17580, Note_on_c, 0, 68, 0
2, 17580, Note_on_c, 0, 71, 64
2, 17640, Note_on_c, 0, 71, 0
2, 17640, Note_on_c, 0, 73, 64
2, 17700, Note_on_c, 0, 73, 0
2, 17700, Note_on_c, 0, 75, 64
2, 17760, Note_on_c, 0, 75, 0
2, 17760, Note_on_c, 0, 76, 64
2, 17820, Note_on_c, 0, 76, 0
2, 17820, Note_on_c, 0, 78, 64
2, 17880, Note_on_c, 0, 78, 0
2, 17880, Note_on_c, 0, 80, 64
2, 17940, Note_on_c, 0, 80, 0
2, 17940, Note_on_c, 0, 81, 64
2, 18000, Note_on_c, 0, 81, 0
2, 18000, Note_on_c, 0, 83, 64
2, 18060, Note_on_c, 0, 83, 0
2, 18060, Note_on_c, 0, 80, 64
2, 18084, Note_on_c, 0, 80, 0
2, 18120, Note_on_c, 0, 78, 64
2, 18144, Note_on_c, 0, 78, 0
2, 18180, Note_on_c, 0, 76, 64
2, 18204, Note_on_c, 0, 76, 0
2, 18360, Note_on_c, 0, 85, 64
2, 18408, Note_on_c, 0, 85, 0
2, 18600, Note_on_c, 0, 87, 64
2, 18648, Note_on_c, 0, 87, 0
2, 18720, Note_on_c, 0, 88, 64
2, 18780, Note_on_c, 0, 88, 0
2, 18780, Note_on_c, 0, 83, 64
2, 18840, Note_on_c, 0, 83, 0
2, 18840, Note_on_c, 0, 85, 64
2, 18900, Note_on_c, 0, 85, 0
2, 18900, Note_on_c, 0, 81, 64
2, 18960, Note_on_c, 0, 81, 0
2, 18960, Note_on_c, 0, 80, 64
2, 19020, Note_on_c, 0, 80, 0
2, 19020, Note_on_c, 0, 76, 64
2, 19080, Note_on_c, 0, 76, 0
2, 19080, Note_on_c, 0, 78, 64
2, 19140, Note_on_c, 0, 78, 0
2, 19140, Note_on_c, 0, 75, 64
2, 19200, Note_on_c, 0, 75, 0
2, 19200, Note_on_c, 0, 76, 64
2, 19440, Note_on_c, 0, 76, 0
2, 19560, Note_on_c, 0, 67, 64
2, 19680, Note_on_c, 0, 67, 0
2, 19680, Note_on_c, 0, 67, 88
2, 19860, Note_on_c, 0, 67, 0
2, 19860, Note_on_c, 0, 69, 80
2, 19920, Note_on_c, 0, 69, 0
2, 19920, Note_on_c, 0, 71, 80
2, 19968, Note_on_c, 0, 71, 0
2, 20040, Note_on_c, 0, 76, 80
2, 20100, Note_on_c, 0, 76, 0
2, 20160, Note_on_c, 0, 75, 80
2, 20280, Note_on_c, 0, 75, 0
2, 20280, Note_on_c, 0, 78, 64
2, 20364, Note_on_c, 0, 78, 0
2, 20520, Note_on_c, 0, 71, 80
2, 20640, Note_on_c, 0, 71, 0
2, 20640, Note_on_c, 0, 76, 80
2, 20688, Note_on_c, 0, 76, 0
2, 20760, Note_on_c, 0, 76, 80
2, 20880, Note_on_c, 0, 76, 0
2, 20880, Note_on_c, 0, 78, 80
2, 20928, Note_on_c, 0, 78, 0
2, 21000, Note_on_c, 0, 78, 80
2, 21120, Note_on_c, 0, 78, 0
2, 21120, Note_on_c, 0, 81, 80
2, 21240, Note_on_c, 0, 81, 0
2, 21240, Note_on_c, 0, 79, 72
2, 21272, Note_on_c, 0, 79, 0
2, 21280, Note_on_c, 0, 81, 72
2, 21312, Note_on_c, 0, 81, 0
2, 21320, Note_on_c, 0, 79, 72
2, 21352, Note_on_c, 0, 79, 0
2, 21360, Note_on_c, 0, 78, 72
2, 21408, Note_on_c, 0, 78, 0
2, 21480, Note_on_c, 0, 78, 80
2, 21576, Note_on_c, 0, 78, 0
2, 21600, Note_on_c, 0, 79, 88
2, 21780, Note_on_c, 0, 79, 0
2, 21780, Note_on_c, 0, 81, 80
2, 21840, Note_on_c, 0, 81, 0
2, 21840, Note_on_c, 0, 83, 80
2, 21888, Note_on_c, 0, 83, 0
2, 21960, Note_on_c, 0, 83, 80
2, 22008, Note_on_c, 0, 83, 0
2, 22080, Note_on_c, 0, 81, 80
2, 22188, Note_on_c, 0, 81, 0
2, 22200, Note_on_c, 0, 84, 80
2, 22440, Note_on_c, 0, 84, 0
2, 22440, Note_on_c, 0, 81, 80
2, 22680, Note_on_c, 0, 81, 0
2, 22680, Note_on_c, 0, 78, 80
2, 22728, Note_on_c, 0, 78, 0
2, 22800, Note_on_c, 0, 79, 80
2, 22860, Note_on_c, 0, 79, 0
2, 22860, Note_on_c, 0, 78, 80
2, 22920, Note_on_c, 0, 78, 0
2, 22920, Note_on_c, 0, 76, 80
2, 22980, Note_on_c, 0, 76, 0
2, 22980, Note_on_c, 0, 74, 80
2, 23040, Note_on_c, 0, 74, 0
2, 23040, Note_on_c, 0, 79, 80
2, 23280, Note_on_c, 0, 79, 0
2, 23400, Note_on_c, 0, 83, 72
2, 23484, Note_on_c, 0, 83, 0
2, 23520, Note_on_c, 0, 83, 80
2, 23700, Note_on_c, 0, 83, 0
2, 23700, Note_on_c, 0, 84, 72
2, 23760, Note_on_c, 0, 84, 0
2, 23760, Note_on_c, 0, 86, 72
2, 23808, Note_on_c, 0, 86, 0
2, 23880, Note_on_c, 0, 86, 72
2, 23964, Note_on_c, 0, 86, 0
2, 24000, Note_on_c, 0, 86, 72
2, 24120, Note_on_c, 0, 86, 0
2, 24120, Note_on_c, 0, 76, 64
2, 24192, Note_on_c, 0, 76, 0
2, 24360, Note_on_c, 0, 76, 64
2, 24480, Note_on_c, 0, 76, 0
2, 24480, Note_on_c, 0, 81, 64
2, 24660, Note_on_c, 0, 81, 0
2, 24660, Note_on_c, 0, 83, 64
2, 24720, Note_on_c, 0, 83, 0
2, 24720, Note_on_c, 0, 84, 64
2, 24768, Note_on_c, 0, 84, 0
2, 24840, Note_on_c, 0, 84, 64
2, 24924, Note_on_c, 0, 84, 0
2, 24960, Note_on_c, 0, 84, 72
2, 25080, Note_on_c, 0, 84, 0
2, 25080, Note_on_c, 0, 75, 64
2, 25152, Note_on_c, 0, 75, 0
2, 25320, Note_on_c, 0, 71, 72
2, 25440, Note_on_c, 0, 71, 0
2, 25440, Note_on_c, 0, 76, 72
2, 25488, Note_on_c, 0, 76, 0
2, 25560, Note_on_c, 0, 76, 72
2, 25680, Note_on_c, 0, 76, 0
2, 25680, Note_on_c, 0, 78, 72
2, 25728, Note_on_c, 0, 78, 0
2, 25800, Note_on_c, 0, 78, 72
2, 25920, Note_on_c, 0, 78, 0
2, 25920, Note_on_c, 0, 81, 72
2, 26040, Note_on_c, 0, 81, 0
2, 26040, Note_on_c, 0, 79, 72
2, 26080, Note_on_c, 0, 79, 0
2, 26080, Note_on_c, 0, 81, 72
2, 26120, Note_on_c, 0, 81, 0
2, 26120, Note_on_c, 0, 79, 72
2, 26160, Note_on_c, 0, 79, 0
2, 26160, Note_on_c, 0, 78, 72
2, 26208, Note_on_c, 0, 78, 0
2, 26280, Note_on_c, 0, 83, 72
2, 26364, Note_on_c, 0, 83, 0
2, 26400, Note_on_c, 0, 76, 72
2, 26448, Note_on_c, 0, 76, 0
2, 26520, Note_on_c, 0, 76, 74
2, 26640, Note_on_c, 0, 76, 0
2, 26640, Note_on_c, 0, 84, 76
2, 26688, Note_on_c, 0, 84, 0
2, 26760, Note_on_c, 0, 84, 78
2, 26880, Note_on_c, 0, 84, 0
2, 26880, Note_on_c, 0, 75, 96
2, 27120, Note_on_c, 0, 75, 0
2, 27120, Note_on_c, 0, 76, 80
2, 27168, Note_on_c, 0, 76, 0
2, 27240, Note_on_c, 0, 76, 80
2, 27360, Note_on_c, 0, 76, 0
2, 27360, Note_on_c, 0, 78, 80
2, 27408, Note_on_c, 0, 78, 0
2, 27480, Note_on_c, 0, 78, 80
2, 27600, Note_on_c, 0, 78, 0
2, 27600, Note_on_c, 0, 76, 80
2, 27660, Note_on_c, 0, 76, 0
2, 27660, Note_on_c, 0, 75, 80
2, 27720, Note_on_c, 0, 75, 0
2, 27720, Note_on_c, 0, 73, 80
2, 27780, Note_on_c, 0, 73, 0
2, 27780, Note_on_c, 0, 71, 80
2, 27840, Note_on_c, 0, 71, 0
2, 27840, Note_on_c, 0, 76, 80
2, 28056, Note_on_c, 0, 76, 0
2, 28200, Note_on_c, 0, 83, 80
2, 28320, Note_on_c, 0, 83, 0
2, 28320, Note_on_c, 0, 83, 80
2, 28380, Note_on_c, 0, 83, 0
2, 28380, Note_on_c, 0, 86, 80
2, 28440, Note_on_c, 0, 86, 0
2, 28440, Note_on_c, 0, 84, 80
2, 28500, Note_on_c, 0, 84, 0
2, 28500, Note_on_c, 0, 88, 80
2, 28560, Note_on_c, 0, 88, 0
2, 28560, Note_on_c, 0, 86, 80
2, 28608, Note_on_c, 0, 86, 0
2, 28680, Note_on_c, 0, 86, 80
2, 28800, Note_on_c, 0, 86, 0
2, 28800, Note_on_c, 0, 86, 72
2, 28860, Note_on_c, 0, 86, 0
2, 28860, Note_on_c, 0, 76, 80
2, 28920, Note_on_c, 0, 76, 0
2, 28920, Note_on_c, 0, 75, 80
2, 28980, Note_on_c, 0, 75, 0
2, 28980, Note_on_c, 0, 76, 80
2, 29040, Note_on_c, 0, 76, 0
2, 29040, Note_on_c, 0, 75, 80
2, 29100, Note_on_c, 0, 75, 0
2, 29100, Note_on_c, 0, 76, 80
2, 29160, Note_on_c, 0, 76, 0
2, 29160, Note_on_c, 0, 75, 80
2, 29220, Note_on_c, 0, 75, 0
2, 29220, Note_on_c, 0, 76, 80
2, 29280, Note_on_c, 0, 76, 0
2, 29280, Note_on_c, 0, 81, 80
2, 29340, Note_on_c, 0, 81, 0
2, 29340, Note_on_c, 0, 83, 80
2, 29370, Note_on_c, 0, 83, 0
2, 29370, Note_on_c, 0, 81, 80
2, 29400, Note_on_c, 0, 81, 0
2, 29400, Note_on_c, 0, 80, 80
2, 29430, Note_on_c, 0, 80, 0
2, 29430, Note_on_c, 0, 81, 80
2, 29460, Note_on_c, 0, 81, 0
2, 29460, Note_on_c, 0, 83, 80
2, 29520, Note_on_c, 0, 83, 0
2, 29520, Note_on_c, 0, 84, 80
2, 29568, Note_on_c, 0, 84, 0
2, 29640, Note_on_c, 0, 84, 80
2, 29724, Note_on_c, 0, 84, 0
2, 29760, Note_on_c, 0, 84, 80
2, 30000, Note_on_c, 0, 84, 0
2, 30000, Note_on_c, 0, 74, 80
2, 30048, Note_on_c, 0, 74, 0
2, 30120, Note_on_c, 0, 74, 80
2, 30240, Note_on_c, 0, 74, 0
2, 30240, Note_on_c, 0, 79, 80
2, 30300, Note_on_c, 0, 79, 0
2, 30300, Note_on_c, 0, 78, 80
2, 30360, Note_on_c, 0, 78, 0
2, 30360, Note_on_c, 0, 81, 80
2, 30420, Note_on_c, 0, 81, 0
2, 30420, Note_on_c, 0, 79, 80
2, 30480, Note_on_c, 0, 79, 0
2, 30480, Note_on_c, 0, 83, 80
2, 30528, Note_on_c, 0, 83, 0
2, 30600, Note_on_c, 0, 83, 80
2, 30720, Note_on_c, 0, 83, 0
2, 30720, Note_on_c, 0, 83, 80
2, 30780, Note_on_c, 0, 83, 0
2, 30780, Note_on_c, 0, 72, 80
2, 30840, Note_on_c, 0, 72, 0
2, 30840, Note_on_c, 0, 71, 80
2, 30900, Note_on_c, 0, 71, 0
2, 30900, Note_on_c, 0, 72, 80
2, 30960, Note_on_c, 0, 72, 0
2, 30960, Note_on_c, 0, 74, 80
2, 31020, Note_on_c, 0, 74, 0
2, 31020, Note_on_c, 0, 72, 80
2, 31080, Note_on_c, 0, 72, 0
2, 31080, Note_on_c, 0, 71, 80
2, 31140, Note_on_c, 0, 71, 0
2, 31140, Note_on_c, 0, 72, 80
2, 31200, Note_on_c, 0, 72, 0
2, 31200, Note_on_c, 0, 78, 80
2, 31260, Note_on_c, 0, 78, 0
2, 31260, Note_on_c, 0, 79, 80
2, 31290, Note_on_c, 0, 79, 0
2, 31290, Note_on_c, 0, 78, 80
2, 31320, Note_on_c, 0, 78, 0
2, 31320, Note_on_c, 0, 76, 80
2, 31350, Note_on_c, 0, 76, 0
2, 31350, Note_on_c, 0, 78, 80
2, 31380, Note_on_c, 0, 78, 0
2, 31380, Note_on_c, 0, 79, 80
2, 31440, Note_on_c, 0, 79, 0
2, 31440, Note_on_c, 0, 81, 80
2, 31488, Note_on_c, 0, 81, 0
2, 31560, Note_on_c, 0, 81, 80
2, 31632, Note_on_c, 0, 81, 0
2, 31680, Note_on_c, 0, 81, 80
2, 31800, Note_on_c, 0, 81, 0
2, 31800, Note_on_c, 0, 71, 80
2, 31848, Note_on_c, 0, 71, 0
2, 31920, Note_on_c, 0, 79, 80
2, 31968, Note_on_c, 0, 79, 0
2, 32040, Note_on_c, 0, 74, 80
2, 32088, Note_on_c, 0, 74, 0
2, 32160, Note_on_c, 0, 76, 80
2, 32280, Note_on_c, 0, 76, 0
2, 32280, Note_on_c, 0, 69, 80
2, 32400, Note_on_c, 0, 69, 0
2, 32400, Note_on_c, 0, 72, 80
2, 32520, Note_on_c, 0, 72, 0
2, 32520, Note_on_c, 0, 66, 80
2, 32640, Note_on_c, 0, 66, 0
2, 32640, Note_on_c, 0, 69, 80
2, 32880, Note_on_c, 0, 69, 0
2, 32880, Note_on_c, 0, 67, 72
2, 32928, Note_on_c, 0, 67, 0
2, 33000, Note_on_c, 0, 67, 80
2, 33048, Note_on_c, 0, 67, 0
2, 33120, Note_on_c, 0, 67, 88
2, 33300, Note_on_c, 0, 67, 0
2, 33300, Note_on_c, 0, 69, 80
2, 33360, Note_on_c, 0, 69, 0
2, 33360, Note_on_c, 0, 71, 80
2, 33408, Note_on_c, 0, 71, 0
2, 33480, Note_on_c, 0, 76, 80
2, 33540, Note_on_c, 0, 76, 0
2, 33600, Note_on_c, 0, 75, 80
2, 33720, Note_on_c, 0, 75, 0
2, 33720, Note_on_c, 0, 78, 64
2, 33804, Note_on_c, 0, 78, 0
2, 33960, Note_on_c, 0, 71, 80
2, 34008, Note_on_c, 0, 71, 0
2, 34200, Note_on_c, 0, 76, 80
2, 34248, Note_on_c, 0, 76, 0
2, 34440, Note_on_c, 0, 78, 80
2, 34548, Note_on_c, 0, 78, 0
2, 34560, Note_on_c, 0, 81, 80
2, 34680, Note_on_c, 0, 81, 0
2, 34680, Note_on_c, 0, 79, 72
2, 34720, Note_on_c, 0, 79, 0
2, 34720, Note_on_c, 0, 81, 72
2, 34760, Note_on_c, 0, 81, 0
2, 34760, Note_on_c, 0, 79, 72
2, 34800, Note_on_c, 0, 79, 0
2, 34800, Note_on_c, 0, 78, 72
2, 34848, Note_on_c, 0, 78, 0
2, 34920, Note_on_c, 0, 83, 72
2, 35004, Note_on_c, 0, 83, 0
2, 35040, Note_on_c, 0, 76, 72
2, 35088, Note_on_c, 0, 76, 0
2, 35160, Note_on_c, 0, 76, 74
2, 35280, Note_on_c, 0, 76, 0
2, 35280, Note_on_c, 0, 84, 76
2, 35328, Note_on_c, 0, 84, 0
2, 35400, Note_on_c, 0, 84, 78
2, 35520, Note_on_c, 0, 84, 0
2, 35520, Note_on_c, 0, 75, 96
2, 35760, Note_on_c, 0, 75, 0
2, 35760, Note_on_c, 0, 76, 80
2, 35808, Note_on_c, 0, 76, 0
2, 35880, Note_on_c, 0, 76, 80
2, 36000, Note_on_c, 0, 76, 0
2, 36000, Note_on_c, 0, 78, 80
2, 36048, Note_on_c, 0, 78, 0
2, 36120, Note_on_c, 0, 78, 80
2, 36240, Note_on_c, 0, 78, 0
2, 36240, Note_on_c, 0, 76, 80
2, 36300, Note_on_c, 0, 76, 0
2, 36300, Note_on_c, 0, 75, 80
2, 36360, Note_on_c, 0, 75, 0
2, 36360, Note_on_c, 0, 73, 80
2, 36420, Note_on_c, 0, 73, 0
2, 36420, Note_on_c, 0, 71, 80
2, 36480, Note_on_c, 0, 71, 0
2, 36480, Note_on_c, 0, 76, 80
2, 36696, Note_on_c, 0, 76, 0
2, 36840, Note_on_c, 0, 80, 80
2, 36960, Note_on_c, 0, 80, 0
2, 36960, Note_on_c, 0, 80, 80
2, 37140, Note_on_c, 0, 80, 0
2, 37140, Note_on_c, 0, 81, 80
2, 37200, Note_on_c, 0, 81, 0
2, 37200, Note_on_c, 0, 83, 80
2, 37248, Note_on_c, 0, 83, 0
2, 37320, Note_on_c, 0, 76, 80
2, 37392, Note_on_c, 0, 76, 0
2, 37440, Note_on_c, 0, 75, 80
2, 37560, Note_on_c, 0, 75, 0
2, 37560, Note_on_c, 0, 78, 80
2, 37632, Note_on_c, 0, 78, 0
2, 37800, Note_on_c, 0, 71, 80
2, 37920, Note_on_c, 0, 71, 0
2, 37920, Note_on_c, 0, 75, 80
2, 37980, Note_on_c, 0, 75, 0
2, 37980, Note_on_c, 0, 76, 80
2, 38040, Note_on_c, 0, 76, 0
2, 38040, Note_on_c, 0, 75, 80
2, 38100, Note_on_c, 0, 75, 0
2, 38100, Note_on_c, 0, 76, 80
2, 38160, Note_on_c, 0, 76, 0
2, 38160, Note_on_c, 0, 77, 80
2, 38220, Note_on_c, 0, 77, 0
2, 38220, Note_on_c, 0, 78, 80
2, 38280, Note_on_c, 0, 78, 0
2, 38280, Note_on_c, 0, 77, 80
2, 38340, Note_on_c, 0, 77, 0
2, 38340, Note_on_c, 0, 78, 80
2, 38400, Note_on_c, 0, 78, 0
2, 38400, Note_on_c, 0, 81, 80
2, 38520, Note_on_c, 0, 81, 0
2, 38520, Note_on_c, 0, 80, 80
2, 38560, Note_on_c, 0, 80, 0
2, 38560, Note_on_c, 0, 81, 80
2, 38600, Note_on_c, 0, 81, 0
2, 38600, Note_on_c, 0, 80, 80
2, 38640, Note_on_c, 0, 80, 0
2, 38640, Note_on_c, 0, 78, 80
2, 38688, Note_on_c, 0, 78, 0
2, 38760, Note_on_c, 0, 78, 80
2, 38880, Note_on_c, 0, 78, 0
2, 38880, Note_on_c, 0, 79, 80
2, 38940, Note_on_c, 0, 79, 0
2, 38940, Note_on_c, 0, 80, 80
2, 39000, Note_on_c, 0, 80, 0
2, 39000, Note_on_c, 0, 79, 80
2, 39060, Note_on_c, 0, 79, 0
2, 39060, Note_on_c, 0, 80, 80
2, 39120, Note_on_c, 0, 80, 0
2, 39120, Note_on_c, 0, 82, 80
2, 39168, Note_on_c, 0, 82, 0
2, 39240, Note_on_c, 0, 82, 80
2, 39312, Note_on_c, 0, 82, 0
2, 39360, Note_on_c, 0, 83, 80
2, 39720, Note_on_c, 0, 83, 0
2, 39720, Note_on_c, 0, 78, 80
2, 39840, Note_on_c, 0, 78, 0
2, 39840, Note_on_c, 0, 78, 80
2, 39900, Note_on_c, 0, 78, 0
2, 39900, Note_on_c, 0, 76, 80
2, 39960, Note_on_c, 0, 76, 0
2, 39960, Note_on_c, 0, 80, 80
2, 40020, Note_on_c, 0, 80, 0
2, 40020, Note_on_c, 0, 76, 80
2, 40080, Note_on_c, 0, 76, 0
2, 40080, Note_on_c, 0, 75, 80
2, 40140, Note_on_c, 0, 75, 0
2, 40140, Note_on_c, 0, 73, 80
2, 40200, Note_on_c, 0, 73, 0
2, 40200, Note_on_c, 0, 71, 80
2, 40260, Note_on_c, 0, 71, 0
2, 40260, Note_on_c, 0, 70, 80
2, 40320, Note_on_c, 0, 70, 0
2, 40320, Note_on_c, 0, 71, 80
2, 40560, Note_on_c, 0, 71, 0
2, 40680, Note_on_c, 0, 78, 80
2, 40800, Note_on_c, 0, 78, 0
2, 40800, Note_on_c, 0, 77, 80
2, 40860, Note_on_c, 0, 77, 0
2, 40860, Note_on_c, 0, 78, 80
2, 40920, Note_on_c, 0, 78, 0
2, 40920, Note_on_c, 0, 77, 80
2, 40980, Note_on_c, 0, 77, 0
2, 40980, Note_on_c, 0, 78, 80
2, 41040, Note_on_c, 0, 78, 0
2, 41040, Note_on_c, 0, 81, 80
2, 41088, Note_on_c, 0, 81, 0
2, 41160, Note_on_c, 0, 75, 80
2, 41232, Note_on_c, 0, 75, 0
2, 41280, Note_on_c, 0, 76, 80
2, 41460, Note_on_c, 0, 76, 0
2, 41460, Note_on_c, 0, 80, 80
2, 41520, Note_on_c, 0, 80, 0
2, 41520, Note_on_c, 0, 83, 80
2, 41568, Note_on_c, 0, 83, 0
2, 41640, Note_on_c, 0, 83, 64
2, 41760, Note_on_c, 0, 83, 0
2, 41760, Note_on_c, 0, 77, 64
2, 41820, Note_on_c, 0, 77, 0
2, 41820, Note_on_c, 0, 78, 64
2, 41880, Note_on_c, 0, 78, 0
2, 41880, Note_on_c, 0, 77, 64
2, 41940, Note_on_c, 0, 77, 0
2, 41940, Note_on_c, 0, 78, 64
2, 42000, Note_on_c, 0, 78, 0
2, 42000, Note_on_c, 0, 81, 64
2, 42048, Note_on_c, 0, 81, 0
2, 42120, Note_on_c, 0, 75, 64
2, 42192, Note_on_c, 0, 75, 0
2, 42240, Note_on_c, 0, 76, 64
2, 42420, Note_on_c, 0, 76, 0
2, 42420, Note_on_c, 0, 80, 64
2, 42480, Note_on_c, 0, 80, 0
2, 42480, Note_on_c, 0, 83, 64
2, 42528, Note_on_c, 0, 83, 0
2, 42600, Note_on_c, 0, 83, 80
2, 42720, Note_on_c, 0, 83, 0
2, 42720, Note_on_c, 0, 81, 80
2, 42768, Note_on_c, 0, 81, 0
2, 42840, Note_on_c, 0, 81, 80
2, 42960, Note_on_c, 0, 81, 0
2, 42960, Note_on_c, 0, 80, 80
2, 43008, Note_on_c, 0, 80, 0
2, 43080, Note_on_c, 0, 80, 80
2, 43200, Note_on_c, 0, 80, 0
2, 43200, Note_on_c, 0, 78, 80
2, 43260, Note_on_c, 0, 78, 0
2, 43260, Note_on_c, 0, 83, 80
2, 43284, Note_on_c, 0, 83, 0
2, 43320, Note_on_c, 0, 82, 80
2, 43344, Note_on_c, 0, 82, 0
2, 43380, Note_on_c, 0, 80, 80
2, 43404, Note_on_c, 0, 80, 0
2, 43440, Note_on_c, 0, 78, 80
2, 43500, Note_on_c, 0, 78, 0
2, 43500, Note_on_c, 0, 76, 80
2, 43560, Note_on_c, 0, 76, 0
2, 43560, Note_on_c, 0, 75, 80
2, 43620, Note_on_c, 0, 75, 0
2, 43620, Note_on_c, 0, 73, 80
2, 43680, Note_on_c, 0, 73, 0
2, 43680, Note_on_c, 0, 71, 80
2, 43740, Note_on_c, 0, 71, 0
2, 43740, Note_on_c, 0, 71, 80
2, 43764, Note_on_c, 0, 71, 0
2, 43800, Note_on_c, 0, 70, 80
2, 43824, Note_on_c, 0, 70, 0
2, 43860, Note_on_c, 0, 68, 80
2, 43884, Note_on_c, 0, 68, 0
2, 43920, Note_on_c, 0, 66, 80
2, 43980, Note_on_c, 0, 66, 0
2, 43980, Note_on_c, 0, 64, 80
2, 44040, Note_on_c, 0, 64, 0
2, 44040, Note_on_c, 0, 63, 80
2, 44100, Note_on_c, 0, 63, 0
2, 44100, Note_on_c, 0, 61, 80
2, 44160, Note_on_c, 0, 61, 0
2, 44160, Note_on_c, 0, 59, 80
2, 44520, Note_on_c, 0, 59, 0
2, 44520, Note_on_c, 0, 80, 80
2, 44640, Note_on_c, 0, 80, 0
2, 44640, Note_on_c, 0, 80, 80
2, 44820, Note_on_c, 0, 80, 0
2, 44820, Note_on_c, 0, 81, 80
2, 44880, Note_on_c, 0, 81, 0
2, 44880, Note_on_c, 0, 83, 80
2, 44928, Note_on_c, 0, 83, 0
2, 45000, Note_on_c, 0, 76, 80
2, 45072, Note_on_c, 0, 76, 0
2, 45120, Note_on_c, 0, 75, 80
2, 45240, Note_on_c, 0, 75, 0
2, 45240, Note_on_c, 0, 78, 80
2, 45312, Note_on_c, 0, 78, 0
2, 45480, Note_on_c, 0, 71, 80
2, 45600, Note_on_c, 0, 71, 0
2, 45600, Note_on_c, 0, 75, 80
2, 45660, Note_on_c, 0, 75, 0
2, 45660, Note_on_c, 0, 76, 80
2, 45720, Note_on_c, 0, 76, 0
2, 45720, Note_on_c, 0, 75, 80
2, 45780, Note_on_c, 0, 75, 0
2, 45780, Note_on_c, 0, 76, 80
2, 45840, Note_on_c, 0, 76, 0
2, 45840, Note_on_c, 0, 77, 80
2, 45900, Note_on_c, 0, 77, 0
2, 45900, Note_on_c, 0, 78, 80
2, 45960, Note_on_c, 0, 78, 0
2, 45960, Note_on_c, 0, 77, 80
2, 46020, Note_on_c, 0, 77, 0
2, 46020, Note_on_c, 0, 78, 80
2, 46080, Note_on_c, 0, 78, 0
2, 46080, Note_on_c, 0, 81, 80
2, 46200, Note_on_c, 0, 81, 0
2, 46200, Note_on_c, 0, 80, 80
2, 46240, Note_on_c, 0, 80, 0
2, 46240, Note_on_c, 0, 81, 80
2, 46280, Note_on_c, 0, 81, 0
2, 46280, Note_on_c, 0, 80, 80
2, 46320, Note_on_c, 0, 80, 0
2, 46320, Note_on_c, 0, 78, 80
2, 46368, Note_on_c, 0, 78, 0
2, 46440, Note_on_c, 0, 78, 80
2, 46560, Note_on_c, 0, 78, 0
2, 46560, Note_on_c, 0, 80, 80
2, 46608, Note_on_c, 0, 80, 0
2, 46680, Note_on_c, 0, 80, 80
2, 46800, Note_on_c, 0, 80, 0
2, 46800, Note_on_c, 0, 81, 80
2, 46848, Note_on_c, 0, 81, 0
2, 46920, Note_on_c, 0, 81, 80
2, 47040, Note_on_c, 0, 81, 0
2, 47040, Note_on_c, 0, 83, 80
2, 47280, Note_on_c, 0, 83, 0
2, 47280, Note_on_c, 0, 85, 80
2, 47340, Note_on_c, 0, 85, 0
2, 47340, Note_on_c, 0, 83, 80
2, 47364, Note_on_c, 0, 83, 0
2, 47400, Note_on_c, 0, 81, 80
2, 47424, Note_on_c, 0, 81, 0
2, 47460, Note_on_c, 0, 80, 80
2, 47484, Note_on_c, 0, 80, 0
2, 47520, Note_on_c, 0, 78, 80
2, 47568, Note_on_c, 0, 78, 0
2, 47640, Note_on_c, 0, 78, 80
2, 47688, Note_on_c, 0, 78, 0
2, 47760, Note_on_c, 0, 76, 80
2, 47820, Note_on_c, 0, 76, 0
2, 47820, Note_on_c, 0, 75, 80
2, 47880, Note_on_c, 0, 75, 0
2, 47880, Note_on_c, 0, 73, 80
2, 47940, Note_on_c, 0, 73, 0
2, 47940, Note_on_c, 0, 71, 80
2, 48000, Note_on_c, 0, 71, 0
2, 48000, Note_on_c, 0, 76, 80
2, 48192, Note_on_c, 0, 76, 0
2, 48360, Note_on_c, 0, 67, 80
2, 48456, Note_on_c, 0, 67, 0
2, 48480, Note_on_c, 0, 67, 88
2, 48660, Note_on_c, 0, 67, 0
2, 48660, Note_on_c, 0, 69, 80
2, 48720, Note_on_c, 0, 69, 0
2, 48720, Note_on_c, 0, 71, 80
2, 48768, Note_on_c, 0, 71, 0
2, 48840, Note_on_c, 0, 76, 80
2, 48900, Note_on_c, 0, 76, 0
2, 48960, Note_on_c, 0, 75, 80
2, 49080, Note_on_c, 0, 75, 0
2, 49080, Note_on_c, 0, 78, 64
2, 49164, Note_on_c, 0, 78, 0
2, 49320, Note_on_c, 0, 71, 80
2, 49440, Note_on_c, 0, 71, 0
2, 49440, Note_on_c, 0, 76, 80
2, 49488, Note_on_c, 0, 76, 0
2, 49560, Note_on_c, 0, 76, 80
2, 49680, Note_on_c, 0, 76, 0
2, 49680, Note_on_c, 0, 78, 80
2, 49728, Note_on_c, 0, 78, 0
2, 49800, Note_on_c, 0, 78, 80
2, 49920, Note_on_c, 0, 78, 0
2, 49920, Note_on_c, 0, 81, 80
2, 50040, Note_on_c, 0, 81, 0
2, 50040, Note_on_c, 0, 79, 72
2, 50072, Note_on_c, 0, 79, 0
2, 50080, Note_on_c, 0, 81, 72
2, 50112, Note_on_c, 0, 81, 0
2, 50120, Note_on_c, 0, 79, 72
2, 50152, Note_on_c, 0, 79, 0
2, 50160, Note_on_c, 0, 78, 72
2, 50208, Note_on_c, 0, 78, 0
2, 50280, Note_on_c, 0, 78, 80
2, 50376, Note_on_c, 0, 78, 0
2, 50400, Note_on_c, 0, 79, 88
2, 50580, Note_on_c, 0, 79, 0
2, 50580, Note_on_c, 0, 81, 80
2, 50640, Note_on_c, 0, 81, 0
2, 50640, Note_on_c, 0, 83, 80
2, 50688, Note_on_c, 0, 83, 0
2, 50760, Note_on_c, 0, 83, 80
2, 50844, Note_on_c, 0, 83, 0
2, 50880, Note_on_c, 0, 81, 88
2, 51000, Note_on_c, 0, 81, 0
2, 51000, Note_on_c, 0, 84, 72
2, 51084, Note_on_c, 0, 84, 0
2, 51240, Note_on_c, 0, 81, 80
2, 51360, Note_on_c, 0, 81, 0
2, 51360, Note_on_c, 0, 78, 80
2, 51408, Note_on_c, 0, 78, 0
2, 51480, Note_on_c, 0, 78, 80
2, 51528, Note_on_c, 0, 78, 0
2, 51600, Note_on_c, 0, 79, 80
2, 51660, Note_on_c, 0, 79, 0
2, 51660, Note_on_c, 0, 78, 80
2, 51720, Note_on_c, 0, 78, 0
2, 51720, Note_on_c, 0, 76, 80
2, 51780, Note_on_c, 0, 76, 0
2, 51780, Note_on_c, 0, 74, 80
2, 51840, Note_on_c, 0, 74, 0
2, 51840, Note_on_c, 0, 79, 80
2, 52080, Note_on_c, 0, 79, 0
2, 52200, Note_on_c, 0, 67, 80
2, 52284, Note_on_c, 0, 67, 0
2, 52320, Note_on_c, 0, 67, 80
2, 52380, Note_on_c, 0, 67, 0
2, 52380, Note_on_c, 0, 69, 80
2, 52410, Note_on_c, 0, 69, 0
2, 52410, Note_on_c, 0, 67, 80
2, 52440, Note_on_c, 0, 67, 0
2, 52440, Note_on_c, 0, 66, 80
2, 52470, Note_on_c, 0, 66, 0
2, 52470, Note_on_c, 0, 67, 80
2, 52500, Note_on_c, 0, 67, 0
2, 52500, Note_on_c, 0, 69, 80
2, 52560, Note_on_c, 0, 69, 0
2, 52560, Note_on_c, 0, 71, 80
2, 52608, Note_on_c, 0, 71, 0
2, 52680, Note_on_c, 0, 76, 80
2, 52752, Note_on_c, 0, 76, 0
2, 52800, Note_on_c, 0, 75, 80
2, 52920, Note_on_c, 0, 75, 0
2, 52920, Note_on_c, 0, 83, 96
2, 53160, Note_on_c, 0, 83, 0
2, 53160, Note_on_c, 0, 78, 80
2, 53220, Note_on_c, 0, 78, 0
2, 53220, Note_on_c, 0, 75, 80
2, 53280, Note_on_c, 0, 75, 0
2, 53280, Note_on_c, 0, 83, 88
2, 53400, Note_on_c, 0, 83, 0
2, 53400, Note_on_c, 0, 79, 80
2, 53460, Note_on_c, 0, 79, 0
2, 53460, Note_on_c, 0, 76, 80
2, 53520, Note_on_c, 0, 76, 0
2, 53520, Note_on_c, 0, 84, 88
2, 53640, Note_on_c, 0, 84, 0
2, 53640, Note_on_c, 0, 81, 80
2, 53700, Note_on_c, 0, 81, 0
2, 53700, Note_on_c, 0, 78, 80
2, 53760, Note_on_c, 0, 78, 0
2, 53760, Note_on_c, 0, 81, 80
2, 53880, Note_on_c, 0, 81, 0
2, 53880, Note_on_c, 0, 79, 80
2, 53920, Note_on_c, 0, 79, 0
2, 53920, Note_on_c, 0, 81, 80
2, 53960, Note_on_c, 0, 81, 0
2, 53960, Note_on_c, 0, 79, 80
2, 54000, Note_on_c, 0, 79, 0
2, 54000, Note_on_c, 0, 78, 80
2, 54048, Note_on_c, 0, 78, 0
2, 54120, Note_on_c, 0, 78, 80
2, 54192, Note_on_c, 0, 78, 0
2, 54240, Note_on_c, 0, 79, 80
2, 54300, Note_on_c, 0, 79, 0
2, 54300, Note_on_c, 0, 81, 80
2, 54330, Note_on_c, 0, 81, 0
2, 54330, Note_on_c, 0, 79, 80
2, 54360, Note_on_c, 0, 79, 0
2, 54360, Note_on_c, 0, 78, 80
2, 54390, Note_on_c, 0, 78, 0
2, 54390, Note_on_c, 0, 79, 80
2, 54420, Note_on_c, 0, 79, 0
2, 54420, Note_on_c, 0, 81, 80
2, 54480, Note_on_c, 0, 81, 0
2, 54480, Note_on_c, 0, 83, 80
2, 54528, Note_on_c, 0, 83, 0
2, 54600, Note_on_c, 0, 83, 80
2, 54672, Note_on_c, 0, 83, 0
2, 54720, Note_on_c, 0, 81, 80
2, 54780, Note_on_c, 0, 81, 0
2, 54780, Note_on_c, 0, 84, 80
2, 54840, Note_on_c, 0, 84, 0
2, 54840, Note_on_c, 0, 88, 80
2, 54900, Note_on_c, 0, 88, 0
2, 54900, Note_on_c, 0, 86, 80
2, 54960, Note_on_c, 0, 86, 0
2, 54960, Note_on_c, 0, 84, 80
2, 55020, Note_on_c, 0, 84, 0
2, 55020, Note_on_c, 0, 83, 80
2, 55080, Note_on_c, 0, 83, 0
2, 55080, Note_on_c, 0, 81, 80
2, 55140, Note_on_c, 0, 81, 0
2, 55140, Note_on_c, 0, 79, 80
2, 55200, Note_on_c, 0, 79, 0
2, 55200, Note_on_c, 0, 78, 80
2, 55248, Note_on_c, 0, 78, 0
2, 55320, Note_on_c, 0, 81, 80
2, 55368, Note_on_c, 0, 81, 0
2, 55440, Note_on_c, 0, 84, 80
2, 55560, Note_on_c, 0, 84, 0
2, 55560, Note_on_c, 0, 81, 80
2, 55620, Note_on_c, 0, 81, 0
2, 55620, Note_on_c, 0, 78, 80
2, 55680, Note_on_c, 0, 78, 0
2, 55680, Note_on_c, 0, 79, 80
2, 55920, Note_on_c, 0, 79, 0
2, 56040, Note_on_c, 0, 83, 80
2, 56160, Note_on_c, 0, 83, 0
2, 56160, Note_on_c, 0, 83, 80
2, 56280, Note_on_c, 0, 83, 0
2, 56280, Note_on_c, 0, 84, 80
2, 56400, Note_on_c, 0, 84, 0
2, 56400, Note_on_c, 0, 85, 80
2, 56520, Note_on_c, 0, 85, 0
2, 56520, Note_on_c, 0, 86, 80
2, 56640, Note_on_c, 0, 86, 0
2, 56640, Note_on_c, 0, 86, 80
2, 56760, Note_on_c, 0, 86, 0
2, 56760, Note_on_c, 0, 76, 80
2, 56808, Note_on_c, 0, 76, 0
2, 56880, Note_on_c, 0, 77, 80
2, 56940, Note_on_c, 0, 77, 0
2, 56940, Note_on_c, 0, 78, 80
2, 57000, Note_on_c, 0, 78, 0
2, 57000, Note_on_c, 0, 79, 80
2, 57060, Note_on_c, 0, 79, 0
2, 57060, Note_on_c, 0, 80, 80
2, 57120, Note_on_c, 0, 80, 0
2, 57120, Note_on_c, 0, 81, 80
2, 57180, Note_on_c, 0, 81, 0
2, 57180, Note_on_c, 0, 83, 80
2, 57210, Note_on_c, 0, 83, 0
2, 57210, Note_on_c, 0, 81, 80
2, 57240, Note_on_c, 0, 81, 0
2, 57240, Note_on_c, 0, 80, 80
2, 57270, Note_on_c, 0, 80, 0
2, 57270, Note_on_c, 0, 81, 80
2, 57300, Note_on_c, 0, 81, 0
2, 57300, Note_on_c, 0, 83, 80
2, 57360, Note_on_c, 0, 83, 0
2, 57360, Note_on_c, 0, 84, 80
2, 57408, Note_on_c, 0, 84, 0
2, 57480, Note_on_c, 0, 84, 80
2, 57552, Note_on_c, 0, 84, 0
2, 57600, Note_on_c, 0, 84, 80
2, 57840, Note_on_c, 0, 84, 0
2, 57840, Note_on_c, 0, 75, 80
2, 57888, Note_on_c, 0, 75, 0
2, 57960, Note_on_c, 0, 71, 80
2, 58080, Note_on_c, 0, 71, 0
2, 58080, Note_on_c, 0, 76, 80
2, 58128, Note_on_c, 0, 76, 0
2, 58200, Note_on_c, 0, 76, 80
2, 58320, Note_on_c, 0, 76, 0
2, 58320, Note_on_c, 0, 78, 80
2, 58368, Note_on_c, 0, 78, 0
2, 58440, Note_on_c, 0, 78, 80
2, 58560, Note_on_c, 0, 78, 0
2, 58560, Note_on_c, 0, 81, 80
2, 58680, Note_on_c, 0, 81, 0
2, 58680, Note_on_c, 0, 79, 80
2, 58720, Note_on_c, 0, 79, 0
2, 58720, Note_on_c, 0, 81, 80
2, 58760, Note_on_c, 0, 81, 0
2, 58760, Note_on_c, 0, 79, 80
2, 58800, Note_on_c, 0, 79, 0
2, 58800, Note_on_c, 0, 78, 80
2, 58848, Note_on_c, 0, 78, 0
2, 58920, Note_on_c, 0, 83, 80
2, 59040, Note_on_c, 0, 83, 0
2, 59040, Note_on_c, 0, 76, 80
2, 59088, Note_on_c, 0, 76, 0
2, 59160, Note_on_c, 0, 76, 84
2, 59280, Note_on_c, 0, 76, 0
2, 59280, Note_on_c, 0, 84, 88
2, 59328, Note_on_c, 0, 84, 0
2, 59400, Note_on_c, 0, 84, 92
2, 59520, Note_on_c, 0, 84, 0
2, 59520, Note_on_c, 0, 75, 96
2, 59760, Note_on_c, 0, 75, 0
2, 59760, Note_on_c, 0, 76, 80
2, 59808, Note_on_c, 0, 76, 0
2, 59880, Note_on_c, 0, 76, 80
2, 60000, Note_on_c, 0, 76, 0
2, 60000, Note_on_c, 0, 78, 80
2, 60048, Note_on_c, 0, 78, 0
2, 60120, Note_on_c, 0, 78, 80
2, 60168, Note_on_c, 0, 78, 0
2, 60240, Note_on_c, 0, 76, 80
2, 60300, Note_on_c, 0, 76, 0
2, 60300, Note_on_c, 0, 75, 80
2, 60360, Note_on_c, 0, 75, 0
2, 60360, Note_on_c, 0, 73, 80
2, 60420, Note_on_c, 0, 73, 0
2, 60420, Note_on_c, 0, 71, 80
2, 60480, Note_on_c, 0, 71, 0
2, 60480, Note_on_c, 0, 76, 80
2, 60720, Note_on_c, 0, 76, 0
2, 60840, Note_on_c, 0, 83, 80
2, 60960, Note_on_c, 0, 83, 0
2, 60960, Note_on_c, 0, 83, 72
2, 61020, Note_on_c, 0, 83, 0
2, 61020, Note_on_c, 0, 84, 75
2, 61044, Note_on_c, 0, 84, 0
2, 61080, Note_on_c, 0, 86, 78
2, 61104, Note_on_c, 0, 86, 0
2, 61140, Note_on_c, 0, 86, 81
2, 61164, Note_on_c, 0, 86, 0
2, 61200, Note_on_c, 0, 86, 84
2, 61260, Note_on_c, 0, 86, 0
2, 61260, Note_on_c, 0, 86, 87
2, 61320, Note_on_c, 0, 86, 0
2, 61320, Note_on_c, 0, 86, 90
2, 61380, Note_on_c, 0, 86, 0
2, 61380, Note_on_c, 0, 86, 93
2, 61440, Note_on_c, 0, 86, 0
2, 61440, Note_on_c, 0, 86, 96
2, 61560, Note_on_c, 0, 86, 0
2, 61560, Note_on_c, 0, 76, 80
2, 61608, Note_on_c, 0, 76, 0
2, 61800, Note_on_c, 0, 76, 80
2, 61920, Note_on_c, 0, 76, 0
2, 61920, Note_on_c, 0, 81, 72
2, 61980, Note_on_c, 0, 81, 0
2, 61980, Note_on_c, 0, 83, 75
2, 62004, Note_on_c, 0, 83, 0
2, 62040, Note_on_c, 0, 84, 78
2, 62064, Note_on_c, 0, 84, 0
2, 62100, Note_on_c, 0, 84, 81
2, 62124, Note_on_c, 0, 84, 0
2, 62160, Note_on_c, 0, 84, 84
2, 62220, Note_on_c, 0, 84, 0
2, 62220, Note_on_c, 0, 84, 87
2, 62280, Note_on_c, 0, 84, 0
2, 62280, Note_on_c, 0, 84, 90
2, 62340, Note_on_c, 0, 84, 0
2, 62340, Note_on_c, 0, 84, 93
2, 62400, Note_on_c, 0, 84, 0
2, 62400, Note_on_c, 0, 84, 96
2, 62520, Note_on_c, 0, 84, 0
2, 62520, Note_on_c, 0, 75, 80
2, 62568, Note_on_c, 0, 75, 0
2, 62760, Note_on_c, 0, 71, 80
2, 62880, Note_on_c, 0, 71, 0
2, 62880, Note_on_c, 0, 75, 80
2, 62940, Note_on_c, 0, 75, 0
2, 62940, Note_on_c, 0, 76, 80
2, 63000, Note_on_c, 0, 76, 0
2, 63000, Note_on_c, 0, 75, 80
2, 63060, Note_on_c, 0, 75, 0
2, 63060, Note_on_c, 0, 76, 80
2, 63120, Note_on_c, 0, 76, 0
2, 63120, Note_on_c, 0, 78, 80
2, 63168, Note_on_c, 0, 78, 0
2, 63240, Note_on_c, 0, 78, 80
2, 63360, Note_on_c, 0, 78, 0
2, 63360, Note_on_c, 0, 81, 80
2, 63480, Note_on_c, 0, 81, 0
2, 63480, Note_on_c, 0, 79, 80
2, 63520, Note_on_c, 0, 79, 0
2, 63520, Note_on_c, 0, 81, 80
2, 63560, Note_on_c, 0, 81, 0
2, 63560, Note_on_c, 0, 79, 80
2, 63600, Note_on_c, 0, 79, 0
2, 63600, Note_on_c, 0, 78, 80
2, 63648, Note_on_c, 0, 78, 0
2, 63720, Note_on_c, 0, 83, 80
2, 63960, Note_on_c, 0, 83, 0
2, 63960, Note_on_c, 0, 76, 80
2, 64200, Note_on_c, 0, 76, 0
2, 64200, Note_on_c, 0, 84, 80
2, 64320, Note_on_c, 0, 84, 0
2, 64320, Note_on_c, 0, 75, 80
2, 64368, Note_on_c, 0, 75, 0
2, 64440, Note_on_c, 0, 75, 80
2, 64560, Note_on_c, 0, 75, 0
2, 64560, Note_on_c, 0, 76, 80
2, 64608, Note_on_c, 0, 76, 0
2, 64680, Note_on_c, 0, 76, 80
2, 64800, Note_on_c, 0, 76, 0
2, 64920, Note_on_c, 0, 69, 84
2, 64920, Note_on_c, 0, 78, 84
2, 64968, Note_on_c, 0, 78, 0
2, 64968, Note_on_c, 0, 69, 0
2, 65160, Note_on_c, 0, 66, 92
2, 65160, Note_on_c, 0, 75, 92
2, 65208, Note_on_c, 0, 75, 0
2, 65208, Note_on_c, 0, 66, 0
2, 65280, Note_on_c, 0, 64, 96
2, 65280, Note_on_c, 0, 76, 96
2, 65520, Note_on_c, 0, 76, 0
2, 65520, Note_on_c, 0, 64, 0
2, 65520, End_track
3, 0, Start_track
3, 0, MIDI_port, 0
3, 0, Title_t, "by F.J. Haydn (3rd mvmt - molto vivace)"
3, 0, Program_c, 1, 0
3, 0, Control_c, 1, 7, 120
3, 0, Control_c, 1, 10, 56
3, 480, Note_on_c, 1, 52, 72
3, 510, Note_on_c, 1, 52, 0
3, 540, Note_on_c, 1, 59, 72
3, 600, Note_on_c, 1, 59, 0
3, 600, Note_on_c, 1, 55, 72
3, 660, Note_on_c, 1, 55, 0
3, 660, Note_on_c, 1, 59, 72
3, 720, Note_on_c, 1, 59, 0
3, 720, Note_on_c, 1, 52, 72
3, 780, Note_on_c, 1, 52, 0
3, 780, Note_on_c, 1, 59, 72
3, 840, Note_on_c, 1, 59, 0
3, 840, Note_on_c, 1, 55, 72
3, 900, Note_on_c, 1, 55, 0
3, 900, Note_on_c, 1, 59, 72
3, 960, Note_on_c, 1, 59, 0
3, 960, Note_on_c, 1, 54, 64
3, 984, Note_on_c, 1, 54, 0
3, 1020, Note_on_c, 1, 59, 64
3, 1080, Note_on_c, 1, 59, 0
3, 1080, Note_on_c, 1, 57, 64
3, 1140, Note_on_c, 1, 57, 0
3, 1140, Note_on_c, 1, 59, 64
3, 1200, Note_on_c, 1, 59, 0
3, 1200, Note_on_c, 1, 54, 64
3, 1224, Note_on_c, 1, 54, 0
3, 1260, Note_on_c, 1, 59, 64
3, 1320, Note_on_c, 1, 59, 0
3, 1320, Note_on_c, 1, 57, 64
3, 1380, Note_on_c, 1, 57, 0
3, 1380, Note_on_c, 1, 59, 64
3, 1440, Note_on_c, 1, 59, 0
3, 1440, Note_on_c, 1, 52, 72
3, 1500, Note_on_c, 1, 52, 0
3, 1500, Note_on_c, 1, 59, 72
3, 1560, Note_on_c, 1, 59, 0
3, 1560, Note_on_c, 1, 55, 72
3, 1620, Note_on_c, 1, 55, 0
3, 1620, Note_on_c, 1, 59, 72
3, 1680, Note_on_c, 1, 59, 0
3, 1680, Note_on_c, 1, 51, 72
3, 1740, Note_on_c, 1, 51, 0
3, 1740, Note_on_c, 1, 59, 72
3, 1800, Note_on_c, 1, 59, 0
3, 1800, Note_on_c, 1, 54, 72
3, 1860, Note_on_c, 1, 54, 0
3, 1860, Note_on_c, 1, 59, 72
3, 1920, Note_on_c, 1, 59, 0
3, 1920, Note_on_c, 1, 52, 72
3, 1980, Note_on_c, 1, 52, 0
3, 1980, Note_on_c, 1, 59, 72
3, 2040, Note_on_c, 1, 59, 0
3, 2040, Note_on_c, 1, 55, 72
3, 2100, Note_on_c, 1, 55, 0
3, 2100, Note_on_c, 1, 59, 72
3, 2160, Note_on_c, 1, 59, 0
3, 2160, Note_on_c, 1, 47, 72
3, 2220, Note_on_c, 1, 47, 0
3, 2220, Note_on_c, 1, 59, 72
3, 2280, Note_on_c, 1, 59, 0
3, 2280, Note_on_c, 1, 51, 72
3, 2340, Note_on_c, 1, 51, 0
3, 2340, Note_on_c, 1, 59, 72
3, 2400, Note_on_c, 1, 59, 0
3, 2400, Note_on_c, 1, 52, 72
3, 2424, Note_on_c, 1, 52, 0
3, 2460, Note_on_c, 1, 59, 72
3, 2520, Note_on_c, 1, 59, 0
3, 2520, Note_on_c, 1, 55, 72
3, 2580, Note_on_c, 1, 55, 0
3, 2580, Note_on_c, 1, 59, 72
3, 2640, Note_on_c, 1, 59, 0
3, 2640, Note_on_c, 1, 52, 72
3, 2664, Note_on_c, 1, 52, 0
3, 2700, Note_on_c, 1, 59, 72
3, 2760, Note_on_c, 1, 59, 0
3, 2760, Note_on_c, 1, 55, 72
3, 2820, Note_on_c, 1, 55, 0
3, 2820, Note_on_c, 1, 59, 72
3, 2880, Note_on_c, 1, 59, 0
3, 2880, Note_on_c, 1, 48, 64
3, 2940, Note_on_c, 1, 48, 0
3, 2940, Note_on_c, 1, 57, 64
3, 3000, Note_on_c, 1, 57, 0
3, 3000, Note_on_c, 1, 52, 64
3, 3060, Note_on_c, 1, 52, 0
3, 3060, Note_on_c, 1, 57, 64
3, 3120, Note_on_c, 1, 57, 0
3, 3120, Note_on_c, 1, 48, 64
3, 3180, Note_on_c, 1, 48, 0
3, 3180, Note_on_c, 1, 57, 64
3, 3240, Note_on_c, 1, 57, 0
3, 3240, Note_on_c, 1, 52, 64
3, 3300, Note_on_c, 1, 52, 0
3, 3300, Note_on_c, 1, 57, 64
3, 3360, Note_on_c, 1, 57, 0
3, 3360, Note_on_c, 1, 50, 64
3, 3420, Note_on_c, 1, 50, 0
3, 3420, Note_on_c, 1, 60, 66
3, 3480, Note_on_c, 1, 60, 0
3, 3480, Note_on_c, 1, 57, 68
3, 3540, Note_on_c, 1, 57, 0
3, 3540, Note_on_c, 1, 60, 70
3, 3600, Note_on_c, 1, 60, 0
3, 3600, Note_on_c, 1, 50, 72
3, 3660, Note_on_c, 1, 50, 0
3, 3660, Note_on_c, 1, 60, 74
3, 3720, Note_on_c, 1, 60, 0
3, 3720, Note_on_c, 1, 57, 76
3, 3780, Note_on_c, 1, 57, 0
3, 3780, Note_on_c, 1, 60, 78
3, 3840, Note_on_c, 1, 60, 0
3, 3840, Note_on_c, 1, 55, 85
3, 3840, Note_on_c, 1, 59, 85
3, 4080, Note_on_c, 1, 59, 0
3, 4080, Note_on_c, 1, 55, 0
3, 4080, Note_on_c, 1, 43, 64
3, 4320, Note_on_c, 1, 43, 0
3, 4320, Note_on_c, 1, 59, 64
3, 4380, Note_on_c, 1, 59, 0
3, 4380, Note_on_c, 1, 67, 64
3, 4440, Note_on_c, 1, 67, 0
3, 4440, Note_on_c, 1, 62, 64
3, 4500, Note_on_c, 1, 62, 0
3, 4500, Note_on_c, 1, 67, 64
3, 4560, Note_on_c, 1, 67, 0
3, 4560, Note_on_c, 1, 59, 64
3, 4620, Note_on_c, 1, 59, 0
3, 4620, Note_on_c, 1, 67, 64
3, 4680, Note_on_c, 1, 67, 0
3, 4680, Note_on_c, 1, 62, 64
3, 4740, Note_on_c, 1, 62, 0
3, 4740, Note_on_c, 1, 67, 64
3, 4800, Note_on_c, 1, 67, 0
3, 4800, Note_on_c, 1, 60, 64
3, 4860, Note_on_c, 1, 60, 0
3, 4860, Note_on_c, 1, 67, 64
3, 4920, Note_on_c, 1, 67, 0
3, 4920, Note_on_c, 1, 64, 64
3, 4980, Note_on_c, 1, 64, 0
3, 4980, Note_on_c, 1, 67, 64
3, 5040, Note_on_c, 1, 67, 0
3, 5040, Note_on_c, 1, 60, 64
3, 5100, Note_on_c, 1, 60, 0
3, 5100, Note_on_c, 1, 67, 64
3, 5160, Note_on_c, 1, 67, 0
3, 5160, Note_on_c, 1, 64, 64
3, 5220, Note_on_c, 1, 64, 0
3, 5220, Note_on_c, 1, 67, 64
3, 5280, Note_on_c, 1, 67, 0
3, 5280, Note_on_c, 1, 57, 56
3, 5340, Note_on_c, 1, 57, 0
3, 5340, Note_on_c, 1, 66, 56
3, 5400, Note_on_c, 1, 66, 0
3, 5400, Note_on_c, 1, 60, 56
3, 5460, Note_on_c, 1, 60, 0
3, 5460, Note_on_c, 1, 66, 56
3, 5520, Note_on_c, 1, 66, 0
3, 5520, Note_on_c, 1, 57, 56
3, 5580, Note_on_c, 1, 57, 0
3, 5580, Note_on_c, 1, 66, 56
3, 5640, Note_on_c, 1, 66, 0
3, 5640, Note_on_c, 1, 60, 56
3, 5700, Note_on_c, 1, 60, 0
3, 5700, Note_on_c, 1, 66, 56
3, 5760, Note_on_c, 1, 66, 0
3, 5760, Note_on_c, 1, 59, 56
3, 5820, Note_on_c, 1, 59, 0
3, 5820, Note_on_c, 1, 66, 56
3, 5880, Note_on_c, 1, 66, 0
3, 5880, Note_on_c, 1, 63, 56
3, 5940, Note_on_c, 1, 63, 0
3, 5940, Note_on_c, 1, 66, 56
3, 6000, Note_on_c, 1, 66, 0
3, 6000, Note_on_c, 1, 57, 56
3, 6060, Note_on_c, 1, 57, 0
3, 6060, Note_on_c, 1, 63, 56
3, 6120, Note_on_c, 1, 63, 0
3, 6120, Note_on_c, 1, 59, 56
3, 6180, Note_on_c, 1, 59, 0
3, 6180, Note_on_c, 1, 63, 56
3, 6240, Note_on_c, 1, 63, 0
3, 6240, Note_on_c, 1, 55, 64
3, 6300, Note_on_c, 1, 55, 0
3, 6300, Note_on_c, 1, 64, 64
3, 6360, Note_on_c, 1, 64, 0
3, 6360, Note_on_c, 1, 59, 64
3, 6420, Note_on_c, 1, 59, 0
3, 6420, Note_on_c, 1, 64, 64
3, 6480, Note_on_c, 1, 64, 0
3, 6480, Note_on_c, 1, 51, 64
3, 6540, Note_on_c, 1, 51, 0
3, 6540, Note_on_c, 1, 59, 64
3, 6600, Note_on_c, 1, 59, 0
3, 6600, Note_on_c, 1, 54, 64
3, 6660, Note_on_c, 1, 54, 0
3, 6660, Note_on_c, 1, 59, 64
3, 6720, Note_on_c, 1, 59, 0
3, 6720, Note_on_c, 1, 52, 64
3, 6780, Note_on_c, 1, 52, 0
3, 6780, Note_on_c, 1, 59, 64
3, 6840, Note_on_c, 1, 59, 0
3, 6840, Note_on_c, 1, 55, 64
3, 6900, Note_on_c, 1, 55, 0
3, 6900, Note_on_c, 1, 59, 64
3, 6960, Note_on_c, 1, 59, 0
3, 6960, Note_on_c, 1, 47, 64
3, 7020, Note_on_c, 1, 47, 0
3, 7020, Note_on_c, 1, 59, 64
3, 7080, Note_on_c, 1, 59, 0
3, 7080, Note_on_c, 1, 51, 64
3, 7140, Note_on_c, 1, 51, 0
3, 7140, Note_on_c, 1, 59, 64
3, 7200, Note_on_c, 1, 59, 0
3, 7200, Note_on_c, 1, 48, 64
3, 7260, Note_on_c, 1, 48, 0
3, 7260, Note_on_c, 1, 59, 65
3, 7320, Note_on_c, 1, 59, 0
3, 7320, Note_on_c, 1, 55, 66
3, 7380, Note_on_c, 1, 55, 0
3, 7380, Note_on_c, 1, 59, 67
3, 7440, Note_on_c, 1, 59, 0
3, 7440, Note_on_c, 1, 48, 68
3, 7500, Note_on_c, 1, 48, 0
3, 7500, Note_on_c, 1, 57, 69
3, 7560, Note_on_c, 1, 57, 0
3, 7560, Note_on_c, 1, 55, 70
3, 7620, Note_on_c, 1, 55, 0
3, 7620, Note_on_c, 1, 57, 71
3, 7680, Note_on_c, 1, 57, 0
3, 7680, Note_on_c, 1, 47, 80
3, 7740, Note_on_c, 1, 47, 0
3, 7740, Note_on_c, 1, 57, 64
3, 7800, Note_on_c, 1, 57, 0
3, 7800, Note_on_c, 1, 54, 64
3, 7860, Note_on_c, 1, 54, 0
3, 7860, Note_on_c, 1, 57, 64
3, 7920, Note_on_c, 1, 57, 0
3, 7920, Note_on_c, 1, 48, 64
3, 7980, Note_on_c, 1, 48, 0
3, 7980, Note_on_c, 1, 55, 64
3, 8040, Note_on_c, 1, 55, 0
3, 8040, Note_on_c, 1, 52, 64
3, 8100, Note_on_c, 1, 52, 0
3, 8100, Note_on_c, 1, 55, 64
3, 8160, Note_on_c, 1, 55, 0
3, 8160, Note_on_c, 1, 45, 64
3, 8220, Note_on_c, 1, 45, 0
3, 8220, Note_on_c, 1, 57, 64
3, 8280, Note_on_c, 1, 57, 0
3, 8280, Note_on_c, 1, 48, 64
3, 8340, Note_on_c, 1, 48, 0
3, 8340, Note_on_c, 1, 57, 64
3, 8400, Note_on_c, 1, 57, 0
3, 8400, Note_on_c, 1, 47, 64
3, 8460, Note_on_c, 1, 47, 0
3, 8460, Note_on_c, 1, 57, 64
3, 8520, Note_on_c, 1, 57, 0
3, 8520, Note_on_c, 1, 54, 64
3, 8580, Note_on_c, 1, 54, 0
3, 8580, Note_on_c, 1, 57, 64
3, 8640, Note_on_c, 1, 57, 0
3, 8640, Note_on_c, 1, 52, 80
3, 8640, Note_on_c, 1, 55, 80
3, 8856, Note_on_c, 1, 55, 0
3, 8856, Note_on_c, 1, 52, 0
3, 8880, Note_on_c, 1, 40, 64
3, 9120, Note_on_c, 1, 40, 0
3, 9120, Note_on_c, 1, 64, 80
3, 9120, Note_on_c, 1, 68, 80
3, 9360, Note_on_c, 1, 68, 0
3, 9360, Note_on_c, 1, 64, 0
3, 9480, Note_on_c, 1, 68, 80
3, 9480, Note_on_c, 1, 71, 80
3, 9528, Note_on_c, 1, 71, 0
3, 9528, Note_on_c, 1, 68, 0
3, 9600, Note_on_c, 1, 66, 85
3, 9600, Note_on_c, 1, 69, 85
3, 9840, Note_on_c, 1, 69, 0
3, 9840, Note_on_c, 1, 66, 0
3, 9840, Note_on_c, 1, 57, 64
3, 10080, Note_on_c, 1, 57, 0
3, 10080, Note_on_c, 1, 56, 64
3, 10320, Note_on_c, 1, 56, 0
3, 10440, Note_on_c, 1, 68, 76
3, 10488, Note_on_c, 1, 68, 0
3, 10560, Note_on_c, 1, 66, 85
3, 10680, Note_on_c, 1, 66, 0
3, 10680, Note_on_c, 1, 59, 85
3, 10800, Note_on_c, 1, 59, 0
3, 10800, Note_on_c, 1, 64, 85
3, 11040, Note_on_c, 1, 64, 0
3, 11040, Note_on_c, 1, 64, 85
3, 11040, Note_on_c, 1, 68, 85
3, 11280, Note_on_c, 1, 68, 0
3, 11280, Note_on_c, 1, 64, 0
3, 11400, Note_on_c, 1, 63, 85
3, 11400, Note_on_c, 1, 66, 85
3, 11448, Note_on_c, 1, 66, 0
3, 11448, Note_on_c, 1, 63, 0
3, 11520, Note_on_c, 1, 64, 85
3, 11520, Note_on_c, 1, 68, 85
3, 11760, Note_on_c, 1, 68, 0
3, 11760, Note_on_c, 1, 64, 0
3, 11880, Note_on_c, 1, 64, 85
3, 11880, Note_on_c, 1, 66, 85
3, 11952, Note_on_c, 1, 66, 0
3, 11952, Note_on_c, 1, 64, 0
3, 12000, Note_on_c, 1, 63, 85
3, 12000, Note_on_c, 1, 66, 85
3, 12120, Note_on_c, 1, 66, 0
3, 12120, Note_on_c, 1, 63, 0
3, 12120, Note_on_c, 1, 64, 85
3, 12168, Note_on_c, 1, 64, 0
3, 12240, Note_on_c, 1, 66, 85
3, 12288, Note_on_c, 1, 66, 0
3, 12360, Note_on_c, 1, 54, 85
3, 12408, Note_on_c, 1, 54, 0
3, 12480, Note_on_c, 1, 59, 85
3, 12720, Note_on_c, 1, 59, 0
3, 12720, Note_on_c, 1, 47, 64
3, 12816, Note_on_c, 1, 47, 0
3, 12960, Note_on_c, 1, 59, 72
3, 12960, Note_on_c, 1, 63, 72
3, 13200, Note_on_c, 1, 63, 0
3, 13200, Note_on_c, 1, 59, 0
3, 13320, Note_on_c, 1, 57, 72
3, 13320, Note_on_c, 1, 59, 72
3, 13368, Note_on_c, 1, 59, 0
3, 13368, Note_on_c, 1, 57, 0
3, 13440, Note_on_c, 1, 56, 72
3, 13440, Note_on_c, 1, 59, 72
3, 13680, Note_on_c, 1, 59, 0
3, 13680, Note_on_c, 1, 56, 0
3, 13800, Note_on_c, 1, 68, 56
3, 13800, Note_on_c, 1, 71, 56
3, 13848, Note_on_c, 1, 71, 0
3, 13848, Note_on_c, 1, 68, 0
3, 13920, Note_on_c, 1, 69, 56
3, 13920, Note_on_c, 1, 73, 56
3, 14160, Note_on_c, 1, 73, 0
3, 14160, Note_on_c, 1, 69, 0
3, 14280, Note_on_c, 1, 57, 56
3, 14280, Note_on_c, 1, 59, 56
3, 14400, Note_on_c, 1, 59, 0
3, 14400, Note_on_c, 1, 57, 0
3, 14400, Note_on_c, 1, 56, 56
3, 14400, Note_on_c, 1, 59, 56
3, 14640, Note_on_c, 1, 59, 0
3, 14640, Note_on_c, 1, 56, 0
3, 14760, Note_on_c, 1, 68, 64
3, 14760, Note_on_c, 1, 71, 64
3, 14880, Note_on_c, 1, 71, 0
3, 14880, Note_on_c, 1, 68, 0
3, 14880, Note_on_c, 1, 69, 64
3, 14880, Note_on_c, 1, 73, 64
3, 15120, Note_on_c, 1, 73, 0
3, 15120, Note_on_c, 1, 69, 0
3, 15240, Note_on_c, 1, 58, 64
3, 15240, Note_on_c, 1, 61, 64
3, 15336, Note_on_c, 1, 61, 0
3, 15336, Note_on_c, 1, 58, 0
3, 15360, Note_on_c, 1, 59, 64
3, 15600, Note_on_c, 1, 59, 0
3, 15840, Note_on_c, 1, 52, 72
3, 15840, Note_on_c, 1, 59, 72
3, 16080, Note_on_c, 1, 59, 0
3, 16080, Note_on_c, 1, 52, 0
3, 16200, Note_on_c, 1, 56, 72
3, 16200, Note_on_c, 1, 59, 72
3, 16248, Note_on_c, 1, 59, 0
3, 16248, Note_on_c, 1, 56, 0
3, 16320, Note_on_c, 1, 54, 72
3, 16320, Note_on_c, 1, 57, 72
3, 16416, Note_on_c, 1, 57, 0
3, 16416, Note_on_c, 1, 54, 0
3, 16560, Note_on_c, 1, 45, 72
3, 16800, Note_on_c, 1, 45, 0
3, 16800, Note_on_c, 1, 44, 72
3, 17040, Note_on_c, 1, 44, 0
3, 17160, Note_on_c, 1, 68, 85
3, 17280, Note_on_c, 1, 68, 0
3, 17280, Note_on_c, 1, 66, 85
3, 17400, Note_on_c, 1, 66, 0
3, 17400, Note_on_c, 1, 59, 85
3, 17520, Note_on_c, 1, 59, 0
3, 17520, Note_on_c, 1, 64, 64
3, 17760, Note_on_c, 1, 64, 0
3, 18240, Note_on_c, 1, 57, 64
3, 18288, Note_on_c, 1, 57, 0
3, 18480, Note_on_c, 1, 69, 64
3, 18528, Note_on_c, 1, 69, 0
3, 18720, Note_on_c, 1, 68, 64
3, 18840, Note_on_c, 1, 68, 0
3, 18840, Note_on_c, 1, 69, 64
3, 18888, Note_on_c, 1, 69, 0
3, 18960, Note_on_c, 1, 71, 64
3, 19008, Note_on_c, 1, 71, 0
3, 19080, Note_on_c, 1, 59, 64
3, 19200, Note_on_c, 1, 59, 0
3, 19200, Note_on_c, 1, 64, 64
3, 19440, Note_on_c, 1, 64, 0
3, 19440, Note_on_c, 1, 52, 48
3, 19536, Note_on_c, 1, 52, 0
3, 19680, Note_on_c, 1, 52, 72
3, 19710, Note_on_c, 1, 52, 0
3, 19740, Note_on_c, 1, 59, 72
3, 19800, Note_on_c, 1, 59, 0
3, 19800, Note_on_c, 1, 55, 72
3, 19860, Note_on_c, 1, 55, 0
3, 19860, Note_on_c, 1, 59, 72
3, 19920, Note_on_c, 1, 59, 0
3, 19920, Note_on_c, 1, 52, 72
3, 19980, Note_on_c, 1, 52, 0
3, 19980, Note_on_c, 1, 59, 72
3, 20040, Note_on_c, 1, 59, 0
3, 20040, Note_on_c, 1, 55, 72
3, 20100, Note_on_c, 1, 55, 0
3, 20100, Note_on_c, 1, 59, 72
3, 20160, Note_on_c, 1, 59, 0
3, 20160, Note_on_c, 1, 54, 64
3, 20184, Note_on_c, 1, 54, 0
3, 20220, Note_on_c, 1, 59, 64
3, 20280, Note_on_c, 1, 59, 0
3, 20280, Note_on_c, 1, 57, 64
3, 20340, Note_on_c, 1, 57, 0
3, 20340, Note_on_c, 1, 59, 64
3, 20400, Note_on_c, 1, 59, 0
3, 20400, Note_on_c, 1, 54, 64
3, 20424, Note_on_c, 1, 54, 0
3, 20460, Note_on_c, 1, 59, 64
3, 20520, Note_on_c, 1, 59, 0
3, 20520, Note_on_c, 1, 57, 64
3, 20580, Note_on_c, 1, 57, 0
3, 20580, Note_on_c, 1, 59, 64
3, 20640, Note_on_c, 1, 59, 0
3, 20640, Note_on_c, 1, 52, 72
3, 20700, Note_on_c, 1, 52, 0
3, 20700, Note_on_c, 1, 59, 72
3, 20760, Note_on_c, 1, 59, 0
3, 20760, Note_on_c, 1, 55, 72
3, 20820, Note_on_c, 1, 55, 0
3, 20820, Note_on_c, 1, 59, 72
3, 20880, Note_on_c, 1, 59, 0
3, 20880, Note_on_c, 1, 51, 72
3, 20940, Note_on_c, 1, 51, 0
3, 20940, Note_on_c, 1, 59, 72
3, 21000, Note_on_c, 1, 59, 0
3, 21000, Note_on_c, 1, 54, 72
3, 21060, Note_on_c, 1, 54, 0
3, 21060, Note_on_c, 1, 59, 72
3, 21120, Note_on_c, 1, 59, 0
3, 21120, Note_on_c, 1, 52, 72
3, 21180, Note_on_c, 1, 52, 0
3, 21180, Note_on_c, 1, 59, 72
3, 21240, Note_on_c, 1, 59, 0
3, 21240, Note_on_c, 1, 55, 72
3, 21300, Note_on_c, 1, 55, 0
3, 21300, Note_on_c, 1, 59, 72
3, 21360, Note_on_c, 1, 59, 0
3, 21360, Note_on_c, 1, 47, 72
3, 21420, Note_on_c, 1, 47, 0
3, 21420, Note_on_c, 1, 59, 72
3, 21480, Note_on_c, 1, 59, 0
3, 21480, Note_on_c, 1, 51, 72
3, 21540, Note_on_c, 1, 51, 0
3, 21540, Note_on_c, 1, 59, 72
3, 21600, Note_on_c, 1, 59, 0
3, 21600, Note_on_c, 1, 52, 72
3, 21624, Note_on_c, 1, 52, 0
3, 21660, Note_on_c, 1, 59, 72
3, 21720, Note_on_c, 1, 59, 0
3, 21720, Note_on_c, 1, 55, 72
3, 21780, Note_on_c, 1, 55, 0
3, 21780, Note_on_c, 1, 59, 72
3, 21840, Note_on_c, 1, 59, 0
3, 21840, Note_on_c, 1, 52, 72
3, 21864, Note_on_c, 1, 52, 0
3, 21900, Note_on_c, 1, 59, 72
3, 21960, Note_on_c, 1, 59, 0
3, 21960, Note_on_c, 1, 55, 72
3, 22020, Note_on_c, 1, 55, 0
3, 22020, Note_on_c, 1, 59, 72
3, 22080, Note_on_c, 1, 59, 0
3, 22080, Note_on_c, 1, 48, 64
3, 22140, Note_on_c, 1, 48, 0
3, 22140, Note_on_c, 1, 57, 64
3, 22200, Note_on_c, 1, 57, 0
3, 22200, Note_on_c, 1, 52, 64
3, 22260, Note_on_c, 1, 52, 0
3, 22260, Note_on_c, 1, 57, 64
3, 22320, Note_on_c, 1, 57, 0
3, 22320, Note_on_c, 1, 48, 64
3, 22380, Note_on_c, 1, 48, 0
3, 22380, Note_on_c, 1, 57, 64
3, 22440, Note_on_c, 1, 57, 0
3, 22440, Note_on_c, 1, 52, 64
3, 22500, Note_on_c, 1, 52, 0
3, 22500, Note_on_c, 1, 57, 64
3, 22560, Note_on_c, 1, 57, 0
3, 22560, Note_on_c, 1, 50, 64
3, 22620, Note_on_c, 1, 50, 0
3, 22620, Note_on_c, 1, 60, 66
3, 22680, Note_on_c, 1, 60, 0
3, 22680, Note_on_c, 1, 57, 68
3, 22740, Note_on_c, 1, 57, 0
3, 22740, Note_on_c, 1, 60, 70
3, 22800, Note_on_c, 1, 60, 0
3, 22800, Note_on_c, 1, 50, 72
3, 22860, Note_on_c, 1, 50, 0
3, 22860, Note_on_c, 1, 60, 74
3, 22920, Note_on_c, 1, 60, 0
3, 22920, Note_on_c, 1, 57, 76
3, 22980, Note_on_c, 1, 57, 0
3, 22980, Note_on_c, 1, 60, 78
3, 23040, Note_on_c, 1, 60, 0
3, 23040, Note_on_c, 1, 59, 85
3, 23040, Note_on_c, 1, 55, 85
3, 23280, Note_on_c, 1, 55, 0
3, 23280, Note_on_c, 1, 59, 0
3, 23280, Note_on_c, 1, 43, 64
3, 23376, Note_on_c, 1, 43, 0
3, 23520, Note_on_c, 1, 59, 64
3, 23580, Note_on_c, 1, 59, 0
3, 23580, Note_on_c, 1, 67, 64
3, 23640, Note_on_c, 1, 67, 0
3, 23640, Note_on_c, 1, 62, 64
3, 23700, Note_on_c, 1, 62, 0
3, 23700, Note_on_c, 1, 67, 64
3, 23760, Note_on_c, 1, 67, 0
3, 23760, Note_on_c, 1, 59, 64
3, 23820, Note_on_c, 1, 59, 0
3, 23820, Note_on_c, 1, 67, 64
3, 23880, Note_on_c, 1, 67, 0
3, 23880, Note_on_c, 1, 62, 64
3, 23940, Note_on_c, 1, 62, 0
3, 23940, Note_on_c, 1, 67, 64
3, 24000, Note_on_c, 1, 67, 0
3, 24000, Note_on_c, 1, 60, 64
3, 24060, Note_on_c, 1, 60, 0
3, 24060, Note_on_c, 1, 67, 64
3, 24120, Note_on_c, 1, 67, 0
3, 24120, Note_on_c, 1, 64, 64
3, 24180, Note_on_c, 1, 64, 0
3, 24180, Note_on_c, 1, 67, 64
3, 24240, Note_on_c, 1, 67, 0
3, 24240, Note_on_c, 1, 60, 64
3, 24300, Note_on_c, 1, 60, 0
3, 24300, Note_on_c, 1, 67, 64
3, 24360, Note_on_c, 1, 67, 0
3, 24360, Note_on_c, 1, 64, 64
3, 24420, Note_on_c, 1, 64, 0
3, 24420, Note_on_c, 1, 67, 64
3, 24480, Note_on_c, 1, 67, 0
3, 24480, Note_on_c, 1, 57, 56
3, 24540, Note_on_c, 1, 57, 0
3, 24540, Note_on_c, 1, 66, 56
3, 24600, Note_on_c, 1, 66, 0
3, 24600, Note_on_c, 1, 60, 56
3, 24660, Note_on_c, 1, 60, 0
3, 24660, Note_on_c, 1, 66, 56
3, 24720, Note_on_c, 1, 66, 0
3, 24720, Note_on_c, 1, 57, 56
3, 24780, Note_on_c, 1, 57, 0
3, 24780, Note_on_c, 1, 66, 56
3, 24840, Note_on_c, 1, 66, 0
3, 24840, Note_on_c, 1, 60, 56
3, 24900, Note_on_c, 1, 60, 0
3, 24900, Note_on_c, 1, 66, 56
3, 24960, Note_on_c, 1, 66, 0
3, 24960, Note_on_c, 1, 59, 56
3, 25020, Note_on_c, 1, 59, 0
3, 25020, Note_on_c, 1, 66, 56
3, 25080, Note_on_c, 1, 66, 0
3, 25080, Note_on_c, 1, 63, 56
3, 25140, Note_on_c, 1, 63, 0
3, 25140, Note_on_c, 1, 66, 56
3, 25200, Note_on_c, 1, 66, 0
3, 25200, Note_on_c, 1, 57, 56
3, 25260, Note_on_c, 1, 57, 0
3, 25260, Note_on_c, 1, 63, 56
3, 25320, Note_on_c, 1, 63, 0
3, 25320, Note_on_c, 1, 59, 56
3, 25380, Note_on_c, 1, 59, 0
3, 25380, Note_on_c, 1, 63, 56
3, 25440, Note_on_c, 1, 63, 0
3, 25440, Note_on_c, 1, 55, 64
3, 25500, Note_on_c, 1, 55, 0
3, 25500, Note_on_c, 1, 64, 64
3, 25560, Note_on_c, 1, 64, 0
3, 25560, Note_on_c, 1, 59, 64
3, 25620, Note_on_c, 1, 59, 0
3, 25620, Note_on_c, 1, 64, 64
3, 25680, Note_on_c, 1, 64, 0
3, 25680, Note_on_c, 1, 51, 64
3, 25740, Note_on_c, 1, 51, 0
3, 25740, Note_on_c, 1, 59, 64
3, 25800, Note_on_c, 1, 59, 0
3, 25800, Note_on_c, 1, 54, 64
3, 25860, Note_on_c, 1, 54, 0
3, 25860, Note_on_c, 1, 59, 64
3, 25920, Note_on_c, 1, 59, 0
3, 25920, Note_on_c, 1, 52, 64
3, 25980, Note_on_c, 1, 52, 0
3, 25980, Note_on_c, 1, 59, 64
3, 26040, Note_on_c, 1, 59, 0
3, 26040, Note_on_c, 1, 55, 64
3, 26100, Note_on_c, 1, 55, 0
3, 26100, Note_on_c, 1, 59, 64
3, 26160, Note_on_c, 1, 59, 0
3, 26160, Note_on_c, 1, 47, 64
3, 26220, Note_on_c, 1, 47, 0
3, 26220, Note_on_c, 1, 59, 64
3, 26280, Note_on_c, 1, 59, 0
3, 26280, Note_on_c, 1, 51, 64
3, 26340, Note_on_c, 1, 51, 0
3, 26340, Note_on_c, 1, 59, 64
3, 26400, Note_on_c, 1, 59, 0
3, 26400, Note_on_c, 1, 48, 64
3, 26460, Note_on_c, 1, 48, 0
3, 26460, Note_on_c, 1, 59, 65
3, 26520, Note_on_c, 1, 59, 0
3, 26520, Note_on_c, 1, 55, 66
3, 26580, Note_on_c, 1, 55, 0
3, 26580, Note_on_c, 1, 59, 67
3, 26640, Note_on_c, 1, 59, 0
3, 26640, Note_on_c, 1, 48, 68
3, 26700, Note_on_c, 1, 48, 0
3, 26700, Note_on_c, 1, 57, 69
3, 26760, Note_on_c, 1, 57, 0
3, 26760, Note_on_c, 1, 55, 70
3, 26820, Note_on_c, 1, 55, 0
3, 26820, Note_on_c, 1, 57, 71
3, 26880, Note_on_c, 1, 57, 0
3, 26880, Note_on_c, 1, 47, 80
3, 26940, Note_on_c, 1, 47, 0
3, 26940, Note_on_c, 1, 57, 64
3, 27000, Note_on_c, 1, 57, 0
3, 27000, Note_on_c, 1, 54, 64
3, 27060, Note_on_c, 1, 54, 0
3, 27060, Note_on_c, 1, 57, 64
3, 27120, Note_on_c, 1, 57, 0
3, 27120, Note_on_c, 1, 48, 64
3, 27180, Note_on_c, 1, 48, 0
3, 27180, Note_on_c, 1, 55, 64
3, 27240, Note_on_c, 1, 55, 0
3, 27240, Note_on_c, 1, 52, 64
3, 27300, Note_on_c, 1, 52, 0
3, 27300, Note_on_c, 1, 55, 64
3, 27360, Note_on_c, 1, 55, 0
3, 27360, Note_on_c, 1, 45, 64
3, 27420, Note_on_c, 1, 45, 0
3, 27420, Note_on_c, 1, 57, 64
3, 27480, Note_on_c, 1, 57, 0
3, 27480, Note_on_c, 1, 48, 64
3, 27540, Note_on_c, 1, 48, 0
3, 27540, Note_on_c, 1, 57, 64
3, 27600, Note_on_c, 1, 57, 0
3, 27600, Note_on_c, 1, 47, 64
3, 27660, Note_on_c, 1, 47, 0
3, 27660, Note_on_c, 1, 57, 64
3, 27720, Note_on_c, 1, 57, 0
3, 27720, Note_on_c, 1, 54, 64
3, 27780, Note_on_c, 1, 54, 0
3, 27780, Note_on_c, 1, 57, 64
3, 27840, Note_on_c, 1, 57, 0
3, 27840, Note_on_c, 1, 55, 80
3, 27840, Note_on_c, 1, 52, 80
3, 28056, Note_on_c, 1, 52, 0
3, 28056, Note_on_c, 1, 55, 0
3, 28080, Note_on_c, 1, 40, 64
3, 28176, Note_on_c, 1, 40, 0
3, 28320, Note_on_c, 1, 59, 72
3, 28380, Note_on_c, 1, 59, 0
3, 28380, Note_on_c, 1, 67, 72
3, 28440, Note_on_c, 1, 67, 0
3, 28440, Note_on_c, 1, 62, 72
3, 28500, Note_on_c, 1, 62, 0
3, 28500, Note_on_c, 1, 67, 72
3, 28560, Note_on_c, 1, 67, 0
3, 28560, Note_on_c, 1, 59, 72
3, 28620, Note_on_c, 1, 59, 0
3, 28620, Note_on_c, 1, 67, 72
3, 28680, Note_on_c, 1, 67, 0
3, 28680, Note_on_c, 1, 62, 72
3, 28740, Note_on_c, 1, 62, 0
3, 28740, Note_on_c, 1, 67, 72
3, 28800, Note_on_c, 1, 67, 0
3, 28800, Note_on_c, 1, 60, 72
3, 28860, Note_on_c, 1, 60, 0
3, 28860, Note_on_c, 1, 67, 72
3, 28920, Note_on_c, 1, 67, 0
3, 28920, Note_on_c, 1, 64, 72
3, 28980, Note_on_c, 1, 64, 0
3, 28980, Note_on_c, 1, 67, 72
3, 29040, Note_on_c, 1, 67, 0
3, 29040, Note_on_c, 1, 60, 72
3, 29100, Note_on_c, 1, 60, 0
3, 29100, Note_on_c, 1, 67, 72
3, 29160, Note_on_c, 1, 67, 0
3, 29160, Note_on_c, 1, 64, 72
3, 29220, Note_on_c, 1, 64, 0
3, 29220, Note_on_c, 1, 67, 72
3, 29280, Note_on_c, 1, 67, 0
3, 29280, Note_on_c, 1, 57, 72
3, 29340, Note_on_c, 1, 57, 0
3, 29340, Note_on_c, 1, 66, 72
3, 29400, Note_on_c, 1, 66, 0
3, 29400, Note_on_c, 1, 60, 72
3, 29460, Note_on_c, 1, 60, 0
3, 29460, Note_on_c, 1, 66, 72
3, 29520, Note_on_c, 1, 66, 0
3, 29520, Note_on_c, 1, 57, 72
3, 29580, Note_on_c, 1, 57, 0
3, 29580, Note_on_c, 1, 66, 72
3, 29640, Note_on_c, 1, 66, 0
3, 29640, Note_on_c, 1, 60, 72
3, 29700, Note_on_c, 1, 60, 0
3, 29700, Note_on_c, 1, 66, 72
3, 29760, Note_on_c, 1, 66, 0
3, 29760, Note_on_c, 1, 59, 72
3, 29820, Note_on_c, 1, 59, 0
3, 29820, Note_on_c, 1, 66, 72
3, 29880, Note_on_c, 1, 66, 0
3, 29880, Note_on_c, 1, 62, 72
3, 29940, Note_on_c, 1, 62, 0
3, 29940, Note_on_c, 1, 66, 72
3, 30000, Note_on_c, 1, 66, 0
3, 30000, Note_on_c, 1, 59, 72
3, 30060, Note_on_c, 1, 59, 0
3, 30060, Note_on_c, 1, 66, 72
3, 30120, Note_on_c, 1, 66, 0
3, 30120, Note_on_c, 1, 62, 72
3, 30180, Note_on_c, 1, 62, 0
3, 30180, Note_on_c, 1, 66, 72
3, 30240, Note_on_c, 1, 66, 0
3, 30240, Note_on_c, 1, 55, 72
3, 30300, Note_on_c, 1, 55, 0
3, 30300, Note_on_c, 1, 64, 72
3, 30360, Note_on_c, 1, 64, 0
3, 30360, Note_on_c, 1, 59, 72
3, 30420, Note_on_c, 1, 59, 0
3, 30420, Note_on_c, 1, 64, 72
3, 30480, Note_on_c, 1, 64, 0
3, 30480, Note_on_c, 1, 55, 72
3, 30540, Note_on_c, 1, 55, 0
3, 30540, Note_on_c, 1, 64, 72
3, 30600, Note_on_c, 1, 64, 0
3, 30600, Note_on_c, 1, 59, 72
3, 30660, Note_on_c, 1, 59, 0
3, 30660, Note_on_c, 1, 64, 72
3, 30720, Note_on_c, 1, 64, 0
3, 30720, Note_on_c, 1, 57, 72
3, 30780, Note_on_c, 1, 57, 0
3, 30780, Note_on_c, 1, 64, 72
3, 30840, Note_on_c, 1, 64, 0
3, 30840, Note_on_c, 1, 60, 72
3, 30900, Note_on_c, 1, 60, 0
3, 30900, Note_on_c, 1, 64, 72
3, 30960, Note_on_c, 1, 64, 0
3, 30960, Note_on_c, 1, 57, 72
3, 31020, Note_on_c, 1, 57, 0
3, 31020, Note_on_c, 1, 64, 72
3, 31080, Note_on_c, 1, 64, 0
3, 31080, Note_on_c, 1, 60, 72
3, 31140, Note_on_c, 1, 60, 0
3, 31140, Note_on_c, 1, 64, 72
3, 31200, Note_on_c, 1, 64, 0
3, 31200, Note_on_c, 1, 54, 72
3, 31260, Note_on_c, 1, 54, 0
3, 31260, Note_on_c, 1, 62, 72
3, 31320, Note_on_c, 1, 62, 0
3, 31320, Note_on_c, 1, 57, 72
3, 31380, Note_on_c, 1, 57, 0
3, 31380, Note_on_c, 1, 62, 72
3, 31440, Note_on_c, 1, 62, 0
3, 31440, Note_on_c, 1, 54, 72
3, 31500, Note_on_c, 1, 54, 0
3, 31500, Note_on_c, 1, 62, 72
3, 31560, Note_on_c, 1, 62, 0
3, 31560, Note_on_c, 1, 57, 72
3, 31620, Note_on_c, 1, 57, 0
3, 31620, Note_on_c, 1, 62, 72
3, 31680, Note_on_c, 1, 62, 0
3, 31680, Note_on_c, 1, 55, 72
3, 31740, Note_on_c, 1, 55, 0
3, 31740, Note_on_c, 1, 62, 72
3, 31800, Note_on_c, 1, 62, 0
3, 31800, Note_on_c, 1, 59, 72
3, 31860, Note_on_c, 1, 59, 0
3, 31860, Note_on_c, 1, 62, 72
3, 31920, Note_on_c, 1, 62, 0
3, 31920, Note_on_c, 1, 47, 72
3, 31980, Note_on_c, 1, 47, 0
3, 31980, Note_on_c, 1, 55, 72
3, 32040, Note_on_c, 1, 55, 0
3, 32040, Note_on_c, 1, 50, 72
3, 32100, Note_on_c, 1, 50, 0
3, 32100, Note_on_c, 1, 55, 72
3, 32160, Note_on_c, 1, 55, 0
3, 32160, Note_on_c, 1, 48, 72
3, 32220, Note_on_c, 1, 48, 0
3, 32220, Note_on_c, 1, 55, 72
3, 32280, Note_on_c, 1, 55, 0
3, 32280, Note_on_c, 1, 52, 72
3, 32340, Note_on_c, 1, 52, 0
3, 32340, Note_on_c, 1, 55, 72
3, 32400, Note_on_c, 1, 55, 0
3, 32400, Note_on_c, 1, 50, 72
3, 32460, Note_on_c, 1, 50, 0
3, 32460, Note_on_c, 1, 60, 72
3, 32520, Note_on_c, 1, 60, 0
3, 32520, Note_on_c, 1, 57, 72
3, 32580, Note_on_c, 1, 57, 0
3, 32580, Note_on_c, 1, 60, 72
3, 32640, Note_on_c, 1, 60, 0
3, 32640, Note_on_c, 1, 55, 85
3, 32640, Note_on_c, 1, 60, 85
3, 32880, Note_on_c, 1, 60, 0
3, 32880, Note_on_c, 1, 55, 0
3, 32880, Note_on_c, 1, 55, 72
3, 32880, Note_on_c, 1, 59, 72
3, 33120, Note_on_c, 1, 59, 0
3, 33120, Note_on_c, 1, 55, 0
3, 33120, Note_on_c, 1, 52, 72
3, 33150, Note_on_c, 1, 52, 0
3, 33180, Note_on_c, 1, 59, 72
3, 33240, Note_on_c, 1, 59, 0
3, 33240, Note_on_c, 1, 55, 72
3, 33300, Note_on_c, 1, 55, 0
3, 33300, Note_on_c, 1, 59, 72
3, 33360, Note_on_c, 1, 59, 0
3, 33360, Note_on_c, 1, 52, 72
3, 33420, Note_on_c, 1, 52, 0
3, 33420, Note_on_c, 1, 59, 72
3, 33480, Note_on_c, 1, 59, 0
3, 33480, Note_on_c, 1, 55, 72
3, 33540, Note_on_c, 1, 55, 0
3, 33540, Note_on_c, 1, 59, 72
3, 33600, Note_on_c, 1, 59, 0
3, 33600, Note_on_c, 1, 54, 64
3, 33624, Note_on_c, 1, 54, 0
3, 33660, Note_on_c, 1, 59, 64
3, 33720, Note_on_c, 1, 59, 0
3, 33720, Note_on_c, 1, 57, 64
3, 33780, Note_on_c, 1, 57, 0
3, 33780, Note_on_c, 1, 59, 64
3, 33840, Note_on_c, 1, 59, 0
3, 33840, Note_on_c, 1, 54, 64
3, 33864, Note_on_c, 1, 54, 0
3, 33900, Note_on_c, 1, 59, 64
3, 33960, Note_on_c, 1, 59, 0
3, 33960, Note_on_c, 1, 57, 64
3, 34020, Note_on_c, 1, 57, 0
3, 34020, Note_on_c, 1, 59, 64
3, 34080, Note_on_c, 1, 59, 0
3, 34080, Note_on_c, 1, 52, 72
3, 34140, Note_on_c, 1, 52, 0
3, 34140, Note_on_c, 1, 59, 72
3, 34200, Note_on_c, 1, 59, 0
3, 34200, Note_on_c, 1, 55, 72
3, 34260, Note_on_c, 1, 55, 0
3, 34260, Note_on_c, 1, 59, 72
3, 34320, Note_on_c, 1, 59, 0
3, 34320, Note_on_c, 1, 51, 72
3, 34380, Note_on_c, 1, 51, 0
3, 34380, Note_on_c, 1, 59, 72
3, 34440, Note_on_c, 1, 59, 0
3, 34440, Note_on_c, 1, 54, 72
3, 34500, Note_on_c, 1, 54, 0
3, 34500, Note_on_c, 1, 59, 72
3, 34560, Note_on_c, 1, 59, 0
3, 34560, Note_on_c, 1, 52, 64
3, 34620, Note_on_c, 1, 52, 0
3, 34620, Note_on_c, 1, 59, 64
3, 34680, Note_on_c, 1, 59, 0
3, 34680, Note_on_c, 1, 55, 64
3, 34740, Note_on_c, 1, 55, 0
3, 34740, Note_on_c, 1, 59, 64
3, 34800, Note_on_c, 1, 59, 0
3, 34800, Note_on_c, 1, 47, 64
3, 34860, Note_on_c, 1, 47, 0
3, 34860, Note_on_c, 1, 59, 64
3, 34920, Note_on_c, 1, 59, 0
3, 34920, Note_on_c, 1, 51, 64
3, 34980, Note_on_c, 1, 51, 0
3, 34980, Note_on_c, 1, 59, 64
3, 35040, Note_on_c, 1, 59, 0
3, 35040, Note_on_c, 1, 48, 64
3, 35100, Note_on_c, 1, 48, 0
3, 35100, Note_on_c, 1, 59, 65
3, 35160, Note_on_c, 1, 59, 0
3, 35160, Note_on_c, 1, 55, 66
3, 35220, Note_on_c, 1, 55, 0
3, 35220, Note_on_c, 1, 59, 67
3, 35280, Note_on_c, 1, 59, 0
3, 35280, Note_on_c, 1, 48, 68
3, 35340, Note_on_c, 1, 48, 0
3, 35340, Note_on_c, 1, 57, 69
3, 35400, Note_on_c, 1, 57, 0
3, 35400, Note_on_c, 1, 55, 70
3, 35460, Note_on_c, 1, 55, 0
3, 35460, Note_on_c, 1, 57, 71
3, 35520, Note_on_c, 1, 57, 0
3, 35520, Note_on_c, 1, 47, 80
3, 35580, Note_on_c, 1, 47, 0
3, 35580, Note_on_c, 1, 57, 64
3, 35640, Note_on_c, 1, 57, 0
3, 35640, Note_on_c, 1, 54, 64
3, 35700, Note_on_c, 1, 54, 0
3, 35700, Note_on_c, 1, 57, 64
3, 35760, Note_on_c, 1, 57, 0
3, 35760, Note_on_c, 1, 48, 64
3, 35820, Note_on_c, 1, 48, 0
3, 35820, Note_on_c, 1, 55, 64
3, 35880, Note_on_c, 1, 55, 0
3, 35880, Note_on_c, 1, 52, 64
3, 35940, Note_on_c, 1, 52, 0
3, 35940, Note_on_c, 1, 55, 64
3, 36000, Note_on_c, 1, 55, 0
3, 36000, Note_on_c, 1, 45, 64
3, 36060, Note_on_c, 1, 45, 0
3, 36060, Note_on_c, 1, 57, 64
3, 36120, Note_on_c, 1, 57, 0
3, 36120, Note_on_c, 1, 48, 64
3, 36180, Note_on_c, 1, 48, 0
3, 36180, Note_on_c, 1, 57, 64
3, 36240, Note_on_c, 1, 57, 0
3, 36240, Note_on_c, 1, 47, 64
3, 36300, Note_on_c, 1, 47, 0
3, 36300, Note_on_c, 1, 57, 64
3, 36360, Note_on_c, 1, 57, 0
3, 36360, Note_on_c, 1, 54, 64
3, 36420, Note_on_c, 1, 54, 0
3, 36420, Note_on_c, 1, 57, 64
3, 36480, Note_on_c, 1, 57, 0
3, 36480, Note_on_c, 1, 55, 80
3, 36480, Note_on_c, 1, 52, 80
3, 36696, Note_on_c, 1, 52, 0
3, 36696, Note_on_c, 1, 55, 0
3, 36720, Note_on_c, 1, 40, 64
3, 36960, Note_on_c, 1, 40, 0
3, 36960, Note_on_c, 1, 64, 72
3, 37020, Note_on_c, 1, 64, 0
3, 37020, Note_on_c, 1, 71, 72
3, 37080, Note_on_c, 1, 71, 0
3, 37080, Note_on_c, 1, 68, 72
3, 37140, Note_on_c, 1, 68, 0
3, 37140, Note_on_c, 1, 71, 72
3, 37200, Note_on_c, 1, 71, 0
3, 37200, Note_on_c, 1, 64, 72
3, 37260, Note_on_c, 1, 64, 0
3, 37260, Note_on_c, 1, 71, 72
3, 37320, Note_on_c, 1, 71, 0
3, 37320, Note_on_c, 1, 68, 72
3, 37380, Note_on_c, 1, 68, 0
3, 37380, Note_on_c, 1, 71, 72
3, 37440, Note_on_c, 1, 71, 0
3, 37440, Note_on_c, 1, 59, 72
3, 37500, Note_on_c, 1, 59, 0
3, 37500, Note_on_c, 1, 69, 72
3, 37560, Note_on_c, 1, 69, 0
3, 37560, Note_on_c, 1, 66, 72
3, 37620, Note_on_c, 1, 66, 0
3, 37620, Note_on_c, 1, 69, 72
3, 37680, Note_on_c, 1, 69, 0
3, 37680, Note_on_c, 1, 59, 72
3, 37740, Note_on_c, 1, 59, 0
3, 37740, Note_on_c, 1, 69, 72
3, 37800, Note_on_c, 1, 69, 0
3, 37800, Note_on_c, 1, 66, 72
3, 37860, Note_on_c, 1, 66, 0
3, 37860, Note_on_c, 1, 69, 72
3, 37920, Note_on_c, 1, 69, 0
3, 37920, Note_on_c, 1, 64, 72
3, 37980, Note_on_c, 1, 64, 0
3, 37980, Note_on_c, 1, 71, 72
3, 38040, Note_on_c, 1, 71, 0
3, 38040, Note_on_c, 1, 68, 72
3, 38100, Note_on_c, 1, 68, 0
3, 38100, Note_on_c, 1, 71, 72
3, 38160, Note_on_c, 1, 71, 0
3, 38160, Note_on_c, 1, 63, 72
3, 38220, Note_on_c, 1, 63, 0
3, 38220, Note_on_c, 1, 71, 72
3, 38280, Note_on_c, 1, 71, 0
3, 38280, Note_on_c, 1, 66, 72
3, 38340, Note_on_c, 1, 66, 0
3, 38340, Note_on_c, 1, 71, 72
3, 38400, Note_on_c, 1, 71, 0
3, 38400, Note_on_c, 1, 64, 72
3, 38460, Note_on_c, 1, 64, 0
3, 38460, Note_on_c, 1, 71, 72
3, 38520, Note_on_c, 1, 71, 0
3, 38520, Note_on_c, 1, 68, 72
3, 38580, Note_on_c, 1, 68, 0
3, 38580, Note_on_c, 1, 71, 72
3, 38640, Note_on_c, 1, 71, 0
3, 38640, Note_on_c, 1, 59, 72
3, 38700, Note_on_c, 1, 59, 0
3, 38700, Note_on_c, 1, 71, 72
3, 38760, Note_on_c, 1, 71, 0
3, 38760, Note_on_c, 1, 63, 72
3, 38820, Note_on_c, 1, 63, 0
3, 38820, Note_on_c, 1, 71, 72
3, 38880, Note_on_c, 1, 71, 0
3, 38880, Note_on_c, 1, 64, 72
3, 38940, Note_on_c, 1, 64, 0
3, 38940, Note_on_c, 1, 71, 72
3, 39000, Note_on_c, 1, 71, 0
3, 39000, Note_on_c, 1, 68, 72
3, 39060, Note_on_c, 1, 68, 0
3, 39060, Note_on_c, 1, 71, 72
3, 39120, Note_on_c, 1, 71, 0
3, 39120, Note_on_c, 1, 64, 72
3, 39180, Note_on_c, 1, 64, 0
3, 39180, Note_on_c, 1, 73, 72
3, 39240, Note_on_c, 1, 73, 0
3, 39240, Note_on_c, 1, 66, 72
3, 39300, Note_on_c, 1, 66, 0
3, 39300, Note_on_c, 1, 73, 72
3, 39360, Note_on_c, 1, 73, 0
3, 39360, Note_on_c, 1, 63, 72
3, 39420, Note_on_c, 1, 63, 0
3, 39420, Note_on_c, 1, 71, 72
3, 39480, Note_on_c, 1, 71, 0
3, 39480, Note_on_c, 1, 66, 72
3, 39540, Note_on_c, 1, 66, 0
3, 39540, Note_on_c, 1, 71, 72
3, 39600, Note_on_c, 1, 71, 0
3, 39600, Note_on_c, 1, 63, 72
3, 39660, Note_on_c, 1, 63, 0
3, 39660, Note_on_c, 1, 71, 72
3, 39720, Note_on_c, 1, 71, 0
3, 39720, Note_on_c, 1, 66, 72
3, 39780, Note_on_c, 1, 66, 0
3, 39780, Note_on_c, 1, 71, 72
3, 39840, Note_on_c, 1, 71, 0
3, 39840, Note_on_c, 1, 64, 85
3, 40080, Note_on_c, 1, 64, 0
3, 40200, Note_on_c, 1, 66, 85
3, 40320, Note_on_c, 1, 66, 0
3, 40320, Note_on_c, 1, 59, 85
3, 40560, Note_on_c, 1, 59, 0
3, 40560, Note_on_c, 1, 47, 64
3, 40656, Note_on_c, 1, 47, 0
3, 40800, Note_on_c, 1, 59, 72
3, 40860, Note_on_c, 1, 59, 0
3, 40860, Note_on_c, 1, 69, 72
3, 40920, Note_on_c, 1, 69, 0
3, 40920, Note_on_c, 1, 66, 72
3, 40980, Note_on_c, 1, 66, 0
3, 40980, Note_on_c, 1, 69, 72
3, 41040, Note_on_c, 1, 69, 0
3, 41040, Note_on_c, 1, 59, 72
3, 41100, Note_on_c, 1, 59, 0
3, 41100, Note_on_c, 1, 69, 72
3, 41160, Note_on_c, 1, 69, 0
3, 41160, Note_on_c, 1, 66, 72
3, 41220, Note_on_c, 1, 66, 0
3, 41220, Note_on_c, 1, 69, 72
3, 41280, Note_on_c, 1, 69, 0
3, 41280, Note_on_c, 1, 59, 72
3, 41340, Note_on_c, 1, 59, 0
3, 41340, Note_on_c, 1, 68, 72
3, 41400, Note_on_c, 1, 68, 0
3, 41400, Note_on_c, 1, 64, 72
3, 41460, Note_on_c, 1, 64, 0
3, 41460, Note_on_c, 1, 68, 72
3, 41520, Note_on_c, 1, 68, 0
3, 41520, Note_on_c, 1, 59, 72
3, 41580, Note_on_c, 1, 59, 0
3, 41580, Note_on_c, 1, 68, 56
3, 41640, Note_on_c, 1, 68, 0
3, 41640, Note_on_c, 1, 64, 56
3, 41700, Note_on_c, 1, 64, 0
3, 41700, Note_on_c, 1, 68, 56
3, 41760, Note_on_c, 1, 68, 0
3, 41760, Note_on_c, 1, 59, 56
3, 41820, Note_on_c, 1, 59, 0
3, 41820, Note_on_c, 1, 69, 56
3, 41880, Note_on_c, 1, 69, 0
3, 41880, Note_on_c, 1, 66, 56
3, 41940, Note_on_c, 1, 66, 0
3, 41940, Note_on_c, 1, 69, 56
3, 42000, Note_on_c, 1, 69, 0
3, 42000, Note_on_c, 1, 59, 56
3, 42060, Note_on_c, 1, 59, 0
3, 42060, Note_on_c, 1, 69, 56
3, 42120, Note_on_c, 1, 69, 0
3, 42120, Note_on_c, 1, 66, 56
3, 42180, Note_on_c, 1, 66, 0
3, 42180, Note_on_c, 1, 69, 56
3, 42240, Note_on_c, 1, 69, 0
3, 42240, Note_on_c, 1, 59, 56
3, 42300, Note_on_c, 1, 59, 0
3, 42300, Note_on_c, 1, 68, 56
3, 42360, Note_on_c, 1, 68, 0
3, 42360, Note_on_c, 1, 64, 56
3, 42420, Note_on_c, 1, 64, 0
3, 42420, Note_on_c, 1, 68, 56
3, 42480, Note_on_c, 1, 68, 0
3, 42480, Note_on_c, 1, 59, 56
3, 42540, Note_on_c, 1, 59, 0
3, 42540, Note_on_c, 1, 68, 72
3, 42600, Note_on_c, 1, 68, 0
3, 42600, Note_on_c, 1, 64, 72
3, 42660, Note_on_c, 1, 64, 0
3, 42660, Note_on_c, 1, 68, 72
3, 42720, Note_on_c, 1, 68, 0
3, 42720, Note_on_c, 1, 59, 72
3, 42780, Note_on_c, 1, 59, 0
3, 42780, Note_on_c, 1, 66, 72
3, 42840, Note_on_c, 1, 66, 0
3, 42840, Note_on_c, 1, 63, 72
3, 42900, Note_on_c, 1, 63, 0
3, 42900, Note_on_c, 1, 66, 72
3, 42960, Note_on_c, 1, 66, 0
3, 42960, Note_on_c, 1, 59, 72
3, 43020, Note_on_c, 1, 59, 0
3, 43020, Note_on_c, 1, 68, 72
3, 43080, Note_on_c, 1, 68, 0
3, 43080, Note_on_c, 1, 64, 72
3, 43140, Note_on_c, 1, 64, 0
3, 43140, Note_on_c, 1, 68, 72
3, 43200, Note_on_c, 1, 68, 0
3, 43200, Note_on_c, 1, 59, 85
3, 43440, Note_on_c, 1, 59, 0
3, 43680, Note_on_c, 1, 47, 85
3, 43920, Note_on_c, 1, 47, 0
3, 44160, Note_on_c, 1, 35, 85
3, 44448, Note_on_c, 1, 35, 0
3, 44640, Note_on_c, 1, 64, 72
3, 44700, Note_on_c, 1, 64, 0
3, 44700, Note_on_c, 1, 71, 72
3, 44760, Note_on_c, 1, 71, 0
3, 44760, Note_on_c, 1, 68, 72
3, 44820, Note_on_c, 1, 68, 0
3, 44820, Note_on_c, 1, 71, 72
3, 44880, Note_on_c, 1, 71, 0
3, 44880, Note_on_c, 1, 64, 72
3, 44940, Note_on_c, 1, 64, 0
3, 44940, Note_on_c, 1, 71, 72
3, 45000, Note_on_c, 1, 71, 0
3, 45000, Note_on_c, 1, 68, 72
3, 45060, Note_on_c, 1, 68, 0
3, 45060, Note_on_c, 1, 71, 72
3, 45120, Note_on_c, 1, 71, 0
3, 45120, Note_on_c, 1, 59, 72
3, 45180, Note_on_c, 1, 59, 0
3, 45180, Note_on_c, 1, 69, 72
3, 45240, Note_on_c, 1, 69, 0
3, 45240, Note_on_c, 1, 66, 72
3, 45300, Note_on_c, 1, 66, 0
3, 45300, Note_on_c, 1, 69, 72
3, 45360, Note_on_c, 1, 69, 0
3, 45360, Note_on_c, 1, 59, 72
3, 45420, Note_on_c, 1, 59, 0
3, 45420, Note_on_c, 1, 69, 72
3, 45480, Note_on_c, 1, 69, 0
3, 45480, Note_on_c, 1, 66, 72
3, 45540, Note_on_c, 1, 66, 0
3, 45540, Note_on_c, 1, 69, 72
3, 45600, Note_on_c, 1, 69, 0
3, 45600, Note_on_c, 1, 64, 72
3, 45660, Note_on_c, 1, 64, 0
3, 45660, Note_on_c, 1, 71, 72
3, 45720, Note_on_c, 1, 71, 0
3, 45720, Note_on_c, 1, 68, 72
3, 45780, Note_on_c, 1, 68, 0
3, 45780, Note_on_c, 1, 71, 72
3, 45840, Note_on_c, 1, 71, 0
3, 45840, Note_on_c, 1, 63, 72
3, 45900, Note_on_c, 1, 63, 0
3, 45900, Note_on_c, 1, 71, 72
3, 45960, Note_on_c, 1, 71, 0
3, 45960, Note_on_c, 1, 66, 72
3, 46020, Note_on_c, 1, 66, 0
3, 46020, Note_on_c, 1, 71, 72
3, 46080, Note_on_c, 1, 71, 0
3, 46080, Note_on_c, 1, 64, 72
3, 46140, Note_on_c, 1, 64, 0
3, 46140, Note_on_c, 1, 71, 72
3, 46200, Note_on_c, 1, 71, 0
3, 46200, Note_on_c, 1, 68, 72
3, 46260, Note_on_c, 1, 68, 0
3, 46260, Note_on_c, 1, 71, 72
3, 46320, Note_on_c, 1, 71, 0
3, 46320, Note_on_c, 1, 59, 72
3, 46380, Note_on_c, 1, 59, 0
3, 46380, Note_on_c, 1, 71, 72
3, 46440, Note_on_c, 1, 71, 0
3, 46440, Note_on_c, 1, 63, 72
3, 46500, Note_on_c, 1, 63, 0
3, 46500, Note_on_c, 1, 71, 72
3, 46560, Note_on_c, 1, 71, 0
3, 46560, Note_on_c, 1, 64, 72
3, 46620, Note_on_c, 1, 64, 0
3, 46620, Note_on_c, 1, 71, 72
3, 46680, Note_on_c, 1, 71, 0
3, 46680, Note_on_c, 1, 68, 72
3, 46740, Note_on_c, 1, 68, 0
3, 46740, Note_on_c, 1, 71, 72
3, 46800, Note_on_c, 1, 71, 0
3, 46800, Note_on_c, 1, 61, 72
3, 46860, Note_on_c, 1, 61, 0
3, 46860, Note_on_c, 1, 69, 72
3, 46920, Note_on_c, 1, 69, 0
3, 46920, Note_on_c, 1, 64, 72
3, 46980, Note_on_c, 1, 64, 0
3, 46980, Note_on_c, 1, 69, 72
3, 47040, Note_on_c, 1, 69, 0
3, 47040, Note_on_c, 1, 56, 72
3, 47100, Note_on_c, 1, 56, 0
3, 47100, Note_on_c, 1, 64, 72
3, 47160, Note_on_c, 1, 64, 0
3, 47160, Note_on_c, 1, 59, 72
3, 47220, Note_on_c, 1, 59, 0
3, 47220, Note_on_c, 1, 64, 72
3, 47280, Note_on_c, 1, 64, 0
3, 47280, Note_on_c, 1, 56, 72
3, 47340, Note_on_c, 1, 56, 0
3, 47340, Note_on_c, 1, 64, 72
3, 47400, Note_on_c, 1, 64, 0
3, 47400, Note_on_c, 1, 59, 72
3, 47460, Note_on_c, 1, 59, 0
3, 47460, Note_on_c, 1, 64, 72
3, 47520, Note_on_c, 1, 64, 0
3, 47520, Note_on_c, 1, 57, 72
3, 47580, Note_on_c, 1, 57, 0
3, 47580, Note_on_c, 1, 66, 72
3, 47640, Note_on_c, 1, 66, 0
3, 47640, Note_on_c, 1, 61, 72
3, 47700, Note_on_c, 1, 61, 0
3, 47700, Note_on_c, 1, 66, 72
3, 47760, Note_on_c, 1, 66, 0
3, 47760, Note_on_c, 1, 59, 72
3, 47820, Note_on_c, 1, 59, 0
3, 47820, Note_on_c, 1, 69, 72
3, 47880, Note_on_c, 1, 69, 0
3, 47880, Note_on_c, 1, 66, 72
3, 47940, Note_on_c, 1, 66, 0
3, 47940, Note_on_c, 1, 69, 72
3, 48000, Note_on_c, 1, 69, 0
3, 48000, Note_on_c, 1, 64, 80
3, 48000, Note_on_c, 1, 68, 80
3, 48192, Note_on_c, 1, 68, 0
3, 48192, Note_on_c, 1, 64, 0
3, 48240, Note_on_c, 1, 52, 64
3, 48336, Note_on_c, 1, 52, 0
3, 48480, Note_on_c, 1, 52, 72
3, 48510, Note_on_c, 1, 52, 0
3, 48540, Note_on_c, 1, 59, 72
3, 48600, Note_on_c, 1, 59, 0
3, 48600, Note_on_c, 1, 55, 72
3, 48660, Note_on_c, 1, 55, 0
3, 48660, Note_on_c, 1, 59, 72
3, 48720, Note_on_c, 1, 59, 0
3, 48720, Note_on_c, 1, 52, 72
3, 48780, Note_on_c, 1, 52, 0
3, 48780, Note_on_c, 1, 59, 72
3, 48840, Note_on_c, 1, 59, 0
3, 48840, Note_on_c, 1, 55, 72
3, 48900, Note_on_c, 1, 55, 0
3, 48900, Note_on_c, 1, 59, 72
3, 48960, Note_on_c, 1, 59, 0
3, 48960, Note_on_c, 1, 54, 64
3, 48984, Note_on_c, 1, 54, 0
3, 49020, Note_on_c, 1, 59, 64
3, 49080, Note_on_c, 1, 59, 0
3, 49080, Note_on_c, 1, 57, 64
3, 49140, Note_on_c, 1, 57, 0
3, 49140, Note_on_c, 1, 59, 64
3, 49200, Note_on_c, 1, 59, 0
3, 49200, Note_on_c, 1, 54, 64
3, 49224, Note_on_c, 1, 54, 0
3, 49260, Note_on_c, 1, 59, 64
3, 49320, Note_on_c, 1, 59, 0
3, 49320, Note_on_c, 1, 57, 64
3, 49380, Note_on_c, 1, 57, 0
3, 49380, Note_on_c, 1, 59, 64
3, 49440, Note_on_c, 1, 59, 0
3, 49440, Note_on_c, 1, 52, 72
3, 49500, Note_on_c, 1, 52, 0
3, 49500, Note_on_c, 1, 59, 72
3, 49560, Note_on_c, 1, 59, 0
3, 49560, Note_on_c, 1, 55, 72
3, 49620, Note_on_c, 1, 55, 0
3, 49620, Note_on_c, 1, 59, 72
3, 49680, Note_on_c, 1, 59, 0
3, 49680, Note_on_c, 1, 51, 72
3, 49740, Note_on_c, 1, 51, 0
3, 49740, Note_on_c, 1, 59, 72
3, 49800, Note_on_c, 1, 59, 0
3, 49800, Note_on_c, 1, 54, 72
3, 49860, Note_on_c, 1, 54, 0
3, 49860, Note_on_c, 1, 59, 72
3, 49920, Note_on_c, 1, 59, 0
3, 49920, Note_on_c, 1, 52, 72
3, 49980, Note_on_c, 1, 52, 0
3, 49980, Note_on_c, 1, 59, 72
3, 50040, Note_on_c, 1, 59, 0
3, 50040, Note_on_c, 1, 55, 72
3, 50100, Note_on_c, 1, 55, 0
3, 50100, Note_on_c, 1, 59, 72
3, 50160, Note_on_c, 1, 59, 0
3, 50160, Note_on_c, 1, 47, 72
3, 50220, Note_on_c, 1, 47, 0
3, 50220, Note_on_c, 1, 59, 72
3, 50280, Note_on_c, 1, 59, 0
3, 50280, Note_on_c, 1, 51, 72
3, 50340, Note_on_c, 1, 51, 0
3, 50340, Note_on_c, 1, 59, 72
3, 50400, Note_on_c, 1, 59, 0
3, 50400, Note_on_c, 1, 52, 72
3, 50424, Note_on_c, 1, 52, 0
3, 50460, Note_on_c, 1, 59, 72
3, 50520, Note_on_c, 1, 59, 0
3, 50520, Note_on_c, 1, 55, 72
3, 50580, Note_on_c, 1, 55, 0
3, 50580, Note_on_c, 1, 59, 72
3, 50640, Note_on_c, 1, 59, 0
3, 50640, Note_on_c, 1, 52, 72
3, 50664, Note_on_c, 1, 52, 0
3, 50700, Note_on_c, 1, 59, 72
3, 50760, Note_on_c, 1, 59, 0
3, 50760, Note_on_c, 1, 55, 72
3, 50820, Note_on_c, 1, 55, 0
3, 50820, Note_on_c, 1, 59, 72
3, 50880, Note_on_c, 1, 59, 0
3, 50880, Note_on_c, 1, 48, 64
3, 50940, Note_on_c, 1, 48, 0
3, 50940, Note_on_c, 1, 57, 64
3, 51000, Note_on_c, 1, 57, 0
3, 51000, Note_on_c, 1, 52, 64
3, 51060, Note_on_c, 1, 52, 0
3, 51060, Note_on_c, 1, 57, 64
3, 51120, Note_on_c, 1, 57, 0
3, 51120, Note_on_c, 1, 48, 64
3, 51180, Note_on_c, 1, 48, 0
3, 51180, Note_on_c, 1, 57, 64
3, 51240, Note_on_c, 1, 57, 0
3, 51240, Note_on_c, 1, 52, 64
3, 51300, Note_on_c, 1, 52, 0
3, 51300, Note_on_c, 1, 57, 64
3, 51360, Note_on_c, 1, 57, 0
3, 51360, Note_on_c, 1, 50, 64
3, 51420, Note_on_c, 1, 50, 0
3, 51420, Note_on_c, 1, 60, 66
3, 51480, Note_on_c, 1, 60, 0
3, 51480, Note_on_c, 1, 57, 68
3, 51540, Note_on_c, 1, 57, 0
3, 51540, Note_on_c, 1, 60, 70
3, 51600, Note_on_c, 1, 60, 0
3, 51600, Note_on_c, 1, 50, 72
3, 51660, Note_on_c, 1, 50, 0
3, 51660, Note_on_c, 1, 60, 74
3, 51720, Note_on_c, 1, 60, 0
3, 51720, Note_on_c, 1, 57, 76
3, 51780, Note_on_c, 1, 57, 0
3, 51780, Note_on_c, 1, 60, 78
3, 51840, Note_on_c, 1, 60, 0
3, 51840, Note_on_c, 1, 59, 85
3, 51840, Note_on_c, 1, 55, 85
3, 52080, Note_on_c, 1, 55, 0
3, 52080, Note_on_c, 1, 59, 0
3, 52080, Note_on_c, 1, 43, 64
3, 52176, Note_on_c, 1, 43, 0
3, 52320, Note_on_c, 1, 52, 72
3, 52380, Note_on_c, 1, 52, 0
3, 52380, Note_on_c, 1, 59, 72
3, 52440, Note_on_c, 1, 59, 0
3, 52440, Note_on_c, 1, 55, 72
3, 52500, Note_on_c, 1, 55, 0
3, 52500, Note_on_c, 1, 59, 72
3, 52560, Note_on_c, 1, 59, 0
3, 52560, Note_on_c, 1, 52, 72
3, 52620, Note_on_c, 1, 52, 0
3, 52620, Note_on_c, 1, 59, 72
3, 52680, Note_on_c, 1, 59, 0
3, 52680, Note_on_c, 1, 55, 72
3, 52740, Note_on_c, 1, 55, 0
3, 52740, Note_on_c, 1, 59, 72
3, 52800, Note_on_c, 1, 59, 0
3, 52800, Note_on_c, 1, 54, 72
3, 52860, Note_on_c, 1, 54, 0
3, 52860, Note_on_c, 1, 59, 72
3, 52920, Note_on_c, 1, 59, 0
3, 52920, Note_on_c, 1, 57, 72
3, 52980, Note_on_c, 1, 57, 0
3, 52980, Note_on_c, 1, 59, 72
3, 53040, Note_on_c, 1, 59, 0
3, 53040, Note_on_c, 1, 54, 72
3, 53100, Note_on_c, 1, 54, 0
3, 53100, Note_on_c, 1, 59, 72
3, 53160, Note_on_c, 1, 59, 0
3, 53160, Note_on_c, 1, 57, 72
3, 53220, Note_on_c, 1, 57, 0
3, 53220, Note_on_c, 1, 59, 72
3, 53280, Note_on_c, 1, 59, 0
3, 53280, Note_on_c, 1, 52, 72
3, 53340, Note_on_c, 1, 52, 0
3, 53340, Note_on_c, 1, 59, 72
3, 53400, Note_on_c, 1, 59, 0
3, 53400, Note_on_c, 1, 55, 72
3, 53460, Note_on_c, 1, 55, 0
3, 53460, Note_on_c, 1, 59, 72
3, 53520, Note_on_c, 1, 59, 0
3, 53520, Note_on_c, 1, 51, 72
3, 53580, Note_on_c, 1, 51, 0
3, 53580, Note_on_c, 1, 59, 72
3, 53640, Note_on_c, 1, 59, 0
3, 53640, Note_on_c, 1, 54, 72
3, 53700, Note_on_c, 1, 54, 0
3, 53700, Note_on_c, 1, 59, 72
3, 53760, Note_on_c, 1, 59, 0
3, 53760, Note_on_c, 1, 52, 72
3, 53820, Note_on_c, 1, 52, 0
3, 53820, Note_on_c, 1, 59, 72
3, 53880, Note_on_c, 1, 59, 0
3, 53880, Note_on_c, 1, 55, 72
3, 53940, Note_on_c, 1, 55, 0
3, 53940, Note_on_c, 1, 59, 72
3, 54000, Note_on_c, 1, 59, 0
3, 54000, Note_on_c, 1, 47, 72
3, 54060, Note_on_c, 1, 47, 0
3, 54060, Note_on_c, 1, 59, 72
3, 54120, Note_on_c, 1, 59, 0
3, 54120, Note_on_c, 1, 51, 72
3, 54180, Note_on_c, 1, 51, 0
3, 54180, Note_on_c, 1, 59, 72
3, 54240, Note_on_c, 1, 59, 0
3, 54240, Note_on_c, 1, 52, 72
3, 54300, Note_on_c, 1, 52, 0
3, 54300, Note_on_c, 1, 59, 72
3, 54360, Note_on_c, 1, 59, 0
3, 54360, Note_on_c, 1, 55, 72
3, 54420, Note_on_c, 1, 55, 0
3, 54420, Note_on_c, 1, 59, 72
3, 54480, Note_on_c, 1, 59, 0
3, 54480, Note_on_c, 1, 52, 72
3, 54540, Note_on_c, 1, 52, 0
3, 54540, Note_on_c, 1, 59, 72
3, 54600, Note_on_c, 1, 59, 0
3, 54600, Note_on_c, 1, 55, 72
3, 54660, Note_on_c, 1, 55, 0
3, 54660, Note_on_c, 1, 59, 72
3, 54720, Note_on_c, 1, 59, 0
3, 54720, Note_on_c, 1, 48, 72
3, 54780, Note_on_c, 1, 48, 0
3, 54780, Note_on_c, 1, 57, 72
3, 54840, Note_on_c, 1, 57, 0
3, 54840, Note_on_c, 1, 52, 72
3, 54900, Note_on_c, 1, 52, 0
3, 54900, Note_on_c, 1, 57, 72
3, 54960, Note_on_c, 1, 57, 0
3, 54960, Note_on_c, 1, 48, 72
3, 55020, Note_on_c, 1, 48, 0
3, 55020, Note_on_c, 1, 57, 72
3, 55080, Note_on_c, 1, 57, 0
3, 55080, Note_on_c, 1, 52, 72
3, 55140, Note_on_c, 1, 52, 0
3, 55140, Note_on_c, 1, 57, 72
3, 55200, Note_on_c, 1, 57, 0
3, 55200, Note_on_c, 1, 50, 72
3, 55260, Note_on_c, 1, 50, 0
3, 55260, Note_on_c, 1, 60, 72
3, 55320, Note_on_c, 1, 60, 0
3, 55320, Note_on_c, 1, 57, 72
3, 55380, Note_on_c, 1, 57, 0
3, 55380, Note_on_c, 1, 60, 72
3, 55440, Note_on_c, 1, 60, 0
3, 55440, Note_on_c, 1, 50, 72
3, 55500, Note_on_c, 1, 50, 0
3, 55500, Note_on_c, 1, 60, 72
3, 55560, Note_on_c, 1, 60, 0
3, 55560, Note_on_c, 1, 57, 72
3, 55620, Note_on_c, 1, 57, 0
3, 55620, Note_on_c, 1, 60, 72
3, 55680, Note_on_c, 1, 60, 0
3, 55680, Note_on_c, 1, 55, 85
3, 55680, Note_on_c, 1, 59, 85
3, 55920, Note_on_c, 1, 59, 0
3, 55920, Note_on_c, 1, 55, 0
3, 55920, Note_on_c, 1, 43, 64
3, 56016, Note_on_c, 1, 43, 0
3, 56160, Note_on_c, 1, 59, 72
3, 56220, Note_on_c, 1, 59, 0
3, 56220, Note_on_c, 1, 67, 72
3, 56280, Note_on_c, 1, 67, 0
3, 56280, Note_on_c, 1, 62, 72
3, 56340, Note_on_c, 1, 62, 0
3, 56340, Note_on_c, 1, 67, 72
3, 56400, Note_on_c, 1, 67, 0
3, 56400, Note_on_c, 1, 59, 72
3, 56460, Note_on_c, 1, 59, 0
3, 56460, Note_on_c, 1, 67, 72
3, 56520, Note_on_c, 1, 67, 0
3, 56520, Note_on_c, 1, 62, 72
3, 56580, Note_on_c, 1, 62, 0
3, 56580, Note_on_c, 1, 67, 72
3, 56640, Note_on_c, 1, 67, 0
3, 56640, Note_on_c, 1, 60, 72
3, 56700, Note_on_c, 1, 60, 0
3, 56700, Note_on_c, 1, 67, 72
3, 56760, Note_on_c, 1, 67, 0
3, 56760, Note_on_c, 1, 64, 72
3, 56820, Note_on_c, 1, 64, 0
3, 56820, Note_on_c, 1, 67, 72
3, 56880, Note_on_c, 1, 67, 0
3, 56880, Note_on_c, 1, 60, 72
3, 56940, Note_on_c, 1, 60, 0
3, 56940, Note_on_c, 1, 67, 72
3, 57000, Note_on_c, 1, 67, 0
3, 57000, Note_on_c, 1, 64, 72
3, 57060, Note_on_c, 1, 64, 0
3, 57060, Note_on_c, 1, 67, 72
3, 57120, Note_on_c, 1, 67, 0
3, 57120, Note_on_c, 1, 57, 72
3, 57180, Note_on_c, 1, 57, 0
3, 57180, Note_on_c, 1, 66, 72
3, 57240, Note_on_c, 1, 66, 0
3, 57240, Note_on_c, 1, 60, 72
3, 57300, Note_on_c, 1, 60, 0
3, 57300, Note_on_c, 1, 66, 72
3, 57360, Note_on_c, 1, 66, 0
3, 57360, Note_on_c, 1, 57, 72
3, 57420, Note_on_c, 1, 57, 0
3, 57420, Note_on_c, 1, 66, 72
3, 57480, Note_on_c, 1, 66, 0
3, 57480, Note_on_c, 1, 60, 72
3, 57540, Note_on_c, 1, 60, 0
3, 57540, Note_on_c, 1, 66, 72
3, 57600, Note_on_c, 1, 66, 0
3, 57600, Note_on_c, 1, 59, 72
3, 57660, Note_on_c, 1, 59, 0
3, 57660, Note_on_c, 1, 66, 72
3, 57720, Note_on_c, 1, 66, 0
3, 57720, Note_on_c, 1, 63, 72
3, 57780, Note_on_c, 1, 63, 0
3, 57780, Note_on_c, 1, 66, 72
3, 57840, Note_on_c, 1, 66, 0
3, 57840, Note_on_c, 1, 57, 72
3, 57900, Note_on_c, 1, 57, 0
3, 57900, Note_on_c, 1, 63, 72
3, 57960, Note_on_c, 1, 63, 0
3, 57960, Note_on_c, 1, 59, 72
3, 58020, Note_on_c, 1, 59, 0
3, 58020, Note_on_c, 1, 63, 72
3, 58080, Note_on_c, 1, 63, 0
3, 58080, Note_on_c, 1, 55, 72
3, 58140, Note_on_c, 1, 55, 0
3, 58140, Note_on_c, 1, 64, 72
3, 58200, Note_on_c, 1, 64, 0
3, 58200, Note_on_c, 1, 59, 72
3, 58260, Note_on_c, 1, 59, 0
3, 58260, Note_on_c, 1, 64, 72
3, 58320, Note_on_c, 1, 64, 0
3, 58320, Note_on_c, 1, 51, 72
3, 58380, Note_on_c, 1, 51, 0
3, 58380, Note_on_c, 1, 59, 72
3, 58440, Note_on_c, 1, 59, 0
3, 58440, Note_on_c, 1, 54, 72
3, 58500, Note_on_c, 1, 54, 0
3, 58500, Note_on_c, 1, 59, 72
3, 58560, Note_on_c, 1, 59, 0
3, 58560, Note_on_c, 1, 52, 72
3, 58620, Note_on_c, 1, 52, 0
3, 58620, Note_on_c, 1, 59, 72
3, 58680, Note_on_c, 1, 59, 0
3, 58680, Note_on_c, 1, 55, 72
3, 58740, Note_on_c, 1, 55, 0
3, 58740, Note_on_c, 1, 59, 72
3, 58800, Note_on_c, 1, 59, 0
3, 58800, Note_on_c, 1, 47, 72
3, 58860, Note_on_c, 1, 47, 0
3, 58860, Note_on_c, 1, 59, 72
3, 58920, Note_on_c, 1, 59, 0
3, 58920, Note_on_c, 1, 51, 72
3, 58980, Note_on_c, 1, 51, 0
3, 58980, Note_on_c, 1, 59, 72
3, 59040, Note_on_c, 1, 59, 0
3, 59040, Note_on_c, 1, 48, 72
3, 59100, Note_on_c, 1, 48, 0
3, 59100, Note_on_c, 1, 59, 73
3, 59160, Note_on_c, 1, 59, 0
3, 59160, Note_on_c, 1, 55, 74
3, 59220, Note_on_c, 1, 55, 0
3, 59220, Note_on_c, 1, 59, 75
3, 59280, Note_on_c, 1, 59, 0
3, 59280, Note_on_c, 1, 48, 76
3, 59340, Note_on_c, 1, 48, 0
3, 59340, Note_on_c, 1, 57, 77
3, 59400, Note_on_c, 1, 57, 0
3, 59400, Note_on_c, 1, 55, 78
3, 59460, Note_on_c, 1, 55, 0
3, 59460, Note_on_c, 1, 57, 79
3, 59520, Note_on_c, 1, 57, 0
3, 59520, Note_on_c, 1, 47, 80
3, 59580, Note_on_c, 1, 47, 0
3, 59580, Note_on_c, 1, 57, 72
3, 59640, Note_on_c, 1, 57, 0
3, 59640, Note_on_c, 1, 54, 72
3, 59700, Note_on_c, 1, 54, 0
3, 59700, Note_on_c, 1, 57, 72
3, 59760, Note_on_c, 1, 57, 0
3, 59760, Note_on_c, 1, 48, 72
3, 59820, Note_on_c, 1, 48, 0
3, 59820, Note_on_c, 1, 55, 72
3, 59880, Note_on_c, 1, 55, 0
3, 59880, Note_on_c, 1, 52, 72
3, 59940, Note_on_c, 1, 52, 0
3, 59940, Note_on_c, 1, 55, 72
3, 60000, Note_on_c, 1, 55, 0
3, 60000, Note_on_c, 1, 45, 72
3, 60060, Note_on_c, 1, 45, 0
3, 60060, Note_on_c, 1, 54, 72
3, 60120, Note_on_c, 1, 54, 0
3, 60120, Note_on_c, 1, 48, 72
3, 60180, Note_on_c, 1, 48, 0
3, 60180, Note_on_c, 1, 54, 72
3, 60240, Note_on_c, 1, 54, 0
3, 60240, Note_on_c, 1, 47, 72
3, 60300, Note_on_c, 1, 47, 0
3, 60300, Note_on_c, 1, 57, 72
3, 60360, Note_on_c, 1, 57, 0
3, 60360, Note_on_c, 1, 54, 72
3, 60420, Note_on_c, 1, 54, 0
3, 60420, Note_on_c, 1, 57, 72
3, 60480, Note_on_c, 1, 57, 0
3, 60480, Note_on_c, 1, 52, 85
3, 60480, Note_on_c, 1, 55, 85
3, 60720, Note_on_c, 1, 55, 0
3, 60720, Note_on_c, 1, 52, 0
3, 60720, Note_on_c, 1, 40, 64
3, 60816, Note_on_c, 1, 40, 0
3, 60960, Note_on_c, 1, 59, 72
3, 61020, Note_on_c, 1, 59, 0
3, 61020, Note_on_c, 1, 67, 72
3, 61080, Note_on_c, 1, 67, 0
3, 61080, Note_on_c, 1, 62, 72
3, 61140, Note_on_c, 1, 62, 0
3, 61140, Note_on_c, 1, 67, 72
3, 61200, Note_on_c, 1, 67, 0
3, 61200, Note_on_c, 1, 59, 72
3, 61260, Note_on_c, 1, 59, 0
3, 61260, Note_on_c, 1, 67, 72
3, 61320, Note_on_c, 1, 67, 0
3, 61320, Note_on_c, 1, 62, 72
3, 61380, Note_on_c, 1, 62, 0
3, 61380, Note_on_c, 1, 67, 72
3, 61440, Note_on_c, 1, 67, 0
3, 61440, Note_on_c, 1, 60, 72
3, 61500, Note_on_c, 1, 60, 0
3, 61500, Note_on_c, 1, 67, 72
3, 61560, Note_on_c, 1, 67, 0
3, 61560, Note_on_c, 1, 64, 72
3, 61620, Note_on_c, 1, 64, 0
3, 61620, Note_on_c, 1, 67, 72
3, 61680, Note_on_c, 1, 67, 0
3, 61680, Note_on_c, 1, 60, 72
3, 61740, Note_on_c, 1, 60, 0
3, 61740, Note_on_c, 1, 67, 72
3, 61800, Note_on_c, 1, 67, 0
3, 61800, Note_on_c, 1, 64, 72
3, 61860, Note_on_c, 1, 64, 0
3, 61860, Note_on_c, 1, 67, 72
3, 61920, Note_on_c, 1, 67, 0
3, 61920, Note_on_c, 1, 57, 72
3, 61980, Note_on_c, 1, 57, 0
3, 61980, Note_on_c, 1, 66, 72
3, 62040, Note_on_c, 1, 66, 0
3, 62040, Note_on_c, 1, 60, 72
3, 62100, Note_on_c, 1, 60, 0
3, 62100, Note_on_c, 1, 66, 72
3, 62160, Note_on_c, 1, 66, 0
3, 62160, Note_on_c, 1, 57, 72
3, 62220, Note_on_c, 1, 57, 0
3, 62220, Note_on_c, 1, 66, 72
3, 62280, Note_on_c, 1, 66, 0
3, 62280, Note_on_c, 1, 60, 72
3, 62340, Note_on_c, 1, 60, 0
3, 62340, Note_on_c, 1, 66, 72
3, 62400, Note_on_c, 1, 66, 0
3, 62400, Note_on_c, 1, 59, 72
3, 62460, Note_on_c, 1, 59, 0
3, 62460, Note_on_c, 1, 66, 72
3, 62520, Note_on_c, 1, 66, 0
3, 62520, Note_on_c, 1, 63, 72
3, 62580, Note_on_c, 1, 63, 0
3, 62580, Note_on_c, 1, 66, 72
3, 62640, Note_on_c, 1, 66, 0
3, 62640, Note_on_c, 1, 57, 72
3, 62700, Note_on_c, 1, 57, 0
3, 62700, Note_on_c, 1, 63, 72
3, 62760, Note_on_c, 1, 63, 0
3, 62760, Note_on_c, 1, 59, 72
3, 62820, Note_on_c, 1, 59, 0
3, 62820, Note_on_c, 1, 63, 72
3, 62880, Note_on_c, 1, 63, 0
3, 62880, Note_on_c, 1, 55, 72
3, 62940, Note_on_c, 1, 55, 0
3, 62940, Note_on_c, 1, 64, 72
3, 63000, Note_on_c, 1, 64, 0
3, 63000, Note_on_c, 1, 59, 72
3, 63060, Note_on_c, 1, 59, 0
3, 63060, Note_on_c, 1, 64, 72
3, 63120, Note_on_c, 1, 64, 0
3, 63120, Note_on_c, 1, 51, 72
3, 63180, Note_on_c, 1, 51, 0
3, 63180, Note_on_c, 1, 59, 72
3, 63240, Note_on_c, 1, 59, 0
3, 63240, Note_on_c, 1, 54, 72
3, 63300, Note_on_c, 1, 54, 0
3, 63300, Note_on_c, 1, 59, 72
3, 63360, Note_on_c, 1, 59, 0
3, 63360, Note_on_c, 1, 52, 72
3, 63420, Note_on_c, 1, 52, 0
3, 63420, Note_on_c, 1, 59, 72
3, 63480, Note_on_c, 1, 59, 0
3, 63480, Note_on_c, 1, 55, 72
3, 63540, Note_on_c, 1, 55, 0
3, 63540, Note_on_c, 1, 59, 72
3, 63600, Note_on_c, 1, 59, 0
3, 63600, Note_on_c, 1, 47, 72
3, 63660, Note_on_c, 1, 47, 0
3, 63660, Note_on_c, 1, 59, 72
3, 63720, Note_on_c, 1, 59, 0
3, 63720, Note_on_c, 1, 51, 72
3, 63780, Note_on_c, 1, 51, 0
3, 63780, Note_on_c, 1, 59, 72
3, 63840, Note_on_c, 1, 59, 0
3, 63840, Note_on_c, 1, 48, 72
3, 63900, Note_on_c, 1, 48, 0
3, 63900, Note_on_c, 1, 59, 72
3, 63960, Note_on_c, 1, 59, 0
3, 63960, Note_on_c, 1, 55, 72
3, 64020, Note_on_c, 1, 55, 0
3, 64020, Note_on_c, 1, 59, 72
3, 64080, Note_on_c, 1, 59, 0
3, 64080, Note_on_c, 1, 48, 72
3, 64140, Note_on_c, 1, 48, 0
3, 64140, Note_on_c, 1, 57, 72
3, 64200, Note_on_c, 1, 57, 0
3, 64200, Note_on_c, 1, 55, 72
3, 64260, Note_on_c, 1, 55, 0
3, 64260, Note_on_c, 1, 57, 72
3, 64320, Note_on_c, 1, 57, 0
3, 64320, Note_on_c, 1, 47, 72
3, 64380, Note_on_c, 1, 47, 0
3, 64380, Note_on_c, 1, 57, 72
3, 64440, Note_on_c, 1, 57, 0
3, 64440, Note_on_c, 1, 54, 72
3, 64500, Note_on_c, 1, 54, 0
3, 64500, Note_on_c, 1, 57, 72
3, 64560, Note_on_c, 1, 57, 0
3, 64560, Note_on_c, 1, 48, 72
3, 64620, Note_on_c, 1, 48, 0
3, 64620, Note_on_c, 1, 55, 72
3, 64680, Note_on_c, 1, 55, 0
3, 64680, Note_on_c, 1, 52, 72
3, 64740, Note_on_c, 1, 52, 0
3, 64740, Note_on_c, 1, 55, 72
3, 64800, Note_on_c, 1, 55, 0
3, 64800, Note_on_c, 1, 45, 80
3, 64800, Note_on_c, 1, 57, 80
3, 64848, Note_on_c, 1, 57, 0
3, 64848, Note_on_c, 1, 45, 0
3, 65040, Note_on_c, 1, 47, 88
3, 65040, Note_on_c, 1, 59, 88
3, 65088, Note_on_c, 1, 59, 0
3, 65088, Note_on_c, 1, 47, 0
3, 65280, Note_on_c, 1, 40, 96
3, 65280, Note_on_c, 1, 52, 96
3, 65520, Note_on_c, 1, 52, 0
3, 65520, Note_on_c, 1, 40, 0
3, 65520, End_track
4, 0, Start_track
4, 0, MIDI_port, 0
4, 0, Title_t, "MIDI by Marty Weimer 7/16/96"
4, 0, End_track
5, 0, Start_track
5, 0, MIDI_port, 0
5, 0, Title_t, "weimermt@libby.org  Eureka, MT  USA"
5, 0, End_track
0, 0, End_of_file
