0, 0, Header, 1, 5, 240
1, 0, Start_track
1, 0, Time_signature, 3, 2, 24, 8
1, 0, Key_signature, 0, "major"
1, 0, Tempo, 416667
1, 31920, Tempo, 441176
1, 32160, Tempo, 468750
1, 32400, Tempo, 500000
1, 33120, Tempo, 416667
1, 107520, Tempo, 422535
1, 107760, Tempo, 428571
1, 108000, Tempo, 434783
1, 108240, Tempo, 454545
1, 108480, Tempo, 476190
1, 108720, Tempo, 535714
1, 109440, Tempo, 857143
1, 109440, End_track
2, 0, Start_track
2, 0, MIDI_port, 0
2, 0, Title_t, "Piano Sonata No.20 in c"
2, 0, Program_c, 0, 0
2, 0, Control_c, 0, 7, 127
2, 0, Control_c, 0, 10, 72
2, 480, Note_on_c, 0, 72, 80
2, 552, Note_on_c, 0, 72, 0
2, 720, Note_on_c, 0, 77, 80
2, 780, Note_on_c, 0, 77, 0
2, 780, Note_on_c, 0, 75, 80
2, 840, Note_on_c, 0, 75, 0
2, 840, Note_on_c, 0, 74, 80
2, 900, Note_on_c, 0, 74, 0
2, 900, Note_on_c, 0, 72, 80
2, 960, Note_on_c, 0, 72, 0
2, 960, Note_on_c, 0, 71, 80
2, 1032, Note_on_c, 0, 71, 0
2, 1200, Note_on_c, 0, 74, 80
2, 1272, Note_on_c, 0, 74, 0
2, 1440, Note_on_c, 0, 79, 80
2, 1500, Note_on_c, 0, 79, 0
2, 1500, Note_on_c, 0, 77, 80
2, 1560, Note_on_c, 0, 77, 0
2, 1560, Note_on_c, 0, 75, 80
2, 1620, Note_on_c, 0, 75, 0
2, 1620, Note_on_c, 0, 74, 80
2, 1680, Note_on_c, 0, 74, 0
2, 1680, Note_on_c, 0, 72, 80
2, 1752, Note_on_c, 0, 72, 0
2, 1920, Note_on_c, 0, 79, 80
2, 2100, Note_on_c, 0, 79, 0
2, 2100, Note_on_c, 0, 84, 80
2, 2160, Note_on_c, 0, 84, 0
2, 2160, Note_on_c, 0, 84, 80
2, 2340, Note_on_c, 0, 84, 0
2, 2340, Note_on_c, 0, 83, 80
2, 2400, Note_on_c, 0, 83, 0
2, 2400, Note_on_c, 0, 83, 80
2, 2580, Note_on_c, 0, 83, 0
2, 2580, Note_on_c, 0, 80, 80
2, 2640, Note_on_c, 0, 80, 0
2, 2640, Note_on_c, 0, 80, 80
2, 2820, Note_on_c, 0, 80, 0
2, 2820, Note_on_c, 0, 79, 80
2, 2880, Note_on_c, 0, 79, 0
2, 2880, Note_on_c, 0, 79, 80
2, 3360, Note_on_c, 0, 79, 0
2, 3360, Note_on_c, 0, 79, 80
2, 3420, Note_on_c, 0, 79, 0
2, 3420, Note_on_c, 0, 77, 80
2, 3480, Note_on_c, 0, 77, 0
2, 3480, Note_on_c, 0, 75, 80
2, 3540, Note_on_c, 0, 75, 0
2, 3540, Note_on_c, 0, 74, 80
2, 3600, Note_on_c, 0, 74, 0
2, 3600, Note_on_c, 0, 77, 80
2, 3660, Note_on_c, 0, 77, 0
2, 3660, Note_on_c, 0, 75, 80
2, 3720, Note_on_c, 0, 75, 0
2, 3720, Note_on_c, 0, 74, 80
2, 3780, Note_on_c, 0, 74, 0
2, 3780, Note_on_c, 0, 72, 80
2, 3840, Note_on_c, 0, 72, 0
2, 3840, Note_on_c, 0, 71, 80
2, 4020, Note_on_c, 0, 71, 0
2, 4020, Note_on_c, 0, 72, 80
2, 4056, Note_on_c, 0, 72, 0
2, 4080, Note_on_c, 0, 72, 80
2, 4120, Note_on_c, 0, 72, 0
2, 4120, Note_on_c, 0, 74, 80
2, 4160, Note_on_c, 0, 74, 0
2, 4160, Note_on_c, 0, 72, 80
2, 4200, Note_on_c, 0, 72, 0
2, 4200, Note_on_c, 0, 74, 80
2, 4230, Note_on_c, 0, 74, 0
2, 4230, Note_on_c, 0, 72, 80
2, 4260, Note_on_c, 0, 72, 0
2, 4260, Note_on_c, 0, 71, 80
2, 4290, Note_on_c, 0, 71, 0
2, 4290, Note_on_c, 0, 72, 80
2, 4320, Note_on_c, 0, 72, 0
2, 4320, Note_on_c, 0, 72, 80
2, 4560, Note_on_c, 0, 72, 0
2, 4560, Note_on_c, 0, 71, 80
2, 4560, Note_on_c, 0, 74, 80
2, 4752, Note_on_c, 0, 74, 0
2, 4752, Note_on_c, 0, 71, 0
2, 4800, Note_on_c, 0, 60, 80
2, 4872, Note_on_c, 0, 60, 0
2, 5040, Note_on_c, 0, 65, 80
2, 5100, Note_on_c, 0, 65, 0
2, 5100, Note_on_c, 0, 63, 80
2, 5160, Note_on_c, 0, 63, 0
2, 5160, Note_on_c, 0, 62, 80
2, 5220, Note_on_c, 0, 62, 0
2, 5220, Note_on_c, 0, 60, 80
2, 5280, Note_on_c, 0, 60, 0
2, 5280, Note_on_c, 0, 59, 80
2, 5376, Note_on_c, 0, 59, 0
2, 5520, Note_on_c, 0, 62, 80
2, 5616, Note_on_c, 0, 62, 0
2, 5760, Note_on_c, 0, 67, 80
2, 5820, Note_on_c, 0, 67, 0
2, 5820, Note_on_c, 0, 65, 80
2, 5880, Note_on_c, 0, 65, 0
2, 5880, Note_on_c, 0, 63, 80
2, 5940, Note_on_c, 0, 63, 0
2, 5940, Note_on_c, 0, 62, 80
2, 6000, Note_on_c, 0, 62, 0
2, 6000, Note_on_c, 0, 60, 80
2, 6096, Note_on_c, 0, 60, 0
2, 6240, Note_on_c, 0, 72, 48
2, 6300, Note_on_c, 0, 72, 0
2, 6300, Note_on_c, 0, 71, 48
2, 6360, Note_on_c, 0, 71, 0
2, 6360, Note_on_c, 0, 74, 48
2, 6420, Note_on_c, 0, 74, 0
2, 6420, Note_on_c, 0, 72, 48
2, 6480, Note_on_c, 0, 72, 0
2, 6480, Note_on_c, 0, 75, 48
2, 6528, Note_on_c, 0, 75, 0
2, 6600, Note_on_c, 0, 74, 48
2, 6648, Note_on_c, 0, 74, 0
2, 6720, Note_on_c, 0, 72, 48
2, 6768, Note_on_c, 0, 72, 0
2, 6840, Note_on_c, 0, 70, 48
2, 6888, Note_on_c, 0, 70, 0
2, 6960, Note_on_c, 0, 68, 48
2, 7008, Note_on_c, 0, 68, 0
2, 7080, Note_on_c, 0, 67, 48
2, 7128, Note_on_c, 0, 67, 0
2, 7200, Note_on_c, 0, 67, 48
2, 7320, Note_on_c, 0, 67, 0
2, 7320, Note_on_c, 0, 66, 48
2, 7368, Note_on_c, 0, 66, 0
2, 7440, Note_on_c, 0, 74, 48
2, 7488, Note_on_c, 0, 74, 0
2, 7560, Note_on_c, 0, 65, 48
2, 7608, Note_on_c, 0, 65, 0
2, 7680, Note_on_c, 0, 65, 48
2, 7800, Note_on_c, 0, 65, 0
2, 7800, Note_on_c, 0, 63, 48
2, 7848, Note_on_c, 0, 63, 0
2, 8040, Note_on_c, 0, 62, 48
2, 8160, Note_on_c, 0, 62, 0
2, 8160, Note_on_c, 0, 65, 48
2, 8280, Note_on_c, 0, 65, 0
2, 8280, Note_on_c, 0, 68, 48
2, 8328, Note_on_c, 0, 68, 0
2, 8400, Note_on_c, 0, 67, 48
2, 8448, Note_on_c, 0, 67, 0
2, 8520, Note_on_c, 0, 59, 48
2, 8640, Note_on_c, 0, 59, 0
2, 8640, Note_on_c, 0, 60, 48
2, 8880, Note_on_c, 0, 60, 0
2, 9480, Note_on_c, 0, 75, 80
2, 9600, Note_on_c, 0, 75, 0
2, 9600, Note_on_c, 0, 74, 80
2, 9720, Note_on_c, 0, 74, 0
2, 9720, Note_on_c, 0, 72, 80
2, 9840, Note_on_c, 0, 72, 0
2, 9840, Note_on_c, 0, 70, 80
2, 9960, Note_on_c, 0, 70, 0
2, 9960, Note_on_c, 0, 68, 80
2, 10080, Note_on_c, 0, 68, 0
2, 10080, Note_on_c, 0, 67, 80
2, 10680, Note_on_c, 0, 67, 0
2, 10680, Note_on_c, 0, 68, 80
2, 10740, Note_on_c, 0, 68, 0
2, 10740, Note_on_c, 0, 70, 80
2, 10770, Note_on_c, 0, 70, 0
2, 10770, Note_on_c, 0, 68, 80
2, 10800, Note_on_c, 0, 68, 0
2, 10800, Note_on_c, 0, 70, 80
2, 10872, Note_on_c, 0, 70, 0
2, 10920, Note_on_c, 0, 67, 80
2, 10980, Note_on_c, 0, 67, 0
2, 10980, Note_on_c, 0, 70, 80
2, 11040, Note_on_c, 0, 70, 0
2, 11040, Note_on_c, 0, 65, 80
2, 11100, Note_on_c, 0, 65, 0
2, 11100, Note_on_c, 0, 70, 80
2, 11160, Note_on_c, 0, 70, 0
2, 11160, Note_on_c, 0, 63, 80
2, 11220, Note_on_c, 0, 63, 0
2, 11220, Note_on_c, 0, 70, 80
2, 11280, Note_on_c, 0, 70, 0
2, 11280, Note_on_c, 0, 62, 80
2, 11340, Note_on_c, 0, 62, 0
2, 11340, Note_on_c, 0, 70, 80
2, 11400, Note_on_c, 0, 70, 0
2, 11400, Note_on_c, 0, 60, 80
2, 11460, Note_on_c, 0, 60, 0
2, 11460, Note_on_c, 0, 70, 80
2, 11520, Note_on_c, 0, 70, 0
2, 11520, Note_on_c, 0, 58, 80
2, 11640, Note_on_c, 0, 58, 0
2, 11640, Note_on_c, 0, 75, 64
2, 11760, Note_on_c, 0, 75, 0
2, 11760, Note_on_c, 0, 79, 64
2, 11808, Note_on_c, 0, 79, 0
2, 11880, Note_on_c, 0, 75, 64
2, 11928, Note_on_c, 0, 75, 0
2, 12000, Note_on_c, 0, 74, 64
2, 12120, Note_on_c, 0, 74, 0
2, 12120, Note_on_c, 0, 72, 64
2, 12240, Note_on_c, 0, 72, 0
2, 12240, Note_on_c, 0, 70, 64
2, 12360, Note_on_c, 0, 60, 64
2, 12480, Note_on_c, 0, 60, 0
2, 12480, Note_on_c, 0, 70, 0
2, 12480, Note_on_c, 0, 63, 64
2, 12480, Note_on_c, 0, 69, 64
2, 12600, Note_on_c, 0, 63, 0
2, 12600, Note_on_c, 0, 67, 64
2, 12720, Note_on_c, 0, 67, 0
2, 12720, Note_on_c, 0, 65, 64
2, 12840, Note_on_c, 0, 65, 0
2, 12840, Note_on_c, 0, 63, 64
2, 12960, Note_on_c, 0, 63, 0
2, 12960, Note_on_c, 0, 69, 0
2, 12960, Note_on_c, 0, 63, 64
2, 13080, Note_on_c, 0, 68, 64
2, 13200, Note_on_c, 0, 68, 0
2, 13200, Note_on_c, 0, 63, 0
2, 13200, Note_on_c, 0, 77, 64
2, 13200, Note_on_c, 0, 62, 64
2, 13320, Note_on_c, 0, 77, 0
2, 13320, Note_on_c, 0, 74, 64
2, 13368, Note_on_c, 0, 74, 0
2, 13440, Note_on_c, 0, 70, 64
2, 13560, Note_on_c, 0, 70, 0
2, 13560, Note_on_c, 0, 68, 64
2, 13656, Note_on_c, 0, 68, 0
2, 13656, Note_on_c, 0, 62, 0
2, 13680, Note_on_c, 0, 68, 64
2, 13800, Note_on_c, 0, 58, 64
2, 13920, Note_on_c, 0, 58, 0
2, 13920, Note_on_c, 0, 68, 0
2, 13920, Note_on_c, 0, 63, 64
2, 13920, Note_on_c, 0, 67, 64
2, 14040, Note_on_c, 0, 63, 0
2, 14040, Note_on_c, 0, 65, 64
2, 14160, Note_on_c, 0, 65, 0
2, 14160, Note_on_c, 0, 63, 64
2, 14280, Note_on_c, 0, 63, 0
2, 14280, Note_on_c, 0, 62, 64
2, 14400, Note_on_c, 0, 62, 0
2, 14400, Note_on_c, 0, 60, 64
2, 14520, Note_on_c, 0, 67, 0
2, 14520, Note_on_c, 0, 65, 67
2, 14640, Note_on_c, 0, 65, 0
2, 14640, Note_on_c, 0, 72, 69
2, 14760, Note_on_c, 0, 72, 0
2, 14760, Note_on_c, 0, 68, 72
2, 14880, Note_on_c, 0, 68, 0
2, 14880, Note_on_c, 0, 65, 75
2, 15000, Note_on_c, 0, 65, 0
2, 15000, Note_on_c, 0, 63, 77
2, 15120, Note_on_c, 0, 63, 0
2, 15120, Note_on_c, 0, 60, 0
2, 15120, Note_on_c, 0, 62, 80
2, 15180, Note_on_c, 0, 62, 0
2, 15180, Note_on_c, 0, 65, 80
2, 15240, Note_on_c, 0, 65, 0
2, 15240, Note_on_c, 0, 63, 80
2, 15300, Note_on_c, 0, 63, 0
2, 15300, Note_on_c, 0, 67, 80
2, 15360, Note_on_c, 0, 67, 0
2, 15360, Note_on_c, 0, 65, 80
2, 15420, Note_on_c, 0, 65, 0
2, 15420, Note_on_c, 0, 68, 80
2, 15480, Note_on_c, 0, 68, 0
2, 15480, Note_on_c, 0, 67, 80
2, 15540, Note_on_c, 0, 67, 0
2, 15540, Note_on_c, 0, 70, 80
2, 15600, Note_on_c, 0, 70, 0
2, 15600, Note_on_c, 0, 68, 80
2, 15660, Note_on_c, 0, 68, 0
2, 15840, Note_on_c, 0, 63, 80
2, 15900, Note_on_c, 0, 63, 0
2, 15900, Note_on_c, 0, 67, 80
2, 15960, Note_on_c, 0, 67, 0
2, 15960, Note_on_c, 0, 65, 80
2, 16020, Note_on_c, 0, 65, 0
2, 16020, Note_on_c, 0, 68, 80
2, 16080, Note_on_c, 0, 68, 0
2, 16080, Note_on_c, 0, 67, 80
2, 16140, Note_on_c, 0, 67, 0
2, 16140, Note_on_c, 0, 70, 80
2, 16200, Note_on_c, 0, 70, 0
2, 16200, Note_on_c, 0, 68, 80
2, 16260, Note_on_c, 0, 68, 0
2, 16260, Note_on_c, 0, 72, 80
2, 16320, Note_on_c, 0, 72, 0
2, 16320, Note_on_c, 0, 70, 80
2, 16380, Note_on_c, 0, 70, 0
2, 16560, Note_on_c, 0, 70, 80
2, 16620, Note_on_c, 0, 70, 0
2, 16620, Note_on_c, 0, 74, 80
2, 16680, Note_on_c, 0, 74, 0
2, 16680, Note_on_c, 0, 72, 80
2, 16740, Note_on_c, 0, 72, 0
2, 16740, Note_on_c, 0, 75, 80
2, 16800, Note_on_c, 0, 75, 0
2, 16800, Note_on_c, 0, 74, 80
2, 16860, Note_on_c, 0, 74, 0
2, 16860, Note_on_c, 0, 77, 80
2, 16920, Note_on_c, 0, 77, 0
2, 16920, Note_on_c, 0, 75, 80
2, 16980, Note_on_c, 0, 75, 0
2, 16980, Note_on_c, 0, 79, 80
2, 17040, Note_on_c, 0, 79, 0
2, 17040, Note_on_c, 0, 77, 80
2, 17100, Note_on_c, 0, 77, 0
2, 17100, Note_on_c, 0, 80, 80
2, 17160, Note_on_c, 0, 80, 0
2, 17160, Note_on_c, 0, 79, 80
2, 17220, Note_on_c, 0, 79, 0
2, 17220, Note_on_c, 0, 82, 80
2, 17280, Note_on_c, 0, 82, 0
2, 17280, Note_on_c, 0, 80, 80
2, 17340, Note_on_c, 0, 80, 0
2, 17340, Note_on_c, 0, 82, 80
2, 17400, Note_on_c, 0, 82, 0
2, 17400, Note_on_c, 0, 84, 80
2, 17460, Note_on_c, 0, 84, 0
2, 17460, Note_on_c, 0, 82, 80
2, 17520, Note_on_c, 0, 82, 0
2, 17520, Note_on_c, 0, 80, 80
2, 17580, Note_on_c, 0, 80, 0
2, 17580, Note_on_c, 0, 79, 80
2, 17640, Note_on_c, 0, 79, 0
2, 17640, Note_on_c, 0, 77, 80
2, 17700, Note_on_c, 0, 77, 0
2, 17700, Note_on_c, 0, 75, 80
2, 17760, Note_on_c, 0, 75, 0
2, 17760, Note_on_c, 0, 74, 80
2, 17820, Note_on_c, 0, 74, 0
2, 17820, Note_on_c, 0, 72, 80
2, 17880, Note_on_c, 0, 72, 0
2, 17880, Note_on_c, 0, 70, 80
2, 17940, Note_on_c, 0, 70, 0
2, 17940, Note_on_c, 0, 68, 80
2, 18000, Note_on_c, 0, 68, 0
2, 18000, Note_on_c, 0, 67, 80
2, 18060, Note_on_c, 0, 67, 0
2, 18060, Note_on_c, 0, 70, 80
2, 18120, Note_on_c, 0, 70, 0
2, 18120, Note_on_c, 0, 68, 80
2, 18180, Note_on_c, 0, 68, 0
2, 18180, Note_on_c, 0, 72, 80
2, 18240, Note_on_c, 0, 72, 0
2, 18240, Note_on_c, 0, 70, 80
2, 18300, Note_on_c, 0, 70, 0
2, 18300, Note_on_c, 0, 74, 80
2, 18360, Note_on_c, 0, 74, 0
2, 18360, Note_on_c, 0, 72, 80
2, 18420, Note_on_c, 0, 72, 0
2, 18420, Note_on_c, 0, 75, 80
2, 18480, Note_on_c, 0, 75, 0
2, 18480, Note_on_c, 0, 74, 80
2, 18540, Note_on_c, 0, 74, 0
2, 18540, Note_on_c, 0, 77, 80
2, 18600, Note_on_c, 0, 77, 0
2, 18600, Note_on_c, 0, 75, 80
2, 18660, Note_on_c, 0, 75, 0
2, 18660, Note_on_c, 0, 79, 80
2, 18720, Note_on_c, 0, 79, 0
2, 18720, Note_on_c, 0, 77, 80
2, 18780, Note_on_c, 0, 77, 0
2, 18780, Note_on_c, 0, 79, 80
2, 18840, Note_on_c, 0, 79, 0
2, 18840, Note_on_c, 0, 80, 80
2, 18900, Note_on_c, 0, 80, 0
2, 18900, Note_on_c, 0, 79, 80
2, 18960, Note_on_c, 0, 79, 0
2, 18960, Note_on_c, 0, 77, 80
2, 19020, Note_on_c, 0, 77, 0
2, 19020, Note_on_c, 0, 75, 80
2, 19080, Note_on_c, 0, 75, 0
2, 19080, Note_on_c, 0, 74, 80
2, 19140, Note_on_c, 0, 74, 0
2, 19140, Note_on_c, 0, 72, 80
2, 19200, Note_on_c, 0, 72, 0
2, 19200, Note_on_c, 0, 70, 80
2, 19260, Note_on_c, 0, 70, 0
2, 19260, Note_on_c, 0, 68, 80
2, 19320, Note_on_c, 0, 68, 0
2, 19320, Note_on_c, 0, 67, 80
2, 19380, Note_on_c, 0, 67, 0
2, 19380, Note_on_c, 0, 65, 80
2, 19440, Note_on_c, 0, 65, 0
2, 19440, Note_on_c, 0, 63, 80
2, 19500, Note_on_c, 0, 63, 0
2, 19500, Note_on_c, 0, 62, 80
2, 19560, Note_on_c, 0, 62, 0
2, 19560, Note_on_c, 0, 63, 80
2, 19620, Note_on_c, 0, 63, 0
2, 19620, Note_on_c, 0, 68, 80
2, 19680, Note_on_c, 0, 68, 0
2, 19680, Note_on_c, 0, 63, 80
2, 19740, Note_on_c, 0, 63, 0
2, 19740, Note_on_c, 0, 62, 80
2, 19800, Note_on_c, 0, 62, 0
2, 19800, Note_on_c, 0, 63, 80
2, 19860, Note_on_c, 0, 63, 0
2, 19860, Note_on_c, 0, 67, 80
2, 19920, Note_on_c, 0, 67, 0
2, 19920, Note_on_c, 0, 63, 80
2, 19980, Note_on_c, 0, 63, 0
2, 19980, Note_on_c, 0, 62, 80
2, 20040, Note_on_c, 0, 62, 0
2, 20040, Note_on_c, 0, 63, 80
2, 20100, Note_on_c, 0, 63, 0
2, 20100, Note_on_c, 0, 72, 80
2, 20160, Note_on_c, 0, 72, 0
2, 20160, Note_on_c, 0, 63, 80
2, 20220, Note_on_c, 0, 63, 0
2, 20220, Note_on_c, 0, 62, 80
2, 20280, Note_on_c, 0, 62, 0
2, 20280, Note_on_c, 0, 63, 80
2, 20340, Note_on_c, 0, 63, 0
2, 20340, Note_on_c, 0, 70, 80
2, 20364, Note_on_c, 0, 70, 0
2, 20400, Note_on_c, 0, 63, 80
2, 20460, Note_on_c, 0, 63, 0
2, 20460, Note_on_c, 0, 62, 80
2, 20520, Note_on_c, 0, 62, 0
2, 20520, Note_on_c, 0, 63, 80
2, 20580, Note_on_c, 0, 63, 0
2, 20580, Note_on_c, 0, 68, 80
2, 20604, Note_on_c, 0, 68, 0
2, 20640, Note_on_c, 0, 63, 80
2, 20700, Note_on_c, 0, 63, 0
2, 20700, Note_on_c, 0, 62, 80
2, 20760, Note_on_c, 0, 62, 0
2, 20760, Note_on_c, 0, 63, 80
2, 20820, Note_on_c, 0, 63, 0
2, 20820, Note_on_c, 0, 67, 80
2, 20844, Note_on_c, 0, 67, 0
2, 20880, Note_on_c, 0, 63, 48
2, 20940, Note_on_c, 0, 63, 0
2, 20940, Note_on_c, 0, 62, 48
2, 21000, Note_on_c, 0, 62, 0
2, 21000, Note_on_c, 0, 63, 48
2, 21060, Note_on_c, 0, 63, 0
2, 21060, Note_on_c, 0, 68, 48
2, 21120, Note_on_c, 0, 68, 0
2, 21120, Note_on_c, 0, 63, 48
2, 21180, Note_on_c, 0, 63, 0
2, 21180, Note_on_c, 0, 62, 48
2, 21240, Note_on_c, 0, 62, 0
2, 21240, Note_on_c, 0, 63, 48
2, 21300, Note_on_c, 0, 63, 0
2, 21300, Note_on_c, 0, 67, 48
2, 21360, Note_on_c, 0, 67, 0
2, 21360, Note_on_c, 0, 63, 48
2, 21420, Note_on_c, 0, 63, 0
2, 21420, Note_on_c, 0, 62, 48
2, 21480, Note_on_c, 0, 62, 0
2, 21480, Note_on_c, 0, 63, 48
2, 21540, Note_on_c, 0, 63, 0
2, 21540, Note_on_c, 0, 72, 48
2, 21600, Note_on_c, 0, 72, 0
2, 21600, Note_on_c, 0, 63, 48
2, 21660, Note_on_c, 0, 63, 0
2, 21660, Note_on_c, 0, 62, 48
2, 21720, Note_on_c, 0, 62, 0
2, 21720, Note_on_c, 0, 63, 48
2, 21780, Note_on_c, 0, 63, 0
2, 21780, Note_on_c, 0, 70, 48
2, 21840, Note_on_c, 0, 70, 0
2, 21840, Note_on_c, 0, 63, 48
2, 21900, Note_on_c, 0, 63, 0
2, 21900, Note_on_c, 0, 62, 48
2, 21960, Note_on_c, 0, 62, 0
2, 21960, Note_on_c, 0, 63, 48
2, 22020, Note_on_c, 0, 63, 0
2, 22020, Note_on_c, 0, 68, 48
2, 22080, Note_on_c, 0, 68, 0
2, 22080, Note_on_c, 0, 63, 48
2, 22140, Note_on_c, 0, 63, 0
2, 22140, Note_on_c, 0, 62, 48
2, 22200, Note_on_c, 0, 62, 0
2, 22200, Note_on_c, 0, 63, 48
2, 22260, Note_on_c, 0, 63, 0
2, 22260, Note_on_c, 0, 67, 48
2, 22320, Note_on_c, 0, 67, 0
2, 22320, Note_on_c, 0, 63, 80
2, 22380, Note_on_c, 0, 63, 0
2, 22380, Note_on_c, 0, 62, 80
2, 22440, Note_on_c, 0, 62, 0
2, 22440, Note_on_c, 0, 63, 80
2, 22500, Note_on_c, 0, 63, 0
2, 22500, Note_on_c, 0, 66, 80
2, 22560, Note_on_c, 0, 66, 0
2, 22560, Note_on_c, 0, 63, 80
2, 22620, Note_on_c, 0, 63, 0
2, 22620, Note_on_c, 0, 62, 80
2, 22680, Note_on_c, 0, 62, 0
2, 22680, Note_on_c, 0, 63, 80
2, 22740, Note_on_c, 0, 63, 0
2, 22740, Note_on_c, 0, 66, 80
2, 22800, Note_on_c, 0, 66, 0
2, 22800, Note_on_c, 0, 63, 80
2, 22860, Note_on_c, 0, 63, 0
2, 22860, Note_on_c, 0, 62, 80
2, 22920, Note_on_c, 0, 62, 0
2, 22920, Note_on_c, 0, 63, 80
2, 22980, Note_on_c, 0, 63, 0
2, 22980, Note_on_c, 0, 66, 80
2, 23040, Note_on_c, 0, 66, 0
2, 23040, Note_on_c, 0, 62, 80
2, 23100, Note_on_c, 0, 62, 0
2, 23100, Note_on_c, 0, 65, 80
2, 23124, Note_on_c, 0, 65, 0
2, 23160, Note_on_c, 0, 68, 80
2, 23184, Note_on_c, 0, 68, 0
2, 23220, Note_on_c, 0, 72, 80
2, 23244, Note_on_c, 0, 72, 0
2, 23280, Note_on_c, 0, 70, 80
2, 23340, Note_on_c, 0, 70, 0
2, 23340, Note_on_c, 0, 68, 80
2, 23400, Note_on_c, 0, 68, 0
2, 23400, Note_on_c, 0, 67, 80
2, 23460, Note_on_c, 0, 67, 0
2, 23460, Note_on_c, 0, 65, 80
2, 23520, Note_on_c, 0, 65, 0
2, 23520, Note_on_c, 0, 63, 80
2, 23580, Note_on_c, 0, 63, 0
2, 23580, Note_on_c, 0, 62, 80
2, 23640, Note_on_c, 0, 62, 0
2, 23640, Note_on_c, 0, 60, 80
2, 23700, Note_on_c, 0, 60, 0
2, 23700, Note_on_c, 0, 58, 80
2, 23760, Note_on_c, 0, 58, 0
2, 23880, Note_on_c, 0, 63, 80
2, 24000, Note_on_c, 0, 63, 0
2, 24000, Note_on_c, 0, 67, 80
2, 24048, Note_on_c, 0, 67, 0
2, 24120, Note_on_c, 0, 70, 80
2, 24168, Note_on_c, 0, 70, 0
2, 24240, Note_on_c, 0, 75, 80
2, 24288, Note_on_c, 0, 75, 0
2, 24360, Note_on_c, 0, 79, 48
2, 24360, Note_on_c, 0, 82, 48
2, 24600, Note_on_c, 0, 82, 0
2, 24600, Note_on_c, 0, 79, 0
2, 24600, Note_on_c, 0, 77, 48
2, 24600, Note_on_c, 0, 80, 48
2, 24840, Note_on_c, 0, 80, 0
2, 24840, Note_on_c, 0, 77, 0
2, 24840, Note_on_c, 0, 75, 48
2, 24840, Note_on_c, 0, 79, 48
2, 25080, Note_on_c, 0, 79, 0
2, 25080, Note_on_c, 0, 75, 0
2, 25080, Note_on_c, 0, 74, 48
2, 25080, Note_on_c, 0, 77, 48
2, 25128, Note_on_c, 0, 77, 0
2, 25128, Note_on_c, 0, 74, 0
2, 25200, Note_on_c, 0, 75, 80
2, 25260, Note_on_c, 0, 75, 0
2, 25260, Note_on_c, 0, 68, 80
2, 25320, Note_on_c, 0, 68, 0
2, 25320, Note_on_c, 0, 67, 80
2, 25380, Note_on_c, 0, 67, 0
2, 25380, Note_on_c, 0, 68, 80
2, 25440, Note_on_c, 0, 68, 0
2, 25440, Note_on_c, 0, 74, 80
2, 25500, Note_on_c, 0, 74, 0
2, 25500, Note_on_c, 0, 67, 80
2, 25560, Note_on_c, 0, 67, 0
2, 25560, Note_on_c, 0, 66, 80
2, 25620, Note_on_c, 0, 66, 0
2, 25620, Note_on_c, 0, 67, 80
2, 25680, Note_on_c, 0, 67, 0
2, 25680, Note_on_c, 0, 72, 80
2, 25740, Note_on_c, 0, 72, 0
2, 25740, Note_on_c, 0, 65, 80
2, 25800, Note_on_c, 0, 65, 0
2, 25800, Note_on_c, 0, 64, 80
2, 25860, Note_on_c, 0, 64, 0
2, 25860, Note_on_c, 0, 65, 80
2, 25920, Note_on_c, 0, 65, 0
2, 25920, Note_on_c, 0, 70, 80
2, 25980, Note_on_c, 0, 70, 0
2, 25980, Note_on_c, 0, 63, 80
2, 26040, Note_on_c, 0, 63, 0
2, 26040, Note_on_c, 0, 62, 80
2, 26100, Note_on_c, 0, 62, 0
2, 26100, Note_on_c, 0, 63, 80
2, 26160, Note_on_c, 0, 63, 0
2, 26160, Note_on_c, 0, 68, 80
2, 26220, Note_on_c, 0, 68, 0
2, 26220, Note_on_c, 0, 62, 80
2, 26280, Note_on_c, 0, 62, 0
2, 26280, Note_on_c, 0, 61, 80
2, 26340, Note_on_c, 0, 61, 0
2, 26340, Note_on_c, 0, 62, 80
2, 26400, Note_on_c, 0, 62, 0
2, 26400, Note_on_c, 0, 67, 80
2, 26460, Note_on_c, 0, 67, 0
2, 26460, Note_on_c, 0, 63, 80
2, 26520, Note_on_c, 0, 63, 0
2, 26520, Note_on_c, 0, 62, 80
2, 26580, Note_on_c, 0, 62, 0
2, 26580, Note_on_c, 0, 63, 80
2, 26640, Note_on_c, 0, 63, 0
2, 26760, Note_on_c, 0, 59, 80
2, 26808, Note_on_c, 0, 59, 0
2, 26880, Note_on_c, 0, 60, 80
2, 26928, Note_on_c, 0, 60, 0
2, 27000, Note_on_c, 0, 62, 80
2, 27048, Note_on_c, 0, 62, 0
2, 27120, Note_on_c, 0, 63, 80
2, 27168, Note_on_c, 0, 63, 0
2, 27240, Note_on_c, 0, 64, 80
2, 27288, Note_on_c, 0, 64, 0
2, 27360, Note_on_c, 0, 65, 80
2, 27408, Note_on_c, 0, 65, 0
2, 27480, Note_on_c, 0, 67, 75
2, 27600, Note_on_c, 0, 67, 0
2, 27600, Note_on_c, 0, 70, 69
2, 27720, Note_on_c, 0, 70, 0
2, 27720, Note_on_c, 0, 68, 64
2, 27840, Note_on_c, 0, 68, 0
2, 27840, Note_on_c, 0, 67, 59
2, 27960, Note_on_c, 0, 67, 0
2, 27960, Note_on_c, 0, 65, 53
2, 28080, Note_on_c, 0, 65, 0
2, 28080, Note_on_c, 0, 63, 48
2, 28080, Note_on_c, 0, 67, 48
2, 28848, Note_on_c, 0, 67, 0
2, 28848, Note_on_c, 0, 63, 0
2, 28920, Note_on_c, 0, 67, 48
2, 28920, Note_on_c, 0, 70, 48
2, 28968, Note_on_c, 0, 70, 0
2, 28968, Note_on_c, 0, 67, 0
2, 29040, Note_on_c, 0, 67, 48
2, 29040, Note_on_c, 0, 70, 48
2, 29160, Note_on_c, 0, 70, 0
2, 29160, Note_on_c, 0, 67, 0
2, 29160, Note_on_c, 0, 65, 48
2, 29160, Note_on_c, 0, 68, 48
2, 29280, Note_on_c, 0, 68, 0
2, 29280, Note_on_c, 0, 65, 0
2, 29280, Note_on_c, 0, 63, 48
2, 29280, Note_on_c, 0, 67, 48
2, 29400, Note_on_c, 0, 67, 0
2, 29400, Note_on_c, 0, 63, 0
2, 29400, Note_on_c, 0, 62, 48
2, 29400, Note_on_c, 0, 65, 48
2, 29520, Note_on_c, 0, 65, 0
2, 29520, Note_on_c, 0, 62, 0
2, 29520, Note_on_c, 0, 63, 48
2, 29640, Note_on_c, 0, 57, 48
2, 29760, Note_on_c, 0, 57, 0
2, 29760, Note_on_c, 0, 58, 48
2, 29880, Note_on_c, 0, 58, 0
2, 29880, Note_on_c, 0, 57, 48
2, 30000, Note_on_c, 0, 57, 0
2, 30000, Note_on_c, 0, 58, 48
2, 30120, Note_on_c, 0, 58, 0
2, 30120, Note_on_c, 0, 57, 48
2, 30240, Note_on_c, 0, 57, 0
2, 30240, Note_on_c, 0, 58, 48
2, 30300, Note_on_c, 0, 58, 0
2, 30360, Note_on_c, 0, 60, 48
2, 30480, Note_on_c, 0, 60, 0
2, 30480, Note_on_c, 0, 61, 48
2, 30600, Note_on_c, 0, 61, 0
2, 30600, Note_on_c, 0, 60, 48
2, 30720, Note_on_c, 0, 60, 0
2, 30720, Note_on_c, 0, 61, 48
2, 30840, Note_on_c, 0, 61, 0
2, 30840, Note_on_c, 0, 60, 48
2, 30960, Note_on_c, 0, 60, 0
2, 30960, Note_on_c, 0, 61, 48
2, 31020, Note_on_c, 0, 61, 0
2, 31080, Note_on_c, 0, 59, 48
2, 31200, Note_on_c, 0, 59, 0
2, 31200, Note_on_c, 0, 60, 48
2, 31320, Note_on_c, 0, 60, 0
2, 31320, Note_on_c, 0, 59, 48
2, 31440, Note_on_c, 0, 59, 0
2, 31440, Note_on_c, 0, 60, 48
2, 31560, Note_on_c, 0, 60, 0
2, 31560, Note_on_c, 0, 59, 48
2, 31680, Note_on_c, 0, 59, 0
2, 31680, Note_on_c, 0, 60, 48
2, 31728, Note_on_c, 0, 60, 0
2, 31728, Note_on_c, 0, 63, 0
2, 31800, Note_on_c, 0, 68, 48
2, 31800, Note_on_c, 0, 72, 48
2, 31848, Note_on_c, 0, 72, 0
2, 31848, Note_on_c, 0, 68, 0
2, 31920, Note_on_c, 0, 67, 48
2, 31920, Note_on_c, 0, 70, 48
2, 32040, Note_on_c, 0, 70, 0
2, 32040, Note_on_c, 0, 67, 0
2, 32040, Note_on_c, 0, 65, 48
2, 32040, Note_on_c, 0, 68, 48
2, 32160, Note_on_c, 0, 68, 0
2, 32160, Note_on_c, 0, 65, 0
2, 32160, Note_on_c, 0, 63, 48
2, 32160, Note_on_c, 0, 67, 48
2, 32280, Note_on_c, 0, 67, 0
2, 32280, Note_on_c, 0, 63, 0
2, 32280, Note_on_c, 0, 62, 48
2, 32280, Note_on_c, 0, 65, 48
2, 32400, Note_on_c, 0, 65, 0
2, 32400, Note_on_c, 0, 62, 0
2, 32400, Note_on_c, 0, 62, 56
2, 32400, Note_on_c, 0, 65, 56
2, 33120, Note_on_c, 0, 65, 0
2, 33120, Note_on_c, 0, 62, 0
2, 33120, Note_on_c, 0, 63, 32
2, 33120, Note_on_c, 0, 67, 32
2, 33360, Note_on_c, 0, 67, 0
2, 33360, Note_on_c, 0, 63, 0
2, 33600, Note_on_c, 0, 75, 80
2, 33672, Note_on_c, 0, 75, 0
2, 33840, Note_on_c, 0, 80, 80
2, 33900, Note_on_c, 0, 80, 0
2, 33900, Note_on_c, 0, 79, 80
2, 33960, Note_on_c, 0, 79, 0
2, 33960, Note_on_c, 0, 77, 80
2, 34020, Note_on_c, 0, 77, 0
2, 34020, Note_on_c, 0, 75, 80
2, 34080, Note_on_c, 0, 75, 0
2, 34080, Note_on_c, 0, 74, 80
2, 34152, Note_on_c, 0, 74, 0
2, 34320, Note_on_c, 0, 77, 80
2, 34392, Note_on_c, 0, 77, 0
2, 34560, Note_on_c, 0, 82, 80
2, 34620, Note_on_c, 0, 82, 0
2, 34620, Note_on_c, 0, 80, 80
2, 34680, Note_on_c, 0, 80, 0
2, 34680, Note_on_c, 0, 79, 80
2, 34740, Note_on_c, 0, 79, 0
2, 34740, Note_on_c, 0, 77, 80
2, 34800, Note_on_c, 0, 77, 0
2, 34800, Note_on_c, 0, 75, 80
2, 34872, Note_on_c, 0, 75, 0
2, 35040, Note_on_c, 0, 82, 80
2, 35220, Note_on_c, 0, 82, 0
2, 35220, Note_on_c, 0, 87, 80
2, 35280, Note_on_c, 0, 87, 0
2, 35280, Note_on_c, 0, 87, 80
2, 35460, Note_on_c, 0, 87, 0
2, 35460, Note_on_c, 0, 86, 80
2, 35520, Note_on_c, 0, 86, 0
2, 35520, Note_on_c, 0, 86, 80
2, 35700, Note_on_c, 0, 86, 0
2, 35700, Note_on_c, 0, 84, 80
2, 35760, Note_on_c, 0, 84, 0
2, 35760, Note_on_c, 0, 84, 80
2, 35940, Note_on_c, 0, 84, 0
2, 35940, Note_on_c, 0, 82, 80
2, 36000, Note_on_c, 0, 82, 0
2, 36000, Note_on_c, 0, 82, 80
2, 36480, Note_on_c, 0, 82, 0
2, 36480, Note_on_c, 0, 82, 80
2, 36540, Note_on_c, 0, 82, 0
2, 36540, Note_on_c, 0, 80, 80
2, 36600, Note_on_c, 0, 80, 0
2, 36600, Note_on_c, 0, 79, 80
2, 36660, Note_on_c, 0, 79, 0
2, 36660, Note_on_c, 0, 77, 80
2, 36720, Note_on_c, 0, 77, 0
2, 36720, Note_on_c, 0, 80, 80
2, 36780, Note_on_c, 0, 80, 0
2, 36780, Note_on_c, 0, 79, 80
2, 36840, Note_on_c, 0, 79, 0
2, 36840, Note_on_c, 0, 77, 80
2, 36900, Note_on_c, 0, 77, 0
2, 36900, Note_on_c, 0, 75, 80
2, 36960, Note_on_c, 0, 75, 0
2, 36960, Note_on_c, 0, 74, 80
2, 37140, Note_on_c, 0, 74, 0
2, 37140, Note_on_c, 0, 75, 80
2, 37200, Note_on_c, 0, 75, 0
2, 37200, Note_on_c, 0, 75, 80
2, 37240, Note_on_c, 0, 75, 0
2, 37240, Note_on_c, 0, 77, 80
2, 37280, Note_on_c, 0, 77, 0
2, 37280, Note_on_c, 0, 75, 80
2, 37320, Note_on_c, 0, 75, 0
2, 37320, Note_on_c, 0, 77, 80
2, 37350, Note_on_c, 0, 77, 0
2, 37350, Note_on_c, 0, 75, 80
2, 37380, Note_on_c, 0, 75, 0
2, 37380, Note_on_c, 0, 74, 80
2, 37410, Note_on_c, 0, 74, 0
2, 37410, Note_on_c, 0, 75, 80
2, 37440, Note_on_c, 0, 75, 0
2, 37440, Note_on_c, 0, 75, 80
2, 37680, Note_on_c, 0, 75, 0
2, 37680, Note_on_c, 0, 74, 64
2, 37680, Note_on_c, 0, 77, 64
2, 37920, Note_on_c, 0, 77, 0
2, 37920, Note_on_c, 0, 74, 0
2, 38640, Note_on_c, 0, 65, 48
2, 38712, Note_on_c, 0, 65, 0
2, 38880, Note_on_c, 0, 70, 48
2, 38940, Note_on_c, 0, 70, 0
2, 38940, Note_on_c, 0, 68, 48
2, 39000, Note_on_c, 0, 68, 0
2, 39000, Note_on_c, 0, 67, 48
2, 39060, Note_on_c, 0, 67, 0
2, 39060, Note_on_c, 0, 65, 48
2, 39120, Note_on_c, 0, 65, 0
2, 39120, Note_on_c, 0, 64, 48
2, 39192, Note_on_c, 0, 64, 0
2, 39360, Note_on_c, 0, 64, 48
2, 39420, Note_on_c, 0, 64, 0
2, 39420, Note_on_c, 0, 65, 48
2, 39480, Note_on_c, 0, 65, 0
2, 39480, Note_on_c, 0, 67, 48
2, 39540, Note_on_c, 0, 67, 0
2, 39540, Note_on_c, 0, 68, 48
2, 39600, Note_on_c, 0, 68, 0
2, 39600, Note_on_c, 0, 72, 48
2, 39660, Note_on_c, 0, 72, 0
2, 39660, Note_on_c, 0, 70, 48
2, 39720, Note_on_c, 0, 70, 0
2, 39720, Note_on_c, 0, 68, 48
2, 39780, Note_on_c, 0, 68, 0
2, 39780, Note_on_c, 0, 67, 48
2, 39840, Note_on_c, 0, 67, 0
2, 39840, Note_on_c, 0, 65, 48
2, 39912, Note_on_c, 0, 65, 0
2, 40080, Note_on_c, 0, 77, 80
2, 40140, Note_on_c, 0, 77, 0
2, 40140, Note_on_c, 0, 76, 80
2, 40200, Note_on_c, 0, 76, 0
2, 40200, Note_on_c, 0, 79, 80
2, 40260, Note_on_c, 0, 79, 0
2, 40260, Note_on_c, 0, 77, 80
2, 40320, Note_on_c, 0, 77, 0
2, 40320, Note_on_c, 0, 80, 80
2, 40356, Note_on_c, 0, 80, 0
2, 40440, Note_on_c, 0, 79, 80
2, 40476, Note_on_c, 0, 79, 0
2, 40560, Note_on_c, 0, 77, 80
2, 40596, Note_on_c, 0, 77, 0
2, 40680, Note_on_c, 0, 75, 80
2, 40716, Note_on_c, 0, 75, 0
2, 40800, Note_on_c, 0, 73, 80
2, 40836, Note_on_c, 0, 73, 0
2, 40920, Note_on_c, 0, 72, 80
2, 40956, Note_on_c, 0, 72, 0
2, 41040, Note_on_c, 0, 72, 80
2, 41280, Note_on_c, 0, 72, 0
2, 41280, Note_on_c, 0, 71, 80
2, 41316, Note_on_c, 0, 71, 0
2, 41400, Note_on_c, 0, 80, 80
2, 41436, Note_on_c, 0, 80, 0
2, 41520, Note_on_c, 0, 79, 80
2, 41556, Note_on_c, 0, 79, 0
2, 41640, Note_on_c, 0, 77, 80
2, 41676, Note_on_c, 0, 77, 0
2, 41760, Note_on_c, 0, 77, 80
2, 42000, Note_on_c, 0, 77, 0
2, 42000, Note_on_c, 0, 75, 77
2, 42036, Note_on_c, 0, 75, 0
2, 42120, Note_on_c, 0, 74, 76
2, 42156, Note_on_c, 0, 74, 0
2, 42240, Note_on_c, 0, 72, 75
2, 42276, Note_on_c, 0, 72, 0
2, 42360, Note_on_c, 0, 70, 73
2, 42396, Note_on_c, 0, 70, 0
2, 42480, Note_on_c, 0, 70, 72
2, 42720, Note_on_c, 0, 70, 0
2, 42720, Note_on_c, 0, 69, 69
2, 42756, Note_on_c, 0, 69, 0
2, 42840, Note_on_c, 0, 79, 68
2, 42876, Note_on_c, 0, 79, 0
2, 42960, Note_on_c, 0, 77, 67
2, 42996, Note_on_c, 0, 77, 0
2, 43080, Note_on_c, 0, 75, 65
2, 43116, Note_on_c, 0, 75, 0
2, 43200, Note_on_c, 0, 75, 64
2, 43440, Note_on_c, 0, 75, 0
2, 43440, Note_on_c, 0, 74, 61
2, 43476, Note_on_c, 0, 74, 0
2, 43560, Note_on_c, 0, 72, 60
2, 43596, Note_on_c, 0, 72, 0
2, 43680, Note_on_c, 0, 70, 59
2, 43716, Note_on_c, 0, 70, 0
2, 43800, Note_on_c, 0, 69, 57
2, 43836, Note_on_c, 0, 69, 0
2, 43920, Note_on_c, 0, 69, 56
2, 44160, Note_on_c, 0, 69, 0
2, 44160, Note_on_c, 0, 67, 53
2, 44196, Note_on_c, 0, 67, 0
2, 44280, Note_on_c, 0, 77, 52
2, 44316, Note_on_c, 0, 77, 0
2, 44400, Note_on_c, 0, 75, 51
2, 44436, Note_on_c, 0, 75, 0
2, 44520, Note_on_c, 0, 74, 49
2, 44556, Note_on_c, 0, 74, 0
2, 44640, Note_on_c, 0, 74, 48
2, 44880, Note_on_c, 0, 74, 0
2, 44880, Note_on_c, 0, 72, 53
2, 44916, Note_on_c, 0, 72, 0
2, 45000, Note_on_c, 0, 70, 56
2, 45036, Note_on_c, 0, 70, 0
2, 45120, Note_on_c, 0, 69, 59
2, 45156, Note_on_c, 0, 69, 0
2, 45240, Note_on_c, 0, 67, 61
2, 45276, Note_on_c, 0, 67, 0
2, 45360, Note_on_c, 0, 67, 64
2, 45600, Note_on_c, 0, 67, 0
2, 45600, Note_on_c, 0, 66, 67
2, 45636, Note_on_c, 0, 66, 0
2, 45720, Note_on_c, 0, 75, 68
2, 45756, Note_on_c, 0, 75, 0
2, 45840, Note_on_c, 0, 74, 69
2, 45876, Note_on_c, 0, 74, 0
2, 45960, Note_on_c, 0, 72, 71
2, 45996, Note_on_c, 0, 72, 0
2, 46080, Note_on_c, 0, 72, 72
2, 46200, Note_on_c, 0, 72, 0
2, 46200, Note_on_c, 0, 70, 73
2, 46236, Note_on_c, 0, 70, 0
2, 46320, Note_on_c, 0, 79, 75
2, 46560, Note_on_c, 0, 79, 0
2, 46680, Note_on_c, 0, 55, 79
2, 46800, Note_on_c, 0, 55, 0
2, 46800, Note_on_c, 0, 54, 80
2, 46860, Note_on_c, 0, 54, 0
2, 46860, Note_on_c, 0, 57, 80
2, 46920, Note_on_c, 0, 57, 0
2, 46920, Note_on_c, 0, 55, 80
2, 46980, Note_on_c, 0, 55, 0
2, 46980, Note_on_c, 0, 58, 80
2, 47040, Note_on_c, 0, 58, 0
2, 47040, Note_on_c, 0, 57, 80
2, 47100, Note_on_c, 0, 57, 0
2, 47100, Note_on_c, 0, 60, 80
2, 47160, Note_on_c, 0, 60, 0
2, 47160, Note_on_c, 0, 58, 80
2, 47220, Note_on_c, 0, 58, 0
2, 47220, Note_on_c, 0, 62, 80
2, 47280, Note_on_c, 0, 62, 0
2, 47280, Note_on_c, 0, 60, 80
2, 47316, Note_on_c, 0, 60, 0
2, 47520, Note_on_c, 0, 55, 80
2, 47580, Note_on_c, 0, 55, 0
2, 47580, Note_on_c, 0, 58, 80
2, 47640, Note_on_c, 0, 58, 0
2, 47640, Note_on_c, 0, 57, 80
2, 47700, Note_on_c, 0, 57, 0
2, 47700, Note_on_c, 0, 60, 80
2, 47760, Note_on_c, 0, 60, 0
2, 47760, Note_on_c, 0, 58, 80
2, 47820, Note_on_c, 0, 58, 0
2, 47820, Note_on_c, 0, 62, 80
2, 47880, Note_on_c, 0, 62, 0
2, 47880, Note_on_c, 0, 60, 80
2, 47940, Note_on_c, 0, 60, 0
2, 47940, Note_on_c, 0, 63, 80
2, 48000, Note_on_c, 0, 63, 0
2, 48000, Note_on_c, 0, 62, 80
2, 48036, Note_on_c, 0, 62, 0
2, 48240, Note_on_c, 0, 54, 80
2, 48300, Note_on_c, 0, 54, 0
2, 48300, Note_on_c, 0, 57, 80
2, 48360, Note_on_c, 0, 57, 0
2, 48360, Note_on_c, 0, 55, 80
2, 48420, Note_on_c, 0, 55, 0
2, 48420, Note_on_c, 0, 58, 80
2, 48480, Note_on_c, 0, 58, 0
2, 48480, Note_on_c, 0, 57, 80
2, 48540, Note_on_c, 0, 57, 0
2, 48540, Note_on_c, 0, 60, 80
2, 48600, Note_on_c, 0, 60, 0
2, 48600, Note_on_c, 0, 58, 80
2, 48660, Note_on_c, 0, 58, 0
2, 48660, Note_on_c, 0, 62, 80
2, 48720, Note_on_c, 0, 62, 0
2, 48720, Note_on_c, 0, 60, 80
2, 48780, Note_on_c, 0, 60, 0
2, 48780, Note_on_c, 0, 63, 80
2, 48840, Note_on_c, 0, 63, 0
2, 48840, Note_on_c, 0, 62, 80
2, 48900, Note_on_c, 0, 62, 0
2, 48900, Note_on_c, 0, 60, 80
2, 48960, Note_on_c, 0, 60, 0
2, 48960, Note_on_c, 0, 58, 80
2, 49020, Note_on_c, 0, 58, 0
2, 49020, Note_on_c, 0, 62, 80
2, 49080, Note_on_c, 0, 62, 0
2, 49080, Note_on_c, 0, 60, 80
2, 49140, Note_on_c, 0, 60, 0
2, 49140, Note_on_c, 0, 63, 80
2, 49200, Note_on_c, 0, 63, 0
2, 49200, Note_on_c, 0, 62, 80
2, 49260, Note_on_c, 0, 62, 0
2, 49260, Note_on_c, 0, 67, 80
2, 49320, Note_on_c, 0, 67, 0
2, 49320, Note_on_c, 0, 66, 80
2, 49380, Note_on_c, 0, 66, 0
2, 49380, Note_on_c, 0, 69, 80
2, 49440, Note_on_c, 0, 69, 0
2, 49440, Note_on_c, 0, 67, 80
2, 49500, Note_on_c, 0, 67, 0
2, 49500, Note_on_c, 0, 70, 80
2, 49560, Note_on_c, 0, 70, 0
2, 49560, Note_on_c, 0, 69, 80
2, 49620, Note_on_c, 0, 69, 0
2, 49620, Note_on_c, 0, 67, 80
2, 49680, Note_on_c, 0, 67, 0
2, 49680, Note_on_c, 0, 66, 64
2, 49740, Note_on_c, 0, 66, 0
2, 49740, Note_on_c, 0, 69, 64
2, 49800, Note_on_c, 0, 69, 0
2, 49800, Note_on_c, 0, 67, 65
2, 49860, Note_on_c, 0, 67, 0
2, 49860, Note_on_c, 0, 70, 65
2, 49920, Note_on_c, 0, 70, 0
2, 49920, Note_on_c, 0, 69, 65
2, 49980, Note_on_c, 0, 69, 0
2, 49980, Note_on_c, 0, 72, 66
2, 50040, Note_on_c, 0, 72, 0
2, 50040, Note_on_c, 0, 70, 66
2, 50100, Note_on_c, 0, 70, 0
2, 50100, Note_on_c, 0, 74, 66
2, 50160, Note_on_c, 0, 74, 0
2, 50160, Note_on_c, 0, 72, 67
2, 50220, Note_on_c, 0, 72, 0
2, 50220, Note_on_c, 0, 75, 67
2, 50280, Note_on_c, 0, 75, 0
2, 50280, Note_on_c, 0, 74, 67
2, 50340, Note_on_c, 0, 74, 0
2, 50340, Note_on_c, 0, 72, 68
2, 50400, Note_on_c, 0, 72, 0
2, 50400, Note_on_c, 0, 70, 68
2, 50460, Note_on_c, 0, 70, 0
2, 50460, Note_on_c, 0, 74, 68
2, 50520, Note_on_c, 0, 74, 0
2, 50520, Note_on_c, 0, 72, 69
2, 50580, Note_on_c, 0, 72, 0
2, 50580, Note_on_c, 0, 75, 69
2, 50640, Note_on_c, 0, 75, 0
2, 50640, Note_on_c, 0, 74, 69
2, 50700, Note_on_c, 0, 74, 0
2, 50700, Note_on_c, 0, 79, 70
2, 50760, Note_on_c, 0, 79, 0
2, 50760, Note_on_c, 0, 78, 70
2, 50820, Note_on_c, 0, 78, 0
2, 50820, Note_on_c, 0, 81, 70
2, 50880, Note_on_c, 0, 81, 0
2, 50880, Note_on_c, 0, 79, 71
2, 50940, Note_on_c, 0, 79, 0
2, 50940, Note_on_c, 0, 82, 71
2, 51000, Note_on_c, 0, 82, 0
2, 51000, Note_on_c, 0, 81, 71
2, 51060, Note_on_c, 0, 81, 0
2, 51060, Note_on_c, 0, 79, 72
2, 51120, Note_on_c, 0, 79, 0
2, 51120, Note_on_c, 0, 78, 72
2, 51180, Note_on_c, 0, 78, 0
2, 51180, Note_on_c, 0, 81, 72
2, 51240, Note_on_c, 0, 81, 0
2, 51240, Note_on_c, 0, 79, 73
2, 51300, Note_on_c, 0, 79, 0
2, 51300, Note_on_c, 0, 82, 73
2, 51360, Note_on_c, 0, 82, 0
2, 51360, Note_on_c, 0, 81, 73
2, 51420, Note_on_c, 0, 81, 0
2, 51420, Note_on_c, 0, 84, 74
2, 51480, Note_on_c, 0, 84, 0
2, 51480, Note_on_c, 0, 82, 74
2, 51540, Note_on_c, 0, 82, 0
2, 51540, Note_on_c, 0, 86, 74
2, 51600, Note_on_c, 0, 86, 0
2, 51600, Note_on_c, 0, 84, 75
2, 51660, Note_on_c, 0, 84, 0
2, 51660, Note_on_c, 0, 87, 75
2, 51720, Note_on_c, 0, 87, 0
2, 51720, Note_on_c, 0, 86, 75
2, 51780, Note_on_c, 0, 86, 0
2, 51780, Note_on_c, 0, 84, 76
2, 51840, Note_on_c, 0, 84, 0
2, 51840, Note_on_c, 0, 82, 76
2, 51900, Note_on_c, 0, 82, 0
2, 51900, Note_on_c, 0, 84, 76
2, 51960, Note_on_c, 0, 84, 0
2, 51960, Note_on_c, 0, 86, 77
2, 52020, Note_on_c, 0, 86, 0
2, 52020, Note_on_c, 0, 84, 77
2, 52080, Note_on_c, 0, 84, 0
2, 52080, Note_on_c, 0, 82, 77
2, 52140, Note_on_c, 0, 82, 0
2, 52140, Note_on_c, 0, 81, 78
2, 52200, Note_on_c, 0, 81, 0
2, 52200, Note_on_c, 0, 79, 78
2, 52260, Note_on_c, 0, 79, 0
2, 52260, Note_on_c, 0, 78, 78
2, 52320, Note_on_c, 0, 78, 0
2, 52320, Note_on_c, 0, 79, 79
2, 52380, Note_on_c, 0, 79, 0
2, 52380, Note_on_c, 0, 77, 79
2, 52440, Note_on_c, 0, 77, 0
2, 52440, Note_on_c, 0, 75, 79
2, 52500, Note_on_c, 0, 75, 0
2, 52500, Note_on_c, 0, 74, 80
2, 52560, Note_on_c, 0, 74, 0
2, 52560, Note_on_c, 0, 77, 80
2, 52620, Note_on_c, 0, 77, 0
2, 52620, Note_on_c, 0, 75, 80
2, 52680, Note_on_c, 0, 75, 0
2, 52680, Note_on_c, 0, 74, 80
2, 52740, Note_on_c, 0, 74, 0
2, 52740, Note_on_c, 0, 72, 80
2, 52800, Note_on_c, 0, 72, 0
2, 52800, Note_on_c, 0, 70, 80
2, 53040, Note_on_c, 0, 70, 0
2, 53040, Note_on_c, 0, 69, 80
2, 53080, Note_on_c, 0, 69, 0
2, 53080, Note_on_c, 0, 70, 80
2, 53120, Note_on_c, 0, 70, 0
2, 53120, Note_on_c, 0, 69, 80
2, 53160, Note_on_c, 0, 69, 0
2, 53160, Note_on_c, 0, 70, 80
2, 53190, Note_on_c, 0, 70, 0
2, 53190, Note_on_c, 0, 69, 80
2, 53220, Note_on_c, 0, 69, 0
2, 53220, Note_on_c, 0, 67, 80
2, 53250, Note_on_c, 0, 67, 0
2, 53250, Note_on_c, 0, 69, 80
2, 53280, Note_on_c, 0, 69, 0
2, 53280, Note_on_c, 0, 67, 80
2, 53520, Note_on_c, 0, 67, 0
2, 53640, Note_on_c, 0, 75, 76
2, 53640, Note_on_c, 0, 79, 76
2, 53760, Note_on_c, 0, 79, 0
2, 53760, Note_on_c, 0, 75, 0
2, 53760, Note_on_c, 0, 74, 75
2, 53760, Note_on_c, 0, 77, 75
2, 53796, Note_on_c, 0, 77, 0
2, 53796, Note_on_c, 0, 74, 0
2, 53880, Note_on_c, 0, 72, 73
2, 53880, Note_on_c, 0, 75, 73
2, 53916, Note_on_c, 0, 75, 0
2, 53916, Note_on_c, 0, 72, 0
2, 54000, Note_on_c, 0, 71, 72
2, 54000, Note_on_c, 0, 74, 72
2, 54240, Note_on_c, 0, 74, 0
2, 54240, Note_on_c, 0, 71, 0
2, 54360, Note_on_c, 0, 72, 68
2, 54360, Note_on_c, 0, 75, 68
2, 54480, Note_on_c, 0, 75, 0
2, 54480, Note_on_c, 0, 72, 0
2, 54480, Note_on_c, 0, 71, 67
2, 54480, Note_on_c, 0, 74, 67
2, 54600, Note_on_c, 0, 74, 0
2, 54600, Note_on_c, 0, 71, 0
2, 54600, Note_on_c, 0, 69, 65
2, 54600, Note_on_c, 0, 72, 65
2, 54720, Note_on_c, 0, 72, 0
2, 54720, Note_on_c, 0, 69, 0
2, 54720, Note_on_c, 0, 67, 64
2, 54720, Note_on_c, 0, 71, 64
2, 54792, Note_on_c, 0, 71, 0
2, 54792, Note_on_c, 0, 67, 0
2, 55080, Note_on_c, 0, 63, 60
2, 55080, Note_on_c, 0, 67, 60
2, 55200, Note_on_c, 0, 67, 0
2, 55200, Note_on_c, 0, 63, 0
2, 55200, Note_on_c, 0, 62, 59
2, 55200, Note_on_c, 0, 65, 59
2, 55236, Note_on_c, 0, 65, 0
2, 55236, Note_on_c, 0, 62, 0
2, 55320, Note_on_c, 0, 60, 57
2, 55320, Note_on_c, 0, 63, 57
2, 55356, Note_on_c, 0, 63, 0
2, 55356, Note_on_c, 0, 60, 0
2, 55440, Note_on_c, 0, 59, 56
2, 55440, Note_on_c, 0, 62, 56
2, 55680, Note_on_c, 0, 62, 0
2, 55680, Note_on_c, 0, 59, 0
2, 55800, Note_on_c, 0, 51, 52
2, 55800, Note_on_c, 0, 55, 52
2, 55920, Note_on_c, 0, 55, 0
2, 55920, Note_on_c, 0, 51, 0
2, 55920, Note_on_c, 0, 50, 51
2, 55920, Note_on_c, 0, 53, 51
2, 56040, Note_on_c, 0, 53, 0
2, 56040, Note_on_c, 0, 50, 0
2, 56040, Note_on_c, 0, 48, 49
2, 56040, Note_on_c, 0, 51, 49
2, 56160, Note_on_c, 0, 51, 0
2, 56160, Note_on_c, 0, 48, 0
2, 56160, Note_on_c, 0, 47, 48
2, 56160, Note_on_c, 0, 50, 48
2, 56232, Note_on_c, 0, 50, 0
2, 56232, Note_on_c, 0, 47, 0
2, 56520, Note_on_c, 0, 71, 64
2, 56640, Note_on_c, 0, 71, 0
2, 56640, Note_on_c, 0, 72, 69
2, 56760, Note_on_c, 0, 72, 0
2, 56760, Note_on_c, 0, 74, 75
2, 56880, Note_on_c, 0, 74, 0
2, 56880, Note_on_c, 0, 77, 80
2, 56940, Note_on_c, 0, 77, 0
2, 56940, Note_on_c, 0, 75, 80
2, 57000, Note_on_c, 0, 75, 0
2, 57000, Note_on_c, 0, 74, 80
2, 57060, Note_on_c, 0, 74, 0
2, 57060, Note_on_c, 0, 72, 80
2, 57120, Note_on_c, 0, 72, 0
2, 57120, Note_on_c, 0, 71, 80
2, 57156, Note_on_c, 0, 71, 0
2, 57240, Note_on_c, 0, 72, 80
2, 57360, Note_on_c, 0, 72, 0
2, 57360, Note_on_c, 0, 73, 80
2, 57480, Note_on_c, 0, 73, 0
2, 57480, Note_on_c, 0, 74, 80
2, 57600, Note_on_c, 0, 74, 0
2, 57600, Note_on_c, 0, 79, 80
2, 57660, Note_on_c, 0, 79, 0
2, 57660, Note_on_c, 0, 77, 80
2, 57720, Note_on_c, 0, 77, 0
2, 57720, Note_on_c, 0, 75, 80
2, 57780, Note_on_c, 0, 75, 0
2, 57780, Note_on_c, 0, 74, 80
2, 57840, Note_on_c, 0, 74, 0
2, 57840, Note_on_c, 0, 72, 80
2, 57876, Note_on_c, 0, 72, 0
2, 57960, Note_on_c, 0, 75, 80
2, 57996, Note_on_c, 0, 75, 0
2, 58080, Note_on_c, 0, 79, 80
2, 58200, Note_on_c, 0, 79, 0
2, 58200, Note_on_c, 0, 84, 80
2, 58320, Note_on_c, 0, 84, 0
2, 58320, Note_on_c, 0, 84, 80
2, 58440, Note_on_c, 0, 84, 0
2, 58440, Note_on_c, 0, 83, 80
2, 58500, Note_on_c, 0, 83, 0
2, 58560, Note_on_c, 0, 83, 80
2, 58680, Note_on_c, 0, 83, 0
2, 58680, Note_on_c, 0, 80, 80
2, 58740, Note_on_c, 0, 80, 0
2, 58800, Note_on_c, 0, 80, 80
2, 58920, Note_on_c, 0, 80, 0
2, 58920, Note_on_c, 0, 79, 80
2, 58980, Note_on_c, 0, 79, 0
2, 59040, Note_on_c, 0, 79, 80
2, 59400, Note_on_c, 0, 79, 0
2, 59400, Note_on_c, 0, 74, 80
2, 59460, Note_on_c, 0, 74, 0
2, 59460, Note_on_c, 0, 75, 80
2, 59520, Note_on_c, 0, 75, 0
2, 59520, Note_on_c, 0, 79, 80
2, 59580, Note_on_c, 0, 79, 0
2, 59580, Note_on_c, 0, 77, 80
2, 59640, Note_on_c, 0, 77, 0
2, 59640, Note_on_c, 0, 75, 80
2, 59700, Note_on_c, 0, 75, 0
2, 59700, Note_on_c, 0, 74, 80
2, 59760, Note_on_c, 0, 74, 0
2, 59760, Note_on_c, 0, 77, 80
2, 59820, Note_on_c, 0, 77, 0
2, 59820, Note_on_c, 0, 75, 80
2, 59880, Note_on_c, 0, 75, 0
2, 59880, Note_on_c, 0, 74, 80
2, 59940, Note_on_c, 0, 74, 0
2, 59940, Note_on_c, 0, 72, 80
2, 60000, Note_on_c, 0, 72, 0
2, 60000, Note_on_c, 0, 71, 80
2, 60180, Note_on_c, 0, 71, 0
2, 60180, Note_on_c, 0, 72, 80
2, 60240, Note_on_c, 0, 72, 0
2, 60240, Note_on_c, 0, 72, 80
2, 60280, Note_on_c, 0, 72, 0
2, 60280, Note_on_c, 0, 74, 80
2, 60320, Note_on_c, 0, 74, 0
2, 60320, Note_on_c, 0, 72, 80
2, 60360, Note_on_c, 0, 72, 0
2, 60360, Note_on_c, 0, 74, 80
2, 60390, Note_on_c, 0, 74, 0
2, 60390, Note_on_c, 0, 72, 80
2, 60420, Note_on_c, 0, 72, 0
2, 60420, Note_on_c, 0, 71, 80
2, 60450, Note_on_c, 0, 71, 0
2, 60450, Note_on_c, 0, 72, 80
2, 60480, Note_on_c, 0, 72, 0
2, 60480, Note_on_c, 0, 72, 80
2, 60720, Note_on_c, 0, 72, 0
2, 60720, Note_on_c, 0, 71, 80
2, 60720, Note_on_c, 0, 74, 80
2, 60960, Note_on_c, 0, 74, 0
2, 60960, Note_on_c, 0, 71, 0
2, 61320, Note_on_c, 0, 72, 80
2, 61440, Note_on_c, 0, 72, 0
2, 61440, Note_on_c, 0, 75, 80
2, 61560, Note_on_c, 0, 75, 0
2, 61560, Note_on_c, 0, 72, 80
2, 61680, Note_on_c, 0, 72, 0
2, 61680, Note_on_c, 0, 68, 80
2, 61800, Note_on_c, 0, 68, 0
2, 61800, Note_on_c, 0, 67, 80
2, 61920, Note_on_c, 0, 67, 0
2, 61920, Note_on_c, 0, 67, 80
2, 62040, Note_on_c, 0, 57, 80
2, 62160, Note_on_c, 0, 57, 0
2, 62160, Note_on_c, 0, 67, 0
2, 62160, Note_on_c, 0, 60, 80
2, 62160, Note_on_c, 0, 66, 80
2, 62280, Note_on_c, 0, 60, 0
2, 62280, Note_on_c, 0, 63, 80
2, 62400, Note_on_c, 0, 63, 0
2, 62400, Note_on_c, 0, 62, 80
2, 62520, Note_on_c, 0, 62, 0
2, 62520, Note_on_c, 0, 60, 80
2, 62640, Note_on_c, 0, 60, 0
2, 62640, Note_on_c, 0, 66, 0
2, 62640, Note_on_c, 0, 60, 80
2, 62760, Note_on_c, 0, 65, 80
2, 62880, Note_on_c, 0, 65, 0
2, 62880, Note_on_c, 0, 60, 0
2, 62880, Note_on_c, 0, 74, 80
2, 62880, Note_on_c, 0, 59, 80
2, 63000, Note_on_c, 0, 74, 0
2, 63000, Note_on_c, 0, 71, 80
2, 63120, Note_on_c, 0, 71, 0
2, 63120, Note_on_c, 0, 67, 80
2, 63240, Note_on_c, 0, 67, 0
2, 63240, Note_on_c, 0, 65, 80
2, 63360, Note_on_c, 0, 65, 0
2, 63360, Note_on_c, 0, 59, 0
2, 63360, Note_on_c, 0, 65, 80
2, 63480, Note_on_c, 0, 55, 80
2, 63600, Note_on_c, 0, 55, 0
2, 63600, Note_on_c, 0, 65, 0
2, 63600, Note_on_c, 0, 60, 80
2, 63600, Note_on_c, 0, 63, 80
2, 63720, Note_on_c, 0, 60, 0
2, 63720, Note_on_c, 0, 58, 80
2, 63840, Note_on_c, 0, 58, 0
2, 63840, Note_on_c, 0, 56, 80
2, 63960, Note_on_c, 0, 56, 0
2, 63960, Note_on_c, 0, 55, 80
2, 64080, Note_on_c, 0, 55, 0
2, 64080, Note_on_c, 0, 56, 80
2, 64200, Note_on_c, 0, 63, 0
2, 64200, Note_on_c, 0, 62, 80
2, 64320, Note_on_c, 0, 62, 0
2, 64320, Note_on_c, 0, 68, 80
2, 64440, Note_on_c, 0, 68, 0
2, 64440, Note_on_c, 0, 65, 80
2, 64560, Note_on_c, 0, 65, 0
2, 64560, Note_on_c, 0, 56, 0
2, 64560, Note_on_c, 0, 62, 80
2, 64680, Note_on_c, 0, 62, 0
2, 64680, Note_on_c, 0, 60, 80
2, 64800, Note_on_c, 0, 60, 0
2, 64800, Note_on_c, 0, 59, 80
2, 64860, Note_on_c, 0, 59, 0
2, 64860, Note_on_c, 0, 62, 80
2, 64920, Note_on_c, 0, 62, 0
2, 64920, Note_on_c, 0, 60, 80
2, 64980, Note_on_c, 0, 60, 0
2, 64980, Note_on_c, 0, 63, 80
2, 65040, Note_on_c, 0, 63, 0
2, 65040, Note_on_c, 0, 62, 80
2, 65100, Note_on_c, 0, 62, 0
2, 65100, Note_on_c, 0, 65, 80
2, 65160, Note_on_c, 0, 65, 0
2, 65160, Note_on_c, 0, 63, 80
2, 65220, Note_on_c, 0, 63, 0
2, 65220, Note_on_c, 0, 67, 80
2, 65280, Note_on_c, 0, 67, 0
2, 65280, Note_on_c, 0, 65, 80
2, 65316, Note_on_c, 0, 65, 0
2, 65520, Note_on_c, 0, 60, 80
2, 65580, Note_on_c, 0, 60, 0
2, 65580, Note_on_c, 0, 63, 80
2, 65640, Note_on_c, 0, 63, 0
2, 65640, Note_on_c, 0, 62, 80
2, 65700, Note_on_c, 0, 62, 0
2, 65700, Note_on_c, 0, 65, 80
2, 65760, Note_on_c, 0, 65, 0
2, 65760, Note_on_c, 0, 63, 80
2, 65820, Note_on_c, 0, 63, 0
2, 65820, Note_on_c, 0, 67, 80
2, 65880, Note_on_c, 0, 67, 0
2, 65880, Note_on_c, 0, 65, 80
2, 65940, Note_on_c, 0, 65, 0
2, 65940, Note_on_c, 0, 68, 80
2, 66000, Note_on_c, 0, 68, 0
2, 66000, Note_on_c, 0, 67, 80
2, 66036, Note_on_c, 0, 67, 0
2, 66240, Note_on_c, 0, 59, 80
2, 66300, Note_on_c, 0, 59, 0
2, 66300, Note_on_c, 0, 62, 80
2, 66360, Note_on_c, 0, 62, 0
2, 66360, Note_on_c, 0, 60, 80
2, 66420, Note_on_c, 0, 60, 0
2, 66420, Note_on_c, 0, 63, 80
2, 66480, Note_on_c, 0, 63, 0
2, 66480, Note_on_c, 0, 62, 80
2, 66540, Note_on_c, 0, 62, 0
2, 66540, Note_on_c, 0, 65, 80
2, 66600, Note_on_c, 0, 65, 0
2, 66600, Note_on_c, 0, 63, 80
2, 66660, Note_on_c, 0, 63, 0
2, 66660, Note_on_c, 0, 67, 80
2, 66720, Note_on_c, 0, 67, 0
2, 66720, Note_on_c, 0, 65, 80
2, 66780, Note_on_c, 0, 65, 0
2, 66780, Note_on_c, 0, 68, 80
2, 66840, Note_on_c, 0, 68, 0
2, 66840, Note_on_c, 0, 67, 80
2, 66900, Note_on_c, 0, 67, 0
2, 66900, Note_on_c, 0, 65, 80
2, 66960, Note_on_c, 0, 65, 0
2, 66960, Note_on_c, 0, 63, 80
2, 67020, Note_on_c, 0, 63, 0
2, 67020, Note_on_c, 0, 67, 80
2, 67080, Note_on_c, 0, 67, 0
2, 67080, Note_on_c, 0, 65, 80
2, 67140, Note_on_c, 0, 65, 0
2, 67140, Note_on_c, 0, 68, 80
2, 67200, Note_on_c, 0, 68, 0
2, 67200, Note_on_c, 0, 67, 80
2, 67260, Note_on_c, 0, 67, 0
2, 67260, Note_on_c, 0, 72, 80
2, 67320, Note_on_c, 0, 72, 0
2, 67320, Note_on_c, 0, 71, 80
2, 67380, Note_on_c, 0, 71, 0
2, 67380, Note_on_c, 0, 74, 80
2, 67440, Note_on_c, 0, 74, 0
2, 67440, Note_on_c, 0, 72, 80
2, 67500, Note_on_c, 0, 72, 0
2, 67500, Note_on_c, 0, 75, 80
2, 67560, Note_on_c, 0, 75, 0
2, 67560, Note_on_c, 0, 74, 80
2, 67620, Note_on_c, 0, 74, 0
2, 67620, Note_on_c, 0, 72, 80
2, 67680, Note_on_c, 0, 72, 0
2, 67680, Note_on_c, 0, 71, 80
2, 67740, Note_on_c, 0, 71, 0
2, 67740, Note_on_c, 0, 74, 80
2, 67800, Note_on_c, 0, 74, 0
2, 67800, Note_on_c, 0, 72, 80
2, 67860, Note_on_c, 0, 72, 0
2, 67860, Note_on_c, 0, 75, 80
2, 67920, Note_on_c, 0, 75, 0
2, 67920, Note_on_c, 0, 74, 80
2, 67980, Note_on_c, 0, 74, 0
2, 67980, Note_on_c, 0, 77, 80
2, 68040, Note_on_c, 0, 77, 0
2, 68040, Note_on_c, 0, 75, 80
2, 68100, Note_on_c, 0, 75, 0
2, 68100, Note_on_c, 0, 79, 80
2, 68160, Note_on_c, 0, 79, 0
2, 68160, Note_on_c, 0, 77, 80
2, 68220, Note_on_c, 0, 77, 0
2, 68220, Note_on_c, 0, 80, 80
2, 68280, Note_on_c, 0, 80, 0
2, 68280, Note_on_c, 0, 79, 80
2, 68340, Note_on_c, 0, 79, 0
2, 68340, Note_on_c, 0, 77, 80
2, 68400, Note_on_c, 0, 77, 0
2, 68400, Note_on_c, 0, 75, 80
2, 68460, Note_on_c, 0, 75, 0
2, 68460, Note_on_c, 0, 79, 80
2, 68520, Note_on_c, 0, 79, 0
2, 68520, Note_on_c, 0, 77, 80
2, 68580, Note_on_c, 0, 77, 0
2, 68580, Note_on_c, 0, 80, 80
2, 68640, Note_on_c, 0, 80, 0
2, 68640, Note_on_c, 0, 79, 80
2, 68700, Note_on_c, 0, 79, 0
2, 68700, Note_on_c, 0, 84, 80
2, 68760, Note_on_c, 0, 84, 0
2, 68760, Note_on_c, 0, 83, 80
2, 68820, Note_on_c, 0, 83, 0
2, 68820, Note_on_c, 0, 86, 80
2, 68880, Note_on_c, 0, 86, 0
2, 68880, Note_on_c, 0, 84, 80
2, 68940, Note_on_c, 0, 84, 0
2, 68940, Note_on_c, 0, 87, 80
2, 69000, Note_on_c, 0, 87, 0
2, 69000, Note_on_c, 0, 86, 80
2, 69060, Note_on_c, 0, 86, 0
2, 69060, Note_on_c, 0, 84, 80
2, 69120, Note_on_c, 0, 84, 0
2, 69120, Note_on_c, 0, 83, 80
2, 69180, Note_on_c, 0, 83, 0
2, 69180, Note_on_c, 0, 84, 80
2, 69240, Note_on_c, 0, 84, 0
2, 69240, Note_on_c, 0, 86, 80
2, 69300, Note_on_c, 0, 86, 0
2, 69300, Note_on_c, 0, 83, 80
2, 69360, Note_on_c, 0, 83, 0
2, 69360, Note_on_c, 0, 79, 80
2, 69480, Note_on_c, 0, 79, 0
2, 69840, Note_on_c, 0, 87, 80
2, 69900, Note_on_c, 0, 87, 0
2, 69900, Note_on_c, 0, 79, 80
2, 69960, Note_on_c, 0, 79, 0
2, 69960, Note_on_c, 0, 77, 80
2, 70020, Note_on_c, 0, 77, 0
2, 70020, Note_on_c, 0, 79, 80
2, 70080, Note_on_c, 0, 79, 0
2, 70080, Note_on_c, 0, 86, 80
2, 70140, Note_on_c, 0, 86, 0
2, 70140, Note_on_c, 0, 79, 80
2, 70200, Note_on_c, 0, 79, 0
2, 70200, Note_on_c, 0, 77, 80
2, 70260, Note_on_c, 0, 77, 0
2, 70260, Note_on_c, 0, 79, 80
2, 70320, Note_on_c, 0, 79, 0
2, 70320, Note_on_c, 0, 84, 80
2, 70380, Note_on_c, 0, 84, 0
2, 70380, Note_on_c, 0, 79, 80
2, 70440, Note_on_c, 0, 79, 0
2, 70440, Note_on_c, 0, 77, 80
2, 70500, Note_on_c, 0, 77, 0
2, 70500, Note_on_c, 0, 79, 80
2, 70560, Note_on_c, 0, 79, 0
2, 70560, Note_on_c, 0, 83, 80
2, 70620, Note_on_c, 0, 83, 0
2, 70620, Note_on_c, 0, 84, 80
2, 70680, Note_on_c, 0, 84, 0
2, 70680, Note_on_c, 0, 86, 80
2, 70740, Note_on_c, 0, 86, 0
2, 70740, Note_on_c, 0, 83, 80
2, 70800, Note_on_c, 0, 83, 0
2, 70800, Note_on_c, 0, 79, 80
2, 70920, Note_on_c, 0, 79, 0
2, 71280, Note_on_c, 0, 87, 48
2, 71340, Note_on_c, 0, 87, 0
2, 71340, Note_on_c, 0, 79, 48
2, 71400, Note_on_c, 0, 79, 0
2, 71400, Note_on_c, 0, 77, 48
2, 71460, Note_on_c, 0, 77, 0
2, 71460, Note_on_c, 0, 79, 48
2, 71520, Note_on_c, 0, 79, 0
2, 71520, Note_on_c, 0, 86, 48
2, 71580, Note_on_c, 0, 86, 0
2, 71580, Note_on_c, 0, 79, 48
2, 71640, Note_on_c, 0, 79, 0
2, 71640, Note_on_c, 0, 77, 48
2, 71700, Note_on_c, 0, 77, 0
2, 71700, Note_on_c, 0, 79, 48
2, 71760, Note_on_c, 0, 79, 0
2, 71760, Note_on_c, 0, 84, 48
2, 71820, Note_on_c, 0, 84, 0
2, 71820, Note_on_c, 0, 79, 48
2, 71880, Note_on_c, 0, 79, 0
2, 71880, Note_on_c, 0, 77, 48
2, 71940, Note_on_c, 0, 77, 0
2, 71940, Note_on_c, 0, 79, 48
2, 72000, Note_on_c, 0, 79, 0
2, 72000, Note_on_c, 0, 83, 48
2, 72060, Note_on_c, 0, 83, 0
2, 72060, Note_on_c, 0, 84, 48
2, 72120, Note_on_c, 0, 84, 0
2, 72120, Note_on_c, 0, 86, 48
2, 72180, Note_on_c, 0, 86, 0
2, 72180, Note_on_c, 0, 83, 48
2, 72240, Note_on_c, 0, 83, 0
2, 72240, Note_on_c, 0, 79, 48
2, 72360, Note_on_c, 0, 79, 0
2, 72720, Note_on_c, 0, 75, 48
2, 72780, Note_on_c, 0, 75, 0
2, 72780, Note_on_c, 0, 77, 48
2, 72840, Note_on_c, 0, 77, 0
2, 72840, Note_on_c, 0, 79, 48
2, 72900, Note_on_c, 0, 79, 0
2, 72900, Note_on_c, 0, 75, 48
2, 72960, Note_on_c, 0, 75, 0
2, 72960, Note_on_c, 0, 72, 48
2, 73080, Note_on_c, 0, 72, 0
2, 73440, Note_on_c, 0, 80, 48
2, 73500, Note_on_c, 0, 80, 0
2, 73500, Note_on_c, 0, 72, 48
2, 73560, Note_on_c, 0, 72, 0
2, 73560, Note_on_c, 0, 71, 48
2, 73620, Note_on_c, 0, 71, 0
2, 73620, Note_on_c, 0, 72, 48
2, 73680, Note_on_c, 0, 72, 0
2, 73680, Note_on_c, 0, 79, 48
2, 73740, Note_on_c, 0, 79, 0
2, 73740, Note_on_c, 0, 72, 48
2, 73800, Note_on_c, 0, 72, 0
2, 73800, Note_on_c, 0, 71, 48
2, 73860, Note_on_c, 0, 71, 0
2, 73860, Note_on_c, 0, 72, 48
2, 73920, Note_on_c, 0, 72, 0
2, 73920, Note_on_c, 0, 77, 48
2, 73980, Note_on_c, 0, 77, 0
2, 73980, Note_on_c, 0, 72, 48
2, 74040, Note_on_c, 0, 72, 0
2, 74040, Note_on_c, 0, 71, 48
2, 74100, Note_on_c, 0, 71, 0
2, 74100, Note_on_c, 0, 72, 48
2, 74160, Note_on_c, 0, 72, 0
2, 74160, Note_on_c, 0, 75, 48
2, 74220, Note_on_c, 0, 75, 0
2, 74220, Note_on_c, 0, 77, 48
2, 74280, Note_on_c, 0, 77, 0
2, 74280, Note_on_c, 0, 79, 48
2, 74340, Note_on_c, 0, 79, 0
2, 74340, Note_on_c, 0, 75, 48
2, 74400, Note_on_c, 0, 75, 0
2, 74400, Note_on_c, 0, 72, 48
2, 74520, Note_on_c, 0, 72, 0
2, 74880, Note_on_c, 0, 80, 40
2, 74940, Note_on_c, 0, 80, 0
2, 74940, Note_on_c, 0, 72, 41
2, 75000, Note_on_c, 0, 72, 0
2, 75000, Note_on_c, 0, 71, 41
2, 75060, Note_on_c, 0, 71, 0
2, 75060, Note_on_c, 0, 72, 42
2, 75120, Note_on_c, 0, 72, 0
2, 75120, Note_on_c, 0, 79, 43
2, 75180, Note_on_c, 0, 79, 0
2, 75180, Note_on_c, 0, 72, 43
2, 75240, Note_on_c, 0, 72, 0
2, 75240, Note_on_c, 0, 71, 44
2, 75300, Note_on_c, 0, 71, 0
2, 75300, Note_on_c, 0, 72, 45
2, 75360, Note_on_c, 0, 72, 0
2, 75360, Note_on_c, 0, 79, 45
2, 75420, Note_on_c, 0, 79, 0
2, 75420, Note_on_c, 0, 72, 46
2, 75480, Note_on_c, 0, 72, 0
2, 75480, Note_on_c, 0, 71, 47
2, 75540, Note_on_c, 0, 71, 0
2, 75540, Note_on_c, 0, 72, 47
2, 75600, Note_on_c, 0, 72, 0
2, 75600, Note_on_c, 0, 77, 48
2, 75660, Note_on_c, 0, 77, 0
2, 75660, Note_on_c, 0, 72, 49
2, 75720, Note_on_c, 0, 72, 0
2, 75720, Note_on_c, 0, 71, 51
2, 75780, Note_on_c, 0, 71, 0
2, 75780, Note_on_c, 0, 72, 52
2, 75840, Note_on_c, 0, 72, 0
2, 75840, Note_on_c, 0, 75, 53
2, 75900, Note_on_c, 0, 75, 0
2, 75900, Note_on_c, 0, 72, 55
2, 75960, Note_on_c, 0, 72, 0
2, 75960, Note_on_c, 0, 71, 56
2, 76020, Note_on_c, 0, 71, 0
2, 76020, Note_on_c, 0, 72, 57
2, 76080, Note_on_c, 0, 72, 0
2, 76080, Note_on_c, 0, 75, 59
2, 76140, Note_on_c, 0, 75, 0
2, 76140, Note_on_c, 0, 72, 60
2, 76200, Note_on_c, 0, 72, 0
2, 76200, Note_on_c, 0, 71, 61
2, 76260, Note_on_c, 0, 71, 0
2, 76260, Note_on_c, 0, 72, 63
2, 76320, Note_on_c, 0, 72, 0
2, 76320, Note_on_c, 0, 80, 64
2, 76380, Note_on_c, 0, 80, 0
2, 76380, Note_on_c, 0, 72, 65
2, 76440, Note_on_c, 0, 72, 0
2, 76440, Note_on_c, 0, 71, 67
2, 76500, Note_on_c, 0, 71, 0
2, 76500, Note_on_c, 0, 72, 68
2, 76560, Note_on_c, 0, 72, 0
2, 76560, Note_on_c, 0, 79, 69
2, 76620, Note_on_c, 0, 79, 0
2, 76620, Note_on_c, 0, 72, 71
2, 76680, Note_on_c, 0, 72, 0
2, 76680, Note_on_c, 0, 71, 72
2, 76740, Note_on_c, 0, 71, 0
2, 76740, Note_on_c, 0, 72, 73
2, 76800, Note_on_c, 0, 72, 0
2, 76800, Note_on_c, 0, 79, 75
2, 76860, Note_on_c, 0, 79, 0
2, 76860, Note_on_c, 0, 72, 76
2, 76920, Note_on_c, 0, 72, 0
2, 76920, Note_on_c, 0, 71, 77
2, 76980, Note_on_c, 0, 71, 0
2, 76980, Note_on_c, 0, 72, 79
2, 77040, Note_on_c, 0, 72, 0
2, 77040, Note_on_c, 0, 78, 80
2, 77100, Note_on_c, 0, 78, 0
2, 77100, Note_on_c, 0, 72, 80
2, 77160, Note_on_c, 0, 72, 0
2, 77160, Note_on_c, 0, 71, 80
2, 77220, Note_on_c, 0, 71, 0
2, 77220, Note_on_c, 0, 72, 80
2, 77280, Note_on_c, 0, 72, 0
2, 77280, Note_on_c, 0, 78, 80
2, 77340, Note_on_c, 0, 78, 0
2, 77340, Note_on_c, 0, 72, 80
2, 77400, Note_on_c, 0, 72, 0
2, 77400, Note_on_c, 0, 71, 80
2, 77460, Note_on_c, 0, 71, 0
2, 77460, Note_on_c, 0, 72, 80
2, 77520, Note_on_c, 0, 72, 0
2, 77520, Note_on_c, 0, 78, 80
2, 77580, Note_on_c, 0, 78, 0
2, 77580, Note_on_c, 0, 72, 80
2, 77640, Note_on_c, 0, 72, 0
2, 77640, Note_on_c, 0, 71, 80
2, 77700, Note_on_c, 0, 71, 0
2, 77700, Note_on_c, 0, 72, 80
2, 77760, Note_on_c, 0, 72, 0
2, 77760, Note_on_c, 0, 77, 80
2, 77820, Note_on_c, 0, 77, 0
2, 77820, Note_on_c, 0, 71, 80
2, 77880, Note_on_c, 0, 71, 0
2, 77880, Note_on_c, 0, 69, 80
2, 77940, Note_on_c, 0, 69, 0
2, 77940, Note_on_c, 0, 71, 80
2, 78000, Note_on_c, 0, 71, 0
2, 78000, Note_on_c, 0, 77, 80
2, 78060, Note_on_c, 0, 77, 0
2, 78060, Note_on_c, 0, 71, 80
2, 78120, Note_on_c, 0, 71, 0
2, 78120, Note_on_c, 0, 69, 80
2, 78180, Note_on_c, 0, 69, 0
2, 78180, Note_on_c, 0, 71, 80
2, 78240, Note_on_c, 0, 71, 0
2, 78240, Note_on_c, 0, 77, 80
2, 78300, Note_on_c, 0, 77, 0
2, 78300, Note_on_c, 0, 71, 80
2, 78360, Note_on_c, 0, 71, 0
2, 78360, Note_on_c, 0, 69, 80
2, 78420, Note_on_c, 0, 69, 0
2, 78420, Note_on_c, 0, 71, 80
2, 78480, Note_on_c, 0, 71, 0
2, 78480, Note_on_c, 0, 76, 80
2, 78540, Note_on_c, 0, 76, 0
2, 78540, Note_on_c, 0, 70, 80
2, 78600, Note_on_c, 0, 70, 0
2, 78600, Note_on_c, 0, 69, 80
2, 78660, Note_on_c, 0, 69, 0
2, 78660, Note_on_c, 0, 70, 80
2, 78720, Note_on_c, 0, 70, 0
2, 78720, Note_on_c, 0, 76, 80
2, 78780, Note_on_c, 0, 76, 0
2, 78780, Note_on_c, 0, 70, 80
2, 78840, Note_on_c, 0, 70, 0
2, 78840, Note_on_c, 0, 69, 80
2, 78900, Note_on_c, 0, 69, 0
2, 78900, Note_on_c, 0, 70, 80
2, 78960, Note_on_c, 0, 70, 0
2, 78960, Note_on_c, 0, 76, 80
2, 79020, Note_on_c, 0, 76, 0
2, 79020, Note_on_c, 0, 70, 80
2, 79080, Note_on_c, 0, 70, 0
2, 79080, Note_on_c, 0, 69, 80
2, 79140, Note_on_c, 0, 69, 0
2, 79140, Note_on_c, 0, 70, 80
2, 79200, Note_on_c, 0, 70, 0
2, 79200, Note_on_c, 0, 75, 80
2, 79260, Note_on_c, 0, 75, 0
2, 79260, Note_on_c, 0, 69, 80
2, 79320, Note_on_c, 0, 69, 0
2, 79320, Note_on_c, 0, 67, 80
2, 79380, Note_on_c, 0, 67, 0
2, 79380, Note_on_c, 0, 69, 80
2, 79440, Note_on_c, 0, 69, 0
2, 79440, Note_on_c, 0, 75, 80
2, 79500, Note_on_c, 0, 75, 0
2, 79500, Note_on_c, 0, 69, 80
2, 79560, Note_on_c, 0, 69, 0
2, 79560, Note_on_c, 0, 67, 80
2, 79620, Note_on_c, 0, 67, 0
2, 79620, Note_on_c, 0, 69, 80
2, 79680, Note_on_c, 0, 69, 0
2, 79680, Note_on_c, 0, 75, 80
2, 79740, Note_on_c, 0, 75, 0
2, 79740, Note_on_c, 0, 69, 80
2, 79800, Note_on_c, 0, 69, 0
2, 79800, Note_on_c, 0, 67, 80
2, 79860, Note_on_c, 0, 67, 0
2, 79860, Note_on_c, 0, 69, 80
2, 79920, Note_on_c, 0, 69, 0
2, 79920, Note_on_c, 0, 74, 80
2, 79980, Note_on_c, 0, 74, 0
2, 79980, Note_on_c, 0, 68, 80
2, 80040, Note_on_c, 0, 68, 0
2, 80040, Note_on_c, 0, 67, 80
2, 80100, Note_on_c, 0, 67, 0
2, 80100, Note_on_c, 0, 68, 80
2, 80160, Note_on_c, 0, 68, 0
2, 80160, Note_on_c, 0, 74, 80
2, 80220, Note_on_c, 0, 74, 0
2, 80220, Note_on_c, 0, 68, 80
2, 80280, Note_on_c, 0, 68, 0
2, 80280, Note_on_c, 0, 67, 80
2, 80340, Note_on_c, 0, 67, 0
2, 80340, Note_on_c, 0, 68, 80
2, 80400, Note_on_c, 0, 68, 0
2, 80400, Note_on_c, 0, 74, 80
2, 80460, Note_on_c, 0, 74, 0
2, 80460, Note_on_c, 0, 68, 80
2, 80520, Note_on_c, 0, 68, 0
2, 80520, Note_on_c, 0, 67, 80
2, 80580, Note_on_c, 0, 67, 0
2, 80580, Note_on_c, 0, 68, 80
2, 80640, Note_on_c, 0, 68, 0
2, 80640, Note_on_c, 0, 74, 80
2, 80700, Note_on_c, 0, 74, 0
2, 80700, Note_on_c, 0, 67, 80
2, 80760, Note_on_c, 0, 67, 0
2, 80760, Note_on_c, 0, 66, 80
2, 80820, Note_on_c, 0, 66, 0
2, 80820, Note_on_c, 0, 67, 80
2, 80880, Note_on_c, 0, 67, 0
2, 80880, Note_on_c, 0, 74, 80
2, 80940, Note_on_c, 0, 74, 0
2, 80940, Note_on_c, 0, 67, 80
2, 81000, Note_on_c, 0, 67, 0
2, 81000, Note_on_c, 0, 66, 80
2, 81060, Note_on_c, 0, 66, 0
2, 81060, Note_on_c, 0, 67, 80
2, 81120, Note_on_c, 0, 67, 0
2, 81120, Note_on_c, 0, 74, 80
2, 81180, Note_on_c, 0, 74, 0
2, 81180, Note_on_c, 0, 67, 80
2, 81240, Note_on_c, 0, 67, 0
2, 81240, Note_on_c, 0, 66, 80
2, 81300, Note_on_c, 0, 66, 0
2, 81300, Note_on_c, 0, 67, 80
2, 81360, Note_on_c, 0, 67, 0
2, 81360, Note_on_c, 0, 72, 80
2, 81420, Note_on_c, 0, 72, 0
2, 81420, Note_on_c, 0, 67, 80
2, 81480, Note_on_c, 0, 67, 0
2, 81480, Note_on_c, 0, 66, 80
2, 81540, Note_on_c, 0, 66, 0
2, 81540, Note_on_c, 0, 67, 80
2, 81600, Note_on_c, 0, 67, 0
2, 81600, Note_on_c, 0, 72, 80
2, 81660, Note_on_c, 0, 72, 0
2, 81660, Note_on_c, 0, 67, 80
2, 81720, Note_on_c, 0, 67, 0
2, 81720, Note_on_c, 0, 66, 80
2, 81780, Note_on_c, 0, 66, 0
2, 81780, Note_on_c, 0, 67, 80
2, 81840, Note_on_c, 0, 67, 0
2, 81840, Note_on_c, 0, 72, 80
2, 81900, Note_on_c, 0, 72, 0
2, 81900, Note_on_c, 0, 67, 80
2, 81960, Note_on_c, 0, 67, 0
2, 81960, Note_on_c, 0, 66, 80
2, 82020, Note_on_c, 0, 66, 0
2, 82020, Note_on_c, 0, 67, 80
2, 82080, Note_on_c, 0, 67, 0
2, 82080, Note_on_c, 0, 72, 80
2, 82140, Note_on_c, 0, 72, 0
2, 82140, Note_on_c, 0, 65, 80
2, 82200, Note_on_c, 0, 65, 0
2, 82200, Note_on_c, 0, 64, 80
2, 82260, Note_on_c, 0, 64, 0
2, 82260, Note_on_c, 0, 65, 80
2, 82320, Note_on_c, 0, 65, 0
2, 82320, Note_on_c, 0, 72, 80
2, 82380, Note_on_c, 0, 72, 0
2, 82380, Note_on_c, 0, 65, 80
2, 82440, Note_on_c, 0, 65, 0
2, 82440, Note_on_c, 0, 64, 80
2, 82500, Note_on_c, 0, 64, 0
2, 82500, Note_on_c, 0, 65, 80
2, 82560, Note_on_c, 0, 65, 0
2, 82560, Note_on_c, 0, 72, 80
2, 82620, Note_on_c, 0, 72, 0
2, 82620, Note_on_c, 0, 65, 80
2, 82680, Note_on_c, 0, 65, 0
2, 82680, Note_on_c, 0, 64, 80
2, 82740, Note_on_c, 0, 64, 0
2, 82740, Note_on_c, 0, 65, 80
2, 82800, Note_on_c, 0, 65, 0
2, 82800, Note_on_c, 0, 71, 80
2, 82860, Note_on_c, 0, 71, 0
2, 82860, Note_on_c, 0, 65, 80
2, 82920, Note_on_c, 0, 65, 0
2, 82920, Note_on_c, 0, 64, 80
2, 82980, Note_on_c, 0, 64, 0
2, 82980, Note_on_c, 0, 65, 80
2, 83040, Note_on_c, 0, 65, 0
2, 83040, Note_on_c, 0, 71, 80
2, 83100, Note_on_c, 0, 71, 0
2, 83100, Note_on_c, 0, 65, 80
2, 83160, Note_on_c, 0, 65, 0
2, 83160, Note_on_c, 0, 64, 80
2, 83220, Note_on_c, 0, 64, 0
2, 83220, Note_on_c, 0, 65, 80
2, 83280, Note_on_c, 0, 65, 0
2, 83280, Note_on_c, 0, 71, 80
2, 83340, Note_on_c, 0, 71, 0
2, 83340, Note_on_c, 0, 65, 80
2, 83400, Note_on_c, 0, 65, 0
2, 83400, Note_on_c, 0, 64, 80
2, 83460, Note_on_c, 0, 64, 0
2, 83460, Note_on_c, 0, 65, 80
2, 83520, Note_on_c, 0, 65, 0
2, 83520, Note_on_c, 0, 72, 80
2, 83580, Note_on_c, 0, 72, 0
2, 83580, Note_on_c, 0, 63, 80
2, 83640, Note_on_c, 0, 63, 0
2, 83640, Note_on_c, 0, 62, 80
2, 83700, Note_on_c, 0, 62, 0
2, 83700, Note_on_c, 0, 63, 80
2, 83760, Note_on_c, 0, 63, 0
2, 83760, Note_on_c, 0, 72, 80
2, 83820, Note_on_c, 0, 72, 0
2, 83820, Note_on_c, 0, 63, 80
2, 83880, Note_on_c, 0, 63, 0
2, 83880, Note_on_c, 0, 62, 80
2, 83940, Note_on_c, 0, 62, 0
2, 83940, Note_on_c, 0, 63, 80
2, 84000, Note_on_c, 0, 63, 0
2, 84000, Note_on_c, 0, 72, 80
2, 84060, Note_on_c, 0, 72, 0
2, 84060, Note_on_c, 0, 63, 80
2, 84120, Note_on_c, 0, 63, 0
2, 84120, Note_on_c, 0, 62, 80
2, 84180, Note_on_c, 0, 62, 0
2, 84180, Note_on_c, 0, 63, 80
2, 84240, Note_on_c, 0, 63, 0
2, 84240, Note_on_c, 0, 72, 80
2, 84300, Note_on_c, 0, 72, 0
2, 84300, Note_on_c, 0, 66, 80
2, 84360, Note_on_c, 0, 66, 0
2, 84360, Note_on_c, 0, 60, 48
2, 84420, Note_on_c, 0, 60, 0
2, 84420, Note_on_c, 0, 66, 48
2, 84480, Note_on_c, 0, 66, 0
2, 84480, Note_on_c, 0, 72, 48
2, 84540, Note_on_c, 0, 72, 0
2, 84540, Note_on_c, 0, 66, 48
2, 84600, Note_on_c, 0, 66, 0
2, 84600, Note_on_c, 0, 60, 48
2, 84660, Note_on_c, 0, 60, 0
2, 84660, Note_on_c, 0, 66, 48
2, 84720, Note_on_c, 0, 66, 0
2, 84720, Note_on_c, 0, 72, 48
2, 84780, Note_on_c, 0, 72, 0
2, 84780, Note_on_c, 0, 66, 48
2, 84840, Note_on_c, 0, 66, 0
2, 84840, Note_on_c, 0, 60, 48
2, 84900, Note_on_c, 0, 60, 0
2, 84900, Note_on_c, 0, 66, 48
2, 84960, Note_on_c, 0, 66, 0
2, 84960, Note_on_c, 0, 72, 48
2, 85020, Note_on_c, 0, 72, 0
2, 85020, Note_on_c, 0, 66, 51
2, 85080, Note_on_c, 0, 66, 0
2, 85080, Note_on_c, 0, 60, 53
2, 85140, Note_on_c, 0, 60, 0
2, 85140, Note_on_c, 0, 66, 56
2, 85200, Note_on_c, 0, 66, 0
2, 85200, Note_on_c, 0, 72, 59
2, 85260, Note_on_c, 0, 72, 0
2, 85260, Note_on_c, 0, 66, 61
2, 85320, Note_on_c, 0, 66, 0
2, 85320, Note_on_c, 0, 60, 64
2, 85380, Note_on_c, 0, 60, 0
2, 85380, Note_on_c, 0, 66, 67
2, 85440, Note_on_c, 0, 66, 0
2, 85440, Note_on_c, 0, 72, 69
2, 85500, Note_on_c, 0, 72, 0
2, 85500, Note_on_c, 0, 66, 72
2, 85560, Note_on_c, 0, 66, 0
2, 85560, Note_on_c, 0, 60, 75
2, 85620, Note_on_c, 0, 60, 0
2, 85620, Note_on_c, 0, 66, 77
2, 85680, Note_on_c, 0, 66, 0
2, 85680, Note_on_c, 0, 67, 80
2, 85740, Note_on_c, 0, 67, 0
2, 85740, Note_on_c, 0, 71, 80
2, 85800, Note_on_c, 0, 71, 0
2, 85800, Note_on_c, 0, 67, 80
2, 85860, Note_on_c, 0, 67, 0
2, 85860, Note_on_c, 0, 62, 80
2, 85920, Note_on_c, 0, 62, 0
2, 85920, Note_on_c, 0, 59, 80
2, 85980, Note_on_c, 0, 59, 0
2, 86880, Note_on_c, 0, 60, 48
2, 86952, Note_on_c, 0, 60, 0
2, 87120, Note_on_c, 0, 65, 48
2, 87180, Note_on_c, 0, 65, 0
2, 87180, Note_on_c, 0, 63, 48
2, 87240, Note_on_c, 0, 63, 0
2, 87240, Note_on_c, 0, 62, 48
2, 87300, Note_on_c, 0, 62, 0
2, 87300, Note_on_c, 0, 60, 48
2, 87360, Note_on_c, 0, 60, 0
2, 87360, Note_on_c, 0, 59, 48
2, 87432, Note_on_c, 0, 59, 0
2, 87600, Note_on_c, 0, 62, 48
2, 87672, Note_on_c, 0, 62, 0
2, 87840, Note_on_c, 0, 67, 48
2, 87900, Note_on_c, 0, 67, 0
2, 87900, Note_on_c, 0, 65, 48
2, 87960, Note_on_c, 0, 65, 0
2, 87960, Note_on_c, 0, 63, 48
2, 88020, Note_on_c, 0, 63, 0
2, 88020, Note_on_c, 0, 62, 48
2, 88080, Note_on_c, 0, 62, 0
2, 88080, Note_on_c, 0, 60, 48
2, 88152, Note_on_c, 0, 60, 0
2, 88320, Note_on_c, 0, 72, 52
2, 88380, Note_on_c, 0, 72, 0
2, 88380, Note_on_c, 0, 73, 59
2, 88440, Note_on_c, 0, 73, 0
2, 88440, Note_on_c, 0, 74, 66
2, 88500, Note_on_c, 0, 74, 0
2, 88500, Note_on_c, 0, 75, 73
2, 88560, Note_on_c, 0, 75, 0
2, 88560, Note_on_c, 0, 72, 80
2, 88800, Note_on_c, 0, 72, 0
2, 88800, Note_on_c, 0, 71, 64
2, 88968, Note_on_c, 0, 71, 0
2, 89040, Note_on_c, 0, 74, 48
2, 89100, Note_on_c, 0, 74, 0
2, 89100, Note_on_c, 0, 75, 48
2, 89160, Note_on_c, 0, 75, 0
2, 89160, Note_on_c, 0, 76, 48
2, 89220, Note_on_c, 0, 76, 0
2, 89220, Note_on_c, 0, 77, 48
2, 89280, Note_on_c, 0, 77, 0
2, 89280, Note_on_c, 0, 74, 80
2, 89520, Note_on_c, 0, 74, 0
2, 89520, Note_on_c, 0, 72, 64
2, 89688, Note_on_c, 0, 72, 0
2, 89760, Note_on_c, 0, 79, 80
2, 89880, Note_on_c, 0, 79, 0
2, 89880, Note_on_c, 0, 84, 80
2, 90120, Note_on_c, 0, 84, 0
2, 90120, Note_on_c, 0, 82, 77
2, 90360, Note_on_c, 0, 82, 0
2, 90360, Note_on_c, 0, 80, 72
2, 90600, Note_on_c, 0, 80, 0
2, 90600, Note_on_c, 0, 79, 67
2, 90840, Note_on_c, 0, 79, 0
2, 90840, Note_on_c, 0, 77, 61
2, 91080, Note_on_c, 0, 77, 0
2, 91080, Note_on_c, 0, 75, 56
2, 91320, Note_on_c, 0, 75, 0
2, 91320, Note_on_c, 0, 74, 51
2, 91560, Note_on_c, 0, 74, 0
2, 91560, Note_on_c, 0, 72, 51
2, 91800, Note_on_c, 0, 72, 0
2, 91800, Note_on_c, 0, 71, 56
2, 92040, Note_on_c, 0, 71, 0
2, 92040, Note_on_c, 0, 68, 61
2, 92280, Note_on_c, 0, 68, 0
2, 92280, Note_on_c, 0, 67, 67
2, 92520, Note_on_c, 0, 67, 0
2, 92520, Note_on_c, 0, 65, 72
2, 92640, Note_on_c, 0, 65, 0
2, 92640, Note_on_c, 0, 63, 75
2, 92676, Note_on_c, 0, 63, 0
2, 92760, Note_on_c, 0, 62, 77
2, 92796, Note_on_c, 0, 62, 0
2, 92880, Note_on_c, 0, 60, 80
2, 92940, Note_on_c, 0, 60, 0
2, 92940, Note_on_c, 0, 59, 80
2, 93000, Note_on_c, 0, 59, 0
2, 93000, Note_on_c, 0, 60, 80
2, 93060, Note_on_c, 0, 60, 0
2, 93060, Note_on_c, 0, 65, 80
2, 93120, Note_on_c, 0, 65, 0
2, 93120, Note_on_c, 0, 60, 80
2, 93180, Note_on_c, 0, 60, 0
2, 93180, Note_on_c, 0, 59, 80
2, 93240, Note_on_c, 0, 59, 0
2, 93240, Note_on_c, 0, 60, 80
2, 93300, Note_on_c, 0, 60, 0
2, 93300, Note_on_c, 0, 63, 80
2, 93360, Note_on_c, 0, 63, 0
2, 93360, Note_on_c, 0, 60, 80
2, 93420, Note_on_c, 0, 60, 0
2, 93420, Note_on_c, 0, 59, 80
2, 93480, Note_on_c, 0, 59, 0
2, 93480, Note_on_c, 0, 60, 80
2, 93540, Note_on_c, 0, 60, 0
2, 93540, Note_on_c, 0, 68, 80
2, 93600, Note_on_c, 0, 68, 0
2, 93600, Note_on_c, 0, 60, 80
2, 93660, Note_on_c, 0, 60, 0
2, 93660, Note_on_c, 0, 59, 80
2, 93720, Note_on_c, 0, 59, 0
2, 93720, Note_on_c, 0, 60, 80
2, 93780, Note_on_c, 0, 60, 0
2, 93780, Note_on_c, 0, 67, 80
2, 93840, Note_on_c, 0, 67, 0
2, 93840, Note_on_c, 0, 60, 80
2, 93900, Note_on_c, 0, 60, 0
2, 93900, Note_on_c, 0, 59, 80
2, 93960, Note_on_c, 0, 59, 0
2, 93960, Note_on_c, 0, 60, 80
2, 94020, Note_on_c, 0, 60, 0
2, 94020, Note_on_c, 0, 65, 80
2, 94080, Note_on_c, 0, 65, 0
2, 94080, Note_on_c, 0, 60, 80
2, 94140, Note_on_c, 0, 60, 0
2, 94140, Note_on_c, 0, 59, 80
2, 94200, Note_on_c, 0, 59, 0
2, 94200, Note_on_c, 0, 60, 80
2, 94260, Note_on_c, 0, 60, 0
2, 94260, Note_on_c, 0, 63, 80
2, 94320, Note_on_c, 0, 63, 0
2, 94320, Note_on_c, 0, 60, 48
2, 94380, Note_on_c, 0, 60, 0
2, 94380, Note_on_c, 0, 59, 48
2, 94440, Note_on_c, 0, 59, 0
2, 94440, Note_on_c, 0, 60, 48
2, 94500, Note_on_c, 0, 60, 0
2, 94500, Note_on_c, 0, 65, 48
2, 94560, Note_on_c, 0, 65, 0
2, 94560, Note_on_c, 0, 60, 48
2, 94620, Note_on_c, 0, 60, 0
2, 94620, Note_on_c, 0, 59, 48
2, 94680, Note_on_c, 0, 59, 0
2, 94680, Note_on_c, 0, 60, 48
2, 94740, Note_on_c, 0, 60, 0
2, 94740, Note_on_c, 0, 63, 48
2, 94800, Note_on_c, 0, 63, 0
2, 94800, Note_on_c, 0, 60, 48
2, 94860, Note_on_c, 0, 60, 0
2, 94860, Note_on_c, 0, 59, 48
2, 94920, Note_on_c, 0, 59, 0
2, 94920, Note_on_c, 0, 60, 48
2, 94980, Note_on_c, 0, 60, 0
2, 94980, Note_on_c, 0, 68, 48
2, 95040, Note_on_c, 0, 68, 0
2, 95040, Note_on_c, 0, 60, 48
2, 95100, Note_on_c, 0, 60, 0
2, 95100, Note_on_c, 0, 59, 48
2, 95160, Note_on_c, 0, 59, 0
2, 95160, Note_on_c, 0, 60, 48
2, 95220, Note_on_c, 0, 60, 0
2, 95220, Note_on_c, 0, 67, 48
2, 95280, Note_on_c, 0, 67, 0
2, 95280, Note_on_c, 0, 60, 48
2, 95340, Note_on_c, 0, 60, 0
2, 95340, Note_on_c, 0, 59, 48
2, 95400, Note_on_c, 0, 59, 0
2, 95400, Note_on_c, 0, 60, 48
2, 95460, Note_on_c, 0, 60, 0
2, 95460, Note_on_c, 0, 65, 48
2, 95520, Note_on_c, 0, 65, 0
2, 95520, Note_on_c, 0, 60, 48
2, 95580, Note_on_c, 0, 60, 0
2, 95580, Note_on_c, 0, 59, 48
2, 95640, Note_on_c, 0, 59, 0
2, 95640, Note_on_c, 0, 60, 48
2, 95700, Note_on_c, 0, 60, 0
2, 95700, Note_on_c, 0, 63, 48
2, 95760, Note_on_c, 0, 63, 0
2, 95760, Note_on_c, 0, 60, 80
2, 95820, Note_on_c, 0, 60, 0
2, 95820, Note_on_c, 0, 59, 80
2, 95880, Note_on_c, 0, 59, 0
2, 95880, Note_on_c, 0, 60, 80
2, 95940, Note_on_c, 0, 60, 0
2, 95940, Note_on_c, 0, 63, 80
2, 96000, Note_on_c, 0, 63, 0
2, 96000, Note_on_c, 0, 60, 80
2, 96060, Note_on_c, 0, 60, 0
2, 96060, Note_on_c, 0, 59, 80
2, 96120, Note_on_c, 0, 59, 0
2, 96120, Note_on_c, 0, 60, 80
2, 96180, Note_on_c, 0, 60, 0
2, 96180, Note_on_c, 0, 63, 80
2, 96240, Note_on_c, 0, 63, 0
2, 96240, Note_on_c, 0, 60, 80
2, 96300, Note_on_c, 0, 60, 0
2, 96300, Note_on_c, 0, 59, 80
2, 96360, Note_on_c, 0, 59, 0
2, 96360, Note_on_c, 0, 60, 80
2, 96420, Note_on_c, 0, 60, 0
2, 96420, Note_on_c, 0, 63, 80
2, 96480, Note_on_c, 0, 63, 0
2, 96480, Note_on_c, 0, 59, 80
2, 96540, Note_on_c, 0, 59, 0
2, 96540, Note_on_c, 0, 62, 80
2, 96600, Note_on_c, 0, 62, 0
2, 96600, Note_on_c, 0, 65, 80
2, 96660, Note_on_c, 0, 65, 0
2, 96660, Note_on_c, 0, 68, 80
2, 96720, Note_on_c, 0, 68, 0
2, 96720, Note_on_c, 0, 67, 80
2, 96780, Note_on_c, 0, 67, 0
2, 96780, Note_on_c, 0, 65, 80
2, 96840, Note_on_c, 0, 65, 0
2, 96840, Note_on_c, 0, 63, 80
2, 96900, Note_on_c, 0, 63, 0
2, 96900, Note_on_c, 0, 62, 80
2, 96960, Note_on_c, 0, 62, 0
2, 96960, Note_on_c, 0, 60, 80
2, 97020, Note_on_c, 0, 60, 0
2, 97020, Note_on_c, 0, 59, 80
2, 97080, Note_on_c, 0, 59, 0
2, 97080, Note_on_c, 0, 57, 80
2, 97140, Note_on_c, 0, 57, 0
2, 97140, Note_on_c, 0, 55, 80
2, 97200, Note_on_c, 0, 55, 0
2, 97320, Note_on_c, 0, 60, 80
2, 97356, Note_on_c, 0, 60, 0
2, 97440, Note_on_c, 0, 63, 80
2, 97476, Note_on_c, 0, 63, 0
2, 97560, Note_on_c, 0, 67, 80
2, 97596, Note_on_c, 0, 67, 0
2, 97680, Note_on_c, 0, 72, 80
2, 97716, Note_on_c, 0, 72, 0
2, 97800, Note_on_c, 0, 79, 48
2, 97800, Note_on_c, 0, 75, 48
2, 98040, Note_on_c, 0, 75, 0
2, 98040, Note_on_c, 0, 79, 0
2, 98040, Note_on_c, 0, 74, 48
2, 98040, Note_on_c, 0, 77, 48
2, 98280, Note_on_c, 0, 77, 0
2, 98280, Note_on_c, 0, 74, 0
2, 98280, Note_on_c, 0, 72, 48
2, 98280, Note_on_c, 0, 75, 48
2, 98520, Note_on_c, 0, 75, 0
2, 98520, Note_on_c, 0, 72, 0
2, 98520, Note_on_c, 0, 71, 48
2, 98520, Note_on_c, 0, 74, 48
2, 98556, Note_on_c, 0, 74, 0
2, 98556, Note_on_c, 0, 71, 0
2, 98640, Note_on_c, 0, 72, 80
2, 98700, Note_on_c, 0, 72, 0
2, 98700, Note_on_c, 0, 65, 80
2, 98760, Note_on_c, 0, 65, 0
2, 98760, Note_on_c, 0, 64, 80
2, 98820, Note_on_c, 0, 64, 0
2, 98820, Note_on_c, 0, 65, 80
2, 98880, Note_on_c, 0, 65, 0
2, 98880, Note_on_c, 0, 70, 80
2, 98940, Note_on_c, 0, 70, 0
2, 98940, Note_on_c, 0, 63, 80
2, 99000, Note_on_c, 0, 63, 0
2, 99000, Note_on_c, 0, 62, 80
2, 99060, Note_on_c, 0, 62, 0
2, 99060, Note_on_c, 0, 63, 80
2, 99120, Note_on_c, 0, 63, 0
2, 99120, Note_on_c, 0, 68, 80
2, 99180, Note_on_c, 0, 68, 0
2, 99180, Note_on_c, 0, 62, 80
2, 99240, Note_on_c, 0, 62, 0
2, 99240, Note_on_c, 0, 61, 80
2, 99300, Note_on_c, 0, 61, 0
2, 99300, Note_on_c, 0, 62, 80
2, 99360, Note_on_c, 0, 62, 0
2, 99360, Note_on_c, 0, 67, 80
2, 99420, Note_on_c, 0, 67, 0
2, 99420, Note_on_c, 0, 60, 80
2, 99480, Note_on_c, 0, 60, 0
2, 99480, Note_on_c, 0, 59, 80
2, 99540, Note_on_c, 0, 59, 0
2, 99540, Note_on_c, 0, 60, 80
2, 99600, Note_on_c, 0, 60, 0
2, 99600, Note_on_c, 0, 65, 80
2, 99660, Note_on_c, 0, 65, 0
2, 99660, Note_on_c, 0, 59, 80
2, 99720, Note_on_c, 0, 59, 0
2, 99720, Note_on_c, 0, 57, 80
2, 99780, Note_on_c, 0, 57, 0
2, 99780, Note_on_c, 0, 59, 80
2, 99840, Note_on_c, 0, 59, 0
2, 99840, Note_on_c, 0, 63, 80
2, 99900, Note_on_c, 0, 63, 0
2, 99900, Note_on_c, 0, 60, 80
2, 99960, Note_on_c, 0, 60, 0
2, 99960, Note_on_c, 0, 59, 80
2, 100020, Note_on_c, 0, 59, 0
2, 100020, Note_on_c, 0, 60, 80
2, 100080, Note_on_c, 0, 60, 0
2, 100200, Note_on_c, 0, 61, 80
2, 100320, Note_on_c, 0, 61, 0
2, 100320, Note_on_c, 0, 56, 80
2, 100440, Note_on_c, 0, 56, 0
2, 100440, Note_on_c, 0, 65, 80
2, 100476, Note_on_c, 0, 65, 0
2, 100560, Note_on_c, 0, 61, 80
2, 100596, Note_on_c, 0, 61, 0
2, 100680, Note_on_c, 0, 68, 80
2, 100716, Note_on_c, 0, 68, 0
2, 100800, Note_on_c, 0, 65, 80
2, 100920, Note_on_c, 0, 65, 0
2, 100920, Note_on_c, 0, 73, 80
2, 101040, Note_on_c, 0, 73, 0
2, 101040, Note_on_c, 0, 68, 80
2, 101160, Note_on_c, 0, 68, 0
2, 101160, Note_on_c, 0, 77, 80
2, 101196, Note_on_c, 0, 77, 0
2, 101280, Note_on_c, 0, 75, 80
2, 101316, Note_on_c, 0, 75, 0
2, 101400, Note_on_c, 0, 73, 80
2, 101436, Note_on_c, 0, 73, 0
2, 101520, Note_on_c, 0, 72, 80
2, 101640, Note_on_c, 0, 72, 0
2, 101640, Note_on_c, 0, 73, 80
2, 101760, Note_on_c, 0, 73, 0
2, 101760, Note_on_c, 0, 68, 80
2, 101880, Note_on_c, 0, 68, 0
2, 101880, Note_on_c, 0, 66, 80
2, 101916, Note_on_c, 0, 66, 0
2, 102000, Note_on_c, 0, 65, 80
2, 102036, Note_on_c, 0, 65, 0
2, 102120, Note_on_c, 0, 63, 80
2, 102156, Note_on_c, 0, 63, 0
2, 102240, Note_on_c, 0, 61, 80
2, 102360, Note_on_c, 0, 61, 0
2, 102360, Note_on_c, 0, 60, 75
2, 102480, Note_on_c, 0, 60, 0
2, 102480, Note_on_c, 0, 61, 69
2, 102600, Note_on_c, 0, 61, 0
2, 102600, Note_on_c, 0, 65, 64
2, 102720, Note_on_c, 0, 65, 0
2, 102720, Note_on_c, 0, 63, 59
2, 102840, Note_on_c, 0, 63, 0
2, 102840, Note_on_c, 0, 61, 53
2, 102960, Note_on_c, 0, 61, 0
2, 102960, Note_on_c, 0, 60, 48
2, 103440, Note_on_c, 0, 60, 0
2, 103440, Note_on_c, 0, 59, 48
2, 103680, Note_on_c, 0, 59, 0
2, 103680, Note_on_c, 0, 60, 48
2, 103680, Note_on_c, 0, 63, 48
2, 104436, Note_on_c, 0, 63, 0
2, 104436, Note_on_c, 0, 60, 0
2, 104520, Note_on_c, 0, 63, 48
2, 104520, Note_on_c, 0, 67, 48
2, 104556, Note_on_c, 0, 67, 0
2, 104556, Note_on_c, 0, 63, 0
2, 104640, Note_on_c, 0, 63, 48
2, 104640, Note_on_c, 0, 67, 48
2, 104760, Note_on_c, 0, 67, 0
2, 104760, Note_on_c, 0, 63, 0
2, 104760, Note_on_c, 0, 62, 48
2, 104760, Note_on_c, 0, 65, 48
2, 104880, Note_on_c, 0, 65, 0
2, 104880, Note_on_c, 0, 62, 0
2, 104880, Note_on_c, 0, 60, 48
2, 104880, Note_on_c, 0, 63, 48
2, 105000, Note_on_c, 0, 63, 0
2, 105000, Note_on_c, 0, 60, 0
2, 105000, Note_on_c, 0, 59, 48
2, 105000, Note_on_c, 0, 62, 48
2, 105120, Note_on_c, 0, 62, 0
2, 105120, Note_on_c, 0, 59, 0
2, 105120, Note_on_c, 0, 60, 48
2, 105240, Note_on_c, 0, 55, 51
2, 105360, Note_on_c, 0, 55, 0
2, 105360, Note_on_c, 0, 56, 53
2, 105480, Note_on_c, 0, 56, 0
2, 105480, Note_on_c, 0, 55, 56
2, 105600, Note_on_c, 0, 55, 0
2, 105600, Note_on_c, 0, 56, 59
2, 105720, Note_on_c, 0, 56, 0
2, 105720, Note_on_c, 0, 55, 61
2, 105840, Note_on_c, 0, 55, 0
2, 105840, Note_on_c, 0, 56, 64
2, 105912, Note_on_c, 0, 56, 0
2, 105960, Note_on_c, 0, 59, 67
2, 106080, Note_on_c, 0, 59, 0
2, 106080, Note_on_c, 0, 60, 69
2, 106200, Note_on_c, 0, 60, 0
2, 106200, Note_on_c, 0, 59, 72
2, 106320, Note_on_c, 0, 59, 0
2, 106320, Note_on_c, 0, 60, 75
2, 106440, Note_on_c, 0, 60, 0
2, 106440, Note_on_c, 0, 59, 77
2, 106560, Note_on_c, 0, 59, 0
2, 106560, Note_on_c, 0, 60, 80
2, 106632, Note_on_c, 0, 60, 0
2, 106680, Note_on_c, 0, 57, 77
2, 106800, Note_on_c, 0, 57, 0
2, 106800, Note_on_c, 0, 58, 75
2, 106920, Note_on_c, 0, 58, 0
2, 106920, Note_on_c, 0, 57, 72
2, 107040, Note_on_c, 0, 57, 0
2, 107040, Note_on_c, 0, 58, 69
2, 107160, Note_on_c, 0, 58, 0
2, 107160, Note_on_c, 0, 57, 67
2, 107280, Note_on_c, 0, 57, 0
2, 107280, Note_on_c, 0, 58, 64
2, 107352, Note_on_c, 0, 58, 0
2, 107400, Note_on_c, 0, 55, 61
2, 107520, Note_on_c, 0, 55, 0
2, 107520, Note_on_c, 0, 56, 59
2, 107640, Note_on_c, 0, 56, 0
2, 107640, Note_on_c, 0, 55, 56
2, 107760, Note_on_c, 0, 55, 0
2, 107760, Note_on_c, 0, 56, 53
2, 107880, Note_on_c, 0, 56, 0
2, 107880, Note_on_c, 0, 55, 51
2, 108000, Note_on_c, 0, 55, 0
2, 108000, Note_on_c, 0, 56, 48
2, 108072, Note_on_c, 0, 56, 0
2, 108120, Note_on_c, 0, 60, 0
2, 108120, Note_on_c, 0, 65, 80
2, 108240, Note_on_c, 0, 65, 0
2, 108240, Note_on_c, 0, 63, 80
2, 108360, Note_on_c, 0, 63, 0
2, 108360, Note_on_c, 0, 62, 80
2, 108480, Note_on_c, 0, 62, 0
2, 108480, Note_on_c, 0, 60, 80
2, 108600, Note_on_c, 0, 60, 0
2, 108600, Note_on_c, 0, 59, 80
2, 108720, Note_on_c, 0, 59, 0
2, 108720, Note_on_c, 0, 59, 80
2, 109440, Note_on_c, 0, 59, 0
2, 109440, Note_on_c, 0, 60, 64
2, 109680, Note_on_c, 0, 60, 0
2, 109680, End_track
3, 0, Start_track
3, 0, MIDI_port, 0
3, 0, Title_t, "by FJ Haydn (3rd mvmt. - Finale.Allegro)"
3, 0, Program_c, 1, 0
3, 0, Control_c, 1, 7, 127
3, 0, Control_c, 1, 10, 56
3, 720, Note_on_c, 1, 60, 80
3, 720, Note_on_c, 1, 63, 80
3, 792, Note_on_c, 1, 63, 0
3, 792, Note_on_c, 1, 60, 0
3, 960, Note_on_c, 1, 62, 80
3, 960, Note_on_c, 1, 65, 80
3, 1032, Note_on_c, 1, 65, 0
3, 1032, Note_on_c, 1, 62, 0
3, 1440, Note_on_c, 1, 62, 80
3, 1440, Note_on_c, 1, 65, 80
3, 1512, Note_on_c, 1, 65, 0
3, 1512, Note_on_c, 1, 62, 0
3, 1680, Note_on_c, 1, 63, 80
3, 1680, Note_on_c, 1, 67, 80
3, 1752, Note_on_c, 1, 67, 0
3, 1752, Note_on_c, 1, 63, 0
3, 2160, Note_on_c, 1, 63, 80
3, 2160, Note_on_c, 1, 67, 80
3, 2400, Note_on_c, 1, 67, 0
3, 2400, Note_on_c, 1, 63, 0
3, 2400, Note_on_c, 1, 62, 80
3, 2400, Note_on_c, 1, 65, 80
3, 2640, Note_on_c, 1, 65, 0
3, 2640, Note_on_c, 1, 62, 0
3, 2640, Note_on_c, 1, 60, 80
3, 2640, Note_on_c, 1, 63, 80
3, 2880, Note_on_c, 1, 63, 0
3, 2880, Note_on_c, 1, 60, 0
3, 2880, Note_on_c, 1, 59, 80
3, 2880, Note_on_c, 1, 62, 80
3, 3120, Note_on_c, 1, 62, 0
3, 3120, Note_on_c, 1, 59, 0
3, 3120, Note_on_c, 1, 55, 80
3, 3120, Note_on_c, 1, 59, 80
3, 3360, Note_on_c, 1, 59, 0
3, 3360, Note_on_c, 1, 55, 0
3, 3360, Note_on_c, 1, 59, 80
3, 3360, Note_on_c, 1, 67, 80
3, 3432, Note_on_c, 1, 67, 0
3, 3432, Note_on_c, 1, 59, 0
3, 3600, Note_on_c, 1, 60, 80
3, 3600, Note_on_c, 1, 67, 80
3, 3840, Note_on_c, 1, 67, 0
3, 3840, Note_on_c, 1, 60, 0
3, 4080, Note_on_c, 1, 56, 80
3, 4080, Note_on_c, 1, 66, 80
3, 4320, Note_on_c, 1, 66, 0
3, 4320, Note_on_c, 1, 56, 0
3, 4320, Note_on_c, 1, 55, 80
3, 4320, Note_on_c, 1, 67, 80
3, 4560, Note_on_c, 1, 67, 0
3, 4560, Note_on_c, 1, 55, 0
3, 5280, Note_on_c, 1, 50, 80
3, 5280, Note_on_c, 1, 53, 80
3, 5376, Note_on_c, 1, 53, 0
3, 5376, Note_on_c, 1, 50, 0
3, 6000, Note_on_c, 1, 51, 80
3, 6000, Note_on_c, 1, 55, 80
3, 6096, Note_on_c, 1, 55, 0
3, 6096, Note_on_c, 1, 51, 0
3, 7440, Note_on_c, 1, 59, 48
3, 7536, Note_on_c, 1, 59, 0
3, 7680, Note_on_c, 1, 60, 48
3, 7776, Note_on_c, 1, 60, 0
3, 7920, Note_on_c, 1, 53, 48
3, 8160, Note_on_c, 1, 53, 0
3, 8400, Note_on_c, 1, 55, 48
3, 8640, Note_on_c, 1, 55, 0
3, 8880, Note_on_c, 1, 36, 32
3, 8976, Note_on_c, 1, 36, 0
3, 9120, Note_on_c, 1, 48, 80
3, 9180, Note_on_c, 1, 48, 0
3, 9180, Note_on_c, 1, 47, 80
3, 9240, Note_on_c, 1, 47, 0
3, 9240, Note_on_c, 1, 50, 80
3, 9300, Note_on_c, 1, 50, 0
3, 9300, Note_on_c, 1, 48, 80
3, 9360, Note_on_c, 1, 48, 0
3, 9360, Note_on_c, 1, 51, 80
3, 9456, Note_on_c, 1, 51, 0
3, 10200, Note_on_c, 1, 63, 80
3, 10320, Note_on_c, 1, 63, 0
3, 10320, Note_on_c, 1, 62, 80
3, 10440, Note_on_c, 1, 62, 0
3, 10440, Note_on_c, 1, 60, 80
3, 10560, Note_on_c, 1, 60, 0
3, 10560, Note_on_c, 1, 58, 80
3, 10680, Note_on_c, 1, 58, 0
3, 10680, Note_on_c, 1, 56, 80
3, 10800, Note_on_c, 1, 56, 0
3, 10800, Note_on_c, 1, 55, 80
3, 10872, Note_on_c, 1, 55, 0
3, 10920, Note_on_c, 1, 51, 80
3, 11040, Note_on_c, 1, 51, 0
3, 11040, Note_on_c, 1, 50, 80
3, 11160, Note_on_c, 1, 50, 0
3, 11160, Note_on_c, 1, 48, 80
3, 11280, Note_on_c, 1, 48, 0
3, 11280, Note_on_c, 1, 46, 80
3, 11400, Note_on_c, 1, 46, 0
3, 11400, Note_on_c, 1, 44, 80
3, 11520, Note_on_c, 1, 44, 0
3, 11520, Note_on_c, 1, 43, 80
3, 11760, Note_on_c, 1, 43, 0
3, 12240, Note_on_c, 1, 53, 64
3, 12960, Note_on_c, 1, 53, 0
3, 12960, Note_on_c, 1, 58, 64
3, 13680, Note_on_c, 1, 58, 0
3, 13680, Note_on_c, 1, 51, 64
3, 14400, Note_on_c, 1, 51, 0
3, 14400, Note_on_c, 1, 44, 64
3, 14880, Note_on_c, 1, 44, 0
3, 14880, Note_on_c, 1, 45, 75
3, 15120, Note_on_c, 1, 45, 0
3, 15120, Note_on_c, 1, 34, 88
3, 15120, Note_on_c, 1, 46, 88
3, 15216, Note_on_c, 1, 46, 0
3, 15216, Note_on_c, 1, 34, 0
3, 15360, Note_on_c, 1, 62, 80
3, 15408, Note_on_c, 1, 62, 0
3, 15480, Note_on_c, 1, 63, 80
3, 15528, Note_on_c, 1, 63, 0
3, 15600, Note_on_c, 1, 65, 80
3, 15648, Note_on_c, 1, 65, 0
3, 15840, Note_on_c, 1, 34, 88
3, 15840, Note_on_c, 1, 46, 88
3, 15936, Note_on_c, 1, 46, 0
3, 15936, Note_on_c, 1, 34, 0
3, 16080, Note_on_c, 1, 63, 80
3, 16200, Note_on_c, 1, 63, 0
3, 16200, Note_on_c, 1, 65, 80
3, 16320, Note_on_c, 1, 65, 0
3, 16320, Note_on_c, 1, 67, 80
3, 16380, Note_on_c, 1, 67, 0
3, 16560, Note_on_c, 1, 34, 88
3, 16560, Note_on_c, 1, 46, 88
3, 16656, Note_on_c, 1, 46, 0
3, 16656, Note_on_c, 1, 34, 0
3, 16800, Note_on_c, 1, 58, 80
3, 16920, Note_on_c, 1, 58, 0
3, 16920, Note_on_c, 1, 60, 80
3, 16968, Note_on_c, 1, 60, 0
3, 17040, Note_on_c, 1, 62, 80
3, 17088, Note_on_c, 1, 62, 0
3, 17160, Note_on_c, 1, 63, 80
3, 17208, Note_on_c, 1, 63, 0
3, 17280, Note_on_c, 1, 65, 80
3, 17520, Note_on_c, 1, 65, 0
3, 18000, Note_on_c, 1, 63, 80
3, 18120, Note_on_c, 1, 63, 0
3, 18120, Note_on_c, 1, 65, 80
3, 18168, Note_on_c, 1, 65, 0
3, 18240, Note_on_c, 1, 67, 80
3, 18288, Note_on_c, 1, 67, 0
3, 18360, Note_on_c, 1, 68, 80
3, 18408, Note_on_c, 1, 68, 0
3, 18480, Note_on_c, 1, 70, 80
3, 18528, Note_on_c, 1, 70, 0
3, 18600, Note_on_c, 1, 72, 80
3, 18720, Note_on_c, 1, 72, 0
3, 18720, Note_on_c, 1, 74, 88
3, 18816, Note_on_c, 1, 74, 0
3, 19440, Note_on_c, 1, 60, 80
3, 19680, Note_on_c, 1, 60, 0
3, 19680, Note_on_c, 1, 58, 80
3, 19776, Note_on_c, 1, 58, 0
3, 19920, Note_on_c, 1, 56, 80
3, 20016, Note_on_c, 1, 56, 0
3, 20160, Note_on_c, 1, 55, 80
3, 20256, Note_on_c, 1, 55, 0
3, 20400, Note_on_c, 1, 53, 80
3, 20496, Note_on_c, 1, 53, 0
3, 20640, Note_on_c, 1, 51, 80
3, 20736, Note_on_c, 1, 51, 0
3, 20880, Note_on_c, 1, 72, 48
3, 21120, Note_on_c, 1, 72, 0
3, 21120, Note_on_c, 1, 70, 48
3, 21360, Note_on_c, 1, 70, 0
3, 21360, Note_on_c, 1, 75, 48
3, 21600, Note_on_c, 1, 75, 0
3, 21600, Note_on_c, 1, 74, 48
3, 21840, Note_on_c, 1, 74, 0
3, 21840, Note_on_c, 1, 72, 48
3, 22080, Note_on_c, 1, 72, 0
3, 22080, Note_on_c, 1, 70, 48
3, 22320, Note_on_c, 1, 70, 0
3, 22320, Note_on_c, 1, 45, 88
3, 22416, Note_on_c, 1, 45, 0
3, 22560, Note_on_c, 1, 57, 80
3, 22656, Note_on_c, 1, 57, 0
3, 23040, Note_on_c, 1, 44, 88
3, 23136, Note_on_c, 1, 44, 0
3, 23280, Note_on_c, 1, 56, 80
3, 23376, Note_on_c, 1, 56, 0
3, 23760, Note_on_c, 1, 55, 80
3, 24000, Note_on_c, 1, 55, 0
3, 24360, Note_on_c, 1, 51, 48
3, 24480, Note_on_c, 1, 51, 0
3, 24480, Note_on_c, 1, 56, 48
3, 24720, Note_on_c, 1, 56, 0
3, 24720, Note_on_c, 1, 58, 48
3, 24960, Note_on_c, 1, 58, 0
3, 24960, Note_on_c, 1, 46, 48
3, 25200, Note_on_c, 1, 46, 0
3, 25200, Note_on_c, 1, 48, 80
3, 25248, Note_on_c, 1, 48, 0
3, 25320, Note_on_c, 1, 60, 80
3, 25368, Note_on_c, 1, 60, 0
3, 25440, Note_on_c, 1, 46, 80
3, 25488, Note_on_c, 1, 46, 0
3, 25560, Note_on_c, 1, 58, 80
3, 25608, Note_on_c, 1, 58, 0
3, 25680, Note_on_c, 1, 44, 80
3, 25728, Note_on_c, 1, 44, 0
3, 25800, Note_on_c, 1, 56, 80
3, 25848, Note_on_c, 1, 56, 0
3, 25920, Note_on_c, 1, 43, 88
3, 26040, Note_on_c, 1, 43, 0
3, 26040, Note_on_c, 1, 55, 80
3, 26160, Note_on_c, 1, 55, 0
3, 26160, Note_on_c, 1, 41, 88
3, 26280, Note_on_c, 1, 41, 0
3, 26280, Note_on_c, 1, 53, 80
3, 26400, Note_on_c, 1, 53, 0
3, 26400, Note_on_c, 1, 39, 88
3, 26520, Note_on_c, 1, 39, 0
3, 26520, Note_on_c, 1, 51, 80
3, 26640, Note_on_c, 1, 51, 0
3, 26640, Note_on_c, 1, 44, 80
3, 26736, Note_on_c, 1, 44, 0
3, 28200, Note_on_c, 1, 45, 48
3, 28320, Note_on_c, 1, 45, 0
3, 28320, Note_on_c, 1, 46, 48
3, 28440, Note_on_c, 1, 46, 0
3, 28440, Note_on_c, 1, 45, 48
3, 28560, Note_on_c, 1, 45, 0
3, 28560, Note_on_c, 1, 46, 48
3, 28680, Note_on_c, 1, 46, 0
3, 28680, Note_on_c, 1, 45, 48
3, 28800, Note_on_c, 1, 45, 0
3, 28800, Note_on_c, 1, 46, 48
3, 29520, Note_on_c, 1, 46, 0
3, 29520, Note_on_c, 1, 51, 48
3, 29640, Note_on_c, 1, 54, 48
3, 29760, Note_on_c, 1, 54, 0
3, 29760, Note_on_c, 1, 55, 48
3, 29880, Note_on_c, 1, 55, 0
3, 29880, Note_on_c, 1, 54, 48
3, 30000, Note_on_c, 1, 54, 0
3, 30000, Note_on_c, 1, 55, 48
3, 30120, Note_on_c, 1, 55, 0
3, 30120, Note_on_c, 1, 54, 48
3, 30240, Note_on_c, 1, 54, 0
3, 30240, Note_on_c, 1, 55, 48
3, 30300, Note_on_c, 1, 55, 0
3, 30360, Note_on_c, 1, 57, 48
3, 30480, Note_on_c, 1, 57, 0
3, 30480, Note_on_c, 1, 58, 48
3, 30600, Note_on_c, 1, 58, 0
3, 30600, Note_on_c, 1, 57, 48
3, 30720, Note_on_c, 1, 57, 0
3, 30720, Note_on_c, 1, 58, 48
3, 30840, Note_on_c, 1, 58, 0
3, 30840, Note_on_c, 1, 57, 48
3, 30960, Note_on_c, 1, 57, 0
3, 30960, Note_on_c, 1, 58, 48
3, 31020, Note_on_c, 1, 58, 0
3, 31080, Note_on_c, 1, 55, 48
3, 31200, Note_on_c, 1, 55, 0
3, 31200, Note_on_c, 1, 56, 48
3, 31320, Note_on_c, 1, 56, 0
3, 31320, Note_on_c, 1, 55, 48
3, 31440, Note_on_c, 1, 55, 0
3, 31440, Note_on_c, 1, 56, 48
3, 31560, Note_on_c, 1, 56, 0
3, 31560, Note_on_c, 1, 55, 48
3, 31680, Note_on_c, 1, 55, 0
3, 31680, Note_on_c, 1, 56, 48
3, 32400, Note_on_c, 1, 56, 0
3, 32400, Note_on_c, 1, 51, 0
3, 32400, Note_on_c, 1, 51, 56
3, 32400, Note_on_c, 1, 56, 56
3, 33120, Note_on_c, 1, 56, 0
3, 33120, Note_on_c, 1, 51, 0
3, 33120, Note_on_c, 1, 51, 32
3, 33120, Note_on_c, 1, 55, 32
3, 33360, Note_on_c, 1, 55, 0
3, 33360, Note_on_c, 1, 51, 0
3, 33840, Note_on_c, 1, 63, 80
3, 33840, Note_on_c, 1, 67, 80
3, 33912, Note_on_c, 1, 67, 0
3, 33912, Note_on_c, 1, 63, 0
3, 34080, Note_on_c, 1, 65, 80
3, 34080, Note_on_c, 1, 68, 80
3, 34152, Note_on_c, 1, 68, 0
3, 34152, Note_on_c, 1, 65, 0
3, 34560, Note_on_c, 1, 65, 80
3, 34560, Note_on_c, 1, 68, 80
3, 34800, Note_on_c, 1, 68, 0
3, 34800, Note_on_c, 1, 65, 0
3, 34800, Note_on_c, 1, 67, 80
3, 34800, Note_on_c, 1, 70, 80
3, 34872, Note_on_c, 1, 70, 0
3, 34872, Note_on_c, 1, 67, 0
3, 35280, Note_on_c, 1, 67, 80
3, 35280, Note_on_c, 1, 70, 80
3, 35520, Note_on_c, 1, 70, 0
3, 35520, Note_on_c, 1, 67, 0
3, 35520, Note_on_c, 1, 65, 80
3, 35520, Note_on_c, 1, 68, 80
3, 35760, Note_on_c, 1, 68, 0
3, 35760, Note_on_c, 1, 65, 0
3, 35760, Note_on_c, 1, 63, 80
3, 35760, Note_on_c, 1, 67, 80
3, 36000, Note_on_c, 1, 67, 0
3, 36000, Note_on_c, 1, 63, 0
3, 36000, Note_on_c, 1, 62, 80
3, 36000, Note_on_c, 1, 65, 80
3, 36240, Note_on_c, 1, 65, 0
3, 36240, Note_on_c, 1, 62, 0
3, 36240, Note_on_c, 1, 58, 80
3, 36240, Note_on_c, 1, 62, 80
3, 36480, Note_on_c, 1, 62, 0
3, 36480, Note_on_c, 1, 58, 0
3, 36480, Note_on_c, 1, 62, 80
3, 36480, Note_on_c, 1, 70, 80
3, 36552, Note_on_c, 1, 70, 0
3, 36552, Note_on_c, 1, 62, 0
3, 36720, Note_on_c, 1, 63, 80
3, 36720, Note_on_c, 1, 70, 80
3, 36960, Note_on_c, 1, 70, 0
3, 36960, Note_on_c, 1, 63, 0
3, 37200, Note_on_c, 1, 60, 80
3, 37200, Note_on_c, 1, 69, 80
3, 37440, Note_on_c, 1, 69, 0
3, 37440, Note_on_c, 1, 60, 0
3, 37440, Note_on_c, 1, 58, 80
3, 37440, Note_on_c, 1, 70, 80
3, 37680, Note_on_c, 1, 70, 0
3, 37680, Note_on_c, 1, 58, 0
3, 39120, Note_on_c, 1, 55, 48
3, 39120, Note_on_c, 1, 58, 48
3, 39192, Note_on_c, 1, 58, 0
3, 39192, Note_on_c, 1, 55, 0
3, 39840, Note_on_c, 1, 56, 48
3, 39840, Note_on_c, 1, 60, 48
3, 39912, Note_on_c, 1, 60, 0
3, 39912, Note_on_c, 1, 56, 0
3, 41160, Note_on_c, 1, 68, 80
3, 41280, Note_on_c, 1, 68, 0
3, 41280, Note_on_c, 1, 67, 80
3, 41316, Note_on_c, 1, 67, 0
3, 41400, Note_on_c, 1, 65, 80
3, 41436, Note_on_c, 1, 65, 0
3, 41520, Note_on_c, 1, 63, 80
3, 41556, Note_on_c, 1, 63, 0
3, 41640, Note_on_c, 1, 62, 80
3, 41676, Note_on_c, 1, 62, 0
3, 41760, Note_on_c, 1, 60, 80
3, 41880, Note_on_c, 1, 60, 0
3, 41880, Note_on_c, 1, 62, 79
3, 42000, Note_on_c, 1, 62, 0
3, 42000, Note_on_c, 1, 63, 77
3, 42036, Note_on_c, 1, 63, 0
3, 42600, Note_on_c, 1, 67, 71
3, 42720, Note_on_c, 1, 67, 0
3, 42720, Note_on_c, 1, 65, 69
3, 42756, Note_on_c, 1, 65, 0
3, 42840, Note_on_c, 1, 63, 68
3, 42876, Note_on_c, 1, 63, 0
3, 42960, Note_on_c, 1, 62, 67
3, 42996, Note_on_c, 1, 62, 0
3, 43080, Note_on_c, 1, 60, 65
3, 43116, Note_on_c, 1, 60, 0
3, 43200, Note_on_c, 1, 58, 64
3, 43320, Note_on_c, 1, 58, 0
3, 43320, Note_on_c, 1, 60, 63
3, 43440, Note_on_c, 1, 60, 0
3, 43440, Note_on_c, 1, 62, 61
3, 43476, Note_on_c, 1, 62, 0
3, 44040, Note_on_c, 1, 65, 55
3, 44160, Note_on_c, 1, 65, 0
3, 44160, Note_on_c, 1, 63, 53
3, 44196, Note_on_c, 1, 63, 0
3, 44280, Note_on_c, 1, 62, 52
3, 44316, Note_on_c, 1, 62, 0
3, 44400, Note_on_c, 1, 60, 51
3, 44436, Note_on_c, 1, 60, 0
3, 44520, Note_on_c, 1, 58, 49
3, 44556, Note_on_c, 1, 58, 0
3, 44640, Note_on_c, 1, 57, 56
3, 44760, Note_on_c, 1, 57, 0
3, 44760, Note_on_c, 1, 58, 55
3, 44880, Note_on_c, 1, 58, 0
3, 44880, Note_on_c, 1, 60, 53
3, 44916, Note_on_c, 1, 60, 0
3, 45480, Note_on_c, 1, 63, 65
3, 45600, Note_on_c, 1, 63, 0
3, 45600, Note_on_c, 1, 62, 67
3, 45636, Note_on_c, 1, 62, 0
3, 45720, Note_on_c, 1, 60, 68
3, 45756, Note_on_c, 1, 60, 0
3, 45840, Note_on_c, 1, 58, 69
3, 45876, Note_on_c, 1, 58, 0
3, 45960, Note_on_c, 1, 57, 71
3, 45996, Note_on_c, 1, 57, 0
3, 46080, Note_on_c, 1, 55, 72
3, 46116, Note_on_c, 1, 55, 0
3, 46200, Note_on_c, 1, 53, 73
3, 46236, Note_on_c, 1, 53, 0
3, 46320, Note_on_c, 1, 51, 75
3, 46356, Note_on_c, 1, 51, 0
3, 46440, Note_on_c, 1, 50, 76
3, 46476, Note_on_c, 1, 50, 0
3, 46560, Note_on_c, 1, 49, 77
3, 46680, Note_on_c, 1, 55, 79
3, 46800, Note_on_c, 1, 55, 0
3, 46800, Note_on_c, 1, 49, 0
3, 46800, Note_on_c, 1, 38, 88
3, 46800, Note_on_c, 1, 50, 88
3, 46872, Note_on_c, 1, 50, 0
3, 46872, Note_on_c, 1, 38, 0
3, 47040, Note_on_c, 1, 54, 80
3, 47076, Note_on_c, 1, 54, 0
3, 47160, Note_on_c, 1, 55, 80
3, 47196, Note_on_c, 1, 55, 0
3, 47280, Note_on_c, 1, 57, 80
3, 47316, Note_on_c, 1, 57, 0
3, 47520, Note_on_c, 1, 38, 88
3, 47520, Note_on_c, 1, 50, 88
3, 47592, Note_on_c, 1, 50, 0
3, 47592, Note_on_c, 1, 38, 0
3, 47760, Note_on_c, 1, 55, 80
3, 47796, Note_on_c, 1, 55, 0
3, 47880, Note_on_c, 1, 57, 80
3, 47916, Note_on_c, 1, 57, 0
3, 48000, Note_on_c, 1, 58, 80
3, 48036, Note_on_c, 1, 58, 0
3, 48240, Note_on_c, 1, 38, 80
3, 48276, Note_on_c, 1, 38, 0
3, 48360, Note_on_c, 1, 40, 80
3, 48396, Note_on_c, 1, 40, 0
3, 48480, Note_on_c, 1, 42, 80
3, 48720, Note_on_c, 1, 42, 0
3, 48960, Note_on_c, 1, 43, 80
3, 48996, Note_on_c, 1, 43, 0
3, 49080, Note_on_c, 1, 45, 80
3, 49116, Note_on_c, 1, 45, 0
3, 49200, Note_on_c, 1, 46, 80
3, 49272, Note_on_c, 1, 46, 0
3, 49680, Note_on_c, 1, 50, 64
3, 49716, Note_on_c, 1, 50, 0
3, 49800, Note_on_c, 1, 52, 65
3, 49836, Note_on_c, 1, 52, 0
3, 49920, Note_on_c, 1, 54, 65
3, 50160, Note_on_c, 1, 54, 0
3, 50400, Note_on_c, 1, 55, 68
3, 50520, Note_on_c, 1, 55, 0
3, 50520, Note_on_c, 1, 57, 69
3, 50640, Note_on_c, 1, 57, 0
3, 50640, Note_on_c, 1, 58, 69
3, 50712, Note_on_c, 1, 58, 0
3, 51120, Note_on_c, 1, 62, 72
3, 51156, Note_on_c, 1, 62, 0
3, 51240, Note_on_c, 1, 64, 73
3, 51276, Note_on_c, 1, 64, 0
3, 51360, Note_on_c, 1, 66, 73
3, 51600, Note_on_c, 1, 66, 0
3, 51840, Note_on_c, 1, 67, 76
3, 51912, Note_on_c, 1, 67, 0
3, 52080, Note_on_c, 1, 69, 77
3, 52152, Note_on_c, 1, 69, 0
3, 52320, Note_on_c, 1, 70, 79
3, 52392, Note_on_c, 1, 70, 0
3, 52560, Note_on_c, 1, 60, 80
3, 52560, Note_on_c, 1, 67, 80
3, 52800, Note_on_c, 1, 67, 0
3, 52800, Note_on_c, 1, 60, 0
3, 52800, Note_on_c, 1, 62, 80
3, 52800, Note_on_c, 1, 67, 80
3, 53040, Note_on_c, 1, 67, 0
3, 53040, Note_on_c, 1, 66, 80
3, 53280, Note_on_c, 1, 66, 0
3, 53280, Note_on_c, 1, 62, 0
3, 53400, Note_on_c, 1, 54, 79
3, 53520, Note_on_c, 1, 54, 0
3, 53520, Note_on_c, 1, 55, 77
3, 53592, Note_on_c, 1, 55, 0
3, 54120, Note_on_c, 1, 66, 71
3, 54240, Note_on_c, 1, 66, 0
3, 54240, Note_on_c, 1, 67, 69
3, 54360, Note_on_c, 1, 67, 0
3, 54840, Note_on_c, 1, 54, 63
3, 54960, Note_on_c, 1, 54, 0
3, 54960, Note_on_c, 1, 55, 61
3, 54996, Note_on_c, 1, 55, 0
3, 55560, Note_on_c, 1, 42, 55
3, 55680, Note_on_c, 1, 42, 0
3, 55680, Note_on_c, 1, 43, 53
3, 55800, Note_on_c, 1, 43, 0
3, 56280, Note_on_c, 1, 30, 53
3, 56400, Note_on_c, 1, 30, 0
3, 56400, Note_on_c, 1, 31, 40
3, 56436, Note_on_c, 1, 31, 0
3, 56880, Note_on_c, 1, 60, 80
3, 56880, Note_on_c, 1, 63, 80
3, 57120, Note_on_c, 1, 63, 0
3, 57120, Note_on_c, 1, 60, 0
3, 57120, Note_on_c, 1, 62, 80
3, 57120, Note_on_c, 1, 65, 80
3, 57192, Note_on_c, 1, 65, 0
3, 57192, Note_on_c, 1, 62, 0
3, 57600, Note_on_c, 1, 62, 80
3, 57600, Note_on_c, 1, 65, 80
3, 57840, Note_on_c, 1, 65, 0
3, 57840, Note_on_c, 1, 62, 0
3, 57840, Note_on_c, 1, 63, 80
3, 57840, Note_on_c, 1, 67, 80
3, 57912, Note_on_c, 1, 67, 0
3, 57912, Note_on_c, 1, 63, 0
3, 58320, Note_on_c, 1, 63, 80
3, 58320, Note_on_c, 1, 67, 80
3, 58560, Note_on_c, 1, 67, 0
3, 58560, Note_on_c, 1, 63, 0
3, 58560, Note_on_c, 1, 62, 80
3, 58560, Note_on_c, 1, 65, 80
3, 58800, Note_on_c, 1, 65, 0
3, 58800, Note_on_c, 1, 62, 0
3, 58800, Note_on_c, 1, 60, 80
3, 58800, Note_on_c, 1, 63, 80
3, 59040, Note_on_c, 1, 63, 0
3, 59040, Note_on_c, 1, 60, 0
3, 59040, Note_on_c, 1, 59, 80
3, 59040, Note_on_c, 1, 62, 80
3, 59280, Note_on_c, 1, 62, 0
3, 59280, Note_on_c, 1, 59, 0
3, 59280, Note_on_c, 1, 55, 80
3, 59280, Note_on_c, 1, 59, 80
3, 59520, Note_on_c, 1, 59, 0
3, 59520, Note_on_c, 1, 55, 0
3, 59520, Note_on_c, 1, 59, 80
3, 59520, Note_on_c, 1, 67, 80
3, 59760, Note_on_c, 1, 67, 0
3, 59760, Note_on_c, 1, 59, 0
3, 59760, Note_on_c, 1, 60, 80
3, 59760, Note_on_c, 1, 67, 80
3, 60000, Note_on_c, 1, 67, 0
3, 60000, Note_on_c, 1, 60, 0
3, 60240, Note_on_c, 1, 56, 80
3, 60240, Note_on_c, 1, 66, 80
3, 60480, Note_on_c, 1, 66, 0
3, 60480, Note_on_c, 1, 56, 0
3, 60480, Note_on_c, 1, 55, 80
3, 60480, Note_on_c, 1, 67, 80
3, 60720, Note_on_c, 1, 67, 0
3, 60720, Note_on_c, 1, 55, 0
3, 60840, Note_on_c, 1, 53, 80
3, 60960, Note_on_c, 1, 53, 0
3, 60960, Note_on_c, 1, 51, 80
3, 60996, Note_on_c, 1, 51, 0
3, 61080, Note_on_c, 1, 50, 80
3, 61116, Note_on_c, 1, 50, 0
3, 61200, Note_on_c, 1, 48, 80
3, 61440, Note_on_c, 1, 48, 0
3, 61920, Note_on_c, 1, 50, 80
3, 62640, Note_on_c, 1, 50, 0
3, 62640, Note_on_c, 1, 55, 80
3, 63360, Note_on_c, 1, 55, 0
3, 63360, Note_on_c, 1, 48, 80
3, 64080, Note_on_c, 1, 48, 0
3, 64080, Note_on_c, 1, 41, 80
3, 64560, Note_on_c, 1, 41, 0
3, 64560, Note_on_c, 1, 42, 80
3, 64800, Note_on_c, 1, 42, 0
3, 64800, Note_on_c, 1, 31, 88
3, 64800, Note_on_c, 1, 43, 88
3, 64872, Note_on_c, 1, 43, 0
3, 64872, Note_on_c, 1, 31, 0
3, 65040, Note_on_c, 1, 59, 80
3, 65076, Note_on_c, 1, 59, 0
3, 65160, Note_on_c, 1, 60, 80
3, 65196, Note_on_c, 1, 60, 0
3, 65280, Note_on_c, 1, 62, 80
3, 65316, Note_on_c, 1, 62, 0
3, 65520, Note_on_c, 1, 31, 88
3, 65520, Note_on_c, 1, 43, 88
3, 65592, Note_on_c, 1, 43, 0
3, 65592, Note_on_c, 1, 31, 0
3, 65760, Note_on_c, 1, 60, 80
3, 65880, Note_on_c, 1, 60, 0
3, 65880, Note_on_c, 1, 62, 80
3, 66000, Note_on_c, 1, 62, 0
3, 66000, Note_on_c, 1, 63, 80
3, 66036, Note_on_c, 1, 63, 0
3, 66240, Note_on_c, 1, 55, 80
3, 66276, Note_on_c, 1, 55, 0
3, 66360, Note_on_c, 1, 57, 80
3, 66396, Note_on_c, 1, 57, 0
3, 66480, Note_on_c, 1, 59, 80
3, 66720, Note_on_c, 1, 59, 0
3, 66960, Note_on_c, 1, 60, 80
3, 67080, Note_on_c, 1, 60, 0
3, 67080, Note_on_c, 1, 62, 80
3, 67200, Note_on_c, 1, 62, 0
3, 67200, Note_on_c, 1, 63, 80
3, 67272, Note_on_c, 1, 63, 0
3, 67680, Note_on_c, 1, 67, 80
3, 67716, Note_on_c, 1, 67, 0
3, 67800, Note_on_c, 1, 69, 80
3, 67836, Note_on_c, 1, 69, 0
3, 67920, Note_on_c, 1, 71, 80
3, 68160, Note_on_c, 1, 71, 0
3, 68400, Note_on_c, 1, 72, 80
3, 68520, Note_on_c, 1, 72, 0
3, 68520, Note_on_c, 1, 74, 80
3, 68640, Note_on_c, 1, 74, 0
3, 68640, Note_on_c, 1, 75, 80
3, 68712, Note_on_c, 1, 75, 0
3, 69420, Note_on_c, 1, 77, 80
3, 69480, Note_on_c, 1, 77, 0
3, 69480, Note_on_c, 1, 75, 80
3, 69540, Note_on_c, 1, 75, 0
3, 69540, Note_on_c, 1, 74, 80
3, 69600, Note_on_c, 1, 74, 0
3, 69600, Note_on_c, 1, 72, 80
3, 69660, Note_on_c, 1, 72, 0
3, 69660, Note_on_c, 1, 71, 80
3, 69720, Note_on_c, 1, 71, 0
3, 69720, Note_on_c, 1, 69, 80
3, 69780, Note_on_c, 1, 69, 0
3, 69780, Note_on_c, 1, 67, 80
3, 69840, Note_on_c, 1, 67, 0
3, 69840, Note_on_c, 1, 72, 80
3, 70080, Note_on_c, 1, 72, 0
3, 70080, Note_on_c, 1, 70, 80
3, 70320, Note_on_c, 1, 70, 0
3, 70320, Note_on_c, 1, 68, 80
3, 70560, Note_on_c, 1, 68, 0
3, 70560, Note_on_c, 1, 67, 80
3, 70800, Note_on_c, 1, 67, 0
3, 70860, Note_on_c, 1, 77, 80
3, 70920, Note_on_c, 1, 77, 0
3, 70920, Note_on_c, 1, 75, 80
3, 70980, Note_on_c, 1, 75, 0
3, 70980, Note_on_c, 1, 74, 80
3, 71040, Note_on_c, 1, 74, 0
3, 71040, Note_on_c, 1, 72, 80
3, 71100, Note_on_c, 1, 72, 0
3, 71100, Note_on_c, 1, 71, 80
3, 71160, Note_on_c, 1, 71, 0
3, 71160, Note_on_c, 1, 69, 80
3, 71220, Note_on_c, 1, 69, 0
3, 71220, Note_on_c, 1, 67, 80
3, 71280, Note_on_c, 1, 67, 0
3, 71280, Note_on_c, 1, 72, 48
3, 71520, Note_on_c, 1, 72, 0
3, 71520, Note_on_c, 1, 70, 48
3, 71760, Note_on_c, 1, 70, 0
3, 71760, Note_on_c, 1, 68, 48
3, 72000, Note_on_c, 1, 68, 0
3, 72000, Note_on_c, 1, 67, 48
3, 72240, Note_on_c, 1, 67, 0
3, 72300, Note_on_c, 1, 77, 48
3, 72360, Note_on_c, 1, 77, 0
3, 72360, Note_on_c, 1, 75, 48
3, 72420, Note_on_c, 1, 75, 0
3, 72420, Note_on_c, 1, 74, 48
3, 72480, Note_on_c, 1, 74, 0
3, 72480, Note_on_c, 1, 72, 48
3, 72540, Note_on_c, 1, 72, 0
3, 72540, Note_on_c, 1, 71, 48
3, 72600, Note_on_c, 1, 71, 0
3, 72600, Note_on_c, 1, 69, 48
3, 72660, Note_on_c, 1, 69, 0
3, 72660, Note_on_c, 1, 67, 48
3, 72720, Note_on_c, 1, 67, 0
3, 72720, Note_on_c, 1, 72, 48
3, 72960, Note_on_c, 1, 72, 0
3, 73020, Note_on_c, 1, 70, 48
3, 73080, Note_on_c, 1, 70, 0
3, 73080, Note_on_c, 1, 68, 48
3, 73140, Note_on_c, 1, 68, 0
3, 73140, Note_on_c, 1, 67, 48
3, 73200, Note_on_c, 1, 67, 0
3, 73200, Note_on_c, 1, 65, 48
3, 73260, Note_on_c, 1, 65, 0
3, 73260, Note_on_c, 1, 63, 48
3, 73320, Note_on_c, 1, 63, 0
3, 73320, Note_on_c, 1, 62, 48
3, 73380, Note_on_c, 1, 62, 0
3, 73380, Note_on_c, 1, 60, 48
3, 73440, Note_on_c, 1, 60, 0
3, 73440, Note_on_c, 1, 65, 48
3, 73680, Note_on_c, 1, 65, 0
3, 73680, Note_on_c, 1, 63, 48
3, 73920, Note_on_c, 1, 63, 0
3, 73920, Note_on_c, 1, 62, 48
3, 74160, Note_on_c, 1, 62, 0
3, 74160, Note_on_c, 1, 60, 48
3, 74400, Note_on_c, 1, 60, 0
3, 74460, Note_on_c, 1, 70, 48
3, 74520, Note_on_c, 1, 70, 0
3, 74520, Note_on_c, 1, 68, 48
3, 74580, Note_on_c, 1, 68, 0
3, 74580, Note_on_c, 1, 67, 48
3, 74640, Note_on_c, 1, 67, 0
3, 74640, Note_on_c, 1, 65, 48
3, 74700, Note_on_c, 1, 65, 0
3, 74700, Note_on_c, 1, 63, 48
3, 74760, Note_on_c, 1, 63, 0
3, 74760, Note_on_c, 1, 62, 48
3, 74820, Note_on_c, 1, 62, 0
3, 74820, Note_on_c, 1, 60, 48
3, 74880, Note_on_c, 1, 60, 0
3, 74880, Note_on_c, 1, 65, 40
3, 75120, Note_on_c, 1, 65, 0
3, 75120, Note_on_c, 1, 63, 43
3, 75360, Note_on_c, 1, 63, 0
3, 75600, Note_on_c, 1, 68, 48
3, 75840, Note_on_c, 1, 68, 0
3, 75840, Note_on_c, 1, 67, 53
3, 76080, Note_on_c, 1, 67, 0
3, 76320, Note_on_c, 1, 65, 64
3, 76560, Note_on_c, 1, 65, 0
3, 76560, Note_on_c, 1, 63, 69
3, 76800, Note_on_c, 1, 63, 0
3, 77040, Note_on_c, 1, 62, 88
3, 77040, Note_on_c, 1, 50, 88
3, 77112, Note_on_c, 1, 50, 0
3, 77112, Note_on_c, 1, 62, 0
3, 77280, Note_on_c, 1, 87, 80
3, 77520, Note_on_c, 1, 87, 0
3, 77520, Note_on_c, 1, 81, 80
3, 77760, Note_on_c, 1, 81, 0
3, 77760, Note_on_c, 1, 67, 88
3, 77760, Note_on_c, 1, 55, 88
3, 78000, Note_on_c, 1, 55, 0
3, 78000, Note_on_c, 1, 67, 0
3, 78000, Note_on_c, 1, 86, 80
3, 78072, Note_on_c, 1, 86, 0
3, 78240, Note_on_c, 1, 79, 80
3, 78312, Note_on_c, 1, 79, 0
3, 78480, Note_on_c, 1, 60, 88
3, 78480, Note_on_c, 1, 48, 88
3, 78552, Note_on_c, 1, 48, 0
3, 78552, Note_on_c, 1, 60, 0
3, 78720, Note_on_c, 1, 85, 80
3, 78960, Note_on_c, 1, 85, 0
3, 78960, Note_on_c, 1, 79, 80
3, 79200, Note_on_c, 1, 79, 0
3, 79200, Note_on_c, 1, 65, 80
3, 79200, Note_on_c, 1, 53, 80
3, 79440, Note_on_c, 1, 53, 0
3, 79440, Note_on_c, 1, 65, 0
3, 79440, Note_on_c, 1, 84, 80
3, 79512, Note_on_c, 1, 84, 0
3, 79680, Note_on_c, 1, 77, 80
3, 79752, Note_on_c, 1, 77, 0
3, 79920, Note_on_c, 1, 46, 80
3, 79920, Note_on_c, 1, 58, 80
3, 79992, Note_on_c, 1, 58, 0
3, 79992, Note_on_c, 1, 46, 0
3, 80160, Note_on_c, 1, 89, 80
3, 80232, Note_on_c, 1, 89, 0
3, 80400, Note_on_c, 1, 82, 80
3, 80640, Note_on_c, 1, 82, 0
3, 80640, Note_on_c, 1, 63, 80
3, 80640, Note_on_c, 1, 51, 80
3, 80880, Note_on_c, 1, 51, 0
3, 80880, Note_on_c, 1, 63, 0
3, 80880, Note_on_c, 1, 82, 80
3, 81120, Note_on_c, 1, 82, 0
3, 81120, Note_on_c, 1, 75, 80
3, 81192, Note_on_c, 1, 75, 0
3, 81360, Note_on_c, 1, 44, 80
3, 81360, Note_on_c, 1, 56, 80
3, 81432, Note_on_c, 1, 56, 0
3, 81432, Note_on_c, 1, 44, 0
3, 81600, Note_on_c, 1, 87, 80
3, 81672, Note_on_c, 1, 87, 0
3, 81840, Note_on_c, 1, 80, 80
3, 82080, Note_on_c, 1, 80, 0
3, 82080, Note_on_c, 1, 50, 80
3, 82080, Note_on_c, 1, 62, 80
3, 82320, Note_on_c, 1, 62, 0
3, 82320, Note_on_c, 1, 50, 0
3, 82320, Note_on_c, 1, 80, 80
3, 82560, Note_on_c, 1, 80, 0
3, 82560, Note_on_c, 1, 74, 80
3, 82632, Note_on_c, 1, 74, 0
3, 82800, Note_on_c, 1, 43, 88
3, 82800, Note_on_c, 1, 55, 88
3, 82872, Note_on_c, 1, 55, 0
3, 82872, Note_on_c, 1, 43, 0
3, 83040, Note_on_c, 1, 86, 80
3, 83112, Note_on_c, 1, 86, 0
3, 83280, Note_on_c, 1, 79, 80
3, 83352, Note_on_c, 1, 79, 0
3, 83520, Note_on_c, 1, 43, 80
3, 83520, Note_on_c, 1, 55, 80
3, 83760, Note_on_c, 1, 55, 0
3, 83760, Note_on_c, 1, 43, 0
3, 83760, Note_on_c, 1, 79, 80
3, 84000, Note_on_c, 1, 79, 0
3, 84000, Note_on_c, 1, 75, 80
3, 84240, Note_on_c, 1, 75, 0
3, 84240, Note_on_c, 1, 44, 88
3, 84240, Note_on_c, 1, 56, 88
3, 84312, Note_on_c, 1, 56, 0
3, 84312, Note_on_c, 1, 44, 0
3, 84480, Note_on_c, 1, 84, 48
3, 84720, Note_on_c, 1, 84, 0
3, 84720, Note_on_c, 1, 87, 48
3, 84960, Note_on_c, 1, 87, 0
3, 84960, Note_on_c, 1, 87, 48
3, 85200, Note_on_c, 1, 87, 0
3, 85200, Note_on_c, 1, 86, 59
3, 85440, Note_on_c, 1, 86, 0
3, 85440, Note_on_c, 1, 84, 69
3, 85680, Note_on_c, 1, 84, 0
3, 85680, Note_on_c, 1, 83, 80
3, 85920, Note_on_c, 1, 83, 0
3, 85980, Note_on_c, 1, 55, 80
3, 86040, Note_on_c, 1, 55, 0
3, 86040, Note_on_c, 1, 50, 80
3, 86100, Note_on_c, 1, 50, 0
3, 86100, Note_on_c, 1, 47, 80
3, 86160, Note_on_c, 1, 47, 0
3, 86160, Note_on_c, 1, 43, 88
3, 86328, Note_on_c, 1, 43, 0
3, 87120, Note_on_c, 1, 48, 48
3, 87120, Note_on_c, 1, 51, 48
3, 87192, Note_on_c, 1, 51, 0
3, 87192, Note_on_c, 1, 48, 0
3, 87360, Note_on_c, 1, 50, 48
3, 87360, Note_on_c, 1, 53, 48
3, 87432, Note_on_c, 1, 53, 0
3, 87432, Note_on_c, 1, 50, 0
3, 87840, Note_on_c, 1, 50, 48
3, 87840, Note_on_c, 1, 53, 48
3, 87912, Note_on_c, 1, 53, 0
3, 87912, Note_on_c, 1, 50, 0
3, 88080, Note_on_c, 1, 51, 48
3, 88080, Note_on_c, 1, 55, 48
3, 88152, Note_on_c, 1, 55, 0
3, 88152, Note_on_c, 1, 51, 0
3, 88800, Note_on_c, 1, 62, 64
3, 88800, Note_on_c, 1, 65, 64
3, 88968, Note_on_c, 1, 65, 0
3, 88968, Note_on_c, 1, 62, 0
3, 89520, Note_on_c, 1, 63, 64
3, 89520, Note_on_c, 1, 67, 64
3, 89688, Note_on_c, 1, 67, 0
3, 89688, Note_on_c, 1, 63, 0
3, 89760, Note_on_c, 1, 63, 80
3, 89760, Note_on_c, 1, 67, 80
3, 90000, Note_on_c, 1, 67, 0
3, 90000, Note_on_c, 1, 63, 0
3, 90000, Note_on_c, 1, 62, 80
3, 90000, Note_on_c, 1, 65, 80
3, 90240, Note_on_c, 1, 65, 0
3, 90240, Note_on_c, 1, 62, 0
3, 90240, Note_on_c, 1, 60, 75
3, 90240, Note_on_c, 1, 63, 75
3, 90480, Note_on_c, 1, 63, 0
3, 90480, Note_on_c, 1, 60, 0
3, 90480, Note_on_c, 1, 58, 69
3, 90480, Note_on_c, 1, 62, 69
3, 90720, Note_on_c, 1, 62, 0
3, 90720, Note_on_c, 1, 58, 0
3, 90720, Note_on_c, 1, 56, 64
3, 90720, Note_on_c, 1, 60, 64
3, 90960, Note_on_c, 1, 60, 0
3, 90960, Note_on_c, 1, 56, 0
3, 90960, Note_on_c, 1, 55, 59
3, 90960, Note_on_c, 1, 58, 59
3, 91200, Note_on_c, 1, 58, 0
3, 91200, Note_on_c, 1, 55, 0
3, 91200, Note_on_c, 1, 53, 53
3, 91200, Note_on_c, 1, 56, 53
3, 91440, Note_on_c, 1, 56, 0
3, 91440, Note_on_c, 1, 53, 0
3, 91440, Note_on_c, 1, 51, 48
3, 91440, Note_on_c, 1, 55, 48
3, 91680, Note_on_c, 1, 55, 0
3, 91680, Note_on_c, 1, 51, 0
3, 91680, Note_on_c, 1, 50, 53
3, 91680, Note_on_c, 1, 53, 53
3, 91920, Note_on_c, 1, 53, 0
3, 91920, Note_on_c, 1, 50, 0
3, 91920, Note_on_c, 1, 48, 59
3, 91920, Note_on_c, 1, 51, 59
3, 92160, Note_on_c, 1, 51, 0
3, 92160, Note_on_c, 1, 48, 0
3, 92160, Note_on_c, 1, 47, 64
3, 92160, Note_on_c, 1, 50, 64
3, 92400, Note_on_c, 1, 50, 0
3, 92400, Note_on_c, 1, 47, 0
3, 92400, Note_on_c, 1, 62, 69
3, 92400, Note_on_c, 1, 59, 69
3, 92640, Note_on_c, 1, 59, 0
3, 92640, Note_on_c, 1, 62, 0
3, 92880, Note_on_c, 1, 56, 80
3, 92952, Note_on_c, 1, 56, 0
3, 93120, Note_on_c, 1, 55, 80
3, 93192, Note_on_c, 1, 55, 0
3, 93360, Note_on_c, 1, 53, 80
3, 93432, Note_on_c, 1, 53, 0
3, 93600, Note_on_c, 1, 51, 80
3, 93672, Note_on_c, 1, 51, 0
3, 93840, Note_on_c, 1, 50, 80
3, 93912, Note_on_c, 1, 50, 0
3, 94080, Note_on_c, 1, 48, 80
3, 94152, Note_on_c, 1, 48, 0
3, 94320, Note_on_c, 1, 68, 48
3, 94560, Note_on_c, 1, 68, 0
3, 94560, Note_on_c, 1, 67, 48
3, 94800, Note_on_c, 1, 67, 0
3, 94800, Note_on_c, 1, 72, 48
3, 95040, Note_on_c, 1, 72, 0
3, 95040, Note_on_c, 1, 70, 48
3, 95280, Note_on_c, 1, 70, 0
3, 95280, Note_on_c, 1, 68, 48
3, 95520, Note_on_c, 1, 68, 0
3, 95520, Note_on_c, 1, 67, 48
3, 95760, Note_on_c, 1, 67, 0
3, 95760, Note_on_c, 1, 42, 88
3, 95832, Note_on_c, 1, 42, 0
3, 96000, Note_on_c, 1, 54, 80
3, 96072, Note_on_c, 1, 54, 0
3, 96480, Note_on_c, 1, 41, 88
3, 96552, Note_on_c, 1, 41, 0
3, 96720, Note_on_c, 1, 53, 80
3, 96792, Note_on_c, 1, 53, 0
3, 97200, Note_on_c, 1, 51, 80
3, 97440, Note_on_c, 1, 51, 0
3, 97800, Note_on_c, 1, 48, 48
3, 97920, Note_on_c, 1, 48, 0
3, 97920, Note_on_c, 1, 53, 48
3, 98160, Note_on_c, 1, 53, 0
3, 98160, Note_on_c, 1, 55, 48
3, 98400, Note_on_c, 1, 55, 0
3, 98400, Note_on_c, 1, 43, 48
3, 98640, Note_on_c, 1, 43, 0
3, 98640, Note_on_c, 1, 44, 80
3, 98676, Note_on_c, 1, 44, 0
3, 98760, Note_on_c, 1, 56, 80
3, 98796, Note_on_c, 1, 56, 0
3, 98880, Note_on_c, 1, 43, 80
3, 98916, Note_on_c, 1, 43, 0
3, 99000, Note_on_c, 1, 55, 80
3, 99036, Note_on_c, 1, 55, 0
3, 99120, Note_on_c, 1, 41, 80
3, 99156, Note_on_c, 1, 41, 0
3, 99240, Note_on_c, 1, 53, 80
3, 99276, Note_on_c, 1, 53, 0
3, 99360, Note_on_c, 1, 39, 80
3, 99396, Note_on_c, 1, 39, 0
3, 99480, Note_on_c, 1, 51, 80
3, 99516, Note_on_c, 1, 51, 0
3, 99600, Note_on_c, 1, 38, 80
3, 99636, Note_on_c, 1, 38, 0
3, 99720, Note_on_c, 1, 50, 80
3, 99756, Note_on_c, 1, 50, 0
3, 99840, Note_on_c, 1, 36, 80
3, 99876, Note_on_c, 1, 36, 0
3, 99960, Note_on_c, 1, 48, 80
3, 99996, Note_on_c, 1, 48, 0
3, 100080, Note_on_c, 1, 41, 80
3, 100320, Note_on_c, 1, 41, 0
3, 103080, Note_on_c, 1, 53, 61
3, 103080, Note_on_c, 1, 56, 61
3, 103116, Note_on_c, 1, 56, 0
3, 103116, Note_on_c, 1, 53, 0
3, 103200, Note_on_c, 1, 53, 59
3, 103200, Note_on_c, 1, 56, 59
3, 103236, Note_on_c, 1, 56, 0
3, 103236, Note_on_c, 1, 53, 0
3, 103320, Note_on_c, 1, 53, 56
3, 103320, Note_on_c, 1, 56, 56
3, 103356, Note_on_c, 1, 56, 0
3, 103356, Note_on_c, 1, 53, 0
3, 103440, Note_on_c, 1, 53, 53
3, 103440, Note_on_c, 1, 56, 53
3, 103476, Note_on_c, 1, 56, 0
3, 103476, Note_on_c, 1, 53, 0
3, 103560, Note_on_c, 1, 53, 51
3, 103560, Note_on_c, 1, 56, 51
3, 103596, Note_on_c, 1, 56, 0
3, 103596, Note_on_c, 1, 53, 0
3, 103800, Note_on_c, 1, 42, 48
3, 103920, Note_on_c, 1, 42, 0
3, 103920, Note_on_c, 1, 43, 48
3, 104040, Note_on_c, 1, 43, 0
3, 104040, Note_on_c, 1, 42, 48
3, 104160, Note_on_c, 1, 42, 0
3, 104160, Note_on_c, 1, 43, 48
3, 104280, Note_on_c, 1, 43, 0
3, 104280, Note_on_c, 1, 42, 48
3, 104400, Note_on_c, 1, 42, 0
3, 104400, Note_on_c, 1, 43, 48
3, 105120, Note_on_c, 1, 43, 0
3, 105120, Note_on_c, 1, 48, 48
3, 105240, Note_on_c, 1, 52, 51
3, 105360, Note_on_c, 1, 52, 0
3, 105360, Note_on_c, 1, 53, 53
3, 105480, Note_on_c, 1, 53, 0
3, 105480, Note_on_c, 1, 52, 56
3, 105600, Note_on_c, 1, 52, 0
3, 105600, Note_on_c, 1, 53, 59
3, 105720, Note_on_c, 1, 53, 0
3, 105720, Note_on_c, 1, 52, 61
3, 105840, Note_on_c, 1, 52, 0
3, 105840, Note_on_c, 1, 53, 64
3, 105912, Note_on_c, 1, 53, 0
3, 105960, Note_on_c, 1, 55, 67
3, 106080, Note_on_c, 1, 55, 0
3, 106080, Note_on_c, 1, 56, 69
3, 106200, Note_on_c, 1, 56, 0
3, 106200, Note_on_c, 1, 55, 72
3, 106320, Note_on_c, 1, 55, 0
3, 106320, Note_on_c, 1, 56, 75
3, 106440, Note_on_c, 1, 56, 0
3, 106440, Note_on_c, 1, 55, 77
3, 106560, Note_on_c, 1, 55, 0
3, 106560, Note_on_c, 1, 56, 80
3, 106632, Note_on_c, 1, 56, 0
3, 106680, Note_on_c, 1, 54, 77
3, 106800, Note_on_c, 1, 54, 0
3, 106800, Note_on_c, 1, 55, 75
3, 106920, Note_on_c, 1, 55, 0
3, 106920, Note_on_c, 1, 54, 72
3, 107040, Note_on_c, 1, 54, 0
3, 107040, Note_on_c, 1, 55, 69
3, 107160, Note_on_c, 1, 55, 0
3, 107160, Note_on_c, 1, 54, 67
3, 107280, Note_on_c, 1, 54, 0
3, 107280, Note_on_c, 1, 55, 64
3, 107352, Note_on_c, 1, 55, 0
3, 107400, Note_on_c, 1, 52, 61
3, 107520, Note_on_c, 1, 52, 0
3, 107520, Note_on_c, 1, 53, 59
3, 107640, Note_on_c, 1, 53, 0
3, 107640, Note_on_c, 1, 52, 56
3, 107760, Note_on_c, 1, 52, 0
3, 107760, Note_on_c, 1, 53, 53
3, 107880, Note_on_c, 1, 53, 0
3, 107880, Note_on_c, 1, 52, 51
3, 108000, Note_on_c, 1, 52, 0
3, 108000, Note_on_c, 1, 53, 48
3, 108072, Note_on_c, 1, 53, 0
3, 108120, Note_on_c, 1, 56, 80
3, 108240, Note_on_c, 1, 56, 0
3, 108240, Note_on_c, 1, 48, 0
3, 108240, Note_on_c, 1, 55, 80
3, 108360, Note_on_c, 1, 55, 0
3, 108360, Note_on_c, 1, 53, 80
3, 108480, Note_on_c, 1, 53, 0
3, 108480, Note_on_c, 1, 51, 80
3, 108600, Note_on_c, 1, 51, 0
3, 108600, Note_on_c, 1, 50, 80
3, 108720, Note_on_c, 1, 50, 0
3, 108720, Note_on_c, 1, 36, 80
3, 108720, Note_on_c, 1, 48, 80
3, 108720, Note_on_c, 1, 50, 80
3, 108720, Note_on_c, 1, 53, 80
3, 109440, Note_on_c, 1, 53, 0
3, 109440, Note_on_c, 1, 36, 0
3, 109440, Note_on_c, 1, 48, 0
3, 109440, Note_on_c, 1, 50, 0
3, 109440, Note_on_c, 1, 36, 64
3, 109440, Note_on_c, 1, 48, 64
3, 109440, Note_on_c, 1, 51, 64
3, 109440, Note_on_c, 1, 55, 64
3, 109680, Note_on_c, 1, 55, 0
3, 109680, Note_on_c, 1, 36, 0
3, 109680, Note_on_c, 1, 48, 0
3, 109680, Note_on_c, 1, 51, 0
3, 109680, End_track
4, 0, Start_track
4, 0, MIDI_port, 0
4, 0, Title_t, "MIDI by Marty Weimer  4/27/97"
4, 0, End_track
5, 0, Start_track
5, 0, MIDI_port, 0
5, 0, Title_t, "weimermt@libby.org  Eureka, MT  USA"
5, 0, End_track
0, 0, End_of_file
