0, 0, Header, 1, 5, 240
1, 0, Start_track
1, 0, Time_signature, 4, 2, 24, 8
1, 0, Key_signature, 0, "major"
1, 0, Tempo, 750000
1, 19440, Tempo, 857143
1, 19680, Tempo, 1000000
1, 19920, Tempo, 1200000
1, 20160, Time_signature, 2, 2, 24, 8
1, 20160, Tempo, 750000
1, 20640, Time_signature, 4, 2, 24, 8
1, 29520, Tempo, 800000
1, 29760, Tempo, 857143
1, 30000, Tempo, 923077
1, 30240, Tempo, 750000
1, 54240, Time_signature, 1, 2, 24, 8
1, 54480, Time_signature, 4, 2, 24, 8
1, 65280, Tempo, 857143
1, 65520, Tempo, 1000000
1, 65760, Tempo, 1200000
1, 66000, Time_signature, 2, 2, 24, 8
1, 66000, Tempo, 750000
1, 66480, Time_signature, 4, 2, 24, 8
1, 66480, End_track
2, 0, Start_track
2, 0, MIDI_port, 0
2, 0, Title_t, "Piano Sonata No.38 in E Flat"
2, 0, Program_c, 0, 0
2, 0, Control_c, 0, 7, 127
2, 0, Control_c, 0, 10, 72
2, 0, Note_on_c, 0, 75, 64
2, 240, Note_on_c, 0, 75, 0
2, 240, Note_on_c, 0, 70, 64
2, 420, Note_on_c, 0, 70, 0
2, 420, Note_on_c, 0, 68, 64
2, 480, Note_on_c, 0, 68, 0
2, 480, Note_on_c, 0, 68, 64
2, 720, Note_on_c, 0, 68, 0
2, 720, Note_on_c, 0, 67, 64
2, 750, Note_on_c, 0, 67, 0
2, 750, Note_on_c, 0, 68, 64
2, 780, Note_on_c, 0, 68, 0
2, 780, Note_on_c, 0, 67, 64
2, 800, Note_on_c, 0, 67, 0
2, 800, Note_on_c, 0, 68, 64
2, 820, Note_on_c, 0, 68, 0
2, 820, Note_on_c, 0, 67, 64
2, 840, Note_on_c, 0, 67, 0
2, 840, Note_on_c, 0, 65, 64
2, 960, Note_on_c, 0, 65, 0
2, 960, Note_on_c, 0, 63, 64
2, 1080, Note_on_c, 0, 63, 0
2, 1080, Note_on_c, 0, 68, 64
2, 1140, Note_on_c, 0, 68, 0
2, 1200, Note_on_c, 0, 65, 64
2, 1320, Note_on_c, 0, 65, 0
2, 1320, Note_on_c, 0, 70, 64
2, 1380, Note_on_c, 0, 70, 0
2, 1440, Note_on_c, 0, 68, 64
2, 1680, Note_on_c, 0, 68, 0
2, 1680, Note_on_c, 0, 67, 64
2, 1710, Note_on_c, 0, 67, 0
2, 1710, Note_on_c, 0, 68, 64
2, 1740, Note_on_c, 0, 68, 0
2, 1740, Note_on_c, 0, 67, 64
2, 1760, Note_on_c, 0, 67, 0
2, 1760, Note_on_c, 0, 68, 64
2, 1780, Note_on_c, 0, 68, 0
2, 1780, Note_on_c, 0, 67, 64
2, 1800, Note_on_c, 0, 67, 0
2, 1800, Note_on_c, 0, 65, 64
2, 1920, Note_on_c, 0, 65, 0
2, 1920, Note_on_c, 0, 63, 64
2, 1983, Note_on_c, 0, 63, 0
2, 2010, Note_on_c, 0, 68, 64
2, 2040, Note_on_c, 0, 68, 0
2, 2040, Note_on_c, 0, 68, 64
2, 2070, Note_on_c, 0, 68, 0
2, 2070, Note_on_c, 0, 70, 64
2, 2100, Note_on_c, 0, 70, 0
2, 2100, Note_on_c, 0, 68, 64
2, 2120, Note_on_c, 0, 68, 0
2, 2120, Note_on_c, 0, 70, 64
2, 2140, Note_on_c, 0, 70, 0
2, 2140, Note_on_c, 0, 68, 64
2, 2160, Note_on_c, 0, 68, 0
2, 2160, Note_on_c, 0, 65, 64
2, 2223, Note_on_c, 0, 65, 0
2, 2250, Note_on_c, 0, 70, 64
2, 2280, Note_on_c, 0, 70, 0
2, 2280, Note_on_c, 0, 70, 64
2, 2310, Note_on_c, 0, 70, 0
2, 2310, Note_on_c, 0, 72, 64
2, 2340, Note_on_c, 0, 72, 0
2, 2340, Note_on_c, 0, 70, 64
2, 2360, Note_on_c, 0, 70, 0
2, 2360, Note_on_c, 0, 72, 64
2, 2380, Note_on_c, 0, 72, 0
2, 2380, Note_on_c, 0, 70, 64
2, 2400, Note_on_c, 0, 70, 0
2, 2400, Note_on_c, 0, 68, 64
2, 2520, Note_on_c, 0, 68, 0
2, 2520, Note_on_c, 0, 67, 64
2, 2610, Note_on_c, 0, 67, 0
2, 2610, Note_on_c, 0, 79, 64
2, 2640, Note_on_c, 0, 79, 0
2, 2640, Note_on_c, 0, 75, 64
2, 2700, Note_on_c, 0, 75, 0
2, 2850, Note_on_c, 0, 75, 64
2, 2880, Note_on_c, 0, 75, 0
2, 2880, Note_on_c, 0, 72, 64
2, 2940, Note_on_c, 0, 72, 0
2, 3090, Note_on_c, 0, 72, 64
2, 3120, Note_on_c, 0, 72, 0
2, 3120, Note_on_c, 0, 70, 64
2, 3210, Note_on_c, 0, 70, 0
2, 3210, Note_on_c, 0, 68, 64
2, 3240, Note_on_c, 0, 68, 0
2, 3240, Note_on_c, 0, 65, 64
2, 3330, Note_on_c, 0, 65, 0
2, 3330, Note_on_c, 0, 62, 64
2, 3360, Note_on_c, 0, 62, 0
2, 3360, Note_on_c, 0, 63, 64
2, 3480, Note_on_c, 0, 63, 0
2, 3840, Note_on_c, 0, 75, 80
2, 4020, Note_on_c, 0, 75, 0
2, 4020, Note_on_c, 0, 79, 80
2, 4050, Note_on_c, 0, 79, 0
2, 4050, Note_on_c, 0, 82, 80
2, 4080, Note_on_c, 0, 82, 0
2, 4080, Note_on_c, 0, 70, 80
2, 4200, Note_on_c, 0, 70, 0
2, 4200, Note_on_c, 0, 68, 80
2, 4260, Note_on_c, 0, 68, 0
2, 4260, Note_on_c, 0, 67, 80
2, 4280, Note_on_c, 0, 67, 0
2, 4280, Note_on_c, 0, 68, 80
2, 4300, Note_on_c, 0, 68, 0
2, 4300, Note_on_c, 0, 70, 80
2, 4320, Note_on_c, 0, 70, 0
2, 4320, Note_on_c, 0, 68, 80
2, 4560, Note_on_c, 0, 68, 0
2, 4560, Note_on_c, 0, 67, 80
2, 4590, Note_on_c, 0, 67, 0
2, 4590, Note_on_c, 0, 68, 80
2, 4620, Note_on_c, 0, 68, 0
2, 4620, Note_on_c, 0, 67, 80
2, 4640, Note_on_c, 0, 67, 0
2, 4640, Note_on_c, 0, 68, 80
2, 4660, Note_on_c, 0, 68, 0
2, 4660, Note_on_c, 0, 67, 80
2, 4680, Note_on_c, 0, 67, 0
2, 4680, Note_on_c, 0, 65, 80
2, 4800, Note_on_c, 0, 65, 0
2, 4800, Note_on_c, 0, 63, 80
2, 4920, Note_on_c, 0, 63, 0
2, 4920, Note_on_c, 0, 68, 88
2, 4980, Note_on_c, 0, 68, 0
2, 5040, Note_on_c, 0, 65, 80
2, 5160, Note_on_c, 0, 65, 0
2, 5160, Note_on_c, 0, 70, 88
2, 5220, Note_on_c, 0, 70, 0
2, 5280, Note_on_c, 0, 68, 80
2, 5520, Note_on_c, 0, 68, 0
2, 5520, Note_on_c, 0, 67, 80
2, 5550, Note_on_c, 0, 67, 0
2, 5550, Note_on_c, 0, 68, 80
2, 5580, Note_on_c, 0, 68, 0
2, 5580, Note_on_c, 0, 67, 80
2, 5600, Note_on_c, 0, 67, 0
2, 5600, Note_on_c, 0, 68, 80
2, 5620, Note_on_c, 0, 68, 0
2, 5620, Note_on_c, 0, 67, 80
2, 5640, Note_on_c, 0, 67, 0
2, 5640, Note_on_c, 0, 65, 80
2, 5760, Note_on_c, 0, 65, 0
2, 5760, Note_on_c, 0, 63, 80
2, 5820, Note_on_c, 0, 63, 0
2, 5820, Note_on_c, 0, 70, 80
2, 5850, Note_on_c, 0, 70, 0
2, 5880, Note_on_c, 0, 68, 80
2, 5910, Note_on_c, 0, 68, 0
2, 5940, Note_on_c, 0, 67, 80
2, 5970, Note_on_c, 0, 67, 0
2, 6000, Note_on_c, 0, 65, 80
2, 6060, Note_on_c, 0, 65, 0
2, 6060, Note_on_c, 0, 72, 80
2, 6120, Note_on_c, 0, 72, 0
2, 6120, Note_on_c, 0, 70, 80
2, 6180, Note_on_c, 0, 70, 0
2, 6180, Note_on_c, 0, 68, 80
2, 6210, Note_on_c, 0, 68, 0
2, 6210, Note_on_c, 0, 67, 80
2, 6225, Note_on_c, 0, 67, 0
2, 6225, Note_on_c, 0, 70, 80
2, 6240, Note_on_c, 0, 70, 0
2, 6240, Note_on_c, 0, 68, 80
2, 6360, Note_on_c, 0, 68, 0
2, 6360, Note_on_c, 0, 67, 80
2, 6420, Note_on_c, 0, 67, 0
2, 6420, Note_on_c, 0, 79, 80
2, 6480, Note_on_c, 0, 79, 0
2, 6480, Note_on_c, 0, 74, 80
2, 6510, Note_on_c, 0, 74, 0
2, 6510, Note_on_c, 0, 77, 80
2, 6540, Note_on_c, 0, 77, 0
2, 6540, Note_on_c, 0, 75, 80
2, 6570, Note_on_c, 0, 75, 0
2, 6660, Note_on_c, 0, 75, 80
2, 6720, Note_on_c, 0, 75, 0
2, 6720, Note_on_c, 0, 71, 80
2, 6750, Note_on_c, 0, 71, 0
2, 6750, Note_on_c, 0, 74, 80
2, 6780, Note_on_c, 0, 74, 0
2, 6780, Note_on_c, 0, 72, 80
2, 6822, Note_on_c, 0, 72, 0
2, 6900, Note_on_c, 0, 72, 80
2, 6960, Note_on_c, 0, 72, 0
2, 6960, Note_on_c, 0, 67, 80
2, 6990, Note_on_c, 0, 67, 0
2, 6990, Note_on_c, 0, 70, 80
2, 7020, Note_on_c, 0, 70, 0
2, 7020, Note_on_c, 0, 68, 80
2, 7080, Note_on_c, 0, 68, 0
2, 7140, Note_on_c, 0, 65, 80
2, 7170, Note_on_c, 0, 65, 0
2, 7170, Note_on_c, 0, 62, 80
2, 7200, Note_on_c, 0, 62, 0
2, 7200, Note_on_c, 0, 63, 80
2, 7284, Note_on_c, 0, 63, 0
2, 7320, Note_on_c, 0, 63, 80
2, 7404, Note_on_c, 0, 63, 0
2, 7440, Note_on_c, 0, 63, 80
2, 7560, Note_on_c, 0, 63, 0
2, 7560, Note_on_c, 0, 63, 80
2, 7680, Note_on_c, 0, 63, 0
2, 7680, Note_on_c, 0, 63, 80
2, 7752, Note_on_c, 0, 63, 0
2, 7800, Note_on_c, 0, 63, 80
2, 7890, Note_on_c, 0, 63, 0
2, 7890, Note_on_c, 0, 63, 80
2, 7920, Note_on_c, 0, 63, 0
2, 7920, Note_on_c, 0, 63, 80
2, 8010, Note_on_c, 0, 63, 0
2, 8010, Note_on_c, 0, 63, 80
2, 8040, Note_on_c, 0, 63, 0
2, 8040, Note_on_c, 0, 63, 80
2, 8130, Note_on_c, 0, 63, 0
2, 8130, Note_on_c, 0, 63, 80
2, 8160, Note_on_c, 0, 63, 0
2, 8160, Note_on_c, 0, 63, 80
2, 8232, Note_on_c, 0, 63, 0
2, 8280, Note_on_c, 0, 62, 80
2, 8310, Note_on_c, 0, 62, 0
2, 8310, Note_on_c, 0, 63, 80
2, 8340, Note_on_c, 0, 63, 0
2, 8340, Note_on_c, 0, 65, 80
2, 8370, Note_on_c, 0, 65, 0
2, 8370, Note_on_c, 0, 63, 80
2, 8400, Note_on_c, 0, 63, 0
2, 8400, Note_on_c, 0, 62, 80
2, 8430, Note_on_c, 0, 62, 0
2, 8430, Note_on_c, 0, 63, 80
2, 8460, Note_on_c, 0, 63, 0
2, 8460, Note_on_c, 0, 65, 80
2, 8490, Note_on_c, 0, 65, 0
2, 8490, Note_on_c, 0, 63, 80
2, 8520, Note_on_c, 0, 63, 0
2, 8520, Note_on_c, 0, 62, 80
2, 8550, Note_on_c, 0, 62, 0
2, 8550, Note_on_c, 0, 63, 80
2, 8580, Note_on_c, 0, 63, 0
2, 8580, Note_on_c, 0, 65, 80
2, 8610, Note_on_c, 0, 65, 0
2, 8610, Note_on_c, 0, 63, 80
2, 8640, Note_on_c, 0, 63, 0
2, 8640, Note_on_c, 0, 62, 80
2, 8670, Note_on_c, 0, 62, 0
2, 8670, Note_on_c, 0, 63, 80
2, 8700, Note_on_c, 0, 63, 0
2, 8700, Note_on_c, 0, 65, 80
2, 8730, Note_on_c, 0, 65, 0
2, 8730, Note_on_c, 0, 67, 80
2, 8760, Note_on_c, 0, 67, 0
2, 8760, Note_on_c, 0, 68, 80
2, 8790, Note_on_c, 0, 68, 0
2, 8790, Note_on_c, 0, 70, 80
2, 8820, Note_on_c, 0, 70, 0
2, 8820, Note_on_c, 0, 72, 80
2, 8850, Note_on_c, 0, 72, 0
2, 8850, Note_on_c, 0, 74, 80
2, 8880, Note_on_c, 0, 74, 0
2, 8880, Note_on_c, 0, 75, 80
2, 8910, Note_on_c, 0, 75, 0
2, 8910, Note_on_c, 0, 77, 80
2, 8940, Note_on_c, 0, 77, 0
2, 8940, Note_on_c, 0, 79, 80
2, 8970, Note_on_c, 0, 79, 0
2, 8970, Note_on_c, 0, 80, 80
2, 9000, Note_on_c, 0, 80, 0
2, 9000, Note_on_c, 0, 82, 80
2, 9030, Note_on_c, 0, 82, 0
2, 9030, Note_on_c, 0, 80, 80
2, 9060, Note_on_c, 0, 80, 0
2, 9060, Note_on_c, 0, 79, 80
2, 9090, Note_on_c, 0, 79, 0
2, 9090, Note_on_c, 0, 77, 80
2, 9120, Note_on_c, 0, 77, 0
2, 9120, Note_on_c, 0, 75, 80
2, 9150, Note_on_c, 0, 75, 0
2, 9150, Note_on_c, 0, 74, 80
2, 9180, Note_on_c, 0, 74, 0
2, 9180, Note_on_c, 0, 72, 80
2, 9210, Note_on_c, 0, 72, 0
2, 9210, Note_on_c, 0, 70, 80
2, 9240, Note_on_c, 0, 70, 0
2, 9240, Note_on_c, 0, 72, 80
2, 9270, Note_on_c, 0, 72, 0
2, 9270, Note_on_c, 0, 74, 80
2, 9300, Note_on_c, 0, 74, 0
2, 9300, Note_on_c, 0, 75, 80
2, 9330, Note_on_c, 0, 75, 0
2, 9330, Note_on_c, 0, 77, 80
2, 9360, Note_on_c, 0, 77, 0
2, 9360, Note_on_c, 0, 79, 80
2, 9390, Note_on_c, 0, 79, 0
2, 9390, Note_on_c, 0, 77, 80
2, 9420, Note_on_c, 0, 77, 0
2, 9420, Note_on_c, 0, 75, 80
2, 9450, Note_on_c, 0, 75, 0
2, 9450, Note_on_c, 0, 74, 80
2, 9480, Note_on_c, 0, 74, 0
2, 9480, Note_on_c, 0, 72, 80
2, 9510, Note_on_c, 0, 72, 0
2, 9510, Note_on_c, 0, 70, 80
2, 9540, Note_on_c, 0, 70, 0
2, 9540, Note_on_c, 0, 68, 80
2, 9570, Note_on_c, 0, 68, 0
2, 9570, Note_on_c, 0, 67, 80
2, 9600, Note_on_c, 0, 67, 0
2, 9600, Note_on_c, 0, 65, 80
2, 9630, Note_on_c, 0, 65, 0
2, 9630, Note_on_c, 0, 67, 80
2, 9660, Note_on_c, 0, 67, 0
2, 9660, Note_on_c, 0, 68, 80
2, 9690, Note_on_c, 0, 68, 0
2, 9690, Note_on_c, 0, 70, 80
2, 9720, Note_on_c, 0, 70, 0
2, 9720, Note_on_c, 0, 72, 80
2, 9750, Note_on_c, 0, 72, 0
2, 9750, Note_on_c, 0, 70, 80
2, 9780, Note_on_c, 0, 70, 0
2, 9780, Note_on_c, 0, 68, 80
2, 9810, Note_on_c, 0, 68, 0
2, 9810, Note_on_c, 0, 67, 80
2, 9840, Note_on_c, 0, 67, 0
2, 9840, Note_on_c, 0, 65, 80
2, 9870, Note_on_c, 0, 65, 0
2, 9870, Note_on_c, 0, 67, 80
2, 9900, Note_on_c, 0, 67, 0
2, 9900, Note_on_c, 0, 65, 80
2, 9930, Note_on_c, 0, 65, 0
2, 9930, Note_on_c, 0, 63, 80
2, 9960, Note_on_c, 0, 63, 0
2, 9960, Note_on_c, 0, 62, 80
2, 9990, Note_on_c, 0, 62, 0
2, 9990, Note_on_c, 0, 63, 80
2, 10020, Note_on_c, 0, 63, 0
2, 10020, Note_on_c, 0, 62, 80
2, 10050, Note_on_c, 0, 62, 0
2, 10050, Note_on_c, 0, 60, 80
2, 10080, Note_on_c, 0, 60, 0
2, 10080, Note_on_c, 0, 58, 80
2, 10140, Note_on_c, 0, 58, 0
2, 10140, Note_on_c, 0, 60, 80
2, 10170, Note_on_c, 0, 60, 0
2, 10170, Note_on_c, 0, 62, 80
2, 10200, Note_on_c, 0, 62, 0
2, 10200, Note_on_c, 0, 63, 80
2, 10230, Note_on_c, 0, 63, 0
2, 10230, Note_on_c, 0, 65, 80
2, 10260, Note_on_c, 0, 65, 0
2, 10260, Note_on_c, 0, 67, 80
2, 10290, Note_on_c, 0, 67, 0
2, 10290, Note_on_c, 0, 69, 80
2, 10320, Note_on_c, 0, 69, 0
2, 10320, Note_on_c, 0, 70, 80
2, 10365, Note_on_c, 0, 70, 0
2, 10410, Note_on_c, 0, 70, 80
2, 10440, Note_on_c, 0, 70, 0
2, 10440, Note_on_c, 0, 65, 80
2, 10485, Note_on_c, 0, 65, 0
2, 10530, Note_on_c, 0, 62, 80
2, 10560, Note_on_c, 0, 62, 0
2, 10560, Note_on_c, 0, 58, 80
2, 10644, Note_on_c, 0, 58, 0
2, 10800, Note_on_c, 0, 58, 80
2, 10845, Note_on_c, 0, 58, 0
2, 10890, Note_on_c, 0, 58, 80
2, 10920, Note_on_c, 0, 58, 0
2, 10920, Note_on_c, 0, 53, 80
2, 10965, Note_on_c, 0, 53, 0
2, 11010, Note_on_c, 0, 50, 80
2, 11040, Note_on_c, 0, 50, 0
2, 11040, Note_on_c, 0, 46, 80
2, 11160, Note_on_c, 0, 46, 0
2, 11520, Note_on_c, 0, 82, 80
2, 11760, Note_on_c, 0, 82, 0
2, 11760, Note_on_c, 0, 77, 80
2, 11940, Note_on_c, 0, 77, 0
2, 11940, Note_on_c, 0, 75, 80
2, 12000, Note_on_c, 0, 75, 0
2, 12000, Note_on_c, 0, 75, 80
2, 12240, Note_on_c, 0, 75, 0
2, 12240, Note_on_c, 0, 74, 80
2, 12270, Note_on_c, 0, 74, 0
2, 12270, Note_on_c, 0, 75, 80
2, 12300, Note_on_c, 0, 75, 0
2, 12300, Note_on_c, 0, 74, 80
2, 12320, Note_on_c, 0, 74, 0
2, 12320, Note_on_c, 0, 75, 80
2, 12340, Note_on_c, 0, 75, 0
2, 12340, Note_on_c, 0, 74, 80
2, 12360, Note_on_c, 0, 74, 0
2, 12360, Note_on_c, 0, 72, 80
2, 12480, Note_on_c, 0, 72, 0
2, 12480, Note_on_c, 0, 70, 80
2, 12540, Note_on_c, 0, 70, 0
2, 12600, Note_on_c, 0, 70, 56
2, 12684, Note_on_c, 0, 70, 0
2, 12720, Note_on_c, 0, 70, 56
2, 12804, Note_on_c, 0, 70, 0
2, 12840, Note_on_c, 0, 70, 56
2, 12924, Note_on_c, 0, 70, 0
2, 12960, Note_on_c, 0, 72, 56
2, 13020, Note_on_c, 0, 72, 0
2, 13020, Note_on_c, 0, 74, 56
2, 13080, Note_on_c, 0, 74, 0
2, 13080, Note_on_c, 0, 75, 56
2, 13140, Note_on_c, 0, 75, 0
2, 13140, Note_on_c, 0, 69, 56
2, 13200, Note_on_c, 0, 69, 0
2, 13200, Note_on_c, 0, 70, 56
2, 13260, Note_on_c, 0, 70, 0
2, 13320, Note_on_c, 0, 70, 56
2, 13380, Note_on_c, 0, 70, 0
2, 13440, Note_on_c, 0, 72, 56
2, 13500, Note_on_c, 0, 72, 0
2, 13500, Note_on_c, 0, 74, 58
2, 13560, Note_on_c, 0, 74, 0
2, 13560, Note_on_c, 0, 75, 59
2, 13620, Note_on_c, 0, 75, 0
2, 13620, Note_on_c, 0, 69, 61
2, 13680, Note_on_c, 0, 69, 0
2, 13680, Note_on_c, 0, 70, 62
2, 13740, Note_on_c, 0, 70, 0
2, 13740, Note_on_c, 0, 72, 64
2, 13800, Note_on_c, 0, 72, 0
2, 13800, Note_on_c, 0, 74, 65
2, 13860, Note_on_c, 0, 74, 0
2, 13860, Note_on_c, 0, 70, 67
2, 13920, Note_on_c, 0, 70, 0
2, 13920, Note_on_c, 0, 72, 68
2, 13980, Note_on_c, 0, 72, 0
2, 13980, Note_on_c, 0, 74, 70
2, 14040, Note_on_c, 0, 74, 0
2, 14040, Note_on_c, 0, 75, 71
2, 14100, Note_on_c, 0, 75, 0
2, 14100, Note_on_c, 0, 69, 73
2, 14160, Note_on_c, 0, 69, 0
2, 14160, Note_on_c, 0, 70, 74
2, 14220, Note_on_c, 0, 70, 0
2, 14220, Note_on_c, 0, 72, 76
2, 14280, Note_on_c, 0, 72, 0
2, 14280, Note_on_c, 0, 74, 77
2, 14340, Note_on_c, 0, 74, 0
2, 14340, Note_on_c, 0, 70, 79
2, 14400, Note_on_c, 0, 70, 0
2, 14400, Note_on_c, 0, 72, 80
2, 14460, Note_on_c, 0, 72, 0
2, 14460, Note_on_c, 0, 74, 80
2, 14520, Note_on_c, 0, 74, 0
2, 14520, Note_on_c, 0, 75, 80
2, 14580, Note_on_c, 0, 75, 0
2, 14580, Note_on_c, 0, 69, 80
2, 14640, Note_on_c, 0, 69, 0
2, 14640, Note_on_c, 0, 70, 80
2, 14700, Note_on_c, 0, 70, 0
2, 14760, Note_on_c, 0, 77, 80
2, 14820, Note_on_c, 0, 77, 0
2, 14880, Note_on_c, 0, 77, 80
2, 14880, Note_on_c, 0, 70, 80
2, 14940, Note_on_c, 0, 70, 0
2, 14940, Note_on_c, 0, 72, 80
2, 15000, Note_on_c, 0, 72, 0
2, 15000, Note_on_c, 0, 73, 80
2, 15060, Note_on_c, 0, 73, 0
2, 15060, Note_on_c, 0, 69, 80
2, 15120, Note_on_c, 0, 69, 0
2, 15120, Note_on_c, 0, 77, 0
2, 15120, Note_on_c, 0, 76, 80
2, 15120, Note_on_c, 0, 70, 80
2, 15180, Note_on_c, 0, 70, 0
2, 15180, Note_on_c, 0, 73, 80
2, 15240, Note_on_c, 0, 73, 0
2, 15240, Note_on_c, 0, 72, 80
2, 15300, Note_on_c, 0, 72, 0
2, 15300, Note_on_c, 0, 70, 80
2, 15360, Note_on_c, 0, 70, 0
2, 15360, Note_on_c, 0, 76, 0
2, 15360, Note_on_c, 0, 75, 80
2, 15420, Note_on_c, 0, 75, 0
2, 15420, Note_on_c, 0, 77, 78
2, 15480, Note_on_c, 0, 77, 0
2, 15480, Note_on_c, 0, 79, 77
2, 15540, Note_on_c, 0, 79, 0
2, 15540, Note_on_c, 0, 74, 75
2, 15600, Note_on_c, 0, 74, 0
2, 15600, Note_on_c, 0, 75, 74
2, 15660, Note_on_c, 0, 75, 0
2, 15660, Note_on_c, 0, 84, 72
2, 15720, Note_on_c, 0, 84, 0
2, 15720, Note_on_c, 0, 81, 71
2, 15780, Note_on_c, 0, 81, 0
2, 15780, Note_on_c, 0, 75, 69
2, 15840, Note_on_c, 0, 75, 0
2, 15840, Note_on_c, 0, 74, 68
2, 15900, Note_on_c, 0, 74, 0
2, 15900, Note_on_c, 0, 75, 66
2, 15960, Note_on_c, 0, 75, 0
2, 15960, Note_on_c, 0, 77, 65
2, 16020, Note_on_c, 0, 77, 0
2, 16020, Note_on_c, 0, 73, 63
2, 16080, Note_on_c, 0, 73, 0
2, 16080, Note_on_c, 0, 74, 62
2, 16140, Note_on_c, 0, 74, 0
2, 16140, Note_on_c, 0, 82, 60
2, 16200, Note_on_c, 0, 82, 0
2, 16200, Note_on_c, 0, 81, 59
2, 16260, Note_on_c, 0, 81, 0
2, 16260, Note_on_c, 0, 84, 57
2, 16320, Note_on_c, 0, 84, 0
2, 16320, Note_on_c, 0, 82, 56
2, 16380, Note_on_c, 0, 82, 0
2, 16380, Note_on_c, 0, 85, 56
2, 16440, Note_on_c, 0, 85, 0
2, 16440, Note_on_c, 0, 84, 56
2, 16500, Note_on_c, 0, 84, 0
2, 16500, Note_on_c, 0, 87, 56
2, 16560, Note_on_c, 0, 87, 0
2, 16560, Note_on_c, 0, 85, 56
2, 16620, Note_on_c, 0, 85, 0
2, 16680, Note_on_c, 0, 73, 56
2, 16740, Note_on_c, 0, 73, 0
2, 16800, Note_on_c, 0, 73, 56
2, 16830, Note_on_c, 0, 73, 0
2, 16830, Note_on_c, 0, 75, 56
2, 16860, Note_on_c, 0, 75, 0
2, 16860, Note_on_c, 0, 73, 56
2, 16880, Note_on_c, 0, 73, 0
2, 16880, Note_on_c, 0, 75, 56
2, 16900, Note_on_c, 0, 75, 0
2, 16900, Note_on_c, 0, 73, 56
2, 16920, Note_on_c, 0, 73, 0
2, 16920, Note_on_c, 0, 72, 56
2, 17040, Note_on_c, 0, 72, 0
2, 17220, Note_on_c, 0, 62, 80
2, 17250, Note_on_c, 0, 62, 0
2, 17250, Note_on_c, 0, 65, 80
2, 17280, Note_on_c, 0, 65, 0
2, 17280, Note_on_c, 0, 70, 80
2, 17460, Note_on_c, 0, 70, 0
2, 17460, Note_on_c, 0, 65, 80
2, 17490, Note_on_c, 0, 65, 0
2, 17490, Note_on_c, 0, 70, 80
2, 17520, Note_on_c, 0, 70, 0
2, 17520, Note_on_c, 0, 74, 80
2, 17700, Note_on_c, 0, 74, 0
2, 17700, Note_on_c, 0, 70, 80
2, 17730, Note_on_c, 0, 70, 0
2, 17730, Note_on_c, 0, 74, 80
2, 17760, Note_on_c, 0, 74, 0
2, 17760, Note_on_c, 0, 77, 80
2, 17820, Note_on_c, 0, 77, 0
2, 18120, Note_on_c, 0, 82, 56
2, 18200, Note_on_c, 0, 82, 0
2, 18200, Note_on_c, 0, 84, 56
2, 18220, Note_on_c, 0, 84, 0
2, 18220, Note_on_c, 0, 86, 56
2, 18240, Note_on_c, 0, 86, 0
2, 18240, Note_on_c, 0, 77, 56
2, 18300, Note_on_c, 0, 77, 0
2, 18360, Note_on_c, 0, 82, 56
2, 18440, Note_on_c, 0, 82, 0
2, 18440, Note_on_c, 0, 84, 56
2, 18460, Note_on_c, 0, 84, 0
2, 18460, Note_on_c, 0, 86, 56
2, 18480, Note_on_c, 0, 86, 0
2, 18480, Note_on_c, 0, 76, 56
2, 18540, Note_on_c, 0, 76, 0
2, 18600, Note_on_c, 0, 81, 56
2, 18680, Note_on_c, 0, 81, 0
2, 18680, Note_on_c, 0, 82, 56
2, 18700, Note_on_c, 0, 82, 0
2, 18700, Note_on_c, 0, 84, 56
2, 18720, Note_on_c, 0, 84, 0
2, 18720, Note_on_c, 0, 75, 56
2, 19080, Note_on_c, 0, 75, 0
2, 19080, Note_on_c, 0, 74, 56
2, 19200, Note_on_c, 0, 74, 0
2, 19200, Note_on_c, 0, 74, 56
2, 19290, Note_on_c, 0, 74, 0
2, 19290, Note_on_c, 0, 72, 56
2, 19320, Note_on_c, 0, 72, 0
2, 19320, Note_on_c, 0, 75, 56
2, 19410, Note_on_c, 0, 75, 0
2, 19410, Note_on_c, 0, 79, 56
2, 19440, Note_on_c, 0, 79, 0
2, 19440, Note_on_c, 0, 77, 56
2, 19560, Note_on_c, 0, 77, 0
2, 19560, Note_on_c, 0, 72, 56
2, 19560, Note_on_c, 0, 75, 56
2, 19620, Note_on_c, 0, 75, 0
2, 19620, Note_on_c, 0, 72, 0
2, 19620, Note_on_c, 0, 74, 56
2, 19640, Note_on_c, 0, 74, 0
2, 19640, Note_on_c, 0, 75, 56
2, 19660, Note_on_c, 0, 75, 0
2, 19660, Note_on_c, 0, 77, 56
2, 19680, Note_on_c, 0, 77, 0
2, 19680, Note_on_c, 0, 72, 56
2, 19680, Note_on_c, 0, 75, 56
2, 19920, Note_on_c, 0, 75, 0
2, 19920, Note_on_c, 0, 72, 0
2, 19920, Note_on_c, 0, 70, 48
2, 19920, Note_on_c, 0, 74, 48
2, 19980, Note_on_c, 0, 74, 0
2, 19980, Note_on_c, 0, 70, 0
2, 20520, Note_on_c, 0, 82, 56
2, 20600, Note_on_c, 0, 82, 0
2, 20600, Note_on_c, 0, 84, 56
2, 20620, Note_on_c, 0, 84, 0
2, 20620, Note_on_c, 0, 86, 56
2, 20640, Note_on_c, 0, 86, 0
2, 20640, Note_on_c, 0, 77, 56
2, 20700, Note_on_c, 0, 77, 0
2, 20760, Note_on_c, 0, 82, 56
2, 20840, Note_on_c, 0, 82, 0
2, 20840, Note_on_c, 0, 84, 56
2, 20860, Note_on_c, 0, 84, 0
2, 20860, Note_on_c, 0, 86, 56
2, 20880, Note_on_c, 0, 86, 0
2, 20880, Note_on_c, 0, 76, 56
2, 20940, Note_on_c, 0, 76, 0
2, 21000, Note_on_c, 0, 81, 56
2, 21080, Note_on_c, 0, 81, 0
2, 21080, Note_on_c, 0, 82, 56
2, 21100, Note_on_c, 0, 82, 0
2, 21100, Note_on_c, 0, 84, 56
2, 21120, Note_on_c, 0, 84, 0
2, 21120, Note_on_c, 0, 75, 56
2, 21480, Note_on_c, 0, 75, 0
2, 21480, Note_on_c, 0, 74, 56
2, 21600, Note_on_c, 0, 74, 0
2, 21600, Note_on_c, 0, 79, 56
2, 21960, Note_on_c, 0, 79, 0
2, 21960, Note_on_c, 0, 84, 56
2, 22080, Note_on_c, 0, 84, 0
2, 22080, Note_on_c, 0, 82, 56
2, 22440, Note_on_c, 0, 82, 0
2, 22440, Note_on_c, 0, 81, 48
2, 22470, Note_on_c, 0, 81, 0
2, 22470, Note_on_c, 0, 82, 48
2, 22500, Note_on_c, 0, 82, 0
2, 22500, Note_on_c, 0, 84, 48
2, 22530, Note_on_c, 0, 84, 0
2, 22530, Note_on_c, 0, 86, 48
2, 22560, Note_on_c, 0, 86, 0
2, 22560, Note_on_c, 0, 87, 48
2, 22608, Note_on_c, 0, 87, 0
2, 22680, Note_on_c, 0, 87, 40
2, 22710, Note_on_c, 0, 87, 0
2, 22710, Note_on_c, 0, 86, 40
2, 22740, Note_on_c, 0, 86, 0
2, 22740, Note_on_c, 0, 84, 40
2, 22770, Note_on_c, 0, 84, 0
2, 22770, Note_on_c, 0, 82, 40
2, 22800, Note_on_c, 0, 82, 0
2, 22800, Note_on_c, 0, 81, 40
2, 22860, Note_on_c, 0, 81, 0
2, 22920, Note_on_c, 0, 81, 32
2, 22950, Note_on_c, 0, 81, 0
2, 22950, Note_on_c, 0, 82, 32
2, 22980, Note_on_c, 0, 82, 0
2, 22980, Note_on_c, 0, 84, 32
2, 23010, Note_on_c, 0, 84, 0
2, 23010, Note_on_c, 0, 86, 32
2, 23040, Note_on_c, 0, 86, 0
2, 23040, Note_on_c, 0, 87, 32
2, 23160, Note_on_c, 0, 87, 0
2, 23520, Note_on_c, 0, 86, 80
2, 23550, Note_on_c, 0, 86, 0
2, 23550, Note_on_c, 0, 84, 80
2, 23580, Note_on_c, 0, 84, 0
2, 23580, Note_on_c, 0, 82, 80
2, 23610, Note_on_c, 0, 82, 0
2, 23610, Note_on_c, 0, 81, 80
2, 23640, Note_on_c, 0, 81, 0
2, 23640, Note_on_c, 0, 82, 80
2, 23670, Note_on_c, 0, 82, 0
2, 23670, Note_on_c, 0, 81, 80
2, 23700, Note_on_c, 0, 81, 0
2, 23700, Note_on_c, 0, 79, 80
2, 23730, Note_on_c, 0, 79, 0
2, 23730, Note_on_c, 0, 77, 80
2, 23760, Note_on_c, 0, 77, 0
2, 23760, Note_on_c, 0, 75, 80
2, 23790, Note_on_c, 0, 75, 0
2, 23790, Note_on_c, 0, 74, 80
2, 23820, Note_on_c, 0, 74, 0
2, 23820, Note_on_c, 0, 72, 80
2, 23850, Note_on_c, 0, 72, 0
2, 23850, Note_on_c, 0, 70, 80
2, 23880, Note_on_c, 0, 70, 0
2, 23880, Note_on_c, 0, 69, 80
2, 23910, Note_on_c, 0, 69, 0
2, 23910, Note_on_c, 0, 70, 80
2, 23940, Note_on_c, 0, 70, 0
2, 23940, Note_on_c, 0, 69, 80
2, 23970, Note_on_c, 0, 69, 0
2, 23970, Note_on_c, 0, 70, 80
2, 24000, Note_on_c, 0, 70, 0
2, 24000, Note_on_c, 0, 86, 80
2, 24030, Note_on_c, 0, 86, 0
2, 24030, Note_on_c, 0, 84, 80
2, 24060, Note_on_c, 0, 84, 0
2, 24060, Note_on_c, 0, 82, 80
2, 24090, Note_on_c, 0, 82, 0
2, 24090, Note_on_c, 0, 81, 80
2, 24120, Note_on_c, 0, 81, 0
2, 24120, Note_on_c, 0, 82, 80
2, 24150, Note_on_c, 0, 82, 0
2, 24150, Note_on_c, 0, 81, 80
2, 24180, Note_on_c, 0, 81, 0
2, 24180, Note_on_c, 0, 79, 80
2, 24210, Note_on_c, 0, 79, 0
2, 24210, Note_on_c, 0, 77, 80
2, 24240, Note_on_c, 0, 77, 0
2, 24240, Note_on_c, 0, 75, 80
2, 24270, Note_on_c, 0, 75, 0
2, 24270, Note_on_c, 0, 74, 80
2, 24300, Note_on_c, 0, 74, 0
2, 24300, Note_on_c, 0, 72, 80
2, 24330, Note_on_c, 0, 72, 0
2, 24330, Note_on_c, 0, 70, 80
2, 24360, Note_on_c, 0, 70, 0
2, 24360, Note_on_c, 0, 69, 80
2, 24390, Note_on_c, 0, 69, 0
2, 24390, Note_on_c, 0, 70, 80
2, 24420, Note_on_c, 0, 70, 0
2, 24420, Note_on_c, 0, 69, 80
2, 24450, Note_on_c, 0, 69, 0
2, 24450, Note_on_c, 0, 70, 80
2, 24480, Note_on_c, 0, 70, 0
2, 24480, Note_on_c, 0, 79, 80
2, 24510, Note_on_c, 0, 79, 0
2, 24510, Note_on_c, 0, 77, 80
2, 24540, Note_on_c, 0, 77, 0
2, 24540, Note_on_c, 0, 75, 80
2, 24570, Note_on_c, 0, 75, 0
2, 24570, Note_on_c, 0, 74, 80
2, 24600, Note_on_c, 0, 74, 0
2, 24600, Note_on_c, 0, 75, 80
2, 24630, Note_on_c, 0, 75, 0
2, 24630, Note_on_c, 0, 74, 80
2, 24660, Note_on_c, 0, 74, 0
2, 24660, Note_on_c, 0, 72, 80
2, 24690, Note_on_c, 0, 72, 0
2, 24690, Note_on_c, 0, 71, 80
2, 24720, Note_on_c, 0, 71, 0
2, 24720, Note_on_c, 0, 72, 80
2, 24750, Note_on_c, 0, 72, 0
2, 24750, Note_on_c, 0, 74, 80
2, 24780, Note_on_c, 0, 74, 0
2, 24780, Note_on_c, 0, 75, 80
2, 24810, Note_on_c, 0, 75, 0
2, 24810, Note_on_c, 0, 74, 80
2, 24840, Note_on_c, 0, 74, 0
2, 24840, Note_on_c, 0, 72, 80
2, 24870, Note_on_c, 0, 72, 0
2, 24870, Note_on_c, 0, 70, 80
2, 24900, Note_on_c, 0, 70, 0
2, 24900, Note_on_c, 0, 69, 80
2, 24930, Note_on_c, 0, 69, 0
2, 24930, Note_on_c, 0, 67, 80
2, 24960, Note_on_c, 0, 67, 0
2, 24960, Note_on_c, 0, 65, 80
2, 24984, Note_on_c, 0, 65, 0
2, 25020, Note_on_c, 0, 82, 80
2, 25044, Note_on_c, 0, 82, 0
2, 25080, Note_on_c, 0, 82, 80
2, 25104, Note_on_c, 0, 82, 0
2, 25140, Note_on_c, 0, 82, 80
2, 25164, Note_on_c, 0, 82, 0
2, 25200, Note_on_c, 0, 82, 80
2, 25230, Note_on_c, 0, 82, 0
2, 25230, Note_on_c, 0, 84, 80
2, 25260, Note_on_c, 0, 84, 0
2, 25260, Note_on_c, 0, 86, 80
2, 25290, Note_on_c, 0, 86, 0
2, 25290, Note_on_c, 0, 87, 80
2, 25320, Note_on_c, 0, 87, 0
2, 25320, Note_on_c, 0, 89, 80
2, 25356, Note_on_c, 0, 89, 0
2, 25440, Note_on_c, 0, 79, 80
2, 25500, Note_on_c, 0, 79, 0
2, 25500, Note_on_c, 0, 81, 80
2, 25530, Note_on_c, 0, 81, 0
2, 25530, Note_on_c, 0, 82, 80
2, 25560, Note_on_c, 0, 82, 0
2, 25560, Note_on_c, 0, 81, 80
2, 25590, Note_on_c, 0, 81, 0
2, 25590, Note_on_c, 0, 82, 80
2, 25620, Note_on_c, 0, 82, 0
2, 25620, Note_on_c, 0, 81, 80
2, 25650, Note_on_c, 0, 81, 0
2, 25650, Note_on_c, 0, 82, 80
2, 25680, Note_on_c, 0, 82, 0
2, 25680, Note_on_c, 0, 81, 80
2, 25710, Note_on_c, 0, 81, 0
2, 25710, Note_on_c, 0, 82, 80
2, 25740, Note_on_c, 0, 82, 0
2, 25740, Note_on_c, 0, 81, 80
2, 25760, Note_on_c, 0, 81, 0
2, 25760, Note_on_c, 0, 82, 80
2, 25780, Note_on_c, 0, 82, 0
2, 25780, Note_on_c, 0, 81, 80
2, 25800, Note_on_c, 0, 81, 0
2, 25800, Note_on_c, 0, 79, 80
2, 25860, Note_on_c, 0, 79, 0
2, 25860, Note_on_c, 0, 81, 80
2, 25920, Note_on_c, 0, 81, 0
2, 25920, Note_on_c, 0, 82, 80
2, 26028, Note_on_c, 0, 82, 0
2, 26040, Note_on_c, 0, 70, 80
2, 26040, Note_on_c, 0, 74, 80
2, 26040, Note_on_c, 0, 77, 80
2, 26100, Note_on_c, 0, 77, 0
2, 26100, Note_on_c, 0, 74, 0
2, 26100, Note_on_c, 0, 70, 0
2, 26160, Note_on_c, 0, 79, 80
2, 26160, Note_on_c, 0, 75, 80
2, 26160, Note_on_c, 0, 70, 80
2, 26220, Note_on_c, 0, 70, 0
2, 26220, Note_on_c, 0, 75, 0
2, 26220, Note_on_c, 0, 79, 0
2, 26280, Note_on_c, 0, 77, 80
2, 26310, Note_on_c, 0, 77, 0
2, 26310, Note_on_c, 0, 75, 80
2, 26340, Note_on_c, 0, 75, 0
2, 26340, Note_on_c, 0, 74, 80
2, 26370, Note_on_c, 0, 74, 0
2, 26370, Note_on_c, 0, 75, 80
2, 26400, Note_on_c, 0, 75, 0
2, 26400, Note_on_c, 0, 74, 80
2, 26508, Note_on_c, 0, 74, 0
2, 26520, Note_on_c, 0, 74, 80
2, 26520, Note_on_c, 0, 77, 80
2, 26520, Note_on_c, 0, 82, 80
2, 26580, Note_on_c, 0, 82, 0
2, 26580, Note_on_c, 0, 77, 0
2, 26580, Note_on_c, 0, 74, 0
2, 26640, Note_on_c, 0, 70, 80
2, 26640, Note_on_c, 0, 75, 80
2, 26640, Note_on_c, 0, 79, 80
2, 26700, Note_on_c, 0, 79, 0
2, 26700, Note_on_c, 0, 75, 0
2, 26700, Note_on_c, 0, 70, 0
2, 26760, Note_on_c, 0, 60, 80
2, 26760, Note_on_c, 0, 63, 80
2, 26760, Note_on_c, 0, 65, 80
2, 26760, Note_on_c, 0, 69, 80
2, 26820, Note_on_c, 0, 69, 0
2, 26820, Note_on_c, 0, 60, 0
2, 26820, Note_on_c, 0, 63, 0
2, 26820, Note_on_c, 0, 65, 0
2, 26880, Note_on_c, 0, 70, 80
2, 26880, Note_on_c, 0, 62, 80
2, 26880, Note_on_c, 0, 65, 80
2, 27048, Note_on_c, 0, 65, 0
2, 27048, Note_on_c, 0, 62, 0
2, 27048, Note_on_c, 0, 70, 0
2, 27330, Note_on_c, 0, 66, 80
2, 27360, Note_on_c, 0, 66, 0
2, 27360, Note_on_c, 0, 67, 88
2, 27468, Note_on_c, 0, 67, 0
2, 27480, Note_on_c, 0, 55, 80
2, 27540, Note_on_c, 0, 55, 0
2, 27600, Note_on_c, 0, 55, 80
2, 27720, Note_on_c, 0, 55, 0
2, 27720, Note_on_c, 0, 55, 80
2, 27840, Note_on_c, 0, 55, 0
2, 27840, Note_on_c, 0, 55, 80
2, 27900, Note_on_c, 0, 55, 0
2, 27960, Note_on_c, 0, 55, 80
2, 28050, Note_on_c, 0, 55, 0
2, 28050, Note_on_c, 0, 55, 80
2, 28080, Note_on_c, 0, 55, 0
2, 28080, Note_on_c, 0, 55, 80
2, 28170, Note_on_c, 0, 55, 0
2, 28170, Note_on_c, 0, 55, 80
2, 28200, Note_on_c, 0, 55, 0
2, 28200, Note_on_c, 0, 55, 80
2, 28290, Note_on_c, 0, 55, 0
2, 28290, Note_on_c, 0, 55, 80
2, 28320, Note_on_c, 0, 55, 0
2, 28320, Note_on_c, 0, 55, 80
2, 28380, Note_on_c, 0, 55, 0
2, 28440, Note_on_c, 0, 54, 80
2, 28470, Note_on_c, 0, 54, 0
2, 28470, Note_on_c, 0, 55, 80
2, 28500, Note_on_c, 0, 55, 0
2, 28500, Note_on_c, 0, 57, 80
2, 28530, Note_on_c, 0, 57, 0
2, 28530, Note_on_c, 0, 55, 80
2, 28560, Note_on_c, 0, 55, 0
2, 28560, Note_on_c, 0, 54, 80
2, 28590, Note_on_c, 0, 54, 0
2, 28590, Note_on_c, 0, 55, 80
2, 28620, Note_on_c, 0, 55, 0
2, 28620, Note_on_c, 0, 57, 80
2, 28650, Note_on_c, 0, 57, 0
2, 28650, Note_on_c, 0, 55, 80
2, 28680, Note_on_c, 0, 55, 0
2, 28680, Note_on_c, 0, 54, 80
2, 28710, Note_on_c, 0, 54, 0
2, 28710, Note_on_c, 0, 55, 80
2, 28740, Note_on_c, 0, 55, 0
2, 28740, Note_on_c, 0, 57, 80
2, 28770, Note_on_c, 0, 57, 0
2, 28770, Note_on_c, 0, 55, 80
2, 28800, Note_on_c, 0, 55, 0
2, 28800, Note_on_c, 0, 54, 78
2, 28830, Note_on_c, 0, 54, 0
2, 28830, Note_on_c, 0, 55, 77
2, 28860, Note_on_c, 0, 55, 0
2, 28860, Note_on_c, 0, 57, 75
2, 28890, Note_on_c, 0, 57, 0
2, 28890, Note_on_c, 0, 59, 74
2, 28920, Note_on_c, 0, 59, 0
2, 28920, Note_on_c, 0, 60, 72
2, 28950, Note_on_c, 0, 60, 0
2, 28950, Note_on_c, 0, 62, 71
2, 28980, Note_on_c, 0, 62, 0
2, 28980, Note_on_c, 0, 64, 70
2, 29010, Note_on_c, 0, 64, 0
2, 29010, Note_on_c, 0, 66, 68
2, 29040, Note_on_c, 0, 66, 0
2, 29040, Note_on_c, 0, 67, 67
2, 29088, Note_on_c, 0, 67, 0
2, 29100, Note_on_c, 0, 69, 64
2, 29130, Note_on_c, 0, 69, 0
2, 29130, Note_on_c, 0, 71, 63
2, 29160, Note_on_c, 0, 71, 0
2, 29160, Note_on_c, 0, 72, 61
2, 29190, Note_on_c, 0, 72, 0
2, 29190, Note_on_c, 0, 74, 60
2, 29220, Note_on_c, 0, 74, 0
2, 29220, Note_on_c, 0, 76, 59
2, 29250, Note_on_c, 0, 76, 0
2, 29250, Note_on_c, 0, 78, 57
2, 29280, Note_on_c, 0, 78, 0
2, 29280, Note_on_c, 0, 79, 56
2, 29328, Note_on_c, 0, 79, 0
2, 29400, Note_on_c, 0, 79, 56
2, 29484, Note_on_c, 0, 79, 0
2, 29520, Note_on_c, 0, 79, 56
2, 29604, Note_on_c, 0, 79, 0
2, 29640, Note_on_c, 0, 79, 56
2, 29724, Note_on_c, 0, 79, 0
2, 29760, Note_on_c, 0, 79, 56
2, 30144, Note_on_c, 0, 79, 0
2, 30240, Note_on_c, 0, 68, 80
2, 30240, Note_on_c, 0, 80, 80
2, 30480, Note_on_c, 0, 80, 0
2, 30480, Note_on_c, 0, 68, 0
2, 30480, Note_on_c, 0, 75, 80
2, 30660, Note_on_c, 0, 75, 0
2, 30660, Note_on_c, 0, 73, 80
2, 30720, Note_on_c, 0, 73, 0
2, 30720, Note_on_c, 0, 73, 80
2, 30960, Note_on_c, 0, 73, 0
2, 30960, Note_on_c, 0, 72, 80
2, 30990, Note_on_c, 0, 72, 0
2, 30990, Note_on_c, 0, 73, 80
2, 31020, Note_on_c, 0, 73, 0
2, 31020, Note_on_c, 0, 72, 80
2, 31040, Note_on_c, 0, 72, 0
2, 31040, Note_on_c, 0, 73, 80
2, 31060, Note_on_c, 0, 73, 0
2, 31060, Note_on_c, 0, 72, 80
2, 31080, Note_on_c, 0, 72, 0
2, 31080, Note_on_c, 0, 70, 80
2, 31200, Note_on_c, 0, 70, 0
2, 31200, Note_on_c, 0, 68, 80
2, 31320, Note_on_c, 0, 68, 0
2, 31320, Note_on_c, 0, 73, 88
2, 31380, Note_on_c, 0, 73, 0
2, 31440, Note_on_c, 0, 70, 80
2, 31560, Note_on_c, 0, 70, 0
2, 31560, Note_on_c, 0, 75, 88
2, 31620, Note_on_c, 0, 75, 0
2, 31680, Note_on_c, 0, 73, 80
2, 31920, Note_on_c, 0, 73, 0
2, 31920, Note_on_c, 0, 72, 80
2, 31950, Note_on_c, 0, 72, 0
2, 31950, Note_on_c, 0, 73, 80
2, 31980, Note_on_c, 0, 73, 0
2, 31980, Note_on_c, 0, 72, 80
2, 32000, Note_on_c, 0, 72, 0
2, 32000, Note_on_c, 0, 73, 80
2, 32020, Note_on_c, 0, 73, 0
2, 32020, Note_on_c, 0, 72, 80
2, 32040, Note_on_c, 0, 72, 0
2, 32040, Note_on_c, 0, 70, 80
2, 32160, Note_on_c, 0, 70, 0
2, 32160, Note_on_c, 0, 68, 80
2, 32220, Note_on_c, 0, 68, 0
2, 32220, Note_on_c, 0, 75, 80
2, 32250, Note_on_c, 0, 75, 0
2, 32280, Note_on_c, 0, 73, 80
2, 32310, Note_on_c, 0, 73, 0
2, 32340, Note_on_c, 0, 72, 80
2, 32370, Note_on_c, 0, 72, 0
2, 32400, Note_on_c, 0, 70, 80
2, 32460, Note_on_c, 0, 70, 0
2, 32460, Note_on_c, 0, 77, 80
2, 32520, Note_on_c, 0, 77, 0
2, 32520, Note_on_c, 0, 75, 80
2, 32580, Note_on_c, 0, 75, 0
2, 32580, Note_on_c, 0, 73, 80
2, 32610, Note_on_c, 0, 73, 0
2, 32610, Note_on_c, 0, 72, 80
2, 32625, Note_on_c, 0, 72, 0
2, 32625, Note_on_c, 0, 75, 80
2, 32640, Note_on_c, 0, 75, 0
2, 32640, Note_on_c, 0, 73, 80
2, 32880, Note_on_c, 0, 73, 0
2, 32880, Note_on_c, 0, 72, 80
2, 33000, Note_on_c, 0, 72, 0
2, 33000, Note_on_c, 0, 70, 80
2, 33120, Note_on_c, 0, 70, 0
2, 33120, Note_on_c, 0, 69, 80
2, 33180, Note_on_c, 0, 69, 0
2, 33180, Note_on_c, 0, 75, 80
2, 33210, Note_on_c, 0, 75, 0
2, 33240, Note_on_c, 0, 73, 80
2, 33270, Note_on_c, 0, 73, 0
2, 33300, Note_on_c, 0, 72, 80
2, 33330, Note_on_c, 0, 72, 0
2, 33360, Note_on_c, 0, 69, 80
2, 33420, Note_on_c, 0, 69, 0
2, 33420, Note_on_c, 0, 78, 80
2, 33480, Note_on_c, 0, 78, 0
2, 33480, Note_on_c, 0, 77, 80
2, 33540, Note_on_c, 0, 77, 0
2, 33540, Note_on_c, 0, 75, 80
2, 33600, Note_on_c, 0, 75, 0
2, 33600, Note_on_c, 0, 75, 80
2, 33600, Note_on_c, 0, 65, 80
2, 33660, Note_on_c, 0, 65, 0
2, 33660, Note_on_c, 0, 70, 80
2, 33690, Note_on_c, 0, 70, 0
2, 33720, Note_on_c, 0, 68, 80
2, 33750, Note_on_c, 0, 68, 0
2, 33780, Note_on_c, 0, 66, 80
2, 33810, Note_on_c, 0, 66, 0
2, 33840, Note_on_c, 0, 75, 0
2, 33840, Note_on_c, 0, 74, 80
2, 33840, Note_on_c, 0, 65, 80
2, 33900, Note_on_c, 0, 65, 0
2, 33900, Note_on_c, 0, 71, 80
2, 33960, Note_on_c, 0, 71, 0
2, 33960, Note_on_c, 0, 70, 80
2, 34020, Note_on_c, 0, 70, 0
2, 34020, Note_on_c, 0, 68, 80
2, 34080, Note_on_c, 0, 68, 0
2, 34080, Note_on_c, 0, 74, 0
2, 34080, Note_on_c, 0, 68, 80
2, 34080, Note_on_c, 0, 70, 80
2, 34140, Note_on_c, 0, 70, 0
2, 34140, Note_on_c, 0, 75, 80
2, 34176, Note_on_c, 0, 75, 0
2, 34200, Note_on_c, 0, 73, 80
2, 34236, Note_on_c, 0, 73, 0
2, 34260, Note_on_c, 0, 72, 80
2, 34296, Note_on_c, 0, 72, 0
2, 34320, Note_on_c, 0, 68, 0
2, 34320, Note_on_c, 0, 67, 80
2, 34320, Note_on_c, 0, 70, 80
2, 34380, Note_on_c, 0, 70, 0
2, 34380, Note_on_c, 0, 77, 80
2, 34440, Note_on_c, 0, 77, 0
2, 34440, Note_on_c, 0, 75, 80
2, 34500, Note_on_c, 0, 75, 0
2, 34500, Note_on_c, 0, 73, 80
2, 34560, Note_on_c, 0, 73, 0
2, 34560, Note_on_c, 0, 67, 0
2, 34560, Note_on_c, 0, 73, 80
2, 34560, Note_on_c, 0, 63, 80
2, 34620, Note_on_c, 0, 63, 0
2, 34620, Note_on_c, 0, 68, 80
2, 34656, Note_on_c, 0, 68, 0
2, 34680, Note_on_c, 0, 66, 80
2, 34716, Note_on_c, 0, 66, 0
2, 34740, Note_on_c, 0, 65, 80
2, 34776, Note_on_c, 0, 65, 0
2, 34800, Note_on_c, 0, 73, 0
2, 34800, Note_on_c, 0, 72, 80
2, 34800, Note_on_c, 0, 63, 80
2, 34860, Note_on_c, 0, 63, 0
2, 34860, Note_on_c, 0, 70, 80
2, 34920, Note_on_c, 0, 70, 0
2, 34920, Note_on_c, 0, 68, 80
2, 34980, Note_on_c, 0, 68, 0
2, 34980, Note_on_c, 0, 66, 80
2, 35040, Note_on_c, 0, 66, 0
2, 35040, Note_on_c, 0, 72, 0
2, 35040, Note_on_c, 0, 68, 80
2, 35040, Note_on_c, 0, 66, 80
2, 35100, Note_on_c, 0, 68, 0
2, 35100, Note_on_c, 0, 72, 80
2, 35142, Note_on_c, 0, 72, 0
2, 35160, Note_on_c, 0, 73, 80
2, 35202, Note_on_c, 0, 73, 0
2, 35220, Note_on_c, 0, 75, 80
2, 35262, Note_on_c, 0, 75, 0
2, 35280, Note_on_c, 0, 66, 0
2, 35280, Note_on_c, 0, 65, 80
2, 35280, Note_on_c, 0, 77, 80
2, 35340, Note_on_c, 0, 77, 0
2, 35340, Note_on_c, 0, 79, 80
2, 35364, Note_on_c, 0, 79, 0
2, 35400, Note_on_c, 0, 80, 80
2, 35424, Note_on_c, 0, 80, 0
2, 35460, Note_on_c, 0, 80, 80
2, 35484, Note_on_c, 0, 80, 0
2, 35520, Note_on_c, 0, 65, 0
2, 35520, Note_on_c, 0, 80, 80
2, 35520, Note_on_c, 0, 63, 80
2, 35580, Note_on_c, 0, 63, 0
2, 35580, Note_on_c, 0, 75, 80
2, 35622, Note_on_c, 0, 75, 0
2, 35640, Note_on_c, 0, 73, 80
2, 35682, Note_on_c, 0, 73, 0
2, 35700, Note_on_c, 0, 72, 80
2, 35742, Note_on_c, 0, 72, 0
2, 35760, Note_on_c, 0, 70, 80
2, 35820, Note_on_c, 0, 70, 0
2, 35820, Note_on_c, 0, 80, 0
2, 35820, Note_on_c, 0, 80, 80
2, 35820, Note_on_c, 0, 68, 80
2, 35880, Note_on_c, 0, 68, 0
2, 35880, Note_on_c, 0, 80, 0
2, 35880, Note_on_c, 0, 82, 80
2, 35880, Note_on_c, 0, 67, 80
2, 35940, Note_on_c, 0, 67, 0
2, 35940, Note_on_c, 0, 82, 0
2, 35940, Note_on_c, 0, 84, 80
2, 35940, Note_on_c, 0, 68, 80
2, 36000, Note_on_c, 0, 84, 0
2, 36000, Note_on_c, 0, 85, 80
2, 36060, Note_on_c, 0, 85, 0
2, 36060, Note_on_c, 0, 84, 80
2, 36090, Note_on_c, 0, 84, 0
2, 36120, Note_on_c, 0, 68, 0
2, 36120, Note_on_c, 0, 61, 80
2, 36120, Note_on_c, 0, 82, 80
2, 36150, Note_on_c, 0, 82, 0
2, 36180, Note_on_c, 0, 80, 80
2, 36210, Note_on_c, 0, 80, 0
2, 36240, Note_on_c, 0, 63, 80
2, 36240, Note_on_c, 0, 79, 80
2, 36300, Note_on_c, 0, 79, 0
2, 36300, Note_on_c, 0, 61, 0
2, 36300, Note_on_c, 0, 77, 80
2, 36360, Note_on_c, 0, 77, 0
2, 36360, Note_on_c, 0, 63, 0
2, 36360, Note_on_c, 0, 67, 80
2, 36360, Note_on_c, 0, 75, 80
2, 36420, Note_on_c, 0, 75, 0
2, 36420, Note_on_c, 0, 73, 80
2, 36450, Note_on_c, 0, 73, 0
2, 36450, Note_on_c, 0, 75, 80
2, 36480, Note_on_c, 0, 75, 0
2, 36480, Note_on_c, 0, 73, 80
2, 36510, Note_on_c, 0, 73, 0
2, 36510, Note_on_c, 0, 75, 80
2, 36540, Note_on_c, 0, 75, 0
2, 36540, Note_on_c, 0, 73, 80
2, 36570, Note_on_c, 0, 73, 0
2, 36570, Note_on_c, 0, 75, 80
2, 36600, Note_on_c, 0, 75, 0
2, 36600, Note_on_c, 0, 67, 0
2, 36600, Note_on_c, 0, 73, 80
2, 36600, Note_on_c, 0, 63, 80
2, 36630, Note_on_c, 0, 73, 0
2, 36630, Note_on_c, 0, 75, 80
2, 36660, Note_on_c, 0, 75, 0
2, 36660, Note_on_c, 0, 73, 80
2, 36680, Note_on_c, 0, 73, 0
2, 36680, Note_on_c, 0, 75, 80
2, 36700, Note_on_c, 0, 75, 0
2, 36700, Note_on_c, 0, 73, 80
2, 36720, Note_on_c, 0, 73, 0
2, 36720, Note_on_c, 0, 63, 0
2, 36720, Note_on_c, 0, 68, 80
2, 36720, Note_on_c, 0, 72, 80
2, 36780, Note_on_c, 0, 72, 0
2, 36780, Note_on_c, 0, 80, 80
2, 36840, Note_on_c, 0, 80, 0
2, 36840, Note_on_c, 0, 68, 0
2, 36840, Note_on_c, 0, 65, 80
2, 36840, Note_on_c, 0, 82, 80
2, 36900, Note_on_c, 0, 82, 0
2, 36900, Note_on_c, 0, 84, 80
2, 36960, Note_on_c, 0, 84, 0
2, 36960, Note_on_c, 0, 82, 80
2, 37020, Note_on_c, 0, 82, 0
2, 37020, Note_on_c, 0, 80, 80
2, 37056, Note_on_c, 0, 80, 0
2, 37080, Note_on_c, 0, 65, 0
2, 37080, Note_on_c, 0, 58, 80
2, 37080, Note_on_c, 0, 79, 80
2, 37116, Note_on_c, 0, 79, 0
2, 37140, Note_on_c, 0, 77, 80
2, 37176, Note_on_c, 0, 77, 0
2, 37200, Note_on_c, 0, 58, 0
2, 37200, Note_on_c, 0, 60, 80
2, 37200, Note_on_c, 0, 76, 80
2, 37260, Note_on_c, 0, 76, 0
2, 37260, Note_on_c, 0, 73, 80
2, 37320, Note_on_c, 0, 73, 0
2, 37320, Note_on_c, 0, 60, 0
2, 37320, Note_on_c, 0, 64, 80
2, 37320, Note_on_c, 0, 72, 80
2, 37380, Note_on_c, 0, 72, 0
2, 37380, Note_on_c, 0, 70, 80
2, 37410, Note_on_c, 0, 70, 0
2, 37410, Note_on_c, 0, 72, 80
2, 37440, Note_on_c, 0, 72, 0
2, 37440, Note_on_c, 0, 70, 80
2, 37470, Note_on_c, 0, 70, 0
2, 37470, Note_on_c, 0, 72, 80
2, 37500, Note_on_c, 0, 72, 0
2, 37500, Note_on_c, 0, 70, 80
2, 37530, Note_on_c, 0, 70, 0
2, 37530, Note_on_c, 0, 72, 80
2, 37560, Note_on_c, 0, 72, 0
2, 37560, Note_on_c, 0, 64, 0
2, 37560, Note_on_c, 0, 60, 80
2, 37560, Note_on_c, 0, 70, 80
2, 37590, Note_on_c, 0, 70, 0
2, 37590, Note_on_c, 0, 72, 80
2, 37620, Note_on_c, 0, 72, 0
2, 37620, Note_on_c, 0, 70, 80
2, 37640, Note_on_c, 0, 70, 0
2, 37640, Note_on_c, 0, 72, 80
2, 37660, Note_on_c, 0, 72, 0
2, 37660, Note_on_c, 0, 70, 80
2, 37680, Note_on_c, 0, 70, 0
2, 37680, Note_on_c, 0, 60, 0
2, 37680, Note_on_c, 0, 65, 80
2, 37680, Note_on_c, 0, 68, 80
2, 37740, Note_on_c, 0, 68, 0
2, 37740, Note_on_c, 0, 72, 80
2, 37800, Note_on_c, 0, 72, 0
2, 37800, Note_on_c, 0, 77, 80
2, 37860, Note_on_c, 0, 77, 0
2, 37860, Note_on_c, 0, 76, 80
2, 37920, Note_on_c, 0, 76, 0
2, 37920, Note_on_c, 0, 65, 0
2, 37920, Note_on_c, 0, 79, 80
2, 37980, Note_on_c, 0, 79, 0
2, 37980, Note_on_c, 0, 77, 80
2, 38040, Note_on_c, 0, 77, 0
2, 38040, Note_on_c, 0, 80, 80
2, 38100, Note_on_c, 0, 80, 0
2, 38100, Note_on_c, 0, 79, 80
2, 38160, Note_on_c, 0, 79, 0
2, 38160, Note_on_c, 0, 77, 80
2, 38220, Note_on_c, 0, 77, 0
2, 38220, Note_on_c, 0, 75, 80
2, 38250, Note_on_c, 0, 75, 0
2, 38280, Note_on_c, 0, 74, 80
2, 38310, Note_on_c, 0, 74, 0
2, 38340, Note_on_c, 0, 72, 80
2, 38370, Note_on_c, 0, 72, 0
2, 38400, Note_on_c, 0, 79, 80
2, 38640, Note_on_c, 0, 79, 0
2, 38640, Note_on_c, 0, 74, 80
2, 38820, Note_on_c, 0, 74, 0
2, 38820, Note_on_c, 0, 72, 80
2, 38880, Note_on_c, 0, 72, 0
2, 38880, Note_on_c, 0, 72, 80
2, 39120, Note_on_c, 0, 72, 0
2, 39120, Note_on_c, 0, 71, 80
2, 39150, Note_on_c, 0, 71, 0
2, 39150, Note_on_c, 0, 72, 80
2, 39180, Note_on_c, 0, 72, 0
2, 39180, Note_on_c, 0, 71, 80
2, 39200, Note_on_c, 0, 71, 0
2, 39200, Note_on_c, 0, 72, 80
2, 39220, Note_on_c, 0, 72, 0
2, 39220, Note_on_c, 0, 71, 80
2, 39240, Note_on_c, 0, 71, 0
2, 39240, Note_on_c, 0, 72, 80
2, 39270, Note_on_c, 0, 72, 0
2, 39270, Note_on_c, 0, 71, 80
2, 39300, Note_on_c, 0, 71, 0
2, 39300, Note_on_c, 0, 74, 80
2, 39330, Note_on_c, 0, 74, 0
2, 39330, Note_on_c, 0, 77, 80
2, 39360, Note_on_c, 0, 77, 0
2, 39360, Note_on_c, 0, 80, 80
2, 39600, Note_on_c, 0, 80, 0
2, 39600, Note_on_c, 0, 77, 80
2, 39780, Note_on_c, 0, 77, 0
2, 39780, Note_on_c, 0, 74, 80
2, 39840, Note_on_c, 0, 74, 0
2, 39840, Note_on_c, 0, 72, 80
2, 40080, Note_on_c, 0, 72, 0
2, 40080, Note_on_c, 0, 71, 80
2, 40110, Note_on_c, 0, 71, 0
2, 40110, Note_on_c, 0, 72, 80
2, 40140, Note_on_c, 0, 72, 0
2, 40140, Note_on_c, 0, 71, 80
2, 40170, Note_on_c, 0, 71, 0
2, 40170, Note_on_c, 0, 72, 80
2, 40200, Note_on_c, 0, 72, 0
2, 40200, Note_on_c, 0, 71, 80
2, 40220, Note_on_c, 0, 71, 0
2, 40220, Note_on_c, 0, 72, 80
2, 40240, Note_on_c, 0, 72, 0
2, 40240, Note_on_c, 0, 71, 80
2, 40260, Note_on_c, 0, 71, 0
2, 40260, Note_on_c, 0, 72, 80
2, 40290, Note_on_c, 0, 72, 0
2, 40290, Note_on_c, 0, 71, 80
2, 40320, Note_on_c, 0, 71, 0
2, 40320, Note_on_c, 0, 79, 80
2, 40500, Note_on_c, 0, 79, 0
2, 40500, Note_on_c, 0, 75, 80
2, 40560, Note_on_c, 0, 75, 0
2, 40560, Note_on_c, 0, 72, 80
2, 40620, Note_on_c, 0, 72, 0
2, 40680, Note_on_c, 0, 72, 56
2, 40800, Note_on_c, 0, 72, 0
2, 40800, Note_on_c, 0, 74, 56
2, 40860, Note_on_c, 0, 74, 0
2, 40860, Note_on_c, 0, 75, 58
2, 40920, Note_on_c, 0, 75, 0
2, 40920, Note_on_c, 0, 77, 59
2, 40980, Note_on_c, 0, 77, 0
2, 40980, Note_on_c, 0, 71, 61
2, 41040, Note_on_c, 0, 71, 0
2, 41040, Note_on_c, 0, 72, 62
2, 41100, Note_on_c, 0, 72, 0
2, 41160, Note_on_c, 0, 72, 65
2, 41220, Note_on_c, 0, 72, 0
2, 41280, Note_on_c, 0, 74, 68
2, 41340, Note_on_c, 0, 74, 0
2, 41340, Note_on_c, 0, 75, 70
2, 41370, Note_on_c, 0, 75, 0
2, 41400, Note_on_c, 0, 77, 71
2, 41430, Note_on_c, 0, 77, 0
2, 41460, Note_on_c, 0, 71, 73
2, 41490, Note_on_c, 0, 71, 0
2, 41520, Note_on_c, 0, 72, 74
2, 41580, Note_on_c, 0, 72, 0
2, 41580, Note_on_c, 0, 74, 76
2, 41640, Note_on_c, 0, 74, 0
2, 41640, Note_on_c, 0, 75, 77
2, 41700, Note_on_c, 0, 75, 0
2, 41700, Note_on_c, 0, 72, 79
2, 41760, Note_on_c, 0, 72, 0
2, 41760, Note_on_c, 0, 74, 80
2, 41820, Note_on_c, 0, 74, 0
2, 41820, Note_on_c, 0, 75, 80
2, 41850, Note_on_c, 0, 75, 0
2, 41880, Note_on_c, 0, 77, 80
2, 41910, Note_on_c, 0, 77, 0
2, 41940, Note_on_c, 0, 71, 80
2, 41970, Note_on_c, 0, 71, 0
2, 42000, Note_on_c, 0, 72, 80
2, 42060, Note_on_c, 0, 72, 0
2, 42060, Note_on_c, 0, 74, 80
2, 42120, Note_on_c, 0, 74, 0
2, 42120, Note_on_c, 0, 75, 80
2, 42180, Note_on_c, 0, 75, 0
2, 42180, Note_on_c, 0, 72, 80
2, 42240, Note_on_c, 0, 72, 0
2, 42240, Note_on_c, 0, 74, 80
2, 42300, Note_on_c, 0, 74, 0
2, 42300, Note_on_c, 0, 75, 80
2, 42360, Note_on_c, 0, 75, 0
2, 42360, Note_on_c, 0, 77, 80
2, 42420, Note_on_c, 0, 77, 0
2, 42420, Note_on_c, 0, 71, 80
2, 42480, Note_on_c, 0, 71, 0
2, 42480, Note_on_c, 0, 72, 80
2, 42540, Note_on_c, 0, 72, 0
2, 42600, Note_on_c, 0, 79, 80
2, 42720, Note_on_c, 0, 79, 0
2, 42720, Note_on_c, 0, 78, 80
2, 42720, Note_on_c, 0, 72, 80
2, 42780, Note_on_c, 0, 72, 0
2, 42780, Note_on_c, 0, 74, 80
2, 42810, Note_on_c, 0, 74, 0
2, 42840, Note_on_c, 0, 75, 80
2, 42870, Note_on_c, 0, 75, 0
2, 42900, Note_on_c, 0, 72, 80
2, 42930, Note_on_c, 0, 72, 0
2, 42930, Note_on_c, 0, 78, 0
2, 42960, Note_on_c, 0, 77, 80
2, 42960, Note_on_c, 0, 74, 80
2, 43020, Note_on_c, 0, 74, 0
2, 43020, Note_on_c, 0, 77, 0
2, 43020, Note_on_c, 0, 79, 80
2, 43020, Note_on_c, 0, 75, 80
2, 43080, Note_on_c, 0, 75, 0
2, 43080, Note_on_c, 0, 79, 0
2, 43080, Note_on_c, 0, 80, 80
2, 43080, Note_on_c, 0, 77, 80
2, 43140, Note_on_c, 0, 77, 0
2, 43140, Note_on_c, 0, 80, 0
2, 43140, Note_on_c, 0, 77, 80
2, 43140, Note_on_c, 0, 74, 80
2, 43200, Note_on_c, 0, 74, 0
2, 43200, Note_on_c, 0, 77, 0
2, 43200, Note_on_c, 0, 75, 80
2, 43200, Note_on_c, 0, 72, 80
2, 43260, Note_on_c, 0, 72, 0
2, 43260, Note_on_c, 0, 75, 0
2, 43260, Note_on_c, 0, 77, 80
2, 43260, Note_on_c, 0, 74, 80
2, 43290, Note_on_c, 0, 74, 0
2, 43290, Note_on_c, 0, 77, 0
2, 43320, Note_on_c, 0, 79, 80
2, 43320, Note_on_c, 0, 75, 80
2, 43350, Note_on_c, 0, 75, 0
2, 43350, Note_on_c, 0, 79, 0
2, 43380, Note_on_c, 0, 75, 80
2, 43380, Note_on_c, 0, 72, 80
2, 43410, Note_on_c, 0, 72, 0
2, 43410, Note_on_c, 0, 75, 0
2, 43440, Note_on_c, 0, 84, 80
2, 43440, Note_on_c, 0, 75, 80
2, 43680, Note_on_c, 0, 75, 0
2, 43680, Note_on_c, 0, 84, 0
2, 43800, Note_on_c, 0, 79, 80
2, 43830, Note_on_c, 0, 79, 0
2, 43830, Note_on_c, 0, 82, 80
2, 43860, Note_on_c, 0, 82, 0
2, 43860, Note_on_c, 0, 80, 80
2, 43890, Note_on_c, 0, 80, 0
2, 43920, Note_on_c, 0, 76, 80
2, 43950, Note_on_c, 0, 76, 0
2, 43950, Note_on_c, 0, 79, 80
2, 43980, Note_on_c, 0, 79, 0
2, 43980, Note_on_c, 0, 77, 80
2, 44010, Note_on_c, 0, 77, 0
2, 44040, Note_on_c, 0, 73, 80
2, 44070, Note_on_c, 0, 73, 0
2, 44070, Note_on_c, 0, 75, 80
2, 44100, Note_on_c, 0, 75, 0
2, 44100, Note_on_c, 0, 74, 80
2, 44130, Note_on_c, 0, 74, 0
2, 44160, Note_on_c, 0, 67, 80
2, 44400, Note_on_c, 0, 67, 0
2, 44400, Note_on_c, 0, 74, 80
2, 44430, Note_on_c, 0, 74, 0
2, 44430, Note_on_c, 0, 75, 80
2, 44460, Note_on_c, 0, 75, 0
2, 44460, Note_on_c, 0, 74, 80
2, 44490, Note_on_c, 0, 74, 0
2, 44490, Note_on_c, 0, 75, 80
2, 44520, Note_on_c, 0, 75, 0
2, 44520, Note_on_c, 0, 74, 80
2, 44540, Note_on_c, 0, 74, 0
2, 44540, Note_on_c, 0, 75, 80
2, 44560, Note_on_c, 0, 75, 0
2, 44560, Note_on_c, 0, 74, 80
2, 44580, Note_on_c, 0, 74, 0
2, 44580, Note_on_c, 0, 72, 80
2, 44610, Note_on_c, 0, 72, 0
2, 44610, Note_on_c, 0, 74, 80
2, 44640, Note_on_c, 0, 74, 0
2, 44760, Note_on_c, 0, 86, 80
2, 44790, Note_on_c, 0, 86, 0
2, 44790, Note_on_c, 0, 89, 80
2, 44820, Note_on_c, 0, 89, 0
2, 44820, Note_on_c, 0, 87, 80
2, 44850, Note_on_c, 0, 87, 0
2, 44880, Note_on_c, 0, 83, 80
2, 44910, Note_on_c, 0, 83, 0
2, 44910, Note_on_c, 0, 86, 80
2, 44940, Note_on_c, 0, 86, 0
2, 44940, Note_on_c, 0, 84, 80
2, 44970, Note_on_c, 0, 84, 0
2, 45000, Note_on_c, 0, 79, 80
2, 45030, Note_on_c, 0, 79, 0
2, 45030, Note_on_c, 0, 82, 80
2, 45060, Note_on_c, 0, 82, 0
2, 45060, Note_on_c, 0, 80, 80
2, 45120, Note_on_c, 0, 80, 0
2, 45120, Note_on_c, 0, 79, 80
2, 45160, Note_on_c, 0, 79, 0
2, 45160, Note_on_c, 0, 75, 80
2, 45200, Note_on_c, 0, 75, 0
2, 45200, Note_on_c, 0, 72, 80
2, 45240, Note_on_c, 0, 72, 0
2, 45240, Note_on_c, 0, 80, 80
2, 45280, Note_on_c, 0, 80, 0
2, 45280, Note_on_c, 0, 77, 80
2, 45320, Note_on_c, 0, 77, 0
2, 45320, Note_on_c, 0, 74, 80
2, 45360, Note_on_c, 0, 74, 0
2, 45360, Note_on_c, 0, 74, 79
2, 45390, Note_on_c, 0, 74, 0
2, 45390, Note_on_c, 0, 75, 77
2, 45420, Note_on_c, 0, 75, 0
2, 45420, Note_on_c, 0, 74, 75
2, 45450, Note_on_c, 0, 74, 0
2, 45450, Note_on_c, 0, 75, 73
2, 45480, Note_on_c, 0, 75, 0
2, 45480, Note_on_c, 0, 74, 71
2, 45500, Note_on_c, 0, 74, 0
2, 45500, Note_on_c, 0, 75, 70
2, 45520, Note_on_c, 0, 75, 0
2, 45520, Note_on_c, 0, 74, 69
2, 45540, Note_on_c, 0, 74, 0
2, 45540, Note_on_c, 0, 72, 67
2, 45570, Note_on_c, 0, 72, 0
2, 45570, Note_on_c, 0, 74, 66
2, 45600, Note_on_c, 0, 74, 0
2, 45600, Note_on_c, 0, 72, 56
2, 45840, Note_on_c, 0, 72, 0
2, 45840, Note_on_c, 0, 67, 56
2, 46020, Note_on_c, 0, 67, 0
2, 46020, Note_on_c, 0, 65, 56
2, 46080, Note_on_c, 0, 65, 0
2, 46080, Note_on_c, 0, 65, 56
2, 46320, Note_on_c, 0, 65, 0
2, 46320, Note_on_c, 0, 63, 62
2, 46340, Note_on_c, 0, 63, 0
2, 46340, Note_on_c, 0, 65, 64
2, 46360, Note_on_c, 0, 65, 0
2, 46360, Note_on_c, 0, 63, 65
2, 46380, Note_on_c, 0, 63, 0
2, 46380, Note_on_c, 0, 65, 67
2, 46410, Note_on_c, 0, 65, 0
2, 46410, Note_on_c, 0, 67, 69
2, 46440, Note_on_c, 0, 67, 0
2, 46440, Note_on_c, 0, 68, 71
2, 46470, Note_on_c, 0, 68, 0
2, 46470, Note_on_c, 0, 70, 73
2, 46500, Note_on_c, 0, 70, 0
2, 46500, Note_on_c, 0, 72, 76
2, 46530, Note_on_c, 0, 72, 0
2, 46530, Note_on_c, 0, 74, 78
2, 46560, Note_on_c, 0, 74, 0
2, 46560, Note_on_c, 0, 75, 80
2, 46800, Note_on_c, 0, 75, 0
2, 46800, Note_on_c, 0, 70, 80
2, 46980, Note_on_c, 0, 70, 0
2, 46980, Note_on_c, 0, 68, 80
2, 47040, Note_on_c, 0, 68, 0
2, 47040, Note_on_c, 0, 68, 80
2, 47280, Note_on_c, 0, 68, 0
2, 47280, Note_on_c, 0, 67, 80
2, 47310, Note_on_c, 0, 67, 0
2, 47310, Note_on_c, 0, 68, 80
2, 47340, Note_on_c, 0, 68, 0
2, 47340, Note_on_c, 0, 67, 80
2, 47360, Note_on_c, 0, 67, 0
2, 47360, Note_on_c, 0, 68, 80
2, 47380, Note_on_c, 0, 68, 0
2, 47380, Note_on_c, 0, 67, 80
2, 47400, Note_on_c, 0, 67, 0
2, 47400, Note_on_c, 0, 65, 80
2, 47520, Note_on_c, 0, 65, 0
2, 47520, Note_on_c, 0, 63, 80
2, 47640, Note_on_c, 0, 63, 0
2, 47640, Note_on_c, 0, 68, 80
2, 47712, Note_on_c, 0, 68, 0
2, 47760, Note_on_c, 0, 65, 80
2, 47880, Note_on_c, 0, 65, 0
2, 47880, Note_on_c, 0, 70, 80
2, 47952, Note_on_c, 0, 70, 0
2, 48000, Note_on_c, 0, 68, 80
2, 48240, Note_on_c, 0, 68, 0
2, 48240, Note_on_c, 0, 67, 80
2, 48270, Note_on_c, 0, 67, 0
2, 48270, Note_on_c, 0, 68, 80
2, 48300, Note_on_c, 0, 68, 0
2, 48300, Note_on_c, 0, 67, 80
2, 48320, Note_on_c, 0, 67, 0
2, 48320, Note_on_c, 0, 68, 80
2, 48340, Note_on_c, 0, 68, 0
2, 48340, Note_on_c, 0, 67, 80
2, 48360, Note_on_c, 0, 67, 0
2, 48360, Note_on_c, 0, 65, 80
2, 48480, Note_on_c, 0, 65, 0
2, 48480, Note_on_c, 0, 63, 80
2, 48570, Note_on_c, 0, 63, 0
2, 48570, Note_on_c, 0, 68, 80
2, 48600, Note_on_c, 0, 68, 0
2, 48600, Note_on_c, 0, 68, 80
2, 48630, Note_on_c, 0, 68, 0
2, 48630, Note_on_c, 0, 70, 80
2, 48660, Note_on_c, 0, 70, 0
2, 48660, Note_on_c, 0, 68, 80
2, 48680, Note_on_c, 0, 68, 0
2, 48680, Note_on_c, 0, 70, 80
2, 48700, Note_on_c, 0, 70, 0
2, 48700, Note_on_c, 0, 68, 80
2, 48720, Note_on_c, 0, 68, 0
2, 48720, Note_on_c, 0, 65, 80
2, 48810, Note_on_c, 0, 65, 0
2, 48810, Note_on_c, 0, 70, 80
2, 48840, Note_on_c, 0, 70, 0
2, 48840, Note_on_c, 0, 70, 80
2, 48870, Note_on_c, 0, 70, 0
2, 48870, Note_on_c, 0, 72, 80
2, 48900, Note_on_c, 0, 72, 0
2, 48900, Note_on_c, 0, 70, 80
2, 48920, Note_on_c, 0, 70, 0
2, 48920, Note_on_c, 0, 72, 80
2, 48940, Note_on_c, 0, 72, 0
2, 48940, Note_on_c, 0, 70, 80
2, 48960, Note_on_c, 0, 70, 0
2, 48960, Note_on_c, 0, 68, 80
2, 49080, Note_on_c, 0, 68, 0
2, 49080, Note_on_c, 0, 67, 80
2, 49170, Note_on_c, 0, 67, 0
2, 49170, Note_on_c, 0, 79, 80
2, 49200, Note_on_c, 0, 79, 0
2, 49200, Note_on_c, 0, 75, 80
2, 49272, Note_on_c, 0, 75, 0
2, 49410, Note_on_c, 0, 75, 80
2, 49440, Note_on_c, 0, 75, 0
2, 49440, Note_on_c, 0, 72, 80
2, 49512, Note_on_c, 0, 72, 0
2, 49650, Note_on_c, 0, 72, 80
2, 49680, Note_on_c, 0, 72, 0
2, 49680, Note_on_c, 0, 70, 80
2, 49770, Note_on_c, 0, 70, 0
2, 49770, Note_on_c, 0, 68, 80
2, 49800, Note_on_c, 0, 68, 0
2, 49800, Note_on_c, 0, 65, 80
2, 49890, Note_on_c, 0, 65, 0
2, 49890, Note_on_c, 0, 62, 80
2, 49920, Note_on_c, 0, 62, 0
2, 49920, Note_on_c, 0, 63, 80
2, 49992, Note_on_c, 0, 63, 0
2, 50100, Note_on_c, 0, 79, 56
2, 50160, Note_on_c, 0, 79, 0
2, 50160, Note_on_c, 0, 74, 56
2, 50190, Note_on_c, 0, 74, 0
2, 50190, Note_on_c, 0, 77, 56
2, 50220, Note_on_c, 0, 77, 0
2, 50220, Note_on_c, 0, 75, 56
2, 50244, Note_on_c, 0, 75, 0
2, 50340, Note_on_c, 0, 75, 56
2, 50400, Note_on_c, 0, 75, 0
2, 50400, Note_on_c, 0, 71, 56
2, 50430, Note_on_c, 0, 71, 0
2, 50430, Note_on_c, 0, 74, 57
2, 50460, Note_on_c, 0, 74, 0
2, 50460, Note_on_c, 0, 72, 57
2, 50520, Note_on_c, 0, 72, 0
2, 50580, Note_on_c, 0, 80, 59
2, 50640, Note_on_c, 0, 80, 0
2, 50640, Note_on_c, 0, 76, 60
2, 50670, Note_on_c, 0, 76, 0
2, 50670, Note_on_c, 0, 79, 61
2, 50700, Note_on_c, 0, 79, 0
2, 50700, Note_on_c, 0, 77, 61
2, 50724, Note_on_c, 0, 77, 0
2, 50820, Note_on_c, 0, 75, 63
2, 50880, Note_on_c, 0, 75, 0
2, 50880, Note_on_c, 0, 73, 64
2, 50910, Note_on_c, 0, 73, 0
2, 50910, Note_on_c, 0, 75, 65
2, 50940, Note_on_c, 0, 75, 0
2, 50940, Note_on_c, 0, 74, 65
2, 51000, Note_on_c, 0, 74, 0
2, 51060, Note_on_c, 0, 82, 67
2, 51120, Note_on_c, 0, 82, 0
2, 51120, Note_on_c, 0, 81, 68
2, 51150, Note_on_c, 0, 81, 0
2, 51150, Note_on_c, 0, 84, 69
2, 51180, Note_on_c, 0, 84, 0
2, 51180, Note_on_c, 0, 82, 69
2, 51204, Note_on_c, 0, 82, 0
2, 51300, Note_on_c, 0, 82, 71
2, 51360, Note_on_c, 0, 82, 0
2, 51360, Note_on_c, 0, 81, 72
2, 51390, Note_on_c, 0, 81, 0
2, 51390, Note_on_c, 0, 84, 71
2, 51420, Note_on_c, 0, 84, 0
2, 51420, Note_on_c, 0, 82, 71
2, 51444, Note_on_c, 0, 82, 0
2, 51540, Note_on_c, 0, 82, 69
2, 51600, Note_on_c, 0, 82, 0
2, 51600, Note_on_c, 0, 81, 68
2, 51630, Note_on_c, 0, 81, 0
2, 51630, Note_on_c, 0, 84, 67
2, 51660, Note_on_c, 0, 84, 0
2, 51660, Note_on_c, 0, 82, 67
2, 51684, Note_on_c, 0, 82, 0
2, 51780, Note_on_c, 0, 82, 65
2, 51840, Note_on_c, 0, 82, 0
2, 51840, Note_on_c, 0, 79, 64
2, 51870, Note_on_c, 0, 79, 0
2, 51870, Note_on_c, 0, 82, 63
2, 51900, Note_on_c, 0, 82, 0
2, 51900, Note_on_c, 0, 80, 63
2, 51924, Note_on_c, 0, 80, 0
2, 52020, Note_on_c, 0, 80, 61
2, 52080, Note_on_c, 0, 80, 0
2, 52080, Note_on_c, 0, 79, 60
2, 52110, Note_on_c, 0, 79, 0
2, 52110, Note_on_c, 0, 82, 59
2, 52140, Note_on_c, 0, 82, 0
2, 52140, Note_on_c, 0, 80, 59
2, 52164, Note_on_c, 0, 80, 0
2, 52260, Note_on_c, 0, 80, 57
2, 52320, Note_on_c, 0, 80, 0
2, 52320, Note_on_c, 0, 87, 56
2, 52350, Note_on_c, 0, 87, 0
2, 52350, Note_on_c, 0, 86, 57
2, 52380, Note_on_c, 0, 86, 0
2, 52380, Note_on_c, 0, 89, 58
2, 52404, Note_on_c, 0, 89, 0
2, 52500, Note_on_c, 0, 80, 62
2, 52560, Note_on_c, 0, 80, 0
2, 52560, Note_on_c, 0, 87, 64
2, 52590, Note_on_c, 0, 87, 0
2, 52590, Note_on_c, 0, 86, 65
2, 52620, Note_on_c, 0, 86, 0
2, 52620, Note_on_c, 0, 89, 66
2, 52650, Note_on_c, 0, 89, 0
2, 52740, Note_on_c, 0, 80, 70
2, 52800, Note_on_c, 0, 80, 0
2, 52800, Note_on_c, 0, 87, 72
2, 52830, Note_on_c, 0, 87, 0
2, 52830, Note_on_c, 0, 86, 73
2, 52860, Note_on_c, 0, 86, 0
2, 52860, Note_on_c, 0, 89, 74
2, 52902, Note_on_c, 0, 89, 0
2, 52980, Note_on_c, 0, 80, 78
2, 53040, Note_on_c, 0, 80, 0
2, 53040, Note_on_c, 0, 87, 88
2, 53080, Note_on_c, 0, 87, 0
2, 53080, Note_on_c, 0, 86, 88
2, 53120, Note_on_c, 0, 86, 0
2, 53120, Note_on_c, 0, 89, 88
2, 53160, Note_on_c, 0, 89, 0
2, 53160, Note_on_c, 0, 87, 88
2, 53200, Note_on_c, 0, 87, 0
2, 53200, Note_on_c, 0, 86, 88
2, 53240, Note_on_c, 0, 86, 0
2, 53240, Note_on_c, 0, 84, 88
2, 53280, Note_on_c, 0, 84, 0
2, 53280, Note_on_c, 0, 82, 88
2, 53320, Note_on_c, 0, 82, 0
2, 53320, Note_on_c, 0, 80, 88
2, 53360, Note_on_c, 0, 80, 0
2, 53360, Note_on_c, 0, 79, 88
2, 53400, Note_on_c, 0, 79, 0
2, 53400, Note_on_c, 0, 82, 88
2, 53440, Note_on_c, 0, 82, 0
2, 53440, Note_on_c, 0, 80, 88
2, 53480, Note_on_c, 0, 80, 0
2, 53480, Note_on_c, 0, 84, 88
2, 53520, Note_on_c, 0, 84, 0
2, 53520, Note_on_c, 0, 82, 88
2, 53550, Note_on_c, 0, 82, 0
2, 53550, Note_on_c, 0, 80, 88
2, 53580, Note_on_c, 0, 80, 0
2, 53580, Note_on_c, 0, 79, 88
2, 53610, Note_on_c, 0, 79, 0
2, 53610, Note_on_c, 0, 77, 88
2, 53640, Note_on_c, 0, 77, 0
2, 53640, Note_on_c, 0, 75, 88
2, 53670, Note_on_c, 0, 75, 0
2, 53670, Note_on_c, 0, 74, 88
2, 53700, Note_on_c, 0, 74, 0
2, 53700, Note_on_c, 0, 72, 88
2, 53730, Note_on_c, 0, 72, 0
2, 53730, Note_on_c, 0, 70, 88
2, 53760, Note_on_c, 0, 70, 0
2, 53760, Note_on_c, 0, 68, 88
2, 54300, Note_on_c, 0, 68, 0
2, 54300, Note_on_c, 0, 67, 79
2, 54330, Note_on_c, 0, 67, 0
2, 54330, Note_on_c, 0, 68, 76
2, 54360, Note_on_c, 0, 68, 0
2, 54360, Note_on_c, 0, 70, 74
2, 54390, Note_on_c, 0, 70, 0
2, 54390, Note_on_c, 0, 68, 71
2, 54420, Note_on_c, 0, 68, 0
2, 54420, Note_on_c, 0, 67, 69
2, 54450, Note_on_c, 0, 67, 0
2, 54450, Note_on_c, 0, 65, 66
2, 54480, Note_on_c, 0, 65, 0
2, 54480, Note_on_c, 0, 63, 56
2, 54540, Note_on_c, 0, 63, 0
2, 54600, Note_on_c, 0, 63, 56
2, 54720, Note_on_c, 0, 63, 0
2, 54720, Note_on_c, 0, 63, 56
2, 54840, Note_on_c, 0, 63, 0
2, 54840, Note_on_c, 0, 63, 56
2, 54960, Note_on_c, 0, 63, 0
2, 54960, Note_on_c, 0, 63, 56
2, 55008, Note_on_c, 0, 63, 0
2, 55080, Note_on_c, 0, 63, 56
2, 55170, Note_on_c, 0, 63, 0
2, 55170, Note_on_c, 0, 63, 56
2, 55200, Note_on_c, 0, 63, 0
2, 55200, Note_on_c, 0, 63, 56
2, 55290, Note_on_c, 0, 63, 0
2, 55290, Note_on_c, 0, 63, 56
2, 55320, Note_on_c, 0, 63, 0
2, 55320, Note_on_c, 0, 63, 56
2, 55410, Note_on_c, 0, 63, 0
2, 55410, Note_on_c, 0, 63, 56
2, 55440, Note_on_c, 0, 63, 0
2, 55440, Note_on_c, 0, 63, 56
2, 55488, Note_on_c, 0, 63, 0
2, 55560, Note_on_c, 0, 63, 59
2, 55560, Note_on_c, 0, 65, 59
2, 55650, Note_on_c, 0, 65, 0
2, 55650, Note_on_c, 0, 63, 0
2, 55650, Note_on_c, 0, 63, 61
2, 55650, Note_on_c, 0, 65, 61
2, 55680, Note_on_c, 0, 65, 0
2, 55680, Note_on_c, 0, 63, 0
2, 55680, Note_on_c, 0, 63, 62
2, 55680, Note_on_c, 0, 65, 62
2, 55770, Note_on_c, 0, 65, 0
2, 55770, Note_on_c, 0, 63, 0
2, 55770, Note_on_c, 0, 63, 64
2, 55770, Note_on_c, 0, 65, 64
2, 55800, Note_on_c, 0, 65, 0
2, 55800, Note_on_c, 0, 63, 0
2, 55800, Note_on_c, 0, 63, 65
2, 55800, Note_on_c, 0, 65, 65
2, 55890, Note_on_c, 0, 65, 0
2, 55890, Note_on_c, 0, 63, 0
2, 55890, Note_on_c, 0, 63, 67
2, 55890, Note_on_c, 0, 65, 67
2, 55920, Note_on_c, 0, 65, 0
2, 55920, Note_on_c, 0, 63, 0
2, 55920, Note_on_c, 0, 62, 68
2, 55920, Note_on_c, 0, 65, 68
2, 55980, Note_on_c, 0, 65, 0
2, 55980, Note_on_c, 0, 62, 0
2, 56040, Note_on_c, 0, 62, 71
2, 56040, Note_on_c, 0, 70, 71
2, 56130, Note_on_c, 0, 70, 0
2, 56130, Note_on_c, 0, 62, 0
2, 56130, Note_on_c, 0, 62, 73
2, 56130, Note_on_c, 0, 70, 73
2, 56160, Note_on_c, 0, 70, 0
2, 56160, Note_on_c, 0, 62, 0
2, 56160, Note_on_c, 0, 63, 74
2, 56160, Note_on_c, 0, 70, 74
2, 56250, Note_on_c, 0, 70, 0
2, 56250, Note_on_c, 0, 63, 0
2, 56250, Note_on_c, 0, 63, 76
2, 56250, Note_on_c, 0, 70, 76
2, 56280, Note_on_c, 0, 70, 0
2, 56280, Note_on_c, 0, 63, 0
2, 56280, Note_on_c, 0, 65, 77
2, 56280, Note_on_c, 0, 68, 77
2, 56370, Note_on_c, 0, 68, 0
2, 56370, Note_on_c, 0, 65, 0
2, 56370, Note_on_c, 0, 65, 79
2, 56370, Note_on_c, 0, 68, 79
2, 56400, Note_on_c, 0, 68, 0
2, 56400, Note_on_c, 0, 65, 0
2, 56400, Note_on_c, 0, 67, 80
2, 56430, Note_on_c, 0, 67, 0
2, 56430, Note_on_c, 0, 70, 80
2, 56460, Note_on_c, 0, 70, 0
2, 56460, Note_on_c, 0, 68, 80
2, 56490, Note_on_c, 0, 68, 0
2, 56490, Note_on_c, 0, 67, 80
2, 56520, Note_on_c, 0, 67, 0
2, 56520, Note_on_c, 0, 68, 80
2, 56550, Note_on_c, 0, 68, 0
2, 56550, Note_on_c, 0, 70, 80
2, 56580, Note_on_c, 0, 70, 0
2, 56580, Note_on_c, 0, 72, 80
2, 56610, Note_on_c, 0, 72, 0
2, 56610, Note_on_c, 0, 74, 80
2, 56640, Note_on_c, 0, 74, 0
2, 56640, Note_on_c, 0, 75, 80
2, 56670, Note_on_c, 0, 75, 0
2, 56670, Note_on_c, 0, 77, 80
2, 56700, Note_on_c, 0, 77, 0
2, 56700, Note_on_c, 0, 79, 80
2, 56730, Note_on_c, 0, 79, 0
2, 56730, Note_on_c, 0, 80, 80
2, 56760, Note_on_c, 0, 80, 0
2, 56760, Note_on_c, 0, 82, 80
2, 56790, Note_on_c, 0, 82, 0
2, 56790, Note_on_c, 0, 80, 80
2, 56820, Note_on_c, 0, 80, 0
2, 56820, Note_on_c, 0, 79, 80
2, 56850, Note_on_c, 0, 79, 0
2, 56850, Note_on_c, 0, 77, 80
2, 56880, Note_on_c, 0, 77, 0
2, 56880, Note_on_c, 0, 75, 80
2, 56910, Note_on_c, 0, 75, 0
2, 56910, Note_on_c, 0, 74, 80
2, 56940, Note_on_c, 0, 74, 0
2, 56940, Note_on_c, 0, 72, 80
2, 56970, Note_on_c, 0, 72, 0
2, 56970, Note_on_c, 0, 70, 80
2, 57000, Note_on_c, 0, 70, 0
2, 57000, Note_on_c, 0, 72, 80
2, 57030, Note_on_c, 0, 72, 0
2, 57030, Note_on_c, 0, 74, 80
2, 57060, Note_on_c, 0, 74, 0
2, 57060, Note_on_c, 0, 75, 80
2, 57090, Note_on_c, 0, 75, 0
2, 57090, Note_on_c, 0, 77, 80
2, 57120, Note_on_c, 0, 77, 0
2, 57120, Note_on_c, 0, 79, 80
2, 57150, Note_on_c, 0, 79, 0
2, 57150, Note_on_c, 0, 77, 80
2, 57180, Note_on_c, 0, 77, 0
2, 57180, Note_on_c, 0, 75, 80
2, 57210, Note_on_c, 0, 75, 0
2, 57210, Note_on_c, 0, 74, 80
2, 57240, Note_on_c, 0, 74, 0
2, 57240, Note_on_c, 0, 72, 80
2, 57270, Note_on_c, 0, 72, 0
2, 57270, Note_on_c, 0, 70, 80
2, 57300, Note_on_c, 0, 70, 0
2, 57300, Note_on_c, 0, 68, 80
2, 57330, Note_on_c, 0, 68, 0
2, 57330, Note_on_c, 0, 67, 80
2, 57360, Note_on_c, 0, 67, 0
2, 57360, Note_on_c, 0, 65, 80
2, 57390, Note_on_c, 0, 65, 0
2, 57390, Note_on_c, 0, 67, 80
2, 57420, Note_on_c, 0, 67, 0
2, 57420, Note_on_c, 0, 68, 80
2, 57450, Note_on_c, 0, 68, 0
2, 57450, Note_on_c, 0, 70, 80
2, 57480, Note_on_c, 0, 70, 0
2, 57480, Note_on_c, 0, 72, 80
2, 57510, Note_on_c, 0, 72, 0
2, 57510, Note_on_c, 0, 70, 80
2, 57540, Note_on_c, 0, 70, 0
2, 57540, Note_on_c, 0, 68, 80
2, 57570, Note_on_c, 0, 68, 0
2, 57570, Note_on_c, 0, 67, 80
2, 57600, Note_on_c, 0, 67, 0
2, 57600, Note_on_c, 0, 65, 80
2, 57630, Note_on_c, 0, 65, 0
2, 57630, Note_on_c, 0, 67, 80
2, 57660, Note_on_c, 0, 67, 0
2, 57660, Note_on_c, 0, 65, 80
2, 57690, Note_on_c, 0, 65, 0
2, 57690, Note_on_c, 0, 63, 80
2, 57720, Note_on_c, 0, 63, 0
2, 57720, Note_on_c, 0, 62, 80
2, 57750, Note_on_c, 0, 62, 0
2, 57750, Note_on_c, 0, 63, 80
2, 57780, Note_on_c, 0, 63, 0
2, 57780, Note_on_c, 0, 62, 80
2, 57810, Note_on_c, 0, 62, 0
2, 57810, Note_on_c, 0, 60, 80
2, 57840, Note_on_c, 0, 60, 0
2, 57840, Note_on_c, 0, 58, 80
2, 57900, Note_on_c, 0, 58, 0
2, 57900, Note_on_c, 0, 60, 80
2, 57930, Note_on_c, 0, 60, 0
2, 57930, Note_on_c, 0, 62, 80
2, 57960, Note_on_c, 0, 62, 0
2, 57960, Note_on_c, 0, 63, 80
2, 57990, Note_on_c, 0, 63, 0
2, 57990, Note_on_c, 0, 65, 80
2, 58020, Note_on_c, 0, 65, 0
2, 58020, Note_on_c, 0, 67, 80
2, 58050, Note_on_c, 0, 67, 0
2, 58050, Note_on_c, 0, 69, 80
2, 58080, Note_on_c, 0, 69, 0
2, 58080, Note_on_c, 0, 70, 80
2, 58140, Note_on_c, 0, 70, 0
2, 58140, Note_on_c, 0, 72, 80
2, 58170, Note_on_c, 0, 72, 0
2, 58170, Note_on_c, 0, 74, 80
2, 58200, Note_on_c, 0, 74, 0
2, 58200, Note_on_c, 0, 75, 80
2, 58230, Note_on_c, 0, 75, 0
2, 58230, Note_on_c, 0, 77, 80
2, 58260, Note_on_c, 0, 77, 0
2, 58260, Note_on_c, 0, 79, 80
2, 58290, Note_on_c, 0, 79, 0
2, 58290, Note_on_c, 0, 81, 80
2, 58320, Note_on_c, 0, 81, 0
2, 58320, Note_on_c, 0, 82, 80
2, 58380, Note_on_c, 0, 82, 0
2, 58440, Note_on_c, 0, 82, 80
2, 58470, Note_on_c, 0, 82, 0
2, 58470, Note_on_c, 0, 81, 80
2, 58500, Note_on_c, 0, 81, 0
2, 58500, Note_on_c, 0, 82, 80
2, 58530, Note_on_c, 0, 82, 0
2, 58530, Note_on_c, 0, 84, 80
2, 58560, Note_on_c, 0, 84, 0
2, 58560, Note_on_c, 0, 82, 80
2, 58590, Note_on_c, 0, 82, 0
2, 58590, Note_on_c, 0, 81, 80
2, 58620, Note_on_c, 0, 81, 0
2, 58620, Note_on_c, 0, 82, 80
2, 58650, Note_on_c, 0, 82, 0
2, 58650, Note_on_c, 0, 84, 80
2, 58680, Note_on_c, 0, 84, 0
2, 58680, Note_on_c, 0, 82, 80
2, 58710, Note_on_c, 0, 82, 0
2, 58710, Note_on_c, 0, 80, 80
2, 58740, Note_on_c, 0, 80, 0
2, 58740, Note_on_c, 0, 79, 80
2, 58770, Note_on_c, 0, 79, 0
2, 58770, Note_on_c, 0, 77, 80
2, 58800, Note_on_c, 0, 77, 0
2, 58800, Note_on_c, 0, 75, 80
2, 58860, Note_on_c, 0, 75, 0
2, 58920, Note_on_c, 0, 82, 56
2, 58950, Note_on_c, 0, 82, 0
2, 58950, Note_on_c, 0, 81, 56
2, 58980, Note_on_c, 0, 81, 0
2, 58980, Note_on_c, 0, 82, 56
2, 59010, Note_on_c, 0, 82, 0
2, 59010, Note_on_c, 0, 84, 56
2, 59040, Note_on_c, 0, 84, 0
2, 59040, Note_on_c, 0, 82, 56
2, 59070, Note_on_c, 0, 82, 0
2, 59070, Note_on_c, 0, 81, 56
2, 59100, Note_on_c, 0, 81, 0
2, 59100, Note_on_c, 0, 82, 56
2, 59130, Note_on_c, 0, 82, 0
2, 59130, Note_on_c, 0, 84, 56
2, 59160, Note_on_c, 0, 84, 0
2, 59160, Note_on_c, 0, 82, 56
2, 59190, Note_on_c, 0, 82, 0
2, 59190, Note_on_c, 0, 80, 56
2, 59220, Note_on_c, 0, 80, 0
2, 59220, Note_on_c, 0, 79, 56
2, 59250, Note_on_c, 0, 79, 0
2, 59250, Note_on_c, 0, 77, 56
2, 59280, Note_on_c, 0, 77, 0
2, 59280, Note_on_c, 0, 75, 56
2, 59340, Note_on_c, 0, 75, 0
2, 59400, Note_on_c, 0, 82, 80
2, 59430, Note_on_c, 0, 82, 0
2, 59430, Note_on_c, 0, 81, 80
2, 59460, Note_on_c, 0, 81, 0
2, 59460, Note_on_c, 0, 82, 80
2, 59490, Note_on_c, 0, 82, 0
2, 59490, Note_on_c, 0, 84, 80
2, 59520, Note_on_c, 0, 84, 0
2, 59520, Note_on_c, 0, 82, 80
2, 59550, Note_on_c, 0, 82, 0
2, 59550, Note_on_c, 0, 81, 80
2, 59580, Note_on_c, 0, 81, 0
2, 59580, Note_on_c, 0, 82, 80
2, 59610, Note_on_c, 0, 82, 0
2, 59610, Note_on_c, 0, 84, 80
2, 59640, Note_on_c, 0, 84, 0
2, 59640, Note_on_c, 0, 82, 80
2, 59670, Note_on_c, 0, 82, 0
2, 59670, Note_on_c, 0, 80, 80
2, 59700, Note_on_c, 0, 80, 0
2, 59700, Note_on_c, 0, 79, 80
2, 59730, Note_on_c, 0, 79, 0
2, 59730, Note_on_c, 0, 77, 80
2, 59760, Note_on_c, 0, 77, 0
2, 59760, Note_on_c, 0, 75, 80
2, 59820, Note_on_c, 0, 75, 0
2, 59820, Note_on_c, 0, 77, 80
2, 59850, Note_on_c, 0, 77, 0
2, 59850, Note_on_c, 0, 79, 80
2, 59880, Note_on_c, 0, 79, 0
2, 59880, Note_on_c, 0, 80, 80
2, 59910, Note_on_c, 0, 80, 0
2, 59910, Note_on_c, 0, 82, 80
2, 59940, Note_on_c, 0, 82, 0
2, 59940, Note_on_c, 0, 84, 80
2, 59970, Note_on_c, 0, 84, 0
2, 59970, Note_on_c, 0, 86, 80
2, 60000, Note_on_c, 0, 86, 0
2, 60000, Note_on_c, 0, 87, 80
2, 60030, Note_on_c, 0, 87, 0
2, 60030, Note_on_c, 0, 86, 80
2, 60060, Note_on_c, 0, 86, 0
2, 60060, Note_on_c, 0, 84, 80
2, 60090, Note_on_c, 0, 84, 0
2, 60090, Note_on_c, 0, 82, 80
2, 60120, Note_on_c, 0, 82, 0
2, 60120, Note_on_c, 0, 80, 80
2, 60150, Note_on_c, 0, 80, 0
2, 60150, Note_on_c, 0, 79, 80
2, 60180, Note_on_c, 0, 79, 0
2, 60180, Note_on_c, 0, 80, 80
2, 60210, Note_on_c, 0, 80, 0
2, 60210, Note_on_c, 0, 82, 80
2, 60240, Note_on_c, 0, 82, 0
2, 60240, Note_on_c, 0, 84, 80
2, 60270, Note_on_c, 0, 84, 0
2, 60270, Note_on_c, 0, 82, 80
2, 60300, Note_on_c, 0, 82, 0
2, 60300, Note_on_c, 0, 80, 80
2, 60330, Note_on_c, 0, 80, 0
2, 60330, Note_on_c, 0, 79, 80
2, 60360, Note_on_c, 0, 79, 0
2, 60360, Note_on_c, 0, 77, 80
2, 60390, Note_on_c, 0, 77, 0
2, 60390, Note_on_c, 0, 76, 80
2, 60420, Note_on_c, 0, 76, 0
2, 60420, Note_on_c, 0, 77, 80
2, 60450, Note_on_c, 0, 77, 0
2, 60450, Note_on_c, 0, 79, 80
2, 60480, Note_on_c, 0, 79, 0
2, 60480, Note_on_c, 0, 80, 80
2, 60510, Note_on_c, 0, 80, 0
2, 60510, Note_on_c, 0, 82, 80
2, 60540, Note_on_c, 0, 82, 0
2, 60540, Note_on_c, 0, 80, 80
2, 60570, Note_on_c, 0, 80, 0
2, 60570, Note_on_c, 0, 79, 80
2, 60600, Note_on_c, 0, 79, 0
2, 60600, Note_on_c, 0, 77, 80
2, 60630, Note_on_c, 0, 77, 0
2, 60630, Note_on_c, 0, 75, 80
2, 60660, Note_on_c, 0, 75, 0
2, 60660, Note_on_c, 0, 74, 80
2, 60690, Note_on_c, 0, 74, 0
2, 60690, Note_on_c, 0, 72, 80
2, 60720, Note_on_c, 0, 72, 0
2, 60720, Note_on_c, 0, 70, 80
2, 60750, Note_on_c, 0, 70, 0
2, 60750, Note_on_c, 0, 72, 80
2, 60780, Note_on_c, 0, 72, 0
2, 60780, Note_on_c, 0, 74, 80
2, 60810, Note_on_c, 0, 74, 0
2, 60810, Note_on_c, 0, 75, 80
2, 60840, Note_on_c, 0, 75, 0
2, 60840, Note_on_c, 0, 77, 80
2, 60870, Note_on_c, 0, 77, 0
2, 60870, Note_on_c, 0, 79, 80
2, 60900, Note_on_c, 0, 79, 0
2, 60900, Note_on_c, 0, 80, 80
2, 60930, Note_on_c, 0, 80, 0
2, 60930, Note_on_c, 0, 77, 80
2, 60960, Note_on_c, 0, 77, 0
2, 60960, Note_on_c, 0, 79, 80
2, 60990, Note_on_c, 0, 79, 0
2, 60990, Note_on_c, 0, 82, 80
2, 61020, Note_on_c, 0, 82, 0
2, 61020, Note_on_c, 0, 80, 80
2, 61050, Note_on_c, 0, 80, 0
2, 61050, Note_on_c, 0, 79, 80
2, 61080, Note_on_c, 0, 79, 0
2, 61080, Note_on_c, 0, 77, 80
2, 61110, Note_on_c, 0, 77, 0
2, 61110, Note_on_c, 0, 75, 80
2, 61140, Note_on_c, 0, 75, 0
2, 61140, Note_on_c, 0, 74, 80
2, 61170, Note_on_c, 0, 74, 0
2, 61170, Note_on_c, 0, 72, 80
2, 61200, Note_on_c, 0, 72, 0
2, 61200, Note_on_c, 0, 70, 56
2, 61230, Note_on_c, 0, 70, 0
2, 61230, Note_on_c, 0, 72, 56
2, 61260, Note_on_c, 0, 72, 0
2, 61260, Note_on_c, 0, 74, 56
2, 61290, Note_on_c, 0, 74, 0
2, 61290, Note_on_c, 0, 75, 56
2, 61320, Note_on_c, 0, 75, 0
2, 61320, Note_on_c, 0, 77, 56
2, 61350, Note_on_c, 0, 77, 0
2, 61350, Note_on_c, 0, 79, 56
2, 61380, Note_on_c, 0, 79, 0
2, 61380, Note_on_c, 0, 80, 56
2, 61410, Note_on_c, 0, 80, 0
2, 61410, Note_on_c, 0, 77, 56
2, 61440, Note_on_c, 0, 77, 0
2, 61440, Note_on_c, 0, 79, 56
2, 61470, Note_on_c, 0, 79, 0
2, 61470, Note_on_c, 0, 82, 56
2, 61500, Note_on_c, 0, 82, 0
2, 61500, Note_on_c, 0, 80, 56
2, 61530, Note_on_c, 0, 80, 0
2, 61530, Note_on_c, 0, 79, 56
2, 61560, Note_on_c, 0, 79, 0
2, 61560, Note_on_c, 0, 77, 56
2, 61590, Note_on_c, 0, 77, 0
2, 61590, Note_on_c, 0, 75, 56
2, 61620, Note_on_c, 0, 75, 0
2, 61620, Note_on_c, 0, 74, 56
2, 61650, Note_on_c, 0, 74, 0
2, 61650, Note_on_c, 0, 72, 56
2, 61680, Note_on_c, 0, 72, 0
2, 61680, Note_on_c, 0, 70, 80
2, 61710, Note_on_c, 0, 70, 0
2, 61710, Note_on_c, 0, 72, 80
2, 61740, Note_on_c, 0, 72, 0
2, 61740, Note_on_c, 0, 74, 80
2, 61770, Note_on_c, 0, 74, 0
2, 61770, Note_on_c, 0, 75, 80
2, 61800, Note_on_c, 0, 75, 0
2, 61800, Note_on_c, 0, 77, 80
2, 61830, Note_on_c, 0, 77, 0
2, 61830, Note_on_c, 0, 79, 80
2, 61860, Note_on_c, 0, 79, 0
2, 61860, Note_on_c, 0, 80, 80
2, 61890, Note_on_c, 0, 80, 0
2, 61890, Note_on_c, 0, 77, 80
2, 61920, Note_on_c, 0, 77, 0
2, 61920, Note_on_c, 0, 79, 80
2, 61950, Note_on_c, 0, 79, 0
2, 61950, Note_on_c, 0, 82, 80
2, 61980, Note_on_c, 0, 82, 0
2, 61980, Note_on_c, 0, 80, 80
2, 62010, Note_on_c, 0, 80, 0
2, 62010, Note_on_c, 0, 79, 80
2, 62040, Note_on_c, 0, 79, 0
2, 62040, Note_on_c, 0, 77, 80
2, 62070, Note_on_c, 0, 77, 0
2, 62070, Note_on_c, 0, 75, 80
2, 62100, Note_on_c, 0, 75, 0
2, 62100, Note_on_c, 0, 74, 80
2, 62130, Note_on_c, 0, 74, 0
2, 62130, Note_on_c, 0, 72, 80
2, 62160, Note_on_c, 0, 72, 0
2, 62160, Note_on_c, 0, 70, 80
2, 62220, Note_on_c, 0, 70, 0
2, 62220, Note_on_c, 0, 72, 80
2, 62250, Note_on_c, 0, 72, 0
2, 62250, Note_on_c, 0, 74, 80
2, 62280, Note_on_c, 0, 74, 0
2, 62280, Note_on_c, 0, 75, 80
2, 62310, Note_on_c, 0, 75, 0
2, 62310, Note_on_c, 0, 77, 80
2, 62340, Note_on_c, 0, 77, 0
2, 62340, Note_on_c, 0, 79, 80
2, 62370, Note_on_c, 0, 79, 0
2, 62370, Note_on_c, 0, 80, 80
2, 62400, Note_on_c, 0, 80, 0
2, 62400, Note_on_c, 0, 82, 80
2, 62460, Note_on_c, 0, 82, 0
2, 62520, Note_on_c, 0, 74, 80
2, 62520, Note_on_c, 0, 82, 80
2, 62580, Note_on_c, 0, 82, 0
2, 62580, Note_on_c, 0, 74, 0
2, 62640, Note_on_c, 0, 74, 80
2, 62640, Note_on_c, 0, 82, 80
2, 62880, Note_on_c, 0, 82, 0
2, 62880, Note_on_c, 0, 74, 0
2, 63060, Note_on_c, 0, 55, 80
2, 63090, Note_on_c, 0, 55, 0
2, 63090, Note_on_c, 0, 58, 80
2, 63120, Note_on_c, 0, 58, 0
2, 63120, Note_on_c, 0, 63, 80
2, 63210, Note_on_c, 0, 63, 0
2, 63300, Note_on_c, 0, 58, 80
2, 63330, Note_on_c, 0, 58, 0
2, 63330, Note_on_c, 0, 63, 80
2, 63360, Note_on_c, 0, 63, 0
2, 63360, Note_on_c, 0, 67, 80
2, 63540, Note_on_c, 0, 67, 0
2, 63540, Note_on_c, 0, 63, 80
2, 63570, Note_on_c, 0, 63, 0
2, 63570, Note_on_c, 0, 67, 80
2, 63600, Note_on_c, 0, 67, 0
2, 63600, Note_on_c, 0, 70, 80
2, 63660, Note_on_c, 0, 70, 0
2, 63960, Note_on_c, 0, 75, 56
2, 64040, Note_on_c, 0, 75, 0
2, 64040, Note_on_c, 0, 77, 56
2, 64060, Note_on_c, 0, 77, 0
2, 64060, Note_on_c, 0, 79, 56
2, 64080, Note_on_c, 0, 79, 0
2, 64080, Note_on_c, 0, 70, 56
2, 64140, Note_on_c, 0, 70, 0
2, 64200, Note_on_c, 0, 75, 56
2, 64280, Note_on_c, 0, 75, 0
2, 64280, Note_on_c, 0, 77, 56
2, 64300, Note_on_c, 0, 77, 0
2, 64300, Note_on_c, 0, 79, 56
2, 64320, Note_on_c, 0, 79, 0
2, 64320, Note_on_c, 0, 69, 56
2, 64380, Note_on_c, 0, 69, 0
2, 64440, Note_on_c, 0, 74, 56
2, 64520, Note_on_c, 0, 74, 0
2, 64520, Note_on_c, 0, 75, 56
2, 64540, Note_on_c, 0, 75, 0
2, 64540, Note_on_c, 0, 77, 56
2, 64560, Note_on_c, 0, 77, 0
2, 64560, Note_on_c, 0, 68, 56
2, 64920, Note_on_c, 0, 68, 0
2, 64920, Note_on_c, 0, 67, 56
2, 65040, Note_on_c, 0, 67, 0
2, 65040, Note_on_c, 0, 67, 56
2, 65130, Note_on_c, 0, 67, 0
2, 65130, Note_on_c, 0, 65, 56
2, 65160, Note_on_c, 0, 65, 0
2, 65160, Note_on_c, 0, 68, 56
2, 65250, Note_on_c, 0, 68, 0
2, 65250, Note_on_c, 0, 72, 56
2, 65280, Note_on_c, 0, 72, 0
2, 65280, Note_on_c, 0, 70, 56
2, 65400, Note_on_c, 0, 70, 0
2, 65400, Note_on_c, 0, 68, 56
2, 65400, Note_on_c, 0, 65, 56
2, 65460, Note_on_c, 0, 65, 0
2, 65460, Note_on_c, 0, 68, 0
2, 65460, Note_on_c, 0, 67, 56
2, 65480, Note_on_c, 0, 67, 0
2, 65480, Note_on_c, 0, 68, 56
2, 65500, Note_on_c, 0, 68, 0
2, 65500, Note_on_c, 0, 70, 56
2, 65520, Note_on_c, 0, 70, 0
2, 65520, Note_on_c, 0, 68, 56
2, 65520, Note_on_c, 0, 65, 56
2, 65760, Note_on_c, 0, 65, 0
2, 65760, Note_on_c, 0, 68, 0
2, 65760, Note_on_c, 0, 67, 56
2, 65760, Note_on_c, 0, 63, 56
2, 65832, Note_on_c, 0, 63, 0
2, 65832, Note_on_c, 0, 67, 0
2, 66360, Note_on_c, 0, 75, 56
2, 66440, Note_on_c, 0, 75, 0
2, 66440, Note_on_c, 0, 77, 56
2, 66460, Note_on_c, 0, 77, 0
2, 66460, Note_on_c, 0, 79, 56
2, 66480, Note_on_c, 0, 79, 0
2, 66480, Note_on_c, 0, 70, 56
2, 66540, Note_on_c, 0, 70, 0
2, 66600, Note_on_c, 0, 75, 56
2, 66680, Note_on_c, 0, 75, 0
2, 66680, Note_on_c, 0, 77, 56
2, 66700, Note_on_c, 0, 77, 0
2, 66700, Note_on_c, 0, 79, 56
2, 66720, Note_on_c, 0, 79, 0
2, 66720, Note_on_c, 0, 69, 56
2, 66780, Note_on_c, 0, 69, 0
2, 66840, Note_on_c, 0, 74, 56
2, 66920, Note_on_c, 0, 74, 0
2, 66920, Note_on_c, 0, 75, 56
2, 66940, Note_on_c, 0, 75, 0
2, 66940, Note_on_c, 0, 77, 56
2, 66960, Note_on_c, 0, 77, 0
2, 66960, Note_on_c, 0, 68, 56
2, 67320, Note_on_c, 0, 68, 0
2, 67320, Note_on_c, 0, 67, 56
2, 67440, Note_on_c, 0, 67, 0
2, 67440, Note_on_c, 0, 72, 56
2, 67800, Note_on_c, 0, 72, 0
2, 67800, Note_on_c, 0, 77, 56
2, 67920, Note_on_c, 0, 77, 0
2, 67920, Note_on_c, 0, 75, 56
2, 68280, Note_on_c, 0, 75, 0
2, 68280, Note_on_c, 0, 74, 56
2, 68310, Note_on_c, 0, 74, 0
2, 68310, Note_on_c, 0, 75, 56
2, 68340, Note_on_c, 0, 75, 0
2, 68340, Note_on_c, 0, 77, 56
2, 68370, Note_on_c, 0, 77, 0
2, 68370, Note_on_c, 0, 79, 56
2, 68400, Note_on_c, 0, 79, 0
2, 68400, Note_on_c, 0, 80, 56
2, 68460, Note_on_c, 0, 80, 0
2, 68520, Note_on_c, 0, 80, 56
2, 68550, Note_on_c, 0, 80, 0
2, 68550, Note_on_c, 0, 79, 56
2, 68580, Note_on_c, 0, 79, 0
2, 68580, Note_on_c, 0, 77, 56
2, 68610, Note_on_c, 0, 77, 0
2, 68610, Note_on_c, 0, 75, 56
2, 68640, Note_on_c, 0, 75, 0
2, 68640, Note_on_c, 0, 74, 56
2, 68700, Note_on_c, 0, 74, 0
2, 68760, Note_on_c, 0, 77, 48
2, 68790, Note_on_c, 0, 77, 0
2, 68790, Note_on_c, 0, 79, 48
2, 68820, Note_on_c, 0, 79, 0
2, 68820, Note_on_c, 0, 80, 48
2, 68850, Note_on_c, 0, 80, 0
2, 68850, Note_on_c, 0, 82, 48
2, 68880, Note_on_c, 0, 82, 0
2, 68880, Note_on_c, 0, 84, 48
2, 68940, Note_on_c, 0, 84, 0
2, 69000, Note_on_c, 0, 84, 40
2, 69030, Note_on_c, 0, 84, 0
2, 69030, Note_on_c, 0, 82, 40
2, 69060, Note_on_c, 0, 82, 0
2, 69060, Note_on_c, 0, 80, 40
2, 69090, Note_on_c, 0, 80, 0
2, 69090, Note_on_c, 0, 79, 40
2, 69120, Note_on_c, 0, 79, 0
2, 69120, Note_on_c, 0, 77, 40
2, 69180, Note_on_c, 0, 77, 0
2, 69240, Note_on_c, 0, 77, 32
2, 69270, Note_on_c, 0, 77, 0
2, 69270, Note_on_c, 0, 79, 32
2, 69300, Note_on_c, 0, 79, 0
2, 69300, Note_on_c, 0, 80, 32
2, 69330, Note_on_c, 0, 80, 0
2, 69330, Note_on_c, 0, 82, 32
2, 69360, Note_on_c, 0, 82, 0
2, 69360, Note_on_c, 0, 84, 32
2, 69420, Note_on_c, 0, 84, 0
2, 70320, Note_on_c, 0, 79, 88
2, 70350, Note_on_c, 0, 79, 0
2, 70350, Note_on_c, 0, 77, 88
2, 70380, Note_on_c, 0, 77, 0
2, 70380, Note_on_c, 0, 75, 88
2, 70410, Note_on_c, 0, 75, 0
2, 70410, Note_on_c, 0, 74, 88
2, 70440, Note_on_c, 0, 74, 0
2, 70440, Note_on_c, 0, 75, 88
2, 70470, Note_on_c, 0, 75, 0
2, 70470, Note_on_c, 0, 74, 88
2, 70500, Note_on_c, 0, 74, 0
2, 70500, Note_on_c, 0, 72, 88
2, 70530, Note_on_c, 0, 72, 0
2, 70530, Note_on_c, 0, 70, 88
2, 70560, Note_on_c, 0, 70, 0
2, 70560, Note_on_c, 0, 68, 88
2, 70590, Note_on_c, 0, 68, 0
2, 70590, Note_on_c, 0, 67, 88
2, 70620, Note_on_c, 0, 67, 0
2, 70620, Note_on_c, 0, 65, 88
2, 70650, Note_on_c, 0, 65, 0
2, 70650, Note_on_c, 0, 63, 88
2, 70680, Note_on_c, 0, 63, 0
2, 70680, Note_on_c, 0, 62, 88
2, 70710, Note_on_c, 0, 62, 0
2, 70710, Note_on_c, 0, 63, 88
2, 70740, Note_on_c, 0, 63, 0
2, 70740, Note_on_c, 0, 62, 88
2, 70770, Note_on_c, 0, 62, 0
2, 70770, Note_on_c, 0, 63, 88
2, 70800, Note_on_c, 0, 63, 0
2, 70800, Note_on_c, 0, 79, 88
2, 70830, Note_on_c, 0, 79, 0
2, 70830, Note_on_c, 0, 77, 88
2, 70860, Note_on_c, 0, 77, 0
2, 70860, Note_on_c, 0, 75, 88
2, 70890, Note_on_c, 0, 75, 0
2, 70890, Note_on_c, 0, 74, 88
2, 70920, Note_on_c, 0, 74, 0
2, 70920, Note_on_c, 0, 75, 88
2, 70950, Note_on_c, 0, 75, 0
2, 70950, Note_on_c, 0, 74, 88
2, 70980, Note_on_c, 0, 74, 0
2, 70980, Note_on_c, 0, 72, 88
2, 71010, Note_on_c, 0, 72, 0
2, 71010, Note_on_c, 0, 70, 88
2, 71040, Note_on_c, 0, 70, 0
2, 71040, Note_on_c, 0, 68, 88
2, 71070, Note_on_c, 0, 68, 0
2, 71070, Note_on_c, 0, 67, 88
2, 71100, Note_on_c, 0, 67, 0
2, 71100, Note_on_c, 0, 65, 88
2, 71130, Note_on_c, 0, 65, 0
2, 71130, Note_on_c, 0, 63, 88
2, 71160, Note_on_c, 0, 63, 0
2, 71160, Note_on_c, 0, 62, 88
2, 71190, Note_on_c, 0, 62, 0
2, 71190, Note_on_c, 0, 63, 88
2, 71220, Note_on_c, 0, 63, 0
2, 71220, Note_on_c, 0, 62, 88
2, 71250, Note_on_c, 0, 62, 0
2, 71250, Note_on_c, 0, 63, 88
2, 71280, Note_on_c, 0, 63, 0
2, 71280, Note_on_c, 0, 72, 88
2, 71310, Note_on_c, 0, 72, 0
2, 71310, Note_on_c, 0, 70, 88
2, 71340, Note_on_c, 0, 70, 0
2, 71340, Note_on_c, 0, 68, 88
2, 71370, Note_on_c, 0, 68, 0
2, 71370, Note_on_c, 0, 67, 88
2, 71400, Note_on_c, 0, 67, 0
2, 71400, Note_on_c, 0, 68, 88
2, 71430, Note_on_c, 0, 68, 0
2, 71430, Note_on_c, 0, 67, 88
2, 71460, Note_on_c, 0, 67, 0
2, 71460, Note_on_c, 0, 65, 88
2, 71490, Note_on_c, 0, 65, 0
2, 71490, Note_on_c, 0, 64, 88
2, 71520, Note_on_c, 0, 64, 0
2, 71520, Note_on_c, 0, 65, 88
2, 71550, Note_on_c, 0, 65, 0
2, 71550, Note_on_c, 0, 67, 88
2, 71580, Note_on_c, 0, 67, 0
2, 71580, Note_on_c, 0, 68, 88
2, 71610, Note_on_c, 0, 68, 0
2, 71610, Note_on_c, 0, 67, 88
2, 71640, Note_on_c, 0, 67, 0
2, 71640, Note_on_c, 0, 65, 88
2, 71670, Note_on_c, 0, 65, 0
2, 71670, Note_on_c, 0, 63, 88
2, 71700, Note_on_c, 0, 63, 0
2, 71700, Note_on_c, 0, 62, 88
2, 71730, Note_on_c, 0, 62, 0
2, 71730, Note_on_c, 0, 60, 88
2, 71760, Note_on_c, 0, 60, 0
2, 71760, Note_on_c, 0, 58, 88
2, 71820, Note_on_c, 0, 58, 0
2, 71820, Note_on_c, 0, 75, 88
2, 71850, Note_on_c, 0, 75, 0
2, 71880, Note_on_c, 0, 75, 88
2, 71910, Note_on_c, 0, 75, 0
2, 71940, Note_on_c, 0, 75, 88
2, 71970, Note_on_c, 0, 75, 0
2, 72000, Note_on_c, 0, 75, 88
2, 72030, Note_on_c, 0, 75, 0
2, 72030, Note_on_c, 0, 77, 88
2, 72060, Note_on_c, 0, 77, 0
2, 72060, Note_on_c, 0, 79, 88
2, 72090, Note_on_c, 0, 79, 0
2, 72090, Note_on_c, 0, 80, 88
2, 72120, Note_on_c, 0, 80, 0
2, 72120, Note_on_c, 0, 82, 88
2, 72180, Note_on_c, 0, 82, 0
2, 72240, Note_on_c, 0, 72, 88
2, 72300, Note_on_c, 0, 72, 0
2, 72300, Note_on_c, 0, 74, 88
2, 72330, Note_on_c, 0, 74, 0
2, 72330, Note_on_c, 0, 75, 88
2, 72360, Note_on_c, 0, 75, 0
2, 72360, Note_on_c, 0, 74, 88
2, 72390, Note_on_c, 0, 74, 0
2, 72390, Note_on_c, 0, 75, 88
2, 72420, Note_on_c, 0, 75, 0
2, 72420, Note_on_c, 0, 74, 88
2, 72450, Note_on_c, 0, 74, 0
2, 72450, Note_on_c, 0, 75, 88
2, 72480, Note_on_c, 0, 75, 0
2, 72480, Note_on_c, 0, 74, 88
2, 72510, Note_on_c, 0, 74, 0
2, 72510, Note_on_c, 0, 75, 88
2, 72540, Note_on_c, 0, 75, 0
2, 72540, Note_on_c, 0, 74, 88
2, 72560, Note_on_c, 0, 74, 0
2, 72560, Note_on_c, 0, 75, 88
2, 72580, Note_on_c, 0, 75, 0
2, 72580, Note_on_c, 0, 74, 88
2, 72600, Note_on_c, 0, 74, 0
2, 72600, Note_on_c, 0, 72, 88
2, 72660, Note_on_c, 0, 72, 0
2, 72660, Note_on_c, 0, 74, 88
2, 72720, Note_on_c, 0, 74, 0
2, 72720, Note_on_c, 0, 75, 88
2, 72828, Note_on_c, 0, 75, 0
2, 72840, Note_on_c, 0, 67, 88
2, 72840, Note_on_c, 0, 70, 88
2, 72900, Note_on_c, 0, 70, 0
2, 72900, Note_on_c, 0, 67, 0
2, 72960, Note_on_c, 0, 72, 88
2, 72960, Note_on_c, 0, 68, 88
2, 73020, Note_on_c, 0, 68, 0
2, 73020, Note_on_c, 0, 72, 0
2, 73080, Note_on_c, 0, 70, 88
2, 73110, Note_on_c, 0, 70, 0
2, 73110, Note_on_c, 0, 68, 88
2, 73140, Note_on_c, 0, 68, 0
2, 73140, Note_on_c, 0, 67, 88
2, 73170, Note_on_c, 0, 67, 0
2, 73170, Note_on_c, 0, 68, 88
2, 73200, Note_on_c, 0, 68, 0
2, 73200, Note_on_c, 0, 67, 88
2, 73296, Note_on_c, 0, 67, 0
2, 73320, Note_on_c, 0, 82, 91
2, 73320, Note_on_c, 0, 79, 91
2, 73320, Note_on_c, 0, 75, 91
2, 73380, Note_on_c, 0, 75, 0
2, 73380, Note_on_c, 0, 79, 0
2, 73380, Note_on_c, 0, 82, 0
2, 73440, Note_on_c, 0, 72, 94
2, 73440, Note_on_c, 0, 77, 94
2, 73440, Note_on_c, 0, 80, 94
2, 73500, Note_on_c, 0, 80, 0
2, 73500, Note_on_c, 0, 77, 0
2, 73500, Note_on_c, 0, 72, 0
2, 73560, Note_on_c, 0, 65, 97
2, 73560, Note_on_c, 0, 68, 97
2, 73560, Note_on_c, 0, 70, 97
2, 73560, Note_on_c, 0, 74, 97
2, 73620, Note_on_c, 0, 74, 0
2, 73620, Note_on_c, 0, 65, 0
2, 73620, Note_on_c, 0, 68, 0
2, 73620, Note_on_c, 0, 70, 0
2, 73680, Note_on_c, 0, 67, 100
2, 73680, Note_on_c, 0, 70, 100
2, 73680, Note_on_c, 0, 75, 100
2, 73872, Note_on_c, 0, 75, 0
2, 73872, Note_on_c, 0, 70, 0
2, 73872, Note_on_c, 0, 67, 0
2, 73872, End_track
3, 0, Start_track
3, 0, MIDI_port, 0
3, 0, Title_t, "by FJ Haydn (1st mvmt.- Allegro moderato)"
3, 0, Program_c, 1, 0
3, 0, Control_c, 1, 7, 112
3, 0, Control_c, 1, 10, 56
3, 120, Note_on_c, 1, 51, 64
3, 180, Note_on_c, 1, 51, 0
3, 240, Note_on_c, 1, 50, 64
3, 360, Note_on_c, 1, 50, 0
3, 360, Note_on_c, 1, 46, 64
3, 480, Note_on_c, 1, 46, 0
3, 600, Note_on_c, 1, 51, 64
3, 660, Note_on_c, 1, 51, 0
3, 720, Note_on_c, 1, 55, 64
3, 840, Note_on_c, 1, 55, 0
3, 840, Note_on_c, 1, 58, 64
3, 960, Note_on_c, 1, 58, 0
3, 960, Note_on_c, 1, 60, 64
3, 1200, Note_on_c, 1, 60, 0
3, 1200, Note_on_c, 1, 62, 64
3, 1440, Note_on_c, 1, 62, 0
3, 1560, Note_on_c, 1, 63, 64
3, 1620, Note_on_c, 1, 63, 0
3, 1680, Note_on_c, 1, 51, 64
3, 1800, Note_on_c, 1, 51, 0
3, 1800, Note_on_c, 1, 58, 64
3, 1920, Note_on_c, 1, 58, 0
3, 1920, Note_on_c, 1, 60, 64
3, 2160, Note_on_c, 1, 60, 0
3, 2160, Note_on_c, 1, 62, 64
3, 2400, Note_on_c, 1, 62, 0
3, 2400, Note_on_c, 1, 63, 64
3, 2640, Note_on_c, 1, 63, 0
3, 2760, Note_on_c, 1, 58, 64
3, 2760, Note_on_c, 1, 55, 64
3, 2820, Note_on_c, 1, 55, 0
3, 2820, Note_on_c, 1, 58, 0
3, 3000, Note_on_c, 1, 56, 64
3, 3000, Note_on_c, 1, 60, 64
3, 3060, Note_on_c, 1, 60, 0
3, 3060, Note_on_c, 1, 56, 0
3, 3240, Note_on_c, 1, 46, 64
3, 3240, Note_on_c, 1, 56, 64
3, 3360, Note_on_c, 1, 56, 0
3, 3360, Note_on_c, 1, 46, 0
3, 3480, Note_on_c, 1, 39, 64
3, 3540, Note_on_c, 1, 39, 0
3, 3600, Note_on_c, 1, 43, 72
3, 3720, Note_on_c, 1, 43, 0
3, 3720, Note_on_c, 1, 46, 80
3, 3840, Note_on_c, 1, 46, 0
3, 3960, Note_on_c, 1, 63, 80
3, 3960, Note_on_c, 1, 67, 80
3, 4020, Note_on_c, 1, 67, 0
3, 4020, Note_on_c, 1, 63, 0
3, 4080, Note_on_c, 1, 62, 80
3, 4080, Note_on_c, 1, 65, 80
3, 4200, Note_on_c, 1, 65, 0
3, 4200, Note_on_c, 1, 62, 0
3, 4200, Note_on_c, 1, 58, 80
3, 4200, Note_on_c, 1, 62, 80
3, 4320, Note_on_c, 1, 62, 0
3, 4320, Note_on_c, 1, 58, 0
3, 4440, Note_on_c, 1, 51, 80
3, 4500, Note_on_c, 1, 51, 0
3, 4560, Note_on_c, 1, 55, 80
3, 4680, Note_on_c, 1, 55, 0
3, 4680, Note_on_c, 1, 58, 80
3, 4800, Note_on_c, 1, 58, 0
3, 4800, Note_on_c, 1, 60, 80
3, 5040, Note_on_c, 1, 60, 0
3, 5040, Note_on_c, 1, 62, 80
3, 5280, Note_on_c, 1, 62, 0
3, 5400, Note_on_c, 1, 63, 80
3, 5460, Note_on_c, 1, 63, 0
3, 5520, Note_on_c, 1, 51, 80
3, 5640, Note_on_c, 1, 51, 0
3, 5640, Note_on_c, 1, 58, 80
3, 5760, Note_on_c, 1, 58, 0
3, 5760, Note_on_c, 1, 60, 80
3, 6000, Note_on_c, 1, 60, 0
3, 6000, Note_on_c, 1, 62, 80
3, 6240, Note_on_c, 1, 62, 0
3, 6240, Note_on_c, 1, 63, 80
3, 6480, Note_on_c, 1, 63, 0
3, 6600, Note_on_c, 1, 63, 80
3, 6600, Note_on_c, 1, 58, 80
3, 6600, Note_on_c, 1, 55, 80
3, 6660, Note_on_c, 1, 55, 0
3, 6660, Note_on_c, 1, 58, 0
3, 6660, Note_on_c, 1, 63, 0
3, 6840, Note_on_c, 1, 63, 80
3, 6840, Note_on_c, 1, 60, 80
3, 6840, Note_on_c, 1, 56, 80
3, 6924, Note_on_c, 1, 56, 0
3, 6924, Note_on_c, 1, 60, 0
3, 6924, Note_on_c, 1, 63, 0
3, 7080, Note_on_c, 1, 46, 80
3, 7080, Note_on_c, 1, 56, 80
3, 7200, Note_on_c, 1, 56, 0
3, 7200, Note_on_c, 1, 46, 0
3, 7200, Note_on_c, 1, 51, 80
3, 7200, Note_on_c, 1, 55, 80
3, 7284, Note_on_c, 1, 55, 0
3, 7284, Note_on_c, 1, 51, 0
3, 7320, Note_on_c, 1, 56, 80
3, 7320, Note_on_c, 1, 60, 80
3, 7404, Note_on_c, 1, 60, 0
3, 7404, Note_on_c, 1, 56, 0
3, 7440, Note_on_c, 1, 55, 80
3, 7440, Note_on_c, 1, 58, 80
3, 7560, Note_on_c, 1, 58, 0
3, 7560, Note_on_c, 1, 55, 0
3, 7560, Note_on_c, 1, 53, 80
3, 7560, Note_on_c, 1, 56, 80
3, 7680, Note_on_c, 1, 56, 0
3, 7680, Note_on_c, 1, 53, 0
3, 7680, Note_on_c, 1, 55, 80
3, 7680, Note_on_c, 1, 51, 80
3, 7752, Note_on_c, 1, 51, 0
3, 7752, Note_on_c, 1, 55, 0
3, 7800, Note_on_c, 1, 56, 80
3, 7800, Note_on_c, 1, 60, 80
3, 7920, Note_on_c, 1, 60, 0
3, 7920, Note_on_c, 1, 56, 0
3, 7920, Note_on_c, 1, 55, 80
3, 7920, Note_on_c, 1, 58, 80
3, 8040, Note_on_c, 1, 58, 0
3, 8040, Note_on_c, 1, 55, 0
3, 8040, Note_on_c, 1, 53, 80
3, 8040, Note_on_c, 1, 56, 80
3, 8160, Note_on_c, 1, 56, 0
3, 8160, Note_on_c, 1, 53, 0
3, 8160, Note_on_c, 1, 51, 80
3, 8160, Note_on_c, 1, 55, 80
3, 8232, Note_on_c, 1, 55, 0
3, 8232, Note_on_c, 1, 51, 0
3, 8280, Note_on_c, 1, 56, 80
3, 8280, Note_on_c, 1, 60, 80
3, 8400, Note_on_c, 1, 60, 0
3, 8400, Note_on_c, 1, 56, 0
3, 8400, Note_on_c, 1, 55, 80
3, 8400, Note_on_c, 1, 58, 80
3, 8520, Note_on_c, 1, 58, 0
3, 8520, Note_on_c, 1, 55, 0
3, 8520, Note_on_c, 1, 53, 80
3, 8520, Note_on_c, 1, 56, 80
3, 8640, Note_on_c, 1, 56, 0
3, 8640, Note_on_c, 1, 53, 0
3, 8640, Note_on_c, 1, 55, 80
3, 8640, Note_on_c, 1, 51, 80
3, 8880, Note_on_c, 1, 51, 0
3, 8880, Note_on_c, 1, 55, 0
3, 9120, Note_on_c, 1, 58, 80
3, 9120, Note_on_c, 1, 55, 80
3, 9120, Note_on_c, 1, 51, 80
3, 9360, Note_on_c, 1, 51, 0
3, 9360, Note_on_c, 1, 55, 0
3, 9360, Note_on_c, 1, 58, 0
3, 9600, Note_on_c, 1, 44, 80
3, 9600, Note_on_c, 1, 48, 80
3, 9600, Note_on_c, 1, 53, 80
3, 9840, Note_on_c, 1, 53, 0
3, 9840, Note_on_c, 1, 48, 0
3, 9840, Note_on_c, 1, 44, 0
3, 9960, Note_on_c, 1, 45, 80
3, 9960, Note_on_c, 1, 48, 80
3, 9960, Note_on_c, 1, 53, 80
3, 10020, Note_on_c, 1, 53, 0
3, 10020, Note_on_c, 1, 48, 0
3, 10020, Note_on_c, 1, 45, 0
3, 10080, Note_on_c, 1, 46, 80
3, 10080, Note_on_c, 1, 50, 80
3, 10080, Note_on_c, 1, 53, 80
3, 10320, Note_on_c, 1, 53, 0
3, 10320, Note_on_c, 1, 50, 0
3, 10320, Note_on_c, 1, 46, 0
3, 10320, Note_on_c, 1, 58, 80
3, 10365, Note_on_c, 1, 58, 0
3, 10410, Note_on_c, 1, 58, 80
3, 10440, Note_on_c, 1, 58, 0
3, 10440, Note_on_c, 1, 53, 80
3, 10485, Note_on_c, 1, 53, 0
3, 10530, Note_on_c, 1, 50, 80
3, 10560, Note_on_c, 1, 50, 0
3, 10560, Note_on_c, 1, 46, 80
3, 10644, Note_on_c, 1, 46, 0
3, 10800, Note_on_c, 1, 46, 80
3, 10845, Note_on_c, 1, 46, 0
3, 10890, Note_on_c, 1, 46, 80
3, 10920, Note_on_c, 1, 46, 0
3, 10920, Note_on_c, 1, 41, 80
3, 10965, Note_on_c, 1, 41, 0
3, 11010, Note_on_c, 1, 38, 80
3, 11040, Note_on_c, 1, 38, 0
3, 11040, Note_on_c, 1, 34, 80
3, 11160, Note_on_c, 1, 34, 0
3, 11640, Note_on_c, 1, 58, 80
3, 11640, Note_on_c, 1, 62, 80
3, 11688, Note_on_c, 1, 62, 0
3, 11688, Note_on_c, 1, 58, 0
3, 11760, Note_on_c, 1, 57, 80
3, 11760, Note_on_c, 1, 60, 80
3, 11880, Note_on_c, 1, 60, 0
3, 11880, Note_on_c, 1, 57, 0
3, 11880, Note_on_c, 1, 55, 80
3, 11880, Note_on_c, 1, 58, 80
3, 11928, Note_on_c, 1, 58, 0
3, 11928, Note_on_c, 1, 55, 0
3, 12120, Note_on_c, 1, 55, 80
3, 12120, Note_on_c, 1, 58, 80
3, 12168, Note_on_c, 1, 58, 0
3, 12168, Note_on_c, 1, 55, 0
3, 12240, Note_on_c, 1, 53, 80
3, 12240, Note_on_c, 1, 57, 80
3, 12360, Note_on_c, 1, 57, 0
3, 12360, Note_on_c, 1, 53, 0
3, 12360, Note_on_c, 1, 51, 80
3, 12360, Note_on_c, 1, 55, 80
3, 12480, Note_on_c, 1, 55, 0
3, 12480, Note_on_c, 1, 51, 0
3, 12480, Note_on_c, 1, 50, 80
3, 12480, Note_on_c, 1, 53, 80
3, 12720, Note_on_c, 1, 53, 0
3, 12720, Note_on_c, 1, 50, 0
3, 12840, Note_on_c, 1, 62, 56
3, 12840, Note_on_c, 1, 65, 56
3, 12960, Note_on_c, 1, 65, 0
3, 12960, Note_on_c, 1, 62, 0
3, 12960, Note_on_c, 1, 63, 56
3, 12960, Note_on_c, 1, 65, 56
3, 13080, Note_on_c, 1, 65, 0
3, 13080, Note_on_c, 1, 63, 0
3, 13080, Note_on_c, 1, 63, 56
3, 13080, Note_on_c, 1, 65, 56
3, 13200, Note_on_c, 1, 65, 0
3, 13200, Note_on_c, 1, 63, 0
3, 13200, Note_on_c, 1, 62, 56
3, 13260, Note_on_c, 1, 62, 0
3, 13260, Note_on_c, 1, 65, 56
3, 13320, Note_on_c, 1, 65, 0
3, 13320, Note_on_c, 1, 62, 56
3, 13380, Note_on_c, 1, 62, 0
3, 13380, Note_on_c, 1, 65, 56
3, 13440, Note_on_c, 1, 65, 0
3, 13440, Note_on_c, 1, 63, 56
3, 13500, Note_on_c, 1, 63, 0
3, 13500, Note_on_c, 1, 65, 58
3, 13560, Note_on_c, 1, 65, 0
3, 13560, Note_on_c, 1, 63, 59
3, 13620, Note_on_c, 1, 63, 0
3, 13620, Note_on_c, 1, 65, 61
3, 13680, Note_on_c, 1, 65, 0
3, 13680, Note_on_c, 1, 62, 62
3, 13740, Note_on_c, 1, 62, 0
3, 13740, Note_on_c, 1, 65, 64
3, 13800, Note_on_c, 1, 65, 0
3, 13800, Note_on_c, 1, 62, 65
3, 13860, Note_on_c, 1, 62, 0
3, 13860, Note_on_c, 1, 65, 67
3, 13920, Note_on_c, 1, 65, 0
3, 13920, Note_on_c, 1, 63, 68
3, 13980, Note_on_c, 1, 63, 0
3, 13980, Note_on_c, 1, 65, 70
3, 14040, Note_on_c, 1, 65, 0
3, 14040, Note_on_c, 1, 63, 71
3, 14100, Note_on_c, 1, 63, 0
3, 14100, Note_on_c, 1, 65, 73
3, 14160, Note_on_c, 1, 65, 0
3, 14160, Note_on_c, 1, 62, 74
3, 14220, Note_on_c, 1, 62, 0
3, 14220, Note_on_c, 1, 65, 76
3, 14280, Note_on_c, 1, 65, 0
3, 14280, Note_on_c, 1, 62, 77
3, 14340, Note_on_c, 1, 62, 0
3, 14340, Note_on_c, 1, 65, 79
3, 14400, Note_on_c, 1, 65, 0
3, 14400, Note_on_c, 1, 63, 80
3, 14460, Note_on_c, 1, 63, 0
3, 14460, Note_on_c, 1, 65, 80
3, 14520, Note_on_c, 1, 65, 0
3, 14520, Note_on_c, 1, 63, 80
3, 14580, Note_on_c, 1, 63, 0
3, 14580, Note_on_c, 1, 65, 80
3, 14640, Note_on_c, 1, 65, 0
3, 14640, Note_on_c, 1, 62, 80
3, 14700, Note_on_c, 1, 62, 0
3, 14700, Note_on_c, 1, 65, 80
3, 14760, Note_on_c, 1, 65, 0
3, 14760, Note_on_c, 1, 62, 80
3, 14820, Note_on_c, 1, 62, 0
3, 14820, Note_on_c, 1, 65, 80
3, 14880, Note_on_c, 1, 65, 0
3, 14880, Note_on_c, 1, 60, 80
3, 14880, Note_on_c, 1, 67, 80
3, 15360, Note_on_c, 1, 67, 0
3, 15360, Note_on_c, 1, 60, 0
3, 15360, Note_on_c, 1, 65, 80
3, 15360, Note_on_c, 1, 70, 80
3, 15600, Note_on_c, 1, 70, 0
3, 15600, Note_on_c, 1, 69, 74
3, 15840, Note_on_c, 1, 69, 0
3, 15840, Note_on_c, 1, 70, 68
3, 16320, Note_on_c, 1, 70, 0
3, 16320, Note_on_c, 1, 65, 0
3, 16320, Note_on_c, 1, 64, 56
3, 16320, Note_on_c, 1, 70, 56
3, 16800, Note_on_c, 1, 70, 0
3, 16800, Note_on_c, 1, 64, 0
3, 16800, Note_on_c, 1, 65, 56
3, 16800, Note_on_c, 1, 70, 56
3, 16920, Note_on_c, 1, 70, 0
3, 16920, Note_on_c, 1, 69, 56
3, 17040, Note_on_c, 1, 69, 0
3, 17040, Note_on_c, 1, 65, 0
3, 17280, Note_on_c, 1, 46, 80
3, 17280, Note_on_c, 1, 50, 80
3, 17280, Note_on_c, 1, 53, 80
3, 17280, Note_on_c, 1, 58, 80
3, 17364, Note_on_c, 1, 58, 0
3, 17364, Note_on_c, 1, 46, 0
3, 17364, Note_on_c, 1, 50, 0
3, 17364, Note_on_c, 1, 53, 0
3, 17520, Note_on_c, 1, 46, 80
3, 17520, Note_on_c, 1, 50, 80
3, 17520, Note_on_c, 1, 53, 80
3, 17520, Note_on_c, 1, 58, 80
3, 17604, Note_on_c, 1, 58, 0
3, 17604, Note_on_c, 1, 46, 0
3, 17604, Note_on_c, 1, 50, 0
3, 17604, Note_on_c, 1, 53, 0
3, 17760, Note_on_c, 1, 46, 80
3, 17760, Note_on_c, 1, 50, 80
3, 17760, Note_on_c, 1, 53, 80
3, 17760, Note_on_c, 1, 58, 80
3, 17820, Note_on_c, 1, 58, 0
3, 17820, Note_on_c, 1, 46, 0
3, 17820, Note_on_c, 1, 50, 0
3, 17820, Note_on_c, 1, 53, 0
3, 18240, Note_on_c, 1, 70, 56
3, 18240, Note_on_c, 1, 74, 56
3, 18300, Note_on_c, 1, 74, 0
3, 18300, Note_on_c, 1, 70, 0
3, 18480, Note_on_c, 1, 70, 56
3, 18480, Note_on_c, 1, 72, 56
3, 18540, Note_on_c, 1, 72, 0
3, 18540, Note_on_c, 1, 70, 0
3, 18720, Note_on_c, 1, 69, 56
3, 18720, Note_on_c, 1, 72, 56
3, 18840, Note_on_c, 1, 66, 56
3, 18960, Note_on_c, 1, 66, 0
3, 18960, Note_on_c, 1, 65, 56
3, 19080, Note_on_c, 1, 65, 0
3, 19080, Note_on_c, 1, 72, 0
3, 19080, Note_on_c, 1, 69, 0
3, 19080, Note_on_c, 1, 70, 56
3, 19200, Note_on_c, 1, 70, 0
3, 19200, Note_on_c, 1, 63, 56
3, 19200, Note_on_c, 1, 70, 56
3, 19440, Note_on_c, 1, 70, 0
3, 19440, Note_on_c, 1, 63, 0
3, 19440, Note_on_c, 1, 65, 56
3, 19440, Note_on_c, 1, 69, 56
3, 19560, Note_on_c, 1, 69, 0
3, 19560, Note_on_c, 1, 65, 0
3, 19560, Note_on_c, 1, 66, 56
3, 19680, Note_on_c, 1, 66, 0
3, 19680, Note_on_c, 1, 67, 56
3, 19980, Note_on_c, 1, 67, 0
3, 20640, Note_on_c, 1, 70, 56
3, 20640, Note_on_c, 1, 74, 56
3, 20700, Note_on_c, 1, 74, 0
3, 20700, Note_on_c, 1, 70, 0
3, 20880, Note_on_c, 1, 70, 56
3, 20880, Note_on_c, 1, 72, 56
3, 20940, Note_on_c, 1, 72, 0
3, 20940, Note_on_c, 1, 70, 0
3, 21120, Note_on_c, 1, 69, 56
3, 21120, Note_on_c, 1, 72, 56
3, 21240, Note_on_c, 1, 66, 56
3, 21360, Note_on_c, 1, 66, 0
3, 21360, Note_on_c, 1, 65, 56
3, 21480, Note_on_c, 1, 65, 0
3, 21480, Note_on_c, 1, 72, 0
3, 21480, Note_on_c, 1, 69, 0
3, 21480, Note_on_c, 1, 70, 56
3, 21600, Note_on_c, 1, 63, 56
3, 21720, Note_on_c, 1, 70, 0
3, 21720, Note_on_c, 1, 71, 56
3, 21840, Note_on_c, 1, 71, 0
3, 21840, Note_on_c, 1, 72, 56
3, 22080, Note_on_c, 1, 63, 0
3, 22080, Note_on_c, 1, 65, 56
3, 22200, Note_on_c, 1, 72, 0
3, 22200, Note_on_c, 1, 72, 56
3, 22320, Note_on_c, 1, 75, 56
3, 23160, Note_on_c, 1, 75, 0
3, 23160, Note_on_c, 1, 72, 0
3, 23160, Note_on_c, 1, 65, 0
3, 23520, Note_on_c, 1, 58, 80
3, 23520, Note_on_c, 1, 53, 80
3, 23520, Note_on_c, 1, 50, 80
3, 23520, Note_on_c, 1, 46, 80
3, 23760, Note_on_c, 1, 46, 0
3, 23760, Note_on_c, 1, 58, 0
3, 23760, Note_on_c, 1, 53, 0
3, 23760, Note_on_c, 1, 50, 0
3, 24000, Note_on_c, 1, 43, 80
3, 24000, Note_on_c, 1, 46, 80
3, 24000, Note_on_c, 1, 50, 80
3, 24000, Note_on_c, 1, 55, 80
3, 24240, Note_on_c, 1, 55, 0
3, 24240, Note_on_c, 1, 43, 0
3, 24240, Note_on_c, 1, 46, 0
3, 24240, Note_on_c, 1, 50, 0
3, 24480, Note_on_c, 1, 39, 80
3, 24480, Note_on_c, 1, 43, 80
3, 24480, Note_on_c, 1, 46, 80
3, 24480, Note_on_c, 1, 51, 80
3, 24720, Note_on_c, 1, 51, 0
3, 24720, Note_on_c, 1, 39, 0
3, 24720, Note_on_c, 1, 43, 0
3, 24720, Note_on_c, 1, 46, 0
3, 24960, Note_on_c, 1, 62, 80
3, 24960, Note_on_c, 1, 58, 80
3, 24960, Note_on_c, 1, 53, 80
3, 25200, Note_on_c, 1, 53, 0
3, 25200, Note_on_c, 1, 58, 0
3, 25200, Note_on_c, 1, 62, 0
3, 25440, Note_on_c, 1, 65, 80
3, 25440, Note_on_c, 1, 70, 80
3, 25500, Note_on_c, 1, 70, 0
3, 25500, Note_on_c, 1, 72, 80
3, 25530, Note_on_c, 1, 72, 0
3, 25530, Note_on_c, 1, 74, 80
3, 25560, Note_on_c, 1, 74, 0
3, 25560, Note_on_c, 1, 72, 80
3, 25590, Note_on_c, 1, 72, 0
3, 25590, Note_on_c, 1, 74, 80
3, 25620, Note_on_c, 1, 74, 0
3, 25620, Note_on_c, 1, 72, 80
3, 25650, Note_on_c, 1, 72, 0
3, 25650, Note_on_c, 1, 74, 80
3, 25680, Note_on_c, 1, 74, 0
3, 25680, Note_on_c, 1, 72, 80
3, 25710, Note_on_c, 1, 72, 0
3, 25710, Note_on_c, 1, 74, 80
3, 25740, Note_on_c, 1, 74, 0
3, 25740, Note_on_c, 1, 72, 80
3, 25760, Note_on_c, 1, 72, 0
3, 25760, Note_on_c, 1, 74, 80
3, 25780, Note_on_c, 1, 74, 0
3, 25780, Note_on_c, 1, 72, 80
3, 25800, Note_on_c, 1, 72, 0
3, 25800, Note_on_c, 1, 70, 80
3, 25860, Note_on_c, 1, 70, 0
3, 25860, Note_on_c, 1, 72, 80
3, 25920, Note_on_c, 1, 72, 0
3, 25920, Note_on_c, 1, 65, 0
3, 25920, Note_on_c, 1, 70, 80
3, 25920, Note_on_c, 1, 74, 80
3, 26028, Note_on_c, 1, 74, 0
3, 26028, Note_on_c, 1, 70, 0
3, 26040, Note_on_c, 1, 50, 80
3, 26040, Note_on_c, 1, 53, 80
3, 26040, Note_on_c, 1, 58, 80
3, 26100, Note_on_c, 1, 58, 0
3, 26100, Note_on_c, 1, 53, 0
3, 26100, Note_on_c, 1, 50, 0
3, 26160, Note_on_c, 1, 58, 80
3, 26160, Note_on_c, 1, 55, 80
3, 26160, Note_on_c, 1, 51, 80
3, 26220, Note_on_c, 1, 51, 0
3, 26220, Note_on_c, 1, 55, 0
3, 26220, Note_on_c, 1, 58, 0
3, 26280, Note_on_c, 1, 69, 80
3, 26400, Note_on_c, 1, 69, 0
3, 26400, Note_on_c, 1, 70, 80
3, 26508, Note_on_c, 1, 70, 0
3, 26520, Note_on_c, 1, 50, 80
3, 26520, Note_on_c, 1, 53, 80
3, 26520, Note_on_c, 1, 58, 80
3, 26580, Note_on_c, 1, 58, 0
3, 26580, Note_on_c, 1, 53, 0
3, 26580, Note_on_c, 1, 50, 0
3, 26640, Note_on_c, 1, 51, 80
3, 26640, Note_on_c, 1, 55, 80
3, 26640, Note_on_c, 1, 58, 80
3, 26700, Note_on_c, 1, 58, 0
3, 26700, Note_on_c, 1, 55, 0
3, 26700, Note_on_c, 1, 51, 0
3, 26760, Note_on_c, 1, 53, 80
3, 26760, Note_on_c, 1, 57, 80
3, 26820, Note_on_c, 1, 57, 0
3, 26820, Note_on_c, 1, 53, 0
3, 26880, Note_on_c, 1, 46, 80
3, 26880, Note_on_c, 1, 50, 80
3, 26880, Note_on_c, 1, 53, 80
3, 26880, Note_on_c, 1, 58, 80
3, 27048, Note_on_c, 1, 58, 0
3, 27048, Note_on_c, 1, 46, 0
3, 27048, Note_on_c, 1, 50, 0
3, 27048, Note_on_c, 1, 53, 0
3, 27480, Note_on_c, 1, 48, 80
3, 27480, Note_on_c, 1, 51, 80
3, 27540, Note_on_c, 1, 51, 0
3, 27540, Note_on_c, 1, 48, 0
3, 27600, Note_on_c, 1, 47, 80
3, 27600, Note_on_c, 1, 50, 80
3, 27720, Note_on_c, 1, 50, 0
3, 27720, Note_on_c, 1, 47, 0
3, 27720, Note_on_c, 1, 45, 80
3, 27720, Note_on_c, 1, 48, 80
3, 27840, Note_on_c, 1, 48, 0
3, 27840, Note_on_c, 1, 45, 0
3, 27840, Note_on_c, 1, 43, 80
3, 27840, Note_on_c, 1, 47, 80
3, 27900, Note_on_c, 1, 47, 0
3, 27900, Note_on_c, 1, 43, 0
3, 27960, Note_on_c, 1, 48, 80
3, 27960, Note_on_c, 1, 51, 80
3, 28020, Note_on_c, 1, 51, 0
3, 28020, Note_on_c, 1, 48, 0
3, 28080, Note_on_c, 1, 47, 80
3, 28080, Note_on_c, 1, 50, 80
3, 28200, Note_on_c, 1, 50, 0
3, 28200, Note_on_c, 1, 47, 0
3, 28200, Note_on_c, 1, 45, 80
3, 28200, Note_on_c, 1, 48, 80
3, 28320, Note_on_c, 1, 48, 0
3, 28320, Note_on_c, 1, 45, 0
3, 28320, Note_on_c, 1, 43, 80
3, 28320, Note_on_c, 1, 47, 80
3, 28380, Note_on_c, 1, 47, 0
3, 28380, Note_on_c, 1, 43, 0
3, 28440, Note_on_c, 1, 48, 80
3, 28440, Note_on_c, 1, 51, 80
3, 28560, Note_on_c, 1, 51, 0
3, 28560, Note_on_c, 1, 48, 0
3, 28560, Note_on_c, 1, 47, 80
3, 28560, Note_on_c, 1, 50, 80
3, 28680, Note_on_c, 1, 50, 0
3, 28680, Note_on_c, 1, 47, 0
3, 28680, Note_on_c, 1, 45, 80
3, 28680, Note_on_c, 1, 48, 80
3, 28800, Note_on_c, 1, 48, 0
3, 28800, Note_on_c, 1, 45, 0
3, 28800, Note_on_c, 1, 43, 78
3, 28800, Note_on_c, 1, 47, 78
3, 28920, Note_on_c, 1, 47, 0
3, 28920, Note_on_c, 1, 43, 0
3, 29040, Note_on_c, 1, 55, 67
3, 29088, Note_on_c, 1, 55, 0
3, 29100, Note_on_c, 1, 57, 64
3, 29130, Note_on_c, 1, 57, 0
3, 29130, Note_on_c, 1, 59, 63
3, 29160, Note_on_c, 1, 59, 0
3, 29160, Note_on_c, 1, 60, 61
3, 29190, Note_on_c, 1, 60, 0
3, 29190, Note_on_c, 1, 62, 60
3, 29220, Note_on_c, 1, 62, 0
3, 29220, Note_on_c, 1, 64, 59
3, 29250, Note_on_c, 1, 64, 0
3, 29250, Note_on_c, 1, 66, 57
3, 29280, Note_on_c, 1, 66, 0
3, 29280, Note_on_c, 1, 67, 56
3, 29328, Note_on_c, 1, 67, 0
3, 29400, Note_on_c, 1, 67, 56
3, 29484, Note_on_c, 1, 67, 0
3, 29520, Note_on_c, 1, 67, 56
3, 29604, Note_on_c, 1, 67, 0
3, 29640, Note_on_c, 1, 67, 56
3, 29724, Note_on_c, 1, 67, 0
3, 29760, Note_on_c, 1, 67, 56
3, 30144, Note_on_c, 1, 67, 0
3, 30360, Note_on_c, 1, 56, 80
3, 30360, Note_on_c, 1, 60, 80
3, 30408, Note_on_c, 1, 60, 0
3, 30408, Note_on_c, 1, 56, 0
3, 30480, Note_on_c, 1, 55, 80
3, 30480, Note_on_c, 1, 58, 80
3, 30600, Note_on_c, 1, 58, 0
3, 30600, Note_on_c, 1, 55, 0
3, 30600, Note_on_c, 1, 51, 80
3, 30600, Note_on_c, 1, 55, 80
3, 30720, Note_on_c, 1, 55, 0
3, 30720, Note_on_c, 1, 51, 0
3, 30840, Note_on_c, 1, 56, 80
3, 30888, Note_on_c, 1, 56, 0
3, 30960, Note_on_c, 1, 60, 80
3, 31080, Note_on_c, 1, 60, 0
3, 31080, Note_on_c, 1, 63, 80
3, 31200, Note_on_c, 1, 63, 0
3, 31200, Note_on_c, 1, 65, 80
3, 31440, Note_on_c, 1, 65, 0
3, 31440, Note_on_c, 1, 67, 80
3, 31680, Note_on_c, 1, 67, 0
3, 31800, Note_on_c, 1, 68, 80
3, 31848, Note_on_c, 1, 68, 0
3, 31920, Note_on_c, 1, 56, 80
3, 32040, Note_on_c, 1, 56, 0
3, 32040, Note_on_c, 1, 63, 80
3, 32160, Note_on_c, 1, 63, 0
3, 32160, Note_on_c, 1, 65, 80
3, 32400, Note_on_c, 1, 65, 0
3, 32400, Note_on_c, 1, 67, 80
3, 32640, Note_on_c, 1, 67, 0
3, 32760, Note_on_c, 1, 56, 80
3, 32820, Note_on_c, 1, 56, 0
3, 32880, Note_on_c, 1, 68, 80
3, 33000, Note_on_c, 1, 68, 0
3, 33000, Note_on_c, 1, 66, 80
3, 33120, Note_on_c, 1, 66, 0
3, 33120, Note_on_c, 1, 65, 80
3, 33360, Note_on_c, 1, 65, 0
3, 33360, Note_on_c, 1, 53, 80
3, 33600, Note_on_c, 1, 53, 0
3, 33600, Note_on_c, 1, 58, 80
3, 34080, Note_on_c, 1, 58, 0
3, 34080, Note_on_c, 1, 63, 80
3, 34560, Note_on_c, 1, 63, 0
3, 34560, Note_on_c, 1, 56, 80
3, 35040, Note_on_c, 1, 56, 0
3, 35040, Note_on_c, 1, 61, 80
3, 35520, Note_on_c, 1, 61, 0
3, 35520, Note_on_c, 1, 60, 80
3, 36000, Note_on_c, 1, 60, 0
3, 36000, Note_on_c, 1, 58, 80
3, 36480, Note_on_c, 1, 58, 0
3, 36480, Note_on_c, 1, 56, 80
3, 36960, Note_on_c, 1, 56, 0
3, 36960, Note_on_c, 1, 55, 80
3, 37440, Note_on_c, 1, 55, 0
3, 37440, Note_on_c, 1, 53, 80
3, 37920, Note_on_c, 1, 53, 0
3, 37920, Note_on_c, 1, 53, 80
3, 37920, Note_on_c, 1, 56, 80
3, 38280, Note_on_c, 1, 56, 0
3, 38280, Note_on_c, 1, 53, 0
3, 38280, Note_on_c, 1, 54, 80
3, 38280, Note_on_c, 1, 57, 80
3, 38400, Note_on_c, 1, 57, 0
3, 38400, Note_on_c, 1, 54, 0
3, 38400, Note_on_c, 1, 55, 80
3, 38400, Note_on_c, 1, 59, 80
3, 38442, Note_on_c, 1, 59, 0
3, 38460, Note_on_c, 1, 62, 80
3, 38490, Note_on_c, 1, 62, 0
3, 38502, Note_on_c, 1, 55, 0
3, 38520, Note_on_c, 1, 55, 80
3, 38520, Note_on_c, 1, 59, 80
3, 38550, Note_on_c, 1, 59, 0
3, 38580, Note_on_c, 1, 62, 80
3, 38610, Note_on_c, 1, 62, 0
3, 38622, Note_on_c, 1, 55, 0
3, 38640, Note_on_c, 1, 55, 80
3, 38640, Note_on_c, 1, 59, 80
3, 38682, Note_on_c, 1, 59, 0
3, 38700, Note_on_c, 1, 62, 80
3, 38742, Note_on_c, 1, 62, 0
3, 38742, Note_on_c, 1, 55, 0
3, 38760, Note_on_c, 1, 55, 80
3, 38760, Note_on_c, 1, 59, 80
3, 38802, Note_on_c, 1, 59, 0
3, 38820, Note_on_c, 1, 62, 80
3, 38862, Note_on_c, 1, 62, 0
3, 38862, Note_on_c, 1, 55, 0
3, 38880, Note_on_c, 1, 59, 80
3, 38880, Note_on_c, 1, 55, 80
3, 38922, Note_on_c, 1, 59, 0
3, 38940, Note_on_c, 1, 62, 80
3, 38970, Note_on_c, 1, 62, 0
3, 38982, Note_on_c, 1, 55, 0
3, 39000, Note_on_c, 1, 59, 80
3, 39000, Note_on_c, 1, 55, 80
3, 39030, Note_on_c, 1, 59, 0
3, 39060, Note_on_c, 1, 62, 80
3, 39090, Note_on_c, 1, 62, 0
3, 39102, Note_on_c, 1, 55, 0
3, 39120, Note_on_c, 1, 59, 80
3, 39120, Note_on_c, 1, 55, 80
3, 39162, Note_on_c, 1, 59, 0
3, 39180, Note_on_c, 1, 62, 80
3, 39222, Note_on_c, 1, 62, 0
3, 39222, Note_on_c, 1, 55, 0
3, 39240, Note_on_c, 1, 59, 80
3, 39240, Note_on_c, 1, 55, 80
3, 39282, Note_on_c, 1, 59, 0
3, 39300, Note_on_c, 1, 62, 80
3, 39342, Note_on_c, 1, 62, 0
3, 39342, Note_on_c, 1, 55, 0
3, 39360, Note_on_c, 1, 59, 80
3, 39360, Note_on_c, 1, 53, 80
3, 39402, Note_on_c, 1, 59, 0
3, 39420, Note_on_c, 1, 62, 80
3, 39444, Note_on_c, 1, 62, 0
3, 39462, Note_on_c, 1, 53, 0
3, 39480, Note_on_c, 1, 59, 80
3, 39480, Note_on_c, 1, 53, 80
3, 39504, Note_on_c, 1, 59, 0
3, 39540, Note_on_c, 1, 62, 80
3, 39564, Note_on_c, 1, 62, 0
3, 39582, Note_on_c, 1, 53, 0
3, 39600, Note_on_c, 1, 59, 80
3, 39600, Note_on_c, 1, 53, 80
3, 39642, Note_on_c, 1, 59, 0
3, 39660, Note_on_c, 1, 62, 80
3, 39702, Note_on_c, 1, 62, 0
3, 39702, Note_on_c, 1, 53, 0
3, 39720, Note_on_c, 1, 59, 80
3, 39720, Note_on_c, 1, 53, 80
3, 39762, Note_on_c, 1, 59, 0
3, 39780, Note_on_c, 1, 62, 80
3, 39822, Note_on_c, 1, 62, 0
3, 39822, Note_on_c, 1, 53, 0
3, 39840, Note_on_c, 1, 59, 80
3, 39840, Note_on_c, 1, 53, 80
3, 39900, Note_on_c, 1, 59, 0
3, 39900, Note_on_c, 1, 62, 80
3, 39924, Note_on_c, 1, 62, 0
3, 39960, Note_on_c, 1, 53, 0
3, 39960, Note_on_c, 1, 59, 80
3, 39960, Note_on_c, 1, 53, 80
3, 39984, Note_on_c, 1, 59, 0
3, 40020, Note_on_c, 1, 62, 80
3, 40044, Note_on_c, 1, 62, 0
3, 40080, Note_on_c, 1, 53, 0
3, 40080, Note_on_c, 1, 59, 80
3, 40080, Note_on_c, 1, 53, 80
3, 40140, Note_on_c, 1, 59, 0
3, 40140, Note_on_c, 1, 62, 80
3, 40200, Note_on_c, 1, 62, 0
3, 40200, Note_on_c, 1, 53, 0
3, 40200, Note_on_c, 1, 59, 80
3, 40200, Note_on_c, 1, 53, 80
3, 40260, Note_on_c, 1, 59, 0
3, 40260, Note_on_c, 1, 62, 80
3, 40320, Note_on_c, 1, 62, 0
3, 40320, Note_on_c, 1, 53, 0
3, 40320, Note_on_c, 1, 51, 80
3, 40380, Note_on_c, 1, 51, 0
3, 40380, Note_on_c, 1, 60, 80
3, 40440, Note_on_c, 1, 60, 0
3, 40440, Note_on_c, 1, 63, 80
3, 40500, Note_on_c, 1, 63, 0
3, 40500, Note_on_c, 1, 67, 80
3, 40560, Note_on_c, 1, 67, 0
3, 40560, Note_on_c, 1, 63, 56
3, 40620, Note_on_c, 1, 63, 0
3, 40620, Note_on_c, 1, 67, 56
3, 40680, Note_on_c, 1, 67, 0
3, 40680, Note_on_c, 1, 63, 56
3, 40740, Note_on_c, 1, 63, 0
3, 40740, Note_on_c, 1, 67, 56
3, 40800, Note_on_c, 1, 67, 0
3, 40800, Note_on_c, 1, 65, 56
3, 40860, Note_on_c, 1, 65, 0
3, 40860, Note_on_c, 1, 67, 58
3, 40920, Note_on_c, 1, 67, 0
3, 40920, Note_on_c, 1, 65, 59
3, 40980, Note_on_c, 1, 65, 0
3, 40980, Note_on_c, 1, 67, 61
3, 41040, Note_on_c, 1, 67, 0
3, 41040, Note_on_c, 1, 63, 62
3, 41100, Note_on_c, 1, 63, 0
3, 41100, Note_on_c, 1, 67, 64
3, 41160, Note_on_c, 1, 67, 0
3, 41160, Note_on_c, 1, 63, 65
3, 41220, Note_on_c, 1, 63, 0
3, 41220, Note_on_c, 1, 67, 67
3, 41280, Note_on_c, 1, 67, 0
3, 41280, Note_on_c, 1, 65, 68
3, 41340, Note_on_c, 1, 65, 0
3, 41340, Note_on_c, 1, 67, 70
3, 41370, Note_on_c, 1, 67, 0
3, 41400, Note_on_c, 1, 65, 71
3, 41430, Note_on_c, 1, 65, 0
3, 41460, Note_on_c, 1, 67, 73
3, 41490, Note_on_c, 1, 67, 0
3, 41520, Note_on_c, 1, 63, 74
3, 41580, Note_on_c, 1, 63, 0
3, 41580, Note_on_c, 1, 67, 76
3, 41640, Note_on_c, 1, 67, 0
3, 41640, Note_on_c, 1, 63, 77
3, 41700, Note_on_c, 1, 63, 0
3, 41700, Note_on_c, 1, 67, 79
3, 41760, Note_on_c, 1, 67, 0
3, 41760, Note_on_c, 1, 65, 80
3, 41820, Note_on_c, 1, 65, 0
3, 41820, Note_on_c, 1, 67, 80
3, 41850, Note_on_c, 1, 67, 0
3, 41880, Note_on_c, 1, 65, 80
3, 41910, Note_on_c, 1, 65, 0
3, 41940, Note_on_c, 1, 67, 80
3, 41970, Note_on_c, 1, 67, 0
3, 42000, Note_on_c, 1, 63, 80
3, 42060, Note_on_c, 1, 63, 0
3, 42060, Note_on_c, 1, 67, 80
3, 42120, Note_on_c, 1, 67, 0
3, 42120, Note_on_c, 1, 63, 80
3, 42180, Note_on_c, 1, 63, 0
3, 42180, Note_on_c, 1, 67, 80
3, 42240, Note_on_c, 1, 67, 0
3, 42240, Note_on_c, 1, 65, 80
3, 42300, Note_on_c, 1, 65, 0
3, 42300, Note_on_c, 1, 67, 80
3, 42360, Note_on_c, 1, 67, 0
3, 42360, Note_on_c, 1, 65, 80
3, 42420, Note_on_c, 1, 65, 0
3, 42420, Note_on_c, 1, 67, 80
3, 42480, Note_on_c, 1, 67, 0
3, 42480, Note_on_c, 1, 63, 80
3, 42540, Note_on_c, 1, 63, 0
3, 42540, Note_on_c, 1, 67, 80
3, 42600, Note_on_c, 1, 67, 0
3, 42600, Note_on_c, 1, 63, 80
3, 42660, Note_on_c, 1, 63, 0
3, 42660, Note_on_c, 1, 67, 80
3, 42720, Note_on_c, 1, 67, 0
3, 42720, Note_on_c, 1, 62, 80
3, 42720, Note_on_c, 1, 69, 80
3, 42780, Note_on_c, 1, 69, 0
3, 42780, Note_on_c, 1, 70, 80
3, 42810, Note_on_c, 1, 70, 0
3, 42840, Note_on_c, 1, 72, 80
3, 42870, Note_on_c, 1, 72, 0
3, 42900, Note_on_c, 1, 69, 80
3, 42930, Note_on_c, 1, 69, 0
3, 42960, Note_on_c, 1, 62, 0
3, 42960, Note_on_c, 1, 67, 80
3, 42960, Note_on_c, 1, 71, 80
3, 43200, Note_on_c, 1, 71, 0
3, 43200, Note_on_c, 1, 67, 0
3, 43200, Note_on_c, 1, 60, 80
3, 43440, Note_on_c, 1, 60, 0
3, 43440, Note_on_c, 1, 48, 80
3, 43440, Note_on_c, 1, 51, 80
3, 43500, Note_on_c, 1, 51, 0
3, 43500, Note_on_c, 1, 48, 0
3, 43500, Note_on_c, 1, 50, 80
3, 43500, Note_on_c, 1, 53, 80
3, 43530, Note_on_c, 1, 53, 0
3, 43530, Note_on_c, 1, 50, 0
3, 43560, Note_on_c, 1, 51, 80
3, 43560, Note_on_c, 1, 55, 80
3, 43590, Note_on_c, 1, 55, 0
3, 43590, Note_on_c, 1, 51, 0
3, 43620, Note_on_c, 1, 48, 80
3, 43620, Note_on_c, 1, 51, 80
3, 43650, Note_on_c, 1, 51, 0
3, 43650, Note_on_c, 1, 48, 0
3, 43680, Note_on_c, 1, 53, 80
3, 43680, Note_on_c, 1, 56, 80
3, 43920, Note_on_c, 1, 56, 0
3, 43920, Note_on_c, 1, 53, 0
3, 44280, Note_on_c, 1, 60, 80
3, 44280, Note_on_c, 1, 51, 80
3, 44400, Note_on_c, 1, 51, 0
3, 44400, Note_on_c, 1, 53, 80
3, 44520, Note_on_c, 1, 53, 0
3, 44520, Note_on_c, 1, 60, 0
3, 44520, Note_on_c, 1, 59, 80
3, 44520, Note_on_c, 1, 55, 80
3, 44640, Note_on_c, 1, 55, 0
3, 44640, Note_on_c, 1, 59, 0
3, 44640, Note_on_c, 1, 51, 80
3, 44640, Note_on_c, 1, 60, 80
3, 44760, Note_on_c, 1, 60, 0
3, 44760, Note_on_c, 1, 51, 0
3, 45000, Note_on_c, 1, 60, 80
3, 45000, Note_on_c, 1, 53, 80
3, 45120, Note_on_c, 1, 53, 0
3, 45120, Note_on_c, 1, 60, 0
3, 45120, Note_on_c, 1, 60, 80
3, 45120, Note_on_c, 1, 51, 80
3, 45240, Note_on_c, 1, 51, 0
3, 45240, Note_on_c, 1, 60, 0
3, 45240, Note_on_c, 1, 60, 80
3, 45240, Note_on_c, 1, 53, 80
3, 45360, Note_on_c, 1, 53, 0
3, 45360, Note_on_c, 1, 60, 0
3, 45360, Note_on_c, 1, 55, 80
3, 45360, Note_on_c, 1, 60, 80
3, 45480, Note_on_c, 1, 60, 0
3, 45480, Note_on_c, 1, 59, 80
3, 45600, Note_on_c, 1, 59, 0
3, 45600, Note_on_c, 1, 55, 0
3, 45720, Note_on_c, 1, 60, 56
3, 45720, Note_on_c, 1, 63, 56
3, 45780, Note_on_c, 1, 63, 0
3, 45780, Note_on_c, 1, 60, 0
3, 45840, Note_on_c, 1, 59, 56
3, 45840, Note_on_c, 1, 62, 56
3, 45960, Note_on_c, 1, 62, 0
3, 45960, Note_on_c, 1, 59, 0
3, 45960, Note_on_c, 1, 55, 56
3, 45960, Note_on_c, 1, 59, 56
3, 46080, Note_on_c, 1, 59, 0
3, 46080, Note_on_c, 1, 55, 0
3, 46080, Note_on_c, 1, 60, 56
3, 46200, Note_on_c, 1, 60, 0
3, 46200, Note_on_c, 1, 48, 56
3, 46260, Note_on_c, 1, 48, 0
3, 46560, Note_on_c, 1, 39, 80
3, 46560, Note_on_c, 1, 43, 80
3, 46560, Note_on_c, 1, 46, 80
3, 46560, Note_on_c, 1, 51, 80
3, 46680, Note_on_c, 1, 51, 0
3, 46680, Note_on_c, 1, 39, 0
3, 46680, Note_on_c, 1, 43, 0
3, 46680, Note_on_c, 1, 46, 0
3, 46680, Note_on_c, 1, 63, 80
3, 46680, Note_on_c, 1, 67, 80
3, 46740, Note_on_c, 1, 67, 0
3, 46740, Note_on_c, 1, 63, 0
3, 46800, Note_on_c, 1, 62, 80
3, 46800, Note_on_c, 1, 65, 80
3, 46920, Note_on_c, 1, 65, 0
3, 46920, Note_on_c, 1, 62, 0
3, 46920, Note_on_c, 1, 58, 80
3, 46920, Note_on_c, 1, 62, 80
3, 47040, Note_on_c, 1, 62, 0
3, 47040, Note_on_c, 1, 58, 0
3, 47160, Note_on_c, 1, 51, 80
3, 47220, Note_on_c, 1, 51, 0
3, 47280, Note_on_c, 1, 55, 80
3, 47400, Note_on_c, 1, 55, 0
3, 47400, Note_on_c, 1, 58, 80
3, 47520, Note_on_c, 1, 58, 0
3, 47520, Note_on_c, 1, 60, 80
3, 47760, Note_on_c, 1, 60, 0
3, 47760, Note_on_c, 1, 62, 80
3, 48000, Note_on_c, 1, 62, 0
3, 48120, Note_on_c, 1, 63, 80
3, 48180, Note_on_c, 1, 63, 0
3, 48240, Note_on_c, 1, 51, 80
3, 48360, Note_on_c, 1, 51, 0
3, 48360, Note_on_c, 1, 58, 80
3, 48480, Note_on_c, 1, 58, 0
3, 48480, Note_on_c, 1, 60, 80
3, 48720, Note_on_c, 1, 60, 0
3, 48720, Note_on_c, 1, 62, 80
3, 48960, Note_on_c, 1, 62, 0
3, 48960, Note_on_c, 1, 63, 80
3, 49200, Note_on_c, 1, 63, 0
3, 49320, Note_on_c, 1, 55, 80
3, 49320, Note_on_c, 1, 58, 80
3, 49380, Note_on_c, 1, 58, 0
3, 49380, Note_on_c, 1, 55, 0
3, 49560, Note_on_c, 1, 60, 80
3, 49560, Note_on_c, 1, 56, 80
3, 49620, Note_on_c, 1, 56, 0
3, 49620, Note_on_c, 1, 60, 0
3, 49800, Note_on_c, 1, 56, 80
3, 49800, Note_on_c, 1, 46, 80
3, 49860, Note_on_c, 1, 46, 0
3, 49860, Note_on_c, 1, 56, 0
3, 50040, Note_on_c, 1, 51, 56
3, 50040, Note_on_c, 1, 55, 56
3, 50100, Note_on_c, 1, 55, 0
3, 50100, Note_on_c, 1, 51, 0
3, 50280, Note_on_c, 1, 55, 56
3, 50280, Note_on_c, 1, 58, 56
3, 50340, Note_on_c, 1, 58, 0
3, 50340, Note_on_c, 1, 55, 0
3, 50520, Note_on_c, 1, 56, 58
3, 50520, Note_on_c, 1, 60, 58
3, 50580, Note_on_c, 1, 60, 0
3, 50580, Note_on_c, 1, 56, 0
3, 50760, Note_on_c, 1, 57, 62
3, 50760, Note_on_c, 1, 60, 62
3, 50880, Note_on_c, 1, 60, 0
3, 50880, Note_on_c, 1, 57, 0
3, 51000, Note_on_c, 1, 58, 66
3, 51000, Note_on_c, 1, 62, 66
3, 51120, Note_on_c, 1, 62, 0
3, 51120, Note_on_c, 1, 58, 0
3, 51240, Note_on_c, 1, 60, 70
3, 51240, Note_on_c, 1, 63, 70
3, 51360, Note_on_c, 1, 63, 0
3, 51360, Note_on_c, 1, 60, 0
3, 51480, Note_on_c, 1, 65, 70
3, 51480, Note_on_c, 1, 62, 70
3, 51600, Note_on_c, 1, 62, 0
3, 51600, Note_on_c, 1, 65, 0
3, 51720, Note_on_c, 1, 63, 66
3, 51720, Note_on_c, 1, 67, 66
3, 51840, Note_on_c, 1, 67, 0
3, 51840, Note_on_c, 1, 63, 0
3, 51960, Note_on_c, 1, 65, 62
3, 51960, Note_on_c, 1, 68, 62
3, 52080, Note_on_c, 1, 68, 0
3, 52080, Note_on_c, 1, 65, 0
3, 52200, Note_on_c, 1, 58, 58
3, 52200, Note_on_c, 1, 62, 58
3, 52200, Note_on_c, 1, 65, 58
3, 52200, Note_on_c, 1, 68, 58
3, 52320, Note_on_c, 1, 68, 0
3, 52320, Note_on_c, 1, 58, 0
3, 52320, Note_on_c, 1, 62, 0
3, 52320, Note_on_c, 1, 65, 0
3, 52440, Note_on_c, 1, 58, 60
3, 52440, Note_on_c, 1, 62, 60
3, 52440, Note_on_c, 1, 65, 60
3, 52440, Note_on_c, 1, 68, 60
3, 52560, Note_on_c, 1, 68, 0
3, 52560, Note_on_c, 1, 58, 0
3, 52560, Note_on_c, 1, 62, 0
3, 52560, Note_on_c, 1, 65, 0
3, 52680, Note_on_c, 1, 58, 68
3, 52680, Note_on_c, 1, 62, 68
3, 52680, Note_on_c, 1, 65, 68
3, 52680, Note_on_c, 1, 68, 68
3, 52800, Note_on_c, 1, 68, 0
3, 52800, Note_on_c, 1, 58, 0
3, 52800, Note_on_c, 1, 62, 0
3, 52800, Note_on_c, 1, 65, 0
3, 52920, Note_on_c, 1, 58, 76
3, 52920, Note_on_c, 1, 62, 76
3, 52920, Note_on_c, 1, 65, 76
3, 52920, Note_on_c, 1, 68, 76
3, 53040, Note_on_c, 1, 68, 0
3, 53040, Note_on_c, 1, 58, 0
3, 53040, Note_on_c, 1, 62, 0
3, 53040, Note_on_c, 1, 65, 0
3, 53040, Note_on_c, 1, 58, 88
3, 53040, Note_on_c, 1, 62, 88
3, 53040, Note_on_c, 1, 65, 88
3, 53040, Note_on_c, 1, 68, 88
3, 53760, Note_on_c, 1, 68, 0
3, 54240, Note_on_c, 1, 58, 0
3, 54240, Note_on_c, 1, 62, 0
3, 54240, Note_on_c, 1, 65, 0
3, 54600, Note_on_c, 1, 56, 56
3, 54600, Note_on_c, 1, 60, 56
3, 54720, Note_on_c, 1, 60, 0
3, 54720, Note_on_c, 1, 56, 0
3, 54720, Note_on_c, 1, 55, 56
3, 54720, Note_on_c, 1, 58, 56
3, 54840, Note_on_c, 1, 58, 0
3, 54840, Note_on_c, 1, 55, 0
3, 54840, Note_on_c, 1, 53, 56
3, 54840, Note_on_c, 1, 56, 56
3, 54960, Note_on_c, 1, 56, 0
3, 54960, Note_on_c, 1, 53, 0
3, 54960, Note_on_c, 1, 51, 56
3, 54960, Note_on_c, 1, 55, 56
3, 55008, Note_on_c, 1, 55, 0
3, 55008, Note_on_c, 1, 51, 0
3, 55080, Note_on_c, 1, 56, 56
3, 55080, Note_on_c, 1, 60, 56
3, 55200, Note_on_c, 1, 60, 0
3, 55200, Note_on_c, 1, 56, 0
3, 55200, Note_on_c, 1, 55, 56
3, 55200, Note_on_c, 1, 58, 56
3, 55320, Note_on_c, 1, 58, 0
3, 55320, Note_on_c, 1, 55, 0
3, 55320, Note_on_c, 1, 53, 56
3, 55320, Note_on_c, 1, 56, 56
3, 55440, Note_on_c, 1, 56, 0
3, 55440, Note_on_c, 1, 53, 0
3, 55440, Note_on_c, 1, 51, 56
3, 55440, Note_on_c, 1, 55, 56
3, 55488, Note_on_c, 1, 55, 0
3, 55488, Note_on_c, 1, 51, 0
3, 55560, Note_on_c, 1, 60, 59
3, 55680, Note_on_c, 1, 60, 0
3, 55680, Note_on_c, 1, 58, 62
3, 55800, Note_on_c, 1, 58, 0
3, 55800, Note_on_c, 1, 57, 65
3, 55920, Note_on_c, 1, 57, 0
3, 55920, Note_on_c, 1, 58, 68
3, 55980, Note_on_c, 1, 58, 0
3, 56040, Note_on_c, 1, 34, 71
3, 56040, Note_on_c, 1, 46, 71
3, 56160, Note_on_c, 1, 46, 0
3, 56160, Note_on_c, 1, 34, 0
3, 56160, Note_on_c, 1, 36, 74
3, 56160, Note_on_c, 1, 48, 74
3, 56280, Note_on_c, 1, 48, 0
3, 56280, Note_on_c, 1, 36, 0
3, 56280, Note_on_c, 1, 38, 77
3, 56280, Note_on_c, 1, 50, 77
3, 56400, Note_on_c, 1, 50, 0
3, 56400, Note_on_c, 1, 38, 0
3, 56400, Note_on_c, 1, 39, 80
3, 56400, Note_on_c, 1, 51, 80
3, 56640, Note_on_c, 1, 51, 0
3, 56640, Note_on_c, 1, 39, 0
3, 56880, Note_on_c, 1, 51, 80
3, 56880, Note_on_c, 1, 55, 80
3, 56880, Note_on_c, 1, 58, 80
3, 57120, Note_on_c, 1, 58, 0
3, 57120, Note_on_c, 1, 55, 0
3, 57120, Note_on_c, 1, 51, 0
3, 57360, Note_on_c, 1, 44, 80
3, 57360, Note_on_c, 1, 48, 80
3, 57360, Note_on_c, 1, 53, 80
3, 57600, Note_on_c, 1, 53, 0
3, 57600, Note_on_c, 1, 48, 0
3, 57600, Note_on_c, 1, 44, 0
3, 57720, Note_on_c, 1, 45, 80
3, 57720, Note_on_c, 1, 48, 80
3, 57720, Note_on_c, 1, 53, 80
3, 57768, Note_on_c, 1, 53, 0
3, 57768, Note_on_c, 1, 48, 0
3, 57768, Note_on_c, 1, 45, 0
3, 57840, Note_on_c, 1, 46, 80
3, 57840, Note_on_c, 1, 50, 80
3, 57840, Note_on_c, 1, 53, 80
3, 58080, Note_on_c, 1, 53, 0
3, 58080, Note_on_c, 1, 50, 0
3, 58080, Note_on_c, 1, 46, 0
3, 58320, Note_on_c, 1, 34, 80
3, 58320, Note_on_c, 1, 46, 80
3, 58380, Note_on_c, 1, 46, 0
3, 58380, Note_on_c, 1, 34, 0
3, 58440, Note_on_c, 1, 56, 80
3, 58440, Note_on_c, 1, 58, 80
3, 58440, Note_on_c, 1, 62, 80
3, 58440, Note_on_c, 1, 65, 80
3, 58560, Note_on_c, 1, 65, 0
3, 58560, Note_on_c, 1, 56, 0
3, 58560, Note_on_c, 1, 58, 0
3, 58560, Note_on_c, 1, 62, 0
3, 58560, Note_on_c, 1, 56, 80
3, 58560, Note_on_c, 1, 58, 80
3, 58560, Note_on_c, 1, 62, 80
3, 58560, Note_on_c, 1, 65, 80
3, 58680, Note_on_c, 1, 65, 0
3, 58680, Note_on_c, 1, 56, 0
3, 58680, Note_on_c, 1, 58, 0
3, 58680, Note_on_c, 1, 62, 0
3, 58680, Note_on_c, 1, 56, 80
3, 58680, Note_on_c, 1, 58, 80
3, 58680, Note_on_c, 1, 62, 80
3, 58680, Note_on_c, 1, 65, 80
3, 58800, Note_on_c, 1, 65, 0
3, 58800, Note_on_c, 1, 56, 0
3, 58800, Note_on_c, 1, 58, 0
3, 58800, Note_on_c, 1, 62, 0
3, 58800, Note_on_c, 1, 55, 80
3, 58800, Note_on_c, 1, 58, 80
3, 58800, Note_on_c, 1, 63, 80
3, 58860, Note_on_c, 1, 63, 0
3, 58860, Note_on_c, 1, 58, 0
3, 58860, Note_on_c, 1, 55, 0
3, 58920, Note_on_c, 1, 56, 56
3, 58920, Note_on_c, 1, 58, 56
3, 58920, Note_on_c, 1, 62, 56
3, 58920, Note_on_c, 1, 65, 56
3, 59040, Note_on_c, 1, 65, 0
3, 59040, Note_on_c, 1, 56, 0
3, 59040, Note_on_c, 1, 58, 0
3, 59040, Note_on_c, 1, 62, 0
3, 59040, Note_on_c, 1, 56, 56
3, 59040, Note_on_c, 1, 58, 56
3, 59040, Note_on_c, 1, 62, 56
3, 59040, Note_on_c, 1, 65, 56
3, 59160, Note_on_c, 1, 65, 0
3, 59160, Note_on_c, 1, 56, 0
3, 59160, Note_on_c, 1, 58, 0
3, 59160, Note_on_c, 1, 62, 0
3, 59160, Note_on_c, 1, 56, 56
3, 59160, Note_on_c, 1, 58, 56
3, 59160, Note_on_c, 1, 62, 56
3, 59160, Note_on_c, 1, 65, 56
3, 59280, Note_on_c, 1, 65, 0
3, 59280, Note_on_c, 1, 56, 0
3, 59280, Note_on_c, 1, 58, 0
3, 59280, Note_on_c, 1, 62, 0
3, 59280, Note_on_c, 1, 63, 56
3, 59280, Note_on_c, 1, 58, 56
3, 59280, Note_on_c, 1, 55, 56
3, 59340, Note_on_c, 1, 55, 0
3, 59340, Note_on_c, 1, 58, 0
3, 59340, Note_on_c, 1, 63, 0
3, 59400, Note_on_c, 1, 65, 80
3, 59400, Note_on_c, 1, 62, 80
3, 59400, Note_on_c, 1, 58, 80
3, 59400, Note_on_c, 1, 56, 80
3, 59520, Note_on_c, 1, 56, 0
3, 59520, Note_on_c, 1, 65, 0
3, 59520, Note_on_c, 1, 62, 0
3, 59520, Note_on_c, 1, 58, 0
3, 59520, Note_on_c, 1, 65, 80
3, 59520, Note_on_c, 1, 62, 80
3, 59520, Note_on_c, 1, 58, 80
3, 59520, Note_on_c, 1, 56, 80
3, 59640, Note_on_c, 1, 56, 0
3, 59640, Note_on_c, 1, 65, 0
3, 59640, Note_on_c, 1, 62, 0
3, 59640, Note_on_c, 1, 58, 0
3, 59640, Note_on_c, 1, 65, 80
3, 59640, Note_on_c, 1, 62, 80
3, 59640, Note_on_c, 1, 58, 80
3, 59640, Note_on_c, 1, 56, 80
3, 59760, Note_on_c, 1, 56, 0
3, 59760, Note_on_c, 1, 65, 0
3, 59760, Note_on_c, 1, 62, 0
3, 59760, Note_on_c, 1, 58, 0
3, 59760, Note_on_c, 1, 55, 80
3, 59760, Note_on_c, 1, 58, 80
3, 59760, Note_on_c, 1, 63, 80
3, 60000, Note_on_c, 1, 63, 0
3, 60000, Note_on_c, 1, 58, 0
3, 60000, Note_on_c, 1, 55, 0
3, 60240, Note_on_c, 1, 56, 80
3, 60240, Note_on_c, 1, 60, 80
3, 60240, Note_on_c, 1, 63, 80
3, 60480, Note_on_c, 1, 63, 0
3, 60480, Note_on_c, 1, 60, 0
3, 60480, Note_on_c, 1, 56, 0
3, 60600, Note_on_c, 1, 57, 80
3, 60600, Note_on_c, 1, 60, 80
3, 60600, Note_on_c, 1, 65, 80
3, 60660, Note_on_c, 1, 65, 0
3, 60660, Note_on_c, 1, 60, 0
3, 60660, Note_on_c, 1, 57, 0
3, 60720, Note_on_c, 1, 58, 80
3, 60720, Note_on_c, 1, 62, 80
3, 60720, Note_on_c, 1, 65, 80
3, 60840, Note_on_c, 1, 65, 0
3, 60840, Note_on_c, 1, 62, 0
3, 60840, Note_on_c, 1, 62, 80
3, 60960, Note_on_c, 1, 62, 0
3, 60960, Note_on_c, 1, 63, 80
3, 61080, Note_on_c, 1, 63, 0
3, 61080, Note_on_c, 1, 67, 80
3, 61200, Note_on_c, 1, 67, 0
3, 61200, Note_on_c, 1, 58, 0
3, 61200, Note_on_c, 1, 58, 56
3, 61320, Note_on_c, 1, 62, 56
3, 61440, Note_on_c, 1, 62, 0
3, 61440, Note_on_c, 1, 63, 56
3, 61560, Note_on_c, 1, 63, 0
3, 61560, Note_on_c, 1, 67, 56
3, 61680, Note_on_c, 1, 67, 0
3, 61680, Note_on_c, 1, 58, 0
3, 61680, Note_on_c, 1, 58, 80
3, 61800, Note_on_c, 1, 62, 80
3, 61920, Note_on_c, 1, 62, 0
3, 61920, Note_on_c, 1, 63, 80
3, 62040, Note_on_c, 1, 63, 0
3, 62040, Note_on_c, 1, 67, 80
3, 62160, Note_on_c, 1, 67, 0
3, 62160, Note_on_c, 1, 58, 0
3, 62160, Note_on_c, 1, 58, 80
3, 62160, Note_on_c, 1, 62, 80
3, 62400, Note_on_c, 1, 62, 0
3, 62400, Note_on_c, 1, 58, 0
3, 62400, Note_on_c, 1, 34, 80
3, 62400, Note_on_c, 1, 46, 80
3, 62460, Note_on_c, 1, 46, 0
3, 62460, Note_on_c, 1, 34, 0
3, 62520, Note_on_c, 1, 34, 80
3, 62520, Note_on_c, 1, 46, 80
3, 62580, Note_on_c, 1, 46, 0
3, 62580, Note_on_c, 1, 34, 0
3, 62640, Note_on_c, 1, 34, 80
3, 62640, Note_on_c, 1, 46, 80
3, 62880, Note_on_c, 1, 46, 0
3, 62880, Note_on_c, 1, 34, 0
3, 63120, Note_on_c, 1, 39, 80
3, 63120, Note_on_c, 1, 43, 80
3, 63120, Note_on_c, 1, 46, 80
3, 63120, Note_on_c, 1, 51, 80
3, 63180, Note_on_c, 1, 51, 0
3, 63180, Note_on_c, 1, 39, 0
3, 63180, Note_on_c, 1, 43, 0
3, 63180, Note_on_c, 1, 46, 0
3, 63360, Note_on_c, 1, 39, 80
3, 63360, Note_on_c, 1, 43, 80
3, 63360, Note_on_c, 1, 46, 80
3, 63360, Note_on_c, 1, 51, 80
3, 63459, Note_on_c, 1, 51, 0
3, 63459, Note_on_c, 1, 39, 0
3, 63459, Note_on_c, 1, 43, 0
3, 63459, Note_on_c, 1, 46, 0
3, 63600, Note_on_c, 1, 39, 80
3, 63600, Note_on_c, 1, 43, 80
3, 63600, Note_on_c, 1, 46, 80
3, 63600, Note_on_c, 1, 51, 80
3, 63660, Note_on_c, 1, 51, 0
3, 63660, Note_on_c, 1, 39, 0
3, 63660, Note_on_c, 1, 43, 0
3, 63660, Note_on_c, 1, 46, 0
3, 64080, Note_on_c, 1, 63, 56
3, 64080, Note_on_c, 1, 67, 56
3, 64140, Note_on_c, 1, 67, 0
3, 64140, Note_on_c, 1, 63, 0
3, 64320, Note_on_c, 1, 63, 56
3, 64320, Note_on_c, 1, 65, 56
3, 64380, Note_on_c, 1, 65, 0
3, 64380, Note_on_c, 1, 63, 0
3, 64560, Note_on_c, 1, 62, 56
3, 64560, Note_on_c, 1, 65, 56
3, 64680, Note_on_c, 1, 59, 56
3, 64800, Note_on_c, 1, 59, 0
3, 64800, Note_on_c, 1, 58, 56
3, 64920, Note_on_c, 1, 58, 0
3, 64920, Note_on_c, 1, 65, 0
3, 64920, Note_on_c, 1, 62, 0
3, 64920, Note_on_c, 1, 63, 56
3, 65040, Note_on_c, 1, 63, 0
3, 65040, Note_on_c, 1, 63, 56
3, 65040, Note_on_c, 1, 56, 56
3, 65280, Note_on_c, 1, 56, 0
3, 65280, Note_on_c, 1, 63, 0
3, 65280, Note_on_c, 1, 62, 56
3, 65280, Note_on_c, 1, 58, 56
3, 65400, Note_on_c, 1, 58, 0
3, 65400, Note_on_c, 1, 62, 0
3, 65400, Note_on_c, 1, 59, 56
3, 65520, Note_on_c, 1, 59, 0
3, 65520, Note_on_c, 1, 60, 56
3, 65832, Note_on_c, 1, 60, 0
3, 66480, Note_on_c, 1, 67, 56
3, 66480, Note_on_c, 1, 63, 56
3, 66540, Note_on_c, 1, 63, 0
3, 66540, Note_on_c, 1, 67, 0
3, 66720, Note_on_c, 1, 65, 56
3, 66720, Note_on_c, 1, 63, 56
3, 66780, Note_on_c, 1, 63, 0
3, 66780, Note_on_c, 1, 65, 0
3, 66960, Note_on_c, 1, 65, 56
3, 66960, Note_on_c, 1, 62, 56
3, 67080, Note_on_c, 1, 59, 56
3, 67200, Note_on_c, 1, 59, 0
3, 67200, Note_on_c, 1, 58, 56
3, 67320, Note_on_c, 1, 58, 0
3, 67320, Note_on_c, 1, 62, 0
3, 67320, Note_on_c, 1, 65, 0
3, 67320, Note_on_c, 1, 63, 56
3, 67440, Note_on_c, 1, 56, 56
3, 67560, Note_on_c, 1, 63, 0
3, 67560, Note_on_c, 1, 64, 56
3, 67680, Note_on_c, 1, 64, 0
3, 67680, Note_on_c, 1, 65, 56
3, 67920, Note_on_c, 1, 56, 0
3, 67920, Note_on_c, 1, 58, 56
3, 68040, Note_on_c, 1, 65, 0
3, 68040, Note_on_c, 1, 65, 56
3, 68160, Note_on_c, 1, 68, 56
3, 68760, Note_on_c, 1, 68, 0
3, 68760, Note_on_c, 1, 65, 0
3, 68760, Note_on_c, 1, 58, 0
3, 68760, Note_on_c, 1, 62, 48
3, 68790, Note_on_c, 1, 62, 0
3, 68790, Note_on_c, 1, 63, 48
3, 68820, Note_on_c, 1, 63, 0
3, 68820, Note_on_c, 1, 65, 48
3, 68850, Note_on_c, 1, 65, 0
3, 68850, Note_on_c, 1, 67, 48
3, 68880, Note_on_c, 1, 67, 0
3, 68880, Note_on_c, 1, 68, 48
3, 68940, Note_on_c, 1, 68, 0
3, 69000, Note_on_c, 1, 68, 40
3, 69030, Note_on_c, 1, 68, 0
3, 69030, Note_on_c, 1, 67, 40
3, 69060, Note_on_c, 1, 67, 0
3, 69060, Note_on_c, 1, 65, 40
3, 69090, Note_on_c, 1, 65, 0
3, 69090, Note_on_c, 1, 63, 40
3, 69120, Note_on_c, 1, 63, 0
3, 69120, Note_on_c, 1, 62, 40
3, 69180, Note_on_c, 1, 62, 0
3, 69240, Note_on_c, 1, 62, 32
3, 69270, Note_on_c, 1, 62, 0
3, 69270, Note_on_c, 1, 63, 32
3, 69300, Note_on_c, 1, 63, 0
3, 69300, Note_on_c, 1, 65, 32
3, 69330, Note_on_c, 1, 65, 0
3, 69330, Note_on_c, 1, 67, 32
3, 69360, Note_on_c, 1, 67, 0
3, 69360, Note_on_c, 1, 68, 32
3, 69420, Note_on_c, 1, 68, 0
3, 70320, Note_on_c, 1, 39, 88
3, 70320, Note_on_c, 1, 43, 88
3, 70320, Note_on_c, 1, 46, 88
3, 70320, Note_on_c, 1, 51, 88
3, 70560, Note_on_c, 1, 51, 0
3, 70560, Note_on_c, 1, 39, 0
3, 70560, Note_on_c, 1, 43, 0
3, 70560, Note_on_c, 1, 46, 0
3, 70800, Note_on_c, 1, 60, 88
3, 70800, Note_on_c, 1, 55, 88
3, 70800, Note_on_c, 1, 51, 88
3, 70800, Note_on_c, 1, 48, 88
3, 71040, Note_on_c, 1, 48, 0
3, 71040, Note_on_c, 1, 60, 0
3, 71040, Note_on_c, 1, 55, 0
3, 71040, Note_on_c, 1, 51, 0
3, 71280, Note_on_c, 1, 44, 88
3, 71280, Note_on_c, 1, 48, 88
3, 71280, Note_on_c, 1, 53, 88
3, 71520, Note_on_c, 1, 53, 0
3, 71520, Note_on_c, 1, 48, 0
3, 71520, Note_on_c, 1, 44, 0
3, 71760, Note_on_c, 1, 46, 88
3, 71760, Note_on_c, 1, 51, 88
3, 71760, Note_on_c, 1, 55, 88
3, 72000, Note_on_c, 1, 55, 0
3, 72000, Note_on_c, 1, 51, 0
3, 72000, Note_on_c, 1, 46, 0
3, 72240, Note_on_c, 1, 58, 88
3, 72240, Note_on_c, 1, 63, 88
3, 72300, Note_on_c, 1, 63, 0
3, 72300, Note_on_c, 1, 65, 88
3, 72330, Note_on_c, 1, 65, 0
3, 72330, Note_on_c, 1, 67, 88
3, 72360, Note_on_c, 1, 67, 0
3, 72360, Note_on_c, 1, 65, 88
3, 72390, Note_on_c, 1, 65, 0
3, 72390, Note_on_c, 1, 67, 88
3, 72420, Note_on_c, 1, 67, 0
3, 72420, Note_on_c, 1, 65, 88
3, 72450, Note_on_c, 1, 65, 0
3, 72450, Note_on_c, 1, 67, 88
3, 72480, Note_on_c, 1, 67, 0
3, 72480, Note_on_c, 1, 65, 88
3, 72510, Note_on_c, 1, 65, 0
3, 72510, Note_on_c, 1, 67, 88
3, 72540, Note_on_c, 1, 67, 0
3, 72540, Note_on_c, 1, 65, 88
3, 72560, Note_on_c, 1, 65, 0
3, 72560, Note_on_c, 1, 67, 88
3, 72580, Note_on_c, 1, 67, 0
3, 72580, Note_on_c, 1, 65, 88
3, 72600, Note_on_c, 1, 65, 0
3, 72600, Note_on_c, 1, 63, 88
3, 72660, Note_on_c, 1, 63, 0
3, 72660, Note_on_c, 1, 65, 88
3, 72720, Note_on_c, 1, 65, 0
3, 72720, Note_on_c, 1, 58, 0
3, 72720, Note_on_c, 1, 63, 88
3, 72720, Note_on_c, 1, 67, 88
3, 72828, Note_on_c, 1, 67, 0
3, 72828, Note_on_c, 1, 63, 0
3, 72840, Note_on_c, 1, 63, 88
3, 72840, Note_on_c, 1, 58, 88
3, 72840, Note_on_c, 1, 55, 88
3, 72900, Note_on_c, 1, 55, 0
3, 72900, Note_on_c, 1, 58, 0
3, 72900, Note_on_c, 1, 63, 0
3, 72960, Note_on_c, 1, 63, 88
3, 72960, Note_on_c, 1, 60, 88
3, 72960, Note_on_c, 1, 56, 88
3, 73020, Note_on_c, 1, 56, 0
3, 73020, Note_on_c, 1, 60, 0
3, 73020, Note_on_c, 1, 63, 0
3, 73080, Note_on_c, 1, 62, 88
3, 73200, Note_on_c, 1, 62, 0
3, 73200, Note_on_c, 1, 63, 88
3, 73296, Note_on_c, 1, 63, 0
3, 73320, Note_on_c, 1, 63, 91
3, 73320, Note_on_c, 1, 58, 91
3, 73320, Note_on_c, 1, 55, 91
3, 73380, Note_on_c, 1, 55, 0
3, 73380, Note_on_c, 1, 58, 0
3, 73380, Note_on_c, 1, 63, 0
3, 73440, Note_on_c, 1, 56, 94
3, 73440, Note_on_c, 1, 60, 94
3, 73440, Note_on_c, 1, 65, 94
3, 73500, Note_on_c, 1, 65, 0
3, 73500, Note_on_c, 1, 60, 0
3, 73500, Note_on_c, 1, 56, 0
3, 73560, Note_on_c, 1, 62, 97
3, 73560, Note_on_c, 1, 58, 97
3, 73620, Note_on_c, 1, 58, 0
3, 73620, Note_on_c, 1, 62, 0
3, 73680, Note_on_c, 1, 51, 100
3, 73680, Note_on_c, 1, 55, 100
3, 73680, Note_on_c, 1, 58, 100
3, 73680, Note_on_c, 1, 63, 100
3, 73872, Note_on_c, 1, 63, 0
3, 73872, Note_on_c, 1, 51, 0
3, 73872, Note_on_c, 1, 55, 0
3, 73872, Note_on_c, 1, 58, 0
3, 73872, End_track
4, 0, Start_track
4, 0, MIDI_port, 0
4, 0, Title_t, "MIDI by Marty Weimer  5/26/97"
4, 0, End_track
5, 0, Start_track
5, 0, MIDI_port, 0
5, 0, Title_t, "weimermt@libby.org  Eureka, MT  USA"
5, 0, End_track
0, 0, End_of_file
