0, 0, Header, 1, 5, 240
1, 0, Start_track
1, 0, Time_signature, 4, 2, 24, 8
1, 0, Key_signature, 0, "major"
1, 0, Tempo, 731707
1, 0, End_track
2, 0, Start_track
2, 0, MIDI_port, 0
2, 0, Title_t, "Piano Sonata No. 31 in E"
2, 0, Program_c, 0, 0
2, 0, Control_c, 0, 7, 127
2, 0, Control_c, 0, 10, 72
2, 0, Note_on_c, 0, 80, 64
2, 0, Note_on_c, 0, 83, 64
2, 360, Note_on_c, 0, 83, 0
2, 360, Note_on_c, 0, 80, 0
2, 360, Note_on_c, 0, 78, 64
2, 360, Note_on_c, 0, 81, 64
2, 420, Note_on_c, 0, 81, 0
2, 420, Note_on_c, 0, 78, 0
2, 480, Note_on_c, 0, 76, 64
2, 480, Note_on_c, 0, 80, 64
2, 720, Note_on_c, 0, 80, 0
2, 720, Note_on_c, 0, 78, 64
2, 840, Note_on_c, 0, 76, 0
2, 840, Note_on_c, 0, 75, 64
2, 960, Note_on_c, 0, 75, 0
2, 960, Note_on_c, 0, 78, 0
2, 960, Note_on_c, 0, 76, 64
2, 1140, Note_on_c, 0, 76, 0
2, 1140, Note_on_c, 0, 78, 64
2, 1170, Note_on_c, 0, 78, 0
2, 1170, Note_on_c, 0, 80, 64
2, 1200, Note_on_c, 0, 80, 0
2, 1200, Note_on_c, 0, 81, 64
2, 1320, Note_on_c, 0, 81, 0
2, 1320, Note_on_c, 0, 80, 64
2, 1440, Note_on_c, 0, 80, 0
2, 1440, Note_on_c, 0, 78, 64
2, 1470, Note_on_c, 0, 78, 0
2, 1470, Note_on_c, 0, 80, 64
2, 1500, Note_on_c, 0, 80, 0
2, 1500, Note_on_c, 0, 78, 64
2, 1520, Note_on_c, 0, 78, 0
2, 1520, Note_on_c, 0, 80, 64
2, 1540, Note_on_c, 0, 80, 0
2, 1540, Note_on_c, 0, 78, 64
2, 1556, Note_on_c, 0, 78, 0
2, 1560, Note_on_c, 0, 76, 64
2, 1620, Note_on_c, 0, 76, 0
2, 1920, Note_on_c, 0, 71, 64
2, 1920, Note_on_c, 0, 68, 64
2, 2280, Note_on_c, 0, 68, 0
2, 2280, Note_on_c, 0, 71, 0
2, 2280, Note_on_c, 0, 69, 64
2, 2280, Note_on_c, 0, 66, 64
2, 2340, Note_on_c, 0, 66, 0
2, 2340, Note_on_c, 0, 69, 0
2, 2400, Note_on_c, 0, 68, 64
2, 2400, Note_on_c, 0, 64, 64
2, 2640, Note_on_c, 0, 68, 0
2, 2640, Note_on_c, 0, 66, 64
2, 2760, Note_on_c, 0, 64, 0
2, 2760, Note_on_c, 0, 63, 64
2, 2880, Note_on_c, 0, 63, 0
2, 2880, Note_on_c, 0, 66, 0
2, 2880, Note_on_c, 0, 64, 64
2, 3060, Note_on_c, 0, 64, 0
2, 3060, Note_on_c, 0, 66, 64
2, 3090, Note_on_c, 0, 66, 0
2, 3090, Note_on_c, 0, 68, 64
2, 3120, Note_on_c, 0, 68, 0
2, 3120, Note_on_c, 0, 69, 64
2, 3240, Note_on_c, 0, 69, 0
2, 3240, Note_on_c, 0, 68, 64
2, 3300, Note_on_c, 0, 68, 0
2, 3360, Note_on_c, 0, 64, 64
2, 3360, Note_on_c, 0, 69, 64
2, 3360, Note_on_c, 0, 73, 64
2, 3396, Note_on_c, 0, 73, 0
2, 3396, Note_on_c, 0, 69, 0
2, 3396, Note_on_c, 0, 64, 0
2, 3480, Note_on_c, 0, 64, 64
2, 3480, Note_on_c, 0, 68, 64
2, 3480, Note_on_c, 0, 71, 64
2, 3516, Note_on_c, 0, 71, 0
2, 3516, Note_on_c, 0, 68, 0
2, 3516, Note_on_c, 0, 64, 0
2, 3780, Note_on_c, 0, 64, 80
2, 3840, Note_on_c, 0, 64, 0
2, 3840, Note_on_c, 0, 76, 80
2, 4120, Note_on_c, 0, 76, 0
2, 4120, Note_on_c, 0, 75, 80
2, 4160, Note_on_c, 0, 75, 0
2, 4160, Note_on_c, 0, 73, 80
2, 4200, Note_on_c, 0, 73, 0
2, 4200, Note_on_c, 0, 71, 80
2, 4240, Note_on_c, 0, 71, 0
2, 4240, Note_on_c, 0, 69, 80
2, 4280, Note_on_c, 0, 69, 0
2, 4280, Note_on_c, 0, 68, 80
2, 4320, Note_on_c, 0, 68, 0
2, 4320, Note_on_c, 0, 66, 80
2, 4380, Note_on_c, 0, 66, 0
2, 4600, Note_on_c, 0, 85, 80
2, 4640, Note_on_c, 0, 85, 0
2, 4640, Note_on_c, 0, 83, 80
2, 4680, Note_on_c, 0, 83, 0
2, 4680, Note_on_c, 0, 81, 80
2, 4720, Note_on_c, 0, 81, 0
2, 4720, Note_on_c, 0, 80, 80
2, 4760, Note_on_c, 0, 80, 0
2, 4760, Note_on_c, 0, 78, 80
2, 4800, Note_on_c, 0, 78, 0
2, 4800, Note_on_c, 0, 76, 80
2, 4840, Note_on_c, 0, 76, 0
2, 4840, Note_on_c, 0, 75, 80
2, 4880, Note_on_c, 0, 75, 0
2, 4880, Note_on_c, 0, 73, 80
2, 4920, Note_on_c, 0, 73, 0
2, 4920, Note_on_c, 0, 71, 80
2, 4960, Note_on_c, 0, 71, 0
2, 4960, Note_on_c, 0, 69, 80
2, 5000, Note_on_c, 0, 69, 0
2, 5000, Note_on_c, 0, 68, 80
2, 5040, Note_on_c, 0, 68, 0
2, 5040, Note_on_c, 0, 66, 80
2, 5080, Note_on_c, 0, 66, 0
2, 5080, Note_on_c, 0, 64, 80
2, 5120, Note_on_c, 0, 64, 0
2, 5120, Note_on_c, 0, 63, 80
2, 5160, Note_on_c, 0, 63, 0
2, 5160, Note_on_c, 0, 61, 80
2, 5200, Note_on_c, 0, 61, 0
2, 5200, Note_on_c, 0, 59, 80
2, 5240, Note_on_c, 0, 59, 0
2, 5240, Note_on_c, 0, 57, 80
2, 5260, Note_on_c, 0, 57, 0
2, 5260, Note_on_c, 0, 59, 80
2, 5280, Note_on_c, 0, 59, 0
2, 5280, Note_on_c, 0, 57, 80
2, 5310, Note_on_c, 0, 57, 0
2, 5310, Note_on_c, 0, 59, 80
2, 5340, Note_on_c, 0, 59, 0
2, 5340, Note_on_c, 0, 57, 80
2, 5370, Note_on_c, 0, 57, 0
2, 5370, Note_on_c, 0, 59, 80
2, 5400, Note_on_c, 0, 59, 0
2, 5400, Note_on_c, 0, 57, 80
2, 5420, Note_on_c, 0, 57, 0
2, 5420, Note_on_c, 0, 59, 80
2, 5440, Note_on_c, 0, 59, 0
2, 5440, Note_on_c, 0, 57, 80
2, 5460, Note_on_c, 0, 57, 0
2, 5460, Note_on_c, 0, 56, 80
2, 5490, Note_on_c, 0, 56, 0
2, 5490, Note_on_c, 0, 57, 80
2, 5520, Note_on_c, 0, 57, 0
2, 5520, Note_on_c, 0, 56, 80
2, 5640, Note_on_c, 0, 56, 0
2, 5760, Note_on_c, 0, 76, 80
2, 6040, Note_on_c, 0, 76, 0
2, 6040, Note_on_c, 0, 75, 80
2, 6080, Note_on_c, 0, 75, 0
2, 6080, Note_on_c, 0, 73, 80
2, 6120, Note_on_c, 0, 73, 0
2, 6120, Note_on_c, 0, 71, 80
2, 6160, Note_on_c, 0, 71, 0
2, 6160, Note_on_c, 0, 69, 80
2, 6200, Note_on_c, 0, 69, 0
2, 6200, Note_on_c, 0, 68, 80
2, 6240, Note_on_c, 0, 68, 0
2, 6240, Note_on_c, 0, 66, 80
2, 6336, Note_on_c, 0, 66, 0
2, 6520, Note_on_c, 0, 88, 80
2, 6560, Note_on_c, 0, 88, 0
2, 6560, Note_on_c, 0, 87, 80
2, 6600, Note_on_c, 0, 87, 0
2, 6600, Note_on_c, 0, 85, 80
2, 6640, Note_on_c, 0, 85, 0
2, 6640, Note_on_c, 0, 83, 80
2, 6680, Note_on_c, 0, 83, 0
2, 6680, Note_on_c, 0, 81, 80
2, 6720, Note_on_c, 0, 81, 0
2, 6720, Note_on_c, 0, 80, 80
2, 6760, Note_on_c, 0, 80, 0
2, 6760, Note_on_c, 0, 78, 80
2, 6800, Note_on_c, 0, 78, 0
2, 6800, Note_on_c, 0, 76, 80
2, 6840, Note_on_c, 0, 76, 0
2, 6840, Note_on_c, 0, 75, 80
2, 6880, Note_on_c, 0, 75, 0
2, 6880, Note_on_c, 0, 73, 80
2, 6920, Note_on_c, 0, 73, 0
2, 6920, Note_on_c, 0, 71, 80
2, 6960, Note_on_c, 0, 71, 0
2, 6960, Note_on_c, 0, 69, 80
2, 7000, Note_on_c, 0, 69, 0
2, 7000, Note_on_c, 0, 68, 80
2, 7040, Note_on_c, 0, 68, 0
2, 7040, Note_on_c, 0, 66, 80
2, 7080, Note_on_c, 0, 66, 0
2, 7080, Note_on_c, 0, 64, 80
2, 7120, Note_on_c, 0, 64, 0
2, 7120, Note_on_c, 0, 63, 80
2, 7160, Note_on_c, 0, 63, 0
2, 7160, Note_on_c, 0, 69, 80
2, 7200, Note_on_c, 0, 69, 0
2, 7200, Note_on_c, 0, 68, 80
2, 7240, Note_on_c, 0, 68, 0
2, 7240, Note_on_c, 0, 66, 80
2, 7280, Note_on_c, 0, 66, 0
2, 7280, Note_on_c, 0, 64, 80
2, 7320, Note_on_c, 0, 64, 0
2, 7320, Note_on_c, 0, 64, 80
2, 7440, Note_on_c, 0, 64, 0
2, 7680, Note_on_c, 0, 80, 64
2, 7920, Note_on_c, 0, 80, 0
2, 7920, Note_on_c, 0, 81, 64
2, 7950, Note_on_c, 0, 81, 0
2, 7950, Note_on_c, 0, 80, 64
2, 7980, Note_on_c, 0, 80, 0
2, 7980, Note_on_c, 0, 78, 64
2, 8010, Note_on_c, 0, 78, 0
2, 8010, Note_on_c, 0, 80, 64
2, 8040, Note_on_c, 0, 80, 0
2, 8040, Note_on_c, 0, 81, 64
2, 8130, Note_on_c, 0, 81, 0
2, 8130, Note_on_c, 0, 78, 64
2, 8160, Note_on_c, 0, 78, 0
2, 8160, Note_on_c, 0, 78, 64
2, 8370, Note_on_c, 0, 78, 0
2, 8370, Note_on_c, 0, 76, 64
2, 8400, Note_on_c, 0, 76, 0
2, 8400, Note_on_c, 0, 78, 64
2, 8430, Note_on_c, 0, 78, 0
2, 8430, Note_on_c, 0, 76, 64
2, 8460, Note_on_c, 0, 76, 0
2, 8460, Note_on_c, 0, 75, 64
2, 8490, Note_on_c, 0, 75, 0
2, 8490, Note_on_c, 0, 76, 64
2, 8520, Note_on_c, 0, 76, 0
2, 8520, Note_on_c, 0, 80, 64
2, 8610, Note_on_c, 0, 80, 0
2, 8610, Note_on_c, 0, 73, 64
2, 8640, Note_on_c, 0, 73, 0
2, 8640, Note_on_c, 0, 73, 64
2, 8640, Note_on_c, 0, 75, 64
2, 8880, Note_on_c, 0, 73, 0
2, 8880, Note_on_c, 0, 72, 64
2, 9000, Note_on_c, 0, 75, 0
2, 9000, Note_on_c, 0, 76, 64
2, 9090, Note_on_c, 0, 76, 0
2, 9090, Note_on_c, 0, 78, 64
2, 9120, Note_on_c, 0, 78, 0
2, 9120, Note_on_c, 0, 72, 0
2, 9120, Note_on_c, 0, 76, 64
2, 9120, Note_on_c, 0, 73, 64
2, 9152, Note_on_c, 0, 76, 0
2, 9160, Note_on_c, 0, 75, 64
2, 9192, Note_on_c, 0, 75, 0
2, 9200, Note_on_c, 0, 73, 64
2, 9272, Note_on_c, 0, 73, 0
2, 9280, Note_on_c, 0, 61, 80
2, 9312, Note_on_c, 0, 61, 0
2, 9312, Note_on_c, 0, 73, 0
2, 9320, Note_on_c, 0, 63, 80
2, 9352, Note_on_c, 0, 63, 0
2, 9360, Note_on_c, 0, 64, 80
2, 9392, Note_on_c, 0, 64, 0
2, 9400, Note_on_c, 0, 63, 80
2, 9432, Note_on_c, 0, 63, 0
2, 9440, Note_on_c, 0, 61, 80
2, 9472, Note_on_c, 0, 61, 0
2, 9480, Note_on_c, 0, 59, 80
2, 9512, Note_on_c, 0, 59, 0
2, 9520, Note_on_c, 0, 58, 80
2, 9552, Note_on_c, 0, 58, 0
2, 9560, Note_on_c, 0, 56, 80
2, 9592, Note_on_c, 0, 56, 0
2, 9600, Note_on_c, 0, 54, 80
2, 9684, Note_on_c, 0, 54, 0
2, 9720, Note_on_c, 0, 78, 64
2, 9840, Note_on_c, 0, 78, 0
2, 9840, Note_on_c, 0, 80, 64
2, 9870, Note_on_c, 0, 80, 0
2, 9870, Note_on_c, 0, 78, 64
2, 9900, Note_on_c, 0, 78, 0
2, 9900, Note_on_c, 0, 76, 64
2, 9930, Note_on_c, 0, 76, 0
2, 9930, Note_on_c, 0, 78, 64
2, 9960, Note_on_c, 0, 78, 0
2, 9960, Note_on_c, 0, 80, 64
2, 10050, Note_on_c, 0, 80, 0
2, 10050, Note_on_c, 0, 76, 64
2, 10080, Note_on_c, 0, 76, 0
2, 10080, Note_on_c, 0, 76, 64
2, 10290, Note_on_c, 0, 76, 0
2, 10290, Note_on_c, 0, 75, 64
2, 10320, Note_on_c, 0, 75, 0
2, 10320, Note_on_c, 0, 76, 64
2, 10350, Note_on_c, 0, 76, 0
2, 10350, Note_on_c, 0, 75, 64
2, 10380, Note_on_c, 0, 75, 0
2, 10380, Note_on_c, 0, 73, 64
2, 10410, Note_on_c, 0, 73, 0
2, 10410, Note_on_c, 0, 75, 64
2, 10440, Note_on_c, 0, 75, 0
2, 10440, Note_on_c, 0, 76, 64
2, 10530, Note_on_c, 0, 76, 0
2, 10530, Note_on_c, 0, 73, 64
2, 10560, Note_on_c, 0, 73, 0
2, 10560, Note_on_c, 0, 71, 64
2, 10600, Note_on_c, 0, 71, 0
2, 10600, Note_on_c, 0, 75, 64
2, 10640, Note_on_c, 0, 75, 0
2, 10640, Note_on_c, 0, 73, 64
2, 10680, Note_on_c, 0, 73, 0
2, 10680, Note_on_c, 0, 71, 64
2, 10720, Note_on_c, 0, 71, 0
2, 10720, Note_on_c, 0, 75, 64
2, 10760, Note_on_c, 0, 75, 0
2, 10760, Note_on_c, 0, 78, 64
2, 10800, Note_on_c, 0, 78, 0
2, 10800, Note_on_c, 0, 83, 64
2, 10840, Note_on_c, 0, 83, 0
2, 10840, Note_on_c, 0, 82, 64
2, 10880, Note_on_c, 0, 82, 0
2, 10880, Note_on_c, 0, 80, 64
2, 10920, Note_on_c, 0, 80, 0
2, 10920, Note_on_c, 0, 78, 64
2, 10960, Note_on_c, 0, 78, 0
2, 10960, Note_on_c, 0, 76, 64
2, 11000, Note_on_c, 0, 76, 0
2, 11000, Note_on_c, 0, 75, 64
2, 11040, Note_on_c, 0, 75, 0
2, 11040, Note_on_c, 0, 75, 64
2, 11070, Note_on_c, 0, 75, 0
2, 11070, Note_on_c, 0, 76, 64
2, 11100, Note_on_c, 0, 76, 0
2, 11100, Note_on_c, 0, 75, 64
2, 11120, Note_on_c, 0, 75, 0
2, 11120, Note_on_c, 0, 76, 64
2, 11140, Note_on_c, 0, 76, 0
2, 11140, Note_on_c, 0, 75, 64
2, 11160, Note_on_c, 0, 75, 0
2, 11160, Note_on_c, 0, 73, 64
2, 11280, Note_on_c, 0, 73, 0
2, 11560, Note_on_c, 0, 71, 80
2, 11600, Note_on_c, 0, 71, 0
2, 11600, Note_on_c, 0, 70, 80
2, 11640, Note_on_c, 0, 70, 0
2, 11640, Note_on_c, 0, 68, 80
2, 11680, Note_on_c, 0, 68, 0
2, 11680, Note_on_c, 0, 66, 80
2, 11720, Note_on_c, 0, 66, 0
2, 11720, Note_on_c, 0, 64, 80
2, 11760, Note_on_c, 0, 64, 0
2, 11760, Note_on_c, 0, 63, 80
2, 11800, Note_on_c, 0, 63, 0
2, 11800, Note_on_c, 0, 61, 80
2, 11840, Note_on_c, 0, 61, 0
2, 11840, Note_on_c, 0, 59, 80
2, 11880, Note_on_c, 0, 59, 0
2, 11880, Note_on_c, 0, 58, 80
2, 11920, Note_on_c, 0, 58, 0
2, 11920, Note_on_c, 0, 61, 80
2, 11960, Note_on_c, 0, 61, 0
2, 11960, Note_on_c, 0, 66, 80
2, 12000, Note_on_c, 0, 66, 0
2, 12000, Note_on_c, 0, 59, 80
2, 12040, Note_on_c, 0, 59, 0
2, 12040, Note_on_c, 0, 63, 80
2, 12080, Note_on_c, 0, 63, 0
2, 12080, Note_on_c, 0, 66, 80
2, 12120, Note_on_c, 0, 66, 0
2, 12120, Note_on_c, 0, 61, 80
2, 12160, Note_on_c, 0, 61, 0
2, 12160, Note_on_c, 0, 64, 80
2, 12200, Note_on_c, 0, 64, 0
2, 12200, Note_on_c, 0, 66, 80
2, 12240, Note_on_c, 0, 66, 0
2, 12240, Note_on_c, 0, 63, 80
2, 12280, Note_on_c, 0, 63, 0
2, 12280, Note_on_c, 0, 64, 80
2, 12320, Note_on_c, 0, 64, 0
2, 12320, Note_on_c, 0, 66, 80
2, 12360, Note_on_c, 0, 66, 0
2, 12360, Note_on_c, 0, 64, 80
2, 12400, Note_on_c, 0, 64, 0
2, 12400, Note_on_c, 0, 66, 80
2, 12440, Note_on_c, 0, 66, 0
2, 12440, Note_on_c, 0, 68, 80
2, 12480, Note_on_c, 0, 68, 0
2, 12480, Note_on_c, 0, 66, 80
2, 12520, Note_on_c, 0, 66, 0
2, 12520, Note_on_c, 0, 71, 64
2, 12560, Note_on_c, 0, 71, 0
2, 12560, Note_on_c, 0, 70, 64
2, 12600, Note_on_c, 0, 70, 0
2, 12600, Note_on_c, 0, 68, 64
2, 12640, Note_on_c, 0, 68, 0
2, 12640, Note_on_c, 0, 66, 64
2, 12680, Note_on_c, 0, 66, 0
2, 12680, Note_on_c, 0, 64, 64
2, 12720, Note_on_c, 0, 64, 0
2, 12720, Note_on_c, 0, 63, 64
2, 12760, Note_on_c, 0, 63, 0
2, 12760, Note_on_c, 0, 61, 64
2, 12800, Note_on_c, 0, 61, 0
2, 12800, Note_on_c, 0, 59, 64
2, 12840, Note_on_c, 0, 59, 0
2, 12840, Note_on_c, 0, 58, 64
2, 12880, Note_on_c, 0, 58, 0
2, 12880, Note_on_c, 0, 61, 64
2, 12920, Note_on_c, 0, 61, 0
2, 12920, Note_on_c, 0, 66, 64
2, 12960, Note_on_c, 0, 66, 0
2, 12960, Note_on_c, 0, 59, 64
2, 13000, Note_on_c, 0, 59, 0
2, 13000, Note_on_c, 0, 63, 64
2, 13040, Note_on_c, 0, 63, 0
2, 13040, Note_on_c, 0, 66, 64
2, 13080, Note_on_c, 0, 66, 0
2, 13080, Note_on_c, 0, 61, 64
2, 13120, Note_on_c, 0, 61, 0
2, 13120, Note_on_c, 0, 64, 64
2, 13160, Note_on_c, 0, 64, 0
2, 13160, Note_on_c, 0, 66, 64
2, 13200, Note_on_c, 0, 66, 0
2, 13200, Note_on_c, 0, 63, 64
2, 13240, Note_on_c, 0, 63, 0
2, 13240, Note_on_c, 0, 64, 64
2, 13280, Note_on_c, 0, 64, 0
2, 13280, Note_on_c, 0, 66, 64
2, 13320, Note_on_c, 0, 66, 0
2, 13320, Note_on_c, 0, 64, 64
2, 13360, Note_on_c, 0, 64, 0
2, 13360, Note_on_c, 0, 66, 64
2, 13400, Note_on_c, 0, 66, 0
2, 13400, Note_on_c, 0, 68, 64
2, 13440, Note_on_c, 0, 68, 0
2, 13440, Note_on_c, 0, 66, 64
2, 13480, Note_on_c, 0, 66, 0
2, 13480, Note_on_c, 0, 71, 65
2, 13520, Note_on_c, 0, 71, 0
2, 13520, Note_on_c, 0, 70, 65
2, 13560, Note_on_c, 0, 70, 0
2, 13560, Note_on_c, 0, 68, 66
2, 13600, Note_on_c, 0, 68, 0
2, 13600, Note_on_c, 0, 66, 67
2, 13640, Note_on_c, 0, 66, 0
2, 13640, Note_on_c, 0, 64, 67
2, 13680, Note_on_c, 0, 64, 0
2, 13680, Note_on_c, 0, 63, 68
2, 13720, Note_on_c, 0, 63, 0
2, 13720, Note_on_c, 0, 61, 69
2, 13760, Note_on_c, 0, 61, 0
2, 13760, Note_on_c, 0, 59, 69
2, 13800, Note_on_c, 0, 59, 0
2, 13800, Note_on_c, 0, 69, 70
2, 13840, Note_on_c, 0, 69, 0
2, 13840, Note_on_c, 0, 68, 71
2, 13880, Note_on_c, 0, 68, 0
2, 13880, Note_on_c, 0, 66, 71
2, 13920, Note_on_c, 0, 66, 0
2, 13920, Note_on_c, 0, 67, 72
2, 14160, Note_on_c, 0, 67, 0
2, 14160, Note_on_c, 0, 68, 76
2, 14280, Note_on_c, 0, 68, 0
2, 14280, Note_on_c, 0, 76, 78
2, 14320, Note_on_c, 0, 76, 0
2, 14320, Note_on_c, 0, 75, 79
2, 14360, Note_on_c, 0, 75, 0
2, 14360, Note_on_c, 0, 73, 79
2, 14400, Note_on_c, 0, 73, 0
2, 14400, Note_on_c, 0, 72, 80
2, 14640, Note_on_c, 0, 72, 0
2, 14640, Note_on_c, 0, 73, 80
2, 14700, Note_on_c, 0, 73, 0
2, 14760, Note_on_c, 0, 80, 80
2, 14800, Note_on_c, 0, 80, 0
2, 14800, Note_on_c, 0, 78, 80
2, 14840, Note_on_c, 0, 78, 0
2, 14840, Note_on_c, 0, 76, 80
2, 14880, Note_on_c, 0, 76, 0
2, 14880, Note_on_c, 0, 71, 80
2, 14880, Note_on_c, 0, 75, 80
2, 15120, Note_on_c, 0, 75, 0
2, 15120, Note_on_c, 0, 71, 0
2, 15120, Note_on_c, 0, 70, 80
2, 15120, Note_on_c, 0, 73, 80
2, 15240, Note_on_c, 0, 73, 0
2, 15240, Note_on_c, 0, 70, 0
2, 15360, Note_on_c, 0, 83, 88
2, 15360, Note_on_c, 0, 78, 88
2, 15360, Note_on_c, 0, 75, 88
2, 15360, Note_on_c, 0, 71, 88
2, 15480, Note_on_c, 0, 71, 0
2, 15480, Note_on_c, 0, 83, 0
2, 15480, Note_on_c, 0, 78, 0
2, 15480, Note_on_c, 0, 75, 0
2, 15720, Note_on_c, 0, 66, 88
2, 15760, Note_on_c, 0, 66, 0
2, 15760, Note_on_c, 0, 68, 88
2, 15800, Note_on_c, 0, 68, 0
2, 15800, Note_on_c, 0, 70, 88
2, 15840, Note_on_c, 0, 70, 0
2, 15840, Note_on_c, 0, 71, 88
2, 15880, Note_on_c, 0, 71, 0
2, 15880, Note_on_c, 0, 75, 88
2, 15920, Note_on_c, 0, 75, 0
2, 15920, Note_on_c, 0, 78, 88
2, 15960, Note_on_c, 0, 78, 0
2, 15960, Note_on_c, 0, 83, 88
2, 16000, Note_on_c, 0, 83, 0
2, 16000, Note_on_c, 0, 82, 88
2, 16040, Note_on_c, 0, 82, 0
2, 16040, Note_on_c, 0, 80, 88
2, 16080, Note_on_c, 0, 80, 0
2, 16080, Note_on_c, 0, 78, 88
2, 16120, Note_on_c, 0, 78, 0
2, 16120, Note_on_c, 0, 76, 88
2, 16160, Note_on_c, 0, 76, 0
2, 16160, Note_on_c, 0, 75, 88
2, 16200, Note_on_c, 0, 75, 0
2, 16200, Note_on_c, 0, 73, 88
2, 16240, Note_on_c, 0, 73, 0
2, 16240, Note_on_c, 0, 75, 88
2, 16280, Note_on_c, 0, 75, 0
2, 16280, Note_on_c, 0, 76, 88
2, 16320, Note_on_c, 0, 76, 0
2, 16320, Note_on_c, 0, 75, 80
2, 16560, Note_on_c, 0, 75, 0
2, 16680, Note_on_c, 0, 66, 64
2, 16720, Note_on_c, 0, 66, 0
2, 16720, Note_on_c, 0, 68, 64
2, 16760, Note_on_c, 0, 68, 0
2, 16760, Note_on_c, 0, 70, 64
2, 16800, Note_on_c, 0, 70, 0
2, 16800, Note_on_c, 0, 71, 64
2, 16840, Note_on_c, 0, 71, 0
2, 16840, Note_on_c, 0, 75, 64
2, 16880, Note_on_c, 0, 75, 0
2, 16880, Note_on_c, 0, 78, 64
2, 16920, Note_on_c, 0, 78, 0
2, 16920, Note_on_c, 0, 83, 64
2, 16960, Note_on_c, 0, 83, 0
2, 16960, Note_on_c, 0, 82, 64
2, 17000, Note_on_c, 0, 82, 0
2, 17000, Note_on_c, 0, 80, 64
2, 17040, Note_on_c, 0, 80, 0
2, 17040, Note_on_c, 0, 78, 64
2, 17100, Note_on_c, 0, 78, 0
2, 17160, Note_on_c, 0, 83, 64
2, 17200, Note_on_c, 0, 83, 0
2, 17200, Note_on_c, 0, 82, 64
2, 17240, Note_on_c, 0, 82, 0
2, 17240, Note_on_c, 0, 80, 64
2, 17280, Note_on_c, 0, 80, 0
2, 17280, Note_on_c, 0, 78, 64
2, 17320, Note_on_c, 0, 78, 0
2, 17320, Note_on_c, 0, 80, 64
2, 17360, Note_on_c, 0, 80, 0
2, 17360, Note_on_c, 0, 82, 64
2, 17400, Note_on_c, 0, 82, 0
2, 17400, Note_on_c, 0, 83, 64
2, 17440, Note_on_c, 0, 83, 0
2, 17440, Note_on_c, 0, 82, 64
2, 17480, Note_on_c, 0, 82, 0
2, 17480, Note_on_c, 0, 80, 64
2, 17520, Note_on_c, 0, 80, 0
2, 17520, Note_on_c, 0, 78, 64
2, 17560, Note_on_c, 0, 78, 0
2, 17560, Note_on_c, 0, 80, 64
2, 17600, Note_on_c, 0, 80, 0
2, 17600, Note_on_c, 0, 82, 64
2, 17640, Note_on_c, 0, 82, 0
2, 17640, Note_on_c, 0, 83, 64
2, 17680, Note_on_c, 0, 83, 0
2, 17680, Note_on_c, 0, 82, 64
2, 17720, Note_on_c, 0, 82, 0
2, 17720, Note_on_c, 0, 80, 64
2, 17760, Note_on_c, 0, 80, 0
2, 17760, Note_on_c, 0, 78, 64
2, 17800, Note_on_c, 0, 78, 0
2, 17800, Note_on_c, 0, 80, 64
2, 17840, Note_on_c, 0, 80, 0
2, 17840, Note_on_c, 0, 81, 64
2, 17880, Note_on_c, 0, 81, 0
2, 17880, Note_on_c, 0, 80, 64
2, 17920, Note_on_c, 0, 80, 0
2, 17920, Note_on_c, 0, 81, 64
2, 17960, Note_on_c, 0, 81, 0
2, 17960, Note_on_c, 0, 83, 64
2, 18000, Note_on_c, 0, 83, 0
2, 18000, Note_on_c, 0, 81, 64
2, 18240, Note_on_c, 0, 81, 0
2, 18240, Note_on_c, 0, 80, 80
2, 18280, Note_on_c, 0, 80, 0
2, 18280, Note_on_c, 0, 82, 80
2, 18320, Note_on_c, 0, 82, 0
2, 18320, Note_on_c, 0, 83, 80
2, 18360, Note_on_c, 0, 83, 0
2, 18360, Note_on_c, 0, 82, 80
2, 18400, Note_on_c, 0, 82, 0
2, 18400, Note_on_c, 0, 80, 80
2, 18440, Note_on_c, 0, 80, 0
2, 18440, Note_on_c, 0, 78, 80
2, 18480, Note_on_c, 0, 78, 0
2, 18480, Note_on_c, 0, 76, 80
2, 18520, Note_on_c, 0, 76, 0
2, 18520, Note_on_c, 0, 75, 80
2, 18560, Note_on_c, 0, 75, 0
2, 18560, Note_on_c, 0, 73, 80
2, 18600, Note_on_c, 0, 73, 0
2, 18600, Note_on_c, 0, 71, 80
2, 18640, Note_on_c, 0, 71, 0
2, 18640, Note_on_c, 0, 70, 80
2, 18680, Note_on_c, 0, 70, 0
2, 18680, Note_on_c, 0, 68, 80
2, 18720, Note_on_c, 0, 68, 0
2, 18720, Note_on_c, 0, 66, 80
2, 18960, Note_on_c, 0, 66, 0
2, 18960, Note_on_c, 0, 73, 80
2, 18990, Note_on_c, 0, 73, 0
2, 18990, Note_on_c, 0, 75, 80
2, 19020, Note_on_c, 0, 75, 0
2, 19020, Note_on_c, 0, 73, 80
2, 19050, Note_on_c, 0, 73, 0
2, 19050, Note_on_c, 0, 75, 80
2, 19080, Note_on_c, 0, 75, 0
2, 19080, Note_on_c, 0, 73, 80
2, 19100, Note_on_c, 0, 73, 0
2, 19100, Note_on_c, 0, 75, 80
2, 19120, Note_on_c, 0, 75, 0
2, 19120, Note_on_c, 0, 73, 80
2, 19140, Note_on_c, 0, 73, 0
2, 19140, Note_on_c, 0, 71, 80
2, 19170, Note_on_c, 0, 71, 0
2, 19170, Note_on_c, 0, 73, 80
2, 19200, Note_on_c, 0, 73, 0
2, 19200, Note_on_c, 0, 71, 80
2, 19440, Note_on_c, 0, 71, 0
2, 19560, Note_on_c, 0, 78, 80
2, 19600, Note_on_c, 0, 78, 0
2, 19600, Note_on_c, 0, 80, 80
2, 19640, Note_on_c, 0, 80, 0
2, 19640, Note_on_c, 0, 78, 80
2, 19680, Note_on_c, 0, 78, 0
2, 19680, Note_on_c, 0, 81, 80
2, 19720, Note_on_c, 0, 81, 0
2, 19720, Note_on_c, 0, 80, 80
2, 19760, Note_on_c, 0, 80, 0
2, 19760, Note_on_c, 0, 78, 80
2, 19800, Note_on_c, 0, 78, 0
2, 19800, Note_on_c, 0, 76, 80
2, 19840, Note_on_c, 0, 76, 0
2, 19840, Note_on_c, 0, 78, 80
2, 19880, Note_on_c, 0, 78, 0
2, 19880, Note_on_c, 0, 76, 80
2, 19920, Note_on_c, 0, 76, 0
2, 19920, Note_on_c, 0, 80, 80
2, 19960, Note_on_c, 0, 80, 0
2, 19960, Note_on_c, 0, 78, 80
2, 20000, Note_on_c, 0, 78, 0
2, 20000, Note_on_c, 0, 76, 80
2, 20040, Note_on_c, 0, 76, 0
2, 20040, Note_on_c, 0, 75, 80
2, 20080, Note_on_c, 0, 75, 0
2, 20080, Note_on_c, 0, 78, 80
2, 20120, Note_on_c, 0, 78, 0
2, 20120, Note_on_c, 0, 83, 80
2, 20160, Note_on_c, 0, 83, 0
2, 20160, Note_on_c, 0, 80, 80
2, 20200, Note_on_c, 0, 80, 0
2, 20200, Note_on_c, 0, 78, 80
2, 20240, Note_on_c, 0, 78, 0
2, 20240, Note_on_c, 0, 76, 80
2, 20280, Note_on_c, 0, 76, 0
2, 20280, Note_on_c, 0, 75, 80
2, 20320, Note_on_c, 0, 75, 0
2, 20320, Note_on_c, 0, 76, 80
2, 20360, Note_on_c, 0, 76, 0
2, 20360, Note_on_c, 0, 73, 80
2, 20400, Note_on_c, 0, 73, 0
2, 20400, Note_on_c, 0, 71, 80
2, 20490, Note_on_c, 0, 71, 0
2, 20490, Note_on_c, 0, 73, 80
2, 20520, Note_on_c, 0, 73, 0
2, 20520, Note_on_c, 0, 75, 80
2, 20550, Note_on_c, 0, 75, 0
2, 20550, Note_on_c, 0, 73, 80
2, 20580, Note_on_c, 0, 73, 0
2, 20580, Note_on_c, 0, 71, 80
2, 20610, Note_on_c, 0, 71, 0
2, 20610, Note_on_c, 0, 73, 80
2, 20640, Note_on_c, 0, 73, 0
2, 20640, Note_on_c, 0, 71, 80
2, 20880, Note_on_c, 0, 71, 0
2, 21000, Note_on_c, 0, 66, 80
2, 21000, Note_on_c, 0, 69, 80
2, 21060, Note_on_c, 0, 69, 0
2, 21120, Note_on_c, 0, 68, 80
2, 21240, Note_on_c, 0, 66, 0
2, 21240, Note_on_c, 0, 64, 80
2, 21360, Note_on_c, 0, 68, 0
2, 21360, Note_on_c, 0, 66, 80
2, 21480, Note_on_c, 0, 64, 0
2, 21480, Note_on_c, 0, 63, 80
2, 21570, Note_on_c, 0, 66, 0
2, 21570, Note_on_c, 0, 64, 88
2, 21585, Note_on_c, 0, 68, 88
2, 21600, Note_on_c, 0, 63, 0
2, 21600, Note_on_c, 0, 73, 88
2, 21720, Note_on_c, 0, 73, 0
2, 21720, Note_on_c, 0, 68, 0
2, 21720, Note_on_c, 0, 64, 0
2, 21720, Note_on_c, 0, 68, 80
2, 21760, Note_on_c, 0, 68, 0
2, 21760, Note_on_c, 0, 64, 80
2, 21800, Note_on_c, 0, 64, 0
2, 21800, Note_on_c, 0, 61, 80
2, 21840, Note_on_c, 0, 61, 0
2, 21840, Note_on_c, 0, 59, 80
2, 21930, Note_on_c, 0, 59, 0
2, 21930, Note_on_c, 0, 58, 80
2, 21945, Note_on_c, 0, 58, 0
2, 21945, Note_on_c, 0, 59, 80
2, 21960, Note_on_c, 0, 59, 0
2, 21960, Note_on_c, 0, 58, 80
2, 22080, Note_on_c, 0, 58, 0
2, 22080, Note_on_c, 0, 59, 80
2, 22120, Note_on_c, 0, 59, 0
2, 22120, Note_on_c, 0, 63, 80
2, 22160, Note_on_c, 0, 63, 0
2, 22160, Note_on_c, 0, 66, 80
2, 22200, Note_on_c, 0, 66, 0
2, 22200, Note_on_c, 0, 71, 80
2, 22240, Note_on_c, 0, 71, 0
2, 22240, Note_on_c, 0, 66, 80
2, 22280, Note_on_c, 0, 66, 0
2, 22280, Note_on_c, 0, 63, 80
2, 22320, Note_on_c, 0, 63, 0
2, 23040, Note_on_c, 0, 78, 64
2, 23040, Note_on_c, 0, 75, 64
2, 23400, Note_on_c, 0, 75, 0
2, 23400, Note_on_c, 0, 78, 0
2, 23400, Note_on_c, 0, 76, 64
2, 23400, Note_on_c, 0, 73, 64
2, 23520, Note_on_c, 0, 73, 0
2, 23520, Note_on_c, 0, 76, 0
2, 23520, Note_on_c, 0, 75, 64
2, 23520, Note_on_c, 0, 71, 64
2, 23760, Note_on_c, 0, 75, 0
2, 23760, Note_on_c, 0, 73, 64
2, 23880, Note_on_c, 0, 71, 0
2, 23880, Note_on_c, 0, 70, 64
2, 24000, Note_on_c, 0, 70, 0
2, 24000, Note_on_c, 0, 73, 0
2, 24000, Note_on_c, 0, 71, 64
2, 24180, Note_on_c, 0, 71, 0
2, 24180, Note_on_c, 0, 73, 67
2, 24210, Note_on_c, 0, 73, 0
2, 24210, Note_on_c, 0, 75, 68
2, 24240, Note_on_c, 0, 75, 0
2, 24240, Note_on_c, 0, 76, 68
2, 24360, Note_on_c, 0, 76, 0
2, 24360, Note_on_c, 0, 75, 70
2, 24480, Note_on_c, 0, 75, 0
2, 24480, Note_on_c, 0, 73, 72
2, 24510, Note_on_c, 0, 73, 0
2, 24510, Note_on_c, 0, 75, 73
2, 24540, Note_on_c, 0, 75, 0
2, 24540, Note_on_c, 0, 73, 73
2, 24560, Note_on_c, 0, 73, 0
2, 24560, Note_on_c, 0, 75, 73
2, 24580, Note_on_c, 0, 75, 0
2, 24580, Note_on_c, 0, 73, 74
2, 24600, Note_on_c, 0, 73, 0
2, 24600, Note_on_c, 0, 71, 74
2, 24780, Note_on_c, 0, 71, 0
2, 24780, Note_on_c, 0, 73, 77
2, 24810, Note_on_c, 0, 73, 0
2, 24810, Note_on_c, 0, 75, 78
2, 24840, Note_on_c, 0, 75, 0
2, 24840, Note_on_c, 0, 76, 78
2, 24870, Note_on_c, 0, 76, 0
2, 24870, Note_on_c, 0, 78, 79
2, 24900, Note_on_c, 0, 78, 0
2, 24900, Note_on_c, 0, 80, 79
2, 24930, Note_on_c, 0, 80, 0
2, 24930, Note_on_c, 0, 81, 80
2, 24960, Note_on_c, 0, 81, 0
2, 24960, Note_on_c, 0, 83, 80
2, 24960, Note_on_c, 0, 80, 80
2, 25320, Note_on_c, 0, 80, 0
2, 25320, Note_on_c, 0, 83, 0
2, 25320, Note_on_c, 0, 81, 80
2, 25320, Note_on_c, 0, 78, 80
2, 25440, Note_on_c, 0, 78, 0
2, 25440, Note_on_c, 0, 81, 0
2, 25440, Note_on_c, 0, 80, 80
2, 25440, Note_on_c, 0, 76, 80
2, 25680, Note_on_c, 0, 80, 0
2, 25680, Note_on_c, 0, 78, 80
2, 25800, Note_on_c, 0, 76, 0
2, 25800, Note_on_c, 0, 75, 80
2, 25920, Note_on_c, 0, 78, 0
2, 25920, Note_on_c, 0, 76, 80
2, 26040, Note_on_c, 0, 75, 0
2, 26040, Note_on_c, 0, 73, 80
2, 26160, Note_on_c, 0, 76, 0
2, 26160, Note_on_c, 0, 75, 80
2, 26280, Note_on_c, 0, 73, 0
2, 26280, Note_on_c, 0, 72, 80
2, 26400, Note_on_c, 0, 72, 0
2, 26400, Note_on_c, 0, 75, 0
2, 26400, Note_on_c, 0, 73, 80
2, 26580, Note_on_c, 0, 73, 0
2, 26580, Note_on_c, 0, 75, 80
2, 26610, Note_on_c, 0, 75, 0
2, 26610, Note_on_c, 0, 76, 80
2, 26640, Note_on_c, 0, 76, 0
2, 26640, Note_on_c, 0, 78, 80
2, 26688, Note_on_c, 0, 78, 0
2, 26760, Note_on_c, 0, 76, 80
2, 26808, Note_on_c, 0, 76, 0
2, 26880, Note_on_c, 0, 75, 80
2, 26880, Note_on_c, 0, 72, 80
2, 26880, Note_on_c, 0, 68, 80
2, 27000, Note_on_c, 0, 68, 0
2, 27000, Note_on_c, 0, 72, 0
2, 27000, Note_on_c, 0, 75, 0
2, 27000, Note_on_c, 0, 80, 80
2, 27060, Note_on_c, 0, 80, 0
2, 27120, Note_on_c, 0, 80, 80
2, 27180, Note_on_c, 0, 80, 0
2, 27240, Note_on_c, 0, 80, 80
2, 27300, Note_on_c, 0, 80, 0
2, 27360, Note_on_c, 0, 80, 80
2, 27390, Note_on_c, 0, 80, 0
2, 27390, Note_on_c, 0, 81, 80
2, 27420, Note_on_c, 0, 81, 0
2, 27420, Note_on_c, 0, 80, 80
2, 27450, Note_on_c, 0, 80, 0
2, 27450, Note_on_c, 0, 81, 80
2, 27480, Note_on_c, 0, 81, 0
2, 27480, Note_on_c, 0, 80, 80
2, 27500, Note_on_c, 0, 80, 0
2, 27500, Note_on_c, 0, 81, 80
2, 27520, Note_on_c, 0, 81, 0
2, 27520, Note_on_c, 0, 80, 80
2, 27540, Note_on_c, 0, 80, 0
2, 27540, Note_on_c, 0, 79, 80
2, 27570, Note_on_c, 0, 79, 0
2, 27570, Note_on_c, 0, 80, 80
2, 27600, Note_on_c, 0, 80, 0
2, 27600, Note_on_c, 0, 68, 80
2, 27840, Note_on_c, 0, 68, 0
2, 27960, Note_on_c, 0, 80, 80
2, 28080, Note_on_c, 0, 80, 0
2, 28080, Note_on_c, 0, 80, 80
2, 28200, Note_on_c, 0, 80, 0
2, 28200, Note_on_c, 0, 80, 80
2, 28320, Note_on_c, 0, 80, 0
2, 28320, Note_on_c, 0, 80, 80
2, 28350, Note_on_c, 0, 80, 0
2, 28350, Note_on_c, 0, 81, 80
2, 28380, Note_on_c, 0, 81, 0
2, 28380, Note_on_c, 0, 80, 80
2, 28410, Note_on_c, 0, 80, 0
2, 28410, Note_on_c, 0, 81, 80
2, 28440, Note_on_c, 0, 81, 0
2, 28440, Note_on_c, 0, 80, 80
2, 28460, Note_on_c, 0, 80, 0
2, 28465, Note_on_c, 0, 81, 80
2, 28475, Note_on_c, 0, 80, 80
2, 28485, Note_on_c, 0, 81, 0
2, 28495, Note_on_c, 0, 80, 0
2, 28500, Note_on_c, 0, 79, 80
2, 28530, Note_on_c, 0, 79, 0
2, 28530, Note_on_c, 0, 80, 80
2, 28560, Note_on_c, 0, 80, 0
2, 28560, Note_on_c, 0, 68, 80
2, 28800, Note_on_c, 0, 68, 0
2, 28920, Note_on_c, 0, 86, 80
2, 28980, Note_on_c, 0, 86, 0
2, 29040, Note_on_c, 0, 86, 80
2, 29100, Note_on_c, 0, 86, 0
2, 29160, Note_on_c, 0, 86, 80
2, 29220, Note_on_c, 0, 86, 0
2, 29280, Note_on_c, 0, 86, 80
2, 29310, Note_on_c, 0, 86, 0
2, 29310, Note_on_c, 0, 87, 80
2, 29340, Note_on_c, 0, 87, 0
2, 29340, Note_on_c, 0, 86, 80
2, 29370, Note_on_c, 0, 86, 0
2, 29370, Note_on_c, 0, 87, 80
2, 29400, Note_on_c, 0, 87, 0
2, 29400, Note_on_c, 0, 86, 80
2, 29420, Note_on_c, 0, 86, 0
2, 29420, Note_on_c, 0, 87, 80
2, 29440, Note_on_c, 0, 87, 0
2, 29440, Note_on_c, 0, 86, 80
2, 29460, Note_on_c, 0, 86, 0
2, 29460, Note_on_c, 0, 85, 80
2, 29490, Note_on_c, 0, 85, 0
2, 29490, Note_on_c, 0, 86, 80
2, 29520, Note_on_c, 0, 86, 0
2, 29520, Note_on_c, 0, 77, 80
2, 29760, Note_on_c, 0, 77, 0
2, 29800, Note_on_c, 0, 85, 80
2, 29840, Note_on_c, 0, 85, 0
2, 29840, Note_on_c, 0, 83, 80
2, 29880, Note_on_c, 0, 83, 0
2, 29880, Note_on_c, 0, 81, 80
2, 29920, Note_on_c, 0, 81, 0
2, 29920, Note_on_c, 0, 80, 80
2, 29960, Note_on_c, 0, 80, 0
2, 29960, Note_on_c, 0, 78, 80
2, 30000, Note_on_c, 0, 78, 0
2, 30040, Note_on_c, 0, 85, 80
2, 30080, Note_on_c, 0, 85, 0
2, 30080, Note_on_c, 0, 83, 80
2, 30120, Note_on_c, 0, 83, 0
2, 30120, Note_on_c, 0, 81, 80
2, 30160, Note_on_c, 0, 81, 0
2, 30160, Note_on_c, 0, 80, 80
2, 30200, Note_on_c, 0, 80, 0
2, 30200, Note_on_c, 0, 78, 80
2, 30240, Note_on_c, 0, 78, 0
2, 30280, Note_on_c, 0, 88, 80
2, 30320, Note_on_c, 0, 88, 0
2, 30320, Note_on_c, 0, 87, 80
2, 30360, Note_on_c, 0, 87, 0
2, 30360, Note_on_c, 0, 85, 80
2, 30400, Note_on_c, 0, 85, 0
2, 30400, Note_on_c, 0, 83, 80
2, 30440, Note_on_c, 0, 83, 0
2, 30440, Note_on_c, 0, 81, 80
2, 30480, Note_on_c, 0, 81, 0
2, 30480, Note_on_c, 0, 80, 80
2, 30600, Note_on_c, 0, 80, 0
2, 30600, Note_on_c, 0, 79, 80
2, 30720, Note_on_c, 0, 79, 0
2, 30720, Note_on_c, 0, 79, 80
2, 30960, Note_on_c, 0, 79, 0
2, 30960, Note_on_c, 0, 80, 80
2, 31200, Note_on_c, 0, 80, 0
2, 31720, Note_on_c, 0, 73, 80
2, 31760, Note_on_c, 0, 73, 0
2, 31760, Note_on_c, 0, 71, 80
2, 31800, Note_on_c, 0, 71, 0
2, 31800, Note_on_c, 0, 69, 80
2, 31840, Note_on_c, 0, 69, 0
2, 31840, Note_on_c, 0, 68, 80
2, 31880, Note_on_c, 0, 68, 0
2, 31880, Note_on_c, 0, 66, 80
2, 31920, Note_on_c, 0, 66, 0
2, 31920, Note_on_c, 0, 64, 80
2, 31960, Note_on_c, 0, 64, 0
2, 31960, Note_on_c, 0, 63, 80
2, 32000, Note_on_c, 0, 63, 0
2, 32000, Note_on_c, 0, 61, 80
2, 32040, Note_on_c, 0, 61, 0
2, 32040, Note_on_c, 0, 60, 80
2, 32080, Note_on_c, 0, 60, 0
2, 32080, Note_on_c, 0, 63, 80
2, 32120, Note_on_c, 0, 63, 0
2, 32120, Note_on_c, 0, 68, 80
2, 32160, Note_on_c, 0, 68, 0
2, 32160, Note_on_c, 0, 61, 80
2, 32200, Note_on_c, 0, 61, 0
2, 32200, Note_on_c, 0, 64, 80
2, 32240, Note_on_c, 0, 64, 0
2, 32240, Note_on_c, 0, 68, 80
2, 32280, Note_on_c, 0, 68, 0
2, 32280, Note_on_c, 0, 63, 80
2, 32320, Note_on_c, 0, 63, 0
2, 32320, Note_on_c, 0, 66, 80
2, 32360, Note_on_c, 0, 66, 0
2, 32360, Note_on_c, 0, 68, 80
2, 32400, Note_on_c, 0, 68, 0
2, 32400, Note_on_c, 0, 64, 80
2, 32440, Note_on_c, 0, 64, 0
2, 32440, Note_on_c, 0, 66, 80
2, 32480, Note_on_c, 0, 66, 0
2, 32480, Note_on_c, 0, 68, 80
2, 32520, Note_on_c, 0, 68, 0
2, 32520, Note_on_c, 0, 66, 80
2, 32560, Note_on_c, 0, 66, 0
2, 32560, Note_on_c, 0, 68, 80
2, 32600, Note_on_c, 0, 68, 0
2, 32600, Note_on_c, 0, 69, 80
2, 32640, Note_on_c, 0, 69, 0
2, 32640, Note_on_c, 0, 68, 80
2, 32680, Note_on_c, 0, 68, 0
2, 32680, Note_on_c, 0, 73, 80
2, 32720, Note_on_c, 0, 73, 0
2, 32720, Note_on_c, 0, 71, 80
2, 32760, Note_on_c, 0, 71, 0
2, 32760, Note_on_c, 0, 69, 80
2, 32800, Note_on_c, 0, 69, 0
2, 32800, Note_on_c, 0, 68, 80
2, 32840, Note_on_c, 0, 68, 0
2, 32840, Note_on_c, 0, 66, 80
2, 32880, Note_on_c, 0, 66, 0
2, 32880, Note_on_c, 0, 64, 80
2, 32920, Note_on_c, 0, 64, 0
2, 32920, Note_on_c, 0, 63, 80
2, 32960, Note_on_c, 0, 63, 0
2, 32960, Note_on_c, 0, 61, 80
2, 33000, Note_on_c, 0, 61, 0
2, 33000, Note_on_c, 0, 60, 80
2, 33040, Note_on_c, 0, 60, 0
2, 33040, Note_on_c, 0, 63, 80
2, 33080, Note_on_c, 0, 63, 0
2, 33080, Note_on_c, 0, 68, 80
2, 33120, Note_on_c, 0, 68, 0
2, 33120, Note_on_c, 0, 61, 80
2, 33160, Note_on_c, 0, 61, 0
2, 33160, Note_on_c, 0, 64, 80
2, 33200, Note_on_c, 0, 64, 0
2, 33200, Note_on_c, 0, 68, 80
2, 33240, Note_on_c, 0, 68, 0
2, 33240, Note_on_c, 0, 63, 80
2, 33280, Note_on_c, 0, 63, 0
2, 33280, Note_on_c, 0, 66, 80
2, 33320, Note_on_c, 0, 66, 0
2, 33320, Note_on_c, 0, 68, 80
2, 33360, Note_on_c, 0, 68, 0
2, 33360, Note_on_c, 0, 64, 80
2, 33400, Note_on_c, 0, 64, 0
2, 33400, Note_on_c, 0, 66, 80
2, 33440, Note_on_c, 0, 66, 0
2, 33440, Note_on_c, 0, 68, 80
2, 33480, Note_on_c, 0, 68, 0
2, 33480, Note_on_c, 0, 66, 80
2, 33520, Note_on_c, 0, 66, 0
2, 33520, Note_on_c, 0, 68, 80
2, 33560, Note_on_c, 0, 68, 0
2, 33560, Note_on_c, 0, 69, 80
2, 33600, Note_on_c, 0, 69, 0
2, 33600, Note_on_c, 0, 68, 80
2, 33640, Note_on_c, 0, 68, 0
2, 33640, Note_on_c, 0, 73, 80
2, 33680, Note_on_c, 0, 73, 0
2, 33680, Note_on_c, 0, 71, 80
2, 33720, Note_on_c, 0, 71, 0
2, 33720, Note_on_c, 0, 69, 80
2, 33760, Note_on_c, 0, 69, 0
2, 33760, Note_on_c, 0, 68, 80
2, 33800, Note_on_c, 0, 68, 0
2, 33800, Note_on_c, 0, 66, 80
2, 33840, Note_on_c, 0, 66, 0
2, 33840, Note_on_c, 0, 64, 80
2, 33880, Note_on_c, 0, 64, 0
2, 33880, Note_on_c, 0, 63, 80
2, 33920, Note_on_c, 0, 63, 0
2, 33920, Note_on_c, 0, 61, 80
2, 33960, Note_on_c, 0, 61, 0
2, 33960, Note_on_c, 0, 60, 80
2, 34000, Note_on_c, 0, 60, 0
2, 34000, Note_on_c, 0, 63, 80
2, 34040, Note_on_c, 0, 63, 0
2, 34040, Note_on_c, 0, 68, 80
2, 34080, Note_on_c, 0, 68, 0
2, 34080, Note_on_c, 0, 61, 80
2, 34120, Note_on_c, 0, 61, 0
2, 34120, Note_on_c, 0, 64, 80
2, 34160, Note_on_c, 0, 64, 0
2, 34160, Note_on_c, 0, 68, 80
2, 34200, Note_on_c, 0, 68, 0
2, 34200, Note_on_c, 0, 61, 80
2, 34240, Note_on_c, 0, 61, 0
2, 34240, Note_on_c, 0, 64, 80
2, 34280, Note_on_c, 0, 64, 0
2, 34280, Note_on_c, 0, 68, 80
2, 34320, Note_on_c, 0, 68, 0
2, 34320, Note_on_c, 0, 59, 80
2, 34360, Note_on_c, 0, 59, 0
2, 34360, Note_on_c, 0, 62, 80
2, 34400, Note_on_c, 0, 62, 0
2, 34400, Note_on_c, 0, 68, 80
2, 34440, Note_on_c, 0, 68, 0
2, 34440, Note_on_c, 0, 59, 80
2, 34480, Note_on_c, 0, 59, 0
2, 34480, Note_on_c, 0, 62, 80
2, 34520, Note_on_c, 0, 62, 0
2, 34520, Note_on_c, 0, 68, 80
2, 34560, Note_on_c, 0, 68, 0
2, 34560, Note_on_c, 0, 61, 80
2, 34600, Note_on_c, 0, 61, 0
2, 34600, Note_on_c, 0, 64, 80
2, 34640, Note_on_c, 0, 64, 0
2, 34640, Note_on_c, 0, 69, 80
2, 34680, Note_on_c, 0, 69, 0
2, 34680, Note_on_c, 0, 61, 80
2, 34720, Note_on_c, 0, 61, 0
2, 34720, Note_on_c, 0, 64, 80
2, 34760, Note_on_c, 0, 64, 0
2, 34760, Note_on_c, 0, 69, 80
2, 34800, Note_on_c, 0, 69, 0
2, 34800, Note_on_c, 0, 64, 80
2, 34840, Note_on_c, 0, 64, 0
2, 34840, Note_on_c, 0, 71, 80
2, 34880, Note_on_c, 0, 71, 0
2, 34880, Note_on_c, 0, 74, 80
2, 34920, Note_on_c, 0, 74, 0
2, 34920, Note_on_c, 0, 64, 80
2, 34960, Note_on_c, 0, 64, 0
2, 34960, Note_on_c, 0, 71, 80
2, 35000, Note_on_c, 0, 71, 0
2, 35000, Note_on_c, 0, 74, 80
2, 35040, Note_on_c, 0, 74, 0
2, 35040, Note_on_c, 0, 64, 80
2, 35080, Note_on_c, 0, 64, 0
2, 35080, Note_on_c, 0, 69, 80
2, 35120, Note_on_c, 0, 69, 0
2, 35120, Note_on_c, 0, 73, 80
2, 35160, Note_on_c, 0, 73, 0
2, 35160, Note_on_c, 0, 64, 80
2, 35200, Note_on_c, 0, 64, 0
2, 35200, Note_on_c, 0, 69, 80
2, 35240, Note_on_c, 0, 69, 0
2, 35240, Note_on_c, 0, 73, 80
2, 35280, Note_on_c, 0, 73, 0
2, 35280, Note_on_c, 0, 61, 80
2, 35320, Note_on_c, 0, 61, 0
2, 35320, Note_on_c, 0, 68, 80
2, 35360, Note_on_c, 0, 68, 0
2, 35360, Note_on_c, 0, 71, 80
2, 35400, Note_on_c, 0, 71, 0
2, 35400, Note_on_c, 0, 61, 80
2, 35440, Note_on_c, 0, 61, 0
2, 35440, Note_on_c, 0, 68, 80
2, 35480, Note_on_c, 0, 68, 0
2, 35480, Note_on_c, 0, 71, 80
2, 35520, Note_on_c, 0, 71, 0
2, 35520, Note_on_c, 0, 61, 80
2, 35560, Note_on_c, 0, 61, 0
2, 35560, Note_on_c, 0, 66, 80
2, 35600, Note_on_c, 0, 66, 0
2, 35600, Note_on_c, 0, 70, 80
2, 35640, Note_on_c, 0, 70, 0
2, 35640, Note_on_c, 0, 61, 80
2, 35680, Note_on_c, 0, 61, 0
2, 35680, Note_on_c, 0, 67, 80
2, 35720, Note_on_c, 0, 67, 0
2, 35720, Note_on_c, 0, 70, 80
2, 35760, Note_on_c, 0, 70, 0
2, 35760, Note_on_c, 0, 61, 80
2, 35800, Note_on_c, 0, 61, 0
2, 35800, Note_on_c, 0, 66, 80
2, 35840, Note_on_c, 0, 66, 0
2, 35840, Note_on_c, 0, 70, 80
2, 35880, Note_on_c, 0, 70, 0
2, 35880, Note_on_c, 0, 61, 80
2, 35920, Note_on_c, 0, 61, 0
2, 35920, Note_on_c, 0, 64, 80
2, 35960, Note_on_c, 0, 64, 0
2, 35960, Note_on_c, 0, 70, 80
2, 36000, Note_on_c, 0, 70, 0
2, 36000, Note_on_c, 0, 59, 80
2, 36040, Note_on_c, 0, 59, 0
2, 36040, Note_on_c, 0, 63, 80
2, 36080, Note_on_c, 0, 63, 0
2, 36080, Note_on_c, 0, 69, 80
2, 36120, Note_on_c, 0, 69, 0
2, 36120, Note_on_c, 0, 60, 80
2, 36160, Note_on_c, 0, 60, 0
2, 36160, Note_on_c, 0, 63, 80
2, 36200, Note_on_c, 0, 63, 0
2, 36200, Note_on_c, 0, 69, 80
2, 36240, Note_on_c, 0, 69, 0
2, 36240, Note_on_c, 0, 59, 80
2, 36280, Note_on_c, 0, 59, 0
2, 36280, Note_on_c, 0, 63, 80
2, 36320, Note_on_c, 0, 63, 0
2, 36320, Note_on_c, 0, 69, 80
2, 36360, Note_on_c, 0, 69, 0
2, 36360, Note_on_c, 0, 57, 80
2, 36400, Note_on_c, 0, 57, 0
2, 36400, Note_on_c, 0, 63, 80
2, 36440, Note_on_c, 0, 63, 0
2, 36440, Note_on_c, 0, 69, 80
2, 36480, Note_on_c, 0, 69, 0
2, 36480, Note_on_c, 0, 59, 80
2, 36520, Note_on_c, 0, 59, 0
2, 36520, Note_on_c, 0, 64, 80
2, 36560, Note_on_c, 0, 64, 0
2, 36560, Note_on_c, 0, 68, 81
2, 36600, Note_on_c, 0, 68, 0
2, 36600, Note_on_c, 0, 59, 81
2, 36640, Note_on_c, 0, 59, 0
2, 36640, Note_on_c, 0, 64, 81
2, 36680, Note_on_c, 0, 64, 0
2, 36680, Note_on_c, 0, 68, 82
2, 36720, Note_on_c, 0, 68, 0
2, 36720, Note_on_c, 0, 59, 82
2, 36760, Note_on_c, 0, 59, 0
2, 36760, Note_on_c, 0, 64, 82
2, 36800, Note_on_c, 0, 64, 0
2, 36800, Note_on_c, 0, 68, 83
2, 36840, Note_on_c, 0, 68, 0
2, 36840, Note_on_c, 0, 59, 83
2, 36880, Note_on_c, 0, 59, 0
2, 36880, Note_on_c, 0, 64, 83
2, 36920, Note_on_c, 0, 64, 0
2, 36920, Note_on_c, 0, 68, 84
2, 36960, Note_on_c, 0, 68, 0
2, 36960, Note_on_c, 0, 57, 84
2, 37000, Note_on_c, 0, 57, 0
2, 37000, Note_on_c, 0, 64, 84
2, 37040, Note_on_c, 0, 64, 0
2, 37040, Note_on_c, 0, 69, 85
2, 37080, Note_on_c, 0, 69, 0
2, 37080, Note_on_c, 0, 57, 85
2, 37120, Note_on_c, 0, 57, 0
2, 37120, Note_on_c, 0, 64, 85
2, 37160, Note_on_c, 0, 64, 0
2, 37160, Note_on_c, 0, 69, 86
2, 37200, Note_on_c, 0, 69, 0
2, 37200, Note_on_c, 0, 61, 86
2, 37240, Note_on_c, 0, 61, 0
2, 37240, Note_on_c, 0, 64, 86
2, 37280, Note_on_c, 0, 64, 0
2, 37280, Note_on_c, 0, 70, 87
2, 37320, Note_on_c, 0, 70, 0
2, 37320, Note_on_c, 0, 61, 87
2, 37360, Note_on_c, 0, 61, 0
2, 37360, Note_on_c, 0, 64, 87
2, 37400, Note_on_c, 0, 64, 0
2, 37400, Note_on_c, 0, 70, 88
2, 37440, Note_on_c, 0, 70, 0
2, 37440, Note_on_c, 0, 59, 88
2, 37480, Note_on_c, 0, 59, 0
2, 37480, Note_on_c, 0, 63, 88
2, 37520, Note_on_c, 0, 63, 0
2, 37520, Note_on_c, 0, 66, 88
2, 37560, Note_on_c, 0, 66, 0
2, 37560, Note_on_c, 0, 71, 88
2, 37600, Note_on_c, 0, 71, 0
2, 37600, Note_on_c, 0, 66, 88
2, 37640, Note_on_c, 0, 66, 0
2, 37640, Note_on_c, 0, 63, 88
2, 37680, Note_on_c, 0, 63, 0
2, 37680, Note_on_c, 0, 59, 88
2, 37720, Note_on_c, 0, 59, 0
2, 37720, Note_on_c, 0, 63, 88
2, 37760, Note_on_c, 0, 63, 0
2, 37760, Note_on_c, 0, 66, 88
2, 37800, Note_on_c, 0, 66, 0
2, 37800, Note_on_c, 0, 61, 88
2, 37840, Note_on_c, 0, 61, 0
2, 37840, Note_on_c, 0, 64, 88
2, 37880, Note_on_c, 0, 64, 0
2, 37880, Note_on_c, 0, 70, 88
2, 37920, Note_on_c, 0, 70, 0
2, 37920, Note_on_c, 0, 59, 88
2, 37960, Note_on_c, 0, 59, 0
2, 37960, Note_on_c, 0, 63, 88
2, 38000, Note_on_c, 0, 63, 0
2, 38000, Note_on_c, 0, 66, 88
2, 38040, Note_on_c, 0, 66, 0
2, 38040, Note_on_c, 0, 71, 88
2, 38080, Note_on_c, 0, 71, 0
2, 38080, Note_on_c, 0, 66, 88
2, 38120, Note_on_c, 0, 66, 0
2, 38120, Note_on_c, 0, 63, 88
2, 38160, Note_on_c, 0, 63, 0
2, 38160, Note_on_c, 0, 59, 88
2, 38200, Note_on_c, 0, 59, 0
2, 38200, Note_on_c, 0, 63, 88
2, 38240, Note_on_c, 0, 63, 0
2, 38240, Note_on_c, 0, 66, 88
2, 38280, Note_on_c, 0, 66, 0
2, 38280, Note_on_c, 0, 61, 88
2, 38320, Note_on_c, 0, 61, 0
2, 38320, Note_on_c, 0, 64, 88
2, 38360, Note_on_c, 0, 64, 0
2, 38360, Note_on_c, 0, 70, 88
2, 38400, Note_on_c, 0, 70, 0
2, 38400, Note_on_c, 0, 59, 88
2, 38440, Note_on_c, 0, 59, 0
2, 38440, Note_on_c, 0, 63, 88
2, 38480, Note_on_c, 0, 63, 0
2, 38480, Note_on_c, 0, 66, 88
2, 38520, Note_on_c, 0, 66, 0
2, 38520, Note_on_c, 0, 71, 88
2, 38560, Note_on_c, 0, 71, 0
2, 38560, Note_on_c, 0, 66, 88
2, 38600, Note_on_c, 0, 66, 0
2, 38600, Note_on_c, 0, 63, 88
2, 38640, Note_on_c, 0, 63, 0
2, 39160, Note_on_c, 0, 75, 64
2, 39200, Note_on_c, 0, 75, 0
2, 39200, Note_on_c, 0, 76, 64
2, 39240, Note_on_c, 0, 76, 0
2, 39240, Note_on_c, 0, 78, 64
2, 39280, Note_on_c, 0, 78, 0
2, 39280, Note_on_c, 0, 80, 64
2, 39320, Note_on_c, 0, 80, 0
2, 39320, Note_on_c, 0, 81, 64
2, 39360, Note_on_c, 0, 81, 0
2, 39360, Note_on_c, 0, 83, 64
2, 39360, Note_on_c, 0, 80, 64
2, 39720, Note_on_c, 0, 80, 0
2, 39720, Note_on_c, 0, 83, 0
2, 39720, Note_on_c, 0, 81, 64
2, 39720, Note_on_c, 0, 78, 64
2, 39840, Note_on_c, 0, 78, 0
2, 39840, Note_on_c, 0, 81, 0
2, 39840, Note_on_c, 0, 80, 64
2, 39840, Note_on_c, 0, 76, 64
2, 40080, Note_on_c, 0, 80, 0
2, 40080, Note_on_c, 0, 78, 64
2, 40200, Note_on_c, 0, 76, 0
2, 40200, Note_on_c, 0, 75, 64
2, 40320, Note_on_c, 0, 75, 0
2, 40320, Note_on_c, 0, 78, 0
2, 40320, Note_on_c, 0, 76, 64
2, 40500, Note_on_c, 0, 76, 0
2, 40500, Note_on_c, 0, 78, 64
2, 40530, Note_on_c, 0, 78, 0
2, 40530, Note_on_c, 0, 80, 64
2, 40560, Note_on_c, 0, 80, 0
2, 40560, Note_on_c, 0, 81, 64
2, 40680, Note_on_c, 0, 81, 0
2, 40680, Note_on_c, 0, 80, 64
2, 40800, Note_on_c, 0, 80, 0
2, 40800, Note_on_c, 0, 78, 64
2, 40830, Note_on_c, 0, 78, 0
2, 40830, Note_on_c, 0, 80, 64
2, 40860, Note_on_c, 0, 80, 0
2, 40860, Note_on_c, 0, 78, 64
2, 40880, Note_on_c, 0, 78, 0
2, 40880, Note_on_c, 0, 80, 64
2, 40900, Note_on_c, 0, 80, 0
2, 40900, Note_on_c, 0, 78, 64
2, 40920, Note_on_c, 0, 78, 0
2, 40920, Note_on_c, 0, 76, 64
2, 40980, Note_on_c, 0, 76, 0
2, 41280, Note_on_c, 0, 68, 64
2, 41280, Note_on_c, 0, 71, 64
2, 41640, Note_on_c, 0, 71, 0
2, 41640, Note_on_c, 0, 68, 0
2, 41640, Note_on_c, 0, 67, 64
2, 41640, Note_on_c, 0, 70, 64
2, 41760, Note_on_c, 0, 70, 0
2, 41760, Note_on_c, 0, 67, 0
2, 41760, Note_on_c, 0, 66, 64
2, 41760, Note_on_c, 0, 69, 64
2, 41880, Note_on_c, 0, 69, 0
2, 41880, Note_on_c, 0, 66, 0
2, 41880, Note_on_c, 0, 65, 64
2, 41880, Note_on_c, 0, 68, 64
2, 42000, Note_on_c, 0, 68, 0
2, 42000, Note_on_c, 0, 65, 0
2, 42000, Note_on_c, 0, 64, 64
2, 42000, Note_on_c, 0, 67, 64
2, 42120, Note_on_c, 0, 67, 0
2, 42120, Note_on_c, 0, 64, 0
2, 42120, Note_on_c, 0, 63, 64
2, 42120, Note_on_c, 0, 66, 64
2, 42240, Note_on_c, 0, 66, 0
2, 42240, Note_on_c, 0, 63, 0
2, 42240, Note_on_c, 0, 64, 64
2, 42420, Note_on_c, 0, 64, 0
2, 42420, Note_on_c, 0, 66, 64
2, 42450, Note_on_c, 0, 66, 0
2, 42450, Note_on_c, 0, 68, 64
2, 42480, Note_on_c, 0, 68, 0
2, 42480, Note_on_c, 0, 69, 64
2, 42600, Note_on_c, 0, 69, 0
2, 42600, Note_on_c, 0, 68, 64
2, 42720, Note_on_c, 0, 68, 0
2, 42720, Note_on_c, 0, 64, 64
2, 42720, Note_on_c, 0, 69, 64
2, 42720, Note_on_c, 0, 73, 64
2, 42768, Note_on_c, 0, 73, 0
2, 42768, Note_on_c, 0, 69, 0
2, 42768, Note_on_c, 0, 64, 0
2, 42840, Note_on_c, 0, 64, 64
2, 42840, Note_on_c, 0, 68, 64
2, 42840, Note_on_c, 0, 71, 64
2, 42888, Note_on_c, 0, 71, 0
2, 42888, Note_on_c, 0, 68, 0
2, 42888, Note_on_c, 0, 64, 0
2, 43140, Note_on_c, 0, 64, 80
2, 43200, Note_on_c, 0, 64, 0
2, 43200, Note_on_c, 0, 76, 80
2, 43480, Note_on_c, 0, 76, 0
2, 43480, Note_on_c, 0, 75, 80
2, 43520, Note_on_c, 0, 75, 0
2, 43520, Note_on_c, 0, 73, 80
2, 43560, Note_on_c, 0, 73, 0
2, 43560, Note_on_c, 0, 71, 80
2, 43600, Note_on_c, 0, 71, 0
2, 43600, Note_on_c, 0, 69, 80
2, 43640, Note_on_c, 0, 69, 0
2, 43640, Note_on_c, 0, 68, 80
2, 43680, Note_on_c, 0, 68, 0
2, 43680, Note_on_c, 0, 66, 80
2, 43800, Note_on_c, 0, 66, 0
2, 43960, Note_on_c, 0, 85, 80
2, 44000, Note_on_c, 0, 85, 0
2, 44000, Note_on_c, 0, 83, 80
2, 44040, Note_on_c, 0, 83, 0
2, 44040, Note_on_c, 0, 81, 80
2, 44080, Note_on_c, 0, 81, 0
2, 44080, Note_on_c, 0, 80, 80
2, 44120, Note_on_c, 0, 80, 0
2, 44120, Note_on_c, 0, 78, 80
2, 44160, Note_on_c, 0, 78, 0
2, 44160, Note_on_c, 0, 76, 80
2, 44200, Note_on_c, 0, 76, 0
2, 44200, Note_on_c, 0, 75, 80
2, 44240, Note_on_c, 0, 75, 0
2, 44240, Note_on_c, 0, 73, 80
2, 44280, Note_on_c, 0, 73, 0
2, 44280, Note_on_c, 0, 71, 80
2, 44320, Note_on_c, 0, 71, 0
2, 44320, Note_on_c, 0, 69, 80
2, 44360, Note_on_c, 0, 69, 0
2, 44360, Note_on_c, 0, 68, 80
2, 44400, Note_on_c, 0, 68, 0
2, 44400, Note_on_c, 0, 66, 80
2, 44440, Note_on_c, 0, 66, 0
2, 44440, Note_on_c, 0, 64, 80
2, 44480, Note_on_c, 0, 64, 0
2, 44480, Note_on_c, 0, 63, 80
2, 44520, Note_on_c, 0, 63, 0
2, 44520, Note_on_c, 0, 61, 80
2, 44560, Note_on_c, 0, 61, 0
2, 44560, Note_on_c, 0, 59, 80
2, 44600, Note_on_c, 0, 59, 0
2, 44600, Note_on_c, 0, 57, 80
2, 44620, Note_on_c, 0, 57, 0
2, 44620, Note_on_c, 0, 59, 80
2, 44640, Note_on_c, 0, 59, 0
2, 44640, Note_on_c, 0, 57, 80
2, 44670, Note_on_c, 0, 57, 0
2, 44670, Note_on_c, 0, 59, 80
2, 44700, Note_on_c, 0, 59, 0
2, 44700, Note_on_c, 0, 57, 80
2, 44730, Note_on_c, 0, 57, 0
2, 44730, Note_on_c, 0, 59, 80
2, 44760, Note_on_c, 0, 59, 0
2, 44760, Note_on_c, 0, 57, 80
2, 44780, Note_on_c, 0, 57, 0
2, 44780, Note_on_c, 0, 59, 80
2, 44800, Note_on_c, 0, 59, 0
2, 44800, Note_on_c, 0, 57, 80
2, 44820, Note_on_c, 0, 57, 0
2, 44820, Note_on_c, 0, 56, 80
2, 44850, Note_on_c, 0, 56, 0
2, 44850, Note_on_c, 0, 57, 80
2, 44880, Note_on_c, 0, 57, 0
2, 44880, Note_on_c, 0, 56, 80
2, 45000, Note_on_c, 0, 56, 0
2, 45120, Note_on_c, 0, 76, 80
2, 45400, Note_on_c, 0, 76, 0
2, 45400, Note_on_c, 0, 75, 80
2, 45440, Note_on_c, 0, 75, 0
2, 45440, Note_on_c, 0, 73, 80
2, 45480, Note_on_c, 0, 73, 0
2, 45480, Note_on_c, 0, 71, 80
2, 45520, Note_on_c, 0, 71, 0
2, 45520, Note_on_c, 0, 69, 80
2, 45560, Note_on_c, 0, 69, 0
2, 45560, Note_on_c, 0, 68, 80
2, 45600, Note_on_c, 0, 68, 0
2, 45600, Note_on_c, 0, 66, 80
2, 45720, Note_on_c, 0, 66, 0
2, 45880, Note_on_c, 0, 88, 80
2, 45920, Note_on_c, 0, 88, 0
2, 45920, Note_on_c, 0, 87, 80
2, 45960, Note_on_c, 0, 87, 0
2, 45960, Note_on_c, 0, 85, 80
2, 46000, Note_on_c, 0, 85, 0
2, 46000, Note_on_c, 0, 83, 80
2, 46040, Note_on_c, 0, 83, 0
2, 46040, Note_on_c, 0, 81, 80
2, 46080, Note_on_c, 0, 81, 0
2, 46080, Note_on_c, 0, 80, 80
2, 46120, Note_on_c, 0, 80, 0
2, 46120, Note_on_c, 0, 78, 80
2, 46160, Note_on_c, 0, 78, 0
2, 46160, Note_on_c, 0, 76, 80
2, 46200, Note_on_c, 0, 76, 0
2, 46200, Note_on_c, 0, 75, 80
2, 46240, Note_on_c, 0, 75, 0
2, 46240, Note_on_c, 0, 73, 80
2, 46280, Note_on_c, 0, 73, 0
2, 46280, Note_on_c, 0, 71, 80
2, 46320, Note_on_c, 0, 71, 0
2, 46320, Note_on_c, 0, 69, 80
2, 46360, Note_on_c, 0, 69, 0
2, 46360, Note_on_c, 0, 68, 80
2, 46400, Note_on_c, 0, 68, 0
2, 46400, Note_on_c, 0, 66, 80
2, 46440, Note_on_c, 0, 66, 0
2, 46440, Note_on_c, 0, 64, 80
2, 46480, Note_on_c, 0, 64, 0
2, 46480, Note_on_c, 0, 63, 80
2, 46520, Note_on_c, 0, 63, 0
2, 46520, Note_on_c, 0, 69, 80
2, 46560, Note_on_c, 0, 69, 0
2, 46560, Note_on_c, 0, 68, 80
2, 46600, Note_on_c, 0, 68, 0
2, 46600, Note_on_c, 0, 66, 80
2, 46640, Note_on_c, 0, 66, 0
2, 46640, Note_on_c, 0, 64, 80
2, 46680, Note_on_c, 0, 64, 0
2, 46680, Note_on_c, 0, 64, 80
2, 46800, Note_on_c, 0, 64, 0
2, 47040, Note_on_c, 0, 73, 64
2, 47250, Note_on_c, 0, 73, 0
2, 47250, Note_on_c, 0, 85, 64
2, 47280, Note_on_c, 0, 85, 0
2, 47280, Note_on_c, 0, 86, 64
2, 47310, Note_on_c, 0, 86, 0
2, 47310, Note_on_c, 0, 85, 64
2, 47340, Note_on_c, 0, 85, 0
2, 47340, Note_on_c, 0, 84, 64
2, 47370, Note_on_c, 0, 84, 0
2, 47370, Note_on_c, 0, 85, 64
2, 47400, Note_on_c, 0, 85, 0
2, 47400, Note_on_c, 0, 86, 64
2, 47490, Note_on_c, 0, 86, 0
2, 47490, Note_on_c, 0, 85, 64
2, 47520, Note_on_c, 0, 85, 0
2, 47520, Note_on_c, 0, 83, 64
2, 47730, Note_on_c, 0, 83, 0
2, 47730, Note_on_c, 0, 81, 64
2, 47760, Note_on_c, 0, 81, 0
2, 47760, Note_on_c, 0, 83, 64
2, 47790, Note_on_c, 0, 83, 0
2, 47790, Note_on_c, 0, 81, 64
2, 47820, Note_on_c, 0, 81, 0
2, 47820, Note_on_c, 0, 80, 64
2, 47850, Note_on_c, 0, 80, 0
2, 47850, Note_on_c, 0, 81, 64
2, 47880, Note_on_c, 0, 81, 0
2, 47880, Note_on_c, 0, 85, 64
2, 47970, Note_on_c, 0, 85, 0
2, 47970, Note_on_c, 0, 78, 64
2, 48000, Note_on_c, 0, 78, 0
2, 48000, Note_on_c, 0, 78, 64
2, 48000, Note_on_c, 0, 80, 64
2, 48240, Note_on_c, 0, 78, 0
2, 48240, Note_on_c, 0, 77, 64
2, 48360, Note_on_c, 0, 80, 0
2, 48360, Note_on_c, 0, 81, 64
2, 48450, Note_on_c, 0, 81, 0
2, 48450, Note_on_c, 0, 83, 64
2, 48480, Note_on_c, 0, 83, 0
2, 48480, Note_on_c, 0, 77, 0
2, 48480, Note_on_c, 0, 81, 64
2, 48480, Note_on_c, 0, 78, 64
2, 48520, Note_on_c, 0, 81, 0
2, 48520, Note_on_c, 0, 80, 64
2, 48560, Note_on_c, 0, 80, 0
2, 48560, Note_on_c, 0, 78, 64
2, 48640, Note_on_c, 0, 78, 0
2, 48640, Note_on_c, 0, 66, 80
2, 48680, Note_on_c, 0, 66, 0
2, 48680, Note_on_c, 0, 68, 80
2, 48720, Note_on_c, 0, 68, 0
2, 48720, Note_on_c, 0, 78, 0
2, 48720, Note_on_c, 0, 69, 80
2, 48760, Note_on_c, 0, 69, 0
2, 48760, Note_on_c, 0, 68, 80
2, 48800, Note_on_c, 0, 68, 0
2, 48800, Note_on_c, 0, 66, 80
2, 48840, Note_on_c, 0, 66, 0
2, 48840, Note_on_c, 0, 64, 80
2, 48880, Note_on_c, 0, 64, 0
2, 48880, Note_on_c, 0, 63, 80
2, 48920, Note_on_c, 0, 63, 0
2, 48920, Note_on_c, 0, 61, 80
2, 48960, Note_on_c, 0, 61, 0
2, 48960, Note_on_c, 0, 59, 80
2, 49080, Note_on_c, 0, 59, 0
2, 49080, Note_on_c, 0, 83, 64
2, 49200, Note_on_c, 0, 83, 0
2, 49200, Note_on_c, 0, 85, 64
2, 49230, Note_on_c, 0, 85, 0
2, 49230, Note_on_c, 0, 83, 64
2, 49260, Note_on_c, 0, 83, 0
2, 49260, Note_on_c, 0, 82, 64
2, 49290, Note_on_c, 0, 82, 0
2, 49290, Note_on_c, 0, 83, 64
2, 49320, Note_on_c, 0, 83, 0
2, 49320, Note_on_c, 0, 85, 64
2, 49410, Note_on_c, 0, 85, 0
2, 49410, Note_on_c, 0, 81, 64
2, 49440, Note_on_c, 0, 81, 0
2, 49440, Note_on_c, 0, 81, 64
2, 49650, Note_on_c, 0, 81, 0
2, 49650, Note_on_c, 0, 80, 64
2, 49680, Note_on_c, 0, 80, 0
2, 49680, Note_on_c, 0, 81, 64
2, 49710, Note_on_c, 0, 81, 0
2, 49710, Note_on_c, 0, 80, 64
2, 49740, Note_on_c, 0, 80, 0
2, 49740, Note_on_c, 0, 78, 64
2, 49770, Note_on_c, 0, 78, 0
2, 49770, Note_on_c, 0, 80, 64
2, 49800, Note_on_c, 0, 80, 0
2, 49800, Note_on_c, 0, 81, 64
2, 49890, Note_on_c, 0, 81, 0
2, 49890, Note_on_c, 0, 78, 64
2, 49920, Note_on_c, 0, 78, 0
2, 49920, Note_on_c, 0, 76, 64
2, 49960, Note_on_c, 0, 76, 0
2, 49960, Note_on_c, 0, 80, 64
2, 50000, Note_on_c, 0, 80, 0
2, 50000, Note_on_c, 0, 78, 64
2, 50040, Note_on_c, 0, 78, 0
2, 50040, Note_on_c, 0, 76, 64
2, 50080, Note_on_c, 0, 76, 0
2, 50080, Note_on_c, 0, 80, 64
2, 50120, Note_on_c, 0, 80, 0
2, 50120, Note_on_c, 0, 83, 64
2, 50160, Note_on_c, 0, 83, 0
2, 50160, Note_on_c, 0, 88, 80
2, 50200, Note_on_c, 0, 88, 0
2, 50200, Note_on_c, 0, 87, 64
2, 50240, Note_on_c, 0, 87, 0
2, 50240, Note_on_c, 0, 85, 64
2, 50280, Note_on_c, 0, 85, 0
2, 50280, Note_on_c, 0, 83, 64
2, 50320, Note_on_c, 0, 83, 0
2, 50320, Note_on_c, 0, 81, 64
2, 50360, Note_on_c, 0, 81, 0
2, 50360, Note_on_c, 0, 80, 64
2, 50400, Note_on_c, 0, 80, 0
2, 50400, Note_on_c, 0, 80, 64
2, 50430, Note_on_c, 0, 80, 0
2, 50430, Note_on_c, 0, 81, 64
2, 50460, Note_on_c, 0, 81, 0
2, 50460, Note_on_c, 0, 80, 64
2, 50480, Note_on_c, 0, 80, 0
2, 50480, Note_on_c, 0, 81, 64
2, 50500, Note_on_c, 0, 81, 0
2, 50500, Note_on_c, 0, 80, 64
2, 50520, Note_on_c, 0, 80, 0
2, 50520, Note_on_c, 0, 78, 64
2, 50640, Note_on_c, 0, 78, 0
2, 50920, Note_on_c, 0, 76, 80
2, 50960, Note_on_c, 0, 76, 0
2, 50960, Note_on_c, 0, 75, 80
2, 51000, Note_on_c, 0, 75, 0
2, 51000, Note_on_c, 0, 73, 80
2, 51040, Note_on_c, 0, 73, 0
2, 51040, Note_on_c, 0, 71, 80
2, 51080, Note_on_c, 0, 71, 0
2, 51080, Note_on_c, 0, 69, 80
2, 51120, Note_on_c, 0, 69, 0
2, 51120, Note_on_c, 0, 68, 80
2, 51160, Note_on_c, 0, 68, 0
2, 51160, Note_on_c, 0, 66, 80
2, 51200, Note_on_c, 0, 66, 0
2, 51200, Note_on_c, 0, 64, 80
2, 51240, Note_on_c, 0, 64, 0
2, 51240, Note_on_c, 0, 63, 80
2, 51280, Note_on_c, 0, 63, 0
2, 51280, Note_on_c, 0, 66, 80
2, 51320, Note_on_c, 0, 66, 0
2, 51320, Note_on_c, 0, 71, 80
2, 51360, Note_on_c, 0, 71, 0
2, 51360, Note_on_c, 0, 64, 80
2, 51400, Note_on_c, 0, 64, 0
2, 51400, Note_on_c, 0, 68, 80
2, 51440, Note_on_c, 0, 68, 0
2, 51440, Note_on_c, 0, 71, 80
2, 51480, Note_on_c, 0, 71, 0
2, 51480, Note_on_c, 0, 66, 80
2, 51520, Note_on_c, 0, 66, 0
2, 51520, Note_on_c, 0, 69, 80
2, 51560, Note_on_c, 0, 69, 0
2, 51560, Note_on_c, 0, 71, 80
2, 51600, Note_on_c, 0, 71, 0
2, 51600, Note_on_c, 0, 68, 80
2, 51640, Note_on_c, 0, 68, 0
2, 51640, Note_on_c, 0, 69, 80
2, 51680, Note_on_c, 0, 69, 0
2, 51680, Note_on_c, 0, 71, 80
2, 51720, Note_on_c, 0, 71, 0
2, 51720, Note_on_c, 0, 69, 80
2, 51760, Note_on_c, 0, 69, 0
2, 51760, Note_on_c, 0, 71, 80
2, 51800, Note_on_c, 0, 71, 0
2, 51800, Note_on_c, 0, 73, 80
2, 51840, Note_on_c, 0, 73, 0
2, 51840, Note_on_c, 0, 71, 64
2, 51880, Note_on_c, 0, 71, 0
2, 51880, Note_on_c, 0, 76, 64
2, 51920, Note_on_c, 0, 76, 0
2, 51920, Note_on_c, 0, 75, 64
2, 51960, Note_on_c, 0, 75, 0
2, 51960, Note_on_c, 0, 73, 64
2, 52000, Note_on_c, 0, 73, 0
2, 52000, Note_on_c, 0, 71, 64
2, 52040, Note_on_c, 0, 71, 0
2, 52040, Note_on_c, 0, 69, 64
2, 52080, Note_on_c, 0, 69, 0
2, 52080, Note_on_c, 0, 68, 64
2, 52120, Note_on_c, 0, 68, 0
2, 52120, Note_on_c, 0, 66, 64
2, 52160, Note_on_c, 0, 66, 0
2, 52160, Note_on_c, 0, 64, 64
2, 52200, Note_on_c, 0, 64, 0
2, 52200, Note_on_c, 0, 63, 64
2, 52240, Note_on_c, 0, 63, 0
2, 52240, Note_on_c, 0, 66, 64
2, 52280, Note_on_c, 0, 66, 0
2, 52280, Note_on_c, 0, 71, 64
2, 52320, Note_on_c, 0, 71, 0
2, 52320, Note_on_c, 0, 64, 64
2, 52360, Note_on_c, 0, 64, 0
2, 52360, Note_on_c, 0, 68, 64
2, 52400, Note_on_c, 0, 68, 0
2, 52400, Note_on_c, 0, 71, 64
2, 52440, Note_on_c, 0, 71, 0
2, 52440, Note_on_c, 0, 66, 64
2, 52480, Note_on_c, 0, 66, 0
2, 52480, Note_on_c, 0, 69, 64
2, 52520, Note_on_c, 0, 69, 0
2, 52520, Note_on_c, 0, 71, 64
2, 52560, Note_on_c, 0, 71, 0
2, 52560, Note_on_c, 0, 68, 64
2, 52600, Note_on_c, 0, 68, 0
2, 52600, Note_on_c, 0, 69, 64
2, 52640, Note_on_c, 0, 69, 0
2, 52640, Note_on_c, 0, 71, 64
2, 52680, Note_on_c, 0, 71, 0
2, 52680, Note_on_c, 0, 69, 64
2, 52720, Note_on_c, 0, 69, 0
2, 52720, Note_on_c, 0, 71, 64
2, 52760, Note_on_c, 0, 71, 0
2, 52760, Note_on_c, 0, 73, 64
2, 52800, Note_on_c, 0, 73, 0
2, 52800, Note_on_c, 0, 71, 64
2, 52840, Note_on_c, 0, 71, 0
2, 52840, Note_on_c, 0, 76, 65
2, 52880, Note_on_c, 0, 76, 0
2, 52880, Note_on_c, 0, 75, 65
2, 52920, Note_on_c, 0, 75, 0
2, 52920, Note_on_c, 0, 73, 66
2, 52960, Note_on_c, 0, 73, 0
2, 52960, Note_on_c, 0, 71, 67
2, 53000, Note_on_c, 0, 71, 0
2, 53000, Note_on_c, 0, 69, 67
2, 53040, Note_on_c, 0, 69, 0
2, 53040, Note_on_c, 0, 68, 68
2, 53080, Note_on_c, 0, 68, 0
2, 53080, Note_on_c, 0, 66, 69
2, 53120, Note_on_c, 0, 66, 0
2, 53120, Note_on_c, 0, 64, 69
2, 53160, Note_on_c, 0, 64, 0
2, 53160, Note_on_c, 0, 74, 70
2, 53200, Note_on_c, 0, 74, 0
2, 53200, Note_on_c, 0, 73, 71
2, 53240, Note_on_c, 0, 73, 0
2, 53240, Note_on_c, 0, 71, 71
2, 53280, Note_on_c, 0, 71, 0
2, 53280, Note_on_c, 0, 72, 72
2, 53520, Note_on_c, 0, 72, 0
2, 53520, Note_on_c, 0, 73, 76
2, 53592, Note_on_c, 0, 73, 0
2, 53640, Note_on_c, 0, 81, 78
2, 53680, Note_on_c, 0, 81, 0
2, 53680, Note_on_c, 0, 80, 79
2, 53720, Note_on_c, 0, 80, 0
2, 53720, Note_on_c, 0, 78, 79
2, 53760, Note_on_c, 0, 78, 0
2, 53760, Note_on_c, 0, 77, 80
2, 54000, Note_on_c, 0, 77, 0
2, 54000, Note_on_c, 0, 78, 80
2, 54084, Note_on_c, 0, 78, 0
2, 54120, Note_on_c, 0, 85, 80
2, 54160, Note_on_c, 0, 85, 0
2, 54160, Note_on_c, 0, 81, 80
2, 54200, Note_on_c, 0, 81, 0
2, 54200, Note_on_c, 0, 78, 80
2, 54240, Note_on_c, 0, 78, 0
2, 54240, Note_on_c, 0, 76, 80
2, 54480, Note_on_c, 0, 76, 0
2, 54480, Note_on_c, 0, 75, 80
2, 54600, Note_on_c, 0, 75, 0
2, 54720, Note_on_c, 0, 88, 88
2, 54720, Note_on_c, 0, 80, 88
2, 54720, Note_on_c, 0, 76, 88
2, 54840, Note_on_c, 0, 76, 0
2, 54840, Note_on_c, 0, 80, 0
2, 54840, Note_on_c, 0, 88, 0
2, 55080, Note_on_c, 0, 71, 88
2, 55120, Note_on_c, 0, 71, 0
2, 55120, Note_on_c, 0, 73, 88
2, 55160, Note_on_c, 0, 73, 0
2, 55160, Note_on_c, 0, 75, 88
2, 55200, Note_on_c, 0, 75, 0
2, 55200, Note_on_c, 0, 76, 88
2, 55240, Note_on_c, 0, 76, 0
2, 55240, Note_on_c, 0, 80, 88
2, 55280, Note_on_c, 0, 80, 0
2, 55280, Note_on_c, 0, 83, 88
2, 55320, Note_on_c, 0, 83, 0
2, 55320, Note_on_c, 0, 88, 88
2, 55360, Note_on_c, 0, 88, 0
2, 55360, Note_on_c, 0, 87, 88
2, 55400, Note_on_c, 0, 87, 0
2, 55400, Note_on_c, 0, 85, 88
2, 55440, Note_on_c, 0, 85, 0
2, 55440, Note_on_c, 0, 83, 88
2, 55480, Note_on_c, 0, 83, 0
2, 55480, Note_on_c, 0, 81, 88
2, 55520, Note_on_c, 0, 81, 0
2, 55520, Note_on_c, 0, 80, 88
2, 55560, Note_on_c, 0, 80, 0
2, 55560, Note_on_c, 0, 78, 88
2, 55600, Note_on_c, 0, 78, 0
2, 55600, Note_on_c, 0, 80, 88
2, 55640, Note_on_c, 0, 80, 0
2, 55640, Note_on_c, 0, 81, 88
2, 55680, Note_on_c, 0, 81, 0
2, 55680, Note_on_c, 0, 80, 80
2, 55920, Note_on_c, 0, 80, 0
2, 56040, Note_on_c, 0, 71, 64
2, 56080, Note_on_c, 0, 71, 0
2, 56080, Note_on_c, 0, 73, 64
2, 56120, Note_on_c, 0, 73, 0
2, 56120, Note_on_c, 0, 75, 64
2, 56160, Note_on_c, 0, 75, 0
2, 56160, Note_on_c, 0, 76, 64
2, 56200, Note_on_c, 0, 76, 0
2, 56200, Note_on_c, 0, 80, 64
2, 56240, Note_on_c, 0, 80, 0
2, 56240, Note_on_c, 0, 83, 64
2, 56280, Note_on_c, 0, 83, 0
2, 56280, Note_on_c, 0, 88, 64
2, 56320, Note_on_c, 0, 88, 0
2, 56320, Note_on_c, 0, 87, 64
2, 56360, Note_on_c, 0, 87, 0
2, 56360, Note_on_c, 0, 85, 64
2, 56400, Note_on_c, 0, 85, 0
2, 56400, Note_on_c, 0, 83, 64
2, 56460, Note_on_c, 0, 83, 0
2, 56520, Note_on_c, 0, 88, 64
2, 56560, Note_on_c, 0, 88, 0
2, 56560, Note_on_c, 0, 87, 64
2, 56600, Note_on_c, 0, 87, 0
2, 56600, Note_on_c, 0, 85, 64
2, 56640, Note_on_c, 0, 85, 0
2, 56640, Note_on_c, 0, 83, 64
2, 56680, Note_on_c, 0, 83, 0
2, 56680, Note_on_c, 0, 85, 65
2, 56720, Note_on_c, 0, 85, 0
2, 56720, Note_on_c, 0, 87, 65
2, 56760, Note_on_c, 0, 87, 0
2, 56760, Note_on_c, 0, 88, 66
2, 56800, Note_on_c, 0, 88, 0
2, 56800, Note_on_c, 0, 87, 67
2, 56840, Note_on_c, 0, 87, 0
2, 56840, Note_on_c, 0, 85, 67
2, 56880, Note_on_c, 0, 85, 0
2, 56880, Note_on_c, 0, 83, 68
2, 56920, Note_on_c, 0, 83, 0
2, 56920, Note_on_c, 0, 85, 69
2, 56960, Note_on_c, 0, 85, 0
2, 56960, Note_on_c, 0, 87, 69
2, 57000, Note_on_c, 0, 87, 0
2, 57000, Note_on_c, 0, 88, 70
2, 57040, Note_on_c, 0, 88, 0
2, 57040, Note_on_c, 0, 87, 71
2, 57080, Note_on_c, 0, 87, 0
2, 57080, Note_on_c, 0, 85, 71
2, 57120, Note_on_c, 0, 85, 0
2, 57120, Note_on_c, 0, 83, 72
2, 57160, Note_on_c, 0, 83, 0
2, 57160, Note_on_c, 0, 85, 73
2, 57200, Note_on_c, 0, 85, 0
2, 57200, Note_on_c, 0, 86, 73
2, 57240, Note_on_c, 0, 86, 0
2, 57240, Note_on_c, 0, 85, 74
2, 57280, Note_on_c, 0, 85, 0
2, 57280, Note_on_c, 0, 86, 75
2, 57320, Note_on_c, 0, 86, 0
2, 57320, Note_on_c, 0, 88, 75
2, 57360, Note_on_c, 0, 88, 0
2, 57360, Note_on_c, 0, 86, 76
2, 57600, Note_on_c, 0, 86, 0
2, 57600, Note_on_c, 0, 85, 80
2, 57640, Note_on_c, 0, 85, 0
2, 57640, Note_on_c, 0, 87, 80
2, 57680, Note_on_c, 0, 87, 0
2, 57680, Note_on_c, 0, 88, 80
2, 57720, Note_on_c, 0, 88, 0
2, 57720, Note_on_c, 0, 87, 80
2, 57760, Note_on_c, 0, 87, 0
2, 57760, Note_on_c, 0, 85, 80
2, 57800, Note_on_c, 0, 85, 0
2, 57800, Note_on_c, 0, 83, 80
2, 57840, Note_on_c, 0, 83, 0
2, 57840, Note_on_c, 0, 81, 80
2, 57880, Note_on_c, 0, 81, 0
2, 57880, Note_on_c, 0, 80, 80
2, 57920, Note_on_c, 0, 80, 0
2, 57920, Note_on_c, 0, 78, 80
2, 57960, Note_on_c, 0, 78, 0
2, 57960, Note_on_c, 0, 76, 80
2, 58000, Note_on_c, 0, 76, 0
2, 58000, Note_on_c, 0, 75, 80
2, 58040, Note_on_c, 0, 75, 0
2, 58040, Note_on_c, 0, 73, 80
2, 58080, Note_on_c, 0, 73, 0
2, 58080, Note_on_c, 0, 71, 80
2, 58320, Note_on_c, 0, 71, 0
2, 58320, Note_on_c, 0, 78, 80
2, 58350, Note_on_c, 0, 78, 0
2, 58350, Note_on_c, 0, 80, 80
2, 58380, Note_on_c, 0, 80, 0
2, 58380, Note_on_c, 0, 78, 80
2, 58410, Note_on_c, 0, 78, 0
2, 58410, Note_on_c, 0, 80, 80
2, 58440, Note_on_c, 0, 80, 0
2, 58440, Note_on_c, 0, 78, 80
2, 58460, Note_on_c, 0, 78, 0
2, 58460, Note_on_c, 0, 80, 80
2, 58480, Note_on_c, 0, 80, 0
2, 58480, Note_on_c, 0, 78, 80
2, 58500, Note_on_c, 0, 78, 0
2, 58500, Note_on_c, 0, 76, 80
2, 58530, Note_on_c, 0, 76, 0
2, 58530, Note_on_c, 0, 78, 80
2, 58560, Note_on_c, 0, 78, 0
2, 58560, Note_on_c, 0, 76, 80
2, 58800, Note_on_c, 0, 76, 0
2, 58920, Note_on_c, 0, 71, 80
2, 58960, Note_on_c, 0, 71, 0
2, 58960, Note_on_c, 0, 73, 80
2, 59000, Note_on_c, 0, 73, 0
2, 59000, Note_on_c, 0, 71, 80
2, 59040, Note_on_c, 0, 71, 0
2, 59040, Note_on_c, 0, 74, 80
2, 59080, Note_on_c, 0, 74, 0
2, 59080, Note_on_c, 0, 73, 80
2, 59120, Note_on_c, 0, 73, 0
2, 59120, Note_on_c, 0, 71, 80
2, 59160, Note_on_c, 0, 71, 0
2, 59160, Note_on_c, 0, 69, 80
2, 59200, Note_on_c, 0, 69, 0
2, 59200, Note_on_c, 0, 71, 80
2, 59240, Note_on_c, 0, 71, 0
2, 59240, Note_on_c, 0, 69, 80
2, 59280, Note_on_c, 0, 69, 0
2, 59280, Note_on_c, 0, 73, 80
2, 59320, Note_on_c, 0, 73, 0
2, 59320, Note_on_c, 0, 71, 80
2, 59360, Note_on_c, 0, 71, 0
2, 59360, Note_on_c, 0, 69, 80
2, 59400, Note_on_c, 0, 69, 0
2, 59400, Note_on_c, 0, 68, 80
2, 59440, Note_on_c, 0, 68, 0
2, 59440, Note_on_c, 0, 71, 80
2, 59480, Note_on_c, 0, 71, 0
2, 59480, Note_on_c, 0, 76, 80
2, 59520, Note_on_c, 0, 76, 0
2, 59520, Note_on_c, 0, 73, 80
2, 59560, Note_on_c, 0, 73, 0
2, 59560, Note_on_c, 0, 71, 80
2, 59600, Note_on_c, 0, 71, 0
2, 59600, Note_on_c, 0, 69, 80
2, 59640, Note_on_c, 0, 69, 0
2, 59640, Note_on_c, 0, 68, 80
2, 59680, Note_on_c, 0, 68, 0
2, 59680, Note_on_c, 0, 69, 80
2, 59720, Note_on_c, 0, 69, 0
2, 59720, Note_on_c, 0, 66, 80
2, 59760, Note_on_c, 0, 66, 0
2, 59760, Note_on_c, 0, 64, 80
2, 59850, Note_on_c, 0, 64, 0
2, 59850, Note_on_c, 0, 66, 80
2, 59880, Note_on_c, 0, 66, 0
2, 59880, Note_on_c, 0, 68, 80
2, 59910, Note_on_c, 0, 68, 0
2, 59910, Note_on_c, 0, 66, 80
2, 59940, Note_on_c, 0, 66, 0
2, 59940, Note_on_c, 0, 64, 80
2, 59970, Note_on_c, 0, 64, 0
2, 59970, Note_on_c, 0, 66, 80
2, 60000, Note_on_c, 0, 66, 0
2, 60000, Note_on_c, 0, 64, 80
2, 60240, Note_on_c, 0, 64, 0
2, 60360, Note_on_c, 0, 59, 80
2, 60360, Note_on_c, 0, 62, 80
2, 60480, Note_on_c, 0, 62, 0
2, 60480, Note_on_c, 0, 61, 80
2, 60600, Note_on_c, 0, 59, 0
2, 60600, Note_on_c, 0, 57, 80
2, 60720, Note_on_c, 0, 61, 0
2, 60720, Note_on_c, 0, 59, 80
2, 60840, Note_on_c, 0, 57, 0
2, 60840, Note_on_c, 0, 56, 80
2, 60930, Note_on_c, 0, 59, 0
2, 60930, Note_on_c, 0, 57, 88
2, 60945, Note_on_c, 0, 61, 88
2, 60960, Note_on_c, 0, 56, 0
2, 60960, Note_on_c, 0, 66, 88
2, 61080, Note_on_c, 0, 66, 0
2, 61080, Note_on_c, 0, 61, 0
2, 61080, Note_on_c, 0, 57, 0
2, 61080, Note_on_c, 0, 73, 80
2, 61120, Note_on_c, 0, 73, 0
2, 61120, Note_on_c, 0, 69, 80
2, 61160, Note_on_c, 0, 69, 0
2, 61160, Note_on_c, 0, 66, 80
2, 61200, Note_on_c, 0, 66, 0
2, 61200, Note_on_c, 0, 64, 80
2, 61290, Note_on_c, 0, 64, 0
2, 61290, Note_on_c, 0, 63, 80
2, 61305, Note_on_c, 0, 63, 0
2, 61305, Note_on_c, 0, 64, 80
2, 61320, Note_on_c, 0, 64, 0
2, 61320, Note_on_c, 0, 63, 80
2, 61440, Note_on_c, 0, 63, 0
2, 61440, Note_on_c, 0, 64, 80
2, 61480, Note_on_c, 0, 64, 0
2, 61480, Note_on_c, 0, 68, 80
2, 61520, Note_on_c, 0, 68, 0
2, 61520, Note_on_c, 0, 71, 80
2, 61560, Note_on_c, 0, 71, 0
2, 61560, Note_on_c, 0, 76, 80
2, 61600, Note_on_c, 0, 76, 0
2, 61600, Note_on_c, 0, 71, 80
2, 61640, Note_on_c, 0, 71, 0
2, 61640, Note_on_c, 0, 68, 80
2, 61680, Note_on_c, 0, 68, 0
2, 61680, Note_on_c, 0, 64, 80
2, 61720, Note_on_c, 0, 64, 0
2, 61720, Note_on_c, 0, 59, 80
2, 61760, Note_on_c, 0, 59, 0
2, 61760, Note_on_c, 0, 56, 80
2, 61800, Note_on_c, 0, 56, 0
2, 61800, End_track
3, 0, Start_track
3, 0, MIDI_port, 0
3, 0, Title_t, "by F.J. Haydn (1st mvmt - Moderato)"
3, 0, Program_c, 1, 0
3, 0, Control_c, 1, 7, 127
3, 0, Control_c, 1, 10, 56
3, 120, Note_on_c, 1, 64, 64
3, 180, Note_on_c, 1, 64, 0
3, 240, Note_on_c, 1, 71, 64
3, 600, Note_on_c, 1, 71, 0
3, 600, Note_on_c, 1, 73, 64
3, 720, Note_on_c, 1, 73, 0
3, 720, Note_on_c, 1, 70, 64
3, 840, Note_on_c, 1, 70, 0
3, 840, Note_on_c, 1, 71, 64
3, 960, Note_on_c, 1, 68, 64
3, 1080, Note_on_c, 1, 68, 0
3, 1080, Note_on_c, 1, 64, 64
3, 1200, Note_on_c, 1, 64, 0
3, 1200, Note_on_c, 1, 63, 64
3, 1320, Note_on_c, 1, 63, 0
3, 1320, Note_on_c, 1, 64, 64
3, 1440, Note_on_c, 1, 64, 0
3, 1440, Note_on_c, 1, 71, 0
3, 1440, Note_on_c, 1, 69, 64
3, 1440, Note_on_c, 1, 73, 64
3, 1476, Note_on_c, 1, 73, 0
3, 1476, Note_on_c, 1, 69, 0
3, 1560, Note_on_c, 1, 68, 64
3, 1560, Note_on_c, 1, 71, 64
3, 1596, Note_on_c, 1, 71, 0
3, 1596, Note_on_c, 1, 68, 0
3, 2040, Note_on_c, 1, 52, 64
3, 2100, Note_on_c, 1, 52, 0
3, 2160, Note_on_c, 1, 59, 64
3, 2520, Note_on_c, 1, 59, 0
3, 2520, Note_on_c, 1, 61, 64
3, 2580, Note_on_c, 1, 61, 0
3, 2640, Note_on_c, 1, 58, 64
3, 2760, Note_on_c, 1, 58, 0
3, 2760, Note_on_c, 1, 59, 64
3, 2880, Note_on_c, 1, 56, 64
3, 3000, Note_on_c, 1, 56, 0
3, 3000, Note_on_c, 1, 52, 64
3, 3120, Note_on_c, 1, 52, 0
3, 3120, Note_on_c, 1, 51, 64
3, 3240, Note_on_c, 1, 51, 0
3, 3240, Note_on_c, 1, 52, 64
3, 3300, Note_on_c, 1, 52, 0
3, 3360, Note_on_c, 1, 59, 0
3, 3360, Note_on_c, 1, 45, 64
3, 3396, Note_on_c, 1, 45, 0
3, 3480, Note_on_c, 1, 52, 64
3, 3516, Note_on_c, 1, 52, 0
3, 3960, Note_on_c, 1, 32, 80
3, 3960, Note_on_c, 1, 44, 80
3, 4020, Note_on_c, 1, 44, 0
3, 4020, Note_on_c, 1, 32, 0
3, 4080, Note_on_c, 1, 32, 80
3, 4080, Note_on_c, 1, 44, 80
3, 4140, Note_on_c, 1, 44, 0
3, 4140, Note_on_c, 1, 32, 0
3, 4440, Note_on_c, 1, 33, 80
3, 4440, Note_on_c, 1, 45, 80
3, 4500, Note_on_c, 1, 45, 0
3, 4500, Note_on_c, 1, 33, 0
3, 4560, Note_on_c, 1, 33, 80
3, 4560, Note_on_c, 1, 45, 80
3, 4620, Note_on_c, 1, 45, 0
3, 4620, Note_on_c, 1, 33, 0
3, 4920, Note_on_c, 1, 35, 80
3, 4920, Note_on_c, 1, 47, 80
3, 4980, Note_on_c, 1, 47, 0
3, 4980, Note_on_c, 1, 35, 0
3, 5040, Note_on_c, 1, 35, 80
3, 5040, Note_on_c, 1, 47, 80
3, 5100, Note_on_c, 1, 47, 0
3, 5100, Note_on_c, 1, 35, 0
3, 5160, Note_on_c, 1, 35, 80
3, 5160, Note_on_c, 1, 47, 80
3, 5220, Note_on_c, 1, 47, 0
3, 5220, Note_on_c, 1, 35, 0
3, 5400, Note_on_c, 1, 40, 80
3, 5400, Note_on_c, 1, 52, 80
3, 5460, Note_on_c, 1, 52, 0
3, 5460, Note_on_c, 1, 40, 0
3, 5520, Note_on_c, 1, 40, 80
3, 5520, Note_on_c, 1, 52, 80
3, 5580, Note_on_c, 1, 52, 0
3, 5580, Note_on_c, 1, 40, 0
3, 5640, Note_on_c, 1, 40, 80
3, 5640, Note_on_c, 1, 52, 80
3, 5700, Note_on_c, 1, 52, 0
3, 5700, Note_on_c, 1, 40, 0
3, 5880, Note_on_c, 1, 44, 80
3, 5880, Note_on_c, 1, 32, 80
3, 5928, Note_on_c, 1, 32, 0
3, 5928, Note_on_c, 1, 44, 0
3, 6000, Note_on_c, 1, 44, 80
3, 6000, Note_on_c, 1, 32, 80
3, 6048, Note_on_c, 1, 32, 0
3, 6048, Note_on_c, 1, 44, 0
3, 6360, Note_on_c, 1, 45, 80
3, 6360, Note_on_c, 1, 33, 80
3, 6408, Note_on_c, 1, 33, 0
3, 6408, Note_on_c, 1, 45, 0
3, 6480, Note_on_c, 1, 45, 80
3, 6480, Note_on_c, 1, 33, 80
3, 6528, Note_on_c, 1, 33, 0
3, 6528, Note_on_c, 1, 45, 0
3, 6840, Note_on_c, 1, 47, 80
3, 6840, Note_on_c, 1, 35, 80
3, 6888, Note_on_c, 1, 35, 0
3, 6888, Note_on_c, 1, 47, 0
3, 6960, Note_on_c, 1, 47, 80
3, 6960, Note_on_c, 1, 35, 80
3, 7008, Note_on_c, 1, 35, 0
3, 7008, Note_on_c, 1, 47, 0
3, 7080, Note_on_c, 1, 47, 80
3, 7080, Note_on_c, 1, 35, 80
3, 7128, Note_on_c, 1, 35, 0
3, 7128, Note_on_c, 1, 47, 0
3, 7320, Note_on_c, 1, 52, 80
3, 7352, Note_on_c, 1, 52, 0
3, 7360, Note_on_c, 1, 47, 80
3, 7392, Note_on_c, 1, 47, 0
3, 7400, Note_on_c, 1, 44, 80
3, 7432, Note_on_c, 1, 44, 0
3, 7440, Note_on_c, 1, 40, 80
3, 7536, Note_on_c, 1, 40, 0
3, 7800, Note_on_c, 1, 61, 64
3, 7800, Note_on_c, 1, 64, 64
3, 7920, Note_on_c, 1, 64, 0
3, 7920, Note_on_c, 1, 61, 0
3, 7920, Note_on_c, 1, 59, 64
3, 7920, Note_on_c, 1, 63, 64
3, 8040, Note_on_c, 1, 63, 0
3, 8040, Note_on_c, 1, 59, 0
3, 8040, Note_on_c, 1, 71, 64
3, 8040, Note_on_c, 1, 75, 64
3, 8160, Note_on_c, 1, 75, 0
3, 8160, Note_on_c, 1, 71, 0
3, 8280, Note_on_c, 1, 61, 64
3, 8280, Note_on_c, 1, 68, 64
3, 8400, Note_on_c, 1, 68, 0
3, 8400, Note_on_c, 1, 61, 0
3, 8400, Note_on_c, 1, 61, 64
3, 8400, Note_on_c, 1, 68, 64
3, 8520, Note_on_c, 1, 68, 0
3, 8520, Note_on_c, 1, 61, 0
3, 8520, Note_on_c, 1, 64, 64
3, 8640, Note_on_c, 1, 64, 0
3, 8640, Note_on_c, 1, 66, 64
3, 8760, Note_on_c, 1, 66, 0
3, 8760, Note_on_c, 1, 66, 64
3, 8880, Note_on_c, 1, 66, 0
3, 8880, Note_on_c, 1, 68, 64
3, 9000, Note_on_c, 1, 68, 0
3, 9000, Note_on_c, 1, 68, 64
3, 9120, Note_on_c, 1, 68, 0
3, 9120, Note_on_c, 1, 61, 64
3, 9240, Note_on_c, 1, 61, 0
3, 9280, Note_on_c, 1, 49, 80
3, 9320, Note_on_c, 1, 49, 0
3, 9320, Note_on_c, 1, 51, 80
3, 9360, Note_on_c, 1, 51, 0
3, 9360, Note_on_c, 1, 52, 80
3, 9400, Note_on_c, 1, 52, 0
3, 9400, Note_on_c, 1, 51, 80
3, 9440, Note_on_c, 1, 51, 0
3, 9440, Note_on_c, 1, 49, 80
3, 9480, Note_on_c, 1, 49, 0
3, 9480, Note_on_c, 1, 47, 80
3, 9520, Note_on_c, 1, 47, 0
3, 9520, Note_on_c, 1, 46, 80
3, 9560, Note_on_c, 1, 46, 0
3, 9560, Note_on_c, 1, 44, 80
3, 9600, Note_on_c, 1, 44, 0
3, 9600, Note_on_c, 1, 42, 80
3, 9684, Note_on_c, 1, 42, 0
3, 9840, Note_on_c, 1, 58, 64
3, 9840, Note_on_c, 1, 61, 64
3, 9936, Note_on_c, 1, 61, 0
3, 9936, Note_on_c, 1, 58, 0
3, 10200, Note_on_c, 1, 59, 64
3, 10200, Note_on_c, 1, 66, 64
3, 10296, Note_on_c, 1, 66, 0
3, 10296, Note_on_c, 1, 59, 0
3, 10320, Note_on_c, 1, 59, 64
3, 10320, Note_on_c, 1, 66, 64
3, 10416, Note_on_c, 1, 66, 0
3, 10416, Note_on_c, 1, 59, 0
3, 10440, Note_on_c, 1, 61, 64
3, 10440, Note_on_c, 1, 64, 64
3, 10536, Note_on_c, 1, 64, 0
3, 10536, Note_on_c, 1, 61, 0
3, 10560, Note_on_c, 1, 63, 64
3, 10560, Note_on_c, 1, 66, 64
3, 10752, Note_on_c, 1, 66, 0
3, 10752, Note_on_c, 1, 63, 0
3, 10920, Note_on_c, 1, 64, 64
3, 10920, Note_on_c, 1, 71, 64
3, 11016, Note_on_c, 1, 71, 0
3, 11016, Note_on_c, 1, 64, 0
3, 11040, Note_on_c, 1, 66, 64
3, 11040, Note_on_c, 1, 71, 64
3, 11160, Note_on_c, 1, 71, 0
3, 11160, Note_on_c, 1, 70, 64
3, 11280, Note_on_c, 1, 70, 0
3, 11280, Note_on_c, 1, 66, 0
3, 11280, Note_on_c, 1, 54, 80
3, 11320, Note_on_c, 1, 54, 0
3, 11320, Note_on_c, 1, 56, 80
3, 11360, Note_on_c, 1, 56, 0
3, 11360, Note_on_c, 1, 54, 80
3, 11400, Note_on_c, 1, 54, 0
3, 11400, Note_on_c, 1, 52, 80
3, 11440, Note_on_c, 1, 52, 0
3, 11440, Note_on_c, 1, 51, 80
3, 11480, Note_on_c, 1, 51, 0
3, 11480, Note_on_c, 1, 49, 80
3, 11520, Note_on_c, 1, 49, 0
3, 11520, Note_on_c, 1, 47, 80
3, 11760, Note_on_c, 1, 47, 0
3, 11880, Note_on_c, 1, 52, 80
3, 11940, Note_on_c, 1, 52, 0
3, 12000, Note_on_c, 1, 51, 80
3, 12120, Note_on_c, 1, 51, 0
3, 12120, Note_on_c, 1, 46, 80
3, 12180, Note_on_c, 1, 46, 0
3, 12240, Note_on_c, 1, 47, 80
3, 12300, Note_on_c, 1, 47, 0
3, 12360, Note_on_c, 1, 49, 80
3, 12420, Note_on_c, 1, 49, 0
3, 12480, Note_on_c, 1, 47, 80
3, 12720, Note_on_c, 1, 47, 0
3, 12840, Note_on_c, 1, 52, 64
3, 12900, Note_on_c, 1, 52, 0
3, 12960, Note_on_c, 1, 51, 64
3, 13080, Note_on_c, 1, 51, 0
3, 13080, Note_on_c, 1, 46, 64
3, 13140, Note_on_c, 1, 46, 0
3, 13200, Note_on_c, 1, 47, 64
3, 13260, Note_on_c, 1, 47, 0
3, 13320, Note_on_c, 1, 49, 64
3, 13380, Note_on_c, 1, 49, 0
3, 13440, Note_on_c, 1, 51, 64
3, 13680, Note_on_c, 1, 51, 0
3, 14040, Note_on_c, 1, 52, 74
3, 14040, Note_on_c, 1, 59, 74
3, 14100, Note_on_c, 1, 59, 0
3, 14100, Note_on_c, 1, 52, 0
3, 14160, Note_on_c, 1, 52, 76
3, 14160, Note_on_c, 1, 59, 76
3, 14220, Note_on_c, 1, 59, 0
3, 14220, Note_on_c, 1, 52, 0
3, 14520, Note_on_c, 1, 66, 80
3, 14520, Note_on_c, 1, 63, 80
3, 14640, Note_on_c, 1, 63, 0
3, 14640, Note_on_c, 1, 66, 0
3, 14640, Note_on_c, 1, 68, 80
3, 14640, Note_on_c, 1, 64, 80
3, 14700, Note_on_c, 1, 64, 0
3, 14700, Note_on_c, 1, 68, 0
3, 15000, Note_on_c, 1, 65, 80
3, 15120, Note_on_c, 1, 65, 0
3, 15120, Note_on_c, 1, 66, 80
3, 15240, Note_on_c, 1, 66, 0
3, 15360, Note_on_c, 1, 47, 88
3, 15400, Note_on_c, 1, 47, 0
3, 15400, Note_on_c, 1, 51, 88
3, 15440, Note_on_c, 1, 51, 0
3, 15440, Note_on_c, 1, 52, 88
3, 15480, Note_on_c, 1, 52, 0
3, 15480, Note_on_c, 1, 54, 88
3, 15520, Note_on_c, 1, 54, 0
3, 15520, Note_on_c, 1, 56, 88
3, 15560, Note_on_c, 1, 56, 0
3, 15560, Note_on_c, 1, 58, 88
3, 15600, Note_on_c, 1, 58, 0
3, 15600, Note_on_c, 1, 59, 88
3, 15640, Note_on_c, 1, 59, 0
3, 15640, Note_on_c, 1, 61, 88
3, 15680, Note_on_c, 1, 61, 0
3, 15680, Note_on_c, 1, 63, 88
3, 15720, Note_on_c, 1, 63, 0
3, 15720, Note_on_c, 1, 64, 88
3, 15840, Note_on_c, 1, 64, 0
3, 15840, Note_on_c, 1, 63, 88
3, 16080, Note_on_c, 1, 63, 0
3, 16200, Note_on_c, 1, 54, 88
3, 16200, Note_on_c, 1, 58, 88
3, 16320, Note_on_c, 1, 58, 0
3, 16320, Note_on_c, 1, 54, 0
3, 16320, Note_on_c, 1, 47, 64
3, 16360, Note_on_c, 1, 47, 0
3, 16360, Note_on_c, 1, 51, 64
3, 16400, Note_on_c, 1, 51, 0
3, 16400, Note_on_c, 1, 52, 64
3, 16440, Note_on_c, 1, 52, 0
3, 16440, Note_on_c, 1, 54, 64
3, 16480, Note_on_c, 1, 54, 0
3, 16480, Note_on_c, 1, 56, 64
3, 16520, Note_on_c, 1, 56, 0
3, 16520, Note_on_c, 1, 58, 64
3, 16560, Note_on_c, 1, 58, 0
3, 16560, Note_on_c, 1, 59, 64
3, 16600, Note_on_c, 1, 59, 0
3, 16600, Note_on_c, 1, 61, 64
3, 16640, Note_on_c, 1, 61, 0
3, 16640, Note_on_c, 1, 63, 64
3, 16680, Note_on_c, 1, 63, 0
3, 16680, Note_on_c, 1, 64, 64
3, 16800, Note_on_c, 1, 64, 0
3, 16800, Note_on_c, 1, 63, 64
3, 17040, Note_on_c, 1, 63, 0
3, 17160, Note_on_c, 1, 68, 64
3, 17200, Note_on_c, 1, 68, 0
3, 17200, Note_on_c, 1, 66, 64
3, 17240, Note_on_c, 1, 66, 0
3, 17240, Note_on_c, 1, 64, 64
3, 17280, Note_on_c, 1, 64, 0
3, 17280, Note_on_c, 1, 63, 64
3, 17320, Note_on_c, 1, 63, 0
3, 17320, Note_on_c, 1, 64, 64
3, 17360, Note_on_c, 1, 64, 0
3, 17360, Note_on_c, 1, 66, 64
3, 17400, Note_on_c, 1, 66, 0
3, 17400, Note_on_c, 1, 68, 64
3, 17440, Note_on_c, 1, 68, 0
3, 17440, Note_on_c, 1, 66, 64
3, 17480, Note_on_c, 1, 66, 0
3, 17480, Note_on_c, 1, 64, 64
3, 17520, Note_on_c, 1, 64, 0
3, 17520, Note_on_c, 1, 63, 64
3, 17560, Note_on_c, 1, 63, 0
3, 17560, Note_on_c, 1, 64, 64
3, 17600, Note_on_c, 1, 64, 0
3, 17600, Note_on_c, 1, 66, 64
3, 17640, Note_on_c, 1, 66, 0
3, 17640, Note_on_c, 1, 68, 64
3, 17680, Note_on_c, 1, 68, 0
3, 17680, Note_on_c, 1, 66, 64
3, 17720, Note_on_c, 1, 66, 0
3, 17720, Note_on_c, 1, 64, 64
3, 17760, Note_on_c, 1, 64, 0
3, 17760, Note_on_c, 1, 63, 64
3, 17820, Note_on_c, 1, 63, 0
3, 17880, Note_on_c, 1, 64, 64
3, 17940, Note_on_c, 1, 64, 0
3, 18000, Note_on_c, 1, 66, 64
3, 18120, Note_on_c, 1, 66, 0
3, 18120, Note_on_c, 1, 59, 64
3, 18240, Note_on_c, 1, 59, 0
3, 18240, Note_on_c, 1, 64, 80
3, 18480, Note_on_c, 1, 64, 0
3, 18840, Note_on_c, 1, 51, 80
3, 18960, Note_on_c, 1, 51, 0
3, 18960, Note_on_c, 1, 52, 80
3, 19080, Note_on_c, 1, 52, 0
3, 19080, Note_on_c, 1, 54, 80
3, 19200, Note_on_c, 1, 54, 0
3, 19200, Note_on_c, 1, 47, 80
3, 19240, Note_on_c, 1, 47, 0
3, 19240, Note_on_c, 1, 51, 80
3, 19280, Note_on_c, 1, 51, 0
3, 19280, Note_on_c, 1, 54, 80
3, 19320, Note_on_c, 1, 54, 0
3, 19320, Note_on_c, 1, 59, 80
3, 19360, Note_on_c, 1, 59, 0
3, 19360, Note_on_c, 1, 54, 80
3, 19400, Note_on_c, 1, 54, 0
3, 19400, Note_on_c, 1, 51, 80
3, 19440, Note_on_c, 1, 51, 0
3, 19440, Note_on_c, 1, 47, 80
3, 19560, Note_on_c, 1, 47, 0
3, 19560, Note_on_c, 1, 75, 80
3, 19620, Note_on_c, 1, 75, 0
3, 19680, Note_on_c, 1, 72, 80
3, 19800, Note_on_c, 1, 72, 0
3, 19800, Note_on_c, 1, 73, 80
3, 19860, Note_on_c, 1, 73, 0
3, 19920, Note_on_c, 1, 70, 80
3, 20040, Note_on_c, 1, 70, 0
3, 20040, Note_on_c, 1, 71, 80
3, 20100, Note_on_c, 1, 71, 0
3, 20160, Note_on_c, 1, 64, 80
3, 20280, Note_on_c, 1, 64, 0
3, 20280, Note_on_c, 1, 65, 80
3, 20400, Note_on_c, 1, 65, 0
3, 20400, Note_on_c, 1, 66, 80
3, 20520, Note_on_c, 1, 66, 0
3, 20520, Note_on_c, 1, 54, 80
3, 20640, Note_on_c, 1, 54, 0
3, 20640, Note_on_c, 1, 59, 80
3, 20680, Note_on_c, 1, 59, 0
3, 20680, Note_on_c, 1, 54, 80
3, 20720, Note_on_c, 1, 54, 0
3, 20720, Note_on_c, 1, 51, 80
3, 20760, Note_on_c, 1, 51, 0
3, 20760, Note_on_c, 1, 47, 80
3, 20800, Note_on_c, 1, 47, 0
3, 20800, Note_on_c, 1, 51, 80
3, 20840, Note_on_c, 1, 51, 0
3, 20840, Note_on_c, 1, 54, 80
3, 20880, Note_on_c, 1, 54, 0
3, 20880, Note_on_c, 1, 59, 80
3, 21000, Note_on_c, 1, 59, 0
3, 21000, Note_on_c, 1, 63, 80
3, 21060, Note_on_c, 1, 63, 0
3, 21120, Note_on_c, 1, 60, 80
3, 21240, Note_on_c, 1, 60, 0
3, 21240, Note_on_c, 1, 61, 80
3, 21300, Note_on_c, 1, 61, 0
3, 21360, Note_on_c, 1, 58, 80
3, 21480, Note_on_c, 1, 58, 0
3, 21480, Note_on_c, 1, 59, 80
3, 21540, Note_on_c, 1, 59, 0
3, 21540, Note_on_c, 1, 52, 88
3, 21555, Note_on_c, 1, 56, 88
3, 21570, Note_on_c, 1, 61, 88
3, 21720, Note_on_c, 1, 61, 0
3, 21720, Note_on_c, 1, 56, 0
3, 21720, Note_on_c, 1, 52, 0
3, 21840, Note_on_c, 1, 42, 80
3, 21840, Note_on_c, 1, 51, 80
3, 21960, Note_on_c, 1, 51, 0
3, 21960, Note_on_c, 1, 49, 80
3, 22080, Note_on_c, 1, 49, 0
3, 22080, Note_on_c, 1, 42, 0
3, 22080, Note_on_c, 1, 47, 80
3, 22200, Note_on_c, 1, 47, 0
3, 22320, Note_on_c, 1, 59, 80
3, 22360, Note_on_c, 1, 59, 0
3, 22360, Note_on_c, 1, 54, 80
3, 22400, Note_on_c, 1, 54, 0
3, 22400, Note_on_c, 1, 51, 80
3, 22440, Note_on_c, 1, 51, 0
3, 22440, Note_on_c, 1, 47, 80
3, 22480, Note_on_c, 1, 47, 0
3, 22480, Note_on_c, 1, 42, 80
3, 22520, Note_on_c, 1, 42, 0
3, 22520, Note_on_c, 1, 39, 80
3, 22560, Note_on_c, 1, 39, 0
3, 22560, Note_on_c, 1, 35, 80
3, 22680, Note_on_c, 1, 35, 0
3, 23160, Note_on_c, 1, 59, 64
3, 23280, Note_on_c, 1, 59, 0
3, 23280, Note_on_c, 1, 66, 64
3, 23640, Note_on_c, 1, 66, 0
3, 23640, Note_on_c, 1, 68, 64
3, 23760, Note_on_c, 1, 68, 0
3, 23760, Note_on_c, 1, 65, 64
3, 23880, Note_on_c, 1, 65, 0
3, 23880, Note_on_c, 1, 66, 64
3, 24000, Note_on_c, 1, 63, 64
3, 24120, Note_on_c, 1, 63, 0
3, 24120, Note_on_c, 1, 59, 66
3, 24240, Note_on_c, 1, 59, 0
3, 24240, Note_on_c, 1, 58, 68
3, 24360, Note_on_c, 1, 58, 0
3, 24360, Note_on_c, 1, 59, 70
3, 24480, Note_on_c, 1, 59, 0
3, 24480, Note_on_c, 1, 66, 0
3, 24480, Note_on_c, 1, 68, 72
3, 24480, Note_on_c, 1, 64, 72
3, 24600, Note_on_c, 1, 64, 0
3, 24600, Note_on_c, 1, 68, 0
3, 24600, Note_on_c, 1, 66, 74
3, 24600, Note_on_c, 1, 63, 74
3, 24720, Note_on_c, 1, 63, 0
3, 24720, Note_on_c, 1, 66, 0
3, 25080, Note_on_c, 1, 64, 80
3, 25200, Note_on_c, 1, 64, 0
3, 25200, Note_on_c, 1, 71, 80
3, 25560, Note_on_c, 1, 71, 0
3, 25560, Note_on_c, 1, 73, 80
3, 25680, Note_on_c, 1, 73, 0
3, 25680, Note_on_c, 1, 70, 80
3, 25800, Note_on_c, 1, 70, 0
3, 25800, Note_on_c, 1, 71, 80
3, 25920, Note_on_c, 1, 68, 80
3, 26040, Note_on_c, 1, 68, 0
3, 26040, Note_on_c, 1, 69, 80
3, 26160, Note_on_c, 1, 69, 0
3, 26160, Note_on_c, 1, 71, 0
3, 26160, Note_on_c, 1, 66, 80
3, 26280, Note_on_c, 1, 66, 0
3, 26280, Note_on_c, 1, 68, 80
3, 26400, Note_on_c, 1, 64, 80
3, 26520, Note_on_c, 1, 64, 0
3, 26520, Note_on_c, 1, 61, 80
3, 26640, Note_on_c, 1, 61, 0
3, 26640, Note_on_c, 1, 60, 80
3, 26688, Note_on_c, 1, 60, 0
3, 26760, Note_on_c, 1, 61, 80
3, 26808, Note_on_c, 1, 61, 0
3, 26880, Note_on_c, 1, 68, 0
3, 26880, Note_on_c, 1, 56, 80
3, 26920, Note_on_c, 1, 56, 0
3, 26920, Note_on_c, 1, 60, 80
3, 26960, Note_on_c, 1, 60, 0
3, 26960, Note_on_c, 1, 63, 80
3, 27000, Note_on_c, 1, 63, 0
3, 27000, Note_on_c, 1, 56, 80
3, 27040, Note_on_c, 1, 56, 0
3, 27040, Note_on_c, 1, 60, 80
3, 27080, Note_on_c, 1, 60, 0
3, 27080, Note_on_c, 1, 63, 80
3, 27120, Note_on_c, 1, 63, 0
3, 27120, Note_on_c, 1, 56, 80
3, 27160, Note_on_c, 1, 56, 0
3, 27160, Note_on_c, 1, 60, 80
3, 27200, Note_on_c, 1, 60, 0
3, 27200, Note_on_c, 1, 63, 80
3, 27240, Note_on_c, 1, 63, 0
3, 27240, Note_on_c, 1, 56, 80
3, 27280, Note_on_c, 1, 56, 0
3, 27280, Note_on_c, 1, 60, 80
3, 27320, Note_on_c, 1, 60, 0
3, 27320, Note_on_c, 1, 63, 80
3, 27360, Note_on_c, 1, 63, 0
3, 27360, Note_on_c, 1, 56, 80
3, 27400, Note_on_c, 1, 56, 0
3, 27400, Note_on_c, 1, 61, 80
3, 27440, Note_on_c, 1, 61, 0
3, 27440, Note_on_c, 1, 64, 80
3, 27480, Note_on_c, 1, 64, 0
3, 27480, Note_on_c, 1, 56, 80
3, 27520, Note_on_c, 1, 56, 0
3, 27520, Note_on_c, 1, 61, 80
3, 27560, Note_on_c, 1, 61, 0
3, 27560, Note_on_c, 1, 64, 80
3, 27600, Note_on_c, 1, 64, 0
3, 27600, Note_on_c, 1, 56, 80
3, 27640, Note_on_c, 1, 56, 0
3, 27640, Note_on_c, 1, 61, 80
3, 27680, Note_on_c, 1, 61, 0
3, 27680, Note_on_c, 1, 64, 80
3, 27720, Note_on_c, 1, 64, 0
3, 27720, Note_on_c, 1, 56, 80
3, 27760, Note_on_c, 1, 56, 0
3, 27760, Note_on_c, 1, 61, 80
3, 27800, Note_on_c, 1, 61, 0
3, 27800, Note_on_c, 1, 64, 80
3, 27840, Note_on_c, 1, 64, 0
3, 27840, Note_on_c, 1, 56, 80
3, 27880, Note_on_c, 1, 56, 0
3, 27880, Note_on_c, 1, 63, 80
3, 27920, Note_on_c, 1, 63, 0
3, 27920, Note_on_c, 1, 66, 80
3, 27960, Note_on_c, 1, 66, 0
3, 27960, Note_on_c, 1, 56, 80
3, 28000, Note_on_c, 1, 56, 0
3, 28000, Note_on_c, 1, 63, 80
3, 28040, Note_on_c, 1, 63, 0
3, 28040, Note_on_c, 1, 66, 80
3, 28080, Note_on_c, 1, 66, 0
3, 28080, Note_on_c, 1, 56, 80
3, 28120, Note_on_c, 1, 56, 0
3, 28120, Note_on_c, 1, 63, 80
3, 28160, Note_on_c, 1, 63, 0
3, 28160, Note_on_c, 1, 66, 80
3, 28200, Note_on_c, 1, 66, 0
3, 28200, Note_on_c, 1, 56, 80
3, 28240, Note_on_c, 1, 56, 0
3, 28240, Note_on_c, 1, 63, 80
3, 28280, Note_on_c, 1, 63, 0
3, 28280, Note_on_c, 1, 66, 80
3, 28320, Note_on_c, 1, 66, 0
3, 28320, Note_on_c, 1, 56, 80
3, 28360, Note_on_c, 1, 56, 0
3, 28360, Note_on_c, 1, 61, 80
3, 28400, Note_on_c, 1, 61, 0
3, 28400, Note_on_c, 1, 64, 80
3, 28440, Note_on_c, 1, 64, 0
3, 28440, Note_on_c, 1, 56, 80
3, 28480, Note_on_c, 1, 56, 0
3, 28480, Note_on_c, 1, 61, 80
3, 28520, Note_on_c, 1, 61, 0
3, 28520, Note_on_c, 1, 64, 80
3, 28560, Note_on_c, 1, 64, 0
3, 28560, Note_on_c, 1, 56, 80
3, 28600, Note_on_c, 1, 56, 0
3, 28600, Note_on_c, 1, 61, 80
3, 28640, Note_on_c, 1, 61, 0
3, 28640, Note_on_c, 1, 64, 80
3, 28680, Note_on_c, 1, 64, 0
3, 28680, Note_on_c, 1, 56, 80
3, 28720, Note_on_c, 1, 56, 0
3, 28720, Note_on_c, 1, 61, 80
3, 28760, Note_on_c, 1, 61, 0
3, 28760, Note_on_c, 1, 64, 80
3, 28800, Note_on_c, 1, 64, 0
3, 28800, Note_on_c, 1, 56, 80
3, 28840, Note_on_c, 1, 56, 0
3, 28840, Note_on_c, 1, 59, 80
3, 28880, Note_on_c, 1, 59, 0
3, 28880, Note_on_c, 1, 65, 80
3, 28920, Note_on_c, 1, 65, 0
3, 28920, Note_on_c, 1, 56, 80
3, 28960, Note_on_c, 1, 56, 0
3, 28960, Note_on_c, 1, 59, 80
3, 29000, Note_on_c, 1, 59, 0
3, 29000, Note_on_c, 1, 65, 80
3, 29040, Note_on_c, 1, 65, 0
3, 29040, Note_on_c, 1, 56, 80
3, 29080, Note_on_c, 1, 56, 0
3, 29080, Note_on_c, 1, 59, 80
3, 29120, Note_on_c, 1, 59, 0
3, 29120, Note_on_c, 1, 65, 80
3, 29160, Note_on_c, 1, 65, 0
3, 29160, Note_on_c, 1, 56, 80
3, 29200, Note_on_c, 1, 56, 0
3, 29200, Note_on_c, 1, 59, 80
3, 29240, Note_on_c, 1, 59, 0
3, 29240, Note_on_c, 1, 65, 80
3, 29280, Note_on_c, 1, 65, 0
3, 29280, Note_on_c, 1, 56, 80
3, 29320, Note_on_c, 1, 56, 0
3, 29320, Note_on_c, 1, 59, 80
3, 29360, Note_on_c, 1, 59, 0
3, 29360, Note_on_c, 1, 65, 80
3, 29400, Note_on_c, 1, 65, 0
3, 29400, Note_on_c, 1, 56, 80
3, 29440, Note_on_c, 1, 56, 0
3, 29440, Note_on_c, 1, 59, 80
3, 29480, Note_on_c, 1, 59, 0
3, 29480, Note_on_c, 1, 65, 80
3, 29520, Note_on_c, 1, 65, 0
3, 29520, Note_on_c, 1, 56, 80
3, 29560, Note_on_c, 1, 56, 0
3, 29560, Note_on_c, 1, 59, 80
3, 29600, Note_on_c, 1, 59, 0
3, 29600, Note_on_c, 1, 65, 80
3, 29640, Note_on_c, 1, 65, 0
3, 29640, Note_on_c, 1, 56, 80
3, 29680, Note_on_c, 1, 56, 0
3, 29680, Note_on_c, 1, 59, 80
3, 29720, Note_on_c, 1, 59, 0
3, 29720, Note_on_c, 1, 65, 80
3, 29760, Note_on_c, 1, 65, 0
3, 29760, Note_on_c, 1, 66, 80
3, 29760, Note_on_c, 1, 61, 80
3, 29760, Note_on_c, 1, 57, 80
3, 29880, Note_on_c, 1, 57, 0
3, 29880, Note_on_c, 1, 61, 0
3, 29880, Note_on_c, 1, 66, 0
3, 30000, Note_on_c, 1, 66, 80
3, 30000, Note_on_c, 1, 61, 80
3, 30000, Note_on_c, 1, 57, 80
3, 30120, Note_on_c, 1, 57, 0
3, 30120, Note_on_c, 1, 61, 0
3, 30120, Note_on_c, 1, 66, 0
3, 30240, Note_on_c, 1, 57, 80
3, 30240, Note_on_c, 1, 61, 80
3, 30600, Note_on_c, 1, 61, 0
3, 30600, Note_on_c, 1, 57, 0
3, 30600, Note_on_c, 1, 61, 80
3, 30600, Note_on_c, 1, 57, 80
3, 30720, Note_on_c, 1, 57, 0
3, 30720, Note_on_c, 1, 61, 0
3, 30720, Note_on_c, 1, 61, 80
3, 30960, Note_on_c, 1, 61, 0
3, 30960, Note_on_c, 1, 56, 80
3, 30960, Note_on_c, 1, 60, 80
3, 31200, Note_on_c, 1, 60, 0
3, 31200, Note_on_c, 1, 56, 0
3, 31680, Note_on_c, 1, 37, 80
3, 31680, Note_on_c, 1, 49, 80
3, 31920, Note_on_c, 1, 49, 0
3, 31920, Note_on_c, 1, 37, 0
3, 32040, Note_on_c, 1, 54, 80
3, 32100, Note_on_c, 1, 54, 0
3, 32160, Note_on_c, 1, 52, 80
3, 32280, Note_on_c, 1, 52, 0
3, 32280, Note_on_c, 1, 48, 80
3, 32340, Note_on_c, 1, 48, 0
3, 32400, Note_on_c, 1, 49, 80
3, 32460, Note_on_c, 1, 49, 0
3, 32520, Note_on_c, 1, 51, 80
3, 32580, Note_on_c, 1, 51, 0
3, 32640, Note_on_c, 1, 52, 80
3, 32880, Note_on_c, 1, 52, 0
3, 33000, Note_on_c, 1, 54, 80
3, 33060, Note_on_c, 1, 54, 0
3, 33120, Note_on_c, 1, 52, 80
3, 33240, Note_on_c, 1, 52, 0
3, 33240, Note_on_c, 1, 48, 80
3, 33300, Note_on_c, 1, 48, 0
3, 33360, Note_on_c, 1, 49, 80
3, 33420, Note_on_c, 1, 49, 0
3, 33480, Note_on_c, 1, 51, 80
3, 33540, Note_on_c, 1, 51, 0
3, 33600, Note_on_c, 1, 52, 80
3, 33840, Note_on_c, 1, 52, 0
3, 33960, Note_on_c, 1, 54, 80
3, 34080, Note_on_c, 1, 54, 0
3, 34080, Note_on_c, 1, 52, 80
3, 34320, Note_on_c, 1, 40, 80
3, 34800, Note_on_c, 1, 40, 0
3, 34800, Note_on_c, 1, 44, 80
3, 35040, Note_on_c, 1, 44, 0
3, 35040, Note_on_c, 1, 45, 80
3, 35280, Note_on_c, 1, 45, 0
3, 35280, Note_on_c, 1, 52, 0
3, 35280, Note_on_c, 1, 41, 80
3, 35280, Note_on_c, 1, 49, 80
3, 35520, Note_on_c, 1, 49, 0
3, 35520, Note_on_c, 1, 41, 0
3, 35520, Note_on_c, 1, 42, 80
3, 35520, Note_on_c, 1, 54, 80
3, 36000, Note_on_c, 1, 54, 0
3, 36000, Note_on_c, 1, 42, 0
3, 36000, Note_on_c, 1, 35, 80
3, 36000, Note_on_c, 1, 47, 80
3, 36480, Note_on_c, 1, 47, 0
3, 36480, Note_on_c, 1, 35, 0
3, 36480, Note_on_c, 1, 40, 80
3, 36480, Note_on_c, 1, 52, 80
3, 36600, Note_on_c, 1, 52, 0
3, 36600, Note_on_c, 1, 40, 0
3, 36600, Note_on_c, 1, 41, 81
3, 36600, Note_on_c, 1, 53, 81
3, 36720, Note_on_c, 1, 53, 0
3, 36720, Note_on_c, 1, 41, 0
3, 36720, Note_on_c, 1, 40, 82
3, 36720, Note_on_c, 1, 52, 82
3, 36840, Note_on_c, 1, 52, 0
3, 36840, Note_on_c, 1, 40, 0
3, 36840, Note_on_c, 1, 38, 83
3, 36840, Note_on_c, 1, 50, 83
3, 36960, Note_on_c, 1, 50, 0
3, 36960, Note_on_c, 1, 38, 0
3, 36960, Note_on_c, 1, 37, 84
3, 36960, Note_on_c, 1, 49, 84
3, 37200, Note_on_c, 1, 49, 0
3, 37200, Note_on_c, 1, 37, 0
3, 37200, Note_on_c, 1, 42, 86
3, 37200, Note_on_c, 1, 54, 86
3, 37440, Note_on_c, 1, 54, 0
3, 37440, Note_on_c, 1, 42, 0
3, 37440, Note_on_c, 1, 35, 88
3, 37440, Note_on_c, 1, 47, 88
3, 37680, Note_on_c, 1, 47, 0
3, 37680, Note_on_c, 1, 35, 0
3, 37800, Note_on_c, 1, 42, 88
3, 37800, Note_on_c, 1, 54, 88
3, 37860, Note_on_c, 1, 54, 0
3, 37860, Note_on_c, 1, 42, 0
3, 37920, Note_on_c, 1, 35, 88
3, 37920, Note_on_c, 1, 47, 88
3, 38160, Note_on_c, 1, 47, 0
3, 38160, Note_on_c, 1, 35, 0
3, 38280, Note_on_c, 1, 42, 88
3, 38280, Note_on_c, 1, 54, 88
3, 38400, Note_on_c, 1, 54, 0
3, 38400, Note_on_c, 1, 42, 0
3, 38400, Note_on_c, 1, 35, 88
3, 38400, Note_on_c, 1, 47, 88
3, 38640, Note_on_c, 1, 47, 0
3, 38640, Note_on_c, 1, 35, 0
3, 38640, Note_on_c, 1, 59, 88
3, 38680, Note_on_c, 1, 59, 0
3, 38680, Note_on_c, 1, 54, 88
3, 38720, Note_on_c, 1, 54, 0
3, 38720, Note_on_c, 1, 51, 88
3, 38760, Note_on_c, 1, 51, 0
3, 38760, Note_on_c, 1, 47, 88
3, 38800, Note_on_c, 1, 47, 0
3, 38800, Note_on_c, 1, 42, 88
3, 38840, Note_on_c, 1, 42, 0
3, 38840, Note_on_c, 1, 39, 88
3, 38880, Note_on_c, 1, 39, 0
3, 38880, Note_on_c, 1, 35, 88
3, 39000, Note_on_c, 1, 35, 0
3, 39400, Note_on_c, 1, 63, 64
3, 39440, Note_on_c, 1, 63, 0
3, 39440, Note_on_c, 1, 64, 64
3, 39480, Note_on_c, 1, 64, 0
3, 39480, Note_on_c, 1, 66, 64
3, 39520, Note_on_c, 1, 66, 0
3, 39520, Note_on_c, 1, 68, 64
3, 39560, Note_on_c, 1, 68, 0
3, 39560, Note_on_c, 1, 69, 64
3, 39600, Note_on_c, 1, 69, 0
3, 39600, Note_on_c, 1, 71, 64
3, 39960, Note_on_c, 1, 71, 0
3, 39960, Note_on_c, 1, 73, 64
3, 40080, Note_on_c, 1, 73, 0
3, 40080, Note_on_c, 1, 70, 64
3, 40200, Note_on_c, 1, 70, 0
3, 40200, Note_on_c, 1, 71, 64
3, 40320, Note_on_c, 1, 68, 64
3, 40440, Note_on_c, 1, 68, 0
3, 40440, Note_on_c, 1, 64, 64
3, 40560, Note_on_c, 1, 64, 0
3, 40560, Note_on_c, 1, 63, 64
3, 40680, Note_on_c, 1, 63, 0
3, 40680, Note_on_c, 1, 64, 64
3, 40800, Note_on_c, 1, 64, 0
3, 40800, Note_on_c, 1, 71, 0
3, 40800, Note_on_c, 1, 69, 64
3, 40800, Note_on_c, 1, 73, 64
3, 40860, Note_on_c, 1, 73, 0
3, 40860, Note_on_c, 1, 69, 0
3, 40920, Note_on_c, 1, 68, 64
3, 40920, Note_on_c, 1, 71, 64
3, 40980, Note_on_c, 1, 71, 0
3, 40980, Note_on_c, 1, 68, 0
3, 41400, Note_on_c, 1, 52, 64
3, 41520, Note_on_c, 1, 52, 0
3, 41520, Note_on_c, 1, 59, 64
3, 41880, Note_on_c, 1, 59, 0
3, 41880, Note_on_c, 1, 61, 64
3, 42000, Note_on_c, 1, 61, 0
3, 42000, Note_on_c, 1, 58, 64
3, 42120, Note_on_c, 1, 58, 0
3, 42120, Note_on_c, 1, 59, 64
3, 42240, Note_on_c, 1, 56, 64
3, 42360, Note_on_c, 1, 56, 0
3, 42360, Note_on_c, 1, 52, 64
3, 42480, Note_on_c, 1, 52, 0
3, 42480, Note_on_c, 1, 51, 64
3, 42600, Note_on_c, 1, 51, 0
3, 42600, Note_on_c, 1, 52, 64
3, 42720, Note_on_c, 1, 52, 0
3, 42720, Note_on_c, 1, 59, 0
3, 42720, Note_on_c, 1, 45, 64
3, 42768, Note_on_c, 1, 45, 0
3, 42840, Note_on_c, 1, 52, 64
3, 42888, Note_on_c, 1, 52, 0
3, 43320, Note_on_c, 1, 44, 80
3, 43320, Note_on_c, 1, 32, 80
3, 43368, Note_on_c, 1, 32, 0
3, 43368, Note_on_c, 1, 44, 0
3, 43440, Note_on_c, 1, 44, 80
3, 43440, Note_on_c, 1, 32, 80
3, 43488, Note_on_c, 1, 32, 0
3, 43488, Note_on_c, 1, 44, 0
3, 43800, Note_on_c, 1, 45, 80
3, 43800, Note_on_c, 1, 33, 80
3, 43848, Note_on_c, 1, 33, 0
3, 43848, Note_on_c, 1, 45, 0
3, 43920, Note_on_c, 1, 45, 80
3, 43920, Note_on_c, 1, 33, 80
3, 43968, Note_on_c, 1, 33, 0
3, 43968, Note_on_c, 1, 45, 0
3, 44280, Note_on_c, 1, 47, 80
3, 44280, Note_on_c, 1, 35, 80
3, 44328, Note_on_c, 1, 35, 0
3, 44328, Note_on_c, 1, 47, 0
3, 44400, Note_on_c, 1, 47, 80
3, 44400, Note_on_c, 1, 35, 80
3, 44448, Note_on_c, 1, 35, 0
3, 44448, Note_on_c, 1, 47, 0
3, 44520, Note_on_c, 1, 47, 80
3, 44520, Note_on_c, 1, 35, 80
3, 44568, Note_on_c, 1, 35, 0
3, 44568, Note_on_c, 1, 47, 0
3, 44760, Note_on_c, 1, 52, 80
3, 44760, Note_on_c, 1, 40, 80
3, 44808, Note_on_c, 1, 40, 0
3, 44808, Note_on_c, 1, 52, 0
3, 44880, Note_on_c, 1, 52, 80
3, 44880, Note_on_c, 1, 40, 80
3, 44928, Note_on_c, 1, 40, 0
3, 44928, Note_on_c, 1, 52, 0
3, 45000, Note_on_c, 1, 52, 80
3, 45000, Note_on_c, 1, 40, 80
3, 45048, Note_on_c, 1, 40, 0
3, 45048, Note_on_c, 1, 52, 0
3, 45240, Note_on_c, 1, 32, 80
3, 45240, Note_on_c, 1, 44, 80
3, 45288, Note_on_c, 1, 44, 0
3, 45288, Note_on_c, 1, 32, 0
3, 45360, Note_on_c, 1, 32, 80
3, 45360, Note_on_c, 1, 44, 80
3, 45408, Note_on_c, 1, 44, 0
3, 45408, Note_on_c, 1, 32, 0
3, 45720, Note_on_c, 1, 33, 80
3, 45720, Note_on_c, 1, 45, 80
3, 45768, Note_on_c, 1, 45, 0
3, 45768, Note_on_c, 1, 33, 0
3, 45840, Note_on_c, 1, 33, 80
3, 45840, Note_on_c, 1, 45, 80
3, 45888, Note_on_c, 1, 45, 0
3, 45888, Note_on_c, 1, 33, 0
3, 46200, Note_on_c, 1, 35, 80
3, 46200, Note_on_c, 1, 47, 80
3, 46248, Note_on_c, 1, 47, 0
3, 46248, Note_on_c, 1, 35, 0
3, 46320, Note_on_c, 1, 35, 80
3, 46320, Note_on_c, 1, 47, 80
3, 46368, Note_on_c, 1, 47, 0
3, 46368, Note_on_c, 1, 35, 0
3, 46440, Note_on_c, 1, 35, 80
3, 46440, Note_on_c, 1, 47, 80
3, 46488, Note_on_c, 1, 47, 0
3, 46488, Note_on_c, 1, 35, 0
3, 46680, Note_on_c, 1, 52, 80
3, 46720, Note_on_c, 1, 52, 0
3, 46720, Note_on_c, 1, 56, 80
3, 46760, Note_on_c, 1, 56, 0
3, 46760, Note_on_c, 1, 59, 80
3, 46800, Note_on_c, 1, 59, 0
3, 46800, Note_on_c, 1, 64, 80
3, 46840, Note_on_c, 1, 64, 0
3, 46840, Note_on_c, 1, 59, 80
3, 46880, Note_on_c, 1, 59, 0
3, 46880, Note_on_c, 1, 56, 80
3, 46920, Note_on_c, 1, 56, 0
3, 46920, Note_on_c, 1, 62, 80
3, 46960, Note_on_c, 1, 62, 0
3, 46960, Note_on_c, 1, 59, 80
3, 47000, Note_on_c, 1, 59, 0
3, 47000, Note_on_c, 1, 56, 80
3, 47040, Note_on_c, 1, 56, 0
3, 47040, Note_on_c, 1, 53, 64
3, 47160, Note_on_c, 1, 53, 0
3, 47160, Note_on_c, 1, 66, 64
3, 47160, Note_on_c, 1, 69, 64
3, 47280, Note_on_c, 1, 69, 0
3, 47280, Note_on_c, 1, 66, 0
3, 47280, Note_on_c, 1, 65, 64
3, 47280, Note_on_c, 1, 68, 64
3, 47400, Note_on_c, 1, 68, 0
3, 47400, Note_on_c, 1, 65, 0
3, 47400, Note_on_c, 1, 77, 64
3, 47400, Note_on_c, 1, 80, 64
3, 47520, Note_on_c, 1, 80, 0
3, 47520, Note_on_c, 1, 77, 0
3, 47640, Note_on_c, 1, 66, 64
3, 47640, Note_on_c, 1, 73, 64
3, 47760, Note_on_c, 1, 73, 0
3, 47760, Note_on_c, 1, 66, 0
3, 47760, Note_on_c, 1, 66, 64
3, 47760, Note_on_c, 1, 73, 64
3, 47880, Note_on_c, 1, 73, 0
3, 47880, Note_on_c, 1, 66, 0
3, 47880, Note_on_c, 1, 69, 64
3, 48000, Note_on_c, 1, 69, 0
3, 48000, Note_on_c, 1, 71, 64
3, 48048, Note_on_c, 1, 71, 0
3, 48120, Note_on_c, 1, 71, 64
3, 48240, Note_on_c, 1, 71, 0
3, 48240, Note_on_c, 1, 73, 64
3, 48288, Note_on_c, 1, 73, 0
3, 48360, Note_on_c, 1, 73, 64
3, 48408, Note_on_c, 1, 73, 0
3, 48480, Note_on_c, 1, 66, 64
3, 48600, Note_on_c, 1, 66, 0
3, 48640, Note_on_c, 1, 54, 80
3, 48680, Note_on_c, 1, 54, 0
3, 48680, Note_on_c, 1, 56, 80
3, 48720, Note_on_c, 1, 56, 0
3, 48720, Note_on_c, 1, 57, 80
3, 48760, Note_on_c, 1, 57, 0
3, 48760, Note_on_c, 1, 56, 80
3, 48800, Note_on_c, 1, 56, 0
3, 48800, Note_on_c, 1, 54, 80
3, 48840, Note_on_c, 1, 54, 0
3, 48840, Note_on_c, 1, 52, 80
3, 48880, Note_on_c, 1, 52, 0
3, 48880, Note_on_c, 1, 51, 80
3, 48920, Note_on_c, 1, 51, 0
3, 48920, Note_on_c, 1, 49, 80
3, 48960, Note_on_c, 1, 49, 0
3, 48960, Note_on_c, 1, 47, 80
3, 49080, Note_on_c, 1, 47, 0
3, 49200, Note_on_c, 1, 63, 64
3, 49200, Note_on_c, 1, 66, 64
3, 49320, Note_on_c, 1, 66, 0
3, 49320, Note_on_c, 1, 63, 0
3, 49560, Note_on_c, 1, 64, 64
3, 49560, Note_on_c, 1, 71, 64
3, 49680, Note_on_c, 1, 71, 0
3, 49680, Note_on_c, 1, 64, 0
3, 49680, Note_on_c, 1, 64, 64
3, 49680, Note_on_c, 1, 71, 64
3, 49800, Note_on_c, 1, 71, 0
3, 49800, Note_on_c, 1, 64, 0
3, 49800, Note_on_c, 1, 66, 64
3, 49800, Note_on_c, 1, 69, 64
3, 49920, Note_on_c, 1, 69, 0
3, 49920, Note_on_c, 1, 66, 0
3, 49920, Note_on_c, 1, 68, 64
3, 49920, Note_on_c, 1, 71, 64
3, 50160, Note_on_c, 1, 71, 0
3, 50160, Note_on_c, 1, 68, 0
3, 50280, Note_on_c, 1, 69, 64
3, 50280, Note_on_c, 1, 76, 64
3, 50400, Note_on_c, 1, 76, 0
3, 50400, Note_on_c, 1, 69, 0
3, 50400, Note_on_c, 1, 71, 64
3, 50400, Note_on_c, 1, 76, 64
3, 50520, Note_on_c, 1, 76, 0
3, 50520, Note_on_c, 1, 75, 64
3, 50640, Note_on_c, 1, 75, 0
3, 50640, Note_on_c, 1, 71, 0
3, 50640, Note_on_c, 1, 59, 80
3, 50680, Note_on_c, 1, 59, 0
3, 50680, Note_on_c, 1, 61, 80
3, 50720, Note_on_c, 1, 61, 0
3, 50720, Note_on_c, 1, 59, 80
3, 50760, Note_on_c, 1, 59, 0
3, 50760, Note_on_c, 1, 57, 80
3, 50800, Note_on_c, 1, 57, 0
3, 50800, Note_on_c, 1, 56, 80
3, 50840, Note_on_c, 1, 56, 0
3, 50840, Note_on_c, 1, 54, 80
3, 50880, Note_on_c, 1, 54, 0
3, 50880, Note_on_c, 1, 52, 80
3, 51120, Note_on_c, 1, 52, 0
3, 51240, Note_on_c, 1, 57, 80
3, 51300, Note_on_c, 1, 57, 0
3, 51360, Note_on_c, 1, 56, 80
3, 51480, Note_on_c, 1, 56, 0
3, 51480, Note_on_c, 1, 51, 80
3, 51540, Note_on_c, 1, 51, 0
3, 51600, Note_on_c, 1, 52, 80
3, 51660, Note_on_c, 1, 52, 0
3, 51720, Note_on_c, 1, 54, 80
3, 51780, Note_on_c, 1, 54, 0
3, 51840, Note_on_c, 1, 52, 64
3, 52080, Note_on_c, 1, 52, 0
3, 52200, Note_on_c, 1, 57, 64
3, 52260, Note_on_c, 1, 57, 0
3, 52320, Note_on_c, 1, 56, 64
3, 52440, Note_on_c, 1, 56, 0
3, 52440, Note_on_c, 1, 51, 64
3, 52500, Note_on_c, 1, 51, 0
3, 52560, Note_on_c, 1, 52, 64
3, 52620, Note_on_c, 1, 52, 0
3, 52680, Note_on_c, 1, 54, 64
3, 52740, Note_on_c, 1, 54, 0
3, 52800, Note_on_c, 1, 56, 64
3, 53040, Note_on_c, 1, 56, 0
3, 53400, Note_on_c, 1, 64, 74
3, 53400, Note_on_c, 1, 57, 74
3, 53448, Note_on_c, 1, 57, 0
3, 53448, Note_on_c, 1, 64, 0
3, 53520, Note_on_c, 1, 64, 76
3, 53520, Note_on_c, 1, 57, 76
3, 53568, Note_on_c, 1, 57, 0
3, 53568, Note_on_c, 1, 64, 0
3, 53880, Note_on_c, 1, 68, 80
3, 53880, Note_on_c, 1, 71, 80
3, 54000, Note_on_c, 1, 71, 0
3, 54000, Note_on_c, 1, 68, 0
3, 54000, Note_on_c, 1, 69, 80
3, 54000, Note_on_c, 1, 73, 80
3, 54084, Note_on_c, 1, 73, 0
3, 54084, Note_on_c, 1, 69, 0
3, 54240, Note_on_c, 1, 59, 80
3, 54240, Note_on_c, 1, 68, 80
3, 54480, Note_on_c, 1, 68, 0
3, 54480, Note_on_c, 1, 59, 0
3, 54480, Note_on_c, 1, 59, 80
3, 54480, Note_on_c, 1, 66, 80
3, 54600, Note_on_c, 1, 66, 0
3, 54600, Note_on_c, 1, 59, 0
3, 54720, Note_on_c, 1, 52, 88
3, 54760, Note_on_c, 1, 52, 0
3, 54760, Note_on_c, 1, 56, 88
3, 54800, Note_on_c, 1, 56, 0
3, 54800, Note_on_c, 1, 57, 88
3, 54840, Note_on_c, 1, 57, 0
3, 54840, Note_on_c, 1, 59, 88
3, 54880, Note_on_c, 1, 59, 0
3, 54880, Note_on_c, 1, 61, 88
3, 54920, Note_on_c, 1, 61, 0
3, 54920, Note_on_c, 1, 63, 88
3, 54960, Note_on_c, 1, 63, 0
3, 54960, Note_on_c, 1, 64, 88
3, 55000, Note_on_c, 1, 64, 0
3, 55000, Note_on_c, 1, 66, 88
3, 55040, Note_on_c, 1, 66, 0
3, 55040, Note_on_c, 1, 68, 88
3, 55080, Note_on_c, 1, 68, 0
3, 55080, Note_on_c, 1, 69, 88
3, 55200, Note_on_c, 1, 69, 0
3, 55200, Note_on_c, 1, 68, 88
3, 55440, Note_on_c, 1, 68, 0
3, 55560, Note_on_c, 1, 59, 64
3, 55560, Note_on_c, 1, 63, 64
3, 55680, Note_on_c, 1, 63, 0
3, 55680, Note_on_c, 1, 59, 0
3, 55680, Note_on_c, 1, 52, 64
3, 55720, Note_on_c, 1, 52, 0
3, 55720, Note_on_c, 1, 56, 64
3, 55760, Note_on_c, 1, 56, 0
3, 55760, Note_on_c, 1, 57, 64
3, 55800, Note_on_c, 1, 57, 0
3, 55800, Note_on_c, 1, 59, 64
3, 55840, Note_on_c, 1, 59, 0
3, 55840, Note_on_c, 1, 61, 64
3, 55880, Note_on_c, 1, 61, 0
3, 55880, Note_on_c, 1, 63, 64
3, 55920, Note_on_c, 1, 63, 0
3, 55920, Note_on_c, 1, 64, 64
3, 55960, Note_on_c, 1, 64, 0
3, 55960, Note_on_c, 1, 66, 64
3, 56000, Note_on_c, 1, 66, 0
3, 56000, Note_on_c, 1, 68, 64
3, 56040, Note_on_c, 1, 68, 0
3, 56040, Note_on_c, 1, 69, 64
3, 56160, Note_on_c, 1, 69, 0
3, 56160, Note_on_c, 1, 68, 64
3, 56400, Note_on_c, 1, 68, 0
3, 56520, Note_on_c, 1, 73, 64
3, 56560, Note_on_c, 1, 73, 0
3, 56560, Note_on_c, 1, 71, 64
3, 56600, Note_on_c, 1, 71, 0
3, 56600, Note_on_c, 1, 69, 64
3, 56640, Note_on_c, 1, 69, 0
3, 56640, Note_on_c, 1, 68, 64
3, 56680, Note_on_c, 1, 68, 0
3, 56680, Note_on_c, 1, 69, 65
3, 56720, Note_on_c, 1, 69, 0
3, 56720, Note_on_c, 1, 71, 65
3, 56760, Note_on_c, 1, 71, 0
3, 56760, Note_on_c, 1, 73, 66
3, 56800, Note_on_c, 1, 73, 0
3, 56800, Note_on_c, 1, 71, 67
3, 56840, Note_on_c, 1, 71, 0
3, 56840, Note_on_c, 1, 69, 67
3, 56880, Note_on_c, 1, 69, 0
3, 56880, Note_on_c, 1, 68, 68
3, 56920, Note_on_c, 1, 68, 0
3, 56920, Note_on_c, 1, 69, 69
3, 56960, Note_on_c, 1, 69, 0
3, 56960, Note_on_c, 1, 71, 69
3, 57000, Note_on_c, 1, 71, 0
3, 57000, Note_on_c, 1, 73, 70
3, 57040, Note_on_c, 1, 73, 0
3, 57040, Note_on_c, 1, 71, 71
3, 57080, Note_on_c, 1, 71, 0
3, 57080, Note_on_c, 1, 69, 71
3, 57120, Note_on_c, 1, 69, 0
3, 57120, Note_on_c, 1, 68, 72
3, 57240, Note_on_c, 1, 68, 0
3, 57240, Note_on_c, 1, 69, 74
3, 57288, Note_on_c, 1, 69, 0
3, 57360, Note_on_c, 1, 71, 76
3, 57408, Note_on_c, 1, 71, 0
3, 57480, Note_on_c, 1, 64, 78
3, 57528, Note_on_c, 1, 64, 0
3, 57600, Note_on_c, 1, 69, 80
3, 57840, Note_on_c, 1, 69, 0
3, 58200, Note_on_c, 1, 56, 80
3, 58248, Note_on_c, 1, 56, 0
3, 58320, Note_on_c, 1, 57, 80
3, 58440, Note_on_c, 1, 57, 0
3, 58440, Note_on_c, 1, 59, 80
3, 58560, Note_on_c, 1, 59, 0
3, 58560, Note_on_c, 1, 52, 80
3, 58600, Note_on_c, 1, 52, 0
3, 58600, Note_on_c, 1, 56, 80
3, 58640, Note_on_c, 1, 56, 0
3, 58640, Note_on_c, 1, 59, 80
3, 58680, Note_on_c, 1, 59, 0
3, 58680, Note_on_c, 1, 64, 80
3, 58720, Note_on_c, 1, 64, 0
3, 58720, Note_on_c, 1, 59, 80
3, 58760, Note_on_c, 1, 59, 0
3, 58760, Note_on_c, 1, 56, 80
3, 58800, Note_on_c, 1, 56, 0
3, 58800, Note_on_c, 1, 52, 80
3, 58920, Note_on_c, 1, 52, 0
3, 58920, Note_on_c, 1, 68, 80
3, 59040, Note_on_c, 1, 68, 0
3, 59040, Note_on_c, 1, 65, 80
3, 59160, Note_on_c, 1, 65, 0
3, 59160, Note_on_c, 1, 66, 80
3, 59280, Note_on_c, 1, 66, 0
3, 59280, Note_on_c, 1, 63, 80
3, 59400, Note_on_c, 1, 63, 0
3, 59400, Note_on_c, 1, 64, 80
3, 59520, Note_on_c, 1, 64, 0
3, 59520, Note_on_c, 1, 57, 80
3, 59640, Note_on_c, 1, 57, 0
3, 59640, Note_on_c, 1, 58, 80
3, 59688, Note_on_c, 1, 58, 0
3, 59760, Note_on_c, 1, 59, 80
3, 59808, Note_on_c, 1, 59, 0
3, 59880, Note_on_c, 1, 47, 80
3, 59928, Note_on_c, 1, 47, 0
3, 60000, Note_on_c, 1, 52, 80
3, 60040, Note_on_c, 1, 52, 0
3, 60040, Note_on_c, 1, 47, 80
3, 60080, Note_on_c, 1, 47, 0
3, 60080, Note_on_c, 1, 44, 80
3, 60120, Note_on_c, 1, 44, 0
3, 60120, Note_on_c, 1, 40, 80
3, 60160, Note_on_c, 1, 40, 0
3, 60160, Note_on_c, 1, 44, 80
3, 60200, Note_on_c, 1, 44, 0
3, 60200, Note_on_c, 1, 47, 80
3, 60240, Note_on_c, 1, 47, 0
3, 60240, Note_on_c, 1, 52, 80
3, 60360, Note_on_c, 1, 52, 0
3, 60360, Note_on_c, 1, 56, 80
3, 60408, Note_on_c, 1, 56, 0
3, 60480, Note_on_c, 1, 53, 80
3, 60600, Note_on_c, 1, 53, 0
3, 60600, Note_on_c, 1, 54, 80
3, 60720, Note_on_c, 1, 54, 0
3, 60720, Note_on_c, 1, 51, 80
3, 60840, Note_on_c, 1, 51, 0
3, 60840, Note_on_c, 1, 52, 80
3, 60900, Note_on_c, 1, 52, 0
3, 60900, Note_on_c, 1, 45, 88
3, 60915, Note_on_c, 1, 49, 88
3, 60930, Note_on_c, 1, 54, 88
3, 61080, Note_on_c, 1, 54, 0
3, 61080, Note_on_c, 1, 49, 0
3, 61080, Note_on_c, 1, 45, 0
3, 61200, Note_on_c, 1, 56, 80
3, 61200, Note_on_c, 1, 47, 80
3, 61320, Note_on_c, 1, 56, 0
3, 61320, Note_on_c, 1, 54, 80
3, 61440, Note_on_c, 1, 54, 0
3, 61440, Note_on_c, 1, 47, 0
3, 61440, Note_on_c, 1, 52, 80
3, 61560, Note_on_c, 1, 52, 0
3, 61800, Note_on_c, 1, 52, 80
3, 61840, Note_on_c, 1, 52, 0
3, 61840, Note_on_c, 1, 47, 80
3, 61880, Note_on_c, 1, 47, 0
3, 61880, Note_on_c, 1, 44, 80
3, 61920, Note_on_c, 1, 44, 0
3, 61920, Note_on_c, 1, 40, 80
3, 62040, Note_on_c, 1, 40, 0
3, 62040, End_track
4, 0, Start_track
4, 0, MIDI_port, 0
4, 0, Title_t, "MIDI by Marty Weimer updated 7/2/96"
4, 0, End_track
5, 0, Start_track
5, 0, MIDI_port, 0
5, 0, Title_t, "weimermt@libby.org  Eureka, MT  USA"
5, 0, End_track
0, 0, End_of_file
