0, 0, Header, 1, 5, 240
1, 0, Start_track
1, 0, Time_signature, 2, 2, 24, 8
1, 0, Key_signature, 0, "major"
1, 0, Tempo, 372671
1, 20880, Tempo, 428571
1, 21120, Tempo, 500000
1, 21600, Tempo, 372671
1, 21600, End_track
2, 0, Start_track
2, 0, MIDI_port, 0
2, 0, Title_t, "Piano Sonata No. 31 in E "
2, 0, Program_c, 0, 0
2, 0, Control_c, 0, 7, 127
2, 0, Control_c, 0, 10, 72
2, 360, Note_on_c, 0, 71, 80
2, 420, Note_on_c, 0, 71, 0
2, 480, Note_on_c, 0, 71, 80
2, 528, Note_on_c, 0, 71, 0
2, 540, Note_on_c, 0, 73, 80
2, 588, Note_on_c, 0, 73, 0
2, 600, Note_on_c, 0, 71, 80
2, 648, Note_on_c, 0, 71, 0
2, 660, Note_on_c, 0, 69, 80
2, 708, Note_on_c, 0, 69, 0
2, 720, Note_on_c, 0, 68, 80
2, 768, Note_on_c, 0, 68, 0
2, 840, Note_on_c, 0, 68, 80
2, 912, Note_on_c, 0, 68, 0
2, 960, Note_on_c, 0, 68, 80
2, 1008, Note_on_c, 0, 68, 0
2, 1020, Note_on_c, 0, 69, 80
2, 1068, Note_on_c, 0, 69, 0
2, 1080, Note_on_c, 0, 68, 80
2, 1128, Note_on_c, 0, 68, 0
2, 1140, Note_on_c, 0, 66, 80
2, 1188, Note_on_c, 0, 66, 0
2, 1200, Note_on_c, 0, 64, 80
2, 1248, Note_on_c, 0, 64, 0
2, 1320, Note_on_c, 0, 64, 80
2, 1392, Note_on_c, 0, 64, 0
2, 1440, Note_on_c, 0, 66, 80
2, 1472, Note_on_c, 0, 66, 0
2, 1480, Note_on_c, 0, 68, 80
2, 1512, Note_on_c, 0, 68, 0
2, 1520, Note_on_c, 0, 66, 80
2, 1552, Note_on_c, 0, 66, 0
2, 1560, Note_on_c, 0, 64, 80
2, 1608, Note_on_c, 0, 64, 0
2, 1680, Note_on_c, 0, 66, 80
2, 1712, Note_on_c, 0, 66, 0
2, 1720, Note_on_c, 0, 68, 80
2, 1752, Note_on_c, 0, 68, 0
2, 1760, Note_on_c, 0, 66, 80
2, 1792, Note_on_c, 0, 66, 0
2, 1800, Note_on_c, 0, 64, 80
2, 1848, Note_on_c, 0, 64, 0
2, 1920, Note_on_c, 0, 59, 80
2, 2158, Note_on_c, 0, 59, 0
2, 2280, Note_on_c, 0, 71, 80
2, 2340, Note_on_c, 0, 71, 0
2, 2400, Note_on_c, 0, 71, 80
2, 2448, Note_on_c, 0, 71, 0
2, 2460, Note_on_c, 0, 73, 80
2, 2508, Note_on_c, 0, 73, 0
2, 2520, Note_on_c, 0, 71, 80
2, 2568, Note_on_c, 0, 71, 0
2, 2580, Note_on_c, 0, 69, 80
2, 2628, Note_on_c, 0, 69, 0
2, 2640, Note_on_c, 0, 68, 80
2, 2688, Note_on_c, 0, 68, 0
2, 2760, Note_on_c, 0, 68, 80
2, 2832, Note_on_c, 0, 68, 0
2, 2880, Note_on_c, 0, 68, 80
2, 2928, Note_on_c, 0, 68, 0
2, 2940, Note_on_c, 0, 69, 80
2, 2988, Note_on_c, 0, 69, 0
2, 3000, Note_on_c, 0, 68, 80
2, 3048, Note_on_c, 0, 68, 0
2, 3060, Note_on_c, 0, 66, 80
2, 3108, Note_on_c, 0, 66, 0
2, 3120, Note_on_c, 0, 64, 80
2, 3216, Note_on_c, 0, 64, 0
2, 3240, Note_on_c, 0, 73, 80
2, 3312, Note_on_c, 0, 73, 0
2, 3360, Note_on_c, 0, 73, 80
2, 3408, Note_on_c, 0, 73, 0
2, 3420, Note_on_c, 0, 75, 80
2, 3468, Note_on_c, 0, 75, 0
2, 3480, Note_on_c, 0, 73, 80
2, 3528, Note_on_c, 0, 73, 0
2, 3540, Note_on_c, 0, 72, 80
2, 3588, Note_on_c, 0, 72, 0
2, 3600, Note_on_c, 0, 73, 80
2, 3648, Note_on_c, 0, 73, 0
2, 3720, Note_on_c, 0, 75, 80
2, 3768, Note_on_c, 0, 75, 0
2, 3840, Note_on_c, 0, 68, 80
2, 4078, Note_on_c, 0, 68, 0
2, 4200, Note_on_c, 0, 71, 80
2, 4272, Note_on_c, 0, 71, 0
2, 4320, Note_on_c, 0, 71, 80
2, 4368, Note_on_c, 0, 71, 0
2, 4380, Note_on_c, 0, 73, 80
2, 4428, Note_on_c, 0, 73, 0
2, 4440, Note_on_c, 0, 71, 80
2, 4488, Note_on_c, 0, 71, 0
2, 4500, Note_on_c, 0, 70, 80
2, 4548, Note_on_c, 0, 70, 0
2, 4560, Note_on_c, 0, 71, 80
2, 4608, Note_on_c, 0, 71, 0
2, 4680, Note_on_c, 0, 75, 80
2, 4752, Note_on_c, 0, 75, 0
2, 4800, Note_on_c, 0, 70, 80
2, 4848, Note_on_c, 0, 70, 0
2, 4860, Note_on_c, 0, 71, 80
2, 4908, Note_on_c, 0, 71, 0
2, 4920, Note_on_c, 0, 70, 80
2, 4968, Note_on_c, 0, 70, 0
2, 4980, Note_on_c, 0, 68, 80
2, 5028, Note_on_c, 0, 68, 0
2, 5040, Note_on_c, 0, 70, 80
2, 5088, Note_on_c, 0, 70, 0
2, 5160, Note_on_c, 0, 63, 80
2, 5232, Note_on_c, 0, 63, 0
2, 5280, Note_on_c, 0, 68, 80
2, 5328, Note_on_c, 0, 68, 0
2, 5340, Note_on_c, 0, 69, 80
2, 5388, Note_on_c, 0, 69, 0
2, 5400, Note_on_c, 0, 68, 80
2, 5448, Note_on_c, 0, 68, 0
2, 5460, Note_on_c, 0, 66, 80
2, 5508, Note_on_c, 0, 66, 0
2, 5520, Note_on_c, 0, 68, 80
2, 5568, Note_on_c, 0, 68, 0
2, 5640, Note_on_c, 0, 71, 80
2, 5712, Note_on_c, 0, 71, 0
2, 5760, Note_on_c, 0, 66, 80
2, 5808, Note_on_c, 0, 66, 0
2, 5820, Note_on_c, 0, 68, 80
2, 5868, Note_on_c, 0, 68, 0
2, 5880, Note_on_c, 0, 66, 80
2, 5928, Note_on_c, 0, 66, 0
2, 5940, Note_on_c, 0, 64, 80
2, 5988, Note_on_c, 0, 64, 0
2, 6000, Note_on_c, 0, 66, 80
2, 6048, Note_on_c, 0, 66, 0
2, 6120, Note_on_c, 0, 59, 80
2, 6192, Note_on_c, 0, 59, 0
2, 6240, Note_on_c, 0, 69, 80
2, 6288, Note_on_c, 0, 69, 0
2, 6300, Note_on_c, 0, 71, 80
2, 6348, Note_on_c, 0, 71, 0
2, 6360, Note_on_c, 0, 69, 80
2, 6408, Note_on_c, 0, 69, 0
2, 6420, Note_on_c, 0, 68, 80
2, 6468, Note_on_c, 0, 68, 0
2, 6480, Note_on_c, 0, 69, 80
2, 6528, Note_on_c, 0, 69, 0
2, 6600, Note_on_c, 0, 73, 80
2, 6672, Note_on_c, 0, 73, 0
2, 6720, Note_on_c, 0, 66, 80
2, 6752, Note_on_c, 0, 66, 0
2, 6760, Note_on_c, 0, 68, 80
2, 6792, Note_on_c, 0, 68, 0
2, 6800, Note_on_c, 0, 66, 80
2, 6832, Note_on_c, 0, 66, 0
2, 6840, Note_on_c, 0, 64, 80
2, 6888, Note_on_c, 0, 64, 0
2, 6960, Note_on_c, 0, 66, 80
2, 6992, Note_on_c, 0, 66, 0
2, 7000, Note_on_c, 0, 68, 80
2, 7032, Note_on_c, 0, 68, 0
2, 7040, Note_on_c, 0, 66, 80
2, 7072, Note_on_c, 0, 66, 0
2, 7080, Note_on_c, 0, 64, 80
2, 7128, Note_on_c, 0, 64, 0
2, 7140, Note_on_c, 0, 63, 80
2, 7188, Note_on_c, 0, 63, 0
2, 7200, Note_on_c, 0, 61, 80
2, 7296, Note_on_c, 0, 61, 0
2, 7320, Note_on_c, 0, 59, 80
2, 7368, Note_on_c, 0, 59, 0
2, 7440, Note_on_c, 0, 61, 80
2, 7488, Note_on_c, 0, 61, 0
2, 7560, Note_on_c, 0, 63, 80
2, 7608, Note_on_c, 0, 63, 0
2, 7680, Note_on_c, 0, 64, 80
2, 8033, Note_on_c, 0, 64, 0
2, 8040, Note_on_c, 0, 71, 80
2, 8153, Note_on_c, 0, 71, 0
2, 8160, Note_on_c, 0, 71, 80
2, 8218, Note_on_c, 0, 71, 0
2, 8220, Note_on_c, 0, 73, 80
2, 8278, Note_on_c, 0, 73, 0
2, 8280, Note_on_c, 0, 69, 80
2, 8338, Note_on_c, 0, 69, 0
2, 8340, Note_on_c, 0, 71, 80
2, 8398, Note_on_c, 0, 71, 0
2, 8400, Note_on_c, 0, 68, 80
2, 8448, Note_on_c, 0, 68, 0
2, 8520, Note_on_c, 0, 68, 80
2, 8592, Note_on_c, 0, 68, 0
2, 8640, Note_on_c, 0, 68, 80
2, 8698, Note_on_c, 0, 68, 0
2, 8700, Note_on_c, 0, 69, 80
2, 8758, Note_on_c, 0, 69, 0
2, 8760, Note_on_c, 0, 66, 80
2, 8818, Note_on_c, 0, 66, 0
2, 8820, Note_on_c, 0, 68, 80
2, 8878, Note_on_c, 0, 68, 0
2, 8880, Note_on_c, 0, 64, 80
2, 8928, Note_on_c, 0, 64, 0
2, 9000, Note_on_c, 0, 76, 80
2, 9058, Note_on_c, 0, 76, 0
2, 9060, Note_on_c, 0, 75, 80
2, 9118, Note_on_c, 0, 75, 0
2, 9120, Note_on_c, 0, 73, 80
2, 9178, Note_on_c, 0, 73, 0
2, 9180, Note_on_c, 0, 71, 80
2, 9238, Note_on_c, 0, 71, 0
2, 9240, Note_on_c, 0, 69, 80
2, 9298, Note_on_c, 0, 69, 0
2, 9300, Note_on_c, 0, 68, 80
2, 9358, Note_on_c, 0, 68, 0
2, 9360, Note_on_c, 0, 66, 80
2, 9418, Note_on_c, 0, 66, 0
2, 9420, Note_on_c, 0, 64, 80
2, 9478, Note_on_c, 0, 64, 0
2, 9480, Note_on_c, 0, 63, 80
2, 9538, Note_on_c, 0, 63, 0
2, 9540, Note_on_c, 0, 61, 80
2, 9598, Note_on_c, 0, 61, 0
2, 9600, Note_on_c, 0, 59, 80
2, 9838, Note_on_c, 0, 59, 0
2, 9960, Note_on_c, 0, 71, 80
2, 10032, Note_on_c, 0, 71, 0
2, 10080, Note_on_c, 0, 71, 80
2, 10138, Note_on_c, 0, 71, 0
2, 10140, Note_on_c, 0, 73, 80
2, 10198, Note_on_c, 0, 73, 0
2, 10200, Note_on_c, 0, 69, 80
2, 10258, Note_on_c, 0, 69, 0
2, 10260, Note_on_c, 0, 71, 80
2, 10318, Note_on_c, 0, 71, 0
2, 10320, Note_on_c, 0, 68, 80
2, 10368, Note_on_c, 0, 68, 0
2, 10440, Note_on_c, 0, 68, 80
2, 10512, Note_on_c, 0, 68, 0
2, 10560, Note_on_c, 0, 68, 80
2, 10618, Note_on_c, 0, 68, 0
2, 10620, Note_on_c, 0, 69, 80
2, 10678, Note_on_c, 0, 69, 0
2, 10680, Note_on_c, 0, 66, 80
2, 10738, Note_on_c, 0, 66, 0
2, 10740, Note_on_c, 0, 68, 80
2, 10798, Note_on_c, 0, 68, 0
2, 10800, Note_on_c, 0, 64, 80
2, 10848, Note_on_c, 0, 64, 0
2, 10920, Note_on_c, 0, 73, 80
2, 10992, Note_on_c, 0, 73, 0
2, 11040, Note_on_c, 0, 73, 80
2, 11098, Note_on_c, 0, 73, 0
2, 11100, Note_on_c, 0, 75, 80
2, 11158, Note_on_c, 0, 75, 0
2, 11160, Note_on_c, 0, 72, 80
2, 11218, Note_on_c, 0, 72, 0
2, 11220, Note_on_c, 0, 75, 80
2, 11278, Note_on_c, 0, 75, 0
2, 11280, Note_on_c, 0, 73, 80
2, 11338, Note_on_c, 0, 73, 0
2, 11340, Note_on_c, 0, 76, 80
2, 11398, Note_on_c, 0, 76, 0
2, 11400, Note_on_c, 0, 75, 80
2, 11458, Note_on_c, 0, 75, 0
2, 11460, Note_on_c, 0, 73, 80
2, 11518, Note_on_c, 0, 73, 0
2, 11520, Note_on_c, 0, 68, 80
2, 11758, Note_on_c, 0, 68, 0
2, 11880, Note_on_c, 0, 71, 80
2, 11998, Note_on_c, 0, 71, 0
2, 12000, Note_on_c, 0, 71, 80
2, 12058, Note_on_c, 0, 71, 0
2, 12060, Note_on_c, 0, 73, 80
2, 12118, Note_on_c, 0, 73, 0
2, 12120, Note_on_c, 0, 71, 80
2, 12178, Note_on_c, 0, 71, 0
2, 12180, Note_on_c, 0, 70, 80
2, 12238, Note_on_c, 0, 70, 0
2, 12240, Note_on_c, 0, 71, 80
2, 12298, Note_on_c, 0, 71, 0
2, 12300, Note_on_c, 0, 75, 80
2, 12358, Note_on_c, 0, 75, 0
2, 12360, Note_on_c, 0, 73, 80
2, 12418, Note_on_c, 0, 73, 0
2, 12420, Note_on_c, 0, 71, 80
2, 12478, Note_on_c, 0, 71, 0
2, 12480, Note_on_c, 0, 70, 80
2, 12538, Note_on_c, 0, 70, 0
2, 12540, Note_on_c, 0, 71, 80
2, 12598, Note_on_c, 0, 71, 0
2, 12600, Note_on_c, 0, 70, 80
2, 12658, Note_on_c, 0, 70, 0
2, 12660, Note_on_c, 0, 68, 80
2, 12718, Note_on_c, 0, 68, 0
2, 12720, Note_on_c, 0, 70, 80
2, 12768, Note_on_c, 0, 70, 0
2, 12840, Note_on_c, 0, 63, 80
2, 12912, Note_on_c, 0, 63, 0
2, 12960, Note_on_c, 0, 68, 80
2, 13018, Note_on_c, 0, 68, 0
2, 13020, Note_on_c, 0, 69, 80
2, 13078, Note_on_c, 0, 69, 0
2, 13080, Note_on_c, 0, 68, 80
2, 13138, Note_on_c, 0, 68, 0
2, 13140, Note_on_c, 0, 66, 80
2, 13198, Note_on_c, 0, 66, 0
2, 13200, Note_on_c, 0, 68, 80
2, 13258, Note_on_c, 0, 68, 0
2, 13260, Note_on_c, 0, 71, 80
2, 13318, Note_on_c, 0, 71, 0
2, 13320, Note_on_c, 0, 69, 80
2, 13378, Note_on_c, 0, 69, 0
2, 13380, Note_on_c, 0, 68, 80
2, 13438, Note_on_c, 0, 68, 0
2, 13440, Note_on_c, 0, 66, 80
2, 13498, Note_on_c, 0, 66, 0
2, 13500, Note_on_c, 0, 64, 80
2, 13558, Note_on_c, 0, 64, 0
2, 13560, Note_on_c, 0, 63, 80
2, 13618, Note_on_c, 0, 63, 0
2, 13620, Note_on_c, 0, 61, 80
2, 13678, Note_on_c, 0, 61, 0
2, 13680, Note_on_c, 0, 59, 80
2, 13728, Note_on_c, 0, 59, 0
2, 13800, Note_on_c, 0, 59, 80
2, 13872, Note_on_c, 0, 59, 0
2, 13920, Note_on_c, 0, 69, 80
2, 13978, Note_on_c, 0, 69, 0
2, 13980, Note_on_c, 0, 71, 80
2, 14038, Note_on_c, 0, 71, 0
2, 14040, Note_on_c, 0, 69, 80
2, 14098, Note_on_c, 0, 69, 0
2, 14100, Note_on_c, 0, 68, 80
2, 14158, Note_on_c, 0, 68, 0
2, 14160, Note_on_c, 0, 69, 80
2, 14208, Note_on_c, 0, 69, 0
2, 14280, Note_on_c, 0, 73, 80
2, 14352, Note_on_c, 0, 73, 0
2, 14400, Note_on_c, 0, 66, 80
2, 14458, Note_on_c, 0, 66, 0
2, 14460, Note_on_c, 0, 68, 80
2, 14518, Note_on_c, 0, 68, 0
2, 14520, Note_on_c, 0, 64, 80
2, 14580, Note_on_c, 0, 64, 0
2, 14640, Note_on_c, 0, 66, 80
2, 14698, Note_on_c, 0, 66, 0
2, 14700, Note_on_c, 0, 68, 80
2, 14758, Note_on_c, 0, 68, 0
2, 14760, Note_on_c, 0, 64, 80
2, 14832, Note_on_c, 0, 64, 0
2, 14880, Note_on_c, 0, 61, 80
2, 14938, Note_on_c, 0, 61, 0
2, 14940, Note_on_c, 0, 63, 80
2, 14998, Note_on_c, 0, 63, 0
2, 15000, Note_on_c, 0, 59, 80
2, 15096, Note_on_c, 0, 59, 0
2, 15120, Note_on_c, 0, 61, 80
2, 15178, Note_on_c, 0, 61, 0
2, 15180, Note_on_c, 0, 64, 80
2, 15238, Note_on_c, 0, 64, 0
2, 15240, Note_on_c, 0, 63, 80
2, 15298, Note_on_c, 0, 63, 0
2, 15300, Note_on_c, 0, 66, 80
2, 15358, Note_on_c, 0, 66, 0
2, 15360, Note_on_c, 0, 64, 80
2, 15598, Note_on_c, 0, 64, 0
2, 15720, Note_on_c, 0, 83, 64
2, 15720, Note_on_c, 0, 80, 64
2, 15780, Note_on_c, 0, 80, 0
2, 15780, Note_on_c, 0, 83, 0
2, 15840, Note_on_c, 0, 80, 64
2, 15840, Note_on_c, 0, 83, 64
2, 15958, Note_on_c, 0, 83, 0
2, 15958, Note_on_c, 0, 80, 0
2, 15960, Note_on_c, 0, 78, 64
2, 15960, Note_on_c, 0, 81, 64
2, 16078, Note_on_c, 0, 81, 0
2, 16078, Note_on_c, 0, 78, 0
2, 16080, Note_on_c, 0, 76, 64
2, 16080, Note_on_c, 0, 80, 64
2, 16128, Note_on_c, 0, 80, 0
2, 16128, Note_on_c, 0, 76, 0
2, 16200, Note_on_c, 0, 80, 64
2, 16272, Note_on_c, 0, 80, 0
2, 16320, Note_on_c, 0, 80, 64
2, 16438, Note_on_c, 0, 80, 0
2, 16440, Note_on_c, 0, 78, 64
2, 16558, Note_on_c, 0, 78, 0
2, 16560, Note_on_c, 0, 76, 64
2, 16608, Note_on_c, 0, 76, 0
2, 16680, Note_on_c, 0, 88, 64
2, 16920, Note_on_c, 0, 88, 0
2, 16920, Note_on_c, 0, 85, 64
2, 17040, Note_on_c, 0, 85, 0
2, 17040, Note_on_c, 0, 80, 64
2, 17112, Note_on_c, 0, 80, 0
2, 17160, Note_on_c, 0, 82, 64
2, 17232, Note_on_c, 0, 82, 0
2, 17280, Note_on_c, 0, 82, 64
2, 17518, Note_on_c, 0, 82, 0
2, 17520, Note_on_c, 0, 83, 64
2, 17568, Note_on_c, 0, 83, 0
2, 17640, Note_on_c, 0, 80, 64
2, 17640, Note_on_c, 0, 83, 64
2, 17712, Note_on_c, 0, 83, 0
2, 17712, Note_on_c, 0, 80, 0
2, 17760, Note_on_c, 0, 80, 64
2, 17760, Note_on_c, 0, 83, 64
2, 17878, Note_on_c, 0, 83, 0
2, 17878, Note_on_c, 0, 80, 0
2, 17880, Note_on_c, 0, 78, 64
2, 17880, Note_on_c, 0, 81, 64
2, 17998, Note_on_c, 0, 81, 0
2, 17998, Note_on_c, 0, 78, 0
2, 18000, Note_on_c, 0, 76, 64
2, 18000, Note_on_c, 0, 80, 64
2, 18048, Note_on_c, 0, 80, 0
2, 18048, Note_on_c, 0, 76, 0
2, 18120, Note_on_c, 0, 80, 64
2, 18192, Note_on_c, 0, 80, 0
2, 18240, Note_on_c, 0, 80, 64
2, 18358, Note_on_c, 0, 80, 0
2, 18360, Note_on_c, 0, 78, 64
2, 18478, Note_on_c, 0, 78, 0
2, 18480, Note_on_c, 0, 76, 64
2, 18528, Note_on_c, 0, 76, 0
2, 18600, Note_on_c, 0, 80, 64
2, 18720, Note_on_c, 0, 80, 0
2, 18720, Note_on_c, 0, 78, 64
2, 18840, Note_on_c, 0, 78, 0
2, 18840, Note_on_c, 0, 73, 64
2, 18840, Note_on_c, 0, 76, 64
2, 18888, Note_on_c, 0, 76, 0
2, 18888, Note_on_c, 0, 73, 0
2, 18960, Note_on_c, 0, 71, 64
2, 18960, Note_on_c, 0, 75, 64
2, 19008, Note_on_c, 0, 75, 0
2, 19008, Note_on_c, 0, 71, 0
2, 19080, Note_on_c, 0, 70, 64
2, 19080, Note_on_c, 0, 73, 64
2, 19128, Note_on_c, 0, 73, 0
2, 19128, Note_on_c, 0, 70, 0
2, 19200, Note_on_c, 0, 71, 64
2, 19438, Note_on_c, 0, 71, 0
2, 19560, Note_on_c, 0, 78, 64
2, 19560, Note_on_c, 0, 75, 64
2, 19678, Note_on_c, 0, 75, 0
2, 19678, Note_on_c, 0, 78, 0
2, 19680, Note_on_c, 0, 75, 64
2, 19680, Note_on_c, 0, 78, 64
2, 19798, Note_on_c, 0, 78, 0
2, 19798, Note_on_c, 0, 75, 0
2, 19800, Note_on_c, 0, 73, 64
2, 19800, Note_on_c, 0, 76, 64
2, 19918, Note_on_c, 0, 76, 0
2, 19918, Note_on_c, 0, 73, 0
2, 19920, Note_on_c, 0, 71, 64
2, 19920, Note_on_c, 0, 75, 64
2, 19968, Note_on_c, 0, 75, 0
2, 19968, Note_on_c, 0, 71, 0
2, 20040, Note_on_c, 0, 78, 64
2, 20040, Note_on_c, 0, 81, 64
2, 20112, Note_on_c, 0, 81, 0
2, 20112, Note_on_c, 0, 78, 0
2, 20160, Note_on_c, 0, 78, 64
2, 20160, Note_on_c, 0, 81, 64
2, 20278, Note_on_c, 0, 81, 0
2, 20278, Note_on_c, 0, 78, 0
2, 20280, Note_on_c, 0, 76, 64
2, 20280, Note_on_c, 0, 80, 64
2, 20398, Note_on_c, 0, 80, 0
2, 20398, Note_on_c, 0, 76, 0
2, 20400, Note_on_c, 0, 75, 64
2, 20400, Note_on_c, 0, 78, 64
2, 20448, Note_on_c, 0, 78, 0
2, 20448, Note_on_c, 0, 75, 0
2, 20520, Note_on_c, 0, 81, 64
2, 20520, Note_on_c, 0, 85, 64
2, 20592, Note_on_c, 0, 85, 0
2, 20592, Note_on_c, 0, 81, 0
2, 20640, Note_on_c, 0, 81, 64
2, 20640, Note_on_c, 0, 85, 64
2, 20760, Note_on_c, 0, 85, 0
2, 20760, Note_on_c, 0, 81, 0
2, 20760, Note_on_c, 0, 80, 64
2, 20760, Note_on_c, 0, 83, 64
2, 20808, Note_on_c, 0, 83, 0
2, 20808, Note_on_c, 0, 80, 0
2, 20880, Note_on_c, 0, 78, 64
2, 20880, Note_on_c, 0, 81, 64
2, 20928, Note_on_c, 0, 81, 0
2, 20928, Note_on_c, 0, 78, 0
2, 21000, Note_on_c, 0, 76, 64
2, 21000, Note_on_c, 0, 80, 64
2, 21048, Note_on_c, 0, 80, 0
2, 21048, Note_on_c, 0, 76, 0
2, 21120, Note_on_c, 0, 71, 64
2, 21120, Note_on_c, 0, 75, 64
2, 21120, Note_on_c, 0, 78, 64
2, 21570, Note_on_c, 0, 78, 0
2, 21570, Note_on_c, 0, 75, 0
2, 21570, Note_on_c, 0, 71, 0
2, 21960, Note_on_c, 0, 76, 64
2, 21960, Note_on_c, 0, 71, 64
2, 22032, Note_on_c, 0, 71, 0
2, 22032, Note_on_c, 0, 76, 0
2, 22080, Note_on_c, 0, 71, 64
2, 22080, Note_on_c, 0, 76, 64
2, 22188, Note_on_c, 0, 76, 0
2, 22188, Note_on_c, 0, 71, 0
2, 22200, Note_on_c, 0, 78, 64
2, 22308, Note_on_c, 0, 78, 0
2, 22320, Note_on_c, 0, 80, 64
2, 22368, Note_on_c, 0, 80, 0
2, 22440, Note_on_c, 0, 71, 64
2, 22440, Note_on_c, 0, 78, 64
2, 22512, Note_on_c, 0, 78, 0
2, 22512, Note_on_c, 0, 71, 0
2, 22560, Note_on_c, 0, 71, 64
2, 22560, Note_on_c, 0, 78, 64
2, 22678, Note_on_c, 0, 78, 0
2, 22680, Note_on_c, 0, 80, 64
2, 22798, Note_on_c, 0, 80, 0
2, 22800, Note_on_c, 0, 81, 64
2, 22848, Note_on_c, 0, 81, 0
2, 22918, Note_on_c, 0, 71, 0
2, 22920, Note_on_c, 0, 71, 64
2, 22920, Note_on_c, 0, 80, 64
2, 22992, Note_on_c, 0, 80, 0
2, 22992, Note_on_c, 0, 71, 0
2, 23040, Note_on_c, 0, 80, 64
2, 23040, Note_on_c, 0, 83, 64
2, 23158, Note_on_c, 0, 83, 0
2, 23158, Note_on_c, 0, 80, 0
2, 23160, Note_on_c, 0, 78, 64
2, 23160, Note_on_c, 0, 81, 64
2, 23208, Note_on_c, 0, 81, 0
2, 23208, Note_on_c, 0, 78, 0
2, 23280, Note_on_c, 0, 76, 64
2, 23280, Note_on_c, 0, 80, 64
2, 23328, Note_on_c, 0, 80, 0
2, 23328, Note_on_c, 0, 76, 0
2, 23400, Note_on_c, 0, 75, 64
2, 23400, Note_on_c, 0, 78, 64
2, 23448, Note_on_c, 0, 78, 0
2, 23448, Note_on_c, 0, 75, 0
2, 23520, Note_on_c, 0, 76, 64
2, 23758, Note_on_c, 0, 76, 0
2, 23880, Note_on_c, 0, 71, 88
2, 23998, Note_on_c, 0, 71, 0
2, 24000, Note_on_c, 0, 67, 88
2, 24000, Note_on_c, 0, 71, 88
2, 24000, Note_on_c, 0, 76, 88
2, 24238, Note_on_c, 0, 76, 0
2, 24238, Note_on_c, 0, 71, 0
2, 24238, Note_on_c, 0, 67, 0
2, 24360, Note_on_c, 0, 67, 88
2, 24360, Note_on_c, 0, 71, 88
2, 24432, Note_on_c, 0, 71, 0
2, 24432, Note_on_c, 0, 67, 0
2, 24480, Note_on_c, 0, 69, 88
2, 24480, Note_on_c, 0, 72, 88
2, 24718, Note_on_c, 0, 72, 0
2, 24718, Note_on_c, 0, 69, 0
2, 24840, Note_on_c, 0, 71, 88
2, 24840, Note_on_c, 0, 67, 88
2, 24912, Note_on_c, 0, 67, 0
2, 24912, Note_on_c, 0, 71, 0
2, 24960, Note_on_c, 0, 66, 88
2, 24960, Note_on_c, 0, 69, 88
2, 25032, Note_on_c, 0, 69, 0
2, 25032, Note_on_c, 0, 66, 0
2, 25080, Note_on_c, 0, 66, 88
2, 25080, Note_on_c, 0, 69, 88
2, 25152, Note_on_c, 0, 69, 0
2, 25152, Note_on_c, 0, 66, 0
2, 25200, Note_on_c, 0, 64, 88
2, 25200, Note_on_c, 0, 67, 88
2, 25272, Note_on_c, 0, 67, 0
2, 25272, Note_on_c, 0, 64, 0
2, 25320, Note_on_c, 0, 64, 88
2, 25320, Note_on_c, 0, 67, 88
2, 25392, Note_on_c, 0, 67, 0
2, 25392, Note_on_c, 0, 64, 0
2, 25440, Note_on_c, 0, 63, 88
2, 25440, Note_on_c, 0, 66, 88
2, 25678, Note_on_c, 0, 66, 0
2, 25678, Note_on_c, 0, 63, 0
2, 25800, Note_on_c, 0, 74, 88
2, 25918, Note_on_c, 0, 74, 0
2, 25920, Note_on_c, 0, 71, 88
2, 25920, Note_on_c, 0, 79, 88
2, 26158, Note_on_c, 0, 79, 0
2, 26158, Note_on_c, 0, 71, 0
2, 26280, Note_on_c, 0, 71, 88
2, 26280, Note_on_c, 0, 74, 88
2, 26398, Note_on_c, 0, 74, 0
2, 26398, Note_on_c, 0, 71, 0
2, 26400, Note_on_c, 0, 72, 88
2, 26400, Note_on_c, 0, 76, 88
2, 26638, Note_on_c, 0, 76, 0
2, 26638, Note_on_c, 0, 72, 0
2, 26760, Note_on_c, 0, 72, 88
2, 26760, Note_on_c, 0, 76, 88
2, 26878, Note_on_c, 0, 76, 0
2, 26878, Note_on_c, 0, 72, 0
2, 26880, Note_on_c, 0, 71, 88
2, 26880, Note_on_c, 0, 74, 88
2, 26928, Note_on_c, 0, 74, 0
2, 26928, Note_on_c, 0, 71, 0
2, 27000, Note_on_c, 0, 69, 88
2, 27000, Note_on_c, 0, 72, 88
2, 27048, Note_on_c, 0, 72, 0
2, 27048, Note_on_c, 0, 69, 0
2, 27120, Note_on_c, 0, 67, 88
2, 27120, Note_on_c, 0, 71, 88
2, 27168, Note_on_c, 0, 71, 0
2, 27168, Note_on_c, 0, 67, 0
2, 27240, Note_on_c, 0, 66, 88
2, 27240, Note_on_c, 0, 69, 88
2, 27288, Note_on_c, 0, 69, 0
2, 27288, Note_on_c, 0, 66, 0
2, 27360, Note_on_c, 0, 67, 88
2, 27598, Note_on_c, 0, 67, 0
2, 27720, Note_on_c, 0, 71, 88
2, 27838, Note_on_c, 0, 71, 0
2, 27840, Note_on_c, 0, 83, 88
2, 27898, Note_on_c, 0, 83, 0
2, 27900, Note_on_c, 0, 71, 88
2, 27958, Note_on_c, 0, 71, 0
2, 27960, Note_on_c, 0, 70, 88
2, 28018, Note_on_c, 0, 70, 0
2, 28020, Note_on_c, 0, 71, 88
2, 28078, Note_on_c, 0, 71, 0
2, 28080, Note_on_c, 0, 83, 88
2, 28138, Note_on_c, 0, 83, 0
2, 28140, Note_on_c, 0, 71, 88
2, 28198, Note_on_c, 0, 71, 0
2, 28200, Note_on_c, 0, 83, 88
2, 28258, Note_on_c, 0, 83, 0
2, 28260, Note_on_c, 0, 71, 88
2, 28318, Note_on_c, 0, 71, 0
2, 28320, Note_on_c, 0, 83, 88
2, 28378, Note_on_c, 0, 83, 0
2, 28380, Note_on_c, 0, 71, 88
2, 28438, Note_on_c, 0, 71, 0
2, 28440, Note_on_c, 0, 70, 88
2, 28498, Note_on_c, 0, 70, 0
2, 28500, Note_on_c, 0, 71, 88
2, 28558, Note_on_c, 0, 71, 0
2, 28560, Note_on_c, 0, 83, 88
2, 28618, Note_on_c, 0, 83, 0
2, 28620, Note_on_c, 0, 71, 88
2, 28678, Note_on_c, 0, 71, 0
2, 28680, Note_on_c, 0, 83, 88
2, 28738, Note_on_c, 0, 83, 0
2, 28740, Note_on_c, 0, 71, 88
2, 28798, Note_on_c, 0, 71, 0
2, 28800, Note_on_c, 0, 83, 88
2, 28858, Note_on_c, 0, 83, 0
2, 28860, Note_on_c, 0, 71, 88
2, 28918, Note_on_c, 0, 71, 0
2, 28920, Note_on_c, 0, 70, 88
2, 28978, Note_on_c, 0, 70, 0
2, 28980, Note_on_c, 0, 71, 88
2, 29038, Note_on_c, 0, 71, 0
2, 29040, Note_on_c, 0, 83, 88
2, 29098, Note_on_c, 0, 83, 0
2, 29100, Note_on_c, 0, 71, 88
2, 29158, Note_on_c, 0, 71, 0
2, 29160, Note_on_c, 0, 83, 88
2, 29218, Note_on_c, 0, 83, 0
2, 29220, Note_on_c, 0, 71, 88
2, 29278, Note_on_c, 0, 71, 0
2, 29280, Note_on_c, 0, 83, 88
2, 29338, Note_on_c, 0, 83, 0
2, 29340, Note_on_c, 0, 71, 88
2, 29398, Note_on_c, 0, 71, 0
2, 29400, Note_on_c, 0, 70, 88
2, 29458, Note_on_c, 0, 70, 0
2, 29460, Note_on_c, 0, 71, 88
2, 29518, Note_on_c, 0, 71, 0
2, 29520, Note_on_c, 0, 83, 88
2, 29578, Note_on_c, 0, 83, 0
2, 29580, Note_on_c, 0, 71, 88
2, 29638, Note_on_c, 0, 71, 0
2, 29640, Note_on_c, 0, 83, 88
2, 29698, Note_on_c, 0, 83, 0
2, 29700, Note_on_c, 0, 71, 80
2, 29758, Note_on_c, 0, 71, 0
2, 29760, Note_on_c, 0, 84, 88
2, 29818, Note_on_c, 0, 84, 0
2, 29820, Note_on_c, 0, 72, 88
2, 29878, Note_on_c, 0, 72, 0
2, 29880, Note_on_c, 0, 84, 88
2, 29938, Note_on_c, 0, 84, 0
2, 29940, Note_on_c, 0, 72, 88
2, 29998, Note_on_c, 0, 72, 0
2, 30000, Note_on_c, 0, 87, 88
2, 30058, Note_on_c, 0, 87, 0
2, 30060, Note_on_c, 0, 75, 88
2, 30118, Note_on_c, 0, 75, 0
2, 30120, Note_on_c, 0, 87, 88
2, 30178, Note_on_c, 0, 87, 0
2, 30180, Note_on_c, 0, 75, 88
2, 30238, Note_on_c, 0, 75, 0
2, 30240, Note_on_c, 0, 88, 88
2, 30298, Note_on_c, 0, 88, 0
2, 30300, Note_on_c, 0, 76, 88
2, 30358, Note_on_c, 0, 76, 0
2, 30360, Note_on_c, 0, 75, 88
2, 30418, Note_on_c, 0, 75, 0
2, 30420, Note_on_c, 0, 76, 88
2, 30478, Note_on_c, 0, 76, 0
2, 30480, Note_on_c, 0, 88, 88
2, 30538, Note_on_c, 0, 88, 0
2, 30540, Note_on_c, 0, 76, 88
2, 30598, Note_on_c, 0, 76, 0
2, 30600, Note_on_c, 0, 88, 88
2, 30658, Note_on_c, 0, 88, 0
2, 30660, Note_on_c, 0, 76, 88
2, 30718, Note_on_c, 0, 76, 0
2, 30720, Note_on_c, 0, 84, 88
2, 30768, Note_on_c, 0, 84, 0
2, 30780, Note_on_c, 0, 76, 88
2, 30828, Note_on_c, 0, 76, 0
2, 30840, Note_on_c, 0, 84, 88
2, 30888, Note_on_c, 0, 84, 0
2, 30900, Note_on_c, 0, 76, 88
2, 30948, Note_on_c, 0, 76, 0
2, 30960, Note_on_c, 0, 75, 88
2, 31008, Note_on_c, 0, 75, 0
2, 31020, Note_on_c, 0, 71, 88
2, 31068, Note_on_c, 0, 71, 0
2, 31080, Note_on_c, 0, 75, 88
2, 31128, Note_on_c, 0, 75, 0
2, 31140, Note_on_c, 0, 71, 88
2, 31188, Note_on_c, 0, 71, 0
2, 31200, Note_on_c, 0, 76, 88
2, 31438, Note_on_c, 0, 76, 0
2, 31560, Note_on_c, 0, 71, 80
2, 31620, Note_on_c, 0, 71, 0
2, 31680, Note_on_c, 0, 71, 80
2, 31728, Note_on_c, 0, 71, 0
2, 31740, Note_on_c, 0, 73, 80
2, 31788, Note_on_c, 0, 73, 0
2, 31800, Note_on_c, 0, 71, 80
2, 31848, Note_on_c, 0, 71, 0
2, 31860, Note_on_c, 0, 69, 80
2, 31908, Note_on_c, 0, 69, 0
2, 31920, Note_on_c, 0, 68, 80
2, 31968, Note_on_c, 0, 68, 0
2, 32040, Note_on_c, 0, 68, 80
2, 32112, Note_on_c, 0, 68, 0
2, 32160, Note_on_c, 0, 68, 80
2, 32208, Note_on_c, 0, 68, 0
2, 32220, Note_on_c, 0, 69, 80
2, 32268, Note_on_c, 0, 69, 0
2, 32280, Note_on_c, 0, 68, 80
2, 32328, Note_on_c, 0, 68, 0
2, 32340, Note_on_c, 0, 66, 80
2, 32388, Note_on_c, 0, 66, 0
2, 32400, Note_on_c, 0, 64, 80
2, 32448, Note_on_c, 0, 64, 0
2, 32520, Note_on_c, 0, 64, 80
2, 32592, Note_on_c, 0, 64, 0
2, 32640, Note_on_c, 0, 66, 80
2, 32672, Note_on_c, 0, 66, 0
2, 32680, Note_on_c, 0, 68, 80
2, 32712, Note_on_c, 0, 68, 0
2, 32720, Note_on_c, 0, 66, 80
2, 32752, Note_on_c, 0, 66, 0
2, 32760, Note_on_c, 0, 64, 80
2, 32808, Note_on_c, 0, 64, 0
2, 32880, Note_on_c, 0, 66, 80
2, 32912, Note_on_c, 0, 66, 0
2, 32920, Note_on_c, 0, 68, 80
2, 32952, Note_on_c, 0, 68, 0
2, 32960, Note_on_c, 0, 66, 80
2, 32992, Note_on_c, 0, 66, 0
2, 33000, Note_on_c, 0, 64, 80
2, 33048, Note_on_c, 0, 64, 0
2, 33120, Note_on_c, 0, 59, 80
2, 33358, Note_on_c, 0, 59, 0
2, 33480, Note_on_c, 0, 71, 80
2, 33540, Note_on_c, 0, 71, 0
2, 33600, Note_on_c, 0, 71, 80
2, 33648, Note_on_c, 0, 71, 0
2, 33660, Note_on_c, 0, 73, 80
2, 33708, Note_on_c, 0, 73, 0
2, 33720, Note_on_c, 0, 71, 80
2, 33768, Note_on_c, 0, 71, 0
2, 33780, Note_on_c, 0, 69, 80
2, 33828, Note_on_c, 0, 69, 0
2, 33840, Note_on_c, 0, 68, 80
2, 33888, Note_on_c, 0, 68, 0
2, 33960, Note_on_c, 0, 68, 80
2, 34032, Note_on_c, 0, 68, 0
2, 34080, Note_on_c, 0, 68, 80
2, 34128, Note_on_c, 0, 68, 0
2, 34140, Note_on_c, 0, 69, 80
2, 34188, Note_on_c, 0, 69, 0
2, 34200, Note_on_c, 0, 68, 80
2, 34248, Note_on_c, 0, 68, 0
2, 34260, Note_on_c, 0, 66, 80
2, 34308, Note_on_c, 0, 66, 0
2, 34320, Note_on_c, 0, 64, 80
2, 34368, Note_on_c, 0, 64, 0
2, 34440, Note_on_c, 0, 64, 80
2, 34512, Note_on_c, 0, 64, 0
2, 34560, Note_on_c, 0, 73, 80
2, 34608, Note_on_c, 0, 73, 0
2, 34620, Note_on_c, 0, 75, 80
2, 34668, Note_on_c, 0, 75, 0
2, 34680, Note_on_c, 0, 73, 80
2, 34728, Note_on_c, 0, 73, 0
2, 34740, Note_on_c, 0, 72, 80
2, 34788, Note_on_c, 0, 72, 0
2, 34800, Note_on_c, 0, 73, 80
2, 34848, Note_on_c, 0, 73, 0
2, 34920, Note_on_c, 0, 75, 80
2, 34992, Note_on_c, 0, 75, 0
2, 35040, Note_on_c, 0, 68, 80
2, 35278, Note_on_c, 0, 68, 0
2, 35400, Note_on_c, 0, 71, 88
2, 35460, Note_on_c, 0, 71, 0
2, 35520, Note_on_c, 0, 73, 88
2, 35578, Note_on_c, 0, 73, 0
2, 35580, Note_on_c, 0, 71, 88
2, 35638, Note_on_c, 0, 71, 0
2, 35640, Note_on_c, 0, 76, 88
2, 35698, Note_on_c, 0, 76, 0
2, 35700, Note_on_c, 0, 75, 88
2, 35758, Note_on_c, 0, 75, 0
2, 35760, Note_on_c, 0, 73, 88
2, 35818, Note_on_c, 0, 73, 0
2, 35820, Note_on_c, 0, 71, 88
2, 35878, Note_on_c, 0, 71, 0
2, 35880, Note_on_c, 0, 69, 88
2, 35938, Note_on_c, 0, 69, 0
2, 35940, Note_on_c, 0, 68, 88
2, 35998, Note_on_c, 0, 68, 0
2, 36000, Note_on_c, 0, 69, 88
2, 36058, Note_on_c, 0, 69, 0
2, 36060, Note_on_c, 0, 68, 88
2, 36118, Note_on_c, 0, 68, 0
2, 36120, Note_on_c, 0, 73, 88
2, 36178, Note_on_c, 0, 73, 0
2, 36180, Note_on_c, 0, 71, 88
2, 36238, Note_on_c, 0, 71, 0
2, 36240, Note_on_c, 0, 69, 88
2, 36298, Note_on_c, 0, 69, 0
2, 36300, Note_on_c, 0, 68, 88
2, 36358, Note_on_c, 0, 68, 0
2, 36360, Note_on_c, 0, 66, 88
2, 36418, Note_on_c, 0, 66, 0
2, 36420, Note_on_c, 0, 64, 88
2, 36478, Note_on_c, 0, 64, 0
2, 36480, Note_on_c, 0, 68, 88
2, 36538, Note_on_c, 0, 68, 0
2, 36540, Note_on_c, 0, 66, 88
2, 36598, Note_on_c, 0, 66, 0
2, 36600, Note_on_c, 0, 69, 88
2, 36658, Note_on_c, 0, 69, 0
2, 36660, Note_on_c, 0, 68, 88
2, 36718, Note_on_c, 0, 68, 0
2, 36720, Note_on_c, 0, 66, 88
2, 36778, Note_on_c, 0, 66, 0
2, 36780, Note_on_c, 0, 64, 88
2, 36838, Note_on_c, 0, 64, 0
2, 36840, Note_on_c, 0, 63, 88
2, 36898, Note_on_c, 0, 63, 0
2, 36900, Note_on_c, 0, 61, 88
2, 36958, Note_on_c, 0, 61, 0
2, 36960, Note_on_c, 0, 59, 88
2, 37198, Note_on_c, 0, 59, 0
2, 37320, Note_on_c, 0, 71, 88
2, 37380, Note_on_c, 0, 71, 0
2, 37440, Note_on_c, 0, 73, 88
2, 37498, Note_on_c, 0, 73, 0
2, 37500, Note_on_c, 0, 71, 88
2, 37558, Note_on_c, 0, 71, 0
2, 37560, Note_on_c, 0, 76, 88
2, 37618, Note_on_c, 0, 76, 0
2, 37620, Note_on_c, 0, 75, 88
2, 37678, Note_on_c, 0, 75, 0
2, 37680, Note_on_c, 0, 73, 88
2, 37738, Note_on_c, 0, 73, 0
2, 37740, Note_on_c, 0, 71, 88
2, 37798, Note_on_c, 0, 71, 0
2, 37800, Note_on_c, 0, 69, 88
2, 37858, Note_on_c, 0, 69, 0
2, 37860, Note_on_c, 0, 68, 88
2, 37918, Note_on_c, 0, 68, 0
2, 37920, Note_on_c, 0, 69, 88
2, 37978, Note_on_c, 0, 69, 0
2, 37980, Note_on_c, 0, 68, 88
2, 38038, Note_on_c, 0, 68, 0
2, 38040, Note_on_c, 0, 73, 88
2, 38098, Note_on_c, 0, 73, 0
2, 38100, Note_on_c, 0, 71, 88
2, 38158, Note_on_c, 0, 71, 0
2, 38160, Note_on_c, 0, 69, 88
2, 38218, Note_on_c, 0, 69, 0
2, 38220, Note_on_c, 0, 68, 88
2, 38278, Note_on_c, 0, 68, 0
2, 38280, Note_on_c, 0, 66, 88
2, 38338, Note_on_c, 0, 66, 0
2, 38340, Note_on_c, 0, 64, 88
2, 38398, Note_on_c, 0, 64, 0
2, 38400, Note_on_c, 0, 68, 88
2, 38458, Note_on_c, 0, 68, 0
2, 38460, Note_on_c, 0, 66, 88
2, 38518, Note_on_c, 0, 66, 0
2, 38520, Note_on_c, 0, 69, 88
2, 38578, Note_on_c, 0, 69, 0
2, 38580, Note_on_c, 0, 68, 88
2, 38638, Note_on_c, 0, 68, 0
2, 38640, Note_on_c, 0, 66, 88
2, 38698, Note_on_c, 0, 66, 0
2, 38700, Note_on_c, 0, 64, 88
2, 38758, Note_on_c, 0, 64, 0
2, 38760, Note_on_c, 0, 63, 88
2, 38818, Note_on_c, 0, 63, 0
2, 38820, Note_on_c, 0, 61, 88
2, 38878, Note_on_c, 0, 61, 0
2, 38880, Note_on_c, 0, 56, 88
2, 39118, Note_on_c, 0, 56, 0
2, 39240, Note_on_c, 0, 71, 80
2, 39300, Note_on_c, 0, 71, 0
2, 39360, Note_on_c, 0, 70, 80
2, 39418, Note_on_c, 0, 70, 0
2, 39420, Note_on_c, 0, 71, 80
2, 39478, Note_on_c, 0, 71, 0
2, 39480, Note_on_c, 0, 73, 80
2, 39538, Note_on_c, 0, 73, 0
2, 39540, Note_on_c, 0, 71, 80
2, 39598, Note_on_c, 0, 71, 0
2, 39600, Note_on_c, 0, 75, 80
2, 39648, Note_on_c, 0, 75, 0
2, 39720, Note_on_c, 0, 71, 80
2, 39792, Note_on_c, 0, 71, 0
2, 39840, Note_on_c, 0, 70, 80
2, 39888, Note_on_c, 0, 70, 0
2, 39960, Note_on_c, 0, 75, 80
2, 39960, Note_on_c, 0, 87, 80
2, 40078, Note_on_c, 0, 87, 0
2, 40078, Note_on_c, 0, 75, 0
2, 40080, Note_on_c, 0, 75, 80
2, 40080, Note_on_c, 0, 87, 80
2, 40318, Note_on_c, 0, 87, 0
2, 40318, Note_on_c, 0, 75, 0
2, 40320, Note_on_c, 0, 66, 80
2, 40378, Note_on_c, 0, 66, 0
2, 40380, Note_on_c, 0, 68, 80
2, 40438, Note_on_c, 0, 68, 0
2, 40440, Note_on_c, 0, 69, 80
2, 40498, Note_on_c, 0, 69, 0
2, 40500, Note_on_c, 0, 68, 80
2, 40558, Note_on_c, 0, 68, 0
2, 40560, Note_on_c, 0, 71, 80
2, 40608, Note_on_c, 0, 71, 0
2, 40680, Note_on_c, 0, 68, 80
2, 40752, Note_on_c, 0, 68, 0
2, 40800, Note_on_c, 0, 66, 80
2, 40848, Note_on_c, 0, 66, 0
2, 40920, Note_on_c, 0, 71, 80
2, 40920, Note_on_c, 0, 83, 80
2, 41038, Note_on_c, 0, 83, 0
2, 41038, Note_on_c, 0, 71, 0
2, 41040, Note_on_c, 0, 71, 80
2, 41040, Note_on_c, 0, 83, 80
2, 41278, Note_on_c, 0, 83, 0
2, 41278, Note_on_c, 0, 71, 0
2, 41280, Note_on_c, 0, 69, 80
2, 41280, Note_on_c, 0, 81, 80
2, 41328, Note_on_c, 0, 81, 0
2, 41328, Note_on_c, 0, 69, 0
2, 41400, Note_on_c, 0, 69, 80
2, 41400, Note_on_c, 0, 81, 80
2, 41448, Note_on_c, 0, 81, 0
2, 41448, Note_on_c, 0, 69, 0
2, 41520, Note_on_c, 0, 69, 80
2, 41520, Note_on_c, 0, 81, 80
2, 41568, Note_on_c, 0, 81, 0
2, 41568, Note_on_c, 0, 69, 0
2, 41640, Note_on_c, 0, 73, 80
2, 41640, Note_on_c, 0, 85, 80
2, 41712, Note_on_c, 0, 85, 0
2, 41712, Note_on_c, 0, 73, 0
2, 41760, Note_on_c, 0, 69, 80
2, 41760, Note_on_c, 0, 81, 80
2, 41880, Note_on_c, 0, 81, 0
2, 41880, Note_on_c, 0, 69, 0
2, 42000, Note_on_c, 0, 68, 80
2, 42000, Note_on_c, 0, 80, 80
2, 42240, Note_on_c, 0, 80, 0
2, 42240, Note_on_c, 0, 68, 0
2, 42240, Note_on_c, 0, 66, 80
2, 42240, Note_on_c, 0, 78, 80
2, 42360, Note_on_c, 0, 78, 0
2, 42360, Note_on_c, 0, 66, 0
2, 42480, Note_on_c, 0, 63, 80
2, 42480, Note_on_c, 0, 75, 80
2, 42600, Note_on_c, 0, 75, 0
2, 42600, Note_on_c, 0, 63, 0
2, 42720, Note_on_c, 0, 64, 80
2, 42720, Note_on_c, 0, 76, 80
2, 42958, Note_on_c, 0, 76, 0
2, 42958, Note_on_c, 0, 64, 0
2, 43080, Note_on_c, 0, 71, 80
2, 43140, Note_on_c, 0, 71, 0
2, 43200, Note_on_c, 0, 70, 80
2, 43258, Note_on_c, 0, 70, 0
2, 43260, Note_on_c, 0, 71, 80
2, 43318, Note_on_c, 0, 71, 0
2, 43320, Note_on_c, 0, 73, 80
2, 43378, Note_on_c, 0, 73, 0
2, 43380, Note_on_c, 0, 71, 80
2, 43438, Note_on_c, 0, 71, 0
2, 43440, Note_on_c, 0, 75, 80
2, 43488, Note_on_c, 0, 75, 0
2, 43560, Note_on_c, 0, 71, 80
2, 43632, Note_on_c, 0, 71, 0
2, 43680, Note_on_c, 0, 70, 80
2, 43764, Note_on_c, 0, 70, 0
2, 43800, Note_on_c, 0, 75, 80
2, 43800, Note_on_c, 0, 87, 80
2, 43884, Note_on_c, 0, 87, 0
2, 43884, Note_on_c, 0, 75, 0
2, 43920, Note_on_c, 0, 75, 80
2, 43920, Note_on_c, 0, 87, 80
2, 44158, Note_on_c, 0, 87, 0
2, 44158, Note_on_c, 0, 75, 0
2, 44160, Note_on_c, 0, 66, 80
2, 44218, Note_on_c, 0, 66, 0
2, 44220, Note_on_c, 0, 68, 80
2, 44278, Note_on_c, 0, 68, 0
2, 44280, Note_on_c, 0, 69, 80
2, 44338, Note_on_c, 0, 69, 0
2, 44340, Note_on_c, 0, 68, 80
2, 44398, Note_on_c, 0, 68, 0
2, 44400, Note_on_c, 0, 71, 80
2, 44448, Note_on_c, 0, 71, 0
2, 44520, Note_on_c, 0, 68, 80
2, 44592, Note_on_c, 0, 68, 0
2, 44640, Note_on_c, 0, 66, 80
2, 44724, Note_on_c, 0, 66, 0
2, 44760, Note_on_c, 0, 71, 80
2, 44760, Note_on_c, 0, 83, 80
2, 44844, Note_on_c, 0, 83, 0
2, 44844, Note_on_c, 0, 71, 0
2, 44880, Note_on_c, 0, 71, 80
2, 44880, Note_on_c, 0, 83, 80
2, 45118, Note_on_c, 0, 83, 0
2, 45118, Note_on_c, 0, 71, 0
2, 45120, Note_on_c, 0, 69, 80
2, 45120, Note_on_c, 0, 81, 80
2, 45168, Note_on_c, 0, 81, 0
2, 45168, Note_on_c, 0, 69, 0
2, 45240, Note_on_c, 0, 69, 80
2, 45240, Note_on_c, 0, 81, 80
2, 45288, Note_on_c, 0, 81, 0
2, 45288, Note_on_c, 0, 69, 0
2, 45360, Note_on_c, 0, 69, 80
2, 45360, Note_on_c, 0, 81, 80
2, 45408, Note_on_c, 0, 81, 0
2, 45408, Note_on_c, 0, 69, 0
2, 45480, Note_on_c, 0, 73, 80
2, 45480, Note_on_c, 0, 85, 80
2, 45600, Note_on_c, 0, 85, 0
2, 45600, Note_on_c, 0, 73, 0
2, 45600, Note_on_c, 0, 69, 80
2, 45600, Note_on_c, 0, 81, 80
2, 45720, Note_on_c, 0, 81, 0
2, 45720, Note_on_c, 0, 69, 0
2, 45840, Note_on_c, 0, 68, 80
2, 45840, Note_on_c, 0, 80, 80
2, 46080, Note_on_c, 0, 80, 0
2, 46080, Note_on_c, 0, 68, 0
2, 46080, Note_on_c, 0, 66, 80
2, 46080, Note_on_c, 0, 78, 80
2, 46200, Note_on_c, 0, 78, 0
2, 46200, Note_on_c, 0, 66, 0
2, 46320, Note_on_c, 0, 63, 88
2, 46320, Note_on_c, 0, 75, 88
2, 46440, Note_on_c, 0, 75, 0
2, 46440, Note_on_c, 0, 63, 0
2, 46560, Note_on_c, 0, 64, 96
2, 46560, Note_on_c, 0, 76, 96
2, 46798, Note_on_c, 0, 76, 0
2, 46798, Note_on_c, 0, 64, 0
2, 46920, Note_on_c, 0, 75, 96
2, 46920, Note_on_c, 0, 81, 96
2, 47040, Note_on_c, 0, 81, 0
2, 47040, Note_on_c, 0, 75, 0
2, 47040, Note_on_c, 0, 76, 96
2, 47040, Note_on_c, 0, 80, 96
2, 47278, Note_on_c, 0, 80, 0
2, 47278, Note_on_c, 0, 76, 0
2, 47400, Note_on_c, 0, 69, 96
2, 47400, Note_on_c, 0, 75, 96
2, 47472, Note_on_c, 0, 75, 0
2, 47472, Note_on_c, 0, 69, 0
2, 47520, Note_on_c, 0, 68, 96
2, 47520, Note_on_c, 0, 76, 96
2, 47758, Note_on_c, 0, 76, 0
2, 47758, Note_on_c, 0, 68, 0
2, 47880, Note_on_c, 0, 63, 96
2, 47880, Note_on_c, 0, 69, 96
2, 47998, Note_on_c, 0, 69, 0
2, 47998, Note_on_c, 0, 63, 0
2, 48000, Note_on_c, 0, 64, 96
2, 48000, Note_on_c, 0, 68, 96
2, 48238, Note_on_c, 0, 68, 0
2, 48238, Note_on_c, 0, 64, 0
2, 48360, Note_on_c, 0, 57, 96
2, 48360, Note_on_c, 0, 63, 96
2, 48478, Note_on_c, 0, 63, 0
2, 48478, Note_on_c, 0, 57, 0
2, 48480, Note_on_c, 0, 56, 96
2, 48480, Note_on_c, 0, 64, 96
2, 48576, Note_on_c, 0, 64, 0
2, 48576, Note_on_c, 0, 56, 0
2, 48720, Note_on_c, 0, 64, 96
2, 48720, Note_on_c, 0, 68, 96
2, 48720, Note_on_c, 0, 71, 96
2, 48720, Note_on_c, 0, 76, 96
2, 48888, Note_on_c, 0, 76, 0
2, 48888, Note_on_c, 0, 64, 0
2, 48888, Note_on_c, 0, 68, 0
2, 48888, Note_on_c, 0, 71, 0
2, 48960, Note_on_c, 0, 64, 96
2, 48960, Note_on_c, 0, 68, 96
2, 48960, Note_on_c, 0, 71, 96
2, 48960, Note_on_c, 0, 76, 96
2, 49200, Note_on_c, 0, 76, 0
2, 49200, Note_on_c, 0, 64, 0
2, 49200, Note_on_c, 0, 68, 0
2, 49200, Note_on_c, 0, 71, 0
2, 49200, End_track
3, 0, Start_track
3, 0, MIDI_port, 0
3, 0, Title_t, "by F.J. Haydn (3rd mvmt. Finale-Presto)"
3, 0, Program_c, 1, 0
3, 0, Control_c, 1, 7, 127
3, 0, Control_c, 1, 10, 56
3, 480, Note_on_c, 1, 52, 80
3, 480, Note_on_c, 1, 56, 80
3, 718, Note_on_c, 1, 56, 0
3, 718, Note_on_c, 1, 52, 0
3, 960, Note_on_c, 1, 61, 80
3, 960, Note_on_c, 1, 64, 80
3, 1198, Note_on_c, 1, 64, 0
3, 1198, Note_on_c, 1, 61, 0
3, 1440, Note_on_c, 1, 57, 80
3, 1678, Note_on_c, 1, 57, 0
3, 1680, Note_on_c, 1, 58, 80
3, 1918, Note_on_c, 1, 58, 0
3, 1920, Note_on_c, 1, 47, 80
3, 2158, Note_on_c, 1, 47, 0
3, 2160, Note_on_c, 1, 35, 80
3, 2398, Note_on_c, 1, 35, 0
3, 2400, Note_on_c, 1, 52, 80
3, 2400, Note_on_c, 1, 56, 80
3, 2638, Note_on_c, 1, 56, 0
3, 2638, Note_on_c, 1, 52, 0
3, 2880, Note_on_c, 1, 61, 80
3, 2880, Note_on_c, 1, 64, 80
3, 3118, Note_on_c, 1, 64, 0
3, 3118, Note_on_c, 1, 61, 0
3, 3240, Note_on_c, 1, 52, 80
3, 3312, Note_on_c, 1, 52, 0
3, 3360, Note_on_c, 1, 52, 80
3, 3478, Note_on_c, 1, 52, 0
3, 3480, Note_on_c, 1, 51, 80
3, 3598, Note_on_c, 1, 51, 0
3, 3600, Note_on_c, 1, 52, 80
3, 3648, Note_on_c, 1, 52, 0
3, 3720, Note_on_c, 1, 54, 80
3, 3768, Note_on_c, 1, 54, 0
3, 3840, Note_on_c, 1, 56, 80
3, 4078, Note_on_c, 1, 56, 0
3, 4080, Note_on_c, 1, 44, 80
3, 4198, Note_on_c, 1, 44, 0
3, 4320, Note_on_c, 1, 56, 80
3, 4320, Note_on_c, 1, 63, 80
3, 4558, Note_on_c, 1, 63, 0
3, 4558, Note_on_c, 1, 56, 0
3, 4800, Note_on_c, 1, 63, 80
3, 4800, Note_on_c, 1, 67, 80
3, 5038, Note_on_c, 1, 67, 0
3, 5038, Note_on_c, 1, 63, 0
3, 5280, Note_on_c, 1, 52, 80
3, 5280, Note_on_c, 1, 59, 80
3, 5518, Note_on_c, 1, 59, 0
3, 5518, Note_on_c, 1, 52, 0
3, 5760, Note_on_c, 1, 59, 80
3, 5760, Note_on_c, 1, 63, 80
3, 5998, Note_on_c, 1, 63, 0
3, 5998, Note_on_c, 1, 59, 0
3, 6240, Note_on_c, 1, 54, 80
3, 6240, Note_on_c, 1, 61, 80
3, 6478, Note_on_c, 1, 61, 0
3, 6478, Note_on_c, 1, 54, 0
3, 6720, Note_on_c, 1, 57, 80
3, 6838, Note_on_c, 1, 57, 0
3, 6840, Note_on_c, 1, 56, 80
3, 6888, Note_on_c, 1, 56, 0
3, 6960, Note_on_c, 1, 57, 80
3, 7078, Note_on_c, 1, 57, 0
3, 7080, Note_on_c, 1, 56, 80
3, 7198, Note_on_c, 1, 56, 0
3, 7200, Note_on_c, 1, 49, 80
3, 7318, Note_on_c, 1, 49, 0
3, 7320, Note_on_c, 1, 47, 80
3, 7368, Note_on_c, 1, 47, 0
3, 7440, Note_on_c, 1, 49, 80
3, 7488, Note_on_c, 1, 49, 0
3, 7560, Note_on_c, 1, 51, 80
3, 7608, Note_on_c, 1, 51, 0
3, 7680, Note_on_c, 1, 52, 80
3, 7918, Note_on_c, 1, 52, 0
3, 7920, Note_on_c, 1, 40, 80
3, 8038, Note_on_c, 1, 40, 0
3, 8160, Note_on_c, 1, 52, 80
3, 8160, Note_on_c, 1, 56, 80
3, 8398, Note_on_c, 1, 56, 0
3, 8398, Note_on_c, 1, 52, 0
3, 8640, Note_on_c, 1, 61, 80
3, 8640, Note_on_c, 1, 64, 80
3, 8878, Note_on_c, 1, 64, 0
3, 8878, Note_on_c, 1, 61, 0
3, 9120, Note_on_c, 1, 45, 80
3, 9358, Note_on_c, 1, 45, 0
3, 9360, Note_on_c, 1, 46, 80
3, 9598, Note_on_c, 1, 46, 0
3, 9660, Note_on_c, 1, 47, 80
3, 9718, Note_on_c, 1, 47, 0
3, 9720, Note_on_c, 1, 46, 80
3, 9778, Note_on_c, 1, 46, 0
3, 9780, Note_on_c, 1, 47, 80
3, 9838, Note_on_c, 1, 47, 0
3, 9840, Note_on_c, 1, 35, 80
3, 9936, Note_on_c, 1, 35, 0
3, 10080, Note_on_c, 1, 52, 80
3, 10080, Note_on_c, 1, 56, 80
3, 10318, Note_on_c, 1, 56, 0
3, 10318, Note_on_c, 1, 52, 0
3, 10560, Note_on_c, 1, 61, 80
3, 10560, Note_on_c, 1, 64, 80
3, 10798, Note_on_c, 1, 64, 0
3, 10798, Note_on_c, 1, 61, 0
3, 10920, Note_on_c, 1, 52, 80
3, 10992, Note_on_c, 1, 52, 0
3, 11040, Note_on_c, 1, 52, 80
3, 11158, Note_on_c, 1, 52, 0
3, 11160, Note_on_c, 1, 51, 80
3, 11208, Note_on_c, 1, 51, 0
3, 11280, Note_on_c, 1, 52, 80
3, 11328, Note_on_c, 1, 52, 0
3, 11400, Note_on_c, 1, 54, 80
3, 11448, Note_on_c, 1, 54, 0
3, 11520, Note_on_c, 1, 56, 80
3, 11758, Note_on_c, 1, 56, 0
3, 11760, Note_on_c, 1, 44, 80
3, 11878, Note_on_c, 1, 44, 0
3, 12000, Note_on_c, 1, 56, 80
3, 12000, Note_on_c, 1, 63, 80
3, 12238, Note_on_c, 1, 63, 0
3, 12238, Note_on_c, 1, 56, 0
3, 12480, Note_on_c, 1, 63, 80
3, 12480, Note_on_c, 1, 67, 80
3, 12718, Note_on_c, 1, 67, 0
3, 12718, Note_on_c, 1, 63, 0
3, 12960, Note_on_c, 1, 52, 80
3, 12960, Note_on_c, 1, 59, 80
3, 13198, Note_on_c, 1, 59, 0
3, 13198, Note_on_c, 1, 52, 0
3, 13440, Note_on_c, 1, 59, 80
3, 13440, Note_on_c, 1, 63, 80
3, 13678, Note_on_c, 1, 63, 0
3, 13678, Note_on_c, 1, 59, 0
3, 13920, Note_on_c, 1, 54, 80
3, 13920, Note_on_c, 1, 61, 80
3, 14158, Note_on_c, 1, 61, 0
3, 14158, Note_on_c, 1, 54, 0
3, 14400, Note_on_c, 1, 57, 80
3, 14518, Note_on_c, 1, 57, 0
3, 14520, Note_on_c, 1, 56, 80
3, 14580, Note_on_c, 1, 56, 0
3, 14640, Note_on_c, 1, 57, 80
3, 14758, Note_on_c, 1, 57, 0
3, 14760, Note_on_c, 1, 56, 80
3, 14832, Note_on_c, 1, 56, 0
3, 14880, Note_on_c, 1, 49, 80
3, 14998, Note_on_c, 1, 49, 0
3, 15000, Note_on_c, 1, 47, 80
3, 15096, Note_on_c, 1, 47, 0
3, 15120, Note_on_c, 1, 49, 80
3, 15238, Note_on_c, 1, 49, 0
3, 15240, Note_on_c, 1, 51, 80
3, 15358, Note_on_c, 1, 51, 0
3, 15360, Note_on_c, 1, 52, 80
3, 15598, Note_on_c, 1, 52, 0
3, 15600, Note_on_c, 1, 40, 80
3, 15718, Note_on_c, 1, 40, 0
3, 15840, Note_on_c, 1, 64, 64
3, 16078, Note_on_c, 1, 64, 0
3, 16200, Note_on_c, 1, 64, 64
3, 16200, Note_on_c, 1, 71, 64
3, 16272, Note_on_c, 1, 71, 0
3, 16272, Note_on_c, 1, 64, 0
3, 16320, Note_on_c, 1, 64, 64
3, 16320, Note_on_c, 1, 71, 64
3, 16438, Note_on_c, 1, 71, 0
3, 16440, Note_on_c, 1, 69, 64
3, 16558, Note_on_c, 1, 69, 0
3, 16560, Note_on_c, 1, 68, 64
3, 16678, Note_on_c, 1, 64, 0
3, 16800, Note_on_c, 1, 68, 0
3, 16800, Note_on_c, 1, 61, 64
3, 16800, Note_on_c, 1, 64, 64
3, 17040, Note_on_c, 1, 64, 0
3, 17040, Note_on_c, 1, 61, 0
3, 17040, Note_on_c, 1, 76, 64
3, 17040, Note_on_c, 1, 73, 64
3, 17278, Note_on_c, 1, 73, 0
3, 17280, Note_on_c, 1, 71, 64
3, 17518, Note_on_c, 1, 76, 0
3, 17520, Note_on_c, 1, 75, 64
3, 17638, Note_on_c, 1, 75, 0
3, 17638, Note_on_c, 1, 71, 0
3, 17760, Note_on_c, 1, 64, 64
3, 17998, Note_on_c, 1, 64, 0
3, 18120, Note_on_c, 1, 64, 64
3, 18120, Note_on_c, 1, 71, 64
3, 18192, Note_on_c, 1, 71, 0
3, 18192, Note_on_c, 1, 64, 0
3, 18240, Note_on_c, 1, 64, 64
3, 18240, Note_on_c, 1, 71, 64
3, 18358, Note_on_c, 1, 71, 0
3, 18360, Note_on_c, 1, 69, 64
3, 18478, Note_on_c, 1, 69, 0
3, 18480, Note_on_c, 1, 68, 64
3, 18528, Note_on_c, 1, 68, 0
3, 18598, Note_on_c, 1, 64, 0
3, 18600, Note_on_c, 1, 64, 64
3, 18600, Note_on_c, 1, 70, 64
3, 18720, Note_on_c, 1, 70, 0
3, 18720, Note_on_c, 1, 64, 0
3, 18720, Note_on_c, 1, 63, 64
3, 18720, Note_on_c, 1, 71, 64
3, 18840, Note_on_c, 1, 71, 0
3, 18840, Note_on_c, 1, 63, 0
3, 18840, Note_on_c, 1, 64, 64
3, 18888, Note_on_c, 1, 64, 0
3, 18960, Note_on_c, 1, 66, 64
3, 19008, Note_on_c, 1, 66, 0
3, 19080, Note_on_c, 1, 54, 64
3, 19128, Note_on_c, 1, 54, 0
3, 19200, Note_on_c, 1, 59, 64
3, 19438, Note_on_c, 1, 59, 0
3, 19440, Note_on_c, 1, 47, 64
3, 19558, Note_on_c, 1, 47, 0
3, 19680, Note_on_c, 1, 59, 64
3, 19918, Note_on_c, 1, 59, 0
3, 20160, Note_on_c, 1, 59, 64
3, 20398, Note_on_c, 1, 59, 0
3, 20520, Note_on_c, 1, 59, 64
3, 20520, Note_on_c, 1, 63, 64
3, 20592, Note_on_c, 1, 63, 0
3, 20592, Note_on_c, 1, 59, 0
3, 20640, Note_on_c, 1, 59, 64
3, 20640, Note_on_c, 1, 63, 64
3, 20760, Note_on_c, 1, 63, 0
3, 20760, Note_on_c, 1, 59, 0
3, 20760, Note_on_c, 1, 64, 64
3, 20808, Note_on_c, 1, 64, 0
3, 20880, Note_on_c, 1, 66, 64
3, 20928, Note_on_c, 1, 66, 0
3, 21000, Note_on_c, 1, 68, 64
3, 21048, Note_on_c, 1, 68, 0
3, 21120, Note_on_c, 1, 59, 64
3, 21120, Note_on_c, 1, 69, 64
3, 21570, Note_on_c, 1, 69, 0
3, 21570, Note_on_c, 1, 59, 0
3, 21960, Note_on_c, 1, 68, 64
3, 22032, Note_on_c, 1, 68, 0
3, 22080, Note_on_c, 1, 68, 64
3, 22188, Note_on_c, 1, 68, 0
3, 22200, Note_on_c, 1, 66, 64
3, 22308, Note_on_c, 1, 66, 0
3, 22320, Note_on_c, 1, 64, 64
3, 22368, Note_on_c, 1, 64, 0
3, 22440, Note_on_c, 1, 63, 64
3, 22512, Note_on_c, 1, 63, 0
3, 22560, Note_on_c, 1, 63, 64
3, 22678, Note_on_c, 1, 63, 0
3, 22680, Note_on_c, 1, 64, 64
3, 22798, Note_on_c, 1, 64, 0
3, 22800, Note_on_c, 1, 66, 64
3, 22848, Note_on_c, 1, 66, 0
3, 22920, Note_on_c, 1, 64, 64
3, 22992, Note_on_c, 1, 64, 0
3, 23040, Note_on_c, 1, 59, 64
3, 23278, Note_on_c, 1, 59, 0
3, 23400, Note_on_c, 1, 59, 64
3, 23448, Note_on_c, 1, 59, 0
3, 23520, Note_on_c, 1, 64, 64
3, 23758, Note_on_c, 1, 64, 0
3, 23760, Note_on_c, 1, 52, 64
3, 23878, Note_on_c, 1, 52, 0
3, 24000, Note_on_c, 1, 40, 88
3, 24058, Note_on_c, 1, 40, 0
3, 24060, Note_on_c, 1, 52, 88
3, 24118, Note_on_c, 1, 52, 0
3, 24120, Note_on_c, 1, 51, 88
3, 24178, Note_on_c, 1, 51, 0
3, 24180, Note_on_c, 1, 52, 88
3, 24238, Note_on_c, 1, 52, 0
3, 24240, Note_on_c, 1, 40, 88
3, 24298, Note_on_c, 1, 40, 0
3, 24300, Note_on_c, 1, 52, 88
3, 24358, Note_on_c, 1, 52, 0
3, 24360, Note_on_c, 1, 40, 88
3, 24418, Note_on_c, 1, 40, 0
3, 24420, Note_on_c, 1, 52, 88
3, 24478, Note_on_c, 1, 52, 0
3, 24480, Note_on_c, 1, 40, 88
3, 24538, Note_on_c, 1, 40, 0
3, 24540, Note_on_c, 1, 52, 88
3, 24598, Note_on_c, 1, 52, 0
3, 24600, Note_on_c, 1, 51, 88
3, 24658, Note_on_c, 1, 51, 0
3, 24660, Note_on_c, 1, 52, 88
3, 24718, Note_on_c, 1, 52, 0
3, 24720, Note_on_c, 1, 40, 88
3, 24778, Note_on_c, 1, 40, 0
3, 24780, Note_on_c, 1, 52, 88
3, 24838, Note_on_c, 1, 52, 0
3, 24840, Note_on_c, 1, 40, 88
3, 24898, Note_on_c, 1, 40, 0
3, 24900, Note_on_c, 1, 52, 88
3, 24958, Note_on_c, 1, 52, 0
3, 24960, Note_on_c, 1, 51, 88
3, 25018, Note_on_c, 1, 51, 0
3, 25020, Note_on_c, 1, 59, 88
3, 25078, Note_on_c, 1, 59, 0
3, 25080, Note_on_c, 1, 51, 88
3, 25138, Note_on_c, 1, 51, 0
3, 25140, Note_on_c, 1, 59, 88
3, 25198, Note_on_c, 1, 59, 0
3, 25200, Note_on_c, 1, 52, 88
3, 25258, Note_on_c, 1, 52, 0
3, 25260, Note_on_c, 1, 59, 88
3, 25318, Note_on_c, 1, 59, 0
3, 25320, Note_on_c, 1, 52, 88
3, 25378, Note_on_c, 1, 52, 0
3, 25380, Note_on_c, 1, 59, 88
3, 25438, Note_on_c, 1, 59, 0
3, 25440, Note_on_c, 1, 47, 88
3, 25498, Note_on_c, 1, 47, 0
3, 25500, Note_on_c, 1, 59, 88
3, 25558, Note_on_c, 1, 59, 0
3, 25560, Note_on_c, 1, 58, 88
3, 25618, Note_on_c, 1, 58, 0
3, 25620, Note_on_c, 1, 59, 88
3, 25678, Note_on_c, 1, 59, 0
3, 25680, Note_on_c, 1, 47, 88
3, 25798, Note_on_c, 1, 47, 0
3, 25920, Note_on_c, 1, 31, 88
3, 25978, Note_on_c, 1, 31, 0
3, 25980, Note_on_c, 1, 43, 88
3, 26038, Note_on_c, 1, 43, 0
3, 26040, Note_on_c, 1, 42, 88
3, 26098, Note_on_c, 1, 42, 0
3, 26100, Note_on_c, 1, 43, 88
3, 26158, Note_on_c, 1, 43, 0
3, 26160, Note_on_c, 1, 31, 88
3, 26218, Note_on_c, 1, 31, 0
3, 26220, Note_on_c, 1, 43, 88
3, 26278, Note_on_c, 1, 43, 0
3, 26280, Note_on_c, 1, 31, 88
3, 26338, Note_on_c, 1, 31, 0
3, 26340, Note_on_c, 1, 43, 88
3, 26398, Note_on_c, 1, 43, 0
3, 26400, Note_on_c, 1, 36, 88
3, 26458, Note_on_c, 1, 36, 0
3, 26460, Note_on_c, 1, 48, 88
3, 26518, Note_on_c, 1, 48, 0
3, 26520, Note_on_c, 1, 47, 88
3, 26578, Note_on_c, 1, 47, 0
3, 26580, Note_on_c, 1, 48, 88
3, 26638, Note_on_c, 1, 48, 0
3, 26640, Note_on_c, 1, 36, 88
3, 26698, Note_on_c, 1, 36, 0
3, 26700, Note_on_c, 1, 48, 88
3, 26758, Note_on_c, 1, 48, 0
3, 26760, Note_on_c, 1, 36, 88
3, 26818, Note_on_c, 1, 36, 0
3, 26820, Note_on_c, 1, 48, 88
3, 26878, Note_on_c, 1, 48, 0
3, 26880, Note_on_c, 1, 38, 88
3, 26938, Note_on_c, 1, 38, 0
3, 26940, Note_on_c, 1, 50, 88
3, 26998, Note_on_c, 1, 50, 0
3, 27000, Note_on_c, 1, 38, 88
3, 27058, Note_on_c, 1, 38, 0
3, 27060, Note_on_c, 1, 50, 88
3, 27118, Note_on_c, 1, 50, 0
3, 27120, Note_on_c, 1, 38, 88
3, 27178, Note_on_c, 1, 38, 0
3, 27180, Note_on_c, 1, 50, 88
3, 27238, Note_on_c, 1, 50, 0
3, 27240, Note_on_c, 1, 38, 88
3, 27298, Note_on_c, 1, 38, 0
3, 27300, Note_on_c, 1, 50, 88
3, 27358, Note_on_c, 1, 50, 0
3, 27360, Note_on_c, 1, 31, 88
3, 27418, Note_on_c, 1, 31, 0
3, 27420, Note_on_c, 1, 43, 88
3, 27478, Note_on_c, 1, 43, 0
3, 27480, Note_on_c, 1, 42, 88
3, 27538, Note_on_c, 1, 42, 0
3, 27540, Note_on_c, 1, 43, 88
3, 27598, Note_on_c, 1, 43, 0
3, 27600, Note_on_c, 1, 31, 88
3, 27718, Note_on_c, 1, 31, 0
3, 27840, Note_on_c, 1, 63, 88
3, 27840, Note_on_c, 1, 66, 88
3, 27840, Note_on_c, 1, 69, 88
3, 28078, Note_on_c, 1, 69, 0
3, 28078, Note_on_c, 1, 66, 0
3, 28078, Note_on_c, 1, 63, 0
3, 28200, Note_on_c, 1, 63, 88
3, 28200, Note_on_c, 1, 66, 88
3, 28200, Note_on_c, 1, 69, 88
3, 28248, Note_on_c, 1, 69, 0
3, 28248, Note_on_c, 1, 66, 0
3, 28248, Note_on_c, 1, 63, 0
3, 28320, Note_on_c, 1, 64, 88
3, 28320, Note_on_c, 1, 67, 88
3, 28558, Note_on_c, 1, 67, 0
3, 28558, Note_on_c, 1, 64, 0
3, 28680, Note_on_c, 1, 64, 88
3, 28680, Note_on_c, 1, 67, 88
3, 28728, Note_on_c, 1, 67, 0
3, 28728, Note_on_c, 1, 64, 0
3, 28800, Note_on_c, 1, 57, 88
3, 28800, Note_on_c, 1, 63, 88
3, 28800, Note_on_c, 1, 66, 88
3, 29038, Note_on_c, 1, 66, 0
3, 29038, Note_on_c, 1, 63, 0
3, 29038, Note_on_c, 1, 57, 0
3, 29160, Note_on_c, 1, 57, 88
3, 29160, Note_on_c, 1, 63, 88
3, 29160, Note_on_c, 1, 66, 88
3, 29208, Note_on_c, 1, 66, 0
3, 29208, Note_on_c, 1, 63, 0
3, 29208, Note_on_c, 1, 57, 0
3, 29280, Note_on_c, 1, 55, 88
3, 29280, Note_on_c, 1, 59, 88
3, 29280, Note_on_c, 1, 64, 88
3, 29518, Note_on_c, 1, 64, 0
3, 29518, Note_on_c, 1, 59, 0
3, 29518, Note_on_c, 1, 55, 0
3, 29640, Note_on_c, 1, 55, 88
3, 29640, Note_on_c, 1, 59, 88
3, 29640, Note_on_c, 1, 64, 88
3, 29758, Note_on_c, 1, 64, 0
3, 29758, Note_on_c, 1, 59, 0
3, 29758, Note_on_c, 1, 55, 0
3, 29760, Note_on_c, 1, 57, 88
3, 29760, Note_on_c, 1, 60, 88
3, 29760, Note_on_c, 1, 63, 88
3, 29760, Note_on_c, 1, 66, 88
3, 30238, Note_on_c, 1, 66, 0
3, 30238, Note_on_c, 1, 57, 0
3, 30238, Note_on_c, 1, 60, 0
3, 30238, Note_on_c, 1, 63, 0
3, 30240, Note_on_c, 1, 55, 88
3, 30240, Note_on_c, 1, 59, 88
3, 30240, Note_on_c, 1, 64, 88
3, 30478, Note_on_c, 1, 64, 0
3, 30478, Note_on_c, 1, 59, 0
3, 30478, Note_on_c, 1, 55, 0
3, 30600, Note_on_c, 1, 55, 88
3, 30600, Note_on_c, 1, 59, 88
3, 30600, Note_on_c, 1, 64, 88
3, 30718, Note_on_c, 1, 64, 0
3, 30718, Note_on_c, 1, 59, 0
3, 30718, Note_on_c, 1, 55, 0
3, 30720, Note_on_c, 1, 57, 88
3, 30720, Note_on_c, 1, 60, 88
3, 30720, Note_on_c, 1, 64, 88
3, 30958, Note_on_c, 1, 64, 0
3, 30958, Note_on_c, 1, 60, 0
3, 30958, Note_on_c, 1, 57, 0
3, 30960, Note_on_c, 1, 59, 88
3, 30960, Note_on_c, 1, 66, 88
3, 30960, Note_on_c, 1, 69, 88
3, 31198, Note_on_c, 1, 69, 0
3, 31198, Note_on_c, 1, 66, 0
3, 31198, Note_on_c, 1, 59, 0
3, 31200, Note_on_c, 1, 64, 88
3, 31200, Note_on_c, 1, 67, 88
3, 31438, Note_on_c, 1, 67, 0
3, 31438, Note_on_c, 1, 64, 0
3, 31440, Note_on_c, 1, 52, 88
3, 31558, Note_on_c, 1, 52, 0
3, 31680, Note_on_c, 1, 52, 80
3, 31680, Note_on_c, 1, 56, 80
3, 31918, Note_on_c, 1, 56, 0
3, 31918, Note_on_c, 1, 52, 0
3, 32160, Note_on_c, 1, 61, 80
3, 32160, Note_on_c, 1, 64, 80
3, 32398, Note_on_c, 1, 64, 0
3, 32398, Note_on_c, 1, 61, 0
3, 32640, Note_on_c, 1, 57, 80
3, 32878, Note_on_c, 1, 57, 0
3, 32880, Note_on_c, 1, 58, 80
3, 33118, Note_on_c, 1, 58, 0
3, 33120, Note_on_c, 1, 47, 80
3, 33358, Note_on_c, 1, 47, 0
3, 33360, Note_on_c, 1, 35, 80
3, 33598, Note_on_c, 1, 35, 0
3, 33600, Note_on_c, 1, 52, 80
3, 33600, Note_on_c, 1, 56, 80
3, 33838, Note_on_c, 1, 56, 0
3, 33838, Note_on_c, 1, 52, 0
3, 34080, Note_on_c, 1, 61, 80
3, 34080, Note_on_c, 1, 64, 80
3, 34318, Note_on_c, 1, 64, 0
3, 34318, Note_on_c, 1, 61, 0
3, 34440, Note_on_c, 1, 52, 80
3, 34512, Note_on_c, 1, 52, 0
3, 34560, Note_on_c, 1, 52, 80
3, 34678, Note_on_c, 1, 52, 0
3, 34680, Note_on_c, 1, 51, 80
3, 34798, Note_on_c, 1, 51, 0
3, 34800, Note_on_c, 1, 52, 80
3, 34848, Note_on_c, 1, 52, 0
3, 34920, Note_on_c, 1, 54, 80
3, 34992, Note_on_c, 1, 54, 0
3, 35040, Note_on_c, 1, 56, 80
3, 35278, Note_on_c, 1, 56, 0
3, 35280, Note_on_c, 1, 44, 80
3, 35398, Note_on_c, 1, 44, 0
3, 35520, Note_on_c, 1, 52, 88
3, 35520, Note_on_c, 1, 56, 88
3, 35758, Note_on_c, 1, 56, 0
3, 35758, Note_on_c, 1, 52, 0
3, 36000, Note_on_c, 1, 61, 88
3, 36000, Note_on_c, 1, 64, 88
3, 36238, Note_on_c, 1, 64, 0
3, 36238, Note_on_c, 1, 61, 0
3, 36480, Note_on_c, 1, 57, 88
3, 36600, Note_on_c, 1, 57, 0
3, 36720, Note_on_c, 1, 58, 88
3, 36840, Note_on_c, 1, 58, 0
3, 37020, Note_on_c, 1, 47, 88
3, 37078, Note_on_c, 1, 47, 0
3, 37080, Note_on_c, 1, 46, 88
3, 37138, Note_on_c, 1, 46, 0
3, 37140, Note_on_c, 1, 47, 88
3, 37198, Note_on_c, 1, 47, 0
3, 37200, Note_on_c, 1, 35, 88
3, 37318, Note_on_c, 1, 35, 0
3, 37440, Note_on_c, 1, 52, 88
3, 37440, Note_on_c, 1, 56, 88
3, 37678, Note_on_c, 1, 56, 0
3, 37678, Note_on_c, 1, 52, 0
3, 37920, Note_on_c, 1, 61, 88
3, 37920, Note_on_c, 1, 64, 88
3, 38158, Note_on_c, 1, 64, 0
3, 38158, Note_on_c, 1, 61, 0
3, 38400, Note_on_c, 1, 52, 88
3, 38520, Note_on_c, 1, 52, 0
3, 38640, Note_on_c, 1, 54, 88
3, 38760, Note_on_c, 1, 54, 0
3, 38880, Note_on_c, 1, 44, 88
3, 39118, Note_on_c, 1, 44, 0
3, 39120, Note_on_c, 1, 32, 88
3, 39238, Note_on_c, 1, 32, 0
3, 39360, Note_on_c, 1, 56, 80
3, 39418, Note_on_c, 1, 56, 0
3, 39420, Note_on_c, 1, 63, 80
3, 39478, Note_on_c, 1, 63, 0
3, 39480, Note_on_c, 1, 59, 80
3, 39538, Note_on_c, 1, 59, 0
3, 39540, Note_on_c, 1, 63, 80
3, 39598, Note_on_c, 1, 63, 0
3, 39600, Note_on_c, 1, 56, 80
3, 39658, Note_on_c, 1, 56, 0
3, 39660, Note_on_c, 1, 63, 80
3, 39718, Note_on_c, 1, 63, 0
3, 39720, Note_on_c, 1, 59, 80
3, 39778, Note_on_c, 1, 59, 0
3, 39780, Note_on_c, 1, 63, 80
3, 39838, Note_on_c, 1, 63, 0
3, 39840, Note_on_c, 1, 55, 80
3, 39898, Note_on_c, 1, 55, 0
3, 39900, Note_on_c, 1, 63, 80
3, 39958, Note_on_c, 1, 63, 0
3, 39960, Note_on_c, 1, 58, 80
3, 40018, Note_on_c, 1, 58, 0
3, 40020, Note_on_c, 1, 63, 80
3, 40078, Note_on_c, 1, 63, 0
3, 40080, Note_on_c, 1, 55, 80
3, 40138, Note_on_c, 1, 55, 0
3, 40140, Note_on_c, 1, 63, 80
3, 40198, Note_on_c, 1, 63, 0
3, 40200, Note_on_c, 1, 58, 80
3, 40258, Note_on_c, 1, 58, 0
3, 40260, Note_on_c, 1, 63, 80
3, 40318, Note_on_c, 1, 63, 0
3, 40320, Note_on_c, 1, 52, 80
3, 40378, Note_on_c, 1, 52, 0
3, 40380, Note_on_c, 1, 59, 80
3, 40438, Note_on_c, 1, 59, 0
3, 40440, Note_on_c, 1, 56, 80
3, 40498, Note_on_c, 1, 56, 0
3, 40500, Note_on_c, 1, 59, 80
3, 40558, Note_on_c, 1, 59, 0
3, 40560, Note_on_c, 1, 52, 80
3, 40618, Note_on_c, 1, 52, 0
3, 40620, Note_on_c, 1, 59, 80
3, 40678, Note_on_c, 1, 59, 0
3, 40680, Note_on_c, 1, 56, 80
3, 40738, Note_on_c, 1, 56, 0
3, 40740, Note_on_c, 1, 59, 80
3, 40798, Note_on_c, 1, 59, 0
3, 40800, Note_on_c, 1, 51, 80
3, 40858, Note_on_c, 1, 51, 0
3, 40860, Note_on_c, 1, 59, 80
3, 40918, Note_on_c, 1, 59, 0
3, 40920, Note_on_c, 1, 54, 80
3, 40978, Note_on_c, 1, 54, 0
3, 40980, Note_on_c, 1, 59, 80
3, 41038, Note_on_c, 1, 59, 0
3, 41040, Note_on_c, 1, 51, 80
3, 41098, Note_on_c, 1, 51, 0
3, 41100, Note_on_c, 1, 59, 80
3, 41158, Note_on_c, 1, 59, 0
3, 41160, Note_on_c, 1, 54, 80
3, 41218, Note_on_c, 1, 54, 0
3, 41220, Note_on_c, 1, 59, 80
3, 41278, Note_on_c, 1, 59, 0
3, 41280, Note_on_c, 1, 54, 80
3, 41338, Note_on_c, 1, 54, 0
3, 41340, Note_on_c, 1, 61, 80
3, 41398, Note_on_c, 1, 61, 0
3, 41400, Note_on_c, 1, 57, 80
3, 41458, Note_on_c, 1, 57, 0
3, 41460, Note_on_c, 1, 61, 80
3, 41518, Note_on_c, 1, 61, 0
3, 41520, Note_on_c, 1, 54, 80
3, 41578, Note_on_c, 1, 54, 0
3, 41580, Note_on_c, 1, 61, 80
3, 41638, Note_on_c, 1, 61, 0
3, 41640, Note_on_c, 1, 57, 80
3, 41698, Note_on_c, 1, 57, 0
3, 41700, Note_on_c, 1, 61, 80
3, 41758, Note_on_c, 1, 61, 0
3, 41760, Note_on_c, 1, 51, 80
3, 41818, Note_on_c, 1, 51, 0
3, 41820, Note_on_c, 1, 59, 80
3, 41878, Note_on_c, 1, 59, 0
3, 41880, Note_on_c, 1, 54, 80
3, 41938, Note_on_c, 1, 54, 0
3, 41940, Note_on_c, 1, 59, 80
3, 41998, Note_on_c, 1, 59, 0
3, 42000, Note_on_c, 1, 52, 80
3, 42058, Note_on_c, 1, 52, 0
3, 42060, Note_on_c, 1, 59, 80
3, 42118, Note_on_c, 1, 59, 0
3, 42120, Note_on_c, 1, 56, 80
3, 42178, Note_on_c, 1, 56, 0
3, 42180, Note_on_c, 1, 59, 80
3, 42238, Note_on_c, 1, 59, 0
3, 42240, Note_on_c, 1, 45, 80
3, 42298, Note_on_c, 1, 45, 0
3, 42300, Note_on_c, 1, 57, 80
3, 42358, Note_on_c, 1, 57, 0
3, 42360, Note_on_c, 1, 49, 80
3, 42418, Note_on_c, 1, 49, 0
3, 42420, Note_on_c, 1, 57, 80
3, 42478, Note_on_c, 1, 57, 0
3, 42480, Note_on_c, 1, 47, 80
3, 42538, Note_on_c, 1, 47, 0
3, 42540, Note_on_c, 1, 57, 80
3, 42598, Note_on_c, 1, 57, 0
3, 42600, Note_on_c, 1, 51, 80
3, 42658, Note_on_c, 1, 51, 0
3, 42660, Note_on_c, 1, 57, 80
3, 42718, Note_on_c, 1, 57, 0
3, 42720, Note_on_c, 1, 40, 80
3, 42778, Note_on_c, 1, 40, 0
3, 42780, Note_on_c, 1, 52, 80
3, 42838, Note_on_c, 1, 52, 0
3, 42840, Note_on_c, 1, 51, 80
3, 42898, Note_on_c, 1, 51, 0
3, 42900, Note_on_c, 1, 52, 80
3, 42958, Note_on_c, 1, 52, 0
3, 42960, Note_on_c, 1, 40, 80
3, 43078, Note_on_c, 1, 40, 0
3, 43200, Note_on_c, 1, 56, 80
3, 43258, Note_on_c, 1, 56, 0
3, 43260, Note_on_c, 1, 63, 80
3, 43318, Note_on_c, 1, 63, 0
3, 43320, Note_on_c, 1, 59, 80
3, 43378, Note_on_c, 1, 59, 0
3, 43380, Note_on_c, 1, 63, 80
3, 43438, Note_on_c, 1, 63, 0
3, 43440, Note_on_c, 1, 56, 80
3, 43498, Note_on_c, 1, 56, 0
3, 43500, Note_on_c, 1, 63, 80
3, 43558, Note_on_c, 1, 63, 0
3, 43560, Note_on_c, 1, 59, 80
3, 43618, Note_on_c, 1, 59, 0
3, 43620, Note_on_c, 1, 63, 80
3, 43678, Note_on_c, 1, 63, 0
3, 43680, Note_on_c, 1, 55, 80
3, 43738, Note_on_c, 1, 55, 0
3, 43740, Note_on_c, 1, 63, 80
3, 43798, Note_on_c, 1, 63, 0
3, 43800, Note_on_c, 1, 58, 80
3, 43858, Note_on_c, 1, 58, 0
3, 43860, Note_on_c, 1, 63, 80
3, 43918, Note_on_c, 1, 63, 0
3, 43920, Note_on_c, 1, 55, 80
3, 43978, Note_on_c, 1, 55, 0
3, 43980, Note_on_c, 1, 63, 80
3, 44038, Note_on_c, 1, 63, 0
3, 44040, Note_on_c, 1, 58, 80
3, 44098, Note_on_c, 1, 58, 0
3, 44100, Note_on_c, 1, 63, 80
3, 44158, Note_on_c, 1, 63, 0
3, 44160, Note_on_c, 1, 52, 80
3, 44218, Note_on_c, 1, 52, 0
3, 44220, Note_on_c, 1, 59, 80
3, 44278, Note_on_c, 1, 59, 0
3, 44280, Note_on_c, 1, 56, 80
3, 44338, Note_on_c, 1, 56, 0
3, 44340, Note_on_c, 1, 59, 80
3, 44398, Note_on_c, 1, 59, 0
3, 44400, Note_on_c, 1, 52, 80
3, 44458, Note_on_c, 1, 52, 0
3, 44460, Note_on_c, 1, 59, 80
3, 44518, Note_on_c, 1, 59, 0
3, 44520, Note_on_c, 1, 56, 80
3, 44578, Note_on_c, 1, 56, 0
3, 44580, Note_on_c, 1, 59, 80
3, 44638, Note_on_c, 1, 59, 0
3, 44640, Note_on_c, 1, 51, 80
3, 44698, Note_on_c, 1, 51, 0
3, 44700, Note_on_c, 1, 59, 80
3, 44758, Note_on_c, 1, 59, 0
3, 44760, Note_on_c, 1, 54, 80
3, 44818, Note_on_c, 1, 54, 0
3, 44820, Note_on_c, 1, 59, 80
3, 44878, Note_on_c, 1, 59, 0
3, 44880, Note_on_c, 1, 51, 80
3, 44938, Note_on_c, 1, 51, 0
3, 44940, Note_on_c, 1, 59, 80
3, 44998, Note_on_c, 1, 59, 0
3, 45000, Note_on_c, 1, 54, 80
3, 45058, Note_on_c, 1, 54, 0
3, 45060, Note_on_c, 1, 59, 80
3, 45118, Note_on_c, 1, 59, 0
3, 45120, Note_on_c, 1, 54, 80
3, 45178, Note_on_c, 1, 54, 0
3, 45180, Note_on_c, 1, 61, 80
3, 45238, Note_on_c, 1, 61, 0
3, 45240, Note_on_c, 1, 57, 80
3, 45298, Note_on_c, 1, 57, 0
3, 45300, Note_on_c, 1, 61, 80
3, 45358, Note_on_c, 1, 61, 0
3, 45360, Note_on_c, 1, 54, 80
3, 45418, Note_on_c, 1, 54, 0
3, 45420, Note_on_c, 1, 61, 80
3, 45478, Note_on_c, 1, 61, 0
3, 45480, Note_on_c, 1, 57, 80
3, 45538, Note_on_c, 1, 57, 0
3, 45540, Note_on_c, 1, 61, 80
3, 45598, Note_on_c, 1, 61, 0
3, 45600, Note_on_c, 1, 51, 80
3, 45658, Note_on_c, 1, 51, 0
3, 45660, Note_on_c, 1, 59, 80
3, 45718, Note_on_c, 1, 59, 0
3, 45720, Note_on_c, 1, 54, 80
3, 45778, Note_on_c, 1, 54, 0
3, 45780, Note_on_c, 1, 59, 80
3, 45838, Note_on_c, 1, 59, 0
3, 45840, Note_on_c, 1, 52, 80
3, 45898, Note_on_c, 1, 52, 0
3, 45900, Note_on_c, 1, 59, 80
3, 45958, Note_on_c, 1, 59, 0
3, 45960, Note_on_c, 1, 56, 80
3, 46018, Note_on_c, 1, 56, 0
3, 46020, Note_on_c, 1, 59, 80
3, 46078, Note_on_c, 1, 59, 0
3, 46080, Note_on_c, 1, 45, 80
3, 46138, Note_on_c, 1, 45, 0
3, 46140, Note_on_c, 1, 57, 80
3, 46198, Note_on_c, 1, 57, 0
3, 46200, Note_on_c, 1, 49, 80
3, 46258, Note_on_c, 1, 49, 0
3, 46260, Note_on_c, 1, 57, 80
3, 46318, Note_on_c, 1, 57, 0
3, 46320, Note_on_c, 1, 47, 80
3, 46378, Note_on_c, 1, 47, 0
3, 46380, Note_on_c, 1, 57, 80
3, 46438, Note_on_c, 1, 57, 0
3, 46440, Note_on_c, 1, 51, 80
3, 46498, Note_on_c, 1, 51, 0
3, 46500, Note_on_c, 1, 57, 80
3, 46558, Note_on_c, 1, 57, 0
3, 46560, Note_on_c, 1, 40, 80
3, 46618, Note_on_c, 1, 40, 0
3, 46620, Note_on_c, 1, 52, 80
3, 46678, Note_on_c, 1, 52, 0
3, 46680, Note_on_c, 1, 51, 80
3, 46738, Note_on_c, 1, 51, 0
3, 46740, Note_on_c, 1, 52, 80
3, 46798, Note_on_c, 1, 52, 0
3, 46800, Note_on_c, 1, 40, 80
3, 46858, Note_on_c, 1, 40, 0
3, 46860, Note_on_c, 1, 52, 80
3, 46918, Note_on_c, 1, 52, 0
3, 46920, Note_on_c, 1, 40, 80
3, 46978, Note_on_c, 1, 40, 0
3, 46980, Note_on_c, 1, 52, 80
3, 47038, Note_on_c, 1, 52, 0
3, 47040, Note_on_c, 1, 40, 80
3, 47098, Note_on_c, 1, 40, 0
3, 47100, Note_on_c, 1, 52, 80
3, 47158, Note_on_c, 1, 52, 0
3, 47160, Note_on_c, 1, 51, 80
3, 47218, Note_on_c, 1, 51, 0
3, 47220, Note_on_c, 1, 52, 80
3, 47278, Note_on_c, 1, 52, 0
3, 47280, Note_on_c, 1, 40, 80
3, 47338, Note_on_c, 1, 40, 0
3, 47340, Note_on_c, 1, 52, 80
3, 47398, Note_on_c, 1, 52, 0
3, 47400, Note_on_c, 1, 40, 80
3, 47458, Note_on_c, 1, 40, 0
3, 47460, Note_on_c, 1, 52, 80
3, 47518, Note_on_c, 1, 52, 0
3, 47520, Note_on_c, 1, 40, 80
3, 47578, Note_on_c, 1, 40, 0
3, 47580, Note_on_c, 1, 52, 80
3, 47638, Note_on_c, 1, 52, 0
3, 47640, Note_on_c, 1, 51, 80
3, 47698, Note_on_c, 1, 51, 0
3, 47700, Note_on_c, 1, 52, 80
3, 47758, Note_on_c, 1, 52, 0
3, 47760, Note_on_c, 1, 40, 80
3, 47818, Note_on_c, 1, 40, 0
3, 47820, Note_on_c, 1, 52, 80
3, 47878, Note_on_c, 1, 52, 0
3, 47880, Note_on_c, 1, 40, 80
3, 47938, Note_on_c, 1, 40, 0
3, 47940, Note_on_c, 1, 52, 80
3, 47998, Note_on_c, 1, 52, 0
3, 48000, Note_on_c, 1, 40, 80
3, 48058, Note_on_c, 1, 40, 0
3, 48060, Note_on_c, 1, 52, 80
3, 48118, Note_on_c, 1, 52, 0
3, 48120, Note_on_c, 1, 51, 80
3, 48178, Note_on_c, 1, 51, 0
3, 48180, Note_on_c, 1, 52, 80
3, 48238, Note_on_c, 1, 52, 0
3, 48240, Note_on_c, 1, 40, 80
3, 48298, Note_on_c, 1, 40, 0
3, 48300, Note_on_c, 1, 52, 80
3, 48358, Note_on_c, 1, 52, 0
3, 48360, Note_on_c, 1, 40, 80
3, 48418, Note_on_c, 1, 40, 0
3, 48420, Note_on_c, 1, 52, 80
3, 48478, Note_on_c, 1, 52, 0
3, 48480, Note_on_c, 1, 40, 96
3, 48576, Note_on_c, 1, 40, 0
3, 48720, Note_on_c, 1, 40, 96
3, 48720, Note_on_c, 1, 52, 96
3, 48888, Note_on_c, 1, 52, 0
3, 48888, Note_on_c, 1, 40, 0
3, 48960, Note_on_c, 1, 40, 96
3, 48960, Note_on_c, 1, 52, 96
3, 49200, Note_on_c, 1, 52, 0
3, 49200, Note_on_c, 1, 40, 0
3, 49200, End_track
4, 0, Start_track
4, 0, MIDI_port, 0
4, 0, Title_t, "MIDI by Marty Weimer 7/2/96"
4, 0, End_track
5, 0, Start_track
5, 0, MIDI_port, 0
5, 0, Title_t, "weimermt@libby.org  Eureka, MT  USA"
5, 0, End_track
0, 0, End_of_file
