0, 0, Header, 1, 5, 240
1, 0, Start_track
1, 0, Time_signature, 3, 2, 24, 8
1, 0, Key_signature, 0, "major"
1, 0, Tempo, 882353
1, 16080, Tempo, 923077
1, 16320, Tempo, 952381
1, 16560, Tempo, 1000000
1, 17280, Tempo, 882353
1, 32640, Tempo, 923077
1, 32880, Tempo, 952381
1, 33120, Tempo, 882353
1, 34800, Tempo, 895522
1, 35040, Tempo, 923077
1, 35280, Tempo, 937500
1, 35520, Tempo, 952381
1, 35760, Tempo, 983607
1, 36000, Tempo, 1000000
1, 36000, End_track
2, 0, Start_track
2, 0, MIDI_port, 0
2, 0, Title_t, "Piano Sonata No. 33 in D (1777?)"
2, 0, Program_c, 0, 0
2, 0, Control_c, 0, 7, 127
2, 0, Control_c, 0, 10, 72
2, 0, Note_on_c, 0, 81, 64
2, 178, Note_on_c, 0, 81, 0
2, 180, Note_on_c, 0, 77, 80
2, 208, Note_on_c, 0, 77, 0
2, 210, Note_on_c, 0, 74, 80
2, 238, Note_on_c, 0, 74, 0
2, 240, Note_on_c, 0, 73, 80
2, 360, Note_on_c, 0, 73, 0
2, 720, Note_on_c, 0, 82, 64
2, 898, Note_on_c, 0, 82, 0
2, 900, Note_on_c, 0, 79, 85
2, 928, Note_on_c, 0, 79, 0
2, 930, Note_on_c, 0, 76, 85
2, 958, Note_on_c, 0, 76, 0
2, 960, Note_on_c, 0, 74, 85
2, 1078, Note_on_c, 0, 74, 0
2, 1140, Note_on_c, 0, 85, 64
2, 1198, Note_on_c, 0, 85, 0
2, 1200, Note_on_c, 0, 86, 64
2, 1313, Note_on_c, 0, 86, 0
2, 1380, Note_on_c, 0, 81, 64
2, 1428, Note_on_c, 0, 81, 0
2, 1440, Note_on_c, 0, 82, 64
2, 1530, Note_on_c, 0, 82, 0
2, 1620, Note_on_c, 0, 74, 64
2, 1680, Note_on_c, 0, 74, 0
2, 1680, Note_on_c, 0, 73, 64
2, 1770, Note_on_c, 0, 73, 0
2, 1860, Note_on_c, 0, 76, 64
2, 1920, Note_on_c, 0, 76, 0
2, 1920, Note_on_c, 0, 81, 64
2, 2010, Note_on_c, 0, 81, 0
2, 2100, Note_on_c, 0, 79, 64
2, 2160, Note_on_c, 0, 79, 0
2, 2160, Note_on_c, 0, 79, 64
2, 2220, Note_on_c, 0, 79, 0
2, 2220, Note_on_c, 0, 77, 65
2, 2250, Note_on_c, 0, 77, 0
2, 2250, Note_on_c, 0, 79, 65
2, 2280, Note_on_c, 0, 79, 0
2, 2280, Note_on_c, 0, 77, 65
2, 2310, Note_on_c, 0, 77, 0
2, 2310, Note_on_c, 0, 79, 66
2, 2340, Note_on_c, 0, 79, 0
2, 2340, Note_on_c, 0, 77, 66
2, 2360, Note_on_c, 0, 77, 0
2, 2360, Note_on_c, 0, 79, 66
2, 2380, Note_on_c, 0, 79, 0
2, 2380, Note_on_c, 0, 77, 66
2, 2400, Note_on_c, 0, 77, 0
2, 2400, Note_on_c, 0, 76, 67
2, 2496, Note_on_c, 0, 76, 0
2, 2880, Note_on_c, 0, 69, 85
2, 3000, Note_on_c, 0, 69, 0
2, 3000, Note_on_c, 0, 67, 85
2, 3030, Note_on_c, 0, 67, 0
2, 3030, Note_on_c, 0, 65, 85
2, 3060, Note_on_c, 0, 65, 0
2, 3060, Note_on_c, 0, 64, 85
2, 3090, Note_on_c, 0, 64, 0
2, 3090, Note_on_c, 0, 62, 85
2, 3120, Note_on_c, 0, 62, 0
2, 3120, Note_on_c, 0, 61, 85
2, 3216, Note_on_c, 0, 61, 0
2, 3360, Note_on_c, 0, 55, 85
2, 3398, Note_on_c, 0, 55, 0
2, 3400, Note_on_c, 0, 58, 85
2, 3438, Note_on_c, 0, 58, 0
2, 3440, Note_on_c, 0, 61, 85
2, 3478, Note_on_c, 0, 61, 0
2, 3480, Note_on_c, 0, 64, 85
2, 3518, Note_on_c, 0, 64, 0
2, 3520, Note_on_c, 0, 67, 85
2, 3558, Note_on_c, 0, 67, 0
2, 3560, Note_on_c, 0, 69, 85
2, 3598, Note_on_c, 0, 69, 0
2, 3600, Note_on_c, 0, 70, 85
2, 3720, Note_on_c, 0, 70, 0
2, 3720, Note_on_c, 0, 69, 85
2, 3750, Note_on_c, 0, 69, 0
2, 3750, Note_on_c, 0, 67, 85
2, 3780, Note_on_c, 0, 67, 0
2, 3780, Note_on_c, 0, 65, 85
2, 3810, Note_on_c, 0, 65, 0
2, 3810, Note_on_c, 0, 64, 85
2, 3840, Note_on_c, 0, 64, 0
2, 3840, Note_on_c, 0, 62, 85
2, 3930, Note_on_c, 0, 62, 0
2, 4020, Note_on_c, 0, 73, 64
2, 4080, Note_on_c, 0, 73, 0
2, 4080, Note_on_c, 0, 74, 64
2, 4140, Note_on_c, 0, 74, 0
2, 4140, Note_on_c, 0, 76, 64
2, 4160, Note_on_c, 0, 76, 0
2, 4160, Note_on_c, 0, 74, 64
2, 4180, Note_on_c, 0, 74, 0
2, 4180, Note_on_c, 0, 73, 64
2, 4200, Note_on_c, 0, 73, 0
2, 4200, Note_on_c, 0, 74, 64
2, 4230, Note_on_c, 0, 74, 0
2, 4260, Note_on_c, 0, 76, 64
2, 4320, Note_on_c, 0, 76, 0
2, 4320, Note_on_c, 0, 77, 64
2, 4344, Note_on_c, 0, 77, 0
2, 4350, Note_on_c, 0, 79, 64
2, 4374, Note_on_c, 0, 79, 0
2, 4380, Note_on_c, 0, 77, 64
2, 4410, Note_on_c, 0, 77, 0
2, 4500, Note_on_c, 0, 85, 64
2, 4548, Note_on_c, 0, 85, 0
2, 4560, Note_on_c, 0, 86, 64
2, 4656, Note_on_c, 0, 86, 0
2, 4740, Note_on_c, 0, 88, 64
2, 4788, Note_on_c, 0, 88, 0
2, 4800, Note_on_c, 0, 89, 80
2, 4896, Note_on_c, 0, 89, 0
2, 4980, Note_on_c, 0, 56, 64
2, 5028, Note_on_c, 0, 56, 0
2, 5040, Note_on_c, 0, 56, 64
2, 5232, Note_on_c, 0, 56, 0
2, 5280, Note_on_c, 0, 57, 64
2, 5304, Note_on_c, 0, 57, 0
2, 5310, Note_on_c, 0, 56, 64
2, 5334, Note_on_c, 0, 56, 0
2, 5340, Note_on_c, 0, 57, 64
2, 5364, Note_on_c, 0, 57, 0
2, 5370, Note_on_c, 0, 56, 64
2, 5394, Note_on_c, 0, 56, 0
2, 5400, Note_on_c, 0, 57, 64
2, 5496, Note_on_c, 0, 57, 0
2, 5800, Note_on_c, 0, 84, 85
2, 5830, Note_on_c, 0, 84, 0
2, 5840, Note_on_c, 0, 79, 85
2, 5880, Note_on_c, 0, 81, 85
2, 5885, Note_on_c, 0, 79, 0
2, 5920, Note_on_c, 0, 81, 0
2, 5920, Note_on_c, 0, 84, 85
2, 5960, Note_on_c, 0, 84, 0
2, 5960, Note_on_c, 0, 76, 85
2, 6000, Note_on_c, 0, 76, 0
2, 6000, Note_on_c, 0, 77, 85
2, 6040, Note_on_c, 0, 77, 0
2, 6040, Note_on_c, 0, 81, 85
2, 6080, Note_on_c, 0, 81, 0
2, 6080, Note_on_c, 0, 77, 85
2, 6120, Note_on_c, 0, 77, 0
2, 6120, Note_on_c, 0, 76, 85
2, 6160, Note_on_c, 0, 76, 0
2, 6160, Note_on_c, 0, 74, 85
2, 6200, Note_on_c, 0, 74, 0
2, 6200, Note_on_c, 0, 72, 85
2, 6240, Note_on_c, 0, 72, 0
2, 6240, Note_on_c, 0, 70, 85
2, 6280, Note_on_c, 0, 70, 0
2, 6280, Note_on_c, 0, 69, 85
2, 6320, Note_on_c, 0, 69, 0
2, 6320, Note_on_c, 0, 67, 85
2, 6360, Note_on_c, 0, 67, 0
2, 6360, Note_on_c, 0, 65, 85
2, 6400, Note_on_c, 0, 65, 0
2, 6400, Note_on_c, 0, 64, 85
2, 6440, Note_on_c, 0, 64, 0
2, 6440, Note_on_c, 0, 62, 85
2, 6480, Note_on_c, 0, 62, 0
2, 6480, Note_on_c, 0, 60, 80
2, 6816, Note_on_c, 0, 60, 0
2, 6900, Note_on_c, 0, 64, 80
2, 6948, Note_on_c, 0, 64, 0
2, 6960, Note_on_c, 0, 62, 80
2, 7104, Note_on_c, 0, 62, 0
2, 7140, Note_on_c, 0, 60, 80
2, 7188, Note_on_c, 0, 60, 0
2, 7200, Note_on_c, 0, 60, 85
2, 7240, Note_on_c, 0, 60, 0
2, 7240, Note_on_c, 0, 84, 85
2, 7280, Note_on_c, 0, 84, 0
2, 7280, Note_on_c, 0, 79, 85
2, 7320, Note_on_c, 0, 79, 0
2, 7320, Note_on_c, 0, 81, 85
2, 7360, Note_on_c, 0, 81, 0
2, 7360, Note_on_c, 0, 84, 85
2, 7400, Note_on_c, 0, 84, 0
2, 7400, Note_on_c, 0, 76, 85
2, 7440, Note_on_c, 0, 76, 0
2, 7440, Note_on_c, 0, 77, 85
2, 7480, Note_on_c, 0, 77, 0
2, 7480, Note_on_c, 0, 81, 85
2, 7520, Note_on_c, 0, 81, 0
2, 7520, Note_on_c, 0, 77, 85
2, 7560, Note_on_c, 0, 77, 0
2, 7560, Note_on_c, 0, 76, 85
2, 7600, Note_on_c, 0, 76, 0
2, 7600, Note_on_c, 0, 74, 85
2, 7640, Note_on_c, 0, 74, 0
2, 7640, Note_on_c, 0, 72, 85
2, 7680, Note_on_c, 0, 72, 0
2, 7680, Note_on_c, 0, 70, 85
2, 7720, Note_on_c, 0, 70, 0
2, 7720, Note_on_c, 0, 69, 85
2, 7760, Note_on_c, 0, 69, 0
2, 7760, Note_on_c, 0, 67, 85
2, 7800, Note_on_c, 0, 67, 0
2, 7800, Note_on_c, 0, 65, 85
2, 7840, Note_on_c, 0, 65, 0
2, 7840, Note_on_c, 0, 64, 85
2, 7880, Note_on_c, 0, 64, 0
2, 7880, Note_on_c, 0, 62, 85
2, 7920, Note_on_c, 0, 62, 0
2, 7920, Note_on_c, 0, 60, 80
2, 8256, Note_on_c, 0, 60, 0
2, 8340, Note_on_c, 0, 63, 80
2, 8388, Note_on_c, 0, 63, 0
2, 8400, Note_on_c, 0, 62, 80
2, 8544, Note_on_c, 0, 62, 0
2, 8580, Note_on_c, 0, 60, 80
2, 8628, Note_on_c, 0, 60, 0
2, 8640, Note_on_c, 0, 65, 85
2, 8818, Note_on_c, 0, 65, 0
2, 8820, Note_on_c, 0, 62, 85
2, 8878, Note_on_c, 0, 62, 0
2, 8880, Note_on_c, 0, 58, 85
2, 9158, Note_on_c, 0, 58, 0
2, 9160, Note_on_c, 0, 62, 85
2, 9198, Note_on_c, 0, 62, 0
2, 9200, Note_on_c, 0, 64, 85
2, 9238, Note_on_c, 0, 64, 0
2, 9240, Note_on_c, 0, 65, 85
2, 9278, Note_on_c, 0, 65, 0
2, 9280, Note_on_c, 0, 67, 85
2, 9318, Note_on_c, 0, 67, 0
2, 9320, Note_on_c, 0, 69, 85
2, 9358, Note_on_c, 0, 69, 0
2, 9360, Note_on_c, 0, 70, 85
2, 9780, Note_on_c, 0, 70, 0
2, 9780, Note_on_c, 0, 72, 85
2, 9810, Note_on_c, 0, 72, 0
2, 9810, Note_on_c, 0, 70, 85
2, 9840, Note_on_c, 0, 70, 0
2, 9840, Note_on_c, 0, 69, 85
2, 10080, Note_on_c, 0, 69, 0
2, 10080, Note_on_c, 0, 74, 85
2, 10320, Note_on_c, 0, 74, 0
2, 10320, Note_on_c, 0, 79, 85
2, 10560, Note_on_c, 0, 79, 0
2, 10560, Note_on_c, 0, 77, 85
2, 10800, Note_on_c, 0, 77, 0
2, 10800, Note_on_c, 0, 77, 85
2, 10858, Note_on_c, 0, 77, 0
2, 10860, Note_on_c, 0, 76, 85
2, 10884, Note_on_c, 0, 76, 0
2, 10920, Note_on_c, 0, 74, 85
2, 10944, Note_on_c, 0, 74, 0
2, 10980, Note_on_c, 0, 72, 85
2, 11004, Note_on_c, 0, 72, 0
2, 11040, Note_on_c, 0, 70, 85
2, 11280, Note_on_c, 0, 70, 0
2, 11280, Note_on_c, 0, 69, 85
2, 11518, Note_on_c, 0, 69, 0
2, 11560, Note_on_c, 0, 67, 85
2, 11598, Note_on_c, 0, 67, 0
2, 11600, Note_on_c, 0, 70, 85
2, 11638, Note_on_c, 0, 70, 0
2, 11640, Note_on_c, 0, 74, 85
2, 11678, Note_on_c, 0, 74, 0
2, 11680, Note_on_c, 0, 70, 85
2, 11718, Note_on_c, 0, 70, 0
2, 11720, Note_on_c, 0, 67, 85
2, 11758, Note_on_c, 0, 67, 0
2, 11760, Note_on_c, 0, 65, 85
2, 12072, Note_on_c, 0, 65, 0
2, 12090, Note_on_c, 0, 69, 80
2, 12114, Note_on_c, 0, 69, 0
2, 12120, Note_on_c, 0, 67, 80
2, 12216, Note_on_c, 0, 67, 0
2, 12240, Note_on_c, 0, 69, 85
2, 12278, Note_on_c, 0, 69, 0
2, 12280, Note_on_c, 0, 72, 85
2, 12318, Note_on_c, 0, 72, 0
2, 12320, Note_on_c, 0, 70, 85
2, 12358, Note_on_c, 0, 70, 0
2, 12360, Note_on_c, 0, 69, 85
2, 12398, Note_on_c, 0, 69, 0
2, 12400, Note_on_c, 0, 77, 85
2, 12438, Note_on_c, 0, 77, 0
2, 12440, Note_on_c, 0, 76, 85
2, 12478, Note_on_c, 0, 76, 0
2, 12480, Note_on_c, 0, 74, 85
2, 12518, Note_on_c, 0, 74, 0
2, 12520, Note_on_c, 0, 82, 85
2, 12558, Note_on_c, 0, 82, 0
2, 12560, Note_on_c, 0, 81, 85
2, 12598, Note_on_c, 0, 81, 0
2, 12600, Note_on_c, 0, 79, 85
2, 12638, Note_on_c, 0, 79, 0
2, 12640, Note_on_c, 0, 86, 85
2, 12678, Note_on_c, 0, 86, 0
2, 12680, Note_on_c, 0, 84, 85
2, 12718, Note_on_c, 0, 84, 0
2, 12720, Note_on_c, 0, 82, 85
2, 12758, Note_on_c, 0, 82, 0
2, 12760, Note_on_c, 0, 81, 85
2, 12798, Note_on_c, 0, 81, 0
2, 12800, Note_on_c, 0, 79, 85
2, 12838, Note_on_c, 0, 79, 0
2, 12840, Note_on_c, 0, 77, 85
2, 12878, Note_on_c, 0, 77, 0
2, 12880, Note_on_c, 0, 76, 85
2, 12918, Note_on_c, 0, 76, 0
2, 12920, Note_on_c, 0, 74, 85
2, 12958, Note_on_c, 0, 74, 0
2, 12960, Note_on_c, 0, 72, 85
2, 13198, Note_on_c, 0, 72, 0
2, 13200, Note_on_c, 0, 70, 80
2, 13224, Note_on_c, 0, 70, 0
2, 13230, Note_on_c, 0, 72, 80
2, 13254, Note_on_c, 0, 72, 0
2, 13260, Note_on_c, 0, 70, 80
2, 13284, Note_on_c, 0, 70, 0
2, 13290, Note_on_c, 0, 72, 80
2, 13314, Note_on_c, 0, 72, 0
2, 13320, Note_on_c, 0, 70, 80
2, 13336, Note_on_c, 0, 70, 0
2, 13340, Note_on_c, 0, 72, 80
2, 13356, Note_on_c, 0, 72, 0
2, 13360, Note_on_c, 0, 70, 80
2, 13376, Note_on_c, 0, 70, 0
2, 13380, Note_on_c, 0, 69, 80
2, 13404, Note_on_c, 0, 69, 0
2, 13410, Note_on_c, 0, 70, 80
2, 13434, Note_on_c, 0, 70, 0
2, 13440, Note_on_c, 0, 69, 80
2, 13632, Note_on_c, 0, 69, 0
2, 13720, Note_on_c, 0, 66, 85
2, 13758, Note_on_c, 0, 66, 0
2, 13760, Note_on_c, 0, 67, 85
2, 13798, Note_on_c, 0, 67, 0
2, 13800, Note_on_c, 0, 74, 85
2, 13838, Note_on_c, 0, 74, 0
2, 13840, Note_on_c, 0, 70, 85
2, 13878, Note_on_c, 0, 70, 0
2, 13880, Note_on_c, 0, 67, 85
2, 13918, Note_on_c, 0, 67, 0
2, 13920, Note_on_c, 0, 65, 85
2, 14232, Note_on_c, 0, 65, 0
2, 14250, Note_on_c, 0, 69, 64
2, 14274, Note_on_c, 0, 69, 0
2, 14280, Note_on_c, 0, 67, 64
2, 14376, Note_on_c, 0, 67, 0
2, 14400, Note_on_c, 0, 69, 64
2, 14438, Note_on_c, 0, 69, 0
2, 14440, Note_on_c, 0, 72, 64
2, 14478, Note_on_c, 0, 72, 0
2, 14480, Note_on_c, 0, 70, 64
2, 14518, Note_on_c, 0, 70, 0
2, 14520, Note_on_c, 0, 69, 64
2, 14558, Note_on_c, 0, 69, 0
2, 14560, Note_on_c, 0, 77, 64
2, 14598, Note_on_c, 0, 77, 0
2, 14600, Note_on_c, 0, 76, 64
2, 14638, Note_on_c, 0, 76, 0
2, 14640, Note_on_c, 0, 74, 64
2, 14678, Note_on_c, 0, 74, 0
2, 14680, Note_on_c, 0, 82, 64
2, 14718, Note_on_c, 0, 82, 0
2, 14720, Note_on_c, 0, 81, 64
2, 14758, Note_on_c, 0, 81, 0
2, 14760, Note_on_c, 0, 79, 64
2, 14798, Note_on_c, 0, 79, 0
2, 14800, Note_on_c, 0, 86, 64
2, 14838, Note_on_c, 0, 86, 0
2, 14840, Note_on_c, 0, 84, 64
2, 14878, Note_on_c, 0, 84, 0
2, 14880, Note_on_c, 0, 82, 64
2, 14918, Note_on_c, 0, 82, 0
2, 14920, Note_on_c, 0, 81, 64
2, 14958, Note_on_c, 0, 81, 0
2, 14960, Note_on_c, 0, 79, 64
2, 14998, Note_on_c, 0, 79, 0
2, 15000, Note_on_c, 0, 77, 64
2, 15038, Note_on_c, 0, 77, 0
2, 15040, Note_on_c, 0, 76, 64
2, 15078, Note_on_c, 0, 76, 0
2, 15080, Note_on_c, 0, 74, 64
2, 15118, Note_on_c, 0, 74, 0
2, 15120, Note_on_c, 0, 72, 64
2, 15358, Note_on_c, 0, 72, 0
2, 15360, Note_on_c, 0, 70, 69
2, 15384, Note_on_c, 0, 70, 0
2, 15390, Note_on_c, 0, 72, 70
2, 15414, Note_on_c, 0, 72, 0
2, 15420, Note_on_c, 0, 70, 71
2, 15444, Note_on_c, 0, 70, 0
2, 15450, Note_on_c, 0, 72, 71
2, 15474, Note_on_c, 0, 72, 0
2, 15480, Note_on_c, 0, 70, 72
2, 15496, Note_on_c, 0, 70, 0
2, 15500, Note_on_c, 0, 72, 72
2, 15516, Note_on_c, 0, 72, 0
2, 15520, Note_on_c, 0, 70, 73
2, 15536, Note_on_c, 0, 70, 0
2, 15540, Note_on_c, 0, 69, 73
2, 15564, Note_on_c, 0, 69, 0
2, 15570, Note_on_c, 0, 70, 74
2, 15594, Note_on_c, 0, 70, 0
2, 15600, Note_on_c, 0, 69, 75
2, 15792, Note_on_c, 0, 69, 0
2, 15840, Note_on_c, 0, 66, 80
2, 15878, Note_on_c, 0, 66, 0
2, 15880, Note_on_c, 0, 67, 79
2, 15918, Note_on_c, 0, 67, 0
2, 15920, Note_on_c, 0, 70, 78
2, 15958, Note_on_c, 0, 70, 0
2, 15960, Note_on_c, 0, 74, 77
2, 15998, Note_on_c, 0, 74, 0
2, 16000, Note_on_c, 0, 79, 76
2, 16038, Note_on_c, 0, 79, 0
2, 16040, Note_on_c, 0, 82, 76
2, 16078, Note_on_c, 0, 82, 0
2, 16080, Note_on_c, 0, 86, 75
2, 16118, Note_on_c, 0, 86, 0
2, 16120, Note_on_c, 0, 84, 74
2, 16158, Note_on_c, 0, 84, 0
2, 16160, Note_on_c, 0, 82, 73
2, 16198, Note_on_c, 0, 82, 0
2, 16200, Note_on_c, 0, 81, 72
2, 16238, Note_on_c, 0, 81, 0
2, 16240, Note_on_c, 0, 79, 71
2, 16278, Note_on_c, 0, 79, 0
2, 16280, Note_on_c, 0, 77, 70
2, 16318, Note_on_c, 0, 77, 0
2, 16320, Note_on_c, 0, 77, 69
2, 16358, Note_on_c, 0, 77, 0
2, 16360, Note_on_c, 0, 76, 68
2, 16398, Note_on_c, 0, 76, 0
2, 16400, Note_on_c, 0, 79, 68
2, 16438, Note_on_c, 0, 79, 0
2, 16440, Note_on_c, 0, 82, 67
2, 16478, Note_on_c, 0, 82, 0
2, 16480, Note_on_c, 0, 79, 66
2, 16518, Note_on_c, 0, 79, 0
2, 16520, Note_on_c, 0, 76, 65
2, 16558, Note_on_c, 0, 76, 0
2, 16560, Note_on_c, 0, 76, 64
2, 16752, Note_on_c, 0, 76, 0
2, 16800, Note_on_c, 0, 77, 56
2, 16992, Note_on_c, 0, 77, 0
2, 17280, Note_on_c, 0, 72, 80
2, 17458, Note_on_c, 0, 72, 0
2, 17460, Note_on_c, 0, 69, 85
2, 17488, Note_on_c, 0, 69, 0
2, 17490, Note_on_c, 0, 65, 85
2, 17518, Note_on_c, 0, 65, 0
2, 17520, Note_on_c, 0, 64, 85
2, 17638, Note_on_c, 0, 64, 0
2, 17880, Note_on_c, 0, 64, 85
2, 17918, Note_on_c, 0, 64, 0
2, 17920, Note_on_c, 0, 67, 85
2, 17958, Note_on_c, 0, 67, 0
2, 17960, Note_on_c, 0, 70, 85
2, 17998, Note_on_c, 0, 70, 0
2, 18000, Note_on_c, 0, 74, 85
2, 18118, Note_on_c, 0, 74, 0
2, 18120, Note_on_c, 0, 72, 85
2, 18148, Note_on_c, 0, 72, 0
2, 18150, Note_on_c, 0, 70, 85
2, 18178, Note_on_c, 0, 70, 0
2, 18180, Note_on_c, 0, 69, 85
2, 18208, Note_on_c, 0, 69, 0
2, 18210, Note_on_c, 0, 67, 85
2, 18238, Note_on_c, 0, 67, 0
2, 18240, Note_on_c, 0, 66, 85
2, 18358, Note_on_c, 0, 66, 0
2, 18840, Note_on_c, 0, 70, 85
2, 18878, Note_on_c, 0, 70, 0
2, 18880, Note_on_c, 0, 74, 85
2, 18918, Note_on_c, 0, 74, 0
2, 18920, Note_on_c, 0, 79, 85
2, 18958, Note_on_c, 0, 79, 0
2, 18960, Note_on_c, 0, 82, 85
2, 18998, Note_on_c, 0, 82, 0
2, 19000, Note_on_c, 0, 86, 85
2, 19038, Note_on_c, 0, 86, 0
2, 19040, Note_on_c, 0, 84, 85
2, 19078, Note_on_c, 0, 84, 0
2, 19080, Note_on_c, 0, 82, 85
2, 19118, Note_on_c, 0, 82, 0
2, 19120, Note_on_c, 0, 81, 85
2, 19158, Note_on_c, 0, 81, 0
2, 19160, Note_on_c, 0, 79, 85
2, 19198, Note_on_c, 0, 79, 0
2, 19200, Note_on_c, 0, 86, 85
2, 19238, Note_on_c, 0, 86, 0
2, 19240, Note_on_c, 0, 84, 85
2, 19278, Note_on_c, 0, 84, 0
2, 19280, Note_on_c, 0, 82, 85
2, 19318, Note_on_c, 0, 82, 0
2, 19320, Note_on_c, 0, 81, 85
2, 19358, Note_on_c, 0, 81, 0
2, 19360, Note_on_c, 0, 79, 85
2, 19398, Note_on_c, 0, 79, 0
2, 19400, Note_on_c, 0, 77, 85
2, 19438, Note_on_c, 0, 77, 0
2, 19440, Note_on_c, 0, 77, 85
2, 19918, Note_on_c, 0, 77, 0
2, 19920, Note_on_c, 0, 76, 80
2, 19944, Note_on_c, 0, 76, 0
2, 19950, Note_on_c, 0, 77, 80
2, 19974, Note_on_c, 0, 77, 0
2, 19980, Note_on_c, 0, 76, 80
2, 20004, Note_on_c, 0, 76, 0
2, 20010, Note_on_c, 0, 77, 80
2, 20034, Note_on_c, 0, 77, 0
2, 20040, Note_on_c, 0, 76, 80
2, 20136, Note_on_c, 0, 76, 0
2, 20200, Note_on_c, 0, 72, 85
2, 20238, Note_on_c, 0, 72, 0
2, 20240, Note_on_c, 0, 74, 85
2, 20278, Note_on_c, 0, 74, 0
2, 20280, Note_on_c, 0, 76, 85
2, 20318, Note_on_c, 0, 76, 0
2, 20320, Note_on_c, 0, 77, 85
2, 20358, Note_on_c, 0, 77, 0
2, 20360, Note_on_c, 0, 79, 85
2, 20398, Note_on_c, 0, 79, 0
2, 20400, Note_on_c, 0, 81, 85
2, 20438, Note_on_c, 0, 81, 0
2, 20440, Note_on_c, 0, 82, 85
2, 20478, Note_on_c, 0, 82, 0
2, 20480, Note_on_c, 0, 84, 85
2, 20518, Note_on_c, 0, 84, 0
2, 20520, Note_on_c, 0, 82, 85
2, 20558, Note_on_c, 0, 82, 0
2, 20560, Note_on_c, 0, 81, 85
2, 20598, Note_on_c, 0, 81, 0
2, 20600, Note_on_c, 0, 79, 85
2, 20638, Note_on_c, 0, 79, 0
2, 20640, Note_on_c, 0, 77, 85
2, 20678, Note_on_c, 0, 77, 0
2, 20680, Note_on_c, 0, 84, 85
2, 20718, Note_on_c, 0, 84, 0
2, 20720, Note_on_c, 0, 81, 85
2, 20758, Note_on_c, 0, 81, 0
2, 20760, Note_on_c, 0, 79, 85
2, 20798, Note_on_c, 0, 79, 0
2, 20800, Note_on_c, 0, 77, 85
2, 20838, Note_on_c, 0, 77, 0
2, 20840, Note_on_c, 0, 76, 85
2, 20878, Note_on_c, 0, 76, 0
2, 20880, Note_on_c, 0, 76, 85
2, 21058, Note_on_c, 0, 76, 0
2, 21060, Note_on_c, 0, 74, 85
2, 21118, Note_on_c, 0, 74, 0
2, 21120, Note_on_c, 0, 82, 85
2, 21240, Note_on_c, 0, 82, 0
2, 21360, Note_on_c, 0, 74, 85
2, 21598, Note_on_c, 0, 74, 0
2, 21600, Note_on_c, 0, 73, 80
2, 21778, Note_on_c, 0, 73, 0
2, 21780, Note_on_c, 0, 76, 82
2, 21838, Note_on_c, 0, 76, 0
2, 21840, Note_on_c, 0, 79, 83
2, 21960, Note_on_c, 0, 79, 0
2, 22080, Note_on_c, 0, 77, 85
2, 22258, Note_on_c, 0, 77, 0
2, 22260, Note_on_c, 0, 74, 87
2, 22318, Note_on_c, 0, 74, 0
2, 22320, Note_on_c, 0, 81, 88
2, 22558, Note_on_c, 0, 81, 0
2, 23080, Note_on_c, 0, 69, 85
2, 23118, Note_on_c, 0, 69, 0
2, 23120, Note_on_c, 0, 67, 85
2, 23158, Note_on_c, 0, 67, 0
2, 23160, Note_on_c, 0, 65, 85
2, 23198, Note_on_c, 0, 65, 0
2, 23200, Note_on_c, 0, 64, 85
2, 23238, Note_on_c, 0, 64, 0
2, 23240, Note_on_c, 0, 62, 85
2, 23278, Note_on_c, 0, 62, 0
2, 23280, Note_on_c, 0, 61, 85
2, 23400, Note_on_c, 0, 61, 0
2, 23800, Note_on_c, 0, 82, 85
2, 23838, Note_on_c, 0, 82, 0
2, 23840, Note_on_c, 0, 81, 85
2, 23878, Note_on_c, 0, 81, 0
2, 23880, Note_on_c, 0, 79, 85
2, 23918, Note_on_c, 0, 79, 0
2, 23920, Note_on_c, 0, 77, 85
2, 23958, Note_on_c, 0, 77, 0
2, 23960, Note_on_c, 0, 76, 85
2, 23998, Note_on_c, 0, 76, 0
2, 24000, Note_on_c, 0, 74, 85
2, 24038, Note_on_c, 0, 74, 0
2, 24040, Note_on_c, 0, 81, 85
2, 24078, Note_on_c, 0, 81, 0
2, 24080, Note_on_c, 0, 79, 85
2, 24118, Note_on_c, 0, 79, 0
2, 24120, Note_on_c, 0, 77, 85
2, 24158, Note_on_c, 0, 77, 0
2, 24160, Note_on_c, 0, 76, 85
2, 24198, Note_on_c, 0, 76, 0
2, 24200, Note_on_c, 0, 74, 85
2, 24238, Note_on_c, 0, 74, 0
2, 24240, Note_on_c, 0, 86, 85
2, 24330, Note_on_c, 0, 86, 0
2, 24420, Note_on_c, 0, 74, 64
2, 24420, Note_on_c, 0, 84, 64
2, 24478, Note_on_c, 0, 84, 0
2, 24478, Note_on_c, 0, 74, 0
2, 24480, Note_on_c, 0, 74, 64
2, 24480, Note_on_c, 0, 82, 64
2, 24570, Note_on_c, 0, 82, 0
2, 24570, Note_on_c, 0, 74, 0
2, 24660, Note_on_c, 0, 74, 64
2, 24718, Note_on_c, 0, 74, 0
2, 24720, Note_on_c, 0, 73, 64
2, 24810, Note_on_c, 0, 73, 0
2, 24900, Note_on_c, 0, 76, 64
2, 24958, Note_on_c, 0, 76, 0
2, 24960, Note_on_c, 0, 73, 64
2, 24960, Note_on_c, 0, 81, 64
2, 25078, Note_on_c, 0, 81, 0
2, 25078, Note_on_c, 0, 73, 0
2, 25140, Note_on_c, 0, 79, 64
2, 25198, Note_on_c, 0, 79, 0
2, 25200, Note_on_c, 0, 79, 64
2, 25257, Note_on_c, 0, 79, 0
2, 25260, Note_on_c, 0, 77, 64
2, 25284, Note_on_c, 0, 77, 0
2, 25290, Note_on_c, 0, 79, 64
2, 25314, Note_on_c, 0, 79, 0
2, 25320, Note_on_c, 0, 77, 64
2, 25344, Note_on_c, 0, 77, 0
2, 25350, Note_on_c, 0, 79, 64
2, 25374, Note_on_c, 0, 79, 0
2, 25380, Note_on_c, 0, 77, 64
2, 25396, Note_on_c, 0, 77, 0
2, 25400, Note_on_c, 0, 79, 64
2, 25416, Note_on_c, 0, 79, 0
2, 25420, Note_on_c, 0, 77, 64
2, 25430, Note_on_c, 0, 77, 0
2, 25440, Note_on_c, 0, 76, 64
2, 25560, Note_on_c, 0, 76, 0
2, 25920, Note_on_c, 0, 69, 85
2, 25958, Note_on_c, 0, 69, 0
2, 25960, Note_on_c, 0, 76, 85
2, 25998, Note_on_c, 0, 76, 0
2, 26000, Note_on_c, 0, 74, 85
2, 26038, Note_on_c, 0, 74, 0
2, 26040, Note_on_c, 0, 73, 85
2, 26078, Note_on_c, 0, 73, 0
2, 26080, Note_on_c, 0, 79, 85
2, 26118, Note_on_c, 0, 79, 0
2, 26120, Note_on_c, 0, 77, 85
2, 26158, Note_on_c, 0, 77, 0
2, 26160, Note_on_c, 0, 76, 85
2, 26198, Note_on_c, 0, 76, 0
2, 26200, Note_on_c, 0, 82, 85
2, 26238, Note_on_c, 0, 82, 0
2, 26240, Note_on_c, 0, 81, 85
2, 26278, Note_on_c, 0, 81, 0
2, 26280, Note_on_c, 0, 79, 85
2, 26318, Note_on_c, 0, 79, 0
2, 26320, Note_on_c, 0, 88, 85
2, 26358, Note_on_c, 0, 88, 0
2, 26360, Note_on_c, 0, 86, 85
2, 26398, Note_on_c, 0, 86, 0
2, 26400, Note_on_c, 0, 85, 85
2, 26438, Note_on_c, 0, 85, 0
2, 26440, Note_on_c, 0, 82, 85
2, 26478, Note_on_c, 0, 82, 0
2, 26480, Note_on_c, 0, 81, 85
2, 26518, Note_on_c, 0, 81, 0
2, 26520, Note_on_c, 0, 79, 85
2, 26558, Note_on_c, 0, 79, 0
2, 26560, Note_on_c, 0, 77, 85
2, 26598, Note_on_c, 0, 77, 0
2, 26600, Note_on_c, 0, 76, 85
2, 26638, Note_on_c, 0, 76, 0
2, 26640, Note_on_c, 0, 74, 85
2, 26678, Note_on_c, 0, 74, 0
2, 26680, Note_on_c, 0, 81, 85
2, 26718, Note_on_c, 0, 81, 0
2, 26720, Note_on_c, 0, 79, 85
2, 26758, Note_on_c, 0, 79, 0
2, 26760, Note_on_c, 0, 78, 85
2, 26798, Note_on_c, 0, 78, 0
2, 26800, Note_on_c, 0, 84, 85
2, 26838, Note_on_c, 0, 84, 0
2, 26840, Note_on_c, 0, 82, 85
2, 26878, Note_on_c, 0, 82, 0
2, 26880, Note_on_c, 0, 81, 85
2, 26918, Note_on_c, 0, 81, 0
2, 26920, Note_on_c, 0, 87, 85
2, 26958, Note_on_c, 0, 87, 0
2, 26960, Note_on_c, 0, 86, 85
2, 26998, Note_on_c, 0, 86, 0
2, 27000, Note_on_c, 0, 84, 85
2, 27038, Note_on_c, 0, 84, 0
2, 27040, Note_on_c, 0, 82, 85
2, 27078, Note_on_c, 0, 82, 0
2, 27080, Note_on_c, 0, 81, 85
2, 27118, Note_on_c, 0, 81, 0
2, 27120, Note_on_c, 0, 79, 85
2, 27158, Note_on_c, 0, 79, 0
2, 27160, Note_on_c, 0, 78, 85
2, 27198, Note_on_c, 0, 78, 0
2, 27200, Note_on_c, 0, 79, 85
2, 27238, Note_on_c, 0, 79, 0
2, 27240, Note_on_c, 0, 81, 85
2, 27278, Note_on_c, 0, 81, 0
2, 27280, Note_on_c, 0, 78, 85
2, 27318, Note_on_c, 0, 78, 0
2, 27320, Note_on_c, 0, 72, 85
2, 27358, Note_on_c, 0, 72, 0
2, 27360, Note_on_c, 0, 70, 85
2, 27598, Note_on_c, 0, 70, 0
2, 27600, Note_on_c, 0, 82, 85
2, 27838, Note_on_c, 0, 82, 0
2, 27840, Note_on_c, 0, 74, 85
2, 28078, Note_on_c, 0, 74, 0
2, 28080, Note_on_c, 0, 73, 85
2, 28318, Note_on_c, 0, 73, 0
2, 28320, Note_on_c, 0, 79, 85
2, 28558, Note_on_c, 0, 79, 0
2, 28560, Note_on_c, 0, 77, 85
2, 28798, Note_on_c, 0, 77, 0
2, 28840, Note_on_c, 0, 76, 85
2, 28878, Note_on_c, 0, 76, 0
2, 28880, Note_on_c, 0, 79, 85
2, 28918, Note_on_c, 0, 79, 0
2, 28920, Note_on_c, 0, 82, 85
2, 28958, Note_on_c, 0, 82, 0
2, 28960, Note_on_c, 0, 79, 85
2, 28998, Note_on_c, 0, 79, 0
2, 29000, Note_on_c, 0, 76, 85
2, 29038, Note_on_c, 0, 76, 0
2, 29040, Note_on_c, 0, 74, 85
2, 29352, Note_on_c, 0, 74, 0
2, 29370, Note_on_c, 0, 77, 80
2, 29394, Note_on_c, 0, 77, 0
2, 29400, Note_on_c, 0, 73, 80
2, 29400, Note_on_c, 0, 76, 80
2, 29496, Note_on_c, 0, 76, 0
2, 29496, Note_on_c, 0, 73, 0
2, 29520, Note_on_c, 0, 78, 85
2, 29758, Note_on_c, 0, 78, 0
2, 29760, Note_on_c, 0, 81, 85
2, 30038, Note_on_c, 0, 81, 0
2, 30040, Note_on_c, 0, 87, 85
2, 30078, Note_on_c, 0, 87, 0
2, 30080, Note_on_c, 0, 86, 85
2, 30118, Note_on_c, 0, 86, 0
2, 30120, Note_on_c, 0, 84, 85
2, 30158, Note_on_c, 0, 84, 0
2, 30160, Note_on_c, 0, 82, 85
2, 30198, Note_on_c, 0, 82, 0
2, 30200, Note_on_c, 0, 81, 85
2, 30238, Note_on_c, 0, 81, 0
2, 30240, Note_on_c, 0, 79, 85
2, 30478, Note_on_c, 0, 79, 0
2, 30480, Note_on_c, 0, 82, 85
2, 30758, Note_on_c, 0, 82, 0
2, 30760, Note_on_c, 0, 86, 85
2, 30798, Note_on_c, 0, 86, 0
2, 30800, Note_on_c, 0, 84, 85
2, 30838, Note_on_c, 0, 84, 0
2, 30840, Note_on_c, 0, 82, 85
2, 30878, Note_on_c, 0, 82, 0
2, 30880, Note_on_c, 0, 81, 85
2, 30918, Note_on_c, 0, 81, 0
2, 30920, Note_on_c, 0, 79, 85
2, 30958, Note_on_c, 0, 79, 0
2, 30960, Note_on_c, 0, 78, 85
2, 31238, Note_on_c, 0, 78, 0
2, 31240, Note_on_c, 0, 79, 85
2, 31278, Note_on_c, 0, 79, 0
2, 31280, Note_on_c, 0, 80, 85
2, 31318, Note_on_c, 0, 80, 0
2, 31320, Note_on_c, 0, 81, 85
2, 31358, Note_on_c, 0, 81, 0
2, 31360, Note_on_c, 0, 82, 85
2, 31398, Note_on_c, 0, 82, 0
2, 31400, Note_on_c, 0, 84, 85
2, 31438, Note_on_c, 0, 84, 0
2, 31440, Note_on_c, 0, 86, 85
2, 31478, Note_on_c, 0, 86, 0
2, 31480, Note_on_c, 0, 87, 85
2, 31518, Note_on_c, 0, 87, 0
2, 31520, Note_on_c, 0, 86, 85
2, 31558, Note_on_c, 0, 86, 0
2, 31560, Note_on_c, 0, 84, 85
2, 31598, Note_on_c, 0, 84, 0
2, 31600, Note_on_c, 0, 82, 85
2, 31638, Note_on_c, 0, 82, 0
2, 31640, Note_on_c, 0, 81, 85
2, 31678, Note_on_c, 0, 81, 0
2, 31680, Note_on_c, 0, 82, 85
2, 31718, Note_on_c, 0, 82, 0
2, 31720, Note_on_c, 0, 86, 85
2, 31758, Note_on_c, 0, 86, 0
2, 31760, Note_on_c, 0, 78, 85
2, 31798, Note_on_c, 0, 78, 0
2, 31800, Note_on_c, 0, 79, 85
2, 31838, Note_on_c, 0, 79, 0
2, 31840, Note_on_c, 0, 82, 85
2, 31878, Note_on_c, 0, 82, 0
2, 31880, Note_on_c, 0, 74, 85
2, 31918, Note_on_c, 0, 74, 0
2, 31920, Note_on_c, 0, 82, 85
2, 31958, Note_on_c, 0, 82, 0
2, 31960, Note_on_c, 0, 86, 85
2, 31998, Note_on_c, 0, 86, 0
2, 32000, Note_on_c, 0, 78, 85
2, 32038, Note_on_c, 0, 78, 0
2, 32040, Note_on_c, 0, 79, 85
2, 32078, Note_on_c, 0, 79, 0
2, 32080, Note_on_c, 0, 82, 85
2, 32118, Note_on_c, 0, 82, 0
2, 32120, Note_on_c, 0, 74, 85
2, 32158, Note_on_c, 0, 74, 0
2, 32160, Note_on_c, 0, 75, 85
2, 32198, Note_on_c, 0, 75, 0
2, 32200, Note_on_c, 0, 78, 85
2, 32238, Note_on_c, 0, 78, 0
2, 32240, Note_on_c, 0, 79, 85
2, 32278, Note_on_c, 0, 79, 0
2, 32280, Note_on_c, 0, 74, 85
2, 32318, Note_on_c, 0, 74, 0
2, 32320, Note_on_c, 0, 78, 85
2, 32358, Note_on_c, 0, 78, 0
2, 32360, Note_on_c, 0, 79, 85
2, 32398, Note_on_c, 0, 79, 0
2, 32400, Note_on_c, 0, 73, 80
2, 32518, Note_on_c, 0, 73, 0
2, 32680, Note_on_c, 0, 67, 74
2, 32712, Note_on_c, 0, 67, 0
2, 32720, Note_on_c, 0, 70, 73
2, 32752, Note_on_c, 0, 70, 0
2, 32760, Note_on_c, 0, 73, 72
2, 32792, Note_on_c, 0, 73, 0
2, 32800, Note_on_c, 0, 76, 71
2, 32832, Note_on_c, 0, 76, 0
2, 32840, Note_on_c, 0, 79, 70
2, 32872, Note_on_c, 0, 79, 0
2, 32880, Note_on_c, 0, 82, 69
2, 32912, Note_on_c, 0, 82, 0
2, 32920, Note_on_c, 0, 79, 68
2, 32952, Note_on_c, 0, 79, 0
2, 32960, Note_on_c, 0, 85, 68
2, 32992, Note_on_c, 0, 85, 0
2, 33000, Note_on_c, 0, 86, 67
2, 33060, Note_on_c, 0, 86, 0
2, 33160, Note_on_c, 0, 64, 85
2, 33198, Note_on_c, 0, 64, 0
2, 33200, Note_on_c, 0, 67, 85
2, 33238, Note_on_c, 0, 67, 0
2, 33240, Note_on_c, 0, 70, 85
2, 33278, Note_on_c, 0, 70, 0
2, 33280, Note_on_c, 0, 67, 85
2, 33318, Note_on_c, 0, 67, 0
2, 33320, Note_on_c, 0, 64, 85
2, 33358, Note_on_c, 0, 64, 0
2, 33360, Note_on_c, 0, 62, 85
2, 33672, Note_on_c, 0, 62, 0
2, 33690, Note_on_c, 0, 65, 80
2, 33714, Note_on_c, 0, 65, 0
2, 33720, Note_on_c, 0, 61, 80
2, 33720, Note_on_c, 0, 64, 80
2, 33816, Note_on_c, 0, 64, 0
2, 33816, Note_on_c, 0, 61, 0
2, 33840, Note_on_c, 0, 62, 85
2, 34078, Note_on_c, 0, 62, 0
2, 34200, Note_on_c, 0, 86, 64
2, 34200, Note_on_c, 0, 89, 64
2, 34284, Note_on_c, 0, 89, 0
2, 34284, Note_on_c, 0, 86, 0
2, 34320, Note_on_c, 0, 86, 64
2, 34320, Note_on_c, 0, 89, 64
2, 34404, Note_on_c, 0, 89, 0
2, 34404, Note_on_c, 0, 86, 0
2, 34440, Note_on_c, 0, 86, 64
2, 34440, Note_on_c, 0, 89, 64
2, 34524, Note_on_c, 0, 89, 0
2, 34524, Note_on_c, 0, 86, 0
2, 34920, Note_on_c, 0, 86, 64
2, 34920, Note_on_c, 0, 89, 64
2, 35004, Note_on_c, 0, 89, 0
2, 35004, Note_on_c, 0, 86, 0
2, 35040, Note_on_c, 0, 86, 64
2, 35040, Note_on_c, 0, 89, 64
2, 35124, Note_on_c, 0, 89, 0
2, 35124, Note_on_c, 0, 86, 0
2, 35160, Note_on_c, 0, 86, 64
2, 35160, Note_on_c, 0, 89, 64
2, 35244, Note_on_c, 0, 89, 0
2, 35244, Note_on_c, 0, 86, 0
2, 35640, Note_on_c, 0, 62, 64
2, 35640, Note_on_c, 0, 65, 64
2, 35724, Note_on_c, 0, 65, 0
2, 35724, Note_on_c, 0, 62, 0
2, 35760, Note_on_c, 0, 62, 64
2, 35760, Note_on_c, 0, 65, 64
2, 35844, Note_on_c, 0, 65, 0
2, 35844, Note_on_c, 0, 62, 0
2, 35880, Note_on_c, 0, 56, 64
2, 35880, Note_on_c, 0, 62, 64
2, 35964, Note_on_c, 0, 62, 0
2, 35964, Note_on_c, 0, 56, 0
2, 36000, Note_on_c, 0, 57, 64
2, 36038, Note_on_c, 0, 57, 0
2, 36040, Note_on_c, 0, 61, 64
2, 36078, Note_on_c, 0, 61, 0
2, 36080, Note_on_c, 0, 64, 64
2, 36118, Note_on_c, 0, 64, 0
2, 36120, Note_on_c, 0, 69, 64
2, 36158, Note_on_c, 0, 69, 0
2, 36160, Note_on_c, 0, 64, 64
2, 36198, Note_on_c, 0, 64, 0
2, 36200, Note_on_c, 0, 61, 64
2, 36238, Note_on_c, 0, 61, 0
2, 36238, End_track
3, 0, Start_track
3, 0, MIDI_port, 0
3, 0, Title_t, "by F.J. Haydn (2nd mvmt - adagio)"
3, 0, Program_c, 1, 0
3, 0, Control_c, 1, 7, 127
3, 0, Control_c, 1, 10, 56
3, 0, Note_on_c, 1, 62, 64
3, 0, Note_on_c, 1, 65, 64
3, 238, Note_on_c, 1, 65, 0
3, 238, Note_on_c, 1, 62, 0
3, 240, Note_on_c, 1, 64, 80
3, 240, Note_on_c, 1, 67, 80
3, 360, Note_on_c, 1, 67, 0
3, 360, Note_on_c, 1, 64, 0
3, 720, Note_on_c, 1, 64, 64
3, 720, Note_on_c, 1, 67, 64
3, 720, Note_on_c, 1, 70, 64
3, 720, Note_on_c, 1, 73, 64
3, 958, Note_on_c, 1, 73, 0
3, 958, Note_on_c, 1, 64, 0
3, 958, Note_on_c, 1, 67, 0
3, 958, Note_on_c, 1, 70, 0
3, 960, Note_on_c, 1, 65, 85
3, 960, Note_on_c, 1, 69, 85
3, 960, Note_on_c, 1, 74, 85
3, 1078, Note_on_c, 1, 74, 0
3, 1078, Note_on_c, 1, 69, 0
3, 1078, Note_on_c, 1, 65, 0
3, 1440, Note_on_c, 1, 67, 64
3, 1558, Note_on_c, 1, 67, 0
3, 1680, Note_on_c, 1, 69, 64
3, 1798, Note_on_c, 1, 69, 0
3, 1920, Note_on_c, 1, 61, 64
3, 1920, Note_on_c, 1, 69, 64
3, 2038, Note_on_c, 1, 69, 0
3, 2038, Note_on_c, 1, 61, 0
3, 2160, Note_on_c, 1, 62, 64
3, 2160, Note_on_c, 1, 69, 64
3, 2280, Note_on_c, 1, 69, 0
3, 2280, Note_on_c, 1, 62, 0
3, 2400, Note_on_c, 1, 69, 64
3, 2400, Note_on_c, 1, 73, 64
3, 2518, Note_on_c, 1, 73, 0
3, 2518, Note_on_c, 1, 69, 0
3, 2880, Note_on_c, 1, 50, 85
3, 2880, Note_on_c, 1, 53, 85
3, 3118, Note_on_c, 1, 53, 0
3, 3118, Note_on_c, 1, 50, 0
3, 3120, Note_on_c, 1, 52, 85
3, 3120, Note_on_c, 1, 55, 85
3, 3216, Note_on_c, 1, 55, 0
3, 3216, Note_on_c, 1, 52, 0
3, 3600, Note_on_c, 1, 52, 85
3, 3600, Note_on_c, 1, 55, 85
3, 3600, Note_on_c, 1, 58, 85
3, 3600, Note_on_c, 1, 61, 85
3, 3838, Note_on_c, 1, 61, 0
3, 3838, Note_on_c, 1, 52, 0
3, 3838, Note_on_c, 1, 55, 0
3, 3838, Note_on_c, 1, 58, 0
3, 3840, Note_on_c, 1, 53, 85
3, 3840, Note_on_c, 1, 57, 85
3, 3840, Note_on_c, 1, 62, 85
3, 3936, Note_on_c, 1, 62, 0
3, 3936, Note_on_c, 1, 57, 0
3, 3936, Note_on_c, 1, 53, 0
3, 4320, Note_on_c, 1, 46, 64
3, 4320, Note_on_c, 1, 50, 64
3, 4320, Note_on_c, 1, 56, 64
3, 4558, Note_on_c, 1, 56, 0
3, 4558, Note_on_c, 1, 50, 0
3, 4558, Note_on_c, 1, 46, 0
3, 4800, Note_on_c, 1, 34, 64
3, 4918, Note_on_c, 1, 34, 0
3, 5040, Note_on_c, 1, 33, 64
3, 5278, Note_on_c, 1, 33, 0
3, 5760, Note_on_c, 1, 29, 85
3, 5760, Note_on_c, 1, 41, 85
3, 5998, Note_on_c, 1, 41, 0
3, 5998, Note_on_c, 1, 29, 0
3, 6600, Note_on_c, 1, 52, 67
3, 6600, Note_on_c, 1, 58, 67
3, 6684, Note_on_c, 1, 58, 0
3, 6684, Note_on_c, 1, 52, 0
3, 6720, Note_on_c, 1, 52, 69
3, 6720, Note_on_c, 1, 58, 69
3, 6804, Note_on_c, 1, 58, 0
3, 6804, Note_on_c, 1, 52, 0
3, 6840, Note_on_c, 1, 52, 72
3, 6840, Note_on_c, 1, 58, 72
3, 6924, Note_on_c, 1, 58, 0
3, 6924, Note_on_c, 1, 52, 0
3, 6960, Note_on_c, 1, 52, 75
3, 6960, Note_on_c, 1, 58, 75
3, 7044, Note_on_c, 1, 58, 0
3, 7044, Note_on_c, 1, 52, 0
3, 7080, Note_on_c, 1, 52, 77
3, 7080, Note_on_c, 1, 58, 77
3, 7164, Note_on_c, 1, 58, 0
3, 7164, Note_on_c, 1, 52, 0
3, 7200, Note_on_c, 1, 53, 85
3, 7200, Note_on_c, 1, 57, 85
3, 7438, Note_on_c, 1, 57, 0
3, 7438, Note_on_c, 1, 53, 0
3, 8040, Note_on_c, 1, 51, 67
3, 8040, Note_on_c, 1, 57, 67
3, 8124, Note_on_c, 1, 57, 0
3, 8124, Note_on_c, 1, 51, 0
3, 8160, Note_on_c, 1, 51, 69
3, 8160, Note_on_c, 1, 57, 69
3, 8244, Note_on_c, 1, 57, 0
3, 8244, Note_on_c, 1, 51, 0
3, 8280, Note_on_c, 1, 51, 72
3, 8280, Note_on_c, 1, 57, 72
3, 8364, Note_on_c, 1, 57, 0
3, 8364, Note_on_c, 1, 51, 0
3, 8400, Note_on_c, 1, 51, 75
3, 8400, Note_on_c, 1, 57, 75
3, 8484, Note_on_c, 1, 57, 0
3, 8484, Note_on_c, 1, 51, 0
3, 8520, Note_on_c, 1, 51, 77
3, 8520, Note_on_c, 1, 57, 77
3, 8604, Note_on_c, 1, 57, 0
3, 8604, Note_on_c, 1, 51, 0
3, 8760, Note_on_c, 1, 50, 77
3, 8760, Note_on_c, 1, 53, 77
3, 8844, Note_on_c, 1, 53, 0
3, 8844, Note_on_c, 1, 50, 0
3, 8880, Note_on_c, 1, 50, 75
3, 8880, Note_on_c, 1, 53, 75
3, 8964, Note_on_c, 1, 53, 0
3, 8964, Note_on_c, 1, 50, 0
3, 9000, Note_on_c, 1, 50, 72
3, 9000, Note_on_c, 1, 53, 72
3, 9084, Note_on_c, 1, 53, 0
3, 9084, Note_on_c, 1, 50, 0
3, 9120, Note_on_c, 1, 50, 69
3, 9120, Note_on_c, 1, 53, 69
3, 9238, Note_on_c, 1, 53, 0
3, 9238, Note_on_c, 1, 50, 0
3, 9360, Note_on_c, 1, 48, 64
3, 9398, Note_on_c, 1, 48, 0
3, 9400, Note_on_c, 1, 52, 64
3, 9438, Note_on_c, 1, 52, 0
3, 9440, Note_on_c, 1, 55, 64
3, 9478, Note_on_c, 1, 55, 0
3, 9480, Note_on_c, 1, 48, 64
3, 9518, Note_on_c, 1, 48, 0
3, 9520, Note_on_c, 1, 52, 64
3, 9558, Note_on_c, 1, 52, 0
3, 9560, Note_on_c, 1, 55, 64
3, 9598, Note_on_c, 1, 55, 0
3, 9600, Note_on_c, 1, 48, 64
3, 9638, Note_on_c, 1, 48, 0
3, 9640, Note_on_c, 1, 52, 64
3, 9678, Note_on_c, 1, 52, 0
3, 9680, Note_on_c, 1, 55, 64
3, 9718, Note_on_c, 1, 55, 0
3, 9720, Note_on_c, 1, 48, 64
3, 9758, Note_on_c, 1, 48, 0
3, 9760, Note_on_c, 1, 52, 64
3, 9798, Note_on_c, 1, 52, 0
3, 9800, Note_on_c, 1, 55, 64
3, 9838, Note_on_c, 1, 55, 0
3, 9840, Note_on_c, 1, 48, 64
3, 9878, Note_on_c, 1, 48, 0
3, 9880, Note_on_c, 1, 53, 64
3, 9918, Note_on_c, 1, 53, 0
3, 9920, Note_on_c, 1, 57, 64
3, 9958, Note_on_c, 1, 57, 0
3, 9960, Note_on_c, 1, 48, 64
3, 9998, Note_on_c, 1, 48, 0
3, 10000, Note_on_c, 1, 53, 64
3, 10038, Note_on_c, 1, 53, 0
3, 10040, Note_on_c, 1, 57, 64
3, 10078, Note_on_c, 1, 57, 0
3, 10080, Note_on_c, 1, 46, 64
3, 10118, Note_on_c, 1, 46, 0
3, 10120, Note_on_c, 1, 53, 64
3, 10158, Note_on_c, 1, 53, 0
3, 10160, Note_on_c, 1, 57, 64
3, 10198, Note_on_c, 1, 57, 0
3, 10200, Note_on_c, 1, 46, 64
3, 10238, Note_on_c, 1, 46, 0
3, 10240, Note_on_c, 1, 53, 64
3, 10278, Note_on_c, 1, 53, 0
3, 10280, Note_on_c, 1, 57, 64
3, 10318, Note_on_c, 1, 57, 0
3, 10320, Note_on_c, 1, 46, 64
3, 10358, Note_on_c, 1, 46, 0
3, 10360, Note_on_c, 1, 53, 64
3, 10398, Note_on_c, 1, 53, 0
3, 10400, Note_on_c, 1, 55, 64
3, 10438, Note_on_c, 1, 55, 0
3, 10440, Note_on_c, 1, 46, 64
3, 10478, Note_on_c, 1, 46, 0
3, 10480, Note_on_c, 1, 53, 64
3, 10518, Note_on_c, 1, 53, 0
3, 10520, Note_on_c, 1, 55, 64
3, 10558, Note_on_c, 1, 55, 0
3, 10560, Note_on_c, 1, 47, 64
3, 10598, Note_on_c, 1, 47, 0
3, 10600, Note_on_c, 1, 50, 64
3, 10638, Note_on_c, 1, 50, 0
3, 10640, Note_on_c, 1, 55, 64
3, 10678, Note_on_c, 1, 55, 0
3, 10680, Note_on_c, 1, 47, 64
3, 10718, Note_on_c, 1, 47, 0
3, 10720, Note_on_c, 1, 50, 64
3, 10758, Note_on_c, 1, 50, 0
3, 10760, Note_on_c, 1, 55, 64
3, 10798, Note_on_c, 1, 55, 0
3, 10800, Note_on_c, 1, 48, 64
3, 10838, Note_on_c, 1, 48, 0
3, 10840, Note_on_c, 1, 52, 65
3, 10878, Note_on_c, 1, 52, 0
3, 10880, Note_on_c, 1, 55, 66
3, 10918, Note_on_c, 1, 55, 0
3, 10920, Note_on_c, 1, 48, 67
3, 10958, Note_on_c, 1, 48, 0
3, 10960, Note_on_c, 1, 52, 68
3, 10998, Note_on_c, 1, 52, 0
3, 11000, Note_on_c, 1, 55, 68
3, 11038, Note_on_c, 1, 55, 0
3, 11040, Note_on_c, 1, 52, 69
3, 11078, Note_on_c, 1, 52, 0
3, 11080, Note_on_c, 1, 55, 70
3, 11118, Note_on_c, 1, 55, 0
3, 11120, Note_on_c, 1, 60, 71
3, 11158, Note_on_c, 1, 60, 0
3, 11160, Note_on_c, 1, 52, 72
3, 11198, Note_on_c, 1, 52, 0
3, 11200, Note_on_c, 1, 55, 73
3, 11238, Note_on_c, 1, 55, 0
3, 11240, Note_on_c, 1, 60, 74
3, 11278, Note_on_c, 1, 60, 0
3, 11280, Note_on_c, 1, 53, 75
3, 11318, Note_on_c, 1, 53, 0
3, 11320, Note_on_c, 1, 57, 76
3, 11358, Note_on_c, 1, 57, 0
3, 11360, Note_on_c, 1, 60, 76
3, 11398, Note_on_c, 1, 60, 0
3, 11400, Note_on_c, 1, 53, 77
3, 11438, Note_on_c, 1, 53, 0
3, 11440, Note_on_c, 1, 57, 78
3, 11478, Note_on_c, 1, 57, 0
3, 11480, Note_on_c, 1, 60, 79
3, 11518, Note_on_c, 1, 60, 0
3, 11520, Note_on_c, 1, 58, 85
3, 11520, Note_on_c, 1, 62, 85
3, 11640, Note_on_c, 1, 62, 0
3, 11640, Note_on_c, 1, 58, 0
3, 11760, Note_on_c, 1, 48, 85
3, 11760, Note_on_c, 1, 57, 85
3, 11998, Note_on_c, 1, 57, 0
3, 12000, Note_on_c, 1, 58, 85
3, 12238, Note_on_c, 1, 58, 0
3, 12238, Note_on_c, 1, 48, 0
3, 12240, Note_on_c, 1, 53, 85
3, 12278, Note_on_c, 1, 53, 0
3, 12280, Note_on_c, 1, 57, 85
3, 12318, Note_on_c, 1, 57, 0
3, 12320, Note_on_c, 1, 55, 85
3, 12358, Note_on_c, 1, 55, 0
3, 12360, Note_on_c, 1, 53, 85
3, 12398, Note_on_c, 1, 53, 0
3, 12400, Note_on_c, 1, 62, 85
3, 12438, Note_on_c, 1, 62, 0
3, 12440, Note_on_c, 1, 60, 85
3, 12478, Note_on_c, 1, 60, 0
3, 12480, Note_on_c, 1, 58, 80
3, 12512, Note_on_c, 1, 58, 0
3, 12520, Note_on_c, 1, 67, 80
3, 12552, Note_on_c, 1, 67, 0
3, 12560, Note_on_c, 1, 65, 80
3, 12592, Note_on_c, 1, 65, 0
3, 12600, Note_on_c, 1, 64, 80
3, 12632, Note_on_c, 1, 64, 0
3, 12640, Note_on_c, 1, 70, 80
3, 12672, Note_on_c, 1, 70, 0
3, 12680, Note_on_c, 1, 69, 80
3, 12712, Note_on_c, 1, 69, 0
3, 12720, Note_on_c, 1, 67, 80
3, 12752, Note_on_c, 1, 67, 0
3, 12760, Note_on_c, 1, 65, 80
3, 12792, Note_on_c, 1, 65, 0
3, 12800, Note_on_c, 1, 64, 80
3, 12832, Note_on_c, 1, 64, 0
3, 12840, Note_on_c, 1, 62, 80
3, 12872, Note_on_c, 1, 62, 0
3, 12880, Note_on_c, 1, 60, 80
3, 12912, Note_on_c, 1, 60, 0
3, 12920, Note_on_c, 1, 58, 80
3, 12952, Note_on_c, 1, 58, 0
3, 12960, Note_on_c, 1, 57, 85
3, 12998, Note_on_c, 1, 57, 0
3, 13000, Note_on_c, 1, 60, 85
3, 13038, Note_on_c, 1, 60, 0
3, 13040, Note_on_c, 1, 65, 85
3, 13078, Note_on_c, 1, 65, 0
3, 13080, Note_on_c, 1, 57, 85
3, 13118, Note_on_c, 1, 57, 0
3, 13120, Note_on_c, 1, 60, 85
3, 13158, Note_on_c, 1, 60, 0
3, 13160, Note_on_c, 1, 65, 85
3, 13198, Note_on_c, 1, 65, 0
3, 13200, Note_on_c, 1, 55, 85
3, 13238, Note_on_c, 1, 55, 0
3, 13240, Note_on_c, 1, 58, 85
3, 13278, Note_on_c, 1, 58, 0
3, 13280, Note_on_c, 1, 64, 85
3, 13318, Note_on_c, 1, 64, 0
3, 13320, Note_on_c, 1, 55, 85
3, 13358, Note_on_c, 1, 55, 0
3, 13360, Note_on_c, 1, 58, 85
3, 13398, Note_on_c, 1, 58, 0
3, 13400, Note_on_c, 1, 64, 85
3, 13438, Note_on_c, 1, 64, 0
3, 13440, Note_on_c, 1, 53, 85
3, 13478, Note_on_c, 1, 53, 0
3, 13480, Note_on_c, 1, 57, 85
3, 13518, Note_on_c, 1, 57, 0
3, 13520, Note_on_c, 1, 65, 85
3, 13558, Note_on_c, 1, 65, 0
3, 13560, Note_on_c, 1, 53, 85
3, 13598, Note_on_c, 1, 53, 0
3, 13600, Note_on_c, 1, 57, 85
3, 13638, Note_on_c, 1, 57, 0
3, 13640, Note_on_c, 1, 65, 85
3, 13678, Note_on_c, 1, 65, 0
3, 13680, Note_on_c, 1, 58, 85
3, 13680, Note_on_c, 1, 62, 85
3, 13918, Note_on_c, 1, 62, 0
3, 13918, Note_on_c, 1, 58, 0
3, 13920, Note_on_c, 1, 48, 85
3, 13920, Note_on_c, 1, 57, 85
3, 14158, Note_on_c, 1, 57, 0
3, 14160, Note_on_c, 1, 58, 85
3, 14398, Note_on_c, 1, 58, 0
3, 14398, Note_on_c, 1, 48, 0
3, 14400, Note_on_c, 1, 53, 64
3, 14438, Note_on_c, 1, 53, 0
3, 14440, Note_on_c, 1, 57, 64
3, 14478, Note_on_c, 1, 57, 0
3, 14480, Note_on_c, 1, 55, 64
3, 14518, Note_on_c, 1, 55, 0
3, 14520, Note_on_c, 1, 53, 64
3, 14558, Note_on_c, 1, 53, 0
3, 14560, Note_on_c, 1, 62, 64
3, 14598, Note_on_c, 1, 62, 0
3, 14600, Note_on_c, 1, 60, 64
3, 14638, Note_on_c, 1, 60, 0
3, 14640, Note_on_c, 1, 58, 64
3, 14678, Note_on_c, 1, 58, 0
3, 14680, Note_on_c, 1, 67, 64
3, 14718, Note_on_c, 1, 67, 0
3, 14720, Note_on_c, 1, 65, 64
3, 14758, Note_on_c, 1, 65, 0
3, 14760, Note_on_c, 1, 64, 64
3, 14798, Note_on_c, 1, 64, 0
3, 14800, Note_on_c, 1, 70, 64
3, 14838, Note_on_c, 1, 70, 0
3, 14840, Note_on_c, 1, 69, 64
3, 14878, Note_on_c, 1, 69, 0
3, 14880, Note_on_c, 1, 67, 64
3, 14918, Note_on_c, 1, 67, 0
3, 14920, Note_on_c, 1, 65, 64
3, 14958, Note_on_c, 1, 65, 0
3, 14960, Note_on_c, 1, 64, 64
3, 14998, Note_on_c, 1, 64, 0
3, 15000, Note_on_c, 1, 62, 64
3, 15038, Note_on_c, 1, 62, 0
3, 15040, Note_on_c, 1, 60, 64
3, 15078, Note_on_c, 1, 60, 0
3, 15080, Note_on_c, 1, 58, 64
3, 15118, Note_on_c, 1, 58, 0
3, 15120, Note_on_c, 1, 57, 64
3, 15158, Note_on_c, 1, 57, 0
3, 15160, Note_on_c, 1, 60, 65
3, 15198, Note_on_c, 1, 60, 0
3, 15200, Note_on_c, 1, 65, 66
3, 15238, Note_on_c, 1, 65, 0
3, 15240, Note_on_c, 1, 57, 67
3, 15278, Note_on_c, 1, 57, 0
3, 15280, Note_on_c, 1, 60, 68
3, 15318, Note_on_c, 1, 60, 0
3, 15320, Note_on_c, 1, 65, 68
3, 15358, Note_on_c, 1, 65, 0
3, 15360, Note_on_c, 1, 55, 69
3, 15398, Note_on_c, 1, 55, 0
3, 15400, Note_on_c, 1, 58, 70
3, 15438, Note_on_c, 1, 58, 0
3, 15440, Note_on_c, 1, 64, 71
3, 15478, Note_on_c, 1, 64, 0
3, 15480, Note_on_c, 1, 55, 72
3, 15518, Note_on_c, 1, 55, 0
3, 15520, Note_on_c, 1, 58, 73
3, 15558, Note_on_c, 1, 58, 0
3, 15560, Note_on_c, 1, 64, 74
3, 15598, Note_on_c, 1, 64, 0
3, 15600, Note_on_c, 1, 53, 75
3, 15638, Note_on_c, 1, 53, 0
3, 15640, Note_on_c, 1, 57, 76
3, 15678, Note_on_c, 1, 57, 0
3, 15680, Note_on_c, 1, 65, 76
3, 15718, Note_on_c, 1, 65, 0
3, 15720, Note_on_c, 1, 53, 77
3, 15758, Note_on_c, 1, 53, 0
3, 15760, Note_on_c, 1, 57, 78
3, 15798, Note_on_c, 1, 57, 0
3, 15800, Note_on_c, 1, 65, 79
3, 15838, Note_on_c, 1, 65, 0
3, 15840, Note_on_c, 1, 58, 80
3, 15840, Note_on_c, 1, 62, 80
3, 16078, Note_on_c, 1, 62, 0
3, 16078, Note_on_c, 1, 58, 0
3, 16320, Note_on_c, 1, 60, 69
3, 16320, Note_on_c, 1, 70, 69
3, 16558, Note_on_c, 1, 70, 0
3, 16558, Note_on_c, 1, 60, 0
3, 16560, Note_on_c, 1, 65, 64
3, 16560, Note_on_c, 1, 70, 64
3, 16798, Note_on_c, 1, 70, 0
3, 16800, Note_on_c, 1, 69, 56
3, 16918, Note_on_c, 1, 69, 0
3, 16918, Note_on_c, 1, 65, 0
3, 17280, Note_on_c, 1, 53, 80
3, 17280, Note_on_c, 1, 57, 80
3, 17518, Note_on_c, 1, 57, 0
3, 17518, Note_on_c, 1, 53, 0
3, 17520, Note_on_c, 1, 55, 85
3, 17520, Note_on_c, 1, 58, 85
3, 17638, Note_on_c, 1, 58, 0
3, 17638, Note_on_c, 1, 55, 0
3, 17760, Note_on_c, 1, 55, 85
3, 17798, Note_on_c, 1, 55, 0
3, 17800, Note_on_c, 1, 58, 85
3, 17838, Note_on_c, 1, 58, 0
3, 17840, Note_on_c, 1, 60, 85
3, 17878, Note_on_c, 1, 60, 0
3, 18240, Note_on_c, 1, 57, 85
3, 18240, Note_on_c, 1, 60, 85
3, 18240, Note_on_c, 1, 63, 85
3, 18358, Note_on_c, 1, 63, 0
3, 18358, Note_on_c, 1, 60, 0
3, 18358, Note_on_c, 1, 57, 0
3, 18720, Note_on_c, 1, 58, 85
3, 18758, Note_on_c, 1, 58, 0
3, 18760, Note_on_c, 1, 62, 85
3, 18798, Note_on_c, 1, 62, 0
3, 18800, Note_on_c, 1, 67, 85
3, 18838, Note_on_c, 1, 67, 0
3, 19440, Note_on_c, 1, 60, 64
3, 19478, Note_on_c, 1, 60, 0
3, 19480, Note_on_c, 1, 67, 64
3, 19518, Note_on_c, 1, 67, 0
3, 19520, Note_on_c, 1, 70, 64
3, 19558, Note_on_c, 1, 70, 0
3, 19560, Note_on_c, 1, 60, 64
3, 19598, Note_on_c, 1, 60, 0
3, 19600, Note_on_c, 1, 67, 64
3, 19638, Note_on_c, 1, 67, 0
3, 19640, Note_on_c, 1, 70, 64
3, 19678, Note_on_c, 1, 70, 0
3, 19680, Note_on_c, 1, 60, 64
3, 19718, Note_on_c, 1, 60, 0
3, 19720, Note_on_c, 1, 67, 64
3, 19758, Note_on_c, 1, 67, 0
3, 19760, Note_on_c, 1, 70, 64
3, 19798, Note_on_c, 1, 70, 0
3, 19800, Note_on_c, 1, 60, 64
3, 19838, Note_on_c, 1, 60, 0
3, 19840, Note_on_c, 1, 67, 64
3, 19878, Note_on_c, 1, 67, 0
3, 19880, Note_on_c, 1, 70, 64
3, 19918, Note_on_c, 1, 70, 0
3, 19920, Note_on_c, 1, 60, 64
3, 19958, Note_on_c, 1, 60, 0
3, 19960, Note_on_c, 1, 67, 64
3, 19998, Note_on_c, 1, 67, 0
3, 20000, Note_on_c, 1, 70, 64
3, 20038, Note_on_c, 1, 70, 0
3, 20040, Note_on_c, 1, 60, 64
3, 20078, Note_on_c, 1, 60, 0
3, 20080, Note_on_c, 1, 67, 64
3, 20118, Note_on_c, 1, 67, 0
3, 20120, Note_on_c, 1, 70, 64
3, 20158, Note_on_c, 1, 70, 0
3, 20160, Note_on_c, 1, 65, 85
3, 20160, Note_on_c, 1, 70, 85
3, 20398, Note_on_c, 1, 70, 0
3, 20400, Note_on_c, 1, 69, 85
3, 20878, Note_on_c, 1, 69, 0
3, 20878, Note_on_c, 1, 65, 0
3, 20880, Note_on_c, 1, 58, 64
3, 20918, Note_on_c, 1, 58, 0
3, 20920, Note_on_c, 1, 65, 64
3, 20958, Note_on_c, 1, 65, 0
3, 20960, Note_on_c, 1, 69, 64
3, 20998, Note_on_c, 1, 69, 0
3, 21000, Note_on_c, 1, 58, 64
3, 21038, Note_on_c, 1, 58, 0
3, 21040, Note_on_c, 1, 65, 64
3, 21078, Note_on_c, 1, 65, 0
3, 21080, Note_on_c, 1, 69, 64
3, 21118, Note_on_c, 1, 69, 0
3, 21120, Note_on_c, 1, 58, 64
3, 21158, Note_on_c, 1, 58, 0
3, 21160, Note_on_c, 1, 65, 64
3, 21198, Note_on_c, 1, 65, 0
3, 21200, Note_on_c, 1, 67, 64
3, 21238, Note_on_c, 1, 67, 0
3, 21240, Note_on_c, 1, 58, 64
3, 21278, Note_on_c, 1, 58, 0
3, 21280, Note_on_c, 1, 65, 64
3, 21318, Note_on_c, 1, 65, 0
3, 21320, Note_on_c, 1, 67, 64
3, 21358, Note_on_c, 1, 67, 0
3, 21360, Note_on_c, 1, 58, 64
3, 21398, Note_on_c, 1, 58, 0
3, 21400, Note_on_c, 1, 65, 64
3, 21438, Note_on_c, 1, 65, 0
3, 21440, Note_on_c, 1, 67, 64
3, 21478, Note_on_c, 1, 67, 0
3, 21480, Note_on_c, 1, 58, 64
3, 21518, Note_on_c, 1, 58, 0
3, 21520, Note_on_c, 1, 65, 64
3, 21558, Note_on_c, 1, 65, 0
3, 21560, Note_on_c, 1, 67, 64
3, 21598, Note_on_c, 1, 67, 0
3, 21600, Note_on_c, 1, 57, 64
3, 21638, Note_on_c, 1, 57, 0
3, 21640, Note_on_c, 1, 64, 65
3, 21678, Note_on_c, 1, 64, 0
3, 21680, Note_on_c, 1, 67, 66
3, 21718, Note_on_c, 1, 67, 0
3, 21720, Note_on_c, 1, 57, 67
3, 21758, Note_on_c, 1, 57, 0
3, 21760, Note_on_c, 1, 64, 68
3, 21798, Note_on_c, 1, 64, 0
3, 21800, Note_on_c, 1, 67, 68
3, 21838, Note_on_c, 1, 67, 0
3, 21840, Note_on_c, 1, 61, 69
3, 21878, Note_on_c, 1, 61, 0
3, 21880, Note_on_c, 1, 64, 70
3, 21918, Note_on_c, 1, 64, 0
3, 21920, Note_on_c, 1, 69, 71
3, 21958, Note_on_c, 1, 69, 0
3, 21960, Note_on_c, 1, 61, 72
3, 21998, Note_on_c, 1, 61, 0
3, 22000, Note_on_c, 1, 64, 73
3, 22038, Note_on_c, 1, 64, 0
3, 22040, Note_on_c, 1, 69, 74
3, 22078, Note_on_c, 1, 69, 0
3, 22080, Note_on_c, 1, 62, 75
3, 22118, Note_on_c, 1, 62, 0
3, 22120, Note_on_c, 1, 65, 76
3, 22158, Note_on_c, 1, 65, 0
3, 22160, Note_on_c, 1, 69, 76
3, 22198, Note_on_c, 1, 69, 0
3, 22200, Note_on_c, 1, 62, 77
3, 22238, Note_on_c, 1, 62, 0
3, 22240, Note_on_c, 1, 65, 78
3, 22278, Note_on_c, 1, 65, 0
3, 22280, Note_on_c, 1, 69, 79
3, 22318, Note_on_c, 1, 69, 0
3, 22320, Note_on_c, 1, 57, 85
3, 22358, Note_on_c, 1, 57, 0
3, 22360, Note_on_c, 1, 61, 85
3, 22398, Note_on_c, 1, 61, 0
3, 22400, Note_on_c, 1, 64, 85
3, 22438, Note_on_c, 1, 64, 0
3, 22440, Note_on_c, 1, 69, 85
3, 22478, Note_on_c, 1, 69, 0
3, 22480, Note_on_c, 1, 64, 85
3, 22518, Note_on_c, 1, 64, 0
3, 22520, Note_on_c, 1, 61, 85
3, 22558, Note_on_c, 1, 61, 0
3, 22560, Note_on_c, 1, 57, 85
3, 22678, Note_on_c, 1, 57, 0
3, 22800, Note_on_c, 1, 57, 85
3, 22838, Note_on_c, 1, 57, 0
3, 22840, Note_on_c, 1, 58, 85
3, 22860, Note_on_c, 1, 58, 0
3, 22880, Note_on_c, 1, 57, 85
3, 22900, Note_on_c, 1, 57, 0
3, 22920, Note_on_c, 1, 55, 85
3, 22940, Note_on_c, 1, 55, 0
3, 22960, Note_on_c, 1, 53, 85
3, 22980, Note_on_c, 1, 53, 0
3, 23000, Note_on_c, 1, 52, 85
3, 23020, Note_on_c, 1, 52, 0
3, 23040, Note_on_c, 1, 50, 85
3, 23158, Note_on_c, 1, 50, 0
3, 23280, Note_on_c, 1, 52, 85
3, 23280, Note_on_c, 1, 55, 85
3, 23280, Note_on_c, 1, 58, 85
3, 23400, Note_on_c, 1, 58, 0
3, 23400, Note_on_c, 1, 55, 0
3, 23400, Note_on_c, 1, 52, 0
3, 23760, Note_on_c, 1, 64, 85
3, 23760, Note_on_c, 1, 67, 85
3, 23760, Note_on_c, 1, 70, 85
3, 23760, Note_on_c, 1, 73, 85
3, 23998, Note_on_c, 1, 73, 0
3, 23998, Note_on_c, 1, 64, 0
3, 23998, Note_on_c, 1, 67, 0
3, 23998, Note_on_c, 1, 70, 0
3, 24000, Note_on_c, 1, 65, 85
3, 24000, Note_on_c, 1, 69, 85
3, 24000, Note_on_c, 1, 74, 85
3, 24238, Note_on_c, 1, 74, 0
3, 24238, Note_on_c, 1, 69, 0
3, 24238, Note_on_c, 1, 65, 0
3, 24420, Note_on_c, 1, 66, 64
3, 24478, Note_on_c, 1, 66, 0
3, 24480, Note_on_c, 1, 67, 64
3, 24570, Note_on_c, 1, 67, 0
3, 24660, Note_on_c, 1, 70, 64
3, 24718, Note_on_c, 1, 70, 0
3, 24720, Note_on_c, 1, 69, 64
3, 24810, Note_on_c, 1, 69, 0
3, 24900, Note_on_c, 1, 61, 64
3, 24958, Note_on_c, 1, 61, 0
3, 24960, Note_on_c, 1, 57, 64
3, 25078, Note_on_c, 1, 57, 0
3, 25140, Note_on_c, 1, 61, 64
3, 25140, Note_on_c, 1, 69, 64
3, 25198, Note_on_c, 1, 69, 0
3, 25198, Note_on_c, 1, 61, 0
3, 25200, Note_on_c, 1, 62, 64
3, 25200, Note_on_c, 1, 69, 64
3, 25318, Note_on_c, 1, 69, 0
3, 25318, Note_on_c, 1, 62, 0
3, 25440, Note_on_c, 1, 69, 64
3, 25440, Note_on_c, 1, 73, 64
3, 25560, Note_on_c, 1, 73, 0
3, 25560, Note_on_c, 1, 69, 0
3, 25960, Note_on_c, 1, 61, 85
3, 25998, Note_on_c, 1, 61, 0
3, 26000, Note_on_c, 1, 59, 85
3, 26038, Note_on_c, 1, 59, 0
3, 26040, Note_on_c, 1, 57, 85
3, 26078, Note_on_c, 1, 57, 0
3, 26080, Note_on_c, 1, 64, 85
3, 26118, Note_on_c, 1, 64, 0
3, 26120, Note_on_c, 1, 62, 85
3, 26158, Note_on_c, 1, 62, 0
3, 26160, Note_on_c, 1, 61, 85
3, 26198, Note_on_c, 1, 61, 0
3, 26200, Note_on_c, 1, 67, 85
3, 26238, Note_on_c, 1, 67, 0
3, 26240, Note_on_c, 1, 65, 85
3, 26278, Note_on_c, 1, 65, 0
3, 26280, Note_on_c, 1, 64, 85
3, 26398, Note_on_c, 1, 64, 0
3, 26680, Note_on_c, 1, 66, 85
3, 26718, Note_on_c, 1, 66, 0
3, 26720, Note_on_c, 1, 64, 85
3, 26758, Note_on_c, 1, 64, 0
3, 26760, Note_on_c, 1, 62, 85
3, 26798, Note_on_c, 1, 62, 0
3, 26800, Note_on_c, 1, 69, 85
3, 26838, Note_on_c, 1, 69, 0
3, 26840, Note_on_c, 1, 67, 85
3, 26878, Note_on_c, 1, 67, 0
3, 26880, Note_on_c, 1, 66, 85
3, 26918, Note_on_c, 1, 66, 0
3, 26920, Note_on_c, 1, 72, 85
3, 26958, Note_on_c, 1, 72, 0
3, 26960, Note_on_c, 1, 70, 85
3, 26998, Note_on_c, 1, 70, 0
3, 27000, Note_on_c, 1, 69, 85
3, 27118, Note_on_c, 1, 69, 0
3, 27360, Note_on_c, 1, 55, 72
3, 27398, Note_on_c, 1, 55, 0
3, 27400, Note_on_c, 1, 58, 72
3, 27438, Note_on_c, 1, 58, 0
3, 27440, Note_on_c, 1, 63, 72
3, 27478, Note_on_c, 1, 63, 0
3, 27480, Note_on_c, 1, 55, 72
3, 27518, Note_on_c, 1, 55, 0
3, 27520, Note_on_c, 1, 58, 72
3, 27558, Note_on_c, 1, 58, 0
3, 27560, Note_on_c, 1, 63, 72
3, 27598, Note_on_c, 1, 63, 0
3, 27600, Note_on_c, 1, 55, 72
3, 27638, Note_on_c, 1, 55, 0
3, 27640, Note_on_c, 1, 58, 72
3, 27678, Note_on_c, 1, 58, 0
3, 27680, Note_on_c, 1, 63, 72
3, 27718, Note_on_c, 1, 63, 0
3, 27720, Note_on_c, 1, 55, 72
3, 27758, Note_on_c, 1, 55, 0
3, 27760, Note_on_c, 1, 58, 72
3, 27798, Note_on_c, 1, 58, 0
3, 27800, Note_on_c, 1, 63, 72
3, 27838, Note_on_c, 1, 63, 0
3, 27840, Note_on_c, 1, 56, 72
3, 27878, Note_on_c, 1, 56, 0
3, 27880, Note_on_c, 1, 62, 72
3, 27918, Note_on_c, 1, 62, 0
3, 27920, Note_on_c, 1, 65, 72
3, 27958, Note_on_c, 1, 65, 0
3, 27960, Note_on_c, 1, 56, 72
3, 27998, Note_on_c, 1, 56, 0
3, 28000, Note_on_c, 1, 62, 72
3, 28038, Note_on_c, 1, 62, 0
3, 28040, Note_on_c, 1, 65, 72
3, 28078, Note_on_c, 1, 65, 0
3, 28080, Note_on_c, 1, 57, 72
3, 28118, Note_on_c, 1, 57, 0
3, 28120, Note_on_c, 1, 64, 72
3, 28158, Note_on_c, 1, 64, 0
3, 28160, Note_on_c, 1, 67, 73
3, 28198, Note_on_c, 1, 67, 0
3, 28200, Note_on_c, 1, 57, 73
3, 28238, Note_on_c, 1, 57, 0
3, 28240, Note_on_c, 1, 64, 74
3, 28278, Note_on_c, 1, 64, 0
3, 28280, Note_on_c, 1, 67, 74
3, 28318, Note_on_c, 1, 67, 0
3, 28320, Note_on_c, 1, 61, 75
3, 28358, Note_on_c, 1, 61, 0
3, 28360, Note_on_c, 1, 64, 75
3, 28398, Note_on_c, 1, 64, 0
3, 28400, Note_on_c, 1, 69, 76
3, 28438, Note_on_c, 1, 69, 0
3, 28440, Note_on_c, 1, 61, 76
3, 28478, Note_on_c, 1, 61, 0
3, 28480, Note_on_c, 1, 64, 76
3, 28518, Note_on_c, 1, 64, 0
3, 28520, Note_on_c, 1, 69, 77
3, 28558, Note_on_c, 1, 69, 0
3, 28560, Note_on_c, 1, 62, 77
3, 28598, Note_on_c, 1, 62, 0
3, 28600, Note_on_c, 1, 65, 78
3, 28638, Note_on_c, 1, 65, 0
3, 28640, Note_on_c, 1, 69, 78
3, 28678, Note_on_c, 1, 69, 0
3, 28680, Note_on_c, 1, 62, 79
3, 28718, Note_on_c, 1, 62, 0
3, 28720, Note_on_c, 1, 65, 79
3, 28758, Note_on_c, 1, 65, 0
3, 28760, Note_on_c, 1, 69, 80
3, 28798, Note_on_c, 1, 69, 0
3, 28800, Note_on_c, 1, 55, 80
3, 29038, Note_on_c, 1, 55, 0
3, 29040, Note_on_c, 1, 57, 77
3, 29040, Note_on_c, 1, 65, 77
3, 29278, Note_on_c, 1, 65, 0
3, 29280, Note_on_c, 1, 67, 75
3, 29518, Note_on_c, 1, 67, 0
3, 29518, Note_on_c, 1, 57, 0
3, 29520, Note_on_c, 1, 62, 72
3, 29558, Note_on_c, 1, 62, 0
3, 29560, Note_on_c, 1, 69, 72
3, 29598, Note_on_c, 1, 69, 0
3, 29600, Note_on_c, 1, 72, 72
3, 29638, Note_on_c, 1, 72, 0
3, 29640, Note_on_c, 1, 62, 72
3, 29678, Note_on_c, 1, 62, 0
3, 29680, Note_on_c, 1, 69, 72
3, 29718, Note_on_c, 1, 69, 0
3, 29720, Note_on_c, 1, 72, 72
3, 29758, Note_on_c, 1, 72, 0
3, 29760, Note_on_c, 1, 62, 72
3, 29798, Note_on_c, 1, 62, 0
3, 29800, Note_on_c, 1, 69, 72
3, 29838, Note_on_c, 1, 69, 0
3, 29840, Note_on_c, 1, 72, 72
3, 29878, Note_on_c, 1, 72, 0
3, 29880, Note_on_c, 1, 62, 72
3, 29918, Note_on_c, 1, 62, 0
3, 29920, Note_on_c, 1, 69, 72
3, 29958, Note_on_c, 1, 69, 0
3, 29960, Note_on_c, 1, 72, 72
3, 29998, Note_on_c, 1, 72, 0
3, 30000, Note_on_c, 1, 62, 72
3, 30038, Note_on_c, 1, 62, 0
3, 30040, Note_on_c, 1, 69, 72
3, 30078, Note_on_c, 1, 69, 0
3, 30080, Note_on_c, 1, 72, 72
3, 30118, Note_on_c, 1, 72, 0
3, 30120, Note_on_c, 1, 62, 72
3, 30158, Note_on_c, 1, 62, 0
3, 30160, Note_on_c, 1, 69, 72
3, 30198, Note_on_c, 1, 69, 0
3, 30200, Note_on_c, 1, 72, 72
3, 30238, Note_on_c, 1, 72, 0
3, 30240, Note_on_c, 1, 62, 72
3, 30278, Note_on_c, 1, 62, 0
3, 30280, Note_on_c, 1, 67, 72
3, 30318, Note_on_c, 1, 67, 0
3, 30320, Note_on_c, 1, 70, 72
3, 30358, Note_on_c, 1, 70, 0
3, 30360, Note_on_c, 1, 62, 72
3, 30398, Note_on_c, 1, 62, 0
3, 30400, Note_on_c, 1, 67, 72
3, 30438, Note_on_c, 1, 67, 0
3, 30440, Note_on_c, 1, 70, 72
3, 30478, Note_on_c, 1, 70, 0
3, 30480, Note_on_c, 1, 62, 72
3, 30518, Note_on_c, 1, 62, 0
3, 30520, Note_on_c, 1, 67, 72
3, 30558, Note_on_c, 1, 67, 0
3, 30560, Note_on_c, 1, 70, 72
3, 30598, Note_on_c, 1, 70, 0
3, 30600, Note_on_c, 1, 62, 72
3, 30638, Note_on_c, 1, 62, 0
3, 30640, Note_on_c, 1, 67, 72
3, 30678, Note_on_c, 1, 67, 0
3, 30680, Note_on_c, 1, 70, 72
3, 30718, Note_on_c, 1, 70, 0
3, 30720, Note_on_c, 1, 62, 72
3, 30758, Note_on_c, 1, 62, 0
3, 30760, Note_on_c, 1, 67, 72
3, 30798, Note_on_c, 1, 67, 0
3, 30800, Note_on_c, 1, 70, 72
3, 30838, Note_on_c, 1, 70, 0
3, 30840, Note_on_c, 1, 62, 72
3, 30878, Note_on_c, 1, 62, 0
3, 30880, Note_on_c, 1, 67, 72
3, 30918, Note_on_c, 1, 67, 0
3, 30920, Note_on_c, 1, 70, 72
3, 30958, Note_on_c, 1, 70, 0
3, 30960, Note_on_c, 1, 62, 72
3, 30998, Note_on_c, 1, 62, 0
3, 31000, Note_on_c, 1, 69, 72
3, 31038, Note_on_c, 1, 69, 0
3, 31040, Note_on_c, 1, 72, 73
3, 31078, Note_on_c, 1, 72, 0
3, 31080, Note_on_c, 1, 62, 73
3, 31118, Note_on_c, 1, 62, 0
3, 31120, Note_on_c, 1, 69, 74
3, 31158, Note_on_c, 1, 69, 0
3, 31160, Note_on_c, 1, 72, 74
3, 31198, Note_on_c, 1, 72, 0
3, 31200, Note_on_c, 1, 62, 75
3, 31238, Note_on_c, 1, 62, 0
3, 31240, Note_on_c, 1, 69, 75
3, 31278, Note_on_c, 1, 69, 0
3, 31280, Note_on_c, 1, 72, 76
3, 31318, Note_on_c, 1, 72, 0
3, 31320, Note_on_c, 1, 62, 76
3, 31358, Note_on_c, 1, 62, 0
3, 31360, Note_on_c, 1, 69, 76
3, 31398, Note_on_c, 1, 69, 0
3, 31400, Note_on_c, 1, 72, 77
3, 31438, Note_on_c, 1, 72, 0
3, 31440, Note_on_c, 1, 62, 77
3, 31478, Note_on_c, 1, 62, 0
3, 31480, Note_on_c, 1, 69, 78
3, 31518, Note_on_c, 1, 69, 0
3, 31520, Note_on_c, 1, 72, 78
3, 31558, Note_on_c, 1, 72, 0
3, 31560, Note_on_c, 1, 62, 79
3, 31598, Note_on_c, 1, 62, 0
3, 31600, Note_on_c, 1, 69, 79
3, 31638, Note_on_c, 1, 69, 0
3, 31640, Note_on_c, 1, 72, 80
3, 31678, Note_on_c, 1, 72, 0
3, 31680, Note_on_c, 1, 67, 85
3, 31918, Note_on_c, 1, 67, 0
3, 32520, Note_on_c, 1, 55, 77
3, 32558, Note_on_c, 1, 55, 0
3, 32560, Note_on_c, 1, 58, 76
3, 32598, Note_on_c, 1, 58, 0
3, 32600, Note_on_c, 1, 61, 76
3, 32638, Note_on_c, 1, 61, 0
3, 32640, Note_on_c, 1, 64, 75
3, 32678, Note_on_c, 1, 64, 0
3, 33000, Note_on_c, 1, 53, 67
3, 33060, Note_on_c, 1, 53, 0
3, 33120, Note_on_c, 1, 43, 85
3, 33120, Note_on_c, 1, 55, 85
3, 33358, Note_on_c, 1, 55, 0
3, 33358, Note_on_c, 1, 43, 0
3, 33360, Note_on_c, 1, 45, 85
3, 33360, Note_on_c, 1, 53, 85
3, 33598, Note_on_c, 1, 53, 0
3, 33600, Note_on_c, 1, 55, 85
3, 33838, Note_on_c, 1, 55, 0
3, 33838, Note_on_c, 1, 45, 0
3, 33840, Note_on_c, 1, 46, 72
3, 33878, Note_on_c, 1, 46, 0
3, 33880, Note_on_c, 1, 50, 72
3, 33918, Note_on_c, 1, 50, 0
3, 33920, Note_on_c, 1, 56, 72
3, 33958, Note_on_c, 1, 56, 0
3, 33960, Note_on_c, 1, 46, 72
3, 33998, Note_on_c, 1, 46, 0
3, 34000, Note_on_c, 1, 50, 72
3, 34038, Note_on_c, 1, 50, 0
3, 34040, Note_on_c, 1, 56, 72
3, 34078, Note_on_c, 1, 56, 0
3, 34080, Note_on_c, 1, 46, 72
3, 34198, Note_on_c, 1, 46, 0
3, 34560, Note_on_c, 1, 45, 64
3, 34598, Note_on_c, 1, 45, 0
3, 34600, Note_on_c, 1, 50, 64
3, 34638, Note_on_c, 1, 50, 0
3, 34640, Note_on_c, 1, 53, 64
3, 34678, Note_on_c, 1, 53, 0
3, 34680, Note_on_c, 1, 45, 64
3, 34718, Note_on_c, 1, 45, 0
3, 34720, Note_on_c, 1, 50, 64
3, 34758, Note_on_c, 1, 50, 0
3, 34760, Note_on_c, 1, 53, 64
3, 34798, Note_on_c, 1, 53, 0
3, 34800, Note_on_c, 1, 45, 64
3, 34918, Note_on_c, 1, 45, 0
3, 35280, Note_on_c, 1, 44, 64
3, 35318, Note_on_c, 1, 44, 0
3, 35320, Note_on_c, 1, 50, 64
3, 35358, Note_on_c, 1, 50, 0
3, 35360, Note_on_c, 1, 53, 64
3, 35398, Note_on_c, 1, 53, 0
3, 35400, Note_on_c, 1, 44, 64
3, 35438, Note_on_c, 1, 44, 0
3, 35440, Note_on_c, 1, 50, 64
3, 35478, Note_on_c, 1, 50, 0
3, 35480, Note_on_c, 1, 53, 64
3, 35518, Note_on_c, 1, 53, 0
3, 35520, Note_on_c, 1, 44, 64
3, 35638, Note_on_c, 1, 44, 0
3, 36240, Note_on_c, 1, 57, 64
3, 36278, Note_on_c, 1, 57, 0
3, 36280, Note_on_c, 1, 52, 64
3, 36318, Note_on_c, 1, 52, 0
3, 36320, Note_on_c, 1, 49, 64
3, 36358, Note_on_c, 1, 49, 0
3, 36360, Note_on_c, 1, 45, 64
3, 36398, Note_on_c, 1, 45, 0
3, 36400, Note_on_c, 1, 40, 64
3, 36438, Note_on_c, 1, 40, 0
3, 36440, Note_on_c, 1, 37, 64
3, 36478, Note_on_c, 1, 37, 0
3, 36480, Note_on_c, 1, 33, 64
3, 36518, Note_on_c, 1, 33, 0
3, 36520, Note_on_c, 1, 37, 64
3, 36558, Note_on_c, 1, 37, 0
3, 36560, Note_on_c, 1, 40, 64
3, 36598, Note_on_c, 1, 40, 0
3, 36600, Note_on_c, 1, 45, 64
3, 36638, Note_on_c, 1, 45, 0
3, 36640, Note_on_c, 1, 49, 64
3, 36678, Note_on_c, 1, 49, 0
3, 36680, Note_on_c, 1, 52, 64
3, 36718, Note_on_c, 1, 52, 0
3, 36720, Note_on_c, 1, 45, 64
3, 36840, Note_on_c, 1, 45, 0
3, 36960, Note_on_c, 1, 57, 64
3, 37198, Note_on_c, 1, 57, 0
3, 37198, End_track
4, 0, Start_track
4, 0, MIDI_port, 0
4, 0, Title_t, "MIDI by Marty Weimer 7/6/96"
4, 0, End_track
5, 0, Start_track
5, 0, MIDI_port, 0
5, 0, Title_t, "weimermt@libby.org  Eureka, MT  USA"
5, 0, End_track
0, 0, End_of_file
