0, 0, Header, 1, 5, 240
1, 0, Start_track
1, 0, Time_signature, 2, 2, 24, 8
1, 0, Key_signature, 0, "major"
1, 0, Tempo, 625000
1, 0, End_track
2, 0, Start_track
2, 0, MIDI_port, 0
2, 0, Title_t, "Piano Sonata No.17 in B Flat"
2, 0, Program_c, 0, 0
2, 0, Control_c, 0, 7, 127
2, 0, Control_c, 0, 10, 72
2, 0, Note_on_c, 0, 70, 80
2, 120, Note_on_c, 0, 70, 0
2, 240, Note_on_c, 0, 77, 80
2, 360, Note_on_c, 0, 77, 0
2, 450, Note_on_c, 0, 72, 80
2, 480, Note_on_c, 0, 72, 0
2, 480, Note_on_c, 0, 70, 80
2, 510, Note_on_c, 0, 70, 0
2, 510, Note_on_c, 0, 69, 80
2, 540, Note_on_c, 0, 69, 0
2, 540, Note_on_c, 0, 70, 80
2, 720, Note_on_c, 0, 70, 0
2, 720, Note_on_c, 0, 82, 80
2, 840, Note_on_c, 0, 82, 0
2, 1020, Note_on_c, 0, 79, 80
2, 1044, Note_on_c, 0, 79, 0
2, 1080, Note_on_c, 0, 78, 80
2, 1104, Note_on_c, 0, 78, 0
2, 1140, Note_on_c, 0, 79, 80
2, 1164, Note_on_c, 0, 79, 0
2, 1200, Note_on_c, 0, 75, 80
2, 1260, Note_on_c, 0, 75, 0
2, 1260, Note_on_c, 0, 72, 80
2, 1284, Note_on_c, 0, 72, 0
2, 1320, Note_on_c, 0, 71, 80
2, 1344, Note_on_c, 0, 71, 0
2, 1380, Note_on_c, 0, 72, 80
2, 1404, Note_on_c, 0, 72, 0
2, 1440, Note_on_c, 0, 70, 80
2, 1560, Note_on_c, 0, 70, 0
2, 1560, Note_on_c, 0, 69, 80
2, 1580, Note_on_c, 0, 69, 0
2, 1580, Note_on_c, 0, 70, 80
2, 1600, Note_on_c, 0, 70, 0
2, 1600, Note_on_c, 0, 69, 80
2, 1620, Note_on_c, 0, 69, 0
2, 1620, Note_on_c, 0, 67, 80
2, 1650, Note_on_c, 0, 67, 0
2, 1650, Note_on_c, 0, 69, 80
2, 1680, Note_on_c, 0, 69, 0
2, 1680, Note_on_c, 0, 70, 80
2, 1800, Note_on_c, 0, 70, 0
2, 1920, Note_on_c, 0, 65, 80
2, 1920, Note_on_c, 0, 72, 80
2, 1980, Note_on_c, 0, 72, 0
2, 1980, Note_on_c, 0, 77, 80
2, 2004, Note_on_c, 0, 77, 0
2, 2040, Note_on_c, 0, 72, 80
2, 2064, Note_on_c, 0, 72, 0
2, 2100, Note_on_c, 0, 75, 80
2, 2124, Note_on_c, 0, 75, 0
2, 2160, Note_on_c, 0, 75, 88
2, 2280, Note_on_c, 0, 75, 0
2, 2280, Note_on_c, 0, 74, 80
2, 2400, Note_on_c, 0, 74, 0
2, 2400, Note_on_c, 0, 65, 0
2, 2400, Note_on_c, 0, 65, 80
2, 2400, Note_on_c, 0, 72, 80
2, 2460, Note_on_c, 0, 72, 0
2, 2460, Note_on_c, 0, 77, 80
2, 2484, Note_on_c, 0, 77, 0
2, 2520, Note_on_c, 0, 72, 80
2, 2544, Note_on_c, 0, 72, 0
2, 2580, Note_on_c, 0, 75, 80
2, 2604, Note_on_c, 0, 75, 0
2, 2640, Note_on_c, 0, 75, 88
2, 2760, Note_on_c, 0, 75, 0
2, 2760, Note_on_c, 0, 74, 80
2, 2880, Note_on_c, 0, 74, 0
2, 2880, Note_on_c, 0, 72, 80
2, 2928, Note_on_c, 0, 72, 0
2, 2928, Note_on_c, 0, 65, 0
2, 3000, Note_on_c, 0, 72, 80
2, 3000, Note_on_c, 0, 75, 80
2, 3120, Note_on_c, 0, 75, 0
2, 3120, Note_on_c, 0, 72, 0
2, 3240, Note_on_c, 0, 70, 80
2, 3240, Note_on_c, 0, 74, 80
2, 3360, Note_on_c, 0, 74, 0
2, 3360, Note_on_c, 0, 70, 0
2, 3360, Note_on_c, 0, 72, 80
2, 3420, Note_on_c, 0, 72, 0
2, 3420, Note_on_c, 0, 65, 80
2, 3444, Note_on_c, 0, 65, 0
2, 3480, Note_on_c, 0, 67, 80
2, 3504, Note_on_c, 0, 67, 0
2, 3540, Note_on_c, 0, 65, 80
2, 3564, Note_on_c, 0, 65, 0
2, 3600, Note_on_c, 0, 70, 80
2, 3660, Note_on_c, 0, 70, 0
2, 3660, Note_on_c, 0, 65, 80
2, 3684, Note_on_c, 0, 65, 0
2, 3720, Note_on_c, 0, 72, 80
2, 3744, Note_on_c, 0, 72, 0
2, 3780, Note_on_c, 0, 65, 80
2, 3804, Note_on_c, 0, 65, 0
2, 3840, Note_on_c, 0, 74, 80
2, 3864, Note_on_c, 0, 74, 0
2, 3900, Note_on_c, 0, 74, 80
2, 3960, Note_on_c, 0, 74, 0
2, 3960, Note_on_c, 0, 73, 80
2, 4020, Note_on_c, 0, 73, 0
2, 4020, Note_on_c, 0, 74, 80
2, 4044, Note_on_c, 0, 74, 0
2, 4080, Note_on_c, 0, 82, 80
2, 4140, Note_on_c, 0, 82, 0
2, 4140, Note_on_c, 0, 79, 80
2, 4164, Note_on_c, 0, 79, 0
2, 4200, Note_on_c, 0, 78, 80
2, 4224, Note_on_c, 0, 78, 0
2, 4260, Note_on_c, 0, 79, 80
2, 4284, Note_on_c, 0, 79, 0
2, 4320, Note_on_c, 0, 77, 80
2, 4440, Note_on_c, 0, 77, 0
2, 4440, Note_on_c, 0, 76, 80
2, 4560, Note_on_c, 0, 76, 0
2, 4560, Note_on_c, 0, 84, 80
2, 4680, Note_on_c, 0, 84, 0
2, 4740, Note_on_c, 0, 75, 80
2, 4800, Note_on_c, 0, 75, 0
2, 4800, Note_on_c, 0, 77, 80
2, 4824, Note_on_c, 0, 77, 0
2, 4860, Note_on_c, 0, 77, 80
2, 4920, Note_on_c, 0, 77, 0
2, 4920, Note_on_c, 0, 76, 80
2, 4980, Note_on_c, 0, 76, 0
2, 4980, Note_on_c, 0, 77, 80
2, 5004, Note_on_c, 0, 77, 0
2, 5040, Note_on_c, 0, 86, 80
2, 5100, Note_on_c, 0, 86, 0
2, 5100, Note_on_c, 0, 77, 80
2, 5124, Note_on_c, 0, 77, 0
2, 5160, Note_on_c, 0, 79, 80
2, 5184, Note_on_c, 0, 79, 0
2, 5220, Note_on_c, 0, 77, 80
2, 5244, Note_on_c, 0, 77, 0
2, 5280, Note_on_c, 0, 76, 80
2, 5340, Note_on_c, 0, 76, 0
2, 5340, Note_on_c, 0, 79, 80
2, 5364, Note_on_c, 0, 79, 0
2, 5400, Note_on_c, 0, 71, 80
2, 5424, Note_on_c, 0, 71, 0
2, 5460, Note_on_c, 0, 72, 80
2, 5484, Note_on_c, 0, 72, 0
2, 5580, Note_on_c, 0, 84, 80
2, 5604, Note_on_c, 0, 84, 0
2, 5640, Note_on_c, 0, 72, 80
2, 5664, Note_on_c, 0, 72, 0
2, 5700, Note_on_c, 0, 84, 80
2, 5724, Note_on_c, 0, 84, 0
2, 5820, Note_on_c, 0, 84, 80
2, 5844, Note_on_c, 0, 84, 0
2, 5880, Note_on_c, 0, 74, 80
2, 5904, Note_on_c, 0, 74, 0
2, 5940, Note_on_c, 0, 84, 80
2, 6000, Note_on_c, 0, 84, 0
2, 6000, Note_on_c, 0, 83, 80
2, 6040, Note_on_c, 0, 83, 0
2, 6040, Note_on_c, 0, 81, 80
2, 6080, Note_on_c, 0, 81, 0
2, 6080, Note_on_c, 0, 79, 80
2, 6120, Note_on_c, 0, 79, 0
2, 6120, Note_on_c, 0, 77, 80
2, 6160, Note_on_c, 0, 77, 0
2, 6160, Note_on_c, 0, 76, 80
2, 6200, Note_on_c, 0, 76, 0
2, 6200, Note_on_c, 0, 74, 80
2, 6240, Note_on_c, 0, 74, 0
2, 6240, Note_on_c, 0, 76, 80
2, 6300, Note_on_c, 0, 76, 0
2, 6300, Note_on_c, 0, 79, 80
2, 6324, Note_on_c, 0, 79, 0
2, 6360, Note_on_c, 0, 71, 80
2, 6384, Note_on_c, 0, 71, 0
2, 6420, Note_on_c, 0, 72, 80
2, 6444, Note_on_c, 0, 72, 0
2, 6540, Note_on_c, 0, 72, 80
2, 6564, Note_on_c, 0, 72, 0
2, 6600, Note_on_c, 0, 60, 80
2, 6624, Note_on_c, 0, 60, 0
2, 6660, Note_on_c, 0, 72, 80
2, 6684, Note_on_c, 0, 72, 0
2, 6780, Note_on_c, 0, 72, 80
2, 6804, Note_on_c, 0, 72, 0
2, 6840, Note_on_c, 0, 60, 80
2, 6864, Note_on_c, 0, 60, 0
2, 6900, Note_on_c, 0, 72, 80
2, 6960, Note_on_c, 0, 72, 0
2, 6960, Note_on_c, 0, 71, 80
2, 7000, Note_on_c, 0, 71, 0
2, 7000, Note_on_c, 0, 69, 80
2, 7040, Note_on_c, 0, 69, 0
2, 7040, Note_on_c, 0, 67, 80
2, 7080, Note_on_c, 0, 67, 0
2, 7080, Note_on_c, 0, 65, 80
2, 7120, Note_on_c, 0, 65, 0
2, 7120, Note_on_c, 0, 64, 80
2, 7160, Note_on_c, 0, 64, 0
2, 7160, Note_on_c, 0, 62, 80
2, 7200, Note_on_c, 0, 62, 0
2, 7200, Note_on_c, 0, 64, 80
2, 7260, Note_on_c, 0, 64, 0
2, 7260, Note_on_c, 0, 60, 80
2, 7284, Note_on_c, 0, 60, 0
2, 7320, Note_on_c, 0, 67, 80
2, 7344, Note_on_c, 0, 67, 0
2, 7380, Note_on_c, 0, 64, 80
2, 7404, Note_on_c, 0, 64, 0
2, 7440, Note_on_c, 0, 72, 80
2, 7464, Note_on_c, 0, 72, 0
2, 7500, Note_on_c, 0, 67, 80
2, 7524, Note_on_c, 0, 67, 0
2, 7560, Note_on_c, 0, 76, 80
2, 7584, Note_on_c, 0, 76, 0
2, 7620, Note_on_c, 0, 72, 80
2, 7644, Note_on_c, 0, 72, 0
2, 7680, Note_on_c, 0, 79, 80
2, 7920, Note_on_c, 0, 79, 0
2, 7920, Note_on_c, 0, 70, 80
2, 7950, Note_on_c, 0, 70, 0
2, 7950, Note_on_c, 0, 72, 80
2, 7980, Note_on_c, 0, 72, 0
2, 7980, Note_on_c, 0, 70, 80
2, 8010, Note_on_c, 0, 70, 0
2, 8010, Note_on_c, 0, 72, 80
2, 8040, Note_on_c, 0, 72, 0
2, 8040, Note_on_c, 0, 70, 80
2, 8060, Note_on_c, 0, 70, 0
2, 8060, Note_on_c, 0, 72, 80
2, 8080, Note_on_c, 0, 72, 0
2, 8080, Note_on_c, 0, 70, 80
2, 8100, Note_on_c, 0, 70, 0
2, 8100, Note_on_c, 0, 69, 80
2, 8130, Note_on_c, 0, 69, 0
2, 8130, Note_on_c, 0, 67, 80
2, 8160, Note_on_c, 0, 67, 0
2, 8160, Note_on_c, 0, 65, 80
2, 8160, Note_on_c, 0, 69, 80
2, 8220, Note_on_c, 0, 69, 0
2, 8220, Note_on_c, 0, 65, 0
2, 8220, Note_on_c, 0, 60, 80
2, 8244, Note_on_c, 0, 60, 0
2, 8280, Note_on_c, 0, 64, 80
2, 8280, Note_on_c, 0, 67, 80
2, 8304, Note_on_c, 0, 67, 0
2, 8304, Note_on_c, 0, 64, 0
2, 8340, Note_on_c, 0, 60, 80
2, 8364, Note_on_c, 0, 60, 0
2, 8400, Note_on_c, 0, 65, 80
2, 8400, Note_on_c, 0, 69, 80
2, 8460, Note_on_c, 0, 69, 0
2, 8460, Note_on_c, 0, 65, 0
2, 8460, Note_on_c, 0, 60, 80
2, 8484, Note_on_c, 0, 60, 0
2, 8520, Note_on_c, 0, 67, 80
2, 8520, Note_on_c, 0, 70, 80
2, 8544, Note_on_c, 0, 70, 0
2, 8544, Note_on_c, 0, 67, 0
2, 8580, Note_on_c, 0, 60, 80
2, 8604, Note_on_c, 0, 60, 0
2, 8640, Note_on_c, 0, 69, 80
2, 8640, Note_on_c, 0, 72, 80
2, 8760, Note_on_c, 0, 72, 0
2, 8760, Note_on_c, 0, 69, 0
2, 8820, Note_on_c, 0, 69, 80
2, 8820, Note_on_c, 0, 72, 80
2, 8880, Note_on_c, 0, 72, 0
2, 8880, Note_on_c, 0, 69, 0
2, 8880, Note_on_c, 0, 67, 80
2, 8880, Note_on_c, 0, 70, 80
2, 9000, Note_on_c, 0, 70, 0
2, 9000, Note_on_c, 0, 67, 0
2, 9060, Note_on_c, 0, 67, 80
2, 9060, Note_on_c, 0, 70, 80
2, 9120, Note_on_c, 0, 70, 0
2, 9120, Note_on_c, 0, 67, 0
2, 9120, Note_on_c, 0, 69, 80
2, 9120, Note_on_c, 0, 65, 80
2, 9180, Note_on_c, 0, 65, 0
2, 9180, Note_on_c, 0, 69, 0
2, 9180, Note_on_c, 0, 60, 80
2, 9204, Note_on_c, 0, 60, 0
2, 9240, Note_on_c, 0, 67, 80
2, 9240, Note_on_c, 0, 64, 80
2, 9264, Note_on_c, 0, 64, 0
2, 9264, Note_on_c, 0, 67, 0
2, 9300, Note_on_c, 0, 60, 80
2, 9324, Note_on_c, 0, 60, 0
2, 9360, Note_on_c, 0, 69, 80
2, 9360, Note_on_c, 0, 65, 80
2, 9420, Note_on_c, 0, 65, 0
2, 9420, Note_on_c, 0, 69, 0
2, 9420, Note_on_c, 0, 60, 80
2, 9444, Note_on_c, 0, 60, 0
2, 9480, Note_on_c, 0, 70, 80
2, 9480, Note_on_c, 0, 67, 80
2, 9504, Note_on_c, 0, 67, 0
2, 9504, Note_on_c, 0, 70, 0
2, 9540, Note_on_c, 0, 60, 80
2, 9564, Note_on_c, 0, 60, 0
2, 9600, Note_on_c, 0, 72, 80
2, 9600, Note_on_c, 0, 69, 80
2, 9720, Note_on_c, 0, 69, 0
2, 9720, Note_on_c, 0, 72, 0
2, 9780, Note_on_c, 0, 72, 80
2, 9780, Note_on_c, 0, 69, 80
2, 9840, Note_on_c, 0, 69, 0
2, 9840, Note_on_c, 0, 72, 0
2, 9840, Note_on_c, 0, 70, 80
2, 9840, Note_on_c, 0, 67, 80
2, 9960, Note_on_c, 0, 67, 0
2, 9960, Note_on_c, 0, 70, 0
2, 10020, Note_on_c, 0, 70, 80
2, 10020, Note_on_c, 0, 67, 80
2, 10080, Note_on_c, 0, 67, 0
2, 10080, Note_on_c, 0, 70, 0
2, 10080, Note_on_c, 0, 65, 80
2, 10080, Note_on_c, 0, 69, 80
2, 10260, Note_on_c, 0, 69, 0
2, 10260, Note_on_c, 0, 65, 0
2, 10260, Note_on_c, 0, 77, 80
2, 10320, Note_on_c, 0, 77, 0
2, 10320, Note_on_c, 0, 74, 80
2, 10360, Note_on_c, 0, 74, 0
2, 10360, Note_on_c, 0, 76, 80
2, 10400, Note_on_c, 0, 76, 0
2, 10400, Note_on_c, 0, 77, 80
2, 10440, Note_on_c, 0, 77, 0
2, 10440, Note_on_c, 0, 79, 80
2, 10480, Note_on_c, 0, 79, 0
2, 10480, Note_on_c, 0, 81, 80
2, 10520, Note_on_c, 0, 81, 0
2, 10520, Note_on_c, 0, 82, 80
2, 10560, Note_on_c, 0, 82, 0
2, 10560, Note_on_c, 0, 72, 80
2, 10740, Note_on_c, 0, 72, 0
2, 10740, Note_on_c, 0, 77, 80
2, 10800, Note_on_c, 0, 77, 0
2, 10800, Note_on_c, 0, 79, 80
2, 10920, Note_on_c, 0, 79, 0
2, 10920, Note_on_c, 0, 81, 80
2, 10950, Note_on_c, 0, 81, 0
2, 10950, Note_on_c, 0, 79, 80
2, 10980, Note_on_c, 0, 79, 0
2, 10980, Note_on_c, 0, 77, 80
2, 11010, Note_on_c, 0, 77, 0
2, 11010, Note_on_c, 0, 79, 80
2, 11040, Note_on_c, 0, 79, 0
2, 11040, Note_on_c, 0, 77, 80
2, 11124, Note_on_c, 0, 77, 0
2, 11220, Note_on_c, 0, 77, 80
2, 11280, Note_on_c, 0, 77, 0
2, 11280, Note_on_c, 0, 74, 80
2, 11320, Note_on_c, 0, 74, 0
2, 11320, Note_on_c, 0, 77, 80
2, 11360, Note_on_c, 0, 77, 0
2, 11360, Note_on_c, 0, 76, 80
2, 11400, Note_on_c, 0, 76, 0
2, 11400, Note_on_c, 0, 74, 80
2, 11440, Note_on_c, 0, 74, 0
2, 11440, Note_on_c, 0, 72, 80
2, 11480, Note_on_c, 0, 72, 0
2, 11480, Note_on_c, 0, 70, 80
2, 11520, Note_on_c, 0, 70, 0
2, 11520, Note_on_c, 0, 69, 80
2, 11560, Note_on_c, 0, 69, 0
2, 11560, Note_on_c, 0, 72, 80
2, 11600, Note_on_c, 0, 72, 0
2, 11600, Note_on_c, 0, 70, 80
2, 11640, Note_on_c, 0, 70, 0
2, 11640, Note_on_c, 0, 69, 80
2, 11680, Note_on_c, 0, 69, 0
2, 11680, Note_on_c, 0, 67, 80
2, 11720, Note_on_c, 0, 67, 0
2, 11720, Note_on_c, 0, 65, 80
2, 11760, Note_on_c, 0, 65, 0
2, 11760, Note_on_c, 0, 60, 80
2, 11808, Note_on_c, 0, 60, 0
2, 11880, Note_on_c, 0, 55, 80
2, 11880, Note_on_c, 0, 60, 80
2, 11880, Note_on_c, 0, 64, 80
2, 11964, Note_on_c, 0, 64, 0
2, 11964, Note_on_c, 0, 60, 0
2, 11964, Note_on_c, 0, 55, 0
2, 12000, Note_on_c, 0, 60, 80
2, 12000, Note_on_c, 0, 57, 80
2, 12000, Note_on_c, 0, 65, 80
2, 12240, Note_on_c, 0, 65, 0
2, 12240, Note_on_c, 0, 57, 0
2, 12240, Note_on_c, 0, 60, 0
2, 12480, Note_on_c, 0, 65, 80
2, 12600, Note_on_c, 0, 65, 0
2, 12720, Note_on_c, 0, 72, 80
2, 12840, Note_on_c, 0, 72, 0
2, 12930, Note_on_c, 0, 67, 80
2, 12960, Note_on_c, 0, 67, 0
2, 12960, Note_on_c, 0, 65, 80
2, 12990, Note_on_c, 0, 65, 0
2, 12990, Note_on_c, 0, 64, 80
2, 13020, Note_on_c, 0, 64, 0
2, 13020, Note_on_c, 0, 65, 80
2, 13200, Note_on_c, 0, 65, 0
2, 13200, Note_on_c, 0, 77, 80
2, 13320, Note_on_c, 0, 77, 0
2, 13500, Note_on_c, 0, 74, 80
2, 13524, Note_on_c, 0, 74, 0
2, 13560, Note_on_c, 0, 73, 80
2, 13584, Note_on_c, 0, 73, 0
2, 13620, Note_on_c, 0, 74, 80
2, 13644, Note_on_c, 0, 74, 0
2, 13680, Note_on_c, 0, 82, 80
2, 13740, Note_on_c, 0, 82, 0
2, 13740, Note_on_c, 0, 79, 80
2, 13764, Note_on_c, 0, 79, 0
2, 13800, Note_on_c, 0, 78, 80
2, 13824, Note_on_c, 0, 78, 0
2, 13860, Note_on_c, 0, 79, 80
2, 13884, Note_on_c, 0, 79, 0
2, 13920, Note_on_c, 0, 77, 80
2, 14040, Note_on_c, 0, 77, 0
2, 14040, Note_on_c, 0, 76, 80
2, 14060, Note_on_c, 0, 76, 0
2, 14060, Note_on_c, 0, 77, 80
2, 14080, Note_on_c, 0, 77, 0
2, 14080, Note_on_c, 0, 76, 80
2, 14100, Note_on_c, 0, 76, 0
2, 14100, Note_on_c, 0, 74, 80
2, 14130, Note_on_c, 0, 74, 0
2, 14130, Note_on_c, 0, 76, 80
2, 14160, Note_on_c, 0, 76, 0
2, 14160, Note_on_c, 0, 77, 80
2, 14280, Note_on_c, 0, 77, 0
2, 14400, Note_on_c, 0, 72, 80
2, 14400, Note_on_c, 0, 79, 80
2, 14460, Note_on_c, 0, 79, 0
2, 14460, Note_on_c, 0, 84, 80
2, 14484, Note_on_c, 0, 84, 0
2, 14520, Note_on_c, 0, 79, 80
2, 14544, Note_on_c, 0, 79, 0
2, 14580, Note_on_c, 0, 82, 80
2, 14604, Note_on_c, 0, 82, 0
2, 14640, Note_on_c, 0, 82, 80
2, 14760, Note_on_c, 0, 82, 0
2, 14760, Note_on_c, 0, 81, 80
2, 14880, Note_on_c, 0, 81, 0
2, 14880, Note_on_c, 0, 79, 80
2, 14940, Note_on_c, 0, 79, 0
2, 14940, Note_on_c, 0, 84, 80
2, 14964, Note_on_c, 0, 84, 0
2, 15000, Note_on_c, 0, 79, 80
2, 15024, Note_on_c, 0, 79, 0
2, 15060, Note_on_c, 0, 82, 80
2, 15084, Note_on_c, 0, 82, 0
2, 15120, Note_on_c, 0, 72, 0
2, 15120, Note_on_c, 0, 82, 80
2, 15240, Note_on_c, 0, 82, 0
2, 15240, Note_on_c, 0, 81, 80
2, 15360, Note_on_c, 0, 81, 0
2, 15360, Note_on_c, 0, 69, 80
2, 15360, Note_on_c, 0, 76, 80
2, 15420, Note_on_c, 0, 76, 0
2, 15420, Note_on_c, 0, 81, 80
2, 15444, Note_on_c, 0, 81, 0
2, 15480, Note_on_c, 0, 76, 80
2, 15504, Note_on_c, 0, 76, 0
2, 15540, Note_on_c, 0, 79, 80
2, 15564, Note_on_c, 0, 79, 0
2, 15600, Note_on_c, 0, 79, 80
2, 15720, Note_on_c, 0, 79, 0
2, 15720, Note_on_c, 0, 77, 80
2, 15840, Note_on_c, 0, 77, 0
2, 15840, Note_on_c, 0, 76, 80
2, 15900, Note_on_c, 0, 76, 0
2, 15900, Note_on_c, 0, 81, 80
2, 15924, Note_on_c, 0, 81, 0
2, 15960, Note_on_c, 0, 76, 80
2, 15984, Note_on_c, 0, 76, 0
2, 16020, Note_on_c, 0, 79, 80
2, 16044, Note_on_c, 0, 79, 0
2, 16080, Note_on_c, 0, 69, 0
2, 16080, Note_on_c, 0, 79, 80
2, 16200, Note_on_c, 0, 79, 0
2, 16200, Note_on_c, 0, 77, 80
2, 16320, Note_on_c, 0, 77, 0
2, 16380, Note_on_c, 0, 81, 80
2, 16440, Note_on_c, 0, 81, 0
2, 16440, Note_on_c, 0, 82, 80
2, 16464, Note_on_c, 0, 82, 0
2, 16500, Note_on_c, 0, 81, 80
2, 16524, Note_on_c, 0, 81, 0
2, 16560, Note_on_c, 0, 79, 80
2, 16584, Note_on_c, 0, 79, 0
2, 16620, Note_on_c, 0, 77, 80
2, 16644, Note_on_c, 0, 77, 0
2, 16680, Note_on_c, 0, 76, 80
2, 16704, Note_on_c, 0, 76, 0
2, 16740, Note_on_c, 0, 74, 80
2, 16764, Note_on_c, 0, 74, 0
2, 16800, Note_on_c, 0, 73, 80
2, 16860, Note_on_c, 0, 73, 0
2, 16860, Note_on_c, 0, 76, 80
2, 16920, Note_on_c, 0, 76, 0
2, 16920, Note_on_c, 0, 69, 80
2, 17040, Note_on_c, 0, 69, 0
2, 17100, Note_on_c, 0, 74, 80
2, 17124, Note_on_c, 0, 74, 0
2, 17160, Note_on_c, 0, 62, 80
2, 17184, Note_on_c, 0, 62, 0
2, 17220, Note_on_c, 0, 74, 80
2, 17244, Note_on_c, 0, 74, 0
2, 17340, Note_on_c, 0, 74, 80
2, 17364, Note_on_c, 0, 74, 0
2, 17400, Note_on_c, 0, 63, 80
2, 17424, Note_on_c, 0, 63, 0
2, 17460, Note_on_c, 0, 74, 80
2, 17484, Note_on_c, 0, 74, 0
2, 17580, Note_on_c, 0, 72, 80
2, 17604, Note_on_c, 0, 72, 0
2, 17640, Note_on_c, 0, 63, 80
2, 17664, Note_on_c, 0, 63, 0
2, 17700, Note_on_c, 0, 72, 80
2, 17724, Note_on_c, 0, 72, 0
2, 17820, Note_on_c, 0, 72, 80
2, 17844, Note_on_c, 0, 72, 0
2, 17880, Note_on_c, 0, 62, 80
2, 17904, Note_on_c, 0, 62, 0
2, 17940, Note_on_c, 0, 72, 80
2, 17964, Note_on_c, 0, 72, 0
2, 18060, Note_on_c, 0, 70, 80
2, 18084, Note_on_c, 0, 70, 0
2, 18120, Note_on_c, 0, 62, 80
2, 18144, Note_on_c, 0, 62, 0
2, 18180, Note_on_c, 0, 70, 80
2, 18204, Note_on_c, 0, 70, 0
2, 18300, Note_on_c, 0, 70, 80
2, 18324, Note_on_c, 0, 70, 0
2, 18360, Note_on_c, 0, 60, 80
2, 18384, Note_on_c, 0, 60, 0
2, 18420, Note_on_c, 0, 70, 80
2, 18480, Note_on_c, 0, 70, 0
2, 18480, Note_on_c, 0, 69, 80
2, 18520, Note_on_c, 0, 69, 0
2, 18520, Note_on_c, 0, 67, 80
2, 18560, Note_on_c, 0, 67, 0
2, 18560, Note_on_c, 0, 65, 80
2, 18600, Note_on_c, 0, 65, 0
2, 18600, Note_on_c, 0, 63, 80
2, 18640, Note_on_c, 0, 63, 0
2, 18640, Note_on_c, 0, 62, 80
2, 18680, Note_on_c, 0, 62, 0
2, 18680, Note_on_c, 0, 60, 80
2, 18720, Note_on_c, 0, 60, 0
2, 18720, Note_on_c, 0, 62, 80
2, 18780, Note_on_c, 0, 62, 0
2, 18780, Note_on_c, 0, 65, 80
2, 18804, Note_on_c, 0, 65, 0
2, 18840, Note_on_c, 0, 57, 80
2, 18864, Note_on_c, 0, 57, 0
2, 18900, Note_on_c, 0, 58, 80
2, 18924, Note_on_c, 0, 58, 0
2, 19020, Note_on_c, 0, 79, 80
2, 19044, Note_on_c, 0, 79, 0
2, 19080, Note_on_c, 0, 67, 80
2, 19104, Note_on_c, 0, 67, 0
2, 19140, Note_on_c, 0, 79, 80
2, 19164, Note_on_c, 0, 79, 0
2, 19260, Note_on_c, 0, 79, 80
2, 19284, Note_on_c, 0, 79, 0
2, 19320, Note_on_c, 0, 68, 80
2, 19344, Note_on_c, 0, 68, 0
2, 19380, Note_on_c, 0, 79, 80
2, 19404, Note_on_c, 0, 79, 0
2, 19500, Note_on_c, 0, 77, 80
2, 19524, Note_on_c, 0, 77, 0
2, 19560, Note_on_c, 0, 68, 80
2, 19584, Note_on_c, 0, 68, 0
2, 19620, Note_on_c, 0, 77, 80
2, 19644, Note_on_c, 0, 77, 0
2, 19740, Note_on_c, 0, 77, 80
2, 19764, Note_on_c, 0, 77, 0
2, 19800, Note_on_c, 0, 67, 80
2, 19824, Note_on_c, 0, 67, 0
2, 19860, Note_on_c, 0, 77, 80
2, 19884, Note_on_c, 0, 77, 0
2, 19980, Note_on_c, 0, 75, 80
2, 20004, Note_on_c, 0, 75, 0
2, 20040, Note_on_c, 0, 67, 80
2, 20064, Note_on_c, 0, 67, 0
2, 20100, Note_on_c, 0, 75, 80
2, 20124, Note_on_c, 0, 75, 0
2, 20220, Note_on_c, 0, 75, 80
2, 20244, Note_on_c, 0, 75, 0
2, 20280, Note_on_c, 0, 65, 80
2, 20304, Note_on_c, 0, 65, 0
2, 20340, Note_on_c, 0, 75, 80
2, 20400, Note_on_c, 0, 75, 0
2, 20400, Note_on_c, 0, 74, 80
2, 20440, Note_on_c, 0, 74, 0
2, 20440, Note_on_c, 0, 72, 80
2, 20480, Note_on_c, 0, 72, 0
2, 20480, Note_on_c, 0, 70, 80
2, 20520, Note_on_c, 0, 70, 0
2, 20520, Note_on_c, 0, 68, 80
2, 20560, Note_on_c, 0, 68, 0
2, 20560, Note_on_c, 0, 67, 80
2, 20600, Note_on_c, 0, 67, 0
2, 20600, Note_on_c, 0, 65, 80
2, 20640, Note_on_c, 0, 65, 0
2, 20640, Note_on_c, 0, 67, 80
2, 20700, Note_on_c, 0, 67, 0
2, 20700, Note_on_c, 0, 63, 80
2, 20724, Note_on_c, 0, 63, 0
2, 20760, Note_on_c, 0, 70, 80
2, 20784, Note_on_c, 0, 70, 0
2, 20820, Note_on_c, 0, 67, 80
2, 20844, Note_on_c, 0, 67, 0
2, 20880, Note_on_c, 0, 75, 80
2, 20904, Note_on_c, 0, 75, 0
2, 20940, Note_on_c, 0, 70, 80
2, 20964, Note_on_c, 0, 70, 0
2, 21000, Note_on_c, 0, 79, 80
2, 21024, Note_on_c, 0, 79, 0
2, 21060, Note_on_c, 0, 71, 80
2, 21084, Note_on_c, 0, 71, 0
2, 21120, Note_on_c, 0, 72, 80
2, 21180, Note_on_c, 0, 72, 0
2, 21180, Note_on_c, 0, 75, 80
2, 21204, Note_on_c, 0, 75, 0
2, 21240, Note_on_c, 0, 79, 80
2, 21264, Note_on_c, 0, 79, 0
2, 21300, Note_on_c, 0, 83, 80
2, 21324, Note_on_c, 0, 83, 0
2, 21360, Note_on_c, 0, 84, 80
2, 21480, Note_on_c, 0, 84, 0
2, 21540, Note_on_c, 0, 67, 80
2, 21600, Note_on_c, 0, 67, 0
2, 21600, Note_on_c, 0, 65, 80
2, 21660, Note_on_c, 0, 65, 0
2, 21660, Note_on_c, 0, 62, 80
2, 21684, Note_on_c, 0, 62, 0
2, 21720, Note_on_c, 0, 70, 80
2, 21744, Note_on_c, 0, 70, 0
2, 21780, Note_on_c, 0, 65, 80
2, 21804, Note_on_c, 0, 65, 0
2, 21840, Note_on_c, 0, 74, 80
2, 21900, Note_on_c, 0, 74, 0
2, 21900, Note_on_c, 0, 70, 80
2, 21960, Note_on_c, 0, 70, 0
2, 21960, Note_on_c, 0, 77, 80
2, 21984, Note_on_c, 0, 77, 0
2, 22020, Note_on_c, 0, 69, 80
2, 22080, Note_on_c, 0, 69, 0
2, 22080, Note_on_c, 0, 70, 80
2, 22104, Note_on_c, 0, 70, 0
2, 22140, Note_on_c, 0, 74, 80
2, 22164, Note_on_c, 0, 74, 0
2, 22200, Note_on_c, 0, 77, 80
2, 22224, Note_on_c, 0, 77, 0
2, 22260, Note_on_c, 0, 81, 80
2, 22284, Note_on_c, 0, 81, 0
2, 22320, Note_on_c, 0, 82, 80
2, 22440, Note_on_c, 0, 82, 0
2, 22500, Note_on_c, 0, 77, 80
2, 22560, Note_on_c, 0, 77, 0
2, 22560, Note_on_c, 0, 77, 80
2, 22580, Note_on_c, 0, 77, 0
2, 22580, Note_on_c, 0, 75, 80
2, 22600, Note_on_c, 0, 75, 0
2, 22600, Note_on_c, 0, 74, 80
2, 22640, Note_on_c, 0, 74, 0
2, 22640, Note_on_c, 0, 75, 80
2, 22656, Note_on_c, 0, 75, 0
2, 22680, Note_on_c, 0, 72, 80
2, 22704, Note_on_c, 0, 72, 0
2, 22740, Note_on_c, 0, 75, 80
2, 22764, Note_on_c, 0, 75, 0
2, 22800, Note_on_c, 0, 65, 80
2, 22860, Note_on_c, 0, 65, 0
2, 22860, Note_on_c, 0, 75, 80
2, 22884, Note_on_c, 0, 75, 0
2, 22920, Note_on_c, 0, 84, 80
2, 22944, Note_on_c, 0, 84, 0
2, 22980, Note_on_c, 0, 75, 80
2, 23004, Note_on_c, 0, 75, 0
2, 23040, Note_on_c, 0, 75, 80
2, 23060, Note_on_c, 0, 75, 0
2, 23060, Note_on_c, 0, 74, 80
2, 23080, Note_on_c, 0, 74, 0
2, 23080, Note_on_c, 0, 72, 80
2, 23120, Note_on_c, 0, 72, 0
2, 23120, Note_on_c, 0, 74, 80
2, 23136, Note_on_c, 0, 74, 0
2, 23160, Note_on_c, 0, 70, 80
2, 23184, Note_on_c, 0, 70, 0
2, 23220, Note_on_c, 0, 74, 80
2, 23244, Note_on_c, 0, 74, 0
2, 23280, Note_on_c, 0, 65, 80
2, 23304, Note_on_c, 0, 65, 0
2, 23340, Note_on_c, 0, 74, 80
2, 23364, Note_on_c, 0, 74, 0
2, 23400, Note_on_c, 0, 82, 80
2, 23424, Note_on_c, 0, 82, 0
2, 23460, Note_on_c, 0, 74, 80
2, 23520, Note_on_c, 0, 74, 0
2, 23520, Note_on_c, 0, 74, 80
2, 23540, Note_on_c, 0, 74, 0
2, 23540, Note_on_c, 0, 72, 80
2, 23560, Note_on_c, 0, 72, 0
2, 23560, Note_on_c, 0, 71, 80
2, 23600, Note_on_c, 0, 71, 0
2, 23600, Note_on_c, 0, 72, 80
2, 23616, Note_on_c, 0, 72, 0
2, 23640, Note_on_c, 0, 67, 80
2, 23664, Note_on_c, 0, 67, 0
2, 23700, Note_on_c, 0, 72, 80
2, 23724, Note_on_c, 0, 72, 0
2, 23760, Note_on_c, 0, 72, 80
2, 23780, Note_on_c, 0, 72, 0
2, 23780, Note_on_c, 0, 70, 80
2, 23800, Note_on_c, 0, 70, 0
2, 23800, Note_on_c, 0, 69, 80
2, 23840, Note_on_c, 0, 69, 0
2, 23840, Note_on_c, 0, 70, 80
2, 23880, Note_on_c, 0, 70, 0
2, 23880, Note_on_c, 0, 79, 80
2, 23904, Note_on_c, 0, 79, 0
2, 23940, Note_on_c, 0, 70, 80
2, 24000, Note_on_c, 0, 70, 0
2, 24000, Note_on_c, 0, 69, 80
2, 24024, Note_on_c, 0, 69, 0
2, 24060, Note_on_c, 0, 72, 80
2, 24084, Note_on_c, 0, 72, 0
2, 24120, Note_on_c, 0, 63, 80
2, 24144, Note_on_c, 0, 63, 0
2, 24180, Note_on_c, 0, 65, 80
2, 24204, Note_on_c, 0, 65, 0
2, 24300, Note_on_c, 0, 77, 80
2, 24324, Note_on_c, 0, 77, 0
2, 24360, Note_on_c, 0, 65, 80
2, 24384, Note_on_c, 0, 65, 0
2, 24420, Note_on_c, 0, 77, 80
2, 24444, Note_on_c, 0, 77, 0
2, 24540, Note_on_c, 0, 77, 80
2, 24564, Note_on_c, 0, 77, 0
2, 24600, Note_on_c, 0, 67, 80
2, 24624, Note_on_c, 0, 67, 0
2, 24660, Note_on_c, 0, 77, 80
2, 24720, Note_on_c, 0, 77, 0
2, 24720, Note_on_c, 0, 76, 80
2, 24760, Note_on_c, 0, 76, 0
2, 24760, Note_on_c, 0, 74, 80
2, 24800, Note_on_c, 0, 74, 0
2, 24800, Note_on_c, 0, 72, 80
2, 24840, Note_on_c, 0, 72, 0
2, 24840, Note_on_c, 0, 70, 80
2, 24880, Note_on_c, 0, 70, 0
2, 24880, Note_on_c, 0, 69, 80
2, 24920, Note_on_c, 0, 69, 0
2, 24920, Note_on_c, 0, 67, 80
2, 24960, Note_on_c, 0, 67, 0
2, 24960, Note_on_c, 0, 69, 80
2, 25020, Note_on_c, 0, 69, 0
2, 25020, Note_on_c, 0, 65, 80
2, 25044, Note_on_c, 0, 65, 0
2, 25080, Note_on_c, 0, 72, 80
2, 25104, Note_on_c, 0, 72, 0
2, 25140, Note_on_c, 0, 69, 80
2, 25164, Note_on_c, 0, 69, 0
2, 25200, Note_on_c, 0, 77, 80
2, 25224, Note_on_c, 0, 77, 0
2, 25260, Note_on_c, 0, 72, 80
2, 25284, Note_on_c, 0, 72, 0
2, 25320, Note_on_c, 0, 81, 80
2, 25344, Note_on_c, 0, 81, 0
2, 25380, Note_on_c, 0, 77, 80
2, 25440, Note_on_c, 0, 77, 0
2, 25440, Note_on_c, 0, 84, 80
2, 25680, Note_on_c, 0, 84, 0
2, 25680, Note_on_c, 0, 75, 80
2, 25710, Note_on_c, 0, 75, 0
2, 25710, Note_on_c, 0, 77, 80
2, 25740, Note_on_c, 0, 77, 0
2, 25740, Note_on_c, 0, 75, 80
2, 25770, Note_on_c, 0, 75, 0
2, 25770, Note_on_c, 0, 77, 80
2, 25800, Note_on_c, 0, 77, 0
2, 25800, Note_on_c, 0, 75, 80
2, 25820, Note_on_c, 0, 75, 0
2, 25820, Note_on_c, 0, 77, 80
2, 25840, Note_on_c, 0, 77, 0
2, 25840, Note_on_c, 0, 75, 80
2, 25860, Note_on_c, 0, 75, 0
2, 25860, Note_on_c, 0, 74, 80
2, 25890, Note_on_c, 0, 74, 0
2, 25890, Note_on_c, 0, 72, 80
2, 25920, Note_on_c, 0, 72, 0
2, 25920, Note_on_c, 0, 70, 80
2, 25920, Note_on_c, 0, 74, 80
2, 25980, Note_on_c, 0, 74, 0
2, 25980, Note_on_c, 0, 70, 0
2, 25980, Note_on_c, 0, 65, 80
2, 26004, Note_on_c, 0, 65, 0
2, 26040, Note_on_c, 0, 69, 80
2, 26040, Note_on_c, 0, 72, 80
2, 26064, Note_on_c, 0, 72, 0
2, 26064, Note_on_c, 0, 69, 0
2, 26100, Note_on_c, 0, 65, 80
2, 26124, Note_on_c, 0, 65, 0
2, 26160, Note_on_c, 0, 70, 80
2, 26160, Note_on_c, 0, 74, 80
2, 26220, Note_on_c, 0, 74, 0
2, 26220, Note_on_c, 0, 70, 0
2, 26220, Note_on_c, 0, 65, 80
2, 26244, Note_on_c, 0, 65, 0
2, 26280, Note_on_c, 0, 72, 80
2, 26280, Note_on_c, 0, 75, 80
2, 26304, Note_on_c, 0, 75, 0
2, 26304, Note_on_c, 0, 72, 0
2, 26340, Note_on_c, 0, 65, 80
2, 26364, Note_on_c, 0, 65, 0
2, 26400, Note_on_c, 0, 74, 80
2, 26400, Note_on_c, 0, 77, 80
2, 26520, Note_on_c, 0, 77, 0
2, 26520, Note_on_c, 0, 74, 0
2, 26580, Note_on_c, 0, 74, 80
2, 26580, Note_on_c, 0, 77, 80
2, 26640, Note_on_c, 0, 77, 0
2, 26640, Note_on_c, 0, 74, 0
2, 26640, Note_on_c, 0, 72, 80
2, 26640, Note_on_c, 0, 75, 80
2, 26760, Note_on_c, 0, 75, 0
2, 26760, Note_on_c, 0, 72, 0
2, 26820, Note_on_c, 0, 72, 80
2, 26820, Note_on_c, 0, 75, 80
2, 26880, Note_on_c, 0, 75, 0
2, 26880, Note_on_c, 0, 72, 0
2, 26880, Note_on_c, 0, 74, 80
2, 26880, Note_on_c, 0, 70, 80
2, 26940, Note_on_c, 0, 70, 0
2, 26940, Note_on_c, 0, 74, 0
2, 26940, Note_on_c, 0, 65, 80
2, 26964, Note_on_c, 0, 65, 0
2, 27000, Note_on_c, 0, 72, 80
2, 27000, Note_on_c, 0, 69, 80
2, 27024, Note_on_c, 0, 69, 0
2, 27024, Note_on_c, 0, 72, 0
2, 27060, Note_on_c, 0, 65, 80
2, 27084, Note_on_c, 0, 65, 0
2, 27120, Note_on_c, 0, 74, 80
2, 27120, Note_on_c, 0, 70, 80
2, 27180, Note_on_c, 0, 70, 0
2, 27180, Note_on_c, 0, 74, 0
2, 27180, Note_on_c, 0, 65, 80
2, 27204, Note_on_c, 0, 65, 0
2, 27240, Note_on_c, 0, 75, 80
2, 27240, Note_on_c, 0, 72, 80
2, 27264, Note_on_c, 0, 72, 0
2, 27264, Note_on_c, 0, 75, 0
2, 27300, Note_on_c, 0, 65, 80
2, 27324, Note_on_c, 0, 65, 0
2, 27360, Note_on_c, 0, 77, 80
2, 27360, Note_on_c, 0, 74, 80
2, 27480, Note_on_c, 0, 74, 0
2, 27480, Note_on_c, 0, 77, 0
2, 27540, Note_on_c, 0, 77, 80
2, 27540, Note_on_c, 0, 74, 80
2, 27600, Note_on_c, 0, 74, 0
2, 27600, Note_on_c, 0, 77, 0
2, 27600, Note_on_c, 0, 75, 80
2, 27600, Note_on_c, 0, 72, 80
2, 27720, Note_on_c, 0, 72, 0
2, 27720, Note_on_c, 0, 75, 0
2, 27780, Note_on_c, 0, 75, 80
2, 27780, Note_on_c, 0, 72, 80
2, 27840, Note_on_c, 0, 72, 0
2, 27840, Note_on_c, 0, 75, 0
2, 27840, Note_on_c, 0, 70, 80
2, 27840, Note_on_c, 0, 74, 80
2, 27960, Note_on_c, 0, 74, 0
2, 27960, Note_on_c, 0, 70, 0
2, 28020, Note_on_c, 0, 82, 80
2, 28080, Note_on_c, 0, 82, 0
2, 28080, Note_on_c, 0, 79, 80
2, 28120, Note_on_c, 0, 79, 0
2, 28120, Note_on_c, 0, 82, 80
2, 28160, Note_on_c, 0, 82, 0
2, 28160, Note_on_c, 0, 81, 80
2, 28200, Note_on_c, 0, 81, 0
2, 28200, Note_on_c, 0, 79, 80
2, 28240, Note_on_c, 0, 79, 0
2, 28240, Note_on_c, 0, 77, 80
2, 28280, Note_on_c, 0, 77, 0
2, 28280, Note_on_c, 0, 75, 80
2, 28320, Note_on_c, 0, 75, 0
2, 28320, Note_on_c, 0, 74, 80
2, 28360, Note_on_c, 0, 74, 0
2, 28360, Note_on_c, 0, 77, 80
2, 28400, Note_on_c, 0, 77, 0
2, 28400, Note_on_c, 0, 75, 80
2, 28440, Note_on_c, 0, 75, 0
2, 28440, Note_on_c, 0, 74, 80
2, 28480, Note_on_c, 0, 74, 0
2, 28480, Note_on_c, 0, 72, 80
2, 28520, Note_on_c, 0, 72, 0
2, 28520, Note_on_c, 0, 70, 80
2, 28560, Note_on_c, 0, 70, 0
2, 28560, Note_on_c, 0, 69, 80
2, 28600, Note_on_c, 0, 69, 0
2, 28600, Note_on_c, 0, 67, 80
2, 28640, Note_on_c, 0, 67, 0
2, 28640, Note_on_c, 0, 65, 80
2, 28680, Note_on_c, 0, 65, 0
2, 28680, Note_on_c, 0, 63, 80
2, 28720, Note_on_c, 0, 63, 0
2, 28720, Note_on_c, 0, 62, 80
2, 28760, Note_on_c, 0, 62, 0
2, 28760, Note_on_c, 0, 60, 80
2, 28800, Note_on_c, 0, 60, 0
2, 28800, Note_on_c, 0, 58, 80
2, 28884, Note_on_c, 0, 58, 0
2, 28980, Note_on_c, 0, 82, 80
2, 29040, Note_on_c, 0, 82, 0
2, 29040, Note_on_c, 0, 79, 80
2, 29080, Note_on_c, 0, 79, 0
2, 29080, Note_on_c, 0, 82, 80
2, 29120, Note_on_c, 0, 82, 0
2, 29120, Note_on_c, 0, 81, 80
2, 29160, Note_on_c, 0, 81, 0
2, 29160, Note_on_c, 0, 79, 80
2, 29200, Note_on_c, 0, 79, 0
2, 29200, Note_on_c, 0, 77, 80
2, 29240, Note_on_c, 0, 77, 0
2, 29240, Note_on_c, 0, 75, 80
2, 29280, Note_on_c, 0, 75, 0
2, 29280, Note_on_c, 0, 74, 80
2, 29320, Note_on_c, 0, 74, 0
2, 29320, Note_on_c, 0, 77, 80
2, 29360, Note_on_c, 0, 77, 0
2, 29360, Note_on_c, 0, 75, 80
2, 29400, Note_on_c, 0, 75, 0
2, 29400, Note_on_c, 0, 74, 80
2, 29440, Note_on_c, 0, 74, 0
2, 29440, Note_on_c, 0, 72, 80
2, 29480, Note_on_c, 0, 72, 0
2, 29480, Note_on_c, 0, 70, 80
2, 29520, Note_on_c, 0, 70, 0
2, 29520, Note_on_c, 0, 65, 80
2, 29568, Note_on_c, 0, 65, 0
2, 29640, Note_on_c, 0, 60, 80
2, 29640, Note_on_c, 0, 63, 80
2, 29640, Note_on_c, 0, 69, 80
2, 29760, Note_on_c, 0, 69, 0
2, 29760, Note_on_c, 0, 63, 0
2, 29760, Note_on_c, 0, 60, 0
2, 29760, Note_on_c, 0, 62, 80
2, 29760, Note_on_c, 0, 65, 80
2, 29760, Note_on_c, 0, 70, 80
2, 30000, Note_on_c, 0, 70, 0
2, 30000, Note_on_c, 0, 65, 0
2, 30000, Note_on_c, 0, 62, 0
2, 30000, End_track
3, 0, Start_track
3, 0, MIDI_port, 0
3, 0, Title_t, "by FJ Haydn (3rd mvmt. - Allegro)"
3, 0, Program_c, 1, 0
3, 0, Control_c, 1, 7, 127
3, 0, Control_c, 1, 10, 56
3, 60, Note_on_c, 1, 58, 80
3, 120, Note_on_c, 1, 58, 0
3, 120, Note_on_c, 1, 62, 80
3, 144, Note_on_c, 1, 62, 0
3, 180, Note_on_c, 1, 58, 80
3, 204, Note_on_c, 1, 58, 0
3, 240, Note_on_c, 1, 57, 80
3, 300, Note_on_c, 1, 57, 0
3, 300, Note_on_c, 1, 60, 80
3, 324, Note_on_c, 1, 60, 0
3, 360, Note_on_c, 1, 53, 80
3, 384, Note_on_c, 1, 53, 0
3, 420, Note_on_c, 1, 57, 80
3, 444, Note_on_c, 1, 57, 0
3, 480, Note_on_c, 1, 55, 80
3, 504, Note_on_c, 1, 55, 0
3, 540, Note_on_c, 1, 67, 80
3, 564, Note_on_c, 1, 67, 0
3, 600, Note_on_c, 1, 51, 80
3, 624, Note_on_c, 1, 51, 0
3, 660, Note_on_c, 1, 63, 80
3, 684, Note_on_c, 1, 63, 0
3, 720, Note_on_c, 1, 50, 80
3, 744, Note_on_c, 1, 50, 0
3, 780, Note_on_c, 1, 62, 80
3, 804, Note_on_c, 1, 62, 0
3, 840, Note_on_c, 1, 46, 80
3, 864, Note_on_c, 1, 46, 0
3, 900, Note_on_c, 1, 58, 80
3, 924, Note_on_c, 1, 58, 0
3, 960, Note_on_c, 1, 51, 80
3, 1020, Note_on_c, 1, 51, 0
3, 1020, Note_on_c, 1, 63, 80
3, 1044, Note_on_c, 1, 63, 0
3, 1080, Note_on_c, 1, 62, 80
3, 1104, Note_on_c, 1, 62, 0
3, 1140, Note_on_c, 1, 63, 80
3, 1164, Note_on_c, 1, 63, 0
3, 1200, Note_on_c, 1, 60, 80
3, 1260, Note_on_c, 1, 60, 0
3, 1260, Note_on_c, 1, 63, 80
3, 1284, Note_on_c, 1, 63, 0
3, 1320, Note_on_c, 1, 62, 80
3, 1344, Note_on_c, 1, 62, 0
3, 1380, Note_on_c, 1, 63, 80
3, 1404, Note_on_c, 1, 63, 0
3, 1440, Note_on_c, 1, 53, 80
3, 1464, Note_on_c, 1, 53, 0
3, 1500, Note_on_c, 1, 60, 80
3, 1524, Note_on_c, 1, 60, 0
3, 1560, Note_on_c, 1, 65, 80
3, 1620, Note_on_c, 1, 65, 0
3, 1620, Note_on_c, 1, 63, 80
3, 1644, Note_on_c, 1, 63, 0
3, 1680, Note_on_c, 1, 62, 80
3, 1704, Note_on_c, 1, 62, 0
3, 1740, Note_on_c, 1, 65, 80
3, 1764, Note_on_c, 1, 65, 0
3, 1800, Note_on_c, 1, 62, 80
3, 1824, Note_on_c, 1, 62, 0
3, 1860, Note_on_c, 1, 58, 80
3, 1884, Note_on_c, 1, 58, 0
3, 1920, Note_on_c, 1, 57, 80
3, 1980, Note_on_c, 1, 57, 0
3, 2100, Note_on_c, 1, 57, 80
3, 2160, Note_on_c, 1, 57, 0
3, 2160, Note_on_c, 1, 58, 80
3, 2184, Note_on_c, 1, 58, 0
3, 2220, Note_on_c, 1, 53, 80
3, 2244, Note_on_c, 1, 53, 0
3, 2280, Note_on_c, 1, 50, 80
3, 2304, Note_on_c, 1, 50, 0
3, 2340, Note_on_c, 1, 46, 80
3, 2364, Note_on_c, 1, 46, 0
3, 2400, Note_on_c, 1, 45, 80
3, 2472, Note_on_c, 1, 45, 0
3, 2580, Note_on_c, 1, 45, 80
3, 2640, Note_on_c, 1, 45, 0
3, 2640, Note_on_c, 1, 46, 80
3, 2664, Note_on_c, 1, 46, 0
3, 2700, Note_on_c, 1, 50, 80
3, 2724, Note_on_c, 1, 50, 0
3, 2760, Note_on_c, 1, 53, 80
3, 2784, Note_on_c, 1, 53, 0
3, 2820, Note_on_c, 1, 58, 80
3, 2844, Note_on_c, 1, 58, 0
3, 2880, Note_on_c, 1, 57, 80
3, 2940, Note_on_c, 1, 57, 0
3, 2940, Note_on_c, 1, 53, 80
3, 2964, Note_on_c, 1, 53, 0
3, 3000, Note_on_c, 1, 57, 80
3, 3024, Note_on_c, 1, 57, 0
3, 3060, Note_on_c, 1, 53, 80
3, 3084, Note_on_c, 1, 53, 0
3, 3120, Note_on_c, 1, 58, 80
3, 3180, Note_on_c, 1, 58, 0
3, 3180, Note_on_c, 1, 53, 80
3, 3204, Note_on_c, 1, 53, 0
3, 3240, Note_on_c, 1, 50, 80
3, 3264, Note_on_c, 1, 50, 0
3, 3300, Note_on_c, 1, 46, 80
3, 3324, Note_on_c, 1, 46, 0
3, 3360, Note_on_c, 1, 41, 80
3, 3480, Note_on_c, 1, 41, 0
3, 3480, Note_on_c, 1, 53, 80
3, 3528, Note_on_c, 1, 53, 0
3, 3600, Note_on_c, 1, 55, 80
3, 3648, Note_on_c, 1, 55, 0
3, 3720, Note_on_c, 1, 57, 80
3, 3840, Note_on_c, 1, 57, 0
3, 3840, Note_on_c, 1, 46, 80
3, 3864, Note_on_c, 1, 46, 0
3, 3900, Note_on_c, 1, 58, 80
3, 3960, Note_on_c, 1, 58, 0
3, 3960, Note_on_c, 1, 57, 80
3, 4020, Note_on_c, 1, 57, 0
3, 4020, Note_on_c, 1, 58, 80
3, 4044, Note_on_c, 1, 58, 0
3, 4080, Note_on_c, 1, 55, 80
3, 4140, Note_on_c, 1, 55, 0
3, 4140, Note_on_c, 1, 58, 80
3, 4164, Note_on_c, 1, 58, 0
3, 4200, Note_on_c, 1, 57, 80
3, 4224, Note_on_c, 1, 57, 0
3, 4260, Note_on_c, 1, 58, 80
3, 4284, Note_on_c, 1, 58, 0
3, 4320, Note_on_c, 1, 48, 80
3, 4380, Note_on_c, 1, 48, 0
3, 4380, Note_on_c, 1, 60, 80
3, 4404, Note_on_c, 1, 60, 0
3, 4440, Note_on_c, 1, 58, 80
3, 4464, Note_on_c, 1, 58, 0
3, 4500, Note_on_c, 1, 60, 80
3, 4524, Note_on_c, 1, 60, 0
3, 4560, Note_on_c, 1, 57, 80
3, 4584, Note_on_c, 1, 57, 0
3, 4620, Note_on_c, 1, 60, 80
3, 4644, Note_on_c, 1, 60, 0
3, 4680, Note_on_c, 1, 58, 80
3, 4704, Note_on_c, 1, 58, 0
3, 4740, Note_on_c, 1, 60, 80
3, 4800, Note_on_c, 1, 60, 0
3, 4800, Note_on_c, 1, 50, 80
3, 4824, Note_on_c, 1, 50, 0
3, 4860, Note_on_c, 1, 62, 80
3, 4920, Note_on_c, 1, 62, 0
3, 4920, Note_on_c, 1, 61, 80
3, 4980, Note_on_c, 1, 61, 0
3, 4980, Note_on_c, 1, 62, 80
3, 5004, Note_on_c, 1, 62, 0
3, 5040, Note_on_c, 1, 58, 80
3, 5100, Note_on_c, 1, 58, 0
3, 5100, Note_on_c, 1, 62, 80
3, 5124, Note_on_c, 1, 62, 0
3, 5160, Note_on_c, 1, 59, 80
3, 5184, Note_on_c, 1, 59, 0
3, 5220, Note_on_c, 1, 62, 80
3, 5244, Note_on_c, 1, 62, 0
3, 5280, Note_on_c, 1, 60, 80
3, 5520, Note_on_c, 1, 60, 0
3, 5520, Note_on_c, 1, 64, 80
3, 5760, Note_on_c, 1, 64, 0
3, 5760, Note_on_c, 1, 65, 80
3, 6000, Note_on_c, 1, 65, 0
3, 6000, Note_on_c, 1, 67, 80
3, 6240, Note_on_c, 1, 67, 0
3, 6240, Note_on_c, 1, 60, 80
3, 6480, Note_on_c, 1, 60, 0
3, 6480, Note_on_c, 1, 52, 80
3, 6720, Note_on_c, 1, 52, 0
3, 6720, Note_on_c, 1, 53, 80
3, 6960, Note_on_c, 1, 53, 0
3, 6960, Note_on_c, 1, 55, 80
3, 7200, Note_on_c, 1, 55, 0
3, 7200, Note_on_c, 1, 48, 80
3, 7440, Note_on_c, 1, 48, 0
3, 7740, Note_on_c, 1, 48, 80
3, 7764, Note_on_c, 1, 48, 0
3, 7800, Note_on_c, 1, 36, 80
3, 7860, Note_on_c, 1, 36, 0
3, 7860, Note_on_c, 1, 48, 80
3, 7884, Note_on_c, 1, 48, 0
3, 7920, Note_on_c, 1, 38, 80
3, 7944, Note_on_c, 1, 38, 0
3, 7980, Note_on_c, 1, 48, 80
3, 8004, Note_on_c, 1, 48, 0
3, 8040, Note_on_c, 1, 40, 80
3, 8064, Note_on_c, 1, 40, 0
3, 8100, Note_on_c, 1, 48, 80
3, 8124, Note_on_c, 1, 48, 0
3, 8160, Note_on_c, 1, 41, 80
3, 8280, Note_on_c, 1, 41, 0
3, 8700, Note_on_c, 1, 41, 80
3, 8724, Note_on_c, 1, 41, 0
3, 8760, Note_on_c, 1, 45, 80
3, 8784, Note_on_c, 1, 45, 0
3, 8820, Note_on_c, 1, 41, 80
3, 8880, Note_on_c, 1, 41, 0
3, 8880, Note_on_c, 1, 48, 80
3, 8904, Note_on_c, 1, 48, 0
3, 8940, Note_on_c, 1, 48, 80
3, 8964, Note_on_c, 1, 48, 0
3, 9000, Note_on_c, 1, 52, 80
3, 9024, Note_on_c, 1, 52, 0
3, 9060, Note_on_c, 1, 48, 80
3, 9120, Note_on_c, 1, 48, 0
3, 9120, Note_on_c, 1, 53, 80
3, 9240, Note_on_c, 1, 53, 0
3, 9660, Note_on_c, 1, 41, 80
3, 9684, Note_on_c, 1, 41, 0
3, 9720, Note_on_c, 1, 45, 80
3, 9744, Note_on_c, 1, 45, 0
3, 9780, Note_on_c, 1, 41, 80
3, 9840, Note_on_c, 1, 41, 0
3, 9840, Note_on_c, 1, 48, 80
3, 9864, Note_on_c, 1, 48, 0
3, 9900, Note_on_c, 1, 48, 80
3, 9924, Note_on_c, 1, 48, 0
3, 9960, Note_on_c, 1, 52, 80
3, 9984, Note_on_c, 1, 52, 0
3, 10020, Note_on_c, 1, 48, 80
3, 10080, Note_on_c, 1, 48, 0
3, 10080, Note_on_c, 1, 53, 80
3, 10104, Note_on_c, 1, 53, 0
3, 10140, Note_on_c, 1, 53, 80
3, 10164, Note_on_c, 1, 53, 0
3, 10200, Note_on_c, 1, 57, 80
3, 10224, Note_on_c, 1, 57, 0
3, 10260, Note_on_c, 1, 53, 80
3, 10320, Note_on_c, 1, 53, 0
3, 10320, Note_on_c, 1, 58, 80
3, 10680, Note_on_c, 1, 58, 0
3, 10680, Note_on_c, 1, 57, 80
3, 10728, Note_on_c, 1, 57, 0
3, 10800, Note_on_c, 1, 58, 80
3, 10920, Note_on_c, 1, 58, 0
3, 10920, Note_on_c, 1, 60, 80
3, 10968, Note_on_c, 1, 60, 0
3, 11040, Note_on_c, 1, 62, 80
3, 11088, Note_on_c, 1, 62, 0
3, 11160, Note_on_c, 1, 57, 80
3, 11280, Note_on_c, 1, 57, 0
3, 11280, Note_on_c, 1, 58, 80
3, 11520, Note_on_c, 1, 58, 0
3, 11520, Note_on_c, 1, 60, 80
3, 11760, Note_on_c, 1, 60, 0
3, 11880, Note_on_c, 1, 48, 80
3, 11964, Note_on_c, 1, 48, 0
3, 12000, Note_on_c, 1, 41, 80
3, 12040, Note_on_c, 1, 41, 0
3, 12040, Note_on_c, 1, 45, 80
3, 12056, Note_on_c, 1, 45, 0
3, 12080, Note_on_c, 1, 46, 80
3, 12096, Note_on_c, 1, 46, 0
3, 12120, Note_on_c, 1, 48, 80
3, 12136, Note_on_c, 1, 48, 0
3, 12160, Note_on_c, 1, 50, 80
3, 12176, Note_on_c, 1, 50, 0
3, 12200, Note_on_c, 1, 52, 80
3, 12216, Note_on_c, 1, 52, 0
3, 12240, Note_on_c, 1, 53, 80
3, 12480, Note_on_c, 1, 53, 0
3, 12540, Note_on_c, 1, 53, 80
3, 12600, Note_on_c, 1, 53, 0
3, 12600, Note_on_c, 1, 57, 80
3, 12624, Note_on_c, 1, 57, 0
3, 12660, Note_on_c, 1, 53, 80
3, 12684, Note_on_c, 1, 53, 0
3, 12720, Note_on_c, 1, 52, 80
3, 12780, Note_on_c, 1, 52, 0
3, 12780, Note_on_c, 1, 55, 80
3, 12804, Note_on_c, 1, 55, 0
3, 12840, Note_on_c, 1, 48, 80
3, 12864, Note_on_c, 1, 48, 0
3, 12900, Note_on_c, 1, 52, 80
3, 12924, Note_on_c, 1, 52, 0
3, 12960, Note_on_c, 1, 50, 80
3, 12984, Note_on_c, 1, 50, 0
3, 13020, Note_on_c, 1, 62, 80
3, 13044, Note_on_c, 1, 62, 0
3, 13080, Note_on_c, 1, 46, 80
3, 13104, Note_on_c, 1, 46, 0
3, 13140, Note_on_c, 1, 58, 80
3, 13164, Note_on_c, 1, 58, 0
3, 13200, Note_on_c, 1, 45, 80
3, 13224, Note_on_c, 1, 45, 0
3, 13260, Note_on_c, 1, 57, 80
3, 13284, Note_on_c, 1, 57, 0
3, 13320, Note_on_c, 1, 41, 80
3, 13344, Note_on_c, 1, 41, 0
3, 13380, Note_on_c, 1, 53, 80
3, 13404, Note_on_c, 1, 53, 0
3, 13440, Note_on_c, 1, 46, 80
3, 13500, Note_on_c, 1, 46, 0
3, 13500, Note_on_c, 1, 58, 80
3, 13524, Note_on_c, 1, 58, 0
3, 13560, Note_on_c, 1, 57, 80
3, 13584, Note_on_c, 1, 57, 0
3, 13620, Note_on_c, 1, 58, 80
3, 13644, Note_on_c, 1, 58, 0
3, 13680, Note_on_c, 1, 55, 80
3, 13740, Note_on_c, 1, 55, 0
3, 13740, Note_on_c, 1, 58, 80
3, 13764, Note_on_c, 1, 58, 0
3, 13800, Note_on_c, 1, 57, 80
3, 13824, Note_on_c, 1, 57, 0
3, 13860, Note_on_c, 1, 58, 80
3, 13884, Note_on_c, 1, 58, 0
3, 13920, Note_on_c, 1, 48, 80
3, 13980, Note_on_c, 1, 48, 0
3, 13980, Note_on_c, 1, 55, 80
3, 14004, Note_on_c, 1, 55, 0
3, 14040, Note_on_c, 1, 60, 80
3, 14064, Note_on_c, 1, 60, 0
3, 14100, Note_on_c, 1, 58, 80
3, 14124, Note_on_c, 1, 58, 0
3, 14160, Note_on_c, 1, 57, 80
3, 14184, Note_on_c, 1, 57, 0
3, 14220, Note_on_c, 1, 60, 80
3, 14244, Note_on_c, 1, 60, 0
3, 14280, Note_on_c, 1, 57, 80
3, 14304, Note_on_c, 1, 57, 0
3, 14340, Note_on_c, 1, 53, 80
3, 14364, Note_on_c, 1, 53, 0
3, 14400, Note_on_c, 1, 52, 80
3, 14520, Note_on_c, 1, 52, 0
3, 14580, Note_on_c, 1, 64, 80
3, 14640, Note_on_c, 1, 64, 0
3, 14640, Note_on_c, 1, 65, 80
3, 14664, Note_on_c, 1, 65, 0
3, 14700, Note_on_c, 1, 60, 80
3, 14724, Note_on_c, 1, 60, 0
3, 14760, Note_on_c, 1, 57, 80
3, 14784, Note_on_c, 1, 57, 0
3, 14820, Note_on_c, 1, 53, 80
3, 14844, Note_on_c, 1, 53, 0
3, 14880, Note_on_c, 1, 52, 80
3, 15060, Note_on_c, 1, 52, 0
3, 15060, Note_on_c, 1, 52, 80
3, 15120, Note_on_c, 1, 52, 0
3, 15120, Note_on_c, 1, 53, 80
3, 15144, Note_on_c, 1, 53, 0
3, 15180, Note_on_c, 1, 48, 80
3, 15204, Note_on_c, 1, 48, 0
3, 15240, Note_on_c, 1, 45, 80
3, 15264, Note_on_c, 1, 45, 0
3, 15300, Note_on_c, 1, 41, 80
3, 15324, Note_on_c, 1, 41, 0
3, 15360, Note_on_c, 1, 49, 80
3, 15480, Note_on_c, 1, 49, 0
3, 15540, Note_on_c, 1, 61, 80
3, 15600, Note_on_c, 1, 61, 0
3, 15600, Note_on_c, 1, 62, 80
3, 15624, Note_on_c, 1, 62, 0
3, 15660, Note_on_c, 1, 57, 80
3, 15684, Note_on_c, 1, 57, 0
3, 15720, Note_on_c, 1, 53, 80
3, 15744, Note_on_c, 1, 53, 0
3, 15780, Note_on_c, 1, 50, 80
3, 15804, Note_on_c, 1, 50, 0
3, 15840, Note_on_c, 1, 49, 80
3, 16020, Note_on_c, 1, 49, 0
3, 16020, Note_on_c, 1, 49, 80
3, 16080, Note_on_c, 1, 49, 0
3, 16080, Note_on_c, 1, 50, 80
3, 16104, Note_on_c, 1, 50, 0
3, 16140, Note_on_c, 1, 45, 80
3, 16164, Note_on_c, 1, 45, 0
3, 16200, Note_on_c, 1, 41, 80
3, 16224, Note_on_c, 1, 41, 0
3, 16260, Note_on_c, 1, 38, 80
3, 16284, Note_on_c, 1, 38, 0
3, 16320, Note_on_c, 1, 53, 80
3, 16560, Note_on_c, 1, 53, 0
3, 16560, Note_on_c, 1, 55, 80
3, 16608, Note_on_c, 1, 55, 0
3, 16680, Note_on_c, 1, 56, 80
3, 16728, Note_on_c, 1, 56, 0
3, 16800, Note_on_c, 1, 57, 80
3, 16980, Note_on_c, 1, 57, 0
3, 16980, Note_on_c, 1, 55, 80
3, 17040, Note_on_c, 1, 55, 0
3, 17040, Note_on_c, 1, 53, 80
3, 17280, Note_on_c, 1, 53, 0
3, 17280, Note_on_c, 1, 55, 80
3, 17520, Note_on_c, 1, 55, 0
3, 17520, Note_on_c, 1, 57, 80
3, 17760, Note_on_c, 1, 57, 0
3, 17760, Note_on_c, 1, 58, 80
3, 18000, Note_on_c, 1, 58, 0
3, 18000, Note_on_c, 1, 50, 80
3, 18240, Note_on_c, 1, 50, 0
3, 18240, Note_on_c, 1, 51, 80
3, 18480, Note_on_c, 1, 51, 0
3, 18480, Note_on_c, 1, 53, 80
3, 18720, Note_on_c, 1, 53, 0
3, 18720, Note_on_c, 1, 46, 80
3, 18840, Note_on_c, 1, 46, 0
3, 18960, Note_on_c, 1, 58, 80
3, 19200, Note_on_c, 1, 58, 0
3, 19200, Note_on_c, 1, 60, 80
3, 19440, Note_on_c, 1, 60, 0
3, 19440, Note_on_c, 1, 62, 80
3, 19680, Note_on_c, 1, 62, 0
3, 19680, Note_on_c, 1, 63, 80
3, 19920, Note_on_c, 1, 63, 0
3, 19920, Note_on_c, 1, 55, 80
3, 20160, Note_on_c, 1, 55, 0
3, 20160, Note_on_c, 1, 56, 80
3, 20400, Note_on_c, 1, 56, 0
3, 20400, Note_on_c, 1, 58, 80
3, 20640, Note_on_c, 1, 58, 0
3, 20640, Note_on_c, 1, 51, 80
3, 20880, Note_on_c, 1, 51, 0
3, 21240, Note_on_c, 1, 63, 80
3, 21360, Note_on_c, 1, 63, 0
3, 21360, Note_on_c, 1, 63, 80
3, 21408, Note_on_c, 1, 63, 0
3, 21480, Note_on_c, 1, 63, 80
3, 21600, Note_on_c, 1, 63, 0
3, 21600, Note_on_c, 1, 62, 80
3, 21720, Note_on_c, 1, 62, 0
3, 22200, Note_on_c, 1, 62, 80
3, 22320, Note_on_c, 1, 62, 0
3, 22320, Note_on_c, 1, 62, 80
3, 22368, Note_on_c, 1, 62, 0
3, 22440, Note_on_c, 1, 62, 80
3, 22560, Note_on_c, 1, 62, 0
3, 22560, Note_on_c, 1, 60, 80
3, 22800, Note_on_c, 1, 60, 0
3, 22800, Note_on_c, 1, 57, 80
3, 23040, Note_on_c, 1, 57, 0
3, 23040, Note_on_c, 1, 58, 80
3, 23280, Note_on_c, 1, 58, 0
3, 23280, Note_on_c, 1, 46, 80
3, 23520, Note_on_c, 1, 46, 0
3, 23520, Note_on_c, 1, 51, 80
3, 23760, Note_on_c, 1, 51, 0
3, 23760, Note_on_c, 1, 52, 80
3, 24000, Note_on_c, 1, 52, 0
3, 24000, Note_on_c, 1, 53, 80
3, 24240, Note_on_c, 1, 53, 0
3, 24240, Note_on_c, 1, 57, 80
3, 24480, Note_on_c, 1, 57, 0
3, 24480, Note_on_c, 1, 58, 80
3, 24720, Note_on_c, 1, 58, 0
3, 24720, Note_on_c, 1, 60, 80
3, 24960, Note_on_c, 1, 60, 0
3, 24960, Note_on_c, 1, 53, 80
3, 25200, Note_on_c, 1, 53, 0
3, 25500, Note_on_c, 1, 53, 80
3, 25560, Note_on_c, 1, 53, 0
3, 25560, Note_on_c, 1, 41, 80
3, 25584, Note_on_c, 1, 41, 0
3, 25620, Note_on_c, 1, 53, 80
3, 25644, Note_on_c, 1, 53, 0
3, 25680, Note_on_c, 1, 43, 80
3, 25704, Note_on_c, 1, 43, 0
3, 25740, Note_on_c, 1, 53, 80
3, 25764, Note_on_c, 1, 53, 0
3, 25800, Note_on_c, 1, 45, 80
3, 25824, Note_on_c, 1, 45, 0
3, 25860, Note_on_c, 1, 53, 80
3, 25884, Note_on_c, 1, 53, 0
3, 25920, Note_on_c, 1, 46, 80
3, 26040, Note_on_c, 1, 46, 0
3, 26460, Note_on_c, 1, 46, 80
3, 26484, Note_on_c, 1, 46, 0
3, 26520, Note_on_c, 1, 50, 80
3, 26544, Note_on_c, 1, 50, 0
3, 26580, Note_on_c, 1, 46, 80
3, 26640, Note_on_c, 1, 46, 0
3, 26640, Note_on_c, 1, 53, 80
3, 26664, Note_on_c, 1, 53, 0
3, 26700, Note_on_c, 1, 53, 80
3, 26724, Note_on_c, 1, 53, 0
3, 26760, Note_on_c, 1, 57, 80
3, 26784, Note_on_c, 1, 57, 0
3, 26820, Note_on_c, 1, 53, 80
3, 26880, Note_on_c, 1, 53, 0
3, 26880, Note_on_c, 1, 58, 80
3, 27000, Note_on_c, 1, 58, 0
3, 27420, Note_on_c, 1, 46, 80
3, 27444, Note_on_c, 1, 46, 0
3, 27480, Note_on_c, 1, 50, 80
3, 27504, Note_on_c, 1, 50, 0
3, 27540, Note_on_c, 1, 46, 80
3, 27600, Note_on_c, 1, 46, 0
3, 27600, Note_on_c, 1, 53, 80
3, 27624, Note_on_c, 1, 53, 0
3, 27660, Note_on_c, 1, 53, 80
3, 27684, Note_on_c, 1, 53, 0
3, 27720, Note_on_c, 1, 57, 80
3, 27744, Note_on_c, 1, 57, 0
3, 27780, Note_on_c, 1, 53, 80
3, 27840, Note_on_c, 1, 53, 0
3, 27840, Note_on_c, 1, 58, 80
3, 27864, Note_on_c, 1, 58, 0
3, 27900, Note_on_c, 1, 58, 80
3, 27924, Note_on_c, 1, 58, 0
3, 27960, Note_on_c, 1, 62, 80
3, 27984, Note_on_c, 1, 62, 0
3, 28020, Note_on_c, 1, 58, 80
3, 28080, Note_on_c, 1, 58, 0
3, 28080, Note_on_c, 1, 63, 80
3, 28320, Note_on_c, 1, 63, 0
3, 28320, Note_on_c, 1, 65, 80
3, 28560, Note_on_c, 1, 65, 0
3, 28680, Note_on_c, 1, 53, 80
3, 28764, Note_on_c, 1, 53, 0
3, 28800, Note_on_c, 1, 55, 80
3, 28920, Note_on_c, 1, 55, 0
3, 28920, Note_on_c, 1, 50, 80
3, 28968, Note_on_c, 1, 50, 0
3, 29040, Note_on_c, 1, 51, 80
3, 29280, Note_on_c, 1, 51, 0
3, 29280, Note_on_c, 1, 53, 80
3, 29520, Note_on_c, 1, 53, 0
3, 29640, Note_on_c, 1, 41, 80
3, 29760, Note_on_c, 1, 41, 0
3, 29760, Note_on_c, 1, 46, 80
3, 29800, Note_on_c, 1, 46, 0
3, 29800, Note_on_c, 1, 50, 80
3, 29816, Note_on_c, 1, 50, 0
3, 29840, Note_on_c, 1, 51, 80
3, 29856, Note_on_c, 1, 51, 0
3, 29880, Note_on_c, 1, 53, 80
3, 29896, Note_on_c, 1, 53, 0
3, 29920, Note_on_c, 1, 55, 80
3, 29936, Note_on_c, 1, 55, 0
3, 29960, Note_on_c, 1, 57, 80
3, 29976, Note_on_c, 1, 57, 0
3, 30000, Note_on_c, 1, 58, 80
3, 30240, Note_on_c, 1, 58, 0
3, 30240, End_track
4, 0, Start_track
4, 0, MIDI_port, 0
4, 0, Title_t, "MIDI by Marty Weimer 4/26/97"
4, 0, End_track
5, 0, Start_track
5, 0, MIDI_port, 0
5, 0, Title_t, "weimermt@libby.org  Eureka, MT  USA"
5, 0, End_track
0, 0, End_of_file
