0, 0, Header, 1, 6, 96
1, 0, Start_track
1, 0, Copyright_t, "Copyright  2000 <copyright holder>"
1, 0, Text_t, "Piano Solo\015\012"
1, 0, Text_t, "<composer>\015\012"
1, 0, Sequencer_specific, 16, 68, 87, 77, 90, 86, 82, 83, 78, 32, 55, 46, 49, 46, 49, 46, 48
1, 0, Time_signature, 3, 2, 24, 8
1, 0, Tempo, 375000
1, 0, Key_signature, 0, "major"
1, 31104, Key_signature, -3, "major"
1, 33408, Key_signature, -3, "major"
1, 38016, Key_signature, 0, "major"
1, 46368, End_track
2, 0, Start_track
2, 0, Program_c, 0, 0
2, 0, Control_c, 0, 7, 127
2, 0, Control_c, 0, 10, 64
2, 0, Note_on_c, 0, 76, 79
2, 163, Note_on_c, 0, 76, 0
2, 168, Note_on_c, 0, 77, 79
2, 191, Note_on_c, 0, 77, 0
2, 192, Note_on_c, 0, 74, 79
2, 259, Note_on_c, 0, 74, 0
2, 264, Note_on_c, 0, 76, 80
2, 287, Note_on_c, 0, 76, 0
2, 288, Note_on_c, 0, 72, 81
2, 377, Note_on_c, 0, 72, 0
2, 384, Note_on_c, 0, 79, 83
2, 473, Note_on_c, 0, 79, 0
2, 480, Note_on_c, 0, 79, 85
2, 569, Note_on_c, 0, 79, 0
2, 576, Note_on_c, 0, 79, 85
2, 624, Note_on_c, 0, 79, 0
2, 624, Note_on_c, 0, 77, 84
2, 669, Note_on_c, 0, 77, 0
2, 672, Note_on_c, 0, 77, 84
2, 720, Note_on_c, 0, 77, 0
2, 720, Note_on_c, 0, 76, 83
2, 765, Note_on_c, 0, 76, 0
2, 768, Note_on_c, 0, 76, 83
2, 816, Note_on_c, 0, 76, 0
2, 816, Note_on_c, 0, 74, 82
2, 861, Note_on_c, 0, 74, 0
2, 864, Note_on_c, 0, 74, 82
2, 903, Note_on_c, 0, 74, 0
2, 960, Note_on_c, 0, 71, 81
2, 999, Note_on_c, 0, 71, 0
2, 1056, Note_on_c, 0, 67, 80
2, 1095, Note_on_c, 0, 67, 0
2, 1152, Note_on_c, 0, 76, 79
2, 1315, Note_on_c, 0, 76, 0
2, 1320, Note_on_c, 0, 77, 80
2, 1343, Note_on_c, 0, 77, 0
2, 1344, Note_on_c, 0, 74, 80
2, 1411, Note_on_c, 0, 74, 0
2, 1416, Note_on_c, 0, 76, 81
2, 1439, Note_on_c, 0, 76, 0
2, 1440, Note_on_c, 0, 72, 82
2, 1529, Note_on_c, 0, 72, 0
2, 1536, Note_on_c, 0, 84, 83
2, 1625, Note_on_c, 0, 84, 0
2, 1632, Note_on_c, 0, 84, 85
2, 1721, Note_on_c, 0, 84, 0
2, 1728, Note_on_c, 0, 80, 85
2, 1752, Note_on_c, 0, 80, 0
2, 1752, Note_on_c, 0, 81, 84
2, 1775, Note_on_c, 0, 81, 0
2, 1824, Note_on_c, 0, 76, 82
2, 1848, Note_on_c, 0, 76, 0
2, 1848, Note_on_c, 0, 77, 82
2, 1871, Note_on_c, 0, 77, 0
2, 1920, Note_on_c, 0, 74, 80
2, 1944, Note_on_c, 0, 74, 0
2, 1944, Note_on_c, 0, 71, 79
2, 1967, Note_on_c, 0, 71, 0
2, 2016, Note_on_c, 0, 72, 79
2, 2105, Note_on_c, 0, 72, 0
2, 2304, Note_on_c, 0, 76, 79
2, 2467, Note_on_c, 0, 76, 0
2, 2472, Note_on_c, 0, 77, 79
2, 2495, Note_on_c, 0, 77, 0
2, 2496, Note_on_c, 0, 74, 79
2, 2563, Note_on_c, 0, 74, 0
2, 2568, Note_on_c, 0, 76, 80
2, 2591, Note_on_c, 0, 76, 0
2, 2592, Note_on_c, 0, 72, 81
2, 2681, Note_on_c, 0, 72, 0
2, 2688, Note_on_c, 0, 79, 83
2, 2777, Note_on_c, 0, 79, 0
2, 2784, Note_on_c, 0, 79, 85
2, 2873, Note_on_c, 0, 79, 0
2, 2880, Note_on_c, 0, 79, 85
2, 2928, Note_on_c, 0, 79, 0
2, 2928, Note_on_c, 0, 77, 84
2, 2973, Note_on_c, 0, 77, 0
2, 2976, Note_on_c, 0, 77, 84
2, 3024, Note_on_c, 0, 77, 0
2, 3024, Note_on_c, 0, 76, 83
2, 3069, Note_on_c, 0, 76, 0
2, 3072, Note_on_c, 0, 76, 83
2, 3120, Note_on_c, 0, 76, 0
2, 3120, Note_on_c, 0, 74, 82
2, 3165, Note_on_c, 0, 74, 0
2, 3168, Note_on_c, 0, 74, 82
2, 3207, Note_on_c, 0, 74, 0
2, 3264, Note_on_c, 0, 71, 81
2, 3303, Note_on_c, 0, 71, 0
2, 3360, Note_on_c, 0, 67, 80
2, 3399, Note_on_c, 0, 67, 0
2, 3456, Note_on_c, 0, 76, 79
2, 3619, Note_on_c, 0, 76, 0
2, 3624, Note_on_c, 0, 77, 80
2, 3647, Note_on_c, 0, 77, 0
2, 3648, Note_on_c, 0, 74, 80
2, 3715, Note_on_c, 0, 74, 0
2, 3720, Note_on_c, 0, 76, 81
2, 3743, Note_on_c, 0, 76, 0
2, 3744, Note_on_c, 0, 72, 82
2, 3833, Note_on_c, 0, 72, 0
2, 3840, Note_on_c, 0, 84, 83
2, 3929, Note_on_c, 0, 84, 0
2, 3936, Note_on_c, 0, 84, 85
2, 4025, Note_on_c, 0, 84, 0
2, 4032, Note_on_c, 0, 80, 85
2, 4056, Note_on_c, 0, 80, 0
2, 4056, Note_on_c, 0, 81, 84
2, 4079, Note_on_c, 0, 81, 0
2, 4128, Note_on_c, 0, 76, 82
2, 4152, Note_on_c, 0, 76, 0
2, 4152, Note_on_c, 0, 77, 82
2, 4175, Note_on_c, 0, 77, 0
2, 4224, Note_on_c, 0, 74, 80
2, 4248, Note_on_c, 0, 74, 0
2, 4248, Note_on_c, 0, 71, 79
2, 4271, Note_on_c, 0, 71, 0
2, 4320, Note_on_c, 0, 72, 79
2, 4409, Note_on_c, 0, 72, 0
2, 4608, Note_on_c, 0, 77, 79
2, 4771, Note_on_c, 0, 77, 0
2, 4776, Note_on_c, 0, 79, 79
2, 4799, Note_on_c, 0, 79, 0
2, 4800, Note_on_c, 0, 76, 79
2, 4867, Note_on_c, 0, 76, 0
2, 4872, Note_on_c, 0, 77, 79
2, 4895, Note_on_c, 0, 77, 0
2, 4896, Note_on_c, 0, 74, 79
2, 4935, Note_on_c, 0, 74, 0
2, 4992, Note_on_c, 0, 71, 79
2, 5031, Note_on_c, 0, 71, 0
2, 5088, Note_on_c, 0, 67, 79
2, 5127, Note_on_c, 0, 67, 0
2, 5184, Note_on_c, 0, 84, 79
2, 5347, Note_on_c, 0, 84, 0
2, 5352, Note_on_c, 0, 86, 79
2, 5375, Note_on_c, 0, 86, 0
2, 5376, Note_on_c, 0, 83, 79
2, 5443, Note_on_c, 0, 83, 0
2, 5448, Note_on_c, 0, 84, 79
2, 5471, Note_on_c, 0, 84, 0
2, 5472, Note_on_c, 0, 81, 79
2, 5635, Note_on_c, 0, 81, 0
2, 5640, Note_on_c, 0, 83, 79
2, 5663, Note_on_c, 0, 83, 0
2, 5664, Note_on_c, 0, 79, 79
2, 5731, Note_on_c, 0, 79, 0
2, 5736, Note_on_c, 0, 81, 79
2, 5759, Note_on_c, 0, 81, 0
2, 5760, Note_on_c, 0, 78, 79
2, 5827, Note_on_c, 0, 78, 0
2, 5832, Note_on_c, 0, 81, 79
2, 5855, Note_on_c, 0, 81, 0
2, 5856, Note_on_c, 0, 84, 79
2, 5923, Note_on_c, 0, 84, 0
2, 5928, Note_on_c, 0, 81, 79
2, 5951, Note_on_c, 0, 81, 0
2, 5952, Note_on_c, 0, 78, 79
2, 6019, Note_on_c, 0, 78, 0
2, 6024, Note_on_c, 0, 81, 79
2, 6047, Note_on_c, 0, 81, 0
2, 6048, Note_on_c, 0, 79, 79
2, 6137, Note_on_c, 0, 79, 0
2, 6144, Note_on_c, 0, 79, 85
2, 6233, Note_on_c, 0, 79, 0
2, 6240, Note_on_c, 0, 79, 82
2, 6329, Note_on_c, 0, 79, 0
2, 6336, Note_on_c, 0, 78, 79
2, 6403, Note_on_c, 0, 78, 0
2, 6408, Note_on_c, 0, 81, 79
2, 6431, Note_on_c, 0, 81, 0
2, 6432, Note_on_c, 0, 84, 79
2, 6499, Note_on_c, 0, 84, 0
2, 6504, Note_on_c, 0, 81, 79
2, 6527, Note_on_c, 0, 81, 0
2, 6528, Note_on_c, 0, 78, 79
2, 6595, Note_on_c, 0, 78, 0
2, 6600, Note_on_c, 0, 81, 79
2, 6623, Note_on_c, 0, 81, 0
2, 6624, Note_on_c, 0, 79, 79
2, 6713, Note_on_c, 0, 79, 0
2, 6720, Note_on_c, 0, 79, 85
2, 6809, Note_on_c, 0, 79, 0
2, 6816, Note_on_c, 0, 79, 82
2, 6905, Note_on_c, 0, 79, 0
2, 6912, Note_on_c, 0, 79, 79
2, 7363, Note_on_c, 0, 79, 0
2, 7368, Note_on_c, 0, 81, 68
2, 7391, Note_on_c, 0, 81, 0
2, 7392, Note_on_c, 0, 77, 68
2, 7459, Note_on_c, 0, 77, 0
2, 7464, Note_on_c, 0, 79, 68
2, 7487, Note_on_c, 0, 79, 0
2, 7488, Note_on_c, 0, 76, 68
2, 7651, Note_on_c, 0, 76, 0
2, 7656, Note_on_c, 0, 77, 69
2, 7679, Note_on_c, 0, 77, 0
2, 7680, Note_on_c, 0, 74, 70
2, 7747, Note_on_c, 0, 74, 0
2, 7752, Note_on_c, 0, 76, 70
2, 7775, Note_on_c, 0, 76, 0
2, 7776, Note_on_c, 0, 72, 71
2, 7865, Note_on_c, 0, 72, 0
2, 7872, Note_on_c, 0, 79, 72
2, 7961, Note_on_c, 0, 79, 0
2, 7968, Note_on_c, 0, 79, 73
2, 8057, Note_on_c, 0, 79, 0
2, 8064, Note_on_c, 0, 79, 73
2, 8112, Note_on_c, 0, 79, 0
2, 8112, Note_on_c, 0, 77, 72
2, 8157, Note_on_c, 0, 77, 0
2, 8160, Note_on_c, 0, 77, 72
2, 8208, Note_on_c, 0, 77, 0
2, 8208, Note_on_c, 0, 76, 71
2, 8253, Note_on_c, 0, 76, 0
2, 8256, Note_on_c, 0, 76, 71
2, 8304, Note_on_c, 0, 76, 0
2, 8304, Note_on_c, 0, 74, 70
2, 8349, Note_on_c, 0, 74, 0
2, 8352, Note_on_c, 0, 74, 70
2, 8391, Note_on_c, 0, 74, 0
2, 8448, Note_on_c, 0, 71, 69
2, 8487, Note_on_c, 0, 71, 0
2, 8544, Note_on_c, 0, 67, 68
2, 8583, Note_on_c, 0, 67, 0
2, 8640, Note_on_c, 0, 76, 79
2, 8803, Note_on_c, 0, 76, 0
2, 8808, Note_on_c, 0, 77, 80
2, 8831, Note_on_c, 0, 77, 0
2, 8832, Note_on_c, 0, 74, 80
2, 8899, Note_on_c, 0, 74, 0
2, 8904, Note_on_c, 0, 76, 81
2, 8927, Note_on_c, 0, 76, 0
2, 8928, Note_on_c, 0, 72, 82
2, 9017, Note_on_c, 0, 72, 0
2, 9024, Note_on_c, 0, 84, 83
2, 9113, Note_on_c, 0, 84, 0
2, 9120, Note_on_c, 0, 84, 85
2, 9209, Note_on_c, 0, 84, 0
2, 9216, Note_on_c, 0, 80, 85
2, 9240, Note_on_c, 0, 80, 0
2, 9240, Note_on_c, 0, 81, 84
2, 9263, Note_on_c, 0, 81, 0
2, 9312, Note_on_c, 0, 76, 82
2, 9336, Note_on_c, 0, 76, 0
2, 9336, Note_on_c, 0, 77, 82
2, 9359, Note_on_c, 0, 77, 0
2, 9408, Note_on_c, 0, 74, 80
2, 9432, Note_on_c, 0, 74, 0
2, 9432, Note_on_c, 0, 71, 79
2, 9455, Note_on_c, 0, 71, 0
2, 9504, Note_on_c, 0, 72, 79
2, 9593, Note_on_c, 0, 72, 0
2, 9792, Note_on_c, 0, 77, 79
2, 9955, Note_on_c, 0, 77, 0
2, 9960, Note_on_c, 0, 79, 79
2, 9983, Note_on_c, 0, 79, 0
2, 9984, Note_on_c, 0, 76, 79
2, 10051, Note_on_c, 0, 76, 0
2, 10056, Note_on_c, 0, 77, 79
2, 10079, Note_on_c, 0, 77, 0
2, 10080, Note_on_c, 0, 74, 79
2, 10119, Note_on_c, 0, 74, 0
2, 10176, Note_on_c, 0, 71, 79
2, 10215, Note_on_c, 0, 71, 0
2, 10272, Note_on_c, 0, 67, 79
2, 10311, Note_on_c, 0, 67, 0
2, 10368, Note_on_c, 0, 84, 79
2, 10531, Note_on_c, 0, 84, 0
2, 10536, Note_on_c, 0, 86, 79
2, 10559, Note_on_c, 0, 86, 0
2, 10560, Note_on_c, 0, 83, 79
2, 10627, Note_on_c, 0, 83, 0
2, 10632, Note_on_c, 0, 84, 79
2, 10655, Note_on_c, 0, 84, 0
2, 10656, Note_on_c, 0, 81, 79
2, 10819, Note_on_c, 0, 81, 0
2, 10824, Note_on_c, 0, 83, 79
2, 10847, Note_on_c, 0, 83, 0
2, 10848, Note_on_c, 0, 79, 79
2, 10915, Note_on_c, 0, 79, 0
2, 10920, Note_on_c, 0, 81, 79
2, 10943, Note_on_c, 0, 81, 0
2, 10944, Note_on_c, 0, 78, 79
2, 11011, Note_on_c, 0, 78, 0
2, 11016, Note_on_c, 0, 81, 79
2, 11039, Note_on_c, 0, 81, 0
2, 11040, Note_on_c, 0, 84, 79
2, 11107, Note_on_c, 0, 84, 0
2, 11112, Note_on_c, 0, 81, 79
2, 11135, Note_on_c, 0, 81, 0
2, 11136, Note_on_c, 0, 78, 79
2, 11203, Note_on_c, 0, 78, 0
2, 11208, Note_on_c, 0, 81, 79
2, 11231, Note_on_c, 0, 81, 0
2, 11232, Note_on_c, 0, 79, 79
2, 11321, Note_on_c, 0, 79, 0
2, 11328, Note_on_c, 0, 79, 85
2, 11417, Note_on_c, 0, 79, 0
2, 11424, Note_on_c, 0, 79, 82
2, 11513, Note_on_c, 0, 79, 0
2, 11520, Note_on_c, 0, 78, 79
2, 11587, Note_on_c, 0, 78, 0
2, 11592, Note_on_c, 0, 81, 79
2, 11615, Note_on_c, 0, 81, 0
2, 11616, Note_on_c, 0, 84, 79
2, 11683, Note_on_c, 0, 84, 0
2, 11688, Note_on_c, 0, 81, 79
2, 11711, Note_on_c, 0, 81, 0
2, 11712, Note_on_c, 0, 78, 79
2, 11779, Note_on_c, 0, 78, 0
2, 11784, Note_on_c, 0, 81, 79
2, 11807, Note_on_c, 0, 81, 0
2, 11808, Note_on_c, 0, 79, 79
2, 11897, Note_on_c, 0, 79, 0
2, 11904, Note_on_c, 0, 79, 85
2, 11993, Note_on_c, 0, 79, 0
2, 12000, Note_on_c, 0, 79, 82
2, 12089, Note_on_c, 0, 79, 0
2, 12096, Note_on_c, 0, 79, 79
2, 12547, Note_on_c, 0, 79, 0
2, 12552, Note_on_c, 0, 81, 68
2, 12575, Note_on_c, 0, 81, 0
2, 12576, Note_on_c, 0, 77, 68
2, 12643, Note_on_c, 0, 77, 0
2, 12648, Note_on_c, 0, 79, 68
2, 12671, Note_on_c, 0, 79, 0
2, 12672, Note_on_c, 0, 76, 68
2, 12835, Note_on_c, 0, 76, 0
2, 12840, Note_on_c, 0, 77, 69
2, 12863, Note_on_c, 0, 77, 0
2, 12864, Note_on_c, 0, 74, 70
2, 12931, Note_on_c, 0, 74, 0
2, 12936, Note_on_c, 0, 76, 70
2, 12959, Note_on_c, 0, 76, 0
2, 12960, Note_on_c, 0, 72, 71
2, 13049, Note_on_c, 0, 72, 0
2, 13056, Note_on_c, 0, 79, 72
2, 13145, Note_on_c, 0, 79, 0
2, 13152, Note_on_c, 0, 79, 73
2, 13241, Note_on_c, 0, 79, 0
2, 13248, Note_on_c, 0, 79, 73
2, 13296, Note_on_c, 0, 79, 0
2, 13296, Note_on_c, 0, 77, 72
2, 13341, Note_on_c, 0, 77, 0
2, 13344, Note_on_c, 0, 77, 72
2, 13392, Note_on_c, 0, 77, 0
2, 13392, Note_on_c, 0, 76, 71
2, 13437, Note_on_c, 0, 76, 0
2, 13440, Note_on_c, 0, 76, 71
2, 13488, Note_on_c, 0, 76, 0
2, 13488, Note_on_c, 0, 74, 70
2, 13533, Note_on_c, 0, 74, 0
2, 13536, Note_on_c, 0, 74, 70
2, 13575, Note_on_c, 0, 74, 0
2, 13632, Note_on_c, 0, 71, 69
2, 13671, Note_on_c, 0, 71, 0
2, 13728, Note_on_c, 0, 67, 68
2, 13767, Note_on_c, 0, 67, 0
2, 13824, Note_on_c, 0, 76, 79
2, 13987, Note_on_c, 0, 76, 0
2, 13992, Note_on_c, 0, 77, 80
2, 14015, Note_on_c, 0, 77, 0
2, 14016, Note_on_c, 0, 74, 80
2, 14083, Note_on_c, 0, 74, 0
2, 14088, Note_on_c, 0, 76, 81
2, 14111, Note_on_c, 0, 76, 0
2, 14112, Note_on_c, 0, 72, 82
2, 14201, Note_on_c, 0, 72, 0
2, 14208, Note_on_c, 0, 84, 83
2, 14297, Note_on_c, 0, 84, 0
2, 14304, Note_on_c, 0, 84, 85
2, 14393, Note_on_c, 0, 84, 0
2, 14400, Note_on_c, 0, 80, 85
2, 14424, Note_on_c, 0, 80, 0
2, 14424, Note_on_c, 0, 81, 84
2, 14447, Note_on_c, 0, 81, 0
2, 14496, Note_on_c, 0, 76, 82
2, 14520, Note_on_c, 0, 76, 0
2, 14520, Note_on_c, 0, 77, 82
2, 14543, Note_on_c, 0, 77, 0
2, 14592, Note_on_c, 0, 74, 80
2, 14616, Note_on_c, 0, 74, 0
2, 14616, Note_on_c, 0, 71, 79
2, 14639, Note_on_c, 0, 71, 0
2, 14688, Note_on_c, 0, 72, 79
2, 14777, Note_on_c, 0, 72, 0
2, 14976, Note_on_c, 0, 76, 79
2, 15139, Note_on_c, 0, 76, 0
2, 15144, Note_on_c, 0, 79, 81
2, 15167, Note_on_c, 0, 79, 0
2, 15168, Note_on_c, 0, 78, 81
2, 15235, Note_on_c, 0, 78, 0
2, 15240, Note_on_c, 0, 81, 82
2, 15263, Note_on_c, 0, 81, 0
2, 15264, Note_on_c, 0, 79, 82
2, 15353, Note_on_c, 0, 79, 0
2, 15360, Note_on_c, 0, 86, 83
2, 15449, Note_on_c, 0, 86, 0
2, 15456, Note_on_c, 0, 86, 85
2, 15545, Note_on_c, 0, 86, 0
2, 15552, Note_on_c, 0, 86, 85
2, 15600, Note_on_c, 0, 86, 0
2, 15600, Note_on_c, 0, 84, 84
2, 15645, Note_on_c, 0, 84, 0
2, 15648, Note_on_c, 0, 84, 84
2, 15696, Note_on_c, 0, 84, 0
2, 15696, Note_on_c, 0, 83, 83
2, 15741, Note_on_c, 0, 83, 0
2, 15744, Note_on_c, 0, 83, 83
2, 15792, Note_on_c, 0, 83, 0
2, 15792, Note_on_c, 0, 81, 82
2, 15837, Note_on_c, 0, 81, 0
2, 15840, Note_on_c, 0, 81, 82
2, 15879, Note_on_c, 0, 81, 0
2, 15936, Note_on_c, 0, 78, 81
2, 15975, Note_on_c, 0, 78, 0
2, 16032, Note_on_c, 0, 74, 80
2, 16071, Note_on_c, 0, 74, 0
2, 16224, Note_on_c, 0, 83, 73
2, 16224, Note_on_c, 0, 79, 73
2, 16313, Note_on_c, 0, 83, 0
2, 16313, Note_on_c, 0, 79, 0
2, 16320, Note_on_c, 0, 83, 73
2, 16320, Note_on_c, 0, 79, 73
2, 16409, Note_on_c, 0, 83, 0
2, 16409, Note_on_c, 0, 79, 0
2, 16416, Note_on_c, 0, 83, 73
2, 16416, Note_on_c, 0, 79, 73
2, 16505, Note_on_c, 0, 83, 0
2, 16505, Note_on_c, 0, 79, 0
2, 16512, Note_on_c, 0, 83, 73
2, 16512, Note_on_c, 0, 79, 73
2, 16601, Note_on_c, 0, 83, 0
2, 16601, Note_on_c, 0, 79, 0
2, 16608, Note_on_c, 0, 83, 73
2, 16608, Note_on_c, 0, 79, 73
2, 16697, Note_on_c, 0, 83, 0
2, 16697, Note_on_c, 0, 79, 0
2, 16704, Note_on_c, 0, 83, 73
2, 16704, Note_on_c, 0, 79, 73
2, 16793, Note_on_c, 0, 83, 0
2, 16793, Note_on_c, 0, 79, 0
2, 16800, Note_on_c, 0, 84, 75
2, 16800, Note_on_c, 0, 81, 75
2, 16889, Note_on_c, 0, 84, 0
2, 16889, Note_on_c, 0, 81, 0
2, 16896, Note_on_c, 0, 86, 77
2, 16896, Note_on_c, 0, 83, 77
2, 16985, Note_on_c, 0, 86, 0
2, 16985, Note_on_c, 0, 83, 0
2, 16992, Note_on_c, 0, 84, 79
2, 17022, Note_on_c, 0, 84, 0
2, 17024, Note_on_c, 0, 81, 78
2, 17054, Note_on_c, 0, 81, 0
2, 17056, Note_on_c, 0, 76, 77
2, 17086, Note_on_c, 0, 76, 0
2, 17088, Note_on_c, 0, 83, 77
2, 17118, Note_on_c, 0, 83, 0
2, 17120, Note_on_c, 0, 79, 76
2, 17150, Note_on_c, 0, 79, 0
2, 17152, Note_on_c, 0, 74, 75
2, 17182, Note_on_c, 0, 74, 0
2, 17184, Note_on_c, 0, 81, 75
2, 17214, Note_on_c, 0, 81, 0
2, 17216, Note_on_c, 0, 78, 74
2, 17246, Note_on_c, 0, 78, 0
2, 17248, Note_on_c, 0, 72, 74
2, 17278, Note_on_c, 0, 72, 0
2, 17376, Note_on_c, 0, 83, 85
2, 17376, Note_on_c, 0, 79, 85
2, 17465, Note_on_c, 0, 83, 0
2, 17465, Note_on_c, 0, 79, 0
2, 17472, Note_on_c, 0, 83, 85
2, 17472, Note_on_c, 0, 79, 85
2, 17561, Note_on_c, 0, 83, 0
2, 17561, Note_on_c, 0, 79, 0
2, 17568, Note_on_c, 0, 83, 85
2, 17568, Note_on_c, 0, 79, 85
2, 17657, Note_on_c, 0, 83, 0
2, 17657, Note_on_c, 0, 79, 0
2, 17664, Note_on_c, 0, 83, 85
2, 17664, Note_on_c, 0, 79, 85
2, 17753, Note_on_c, 0, 83, 0
2, 17753, Note_on_c, 0, 79, 0
2, 17760, Note_on_c, 0, 83, 85
2, 17760, Note_on_c, 0, 79, 85
2, 17849, Note_on_c, 0, 83, 0
2, 17849, Note_on_c, 0, 79, 0
2, 17856, Note_on_c, 0, 83, 85
2, 17856, Note_on_c, 0, 79, 85
2, 17945, Note_on_c, 0, 83, 0
2, 17945, Note_on_c, 0, 79, 0
2, 17952, Note_on_c, 0, 84, 86
2, 17952, Note_on_c, 0, 81, 86
2, 18041, Note_on_c, 0, 84, 0
2, 18041, Note_on_c, 0, 81, 0
2, 18048, Note_on_c, 0, 86, 88
2, 18048, Note_on_c, 0, 83, 88
2, 18137, Note_on_c, 0, 86, 0
2, 18137, Note_on_c, 0, 83, 0
2, 18144, Note_on_c, 0, 84, 90
2, 18174, Note_on_c, 0, 84, 0
2, 18176, Note_on_c, 0, 81, 89
2, 18206, Note_on_c, 0, 81, 0
2, 18208, Note_on_c, 0, 76, 88
2, 18238, Note_on_c, 0, 76, 0
2, 18240, Note_on_c, 0, 83, 88
2, 18270, Note_on_c, 0, 83, 0
2, 18272, Note_on_c, 0, 79, 87
2, 18302, Note_on_c, 0, 79, 0
2, 18304, Note_on_c, 0, 74, 87
2, 18334, Note_on_c, 0, 74, 0
2, 18336, Note_on_c, 0, 81, 86
2, 18366, Note_on_c, 0, 81, 0
2, 18368, Note_on_c, 0, 78, 86
2, 18398, Note_on_c, 0, 78, 0
2, 18400, Note_on_c, 0, 72, 85
2, 18430, Note_on_c, 0, 72, 0
2, 18432, Note_on_c, 0, 79, 85
2, 18432, Note_on_c, 0, 71, 85
2, 18720, Note_on_c, 0, 71, 0
2, 18985, Note_on_c, 0, 79, 0
2, 19008, Note_on_c, 0, 79, 79
2, 19171, Note_on_c, 0, 79, 0
2, 19176, Note_on_c, 0, 81, 79
2, 19199, Note_on_c, 0, 81, 0
2, 19200, Note_on_c, 0, 77, 79
2, 19267, Note_on_c, 0, 77, 0
2, 19272, Note_on_c, 0, 79, 79
2, 19295, Note_on_c, 0, 79, 0
2, 19296, Note_on_c, 0, 76, 79
2, 19385, Note_on_c, 0, 76, 0
2, 19392, Note_on_c, 0, 76, 79
2, 19459, Note_on_c, 0, 76, 0
2, 19464, Note_on_c, 0, 77, 79
2, 19487, Note_on_c, 0, 77, 0
2, 19488, Note_on_c, 0, 74, 79
2, 19555, Note_on_c, 0, 74, 0
2, 19560, Note_on_c, 0, 76, 79
2, 19583, Note_on_c, 0, 76, 0
2, 19584, Note_on_c, 0, 73, 79
2, 19673, Note_on_c, 0, 73, 0
2, 19680, Note_on_c, 0, 73, 80
2, 19769, Note_on_c, 0, 73, 0
2, 19776, Note_on_c, 0, 74, 82
2, 19865, Note_on_c, 0, 74, 0
2, 19872, Note_on_c, 0, 76, 83
2, 19961, Note_on_c, 0, 76, 0
2, 19968, Note_on_c, 0, 77, 85
2, 20035, Note_on_c, 0, 77, 0
2, 20040, Note_on_c, 0, 79, 83
2, 20063, Note_on_c, 0, 79, 0
2, 20064, Note_on_c, 0, 76, 83
2, 20131, Note_on_c, 0, 76, 0
2, 20136, Note_on_c, 0, 77, 81
2, 20159, Note_on_c, 0, 77, 0
2, 20160, Note_on_c, 0, 74, 81
2, 20249, Note_on_c, 0, 74, 0
2, 20256, Note_on_c, 0, 74, 79
2, 20323, Note_on_c, 0, 74, 0
2, 20328, Note_on_c, 0, 76, 79
2, 20351, Note_on_c, 0, 76, 0
2, 20352, Note_on_c, 0, 72, 79
2, 20419, Note_on_c, 0, 72, 0
2, 20424, Note_on_c, 0, 74, 79
2, 20447, Note_on_c, 0, 74, 0
2, 20448, Note_on_c, 0, 71, 79
2, 20515, Note_on_c, 0, 71, 0
2, 20520, Note_on_c, 0, 74, 79
2, 20543, Note_on_c, 0, 74, 0
2, 20544, Note_on_c, 0, 72, 79
2, 20611, Note_on_c, 0, 72, 0
2, 20616, Note_on_c, 0, 76, 79
2, 20639, Note_on_c, 0, 76, 0
2, 20640, Note_on_c, 0, 74, 79
2, 20707, Note_on_c, 0, 74, 0
2, 20712, Note_on_c, 0, 77, 79
2, 20735, Note_on_c, 0, 77, 0
2, 20736, Note_on_c, 0, 76, 79
2, 20899, Note_on_c, 0, 76, 0
2, 20904, Note_on_c, 0, 77, 81
2, 20927, Note_on_c, 0, 77, 0
2, 20928, Note_on_c, 0, 74, 81
2, 20995, Note_on_c, 0, 74, 0
2, 21000, Note_on_c, 0, 76, 82
2, 21023, Note_on_c, 0, 76, 0
2, 21024, Note_on_c, 0, 72, 82
2, 21113, Note_on_c, 0, 72, 0
2, 21120, Note_on_c, 0, 79, 83
2, 21209, Note_on_c, 0, 79, 0
2, 21216, Note_on_c, 0, 79, 85
2, 21305, Note_on_c, 0, 79, 0
2, 21312, Note_on_c, 0, 79, 85
2, 21360, Note_on_c, 0, 79, 0
2, 21360, Note_on_c, 0, 77, 84
2, 21405, Note_on_c, 0, 77, 0
2, 21408, Note_on_c, 0, 77, 84
2, 21456, Note_on_c, 0, 77, 0
2, 21456, Note_on_c, 0, 76, 83
2, 21501, Note_on_c, 0, 76, 0
2, 21504, Note_on_c, 0, 76, 83
2, 21552, Note_on_c, 0, 76, 0
2, 21552, Note_on_c, 0, 74, 82
2, 21597, Note_on_c, 0, 74, 0
2, 21600, Note_on_c, 0, 74, 82
2, 21639, Note_on_c, 0, 74, 0
2, 21696, Note_on_c, 0, 71, 81
2, 21735, Note_on_c, 0, 71, 0
2, 21792, Note_on_c, 0, 67, 80
2, 21831, Note_on_c, 0, 67, 0
2, 21888, Note_on_c, 0, 76, 79
2, 22051, Note_on_c, 0, 76, 0
2, 22056, Note_on_c, 0, 77, 81
2, 22079, Note_on_c, 0, 77, 0
2, 22080, Note_on_c, 0, 74, 81
2, 22147, Note_on_c, 0, 74, 0
2, 22152, Note_on_c, 0, 76, 82
2, 22175, Note_on_c, 0, 76, 0
2, 22176, Note_on_c, 0, 72, 82
2, 22265, Note_on_c, 0, 72, 0
2, 22272, Note_on_c, 0, 84, 83
2, 22361, Note_on_c, 0, 84, 0
2, 22368, Note_on_c, 0, 84, 85
2, 22457, Note_on_c, 0, 84, 0
2, 22464, Note_on_c, 0, 80, 85
2, 22488, Note_on_c, 0, 80, 0
2, 22488, Note_on_c, 0, 81, 84
2, 22511, Note_on_c, 0, 81, 0
2, 22560, Note_on_c, 0, 76, 82
2, 22584, Note_on_c, 0, 76, 0
2, 22584, Note_on_c, 0, 77, 82
2, 22607, Note_on_c, 0, 77, 0
2, 22656, Note_on_c, 0, 74, 80
2, 22680, Note_on_c, 0, 74, 0
2, 22680, Note_on_c, 0, 71, 79
2, 22703, Note_on_c, 0, 71, 0
2, 22752, Note_on_c, 0, 72, 79
2, 22841, Note_on_c, 0, 72, 0
2, 23040, Note_on_c, 0, 76, 79
2, 23203, Note_on_c, 0, 76, 0
2, 23208, Note_on_c, 0, 79, 81
2, 23231, Note_on_c, 0, 79, 0
2, 23232, Note_on_c, 0, 78, 81
2, 23299, Note_on_c, 0, 78, 0
2, 23304, Note_on_c, 0, 81, 82
2, 23327, Note_on_c, 0, 81, 0
2, 23328, Note_on_c, 0, 79, 82
2, 23417, Note_on_c, 0, 79, 0
2, 23424, Note_on_c, 0, 86, 83
2, 23513, Note_on_c, 0, 86, 0
2, 23520, Note_on_c, 0, 86, 85
2, 23609, Note_on_c, 0, 86, 0
2, 23616, Note_on_c, 0, 86, 85
2, 23664, Note_on_c, 0, 86, 0
2, 23664, Note_on_c, 0, 84, 84
2, 23709, Note_on_c, 0, 84, 0
2, 23712, Note_on_c, 0, 84, 84
2, 23760, Note_on_c, 0, 84, 0
2, 23760, Note_on_c, 0, 83, 83
2, 23805, Note_on_c, 0, 83, 0
2, 23808, Note_on_c, 0, 83, 83
2, 23856, Note_on_c, 0, 83, 0
2, 23856, Note_on_c, 0, 81, 82
2, 23901, Note_on_c, 0, 81, 0
2, 23904, Note_on_c, 0, 81, 82
2, 23943, Note_on_c, 0, 81, 0
2, 24000, Note_on_c, 0, 78, 81
2, 24039, Note_on_c, 0, 78, 0
2, 24096, Note_on_c, 0, 74, 80
2, 24135, Note_on_c, 0, 74, 0
2, 24288, Note_on_c, 0, 83, 73
2, 24288, Note_on_c, 0, 79, 73
2, 24377, Note_on_c, 0, 83, 0
2, 24377, Note_on_c, 0, 79, 0
2, 24384, Note_on_c, 0, 83, 73
2, 24384, Note_on_c, 0, 79, 73
2, 24473, Note_on_c, 0, 83, 0
2, 24473, Note_on_c, 0, 79, 0
2, 24480, Note_on_c, 0, 83, 73
2, 24480, Note_on_c, 0, 79, 73
2, 24569, Note_on_c, 0, 83, 0
2, 24569, Note_on_c, 0, 79, 0
2, 24576, Note_on_c, 0, 83, 73
2, 24576, Note_on_c, 0, 79, 73
2, 24665, Note_on_c, 0, 83, 0
2, 24665, Note_on_c, 0, 79, 0
2, 24672, Note_on_c, 0, 83, 73
2, 24672, Note_on_c, 0, 79, 73
2, 24761, Note_on_c, 0, 83, 0
2, 24761, Note_on_c, 0, 79, 0
2, 24768, Note_on_c, 0, 83, 73
2, 24768, Note_on_c, 0, 79, 73
2, 24857, Note_on_c, 0, 83, 0
2, 24857, Note_on_c, 0, 79, 0
2, 24864, Note_on_c, 0, 84, 75
2, 24864, Note_on_c, 0, 81, 75
2, 24953, Note_on_c, 0, 84, 0
2, 24953, Note_on_c, 0, 81, 0
2, 24960, Note_on_c, 0, 86, 77
2, 24960, Note_on_c, 0, 83, 77
2, 25049, Note_on_c, 0, 86, 0
2, 25049, Note_on_c, 0, 83, 0
2, 25056, Note_on_c, 0, 84, 79
2, 25086, Note_on_c, 0, 84, 0
2, 25088, Note_on_c, 0, 81, 78
2, 25118, Note_on_c, 0, 81, 0
2, 25120, Note_on_c, 0, 76, 77
2, 25150, Note_on_c, 0, 76, 0
2, 25152, Note_on_c, 0, 83, 77
2, 25182, Note_on_c, 0, 83, 0
2, 25184, Note_on_c, 0, 79, 76
2, 25214, Note_on_c, 0, 79, 0
2, 25216, Note_on_c, 0, 74, 75
2, 25246, Note_on_c, 0, 74, 0
2, 25248, Note_on_c, 0, 81, 75
2, 25278, Note_on_c, 0, 81, 0
2, 25280, Note_on_c, 0, 78, 74
2, 25310, Note_on_c, 0, 78, 0
2, 25312, Note_on_c, 0, 72, 74
2, 25342, Note_on_c, 0, 72, 0
2, 25440, Note_on_c, 0, 83, 85
2, 25440, Note_on_c, 0, 79, 85
2, 25529, Note_on_c, 0, 83, 0
2, 25529, Note_on_c, 0, 79, 0
2, 25536, Note_on_c, 0, 83, 85
2, 25536, Note_on_c, 0, 79, 85
2, 25625, Note_on_c, 0, 83, 0
2, 25625, Note_on_c, 0, 79, 0
2, 25632, Note_on_c, 0, 83, 85
2, 25632, Note_on_c, 0, 79, 85
2, 25721, Note_on_c, 0, 83, 0
2, 25721, Note_on_c, 0, 79, 0
2, 25728, Note_on_c, 0, 83, 85
2, 25728, Note_on_c, 0, 79, 85
2, 25817, Note_on_c, 0, 83, 0
2, 25817, Note_on_c, 0, 79, 0
2, 25824, Note_on_c, 0, 83, 85
2, 25824, Note_on_c, 0, 79, 85
2, 25913, Note_on_c, 0, 83, 0
2, 25913, Note_on_c, 0, 79, 0
2, 25920, Note_on_c, 0, 83, 85
2, 25920, Note_on_c, 0, 79, 85
2, 26009, Note_on_c, 0, 83, 0
2, 26009, Note_on_c, 0, 79, 0
2, 26016, Note_on_c, 0, 84, 86
2, 26016, Note_on_c, 0, 81, 86
2, 26105, Note_on_c, 0, 84, 0
2, 26105, Note_on_c, 0, 81, 0
2, 26112, Note_on_c, 0, 86, 88
2, 26112, Note_on_c, 0, 83, 88
2, 26201, Note_on_c, 0, 86, 0
2, 26201, Note_on_c, 0, 83, 0
2, 26208, Note_on_c, 0, 84, 90
2, 26238, Note_on_c, 0, 84, 0
2, 26240, Note_on_c, 0, 81, 89
2, 26270, Note_on_c, 0, 81, 0
2, 26272, Note_on_c, 0, 76, 88
2, 26302, Note_on_c, 0, 76, 0
2, 26304, Note_on_c, 0, 83, 88
2, 26334, Note_on_c, 0, 83, 0
2, 26336, Note_on_c, 0, 79, 87
2, 26366, Note_on_c, 0, 79, 0
2, 26368, Note_on_c, 0, 74, 87
2, 26398, Note_on_c, 0, 74, 0
2, 26400, Note_on_c, 0, 81, 86
2, 26430, Note_on_c, 0, 81, 0
2, 26432, Note_on_c, 0, 78, 86
2, 26462, Note_on_c, 0, 78, 0
2, 26464, Note_on_c, 0, 72, 85
2, 26494, Note_on_c, 0, 72, 0
2, 26496, Note_on_c, 0, 79, 85
2, 26496, Note_on_c, 0, 71, 85
2, 26784, Note_on_c, 0, 71, 0
2, 27049, Note_on_c, 0, 79, 0
2, 27072, Note_on_c, 0, 79, 79
2, 27235, Note_on_c, 0, 79, 0
2, 27240, Note_on_c, 0, 81, 79
2, 27263, Note_on_c, 0, 81, 0
2, 27264, Note_on_c, 0, 77, 79
2, 27331, Note_on_c, 0, 77, 0
2, 27336, Note_on_c, 0, 79, 79
2, 27359, Note_on_c, 0, 79, 0
2, 27360, Note_on_c, 0, 76, 79
2, 27449, Note_on_c, 0, 76, 0
2, 27456, Note_on_c, 0, 76, 79
2, 27523, Note_on_c, 0, 76, 0
2, 27528, Note_on_c, 0, 77, 79
2, 27551, Note_on_c, 0, 77, 0
2, 27552, Note_on_c, 0, 74, 79
2, 27619, Note_on_c, 0, 74, 0
2, 27624, Note_on_c, 0, 76, 79
2, 27647, Note_on_c, 0, 76, 0
2, 27648, Note_on_c, 0, 73, 79
2, 27737, Note_on_c, 0, 73, 0
2, 27744, Note_on_c, 0, 73, 80
2, 27833, Note_on_c, 0, 73, 0
2, 27840, Note_on_c, 0, 74, 82
2, 27929, Note_on_c, 0, 74, 0
2, 27936, Note_on_c, 0, 76, 83
2, 28025, Note_on_c, 0, 76, 0
2, 28032, Note_on_c, 0, 77, 85
2, 28099, Note_on_c, 0, 77, 0
2, 28104, Note_on_c, 0, 79, 83
2, 28127, Note_on_c, 0, 79, 0
2, 28128, Note_on_c, 0, 76, 83
2, 28195, Note_on_c, 0, 76, 0
2, 28200, Note_on_c, 0, 77, 81
2, 28223, Note_on_c, 0, 77, 0
2, 28224, Note_on_c, 0, 74, 81
2, 28313, Note_on_c, 0, 74, 0
2, 28320, Note_on_c, 0, 74, 79
2, 28387, Note_on_c, 0, 74, 0
2, 28392, Note_on_c, 0, 76, 79
2, 28415, Note_on_c, 0, 76, 0
2, 28416, Note_on_c, 0, 72, 79
2, 28483, Note_on_c, 0, 72, 0
2, 28488, Note_on_c, 0, 74, 79
2, 28511, Note_on_c, 0, 74, 0
2, 28512, Note_on_c, 0, 71, 79
2, 28579, Note_on_c, 0, 71, 0
2, 28584, Note_on_c, 0, 74, 79
2, 28607, Note_on_c, 0, 74, 0
2, 28608, Note_on_c, 0, 72, 79
2, 28675, Note_on_c, 0, 72, 0
2, 28680, Note_on_c, 0, 76, 79
2, 28703, Note_on_c, 0, 76, 0
2, 28704, Note_on_c, 0, 74, 79
2, 28771, Note_on_c, 0, 74, 0
2, 28776, Note_on_c, 0, 77, 79
2, 28799, Note_on_c, 0, 77, 0
2, 28800, Note_on_c, 0, 76, 79
2, 28963, Note_on_c, 0, 76, 0
2, 28968, Note_on_c, 0, 77, 81
2, 28991, Note_on_c, 0, 77, 0
2, 28992, Note_on_c, 0, 74, 81
2, 29059, Note_on_c, 0, 74, 0
2, 29064, Note_on_c, 0, 76, 82
2, 29087, Note_on_c, 0, 76, 0
2, 29088, Note_on_c, 0, 72, 82
2, 29177, Note_on_c, 0, 72, 0
2, 29184, Note_on_c, 0, 79, 83
2, 29273, Note_on_c, 0, 79, 0
2, 29280, Note_on_c, 0, 79, 85
2, 29369, Note_on_c, 0, 79, 0
2, 29376, Note_on_c, 0, 79, 85
2, 29424, Note_on_c, 0, 79, 0
2, 29424, Note_on_c, 0, 77, 84
2, 29469, Note_on_c, 0, 77, 0
2, 29472, Note_on_c, 0, 77, 84
2, 29520, Note_on_c, 0, 77, 0
2, 29520, Note_on_c, 0, 76, 83
2, 29565, Note_on_c, 0, 76, 0
2, 29568, Note_on_c, 0, 76, 83
2, 29616, Note_on_c, 0, 76, 0
2, 29616, Note_on_c, 0, 74, 82
2, 29661, Note_on_c, 0, 74, 0
2, 29664, Note_on_c, 0, 74, 82
2, 29703, Note_on_c, 0, 74, 0
2, 29760, Note_on_c, 0, 71, 81
2, 29799, Note_on_c, 0, 71, 0
2, 29856, Note_on_c, 0, 67, 80
2, 29895, Note_on_c, 0, 67, 0
2, 29952, Note_on_c, 0, 76, 79
2, 30115, Note_on_c, 0, 76, 0
2, 30120, Note_on_c, 0, 77, 81
2, 30143, Note_on_c, 0, 77, 0
2, 30144, Note_on_c, 0, 74, 81
2, 30211, Note_on_c, 0, 74, 0
2, 30216, Note_on_c, 0, 76, 82
2, 30239, Note_on_c, 0, 76, 0
2, 30240, Note_on_c, 0, 72, 82
2, 30329, Note_on_c, 0, 72, 0
2, 30336, Note_on_c, 0, 84, 83
2, 30425, Note_on_c, 0, 84, 0
2, 30432, Note_on_c, 0, 84, 85
2, 30521, Note_on_c, 0, 84, 0
2, 30528, Note_on_c, 0, 80, 85
2, 30552, Note_on_c, 0, 80, 0
2, 30552, Note_on_c, 0, 81, 84
2, 30575, Note_on_c, 0, 81, 0
2, 30624, Note_on_c, 0, 76, 82
2, 30648, Note_on_c, 0, 76, 0
2, 30648, Note_on_c, 0, 77, 82
2, 30671, Note_on_c, 0, 77, 0
2, 30720, Note_on_c, 0, 74, 80
2, 30744, Note_on_c, 0, 74, 0
2, 30744, Note_on_c, 0, 71, 79
2, 30767, Note_on_c, 0, 71, 0
2, 30816, Note_on_c, 0, 72, 79
2, 30905, Note_on_c, 0, 72, 0
2, 31104, Note_on_c, 0, 72, 79
2, 31193, Note_on_c, 0, 72, 0
2, 31200, Note_on_c, 0, 71, 79
2, 31289, Note_on_c, 0, 71, 0
2, 31296, Note_on_c, 0, 72, 79
2, 31385, Note_on_c, 0, 72, 0
2, 31392, Note_on_c, 0, 74, 79
2, 31481, Note_on_c, 0, 74, 0
2, 31488, Note_on_c, 0, 75, 79
2, 31577, Note_on_c, 0, 75, 0
2, 31584, Note_on_c, 0, 77, 79
2, 31673, Note_on_c, 0, 77, 0
2, 31680, Note_on_c, 0, 75, 79
2, 31769, Note_on_c, 0, 75, 0
2, 31776, Note_on_c, 0, 74, 79
2, 31865, Note_on_c, 0, 74, 0
2, 31872, Note_on_c, 0, 79, 79
2, 31961, Note_on_c, 0, 79, 0
2, 31968, Note_on_c, 0, 77, 79
2, 32057, Note_on_c, 0, 77, 0
2, 32064, Note_on_c, 0, 75, 79
2, 32153, Note_on_c, 0, 75, 0
2, 32160, Note_on_c, 0, 74, 79
2, 32249, Note_on_c, 0, 74, 0
2, 32256, Note_on_c, 0, 72, 79
2, 32301, Note_on_c, 0, 72, 0
2, 32304, Note_on_c, 0, 77, 80
2, 32349, Note_on_c, 0, 77, 0
2, 32352, Note_on_c, 0, 76, 81
2, 32397, Note_on_c, 0, 76, 0
2, 32400, Note_on_c, 0, 79, 82
2, 32445, Note_on_c, 0, 79, 0
2, 32448, Note_on_c, 0, 77, 83
2, 32493, Note_on_c, 0, 77, 0
2, 32496, Note_on_c, 0, 84, 84
2, 32541, Note_on_c, 0, 84, 0
2, 32544, Note_on_c, 0, 82, 85
2, 32589, Note_on_c, 0, 82, 0
2, 32592, Note_on_c, 0, 74, 85
2, 32637, Note_on_c, 0, 74, 0
2, 32640, Note_on_c, 0, 75, 85
2, 32685, Note_on_c, 0, 75, 0
2, 32688, Note_on_c, 0, 74, 85
2, 32733, Note_on_c, 0, 74, 0
2, 32736, Note_on_c, 0, 75, 85
2, 32781, Note_on_c, 0, 75, 0
2, 32784, Note_on_c, 0, 82, 85
2, 32829, Note_on_c, 0, 82, 0
2, 32832, Note_on_c, 0, 72, 85
2, 32877, Note_on_c, 0, 72, 0
2, 32880, Note_on_c, 0, 80, 84
2, 32925, Note_on_c, 0, 80, 0
2, 32928, Note_on_c, 0, 79, 83
2, 32973, Note_on_c, 0, 79, 0
2, 32976, Note_on_c, 0, 75, 82
2, 33021, Note_on_c, 0, 75, 0
2, 33024, Note_on_c, 0, 77, 81
2, 33069, Note_on_c, 0, 77, 0
2, 33072, Note_on_c, 0, 74, 80
2, 33117, Note_on_c, 0, 74, 0
2, 33120, Note_on_c, 0, 75, 79
2, 33209, Note_on_c, 0, 75, 0
2, 33408, Note_on_c, 0, 72, 79
2, 33497, Note_on_c, 0, 72, 0
2, 33504, Note_on_c, 0, 71, 79
2, 33593, Note_on_c, 0, 71, 0
2, 33600, Note_on_c, 0, 72, 79
2, 33689, Note_on_c, 0, 72, 0
2, 33696, Note_on_c, 0, 74, 79
2, 33785, Note_on_c, 0, 74, 0
2, 33792, Note_on_c, 0, 75, 79
2, 33881, Note_on_c, 0, 75, 0
2, 33888, Note_on_c, 0, 77, 79
2, 33977, Note_on_c, 0, 77, 0
2, 33984, Note_on_c, 0, 75, 79
2, 34073, Note_on_c, 0, 75, 0
2, 34080, Note_on_c, 0, 74, 79
2, 34169, Note_on_c, 0, 74, 0
2, 34176, Note_on_c, 0, 79, 79
2, 34265, Note_on_c, 0, 79, 0
2, 34272, Note_on_c, 0, 77, 79
2, 34361, Note_on_c, 0, 77, 0
2, 34368, Note_on_c, 0, 75, 79
2, 34457, Note_on_c, 0, 75, 0
2, 34464, Note_on_c, 0, 74, 79
2, 34553, Note_on_c, 0, 74, 0
2, 34560, Note_on_c, 0, 72, 79
2, 34605, Note_on_c, 0, 72, 0
2, 34608, Note_on_c, 0, 77, 80
2, 34653, Note_on_c, 0, 77, 0
2, 34656, Note_on_c, 0, 76, 81
2, 34701, Note_on_c, 0, 76, 0
2, 34704, Note_on_c, 0, 79, 82
2, 34749, Note_on_c, 0, 79, 0
2, 34752, Note_on_c, 0, 77, 83
2, 34797, Note_on_c, 0, 77, 0
2, 34800, Note_on_c, 0, 84, 84
2, 34845, Note_on_c, 0, 84, 0
2, 34848, Note_on_c, 0, 82, 85
2, 34893, Note_on_c, 0, 82, 0
2, 34896, Note_on_c, 0, 74, 85
2, 34941, Note_on_c, 0, 74, 0
2, 34944, Note_on_c, 0, 75, 85
2, 34989, Note_on_c, 0, 75, 0
2, 34992, Note_on_c, 0, 74, 85
2, 35037, Note_on_c, 0, 74, 0
2, 35040, Note_on_c, 0, 75, 85
2, 35085, Note_on_c, 0, 75, 0
2, 35088, Note_on_c, 0, 82, 85
2, 35133, Note_on_c, 0, 82, 0
2, 35136, Note_on_c, 0, 72, 85
2, 35181, Note_on_c, 0, 72, 0
2, 35184, Note_on_c, 0, 80, 84
2, 35229, Note_on_c, 0, 80, 0
2, 35232, Note_on_c, 0, 79, 83
2, 35277, Note_on_c, 0, 79, 0
2, 35280, Note_on_c, 0, 75, 82
2, 35325, Note_on_c, 0, 75, 0
2, 35328, Note_on_c, 0, 77, 81
2, 35373, Note_on_c, 0, 77, 0
2, 35376, Note_on_c, 0, 74, 80
2, 35421, Note_on_c, 0, 74, 0
2, 35424, Note_on_c, 0, 75, 79
2, 35513, Note_on_c, 0, 75, 0
2, 35712, Note_on_c, 0, 79, 73
2, 35757, Note_on_c, 0, 79, 0
2, 35760, Note_on_c, 0, 78, 73
2, 35805, Note_on_c, 0, 78, 0
2, 35808, Note_on_c, 0, 79, 73
2, 35853, Note_on_c, 0, 79, 0
2, 35856, Note_on_c, 0, 75, 73
2, 35901, Note_on_c, 0, 75, 0
2, 35904, Note_on_c, 0, 74, 73
2, 35949, Note_on_c, 0, 74, 0
2, 35952, Note_on_c, 0, 72, 73
2, 35997, Note_on_c, 0, 72, 0
2, 36000, Note_on_c, 0, 71, 73
2, 36265, Note_on_c, 0, 71, 0
2, 36288, Note_on_c, 0, 79, 73
2, 36333, Note_on_c, 0, 79, 0
2, 36336, Note_on_c, 0, 78, 73
2, 36381, Note_on_c, 0, 78, 0
2, 36384, Note_on_c, 0, 79, 73
2, 36429, Note_on_c, 0, 79, 0
2, 36432, Note_on_c, 0, 75, 73
2, 36477, Note_on_c, 0, 75, 0
2, 36480, Note_on_c, 0, 74, 73
2, 36525, Note_on_c, 0, 74, 0
2, 36528, Note_on_c, 0, 72, 73
2, 36573, Note_on_c, 0, 72, 0
2, 36576, Note_on_c, 0, 71, 73
2, 36841, Note_on_c, 0, 71, 0
2, 36864, Note_on_c, 0, 72, 73
2, 37129, Note_on_c, 0, 72, 0
2, 37152, Note_on_c, 0, 74, 73
2, 37197, Note_on_c, 0, 74, 0
2, 37200, Note_on_c, 0, 75, 73
2, 37245, Note_on_c, 0, 75, 0
2, 37248, Note_on_c, 0, 77, 73
2, 37293, Note_on_c, 0, 77, 0
2, 37296, Note_on_c, 0, 74, 73
2, 37341, Note_on_c, 0, 74, 0
2, 37344, Note_on_c, 0, 75, 73
2, 37389, Note_on_c, 0, 75, 0
2, 37392, Note_on_c, 0, 72, 73
2, 37437, Note_on_c, 0, 72, 0
2, 37440, Note_on_c, 0, 79, 73
2, 37891, Note_on_c, 0, 79, 0
2, 37896, Note_on_c, 0, 81, 79
2, 37919, Note_on_c, 0, 81, 0
2, 37920, Note_on_c, 0, 77, 79
2, 37987, Note_on_c, 0, 77, 0
2, 37992, Note_on_c, 0, 79, 79
2, 38015, Note_on_c, 0, 79, 0
2, 38016, Note_on_c, 0, 76, 79
2, 38179, Note_on_c, 0, 76, 0
2, 38184, Note_on_c, 0, 77, 81
2, 38207, Note_on_c, 0, 77, 0
2, 38208, Note_on_c, 0, 74, 81
2, 38275, Note_on_c, 0, 74, 0
2, 38280, Note_on_c, 0, 76, 82
2, 38303, Note_on_c, 0, 76, 0
2, 38304, Note_on_c, 0, 72, 82
2, 38393, Note_on_c, 0, 72, 0
2, 38400, Note_on_c, 0, 79, 83
2, 38489, Note_on_c, 0, 79, 0
2, 38496, Note_on_c, 0, 79, 85
2, 38585, Note_on_c, 0, 79, 0
2, 38592, Note_on_c, 0, 79, 85
2, 38640, Note_on_c, 0, 79, 0
2, 38640, Note_on_c, 0, 77, 85
2, 38685, Note_on_c, 0, 77, 0
2, 38688, Note_on_c, 0, 77, 84
2, 38736, Note_on_c, 0, 77, 0
2, 38736, Note_on_c, 0, 76, 83
2, 38781, Note_on_c, 0, 76, 0
2, 38784, Note_on_c, 0, 76, 83
2, 38832, Note_on_c, 0, 76, 0
2, 38832, Note_on_c, 0, 74, 82
2, 38877, Note_on_c, 0, 74, 0
2, 38880, Note_on_c, 0, 74, 82
2, 38919, Note_on_c, 0, 74, 0
2, 38976, Note_on_c, 0, 71, 81
2, 39015, Note_on_c, 0, 71, 0
2, 39072, Note_on_c, 0, 67, 80
2, 39111, Note_on_c, 0, 67, 0
2, 39168, Note_on_c, 0, 76, 79
2, 39331, Note_on_c, 0, 76, 0
2, 39336, Note_on_c, 0, 77, 81
2, 39359, Note_on_c, 0, 77, 0
2, 39360, Note_on_c, 0, 74, 81
2, 39427, Note_on_c, 0, 74, 0
2, 39432, Note_on_c, 0, 76, 82
2, 39455, Note_on_c, 0, 76, 0
2, 39456, Note_on_c, 0, 72, 82
2, 39545, Note_on_c, 0, 72, 0
2, 39552, Note_on_c, 0, 84, 83
2, 39641, Note_on_c, 0, 84, 0
2, 39648, Note_on_c, 0, 84, 85
2, 39737, Note_on_c, 0, 84, 0
2, 39744, Note_on_c, 0, 80, 85
2, 39768, Note_on_c, 0, 80, 0
2, 39768, Note_on_c, 0, 81, 84
2, 39791, Note_on_c, 0, 81, 0
2, 39840, Note_on_c, 0, 76, 82
2, 39864, Note_on_c, 0, 76, 0
2, 39864, Note_on_c, 0, 77, 82
2, 39887, Note_on_c, 0, 77, 0
2, 39936, Note_on_c, 0, 74, 80
2, 39960, Note_on_c, 0, 74, 0
2, 39960, Note_on_c, 0, 71, 79
2, 39983, Note_on_c, 0, 71, 0
2, 40032, Note_on_c, 0, 72, 79
2, 40121, Note_on_c, 0, 72, 0
2, 40320, Note_on_c, 0, 77, 79
2, 40483, Note_on_c, 0, 77, 0
2, 40488, Note_on_c, 0, 79, 79
2, 40511, Note_on_c, 0, 79, 0
2, 40512, Note_on_c, 0, 76, 79
2, 40579, Note_on_c, 0, 76, 0
2, 40584, Note_on_c, 0, 77, 79
2, 40607, Note_on_c, 0, 77, 0
2, 40608, Note_on_c, 0, 74, 79
2, 40647, Note_on_c, 0, 74, 0
2, 40704, Note_on_c, 0, 71, 79
2, 40743, Note_on_c, 0, 71, 0
2, 40800, Note_on_c, 0, 67, 79
2, 40839, Note_on_c, 0, 67, 0
2, 40896, Note_on_c, 0, 84, 79
2, 41059, Note_on_c, 0, 84, 0
2, 41064, Note_on_c, 0, 86, 79
2, 41087, Note_on_c, 0, 86, 0
2, 41088, Note_on_c, 0, 83, 79
2, 41155, Note_on_c, 0, 83, 0
2, 41160, Note_on_c, 0, 84, 79
2, 41183, Note_on_c, 0, 84, 0
2, 41184, Note_on_c, 0, 81, 79
2, 41347, Note_on_c, 0, 81, 0
2, 41352, Note_on_c, 0, 83, 79
2, 41375, Note_on_c, 0, 83, 0
2, 41376, Note_on_c, 0, 79, 79
2, 41443, Note_on_c, 0, 79, 0
2, 41448, Note_on_c, 0, 81, 79
2, 41471, Note_on_c, 0, 81, 0
2, 41472, Note_on_c, 0, 78, 79
2, 41539, Note_on_c, 0, 78, 0
2, 41544, Note_on_c, 0, 81, 79
2, 41567, Note_on_c, 0, 81, 0
2, 41568, Note_on_c, 0, 84, 79
2, 41635, Note_on_c, 0, 84, 0
2, 41640, Note_on_c, 0, 81, 79
2, 41663, Note_on_c, 0, 81, 0
2, 41664, Note_on_c, 0, 78, 79
2, 41731, Note_on_c, 0, 78, 0
2, 41736, Note_on_c, 0, 81, 79
2, 41759, Note_on_c, 0, 81, 0
2, 41760, Note_on_c, 0, 79, 79
2, 41849, Note_on_c, 0, 79, 0
2, 41856, Note_on_c, 0, 79, 79
2, 41945, Note_on_c, 0, 79, 0
2, 41952, Note_on_c, 0, 79, 79
2, 42041, Note_on_c, 0, 79, 0
2, 42048, Note_on_c, 0, 78, 79
2, 42115, Note_on_c, 0, 78, 0
2, 42120, Note_on_c, 0, 81, 79
2, 42143, Note_on_c, 0, 81, 0
2, 42144, Note_on_c, 0, 84, 79
2, 42211, Note_on_c, 0, 84, 0
2, 42216, Note_on_c, 0, 81, 79
2, 42239, Note_on_c, 0, 81, 0
2, 42240, Note_on_c, 0, 78, 79
2, 42307, Note_on_c, 0, 78, 0
2, 42312, Note_on_c, 0, 81, 79
2, 42335, Note_on_c, 0, 81, 0
2, 42336, Note_on_c, 0, 79, 79
2, 42425, Note_on_c, 0, 79, 0
2, 42432, Note_on_c, 0, 79, 79
2, 42521, Note_on_c, 0, 79, 0
2, 42528, Note_on_c, 0, 79, 79
2, 42617, Note_on_c, 0, 79, 0
2, 42624, Note_on_c, 0, 79, 79
2, 43038, Note_on_c, 0, 79, 0
2, 43040, Note_on_c, 0, 81, 68
2, 43070, Note_on_c, 0, 81, 0
2, 43072, Note_on_c, 0, 79, 68
2, 43102, Note_on_c, 0, 79, 0
2, 43104, Note_on_c, 0, 77, 68
2, 43134, Note_on_c, 0, 77, 0
2, 43136, Note_on_c, 0, 79, 68
2, 43166, Note_on_c, 0, 79, 0
2, 43168, Note_on_c, 0, 77, 68
2, 43198, Note_on_c, 0, 77, 0
2, 43200, Note_on_c, 0, 76, 68
2, 43326, Note_on_c, 0, 76, 0
2, 43328, Note_on_c, 0, 77, 69
2, 43358, Note_on_c, 0, 77, 0
2, 43360, Note_on_c, 0, 76, 69
2, 43390, Note_on_c, 0, 76, 0
2, 43392, Note_on_c, 0, 74, 69
2, 43422, Note_on_c, 0, 74, 0
2, 43424, Note_on_c, 0, 76, 69
2, 43454, Note_on_c, 0, 76, 0
2, 43456, Note_on_c, 0, 74, 70
2, 43486, Note_on_c, 0, 74, 0
2, 43488, Note_on_c, 0, 72, 70
2, 43533, Note_on_c, 0, 72, 0
2, 43536, Note_on_c, 0, 79, 70
2, 43581, Note_on_c, 0, 79, 0
2, 43584, Note_on_c, 0, 79, 71
2, 43629, Note_on_c, 0, 79, 0
2, 43632, Note_on_c, 0, 79, 71
2, 43677, Note_on_c, 0, 79, 0
2, 43680, Note_on_c, 0, 79, 72
2, 43725, Note_on_c, 0, 79, 0
2, 43728, Note_on_c, 0, 79, 72
2, 43773, Note_on_c, 0, 79, 0
2, 43776, Note_on_c, 0, 79, 73
2, 43821, Note_on_c, 0, 79, 0
2, 43824, Note_on_c, 0, 78, 72
2, 43869, Note_on_c, 0, 78, 0
2, 43872, Note_on_c, 0, 77, 72
2, 43917, Note_on_c, 0, 77, 0
2, 43920, Note_on_c, 0, 76, 71
2, 43965, Note_on_c, 0, 76, 0
2, 43968, Note_on_c, 0, 75, 71
2, 44013, Note_on_c, 0, 75, 0
2, 44016, Note_on_c, 0, 74, 70
2, 44061, Note_on_c, 0, 74, 0
2, 44064, Note_on_c, 0, 74, 70
2, 44103, Note_on_c, 0, 74, 0
2, 44160, Note_on_c, 0, 71, 69
2, 44199, Note_on_c, 0, 71, 0
2, 44256, Note_on_c, 0, 67, 68
2, 44295, Note_on_c, 0, 67, 0
2, 44352, Note_on_c, 0, 76, 85
2, 44478, Note_on_c, 0, 76, 0
2, 44480, Note_on_c, 0, 77, 85
2, 44510, Note_on_c, 0, 77, 0
2, 44512, Note_on_c, 0, 76, 85
2, 44542, Note_on_c, 0, 76, 0
2, 44544, Note_on_c, 0, 74, 85
2, 44574, Note_on_c, 0, 74, 0
2, 44576, Note_on_c, 0, 76, 85
2, 44606, Note_on_c, 0, 76, 0
2, 44608, Note_on_c, 0, 74, 85
2, 44638, Note_on_c, 0, 74, 0
2, 44640, Note_on_c, 0, 72, 85
2, 44670, Note_on_c, 0, 72, 0
2, 44672, Note_on_c, 0, 76, 85
2, 44702, Note_on_c, 0, 76, 0
2, 44704, Note_on_c, 0, 79, 85
2, 44734, Note_on_c, 0, 79, 0
2, 44736, Note_on_c, 0, 76, 85
2, 44766, Note_on_c, 0, 76, 0
2, 44768, Note_on_c, 0, 79, 85
2, 44798, Note_on_c, 0, 79, 0
2, 44800, Note_on_c, 0, 84, 85
2, 44830, Note_on_c, 0, 84, 0
2, 44832, Note_on_c, 0, 79, 85
2, 44862, Note_on_c, 0, 79, 0
2, 44864, Note_on_c, 0, 84, 85
2, 44894, Note_on_c, 0, 84, 0
2, 44896, Note_on_c, 0, 88, 85
2, 44926, Note_on_c, 0, 88, 0
2, 44928, Note_on_c, 0, 74, 85
2, 45017, Note_on_c, 0, 74, 0
2, 45024, Note_on_c, 0, 77, 85
2, 45091, Note_on_c, 0, 77, 0
2, 45096, Note_on_c, 0, 74, 85
2, 45119, Note_on_c, 0, 74, 0
2, 45120, Note_on_c, 0, 71, 85
2, 45187, Note_on_c, 0, 71, 0
2, 45192, Note_on_c, 0, 74, 85
2, 45215, Note_on_c, 0, 74, 0
2, 45216, Note_on_c, 0, 72, 85
2, 45246, Note_on_c, 0, 72, 0
2, 45248, Note_on_c, 0, 76, 85
2, 45278, Note_on_c, 0, 76, 0
2, 45280, Note_on_c, 0, 79, 85
2, 45310, Note_on_c, 0, 79, 0
2, 45312, Note_on_c, 0, 76, 85
2, 45342, Note_on_c, 0, 76, 0
2, 45344, Note_on_c, 0, 79, 85
2, 45374, Note_on_c, 0, 79, 0
2, 45376, Note_on_c, 0, 84, 85
2, 45406, Note_on_c, 0, 84, 0
2, 45408, Note_on_c, 0, 79, 85
2, 45438, Note_on_c, 0, 79, 0
2, 45440, Note_on_c, 0, 84, 85
2, 45470, Note_on_c, 0, 84, 0
2, 45472, Note_on_c, 0, 88, 85
2, 45502, Note_on_c, 0, 88, 0
2, 45504, Note_on_c, 0, 74, 85
2, 45593, Note_on_c, 0, 74, 0
2, 45600, Note_on_c, 0, 77, 85
2, 45667, Note_on_c, 0, 77, 0
2, 45672, Note_on_c, 0, 74, 85
2, 45695, Note_on_c, 0, 74, 0
2, 45696, Note_on_c, 0, 71, 85
2, 45763, Note_on_c, 0, 71, 0
2, 45768, Note_on_c, 0, 74, 85
2, 45791, Note_on_c, 0, 74, 0
2, 45792, Note_on_c, 0, 72, 85
2, 45881, Note_on_c, 0, 72, 0
2, 45888, Note_on_c, 0, 84, 90
2, 45888, Note_on_c, 0, 76, 90
2, 45977, Note_on_c, 0, 84, 0
2, 45977, Note_on_c, 0, 76, 0
2, 45984, Note_on_c, 0, 84, 90
2, 45984, Note_on_c, 0, 76, 90
2, 46073, Note_on_c, 0, 84, 0
2, 46073, Note_on_c, 0, 76, 0
2, 46080, Note_on_c, 0, 84, 90
2, 46080, Note_on_c, 0, 76, 90
2, 46169, Note_on_c, 0, 84, 0
2, 46169, Note_on_c, 0, 76, 0
2, 46368, End_track
3, 0, Start_track
3, 0, Program_c, 0, 0
3, 0, Control_c, 0, 7, 127
3, 0, Control_c, 0, 10, 64
3, 18432, Note_on_c, 0, 71, 64
3, 18897, Note_on_c, 0, 71, 0
3, 19680, Note_on_c, 0, 70, 64
3, 19769, Note_on_c, 0, 70, 0
3, 19776, Note_on_c, 0, 69, 64
3, 19865, Note_on_c, 0, 69, 0
3, 19872, Note_on_c, 0, 67, 64
3, 19961, Note_on_c, 0, 67, 0
3, 19968, Note_on_c, 0, 65, 64
3, 20057, Note_on_c, 0, 65, 0
3, 20448, Note_on_c, 0, 67, 64
3, 20537, Note_on_c, 0, 67, 0
3, 20544, Note_on_c, 0, 69, 64
3, 20633, Note_on_c, 0, 69, 0
3, 20640, Note_on_c, 0, 71, 64
3, 20729, Note_on_c, 0, 71, 0
3, 20736, Note_on_c, 0, 72, 64
3, 20913, Note_on_c, 0, 72, 0
3, 20928, Note_on_c, 0, 71, 64
3, 21017, Note_on_c, 0, 71, 0
3, 26496, Note_on_c, 0, 71, 64
3, 26961, Note_on_c, 0, 71, 0
3, 27744, Note_on_c, 0, 70, 64
3, 27833, Note_on_c, 0, 70, 0
3, 27840, Note_on_c, 0, 69, 64
3, 27929, Note_on_c, 0, 69, 0
3, 27936, Note_on_c, 0, 67, 64
3, 28025, Note_on_c, 0, 67, 0
3, 28032, Note_on_c, 0, 65, 64
3, 28121, Note_on_c, 0, 65, 0
3, 28512, Note_on_c, 0, 67, 64
3, 28601, Note_on_c, 0, 67, 0
3, 28608, Note_on_c, 0, 69, 64
3, 28697, Note_on_c, 0, 69, 0
3, 28704, Note_on_c, 0, 71, 64
3, 28793, Note_on_c, 0, 71, 0
3, 28800, Note_on_c, 0, 72, 64
3, 28977, Note_on_c, 0, 72, 0
3, 28992, Note_on_c, 0, 71, 64
3, 29081, Note_on_c, 0, 71, 0
3, 31392, Note_on_c, 0, 72, 64
3, 31657, Note_on_c, 0, 72, 0
3, 31680, Note_on_c, 0, 72, 64
3, 31769, Note_on_c, 0, 72, 0
3, 31776, Note_on_c, 0, 71, 64
3, 31865, Note_on_c, 0, 71, 0
3, 31872, Note_on_c, 0, 67, 64
3, 31961, Note_on_c, 0, 67, 0
3, 31968, Note_on_c, 0, 74, 64
3, 32057, Note_on_c, 0, 74, 0
3, 32064, Note_on_c, 0, 72, 64
3, 32153, Note_on_c, 0, 72, 0
3, 32160, Note_on_c, 0, 71, 64
3, 32249, Note_on_c, 0, 71, 0
3, 33696, Note_on_c, 0, 72, 64
3, 33961, Note_on_c, 0, 72, 0
3, 33984, Note_on_c, 0, 72, 64
3, 34073, Note_on_c, 0, 72, 0
3, 34080, Note_on_c, 0, 71, 64
3, 34169, Note_on_c, 0, 71, 0
3, 34176, Note_on_c, 0, 67, 64
3, 34265, Note_on_c, 0, 67, 0
3, 34272, Note_on_c, 0, 74, 64
3, 34361, Note_on_c, 0, 74, 0
3, 34368, Note_on_c, 0, 72, 64
3, 34457, Note_on_c, 0, 72, 0
3, 34464, Note_on_c, 0, 71, 64
3, 34553, Note_on_c, 0, 71, 0
3, 35712, Note_on_c, 0, 67, 73
3, 35977, Note_on_c, 0, 67, 0
3, 36000, Note_on_c, 0, 68, 73
3, 36045, Note_on_c, 0, 68, 0
3, 36048, Note_on_c, 0, 67, 73
3, 36093, Note_on_c, 0, 67, 0
3, 36096, Note_on_c, 0, 68, 73
3, 36141, Note_on_c, 0, 68, 0
3, 36144, Note_on_c, 0, 65, 73
3, 36189, Note_on_c, 0, 65, 0
3, 36192, Note_on_c, 0, 67, 73
3, 36237, Note_on_c, 0, 67, 0
3, 36240, Note_on_c, 0, 68, 73
3, 36285, Note_on_c, 0, 68, 0
3, 36288, Note_on_c, 0, 67, 73
3, 36553, Note_on_c, 0, 67, 0
3, 36576, Note_on_c, 0, 68, 73
3, 36621, Note_on_c, 0, 68, 0
3, 36624, Note_on_c, 0, 67, 73
3, 36669, Note_on_c, 0, 67, 0
3, 36672, Note_on_c, 0, 68, 73
3, 36717, Note_on_c, 0, 68, 0
3, 36720, Note_on_c, 0, 65, 73
3, 36765, Note_on_c, 0, 65, 0
3, 36768, Note_on_c, 0, 67, 73
3, 36813, Note_on_c, 0, 67, 0
3, 36816, Note_on_c, 0, 68, 73
3, 36861, Note_on_c, 0, 68, 0
3, 36864, Note_on_c, 0, 67, 73
3, 36909, Note_on_c, 0, 67, 0
3, 36912, Note_on_c, 0, 65, 73
3, 36957, Note_on_c, 0, 65, 0
3, 36960, Note_on_c, 0, 67, 73
3, 37005, Note_on_c, 0, 67, 0
3, 37008, Note_on_c, 0, 63, 73
3, 37053, Note_on_c, 0, 63, 0
3, 37056, Note_on_c, 0, 65, 73
3, 37101, Note_on_c, 0, 65, 0
3, 37104, Note_on_c, 0, 67, 73
3, 37149, Note_on_c, 0, 67, 0
3, 37152, Note_on_c, 0, 67, 73
3, 37417, Note_on_c, 0, 67, 0
3, 37440, Note_on_c, 0, 67, 73
3, 37817, Note_on_c, 0, 67, 0
3, 46368, End_track
4, 0, Start_track
4, 0, Program_c, 1, 0
4, 0, Control_c, 1, 7, 127
4, 0, Control_c, 1, 10, 64
4, 96, Note_on_c, 1, 67, 73
4, 96, Note_on_c, 1, 60, 73
4, 185, Note_on_c, 1, 67, 0
4, 185, Note_on_c, 1, 60, 0
4, 192, Note_on_c, 1, 67, 73
4, 192, Note_on_c, 1, 65, 73
4, 281, Note_on_c, 1, 67, 0
4, 281, Note_on_c, 1, 65, 0
4, 288, Note_on_c, 1, 67, 73
4, 288, Note_on_c, 1, 64, 73
4, 377, Note_on_c, 1, 67, 0
4, 377, Note_on_c, 1, 64, 0
4, 576, Note_on_c, 1, 67, 73
4, 864, Note_on_c, 1, 55, 73
4, 953, Note_on_c, 1, 67, 0
4, 953, Note_on_c, 1, 55, 0
4, 1248, Note_on_c, 1, 67, 73
4, 1248, Note_on_c, 1, 60, 73
4, 1337, Note_on_c, 1, 67, 0
4, 1337, Note_on_c, 1, 60, 0
4, 1344, Note_on_c, 1, 67, 73
4, 1344, Note_on_c, 1, 65, 73
4, 1433, Note_on_c, 1, 67, 0
4, 1433, Note_on_c, 1, 65, 0
4, 1440, Note_on_c, 1, 67, 73
4, 1440, Note_on_c, 1, 64, 73
4, 1529, Note_on_c, 1, 67, 0
4, 1529, Note_on_c, 1, 64, 0
4, 1632, Note_on_c, 1, 60, 73
4, 1632, Note_on_c, 1, 52, 73
4, 1721, Note_on_c, 1, 60, 0
4, 1721, Note_on_c, 1, 52, 0
4, 1728, Note_on_c, 1, 60, 73
4, 1728, Note_on_c, 1, 53, 73
4, 1817, Note_on_c, 1, 60, 0
4, 1817, Note_on_c, 1, 53, 0
4, 1920, Note_on_c, 1, 65, 73
4, 1920, Note_on_c, 1, 55, 73
4, 2009, Note_on_c, 1, 65, 0
4, 2009, Note_on_c, 1, 55, 0
4, 2016, Note_on_c, 1, 64, 73
4, 2016, Note_on_c, 1, 60, 73
4, 2105, Note_on_c, 1, 64, 0
4, 2105, Note_on_c, 1, 60, 0
4, 2400, Note_on_c, 1, 67, 73
4, 2400, Note_on_c, 1, 60, 73
4, 2489, Note_on_c, 1, 67, 0
4, 2489, Note_on_c, 1, 60, 0
4, 2496, Note_on_c, 1, 67, 73
4, 2496, Note_on_c, 1, 65, 73
4, 2585, Note_on_c, 1, 67, 0
4, 2585, Note_on_c, 1, 65, 0
4, 2592, Note_on_c, 1, 67, 73
4, 2592, Note_on_c, 1, 64, 73
4, 2681, Note_on_c, 1, 67, 0
4, 2681, Note_on_c, 1, 64, 0
4, 2880, Note_on_c, 1, 67, 73
4, 3168, Note_on_c, 1, 55, 73
4, 3257, Note_on_c, 1, 67, 0
4, 3257, Note_on_c, 1, 55, 0
4, 3552, Note_on_c, 1, 67, 73
4, 3552, Note_on_c, 1, 60, 73
4, 3641, Note_on_c, 1, 67, 0
4, 3641, Note_on_c, 1, 60, 0
4, 3648, Note_on_c, 1, 67, 73
4, 3648, Note_on_c, 1, 65, 73
4, 3737, Note_on_c, 1, 67, 0
4, 3737, Note_on_c, 1, 65, 0
4, 3744, Note_on_c, 1, 67, 73
4, 3744, Note_on_c, 1, 64, 73
4, 3833, Note_on_c, 1, 67, 0
4, 3833, Note_on_c, 1, 64, 0
4, 3936, Note_on_c, 1, 60, 73
4, 3936, Note_on_c, 1, 52, 73
4, 4025, Note_on_c, 1, 60, 0
4, 4025, Note_on_c, 1, 52, 0
4, 4032, Note_on_c, 1, 60, 73
4, 4032, Note_on_c, 1, 53, 73
4, 4121, Note_on_c, 1, 60, 0
4, 4121, Note_on_c, 1, 53, 0
4, 4224, Note_on_c, 1, 65, 73
4, 4224, Note_on_c, 1, 55, 73
4, 4313, Note_on_c, 1, 65, 0
4, 4313, Note_on_c, 1, 55, 0
4, 4320, Note_on_c, 1, 64, 73
4, 4320, Note_on_c, 1, 60, 73
4, 4409, Note_on_c, 1, 64, 0
4, 4409, Note_on_c, 1, 60, 0
4, 4704, Note_on_c, 1, 67, 73
4, 4704, Note_on_c, 1, 59, 73
4, 4793, Note_on_c, 1, 67, 0
4, 4793, Note_on_c, 1, 59, 0
4, 4800, Note_on_c, 1, 67, 73
4, 4800, Note_on_c, 1, 60, 73
4, 4889, Note_on_c, 1, 67, 0
4, 4889, Note_on_c, 1, 60, 0
4, 4896, Note_on_c, 1, 67, 73
4, 4896, Note_on_c, 1, 55, 73
4, 4985, Note_on_c, 1, 67, 0
4, 4985, Note_on_c, 1, 55, 0
4, 5280, Note_on_c, 1, 67, 73
4, 5280, Note_on_c, 1, 64, 73
4, 5376, Note_on_c, 1, 67, 0
4, 5376, Note_on_c, 1, 64, 0
4, 5376, Note_on_c, 1, 66, 73
4, 5376, Note_on_c, 1, 62, 73
4, 5465, Note_on_c, 1, 66, 0
4, 5465, Note_on_c, 1, 62, 0
4, 5568, Note_on_c, 1, 64, 73
4, 5568, Note_on_c, 1, 60, 73
4, 5664, Note_on_c, 1, 64, 0
4, 5664, Note_on_c, 1, 60, 0
4, 5664, Note_on_c, 1, 62, 73
4, 5664, Note_on_c, 1, 59, 73
4, 5753, Note_on_c, 1, 62, 0
4, 5753, Note_on_c, 1, 59, 0
4, 5760, Note_on_c, 1, 60, 73
4, 5760, Note_on_c, 1, 57, 73
4, 5937, Note_on_c, 1, 60, 0
4, 5937, Note_on_c, 1, 57, 0
4, 5952, Note_on_c, 1, 50, 73
4, 6041, Note_on_c, 1, 50, 0
4, 6048, Note_on_c, 1, 55, 73
4, 6115, Note_on_c, 1, 55, 0
4, 6120, Note_on_c, 1, 59, 73
4, 6143, Note_on_c, 1, 59, 0
4, 6144, Note_on_c, 1, 62, 73
4, 6211, Note_on_c, 1, 62, 0
4, 6216, Note_on_c, 1, 67, 73
4, 6239, Note_on_c, 1, 67, 0
4, 6240, Note_on_c, 1, 71, 73
4, 6307, Note_on_c, 1, 71, 0
4, 6312, Note_on_c, 1, 67, 73
4, 6335, Note_on_c, 1, 67, 0
4, 6336, Note_on_c, 1, 60, 73
4, 6336, Note_on_c, 1, 57, 73
4, 6513, Note_on_c, 1, 60, 0
4, 6513, Note_on_c, 1, 57, 0
4, 6624, Note_on_c, 1, 55, 73
4, 6691, Note_on_c, 1, 55, 0
4, 6696, Note_on_c, 1, 59, 73
4, 6719, Note_on_c, 1, 59, 0
4, 6720, Note_on_c, 1, 50, 73
4, 6787, Note_on_c, 1, 50, 0
4, 6792, Note_on_c, 1, 55, 73
4, 6815, Note_on_c, 1, 55, 0
4, 6816, Note_on_c, 1, 47, 73
4, 6883, Note_on_c, 1, 47, 0
4, 6888, Note_on_c, 1, 50, 73
4, 6911, Note_on_c, 1, 50, 0
4, 6912, Note_on_c, 1, 43, 73
4, 7177, Note_on_c, 1, 43, 0
4, 7584, Note_on_c, 1, 67, 68
4, 7584, Note_on_c, 1, 60, 68
4, 7673, Note_on_c, 1, 67, 0
4, 7673, Note_on_c, 1, 60, 0
4, 7680, Note_on_c, 1, 67, 68
4, 7680, Note_on_c, 1, 65, 68
4, 7769, Note_on_c, 1, 67, 0
4, 7769, Note_on_c, 1, 65, 0
4, 7776, Note_on_c, 1, 67, 68
4, 7776, Note_on_c, 1, 64, 68
4, 7865, Note_on_c, 1, 67, 0
4, 7865, Note_on_c, 1, 64, 0
4, 8064, Note_on_c, 1, 67, 68
4, 8352, Note_on_c, 1, 55, 68
4, 8441, Note_on_c, 1, 67, 0
4, 8441, Note_on_c, 1, 55, 0
4, 8736, Note_on_c, 1, 67, 73
4, 8736, Note_on_c, 1, 60, 73
4, 8825, Note_on_c, 1, 67, 0
4, 8825, Note_on_c, 1, 60, 0
4, 8832, Note_on_c, 1, 67, 73
4, 8832, Note_on_c, 1, 65, 73
4, 8921, Note_on_c, 1, 67, 0
4, 8921, Note_on_c, 1, 65, 0
4, 8928, Note_on_c, 1, 67, 73
4, 8928, Note_on_c, 1, 64, 73
4, 9017, Note_on_c, 1, 67, 0
4, 9017, Note_on_c, 1, 64, 0
4, 9120, Note_on_c, 1, 60, 73
4, 9120, Note_on_c, 1, 52, 73
4, 9209, Note_on_c, 1, 60, 0
4, 9209, Note_on_c, 1, 52, 0
4, 9216, Note_on_c, 1, 60, 73
4, 9216, Note_on_c, 1, 53, 73
4, 9305, Note_on_c, 1, 60, 0
4, 9305, Note_on_c, 1, 53, 0
4, 9408, Note_on_c, 1, 65, 73
4, 9408, Note_on_c, 1, 55, 73
4, 9497, Note_on_c, 1, 65, 0
4, 9497, Note_on_c, 1, 55, 0
4, 9504, Note_on_c, 1, 64, 73
4, 9504, Note_on_c, 1, 60, 73
4, 9593, Note_on_c, 1, 64, 0
4, 9593, Note_on_c, 1, 60, 0
4, 9888, Note_on_c, 1, 67, 73
4, 9888, Note_on_c, 1, 59, 73
4, 9977, Note_on_c, 1, 67, 0
4, 9977, Note_on_c, 1, 59, 0
4, 9984, Note_on_c, 1, 67, 73
4, 9984, Note_on_c, 1, 60, 73
4, 10073, Note_on_c, 1, 67, 0
4, 10073, Note_on_c, 1, 60, 0
4, 10080, Note_on_c, 1, 67, 73
4, 10080, Note_on_c, 1, 55, 73
4, 10169, Note_on_c, 1, 67, 0
4, 10169, Note_on_c, 1, 55, 0
4, 10464, Note_on_c, 1, 67, 73
4, 10464, Note_on_c, 1, 64, 73
4, 10560, Note_on_c, 1, 67, 0
4, 10560, Note_on_c, 1, 64, 0
4, 10560, Note_on_c, 1, 66, 73
4, 10560, Note_on_c, 1, 62, 73
4, 10649, Note_on_c, 1, 66, 0
4, 10649, Note_on_c, 1, 62, 0
4, 10752, Note_on_c, 1, 64, 73
4, 10752, Note_on_c, 1, 60, 73
4, 10848, Note_on_c, 1, 64, 0
4, 10848, Note_on_c, 1, 60, 0
4, 10848, Note_on_c, 1, 62, 73
4, 10848, Note_on_c, 1, 59, 73
4, 10937, Note_on_c, 1, 62, 0
4, 10937, Note_on_c, 1, 59, 0
4, 10944, Note_on_c, 1, 60, 73
4, 10944, Note_on_c, 1, 57, 73
4, 11121, Note_on_c, 1, 60, 0
4, 11121, Note_on_c, 1, 57, 0
4, 11136, Note_on_c, 1, 50, 73
4, 11225, Note_on_c, 1, 50, 0
4, 11232, Note_on_c, 1, 55, 73
4, 11299, Note_on_c, 1, 55, 0
4, 11304, Note_on_c, 1, 59, 73
4, 11327, Note_on_c, 1, 59, 0
4, 11328, Note_on_c, 1, 62, 73
4, 11395, Note_on_c, 1, 62, 0
4, 11400, Note_on_c, 1, 67, 73
4, 11423, Note_on_c, 1, 67, 0
4, 11424, Note_on_c, 1, 71, 73
4, 11491, Note_on_c, 1, 71, 0
4, 11496, Note_on_c, 1, 67, 73
4, 11519, Note_on_c, 1, 67, 0
4, 11520, Note_on_c, 1, 60, 73
4, 11520, Note_on_c, 1, 57, 73
4, 11697, Note_on_c, 1, 60, 0
4, 11697, Note_on_c, 1, 57, 0
4, 11808, Note_on_c, 1, 55, 73
4, 11875, Note_on_c, 1, 55, 0
4, 11880, Note_on_c, 1, 59, 73
4, 11903, Note_on_c, 1, 59, 0
4, 11904, Note_on_c, 1, 50, 73
4, 11971, Note_on_c, 1, 50, 0
4, 11976, Note_on_c, 1, 55, 73
4, 11999, Note_on_c, 1, 55, 0
4, 12000, Note_on_c, 1, 47, 73
4, 12067, Note_on_c, 1, 47, 0
4, 12072, Note_on_c, 1, 50, 73
4, 12095, Note_on_c, 1, 50, 0
4, 12096, Note_on_c, 1, 43, 73
4, 12361, Note_on_c, 1, 43, 0
4, 12768, Note_on_c, 1, 67, 68
4, 12768, Note_on_c, 1, 60, 68
4, 12857, Note_on_c, 1, 67, 0
4, 12857, Note_on_c, 1, 60, 0
4, 12864, Note_on_c, 1, 67, 68
4, 12864, Note_on_c, 1, 65, 68
4, 12953, Note_on_c, 1, 67, 0
4, 12953, Note_on_c, 1, 65, 0
4, 12960, Note_on_c, 1, 67, 68
4, 12960, Note_on_c, 1, 64, 68
4, 13049, Note_on_c, 1, 67, 0
4, 13049, Note_on_c, 1, 64, 0
4, 13248, Note_on_c, 1, 67, 68
4, 13536, Note_on_c, 1, 55, 68
4, 13625, Note_on_c, 1, 67, 0
4, 13625, Note_on_c, 1, 55, 0
4, 13920, Note_on_c, 1, 67, 73
4, 13920, Note_on_c, 1, 60, 73
4, 14009, Note_on_c, 1, 67, 0
4, 14009, Note_on_c, 1, 60, 0
4, 14016, Note_on_c, 1, 67, 73
4, 14016, Note_on_c, 1, 65, 73
4, 14105, Note_on_c, 1, 67, 0
4, 14105, Note_on_c, 1, 65, 0
4, 14112, Note_on_c, 1, 67, 73
4, 14112, Note_on_c, 1, 64, 73
4, 14201, Note_on_c, 1, 67, 0
4, 14201, Note_on_c, 1, 64, 0
4, 14304, Note_on_c, 1, 60, 73
4, 14304, Note_on_c, 1, 52, 73
4, 14393, Note_on_c, 1, 60, 0
4, 14393, Note_on_c, 1, 52, 0
4, 14400, Note_on_c, 1, 60, 73
4, 14400, Note_on_c, 1, 53, 73
4, 14489, Note_on_c, 1, 60, 0
4, 14489, Note_on_c, 1, 53, 0
4, 14592, Note_on_c, 1, 65, 73
4, 14592, Note_on_c, 1, 55, 73
4, 14681, Note_on_c, 1, 65, 0
4, 14681, Note_on_c, 1, 55, 0
4, 14688, Note_on_c, 1, 64, 73
4, 14688, Note_on_c, 1, 60, 73
4, 14777, Note_on_c, 1, 64, 0
4, 14777, Note_on_c, 1, 60, 0
4, 15072, Note_on_c, 1, 72, 73
4, 15161, Note_on_c, 1, 72, 0
4, 15168, Note_on_c, 1, 69, 73
4, 15257, Note_on_c, 1, 69, 0
4, 15264, Note_on_c, 1, 71, 73
4, 15353, Note_on_c, 1, 71, 0
4, 15552, Note_on_c, 1, 74, 73
4, 15817, Note_on_c, 1, 74, 0
4, 15840, Note_on_c, 1, 62, 73
4, 15929, Note_on_c, 1, 62, 0
4, 16128, Note_on_c, 1, 67, 79
4, 16291, Note_on_c, 1, 67, 0
4, 16296, Note_on_c, 1, 69, 79
4, 16319, Note_on_c, 1, 69, 0
4, 16320, Note_on_c, 1, 66, 79
4, 16387, Note_on_c, 1, 66, 0
4, 16392, Note_on_c, 1, 67, 79
4, 16415, Note_on_c, 1, 67, 0
4, 16416, Note_on_c, 1, 64, 79
4, 16483, Note_on_c, 1, 64, 0
4, 16488, Note_on_c, 1, 66, 79
4, 16511, Note_on_c, 1, 66, 0
4, 16512, Note_on_c, 1, 62, 79
4, 16579, Note_on_c, 1, 62, 0
4, 16584, Note_on_c, 1, 64, 79
4, 16607, Note_on_c, 1, 64, 0
4, 16608, Note_on_c, 1, 60, 79
4, 16675, Note_on_c, 1, 60, 0
4, 16680, Note_on_c, 1, 62, 79
4, 16703, Note_on_c, 1, 62, 0
4, 16704, Note_on_c, 1, 59, 79
4, 16771, Note_on_c, 1, 59, 0
4, 16776, Note_on_c, 1, 60, 79
4, 16799, Note_on_c, 1, 60, 0
4, 16800, Note_on_c, 1, 57, 79
4, 16867, Note_on_c, 1, 57, 0
4, 16872, Note_on_c, 1, 59, 79
4, 16895, Note_on_c, 1, 59, 0
4, 16896, Note_on_c, 1, 55, 79
4, 16985, Note_on_c, 1, 55, 0
4, 16992, Note_on_c, 1, 60, 79
4, 17081, Note_on_c, 1, 60, 0
4, 17088, Note_on_c, 1, 62, 79
4, 17177, Note_on_c, 1, 62, 0
4, 17184, Note_on_c, 1, 62, 79
4, 17273, Note_on_c, 1, 62, 0
4, 17280, Note_on_c, 1, 67, 90
4, 17406, Note_on_c, 1, 67, 0
4, 17408, Note_on_c, 1, 69, 90
4, 17438, Note_on_c, 1, 69, 0
4, 17440, Note_on_c, 1, 67, 90
4, 17470, Note_on_c, 1, 67, 0
4, 17472, Note_on_c, 1, 66, 90
4, 17502, Note_on_c, 1, 66, 0
4, 17504, Note_on_c, 1, 67, 90
4, 17534, Note_on_c, 1, 67, 0
4, 17536, Note_on_c, 1, 66, 90
4, 17566, Note_on_c, 1, 66, 0
4, 17568, Note_on_c, 1, 64, 90
4, 17598, Note_on_c, 1, 64, 0
4, 17600, Note_on_c, 1, 66, 90
4, 17630, Note_on_c, 1, 66, 0
4, 17632, Note_on_c, 1, 64, 90
4, 17662, Note_on_c, 1, 64, 0
4, 17664, Note_on_c, 1, 62, 90
4, 17694, Note_on_c, 1, 62, 0
4, 17696, Note_on_c, 1, 64, 90
4, 17726, Note_on_c, 1, 64, 0
4, 17728, Note_on_c, 1, 62, 90
4, 17758, Note_on_c, 1, 62, 0
4, 17760, Note_on_c, 1, 60, 90
4, 17790, Note_on_c, 1, 60, 0
4, 17792, Note_on_c, 1, 62, 90
4, 17822, Note_on_c, 1, 62, 0
4, 17824, Note_on_c, 1, 60, 90
4, 17854, Note_on_c, 1, 60, 0
4, 17856, Note_on_c, 1, 59, 90
4, 17886, Note_on_c, 1, 59, 0
4, 17888, Note_on_c, 1, 60, 90
4, 17918, Note_on_c, 1, 60, 0
4, 17920, Note_on_c, 1, 59, 90
4, 17950, Note_on_c, 1, 59, 0
4, 17952, Note_on_c, 1, 57, 90
4, 17982, Note_on_c, 1, 57, 0
4, 17984, Note_on_c, 1, 59, 90
4, 18014, Note_on_c, 1, 59, 0
4, 18016, Note_on_c, 1, 57, 90
4, 18046, Note_on_c, 1, 57, 0
4, 18048, Note_on_c, 1, 55, 90
4, 18137, Note_on_c, 1, 55, 0
4, 18144, Note_on_c, 1, 60, 90
4, 18233, Note_on_c, 1, 60, 0
4, 18240, Note_on_c, 1, 62, 90
4, 18329, Note_on_c, 1, 62, 0
4, 18336, Note_on_c, 1, 62, 90
4, 18425, Note_on_c, 1, 62, 0
4, 18432, Note_on_c, 1, 55, 90
4, 18521, Note_on_c, 1, 55, 0
4, 18720, Note_on_c, 1, 67, 79
4, 18883, Note_on_c, 1, 67, 0
4, 18888, Note_on_c, 1, 69, 79
4, 18911, Note_on_c, 1, 69, 0
4, 18912, Note_on_c, 1, 65, 79
4, 18979, Note_on_c, 1, 65, 0
4, 18984, Note_on_c, 1, 67, 79
4, 19007, Note_on_c, 1, 67, 0
4, 19104, Note_on_c, 1, 70, 79
4, 19171, Note_on_c, 1, 70, 0
4, 19176, Note_on_c, 1, 72, 79
4, 19199, Note_on_c, 1, 72, 0
4, 19200, Note_on_c, 1, 69, 79
4, 19267, Note_on_c, 1, 69, 0
4, 19272, Note_on_c, 1, 70, 79
4, 19295, Note_on_c, 1, 70, 0
4, 19296, Note_on_c, 1, 67, 79
4, 19385, Note_on_c, 1, 67, 0
4, 19392, Note_on_c, 1, 70, 79
4, 19392, Note_on_c, 1, 67, 79
4, 19481, Note_on_c, 1, 70, 0
4, 19481, Note_on_c, 1, 67, 0
4, 19488, Note_on_c, 1, 69, 79
4, 19488, Note_on_c, 1, 65, 79
4, 19577, Note_on_c, 1, 69, 0
4, 19577, Note_on_c, 1, 65, 0
4, 19584, Note_on_c, 1, 67, 79
4, 19584, Note_on_c, 1, 64, 79
4, 19673, Note_on_c, 1, 67, 0
4, 19673, Note_on_c, 1, 64, 0
4, 19680, Note_on_c, 1, 55, 79
4, 19747, Note_on_c, 1, 55, 0
4, 19752, Note_on_c, 1, 57, 79
4, 19775, Note_on_c, 1, 57, 0
4, 19776, Note_on_c, 1, 53, 79
4, 19843, Note_on_c, 1, 53, 0
4, 19848, Note_on_c, 1, 55, 79
4, 19871, Note_on_c, 1, 55, 0
4, 19872, Note_on_c, 1, 52, 79
4, 19939, Note_on_c, 1, 52, 0
4, 19944, Note_on_c, 1, 53, 79
4, 19967, Note_on_c, 1, 53, 0
4, 19968, Note_on_c, 1, 50, 79
4, 20057, Note_on_c, 1, 50, 0
4, 20064, Note_on_c, 1, 55, 79
4, 20153, Note_on_c, 1, 55, 0
4, 20160, Note_on_c, 1, 57, 79
4, 20425, Note_on_c, 1, 57, 0
4, 20448, Note_on_c, 1, 55, 79
4, 20537, Note_on_c, 1, 55, 0
4, 20832, Note_on_c, 1, 64, 79
4, 20832, Note_on_c, 1, 60, 79
4, 20921, Note_on_c, 1, 64, 0
4, 20921, Note_on_c, 1, 60, 0
4, 20928, Note_on_c, 1, 65, 79
4, 20928, Note_on_c, 1, 55, 79
4, 21017, Note_on_c, 1, 65, 0
4, 21017, Note_on_c, 1, 55, 0
4, 21024, Note_on_c, 1, 64, 79
4, 21024, Note_on_c, 1, 60, 79
4, 21113, Note_on_c, 1, 64, 0
4, 21113, Note_on_c, 1, 60, 0
4, 21312, Note_on_c, 1, 67, 79
4, 21600, Note_on_c, 1, 55, 79
4, 21689, Note_on_c, 1, 67, 0
4, 21689, Note_on_c, 1, 55, 0
4, 21984, Note_on_c, 1, 67, 79
4, 21984, Note_on_c, 1, 60, 79
4, 22073, Note_on_c, 1, 67, 0
4, 22073, Note_on_c, 1, 60, 0
4, 22080, Note_on_c, 1, 67, 79
4, 22080, Note_on_c, 1, 65, 79
4, 22169, Note_on_c, 1, 67, 0
4, 22169, Note_on_c, 1, 65, 0
4, 22176, Note_on_c, 1, 67, 79
4, 22176, Note_on_c, 1, 64, 79
4, 22265, Note_on_c, 1, 67, 0
4, 22265, Note_on_c, 1, 64, 0
4, 22368, Note_on_c, 1, 60, 79
4, 22368, Note_on_c, 1, 52, 79
4, 22457, Note_on_c, 1, 60, 0
4, 22457, Note_on_c, 1, 52, 0
4, 22464, Note_on_c, 1, 60, 79
4, 22464, Note_on_c, 1, 53, 79
4, 22553, Note_on_c, 1, 60, 0
4, 22553, Note_on_c, 1, 53, 0
4, 22656, Note_on_c, 1, 65, 79
4, 22656, Note_on_c, 1, 55, 79
4, 22745, Note_on_c, 1, 65, 0
4, 22745, Note_on_c, 1, 55, 0
4, 22752, Note_on_c, 1, 64, 79
4, 22752, Note_on_c, 1, 60, 79
4, 22841, Note_on_c, 1, 64, 0
4, 22841, Note_on_c, 1, 60, 0
4, 23136, Note_on_c, 1, 72, 73
4, 23225, Note_on_c, 1, 72, 0
4, 23232, Note_on_c, 1, 69, 73
4, 23321, Note_on_c, 1, 69, 0
4, 23328, Note_on_c, 1, 71, 73
4, 23417, Note_on_c, 1, 71, 0
4, 23616, Note_on_c, 1, 74, 73
4, 23881, Note_on_c, 1, 74, 0
4, 23904, Note_on_c, 1, 62, 73
4, 23993, Note_on_c, 1, 62, 0
4, 24192, Note_on_c, 1, 67, 79
4, 24355, Note_on_c, 1, 67, 0
4, 24360, Note_on_c, 1, 69, 79
4, 24383, Note_on_c, 1, 69, 0
4, 24384, Note_on_c, 1, 66, 79
4, 24451, Note_on_c, 1, 66, 0
4, 24456, Note_on_c, 1, 67, 79
4, 24479, Note_on_c, 1, 67, 0
4, 24480, Note_on_c, 1, 64, 79
4, 24547, Note_on_c, 1, 64, 0
4, 24552, Note_on_c, 1, 66, 79
4, 24575, Note_on_c, 1, 66, 0
4, 24576, Note_on_c, 1, 62, 79
4, 24643, Note_on_c, 1, 62, 0
4, 24648, Note_on_c, 1, 64, 79
4, 24671, Note_on_c, 1, 64, 0
4, 24672, Note_on_c, 1, 60, 79
4, 24739, Note_on_c, 1, 60, 0
4, 24744, Note_on_c, 1, 62, 79
4, 24767, Note_on_c, 1, 62, 0
4, 24768, Note_on_c, 1, 59, 79
4, 24835, Note_on_c, 1, 59, 0
4, 24840, Note_on_c, 1, 60, 79
4, 24863, Note_on_c, 1, 60, 0
4, 24864, Note_on_c, 1, 57, 79
4, 24931, Note_on_c, 1, 57, 0
4, 24936, Note_on_c, 1, 59, 79
4, 24959, Note_on_c, 1, 59, 0
4, 24960, Note_on_c, 1, 55, 79
4, 25049, Note_on_c, 1, 55, 0
4, 25056, Note_on_c, 1, 60, 79
4, 25145, Note_on_c, 1, 60, 0
4, 25152, Note_on_c, 1, 62, 79
4, 25241, Note_on_c, 1, 62, 0
4, 25248, Note_on_c, 1, 62, 79
4, 25337, Note_on_c, 1, 62, 0
4, 25344, Note_on_c, 1, 67, 90
4, 25470, Note_on_c, 1, 67, 0
4, 25472, Note_on_c, 1, 69, 90
4, 25502, Note_on_c, 1, 69, 0
4, 25504, Note_on_c, 1, 67, 90
4, 25534, Note_on_c, 1, 67, 0
4, 25536, Note_on_c, 1, 66, 90
4, 25566, Note_on_c, 1, 66, 0
4, 25568, Note_on_c, 1, 67, 90
4, 25598, Note_on_c, 1, 67, 0
4, 25600, Note_on_c, 1, 66, 90
4, 25630, Note_on_c, 1, 66, 0
4, 25632, Note_on_c, 1, 64, 90
4, 25662, Note_on_c, 1, 64, 0
4, 25664, Note_on_c, 1, 66, 90
4, 25694, Note_on_c, 1, 66, 0
4, 25696, Note_on_c, 1, 64, 90
4, 25726, Note_on_c, 1, 64, 0
4, 25728, Note_on_c, 1, 62, 90
4, 25758, Note_on_c, 1, 62, 0
4, 25760, Note_on_c, 1, 64, 90
4, 25790, Note_on_c, 1, 64, 0
4, 25792, Note_on_c, 1, 62, 90
4, 25822, Note_on_c, 1, 62, 0
4, 25824, Note_on_c, 1, 60, 90
4, 25854, Note_on_c, 1, 60, 0
4, 25856, Note_on_c, 1, 62, 90
4, 25886, Note_on_c, 1, 62, 0
4, 25888, Note_on_c, 1, 60, 90
4, 25918, Note_on_c, 1, 60, 0
4, 25920, Note_on_c, 1, 59, 90
4, 25950, Note_on_c, 1, 59, 0
4, 25952, Note_on_c, 1, 60, 90
4, 25982, Note_on_c, 1, 60, 0
4, 25984, Note_on_c, 1, 59, 90
4, 26014, Note_on_c, 1, 59, 0
4, 26016, Note_on_c, 1, 57, 90
4, 26046, Note_on_c, 1, 57, 0
4, 26048, Note_on_c, 1, 59, 90
4, 26078, Note_on_c, 1, 59, 0
4, 26080, Note_on_c, 1, 57, 90
4, 26110, Note_on_c, 1, 57, 0
4, 26112, Note_on_c, 1, 55, 90
4, 26201, Note_on_c, 1, 55, 0
4, 26208, Note_on_c, 1, 60, 90
4, 26297, Note_on_c, 1, 60, 0
4, 26304, Note_on_c, 1, 62, 90
4, 26393, Note_on_c, 1, 62, 0
4, 26400, Note_on_c, 1, 62, 90
4, 26489, Note_on_c, 1, 62, 0
4, 26496, Note_on_c, 1, 55, 90
4, 26585, Note_on_c, 1, 55, 0
4, 26784, Note_on_c, 1, 67, 79
4, 26947, Note_on_c, 1, 67, 0
4, 26952, Note_on_c, 1, 69, 79
4, 26975, Note_on_c, 1, 69, 0
4, 26976, Note_on_c, 1, 65, 79
4, 27043, Note_on_c, 1, 65, 0
4, 27048, Note_on_c, 1, 67, 79
4, 27071, Note_on_c, 1, 67, 0
4, 27168, Note_on_c, 1, 70, 79
4, 27235, Note_on_c, 1, 70, 0
4, 27240, Note_on_c, 1, 72, 79
4, 27263, Note_on_c, 1, 72, 0
4, 27264, Note_on_c, 1, 69, 79
4, 27331, Note_on_c, 1, 69, 0
4, 27336, Note_on_c, 1, 70, 79
4, 27359, Note_on_c, 1, 70, 0
4, 27360, Note_on_c, 1, 67, 79
4, 27449, Note_on_c, 1, 67, 0
4, 27456, Note_on_c, 1, 70, 79
4, 27456, Note_on_c, 1, 67, 79
4, 27545, Note_on_c, 1, 70, 0
4, 27545, Note_on_c, 1, 67, 0
4, 27552, Note_on_c, 1, 69, 79
4, 27552, Note_on_c, 1, 65, 79
4, 27641, Note_on_c, 1, 69, 0
4, 27641, Note_on_c, 1, 65, 0
4, 27648, Note_on_c, 1, 67, 79
4, 27648, Note_on_c, 1, 64, 79
4, 27737, Note_on_c, 1, 67, 0
4, 27737, Note_on_c, 1, 64, 0
4, 27744, Note_on_c, 1, 55, 79
4, 27811, Note_on_c, 1, 55, 0
4, 27816, Note_on_c, 1, 57, 79
4, 27839, Note_on_c, 1, 57, 0
4, 27840, Note_on_c, 1, 53, 79
4, 27907, Note_on_c, 1, 53, 0
4, 27912, Note_on_c, 1, 55, 79
4, 27935, Note_on_c, 1, 55, 0
4, 27936, Note_on_c, 1, 52, 79
4, 28003, Note_on_c, 1, 52, 0
4, 28008, Note_on_c, 1, 53, 79
4, 28031, Note_on_c, 1, 53, 0
4, 28032, Note_on_c, 1, 50, 79
4, 28121, Note_on_c, 1, 50, 0
4, 28128, Note_on_c, 1, 55, 79
4, 28217, Note_on_c, 1, 55, 0
4, 28224, Note_on_c, 1, 57, 79
4, 28489, Note_on_c, 1, 57, 0
4, 28512, Note_on_c, 1, 55, 79
4, 28601, Note_on_c, 1, 55, 0
4, 28896, Note_on_c, 1, 64, 79
4, 28896, Note_on_c, 1, 60, 79
4, 28985, Note_on_c, 1, 64, 0
4, 28985, Note_on_c, 1, 60, 0
4, 28992, Note_on_c, 1, 65, 79
4, 28992, Note_on_c, 1, 55, 79
4, 29081, Note_on_c, 1, 65, 0
4, 29081, Note_on_c, 1, 55, 0
4, 29088, Note_on_c, 1, 64, 79
4, 29088, Note_on_c, 1, 60, 79
4, 29177, Note_on_c, 1, 64, 0
4, 29177, Note_on_c, 1, 60, 0
4, 29376, Note_on_c, 1, 67, 79
4, 29664, Note_on_c, 1, 55, 79
4, 29753, Note_on_c, 1, 67, 0
4, 29753, Note_on_c, 1, 55, 0
4, 30048, Note_on_c, 1, 67, 79
4, 30048, Note_on_c, 1, 60, 79
4, 30137, Note_on_c, 1, 67, 0
4, 30137, Note_on_c, 1, 60, 0
4, 30144, Note_on_c, 1, 67, 79
4, 30144, Note_on_c, 1, 65, 79
4, 30233, Note_on_c, 1, 67, 0
4, 30233, Note_on_c, 1, 65, 0
4, 30240, Note_on_c, 1, 67, 79
4, 30240, Note_on_c, 1, 64, 79
4, 30329, Note_on_c, 1, 67, 0
4, 30329, Note_on_c, 1, 64, 0
4, 30432, Note_on_c, 1, 60, 79
4, 30432, Note_on_c, 1, 52, 79
4, 30521, Note_on_c, 1, 60, 0
4, 30521, Note_on_c, 1, 52, 0
4, 30528, Note_on_c, 1, 60, 79
4, 30528, Note_on_c, 1, 53, 79
4, 30617, Note_on_c, 1, 60, 0
4, 30617, Note_on_c, 1, 53, 0
4, 30720, Note_on_c, 1, 65, 79
4, 30720, Note_on_c, 1, 55, 79
4, 30809, Note_on_c, 1, 65, 0
4, 30809, Note_on_c, 1, 55, 0
4, 30816, Note_on_c, 1, 64, 79
4, 30816, Note_on_c, 1, 60, 79
4, 30905, Note_on_c, 1, 64, 0
4, 30905, Note_on_c, 1, 60, 0
4, 31104, Note_on_c, 1, 36, 79
4, 31149, Note_on_c, 1, 36, 0
4, 31152, Note_on_c, 1, 48, 79
4, 31197, Note_on_c, 1, 48, 0
4, 31200, Note_on_c, 1, 38, 79
4, 31245, Note_on_c, 1, 38, 0
4, 31248, Note_on_c, 1, 50, 79
4, 31293, Note_on_c, 1, 50, 0
4, 31296, Note_on_c, 1, 39, 79
4, 31341, Note_on_c, 1, 39, 0
4, 31344, Note_on_c, 1, 51, 79
4, 31389, Note_on_c, 1, 51, 0
4, 31392, Note_on_c, 1, 41, 79
4, 31437, Note_on_c, 1, 41, 0
4, 31440, Note_on_c, 1, 53, 79
4, 31485, Note_on_c, 1, 53, 0
4, 31488, Note_on_c, 1, 43, 79
4, 31533, Note_on_c, 1, 43, 0
4, 31536, Note_on_c, 1, 55, 79
4, 31581, Note_on_c, 1, 55, 0
4, 31584, Note_on_c, 1, 44, 79
4, 31629, Note_on_c, 1, 44, 0
4, 31632, Note_on_c, 1, 56, 79
4, 31677, Note_on_c, 1, 56, 0
4, 31680, Note_on_c, 1, 43, 79
4, 31725, Note_on_c, 1, 43, 0
4, 31728, Note_on_c, 1, 55, 79
4, 31773, Note_on_c, 1, 55, 0
4, 31776, Note_on_c, 1, 45, 79
4, 31821, Note_on_c, 1, 45, 0
4, 31824, Note_on_c, 1, 57, 79
4, 31869, Note_on_c, 1, 57, 0
4, 31872, Note_on_c, 1, 47, 79
4, 31917, Note_on_c, 1, 47, 0
4, 31920, Note_on_c, 1, 59, 79
4, 31965, Note_on_c, 1, 59, 0
4, 31968, Note_on_c, 1, 48, 79
4, 32013, Note_on_c, 1, 48, 0
4, 32016, Note_on_c, 1, 60, 79
4, 32061, Note_on_c, 1, 60, 0
4, 32064, Note_on_c, 1, 51, 79
4, 32109, Note_on_c, 1, 51, 0
4, 32112, Note_on_c, 1, 63, 79
4, 32157, Note_on_c, 1, 63, 0
4, 32160, Note_on_c, 1, 55, 79
4, 32205, Note_on_c, 1, 55, 0
4, 32208, Note_on_c, 1, 67, 79
4, 32253, Note_on_c, 1, 67, 0
4, 32256, Note_on_c, 1, 68, 79
4, 32256, Note_on_c, 1, 56, 79
4, 32521, Note_on_c, 1, 68, 0
4, 32521, Note_on_c, 1, 56, 0
4, 32544, Note_on_c, 1, 65, 79
4, 32544, Note_on_c, 1, 58, 79
4, 32544, Note_on_c, 1, 56, 79
4, 32721, Note_on_c, 1, 65, 0
4, 32721, Note_on_c, 1, 58, 0
4, 32721, Note_on_c, 1, 56, 0
4, 32736, Note_on_c, 1, 63, 79
4, 32736, Note_on_c, 1, 55, 79
4, 32825, Note_on_c, 1, 63, 0
4, 32825, Note_on_c, 1, 55, 0
4, 32832, Note_on_c, 1, 56, 79
4, 32921, Note_on_c, 1, 56, 0
4, 32928, Note_on_c, 1, 58, 79
4, 33017, Note_on_c, 1, 58, 0
4, 33024, Note_on_c, 1, 46, 79
4, 33113, Note_on_c, 1, 46, 0
4, 33120, Note_on_c, 1, 51, 79
4, 33209, Note_on_c, 1, 51, 0
4, 33216, Note_on_c, 1, 55, 79
4, 33261, Note_on_c, 1, 55, 0
4, 33264, Note_on_c, 1, 53, 79
4, 33309, Note_on_c, 1, 53, 0
4, 33312, Note_on_c, 1, 51, 79
4, 33357, Note_on_c, 1, 51, 0
4, 33360, Note_on_c, 1, 50, 79
4, 33405, Note_on_c, 1, 50, 0
4, 33408, Note_on_c, 1, 36, 79
4, 33453, Note_on_c, 1, 36, 0
4, 33456, Note_on_c, 1, 48, 79
4, 33501, Note_on_c, 1, 48, 0
4, 33504, Note_on_c, 1, 38, 79
4, 33549, Note_on_c, 1, 38, 0
4, 33552, Note_on_c, 1, 50, 79
4, 33597, Note_on_c, 1, 50, 0
4, 33600, Note_on_c, 1, 39, 79
4, 33645, Note_on_c, 1, 39, 0
4, 33648, Note_on_c, 1, 51, 79
4, 33693, Note_on_c, 1, 51, 0
4, 33696, Note_on_c, 1, 41, 79
4, 33741, Note_on_c, 1, 41, 0
4, 33744, Note_on_c, 1, 53, 79
4, 33789, Note_on_c, 1, 53, 0
4, 33792, Note_on_c, 1, 43, 79
4, 33837, Note_on_c, 1, 43, 0
4, 33840, Note_on_c, 1, 55, 79
4, 33885, Note_on_c, 1, 55, 0
4, 33888, Note_on_c, 1, 44, 79
4, 33933, Note_on_c, 1, 44, 0
4, 33936, Note_on_c, 1, 56, 79
4, 33981, Note_on_c, 1, 56, 0
4, 33984, Note_on_c, 1, 43, 79
4, 34029, Note_on_c, 1, 43, 0
4, 34032, Note_on_c, 1, 55, 79
4, 34077, Note_on_c, 1, 55, 0
4, 34080, Note_on_c, 1, 45, 79
4, 34125, Note_on_c, 1, 45, 0
4, 34128, Note_on_c, 1, 57, 79
4, 34173, Note_on_c, 1, 57, 0
4, 34176, Note_on_c, 1, 47, 79
4, 34221, Note_on_c, 1, 47, 0
4, 34224, Note_on_c, 1, 59, 79
4, 34269, Note_on_c, 1, 59, 0
4, 34272, Note_on_c, 1, 48, 79
4, 34317, Note_on_c, 1, 48, 0
4, 34320, Note_on_c, 1, 60, 79
4, 34365, Note_on_c, 1, 60, 0
4, 34368, Note_on_c, 1, 51, 79
4, 34413, Note_on_c, 1, 51, 0
4, 34416, Note_on_c, 1, 63, 79
4, 34461, Note_on_c, 1, 63, 0
4, 34464, Note_on_c, 1, 55, 79
4, 34509, Note_on_c, 1, 55, 0
4, 34512, Note_on_c, 1, 67, 79
4, 34557, Note_on_c, 1, 67, 0
4, 34560, Note_on_c, 1, 68, 79
4, 34560, Note_on_c, 1, 56, 79
4, 34825, Note_on_c, 1, 68, 0
4, 34825, Note_on_c, 1, 56, 0
4, 34848, Note_on_c, 1, 65, 79
4, 34848, Note_on_c, 1, 58, 79
4, 34848, Note_on_c, 1, 56, 79
4, 35025, Note_on_c, 1, 65, 0
4, 35025, Note_on_c, 1, 58, 0
4, 35025, Note_on_c, 1, 56, 0
4, 35040, Note_on_c, 1, 63, 79
4, 35040, Note_on_c, 1, 55, 79
4, 35129, Note_on_c, 1, 63, 0
4, 35129, Note_on_c, 1, 55, 0
4, 35136, Note_on_c, 1, 56, 79
4, 35225, Note_on_c, 1, 56, 0
4, 35232, Note_on_c, 1, 58, 79
4, 35321, Note_on_c, 1, 58, 0
4, 35328, Note_on_c, 1, 46, 79
4, 35417, Note_on_c, 1, 46, 0
4, 35424, Note_on_c, 1, 51, 79
4, 35513, Note_on_c, 1, 51, 0
4, 35520, Note_on_c, 1, 46, 79
4, 35609, Note_on_c, 1, 46, 0
4, 35616, Note_on_c, 1, 39, 79
4, 35705, Note_on_c, 1, 39, 0
4, 35712, Note_on_c, 1, 63, 73
4, 35757, Note_on_c, 1, 63, 0
4, 35760, Note_on_c, 1, 62, 73
4, 35805, Note_on_c, 1, 62, 0
4, 35808, Note_on_c, 1, 63, 73
4, 35853, Note_on_c, 1, 63, 0
4, 35856, Note_on_c, 1, 60, 73
4, 35901, Note_on_c, 1, 60, 0
4, 35904, Note_on_c, 1, 62, 73
4, 35949, Note_on_c, 1, 62, 0
4, 35952, Note_on_c, 1, 63, 73
4, 35997, Note_on_c, 1, 63, 0
4, 36000, Note_on_c, 1, 65, 73
4, 36045, Note_on_c, 1, 65, 0
4, 36048, Note_on_c, 1, 64, 73
4, 36093, Note_on_c, 1, 64, 0
4, 36096, Note_on_c, 1, 65, 73
4, 36141, Note_on_c, 1, 65, 0
4, 36144, Note_on_c, 1, 62, 73
4, 36189, Note_on_c, 1, 62, 0
4, 36192, Note_on_c, 1, 63, 73
4, 36237, Note_on_c, 1, 63, 0
4, 36240, Note_on_c, 1, 65, 73
4, 36285, Note_on_c, 1, 65, 0
4, 36288, Note_on_c, 1, 63, 73
4, 36333, Note_on_c, 1, 63, 0
4, 36336, Note_on_c, 1, 62, 73
4, 36381, Note_on_c, 1, 62, 0
4, 36384, Note_on_c, 1, 63, 73
4, 36429, Note_on_c, 1, 63, 0
4, 36432, Note_on_c, 1, 60, 73
4, 36477, Note_on_c, 1, 60, 0
4, 36480, Note_on_c, 1, 62, 73
4, 36525, Note_on_c, 1, 62, 0
4, 36528, Note_on_c, 1, 63, 73
4, 36573, Note_on_c, 1, 63, 0
4, 36576, Note_on_c, 1, 65, 73
4, 36621, Note_on_c, 1, 65, 0
4, 36624, Note_on_c, 1, 64, 73
4, 36669, Note_on_c, 1, 64, 0
4, 36672, Note_on_c, 1, 65, 73
4, 36717, Note_on_c, 1, 65, 0
4, 36720, Note_on_c, 1, 62, 73
4, 36765, Note_on_c, 1, 62, 0
4, 36768, Note_on_c, 1, 63, 73
4, 36813, Note_on_c, 1, 63, 0
4, 36816, Note_on_c, 1, 65, 73
4, 36861, Note_on_c, 1, 65, 0
4, 36864, Note_on_c, 1, 63, 73
4, 36909, Note_on_c, 1, 63, 0
4, 36912, Note_on_c, 1, 62, 73
4, 36957, Note_on_c, 1, 62, 0
4, 36960, Note_on_c, 1, 63, 73
4, 37005, Note_on_c, 1, 63, 0
4, 37008, Note_on_c, 1, 60, 73
4, 37053, Note_on_c, 1, 60, 0
4, 37056, Note_on_c, 1, 62, 73
4, 37101, Note_on_c, 1, 62, 0
4, 37104, Note_on_c, 1, 63, 73
4, 37149, Note_on_c, 1, 63, 0
4, 37152, Note_on_c, 1, 59, 73
4, 37197, Note_on_c, 1, 59, 0
4, 37200, Note_on_c, 1, 60, 73
4, 37245, Note_on_c, 1, 60, 0
4, 37248, Note_on_c, 1, 62, 73
4, 37293, Note_on_c, 1, 62, 0
4, 37296, Note_on_c, 1, 59, 73
4, 37341, Note_on_c, 1, 59, 0
4, 37344, Note_on_c, 1, 60, 73
4, 37389, Note_on_c, 1, 60, 0
4, 37392, Note_on_c, 1, 57, 73
4, 37437, Note_on_c, 1, 57, 0
4, 37440, Note_on_c, 1, 55, 73
4, 37817, Note_on_c, 1, 55, 0
4, 38112, Note_on_c, 1, 67, 73
4, 38112, Note_on_c, 1, 60, 73
4, 38201, Note_on_c, 1, 67, 0
4, 38201, Note_on_c, 1, 60, 0
4, 38208, Note_on_c, 1, 67, 73
4, 38208, Note_on_c, 1, 65, 73
4, 38297, Note_on_c, 1, 67, 0
4, 38297, Note_on_c, 1, 65, 0
4, 38304, Note_on_c, 1, 67, 73
4, 38304, Note_on_c, 1, 64, 73
4, 38393, Note_on_c, 1, 67, 0
4, 38393, Note_on_c, 1, 64, 0
4, 38592, Note_on_c, 1, 67, 73
4, 38880, Note_on_c, 1, 55, 73
4, 38969, Note_on_c, 1, 67, 0
4, 38969, Note_on_c, 1, 55, 0
4, 39264, Note_on_c, 1, 67, 73
4, 39264, Note_on_c, 1, 60, 73
4, 39353, Note_on_c, 1, 67, 0
4, 39353, Note_on_c, 1, 60, 0
4, 39360, Note_on_c, 1, 67, 73
4, 39360, Note_on_c, 1, 65, 73
4, 39449, Note_on_c, 1, 67, 0
4, 39449, Note_on_c, 1, 65, 0
4, 39456, Note_on_c, 1, 67, 73
4, 39456, Note_on_c, 1, 64, 73
4, 39545, Note_on_c, 1, 67, 0
4, 39545, Note_on_c, 1, 64, 0
4, 39744, Note_on_c, 1, 60, 73
4, 39744, Note_on_c, 1, 53, 73
4, 39833, Note_on_c, 1, 60, 0
4, 39833, Note_on_c, 1, 53, 0
4, 39936, Note_on_c, 1, 65, 73
4, 39936, Note_on_c, 1, 55, 73
4, 40025, Note_on_c, 1, 65, 0
4, 40025, Note_on_c, 1, 55, 0
4, 40032, Note_on_c, 1, 64, 73
4, 40032, Note_on_c, 1, 60, 73
4, 40121, Note_on_c, 1, 64, 0
4, 40121, Note_on_c, 1, 60, 0
4, 40416, Note_on_c, 1, 67, 73
4, 40416, Note_on_c, 1, 59, 73
4, 40505, Note_on_c, 1, 67, 0
4, 40505, Note_on_c, 1, 59, 0
4, 40512, Note_on_c, 1, 67, 73
4, 40512, Note_on_c, 1, 60, 73
4, 40601, Note_on_c, 1, 67, 0
4, 40601, Note_on_c, 1, 60, 0
4, 40608, Note_on_c, 1, 67, 73
4, 40608, Note_on_c, 1, 55, 73
4, 40697, Note_on_c, 1, 67, 0
4, 40697, Note_on_c, 1, 55, 0
4, 40992, Note_on_c, 1, 67, 73
4, 40992, Note_on_c, 1, 64, 73
4, 41088, Note_on_c, 1, 67, 0
4, 41088, Note_on_c, 1, 64, 0
4, 41088, Note_on_c, 1, 66, 73
4, 41088, Note_on_c, 1, 62, 73
4, 41177, Note_on_c, 1, 66, 0
4, 41177, Note_on_c, 1, 62, 0
4, 41280, Note_on_c, 1, 64, 73
4, 41280, Note_on_c, 1, 60, 73
4, 41376, Note_on_c, 1, 64, 0
4, 41376, Note_on_c, 1, 60, 0
4, 41376, Note_on_c, 1, 62, 73
4, 41376, Note_on_c, 1, 59, 73
4, 41465, Note_on_c, 1, 62, 0
4, 41465, Note_on_c, 1, 59, 0
4, 41472, Note_on_c, 1, 60, 73
4, 41649, Note_on_c, 1, 60, 0
4, 41664, Note_on_c, 1, 50, 73
4, 41753, Note_on_c, 1, 50, 0
4, 41760, Note_on_c, 1, 55, 73
4, 41827, Note_on_c, 1, 55, 0
4, 41832, Note_on_c, 1, 59, 73
4, 41855, Note_on_c, 1, 59, 0
4, 41856, Note_on_c, 1, 62, 73
4, 41923, Note_on_c, 1, 62, 0
4, 41928, Note_on_c, 1, 67, 73
4, 41951, Note_on_c, 1, 67, 0
4, 41952, Note_on_c, 1, 71, 73
4, 42019, Note_on_c, 1, 71, 0
4, 42024, Note_on_c, 1, 67, 73
4, 42047, Note_on_c, 1, 67, 0
4, 42048, Note_on_c, 1, 72, 73
4, 42225, Note_on_c, 1, 72, 0
4, 42240, Note_on_c, 1, 62, 73
4, 42329, Note_on_c, 1, 62, 0
4, 42336, Note_on_c, 1, 55, 73
4, 42403, Note_on_c, 1, 55, 0
4, 42408, Note_on_c, 1, 59, 73
4, 42431, Note_on_c, 1, 59, 0
4, 42432, Note_on_c, 1, 50, 73
4, 42499, Note_on_c, 1, 50, 0
4, 42504, Note_on_c, 1, 55, 73
4, 42527, Note_on_c, 1, 55, 0
4, 42528, Note_on_c, 1, 47, 73
4, 42595, Note_on_c, 1, 47, 0
4, 42600, Note_on_c, 1, 50, 73
4, 42623, Note_on_c, 1, 50, 0
4, 42624, Note_on_c, 1, 43, 73
4, 42889, Note_on_c, 1, 43, 0
4, 43296, Note_on_c, 1, 67, 68
4, 43296, Note_on_c, 1, 60, 68
4, 43385, Note_on_c, 1, 67, 0
4, 43385, Note_on_c, 1, 60, 0
4, 43392, Note_on_c, 1, 67, 68
4, 43392, Note_on_c, 1, 65, 68
4, 43481, Note_on_c, 1, 67, 0
4, 43481, Note_on_c, 1, 65, 0
4, 43488, Note_on_c, 1, 67, 68
4, 43488, Note_on_c, 1, 64, 68
4, 43577, Note_on_c, 1, 67, 0
4, 43577, Note_on_c, 1, 64, 0
4, 43776, Note_on_c, 1, 67, 68
4, 44064, Note_on_c, 1, 55, 68
4, 44153, Note_on_c, 1, 67, 0
4, 44153, Note_on_c, 1, 55, 0
4, 44448, Note_on_c, 1, 67, 79
4, 44448, Note_on_c, 1, 60, 79
4, 44537, Note_on_c, 1, 67, 0
4, 44537, Note_on_c, 1, 60, 0
4, 44544, Note_on_c, 1, 67, 79
4, 44544, Note_on_c, 1, 65, 79
4, 44633, Note_on_c, 1, 67, 0
4, 44633, Note_on_c, 1, 65, 0
4, 44640, Note_on_c, 1, 67, 79
4, 44640, Note_on_c, 1, 64, 79
4, 44729, Note_on_c, 1, 67, 0
4, 44729, Note_on_c, 1, 64, 0
4, 46368, Note_on_c, 1, 48, 0
4, 46457, Note_on_c, 1, 48, 0
4, 46464, End_track
5, 0, Start_track
5, 0, Program_c, 1, 0
5, 0, Control_c, 1, 7, 127
5, 0, Control_c, 1, 10, 64
5, 576, Note_on_c, 1, 59, 64
5, 753, Note_on_c, 1, 59, 0
5, 768, Note_on_c, 1, 60, 64
5, 857, Note_on_c, 1, 60, 0
5, 2880, Note_on_c, 1, 59, 64
5, 3057, Note_on_c, 1, 59, 0
5, 3072, Note_on_c, 1, 60, 64
5, 3161, Note_on_c, 1, 60, 0
5, 8064, Note_on_c, 1, 59, 64
5, 8241, Note_on_c, 1, 59, 0
5, 8256, Note_on_c, 1, 60, 64
5, 8345, Note_on_c, 1, 60, 0
5, 8928, Note_on_c, 1, 67, 64
5, 9017, Note_on_c, 1, 67, 0
5, 13248, Note_on_c, 1, 59, 64
5, 13425, Note_on_c, 1, 59, 0
5, 13440, Note_on_c, 1, 60, 64
5, 13529, Note_on_c, 1, 60, 0
5, 14112, Note_on_c, 1, 67, 64
5, 14201, Note_on_c, 1, 67, 0
5, 15552, Note_on_c, 1, 66, 64
5, 15729, Note_on_c, 1, 66, 0
5, 15744, Note_on_c, 1, 67, 64
5, 15833, Note_on_c, 1, 67, 0
5, 19008, Note_on_c, 1, 64, 64
5, 19385, Note_on_c, 1, 64, 0
5, 19872, Note_on_c, 1, 52, 64
5, 19961, Note_on_c, 1, 52, 0
5, 20064, Note_on_c, 1, 52, 64
5, 20153, Note_on_c, 1, 52, 0
5, 20160, Note_on_c, 1, 53, 79
5, 20337, Note_on_c, 1, 53, 0
5, 20352, Note_on_c, 1, 54, 82
5, 20441, Note_on_c, 1, 54, 0
5, 20448, Note_on_c, 1, 55, 83
5, 20537, Note_on_c, 1, 55, 0
5, 21312, Note_on_c, 1, 59, 85
5, 21489, Note_on_c, 1, 59, 0
5, 21504, Note_on_c, 1, 60, 85
5, 21593, Note_on_c, 1, 60, 0
5, 23616, Note_on_c, 1, 66, 64
5, 23793, Note_on_c, 1, 66, 0
5, 23808, Note_on_c, 1, 67, 64
5, 23897, Note_on_c, 1, 67, 0
5, 27072, Note_on_c, 1, 64, 64
5, 27449, Note_on_c, 1, 64, 0
5, 27936, Note_on_c, 1, 52, 64
5, 28025, Note_on_c, 1, 52, 0
5, 28128, Note_on_c, 1, 52, 64
5, 28217, Note_on_c, 1, 52, 0
5, 28224, Note_on_c, 1, 53, 79
5, 28401, Note_on_c, 1, 53, 0
5, 28416, Note_on_c, 1, 54, 82
5, 28505, Note_on_c, 1, 54, 0
5, 28512, Note_on_c, 1, 55, 83
5, 28601, Note_on_c, 1, 55, 0
5, 29376, Note_on_c, 1, 59, 85
5, 29553, Note_on_c, 1, 59, 0
5, 29568, Note_on_c, 1, 60, 85
5, 29657, Note_on_c, 1, 60, 0
5, 38592, Note_on_c, 1, 59, 79
5, 38769, Note_on_c, 1, 59, 0
5, 38784, Note_on_c, 1, 60, 79
5, 38873, Note_on_c, 1, 60, 0
5, 41472, Note_on_c, 1, 57, 79
5, 41649, Note_on_c, 1, 57, 0
5, 42048, Note_on_c, 1, 69, 79
5, 42225, Note_on_c, 1, 69, 0
5, 43776, Note_on_c, 1, 59, 79
5, 43953, Note_on_c, 1, 59, 0
5, 43968, Note_on_c, 1, 60, 79
5, 44057, Note_on_c, 1, 60, 0
5, 44832, Note_on_c, 1, 55, 79
5, 44832, Note_on_c, 1, 52, 79
5, 44921, Note_on_c, 1, 55, 0
5, 44921, Note_on_c, 1, 52, 0
5, 44928, Note_on_c, 1, 57, 79
5, 44928, Note_on_c, 1, 53, 79
5, 45017, Note_on_c, 1, 57, 0
5, 45017, Note_on_c, 1, 53, 0
5, 45120, Note_on_c, 1, 65, 79
5, 45120, Note_on_c, 1, 55, 79
5, 45209, Note_on_c, 1, 65, 0
5, 45209, Note_on_c, 1, 55, 0
5, 45216, Note_on_c, 1, 64, 79
5, 45216, Note_on_c, 1, 60, 79
5, 45305, Note_on_c, 1, 64, 0
5, 45305, Note_on_c, 1, 60, 0
5, 45408, Note_on_c, 1, 55, 79
5, 45408, Note_on_c, 1, 52, 79
5, 45497, Note_on_c, 1, 55, 0
5, 45497, Note_on_c, 1, 52, 0
5, 45504, Note_on_c, 1, 57, 79
5, 45504, Note_on_c, 1, 53, 79
5, 45593, Note_on_c, 1, 57, 0
5, 45593, Note_on_c, 1, 53, 0
5, 45696, Note_on_c, 1, 65, 79
5, 45696, Note_on_c, 1, 55, 79
5, 45785, Note_on_c, 1, 65, 0
5, 45785, Note_on_c, 1, 55, 0
5, 45792, Note_on_c, 1, 64, 79
5, 45792, Note_on_c, 1, 60, 79
5, 45881, Note_on_c, 1, 64, 0
5, 45881, Note_on_c, 1, 60, 0
5, 45888, Note_on_c, 1, 60, 79
5, 45888, Note_on_c, 1, 48, 79
5, 45977, Note_on_c, 1, 60, 0
5, 45977, Note_on_c, 1, 48, 0
5, 45984, Note_on_c, 1, 60, 79
5, 45984, Note_on_c, 1, 48, 79
5, 46073, Note_on_c, 1, 60, 0
5, 46073, Note_on_c, 1, 48, 0
5, 46080, Note_on_c, 1, 60, 79
5, 46080, Note_on_c, 1, 48, 79
5, 46169, Note_on_c, 1, 60, 0
5, 46169, Note_on_c, 1, 48, 0
5, 46368, End_track
6, 0, Start_track
6, 0, Title_t, "Piano Solo   <composer>  "
6, 0, End_track
0, 0, End_of_file
