0, 0, Header, 1, 6, 96
1, 0, Start_track
1, 0, Copyright_t, "1780"
1, 0, Text_t, "Sonata I\015\012"
1, 0, Text_t, "Hob. XVI: 35"
1, 0, Sequencer_specific, 16, 68, 87, 77, 90, 86, 82, 83, 78, 32, 55, 46, 49, 46, 49, 46, 48
1, 0, Time_signature, 4, 2, 24, 8
1, 0, Tempo, 1000000
1, 0, Key_signature, -1, "major"
1, 32256, End_track
2, 0, Start_track
2, 0, Program_c, 0, 0
2, 0, Control_c, 0, 7, 127
2, 0, Control_c, 0, 10, 64
2, 0, Note_on_c, 0, 57, 82
2, 12, Note_on_c, 0, 60, 82
2, 24, Note_on_c, 0, 65, 82
2, 67, Note_on_c, 0, 65, 0
2, 67, Note_on_c, 0, 60, 0
2, 67, Note_on_c, 0, 57, 0
2, 72, Note_on_c, 0, 60, 82
2, 95, Note_on_c, 0, 60, 0
2, 96, Note_on_c, 0, 70, 76
2, 119, Note_on_c, 0, 70, 0
2, 120, Note_on_c, 0, 69, 76
2, 143, Note_on_c, 0, 69, 0
2, 144, Note_on_c, 0, 67, 76
2, 167, Note_on_c, 0, 67, 0
2, 168, Note_on_c, 0, 65, 76
2, 191, Note_on_c, 0, 65, 0
2, 192, Note_on_c, 0, 64, 76
2, 212, Note_on_c, 0, 64, 0
2, 240, Note_on_c, 0, 65, 76
2, 260, Note_on_c, 0, 65, 0
2, 288, Note_on_c, 0, 67, 76
2, 308, Note_on_c, 0, 67, 0
2, 336, Note_on_c, 0, 69, 76
2, 356, Note_on_c, 0, 69, 0
2, 384, Note_on_c, 0, 64, 82
2, 396, Note_on_c, 0, 67, 82
2, 408, Note_on_c, 0, 70, 82
2, 451, Note_on_c, 0, 70, 0
2, 451, Note_on_c, 0, 67, 0
2, 451, Note_on_c, 0, 64, 0
2, 456, Note_on_c, 0, 67, 82
2, 479, Note_on_c, 0, 67, 0
2, 480, Note_on_c, 0, 76, 76
2, 503, Note_on_c, 0, 76, 0
2, 504, Note_on_c, 0, 74, 76
2, 527, Note_on_c, 0, 74, 0
2, 528, Note_on_c, 0, 72, 76
2, 551, Note_on_c, 0, 72, 0
2, 552, Note_on_c, 0, 70, 76
2, 575, Note_on_c, 0, 70, 0
2, 576, Note_on_c, 0, 69, 76
2, 596, Note_on_c, 0, 69, 0
2, 624, Note_on_c, 0, 70, 74
2, 644, Note_on_c, 0, 70, 0
2, 672, Note_on_c, 0, 72, 73
2, 692, Note_on_c, 0, 72, 0
2, 720, Note_on_c, 0, 73, 71
2, 740, Note_on_c, 0, 73, 0
2, 768, Note_on_c, 0, 74, 70
2, 835, Note_on_c, 0, 74, 0
2, 840, Note_on_c, 0, 76, 70
2, 863, Note_on_c, 0, 76, 0
2, 864, Note_on_c, 0, 79, 70
2, 887, Note_on_c, 0, 79, 0
2, 888, Note_on_c, 0, 77, 70
2, 911, Note_on_c, 0, 77, 0
2, 912, Note_on_c, 0, 76, 70
2, 935, Note_on_c, 0, 76, 0
2, 936, Note_on_c, 0, 74, 70
2, 959, Note_on_c, 0, 74, 0
2, 960, Note_on_c, 0, 72, 86
2, 1008, Note_on_c, 0, 72, 0
2, 1008, Note_on_c, 0, 72, 70
2, 1053, Note_on_c, 0, 72, 0
2, 1056, Note_on_c, 0, 70, 70
2, 1063, Note_on_c, 0, 70, 0
2, 1063, Note_on_c, 0, 72, 70
2, 1070, Note_on_c, 0, 72, 0
2, 1070, Note_on_c, 0, 70, 70
2, 1077, Note_on_c, 0, 70, 0
2, 1077, Note_on_c, 0, 72, 70
2, 1084, Note_on_c, 0, 72, 0
2, 1084, Note_on_c, 0, 70, 70
2, 1091, Note_on_c, 0, 70, 0
2, 1091, Note_on_c, 0, 69, 70
2, 1098, Note_on_c, 0, 69, 0
2, 1098, Note_on_c, 0, 70, 70
2, 1104, Note_on_c, 0, 70, 0
2, 1104, Note_on_c, 0, 69, 70
2, 1149, Note_on_c, 0, 69, 0
2, 1152, Note_on_c, 0, 67, 70
2, 1197, Note_on_c, 0, 67, 0
2, 1200, Note_on_c, 0, 69, 71
2, 1212, Note_on_c, 0, 69, 0
2, 1212, Note_on_c, 0, 67, 71
2, 1224, Note_on_c, 0, 67, 0
2, 1224, Note_on_c, 0, 66, 72
2, 1236, Note_on_c, 0, 66, 0
2, 1236, Note_on_c, 0, 67, 72
2, 1248, Note_on_c, 0, 67, 0
2, 1248, Note_on_c, 0, 70, 73
2, 1293, Note_on_c, 0, 70, 0
2, 1296, Note_on_c, 0, 74, 74
2, 1341, Note_on_c, 0, 74, 0
2, 1344, Note_on_c, 0, 65, 76
2, 1477, Note_on_c, 0, 65, 0
2, 1488, Note_on_c, 0, 64, 71
2, 1494, Note_on_c, 0, 64, 0
2, 1494, Note_on_c, 0, 65, 71
2, 1500, Note_on_c, 0, 65, 0
2, 1500, Note_on_c, 0, 64, 71
2, 1533, Note_on_c, 0, 64, 0
2, 1536, Note_on_c, 0, 57, 76
2, 1548, Note_on_c, 0, 60, 76
2, 1560, Note_on_c, 0, 65, 76
2, 1603, Note_on_c, 0, 65, 0
2, 1603, Note_on_c, 0, 60, 0
2, 1603, Note_on_c, 0, 57, 0
2, 1608, Note_on_c, 0, 60, 76
2, 1631, Note_on_c, 0, 60, 0
2, 1632, Note_on_c, 0, 70, 76
2, 1655, Note_on_c, 0, 70, 0
2, 1656, Note_on_c, 0, 69, 76
2, 1679, Note_on_c, 0, 69, 0
2, 1680, Note_on_c, 0, 67, 76
2, 1703, Note_on_c, 0, 67, 0
2, 1704, Note_on_c, 0, 65, 76
2, 1727, Note_on_c, 0, 65, 0
2, 1728, Note_on_c, 0, 64, 76
2, 1762, Note_on_c, 0, 64, 0
2, 1764, Note_on_c, 0, 60, 77
2, 1776, Note_on_c, 0, 60, 0
2, 1776, Note_on_c, 0, 65, 77
2, 1810, Note_on_c, 0, 65, 0
2, 1812, Note_on_c, 0, 60, 78
2, 1824, Note_on_c, 0, 60, 0
2, 1824, Note_on_c, 0, 67, 79
2, 1858, Note_on_c, 0, 67, 0
2, 1860, Note_on_c, 0, 60, 80
2, 1872, Note_on_c, 0, 60, 0
2, 1872, Note_on_c, 0, 69, 80
2, 1906, Note_on_c, 0, 69, 0
2, 1908, Note_on_c, 0, 60, 81
2, 1920, Note_on_c, 0, 60, 0
2, 1920, Note_on_c, 0, 70, 98
2, 1992, Note_on_c, 0, 70, 0
2, 1992, Note_on_c, 0, 67, 76
2, 2015, Note_on_c, 0, 67, 0
2, 2016, Note_on_c, 0, 76, 76
2, 2039, Note_on_c, 0, 76, 0
2, 2040, Note_on_c, 0, 74, 76
2, 2063, Note_on_c, 0, 74, 0
2, 2064, Note_on_c, 0, 72, 76
2, 2087, Note_on_c, 0, 72, 0
2, 2088, Note_on_c, 0, 70, 76
2, 2111, Note_on_c, 0, 70, 0
2, 2112, Note_on_c, 0, 69, 76
2, 2132, Note_on_c, 0, 69, 0
2, 2160, Note_on_c, 0, 70, 76
2, 2180, Note_on_c, 0, 70, 0
2, 2208, Note_on_c, 0, 72, 76
2, 2228, Note_on_c, 0, 72, 0
2, 2256, Note_on_c, 0, 73, 76
2, 2276, Note_on_c, 0, 73, 0
2, 2328, Note_on_c, 0, 73, 76
2, 2351, Note_on_c, 0, 73, 0
2, 2352, Note_on_c, 0, 74, 76
2, 2375, Note_on_c, 0, 74, 0
2, 2376, Note_on_c, 0, 76, 77
2, 2399, Note_on_c, 0, 76, 0
2, 2400, Note_on_c, 0, 77, 77
2, 2423, Note_on_c, 0, 77, 0
2, 2424, Note_on_c, 0, 78, 78
2, 2447, Note_on_c, 0, 78, 0
2, 2448, Note_on_c, 0, 79, 78
2, 2471, Note_on_c, 0, 79, 0
2, 2472, Note_on_c, 0, 81, 79
2, 2495, Note_on_c, 0, 81, 0
2, 2496, Note_on_c, 0, 82, 79
2, 2519, Note_on_c, 0, 82, 0
2, 2520, Note_on_c, 0, 83, 80
2, 2543, Note_on_c, 0, 83, 0
2, 2544, Note_on_c, 0, 84, 80
2, 2567, Note_on_c, 0, 84, 0
2, 2568, Note_on_c, 0, 85, 81
2, 2591, Note_on_c, 0, 85, 0
2, 2592, Note_on_c, 0, 86, 97
2, 2616, Note_on_c, 0, 86, 0
2, 2616, Note_on_c, 0, 81, 82
2, 2639, Note_on_c, 0, 81, 0
2, 2640, Note_on_c, 0, 82, 82
2, 2663, Note_on_c, 0, 82, 0
2, 2664, Note_on_c, 0, 79, 81
2, 2687, Note_on_c, 0, 79, 0
2, 2688, Note_on_c, 0, 77, 81
2, 2821, Note_on_c, 0, 77, 0
2, 2832, Note_on_c, 0, 79, 78
2, 2855, Note_on_c, 0, 79, 0
2, 2856, Note_on_c, 0, 77, 78
2, 2879, Note_on_c, 0, 77, 0
2, 2880, Note_on_c, 0, 76, 77
2, 2969, Note_on_c, 0, 76, 0
2, 3072, Note_on_c, 0, 79, 76
2, 3161, Note_on_c, 0, 79, 0
2, 3168, Note_on_c, 0, 77, 76
2, 3191, Note_on_c, 0, 77, 0
2, 3192, Note_on_c, 0, 76, 76
2, 3215, Note_on_c, 0, 76, 0
2, 3216, Note_on_c, 0, 74, 76
2, 3239, Note_on_c, 0, 74, 0
2, 3240, Note_on_c, 0, 72, 76
2, 3263, Note_on_c, 0, 72, 0
2, 3264, Note_on_c, 0, 72, 76
2, 3360, Note_on_c, 0, 72, 0
2, 3360, Note_on_c, 0, 71, 76
2, 3366, Note_on_c, 0, 71, 0
2, 3366, Note_on_c, 0, 72, 76
2, 3372, Note_on_c, 0, 72, 0
2, 3372, Note_on_c, 0, 71, 76
2, 3427, Note_on_c, 0, 71, 0
2, 3432, Note_on_c, 0, 71, 76
2, 3455, Note_on_c, 0, 71, 0
2, 3456, Note_on_c, 0, 72, 76
2, 3479, Note_on_c, 0, 72, 0
2, 3480, Note_on_c, 0, 74, 76
2, 3503, Note_on_c, 0, 74, 0
2, 3504, Note_on_c, 0, 76, 77
2, 3527, Note_on_c, 0, 76, 0
2, 3528, Note_on_c, 0, 77, 78
2, 3551, Note_on_c, 0, 77, 0
2, 3552, Note_on_c, 0, 79, 79
2, 3575, Note_on_c, 0, 79, 0
2, 3576, Note_on_c, 0, 81, 80
2, 3599, Note_on_c, 0, 81, 0
2, 3600, Note_on_c, 0, 83, 81
2, 3623, Note_on_c, 0, 83, 0
2, 3624, Note_on_c, 0, 84, 82
2, 3647, Note_on_c, 0, 84, 0
2, 3648, Note_on_c, 0, 84, 97
2, 3672, Note_on_c, 0, 84, 0
2, 3672, Note_on_c, 0, 83, 80
2, 3695, Note_on_c, 0, 83, 0
2, 3696, Note_on_c, 0, 81, 79
2, 3719, Note_on_c, 0, 81, 0
2, 3720, Note_on_c, 0, 79, 79
2, 3743, Note_on_c, 0, 79, 0
2, 3744, Note_on_c, 0, 79, 94
2, 3768, Note_on_c, 0, 79, 0
2, 3768, Note_on_c, 0, 77, 77
2, 3791, Note_on_c, 0, 77, 0
2, 3792, Note_on_c, 0, 76, 76
2, 3815, Note_on_c, 0, 76, 0
2, 3816, Note_on_c, 0, 74, 76
2, 3839, Note_on_c, 0, 74, 0
2, 3840, Note_on_c, 0, 79, 76
2, 3907, Note_on_c, 0, 79, 0
2, 3912, Note_on_c, 0, 81, 76
2, 3924, Note_on_c, 0, 81, 0
2, 3924, Note_on_c, 0, 79, 76
2, 3936, Note_on_c, 0, 79, 0
2, 3936, Note_on_c, 0, 77, 76
2, 3959, Note_on_c, 0, 77, 0
2, 3960, Note_on_c, 0, 76, 76
2, 3983, Note_on_c, 0, 76, 0
2, 3984, Note_on_c, 0, 74, 76
2, 4007, Note_on_c, 0, 74, 0
2, 4008, Note_on_c, 0, 72, 76
2, 4031, Note_on_c, 0, 72, 0
2, 4032, Note_on_c, 0, 72, 76
2, 4128, Note_on_c, 0, 72, 0
2, 4128, Note_on_c, 0, 71, 76
2, 4134, Note_on_c, 0, 71, 0
2, 4134, Note_on_c, 0, 72, 76
2, 4140, Note_on_c, 0, 72, 0
2, 4140, Note_on_c, 0, 71, 76
2, 4195, Note_on_c, 0, 71, 0
2, 4200, Note_on_c, 0, 77, 76
2, 4223, Note_on_c, 0, 77, 0
2, 4224, Note_on_c, 0, 76, 76
2, 4234, Note_on_c, 0, 76, 0
2, 4248, Note_on_c, 0, 77, 76
2, 4258, Note_on_c, 0, 77, 0
2, 4272, Note_on_c, 0, 79, 77
2, 4282, Note_on_c, 0, 79, 0
2, 4296, Note_on_c, 0, 81, 78
2, 4306, Note_on_c, 0, 81, 0
2, 4320, Note_on_c, 0, 83, 79
2, 4330, Note_on_c, 0, 83, 0
2, 4344, Note_on_c, 0, 84, 79
2, 4354, Note_on_c, 0, 84, 0
2, 4368, Note_on_c, 0, 83, 80
2, 4378, Note_on_c, 0, 83, 0
2, 4392, Note_on_c, 0, 84, 81
2, 4402, Note_on_c, 0, 84, 0
2, 4416, Note_on_c, 0, 84, 98
2, 4440, Note_on_c, 0, 84, 0
2, 4440, Note_on_c, 0, 83, 85
2, 4463, Note_on_c, 0, 83, 0
2, 4464, Note_on_c, 0, 81, 88
2, 4487, Note_on_c, 0, 81, 0
2, 4488, Note_on_c, 0, 79, 91
2, 4511, Note_on_c, 0, 79, 0
2, 4512, Note_on_c, 0, 79, 110
2, 4536, Note_on_c, 0, 79, 0
2, 4536, Note_on_c, 0, 81, 98
2, 4548, Note_on_c, 0, 81, 0
2, 4548, Note_on_c, 0, 79, 99
2, 4560, Note_on_c, 0, 79, 0
2, 4560, Note_on_c, 0, 79, 101
2, 4572, Note_on_c, 0, 79, 0
2, 4572, Note_on_c, 0, 77, 102
2, 4584, Note_on_c, 0, 77, 0
2, 4584, Note_on_c, 0, 76, 104
2, 4596, Note_on_c, 0, 76, 0
2, 4596, Note_on_c, 0, 74, 106
2, 4608, Note_on_c, 0, 74, 0
2, 4608, Note_on_c, 0, 76, 76
2, 4631, Note_on_c, 0, 76, 0
2, 4632, Note_on_c, 0, 77, 76
2, 4655, Note_on_c, 0, 77, 0
2, 4656, Note_on_c, 0, 76, 77
2, 4679, Note_on_c, 0, 76, 0
2, 4680, Note_on_c, 0, 77, 78
2, 4703, Note_on_c, 0, 77, 0
2, 4704, Note_on_c, 0, 79, 79
2, 4727, Note_on_c, 0, 79, 0
2, 4728, Note_on_c, 0, 81, 79
2, 4751, Note_on_c, 0, 81, 0
2, 4752, Note_on_c, 0, 79, 80
2, 4775, Note_on_c, 0, 79, 0
2, 4776, Note_on_c, 0, 81, 81
2, 4799, Note_on_c, 0, 81, 0
2, 4800, Note_on_c, 0, 82, 98
2, 4800, Note_on_c, 0, 70, 98
2, 4992, Note_on_c, 0, 82, 0
2, 4992, Note_on_c, 0, 70, 0
2, 5016, Note_on_c, 0, 81, 82
2, 5039, Note_on_c, 0, 81, 0
2, 5040, Note_on_c, 0, 80, 82
2, 5063, Note_on_c, 0, 80, 0
2, 5064, Note_on_c, 0, 81, 82
2, 5087, Note_on_c, 0, 81, 0
2, 5112, Note_on_c, 0, 79, 82
2, 5135, Note_on_c, 0, 79, 0
2, 5136, Note_on_c, 0, 78, 82
2, 5159, Note_on_c, 0, 78, 0
2, 5160, Note_on_c, 0, 79, 82
2, 5183, Note_on_c, 0, 79, 0
2, 5208, Note_on_c, 0, 78, 82
2, 5231, Note_on_c, 0, 78, 0
2, 5232, Note_on_c, 0, 79, 82
2, 5238, Note_on_c, 0, 79, 0
2, 5238, Note_on_c, 0, 78, 82
2, 5244, Note_on_c, 0, 78, 0
2, 5244, Note_on_c, 0, 76, 82
2, 5250, Note_on_c, 0, 76, 0
2, 5250, Note_on_c, 0, 78, 82
2, 5277, Note_on_c, 0, 78, 0
2, 5304, Note_on_c, 0, 77, 82
2, 5327, Note_on_c, 0, 77, 0
2, 5328, Note_on_c, 0, 79, 82
2, 5334, Note_on_c, 0, 79, 0
2, 5334, Note_on_c, 0, 77, 82
2, 5340, Note_on_c, 0, 77, 0
2, 5340, Note_on_c, 0, 76, 82
2, 5346, Note_on_c, 0, 76, 0
2, 5346, Note_on_c, 0, 77, 82
2, 5373, Note_on_c, 0, 77, 0
2, 5400, Note_on_c, 0, 76, 82
2, 5423, Note_on_c, 0, 76, 0
2, 5424, Note_on_c, 0, 77, 85
2, 5447, Note_on_c, 0, 77, 0
2, 5448, Note_on_c, 0, 79, 88
2, 5471, Note_on_c, 0, 79, 0
2, 5472, Note_on_c, 0, 79, 92
2, 5495, Note_on_c, 0, 79, 0
2, 5496, Note_on_c, 0, 69, 95
2, 5519, Note_on_c, 0, 69, 0
2, 5520, Note_on_c, 0, 77, 99
2, 5543, Note_on_c, 0, 77, 0
2, 5544, Note_on_c, 0, 74, 102
2, 5567, Note_on_c, 0, 74, 0
2, 5568, Note_on_c, 0, 72, 106
2, 5657, Note_on_c, 0, 72, 0
2, 5664, Note_on_c, 0, 72, 94
2, 5671, Note_on_c, 0, 72, 0
2, 5671, Note_on_c, 0, 71, 93
2, 5678, Note_on_c, 0, 71, 0
2, 5678, Note_on_c, 0, 72, 92
2, 5685, Note_on_c, 0, 72, 0
2, 5685, Note_on_c, 0, 71, 91
2, 5692, Note_on_c, 0, 71, 0
2, 5692, Note_on_c, 0, 72, 91
2, 5699, Note_on_c, 0, 72, 0
2, 5699, Note_on_c, 0, 71, 90
2, 5706, Note_on_c, 0, 71, 0
2, 5706, Note_on_c, 0, 72, 89
2, 5713, Note_on_c, 0, 72, 0
2, 5713, Note_on_c, 0, 71, 88
2, 5720, Note_on_c, 0, 71, 0
2, 5720, Note_on_c, 0, 72, 88
2, 5727, Note_on_c, 0, 72, 0
2, 5727, Note_on_c, 0, 71, 87
2, 5734, Note_on_c, 0, 71, 0
2, 5734, Note_on_c, 0, 69, 86
2, 5748, Note_on_c, 0, 69, 0
2, 5748, Note_on_c, 0, 71, 85
2, 5760, Note_on_c, 0, 71, 0
2, 5784, Note_on_c, 0, 84, 82
2, 5807, Note_on_c, 0, 84, 0
2, 5808, Note_on_c, 0, 88, 85
2, 5831, Note_on_c, 0, 88, 0
2, 5832, Note_on_c, 0, 84, 88
2, 5855, Note_on_c, 0, 84, 0
2, 5856, Note_on_c, 0, 83, 92
2, 5879, Note_on_c, 0, 83, 0
2, 5880, Note_on_c, 0, 81, 95
2, 5903, Note_on_c, 0, 81, 0
2, 5904, Note_on_c, 0, 79, 99
2, 5927, Note_on_c, 0, 79, 0
2, 5928, Note_on_c, 0, 77, 102
2, 5951, Note_on_c, 0, 77, 0
2, 5952, Note_on_c, 0, 76, 106
2, 6041, Note_on_c, 0, 76, 0
2, 6048, Note_on_c, 0, 76, 106
2, 6055, Note_on_c, 0, 76, 0
2, 6055, Note_on_c, 0, 74, 104
2, 6062, Note_on_c, 0, 74, 0
2, 6062, Note_on_c, 0, 76, 103
2, 6069, Note_on_c, 0, 76, 0
2, 6069, Note_on_c, 0, 74, 101
2, 6076, Note_on_c, 0, 74, 0
2, 6076, Note_on_c, 0, 76, 100
2, 6083, Note_on_c, 0, 76, 0
2, 6083, Note_on_c, 0, 74, 98
2, 6090, Note_on_c, 0, 74, 0
2, 6090, Note_on_c, 0, 76, 97
2, 6097, Note_on_c, 0, 76, 0
2, 6097, Note_on_c, 0, 74, 95
2, 6104, Note_on_c, 0, 74, 0
2, 6104, Note_on_c, 0, 76, 94
2, 6111, Note_on_c, 0, 76, 0
2, 6111, Note_on_c, 0, 74, 92
2, 6118, Note_on_c, 0, 74, 0
2, 6118, Note_on_c, 0, 72, 91
2, 6132, Note_on_c, 0, 72, 0
2, 6132, Note_on_c, 0, 74, 88
2, 6144, Note_on_c, 0, 74, 0
2, 6144, Note_on_c, 0, 72, 82
2, 6189, Note_on_c, 0, 72, 0
2, 6192, Note_on_c, 0, 76, 70
2, 6192, Note_on_c, 0, 72, 70
2, 6212, Note_on_c, 0, 76, 0
2, 6212, Note_on_c, 0, 72, 0
2, 6240, Note_on_c, 0, 76, 70
2, 6240, Note_on_c, 0, 72, 70
2, 6260, Note_on_c, 0, 76, 0
2, 6260, Note_on_c, 0, 72, 0
2, 6288, Note_on_c, 0, 76, 70
2, 6288, Note_on_c, 0, 72, 70
2, 6308, Note_on_c, 0, 76, 0
2, 6308, Note_on_c, 0, 72, 0
2, 6336, Note_on_c, 0, 72, 70
2, 6381, Note_on_c, 0, 72, 0
2, 6384, Note_on_c, 0, 79, 70
2, 6384, Note_on_c, 0, 76, 70
2, 6429, Note_on_c, 0, 79, 0
2, 6429, Note_on_c, 0, 76, 0
2, 6432, Note_on_c, 0, 76, 70
2, 6432, Note_on_c, 0, 72, 70
2, 6477, Note_on_c, 0, 76, 0
2, 6477, Note_on_c, 0, 72, 0
2, 6480, Note_on_c, 0, 72, 70
2, 6480, Note_on_c, 0, 69, 70
2, 6525, Note_on_c, 0, 72, 0
2, 6525, Note_on_c, 0, 69, 0
2, 6528, Note_on_c, 0, 69, 70
2, 6528, Note_on_c, 0, 65, 70
2, 6647, Note_on_c, 0, 69, 0
2, 6647, Note_on_c, 0, 65, 0
2, 6648, Note_on_c, 0, 69, 82
2, 6648, Note_on_c, 0, 65, 82
2, 6658, Note_on_c, 0, 69, 0
2, 6658, Note_on_c, 0, 65, 0
2, 6672, Note_on_c, 0, 71, 82
2, 6672, Note_on_c, 0, 67, 82
2, 6682, Note_on_c, 0, 71, 0
2, 6682, Note_on_c, 0, 67, 0
2, 6696, Note_on_c, 0, 72, 82
2, 6696, Note_on_c, 0, 69, 82
2, 6706, Note_on_c, 0, 72, 0
2, 6706, Note_on_c, 0, 69, 0
2, 6720, Note_on_c, 0, 72, 70
2, 6720, Note_on_c, 0, 69, 70
2, 6744, Note_on_c, 0, 72, 0
2, 6744, Note_on_c, 0, 69, 0
2, 6744, Note_on_c, 0, 71, 68
2, 6744, Note_on_c, 0, 67, 68
2, 6767, Note_on_c, 0, 71, 0
2, 6767, Note_on_c, 0, 67, 0
2, 6768, Note_on_c, 0, 69, 67
2, 6768, Note_on_c, 0, 65, 67
2, 6778, Note_on_c, 0, 69, 0
2, 6778, Note_on_c, 0, 65, 0
2, 6792, Note_on_c, 0, 67, 66
2, 6792, Note_on_c, 0, 64, 66
2, 6802, Note_on_c, 0, 67, 0
2, 6802, Note_on_c, 0, 64, 0
2, 6816, Note_on_c, 0, 67, 65
2, 6816, Note_on_c, 0, 64, 65
2, 6840, Note_on_c, 0, 67, 0
2, 6840, Note_on_c, 0, 64, 0
2, 6840, Note_on_c, 0, 65, 64
2, 6840, Note_on_c, 0, 62, 64
2, 6863, Note_on_c, 0, 65, 0
2, 6863, Note_on_c, 0, 62, 0
2, 6864, Note_on_c, 0, 64, 63
2, 6864, Note_on_c, 0, 60, 63
2, 6874, Note_on_c, 0, 64, 0
2, 6874, Note_on_c, 0, 60, 0
2, 6888, Note_on_c, 0, 62, 62
2, 6888, Note_on_c, 0, 59, 62
2, 6898, Note_on_c, 0, 62, 0
2, 6898, Note_on_c, 0, 59, 0
2, 6912, Control_c, 0, 64, 127
2, 6960, Note_on_c, 0, 72, 61
2, 6975, Note_on_c, 0, 72, 0
2, 6976, Note_on_c, 0, 76, 61
2, 6991, Note_on_c, 0, 76, 0
2, 6992, Note_on_c, 0, 84, 61
2, 7007, Note_on_c, 0, 84, 0
2, 7008, Note_on_c, 0, 72, 61
2, 7023, Note_on_c, 0, 72, 0
2, 7024, Note_on_c, 0, 76, 61
2, 7039, Note_on_c, 0, 76, 0
2, 7040, Note_on_c, 0, 84, 61
2, 7055, Note_on_c, 0, 84, 0
2, 7056, Note_on_c, 0, 72, 61
2, 7071, Note_on_c, 0, 72, 0
2, 7072, Note_on_c, 0, 76, 61
2, 7087, Note_on_c, 0, 76, 0
2, 7088, Note_on_c, 0, 84, 61
2, 7103, Note_on_c, 0, 84, 0
2, 7104, Note_on_c, 0, 72, 61
2, 7119, Note_on_c, 0, 72, 0
2, 7120, Note_on_c, 0, 76, 61
2, 7135, Note_on_c, 0, 76, 0
2, 7136, Note_on_c, 0, 84, 61
2, 7151, Note_on_c, 0, 84, 0
2, 7152, Note_on_c, 0, 76, 61
2, 7167, Note_on_c, 0, 76, 0
2, 7168, Note_on_c, 0, 79, 61
2, 7183, Note_on_c, 0, 79, 0
2, 7184, Note_on_c, 0, 88, 61
2, 7199, Note_on_c, 0, 88, 0
2, 7200, Note_on_c, 0, 72, 61
2, 7215, Note_on_c, 0, 72, 0
2, 7216, Note_on_c, 0, 76, 61
2, 7231, Note_on_c, 0, 76, 0
2, 7232, Note_on_c, 0, 84, 61
2, 7247, Note_on_c, 0, 84, 0
2, 7248, Note_on_c, 0, 69, 61
2, 7263, Note_on_c, 0, 69, 0
2, 7264, Note_on_c, 0, 72, 61
2, 7279, Note_on_c, 0, 72, 0
2, 7280, Note_on_c, 0, 81, 61
2, 7295, Note_on_c, 0, 81, 0
2, 7296, Control_c, 0, 64, 0
2, 7296, Note_on_c, 0, 65, 70
2, 7415, Note_on_c, 0, 65, 0
2, 7416, Note_on_c, 0, 72, 82
2, 7416, Note_on_c, 0, 69, 82
2, 7426, Note_on_c, 0, 72, 0
2, 7426, Note_on_c, 0, 69, 0
2, 7440, Note_on_c, 0, 71, 82
2, 7440, Note_on_c, 0, 67, 82
2, 7450, Note_on_c, 0, 71, 0
2, 7450, Note_on_c, 0, 67, 0
2, 7464, Note_on_c, 0, 69, 82
2, 7464, Note_on_c, 0, 65, 82
2, 7474, Note_on_c, 0, 69, 0
2, 7474, Note_on_c, 0, 65, 0
2, 7488, Note_on_c, 0, 69, 82
2, 7488, Note_on_c, 0, 65, 82
2, 7512, Note_on_c, 0, 69, 0
2, 7512, Note_on_c, 0, 65, 0
2, 7512, Note_on_c, 0, 67, 81
2, 7512, Note_on_c, 0, 64, 81
2, 7535, Note_on_c, 0, 67, 0
2, 7535, Note_on_c, 0, 64, 0
2, 7536, Note_on_c, 0, 65, 80
2, 7536, Note_on_c, 0, 62, 80
2, 7546, Note_on_c, 0, 65, 0
2, 7546, Note_on_c, 0, 62, 0
2, 7560, Note_on_c, 0, 64, 79
2, 7560, Note_on_c, 0, 60, 79
2, 7570, Note_on_c, 0, 64, 0
2, 7570, Note_on_c, 0, 60, 0
2, 7584, Note_on_c, 0, 64, 79
2, 7608, Note_on_c, 0, 64, 0
2, 7608, Note_on_c, 0, 62, 78
2, 7631, Note_on_c, 0, 62, 0
2, 7632, Note_on_c, 0, 60, 77
2, 7642, Note_on_c, 0, 60, 0
2, 7656, Note_on_c, 0, 59, 76
2, 7656, Note_on_c, 0, 53, 76
2, 7666, Note_on_c, 0, 59, 0
2, 7666, Note_on_c, 0, 53, 0
2, 8064, Note_on_c, 0, 57, 82
2, 8076, Note_on_c, 0, 60, 82
2, 8088, Note_on_c, 0, 65, 82
2, 8131, Note_on_c, 0, 65, 0
2, 8131, Note_on_c, 0, 60, 0
2, 8131, Note_on_c, 0, 57, 0
2, 8136, Note_on_c, 0, 60, 82
2, 8159, Note_on_c, 0, 60, 0
2, 8160, Note_on_c, 0, 70, 76
2, 8183, Note_on_c, 0, 70, 0
2, 8184, Note_on_c, 0, 69, 76
2, 8207, Note_on_c, 0, 69, 0
2, 8208, Note_on_c, 0, 67, 76
2, 8231, Note_on_c, 0, 67, 0
2, 8232, Note_on_c, 0, 65, 76
2, 8255, Note_on_c, 0, 65, 0
2, 8256, Note_on_c, 0, 64, 76
2, 8276, Note_on_c, 0, 64, 0
2, 8304, Note_on_c, 0, 65, 76
2, 8324, Note_on_c, 0, 65, 0
2, 8352, Note_on_c, 0, 67, 76
2, 8372, Note_on_c, 0, 67, 0
2, 8400, Note_on_c, 0, 69, 76
2, 8420, Note_on_c, 0, 69, 0
2, 8448, Note_on_c, 0, 64, 82
2, 8460, Note_on_c, 0, 67, 82
2, 8472, Note_on_c, 0, 70, 82
2, 8515, Note_on_c, 0, 70, 0
2, 8515, Note_on_c, 0, 67, 0
2, 8515, Note_on_c, 0, 64, 0
2, 8520, Note_on_c, 0, 67, 82
2, 8543, Note_on_c, 0, 67, 0
2, 8544, Note_on_c, 0, 76, 76
2, 8567, Note_on_c, 0, 76, 0
2, 8568, Note_on_c, 0, 74, 76
2, 8591, Note_on_c, 0, 74, 0
2, 8592, Note_on_c, 0, 72, 76
2, 8615, Note_on_c, 0, 72, 0
2, 8616, Note_on_c, 0, 70, 76
2, 8639, Note_on_c, 0, 70, 0
2, 8640, Note_on_c, 0, 69, 76
2, 8660, Note_on_c, 0, 69, 0
2, 8688, Note_on_c, 0, 70, 74
2, 8708, Note_on_c, 0, 70, 0
2, 8736, Note_on_c, 0, 72, 73
2, 8756, Note_on_c, 0, 72, 0
2, 8784, Note_on_c, 0, 73, 71
2, 8804, Note_on_c, 0, 73, 0
2, 8832, Note_on_c, 0, 74, 70
2, 8899, Note_on_c, 0, 74, 0
2, 8904, Note_on_c, 0, 76, 70
2, 8927, Note_on_c, 0, 76, 0
2, 8928, Note_on_c, 0, 79, 70
2, 8951, Note_on_c, 0, 79, 0
2, 8952, Note_on_c, 0, 77, 70
2, 8975, Note_on_c, 0, 77, 0
2, 8976, Note_on_c, 0, 76, 70
2, 8999, Note_on_c, 0, 76, 0
2, 9000, Note_on_c, 0, 74, 70
2, 9023, Note_on_c, 0, 74, 0
2, 9024, Note_on_c, 0, 72, 86
2, 9072, Note_on_c, 0, 72, 0
2, 9072, Note_on_c, 0, 72, 70
2, 9117, Note_on_c, 0, 72, 0
2, 9120, Note_on_c, 0, 70, 70
2, 9127, Note_on_c, 0, 70, 0
2, 9127, Note_on_c, 0, 72, 70
2, 9134, Note_on_c, 0, 72, 0
2, 9134, Note_on_c, 0, 70, 70
2, 9141, Note_on_c, 0, 70, 0
2, 9141, Note_on_c, 0, 72, 70
2, 9148, Note_on_c, 0, 72, 0
2, 9148, Note_on_c, 0, 70, 70
2, 9155, Note_on_c, 0, 70, 0
2, 9155, Note_on_c, 0, 69, 70
2, 9162, Note_on_c, 0, 69, 0
2, 9162, Note_on_c, 0, 70, 70
2, 9168, Note_on_c, 0, 70, 0
2, 9168, Note_on_c, 0, 69, 70
2, 9213, Note_on_c, 0, 69, 0
2, 9216, Note_on_c, 0, 67, 70
2, 9261, Note_on_c, 0, 67, 0
2, 9264, Note_on_c, 0, 69, 71
2, 9276, Note_on_c, 0, 69, 0
2, 9276, Note_on_c, 0, 67, 71
2, 9288, Note_on_c, 0, 67, 0
2, 9288, Note_on_c, 0, 66, 72
2, 9300, Note_on_c, 0, 66, 0
2, 9300, Note_on_c, 0, 67, 72
2, 9312, Note_on_c, 0, 67, 0
2, 9312, Note_on_c, 0, 70, 73
2, 9357, Note_on_c, 0, 70, 0
2, 9360, Note_on_c, 0, 74, 74
2, 9405, Note_on_c, 0, 74, 0
2, 9408, Note_on_c, 0, 65, 76
2, 9541, Note_on_c, 0, 65, 0
2, 9552, Note_on_c, 0, 64, 71
2, 9558, Note_on_c, 0, 64, 0
2, 9558, Note_on_c, 0, 65, 71
2, 9564, Note_on_c, 0, 65, 0
2, 9564, Note_on_c, 0, 64, 71
2, 9597, Note_on_c, 0, 64, 0
2, 9600, Note_on_c, 0, 57, 76
2, 9612, Note_on_c, 0, 60, 76
2, 9624, Note_on_c, 0, 65, 76
2, 9667, Note_on_c, 0, 65, 0
2, 9667, Note_on_c, 0, 60, 0
2, 9667, Note_on_c, 0, 57, 0
2, 9672, Note_on_c, 0, 60, 76
2, 9695, Note_on_c, 0, 60, 0
2, 9696, Note_on_c, 0, 70, 76
2, 9719, Note_on_c, 0, 70, 0
2, 9720, Note_on_c, 0, 69, 76
2, 9743, Note_on_c, 0, 69, 0
2, 9744, Note_on_c, 0, 67, 76
2, 9767, Note_on_c, 0, 67, 0
2, 9768, Note_on_c, 0, 65, 76
2, 9791, Note_on_c, 0, 65, 0
2, 9792, Note_on_c, 0, 64, 76
2, 9826, Note_on_c, 0, 64, 0
2, 9828, Note_on_c, 0, 60, 77
2, 9840, Note_on_c, 0, 60, 0
2, 9840, Note_on_c, 0, 65, 77
2, 9874, Note_on_c, 0, 65, 0
2, 9876, Note_on_c, 0, 60, 78
2, 9888, Note_on_c, 0, 60, 0
2, 9888, Note_on_c, 0, 67, 79
2, 9922, Note_on_c, 0, 67, 0
2, 9924, Note_on_c, 0, 60, 80
2, 9936, Note_on_c, 0, 60, 0
2, 9936, Note_on_c, 0, 69, 80
2, 9970, Note_on_c, 0, 69, 0
2, 9972, Note_on_c, 0, 60, 81
2, 9984, Note_on_c, 0, 60, 0
2, 9984, Note_on_c, 0, 70, 98
2, 10056, Note_on_c, 0, 70, 0
2, 10056, Note_on_c, 0, 67, 76
2, 10079, Note_on_c, 0, 67, 0
2, 10080, Note_on_c, 0, 76, 76
2, 10103, Note_on_c, 0, 76, 0
2, 10104, Note_on_c, 0, 74, 76
2, 10127, Note_on_c, 0, 74, 0
2, 10128, Note_on_c, 0, 72, 76
2, 10151, Note_on_c, 0, 72, 0
2, 10152, Note_on_c, 0, 70, 76
2, 10175, Note_on_c, 0, 70, 0
2, 10176, Note_on_c, 0, 69, 76
2, 10196, Note_on_c, 0, 69, 0
2, 10224, Note_on_c, 0, 70, 76
2, 10244, Note_on_c, 0, 70, 0
2, 10272, Note_on_c, 0, 72, 76
2, 10292, Note_on_c, 0, 72, 0
2, 10320, Note_on_c, 0, 73, 76
2, 10340, Note_on_c, 0, 73, 0
2, 10392, Note_on_c, 0, 73, 76
2, 10415, Note_on_c, 0, 73, 0
2, 10416, Note_on_c, 0, 74, 76
2, 10439, Note_on_c, 0, 74, 0
2, 10440, Note_on_c, 0, 76, 77
2, 10463, Note_on_c, 0, 76, 0
2, 10464, Note_on_c, 0, 77, 77
2, 10487, Note_on_c, 0, 77, 0
2, 10488, Note_on_c, 0, 78, 78
2, 10511, Note_on_c, 0, 78, 0
2, 10512, Note_on_c, 0, 79, 78
2, 10535, Note_on_c, 0, 79, 0
2, 10536, Note_on_c, 0, 81, 79
2, 10559, Note_on_c, 0, 81, 0
2, 10560, Note_on_c, 0, 82, 79
2, 10583, Note_on_c, 0, 82, 0
2, 10584, Note_on_c, 0, 83, 80
2, 10607, Note_on_c, 0, 83, 0
2, 10608, Note_on_c, 0, 84, 80
2, 10631, Note_on_c, 0, 84, 0
2, 10632, Note_on_c, 0, 85, 81
2, 10655, Note_on_c, 0, 85, 0
2, 10656, Note_on_c, 0, 86, 97
2, 10680, Note_on_c, 0, 86, 0
2, 10680, Note_on_c, 0, 81, 82
2, 10703, Note_on_c, 0, 81, 0
2, 10704, Note_on_c, 0, 82, 82
2, 10727, Note_on_c, 0, 82, 0
2, 10728, Note_on_c, 0, 79, 81
2, 10751, Note_on_c, 0, 79, 0
2, 10752, Note_on_c, 0, 77, 81
2, 10885, Note_on_c, 0, 77, 0
2, 10896, Note_on_c, 0, 79, 78
2, 10919, Note_on_c, 0, 79, 0
2, 10920, Note_on_c, 0, 77, 78
2, 10943, Note_on_c, 0, 77, 0
2, 10944, Note_on_c, 0, 76, 77
2, 11033, Note_on_c, 0, 76, 0
2, 11136, Note_on_c, 0, 79, 76
2, 11225, Note_on_c, 0, 79, 0
2, 11232, Note_on_c, 0, 77, 76
2, 11255, Note_on_c, 0, 77, 0
2, 11256, Note_on_c, 0, 76, 76
2, 11279, Note_on_c, 0, 76, 0
2, 11280, Note_on_c, 0, 74, 76
2, 11303, Note_on_c, 0, 74, 0
2, 11304, Note_on_c, 0, 72, 76
2, 11327, Note_on_c, 0, 72, 0
2, 11328, Note_on_c, 0, 72, 76
2, 11424, Note_on_c, 0, 72, 0
2, 11424, Note_on_c, 0, 71, 76
2, 11430, Note_on_c, 0, 71, 0
2, 11430, Note_on_c, 0, 72, 76
2, 11436, Note_on_c, 0, 72, 0
2, 11436, Note_on_c, 0, 71, 76
2, 11491, Note_on_c, 0, 71, 0
2, 11496, Note_on_c, 0, 71, 76
2, 11519, Note_on_c, 0, 71, 0
2, 11520, Note_on_c, 0, 72, 76
2, 11543, Note_on_c, 0, 72, 0
2, 11544, Note_on_c, 0, 74, 76
2, 11567, Note_on_c, 0, 74, 0
2, 11568, Note_on_c, 0, 76, 77
2, 11591, Note_on_c, 0, 76, 0
2, 11592, Note_on_c, 0, 77, 78
2, 11615, Note_on_c, 0, 77, 0
2, 11616, Note_on_c, 0, 79, 79
2, 11639, Note_on_c, 0, 79, 0
2, 11640, Note_on_c, 0, 81, 80
2, 11663, Note_on_c, 0, 81, 0
2, 11664, Note_on_c, 0, 83, 81
2, 11687, Note_on_c, 0, 83, 0
2, 11688, Note_on_c, 0, 84, 82
2, 11711, Note_on_c, 0, 84, 0
2, 11712, Note_on_c, 0, 84, 97
2, 11736, Note_on_c, 0, 84, 0
2, 11736, Note_on_c, 0, 83, 80
2, 11759, Note_on_c, 0, 83, 0
2, 11760, Note_on_c, 0, 81, 79
2, 11783, Note_on_c, 0, 81, 0
2, 11784, Note_on_c, 0, 79, 79
2, 11807, Note_on_c, 0, 79, 0
2, 11808, Note_on_c, 0, 79, 94
2, 11832, Note_on_c, 0, 79, 0
2, 11832, Note_on_c, 0, 77, 77
2, 11855, Note_on_c, 0, 77, 0
2, 11856, Note_on_c, 0, 76, 76
2, 11879, Note_on_c, 0, 76, 0
2, 11880, Note_on_c, 0, 74, 76
2, 11903, Note_on_c, 0, 74, 0
2, 11904, Note_on_c, 0, 79, 76
2, 11971, Note_on_c, 0, 79, 0
2, 11976, Note_on_c, 0, 81, 76
2, 11988, Note_on_c, 0, 81, 0
2, 11988, Note_on_c, 0, 79, 76
2, 12000, Note_on_c, 0, 79, 0
2, 12000, Note_on_c, 0, 77, 76
2, 12023, Note_on_c, 0, 77, 0
2, 12024, Note_on_c, 0, 76, 76
2, 12047, Note_on_c, 0, 76, 0
2, 12048, Note_on_c, 0, 74, 76
2, 12071, Note_on_c, 0, 74, 0
2, 12072, Note_on_c, 0, 72, 76
2, 12095, Note_on_c, 0, 72, 0
2, 12096, Note_on_c, 0, 72, 76
2, 12192, Note_on_c, 0, 72, 0
2, 12192, Note_on_c, 0, 71, 76
2, 12198, Note_on_c, 0, 71, 0
2, 12198, Note_on_c, 0, 72, 76
2, 12204, Note_on_c, 0, 72, 0
2, 12204, Note_on_c, 0, 71, 76
2, 12259, Note_on_c, 0, 71, 0
2, 12264, Note_on_c, 0, 77, 76
2, 12287, Note_on_c, 0, 77, 0
2, 12288, Note_on_c, 0, 76, 76
2, 12298, Note_on_c, 0, 76, 0
2, 12312, Note_on_c, 0, 77, 76
2, 12322, Note_on_c, 0, 77, 0
2, 12336, Note_on_c, 0, 79, 77
2, 12346, Note_on_c, 0, 79, 0
2, 12360, Note_on_c, 0, 81, 78
2, 12370, Note_on_c, 0, 81, 0
2, 12384, Note_on_c, 0, 83, 79
2, 12394, Note_on_c, 0, 83, 0
2, 12408, Note_on_c, 0, 84, 79
2, 12418, Note_on_c, 0, 84, 0
2, 12432, Note_on_c, 0, 83, 80
2, 12442, Note_on_c, 0, 83, 0
2, 12456, Note_on_c, 0, 84, 81
2, 12466, Note_on_c, 0, 84, 0
2, 12480, Note_on_c, 0, 84, 98
2, 12504, Note_on_c, 0, 84, 0
2, 12504, Note_on_c, 0, 83, 85
2, 12527, Note_on_c, 0, 83, 0
2, 12528, Note_on_c, 0, 81, 88
2, 12551, Note_on_c, 0, 81, 0
2, 12552, Note_on_c, 0, 79, 91
2, 12575, Note_on_c, 0, 79, 0
2, 12576, Note_on_c, 0, 79, 110
2, 12600, Note_on_c, 0, 79, 0
2, 12600, Note_on_c, 0, 81, 98
2, 12612, Note_on_c, 0, 81, 0
2, 12612, Note_on_c, 0, 79, 99
2, 12624, Note_on_c, 0, 79, 0
2, 12624, Note_on_c, 0, 79, 101
2, 12636, Note_on_c, 0, 79, 0
2, 12636, Note_on_c, 0, 77, 102
2, 12648, Note_on_c, 0, 77, 0
2, 12648, Note_on_c, 0, 76, 104
2, 12660, Note_on_c, 0, 76, 0
2, 12660, Note_on_c, 0, 74, 106
2, 12672, Note_on_c, 0, 74, 0
2, 12672, Note_on_c, 0, 76, 76
2, 12695, Note_on_c, 0, 76, 0
2, 12696, Note_on_c, 0, 77, 76
2, 12719, Note_on_c, 0, 77, 0
2, 12720, Note_on_c, 0, 76, 77
2, 12743, Note_on_c, 0, 76, 0
2, 12744, Note_on_c, 0, 77, 78
2, 12767, Note_on_c, 0, 77, 0
2, 12768, Note_on_c, 0, 79, 79
2, 12791, Note_on_c, 0, 79, 0
2, 12792, Note_on_c, 0, 81, 79
2, 12815, Note_on_c, 0, 81, 0
2, 12816, Note_on_c, 0, 79, 80
2, 12839, Note_on_c, 0, 79, 0
2, 12840, Note_on_c, 0, 81, 81
2, 12863, Note_on_c, 0, 81, 0
2, 12864, Note_on_c, 0, 82, 98
2, 12864, Note_on_c, 0, 70, 98
2, 13056, Note_on_c, 0, 82, 0
2, 13056, Note_on_c, 0, 70, 0
2, 13080, Note_on_c, 0, 81, 82
2, 13103, Note_on_c, 0, 81, 0
2, 13104, Note_on_c, 0, 80, 82
2, 13127, Note_on_c, 0, 80, 0
2, 13128, Note_on_c, 0, 81, 82
2, 13151, Note_on_c, 0, 81, 0
2, 13176, Note_on_c, 0, 79, 82
2, 13199, Note_on_c, 0, 79, 0
2, 13200, Note_on_c, 0, 78, 82
2, 13223, Note_on_c, 0, 78, 0
2, 13224, Note_on_c, 0, 79, 82
2, 13247, Note_on_c, 0, 79, 0
2, 13272, Note_on_c, 0, 78, 82
2, 13295, Note_on_c, 0, 78, 0
2, 13296, Note_on_c, 0, 79, 82
2, 13302, Note_on_c, 0, 79, 0
2, 13302, Note_on_c, 0, 78, 82
2, 13308, Note_on_c, 0, 78, 0
2, 13308, Note_on_c, 0, 76, 82
2, 13314, Note_on_c, 0, 76, 0
2, 13314, Note_on_c, 0, 78, 82
2, 13341, Note_on_c, 0, 78, 0
2, 13368, Note_on_c, 0, 77, 82
2, 13391, Note_on_c, 0, 77, 0
2, 13392, Note_on_c, 0, 79, 82
2, 13398, Note_on_c, 0, 79, 0
2, 13398, Note_on_c, 0, 77, 82
2, 13404, Note_on_c, 0, 77, 0
2, 13404, Note_on_c, 0, 76, 82
2, 13410, Note_on_c, 0, 76, 0
2, 13410, Note_on_c, 0, 77, 82
2, 13437, Note_on_c, 0, 77, 0
2, 13464, Note_on_c, 0, 76, 82
2, 13487, Note_on_c, 0, 76, 0
2, 13488, Note_on_c, 0, 77, 85
2, 13511, Note_on_c, 0, 77, 0
2, 13512, Note_on_c, 0, 79, 88
2, 13535, Note_on_c, 0, 79, 0
2, 13536, Note_on_c, 0, 79, 92
2, 13559, Note_on_c, 0, 79, 0
2, 13560, Note_on_c, 0, 69, 95
2, 13583, Note_on_c, 0, 69, 0
2, 13584, Note_on_c, 0, 77, 99
2, 13607, Note_on_c, 0, 77, 0
2, 13608, Note_on_c, 0, 74, 102
2, 13631, Note_on_c, 0, 74, 0
2, 13632, Note_on_c, 0, 72, 106
2, 13721, Note_on_c, 0, 72, 0
2, 13728, Note_on_c, 0, 72, 94
2, 13735, Note_on_c, 0, 72, 0
2, 13735, Note_on_c, 0, 71, 93
2, 13742, Note_on_c, 0, 71, 0
2, 13742, Note_on_c, 0, 72, 92
2, 13749, Note_on_c, 0, 72, 0
2, 13749, Note_on_c, 0, 71, 91
2, 13756, Note_on_c, 0, 71, 0
2, 13756, Note_on_c, 0, 72, 91
2, 13763, Note_on_c, 0, 72, 0
2, 13763, Note_on_c, 0, 71, 90
2, 13770, Note_on_c, 0, 71, 0
2, 13770, Note_on_c, 0, 72, 89
2, 13777, Note_on_c, 0, 72, 0
2, 13777, Note_on_c, 0, 71, 88
2, 13784, Note_on_c, 0, 71, 0
2, 13784, Note_on_c, 0, 72, 88
2, 13791, Note_on_c, 0, 72, 0
2, 13791, Note_on_c, 0, 71, 87
2, 13798, Note_on_c, 0, 71, 0
2, 13798, Note_on_c, 0, 69, 86
2, 13812, Note_on_c, 0, 69, 0
2, 13812, Note_on_c, 0, 71, 85
2, 13824, Note_on_c, 0, 71, 0
2, 13848, Note_on_c, 0, 84, 82
2, 13871, Note_on_c, 0, 84, 0
2, 13872, Note_on_c, 0, 88, 85
2, 13895, Note_on_c, 0, 88, 0
2, 13896, Note_on_c, 0, 84, 88
2, 13919, Note_on_c, 0, 84, 0
2, 13920, Note_on_c, 0, 83, 92
2, 13943, Note_on_c, 0, 83, 0
2, 13944, Note_on_c, 0, 81, 95
2, 13967, Note_on_c, 0, 81, 0
2, 13968, Note_on_c, 0, 79, 99
2, 13991, Note_on_c, 0, 79, 0
2, 13992, Note_on_c, 0, 77, 102
2, 14015, Note_on_c, 0, 77, 0
2, 14016, Note_on_c, 0, 76, 106
2, 14105, Note_on_c, 0, 76, 0
2, 14112, Note_on_c, 0, 76, 106
2, 14119, Note_on_c, 0, 76, 0
2, 14119, Note_on_c, 0, 74, 104
2, 14126, Note_on_c, 0, 74, 0
2, 14126, Note_on_c, 0, 76, 103
2, 14133, Note_on_c, 0, 76, 0
2, 14133, Note_on_c, 0, 74, 101
2, 14140, Note_on_c, 0, 74, 0
2, 14140, Note_on_c, 0, 76, 100
2, 14147, Note_on_c, 0, 76, 0
2, 14147, Note_on_c, 0, 74, 98
2, 14154, Note_on_c, 0, 74, 0
2, 14154, Note_on_c, 0, 76, 97
2, 14161, Note_on_c, 0, 76, 0
2, 14161, Note_on_c, 0, 74, 95
2, 14168, Note_on_c, 0, 74, 0
2, 14168, Note_on_c, 0, 76, 94
2, 14175, Note_on_c, 0, 76, 0
2, 14175, Note_on_c, 0, 74, 92
2, 14182, Note_on_c, 0, 74, 0
2, 14182, Note_on_c, 0, 72, 91
2, 14196, Note_on_c, 0, 72, 0
2, 14196, Note_on_c, 0, 74, 88
2, 14208, Note_on_c, 0, 74, 0
2, 14208, Note_on_c, 0, 72, 82
2, 14253, Note_on_c, 0, 72, 0
2, 14256, Note_on_c, 0, 76, 70
2, 14256, Note_on_c, 0, 72, 70
2, 14276, Note_on_c, 0, 76, 0
2, 14276, Note_on_c, 0, 72, 0
2, 14304, Note_on_c, 0, 76, 70
2, 14304, Note_on_c, 0, 72, 70
2, 14324, Note_on_c, 0, 76, 0
2, 14324, Note_on_c, 0, 72, 0
2, 14352, Note_on_c, 0, 76, 70
2, 14352, Note_on_c, 0, 72, 70
2, 14372, Note_on_c, 0, 76, 0
2, 14372, Note_on_c, 0, 72, 0
2, 14400, Note_on_c, 0, 72, 70
2, 14445, Note_on_c, 0, 72, 0
2, 14448, Note_on_c, 0, 79, 70
2, 14448, Note_on_c, 0, 76, 70
2, 14493, Note_on_c, 0, 79, 0
2, 14493, Note_on_c, 0, 76, 0
2, 14496, Note_on_c, 0, 76, 70
2, 14496, Note_on_c, 0, 72, 70
2, 14541, Note_on_c, 0, 76, 0
2, 14541, Note_on_c, 0, 72, 0
2, 14544, Note_on_c, 0, 72, 70
2, 14544, Note_on_c, 0, 69, 70
2, 14589, Note_on_c, 0, 72, 0
2, 14589, Note_on_c, 0, 69, 0
2, 14592, Note_on_c, 0, 69, 70
2, 14592, Note_on_c, 0, 65, 70
2, 14711, Note_on_c, 0, 69, 0
2, 14711, Note_on_c, 0, 65, 0
2, 14712, Note_on_c, 0, 69, 82
2, 14712, Note_on_c, 0, 65, 82
2, 14722, Note_on_c, 0, 69, 0
2, 14722, Note_on_c, 0, 65, 0
2, 14736, Note_on_c, 0, 71, 82
2, 14736, Note_on_c, 0, 67, 82
2, 14746, Note_on_c, 0, 71, 0
2, 14746, Note_on_c, 0, 67, 0
2, 14760, Note_on_c, 0, 72, 82
2, 14760, Note_on_c, 0, 69, 82
2, 14770, Note_on_c, 0, 72, 0
2, 14770, Note_on_c, 0, 69, 0
2, 14784, Note_on_c, 0, 72, 70
2, 14784, Note_on_c, 0, 69, 70
2, 14808, Note_on_c, 0, 72, 0
2, 14808, Note_on_c, 0, 69, 0
2, 14808, Note_on_c, 0, 71, 68
2, 14808, Note_on_c, 0, 67, 68
2, 14831, Note_on_c, 0, 71, 0
2, 14831, Note_on_c, 0, 67, 0
2, 14832, Note_on_c, 0, 69, 67
2, 14832, Note_on_c, 0, 65, 67
2, 14842, Note_on_c, 0, 69, 0
2, 14842, Note_on_c, 0, 65, 0
2, 14856, Note_on_c, 0, 67, 66
2, 14856, Note_on_c, 0, 64, 66
2, 14866, Note_on_c, 0, 67, 0
2, 14866, Note_on_c, 0, 64, 0
2, 14880, Note_on_c, 0, 67, 65
2, 14880, Note_on_c, 0, 64, 65
2, 14904, Note_on_c, 0, 67, 0
2, 14904, Note_on_c, 0, 64, 0
2, 14904, Note_on_c, 0, 65, 64
2, 14904, Note_on_c, 0, 62, 64
2, 14927, Note_on_c, 0, 65, 0
2, 14927, Note_on_c, 0, 62, 0
2, 14928, Note_on_c, 0, 64, 63
2, 14928, Note_on_c, 0, 60, 63
2, 14938, Note_on_c, 0, 64, 0
2, 14938, Note_on_c, 0, 60, 0
2, 14952, Note_on_c, 0, 62, 62
2, 14952, Note_on_c, 0, 59, 62
2, 14962, Note_on_c, 0, 62, 0
2, 14962, Note_on_c, 0, 59, 0
2, 14976, Control_c, 0, 64, 127
2, 15024, Note_on_c, 0, 72, 61
2, 15039, Note_on_c, 0, 72, 0
2, 15040, Note_on_c, 0, 76, 61
2, 15055, Note_on_c, 0, 76, 0
2, 15056, Note_on_c, 0, 84, 61
2, 15071, Note_on_c, 0, 84, 0
2, 15072, Note_on_c, 0, 72, 61
2, 15087, Note_on_c, 0, 72, 0
2, 15088, Note_on_c, 0, 76, 61
2, 15103, Note_on_c, 0, 76, 0
2, 15104, Note_on_c, 0, 84, 61
2, 15119, Note_on_c, 0, 84, 0
2, 15120, Note_on_c, 0, 72, 61
2, 15135, Note_on_c, 0, 72, 0
2, 15136, Note_on_c, 0, 76, 61
2, 15151, Note_on_c, 0, 76, 0
2, 15152, Note_on_c, 0, 84, 61
2, 15167, Note_on_c, 0, 84, 0
2, 15168, Note_on_c, 0, 72, 61
2, 15183, Note_on_c, 0, 72, 0
2, 15184, Note_on_c, 0, 76, 61
2, 15199, Note_on_c, 0, 76, 0
2, 15200, Note_on_c, 0, 84, 61
2, 15215, Note_on_c, 0, 84, 0
2, 15216, Note_on_c, 0, 76, 61
2, 15231, Note_on_c, 0, 76, 0
2, 15232, Note_on_c, 0, 79, 61
2, 15247, Note_on_c, 0, 79, 0
2, 15248, Note_on_c, 0, 88, 61
2, 15263, Note_on_c, 0, 88, 0
2, 15264, Note_on_c, 0, 72, 61
2, 15279, Note_on_c, 0, 72, 0
2, 15280, Note_on_c, 0, 76, 61
2, 15295, Note_on_c, 0, 76, 0
2, 15296, Note_on_c, 0, 84, 61
2, 15311, Note_on_c, 0, 84, 0
2, 15312, Note_on_c, 0, 69, 61
2, 15327, Note_on_c, 0, 69, 0
2, 15328, Note_on_c, 0, 72, 61
2, 15343, Note_on_c, 0, 72, 0
2, 15344, Note_on_c, 0, 81, 61
2, 15359, Note_on_c, 0, 81, 0
2, 15360, Control_c, 0, 64, 0
2, 15360, Note_on_c, 0, 65, 70
2, 15479, Note_on_c, 0, 65, 0
2, 15480, Note_on_c, 0, 72, 82
2, 15480, Note_on_c, 0, 69, 82
2, 15490, Note_on_c, 0, 72, 0
2, 15490, Note_on_c, 0, 69, 0
2, 15504, Note_on_c, 0, 71, 82
2, 15504, Note_on_c, 0, 67, 82
2, 15514, Note_on_c, 0, 71, 0
2, 15514, Note_on_c, 0, 67, 0
2, 15528, Note_on_c, 0, 69, 82
2, 15528, Note_on_c, 0, 65, 82
2, 15538, Note_on_c, 0, 69, 0
2, 15538, Note_on_c, 0, 65, 0
2, 15552, Note_on_c, 0, 69, 82
2, 15552, Note_on_c, 0, 65, 82
2, 15576, Note_on_c, 0, 69, 0
2, 15576, Note_on_c, 0, 65, 0
2, 15576, Note_on_c, 0, 67, 81
2, 15576, Note_on_c, 0, 64, 81
2, 15599, Note_on_c, 0, 67, 0
2, 15599, Note_on_c, 0, 64, 0
2, 15600, Note_on_c, 0, 65, 80
2, 15600, Note_on_c, 0, 62, 80
2, 15610, Note_on_c, 0, 65, 0
2, 15610, Note_on_c, 0, 62, 0
2, 15624, Note_on_c, 0, 64, 79
2, 15624, Note_on_c, 0, 60, 79
2, 15634, Note_on_c, 0, 64, 0
2, 15634, Note_on_c, 0, 60, 0
2, 15648, Note_on_c, 0, 64, 79
2, 15672, Note_on_c, 0, 64, 0
2, 15672, Note_on_c, 0, 62, 78
2, 15695, Note_on_c, 0, 62, 0
2, 15696, Note_on_c, 0, 60, 77
2, 15706, Note_on_c, 0, 60, 0
2, 15720, Note_on_c, 0, 59, 76
2, 15720, Note_on_c, 0, 53, 76
2, 15730, Note_on_c, 0, 59, 0
2, 15730, Note_on_c, 0, 53, 0
2, 16128, Note_on_c, 0, 64, 82
2, 16140, Note_on_c, 0, 67, 82
2, 16152, Note_on_c, 0, 72, 82
2, 16195, Note_on_c, 0, 72, 0
2, 16195, Note_on_c, 0, 67, 0
2, 16195, Note_on_c, 0, 64, 0
2, 16200, Note_on_c, 0, 67, 82
2, 16223, Note_on_c, 0, 67, 0
2, 16224, Note_on_c, 0, 77, 76
2, 16247, Note_on_c, 0, 77, 0
2, 16248, Note_on_c, 0, 76, 76
2, 16271, Note_on_c, 0, 76, 0
2, 16272, Note_on_c, 0, 74, 76
2, 16295, Note_on_c, 0, 74, 0
2, 16296, Note_on_c, 0, 72, 76
2, 16319, Note_on_c, 0, 72, 0
2, 16320, Note_on_c, 0, 79, 76
2, 16359, Note_on_c, 0, 79, 0
2, 16512, Note_on_c, 0, 77, 76
2, 16579, Note_on_c, 0, 77, 0
2, 16584, Note_on_c, 0, 72, 76
2, 16607, Note_on_c, 0, 72, 0
2, 16608, Note_on_c, 0, 82, 76
2, 16631, Note_on_c, 0, 82, 0
2, 16632, Note_on_c, 0, 81, 76
2, 16655, Note_on_c, 0, 81, 0
2, 16656, Note_on_c, 0, 79, 76
2, 16679, Note_on_c, 0, 79, 0
2, 16680, Note_on_c, 0, 77, 76
2, 16703, Note_on_c, 0, 77, 0
2, 16704, Note_on_c, 0, 84, 76
2, 16743, Note_on_c, 0, 84, 0
2, 16896, Note_on_c, 0, 86, 76
2, 16902, Note_on_c, 0, 86, 0
2, 16902, Note_on_c, 0, 84, 76
2, 16908, Note_on_c, 0, 84, 0
2, 16908, Note_on_c, 0, 82, 76
2, 16914, Note_on_c, 0, 82, 0
2, 16914, Note_on_c, 0, 84, 76
2, 17059, Note_on_c, 0, 84, 0
2, 17064, Note_on_c, 0, 82, 76
2, 17072, Note_on_c, 0, 82, 0
2, 17072, Note_on_c, 0, 81, 76
2, 17080, Note_on_c, 0, 81, 0
2, 17080, Note_on_c, 0, 79, 76
2, 17088, Note_on_c, 0, 79, 0
2, 17088, Note_on_c, 0, 78, 76
2, 17111, Note_on_c, 0, 78, 0
2, 17112, Note_on_c, 0, 75, 76
2, 17135, Note_on_c, 0, 75, 0
2, 17136, Note_on_c, 0, 74, 76
2, 17159, Note_on_c, 0, 74, 0
2, 17160, Note_on_c, 0, 72, 76
2, 17183, Note_on_c, 0, 72, 0
2, 17184, Note_on_c, 0, 70, 76
2, 17207, Note_on_c, 0, 70, 0
2, 17208, Note_on_c, 0, 69, 76
2, 17231, Note_on_c, 0, 69, 0
2, 17232, Note_on_c, 0, 67, 76
2, 17255, Note_on_c, 0, 67, 0
2, 17256, Note_on_c, 0, 66, 76
2, 17279, Note_on_c, 0, 66, 0
2, 17280, Note_on_c, 0, 66, 76
2, 17286, Note_on_c, 0, 66, 0
2, 17286, Note_on_c, 0, 67, 76
2, 17300, Note_on_c, 0, 67, 0
2, 17328, Note_on_c, 0, 69, 77
2, 17334, Note_on_c, 0, 69, 0
2, 17334, Note_on_c, 0, 70, 77
2, 17348, Note_on_c, 0, 70, 0
2, 17376, Note_on_c, 0, 73, 79
2, 17382, Note_on_c, 0, 73, 0
2, 17382, Note_on_c, 0, 74, 79
2, 17396, Note_on_c, 0, 74, 0
2, 17424, Note_on_c, 0, 78, 80
2, 17430, Note_on_c, 0, 78, 0
2, 17430, Note_on_c, 0, 79, 80
2, 17444, Note_on_c, 0, 79, 0
2, 17472, Note_on_c, 0, 81, 82
2, 17478, Note_on_c, 0, 81, 0
2, 17478, Note_on_c, 0, 82, 82
2, 17517, Note_on_c, 0, 82, 0
2, 17664, Note_on_c, 0, 86, 98
2, 17712, Note_on_c, 0, 86, 0
2, 17712, Note_on_c, 0, 86, 82
2, 17805, Note_on_c, 0, 86, 0
2, 17808, Note_on_c, 0, 84, 79
2, 17820, Note_on_c, 0, 84, 0
2, 17820, Note_on_c, 0, 82, 78
2, 17832, Note_on_c, 0, 82, 0
2, 17832, Note_on_c, 0, 81, 77
2, 17844, Note_on_c, 0, 81, 0
2, 17844, Note_on_c, 0, 79, 76
2, 17856, Note_on_c, 0, 79, 0
2, 17856, Note_on_c, 0, 84, 98
2, 17904, Note_on_c, 0, 84, 0
2, 17904, Note_on_c, 0, 84, 82
2, 17997, Note_on_c, 0, 84, 0
2, 18000, Note_on_c, 0, 82, 79
2, 18012, Note_on_c, 0, 82, 0
2, 18012, Note_on_c, 0, 81, 78
2, 18024, Note_on_c, 0, 81, 0
2, 18024, Note_on_c, 0, 79, 77
2, 18036, Note_on_c, 0, 79, 0
2, 18036, Note_on_c, 0, 77, 76
2, 18048, Note_on_c, 0, 77, 0
2, 18048, Note_on_c, 0, 84, 76
2, 18072, Note_on_c, 0, 84, 0
2, 18072, Note_on_c, 0, 82, 76
2, 18095, Note_on_c, 0, 82, 0
2, 18096, Note_on_c, 0, 82, 76
2, 18120, Note_on_c, 0, 82, 0
2, 18120, Note_on_c, 0, 81, 76
2, 18143, Note_on_c, 0, 81, 0
2, 18144, Note_on_c, 0, 81, 76
2, 18189, Note_on_c, 0, 81, 0
2, 18240, Note_on_c, 0, 84, 70
2, 18264, Note_on_c, 0, 84, 0
2, 18264, Note_on_c, 0, 82, 70
2, 18287, Note_on_c, 0, 82, 0
2, 18288, Note_on_c, 0, 82, 70
2, 18312, Note_on_c, 0, 82, 0
2, 18312, Note_on_c, 0, 81, 70
2, 18335, Note_on_c, 0, 81, 0
2, 18336, Note_on_c, 0, 81, 70
2, 18381, Note_on_c, 0, 81, 0
2, 18432, Note_on_c, 0, 84, 70
2, 18438, Note_on_c, 0, 84, 0
2, 18438, Note_on_c, 0, 86, 70
2, 18444, Note_on_c, 0, 86, 0
2, 18444, Note_on_c, 0, 84, 70
2, 18455, Note_on_c, 0, 84, 0
2, 18456, Note_on_c, 0, 82, 70
2, 18479, Note_on_c, 0, 82, 0
2, 18480, Note_on_c, 0, 82, 70
2, 18486, Note_on_c, 0, 82, 0
2, 18486, Note_on_c, 0, 84, 70
2, 18492, Note_on_c, 0, 84, 0
2, 18492, Note_on_c, 0, 82, 70
2, 18503, Note_on_c, 0, 82, 0
2, 18504, Note_on_c, 0, 81, 70
2, 18527, Note_on_c, 0, 81, 0
2, 18528, Note_on_c, 0, 81, 86
2, 18576, Note_on_c, 0, 81, 0
2, 18624, Note_on_c, 0, 81, 70
2, 18630, Note_on_c, 0, 81, 0
2, 18630, Note_on_c, 0, 82, 70
2, 18636, Note_on_c, 0, 82, 0
2, 18636, Note_on_c, 0, 81, 70
2, 18647, Note_on_c, 0, 81, 0
2, 18648, Note_on_c, 0, 79, 70
2, 18671, Note_on_c, 0, 79, 0
2, 18672, Note_on_c, 0, 79, 70
2, 18678, Note_on_c, 0, 79, 0
2, 18678, Note_on_c, 0, 81, 70
2, 18684, Note_on_c, 0, 81, 0
2, 18684, Note_on_c, 0, 79, 70
2, 18695, Note_on_c, 0, 79, 0
2, 18696, Note_on_c, 0, 77, 70
2, 18719, Note_on_c, 0, 77, 0
2, 18720, Note_on_c, 0, 77, 70
2, 18765, Note_on_c, 0, 77, 0
2, 18816, Note_on_c, 0, 77, 82
2, 18822, Note_on_c, 0, 77, 0
2, 18822, Note_on_c, 0, 79, 82
2, 18828, Note_on_c, 0, 79, 0
2, 18828, Note_on_c, 0, 77, 82
2, 18839, Note_on_c, 0, 77, 0
2, 18840, Note_on_c, 0, 76, 82
2, 18863, Note_on_c, 0, 76, 0
2, 18864, Note_on_c, 0, 74, 82
2, 18870, Note_on_c, 0, 74, 0
2, 18870, Note_on_c, 0, 76, 82
2, 18876, Note_on_c, 0, 76, 0
2, 18876, Note_on_c, 0, 74, 82
2, 18887, Note_on_c, 0, 74, 0
2, 18888, Note_on_c, 0, 72, 82
2, 18911, Note_on_c, 0, 72, 0
2, 18912, Note_on_c, 0, 72, 98
2, 18960, Note_on_c, 0, 72, 0
2, 18960, Note_on_c, 0, 72, 82
2, 18987, Note_on_c, 0, 72, 0
2, 18990, Note_on_c, 0, 74, 82
2, 18996, Note_on_c, 0, 74, 0
2, 18996, Note_on_c, 0, 72, 82
2, 19002, Note_on_c, 0, 72, 0
2, 19002, Note_on_c, 0, 71, 82
2, 19008, Note_on_c, 0, 71, 0
2, 19008, Note_on_c, 0, 72, 98
2, 19104, Note_on_c, 0, 72, 0
2, 19200, Note_on_c, 0, 72, 76
2, 19289, Note_on_c, 0, 72, 0
2, 19296, Note_on_c, 0, 70, 76
2, 19319, Note_on_c, 0, 70, 0
2, 19320, Note_on_c, 0, 69, 76
2, 19343, Note_on_c, 0, 69, 0
2, 19344, Note_on_c, 0, 67, 76
2, 19367, Note_on_c, 0, 67, 0
2, 19368, Note_on_c, 0, 65, 76
2, 19391, Note_on_c, 0, 65, 0
2, 19392, Note_on_c, 0, 65, 76
2, 19488, Note_on_c, 0, 65, 0
2, 19488, Note_on_c, 0, 64, 76
2, 19494, Note_on_c, 0, 64, 0
2, 19494, Note_on_c, 0, 65, 76
2, 19500, Note_on_c, 0, 65, 0
2, 19500, Note_on_c, 0, 64, 76
2, 19555, Note_on_c, 0, 64, 0
2, 19560, Note_on_c, 0, 64, 76
2, 19583, Note_on_c, 0, 64, 0
2, 19584, Note_on_c, 0, 65, 76
2, 19607, Note_on_c, 0, 65, 0
2, 19608, Note_on_c, 0, 67, 76
2, 19631, Note_on_c, 0, 67, 0
2, 19632, Note_on_c, 0, 69, 77
2, 19655, Note_on_c, 0, 69, 0
2, 19656, Note_on_c, 0, 70, 78
2, 19679, Note_on_c, 0, 70, 0
2, 19680, Note_on_c, 0, 72, 79
2, 19703, Note_on_c, 0, 72, 0
2, 19704, Note_on_c, 0, 74, 79
2, 19727, Note_on_c, 0, 74, 0
2, 19728, Note_on_c, 0, 76, 80
2, 19751, Note_on_c, 0, 76, 0
2, 19752, Note_on_c, 0, 77, 81
2, 19775, Note_on_c, 0, 77, 0
2, 19776, Note_on_c, 0, 77, 98
2, 19800, Note_on_c, 0, 77, 0
2, 19800, Note_on_c, 0, 76, 81
2, 19823, Note_on_c, 0, 76, 0
2, 19824, Note_on_c, 0, 74, 80
2, 19847, Note_on_c, 0, 74, 0
2, 19848, Note_on_c, 0, 72, 79
2, 19871, Note_on_c, 0, 72, 0
2, 19872, Note_on_c, 0, 72, 79
2, 19895, Note_on_c, 0, 72, 0
2, 19896, Note_on_c, 0, 70, 78
2, 19919, Note_on_c, 0, 70, 0
2, 19920, Note_on_c, 0, 69, 77
2, 19943, Note_on_c, 0, 69, 0
2, 19944, Note_on_c, 0, 67, 76
2, 19967, Note_on_c, 0, 67, 0
2, 19968, Note_on_c, 0, 84, 92
2, 20040, Note_on_c, 0, 84, 0
2, 20040, Note_on_c, 0, 86, 76
2, 20052, Note_on_c, 0, 86, 0
2, 20052, Note_on_c, 0, 84, 76
2, 20064, Note_on_c, 0, 84, 0
2, 20064, Note_on_c, 0, 82, 76
2, 20087, Note_on_c, 0, 82, 0
2, 20088, Note_on_c, 0, 81, 76
2, 20111, Note_on_c, 0, 81, 0
2, 20112, Note_on_c, 0, 79, 76
2, 20135, Note_on_c, 0, 79, 0
2, 20136, Note_on_c, 0, 77, 76
2, 20159, Note_on_c, 0, 77, 0
2, 20160, Note_on_c, 0, 77, 76
2, 20256, Note_on_c, 0, 77, 0
2, 20256, Note_on_c, 0, 76, 76
2, 20262, Note_on_c, 0, 76, 0
2, 20262, Note_on_c, 0, 77, 76
2, 20268, Note_on_c, 0, 77, 0
2, 20268, Note_on_c, 0, 76, 76
2, 20323, Note_on_c, 0, 76, 0
2, 20328, Note_on_c, 0, 82, 76
2, 20351, Note_on_c, 0, 82, 0
2, 20352, Note_on_c, 0, 81, 76
2, 20362, Note_on_c, 0, 81, 0
2, 20376, Note_on_c, 0, 82, 76
2, 20386, Note_on_c, 0, 82, 0
2, 20400, Note_on_c, 0, 84, 77
2, 20410, Note_on_c, 0, 84, 0
2, 20424, Note_on_c, 0, 86, 78
2, 20434, Note_on_c, 0, 86, 0
2, 20448, Note_on_c, 0, 88, 79
2, 20458, Note_on_c, 0, 88, 0
2, 20472, Note_on_c, 0, 89, 79
2, 20482, Note_on_c, 0, 89, 0
2, 20496, Note_on_c, 0, 88, 80
2, 20506, Note_on_c, 0, 88, 0
2, 20520, Note_on_c, 0, 89, 81
2, 20530, Note_on_c, 0, 89, 0
2, 20544, Note_on_c, 0, 89, 98
2, 20568, Note_on_c, 0, 89, 0
2, 20568, Note_on_c, 0, 88, 81
2, 20591, Note_on_c, 0, 88, 0
2, 20592, Note_on_c, 0, 86, 80
2, 20615, Note_on_c, 0, 86, 0
2, 20616, Note_on_c, 0, 84, 79
2, 20639, Note_on_c, 0, 84, 0
2, 20640, Note_on_c, 0, 84, 95
2, 20664, Note_on_c, 0, 84, 0
2, 20664, Note_on_c, 0, 86, 78
2, 20676, Note_on_c, 0, 86, 0
2, 20676, Note_on_c, 0, 84, 77
2, 20688, Note_on_c, 0, 84, 0
2, 20688, Note_on_c, 0, 84, 77
2, 20700, Note_on_c, 0, 84, 0
2, 20700, Note_on_c, 0, 82, 77
2, 20712, Note_on_c, 0, 82, 0
2, 20712, Note_on_c, 0, 81, 76
2, 20724, Note_on_c, 0, 81, 0
2, 20724, Note_on_c, 0, 79, 76
2, 20736, Note_on_c, 0, 79, 0
2, 20736, Note_on_c, 0, 81, 76
2, 20759, Note_on_c, 0, 81, 0
2, 20760, Note_on_c, 0, 82, 76
2, 20783, Note_on_c, 0, 82, 0
2, 20784, Note_on_c, 0, 81, 77
2, 20807, Note_on_c, 0, 81, 0
2, 20808, Note_on_c, 0, 82, 78
2, 20831, Note_on_c, 0, 82, 0
2, 20832, Note_on_c, 0, 84, 79
2, 20855, Note_on_c, 0, 84, 0
2, 20856, Note_on_c, 0, 86, 79
2, 20879, Note_on_c, 0, 86, 0
2, 20880, Note_on_c, 0, 84, 80
2, 20903, Note_on_c, 0, 84, 0
2, 20904, Note_on_c, 0, 86, 81
2, 20927, Note_on_c, 0, 86, 0
2, 20928, Note_on_c, 0, 87, 98
2, 20928, Note_on_c, 0, 75, 98
2, 21120, Note_on_c, 0, 87, 0
2, 21120, Note_on_c, 0, 75, 0
2, 21144, Note_on_c, 0, 86, 82
2, 21167, Note_on_c, 0, 86, 0
2, 21168, Note_on_c, 0, 85, 82
2, 21191, Note_on_c, 0, 85, 0
2, 21192, Note_on_c, 0, 86, 82
2, 21215, Note_on_c, 0, 86, 0
2, 21240, Note_on_c, 0, 84, 82
2, 21263, Note_on_c, 0, 84, 0
2, 21264, Note_on_c, 0, 83, 82
2, 21287, Note_on_c, 0, 83, 0
2, 21288, Note_on_c, 0, 84, 82
2, 21311, Note_on_c, 0, 84, 0
2, 21336, Note_on_c, 0, 83, 82
2, 21359, Note_on_c, 0, 83, 0
2, 21360, Note_on_c, 0, 84, 81
2, 21366, Note_on_c, 0, 84, 0
2, 21366, Note_on_c, 0, 83, 81
2, 21372, Note_on_c, 0, 83, 0
2, 21372, Note_on_c, 0, 81, 81
2, 21378, Note_on_c, 0, 81, 0
2, 21378, Note_on_c, 0, 83, 81
2, 21405, Note_on_c, 0, 83, 0
2, 21432, Note_on_c, 0, 82, 78
2, 21455, Note_on_c, 0, 82, 0
2, 21456, Note_on_c, 0, 84, 77
2, 21462, Note_on_c, 0, 84, 0
2, 21462, Note_on_c, 0, 82, 77
2, 21468, Note_on_c, 0, 82, 0
2, 21468, Note_on_c, 0, 81, 77
2, 21474, Note_on_c, 0, 81, 0
2, 21474, Note_on_c, 0, 82, 77
2, 21501, Note_on_c, 0, 82, 0
2, 21528, Note_on_c, 0, 81, 76
2, 21551, Note_on_c, 0, 81, 0
2, 21552, Note_on_c, 0, 82, 77
2, 21575, Note_on_c, 0, 82, 0
2, 21576, Note_on_c, 0, 84, 78
2, 21599, Note_on_c, 0, 84, 0
2, 21600, Note_on_c, 0, 84, 79
2, 21623, Note_on_c, 0, 84, 0
2, 21624, Note_on_c, 0, 74, 80
2, 21647, Note_on_c, 0, 74, 0
2, 21648, Note_on_c, 0, 82, 81
2, 21671, Note_on_c, 0, 82, 0
2, 21672, Note_on_c, 0, 79, 82
2, 21695, Note_on_c, 0, 79, 0
2, 21696, Note_on_c, 0, 77, 82
2, 21785, Note_on_c, 0, 77, 0
2, 21792, Note_on_c, 0, 77, 78
2, 21799, Note_on_c, 0, 77, 0
2, 21799, Note_on_c, 0, 76, 78
2, 21806, Note_on_c, 0, 76, 0
2, 21806, Note_on_c, 0, 77, 78
2, 21813, Note_on_c, 0, 77, 0
2, 21813, Note_on_c, 0, 76, 78
2, 21820, Note_on_c, 0, 76, 0
2, 21820, Note_on_c, 0, 77, 78
2, 21827, Note_on_c, 0, 77, 0
2, 21827, Note_on_c, 0, 76, 77
2, 21834, Note_on_c, 0, 76, 0
2, 21834, Note_on_c, 0, 77, 77
2, 21841, Note_on_c, 0, 77, 0
2, 21841, Note_on_c, 0, 76, 77
2, 21848, Note_on_c, 0, 76, 0
2, 21848, Note_on_c, 0, 77, 77
2, 21855, Note_on_c, 0, 77, 0
2, 21855, Note_on_c, 0, 76, 77
2, 21862, Note_on_c, 0, 76, 0
2, 21862, Note_on_c, 0, 74, 76
2, 21876, Note_on_c, 0, 74, 0
2, 21876, Note_on_c, 0, 76, 76
2, 21888, Note_on_c, 0, 76, 0
2, 21912, Note_on_c, 0, 84, 76
2, 21935, Note_on_c, 0, 84, 0
2, 21936, Note_on_c, 0, 81, 76
2, 21959, Note_on_c, 0, 81, 0
2, 21960, Note_on_c, 0, 77, 77
2, 21983, Note_on_c, 0, 77, 0
2, 21984, Note_on_c, 0, 75, 78
2, 22007, Note_on_c, 0, 75, 0
2, 22008, Note_on_c, 0, 74, 79
2, 22031, Note_on_c, 0, 74, 0
2, 22032, Note_on_c, 0, 85, 80
2, 22056, Note_on_c, 0, 85, 0
2, 22056, Note_on_c, 0, 86, 81
2, 22079, Note_on_c, 0, 86, 0
2, 22080, Note_on_c, 0, 77, 82
2, 22169, Note_on_c, 0, 77, 0
2, 22176, Note_on_c, 0, 81, 82
2, 22183, Note_on_c, 0, 81, 0
2, 22183, Note_on_c, 0, 79, 81
2, 22190, Note_on_c, 0, 79, 0
2, 22190, Note_on_c, 0, 81, 81
2, 22197, Note_on_c, 0, 81, 0
2, 22197, Note_on_c, 0, 79, 80
2, 22204, Note_on_c, 0, 79, 0
2, 22204, Note_on_c, 0, 81, 80
2, 22211, Note_on_c, 0, 81, 0
2, 22211, Note_on_c, 0, 79, 80
2, 22218, Note_on_c, 0, 79, 0
2, 22218, Note_on_c, 0, 81, 79
2, 22225, Note_on_c, 0, 81, 0
2, 22225, Note_on_c, 0, 79, 79
2, 22232, Note_on_c, 0, 79, 0
2, 22232, Note_on_c, 0, 81, 79
2, 22239, Note_on_c, 0, 81, 0
2, 22239, Note_on_c, 0, 79, 78
2, 22246, Note_on_c, 0, 79, 0
2, 22246, Note_on_c, 0, 77, 78
2, 22260, Note_on_c, 0, 77, 0
2, 22260, Note_on_c, 0, 79, 77
2, 22272, Note_on_c, 0, 79, 0
2, 22272, Note_on_c, 0, 77, 76
2, 22317, Note_on_c, 0, 77, 0
2, 22320, Note_on_c, 0, 69, 70
2, 22320, Note_on_c, 0, 65, 70
2, 22340, Note_on_c, 0, 69, 0
2, 22340, Note_on_c, 0, 65, 0
2, 22368, Note_on_c, 0, 69, 70
2, 22368, Note_on_c, 0, 65, 70
2, 22388, Note_on_c, 0, 69, 0
2, 22388, Note_on_c, 0, 65, 0
2, 22416, Note_on_c, 0, 69, 70
2, 22416, Note_on_c, 0, 65, 70
2, 22436, Note_on_c, 0, 69, 0
2, 22436, Note_on_c, 0, 65, 0
2, 22464, Note_on_c, 0, 65, 70
2, 22509, Note_on_c, 0, 65, 0
2, 22512, Note_on_c, 0, 72, 70
2, 22512, Note_on_c, 0, 69, 70
2, 22557, Note_on_c, 0, 72, 0
2, 22557, Note_on_c, 0, 69, 0
2, 22560, Note_on_c, 0, 69, 70
2, 22560, Note_on_c, 0, 65, 70
2, 22605, Note_on_c, 0, 69, 0
2, 22605, Note_on_c, 0, 65, 0
2, 22608, Note_on_c, 0, 65, 70
2, 22608, Note_on_c, 0, 62, 70
2, 22653, Note_on_c, 0, 65, 0
2, 22653, Note_on_c, 0, 62, 0
2, 22656, Note_on_c, 0, 62, 70
2, 22656, Note_on_c, 0, 58, 70
2, 22775, Note_on_c, 0, 62, 0
2, 22775, Note_on_c, 0, 58, 0
2, 22776, Note_on_c, 0, 62, 82
2, 22776, Note_on_c, 0, 58, 82
2, 22786, Note_on_c, 0, 62, 0
2, 22786, Note_on_c, 0, 58, 0
2, 22800, Note_on_c, 0, 64, 81
2, 22800, Note_on_c, 0, 60, 81
2, 22810, Note_on_c, 0, 64, 0
2, 22810, Note_on_c, 0, 60, 0
2, 22824, Note_on_c, 0, 65, 80
2, 22824, Note_on_c, 0, 62, 80
2, 22834, Note_on_c, 0, 65, 0
2, 22834, Note_on_c, 0, 62, 0
2, 22848, Note_on_c, 0, 65, 80
2, 22848, Note_on_c, 0, 62, 80
2, 22872, Note_on_c, 0, 65, 0
2, 22872, Note_on_c, 0, 62, 0
2, 22872, Note_on_c, 0, 64, 79
2, 22872, Note_on_c, 0, 60, 79
2, 22895, Note_on_c, 0, 64, 0
2, 22895, Note_on_c, 0, 60, 0
2, 22896, Note_on_c, 0, 62, 79
2, 22896, Note_on_c, 0, 58, 79
2, 22906, Note_on_c, 0, 62, 0
2, 22906, Note_on_c, 0, 58, 0
2, 22920, Note_on_c, 0, 60, 78
2, 22920, Note_on_c, 0, 57, 78
2, 22930, Note_on_c, 0, 60, 0
2, 22930, Note_on_c, 0, 57, 0
2, 22944, Note_on_c, 0, 60, 78
2, 22944, Note_on_c, 0, 57, 78
2, 22968, Note_on_c, 0, 60, 0
2, 22968, Note_on_c, 0, 57, 0
2, 22968, Note_on_c, 0, 58, 77
2, 22968, Note_on_c, 0, 55, 77
2, 22991, Note_on_c, 0, 58, 0
2, 22991, Note_on_c, 0, 55, 0
2, 22992, Note_on_c, 0, 57, 77
2, 22992, Note_on_c, 0, 53, 77
2, 23002, Note_on_c, 0, 57, 0
2, 23002, Note_on_c, 0, 53, 0
2, 23016, Note_on_c, 0, 55, 76
2, 23016, Note_on_c, 0, 52, 76
2, 23026, Note_on_c, 0, 55, 0
2, 23026, Note_on_c, 0, 52, 0
2, 23088, Control_c, 0, 64, 127
2, 23088, Note_on_c, 0, 65, 76
2, 23103, Note_on_c, 0, 65, 0
2, 23104, Note_on_c, 0, 69, 76
2, 23119, Note_on_c, 0, 69, 0
2, 23120, Note_on_c, 0, 77, 76
2, 23135, Note_on_c, 0, 77, 0
2, 23136, Note_on_c, 0, 65, 76
2, 23151, Note_on_c, 0, 65, 0
2, 23152, Note_on_c, 0, 69, 76
2, 23167, Note_on_c, 0, 69, 0
2, 23168, Note_on_c, 0, 77, 76
2, 23183, Note_on_c, 0, 77, 0
2, 23184, Note_on_c, 0, 65, 76
2, 23199, Note_on_c, 0, 65, 0
2, 23200, Note_on_c, 0, 69, 76
2, 23215, Note_on_c, 0, 69, 0
2, 23216, Note_on_c, 0, 77, 76
2, 23231, Note_on_c, 0, 77, 0
2, 23232, Note_on_c, 0, 65, 76
2, 23247, Note_on_c, 0, 65, 0
2, 23248, Note_on_c, 0, 69, 76
2, 23263, Note_on_c, 0, 69, 0
2, 23264, Note_on_c, 0, 77, 76
2, 23279, Note_on_c, 0, 77, 0
2, 23280, Note_on_c, 0, 69, 76
2, 23295, Note_on_c, 0, 69, 0
2, 23296, Note_on_c, 0, 72, 76
2, 23311, Note_on_c, 0, 72, 0
2, 23312, Note_on_c, 0, 81, 76
2, 23327, Note_on_c, 0, 81, 0
2, 23328, Note_on_c, 0, 65, 76
2, 23343, Note_on_c, 0, 65, 0
2, 23344, Note_on_c, 0, 69, 76
2, 23359, Note_on_c, 0, 69, 0
2, 23360, Note_on_c, 0, 77, 76
2, 23375, Note_on_c, 0, 77, 0
2, 23376, Note_on_c, 0, 62, 76
2, 23391, Note_on_c, 0, 62, 0
2, 23392, Note_on_c, 0, 65, 76
2, 23407, Note_on_c, 0, 65, 0
2, 23408, Note_on_c, 0, 74, 76
2, 23423, Note_on_c, 0, 74, 0
2, 23424, Control_c, 0, 64, 0
2, 23424, Note_on_c, 0, 58, 70
2, 23543, Note_on_c, 0, 58, 0
2, 23544, Note_on_c, 0, 77, 82
2, 23544, Note_on_c, 0, 74, 82
2, 23567, Note_on_c, 0, 77, 0
2, 23567, Note_on_c, 0, 74, 0
2, 23568, Note_on_c, 0, 76, 82
2, 23568, Note_on_c, 0, 72, 82
2, 23591, Note_on_c, 0, 76, 0
2, 23591, Note_on_c, 0, 72, 0
2, 23592, Note_on_c, 0, 74, 82
2, 23592, Note_on_c, 0, 70, 82
2, 23615, Note_on_c, 0, 74, 0
2, 23615, Note_on_c, 0, 70, 0
2, 23616, Note_on_c, 0, 74, 82
2, 23616, Note_on_c, 0, 70, 82
2, 23640, Note_on_c, 0, 74, 0
2, 23640, Note_on_c, 0, 70, 0
2, 23640, Note_on_c, 0, 72, 81
2, 23640, Note_on_c, 0, 69, 81
2, 23663, Note_on_c, 0, 72, 0
2, 23663, Note_on_c, 0, 69, 0
2, 23664, Note_on_c, 0, 70, 80
2, 23664, Note_on_c, 0, 67, 80
2, 23674, Note_on_c, 0, 70, 0
2, 23674, Note_on_c, 0, 67, 0
2, 23688, Note_on_c, 0, 69, 79
2, 23688, Note_on_c, 0, 65, 79
2, 23698, Note_on_c, 0, 69, 0
2, 23698, Note_on_c, 0, 65, 0
2, 23712, Note_on_c, 0, 69, 79
2, 23736, Note_on_c, 0, 69, 0
2, 23736, Note_on_c, 0, 67, 78
2, 23759, Note_on_c, 0, 67, 0
2, 23760, Note_on_c, 0, 65, 77
2, 23770, Note_on_c, 0, 65, 0
2, 23784, Note_on_c, 0, 64, 76
2, 23784, Note_on_c, 0, 58, 76
2, 23794, Note_on_c, 0, 64, 0
2, 23794, Note_on_c, 0, 58, 0
2, 24192, Note_on_c, 0, 64, 82
2, 24204, Note_on_c, 0, 67, 82
2, 24216, Note_on_c, 0, 72, 82
2, 24259, Note_on_c, 0, 72, 0
2, 24259, Note_on_c, 0, 67, 0
2, 24259, Note_on_c, 0, 64, 0
2, 24264, Note_on_c, 0, 67, 82
2, 24287, Note_on_c, 0, 67, 0
2, 24288, Note_on_c, 0, 77, 76
2, 24311, Note_on_c, 0, 77, 0
2, 24312, Note_on_c, 0, 76, 76
2, 24335, Note_on_c, 0, 76, 0
2, 24336, Note_on_c, 0, 74, 76
2, 24359, Note_on_c, 0, 74, 0
2, 24360, Note_on_c, 0, 72, 76
2, 24383, Note_on_c, 0, 72, 0
2, 24384, Note_on_c, 0, 79, 76
2, 24423, Note_on_c, 0, 79, 0
2, 24576, Note_on_c, 0, 77, 76
2, 24643, Note_on_c, 0, 77, 0
2, 24648, Note_on_c, 0, 72, 76
2, 24671, Note_on_c, 0, 72, 0
2, 24672, Note_on_c, 0, 82, 76
2, 24695, Note_on_c, 0, 82, 0
2, 24696, Note_on_c, 0, 81, 76
2, 24719, Note_on_c, 0, 81, 0
2, 24720, Note_on_c, 0, 79, 76
2, 24743, Note_on_c, 0, 79, 0
2, 24744, Note_on_c, 0, 77, 76
2, 24767, Note_on_c, 0, 77, 0
2, 24768, Note_on_c, 0, 84, 76
2, 24807, Note_on_c, 0, 84, 0
2, 24960, Note_on_c, 0, 86, 76
2, 24966, Note_on_c, 0, 86, 0
2, 24966, Note_on_c, 0, 84, 76
2, 24972, Note_on_c, 0, 84, 0
2, 24972, Note_on_c, 0, 82, 76
2, 24978, Note_on_c, 0, 82, 0
2, 24978, Note_on_c, 0, 84, 76
2, 25123, Note_on_c, 0, 84, 0
2, 25128, Note_on_c, 0, 82, 76
2, 25136, Note_on_c, 0, 82, 0
2, 25136, Note_on_c, 0, 81, 76
2, 25144, Note_on_c, 0, 81, 0
2, 25144, Note_on_c, 0, 79, 76
2, 25152, Note_on_c, 0, 79, 0
2, 25152, Note_on_c, 0, 78, 76
2, 25175, Note_on_c, 0, 78, 0
2, 25176, Note_on_c, 0, 75, 76
2, 25199, Note_on_c, 0, 75, 0
2, 25200, Note_on_c, 0, 74, 76
2, 25223, Note_on_c, 0, 74, 0
2, 25224, Note_on_c, 0, 72, 76
2, 25247, Note_on_c, 0, 72, 0
2, 25248, Note_on_c, 0, 70, 76
2, 25271, Note_on_c, 0, 70, 0
2, 25272, Note_on_c, 0, 69, 76
2, 25295, Note_on_c, 0, 69, 0
2, 25296, Note_on_c, 0, 67, 76
2, 25319, Note_on_c, 0, 67, 0
2, 25320, Note_on_c, 0, 66, 76
2, 25343, Note_on_c, 0, 66, 0
2, 25344, Note_on_c, 0, 66, 76
2, 25350, Note_on_c, 0, 66, 0
2, 25350, Note_on_c, 0, 67, 76
2, 25364, Note_on_c, 0, 67, 0
2, 25392, Note_on_c, 0, 69, 77
2, 25398, Note_on_c, 0, 69, 0
2, 25398, Note_on_c, 0, 70, 77
2, 25412, Note_on_c, 0, 70, 0
2, 25440, Note_on_c, 0, 73, 79
2, 25446, Note_on_c, 0, 73, 0
2, 25446, Note_on_c, 0, 74, 79
2, 25460, Note_on_c, 0, 74, 0
2, 25488, Note_on_c, 0, 78, 80
2, 25494, Note_on_c, 0, 78, 0
2, 25494, Note_on_c, 0, 79, 80
2, 25508, Note_on_c, 0, 79, 0
2, 25536, Note_on_c, 0, 81, 82
2, 25542, Note_on_c, 0, 81, 0
2, 25542, Note_on_c, 0, 82, 82
2, 25581, Note_on_c, 0, 82, 0
2, 25728, Note_on_c, 0, 86, 98
2, 25776, Note_on_c, 0, 86, 0
2, 25776, Note_on_c, 0, 86, 82
2, 25869, Note_on_c, 0, 86, 0
2, 25872, Note_on_c, 0, 84, 79
2, 25884, Note_on_c, 0, 84, 0
2, 25884, Note_on_c, 0, 82, 78
2, 25896, Note_on_c, 0, 82, 0
2, 25896, Note_on_c, 0, 81, 77
2, 25908, Note_on_c, 0, 81, 0
2, 25908, Note_on_c, 0, 79, 76
2, 25920, Note_on_c, 0, 79, 0
2, 25920, Note_on_c, 0, 84, 98
2, 25968, Note_on_c, 0, 84, 0
2, 25968, Note_on_c, 0, 84, 82
2, 26061, Note_on_c, 0, 84, 0
2, 26064, Note_on_c, 0, 82, 79
2, 26076, Note_on_c, 0, 82, 0
2, 26076, Note_on_c, 0, 81, 78
2, 26088, Note_on_c, 0, 81, 0
2, 26088, Note_on_c, 0, 79, 77
2, 26100, Note_on_c, 0, 79, 0
2, 26100, Note_on_c, 0, 77, 76
2, 26112, Note_on_c, 0, 77, 0
2, 26112, Note_on_c, 0, 84, 76
2, 26136, Note_on_c, 0, 84, 0
2, 26136, Note_on_c, 0, 82, 76
2, 26159, Note_on_c, 0, 82, 0
2, 26160, Note_on_c, 0, 82, 76
2, 26184, Note_on_c, 0, 82, 0
2, 26184, Note_on_c, 0, 81, 76
2, 26207, Note_on_c, 0, 81, 0
2, 26208, Note_on_c, 0, 81, 76
2, 26253, Note_on_c, 0, 81, 0
2, 26304, Note_on_c, 0, 84, 70
2, 26328, Note_on_c, 0, 84, 0
2, 26328, Note_on_c, 0, 82, 70
2, 26351, Note_on_c, 0, 82, 0
2, 26352, Note_on_c, 0, 82, 70
2, 26376, Note_on_c, 0, 82, 0
2, 26376, Note_on_c, 0, 81, 70
2, 26399, Note_on_c, 0, 81, 0
2, 26400, Note_on_c, 0, 81, 70
2, 26445, Note_on_c, 0, 81, 0
2, 26496, Note_on_c, 0, 84, 70
2, 26502, Note_on_c, 0, 84, 0
2, 26502, Note_on_c, 0, 86, 70
2, 26508, Note_on_c, 0, 86, 0
2, 26508, Note_on_c, 0, 84, 70
2, 26519, Note_on_c, 0, 84, 0
2, 26520, Note_on_c, 0, 82, 70
2, 26543, Note_on_c, 0, 82, 0
2, 26544, Note_on_c, 0, 82, 70
2, 26550, Note_on_c, 0, 82, 0
2, 26550, Note_on_c, 0, 84, 70
2, 26556, Note_on_c, 0, 84, 0
2, 26556, Note_on_c, 0, 82, 70
2, 26567, Note_on_c, 0, 82, 0
2, 26568, Note_on_c, 0, 81, 70
2, 26591, Note_on_c, 0, 81, 0
2, 26592, Note_on_c, 0, 81, 86
2, 26640, Note_on_c, 0, 81, 0
2, 26688, Note_on_c, 0, 81, 70
2, 26694, Note_on_c, 0, 81, 0
2, 26694, Note_on_c, 0, 82, 70
2, 26700, Note_on_c, 0, 82, 0
2, 26700, Note_on_c, 0, 81, 70
2, 26711, Note_on_c, 0, 81, 0
2, 26712, Note_on_c, 0, 79, 70
2, 26735, Note_on_c, 0, 79, 0
2, 26736, Note_on_c, 0, 79, 70
2, 26742, Note_on_c, 0, 79, 0
2, 26742, Note_on_c, 0, 81, 70
2, 26748, Note_on_c, 0, 81, 0
2, 26748, Note_on_c, 0, 79, 70
2, 26759, Note_on_c, 0, 79, 0
2, 26760, Note_on_c, 0, 77, 70
2, 26783, Note_on_c, 0, 77, 0
2, 26784, Note_on_c, 0, 77, 70
2, 26829, Note_on_c, 0, 77, 0
2, 26880, Note_on_c, 0, 77, 82
2, 26886, Note_on_c, 0, 77, 0
2, 26886, Note_on_c, 0, 79, 82
2, 26892, Note_on_c, 0, 79, 0
2, 26892, Note_on_c, 0, 77, 82
2, 26903, Note_on_c, 0, 77, 0
2, 26904, Note_on_c, 0, 76, 82
2, 26927, Note_on_c, 0, 76, 0
2, 26928, Note_on_c, 0, 74, 82
2, 26934, Note_on_c, 0, 74, 0
2, 26934, Note_on_c, 0, 76, 82
2, 26940, Note_on_c, 0, 76, 0
2, 26940, Note_on_c, 0, 74, 82
2, 26951, Note_on_c, 0, 74, 0
2, 26952, Note_on_c, 0, 72, 82
2, 26975, Note_on_c, 0, 72, 0
2, 26976, Note_on_c, 0, 72, 98
2, 27024, Note_on_c, 0, 72, 0
2, 27024, Note_on_c, 0, 72, 82
2, 27051, Note_on_c, 0, 72, 0
2, 27054, Note_on_c, 0, 74, 82
2, 27060, Note_on_c, 0, 74, 0
2, 27060, Note_on_c, 0, 72, 82
2, 27066, Note_on_c, 0, 72, 0
2, 27066, Note_on_c, 0, 71, 82
2, 27072, Note_on_c, 0, 71, 0
2, 27072, Note_on_c, 0, 72, 98
2, 27168, Note_on_c, 0, 72, 0
2, 27264, Note_on_c, 0, 72, 76
2, 27353, Note_on_c, 0, 72, 0
2, 27360, Note_on_c, 0, 70, 76
2, 27383, Note_on_c, 0, 70, 0
2, 27384, Note_on_c, 0, 69, 76
2, 27407, Note_on_c, 0, 69, 0
2, 27408, Note_on_c, 0, 67, 76
2, 27431, Note_on_c, 0, 67, 0
2, 27432, Note_on_c, 0, 65, 76
2, 27455, Note_on_c, 0, 65, 0
2, 27456, Note_on_c, 0, 65, 76
2, 27552, Note_on_c, 0, 65, 0
2, 27552, Note_on_c, 0, 64, 76
2, 27558, Note_on_c, 0, 64, 0
2, 27558, Note_on_c, 0, 65, 76
2, 27564, Note_on_c, 0, 65, 0
2, 27564, Note_on_c, 0, 64, 76
2, 27619, Note_on_c, 0, 64, 0
2, 27624, Note_on_c, 0, 64, 76
2, 27647, Note_on_c, 0, 64, 0
2, 27648, Note_on_c, 0, 65, 76
2, 27671, Note_on_c, 0, 65, 0
2, 27672, Note_on_c, 0, 67, 76
2, 27695, Note_on_c, 0, 67, 0
2, 27696, Note_on_c, 0, 69, 77
2, 27719, Note_on_c, 0, 69, 0
2, 27720, Note_on_c, 0, 70, 78
2, 27743, Note_on_c, 0, 70, 0
2, 27744, Note_on_c, 0, 72, 79
2, 27767, Note_on_c, 0, 72, 0
2, 27768, Note_on_c, 0, 74, 79
2, 27791, Note_on_c, 0, 74, 0
2, 27792, Note_on_c, 0, 76, 80
2, 27815, Note_on_c, 0, 76, 0
2, 27816, Note_on_c, 0, 77, 81
2, 27839, Note_on_c, 0, 77, 0
2, 27840, Note_on_c, 0, 77, 98
2, 27864, Note_on_c, 0, 77, 0
2, 27864, Note_on_c, 0, 76, 81
2, 27887, Note_on_c, 0, 76, 0
2, 27888, Note_on_c, 0, 74, 80
2, 27911, Note_on_c, 0, 74, 0
2, 27912, Note_on_c, 0, 72, 79
2, 27935, Note_on_c, 0, 72, 0
2, 27936, Note_on_c, 0, 72, 79
2, 27959, Note_on_c, 0, 72, 0
2, 27960, Note_on_c, 0, 70, 78
2, 27983, Note_on_c, 0, 70, 0
2, 27984, Note_on_c, 0, 69, 77
2, 28007, Note_on_c, 0, 69, 0
2, 28008, Note_on_c, 0, 67, 76
2, 28031, Note_on_c, 0, 67, 0
2, 28032, Note_on_c, 0, 84, 92
2, 28104, Note_on_c, 0, 84, 0
2, 28104, Note_on_c, 0, 86, 76
2, 28116, Note_on_c, 0, 86, 0
2, 28116, Note_on_c, 0, 84, 76
2, 28128, Note_on_c, 0, 84, 0
2, 28128, Note_on_c, 0, 82, 76
2, 28151, Note_on_c, 0, 82, 0
2, 28152, Note_on_c, 0, 81, 76
2, 28175, Note_on_c, 0, 81, 0
2, 28176, Note_on_c, 0, 79, 76
2, 28199, Note_on_c, 0, 79, 0
2, 28200, Note_on_c, 0, 77, 76
2, 28223, Note_on_c, 0, 77, 0
2, 28224, Note_on_c, 0, 77, 76
2, 28320, Note_on_c, 0, 77, 0
2, 28320, Note_on_c, 0, 76, 76
2, 28326, Note_on_c, 0, 76, 0
2, 28326, Note_on_c, 0, 77, 76
2, 28332, Note_on_c, 0, 77, 0
2, 28332, Note_on_c, 0, 76, 76
2, 28387, Note_on_c, 0, 76, 0
2, 28392, Note_on_c, 0, 82, 76
2, 28415, Note_on_c, 0, 82, 0
2, 28416, Note_on_c, 0, 81, 76
2, 28426, Note_on_c, 0, 81, 0
2, 28440, Note_on_c, 0, 82, 76
2, 28450, Note_on_c, 0, 82, 0
2, 28464, Note_on_c, 0, 84, 77
2, 28474, Note_on_c, 0, 84, 0
2, 28488, Note_on_c, 0, 86, 78
2, 28498, Note_on_c, 0, 86, 0
2, 28512, Note_on_c, 0, 88, 79
2, 28522, Note_on_c, 0, 88, 0
2, 28536, Note_on_c, 0, 89, 79
2, 28546, Note_on_c, 0, 89, 0
2, 28560, Note_on_c, 0, 88, 80
2, 28570, Note_on_c, 0, 88, 0
2, 28584, Note_on_c, 0, 89, 81
2, 28594, Note_on_c, 0, 89, 0
2, 28608, Note_on_c, 0, 89, 98
2, 28632, Note_on_c, 0, 89, 0
2, 28632, Note_on_c, 0, 88, 81
2, 28655, Note_on_c, 0, 88, 0
2, 28656, Note_on_c, 0, 86, 80
2, 28679, Note_on_c, 0, 86, 0
2, 28680, Note_on_c, 0, 84, 79
2, 28703, Note_on_c, 0, 84, 0
2, 28704, Note_on_c, 0, 84, 95
2, 28728, Note_on_c, 0, 84, 0
2, 28728, Note_on_c, 0, 86, 78
2, 28740, Note_on_c, 0, 86, 0
2, 28740, Note_on_c, 0, 84, 77
2, 28752, Note_on_c, 0, 84, 0
2, 28752, Note_on_c, 0, 84, 77
2, 28764, Note_on_c, 0, 84, 0
2, 28764, Note_on_c, 0, 82, 77
2, 28776, Note_on_c, 0, 82, 0
2, 28776, Note_on_c, 0, 81, 76
2, 28788, Note_on_c, 0, 81, 0
2, 28788, Note_on_c, 0, 79, 76
2, 28800, Note_on_c, 0, 79, 0
2, 28800, Note_on_c, 0, 81, 76
2, 28823, Note_on_c, 0, 81, 0
2, 28824, Note_on_c, 0, 82, 76
2, 28847, Note_on_c, 0, 82, 0
2, 28848, Note_on_c, 0, 81, 77
2, 28871, Note_on_c, 0, 81, 0
2, 28872, Note_on_c, 0, 82, 78
2, 28895, Note_on_c, 0, 82, 0
2, 28896, Note_on_c, 0, 84, 79
2, 28919, Note_on_c, 0, 84, 0
2, 28920, Note_on_c, 0, 86, 79
2, 28943, Note_on_c, 0, 86, 0
2, 28944, Note_on_c, 0, 84, 80
2, 28967, Note_on_c, 0, 84, 0
2, 28968, Note_on_c, 0, 86, 81
2, 28991, Note_on_c, 0, 86, 0
2, 28992, Note_on_c, 0, 87, 98
2, 28992, Note_on_c, 0, 75, 98
2, 29184, Note_on_c, 0, 87, 0
2, 29184, Note_on_c, 0, 75, 0
2, 29208, Note_on_c, 0, 86, 82
2, 29231, Note_on_c, 0, 86, 0
2, 29232, Note_on_c, 0, 85, 82
2, 29255, Note_on_c, 0, 85, 0
2, 29256, Note_on_c, 0, 86, 82
2, 29279, Note_on_c, 0, 86, 0
2, 29304, Note_on_c, 0, 84, 82
2, 29327, Note_on_c, 0, 84, 0
2, 29328, Note_on_c, 0, 83, 82
2, 29351, Note_on_c, 0, 83, 0
2, 29352, Note_on_c, 0, 84, 82
2, 29375, Note_on_c, 0, 84, 0
2, 29400, Note_on_c, 0, 83, 82
2, 29423, Note_on_c, 0, 83, 0
2, 29424, Note_on_c, 0, 84, 81
2, 29430, Note_on_c, 0, 84, 0
2, 29430, Note_on_c, 0, 83, 81
2, 29436, Note_on_c, 0, 83, 0
2, 29436, Note_on_c, 0, 81, 81
2, 29442, Note_on_c, 0, 81, 0
2, 29442, Note_on_c, 0, 83, 81
2, 29469, Note_on_c, 0, 83, 0
2, 29496, Note_on_c, 0, 82, 78
2, 29519, Note_on_c, 0, 82, 0
2, 29520, Note_on_c, 0, 84, 77
2, 29526, Note_on_c, 0, 84, 0
2, 29526, Note_on_c, 0, 82, 77
2, 29532, Note_on_c, 0, 82, 0
2, 29532, Note_on_c, 0, 81, 77
2, 29538, Note_on_c, 0, 81, 0
2, 29538, Note_on_c, 0, 82, 77
2, 29565, Note_on_c, 0, 82, 0
2, 29592, Note_on_c, 0, 81, 76
2, 29615, Note_on_c, 0, 81, 0
2, 29616, Note_on_c, 0, 82, 77
2, 29639, Note_on_c, 0, 82, 0
2, 29640, Note_on_c, 0, 84, 78
2, 29663, Note_on_c, 0, 84, 0
2, 29664, Note_on_c, 0, 84, 79
2, 29687, Note_on_c, 0, 84, 0
2, 29688, Note_on_c, 0, 74, 80
2, 29711, Note_on_c, 0, 74, 0
2, 29712, Note_on_c, 0, 82, 81
2, 29735, Note_on_c, 0, 82, 0
2, 29736, Note_on_c, 0, 79, 82
2, 29759, Note_on_c, 0, 79, 0
2, 29760, Note_on_c, 0, 77, 82
2, 29849, Note_on_c, 0, 77, 0
2, 29856, Note_on_c, 0, 77, 78
2, 29863, Note_on_c, 0, 77, 0
2, 29863, Note_on_c, 0, 76, 78
2, 29870, Note_on_c, 0, 76, 0
2, 29870, Note_on_c, 0, 77, 78
2, 29877, Note_on_c, 0, 77, 0
2, 29877, Note_on_c, 0, 76, 78
2, 29884, Note_on_c, 0, 76, 0
2, 29884, Note_on_c, 0, 77, 78
2, 29891, Note_on_c, 0, 77, 0
2, 29891, Note_on_c, 0, 76, 77
2, 29898, Note_on_c, 0, 76, 0
2, 29898, Note_on_c, 0, 77, 77
2, 29905, Note_on_c, 0, 77, 0
2, 29905, Note_on_c, 0, 76, 77
2, 29912, Note_on_c, 0, 76, 0
2, 29912, Note_on_c, 0, 77, 77
2, 29919, Note_on_c, 0, 77, 0
2, 29919, Note_on_c, 0, 76, 77
2, 29926, Note_on_c, 0, 76, 0
2, 29926, Note_on_c, 0, 74, 76
2, 29940, Note_on_c, 0, 74, 0
2, 29940, Note_on_c, 0, 76, 76
2, 29952, Note_on_c, 0, 76, 0
2, 29976, Note_on_c, 0, 84, 76
2, 29999, Note_on_c, 0, 84, 0
2, 30000, Note_on_c, 0, 81, 76
2, 30023, Note_on_c, 0, 81, 0
2, 30024, Note_on_c, 0, 77, 77
2, 30047, Note_on_c, 0, 77, 0
2, 30048, Note_on_c, 0, 75, 78
2, 30071, Note_on_c, 0, 75, 0
2, 30072, Note_on_c, 0, 74, 79
2, 30095, Note_on_c, 0, 74, 0
2, 30096, Note_on_c, 0, 85, 80
2, 30120, Note_on_c, 0, 85, 0
2, 30120, Note_on_c, 0, 86, 81
2, 30143, Note_on_c, 0, 86, 0
2, 30144, Note_on_c, 0, 77, 82
2, 30233, Note_on_c, 0, 77, 0
2, 30240, Note_on_c, 0, 81, 82
2, 30247, Note_on_c, 0, 81, 0
2, 30247, Note_on_c, 0, 79, 81
2, 30254, Note_on_c, 0, 79, 0
2, 30254, Note_on_c, 0, 81, 81
2, 30261, Note_on_c, 0, 81, 0
2, 30261, Note_on_c, 0, 79, 80
2, 30268, Note_on_c, 0, 79, 0
2, 30268, Note_on_c, 0, 81, 80
2, 30275, Note_on_c, 0, 81, 0
2, 30275, Note_on_c, 0, 79, 80
2, 30282, Note_on_c, 0, 79, 0
2, 30282, Note_on_c, 0, 81, 79
2, 30289, Note_on_c, 0, 81, 0
2, 30289, Note_on_c, 0, 79, 79
2, 30296, Note_on_c, 0, 79, 0
2, 30296, Note_on_c, 0, 81, 79
2, 30303, Note_on_c, 0, 81, 0
2, 30303, Note_on_c, 0, 79, 78
2, 30310, Note_on_c, 0, 79, 0
2, 30310, Note_on_c, 0, 77, 78
2, 30324, Note_on_c, 0, 77, 0
2, 30324, Note_on_c, 0, 79, 77
2, 30336, Note_on_c, 0, 79, 0
2, 30336, Note_on_c, 0, 77, 76
2, 30381, Note_on_c, 0, 77, 0
2, 30384, Note_on_c, 0, 69, 70
2, 30384, Note_on_c, 0, 65, 70
2, 30404, Note_on_c, 0, 69, 0
2, 30404, Note_on_c, 0, 65, 0
2, 30432, Note_on_c, 0, 69, 70
2, 30432, Note_on_c, 0, 65, 70
2, 30452, Note_on_c, 0, 69, 0
2, 30452, Note_on_c, 0, 65, 0
2, 30480, Note_on_c, 0, 69, 70
2, 30480, Note_on_c, 0, 65, 70
2, 30500, Note_on_c, 0, 69, 0
2, 30500, Note_on_c, 0, 65, 0
2, 30528, Note_on_c, 0, 65, 70
2, 30573, Note_on_c, 0, 65, 0
2, 30576, Note_on_c, 0, 72, 70
2, 30576, Note_on_c, 0, 69, 70
2, 30621, Note_on_c, 0, 72, 0
2, 30621, Note_on_c, 0, 69, 0
2, 30624, Note_on_c, 0, 69, 70
2, 30624, Note_on_c, 0, 65, 70
2, 30669, Note_on_c, 0, 69, 0
2, 30669, Note_on_c, 0, 65, 0
2, 30672, Note_on_c, 0, 65, 70
2, 30672, Note_on_c, 0, 62, 70
2, 30717, Note_on_c, 0, 65, 0
2, 30717, Note_on_c, 0, 62, 0
2, 30720, Note_on_c, 0, 62, 70
2, 30720, Note_on_c, 0, 58, 70
2, 30839, Note_on_c, 0, 62, 0
2, 30839, Note_on_c, 0, 58, 0
2, 30840, Note_on_c, 0, 62, 82
2, 30840, Note_on_c, 0, 58, 82
2, 30850, Note_on_c, 0, 62, 0
2, 30850, Note_on_c, 0, 58, 0
2, 30864, Note_on_c, 0, 64, 81
2, 30864, Note_on_c, 0, 60, 81
2, 30874, Note_on_c, 0, 64, 0
2, 30874, Note_on_c, 0, 60, 0
2, 30888, Note_on_c, 0, 65, 80
2, 30888, Note_on_c, 0, 62, 80
2, 30898, Note_on_c, 0, 65, 0
2, 30898, Note_on_c, 0, 62, 0
2, 30912, Note_on_c, 0, 65, 80
2, 30912, Note_on_c, 0, 62, 80
2, 30936, Note_on_c, 0, 65, 0
2, 30936, Note_on_c, 0, 62, 0
2, 30936, Note_on_c, 0, 64, 79
2, 30936, Note_on_c, 0, 60, 79
2, 30959, Note_on_c, 0, 64, 0
2, 30959, Note_on_c, 0, 60, 0
2, 30960, Note_on_c, 0, 62, 79
2, 30960, Note_on_c, 0, 58, 79
2, 30970, Note_on_c, 0, 62, 0
2, 30970, Note_on_c, 0, 58, 0
2, 30984, Note_on_c, 0, 60, 78
2, 30984, Note_on_c, 0, 57, 78
2, 30994, Note_on_c, 0, 60, 0
2, 30994, Note_on_c, 0, 57, 0
2, 31008, Note_on_c, 0, 60, 78
2, 31008, Note_on_c, 0, 57, 78
2, 31032, Note_on_c, 0, 60, 0
2, 31032, Note_on_c, 0, 57, 0
2, 31032, Note_on_c, 0, 58, 77
2, 31032, Note_on_c, 0, 55, 77
2, 31055, Note_on_c, 0, 58, 0
2, 31055, Note_on_c, 0, 55, 0
2, 31056, Note_on_c, 0, 57, 77
2, 31056, Note_on_c, 0, 53, 77
2, 31066, Note_on_c, 0, 57, 0
2, 31066, Note_on_c, 0, 53, 0
2, 31080, Note_on_c, 0, 55, 76
2, 31080, Note_on_c, 0, 52, 76
2, 31090, Note_on_c, 0, 55, 0
2, 31090, Note_on_c, 0, 52, 0
2, 31152, Control_c, 0, 64, 127
2, 31152, Note_on_c, 0, 65, 76
2, 31167, Note_on_c, 0, 65, 0
2, 31168, Note_on_c, 0, 69, 76
2, 31183, Note_on_c, 0, 69, 0
2, 31184, Note_on_c, 0, 77, 76
2, 31199, Note_on_c, 0, 77, 0
2, 31200, Note_on_c, 0, 65, 76
2, 31215, Note_on_c, 0, 65, 0
2, 31216, Note_on_c, 0, 69, 76
2, 31231, Note_on_c, 0, 69, 0
2, 31232, Note_on_c, 0, 77, 76
2, 31247, Note_on_c, 0, 77, 0
2, 31248, Note_on_c, 0, 65, 76
2, 31263, Note_on_c, 0, 65, 0
2, 31264, Note_on_c, 0, 69, 76
2, 31279, Note_on_c, 0, 69, 0
2, 31280, Note_on_c, 0, 77, 76
2, 31295, Note_on_c, 0, 77, 0
2, 31296, Note_on_c, 0, 65, 76
2, 31311, Note_on_c, 0, 65, 0
2, 31312, Note_on_c, 0, 69, 76
2, 31327, Note_on_c, 0, 69, 0
2, 31328, Note_on_c, 0, 77, 76
2, 31343, Note_on_c, 0, 77, 0
2, 31344, Note_on_c, 0, 69, 76
2, 31359, Note_on_c, 0, 69, 0
2, 31360, Note_on_c, 0, 72, 76
2, 31375, Note_on_c, 0, 72, 0
2, 31376, Note_on_c, 0, 81, 76
2, 31391, Note_on_c, 0, 81, 0
2, 31392, Note_on_c, 0, 65, 76
2, 31407, Note_on_c, 0, 65, 0
2, 31408, Note_on_c, 0, 69, 76
2, 31423, Note_on_c, 0, 69, 0
2, 31424, Note_on_c, 0, 77, 76
2, 31439, Note_on_c, 0, 77, 0
2, 31440, Note_on_c, 0, 62, 76
2, 31455, Note_on_c, 0, 62, 0
2, 31456, Note_on_c, 0, 65, 76
2, 31471, Note_on_c, 0, 65, 0
2, 31472, Note_on_c, 0, 74, 76
2, 31487, Note_on_c, 0, 74, 0
2, 31488, Control_c, 0, 64, 0
2, 31488, Note_on_c, 0, 58, 70
2, 31607, Note_on_c, 0, 58, 0
2, 31608, Note_on_c, 0, 77, 82
2, 31608, Note_on_c, 0, 74, 82
2, 31631, Note_on_c, 0, 77, 0
2, 31631, Note_on_c, 0, 74, 0
2, 31632, Note_on_c, 0, 76, 82
2, 31632, Note_on_c, 0, 72, 82
2, 31655, Note_on_c, 0, 76, 0
2, 31655, Note_on_c, 0, 72, 0
2, 31656, Note_on_c, 0, 74, 82
2, 31656, Note_on_c, 0, 70, 82
2, 31679, Note_on_c, 0, 74, 0
2, 31679, Note_on_c, 0, 70, 0
2, 31680, Note_on_c, 0, 74, 82
2, 31680, Note_on_c, 0, 70, 82
2, 31704, Note_on_c, 0, 74, 0
2, 31704, Note_on_c, 0, 70, 0
2, 31704, Note_on_c, 0, 72, 81
2, 31704, Note_on_c, 0, 69, 81
2, 31727, Note_on_c, 0, 72, 0
2, 31727, Note_on_c, 0, 69, 0
2, 31728, Note_on_c, 0, 70, 80
2, 31728, Note_on_c, 0, 67, 80
2, 31738, Note_on_c, 0, 70, 0
2, 31738, Note_on_c, 0, 67, 0
2, 31752, Note_on_c, 0, 69, 79
2, 31752, Note_on_c, 0, 65, 79
2, 31762, Note_on_c, 0, 69, 0
2, 31762, Note_on_c, 0, 65, 0
2, 31776, Note_on_c, 0, 69, 79
2, 31800, Note_on_c, 0, 69, 0
2, 31800, Note_on_c, 0, 67, 78
2, 31823, Note_on_c, 0, 67, 0
2, 31824, Note_on_c, 0, 65, 77
2, 31834, Note_on_c, 0, 65, 0
2, 31848, Note_on_c, 0, 64, 76
2, 31848, Note_on_c, 0, 58, 76
2, 31858, Note_on_c, 0, 64, 0
2, 31858, Note_on_c, 0, 58, 0
2, 32256, End_track
3, 0, Start_track
3, 0, Program_c, 0, 0
3, 0, Control_c, 0, 7, 127
3, 0, Control_c, 0, 10, 64
3, 6336, Note_on_c, 0, 77, 64
3, 6342, Note_on_c, 0, 77, 0
3, 6342, Note_on_c, 0, 76, 64
3, 6348, Note_on_c, 0, 76, 0
3, 6348, Note_on_c, 0, 74, 64
3, 6354, Note_on_c, 0, 74, 0
3, 6354, Note_on_c, 0, 76, 64
3, 6381, Note_on_c, 0, 76, 0
3, 14400, Note_on_c, 0, 77, 64
3, 14406, Note_on_c, 0, 77, 0
3, 14406, Note_on_c, 0, 76, 64
3, 14412, Note_on_c, 0, 76, 0
3, 14412, Note_on_c, 0, 74, 64
3, 14418, Note_on_c, 0, 74, 0
3, 14418, Note_on_c, 0, 76, 64
3, 14445, Note_on_c, 0, 76, 0
3, 22464, Note_on_c, 0, 70, 82
3, 22470, Note_on_c, 0, 70, 0
3, 22470, Note_on_c, 0, 69, 82
3, 22476, Note_on_c, 0, 69, 0
3, 22476, Note_on_c, 0, 67, 82
3, 22482, Note_on_c, 0, 67, 0
3, 22482, Note_on_c, 0, 69, 82
3, 22509, Note_on_c, 0, 69, 0
3, 30528, Note_on_c, 0, 70, 82
3, 30534, Note_on_c, 0, 70, 0
3, 30534, Note_on_c, 0, 69, 82
3, 30540, Note_on_c, 0, 69, 0
3, 30540, Note_on_c, 0, 67, 82
3, 30546, Note_on_c, 0, 67, 0
3, 30546, Note_on_c, 0, 69, 82
3, 30573, Note_on_c, 0, 69, 0
3, 32256, End_track
4, 0, Start_track
4, 0, Program_c, 1, 0
4, 0, Control_c, 1, 7, 127
4, 0, Control_c, 1, 10, 64
4, 0, Note_on_c, 1, 41, 82
4, 6, Note_on_c, 1, 45, 82
4, 12, Note_on_c, 1, 48, 82
4, 18, Note_on_c, 1, 53, 82
4, 45, Note_on_c, 1, 53, 0
4, 45, Note_on_c, 1, 48, 0
4, 45, Note_on_c, 1, 45, 0
4, 45, Note_on_c, 1, 41, 0
4, 192, Note_on_c, 1, 58, 70
4, 192, Note_on_c, 1, 55, 70
4, 192, Note_on_c, 1, 48, 70
4, 212, Note_on_c, 1, 58, 0
4, 212, Note_on_c, 1, 55, 0
4, 212, Note_on_c, 1, 48, 0
4, 384, Note_on_c, 1, 52, 82
4, 390, Note_on_c, 1, 55, 82
4, 396, Note_on_c, 1, 58, 82
4, 402, Note_on_c, 1, 60, 82
4, 429, Note_on_c, 1, 60, 0
4, 429, Note_on_c, 1, 58, 0
4, 429, Note_on_c, 1, 55, 0
4, 429, Note_on_c, 1, 52, 0
4, 576, Note_on_c, 1, 60, 82
4, 576, Note_on_c, 1, 53, 82
4, 596, Note_on_c, 1, 60, 0
4, 596, Note_on_c, 1, 53, 0
4, 1152, Note_on_c, 1, 58, 82
4, 1329, Note_on_c, 1, 58, 0
4, 1344, Note_on_c, 1, 57, 82
4, 1440, Note_on_c, 1, 57, 0
4, 1440, Note_on_c, 1, 55, 82
4, 1529, Note_on_c, 1, 55, 0
4, 1536, Note_on_c, 1, 41, 82
4, 1542, Note_on_c, 1, 45, 82
4, 1548, Note_on_c, 1, 48, 82
4, 1554, Note_on_c, 1, 53, 82
4, 1629, Note_on_c, 1, 53, 0
4, 1629, Note_on_c, 1, 48, 0
4, 1629, Note_on_c, 1, 45, 0
4, 1629, Note_on_c, 1, 41, 0
4, 1728, Note_on_c, 1, 58, 70
4, 1773, Note_on_c, 1, 58, 0
4, 1776, Note_on_c, 1, 57, 70
4, 1821, Note_on_c, 1, 57, 0
4, 1824, Note_on_c, 1, 55, 70
4, 1869, Note_on_c, 1, 55, 0
4, 1872, Note_on_c, 1, 53, 70
4, 1917, Note_on_c, 1, 53, 0
4, 1920, Note_on_c, 1, 55, 70
4, 1920, Note_on_c, 1, 52, 70
4, 2097, Note_on_c, 1, 55, 0
4, 2097, Note_on_c, 1, 52, 0
4, 2112, Note_on_c, 1, 53, 70
4, 2112, Note_on_c, 1, 41, 70
4, 2151, Note_on_c, 1, 53, 0
4, 2151, Note_on_c, 1, 41, 0
4, 2304, Note_on_c, 1, 58, 70
4, 2304, Note_on_c, 1, 46, 70
4, 2393, Note_on_c, 1, 58, 0
4, 2393, Note_on_c, 1, 46, 0
4, 2592, Note_on_c, 1, 70, 70
4, 2592, Note_on_c, 1, 58, 70
4, 2681, Note_on_c, 1, 70, 0
4, 2681, Note_on_c, 1, 58, 0
4, 2688, Note_on_c, 1, 69, 70
4, 2688, Note_on_c, 1, 60, 70
4, 2880, Note_on_c, 1, 69, 0
4, 2880, Note_on_c, 1, 67, 70
4, 2969, Note_on_c, 1, 67, 0
4, 2969, Note_on_c, 1, 60, 0
4, 3072, Note_on_c, 1, 60, 61
4, 3095, Note_on_c, 1, 60, 0
4, 3096, Note_on_c, 1, 67, 61
4, 3119, Note_on_c, 1, 67, 0
4, 3120, Note_on_c, 1, 64, 61
4, 3143, Note_on_c, 1, 64, 0
4, 3144, Note_on_c, 1, 67, 61
4, 3167, Note_on_c, 1, 67, 0
4, 3168, Note_on_c, 1, 60, 61
4, 3191, Note_on_c, 1, 60, 0
4, 3192, Note_on_c, 1, 67, 61
4, 3215, Note_on_c, 1, 67, 0
4, 3216, Note_on_c, 1, 64, 61
4, 3239, Note_on_c, 1, 64, 0
4, 3240, Note_on_c, 1, 67, 61
4, 3263, Note_on_c, 1, 67, 0
4, 3264, Note_on_c, 1, 62, 61
4, 3287, Note_on_c, 1, 62, 0
4, 3288, Note_on_c, 1, 67, 61
4, 3311, Note_on_c, 1, 67, 0
4, 3312, Note_on_c, 1, 65, 61
4, 3335, Note_on_c, 1, 65, 0
4, 3336, Note_on_c, 1, 67, 61
4, 3359, Note_on_c, 1, 67, 0
4, 3360, Note_on_c, 1, 62, 61
4, 3383, Note_on_c, 1, 62, 0
4, 3384, Note_on_c, 1, 67, 61
4, 3407, Note_on_c, 1, 67, 0
4, 3408, Note_on_c, 1, 65, 61
4, 3431, Note_on_c, 1, 65, 0
4, 3432, Note_on_c, 1, 67, 61
4, 3455, Note_on_c, 1, 67, 0
4, 3456, Note_on_c, 1, 60, 61
4, 3479, Note_on_c, 1, 60, 0
4, 3480, Note_on_c, 1, 67, 61
4, 3503, Note_on_c, 1, 67, 0
4, 3504, Note_on_c, 1, 64, 61
4, 3527, Note_on_c, 1, 64, 0
4, 3528, Note_on_c, 1, 67, 61
4, 3551, Note_on_c, 1, 67, 0
4, 3552, Note_on_c, 1, 60, 61
4, 3575, Note_on_c, 1, 60, 0
4, 3576, Note_on_c, 1, 67, 61
4, 3599, Note_on_c, 1, 67, 0
4, 3600, Note_on_c, 1, 64, 61
4, 3623, Note_on_c, 1, 64, 0
4, 3624, Note_on_c, 1, 67, 61
4, 3647, Note_on_c, 1, 67, 0
4, 3648, Note_on_c, 1, 62, 61
4, 3671, Note_on_c, 1, 62, 0
4, 3672, Note_on_c, 1, 67, 61
4, 3695, Note_on_c, 1, 67, 0
4, 3696, Note_on_c, 1, 65, 61
4, 3719, Note_on_c, 1, 65, 0
4, 3720, Note_on_c, 1, 67, 61
4, 3743, Note_on_c, 1, 67, 0
4, 3744, Note_on_c, 1, 62, 61
4, 3767, Note_on_c, 1, 62, 0
4, 3768, Note_on_c, 1, 67, 61
4, 3791, Note_on_c, 1, 67, 0
4, 3792, Note_on_c, 1, 65, 61
4, 3815, Note_on_c, 1, 65, 0
4, 3816, Note_on_c, 1, 67, 61
4, 3839, Note_on_c, 1, 67, 0
4, 3840, Note_on_c, 1, 60, 61
4, 3863, Note_on_c, 1, 60, 0
4, 3864, Note_on_c, 1, 67, 61
4, 3887, Note_on_c, 1, 67, 0
4, 3888, Note_on_c, 1, 64, 61
4, 3911, Note_on_c, 1, 64, 0
4, 3912, Note_on_c, 1, 67, 61
4, 3935, Note_on_c, 1, 67, 0
4, 3936, Note_on_c, 1, 60, 61
4, 3959, Note_on_c, 1, 60, 0
4, 3960, Note_on_c, 1, 67, 61
4, 3983, Note_on_c, 1, 67, 0
4, 3984, Note_on_c, 1, 64, 61
4, 4007, Note_on_c, 1, 64, 0
4, 4008, Note_on_c, 1, 67, 61
4, 4031, Note_on_c, 1, 67, 0
4, 4032, Note_on_c, 1, 62, 61
4, 4055, Note_on_c, 1, 62, 0
4, 4056, Note_on_c, 1, 67, 61
4, 4079, Note_on_c, 1, 67, 0
4, 4080, Note_on_c, 1, 65, 61
4, 4103, Note_on_c, 1, 65, 0
4, 4104, Note_on_c, 1, 67, 61
4, 4127, Note_on_c, 1, 67, 0
4, 4128, Note_on_c, 1, 62, 61
4, 4151, Note_on_c, 1, 62, 0
4, 4152, Note_on_c, 1, 67, 61
4, 4175, Note_on_c, 1, 67, 0
4, 4176, Note_on_c, 1, 65, 61
4, 4199, Note_on_c, 1, 65, 0
4, 4200, Note_on_c, 1, 67, 61
4, 4223, Note_on_c, 1, 67, 0
4, 4224, Note_on_c, 1, 60, 61
4, 4247, Note_on_c, 1, 60, 0
4, 4248, Note_on_c, 1, 67, 61
4, 4271, Note_on_c, 1, 67, 0
4, 4272, Note_on_c, 1, 64, 61
4, 4295, Note_on_c, 1, 64, 0
4, 4296, Note_on_c, 1, 67, 61
4, 4319, Note_on_c, 1, 67, 0
4, 4320, Note_on_c, 1, 60, 61
4, 4343, Note_on_c, 1, 60, 0
4, 4344, Note_on_c, 1, 67, 61
4, 4367, Note_on_c, 1, 67, 0
4, 4368, Note_on_c, 1, 64, 61
4, 4391, Note_on_c, 1, 64, 0
4, 4392, Note_on_c, 1, 67, 61
4, 4415, Note_on_c, 1, 67, 0
4, 4416, Note_on_c, 1, 62, 61
4, 4439, Note_on_c, 1, 62, 0
4, 4440, Note_on_c, 1, 67, 61
4, 4463, Note_on_c, 1, 67, 0
4, 4464, Note_on_c, 1, 65, 61
4, 4487, Note_on_c, 1, 65, 0
4, 4488, Note_on_c, 1, 67, 61
4, 4511, Note_on_c, 1, 67, 0
4, 4512, Note_on_c, 1, 62, 61
4, 4535, Note_on_c, 1, 62, 0
4, 4536, Note_on_c, 1, 67, 61
4, 4559, Note_on_c, 1, 67, 0
4, 4560, Note_on_c, 1, 65, 61
4, 4583, Note_on_c, 1, 65, 0
4, 4584, Note_on_c, 1, 67, 61
4, 4607, Note_on_c, 1, 67, 0
4, 4608, Note_on_c, 1, 60, 61
4, 4631, Note_on_c, 1, 60, 0
4, 4632, Note_on_c, 1, 67, 62
4, 4655, Note_on_c, 1, 67, 0
4, 4656, Note_on_c, 1, 64, 63
4, 4679, Note_on_c, 1, 64, 0
4, 4680, Note_on_c, 1, 67, 64
4, 4703, Note_on_c, 1, 67, 0
4, 4704, Note_on_c, 1, 60, 65
4, 4727, Note_on_c, 1, 60, 0
4, 4728, Note_on_c, 1, 67, 66
4, 4751, Note_on_c, 1, 67, 0
4, 4752, Note_on_c, 1, 64, 67
4, 4775, Note_on_c, 1, 64, 0
4, 4776, Note_on_c, 1, 67, 68
4, 4799, Note_on_c, 1, 67, 0
4, 4800, Note_on_c, 1, 52, 70
4, 4823, Note_on_c, 1, 52, 0
4, 4824, Note_on_c, 1, 60, 70
4, 4847, Note_on_c, 1, 60, 0
4, 4848, Note_on_c, 1, 55, 70
4, 4871, Note_on_c, 1, 55, 0
4, 4872, Note_on_c, 1, 60, 70
4, 4895, Note_on_c, 1, 60, 0
4, 4896, Note_on_c, 1, 52, 70
4, 4919, Note_on_c, 1, 52, 0
4, 4920, Note_on_c, 1, 60, 70
4, 4943, Note_on_c, 1, 60, 0
4, 4944, Note_on_c, 1, 55, 70
4, 4967, Note_on_c, 1, 55, 0
4, 4968, Note_on_c, 1, 60, 70
4, 4991, Note_on_c, 1, 60, 0
4, 4992, Note_on_c, 1, 53, 70
4, 5015, Note_on_c, 1, 53, 0
4, 5016, Note_on_c, 1, 60, 70
4, 5039, Note_on_c, 1, 60, 0
4, 5040, Note_on_c, 1, 57, 70
4, 5063, Note_on_c, 1, 57, 0
4, 5064, Note_on_c, 1, 60, 70
4, 5087, Note_on_c, 1, 60, 0
4, 5088, Note_on_c, 1, 52, 70
4, 5111, Note_on_c, 1, 52, 0
4, 5112, Note_on_c, 1, 61, 70
4, 5135, Note_on_c, 1, 61, 0
4, 5136, Note_on_c, 1, 55, 70
4, 5159, Note_on_c, 1, 55, 0
4, 5160, Note_on_c, 1, 61, 70
4, 5183, Note_on_c, 1, 61, 0
4, 5184, Note_on_c, 1, 50, 70
4, 5207, Note_on_c, 1, 50, 0
4, 5208, Note_on_c, 1, 60, 70
4, 5231, Note_on_c, 1, 60, 0
4, 5232, Note_on_c, 1, 57, 70
4, 5255, Note_on_c, 1, 57, 0
4, 5256, Note_on_c, 1, 60, 70
4, 5279, Note_on_c, 1, 60, 0
4, 5280, Note_on_c, 1, 55, 70
4, 5303, Note_on_c, 1, 55, 0
4, 5304, Note_on_c, 1, 62, 70
4, 5327, Note_on_c, 1, 62, 0
4, 5328, Note_on_c, 1, 59, 70
4, 5351, Note_on_c, 1, 59, 0
4, 5352, Note_on_c, 1, 62, 70
4, 5375, Note_on_c, 1, 62, 0
4, 5376, Note_on_c, 1, 48, 70
4, 5399, Note_on_c, 1, 48, 0
4, 5400, Note_on_c, 1, 60, 70
4, 5423, Note_on_c, 1, 60, 0
4, 5424, Note_on_c, 1, 52, 70
4, 5447, Note_on_c, 1, 52, 0
4, 5448, Note_on_c, 1, 60, 70
4, 5471, Note_on_c, 1, 60, 0
4, 5472, Note_on_c, 1, 53, 70
4, 5495, Note_on_c, 1, 53, 0
4, 5496, Note_on_c, 1, 62, 70
4, 5519, Note_on_c, 1, 62, 0
4, 5520, Note_on_c, 1, 57, 70
4, 5543, Note_on_c, 1, 57, 0
4, 5544, Note_on_c, 1, 62, 70
4, 5567, Note_on_c, 1, 62, 0
4, 5568, Note_on_c, 1, 55, 70
4, 5591, Note_on_c, 1, 55, 0
4, 5592, Note_on_c, 1, 64, 70
4, 5615, Note_on_c, 1, 64, 0
4, 5616, Note_on_c, 1, 60, 70
4, 5639, Note_on_c, 1, 60, 0
4, 5640, Note_on_c, 1, 64, 70
4, 5663, Note_on_c, 1, 64, 0
4, 5664, Note_on_c, 1, 55, 70
4, 5687, Note_on_c, 1, 55, 0
4, 5688, Note_on_c, 1, 65, 70
4, 5711, Note_on_c, 1, 65, 0
4, 5712, Note_on_c, 1, 62, 70
4, 5735, Note_on_c, 1, 62, 0
4, 5736, Note_on_c, 1, 65, 70
4, 5759, Note_on_c, 1, 65, 0
4, 5760, Note_on_c, 1, 48, 70
4, 5783, Note_on_c, 1, 48, 0
4, 5784, Note_on_c, 1, 60, 70
4, 5807, Note_on_c, 1, 60, 0
4, 5808, Note_on_c, 1, 52, 70
4, 5831, Note_on_c, 1, 52, 0
4, 5832, Note_on_c, 1, 60, 70
4, 5855, Note_on_c, 1, 60, 0
4, 5856, Note_on_c, 1, 53, 70
4, 5879, Note_on_c, 1, 53, 0
4, 5880, Note_on_c, 1, 60, 70
4, 5903, Note_on_c, 1, 60, 0
4, 5904, Note_on_c, 1, 57, 70
4, 5927, Note_on_c, 1, 57, 0
4, 5928, Note_on_c, 1, 60, 70
4, 5951, Note_on_c, 1, 60, 0
4, 5952, Note_on_c, 1, 55, 70
4, 5975, Note_on_c, 1, 55, 0
4, 5976, Note_on_c, 1, 64, 70
4, 5999, Note_on_c, 1, 64, 0
4, 6000, Note_on_c, 1, 60, 70
4, 6023, Note_on_c, 1, 60, 0
4, 6024, Note_on_c, 1, 64, 70
4, 6047, Note_on_c, 1, 64, 0
4, 6048, Note_on_c, 1, 55, 70
4, 6071, Note_on_c, 1, 55, 0
4, 6072, Note_on_c, 1, 65, 70
4, 6095, Note_on_c, 1, 65, 0
4, 6096, Note_on_c, 1, 62, 70
4, 6119, Note_on_c, 1, 62, 0
4, 6120, Note_on_c, 1, 65, 70
4, 6143, Note_on_c, 1, 65, 0
4, 6144, Note_on_c, 1, 64, 70
4, 6144, Note_on_c, 1, 60, 70
4, 6233, Note_on_c, 1, 64, 0
4, 6233, Note_on_c, 1, 60, 0
4, 6624, Note_on_c, 1, 53, 82
4, 6624, Note_on_c, 1, 41, 82
4, 6713, Note_on_c, 1, 53, 0
4, 6713, Note_on_c, 1, 41, 0
4, 6720, Note_on_c, 1, 55, 82
4, 6720, Note_on_c, 1, 43, 82
4, 6809, Note_on_c, 1, 55, 0
4, 6809, Note_on_c, 1, 43, 0
4, 6816, Note_on_c, 1, 55, 82
4, 6816, Note_on_c, 1, 43, 82
4, 6905, Note_on_c, 1, 55, 0
4, 6905, Note_on_c, 1, 43, 0
4, 6912, Note_on_c, 1, 48, 82
4, 6912, Note_on_c, 1, 36, 82
4, 7001, Note_on_c, 1, 48, 0
4, 7001, Note_on_c, 1, 36, 0
4, 7392, Note_on_c, 1, 53, 82
4, 7392, Note_on_c, 1, 41, 82
4, 7431, Note_on_c, 1, 53, 0
4, 7431, Note_on_c, 1, 41, 0
4, 7488, Note_on_c, 1, 55, 82
4, 7488, Note_on_c, 1, 43, 82
4, 7527, Note_on_c, 1, 55, 0
4, 7527, Note_on_c, 1, 43, 0
4, 7584, Note_on_c, 1, 53, 82
4, 7584, Note_on_c, 1, 43, 82
4, 7629, Note_on_c, 1, 53, 0
4, 7629, Note_on_c, 1, 43, 0
4, 7680, Note_on_c, 1, 59, 76
4, 7680, Note_on_c, 1, 53, 76
4, 7680, Note_on_c, 1, 48, 76
4, 7872, Note_on_c, 1, 59, 0
4, 7872, Note_on_c, 1, 53, 0
4, 7872, Control_c, 1, 64, 127
4, 7872, Note_on_c, 1, 36, 70
4, 7878, Note_on_c, 1, 40, 70
4, 7884, Note_on_c, 1, 43, 70
4, 7890, Note_on_c, 1, 52, 70
4, 7896, Note_on_c, 1, 55, 70
4, 7902, Note_on_c, 1, 60, 70
4, 7968, Control_c, 1, 64, 0
4, 7991, Note_on_c, 1, 60, 0
4, 7991, Note_on_c, 1, 55, 0
4, 7991, Note_on_c, 1, 52, 0
4, 7991, Note_on_c, 1, 48, 0
4, 7991, Note_on_c, 1, 43, 0
4, 7991, Note_on_c, 1, 40, 0
4, 7991, Note_on_c, 1, 36, 0
4, 8064, Note_on_c, 1, 41, 82
4, 8070, Note_on_c, 1, 45, 82
4, 8076, Note_on_c, 1, 48, 82
4, 8082, Note_on_c, 1, 53, 82
4, 8109, Note_on_c, 1, 53, 0
4, 8109, Note_on_c, 1, 48, 0
4, 8109, Note_on_c, 1, 45, 0
4, 8109, Note_on_c, 1, 41, 0
4, 8256, Note_on_c, 1, 58, 70
4, 8256, Note_on_c, 1, 55, 70
4, 8256, Note_on_c, 1, 48, 70
4, 8276, Note_on_c, 1, 58, 0
4, 8276, Note_on_c, 1, 55, 0
4, 8276, Note_on_c, 1, 48, 0
4, 8448, Note_on_c, 1, 52, 82
4, 8454, Note_on_c, 1, 55, 82
4, 8460, Note_on_c, 1, 58, 82
4, 8466, Note_on_c, 1, 60, 82
4, 8493, Note_on_c, 1, 60, 0
4, 8493, Note_on_c, 1, 58, 0
4, 8493, Note_on_c, 1, 55, 0
4, 8493, Note_on_c, 1, 52, 0
4, 8640, Note_on_c, 1, 60, 82
4, 8640, Note_on_c, 1, 53, 82
4, 8660, Note_on_c, 1, 60, 0
4, 8660, Note_on_c, 1, 53, 0
4, 9216, Note_on_c, 1, 58, 82
4, 9393, Note_on_c, 1, 58, 0
4, 9408, Note_on_c, 1, 57, 82
4, 9504, Note_on_c, 1, 57, 0
4, 9504, Note_on_c, 1, 55, 82
4, 9593, Note_on_c, 1, 55, 0
4, 9600, Note_on_c, 1, 41, 82
4, 9606, Note_on_c, 1, 45, 82
4, 9612, Note_on_c, 1, 48, 82
4, 9618, Note_on_c, 1, 53, 82
4, 9693, Note_on_c, 1, 53, 0
4, 9693, Note_on_c, 1, 48, 0
4, 9693, Note_on_c, 1, 45, 0
4, 9693, Note_on_c, 1, 41, 0
4, 9792, Note_on_c, 1, 58, 70
4, 9837, Note_on_c, 1, 58, 0
4, 9840, Note_on_c, 1, 57, 70
4, 9885, Note_on_c, 1, 57, 0
4, 9888, Note_on_c, 1, 55, 70
4, 9933, Note_on_c, 1, 55, 0
4, 9936, Note_on_c, 1, 53, 70
4, 9981, Note_on_c, 1, 53, 0
4, 9984, Note_on_c, 1, 55, 70
4, 9984, Note_on_c, 1, 52, 70
4, 10161, Note_on_c, 1, 55, 0
4, 10161, Note_on_c, 1, 52, 0
4, 10176, Note_on_c, 1, 53, 70
4, 10176, Note_on_c, 1, 41, 70
4, 10215, Note_on_c, 1, 53, 0
4, 10215, Note_on_c, 1, 41, 0
4, 10368, Note_on_c, 1, 58, 70
4, 10368, Note_on_c, 1, 46, 70
4, 10457, Note_on_c, 1, 58, 0
4, 10457, Note_on_c, 1, 46, 0
4, 10656, Note_on_c, 1, 70, 70
4, 10656, Note_on_c, 1, 58, 70
4, 10745, Note_on_c, 1, 70, 0
4, 10745, Note_on_c, 1, 58, 0
4, 10752, Note_on_c, 1, 69, 70
4, 10752, Note_on_c, 1, 60, 70
4, 10944, Note_on_c, 1, 69, 0
4, 10944, Note_on_c, 1, 67, 70
4, 11033, Note_on_c, 1, 67, 0
4, 11033, Note_on_c, 1, 60, 0
4, 11136, Note_on_c, 1, 60, 61
4, 11159, Note_on_c, 1, 60, 0
4, 11160, Note_on_c, 1, 67, 61
4, 11183, Note_on_c, 1, 67, 0
4, 11184, Note_on_c, 1, 64, 61
4, 11207, Note_on_c, 1, 64, 0
4, 11208, Note_on_c, 1, 67, 61
4, 11231, Note_on_c, 1, 67, 0
4, 11232, Note_on_c, 1, 60, 61
4, 11255, Note_on_c, 1, 60, 0
4, 11256, Note_on_c, 1, 67, 61
4, 11279, Note_on_c, 1, 67, 0
4, 11280, Note_on_c, 1, 64, 61
4, 11303, Note_on_c, 1, 64, 0
4, 11304, Note_on_c, 1, 67, 61
4, 11327, Note_on_c, 1, 67, 0
4, 11328, Note_on_c, 1, 62, 61
4, 11351, Note_on_c, 1, 62, 0
4, 11352, Note_on_c, 1, 67, 61
4, 11375, Note_on_c, 1, 67, 0
4, 11376, Note_on_c, 1, 65, 61
4, 11399, Note_on_c, 1, 65, 0
4, 11400, Note_on_c, 1, 67, 61
4, 11423, Note_on_c, 1, 67, 0
4, 11424, Note_on_c, 1, 62, 61
4, 11447, Note_on_c, 1, 62, 0
4, 11448, Note_on_c, 1, 67, 61
4, 11471, Note_on_c, 1, 67, 0
4, 11472, Note_on_c, 1, 65, 61
4, 11495, Note_on_c, 1, 65, 0
4, 11496, Note_on_c, 1, 67, 61
4, 11519, Note_on_c, 1, 67, 0
4, 11520, Note_on_c, 1, 60, 61
4, 11543, Note_on_c, 1, 60, 0
4, 11544, Note_on_c, 1, 67, 61
4, 11567, Note_on_c, 1, 67, 0
4, 11568, Note_on_c, 1, 64, 61
4, 11591, Note_on_c, 1, 64, 0
4, 11592, Note_on_c, 1, 67, 61
4, 11615, Note_on_c, 1, 67, 0
4, 11616, Note_on_c, 1, 60, 61
4, 11639, Note_on_c, 1, 60, 0
4, 11640, Note_on_c, 1, 67, 61
4, 11663, Note_on_c, 1, 67, 0
4, 11664, Note_on_c, 1, 64, 61
4, 11687, Note_on_c, 1, 64, 0
4, 11688, Note_on_c, 1, 67, 61
4, 11711, Note_on_c, 1, 67, 0
4, 11712, Note_on_c, 1, 62, 61
4, 11735, Note_on_c, 1, 62, 0
4, 11736, Note_on_c, 1, 67, 61
4, 11759, Note_on_c, 1, 67, 0
4, 11760, Note_on_c, 1, 65, 61
4, 11783, Note_on_c, 1, 65, 0
4, 11784, Note_on_c, 1, 67, 61
4, 11807, Note_on_c, 1, 67, 0
4, 11808, Note_on_c, 1, 62, 61
4, 11831, Note_on_c, 1, 62, 0
4, 11832, Note_on_c, 1, 67, 61
4, 11855, Note_on_c, 1, 67, 0
4, 11856, Note_on_c, 1, 65, 61
4, 11879, Note_on_c, 1, 65, 0
4, 11880, Note_on_c, 1, 67, 61
4, 11903, Note_on_c, 1, 67, 0
4, 11904, Note_on_c, 1, 60, 61
4, 11927, Note_on_c, 1, 60, 0
4, 11928, Note_on_c, 1, 67, 61
4, 11951, Note_on_c, 1, 67, 0
4, 11952, Note_on_c, 1, 64, 61
4, 11975, Note_on_c, 1, 64, 0
4, 11976, Note_on_c, 1, 67, 61
4, 11999, Note_on_c, 1, 67, 0
4, 12000, Note_on_c, 1, 60, 61
4, 12023, Note_on_c, 1, 60, 0
4, 12024, Note_on_c, 1, 67, 61
4, 12047, Note_on_c, 1, 67, 0
4, 12048, Note_on_c, 1, 64, 61
4, 12071, Note_on_c, 1, 64, 0
4, 12072, Note_on_c, 1, 67, 61
4, 12095, Note_on_c, 1, 67, 0
4, 12096, Note_on_c, 1, 62, 61
4, 12119, Note_on_c, 1, 62, 0
4, 12120, Note_on_c, 1, 67, 61
4, 12143, Note_on_c, 1, 67, 0
4, 12144, Note_on_c, 1, 65, 61
4, 12167, Note_on_c, 1, 65, 0
4, 12168, Note_on_c, 1, 67, 61
4, 12191, Note_on_c, 1, 67, 0
4, 12192, Note_on_c, 1, 62, 61
4, 12215, Note_on_c, 1, 62, 0
4, 12216, Note_on_c, 1, 67, 61
4, 12239, Note_on_c, 1, 67, 0
4, 12240, Note_on_c, 1, 65, 61
4, 12263, Note_on_c, 1, 65, 0
4, 12264, Note_on_c, 1, 67, 61
4, 12287, Note_on_c, 1, 67, 0
4, 12288, Note_on_c, 1, 60, 61
4, 12311, Note_on_c, 1, 60, 0
4, 12312, Note_on_c, 1, 67, 61
4, 12335, Note_on_c, 1, 67, 0
4, 12336, Note_on_c, 1, 64, 61
4, 12359, Note_on_c, 1, 64, 0
4, 12360, Note_on_c, 1, 67, 61
4, 12383, Note_on_c, 1, 67, 0
4, 12384, Note_on_c, 1, 60, 61
4, 12407, Note_on_c, 1, 60, 0
4, 12408, Note_on_c, 1, 67, 61
4, 12431, Note_on_c, 1, 67, 0
4, 12432, Note_on_c, 1, 64, 61
4, 12455, Note_on_c, 1, 64, 0
4, 12456, Note_on_c, 1, 67, 61
4, 12479, Note_on_c, 1, 67, 0
4, 12480, Note_on_c, 1, 62, 61
4, 12503, Note_on_c, 1, 62, 0
4, 12504, Note_on_c, 1, 67, 61
4, 12527, Note_on_c, 1, 67, 0
4, 12528, Note_on_c, 1, 65, 61
4, 12551, Note_on_c, 1, 65, 0
4, 12552, Note_on_c, 1, 67, 61
4, 12575, Note_on_c, 1, 67, 0
4, 12576, Note_on_c, 1, 62, 61
4, 12599, Note_on_c, 1, 62, 0
4, 12600, Note_on_c, 1, 67, 61
4, 12623, Note_on_c, 1, 67, 0
4, 12624, Note_on_c, 1, 65, 61
4, 12647, Note_on_c, 1, 65, 0
4, 12648, Note_on_c, 1, 67, 61
4, 12671, Note_on_c, 1, 67, 0
4, 12672, Note_on_c, 1, 60, 61
4, 12695, Note_on_c, 1, 60, 0
4, 12696, Note_on_c, 1, 67, 62
4, 12719, Note_on_c, 1, 67, 0
4, 12720, Note_on_c, 1, 64, 63
4, 12743, Note_on_c, 1, 64, 0
4, 12744, Note_on_c, 1, 67, 64
4, 12767, Note_on_c, 1, 67, 0
4, 12768, Note_on_c, 1, 60, 65
4, 12791, Note_on_c, 1, 60, 0
4, 12792, Note_on_c, 1, 67, 66
4, 12815, Note_on_c, 1, 67, 0
4, 12816, Note_on_c, 1, 64, 67
4, 12839, Note_on_c, 1, 64, 0
4, 12840, Note_on_c, 1, 67, 68
4, 12863, Note_on_c, 1, 67, 0
4, 12864, Note_on_c, 1, 52, 70
4, 12887, Note_on_c, 1, 52, 0
4, 12888, Note_on_c, 1, 60, 70
4, 12911, Note_on_c, 1, 60, 0
4, 12912, Note_on_c, 1, 55, 70
4, 12935, Note_on_c, 1, 55, 0
4, 12936, Note_on_c, 1, 60, 70
4, 12959, Note_on_c, 1, 60, 0
4, 12960, Note_on_c, 1, 52, 70
4, 12983, Note_on_c, 1, 52, 0
4, 12984, Note_on_c, 1, 60, 70
4, 13007, Note_on_c, 1, 60, 0
4, 13008, Note_on_c, 1, 55, 70
4, 13031, Note_on_c, 1, 55, 0
4, 13032, Note_on_c, 1, 60, 70
4, 13055, Note_on_c, 1, 60, 0
4, 13056, Note_on_c, 1, 53, 70
4, 13079, Note_on_c, 1, 53, 0
4, 13080, Note_on_c, 1, 60, 70
4, 13103, Note_on_c, 1, 60, 0
4, 13104, Note_on_c, 1, 57, 70
4, 13127, Note_on_c, 1, 57, 0
4, 13128, Note_on_c, 1, 60, 70
4, 13151, Note_on_c, 1, 60, 0
4, 13152, Note_on_c, 1, 52, 70
4, 13175, Note_on_c, 1, 52, 0
4, 13176, Note_on_c, 1, 61, 70
4, 13199, Note_on_c, 1, 61, 0
4, 13200, Note_on_c, 1, 55, 70
4, 13223, Note_on_c, 1, 55, 0
4, 13224, Note_on_c, 1, 61, 70
4, 13247, Note_on_c, 1, 61, 0
4, 13248, Note_on_c, 1, 50, 70
4, 13271, Note_on_c, 1, 50, 0
4, 13272, Note_on_c, 1, 60, 70
4, 13295, Note_on_c, 1, 60, 0
4, 13296, Note_on_c, 1, 57, 70
4, 13319, Note_on_c, 1, 57, 0
4, 13320, Note_on_c, 1, 60, 70
4, 13343, Note_on_c, 1, 60, 0
4, 13344, Note_on_c, 1, 55, 70
4, 13367, Note_on_c, 1, 55, 0
4, 13368, Note_on_c, 1, 62, 70
4, 13391, Note_on_c, 1, 62, 0
4, 13392, Note_on_c, 1, 59, 70
4, 13415, Note_on_c, 1, 59, 0
4, 13416, Note_on_c, 1, 62, 70
4, 13439, Note_on_c, 1, 62, 0
4, 13440, Note_on_c, 1, 48, 70
4, 13463, Note_on_c, 1, 48, 0
4, 13464, Note_on_c, 1, 60, 70
4, 13487, Note_on_c, 1, 60, 0
4, 13488, Note_on_c, 1, 52, 70
4, 13511, Note_on_c, 1, 52, 0
4, 13512, Note_on_c, 1, 60, 70
4, 13535, Note_on_c, 1, 60, 0
4, 13536, Note_on_c, 1, 53, 70
4, 13559, Note_on_c, 1, 53, 0
4, 13560, Note_on_c, 1, 62, 70
4, 13583, Note_on_c, 1, 62, 0
4, 13584, Note_on_c, 1, 57, 70
4, 13607, Note_on_c, 1, 57, 0
4, 13608, Note_on_c, 1, 62, 70
4, 13631, Note_on_c, 1, 62, 0
4, 13632, Note_on_c, 1, 55, 70
4, 13655, Note_on_c, 1, 55, 0
4, 13656, Note_on_c, 1, 64, 70
4, 13679, Note_on_c, 1, 64, 0
4, 13680, Note_on_c, 1, 60, 70
4, 13703, Note_on_c, 1, 60, 0
4, 13704, Note_on_c, 1, 64, 70
4, 13727, Note_on_c, 1, 64, 0
4, 13728, Note_on_c, 1, 55, 70
4, 13751, Note_on_c, 1, 55, 0
4, 13752, Note_on_c, 1, 65, 70
4, 13775, Note_on_c, 1, 65, 0
4, 13776, Note_on_c, 1, 62, 70
4, 13799, Note_on_c, 1, 62, 0
4, 13800, Note_on_c, 1, 65, 70
4, 13823, Note_on_c, 1, 65, 0
4, 13824, Note_on_c, 1, 48, 70
4, 13847, Note_on_c, 1, 48, 0
4, 13848, Note_on_c, 1, 60, 70
4, 13871, Note_on_c, 1, 60, 0
4, 13872, Note_on_c, 1, 52, 70
4, 13895, Note_on_c, 1, 52, 0
4, 13896, Note_on_c, 1, 60, 70
4, 13919, Note_on_c, 1, 60, 0
4, 13920, Note_on_c, 1, 53, 70
4, 13943, Note_on_c, 1, 53, 0
4, 13944, Note_on_c, 1, 60, 70
4, 13967, Note_on_c, 1, 60, 0
4, 13968, Note_on_c, 1, 57, 70
4, 13991, Note_on_c, 1, 57, 0
4, 13992, Note_on_c, 1, 60, 70
4, 14015, Note_on_c, 1, 60, 0
4, 14016, Note_on_c, 1, 55, 70
4, 14039, Note_on_c, 1, 55, 0
4, 14040, Note_on_c, 1, 64, 70
4, 14063, Note_on_c, 1, 64, 0
4, 14064, Note_on_c, 1, 60, 70
4, 14087, Note_on_c, 1, 60, 0
4, 14088, Note_on_c, 1, 64, 70
4, 14111, Note_on_c, 1, 64, 0
4, 14112, Note_on_c, 1, 55, 70
4, 14135, Note_on_c, 1, 55, 0
4, 14136, Note_on_c, 1, 65, 70
4, 14159, Note_on_c, 1, 65, 0
4, 14160, Note_on_c, 1, 62, 70
4, 14183, Note_on_c, 1, 62, 0
4, 14184, Note_on_c, 1, 65, 70
4, 14207, Note_on_c, 1, 65, 0
4, 14208, Note_on_c, 1, 64, 70
4, 14208, Note_on_c, 1, 60, 70
4, 14297, Note_on_c, 1, 64, 0
4, 14297, Note_on_c, 1, 60, 0
4, 14688, Note_on_c, 1, 53, 82
4, 14688, Note_on_c, 1, 41, 82
4, 14777, Note_on_c, 1, 53, 0
4, 14777, Note_on_c, 1, 41, 0
4, 14784, Note_on_c, 1, 55, 82
4, 14784, Note_on_c, 1, 43, 82
4, 14873, Note_on_c, 1, 55, 0
4, 14873, Note_on_c, 1, 43, 0
4, 14880, Note_on_c, 1, 55, 82
4, 14880, Note_on_c, 1, 43, 82
4, 14969, Note_on_c, 1, 55, 0
4, 14969, Note_on_c, 1, 43, 0
4, 14976, Note_on_c, 1, 48, 82
4, 14976, Note_on_c, 1, 36, 82
4, 15065, Note_on_c, 1, 48, 0
4, 15065, Note_on_c, 1, 36, 0
4, 15456, Note_on_c, 1, 53, 82
4, 15456, Note_on_c, 1, 41, 82
4, 15495, Note_on_c, 1, 53, 0
4, 15495, Note_on_c, 1, 41, 0
4, 15552, Note_on_c, 1, 55, 82
4, 15552, Note_on_c, 1, 43, 82
4, 15591, Note_on_c, 1, 55, 0
4, 15591, Note_on_c, 1, 43, 0
4, 15648, Note_on_c, 1, 53, 82
4, 15648, Note_on_c, 1, 43, 82
4, 15693, Note_on_c, 1, 53, 0
4, 15693, Note_on_c, 1, 43, 0
4, 15744, Note_on_c, 1, 59, 76
4, 15744, Note_on_c, 1, 53, 76
4, 15744, Note_on_c, 1, 48, 76
4, 15936, Note_on_c, 1, 59, 0
4, 15936, Note_on_c, 1, 53, 0
4, 15936, Control_c, 1, 64, 127
4, 15936, Note_on_c, 1, 36, 70
4, 15942, Note_on_c, 1, 40, 70
4, 15948, Note_on_c, 1, 43, 70
4, 15954, Note_on_c, 1, 52, 70
4, 15960, Note_on_c, 1, 55, 70
4, 15966, Note_on_c, 1, 60, 70
4, 16032, Control_c, 1, 64, 0
4, 16055, Note_on_c, 1, 60, 0
4, 16055, Note_on_c, 1, 55, 0
4, 16055, Note_on_c, 1, 52, 0
4, 16055, Note_on_c, 1, 48, 0
4, 16055, Note_on_c, 1, 43, 0
4, 16055, Note_on_c, 1, 40, 0
4, 16055, Note_on_c, 1, 36, 0
4, 16128, Note_on_c, 1, 48, 82
4, 16134, Note_on_c, 1, 52, 82
4, 16140, Note_on_c, 1, 55, 82
4, 16146, Note_on_c, 1, 60, 82
4, 16221, Note_on_c, 1, 60, 0
4, 16221, Note_on_c, 1, 55, 0
4, 16221, Note_on_c, 1, 52, 0
4, 16221, Note_on_c, 1, 48, 0
4, 16320, Note_on_c, 1, 60, 61
4, 16343, Note_on_c, 1, 60, 0
4, 16344, Note_on_c, 1, 70, 61
4, 16367, Note_on_c, 1, 70, 0
4, 16368, Note_on_c, 1, 67, 61
4, 16391, Note_on_c, 1, 67, 0
4, 16392, Note_on_c, 1, 70, 61
4, 16415, Note_on_c, 1, 70, 0
4, 16416, Note_on_c, 1, 60, 61
4, 16439, Note_on_c, 1, 60, 0
4, 16440, Note_on_c, 1, 70, 61
4, 16463, Note_on_c, 1, 70, 0
4, 16464, Note_on_c, 1, 67, 61
4, 16487, Note_on_c, 1, 67, 0
4, 16488, Note_on_c, 1, 70, 61
4, 16511, Note_on_c, 1, 70, 0
4, 16512, Note_on_c, 1, 60, 61
4, 16535, Note_on_c, 1, 60, 0
4, 16536, Note_on_c, 1, 69, 61
4, 16559, Note_on_c, 1, 69, 0
4, 16560, Note_on_c, 1, 65, 61
4, 16583, Note_on_c, 1, 65, 0
4, 16584, Note_on_c, 1, 69, 61
4, 16607, Note_on_c, 1, 69, 0
4, 16608, Note_on_c, 1, 60, 61
4, 16631, Note_on_c, 1, 60, 0
4, 16632, Note_on_c, 1, 69, 61
4, 16655, Note_on_c, 1, 69, 0
4, 16656, Note_on_c, 1, 65, 61
4, 16679, Note_on_c, 1, 65, 0
4, 16680, Note_on_c, 1, 69, 61
4, 16703, Note_on_c, 1, 69, 0
4, 16704, Note_on_c, 1, 60, 61
4, 16727, Note_on_c, 1, 60, 0
4, 16728, Note_on_c, 1, 67, 61
4, 16751, Note_on_c, 1, 67, 0
4, 16752, Note_on_c, 1, 64, 61
4, 16775, Note_on_c, 1, 64, 0
4, 16776, Note_on_c, 1, 67, 61
4, 16799, Note_on_c, 1, 67, 0
4, 16800, Note_on_c, 1, 60, 61
4, 16823, Note_on_c, 1, 60, 0
4, 16824, Note_on_c, 1, 67, 61
4, 16847, Note_on_c, 1, 67, 0
4, 16848, Note_on_c, 1, 64, 61
4, 16871, Note_on_c, 1, 64, 0
4, 16872, Note_on_c, 1, 67, 61
4, 16895, Note_on_c, 1, 67, 0
4, 16896, Note_on_c, 1, 57, 61
4, 16919, Note_on_c, 1, 57, 0
4, 16920, Note_on_c, 1, 63, 61
4, 16943, Note_on_c, 1, 63, 0
4, 16944, Note_on_c, 1, 60, 61
4, 16967, Note_on_c, 1, 60, 0
4, 16968, Note_on_c, 1, 63, 61
4, 16991, Note_on_c, 1, 63, 0
4, 16992, Note_on_c, 1, 57, 61
4, 17015, Note_on_c, 1, 57, 0
4, 17016, Note_on_c, 1, 63, 61
4, 17039, Note_on_c, 1, 63, 0
4, 17040, Note_on_c, 1, 60, 61
4, 17063, Note_on_c, 1, 60, 0
4, 17064, Note_on_c, 1, 63, 61
4, 17087, Note_on_c, 1, 63, 0
4, 17088, Note_on_c, 1, 57, 61
4, 17111, Note_on_c, 1, 57, 0
4, 17112, Note_on_c, 1, 63, 61
4, 17135, Note_on_c, 1, 63, 0
4, 17136, Note_on_c, 1, 60, 61
4, 17159, Note_on_c, 1, 60, 0
4, 17160, Note_on_c, 1, 63, 61
4, 17183, Note_on_c, 1, 63, 0
4, 17184, Note_on_c, 1, 57, 61
4, 17207, Note_on_c, 1, 57, 0
4, 17208, Note_on_c, 1, 63, 61
4, 17231, Note_on_c, 1, 63, 0
4, 17232, Note_on_c, 1, 60, 61
4, 17255, Note_on_c, 1, 60, 0
4, 17256, Note_on_c, 1, 63, 61
4, 17279, Note_on_c, 1, 63, 0
4, 17280, Note_on_c, 1, 58, 61
4, 17303, Note_on_c, 1, 58, 0
4, 17304, Note_on_c, 1, 67, 61
4, 17327, Note_on_c, 1, 67, 0
4, 17328, Note_on_c, 1, 62, 61
4, 17351, Note_on_c, 1, 62, 0
4, 17352, Note_on_c, 1, 67, 61
4, 17375, Note_on_c, 1, 67, 0
4, 17376, Note_on_c, 1, 58, 61
4, 17399, Note_on_c, 1, 58, 0
4, 17400, Note_on_c, 1, 67, 61
4, 17423, Note_on_c, 1, 67, 0
4, 17424, Note_on_c, 1, 62, 61
4, 17447, Note_on_c, 1, 62, 0
4, 17448, Note_on_c, 1, 67, 61
4, 17471, Note_on_c, 1, 67, 0
4, 17472, Note_on_c, 1, 58, 61
4, 17495, Note_on_c, 1, 58, 0
4, 17496, Note_on_c, 1, 67, 62
4, 17519, Note_on_c, 1, 67, 0
4, 17520, Note_on_c, 1, 62, 63
4, 17543, Note_on_c, 1, 62, 0
4, 17544, Note_on_c, 1, 67, 64
4, 17567, Note_on_c, 1, 67, 0
4, 17568, Note_on_c, 1, 58, 65
4, 17591, Note_on_c, 1, 58, 0
4, 17592, Note_on_c, 1, 67, 66
4, 17615, Note_on_c, 1, 67, 0
4, 17616, Note_on_c, 1, 62, 67
4, 17639, Note_on_c, 1, 62, 0
4, 17640, Note_on_c, 1, 67, 68
4, 17663, Note_on_c, 1, 67, 0
4, 17664, Note_on_c, 1, 58, 70
4, 17687, Note_on_c, 1, 58, 0
4, 17688, Note_on_c, 1, 67, 70
4, 17711, Note_on_c, 1, 67, 0
4, 17712, Note_on_c, 1, 64, 70
4, 17735, Note_on_c, 1, 64, 0
4, 17736, Note_on_c, 1, 67, 70
4, 17759, Note_on_c, 1, 67, 0
4, 17760, Note_on_c, 1, 58, 70
4, 17783, Note_on_c, 1, 58, 0
4, 17784, Note_on_c, 1, 67, 70
4, 17807, Note_on_c, 1, 67, 0
4, 17808, Note_on_c, 1, 64, 70
4, 17831, Note_on_c, 1, 64, 0
4, 17832, Note_on_c, 1, 67, 70
4, 17855, Note_on_c, 1, 67, 0
4, 17856, Note_on_c, 1, 57, 70
4, 17879, Note_on_c, 1, 57, 0
4, 17880, Note_on_c, 1, 65, 70
4, 17903, Note_on_c, 1, 65, 0
4, 17904, Note_on_c, 1, 60, 70
4, 17927, Note_on_c, 1, 60, 0
4, 17928, Note_on_c, 1, 65, 70
4, 17951, Note_on_c, 1, 65, 0
4, 17952, Note_on_c, 1, 57, 70
4, 17975, Note_on_c, 1, 57, 0
4, 17976, Note_on_c, 1, 65, 70
4, 17999, Note_on_c, 1, 65, 0
4, 18000, Note_on_c, 1, 60, 70
4, 18023, Note_on_c, 1, 60, 0
4, 18024, Note_on_c, 1, 65, 70
4, 18047, Note_on_c, 1, 65, 0
4, 18048, Note_on_c, 1, 52, 70
4, 18071, Note_on_c, 1, 52, 0
4, 18072, Note_on_c, 1, 60, 68
4, 18095, Note_on_c, 1, 60, 0
4, 18096, Note_on_c, 1, 55, 67
4, 18119, Note_on_c, 1, 55, 0
4, 18120, Note_on_c, 1, 60, 66
4, 18143, Note_on_c, 1, 60, 0
4, 18144, Note_on_c, 1, 53, 65
4, 18167, Note_on_c, 1, 53, 0
4, 18168, Note_on_c, 1, 60, 64
4, 18191, Note_on_c, 1, 60, 0
4, 18192, Note_on_c, 1, 57, 63
4, 18215, Note_on_c, 1, 57, 0
4, 18216, Note_on_c, 1, 60, 62
4, 18239, Note_on_c, 1, 60, 0
4, 18240, Note_on_c, 1, 52, 61
4, 18263, Note_on_c, 1, 52, 0
4, 18264, Note_on_c, 1, 60, 61
4, 18287, Note_on_c, 1, 60, 0
4, 18288, Note_on_c, 1, 55, 61
4, 18311, Note_on_c, 1, 55, 0
4, 18312, Note_on_c, 1, 60, 61
4, 18335, Note_on_c, 1, 60, 0
4, 18336, Note_on_c, 1, 53, 61
4, 18359, Note_on_c, 1, 53, 0
4, 18360, Note_on_c, 1, 60, 61
4, 18383, Note_on_c, 1, 60, 0
4, 18384, Note_on_c, 1, 57, 61
4, 18407, Note_on_c, 1, 57, 0
4, 18408, Note_on_c, 1, 60, 61
4, 18431, Note_on_c, 1, 60, 0
4, 18432, Note_on_c, 1, 52, 61
4, 18455, Note_on_c, 1, 52, 0
4, 18456, Note_on_c, 1, 60, 61
4, 18479, Note_on_c, 1, 60, 0
4, 18480, Note_on_c, 1, 55, 61
4, 18503, Note_on_c, 1, 55, 0
4, 18504, Note_on_c, 1, 60, 61
4, 18527, Note_on_c, 1, 60, 0
4, 18528, Note_on_c, 1, 53, 61
4, 18551, Note_on_c, 1, 53, 0
4, 18552, Note_on_c, 1, 60, 62
4, 18575, Note_on_c, 1, 60, 0
4, 18576, Note_on_c, 1, 57, 63
4, 18599, Note_on_c, 1, 57, 0
4, 18600, Note_on_c, 1, 60, 64
4, 18623, Note_on_c, 1, 60, 0
4, 18624, Note_on_c, 1, 58, 66
4, 18647, Note_on_c, 1, 58, 0
4, 18648, Note_on_c, 1, 67, 67
4, 18671, Note_on_c, 1, 67, 0
4, 18672, Note_on_c, 1, 62, 68
4, 18695, Note_on_c, 1, 62, 0
4, 18696, Note_on_c, 1, 67, 69
4, 18719, Note_on_c, 1, 67, 0
4, 18720, Note_on_c, 1, 59, 71
4, 18743, Note_on_c, 1, 59, 0
4, 18744, Note_on_c, 1, 67, 72
4, 18767, Note_on_c, 1, 67, 0
4, 18768, Note_on_c, 1, 62, 73
4, 18791, Note_on_c, 1, 62, 0
4, 18792, Note_on_c, 1, 67, 74
4, 18815, Note_on_c, 1, 67, 0
4, 18816, Note_on_c, 1, 60, 76
4, 18839, Note_on_c, 1, 60, 0
4, 18840, Note_on_c, 1, 67, 76
4, 18863, Note_on_c, 1, 67, 0
4, 18864, Note_on_c, 1, 64, 76
4, 18887, Note_on_c, 1, 64, 0
4, 18888, Note_on_c, 1, 67, 76
4, 18911, Note_on_c, 1, 67, 0
4, 18912, Note_on_c, 1, 60, 76
4, 18935, Note_on_c, 1, 60, 0
4, 18936, Note_on_c, 1, 67, 76
4, 18959, Note_on_c, 1, 67, 0
4, 18960, Note_on_c, 1, 64, 76
4, 18983, Note_on_c, 1, 64, 0
4, 18984, Note_on_c, 1, 67, 76
4, 19007, Note_on_c, 1, 67, 0
4, 19008, Note_on_c, 1, 60, 76
4, 19031, Note_on_c, 1, 60, 0
4, 19032, Note_on_c, 1, 62, 74
4, 19055, Note_on_c, 1, 62, 0
4, 19056, Note_on_c, 1, 58, 72
4, 19079, Note_on_c, 1, 58, 0
4, 19080, Note_on_c, 1, 60, 70
4, 19103, Note_on_c, 1, 60, 0
4, 19104, Note_on_c, 1, 57, 68
4, 19127, Note_on_c, 1, 57, 0
4, 19128, Note_on_c, 1, 58, 66
4, 19151, Note_on_c, 1, 58, 0
4, 19152, Note_on_c, 1, 55, 64
4, 19175, Note_on_c, 1, 55, 0
4, 19176, Note_on_c, 1, 57, 62
4, 19199, Note_on_c, 1, 57, 0
4, 19200, Note_on_c, 1, 53, 61
4, 19223, Note_on_c, 1, 53, 0
4, 19224, Note_on_c, 1, 60, 61
4, 19247, Note_on_c, 1, 60, 0
4, 19248, Note_on_c, 1, 57, 61
4, 19271, Note_on_c, 1, 57, 0
4, 19272, Note_on_c, 1, 60, 61
4, 19295, Note_on_c, 1, 60, 0
4, 19296, Note_on_c, 1, 53, 61
4, 19319, Note_on_c, 1, 53, 0
4, 19320, Note_on_c, 1, 60, 61
4, 19343, Note_on_c, 1, 60, 0
4, 19344, Note_on_c, 1, 57, 61
4, 19367, Note_on_c, 1, 57, 0
4, 19368, Note_on_c, 1, 60, 61
4, 19391, Note_on_c, 1, 60, 0
4, 19392, Note_on_c, 1, 55, 61
4, 19415, Note_on_c, 1, 55, 0
4, 19416, Note_on_c, 1, 60, 61
4, 19439, Note_on_c, 1, 60, 0
4, 19440, Note_on_c, 1, 58, 61
4, 19463, Note_on_c, 1, 58, 0
4, 19464, Note_on_c, 1, 60, 61
4, 19487, Note_on_c, 1, 60, 0
4, 19488, Note_on_c, 1, 55, 61
4, 19511, Note_on_c, 1, 55, 0
4, 19512, Note_on_c, 1, 60, 61
4, 19535, Note_on_c, 1, 60, 0
4, 19536, Note_on_c, 1, 58, 61
4, 19559, Note_on_c, 1, 58, 0
4, 19560, Note_on_c, 1, 60, 61
4, 19583, Note_on_c, 1, 60, 0
4, 19584, Note_on_c, 1, 53, 61
4, 19607, Note_on_c, 1, 53, 0
4, 19608, Note_on_c, 1, 60, 61
4, 19631, Note_on_c, 1, 60, 0
4, 19632, Note_on_c, 1, 57, 61
4, 19655, Note_on_c, 1, 57, 0
4, 19656, Note_on_c, 1, 60, 61
4, 19679, Note_on_c, 1, 60, 0
4, 19680, Note_on_c, 1, 53, 61
4, 19703, Note_on_c, 1, 53, 0
4, 19704, Note_on_c, 1, 60, 61
4, 19727, Note_on_c, 1, 60, 0
4, 19728, Note_on_c, 1, 57, 61
4, 19751, Note_on_c, 1, 57, 0
4, 19752, Note_on_c, 1, 60, 61
4, 19775, Note_on_c, 1, 60, 0
4, 19776, Note_on_c, 1, 55, 61
4, 19799, Note_on_c, 1, 55, 0
4, 19800, Note_on_c, 1, 60, 61
4, 19823, Note_on_c, 1, 60, 0
4, 19824, Note_on_c, 1, 58, 61
4, 19847, Note_on_c, 1, 58, 0
4, 19848, Note_on_c, 1, 60, 61
4, 19871, Note_on_c, 1, 60, 0
4, 19872, Note_on_c, 1, 55, 61
4, 19895, Note_on_c, 1, 55, 0
4, 19896, Note_on_c, 1, 60, 61
4, 19919, Note_on_c, 1, 60, 0
4, 19920, Note_on_c, 1, 58, 61
4, 19943, Note_on_c, 1, 58, 0
4, 19944, Note_on_c, 1, 60, 61
4, 19967, Note_on_c, 1, 60, 0
4, 19968, Note_on_c, 1, 53, 61
4, 19991, Note_on_c, 1, 53, 0
4, 19992, Note_on_c, 1, 60, 61
4, 20015, Note_on_c, 1, 60, 0
4, 20016, Note_on_c, 1, 57, 61
4, 20039, Note_on_c, 1, 57, 0
4, 20040, Note_on_c, 1, 60, 61
4, 20063, Note_on_c, 1, 60, 0
4, 20064, Note_on_c, 1, 53, 61
4, 20087, Note_on_c, 1, 53, 0
4, 20088, Note_on_c, 1, 60, 61
4, 20111, Note_on_c, 1, 60, 0
4, 20112, Note_on_c, 1, 57, 61
4, 20135, Note_on_c, 1, 57, 0
4, 20136, Note_on_c, 1, 60, 61
4, 20159, Note_on_c, 1, 60, 0
4, 20160, Note_on_c, 1, 55, 61
4, 20183, Note_on_c, 1, 55, 0
4, 20184, Note_on_c, 1, 60, 61
4, 20207, Note_on_c, 1, 60, 0
4, 20208, Note_on_c, 1, 58, 61
4, 20231, Note_on_c, 1, 58, 0
4, 20232, Note_on_c, 1, 60, 61
4, 20255, Note_on_c, 1, 60, 0
4, 20256, Note_on_c, 1, 55, 61
4, 20279, Note_on_c, 1, 55, 0
4, 20280, Note_on_c, 1, 60, 61
4, 20303, Note_on_c, 1, 60, 0
4, 20304, Note_on_c, 1, 58, 61
4, 20327, Note_on_c, 1, 58, 0
4, 20328, Note_on_c, 1, 60, 61
4, 20351, Note_on_c, 1, 60, 0
4, 20352, Note_on_c, 1, 53, 61
4, 20375, Note_on_c, 1, 53, 0
4, 20376, Note_on_c, 1, 60, 61
4, 20399, Note_on_c, 1, 60, 0
4, 20400, Note_on_c, 1, 57, 61
4, 20423, Note_on_c, 1, 57, 0
4, 20424, Note_on_c, 1, 60, 61
4, 20447, Note_on_c, 1, 60, 0
4, 20448, Note_on_c, 1, 53, 61
4, 20471, Note_on_c, 1, 53, 0
4, 20472, Note_on_c, 1, 60, 61
4, 20495, Note_on_c, 1, 60, 0
4, 20496, Note_on_c, 1, 57, 61
4, 20519, Note_on_c, 1, 57, 0
4, 20520, Note_on_c, 1, 60, 61
4, 20543, Note_on_c, 1, 60, 0
4, 20544, Note_on_c, 1, 55, 61
4, 20567, Note_on_c, 1, 55, 0
4, 20568, Note_on_c, 1, 60, 61
4, 20591, Note_on_c, 1, 60, 0
4, 20592, Note_on_c, 1, 58, 61
4, 20615, Note_on_c, 1, 58, 0
4, 20616, Note_on_c, 1, 60, 61
4, 20639, Note_on_c, 1, 60, 0
4, 20640, Note_on_c, 1, 55, 61
4, 20663, Note_on_c, 1, 55, 0
4, 20664, Note_on_c, 1, 60, 61
4, 20687, Note_on_c, 1, 60, 0
4, 20688, Note_on_c, 1, 58, 61
4, 20711, Note_on_c, 1, 58, 0
4, 20712, Note_on_c, 1, 60, 61
4, 20735, Note_on_c, 1, 60, 0
4, 20736, Note_on_c, 1, 53, 61
4, 20759, Note_on_c, 1, 53, 0
4, 20760, Note_on_c, 1, 60, 62
4, 20783, Note_on_c, 1, 60, 0
4, 20784, Note_on_c, 1, 57, 63
4, 20807, Note_on_c, 1, 57, 0
4, 20808, Note_on_c, 1, 60, 64
4, 20831, Note_on_c, 1, 60, 0
4, 20832, Note_on_c, 1, 53, 65
4, 20855, Note_on_c, 1, 53, 0
4, 20856, Note_on_c, 1, 60, 66
4, 20879, Note_on_c, 1, 60, 0
4, 20880, Note_on_c, 1, 57, 67
4, 20903, Note_on_c, 1, 57, 0
4, 20904, Note_on_c, 1, 60, 68
4, 20927, Note_on_c, 1, 60, 0
4, 20928, Note_on_c, 1, 57, 70
4, 20951, Note_on_c, 1, 57, 0
4, 20952, Note_on_c, 1, 65, 70
4, 20975, Note_on_c, 1, 65, 0
4, 20976, Note_on_c, 1, 60, 70
4, 20999, Note_on_c, 1, 60, 0
4, 21000, Note_on_c, 1, 65, 70
4, 21023, Note_on_c, 1, 65, 0
4, 21024, Note_on_c, 1, 57, 70
4, 21047, Note_on_c, 1, 57, 0
4, 21048, Note_on_c, 1, 65, 70
4, 21071, Note_on_c, 1, 65, 0
4, 21072, Note_on_c, 1, 60, 70
4, 21095, Note_on_c, 1, 60, 0
4, 21096, Note_on_c, 1, 65, 71
4, 21119, Note_on_c, 1, 65, 0
4, 21120, Note_on_c, 1, 58, 71
4, 21143, Note_on_c, 1, 58, 0
4, 21144, Note_on_c, 1, 65, 72
4, 21167, Note_on_c, 1, 65, 0
4, 21168, Note_on_c, 1, 62, 72
4, 21191, Note_on_c, 1, 62, 0
4, 21192, Note_on_c, 1, 65, 73
4, 21215, Note_on_c, 1, 65, 0
4, 21216, Note_on_c, 1, 57, 73
4, 21239, Note_on_c, 1, 57, 0
4, 21240, Note_on_c, 1, 66, 74
4, 21263, Note_on_c, 1, 66, 0
4, 21264, Note_on_c, 1, 60, 74
4, 21287, Note_on_c, 1, 60, 0
4, 21288, Note_on_c, 1, 66, 75
4, 21311, Note_on_c, 1, 66, 0
4, 21312, Note_on_c, 1, 55, 75
4, 21335, Note_on_c, 1, 55, 0
4, 21336, Note_on_c, 1, 65, 76
4, 21359, Note_on_c, 1, 65, 0
4, 21360, Note_on_c, 1, 62, 73
4, 21383, Note_on_c, 1, 62, 0
4, 21384, Note_on_c, 1, 65, 71
4, 21407, Note_on_c, 1, 65, 0
4, 21408, Note_on_c, 1, 60, 69
4, 21431, Note_on_c, 1, 60, 0
4, 21432, Note_on_c, 1, 67, 67
4, 21455, Note_on_c, 1, 67, 0
4, 21456, Note_on_c, 1, 64, 65
4, 21479, Note_on_c, 1, 64, 0
4, 21480, Note_on_c, 1, 67, 63
4, 21503, Note_on_c, 1, 67, 0
4, 21504, Note_on_c, 1, 53, 61
4, 21527, Note_on_c, 1, 53, 0
4, 21528, Note_on_c, 1, 65, 61
4, 21551, Note_on_c, 1, 65, 0
4, 21552, Note_on_c, 1, 57, 61
4, 21575, Note_on_c, 1, 57, 0
4, 21576, Note_on_c, 1, 65, 61
4, 21599, Note_on_c, 1, 65, 0
4, 21600, Note_on_c, 1, 58, 61
4, 21623, Note_on_c, 1, 58, 0
4, 21624, Note_on_c, 1, 67, 61
4, 21647, Note_on_c, 1, 67, 0
4, 21648, Note_on_c, 1, 62, 61
4, 21671, Note_on_c, 1, 62, 0
4, 21672, Note_on_c, 1, 67, 61
4, 21695, Note_on_c, 1, 67, 0
4, 21696, Note_on_c, 1, 60, 61
4, 21719, Note_on_c, 1, 60, 0
4, 21720, Note_on_c, 1, 69, 61
4, 21743, Note_on_c, 1, 69, 0
4, 21744, Note_on_c, 1, 65, 61
4, 21767, Note_on_c, 1, 65, 0
4, 21768, Note_on_c, 1, 69, 61
4, 21791, Note_on_c, 1, 69, 0
4, 21792, Note_on_c, 1, 60, 61
4, 21815, Note_on_c, 1, 60, 0
4, 21816, Note_on_c, 1, 67, 61
4, 21839, Note_on_c, 1, 67, 0
4, 21840, Note_on_c, 1, 64, 61
4, 21863, Note_on_c, 1, 64, 0
4, 21864, Note_on_c, 1, 67, 61
4, 21887, Note_on_c, 1, 67, 0
4, 21888, Note_on_c, 1, 57, 61
4, 21911, Note_on_c, 1, 57, 0
4, 21912, Note_on_c, 1, 65, 61
4, 21935, Note_on_c, 1, 65, 0
4, 21936, Note_on_c, 1, 60, 61
4, 21959, Note_on_c, 1, 60, 0
4, 21960, Note_on_c, 1, 65, 61
4, 21983, Note_on_c, 1, 65, 0
4, 21984, Note_on_c, 1, 58, 61
4, 22007, Note_on_c, 1, 58, 0
4, 22008, Note_on_c, 1, 65, 61
4, 22031, Note_on_c, 1, 65, 0
4, 22032, Note_on_c, 1, 62, 61
4, 22055, Note_on_c, 1, 62, 0
4, 22056, Note_on_c, 1, 65, 61
4, 22079, Note_on_c, 1, 65, 0
4, 22080, Note_on_c, 1, 60, 61
4, 22103, Note_on_c, 1, 60, 0
4, 22104, Note_on_c, 1, 69, 61
4, 22127, Note_on_c, 1, 69, 0
4, 22128, Note_on_c, 1, 65, 61
4, 22151, Note_on_c, 1, 65, 0
4, 22152, Note_on_c, 1, 69, 61
4, 22175, Note_on_c, 1, 69, 0
4, 22176, Note_on_c, 1, 60, 61
4, 22199, Note_on_c, 1, 60, 0
4, 22200, Note_on_c, 1, 64, 61
4, 22223, Note_on_c, 1, 64, 0
4, 22224, Note_on_c, 1, 60, 61
4, 22247, Note_on_c, 1, 60, 0
4, 22248, Note_on_c, 1, 64, 61
4, 22271, Note_on_c, 1, 64, 0
4, 22272, Note_on_c, 1, 65, 61
4, 22272, Note_on_c, 1, 53, 61
4, 22361, Note_on_c, 1, 65, 0
4, 22361, Note_on_c, 1, 53, 0
4, 22752, Note_on_c, 1, 46, 82
4, 22752, Note_on_c, 1, 34, 82
4, 22841, Note_on_c, 1, 46, 0
4, 22841, Note_on_c, 1, 34, 0
4, 22848, Note_on_c, 1, 48, 82
4, 22848, Note_on_c, 1, 36, 82
4, 22937, Note_on_c, 1, 48, 0
4, 22937, Note_on_c, 1, 36, 0
4, 22944, Note_on_c, 1, 48, 82
4, 22944, Note_on_c, 1, 36, 82
4, 23033, Note_on_c, 1, 48, 0
4, 23033, Note_on_c, 1, 36, 0
4, 23040, Note_on_c, 1, 41, 82
4, 23040, Note_on_c, 1, 29, 82
4, 23129, Note_on_c, 1, 41, 0
4, 23129, Note_on_c, 1, 29, 0
4, 23520, Note_on_c, 1, 46, 82
4, 23520, Note_on_c, 1, 34, 82
4, 23609, Note_on_c, 1, 46, 0
4, 23609, Note_on_c, 1, 34, 0
4, 23616, Note_on_c, 1, 48, 82
4, 23616, Note_on_c, 1, 36, 82
4, 23705, Note_on_c, 1, 48, 0
4, 23705, Note_on_c, 1, 36, 0
4, 23712, Note_on_c, 1, 58, 76
4, 23712, Note_on_c, 1, 48, 76
4, 23757, Note_on_c, 1, 58, 0
4, 23757, Note_on_c, 1, 48, 0
4, 23808, Note_on_c, 1, 64, 76
4, 23808, Note_on_c, 1, 58, 76
4, 23808, Note_on_c, 1, 53, 76
4, 24000, Note_on_c, 1, 64, 0
4, 24000, Note_on_c, 1, 58, 0
4, 24000, Control_c, 1, 64, 127
4, 24000, Note_on_c, 1, 41, 70
4, 24006, Note_on_c, 1, 45, 70
4, 24012, Note_on_c, 1, 48, 70
4, 24018, Note_on_c, 1, 57, 70
4, 24024, Note_on_c, 1, 60, 70
4, 24030, Note_on_c, 1, 65, 70
4, 24096, Control_c, 1, 64, 0
4, 24141, Note_on_c, 1, 65, 0
4, 24141, Note_on_c, 1, 60, 0
4, 24141, Note_on_c, 1, 57, 0
4, 24141, Note_on_c, 1, 53, 0
4, 24141, Note_on_c, 1, 48, 0
4, 24141, Note_on_c, 1, 45, 0
4, 24141, Note_on_c, 1, 41, 0
4, 24192, Note_on_c, 1, 48, 82
4, 24198, Note_on_c, 1, 52, 82
4, 24204, Note_on_c, 1, 55, 82
4, 24210, Note_on_c, 1, 60, 82
4, 24285, Note_on_c, 1, 60, 0
4, 24285, Note_on_c, 1, 55, 0
4, 24285, Note_on_c, 1, 52, 0
4, 24285, Note_on_c, 1, 48, 0
4, 24384, Note_on_c, 1, 60, 61
4, 24407, Note_on_c, 1, 60, 0
4, 24408, Note_on_c, 1, 70, 61
4, 24431, Note_on_c, 1, 70, 0
4, 24432, Note_on_c, 1, 67, 61
4, 24455, Note_on_c, 1, 67, 0
4, 24456, Note_on_c, 1, 70, 61
4, 24479, Note_on_c, 1, 70, 0
4, 24480, Note_on_c, 1, 60, 61
4, 24503, Note_on_c, 1, 60, 0
4, 24504, Note_on_c, 1, 70, 61
4, 24527, Note_on_c, 1, 70, 0
4, 24528, Note_on_c, 1, 67, 61
4, 24551, Note_on_c, 1, 67, 0
4, 24552, Note_on_c, 1, 70, 61
4, 24575, Note_on_c, 1, 70, 0
4, 24576, Note_on_c, 1, 60, 61
4, 24599, Note_on_c, 1, 60, 0
4, 24600, Note_on_c, 1, 69, 61
4, 24623, Note_on_c, 1, 69, 0
4, 24624, Note_on_c, 1, 65, 61
4, 24647, Note_on_c, 1, 65, 0
4, 24648, Note_on_c, 1, 69, 61
4, 24671, Note_on_c, 1, 69, 0
4, 24672, Note_on_c, 1, 60, 61
4, 24695, Note_on_c, 1, 60, 0
4, 24696, Note_on_c, 1, 69, 61
4, 24719, Note_on_c, 1, 69, 0
4, 24720, Note_on_c, 1, 65, 61
4, 24743, Note_on_c, 1, 65, 0
4, 24744, Note_on_c, 1, 69, 61
4, 24767, Note_on_c, 1, 69, 0
4, 24768, Note_on_c, 1, 60, 61
4, 24791, Note_on_c, 1, 60, 0
4, 24792, Note_on_c, 1, 67, 61
4, 24815, Note_on_c, 1, 67, 0
4, 24816, Note_on_c, 1, 64, 61
4, 24839, Note_on_c, 1, 64, 0
4, 24840, Note_on_c, 1, 67, 61
4, 24863, Note_on_c, 1, 67, 0
4, 24864, Note_on_c, 1, 60, 61
4, 24887, Note_on_c, 1, 60, 0
4, 24888, Note_on_c, 1, 67, 61
4, 24911, Note_on_c, 1, 67, 0
4, 24912, Note_on_c, 1, 64, 61
4, 24935, Note_on_c, 1, 64, 0
4, 24936, Note_on_c, 1, 67, 61
4, 24959, Note_on_c, 1, 67, 0
4, 24960, Note_on_c, 1, 57, 61
4, 24983, Note_on_c, 1, 57, 0
4, 24984, Note_on_c, 1, 63, 61
4, 25007, Note_on_c, 1, 63, 0
4, 25008, Note_on_c, 1, 60, 61
4, 25031, Note_on_c, 1, 60, 0
4, 25032, Note_on_c, 1, 63, 61
4, 25055, Note_on_c, 1, 63, 0
4, 25056, Note_on_c, 1, 57, 61
4, 25079, Note_on_c, 1, 57, 0
4, 25080, Note_on_c, 1, 63, 61
4, 25103, Note_on_c, 1, 63, 0
4, 25104, Note_on_c, 1, 60, 61
4, 25127, Note_on_c, 1, 60, 0
4, 25128, Note_on_c, 1, 63, 61
4, 25151, Note_on_c, 1, 63, 0
4, 25152, Note_on_c, 1, 57, 61
4, 25175, Note_on_c, 1, 57, 0
4, 25176, Note_on_c, 1, 63, 61
4, 25199, Note_on_c, 1, 63, 0
4, 25200, Note_on_c, 1, 60, 61
4, 25223, Note_on_c, 1, 60, 0
4, 25224, Note_on_c, 1, 63, 61
4, 25247, Note_on_c, 1, 63, 0
4, 25248, Note_on_c, 1, 57, 61
4, 25271, Note_on_c, 1, 57, 0
4, 25272, Note_on_c, 1, 63, 61
4, 25295, Note_on_c, 1, 63, 0
4, 25296, Note_on_c, 1, 60, 61
4, 25319, Note_on_c, 1, 60, 0
4, 25320, Note_on_c, 1, 63, 61
4, 25343, Note_on_c, 1, 63, 0
4, 25344, Note_on_c, 1, 58, 61
4, 25367, Note_on_c, 1, 58, 0
4, 25368, Note_on_c, 1, 67, 61
4, 25391, Note_on_c, 1, 67, 0
4, 25392, Note_on_c, 1, 62, 61
4, 25415, Note_on_c, 1, 62, 0
4, 25416, Note_on_c, 1, 67, 61
4, 25439, Note_on_c, 1, 67, 0
4, 25440, Note_on_c, 1, 58, 61
4, 25463, Note_on_c, 1, 58, 0
4, 25464, Note_on_c, 1, 67, 61
4, 25487, Note_on_c, 1, 67, 0
4, 25488, Note_on_c, 1, 62, 61
4, 25511, Note_on_c, 1, 62, 0
4, 25512, Note_on_c, 1, 67, 61
4, 25535, Note_on_c, 1, 67, 0
4, 25536, Note_on_c, 1, 58, 61
4, 25559, Note_on_c, 1, 58, 0
4, 25560, Note_on_c, 1, 67, 62
4, 25583, Note_on_c, 1, 67, 0
4, 25584, Note_on_c, 1, 62, 63
4, 25607, Note_on_c, 1, 62, 0
4, 25608, Note_on_c, 1, 67, 64
4, 25631, Note_on_c, 1, 67, 0
4, 25632, Note_on_c, 1, 58, 65
4, 25655, Note_on_c, 1, 58, 0
4, 25656, Note_on_c, 1, 67, 66
4, 25679, Note_on_c, 1, 67, 0
4, 25680, Note_on_c, 1, 62, 67
4, 25703, Note_on_c, 1, 62, 0
4, 25704, Note_on_c, 1, 67, 68
4, 25727, Note_on_c, 1, 67, 0
4, 25728, Note_on_c, 1, 58, 70
4, 25751, Note_on_c, 1, 58, 0
4, 25752, Note_on_c, 1, 67, 70
4, 25775, Note_on_c, 1, 67, 0
4, 25776, Note_on_c, 1, 64, 70
4, 25799, Note_on_c, 1, 64, 0
4, 25800, Note_on_c, 1, 67, 70
4, 25823, Note_on_c, 1, 67, 0
4, 25824, Note_on_c, 1, 58, 70
4, 25847, Note_on_c, 1, 58, 0
4, 25848, Note_on_c, 1, 67, 70
4, 25871, Note_on_c, 1, 67, 0
4, 25872, Note_on_c, 1, 64, 70
4, 25895, Note_on_c, 1, 64, 0
4, 25896, Note_on_c, 1, 67, 70
4, 25919, Note_on_c, 1, 67, 0
4, 25920, Note_on_c, 1, 57, 70
4, 25943, Note_on_c, 1, 57, 0
4, 25944, Note_on_c, 1, 65, 70
4, 25967, Note_on_c, 1, 65, 0
4, 25968, Note_on_c, 1, 60, 70
4, 25991, Note_on_c, 1, 60, 0
4, 25992, Note_on_c, 1, 65, 70
4, 26015, Note_on_c, 1, 65, 0
4, 26016, Note_on_c, 1, 57, 70
4, 26039, Note_on_c, 1, 57, 0
4, 26040, Note_on_c, 1, 65, 70
4, 26063, Note_on_c, 1, 65, 0
4, 26064, Note_on_c, 1, 60, 70
4, 26087, Note_on_c, 1, 60, 0
4, 26088, Note_on_c, 1, 65, 70
4, 26111, Note_on_c, 1, 65, 0
4, 26112, Note_on_c, 1, 52, 70
4, 26135, Note_on_c, 1, 52, 0
4, 26136, Note_on_c, 1, 60, 68
4, 26159, Note_on_c, 1, 60, 0
4, 26160, Note_on_c, 1, 55, 67
4, 26183, Note_on_c, 1, 55, 0
4, 26184, Note_on_c, 1, 60, 66
4, 26207, Note_on_c, 1, 60, 0
4, 26208, Note_on_c, 1, 53, 65
4, 26231, Note_on_c, 1, 53, 0
4, 26232, Note_on_c, 1, 60, 64
4, 26255, Note_on_c, 1, 60, 0
4, 26256, Note_on_c, 1, 57, 63
4, 26279, Note_on_c, 1, 57, 0
4, 26280, Note_on_c, 1, 60, 62
4, 26303, Note_on_c, 1, 60, 0
4, 26304, Note_on_c, 1, 52, 61
4, 26327, Note_on_c, 1, 52, 0
4, 26328, Note_on_c, 1, 60, 61
4, 26351, Note_on_c, 1, 60, 0
4, 26352, Note_on_c, 1, 55, 61
4, 26375, Note_on_c, 1, 55, 0
4, 26376, Note_on_c, 1, 60, 61
4, 26399, Note_on_c, 1, 60, 0
4, 26400, Note_on_c, 1, 53, 61
4, 26423, Note_on_c, 1, 53, 0
4, 26424, Note_on_c, 1, 60, 61
4, 26447, Note_on_c, 1, 60, 0
4, 26448, Note_on_c, 1, 57, 61
4, 26471, Note_on_c, 1, 57, 0
4, 26472, Note_on_c, 1, 60, 61
4, 26495, Note_on_c, 1, 60, 0
4, 26496, Note_on_c, 1, 52, 61
4, 26519, Note_on_c, 1, 52, 0
4, 26520, Note_on_c, 1, 60, 61
4, 26543, Note_on_c, 1, 60, 0
4, 26544, Note_on_c, 1, 55, 61
4, 26567, Note_on_c, 1, 55, 0
4, 26568, Note_on_c, 1, 60, 61
4, 26591, Note_on_c, 1, 60, 0
4, 26592, Note_on_c, 1, 53, 61
4, 26615, Note_on_c, 1, 53, 0
4, 26616, Note_on_c, 1, 60, 62
4, 26639, Note_on_c, 1, 60, 0
4, 26640, Note_on_c, 1, 57, 63
4, 26663, Note_on_c, 1, 57, 0
4, 26664, Note_on_c, 1, 60, 64
4, 26687, Note_on_c, 1, 60, 0
4, 26688, Note_on_c, 1, 58, 66
4, 26711, Note_on_c, 1, 58, 0
4, 26712, Note_on_c, 1, 67, 67
4, 26735, Note_on_c, 1, 67, 0
4, 26736, Note_on_c, 1, 62, 68
4, 26759, Note_on_c, 1, 62, 0
4, 26760, Note_on_c, 1, 67, 69
4, 26783, Note_on_c, 1, 67, 0
4, 26784, Note_on_c, 1, 59, 71
4, 26807, Note_on_c, 1, 59, 0
4, 26808, Note_on_c, 1, 67, 72
4, 26831, Note_on_c, 1, 67, 0
4, 26832, Note_on_c, 1, 62, 73
4, 26855, Note_on_c, 1, 62, 0
4, 26856, Note_on_c, 1, 67, 74
4, 26879, Note_on_c, 1, 67, 0
4, 26880, Note_on_c, 1, 60, 76
4, 26903, Note_on_c, 1, 60, 0
4, 26904, Note_on_c, 1, 67, 76
4, 26927, Note_on_c, 1, 67, 0
4, 26928, Note_on_c, 1, 64, 76
4, 26951, Note_on_c, 1, 64, 0
4, 26952, Note_on_c, 1, 67, 76
4, 26975, Note_on_c, 1, 67, 0
4, 26976, Note_on_c, 1, 60, 76
4, 26999, Note_on_c, 1, 60, 0
4, 27000, Note_on_c, 1, 67, 76
4, 27023, Note_on_c, 1, 67, 0
4, 27024, Note_on_c, 1, 64, 76
4, 27047, Note_on_c, 1, 64, 0
4, 27048, Note_on_c, 1, 67, 76
4, 27071, Note_on_c, 1, 67, 0
4, 27072, Note_on_c, 1, 60, 76
4, 27095, Note_on_c, 1, 60, 0
4, 27096, Note_on_c, 1, 62, 74
4, 27119, Note_on_c, 1, 62, 0
4, 27120, Note_on_c, 1, 58, 72
4, 27143, Note_on_c, 1, 58, 0
4, 27144, Note_on_c, 1, 60, 70
4, 27167, Note_on_c, 1, 60, 0
4, 27168, Note_on_c, 1, 57, 68
4, 27191, Note_on_c, 1, 57, 0
4, 27192, Note_on_c, 1, 58, 66
4, 27215, Note_on_c, 1, 58, 0
4, 27216, Note_on_c, 1, 55, 64
4, 27239, Note_on_c, 1, 55, 0
4, 27240, Note_on_c, 1, 57, 62
4, 27263, Note_on_c, 1, 57, 0
4, 27264, Note_on_c, 1, 53, 61
4, 27287, Note_on_c, 1, 53, 0
4, 27288, Note_on_c, 1, 60, 61
4, 27311, Note_on_c, 1, 60, 0
4, 27312, Note_on_c, 1, 57, 61
4, 27335, Note_on_c, 1, 57, 0
4, 27336, Note_on_c, 1, 60, 61
4, 27359, Note_on_c, 1, 60, 0
4, 27360, Note_on_c, 1, 53, 61
4, 27383, Note_on_c, 1, 53, 0
4, 27384, Note_on_c, 1, 60, 61
4, 27407, Note_on_c, 1, 60, 0
4, 27408, Note_on_c, 1, 57, 61
4, 27431, Note_on_c, 1, 57, 0
4, 27432, Note_on_c, 1, 60, 61
4, 27455, Note_on_c, 1, 60, 0
4, 27456, Note_on_c, 1, 55, 61
4, 27479, Note_on_c, 1, 55, 0
4, 27480, Note_on_c, 1, 60, 61
4, 27503, Note_on_c, 1, 60, 0
4, 27504, Note_on_c, 1, 58, 61
4, 27527, Note_on_c, 1, 58, 0
4, 27528, Note_on_c, 1, 60, 61
4, 27551, Note_on_c, 1, 60, 0
4, 27552, Note_on_c, 1, 55, 61
4, 27575, Note_on_c, 1, 55, 0
4, 27576, Note_on_c, 1, 60, 61
4, 27599, Note_on_c, 1, 60, 0
4, 27600, Note_on_c, 1, 58, 61
4, 27623, Note_on_c, 1, 58, 0
4, 27624, Note_on_c, 1, 60, 61
4, 27647, Note_on_c, 1, 60, 0
4, 27648, Note_on_c, 1, 53, 61
4, 27671, Note_on_c, 1, 53, 0
4, 27672, Note_on_c, 1, 60, 61
4, 27695, Note_on_c, 1, 60, 0
4, 27696, Note_on_c, 1, 57, 61
4, 27719, Note_on_c, 1, 57, 0
4, 27720, Note_on_c, 1, 60, 61
4, 27743, Note_on_c, 1, 60, 0
4, 27744, Note_on_c, 1, 53, 61
4, 27767, Note_on_c, 1, 53, 0
4, 27768, Note_on_c, 1, 60, 61
4, 27791, Note_on_c, 1, 60, 0
4, 27792, Note_on_c, 1, 57, 61
4, 27815, Note_on_c, 1, 57, 0
4, 27816, Note_on_c, 1, 60, 61
4, 27839, Note_on_c, 1, 60, 0
4, 27840, Note_on_c, 1, 55, 61
4, 27863, Note_on_c, 1, 55, 0
4, 27864, Note_on_c, 1, 60, 61
4, 27887, Note_on_c, 1, 60, 0
4, 27888, Note_on_c, 1, 58, 61
4, 27911, Note_on_c, 1, 58, 0
4, 27912, Note_on_c, 1, 60, 61
4, 27935, Note_on_c, 1, 60, 0
4, 27936, Note_on_c, 1, 55, 61
4, 27959, Note_on_c, 1, 55, 0
4, 27960, Note_on_c, 1, 60, 61
4, 27983, Note_on_c, 1, 60, 0
4, 27984, Note_on_c, 1, 58, 61
4, 28007, Note_on_c, 1, 58, 0
4, 28008, Note_on_c, 1, 60, 61
4, 28031, Note_on_c, 1, 60, 0
4, 28032, Note_on_c, 1, 53, 61
4, 28055, Note_on_c, 1, 53, 0
4, 28056, Note_on_c, 1, 60, 61
4, 28079, Note_on_c, 1, 60, 0
4, 28080, Note_on_c, 1, 57, 61
4, 28103, Note_on_c, 1, 57, 0
4, 28104, Note_on_c, 1, 60, 61
4, 28127, Note_on_c, 1, 60, 0
4, 28128, Note_on_c, 1, 53, 61
4, 28151, Note_on_c, 1, 53, 0
4, 28152, Note_on_c, 1, 60, 61
4, 28175, Note_on_c, 1, 60, 0
4, 28176, Note_on_c, 1, 57, 61
4, 28199, Note_on_c, 1, 57, 0
4, 28200, Note_on_c, 1, 60, 61
4, 28223, Note_on_c, 1, 60, 0
4, 28224, Note_on_c, 1, 55, 61
4, 28247, Note_on_c, 1, 55, 0
4, 28248, Note_on_c, 1, 60, 61
4, 28271, Note_on_c, 1, 60, 0
4, 28272, Note_on_c, 1, 58, 61
4, 28295, Note_on_c, 1, 58, 0
4, 28296, Note_on_c, 1, 60, 61
4, 28319, Note_on_c, 1, 60, 0
4, 28320, Note_on_c, 1, 55, 61
4, 28343, Note_on_c, 1, 55, 0
4, 28344, Note_on_c, 1, 60, 61
4, 28367, Note_on_c, 1, 60, 0
4, 28368, Note_on_c, 1, 58, 61
4, 28391, Note_on_c, 1, 58, 0
4, 28392, Note_on_c, 1, 60, 61
4, 28415, Note_on_c, 1, 60, 0
4, 28416, Note_on_c, 1, 53, 61
4, 28439, Note_on_c, 1, 53, 0
4, 28440, Note_on_c, 1, 60, 61
4, 28463, Note_on_c, 1, 60, 0
4, 28464, Note_on_c, 1, 57, 61
4, 28487, Note_on_c, 1, 57, 0
4, 28488, Note_on_c, 1, 60, 61
4, 28511, Note_on_c, 1, 60, 0
4, 28512, Note_on_c, 1, 53, 61
4, 28535, Note_on_c, 1, 53, 0
4, 28536, Note_on_c, 1, 60, 61
4, 28559, Note_on_c, 1, 60, 0
4, 28560, Note_on_c, 1, 57, 61
4, 28583, Note_on_c, 1, 57, 0
4, 28584, Note_on_c, 1, 60, 61
4, 28607, Note_on_c, 1, 60, 0
4, 28608, Note_on_c, 1, 55, 61
4, 28631, Note_on_c, 1, 55, 0
4, 28632, Note_on_c, 1, 60, 61
4, 28655, Note_on_c, 1, 60, 0
4, 28656, Note_on_c, 1, 58, 61
4, 28679, Note_on_c, 1, 58, 0
4, 28680, Note_on_c, 1, 60, 61
4, 28703, Note_on_c, 1, 60, 0
4, 28704, Note_on_c, 1, 55, 61
4, 28727, Note_on_c, 1, 55, 0
4, 28728, Note_on_c, 1, 60, 61
4, 28751, Note_on_c, 1, 60, 0
4, 28752, Note_on_c, 1, 58, 61
4, 28775, Note_on_c, 1, 58, 0
4, 28776, Note_on_c, 1, 60, 61
4, 28799, Note_on_c, 1, 60, 0
4, 28800, Note_on_c, 1, 53, 61
4, 28823, Note_on_c, 1, 53, 0
4, 28824, Note_on_c, 1, 60, 62
4, 28847, Note_on_c, 1, 60, 0
4, 28848, Note_on_c, 1, 57, 63
4, 28871, Note_on_c, 1, 57, 0
4, 28872, Note_on_c, 1, 60, 64
4, 28895, Note_on_c, 1, 60, 0
4, 28896, Note_on_c, 1, 53, 65
4, 28919, Note_on_c, 1, 53, 0
4, 28920, Note_on_c, 1, 60, 66
4, 28943, Note_on_c, 1, 60, 0
4, 28944, Note_on_c, 1, 57, 67
4, 28967, Note_on_c, 1, 57, 0
4, 28968, Note_on_c, 1, 60, 68
4, 28991, Note_on_c, 1, 60, 0
4, 28992, Note_on_c, 1, 57, 70
4, 29015, Note_on_c, 1, 57, 0
4, 29016, Note_on_c, 1, 65, 70
4, 29039, Note_on_c, 1, 65, 0
4, 29040, Note_on_c, 1, 60, 70
4, 29063, Note_on_c, 1, 60, 0
4, 29064, Note_on_c, 1, 65, 70
4, 29087, Note_on_c, 1, 65, 0
4, 29088, Note_on_c, 1, 57, 70
4, 29111, Note_on_c, 1, 57, 0
4, 29112, Note_on_c, 1, 65, 70
4, 29135, Note_on_c, 1, 65, 0
4, 29136, Note_on_c, 1, 60, 70
4, 29159, Note_on_c, 1, 60, 0
4, 29160, Note_on_c, 1, 65, 71
4, 29183, Note_on_c, 1, 65, 0
4, 29184, Note_on_c, 1, 58, 71
4, 29207, Note_on_c, 1, 58, 0
4, 29208, Note_on_c, 1, 65, 72
4, 29231, Note_on_c, 1, 65, 0
4, 29232, Note_on_c, 1, 62, 72
4, 29255, Note_on_c, 1, 62, 0
4, 29256, Note_on_c, 1, 65, 73
4, 29279, Note_on_c, 1, 65, 0
4, 29280, Note_on_c, 1, 57, 73
4, 29303, Note_on_c, 1, 57, 0
4, 29304, Note_on_c, 1, 66, 74
4, 29327, Note_on_c, 1, 66, 0
4, 29328, Note_on_c, 1, 60, 74
4, 29351, Note_on_c, 1, 60, 0
4, 29352, Note_on_c, 1, 66, 75
4, 29375, Note_on_c, 1, 66, 0
4, 29376, Note_on_c, 1, 55, 75
4, 29399, Note_on_c, 1, 55, 0
4, 29400, Note_on_c, 1, 65, 76
4, 29423, Note_on_c, 1, 65, 0
4, 29424, Note_on_c, 1, 62, 73
4, 29447, Note_on_c, 1, 62, 0
4, 29448, Note_on_c, 1, 65, 71
4, 29471, Note_on_c, 1, 65, 0
4, 29472, Note_on_c, 1, 60, 69
4, 29495, Note_on_c, 1, 60, 0
4, 29496, Note_on_c, 1, 67, 67
4, 29519, Note_on_c, 1, 67, 0
4, 29520, Note_on_c, 1, 64, 65
4, 29543, Note_on_c, 1, 64, 0
4, 29544, Note_on_c, 1, 67, 63
4, 29567, Note_on_c, 1, 67, 0
4, 29568, Note_on_c, 1, 53, 61
4, 29591, Note_on_c, 1, 53, 0
4, 29592, Note_on_c, 1, 65, 61
4, 29615, Note_on_c, 1, 65, 0
4, 29616, Note_on_c, 1, 57, 61
4, 29639, Note_on_c, 1, 57, 0
4, 29640, Note_on_c, 1, 65, 61
4, 29663, Note_on_c, 1, 65, 0
4, 29664, Note_on_c, 1, 58, 61
4, 29687, Note_on_c, 1, 58, 0
4, 29688, Note_on_c, 1, 67, 61
4, 29711, Note_on_c, 1, 67, 0
4, 29712, Note_on_c, 1, 62, 61
4, 29735, Note_on_c, 1, 62, 0
4, 29736, Note_on_c, 1, 67, 61
4, 29759, Note_on_c, 1, 67, 0
4, 29760, Note_on_c, 1, 60, 61
4, 29783, Note_on_c, 1, 60, 0
4, 29784, Note_on_c, 1, 69, 61
4, 29807, Note_on_c, 1, 69, 0
4, 29808, Note_on_c, 1, 65, 61
4, 29831, Note_on_c, 1, 65, 0
4, 29832, Note_on_c, 1, 69, 61
4, 29855, Note_on_c, 1, 69, 0
4, 29856, Note_on_c, 1, 60, 61
4, 29879, Note_on_c, 1, 60, 0
4, 29880, Note_on_c, 1, 67, 61
4, 29903, Note_on_c, 1, 67, 0
4, 29904, Note_on_c, 1, 64, 61
4, 29927, Note_on_c, 1, 64, 0
4, 29928, Note_on_c, 1, 67, 61
4, 29951, Note_on_c, 1, 67, 0
4, 29952, Note_on_c, 1, 57, 61
4, 29975, Note_on_c, 1, 57, 0
4, 29976, Note_on_c, 1, 65, 61
4, 29999, Note_on_c, 1, 65, 0
4, 30000, Note_on_c, 1, 60, 61
4, 30023, Note_on_c, 1, 60, 0
4, 30024, Note_on_c, 1, 65, 61
4, 30047, Note_on_c, 1, 65, 0
4, 30048, Note_on_c, 1, 58, 61
4, 30071, Note_on_c, 1, 58, 0
4, 30072, Note_on_c, 1, 65, 61
4, 30095, Note_on_c, 1, 65, 0
4, 30096, Note_on_c, 1, 62, 61
4, 30119, Note_on_c, 1, 62, 0
4, 30120, Note_on_c, 1, 65, 61
4, 30143, Note_on_c, 1, 65, 0
4, 30144, Note_on_c, 1, 60, 61
4, 30167, Note_on_c, 1, 60, 0
4, 30168, Note_on_c, 1, 69, 61
4, 30191, Note_on_c, 1, 69, 0
4, 30192, Note_on_c, 1, 65, 61
4, 30215, Note_on_c, 1, 65, 0
4, 30216, Note_on_c, 1, 69, 61
4, 30239, Note_on_c, 1, 69, 0
4, 30240, Note_on_c, 1, 60, 61
4, 30263, Note_on_c, 1, 60, 0
4, 30264, Note_on_c, 1, 64, 61
4, 30287, Note_on_c, 1, 64, 0
4, 30288, Note_on_c, 1, 60, 61
4, 30311, Note_on_c, 1, 60, 0
4, 30312, Note_on_c, 1, 64, 61
4, 30335, Note_on_c, 1, 64, 0
4, 30336, Note_on_c, 1, 65, 61
4, 30336, Note_on_c, 1, 53, 61
4, 30425, Note_on_c, 1, 65, 0
4, 30425, Note_on_c, 1, 53, 0
4, 30816, Note_on_c, 1, 46, 82
4, 30816, Note_on_c, 1, 34, 82
4, 30905, Note_on_c, 1, 46, 0
4, 30905, Note_on_c, 1, 34, 0
4, 30912, Note_on_c, 1, 48, 82
4, 30912, Note_on_c, 1, 36, 82
4, 31001, Note_on_c, 1, 48, 0
4, 31001, Note_on_c, 1, 36, 0
4, 31008, Note_on_c, 1, 48, 82
4, 31008, Note_on_c, 1, 36, 82
4, 31097, Note_on_c, 1, 48, 0
4, 31097, Note_on_c, 1, 36, 0
4, 31104, Note_on_c, 1, 41, 82
4, 31104, Note_on_c, 1, 29, 82
4, 31193, Note_on_c, 1, 41, 0
4, 31193, Note_on_c, 1, 29, 0
4, 31584, Note_on_c, 1, 46, 82
4, 31584, Note_on_c, 1, 34, 82
4, 31673, Note_on_c, 1, 46, 0
4, 31673, Note_on_c, 1, 34, 0
4, 31680, Note_on_c, 1, 48, 82
4, 31680, Note_on_c, 1, 36, 82
4, 31769, Note_on_c, 1, 48, 0
4, 31769, Note_on_c, 1, 36, 0
4, 31776, Note_on_c, 1, 58, 76
4, 31776, Note_on_c, 1, 48, 76
4, 31821, Note_on_c, 1, 58, 0
4, 31821, Note_on_c, 1, 48, 0
4, 31872, Note_on_c, 1, 64, 76
4, 31872, Note_on_c, 1, 58, 76
4, 31872, Note_on_c, 1, 53, 76
4, 32064, Note_on_c, 1, 64, 0
4, 32064, Note_on_c, 1, 58, 0
4, 32064, Control_c, 1, 64, 127
4, 32064, Note_on_c, 1, 41, 70
4, 32070, Note_on_c, 1, 45, 70
4, 32076, Note_on_c, 1, 48, 70
4, 32082, Note_on_c, 1, 57, 70
4, 32088, Note_on_c, 1, 60, 70
4, 32094, Note_on_c, 1, 65, 70
4, 32160, Control_c, 1, 64, 0
4, 32205, Note_on_c, 1, 65, 0
4, 32205, Note_on_c, 1, 60, 0
4, 32205, Note_on_c, 1, 57, 0
4, 32205, Note_on_c, 1, 53, 0
4, 32205, Note_on_c, 1, 48, 0
4, 32205, Note_on_c, 1, 45, 0
4, 32205, Note_on_c, 1, 41, 0
4, 32256, Note_on_c, 1, 41, 0
4, 32301, Note_on_c, 1, 41, 0
4, 32304, End_track
5, 0, Start_track
5, 0, Program_c, 1, 0
5, 0, Control_c, 1, 7, 127
5, 0, Control_c, 1, 10, 64
5, 768, Note_on_c, 1, 65, 61
5, 768, Note_on_c, 1, 58, 61
5, 960, Note_on_c, 1, 58, 0
5, 960, Note_on_c, 1, 57, 61
5, 1005, Note_on_c, 1, 65, 0
5, 1005, Note_on_c, 1, 57, 0
5, 1152, Note_on_c, 1, 46, 61
5, 1329, Note_on_c, 1, 46, 0
5, 1344, Note_on_c, 1, 48, 61
5, 1521, Note_on_c, 1, 48, 0
5, 1728, Note_on_c, 1, 48, 61
5, 2097, Note_on_c, 1, 48, 0
5, 2304, Note_on_c, 1, 58, 61
5, 2393, Note_on_c, 1, 58, 0
5, 8832, Note_on_c, 1, 65, 61
5, 8832, Note_on_c, 1, 58, 61
5, 9024, Note_on_c, 1, 58, 0
5, 9024, Note_on_c, 1, 57, 61
5, 9069, Note_on_c, 1, 65, 0
5, 9069, Note_on_c, 1, 57, 0
5, 9216, Note_on_c, 1, 46, 61
5, 9393, Note_on_c, 1, 46, 0
5, 9408, Note_on_c, 1, 48, 61
5, 9585, Note_on_c, 1, 48, 0
5, 9792, Note_on_c, 1, 48, 61
5, 10161, Note_on_c, 1, 48, 0
5, 10368, Note_on_c, 1, 58, 61
5, 10457, Note_on_c, 1, 58, 0
5, 20736, Note_on_c, 1, 53, 61
5, 20759, Note_on_c, 1, 53, 0
5, 20760, Note_on_c, 1, 60, 61
5, 20783, Note_on_c, 1, 60, 0
5, 20784, Note_on_c, 1, 57, 61
5, 20807, Note_on_c, 1, 57, 0
5, 20808, Note_on_c, 1, 60, 61
5, 20831, Note_on_c, 1, 60, 0
5, 20832, Note_on_c, 1, 53, 61
5, 20855, Note_on_c, 1, 53, 0
5, 20856, Note_on_c, 1, 60, 61
5, 20879, Note_on_c, 1, 60, 0
5, 20880, Note_on_c, 1, 57, 61
5, 20903, Note_on_c, 1, 57, 0
5, 20904, Note_on_c, 1, 60, 61
5, 20927, Note_on_c, 1, 60, 0
5, 28800, Note_on_c, 1, 53, 61
5, 28823, Note_on_c, 1, 53, 0
5, 28824, Note_on_c, 1, 60, 61
5, 28847, Note_on_c, 1, 60, 0
5, 28848, Note_on_c, 1, 57, 61
5, 28871, Note_on_c, 1, 57, 0
5, 28872, Note_on_c, 1, 60, 61
5, 28895, Note_on_c, 1, 60, 0
5, 28896, Note_on_c, 1, 53, 61
5, 28919, Note_on_c, 1, 53, 0
5, 28920, Note_on_c, 1, 60, 61
5, 28943, Note_on_c, 1, 60, 0
5, 28944, Note_on_c, 1, 57, 61
5, 28967, Note_on_c, 1, 57, 0
5, 28968, Note_on_c, 1, 60, 61
5, 28991, Note_on_c, 1, 60, 0
5, 32256, End_track
6, 0, Start_track
6, 0, Title_t, "Sonata I   Hob. XVI: 35"
6, 0, End_track
0, 0, End_of_file
