0, 0, Header, 1, 6, 96
1, 0, Start_track
1, 0, Sequencer_specific, 16, 68, 87, 77, 90, 86, 82, 83, 78, 32, 55, 46, 49, 46, 50, 46, 48
1, 0, Time_signature, 4, 2, 24, 8
1, 0, Tempo, 400000
1, 0, Key_signature, 2, "major"
1, 79104, End_track
2, 0, Start_track
2, 0, Program_c, 0, 0
2, 0, Control_c, 0, 7, 127
2, 0, Control_c, 0, 10, 64
2, 0, Note_on_c, 0, 85, 77
2, 6, Note_on_c, 0, 85, 0
2, 6, Note_on_c, 0, 86, 93
2, 48, Note_on_c, 0, 86, 0
2, 48, Note_on_c, 0, 74, 77
2, 93, Note_on_c, 0, 74, 0
2, 96, Note_on_c, 0, 74, 77
2, 141, Note_on_c, 0, 74, 0
2, 144, Note_on_c, 0, 74, 77
2, 189, Note_on_c, 0, 74, 0
2, 192, Note_on_c, 0, 76, 77
2, 204, Note_on_c, 0, 76, 0
2, 204, Note_on_c, 0, 78, 77
2, 216, Note_on_c, 0, 78, 0
2, 216, Note_on_c, 0, 76, 77
2, 237, Note_on_c, 0, 76, 0
2, 240, Note_on_c, 0, 74, 77
2, 285, Note_on_c, 0, 74, 0
2, 288, Note_on_c, 0, 76, 77
2, 300, Note_on_c, 0, 76, 0
2, 300, Note_on_c, 0, 78, 77
2, 312, Note_on_c, 0, 78, 0
2, 312, Note_on_c, 0, 76, 77
2, 333, Note_on_c, 0, 76, 0
2, 336, Note_on_c, 0, 74, 77
2, 381, Note_on_c, 0, 74, 0
2, 384, Note_on_c, 0, 85, 77
2, 390, Note_on_c, 0, 85, 0
2, 390, Note_on_c, 0, 86, 93
2, 432, Note_on_c, 0, 86, 0
2, 432, Note_on_c, 0, 74, 77
2, 477, Note_on_c, 0, 74, 0
2, 480, Note_on_c, 0, 74, 77
2, 525, Note_on_c, 0, 74, 0
2, 528, Note_on_c, 0, 74, 77
2, 573, Note_on_c, 0, 74, 0
2, 576, Note_on_c, 0, 76, 77
2, 588, Note_on_c, 0, 76, 0
2, 588, Note_on_c, 0, 78, 77
2, 600, Note_on_c, 0, 78, 0
2, 600, Note_on_c, 0, 76, 77
2, 621, Note_on_c, 0, 76, 0
2, 624, Note_on_c, 0, 74, 77
2, 669, Note_on_c, 0, 74, 0
2, 672, Note_on_c, 0, 76, 77
2, 684, Note_on_c, 0, 76, 0
2, 684, Note_on_c, 0, 78, 77
2, 696, Note_on_c, 0, 78, 0
2, 696, Note_on_c, 0, 76, 77
2, 717, Note_on_c, 0, 76, 0
2, 720, Note_on_c, 0, 74, 77
2, 765, Note_on_c, 0, 74, 0
2, 768, Note_on_c, 0, 79, 77
2, 815, Note_on_c, 0, 79, 0
2, 816, Note_on_c, 0, 79, 77
2, 864, Note_on_c, 0, 79, 0
2, 864, Note_on_c, 0, 78, 77
2, 884, Note_on_c, 0, 78, 0
2, 912, Note_on_c, 0, 78, 77
2, 960, Note_on_c, 0, 78, 0
2, 960, Note_on_c, 0, 83, 77
2, 980, Note_on_c, 0, 83, 0
2, 1008, Note_on_c, 0, 83, 77
2, 1056, Note_on_c, 0, 83, 0
2, 1056, Note_on_c, 0, 81, 77
2, 1076, Note_on_c, 0, 81, 0
2, 1104, Note_on_c, 0, 81, 77
2, 1149, Note_on_c, 0, 81, 0
2, 1152, Note_on_c, 0, 79, 77
2, 1197, Note_on_c, 0, 79, 0
2, 1200, Note_on_c, 0, 76, 77
2, 1245, Note_on_c, 0, 76, 0
2, 1248, Note_on_c, 0, 78, 77
2, 1293, Note_on_c, 0, 78, 0
2, 1296, Note_on_c, 0, 74, 77
2, 1341, Note_on_c, 0, 74, 0
2, 1344, Note_on_c, 0, 73, 77
2, 1367, Note_on_c, 0, 73, 0
2, 1368, Note_on_c, 0, 74, 77
2, 1391, Note_on_c, 0, 74, 0
2, 1392, Note_on_c, 0, 76, 77
2, 1415, Note_on_c, 0, 76, 0
2, 1416, Note_on_c, 0, 73, 77
2, 1439, Note_on_c, 0, 73, 0
2, 1440, Note_on_c, 0, 69, 77
2, 1485, Note_on_c, 0, 69, 0
2, 1536, Note_on_c, 0, 85, 77
2, 1542, Note_on_c, 0, 85, 0
2, 1542, Note_on_c, 0, 86, 93
2, 1584, Note_on_c, 0, 86, 0
2, 1584, Note_on_c, 0, 74, 77
2, 1629, Note_on_c, 0, 74, 0
2, 1632, Note_on_c, 0, 74, 77
2, 1677, Note_on_c, 0, 74, 0
2, 1680, Note_on_c, 0, 74, 77
2, 1725, Note_on_c, 0, 74, 0
2, 1728, Note_on_c, 0, 76, 77
2, 1740, Note_on_c, 0, 76, 0
2, 1740, Note_on_c, 0, 78, 77
2, 1752, Note_on_c, 0, 78, 0
2, 1752, Note_on_c, 0, 76, 77
2, 1773, Note_on_c, 0, 76, 0
2, 1776, Note_on_c, 0, 74, 77
2, 1821, Note_on_c, 0, 74, 0
2, 1824, Note_on_c, 0, 76, 77
2, 1836, Note_on_c, 0, 76, 0
2, 1836, Note_on_c, 0, 78, 77
2, 1848, Note_on_c, 0, 78, 0
2, 1848, Note_on_c, 0, 76, 77
2, 1869, Note_on_c, 0, 76, 0
2, 1872, Note_on_c, 0, 74, 77
2, 1917, Note_on_c, 0, 74, 0
2, 1920, Note_on_c, 0, 85, 77
2, 1926, Note_on_c, 0, 85, 0
2, 1926, Note_on_c, 0, 86, 93
2, 1968, Note_on_c, 0, 86, 0
2, 1968, Note_on_c, 0, 74, 77
2, 2013, Note_on_c, 0, 74, 0
2, 2016, Note_on_c, 0, 74, 77
2, 2061, Note_on_c, 0, 74, 0
2, 2064, Note_on_c, 0, 74, 77
2, 2109, Note_on_c, 0, 74, 0
2, 2112, Note_on_c, 0, 76, 77
2, 2124, Note_on_c, 0, 76, 0
2, 2124, Note_on_c, 0, 78, 77
2, 2136, Note_on_c, 0, 78, 0
2, 2136, Note_on_c, 0, 76, 77
2, 2157, Note_on_c, 0, 76, 0
2, 2160, Note_on_c, 0, 74, 77
2, 2205, Note_on_c, 0, 74, 0
2, 2208, Note_on_c, 0, 76, 77
2, 2220, Note_on_c, 0, 76, 0
2, 2220, Note_on_c, 0, 78, 77
2, 2232, Note_on_c, 0, 78, 0
2, 2232, Note_on_c, 0, 76, 77
2, 2253, Note_on_c, 0, 76, 0
2, 2256, Note_on_c, 0, 74, 77
2, 2301, Note_on_c, 0, 74, 0
2, 2304, Note_on_c, 0, 79, 77
2, 2324, Note_on_c, 0, 79, 0
2, 2352, Note_on_c, 0, 79, 77
2, 2400, Note_on_c, 0, 79, 0
2, 2400, Note_on_c, 0, 78, 77
2, 2420, Note_on_c, 0, 78, 0
2, 2448, Note_on_c, 0, 78, 77
2, 2496, Note_on_c, 0, 78, 0
2, 2496, Note_on_c, 0, 83, 77
2, 2516, Note_on_c, 0, 83, 0
2, 2544, Note_on_c, 0, 83, 77
2, 2592, Note_on_c, 0, 83, 0
2, 2592, Note_on_c, 0, 81, 77
2, 2612, Note_on_c, 0, 81, 0
2, 2640, Note_on_c, 0, 81, 77
2, 2685, Note_on_c, 0, 81, 0
2, 2736, Note_on_c, 0, 79, 77
2, 2736, Note_on_c, 0, 71, 77
2, 2781, Note_on_c, 0, 79, 0
2, 2781, Note_on_c, 0, 71, 0
2, 2784, Note_on_c, 0, 76, 74
2, 2784, Note_on_c, 0, 67, 74
2, 2829, Note_on_c, 0, 76, 0
2, 2829, Note_on_c, 0, 67, 0
2, 2832, Note_on_c, 0, 73, 71
2, 2832, Note_on_c, 0, 64, 71
2, 2877, Note_on_c, 0, 73, 0
2, 2877, Note_on_c, 0, 64, 0
2, 2880, Note_on_c, 0, 74, 69
2, 2880, Note_on_c, 0, 66, 69
2, 2969, Note_on_c, 0, 74, 0
2, 2969, Note_on_c, 0, 66, 0
2, 3072, Note_on_c, 0, 62, 84
2, 3095, Note_on_c, 0, 62, 0
2, 3096, Note_on_c, 0, 57, 84
2, 3119, Note_on_c, 0, 57, 0
2, 3120, Note_on_c, 0, 54, 84
2, 3143, Note_on_c, 0, 54, 0
2, 3144, Note_on_c, 0, 57, 84
2, 3167, Note_on_c, 0, 57, 0
2, 3168, Note_on_c, 0, 62, 84
2, 3191, Note_on_c, 0, 62, 0
2, 3192, Note_on_c, 0, 57, 84
2, 3215, Note_on_c, 0, 57, 0
2, 3216, Note_on_c, 0, 64, 84
2, 3239, Note_on_c, 0, 64, 0
2, 3240, Note_on_c, 0, 57, 84
2, 3263, Note_on_c, 0, 57, 0
2, 3264, Note_on_c, 0, 66, 84
2, 3287, Note_on_c, 0, 66, 0
2, 3288, Note_on_c, 0, 57, 84
2, 3311, Note_on_c, 0, 57, 0
2, 3312, Note_on_c, 0, 67, 84
2, 3335, Note_on_c, 0, 67, 0
2, 3336, Note_on_c, 0, 57, 84
2, 3359, Note_on_c, 0, 57, 0
2, 3360, Note_on_c, 0, 69, 84
2, 3383, Note_on_c, 0, 69, 0
2, 3384, Note_on_c, 0, 57, 84
2, 3407, Note_on_c, 0, 57, 0
2, 3408, Note_on_c, 0, 67, 84
2, 3431, Note_on_c, 0, 67, 0
2, 3432, Note_on_c, 0, 57, 84
2, 3455, Note_on_c, 0, 57, 0
2, 3456, Note_on_c, 0, 66, 84
2, 3479, Note_on_c, 0, 66, 0
2, 3480, Note_on_c, 0, 62, 84
2, 3503, Note_on_c, 0, 62, 0
2, 3504, Note_on_c, 0, 57, 84
2, 3527, Note_on_c, 0, 57, 0
2, 3528, Note_on_c, 0, 62, 84
2, 3551, Note_on_c, 0, 62, 0
2, 3552, Note_on_c, 0, 66, 84
2, 3575, Note_on_c, 0, 66, 0
2, 3576, Note_on_c, 0, 62, 84
2, 3599, Note_on_c, 0, 62, 0
2, 3600, Note_on_c, 0, 67, 84
2, 3623, Note_on_c, 0, 67, 0
2, 3624, Note_on_c, 0, 62, 84
2, 3647, Note_on_c, 0, 62, 0
2, 3648, Note_on_c, 0, 69, 84
2, 3671, Note_on_c, 0, 69, 0
2, 3672, Note_on_c, 0, 62, 84
2, 3695, Note_on_c, 0, 62, 0
2, 3696, Note_on_c, 0, 71, 84
2, 3719, Note_on_c, 0, 71, 0
2, 3720, Note_on_c, 0, 62, 84
2, 3743, Note_on_c, 0, 62, 0
2, 3744, Note_on_c, 0, 69, 84
2, 3767, Note_on_c, 0, 69, 0
2, 3768, Note_on_c, 0, 62, 84
2, 3791, Note_on_c, 0, 62, 0
2, 3792, Note_on_c, 0, 73, 84
2, 3815, Note_on_c, 0, 73, 0
2, 3816, Note_on_c, 0, 62, 84
2, 3839, Note_on_c, 0, 62, 0
2, 3840, Note_on_c, 0, 74, 84
2, 3863, Note_on_c, 0, 74, 0
2, 3864, Note_on_c, 0, 69, 84
2, 3887, Note_on_c, 0, 69, 0
2, 3888, Note_on_c, 0, 66, 84
2, 3911, Note_on_c, 0, 66, 0
2, 3912, Note_on_c, 0, 69, 84
2, 3935, Note_on_c, 0, 69, 0
2, 3936, Note_on_c, 0, 74, 84
2, 3959, Note_on_c, 0, 74, 0
2, 3960, Note_on_c, 0, 69, 84
2, 3983, Note_on_c, 0, 69, 0
2, 3984, Note_on_c, 0, 76, 84
2, 4007, Note_on_c, 0, 76, 0
2, 4008, Note_on_c, 0, 69, 84
2, 4031, Note_on_c, 0, 69, 0
2, 4032, Note_on_c, 0, 78, 84
2, 4055, Note_on_c, 0, 78, 0
2, 4056, Note_on_c, 0, 69, 84
2, 4079, Note_on_c, 0, 69, 0
2, 4080, Note_on_c, 0, 79, 84
2, 4103, Note_on_c, 0, 79, 0
2, 4104, Note_on_c, 0, 69, 84
2, 4127, Note_on_c, 0, 69, 0
2, 4128, Note_on_c, 0, 81, 84
2, 4151, Note_on_c, 0, 81, 0
2, 4152, Note_on_c, 0, 69, 84
2, 4175, Note_on_c, 0, 69, 0
2, 4176, Note_on_c, 0, 79, 84
2, 4199, Note_on_c, 0, 79, 0
2, 4200, Note_on_c, 0, 69, 84
2, 4223, Note_on_c, 0, 69, 0
2, 4224, Note_on_c, 0, 78, 84
2, 4247, Note_on_c, 0, 78, 0
2, 4248, Note_on_c, 0, 74, 84
2, 4271, Note_on_c, 0, 74, 0
2, 4272, Note_on_c, 0, 69, 84
2, 4295, Note_on_c, 0, 69, 0
2, 4296, Note_on_c, 0, 74, 84
2, 4319, Note_on_c, 0, 74, 0
2, 4320, Note_on_c, 0, 78, 84
2, 4343, Note_on_c, 0, 78, 0
2, 4344, Note_on_c, 0, 74, 84
2, 4367, Note_on_c, 0, 74, 0
2, 4368, Note_on_c, 0, 79, 84
2, 4391, Note_on_c, 0, 79, 0
2, 4392, Note_on_c, 0, 74, 84
2, 4415, Note_on_c, 0, 74, 0
2, 4416, Note_on_c, 0, 81, 84
2, 4439, Note_on_c, 0, 81, 0
2, 4440, Note_on_c, 0, 74, 84
2, 4463, Note_on_c, 0, 74, 0
2, 4464, Note_on_c, 0, 83, 84
2, 4487, Note_on_c, 0, 83, 0
2, 4488, Note_on_c, 0, 74, 84
2, 4511, Note_on_c, 0, 74, 0
2, 4512, Note_on_c, 0, 81, 84
2, 4535, Note_on_c, 0, 81, 0
2, 4536, Note_on_c, 0, 74, 84
2, 4559, Note_on_c, 0, 74, 0
2, 4560, Note_on_c, 0, 79, 84
2, 4583, Note_on_c, 0, 79, 0
2, 4584, Note_on_c, 0, 74, 84
2, 4607, Note_on_c, 0, 74, 0
2, 4608, Note_on_c, 0, 78, 84
2, 4631, Note_on_c, 0, 78, 0
2, 4632, Note_on_c, 0, 74, 84
2, 4655, Note_on_c, 0, 74, 0
2, 4656, Note_on_c, 0, 73, 84
2, 4679, Note_on_c, 0, 73, 0
2, 4680, Note_on_c, 0, 74, 84
2, 4703, Note_on_c, 0, 74, 0
2, 4704, Note_on_c, 0, 83, 84
2, 4727, Note_on_c, 0, 83, 0
2, 4728, Note_on_c, 0, 74, 84
2, 4751, Note_on_c, 0, 74, 0
2, 4752, Note_on_c, 0, 73, 84
2, 4775, Note_on_c, 0, 73, 0
2, 4776, Note_on_c, 0, 74, 84
2, 4799, Note_on_c, 0, 74, 0
2, 4800, Note_on_c, 0, 81, 84
2, 4823, Note_on_c, 0, 81, 0
2, 4824, Note_on_c, 0, 74, 84
2, 4847, Note_on_c, 0, 74, 0
2, 4848, Note_on_c, 0, 73, 84
2, 4871, Note_on_c, 0, 73, 0
2, 4872, Note_on_c, 0, 74, 84
2, 4895, Note_on_c, 0, 74, 0
2, 4896, Note_on_c, 0, 79, 84
2, 4919, Note_on_c, 0, 79, 0
2, 4920, Note_on_c, 0, 74, 84
2, 4943, Note_on_c, 0, 74, 0
2, 4944, Note_on_c, 0, 73, 84
2, 4967, Note_on_c, 0, 73, 0
2, 4968, Note_on_c, 0, 74, 84
2, 4991, Note_on_c, 0, 74, 0
2, 4992, Note_on_c, 0, 78, 84
2, 5015, Note_on_c, 0, 78, 0
2, 5016, Note_on_c, 0, 74, 84
2, 5039, Note_on_c, 0, 74, 0
2, 5040, Note_on_c, 0, 73, 84
2, 5063, Note_on_c, 0, 73, 0
2, 5064, Note_on_c, 0, 74, 84
2, 5087, Note_on_c, 0, 74, 0
2, 5088, Note_on_c, 0, 83, 84
2, 5111, Note_on_c, 0, 83, 0
2, 5112, Note_on_c, 0, 74, 84
2, 5135, Note_on_c, 0, 74, 0
2, 5136, Note_on_c, 0, 73, 84
2, 5159, Note_on_c, 0, 73, 0
2, 5160, Note_on_c, 0, 74, 84
2, 5183, Note_on_c, 0, 74, 0
2, 5184, Note_on_c, 0, 81, 84
2, 5207, Note_on_c, 0, 81, 0
2, 5208, Note_on_c, 0, 74, 84
2, 5231, Note_on_c, 0, 74, 0
2, 5232, Note_on_c, 0, 73, 84
2, 5255, Note_on_c, 0, 73, 0
2, 5256, Note_on_c, 0, 74, 84
2, 5279, Note_on_c, 0, 74, 0
2, 5280, Note_on_c, 0, 79, 84
2, 5303, Note_on_c, 0, 79, 0
2, 5304, Note_on_c, 0, 74, 84
2, 5327, Note_on_c, 0, 74, 0
2, 5328, Note_on_c, 0, 73, 84
2, 5351, Note_on_c, 0, 73, 0
2, 5352, Note_on_c, 0, 74, 84
2, 5375, Note_on_c, 0, 74, 0
2, 5376, Note_on_c, 0, 78, 91
2, 5399, Note_on_c, 0, 78, 0
2, 5400, Note_on_c, 0, 74, 91
2, 5423, Note_on_c, 0, 74, 0
2, 5424, Note_on_c, 0, 76, 91
2, 5447, Note_on_c, 0, 76, 0
2, 5448, Note_on_c, 0, 78, 91
2, 5471, Note_on_c, 0, 78, 0
2, 5472, Note_on_c, 0, 79, 91
2, 5495, Note_on_c, 0, 79, 0
2, 5496, Note_on_c, 0, 81, 91
2, 5519, Note_on_c, 0, 81, 0
2, 5520, Note_on_c, 0, 83, 91
2, 5543, Note_on_c, 0, 83, 0
2, 5544, Note_on_c, 0, 85, 91
2, 5567, Note_on_c, 0, 85, 0
2, 5568, Note_on_c, 0, 86, 91
2, 5591, Note_on_c, 0, 86, 0
2, 5592, Note_on_c, 0, 85, 91
2, 5615, Note_on_c, 0, 85, 0
2, 5616, Note_on_c, 0, 86, 91
2, 5639, Note_on_c, 0, 86, 0
2, 5640, Note_on_c, 0, 85, 91
2, 5663, Note_on_c, 0, 85, 0
2, 5664, Note_on_c, 0, 86, 91
2, 5687, Note_on_c, 0, 86, 0
2, 5688, Note_on_c, 0, 81, 91
2, 5711, Note_on_c, 0, 81, 0
2, 5712, Note_on_c, 0, 78, 91
2, 5735, Note_on_c, 0, 78, 0
2, 5736, Note_on_c, 0, 74, 91
2, 5759, Note_on_c, 0, 74, 0
2, 5760, Note_on_c, 0, 81, 91
2, 5849, Note_on_c, 0, 81, 0
2, 5856, Note_on_c, 0, 69, 84
2, 5856, Note_on_c, 0, 61, 84
2, 5923, Note_on_c, 0, 69, 0
2, 5923, Note_on_c, 0, 61, 0
2, 5928, Note_on_c, 0, 69, 84
2, 5928, Note_on_c, 0, 61, 84
2, 5951, Note_on_c, 0, 69, 0
2, 5951, Note_on_c, 0, 61, 0
2, 5952, Note_on_c, 0, 69, 84
2, 5952, Note_on_c, 0, 61, 84
2, 6041, Note_on_c, 0, 69, 0
2, 6041, Note_on_c, 0, 61, 0
2, 6144, Note_on_c, 0, 83, 77
2, 6150, Note_on_c, 0, 83, 0
2, 6150, Note_on_c, 0, 81, 77
2, 6167, Note_on_c, 0, 81, 0
2, 6168, Note_on_c, 0, 80, 77
2, 6191, Note_on_c, 0, 80, 0
2, 6192, Note_on_c, 0, 81, 77
2, 6215, Note_on_c, 0, 81, 0
2, 6216, Note_on_c, 0, 83, 77
2, 6239, Note_on_c, 0, 83, 0
2, 6240, Note_on_c, 0, 81, 77
2, 6285, Note_on_c, 0, 81, 0
2, 6336, Note_on_c, 0, 80, 77
2, 6342, Note_on_c, 0, 80, 0
2, 6342, Note_on_c, 0, 78, 77
2, 6359, Note_on_c, 0, 78, 0
2, 6360, Note_on_c, 0, 77, 77
2, 6383, Note_on_c, 0, 77, 0
2, 6384, Note_on_c, 0, 78, 77
2, 6407, Note_on_c, 0, 78, 0
2, 6408, Note_on_c, 0, 80, 77
2, 6431, Note_on_c, 0, 80, 0
2, 6432, Note_on_c, 0, 78, 77
2, 6477, Note_on_c, 0, 78, 0
2, 6528, Note_on_c, 0, 88, 77
2, 6534, Note_on_c, 0, 88, 0
2, 6534, Note_on_c, 0, 86, 77
2, 6551, Note_on_c, 0, 86, 0
2, 6552, Note_on_c, 0, 85, 77
2, 6575, Note_on_c, 0, 85, 0
2, 6576, Note_on_c, 0, 86, 77
2, 6599, Note_on_c, 0, 86, 0
2, 6600, Note_on_c, 0, 88, 77
2, 6623, Note_on_c, 0, 88, 0
2, 6624, Note_on_c, 0, 86, 77
2, 6669, Note_on_c, 0, 86, 0
2, 6720, Note_on_c, 0, 86, 77
2, 6726, Note_on_c, 0, 86, 0
2, 6726, Note_on_c, 0, 85, 77
2, 6743, Note_on_c, 0, 85, 0
2, 6744, Note_on_c, 0, 83, 77
2, 6767, Note_on_c, 0, 83, 0
2, 6768, Note_on_c, 0, 85, 77
2, 6791, Note_on_c, 0, 85, 0
2, 6792, Note_on_c, 0, 86, 77
2, 6815, Note_on_c, 0, 86, 0
2, 6816, Note_on_c, 0, 85, 77
2, 6861, Note_on_c, 0, 85, 0
2, 6912, Note_on_c, 0, 85, 77
2, 6918, Note_on_c, 0, 85, 0
2, 6918, Note_on_c, 0, 83, 77
2, 6935, Note_on_c, 0, 83, 0
2, 6936, Note_on_c, 0, 82, 77
2, 6959, Note_on_c, 0, 82, 0
2, 6960, Note_on_c, 0, 83, 77
2, 6983, Note_on_c, 0, 83, 0
2, 6984, Note_on_c, 0, 85, 77
2, 7007, Note_on_c, 0, 85, 0
2, 7008, Note_on_c, 0, 83, 77
2, 7053, Note_on_c, 0, 83, 0
2, 7104, Note_on_c, 0, 74, 77
2, 7104, Note_on_c, 0, 71, 77
2, 7149, Note_on_c, 0, 74, 0
2, 7149, Note_on_c, 0, 71, 0
2, 7152, Note_on_c, 0, 86, 77
2, 7152, Note_on_c, 0, 83, 77
2, 7197, Note_on_c, 0, 86, 0
2, 7197, Note_on_c, 0, 83, 0
2, 7200, Note_on_c, 0, 86, 77
2, 7200, Note_on_c, 0, 83, 77
2, 7245, Note_on_c, 0, 86, 0
2, 7245, Note_on_c, 0, 83, 0
2, 7248, Note_on_c, 0, 85, 77
2, 7248, Note_on_c, 0, 82, 77
2, 7293, Note_on_c, 0, 85, 0
2, 7293, Note_on_c, 0, 82, 0
2, 7296, Note_on_c, 0, 85, 77
2, 7302, Note_on_c, 0, 85, 0
2, 7302, Note_on_c, 0, 83, 77
2, 7319, Note_on_c, 0, 83, 0
2, 7320, Note_on_c, 0, 82, 77
2, 7343, Note_on_c, 0, 82, 0
2, 7344, Note_on_c, 0, 83, 77
2, 7367, Note_on_c, 0, 83, 0
2, 7368, Note_on_c, 0, 85, 77
2, 7391, Note_on_c, 0, 85, 0
2, 7392, Note_on_c, 0, 83, 77
2, 7437, Note_on_c, 0, 83, 0
2, 7488, Note_on_c, 0, 74, 77
2, 7488, Note_on_c, 0, 71, 77
2, 7533, Note_on_c, 0, 74, 0
2, 7533, Note_on_c, 0, 71, 0
2, 7536, Note_on_c, 0, 86, 77
2, 7536, Note_on_c, 0, 83, 77
2, 7581, Note_on_c, 0, 86, 0
2, 7581, Note_on_c, 0, 83, 0
2, 7584, Note_on_c, 0, 86, 77
2, 7584, Note_on_c, 0, 83, 77
2, 7629, Note_on_c, 0, 86, 0
2, 7629, Note_on_c, 0, 83, 0
2, 7632, Note_on_c, 0, 85, 77
2, 7632, Note_on_c, 0, 82, 77
2, 7677, Note_on_c, 0, 85, 0
2, 7677, Note_on_c, 0, 82, 0
2, 7680, Note_on_c, 0, 85, 77
2, 7686, Note_on_c, 0, 85, 0
2, 7686, Note_on_c, 0, 83, 77
2, 7703, Note_on_c, 0, 83, 0
2, 7704, Note_on_c, 0, 82, 77
2, 7727, Note_on_c, 0, 82, 0
2, 7728, Note_on_c, 0, 83, 78
2, 7751, Note_on_c, 0, 83, 0
2, 7752, Note_on_c, 0, 85, 78
2, 7775, Note_on_c, 0, 85, 0
2, 7776, Note_on_c, 0, 83, 79
2, 7821, Note_on_c, 0, 83, 0
2, 7872, Note_on_c, 0, 83, 81
2, 7878, Note_on_c, 0, 83, 0
2, 7878, Note_on_c, 0, 81, 81
2, 7895, Note_on_c, 0, 81, 0
2, 7896, Note_on_c, 0, 80, 81
2, 7919, Note_on_c, 0, 80, 0
2, 7920, Note_on_c, 0, 81, 82
2, 7943, Note_on_c, 0, 81, 0
2, 7944, Note_on_c, 0, 83, 82
2, 7967, Note_on_c, 0, 83, 0
2, 7968, Note_on_c, 0, 81, 83
2, 8013, Note_on_c, 0, 81, 0
2, 8064, Note_on_c, 0, 88, 100
2, 8112, Note_on_c, 0, 88, 0
2, 8112, Note_on_c, 0, 76, 84
2, 8157, Note_on_c, 0, 76, 0
2, 8160, Note_on_c, 0, 76, 84
2, 8205, Note_on_c, 0, 76, 0
2, 8208, Note_on_c, 0, 76, 84
2, 8253, Note_on_c, 0, 76, 0
2, 8256, Note_on_c, 0, 76, 84
2, 8279, Note_on_c, 0, 76, 0
2, 8280, Note_on_c, 0, 78, 84
2, 8303, Note_on_c, 0, 78, 0
2, 8304, Note_on_c, 0, 76, 84
2, 8327, Note_on_c, 0, 76, 0
2, 8328, Note_on_c, 0, 74, 84
2, 8351, Note_on_c, 0, 74, 0
2, 8352, Note_on_c, 0, 73, 84
2, 8375, Note_on_c, 0, 73, 0
2, 8376, Note_on_c, 0, 71, 84
2, 8399, Note_on_c, 0, 71, 0
2, 8400, Note_on_c, 0, 69, 84
2, 8423, Note_on_c, 0, 69, 0
2, 8424, Note_on_c, 0, 68, 84
2, 8447, Note_on_c, 0, 68, 0
2, 8448, Note_on_c, 0, 69, 84
2, 8471, Note_on_c, 0, 69, 0
2, 8472, Note_on_c, 0, 73, 84
2, 8495, Note_on_c, 0, 73, 0
2, 8496, Note_on_c, 0, 71, 84
2, 8519, Note_on_c, 0, 71, 0
2, 8520, Note_on_c, 0, 74, 84
2, 8543, Note_on_c, 0, 74, 0
2, 8544, Note_on_c, 0, 73, 84
2, 8567, Note_on_c, 0, 73, 0
2, 8568, Note_on_c, 0, 76, 84
2, 8591, Note_on_c, 0, 76, 0
2, 8592, Note_on_c, 0, 74, 84
2, 8615, Note_on_c, 0, 74, 0
2, 8616, Note_on_c, 0, 78, 84
2, 8639, Note_on_c, 0, 78, 0
2, 8640, Note_on_c, 0, 76, 84
2, 8685, Note_on_c, 0, 76, 0
2, 8688, Note_on_c, 0, 78, 84
2, 8711, Note_on_c, 0, 78, 0
2, 8712, Note_on_c, 0, 80, 84
2, 8735, Note_on_c, 0, 80, 0
2, 8736, Note_on_c, 0, 81, 84
2, 8759, Note_on_c, 0, 81, 0
2, 8760, Note_on_c, 0, 83, 84
2, 8783, Note_on_c, 0, 83, 0
2, 8784, Note_on_c, 0, 85, 84
2, 8807, Note_on_c, 0, 85, 0
2, 8808, Note_on_c, 0, 86, 84
2, 8831, Note_on_c, 0, 86, 0
2, 8832, Note_on_c, 0, 88, 100
2, 8880, Note_on_c, 0, 88, 0
2, 8880, Note_on_c, 0, 76, 84
2, 8925, Note_on_c, 0, 76, 0
2, 8928, Note_on_c, 0, 76, 84
2, 8973, Note_on_c, 0, 76, 0
2, 8976, Note_on_c, 0, 76, 84
2, 9021, Note_on_c, 0, 76, 0
2, 9024, Note_on_c, 0, 76, 84
2, 9047, Note_on_c, 0, 76, 0
2, 9048, Note_on_c, 0, 78, 84
2, 9071, Note_on_c, 0, 78, 0
2, 9072, Note_on_c, 0, 76, 84
2, 9095, Note_on_c, 0, 76, 0
2, 9096, Note_on_c, 0, 74, 84
2, 9119, Note_on_c, 0, 74, 0
2, 9120, Note_on_c, 0, 73, 84
2, 9143, Note_on_c, 0, 73, 0
2, 9144, Note_on_c, 0, 71, 84
2, 9167, Note_on_c, 0, 71, 0
2, 9168, Note_on_c, 0, 69, 84
2, 9191, Note_on_c, 0, 69, 0
2, 9192, Note_on_c, 0, 68, 84
2, 9215, Note_on_c, 0, 68, 0
2, 9216, Note_on_c, 0, 69, 84
2, 9239, Note_on_c, 0, 69, 0
2, 9240, Note_on_c, 0, 73, 84
2, 9263, Note_on_c, 0, 73, 0
2, 9264, Note_on_c, 0, 71, 84
2, 9287, Note_on_c, 0, 71, 0
2, 9288, Note_on_c, 0, 74, 84
2, 9311, Note_on_c, 0, 74, 0
2, 9312, Note_on_c, 0, 73, 84
2, 9335, Note_on_c, 0, 73, 0
2, 9336, Note_on_c, 0, 76, 84
2, 9359, Note_on_c, 0, 76, 0
2, 9360, Note_on_c, 0, 74, 84
2, 9383, Note_on_c, 0, 74, 0
2, 9384, Note_on_c, 0, 78, 84
2, 9407, Note_on_c, 0, 78, 0
2, 9408, Note_on_c, 0, 76, 84
2, 9453, Note_on_c, 0, 76, 0
2, 9456, Note_on_c, 0, 78, 84
2, 9479, Note_on_c, 0, 78, 0
2, 9480, Note_on_c, 0, 80, 84
2, 9503, Note_on_c, 0, 80, 0
2, 9504, Note_on_c, 0, 81, 84
2, 9527, Note_on_c, 0, 81, 0
2, 9528, Note_on_c, 0, 83, 84
2, 9551, Note_on_c, 0, 83, 0
2, 9552, Note_on_c, 0, 85, 84
2, 9575, Note_on_c, 0, 85, 0
2, 9576, Note_on_c, 0, 86, 84
2, 9599, Note_on_c, 0, 86, 0
2, 9600, Note_on_c, 0, 88, 100
2, 9624, Note_on_c, 0, 88, 0
2, 9624, Note_on_c, 0, 78, 84
2, 9647, Note_on_c, 0, 78, 0
2, 9648, Note_on_c, 0, 77, 84
2, 9671, Note_on_c, 0, 77, 0
2, 9672, Note_on_c, 0, 78, 84
2, 9695, Note_on_c, 0, 78, 0
2, 9696, Note_on_c, 0, 77, 84
2, 9719, Note_on_c, 0, 77, 0
2, 9720, Note_on_c, 0, 78, 84
2, 9743, Note_on_c, 0, 78, 0
2, 9744, Note_on_c, 0, 77, 84
2, 9767, Note_on_c, 0, 77, 0
2, 9768, Note_on_c, 0, 78, 84
2, 9791, Note_on_c, 0, 78, 0
2, 9792, Note_on_c, 0, 86, 100
2, 9816, Note_on_c, 0, 86, 0
2, 9816, Note_on_c, 0, 74, 84
2, 9839, Note_on_c, 0, 74, 0
2, 9840, Note_on_c, 0, 73, 84
2, 9863, Note_on_c, 0, 73, 0
2, 9864, Note_on_c, 0, 74, 84
2, 9887, Note_on_c, 0, 74, 0
2, 9888, Note_on_c, 0, 73, 84
2, 9911, Note_on_c, 0, 73, 0
2, 9912, Note_on_c, 0, 74, 84
2, 9935, Note_on_c, 0, 74, 0
2, 9936, Note_on_c, 0, 73, 84
2, 9959, Note_on_c, 0, 73, 0
2, 9960, Note_on_c, 0, 74, 84
2, 9983, Note_on_c, 0, 74, 0
2, 9984, Note_on_c, 0, 86, 100
2, 10008, Note_on_c, 0, 86, 0
2, 10008, Note_on_c, 0, 83, 84
2, 10031, Note_on_c, 0, 83, 0
2, 10032, Note_on_c, 0, 82, 84
2, 10055, Note_on_c, 0, 82, 0
2, 10056, Note_on_c, 0, 83, 84
2, 10079, Note_on_c, 0, 83, 0
2, 10080, Note_on_c, 0, 82, 84
2, 10103, Note_on_c, 0, 82, 0
2, 10104, Note_on_c, 0, 83, 84
2, 10127, Note_on_c, 0, 83, 0
2, 10128, Note_on_c, 0, 82, 84
2, 10151, Note_on_c, 0, 82, 0
2, 10152, Note_on_c, 0, 83, 84
2, 10175, Note_on_c, 0, 83, 0
2, 10176, Note_on_c, 0, 85, 100
2, 10200, Note_on_c, 0, 85, 0
2, 10200, Note_on_c, 0, 81, 84
2, 10223, Note_on_c, 0, 81, 0
2, 10224, Note_on_c, 0, 80, 84
2, 10247, Note_on_c, 0, 80, 0
2, 10248, Note_on_c, 0, 81, 84
2, 10271, Note_on_c, 0, 81, 0
2, 10272, Note_on_c, 0, 80, 84
2, 10295, Note_on_c, 0, 80, 0
2, 10296, Note_on_c, 0, 81, 84
2, 10319, Note_on_c, 0, 81, 0
2, 10320, Note_on_c, 0, 80, 84
2, 10343, Note_on_c, 0, 80, 0
2, 10344, Note_on_c, 0, 81, 84
2, 10367, Note_on_c, 0, 81, 0
2, 10368, Note_on_c, 0, 86, 100
2, 10392, Note_on_c, 0, 86, 0
2, 10392, Note_on_c, 0, 83, 84
2, 10415, Note_on_c, 0, 83, 0
2, 10416, Note_on_c, 0, 82, 84
2, 10439, Note_on_c, 0, 82, 0
2, 10440, Note_on_c, 0, 83, 84
2, 10463, Note_on_c, 0, 83, 0
2, 10464, Note_on_c, 0, 85, 100
2, 10488, Note_on_c, 0, 85, 0
2, 10488, Note_on_c, 0, 81, 84
2, 10511, Note_on_c, 0, 81, 0
2, 10512, Note_on_c, 0, 80, 84
2, 10535, Note_on_c, 0, 80, 0
2, 10536, Note_on_c, 0, 81, 84
2, 10559, Note_on_c, 0, 81, 0
2, 10560, Note_on_c, 0, 86, 100
2, 10584, Note_on_c, 0, 86, 0
2, 10584, Note_on_c, 0, 83, 84
2, 10607, Note_on_c, 0, 83, 0
2, 10608, Note_on_c, 0, 82, 84
2, 10631, Note_on_c, 0, 82, 0
2, 10632, Note_on_c, 0, 83, 84
2, 10655, Note_on_c, 0, 83, 0
2, 10656, Note_on_c, 0, 85, 100
2, 10680, Note_on_c, 0, 85, 0
2, 10680, Note_on_c, 0, 81, 84
2, 10703, Note_on_c, 0, 81, 0
2, 10704, Note_on_c, 0, 80, 84
2, 10727, Note_on_c, 0, 80, 0
2, 10728, Note_on_c, 0, 81, 84
2, 10751, Note_on_c, 0, 81, 0
2, 10752, Note_on_c, 0, 86, 93
2, 10776, Note_on_c, 0, 86, 0
2, 10776, Note_on_c, 0, 83, 77
2, 10799, Note_on_c, 0, 83, 0
2, 10800, Note_on_c, 0, 82, 77
2, 10823, Note_on_c, 0, 82, 0
2, 10824, Note_on_c, 0, 83, 77
2, 10847, Note_on_c, 0, 83, 0
2, 10848, Note_on_c, 0, 84, 93
2, 10872, Note_on_c, 0, 84, 0
2, 10872, Note_on_c, 0, 81, 77
2, 10895, Note_on_c, 0, 81, 0
2, 10896, Note_on_c, 0, 80, 77
2, 10919, Note_on_c, 0, 80, 0
2, 10920, Note_on_c, 0, 81, 77
2, 10943, Note_on_c, 0, 81, 0
2, 10944, Note_on_c, 0, 86, 93
2, 10968, Note_on_c, 0, 86, 0
2, 10968, Note_on_c, 0, 83, 77
2, 10991, Note_on_c, 0, 83, 0
2, 10992, Note_on_c, 0, 82, 77
2, 11015, Note_on_c, 0, 82, 0
2, 11016, Note_on_c, 0, 83, 77
2, 11039, Note_on_c, 0, 83, 0
2, 11040, Note_on_c, 0, 84, 93
2, 11064, Note_on_c, 0, 84, 0
2, 11064, Note_on_c, 0, 81, 77
2, 11087, Note_on_c, 0, 81, 0
2, 11088, Note_on_c, 0, 80, 77
2, 11111, Note_on_c, 0, 80, 0
2, 11112, Note_on_c, 0, 81, 77
2, 11135, Note_on_c, 0, 81, 0
2, 11160, Control_c, 0, 64, 127
2, 11160, Note_on_c, 0, 89, 107
2, 11184, Note_on_c, 0, 89, 0
2, 11184, Note_on_c, 0, 86, 91
2, 11207, Note_on_c, 0, 86, 0
2, 11208, Note_on_c, 0, 89, 91
2, 11231, Note_on_c, 0, 89, 0
2, 11232, Note_on_c, 0, 82, 91
2, 11255, Note_on_c, 0, 82, 0
2, 11256, Note_on_c, 0, 86, 91
2, 11279, Note_on_c, 0, 86, 0
2, 11280, Note_on_c, 0, 77, 91
2, 11303, Note_on_c, 0, 77, 0
2, 11304, Note_on_c, 0, 82, 91
2, 11327, Note_on_c, 0, 82, 0
2, 11328, Note_on_c, 0, 74, 91
2, 11373, Note_on_c, 0, 74, 0
2, 11448, Note_on_c, 0, 74, 91
2, 11471, Note_on_c, 0, 74, 0
2, 11472, Note_on_c, 0, 77, 91
2, 11495, Note_on_c, 0, 77, 0
2, 11496, Note_on_c, 0, 82, 91
2, 11519, Note_on_c, 0, 82, 0
2, 11520, Note_on_c, 0, 86, 91
2, 11543, Note_on_c, 0, 86, 0
2, 11544, Note_on_c, 0, 77, 91
2, 11567, Note_on_c, 0, 77, 0
2, 11568, Note_on_c, 0, 82, 91
2, 11591, Note_on_c, 0, 82, 0
2, 11592, Note_on_c, 0, 86, 91
2, 11615, Note_on_c, 0, 86, 0
2, 11616, Note_on_c, 0, 89, 91
2, 11639, Note_on_c, 0, 89, 0
2, 11640, Note_on_c, 0, 77, 91
2, 11663, Note_on_c, 0, 77, 0
2, 11664, Note_on_c, 0, 82, 91
2, 11687, Note_on_c, 0, 82, 0
2, 11688, Note_on_c, 0, 86, 91
2, 11711, Note_on_c, 0, 86, 0
2, 11712, Note_on_c, 0, 89, 91
2, 11757, Note_on_c, 0, 89, 0
2, 11808, Control_c, 0, 64, 0
2, 11928, Control_c, 0, 64, 127
2, 11928, Note_on_c, 0, 84, 91
2, 11951, Note_on_c, 0, 84, 0
2, 11952, Note_on_c, 0, 81, 91
2, 11975, Note_on_c, 0, 81, 0
2, 11976, Note_on_c, 0, 84, 91
2, 11999, Note_on_c, 0, 84, 0
2, 12000, Note_on_c, 0, 78, 91
2, 12023, Note_on_c, 0, 78, 0
2, 12024, Note_on_c, 0, 81, 91
2, 12047, Note_on_c, 0, 81, 0
2, 12048, Note_on_c, 0, 75, 91
2, 12071, Note_on_c, 0, 75, 0
2, 12072, Note_on_c, 0, 78, 91
2, 12095, Note_on_c, 0, 78, 0
2, 12096, Note_on_c, 0, 72, 91
2, 12119, Note_on_c, 0, 72, 0
2, 12120, Note_on_c, 0, 75, 91
2, 12143, Note_on_c, 0, 75, 0
2, 12144, Note_on_c, 0, 69, 91
2, 12167, Note_on_c, 0, 69, 0
2, 12168, Note_on_c, 0, 72, 91
2, 12191, Note_on_c, 0, 72, 0
2, 12192, Note_on_c, 0, 66, 91
2, 12215, Note_on_c, 0, 66, 0
2, 12216, Note_on_c, 0, 69, 91
2, 12239, Note_on_c, 0, 69, 0
2, 12240, Note_on_c, 0, 63, 91
2, 12263, Note_on_c, 0, 63, 0
2, 12264, Control_c, 0, 64, 0
2, 12264, Note_on_c, 0, 66, 91
2, 12287, Note_on_c, 0, 66, 0
2, 12336, Note_on_c, 0, 64, 84
2, 12356, Note_on_c, 0, 64, 0
2, 12384, Note_on_c, 0, 69, 84
2, 12404, Note_on_c, 0, 69, 0
2, 12432, Note_on_c, 0, 73, 84
2, 12452, Note_on_c, 0, 73, 0
2, 12480, Note_on_c, 0, 76, 84
2, 12500, Note_on_c, 0, 76, 0
2, 12528, Note_on_c, 0, 81, 84
2, 12548, Note_on_c, 0, 81, 0
2, 12576, Note_on_c, 0, 85, 84
2, 12596, Note_on_c, 0, 85, 0
2, 12624, Note_on_c, 0, 88, 84
2, 12644, Note_on_c, 0, 88, 0
2, 12864, Note_on_c, 0, 83, 84
2, 12882, Note_on_c, 0, 83, 0
2, 12882, Note_on_c, 0, 85, 84
2, 12900, Note_on_c, 0, 85, 0
2, 12900, Note_on_c, 0, 83, 84
2, 12918, Note_on_c, 0, 83, 0
2, 12918, Note_on_c, 0, 85, 84
2, 12936, Note_on_c, 0, 85, 0
2, 12936, Note_on_c, 0, 83, 84
2, 12954, Note_on_c, 0, 83, 0
2, 12954, Note_on_c, 0, 85, 84
2, 12972, Note_on_c, 0, 85, 0
2, 12972, Note_on_c, 0, 83, 84
2, 12990, Note_on_c, 0, 83, 0
2, 12990, Note_on_c, 0, 85, 84
2, 12997, Note_on_c, 0, 85, 0
2, 13008, Note_on_c, 0, 81, 84
2, 13031, Note_on_c, 0, 81, 0
2, 13032, Note_on_c, 0, 83, 84
2, 13055, Note_on_c, 0, 83, 0
2, 13056, Note_on_c, 0, 81, 84
2, 13101, Note_on_c, 0, 81, 0
2, 13152, Note_on_c, 0, 81, 84
2, 13152, Note_on_c, 0, 78, 84
2, 13172, Note_on_c, 0, 81, 0
2, 13172, Note_on_c, 0, 78, 0
2, 13200, Note_on_c, 0, 80, 84
2, 13200, Note_on_c, 0, 76, 84
2, 13220, Note_on_c, 0, 80, 0
2, 13220, Note_on_c, 0, 76, 0
2, 13248, Note_on_c, 0, 74, 84
2, 13248, Note_on_c, 0, 78, 84
2, 13260, Note_on_c, 0, 78, 0
2, 13260, Note_on_c, 0, 74, 0
2, 13260, Note_on_c, 0, 73, 84
2, 13260, Note_on_c, 0, 76, 84
2, 13272, Note_on_c, 0, 76, 0
2, 13272, Note_on_c, 0, 73, 0
2, 13272, Note_on_c, 0, 78, 84
2, 13272, Note_on_c, 0, 74, 84
2, 13293, Note_on_c, 0, 78, 0
2, 13293, Note_on_c, 0, 74, 0
2, 13344, Note_on_c, 0, 78, 84
2, 13344, Note_on_c, 0, 74, 84
2, 13364, Note_on_c, 0, 78, 0
2, 13364, Note_on_c, 0, 74, 0
2, 13392, Note_on_c, 0, 76, 84
2, 13392, Note_on_c, 0, 73, 84
2, 13412, Note_on_c, 0, 76, 0
2, 13412, Note_on_c, 0, 73, 0
2, 13440, Note_on_c, 0, 71, 84
2, 13440, Note_on_c, 0, 74, 84
2, 13452, Note_on_c, 0, 74, 0
2, 13452, Note_on_c, 0, 71, 0
2, 13452, Note_on_c, 0, 69, 84
2, 13452, Note_on_c, 0, 73, 84
2, 13464, Note_on_c, 0, 73, 0
2, 13464, Note_on_c, 0, 69, 0
2, 13464, Note_on_c, 0, 74, 84
2, 13464, Note_on_c, 0, 71, 84
2, 13485, Note_on_c, 0, 74, 0
2, 13485, Note_on_c, 0, 71, 0
2, 13536, Note_on_c, 0, 73, 77
2, 13536, Note_on_c, 0, 64, 77
2, 13581, Note_on_c, 0, 73, 0
2, 13581, Note_on_c, 0, 64, 0
2, 13584, Note_on_c, 0, 73, 77
2, 13584, Note_on_c, 0, 64, 77
2, 13629, Note_on_c, 0, 73, 0
2, 13629, Note_on_c, 0, 64, 0
2, 13632, Note_on_c, 0, 71, 77
2, 13632, Note_on_c, 0, 66, 77
2, 13677, Note_on_c, 0, 71, 0
2, 13677, Note_on_c, 0, 66, 0
2, 13728, Note_on_c, 0, 68, 77
2, 13728, Note_on_c, 0, 62, 77
2, 13773, Note_on_c, 0, 68, 0
2, 13773, Note_on_c, 0, 62, 0
2, 13776, Note_on_c, 0, 68, 77
2, 13776, Note_on_c, 0, 62, 77
2, 13821, Note_on_c, 0, 68, 0
2, 13821, Note_on_c, 0, 62, 0
2, 13824, Note_on_c, 0, 69, 77
2, 13824, Note_on_c, 0, 61, 77
2, 13869, Note_on_c, 0, 69, 0
2, 13869, Note_on_c, 0, 61, 0
2, 13920, Note_on_c, 0, 81, 84
2, 13943, Note_on_c, 0, 81, 0
2, 13944, Note_on_c, 0, 83, 84
2, 13967, Note_on_c, 0, 83, 0
2, 13968, Note_on_c, 0, 80, 84
2, 13991, Note_on_c, 0, 80, 0
2, 13992, Note_on_c, 0, 81, 84
2, 14015, Note_on_c, 0, 81, 0
2, 14016, Note_on_c, 0, 78, 84
2, 14036, Note_on_c, 0, 78, 0
2, 14112, Note_on_c, 0, 78, 84
2, 14135, Note_on_c, 0, 78, 0
2, 14136, Note_on_c, 0, 80, 84
2, 14159, Note_on_c, 0, 80, 0
2, 14160, Note_on_c, 0, 76, 84
2, 14183, Note_on_c, 0, 76, 0
2, 14184, Note_on_c, 0, 78, 84
2, 14207, Note_on_c, 0, 78, 0
2, 14208, Note_on_c, 0, 74, 84
2, 14228, Note_on_c, 0, 74, 0
2, 14304, Note_on_c, 0, 73, 77
2, 14304, Note_on_c, 0, 64, 77
2, 14349, Note_on_c, 0, 73, 0
2, 14349, Note_on_c, 0, 64, 0
2, 14352, Note_on_c, 0, 73, 77
2, 14352, Note_on_c, 0, 64, 77
2, 14397, Note_on_c, 0, 73, 0
2, 14397, Note_on_c, 0, 64, 0
2, 14400, Note_on_c, 0, 71, 77
2, 14400, Note_on_c, 0, 66, 77
2, 14445, Note_on_c, 0, 71, 0
2, 14445, Note_on_c, 0, 66, 0
2, 14448, Note_on_c, 0, 71, 77
2, 14448, Note_on_c, 0, 66, 77
2, 14493, Note_on_c, 0, 71, 0
2, 14493, Note_on_c, 0, 66, 0
2, 14496, Note_on_c, 0, 68, 77
2, 14496, Note_on_c, 0, 62, 77
2, 14541, Note_on_c, 0, 68, 0
2, 14541, Note_on_c, 0, 62, 0
2, 14544, Note_on_c, 0, 68, 77
2, 14544, Note_on_c, 0, 62, 77
2, 14589, Note_on_c, 0, 68, 0
2, 14589, Note_on_c, 0, 62, 0
2, 14592, Note_on_c, 0, 69, 84
2, 14615, Note_on_c, 0, 69, 0
2, 14616, Note_on_c, 0, 64, 84
2, 14639, Note_on_c, 0, 64, 0
2, 14640, Note_on_c, 0, 73, 84
2, 14663, Note_on_c, 0, 73, 0
2, 14664, Note_on_c, 0, 64, 84
2, 14687, Note_on_c, 0, 64, 0
2, 14688, Note_on_c, 0, 69, 84
2, 14711, Note_on_c, 0, 69, 0
2, 14712, Note_on_c, 0, 64, 84
2, 14735, Note_on_c, 0, 64, 0
2, 14736, Note_on_c, 0, 68, 84
2, 14759, Note_on_c, 0, 68, 0
2, 14760, Note_on_c, 0, 64, 84
2, 14783, Note_on_c, 0, 64, 0
2, 14784, Note_on_c, 0, 69, 84
2, 14807, Note_on_c, 0, 69, 0
2, 14808, Note_on_c, 0, 64, 84
2, 14831, Note_on_c, 0, 64, 0
2, 14832, Note_on_c, 0, 73, 84
2, 14855, Note_on_c, 0, 73, 0
2, 14856, Note_on_c, 0, 64, 84
2, 14879, Note_on_c, 0, 64, 0
2, 14880, Note_on_c, 0, 69, 84
2, 14903, Note_on_c, 0, 69, 0
2, 14904, Note_on_c, 0, 64, 84
2, 14927, Note_on_c, 0, 64, 0
2, 14928, Note_on_c, 0, 68, 84
2, 14951, Note_on_c, 0, 68, 0
2, 14952, Note_on_c, 0, 64, 84
2, 14975, Note_on_c, 0, 64, 0
2, 14976, Note_on_c, 0, 69, 84
2, 15021, Note_on_c, 0, 69, 0
2, 15072, Note_on_c, 0, 73, 84
2, 15072, Note_on_c, 0, 69, 84
2, 15144, Note_on_c, 0, 69, 0
2, 15144, Note_on_c, 0, 76, 84
2, 15167, Note_on_c, 0, 76, 0
2, 15167, Note_on_c, 0, 73, 0
2, 15168, Note_on_c, 0, 73, 84
2, 15168, Note_on_c, 0, 69, 84
2, 15213, Note_on_c, 0, 73, 0
2, 15213, Note_on_c, 0, 69, 0
2, 15360, Note_on_c, 0, 85, 77
2, 15366, Note_on_c, 0, 85, 0
2, 15366, Note_on_c, 0, 86, 93
2, 15408, Note_on_c, 0, 86, 0
2, 15408, Note_on_c, 0, 74, 77
2, 15453, Note_on_c, 0, 74, 0
2, 15456, Note_on_c, 0, 74, 77
2, 15501, Note_on_c, 0, 74, 0
2, 15504, Note_on_c, 0, 74, 77
2, 15549, Note_on_c, 0, 74, 0
2, 15552, Note_on_c, 0, 76, 77
2, 15564, Note_on_c, 0, 76, 0
2, 15564, Note_on_c, 0, 78, 77
2, 15576, Note_on_c, 0, 78, 0
2, 15576, Note_on_c, 0, 76, 77
2, 15597, Note_on_c, 0, 76, 0
2, 15600, Note_on_c, 0, 74, 77
2, 15645, Note_on_c, 0, 74, 0
2, 15648, Note_on_c, 0, 76, 77
2, 15660, Note_on_c, 0, 76, 0
2, 15660, Note_on_c, 0, 78, 77
2, 15672, Note_on_c, 0, 78, 0
2, 15672, Note_on_c, 0, 76, 77
2, 15693, Note_on_c, 0, 76, 0
2, 15696, Note_on_c, 0, 74, 77
2, 15741, Note_on_c, 0, 74, 0
2, 15744, Note_on_c, 0, 85, 77
2, 15750, Note_on_c, 0, 85, 0
2, 15750, Note_on_c, 0, 86, 93
2, 15792, Note_on_c, 0, 86, 0
2, 15792, Note_on_c, 0, 74, 77
2, 15837, Note_on_c, 0, 74, 0
2, 15840, Note_on_c, 0, 74, 77
2, 15885, Note_on_c, 0, 74, 0
2, 15888, Note_on_c, 0, 74, 77
2, 15933, Note_on_c, 0, 74, 0
2, 15936, Note_on_c, 0, 76, 77
2, 15948, Note_on_c, 0, 76, 0
2, 15948, Note_on_c, 0, 78, 77
2, 15960, Note_on_c, 0, 78, 0
2, 15960, Note_on_c, 0, 76, 77
2, 15981, Note_on_c, 0, 76, 0
2, 15984, Note_on_c, 0, 74, 77
2, 16029, Note_on_c, 0, 74, 0
2, 16032, Note_on_c, 0, 76, 77
2, 16044, Note_on_c, 0, 76, 0
2, 16044, Note_on_c, 0, 78, 77
2, 16056, Note_on_c, 0, 78, 0
2, 16056, Note_on_c, 0, 76, 77
2, 16077, Note_on_c, 0, 76, 0
2, 16080, Note_on_c, 0, 74, 77
2, 16125, Note_on_c, 0, 74, 0
2, 16128, Note_on_c, 0, 79, 77
2, 16175, Note_on_c, 0, 79, 0
2, 16176, Note_on_c, 0, 79, 77
2, 16224, Note_on_c, 0, 79, 0
2, 16224, Note_on_c, 0, 78, 77
2, 16244, Note_on_c, 0, 78, 0
2, 16272, Note_on_c, 0, 78, 77
2, 16320, Note_on_c, 0, 78, 0
2, 16320, Note_on_c, 0, 83, 77
2, 16340, Note_on_c, 0, 83, 0
2, 16368, Note_on_c, 0, 83, 77
2, 16416, Note_on_c, 0, 83, 0
2, 16416, Note_on_c, 0, 81, 77
2, 16436, Note_on_c, 0, 81, 0
2, 16464, Note_on_c, 0, 81, 77
2, 16509, Note_on_c, 0, 81, 0
2, 16512, Note_on_c, 0, 79, 77
2, 16557, Note_on_c, 0, 79, 0
2, 16560, Note_on_c, 0, 76, 77
2, 16605, Note_on_c, 0, 76, 0
2, 16608, Note_on_c, 0, 78, 77
2, 16653, Note_on_c, 0, 78, 0
2, 16656, Note_on_c, 0, 74, 77
2, 16701, Note_on_c, 0, 74, 0
2, 16704, Note_on_c, 0, 73, 77
2, 16727, Note_on_c, 0, 73, 0
2, 16728, Note_on_c, 0, 74, 77
2, 16751, Note_on_c, 0, 74, 0
2, 16752, Note_on_c, 0, 76, 77
2, 16775, Note_on_c, 0, 76, 0
2, 16776, Note_on_c, 0, 73, 77
2, 16799, Note_on_c, 0, 73, 0
2, 16800, Note_on_c, 0, 69, 77
2, 16845, Note_on_c, 0, 69, 0
2, 16896, Note_on_c, 0, 85, 77
2, 16902, Note_on_c, 0, 85, 0
2, 16902, Note_on_c, 0, 86, 93
2, 16944, Note_on_c, 0, 86, 0
2, 16944, Note_on_c, 0, 74, 77
2, 16989, Note_on_c, 0, 74, 0
2, 16992, Note_on_c, 0, 74, 77
2, 17037, Note_on_c, 0, 74, 0
2, 17040, Note_on_c, 0, 74, 77
2, 17085, Note_on_c, 0, 74, 0
2, 17088, Note_on_c, 0, 76, 77
2, 17100, Note_on_c, 0, 76, 0
2, 17100, Note_on_c, 0, 78, 77
2, 17112, Note_on_c, 0, 78, 0
2, 17112, Note_on_c, 0, 76, 77
2, 17133, Note_on_c, 0, 76, 0
2, 17136, Note_on_c, 0, 74, 77
2, 17181, Note_on_c, 0, 74, 0
2, 17184, Note_on_c, 0, 76, 77
2, 17196, Note_on_c, 0, 76, 0
2, 17196, Note_on_c, 0, 78, 77
2, 17208, Note_on_c, 0, 78, 0
2, 17208, Note_on_c, 0, 76, 77
2, 17229, Note_on_c, 0, 76, 0
2, 17232, Note_on_c, 0, 74, 77
2, 17277, Note_on_c, 0, 74, 0
2, 17280, Note_on_c, 0, 85, 77
2, 17286, Note_on_c, 0, 85, 0
2, 17286, Note_on_c, 0, 86, 93
2, 17328, Note_on_c, 0, 86, 0
2, 17328, Note_on_c, 0, 74, 77
2, 17373, Note_on_c, 0, 74, 0
2, 17376, Note_on_c, 0, 74, 77
2, 17421, Note_on_c, 0, 74, 0
2, 17424, Note_on_c, 0, 74, 77
2, 17469, Note_on_c, 0, 74, 0
2, 17472, Note_on_c, 0, 76, 77
2, 17484, Note_on_c, 0, 76, 0
2, 17484, Note_on_c, 0, 78, 77
2, 17496, Note_on_c, 0, 78, 0
2, 17496, Note_on_c, 0, 76, 77
2, 17517, Note_on_c, 0, 76, 0
2, 17520, Note_on_c, 0, 74, 77
2, 17565, Note_on_c, 0, 74, 0
2, 17568, Note_on_c, 0, 76, 77
2, 17580, Note_on_c, 0, 76, 0
2, 17580, Note_on_c, 0, 78, 77
2, 17592, Note_on_c, 0, 78, 0
2, 17592, Note_on_c, 0, 76, 77
2, 17613, Note_on_c, 0, 76, 0
2, 17616, Note_on_c, 0, 74, 77
2, 17661, Note_on_c, 0, 74, 0
2, 17664, Note_on_c, 0, 79, 77
2, 17684, Note_on_c, 0, 79, 0
2, 17712, Note_on_c, 0, 79, 77
2, 17760, Note_on_c, 0, 79, 0
2, 17760, Note_on_c, 0, 78, 77
2, 17780, Note_on_c, 0, 78, 0
2, 17808, Note_on_c, 0, 78, 77
2, 17856, Note_on_c, 0, 78, 0
2, 17856, Note_on_c, 0, 83, 77
2, 17876, Note_on_c, 0, 83, 0
2, 17904, Note_on_c, 0, 83, 77
2, 17952, Note_on_c, 0, 83, 0
2, 17952, Note_on_c, 0, 81, 77
2, 17972, Note_on_c, 0, 81, 0
2, 18000, Note_on_c, 0, 81, 77
2, 18045, Note_on_c, 0, 81, 0
2, 18096, Note_on_c, 0, 79, 77
2, 18096, Note_on_c, 0, 71, 77
2, 18141, Note_on_c, 0, 79, 0
2, 18141, Note_on_c, 0, 71, 0
2, 18144, Note_on_c, 0, 76, 74
2, 18144, Note_on_c, 0, 67, 74
2, 18189, Note_on_c, 0, 76, 0
2, 18189, Note_on_c, 0, 67, 0
2, 18192, Note_on_c, 0, 73, 71
2, 18192, Note_on_c, 0, 64, 71
2, 18237, Note_on_c, 0, 73, 0
2, 18237, Note_on_c, 0, 64, 0
2, 18240, Note_on_c, 0, 74, 69
2, 18240, Note_on_c, 0, 66, 69
2, 18329, Note_on_c, 0, 74, 0
2, 18329, Note_on_c, 0, 66, 0
2, 18432, Note_on_c, 0, 62, 84
2, 18455, Note_on_c, 0, 62, 0
2, 18456, Note_on_c, 0, 57, 84
2, 18479, Note_on_c, 0, 57, 0
2, 18480, Note_on_c, 0, 54, 84
2, 18503, Note_on_c, 0, 54, 0
2, 18504, Note_on_c, 0, 57, 84
2, 18527, Note_on_c, 0, 57, 0
2, 18528, Note_on_c, 0, 62, 84
2, 18551, Note_on_c, 0, 62, 0
2, 18552, Note_on_c, 0, 57, 84
2, 18575, Note_on_c, 0, 57, 0
2, 18576, Note_on_c, 0, 64, 84
2, 18599, Note_on_c, 0, 64, 0
2, 18600, Note_on_c, 0, 57, 84
2, 18623, Note_on_c, 0, 57, 0
2, 18624, Note_on_c, 0, 66, 84
2, 18647, Note_on_c, 0, 66, 0
2, 18648, Note_on_c, 0, 57, 84
2, 18671, Note_on_c, 0, 57, 0
2, 18672, Note_on_c, 0, 67, 84
2, 18695, Note_on_c, 0, 67, 0
2, 18696, Note_on_c, 0, 57, 84
2, 18719, Note_on_c, 0, 57, 0
2, 18720, Note_on_c, 0, 69, 84
2, 18743, Note_on_c, 0, 69, 0
2, 18744, Note_on_c, 0, 57, 84
2, 18767, Note_on_c, 0, 57, 0
2, 18768, Note_on_c, 0, 67, 84
2, 18791, Note_on_c, 0, 67, 0
2, 18792, Note_on_c, 0, 57, 84
2, 18815, Note_on_c, 0, 57, 0
2, 18816, Note_on_c, 0, 66, 84
2, 18839, Note_on_c, 0, 66, 0
2, 18840, Note_on_c, 0, 62, 84
2, 18863, Note_on_c, 0, 62, 0
2, 18864, Note_on_c, 0, 57, 84
2, 18887, Note_on_c, 0, 57, 0
2, 18888, Note_on_c, 0, 62, 84
2, 18911, Note_on_c, 0, 62, 0
2, 18912, Note_on_c, 0, 66, 84
2, 18935, Note_on_c, 0, 66, 0
2, 18936, Note_on_c, 0, 62, 84
2, 18959, Note_on_c, 0, 62, 0
2, 18960, Note_on_c, 0, 67, 84
2, 18983, Note_on_c, 0, 67, 0
2, 18984, Note_on_c, 0, 62, 84
2, 19007, Note_on_c, 0, 62, 0
2, 19008, Note_on_c, 0, 69, 84
2, 19031, Note_on_c, 0, 69, 0
2, 19032, Note_on_c, 0, 62, 84
2, 19055, Note_on_c, 0, 62, 0
2, 19056, Note_on_c, 0, 71, 84
2, 19079, Note_on_c, 0, 71, 0
2, 19080, Note_on_c, 0, 62, 84
2, 19103, Note_on_c, 0, 62, 0
2, 19104, Note_on_c, 0, 69, 84
2, 19127, Note_on_c, 0, 69, 0
2, 19128, Note_on_c, 0, 62, 84
2, 19151, Note_on_c, 0, 62, 0
2, 19152, Note_on_c, 0, 73, 84
2, 19175, Note_on_c, 0, 73, 0
2, 19176, Note_on_c, 0, 62, 84
2, 19199, Note_on_c, 0, 62, 0
2, 19200, Note_on_c, 0, 74, 84
2, 19223, Note_on_c, 0, 74, 0
2, 19224, Note_on_c, 0, 69, 84
2, 19247, Note_on_c, 0, 69, 0
2, 19248, Note_on_c, 0, 66, 84
2, 19271, Note_on_c, 0, 66, 0
2, 19272, Note_on_c, 0, 69, 84
2, 19295, Note_on_c, 0, 69, 0
2, 19296, Note_on_c, 0, 74, 84
2, 19319, Note_on_c, 0, 74, 0
2, 19320, Note_on_c, 0, 69, 84
2, 19343, Note_on_c, 0, 69, 0
2, 19344, Note_on_c, 0, 76, 84
2, 19367, Note_on_c, 0, 76, 0
2, 19368, Note_on_c, 0, 69, 84
2, 19391, Note_on_c, 0, 69, 0
2, 19392, Note_on_c, 0, 78, 84
2, 19415, Note_on_c, 0, 78, 0
2, 19416, Note_on_c, 0, 69, 84
2, 19439, Note_on_c, 0, 69, 0
2, 19440, Note_on_c, 0, 79, 84
2, 19463, Note_on_c, 0, 79, 0
2, 19464, Note_on_c, 0, 69, 84
2, 19487, Note_on_c, 0, 69, 0
2, 19488, Note_on_c, 0, 81, 84
2, 19511, Note_on_c, 0, 81, 0
2, 19512, Note_on_c, 0, 69, 84
2, 19535, Note_on_c, 0, 69, 0
2, 19536, Note_on_c, 0, 79, 84
2, 19559, Note_on_c, 0, 79, 0
2, 19560, Note_on_c, 0, 69, 84
2, 19583, Note_on_c, 0, 69, 0
2, 19584, Note_on_c, 0, 78, 84
2, 19607, Note_on_c, 0, 78, 0
2, 19608, Note_on_c, 0, 74, 84
2, 19631, Note_on_c, 0, 74, 0
2, 19632, Note_on_c, 0, 69, 84
2, 19655, Note_on_c, 0, 69, 0
2, 19656, Note_on_c, 0, 74, 84
2, 19679, Note_on_c, 0, 74, 0
2, 19680, Note_on_c, 0, 78, 84
2, 19703, Note_on_c, 0, 78, 0
2, 19704, Note_on_c, 0, 74, 84
2, 19727, Note_on_c, 0, 74, 0
2, 19728, Note_on_c, 0, 79, 84
2, 19751, Note_on_c, 0, 79, 0
2, 19752, Note_on_c, 0, 74, 84
2, 19775, Note_on_c, 0, 74, 0
2, 19776, Note_on_c, 0, 81, 84
2, 19799, Note_on_c, 0, 81, 0
2, 19800, Note_on_c, 0, 74, 84
2, 19823, Note_on_c, 0, 74, 0
2, 19824, Note_on_c, 0, 83, 84
2, 19847, Note_on_c, 0, 83, 0
2, 19848, Note_on_c, 0, 74, 84
2, 19871, Note_on_c, 0, 74, 0
2, 19872, Note_on_c, 0, 81, 84
2, 19895, Note_on_c, 0, 81, 0
2, 19896, Note_on_c, 0, 74, 84
2, 19919, Note_on_c, 0, 74, 0
2, 19920, Note_on_c, 0, 79, 84
2, 19943, Note_on_c, 0, 79, 0
2, 19944, Note_on_c, 0, 74, 84
2, 19967, Note_on_c, 0, 74, 0
2, 19968, Note_on_c, 0, 78, 84
2, 19991, Note_on_c, 0, 78, 0
2, 19992, Note_on_c, 0, 74, 84
2, 20015, Note_on_c, 0, 74, 0
2, 20016, Note_on_c, 0, 73, 84
2, 20039, Note_on_c, 0, 73, 0
2, 20040, Note_on_c, 0, 74, 84
2, 20063, Note_on_c, 0, 74, 0
2, 20064, Note_on_c, 0, 83, 84
2, 20087, Note_on_c, 0, 83, 0
2, 20088, Note_on_c, 0, 74, 84
2, 20111, Note_on_c, 0, 74, 0
2, 20112, Note_on_c, 0, 73, 84
2, 20135, Note_on_c, 0, 73, 0
2, 20136, Note_on_c, 0, 74, 84
2, 20159, Note_on_c, 0, 74, 0
2, 20160, Note_on_c, 0, 81, 84
2, 20183, Note_on_c, 0, 81, 0
2, 20184, Note_on_c, 0, 74, 84
2, 20207, Note_on_c, 0, 74, 0
2, 20208, Note_on_c, 0, 73, 84
2, 20231, Note_on_c, 0, 73, 0
2, 20232, Note_on_c, 0, 74, 84
2, 20255, Note_on_c, 0, 74, 0
2, 20256, Note_on_c, 0, 79, 84
2, 20279, Note_on_c, 0, 79, 0
2, 20280, Note_on_c, 0, 74, 84
2, 20303, Note_on_c, 0, 74, 0
2, 20304, Note_on_c, 0, 73, 84
2, 20327, Note_on_c, 0, 73, 0
2, 20328, Note_on_c, 0, 74, 84
2, 20351, Note_on_c, 0, 74, 0
2, 20352, Note_on_c, 0, 78, 84
2, 20375, Note_on_c, 0, 78, 0
2, 20376, Note_on_c, 0, 74, 84
2, 20399, Note_on_c, 0, 74, 0
2, 20400, Note_on_c, 0, 73, 84
2, 20423, Note_on_c, 0, 73, 0
2, 20424, Note_on_c, 0, 74, 84
2, 20447, Note_on_c, 0, 74, 0
2, 20448, Note_on_c, 0, 83, 84
2, 20471, Note_on_c, 0, 83, 0
2, 20472, Note_on_c, 0, 74, 84
2, 20495, Note_on_c, 0, 74, 0
2, 20496, Note_on_c, 0, 73, 84
2, 20519, Note_on_c, 0, 73, 0
2, 20520, Note_on_c, 0, 74, 84
2, 20543, Note_on_c, 0, 74, 0
2, 20544, Note_on_c, 0, 81, 84
2, 20567, Note_on_c, 0, 81, 0
2, 20568, Note_on_c, 0, 74, 84
2, 20591, Note_on_c, 0, 74, 0
2, 20592, Note_on_c, 0, 73, 84
2, 20615, Note_on_c, 0, 73, 0
2, 20616, Note_on_c, 0, 74, 84
2, 20639, Note_on_c, 0, 74, 0
2, 20640, Note_on_c, 0, 79, 84
2, 20663, Note_on_c, 0, 79, 0
2, 20664, Note_on_c, 0, 74, 84
2, 20687, Note_on_c, 0, 74, 0
2, 20688, Note_on_c, 0, 73, 84
2, 20711, Note_on_c, 0, 73, 0
2, 20712, Note_on_c, 0, 74, 84
2, 20735, Note_on_c, 0, 74, 0
2, 20736, Note_on_c, 0, 78, 91
2, 20759, Note_on_c, 0, 78, 0
2, 20760, Note_on_c, 0, 74, 91
2, 20783, Note_on_c, 0, 74, 0
2, 20784, Note_on_c, 0, 76, 91
2, 20807, Note_on_c, 0, 76, 0
2, 20808, Note_on_c, 0, 78, 91
2, 20831, Note_on_c, 0, 78, 0
2, 20832, Note_on_c, 0, 79, 91
2, 20855, Note_on_c, 0, 79, 0
2, 20856, Note_on_c, 0, 81, 91
2, 20879, Note_on_c, 0, 81, 0
2, 20880, Note_on_c, 0, 83, 91
2, 20903, Note_on_c, 0, 83, 0
2, 20904, Note_on_c, 0, 85, 91
2, 20927, Note_on_c, 0, 85, 0
2, 20928, Note_on_c, 0, 86, 91
2, 20951, Note_on_c, 0, 86, 0
2, 20952, Note_on_c, 0, 85, 91
2, 20975, Note_on_c, 0, 85, 0
2, 20976, Note_on_c, 0, 86, 91
2, 20999, Note_on_c, 0, 86, 0
2, 21000, Note_on_c, 0, 85, 91
2, 21023, Note_on_c, 0, 85, 0
2, 21024, Note_on_c, 0, 86, 91
2, 21047, Note_on_c, 0, 86, 0
2, 21048, Note_on_c, 0, 81, 91
2, 21071, Note_on_c, 0, 81, 0
2, 21072, Note_on_c, 0, 78, 91
2, 21095, Note_on_c, 0, 78, 0
2, 21096, Note_on_c, 0, 74, 91
2, 21119, Note_on_c, 0, 74, 0
2, 21120, Note_on_c, 0, 81, 91
2, 21209, Note_on_c, 0, 81, 0
2, 21216, Note_on_c, 0, 69, 84
2, 21216, Note_on_c, 0, 61, 84
2, 21283, Note_on_c, 0, 69, 0
2, 21283, Note_on_c, 0, 61, 0
2, 21288, Note_on_c, 0, 69, 84
2, 21288, Note_on_c, 0, 61, 84
2, 21311, Note_on_c, 0, 69, 0
2, 21311, Note_on_c, 0, 61, 0
2, 21312, Note_on_c, 0, 69, 84
2, 21312, Note_on_c, 0, 61, 84
2, 21401, Note_on_c, 0, 69, 0
2, 21401, Note_on_c, 0, 61, 0
2, 21504, Note_on_c, 0, 83, 77
2, 21510, Note_on_c, 0, 83, 0
2, 21510, Note_on_c, 0, 81, 77
2, 21527, Note_on_c, 0, 81, 0
2, 21528, Note_on_c, 0, 80, 77
2, 21551, Note_on_c, 0, 80, 0
2, 21552, Note_on_c, 0, 81, 77
2, 21575, Note_on_c, 0, 81, 0
2, 21576, Note_on_c, 0, 83, 77
2, 21599, Note_on_c, 0, 83, 0
2, 21600, Note_on_c, 0, 81, 77
2, 21645, Note_on_c, 0, 81, 0
2, 21696, Note_on_c, 0, 80, 77
2, 21702, Note_on_c, 0, 80, 0
2, 21702, Note_on_c, 0, 78, 77
2, 21719, Note_on_c, 0, 78, 0
2, 21720, Note_on_c, 0, 77, 77
2, 21743, Note_on_c, 0, 77, 0
2, 21744, Note_on_c, 0, 78, 77
2, 21767, Note_on_c, 0, 78, 0
2, 21768, Note_on_c, 0, 80, 77
2, 21791, Note_on_c, 0, 80, 0
2, 21792, Note_on_c, 0, 78, 77
2, 21837, Note_on_c, 0, 78, 0
2, 21888, Note_on_c, 0, 88, 77
2, 21894, Note_on_c, 0, 88, 0
2, 21894, Note_on_c, 0, 86, 77
2, 21911, Note_on_c, 0, 86, 0
2, 21912, Note_on_c, 0, 85, 77
2, 21935, Note_on_c, 0, 85, 0
2, 21936, Note_on_c, 0, 86, 77
2, 21959, Note_on_c, 0, 86, 0
2, 21960, Note_on_c, 0, 88, 77
2, 21983, Note_on_c, 0, 88, 0
2, 21984, Note_on_c, 0, 86, 77
2, 22029, Note_on_c, 0, 86, 0
2, 22080, Note_on_c, 0, 86, 77
2, 22086, Note_on_c, 0, 86, 0
2, 22086, Note_on_c, 0, 85, 77
2, 22103, Note_on_c, 0, 85, 0
2, 22104, Note_on_c, 0, 83, 77
2, 22127, Note_on_c, 0, 83, 0
2, 22128, Note_on_c, 0, 85, 77
2, 22151, Note_on_c, 0, 85, 0
2, 22152, Note_on_c, 0, 86, 77
2, 22175, Note_on_c, 0, 86, 0
2, 22176, Note_on_c, 0, 85, 77
2, 22221, Note_on_c, 0, 85, 0
2, 22272, Note_on_c, 0, 85, 77
2, 22278, Note_on_c, 0, 85, 0
2, 22278, Note_on_c, 0, 83, 77
2, 22295, Note_on_c, 0, 83, 0
2, 22296, Note_on_c, 0, 82, 77
2, 22319, Note_on_c, 0, 82, 0
2, 22320, Note_on_c, 0, 83, 77
2, 22343, Note_on_c, 0, 83, 0
2, 22344, Note_on_c, 0, 85, 77
2, 22367, Note_on_c, 0, 85, 0
2, 22368, Note_on_c, 0, 83, 77
2, 22413, Note_on_c, 0, 83, 0
2, 22464, Note_on_c, 0, 74, 77
2, 22464, Note_on_c, 0, 71, 77
2, 22509, Note_on_c, 0, 74, 0
2, 22509, Note_on_c, 0, 71, 0
2, 22512, Note_on_c, 0, 86, 77
2, 22512, Note_on_c, 0, 83, 77
2, 22557, Note_on_c, 0, 86, 0
2, 22557, Note_on_c, 0, 83, 0
2, 22560, Note_on_c, 0, 86, 77
2, 22560, Note_on_c, 0, 83, 77
2, 22605, Note_on_c, 0, 86, 0
2, 22605, Note_on_c, 0, 83, 0
2, 22608, Note_on_c, 0, 85, 77
2, 22608, Note_on_c, 0, 82, 77
2, 22653, Note_on_c, 0, 85, 0
2, 22653, Note_on_c, 0, 82, 0
2, 22656, Note_on_c, 0, 85, 77
2, 22662, Note_on_c, 0, 85, 0
2, 22662, Note_on_c, 0, 83, 77
2, 22679, Note_on_c, 0, 83, 0
2, 22680, Note_on_c, 0, 82, 77
2, 22703, Note_on_c, 0, 82, 0
2, 22704, Note_on_c, 0, 83, 77
2, 22727, Note_on_c, 0, 83, 0
2, 22728, Note_on_c, 0, 85, 77
2, 22751, Note_on_c, 0, 85, 0
2, 22752, Note_on_c, 0, 83, 77
2, 22797, Note_on_c, 0, 83, 0
2, 22848, Note_on_c, 0, 74, 77
2, 22848, Note_on_c, 0, 71, 77
2, 22893, Note_on_c, 0, 74, 0
2, 22893, Note_on_c, 0, 71, 0
2, 22896, Note_on_c, 0, 86, 77
2, 22896, Note_on_c, 0, 83, 77
2, 22941, Note_on_c, 0, 86, 0
2, 22941, Note_on_c, 0, 83, 0
2, 22944, Note_on_c, 0, 86, 77
2, 22944, Note_on_c, 0, 83, 77
2, 22989, Note_on_c, 0, 86, 0
2, 22989, Note_on_c, 0, 83, 0
2, 22992, Note_on_c, 0, 85, 77
2, 22992, Note_on_c, 0, 82, 77
2, 23037, Note_on_c, 0, 85, 0
2, 23037, Note_on_c, 0, 82, 0
2, 23040, Note_on_c, 0, 85, 77
2, 23046, Note_on_c, 0, 85, 0
2, 23046, Note_on_c, 0, 83, 77
2, 23063, Note_on_c, 0, 83, 0
2, 23064, Note_on_c, 0, 82, 77
2, 23087, Note_on_c, 0, 82, 0
2, 23088, Note_on_c, 0, 83, 78
2, 23111, Note_on_c, 0, 83, 0
2, 23112, Note_on_c, 0, 85, 78
2, 23135, Note_on_c, 0, 85, 0
2, 23136, Note_on_c, 0, 83, 79
2, 23181, Note_on_c, 0, 83, 0
2, 23232, Note_on_c, 0, 83, 81
2, 23238, Note_on_c, 0, 83, 0
2, 23238, Note_on_c, 0, 81, 81
2, 23255, Note_on_c, 0, 81, 0
2, 23256, Note_on_c, 0, 80, 81
2, 23279, Note_on_c, 0, 80, 0
2, 23280, Note_on_c, 0, 81, 82
2, 23303, Note_on_c, 0, 81, 0
2, 23304, Note_on_c, 0, 83, 82
2, 23327, Note_on_c, 0, 83, 0
2, 23328, Note_on_c, 0, 81, 83
2, 23373, Note_on_c, 0, 81, 0
2, 23424, Note_on_c, 0, 88, 100
2, 23472, Note_on_c, 0, 88, 0
2, 23472, Note_on_c, 0, 76, 84
2, 23517, Note_on_c, 0, 76, 0
2, 23520, Note_on_c, 0, 76, 84
2, 23565, Note_on_c, 0, 76, 0
2, 23568, Note_on_c, 0, 76, 84
2, 23613, Note_on_c, 0, 76, 0
2, 23616, Note_on_c, 0, 76, 84
2, 23639, Note_on_c, 0, 76, 0
2, 23640, Note_on_c, 0, 78, 84
2, 23663, Note_on_c, 0, 78, 0
2, 23664, Note_on_c, 0, 76, 84
2, 23687, Note_on_c, 0, 76, 0
2, 23688, Note_on_c, 0, 74, 84
2, 23711, Note_on_c, 0, 74, 0
2, 23712, Note_on_c, 0, 73, 84
2, 23735, Note_on_c, 0, 73, 0
2, 23736, Note_on_c, 0, 71, 84
2, 23759, Note_on_c, 0, 71, 0
2, 23760, Note_on_c, 0, 69, 84
2, 23783, Note_on_c, 0, 69, 0
2, 23784, Note_on_c, 0, 68, 84
2, 23807, Note_on_c, 0, 68, 0
2, 23808, Note_on_c, 0, 69, 84
2, 23831, Note_on_c, 0, 69, 0
2, 23832, Note_on_c, 0, 73, 84
2, 23855, Note_on_c, 0, 73, 0
2, 23856, Note_on_c, 0, 71, 84
2, 23879, Note_on_c, 0, 71, 0
2, 23880, Note_on_c, 0, 74, 84
2, 23903, Note_on_c, 0, 74, 0
2, 23904, Note_on_c, 0, 73, 84
2, 23927, Note_on_c, 0, 73, 0
2, 23928, Note_on_c, 0, 76, 84
2, 23951, Note_on_c, 0, 76, 0
2, 23952, Note_on_c, 0, 74, 84
2, 23975, Note_on_c, 0, 74, 0
2, 23976, Note_on_c, 0, 78, 84
2, 23999, Note_on_c, 0, 78, 0
2, 24000, Note_on_c, 0, 76, 84
2, 24045, Note_on_c, 0, 76, 0
2, 24048, Note_on_c, 0, 78, 84
2, 24071, Note_on_c, 0, 78, 0
2, 24072, Note_on_c, 0, 80, 84
2, 24095, Note_on_c, 0, 80, 0
2, 24096, Note_on_c, 0, 81, 84
2, 24119, Note_on_c, 0, 81, 0
2, 24120, Note_on_c, 0, 83, 84
2, 24143, Note_on_c, 0, 83, 0
2, 24144, Note_on_c, 0, 85, 84
2, 24167, Note_on_c, 0, 85, 0
2, 24168, Note_on_c, 0, 86, 84
2, 24191, Note_on_c, 0, 86, 0
2, 24192, Note_on_c, 0, 88, 100
2, 24240, Note_on_c, 0, 88, 0
2, 24240, Note_on_c, 0, 76, 84
2, 24285, Note_on_c, 0, 76, 0
2, 24288, Note_on_c, 0, 76, 84
2, 24333, Note_on_c, 0, 76, 0
2, 24336, Note_on_c, 0, 76, 84
2, 24381, Note_on_c, 0, 76, 0
2, 24384, Note_on_c, 0, 76, 84
2, 24407, Note_on_c, 0, 76, 0
2, 24408, Note_on_c, 0, 78, 84
2, 24431, Note_on_c, 0, 78, 0
2, 24432, Note_on_c, 0, 76, 84
2, 24455, Note_on_c, 0, 76, 0
2, 24456, Note_on_c, 0, 74, 84
2, 24479, Note_on_c, 0, 74, 0
2, 24480, Note_on_c, 0, 73, 84
2, 24503, Note_on_c, 0, 73, 0
2, 24504, Note_on_c, 0, 71, 84
2, 24527, Note_on_c, 0, 71, 0
2, 24528, Note_on_c, 0, 69, 84
2, 24551, Note_on_c, 0, 69, 0
2, 24552, Note_on_c, 0, 68, 84
2, 24575, Note_on_c, 0, 68, 0
2, 24576, Note_on_c, 0, 69, 84
2, 24599, Note_on_c, 0, 69, 0
2, 24600, Note_on_c, 0, 73, 84
2, 24623, Note_on_c, 0, 73, 0
2, 24624, Note_on_c, 0, 71, 84
2, 24647, Note_on_c, 0, 71, 0
2, 24648, Note_on_c, 0, 74, 84
2, 24671, Note_on_c, 0, 74, 0
2, 24672, Note_on_c, 0, 73, 84
2, 24695, Note_on_c, 0, 73, 0
2, 24696, Note_on_c, 0, 76, 84
2, 24719, Note_on_c, 0, 76, 0
2, 24720, Note_on_c, 0, 74, 84
2, 24743, Note_on_c, 0, 74, 0
2, 24744, Note_on_c, 0, 78, 84
2, 24767, Note_on_c, 0, 78, 0
2, 24768, Note_on_c, 0, 76, 84
2, 24813, Note_on_c, 0, 76, 0
2, 24816, Note_on_c, 0, 78, 84
2, 24839, Note_on_c, 0, 78, 0
2, 24840, Note_on_c, 0, 80, 84
2, 24863, Note_on_c, 0, 80, 0
2, 24864, Note_on_c, 0, 81, 84
2, 24887, Note_on_c, 0, 81, 0
2, 24888, Note_on_c, 0, 83, 84
2, 24911, Note_on_c, 0, 83, 0
2, 24912, Note_on_c, 0, 85, 84
2, 24935, Note_on_c, 0, 85, 0
2, 24936, Note_on_c, 0, 86, 84
2, 24959, Note_on_c, 0, 86, 0
2, 24960, Note_on_c, 0, 88, 100
2, 24984, Note_on_c, 0, 88, 0
2, 24984, Note_on_c, 0, 78, 84
2, 25007, Note_on_c, 0, 78, 0
2, 25008, Note_on_c, 0, 77, 84
2, 25031, Note_on_c, 0, 77, 0
2, 25032, Note_on_c, 0, 78, 84
2, 25055, Note_on_c, 0, 78, 0
2, 25056, Note_on_c, 0, 77, 84
2, 25079, Note_on_c, 0, 77, 0
2, 25080, Note_on_c, 0, 78, 84
2, 25103, Note_on_c, 0, 78, 0
2, 25104, Note_on_c, 0, 77, 84
2, 25127, Note_on_c, 0, 77, 0
2, 25128, Note_on_c, 0, 78, 84
2, 25151, Note_on_c, 0, 78, 0
2, 25152, Note_on_c, 0, 86, 100
2, 25176, Note_on_c, 0, 86, 0
2, 25176, Note_on_c, 0, 74, 84
2, 25199, Note_on_c, 0, 74, 0
2, 25200, Note_on_c, 0, 73, 84
2, 25223, Note_on_c, 0, 73, 0
2, 25224, Note_on_c, 0, 74, 84
2, 25247, Note_on_c, 0, 74, 0
2, 25248, Note_on_c, 0, 73, 84
2, 25271, Note_on_c, 0, 73, 0
2, 25272, Note_on_c, 0, 74, 84
2, 25295, Note_on_c, 0, 74, 0
2, 25296, Note_on_c, 0, 73, 84
2, 25319, Note_on_c, 0, 73, 0
2, 25320, Note_on_c, 0, 74, 84
2, 25343, Note_on_c, 0, 74, 0
2, 25344, Note_on_c, 0, 86, 100
2, 25368, Note_on_c, 0, 86, 0
2, 25368, Note_on_c, 0, 83, 84
2, 25391, Note_on_c, 0, 83, 0
2, 25392, Note_on_c, 0, 82, 84
2, 25415, Note_on_c, 0, 82, 0
2, 25416, Note_on_c, 0, 83, 84
2, 25439, Note_on_c, 0, 83, 0
2, 25440, Note_on_c, 0, 82, 84
2, 25463, Note_on_c, 0, 82, 0
2, 25464, Note_on_c, 0, 83, 84
2, 25487, Note_on_c, 0, 83, 0
2, 25488, Note_on_c, 0, 82, 84
2, 25511, Note_on_c, 0, 82, 0
2, 25512, Note_on_c, 0, 83, 84
2, 25535, Note_on_c, 0, 83, 0
2, 25536, Note_on_c, 0, 85, 100
2, 25560, Note_on_c, 0, 85, 0
2, 25560, Note_on_c, 0, 81, 84
2, 25583, Note_on_c, 0, 81, 0
2, 25584, Note_on_c, 0, 80, 84
2, 25607, Note_on_c, 0, 80, 0
2, 25608, Note_on_c, 0, 81, 84
2, 25631, Note_on_c, 0, 81, 0
2, 25632, Note_on_c, 0, 80, 84
2, 25655, Note_on_c, 0, 80, 0
2, 25656, Note_on_c, 0, 81, 84
2, 25679, Note_on_c, 0, 81, 0
2, 25680, Note_on_c, 0, 80, 84
2, 25703, Note_on_c, 0, 80, 0
2, 25704, Note_on_c, 0, 81, 84
2, 25727, Note_on_c, 0, 81, 0
2, 25728, Note_on_c, 0, 86, 100
2, 25752, Note_on_c, 0, 86, 0
2, 25752, Note_on_c, 0, 83, 84
2, 25775, Note_on_c, 0, 83, 0
2, 25776, Note_on_c, 0, 82, 84
2, 25799, Note_on_c, 0, 82, 0
2, 25800, Note_on_c, 0, 83, 84
2, 25823, Note_on_c, 0, 83, 0
2, 25824, Note_on_c, 0, 85, 100
2, 25848, Note_on_c, 0, 85, 0
2, 25848, Note_on_c, 0, 81, 84
2, 25871, Note_on_c, 0, 81, 0
2, 25872, Note_on_c, 0, 80, 84
2, 25895, Note_on_c, 0, 80, 0
2, 25896, Note_on_c, 0, 81, 84
2, 25919, Note_on_c, 0, 81, 0
2, 25920, Note_on_c, 0, 86, 100
2, 25944, Note_on_c, 0, 86, 0
2, 25944, Note_on_c, 0, 83, 84
2, 25967, Note_on_c, 0, 83, 0
2, 25968, Note_on_c, 0, 82, 84
2, 25991, Note_on_c, 0, 82, 0
2, 25992, Note_on_c, 0, 83, 84
2, 26015, Note_on_c, 0, 83, 0
2, 26016, Note_on_c, 0, 85, 100
2, 26040, Note_on_c, 0, 85, 0
2, 26040, Note_on_c, 0, 81, 84
2, 26063, Note_on_c, 0, 81, 0
2, 26064, Note_on_c, 0, 80, 84
2, 26087, Note_on_c, 0, 80, 0
2, 26088, Note_on_c, 0, 81, 84
2, 26111, Note_on_c, 0, 81, 0
2, 26112, Note_on_c, 0, 86, 93
2, 26136, Note_on_c, 0, 86, 0
2, 26136, Note_on_c, 0, 83, 77
2, 26159, Note_on_c, 0, 83, 0
2, 26160, Note_on_c, 0, 82, 77
2, 26183, Note_on_c, 0, 82, 0
2, 26184, Note_on_c, 0, 83, 77
2, 26207, Note_on_c, 0, 83, 0
2, 26208, Note_on_c, 0, 84, 93
2, 26232, Note_on_c, 0, 84, 0
2, 26232, Note_on_c, 0, 81, 77
2, 26255, Note_on_c, 0, 81, 0
2, 26256, Note_on_c, 0, 80, 77
2, 26279, Note_on_c, 0, 80, 0
2, 26280, Note_on_c, 0, 81, 77
2, 26303, Note_on_c, 0, 81, 0
2, 26304, Note_on_c, 0, 86, 93
2, 26328, Note_on_c, 0, 86, 0
2, 26328, Note_on_c, 0, 83, 77
2, 26351, Note_on_c, 0, 83, 0
2, 26352, Note_on_c, 0, 82, 77
2, 26375, Note_on_c, 0, 82, 0
2, 26376, Note_on_c, 0, 83, 77
2, 26399, Note_on_c, 0, 83, 0
2, 26400, Note_on_c, 0, 84, 93
2, 26424, Note_on_c, 0, 84, 0
2, 26424, Note_on_c, 0, 81, 77
2, 26447, Note_on_c, 0, 81, 0
2, 26448, Note_on_c, 0, 80, 77
2, 26471, Note_on_c, 0, 80, 0
2, 26472, Note_on_c, 0, 81, 77
2, 26495, Note_on_c, 0, 81, 0
2, 26520, Control_c, 0, 64, 127
2, 26520, Note_on_c, 0, 89, 107
2, 26544, Note_on_c, 0, 89, 0
2, 26544, Note_on_c, 0, 86, 91
2, 26567, Note_on_c, 0, 86, 0
2, 26568, Note_on_c, 0, 89, 91
2, 26591, Note_on_c, 0, 89, 0
2, 26592, Note_on_c, 0, 82, 91
2, 26615, Note_on_c, 0, 82, 0
2, 26616, Note_on_c, 0, 86, 91
2, 26639, Note_on_c, 0, 86, 0
2, 26640, Note_on_c, 0, 77, 91
2, 26663, Note_on_c, 0, 77, 0
2, 26664, Note_on_c, 0, 82, 91
2, 26687, Note_on_c, 0, 82, 0
2, 26688, Note_on_c, 0, 74, 91
2, 26733, Note_on_c, 0, 74, 0
2, 26808, Note_on_c, 0, 74, 91
2, 26831, Note_on_c, 0, 74, 0
2, 26832, Note_on_c, 0, 77, 91
2, 26855, Note_on_c, 0, 77, 0
2, 26856, Note_on_c, 0, 82, 91
2, 26879, Note_on_c, 0, 82, 0
2, 26880, Note_on_c, 0, 86, 91
2, 26903, Note_on_c, 0, 86, 0
2, 26904, Note_on_c, 0, 77, 91
2, 26927, Note_on_c, 0, 77, 0
2, 26928, Note_on_c, 0, 82, 91
2, 26951, Note_on_c, 0, 82, 0
2, 26952, Note_on_c, 0, 86, 91
2, 26975, Note_on_c, 0, 86, 0
2, 26976, Note_on_c, 0, 89, 91
2, 26999, Note_on_c, 0, 89, 0
2, 27000, Note_on_c, 0, 77, 91
2, 27023, Note_on_c, 0, 77, 0
2, 27024, Note_on_c, 0, 82, 91
2, 27047, Note_on_c, 0, 82, 0
2, 27048, Note_on_c, 0, 86, 91
2, 27071, Note_on_c, 0, 86, 0
2, 27072, Note_on_c, 0, 89, 91
2, 27117, Note_on_c, 0, 89, 0
2, 27168, Control_c, 0, 64, 0
2, 27288, Control_c, 0, 64, 127
2, 27288, Note_on_c, 0, 84, 91
2, 27311, Note_on_c, 0, 84, 0
2, 27312, Note_on_c, 0, 81, 91
2, 27335, Note_on_c, 0, 81, 0
2, 27336, Note_on_c, 0, 84, 91
2, 27359, Note_on_c, 0, 84, 0
2, 27360, Note_on_c, 0, 78, 91
2, 27383, Note_on_c, 0, 78, 0
2, 27384, Note_on_c, 0, 81, 91
2, 27407, Note_on_c, 0, 81, 0
2, 27408, Note_on_c, 0, 75, 91
2, 27431, Note_on_c, 0, 75, 0
2, 27432, Note_on_c, 0, 78, 91
2, 27455, Note_on_c, 0, 78, 0
2, 27456, Note_on_c, 0, 72, 91
2, 27479, Note_on_c, 0, 72, 0
2, 27480, Note_on_c, 0, 75, 91
2, 27503, Note_on_c, 0, 75, 0
2, 27504, Note_on_c, 0, 69, 91
2, 27527, Note_on_c, 0, 69, 0
2, 27528, Note_on_c, 0, 72, 91
2, 27551, Note_on_c, 0, 72, 0
2, 27552, Note_on_c, 0, 66, 91
2, 27575, Note_on_c, 0, 66, 0
2, 27576, Note_on_c, 0, 69, 91
2, 27599, Note_on_c, 0, 69, 0
2, 27600, Note_on_c, 0, 63, 91
2, 27623, Note_on_c, 0, 63, 0
2, 27624, Control_c, 0, 64, 0
2, 27624, Note_on_c, 0, 66, 91
2, 27647, Note_on_c, 0, 66, 0
2, 27696, Note_on_c, 0, 64, 84
2, 27716, Note_on_c, 0, 64, 0
2, 27744, Note_on_c, 0, 69, 84
2, 27764, Note_on_c, 0, 69, 0
2, 27792, Note_on_c, 0, 73, 84
2, 27812, Note_on_c, 0, 73, 0
2, 27840, Note_on_c, 0, 76, 84
2, 27860, Note_on_c, 0, 76, 0
2, 27888, Note_on_c, 0, 81, 84
2, 27908, Note_on_c, 0, 81, 0
2, 27936, Note_on_c, 0, 85, 84
2, 27956, Note_on_c, 0, 85, 0
2, 27984, Note_on_c, 0, 88, 84
2, 28004, Note_on_c, 0, 88, 0
2, 28224, Note_on_c, 0, 83, 84
2, 28242, Note_on_c, 0, 83, 0
2, 28242, Note_on_c, 0, 85, 84
2, 28260, Note_on_c, 0, 85, 0
2, 28260, Note_on_c, 0, 83, 84
2, 28278, Note_on_c, 0, 83, 0
2, 28278, Note_on_c, 0, 85, 84
2, 28296, Note_on_c, 0, 85, 0
2, 28296, Note_on_c, 0, 83, 84
2, 28314, Note_on_c, 0, 83, 0
2, 28314, Note_on_c, 0, 85, 84
2, 28332, Note_on_c, 0, 85, 0
2, 28332, Note_on_c, 0, 83, 84
2, 28350, Note_on_c, 0, 83, 0
2, 28350, Note_on_c, 0, 85, 84
2, 28357, Note_on_c, 0, 85, 0
2, 28368, Note_on_c, 0, 81, 84
2, 28391, Note_on_c, 0, 81, 0
2, 28392, Note_on_c, 0, 83, 84
2, 28415, Note_on_c, 0, 83, 0
2, 28416, Note_on_c, 0, 81, 84
2, 28461, Note_on_c, 0, 81, 0
2, 28512, Note_on_c, 0, 81, 84
2, 28512, Note_on_c, 0, 78, 84
2, 28532, Note_on_c, 0, 81, 0
2, 28532, Note_on_c, 0, 78, 0
2, 28560, Note_on_c, 0, 80, 84
2, 28560, Note_on_c, 0, 76, 84
2, 28580, Note_on_c, 0, 80, 0
2, 28580, Note_on_c, 0, 76, 0
2, 28608, Note_on_c, 0, 74, 84
2, 28608, Note_on_c, 0, 78, 84
2, 28620, Note_on_c, 0, 78, 0
2, 28620, Note_on_c, 0, 74, 0
2, 28620, Note_on_c, 0, 73, 84
2, 28620, Note_on_c, 0, 76, 84
2, 28632, Note_on_c, 0, 76, 0
2, 28632, Note_on_c, 0, 73, 0
2, 28632, Note_on_c, 0, 78, 84
2, 28632, Note_on_c, 0, 74, 84
2, 28653, Note_on_c, 0, 78, 0
2, 28653, Note_on_c, 0, 74, 0
2, 28704, Note_on_c, 0, 78, 84
2, 28704, Note_on_c, 0, 74, 84
2, 28724, Note_on_c, 0, 78, 0
2, 28724, Note_on_c, 0, 74, 0
2, 28752, Note_on_c, 0, 76, 84
2, 28752, Note_on_c, 0, 73, 84
2, 28772, Note_on_c, 0, 76, 0
2, 28772, Note_on_c, 0, 73, 0
2, 28800, Note_on_c, 0, 71, 84
2, 28800, Note_on_c, 0, 74, 84
2, 28812, Note_on_c, 0, 74, 0
2, 28812, Note_on_c, 0, 71, 0
2, 28812, Note_on_c, 0, 69, 84
2, 28812, Note_on_c, 0, 73, 84
2, 28824, Note_on_c, 0, 73, 0
2, 28824, Note_on_c, 0, 69, 0
2, 28824, Note_on_c, 0, 74, 84
2, 28824, Note_on_c, 0, 71, 84
2, 28845, Note_on_c, 0, 74, 0
2, 28845, Note_on_c, 0, 71, 0
2, 28896, Note_on_c, 0, 73, 77
2, 28896, Note_on_c, 0, 64, 77
2, 28941, Note_on_c, 0, 73, 0
2, 28941, Note_on_c, 0, 64, 0
2, 28944, Note_on_c, 0, 73, 77
2, 28944, Note_on_c, 0, 64, 77
2, 28989, Note_on_c, 0, 73, 0
2, 28989, Note_on_c, 0, 64, 0
2, 28992, Note_on_c, 0, 71, 77
2, 28992, Note_on_c, 0, 66, 77
2, 29037, Note_on_c, 0, 71, 0
2, 29037, Note_on_c, 0, 66, 0
2, 29088, Note_on_c, 0, 68, 77
2, 29088, Note_on_c, 0, 62, 77
2, 29133, Note_on_c, 0, 68, 0
2, 29133, Note_on_c, 0, 62, 0
2, 29136, Note_on_c, 0, 68, 77
2, 29136, Note_on_c, 0, 62, 77
2, 29181, Note_on_c, 0, 68, 0
2, 29181, Note_on_c, 0, 62, 0
2, 29184, Note_on_c, 0, 69, 77
2, 29184, Note_on_c, 0, 61, 77
2, 29229, Note_on_c, 0, 69, 0
2, 29229, Note_on_c, 0, 61, 0
2, 29280, Note_on_c, 0, 81, 84
2, 29303, Note_on_c, 0, 81, 0
2, 29304, Note_on_c, 0, 83, 84
2, 29327, Note_on_c, 0, 83, 0
2, 29328, Note_on_c, 0, 80, 84
2, 29351, Note_on_c, 0, 80, 0
2, 29352, Note_on_c, 0, 81, 84
2, 29375, Note_on_c, 0, 81, 0
2, 29376, Note_on_c, 0, 78, 84
2, 29396, Note_on_c, 0, 78, 0
2, 29472, Note_on_c, 0, 78, 84
2, 29495, Note_on_c, 0, 78, 0
2, 29496, Note_on_c, 0, 80, 84
2, 29519, Note_on_c, 0, 80, 0
2, 29520, Note_on_c, 0, 76, 84
2, 29543, Note_on_c, 0, 76, 0
2, 29544, Note_on_c, 0, 78, 84
2, 29567, Note_on_c, 0, 78, 0
2, 29568, Note_on_c, 0, 74, 84
2, 29588, Note_on_c, 0, 74, 0
2, 29664, Note_on_c, 0, 73, 77
2, 29664, Note_on_c, 0, 64, 77
2, 29709, Note_on_c, 0, 73, 0
2, 29709, Note_on_c, 0, 64, 0
2, 29712, Note_on_c, 0, 73, 77
2, 29712, Note_on_c, 0, 64, 77
2, 29757, Note_on_c, 0, 73, 0
2, 29757, Note_on_c, 0, 64, 0
2, 29760, Note_on_c, 0, 71, 77
2, 29760, Note_on_c, 0, 66, 77
2, 29805, Note_on_c, 0, 71, 0
2, 29805, Note_on_c, 0, 66, 0
2, 29808, Note_on_c, 0, 71, 77
2, 29808, Note_on_c, 0, 66, 77
2, 29853, Note_on_c, 0, 71, 0
2, 29853, Note_on_c, 0, 66, 0
2, 29856, Note_on_c, 0, 68, 77
2, 29856, Note_on_c, 0, 62, 77
2, 29901, Note_on_c, 0, 68, 0
2, 29901, Note_on_c, 0, 62, 0
2, 29904, Note_on_c, 0, 68, 77
2, 29904, Note_on_c, 0, 62, 77
2, 29949, Note_on_c, 0, 68, 0
2, 29949, Note_on_c, 0, 62, 0
2, 29952, Note_on_c, 0, 69, 84
2, 29975, Note_on_c, 0, 69, 0
2, 29976, Note_on_c, 0, 64, 84
2, 29999, Note_on_c, 0, 64, 0
2, 30000, Note_on_c, 0, 73, 84
2, 30023, Note_on_c, 0, 73, 0
2, 30024, Note_on_c, 0, 64, 84
2, 30047, Note_on_c, 0, 64, 0
2, 30048, Note_on_c, 0, 69, 84
2, 30071, Note_on_c, 0, 69, 0
2, 30072, Note_on_c, 0, 64, 84
2, 30095, Note_on_c, 0, 64, 0
2, 30096, Note_on_c, 0, 68, 84
2, 30119, Note_on_c, 0, 68, 0
2, 30120, Note_on_c, 0, 64, 84
2, 30143, Note_on_c, 0, 64, 0
2, 30144, Note_on_c, 0, 69, 84
2, 30167, Note_on_c, 0, 69, 0
2, 30168, Note_on_c, 0, 64, 84
2, 30191, Note_on_c, 0, 64, 0
2, 30192, Note_on_c, 0, 73, 84
2, 30215, Note_on_c, 0, 73, 0
2, 30216, Note_on_c, 0, 64, 84
2, 30239, Note_on_c, 0, 64, 0
2, 30240, Note_on_c, 0, 69, 84
2, 30263, Note_on_c, 0, 69, 0
2, 30264, Note_on_c, 0, 64, 84
2, 30287, Note_on_c, 0, 64, 0
2, 30288, Note_on_c, 0, 68, 84
2, 30311, Note_on_c, 0, 68, 0
2, 30312, Note_on_c, 0, 64, 84
2, 30335, Note_on_c, 0, 64, 0
2, 30336, Note_on_c, 0, 69, 84
2, 30381, Note_on_c, 0, 69, 0
2, 30432, Note_on_c, 0, 73, 84
2, 30432, Note_on_c, 0, 69, 84
2, 30504, Note_on_c, 0, 69, 0
2, 30504, Note_on_c, 0, 76, 84
2, 30527, Note_on_c, 0, 76, 0
2, 30527, Note_on_c, 0, 73, 0
2, 30528, Note_on_c, 0, 73, 84
2, 30528, Note_on_c, 0, 69, 84
2, 30573, Note_on_c, 0, 73, 0
2, 30573, Note_on_c, 0, 69, 0
2, 30864, Note_on_c, 0, 81, 77
2, 30864, Note_on_c, 0, 73, 77
2, 30909, Note_on_c, 0, 81, 0
2, 30909, Note_on_c, 0, 73, 0
2, 30912, Note_on_c, 0, 80, 77
2, 30912, Note_on_c, 0, 74, 77
2, 30957, Note_on_c, 0, 80, 0
2, 30957, Note_on_c, 0, 74, 0
2, 30960, Note_on_c, 0, 81, 77
2, 30960, Note_on_c, 0, 73, 77
2, 31005, Note_on_c, 0, 81, 0
2, 31005, Note_on_c, 0, 73, 0
2, 31008, Note_on_c, 0, 80, 77
2, 31008, Note_on_c, 0, 74, 77
2, 31053, Note_on_c, 0, 80, 0
2, 31053, Note_on_c, 0, 74, 0
2, 31056, Note_on_c, 0, 81, 77
2, 31056, Note_on_c, 0, 73, 77
2, 31101, Note_on_c, 0, 81, 0
2, 31101, Note_on_c, 0, 73, 0
2, 31104, Note_on_c, 0, 73, 84
2, 31127, Note_on_c, 0, 73, 0
2, 31128, Note_on_c, 0, 76, 84
2, 31151, Note_on_c, 0, 76, 0
2, 31152, Note_on_c, 0, 74, 84
2, 31175, Note_on_c, 0, 74, 0
2, 31176, Note_on_c, 0, 78, 84
2, 31199, Note_on_c, 0, 78, 0
2, 31200, Note_on_c, 0, 76, 84
2, 31223, Note_on_c, 0, 76, 0
2, 31224, Note_on_c, 0, 79, 84
2, 31247, Note_on_c, 0, 79, 0
2, 31248, Note_on_c, 0, 78, 84
2, 31271, Note_on_c, 0, 78, 0
2, 31272, Note_on_c, 0, 81, 84
2, 31295, Note_on_c, 0, 81, 0
2, 31296, Note_on_c, 0, 79, 84
2, 31341, Note_on_c, 0, 79, 0
2, 31344, Note_on_c, 0, 88, 84
2, 31389, Note_on_c, 0, 88, 0
2, 31392, Note_on_c, 0, 85, 84
2, 31437, Note_on_c, 0, 85, 0
2, 31440, Note_on_c, 0, 79, 84
2, 31440, Note_on_c, 0, 76, 84
2, 31485, Note_on_c, 0, 79, 0
2, 31485, Note_on_c, 0, 76, 0
2, 31488, Note_on_c, 0, 78, 84
2, 31488, Note_on_c, 0, 74, 84
2, 31577, Note_on_c, 0, 78, 0
2, 31577, Note_on_c, 0, 74, 0
2, 31632, Note_on_c, 0, 71, 77
2, 31632, Note_on_c, 0, 62, 77
2, 31677, Note_on_c, 0, 71, 0
2, 31677, Note_on_c, 0, 62, 0
2, 31680, Note_on_c, 0, 70, 77
2, 31680, Note_on_c, 0, 64, 77
2, 31725, Note_on_c, 0, 70, 0
2, 31725, Note_on_c, 0, 64, 0
2, 31728, Note_on_c, 0, 71, 77
2, 31728, Note_on_c, 0, 62, 77
2, 31773, Note_on_c, 0, 71, 0
2, 31773, Note_on_c, 0, 62, 0
2, 31776, Note_on_c, 0, 70, 77
2, 31776, Note_on_c, 0, 64, 77
2, 31821, Note_on_c, 0, 70, 0
2, 31821, Note_on_c, 0, 64, 0
2, 31824, Note_on_c, 0, 71, 77
2, 31824, Note_on_c, 0, 62, 77
2, 31869, Note_on_c, 0, 71, 0
2, 31869, Note_on_c, 0, 62, 0
2, 31872, Note_on_c, 0, 63, 84
2, 31895, Note_on_c, 0, 63, 0
2, 31896, Note_on_c, 0, 66, 84
2, 31919, Note_on_c, 0, 66, 0
2, 31920, Note_on_c, 0, 64, 84
2, 31943, Note_on_c, 0, 64, 0
2, 31944, Note_on_c, 0, 67, 84
2, 31967, Note_on_c, 0, 67, 0
2, 31968, Note_on_c, 0, 66, 84
2, 31991, Note_on_c, 0, 66, 0
2, 31992, Note_on_c, 0, 69, 84
2, 32015, Note_on_c, 0, 69, 0
2, 32016, Note_on_c, 0, 67, 84
2, 32039, Note_on_c, 0, 67, 0
2, 32040, Note_on_c, 0, 71, 84
2, 32063, Note_on_c, 0, 71, 0
2, 32064, Note_on_c, 0, 69, 84
2, 32109, Note_on_c, 0, 69, 0
2, 32112, Note_on_c, 0, 78, 84
2, 32157, Note_on_c, 0, 78, 0
2, 32160, Note_on_c, 0, 75, 84
2, 32205, Note_on_c, 0, 75, 0
2, 32208, Note_on_c, 0, 69, 84
2, 32253, Note_on_c, 0, 69, 0
2, 32256, Note_on_c, 0, 68, 84
2, 32279, Note_on_c, 0, 68, 0
2, 32280, Note_on_c, 0, 71, 84
2, 32303, Note_on_c, 0, 71, 0
2, 32304, Note_on_c, 0, 69, 84
2, 32327, Note_on_c, 0, 69, 0
2, 32328, Note_on_c, 0, 73, 84
2, 32351, Note_on_c, 0, 73, 0
2, 32352, Note_on_c, 0, 71, 84
2, 32375, Note_on_c, 0, 71, 0
2, 32376, Note_on_c, 0, 74, 84
2, 32399, Note_on_c, 0, 74, 0
2, 32400, Note_on_c, 0, 73, 84
2, 32423, Note_on_c, 0, 73, 0
2, 32424, Note_on_c, 0, 76, 84
2, 32447, Note_on_c, 0, 76, 0
2, 32448, Note_on_c, 0, 74, 84
2, 32493, Note_on_c, 0, 74, 0
2, 32496, Note_on_c, 0, 83, 84
2, 32519, Note_on_c, 0, 83, 0
2, 32520, Note_on_c, 0, 81, 84
2, 32543, Note_on_c, 0, 81, 0
2, 32544, Note_on_c, 0, 80, 84
2, 32567, Note_on_c, 0, 80, 0
2, 32568, Note_on_c, 0, 78, 84
2, 32591, Note_on_c, 0, 78, 0
2, 32592, Note_on_c, 0, 76, 84
2, 32615, Note_on_c, 0, 76, 0
2, 32616, Note_on_c, 0, 74, 84
2, 32639, Note_on_c, 0, 74, 0
2, 32640, Note_on_c, 0, 73, 84
2, 32663, Note_on_c, 0, 73, 0
2, 32664, Note_on_c, 0, 76, 84
2, 32687, Note_on_c, 0, 76, 0
2, 32688, Note_on_c, 0, 74, 84
2, 32711, Note_on_c, 0, 74, 0
2, 32712, Note_on_c, 0, 78, 84
2, 32735, Note_on_c, 0, 78, 0
2, 32736, Note_on_c, 0, 76, 84
2, 32759, Note_on_c, 0, 76, 0
2, 32760, Note_on_c, 0, 79, 84
2, 32783, Note_on_c, 0, 79, 0
2, 32784, Note_on_c, 0, 78, 84
2, 32807, Note_on_c, 0, 78, 0
2, 32808, Note_on_c, 0, 81, 84
2, 32831, Note_on_c, 0, 81, 0
2, 32832, Note_on_c, 0, 79, 84
2, 32832, Note_on_c, 0, 76, 84
2, 33009, Note_on_c, 0, 79, 0
2, 33009, Note_on_c, 0, 76, 0
2, 33024, Note_on_c, 0, 78, 84
2, 33201, Note_on_c, 0, 78, 0
2, 33216, Note_on_c, 0, 76, 84
2, 33393, Note_on_c, 0, 76, 0
2, 33408, Note_on_c, 0, 74, 84
2, 33585, Note_on_c, 0, 74, 0
2, 33600, Note_on_c, 0, 73, 84
2, 33689, Note_on_c, 0, 73, 0
2, 33696, Note_on_c, 0, 72, 84
2, 33785, Note_on_c, 0, 72, 0
2, 33792, Note_on_c, 0, 71, 84
2, 33969, Note_on_c, 0, 71, 0
2, 33984, Note_on_c, 0, 69, 84
2, 34161, Note_on_c, 0, 69, 0
2, 34176, Note_on_c, 0, 67, 84
2, 34353, Note_on_c, 0, 67, 0
2, 34368, Note_on_c, 0, 66, 84
2, 34545, Note_on_c, 0, 66, 0
2, 34560, Note_on_c, 0, 66, 84
2, 34649, Note_on_c, 0, 66, 0
2, 34656, Note_on_c, 0, 66, 84
2, 34745, Note_on_c, 0, 66, 0
2, 34752, Note_on_c, 0, 66, 84
2, 34841, Note_on_c, 0, 66, 0
2, 34848, Note_on_c, 0, 66, 84
2, 34937, Note_on_c, 0, 66, 0
2, 34944, Note_on_c, 0, 70, 84
2, 34967, Note_on_c, 0, 70, 0
2, 34968, Note_on_c, 0, 68, 84
2, 34991, Note_on_c, 0, 68, 0
2, 34992, Note_on_c, 0, 70, 84
2, 35015, Note_on_c, 0, 70, 0
2, 35016, Note_on_c, 0, 66, 84
2, 35039, Note_on_c, 0, 66, 0
2, 35040, Note_on_c, 0, 71, 84
2, 35063, Note_on_c, 0, 71, 0
2, 35064, Note_on_c, 0, 70, 84
2, 35087, Note_on_c, 0, 70, 0
2, 35088, Note_on_c, 0, 71, 84
2, 35111, Note_on_c, 0, 71, 0
2, 35112, Note_on_c, 0, 66, 84
2, 35135, Note_on_c, 0, 66, 0
2, 35136, Note_on_c, 0, 73, 84
2, 35159, Note_on_c, 0, 73, 0
2, 35160, Note_on_c, 0, 71, 84
2, 35183, Note_on_c, 0, 71, 0
2, 35184, Note_on_c, 0, 73, 84
2, 35207, Note_on_c, 0, 73, 0
2, 35208, Note_on_c, 0, 66, 84
2, 35231, Note_on_c, 0, 66, 0
2, 35232, Note_on_c, 0, 74, 84
2, 35255, Note_on_c, 0, 74, 0
2, 35256, Note_on_c, 0, 73, 84
2, 35279, Note_on_c, 0, 73, 0
2, 35280, Note_on_c, 0, 74, 84
2, 35303, Note_on_c, 0, 74, 0
2, 35304, Note_on_c, 0, 66, 84
2, 35327, Note_on_c, 0, 66, 0
2, 35352, Note_on_c, 0, 79, 84
2, 35375, Note_on_c, 0, 79, 0
2, 35376, Note_on_c, 0, 76, 84
2, 35399, Note_on_c, 0, 76, 0
2, 35400, Note_on_c, 0, 79, 84
2, 35423, Note_on_c, 0, 79, 0
2, 35424, Note_on_c, 0, 73, 84
2, 35447, Note_on_c, 0, 73, 0
2, 35448, Note_on_c, 0, 76, 84
2, 35471, Note_on_c, 0, 76, 0
2, 35472, Note_on_c, 0, 70, 84
2, 35495, Note_on_c, 0, 70, 0
2, 35496, Note_on_c, 0, 73, 84
2, 35519, Note_on_c, 0, 73, 0
2, 35544, Note_on_c, 0, 83, 84
2, 35567, Note_on_c, 0, 83, 0
2, 35568, Note_on_c, 0, 78, 84
2, 35591, Note_on_c, 0, 78, 0
2, 35592, Note_on_c, 0, 83, 84
2, 35615, Note_on_c, 0, 83, 0
2, 35616, Note_on_c, 0, 74, 84
2, 35639, Note_on_c, 0, 74, 0
2, 35640, Note_on_c, 0, 78, 84
2, 35663, Note_on_c, 0, 78, 0
2, 35664, Note_on_c, 0, 71, 84
2, 35687, Note_on_c, 0, 71, 0
2, 35688, Note_on_c, 0, 74, 84
2, 35711, Note_on_c, 0, 74, 0
2, 35736, Note_on_c, 0, 79, 84
2, 35759, Note_on_c, 0, 79, 0
2, 35760, Note_on_c, 0, 76, 84
2, 35783, Note_on_c, 0, 76, 0
2, 35784, Note_on_c, 0, 79, 84
2, 35807, Note_on_c, 0, 79, 0
2, 35808, Note_on_c, 0, 73, 84
2, 35831, Note_on_c, 0, 73, 0
2, 35832, Note_on_c, 0, 76, 84
2, 35855, Note_on_c, 0, 76, 0
2, 35856, Note_on_c, 0, 70, 84
2, 35879, Note_on_c, 0, 70, 0
2, 35880, Note_on_c, 0, 73, 84
2, 35903, Note_on_c, 0, 73, 0
2, 35928, Note_on_c, 0, 83, 84
2, 35951, Note_on_c, 0, 83, 0
2, 35952, Note_on_c, 0, 78, 84
2, 35975, Note_on_c, 0, 78, 0
2, 35976, Note_on_c, 0, 83, 84
2, 35999, Note_on_c, 0, 83, 0
2, 36000, Note_on_c, 0, 74, 84
2, 36023, Note_on_c, 0, 74, 0
2, 36024, Note_on_c, 0, 78, 84
2, 36047, Note_on_c, 0, 78, 0
2, 36048, Note_on_c, 0, 71, 84
2, 36071, Note_on_c, 0, 71, 0
2, 36072, Note_on_c, 0, 74, 84
2, 36095, Note_on_c, 0, 74, 0
2, 36120, Control_c, 0, 64, 127
2, 36120, Note_on_c, 0, 84, 84
2, 36143, Note_on_c, 0, 84, 0
2, 36144, Note_on_c, 0, 79, 84
2, 36167, Note_on_c, 0, 79, 0
2, 36168, Note_on_c, 0, 84, 84
2, 36191, Note_on_c, 0, 84, 0
2, 36192, Note_on_c, 0, 76, 84
2, 36215, Note_on_c, 0, 76, 0
2, 36216, Note_on_c, 0, 79, 84
2, 36239, Note_on_c, 0, 79, 0
2, 36240, Note_on_c, 0, 72, 84
2, 36263, Note_on_c, 0, 72, 0
2, 36264, Note_on_c, 0, 76, 84
2, 36287, Note_on_c, 0, 76, 0
2, 36288, Note_on_c, 0, 67, 84
2, 36311, Note_on_c, 0, 67, 0
2, 36312, Note_on_c, 0, 72, 84
2, 36335, Note_on_c, 0, 72, 0
2, 36336, Note_on_c, 0, 64, 84
2, 36359, Note_on_c, 0, 64, 0
2, 36360, Note_on_c, 0, 67, 84
2, 36383, Note_on_c, 0, 67, 0
2, 36384, Note_on_c, 0, 60, 84
2, 36407, Note_on_c, 0, 60, 0
2, 36408, Note_on_c, 0, 64, 84
2, 36431, Note_on_c, 0, 64, 0
2, 36432, Note_on_c, 0, 55, 84
2, 36455, Note_on_c, 0, 55, 0
2, 36456, Control_c, 0, 64, 0
2, 36456, Note_on_c, 0, 60, 84
2, 36479, Note_on_c, 0, 60, 0
2, 36504, Control_c, 0, 64, 127
2, 36504, Note_on_c, 0, 59, 84
2, 36527, Note_on_c, 0, 59, 0
2, 36528, Note_on_c, 0, 62, 84
2, 36551, Note_on_c, 0, 62, 0
2, 36552, Note_on_c, 0, 65, 84
2, 36575, Note_on_c, 0, 65, 0
2, 36576, Note_on_c, 0, 68, 84
2, 36599, Note_on_c, 0, 68, 0
2, 36600, Note_on_c, 0, 62, 84
2, 36623, Note_on_c, 0, 62, 0
2, 36624, Note_on_c, 0, 65, 84
2, 36647, Note_on_c, 0, 65, 0
2, 36648, Note_on_c, 0, 68, 84
2, 36671, Note_on_c, 0, 68, 0
2, 36672, Note_on_c, 0, 71, 84
2, 36695, Note_on_c, 0, 71, 0
2, 36696, Note_on_c, 0, 65, 84
2, 36719, Note_on_c, 0, 65, 0
2, 36720, Note_on_c, 0, 68, 84
2, 36743, Note_on_c, 0, 68, 0
2, 36744, Note_on_c, 0, 71, 84
2, 36767, Note_on_c, 0, 71, 0
2, 36768, Note_on_c, 0, 74, 84
2, 36791, Note_on_c, 0, 74, 0
2, 36792, Note_on_c, 0, 71, 84
2, 36815, Note_on_c, 0, 71, 0
2, 36816, Note_on_c, 0, 68, 84
2, 36839, Note_on_c, 0, 68, 0
2, 36840, Control_c, 0, 64, 0
2, 36840, Note_on_c, 0, 65, 84
2, 36863, Note_on_c, 0, 65, 0
2, 36888, Control_c, 0, 64, 127
2, 36888, Note_on_c, 0, 59, 84
2, 36911, Note_on_c, 0, 59, 0
2, 36912, Note_on_c, 0, 62, 84
2, 36935, Note_on_c, 0, 62, 0
2, 36936, Note_on_c, 0, 66, 84
2, 36959, Note_on_c, 0, 66, 0
2, 36960, Note_on_c, 0, 71, 84
2, 36983, Note_on_c, 0, 71, 0
2, 36984, Note_on_c, 0, 62, 84
2, 37007, Note_on_c, 0, 62, 0
2, 37008, Note_on_c, 0, 66, 84
2, 37031, Note_on_c, 0, 66, 0
2, 37032, Note_on_c, 0, 71, 84
2, 37055, Note_on_c, 0, 71, 0
2, 37056, Note_on_c, 0, 74, 84
2, 37079, Note_on_c, 0, 74, 0
2, 37080, Note_on_c, 0, 71, 84
2, 37103, Note_on_c, 0, 71, 0
2, 37104, Note_on_c, 0, 74, 84
2, 37127, Note_on_c, 0, 74, 0
2, 37128, Note_on_c, 0, 78, 84
2, 37151, Note_on_c, 0, 78, 0
2, 37152, Note_on_c, 0, 83, 84
2, 37197, Note_on_c, 0, 83, 0
2, 37200, Control_c, 0, 64, 0
2, 37248, Note_on_c, 0, 74, 84
2, 37301, Note_on_c, 0, 74, 0
2, 37302, Note_on_c, 0, 73, 84
2, 37319, Note_on_c, 0, 73, 0
2, 37320, Note_on_c, 0, 74, 84
2, 37337, Note_on_c, 0, 74, 0
2, 37338, Note_on_c, 0, 73, 84
2, 37355, Note_on_c, 0, 73, 0
2, 37356, Note_on_c, 0, 74, 84
2, 37373, Note_on_c, 0, 74, 0
2, 37374, Note_on_c, 0, 73, 84
2, 37391, Note_on_c, 0, 73, 0
2, 37392, Note_on_c, 0, 74, 84
2, 37409, Note_on_c, 0, 74, 0
2, 37410, Note_on_c, 0, 73, 84
2, 37427, Note_on_c, 0, 73, 0
2, 37428, Note_on_c, 0, 74, 84
2, 37444, Note_on_c, 0, 74, 0
2, 37445, Note_on_c, 0, 73, 84
2, 37461, Note_on_c, 0, 73, 0
2, 37462, Note_on_c, 0, 74, 84
2, 37478, Note_on_c, 0, 74, 0
2, 37479, Note_on_c, 0, 73, 84
2, 37495, Note_on_c, 0, 73, 0
2, 37496, Note_on_c, 0, 74, 84
2, 37512, Note_on_c, 0, 74, 0
2, 37513, Note_on_c, 0, 73, 84
2, 37529, Note_on_c, 0, 73, 0
2, 37530, Note_on_c, 0, 74, 84
2, 37546, Note_on_c, 0, 74, 0
2, 37547, Note_on_c, 0, 73, 84
2, 37563, Note_on_c, 0, 73, 0
2, 37564, Note_on_c, 0, 71, 84
2, 37597, Note_on_c, 0, 71, 0
2, 37598, Note_on_c, 0, 73, 84
2, 37631, Note_on_c, 0, 73, 0
2, 37632, Note_on_c, 0, 75, 100
2, 37680, Note_on_c, 0, 75, 0
2, 37680, Note_on_c, 0, 75, 84
2, 37725, Note_on_c, 0, 75, 0
2, 37728, Note_on_c, 0, 75, 84
2, 37773, Note_on_c, 0, 75, 0
2, 37776, Note_on_c, 0, 75, 84
2, 37821, Note_on_c, 0, 75, 0
2, 37824, Note_on_c, 0, 76, 84
2, 37836, Note_on_c, 0, 76, 0
2, 37836, Note_on_c, 0, 78, 84
2, 37848, Note_on_c, 0, 78, 0
2, 37848, Note_on_c, 0, 76, 84
2, 37869, Note_on_c, 0, 76, 0
2, 37872, Note_on_c, 0, 75, 84
2, 37917, Note_on_c, 0, 75, 0
2, 37920, Note_on_c, 0, 76, 84
2, 37965, Note_on_c, 0, 76, 0
2, 37968, Note_on_c, 0, 79, 84
2, 38013, Note_on_c, 0, 79, 0
2, 38016, Note_on_c, 0, 73, 84
2, 38061, Note_on_c, 0, 73, 0
2, 38064, Note_on_c, 0, 73, 84
2, 38109, Note_on_c, 0, 73, 0
2, 38112, Note_on_c, 0, 73, 84
2, 38157, Note_on_c, 0, 73, 0
2, 38160, Note_on_c, 0, 73, 84
2, 38205, Note_on_c, 0, 73, 0
2, 38208, Note_on_c, 0, 73, 77
2, 38231, Note_on_c, 0, 73, 0
2, 38232, Note_on_c, 0, 74, 77
2, 38255, Note_on_c, 0, 74, 0
2, 38256, Note_on_c, 0, 76, 78
2, 38279, Note_on_c, 0, 76, 0
2, 38280, Note_on_c, 0, 78, 79
2, 38303, Note_on_c, 0, 78, 0
2, 38304, Note_on_c, 0, 79, 80
2, 38327, Note_on_c, 0, 79, 0
2, 38328, Note_on_c, 0, 81, 81
2, 38351, Note_on_c, 0, 81, 0
2, 38352, Note_on_c, 0, 83, 82
2, 38375, Note_on_c, 0, 83, 0
2, 38376, Note_on_c, 0, 85, 83
2, 38399, Note_on_c, 0, 85, 0
2, 38400, Note_on_c, 0, 85, 84
2, 38412, Note_on_c, 0, 85, 0
2, 38412, Note_on_c, 0, 86, 100
2, 38448, Note_on_c, 0, 86, 0
2, 38448, Note_on_c, 0, 74, 77
2, 38493, Note_on_c, 0, 74, 0
2, 38496, Note_on_c, 0, 74, 77
2, 38541, Note_on_c, 0, 74, 0
2, 38544, Note_on_c, 0, 74, 77
2, 38589, Note_on_c, 0, 74, 0
2, 38592, Note_on_c, 0, 76, 77
2, 38604, Note_on_c, 0, 76, 0
2, 38604, Note_on_c, 0, 78, 77
2, 38616, Note_on_c, 0, 78, 0
2, 38616, Note_on_c, 0, 76, 77
2, 38637, Note_on_c, 0, 76, 0
2, 38640, Note_on_c, 0, 74, 77
2, 38685, Note_on_c, 0, 74, 0
2, 38688, Note_on_c, 0, 76, 77
2, 38700, Note_on_c, 0, 76, 0
2, 38700, Note_on_c, 0, 78, 77
2, 38712, Note_on_c, 0, 78, 0
2, 38712, Note_on_c, 0, 76, 77
2, 38733, Note_on_c, 0, 76, 0
2, 38736, Note_on_c, 0, 74, 77
2, 38781, Note_on_c, 0, 74, 0
2, 38784, Note_on_c, 0, 85, 77
2, 38790, Note_on_c, 0, 85, 0
2, 38790, Note_on_c, 0, 86, 77
2, 38829, Note_on_c, 0, 86, 0
2, 38832, Note_on_c, 0, 74, 77
2, 38877, Note_on_c, 0, 74, 0
2, 38880, Note_on_c, 0, 74, 77
2, 38925, Note_on_c, 0, 74, 0
2, 38928, Note_on_c, 0, 74, 77
2, 38973, Note_on_c, 0, 74, 0
2, 38976, Note_on_c, 0, 76, 77
2, 38988, Note_on_c, 0, 76, 0
2, 38988, Note_on_c, 0, 78, 77
2, 39000, Note_on_c, 0, 78, 0
2, 39000, Note_on_c, 0, 76, 77
2, 39021, Note_on_c, 0, 76, 0
2, 39024, Note_on_c, 0, 74, 77
2, 39069, Note_on_c, 0, 74, 0
2, 39072, Note_on_c, 0, 76, 77
2, 39084, Note_on_c, 0, 76, 0
2, 39084, Note_on_c, 0, 78, 77
2, 39096, Note_on_c, 0, 78, 0
2, 39096, Note_on_c, 0, 76, 77
2, 39117, Note_on_c, 0, 76, 0
2, 39120, Note_on_c, 0, 74, 77
2, 39165, Note_on_c, 0, 74, 0
2, 39168, Note_on_c, 0, 79, 77
2, 39188, Note_on_c, 0, 79, 0
2, 39216, Note_on_c, 0, 79, 77
2, 39264, Note_on_c, 0, 79, 0
2, 39264, Note_on_c, 0, 78, 77
2, 39284, Note_on_c, 0, 78, 0
2, 39312, Note_on_c, 0, 78, 77
2, 39360, Note_on_c, 0, 78, 0
2, 39360, Note_on_c, 0, 83, 77
2, 39380, Note_on_c, 0, 83, 0
2, 39408, Note_on_c, 0, 83, 77
2, 39456, Note_on_c, 0, 83, 0
2, 39456, Note_on_c, 0, 81, 77
2, 39476, Note_on_c, 0, 81, 0
2, 39504, Note_on_c, 0, 81, 77
2, 39549, Note_on_c, 0, 81, 0
2, 39552, Note_on_c, 0, 79, 77
2, 39597, Note_on_c, 0, 79, 0
2, 39600, Note_on_c, 0, 76, 77
2, 39645, Note_on_c, 0, 76, 0
2, 39648, Note_on_c, 0, 78, 77
2, 39693, Note_on_c, 0, 78, 0
2, 39696, Note_on_c, 0, 74, 77
2, 39741, Note_on_c, 0, 74, 0
2, 39744, Note_on_c, 0, 73, 77
2, 39767, Note_on_c, 0, 73, 0
2, 39768, Note_on_c, 0, 74, 77
2, 39791, Note_on_c, 0, 74, 0
2, 39792, Note_on_c, 0, 76, 77
2, 39815, Note_on_c, 0, 76, 0
2, 39816, Note_on_c, 0, 73, 77
2, 39839, Note_on_c, 0, 73, 0
2, 39840, Note_on_c, 0, 69, 77
2, 39885, Note_on_c, 0, 69, 0
2, 39936, Note_on_c, 0, 85, 77
2, 39942, Note_on_c, 0, 85, 0
2, 39942, Note_on_c, 0, 86, 77
2, 39981, Note_on_c, 0, 86, 0
2, 39984, Note_on_c, 0, 74, 77
2, 40029, Note_on_c, 0, 74, 0
2, 40032, Note_on_c, 0, 74, 77
2, 40077, Note_on_c, 0, 74, 0
2, 40080, Note_on_c, 0, 74, 77
2, 40125, Note_on_c, 0, 74, 0
2, 40128, Note_on_c, 0, 76, 77
2, 40140, Note_on_c, 0, 76, 0
2, 40140, Note_on_c, 0, 78, 77
2, 40152, Note_on_c, 0, 78, 0
2, 40152, Note_on_c, 0, 76, 77
2, 40173, Note_on_c, 0, 76, 0
2, 40176, Note_on_c, 0, 74, 77
2, 40221, Note_on_c, 0, 74, 0
2, 40224, Note_on_c, 0, 76, 77
2, 40236, Note_on_c, 0, 76, 0
2, 40236, Note_on_c, 0, 78, 77
2, 40248, Note_on_c, 0, 78, 0
2, 40248, Note_on_c, 0, 76, 77
2, 40269, Note_on_c, 0, 76, 0
2, 40272, Note_on_c, 0, 74, 77
2, 40317, Note_on_c, 0, 74, 0
2, 40320, Note_on_c, 0, 85, 77
2, 40326, Note_on_c, 0, 85, 0
2, 40326, Note_on_c, 0, 86, 77
2, 40365, Note_on_c, 0, 86, 0
2, 40368, Note_on_c, 0, 74, 77
2, 40413, Note_on_c, 0, 74, 0
2, 40416, Note_on_c, 0, 74, 77
2, 40461, Note_on_c, 0, 74, 0
2, 40464, Note_on_c, 0, 74, 77
2, 40509, Note_on_c, 0, 74, 0
2, 40512, Note_on_c, 0, 76, 77
2, 40524, Note_on_c, 0, 76, 0
2, 40524, Note_on_c, 0, 78, 77
2, 40536, Note_on_c, 0, 78, 0
2, 40536, Note_on_c, 0, 76, 77
2, 40557, Note_on_c, 0, 76, 0
2, 40560, Note_on_c, 0, 74, 77
2, 40605, Note_on_c, 0, 74, 0
2, 40608, Note_on_c, 0, 76, 77
2, 40620, Note_on_c, 0, 76, 0
2, 40620, Note_on_c, 0, 78, 77
2, 40632, Note_on_c, 0, 78, 0
2, 40632, Note_on_c, 0, 76, 77
2, 40653, Note_on_c, 0, 76, 0
2, 40656, Note_on_c, 0, 74, 77
2, 40701, Note_on_c, 0, 74, 0
2, 40704, Note_on_c, 0, 79, 77
2, 40716, Note_on_c, 0, 79, 0
2, 40716, Note_on_c, 0, 81, 77
2, 40728, Note_on_c, 0, 81, 0
2, 40728, Note_on_c, 0, 79, 77
2, 40749, Note_on_c, 0, 79, 0
2, 40752, Note_on_c, 0, 78, 77
2, 40797, Note_on_c, 0, 78, 0
2, 40800, Note_on_c, 0, 79, 77
2, 40845, Note_on_c, 0, 79, 0
2, 40848, Note_on_c, 0, 76, 77
2, 40893, Note_on_c, 0, 76, 0
2, 40896, Note_on_c, 0, 78, 77
2, 40908, Note_on_c, 0, 78, 0
2, 40908, Note_on_c, 0, 79, 77
2, 40920, Note_on_c, 0, 79, 0
2, 40920, Note_on_c, 0, 78, 77
2, 40941, Note_on_c, 0, 78, 0
2, 40944, Note_on_c, 0, 76, 77
2, 40989, Note_on_c, 0, 76, 0
2, 40992, Note_on_c, 0, 78, 77
2, 41037, Note_on_c, 0, 78, 0
2, 41040, Note_on_c, 0, 74, 77
2, 41085, Note_on_c, 0, 74, 0
2, 41088, Note_on_c, 0, 76, 77
2, 41100, Note_on_c, 0, 76, 0
2, 41100, Note_on_c, 0, 78, 77
2, 41112, Note_on_c, 0, 78, 0
2, 41112, Note_on_c, 0, 76, 77
2, 41133, Note_on_c, 0, 76, 0
2, 41136, Note_on_c, 0, 75, 77
2, 41181, Note_on_c, 0, 75, 0
2, 41184, Note_on_c, 0, 76, 77
2, 41229, Note_on_c, 0, 76, 0
2, 41232, Note_on_c, 0, 73, 77
2, 41277, Note_on_c, 0, 73, 0
2, 41280, Note_on_c, 0, 74, 77
2, 41292, Note_on_c, 0, 74, 0
2, 41292, Note_on_c, 0, 76, 77
2, 41304, Note_on_c, 0, 76, 0
2, 41304, Note_on_c, 0, 74, 77
2, 41325, Note_on_c, 0, 74, 0
2, 41328, Note_on_c, 0, 73, 77
2, 41373, Note_on_c, 0, 73, 0
2, 41376, Note_on_c, 0, 74, 77
2, 41421, Note_on_c, 0, 74, 0
2, 41424, Note_on_c, 0, 78, 77
2, 41469, Note_on_c, 0, 78, 0
2, 41472, Note_on_c, 0, 79, 77
2, 41484, Note_on_c, 0, 79, 0
2, 41484, Note_on_c, 0, 81, 77
2, 41496, Note_on_c, 0, 81, 0
2, 41496, Note_on_c, 0, 79, 77
2, 41517, Note_on_c, 0, 79, 0
2, 41520, Note_on_c, 0, 78, 77
2, 41565, Note_on_c, 0, 78, 0
2, 41568, Note_on_c, 0, 79, 77
2, 41613, Note_on_c, 0, 79, 0
2, 41616, Note_on_c, 0, 76, 77
2, 41661, Note_on_c, 0, 76, 0
2, 41664, Note_on_c, 0, 78, 77
2, 41676, Note_on_c, 0, 78, 0
2, 41676, Note_on_c, 0, 79, 77
2, 41688, Note_on_c, 0, 79, 0
2, 41688, Note_on_c, 0, 78, 77
2, 41709, Note_on_c, 0, 78, 0
2, 41712, Note_on_c, 0, 76, 77
2, 41757, Note_on_c, 0, 76, 0
2, 41760, Note_on_c, 0, 78, 77
2, 41805, Note_on_c, 0, 78, 0
2, 41808, Note_on_c, 0, 74, 77
2, 41853, Note_on_c, 0, 74, 0
2, 41856, Note_on_c, 0, 76, 77
2, 41868, Note_on_c, 0, 76, 0
2, 41868, Note_on_c, 0, 78, 77
2, 41880, Note_on_c, 0, 78, 0
2, 41880, Note_on_c, 0, 76, 77
2, 41901, Note_on_c, 0, 76, 0
2, 41904, Note_on_c, 0, 75, 77
2, 41949, Note_on_c, 0, 75, 0
2, 41952, Note_on_c, 0, 76, 78
2, 41964, Note_on_c, 0, 76, 0
2, 41964, Note_on_c, 0, 78, 78
2, 41976, Note_on_c, 0, 78, 0
2, 41976, Note_on_c, 0, 76, 78
2, 41997, Note_on_c, 0, 76, 0
2, 42000, Note_on_c, 0, 75, 79
2, 42045, Note_on_c, 0, 75, 0
2, 42048, Note_on_c, 0, 76, 80
2, 42060, Note_on_c, 0, 76, 0
2, 42060, Note_on_c, 0, 78, 80
2, 42072, Note_on_c, 0, 78, 0
2, 42072, Note_on_c, 0, 76, 80
2, 42093, Note_on_c, 0, 76, 0
2, 42096, Note_on_c, 0, 75, 81
2, 42141, Note_on_c, 0, 75, 0
2, 42144, Note_on_c, 0, 76, 82
2, 42156, Note_on_c, 0, 76, 0
2, 42156, Note_on_c, 0, 78, 82
2, 42168, Note_on_c, 0, 78, 0
2, 42168, Note_on_c, 0, 76, 82
2, 42189, Note_on_c, 0, 76, 0
2, 42192, Note_on_c, 0, 75, 83
2, 42237, Note_on_c, 0, 75, 0
2, 42240, Note_on_c, 0, 76, 84
2, 42263, Note_on_c, 0, 76, 0
2, 42264, Note_on_c, 0, 79, 84
2, 42287, Note_on_c, 0, 79, 0
2, 42288, Note_on_c, 0, 78, 84
2, 42311, Note_on_c, 0, 78, 0
2, 42312, Note_on_c, 0, 81, 84
2, 42335, Note_on_c, 0, 81, 0
2, 42336, Note_on_c, 0, 79, 84
2, 42359, Note_on_c, 0, 79, 0
2, 42360, Note_on_c, 0, 83, 84
2, 42383, Note_on_c, 0, 83, 0
2, 42384, Note_on_c, 0, 81, 84
2, 42407, Note_on_c, 0, 81, 0
2, 42408, Note_on_c, 0, 84, 84
2, 42431, Note_on_c, 0, 84, 0
2, 42432, Note_on_c, 0, 83, 84
2, 42455, Note_on_c, 0, 83, 0
2, 42456, Note_on_c, 0, 81, 84
2, 42479, Note_on_c, 0, 81, 0
2, 42480, Note_on_c, 0, 79, 84
2, 42503, Note_on_c, 0, 79, 0
2, 42504, Note_on_c, 0, 78, 84
2, 42527, Note_on_c, 0, 78, 0
2, 42528, Note_on_c, 0, 76, 84
2, 42551, Note_on_c, 0, 76, 0
2, 42552, Note_on_c, 0, 74, 84
2, 42575, Note_on_c, 0, 74, 0
2, 42576, Note_on_c, 0, 73, 84
2, 42599, Note_on_c, 0, 73, 0
2, 42600, Note_on_c, 0, 71, 84
2, 42623, Note_on_c, 0, 71, 0
2, 42624, Note_on_c, 0, 69, 84
2, 42647, Note_on_c, 0, 69, 0
2, 42648, Note_on_c, 0, 81, 84
2, 42671, Note_on_c, 0, 81, 0
2, 42672, Note_on_c, 0, 80, 84
2, 42695, Note_on_c, 0, 80, 0
2, 42696, Note_on_c, 0, 81, 84
2, 42719, Note_on_c, 0, 81, 0
2, 42720, Note_on_c, 0, 80, 84
2, 42743, Note_on_c, 0, 80, 0
2, 42744, Note_on_c, 0, 81, 84
2, 42767, Note_on_c, 0, 81, 0
2, 42768, Note_on_c, 0, 80, 84
2, 42791, Note_on_c, 0, 80, 0
2, 42792, Note_on_c, 0, 81, 84
2, 42815, Note_on_c, 0, 81, 0
2, 42816, Note_on_c, 0, 69, 84
2, 42839, Note_on_c, 0, 69, 0
2, 42840, Note_on_c, 0, 79, 84
2, 42863, Note_on_c, 0, 79, 0
2, 42864, Note_on_c, 0, 78, 84
2, 42887, Note_on_c, 0, 78, 0
2, 42888, Note_on_c, 0, 79, 84
2, 42911, Note_on_c, 0, 79, 0
2, 42912, Note_on_c, 0, 78, 84
2, 42935, Note_on_c, 0, 78, 0
2, 42936, Note_on_c, 0, 79, 84
2, 42959, Note_on_c, 0, 79, 0
2, 42960, Note_on_c, 0, 78, 84
2, 42983, Note_on_c, 0, 78, 0
2, 42984, Note_on_c, 0, 79, 84
2, 43007, Note_on_c, 0, 79, 0
2, 43008, Note_on_c, 0, 69, 84
2, 43031, Note_on_c, 0, 69, 0
2, 43032, Note_on_c, 0, 78, 84
2, 43055, Note_on_c, 0, 78, 0
2, 43056, Note_on_c, 0, 77, 84
2, 43079, Note_on_c, 0, 77, 0
2, 43080, Note_on_c, 0, 78, 84
2, 43103, Note_on_c, 0, 78, 0
2, 43104, Note_on_c, 0, 77, 84
2, 43127, Note_on_c, 0, 77, 0
2, 43128, Note_on_c, 0, 78, 84
2, 43151, Note_on_c, 0, 78, 0
2, 43152, Note_on_c, 0, 77, 84
2, 43175, Note_on_c, 0, 77, 0
2, 43176, Note_on_c, 0, 78, 84
2, 43199, Note_on_c, 0, 78, 0
2, 43200, Note_on_c, 0, 69, 84
2, 43223, Note_on_c, 0, 69, 0
2, 43224, Note_on_c, 0, 76, 84
2, 43247, Note_on_c, 0, 76, 0
2, 43248, Note_on_c, 0, 75, 84
2, 43271, Note_on_c, 0, 75, 0
2, 43272, Note_on_c, 0, 76, 84
2, 43295, Note_on_c, 0, 76, 0
2, 43296, Note_on_c, 0, 75, 84
2, 43319, Note_on_c, 0, 75, 0
2, 43320, Note_on_c, 0, 76, 84
2, 43343, Note_on_c, 0, 76, 0
2, 43344, Note_on_c, 0, 75, 84
2, 43367, Note_on_c, 0, 75, 0
2, 43368, Note_on_c, 0, 76, 84
2, 43391, Note_on_c, 0, 76, 0
2, 43392, Note_on_c, 0, 74, 84
2, 43415, Note_on_c, 0, 74, 0
2, 43416, Note_on_c, 0, 69, 84
2, 43439, Note_on_c, 0, 69, 0
2, 43440, Note_on_c, 0, 66, 84
2, 43463, Note_on_c, 0, 66, 0
2, 43464, Note_on_c, 0, 69, 84
2, 43487, Note_on_c, 0, 69, 0
2, 43488, Note_on_c, 0, 74, 84
2, 43511, Note_on_c, 0, 74, 0
2, 43512, Note_on_c, 0, 69, 84
2, 43535, Note_on_c, 0, 69, 0
2, 43536, Note_on_c, 0, 76, 84
2, 43559, Note_on_c, 0, 76, 0
2, 43560, Note_on_c, 0, 69, 84
2, 43583, Note_on_c, 0, 69, 0
2, 43584, Note_on_c, 0, 78, 84
2, 43607, Note_on_c, 0, 78, 0
2, 43608, Note_on_c, 0, 69, 84
2, 43631, Note_on_c, 0, 69, 0
2, 43632, Note_on_c, 0, 79, 84
2, 43655, Note_on_c, 0, 79, 0
2, 43656, Note_on_c, 0, 69, 84
2, 43679, Note_on_c, 0, 69, 0
2, 43680, Note_on_c, 0, 81, 84
2, 43703, Note_on_c, 0, 81, 0
2, 43704, Note_on_c, 0, 69, 84
2, 43727, Note_on_c, 0, 69, 0
2, 43728, Note_on_c, 0, 79, 84
2, 43751, Note_on_c, 0, 79, 0
2, 43752, Note_on_c, 0, 69, 84
2, 43775, Note_on_c, 0, 69, 0
2, 43776, Note_on_c, 0, 78, 84
2, 43799, Note_on_c, 0, 78, 0
2, 43800, Note_on_c, 0, 74, 84
2, 43823, Note_on_c, 0, 74, 0
2, 43824, Note_on_c, 0, 69, 84
2, 43847, Note_on_c, 0, 69, 0
2, 43848, Note_on_c, 0, 74, 84
2, 43871, Note_on_c, 0, 74, 0
2, 43872, Note_on_c, 0, 78, 84
2, 43895, Note_on_c, 0, 78, 0
2, 43896, Note_on_c, 0, 74, 84
2, 43919, Note_on_c, 0, 74, 0
2, 43920, Note_on_c, 0, 79, 84
2, 43943, Note_on_c, 0, 79, 0
2, 43944, Note_on_c, 0, 74, 84
2, 43967, Note_on_c, 0, 74, 0
2, 43968, Note_on_c, 0, 81, 84
2, 43991, Note_on_c, 0, 81, 0
2, 43992, Note_on_c, 0, 74, 84
2, 44015, Note_on_c, 0, 74, 0
2, 44016, Note_on_c, 0, 83, 84
2, 44039, Note_on_c, 0, 83, 0
2, 44040, Note_on_c, 0, 74, 84
2, 44063, Note_on_c, 0, 74, 0
2, 44064, Note_on_c, 0, 81, 84
2, 44087, Note_on_c, 0, 81, 0
2, 44088, Note_on_c, 0, 74, 84
2, 44111, Note_on_c, 0, 74, 0
2, 44112, Note_on_c, 0, 79, 84
2, 44135, Note_on_c, 0, 79, 0
2, 44136, Note_on_c, 0, 74, 84
2, 44159, Note_on_c, 0, 74, 0
2, 44160, Note_on_c, 0, 78, 84
2, 44183, Note_on_c, 0, 78, 0
2, 44184, Note_on_c, 0, 74, 84
2, 44207, Note_on_c, 0, 74, 0
2, 44208, Note_on_c, 0, 73, 84
2, 44231, Note_on_c, 0, 73, 0
2, 44232, Note_on_c, 0, 74, 84
2, 44255, Note_on_c, 0, 74, 0
2, 44256, Note_on_c, 0, 83, 84
2, 44279, Note_on_c, 0, 83, 0
2, 44280, Note_on_c, 0, 74, 84
2, 44303, Note_on_c, 0, 74, 0
2, 44304, Note_on_c, 0, 73, 84
2, 44327, Note_on_c, 0, 73, 0
2, 44328, Note_on_c, 0, 74, 84
2, 44351, Note_on_c, 0, 74, 0
2, 44352, Note_on_c, 0, 81, 84
2, 44375, Note_on_c, 0, 81, 0
2, 44376, Note_on_c, 0, 74, 84
2, 44399, Note_on_c, 0, 74, 0
2, 44400, Note_on_c, 0, 73, 84
2, 44423, Note_on_c, 0, 73, 0
2, 44424, Note_on_c, 0, 74, 84
2, 44447, Note_on_c, 0, 74, 0
2, 44448, Note_on_c, 0, 79, 84
2, 44471, Note_on_c, 0, 79, 0
2, 44472, Note_on_c, 0, 74, 84
2, 44495, Note_on_c, 0, 74, 0
2, 44496, Note_on_c, 0, 73, 84
2, 44519, Note_on_c, 0, 73, 0
2, 44520, Note_on_c, 0, 74, 84
2, 44543, Note_on_c, 0, 74, 0
2, 44544, Note_on_c, 0, 78, 84
2, 44567, Note_on_c, 0, 78, 0
2, 44568, Note_on_c, 0, 74, 84
2, 44591, Note_on_c, 0, 74, 0
2, 44592, Note_on_c, 0, 73, 84
2, 44615, Note_on_c, 0, 73, 0
2, 44616, Note_on_c, 0, 74, 84
2, 44639, Note_on_c, 0, 74, 0
2, 44640, Note_on_c, 0, 83, 84
2, 44663, Note_on_c, 0, 83, 0
2, 44664, Note_on_c, 0, 74, 84
2, 44687, Note_on_c, 0, 74, 0
2, 44688, Note_on_c, 0, 86, 84
2, 44711, Note_on_c, 0, 86, 0
2, 44712, Note_on_c, 0, 74, 84
2, 44735, Note_on_c, 0, 74, 0
2, 44736, Note_on_c, 0, 81, 84
2, 44759, Note_on_c, 0, 81, 0
2, 44760, Note_on_c, 0, 74, 84
2, 44783, Note_on_c, 0, 74, 0
2, 44784, Note_on_c, 0, 86, 84
2, 44807, Note_on_c, 0, 86, 0
2, 44808, Note_on_c, 0, 74, 84
2, 44831, Note_on_c, 0, 74, 0
2, 44832, Note_on_c, 0, 79, 84
2, 44855, Note_on_c, 0, 79, 0
2, 44856, Note_on_c, 0, 74, 84
2, 44879, Note_on_c, 0, 74, 0
2, 44880, Note_on_c, 0, 86, 84
2, 44903, Note_on_c, 0, 86, 0
2, 44904, Note_on_c, 0, 74, 84
2, 44927, Note_on_c, 0, 74, 0
2, 44928, Note_on_c, 0, 78, 84
2, 44951, Note_on_c, 0, 78, 0
2, 44952, Note_on_c, 0, 74, 84
2, 44975, Note_on_c, 0, 74, 0
2, 44976, Note_on_c, 0, 86, 84
2, 44999, Note_on_c, 0, 86, 0
2, 45000, Note_on_c, 0, 74, 85
2, 45023, Note_on_c, 0, 74, 0
2, 45024, Note_on_c, 0, 78, 85
2, 45047, Note_on_c, 0, 78, 0
2, 45048, Note_on_c, 0, 74, 86
2, 45071, Note_on_c, 0, 74, 0
2, 45072, Note_on_c, 0, 86, 86
2, 45095, Note_on_c, 0, 86, 0
2, 45096, Note_on_c, 0, 74, 87
2, 45119, Note_on_c, 0, 74, 0
2, 45120, Note_on_c, 0, 80, 87
2, 45143, Note_on_c, 0, 80, 0
2, 45144, Note_on_c, 0, 74, 87
2, 45167, Note_on_c, 0, 74, 0
2, 45168, Note_on_c, 0, 86, 88
2, 45191, Note_on_c, 0, 86, 0
2, 45192, Note_on_c, 0, 74, 88
2, 45215, Note_on_c, 0, 74, 0
2, 45216, Note_on_c, 0, 80, 89
2, 45239, Note_on_c, 0, 80, 0
2, 45240, Note_on_c, 0, 74, 89
2, 45263, Note_on_c, 0, 74, 0
2, 45264, Note_on_c, 0, 86, 90
2, 45287, Note_on_c, 0, 86, 0
2, 45288, Note_on_c, 0, 74, 90
2, 45311, Note_on_c, 0, 74, 0
2, 45312, Note_on_c, 0, 85, 91
2, 45312, Note_on_c, 0, 81, 91
2, 45401, Note_on_c, 0, 85, 0
2, 45401, Note_on_c, 0, 81, 0
2, 45408, Note_on_c, 0, 69, 84
2, 45408, Note_on_c, 0, 61, 84
2, 45475, Note_on_c, 0, 69, 0
2, 45475, Note_on_c, 0, 61, 0
2, 45480, Note_on_c, 0, 69, 84
2, 45480, Note_on_c, 0, 61, 84
2, 45503, Note_on_c, 0, 69, 0
2, 45503, Note_on_c, 0, 61, 0
2, 45504, Note_on_c, 0, 69, 84
2, 45504, Note_on_c, 0, 61, 84
2, 45593, Note_on_c, 0, 69, 0
2, 45593, Note_on_c, 0, 61, 0
2, 45696, Note_on_c, 0, 83, 77
2, 45702, Note_on_c, 0, 83, 0
2, 45702, Note_on_c, 0, 81, 77
2, 45719, Note_on_c, 0, 81, 0
2, 45720, Note_on_c, 0, 80, 77
2, 45743, Note_on_c, 0, 80, 0
2, 45744, Note_on_c, 0, 81, 77
2, 45767, Note_on_c, 0, 81, 0
2, 45768, Note_on_c, 0, 83, 77
2, 45791, Note_on_c, 0, 83, 0
2, 45792, Note_on_c, 0, 81, 77
2, 45837, Note_on_c, 0, 81, 0
2, 45888, Note_on_c, 0, 74, 77
2, 45894, Note_on_c, 0, 74, 0
2, 45894, Note_on_c, 0, 73, 77
2, 45911, Note_on_c, 0, 73, 0
2, 45912, Note_on_c, 0, 71, 77
2, 45935, Note_on_c, 0, 71, 0
2, 45936, Note_on_c, 0, 73, 77
2, 45959, Note_on_c, 0, 73, 0
2, 45960, Note_on_c, 0, 74, 77
2, 45983, Note_on_c, 0, 74, 0
2, 45984, Note_on_c, 0, 73, 77
2, 46029, Note_on_c, 0, 73, 0
2, 46080, Note_on_c, 0, 81, 77
2, 46086, Note_on_c, 0, 81, 0
2, 46086, Note_on_c, 0, 79, 77
2, 46103, Note_on_c, 0, 79, 0
2, 46104, Note_on_c, 0, 78, 77
2, 46127, Note_on_c, 0, 78, 0
2, 46128, Note_on_c, 0, 79, 77
2, 46151, Note_on_c, 0, 79, 0
2, 46152, Note_on_c, 0, 81, 77
2, 46175, Note_on_c, 0, 81, 0
2, 46176, Note_on_c, 0, 79, 77
2, 46221, Note_on_c, 0, 79, 0
2, 46272, Note_on_c, 0, 79, 77
2, 46278, Note_on_c, 0, 79, 0
2, 46278, Note_on_c, 0, 78, 77
2, 46295, Note_on_c, 0, 78, 0
2, 46296, Note_on_c, 0, 76, 77
2, 46319, Note_on_c, 0, 76, 0
2, 46320, Note_on_c, 0, 78, 77
2, 46343, Note_on_c, 0, 78, 0
2, 46344, Note_on_c, 0, 79, 77
2, 46367, Note_on_c, 0, 79, 0
2, 46368, Note_on_c, 0, 78, 77
2, 46413, Note_on_c, 0, 78, 0
2, 46464, Note_on_c, 0, 78, 77
2, 46470, Note_on_c, 0, 78, 0
2, 46470, Note_on_c, 0, 76, 77
2, 46487, Note_on_c, 0, 76, 0
2, 46488, Note_on_c, 0, 75, 77
2, 46511, Note_on_c, 0, 75, 0
2, 46512, Note_on_c, 0, 76, 77
2, 46535, Note_on_c, 0, 76, 0
2, 46536, Note_on_c, 0, 78, 77
2, 46559, Note_on_c, 0, 78, 0
2, 46560, Note_on_c, 0, 76, 77
2, 46605, Note_on_c, 0, 76, 0
2, 46656, Note_on_c, 0, 67, 77
2, 46656, Note_on_c, 0, 64, 77
2, 46701, Note_on_c, 0, 67, 0
2, 46701, Note_on_c, 0, 64, 0
2, 46704, Note_on_c, 0, 79, 77
2, 46704, Note_on_c, 0, 76, 77
2, 46749, Note_on_c, 0, 79, 0
2, 46749, Note_on_c, 0, 76, 0
2, 46752, Note_on_c, 0, 79, 77
2, 46752, Note_on_c, 0, 76, 77
2, 46797, Note_on_c, 0, 79, 0
2, 46797, Note_on_c, 0, 76, 0
2, 46800, Note_on_c, 0, 78, 77
2, 46800, Note_on_c, 0, 75, 77
2, 46845, Note_on_c, 0, 78, 0
2, 46845, Note_on_c, 0, 75, 0
2, 46848, Note_on_c, 0, 78, 77
2, 46854, Note_on_c, 0, 78, 0
2, 46854, Note_on_c, 0, 76, 77
2, 46871, Note_on_c, 0, 76, 0
2, 46872, Note_on_c, 0, 75, 77
2, 46895, Note_on_c, 0, 75, 0
2, 46896, Note_on_c, 0, 76, 77
2, 46919, Note_on_c, 0, 76, 0
2, 46920, Note_on_c, 0, 78, 77
2, 46943, Note_on_c, 0, 78, 0
2, 46944, Note_on_c, 0, 76, 77
2, 46989, Note_on_c, 0, 76, 0
2, 47040, Note_on_c, 0, 67, 77
2, 47040, Note_on_c, 0, 64, 77
2, 47085, Note_on_c, 0, 67, 0
2, 47085, Note_on_c, 0, 64, 0
2, 47088, Note_on_c, 0, 79, 77
2, 47088, Note_on_c, 0, 76, 77
2, 47133, Note_on_c, 0, 79, 0
2, 47133, Note_on_c, 0, 76, 0
2, 47136, Note_on_c, 0, 79, 77
2, 47136, Note_on_c, 0, 76, 77
2, 47181, Note_on_c, 0, 79, 0
2, 47181, Note_on_c, 0, 76, 0
2, 47184, Note_on_c, 0, 78, 77
2, 47184, Note_on_c, 0, 75, 77
2, 47229, Note_on_c, 0, 78, 0
2, 47229, Note_on_c, 0, 75, 0
2, 47232, Note_on_c, 0, 78, 77
2, 47238, Note_on_c, 0, 78, 0
2, 47238, Note_on_c, 0, 76, 77
2, 47255, Note_on_c, 0, 76, 0
2, 47256, Note_on_c, 0, 75, 77
2, 47279, Note_on_c, 0, 75, 0
2, 47280, Note_on_c, 0, 76, 77
2, 47303, Note_on_c, 0, 76, 0
2, 47304, Note_on_c, 0, 78, 78
2, 47327, Note_on_c, 0, 78, 0
2, 47328, Note_on_c, 0, 76, 78
2, 47373, Note_on_c, 0, 76, 0
2, 47424, Note_on_c, 0, 76, 80
2, 47430, Note_on_c, 0, 76, 0
2, 47430, Note_on_c, 0, 74, 80
2, 47447, Note_on_c, 0, 74, 0
2, 47448, Note_on_c, 0, 73, 80
2, 47471, Note_on_c, 0, 73, 0
2, 47472, Note_on_c, 0, 74, 81
2, 47495, Note_on_c, 0, 74, 0
2, 47496, Note_on_c, 0, 76, 81
2, 47519, Note_on_c, 0, 76, 0
2, 47520, Note_on_c, 0, 74, 82
2, 47565, Note_on_c, 0, 74, 0
2, 47616, Note_on_c, 0, 81, 100
2, 47664, Note_on_c, 0, 81, 0
2, 47664, Note_on_c, 0, 69, 84
2, 47709, Note_on_c, 0, 69, 0
2, 47712, Note_on_c, 0, 69, 84
2, 47757, Note_on_c, 0, 69, 0
2, 47760, Note_on_c, 0, 69, 84
2, 47805, Note_on_c, 0, 69, 0
2, 47808, Note_on_c, 0, 69, 84
2, 47831, Note_on_c, 0, 69, 0
2, 47832, Note_on_c, 0, 71, 84
2, 47855, Note_on_c, 0, 71, 0
2, 47856, Note_on_c, 0, 69, 84
2, 47879, Note_on_c, 0, 69, 0
2, 47880, Note_on_c, 0, 67, 84
2, 47903, Note_on_c, 0, 67, 0
2, 47904, Note_on_c, 0, 66, 84
2, 47927, Note_on_c, 0, 66, 0
2, 47928, Note_on_c, 0, 64, 84
2, 47951, Note_on_c, 0, 64, 0
2, 47952, Note_on_c, 0, 62, 84
2, 47975, Note_on_c, 0, 62, 0
2, 47976, Note_on_c, 0, 61, 84
2, 47999, Note_on_c, 0, 61, 0
2, 48000, Note_on_c, 0, 62, 84
2, 48023, Note_on_c, 0, 62, 0
2, 48024, Note_on_c, 0, 66, 84
2, 48047, Note_on_c, 0, 66, 0
2, 48048, Note_on_c, 0, 64, 84
2, 48071, Note_on_c, 0, 64, 0
2, 48072, Note_on_c, 0, 67, 84
2, 48095, Note_on_c, 0, 67, 0
2, 48096, Note_on_c, 0, 66, 84
2, 48119, Note_on_c, 0, 66, 0
2, 48120, Note_on_c, 0, 69, 84
2, 48143, Note_on_c, 0, 69, 0
2, 48144, Note_on_c, 0, 67, 84
2, 48167, Note_on_c, 0, 67, 0
2, 48168, Note_on_c, 0, 71, 84
2, 48191, Note_on_c, 0, 71, 0
2, 48192, Note_on_c, 0, 69, 84
2, 48237, Note_on_c, 0, 69, 0
2, 48240, Note_on_c, 0, 71, 84
2, 48263, Note_on_c, 0, 71, 0
2, 48264, Note_on_c, 0, 73, 84
2, 48287, Note_on_c, 0, 73, 0
2, 48288, Note_on_c, 0, 74, 84
2, 48311, Note_on_c, 0, 74, 0
2, 48312, Note_on_c, 0, 76, 84
2, 48335, Note_on_c, 0, 76, 0
2, 48336, Note_on_c, 0, 78, 84
2, 48359, Note_on_c, 0, 78, 0
2, 48360, Note_on_c, 0, 79, 84
2, 48383, Note_on_c, 0, 79, 0
2, 48384, Note_on_c, 0, 81, 100
2, 48432, Note_on_c, 0, 81, 0
2, 48432, Note_on_c, 0, 69, 84
2, 48477, Note_on_c, 0, 69, 0
2, 48480, Note_on_c, 0, 69, 84
2, 48525, Note_on_c, 0, 69, 0
2, 48528, Note_on_c, 0, 69, 84
2, 48573, Note_on_c, 0, 69, 0
2, 48576, Note_on_c, 0, 69, 84
2, 48599, Note_on_c, 0, 69, 0
2, 48600, Note_on_c, 0, 71, 84
2, 48623, Note_on_c, 0, 71, 0
2, 48624, Note_on_c, 0, 69, 84
2, 48647, Note_on_c, 0, 69, 0
2, 48648, Note_on_c, 0, 67, 84
2, 48671, Note_on_c, 0, 67, 0
2, 48672, Note_on_c, 0, 66, 84
2, 48695, Note_on_c, 0, 66, 0
2, 48696, Note_on_c, 0, 64, 84
2, 48719, Note_on_c, 0, 64, 0
2, 48720, Note_on_c, 0, 62, 84
2, 48743, Note_on_c, 0, 62, 0
2, 48744, Note_on_c, 0, 61, 84
2, 48767, Note_on_c, 0, 61, 0
2, 48768, Note_on_c, 0, 62, 84
2, 48791, Note_on_c, 0, 62, 0
2, 48792, Note_on_c, 0, 66, 84
2, 48815, Note_on_c, 0, 66, 0
2, 48816, Note_on_c, 0, 64, 84
2, 48839, Note_on_c, 0, 64, 0
2, 48840, Note_on_c, 0, 67, 84
2, 48863, Note_on_c, 0, 67, 0
2, 48864, Note_on_c, 0, 66, 84
2, 48887, Note_on_c, 0, 66, 0
2, 48888, Note_on_c, 0, 69, 84
2, 48911, Note_on_c, 0, 69, 0
2, 48912, Note_on_c, 0, 67, 84
2, 48935, Note_on_c, 0, 67, 0
2, 48936, Note_on_c, 0, 71, 84
2, 48959, Note_on_c, 0, 71, 0
2, 48960, Note_on_c, 0, 69, 84
2, 49005, Note_on_c, 0, 69, 0
2, 49008, Note_on_c, 0, 71, 84
2, 49031, Note_on_c, 0, 71, 0
2, 49032, Note_on_c, 0, 73, 84
2, 49055, Note_on_c, 0, 73, 0
2, 49056, Note_on_c, 0, 74, 84
2, 49079, Note_on_c, 0, 74, 0
2, 49080, Note_on_c, 0, 76, 84
2, 49103, Note_on_c, 0, 76, 0
2, 49104, Note_on_c, 0, 78, 84
2, 49127, Note_on_c, 0, 78, 0
2, 49128, Note_on_c, 0, 79, 84
2, 49151, Note_on_c, 0, 79, 0
2, 49152, Note_on_c, 0, 81, 100
2, 49176, Note_on_c, 0, 81, 0
2, 49176, Note_on_c, 0, 71, 84
2, 49199, Note_on_c, 0, 71, 0
2, 49200, Note_on_c, 0, 70, 84
2, 49223, Note_on_c, 0, 70, 0
2, 49224, Note_on_c, 0, 71, 84
2, 49247, Note_on_c, 0, 71, 0
2, 49248, Note_on_c, 0, 70, 84
2, 49271, Note_on_c, 0, 70, 0
2, 49272, Note_on_c, 0, 71, 84
2, 49295, Note_on_c, 0, 71, 0
2, 49296, Note_on_c, 0, 70, 84
2, 49319, Note_on_c, 0, 70, 0
2, 49320, Note_on_c, 0, 71, 84
2, 49343, Note_on_c, 0, 71, 0
2, 49344, Note_on_c, 0, 79, 100
2, 49368, Note_on_c, 0, 79, 0
2, 49368, Note_on_c, 0, 67, 84
2, 49391, Note_on_c, 0, 67, 0
2, 49392, Note_on_c, 0, 66, 84
2, 49415, Note_on_c, 0, 66, 0
2, 49416, Note_on_c, 0, 67, 84
2, 49439, Note_on_c, 0, 67, 0
2, 49440, Note_on_c, 0, 66, 84
2, 49463, Note_on_c, 0, 66, 0
2, 49464, Note_on_c, 0, 67, 84
2, 49487, Note_on_c, 0, 67, 0
2, 49488, Note_on_c, 0, 66, 84
2, 49511, Note_on_c, 0, 66, 0
2, 49512, Note_on_c, 0, 67, 84
2, 49535, Note_on_c, 0, 67, 0
2, 49536, Note_on_c, 0, 79, 100
2, 49560, Note_on_c, 0, 79, 0
2, 49560, Note_on_c, 0, 76, 84
2, 49583, Note_on_c, 0, 76, 0
2, 49584, Note_on_c, 0, 75, 84
2, 49607, Note_on_c, 0, 75, 0
2, 49608, Note_on_c, 0, 76, 84
2, 49631, Note_on_c, 0, 76, 0
2, 49632, Note_on_c, 0, 75, 84
2, 49655, Note_on_c, 0, 75, 0
2, 49656, Note_on_c, 0, 76, 84
2, 49679, Note_on_c, 0, 76, 0
2, 49680, Note_on_c, 0, 75, 84
2, 49703, Note_on_c, 0, 75, 0
2, 49704, Note_on_c, 0, 76, 84
2, 49727, Note_on_c, 0, 76, 0
2, 49728, Note_on_c, 0, 78, 100
2, 49752, Note_on_c, 0, 78, 0
2, 49752, Note_on_c, 0, 74, 84
2, 49775, Note_on_c, 0, 74, 0
2, 49776, Note_on_c, 0, 73, 84
2, 49799, Note_on_c, 0, 73, 0
2, 49800, Note_on_c, 0, 74, 84
2, 49823, Note_on_c, 0, 74, 0
2, 49824, Note_on_c, 0, 73, 84
2, 49847, Note_on_c, 0, 73, 0
2, 49848, Note_on_c, 0, 74, 84
2, 49871, Note_on_c, 0, 74, 0
2, 49872, Note_on_c, 0, 73, 84
2, 49895, Note_on_c, 0, 73, 0
2, 49896, Note_on_c, 0, 74, 84
2, 49919, Note_on_c, 0, 74, 0
2, 49920, Note_on_c, 0, 79, 100
2, 49944, Note_on_c, 0, 79, 0
2, 49944, Note_on_c, 0, 76, 84
2, 49967, Note_on_c, 0, 76, 0
2, 49968, Note_on_c, 0, 75, 84
2, 49991, Note_on_c, 0, 75, 0
2, 49992, Note_on_c, 0, 76, 84
2, 50015, Note_on_c, 0, 76, 0
2, 50016, Note_on_c, 0, 78, 100
2, 50040, Note_on_c, 0, 78, 0
2, 50040, Note_on_c, 0, 74, 84
2, 50063, Note_on_c, 0, 74, 0
2, 50064, Note_on_c, 0, 73, 84
2, 50087, Note_on_c, 0, 73, 0
2, 50088, Note_on_c, 0, 74, 84
2, 50111, Note_on_c, 0, 74, 0
2, 50112, Note_on_c, 0, 79, 100
2, 50136, Note_on_c, 0, 79, 0
2, 50136, Note_on_c, 0, 76, 84
2, 50159, Note_on_c, 0, 76, 0
2, 50160, Note_on_c, 0, 75, 84
2, 50183, Note_on_c, 0, 75, 0
2, 50184, Note_on_c, 0, 76, 84
2, 50207, Note_on_c, 0, 76, 0
2, 50208, Note_on_c, 0, 78, 100
2, 50232, Note_on_c, 0, 78, 0
2, 50232, Note_on_c, 0, 74, 84
2, 50255, Note_on_c, 0, 74, 0
2, 50256, Note_on_c, 0, 73, 84
2, 50279, Note_on_c, 0, 73, 0
2, 50280, Note_on_c, 0, 74, 84
2, 50303, Note_on_c, 0, 74, 0
2, 50304, Note_on_c, 0, 79, 93
2, 50328, Note_on_c, 0, 79, 0
2, 50328, Note_on_c, 0, 76, 77
2, 50351, Note_on_c, 0, 76, 0
2, 50352, Note_on_c, 0, 75, 77
2, 50375, Note_on_c, 0, 75, 0
2, 50376, Note_on_c, 0, 76, 77
2, 50399, Note_on_c, 0, 76, 0
2, 50400, Note_on_c, 0, 77, 93
2, 50424, Note_on_c, 0, 77, 0
2, 50424, Note_on_c, 0, 74, 77
2, 50447, Note_on_c, 0, 74, 0
2, 50448, Note_on_c, 0, 73, 77
2, 50471, Note_on_c, 0, 73, 0
2, 50472, Note_on_c, 0, 74, 77
2, 50495, Note_on_c, 0, 74, 0
2, 50496, Note_on_c, 0, 79, 93
2, 50520, Note_on_c, 0, 79, 0
2, 50520, Note_on_c, 0, 76, 77
2, 50543, Note_on_c, 0, 76, 0
2, 50544, Note_on_c, 0, 75, 77
2, 50567, Note_on_c, 0, 75, 0
2, 50568, Note_on_c, 0, 76, 77
2, 50591, Note_on_c, 0, 76, 0
2, 50592, Note_on_c, 0, 77, 93
2, 50616, Note_on_c, 0, 77, 0
2, 50616, Note_on_c, 0, 74, 77
2, 50639, Note_on_c, 0, 74, 0
2, 50640, Note_on_c, 0, 73, 77
2, 50663, Note_on_c, 0, 73, 0
2, 50664, Note_on_c, 0, 74, 77
2, 50687, Note_on_c, 0, 74, 0
2, 50712, Note_on_c, 0, 86, 107
2, 50736, Note_on_c, 0, 86, 0
2, 50736, Note_on_c, 0, 82, 91
2, 50759, Note_on_c, 0, 82, 0
2, 50760, Note_on_c, 0, 86, 91
2, 50783, Note_on_c, 0, 86, 0
2, 50784, Note_on_c, 0, 77, 91
2, 50807, Note_on_c, 0, 77, 0
2, 50808, Note_on_c, 0, 82, 91
2, 50831, Note_on_c, 0, 82, 0
2, 50832, Note_on_c, 0, 74, 91
2, 50855, Note_on_c, 0, 74, 0
2, 50856, Note_on_c, 0, 77, 91
2, 50879, Note_on_c, 0, 77, 0
2, 50880, Note_on_c, 0, 70, 91
2, 50925, Note_on_c, 0, 70, 0
2, 51000, Note_on_c, 0, 74, 91
2, 51023, Note_on_c, 0, 74, 0
2, 51024, Note_on_c, 0, 77, 91
2, 51047, Note_on_c, 0, 77, 0
2, 51048, Note_on_c, 0, 82, 91
2, 51071, Note_on_c, 0, 82, 0
2, 51072, Note_on_c, 0, 86, 91
2, 51095, Note_on_c, 0, 86, 0
2, 51096, Note_on_c, 0, 77, 91
2, 51119, Note_on_c, 0, 77, 0
2, 51120, Note_on_c, 0, 82, 91
2, 51143, Note_on_c, 0, 82, 0
2, 51144, Note_on_c, 0, 86, 91
2, 51167, Note_on_c, 0, 86, 0
2, 51168, Note_on_c, 0, 89, 91
2, 51191, Note_on_c, 0, 89, 0
2, 51192, Note_on_c, 0, 77, 91
2, 51215, Note_on_c, 0, 77, 0
2, 51216, Note_on_c, 0, 82, 91
2, 51239, Note_on_c, 0, 82, 0
2, 51240, Note_on_c, 0, 86, 91
2, 51263, Note_on_c, 0, 86, 0
2, 51264, Note_on_c, 0, 89, 91
2, 51309, Note_on_c, 0, 89, 0
2, 51360, Control_c, 0, 64, 0
2, 51480, Control_c, 0, 64, 127
2, 51480, Note_on_c, 0, 77, 91
2, 51503, Note_on_c, 0, 77, 0
2, 51504, Note_on_c, 0, 74, 91
2, 51527, Note_on_c, 0, 74, 0
2, 51528, Note_on_c, 0, 77, 91
2, 51551, Note_on_c, 0, 77, 0
2, 51552, Note_on_c, 0, 71, 91
2, 51575, Note_on_c, 0, 71, 0
2, 51576, Note_on_c, 0, 74, 91
2, 51599, Note_on_c, 0, 74, 0
2, 51600, Note_on_c, 0, 68, 91
2, 51623, Note_on_c, 0, 68, 0
2, 51624, Note_on_c, 0, 71, 91
2, 51647, Note_on_c, 0, 71, 0
2, 51648, Note_on_c, 0, 65, 91
2, 51671, Note_on_c, 0, 65, 0
2, 51672, Note_on_c, 0, 68, 91
2, 51695, Note_on_c, 0, 68, 0
2, 51696, Note_on_c, 0, 62, 91
2, 51719, Note_on_c, 0, 62, 0
2, 51720, Note_on_c, 0, 65, 91
2, 51743, Note_on_c, 0, 65, 0
2, 51744, Note_on_c, 0, 59, 91
2, 51767, Note_on_c, 0, 59, 0
2, 51768, Note_on_c, 0, 62, 91
2, 51791, Note_on_c, 0, 62, 0
2, 51792, Note_on_c, 0, 56, 91
2, 51815, Note_on_c, 0, 56, 0
2, 51816, Control_c, 0, 64, 0
2, 51816, Note_on_c, 0, 59, 91
2, 51839, Note_on_c, 0, 59, 0
2, 51888, Note_on_c, 0, 57, 84
2, 51908, Note_on_c, 0, 57, 0
2, 51936, Note_on_c, 0, 62, 84
2, 51956, Note_on_c, 0, 62, 0
2, 51984, Note_on_c, 0, 66, 84
2, 52004, Note_on_c, 0, 66, 0
2, 52032, Note_on_c, 0, 69, 84
2, 52052, Note_on_c, 0, 69, 0
2, 52080, Note_on_c, 0, 74, 84
2, 52100, Note_on_c, 0, 74, 0
2, 52128, Note_on_c, 0, 78, 84
2, 52148, Note_on_c, 0, 78, 0
2, 52176, Note_on_c, 0, 81, 84
2, 52196, Note_on_c, 0, 81, 0
2, 52416, Note_on_c, 0, 76, 84
2, 52434, Note_on_c, 0, 76, 0
2, 52434, Note_on_c, 0, 78, 84
2, 52452, Note_on_c, 0, 78, 0
2, 52452, Note_on_c, 0, 76, 84
2, 52470, Note_on_c, 0, 76, 0
2, 52470, Note_on_c, 0, 78, 84
2, 52488, Note_on_c, 0, 78, 0
2, 52488, Note_on_c, 0, 76, 84
2, 52506, Note_on_c, 0, 76, 0
2, 52506, Note_on_c, 0, 78, 84
2, 52524, Note_on_c, 0, 78, 0
2, 52524, Note_on_c, 0, 76, 84
2, 52542, Note_on_c, 0, 76, 0
2, 52542, Note_on_c, 0, 78, 84
2, 52549, Note_on_c, 0, 78, 0
2, 52560, Note_on_c, 0, 74, 84
2, 52583, Note_on_c, 0, 74, 0
2, 52584, Note_on_c, 0, 76, 84
2, 52607, Note_on_c, 0, 76, 0
2, 52608, Note_on_c, 0, 74, 84
2, 52653, Note_on_c, 0, 74, 0
2, 52704, Note_on_c, 0, 74, 84
2, 52704, Note_on_c, 0, 71, 84
2, 52724, Note_on_c, 0, 74, 0
2, 52724, Note_on_c, 0, 71, 0
2, 52752, Note_on_c, 0, 73, 84
2, 52752, Note_on_c, 0, 69, 84
2, 52772, Note_on_c, 0, 73, 0
2, 52772, Note_on_c, 0, 69, 0
2, 52800, Note_on_c, 0, 67, 84
2, 52800, Note_on_c, 0, 71, 84
2, 52812, Note_on_c, 0, 71, 0
2, 52812, Note_on_c, 0, 67, 0
2, 52812, Note_on_c, 0, 66, 84
2, 52812, Note_on_c, 0, 69, 84
2, 52824, Note_on_c, 0, 69, 0
2, 52824, Note_on_c, 0, 66, 0
2, 52824, Note_on_c, 0, 71, 84
2, 52824, Note_on_c, 0, 67, 84
2, 52845, Note_on_c, 0, 71, 0
2, 52845, Note_on_c, 0, 67, 0
2, 52896, Note_on_c, 0, 71, 84
2, 52896, Note_on_c, 0, 67, 84
2, 52916, Note_on_c, 0, 71, 0
2, 52916, Note_on_c, 0, 67, 0
2, 52944, Note_on_c, 0, 69, 84
2, 52944, Note_on_c, 0, 66, 84
2, 52964, Note_on_c, 0, 69, 0
2, 52964, Note_on_c, 0, 66, 0
2, 52992, Note_on_c, 0, 64, 84
2, 52992, Note_on_c, 0, 67, 84
2, 53004, Note_on_c, 0, 67, 0
2, 53004, Note_on_c, 0, 64, 0
2, 53004, Note_on_c, 0, 62, 84
2, 53004, Note_on_c, 0, 66, 84
2, 53016, Note_on_c, 0, 66, 0
2, 53016, Note_on_c, 0, 62, 0
2, 53016, Note_on_c, 0, 67, 84
2, 53016, Note_on_c, 0, 64, 84
2, 53037, Note_on_c, 0, 67, 0
2, 53037, Note_on_c, 0, 64, 0
2, 53088, Note_on_c, 0, 66, 77
2, 53088, Note_on_c, 0, 57, 77
2, 53133, Note_on_c, 0, 66, 0
2, 53133, Note_on_c, 0, 57, 0
2, 53136, Note_on_c, 0, 66, 77
2, 53136, Note_on_c, 0, 57, 77
2, 53181, Note_on_c, 0, 66, 0
2, 53181, Note_on_c, 0, 57, 0
2, 53184, Note_on_c, 0, 64, 77
2, 53184, Note_on_c, 0, 59, 77
2, 53229, Note_on_c, 0, 64, 0
2, 53229, Note_on_c, 0, 59, 0
2, 53280, Note_on_c, 0, 61, 77
2, 53280, Note_on_c, 0, 55, 77
2, 53325, Note_on_c, 0, 61, 0
2, 53325, Note_on_c, 0, 55, 0
2, 53328, Note_on_c, 0, 61, 77
2, 53328, Note_on_c, 0, 55, 77
2, 53373, Note_on_c, 0, 61, 0
2, 53373, Note_on_c, 0, 55, 0
2, 53376, Note_on_c, 0, 62, 77
2, 53376, Note_on_c, 0, 54, 77
2, 53421, Note_on_c, 0, 62, 0
2, 53421, Note_on_c, 0, 54, 0
2, 53472, Note_on_c, 0, 86, 84
2, 53495, Note_on_c, 0, 86, 0
2, 53496, Note_on_c, 0, 88, 84
2, 53519, Note_on_c, 0, 88, 0
2, 53520, Note_on_c, 0, 85, 84
2, 53543, Note_on_c, 0, 85, 0
2, 53544, Note_on_c, 0, 86, 84
2, 53567, Note_on_c, 0, 86, 0
2, 53568, Note_on_c, 0, 83, 84
2, 53588, Note_on_c, 0, 83, 0
2, 53664, Note_on_c, 0, 83, 84
2, 53687, Note_on_c, 0, 83, 0
2, 53688, Note_on_c, 0, 85, 84
2, 53711, Note_on_c, 0, 85, 0
2, 53712, Note_on_c, 0, 81, 84
2, 53735, Note_on_c, 0, 81, 0
2, 53736, Note_on_c, 0, 83, 84
2, 53759, Note_on_c, 0, 83, 0
2, 53760, Note_on_c, 0, 79, 84
2, 53780, Note_on_c, 0, 79, 0
2, 53856, Note_on_c, 0, 78, 77
2, 53856, Note_on_c, 0, 69, 77
2, 53901, Note_on_c, 0, 78, 0
2, 53901, Note_on_c, 0, 69, 0
2, 53904, Note_on_c, 0, 78, 77
2, 53904, Note_on_c, 0, 69, 77
2, 53949, Note_on_c, 0, 78, 0
2, 53949, Note_on_c, 0, 69, 0
2, 53952, Note_on_c, 0, 76, 77
2, 53952, Note_on_c, 0, 71, 77
2, 53997, Note_on_c, 0, 76, 0
2, 53997, Note_on_c, 0, 71, 0
2, 54000, Note_on_c, 0, 76, 77
2, 54000, Note_on_c, 0, 71, 77
2, 54045, Note_on_c, 0, 76, 0
2, 54045, Note_on_c, 0, 71, 0
2, 54048, Note_on_c, 0, 73, 77
2, 54048, Note_on_c, 0, 67, 77
2, 54093, Note_on_c, 0, 73, 0
2, 54093, Note_on_c, 0, 67, 0
2, 54096, Note_on_c, 0, 73, 77
2, 54096, Note_on_c, 0, 67, 77
2, 54141, Note_on_c, 0, 73, 0
2, 54141, Note_on_c, 0, 67, 0
2, 54144, Note_on_c, 0, 74, 84
2, 54167, Note_on_c, 0, 74, 0
2, 54168, Note_on_c, 0, 69, 84
2, 54191, Note_on_c, 0, 69, 0
2, 54192, Note_on_c, 0, 78, 84
2, 54215, Note_on_c, 0, 78, 0
2, 54216, Note_on_c, 0, 69, 84
2, 54239, Note_on_c, 0, 69, 0
2, 54240, Note_on_c, 0, 74, 84
2, 54263, Note_on_c, 0, 74, 0
2, 54264, Note_on_c, 0, 69, 84
2, 54287, Note_on_c, 0, 69, 0
2, 54288, Note_on_c, 0, 73, 84
2, 54311, Note_on_c, 0, 73, 0
2, 54312, Note_on_c, 0, 69, 84
2, 54335, Note_on_c, 0, 69, 0
2, 54336, Note_on_c, 0, 74, 84
2, 54359, Note_on_c, 0, 74, 0
2, 54360, Note_on_c, 0, 69, 84
2, 54383, Note_on_c, 0, 69, 0
2, 54384, Note_on_c, 0, 78, 84
2, 54407, Note_on_c, 0, 78, 0
2, 54408, Note_on_c, 0, 69, 84
2, 54431, Note_on_c, 0, 69, 0
2, 54432, Note_on_c, 0, 74, 84
2, 54455, Note_on_c, 0, 74, 0
2, 54456, Note_on_c, 0, 69, 84
2, 54479, Note_on_c, 0, 69, 0
2, 54480, Note_on_c, 0, 73, 84
2, 54503, Note_on_c, 0, 73, 0
2, 54504, Note_on_c, 0, 69, 84
2, 54527, Note_on_c, 0, 69, 0
2, 54528, Note_on_c, 0, 74, 84
2, 54573, Note_on_c, 0, 74, 0
2, 54624, Note_on_c, 0, 78, 84
2, 54624, Note_on_c, 0, 74, 84
2, 54696, Note_on_c, 0, 74, 0
2, 54696, Note_on_c, 0, 81, 84
2, 54719, Note_on_c, 0, 81, 0
2, 54719, Note_on_c, 0, 78, 0
2, 54720, Note_on_c, 0, 78, 84
2, 54720, Note_on_c, 0, 74, 84
2, 54765, Note_on_c, 0, 78, 0
2, 54765, Note_on_c, 0, 74, 0
2, 55056, Note_on_c, 0, 81, 77
2, 55056, Note_on_c, 0, 73, 77
2, 55101, Note_on_c, 0, 81, 0
2, 55101, Note_on_c, 0, 73, 0
2, 55104, Note_on_c, 0, 80, 77
2, 55104, Note_on_c, 0, 74, 77
2, 55149, Note_on_c, 0, 80, 0
2, 55149, Note_on_c, 0, 74, 0
2, 55152, Note_on_c, 0, 81, 77
2, 55152, Note_on_c, 0, 73, 77
2, 55197, Note_on_c, 0, 81, 0
2, 55197, Note_on_c, 0, 73, 0
2, 55200, Note_on_c, 0, 80, 77
2, 55200, Note_on_c, 0, 74, 77
2, 55245, Note_on_c, 0, 80, 0
2, 55245, Note_on_c, 0, 74, 0
2, 55248, Note_on_c, 0, 81, 77
2, 55248, Note_on_c, 0, 73, 77
2, 55293, Note_on_c, 0, 81, 0
2, 55293, Note_on_c, 0, 73, 0
2, 55296, Note_on_c, 0, 73, 84
2, 55319, Note_on_c, 0, 73, 0
2, 55320, Note_on_c, 0, 76, 84
2, 55343, Note_on_c, 0, 76, 0
2, 55344, Note_on_c, 0, 74, 84
2, 55367, Note_on_c, 0, 74, 0
2, 55368, Note_on_c, 0, 78, 84
2, 55391, Note_on_c, 0, 78, 0
2, 55392, Note_on_c, 0, 76, 84
2, 55415, Note_on_c, 0, 76, 0
2, 55416, Note_on_c, 0, 79, 84
2, 55439, Note_on_c, 0, 79, 0
2, 55440, Note_on_c, 0, 78, 84
2, 55463, Note_on_c, 0, 78, 0
2, 55464, Note_on_c, 0, 81, 84
2, 55487, Note_on_c, 0, 81, 0
2, 55488, Note_on_c, 0, 79, 84
2, 55533, Note_on_c, 0, 79, 0
2, 55536, Note_on_c, 0, 88, 84
2, 55581, Note_on_c, 0, 88, 0
2, 55584, Note_on_c, 0, 85, 84
2, 55629, Note_on_c, 0, 85, 0
2, 55632, Note_on_c, 0, 79, 84
2, 55632, Note_on_c, 0, 76, 84
2, 55677, Note_on_c, 0, 79, 0
2, 55677, Note_on_c, 0, 76, 0
2, 55680, Note_on_c, 0, 78, 84
2, 55680, Note_on_c, 0, 74, 84
2, 55769, Note_on_c, 0, 78, 0
2, 55769, Note_on_c, 0, 74, 0
2, 55824, Note_on_c, 0, 71, 77
2, 55824, Note_on_c, 0, 62, 77
2, 55869, Note_on_c, 0, 71, 0
2, 55869, Note_on_c, 0, 62, 0
2, 55872, Note_on_c, 0, 70, 77
2, 55872, Note_on_c, 0, 64, 77
2, 55917, Note_on_c, 0, 70, 0
2, 55917, Note_on_c, 0, 64, 0
2, 55920, Note_on_c, 0, 71, 77
2, 55920, Note_on_c, 0, 62, 77
2, 55965, Note_on_c, 0, 71, 0
2, 55965, Note_on_c, 0, 62, 0
2, 55968, Note_on_c, 0, 70, 77
2, 55968, Note_on_c, 0, 64, 77
2, 56013, Note_on_c, 0, 70, 0
2, 56013, Note_on_c, 0, 64, 0
2, 56016, Note_on_c, 0, 71, 77
2, 56016, Note_on_c, 0, 62, 77
2, 56061, Note_on_c, 0, 71, 0
2, 56061, Note_on_c, 0, 62, 0
2, 56064, Note_on_c, 0, 63, 84
2, 56087, Note_on_c, 0, 63, 0
2, 56088, Note_on_c, 0, 66, 84
2, 56111, Note_on_c, 0, 66, 0
2, 56112, Note_on_c, 0, 64, 84
2, 56135, Note_on_c, 0, 64, 0
2, 56136, Note_on_c, 0, 67, 84
2, 56159, Note_on_c, 0, 67, 0
2, 56160, Note_on_c, 0, 66, 84
2, 56183, Note_on_c, 0, 66, 0
2, 56184, Note_on_c, 0, 69, 84
2, 56207, Note_on_c, 0, 69, 0
2, 56208, Note_on_c, 0, 67, 84
2, 56231, Note_on_c, 0, 67, 0
2, 56232, Note_on_c, 0, 71, 84
2, 56255, Note_on_c, 0, 71, 0
2, 56256, Note_on_c, 0, 69, 84
2, 56301, Note_on_c, 0, 69, 0
2, 56304, Note_on_c, 0, 78, 84
2, 56349, Note_on_c, 0, 78, 0
2, 56352, Note_on_c, 0, 75, 84
2, 56397, Note_on_c, 0, 75, 0
2, 56400, Note_on_c, 0, 69, 84
2, 56445, Note_on_c, 0, 69, 0
2, 56448, Note_on_c, 0, 68, 84
2, 56471, Note_on_c, 0, 68, 0
2, 56472, Note_on_c, 0, 71, 84
2, 56495, Note_on_c, 0, 71, 0
2, 56496, Note_on_c, 0, 69, 84
2, 56519, Note_on_c, 0, 69, 0
2, 56520, Note_on_c, 0, 73, 84
2, 56543, Note_on_c, 0, 73, 0
2, 56544, Note_on_c, 0, 71, 84
2, 56567, Note_on_c, 0, 71, 0
2, 56568, Note_on_c, 0, 74, 84
2, 56591, Note_on_c, 0, 74, 0
2, 56592, Note_on_c, 0, 73, 84
2, 56615, Note_on_c, 0, 73, 0
2, 56616, Note_on_c, 0, 76, 84
2, 56639, Note_on_c, 0, 76, 0
2, 56640, Note_on_c, 0, 74, 84
2, 56685, Note_on_c, 0, 74, 0
2, 56688, Note_on_c, 0, 83, 84
2, 56711, Note_on_c, 0, 83, 0
2, 56712, Note_on_c, 0, 81, 84
2, 56735, Note_on_c, 0, 81, 0
2, 56736, Note_on_c, 0, 80, 84
2, 56759, Note_on_c, 0, 80, 0
2, 56760, Note_on_c, 0, 78, 84
2, 56783, Note_on_c, 0, 78, 0
2, 56784, Note_on_c, 0, 76, 84
2, 56807, Note_on_c, 0, 76, 0
2, 56808, Note_on_c, 0, 74, 84
2, 56831, Note_on_c, 0, 74, 0
2, 56832, Note_on_c, 0, 73, 84
2, 56855, Note_on_c, 0, 73, 0
2, 56856, Note_on_c, 0, 76, 84
2, 56879, Note_on_c, 0, 76, 0
2, 56880, Note_on_c, 0, 74, 84
2, 56903, Note_on_c, 0, 74, 0
2, 56904, Note_on_c, 0, 78, 84
2, 56927, Note_on_c, 0, 78, 0
2, 56928, Note_on_c, 0, 76, 84
2, 56951, Note_on_c, 0, 76, 0
2, 56952, Note_on_c, 0, 79, 84
2, 56975, Note_on_c, 0, 79, 0
2, 56976, Note_on_c, 0, 78, 84
2, 56999, Note_on_c, 0, 78, 0
2, 57000, Note_on_c, 0, 81, 84
2, 57023, Note_on_c, 0, 81, 0
2, 57024, Note_on_c, 0, 79, 84
2, 57024, Note_on_c, 0, 76, 84
2, 57201, Note_on_c, 0, 79, 0
2, 57201, Note_on_c, 0, 76, 0
2, 57216, Note_on_c, 0, 78, 84
2, 57393, Note_on_c, 0, 78, 0
2, 57408, Note_on_c, 0, 76, 84
2, 57585, Note_on_c, 0, 76, 0
2, 57600, Note_on_c, 0, 74, 84
2, 57777, Note_on_c, 0, 74, 0
2, 57792, Note_on_c, 0, 73, 84
2, 57881, Note_on_c, 0, 73, 0
2, 57888, Note_on_c, 0, 72, 84
2, 57977, Note_on_c, 0, 72, 0
2, 57984, Note_on_c, 0, 71, 84
2, 58161, Note_on_c, 0, 71, 0
2, 58176, Note_on_c, 0, 69, 84
2, 58353, Note_on_c, 0, 69, 0
2, 58368, Note_on_c, 0, 67, 84
2, 58545, Note_on_c, 0, 67, 0
2, 58560, Note_on_c, 0, 66, 84
2, 58737, Note_on_c, 0, 66, 0
2, 58752, Note_on_c, 0, 66, 84
2, 58841, Note_on_c, 0, 66, 0
2, 58848, Note_on_c, 0, 66, 84
2, 58937, Note_on_c, 0, 66, 0
2, 58944, Note_on_c, 0, 66, 84
2, 59033, Note_on_c, 0, 66, 0
2, 59040, Note_on_c, 0, 66, 84
2, 59129, Note_on_c, 0, 66, 0
2, 59136, Note_on_c, 0, 70, 84
2, 59159, Note_on_c, 0, 70, 0
2, 59160, Note_on_c, 0, 68, 84
2, 59183, Note_on_c, 0, 68, 0
2, 59184, Note_on_c, 0, 70, 84
2, 59207, Note_on_c, 0, 70, 0
2, 59208, Note_on_c, 0, 66, 84
2, 59231, Note_on_c, 0, 66, 0
2, 59232, Note_on_c, 0, 71, 84
2, 59255, Note_on_c, 0, 71, 0
2, 59256, Note_on_c, 0, 70, 84
2, 59279, Note_on_c, 0, 70, 0
2, 59280, Note_on_c, 0, 71, 84
2, 59303, Note_on_c, 0, 71, 0
2, 59304, Note_on_c, 0, 66, 84
2, 59327, Note_on_c, 0, 66, 0
2, 59328, Note_on_c, 0, 73, 84
2, 59351, Note_on_c, 0, 73, 0
2, 59352, Note_on_c, 0, 71, 84
2, 59375, Note_on_c, 0, 71, 0
2, 59376, Note_on_c, 0, 73, 84
2, 59399, Note_on_c, 0, 73, 0
2, 59400, Note_on_c, 0, 66, 84
2, 59423, Note_on_c, 0, 66, 0
2, 59424, Note_on_c, 0, 74, 84
2, 59447, Note_on_c, 0, 74, 0
2, 59448, Note_on_c, 0, 73, 84
2, 59471, Note_on_c, 0, 73, 0
2, 59472, Note_on_c, 0, 74, 84
2, 59495, Note_on_c, 0, 74, 0
2, 59496, Note_on_c, 0, 66, 84
2, 59519, Note_on_c, 0, 66, 0
2, 59544, Note_on_c, 0, 79, 84
2, 59567, Note_on_c, 0, 79, 0
2, 59568, Note_on_c, 0, 76, 84
2, 59591, Note_on_c, 0, 76, 0
2, 59592, Note_on_c, 0, 79, 84
2, 59615, Note_on_c, 0, 79, 0
2, 59616, Note_on_c, 0, 73, 84
2, 59639, Note_on_c, 0, 73, 0
2, 59640, Note_on_c, 0, 76, 84
2, 59663, Note_on_c, 0, 76, 0
2, 59664, Note_on_c, 0, 70, 84
2, 59687, Note_on_c, 0, 70, 0
2, 59688, Note_on_c, 0, 73, 84
2, 59711, Note_on_c, 0, 73, 0
2, 59736, Note_on_c, 0, 83, 84
2, 59759, Note_on_c, 0, 83, 0
2, 59760, Note_on_c, 0, 78, 84
2, 59783, Note_on_c, 0, 78, 0
2, 59784, Note_on_c, 0, 83, 84
2, 59807, Note_on_c, 0, 83, 0
2, 59808, Note_on_c, 0, 74, 84
2, 59831, Note_on_c, 0, 74, 0
2, 59832, Note_on_c, 0, 78, 84
2, 59855, Note_on_c, 0, 78, 0
2, 59856, Note_on_c, 0, 71, 84
2, 59879, Note_on_c, 0, 71, 0
2, 59880, Note_on_c, 0, 74, 84
2, 59903, Note_on_c, 0, 74, 0
2, 59928, Note_on_c, 0, 79, 84
2, 59951, Note_on_c, 0, 79, 0
2, 59952, Note_on_c, 0, 76, 84
2, 59975, Note_on_c, 0, 76, 0
2, 59976, Note_on_c, 0, 79, 84
2, 59999, Note_on_c, 0, 79, 0
2, 60000, Note_on_c, 0, 73, 84
2, 60023, Note_on_c, 0, 73, 0
2, 60024, Note_on_c, 0, 76, 84
2, 60047, Note_on_c, 0, 76, 0
2, 60048, Note_on_c, 0, 70, 84
2, 60071, Note_on_c, 0, 70, 0
2, 60072, Note_on_c, 0, 73, 84
2, 60095, Note_on_c, 0, 73, 0
2, 60120, Note_on_c, 0, 83, 84
2, 60143, Note_on_c, 0, 83, 0
2, 60144, Note_on_c, 0, 78, 84
2, 60167, Note_on_c, 0, 78, 0
2, 60168, Note_on_c, 0, 83, 84
2, 60191, Note_on_c, 0, 83, 0
2, 60192, Note_on_c, 0, 74, 84
2, 60215, Note_on_c, 0, 74, 0
2, 60216, Note_on_c, 0, 78, 84
2, 60239, Note_on_c, 0, 78, 0
2, 60240, Note_on_c, 0, 71, 84
2, 60263, Note_on_c, 0, 71, 0
2, 60264, Note_on_c, 0, 74, 84
2, 60287, Note_on_c, 0, 74, 0
2, 60312, Control_c, 0, 64, 127
2, 60312, Note_on_c, 0, 84, 84
2, 60335, Note_on_c, 0, 84, 0
2, 60336, Note_on_c, 0, 79, 84
2, 60359, Note_on_c, 0, 79, 0
2, 60360, Note_on_c, 0, 84, 84
2, 60383, Note_on_c, 0, 84, 0
2, 60384, Note_on_c, 0, 76, 84
2, 60407, Note_on_c, 0, 76, 0
2, 60408, Note_on_c, 0, 79, 84
2, 60431, Note_on_c, 0, 79, 0
2, 60432, Note_on_c, 0, 72, 84
2, 60455, Note_on_c, 0, 72, 0
2, 60456, Note_on_c, 0, 76, 84
2, 60479, Note_on_c, 0, 76, 0
2, 60480, Note_on_c, 0, 67, 84
2, 60503, Note_on_c, 0, 67, 0
2, 60504, Note_on_c, 0, 72, 84
2, 60527, Note_on_c, 0, 72, 0
2, 60528, Note_on_c, 0, 64, 84
2, 60551, Note_on_c, 0, 64, 0
2, 60552, Note_on_c, 0, 67, 84
2, 60575, Note_on_c, 0, 67, 0
2, 60576, Note_on_c, 0, 60, 84
2, 60599, Note_on_c, 0, 60, 0
2, 60600, Note_on_c, 0, 64, 84
2, 60623, Note_on_c, 0, 64, 0
2, 60624, Note_on_c, 0, 55, 84
2, 60647, Note_on_c, 0, 55, 0
2, 60648, Control_c, 0, 64, 0
2, 60648, Note_on_c, 0, 60, 84
2, 60671, Note_on_c, 0, 60, 0
2, 60696, Control_c, 0, 64, 127
2, 60696, Note_on_c, 0, 59, 84
2, 60719, Note_on_c, 0, 59, 0
2, 60720, Note_on_c, 0, 62, 84
2, 60743, Note_on_c, 0, 62, 0
2, 60744, Note_on_c, 0, 65, 84
2, 60767, Note_on_c, 0, 65, 0
2, 60768, Note_on_c, 0, 68, 84
2, 60791, Note_on_c, 0, 68, 0
2, 60792, Note_on_c, 0, 62, 84
2, 60815, Note_on_c, 0, 62, 0
2, 60816, Note_on_c, 0, 65, 84
2, 60839, Note_on_c, 0, 65, 0
2, 60840, Note_on_c, 0, 68, 84
2, 60863, Note_on_c, 0, 68, 0
2, 60864, Note_on_c, 0, 71, 84
2, 60887, Note_on_c, 0, 71, 0
2, 60888, Note_on_c, 0, 65, 84
2, 60911, Note_on_c, 0, 65, 0
2, 60912, Note_on_c, 0, 68, 84
2, 60935, Note_on_c, 0, 68, 0
2, 60936, Note_on_c, 0, 71, 84
2, 60959, Note_on_c, 0, 71, 0
2, 60960, Note_on_c, 0, 74, 84
2, 60983, Note_on_c, 0, 74, 0
2, 60984, Note_on_c, 0, 71, 84
2, 61007, Note_on_c, 0, 71, 0
2, 61008, Note_on_c, 0, 68, 84
2, 61031, Note_on_c, 0, 68, 0
2, 61032, Control_c, 0, 64, 0
2, 61032, Note_on_c, 0, 65, 84
2, 61055, Note_on_c, 0, 65, 0
2, 61080, Control_c, 0, 64, 127
2, 61080, Note_on_c, 0, 59, 84
2, 61103, Note_on_c, 0, 59, 0
2, 61104, Note_on_c, 0, 62, 84
2, 61127, Note_on_c, 0, 62, 0
2, 61128, Note_on_c, 0, 66, 84
2, 61151, Note_on_c, 0, 66, 0
2, 61152, Note_on_c, 0, 71, 84
2, 61175, Note_on_c, 0, 71, 0
2, 61176, Note_on_c, 0, 62, 84
2, 61199, Note_on_c, 0, 62, 0
2, 61200, Note_on_c, 0, 66, 84
2, 61223, Note_on_c, 0, 66, 0
2, 61224, Note_on_c, 0, 71, 84
2, 61247, Note_on_c, 0, 71, 0
2, 61248, Note_on_c, 0, 74, 84
2, 61271, Note_on_c, 0, 74, 0
2, 61272, Note_on_c, 0, 71, 84
2, 61295, Note_on_c, 0, 71, 0
2, 61296, Note_on_c, 0, 74, 84
2, 61319, Note_on_c, 0, 74, 0
2, 61320, Note_on_c, 0, 78, 84
2, 61343, Note_on_c, 0, 78, 0
2, 61344, Note_on_c, 0, 83, 84
2, 61389, Note_on_c, 0, 83, 0
2, 61392, Control_c, 0, 64, 0
2, 61440, Note_on_c, 0, 74, 84
2, 61493, Note_on_c, 0, 74, 0
2, 61494, Note_on_c, 0, 73, 84
2, 61511, Note_on_c, 0, 73, 0
2, 61512, Note_on_c, 0, 74, 84
2, 61529, Note_on_c, 0, 74, 0
2, 61530, Note_on_c, 0, 73, 84
2, 61547, Note_on_c, 0, 73, 0
2, 61548, Note_on_c, 0, 74, 84
2, 61565, Note_on_c, 0, 74, 0
2, 61566, Note_on_c, 0, 73, 84
2, 61583, Note_on_c, 0, 73, 0
2, 61584, Note_on_c, 0, 74, 84
2, 61601, Note_on_c, 0, 74, 0
2, 61602, Note_on_c, 0, 73, 84
2, 61619, Note_on_c, 0, 73, 0
2, 61620, Note_on_c, 0, 74, 84
2, 61636, Note_on_c, 0, 74, 0
2, 61637, Note_on_c, 0, 73, 84
2, 61653, Note_on_c, 0, 73, 0
2, 61654, Note_on_c, 0, 74, 84
2, 61670, Note_on_c, 0, 74, 0
2, 61671, Note_on_c, 0, 73, 84
2, 61687, Note_on_c, 0, 73, 0
2, 61688, Note_on_c, 0, 74, 84
2, 61704, Note_on_c, 0, 74, 0
2, 61705, Note_on_c, 0, 73, 84
2, 61721, Note_on_c, 0, 73, 0
2, 61722, Note_on_c, 0, 74, 84
2, 61738, Note_on_c, 0, 74, 0
2, 61739, Note_on_c, 0, 73, 84
2, 61755, Note_on_c, 0, 73, 0
2, 61756, Note_on_c, 0, 71, 84
2, 61789, Note_on_c, 0, 71, 0
2, 61790, Note_on_c, 0, 73, 84
2, 61823, Note_on_c, 0, 73, 0
2, 61824, Note_on_c, 0, 75, 100
2, 61872, Note_on_c, 0, 75, 0
2, 61872, Note_on_c, 0, 75, 84
2, 61917, Note_on_c, 0, 75, 0
2, 61920, Note_on_c, 0, 75, 84
2, 61965, Note_on_c, 0, 75, 0
2, 61968, Note_on_c, 0, 75, 84
2, 62013, Note_on_c, 0, 75, 0
2, 62016, Note_on_c, 0, 76, 84
2, 62028, Note_on_c, 0, 76, 0
2, 62028, Note_on_c, 0, 78, 84
2, 62040, Note_on_c, 0, 78, 0
2, 62040, Note_on_c, 0, 76, 84
2, 62061, Note_on_c, 0, 76, 0
2, 62064, Note_on_c, 0, 75, 84
2, 62109, Note_on_c, 0, 75, 0
2, 62112, Note_on_c, 0, 76, 84
2, 62157, Note_on_c, 0, 76, 0
2, 62160, Note_on_c, 0, 79, 84
2, 62205, Note_on_c, 0, 79, 0
2, 62208, Note_on_c, 0, 73, 84
2, 62253, Note_on_c, 0, 73, 0
2, 62256, Note_on_c, 0, 73, 84
2, 62301, Note_on_c, 0, 73, 0
2, 62304, Note_on_c, 0, 73, 84
2, 62349, Note_on_c, 0, 73, 0
2, 62352, Note_on_c, 0, 73, 84
2, 62397, Note_on_c, 0, 73, 0
2, 62400, Note_on_c, 0, 73, 77
2, 62423, Note_on_c, 0, 73, 0
2, 62424, Note_on_c, 0, 74, 77
2, 62447, Note_on_c, 0, 74, 0
2, 62448, Note_on_c, 0, 76, 78
2, 62471, Note_on_c, 0, 76, 0
2, 62472, Note_on_c, 0, 78, 79
2, 62495, Note_on_c, 0, 78, 0
2, 62496, Note_on_c, 0, 79, 80
2, 62519, Note_on_c, 0, 79, 0
2, 62520, Note_on_c, 0, 81, 81
2, 62543, Note_on_c, 0, 81, 0
2, 62544, Note_on_c, 0, 83, 82
2, 62567, Note_on_c, 0, 83, 0
2, 62568, Note_on_c, 0, 85, 83
2, 62591, Note_on_c, 0, 85, 0
2, 62592, Note_on_c, 0, 85, 84
2, 62604, Note_on_c, 0, 85, 0
2, 62604, Note_on_c, 0, 86, 100
2, 62640, Note_on_c, 0, 86, 0
2, 62640, Note_on_c, 0, 74, 77
2, 62685, Note_on_c, 0, 74, 0
2, 62688, Note_on_c, 0, 74, 77
2, 62733, Note_on_c, 0, 74, 0
2, 62736, Note_on_c, 0, 74, 77
2, 62781, Note_on_c, 0, 74, 0
2, 62784, Note_on_c, 0, 76, 77
2, 62796, Note_on_c, 0, 76, 0
2, 62796, Note_on_c, 0, 78, 77
2, 62808, Note_on_c, 0, 78, 0
2, 62808, Note_on_c, 0, 76, 77
2, 62829, Note_on_c, 0, 76, 0
2, 62832, Note_on_c, 0, 74, 77
2, 62877, Note_on_c, 0, 74, 0
2, 62880, Note_on_c, 0, 76, 77
2, 62892, Note_on_c, 0, 76, 0
2, 62892, Note_on_c, 0, 78, 77
2, 62904, Note_on_c, 0, 78, 0
2, 62904, Note_on_c, 0, 76, 77
2, 62925, Note_on_c, 0, 76, 0
2, 62928, Note_on_c, 0, 74, 77
2, 62973, Note_on_c, 0, 74, 0
2, 62976, Note_on_c, 0, 85, 77
2, 62982, Note_on_c, 0, 85, 0
2, 62982, Note_on_c, 0, 86, 77
2, 63021, Note_on_c, 0, 86, 0
2, 63024, Note_on_c, 0, 74, 77
2, 63069, Note_on_c, 0, 74, 0
2, 63072, Note_on_c, 0, 74, 77
2, 63117, Note_on_c, 0, 74, 0
2, 63120, Note_on_c, 0, 74, 77
2, 63165, Note_on_c, 0, 74, 0
2, 63168, Note_on_c, 0, 76, 77
2, 63180, Note_on_c, 0, 76, 0
2, 63180, Note_on_c, 0, 78, 77
2, 63192, Note_on_c, 0, 78, 0
2, 63192, Note_on_c, 0, 76, 77
2, 63213, Note_on_c, 0, 76, 0
2, 63216, Note_on_c, 0, 74, 77
2, 63261, Note_on_c, 0, 74, 0
2, 63264, Note_on_c, 0, 76, 77
2, 63276, Note_on_c, 0, 76, 0
2, 63276, Note_on_c, 0, 78, 77
2, 63288, Note_on_c, 0, 78, 0
2, 63288, Note_on_c, 0, 76, 77
2, 63309, Note_on_c, 0, 76, 0
2, 63312, Note_on_c, 0, 74, 77
2, 63357, Note_on_c, 0, 74, 0
2, 63360, Note_on_c, 0, 79, 77
2, 63380, Note_on_c, 0, 79, 0
2, 63408, Note_on_c, 0, 79, 77
2, 63456, Note_on_c, 0, 79, 0
2, 63456, Note_on_c, 0, 78, 77
2, 63476, Note_on_c, 0, 78, 0
2, 63504, Note_on_c, 0, 78, 77
2, 63552, Note_on_c, 0, 78, 0
2, 63552, Note_on_c, 0, 83, 77
2, 63572, Note_on_c, 0, 83, 0
2, 63600, Note_on_c, 0, 83, 77
2, 63648, Note_on_c, 0, 83, 0
2, 63648, Note_on_c, 0, 81, 77
2, 63668, Note_on_c, 0, 81, 0
2, 63696, Note_on_c, 0, 81, 77
2, 63741, Note_on_c, 0, 81, 0
2, 63744, Note_on_c, 0, 79, 77
2, 63789, Note_on_c, 0, 79, 0
2, 63792, Note_on_c, 0, 76, 77
2, 63837, Note_on_c, 0, 76, 0
2, 63840, Note_on_c, 0, 78, 77
2, 63885, Note_on_c, 0, 78, 0
2, 63888, Note_on_c, 0, 74, 77
2, 63933, Note_on_c, 0, 74, 0
2, 63936, Note_on_c, 0, 73, 77
2, 63959, Note_on_c, 0, 73, 0
2, 63960, Note_on_c, 0, 74, 77
2, 63983, Note_on_c, 0, 74, 0
2, 63984, Note_on_c, 0, 76, 77
2, 64007, Note_on_c, 0, 76, 0
2, 64008, Note_on_c, 0, 73, 77
2, 64031, Note_on_c, 0, 73, 0
2, 64032, Note_on_c, 0, 69, 77
2, 64077, Note_on_c, 0, 69, 0
2, 64128, Note_on_c, 0, 85, 77
2, 64134, Note_on_c, 0, 85, 0
2, 64134, Note_on_c, 0, 86, 77
2, 64173, Note_on_c, 0, 86, 0
2, 64176, Note_on_c, 0, 74, 77
2, 64221, Note_on_c, 0, 74, 0
2, 64224, Note_on_c, 0, 74, 77
2, 64269, Note_on_c, 0, 74, 0
2, 64272, Note_on_c, 0, 74, 77
2, 64317, Note_on_c, 0, 74, 0
2, 64320, Note_on_c, 0, 76, 77
2, 64332, Note_on_c, 0, 76, 0
2, 64332, Note_on_c, 0, 78, 77
2, 64344, Note_on_c, 0, 78, 0
2, 64344, Note_on_c, 0, 76, 77
2, 64365, Note_on_c, 0, 76, 0
2, 64368, Note_on_c, 0, 74, 77
2, 64413, Note_on_c, 0, 74, 0
2, 64416, Note_on_c, 0, 76, 77
2, 64428, Note_on_c, 0, 76, 0
2, 64428, Note_on_c, 0, 78, 77
2, 64440, Note_on_c, 0, 78, 0
2, 64440, Note_on_c, 0, 76, 77
2, 64461, Note_on_c, 0, 76, 0
2, 64464, Note_on_c, 0, 74, 77
2, 64509, Note_on_c, 0, 74, 0
2, 64512, Note_on_c, 0, 85, 77
2, 64518, Note_on_c, 0, 85, 0
2, 64518, Note_on_c, 0, 86, 77
2, 64557, Note_on_c, 0, 86, 0
2, 64560, Note_on_c, 0, 74, 77
2, 64605, Note_on_c, 0, 74, 0
2, 64608, Note_on_c, 0, 74, 77
2, 64653, Note_on_c, 0, 74, 0
2, 64656, Note_on_c, 0, 74, 77
2, 64701, Note_on_c, 0, 74, 0
2, 64704, Note_on_c, 0, 76, 77
2, 64716, Note_on_c, 0, 76, 0
2, 64716, Note_on_c, 0, 78, 77
2, 64728, Note_on_c, 0, 78, 0
2, 64728, Note_on_c, 0, 76, 77
2, 64749, Note_on_c, 0, 76, 0
2, 64752, Note_on_c, 0, 74, 77
2, 64797, Note_on_c, 0, 74, 0
2, 64800, Note_on_c, 0, 76, 77
2, 64812, Note_on_c, 0, 76, 0
2, 64812, Note_on_c, 0, 78, 77
2, 64824, Note_on_c, 0, 78, 0
2, 64824, Note_on_c, 0, 76, 77
2, 64845, Note_on_c, 0, 76, 0
2, 64848, Note_on_c, 0, 74, 77
2, 64893, Note_on_c, 0, 74, 0
2, 64896, Note_on_c, 0, 79, 77
2, 64908, Note_on_c, 0, 79, 0
2, 64908, Note_on_c, 0, 81, 77
2, 64920, Note_on_c, 0, 81, 0
2, 64920, Note_on_c, 0, 79, 77
2, 64941, Note_on_c, 0, 79, 0
2, 64944, Note_on_c, 0, 78, 77
2, 64989, Note_on_c, 0, 78, 0
2, 64992, Note_on_c, 0, 79, 77
2, 65037, Note_on_c, 0, 79, 0
2, 65040, Note_on_c, 0, 76, 77
2, 65085, Note_on_c, 0, 76, 0
2, 65088, Note_on_c, 0, 78, 77
2, 65100, Note_on_c, 0, 78, 0
2, 65100, Note_on_c, 0, 79, 77
2, 65112, Note_on_c, 0, 79, 0
2, 65112, Note_on_c, 0, 78, 77
2, 65133, Note_on_c, 0, 78, 0
2, 65136, Note_on_c, 0, 76, 77
2, 65181, Note_on_c, 0, 76, 0
2, 65184, Note_on_c, 0, 78, 77
2, 65229, Note_on_c, 0, 78, 0
2, 65232, Note_on_c, 0, 74, 77
2, 65277, Note_on_c, 0, 74, 0
2, 65280, Note_on_c, 0, 76, 77
2, 65292, Note_on_c, 0, 76, 0
2, 65292, Note_on_c, 0, 78, 77
2, 65304, Note_on_c, 0, 78, 0
2, 65304, Note_on_c, 0, 76, 77
2, 65325, Note_on_c, 0, 76, 0
2, 65328, Note_on_c, 0, 75, 77
2, 65373, Note_on_c, 0, 75, 0
2, 65376, Note_on_c, 0, 76, 77
2, 65421, Note_on_c, 0, 76, 0
2, 65424, Note_on_c, 0, 73, 77
2, 65469, Note_on_c, 0, 73, 0
2, 65472, Note_on_c, 0, 74, 77
2, 65484, Note_on_c, 0, 74, 0
2, 65484, Note_on_c, 0, 76, 77
2, 65496, Note_on_c, 0, 76, 0
2, 65496, Note_on_c, 0, 74, 77
2, 65517, Note_on_c, 0, 74, 0
2, 65520, Note_on_c, 0, 73, 77
2, 65565, Note_on_c, 0, 73, 0
2, 65568, Note_on_c, 0, 74, 77
2, 65613, Note_on_c, 0, 74, 0
2, 65616, Note_on_c, 0, 78, 77
2, 65661, Note_on_c, 0, 78, 0
2, 65664, Note_on_c, 0, 79, 77
2, 65676, Note_on_c, 0, 79, 0
2, 65676, Note_on_c, 0, 81, 77
2, 65688, Note_on_c, 0, 81, 0
2, 65688, Note_on_c, 0, 79, 77
2, 65709, Note_on_c, 0, 79, 0
2, 65712, Note_on_c, 0, 78, 77
2, 65757, Note_on_c, 0, 78, 0
2, 65760, Note_on_c, 0, 79, 77
2, 65805, Note_on_c, 0, 79, 0
2, 65808, Note_on_c, 0, 76, 77
2, 65853, Note_on_c, 0, 76, 0
2, 65856, Note_on_c, 0, 78, 77
2, 65868, Note_on_c, 0, 78, 0
2, 65868, Note_on_c, 0, 79, 77
2, 65880, Note_on_c, 0, 79, 0
2, 65880, Note_on_c, 0, 78, 77
2, 65901, Note_on_c, 0, 78, 0
2, 65904, Note_on_c, 0, 76, 77
2, 65949, Note_on_c, 0, 76, 0
2, 65952, Note_on_c, 0, 78, 77
2, 65997, Note_on_c, 0, 78, 0
2, 66000, Note_on_c, 0, 74, 77
2, 66045, Note_on_c, 0, 74, 0
2, 66048, Note_on_c, 0, 76, 77
2, 66060, Note_on_c, 0, 76, 0
2, 66060, Note_on_c, 0, 78, 77
2, 66072, Note_on_c, 0, 78, 0
2, 66072, Note_on_c, 0, 76, 77
2, 66093, Note_on_c, 0, 76, 0
2, 66096, Note_on_c, 0, 75, 77
2, 66141, Note_on_c, 0, 75, 0
2, 66144, Note_on_c, 0, 76, 78
2, 66156, Note_on_c, 0, 76, 0
2, 66156, Note_on_c, 0, 78, 78
2, 66168, Note_on_c, 0, 78, 0
2, 66168, Note_on_c, 0, 76, 78
2, 66189, Note_on_c, 0, 76, 0
2, 66192, Note_on_c, 0, 75, 79
2, 66237, Note_on_c, 0, 75, 0
2, 66240, Note_on_c, 0, 76, 80
2, 66252, Note_on_c, 0, 76, 0
2, 66252, Note_on_c, 0, 78, 80
2, 66264, Note_on_c, 0, 78, 0
2, 66264, Note_on_c, 0, 76, 80
2, 66285, Note_on_c, 0, 76, 0
2, 66288, Note_on_c, 0, 75, 81
2, 66333, Note_on_c, 0, 75, 0
2, 66336, Note_on_c, 0, 76, 82
2, 66348, Note_on_c, 0, 76, 0
2, 66348, Note_on_c, 0, 78, 82
2, 66360, Note_on_c, 0, 78, 0
2, 66360, Note_on_c, 0, 76, 82
2, 66381, Note_on_c, 0, 76, 0
2, 66384, Note_on_c, 0, 75, 83
2, 66429, Note_on_c, 0, 75, 0
2, 66432, Note_on_c, 0, 76, 84
2, 66455, Note_on_c, 0, 76, 0
2, 66456, Note_on_c, 0, 79, 84
2, 66479, Note_on_c, 0, 79, 0
2, 66480, Note_on_c, 0, 78, 84
2, 66503, Note_on_c, 0, 78, 0
2, 66504, Note_on_c, 0, 81, 84
2, 66527, Note_on_c, 0, 81, 0
2, 66528, Note_on_c, 0, 79, 84
2, 66551, Note_on_c, 0, 79, 0
2, 66552, Note_on_c, 0, 83, 84
2, 66575, Note_on_c, 0, 83, 0
2, 66576, Note_on_c, 0, 81, 84
2, 66599, Note_on_c, 0, 81, 0
2, 66600, Note_on_c, 0, 84, 84
2, 66623, Note_on_c, 0, 84, 0
2, 66624, Note_on_c, 0, 83, 84
2, 66647, Note_on_c, 0, 83, 0
2, 66648, Note_on_c, 0, 81, 84
2, 66671, Note_on_c, 0, 81, 0
2, 66672, Note_on_c, 0, 79, 84
2, 66695, Note_on_c, 0, 79, 0
2, 66696, Note_on_c, 0, 78, 84
2, 66719, Note_on_c, 0, 78, 0
2, 66720, Note_on_c, 0, 76, 84
2, 66743, Note_on_c, 0, 76, 0
2, 66744, Note_on_c, 0, 74, 84
2, 66767, Note_on_c, 0, 74, 0
2, 66768, Note_on_c, 0, 73, 84
2, 66791, Note_on_c, 0, 73, 0
2, 66792, Note_on_c, 0, 71, 84
2, 66815, Note_on_c, 0, 71, 0
2, 66816, Note_on_c, 0, 69, 84
2, 66839, Note_on_c, 0, 69, 0
2, 66840, Note_on_c, 0, 81, 84
2, 66863, Note_on_c, 0, 81, 0
2, 66864, Note_on_c, 0, 80, 84
2, 66887, Note_on_c, 0, 80, 0
2, 66888, Note_on_c, 0, 81, 84
2, 66911, Note_on_c, 0, 81, 0
2, 66912, Note_on_c, 0, 80, 84
2, 66935, Note_on_c, 0, 80, 0
2, 66936, Note_on_c, 0, 81, 84
2, 66959, Note_on_c, 0, 81, 0
2, 66960, Note_on_c, 0, 80, 84
2, 66983, Note_on_c, 0, 80, 0
2, 66984, Note_on_c, 0, 81, 84
2, 67007, Note_on_c, 0, 81, 0
2, 67008, Note_on_c, 0, 69, 84
2, 67031, Note_on_c, 0, 69, 0
2, 67032, Note_on_c, 0, 79, 84
2, 67055, Note_on_c, 0, 79, 0
2, 67056, Note_on_c, 0, 78, 84
2, 67079, Note_on_c, 0, 78, 0
2, 67080, Note_on_c, 0, 79, 84
2, 67103, Note_on_c, 0, 79, 0
2, 67104, Note_on_c, 0, 78, 84
2, 67127, Note_on_c, 0, 78, 0
2, 67128, Note_on_c, 0, 79, 84
2, 67151, Note_on_c, 0, 79, 0
2, 67152, Note_on_c, 0, 78, 84
2, 67175, Note_on_c, 0, 78, 0
2, 67176, Note_on_c, 0, 79, 84
2, 67199, Note_on_c, 0, 79, 0
2, 67200, Note_on_c, 0, 69, 84
2, 67223, Note_on_c, 0, 69, 0
2, 67224, Note_on_c, 0, 78, 84
2, 67247, Note_on_c, 0, 78, 0
2, 67248, Note_on_c, 0, 77, 84
2, 67271, Note_on_c, 0, 77, 0
2, 67272, Note_on_c, 0, 78, 84
2, 67295, Note_on_c, 0, 78, 0
2, 67296, Note_on_c, 0, 77, 84
2, 67319, Note_on_c, 0, 77, 0
2, 67320, Note_on_c, 0, 78, 84
2, 67343, Note_on_c, 0, 78, 0
2, 67344, Note_on_c, 0, 77, 84
2, 67367, Note_on_c, 0, 77, 0
2, 67368, Note_on_c, 0, 78, 84
2, 67391, Note_on_c, 0, 78, 0
2, 67392, Note_on_c, 0, 69, 84
2, 67415, Note_on_c, 0, 69, 0
2, 67416, Note_on_c, 0, 76, 84
2, 67439, Note_on_c, 0, 76, 0
2, 67440, Note_on_c, 0, 75, 84
2, 67463, Note_on_c, 0, 75, 0
2, 67464, Note_on_c, 0, 76, 84
2, 67487, Note_on_c, 0, 76, 0
2, 67488, Note_on_c, 0, 75, 84
2, 67511, Note_on_c, 0, 75, 0
2, 67512, Note_on_c, 0, 76, 84
2, 67535, Note_on_c, 0, 76, 0
2, 67536, Note_on_c, 0, 75, 84
2, 67559, Note_on_c, 0, 75, 0
2, 67560, Note_on_c, 0, 76, 84
2, 67583, Note_on_c, 0, 76, 0
2, 67584, Note_on_c, 0, 74, 84
2, 67607, Note_on_c, 0, 74, 0
2, 67608, Note_on_c, 0, 69, 84
2, 67631, Note_on_c, 0, 69, 0
2, 67632, Note_on_c, 0, 66, 84
2, 67655, Note_on_c, 0, 66, 0
2, 67656, Note_on_c, 0, 69, 84
2, 67679, Note_on_c, 0, 69, 0
2, 67680, Note_on_c, 0, 74, 84
2, 67703, Note_on_c, 0, 74, 0
2, 67704, Note_on_c, 0, 69, 84
2, 67727, Note_on_c, 0, 69, 0
2, 67728, Note_on_c, 0, 76, 84
2, 67751, Note_on_c, 0, 76, 0
2, 67752, Note_on_c, 0, 69, 84
2, 67775, Note_on_c, 0, 69, 0
2, 67776, Note_on_c, 0, 78, 84
2, 67799, Note_on_c, 0, 78, 0
2, 67800, Note_on_c, 0, 69, 84
2, 67823, Note_on_c, 0, 69, 0
2, 67824, Note_on_c, 0, 79, 84
2, 67847, Note_on_c, 0, 79, 0
2, 67848, Note_on_c, 0, 69, 84
2, 67871, Note_on_c, 0, 69, 0
2, 67872, Note_on_c, 0, 81, 84
2, 67895, Note_on_c, 0, 81, 0
2, 67896, Note_on_c, 0, 69, 84
2, 67919, Note_on_c, 0, 69, 0
2, 67920, Note_on_c, 0, 79, 84
2, 67943, Note_on_c, 0, 79, 0
2, 67944, Note_on_c, 0, 69, 84
2, 67967, Note_on_c, 0, 69, 0
2, 67968, Note_on_c, 0, 78, 84
2, 67991, Note_on_c, 0, 78, 0
2, 67992, Note_on_c, 0, 74, 84
2, 68015, Note_on_c, 0, 74, 0
2, 68016, Note_on_c, 0, 69, 84
2, 68039, Note_on_c, 0, 69, 0
2, 68040, Note_on_c, 0, 74, 84
2, 68063, Note_on_c, 0, 74, 0
2, 68064, Note_on_c, 0, 78, 84
2, 68087, Note_on_c, 0, 78, 0
2, 68088, Note_on_c, 0, 74, 84
2, 68111, Note_on_c, 0, 74, 0
2, 68112, Note_on_c, 0, 79, 84
2, 68135, Note_on_c, 0, 79, 0
2, 68136, Note_on_c, 0, 74, 84
2, 68159, Note_on_c, 0, 74, 0
2, 68160, Note_on_c, 0, 81, 84
2, 68183, Note_on_c, 0, 81, 0
2, 68184, Note_on_c, 0, 74, 84
2, 68207, Note_on_c, 0, 74, 0
2, 68208, Note_on_c, 0, 83, 84
2, 68231, Note_on_c, 0, 83, 0
2, 68232, Note_on_c, 0, 74, 84
2, 68255, Note_on_c, 0, 74, 0
2, 68256, Note_on_c, 0, 81, 84
2, 68279, Note_on_c, 0, 81, 0
2, 68280, Note_on_c, 0, 74, 84
2, 68303, Note_on_c, 0, 74, 0
2, 68304, Note_on_c, 0, 79, 84
2, 68327, Note_on_c, 0, 79, 0
2, 68328, Note_on_c, 0, 74, 84
2, 68351, Note_on_c, 0, 74, 0
2, 68352, Note_on_c, 0, 78, 84
2, 68375, Note_on_c, 0, 78, 0
2, 68376, Note_on_c, 0, 74, 84
2, 68399, Note_on_c, 0, 74, 0
2, 68400, Note_on_c, 0, 73, 84
2, 68423, Note_on_c, 0, 73, 0
2, 68424, Note_on_c, 0, 74, 84
2, 68447, Note_on_c, 0, 74, 0
2, 68448, Note_on_c, 0, 83, 84
2, 68471, Note_on_c, 0, 83, 0
2, 68472, Note_on_c, 0, 74, 84
2, 68495, Note_on_c, 0, 74, 0
2, 68496, Note_on_c, 0, 73, 84
2, 68519, Note_on_c, 0, 73, 0
2, 68520, Note_on_c, 0, 74, 84
2, 68543, Note_on_c, 0, 74, 0
2, 68544, Note_on_c, 0, 81, 84
2, 68567, Note_on_c, 0, 81, 0
2, 68568, Note_on_c, 0, 74, 84
2, 68591, Note_on_c, 0, 74, 0
2, 68592, Note_on_c, 0, 73, 84
2, 68615, Note_on_c, 0, 73, 0
2, 68616, Note_on_c, 0, 74, 84
2, 68639, Note_on_c, 0, 74, 0
2, 68640, Note_on_c, 0, 79, 84
2, 68663, Note_on_c, 0, 79, 0
2, 68664, Note_on_c, 0, 74, 84
2, 68687, Note_on_c, 0, 74, 0
2, 68688, Note_on_c, 0, 73, 84
2, 68711, Note_on_c, 0, 73, 0
2, 68712, Note_on_c, 0, 74, 84
2, 68735, Note_on_c, 0, 74, 0
2, 68736, Note_on_c, 0, 78, 84
2, 68759, Note_on_c, 0, 78, 0
2, 68760, Note_on_c, 0, 74, 84
2, 68783, Note_on_c, 0, 74, 0
2, 68784, Note_on_c, 0, 73, 84
2, 68807, Note_on_c, 0, 73, 0
2, 68808, Note_on_c, 0, 74, 84
2, 68831, Note_on_c, 0, 74, 0
2, 68832, Note_on_c, 0, 83, 84
2, 68855, Note_on_c, 0, 83, 0
2, 68856, Note_on_c, 0, 74, 84
2, 68879, Note_on_c, 0, 74, 0
2, 68880, Note_on_c, 0, 86, 84
2, 68903, Note_on_c, 0, 86, 0
2, 68904, Note_on_c, 0, 74, 84
2, 68927, Note_on_c, 0, 74, 0
2, 68928, Note_on_c, 0, 81, 84
2, 68951, Note_on_c, 0, 81, 0
2, 68952, Note_on_c, 0, 74, 84
2, 68975, Note_on_c, 0, 74, 0
2, 68976, Note_on_c, 0, 86, 84
2, 68999, Note_on_c, 0, 86, 0
2, 69000, Note_on_c, 0, 74, 84
2, 69023, Note_on_c, 0, 74, 0
2, 69024, Note_on_c, 0, 79, 84
2, 69047, Note_on_c, 0, 79, 0
2, 69048, Note_on_c, 0, 74, 84
2, 69071, Note_on_c, 0, 74, 0
2, 69072, Note_on_c, 0, 86, 84
2, 69095, Note_on_c, 0, 86, 0
2, 69096, Note_on_c, 0, 74, 84
2, 69119, Note_on_c, 0, 74, 0
2, 69120, Note_on_c, 0, 78, 84
2, 69143, Note_on_c, 0, 78, 0
2, 69144, Note_on_c, 0, 74, 84
2, 69167, Note_on_c, 0, 74, 0
2, 69168, Note_on_c, 0, 86, 84
2, 69191, Note_on_c, 0, 86, 0
2, 69192, Note_on_c, 0, 74, 85
2, 69215, Note_on_c, 0, 74, 0
2, 69216, Note_on_c, 0, 78, 85
2, 69239, Note_on_c, 0, 78, 0
2, 69240, Note_on_c, 0, 74, 86
2, 69263, Note_on_c, 0, 74, 0
2, 69264, Note_on_c, 0, 86, 86
2, 69287, Note_on_c, 0, 86, 0
2, 69288, Note_on_c, 0, 74, 87
2, 69311, Note_on_c, 0, 74, 0
2, 69312, Note_on_c, 0, 80, 87
2, 69335, Note_on_c, 0, 80, 0
2, 69336, Note_on_c, 0, 74, 87
2, 69359, Note_on_c, 0, 74, 0
2, 69360, Note_on_c, 0, 86, 88
2, 69383, Note_on_c, 0, 86, 0
2, 69384, Note_on_c, 0, 74, 88
2, 69407, Note_on_c, 0, 74, 0
2, 69408, Note_on_c, 0, 80, 89
2, 69431, Note_on_c, 0, 80, 0
2, 69432, Note_on_c, 0, 74, 89
2, 69455, Note_on_c, 0, 74, 0
2, 69456, Note_on_c, 0, 86, 90
2, 69479, Note_on_c, 0, 86, 0
2, 69480, Note_on_c, 0, 74, 90
2, 69503, Note_on_c, 0, 74, 0
2, 69504, Note_on_c, 0, 85, 91
2, 69504, Note_on_c, 0, 81, 91
2, 69593, Note_on_c, 0, 85, 0
2, 69593, Note_on_c, 0, 81, 0
2, 69600, Note_on_c, 0, 69, 84
2, 69600, Note_on_c, 0, 61, 84
2, 69667, Note_on_c, 0, 69, 0
2, 69667, Note_on_c, 0, 61, 0
2, 69672, Note_on_c, 0, 69, 84
2, 69672, Note_on_c, 0, 61, 84
2, 69695, Note_on_c, 0, 69, 0
2, 69695, Note_on_c, 0, 61, 0
2, 69696, Note_on_c, 0, 69, 84
2, 69696, Note_on_c, 0, 61, 84
2, 69785, Note_on_c, 0, 69, 0
2, 69785, Note_on_c, 0, 61, 0
2, 69888, Note_on_c, 0, 83, 77
2, 69894, Note_on_c, 0, 83, 0
2, 69894, Note_on_c, 0, 81, 77
2, 69911, Note_on_c, 0, 81, 0
2, 69912, Note_on_c, 0, 80, 77
2, 69935, Note_on_c, 0, 80, 0
2, 69936, Note_on_c, 0, 81, 77
2, 69959, Note_on_c, 0, 81, 0
2, 69960, Note_on_c, 0, 83, 77
2, 69983, Note_on_c, 0, 83, 0
2, 69984, Note_on_c, 0, 81, 77
2, 70029, Note_on_c, 0, 81, 0
2, 70080, Note_on_c, 0, 74, 77
2, 70086, Note_on_c, 0, 74, 0
2, 70086, Note_on_c, 0, 73, 77
2, 70103, Note_on_c, 0, 73, 0
2, 70104, Note_on_c, 0, 71, 77
2, 70127, Note_on_c, 0, 71, 0
2, 70128, Note_on_c, 0, 73, 77
2, 70151, Note_on_c, 0, 73, 0
2, 70152, Note_on_c, 0, 74, 77
2, 70175, Note_on_c, 0, 74, 0
2, 70176, Note_on_c, 0, 73, 77
2, 70221, Note_on_c, 0, 73, 0
2, 70272, Note_on_c, 0, 81, 77
2, 70278, Note_on_c, 0, 81, 0
2, 70278, Note_on_c, 0, 79, 77
2, 70295, Note_on_c, 0, 79, 0
2, 70296, Note_on_c, 0, 78, 77
2, 70319, Note_on_c, 0, 78, 0
2, 70320, Note_on_c, 0, 79, 77
2, 70343, Note_on_c, 0, 79, 0
2, 70344, Note_on_c, 0, 81, 77
2, 70367, Note_on_c, 0, 81, 0
2, 70368, Note_on_c, 0, 79, 77
2, 70413, Note_on_c, 0, 79, 0
2, 70464, Note_on_c, 0, 79, 77
2, 70470, Note_on_c, 0, 79, 0
2, 70470, Note_on_c, 0, 78, 77
2, 70487, Note_on_c, 0, 78, 0
2, 70488, Note_on_c, 0, 76, 77
2, 70511, Note_on_c, 0, 76, 0
2, 70512, Note_on_c, 0, 78, 77
2, 70535, Note_on_c, 0, 78, 0
2, 70536, Note_on_c, 0, 79, 77
2, 70559, Note_on_c, 0, 79, 0
2, 70560, Note_on_c, 0, 78, 77
2, 70605, Note_on_c, 0, 78, 0
2, 70656, Note_on_c, 0, 78, 77
2, 70662, Note_on_c, 0, 78, 0
2, 70662, Note_on_c, 0, 76, 77
2, 70679, Note_on_c, 0, 76, 0
2, 70680, Note_on_c, 0, 75, 77
2, 70703, Note_on_c, 0, 75, 0
2, 70704, Note_on_c, 0, 76, 77
2, 70727, Note_on_c, 0, 76, 0
2, 70728, Note_on_c, 0, 78, 77
2, 70751, Note_on_c, 0, 78, 0
2, 70752, Note_on_c, 0, 76, 77
2, 70797, Note_on_c, 0, 76, 0
2, 70848, Note_on_c, 0, 67, 77
2, 70848, Note_on_c, 0, 64, 77
2, 70893, Note_on_c, 0, 67, 0
2, 70893, Note_on_c, 0, 64, 0
2, 70896, Note_on_c, 0, 79, 77
2, 70896, Note_on_c, 0, 76, 77
2, 70941, Note_on_c, 0, 79, 0
2, 70941, Note_on_c, 0, 76, 0
2, 70944, Note_on_c, 0, 79, 77
2, 70944, Note_on_c, 0, 76, 77
2, 70989, Note_on_c, 0, 79, 0
2, 70989, Note_on_c, 0, 76, 0
2, 70992, Note_on_c, 0, 78, 77
2, 70992, Note_on_c, 0, 75, 77
2, 71037, Note_on_c, 0, 78, 0
2, 71037, Note_on_c, 0, 75, 0
2, 71040, Note_on_c, 0, 78, 77
2, 71046, Note_on_c, 0, 78, 0
2, 71046, Note_on_c, 0, 76, 77
2, 71063, Note_on_c, 0, 76, 0
2, 71064, Note_on_c, 0, 75, 77
2, 71087, Note_on_c, 0, 75, 0
2, 71088, Note_on_c, 0, 76, 77
2, 71111, Note_on_c, 0, 76, 0
2, 71112, Note_on_c, 0, 78, 77
2, 71135, Note_on_c, 0, 78, 0
2, 71136, Note_on_c, 0, 76, 77
2, 71181, Note_on_c, 0, 76, 0
2, 71232, Note_on_c, 0, 67, 77
2, 71232, Note_on_c, 0, 64, 77
2, 71277, Note_on_c, 0, 67, 0
2, 71277, Note_on_c, 0, 64, 0
2, 71280, Note_on_c, 0, 79, 77
2, 71280, Note_on_c, 0, 76, 77
2, 71325, Note_on_c, 0, 79, 0
2, 71325, Note_on_c, 0, 76, 0
2, 71328, Note_on_c, 0, 79, 77
2, 71328, Note_on_c, 0, 76, 77
2, 71373, Note_on_c, 0, 79, 0
2, 71373, Note_on_c, 0, 76, 0
2, 71376, Note_on_c, 0, 78, 77
2, 71376, Note_on_c, 0, 75, 77
2, 71421, Note_on_c, 0, 78, 0
2, 71421, Note_on_c, 0, 75, 0
2, 71424, Note_on_c, 0, 78, 77
2, 71430, Note_on_c, 0, 78, 0
2, 71430, Note_on_c, 0, 76, 77
2, 71447, Note_on_c, 0, 76, 0
2, 71448, Note_on_c, 0, 75, 77
2, 71471, Note_on_c, 0, 75, 0
2, 71472, Note_on_c, 0, 76, 77
2, 71495, Note_on_c, 0, 76, 0
2, 71496, Note_on_c, 0, 78, 78
2, 71519, Note_on_c, 0, 78, 0
2, 71520, Note_on_c, 0, 76, 78
2, 71565, Note_on_c, 0, 76, 0
2, 71616, Note_on_c, 0, 76, 80
2, 71622, Note_on_c, 0, 76, 0
2, 71622, Note_on_c, 0, 74, 80
2, 71639, Note_on_c, 0, 74, 0
2, 71640, Note_on_c, 0, 73, 80
2, 71663, Note_on_c, 0, 73, 0
2, 71664, Note_on_c, 0, 74, 81
2, 71687, Note_on_c, 0, 74, 0
2, 71688, Note_on_c, 0, 76, 81
2, 71711, Note_on_c, 0, 76, 0
2, 71712, Note_on_c, 0, 74, 82
2, 71757, Note_on_c, 0, 74, 0
2, 71808, Note_on_c, 0, 81, 100
2, 71856, Note_on_c, 0, 81, 0
2, 71856, Note_on_c, 0, 69, 84
2, 71901, Note_on_c, 0, 69, 0
2, 71904, Note_on_c, 0, 69, 84
2, 71949, Note_on_c, 0, 69, 0
2, 71952, Note_on_c, 0, 69, 84
2, 71997, Note_on_c, 0, 69, 0
2, 72000, Note_on_c, 0, 69, 84
2, 72023, Note_on_c, 0, 69, 0
2, 72024, Note_on_c, 0, 71, 84
2, 72047, Note_on_c, 0, 71, 0
2, 72048, Note_on_c, 0, 69, 84
2, 72071, Note_on_c, 0, 69, 0
2, 72072, Note_on_c, 0, 67, 84
2, 72095, Note_on_c, 0, 67, 0
2, 72096, Note_on_c, 0, 66, 84
2, 72119, Note_on_c, 0, 66, 0
2, 72120, Note_on_c, 0, 64, 84
2, 72143, Note_on_c, 0, 64, 0
2, 72144, Note_on_c, 0, 62, 84
2, 72167, Note_on_c, 0, 62, 0
2, 72168, Note_on_c, 0, 61, 84
2, 72191, Note_on_c, 0, 61, 0
2, 72192, Note_on_c, 0, 62, 84
2, 72215, Note_on_c, 0, 62, 0
2, 72216, Note_on_c, 0, 66, 84
2, 72239, Note_on_c, 0, 66, 0
2, 72240, Note_on_c, 0, 64, 84
2, 72263, Note_on_c, 0, 64, 0
2, 72264, Note_on_c, 0, 67, 84
2, 72287, Note_on_c, 0, 67, 0
2, 72288, Note_on_c, 0, 66, 84
2, 72311, Note_on_c, 0, 66, 0
2, 72312, Note_on_c, 0, 69, 84
2, 72335, Note_on_c, 0, 69, 0
2, 72336, Note_on_c, 0, 67, 84
2, 72359, Note_on_c, 0, 67, 0
2, 72360, Note_on_c, 0, 71, 84
2, 72383, Note_on_c, 0, 71, 0
2, 72384, Note_on_c, 0, 69, 84
2, 72429, Note_on_c, 0, 69, 0
2, 72432, Note_on_c, 0, 71, 84
2, 72455, Note_on_c, 0, 71, 0
2, 72456, Note_on_c, 0, 73, 84
2, 72479, Note_on_c, 0, 73, 0
2, 72480, Note_on_c, 0, 74, 84
2, 72503, Note_on_c, 0, 74, 0
2, 72504, Note_on_c, 0, 76, 84
2, 72527, Note_on_c, 0, 76, 0
2, 72528, Note_on_c, 0, 78, 84
2, 72551, Note_on_c, 0, 78, 0
2, 72552, Note_on_c, 0, 79, 84
2, 72575, Note_on_c, 0, 79, 0
2, 72576, Note_on_c, 0, 81, 100
2, 72624, Note_on_c, 0, 81, 0
2, 72624, Note_on_c, 0, 69, 84
2, 72669, Note_on_c, 0, 69, 0
2, 72672, Note_on_c, 0, 69, 84
2, 72717, Note_on_c, 0, 69, 0
2, 72720, Note_on_c, 0, 69, 84
2, 72765, Note_on_c, 0, 69, 0
2, 72768, Note_on_c, 0, 69, 84
2, 72791, Note_on_c, 0, 69, 0
2, 72792, Note_on_c, 0, 71, 84
2, 72815, Note_on_c, 0, 71, 0
2, 72816, Note_on_c, 0, 69, 84
2, 72839, Note_on_c, 0, 69, 0
2, 72840, Note_on_c, 0, 67, 84
2, 72863, Note_on_c, 0, 67, 0
2, 72864, Note_on_c, 0, 66, 84
2, 72887, Note_on_c, 0, 66, 0
2, 72888, Note_on_c, 0, 64, 84
2, 72911, Note_on_c, 0, 64, 0
2, 72912, Note_on_c, 0, 62, 84
2, 72935, Note_on_c, 0, 62, 0
2, 72936, Note_on_c, 0, 61, 84
2, 72959, Note_on_c, 0, 61, 0
2, 72960, Note_on_c, 0, 62, 84
2, 72983, Note_on_c, 0, 62, 0
2, 72984, Note_on_c, 0, 66, 84
2, 73007, Note_on_c, 0, 66, 0
2, 73008, Note_on_c, 0, 64, 84
2, 73031, Note_on_c, 0, 64, 0
2, 73032, Note_on_c, 0, 67, 84
2, 73055, Note_on_c, 0, 67, 0
2, 73056, Note_on_c, 0, 66, 84
2, 73079, Note_on_c, 0, 66, 0
2, 73080, Note_on_c, 0, 69, 84
2, 73103, Note_on_c, 0, 69, 0
2, 73104, Note_on_c, 0, 67, 84
2, 73127, Note_on_c, 0, 67, 0
2, 73128, Note_on_c, 0, 71, 84
2, 73151, Note_on_c, 0, 71, 0
2, 73152, Note_on_c, 0, 69, 84
2, 73197, Note_on_c, 0, 69, 0
2, 73200, Note_on_c, 0, 71, 84
2, 73223, Note_on_c, 0, 71, 0
2, 73224, Note_on_c, 0, 73, 84
2, 73247, Note_on_c, 0, 73, 0
2, 73248, Note_on_c, 0, 74, 84
2, 73271, Note_on_c, 0, 74, 0
2, 73272, Note_on_c, 0, 76, 84
2, 73295, Note_on_c, 0, 76, 0
2, 73296, Note_on_c, 0, 78, 84
2, 73319, Note_on_c, 0, 78, 0
2, 73320, Note_on_c, 0, 79, 84
2, 73343, Note_on_c, 0, 79, 0
2, 73344, Note_on_c, 0, 81, 100
2, 73368, Note_on_c, 0, 81, 0
2, 73368, Note_on_c, 0, 71, 84
2, 73391, Note_on_c, 0, 71, 0
2, 73392, Note_on_c, 0, 70, 84
2, 73415, Note_on_c, 0, 70, 0
2, 73416, Note_on_c, 0, 71, 84
2, 73439, Note_on_c, 0, 71, 0
2, 73440, Note_on_c, 0, 70, 84
2, 73463, Note_on_c, 0, 70, 0
2, 73464, Note_on_c, 0, 71, 84
2, 73487, Note_on_c, 0, 71, 0
2, 73488, Note_on_c, 0, 70, 84
2, 73511, Note_on_c, 0, 70, 0
2, 73512, Note_on_c, 0, 71, 84
2, 73535, Note_on_c, 0, 71, 0
2, 73536, Note_on_c, 0, 79, 100
2, 73560, Note_on_c, 0, 79, 0
2, 73560, Note_on_c, 0, 67, 84
2, 73583, Note_on_c, 0, 67, 0
2, 73584, Note_on_c, 0, 66, 84
2, 73607, Note_on_c, 0, 66, 0
2, 73608, Note_on_c, 0, 67, 84
2, 73631, Note_on_c, 0, 67, 0
2, 73632, Note_on_c, 0, 66, 84
2, 73655, Note_on_c, 0, 66, 0
2, 73656, Note_on_c, 0, 67, 84
2, 73679, Note_on_c, 0, 67, 0
2, 73680, Note_on_c, 0, 66, 84
2, 73703, Note_on_c, 0, 66, 0
2, 73704, Note_on_c, 0, 67, 84
2, 73727, Note_on_c, 0, 67, 0
2, 73728, Note_on_c, 0, 79, 100
2, 73752, Note_on_c, 0, 79, 0
2, 73752, Note_on_c, 0, 76, 84
2, 73775, Note_on_c, 0, 76, 0
2, 73776, Note_on_c, 0, 75, 84
2, 73799, Note_on_c, 0, 75, 0
2, 73800, Note_on_c, 0, 76, 84
2, 73823, Note_on_c, 0, 76, 0
2, 73824, Note_on_c, 0, 75, 84
2, 73847, Note_on_c, 0, 75, 0
2, 73848, Note_on_c, 0, 76, 84
2, 73871, Note_on_c, 0, 76, 0
2, 73872, Note_on_c, 0, 75, 84
2, 73895, Note_on_c, 0, 75, 0
2, 73896, Note_on_c, 0, 76, 84
2, 73919, Note_on_c, 0, 76, 0
2, 73920, Note_on_c, 0, 78, 100
2, 73944, Note_on_c, 0, 78, 0
2, 73944, Note_on_c, 0, 74, 84
2, 73967, Note_on_c, 0, 74, 0
2, 73968, Note_on_c, 0, 73, 84
2, 73991, Note_on_c, 0, 73, 0
2, 73992, Note_on_c, 0, 74, 84
2, 74015, Note_on_c, 0, 74, 0
2, 74016, Note_on_c, 0, 73, 84
2, 74039, Note_on_c, 0, 73, 0
2, 74040, Note_on_c, 0, 74, 84
2, 74063, Note_on_c, 0, 74, 0
2, 74064, Note_on_c, 0, 73, 84
2, 74087, Note_on_c, 0, 73, 0
2, 74088, Note_on_c, 0, 74, 84
2, 74111, Note_on_c, 0, 74, 0
2, 74112, Note_on_c, 0, 79, 100
2, 74136, Note_on_c, 0, 79, 0
2, 74136, Note_on_c, 0, 76, 84
2, 74159, Note_on_c, 0, 76, 0
2, 74160, Note_on_c, 0, 75, 84
2, 74183, Note_on_c, 0, 75, 0
2, 74184, Note_on_c, 0, 76, 84
2, 74207, Note_on_c, 0, 76, 0
2, 74208, Note_on_c, 0, 78, 100
2, 74232, Note_on_c, 0, 78, 0
2, 74232, Note_on_c, 0, 74, 84
2, 74255, Note_on_c, 0, 74, 0
2, 74256, Note_on_c, 0, 73, 84
2, 74279, Note_on_c, 0, 73, 0
2, 74280, Note_on_c, 0, 74, 84
2, 74303, Note_on_c, 0, 74, 0
2, 74304, Note_on_c, 0, 79, 100
2, 74328, Note_on_c, 0, 79, 0
2, 74328, Note_on_c, 0, 76, 84
2, 74351, Note_on_c, 0, 76, 0
2, 74352, Note_on_c, 0, 75, 84
2, 74375, Note_on_c, 0, 75, 0
2, 74376, Note_on_c, 0, 76, 84
2, 74399, Note_on_c, 0, 76, 0
2, 74400, Note_on_c, 0, 78, 100
2, 74424, Note_on_c, 0, 78, 0
2, 74424, Note_on_c, 0, 74, 84
2, 74447, Note_on_c, 0, 74, 0
2, 74448, Note_on_c, 0, 73, 84
2, 74471, Note_on_c, 0, 73, 0
2, 74472, Note_on_c, 0, 74, 84
2, 74495, Note_on_c, 0, 74, 0
2, 74496, Note_on_c, 0, 79, 93
2, 74520, Note_on_c, 0, 79, 0
2, 74520, Note_on_c, 0, 76, 77
2, 74543, Note_on_c, 0, 76, 0
2, 74544, Note_on_c, 0, 75, 77
2, 74567, Note_on_c, 0, 75, 0
2, 74568, Note_on_c, 0, 76, 77
2, 74591, Note_on_c, 0, 76, 0
2, 74592, Note_on_c, 0, 77, 93
2, 74616, Note_on_c, 0, 77, 0
2, 74616, Note_on_c, 0, 74, 77
2, 74639, Note_on_c, 0, 74, 0
2, 74640, Note_on_c, 0, 73, 77
2, 74663, Note_on_c, 0, 73, 0
2, 74664, Note_on_c, 0, 74, 77
2, 74687, Note_on_c, 0, 74, 0
2, 74688, Note_on_c, 0, 79, 93
2, 74712, Note_on_c, 0, 79, 0
2, 74712, Note_on_c, 0, 76, 77
2, 74735, Note_on_c, 0, 76, 0
2, 74736, Note_on_c, 0, 75, 77
2, 74759, Note_on_c, 0, 75, 0
2, 74760, Note_on_c, 0, 76, 77
2, 74783, Note_on_c, 0, 76, 0
2, 74784, Note_on_c, 0, 77, 93
2, 74808, Note_on_c, 0, 77, 0
2, 74808, Note_on_c, 0, 74, 77
2, 74831, Note_on_c, 0, 74, 0
2, 74832, Note_on_c, 0, 73, 77
2, 74855, Note_on_c, 0, 73, 0
2, 74856, Note_on_c, 0, 74, 77
2, 74879, Note_on_c, 0, 74, 0
2, 74904, Note_on_c, 0, 86, 107
2, 74928, Note_on_c, 0, 86, 0
2, 74928, Note_on_c, 0, 82, 91
2, 74951, Note_on_c, 0, 82, 0
2, 74952, Note_on_c, 0, 86, 91
2, 74975, Note_on_c, 0, 86, 0
2, 74976, Note_on_c, 0, 77, 91
2, 74999, Note_on_c, 0, 77, 0
2, 75000, Note_on_c, 0, 82, 91
2, 75023, Note_on_c, 0, 82, 0
2, 75024, Note_on_c, 0, 74, 91
2, 75047, Note_on_c, 0, 74, 0
2, 75048, Note_on_c, 0, 77, 91
2, 75071, Note_on_c, 0, 77, 0
2, 75072, Note_on_c, 0, 70, 91
2, 75117, Note_on_c, 0, 70, 0
2, 75192, Note_on_c, 0, 74, 91
2, 75215, Note_on_c, 0, 74, 0
2, 75216, Note_on_c, 0, 77, 91
2, 75239, Note_on_c, 0, 77, 0
2, 75240, Note_on_c, 0, 82, 91
2, 75263, Note_on_c, 0, 82, 0
2, 75264, Note_on_c, 0, 86, 91
2, 75287, Note_on_c, 0, 86, 0
2, 75288, Note_on_c, 0, 77, 91
2, 75311, Note_on_c, 0, 77, 0
2, 75312, Note_on_c, 0, 82, 91
2, 75335, Note_on_c, 0, 82, 0
2, 75336, Note_on_c, 0, 86, 91
2, 75359, Note_on_c, 0, 86, 0
2, 75360, Note_on_c, 0, 89, 91
2, 75383, Note_on_c, 0, 89, 0
2, 75384, Note_on_c, 0, 77, 91
2, 75407, Note_on_c, 0, 77, 0
2, 75408, Note_on_c, 0, 82, 91
2, 75431, Note_on_c, 0, 82, 0
2, 75432, Note_on_c, 0, 86, 91
2, 75455, Note_on_c, 0, 86, 0
2, 75456, Note_on_c, 0, 89, 91
2, 75501, Note_on_c, 0, 89, 0
2, 75552, Control_c, 0, 64, 0
2, 75672, Control_c, 0, 64, 127
2, 75672, Note_on_c, 0, 77, 91
2, 75695, Note_on_c, 0, 77, 0
2, 75696, Note_on_c, 0, 74, 91
2, 75719, Note_on_c, 0, 74, 0
2, 75720, Note_on_c, 0, 77, 91
2, 75743, Note_on_c, 0, 77, 0
2, 75744, Note_on_c, 0, 71, 91
2, 75767, Note_on_c, 0, 71, 0
2, 75768, Note_on_c, 0, 74, 91
2, 75791, Note_on_c, 0, 74, 0
2, 75792, Note_on_c, 0, 68, 91
2, 75815, Note_on_c, 0, 68, 0
2, 75816, Note_on_c, 0, 71, 91
2, 75839, Note_on_c, 0, 71, 0
2, 75840, Note_on_c, 0, 65, 91
2, 75863, Note_on_c, 0, 65, 0
2, 75864, Note_on_c, 0, 68, 91
2, 75887, Note_on_c, 0, 68, 0
2, 75888, Note_on_c, 0, 62, 91
2, 75911, Note_on_c, 0, 62, 0
2, 75912, Note_on_c, 0, 65, 91
2, 75935, Note_on_c, 0, 65, 0
2, 75936, Note_on_c, 0, 59, 91
2, 75959, Note_on_c, 0, 59, 0
2, 75960, Note_on_c, 0, 62, 91
2, 75983, Note_on_c, 0, 62, 0
2, 75984, Note_on_c, 0, 56, 91
2, 76007, Note_on_c, 0, 56, 0
2, 76008, Control_c, 0, 64, 0
2, 76008, Note_on_c, 0, 59, 91
2, 76031, Note_on_c, 0, 59, 0
2, 76080, Note_on_c, 0, 57, 84
2, 76100, Note_on_c, 0, 57, 0
2, 76128, Note_on_c, 0, 62, 84
2, 76148, Note_on_c, 0, 62, 0
2, 76176, Note_on_c, 0, 66, 84
2, 76196, Note_on_c, 0, 66, 0
2, 76224, Note_on_c, 0, 69, 84
2, 76244, Note_on_c, 0, 69, 0
2, 76272, Note_on_c, 0, 74, 84
2, 76292, Note_on_c, 0, 74, 0
2, 76320, Note_on_c, 0, 78, 84
2, 76340, Note_on_c, 0, 78, 0
2, 76368, Note_on_c, 0, 81, 84
2, 76388, Note_on_c, 0, 81, 0
2, 76608, Note_on_c, 0, 76, 84
2, 76626, Note_on_c, 0, 76, 0
2, 76626, Note_on_c, 0, 78, 84
2, 76644, Note_on_c, 0, 78, 0
2, 76644, Note_on_c, 0, 76, 84
2, 76662, Note_on_c, 0, 76, 0
2, 76662, Note_on_c, 0, 78, 84
2, 76680, Note_on_c, 0, 78, 0
2, 76680, Note_on_c, 0, 76, 84
2, 76698, Note_on_c, 0, 76, 0
2, 76698, Note_on_c, 0, 78, 84
2, 76716, Note_on_c, 0, 78, 0
2, 76716, Note_on_c, 0, 76, 84
2, 76734, Note_on_c, 0, 76, 0
2, 76734, Note_on_c, 0, 78, 84
2, 76741, Note_on_c, 0, 78, 0
2, 76752, Note_on_c, 0, 74, 84
2, 76775, Note_on_c, 0, 74, 0
2, 76776, Note_on_c, 0, 76, 84
2, 76799, Note_on_c, 0, 76, 0
2, 76800, Note_on_c, 0, 74, 84
2, 76845, Note_on_c, 0, 74, 0
2, 76896, Note_on_c, 0, 74, 84
2, 76896, Note_on_c, 0, 71, 84
2, 76916, Note_on_c, 0, 74, 0
2, 76916, Note_on_c, 0, 71, 0
2, 76944, Note_on_c, 0, 73, 84
2, 76944, Note_on_c, 0, 69, 84
2, 76964, Note_on_c, 0, 73, 0
2, 76964, Note_on_c, 0, 69, 0
2, 76992, Note_on_c, 0, 67, 84
2, 76992, Note_on_c, 0, 71, 84
2, 77004, Note_on_c, 0, 71, 0
2, 77004, Note_on_c, 0, 67, 0
2, 77004, Note_on_c, 0, 66, 84
2, 77004, Note_on_c, 0, 69, 84
2, 77016, Note_on_c, 0, 69, 0
2, 77016, Note_on_c, 0, 66, 0
2, 77016, Note_on_c, 0, 71, 84
2, 77016, Note_on_c, 0, 67, 84
2, 77037, Note_on_c, 0, 71, 0
2, 77037, Note_on_c, 0, 67, 0
2, 77088, Note_on_c, 0, 71, 84
2, 77088, Note_on_c, 0, 67, 84
2, 77108, Note_on_c, 0, 71, 0
2, 77108, Note_on_c, 0, 67, 0
2, 77136, Note_on_c, 0, 69, 84
2, 77136, Note_on_c, 0, 66, 84
2, 77156, Note_on_c, 0, 69, 0
2, 77156, Note_on_c, 0, 66, 0
2, 77184, Note_on_c, 0, 64, 84
2, 77184, Note_on_c, 0, 67, 84
2, 77196, Note_on_c, 0, 67, 0
2, 77196, Note_on_c, 0, 64, 0
2, 77196, Note_on_c, 0, 62, 84
2, 77196, Note_on_c, 0, 66, 84
2, 77208, Note_on_c, 0, 66, 0
2, 77208, Note_on_c, 0, 62, 0
2, 77208, Note_on_c, 0, 67, 84
2, 77208, Note_on_c, 0, 64, 84
2, 77229, Note_on_c, 0, 67, 0
2, 77229, Note_on_c, 0, 64, 0
2, 77280, Note_on_c, 0, 66, 77
2, 77280, Note_on_c, 0, 57, 77
2, 77325, Note_on_c, 0, 66, 0
2, 77325, Note_on_c, 0, 57, 0
2, 77328, Note_on_c, 0, 66, 77
2, 77328, Note_on_c, 0, 57, 77
2, 77373, Note_on_c, 0, 66, 0
2, 77373, Note_on_c, 0, 57, 0
2, 77376, Note_on_c, 0, 64, 77
2, 77376, Note_on_c, 0, 59, 77
2, 77421, Note_on_c, 0, 64, 0
2, 77421, Note_on_c, 0, 59, 0
2, 77472, Note_on_c, 0, 61, 77
2, 77472, Note_on_c, 0, 55, 77
2, 77517, Note_on_c, 0, 61, 0
2, 77517, Note_on_c, 0, 55, 0
2, 77520, Note_on_c, 0, 61, 77
2, 77520, Note_on_c, 0, 55, 77
2, 77565, Note_on_c, 0, 61, 0
2, 77565, Note_on_c, 0, 55, 0
2, 77568, Note_on_c, 0, 62, 77
2, 77568, Note_on_c, 0, 54, 77
2, 77613, Note_on_c, 0, 62, 0
2, 77613, Note_on_c, 0, 54, 0
2, 77664, Note_on_c, 0, 86, 84
2, 77687, Note_on_c, 0, 86, 0
2, 77688, Note_on_c, 0, 88, 84
2, 77711, Note_on_c, 0, 88, 0
2, 77712, Note_on_c, 0, 85, 84
2, 77735, Note_on_c, 0, 85, 0
2, 77736, Note_on_c, 0, 86, 84
2, 77759, Note_on_c, 0, 86, 0
2, 77760, Note_on_c, 0, 83, 84
2, 77780, Note_on_c, 0, 83, 0
2, 77856, Note_on_c, 0, 83, 84
2, 77879, Note_on_c, 0, 83, 0
2, 77880, Note_on_c, 0, 85, 84
2, 77903, Note_on_c, 0, 85, 0
2, 77904, Note_on_c, 0, 81, 84
2, 77927, Note_on_c, 0, 81, 0
2, 77928, Note_on_c, 0, 83, 84
2, 77951, Note_on_c, 0, 83, 0
2, 77952, Note_on_c, 0, 79, 84
2, 77972, Note_on_c, 0, 79, 0
2, 78048, Note_on_c, 0, 78, 77
2, 78048, Note_on_c, 0, 69, 77
2, 78093, Note_on_c, 0, 78, 0
2, 78093, Note_on_c, 0, 69, 0
2, 78096, Note_on_c, 0, 78, 77
2, 78096, Note_on_c, 0, 69, 77
2, 78141, Note_on_c, 0, 78, 0
2, 78141, Note_on_c, 0, 69, 0
2, 78144, Note_on_c, 0, 76, 77
2, 78144, Note_on_c, 0, 71, 77
2, 78189, Note_on_c, 0, 76, 0
2, 78189, Note_on_c, 0, 71, 0
2, 78192, Note_on_c, 0, 76, 77
2, 78192, Note_on_c, 0, 71, 77
2, 78237, Note_on_c, 0, 76, 0
2, 78237, Note_on_c, 0, 71, 0
2, 78240, Note_on_c, 0, 73, 77
2, 78240, Note_on_c, 0, 67, 77
2, 78285, Note_on_c, 0, 73, 0
2, 78285, Note_on_c, 0, 67, 0
2, 78288, Note_on_c, 0, 73, 77
2, 78288, Note_on_c, 0, 67, 77
2, 78333, Note_on_c, 0, 73, 0
2, 78333, Note_on_c, 0, 67, 0
2, 78336, Note_on_c, 0, 74, 84
2, 78359, Note_on_c, 0, 74, 0
2, 78360, Note_on_c, 0, 69, 84
2, 78383, Note_on_c, 0, 69, 0
2, 78384, Note_on_c, 0, 78, 84
2, 78407, Note_on_c, 0, 78, 0
2, 78408, Note_on_c, 0, 69, 84
2, 78431, Note_on_c, 0, 69, 0
2, 78432, Note_on_c, 0, 74, 84
2, 78455, Note_on_c, 0, 74, 0
2, 78456, Note_on_c, 0, 69, 84
2, 78479, Note_on_c, 0, 69, 0
2, 78480, Note_on_c, 0, 73, 84
2, 78503, Note_on_c, 0, 73, 0
2, 78504, Note_on_c, 0, 69, 84
2, 78527, Note_on_c, 0, 69, 0
2, 78528, Note_on_c, 0, 74, 84
2, 78551, Note_on_c, 0, 74, 0
2, 78552, Note_on_c, 0, 69, 84
2, 78575, Note_on_c, 0, 69, 0
2, 78576, Note_on_c, 0, 78, 84
2, 78599, Note_on_c, 0, 78, 0
2, 78600, Note_on_c, 0, 69, 84
2, 78623, Note_on_c, 0, 69, 0
2, 78624, Note_on_c, 0, 74, 84
2, 78647, Note_on_c, 0, 74, 0
2, 78648, Note_on_c, 0, 69, 84
2, 78671, Note_on_c, 0, 69, 0
2, 78672, Note_on_c, 0, 73, 84
2, 78695, Note_on_c, 0, 73, 0
2, 78696, Note_on_c, 0, 69, 84
2, 78719, Note_on_c, 0, 69, 0
2, 78720, Note_on_c, 0, 74, 84
2, 78765, Note_on_c, 0, 74, 0
2, 78816, Note_on_c, 0, 78, 84
2, 78816, Note_on_c, 0, 74, 84
2, 78888, Note_on_c, 0, 74, 0
2, 78888, Note_on_c, 0, 81, 84
2, 78911, Note_on_c, 0, 81, 0
2, 78911, Note_on_c, 0, 78, 0
2, 78912, Note_on_c, 0, 78, 84
2, 78912, Note_on_c, 0, 74, 84
2, 78957, Note_on_c, 0, 78, 0
2, 78957, Note_on_c, 0, 74, 0
2, 79104, End_track
3, 0, Start_track
3, 0, Program_c, 0, 0
3, 0, Control_c, 0, 7, 127
3, 0, Control_c, 0, 10, 64
3, 768, Note_on_c, 0, 74, 64
3, 788, Note_on_c, 0, 74, 0
3, 816, Note_on_c, 0, 74, 64
3, 905, Note_on_c, 0, 74, 0
3, 912, Note_on_c, 0, 74, 64
3, 1001, Note_on_c, 0, 74, 0
3, 1008, Note_on_c, 0, 74, 64
3, 1097, Note_on_c, 0, 74, 0
3, 1104, Note_on_c, 0, 74, 64
3, 1149, Note_on_c, 0, 74, 0
3, 2304, Note_on_c, 0, 74, 64
3, 2324, Note_on_c, 0, 74, 0
3, 2352, Note_on_c, 0, 74, 64
3, 2441, Note_on_c, 0, 74, 0
3, 2448, Note_on_c, 0, 74, 64
3, 2537, Note_on_c, 0, 74, 0
3, 2544, Note_on_c, 0, 74, 64
3, 2633, Note_on_c, 0, 74, 0
3, 2640, Note_on_c, 0, 74, 64
3, 2685, Note_on_c, 0, 74, 0
3, 16128, Note_on_c, 0, 74, 64
3, 16148, Note_on_c, 0, 74, 0
3, 16176, Note_on_c, 0, 74, 64
3, 16265, Note_on_c, 0, 74, 0
3, 16272, Note_on_c, 0, 74, 64
3, 16361, Note_on_c, 0, 74, 0
3, 16368, Note_on_c, 0, 74, 64
3, 16457, Note_on_c, 0, 74, 0
3, 16464, Note_on_c, 0, 74, 64
3, 16509, Note_on_c, 0, 74, 0
3, 17664, Note_on_c, 0, 74, 64
3, 17684, Note_on_c, 0, 74, 0
3, 17712, Note_on_c, 0, 74, 64
3, 17801, Note_on_c, 0, 74, 0
3, 17808, Note_on_c, 0, 74, 64
3, 17897, Note_on_c, 0, 74, 0
3, 17904, Note_on_c, 0, 74, 64
3, 17993, Note_on_c, 0, 74, 0
3, 18000, Note_on_c, 0, 74, 64
3, 18045, Note_on_c, 0, 74, 0
3, 33024, Note_on_c, 0, 76, 64
3, 33113, Note_on_c, 0, 76, 0
3, 33120, Note_on_c, 0, 74, 64
3, 33297, Note_on_c, 0, 74, 0
3, 33312, Note_on_c, 0, 73, 64
3, 33497, Note_on_c, 0, 73, 0
3, 33504, Note_on_c, 0, 71, 64
3, 33681, Note_on_c, 0, 71, 0
3, 33696, Note_on_c, 0, 69, 64
3, 33881, Note_on_c, 0, 69, 0
3, 33888, Note_on_c, 0, 67, 64
3, 34065, Note_on_c, 0, 67, 0
3, 34080, Note_on_c, 0, 66, 64
3, 34265, Note_on_c, 0, 66, 0
3, 34272, Note_on_c, 0, 64, 64
3, 34449, Note_on_c, 0, 64, 0
3, 34464, Note_on_c, 0, 62, 64
3, 34553, Note_on_c, 0, 62, 0
3, 39168, Note_on_c, 0, 74, 64
3, 39213, Note_on_c, 0, 74, 0
3, 39216, Note_on_c, 0, 74, 64
3, 39305, Note_on_c, 0, 74, 0
3, 39312, Note_on_c, 0, 74, 64
3, 39401, Note_on_c, 0, 74, 0
3, 39408, Note_on_c, 0, 74, 64
3, 39497, Note_on_c, 0, 74, 0
3, 39504, Note_on_c, 0, 74, 64
3, 39549, Note_on_c, 0, 74, 0
3, 57216, Note_on_c, 0, 76, 64
3, 57305, Note_on_c, 0, 76, 0
3, 57312, Note_on_c, 0, 74, 64
3, 57489, Note_on_c, 0, 74, 0
3, 57504, Note_on_c, 0, 73, 64
3, 57689, Note_on_c, 0, 73, 0
3, 57696, Note_on_c, 0, 71, 64
3, 57873, Note_on_c, 0, 71, 0
3, 57888, Note_on_c, 0, 69, 64
3, 58073, Note_on_c, 0, 69, 0
3, 58080, Note_on_c, 0, 67, 64
3, 58257, Note_on_c, 0, 67, 0
3, 58272, Note_on_c, 0, 66, 64
3, 58457, Note_on_c, 0, 66, 0
3, 58464, Note_on_c, 0, 64, 64
3, 58641, Note_on_c, 0, 64, 0
3, 58656, Note_on_c, 0, 62, 64
3, 58745, Note_on_c, 0, 62, 0
3, 63360, Note_on_c, 0, 74, 64
3, 63405, Note_on_c, 0, 74, 0
3, 63408, Note_on_c, 0, 74, 64
3, 63497, Note_on_c, 0, 74, 0
3, 63504, Note_on_c, 0, 74, 64
3, 63593, Note_on_c, 0, 74, 0
3, 63600, Note_on_c, 0, 74, 64
3, 63689, Note_on_c, 0, 74, 0
3, 63696, Note_on_c, 0, 74, 64
3, 63741, Note_on_c, 0, 74, 0
3, 79104, End_track
4, 0, Start_track
4, 0, Program_c, 0, 0
4, 0, Control_c, 0, 7, 127
4, 0, Control_c, 0, 10, 64
4, 0, Note_on_c, 0, 62, 77
4, 0, Note_on_c, 0, 57, 77
4, 0, Note_on_c, 0, 54, 77
4, 0, Note_on_c, 0, 50, 77
4, 89, Note_on_c, 0, 62, 0
4, 89, Note_on_c, 0, 57, 0
4, 89, Note_on_c, 0, 54, 0
4, 89, Note_on_c, 0, 50, 0
4, 144, Note_on_c, 0, 69, 77
4, 144, Note_on_c, 0, 66, 77
4, 189, Note_on_c, 0, 69, 0
4, 189, Note_on_c, 0, 66, 0
4, 192, Note_on_c, 0, 71, 77
4, 192, Note_on_c, 0, 67, 77
4, 237, Note_on_c, 0, 71, 0
4, 237, Note_on_c, 0, 67, 0
4, 240, Note_on_c, 0, 69, 77
4, 240, Note_on_c, 0, 66, 77
4, 285, Note_on_c, 0, 69, 0
4, 285, Note_on_c, 0, 66, 0
4, 288, Note_on_c, 0, 71, 77
4, 288, Note_on_c, 0, 67, 77
4, 333, Note_on_c, 0, 71, 0
4, 333, Note_on_c, 0, 67, 0
4, 336, Note_on_c, 0, 69, 77
4, 336, Note_on_c, 0, 66, 77
4, 381, Note_on_c, 0, 69, 0
4, 381, Note_on_c, 0, 66, 0
4, 384, Note_on_c, 0, 69, 77
4, 384, Note_on_c, 0, 66, 77
4, 384, Note_on_c, 0, 62, 77
4, 473, Note_on_c, 0, 69, 0
4, 473, Note_on_c, 0, 66, 0
4, 473, Note_on_c, 0, 62, 0
4, 528, Note_on_c, 0, 69, 77
4, 528, Note_on_c, 0, 66, 77
4, 573, Note_on_c, 0, 69, 0
4, 573, Note_on_c, 0, 66, 0
4, 576, Note_on_c, 0, 71, 77
4, 576, Note_on_c, 0, 67, 77
4, 621, Note_on_c, 0, 71, 0
4, 621, Note_on_c, 0, 67, 0
4, 624, Note_on_c, 0, 69, 77
4, 624, Note_on_c, 0, 66, 77
4, 669, Note_on_c, 0, 69, 0
4, 669, Note_on_c, 0, 66, 0
4, 672, Note_on_c, 0, 71, 77
4, 672, Note_on_c, 0, 67, 77
4, 717, Note_on_c, 0, 71, 0
4, 717, Note_on_c, 0, 67, 0
4, 720, Note_on_c, 0, 69, 77
4, 720, Note_on_c, 0, 66, 77
4, 765, Note_on_c, 0, 69, 0
4, 765, Note_on_c, 0, 66, 0
4, 768, Note_on_c, 0, 71, 77
4, 788, Note_on_c, 0, 71, 0
4, 816, Note_on_c, 0, 71, 77
4, 864, Note_on_c, 0, 71, 0
4, 864, Note_on_c, 0, 69, 77
4, 884, Note_on_c, 0, 69, 0
4, 912, Note_on_c, 0, 69, 77
4, 960, Note_on_c, 0, 69, 0
4, 960, Note_on_c, 0, 67, 77
4, 980, Note_on_c, 0, 67, 0
4, 1008, Note_on_c, 0, 67, 77
4, 1056, Note_on_c, 0, 67, 0
4, 1056, Note_on_c, 0, 66, 77
4, 1076, Note_on_c, 0, 66, 0
4, 1104, Note_on_c, 0, 66, 77
4, 1149, Note_on_c, 0, 66, 0
4, 1152, Note_on_c, 0, 64, 77
4, 1197, Note_on_c, 0, 64, 0
4, 1200, Note_on_c, 0, 61, 77
4, 1245, Note_on_c, 0, 61, 0
4, 1248, Note_on_c, 0, 62, 77
4, 1293, Note_on_c, 0, 62, 0
4, 1296, Note_on_c, 0, 66, 77
4, 1341, Note_on_c, 0, 66, 0
4, 1344, Note_on_c, 0, 69, 77
4, 1433, Note_on_c, 0, 69, 0
4, 1536, Note_on_c, 0, 62, 77
4, 1559, Note_on_c, 0, 62, 0
4, 1560, Note_on_c, 0, 69, 77
4, 1583, Note_on_c, 0, 69, 0
4, 1584, Note_on_c, 0, 66, 77
4, 1607, Note_on_c, 0, 66, 0
4, 1608, Note_on_c, 0, 69, 77
4, 1631, Note_on_c, 0, 69, 0
4, 1632, Note_on_c, 0, 66, 77
4, 1655, Note_on_c, 0, 66, 0
4, 1656, Note_on_c, 0, 69, 77
4, 1679, Note_on_c, 0, 69, 0
4, 1680, Note_on_c, 0, 66, 77
4, 1703, Note_on_c, 0, 66, 0
4, 1704, Note_on_c, 0, 69, 77
4, 1727, Note_on_c, 0, 69, 0
4, 1728, Note_on_c, 0, 67, 77
4, 1751, Note_on_c, 0, 67, 0
4, 1752, Note_on_c, 0, 69, 77
4, 1775, Note_on_c, 0, 69, 0
4, 1776, Note_on_c, 0, 66, 77
4, 1799, Note_on_c, 0, 66, 0
4, 1800, Note_on_c, 0, 69, 77
4, 1823, Note_on_c, 0, 69, 0
4, 1824, Note_on_c, 0, 67, 77
4, 1847, Note_on_c, 0, 67, 0
4, 1848, Note_on_c, 0, 69, 77
4, 1871, Note_on_c, 0, 69, 0
4, 1872, Note_on_c, 0, 66, 77
4, 1895, Note_on_c, 0, 66, 0
4, 1896, Note_on_c, 0, 69, 77
4, 1919, Note_on_c, 0, 69, 0
4, 1920, Note_on_c, 0, 62, 77
4, 1943, Note_on_c, 0, 62, 0
4, 1944, Note_on_c, 0, 69, 77
4, 1967, Note_on_c, 0, 69, 0
4, 1968, Note_on_c, 0, 66, 77
4, 1991, Note_on_c, 0, 66, 0
4, 1992, Note_on_c, 0, 69, 77
4, 2015, Note_on_c, 0, 69, 0
4, 2016, Note_on_c, 0, 66, 77
4, 2039, Note_on_c, 0, 66, 0
4, 2040, Note_on_c, 0, 69, 77
4, 2063, Note_on_c, 0, 69, 0
4, 2064, Note_on_c, 0, 66, 77
4, 2087, Note_on_c, 0, 66, 0
4, 2088, Note_on_c, 0, 69, 77
4, 2111, Note_on_c, 0, 69, 0
4, 2112, Note_on_c, 0, 67, 77
4, 2135, Note_on_c, 0, 67, 0
4, 2136, Note_on_c, 0, 69, 77
4, 2159, Note_on_c, 0, 69, 0
4, 2160, Note_on_c, 0, 66, 77
4, 2183, Note_on_c, 0, 66, 0
4, 2184, Note_on_c, 0, 69, 77
4, 2207, Note_on_c, 0, 69, 0
4, 2208, Note_on_c, 0, 67, 77
4, 2231, Note_on_c, 0, 67, 0
4, 2232, Note_on_c, 0, 69, 77
4, 2255, Note_on_c, 0, 69, 0
4, 2256, Note_on_c, 0, 66, 77
4, 2279, Note_on_c, 0, 66, 0
4, 2280, Note_on_c, 0, 69, 77
4, 2303, Note_on_c, 0, 69, 0
4, 2304, Note_on_c, 0, 71, 77
4, 2324, Note_on_c, 0, 71, 0
4, 2352, Note_on_c, 0, 71, 77
4, 2400, Note_on_c, 0, 71, 0
4, 2400, Note_on_c, 0, 69, 77
4, 2420, Note_on_c, 0, 69, 0
4, 2448, Note_on_c, 0, 69, 77
4, 2496, Note_on_c, 0, 69, 0
4, 2496, Note_on_c, 0, 67, 77
4, 2516, Note_on_c, 0, 67, 0
4, 2544, Note_on_c, 0, 67, 77
4, 2592, Note_on_c, 0, 67, 0
4, 2592, Note_on_c, 0, 66, 77
4, 2612, Note_on_c, 0, 66, 0
4, 2640, Note_on_c, 0, 66, 77
4, 2685, Note_on_c, 0, 66, 0
4, 2688, Note_on_c, 0, 67, 77
4, 2777, Note_on_c, 0, 67, 0
4, 2832, Note_on_c, 0, 57, 71
4, 2877, Note_on_c, 0, 57, 0
4, 2880, Note_on_c, 0, 50, 69
4, 2969, Note_on_c, 0, 50, 0
4, 3072, Note_on_c, 0, 50, 84
4, 3072, Note_on_c, 0, 38, 84
4, 3161, Note_on_c, 0, 50, 0
4, 3161, Note_on_c, 0, 38, 0
4, 3168, Note_on_c, 0, 50, 84
4, 3213, Note_on_c, 0, 50, 0
4, 3216, Note_on_c, 0, 49, 84
4, 3261, Note_on_c, 0, 49, 0
4, 3264, Note_on_c, 0, 50, 84
4, 3309, Note_on_c, 0, 50, 0
4, 3312, Note_on_c, 0, 52, 84
4, 3357, Note_on_c, 0, 52, 0
4, 3360, Note_on_c, 0, 54, 84
4, 3405, Note_on_c, 0, 54, 0
4, 3408, Note_on_c, 0, 52, 84
4, 3453, Note_on_c, 0, 52, 0
4, 3456, Note_on_c, 0, 50, 84
4, 3456, Note_on_c, 0, 38, 84
4, 3545, Note_on_c, 0, 50, 0
4, 3545, Note_on_c, 0, 38, 0
4, 3552, Note_on_c, 0, 50, 84
4, 3597, Note_on_c, 0, 50, 0
4, 3600, Note_on_c, 0, 52, 84
4, 3645, Note_on_c, 0, 52, 0
4, 3648, Note_on_c, 0, 54, 84
4, 3693, Note_on_c, 0, 54, 0
4, 3696, Note_on_c, 0, 55, 84
4, 3741, Note_on_c, 0, 55, 0
4, 3744, Note_on_c, 0, 54, 84
4, 3789, Note_on_c, 0, 54, 0
4, 3792, Note_on_c, 0, 52, 84
4, 3837, Note_on_c, 0, 52, 0
4, 3840, Note_on_c, 0, 50, 84
4, 3840, Note_on_c, 0, 38, 84
4, 3929, Note_on_c, 0, 50, 0
4, 3929, Note_on_c, 0, 38, 0
4, 3936, Note_on_c, 0, 62, 84
4, 3981, Note_on_c, 0, 62, 0
4, 3984, Note_on_c, 0, 61, 84
4, 4029, Note_on_c, 0, 61, 0
4, 4032, Note_on_c, 0, 62, 84
4, 4077, Note_on_c, 0, 62, 0
4, 4080, Note_on_c, 0, 64, 84
4, 4125, Note_on_c, 0, 64, 0
4, 4128, Note_on_c, 0, 66, 84
4, 4173, Note_on_c, 0, 66, 0
4, 4176, Note_on_c, 0, 64, 84
4, 4221, Note_on_c, 0, 64, 0
4, 4224, Note_on_c, 0, 50, 84
4, 4224, Note_on_c, 0, 38, 84
4, 4313, Note_on_c, 0, 50, 0
4, 4313, Note_on_c, 0, 38, 0
4, 4320, Note_on_c, 0, 62, 84
4, 4365, Note_on_c, 0, 62, 0
4, 4368, Note_on_c, 0, 64, 84
4, 4413, Note_on_c, 0, 64, 0
4, 4416, Note_on_c, 0, 66, 84
4, 4461, Note_on_c, 0, 66, 0
4, 4464, Note_on_c, 0, 67, 84
4, 4509, Note_on_c, 0, 67, 0
4, 4512, Note_on_c, 0, 66, 84
4, 4557, Note_on_c, 0, 66, 0
4, 4560, Note_on_c, 0, 64, 84
4, 4605, Note_on_c, 0, 64, 0
4, 4608, Note_on_c, 0, 62, 84
4, 4653, Note_on_c, 0, 62, 0
4, 4656, Note_on_c, 0, 66, 84
4, 4701, Note_on_c, 0, 66, 0
4, 4704, Note_on_c, 0, 67, 84
4, 4749, Note_on_c, 0, 67, 0
4, 4752, Note_on_c, 0, 71, 84
4, 4797, Note_on_c, 0, 71, 0
4, 4800, Note_on_c, 0, 66, 84
4, 4845, Note_on_c, 0, 66, 0
4, 4848, Note_on_c, 0, 69, 84
4, 4893, Note_on_c, 0, 69, 0
4, 4896, Note_on_c, 0, 64, 84
4, 4941, Note_on_c, 0, 64, 0
4, 4944, Note_on_c, 0, 67, 84
4, 4989, Note_on_c, 0, 67, 0
4, 4992, Note_on_c, 0, 62, 84
4, 5037, Note_on_c, 0, 62, 0
4, 5040, Note_on_c, 0, 66, 84
4, 5085, Note_on_c, 0, 66, 0
4, 5088, Note_on_c, 0, 67, 84
4, 5133, Note_on_c, 0, 67, 0
4, 5136, Note_on_c, 0, 71, 84
4, 5181, Note_on_c, 0, 71, 0
4, 5184, Note_on_c, 0, 66, 84
4, 5229, Note_on_c, 0, 66, 0
4, 5232, Note_on_c, 0, 69, 84
4, 5277, Note_on_c, 0, 69, 0
4, 5280, Note_on_c, 0, 64, 84
4, 5325, Note_on_c, 0, 64, 0
4, 5328, Note_on_c, 0, 67, 84
4, 5373, Note_on_c, 0, 67, 0
4, 5376, Note_on_c, 0, 66, 91
4, 5399, Note_on_c, 0, 66, 0
4, 5400, Note_on_c, 0, 62, 91
4, 5423, Note_on_c, 0, 62, 0
4, 5424, Note_on_c, 0, 64, 91
4, 5447, Note_on_c, 0, 64, 0
4, 5448, Note_on_c, 0, 66, 91
4, 5471, Note_on_c, 0, 66, 0
4, 5472, Note_on_c, 0, 67, 91
4, 5495, Note_on_c, 0, 67, 0
4, 5496, Note_on_c, 0, 69, 91
4, 5519, Note_on_c, 0, 69, 0
4, 5520, Note_on_c, 0, 71, 91
4, 5543, Note_on_c, 0, 71, 0
4, 5544, Note_on_c, 0, 73, 91
4, 5567, Note_on_c, 0, 73, 0
4, 5568, Note_on_c, 0, 74, 91
4, 5591, Note_on_c, 0, 74, 0
4, 5592, Note_on_c, 0, 73, 91
4, 5615, Note_on_c, 0, 73, 0
4, 5616, Note_on_c, 0, 74, 91
4, 5639, Note_on_c, 0, 74, 0
4, 5640, Note_on_c, 0, 73, 91
4, 5663, Note_on_c, 0, 73, 0
4, 5664, Note_on_c, 0, 74, 91
4, 5687, Note_on_c, 0, 74, 0
4, 5688, Note_on_c, 0, 69, 91
4, 5711, Note_on_c, 0, 69, 0
4, 5712, Note_on_c, 0, 66, 91
4, 5735, Note_on_c, 0, 66, 0
4, 5736, Note_on_c, 0, 62, 91
4, 5759, Note_on_c, 0, 62, 0
4, 5760, Note_on_c, 0, 69, 91
4, 5849, Note_on_c, 0, 69, 0
4, 5856, Note_on_c, 0, 57, 84
4, 5856, Note_on_c, 0, 45, 84
4, 5923, Note_on_c, 0, 57, 0
4, 5923, Note_on_c, 0, 45, 0
4, 5928, Note_on_c, 0, 57, 84
4, 5928, Note_on_c, 0, 45, 84
4, 5951, Note_on_c, 0, 57, 0
4, 5951, Note_on_c, 0, 45, 0
4, 5952, Note_on_c, 0, 57, 84
4, 5952, Note_on_c, 0, 45, 84
4, 6041, Note_on_c, 0, 57, 0
4, 6041, Note_on_c, 0, 45, 0
4, 6144, Note_on_c, 0, 64, 69
4, 6144, Note_on_c, 0, 61, 69
4, 6189, Note_on_c, 0, 64, 0
4, 6189, Note_on_c, 0, 61, 0
4, 6192, Note_on_c, 0, 64, 69
4, 6192, Note_on_c, 0, 61, 69
4, 6237, Note_on_c, 0, 64, 0
4, 6237, Note_on_c, 0, 61, 0
4, 6240, Note_on_c, 0, 64, 69
4, 6240, Note_on_c, 0, 61, 69
4, 6285, Note_on_c, 0, 64, 0
4, 6285, Note_on_c, 0, 61, 0
4, 6288, Note_on_c, 0, 64, 69
4, 6288, Note_on_c, 0, 61, 69
4, 6333, Note_on_c, 0, 64, 0
4, 6333, Note_on_c, 0, 61, 0
4, 6336, Note_on_c, 0, 66, 69
4, 6336, Note_on_c, 0, 62, 69
4, 6381, Note_on_c, 0, 66, 0
4, 6381, Note_on_c, 0, 62, 0
4, 6384, Note_on_c, 0, 66, 69
4, 6384, Note_on_c, 0, 62, 69
4, 6429, Note_on_c, 0, 66, 0
4, 6429, Note_on_c, 0, 62, 0
4, 6432, Note_on_c, 0, 66, 69
4, 6432, Note_on_c, 0, 62, 69
4, 6477, Note_on_c, 0, 66, 0
4, 6477, Note_on_c, 0, 62, 0
4, 6480, Note_on_c, 0, 66, 69
4, 6480, Note_on_c, 0, 62, 69
4, 6525, Note_on_c, 0, 66, 0
4, 6525, Note_on_c, 0, 62, 0
4, 6528, Note_on_c, 0, 68, 69
4, 6528, Note_on_c, 0, 64, 69
4, 6573, Note_on_c, 0, 68, 0
4, 6573, Note_on_c, 0, 64, 0
4, 6576, Note_on_c, 0, 68, 69
4, 6576, Note_on_c, 0, 64, 69
4, 6621, Note_on_c, 0, 68, 0
4, 6621, Note_on_c, 0, 64, 0
4, 6624, Note_on_c, 0, 68, 69
4, 6624, Note_on_c, 0, 64, 69
4, 6669, Note_on_c, 0, 68, 0
4, 6669, Note_on_c, 0, 64, 0
4, 6672, Note_on_c, 0, 68, 69
4, 6672, Note_on_c, 0, 64, 69
4, 6717, Note_on_c, 0, 68, 0
4, 6717, Note_on_c, 0, 64, 0
4, 6720, Note_on_c, 0, 69, 69
4, 6720, Note_on_c, 0, 66, 69
4, 6765, Note_on_c, 0, 69, 0
4, 6765, Note_on_c, 0, 66, 0
4, 6768, Note_on_c, 0, 69, 70
4, 6768, Note_on_c, 0, 66, 70
4, 6813, Note_on_c, 0, 69, 0
4, 6813, Note_on_c, 0, 66, 0
4, 6816, Note_on_c, 0, 69, 71
4, 6816, Note_on_c, 0, 66, 71
4, 6861, Note_on_c, 0, 69, 0
4, 6861, Note_on_c, 0, 66, 0
4, 6864, Note_on_c, 0, 69, 72
4, 6864, Note_on_c, 0, 66, 72
4, 6909, Note_on_c, 0, 69, 0
4, 6909, Note_on_c, 0, 66, 0
4, 6912, Note_on_c, 0, 66, 73
4, 6912, Note_on_c, 0, 62, 73
4, 6957, Note_on_c, 0, 66, 0
4, 6957, Note_on_c, 0, 62, 0
4, 6960, Note_on_c, 0, 66, 74
4, 6960, Note_on_c, 0, 62, 74
4, 7005, Note_on_c, 0, 66, 0
4, 7005, Note_on_c, 0, 62, 0
4, 7008, Note_on_c, 0, 66, 75
4, 7008, Note_on_c, 0, 62, 75
4, 7053, Note_on_c, 0, 66, 0
4, 7053, Note_on_c, 0, 62, 0
4, 7056, Note_on_c, 0, 66, 76
4, 7056, Note_on_c, 0, 62, 76
4, 7101, Note_on_c, 0, 66, 0
4, 7101, Note_on_c, 0, 62, 0
4, 7104, Note_on_c, 0, 66, 77
4, 7104, Note_on_c, 0, 62, 77
4, 7193, Note_on_c, 0, 66, 0
4, 7193, Note_on_c, 0, 62, 0
4, 7296, Note_on_c, 0, 54, 77
4, 7296, Note_on_c, 0, 50, 77
4, 7341, Note_on_c, 0, 54, 0
4, 7341, Note_on_c, 0, 50, 0
4, 7344, Note_on_c, 0, 66, 77
4, 7344, Note_on_c, 0, 62, 77
4, 7389, Note_on_c, 0, 66, 0
4, 7389, Note_on_c, 0, 62, 0
4, 7392, Note_on_c, 0, 66, 77
4, 7392, Note_on_c, 0, 62, 77
4, 7437, Note_on_c, 0, 66, 0
4, 7437, Note_on_c, 0, 62, 0
4, 7440, Note_on_c, 0, 64, 77
4, 7440, Note_on_c, 0, 61, 77
4, 7485, Note_on_c, 0, 64, 0
4, 7485, Note_on_c, 0, 61, 0
4, 7488, Note_on_c, 0, 66, 77
4, 7488, Note_on_c, 0, 62, 77
4, 7577, Note_on_c, 0, 66, 0
4, 7577, Note_on_c, 0, 62, 0
4, 7680, Note_on_c, 0, 54, 77
4, 7680, Note_on_c, 0, 50, 77
4, 7725, Note_on_c, 0, 54, 0
4, 7725, Note_on_c, 0, 50, 0
4, 7728, Note_on_c, 0, 66, 77
4, 7728, Note_on_c, 0, 62, 77
4, 7773, Note_on_c, 0, 66, 0
4, 7773, Note_on_c, 0, 62, 0
4, 7776, Note_on_c, 0, 66, 78
4, 7776, Note_on_c, 0, 62, 78
4, 7821, Note_on_c, 0, 66, 0
4, 7821, Note_on_c, 0, 62, 0
4, 7824, Note_on_c, 0, 66, 79
4, 7824, Note_on_c, 0, 62, 79
4, 7869, Note_on_c, 0, 66, 0
4, 7869, Note_on_c, 0, 62, 0
4, 7872, Note_on_c, 0, 66, 80
4, 7872, Note_on_c, 0, 63, 80
4, 7917, Note_on_c, 0, 66, 0
4, 7917, Note_on_c, 0, 63, 0
4, 7920, Note_on_c, 0, 66, 81
4, 7920, Note_on_c, 0, 63, 81
4, 7965, Note_on_c, 0, 66, 0
4, 7965, Note_on_c, 0, 63, 0
4, 7968, Note_on_c, 0, 66, 82
4, 7968, Note_on_c, 0, 63, 82
4, 8013, Note_on_c, 0, 66, 0
4, 8013, Note_on_c, 0, 63, 0
4, 8016, Note_on_c, 0, 66, 83
4, 8016, Note_on_c, 0, 63, 83
4, 8061, Note_on_c, 0, 66, 0
4, 8061, Note_on_c, 0, 63, 0
4, 8352, Note_on_c, 0, 62, 77
4, 8441, Note_on_c, 0, 62, 0
4, 8448, Note_on_c, 0, 61, 77
4, 8537, Note_on_c, 0, 61, 0
4, 9120, Note_on_c, 0, 62, 77
4, 9209, Note_on_c, 0, 62, 0
4, 9216, Note_on_c, 0, 61, 77
4, 9305, Note_on_c, 0, 61, 0
4, 9600, Note_on_c, 0, 50, 84
4, 9623, Note_on_c, 0, 50, 0
4, 9624, Note_on_c, 0, 62, 84
4, 9647, Note_on_c, 0, 62, 0
4, 9648, Note_on_c, 0, 61, 84
4, 9671, Note_on_c, 0, 61, 0
4, 9672, Note_on_c, 0, 62, 84
4, 9695, Note_on_c, 0, 62, 0
4, 9696, Note_on_c, 0, 61, 84
4, 9719, Note_on_c, 0, 61, 0
4, 9720, Note_on_c, 0, 62, 84
4, 9743, Note_on_c, 0, 62, 0
4, 9744, Note_on_c, 0, 61, 84
4, 9767, Note_on_c, 0, 61, 0
4, 9768, Note_on_c, 0, 62, 84
4, 9791, Note_on_c, 0, 62, 0
4, 9792, Note_on_c, 0, 59, 84
4, 9815, Note_on_c, 0, 59, 0
4, 9816, Note_on_c, 0, 71, 84
4, 9839, Note_on_c, 0, 71, 0
4, 9840, Note_on_c, 0, 70, 84
4, 9863, Note_on_c, 0, 70, 0
4, 9864, Note_on_c, 0, 71, 84
4, 9887, Note_on_c, 0, 71, 0
4, 9888, Note_on_c, 0, 70, 84
4, 9911, Note_on_c, 0, 70, 0
4, 9912, Note_on_c, 0, 71, 84
4, 9935, Note_on_c, 0, 71, 0
4, 9936, Note_on_c, 0, 70, 84
4, 9959, Note_on_c, 0, 70, 0
4, 9960, Note_on_c, 0, 71, 84
4, 9983, Note_on_c, 0, 71, 0
4, 9984, Note_on_c, 0, 64, 84
4, 10007, Note_on_c, 0, 64, 0
4, 10008, Note_on_c, 0, 68, 84
4, 10031, Note_on_c, 0, 68, 0
4, 10032, Note_on_c, 0, 66, 84
4, 10055, Note_on_c, 0, 66, 0
4, 10056, Note_on_c, 0, 68, 84
4, 10079, Note_on_c, 0, 68, 0
4, 10080, Note_on_c, 0, 66, 84
4, 10103, Note_on_c, 0, 66, 0
4, 10104, Note_on_c, 0, 68, 84
4, 10127, Note_on_c, 0, 68, 0
4, 10128, Note_on_c, 0, 66, 84
4, 10151, Note_on_c, 0, 66, 0
4, 10152, Note_on_c, 0, 68, 84
4, 10175, Note_on_c, 0, 68, 0
4, 10176, Note_on_c, 0, 69, 84
4, 10199, Note_on_c, 0, 69, 0
4, 10200, Note_on_c, 0, 73, 84
4, 10223, Note_on_c, 0, 73, 0
4, 10224, Note_on_c, 0, 71, 84
4, 10247, Note_on_c, 0, 71, 0
4, 10248, Note_on_c, 0, 73, 84
4, 10271, Note_on_c, 0, 73, 0
4, 10272, Note_on_c, 0, 71, 84
4, 10295, Note_on_c, 0, 71, 0
4, 10296, Note_on_c, 0, 73, 84
4, 10319, Note_on_c, 0, 73, 0
4, 10320, Note_on_c, 0, 71, 84
4, 10343, Note_on_c, 0, 71, 0
4, 10344, Note_on_c, 0, 73, 84
4, 10367, Note_on_c, 0, 73, 0
4, 10416, Note_on_c, 0, 68, 77
4, 10461, Note_on_c, 0, 68, 0
4, 10464, Note_on_c, 0, 69, 77
4, 10509, Note_on_c, 0, 69, 0
4, 10512, Note_on_c, 0, 73, 77
4, 10557, Note_on_c, 0, 73, 0
4, 10608, Note_on_c, 0, 68, 77
4, 10653, Note_on_c, 0, 68, 0
4, 10656, Note_on_c, 0, 69, 77
4, 10701, Note_on_c, 0, 69, 0
4, 10704, Note_on_c, 0, 73, 77
4, 10749, Note_on_c, 0, 73, 0
4, 10800, Note_on_c, 0, 68, 69
4, 10845, Note_on_c, 0, 68, 0
4, 10848, Note_on_c, 0, 69, 69
4, 10893, Note_on_c, 0, 69, 0
4, 10896, Note_on_c, 0, 72, 69
4, 10941, Note_on_c, 0, 72, 0
4, 10992, Note_on_c, 0, 68, 69
4, 11037, Note_on_c, 0, 68, 0
4, 11040, Note_on_c, 0, 69, 69
4, 11085, Note_on_c, 0, 69, 0
4, 11088, Note_on_c, 0, 72, 69
4, 11133, Note_on_c, 0, 72, 0
4, 11136, Control_c, 0, 64, 127
4, 11136, Note_on_c, 0, 70, 91
4, 11136, Note_on_c, 0, 65, 91
4, 11136, Note_on_c, 0, 62, 91
4, 11313, Note_on_c, 0, 70, 0
4, 11313, Note_on_c, 0, 65, 0
4, 11313, Note_on_c, 0, 62, 0
4, 11352, Note_on_c, 0, 58, 91
4, 11375, Note_on_c, 0, 58, 0
4, 11376, Note_on_c, 0, 62, 91
4, 11399, Note_on_c, 0, 62, 0
4, 11400, Note_on_c, 0, 65, 91
4, 11423, Note_on_c, 0, 65, 0
4, 11424, Note_on_c, 0, 70, 91
4, 11469, Note_on_c, 0, 70, 0
4, 11904, Control_c, 0, 64, 0
4, 11904, Control_c, 0, 64, 127
4, 11904, Note_on_c, 0, 63, 91
4, 11904, Note_on_c, 0, 51, 91
4, 11993, Note_on_c, 0, 63, 0
4, 11993, Note_on_c, 0, 51, 0
4, 12000, Note_on_c, 0, 66, 91
4, 12000, Note_on_c, 0, 54, 91
4, 12045, Note_on_c, 0, 66, 0
4, 12045, Note_on_c, 0, 54, 0
4, 12048, Note_on_c, 0, 63, 91
4, 12048, Note_on_c, 0, 51, 91
4, 12093, Note_on_c, 0, 63, 0
4, 12093, Note_on_c, 0, 51, 0
4, 12096, Note_on_c, 0, 60, 91
4, 12096, Note_on_c, 0, 48, 91
4, 12141, Note_on_c, 0, 60, 0
4, 12141, Note_on_c, 0, 48, 0
4, 12144, Note_on_c, 0, 57, 91
4, 12144, Note_on_c, 0, 45, 91
4, 12189, Note_on_c, 0, 57, 0
4, 12189, Note_on_c, 0, 45, 0
4, 12192, Note_on_c, 0, 54, 91
4, 12192, Note_on_c, 0, 42, 91
4, 12237, Note_on_c, 0, 54, 0
4, 12237, Note_on_c, 0, 42, 0
4, 12240, Note_on_c, 0, 51, 91
4, 12240, Note_on_c, 0, 39, 91
4, 12285, Note_on_c, 0, 51, 0
4, 12285, Note_on_c, 0, 39, 0
4, 12288, Control_c, 0, 64, 0
4, 12288, Note_on_c, 0, 52, 91
4, 12288, Note_on_c, 0, 40, 91
4, 12465, Note_on_c, 0, 52, 0
4, 12465, Note_on_c, 0, 40, 0
4, 12672, Note_on_c, 0, 52, 84
4, 12692, Note_on_c, 0, 52, 0
4, 12720, Note_on_c, 0, 56, 84
4, 12740, Note_on_c, 0, 56, 0
4, 12768, Note_on_c, 0, 59, 84
4, 12788, Note_on_c, 0, 59, 0
4, 12816, Note_on_c, 0, 62, 84
4, 12836, Note_on_c, 0, 62, 0
4, 12864, Note_on_c, 0, 74, 84
4, 12864, Note_on_c, 0, 71, 84
4, 12864, Note_on_c, 0, 68, 84
4, 12864, Note_on_c, 0, 64, 84
4, 13041, Note_on_c, 0, 74, 0
4, 13041, Note_on_c, 0, 71, 0
4, 13041, Note_on_c, 0, 68, 0
4, 13041, Note_on_c, 0, 64, 0
4, 13056, Note_on_c, 0, 73, 84
4, 13056, Note_on_c, 0, 69, 84
4, 13145, Note_on_c, 0, 73, 0
4, 13145, Note_on_c, 0, 69, 0
4, 13536, Note_on_c, 0, 61, 77
4, 13536, Note_on_c, 0, 57, 77
4, 13581, Note_on_c, 0, 61, 0
4, 13581, Note_on_c, 0, 57, 0
4, 13584, Note_on_c, 0, 61, 77
4, 13584, Note_on_c, 0, 57, 77
4, 13629, Note_on_c, 0, 61, 0
4, 13629, Note_on_c, 0, 57, 0
4, 13632, Note_on_c, 0, 62, 77
4, 13632, Note_on_c, 0, 50, 77
4, 13677, Note_on_c, 0, 62, 0
4, 13677, Note_on_c, 0, 50, 0
4, 13728, Note_on_c, 0, 59, 77
4, 13728, Note_on_c, 0, 52, 77
4, 13773, Note_on_c, 0, 59, 0
4, 13773, Note_on_c, 0, 52, 0
4, 13776, Note_on_c, 0, 59, 77
4, 13776, Note_on_c, 0, 52, 77
4, 13821, Note_on_c, 0, 59, 0
4, 13821, Note_on_c, 0, 52, 0
4, 13824, Note_on_c, 0, 57, 77
4, 13824, Note_on_c, 0, 45, 77
4, 13869, Note_on_c, 0, 57, 0
4, 13869, Note_on_c, 0, 45, 0
4, 13920, Note_on_c, 0, 66, 84
4, 13965, Note_on_c, 0, 66, 0
4, 13968, Note_on_c, 0, 64, 84
4, 14013, Note_on_c, 0, 64, 0
4, 14016, Note_on_c, 0, 62, 84
4, 14061, Note_on_c, 0, 62, 0
4, 14112, Note_on_c, 0, 62, 84
4, 14157, Note_on_c, 0, 62, 0
4, 14160, Note_on_c, 0, 61, 84
4, 14205, Note_on_c, 0, 61, 0
4, 14208, Note_on_c, 0, 59, 84
4, 14253, Note_on_c, 0, 59, 0
4, 14304, Note_on_c, 0, 61, 77
4, 14304, Note_on_c, 0, 57, 77
4, 14349, Note_on_c, 0, 61, 0
4, 14349, Note_on_c, 0, 57, 0
4, 14352, Note_on_c, 0, 61, 77
4, 14352, Note_on_c, 0, 57, 77
4, 14397, Note_on_c, 0, 61, 0
4, 14397, Note_on_c, 0, 57, 0
4, 14400, Note_on_c, 0, 62, 77
4, 14400, Note_on_c, 0, 50, 77
4, 14445, Note_on_c, 0, 62, 0
4, 14445, Note_on_c, 0, 50, 0
4, 14448, Note_on_c, 0, 62, 77
4, 14448, Note_on_c, 0, 50, 77
4, 14493, Note_on_c, 0, 62, 0
4, 14493, Note_on_c, 0, 50, 0
4, 14496, Note_on_c, 0, 59, 77
4, 14496, Note_on_c, 0, 52, 77
4, 14541, Note_on_c, 0, 59, 0
4, 14541, Note_on_c, 0, 52, 0
4, 14544, Note_on_c, 0, 59, 77
4, 14544, Note_on_c, 0, 52, 77
4, 14589, Note_on_c, 0, 59, 0
4, 14589, Note_on_c, 0, 52, 0
4, 14592, Note_on_c, 0, 61, 84
4, 14592, Note_on_c, 0, 57, 84
4, 14681, Note_on_c, 0, 61, 0
4, 14681, Note_on_c, 0, 57, 0
4, 14736, Note_on_c, 0, 62, 84
4, 14736, Note_on_c, 0, 52, 84
4, 14781, Note_on_c, 0, 62, 0
4, 14781, Note_on_c, 0, 52, 0
4, 14784, Note_on_c, 0, 61, 84
4, 14784, Note_on_c, 0, 57, 84
4, 14873, Note_on_c, 0, 61, 0
4, 14873, Note_on_c, 0, 57, 0
4, 14928, Note_on_c, 0, 62, 84
4, 14928, Note_on_c, 0, 52, 84
4, 14973, Note_on_c, 0, 62, 0
4, 14973, Note_on_c, 0, 52, 0
4, 14976, Note_on_c, 0, 61, 84
4, 14976, Note_on_c, 0, 57, 84
4, 15021, Note_on_c, 0, 61, 0
4, 15021, Note_on_c, 0, 57, 0
4, 15072, Note_on_c, 0, 57, 84
4, 15072, Note_on_c, 0, 45, 84
4, 15117, Note_on_c, 0, 57, 0
4, 15117, Note_on_c, 0, 45, 0
4, 15168, Note_on_c, 0, 45, 84
4, 15168, Note_on_c, 0, 33, 84
4, 15213, Note_on_c, 0, 45, 0
4, 15213, Note_on_c, 0, 33, 0
4, 15360, Note_on_c, 0, 62, 77
4, 15360, Note_on_c, 0, 57, 77
4, 15360, Note_on_c, 0, 54, 77
4, 15360, Note_on_c, 0, 50, 77
4, 15449, Note_on_c, 0, 62, 0
4, 15449, Note_on_c, 0, 57, 0
4, 15449, Note_on_c, 0, 54, 0
4, 15449, Note_on_c, 0, 50, 0
4, 15504, Note_on_c, 0, 69, 77
4, 15504, Note_on_c, 0, 66, 77
4, 15549, Note_on_c, 0, 69, 0
4, 15549, Note_on_c, 0, 66, 0
4, 15552, Note_on_c, 0, 71, 77
4, 15552, Note_on_c, 0, 67, 77
4, 15597, Note_on_c, 0, 71, 0
4, 15597, Note_on_c, 0, 67, 0
4, 15600, Note_on_c, 0, 69, 77
4, 15600, Note_on_c, 0, 66, 77
4, 15645, Note_on_c, 0, 69, 0
4, 15645, Note_on_c, 0, 66, 0
4, 15648, Note_on_c, 0, 71, 77
4, 15648, Note_on_c, 0, 67, 77
4, 15693, Note_on_c, 0, 71, 0
4, 15693, Note_on_c, 0, 67, 0
4, 15696, Note_on_c, 0, 69, 77
4, 15696, Note_on_c, 0, 66, 77
4, 15741, Note_on_c, 0, 69, 0
4, 15741, Note_on_c, 0, 66, 0
4, 15744, Note_on_c, 0, 69, 77
4, 15744, Note_on_c, 0, 66, 77
4, 15744, Note_on_c, 0, 62, 77
4, 15833, Note_on_c, 0, 69, 0
4, 15833, Note_on_c, 0, 66, 0
4, 15833, Note_on_c, 0, 62, 0
4, 15888, Note_on_c, 0, 69, 77
4, 15888, Note_on_c, 0, 66, 77
4, 15933, Note_on_c, 0, 69, 0
4, 15933, Note_on_c, 0, 66, 0
4, 15936, Note_on_c, 0, 71, 77
4, 15936, Note_on_c, 0, 67, 77
4, 15981, Note_on_c, 0, 71, 0
4, 15981, Note_on_c, 0, 67, 0
4, 15984, Note_on_c, 0, 69, 77
4, 15984, Note_on_c, 0, 66, 77
4, 16029, Note_on_c, 0, 69, 0
4, 16029, Note_on_c, 0, 66, 0
4, 16032, Note_on_c, 0, 71, 77
4, 16032, Note_on_c, 0, 67, 77
4, 16077, Note_on_c, 0, 71, 0
4, 16077, Note_on_c, 0, 67, 0
4, 16080, Note_on_c, 0, 69, 77
4, 16080, Note_on_c, 0, 66, 77
4, 16125, Note_on_c, 0, 69, 0
4, 16125, Note_on_c, 0, 66, 0
4, 16128, Note_on_c, 0, 71, 77
4, 16148, Note_on_c, 0, 71, 0
4, 16176, Note_on_c, 0, 71, 77
4, 16224, Note_on_c, 0, 71, 0
4, 16224, Note_on_c, 0, 69, 77
4, 16244, Note_on_c, 0, 69, 0
4, 16272, Note_on_c, 0, 69, 77
4, 16320, Note_on_c, 0, 69, 0
4, 16320, Note_on_c, 0, 67, 77
4, 16340, Note_on_c, 0, 67, 0
4, 16368, Note_on_c, 0, 67, 77
4, 16416, Note_on_c, 0, 67, 0
4, 16416, Note_on_c, 0, 66, 77
4, 16436, Note_on_c, 0, 66, 0
4, 16464, Note_on_c, 0, 66, 77
4, 16509, Note_on_c, 0, 66, 0
4, 16512, Note_on_c, 0, 64, 77
4, 16557, Note_on_c, 0, 64, 0
4, 16560, Note_on_c, 0, 61, 77
4, 16605, Note_on_c, 0, 61, 0
4, 16608, Note_on_c, 0, 62, 77
4, 16653, Note_on_c, 0, 62, 0
4, 16656, Note_on_c, 0, 66, 77
4, 16701, Note_on_c, 0, 66, 0
4, 16704, Note_on_c, 0, 69, 77
4, 16793, Note_on_c, 0, 69, 0
4, 16896, Note_on_c, 0, 62, 77
4, 16919, Note_on_c, 0, 62, 0
4, 16920, Note_on_c, 0, 69, 77
4, 16943, Note_on_c, 0, 69, 0
4, 16944, Note_on_c, 0, 66, 77
4, 16967, Note_on_c, 0, 66, 0
4, 16968, Note_on_c, 0, 69, 77
4, 16991, Note_on_c, 0, 69, 0
4, 16992, Note_on_c, 0, 66, 77
4, 17015, Note_on_c, 0, 66, 0
4, 17016, Note_on_c, 0, 69, 77
4, 17039, Note_on_c, 0, 69, 0
4, 17040, Note_on_c, 0, 66, 77
4, 17063, Note_on_c, 0, 66, 0
4, 17064, Note_on_c, 0, 69, 77
4, 17087, Note_on_c, 0, 69, 0
4, 17088, Note_on_c, 0, 67, 77
4, 17111, Note_on_c, 0, 67, 0
4, 17112, Note_on_c, 0, 69, 77
4, 17135, Note_on_c, 0, 69, 0
4, 17136, Note_on_c, 0, 66, 77
4, 17159, Note_on_c, 0, 66, 0
4, 17160, Note_on_c, 0, 69, 77
4, 17183, Note_on_c, 0, 69, 0
4, 17184, Note_on_c, 0, 67, 77
4, 17207, Note_on_c, 0, 67, 0
4, 17208, Note_on_c, 0, 69, 77
4, 17231, Note_on_c, 0, 69, 0
4, 17232, Note_on_c, 0, 66, 77
4, 17255, Note_on_c, 0, 66, 0
4, 17256, Note_on_c, 0, 69, 77
4, 17279, Note_on_c, 0, 69, 0
4, 17280, Note_on_c, 0, 62, 77
4, 17303, Note_on_c, 0, 62, 0
4, 17304, Note_on_c, 0, 69, 77
4, 17327, Note_on_c, 0, 69, 0
4, 17328, Note_on_c, 0, 66, 77
4, 17351, Note_on_c, 0, 66, 0
4, 17352, Note_on_c, 0, 69, 77
4, 17375, Note_on_c, 0, 69, 0
4, 17376, Note_on_c, 0, 66, 77
4, 17399, Note_on_c, 0, 66, 0
4, 17400, Note_on_c, 0, 69, 77
4, 17423, Note_on_c, 0, 69, 0
4, 17424, Note_on_c, 0, 66, 77
4, 17447, Note_on_c, 0, 66, 0
4, 17448, Note_on_c, 0, 69, 77
4, 17471, Note_on_c, 0, 69, 0
4, 17472, Note_on_c, 0, 67, 77
4, 17495, Note_on_c, 0, 67, 0
4, 17496, Note_on_c, 0, 69, 77
4, 17519, Note_on_c, 0, 69, 0
4, 17520, Note_on_c, 0, 66, 77
4, 17543, Note_on_c, 0, 66, 0
4, 17544, Note_on_c, 0, 69, 77
4, 17567, Note_on_c, 0, 69, 0
4, 17568, Note_on_c, 0, 67, 77
4, 17591, Note_on_c, 0, 67, 0
4, 17592, Note_on_c, 0, 69, 77
4, 17615, Note_on_c, 0, 69, 0
4, 17616, Note_on_c, 0, 66, 77
4, 17639, Note_on_c, 0, 66, 0
4, 17640, Note_on_c, 0, 69, 77
4, 17663, Note_on_c, 0, 69, 0
4, 17664, Note_on_c, 0, 71, 77
4, 17684, Note_on_c, 0, 71, 0
4, 17712, Note_on_c, 0, 71, 77
4, 17760, Note_on_c, 0, 71, 0
4, 17760, Note_on_c, 0, 69, 77
4, 17780, Note_on_c, 0, 69, 0
4, 17808, Note_on_c, 0, 69, 77
4, 17856, Note_on_c, 0, 69, 0
4, 17856, Note_on_c, 0, 67, 77
4, 17876, Note_on_c, 0, 67, 0
4, 17904, Note_on_c, 0, 67, 77
4, 17952, Note_on_c, 0, 67, 0
4, 17952, Note_on_c, 0, 66, 77
4, 17972, Note_on_c, 0, 66, 0
4, 18000, Note_on_c, 0, 66, 77
4, 18045, Note_on_c, 0, 66, 0
4, 18048, Note_on_c, 0, 67, 77
4, 18137, Note_on_c, 0, 67, 0
4, 18192, Note_on_c, 0, 57, 71
4, 18237, Note_on_c, 0, 57, 0
4, 18240, Note_on_c, 0, 50, 69
4, 18329, Note_on_c, 0, 50, 0
4, 18432, Note_on_c, 0, 50, 84
4, 18432, Note_on_c, 0, 38, 84
4, 18521, Note_on_c, 0, 50, 0
4, 18521, Note_on_c, 0, 38, 0
4, 18528, Note_on_c, 0, 50, 84
4, 18573, Note_on_c, 0, 50, 0
4, 18576, Note_on_c, 0, 49, 84
4, 18621, Note_on_c, 0, 49, 0
4, 18624, Note_on_c, 0, 50, 84
4, 18669, Note_on_c, 0, 50, 0
4, 18672, Note_on_c, 0, 52, 84
4, 18717, Note_on_c, 0, 52, 0
4, 18720, Note_on_c, 0, 54, 84
4, 18765, Note_on_c, 0, 54, 0
4, 18768, Note_on_c, 0, 52, 84
4, 18813, Note_on_c, 0, 52, 0
4, 18816, Note_on_c, 0, 50, 84
4, 18816, Note_on_c, 0, 38, 84
4, 18905, Note_on_c, 0, 50, 0
4, 18905, Note_on_c, 0, 38, 0
4, 18912, Note_on_c, 0, 50, 84
4, 18957, Note_on_c, 0, 50, 0
4, 18960, Note_on_c, 0, 52, 84
4, 19005, Note_on_c, 0, 52, 0
4, 19008, Note_on_c, 0, 54, 84
4, 19053, Note_on_c, 0, 54, 0
4, 19056, Note_on_c, 0, 55, 84
4, 19101, Note_on_c, 0, 55, 0
4, 19104, Note_on_c, 0, 54, 84
4, 19149, Note_on_c, 0, 54, 0
4, 19152, Note_on_c, 0, 52, 84
4, 19197, Note_on_c, 0, 52, 0
4, 19200, Note_on_c, 0, 50, 84
4, 19200, Note_on_c, 0, 38, 84
4, 19289, Note_on_c, 0, 50, 0
4, 19289, Note_on_c, 0, 38, 0
4, 19296, Note_on_c, 0, 62, 84
4, 19341, Note_on_c, 0, 62, 0
4, 19344, Note_on_c, 0, 61, 84
4, 19389, Note_on_c, 0, 61, 0
4, 19392, Note_on_c, 0, 62, 84
4, 19437, Note_on_c, 0, 62, 0
4, 19440, Note_on_c, 0, 64, 84
4, 19485, Note_on_c, 0, 64, 0
4, 19488, Note_on_c, 0, 66, 84
4, 19533, Note_on_c, 0, 66, 0
4, 19536, Note_on_c, 0, 64, 84
4, 19581, Note_on_c, 0, 64, 0
4, 19584, Note_on_c, 0, 50, 84
4, 19584, Note_on_c, 0, 38, 84
4, 19673, Note_on_c, 0, 50, 0
4, 19673, Note_on_c, 0, 38, 0
4, 19680, Note_on_c, 0, 62, 84
4, 19725, Note_on_c, 0, 62, 0
4, 19728, Note_on_c, 0, 64, 84
4, 19773, Note_on_c, 0, 64, 0
4, 19776, Note_on_c, 0, 66, 84
4, 19821, Note_on_c, 0, 66, 0
4, 19824, Note_on_c, 0, 67, 84
4, 19869, Note_on_c, 0, 67, 0
4, 19872, Note_on_c, 0, 66, 84
4, 19917, Note_on_c, 0, 66, 0
4, 19920, Note_on_c, 0, 64, 84
4, 19965, Note_on_c, 0, 64, 0
4, 19968, Note_on_c, 0, 62, 84
4, 20013, Note_on_c, 0, 62, 0
4, 20016, Note_on_c, 0, 66, 84
4, 20061, Note_on_c, 0, 66, 0
4, 20064, Note_on_c, 0, 67, 84
4, 20109, Note_on_c, 0, 67, 0
4, 20112, Note_on_c, 0, 71, 84
4, 20157, Note_on_c, 0, 71, 0
4, 20160, Note_on_c, 0, 66, 84
4, 20205, Note_on_c, 0, 66, 0
4, 20208, Note_on_c, 0, 69, 84
4, 20253, Note_on_c, 0, 69, 0
4, 20256, Note_on_c, 0, 64, 84
4, 20301, Note_on_c, 0, 64, 0
4, 20304, Note_on_c, 0, 67, 84
4, 20349, Note_on_c, 0, 67, 0
4, 20352, Note_on_c, 0, 62, 84
4, 20397, Note_on_c, 0, 62, 0
4, 20400, Note_on_c, 0, 66, 84
4, 20445, Note_on_c, 0, 66, 0
4, 20448, Note_on_c, 0, 67, 84
4, 20493, Note_on_c, 0, 67, 0
4, 20496, Note_on_c, 0, 71, 84
4, 20541, Note_on_c, 0, 71, 0
4, 20544, Note_on_c, 0, 66, 84
4, 20589, Note_on_c, 0, 66, 0
4, 20592, Note_on_c, 0, 69, 84
4, 20637, Note_on_c, 0, 69, 0
4, 20640, Note_on_c, 0, 64, 84
4, 20685, Note_on_c, 0, 64, 0
4, 20688, Note_on_c, 0, 67, 84
4, 20733, Note_on_c, 0, 67, 0
4, 20736, Note_on_c, 0, 66, 91
4, 20759, Note_on_c, 0, 66, 0
4, 20760, Note_on_c, 0, 62, 91
4, 20783, Note_on_c, 0, 62, 0
4, 20784, Note_on_c, 0, 64, 91
4, 20807, Note_on_c, 0, 64, 0
4, 20808, Note_on_c, 0, 66, 91
4, 20831, Note_on_c, 0, 66, 0
4, 20832, Note_on_c, 0, 67, 91
4, 20855, Note_on_c, 0, 67, 0
4, 20856, Note_on_c, 0, 69, 91
4, 20879, Note_on_c, 0, 69, 0
4, 20880, Note_on_c, 0, 71, 91
4, 20903, Note_on_c, 0, 71, 0
4, 20904, Note_on_c, 0, 73, 91
4, 20927, Note_on_c, 0, 73, 0
4, 20928, Note_on_c, 0, 74, 91
4, 20951, Note_on_c, 0, 74, 0
4, 20952, Note_on_c, 0, 73, 91
4, 20975, Note_on_c, 0, 73, 0
4, 20976, Note_on_c, 0, 74, 91
4, 20999, Note_on_c, 0, 74, 0
4, 21000, Note_on_c, 0, 73, 91
4, 21023, Note_on_c, 0, 73, 0
4, 21024, Note_on_c, 0, 74, 91
4, 21047, Note_on_c, 0, 74, 0
4, 21048, Note_on_c, 0, 69, 91
4, 21071, Note_on_c, 0, 69, 0
4, 21072, Note_on_c, 0, 66, 91
4, 21095, Note_on_c, 0, 66, 0
4, 21096, Note_on_c, 0, 62, 91
4, 21119, Note_on_c, 0, 62, 0
4, 21120, Note_on_c, 0, 69, 91
4, 21209, Note_on_c, 0, 69, 0
4, 21216, Note_on_c, 0, 57, 84
4, 21216, Note_on_c, 0, 45, 84
4, 21283, Note_on_c, 0, 57, 0
4, 21283, Note_on_c, 0, 45, 0
4, 21288, Note_on_c, 0, 57, 84
4, 21288, Note_on_c, 0, 45, 84
4, 21311, Note_on_c, 0, 57, 0
4, 21311, Note_on_c, 0, 45, 0
4, 21312, Note_on_c, 0, 57, 84
4, 21312, Note_on_c, 0, 45, 84
4, 21401, Note_on_c, 0, 57, 0
4, 21401, Note_on_c, 0, 45, 0
4, 21504, Note_on_c, 0, 64, 69
4, 21504, Note_on_c, 0, 61, 69
4, 21549, Note_on_c, 0, 64, 0
4, 21549, Note_on_c, 0, 61, 0
4, 21552, Note_on_c, 0, 64, 69
4, 21552, Note_on_c, 0, 61, 69
4, 21597, Note_on_c, 0, 64, 0
4, 21597, Note_on_c, 0, 61, 0
4, 21600, Note_on_c, 0, 64, 69
4, 21600, Note_on_c, 0, 61, 69
4, 21645, Note_on_c, 0, 64, 0
4, 21645, Note_on_c, 0, 61, 0
4, 21648, Note_on_c, 0, 64, 69
4, 21648, Note_on_c, 0, 61, 69
4, 21693, Note_on_c, 0, 64, 0
4, 21693, Note_on_c, 0, 61, 0
4, 21696, Note_on_c, 0, 66, 69
4, 21696, Note_on_c, 0, 62, 69
4, 21741, Note_on_c, 0, 66, 0
4, 21741, Note_on_c, 0, 62, 0
4, 21744, Note_on_c, 0, 66, 69
4, 21744, Note_on_c, 0, 62, 69
4, 21789, Note_on_c, 0, 66, 0
4, 21789, Note_on_c, 0, 62, 0
4, 21792, Note_on_c, 0, 66, 69
4, 21792, Note_on_c, 0, 62, 69
4, 21837, Note_on_c, 0, 66, 0
4, 21837, Note_on_c, 0, 62, 0
4, 21840, Note_on_c, 0, 66, 69
4, 21840, Note_on_c, 0, 62, 69
4, 21885, Note_on_c, 0, 66, 0
4, 21885, Note_on_c, 0, 62, 0
4, 21888, Note_on_c, 0, 68, 69
4, 21888, Note_on_c, 0, 64, 69
4, 21933, Note_on_c, 0, 68, 0
4, 21933, Note_on_c, 0, 64, 0
4, 21936, Note_on_c, 0, 68, 69
4, 21936, Note_on_c, 0, 64, 69
4, 21981, Note_on_c, 0, 68, 0
4, 21981, Note_on_c, 0, 64, 0
4, 21984, Note_on_c, 0, 68, 69
4, 21984, Note_on_c, 0, 64, 69
4, 22029, Note_on_c, 0, 68, 0
4, 22029, Note_on_c, 0, 64, 0
4, 22032, Note_on_c, 0, 68, 69
4, 22032, Note_on_c, 0, 64, 69
4, 22077, Note_on_c, 0, 68, 0
4, 22077, Note_on_c, 0, 64, 0
4, 22080, Note_on_c, 0, 69, 69
4, 22080, Note_on_c, 0, 66, 69
4, 22125, Note_on_c, 0, 69, 0
4, 22125, Note_on_c, 0, 66, 0
4, 22128, Note_on_c, 0, 69, 70
4, 22128, Note_on_c, 0, 66, 70
4, 22173, Note_on_c, 0, 69, 0
4, 22173, Note_on_c, 0, 66, 0
4, 22176, Note_on_c, 0, 69, 71
4, 22176, Note_on_c, 0, 66, 71
4, 22221, Note_on_c, 0, 69, 0
4, 22221, Note_on_c, 0, 66, 0
4, 22224, Note_on_c, 0, 69, 72
4, 22224, Note_on_c, 0, 66, 72
4, 22269, Note_on_c, 0, 69, 0
4, 22269, Note_on_c, 0, 66, 0
4, 22272, Note_on_c, 0, 66, 73
4, 22272, Note_on_c, 0, 62, 73
4, 22317, Note_on_c, 0, 66, 0
4, 22317, Note_on_c, 0, 62, 0
4, 22320, Note_on_c, 0, 66, 74
4, 22320, Note_on_c, 0, 62, 74
4, 22365, Note_on_c, 0, 66, 0
4, 22365, Note_on_c, 0, 62, 0
4, 22368, Note_on_c, 0, 66, 75
4, 22368, Note_on_c, 0, 62, 75
4, 22413, Note_on_c, 0, 66, 0
4, 22413, Note_on_c, 0, 62, 0
4, 22416, Note_on_c, 0, 66, 76
4, 22416, Note_on_c, 0, 62, 76
4, 22461, Note_on_c, 0, 66, 0
4, 22461, Note_on_c, 0, 62, 0
4, 22464, Note_on_c, 0, 66, 77
4, 22464, Note_on_c, 0, 62, 77
4, 22553, Note_on_c, 0, 66, 0
4, 22553, Note_on_c, 0, 62, 0
4, 22656, Note_on_c, 0, 54, 77
4, 22656, Note_on_c, 0, 50, 77
4, 22701, Note_on_c, 0, 54, 0
4, 22701, Note_on_c, 0, 50, 0
4, 22704, Note_on_c, 0, 66, 77
4, 22704, Note_on_c, 0, 62, 77
4, 22749, Note_on_c, 0, 66, 0
4, 22749, Note_on_c, 0, 62, 0
4, 22752, Note_on_c, 0, 66, 77
4, 22752, Note_on_c, 0, 62, 77
4, 22797, Note_on_c, 0, 66, 0
4, 22797, Note_on_c, 0, 62, 0
4, 22800, Note_on_c, 0, 64, 77
4, 22800, Note_on_c, 0, 61, 77
4, 22845, Note_on_c, 0, 64, 0
4, 22845, Note_on_c, 0, 61, 0
4, 22848, Note_on_c, 0, 66, 77
4, 22848, Note_on_c, 0, 62, 77
4, 22937, Note_on_c, 0, 66, 0
4, 22937, Note_on_c, 0, 62, 0
4, 23040, Note_on_c, 0, 54, 77
4, 23040, Note_on_c, 0, 50, 77
4, 23085, Note_on_c, 0, 54, 0
4, 23085, Note_on_c, 0, 50, 0
4, 23088, Note_on_c, 0, 66, 77
4, 23088, Note_on_c, 0, 62, 77
4, 23133, Note_on_c, 0, 66, 0
4, 23133, Note_on_c, 0, 62, 0
4, 23136, Note_on_c, 0, 66, 78
4, 23136, Note_on_c, 0, 62, 78
4, 23181, Note_on_c, 0, 66, 0
4, 23181, Note_on_c, 0, 62, 0
4, 23184, Note_on_c, 0, 66, 79
4, 23184, Note_on_c, 0, 62, 79
4, 23229, Note_on_c, 0, 66, 0
4, 23229, Note_on_c, 0, 62, 0
4, 23232, Note_on_c, 0, 66, 80
4, 23232, Note_on_c, 0, 63, 80
4, 23277, Note_on_c, 0, 66, 0
4, 23277, Note_on_c, 0, 63, 0
4, 23280, Note_on_c, 0, 66, 81
4, 23280, Note_on_c, 0, 63, 81
4, 23325, Note_on_c, 0, 66, 0
4, 23325, Note_on_c, 0, 63, 0
4, 23328, Note_on_c, 0, 66, 82
4, 23328, Note_on_c, 0, 63, 82
4, 23373, Note_on_c, 0, 66, 0
4, 23373, Note_on_c, 0, 63, 0
4, 23376, Note_on_c, 0, 66, 83
4, 23376, Note_on_c, 0, 63, 83
4, 23421, Note_on_c, 0, 66, 0
4, 23421, Note_on_c, 0, 63, 0
4, 23712, Note_on_c, 0, 62, 77
4, 23801, Note_on_c, 0, 62, 0
4, 23808, Note_on_c, 0, 61, 77
4, 23897, Note_on_c, 0, 61, 0
4, 24480, Note_on_c, 0, 62, 77
4, 24569, Note_on_c, 0, 62, 0
4, 24576, Note_on_c, 0, 61, 77
4, 24665, Note_on_c, 0, 61, 0
4, 24960, Note_on_c, 0, 50, 84
4, 24983, Note_on_c, 0, 50, 0
4, 24984, Note_on_c, 0, 62, 84
4, 25007, Note_on_c, 0, 62, 0
4, 25008, Note_on_c, 0, 61, 84
4, 25031, Note_on_c, 0, 61, 0
4, 25032, Note_on_c, 0, 62, 84
4, 25055, Note_on_c, 0, 62, 0
4, 25056, Note_on_c, 0, 61, 84
4, 25079, Note_on_c, 0, 61, 0
4, 25080, Note_on_c, 0, 62, 84
4, 25103, Note_on_c, 0, 62, 0
4, 25104, Note_on_c, 0, 61, 84
4, 25127, Note_on_c, 0, 61, 0
4, 25128, Note_on_c, 0, 62, 84
4, 25151, Note_on_c, 0, 62, 0
4, 25152, Note_on_c, 0, 59, 84
4, 25175, Note_on_c, 0, 59, 0
4, 25176, Note_on_c, 0, 71, 84
4, 25199, Note_on_c, 0, 71, 0
4, 25200, Note_on_c, 0, 70, 84
4, 25223, Note_on_c, 0, 70, 0
4, 25224, Note_on_c, 0, 71, 84
4, 25247, Note_on_c, 0, 71, 0
4, 25248, Note_on_c, 0, 70, 84
4, 25271, Note_on_c, 0, 70, 0
4, 25272, Note_on_c, 0, 71, 84
4, 25295, Note_on_c, 0, 71, 0
4, 25296, Note_on_c, 0, 70, 84
4, 25319, Note_on_c, 0, 70, 0
4, 25320, Note_on_c, 0, 71, 84
4, 25343, Note_on_c, 0, 71, 0
4, 25344, Note_on_c, 0, 64, 84
4, 25367, Note_on_c, 0, 64, 0
4, 25368, Note_on_c, 0, 68, 84
4, 25391, Note_on_c, 0, 68, 0
4, 25392, Note_on_c, 0, 66, 84
4, 25415, Note_on_c, 0, 66, 0
4, 25416, Note_on_c, 0, 68, 84
4, 25439, Note_on_c, 0, 68, 0
4, 25440, Note_on_c, 0, 66, 84
4, 25463, Note_on_c, 0, 66, 0
4, 25464, Note_on_c, 0, 68, 84
4, 25487, Note_on_c, 0, 68, 0
4, 25488, Note_on_c, 0, 66, 84
4, 25511, Note_on_c, 0, 66, 0
4, 25512, Note_on_c, 0, 68, 84
4, 25535, Note_on_c, 0, 68, 0
4, 25536, Note_on_c, 0, 69, 84
4, 25559, Note_on_c, 0, 69, 0
4, 25560, Note_on_c, 0, 73, 84
4, 25583, Note_on_c, 0, 73, 0
4, 25584, Note_on_c, 0, 71, 84
4, 25607, Note_on_c, 0, 71, 0
4, 25608, Note_on_c, 0, 73, 84
4, 25631, Note_on_c, 0, 73, 0
4, 25632, Note_on_c, 0, 71, 84
4, 25655, Note_on_c, 0, 71, 0
4, 25656, Note_on_c, 0, 73, 84
4, 25679, Note_on_c, 0, 73, 0
4, 25680, Note_on_c, 0, 71, 84
4, 25703, Note_on_c, 0, 71, 0
4, 25704, Note_on_c, 0, 73, 84
4, 25727, Note_on_c, 0, 73, 0
4, 25776, Note_on_c, 0, 68, 77
4, 25821, Note_on_c, 0, 68, 0
4, 25824, Note_on_c, 0, 69, 77
4, 25869, Note_on_c, 0, 69, 0
4, 25872, Note_on_c, 0, 73, 77
4, 25917, Note_on_c, 0, 73, 0
4, 25968, Note_on_c, 0, 68, 77
4, 26013, Note_on_c, 0, 68, 0
4, 26016, Note_on_c, 0, 69, 77
4, 26061, Note_on_c, 0, 69, 0
4, 26064, Note_on_c, 0, 73, 77
4, 26109, Note_on_c, 0, 73, 0
4, 26160, Note_on_c, 0, 68, 69
4, 26205, Note_on_c, 0, 68, 0
4, 26208, Note_on_c, 0, 69, 69
4, 26253, Note_on_c, 0, 69, 0
4, 26256, Note_on_c, 0, 72, 69
4, 26301, Note_on_c, 0, 72, 0
4, 26352, Note_on_c, 0, 68, 69
4, 26397, Note_on_c, 0, 68, 0
4, 26400, Note_on_c, 0, 69, 69
4, 26445, Note_on_c, 0, 69, 0
4, 26448, Note_on_c, 0, 72, 69
4, 26493, Note_on_c, 0, 72, 0
4, 26496, Control_c, 0, 64, 127
4, 26496, Note_on_c, 0, 70, 91
4, 26496, Note_on_c, 0, 65, 91
4, 26496, Note_on_c, 0, 62, 91
4, 26673, Note_on_c, 0, 70, 0
4, 26673, Note_on_c, 0, 65, 0
4, 26673, Note_on_c, 0, 62, 0
4, 26712, Note_on_c, 0, 58, 91
4, 26735, Note_on_c, 0, 58, 0
4, 26736, Note_on_c, 0, 62, 91
4, 26759, Note_on_c, 0, 62, 0
4, 26760, Note_on_c, 0, 65, 91
4, 26783, Note_on_c, 0, 65, 0
4, 26784, Note_on_c, 0, 70, 91
4, 26829, Note_on_c, 0, 70, 0
4, 27264, Control_c, 0, 64, 0
4, 27264, Control_c, 0, 64, 127
4, 27264, Note_on_c, 0, 63, 91
4, 27264, Note_on_c, 0, 51, 91
4, 27353, Note_on_c, 0, 63, 0
4, 27353, Note_on_c, 0, 51, 0
4, 27360, Note_on_c, 0, 66, 91
4, 27360, Note_on_c, 0, 54, 91
4, 27405, Note_on_c, 0, 66, 0
4, 27405, Note_on_c, 0, 54, 0
4, 27408, Note_on_c, 0, 63, 91
4, 27408, Note_on_c, 0, 51, 91
4, 27453, Note_on_c, 0, 63, 0
4, 27453, Note_on_c, 0, 51, 0
4, 27456, Note_on_c, 0, 60, 91
4, 27456, Note_on_c, 0, 48, 91
4, 27501, Note_on_c, 0, 60, 0
4, 27501, Note_on_c, 0, 48, 0
4, 27504, Note_on_c, 0, 57, 91
4, 27504, Note_on_c, 0, 45, 91
4, 27549, Note_on_c, 0, 57, 0
4, 27549, Note_on_c, 0, 45, 0
4, 27552, Note_on_c, 0, 54, 91
4, 27552, Note_on_c, 0, 42, 91
4, 27597, Note_on_c, 0, 54, 0
4, 27597, Note_on_c, 0, 42, 0
4, 27600, Note_on_c, 0, 51, 91
4, 27600, Note_on_c, 0, 39, 91
4, 27645, Note_on_c, 0, 51, 0
4, 27645, Note_on_c, 0, 39, 0
4, 27648, Control_c, 0, 64, 0
4, 27648, Note_on_c, 0, 52, 91
4, 27648, Note_on_c, 0, 40, 91
4, 27825, Note_on_c, 0, 52, 0
4, 27825, Note_on_c, 0, 40, 0
4, 28032, Note_on_c, 0, 52, 84
4, 28052, Note_on_c, 0, 52, 0
4, 28080, Note_on_c, 0, 56, 84
4, 28100, Note_on_c, 0, 56, 0
4, 28128, Note_on_c, 0, 59, 84
4, 28148, Note_on_c, 0, 59, 0
4, 28176, Note_on_c, 0, 62, 84
4, 28196, Note_on_c, 0, 62, 0
4, 28224, Note_on_c, 0, 74, 84
4, 28224, Note_on_c, 0, 71, 84
4, 28224, Note_on_c, 0, 68, 84
4, 28224, Note_on_c, 0, 64, 84
4, 28401, Note_on_c, 0, 74, 0
4, 28401, Note_on_c, 0, 71, 0
4, 28401, Note_on_c, 0, 68, 0
4, 28401, Note_on_c, 0, 64, 0
4, 28416, Note_on_c, 0, 73, 84
4, 28416, Note_on_c, 0, 69, 84
4, 28505, Note_on_c, 0, 73, 0
4, 28505, Note_on_c, 0, 69, 0
4, 28896, Note_on_c, 0, 61, 77
4, 28896, Note_on_c, 0, 57, 77
4, 28941, Note_on_c, 0, 61, 0
4, 28941, Note_on_c, 0, 57, 0
4, 28944, Note_on_c, 0, 61, 77
4, 28944, Note_on_c, 0, 57, 77
4, 28989, Note_on_c, 0, 61, 0
4, 28989, Note_on_c, 0, 57, 0
4, 28992, Note_on_c, 0, 62, 77
4, 28992, Note_on_c, 0, 50, 77
4, 29037, Note_on_c, 0, 62, 0
4, 29037, Note_on_c, 0, 50, 0
4, 29088, Note_on_c, 0, 59, 77
4, 29088, Note_on_c, 0, 52, 77
4, 29133, Note_on_c, 0, 59, 0
4, 29133, Note_on_c, 0, 52, 0
4, 29136, Note_on_c, 0, 59, 77
4, 29136, Note_on_c, 0, 52, 77
4, 29181, Note_on_c, 0, 59, 0
4, 29181, Note_on_c, 0, 52, 0
4, 29184, Note_on_c, 0, 57, 77
4, 29184, Note_on_c, 0, 45, 77
4, 29229, Note_on_c, 0, 57, 0
4, 29229, Note_on_c, 0, 45, 0
4, 29280, Note_on_c, 0, 66, 84
4, 29325, Note_on_c, 0, 66, 0
4, 29328, Note_on_c, 0, 64, 84
4, 29373, Note_on_c, 0, 64, 0
4, 29376, Note_on_c, 0, 62, 84
4, 29421, Note_on_c, 0, 62, 0
4, 29472, Note_on_c, 0, 62, 84
4, 29517, Note_on_c, 0, 62, 0
4, 29520, Note_on_c, 0, 61, 84
4, 29565, Note_on_c, 0, 61, 0
4, 29568, Note_on_c, 0, 59, 84
4, 29613, Note_on_c, 0, 59, 0
4, 29664, Note_on_c, 0, 61, 77
4, 29664, Note_on_c, 0, 57, 77
4, 29709, Note_on_c, 0, 61, 0
4, 29709, Note_on_c, 0, 57, 0
4, 29712, Note_on_c, 0, 61, 77
4, 29712, Note_on_c, 0, 57, 77
4, 29757, Note_on_c, 0, 61, 0
4, 29757, Note_on_c, 0, 57, 0
4, 29760, Note_on_c, 0, 62, 77
4, 29760, Note_on_c, 0, 50, 77
4, 29805, Note_on_c, 0, 62, 0
4, 29805, Note_on_c, 0, 50, 0
4, 29808, Note_on_c, 0, 62, 77
4, 29808, Note_on_c, 0, 50, 77
4, 29853, Note_on_c, 0, 62, 0
4, 29853, Note_on_c, 0, 50, 0
4, 29856, Note_on_c, 0, 59, 77
4, 29856, Note_on_c, 0, 52, 77
4, 29901, Note_on_c, 0, 59, 0
4, 29901, Note_on_c, 0, 52, 0
4, 29904, Note_on_c, 0, 59, 77
4, 29904, Note_on_c, 0, 52, 77
4, 29949, Note_on_c, 0, 59, 0
4, 29949, Note_on_c, 0, 52, 0
4, 29952, Note_on_c, 0, 61, 84
4, 29952, Note_on_c, 0, 57, 84
4, 30041, Note_on_c, 0, 61, 0
4, 30041, Note_on_c, 0, 57, 0
4, 30096, Note_on_c, 0, 62, 84
4, 30096, Note_on_c, 0, 52, 84
4, 30141, Note_on_c, 0, 62, 0
4, 30141, Note_on_c, 0, 52, 0
4, 30144, Note_on_c, 0, 61, 84
4, 30144, Note_on_c, 0, 57, 84
4, 30233, Note_on_c, 0, 61, 0
4, 30233, Note_on_c, 0, 57, 0
4, 30288, Note_on_c, 0, 62, 84
4, 30288, Note_on_c, 0, 52, 84
4, 30333, Note_on_c, 0, 62, 0
4, 30333, Note_on_c, 0, 52, 0
4, 30336, Note_on_c, 0, 61, 84
4, 30336, Note_on_c, 0, 57, 84
4, 30381, Note_on_c, 0, 61, 0
4, 30381, Note_on_c, 0, 57, 0
4, 30432, Note_on_c, 0, 57, 84
4, 30432, Note_on_c, 0, 45, 84
4, 30477, Note_on_c, 0, 57, 0
4, 30477, Note_on_c, 0, 45, 0
4, 30528, Note_on_c, 0, 45, 84
4, 30528, Note_on_c, 0, 33, 84
4, 30573, Note_on_c, 0, 45, 0
4, 30573, Note_on_c, 0, 33, 0
4, 30720, Note_on_c, 0, 68, 84
4, 30726, Note_on_c, 0, 68, 0
4, 30726, Note_on_c, 0, 69, 84
4, 30765, Note_on_c, 0, 69, 0
4, 30768, Note_on_c, 0, 57, 84
4, 30813, Note_on_c, 0, 57, 0
4, 30816, Note_on_c, 0, 57, 84
4, 30861, Note_on_c, 0, 57, 0
4, 30864, Note_on_c, 0, 57, 84
4, 30909, Note_on_c, 0, 57, 0
4, 30912, Note_on_c, 0, 59, 84
4, 30924, Note_on_c, 0, 59, 0
4, 30924, Note_on_c, 0, 61, 84
4, 30936, Note_on_c, 0, 61, 0
4, 30936, Note_on_c, 0, 59, 84
4, 30957, Note_on_c, 0, 59, 0
4, 30960, Note_on_c, 0, 57, 84
4, 31005, Note_on_c, 0, 57, 0
4, 31008, Note_on_c, 0, 59, 84
4, 31020, Note_on_c, 0, 59, 0
4, 31020, Note_on_c, 0, 61, 84
4, 31032, Note_on_c, 0, 61, 0
4, 31032, Note_on_c, 0, 59, 84
4, 31053, Note_on_c, 0, 59, 0
4, 31056, Note_on_c, 0, 57, 84
4, 31101, Note_on_c, 0, 57, 0
4, 31104, Note_on_c, 0, 69, 84
4, 31149, Note_on_c, 0, 69, 0
4, 31152, Note_on_c, 0, 71, 84
4, 31197, Note_on_c, 0, 71, 0
4, 31200, Note_on_c, 0, 73, 84
4, 31245, Note_on_c, 0, 73, 0
4, 31248, Note_on_c, 0, 74, 84
4, 31293, Note_on_c, 0, 74, 0
4, 31296, Note_on_c, 0, 76, 84
4, 31385, Note_on_c, 0, 76, 0
4, 31440, Note_on_c, 0, 58, 84
4, 31485, Note_on_c, 0, 58, 0
4, 31488, Note_on_c, 0, 59, 84
4, 31533, Note_on_c, 0, 59, 0
4, 31536, Note_on_c, 0, 47, 84
4, 31581, Note_on_c, 0, 47, 0
4, 31584, Note_on_c, 0, 47, 84
4, 31629, Note_on_c, 0, 47, 0
4, 31632, Note_on_c, 0, 47, 84
4, 31677, Note_on_c, 0, 47, 0
4, 31680, Note_on_c, 0, 49, 84
4, 31692, Note_on_c, 0, 49, 0
4, 31692, Note_on_c, 0, 50, 84
4, 31704, Note_on_c, 0, 50, 0
4, 31704, Note_on_c, 0, 49, 84
4, 31725, Note_on_c, 0, 49, 0
4, 31728, Note_on_c, 0, 47, 84
4, 31773, Note_on_c, 0, 47, 0
4, 31776, Note_on_c, 0, 49, 84
4, 31788, Note_on_c, 0, 49, 0
4, 31788, Note_on_c, 0, 50, 84
4, 31800, Note_on_c, 0, 50, 0
4, 31800, Note_on_c, 0, 49, 84
4, 31821, Note_on_c, 0, 49, 0
4, 31824, Note_on_c, 0, 47, 84
4, 31869, Note_on_c, 0, 47, 0
4, 31872, Note_on_c, 0, 59, 84
4, 31917, Note_on_c, 0, 59, 0
4, 31920, Note_on_c, 0, 61, 84
4, 31965, Note_on_c, 0, 61, 0
4, 31968, Note_on_c, 0, 63, 84
4, 32013, Note_on_c, 0, 63, 0
4, 32016, Note_on_c, 0, 64, 84
4, 32061, Note_on_c, 0, 64, 0
4, 32064, Note_on_c, 0, 66, 84
4, 32153, Note_on_c, 0, 66, 0
4, 32208, Note_on_c, 0, 63, 84
4, 32253, Note_on_c, 0, 63, 0
4, 32256, Note_on_c, 0, 64, 84
4, 32301, Note_on_c, 0, 64, 0
4, 32304, Note_on_c, 0, 52, 84
4, 32349, Note_on_c, 0, 52, 0
4, 32352, Note_on_c, 0, 52, 84
4, 32397, Note_on_c, 0, 52, 0
4, 32400, Note_on_c, 0, 52, 84
4, 32445, Note_on_c, 0, 52, 0
4, 32448, Note_on_c, 0, 52, 84
4, 32537, Note_on_c, 0, 52, 0
4, 32592, Note_on_c, 0, 56, 84
4, 32637, Note_on_c, 0, 56, 0
4, 32640, Note_on_c, 0, 57, 84
4, 32685, Note_on_c, 0, 57, 0
4, 32688, Note_on_c, 0, 45, 84
4, 32733, Note_on_c, 0, 45, 0
4, 32736, Note_on_c, 0, 45, 84
4, 32781, Note_on_c, 0, 45, 0
4, 32784, Note_on_c, 0, 45, 84
4, 32829, Note_on_c, 0, 45, 0
4, 32832, Note_on_c, 0, 45, 84
4, 32855, Note_on_c, 0, 45, 0
4, 32856, Note_on_c, 0, 47, 84
4, 32879, Note_on_c, 0, 47, 0
4, 32880, Note_on_c, 0, 45, 84
4, 32903, Note_on_c, 0, 45, 0
4, 32904, Note_on_c, 0, 43, 84
4, 32927, Note_on_c, 0, 43, 0
4, 32928, Note_on_c, 0, 42, 84
4, 32951, Note_on_c, 0, 42, 0
4, 32952, Note_on_c, 0, 40, 84
4, 32975, Note_on_c, 0, 40, 0
4, 32976, Note_on_c, 0, 38, 84
4, 32999, Note_on_c, 0, 38, 0
4, 33000, Note_on_c, 0, 37, 84
4, 33023, Note_on_c, 0, 37, 0
4, 33024, Note_on_c, 0, 38, 84
4, 33047, Note_on_c, 0, 38, 0
4, 33048, Note_on_c, 0, 37, 84
4, 33071, Note_on_c, 0, 37, 0
4, 33072, Note_on_c, 0, 38, 84
4, 33095, Note_on_c, 0, 38, 0
4, 33096, Note_on_c, 0, 40, 84
4, 33119, Note_on_c, 0, 40, 0
4, 33120, Note_on_c, 0, 42, 84
4, 33143, Note_on_c, 0, 42, 0
4, 33144, Note_on_c, 0, 40, 84
4, 33167, Note_on_c, 0, 40, 0
4, 33168, Note_on_c, 0, 42, 84
4, 33191, Note_on_c, 0, 42, 0
4, 33192, Note_on_c, 0, 43, 84
4, 33215, Note_on_c, 0, 43, 0
4, 33216, Note_on_c, 0, 45, 84
4, 33239, Note_on_c, 0, 45, 0
4, 33240, Note_on_c, 0, 44, 84
4, 33263, Note_on_c, 0, 44, 0
4, 33264, Note_on_c, 0, 45, 84
4, 33287, Note_on_c, 0, 45, 0
4, 33288, Note_on_c, 0, 47, 84
4, 33311, Note_on_c, 0, 47, 0
4, 33312, Note_on_c, 0, 49, 84
4, 33335, Note_on_c, 0, 49, 0
4, 33336, Note_on_c, 0, 42, 84
4, 33359, Note_on_c, 0, 42, 0
4, 33360, Note_on_c, 0, 44, 84
4, 33383, Note_on_c, 0, 44, 0
4, 33384, Note_on_c, 0, 46, 84
4, 33407, Note_on_c, 0, 46, 0
4, 33408, Note_on_c, 0, 47, 84
4, 33431, Note_on_c, 0, 47, 0
4, 33432, Note_on_c, 0, 46, 84
4, 33455, Note_on_c, 0, 46, 0
4, 33456, Note_on_c, 0, 47, 84
4, 33479, Note_on_c, 0, 47, 0
4, 33480, Note_on_c, 0, 49, 84
4, 33503, Note_on_c, 0, 49, 0
4, 33504, Note_on_c, 0, 50, 84
4, 33527, Note_on_c, 0, 50, 0
4, 33528, Note_on_c, 0, 49, 84
4, 33551, Note_on_c, 0, 49, 0
4, 33552, Note_on_c, 0, 50, 84
4, 33575, Note_on_c, 0, 50, 0
4, 33576, Note_on_c, 0, 52, 84
4, 33599, Note_on_c, 0, 52, 0
4, 33600, Note_on_c, 0, 54, 84
4, 33623, Note_on_c, 0, 54, 0
4, 33624, Note_on_c, 0, 52, 84
4, 33647, Note_on_c, 0, 52, 0
4, 33648, Note_on_c, 0, 54, 84
4, 33671, Note_on_c, 0, 54, 0
4, 33672, Note_on_c, 0, 55, 84
4, 33695, Note_on_c, 0, 55, 0
4, 33696, Note_on_c, 0, 57, 84
4, 33719, Note_on_c, 0, 57, 0
4, 33720, Note_on_c, 0, 50, 84
4, 33743, Note_on_c, 0, 50, 0
4, 33744, Note_on_c, 0, 52, 84
4, 33767, Note_on_c, 0, 52, 0
4, 33768, Note_on_c, 0, 54, 84
4, 33791, Note_on_c, 0, 54, 0
4, 33792, Note_on_c, 0, 55, 84
4, 33815, Note_on_c, 0, 55, 0
4, 33816, Note_on_c, 0, 54, 84
4, 33839, Note_on_c, 0, 54, 0
4, 33840, Note_on_c, 0, 55, 84
4, 33863, Note_on_c, 0, 55, 0
4, 33864, Note_on_c, 0, 57, 84
4, 33887, Note_on_c, 0, 57, 0
4, 33888, Note_on_c, 0, 59, 84
4, 33911, Note_on_c, 0, 59, 0
4, 33912, Note_on_c, 0, 57, 84
4, 33935, Note_on_c, 0, 57, 0
4, 33936, Note_on_c, 0, 59, 84
4, 33959, Note_on_c, 0, 59, 0
4, 33960, Note_on_c, 0, 61, 84
4, 33983, Note_on_c, 0, 61, 0
4, 33984, Note_on_c, 0, 62, 84
4, 34007, Note_on_c, 0, 62, 0
4, 34008, Note_on_c, 0, 61, 84
4, 34031, Note_on_c, 0, 61, 0
4, 34032, Note_on_c, 0, 62, 84
4, 34055, Note_on_c, 0, 62, 0
4, 34056, Note_on_c, 0, 50, 84
4, 34079, Note_on_c, 0, 50, 0
4, 34080, Note_on_c, 0, 63, 84
4, 34103, Note_on_c, 0, 63, 0
4, 34104, Note_on_c, 0, 61, 84
4, 34127, Note_on_c, 0, 61, 0
4, 34128, Note_on_c, 0, 63, 84
4, 34151, Note_on_c, 0, 63, 0
4, 34152, Note_on_c, 0, 51, 84
4, 34175, Note_on_c, 0, 51, 0
4, 34176, Note_on_c, 0, 64, 84
4, 34199, Note_on_c, 0, 64, 0
4, 34200, Note_on_c, 0, 63, 84
4, 34223, Note_on_c, 0, 63, 0
4, 34224, Note_on_c, 0, 64, 84
4, 34247, Note_on_c, 0, 64, 0
4, 34248, Note_on_c, 0, 52, 84
4, 34271, Note_on_c, 0, 52, 0
4, 34272, Note_on_c, 0, 61, 84
4, 34295, Note_on_c, 0, 61, 0
4, 34296, Note_on_c, 0, 59, 84
4, 34319, Note_on_c, 0, 59, 0
4, 34320, Note_on_c, 0, 61, 84
4, 34343, Note_on_c, 0, 61, 0
4, 34344, Note_on_c, 0, 49, 84
4, 34367, Note_on_c, 0, 49, 0
4, 34368, Note_on_c, 0, 58, 84
4, 34391, Note_on_c, 0, 58, 0
4, 34392, Note_on_c, 0, 56, 84
4, 34415, Note_on_c, 0, 56, 0
4, 34416, Note_on_c, 0, 58, 84
4, 34439, Note_on_c, 0, 58, 0
4, 34440, Note_on_c, 0, 46, 84
4, 34463, Note_on_c, 0, 46, 0
4, 34464, Note_on_c, 0, 59, 84
4, 34487, Note_on_c, 0, 59, 0
4, 34488, Note_on_c, 0, 58, 84
4, 34511, Note_on_c, 0, 58, 0
4, 34512, Note_on_c, 0, 59, 84
4, 34535, Note_on_c, 0, 59, 0
4, 34536, Note_on_c, 0, 47, 84
4, 34559, Note_on_c, 0, 47, 0
4, 34560, Note_on_c, 0, 61, 84
4, 34583, Note_on_c, 0, 61, 0
4, 34584, Note_on_c, 0, 59, 84
4, 34607, Note_on_c, 0, 59, 0
4, 34608, Note_on_c, 0, 61, 84
4, 34631, Note_on_c, 0, 61, 0
4, 34632, Note_on_c, 0, 58, 84
4, 34655, Note_on_c, 0, 58, 0
4, 34656, Note_on_c, 0, 62, 84
4, 34679, Note_on_c, 0, 62, 0
4, 34680, Note_on_c, 0, 61, 84
4, 34703, Note_on_c, 0, 61, 0
4, 34704, Note_on_c, 0, 62, 84
4, 34727, Note_on_c, 0, 62, 0
4, 34728, Note_on_c, 0, 59, 84
4, 34751, Note_on_c, 0, 59, 0
4, 34752, Note_on_c, 0, 64, 84
4, 34775, Note_on_c, 0, 64, 0
4, 34776, Note_on_c, 0, 62, 84
4, 34799, Note_on_c, 0, 62, 0
4, 34800, Note_on_c, 0, 64, 84
4, 34823, Note_on_c, 0, 64, 0
4, 34824, Note_on_c, 0, 61, 84
4, 34847, Note_on_c, 0, 61, 0
4, 34848, Note_on_c, 0, 62, 84
4, 34871, Note_on_c, 0, 62, 0
4, 34872, Note_on_c, 0, 61, 84
4, 34895, Note_on_c, 0, 61, 0
4, 34896, Note_on_c, 0, 62, 84
4, 34919, Note_on_c, 0, 62, 0
4, 34920, Note_on_c, 0, 59, 84
4, 34943, Note_on_c, 0, 59, 0
4, 34944, Note_on_c, 0, 61, 84
4, 34944, Note_on_c, 0, 54, 84
4, 34989, Note_on_c, 0, 61, 0
4, 34989, Note_on_c, 0, 54, 0
4, 34992, Note_on_c, 0, 61, 84
4, 34992, Note_on_c, 0, 54, 84
4, 35037, Note_on_c, 0, 61, 0
4, 35037, Note_on_c, 0, 54, 0
4, 35040, Note_on_c, 0, 62, 84
4, 35040, Note_on_c, 0, 54, 84
4, 35085, Note_on_c, 0, 62, 0
4, 35085, Note_on_c, 0, 54, 0
4, 35088, Note_on_c, 0, 62, 84
4, 35088, Note_on_c, 0, 54, 84
4, 35133, Note_on_c, 0, 62, 0
4, 35133, Note_on_c, 0, 54, 0
4, 35136, Note_on_c, 0, 58, 84
4, 35136, Note_on_c, 0, 54, 84
4, 35181, Note_on_c, 0, 58, 0
4, 35181, Note_on_c, 0, 54, 0
4, 35184, Note_on_c, 0, 58, 84
4, 35184, Note_on_c, 0, 54, 84
4, 35229, Note_on_c, 0, 58, 0
4, 35229, Note_on_c, 0, 54, 0
4, 35232, Note_on_c, 0, 59, 84
4, 35232, Note_on_c, 0, 54, 84
4, 35277, Note_on_c, 0, 59, 0
4, 35277, Note_on_c, 0, 54, 0
4, 35280, Note_on_c, 0, 59, 84
4, 35280, Note_on_c, 0, 54, 84
4, 35325, Note_on_c, 0, 59, 0
4, 35325, Note_on_c, 0, 54, 0
4, 35328, Note_on_c, 0, 61, 84
4, 35328, Note_on_c, 0, 58, 84
4, 35328, Note_on_c, 0, 55, 84
4, 35328, Note_on_c, 0, 52, 84
4, 35505, Note_on_c, 0, 61, 0
4, 35505, Note_on_c, 0, 58, 0
4, 35505, Note_on_c, 0, 55, 0
4, 35505, Note_on_c, 0, 52, 0
4, 35520, Note_on_c, 0, 59, 84
4, 35520, Note_on_c, 0, 54, 84
4, 35520, Note_on_c, 0, 50, 84
4, 35697, Note_on_c, 0, 59, 0
4, 35697, Note_on_c, 0, 54, 0
4, 35697, Note_on_c, 0, 50, 0
4, 35712, Note_on_c, 0, 61, 84
4, 35712, Note_on_c, 0, 58, 84
4, 35712, Note_on_c, 0, 55, 84
4, 35712, Note_on_c, 0, 52, 84
4, 35889, Note_on_c, 0, 61, 0
4, 35889, Note_on_c, 0, 58, 0
4, 35889, Note_on_c, 0, 55, 0
4, 35889, Note_on_c, 0, 52, 0
4, 35904, Note_on_c, 0, 59, 84
4, 35904, Note_on_c, 0, 54, 84
4, 35904, Note_on_c, 0, 50, 84
4, 36081, Note_on_c, 0, 59, 0
4, 36081, Note_on_c, 0, 54, 0
4, 36081, Note_on_c, 0, 50, 0
4, 36096, Control_c, 0, 64, 127
4, 36096, Note_on_c, 0, 60, 84
4, 36096, Note_on_c, 0, 55, 84
4, 36096, Note_on_c, 0, 52, 84
4, 36273, Note_on_c, 0, 60, 0
4, 36273, Note_on_c, 0, 55, 0
4, 36273, Note_on_c, 0, 52, 0
4, 36480, Control_c, 0, 64, 0
4, 36480, Note_on_c, 0, 53, 84
4, 36480, Note_on_c, 0, 41, 84
4, 36849, Note_on_c, 0, 53, 0
4, 36849, Note_on_c, 0, 41, 0
4, 36864, Note_on_c, 0, 54, 84
4, 36864, Note_on_c, 0, 42, 84
4, 37233, Note_on_c, 0, 54, 0
4, 37233, Note_on_c, 0, 42, 0
4, 37440, Note_on_c, 0, 64, 84
4, 37440, Note_on_c, 0, 58, 84
4, 37440, Note_on_c, 0, 54, 84
4, 37617, Note_on_c, 0, 64, 0
4, 37617, Note_on_c, 0, 58, 0
4, 37617, Note_on_c, 0, 54, 0
4, 37632, Note_on_c, 0, 69, 69
4, 37632, Note_on_c, 0, 66, 69
4, 37632, Note_on_c, 0, 59, 69
4, 37677, Note_on_c, 0, 69, 0
4, 37677, Note_on_c, 0, 66, 0
4, 37677, Note_on_c, 0, 59, 0
4, 37680, Note_on_c, 0, 69, 69
4, 37680, Note_on_c, 0, 66, 69
4, 37680, Note_on_c, 0, 59, 69
4, 37725, Note_on_c, 0, 69, 0
4, 37725, Note_on_c, 0, 66, 0
4, 37725, Note_on_c, 0, 59, 0
4, 37728, Note_on_c, 0, 69, 69
4, 37728, Note_on_c, 0, 66, 69
4, 37728, Note_on_c, 0, 59, 69
4, 37773, Note_on_c, 0, 69, 0
4, 37773, Note_on_c, 0, 66, 0
4, 37773, Note_on_c, 0, 59, 0
4, 37776, Note_on_c, 0, 69, 69
4, 37776, Note_on_c, 0, 66, 69
4, 37776, Note_on_c, 0, 59, 69
4, 37821, Note_on_c, 0, 69, 0
4, 37821, Note_on_c, 0, 66, 0
4, 37821, Note_on_c, 0, 59, 0
4, 37824, Note_on_c, 0, 67, 69
4, 37869, Note_on_c, 0, 67, 0
4, 37872, Note_on_c, 0, 66, 69
4, 37917, Note_on_c, 0, 66, 0
4, 37920, Note_on_c, 0, 67, 69
4, 37965, Note_on_c, 0, 67, 0
4, 37968, Note_on_c, 0, 64, 69
4, 38013, Note_on_c, 0, 64, 0
4, 38400, Note_on_c, 0, 62, 84
4, 38400, Note_on_c, 0, 57, 84
4, 38400, Note_on_c, 0, 54, 84
4, 38400, Note_on_c, 0, 50, 84
4, 38489, Note_on_c, 0, 62, 0
4, 38489, Note_on_c, 0, 57, 0
4, 38489, Note_on_c, 0, 54, 0
4, 38489, Note_on_c, 0, 50, 0
4, 38544, Note_on_c, 0, 69, 77
4, 38544, Note_on_c, 0, 66, 77
4, 38589, Note_on_c, 0, 69, 0
4, 38589, Note_on_c, 0, 66, 0
4, 38592, Note_on_c, 0, 71, 77
4, 38592, Note_on_c, 0, 67, 77
4, 38637, Note_on_c, 0, 71, 0
4, 38637, Note_on_c, 0, 67, 0
4, 38640, Note_on_c, 0, 69, 77
4, 38640, Note_on_c, 0, 66, 77
4, 38685, Note_on_c, 0, 69, 0
4, 38685, Note_on_c, 0, 66, 0
4, 38688, Note_on_c, 0, 71, 77
4, 38688, Note_on_c, 0, 67, 77
4, 38733, Note_on_c, 0, 71, 0
4, 38733, Note_on_c, 0, 67, 0
4, 38736, Note_on_c, 0, 69, 77
4, 38736, Note_on_c, 0, 66, 77
4, 38781, Note_on_c, 0, 69, 0
4, 38781, Note_on_c, 0, 66, 0
4, 38784, Note_on_c, 0, 69, 77
4, 38784, Note_on_c, 0, 66, 77
4, 38784, Note_on_c, 0, 62, 77
4, 38873, Note_on_c, 0, 69, 0
4, 38873, Note_on_c, 0, 66, 0
4, 38873, Note_on_c, 0, 62, 0
4, 38928, Note_on_c, 0, 69, 77
4, 38928, Note_on_c, 0, 66, 77
4, 38973, Note_on_c, 0, 69, 0
4, 38973, Note_on_c, 0, 66, 0
4, 38976, Note_on_c, 0, 71, 77
4, 38976, Note_on_c, 0, 67, 77
4, 39021, Note_on_c, 0, 71, 0
4, 39021, Note_on_c, 0, 67, 0
4, 39024, Note_on_c, 0, 69, 77
4, 39024, Note_on_c, 0, 66, 77
4, 39069, Note_on_c, 0, 69, 0
4, 39069, Note_on_c, 0, 66, 0
4, 39072, Note_on_c, 0, 71, 77
4, 39072, Note_on_c, 0, 67, 77
4, 39117, Note_on_c, 0, 71, 0
4, 39117, Note_on_c, 0, 67, 0
4, 39120, Note_on_c, 0, 69, 77
4, 39120, Note_on_c, 0, 66, 77
4, 39165, Note_on_c, 0, 69, 0
4, 39165, Note_on_c, 0, 66, 0
4, 39168, Note_on_c, 0, 71, 77
4, 39188, Note_on_c, 0, 71, 0
4, 39216, Note_on_c, 0, 71, 77
4, 39264, Note_on_c, 0, 71, 0
4, 39264, Note_on_c, 0, 69, 77
4, 39284, Note_on_c, 0, 69, 0
4, 39312, Note_on_c, 0, 69, 77
4, 39360, Note_on_c, 0, 69, 0
4, 39360, Note_on_c, 0, 67, 77
4, 39380, Note_on_c, 0, 67, 0
4, 39408, Note_on_c, 0, 67, 77
4, 39456, Note_on_c, 0, 67, 0
4, 39456, Note_on_c, 0, 66, 77
4, 39476, Note_on_c, 0, 66, 0
4, 39504, Note_on_c, 0, 66, 77
4, 39549, Note_on_c, 0, 66, 0
4, 39552, Note_on_c, 0, 64, 77
4, 39597, Note_on_c, 0, 64, 0
4, 39600, Note_on_c, 0, 61, 77
4, 39645, Note_on_c, 0, 61, 0
4, 39648, Note_on_c, 0, 62, 77
4, 39693, Note_on_c, 0, 62, 0
4, 39696, Note_on_c, 0, 66, 77
4, 39741, Note_on_c, 0, 66, 0
4, 39744, Note_on_c, 0, 69, 77
4, 39833, Note_on_c, 0, 69, 0
4, 39936, Note_on_c, 0, 62, 77
4, 39959, Note_on_c, 0, 62, 0
4, 39960, Note_on_c, 0, 69, 77
4, 39983, Note_on_c, 0, 69, 0
4, 39984, Note_on_c, 0, 66, 77
4, 40007, Note_on_c, 0, 66, 0
4, 40008, Note_on_c, 0, 69, 77
4, 40031, Note_on_c, 0, 69, 0
4, 40032, Note_on_c, 0, 66, 77
4, 40055, Note_on_c, 0, 66, 0
4, 40056, Note_on_c, 0, 69, 77
4, 40079, Note_on_c, 0, 69, 0
4, 40080, Note_on_c, 0, 66, 77
4, 40103, Note_on_c, 0, 66, 0
4, 40104, Note_on_c, 0, 69, 77
4, 40127, Note_on_c, 0, 69, 0
4, 40128, Note_on_c, 0, 67, 77
4, 40151, Note_on_c, 0, 67, 0
4, 40152, Note_on_c, 0, 69, 77
4, 40175, Note_on_c, 0, 69, 0
4, 40176, Note_on_c, 0, 66, 77
4, 40199, Note_on_c, 0, 66, 0
4, 40200, Note_on_c, 0, 69, 77
4, 40223, Note_on_c, 0, 69, 0
4, 40224, Note_on_c, 0, 67, 77
4, 40247, Note_on_c, 0, 67, 0
4, 40248, Note_on_c, 0, 69, 77
4, 40271, Note_on_c, 0, 69, 0
4, 40272, Note_on_c, 0, 66, 77
4, 40295, Note_on_c, 0, 66, 0
4, 40296, Note_on_c, 0, 69, 77
4, 40319, Note_on_c, 0, 69, 0
4, 40320, Note_on_c, 0, 62, 77
4, 40343, Note_on_c, 0, 62, 0
4, 40344, Note_on_c, 0, 69, 77
4, 40367, Note_on_c, 0, 69, 0
4, 40368, Note_on_c, 0, 66, 77
4, 40391, Note_on_c, 0, 66, 0
4, 40392, Note_on_c, 0, 69, 77
4, 40415, Note_on_c, 0, 69, 0
4, 40416, Note_on_c, 0, 66, 77
4, 40439, Note_on_c, 0, 66, 0
4, 40440, Note_on_c, 0, 69, 77
4, 40463, Note_on_c, 0, 69, 0
4, 40464, Note_on_c, 0, 66, 77
4, 40487, Note_on_c, 0, 66, 0
4, 40488, Note_on_c, 0, 69, 77
4, 40511, Note_on_c, 0, 69, 0
4, 40512, Note_on_c, 0, 67, 77
4, 40535, Note_on_c, 0, 67, 0
4, 40536, Note_on_c, 0, 69, 77
4, 40559, Note_on_c, 0, 69, 0
4, 40560, Note_on_c, 0, 66, 77
4, 40583, Note_on_c, 0, 66, 0
4, 40584, Note_on_c, 0, 69, 77
4, 40607, Note_on_c, 0, 69, 0
4, 40608, Note_on_c, 0, 67, 77
4, 40631, Note_on_c, 0, 67, 0
4, 40632, Note_on_c, 0, 69, 77
4, 40655, Note_on_c, 0, 69, 0
4, 40656, Note_on_c, 0, 66, 77
4, 40679, Note_on_c, 0, 66, 0
4, 40680, Note_on_c, 0, 69, 77
4, 40703, Note_on_c, 0, 69, 0
4, 40704, Note_on_c, 0, 64, 77
4, 40727, Note_on_c, 0, 64, 0
4, 40728, Note_on_c, 0, 69, 77
4, 40751, Note_on_c, 0, 69, 0
4, 40752, Note_on_c, 0, 63, 77
4, 40775, Note_on_c, 0, 63, 0
4, 40776, Note_on_c, 0, 69, 77
4, 40799, Note_on_c, 0, 69, 0
4, 40800, Note_on_c, 0, 64, 77
4, 40823, Note_on_c, 0, 64, 0
4, 40824, Note_on_c, 0, 69, 77
4, 40847, Note_on_c, 0, 69, 0
4, 40848, Note_on_c, 0, 61, 77
4, 40871, Note_on_c, 0, 61, 0
4, 40872, Note_on_c, 0, 69, 77
4, 40895, Note_on_c, 0, 69, 0
4, 40896, Note_on_c, 0, 62, 77
4, 40919, Note_on_c, 0, 62, 0
4, 40920, Note_on_c, 0, 69, 77
4, 40943, Note_on_c, 0, 69, 0
4, 40944, Note_on_c, 0, 61, 77
4, 40967, Note_on_c, 0, 61, 0
4, 40968, Note_on_c, 0, 69, 77
4, 40991, Note_on_c, 0, 69, 0
4, 40992, Note_on_c, 0, 62, 77
4, 41015, Note_on_c, 0, 62, 0
4, 41016, Note_on_c, 0, 69, 77
4, 41039, Note_on_c, 0, 69, 0
4, 41040, Note_on_c, 0, 66, 77
4, 41063, Note_on_c, 0, 66, 0
4, 41064, Note_on_c, 0, 69, 77
4, 41087, Note_on_c, 0, 69, 0
4, 41088, Note_on_c, 0, 67, 77
4, 41111, Note_on_c, 0, 67, 0
4, 41112, Note_on_c, 0, 69, 77
4, 41135, Note_on_c, 0, 69, 0
4, 41136, Note_on_c, 0, 66, 77
4, 41159, Note_on_c, 0, 66, 0
4, 41160, Note_on_c, 0, 69, 77
4, 41183, Note_on_c, 0, 69, 0
4, 41184, Note_on_c, 0, 67, 77
4, 41207, Note_on_c, 0, 67, 0
4, 41208, Note_on_c, 0, 69, 77
4, 41231, Note_on_c, 0, 69, 0
4, 41232, Note_on_c, 0, 64, 77
4, 41255, Note_on_c, 0, 64, 0
4, 41256, Note_on_c, 0, 69, 77
4, 41279, Note_on_c, 0, 69, 0
4, 41280, Note_on_c, 0, 66, 77
4, 41303, Note_on_c, 0, 66, 0
4, 41304, Note_on_c, 0, 69, 77
4, 41327, Note_on_c, 0, 69, 0
4, 41328, Note_on_c, 0, 64, 77
4, 41351, Note_on_c, 0, 64, 0
4, 41352, Note_on_c, 0, 69, 77
4, 41375, Note_on_c, 0, 69, 0
4, 41376, Note_on_c, 0, 66, 77
4, 41399, Note_on_c, 0, 66, 0
4, 41400, Note_on_c, 0, 69, 77
4, 41423, Note_on_c, 0, 69, 0
4, 41424, Note_on_c, 0, 62, 77
4, 41447, Note_on_c, 0, 62, 0
4, 41448, Note_on_c, 0, 69, 77
4, 41471, Note_on_c, 0, 69, 0
4, 41472, Note_on_c, 0, 64, 77
4, 41495, Note_on_c, 0, 64, 0
4, 41496, Note_on_c, 0, 69, 77
4, 41519, Note_on_c, 0, 69, 0
4, 41520, Note_on_c, 0, 63, 77
4, 41543, Note_on_c, 0, 63, 0
4, 41544, Note_on_c, 0, 69, 77
4, 41567, Note_on_c, 0, 69, 0
4, 41568, Note_on_c, 0, 64, 77
4, 41591, Note_on_c, 0, 64, 0
4, 41592, Note_on_c, 0, 69, 77
4, 41615, Note_on_c, 0, 69, 0
4, 41616, Note_on_c, 0, 61, 77
4, 41639, Note_on_c, 0, 61, 0
4, 41640, Note_on_c, 0, 69, 77
4, 41663, Note_on_c, 0, 69, 0
4, 41664, Note_on_c, 0, 62, 77
4, 41687, Note_on_c, 0, 62, 0
4, 41688, Note_on_c, 0, 69, 77
4, 41711, Note_on_c, 0, 69, 0
4, 41712, Note_on_c, 0, 61, 77
4, 41735, Note_on_c, 0, 61, 0
4, 41736, Note_on_c, 0, 69, 77
4, 41759, Note_on_c, 0, 69, 0
4, 41760, Note_on_c, 0, 62, 77
4, 41783, Note_on_c, 0, 62, 0
4, 41784, Note_on_c, 0, 69, 77
4, 41807, Note_on_c, 0, 69, 0
4, 41808, Note_on_c, 0, 66, 77
4, 41831, Note_on_c, 0, 66, 0
4, 41832, Note_on_c, 0, 69, 77
4, 41855, Note_on_c, 0, 69, 0
4, 41856, Note_on_c, 0, 67, 77
4, 41879, Note_on_c, 0, 67, 0
4, 41880, Note_on_c, 0, 71, 77
4, 41903, Note_on_c, 0, 71, 0
4, 41904, Note_on_c, 0, 66, 77
4, 41927, Note_on_c, 0, 66, 0
4, 41928, Note_on_c, 0, 69, 78
4, 41951, Note_on_c, 0, 69, 0
4, 41952, Note_on_c, 0, 67, 78
4, 41975, Note_on_c, 0, 67, 0
4, 41976, Note_on_c, 0, 71, 79
4, 41999, Note_on_c, 0, 71, 0
4, 42000, Note_on_c, 0, 66, 79
4, 42023, Note_on_c, 0, 66, 0
4, 42024, Note_on_c, 0, 69, 80
4, 42047, Note_on_c, 0, 69, 0
4, 42048, Note_on_c, 0, 67, 80
4, 42071, Note_on_c, 0, 67, 0
4, 42072, Note_on_c, 0, 71, 80
4, 42095, Note_on_c, 0, 71, 0
4, 42096, Note_on_c, 0, 66, 81
4, 42119, Note_on_c, 0, 66, 0
4, 42120, Note_on_c, 0, 69, 81
4, 42143, Note_on_c, 0, 69, 0
4, 42144, Note_on_c, 0, 67, 82
4, 42167, Note_on_c, 0, 67, 0
4, 42168, Note_on_c, 0, 71, 82
4, 42191, Note_on_c, 0, 71, 0
4, 42192, Note_on_c, 0, 66, 83
4, 42215, Note_on_c, 0, 66, 0
4, 42216, Note_on_c, 0, 69, 83
4, 42239, Note_on_c, 0, 69, 0
4, 42240, Note_on_c, 0, 67, 84
4, 42329, Note_on_c, 0, 67, 0
4, 42528, Note_on_c, 0, 68, 84
4, 42617, Note_on_c, 0, 68, 0
4, 42624, Note_on_c, 0, 57, 84
4, 42713, Note_on_c, 0, 57, 0
4, 43008, Note_on_c, 0, 57, 84
4, 43031, Note_on_c, 0, 57, 0
4, 43032, Note_on_c, 0, 69, 84
4, 43055, Note_on_c, 0, 69, 0
4, 43056, Note_on_c, 0, 68, 84
4, 43079, Note_on_c, 0, 68, 0
4, 43080, Note_on_c, 0, 69, 84
4, 43103, Note_on_c, 0, 69, 0
4, 43104, Note_on_c, 0, 68, 84
4, 43127, Note_on_c, 0, 68, 0
4, 43128, Note_on_c, 0, 69, 84
4, 43151, Note_on_c, 0, 69, 0
4, 43152, Note_on_c, 0, 68, 84
4, 43175, Note_on_c, 0, 68, 0
4, 43176, Note_on_c, 0, 69, 84
4, 43199, Note_on_c, 0, 69, 0
4, 43200, Note_on_c, 0, 57, 84
4, 43223, Note_on_c, 0, 57, 0
4, 43224, Note_on_c, 0, 67, 84
4, 43247, Note_on_c, 0, 67, 0
4, 43248, Note_on_c, 0, 66, 84
4, 43271, Note_on_c, 0, 66, 0
4, 43272, Note_on_c, 0, 67, 84
4, 43295, Note_on_c, 0, 67, 0
4, 43296, Note_on_c, 0, 66, 84
4, 43319, Note_on_c, 0, 66, 0
4, 43320, Note_on_c, 0, 67, 84
4, 43343, Note_on_c, 0, 67, 0
4, 43344, Note_on_c, 0, 66, 84
4, 43367, Note_on_c, 0, 66, 0
4, 43368, Note_on_c, 0, 67, 84
4, 43391, Note_on_c, 0, 67, 0
4, 43392, Note_on_c, 0, 66, 84
4, 43392, Note_on_c, 0, 62, 84
4, 43481, Note_on_c, 0, 66, 0
4, 43481, Note_on_c, 0, 62, 0
4, 43488, Note_on_c, 0, 62, 84
4, 43533, Note_on_c, 0, 62, 0
4, 43536, Note_on_c, 0, 61, 84
4, 43581, Note_on_c, 0, 61, 0
4, 43584, Note_on_c, 0, 62, 84
4, 43629, Note_on_c, 0, 62, 0
4, 43632, Note_on_c, 0, 64, 84
4, 43677, Note_on_c, 0, 64, 0
4, 43680, Note_on_c, 0, 66, 84
4, 43725, Note_on_c, 0, 66, 0
4, 43728, Note_on_c, 0, 64, 84
4, 43773, Note_on_c, 0, 64, 0
4, 43776, Note_on_c, 0, 62, 84
4, 43776, Note_on_c, 0, 50, 84
4, 43865, Note_on_c, 0, 62, 0
4, 43865, Note_on_c, 0, 50, 0
4, 43872, Note_on_c, 0, 62, 84
4, 43917, Note_on_c, 0, 62, 0
4, 43920, Note_on_c, 0, 64, 84
4, 43965, Note_on_c, 0, 64, 0
4, 43968, Note_on_c, 0, 66, 84
4, 44013, Note_on_c, 0, 66, 0
4, 44016, Note_on_c, 0, 67, 84
4, 44061, Note_on_c, 0, 67, 0
4, 44064, Note_on_c, 0, 66, 84
4, 44109, Note_on_c, 0, 66, 0
4, 44112, Note_on_c, 0, 64, 84
4, 44157, Note_on_c, 0, 64, 0
4, 44160, Note_on_c, 0, 62, 84
4, 44205, Note_on_c, 0, 62, 0
4, 44208, Note_on_c, 0, 66, 84
4, 44253, Note_on_c, 0, 66, 0
4, 44256, Note_on_c, 0, 67, 84
4, 44301, Note_on_c, 0, 67, 0
4, 44304, Note_on_c, 0, 71, 84
4, 44349, Note_on_c, 0, 71, 0
4, 44352, Note_on_c, 0, 66, 84
4, 44397, Note_on_c, 0, 66, 0
4, 44400, Note_on_c, 0, 69, 84
4, 44445, Note_on_c, 0, 69, 0
4, 44448, Note_on_c, 0, 64, 84
4, 44493, Note_on_c, 0, 64, 0
4, 44496, Note_on_c, 0, 67, 84
4, 44541, Note_on_c, 0, 67, 0
4, 44544, Note_on_c, 0, 62, 84
4, 44589, Note_on_c, 0, 62, 0
4, 44592, Note_on_c, 0, 66, 84
4, 44637, Note_on_c, 0, 66, 0
4, 44640, Note_on_c, 0, 67, 84
4, 44685, Note_on_c, 0, 67, 0
4, 44688, Note_on_c, 0, 71, 84
4, 44733, Note_on_c, 0, 71, 0
4, 44736, Note_on_c, 0, 66, 84
4, 44781, Note_on_c, 0, 66, 0
4, 44784, Note_on_c, 0, 69, 84
4, 44829, Note_on_c, 0, 69, 0
4, 44832, Note_on_c, 0, 64, 84
4, 44877, Note_on_c, 0, 64, 0
4, 44880, Note_on_c, 0, 67, 84
4, 44925, Note_on_c, 0, 67, 0
4, 44928, Note_on_c, 0, 62, 84
4, 44973, Note_on_c, 0, 62, 0
4, 44976, Note_on_c, 0, 66, 84
4, 45021, Note_on_c, 0, 66, 0
4, 45024, Note_on_c, 0, 62, 85
4, 45069, Note_on_c, 0, 62, 0
4, 45072, Note_on_c, 0, 66, 86
4, 45117, Note_on_c, 0, 66, 0
4, 45120, Note_on_c, 0, 59, 87
4, 45165, Note_on_c, 0, 59, 0
4, 45168, Note_on_c, 0, 62, 88
4, 45213, Note_on_c, 0, 62, 0
4, 45216, Note_on_c, 0, 59, 89
4, 45261, Note_on_c, 0, 59, 0
4, 45264, Note_on_c, 0, 62, 90
4, 45309, Note_on_c, 0, 62, 0
4, 45312, Note_on_c, 0, 57, 91
4, 45401, Note_on_c, 0, 57, 0
4, 45408, Note_on_c, 0, 57, 84
4, 45408, Note_on_c, 0, 45, 84
4, 45475, Note_on_c, 0, 57, 0
4, 45475, Note_on_c, 0, 45, 0
4, 45480, Note_on_c, 0, 57, 84
4, 45480, Note_on_c, 0, 45, 84
4, 45503, Note_on_c, 0, 57, 0
4, 45503, Note_on_c, 0, 45, 0
4, 45504, Note_on_c, 0, 57, 84
4, 45504, Note_on_c, 0, 45, 84
4, 45593, Note_on_c, 0, 57, 0
4, 45593, Note_on_c, 0, 45, 0
4, 45696, Note_on_c, 0, 66, 69
4, 45696, Note_on_c, 0, 62, 69
4, 45741, Note_on_c, 0, 66, 0
4, 45741, Note_on_c, 0, 62, 0
4, 45744, Note_on_c, 0, 66, 69
4, 45744, Note_on_c, 0, 62, 69
4, 45789, Note_on_c, 0, 66, 0
4, 45789, Note_on_c, 0, 62, 0
4, 45792, Note_on_c, 0, 66, 69
4, 45792, Note_on_c, 0, 62, 69
4, 45837, Note_on_c, 0, 66, 0
4, 45837, Note_on_c, 0, 62, 0
4, 45840, Note_on_c, 0, 66, 69
4, 45840, Note_on_c, 0, 62, 69
4, 45885, Note_on_c, 0, 66, 0
4, 45885, Note_on_c, 0, 62, 0
4, 45888, Note_on_c, 0, 67, 69
4, 45888, Note_on_c, 0, 64, 69
4, 45933, Note_on_c, 0, 67, 0
4, 45933, Note_on_c, 0, 64, 0
4, 45936, Note_on_c, 0, 67, 69
4, 45936, Note_on_c, 0, 64, 69
4, 45981, Note_on_c, 0, 67, 0
4, 45981, Note_on_c, 0, 64, 0
4, 45984, Note_on_c, 0, 67, 69
4, 45984, Note_on_c, 0, 64, 69
4, 46029, Note_on_c, 0, 67, 0
4, 46029, Note_on_c, 0, 64, 0
4, 46032, Note_on_c, 0, 67, 69
4, 46032, Note_on_c, 0, 64, 69
4, 46077, Note_on_c, 0, 67, 0
4, 46077, Note_on_c, 0, 64, 0
4, 46080, Note_on_c, 0, 64, 69
4, 46080, Note_on_c, 0, 61, 69
4, 46125, Note_on_c, 0, 64, 0
4, 46125, Note_on_c, 0, 61, 0
4, 46128, Note_on_c, 0, 64, 69
4, 46128, Note_on_c, 0, 61, 69
4, 46173, Note_on_c, 0, 64, 0
4, 46173, Note_on_c, 0, 61, 0
4, 46176, Note_on_c, 0, 64, 69
4, 46176, Note_on_c, 0, 61, 69
4, 46221, Note_on_c, 0, 64, 0
4, 46221, Note_on_c, 0, 61, 0
4, 46224, Note_on_c, 0, 64, 69
4, 46224, Note_on_c, 0, 61, 69
4, 46269, Note_on_c, 0, 64, 0
4, 46269, Note_on_c, 0, 61, 0
4, 46272, Note_on_c, 0, 66, 69
4, 46272, Note_on_c, 0, 62, 69
4, 46317, Note_on_c, 0, 66, 0
4, 46317, Note_on_c, 0, 62, 0
4, 46320, Note_on_c, 0, 66, 69
4, 46320, Note_on_c, 0, 62, 69
4, 46365, Note_on_c, 0, 66, 0
4, 46365, Note_on_c, 0, 62, 0
4, 46368, Note_on_c, 0, 66, 69
4, 46368, Note_on_c, 0, 62, 69
4, 46413, Note_on_c, 0, 66, 0
4, 46413, Note_on_c, 0, 62, 0
4, 46416, Note_on_c, 0, 66, 69
4, 46416, Note_on_c, 0, 62, 69
4, 46461, Note_on_c, 0, 66, 0
4, 46461, Note_on_c, 0, 62, 0
4, 46464, Note_on_c, 0, 59, 69
4, 46464, Note_on_c, 0, 55, 69
4, 46509, Note_on_c, 0, 59, 0
4, 46509, Note_on_c, 0, 55, 0
4, 46512, Note_on_c, 0, 59, 71
4, 46512, Note_on_c, 0, 55, 71
4, 46557, Note_on_c, 0, 59, 0
4, 46557, Note_on_c, 0, 55, 0
4, 46560, Note_on_c, 0, 59, 73
4, 46560, Note_on_c, 0, 55, 73
4, 46605, Note_on_c, 0, 59, 0
4, 46605, Note_on_c, 0, 55, 0
4, 46608, Note_on_c, 0, 59, 75
4, 46608, Note_on_c, 0, 55, 75
4, 46653, Note_on_c, 0, 59, 0
4, 46653, Note_on_c, 0, 55, 0
4, 46656, Note_on_c, 0, 59, 77
4, 46656, Note_on_c, 0, 55, 77
4, 46745, Note_on_c, 0, 59, 0
4, 46745, Note_on_c, 0, 55, 0
4, 46848, Note_on_c, 0, 47, 77
4, 46848, Note_on_c, 0, 43, 77
4, 46893, Note_on_c, 0, 47, 0
4, 46893, Note_on_c, 0, 43, 0
4, 46896, Note_on_c, 0, 59, 77
4, 46896, Note_on_c, 0, 55, 77
4, 46941, Note_on_c, 0, 59, 0
4, 46941, Note_on_c, 0, 55, 0
4, 46944, Note_on_c, 0, 59, 77
4, 46944, Note_on_c, 0, 55, 77
4, 46989, Note_on_c, 0, 59, 0
4, 46989, Note_on_c, 0, 55, 0
4, 46992, Note_on_c, 0, 57, 77
4, 46992, Note_on_c, 0, 54, 77
4, 47037, Note_on_c, 0, 57, 0
4, 47037, Note_on_c, 0, 54, 0
4, 47040, Note_on_c, 0, 59, 77
4, 47040, Note_on_c, 0, 55, 77
4, 47129, Note_on_c, 0, 59, 0
4, 47129, Note_on_c, 0, 55, 0
4, 47232, Note_on_c, 0, 47, 77
4, 47232, Note_on_c, 0, 43, 77
4, 47277, Note_on_c, 0, 47, 0
4, 47277, Note_on_c, 0, 43, 0
4, 47280, Note_on_c, 0, 59, 77
4, 47280, Note_on_c, 0, 55, 77
4, 47325, Note_on_c, 0, 59, 0
4, 47325, Note_on_c, 0, 55, 0
4, 47328, Note_on_c, 0, 59, 78
4, 47328, Note_on_c, 0, 55, 78
4, 47373, Note_on_c, 0, 59, 0
4, 47373, Note_on_c, 0, 55, 0
4, 47376, Note_on_c, 0, 59, 79
4, 47376, Note_on_c, 0, 55, 79
4, 47421, Note_on_c, 0, 59, 0
4, 47421, Note_on_c, 0, 55, 0
4, 47424, Note_on_c, 0, 59, 80
4, 47424, Note_on_c, 0, 56, 80
4, 47469, Note_on_c, 0, 59, 0
4, 47469, Note_on_c, 0, 56, 0
4, 47472, Note_on_c, 0, 59, 81
4, 47472, Note_on_c, 0, 56, 81
4, 47517, Note_on_c, 0, 59, 0
4, 47517, Note_on_c, 0, 56, 0
4, 47520, Note_on_c, 0, 59, 82
4, 47520, Note_on_c, 0, 56, 82
4, 47565, Note_on_c, 0, 59, 0
4, 47565, Note_on_c, 0, 56, 0
4, 47568, Note_on_c, 0, 59, 83
4, 47568, Note_on_c, 0, 56, 83
4, 47613, Note_on_c, 0, 59, 0
4, 47613, Note_on_c, 0, 56, 0
4, 47904, Note_on_c, 0, 55, 84
4, 47993, Note_on_c, 0, 55, 0
4, 48000, Note_on_c, 0, 54, 84
4, 48089, Note_on_c, 0, 54, 0
4, 48672, Note_on_c, 0, 55, 84
4, 48761, Note_on_c, 0, 55, 0
4, 48768, Note_on_c, 0, 54, 84
4, 48857, Note_on_c, 0, 54, 0
4, 49152, Note_on_c, 0, 43, 84
4, 49175, Note_on_c, 0, 43, 0
4, 49176, Note_on_c, 0, 55, 84
4, 49199, Note_on_c, 0, 55, 0
4, 49200, Note_on_c, 0, 54, 84
4, 49223, Note_on_c, 0, 54, 0
4, 49224, Note_on_c, 0, 55, 84
4, 49247, Note_on_c, 0, 55, 0
4, 49248, Note_on_c, 0, 54, 84
4, 49271, Note_on_c, 0, 54, 0
4, 49272, Note_on_c, 0, 55, 84
4, 49295, Note_on_c, 0, 55, 0
4, 49296, Note_on_c, 0, 54, 84
4, 49319, Note_on_c, 0, 54, 0
4, 49320, Note_on_c, 0, 55, 84
4, 49343, Note_on_c, 0, 55, 0
4, 49344, Note_on_c, 0, 52, 84
4, 49367, Note_on_c, 0, 52, 0
4, 49368, Note_on_c, 0, 64, 84
4, 49391, Note_on_c, 0, 64, 0
4, 49392, Note_on_c, 0, 63, 84
4, 49415, Note_on_c, 0, 63, 0
4, 49416, Note_on_c, 0, 64, 84
4, 49439, Note_on_c, 0, 64, 0
4, 49440, Note_on_c, 0, 63, 84
4, 49463, Note_on_c, 0, 63, 0
4, 49464, Note_on_c, 0, 64, 84
4, 49487, Note_on_c, 0, 64, 0
4, 49488, Note_on_c, 0, 63, 84
4, 49511, Note_on_c, 0, 63, 0
4, 49512, Note_on_c, 0, 64, 84
4, 49535, Note_on_c, 0, 64, 0
4, 49536, Note_on_c, 0, 57, 84
4, 49559, Note_on_c, 0, 57, 0
4, 49560, Note_on_c, 0, 61, 84
4, 49583, Note_on_c, 0, 61, 0
4, 49584, Note_on_c, 0, 59, 84
4, 49607, Note_on_c, 0, 59, 0
4, 49608, Note_on_c, 0, 61, 84
4, 49631, Note_on_c, 0, 61, 0
4, 49632, Note_on_c, 0, 59, 84
4, 49655, Note_on_c, 0, 59, 0
4, 49656, Note_on_c, 0, 61, 84
4, 49679, Note_on_c, 0, 61, 0
4, 49680, Note_on_c, 0, 59, 84
4, 49703, Note_on_c, 0, 59, 0
4, 49704, Note_on_c, 0, 61, 84
4, 49727, Note_on_c, 0, 61, 0
4, 49728, Note_on_c, 0, 62, 84
4, 49751, Note_on_c, 0, 62, 0
4, 49752, Note_on_c, 0, 66, 84
4, 49775, Note_on_c, 0, 66, 0
4, 49776, Note_on_c, 0, 64, 84
4, 49799, Note_on_c, 0, 64, 0
4, 49800, Note_on_c, 0, 66, 84
4, 49823, Note_on_c, 0, 66, 0
4, 49824, Note_on_c, 0, 64, 84
4, 49847, Note_on_c, 0, 64, 0
4, 49848, Note_on_c, 0, 66, 84
4, 49871, Note_on_c, 0, 66, 0
4, 49872, Note_on_c, 0, 64, 84
4, 49895, Note_on_c, 0, 64, 0
4, 49896, Note_on_c, 0, 66, 84
4, 49919, Note_on_c, 0, 66, 0
4, 49968, Note_on_c, 0, 61, 77
4, 50013, Note_on_c, 0, 61, 0
4, 50016, Note_on_c, 0, 62, 77
4, 50061, Note_on_c, 0, 62, 0
4, 50064, Note_on_c, 0, 66, 77
4, 50109, Note_on_c, 0, 66, 0
4, 50160, Note_on_c, 0, 61, 77
4, 50205, Note_on_c, 0, 61, 0
4, 50208, Note_on_c, 0, 62, 77
4, 50253, Note_on_c, 0, 62, 0
4, 50256, Note_on_c, 0, 66, 77
4, 50301, Note_on_c, 0, 66, 0
4, 50352, Note_on_c, 0, 61, 69
4, 50397, Note_on_c, 0, 61, 0
4, 50400, Note_on_c, 0, 62, 69
4, 50445, Note_on_c, 0, 62, 0
4, 50448, Note_on_c, 0, 65, 69
4, 50493, Note_on_c, 0, 65, 0
4, 50544, Note_on_c, 0, 61, 69
4, 50589, Note_on_c, 0, 61, 0
4, 50592, Note_on_c, 0, 62, 69
4, 50637, Note_on_c, 0, 62, 0
4, 50640, Note_on_c, 0, 65, 69
4, 50685, Note_on_c, 0, 65, 0
4, 50688, Control_c, 0, 64, 127
4, 50688, Note_on_c, 0, 65, 91
4, 50688, Note_on_c, 0, 62, 91
4, 50688, Note_on_c, 0, 58, 91
4, 50777, Note_on_c, 0, 65, 0
4, 50777, Note_on_c, 0, 62, 0
4, 50777, Note_on_c, 0, 58, 0
4, 50904, Note_on_c, 0, 58, 91
4, 50927, Note_on_c, 0, 58, 0
4, 50928, Note_on_c, 0, 62, 91
4, 50951, Note_on_c, 0, 62, 0
4, 50952, Note_on_c, 0, 65, 91
4, 50975, Note_on_c, 0, 65, 0
4, 50976, Note_on_c, 0, 70, 91
4, 51021, Note_on_c, 0, 70, 0
4, 51456, Control_c, 0, 64, 0
4, 51456, Control_c, 0, 64, 127
4, 51456, Note_on_c, 0, 56, 91
4, 51456, Note_on_c, 0, 44, 91
4, 51545, Note_on_c, 0, 56, 0
4, 51545, Note_on_c, 0, 44, 0
4, 51552, Note_on_c, 0, 59, 91
4, 51552, Note_on_c, 0, 47, 91
4, 51597, Note_on_c, 0, 59, 0
4, 51597, Note_on_c, 0, 47, 0
4, 51600, Note_on_c, 0, 56, 91
4, 51600, Note_on_c, 0, 44, 91
4, 51645, Note_on_c, 0, 56, 0
4, 51645, Note_on_c, 0, 44, 0
4, 51648, Note_on_c, 0, 53, 91
4, 51648, Note_on_c, 0, 41, 91
4, 51693, Note_on_c, 0, 53, 0
4, 51693, Note_on_c, 0, 41, 0
4, 51696, Note_on_c, 0, 50, 91
4, 51696, Note_on_c, 0, 38, 91
4, 51741, Note_on_c, 0, 50, 0
4, 51741, Note_on_c, 0, 38, 0
4, 51744, Note_on_c, 0, 47, 91
4, 51744, Note_on_c, 0, 35, 91
4, 51789, Note_on_c, 0, 47, 0
4, 51789, Note_on_c, 0, 35, 0
4, 51792, Note_on_c, 0, 44, 91
4, 51792, Note_on_c, 0, 32, 91
4, 51837, Note_on_c, 0, 44, 0
4, 51837, Note_on_c, 0, 32, 0
4, 51840, Control_c, 0, 64, 0
4, 51840, Note_on_c, 0, 45, 91
4, 51840, Note_on_c, 0, 33, 91
4, 52194, Note_on_c, 0, 45, 0
4, 52194, Note_on_c, 0, 33, 0
4, 52224, Note_on_c, 0, 45, 84
4, 52244, Note_on_c, 0, 45, 0
4, 52272, Note_on_c, 0, 49, 84
4, 52292, Note_on_c, 0, 49, 0
4, 52320, Note_on_c, 0, 52, 84
4, 52340, Note_on_c, 0, 52, 0
4, 52368, Note_on_c, 0, 55, 84
4, 52388, Note_on_c, 0, 55, 0
4, 52416, Note_on_c, 0, 67, 84
4, 52416, Note_on_c, 0, 64, 84
4, 52416, Note_on_c, 0, 61, 84
4, 52416, Note_on_c, 0, 57, 84
4, 52593, Note_on_c, 0, 67, 0
4, 52593, Note_on_c, 0, 64, 0
4, 52593, Note_on_c, 0, 61, 0
4, 52593, Note_on_c, 0, 57, 0
4, 52608, Note_on_c, 0, 66, 84
4, 52608, Note_on_c, 0, 62, 84
4, 52697, Note_on_c, 0, 66, 0
4, 52697, Note_on_c, 0, 62, 0
4, 53088, Note_on_c, 0, 54, 77
4, 53088, Note_on_c, 0, 50, 77
4, 53133, Note_on_c, 0, 54, 0
4, 53133, Note_on_c, 0, 50, 0
4, 53136, Note_on_c, 0, 54, 77
4, 53136, Note_on_c, 0, 50, 77
4, 53181, Note_on_c, 0, 54, 0
4, 53181, Note_on_c, 0, 50, 0
4, 53184, Note_on_c, 0, 55, 77
4, 53184, Note_on_c, 0, 43, 77
4, 53229, Note_on_c, 0, 55, 0
4, 53229, Note_on_c, 0, 43, 0
4, 53280, Note_on_c, 0, 52, 77
4, 53280, Note_on_c, 0, 45, 77
4, 53325, Note_on_c, 0, 52, 0
4, 53325, Note_on_c, 0, 45, 0
4, 53328, Note_on_c, 0, 52, 77
4, 53328, Note_on_c, 0, 45, 77
4, 53373, Note_on_c, 0, 52, 0
4, 53373, Note_on_c, 0, 45, 0
4, 53376, Note_on_c, 0, 50, 77
4, 53376, Note_on_c, 0, 38, 77
4, 53421, Note_on_c, 0, 50, 0
4, 53421, Note_on_c, 0, 38, 0
4, 53472, Note_on_c, 0, 71, 84
4, 53495, Note_on_c, 0, 71, 0
4, 53496, Note_on_c, 0, 73, 84
4, 53519, Note_on_c, 0, 73, 0
4, 53520, Note_on_c, 0, 69, 84
4, 53543, Note_on_c, 0, 69, 0
4, 53544, Note_on_c, 0, 71, 84
4, 53567, Note_on_c, 0, 71, 0
4, 53568, Note_on_c, 0, 67, 84
4, 53588, Note_on_c, 0, 67, 0
4, 53664, Note_on_c, 0, 67, 84
4, 53687, Note_on_c, 0, 67, 0
4, 53688, Note_on_c, 0, 69, 84
4, 53711, Note_on_c, 0, 69, 0
4, 53712, Note_on_c, 0, 66, 84
4, 53735, Note_on_c, 0, 66, 0
4, 53736, Note_on_c, 0, 67, 84
4, 53759, Note_on_c, 0, 67, 0
4, 53760, Note_on_c, 0, 64, 84
4, 53780, Note_on_c, 0, 64, 0
4, 53856, Note_on_c, 0, 66, 77
4, 53856, Note_on_c, 0, 62, 77
4, 53901, Note_on_c, 0, 66, 0
4, 53901, Note_on_c, 0, 62, 0
4, 53904, Note_on_c, 0, 66, 77
4, 53904, Note_on_c, 0, 62, 77
4, 53949, Note_on_c, 0, 66, 0
4, 53949, Note_on_c, 0, 62, 0
4, 53952, Note_on_c, 0, 67, 77
4, 53952, Note_on_c, 0, 55, 77
4, 53997, Note_on_c, 0, 67, 0
4, 53997, Note_on_c, 0, 55, 0
4, 54000, Note_on_c, 0, 67, 77
4, 54000, Note_on_c, 0, 55, 77
4, 54045, Note_on_c, 0, 67, 0
4, 54045, Note_on_c, 0, 55, 0
4, 54048, Note_on_c, 0, 64, 77
4, 54048, Note_on_c, 0, 57, 77
4, 54093, Note_on_c, 0, 64, 0
4, 54093, Note_on_c, 0, 57, 0
4, 54096, Note_on_c, 0, 64, 77
4, 54096, Note_on_c, 0, 57, 77
4, 54141, Note_on_c, 0, 64, 0
4, 54141, Note_on_c, 0, 57, 0
4, 54144, Note_on_c, 0, 66, 84
4, 54144, Note_on_c, 0, 62, 84
4, 54233, Note_on_c, 0, 66, 0
4, 54233, Note_on_c, 0, 62, 0
4, 54288, Note_on_c, 0, 67, 84
4, 54288, Note_on_c, 0, 57, 84
4, 54333, Note_on_c, 0, 67, 0
4, 54333, Note_on_c, 0, 57, 0
4, 54336, Note_on_c, 0, 66, 84
4, 54336, Note_on_c, 0, 62, 84
4, 54425, Note_on_c, 0, 66, 0
4, 54425, Note_on_c, 0, 62, 0
4, 54480, Note_on_c, 0, 67, 84
4, 54480, Note_on_c, 0, 57, 84
4, 54525, Note_on_c, 0, 67, 0
4, 54525, Note_on_c, 0, 57, 0
4, 54528, Note_on_c, 0, 66, 84
4, 54528, Note_on_c, 0, 62, 84
4, 54617, Note_on_c, 0, 66, 0
4, 54617, Note_on_c, 0, 62, 0
4, 54624, Note_on_c, 0, 62, 84
4, 54624, Note_on_c, 0, 50, 84
4, 54713, Note_on_c, 0, 62, 0
4, 54713, Note_on_c, 0, 50, 0
4, 54720, Note_on_c, 0, 50, 84
4, 54720, Note_on_c, 0, 38, 84
4, 54809, Note_on_c, 0, 50, 0
4, 54809, Note_on_c, 0, 38, 0
4, 54912, Note_on_c, 0, 68, 84
4, 54918, Note_on_c, 0, 68, 0
4, 54918, Note_on_c, 0, 69, 84
4, 54957, Note_on_c, 0, 69, 0
4, 54960, Note_on_c, 0, 57, 84
4, 55005, Note_on_c, 0, 57, 0
4, 55008, Note_on_c, 0, 57, 84
4, 55053, Note_on_c, 0, 57, 0
4, 55056, Note_on_c, 0, 57, 84
4, 55101, Note_on_c, 0, 57, 0
4, 55104, Note_on_c, 0, 59, 84
4, 55116, Note_on_c, 0, 59, 0
4, 55116, Note_on_c, 0, 61, 84
4, 55128, Note_on_c, 0, 61, 0
4, 55128, Note_on_c, 0, 59, 84
4, 55149, Note_on_c, 0, 59, 0
4, 55152, Note_on_c, 0, 57, 84
4, 55197, Note_on_c, 0, 57, 0
4, 55200, Note_on_c, 0, 59, 84
4, 55212, Note_on_c, 0, 59, 0
4, 55212, Note_on_c, 0, 61, 84
4, 55224, Note_on_c, 0, 61, 0
4, 55224, Note_on_c, 0, 59, 84
4, 55245, Note_on_c, 0, 59, 0
4, 55248, Note_on_c, 0, 57, 84
4, 55293, Note_on_c, 0, 57, 0
4, 55296, Note_on_c, 0, 69, 84
4, 55341, Note_on_c, 0, 69, 0
4, 55344, Note_on_c, 0, 71, 84
4, 55389, Note_on_c, 0, 71, 0
4, 55392, Note_on_c, 0, 73, 84
4, 55437, Note_on_c, 0, 73, 0
4, 55440, Note_on_c, 0, 74, 84
4, 55485, Note_on_c, 0, 74, 0
4, 55488, Note_on_c, 0, 76, 84
4, 55577, Note_on_c, 0, 76, 0
4, 55632, Note_on_c, 0, 58, 84
4, 55677, Note_on_c, 0, 58, 0
4, 55680, Note_on_c, 0, 59, 84
4, 55725, Note_on_c, 0, 59, 0
4, 55728, Note_on_c, 0, 47, 84
4, 55773, Note_on_c, 0, 47, 0
4, 55776, Note_on_c, 0, 47, 84
4, 55821, Note_on_c, 0, 47, 0
4, 55824, Note_on_c, 0, 47, 84
4, 55869, Note_on_c, 0, 47, 0
4, 55872, Note_on_c, 0, 49, 84
4, 55884, Note_on_c, 0, 49, 0
4, 55884, Note_on_c, 0, 50, 84
4, 55896, Note_on_c, 0, 50, 0
4, 55896, Note_on_c, 0, 49, 84
4, 55917, Note_on_c, 0, 49, 0
4, 55920, Note_on_c, 0, 47, 84
4, 55965, Note_on_c, 0, 47, 0
4, 55968, Note_on_c, 0, 49, 84
4, 55980, Note_on_c, 0, 49, 0
4, 55980, Note_on_c, 0, 50, 84
4, 55992, Note_on_c, 0, 50, 0
4, 55992, Note_on_c, 0, 49, 84
4, 56013, Note_on_c, 0, 49, 0
4, 56016, Note_on_c, 0, 47, 84
4, 56061, Note_on_c, 0, 47, 0
4, 56064, Note_on_c, 0, 59, 84
4, 56109, Note_on_c, 0, 59, 0
4, 56112, Note_on_c, 0, 61, 84
4, 56157, Note_on_c, 0, 61, 0
4, 56160, Note_on_c, 0, 63, 84
4, 56205, Note_on_c, 0, 63, 0
4, 56208, Note_on_c, 0, 64, 84
4, 56253, Note_on_c, 0, 64, 0
4, 56256, Note_on_c, 0, 66, 84
4, 56345, Note_on_c, 0, 66, 0
4, 56400, Note_on_c, 0, 63, 84
4, 56445, Note_on_c, 0, 63, 0
4, 56448, Note_on_c, 0, 64, 84
4, 56493, Note_on_c, 0, 64, 0
4, 56496, Note_on_c, 0, 52, 84
4, 56541, Note_on_c, 0, 52, 0
4, 56544, Note_on_c, 0, 52, 84
4, 56589, Note_on_c, 0, 52, 0
4, 56592, Note_on_c, 0, 52, 84
4, 56637, Note_on_c, 0, 52, 0
4, 56640, Note_on_c, 0, 52, 84
4, 56729, Note_on_c, 0, 52, 0
4, 56784, Note_on_c, 0, 56, 84
4, 56829, Note_on_c, 0, 56, 0
4, 56832, Note_on_c, 0, 57, 84
4, 56877, Note_on_c, 0, 57, 0
4, 56880, Note_on_c, 0, 45, 84
4, 56925, Note_on_c, 0, 45, 0
4, 56928, Note_on_c, 0, 45, 84
4, 56973, Note_on_c, 0, 45, 0
4, 56976, Note_on_c, 0, 45, 84
4, 57021, Note_on_c, 0, 45, 0
4, 57024, Note_on_c, 0, 45, 84
4, 57047, Note_on_c, 0, 45, 0
4, 57048, Note_on_c, 0, 47, 84
4, 57071, Note_on_c, 0, 47, 0
4, 57072, Note_on_c, 0, 45, 84
4, 57095, Note_on_c, 0, 45, 0
4, 57096, Note_on_c, 0, 43, 84
4, 57119, Note_on_c, 0, 43, 0
4, 57120, Note_on_c, 0, 42, 84
4, 57143, Note_on_c, 0, 42, 0
4, 57144, Note_on_c, 0, 40, 84
4, 57167, Note_on_c, 0, 40, 0
4, 57168, Note_on_c, 0, 38, 84
4, 57191, Note_on_c, 0, 38, 0
4, 57192, Note_on_c, 0, 37, 84
4, 57215, Note_on_c, 0, 37, 0
4, 57216, Note_on_c, 0, 38, 84
4, 57239, Note_on_c, 0, 38, 0
4, 57240, Note_on_c, 0, 37, 84
4, 57263, Note_on_c, 0, 37, 0
4, 57264, Note_on_c, 0, 38, 84
4, 57287, Note_on_c, 0, 38, 0
4, 57288, Note_on_c, 0, 40, 84
4, 57311, Note_on_c, 0, 40, 0
4, 57312, Note_on_c, 0, 42, 84
4, 57335, Note_on_c, 0, 42, 0
4, 57336, Note_on_c, 0, 40, 84
4, 57359, Note_on_c, 0, 40, 0
4, 57360, Note_on_c, 0, 42, 84
4, 57383, Note_on_c, 0, 42, 0
4, 57384, Note_on_c, 0, 43, 84
4, 57407, Note_on_c, 0, 43, 0
4, 57408, Note_on_c, 0, 45, 84
4, 57431, Note_on_c, 0, 45, 0
4, 57432, Note_on_c, 0, 44, 84
4, 57455, Note_on_c, 0, 44, 0
4, 57456, Note_on_c, 0, 45, 84
4, 57479, Note_on_c, 0, 45, 0
4, 57480, Note_on_c, 0, 47, 84
4, 57503, Note_on_c, 0, 47, 0
4, 57504, Note_on_c, 0, 49, 84
4, 57527, Note_on_c, 0, 49, 0
4, 57528, Note_on_c, 0, 42, 84
4, 57551, Note_on_c, 0, 42, 0
4, 57552, Note_on_c, 0, 44, 84
4, 57575, Note_on_c, 0, 44, 0
4, 57576, Note_on_c, 0, 46, 84
4, 57599, Note_on_c, 0, 46, 0
4, 57600, Note_on_c, 0, 47, 84
4, 57623, Note_on_c, 0, 47, 0
4, 57624, Note_on_c, 0, 46, 84
4, 57647, Note_on_c, 0, 46, 0
4, 57648, Note_on_c, 0, 47, 84
4, 57671, Note_on_c, 0, 47, 0
4, 57672, Note_on_c, 0, 49, 84
4, 57695, Note_on_c, 0, 49, 0
4, 57696, Note_on_c, 0, 50, 84
4, 57719, Note_on_c, 0, 50, 0
4, 57720, Note_on_c, 0, 49, 84
4, 57743, Note_on_c, 0, 49, 0
4, 57744, Note_on_c, 0, 50, 84
4, 57767, Note_on_c, 0, 50, 0
4, 57768, Note_on_c, 0, 52, 84
4, 57791, Note_on_c, 0, 52, 0
4, 57792, Note_on_c, 0, 54, 84
4, 57815, Note_on_c, 0, 54, 0
4, 57816, Note_on_c, 0, 52, 84
4, 57839, Note_on_c, 0, 52, 0
4, 57840, Note_on_c, 0, 54, 84
4, 57863, Note_on_c, 0, 54, 0
4, 57864, Note_on_c, 0, 55, 84
4, 57887, Note_on_c, 0, 55, 0
4, 57888, Note_on_c, 0, 57, 84
4, 57911, Note_on_c, 0, 57, 0
4, 57912, Note_on_c, 0, 50, 84
4, 57935, Note_on_c, 0, 50, 0
4, 57936, Note_on_c, 0, 52, 84
4, 57959, Note_on_c, 0, 52, 0
4, 57960, Note_on_c, 0, 54, 84
4, 57983, Note_on_c, 0, 54, 0
4, 57984, Note_on_c, 0, 55, 84
4, 58007, Note_on_c, 0, 55, 0
4, 58008, Note_on_c, 0, 54, 84
4, 58031, Note_on_c, 0, 54, 0
4, 58032, Note_on_c, 0, 55, 84
4, 58055, Note_on_c, 0, 55, 0
4, 58056, Note_on_c, 0, 57, 84
4, 58079, Note_on_c, 0, 57, 0
4, 58080, Note_on_c, 0, 59, 84
4, 58103, Note_on_c, 0, 59, 0
4, 58104, Note_on_c, 0, 57, 84
4, 58127, Note_on_c, 0, 57, 0
4, 58128, Note_on_c, 0, 59, 84
4, 58151, Note_on_c, 0, 59, 0
4, 58152, Note_on_c, 0, 61, 84
4, 58175, Note_on_c, 0, 61, 0
4, 58176, Note_on_c, 0, 62, 84
4, 58199, Note_on_c, 0, 62, 0
4, 58200, Note_on_c, 0, 61, 84
4, 58223, Note_on_c, 0, 61, 0
4, 58224, Note_on_c, 0, 62, 84
4, 58247, Note_on_c, 0, 62, 0
4, 58248, Note_on_c, 0, 50, 84
4, 58271, Note_on_c, 0, 50, 0
4, 58272, Note_on_c, 0, 63, 84
4, 58295, Note_on_c, 0, 63, 0
4, 58296, Note_on_c, 0, 61, 84
4, 58319, Note_on_c, 0, 61, 0
4, 58320, Note_on_c, 0, 63, 84
4, 58343, Note_on_c, 0, 63, 0
4, 58344, Note_on_c, 0, 51, 84
4, 58367, Note_on_c, 0, 51, 0
4, 58368, Note_on_c, 0, 64, 84
4, 58391, Note_on_c, 0, 64, 0
4, 58392, Note_on_c, 0, 63, 84
4, 58415, Note_on_c, 0, 63, 0
4, 58416, Note_on_c, 0, 64, 84
4, 58439, Note_on_c, 0, 64, 0
4, 58440, Note_on_c, 0, 52, 84
4, 58463, Note_on_c, 0, 52, 0
4, 58464, Note_on_c, 0, 61, 84
4, 58487, Note_on_c, 0, 61, 0
4, 58488, Note_on_c, 0, 59, 84
4, 58511, Note_on_c, 0, 59, 0
4, 58512, Note_on_c, 0, 61, 84
4, 58535, Note_on_c, 0, 61, 0
4, 58536, Note_on_c, 0, 49, 84
4, 58559, Note_on_c, 0, 49, 0
4, 58560, Note_on_c, 0, 58, 84
4, 58583, Note_on_c, 0, 58, 0
4, 58584, Note_on_c, 0, 56, 84
4, 58607, Note_on_c, 0, 56, 0
4, 58608, Note_on_c, 0, 58, 84
4, 58631, Note_on_c, 0, 58, 0
4, 58632, Note_on_c, 0, 46, 84
4, 58655, Note_on_c, 0, 46, 0
4, 58656, Note_on_c, 0, 59, 84
4, 58679, Note_on_c, 0, 59, 0
4, 58680, Note_on_c, 0, 58, 84
4, 58703, Note_on_c, 0, 58, 0
4, 58704, Note_on_c, 0, 59, 84
4, 58727, Note_on_c, 0, 59, 0
4, 58728, Note_on_c, 0, 47, 84
4, 58751, Note_on_c, 0, 47, 0
4, 58752, Note_on_c, 0, 61, 84
4, 58775, Note_on_c, 0, 61, 0
4, 58776, Note_on_c, 0, 59, 84
4, 58799, Note_on_c, 0, 59, 0
4, 58800, Note_on_c, 0, 61, 84
4, 58823, Note_on_c, 0, 61, 0
4, 58824, Note_on_c, 0, 58, 84
4, 58847, Note_on_c, 0, 58, 0
4, 58848, Note_on_c, 0, 62, 84
4, 58871, Note_on_c, 0, 62, 0
4, 58872, Note_on_c, 0, 61, 84
4, 58895, Note_on_c, 0, 61, 0
4, 58896, Note_on_c, 0, 62, 84
4, 58919, Note_on_c, 0, 62, 0
4, 58920, Note_on_c, 0, 59, 84
4, 58943, Note_on_c, 0, 59, 0
4, 58944, Note_on_c, 0, 64, 84
4, 58967, Note_on_c, 0, 64, 0
4, 58968, Note_on_c, 0, 62, 84
4, 58991, Note_on_c, 0, 62, 0
4, 58992, Note_on_c, 0, 64, 84
4, 59015, Note_on_c, 0, 64, 0
4, 59016, Note_on_c, 0, 61, 84
4, 59039, Note_on_c, 0, 61, 0
4, 59040, Note_on_c, 0, 62, 84
4, 59063, Note_on_c, 0, 62, 0
4, 59064, Note_on_c, 0, 61, 84
4, 59087, Note_on_c, 0, 61, 0
4, 59088, Note_on_c, 0, 62, 84
4, 59111, Note_on_c, 0, 62, 0
4, 59112, Note_on_c, 0, 59, 84
4, 59135, Note_on_c, 0, 59, 0
4, 59136, Note_on_c, 0, 61, 84
4, 59136, Note_on_c, 0, 54, 84
4, 59181, Note_on_c, 0, 61, 0
4, 59181, Note_on_c, 0, 54, 0
4, 59184, Note_on_c, 0, 61, 84
4, 59184, Note_on_c, 0, 54, 84
4, 59229, Note_on_c, 0, 61, 0
4, 59229, Note_on_c, 0, 54, 0
4, 59232, Note_on_c, 0, 62, 84
4, 59232, Note_on_c, 0, 54, 84
4, 59277, Note_on_c, 0, 62, 0
4, 59277, Note_on_c, 0, 54, 0
4, 59280, Note_on_c, 0, 62, 84
4, 59280, Note_on_c, 0, 54, 84
4, 59325, Note_on_c, 0, 62, 0
4, 59325, Note_on_c, 0, 54, 0
4, 59328, Note_on_c, 0, 58, 84
4, 59328, Note_on_c, 0, 54, 84
4, 59373, Note_on_c, 0, 58, 0
4, 59373, Note_on_c, 0, 54, 0
4, 59376, Note_on_c, 0, 58, 84
4, 59376, Note_on_c, 0, 54, 84
4, 59421, Note_on_c, 0, 58, 0
4, 59421, Note_on_c, 0, 54, 0
4, 59424, Note_on_c, 0, 59, 84
4, 59424, Note_on_c, 0, 54, 84
4, 59469, Note_on_c, 0, 59, 0
4, 59469, Note_on_c, 0, 54, 0
4, 59472, Note_on_c, 0, 59, 84
4, 59472, Note_on_c, 0, 54, 84
4, 59517, Note_on_c, 0, 59, 0
4, 59517, Note_on_c, 0, 54, 0
4, 59520, Note_on_c, 0, 61, 84
4, 59520, Note_on_c, 0, 58, 84
4, 59520, Note_on_c, 0, 55, 84
4, 59520, Note_on_c, 0, 52, 84
4, 59697, Note_on_c, 0, 61, 0
4, 59697, Note_on_c, 0, 58, 0
4, 59697, Note_on_c, 0, 55, 0
4, 59697, Note_on_c, 0, 52, 0
4, 59712, Note_on_c, 0, 59, 84
4, 59712, Note_on_c, 0, 54, 84
4, 59712, Note_on_c, 0, 50, 84
4, 59889, Note_on_c, 0, 59, 0
4, 59889, Note_on_c, 0, 54, 0
4, 59889, Note_on_c, 0, 50, 0
4, 59904, Note_on_c, 0, 61, 84
4, 59904, Note_on_c, 0, 58, 84
4, 59904, Note_on_c, 0, 55, 84
4, 59904, Note_on_c, 0, 52, 84
4, 60081, Note_on_c, 0, 61, 0
4, 60081, Note_on_c, 0, 58, 0
4, 60081, Note_on_c, 0, 55, 0
4, 60081, Note_on_c, 0, 52, 0
4, 60096, Note_on_c, 0, 59, 84
4, 60096, Note_on_c, 0, 54, 84
4, 60096, Note_on_c, 0, 50, 84
4, 60273, Note_on_c, 0, 59, 0
4, 60273, Note_on_c, 0, 54, 0
4, 60273, Note_on_c, 0, 50, 0
4, 60288, Control_c, 0, 64, 127
4, 60288, Note_on_c, 0, 60, 84
4, 60288, Note_on_c, 0, 55, 84
4, 60288, Note_on_c, 0, 52, 84
4, 60465, Note_on_c, 0, 60, 0
4, 60465, Note_on_c, 0, 55, 0
4, 60465, Note_on_c, 0, 52, 0
4, 60672, Control_c, 0, 64, 0
4, 60672, Note_on_c, 0, 53, 84
4, 60672, Note_on_c, 0, 41, 84
4, 61041, Note_on_c, 0, 53, 0
4, 61041, Note_on_c, 0, 41, 0
4, 61056, Note_on_c, 0, 54, 84
4, 61056, Note_on_c, 0, 42, 84
4, 61425, Note_on_c, 0, 54, 0
4, 61425, Note_on_c, 0, 42, 0
4, 61632, Note_on_c, 0, 64, 84
4, 61632, Note_on_c, 0, 58, 84
4, 61632, Note_on_c, 0, 54, 84
4, 61809, Note_on_c, 0, 64, 0
4, 61809, Note_on_c, 0, 58, 0
4, 61809, Note_on_c, 0, 54, 0
4, 61824, Note_on_c, 0, 69, 69
4, 61824, Note_on_c, 0, 66, 69
4, 61824, Note_on_c, 0, 59, 69
4, 61869, Note_on_c, 0, 69, 0
4, 61869, Note_on_c, 0, 66, 0
4, 61869, Note_on_c, 0, 59, 0
4, 61872, Note_on_c, 0, 69, 69
4, 61872, Note_on_c, 0, 66, 69
4, 61872, Note_on_c, 0, 59, 69
4, 61917, Note_on_c, 0, 69, 0
4, 61917, Note_on_c, 0, 66, 0
4, 61917, Note_on_c, 0, 59, 0
4, 61920, Note_on_c, 0, 69, 69
4, 61920, Note_on_c, 0, 66, 69
4, 61920, Note_on_c, 0, 59, 69
4, 61965, Note_on_c, 0, 69, 0
4, 61965, Note_on_c, 0, 66, 0
4, 61965, Note_on_c, 0, 59, 0
4, 61968, Note_on_c, 0, 69, 69
4, 61968, Note_on_c, 0, 66, 69
4, 61968, Note_on_c, 0, 59, 69
4, 62013, Note_on_c, 0, 69, 0
4, 62013, Note_on_c, 0, 66, 0
4, 62013, Note_on_c, 0, 59, 0
4, 62016, Note_on_c, 0, 67, 69
4, 62061, Note_on_c, 0, 67, 0
4, 62064, Note_on_c, 0, 66, 69
4, 62109, Note_on_c, 0, 66, 0
4, 62112, Note_on_c, 0, 67, 69
4, 62157, Note_on_c, 0, 67, 0
4, 62160, Note_on_c, 0, 64, 69
4, 62205, Note_on_c, 0, 64, 0
4, 62592, Note_on_c, 0, 62, 84
4, 62592, Note_on_c, 0, 57, 84
4, 62592, Note_on_c, 0, 54, 84
4, 62592, Note_on_c, 0, 50, 84
4, 62681, Note_on_c, 0, 62, 0
4, 62681, Note_on_c, 0, 57, 0
4, 62681, Note_on_c, 0, 54, 0
4, 62681, Note_on_c, 0, 50, 0
4, 62736, Note_on_c, 0, 69, 77
4, 62736, Note_on_c, 0, 66, 77
4, 62781, Note_on_c, 0, 69, 0
4, 62781, Note_on_c, 0, 66, 0
4, 62784, Note_on_c, 0, 71, 77
4, 62784, Note_on_c, 0, 67, 77
4, 62829, Note_on_c, 0, 71, 0
4, 62829, Note_on_c, 0, 67, 0
4, 62832, Note_on_c, 0, 69, 77
4, 62832, Note_on_c, 0, 66, 77
4, 62877, Note_on_c, 0, 69, 0
4, 62877, Note_on_c, 0, 66, 0
4, 62880, Note_on_c, 0, 71, 77
4, 62880, Note_on_c, 0, 67, 77
4, 62925, Note_on_c, 0, 71, 0
4, 62925, Note_on_c, 0, 67, 0
4, 62928, Note_on_c, 0, 69, 77
4, 62928, Note_on_c, 0, 66, 77
4, 62973, Note_on_c, 0, 69, 0
4, 62973, Note_on_c, 0, 66, 0
4, 62976, Note_on_c, 0, 69, 77
4, 62976, Note_on_c, 0, 66, 77
4, 62976, Note_on_c, 0, 62, 77
4, 63065, Note_on_c, 0, 69, 0
4, 63065, Note_on_c, 0, 66, 0
4, 63065, Note_on_c, 0, 62, 0
4, 63120, Note_on_c, 0, 69, 77
4, 63120, Note_on_c, 0, 66, 77
4, 63165, Note_on_c, 0, 69, 0
4, 63165, Note_on_c, 0, 66, 0
4, 63168, Note_on_c, 0, 71, 77
4, 63168, Note_on_c, 0, 67, 77
4, 63213, Note_on_c, 0, 71, 0
4, 63213, Note_on_c, 0, 67, 0
4, 63216, Note_on_c, 0, 69, 77
4, 63216, Note_on_c, 0, 66, 77
4, 63261, Note_on_c, 0, 69, 0
4, 63261, Note_on_c, 0, 66, 0
4, 63264, Note_on_c, 0, 71, 77
4, 63264, Note_on_c, 0, 67, 77
4, 63309, Note_on_c, 0, 71, 0
4, 63309, Note_on_c, 0, 67, 0
4, 63312, Note_on_c, 0, 69, 77
4, 63312, Note_on_c, 0, 66, 77
4, 63357, Note_on_c, 0, 69, 0
4, 63357, Note_on_c, 0, 66, 0
4, 63360, Note_on_c, 0, 71, 77
4, 63380, Note_on_c, 0, 71, 0
4, 63408, Note_on_c, 0, 71, 77
4, 63456, Note_on_c, 0, 71, 0
4, 63456, Note_on_c, 0, 69, 77
4, 63476, Note_on_c, 0, 69, 0
4, 63504, Note_on_c, 0, 69, 77
4, 63552, Note_on_c, 0, 69, 0
4, 63552, Note_on_c, 0, 67, 77
4, 63572, Note_on_c, 0, 67, 0
4, 63600, Note_on_c, 0, 67, 77
4, 63648, Note_on_c, 0, 67, 0
4, 63648, Note_on_c, 0, 66, 77
4, 63668, Note_on_c, 0, 66, 0
4, 63696, Note_on_c, 0, 66, 77
4, 63741, Note_on_c, 0, 66, 0
4, 63744, Note_on_c, 0, 64, 77
4, 63789, Note_on_c, 0, 64, 0
4, 63792, Note_on_c, 0, 61, 77
4, 63837, Note_on_c, 0, 61, 0
4, 63840, Note_on_c, 0, 62, 77
4, 63885, Note_on_c, 0, 62, 0
4, 63888, Note_on_c, 0, 66, 77
4, 63933, Note_on_c, 0, 66, 0
4, 63936, Note_on_c, 0, 69, 77
4, 64025, Note_on_c, 0, 69, 0
4, 64128, Note_on_c, 0, 62, 77
4, 64151, Note_on_c, 0, 62, 0
4, 64152, Note_on_c, 0, 69, 77
4, 64175, Note_on_c, 0, 69, 0
4, 64176, Note_on_c, 0, 66, 77
4, 64199, Note_on_c, 0, 66, 0
4, 64200, Note_on_c, 0, 69, 77
4, 64223, Note_on_c, 0, 69, 0
4, 64224, Note_on_c, 0, 66, 77
4, 64247, Note_on_c, 0, 66, 0
4, 64248, Note_on_c, 0, 69, 77
4, 64271, Note_on_c, 0, 69, 0
4, 64272, Note_on_c, 0, 66, 77
4, 64295, Note_on_c, 0, 66, 0
4, 64296, Note_on_c, 0, 69, 77
4, 64319, Note_on_c, 0, 69, 0
4, 64320, Note_on_c, 0, 67, 77
4, 64343, Note_on_c, 0, 67, 0
4, 64344, Note_on_c, 0, 69, 77
4, 64367, Note_on_c, 0, 69, 0
4, 64368, Note_on_c, 0, 66, 77
4, 64391, Note_on_c, 0, 66, 0
4, 64392, Note_on_c, 0, 69, 77
4, 64415, Note_on_c, 0, 69, 0
4, 64416, Note_on_c, 0, 67, 77
4, 64439, Note_on_c, 0, 67, 0
4, 64440, Note_on_c, 0, 69, 77
4, 64463, Note_on_c, 0, 69, 0
4, 64464, Note_on_c, 0, 66, 77
4, 64487, Note_on_c, 0, 66, 0
4, 64488, Note_on_c, 0, 69, 77
4, 64511, Note_on_c, 0, 69, 0
4, 64512, Note_on_c, 0, 62, 77
4, 64535, Note_on_c, 0, 62, 0
4, 64536, Note_on_c, 0, 69, 77
4, 64559, Note_on_c, 0, 69, 0
4, 64560, Note_on_c, 0, 66, 77
4, 64583, Note_on_c, 0, 66, 0
4, 64584, Note_on_c, 0, 69, 77
4, 64607, Note_on_c, 0, 69, 0
4, 64608, Note_on_c, 0, 66, 77
4, 64631, Note_on_c, 0, 66, 0
4, 64632, Note_on_c, 0, 69, 77
4, 64655, Note_on_c, 0, 69, 0
4, 64656, Note_on_c, 0, 66, 77
4, 64679, Note_on_c, 0, 66, 0
4, 64680, Note_on_c, 0, 69, 77
4, 64703, Note_on_c, 0, 69, 0
4, 64704, Note_on_c, 0, 67, 77
4, 64727, Note_on_c, 0, 67, 0
4, 64728, Note_on_c, 0, 69, 77
4, 64751, Note_on_c, 0, 69, 0
4, 64752, Note_on_c, 0, 66, 77
4, 64775, Note_on_c, 0, 66, 0
4, 64776, Note_on_c, 0, 69, 77
4, 64799, Note_on_c, 0, 69, 0
4, 64800, Note_on_c, 0, 67, 77
4, 64823, Note_on_c, 0, 67, 0
4, 64824, Note_on_c, 0, 69, 77
4, 64847, Note_on_c, 0, 69, 0
4, 64848, Note_on_c, 0, 66, 77
4, 64871, Note_on_c, 0, 66, 0
4, 64872, Note_on_c, 0, 69, 77
4, 64895, Note_on_c, 0, 69, 0
4, 64896, Note_on_c, 0, 64, 77
4, 64919, Note_on_c, 0, 64, 0
4, 64920, Note_on_c, 0, 69, 77
4, 64943, Note_on_c, 0, 69, 0
4, 64944, Note_on_c, 0, 63, 77
4, 64967, Note_on_c, 0, 63, 0
4, 64968, Note_on_c, 0, 69, 77
4, 64991, Note_on_c, 0, 69, 0
4, 64992, Note_on_c, 0, 64, 77
4, 65015, Note_on_c, 0, 64, 0
4, 65016, Note_on_c, 0, 69, 77
4, 65039, Note_on_c, 0, 69, 0
4, 65040, Note_on_c, 0, 61, 77
4, 65063, Note_on_c, 0, 61, 0
4, 65064, Note_on_c, 0, 69, 77
4, 65087, Note_on_c, 0, 69, 0
4, 65088, Note_on_c, 0, 62, 77
4, 65111, Note_on_c, 0, 62, 0
4, 65112, Note_on_c, 0, 69, 77
4, 65135, Note_on_c, 0, 69, 0
4, 65136, Note_on_c, 0, 61, 77
4, 65159, Note_on_c, 0, 61, 0
4, 65160, Note_on_c, 0, 69, 77
4, 65183, Note_on_c, 0, 69, 0
4, 65184, Note_on_c, 0, 62, 77
4, 65207, Note_on_c, 0, 62, 0
4, 65208, Note_on_c, 0, 69, 77
4, 65231, Note_on_c, 0, 69, 0
4, 65232, Note_on_c, 0, 66, 77
4, 65255, Note_on_c, 0, 66, 0
4, 65256, Note_on_c, 0, 69, 77
4, 65279, Note_on_c, 0, 69, 0
4, 65280, Note_on_c, 0, 67, 77
4, 65303, Note_on_c, 0, 67, 0
4, 65304, Note_on_c, 0, 69, 77
4, 65327, Note_on_c, 0, 69, 0
4, 65328, Note_on_c, 0, 66, 77
4, 65351, Note_on_c, 0, 66, 0
4, 65352, Note_on_c, 0, 69, 77
4, 65375, Note_on_c, 0, 69, 0
4, 65376, Note_on_c, 0, 67, 77
4, 65399, Note_on_c, 0, 67, 0
4, 65400, Note_on_c, 0, 69, 77
4, 65423, Note_on_c, 0, 69, 0
4, 65424, Note_on_c, 0, 64, 77
4, 65447, Note_on_c, 0, 64, 0
4, 65448, Note_on_c, 0, 69, 77
4, 65471, Note_on_c, 0, 69, 0
4, 65472, Note_on_c, 0, 66, 77
4, 65495, Note_on_c, 0, 66, 0
4, 65496, Note_on_c, 0, 69, 77
4, 65519, Note_on_c, 0, 69, 0
4, 65520, Note_on_c, 0, 64, 77
4, 65543, Note_on_c, 0, 64, 0
4, 65544, Note_on_c, 0, 69, 77
4, 65567, Note_on_c, 0, 69, 0
4, 65568, Note_on_c, 0, 66, 77
4, 65591, Note_on_c, 0, 66, 0
4, 65592, Note_on_c, 0, 69, 77
4, 65615, Note_on_c, 0, 69, 0
4, 65616, Note_on_c, 0, 62, 77
4, 65639, Note_on_c, 0, 62, 0
4, 65640, Note_on_c, 0, 69, 77
4, 65663, Note_on_c, 0, 69, 0
4, 65664, Note_on_c, 0, 64, 77
4, 65687, Note_on_c, 0, 64, 0
4, 65688, Note_on_c, 0, 69, 77
4, 65711, Note_on_c, 0, 69, 0
4, 65712, Note_on_c, 0, 63, 77
4, 65735, Note_on_c, 0, 63, 0
4, 65736, Note_on_c, 0, 69, 77
4, 65759, Note_on_c, 0, 69, 0
4, 65760, Note_on_c, 0, 64, 77
4, 65783, Note_on_c, 0, 64, 0
4, 65784, Note_on_c, 0, 69, 77
4, 65807, Note_on_c, 0, 69, 0
4, 65808, Note_on_c, 0, 61, 77
4, 65831, Note_on_c, 0, 61, 0
4, 65832, Note_on_c, 0, 69, 77
4, 65855, Note_on_c, 0, 69, 0
4, 65856, Note_on_c, 0, 62, 77
4, 65879, Note_on_c, 0, 62, 0
4, 65880, Note_on_c, 0, 69, 77
4, 65903, Note_on_c, 0, 69, 0
4, 65904, Note_on_c, 0, 61, 77
4, 65927, Note_on_c, 0, 61, 0
4, 65928, Note_on_c, 0, 69, 77
4, 65951, Note_on_c, 0, 69, 0
4, 65952, Note_on_c, 0, 62, 77
4, 65975, Note_on_c, 0, 62, 0
4, 65976, Note_on_c, 0, 69, 77
4, 65999, Note_on_c, 0, 69, 0
4, 66000, Note_on_c, 0, 66, 77
4, 66023, Note_on_c, 0, 66, 0
4, 66024, Note_on_c, 0, 69, 77
4, 66047, Note_on_c, 0, 69, 0
4, 66048, Note_on_c, 0, 67, 77
4, 66071, Note_on_c, 0, 67, 0
4, 66072, Note_on_c, 0, 71, 77
4, 66095, Note_on_c, 0, 71, 0
4, 66096, Note_on_c, 0, 66, 77
4, 66119, Note_on_c, 0, 66, 0
4, 66120, Note_on_c, 0, 69, 78
4, 66143, Note_on_c, 0, 69, 0
4, 66144, Note_on_c, 0, 67, 78
4, 66167, Note_on_c, 0, 67, 0
4, 66168, Note_on_c, 0, 71, 79
4, 66191, Note_on_c, 0, 71, 0
4, 66192, Note_on_c, 0, 66, 79
4, 66215, Note_on_c, 0, 66, 0
4, 66216, Note_on_c, 0, 69, 80
4, 66239, Note_on_c, 0, 69, 0
4, 66240, Note_on_c, 0, 67, 80
4, 66263, Note_on_c, 0, 67, 0
4, 66264, Note_on_c, 0, 71, 80
4, 66287, Note_on_c, 0, 71, 0
4, 66288, Note_on_c, 0, 66, 81
4, 66311, Note_on_c, 0, 66, 0
4, 66312, Note_on_c, 0, 69, 81
4, 66335, Note_on_c, 0, 69, 0
4, 66336, Note_on_c, 0, 67, 82
4, 66359, Note_on_c, 0, 67, 0
4, 66360, Note_on_c, 0, 71, 82
4, 66383, Note_on_c, 0, 71, 0
4, 66384, Note_on_c, 0, 66, 83
4, 66407, Note_on_c, 0, 66, 0
4, 66408, Note_on_c, 0, 69, 83
4, 66431, Note_on_c, 0, 69, 0
4, 66432, Note_on_c, 0, 67, 84
4, 66521, Note_on_c, 0, 67, 0
4, 66720, Note_on_c, 0, 68, 84
4, 66809, Note_on_c, 0, 68, 0
4, 66816, Note_on_c, 0, 57, 84
4, 66905, Note_on_c, 0, 57, 0
4, 67200, Note_on_c, 0, 57, 84
4, 67223, Note_on_c, 0, 57, 0
4, 67224, Note_on_c, 0, 69, 84
4, 67247, Note_on_c, 0, 69, 0
4, 67248, Note_on_c, 0, 68, 84
4, 67271, Note_on_c, 0, 68, 0
4, 67272, Note_on_c, 0, 69, 84
4, 67295, Note_on_c, 0, 69, 0
4, 67296, Note_on_c, 0, 68, 84
4, 67319, Note_on_c, 0, 68, 0
4, 67320, Note_on_c, 0, 69, 84
4, 67343, Note_on_c, 0, 69, 0
4, 67344, Note_on_c, 0, 68, 84
4, 67367, Note_on_c, 0, 68, 0
4, 67368, Note_on_c, 0, 69, 84
4, 67391, Note_on_c, 0, 69, 0
4, 67392, Note_on_c, 0, 57, 84
4, 67415, Note_on_c, 0, 57, 0
4, 67416, Note_on_c, 0, 67, 84
4, 67439, Note_on_c, 0, 67, 0
4, 67440, Note_on_c, 0, 66, 84
4, 67463, Note_on_c, 0, 66, 0
4, 67464, Note_on_c, 0, 67, 84
4, 67487, Note_on_c, 0, 67, 0
4, 67488, Note_on_c, 0, 66, 84
4, 67511, Note_on_c, 0, 66, 0
4, 67512, Note_on_c, 0, 67, 84
4, 67535, Note_on_c, 0, 67, 0
4, 67536, Note_on_c, 0, 66, 84
4, 67559, Note_on_c, 0, 66, 0
4, 67560, Note_on_c, 0, 67, 84
4, 67583, Note_on_c, 0, 67, 0
4, 67584, Note_on_c, 0, 66, 84
4, 67584, Note_on_c, 0, 62, 84
4, 67673, Note_on_c, 0, 66, 0
4, 67673, Note_on_c, 0, 62, 0
4, 67680, Note_on_c, 0, 62, 84
4, 67725, Note_on_c, 0, 62, 0
4, 67728, Note_on_c, 0, 61, 84
4, 67773, Note_on_c, 0, 61, 0
4, 67776, Note_on_c, 0, 62, 84
4, 67821, Note_on_c, 0, 62, 0
4, 67824, Note_on_c, 0, 64, 84
4, 67869, Note_on_c, 0, 64, 0
4, 67872, Note_on_c, 0, 66, 84
4, 67917, Note_on_c, 0, 66, 0
4, 67920, Note_on_c, 0, 64, 84
4, 67965, Note_on_c, 0, 64, 0
4, 67968, Note_on_c, 0, 62, 84
4, 67968, Note_on_c, 0, 50, 84
4, 68057, Note_on_c, 0, 62, 0
4, 68057, Note_on_c, 0, 50, 0
4, 68064, Note_on_c, 0, 62, 84
4, 68109, Note_on_c, 0, 62, 0
4, 68112, Note_on_c, 0, 64, 84
4, 68157, Note_on_c, 0, 64, 0
4, 68160, Note_on_c, 0, 66, 84
4, 68205, Note_on_c, 0, 66, 0
4, 68208, Note_on_c, 0, 67, 84
4, 68253, Note_on_c, 0, 67, 0
4, 68256, Note_on_c, 0, 66, 84
4, 68301, Note_on_c, 0, 66, 0
4, 68304, Note_on_c, 0, 64, 84
4, 68349, Note_on_c, 0, 64, 0
4, 68352, Note_on_c, 0, 62, 84
4, 68397, Note_on_c, 0, 62, 0
4, 68400, Note_on_c, 0, 66, 84
4, 68445, Note_on_c, 0, 66, 0
4, 68448, Note_on_c, 0, 67, 84
4, 68493, Note_on_c, 0, 67, 0
4, 68496, Note_on_c, 0, 71, 84
4, 68541, Note_on_c, 0, 71, 0
4, 68544, Note_on_c, 0, 66, 84
4, 68589, Note_on_c, 0, 66, 0
4, 68592, Note_on_c, 0, 69, 84
4, 68637, Note_on_c, 0, 69, 0
4, 68640, Note_on_c, 0, 64, 84
4, 68685, Note_on_c, 0, 64, 0
4, 68688, Note_on_c, 0, 67, 84
4, 68733, Note_on_c, 0, 67, 0
4, 68736, Note_on_c, 0, 62, 84
4, 68781, Note_on_c, 0, 62, 0
4, 68784, Note_on_c, 0, 66, 84
4, 68829, Note_on_c, 0, 66, 0
4, 68832, Note_on_c, 0, 67, 84
4, 68877, Note_on_c, 0, 67, 0
4, 68880, Note_on_c, 0, 71, 84
4, 68925, Note_on_c, 0, 71, 0
4, 68928, Note_on_c, 0, 66, 84
4, 68973, Note_on_c, 0, 66, 0
4, 68976, Note_on_c, 0, 69, 84
4, 69021, Note_on_c, 0, 69, 0
4, 69024, Note_on_c, 0, 64, 84
4, 69069, Note_on_c, 0, 64, 0
4, 69072, Note_on_c, 0, 67, 84
4, 69117, Note_on_c, 0, 67, 0
4, 69120, Note_on_c, 0, 62, 84
4, 69165, Note_on_c, 0, 62, 0
4, 69168, Note_on_c, 0, 66, 84
4, 69213, Note_on_c, 0, 66, 0
4, 69216, Note_on_c, 0, 62, 85
4, 69261, Note_on_c, 0, 62, 0
4, 69264, Note_on_c, 0, 66, 86
4, 69309, Note_on_c, 0, 66, 0
4, 69312, Note_on_c, 0, 59, 87
4, 69357, Note_on_c, 0, 59, 0
4, 69360, Note_on_c, 0, 62, 88
4, 69405, Note_on_c, 0, 62, 0
4, 69408, Note_on_c, 0, 59, 89
4, 69453, Note_on_c, 0, 59, 0
4, 69456, Note_on_c, 0, 62, 90
4, 69501, Note_on_c, 0, 62, 0
4, 69504, Note_on_c, 0, 57, 91
4, 69593, Note_on_c, 0, 57, 0
4, 69600, Note_on_c, 0, 57, 84
4, 69600, Note_on_c, 0, 45, 84
4, 69667, Note_on_c, 0, 57, 0
4, 69667, Note_on_c, 0, 45, 0
4, 69672, Note_on_c, 0, 57, 84
4, 69672, Note_on_c, 0, 45, 84
4, 69695, Note_on_c, 0, 57, 0
4, 69695, Note_on_c, 0, 45, 0
4, 69696, Note_on_c, 0, 57, 84
4, 69696, Note_on_c, 0, 45, 84
4, 69785, Note_on_c, 0, 57, 0
4, 69785, Note_on_c, 0, 45, 0
4, 69888, Note_on_c, 0, 66, 69
4, 69888, Note_on_c, 0, 62, 69
4, 69933, Note_on_c, 0, 66, 0
4, 69933, Note_on_c, 0, 62, 0
4, 69936, Note_on_c, 0, 66, 69
4, 69936, Note_on_c, 0, 62, 69
4, 69981, Note_on_c, 0, 66, 0
4, 69981, Note_on_c, 0, 62, 0
4, 69984, Note_on_c, 0, 66, 69
4, 69984, Note_on_c, 0, 62, 69
4, 70029, Note_on_c, 0, 66, 0
4, 70029, Note_on_c, 0, 62, 0
4, 70032, Note_on_c, 0, 66, 69
4, 70032, Note_on_c, 0, 62, 69
4, 70077, Note_on_c, 0, 66, 0
4, 70077, Note_on_c, 0, 62, 0
4, 70080, Note_on_c, 0, 67, 69
4, 70080, Note_on_c, 0, 64, 69
4, 70125, Note_on_c, 0, 67, 0
4, 70125, Note_on_c, 0, 64, 0
4, 70128, Note_on_c, 0, 67, 69
4, 70128, Note_on_c, 0, 64, 69
4, 70173, Note_on_c, 0, 67, 0
4, 70173, Note_on_c, 0, 64, 0
4, 70176, Note_on_c, 0, 67, 69
4, 70176, Note_on_c, 0, 64, 69
4, 70221, Note_on_c, 0, 67, 0
4, 70221, Note_on_c, 0, 64, 0
4, 70224, Note_on_c, 0, 67, 69
4, 70224, Note_on_c, 0, 64, 69
4, 70269, Note_on_c, 0, 67, 0
4, 70269, Note_on_c, 0, 64, 0
4, 70272, Note_on_c, 0, 64, 69
4, 70272, Note_on_c, 0, 61, 69
4, 70317, Note_on_c, 0, 64, 0
4, 70317, Note_on_c, 0, 61, 0
4, 70320, Note_on_c, 0, 64, 69
4, 70320, Note_on_c, 0, 61, 69
4, 70365, Note_on_c, 0, 64, 0
4, 70365, Note_on_c, 0, 61, 0
4, 70368, Note_on_c, 0, 64, 69
4, 70368, Note_on_c, 0, 61, 69
4, 70413, Note_on_c, 0, 64, 0
4, 70413, Note_on_c, 0, 61, 0
4, 70416, Note_on_c, 0, 64, 69
4, 70416, Note_on_c, 0, 61, 69
4, 70461, Note_on_c, 0, 64, 0
4, 70461, Note_on_c, 0, 61, 0
4, 70464, Note_on_c, 0, 66, 69
4, 70464, Note_on_c, 0, 62, 69
4, 70509, Note_on_c, 0, 66, 0
4, 70509, Note_on_c, 0, 62, 0
4, 70512, Note_on_c, 0, 66, 69
4, 70512, Note_on_c, 0, 62, 69
4, 70557, Note_on_c, 0, 66, 0
4, 70557, Note_on_c, 0, 62, 0
4, 70560, Note_on_c, 0, 66, 69
4, 70560, Note_on_c, 0, 62, 69
4, 70605, Note_on_c, 0, 66, 0
4, 70605, Note_on_c, 0, 62, 0
4, 70608, Note_on_c, 0, 66, 69
4, 70608, Note_on_c, 0, 62, 69
4, 70653, Note_on_c, 0, 66, 0
4, 70653, Note_on_c, 0, 62, 0
4, 70656, Note_on_c, 0, 59, 69
4, 70656, Note_on_c, 0, 55, 69
4, 70701, Note_on_c, 0, 59, 0
4, 70701, Note_on_c, 0, 55, 0
4, 70704, Note_on_c, 0, 59, 71
4, 70704, Note_on_c, 0, 55, 71
4, 70749, Note_on_c, 0, 59, 0
4, 70749, Note_on_c, 0, 55, 0
4, 70752, Note_on_c, 0, 59, 73
4, 70752, Note_on_c, 0, 55, 73
4, 70797, Note_on_c, 0, 59, 0
4, 70797, Note_on_c, 0, 55, 0
4, 70800, Note_on_c, 0, 59, 75
4, 70800, Note_on_c, 0, 55, 75
4, 70845, Note_on_c, 0, 59, 0
4, 70845, Note_on_c, 0, 55, 0
4, 70848, Note_on_c, 0, 59, 77
4, 70848, Note_on_c, 0, 55, 77
4, 70937, Note_on_c, 0, 59, 0
4, 70937, Note_on_c, 0, 55, 0
4, 71040, Note_on_c, 0, 47, 77
4, 71040, Note_on_c, 0, 43, 77
4, 71085, Note_on_c, 0, 47, 0
4, 71085, Note_on_c, 0, 43, 0
4, 71088, Note_on_c, 0, 59, 77
4, 71088, Note_on_c, 0, 55, 77
4, 71133, Note_on_c, 0, 59, 0
4, 71133, Note_on_c, 0, 55, 0
4, 71136, Note_on_c, 0, 59, 77
4, 71136, Note_on_c, 0, 55, 77
4, 71181, Note_on_c, 0, 59, 0
4, 71181, Note_on_c, 0, 55, 0
4, 71184, Note_on_c, 0, 57, 77
4, 71184, Note_on_c, 0, 54, 77
4, 71229, Note_on_c, 0, 57, 0
4, 71229, Note_on_c, 0, 54, 0
4, 71232, Note_on_c, 0, 59, 77
4, 71232, Note_on_c, 0, 55, 77
4, 71321, Note_on_c, 0, 59, 0
4, 71321, Note_on_c, 0, 55, 0
4, 71424, Note_on_c, 0, 47, 77
4, 71424, Note_on_c, 0, 43, 77
4, 71469, Note_on_c, 0, 47, 0
4, 71469, Note_on_c, 0, 43, 0
4, 71472, Note_on_c, 0, 59, 77
4, 71472, Note_on_c, 0, 55, 77
4, 71517, Note_on_c, 0, 59, 0
4, 71517, Note_on_c, 0, 55, 0
4, 71520, Note_on_c, 0, 59, 78
4, 71520, Note_on_c, 0, 55, 78
4, 71565, Note_on_c, 0, 59, 0
4, 71565, Note_on_c, 0, 55, 0
4, 71568, Note_on_c, 0, 59, 79
4, 71568, Note_on_c, 0, 55, 79
4, 71613, Note_on_c, 0, 59, 0
4, 71613, Note_on_c, 0, 55, 0
4, 71616, Note_on_c, 0, 59, 80
4, 71616, Note_on_c, 0, 56, 80
4, 71661, Note_on_c, 0, 59, 0
4, 71661, Note_on_c, 0, 56, 0
4, 71664, Note_on_c, 0, 59, 81
4, 71664, Note_on_c, 0, 56, 81
4, 71709, Note_on_c, 0, 59, 0
4, 71709, Note_on_c, 0, 56, 0
4, 71712, Note_on_c, 0, 59, 82
4, 71712, Note_on_c, 0, 56, 82
4, 71757, Note_on_c, 0, 59, 0
4, 71757, Note_on_c, 0, 56, 0
4, 71760, Note_on_c, 0, 59, 83
4, 71760, Note_on_c, 0, 56, 83
4, 71805, Note_on_c, 0, 59, 0
4, 71805, Note_on_c, 0, 56, 0
4, 72096, Note_on_c, 0, 55, 84
4, 72185, Note_on_c, 0, 55, 0
4, 72192, Note_on_c, 0, 54, 84
4, 72281, Note_on_c, 0, 54, 0
4, 72864, Note_on_c, 0, 55, 84
4, 72953, Note_on_c, 0, 55, 0
4, 72960, Note_on_c, 0, 54, 84
4, 73049, Note_on_c, 0, 54, 0
4, 73344, Note_on_c, 0, 43, 84
4, 73367, Note_on_c, 0, 43, 0
4, 73368, Note_on_c, 0, 55, 84
4, 73391, Note_on_c, 0, 55, 0
4, 73392, Note_on_c, 0, 54, 84
4, 73415, Note_on_c, 0, 54, 0
4, 73416, Note_on_c, 0, 55, 84
4, 73439, Note_on_c, 0, 55, 0
4, 73440, Note_on_c, 0, 54, 84
4, 73463, Note_on_c, 0, 54, 0
4, 73464, Note_on_c, 0, 55, 84
4, 73487, Note_on_c, 0, 55, 0
4, 73488, Note_on_c, 0, 54, 84
4, 73511, Note_on_c, 0, 54, 0
4, 73512, Note_on_c, 0, 55, 84
4, 73535, Note_on_c, 0, 55, 0
4, 73536, Note_on_c, 0, 52, 84
4, 73559, Note_on_c, 0, 52, 0
4, 73560, Note_on_c, 0, 64, 84
4, 73583, Note_on_c, 0, 64, 0
4, 73584, Note_on_c, 0, 63, 84
4, 73607, Note_on_c, 0, 63, 0
4, 73608, Note_on_c, 0, 64, 84
4, 73631, Note_on_c, 0, 64, 0
4, 73632, Note_on_c, 0, 63, 84
4, 73655, Note_on_c, 0, 63, 0
4, 73656, Note_on_c, 0, 64, 84
4, 73679, Note_on_c, 0, 64, 0
4, 73680, Note_on_c, 0, 63, 84
4, 73703, Note_on_c, 0, 63, 0
4, 73704, Note_on_c, 0, 64, 84
4, 73727, Note_on_c, 0, 64, 0
4, 73728, Note_on_c, 0, 57, 84
4, 73751, Note_on_c, 0, 57, 0
4, 73752, Note_on_c, 0, 61, 84
4, 73775, Note_on_c, 0, 61, 0
4, 73776, Note_on_c, 0, 59, 84
4, 73799, Note_on_c, 0, 59, 0
4, 73800, Note_on_c, 0, 61, 84
4, 73823, Note_on_c, 0, 61, 0
4, 73824, Note_on_c, 0, 59, 84
4, 73847, Note_on_c, 0, 59, 0
4, 73848, Note_on_c, 0, 61, 84
4, 73871, Note_on_c, 0, 61, 0
4, 73872, Note_on_c, 0, 59, 84
4, 73895, Note_on_c, 0, 59, 0
4, 73896, Note_on_c, 0, 61, 84
4, 73919, Note_on_c, 0, 61, 0
4, 73920, Note_on_c, 0, 62, 84
4, 73943, Note_on_c, 0, 62, 0
4, 73944, Note_on_c, 0, 66, 84
4, 73967, Note_on_c, 0, 66, 0
4, 73968, Note_on_c, 0, 64, 84
4, 73991, Note_on_c, 0, 64, 0
4, 73992, Note_on_c, 0, 66, 84
4, 74015, Note_on_c, 0, 66, 0
4, 74016, Note_on_c, 0, 64, 84
4, 74039, Note_on_c, 0, 64, 0
4, 74040, Note_on_c, 0, 66, 84
4, 74063, Note_on_c, 0, 66, 0
4, 74064, Note_on_c, 0, 64, 84
4, 74087, Note_on_c, 0, 64, 0
4, 74088, Note_on_c, 0, 66, 84
4, 74111, Note_on_c, 0, 66, 0
4, 74160, Note_on_c, 0, 61, 77
4, 74205, Note_on_c, 0, 61, 0
4, 74208, Note_on_c, 0, 62, 77
4, 74253, Note_on_c, 0, 62, 0
4, 74256, Note_on_c, 0, 66, 77
4, 74301, Note_on_c, 0, 66, 0
4, 74352, Note_on_c, 0, 61, 77
4, 74397, Note_on_c, 0, 61, 0
4, 74400, Note_on_c, 0, 62, 77
4, 74445, Note_on_c, 0, 62, 0
4, 74448, Note_on_c, 0, 66, 77
4, 74493, Note_on_c, 0, 66, 0
4, 74544, Note_on_c, 0, 61, 69
4, 74589, Note_on_c, 0, 61, 0
4, 74592, Note_on_c, 0, 62, 69
4, 74637, Note_on_c, 0, 62, 0
4, 74640, Note_on_c, 0, 65, 69
4, 74685, Note_on_c, 0, 65, 0
4, 74736, Note_on_c, 0, 61, 69
4, 74781, Note_on_c, 0, 61, 0
4, 74784, Note_on_c, 0, 62, 69
4, 74829, Note_on_c, 0, 62, 0
4, 74832, Note_on_c, 0, 65, 69
4, 74877, Note_on_c, 0, 65, 0
4, 74880, Control_c, 0, 64, 127
4, 74880, Note_on_c, 0, 65, 91
4, 74880, Note_on_c, 0, 62, 91
4, 74880, Note_on_c, 0, 58, 91
4, 74969, Note_on_c, 0, 65, 0
4, 74969, Note_on_c, 0, 62, 0
4, 74969, Note_on_c, 0, 58, 0
4, 75096, Note_on_c, 0, 58, 91
4, 75119, Note_on_c, 0, 58, 0
4, 75120, Note_on_c, 0, 62, 91
4, 75143, Note_on_c, 0, 62, 0
4, 75144, Note_on_c, 0, 65, 91
4, 75167, Note_on_c, 0, 65, 0
4, 75168, Note_on_c, 0, 70, 91
4, 75213, Note_on_c, 0, 70, 0
4, 75648, Control_c, 0, 64, 0
4, 75648, Control_c, 0, 64, 127
4, 75648, Note_on_c, 0, 56, 91
4, 75648, Note_on_c, 0, 44, 91
4, 75737, Note_on_c, 0, 56, 0
4, 75737, Note_on_c, 0, 44, 0
4, 75744, Note_on_c, 0, 59, 91
4, 75744, Note_on_c, 0, 47, 91
4, 75789, Note_on_c, 0, 59, 0
4, 75789, Note_on_c, 0, 47, 0
4, 75792, Note_on_c, 0, 56, 91
4, 75792, Note_on_c, 0, 44, 91
4, 75837, Note_on_c, 0, 56, 0
4, 75837, Note_on_c, 0, 44, 0
4, 75840, Note_on_c, 0, 53, 91
4, 75840, Note_on_c, 0, 41, 91
4, 75885, Note_on_c, 0, 53, 0
4, 75885, Note_on_c, 0, 41, 0
4, 75888, Note_on_c, 0, 50, 91
4, 75888, Note_on_c, 0, 38, 91
4, 75933, Note_on_c, 0, 50, 0
4, 75933, Note_on_c, 0, 38, 0
4, 75936, Note_on_c, 0, 47, 91
4, 75936, Note_on_c, 0, 35, 91
4, 75981, Note_on_c, 0, 47, 0
4, 75981, Note_on_c, 0, 35, 0
4, 75984, Note_on_c, 0, 44, 91
4, 75984, Note_on_c, 0, 32, 91
4, 76029, Note_on_c, 0, 44, 0
4, 76029, Note_on_c, 0, 32, 0
4, 76032, Control_c, 0, 64, 0
4, 76032, Note_on_c, 0, 45, 91
4, 76032, Note_on_c, 0, 33, 91
4, 76386, Note_on_c, 0, 45, 0
4, 76386, Note_on_c, 0, 33, 0
4, 76416, Note_on_c, 0, 45, 84
4, 76436, Note_on_c, 0, 45, 0
4, 76464, Note_on_c, 0, 49, 84
4, 76484, Note_on_c, 0, 49, 0
4, 76512, Note_on_c, 0, 52, 84
4, 76532, Note_on_c, 0, 52, 0
4, 76560, Note_on_c, 0, 55, 84
4, 76580, Note_on_c, 0, 55, 0
4, 76608, Note_on_c, 0, 67, 84
4, 76608, Note_on_c, 0, 64, 84
4, 76608, Note_on_c, 0, 61, 84
4, 76608, Note_on_c, 0, 57, 84
4, 76785, Note_on_c, 0, 67, 0
4, 76785, Note_on_c, 0, 64, 0
4, 76785, Note_on_c, 0, 61, 0
4, 76785, Note_on_c, 0, 57, 0
4, 76800, Note_on_c, 0, 66, 84
4, 76800, Note_on_c, 0, 62, 84
4, 76889, Note_on_c, 0, 66, 0
4, 76889, Note_on_c, 0, 62, 0
4, 77280, Note_on_c, 0, 54, 77
4, 77280, Note_on_c, 0, 50, 77
4, 77325, Note_on_c, 0, 54, 0
4, 77325, Note_on_c, 0, 50, 0
4, 77328, Note_on_c, 0, 54, 77
4, 77328, Note_on_c, 0, 50, 77
4, 77373, Note_on_c, 0, 54, 0
4, 77373, Note_on_c, 0, 50, 0
4, 77376, Note_on_c, 0, 55, 77
4, 77376, Note_on_c, 0, 43, 77
4, 77421, Note_on_c, 0, 55, 0
4, 77421, Note_on_c, 0, 43, 0
4, 77472, Note_on_c, 0, 52, 77
4, 77472, Note_on_c, 0, 45, 77
4, 77517, Note_on_c, 0, 52, 0
4, 77517, Note_on_c, 0, 45, 0
4, 77520, Note_on_c, 0, 52, 77
4, 77520, Note_on_c, 0, 45, 77
4, 77565, Note_on_c, 0, 52, 0
4, 77565, Note_on_c, 0, 45, 0
4, 77568, Note_on_c, 0, 50, 77
4, 77568, Note_on_c, 0, 38, 77
4, 77613, Note_on_c, 0, 50, 0
4, 77613, Note_on_c, 0, 38, 0
4, 77664, Note_on_c, 0, 71, 84
4, 77687, Note_on_c, 0, 71, 0
4, 77688, Note_on_c, 0, 73, 84
4, 77711, Note_on_c, 0, 73, 0
4, 77712, Note_on_c, 0, 69, 84
4, 77735, Note_on_c, 0, 69, 0
4, 77736, Note_on_c, 0, 71, 84
4, 77759, Note_on_c, 0, 71, 0
4, 77760, Note_on_c, 0, 67, 84
4, 77780, Note_on_c, 0, 67, 0
4, 77856, Note_on_c, 0, 67, 84
4, 77879, Note_on_c, 0, 67, 0
4, 77880, Note_on_c, 0, 69, 84
4, 77903, Note_on_c, 0, 69, 0
4, 77904, Note_on_c, 0, 66, 84
4, 77927, Note_on_c, 0, 66, 0
4, 77928, Note_on_c, 0, 67, 84
4, 77951, Note_on_c, 0, 67, 0
4, 77952, Note_on_c, 0, 64, 84
4, 77972, Note_on_c, 0, 64, 0
4, 78048, Note_on_c, 0, 66, 77
4, 78048, Note_on_c, 0, 62, 77
4, 78093, Note_on_c, 0, 66, 0
4, 78093, Note_on_c, 0, 62, 0
4, 78096, Note_on_c, 0, 66, 77
4, 78096, Note_on_c, 0, 62, 77
4, 78141, Note_on_c, 0, 66, 0
4, 78141, Note_on_c, 0, 62, 0
4, 78144, Note_on_c, 0, 67, 77
4, 78144, Note_on_c, 0, 55, 77
4, 78189, Note_on_c, 0, 67, 0
4, 78189, Note_on_c, 0, 55, 0
4, 78192, Note_on_c, 0, 67, 77
4, 78192, Note_on_c, 0, 55, 77
4, 78237, Note_on_c, 0, 67, 0
4, 78237, Note_on_c, 0, 55, 0
4, 78240, Note_on_c, 0, 64, 77
4, 78240, Note_on_c, 0, 57, 77
4, 78285, Note_on_c, 0, 64, 0
4, 78285, Note_on_c, 0, 57, 0
4, 78288, Note_on_c, 0, 64, 77
4, 78288, Note_on_c, 0, 57, 77
4, 78333, Note_on_c, 0, 64, 0
4, 78333, Note_on_c, 0, 57, 0
4, 78336, Note_on_c, 0, 66, 84
4, 78336, Note_on_c, 0, 62, 84
4, 78425, Note_on_c, 0, 66, 0
4, 78425, Note_on_c, 0, 62, 0
4, 78480, Note_on_c, 0, 67, 84
4, 78480, Note_on_c, 0, 57, 84
4, 78525, Note_on_c, 0, 67, 0
4, 78525, Note_on_c, 0, 57, 0
4, 78528, Note_on_c, 0, 66, 84
4, 78528, Note_on_c, 0, 62, 84
4, 78617, Note_on_c, 0, 66, 0
4, 78617, Note_on_c, 0, 62, 0
4, 78672, Note_on_c, 0, 67, 84
4, 78672, Note_on_c, 0, 57, 84
4, 78717, Note_on_c, 0, 67, 0
4, 78717, Note_on_c, 0, 57, 0
4, 78720, Note_on_c, 0, 66, 84
4, 78720, Note_on_c, 0, 62, 84
4, 78809, Note_on_c, 0, 66, 0
4, 78809, Note_on_c, 0, 62, 0
4, 78816, Note_on_c, 0, 62, 84
4, 78816, Note_on_c, 0, 50, 84
4, 78905, Note_on_c, 0, 62, 0
4, 78905, Note_on_c, 0, 50, 0
4, 78912, Note_on_c, 0, 50, 84
4, 78912, Note_on_c, 0, 38, 84
4, 79001, Note_on_c, 0, 50, 0
4, 79001, Note_on_c, 0, 38, 0
4, 79104, Note_on_c, 0, 50, 0
4, 79104, Note_on_c, 0, 38, 0
4, 79193, Note_on_c, 0, 50, 0
4, 79193, Note_on_c, 0, 38, 0
4, 79200, End_track
5, 0, Start_track
5, 0, Program_c, 0, 0
5, 0, Control_c, 0, 7, 127
5, 0, Control_c, 0, 10, 64
5, 8064, Note_on_c, 0, 52, 84
5, 8087, Note_on_c, 0, 52, 0
5, 8088, Note_on_c, 0, 56, 84
5, 8111, Note_on_c, 0, 56, 0
5, 8112, Note_on_c, 0, 54, 84
5, 8135, Note_on_c, 0, 54, 0
5, 8136, Note_on_c, 0, 57, 84
5, 8159, Note_on_c, 0, 57, 0
5, 8160, Note_on_c, 0, 56, 84
5, 8183, Note_on_c, 0, 56, 0
5, 8184, Note_on_c, 0, 59, 84
5, 8207, Note_on_c, 0, 59, 0
5, 8208, Note_on_c, 0, 57, 84
5, 8231, Note_on_c, 0, 57, 0
5, 8232, Note_on_c, 0, 61, 84
5, 8255, Note_on_c, 0, 61, 0
5, 8256, Note_on_c, 0, 59, 84
5, 8433, Note_on_c, 0, 59, 0
5, 8448, Note_on_c, 0, 61, 84
5, 8537, Note_on_c, 0, 61, 0
5, 8832, Note_on_c, 0, 52, 84
5, 8855, Note_on_c, 0, 52, 0
5, 8856, Note_on_c, 0, 56, 84
5, 8879, Note_on_c, 0, 56, 0
5, 8880, Note_on_c, 0, 54, 84
5, 8903, Note_on_c, 0, 54, 0
5, 8904, Note_on_c, 0, 57, 84
5, 8927, Note_on_c, 0, 57, 0
5, 8928, Note_on_c, 0, 56, 84
5, 8951, Note_on_c, 0, 56, 0
5, 8952, Note_on_c, 0, 59, 84
5, 8975, Note_on_c, 0, 59, 0
5, 8976, Note_on_c, 0, 57, 84
5, 8999, Note_on_c, 0, 57, 0
5, 9000, Note_on_c, 0, 61, 84
5, 9023, Note_on_c, 0, 61, 0
5, 9024, Note_on_c, 0, 59, 84
5, 9201, Note_on_c, 0, 59, 0
5, 9216, Note_on_c, 0, 61, 84
5, 9305, Note_on_c, 0, 61, 0
5, 10368, Note_on_c, 0, 64, 77
5, 10545, Note_on_c, 0, 64, 0
5, 10560, Note_on_c, 0, 64, 77
5, 10737, Note_on_c, 0, 64, 0
5, 10752, Note_on_c, 0, 64, 69
5, 10929, Note_on_c, 0, 64, 0
5, 10944, Note_on_c, 0, 64, 69
5, 11121, Note_on_c, 0, 64, 0
5, 23424, Note_on_c, 0, 52, 84
5, 23447, Note_on_c, 0, 52, 0
5, 23448, Note_on_c, 0, 56, 84
5, 23471, Note_on_c, 0, 56, 0
5, 23472, Note_on_c, 0, 54, 84
5, 23495, Note_on_c, 0, 54, 0
5, 23496, Note_on_c, 0, 57, 84
5, 23519, Note_on_c, 0, 57, 0
5, 23520, Note_on_c, 0, 56, 84
5, 23543, Note_on_c, 0, 56, 0
5, 23544, Note_on_c, 0, 59, 84
5, 23567, Note_on_c, 0, 59, 0
5, 23568, Note_on_c, 0, 57, 84
5, 23591, Note_on_c, 0, 57, 0
5, 23592, Note_on_c, 0, 61, 84
5, 23615, Note_on_c, 0, 61, 0
5, 23616, Note_on_c, 0, 59, 84
5, 23793, Note_on_c, 0, 59, 0
5, 23808, Note_on_c, 0, 61, 84
5, 23897, Note_on_c, 0, 61, 0
5, 24192, Note_on_c, 0, 52, 84
5, 24215, Note_on_c, 0, 52, 0
5, 24216, Note_on_c, 0, 56, 84
5, 24239, Note_on_c, 0, 56, 0
5, 24240, Note_on_c, 0, 54, 84
5, 24263, Note_on_c, 0, 54, 0
5, 24264, Note_on_c, 0, 57, 84
5, 24287, Note_on_c, 0, 57, 0
5, 24288, Note_on_c, 0, 56, 84
5, 24311, Note_on_c, 0, 56, 0
5, 24312, Note_on_c, 0, 59, 84
5, 24335, Note_on_c, 0, 59, 0
5, 24336, Note_on_c, 0, 57, 84
5, 24359, Note_on_c, 0, 57, 0
5, 24360, Note_on_c, 0, 61, 84
5, 24383, Note_on_c, 0, 61, 0
5, 24384, Note_on_c, 0, 59, 84
5, 24561, Note_on_c, 0, 59, 0
5, 24576, Note_on_c, 0, 61, 84
5, 24665, Note_on_c, 0, 61, 0
5, 25728, Note_on_c, 0, 64, 77
5, 25905, Note_on_c, 0, 64, 0
5, 25920, Note_on_c, 0, 64, 77
5, 26097, Note_on_c, 0, 64, 0
5, 26112, Note_on_c, 0, 64, 69
5, 26289, Note_on_c, 0, 64, 0
5, 26304, Note_on_c, 0, 64, 69
5, 26481, Note_on_c, 0, 64, 0
5, 34560, Note_on_c, 0, 54, 69
5, 34649, Note_on_c, 0, 54, 0
5, 34656, Note_on_c, 0, 50, 69
5, 34745, Note_on_c, 0, 50, 0
5, 34752, Note_on_c, 0, 46, 69
5, 34841, Note_on_c, 0, 46, 0
5, 34848, Note_on_c, 0, 47, 69
5, 34937, Note_on_c, 0, 47, 0
5, 37824, Note_on_c, 0, 59, 69
5, 38001, Note_on_c, 0, 59, 0
5, 38016, Note_on_c, 0, 67, 69
5, 38016, Note_on_c, 0, 64, 69
5, 38016, Note_on_c, 0, 57, 69
5, 38061, Note_on_c, 0, 67, 0
5, 38061, Note_on_c, 0, 64, 0
5, 38061, Note_on_c, 0, 57, 0
5, 38064, Note_on_c, 0, 67, 69
5, 38064, Note_on_c, 0, 64, 69
5, 38064, Note_on_c, 0, 57, 69
5, 38109, Note_on_c, 0, 67, 0
5, 38109, Note_on_c, 0, 64, 0
5, 38109, Note_on_c, 0, 57, 0
5, 38112, Note_on_c, 0, 67, 69
5, 38112, Note_on_c, 0, 64, 69
5, 38112, Note_on_c, 0, 57, 69
5, 38157, Note_on_c, 0, 67, 0
5, 38157, Note_on_c, 0, 64, 0
5, 38157, Note_on_c, 0, 57, 0
5, 38160, Note_on_c, 0, 67, 69
5, 38160, Note_on_c, 0, 64, 69
5, 38160, Note_on_c, 0, 57, 69
5, 38205, Note_on_c, 0, 67, 0
5, 38205, Note_on_c, 0, 64, 0
5, 38205, Note_on_c, 0, 57, 0
5, 38208, Note_on_c, 0, 67, 69
5, 38208, Note_on_c, 0, 64, 69
5, 38208, Note_on_c, 0, 57, 69
5, 38385, Note_on_c, 0, 67, 0
5, 38385, Note_on_c, 0, 64, 0
5, 38385, Note_on_c, 0, 57, 0
5, 47616, Note_on_c, 0, 45, 84
5, 47639, Note_on_c, 0, 45, 0
5, 47640, Note_on_c, 0, 49, 84
5, 47663, Note_on_c, 0, 49, 0
5, 47664, Note_on_c, 0, 47, 84
5, 47687, Note_on_c, 0, 47, 0
5, 47688, Note_on_c, 0, 50, 84
5, 47711, Note_on_c, 0, 50, 0
5, 47712, Note_on_c, 0, 49, 84
5, 47735, Note_on_c, 0, 49, 0
5, 47736, Note_on_c, 0, 52, 84
5, 47759, Note_on_c, 0, 52, 0
5, 47760, Note_on_c, 0, 50, 84
5, 47783, Note_on_c, 0, 50, 0
5, 47784, Note_on_c, 0, 54, 84
5, 47807, Note_on_c, 0, 54, 0
5, 47808, Note_on_c, 0, 52, 84
5, 47985, Note_on_c, 0, 52, 0
5, 48000, Note_on_c, 0, 54, 84
5, 48089, Note_on_c, 0, 54, 0
5, 48384, Note_on_c, 0, 45, 84
5, 48407, Note_on_c, 0, 45, 0
5, 48408, Note_on_c, 0, 49, 84
5, 48431, Note_on_c, 0, 49, 0
5, 48432, Note_on_c, 0, 47, 84
5, 48455, Note_on_c, 0, 47, 0
5, 48456, Note_on_c, 0, 50, 84
5, 48479, Note_on_c, 0, 50, 0
5, 48480, Note_on_c, 0, 49, 84
5, 48503, Note_on_c, 0, 49, 0
5, 48504, Note_on_c, 0, 52, 84
5, 48527, Note_on_c, 0, 52, 0
5, 48528, Note_on_c, 0, 50, 84
5, 48551, Note_on_c, 0, 50, 0
5, 48552, Note_on_c, 0, 54, 84
5, 48575, Note_on_c, 0, 54, 0
5, 48576, Note_on_c, 0, 52, 84
5, 48753, Note_on_c, 0, 52, 0
5, 48768, Note_on_c, 0, 54, 84
5, 48857, Note_on_c, 0, 54, 0
5, 49920, Note_on_c, 0, 57, 77
5, 50097, Note_on_c, 0, 57, 0
5, 50112, Note_on_c, 0, 57, 77
5, 50289, Note_on_c, 0, 57, 0
5, 50304, Note_on_c, 0, 57, 69
5, 50481, Note_on_c, 0, 57, 0
5, 50496, Note_on_c, 0, 57, 69
5, 50673, Note_on_c, 0, 57, 0
5, 58752, Note_on_c, 0, 54, 69
5, 58841, Note_on_c, 0, 54, 0
5, 58848, Note_on_c, 0, 50, 69
5, 58937, Note_on_c, 0, 50, 0
5, 58944, Note_on_c, 0, 46, 69
5, 59033, Note_on_c, 0, 46, 0
5, 59040, Note_on_c, 0, 47, 69
5, 59129, Note_on_c, 0, 47, 0
5, 62016, Note_on_c, 0, 59, 69
5, 62193, Note_on_c, 0, 59, 0
5, 62208, Note_on_c, 0, 67, 69
5, 62208, Note_on_c, 0, 64, 69
5, 62208, Note_on_c, 0, 57, 69
5, 62253, Note_on_c, 0, 67, 0
5, 62253, Note_on_c, 0, 64, 0
5, 62253, Note_on_c, 0, 57, 0
5, 62256, Note_on_c, 0, 67, 69
5, 62256, Note_on_c, 0, 64, 69
5, 62256, Note_on_c, 0, 57, 69
5, 62301, Note_on_c, 0, 67, 0
5, 62301, Note_on_c, 0, 64, 0
5, 62301, Note_on_c, 0, 57, 0
5, 62304, Note_on_c, 0, 67, 69
5, 62304, Note_on_c, 0, 64, 69
5, 62304, Note_on_c, 0, 57, 69
5, 62349, Note_on_c, 0, 67, 0
5, 62349, Note_on_c, 0, 64, 0
5, 62349, Note_on_c, 0, 57, 0
5, 62352, Note_on_c, 0, 67, 69
5, 62352, Note_on_c, 0, 64, 69
5, 62352, Note_on_c, 0, 57, 69
5, 62397, Note_on_c, 0, 67, 0
5, 62397, Note_on_c, 0, 64, 0
5, 62397, Note_on_c, 0, 57, 0
5, 62400, Note_on_c, 0, 67, 69
5, 62400, Note_on_c, 0, 64, 69
5, 62400, Note_on_c, 0, 57, 69
5, 62577, Note_on_c, 0, 67, 0
5, 62577, Note_on_c, 0, 64, 0
5, 62577, Note_on_c, 0, 57, 0
5, 71808, Note_on_c, 0, 45, 84
5, 71831, Note_on_c, 0, 45, 0
5, 71832, Note_on_c, 0, 49, 84
5, 71855, Note_on_c, 0, 49, 0
5, 71856, Note_on_c, 0, 47, 84
5, 71879, Note_on_c, 0, 47, 0
5, 71880, Note_on_c, 0, 50, 84
5, 71903, Note_on_c, 0, 50, 0
5, 71904, Note_on_c, 0, 49, 84
5, 71927, Note_on_c, 0, 49, 0
5, 71928, Note_on_c, 0, 52, 84
5, 71951, Note_on_c, 0, 52, 0
5, 71952, Note_on_c, 0, 50, 84
5, 71975, Note_on_c, 0, 50, 0
5, 71976, Note_on_c, 0, 54, 84
5, 71999, Note_on_c, 0, 54, 0
5, 72000, Note_on_c, 0, 52, 84
5, 72177, Note_on_c, 0, 52, 0
5, 72192, Note_on_c, 0, 54, 84
5, 72281, Note_on_c, 0, 54, 0
5, 72576, Note_on_c, 0, 45, 84
5, 72599, Note_on_c, 0, 45, 0
5, 72600, Note_on_c, 0, 49, 84
5, 72623, Note_on_c, 0, 49, 0
5, 72624, Note_on_c, 0, 47, 84
5, 72647, Note_on_c, 0, 47, 0
5, 72648, Note_on_c, 0, 50, 84
5, 72671, Note_on_c, 0, 50, 0
5, 72672, Note_on_c, 0, 49, 84
5, 72695, Note_on_c, 0, 49, 0
5, 72696, Note_on_c, 0, 52, 84
5, 72719, Note_on_c, 0, 52, 0
5, 72720, Note_on_c, 0, 50, 84
5, 72743, Note_on_c, 0, 50, 0
5, 72744, Note_on_c, 0, 54, 84
5, 72767, Note_on_c, 0, 54, 0
5, 72768, Note_on_c, 0, 52, 84
5, 72945, Note_on_c, 0, 52, 0
5, 72960, Note_on_c, 0, 54, 84
5, 73049, Note_on_c, 0, 54, 0
5, 74112, Note_on_c, 0, 57, 77
5, 74289, Note_on_c, 0, 57, 0
5, 74304, Note_on_c, 0, 57, 77
5, 74481, Note_on_c, 0, 57, 0
5, 74496, Note_on_c, 0, 57, 69
5, 74673, Note_on_c, 0, 57, 0
5, 74688, Note_on_c, 0, 57, 69
5, 74865, Note_on_c, 0, 57, 0
5, 79104, End_track
6, 0, Start_track
6, 0, Title_t, "<No Title>"
6, 0, End_track
0, 0, End_of_file
