0, 0, Header, 1, 6, 96
1, 0, Start_track
1, 0, Copyright_t, "Copyright  2000 <copyright holder>"
1, 0, Text_t, "Sonata I\015\012"
1, 0, Text_t, "Haydn\015\012"
1, 0, Sequencer_specific, 16, 68, 87, 77, 90, 86, 82, 83, 78, 32, 55, 46, 49, 46, 50, 46, 48
1, 0, Time_signature, 3, 2, 24, 8
1, 0, Tempo, 1000000
1, 0, Key_signature, -1, "major"
1, 20016, Tempo, 3000000
1, 20064, Key_signature, 2, "major"
1, 20064, Tempo, 500000
1, 22368, Key_signature, 2, "major"
1, 22368, Tempo, 500000
1, 29280, Key_signature, -1, "major"
1, 31584, Key_signature, -1, "major"
1, 38496, Key_signature, 2, "major"
1, 40800, Key_signature, 2, "major"
1, 47712, Key_signature, -1, "major"
1, 50016, Key_signature, -1, "major"
1, 56928, Key_signature, 2, "major"
1, 66240, End_track
2, 0, Start_track
2, 0, Program_c, 0, 0
2, 0, Control_c, 0, 7, 127
2, 0, Control_c, 0, 10, 64
2, 0, Note_on_c, 0, 81, 80
2, 72, Note_on_c, 0, 81, 0
2, 72, Note_on_c, 0, 77, 64
2, 84, Note_on_c, 0, 77, 0
2, 84, Note_on_c, 0, 74, 64
2, 96, Note_on_c, 0, 74, 0
2, 96, Note_on_c, 0, 73, 64
2, 116, Note_on_c, 0, 73, 0
2, 288, Note_on_c, 0, 82, 80
2, 360, Note_on_c, 0, 82, 0
2, 360, Note_on_c, 0, 79, 64
2, 372, Note_on_c, 0, 79, 0
2, 372, Note_on_c, 0, 76, 64
2, 384, Note_on_c, 0, 76, 0
2, 384, Note_on_c, 0, 74, 64
2, 404, Note_on_c, 0, 74, 0
2, 456, Note_on_c, 0, 85, 64
2, 480, Note_on_c, 0, 85, 0
2, 480, Note_on_c, 0, 86, 64
2, 500, Note_on_c, 0, 86, 0
2, 552, Note_on_c, 0, 81, 64
2, 576, Note_on_c, 0, 81, 0
2, 576, Note_on_c, 0, 82, 64
2, 596, Note_on_c, 0, 82, 0
2, 648, Note_on_c, 0, 74, 64
2, 672, Note_on_c, 0, 74, 0
2, 672, Note_on_c, 0, 73, 64
2, 692, Note_on_c, 0, 73, 0
2, 744, Note_on_c, 0, 76, 64
2, 768, Note_on_c, 0, 76, 0
2, 768, Note_on_c, 0, 81, 64
2, 788, Note_on_c, 0, 81, 0
2, 840, Note_on_c, 0, 79, 64
2, 863, Note_on_c, 0, 79, 0
2, 864, Note_on_c, 0, 79, 80
2, 912, Note_on_c, 0, 79, 0
2, 912, Note_on_c, 0, 77, 64
2, 919, Note_on_c, 0, 77, 0
2, 919, Note_on_c, 0, 79, 64
2, 926, Note_on_c, 0, 79, 0
2, 926, Note_on_c, 0, 77, 64
2, 933, Note_on_c, 0, 77, 0
2, 933, Note_on_c, 0, 79, 64
2, 940, Note_on_c, 0, 79, 0
2, 940, Note_on_c, 0, 77, 64
2, 947, Note_on_c, 0, 77, 0
2, 947, Note_on_c, 0, 76, 64
2, 954, Note_on_c, 0, 76, 0
2, 954, Note_on_c, 0, 77, 64
2, 960, Note_on_c, 0, 77, 0
2, 960, Note_on_c, 0, 76, 64
2, 1005, Note_on_c, 0, 76, 0
2, 1152, Note_on_c, 0, 69, 80
2, 1200, Note_on_c, 0, 69, 0
2, 1200, Note_on_c, 0, 67, 64
2, 1212, Note_on_c, 0, 67, 0
2, 1212, Note_on_c, 0, 65, 64
2, 1224, Note_on_c, 0, 65, 0
2, 1224, Note_on_c, 0, 64, 64
2, 1236, Note_on_c, 0, 64, 0
2, 1236, Note_on_c, 0, 62, 64
2, 1248, Note_on_c, 0, 62, 0
2, 1248, Note_on_c, 0, 61, 64
2, 1268, Note_on_c, 0, 61, 0
2, 1344, Note_on_c, 0, 55, 64
2, 1351, Note_on_c, 0, 55, 0
2, 1360, Note_on_c, 0, 58, 64
2, 1367, Note_on_c, 0, 58, 0
2, 1376, Note_on_c, 0, 61, 64
2, 1383, Note_on_c, 0, 61, 0
2, 1392, Note_on_c, 0, 64, 64
2, 1399, Note_on_c, 0, 64, 0
2, 1408, Note_on_c, 0, 67, 64
2, 1415, Note_on_c, 0, 67, 0
2, 1424, Note_on_c, 0, 69, 64
2, 1431, Note_on_c, 0, 69, 0
2, 1440, Note_on_c, 0, 70, 80
2, 1488, Note_on_c, 0, 70, 0
2, 1488, Note_on_c, 0, 69, 64
2, 1500, Note_on_c, 0, 69, 0
2, 1500, Note_on_c, 0, 67, 64
2, 1512, Note_on_c, 0, 67, 0
2, 1512, Note_on_c, 0, 65, 64
2, 1524, Note_on_c, 0, 65, 0
2, 1524, Note_on_c, 0, 64, 64
2, 1536, Note_on_c, 0, 64, 0
2, 1536, Note_on_c, 0, 62, 64
2, 1556, Note_on_c, 0, 62, 0
2, 1608, Note_on_c, 0, 73, 64
2, 1631, Note_on_c, 0, 73, 0
2, 1632, Note_on_c, 0, 76, 64
2, 1638, Note_on_c, 0, 76, 0
2, 1638, Note_on_c, 0, 74, 64
2, 1644, Note_on_c, 0, 74, 0
2, 1644, Note_on_c, 0, 73, 64
2, 1650, Note_on_c, 0, 73, 0
2, 1650, Note_on_c, 0, 74, 80
2, 1680, Note_on_c, 0, 74, 0
2, 1704, Note_on_c, 0, 76, 64
2, 1727, Note_on_c, 0, 76, 0
2, 1728, Note_on_c, 0, 79, 64
2, 1734, Note_on_c, 0, 79, 0
2, 1734, Note_on_c, 0, 77, 64
2, 1740, Note_on_c, 0, 77, 0
2, 1740, Note_on_c, 0, 76, 64
2, 1746, Note_on_c, 0, 76, 0
2, 1746, Note_on_c, 0, 77, 80
2, 1776, Note_on_c, 0, 77, 0
2, 1800, Note_on_c, 0, 85, 64
2, 1824, Note_on_c, 0, 85, 0
2, 1824, Note_on_c, 0, 86, 64
2, 1844, Note_on_c, 0, 86, 0
2, 1896, Note_on_c, 0, 88, 64
2, 1920, Note_on_c, 0, 88, 0
2, 1920, Note_on_c, 0, 89, 64
2, 1940, Note_on_c, 0, 89, 0
2, 1992, Note_on_c, 0, 56, 64
2, 2015, Note_on_c, 0, 56, 0
2, 2016, Note_on_c, 0, 56, 64
2, 2105, Note_on_c, 0, 56, 0
2, 2112, Note_on_c, 0, 58, 64
2, 2118, Note_on_c, 0, 58, 0
2, 2118, Note_on_c, 0, 57, 64
2, 2124, Note_on_c, 0, 57, 0
2, 2124, Note_on_c, 0, 56, 64
2, 2130, Note_on_c, 0, 56, 0
2, 2130, Note_on_c, 0, 57, 64
2, 2201, Note_on_c, 0, 57, 0
2, 2320, Note_on_c, 0, 84, 72
2, 2335, Note_on_c, 0, 84, 0
2, 2336, Note_on_c, 0, 79, 72
2, 2351, Note_on_c, 0, 79, 0
2, 2352, Note_on_c, 0, 81, 72
2, 2367, Note_on_c, 0, 81, 0
2, 2368, Note_on_c, 0, 84, 72
2, 2383, Note_on_c, 0, 84, 0
2, 2384, Note_on_c, 0, 76, 72
2, 2399, Note_on_c, 0, 76, 0
2, 2400, Note_on_c, 0, 77, 72
2, 2415, Note_on_c, 0, 77, 0
2, 2416, Note_on_c, 0, 81, 72
2, 2431, Note_on_c, 0, 81, 0
2, 2432, Note_on_c, 0, 77, 72
2, 2447, Note_on_c, 0, 77, 0
2, 2448, Note_on_c, 0, 76, 72
2, 2463, Note_on_c, 0, 76, 0
2, 2464, Note_on_c, 0, 74, 72
2, 2479, Note_on_c, 0, 74, 0
2, 2480, Note_on_c, 0, 72, 72
2, 2495, Note_on_c, 0, 72, 0
2, 2496, Note_on_c, 0, 70, 72
2, 2511, Note_on_c, 0, 70, 0
2, 2512, Note_on_c, 0, 69, 72
2, 2527, Note_on_c, 0, 69, 0
2, 2528, Note_on_c, 0, 67, 72
2, 2543, Note_on_c, 0, 67, 0
2, 2544, Note_on_c, 0, 65, 72
2, 2559, Note_on_c, 0, 65, 0
2, 2560, Note_on_c, 0, 64, 72
2, 2575, Note_on_c, 0, 64, 0
2, 2576, Note_on_c, 0, 62, 72
2, 2591, Note_on_c, 0, 62, 0
2, 2592, Note_on_c, 0, 60, 72
2, 2769, Note_on_c, 0, 60, 0
2, 2784, Note_on_c, 0, 64, 72
2, 2790, Note_on_c, 0, 64, 0
2, 2790, Note_on_c, 0, 62, 72
2, 2856, Note_on_c, 0, 62, 0
2, 2856, Note_on_c, 0, 60, 72
2, 2879, Note_on_c, 0, 60, 0
2, 2880, Note_on_c, 0, 60, 88
2, 2896, Note_on_c, 0, 60, 0
2, 2896, Note_on_c, 0, 84, 72
2, 2911, Note_on_c, 0, 84, 0
2, 2912, Note_on_c, 0, 79, 72
2, 2927, Note_on_c, 0, 79, 0
2, 2928, Note_on_c, 0, 81, 72
2, 2943, Note_on_c, 0, 81, 0
2, 2944, Note_on_c, 0, 84, 72
2, 2959, Note_on_c, 0, 84, 0
2, 2960, Note_on_c, 0, 76, 72
2, 2975, Note_on_c, 0, 76, 0
2, 2976, Note_on_c, 0, 77, 72
2, 2991, Note_on_c, 0, 77, 0
2, 2992, Note_on_c, 0, 81, 72
2, 3007, Note_on_c, 0, 81, 0
2, 3008, Note_on_c, 0, 77, 72
2, 3023, Note_on_c, 0, 77, 0
2, 3024, Note_on_c, 0, 76, 72
2, 3039, Note_on_c, 0, 76, 0
2, 3040, Note_on_c, 0, 74, 72
2, 3055, Note_on_c, 0, 74, 0
2, 3056, Note_on_c, 0, 72, 72
2, 3071, Note_on_c, 0, 72, 0
2, 3072, Note_on_c, 0, 70, 72
2, 3087, Note_on_c, 0, 70, 0
2, 3088, Note_on_c, 0, 69, 72
2, 3103, Note_on_c, 0, 69, 0
2, 3104, Note_on_c, 0, 67, 72
2, 3119, Note_on_c, 0, 67, 0
2, 3120, Note_on_c, 0, 65, 72
2, 3135, Note_on_c, 0, 65, 0
2, 3136, Note_on_c, 0, 64, 72
2, 3151, Note_on_c, 0, 64, 0
2, 3152, Note_on_c, 0, 62, 72
2, 3167, Note_on_c, 0, 62, 0
2, 3168, Note_on_c, 0, 60, 72
2, 3345, Note_on_c, 0, 60, 0
2, 3360, Note_on_c, 0, 63, 72
2, 3366, Note_on_c, 0, 63, 0
2, 3366, Note_on_c, 0, 62, 72
2, 3427, Note_on_c, 0, 62, 0
2, 3432, Note_on_c, 0, 60, 72
2, 3455, Note_on_c, 0, 60, 0
2, 3456, Note_on_c, 0, 65, 72
2, 3523, Note_on_c, 0, 65, 0
2, 3528, Note_on_c, 0, 62, 72
2, 3551, Note_on_c, 0, 62, 0
2, 3552, Note_on_c, 0, 58, 72
2, 3663, Note_on_c, 0, 58, 0
2, 3664, Note_on_c, 0, 62, 72
2, 3671, Note_on_c, 0, 62, 0
2, 3680, Note_on_c, 0, 64, 72
2, 3687, Note_on_c, 0, 64, 0
2, 3696, Note_on_c, 0, 65, 72
2, 3703, Note_on_c, 0, 65, 0
2, 3712, Note_on_c, 0, 67, 72
2, 3719, Note_on_c, 0, 67, 0
2, 3728, Note_on_c, 0, 69, 72
2, 3735, Note_on_c, 0, 69, 0
2, 3744, Note_on_c, 0, 70, 72
2, 3907, Note_on_c, 0, 70, 0
2, 3912, Note_on_c, 0, 72, 72
2, 3924, Note_on_c, 0, 72, 0
2, 3924, Note_on_c, 0, 70, 72
2, 3936, Note_on_c, 0, 70, 0
2, 3936, Note_on_c, 0, 69, 72
2, 4025, Note_on_c, 0, 69, 0
2, 4032, Note_on_c, 0, 74, 72
2, 4121, Note_on_c, 0, 74, 0
2, 4128, Note_on_c, 0, 79, 76
2, 4217, Note_on_c, 0, 79, 0
2, 4224, Note_on_c, 0, 77, 80
2, 4313, Note_on_c, 0, 77, 0
2, 4320, Note_on_c, 0, 77, 80
2, 4343, Note_on_c, 0, 77, 0
2, 4344, Note_on_c, 0, 76, 79
2, 4367, Note_on_c, 0, 76, 0
2, 4368, Note_on_c, 0, 74, 78
2, 4391, Note_on_c, 0, 74, 0
2, 4392, Note_on_c, 0, 72, 77
2, 4415, Note_on_c, 0, 72, 0
2, 4416, Note_on_c, 0, 70, 76
2, 4505, Note_on_c, 0, 70, 0
2, 4512, Note_on_c, 0, 69, 72
2, 4601, Note_on_c, 0, 69, 0
2, 4624, Note_on_c, 0, 67, 72
2, 4639, Note_on_c, 0, 67, 0
2, 4640, Note_on_c, 0, 70, 72
2, 4655, Note_on_c, 0, 70, 0
2, 4656, Note_on_c, 0, 74, 72
2, 4671, Note_on_c, 0, 74, 0
2, 4672, Note_on_c, 0, 70, 72
2, 4687, Note_on_c, 0, 70, 0
2, 4688, Note_on_c, 0, 67, 72
2, 4703, Note_on_c, 0, 67, 0
2, 4704, Note_on_c, 0, 65, 72
2, 4837, Note_on_c, 0, 65, 0
2, 4848, Note_on_c, 0, 69, 72
2, 4872, Note_on_c, 0, 69, 0
2, 4872, Note_on_c, 0, 67, 72
2, 4893, Note_on_c, 0, 67, 0
2, 4896, Note_on_c, 0, 69, 72
2, 4911, Note_on_c, 0, 69, 0
2, 4912, Note_on_c, 0, 72, 72
2, 4927, Note_on_c, 0, 72, 0
2, 4928, Note_on_c, 0, 70, 73
2, 4943, Note_on_c, 0, 70, 0
2, 4944, Note_on_c, 0, 69, 73
2, 4959, Note_on_c, 0, 69, 0
2, 4960, Note_on_c, 0, 77, 74
2, 4975, Note_on_c, 0, 77, 0
2, 4976, Note_on_c, 0, 76, 75
2, 4991, Note_on_c, 0, 76, 0
2, 4992, Note_on_c, 0, 74, 75
2, 5007, Note_on_c, 0, 74, 0
2, 5008, Note_on_c, 0, 82, 76
2, 5023, Note_on_c, 0, 82, 0
2, 5024, Note_on_c, 0, 81, 76
2, 5039, Note_on_c, 0, 81, 0
2, 5040, Note_on_c, 0, 79, 77
2, 5055, Note_on_c, 0, 79, 0
2, 5056, Note_on_c, 0, 86, 80
2, 5071, Note_on_c, 0, 86, 0
2, 5072, Note_on_c, 0, 84, 78
2, 5087, Note_on_c, 0, 84, 0
2, 5088, Note_on_c, 0, 82, 76
2, 5103, Note_on_c, 0, 82, 0
2, 5104, Note_on_c, 0, 81, 75
2, 5119, Note_on_c, 0, 81, 0
2, 5120, Note_on_c, 0, 79, 73
2, 5135, Note_on_c, 0, 79, 0
2, 5136, Note_on_c, 0, 77, 72
2, 5151, Note_on_c, 0, 77, 0
2, 5152, Note_on_c, 0, 76, 70
2, 5167, Note_on_c, 0, 76, 0
2, 5168, Note_on_c, 0, 74, 69
2, 5183, Note_on_c, 0, 74, 0
2, 5184, Note_on_c, 0, 72, 79
2, 5280, Note_on_c, 0, 72, 0
2, 5280, Note_on_c, 0, 72, 63
2, 5287, Note_on_c, 0, 72, 0
2, 5287, Note_on_c, 0, 70, 63
2, 5294, Note_on_c, 0, 70, 0
2, 5294, Note_on_c, 0, 72, 63
2, 5301, Note_on_c, 0, 72, 0
2, 5301, Note_on_c, 0, 70, 63
2, 5308, Note_on_c, 0, 70, 0
2, 5308, Note_on_c, 0, 72, 63
2, 5315, Note_on_c, 0, 72, 0
2, 5315, Note_on_c, 0, 70, 63
2, 5322, Note_on_c, 0, 70, 0
2, 5322, Note_on_c, 0, 72, 63
2, 5329, Note_on_c, 0, 72, 0
2, 5329, Note_on_c, 0, 70, 63
2, 5336, Note_on_c, 0, 70, 0
2, 5336, Note_on_c, 0, 72, 63
2, 5343, Note_on_c, 0, 72, 0
2, 5343, Note_on_c, 0, 70, 63
2, 5350, Note_on_c, 0, 70, 0
2, 5350, Note_on_c, 0, 72, 63
2, 5357, Note_on_c, 0, 72, 0
2, 5357, Note_on_c, 0, 70, 63
2, 5364, Note_on_c, 0, 70, 0
2, 5364, Note_on_c, 0, 69, 63
2, 5370, Note_on_c, 0, 69, 0
2, 5370, Note_on_c, 0, 70, 63
2, 5376, Note_on_c, 0, 70, 0
2, 5376, Note_on_c, 0, 69, 63
2, 5465, Note_on_c, 0, 69, 0
2, 5472, Note_on_c, 0, 66, 63
2, 5488, Note_on_c, 0, 66, 0
2, 5488, Note_on_c, 0, 67, 64
2, 5503, Note_on_c, 0, 67, 0
2, 5504, Note_on_c, 0, 70, 65
2, 5519, Note_on_c, 0, 70, 0
2, 5520, Note_on_c, 0, 74, 66
2, 5535, Note_on_c, 0, 74, 0
2, 5536, Note_on_c, 0, 79, 67
2, 5551, Note_on_c, 0, 79, 0
2, 5552, Note_on_c, 0, 82, 68
2, 5567, Note_on_c, 0, 82, 0
2, 5568, Note_on_c, 0, 86, 69
2, 5583, Note_on_c, 0, 86, 0
2, 5584, Note_on_c, 0, 84, 70
2, 5599, Note_on_c, 0, 84, 0
2, 5600, Note_on_c, 0, 82, 72
2, 5615, Note_on_c, 0, 82, 0
2, 5616, Note_on_c, 0, 81, 70
2, 5631, Note_on_c, 0, 81, 0
2, 5632, Note_on_c, 0, 79, 69
2, 5647, Note_on_c, 0, 79, 0
2, 5648, Note_on_c, 0, 77, 68
2, 5663, Note_on_c, 0, 77, 0
2, 5664, Note_on_c, 0, 77, 88
2, 5680, Note_on_c, 0, 77, 0
2, 5680, Note_on_c, 0, 76, 71
2, 5695, Note_on_c, 0, 76, 0
2, 5696, Note_on_c, 0, 79, 70
2, 5711, Note_on_c, 0, 79, 0
2, 5712, Note_on_c, 0, 82, 69
2, 5727, Note_on_c, 0, 82, 0
2, 5728, Note_on_c, 0, 79, 69
2, 5743, Note_on_c, 0, 79, 0
2, 5744, Note_on_c, 0, 76, 68
2, 5759, Note_on_c, 0, 76, 0
2, 5760, Note_on_c, 0, 76, 67
2, 5856, Note_on_c, 0, 76, 0
2, 5856, Note_on_c, 0, 77, 67
2, 5895, Note_on_c, 0, 77, 0
2, 6048, Note_on_c, 0, 81, 80
2, 6120, Note_on_c, 0, 81, 0
2, 6120, Note_on_c, 0, 77, 64
2, 6132, Note_on_c, 0, 77, 0
2, 6132, Note_on_c, 0, 74, 64
2, 6144, Note_on_c, 0, 74, 0
2, 6144, Note_on_c, 0, 73, 64
2, 6164, Note_on_c, 0, 73, 0
2, 6336, Note_on_c, 0, 82, 80
2, 6408, Note_on_c, 0, 82, 0
2, 6408, Note_on_c, 0, 79, 64
2, 6420, Note_on_c, 0, 79, 0
2, 6420, Note_on_c, 0, 76, 64
2, 6432, Note_on_c, 0, 76, 0
2, 6432, Note_on_c, 0, 74, 64
2, 6452, Note_on_c, 0, 74, 0
2, 6504, Note_on_c, 0, 85, 64
2, 6528, Note_on_c, 0, 85, 0
2, 6528, Note_on_c, 0, 86, 64
2, 6548, Note_on_c, 0, 86, 0
2, 6600, Note_on_c, 0, 81, 64
2, 6624, Note_on_c, 0, 81, 0
2, 6624, Note_on_c, 0, 82, 64
2, 6644, Note_on_c, 0, 82, 0
2, 6696, Note_on_c, 0, 74, 64
2, 6720, Note_on_c, 0, 74, 0
2, 6720, Note_on_c, 0, 73, 64
2, 6740, Note_on_c, 0, 73, 0
2, 6792, Note_on_c, 0, 76, 64
2, 6816, Note_on_c, 0, 76, 0
2, 6816, Note_on_c, 0, 81, 64
2, 6836, Note_on_c, 0, 81, 0
2, 6888, Note_on_c, 0, 79, 64
2, 6911, Note_on_c, 0, 79, 0
2, 6912, Note_on_c, 0, 79, 80
2, 6960, Note_on_c, 0, 79, 0
2, 6960, Note_on_c, 0, 77, 64
2, 6967, Note_on_c, 0, 77, 0
2, 6967, Note_on_c, 0, 79, 64
2, 6974, Note_on_c, 0, 79, 0
2, 6974, Note_on_c, 0, 77, 64
2, 6981, Note_on_c, 0, 77, 0
2, 6981, Note_on_c, 0, 79, 64
2, 6988, Note_on_c, 0, 79, 0
2, 6988, Note_on_c, 0, 77, 64
2, 6995, Note_on_c, 0, 77, 0
2, 6995, Note_on_c, 0, 76, 64
2, 7002, Note_on_c, 0, 76, 0
2, 7002, Note_on_c, 0, 77, 64
2, 7008, Note_on_c, 0, 77, 0
2, 7008, Note_on_c, 0, 76, 64
2, 7053, Note_on_c, 0, 76, 0
2, 7200, Note_on_c, 0, 69, 80
2, 7248, Note_on_c, 0, 69, 0
2, 7248, Note_on_c, 0, 67, 64
2, 7260, Note_on_c, 0, 67, 0
2, 7260, Note_on_c, 0, 65, 64
2, 7272, Note_on_c, 0, 65, 0
2, 7272, Note_on_c, 0, 64, 64
2, 7284, Note_on_c, 0, 64, 0
2, 7284, Note_on_c, 0, 62, 64
2, 7296, Note_on_c, 0, 62, 0
2, 7296, Note_on_c, 0, 61, 64
2, 7316, Note_on_c, 0, 61, 0
2, 7392, Note_on_c, 0, 55, 64
2, 7399, Note_on_c, 0, 55, 0
2, 7408, Note_on_c, 0, 58, 64
2, 7415, Note_on_c, 0, 58, 0
2, 7424, Note_on_c, 0, 61, 64
2, 7431, Note_on_c, 0, 61, 0
2, 7440, Note_on_c, 0, 64, 64
2, 7447, Note_on_c, 0, 64, 0
2, 7456, Note_on_c, 0, 67, 64
2, 7463, Note_on_c, 0, 67, 0
2, 7472, Note_on_c, 0, 69, 64
2, 7479, Note_on_c, 0, 69, 0
2, 7488, Note_on_c, 0, 70, 80
2, 7536, Note_on_c, 0, 70, 0
2, 7536, Note_on_c, 0, 69, 64
2, 7548, Note_on_c, 0, 69, 0
2, 7548, Note_on_c, 0, 67, 64
2, 7560, Note_on_c, 0, 67, 0
2, 7560, Note_on_c, 0, 65, 64
2, 7572, Note_on_c, 0, 65, 0
2, 7572, Note_on_c, 0, 64, 64
2, 7584, Note_on_c, 0, 64, 0
2, 7584, Note_on_c, 0, 62, 64
2, 7604, Note_on_c, 0, 62, 0
2, 7656, Note_on_c, 0, 73, 64
2, 7679, Note_on_c, 0, 73, 0
2, 7680, Note_on_c, 0, 76, 64
2, 7686, Note_on_c, 0, 76, 0
2, 7686, Note_on_c, 0, 74, 64
2, 7692, Note_on_c, 0, 74, 0
2, 7692, Note_on_c, 0, 73, 64
2, 7698, Note_on_c, 0, 73, 0
2, 7698, Note_on_c, 0, 74, 80
2, 7728, Note_on_c, 0, 74, 0
2, 7752, Note_on_c, 0, 76, 64
2, 7775, Note_on_c, 0, 76, 0
2, 7776, Note_on_c, 0, 79, 64
2, 7782, Note_on_c, 0, 79, 0
2, 7782, Note_on_c, 0, 77, 64
2, 7788, Note_on_c, 0, 77, 0
2, 7788, Note_on_c, 0, 76, 64
2, 7794, Note_on_c, 0, 76, 0
2, 7794, Note_on_c, 0, 77, 80
2, 7824, Note_on_c, 0, 77, 0
2, 7848, Note_on_c, 0, 85, 64
2, 7872, Note_on_c, 0, 85, 0
2, 7872, Note_on_c, 0, 86, 64
2, 7892, Note_on_c, 0, 86, 0
2, 7944, Note_on_c, 0, 88, 64
2, 7968, Note_on_c, 0, 88, 0
2, 7968, Note_on_c, 0, 89, 64
2, 7988, Note_on_c, 0, 89, 0
2, 8040, Note_on_c, 0, 56, 64
2, 8063, Note_on_c, 0, 56, 0
2, 8064, Note_on_c, 0, 56, 64
2, 8153, Note_on_c, 0, 56, 0
2, 8160, Note_on_c, 0, 58, 64
2, 8166, Note_on_c, 0, 58, 0
2, 8166, Note_on_c, 0, 57, 64
2, 8172, Note_on_c, 0, 57, 0
2, 8172, Note_on_c, 0, 56, 64
2, 8178, Note_on_c, 0, 56, 0
2, 8178, Note_on_c, 0, 57, 64
2, 8249, Note_on_c, 0, 57, 0
2, 8368, Note_on_c, 0, 84, 72
2, 8383, Note_on_c, 0, 84, 0
2, 8384, Note_on_c, 0, 79, 72
2, 8399, Note_on_c, 0, 79, 0
2, 8400, Note_on_c, 0, 81, 72
2, 8415, Note_on_c, 0, 81, 0
2, 8416, Note_on_c, 0, 84, 72
2, 8431, Note_on_c, 0, 84, 0
2, 8432, Note_on_c, 0, 76, 72
2, 8447, Note_on_c, 0, 76, 0
2, 8448, Note_on_c, 0, 77, 72
2, 8463, Note_on_c, 0, 77, 0
2, 8464, Note_on_c, 0, 81, 72
2, 8479, Note_on_c, 0, 81, 0
2, 8480, Note_on_c, 0, 77, 72
2, 8495, Note_on_c, 0, 77, 0
2, 8496, Note_on_c, 0, 76, 72
2, 8511, Note_on_c, 0, 76, 0
2, 8512, Note_on_c, 0, 74, 72
2, 8527, Note_on_c, 0, 74, 0
2, 8528, Note_on_c, 0, 72, 72
2, 8543, Note_on_c, 0, 72, 0
2, 8544, Note_on_c, 0, 70, 72
2, 8559, Note_on_c, 0, 70, 0
2, 8560, Note_on_c, 0, 69, 72
2, 8575, Note_on_c, 0, 69, 0
2, 8576, Note_on_c, 0, 67, 72
2, 8591, Note_on_c, 0, 67, 0
2, 8592, Note_on_c, 0, 65, 72
2, 8607, Note_on_c, 0, 65, 0
2, 8608, Note_on_c, 0, 64, 72
2, 8623, Note_on_c, 0, 64, 0
2, 8624, Note_on_c, 0, 62, 72
2, 8639, Note_on_c, 0, 62, 0
2, 8640, Note_on_c, 0, 60, 72
2, 8817, Note_on_c, 0, 60, 0
2, 8832, Note_on_c, 0, 64, 72
2, 8838, Note_on_c, 0, 64, 0
2, 8838, Note_on_c, 0, 62, 72
2, 8904, Note_on_c, 0, 62, 0
2, 8904, Note_on_c, 0, 60, 72
2, 8927, Note_on_c, 0, 60, 0
2, 8928, Note_on_c, 0, 60, 88
2, 8944, Note_on_c, 0, 60, 0
2, 8944, Note_on_c, 0, 84, 72
2, 8959, Note_on_c, 0, 84, 0
2, 8960, Note_on_c, 0, 79, 72
2, 8975, Note_on_c, 0, 79, 0
2, 8976, Note_on_c, 0, 81, 72
2, 8991, Note_on_c, 0, 81, 0
2, 8992, Note_on_c, 0, 84, 72
2, 9007, Note_on_c, 0, 84, 0
2, 9008, Note_on_c, 0, 76, 72
2, 9023, Note_on_c, 0, 76, 0
2, 9024, Note_on_c, 0, 77, 72
2, 9039, Note_on_c, 0, 77, 0
2, 9040, Note_on_c, 0, 81, 72
2, 9055, Note_on_c, 0, 81, 0
2, 9056, Note_on_c, 0, 77, 72
2, 9071, Note_on_c, 0, 77, 0
2, 9072, Note_on_c, 0, 76, 72
2, 9087, Note_on_c, 0, 76, 0
2, 9088, Note_on_c, 0, 74, 72
2, 9103, Note_on_c, 0, 74, 0
2, 9104, Note_on_c, 0, 72, 72
2, 9119, Note_on_c, 0, 72, 0
2, 9120, Note_on_c, 0, 70, 72
2, 9135, Note_on_c, 0, 70, 0
2, 9136, Note_on_c, 0, 69, 72
2, 9151, Note_on_c, 0, 69, 0
2, 9152, Note_on_c, 0, 67, 72
2, 9167, Note_on_c, 0, 67, 0
2, 9168, Note_on_c, 0, 65, 72
2, 9183, Note_on_c, 0, 65, 0
2, 9184, Note_on_c, 0, 64, 72
2, 9199, Note_on_c, 0, 64, 0
2, 9200, Note_on_c, 0, 62, 72
2, 9215, Note_on_c, 0, 62, 0
2, 9216, Note_on_c, 0, 60, 72
2, 9393, Note_on_c, 0, 60, 0
2, 9408, Note_on_c, 0, 63, 72
2, 9414, Note_on_c, 0, 63, 0
2, 9414, Note_on_c, 0, 62, 72
2, 9475, Note_on_c, 0, 62, 0
2, 9480, Note_on_c, 0, 60, 72
2, 9503, Note_on_c, 0, 60, 0
2, 9504, Note_on_c, 0, 65, 72
2, 9571, Note_on_c, 0, 65, 0
2, 9576, Note_on_c, 0, 62, 72
2, 9599, Note_on_c, 0, 62, 0
2, 9600, Note_on_c, 0, 58, 72
2, 9711, Note_on_c, 0, 58, 0
2, 9712, Note_on_c, 0, 62, 72
2, 9719, Note_on_c, 0, 62, 0
2, 9728, Note_on_c, 0, 64, 72
2, 9735, Note_on_c, 0, 64, 0
2, 9744, Note_on_c, 0, 65, 72
2, 9751, Note_on_c, 0, 65, 0
2, 9760, Note_on_c, 0, 67, 72
2, 9767, Note_on_c, 0, 67, 0
2, 9776, Note_on_c, 0, 69, 72
2, 9783, Note_on_c, 0, 69, 0
2, 9792, Note_on_c, 0, 70, 72
2, 9955, Note_on_c, 0, 70, 0
2, 9960, Note_on_c, 0, 72, 72
2, 9972, Note_on_c, 0, 72, 0
2, 9972, Note_on_c, 0, 70, 72
2, 9984, Note_on_c, 0, 70, 0
2, 9984, Note_on_c, 0, 69, 72
2, 10073, Note_on_c, 0, 69, 0
2, 10080, Note_on_c, 0, 74, 72
2, 10169, Note_on_c, 0, 74, 0
2, 10176, Note_on_c, 0, 79, 76
2, 10265, Note_on_c, 0, 79, 0
2, 10272, Note_on_c, 0, 77, 80
2, 10361, Note_on_c, 0, 77, 0
2, 10368, Note_on_c, 0, 77, 80
2, 10391, Note_on_c, 0, 77, 0
2, 10392, Note_on_c, 0, 76, 79
2, 10415, Note_on_c, 0, 76, 0
2, 10416, Note_on_c, 0, 74, 78
2, 10439, Note_on_c, 0, 74, 0
2, 10440, Note_on_c, 0, 72, 77
2, 10463, Note_on_c, 0, 72, 0
2, 10464, Note_on_c, 0, 70, 76
2, 10553, Note_on_c, 0, 70, 0
2, 10560, Note_on_c, 0, 69, 72
2, 10649, Note_on_c, 0, 69, 0
2, 10672, Note_on_c, 0, 67, 72
2, 10687, Note_on_c, 0, 67, 0
2, 10688, Note_on_c, 0, 70, 72
2, 10703, Note_on_c, 0, 70, 0
2, 10704, Note_on_c, 0, 74, 72
2, 10719, Note_on_c, 0, 74, 0
2, 10720, Note_on_c, 0, 70, 72
2, 10735, Note_on_c, 0, 70, 0
2, 10736, Note_on_c, 0, 67, 72
2, 10751, Note_on_c, 0, 67, 0
2, 10752, Note_on_c, 0, 65, 72
2, 10885, Note_on_c, 0, 65, 0
2, 10896, Note_on_c, 0, 69, 72
2, 10920, Note_on_c, 0, 69, 0
2, 10920, Note_on_c, 0, 67, 72
2, 10941, Note_on_c, 0, 67, 0
2, 10944, Note_on_c, 0, 69, 72
2, 10959, Note_on_c, 0, 69, 0
2, 10960, Note_on_c, 0, 72, 72
2, 10975, Note_on_c, 0, 72, 0
2, 10976, Note_on_c, 0, 70, 73
2, 10991, Note_on_c, 0, 70, 0
2, 10992, Note_on_c, 0, 69, 73
2, 11007, Note_on_c, 0, 69, 0
2, 11008, Note_on_c, 0, 77, 74
2, 11023, Note_on_c, 0, 77, 0
2, 11024, Note_on_c, 0, 76, 75
2, 11039, Note_on_c, 0, 76, 0
2, 11040, Note_on_c, 0, 74, 75
2, 11055, Note_on_c, 0, 74, 0
2, 11056, Note_on_c, 0, 82, 76
2, 11071, Note_on_c, 0, 82, 0
2, 11072, Note_on_c, 0, 81, 76
2, 11087, Note_on_c, 0, 81, 0
2, 11088, Note_on_c, 0, 79, 77
2, 11103, Note_on_c, 0, 79, 0
2, 11104, Note_on_c, 0, 86, 80
2, 11119, Note_on_c, 0, 86, 0
2, 11120, Note_on_c, 0, 84, 78
2, 11135, Note_on_c, 0, 84, 0
2, 11136, Note_on_c, 0, 82, 76
2, 11151, Note_on_c, 0, 82, 0
2, 11152, Note_on_c, 0, 81, 75
2, 11167, Note_on_c, 0, 81, 0
2, 11168, Note_on_c, 0, 79, 73
2, 11183, Note_on_c, 0, 79, 0
2, 11184, Note_on_c, 0, 77, 72
2, 11199, Note_on_c, 0, 77, 0
2, 11200, Note_on_c, 0, 76, 70
2, 11215, Note_on_c, 0, 76, 0
2, 11216, Note_on_c, 0, 74, 69
2, 11231, Note_on_c, 0, 74, 0
2, 11232, Note_on_c, 0, 72, 79
2, 11328, Note_on_c, 0, 72, 0
2, 11328, Note_on_c, 0, 72, 63
2, 11335, Note_on_c, 0, 72, 0
2, 11335, Note_on_c, 0, 70, 63
2, 11342, Note_on_c, 0, 70, 0
2, 11342, Note_on_c, 0, 72, 63
2, 11349, Note_on_c, 0, 72, 0
2, 11349, Note_on_c, 0, 70, 63
2, 11356, Note_on_c, 0, 70, 0
2, 11356, Note_on_c, 0, 72, 63
2, 11363, Note_on_c, 0, 72, 0
2, 11363, Note_on_c, 0, 70, 63
2, 11370, Note_on_c, 0, 70, 0
2, 11370, Note_on_c, 0, 72, 63
2, 11377, Note_on_c, 0, 72, 0
2, 11377, Note_on_c, 0, 70, 63
2, 11384, Note_on_c, 0, 70, 0
2, 11384, Note_on_c, 0, 72, 63
2, 11391, Note_on_c, 0, 72, 0
2, 11391, Note_on_c, 0, 70, 63
2, 11398, Note_on_c, 0, 70, 0
2, 11398, Note_on_c, 0, 72, 63
2, 11405, Note_on_c, 0, 72, 0
2, 11405, Note_on_c, 0, 70, 63
2, 11412, Note_on_c, 0, 70, 0
2, 11412, Note_on_c, 0, 69, 63
2, 11418, Note_on_c, 0, 69, 0
2, 11418, Note_on_c, 0, 70, 63
2, 11424, Note_on_c, 0, 70, 0
2, 11424, Note_on_c, 0, 69, 63
2, 11513, Note_on_c, 0, 69, 0
2, 11520, Note_on_c, 0, 66, 63
2, 11536, Note_on_c, 0, 66, 0
2, 11536, Note_on_c, 0, 67, 64
2, 11551, Note_on_c, 0, 67, 0
2, 11552, Note_on_c, 0, 70, 65
2, 11567, Note_on_c, 0, 70, 0
2, 11568, Note_on_c, 0, 74, 66
2, 11583, Note_on_c, 0, 74, 0
2, 11584, Note_on_c, 0, 79, 67
2, 11599, Note_on_c, 0, 79, 0
2, 11600, Note_on_c, 0, 82, 68
2, 11615, Note_on_c, 0, 82, 0
2, 11616, Note_on_c, 0, 86, 69
2, 11631, Note_on_c, 0, 86, 0
2, 11632, Note_on_c, 0, 84, 70
2, 11647, Note_on_c, 0, 84, 0
2, 11648, Note_on_c, 0, 82, 72
2, 11663, Note_on_c, 0, 82, 0
2, 11664, Note_on_c, 0, 81, 70
2, 11679, Note_on_c, 0, 81, 0
2, 11680, Note_on_c, 0, 79, 69
2, 11695, Note_on_c, 0, 79, 0
2, 11696, Note_on_c, 0, 77, 68
2, 11711, Note_on_c, 0, 77, 0
2, 11712, Note_on_c, 0, 77, 88
2, 11728, Note_on_c, 0, 77, 0
2, 11728, Note_on_c, 0, 76, 71
2, 11743, Note_on_c, 0, 76, 0
2, 11744, Note_on_c, 0, 79, 70
2, 11759, Note_on_c, 0, 79, 0
2, 11760, Note_on_c, 0, 82, 69
2, 11775, Note_on_c, 0, 82, 0
2, 11776, Note_on_c, 0, 79, 69
2, 11791, Note_on_c, 0, 79, 0
2, 11792, Note_on_c, 0, 76, 68
2, 11807, Note_on_c, 0, 76, 0
2, 11808, Note_on_c, 0, 76, 67
2, 11904, Note_on_c, 0, 76, 0
2, 11904, Note_on_c, 0, 77, 67
2, 11943, Note_on_c, 0, 77, 0
2, 12096, Note_on_c, 0, 72, 88
2, 12168, Note_on_c, 0, 72, 0
2, 12168, Note_on_c, 0, 69, 72
2, 12180, Note_on_c, 0, 69, 0
2, 12180, Note_on_c, 0, 65, 72
2, 12192, Note_on_c, 0, 65, 0
2, 12192, Note_on_c, 0, 64, 72
2, 12212, Note_on_c, 0, 64, 0
2, 12336, Note_on_c, 0, 64, 72
2, 12343, Note_on_c, 0, 64, 0
2, 12352, Note_on_c, 0, 67, 72
2, 12359, Note_on_c, 0, 67, 0
2, 12368, Note_on_c, 0, 70, 72
2, 12375, Note_on_c, 0, 70, 0
2, 12384, Note_on_c, 0, 74, 88
2, 12432, Note_on_c, 0, 74, 0
2, 12432, Note_on_c, 0, 72, 72
2, 12444, Note_on_c, 0, 72, 0
2, 12444, Note_on_c, 0, 70, 72
2, 12456, Note_on_c, 0, 70, 0
2, 12456, Note_on_c, 0, 69, 72
2, 12468, Note_on_c, 0, 69, 0
2, 12468, Note_on_c, 0, 67, 72
2, 12480, Note_on_c, 0, 67, 0
2, 12480, Note_on_c, 0, 66, 72
2, 12525, Note_on_c, 0, 66, 0
2, 12720, Note_on_c, 0, 70, 72
2, 12727, Note_on_c, 0, 70, 0
2, 12736, Note_on_c, 0, 74, 72
2, 12743, Note_on_c, 0, 74, 0
2, 12752, Note_on_c, 0, 79, 72
2, 12759, Note_on_c, 0, 79, 0
2, 12768, Note_on_c, 0, 82, 72
2, 12775, Note_on_c, 0, 82, 0
2, 12784, Note_on_c, 0, 86, 72
2, 12791, Note_on_c, 0, 86, 0
2, 12800, Note_on_c, 0, 84, 72
2, 12815, Note_on_c, 0, 84, 0
2, 12816, Note_on_c, 0, 82, 72
2, 12831, Note_on_c, 0, 82, 0
2, 12832, Note_on_c, 0, 81, 72
2, 12847, Note_on_c, 0, 81, 0
2, 12848, Note_on_c, 0, 79, 72
2, 12863, Note_on_c, 0, 79, 0
2, 12864, Note_on_c, 0, 86, 72
2, 12879, Note_on_c, 0, 86, 0
2, 12880, Note_on_c, 0, 84, 72
2, 12895, Note_on_c, 0, 84, 0
2, 12896, Note_on_c, 0, 82, 72
2, 12911, Note_on_c, 0, 82, 0
2, 12912, Note_on_c, 0, 81, 72
2, 12927, Note_on_c, 0, 81, 0
2, 12928, Note_on_c, 0, 79, 72
2, 12943, Note_on_c, 0, 79, 0
2, 12944, Note_on_c, 0, 77, 72
2, 12959, Note_on_c, 0, 77, 0
2, 12960, Note_on_c, 0, 77, 72
2, 13152, Note_on_c, 0, 77, 0
2, 13152, Note_on_c, 0, 76, 72
2, 13158, Note_on_c, 0, 76, 0
2, 13158, Note_on_c, 0, 77, 72
2, 13164, Note_on_c, 0, 77, 0
2, 13164, Note_on_c, 0, 76, 72
2, 13241, Note_on_c, 0, 76, 0
2, 13264, Note_on_c, 0, 72, 72
2, 13279, Note_on_c, 0, 72, 0
2, 13280, Note_on_c, 0, 74, 72
2, 13295, Note_on_c, 0, 74, 0
2, 13296, Note_on_c, 0, 76, 72
2, 13311, Note_on_c, 0, 76, 0
2, 13312, Note_on_c, 0, 77, 72
2, 13327, Note_on_c, 0, 77, 0
2, 13328, Note_on_c, 0, 79, 72
2, 13343, Note_on_c, 0, 79, 0
2, 13344, Note_on_c, 0, 81, 72
2, 13359, Note_on_c, 0, 81, 0
2, 13360, Note_on_c, 0, 82, 72
2, 13375, Note_on_c, 0, 82, 0
2, 13376, Note_on_c, 0, 84, 72
2, 13391, Note_on_c, 0, 84, 0
2, 13392, Note_on_c, 0, 82, 72
2, 13407, Note_on_c, 0, 82, 0
2, 13408, Note_on_c, 0, 81, 72
2, 13423, Note_on_c, 0, 81, 0
2, 13424, Note_on_c, 0, 79, 72
2, 13439, Note_on_c, 0, 79, 0
2, 13440, Note_on_c, 0, 77, 72
2, 13455, Note_on_c, 0, 77, 0
2, 13456, Note_on_c, 0, 84, 72
2, 13471, Note_on_c, 0, 84, 0
2, 13472, Note_on_c, 0, 82, 72
2, 13487, Note_on_c, 0, 82, 0
2, 13488, Note_on_c, 0, 81, 72
2, 13503, Note_on_c, 0, 81, 0
2, 13504, Note_on_c, 0, 79, 72
2, 13519, Note_on_c, 0, 79, 0
2, 13520, Note_on_c, 0, 77, 72
2, 13535, Note_on_c, 0, 77, 0
2, 13536, Note_on_c, 0, 76, 72
2, 13603, Note_on_c, 0, 76, 0
2, 13608, Note_on_c, 0, 74, 72
2, 13631, Note_on_c, 0, 74, 0
2, 13632, Note_on_c, 0, 82, 88
2, 13726, Note_on_c, 0, 82, 0
2, 13728, Note_on_c, 0, 74, 72
2, 13817, Note_on_c, 0, 74, 0
2, 13824, Note_on_c, 0, 73, 72
2, 13891, Note_on_c, 0, 73, 0
2, 13896, Note_on_c, 0, 76, 72
2, 13919, Note_on_c, 0, 76, 0
2, 13920, Note_on_c, 0, 79, 72
2, 14014, Note_on_c, 0, 79, 0
2, 14016, Note_on_c, 0, 77, 72
2, 14083, Note_on_c, 0, 77, 0
2, 14088, Note_on_c, 0, 74, 72
2, 14111, Note_on_c, 0, 74, 0
2, 14112, Note_on_c, 0, 81, 72
2, 14201, Note_on_c, 0, 81, 0
2, 14416, Note_on_c, 0, 69, 72
2, 14431, Note_on_c, 0, 69, 0
2, 14432, Note_on_c, 0, 67, 72
2, 14447, Note_on_c, 0, 67, 0
2, 14448, Note_on_c, 0, 65, 72
2, 14463, Note_on_c, 0, 65, 0
2, 14464, Note_on_c, 0, 64, 72
2, 14479, Note_on_c, 0, 64, 0
2, 14480, Note_on_c, 0, 62, 72
2, 14495, Note_on_c, 0, 62, 0
2, 14496, Note_on_c, 0, 61, 72
2, 14585, Note_on_c, 0, 61, 0
2, 14704, Note_on_c, 0, 82, 72
2, 14719, Note_on_c, 0, 82, 0
2, 14720, Note_on_c, 0, 81, 72
2, 14735, Note_on_c, 0, 81, 0
2, 14736, Note_on_c, 0, 79, 72
2, 14751, Note_on_c, 0, 79, 0
2, 14752, Note_on_c, 0, 77, 72
2, 14767, Note_on_c, 0, 77, 0
2, 14768, Note_on_c, 0, 76, 72
2, 14783, Note_on_c, 0, 76, 0
2, 14784, Note_on_c, 0, 74, 72
2, 14799, Note_on_c, 0, 74, 0
2, 14800, Note_on_c, 0, 81, 72
2, 14815, Note_on_c, 0, 81, 0
2, 14816, Note_on_c, 0, 79, 72
2, 14831, Note_on_c, 0, 79, 0
2, 14832, Note_on_c, 0, 77, 72
2, 14847, Note_on_c, 0, 77, 0
2, 14848, Note_on_c, 0, 76, 72
2, 14863, Note_on_c, 0, 76, 0
2, 14864, Note_on_c, 0, 74, 72
2, 14879, Note_on_c, 0, 74, 0
2, 14880, Note_on_c, 0, 86, 72
2, 14900, Note_on_c, 0, 86, 0
2, 14952, Note_on_c, 0, 84, 72
2, 14952, Note_on_c, 0, 74, 72
2, 14976, Note_on_c, 0, 84, 0
2, 14976, Note_on_c, 0, 82, 72
2, 14996, Note_on_c, 0, 82, 0
2, 14996, Note_on_c, 0, 74, 0
2, 15048, Note_on_c, 0, 74, 72
2, 15072, Note_on_c, 0, 74, 0
2, 15072, Note_on_c, 0, 73, 72
2, 15092, Note_on_c, 0, 73, 0
2, 15144, Note_on_c, 0, 76, 72
2, 15168, Note_on_c, 0, 76, 0
2, 15168, Note_on_c, 0, 81, 72
2, 15168, Note_on_c, 0, 73, 72
2, 15188, Note_on_c, 0, 81, 0
2, 15188, Note_on_c, 0, 73, 0
2, 15240, Note_on_c, 0, 79, 72
2, 15263, Note_on_c, 0, 79, 0
2, 15264, Note_on_c, 0, 79, 72
2, 15309, Note_on_c, 0, 79, 0
2, 15312, Note_on_c, 0, 77, 72
2, 15319, Note_on_c, 0, 77, 0
2, 15319, Note_on_c, 0, 79, 72
2, 15326, Note_on_c, 0, 79, 0
2, 15326, Note_on_c, 0, 77, 72
2, 15333, Note_on_c, 0, 77, 0
2, 15333, Note_on_c, 0, 79, 72
2, 15340, Note_on_c, 0, 79, 0
2, 15340, Note_on_c, 0, 77, 72
2, 15347, Note_on_c, 0, 77, 0
2, 15347, Note_on_c, 0, 76, 72
2, 15354, Note_on_c, 0, 76, 0
2, 15354, Note_on_c, 0, 77, 72
2, 15360, Note_on_c, 0, 77, 0
2, 15360, Note_on_c, 0, 76, 72
2, 15380, Note_on_c, 0, 76, 0
2, 15552, Note_on_c, 0, 69, 88
2, 15568, Note_on_c, 0, 69, 0
2, 15568, Note_on_c, 0, 76, 72
2, 15583, Note_on_c, 0, 76, 0
2, 15584, Note_on_c, 0, 74, 72
2, 15599, Note_on_c, 0, 74, 0
2, 15600, Note_on_c, 0, 73, 72
2, 15615, Note_on_c, 0, 73, 0
2, 15616, Note_on_c, 0, 79, 72
2, 15631, Note_on_c, 0, 79, 0
2, 15632, Note_on_c, 0, 77, 72
2, 15647, Note_on_c, 0, 77, 0
2, 15648, Note_on_c, 0, 76, 72
2, 15663, Note_on_c, 0, 76, 0
2, 15664, Note_on_c, 0, 82, 72
2, 15679, Note_on_c, 0, 82, 0
2, 15680, Note_on_c, 0, 81, 72
2, 15695, Note_on_c, 0, 81, 0
2, 15696, Note_on_c, 0, 79, 72
2, 15711, Note_on_c, 0, 79, 0
2, 15712, Note_on_c, 0, 88, 72
2, 15727, Note_on_c, 0, 88, 0
2, 15728, Note_on_c, 0, 86, 72
2, 15743, Note_on_c, 0, 86, 0
2, 15744, Note_on_c, 0, 85, 72
2, 15759, Note_on_c, 0, 85, 0
2, 15760, Note_on_c, 0, 82, 72
2, 15775, Note_on_c, 0, 82, 0
2, 15776, Note_on_c, 0, 81, 72
2, 15791, Note_on_c, 0, 81, 0
2, 15792, Note_on_c, 0, 79, 72
2, 15807, Note_on_c, 0, 79, 0
2, 15808, Note_on_c, 0, 77, 72
2, 15823, Note_on_c, 0, 77, 0
2, 15824, Note_on_c, 0, 76, 72
2, 15839, Note_on_c, 0, 76, 0
2, 15840, Note_on_c, 0, 74, 88
2, 15856, Note_on_c, 0, 74, 0
2, 15856, Note_on_c, 0, 81, 72
2, 15871, Note_on_c, 0, 81, 0
2, 15872, Note_on_c, 0, 79, 72
2, 15887, Note_on_c, 0, 79, 0
2, 15888, Note_on_c, 0, 78, 72
2, 15903, Note_on_c, 0, 78, 0
2, 15904, Note_on_c, 0, 84, 72
2, 15919, Note_on_c, 0, 84, 0
2, 15920, Note_on_c, 0, 82, 72
2, 15935, Note_on_c, 0, 82, 0
2, 15936, Note_on_c, 0, 81, 72
2, 15951, Note_on_c, 0, 81, 0
2, 15952, Note_on_c, 0, 87, 72
2, 15967, Note_on_c, 0, 87, 0
2, 15968, Note_on_c, 0, 86, 72
2, 15983, Note_on_c, 0, 86, 0
2, 15984, Note_on_c, 0, 84, 72
2, 15999, Note_on_c, 0, 84, 0
2, 16000, Note_on_c, 0, 82, 72
2, 16015, Note_on_c, 0, 82, 0
2, 16016, Note_on_c, 0, 81, 72
2, 16031, Note_on_c, 0, 81, 0
2, 16032, Note_on_c, 0, 79, 72
2, 16047, Note_on_c, 0, 79, 0
2, 16048, Note_on_c, 0, 78, 72
2, 16063, Note_on_c, 0, 78, 0
2, 16064, Note_on_c, 0, 79, 72
2, 16079, Note_on_c, 0, 79, 0
2, 16080, Note_on_c, 0, 81, 72
2, 16095, Note_on_c, 0, 81, 0
2, 16096, Note_on_c, 0, 78, 72
2, 16111, Note_on_c, 0, 78, 0
2, 16112, Note_on_c, 0, 72, 72
2, 16127, Note_on_c, 0, 72, 0
2, 16128, Note_on_c, 0, 70, 72
2, 16217, Note_on_c, 0, 70, 0
2, 16224, Note_on_c, 0, 82, 80
2, 16318, Note_on_c, 0, 82, 0
2, 16320, Note_on_c, 0, 74, 76
2, 16416, Note_on_c, 0, 74, 0
2, 16416, Note_on_c, 0, 73, 72
2, 16505, Note_on_c, 0, 73, 0
2, 16512, Note_on_c, 0, 79, 80
2, 16606, Note_on_c, 0, 79, 0
2, 16608, Note_on_c, 0, 77, 76
2, 16697, Note_on_c, 0, 77, 0
2, 16720, Note_on_c, 0, 76, 72
2, 16735, Note_on_c, 0, 76, 0
2, 16736, Note_on_c, 0, 79, 72
2, 16751, Note_on_c, 0, 79, 0
2, 16752, Note_on_c, 0, 82, 72
2, 16767, Note_on_c, 0, 82, 0
2, 16768, Note_on_c, 0, 79, 72
2, 16783, Note_on_c, 0, 79, 0
2, 16784, Note_on_c, 0, 76, 72
2, 16799, Note_on_c, 0, 76, 0
2, 16800, Note_on_c, 0, 74, 72
2, 16933, Note_on_c, 0, 74, 0
2, 16944, Note_on_c, 0, 77, 72
2, 16968, Note_on_c, 0, 77, 0
2, 16968, Note_on_c, 0, 76, 72
2, 16989, Note_on_c, 0, 76, 0
2, 16992, Note_on_c, 0, 78, 72
2, 17081, Note_on_c, 0, 78, 0
2, 17088, Note_on_c, 0, 81, 88
2, 17199, Note_on_c, 0, 81, 0
2, 17200, Note_on_c, 0, 87, 72
2, 17215, Note_on_c, 0, 87, 0
2, 17216, Note_on_c, 0, 86, 72
2, 17231, Note_on_c, 0, 86, 0
2, 17232, Note_on_c, 0, 84, 72
2, 17247, Note_on_c, 0, 84, 0
2, 17248, Note_on_c, 0, 82, 72
2, 17263, Note_on_c, 0, 82, 0
2, 17264, Note_on_c, 0, 81, 72
2, 17279, Note_on_c, 0, 81, 0
2, 17280, Note_on_c, 0, 79, 72
2, 17369, Note_on_c, 0, 79, 0
2, 17376, Note_on_c, 0, 82, 88
2, 17487, Note_on_c, 0, 82, 0
2, 17488, Note_on_c, 0, 86, 72
2, 17503, Note_on_c, 0, 86, 0
2, 17504, Note_on_c, 0, 84, 72
2, 17519, Note_on_c, 0, 84, 0
2, 17520, Note_on_c, 0, 82, 72
2, 17535, Note_on_c, 0, 82, 0
2, 17536, Note_on_c, 0, 81, 72
2, 17551, Note_on_c, 0, 81, 0
2, 17552, Note_on_c, 0, 79, 72
2, 17567, Note_on_c, 0, 79, 0
2, 17568, Note_on_c, 0, 78, 72
2, 17679, Note_on_c, 0, 78, 0
2, 17680, Note_on_c, 0, 79, 72
2, 17695, Note_on_c, 0, 79, 0
2, 17696, Note_on_c, 0, 80, 72
2, 17711, Note_on_c, 0, 80, 0
2, 17712, Note_on_c, 0, 81, 72
2, 17727, Note_on_c, 0, 81, 0
2, 17728, Note_on_c, 0, 82, 72
2, 17743, Note_on_c, 0, 82, 0
2, 17744, Note_on_c, 0, 84, 72
2, 17759, Note_on_c, 0, 84, 0
2, 17760, Note_on_c, 0, 86, 72
2, 17775, Note_on_c, 0, 86, 0
2, 17776, Note_on_c, 0, 87, 72
2, 17791, Note_on_c, 0, 87, 0
2, 17792, Note_on_c, 0, 86, 72
2, 17807, Note_on_c, 0, 86, 0
2, 17808, Note_on_c, 0, 84, 72
2, 17823, Note_on_c, 0, 84, 0
2, 17824, Note_on_c, 0, 82, 72
2, 17839, Note_on_c, 0, 82, 0
2, 17840, Note_on_c, 0, 81, 72
2, 17855, Note_on_c, 0, 81, 0
2, 17856, Note_on_c, 0, 82, 72
2, 17871, Note_on_c, 0, 82, 0
2, 17872, Note_on_c, 0, 86, 72
2, 17887, Note_on_c, 0, 86, 0
2, 17888, Note_on_c, 0, 78, 72
2, 17903, Note_on_c, 0, 78, 0
2, 17904, Note_on_c, 0, 79, 72
2, 17919, Note_on_c, 0, 79, 0
2, 17920, Note_on_c, 0, 82, 72
2, 17935, Note_on_c, 0, 82, 0
2, 17936, Note_on_c, 0, 74, 72
2, 17951, Note_on_c, 0, 74, 0
2, 17952, Note_on_c, 0, 82, 72
2, 17967, Note_on_c, 0, 82, 0
2, 17968, Note_on_c, 0, 86, 72
2, 17983, Note_on_c, 0, 86, 0
2, 17984, Note_on_c, 0, 78, 72
2, 17999, Note_on_c, 0, 78, 0
2, 18000, Note_on_c, 0, 79, 72
2, 18015, Note_on_c, 0, 79, 0
2, 18016, Note_on_c, 0, 82, 72
2, 18031, Note_on_c, 0, 82, 0
2, 18032, Note_on_c, 0, 74, 72
2, 18047, Note_on_c, 0, 74, 0
2, 18048, Note_on_c, 0, 75, 72
2, 18063, Note_on_c, 0, 75, 0
2, 18064, Note_on_c, 0, 78, 72
2, 18079, Note_on_c, 0, 78, 0
2, 18080, Note_on_c, 0, 79, 72
2, 18095, Note_on_c, 0, 79, 0
2, 18096, Note_on_c, 0, 74, 72
2, 18111, Note_on_c, 0, 74, 0
2, 18112, Note_on_c, 0, 78, 72
2, 18127, Note_on_c, 0, 78, 0
2, 18128, Note_on_c, 0, 79, 72
2, 18143, Note_on_c, 0, 79, 0
2, 18144, Note_on_c, 0, 73, 72
2, 18189, Note_on_c, 0, 73, 0
2, 18240, Control_c, 0, 64, 127
2, 18256, Note_on_c, 0, 67, 72
2, 18271, Note_on_c, 0, 67, 0
2, 18272, Note_on_c, 0, 70, 72
2, 18287, Note_on_c, 0, 70, 0
2, 18288, Note_on_c, 0, 73, 72
2, 18303, Note_on_c, 0, 73, 0
2, 18304, Note_on_c, 0, 76, 72
2, 18319, Note_on_c, 0, 76, 0
2, 18320, Note_on_c, 0, 79, 72
2, 18335, Note_on_c, 0, 79, 0
2, 18336, Note_on_c, 0, 82, 72
2, 18351, Note_on_c, 0, 82, 0
2, 18352, Note_on_c, 0, 79, 72
2, 18367, Note_on_c, 0, 79, 0
2, 18368, Note_on_c, 0, 85, 72
2, 18383, Note_on_c, 0, 85, 0
2, 18384, Control_c, 0, 64, 0
2, 18384, Note_on_c, 0, 86, 72
2, 18429, Note_on_c, 0, 86, 0
2, 18448, Note_on_c, 0, 64, 72
2, 18463, Note_on_c, 0, 64, 0
2, 18464, Note_on_c, 0, 67, 72
2, 18479, Note_on_c, 0, 67, 0
2, 18480, Note_on_c, 0, 70, 72
2, 18495, Note_on_c, 0, 70, 0
2, 18496, Note_on_c, 0, 67, 72
2, 18511, Note_on_c, 0, 67, 0
2, 18512, Note_on_c, 0, 64, 72
2, 18527, Note_on_c, 0, 64, 0
2, 18528, Note_on_c, 0, 62, 72
2, 18661, Note_on_c, 0, 62, 0
2, 18672, Note_on_c, 0, 65, 72
2, 18696, Note_on_c, 0, 65, 0
2, 18696, Note_on_c, 0, 64, 72
2, 18717, Note_on_c, 0, 64, 0
2, 18720, Note_on_c, 0, 62, 72
2, 18809, Note_on_c, 0, 62, 0
2, 18864, Note_on_c, 0, 89, 72
2, 18864, Note_on_c, 0, 86, 72
2, 18884, Note_on_c, 0, 89, 0
2, 18884, Note_on_c, 0, 86, 0
2, 18912, Note_on_c, 0, 89, 72
2, 18912, Note_on_c, 0, 86, 72
2, 18932, Note_on_c, 0, 89, 0
2, 18932, Note_on_c, 0, 86, 0
2, 18960, Note_on_c, 0, 89, 72
2, 18960, Note_on_c, 0, 86, 72
2, 18980, Note_on_c, 0, 89, 0
2, 18980, Note_on_c, 0, 86, 0
2, 19152, Note_on_c, 0, 89, 72
2, 19152, Note_on_c, 0, 86, 72
2, 19172, Note_on_c, 0, 89, 0
2, 19172, Note_on_c, 0, 86, 0
2, 19200, Note_on_c, 0, 89, 72
2, 19200, Note_on_c, 0, 86, 72
2, 19220, Note_on_c, 0, 89, 0
2, 19220, Note_on_c, 0, 86, 0
2, 19248, Note_on_c, 0, 89, 72
2, 19248, Note_on_c, 0, 86, 72
2, 19268, Note_on_c, 0, 89, 0
2, 19268, Note_on_c, 0, 86, 0
2, 19440, Note_on_c, 0, 65, 63
2, 19440, Note_on_c, 0, 62, 63
2, 19485, Note_on_c, 0, 65, 0
2, 19485, Note_on_c, 0, 62, 0
2, 19488, Note_on_c, 0, 65, 63
2, 19488, Note_on_c, 0, 62, 63
2, 19533, Note_on_c, 0, 65, 0
2, 19533, Note_on_c, 0, 62, 0
2, 19536, Note_on_c, 0, 62, 63
2, 19536, Note_on_c, 0, 56, 63
2, 19581, Note_on_c, 0, 62, 0
2, 19581, Note_on_c, 0, 56, 0
2, 19584, Control_c, 0, 64, 127
2, 19584, Note_on_c, 0, 57, 63
2, 19599, Note_on_c, 0, 57, 0
2, 19600, Note_on_c, 0, 61, 63
2, 19615, Note_on_c, 0, 61, 0
2, 19616, Note_on_c, 0, 64, 63
2, 19631, Note_on_c, 0, 64, 0
2, 19632, Note_on_c, 0, 69, 63
2, 19647, Note_on_c, 0, 69, 0
2, 19648, Note_on_c, 0, 64, 63
2, 19663, Note_on_c, 0, 64, 0
2, 19664, Note_on_c, 0, 61, 63
2, 19679, Note_on_c, 0, 61, 0
2, 20064, Control_c, 0, 64, 0
2, 20064, Note_on_c, 0, 69, 72
2, 20131, Note_on_c, 0, 69, 0
2, 20136, Note_on_c, 0, 66, 72
2, 20159, Note_on_c, 0, 66, 0
2, 20160, Note_on_c, 0, 74, 72
2, 20249, Note_on_c, 0, 74, 0
2, 20256, Note_on_c, 0, 74, 72
2, 20345, Note_on_c, 0, 74, 0
2, 20352, Note_on_c, 0, 76, 72
2, 20376, Note_on_c, 0, 76, 0
2, 20376, Note_on_c, 0, 74, 72
2, 20400, Note_on_c, 0, 74, 0
2, 20400, Note_on_c, 0, 73, 72
2, 20424, Note_on_c, 0, 73, 0
2, 20424, Note_on_c, 0, 74, 72
2, 20448, Note_on_c, 0, 74, 0
2, 20448, Note_on_c, 0, 73, 72
2, 20515, Note_on_c, 0, 73, 0
2, 20520, Note_on_c, 0, 76, 72
2, 20543, Note_on_c, 0, 76, 0
2, 20544, Note_on_c, 0, 79, 88
2, 20712, Note_on_c, 0, 79, 0
2, 20712, Note_on_c, 0, 76, 72
2, 20735, Note_on_c, 0, 76, 0
2, 20736, Note_on_c, 0, 78, 72
2, 20803, Note_on_c, 0, 78, 0
2, 20808, Note_on_c, 0, 74, 74
2, 20831, Note_on_c, 0, 74, 0
2, 20832, Note_on_c, 0, 81, 74
2, 20899, Note_on_c, 0, 81, 0
2, 20904, Note_on_c, 0, 78, 76
2, 20927, Note_on_c, 0, 78, 0
2, 20928, Note_on_c, 0, 83, 77
2, 20995, Note_on_c, 0, 83, 0
2, 21000, Note_on_c, 0, 79, 79
2, 21023, Note_on_c, 0, 79, 0
2, 21024, Note_on_c, 0, 78, 80
2, 21120, Note_on_c, 0, 78, 0
2, 21120, Note_on_c, 0, 76, 76
2, 21209, Note_on_c, 0, 76, 0
2, 21216, Note_on_c, 0, 69, 72
2, 21283, Note_on_c, 0, 69, 0
2, 21288, Note_on_c, 0, 66, 72
2, 21311, Note_on_c, 0, 66, 0
2, 21312, Note_on_c, 0, 74, 72
2, 21401, Note_on_c, 0, 74, 0
2, 21408, Note_on_c, 0, 74, 72
2, 21497, Note_on_c, 0, 74, 0
2, 21504, Note_on_c, 0, 76, 72
2, 21528, Note_on_c, 0, 76, 0
2, 21528, Note_on_c, 0, 74, 72
2, 21552, Note_on_c, 0, 74, 0
2, 21552, Note_on_c, 0, 73, 72
2, 21576, Note_on_c, 0, 73, 0
2, 21576, Note_on_c, 0, 74, 72
2, 21600, Note_on_c, 0, 74, 0
2, 21600, Note_on_c, 0, 73, 72
2, 21667, Note_on_c, 0, 73, 0
2, 21672, Note_on_c, 0, 76, 75
2, 21695, Note_on_c, 0, 76, 0
2, 21696, Note_on_c, 0, 79, 76
2, 21763, Note_on_c, 0, 79, 0
2, 21768, Note_on_c, 0, 76, 80
2, 21791, Note_on_c, 0, 76, 0
2, 21792, Note_on_c, 0, 78, 78
2, 21859, Note_on_c, 0, 78, 0
2, 21864, Note_on_c, 0, 74, 73
2, 21887, Note_on_c, 0, 74, 0
2, 21888, Note_on_c, 0, 71, 72
2, 21977, Note_on_c, 0, 71, 0
2, 21984, Note_on_c, 0, 76, 72
2, 22073, Note_on_c, 0, 76, 0
2, 22080, Note_on_c, 0, 74, 72
2, 22104, Note_on_c, 0, 74, 0
2, 22104, Note_on_c, 0, 73, 72
2, 22128, Note_on_c, 0, 73, 0
2, 22128, Note_on_c, 0, 71, 72
2, 22152, Note_on_c, 0, 71, 0
2, 22152, Note_on_c, 0, 73, 72
2, 22176, Note_on_c, 0, 73, 0
2, 22176, Note_on_c, 0, 74, 72
2, 22176, Note_on_c, 0, 66, 72
2, 22265, Note_on_c, 0, 74, 0
2, 22265, Note_on_c, 0, 66, 0
2, 22368, Control_c, 0, 64, 0
2, 22368, Note_on_c, 0, 69, 72
2, 22435, Note_on_c, 0, 69, 0
2, 22440, Note_on_c, 0, 66, 72
2, 22463, Note_on_c, 0, 66, 0
2, 22464, Note_on_c, 0, 74, 72
2, 22553, Note_on_c, 0, 74, 0
2, 22560, Note_on_c, 0, 74, 72
2, 22649, Note_on_c, 0, 74, 0
2, 22656, Note_on_c, 0, 76, 72
2, 22680, Note_on_c, 0, 76, 0
2, 22680, Note_on_c, 0, 74, 72
2, 22704, Note_on_c, 0, 74, 0
2, 22704, Note_on_c, 0, 73, 72
2, 22728, Note_on_c, 0, 73, 0
2, 22728, Note_on_c, 0, 74, 72
2, 22752, Note_on_c, 0, 74, 0
2, 22752, Note_on_c, 0, 73, 72
2, 22819, Note_on_c, 0, 73, 0
2, 22824, Note_on_c, 0, 76, 72
2, 22847, Note_on_c, 0, 76, 0
2, 22848, Note_on_c, 0, 79, 88
2, 23016, Note_on_c, 0, 79, 0
2, 23016, Note_on_c, 0, 76, 72
2, 23039, Note_on_c, 0, 76, 0
2, 23040, Note_on_c, 0, 78, 72
2, 23107, Note_on_c, 0, 78, 0
2, 23112, Note_on_c, 0, 74, 74
2, 23135, Note_on_c, 0, 74, 0
2, 23136, Note_on_c, 0, 81, 74
2, 23203, Note_on_c, 0, 81, 0
2, 23208, Note_on_c, 0, 78, 76
2, 23231, Note_on_c, 0, 78, 0
2, 23232, Note_on_c, 0, 83, 77
2, 23299, Note_on_c, 0, 83, 0
2, 23304, Note_on_c, 0, 79, 79
2, 23327, Note_on_c, 0, 79, 0
2, 23328, Note_on_c, 0, 78, 80
2, 23424, Note_on_c, 0, 78, 0
2, 23424, Note_on_c, 0, 76, 76
2, 23513, Note_on_c, 0, 76, 0
2, 23520, Note_on_c, 0, 69, 72
2, 23587, Note_on_c, 0, 69, 0
2, 23592, Note_on_c, 0, 66, 72
2, 23615, Note_on_c, 0, 66, 0
2, 23616, Note_on_c, 0, 74, 72
2, 23705, Note_on_c, 0, 74, 0
2, 23712, Note_on_c, 0, 74, 72
2, 23801, Note_on_c, 0, 74, 0
2, 23808, Note_on_c, 0, 76, 72
2, 23832, Note_on_c, 0, 76, 0
2, 23832, Note_on_c, 0, 74, 72
2, 23856, Note_on_c, 0, 74, 0
2, 23856, Note_on_c, 0, 73, 72
2, 23880, Note_on_c, 0, 73, 0
2, 23880, Note_on_c, 0, 74, 72
2, 23904, Note_on_c, 0, 74, 0
2, 23904, Note_on_c, 0, 73, 72
2, 23971, Note_on_c, 0, 73, 0
2, 23976, Note_on_c, 0, 76, 75
2, 23999, Note_on_c, 0, 76, 0
2, 24000, Note_on_c, 0, 79, 76
2, 24067, Note_on_c, 0, 79, 0
2, 24072, Note_on_c, 0, 76, 80
2, 24095, Note_on_c, 0, 76, 0
2, 24096, Note_on_c, 0, 78, 78
2, 24163, Note_on_c, 0, 78, 0
2, 24168, Note_on_c, 0, 74, 73
2, 24191, Note_on_c, 0, 74, 0
2, 24192, Note_on_c, 0, 71, 72
2, 24281, Note_on_c, 0, 71, 0
2, 24288, Note_on_c, 0, 76, 72
2, 24377, Note_on_c, 0, 76, 0
2, 24384, Note_on_c, 0, 74, 72
2, 24408, Note_on_c, 0, 74, 0
2, 24408, Note_on_c, 0, 73, 72
2, 24432, Note_on_c, 0, 73, 0
2, 24432, Note_on_c, 0, 71, 72
2, 24456, Note_on_c, 0, 71, 0
2, 24456, Note_on_c, 0, 73, 72
2, 24480, Note_on_c, 0, 73, 0
2, 24480, Note_on_c, 0, 74, 72
2, 24480, Note_on_c, 0, 66, 72
2, 24569, Note_on_c, 0, 74, 0
2, 24569, Note_on_c, 0, 66, 0
2, 24672, Note_on_c, 0, 81, 72
2, 24739, Note_on_c, 0, 81, 0
2, 24744, Note_on_c, 0, 78, 72
2, 24767, Note_on_c, 0, 78, 0
2, 24768, Note_on_c, 0, 86, 72
2, 24835, Note_on_c, 0, 86, 0
2, 24840, Note_on_c, 0, 81, 72
2, 24863, Note_on_c, 0, 81, 0
2, 24864, Note_on_c, 0, 83, 72
2, 24931, Note_on_c, 0, 83, 0
2, 24936, Note_on_c, 0, 80, 72
2, 24959, Note_on_c, 0, 80, 0
2, 24960, Note_on_c, 0, 81, 72
2, 25027, Note_on_c, 0, 81, 0
2, 25032, Note_on_c, 0, 76, 72
2, 25055, Note_on_c, 0, 76, 0
2, 25056, Note_on_c, 0, 79, 72
2, 25123, Note_on_c, 0, 79, 0
2, 25128, Note_on_c, 0, 74, 72
2, 25151, Note_on_c, 0, 74, 0
2, 25152, Note_on_c, 0, 78, 72
2, 25219, Note_on_c, 0, 78, 0
2, 25224, Note_on_c, 0, 73, 72
2, 25247, Note_on_c, 0, 73, 0
2, 25248, Note_on_c, 0, 76, 72
2, 25315, Note_on_c, 0, 76, 0
2, 25320, Note_on_c, 0, 71, 72
2, 25343, Note_on_c, 0, 71, 0
2, 25344, Note_on_c, 0, 74, 72
2, 25411, Note_on_c, 0, 74, 0
2, 25416, Note_on_c, 0, 69, 72
2, 25439, Note_on_c, 0, 69, 0
2, 25440, Note_on_c, 0, 73, 72
2, 25529, Note_on_c, 0, 73, 0
2, 25536, Note_on_c, 0, 74, 72
2, 25625, Note_on_c, 0, 74, 0
2, 25632, Note_on_c, 0, 78, 72
2, 25632, Note_on_c, 0, 74, 72
2, 25728, Note_on_c, 0, 78, 0
2, 25728, Note_on_c, 0, 74, 0
2, 25728, Note_on_c, 0, 76, 72
2, 25728, Note_on_c, 0, 73, 72
2, 25773, Note_on_c, 0, 76, 0
2, 25773, Note_on_c, 0, 73, 0
2, 25824, Note_on_c, 0, 81, 72
2, 25891, Note_on_c, 0, 81, 0
2, 25896, Note_on_c, 0, 78, 72
2, 25919, Note_on_c, 0, 78, 0
2, 25920, Note_on_c, 0, 86, 72
2, 25987, Note_on_c, 0, 86, 0
2, 25992, Note_on_c, 0, 81, 72
2, 26015, Note_on_c, 0, 81, 0
2, 26016, Note_on_c, 0, 83, 72
2, 26083, Note_on_c, 0, 83, 0
2, 26088, Note_on_c, 0, 80, 72
2, 26111, Note_on_c, 0, 80, 0
2, 26112, Note_on_c, 0, 81, 72
2, 26179, Note_on_c, 0, 81, 0
2, 26184, Note_on_c, 0, 76, 72
2, 26207, Note_on_c, 0, 76, 0
2, 26208, Note_on_c, 0, 79, 72
2, 26275, Note_on_c, 0, 79, 0
2, 26280, Note_on_c, 0, 74, 72
2, 26303, Note_on_c, 0, 74, 0
2, 26304, Note_on_c, 0, 78, 72
2, 26371, Note_on_c, 0, 78, 0
2, 26376, Note_on_c, 0, 73, 72
2, 26399, Note_on_c, 0, 73, 0
2, 26400, Note_on_c, 0, 76, 72
2, 26467, Note_on_c, 0, 76, 0
2, 26472, Note_on_c, 0, 71, 72
2, 26495, Note_on_c, 0, 71, 0
2, 26496, Note_on_c, 0, 74, 72
2, 26563, Note_on_c, 0, 74, 0
2, 26568, Note_on_c, 0, 69, 72
2, 26591, Note_on_c, 0, 69, 0
2, 26592, Note_on_c, 0, 78, 72
2, 26681, Note_on_c, 0, 78, 0
2, 26688, Note_on_c, 0, 76, 72
2, 26701, Note_on_c, 0, 76, 0
2, 26702, Note_on_c, 0, 78, 72
2, 26715, Note_on_c, 0, 78, 0
2, 26716, Note_on_c, 0, 76, 72
2, 26729, Note_on_c, 0, 76, 0
2, 26730, Note_on_c, 0, 78, 72
2, 26743, Note_on_c, 0, 78, 0
2, 26744, Note_on_c, 0, 76, 72
2, 26757, Note_on_c, 0, 76, 0
2, 26758, Note_on_c, 0, 74, 72
2, 26770, Note_on_c, 0, 74, 0
2, 26771, Note_on_c, 0, 76, 72
2, 26783, Note_on_c, 0, 76, 0
2, 26784, Note_on_c, 0, 74, 72
2, 26873, Note_on_c, 0, 74, 0
2, 26976, Note_on_c, 0, 81, 72
2, 27043, Note_on_c, 0, 81, 0
2, 27048, Note_on_c, 0, 78, 72
2, 27071, Note_on_c, 0, 78, 0
2, 27072, Note_on_c, 0, 86, 72
2, 27139, Note_on_c, 0, 86, 0
2, 27144, Note_on_c, 0, 81, 72
2, 27167, Note_on_c, 0, 81, 0
2, 27168, Note_on_c, 0, 83, 72
2, 27235, Note_on_c, 0, 83, 0
2, 27240, Note_on_c, 0, 80, 72
2, 27263, Note_on_c, 0, 80, 0
2, 27264, Note_on_c, 0, 81, 72
2, 27331, Note_on_c, 0, 81, 0
2, 27336, Note_on_c, 0, 76, 72
2, 27359, Note_on_c, 0, 76, 0
2, 27360, Note_on_c, 0, 79, 72
2, 27427, Note_on_c, 0, 79, 0
2, 27432, Note_on_c, 0, 74, 72
2, 27455, Note_on_c, 0, 74, 0
2, 27456, Note_on_c, 0, 78, 72
2, 27523, Note_on_c, 0, 78, 0
2, 27528, Note_on_c, 0, 73, 72
2, 27551, Note_on_c, 0, 73, 0
2, 27552, Note_on_c, 0, 76, 72
2, 27619, Note_on_c, 0, 76, 0
2, 27624, Note_on_c, 0, 71, 72
2, 27647, Note_on_c, 0, 71, 0
2, 27648, Note_on_c, 0, 74, 72
2, 27715, Note_on_c, 0, 74, 0
2, 27720, Note_on_c, 0, 69, 72
2, 27743, Note_on_c, 0, 69, 0
2, 27744, Note_on_c, 0, 73, 72
2, 27833, Note_on_c, 0, 73, 0
2, 27840, Note_on_c, 0, 74, 72
2, 27929, Note_on_c, 0, 74, 0
2, 27936, Note_on_c, 0, 78, 72
2, 27936, Note_on_c, 0, 74, 72
2, 28032, Note_on_c, 0, 78, 0
2, 28032, Note_on_c, 0, 74, 0
2, 28032, Note_on_c, 0, 76, 72
2, 28032, Note_on_c, 0, 73, 72
2, 28077, Note_on_c, 0, 76, 0
2, 28077, Note_on_c, 0, 73, 0
2, 28128, Note_on_c, 0, 81, 72
2, 28195, Note_on_c, 0, 81, 0
2, 28200, Note_on_c, 0, 78, 72
2, 28223, Note_on_c, 0, 78, 0
2, 28224, Note_on_c, 0, 86, 72
2, 28291, Note_on_c, 0, 86, 0
2, 28296, Note_on_c, 0, 81, 72
2, 28319, Note_on_c, 0, 81, 0
2, 28320, Note_on_c, 0, 83, 72
2, 28387, Note_on_c, 0, 83, 0
2, 28392, Note_on_c, 0, 80, 72
2, 28415, Note_on_c, 0, 80, 0
2, 28416, Note_on_c, 0, 81, 72
2, 28483, Note_on_c, 0, 81, 0
2, 28488, Note_on_c, 0, 76, 72
2, 28511, Note_on_c, 0, 76, 0
2, 28512, Note_on_c, 0, 79, 72
2, 28579, Note_on_c, 0, 79, 0
2, 28584, Note_on_c, 0, 74, 72
2, 28607, Note_on_c, 0, 74, 0
2, 28608, Note_on_c, 0, 78, 72
2, 28675, Note_on_c, 0, 78, 0
2, 28680, Note_on_c, 0, 73, 72
2, 28703, Note_on_c, 0, 73, 0
2, 28704, Note_on_c, 0, 76, 72
2, 28771, Note_on_c, 0, 76, 0
2, 28776, Note_on_c, 0, 71, 72
2, 28799, Note_on_c, 0, 71, 0
2, 28800, Note_on_c, 0, 74, 72
2, 28867, Note_on_c, 0, 74, 0
2, 28872, Note_on_c, 0, 69, 72
2, 28895, Note_on_c, 0, 69, 0
2, 28896, Note_on_c, 0, 78, 72
2, 28985, Note_on_c, 0, 78, 0
2, 28992, Note_on_c, 0, 76, 72
2, 29005, Note_on_c, 0, 76, 0
2, 29006, Note_on_c, 0, 78, 72
2, 29019, Note_on_c, 0, 78, 0
2, 29020, Note_on_c, 0, 76, 72
2, 29033, Note_on_c, 0, 76, 0
2, 29034, Note_on_c, 0, 78, 72
2, 29047, Note_on_c, 0, 78, 0
2, 29048, Note_on_c, 0, 76, 72
2, 29061, Note_on_c, 0, 76, 0
2, 29062, Note_on_c, 0, 74, 72
2, 29074, Note_on_c, 0, 74, 0
2, 29075, Note_on_c, 0, 76, 72
2, 29087, Note_on_c, 0, 76, 0
2, 29088, Note_on_c, 0, 74, 72
2, 29177, Note_on_c, 0, 74, 0
2, 29280, Note_on_c, 0, 67, 72
2, 29303, Note_on_c, 0, 67, 0
2, 29304, Note_on_c, 0, 65, 72
2, 29327, Note_on_c, 0, 65, 0
2, 29328, Note_on_c, 0, 64, 72
2, 29351, Note_on_c, 0, 64, 0
2, 29352, Note_on_c, 0, 62, 72
2, 29375, Note_on_c, 0, 62, 0
2, 29376, Note_on_c, 0, 74, 72
2, 29531, Note_on_c, 0, 74, 0
2, 29544, Note_on_c, 0, 69, 72
2, 29567, Note_on_c, 0, 69, 0
2, 29568, Note_on_c, 0, 77, 72
2, 29635, Note_on_c, 0, 77, 0
2, 29640, Note_on_c, 0, 69, 72
2, 29663, Note_on_c, 0, 69, 0
2, 29664, Note_on_c, 0, 69, 72
2, 29731, Note_on_c, 0, 69, 0
2, 29736, Note_on_c, 0, 68, 72
2, 29759, Note_on_c, 0, 68, 0
2, 29760, Note_on_c, 0, 67, 72
2, 29915, Note_on_c, 0, 67, 0
2, 29928, Note_on_c, 0, 64, 72
2, 29951, Note_on_c, 0, 64, 0
2, 29952, Note_on_c, 0, 65, 72
2, 30019, Note_on_c, 0, 65, 0
2, 30024, Note_on_c, 0, 62, 74
2, 30047, Note_on_c, 0, 62, 0
2, 30048, Note_on_c, 0, 69, 74
2, 30115, Note_on_c, 0, 69, 0
2, 30120, Note_on_c, 0, 65, 77
2, 30143, Note_on_c, 0, 65, 0
2, 30144, Note_on_c, 0, 70, 77
2, 30211, Note_on_c, 0, 70, 0
2, 30216, Note_on_c, 0, 62, 80
2, 30239, Note_on_c, 0, 62, 0
2, 30240, Note_on_c, 0, 62, 79
2, 30336, Note_on_c, 0, 62, 0
2, 30336, Note_on_c, 0, 61, 75
2, 30425, Note_on_c, 0, 61, 0
2, 30432, Note_on_c, 0, 70, 72
2, 30455, Note_on_c, 0, 70, 0
2, 30456, Note_on_c, 0, 69, 72
2, 30479, Note_on_c, 0, 69, 0
2, 30480, Note_on_c, 0, 67, 72
2, 30503, Note_on_c, 0, 67, 0
2, 30504, Note_on_c, 0, 65, 72
2, 30527, Note_on_c, 0, 65, 0
2, 30528, Note_on_c, 0, 72, 72
2, 30595, Note_on_c, 0, 72, 0
2, 30600, Note_on_c, 0, 69, 72
2, 30623, Note_on_c, 0, 69, 0
2, 30624, Note_on_c, 0, 77, 72
2, 30691, Note_on_c, 0, 77, 0
2, 30696, Note_on_c, 0, 72, 73
2, 30719, Note_on_c, 0, 72, 0
2, 30720, Note_on_c, 0, 81, 73
2, 30787, Note_on_c, 0, 81, 0
2, 30792, Note_on_c, 0, 77, 74
2, 30815, Note_on_c, 0, 77, 0
2, 30816, Note_on_c, 0, 82, 75
2, 30883, Note_on_c, 0, 82, 0
2, 30888, Note_on_c, 0, 77, 76
2, 30911, Note_on_c, 0, 77, 0
2, 30912, Note_on_c, 0, 86, 76
2, 30979, Note_on_c, 0, 86, 0
2, 30984, Note_on_c, 0, 77, 77
2, 31007, Note_on_c, 0, 77, 0
2, 31008, Note_on_c, 0, 88, 77
2, 31075, Note_on_c, 0, 88, 0
2, 31080, Note_on_c, 0, 79, 78
2, 31103, Note_on_c, 0, 79, 0
2, 31104, Note_on_c, 0, 89, 79
2, 31171, Note_on_c, 0, 89, 0
2, 31176, Note_on_c, 0, 77, 80
2, 31199, Note_on_c, 0, 77, 0
2, 31200, Note_on_c, 0, 81, 80
2, 31289, Note_on_c, 0, 81, 0
2, 31296, Note_on_c, 0, 79, 80
2, 31309, Note_on_c, 0, 79, 0
2, 31310, Note_on_c, 0, 81, 80
2, 31323, Note_on_c, 0, 81, 0
2, 31324, Note_on_c, 0, 79, 80
2, 31337, Note_on_c, 0, 79, 0
2, 31338, Note_on_c, 0, 81, 80
2, 31351, Note_on_c, 0, 81, 0
2, 31352, Note_on_c, 0, 79, 80
2, 31365, Note_on_c, 0, 79, 0
2, 31366, Note_on_c, 0, 77, 80
2, 31378, Note_on_c, 0, 77, 0
2, 31379, Note_on_c, 0, 79, 80
2, 31391, Note_on_c, 0, 79, 0
2, 31392, Note_on_c, 0, 77, 80
2, 31569, Note_on_c, 0, 77, 0
2, 31584, Note_on_c, 0, 67, 72
2, 31607, Note_on_c, 0, 67, 0
2, 31608, Note_on_c, 0, 65, 72
2, 31631, Note_on_c, 0, 65, 0
2, 31632, Note_on_c, 0, 64, 72
2, 31655, Note_on_c, 0, 64, 0
2, 31656, Note_on_c, 0, 62, 72
2, 31679, Note_on_c, 0, 62, 0
2, 31680, Note_on_c, 0, 74, 72
2, 31835, Note_on_c, 0, 74, 0
2, 31848, Note_on_c, 0, 69, 72
2, 31871, Note_on_c, 0, 69, 0
2, 31872, Note_on_c, 0, 77, 72
2, 31939, Note_on_c, 0, 77, 0
2, 31944, Note_on_c, 0, 69, 72
2, 31967, Note_on_c, 0, 69, 0
2, 31968, Note_on_c, 0, 69, 72
2, 32035, Note_on_c, 0, 69, 0
2, 32040, Note_on_c, 0, 68, 72
2, 32063, Note_on_c, 0, 68, 0
2, 32064, Note_on_c, 0, 67, 72
2, 32219, Note_on_c, 0, 67, 0
2, 32232, Note_on_c, 0, 64, 72
2, 32255, Note_on_c, 0, 64, 0
2, 32256, Note_on_c, 0, 65, 72
2, 32323, Note_on_c, 0, 65, 0
2, 32328, Note_on_c, 0, 62, 74
2, 32351, Note_on_c, 0, 62, 0
2, 32352, Note_on_c, 0, 69, 74
2, 32419, Note_on_c, 0, 69, 0
2, 32424, Note_on_c, 0, 65, 77
2, 32447, Note_on_c, 0, 65, 0
2, 32448, Note_on_c, 0, 70, 77
2, 32515, Note_on_c, 0, 70, 0
2, 32520, Note_on_c, 0, 62, 80
2, 32543, Note_on_c, 0, 62, 0
2, 32544, Note_on_c, 0, 62, 79
2, 32640, Note_on_c, 0, 62, 0
2, 32640, Note_on_c, 0, 61, 75
2, 32729, Note_on_c, 0, 61, 0
2, 32736, Note_on_c, 0, 70, 72
2, 32759, Note_on_c, 0, 70, 0
2, 32760, Note_on_c, 0, 69, 72
2, 32783, Note_on_c, 0, 69, 0
2, 32784, Note_on_c, 0, 67, 72
2, 32807, Note_on_c, 0, 67, 0
2, 32808, Note_on_c, 0, 65, 72
2, 32831, Note_on_c, 0, 65, 0
2, 32832, Note_on_c, 0, 72, 72
2, 32899, Note_on_c, 0, 72, 0
2, 32904, Note_on_c, 0, 69, 72
2, 32927, Note_on_c, 0, 69, 0
2, 32928, Note_on_c, 0, 77, 72
2, 32995, Note_on_c, 0, 77, 0
2, 33000, Note_on_c, 0, 72, 73
2, 33023, Note_on_c, 0, 72, 0
2, 33024, Note_on_c, 0, 81, 73
2, 33091, Note_on_c, 0, 81, 0
2, 33096, Note_on_c, 0, 77, 74
2, 33119, Note_on_c, 0, 77, 0
2, 33120, Note_on_c, 0, 82, 75
2, 33187, Note_on_c, 0, 82, 0
2, 33192, Note_on_c, 0, 77, 76
2, 33215, Note_on_c, 0, 77, 0
2, 33216, Note_on_c, 0, 86, 76
2, 33283, Note_on_c, 0, 86, 0
2, 33288, Note_on_c, 0, 77, 77
2, 33311, Note_on_c, 0, 77, 0
2, 33312, Note_on_c, 0, 88, 77
2, 33379, Note_on_c, 0, 88, 0
2, 33384, Note_on_c, 0, 79, 78
2, 33407, Note_on_c, 0, 79, 0
2, 33408, Note_on_c, 0, 89, 79
2, 33475, Note_on_c, 0, 89, 0
2, 33480, Note_on_c, 0, 77, 80
2, 33503, Note_on_c, 0, 77, 0
2, 33504, Note_on_c, 0, 81, 80
2, 33593, Note_on_c, 0, 81, 0
2, 33600, Note_on_c, 0, 79, 80
2, 33613, Note_on_c, 0, 79, 0
2, 33614, Note_on_c, 0, 81, 80
2, 33627, Note_on_c, 0, 81, 0
2, 33628, Note_on_c, 0, 79, 80
2, 33641, Note_on_c, 0, 79, 0
2, 33642, Note_on_c, 0, 81, 80
2, 33655, Note_on_c, 0, 81, 0
2, 33656, Note_on_c, 0, 79, 80
2, 33669, Note_on_c, 0, 79, 0
2, 33670, Note_on_c, 0, 77, 80
2, 33682, Note_on_c, 0, 77, 0
2, 33683, Note_on_c, 0, 79, 80
2, 33695, Note_on_c, 0, 79, 0
2, 33696, Note_on_c, 0, 77, 80
2, 33873, Note_on_c, 0, 77, 0
2, 33888, Note_on_c, 0, 82, 72
2, 33911, Note_on_c, 0, 82, 0
2, 33912, Note_on_c, 0, 81, 72
2, 33935, Note_on_c, 0, 81, 0
2, 33936, Note_on_c, 0, 79, 72
2, 33959, Note_on_c, 0, 79, 0
2, 33960, Note_on_c, 0, 77, 72
2, 33983, Note_on_c, 0, 77, 0
2, 33984, Note_on_c, 0, 84, 88
2, 34152, Note_on_c, 0, 84, 0
2, 34152, Note_on_c, 0, 75, 72
2, 34175, Note_on_c, 0, 75, 0
2, 34176, Note_on_c, 0, 77, 72
2, 34243, Note_on_c, 0, 77, 0
2, 34248, Note_on_c, 0, 75, 72
2, 34271, Note_on_c, 0, 75, 0
2, 34272, Note_on_c, 0, 74, 72
2, 34339, Note_on_c, 0, 74, 0
2, 34344, Note_on_c, 0, 81, 75
2, 34367, Note_on_c, 0, 81, 0
2, 34368, Note_on_c, 0, 86, 76
2, 34435, Note_on_c, 0, 86, 0
2, 34440, Note_on_c, 0, 81, 80
2, 34463, Note_on_c, 0, 81, 0
2, 34464, Note_on_c, 0, 82, 78
2, 34531, Note_on_c, 0, 82, 0
2, 34536, Note_on_c, 0, 79, 73
2, 34559, Note_on_c, 0, 79, 0
2, 34560, Note_on_c, 0, 84, 72
2, 34627, Note_on_c, 0, 84, 0
2, 34632, Note_on_c, 0, 79, 74
2, 34655, Note_on_c, 0, 79, 0
2, 34656, Note_on_c, 0, 81, 75
2, 34723, Note_on_c, 0, 81, 0
2, 34728, Note_on_c, 0, 77, 77
2, 34751, Note_on_c, 0, 77, 0
2, 34752, Note_on_c, 0, 82, 78
2, 34797, Note_on_c, 0, 82, 0
2, 34800, Note_on_c, 0, 79, 80
2, 34823, Note_on_c, 0, 79, 0
2, 34824, Note_on_c, 0, 76, 80
2, 34847, Note_on_c, 0, 76, 0
2, 34848, Note_on_c, 0, 74, 79
2, 34944, Note_on_c, 0, 74, 0
2, 34944, Note_on_c, 0, 73, 75
2, 35033, Note_on_c, 0, 73, 0
2, 35040, Note_on_c, 0, 69, 72
2, 35063, Note_on_c, 0, 69, 0
2, 35064, Note_on_c, 0, 67, 72
2, 35087, Note_on_c, 0, 67, 0
2, 35088, Note_on_c, 0, 65, 72
2, 35111, Note_on_c, 0, 65, 0
2, 35112, Note_on_c, 0, 64, 72
2, 35135, Note_on_c, 0, 64, 0
2, 35136, Note_on_c, 0, 79, 88
2, 35304, Note_on_c, 0, 79, 0
2, 35304, Note_on_c, 0, 76, 74
2, 35327, Note_on_c, 0, 76, 0
2, 35328, Note_on_c, 0, 85, 74
2, 35395, Note_on_c, 0, 85, 0
2, 35400, Note_on_c, 0, 82, 75
2, 35423, Note_on_c, 0, 82, 0
2, 35424, Note_on_c, 0, 86, 76
2, 35491, Note_on_c, 0, 86, 0
2, 35496, Note_on_c, 0, 81, 77
2, 35519, Note_on_c, 0, 81, 0
2, 35520, Note_on_c, 0, 88, 77
2, 35587, Note_on_c, 0, 88, 0
2, 35592, Note_on_c, 0, 81, 78
2, 35615, Note_on_c, 0, 81, 0
2, 35616, Note_on_c, 0, 89, 94
2, 35688, Note_on_c, 0, 89, 0
2, 35688, Note_on_c, 0, 86, 80
2, 35711, Note_on_c, 0, 86, 0
2, 35712, Note_on_c, 0, 84, 80
2, 35735, Note_on_c, 0, 84, 0
2, 35736, Note_on_c, 0, 82, 79
2, 35759, Note_on_c, 0, 82, 0
2, 35760, Note_on_c, 0, 81, 78
2, 35783, Note_on_c, 0, 81, 0
2, 35784, Note_on_c, 0, 79, 78
2, 35807, Note_on_c, 0, 79, 0
2, 35808, Note_on_c, 0, 77, 77
2, 35897, Note_on_c, 0, 77, 0
2, 35904, Note_on_c, 0, 76, 74
2, 35917, Note_on_c, 0, 76, 0
2, 35918, Note_on_c, 0, 77, 74
2, 35931, Note_on_c, 0, 77, 0
2, 35932, Note_on_c, 0, 76, 74
2, 35945, Note_on_c, 0, 76, 0
2, 35946, Note_on_c, 0, 77, 73
2, 35959, Note_on_c, 0, 77, 0
2, 35960, Note_on_c, 0, 76, 73
2, 35973, Note_on_c, 0, 76, 0
2, 35974, Note_on_c, 0, 74, 73
2, 35986, Note_on_c, 0, 74, 0
2, 35987, Note_on_c, 0, 76, 72
2, 35999, Note_on_c, 0, 76, 0
2, 36000, Note_on_c, 0, 74, 72
2, 36177, Note_on_c, 0, 74, 0
2, 36192, Note_on_c, 0, 82, 72
2, 36215, Note_on_c, 0, 82, 0
2, 36216, Note_on_c, 0, 81, 72
2, 36239, Note_on_c, 0, 81, 0
2, 36240, Note_on_c, 0, 79, 72
2, 36263, Note_on_c, 0, 79, 0
2, 36264, Note_on_c, 0, 77, 72
2, 36287, Note_on_c, 0, 77, 0
2, 36288, Note_on_c, 0, 84, 88
2, 36456, Note_on_c, 0, 84, 0
2, 36456, Note_on_c, 0, 75, 72
2, 36479, Note_on_c, 0, 75, 0
2, 36480, Note_on_c, 0, 77, 72
2, 36547, Note_on_c, 0, 77, 0
2, 36552, Note_on_c, 0, 75, 72
2, 36575, Note_on_c, 0, 75, 0
2, 36576, Note_on_c, 0, 74, 72
2, 36643, Note_on_c, 0, 74, 0
2, 36648, Note_on_c, 0, 81, 75
2, 36671, Note_on_c, 0, 81, 0
2, 36672, Note_on_c, 0, 86, 76
2, 36739, Note_on_c, 0, 86, 0
2, 36744, Note_on_c, 0, 81, 80
2, 36767, Note_on_c, 0, 81, 0
2, 36768, Note_on_c, 0, 82, 78
2, 36835, Note_on_c, 0, 82, 0
2, 36840, Note_on_c, 0, 79, 73
2, 36863, Note_on_c, 0, 79, 0
2, 36864, Note_on_c, 0, 84, 72
2, 36931, Note_on_c, 0, 84, 0
2, 36936, Note_on_c, 0, 79, 74
2, 36959, Note_on_c, 0, 79, 0
2, 36960, Note_on_c, 0, 81, 75
2, 37027, Note_on_c, 0, 81, 0
2, 37032, Note_on_c, 0, 77, 77
2, 37055, Note_on_c, 0, 77, 0
2, 37056, Note_on_c, 0, 82, 78
2, 37101, Note_on_c, 0, 82, 0
2, 37104, Note_on_c, 0, 79, 80
2, 37127, Note_on_c, 0, 79, 0
2, 37128, Note_on_c, 0, 76, 80
2, 37151, Note_on_c, 0, 76, 0
2, 37152, Note_on_c, 0, 74, 79
2, 37248, Note_on_c, 0, 74, 0
2, 37248, Note_on_c, 0, 73, 75
2, 37337, Note_on_c, 0, 73, 0
2, 37344, Note_on_c, 0, 69, 72
2, 37367, Note_on_c, 0, 69, 0
2, 37368, Note_on_c, 0, 67, 72
2, 37391, Note_on_c, 0, 67, 0
2, 37392, Note_on_c, 0, 65, 72
2, 37415, Note_on_c, 0, 65, 0
2, 37416, Note_on_c, 0, 64, 72
2, 37439, Note_on_c, 0, 64, 0
2, 37440, Note_on_c, 0, 79, 88
2, 37608, Note_on_c, 0, 79, 0
2, 37608, Note_on_c, 0, 76, 74
2, 37631, Note_on_c, 0, 76, 0
2, 37632, Note_on_c, 0, 85, 74
2, 37699, Note_on_c, 0, 85, 0
2, 37704, Note_on_c, 0, 82, 75
2, 37727, Note_on_c, 0, 82, 0
2, 37728, Note_on_c, 0, 86, 76
2, 37795, Note_on_c, 0, 86, 0
2, 37800, Note_on_c, 0, 81, 77
2, 37823, Note_on_c, 0, 81, 0
2, 37824, Note_on_c, 0, 88, 77
2, 37891, Note_on_c, 0, 88, 0
2, 37896, Note_on_c, 0, 81, 78
2, 37919, Note_on_c, 0, 81, 0
2, 37920, Note_on_c, 0, 89, 94
2, 37992, Note_on_c, 0, 89, 0
2, 37992, Note_on_c, 0, 86, 80
2, 38015, Note_on_c, 0, 86, 0
2, 38016, Note_on_c, 0, 84, 80
2, 38039, Note_on_c, 0, 84, 0
2, 38040, Note_on_c, 0, 82, 79
2, 38063, Note_on_c, 0, 82, 0
2, 38064, Note_on_c, 0, 81, 78
2, 38087, Note_on_c, 0, 81, 0
2, 38088, Note_on_c, 0, 79, 78
2, 38111, Note_on_c, 0, 79, 0
2, 38112, Note_on_c, 0, 77, 77
2, 38201, Note_on_c, 0, 77, 0
2, 38208, Note_on_c, 0, 76, 74
2, 38221, Note_on_c, 0, 76, 0
2, 38222, Note_on_c, 0, 77, 74
2, 38235, Note_on_c, 0, 77, 0
2, 38236, Note_on_c, 0, 76, 74
2, 38249, Note_on_c, 0, 76, 0
2, 38250, Note_on_c, 0, 77, 73
2, 38263, Note_on_c, 0, 77, 0
2, 38264, Note_on_c, 0, 76, 73
2, 38277, Note_on_c, 0, 76, 0
2, 38278, Note_on_c, 0, 74, 73
2, 38290, Note_on_c, 0, 74, 0
2, 38291, Note_on_c, 0, 76, 72
2, 38303, Note_on_c, 0, 76, 0
2, 38304, Note_on_c, 0, 74, 72
2, 38481, Note_on_c, 0, 74, 0
2, 38496, Note_on_c, 0, 67, 72
2, 38519, Note_on_c, 0, 67, 0
2, 38520, Note_on_c, 0, 66, 72
2, 38543, Note_on_c, 0, 66, 0
2, 38544, Note_on_c, 0, 64, 72
2, 38567, Note_on_c, 0, 64, 0
2, 38568, Note_on_c, 0, 62, 72
2, 38591, Note_on_c, 0, 62, 0
2, 38592, Note_on_c, 0, 74, 72
2, 38637, Note_on_c, 0, 74, 0
2, 38640, Note_on_c, 0, 74, 72
2, 38685, Note_on_c, 0, 74, 0
2, 38736, Note_on_c, 0, 74, 72
2, 38781, Note_on_c, 0, 74, 0
2, 38784, Note_on_c, 0, 76, 72
2, 38807, Note_on_c, 0, 76, 0
2, 38808, Note_on_c, 0, 74, 72
2, 38831, Note_on_c, 0, 74, 0
2, 38832, Note_on_c, 0, 73, 72
2, 38855, Note_on_c, 0, 73, 0
2, 38856, Note_on_c, 0, 74, 72
2, 38879, Note_on_c, 0, 74, 0
2, 38880, Note_on_c, 0, 73, 72
2, 38925, Note_on_c, 0, 73, 0
2, 38928, Note_on_c, 0, 79, 72
2, 38973, Note_on_c, 0, 79, 0
2, 39024, Note_on_c, 0, 79, 72
2, 39069, Note_on_c, 0, 79, 0
2, 39072, Note_on_c, 0, 81, 72
2, 39095, Note_on_c, 0, 81, 0
2, 39096, Note_on_c, 0, 79, 72
2, 39119, Note_on_c, 0, 79, 0
2, 39120, Note_on_c, 0, 78, 72
2, 39143, Note_on_c, 0, 78, 0
2, 39144, Note_on_c, 0, 76, 72
2, 39167, Note_on_c, 0, 76, 0
2, 39168, Note_on_c, 0, 79, 72
2, 39191, Note_on_c, 0, 79, 0
2, 39192, Note_on_c, 0, 78, 72
2, 39215, Note_on_c, 0, 78, 0
2, 39216, Note_on_c, 0, 76, 73
2, 39239, Note_on_c, 0, 76, 0
2, 39240, Note_on_c, 0, 74, 74
2, 39263, Note_on_c, 0, 74, 0
2, 39264, Note_on_c, 0, 83, 75
2, 39287, Note_on_c, 0, 83, 0
2, 39288, Note_on_c, 0, 81, 76
2, 39311, Note_on_c, 0, 81, 0
2, 39312, Note_on_c, 0, 79, 76
2, 39335, Note_on_c, 0, 79, 0
2, 39336, Note_on_c, 0, 78, 77
2, 39359, Note_on_c, 0, 78, 0
2, 39360, Note_on_c, 0, 83, 78
2, 39383, Note_on_c, 0, 83, 0
2, 39384, Note_on_c, 0, 85, 79
2, 39407, Note_on_c, 0, 85, 0
2, 39408, Note_on_c, 0, 86, 80
2, 39431, Note_on_c, 0, 86, 0
2, 39432, Note_on_c, 0, 79, 80
2, 39455, Note_on_c, 0, 79, 0
2, 39456, Note_on_c, 0, 78, 80
2, 39456, Note_on_c, 0, 74, 80
2, 39552, Note_on_c, 0, 78, 0
2, 39552, Note_on_c, 0, 74, 0
2, 39552, Note_on_c, 0, 76, 76
2, 39552, Note_on_c, 0, 73, 76
2, 39641, Note_on_c, 0, 76, 0
2, 39641, Note_on_c, 0, 73, 0
2, 39648, Note_on_c, 0, 67, 72
2, 39671, Note_on_c, 0, 67, 0
2, 39672, Note_on_c, 0, 66, 72
2, 39695, Note_on_c, 0, 66, 0
2, 39696, Note_on_c, 0, 64, 72
2, 39719, Note_on_c, 0, 64, 0
2, 39720, Note_on_c, 0, 62, 72
2, 39743, Note_on_c, 0, 62, 0
2, 39744, Note_on_c, 0, 74, 72
2, 39789, Note_on_c, 0, 74, 0
2, 39792, Note_on_c, 0, 74, 72
2, 39837, Note_on_c, 0, 74, 0
2, 39888, Note_on_c, 0, 74, 72
2, 39933, Note_on_c, 0, 74, 0
2, 39936, Note_on_c, 0, 76, 72
2, 39959, Note_on_c, 0, 76, 0
2, 39960, Note_on_c, 0, 74, 72
2, 39983, Note_on_c, 0, 74, 0
2, 39984, Note_on_c, 0, 73, 72
2, 40007, Note_on_c, 0, 73, 0
2, 40008, Note_on_c, 0, 74, 72
2, 40031, Note_on_c, 0, 74, 0
2, 40032, Note_on_c, 0, 73, 72
2, 40077, Note_on_c, 0, 73, 0
2, 40080, Note_on_c, 0, 79, 72
2, 40125, Note_on_c, 0, 79, 0
2, 40128, Note_on_c, 0, 81, 72
2, 40151, Note_on_c, 0, 81, 0
2, 40152, Note_on_c, 0, 79, 72
2, 40175, Note_on_c, 0, 79, 0
2, 40176, Note_on_c, 0, 78, 72
2, 40199, Note_on_c, 0, 78, 0
2, 40200, Note_on_c, 0, 76, 72
2, 40223, Note_on_c, 0, 76, 0
2, 40224, Note_on_c, 0, 79, 72
2, 40247, Note_on_c, 0, 79, 0
2, 40248, Note_on_c, 0, 78, 72
2, 40271, Note_on_c, 0, 78, 0
2, 40272, Note_on_c, 0, 76, 72
2, 40295, Note_on_c, 0, 76, 0
2, 40296, Note_on_c, 0, 74, 72
2, 40319, Note_on_c, 0, 74, 0
2, 40320, Note_on_c, 0, 83, 72
2, 40343, Note_on_c, 0, 83, 0
2, 40344, Note_on_c, 0, 85, 72
2, 40367, Note_on_c, 0, 85, 0
2, 40368, Note_on_c, 0, 86, 72
2, 40391, Note_on_c, 0, 86, 0
2, 40392, Note_on_c, 0, 79, 72
2, 40415, Note_on_c, 0, 79, 0
2, 40416, Note_on_c, 0, 78, 72
2, 40439, Note_on_c, 0, 78, 0
2, 40440, Note_on_c, 0, 79, 72
2, 40463, Note_on_c, 0, 79, 0
2, 40464, Note_on_c, 0, 81, 72
2, 40487, Note_on_c, 0, 81, 0
2, 40488, Note_on_c, 0, 74, 72
2, 40511, Note_on_c, 0, 74, 0
2, 40512, Note_on_c, 0, 76, 72
2, 40535, Note_on_c, 0, 76, 0
2, 40536, Note_on_c, 0, 78, 72
2, 40559, Note_on_c, 0, 78, 0
2, 40560, Note_on_c, 0, 79, 72
2, 40583, Note_on_c, 0, 79, 0
2, 40584, Note_on_c, 0, 73, 72
2, 40607, Note_on_c, 0, 73, 0
2, 40608, Note_on_c, 0, 74, 72
2, 40697, Note_on_c, 0, 74, 0
2, 40800, Note_on_c, 0, 67, 72
2, 40823, Note_on_c, 0, 67, 0
2, 40824, Note_on_c, 0, 66, 72
2, 40847, Note_on_c, 0, 66, 0
2, 40848, Note_on_c, 0, 64, 72
2, 40871, Note_on_c, 0, 64, 0
2, 40872, Note_on_c, 0, 62, 72
2, 40895, Note_on_c, 0, 62, 0
2, 40896, Note_on_c, 0, 74, 72
2, 40941, Note_on_c, 0, 74, 0
2, 40944, Note_on_c, 0, 74, 72
2, 40989, Note_on_c, 0, 74, 0
2, 41040, Note_on_c, 0, 74, 72
2, 41085, Note_on_c, 0, 74, 0
2, 41088, Note_on_c, 0, 76, 72
2, 41111, Note_on_c, 0, 76, 0
2, 41112, Note_on_c, 0, 74, 72
2, 41135, Note_on_c, 0, 74, 0
2, 41136, Note_on_c, 0, 73, 72
2, 41159, Note_on_c, 0, 73, 0
2, 41160, Note_on_c, 0, 74, 72
2, 41183, Note_on_c, 0, 74, 0
2, 41184, Note_on_c, 0, 73, 72
2, 41229, Note_on_c, 0, 73, 0
2, 41232, Note_on_c, 0, 79, 72
2, 41277, Note_on_c, 0, 79, 0
2, 41328, Note_on_c, 0, 79, 72
2, 41373, Note_on_c, 0, 79, 0
2, 41376, Note_on_c, 0, 81, 72
2, 41399, Note_on_c, 0, 81, 0
2, 41400, Note_on_c, 0, 79, 72
2, 41423, Note_on_c, 0, 79, 0
2, 41424, Note_on_c, 0, 78, 72
2, 41447, Note_on_c, 0, 78, 0
2, 41448, Note_on_c, 0, 76, 72
2, 41471, Note_on_c, 0, 76, 0
2, 41472, Note_on_c, 0, 79, 72
2, 41495, Note_on_c, 0, 79, 0
2, 41496, Note_on_c, 0, 78, 72
2, 41519, Note_on_c, 0, 78, 0
2, 41520, Note_on_c, 0, 76, 73
2, 41543, Note_on_c, 0, 76, 0
2, 41544, Note_on_c, 0, 74, 74
2, 41567, Note_on_c, 0, 74, 0
2, 41568, Note_on_c, 0, 83, 75
2, 41591, Note_on_c, 0, 83, 0
2, 41592, Note_on_c, 0, 81, 76
2, 41615, Note_on_c, 0, 81, 0
2, 41616, Note_on_c, 0, 79, 76
2, 41639, Note_on_c, 0, 79, 0
2, 41640, Note_on_c, 0, 78, 77
2, 41663, Note_on_c, 0, 78, 0
2, 41664, Note_on_c, 0, 83, 78
2, 41687, Note_on_c, 0, 83, 0
2, 41688, Note_on_c, 0, 85, 79
2, 41711, Note_on_c, 0, 85, 0
2, 41712, Note_on_c, 0, 86, 80
2, 41735, Note_on_c, 0, 86, 0
2, 41736, Note_on_c, 0, 79, 80
2, 41759, Note_on_c, 0, 79, 0
2, 41760, Note_on_c, 0, 78, 80
2, 41760, Note_on_c, 0, 74, 80
2, 41856, Note_on_c, 0, 78, 0
2, 41856, Note_on_c, 0, 74, 0
2, 41856, Note_on_c, 0, 76, 76
2, 41856, Note_on_c, 0, 73, 76
2, 41945, Note_on_c, 0, 76, 0
2, 41945, Note_on_c, 0, 73, 0
2, 41952, Note_on_c, 0, 67, 72
2, 41975, Note_on_c, 0, 67, 0
2, 41976, Note_on_c, 0, 66, 72
2, 41999, Note_on_c, 0, 66, 0
2, 42000, Note_on_c, 0, 64, 72
2, 42023, Note_on_c, 0, 64, 0
2, 42024, Note_on_c, 0, 62, 72
2, 42047, Note_on_c, 0, 62, 0
2, 42048, Note_on_c, 0, 74, 72
2, 42093, Note_on_c, 0, 74, 0
2, 42096, Note_on_c, 0, 74, 72
2, 42141, Note_on_c, 0, 74, 0
2, 42192, Note_on_c, 0, 74, 72
2, 42237, Note_on_c, 0, 74, 0
2, 42240, Note_on_c, 0, 76, 72
2, 42263, Note_on_c, 0, 76, 0
2, 42264, Note_on_c, 0, 74, 72
2, 42287, Note_on_c, 0, 74, 0
2, 42288, Note_on_c, 0, 73, 72
2, 42311, Note_on_c, 0, 73, 0
2, 42312, Note_on_c, 0, 74, 72
2, 42335, Note_on_c, 0, 74, 0
2, 42336, Note_on_c, 0, 73, 72
2, 42381, Note_on_c, 0, 73, 0
2, 42384, Note_on_c, 0, 79, 72
2, 42429, Note_on_c, 0, 79, 0
2, 42432, Note_on_c, 0, 81, 72
2, 42455, Note_on_c, 0, 81, 0
2, 42456, Note_on_c, 0, 79, 72
2, 42479, Note_on_c, 0, 79, 0
2, 42480, Note_on_c, 0, 78, 72
2, 42503, Note_on_c, 0, 78, 0
2, 42504, Note_on_c, 0, 76, 72
2, 42527, Note_on_c, 0, 76, 0
2, 42528, Note_on_c, 0, 79, 72
2, 42551, Note_on_c, 0, 79, 0
2, 42552, Note_on_c, 0, 78, 72
2, 42575, Note_on_c, 0, 78, 0
2, 42576, Note_on_c, 0, 76, 72
2, 42599, Note_on_c, 0, 76, 0
2, 42600, Note_on_c, 0, 74, 72
2, 42623, Note_on_c, 0, 74, 0
2, 42624, Note_on_c, 0, 83, 72
2, 42647, Note_on_c, 0, 83, 0
2, 42648, Note_on_c, 0, 85, 72
2, 42671, Note_on_c, 0, 85, 0
2, 42672, Note_on_c, 0, 86, 72
2, 42695, Note_on_c, 0, 86, 0
2, 42696, Note_on_c, 0, 79, 72
2, 42719, Note_on_c, 0, 79, 0
2, 42720, Note_on_c, 0, 78, 72
2, 42743, Note_on_c, 0, 78, 0
2, 42744, Note_on_c, 0, 79, 72
2, 42767, Note_on_c, 0, 79, 0
2, 42768, Note_on_c, 0, 81, 72
2, 42791, Note_on_c, 0, 81, 0
2, 42792, Note_on_c, 0, 74, 72
2, 42815, Note_on_c, 0, 74, 0
2, 42816, Note_on_c, 0, 76, 72
2, 42839, Note_on_c, 0, 76, 0
2, 42840, Note_on_c, 0, 78, 72
2, 42863, Note_on_c, 0, 78, 0
2, 42864, Note_on_c, 0, 79, 72
2, 42887, Note_on_c, 0, 79, 0
2, 42888, Note_on_c, 0, 73, 72
2, 42911, Note_on_c, 0, 73, 0
2, 42912, Note_on_c, 0, 74, 72
2, 43001, Note_on_c, 0, 74, 0
2, 43104, Note_on_c, 0, 67, 72
2, 43127, Note_on_c, 0, 67, 0
2, 43128, Note_on_c, 0, 66, 72
2, 43151, Note_on_c, 0, 66, 0
2, 43152, Note_on_c, 0, 64, 72
2, 43175, Note_on_c, 0, 64, 0
2, 43176, Note_on_c, 0, 62, 72
2, 43199, Note_on_c, 0, 62, 0
2, 43200, Note_on_c, 0, 74, 72
2, 43245, Note_on_c, 0, 74, 0
2, 43248, Note_on_c, 0, 74, 72
2, 43293, Note_on_c, 0, 74, 0
2, 43344, Note_on_c, 0, 68, 72
2, 43389, Note_on_c, 0, 68, 0
2, 43392, Note_on_c, 0, 69, 72
2, 43415, Note_on_c, 0, 69, 0
2, 43416, Note_on_c, 0, 71, 72
2, 43439, Note_on_c, 0, 71, 0
2, 43440, Note_on_c, 0, 69, 72
2, 43463, Note_on_c, 0, 69, 0
2, 43464, Note_on_c, 0, 64, 72
2, 43487, Note_on_c, 0, 64, 0
2, 43488, Note_on_c, 0, 67, 72
2, 43533, Note_on_c, 0, 67, 0
2, 43536, Note_on_c, 0, 67, 72
2, 43581, Note_on_c, 0, 67, 0
2, 43632, Note_on_c, 0, 66, 72
2, 43677, Note_on_c, 0, 66, 0
2, 43680, Note_on_c, 0, 64, 72
2, 43703, Note_on_c, 0, 64, 0
2, 43704, Note_on_c, 0, 66, 72
2, 43727, Note_on_c, 0, 66, 0
2, 43728, Note_on_c, 0, 64, 72
2, 43751, Note_on_c, 0, 64, 0
2, 43752, Note_on_c, 0, 55, 72
2, 43775, Note_on_c, 0, 55, 0
2, 43776, Note_on_c, 0, 62, 72
2, 43799, Note_on_c, 0, 62, 0
2, 43800, Note_on_c, 0, 64, 73
2, 43823, Note_on_c, 0, 64, 0
2, 43824, Note_on_c, 0, 62, 74
2, 43847, Note_on_c, 0, 62, 0
2, 43848, Note_on_c, 0, 57, 75
2, 43871, Note_on_c, 0, 57, 0
2, 43872, Note_on_c, 0, 67, 76
2, 43895, Note_on_c, 0, 67, 0
2, 43896, Note_on_c, 0, 69, 77
2, 43919, Note_on_c, 0, 69, 0
2, 43920, Note_on_c, 0, 67, 78
2, 43943, Note_on_c, 0, 67, 0
2, 43944, Note_on_c, 0, 64, 79
2, 43967, Note_on_c, 0, 64, 0
2, 43968, Note_on_c, 0, 66, 80
2, 43991, Note_on_c, 0, 66, 0
2, 43992, Note_on_c, 0, 67, 80
2, 44015, Note_on_c, 0, 67, 0
2, 44016, Note_on_c, 0, 66, 80
2, 44039, Note_on_c, 0, 66, 0
2, 44040, Note_on_c, 0, 62, 80
2, 44063, Note_on_c, 0, 62, 0
2, 44064, Note_on_c, 0, 66, 80
2, 44064, Note_on_c, 0, 62, 80
2, 44160, Note_on_c, 0, 66, 0
2, 44160, Note_on_c, 0, 62, 0
2, 44160, Note_on_c, 0, 64, 76
2, 44160, Note_on_c, 0, 61, 76
2, 44249, Note_on_c, 0, 64, 0
2, 44249, Note_on_c, 0, 61, 0
2, 44256, Note_on_c, 0, 79, 72
2, 44279, Note_on_c, 0, 79, 0
2, 44280, Note_on_c, 0, 78, 72
2, 44303, Note_on_c, 0, 78, 0
2, 44304, Note_on_c, 0, 76, 72
2, 44327, Note_on_c, 0, 76, 0
2, 44328, Note_on_c, 0, 74, 72
2, 44351, Note_on_c, 0, 74, 0
2, 44352, Note_on_c, 0, 86, 72
2, 44397, Note_on_c, 0, 86, 0
2, 44400, Note_on_c, 0, 86, 72
2, 44445, Note_on_c, 0, 86, 0
2, 44496, Note_on_c, 0, 80, 72
2, 44541, Note_on_c, 0, 80, 0
2, 44544, Note_on_c, 0, 80, 72
2, 44567, Note_on_c, 0, 80, 0
2, 44568, Note_on_c, 0, 81, 72
2, 44591, Note_on_c, 0, 81, 0
2, 44592, Note_on_c, 0, 83, 72
2, 44615, Note_on_c, 0, 83, 0
2, 44616, Note_on_c, 0, 81, 72
2, 44639, Note_on_c, 0, 81, 0
2, 44640, Note_on_c, 0, 81, 72
2, 44663, Note_on_c, 0, 81, 0
2, 44664, Note_on_c, 0, 79, 72
2, 44687, Note_on_c, 0, 79, 0
2, 44688, Note_on_c, 0, 78, 72
2, 44711, Note_on_c, 0, 78, 0
2, 44712, Note_on_c, 0, 79, 72
2, 44735, Note_on_c, 0, 79, 0
2, 44736, Note_on_c, 0, 81, 72
2, 44759, Note_on_c, 0, 81, 0
2, 44760, Note_on_c, 0, 79, 72
2, 44783, Note_on_c, 0, 79, 0
2, 44784, Note_on_c, 0, 78, 72
2, 44807, Note_on_c, 0, 78, 0
2, 44808, Note_on_c, 0, 79, 72
2, 44831, Note_on_c, 0, 79, 0
2, 44832, Note_on_c, 0, 79, 72
2, 44855, Note_on_c, 0, 79, 0
2, 44856, Note_on_c, 0, 78, 72
2, 44879, Note_on_c, 0, 78, 0
2, 44880, Note_on_c, 0, 76, 72
2, 44903, Note_on_c, 0, 76, 0
2, 44904, Note_on_c, 0, 78, 72
2, 44927, Note_on_c, 0, 78, 0
2, 44928, Note_on_c, 0, 81, 72
2, 44973, Note_on_c, 0, 81, 0
2, 45000, Note_on_c, 0, 83, 72
2, 45023, Note_on_c, 0, 83, 0
2, 45024, Note_on_c, 0, 74, 72
2, 45113, Note_on_c, 0, 74, 0
2, 45120, Note_on_c, 0, 76, 72
2, 45133, Note_on_c, 0, 76, 0
2, 45134, Note_on_c, 0, 78, 72
2, 45147, Note_on_c, 0, 78, 0
2, 45148, Note_on_c, 0, 76, 72
2, 45161, Note_on_c, 0, 76, 0
2, 45162, Note_on_c, 0, 78, 72
2, 45175, Note_on_c, 0, 78, 0
2, 45176, Note_on_c, 0, 76, 72
2, 45189, Note_on_c, 0, 76, 0
2, 45190, Note_on_c, 0, 74, 72
2, 45202, Note_on_c, 0, 74, 0
2, 45203, Note_on_c, 0, 76, 72
2, 45215, Note_on_c, 0, 76, 0
2, 45216, Note_on_c, 0, 74, 72
2, 45393, Note_on_c, 0, 74, 0
2, 45408, Note_on_c, 0, 67, 72
2, 45431, Note_on_c, 0, 67, 0
2, 45432, Note_on_c, 0, 66, 72
2, 45455, Note_on_c, 0, 66, 0
2, 45456, Note_on_c, 0, 64, 72
2, 45479, Note_on_c, 0, 64, 0
2, 45480, Note_on_c, 0, 62, 72
2, 45503, Note_on_c, 0, 62, 0
2, 45504, Note_on_c, 0, 74, 72
2, 45549, Note_on_c, 0, 74, 0
2, 45552, Note_on_c, 0, 74, 72
2, 45597, Note_on_c, 0, 74, 0
2, 45648, Note_on_c, 0, 68, 72
2, 45693, Note_on_c, 0, 68, 0
2, 45696, Note_on_c, 0, 69, 72
2, 45719, Note_on_c, 0, 69, 0
2, 45720, Note_on_c, 0, 71, 72
2, 45743, Note_on_c, 0, 71, 0
2, 45744, Note_on_c, 0, 69, 72
2, 45767, Note_on_c, 0, 69, 0
2, 45768, Note_on_c, 0, 64, 72
2, 45791, Note_on_c, 0, 64, 0
2, 45792, Note_on_c, 0, 67, 72
2, 45837, Note_on_c, 0, 67, 0
2, 45840, Note_on_c, 0, 67, 72
2, 45885, Note_on_c, 0, 67, 0
2, 45936, Note_on_c, 0, 66, 72
2, 45981, Note_on_c, 0, 66, 0
2, 45984, Note_on_c, 0, 64, 72
2, 46007, Note_on_c, 0, 64, 0
2, 46008, Note_on_c, 0, 66, 72
2, 46031, Note_on_c, 0, 66, 0
2, 46032, Note_on_c, 0, 64, 72
2, 46055, Note_on_c, 0, 64, 0
2, 46056, Note_on_c, 0, 55, 72
2, 46079, Note_on_c, 0, 55, 0
2, 46080, Note_on_c, 0, 62, 72
2, 46103, Note_on_c, 0, 62, 0
2, 46104, Note_on_c, 0, 64, 73
2, 46127, Note_on_c, 0, 64, 0
2, 46128, Note_on_c, 0, 62, 74
2, 46151, Note_on_c, 0, 62, 0
2, 46152, Note_on_c, 0, 57, 75
2, 46175, Note_on_c, 0, 57, 0
2, 46176, Note_on_c, 0, 67, 76
2, 46199, Note_on_c, 0, 67, 0
2, 46200, Note_on_c, 0, 69, 77
2, 46223, Note_on_c, 0, 69, 0
2, 46224, Note_on_c, 0, 67, 78
2, 46247, Note_on_c, 0, 67, 0
2, 46248, Note_on_c, 0, 64, 79
2, 46271, Note_on_c, 0, 64, 0
2, 46272, Note_on_c, 0, 66, 80
2, 46295, Note_on_c, 0, 66, 0
2, 46296, Note_on_c, 0, 67, 80
2, 46319, Note_on_c, 0, 67, 0
2, 46320, Note_on_c, 0, 66, 80
2, 46343, Note_on_c, 0, 66, 0
2, 46344, Note_on_c, 0, 62, 80
2, 46367, Note_on_c, 0, 62, 0
2, 46368, Note_on_c, 0, 66, 80
2, 46368, Note_on_c, 0, 62, 80
2, 46464, Note_on_c, 0, 66, 0
2, 46464, Note_on_c, 0, 62, 0
2, 46464, Note_on_c, 0, 64, 76
2, 46464, Note_on_c, 0, 61, 76
2, 46553, Note_on_c, 0, 64, 0
2, 46553, Note_on_c, 0, 61, 0
2, 46560, Note_on_c, 0, 79, 72
2, 46583, Note_on_c, 0, 79, 0
2, 46584, Note_on_c, 0, 78, 72
2, 46607, Note_on_c, 0, 78, 0
2, 46608, Note_on_c, 0, 76, 72
2, 46631, Note_on_c, 0, 76, 0
2, 46632, Note_on_c, 0, 74, 72
2, 46655, Note_on_c, 0, 74, 0
2, 46656, Note_on_c, 0, 86, 72
2, 46701, Note_on_c, 0, 86, 0
2, 46704, Note_on_c, 0, 86, 72
2, 46749, Note_on_c, 0, 86, 0
2, 46800, Note_on_c, 0, 80, 72
2, 46845, Note_on_c, 0, 80, 0
2, 46848, Note_on_c, 0, 80, 72
2, 46871, Note_on_c, 0, 80, 0
2, 46872, Note_on_c, 0, 81, 72
2, 46895, Note_on_c, 0, 81, 0
2, 46896, Note_on_c, 0, 83, 72
2, 46919, Note_on_c, 0, 83, 0
2, 46920, Note_on_c, 0, 81, 72
2, 46943, Note_on_c, 0, 81, 0
2, 46944, Note_on_c, 0, 81, 72
2, 46967, Note_on_c, 0, 81, 0
2, 46968, Note_on_c, 0, 79, 72
2, 46991, Note_on_c, 0, 79, 0
2, 46992, Note_on_c, 0, 78, 72
2, 47015, Note_on_c, 0, 78, 0
2, 47016, Note_on_c, 0, 79, 72
2, 47039, Note_on_c, 0, 79, 0
2, 47040, Note_on_c, 0, 81, 72
2, 47063, Note_on_c, 0, 81, 0
2, 47064, Note_on_c, 0, 79, 72
2, 47087, Note_on_c, 0, 79, 0
2, 47088, Note_on_c, 0, 78, 72
2, 47111, Note_on_c, 0, 78, 0
2, 47112, Note_on_c, 0, 79, 72
2, 47135, Note_on_c, 0, 79, 0
2, 47136, Note_on_c, 0, 79, 72
2, 47159, Note_on_c, 0, 79, 0
2, 47160, Note_on_c, 0, 78, 72
2, 47183, Note_on_c, 0, 78, 0
2, 47184, Note_on_c, 0, 76, 72
2, 47207, Note_on_c, 0, 76, 0
2, 47208, Note_on_c, 0, 78, 72
2, 47231, Note_on_c, 0, 78, 0
2, 47232, Note_on_c, 0, 81, 72
2, 47277, Note_on_c, 0, 81, 0
2, 47304, Note_on_c, 0, 83, 72
2, 47327, Note_on_c, 0, 83, 0
2, 47328, Note_on_c, 0, 74, 72
2, 47417, Note_on_c, 0, 74, 0
2, 47424, Note_on_c, 0, 76, 72
2, 47437, Note_on_c, 0, 76, 0
2, 47438, Note_on_c, 0, 78, 72
2, 47451, Note_on_c, 0, 78, 0
2, 47452, Note_on_c, 0, 76, 72
2, 47465, Note_on_c, 0, 76, 0
2, 47466, Note_on_c, 0, 78, 72
2, 47479, Note_on_c, 0, 78, 0
2, 47480, Note_on_c, 0, 76, 72
2, 47493, Note_on_c, 0, 76, 0
2, 47494, Note_on_c, 0, 74, 72
2, 47506, Note_on_c, 0, 74, 0
2, 47507, Note_on_c, 0, 76, 72
2, 47519, Note_on_c, 0, 76, 0
2, 47520, Note_on_c, 0, 74, 72
2, 47697, Note_on_c, 0, 74, 0
2, 47712, Note_on_c, 0, 67, 72
2, 47735, Note_on_c, 0, 67, 0
2, 47736, Note_on_c, 0, 65, 72
2, 47759, Note_on_c, 0, 65, 0
2, 47760, Note_on_c, 0, 64, 72
2, 47783, Note_on_c, 0, 64, 0
2, 47784, Note_on_c, 0, 62, 72
2, 47807, Note_on_c, 0, 62, 0
2, 47808, Note_on_c, 0, 74, 72
2, 47941, Note_on_c, 0, 74, 0
2, 47952, Note_on_c, 0, 76, 72
2, 48041, Note_on_c, 0, 76, 0
2, 48048, Note_on_c, 0, 77, 72
2, 48141, Note_on_c, 0, 77, 0
2, 48144, Note_on_c, 0, 69, 72
2, 48233, Note_on_c, 0, 69, 0
2, 48240, Note_on_c, 0, 68, 74
2, 48329, Note_on_c, 0, 68, 0
2, 48336, Note_on_c, 0, 67, 76
2, 48429, Note_on_c, 0, 67, 0
2, 48432, Note_on_c, 0, 65, 78
2, 48521, Note_on_c, 0, 65, 0
2, 48528, Note_on_c, 0, 69, 80
2, 48548, Note_on_c, 0, 69, 0
2, 48576, Note_on_c, 0, 70, 80
2, 48588, Note_on_c, 0, 70, 0
2, 48588, Note_on_c, 0, 69, 80
2, 48600, Note_on_c, 0, 69, 0
2, 48600, Note_on_c, 0, 67, 80
2, 48612, Note_on_c, 0, 67, 0
2, 48612, Note_on_c, 0, 69, 80
2, 48624, Note_on_c, 0, 69, 0
2, 48624, Note_on_c, 0, 69, 80
2, 48643, Note_on_c, 0, 69, 0
2, 48648, Note_on_c, 0, 70, 80
2, 48671, Note_on_c, 0, 70, 0
2, 48672, Note_on_c, 0, 62, 79
2, 48768, Note_on_c, 0, 62, 0
2, 48768, Note_on_c, 0, 61, 75
2, 48857, Note_on_c, 0, 61, 0
2, 48864, Note_on_c, 0, 70, 72
2, 48887, Note_on_c, 0, 70, 0
2, 48888, Note_on_c, 0, 69, 72
2, 48911, Note_on_c, 0, 69, 0
2, 48912, Note_on_c, 0, 67, 72
2, 48935, Note_on_c, 0, 67, 0
2, 48936, Note_on_c, 0, 65, 72
2, 48959, Note_on_c, 0, 65, 0
2, 48960, Note_on_c, 0, 74, 72
2, 48983, Note_on_c, 0, 74, 0
2, 48984, Note_on_c, 0, 72, 73
2, 49007, Note_on_c, 0, 72, 0
2, 49008, Note_on_c, 0, 70, 73
2, 49031, Note_on_c, 0, 70, 0
2, 49032, Note_on_c, 0, 69, 73
2, 49055, Note_on_c, 0, 69, 0
2, 49056, Note_on_c, 0, 79, 74
2, 49079, Note_on_c, 0, 79, 0
2, 49080, Note_on_c, 0, 77, 74
2, 49103, Note_on_c, 0, 77, 0
2, 49104, Note_on_c, 0, 76, 74
2, 49127, Note_on_c, 0, 76, 0
2, 49128, Note_on_c, 0, 74, 74
2, 49151, Note_on_c, 0, 74, 0
2, 49152, Note_on_c, 0, 82, 75
2, 49175, Note_on_c, 0, 82, 0
2, 49176, Note_on_c, 0, 81, 75
2, 49199, Note_on_c, 0, 81, 0
2, 49200, Note_on_c, 0, 79, 75
2, 49223, Note_on_c, 0, 79, 0
2, 49224, Note_on_c, 0, 77, 76
2, 49247, Note_on_c, 0, 77, 0
2, 49248, Note_on_c, 0, 84, 76
2, 49271, Note_on_c, 0, 84, 0
2, 49272, Note_on_c, 0, 82, 76
2, 49295, Note_on_c, 0, 82, 0
2, 49296, Note_on_c, 0, 81, 76
2, 49319, Note_on_c, 0, 81, 0
2, 49320, Note_on_c, 0, 82, 77
2, 49343, Note_on_c, 0, 82, 0
2, 49344, Note_on_c, 0, 86, 77
2, 49367, Note_on_c, 0, 86, 0
2, 49368, Note_on_c, 0, 82, 77
2, 49391, Note_on_c, 0, 82, 0
2, 49392, Note_on_c, 0, 81, 78
2, 49415, Note_on_c, 0, 81, 0
2, 49416, Note_on_c, 0, 79, 78
2, 49439, Note_on_c, 0, 79, 0
2, 49440, Note_on_c, 0, 88, 78
2, 49463, Note_on_c, 0, 88, 0
2, 49464, Note_on_c, 0, 82, 78
2, 49487, Note_on_c, 0, 82, 0
2, 49488, Note_on_c, 0, 81, 79
2, 49511, Note_on_c, 0, 81, 0
2, 49512, Note_on_c, 0, 79, 79
2, 49535, Note_on_c, 0, 79, 0
2, 49536, Note_on_c, 0, 89, 95
2, 49560, Note_on_c, 0, 89, 0
2, 49560, Note_on_c, 0, 84, 80
2, 49583, Note_on_c, 0, 84, 0
2, 49584, Note_on_c, 0, 81, 80
2, 49607, Note_on_c, 0, 81, 0
2, 49608, Note_on_c, 0, 77, 80
2, 49631, Note_on_c, 0, 77, 0
2, 49632, Note_on_c, 0, 79, 80
2, 49644, Note_on_c, 0, 79, 0
2, 49645, Note_on_c, 0, 81, 80
2, 49657, Note_on_c, 0, 81, 0
2, 49658, Note_on_c, 0, 79, 80
2, 49670, Note_on_c, 0, 79, 0
2, 49671, Note_on_c, 0, 81, 80
2, 49683, Note_on_c, 0, 81, 0
2, 49684, Note_on_c, 0, 79, 80
2, 49696, Note_on_c, 0, 79, 0
2, 49697, Note_on_c, 0, 81, 80
2, 49709, Note_on_c, 0, 81, 0
2, 49710, Note_on_c, 0, 79, 80
2, 49722, Note_on_c, 0, 79, 0
2, 49723, Note_on_c, 0, 81, 80
2, 49735, Note_on_c, 0, 81, 0
2, 49736, Note_on_c, 0, 79, 80
2, 49748, Note_on_c, 0, 79, 0
2, 49749, Note_on_c, 0, 81, 80
2, 49761, Note_on_c, 0, 81, 0
2, 49762, Note_on_c, 0, 79, 80
2, 49774, Note_on_c, 0, 79, 0
2, 49775, Note_on_c, 0, 77, 80
2, 49800, Note_on_c, 0, 77, 0
2, 49800, Note_on_c, 0, 79, 80
2, 49824, Note_on_c, 0, 79, 0
2, 49824, Note_on_c, 0, 77, 80
2, 50001, Note_on_c, 0, 77, 0
2, 50016, Note_on_c, 0, 67, 72
2, 50039, Note_on_c, 0, 67, 0
2, 50040, Note_on_c, 0, 65, 72
2, 50063, Note_on_c, 0, 65, 0
2, 50064, Note_on_c, 0, 64, 72
2, 50087, Note_on_c, 0, 64, 0
2, 50088, Note_on_c, 0, 62, 72
2, 50111, Note_on_c, 0, 62, 0
2, 50112, Note_on_c, 0, 74, 72
2, 50245, Note_on_c, 0, 74, 0
2, 50256, Note_on_c, 0, 76, 72
2, 50345, Note_on_c, 0, 76, 0
2, 50352, Note_on_c, 0, 77, 72
2, 50445, Note_on_c, 0, 77, 0
2, 50448, Note_on_c, 0, 69, 72
2, 50537, Note_on_c, 0, 69, 0
2, 50544, Note_on_c, 0, 68, 74
2, 50633, Note_on_c, 0, 68, 0
2, 50640, Note_on_c, 0, 67, 76
2, 50733, Note_on_c, 0, 67, 0
2, 50736, Note_on_c, 0, 65, 78
2, 50825, Note_on_c, 0, 65, 0
2, 50832, Note_on_c, 0, 69, 80
2, 50852, Note_on_c, 0, 69, 0
2, 50880, Note_on_c, 0, 70, 80
2, 50892, Note_on_c, 0, 70, 0
2, 50892, Note_on_c, 0, 69, 80
2, 50904, Note_on_c, 0, 69, 0
2, 50904, Note_on_c, 0, 67, 80
2, 50916, Note_on_c, 0, 67, 0
2, 50916, Note_on_c, 0, 69, 80
2, 50928, Note_on_c, 0, 69, 0
2, 50928, Note_on_c, 0, 69, 80
2, 50947, Note_on_c, 0, 69, 0
2, 50952, Note_on_c, 0, 70, 80
2, 50975, Note_on_c, 0, 70, 0
2, 50976, Note_on_c, 0, 62, 79
2, 51072, Note_on_c, 0, 62, 0
2, 51072, Note_on_c, 0, 61, 75
2, 51161, Note_on_c, 0, 61, 0
2, 51168, Note_on_c, 0, 70, 72
2, 51191, Note_on_c, 0, 70, 0
2, 51192, Note_on_c, 0, 69, 72
2, 51215, Note_on_c, 0, 69, 0
2, 51216, Note_on_c, 0, 67, 72
2, 51239, Note_on_c, 0, 67, 0
2, 51240, Note_on_c, 0, 65, 72
2, 51263, Note_on_c, 0, 65, 0
2, 51264, Note_on_c, 0, 74, 72
2, 51287, Note_on_c, 0, 74, 0
2, 51288, Note_on_c, 0, 72, 73
2, 51311, Note_on_c, 0, 72, 0
2, 51312, Note_on_c, 0, 70, 73
2, 51335, Note_on_c, 0, 70, 0
2, 51336, Note_on_c, 0, 69, 73
2, 51359, Note_on_c, 0, 69, 0
2, 51360, Note_on_c, 0, 79, 74
2, 51383, Note_on_c, 0, 79, 0
2, 51384, Note_on_c, 0, 77, 74
2, 51407, Note_on_c, 0, 77, 0
2, 51408, Note_on_c, 0, 76, 74
2, 51431, Note_on_c, 0, 76, 0
2, 51432, Note_on_c, 0, 74, 74
2, 51455, Note_on_c, 0, 74, 0
2, 51456, Note_on_c, 0, 82, 75
2, 51479, Note_on_c, 0, 82, 0
2, 51480, Note_on_c, 0, 81, 75
2, 51503, Note_on_c, 0, 81, 0
2, 51504, Note_on_c, 0, 79, 75
2, 51527, Note_on_c, 0, 79, 0
2, 51528, Note_on_c, 0, 77, 76
2, 51551, Note_on_c, 0, 77, 0
2, 51552, Note_on_c, 0, 84, 76
2, 51575, Note_on_c, 0, 84, 0
2, 51576, Note_on_c, 0, 82, 76
2, 51599, Note_on_c, 0, 82, 0
2, 51600, Note_on_c, 0, 81, 76
2, 51623, Note_on_c, 0, 81, 0
2, 51624, Note_on_c, 0, 82, 77
2, 51647, Note_on_c, 0, 82, 0
2, 51648, Note_on_c, 0, 86, 77
2, 51671, Note_on_c, 0, 86, 0
2, 51672, Note_on_c, 0, 82, 77
2, 51695, Note_on_c, 0, 82, 0
2, 51696, Note_on_c, 0, 81, 78
2, 51719, Note_on_c, 0, 81, 0
2, 51720, Note_on_c, 0, 79, 78
2, 51743, Note_on_c, 0, 79, 0
2, 51744, Note_on_c, 0, 88, 78
2, 51767, Note_on_c, 0, 88, 0
2, 51768, Note_on_c, 0, 82, 78
2, 51791, Note_on_c, 0, 82, 0
2, 51792, Note_on_c, 0, 81, 79
2, 51815, Note_on_c, 0, 81, 0
2, 51816, Note_on_c, 0, 79, 79
2, 51839, Note_on_c, 0, 79, 0
2, 51840, Note_on_c, 0, 89, 95
2, 51864, Note_on_c, 0, 89, 0
2, 51864, Note_on_c, 0, 84, 80
2, 51887, Note_on_c, 0, 84, 0
2, 51888, Note_on_c, 0, 81, 80
2, 51911, Note_on_c, 0, 81, 0
2, 51912, Note_on_c, 0, 77, 80
2, 51935, Note_on_c, 0, 77, 0
2, 51936, Note_on_c, 0, 79, 80
2, 51948, Note_on_c, 0, 79, 0
2, 51949, Note_on_c, 0, 81, 80
2, 51961, Note_on_c, 0, 81, 0
2, 51962, Note_on_c, 0, 79, 80
2, 51974, Note_on_c, 0, 79, 0
2, 51975, Note_on_c, 0, 81, 80
2, 51987, Note_on_c, 0, 81, 0
2, 51988, Note_on_c, 0, 79, 80
2, 52000, Note_on_c, 0, 79, 0
2, 52001, Note_on_c, 0, 81, 80
2, 52013, Note_on_c, 0, 81, 0
2, 52014, Note_on_c, 0, 79, 80
2, 52026, Note_on_c, 0, 79, 0
2, 52027, Note_on_c, 0, 81, 80
2, 52039, Note_on_c, 0, 81, 0
2, 52040, Note_on_c, 0, 79, 80
2, 52052, Note_on_c, 0, 79, 0
2, 52053, Note_on_c, 0, 81, 80
2, 52065, Note_on_c, 0, 81, 0
2, 52066, Note_on_c, 0, 79, 80
2, 52078, Note_on_c, 0, 79, 0
2, 52079, Note_on_c, 0, 77, 80
2, 52104, Note_on_c, 0, 77, 0
2, 52104, Note_on_c, 0, 79, 80
2, 52128, Note_on_c, 0, 79, 0
2, 52128, Note_on_c, 0, 77, 80
2, 52305, Note_on_c, 0, 77, 0
2, 52320, Note_on_c, 0, 82, 72
2, 52343, Note_on_c, 0, 82, 0
2, 52344, Note_on_c, 0, 81, 72
2, 52367, Note_on_c, 0, 81, 0
2, 52368, Note_on_c, 0, 79, 72
2, 52391, Note_on_c, 0, 79, 0
2, 52392, Note_on_c, 0, 77, 72
2, 52415, Note_on_c, 0, 77, 0
2, 52416, Note_on_c, 0, 84, 88
2, 52535, Note_on_c, 0, 84, 0
2, 52536, Note_on_c, 0, 75, 72
2, 52559, Note_on_c, 0, 75, 0
2, 52560, Note_on_c, 0, 74, 72
2, 52583, Note_on_c, 0, 74, 0
2, 52584, Note_on_c, 0, 75, 72
2, 52607, Note_on_c, 0, 75, 0
2, 52608, Note_on_c, 0, 77, 72
2, 52631, Note_on_c, 0, 77, 0
2, 52632, Note_on_c, 0, 75, 72
2, 52655, Note_on_c, 0, 75, 0
2, 52656, Note_on_c, 0, 74, 72
2, 52679, Note_on_c, 0, 74, 0
2, 52680, Note_on_c, 0, 75, 72
2, 52703, Note_on_c, 0, 75, 0
2, 52704, Note_on_c, 0, 74, 72
2, 52727, Note_on_c, 0, 74, 0
2, 52728, Note_on_c, 0, 81, 72
2, 52751, Note_on_c, 0, 81, 0
2, 52752, Note_on_c, 0, 82, 72
2, 52775, Note_on_c, 0, 82, 0
2, 52776, Note_on_c, 0, 81, 72
2, 52799, Note_on_c, 0, 81, 0
2, 52800, Note_on_c, 0, 86, 72
2, 52823, Note_on_c, 0, 86, 0
2, 52824, Note_on_c, 0, 84, 72
2, 52847, Note_on_c, 0, 84, 0
2, 52848, Note_on_c, 0, 82, 72
2, 52871, Note_on_c, 0, 82, 0
2, 52872, Note_on_c, 0, 81, 72
2, 52895, Note_on_c, 0, 81, 0
2, 52896, Note_on_c, 0, 82, 72
2, 52919, Note_on_c, 0, 82, 0
2, 52920, Note_on_c, 0, 79, 72
2, 52943, Note_on_c, 0, 79, 0
2, 52944, Note_on_c, 0, 81, 72
2, 52967, Note_on_c, 0, 81, 0
2, 52968, Note_on_c, 0, 82, 72
2, 52991, Note_on_c, 0, 82, 0
2, 52992, Note_on_c, 0, 84, 72
2, 53015, Note_on_c, 0, 84, 0
2, 53016, Note_on_c, 0, 82, 72
2, 53039, Note_on_c, 0, 82, 0
2, 53040, Note_on_c, 0, 81, 72
2, 53063, Note_on_c, 0, 81, 0
2, 53064, Note_on_c, 0, 79, 72
2, 53087, Note_on_c, 0, 79, 0
2, 53088, Note_on_c, 0, 81, 72
2, 53111, Note_on_c, 0, 81, 0
2, 53112, Note_on_c, 0, 77, 72
2, 53135, Note_on_c, 0, 77, 0
2, 53136, Note_on_c, 0, 76, 72
2, 53159, Note_on_c, 0, 76, 0
2, 53160, Note_on_c, 0, 74, 72
2, 53183, Note_on_c, 0, 74, 0
2, 53184, Note_on_c, 0, 82, 72
2, 53207, Note_on_c, 0, 82, 0
2, 53208, Note_on_c, 0, 79, 72
2, 53231, Note_on_c, 0, 79, 0
2, 53232, Note_on_c, 0, 77, 72
2, 53255, Note_on_c, 0, 77, 0
2, 53256, Note_on_c, 0, 76, 72
2, 53279, Note_on_c, 0, 76, 0
2, 53280, Note_on_c, 0, 74, 72
2, 53376, Note_on_c, 0, 74, 0
2, 53376, Note_on_c, 0, 73, 72
2, 53465, Note_on_c, 0, 73, 0
2, 53472, Note_on_c, 0, 69, 72
2, 53495, Note_on_c, 0, 69, 0
2, 53496, Note_on_c, 0, 67, 72
2, 53519, Note_on_c, 0, 67, 0
2, 53520, Note_on_c, 0, 65, 72
2, 53543, Note_on_c, 0, 65, 0
2, 53544, Note_on_c, 0, 64, 72
2, 53567, Note_on_c, 0, 64, 0
2, 53568, Note_on_c, 0, 79, 72
2, 53687, Note_on_c, 0, 79, 0
2, 53688, Note_on_c, 0, 81, 72
2, 53711, Note_on_c, 0, 81, 0
2, 53712, Note_on_c, 0, 79, 72
2, 53735, Note_on_c, 0, 79, 0
2, 53736, Note_on_c, 0, 76, 73
2, 53759, Note_on_c, 0, 76, 0
2, 53760, Note_on_c, 0, 85, 73
2, 53783, Note_on_c, 0, 85, 0
2, 53784, Note_on_c, 0, 86, 74
2, 53807, Note_on_c, 0, 86, 0
2, 53808, Note_on_c, 0, 85, 74
2, 53831, Note_on_c, 0, 85, 0
2, 53832, Note_on_c, 0, 82, 75
2, 53855, Note_on_c, 0, 82, 0
2, 53856, Note_on_c, 0, 86, 75
2, 53879, Note_on_c, 0, 86, 0
2, 53880, Note_on_c, 0, 88, 76
2, 53903, Note_on_c, 0, 88, 0
2, 53904, Note_on_c, 0, 86, 76
2, 53927, Note_on_c, 0, 86, 0
2, 53928, Note_on_c, 0, 81, 77
2, 53951, Note_on_c, 0, 81, 0
2, 53952, Note_on_c, 0, 88, 77
2, 53975, Note_on_c, 0, 88, 0
2, 53976, Note_on_c, 0, 89, 78
2, 53999, Note_on_c, 0, 89, 0
2, 54000, Note_on_c, 0, 88, 78
2, 54023, Note_on_c, 0, 88, 0
2, 54024, Note_on_c, 0, 81, 79
2, 54047, Note_on_c, 0, 81, 0
2, 54048, Note_on_c, 0, 89, 95
2, 54072, Note_on_c, 0, 89, 0
2, 54072, Note_on_c, 0, 86, 80
2, 54095, Note_on_c, 0, 86, 0
2, 54096, Note_on_c, 0, 85, 80
2, 54119, Note_on_c, 0, 85, 0
2, 54120, Note_on_c, 0, 86, 80
2, 54143, Note_on_c, 0, 86, 0
2, 54144, Note_on_c, 0, 84, 80
2, 54167, Note_on_c, 0, 84, 0
2, 54168, Note_on_c, 0, 82, 79
2, 54191, Note_on_c, 0, 82, 0
2, 54192, Note_on_c, 0, 81, 78
2, 54215, Note_on_c, 0, 81, 0
2, 54216, Note_on_c, 0, 79, 78
2, 54239, Note_on_c, 0, 79, 0
2, 54240, Note_on_c, 0, 77, 77
2, 54329, Note_on_c, 0, 77, 0
2, 54336, Note_on_c, 0, 77, 74
2, 54349, Note_on_c, 0, 77, 0
2, 54350, Note_on_c, 0, 76, 74
2, 54363, Note_on_c, 0, 76, 0
2, 54364, Note_on_c, 0, 77, 74
2, 54377, Note_on_c, 0, 77, 0
2, 54378, Note_on_c, 0, 76, 73
2, 54391, Note_on_c, 0, 76, 0
2, 54392, Note_on_c, 0, 77, 73
2, 54405, Note_on_c, 0, 77, 0
2, 54406, Note_on_c, 0, 74, 73
2, 54418, Note_on_c, 0, 74, 0
2, 54419, Note_on_c, 0, 76, 72
2, 54431, Note_on_c, 0, 76, 0
2, 54432, Note_on_c, 0, 74, 72
2, 54609, Note_on_c, 0, 74, 0
2, 54624, Note_on_c, 0, 82, 72
2, 54647, Note_on_c, 0, 82, 0
2, 54648, Note_on_c, 0, 81, 72
2, 54671, Note_on_c, 0, 81, 0
2, 54672, Note_on_c, 0, 79, 72
2, 54695, Note_on_c, 0, 79, 0
2, 54696, Note_on_c, 0, 77, 72
2, 54719, Note_on_c, 0, 77, 0
2, 54720, Note_on_c, 0, 84, 88
2, 54839, Note_on_c, 0, 84, 0
2, 54840, Note_on_c, 0, 75, 72
2, 54863, Note_on_c, 0, 75, 0
2, 54864, Note_on_c, 0, 74, 72
2, 54887, Note_on_c, 0, 74, 0
2, 54888, Note_on_c, 0, 75, 72
2, 54911, Note_on_c, 0, 75, 0
2, 54912, Note_on_c, 0, 77, 72
2, 54935, Note_on_c, 0, 77, 0
2, 54936, Note_on_c, 0, 75, 72
2, 54959, Note_on_c, 0, 75, 0
2, 54960, Note_on_c, 0, 74, 72
2, 54983, Note_on_c, 0, 74, 0
2, 54984, Note_on_c, 0, 75, 72
2, 55007, Note_on_c, 0, 75, 0
2, 55008, Note_on_c, 0, 74, 72
2, 55031, Note_on_c, 0, 74, 0
2, 55032, Note_on_c, 0, 81, 72
2, 55055, Note_on_c, 0, 81, 0
2, 55056, Note_on_c, 0, 82, 72
2, 55079, Note_on_c, 0, 82, 0
2, 55080, Note_on_c, 0, 81, 72
2, 55103, Note_on_c, 0, 81, 0
2, 55104, Note_on_c, 0, 86, 72
2, 55127, Note_on_c, 0, 86, 0
2, 55128, Note_on_c, 0, 84, 72
2, 55151, Note_on_c, 0, 84, 0
2, 55152, Note_on_c, 0, 82, 72
2, 55175, Note_on_c, 0, 82, 0
2, 55176, Note_on_c, 0, 81, 72
2, 55199, Note_on_c, 0, 81, 0
2, 55200, Note_on_c, 0, 82, 72
2, 55223, Note_on_c, 0, 82, 0
2, 55224, Note_on_c, 0, 79, 72
2, 55247, Note_on_c, 0, 79, 0
2, 55248, Note_on_c, 0, 81, 72
2, 55271, Note_on_c, 0, 81, 0
2, 55272, Note_on_c, 0, 82, 72
2, 55295, Note_on_c, 0, 82, 0
2, 55296, Note_on_c, 0, 84, 72
2, 55319, Note_on_c, 0, 84, 0
2, 55320, Note_on_c, 0, 82, 72
2, 55343, Note_on_c, 0, 82, 0
2, 55344, Note_on_c, 0, 81, 72
2, 55367, Note_on_c, 0, 81, 0
2, 55368, Note_on_c, 0, 79, 72
2, 55391, Note_on_c, 0, 79, 0
2, 55392, Note_on_c, 0, 81, 72
2, 55415, Note_on_c, 0, 81, 0
2, 55416, Note_on_c, 0, 77, 72
2, 55439, Note_on_c, 0, 77, 0
2, 55440, Note_on_c, 0, 76, 72
2, 55463, Note_on_c, 0, 76, 0
2, 55464, Note_on_c, 0, 74, 72
2, 55487, Note_on_c, 0, 74, 0
2, 55488, Note_on_c, 0, 82, 72
2, 55511, Note_on_c, 0, 82, 0
2, 55512, Note_on_c, 0, 79, 72
2, 55535, Note_on_c, 0, 79, 0
2, 55536, Note_on_c, 0, 77, 72
2, 55559, Note_on_c, 0, 77, 0
2, 55560, Note_on_c, 0, 76, 72
2, 55583, Note_on_c, 0, 76, 0
2, 55584, Note_on_c, 0, 74, 72
2, 55680, Note_on_c, 0, 74, 0
2, 55680, Note_on_c, 0, 73, 72
2, 55769, Note_on_c, 0, 73, 0
2, 55776, Note_on_c, 0, 69, 72
2, 55799, Note_on_c, 0, 69, 0
2, 55800, Note_on_c, 0, 67, 72
2, 55823, Note_on_c, 0, 67, 0
2, 55824, Note_on_c, 0, 65, 72
2, 55847, Note_on_c, 0, 65, 0
2, 55848, Note_on_c, 0, 64, 72
2, 55871, Note_on_c, 0, 64, 0
2, 55872, Note_on_c, 0, 79, 72
2, 55991, Note_on_c, 0, 79, 0
2, 55992, Note_on_c, 0, 81, 72
2, 56015, Note_on_c, 0, 81, 0
2, 56016, Note_on_c, 0, 79, 72
2, 56039, Note_on_c, 0, 79, 0
2, 56040, Note_on_c, 0, 76, 73
2, 56063, Note_on_c, 0, 76, 0
2, 56064, Note_on_c, 0, 85, 73
2, 56087, Note_on_c, 0, 85, 0
2, 56088, Note_on_c, 0, 86, 74
2, 56111, Note_on_c, 0, 86, 0
2, 56112, Note_on_c, 0, 85, 74
2, 56135, Note_on_c, 0, 85, 0
2, 56136, Note_on_c, 0, 82, 75
2, 56159, Note_on_c, 0, 82, 0
2, 56160, Note_on_c, 0, 86, 75
2, 56183, Note_on_c, 0, 86, 0
2, 56184, Note_on_c, 0, 88, 76
2, 56207, Note_on_c, 0, 88, 0
2, 56208, Note_on_c, 0, 86, 76
2, 56231, Note_on_c, 0, 86, 0
2, 56232, Note_on_c, 0, 81, 77
2, 56255, Note_on_c, 0, 81, 0
2, 56256, Note_on_c, 0, 88, 77
2, 56279, Note_on_c, 0, 88, 0
2, 56280, Note_on_c, 0, 89, 78
2, 56303, Note_on_c, 0, 89, 0
2, 56304, Note_on_c, 0, 88, 78
2, 56327, Note_on_c, 0, 88, 0
2, 56328, Note_on_c, 0, 81, 79
2, 56351, Note_on_c, 0, 81, 0
2, 56352, Note_on_c, 0, 89, 95
2, 56376, Note_on_c, 0, 89, 0
2, 56376, Note_on_c, 0, 86, 80
2, 56399, Note_on_c, 0, 86, 0
2, 56400, Note_on_c, 0, 85, 80
2, 56423, Note_on_c, 0, 85, 0
2, 56424, Note_on_c, 0, 86, 80
2, 56447, Note_on_c, 0, 86, 0
2, 56448, Note_on_c, 0, 84, 80
2, 56471, Note_on_c, 0, 84, 0
2, 56472, Note_on_c, 0, 82, 79
2, 56495, Note_on_c, 0, 82, 0
2, 56496, Note_on_c, 0, 81, 78
2, 56519, Note_on_c, 0, 81, 0
2, 56520, Note_on_c, 0, 79, 78
2, 56543, Note_on_c, 0, 79, 0
2, 56544, Note_on_c, 0, 77, 77
2, 56633, Note_on_c, 0, 77, 0
2, 56640, Note_on_c, 0, 77, 74
2, 56653, Note_on_c, 0, 77, 0
2, 56654, Note_on_c, 0, 76, 74
2, 56667, Note_on_c, 0, 76, 0
2, 56668, Note_on_c, 0, 77, 74
2, 56681, Note_on_c, 0, 77, 0
2, 56682, Note_on_c, 0, 76, 73
2, 56695, Note_on_c, 0, 76, 0
2, 56696, Note_on_c, 0, 77, 73
2, 56709, Note_on_c, 0, 77, 0
2, 56710, Note_on_c, 0, 74, 73
2, 56722, Note_on_c, 0, 74, 0
2, 56723, Note_on_c, 0, 76, 72
2, 56735, Note_on_c, 0, 76, 0
2, 56736, Note_on_c, 0, 74, 72
2, 56913, Note_on_c, 0, 74, 0
2, 56928, Note_on_c, 0, 69, 72
2, 56995, Note_on_c, 0, 69, 0
2, 57000, Note_on_c, 0, 66, 72
2, 57023, Note_on_c, 0, 66, 0
2, 57024, Note_on_c, 0, 74, 72
2, 57113, Note_on_c, 0, 74, 0
2, 57120, Note_on_c, 0, 74, 72
2, 57209, Note_on_c, 0, 74, 0
2, 57216, Note_on_c, 0, 76, 72
2, 57240, Note_on_c, 0, 76, 0
2, 57240, Note_on_c, 0, 74, 72
2, 57264, Note_on_c, 0, 74, 0
2, 57264, Note_on_c, 0, 73, 72
2, 57288, Note_on_c, 0, 73, 0
2, 57288, Note_on_c, 0, 74, 72
2, 57312, Note_on_c, 0, 74, 0
2, 57312, Note_on_c, 0, 73, 72
2, 57379, Note_on_c, 0, 73, 0
2, 57384, Note_on_c, 0, 76, 72
2, 57407, Note_on_c, 0, 76, 0
2, 57408, Note_on_c, 0, 79, 88
2, 57576, Note_on_c, 0, 79, 0
2, 57576, Note_on_c, 0, 76, 72
2, 57599, Note_on_c, 0, 76, 0
2, 57600, Note_on_c, 0, 78, 72
2, 57667, Note_on_c, 0, 78, 0
2, 57672, Note_on_c, 0, 74, 74
2, 57695, Note_on_c, 0, 74, 0
2, 57696, Note_on_c, 0, 81, 74
2, 57763, Note_on_c, 0, 81, 0
2, 57768, Note_on_c, 0, 78, 77
2, 57791, Note_on_c, 0, 78, 0
2, 57792, Note_on_c, 0, 83, 77
2, 57859, Note_on_c, 0, 83, 0
2, 57864, Note_on_c, 0, 79, 80
2, 57887, Note_on_c, 0, 79, 0
2, 57888, Note_on_c, 0, 78, 79
2, 57984, Note_on_c, 0, 78, 0
2, 57984, Note_on_c, 0, 76, 75
2, 58073, Note_on_c, 0, 76, 0
2, 58080, Note_on_c, 0, 69, 72
2, 58147, Note_on_c, 0, 69, 0
2, 58152, Note_on_c, 0, 66, 72
2, 58175, Note_on_c, 0, 66, 0
2, 58176, Note_on_c, 0, 74, 72
2, 58265, Note_on_c, 0, 74, 0
2, 58272, Note_on_c, 0, 74, 72
2, 58361, Note_on_c, 0, 74, 0
2, 58368, Note_on_c, 0, 76, 72
2, 58392, Note_on_c, 0, 76, 0
2, 58392, Note_on_c, 0, 74, 72
2, 58416, Note_on_c, 0, 74, 0
2, 58416, Note_on_c, 0, 73, 72
2, 58440, Note_on_c, 0, 73, 0
2, 58440, Note_on_c, 0, 74, 72
2, 58464, Note_on_c, 0, 74, 0
2, 58464, Note_on_c, 0, 73, 72
2, 58531, Note_on_c, 0, 73, 0
2, 58536, Note_on_c, 0, 76, 78
2, 58559, Note_on_c, 0, 76, 0
2, 58560, Note_on_c, 0, 79, 80
2, 58627, Note_on_c, 0, 79, 0
2, 58632, Note_on_c, 0, 76, 77
2, 58655, Note_on_c, 0, 76, 0
2, 58656, Note_on_c, 0, 78, 76
2, 58723, Note_on_c, 0, 78, 0
2, 58728, Note_on_c, 0, 74, 73
2, 58751, Note_on_c, 0, 74, 0
2, 58752, Note_on_c, 0, 71, 72
2, 58841, Note_on_c, 0, 71, 0
2, 58848, Note_on_c, 0, 76, 72
2, 58937, Note_on_c, 0, 76, 0
2, 58944, Note_on_c, 0, 74, 72
2, 58968, Note_on_c, 0, 74, 0
2, 58968, Note_on_c, 0, 73, 72
2, 58992, Note_on_c, 0, 73, 0
2, 58992, Note_on_c, 0, 71, 72
2, 59016, Note_on_c, 0, 71, 0
2, 59016, Note_on_c, 0, 73, 72
2, 59040, Note_on_c, 0, 73, 0
2, 59040, Note_on_c, 0, 74, 72
2, 59040, Note_on_c, 0, 66, 72
2, 59129, Note_on_c, 0, 74, 0
2, 59129, Note_on_c, 0, 66, 0
2, 59232, Note_on_c, 0, 66, 72
2, 59255, Note_on_c, 0, 66, 0
2, 59256, Note_on_c, 0, 62, 72
2, 59279, Note_on_c, 0, 62, 0
2, 59280, Note_on_c, 0, 69, 72
2, 59303, Note_on_c, 0, 69, 0
2, 59304, Note_on_c, 0, 66, 72
2, 59327, Note_on_c, 0, 66, 0
2, 59328, Note_on_c, 0, 74, 72
2, 59351, Note_on_c, 0, 74, 0
2, 59352, Note_on_c, 0, 69, 72
2, 59375, Note_on_c, 0, 69, 0
2, 59376, Note_on_c, 0, 71, 72
2, 59399, Note_on_c, 0, 71, 0
2, 59400, Note_on_c, 0, 73, 72
2, 59423, Note_on_c, 0, 73, 0
2, 59424, Note_on_c, 0, 74, 72
2, 59447, Note_on_c, 0, 74, 0
2, 59448, Note_on_c, 0, 76, 72
2, 59471, Note_on_c, 0, 76, 0
2, 59472, Note_on_c, 0, 78, 72
2, 59495, Note_on_c, 0, 78, 0
2, 59496, Note_on_c, 0, 79, 72
2, 59519, Note_on_c, 0, 79, 0
2, 59520, Note_on_c, 0, 81, 72
2, 59543, Note_on_c, 0, 81, 0
2, 59544, Note_on_c, 0, 78, 72
2, 59567, Note_on_c, 0, 78, 0
2, 59568, Note_on_c, 0, 76, 72
2, 59591, Note_on_c, 0, 76, 0
2, 59592, Note_on_c, 0, 74, 72
2, 59615, Note_on_c, 0, 74, 0
2, 59616, Note_on_c, 0, 73, 72
2, 59639, Note_on_c, 0, 73, 0
2, 59640, Note_on_c, 0, 74, 72
2, 59663, Note_on_c, 0, 74, 0
2, 59664, Note_on_c, 0, 76, 72
2, 59687, Note_on_c, 0, 76, 0
2, 59688, Note_on_c, 0, 78, 72
2, 59711, Note_on_c, 0, 78, 0
2, 59712, Note_on_c, 0, 79, 72
2, 59735, Note_on_c, 0, 79, 0
2, 59736, Note_on_c, 0, 76, 72
2, 59759, Note_on_c, 0, 76, 0
2, 59760, Note_on_c, 0, 79, 72
2, 59783, Note_on_c, 0, 79, 0
2, 59784, Note_on_c, 0, 81, 72
2, 59807, Note_on_c, 0, 81, 0
2, 59808, Note_on_c, 0, 83, 72
2, 59831, Note_on_c, 0, 83, 0
2, 59832, Note_on_c, 0, 79, 72
2, 59855, Note_on_c, 0, 79, 0
2, 59856, Note_on_c, 0, 78, 72
2, 59879, Note_on_c, 0, 78, 0
2, 59880, Note_on_c, 0, 76, 72
2, 59903, Note_on_c, 0, 76, 0
2, 59904, Note_on_c, 0, 78, 72
2, 59927, Note_on_c, 0, 78, 0
2, 59928, Note_on_c, 0, 74, 72
2, 59951, Note_on_c, 0, 74, 0
2, 59952, Note_on_c, 0, 76, 73
2, 59975, Note_on_c, 0, 76, 0
2, 59976, Note_on_c, 0, 78, 74
2, 59999, Note_on_c, 0, 78, 0
2, 60000, Note_on_c, 0, 79, 75
2, 60023, Note_on_c, 0, 79, 0
2, 60024, Note_on_c, 0, 81, 76
2, 60047, Note_on_c, 0, 81, 0
2, 60048, Note_on_c, 0, 83, 77
2, 60071, Note_on_c, 0, 83, 0
2, 60072, Note_on_c, 0, 85, 78
2, 60095, Note_on_c, 0, 85, 0
2, 60096, Note_on_c, 0, 86, 79
2, 60119, Note_on_c, 0, 86, 0
2, 60120, Note_on_c, 0, 83, 80
2, 60143, Note_on_c, 0, 83, 0
2, 60144, Note_on_c, 0, 81, 80
2, 60167, Note_on_c, 0, 81, 0
2, 60168, Note_on_c, 0, 79, 80
2, 60191, Note_on_c, 0, 79, 0
2, 60192, Note_on_c, 0, 78, 79
2, 60192, Note_on_c, 0, 74, 79
2, 60288, Note_on_c, 0, 78, 0
2, 60288, Note_on_c, 0, 74, 0
2, 60288, Note_on_c, 0, 76, 75
2, 60288, Note_on_c, 0, 73, 75
2, 60377, Note_on_c, 0, 76, 0
2, 60377, Note_on_c, 0, 73, 0
2, 60384, Note_on_c, 0, 66, 72
2, 60407, Note_on_c, 0, 66, 0
2, 60408, Note_on_c, 0, 62, 72
2, 60431, Note_on_c, 0, 62, 0
2, 60432, Note_on_c, 0, 69, 72
2, 60455, Note_on_c, 0, 69, 0
2, 60456, Note_on_c, 0, 66, 72
2, 60479, Note_on_c, 0, 66, 0
2, 60480, Note_on_c, 0, 74, 72
2, 60503, Note_on_c, 0, 74, 0
2, 60504, Note_on_c, 0, 69, 72
2, 60527, Note_on_c, 0, 69, 0
2, 60528, Note_on_c, 0, 71, 72
2, 60551, Note_on_c, 0, 71, 0
2, 60552, Note_on_c, 0, 73, 72
2, 60575, Note_on_c, 0, 73, 0
2, 60576, Note_on_c, 0, 74, 72
2, 60599, Note_on_c, 0, 74, 0
2, 60600, Note_on_c, 0, 76, 72
2, 60623, Note_on_c, 0, 76, 0
2, 60624, Note_on_c, 0, 78, 72
2, 60647, Note_on_c, 0, 78, 0
2, 60648, Note_on_c, 0, 79, 72
2, 60671, Note_on_c, 0, 79, 0
2, 60672, Note_on_c, 0, 81, 72
2, 60695, Note_on_c, 0, 81, 0
2, 60696, Note_on_c, 0, 78, 72
2, 60719, Note_on_c, 0, 78, 0
2, 60720, Note_on_c, 0, 76, 72
2, 60743, Note_on_c, 0, 76, 0
2, 60744, Note_on_c, 0, 74, 72
2, 60767, Note_on_c, 0, 74, 0
2, 60768, Note_on_c, 0, 73, 72
2, 60791, Note_on_c, 0, 73, 0
2, 60792, Note_on_c, 0, 74, 73
2, 60815, Note_on_c, 0, 74, 0
2, 60816, Note_on_c, 0, 76, 74
2, 60839, Note_on_c, 0, 76, 0
2, 60840, Note_on_c, 0, 78, 76
2, 60863, Note_on_c, 0, 78, 0
2, 60864, Note_on_c, 0, 79, 77
2, 60887, Note_on_c, 0, 79, 0
2, 60888, Note_on_c, 0, 78, 78
2, 60911, Note_on_c, 0, 78, 0
2, 60912, Note_on_c, 0, 76, 80
2, 60935, Note_on_c, 0, 76, 0
2, 60936, Note_on_c, 0, 74, 78
2, 60959, Note_on_c, 0, 74, 0
2, 60960, Note_on_c, 0, 73, 77
2, 60983, Note_on_c, 0, 73, 0
2, 60984, Note_on_c, 0, 71, 76
2, 61007, Note_on_c, 0, 71, 0
2, 61008, Note_on_c, 0, 69, 74
2, 61031, Note_on_c, 0, 69, 0
2, 61032, Note_on_c, 0, 67, 73
2, 61055, Note_on_c, 0, 67, 0
2, 61056, Note_on_c, 0, 66, 72
2, 61079, Note_on_c, 0, 66, 0
2, 61080, Note_on_c, 0, 69, 72
2, 61103, Note_on_c, 0, 69, 0
2, 61104, Note_on_c, 0, 67, 72
2, 61127, Note_on_c, 0, 67, 0
2, 61128, Note_on_c, 0, 66, 72
2, 61151, Note_on_c, 0, 66, 0
2, 61152, Note_on_c, 0, 64, 72
2, 61175, Note_on_c, 0, 64, 0
2, 61176, Note_on_c, 0, 71, 72
2, 61199, Note_on_c, 0, 71, 0
2, 61200, Note_on_c, 0, 69, 72
2, 61223, Note_on_c, 0, 69, 0
2, 61224, Note_on_c, 0, 67, 72
2, 61247, Note_on_c, 0, 67, 0
2, 61248, Note_on_c, 0, 66, 72
2, 61271, Note_on_c, 0, 66, 0
2, 61272, Note_on_c, 0, 64, 72
2, 61295, Note_on_c, 0, 64, 0
2, 61296, Note_on_c, 0, 62, 72
2, 61319, Note_on_c, 0, 62, 0
2, 61320, Note_on_c, 0, 61, 72
2, 61343, Note_on_c, 0, 61, 0
2, 61344, Note_on_c, 0, 62, 72
2, 61433, Note_on_c, 0, 62, 0
2, 61536, Note_on_c, 0, 78, 72
2, 61559, Note_on_c, 0, 78, 0
2, 61560, Note_on_c, 0, 74, 72
2, 61583, Note_on_c, 0, 74, 0
2, 61584, Note_on_c, 0, 81, 72
2, 61607, Note_on_c, 0, 81, 0
2, 61608, Note_on_c, 0, 78, 72
2, 61631, Note_on_c, 0, 78, 0
2, 61632, Note_on_c, 0, 86, 72
2, 61655, Note_on_c, 0, 86, 0
2, 61656, Note_on_c, 0, 81, 72
2, 61679, Note_on_c, 0, 81, 0
2, 61680, Note_on_c, 0, 78, 72
2, 61703, Note_on_c, 0, 78, 0
2, 61704, Note_on_c, 0, 74, 72
2, 61727, Note_on_c, 0, 74, 0
2, 61776, Note_on_c, 0, 76, 63
2, 61799, Note_on_c, 0, 76, 0
2, 61800, Note_on_c, 0, 80, 63
2, 61823, Note_on_c, 0, 80, 0
2, 61872, Note_on_c, 0, 85, 63
2, 61895, Note_on_c, 0, 85, 0
2, 61896, Note_on_c, 0, 88, 63
2, 61919, Note_on_c, 0, 88, 0
2, 61968, Note_on_c, 0, 79, 63
2, 61991, Note_on_c, 0, 79, 0
2, 61992, Note_on_c, 0, 83, 63
2, 62015, Note_on_c, 0, 83, 0
2, 62064, Note_on_c, 0, 78, 63
2, 62087, Note_on_c, 0, 78, 0
2, 62088, Note_on_c, 0, 81, 63
2, 62111, Note_on_c, 0, 81, 0
2, 62160, Note_on_c, 0, 76, 63
2, 62183, Note_on_c, 0, 76, 0
2, 62184, Note_on_c, 0, 79, 63
2, 62207, Note_on_c, 0, 79, 0
2, 62256, Note_on_c, 0, 74, 63
2, 62279, Note_on_c, 0, 74, 0
2, 62280, Note_on_c, 0, 78, 63
2, 62303, Note_on_c, 0, 78, 0
2, 62352, Note_on_c, 0, 73, 63
2, 62375, Note_on_c, 0, 73, 0
2, 62376, Note_on_c, 0, 79, 63
2, 62399, Note_on_c, 0, 79, 0
2, 62448, Note_on_c, 0, 78, 63
2, 62471, Note_on_c, 0, 78, 0
2, 62472, Note_on_c, 0, 86, 63
2, 62495, Note_on_c, 0, 86, 0
2, 62496, Note_on_c, 0, 78, 72
2, 62496, Note_on_c, 0, 74, 72
2, 62592, Note_on_c, 0, 78, 0
2, 62592, Note_on_c, 0, 74, 0
2, 62592, Note_on_c, 0, 76, 63
2, 62592, Note_on_c, 0, 73, 63
2, 62681, Note_on_c, 0, 76, 0
2, 62681, Note_on_c, 0, 73, 0
2, 62688, Note_on_c, 0, 78, 72
2, 62711, Note_on_c, 0, 78, 0
2, 62712, Note_on_c, 0, 74, 72
2, 62735, Note_on_c, 0, 74, 0
2, 62736, Note_on_c, 0, 81, 72
2, 62759, Note_on_c, 0, 81, 0
2, 62760, Note_on_c, 0, 78, 72
2, 62783, Note_on_c, 0, 78, 0
2, 62784, Note_on_c, 0, 86, 72
2, 62807, Note_on_c, 0, 86, 0
2, 62808, Note_on_c, 0, 81, 72
2, 62831, Note_on_c, 0, 81, 0
2, 62832, Note_on_c, 0, 78, 72
2, 62855, Note_on_c, 0, 78, 0
2, 62856, Note_on_c, 0, 74, 72
2, 62879, Note_on_c, 0, 74, 0
2, 62928, Note_on_c, 0, 76, 63
2, 62951, Note_on_c, 0, 76, 0
2, 62952, Note_on_c, 0, 80, 63
2, 62975, Note_on_c, 0, 80, 0
2, 63024, Note_on_c, 0, 85, 63
2, 63047, Note_on_c, 0, 85, 0
2, 63048, Note_on_c, 0, 88, 63
2, 63071, Note_on_c, 0, 88, 0
2, 63120, Note_on_c, 0, 79, 63
2, 63143, Note_on_c, 0, 79, 0
2, 63144, Note_on_c, 0, 83, 63
2, 63167, Note_on_c, 0, 83, 0
2, 63216, Note_on_c, 0, 78, 63
2, 63239, Note_on_c, 0, 78, 0
2, 63240, Note_on_c, 0, 81, 63
2, 63263, Note_on_c, 0, 81, 0
2, 63312, Note_on_c, 0, 76, 63
2, 63335, Note_on_c, 0, 76, 0
2, 63336, Note_on_c, 0, 79, 63
2, 63359, Note_on_c, 0, 79, 0
2, 63408, Note_on_c, 0, 74, 63
2, 63431, Note_on_c, 0, 74, 0
2, 63432, Note_on_c, 0, 78, 63
2, 63455, Note_on_c, 0, 78, 0
2, 63504, Note_on_c, 0, 76, 63
2, 63527, Note_on_c, 0, 76, 0
2, 63528, Note_on_c, 0, 79, 63
2, 63551, Note_on_c, 0, 79, 0
2, 63600, Note_on_c, 0, 67, 63
2, 63623, Note_on_c, 0, 67, 0
2, 63624, Note_on_c, 0, 73, 63
2, 63647, Note_on_c, 0, 73, 0
2, 63648, Note_on_c, 0, 74, 63
2, 63648, Note_on_c, 0, 66, 63
2, 63737, Note_on_c, 0, 74, 0
2, 63737, Note_on_c, 0, 66, 0
2, 63840, Note_on_c, 0, 78, 72
2, 63863, Note_on_c, 0, 78, 0
2, 63864, Note_on_c, 0, 74, 72
2, 63887, Note_on_c, 0, 74, 0
2, 63888, Note_on_c, 0, 81, 72
2, 63911, Note_on_c, 0, 81, 0
2, 63912, Note_on_c, 0, 78, 72
2, 63935, Note_on_c, 0, 78, 0
2, 63936, Note_on_c, 0, 86, 72
2, 63959, Note_on_c, 0, 86, 0
2, 63960, Note_on_c, 0, 81, 72
2, 63983, Note_on_c, 0, 81, 0
2, 63984, Note_on_c, 0, 78, 72
2, 64007, Note_on_c, 0, 78, 0
2, 64008, Note_on_c, 0, 74, 72
2, 64031, Note_on_c, 0, 74, 0
2, 64080, Note_on_c, 0, 76, 63
2, 64103, Note_on_c, 0, 76, 0
2, 64104, Note_on_c, 0, 80, 63
2, 64127, Note_on_c, 0, 80, 0
2, 64176, Note_on_c, 0, 85, 63
2, 64199, Note_on_c, 0, 85, 0
2, 64200, Note_on_c, 0, 88, 63
2, 64223, Note_on_c, 0, 88, 0
2, 64272, Note_on_c, 0, 79, 63
2, 64295, Note_on_c, 0, 79, 0
2, 64296, Note_on_c, 0, 83, 63
2, 64319, Note_on_c, 0, 83, 0
2, 64368, Note_on_c, 0, 78, 63
2, 64391, Note_on_c, 0, 78, 0
2, 64392, Note_on_c, 0, 81, 63
2, 64415, Note_on_c, 0, 81, 0
2, 64464, Note_on_c, 0, 76, 63
2, 64487, Note_on_c, 0, 76, 0
2, 64488, Note_on_c, 0, 79, 63
2, 64511, Note_on_c, 0, 79, 0
2, 64560, Note_on_c, 0, 74, 63
2, 64583, Note_on_c, 0, 74, 0
2, 64584, Note_on_c, 0, 78, 63
2, 64607, Note_on_c, 0, 78, 0
2, 64656, Note_on_c, 0, 73, 63
2, 64679, Note_on_c, 0, 73, 0
2, 64680, Note_on_c, 0, 79, 63
2, 64703, Note_on_c, 0, 79, 0
2, 64752, Note_on_c, 0, 78, 63
2, 64775, Note_on_c, 0, 78, 0
2, 64776, Note_on_c, 0, 86, 63
2, 64799, Note_on_c, 0, 86, 0
2, 64800, Note_on_c, 0, 78, 72
2, 64800, Note_on_c, 0, 74, 72
2, 64896, Note_on_c, 0, 78, 0
2, 64896, Note_on_c, 0, 74, 0
2, 64896, Note_on_c, 0, 76, 63
2, 64896, Note_on_c, 0, 73, 63
2, 64985, Note_on_c, 0, 76, 0
2, 64985, Note_on_c, 0, 73, 0
2, 64992, Note_on_c, 0, 78, 72
2, 65015, Note_on_c, 0, 78, 0
2, 65016, Note_on_c, 0, 74, 72
2, 65039, Note_on_c, 0, 74, 0
2, 65040, Note_on_c, 0, 81, 72
2, 65063, Note_on_c, 0, 81, 0
2, 65064, Note_on_c, 0, 78, 72
2, 65087, Note_on_c, 0, 78, 0
2, 65088, Note_on_c, 0, 86, 72
2, 65111, Note_on_c, 0, 86, 0
2, 65112, Note_on_c, 0, 81, 72
2, 65135, Note_on_c, 0, 81, 0
2, 65136, Note_on_c, 0, 78, 72
2, 65159, Note_on_c, 0, 78, 0
2, 65160, Note_on_c, 0, 74, 72
2, 65183, Note_on_c, 0, 74, 0
2, 65232, Note_on_c, 0, 76, 63
2, 65255, Note_on_c, 0, 76, 0
2, 65256, Note_on_c, 0, 80, 63
2, 65279, Note_on_c, 0, 80, 0
2, 65328, Note_on_c, 0, 85, 63
2, 65351, Note_on_c, 0, 85, 0
2, 65352, Note_on_c, 0, 88, 63
2, 65375, Note_on_c, 0, 88, 0
2, 65424, Note_on_c, 0, 79, 63
2, 65447, Note_on_c, 0, 79, 0
2, 65448, Note_on_c, 0, 83, 63
2, 65471, Note_on_c, 0, 83, 0
2, 65520, Note_on_c, 0, 78, 63
2, 65543, Note_on_c, 0, 78, 0
2, 65544, Note_on_c, 0, 81, 63
2, 65567, Note_on_c, 0, 81, 0
2, 65616, Note_on_c, 0, 76, 63
2, 65639, Note_on_c, 0, 76, 0
2, 65640, Note_on_c, 0, 79, 63
2, 65663, Note_on_c, 0, 79, 0
2, 65712, Note_on_c, 0, 74, 63
2, 65735, Note_on_c, 0, 74, 0
2, 65736, Note_on_c, 0, 78, 63
2, 65759, Note_on_c, 0, 78, 0
2, 65808, Note_on_c, 0, 76, 63
2, 65831, Note_on_c, 0, 76, 0
2, 65832, Note_on_c, 0, 79, 63
2, 65855, Note_on_c, 0, 79, 0
2, 65904, Note_on_c, 0, 67, 63
2, 65927, Note_on_c, 0, 67, 0
2, 65928, Note_on_c, 0, 73, 63
2, 65951, Note_on_c, 0, 73, 0
2, 65952, Note_on_c, 0, 74, 63
2, 65952, Note_on_c, 0, 66, 63
2, 66041, Note_on_c, 0, 74, 0
2, 66041, Note_on_c, 0, 66, 0
2, 66240, End_track
3, 0, Start_track
3, 0, Program_c, 0, 0
3, 0, Control_c, 0, 7, 127
3, 0, Control_c, 0, 10, 64
3, 4848, Note_on_c, 0, 64, 64
3, 4893, Note_on_c, 0, 64, 0
3, 10896, Note_on_c, 0, 64, 64
3, 10941, Note_on_c, 0, 64, 0
3, 16944, Note_on_c, 0, 73, 64
3, 16989, Note_on_c, 0, 73, 0
3, 18672, Note_on_c, 0, 61, 64
3, 18717, Note_on_c, 0, 61, 0
3, 22080, Note_on_c, 0, 67, 64
3, 22169, Note_on_c, 0, 67, 0
3, 24384, Note_on_c, 0, 67, 64
3, 24473, Note_on_c, 0, 67, 0
3, 25440, Note_on_c, 0, 79, 64
3, 25507, Note_on_c, 0, 79, 0
3, 25512, Note_on_c, 0, 76, 64
3, 25535, Note_on_c, 0, 76, 0
3, 25536, Note_on_c, 0, 78, 64
3, 25603, Note_on_c, 0, 78, 0
3, 25608, Note_on_c, 0, 81, 64
3, 25631, Note_on_c, 0, 81, 0
3, 27744, Note_on_c, 0, 79, 64
3, 27811, Note_on_c, 0, 79, 0
3, 27816, Note_on_c, 0, 76, 64
3, 27839, Note_on_c, 0, 76, 0
3, 27840, Note_on_c, 0, 78, 64
3, 27907, Note_on_c, 0, 78, 0
3, 27912, Note_on_c, 0, 81, 64
3, 27935, Note_on_c, 0, 81, 0
3, 58944, Note_on_c, 0, 67, 64
3, 59033, Note_on_c, 0, 67, 0
3, 61728, Note_on_c, 0, 71, 64
3, 61751, Note_on_c, 0, 71, 0
3, 61752, Note_on_c, 0, 74, 64
3, 61775, Note_on_c, 0, 74, 0
3, 61824, Note_on_c, 0, 73, 64
3, 61847, Note_on_c, 0, 73, 0
3, 61848, Note_on_c, 0, 76, 64
3, 61871, Note_on_c, 0, 76, 0
3, 61920, Note_on_c, 0, 71, 64
3, 61943, Note_on_c, 0, 71, 0
3, 61944, Note_on_c, 0, 74, 64
3, 61967, Note_on_c, 0, 74, 0
3, 62016, Note_on_c, 0, 69, 64
3, 62039, Note_on_c, 0, 69, 0
3, 62040, Note_on_c, 0, 73, 64
3, 62063, Note_on_c, 0, 73, 0
3, 62112, Note_on_c, 0, 67, 64
3, 62135, Note_on_c, 0, 67, 0
3, 62136, Note_on_c, 0, 71, 64
3, 62159, Note_on_c, 0, 71, 0
3, 62208, Note_on_c, 0, 66, 64
3, 62231, Note_on_c, 0, 66, 0
3, 62232, Note_on_c, 0, 69, 64
3, 62255, Note_on_c, 0, 69, 0
3, 62304, Note_on_c, 0, 64, 64
3, 62327, Note_on_c, 0, 64, 0
3, 62328, Note_on_c, 0, 67, 64
3, 62351, Note_on_c, 0, 67, 0
3, 62400, Note_on_c, 0, 62, 64
3, 62423, Note_on_c, 0, 62, 0
3, 62424, Note_on_c, 0, 69, 64
3, 62447, Note_on_c, 0, 69, 0
3, 62880, Note_on_c, 0, 71, 64
3, 62903, Note_on_c, 0, 71, 0
3, 62904, Note_on_c, 0, 74, 64
3, 62927, Note_on_c, 0, 74, 0
3, 62976, Note_on_c, 0, 73, 64
3, 62999, Note_on_c, 0, 73, 0
3, 63000, Note_on_c, 0, 76, 64
3, 63023, Note_on_c, 0, 76, 0
3, 63072, Note_on_c, 0, 71, 64
3, 63095, Note_on_c, 0, 71, 0
3, 63096, Note_on_c, 0, 74, 64
3, 63119, Note_on_c, 0, 74, 0
3, 63168, Note_on_c, 0, 69, 64
3, 63191, Note_on_c, 0, 69, 0
3, 63192, Note_on_c, 0, 73, 64
3, 63215, Note_on_c, 0, 73, 0
3, 63264, Note_on_c, 0, 67, 64
3, 63287, Note_on_c, 0, 67, 0
3, 63288, Note_on_c, 0, 71, 64
3, 63311, Note_on_c, 0, 71, 0
3, 63360, Note_on_c, 0, 66, 64
3, 63383, Note_on_c, 0, 66, 0
3, 63384, Note_on_c, 0, 69, 64
3, 63407, Note_on_c, 0, 69, 0
3, 63456, Note_on_c, 0, 67, 64
3, 63479, Note_on_c, 0, 67, 0
3, 63480, Note_on_c, 0, 71, 64
3, 63503, Note_on_c, 0, 71, 0
3, 63552, Note_on_c, 0, 57, 64
3, 63575, Note_on_c, 0, 57, 0
3, 63576, Note_on_c, 0, 64, 64
3, 63599, Note_on_c, 0, 64, 0
3, 64032, Note_on_c, 0, 71, 64
3, 64055, Note_on_c, 0, 71, 0
3, 64056, Note_on_c, 0, 74, 64
3, 64079, Note_on_c, 0, 74, 0
3, 64128, Note_on_c, 0, 73, 64
3, 64151, Note_on_c, 0, 73, 0
3, 64152, Note_on_c, 0, 76, 64
3, 64175, Note_on_c, 0, 76, 0
3, 64224, Note_on_c, 0, 71, 64
3, 64247, Note_on_c, 0, 71, 0
3, 64248, Note_on_c, 0, 74, 64
3, 64271, Note_on_c, 0, 74, 0
3, 64320, Note_on_c, 0, 69, 64
3, 64343, Note_on_c, 0, 69, 0
3, 64344, Note_on_c, 0, 73, 64
3, 64367, Note_on_c, 0, 73, 0
3, 64416, Note_on_c, 0, 67, 64
3, 64439, Note_on_c, 0, 67, 0
3, 64440, Note_on_c, 0, 71, 64
3, 64463, Note_on_c, 0, 71, 0
3, 64512, Note_on_c, 0, 66, 64
3, 64535, Note_on_c, 0, 66, 0
3, 64536, Note_on_c, 0, 69, 64
3, 64559, Note_on_c, 0, 69, 0
3, 64608, Note_on_c, 0, 64, 64
3, 64631, Note_on_c, 0, 64, 0
3, 64632, Note_on_c, 0, 67, 64
3, 64655, Note_on_c, 0, 67, 0
3, 64704, Note_on_c, 0, 62, 64
3, 64727, Note_on_c, 0, 62, 0
3, 64728, Note_on_c, 0, 69, 64
3, 64751, Note_on_c, 0, 69, 0
3, 65184, Note_on_c, 0, 71, 64
3, 65207, Note_on_c, 0, 71, 0
3, 65208, Note_on_c, 0, 74, 64
3, 65231, Note_on_c, 0, 74, 0
3, 65280, Note_on_c, 0, 73, 64
3, 65303, Note_on_c, 0, 73, 0
3, 65304, Note_on_c, 0, 76, 64
3, 65327, Note_on_c, 0, 76, 0
3, 65376, Note_on_c, 0, 71, 64
3, 65399, Note_on_c, 0, 71, 0
3, 65400, Note_on_c, 0, 74, 64
3, 65423, Note_on_c, 0, 74, 0
3, 65472, Note_on_c, 0, 69, 64
3, 65495, Note_on_c, 0, 69, 0
3, 65496, Note_on_c, 0, 73, 64
3, 65519, Note_on_c, 0, 73, 0
3, 65568, Note_on_c, 0, 67, 64
3, 65591, Note_on_c, 0, 67, 0
3, 65592, Note_on_c, 0, 71, 64
3, 65615, Note_on_c, 0, 71, 0
3, 65664, Note_on_c, 0, 66, 64
3, 65687, Note_on_c, 0, 66, 0
3, 65688, Note_on_c, 0, 69, 64
3, 65711, Note_on_c, 0, 69, 0
3, 65760, Note_on_c, 0, 67, 64
3, 65783, Note_on_c, 0, 67, 0
3, 65784, Note_on_c, 0, 71, 64
3, 65807, Note_on_c, 0, 71, 0
3, 65856, Note_on_c, 0, 57, 64
3, 65879, Note_on_c, 0, 57, 0
3, 65880, Note_on_c, 0, 64, 64
3, 65903, Note_on_c, 0, 64, 0
3, 66240, End_track
4, 0, Start_track
4, 0, Program_c, 1, 0
4, 0, Control_c, 1, 7, 127
4, 0, Control_c, 1, 10, 64
4, 0, Note_on_c, 1, 65, 64
4, 0, Note_on_c, 1, 62, 64
4, 96, Note_on_c, 1, 65, 0
4, 96, Note_on_c, 1, 62, 0
4, 96, Note_on_c, 1, 67, 64
4, 96, Note_on_c, 1, 64, 64
4, 116, Note_on_c, 1, 67, 0
4, 116, Note_on_c, 1, 64, 0
4, 288, Note_on_c, 1, 73, 64
4, 288, Note_on_c, 1, 70, 64
4, 288, Note_on_c, 1, 67, 64
4, 288, Note_on_c, 1, 64, 64
4, 384, Note_on_c, 1, 73, 0
4, 384, Note_on_c, 1, 70, 0
4, 384, Note_on_c, 1, 67, 0
4, 384, Note_on_c, 1, 64, 0
4, 384, Note_on_c, 1, 74, 64
4, 384, Note_on_c, 1, 69, 64
4, 384, Note_on_c, 1, 65, 64
4, 404, Note_on_c, 1, 74, 0
4, 404, Note_on_c, 1, 69, 0
4, 404, Note_on_c, 1, 65, 0
4, 576, Note_on_c, 1, 67, 64
4, 596, Note_on_c, 1, 67, 0
4, 672, Note_on_c, 1, 69, 64
4, 692, Note_on_c, 1, 69, 0
4, 768, Note_on_c, 1, 69, 64
4, 768, Note_on_c, 1, 61, 64
4, 788, Note_on_c, 1, 69, 0
4, 788, Note_on_c, 1, 61, 0
4, 864, Note_on_c, 1, 69, 64
4, 864, Note_on_c, 1, 62, 64
4, 909, Note_on_c, 1, 69, 0
4, 909, Note_on_c, 1, 62, 0
4, 960, Note_on_c, 1, 73, 64
4, 960, Note_on_c, 1, 69, 64
4, 1005, Note_on_c, 1, 73, 0
4, 1005, Note_on_c, 1, 69, 0
4, 1152, Note_on_c, 1, 53, 64
4, 1152, Note_on_c, 1, 50, 64
4, 1248, Note_on_c, 1, 53, 0
4, 1248, Note_on_c, 1, 50, 0
4, 1248, Note_on_c, 1, 55, 64
4, 1248, Note_on_c, 1, 52, 64
4, 1268, Note_on_c, 1, 55, 0
4, 1268, Note_on_c, 1, 52, 0
4, 1440, Note_on_c, 1, 61, 64
4, 1440, Note_on_c, 1, 58, 64
4, 1440, Note_on_c, 1, 55, 64
4, 1440, Note_on_c, 1, 52, 64
4, 1536, Note_on_c, 1, 61, 0
4, 1536, Note_on_c, 1, 58, 0
4, 1536, Note_on_c, 1, 55, 0
4, 1536, Note_on_c, 1, 52, 0
4, 1536, Note_on_c, 1, 57, 64
4, 1536, Note_on_c, 1, 53, 64
4, 1556, Note_on_c, 1, 57, 0
4, 1556, Note_on_c, 1, 53, 0
4, 1728, Note_on_c, 1, 56, 64
4, 1728, Note_on_c, 1, 50, 64
4, 1728, Note_on_c, 1, 46, 64
4, 1817, Note_on_c, 1, 56, 0
4, 1817, Note_on_c, 1, 50, 0
4, 1817, Note_on_c, 1, 46, 0
4, 1920, Note_on_c, 1, 34, 64
4, 1965, Note_on_c, 1, 34, 0
4, 2016, Note_on_c, 1, 33, 64
4, 2055, Note_on_c, 1, 33, 0
4, 2304, Note_on_c, 1, 41, 80
4, 2304, Note_on_c, 1, 29, 80
4, 2398, Note_on_c, 1, 41, 0
4, 2398, Note_on_c, 1, 29, 0
4, 2640, Note_on_c, 1, 58, 54
4, 2640, Note_on_c, 1, 52, 54
4, 2685, Note_on_c, 1, 58, 0
4, 2685, Note_on_c, 1, 52, 0
4, 2688, Note_on_c, 1, 58, 54
4, 2688, Note_on_c, 1, 52, 54
4, 2733, Note_on_c, 1, 58, 0
4, 2733, Note_on_c, 1, 52, 0
4, 2736, Note_on_c, 1, 58, 54
4, 2736, Note_on_c, 1, 52, 54
4, 2781, Note_on_c, 1, 58, 0
4, 2781, Note_on_c, 1, 52, 0
4, 2784, Note_on_c, 1, 58, 54
4, 2784, Note_on_c, 1, 52, 54
4, 2829, Note_on_c, 1, 58, 0
4, 2829, Note_on_c, 1, 52, 0
4, 2832, Note_on_c, 1, 58, 54
4, 2832, Note_on_c, 1, 52, 54
4, 2877, Note_on_c, 1, 58, 0
4, 2877, Note_on_c, 1, 52, 0
4, 2880, Note_on_c, 1, 57, 54
4, 2880, Note_on_c, 1, 53, 54
4, 2969, Note_on_c, 1, 57, 0
4, 2969, Note_on_c, 1, 53, 0
4, 3216, Note_on_c, 1, 57, 54
4, 3216, Note_on_c, 1, 51, 54
4, 3261, Note_on_c, 1, 57, 0
4, 3261, Note_on_c, 1, 51, 0
4, 3264, Note_on_c, 1, 57, 54
4, 3264, Note_on_c, 1, 51, 54
4, 3309, Note_on_c, 1, 57, 0
4, 3309, Note_on_c, 1, 51, 0
4, 3312, Note_on_c, 1, 57, 54
4, 3312, Note_on_c, 1, 51, 54
4, 3357, Note_on_c, 1, 57, 0
4, 3357, Note_on_c, 1, 51, 0
4, 3360, Note_on_c, 1, 57, 54
4, 3360, Note_on_c, 1, 51, 54
4, 3405, Note_on_c, 1, 57, 0
4, 3405, Note_on_c, 1, 51, 0
4, 3408, Note_on_c, 1, 57, 54
4, 3408, Note_on_c, 1, 51, 54
4, 3453, Note_on_c, 1, 57, 0
4, 3453, Note_on_c, 1, 51, 0
4, 3504, Note_on_c, 1, 53, 54
4, 3504, Note_on_c, 1, 50, 54
4, 3549, Note_on_c, 1, 53, 0
4, 3549, Note_on_c, 1, 50, 0
4, 3552, Note_on_c, 1, 53, 54
4, 3552, Note_on_c, 1, 50, 54
4, 3597, Note_on_c, 1, 53, 0
4, 3597, Note_on_c, 1, 50, 0
4, 3600, Note_on_c, 1, 53, 54
4, 3600, Note_on_c, 1, 50, 54
4, 3645, Note_on_c, 1, 53, 0
4, 3645, Note_on_c, 1, 50, 0
4, 3648, Note_on_c, 1, 53, 54
4, 3648, Note_on_c, 1, 50, 54
4, 3693, Note_on_c, 1, 53, 0
4, 3693, Note_on_c, 1, 50, 0
4, 3744, Note_on_c, 1, 48, 54
4, 3759, Note_on_c, 1, 48, 0
4, 3760, Note_on_c, 1, 52, 54
4, 3775, Note_on_c, 1, 52, 0
4, 3776, Note_on_c, 1, 55, 54
4, 3791, Note_on_c, 1, 55, 0
4, 3792, Note_on_c, 1, 48, 54
4, 3807, Note_on_c, 1, 48, 0
4, 3808, Note_on_c, 1, 52, 54
4, 3823, Note_on_c, 1, 52, 0
4, 3824, Note_on_c, 1, 55, 54
4, 3839, Note_on_c, 1, 55, 0
4, 3840, Note_on_c, 1, 48, 54
4, 3855, Note_on_c, 1, 48, 0
4, 3856, Note_on_c, 1, 52, 54
4, 3871, Note_on_c, 1, 52, 0
4, 3872, Note_on_c, 1, 55, 54
4, 3887, Note_on_c, 1, 55, 0
4, 3888, Note_on_c, 1, 48, 54
4, 3903, Note_on_c, 1, 48, 0
4, 3904, Note_on_c, 1, 52, 54
4, 3919, Note_on_c, 1, 52, 0
4, 3920, Note_on_c, 1, 55, 54
4, 3935, Note_on_c, 1, 55, 0
4, 3936, Note_on_c, 1, 48, 54
4, 3951, Note_on_c, 1, 48, 0
4, 3952, Note_on_c, 1, 53, 54
4, 3967, Note_on_c, 1, 53, 0
4, 3968, Note_on_c, 1, 57, 54
4, 3983, Note_on_c, 1, 57, 0
4, 3984, Note_on_c, 1, 48, 54
4, 3999, Note_on_c, 1, 48, 0
4, 4000, Note_on_c, 1, 53, 54
4, 4015, Note_on_c, 1, 53, 0
4, 4016, Note_on_c, 1, 57, 54
4, 4031, Note_on_c, 1, 57, 0
4, 4032, Note_on_c, 1, 46, 54
4, 4047, Note_on_c, 1, 46, 0
4, 4048, Note_on_c, 1, 53, 54
4, 4063, Note_on_c, 1, 53, 0
4, 4064, Note_on_c, 1, 57, 55
4, 4079, Note_on_c, 1, 57, 0
4, 4080, Note_on_c, 1, 46, 55
4, 4095, Note_on_c, 1, 46, 0
4, 4096, Note_on_c, 1, 53, 56
4, 4111, Note_on_c, 1, 53, 0
4, 4112, Note_on_c, 1, 57, 56
4, 4127, Note_on_c, 1, 57, 0
4, 4128, Note_on_c, 1, 46, 57
4, 4143, Note_on_c, 1, 46, 0
4, 4144, Note_on_c, 1, 53, 57
4, 4159, Note_on_c, 1, 53, 0
4, 4160, Note_on_c, 1, 55, 58
4, 4175, Note_on_c, 1, 55, 0
4, 4176, Note_on_c, 1, 46, 59
4, 4191, Note_on_c, 1, 46, 0
4, 4192, Note_on_c, 1, 53, 59
4, 4207, Note_on_c, 1, 53, 0
4, 4208, Note_on_c, 1, 55, 60
4, 4223, Note_on_c, 1, 55, 0
4, 4224, Note_on_c, 1, 47, 63
4, 4239, Note_on_c, 1, 47, 0
4, 4240, Note_on_c, 1, 50, 63
4, 4255, Note_on_c, 1, 50, 0
4, 4256, Note_on_c, 1, 55, 63
4, 4271, Note_on_c, 1, 55, 0
4, 4272, Note_on_c, 1, 47, 63
4, 4287, Note_on_c, 1, 47, 0
4, 4288, Note_on_c, 1, 50, 63
4, 4303, Note_on_c, 1, 50, 0
4, 4304, Note_on_c, 1, 55, 63
4, 4319, Note_on_c, 1, 55, 0
4, 4320, Note_on_c, 1, 48, 63
4, 4335, Note_on_c, 1, 48, 0
4, 4336, Note_on_c, 1, 52, 62
4, 4351, Note_on_c, 1, 52, 0
4, 4352, Note_on_c, 1, 55, 61
4, 4367, Note_on_c, 1, 55, 0
4, 4368, Note_on_c, 1, 48, 61
4, 4383, Note_on_c, 1, 48, 0
4, 4384, Note_on_c, 1, 52, 60
4, 4399, Note_on_c, 1, 52, 0
4, 4400, Note_on_c, 1, 55, 60
4, 4415, Note_on_c, 1, 55, 0
4, 4416, Note_on_c, 1, 52, 59
4, 4431, Note_on_c, 1, 52, 0
4, 4432, Note_on_c, 1, 55, 59
4, 4447, Note_on_c, 1, 55, 0
4, 4448, Note_on_c, 1, 60, 58
4, 4463, Note_on_c, 1, 60, 0
4, 4464, Note_on_c, 1, 52, 57
4, 4479, Note_on_c, 1, 52, 0
4, 4480, Note_on_c, 1, 55, 57
4, 4495, Note_on_c, 1, 55, 0
4, 4496, Note_on_c, 1, 60, 56
4, 4511, Note_on_c, 1, 60, 0
4, 4512, Note_on_c, 1, 53, 54
4, 4527, Note_on_c, 1, 53, 0
4, 4528, Note_on_c, 1, 57, 54
4, 4543, Note_on_c, 1, 57, 0
4, 4544, Note_on_c, 1, 60, 54
4, 4559, Note_on_c, 1, 60, 0
4, 4560, Note_on_c, 1, 53, 54
4, 4575, Note_on_c, 1, 53, 0
4, 4576, Note_on_c, 1, 57, 54
4, 4591, Note_on_c, 1, 57, 0
4, 4592, Note_on_c, 1, 60, 54
4, 4607, Note_on_c, 1, 60, 0
4, 4608, Note_on_c, 1, 62, 54
4, 4608, Note_on_c, 1, 58, 54
4, 4653, Note_on_c, 1, 62, 0
4, 4653, Note_on_c, 1, 58, 0
4, 4704, Note_on_c, 1, 57, 72
4, 4800, Note_on_c, 1, 57, 0
4, 4800, Note_on_c, 1, 58, 72
4, 4889, Note_on_c, 1, 58, 0
4, 4896, Note_on_c, 1, 53, 72
4, 4911, Note_on_c, 1, 53, 0
4, 4912, Note_on_c, 1, 57, 72
4, 4927, Note_on_c, 1, 57, 0
4, 4928, Note_on_c, 1, 55, 72
4, 4943, Note_on_c, 1, 55, 0
4, 4944, Note_on_c, 1, 53, 72
4, 4959, Note_on_c, 1, 53, 0
4, 4960, Note_on_c, 1, 62, 72
4, 4975, Note_on_c, 1, 62, 0
4, 4976, Note_on_c, 1, 60, 72
4, 4991, Note_on_c, 1, 60, 0
4, 4992, Note_on_c, 1, 58, 72
4, 5007, Note_on_c, 1, 58, 0
4, 5008, Note_on_c, 1, 67, 72
4, 5023, Note_on_c, 1, 67, 0
4, 5024, Note_on_c, 1, 65, 72
4, 5039, Note_on_c, 1, 65, 0
4, 5040, Note_on_c, 1, 64, 72
4, 5055, Note_on_c, 1, 64, 0
4, 5056, Note_on_c, 1, 70, 72
4, 5071, Note_on_c, 1, 70, 0
4, 5072, Note_on_c, 1, 69, 70
4, 5087, Note_on_c, 1, 69, 0
4, 5088, Note_on_c, 1, 67, 68
4, 5103, Note_on_c, 1, 67, 0
4, 5104, Note_on_c, 1, 65, 67
4, 5119, Note_on_c, 1, 65, 0
4, 5120, Note_on_c, 1, 64, 65
4, 5135, Note_on_c, 1, 64, 0
4, 5136, Note_on_c, 1, 62, 63
4, 5151, Note_on_c, 1, 62, 0
4, 5152, Note_on_c, 1, 60, 62
4, 5167, Note_on_c, 1, 60, 0
4, 5168, Note_on_c, 1, 58, 60
4, 5183, Note_on_c, 1, 58, 0
4, 5184, Note_on_c, 1, 57, 54
4, 5199, Note_on_c, 1, 57, 0
4, 5200, Note_on_c, 1, 60, 54
4, 5215, Note_on_c, 1, 60, 0
4, 5216, Note_on_c, 1, 65, 54
4, 5231, Note_on_c, 1, 65, 0
4, 5232, Note_on_c, 1, 57, 54
4, 5247, Note_on_c, 1, 57, 0
4, 5248, Note_on_c, 1, 60, 54
4, 5263, Note_on_c, 1, 60, 0
4, 5264, Note_on_c, 1, 65, 54
4, 5279, Note_on_c, 1, 65, 0
4, 5280, Note_on_c, 1, 55, 54
4, 5295, Note_on_c, 1, 55, 0
4, 5296, Note_on_c, 1, 58, 54
4, 5311, Note_on_c, 1, 58, 0
4, 5312, Note_on_c, 1, 64, 54
4, 5327, Note_on_c, 1, 64, 0
4, 5328, Note_on_c, 1, 55, 54
4, 5343, Note_on_c, 1, 55, 0
4, 5344, Note_on_c, 1, 58, 54
4, 5359, Note_on_c, 1, 58, 0
4, 5360, Note_on_c, 1, 64, 54
4, 5375, Note_on_c, 1, 64, 0
4, 5376, Note_on_c, 1, 53, 54
4, 5391, Note_on_c, 1, 53, 0
4, 5392, Note_on_c, 1, 57, 54
4, 5407, Note_on_c, 1, 57, 0
4, 5408, Note_on_c, 1, 65, 54
4, 5423, Note_on_c, 1, 65, 0
4, 5424, Note_on_c, 1, 53, 54
4, 5439, Note_on_c, 1, 53, 0
4, 5440, Note_on_c, 1, 57, 54
4, 5455, Note_on_c, 1, 57, 0
4, 5456, Note_on_c, 1, 65, 54
4, 5471, Note_on_c, 1, 65, 0
4, 5472, Note_on_c, 1, 62, 54
4, 5472, Note_on_c, 1, 58, 54
4, 5561, Note_on_c, 1, 62, 0
4, 5561, Note_on_c, 1, 58, 0
4, 5664, Note_on_c, 1, 70, 54
4, 5664, Note_on_c, 1, 60, 54
4, 5760, Note_on_c, 1, 60, 0
4, 5760, Note_on_c, 1, 65, 50
4, 5856, Note_on_c, 1, 70, 0
4, 5856, Note_on_c, 1, 69, 46
4, 5901, Note_on_c, 1, 69, 0
4, 5901, Note_on_c, 1, 65, 0
4, 6048, Note_on_c, 1, 65, 64
4, 6048, Note_on_c, 1, 62, 64
4, 6144, Note_on_c, 1, 65, 0
4, 6144, Note_on_c, 1, 62, 0
4, 6144, Note_on_c, 1, 67, 64
4, 6144, Note_on_c, 1, 64, 64
4, 6164, Note_on_c, 1, 67, 0
4, 6164, Note_on_c, 1, 64, 0
4, 6336, Note_on_c, 1, 73, 64
4, 6336, Note_on_c, 1, 70, 64
4, 6336, Note_on_c, 1, 67, 64
4, 6336, Note_on_c, 1, 64, 64
4, 6432, Note_on_c, 1, 73, 0
4, 6432, Note_on_c, 1, 70, 0
4, 6432, Note_on_c, 1, 67, 0
4, 6432, Note_on_c, 1, 64, 0
4, 6432, Note_on_c, 1, 74, 64
4, 6432, Note_on_c, 1, 69, 64
4, 6432, Note_on_c, 1, 65, 64
4, 6452, Note_on_c, 1, 74, 0
4, 6452, Note_on_c, 1, 69, 0
4, 6452, Note_on_c, 1, 65, 0
4, 6624, Note_on_c, 1, 67, 64
4, 6644, Note_on_c, 1, 67, 0
4, 6720, Note_on_c, 1, 69, 64
4, 6740, Note_on_c, 1, 69, 0
4, 6816, Note_on_c, 1, 69, 64
4, 6816, Note_on_c, 1, 61, 64
4, 6836, Note_on_c, 1, 69, 0
4, 6836, Note_on_c, 1, 61, 0
4, 6912, Note_on_c, 1, 69, 64
4, 6912, Note_on_c, 1, 62, 64
4, 6957, Note_on_c, 1, 69, 0
4, 6957, Note_on_c, 1, 62, 0
4, 7008, Note_on_c, 1, 73, 64
4, 7008, Note_on_c, 1, 69, 64
4, 7053, Note_on_c, 1, 73, 0
4, 7053, Note_on_c, 1, 69, 0
4, 7200, Note_on_c, 1, 53, 64
4, 7200, Note_on_c, 1, 50, 64
4, 7296, Note_on_c, 1, 53, 0
4, 7296, Note_on_c, 1, 50, 0
4, 7296, Note_on_c, 1, 55, 64
4, 7296, Note_on_c, 1, 52, 64
4, 7316, Note_on_c, 1, 55, 0
4, 7316, Note_on_c, 1, 52, 0
4, 7488, Note_on_c, 1, 61, 64
4, 7488, Note_on_c, 1, 58, 64
4, 7488, Note_on_c, 1, 55, 64
4, 7488, Note_on_c, 1, 52, 64
4, 7584, Note_on_c, 1, 61, 0
4, 7584, Note_on_c, 1, 58, 0
4, 7584, Note_on_c, 1, 55, 0
4, 7584, Note_on_c, 1, 52, 0
4, 7584, Note_on_c, 1, 57, 64
4, 7584, Note_on_c, 1, 53, 64
4, 7604, Note_on_c, 1, 57, 0
4, 7604, Note_on_c, 1, 53, 0
4, 7776, Note_on_c, 1, 56, 64
4, 7776, Note_on_c, 1, 50, 64
4, 7776, Note_on_c, 1, 46, 64
4, 7865, Note_on_c, 1, 56, 0
4, 7865, Note_on_c, 1, 50, 0
4, 7865, Note_on_c, 1, 46, 0
4, 7968, Note_on_c, 1, 34, 64
4, 8013, Note_on_c, 1, 34, 0
4, 8064, Note_on_c, 1, 33, 64
4, 8103, Note_on_c, 1, 33, 0
4, 8352, Note_on_c, 1, 41, 80
4, 8352, Note_on_c, 1, 29, 80
4, 8446, Note_on_c, 1, 41, 0
4, 8446, Note_on_c, 1, 29, 0
4, 8688, Note_on_c, 1, 58, 54
4, 8688, Note_on_c, 1, 52, 54
4, 8733, Note_on_c, 1, 58, 0
4, 8733, Note_on_c, 1, 52, 0
4, 8736, Note_on_c, 1, 58, 54
4, 8736, Note_on_c, 1, 52, 54
4, 8781, Note_on_c, 1, 58, 0
4, 8781, Note_on_c, 1, 52, 0
4, 8784, Note_on_c, 1, 58, 54
4, 8784, Note_on_c, 1, 52, 54
4, 8829, Note_on_c, 1, 58, 0
4, 8829, Note_on_c, 1, 52, 0
4, 8832, Note_on_c, 1, 58, 54
4, 8832, Note_on_c, 1, 52, 54
4, 8877, Note_on_c, 1, 58, 0
4, 8877, Note_on_c, 1, 52, 0
4, 8880, Note_on_c, 1, 58, 54
4, 8880, Note_on_c, 1, 52, 54
4, 8925, Note_on_c, 1, 58, 0
4, 8925, Note_on_c, 1, 52, 0
4, 8928, Note_on_c, 1, 57, 54
4, 8928, Note_on_c, 1, 53, 54
4, 9017, Note_on_c, 1, 57, 0
4, 9017, Note_on_c, 1, 53, 0
4, 9264, Note_on_c, 1, 57, 54
4, 9264, Note_on_c, 1, 51, 54
4, 9309, Note_on_c, 1, 57, 0
4, 9309, Note_on_c, 1, 51, 0
4, 9312, Note_on_c, 1, 57, 54
4, 9312, Note_on_c, 1, 51, 54
4, 9357, Note_on_c, 1, 57, 0
4, 9357, Note_on_c, 1, 51, 0
4, 9360, Note_on_c, 1, 57, 54
4, 9360, Note_on_c, 1, 51, 54
4, 9405, Note_on_c, 1, 57, 0
4, 9405, Note_on_c, 1, 51, 0
4, 9408, Note_on_c, 1, 57, 54
4, 9408, Note_on_c, 1, 51, 54
4, 9453, Note_on_c, 1, 57, 0
4, 9453, Note_on_c, 1, 51, 0
4, 9456, Note_on_c, 1, 57, 54
4, 9456, Note_on_c, 1, 51, 54
4, 9501, Note_on_c, 1, 57, 0
4, 9501, Note_on_c, 1, 51, 0
4, 9552, Note_on_c, 1, 53, 54
4, 9552, Note_on_c, 1, 50, 54
4, 9597, Note_on_c, 1, 53, 0
4, 9597, Note_on_c, 1, 50, 0
4, 9600, Note_on_c, 1, 53, 54
4, 9600, Note_on_c, 1, 50, 54
4, 9645, Note_on_c, 1, 53, 0
4, 9645, Note_on_c, 1, 50, 0
4, 9648, Note_on_c, 1, 53, 54
4, 9648, Note_on_c, 1, 50, 54
4, 9693, Note_on_c, 1, 53, 0
4, 9693, Note_on_c, 1, 50, 0
4, 9696, Note_on_c, 1, 53, 54
4, 9696, Note_on_c, 1, 50, 54
4, 9741, Note_on_c, 1, 53, 0
4, 9741, Note_on_c, 1, 50, 0
4, 9792, Note_on_c, 1, 48, 54
4, 9807, Note_on_c, 1, 48, 0
4, 9808, Note_on_c, 1, 52, 54
4, 9823, Note_on_c, 1, 52, 0
4, 9824, Note_on_c, 1, 55, 54
4, 9839, Note_on_c, 1, 55, 0
4, 9840, Note_on_c, 1, 48, 54
4, 9855, Note_on_c, 1, 48, 0
4, 9856, Note_on_c, 1, 52, 54
4, 9871, Note_on_c, 1, 52, 0
4, 9872, Note_on_c, 1, 55, 54
4, 9887, Note_on_c, 1, 55, 0
4, 9888, Note_on_c, 1, 48, 54
4, 9903, Note_on_c, 1, 48, 0
4, 9904, Note_on_c, 1, 52, 54
4, 9919, Note_on_c, 1, 52, 0
4, 9920, Note_on_c, 1, 55, 54
4, 9935, Note_on_c, 1, 55, 0
4, 9936, Note_on_c, 1, 48, 54
4, 9951, Note_on_c, 1, 48, 0
4, 9952, Note_on_c, 1, 52, 54
4, 9967, Note_on_c, 1, 52, 0
4, 9968, Note_on_c, 1, 55, 54
4, 9983, Note_on_c, 1, 55, 0
4, 9984, Note_on_c, 1, 48, 54
4, 9999, Note_on_c, 1, 48, 0
4, 10000, Note_on_c, 1, 53, 54
4, 10015, Note_on_c, 1, 53, 0
4, 10016, Note_on_c, 1, 57, 54
4, 10031, Note_on_c, 1, 57, 0
4, 10032, Note_on_c, 1, 48, 54
4, 10047, Note_on_c, 1, 48, 0
4, 10048, Note_on_c, 1, 53, 54
4, 10063, Note_on_c, 1, 53, 0
4, 10064, Note_on_c, 1, 57, 54
4, 10079, Note_on_c, 1, 57, 0
4, 10080, Note_on_c, 1, 46, 54
4, 10095, Note_on_c, 1, 46, 0
4, 10096, Note_on_c, 1, 53, 54
4, 10111, Note_on_c, 1, 53, 0
4, 10112, Note_on_c, 1, 57, 55
4, 10127, Note_on_c, 1, 57, 0
4, 10128, Note_on_c, 1, 46, 55
4, 10143, Note_on_c, 1, 46, 0
4, 10144, Note_on_c, 1, 53, 56
4, 10159, Note_on_c, 1, 53, 0
4, 10160, Note_on_c, 1, 57, 56
4, 10175, Note_on_c, 1, 57, 0
4, 10176, Note_on_c, 1, 46, 57
4, 10191, Note_on_c, 1, 46, 0
4, 10192, Note_on_c, 1, 53, 57
4, 10207, Note_on_c, 1, 53, 0
4, 10208, Note_on_c, 1, 55, 58
4, 10223, Note_on_c, 1, 55, 0
4, 10224, Note_on_c, 1, 46, 59
4, 10239, Note_on_c, 1, 46, 0
4, 10240, Note_on_c, 1, 53, 59
4, 10255, Note_on_c, 1, 53, 0
4, 10256, Note_on_c, 1, 55, 60
4, 10271, Note_on_c, 1, 55, 0
4, 10272, Note_on_c, 1, 47, 63
4, 10287, Note_on_c, 1, 47, 0
4, 10288, Note_on_c, 1, 50, 63
4, 10303, Note_on_c, 1, 50, 0
4, 10304, Note_on_c, 1, 55, 63
4, 10319, Note_on_c, 1, 55, 0
4, 10320, Note_on_c, 1, 47, 63
4, 10335, Note_on_c, 1, 47, 0
4, 10336, Note_on_c, 1, 50, 63
4, 10351, Note_on_c, 1, 50, 0
4, 10352, Note_on_c, 1, 55, 63
4, 10367, Note_on_c, 1, 55, 0
4, 10368, Note_on_c, 1, 48, 63
4, 10383, Note_on_c, 1, 48, 0
4, 10384, Note_on_c, 1, 52, 62
4, 10399, Note_on_c, 1, 52, 0
4, 10400, Note_on_c, 1, 55, 61
4, 10415, Note_on_c, 1, 55, 0
4, 10416, Note_on_c, 1, 48, 61
4, 10431, Note_on_c, 1, 48, 0
4, 10432, Note_on_c, 1, 52, 60
4, 10447, Note_on_c, 1, 52, 0
4, 10448, Note_on_c, 1, 55, 60
4, 10463, Note_on_c, 1, 55, 0
4, 10464, Note_on_c, 1, 52, 59
4, 10479, Note_on_c, 1, 52, 0
4, 10480, Note_on_c, 1, 55, 59
4, 10495, Note_on_c, 1, 55, 0
4, 10496, Note_on_c, 1, 60, 58
4, 10511, Note_on_c, 1, 60, 0
4, 10512, Note_on_c, 1, 52, 57
4, 10527, Note_on_c, 1, 52, 0
4, 10528, Note_on_c, 1, 55, 57
4, 10543, Note_on_c, 1, 55, 0
4, 10544, Note_on_c, 1, 60, 56
4, 10559, Note_on_c, 1, 60, 0
4, 10560, Note_on_c, 1, 53, 54
4, 10575, Note_on_c, 1, 53, 0
4, 10576, Note_on_c, 1, 57, 54
4, 10591, Note_on_c, 1, 57, 0
4, 10592, Note_on_c, 1, 60, 54
4, 10607, Note_on_c, 1, 60, 0
4, 10608, Note_on_c, 1, 53, 54
4, 10623, Note_on_c, 1, 53, 0
4, 10624, Note_on_c, 1, 57, 54
4, 10639, Note_on_c, 1, 57, 0
4, 10640, Note_on_c, 1, 60, 54
4, 10655, Note_on_c, 1, 60, 0
4, 10656, Note_on_c, 1, 62, 54
4, 10656, Note_on_c, 1, 58, 54
4, 10701, Note_on_c, 1, 62, 0
4, 10701, Note_on_c, 1, 58, 0
4, 10752, Note_on_c, 1, 57, 72
4, 10848, Note_on_c, 1, 57, 0
4, 10848, Note_on_c, 1, 58, 72
4, 10937, Note_on_c, 1, 58, 0
4, 10944, Note_on_c, 1, 53, 72
4, 10959, Note_on_c, 1, 53, 0
4, 10960, Note_on_c, 1, 57, 72
4, 10975, Note_on_c, 1, 57, 0
4, 10976, Note_on_c, 1, 55, 72
4, 10991, Note_on_c, 1, 55, 0
4, 10992, Note_on_c, 1, 53, 72
4, 11007, Note_on_c, 1, 53, 0
4, 11008, Note_on_c, 1, 62, 72
4, 11023, Note_on_c, 1, 62, 0
4, 11024, Note_on_c, 1, 60, 72
4, 11039, Note_on_c, 1, 60, 0
4, 11040, Note_on_c, 1, 58, 72
4, 11055, Note_on_c, 1, 58, 0
4, 11056, Note_on_c, 1, 67, 72
4, 11071, Note_on_c, 1, 67, 0
4, 11072, Note_on_c, 1, 65, 72
4, 11087, Note_on_c, 1, 65, 0
4, 11088, Note_on_c, 1, 64, 72
4, 11103, Note_on_c, 1, 64, 0
4, 11104, Note_on_c, 1, 70, 72
4, 11119, Note_on_c, 1, 70, 0
4, 11120, Note_on_c, 1, 69, 70
4, 11135, Note_on_c, 1, 69, 0
4, 11136, Note_on_c, 1, 67, 68
4, 11151, Note_on_c, 1, 67, 0
4, 11152, Note_on_c, 1, 65, 67
4, 11167, Note_on_c, 1, 65, 0
4, 11168, Note_on_c, 1, 64, 65
4, 11183, Note_on_c, 1, 64, 0
4, 11184, Note_on_c, 1, 62, 63
4, 11199, Note_on_c, 1, 62, 0
4, 11200, Note_on_c, 1, 60, 62
4, 11215, Note_on_c, 1, 60, 0
4, 11216, Note_on_c, 1, 58, 60
4, 11231, Note_on_c, 1, 58, 0
4, 11232, Note_on_c, 1, 57, 54
4, 11247, Note_on_c, 1, 57, 0
4, 11248, Note_on_c, 1, 60, 54
4, 11263, Note_on_c, 1, 60, 0
4, 11264, Note_on_c, 1, 65, 54
4, 11279, Note_on_c, 1, 65, 0
4, 11280, Note_on_c, 1, 57, 54
4, 11295, Note_on_c, 1, 57, 0
4, 11296, Note_on_c, 1, 60, 54
4, 11311, Note_on_c, 1, 60, 0
4, 11312, Note_on_c, 1, 65, 54
4, 11327, Note_on_c, 1, 65, 0
4, 11328, Note_on_c, 1, 55, 54
4, 11343, Note_on_c, 1, 55, 0
4, 11344, Note_on_c, 1, 58, 54
4, 11359, Note_on_c, 1, 58, 0
4, 11360, Note_on_c, 1, 64, 54
4, 11375, Note_on_c, 1, 64, 0
4, 11376, Note_on_c, 1, 55, 54
4, 11391, Note_on_c, 1, 55, 0
4, 11392, Note_on_c, 1, 58, 54
4, 11407, Note_on_c, 1, 58, 0
4, 11408, Note_on_c, 1, 64, 54
4, 11423, Note_on_c, 1, 64, 0
4, 11424, Note_on_c, 1, 53, 54
4, 11439, Note_on_c, 1, 53, 0
4, 11440, Note_on_c, 1, 57, 54
4, 11455, Note_on_c, 1, 57, 0
4, 11456, Note_on_c, 1, 65, 54
4, 11471, Note_on_c, 1, 65, 0
4, 11472, Note_on_c, 1, 53, 54
4, 11487, Note_on_c, 1, 53, 0
4, 11488, Note_on_c, 1, 57, 54
4, 11503, Note_on_c, 1, 57, 0
4, 11504, Note_on_c, 1, 65, 54
4, 11519, Note_on_c, 1, 65, 0
4, 11520, Note_on_c, 1, 62, 54
4, 11520, Note_on_c, 1, 58, 54
4, 11609, Note_on_c, 1, 62, 0
4, 11609, Note_on_c, 1, 58, 0
4, 11712, Note_on_c, 1, 70, 54
4, 11712, Note_on_c, 1, 60, 54
4, 11808, Note_on_c, 1, 60, 0
4, 11808, Note_on_c, 1, 65, 50
4, 11904, Note_on_c, 1, 70, 0
4, 11904, Note_on_c, 1, 69, 46
4, 11949, Note_on_c, 1, 69, 0
4, 11949, Note_on_c, 1, 65, 0
4, 12096, Note_on_c, 1, 57, 72
4, 12096, Note_on_c, 1, 53, 72
4, 12192, Note_on_c, 1, 57, 0
4, 12192, Note_on_c, 1, 53, 0
4, 12192, Note_on_c, 1, 58, 72
4, 12192, Note_on_c, 1, 55, 72
4, 12212, Note_on_c, 1, 58, 0
4, 12212, Note_on_c, 1, 55, 0
4, 12288, Note_on_c, 1, 55, 72
4, 12295, Note_on_c, 1, 55, 0
4, 12304, Note_on_c, 1, 58, 72
4, 12311, Note_on_c, 1, 58, 0
4, 12320, Note_on_c, 1, 60, 72
4, 12327, Note_on_c, 1, 60, 0
4, 12480, Note_on_c, 1, 63, 72
4, 12480, Note_on_c, 1, 60, 72
4, 12480, Note_on_c, 1, 57, 72
4, 12525, Note_on_c, 1, 63, 0
4, 12525, Note_on_c, 1, 60, 0
4, 12525, Note_on_c, 1, 57, 0
4, 12672, Note_on_c, 1, 58, 72
4, 12679, Note_on_c, 1, 58, 0
4, 12688, Note_on_c, 1, 62, 72
4, 12695, Note_on_c, 1, 62, 0
4, 12704, Note_on_c, 1, 67, 72
4, 12711, Note_on_c, 1, 67, 0
4, 12960, Note_on_c, 1, 60, 54
4, 12975, Note_on_c, 1, 60, 0
4, 12976, Note_on_c, 1, 67, 54
4, 12991, Note_on_c, 1, 67, 0
4, 12992, Note_on_c, 1, 70, 54
4, 13007, Note_on_c, 1, 70, 0
4, 13008, Note_on_c, 1, 60, 54
4, 13023, Note_on_c, 1, 60, 0
4, 13024, Note_on_c, 1, 67, 54
4, 13039, Note_on_c, 1, 67, 0
4, 13040, Note_on_c, 1, 70, 54
4, 13055, Note_on_c, 1, 70, 0
4, 13056, Note_on_c, 1, 60, 54
4, 13071, Note_on_c, 1, 60, 0
4, 13072, Note_on_c, 1, 67, 54
4, 13087, Note_on_c, 1, 67, 0
4, 13088, Note_on_c, 1, 70, 54
4, 13103, Note_on_c, 1, 70, 0
4, 13104, Note_on_c, 1, 60, 54
4, 13119, Note_on_c, 1, 60, 0
4, 13120, Note_on_c, 1, 67, 54
4, 13135, Note_on_c, 1, 67, 0
4, 13136, Note_on_c, 1, 70, 54
4, 13151, Note_on_c, 1, 70, 0
4, 13152, Note_on_c, 1, 60, 54
4, 13167, Note_on_c, 1, 60, 0
4, 13168, Note_on_c, 1, 67, 54
4, 13183, Note_on_c, 1, 67, 0
4, 13184, Note_on_c, 1, 70, 54
4, 13199, Note_on_c, 1, 70, 0
4, 13200, Note_on_c, 1, 60, 54
4, 13215, Note_on_c, 1, 60, 0
4, 13216, Note_on_c, 1, 67, 54
4, 13231, Note_on_c, 1, 67, 0
4, 13232, Note_on_c, 1, 70, 54
4, 13247, Note_on_c, 1, 70, 0
4, 13248, Note_on_c, 1, 70, 72
4, 13344, Note_on_c, 1, 70, 0
4, 13344, Note_on_c, 1, 69, 72
4, 13521, Note_on_c, 1, 69, 0
4, 13536, Note_on_c, 1, 58, 54
4, 13551, Note_on_c, 1, 58, 0
4, 13552, Note_on_c, 1, 65, 54
4, 13567, Note_on_c, 1, 65, 0
4, 13568, Note_on_c, 1, 69, 54
4, 13583, Note_on_c, 1, 69, 0
4, 13584, Note_on_c, 1, 58, 54
4, 13599, Note_on_c, 1, 58, 0
4, 13600, Note_on_c, 1, 65, 54
4, 13615, Note_on_c, 1, 65, 0
4, 13616, Note_on_c, 1, 69, 54
4, 13631, Note_on_c, 1, 69, 0
4, 13632, Note_on_c, 1, 58, 54
4, 13647, Note_on_c, 1, 58, 0
4, 13648, Note_on_c, 1, 65, 54
4, 13663, Note_on_c, 1, 65, 0
4, 13664, Note_on_c, 1, 67, 54
4, 13679, Note_on_c, 1, 67, 0
4, 13680, Note_on_c, 1, 58, 54
4, 13695, Note_on_c, 1, 58, 0
4, 13696, Note_on_c, 1, 65, 54
4, 13711, Note_on_c, 1, 65, 0
4, 13712, Note_on_c, 1, 67, 54
4, 13727, Note_on_c, 1, 67, 0
4, 13728, Note_on_c, 1, 58, 54
4, 13743, Note_on_c, 1, 58, 0
4, 13744, Note_on_c, 1, 65, 54
4, 13759, Note_on_c, 1, 65, 0
4, 13760, Note_on_c, 1, 67, 54
4, 13775, Note_on_c, 1, 67, 0
4, 13776, Note_on_c, 1, 58, 54
4, 13791, Note_on_c, 1, 58, 0
4, 13792, Note_on_c, 1, 65, 54
4, 13807, Note_on_c, 1, 65, 0
4, 13808, Note_on_c, 1, 67, 54
4, 13823, Note_on_c, 1, 67, 0
4, 13824, Note_on_c, 1, 57, 54
4, 13839, Note_on_c, 1, 57, 0
4, 13840, Note_on_c, 1, 64, 54
4, 13855, Note_on_c, 1, 64, 0
4, 13856, Note_on_c, 1, 67, 54
4, 13871, Note_on_c, 1, 67, 0
4, 13872, Note_on_c, 1, 57, 54
4, 13887, Note_on_c, 1, 57, 0
4, 13888, Note_on_c, 1, 64, 54
4, 13903, Note_on_c, 1, 64, 0
4, 13904, Note_on_c, 1, 67, 54
4, 13919, Note_on_c, 1, 67, 0
4, 13920, Note_on_c, 1, 61, 54
4, 13935, Note_on_c, 1, 61, 0
4, 13936, Note_on_c, 1, 64, 54
4, 13951, Note_on_c, 1, 64, 0
4, 13952, Note_on_c, 1, 69, 54
4, 13967, Note_on_c, 1, 69, 0
4, 13968, Note_on_c, 1, 61, 54
4, 13983, Note_on_c, 1, 61, 0
4, 13984, Note_on_c, 1, 64, 54
4, 13999, Note_on_c, 1, 64, 0
4, 14000, Note_on_c, 1, 69, 54
4, 14015, Note_on_c, 1, 69, 0
4, 14016, Note_on_c, 1, 62, 54
4, 14031, Note_on_c, 1, 62, 0
4, 14032, Note_on_c, 1, 65, 54
4, 14047, Note_on_c, 1, 65, 0
4, 14048, Note_on_c, 1, 69, 54
4, 14063, Note_on_c, 1, 69, 0
4, 14064, Note_on_c, 1, 62, 54
4, 14079, Note_on_c, 1, 62, 0
4, 14080, Note_on_c, 1, 65, 54
4, 14095, Note_on_c, 1, 65, 0
4, 14096, Note_on_c, 1, 69, 54
4, 14111, Note_on_c, 1, 69, 0
4, 14112, Note_on_c, 1, 57, 54
4, 14127, Note_on_c, 1, 57, 0
4, 14128, Note_on_c, 1, 61, 54
4, 14143, Note_on_c, 1, 61, 0
4, 14144, Note_on_c, 1, 64, 54
4, 14159, Note_on_c, 1, 64, 0
4, 14160, Note_on_c, 1, 69, 54
4, 14175, Note_on_c, 1, 69, 0
4, 14176, Note_on_c, 1, 64, 54
4, 14191, Note_on_c, 1, 64, 0
4, 14192, Note_on_c, 1, 61, 54
4, 14207, Note_on_c, 1, 61, 0
4, 14208, Note_on_c, 1, 57, 72
4, 14253, Note_on_c, 1, 57, 0
4, 14304, Note_on_c, 1, 57, 72
4, 14319, Note_on_c, 1, 57, 0
4, 14320, Note_on_c, 1, 58, 72
4, 14335, Note_on_c, 1, 58, 0
4, 14336, Note_on_c, 1, 57, 72
4, 14351, Note_on_c, 1, 57, 0
4, 14352, Note_on_c, 1, 55, 72
4, 14367, Note_on_c, 1, 55, 0
4, 14368, Note_on_c, 1, 53, 72
4, 14383, Note_on_c, 1, 53, 0
4, 14384, Note_on_c, 1, 52, 72
4, 14399, Note_on_c, 1, 52, 0
4, 14400, Note_on_c, 1, 50, 72
4, 14445, Note_on_c, 1, 50, 0
4, 14496, Note_on_c, 1, 52, 72
4, 14504, Note_on_c, 1, 55, 72
4, 14512, Note_on_c, 1, 58, 72
4, 14589, Note_on_c, 1, 58, 0
4, 14589, Note_on_c, 1, 55, 0
4, 14589, Note_on_c, 1, 52, 0
4, 14688, Note_on_c, 1, 64, 72
4, 14694, Note_on_c, 1, 67, 72
4, 14700, Note_on_c, 1, 70, 72
4, 14706, Note_on_c, 1, 73, 72
4, 14781, Note_on_c, 1, 73, 0
4, 14781, Note_on_c, 1, 70, 0
4, 14781, Note_on_c, 1, 67, 0
4, 14781, Note_on_c, 1, 64, 0
4, 14784, Note_on_c, 1, 62, 72
4, 14790, Note_on_c, 1, 65, 72
4, 14796, Note_on_c, 1, 69, 72
4, 14802, Note_on_c, 1, 74, 72
4, 14877, Note_on_c, 1, 74, 0
4, 14877, Note_on_c, 1, 69, 0
4, 14877, Note_on_c, 1, 65, 0
4, 14877, Note_on_c, 1, 62, 0
4, 14952, Note_on_c, 1, 66, 72
4, 14976, Note_on_c, 1, 66, 0
4, 14976, Note_on_c, 1, 67, 72
4, 14996, Note_on_c, 1, 67, 0
4, 15048, Note_on_c, 1, 70, 72
4, 15072, Note_on_c, 1, 70, 0
4, 15072, Note_on_c, 1, 69, 72
4, 15092, Note_on_c, 1, 69, 0
4, 15144, Note_on_c, 1, 61, 72
4, 15168, Note_on_c, 1, 61, 0
4, 15168, Note_on_c, 1, 57, 72
4, 15188, Note_on_c, 1, 57, 0
4, 15240, Note_on_c, 1, 69, 72
4, 15240, Note_on_c, 1, 61, 72
4, 15263, Note_on_c, 1, 69, 0
4, 15263, Note_on_c, 1, 61, 0
4, 15264, Note_on_c, 1, 69, 72
4, 15264, Note_on_c, 1, 62, 72
4, 15309, Note_on_c, 1, 69, 0
4, 15309, Note_on_c, 1, 62, 0
4, 15360, Note_on_c, 1, 73, 72
4, 15360, Note_on_c, 1, 69, 72
4, 15405, Note_on_c, 1, 73, 0
4, 15405, Note_on_c, 1, 69, 0
4, 15568, Note_on_c, 1, 61, 72
4, 15583, Note_on_c, 1, 61, 0
4, 15584, Note_on_c, 1, 59, 72
4, 15599, Note_on_c, 1, 59, 0
4, 15600, Note_on_c, 1, 57, 72
4, 15615, Note_on_c, 1, 57, 0
4, 15616, Note_on_c, 1, 64, 72
4, 15631, Note_on_c, 1, 64, 0
4, 15632, Note_on_c, 1, 62, 72
4, 15647, Note_on_c, 1, 62, 0
4, 15648, Note_on_c, 1, 61, 72
4, 15663, Note_on_c, 1, 61, 0
4, 15664, Note_on_c, 1, 67, 72
4, 15679, Note_on_c, 1, 67, 0
4, 15680, Note_on_c, 1, 65, 72
4, 15695, Note_on_c, 1, 65, 0
4, 15696, Note_on_c, 1, 64, 72
4, 15741, Note_on_c, 1, 64, 0
4, 15856, Note_on_c, 1, 66, 72
4, 15871, Note_on_c, 1, 66, 0
4, 15872, Note_on_c, 1, 64, 72
4, 15887, Note_on_c, 1, 64, 0
4, 15888, Note_on_c, 1, 62, 72
4, 15903, Note_on_c, 1, 62, 0
4, 15904, Note_on_c, 1, 69, 72
4, 15919, Note_on_c, 1, 69, 0
4, 15920, Note_on_c, 1, 67, 72
4, 15935, Note_on_c, 1, 67, 0
4, 15936, Note_on_c, 1, 66, 72
4, 15951, Note_on_c, 1, 66, 0
4, 15952, Note_on_c, 1, 72, 72
4, 15967, Note_on_c, 1, 72, 0
4, 15968, Note_on_c, 1, 70, 72
4, 15983, Note_on_c, 1, 70, 0
4, 15984, Note_on_c, 1, 69, 72
4, 16029, Note_on_c, 1, 69, 0
4, 16128, Note_on_c, 1, 55, 54
4, 16143, Note_on_c, 1, 55, 0
4, 16144, Note_on_c, 1, 58, 54
4, 16159, Note_on_c, 1, 58, 0
4, 16160, Note_on_c, 1, 63, 54
4, 16175, Note_on_c, 1, 63, 0
4, 16176, Note_on_c, 1, 55, 54
4, 16191, Note_on_c, 1, 55, 0
4, 16192, Note_on_c, 1, 58, 54
4, 16207, Note_on_c, 1, 58, 0
4, 16208, Note_on_c, 1, 63, 54
4, 16223, Note_on_c, 1, 63, 0
4, 16224, Note_on_c, 1, 55, 54
4, 16239, Note_on_c, 1, 55, 0
4, 16240, Note_on_c, 1, 58, 54
4, 16255, Note_on_c, 1, 58, 0
4, 16256, Note_on_c, 1, 63, 54
4, 16271, Note_on_c, 1, 63, 0
4, 16272, Note_on_c, 1, 55, 54
4, 16287, Note_on_c, 1, 55, 0
4, 16288, Note_on_c, 1, 58, 54
4, 16303, Note_on_c, 1, 58, 0
4, 16304, Note_on_c, 1, 63, 54
4, 16319, Note_on_c, 1, 63, 0
4, 16320, Note_on_c, 1, 56, 54
4, 16335, Note_on_c, 1, 56, 0
4, 16336, Note_on_c, 1, 62, 54
4, 16351, Note_on_c, 1, 62, 0
4, 16352, Note_on_c, 1, 65, 54
4, 16367, Note_on_c, 1, 65, 0
4, 16368, Note_on_c, 1, 56, 54
4, 16383, Note_on_c, 1, 56, 0
4, 16384, Note_on_c, 1, 62, 54
4, 16399, Note_on_c, 1, 62, 0
4, 16400, Note_on_c, 1, 65, 54
4, 16415, Note_on_c, 1, 65, 0
4, 16416, Note_on_c, 1, 57, 54
4, 16431, Note_on_c, 1, 57, 0
4, 16432, Note_on_c, 1, 64, 54
4, 16447, Note_on_c, 1, 64, 0
4, 16448, Note_on_c, 1, 67, 54
4, 16463, Note_on_c, 1, 67, 0
4, 16464, Note_on_c, 1, 57, 54
4, 16479, Note_on_c, 1, 57, 0
4, 16480, Note_on_c, 1, 64, 54
4, 16495, Note_on_c, 1, 64, 0
4, 16496, Note_on_c, 1, 67, 54
4, 16511, Note_on_c, 1, 67, 0
4, 16512, Note_on_c, 1, 61, 54
4, 16527, Note_on_c, 1, 61, 0
4, 16528, Note_on_c, 1, 64, 54
4, 16543, Note_on_c, 1, 64, 0
4, 16544, Note_on_c, 1, 69, 54
4, 16559, Note_on_c, 1, 69, 0
4, 16560, Note_on_c, 1, 61, 54
4, 16575, Note_on_c, 1, 61, 0
4, 16576, Note_on_c, 1, 64, 54
4, 16591, Note_on_c, 1, 64, 0
4, 16592, Note_on_c, 1, 69, 54
4, 16607, Note_on_c, 1, 69, 0
4, 16608, Note_on_c, 1, 62, 54
4, 16623, Note_on_c, 1, 62, 0
4, 16624, Note_on_c, 1, 65, 54
4, 16639, Note_on_c, 1, 65, 0
4, 16640, Note_on_c, 1, 69, 54
4, 16655, Note_on_c, 1, 69, 0
4, 16656, Note_on_c, 1, 62, 54
4, 16671, Note_on_c, 1, 62, 0
4, 16672, Note_on_c, 1, 65, 54
4, 16687, Note_on_c, 1, 65, 0
4, 16688, Note_on_c, 1, 69, 54
4, 16703, Note_on_c, 1, 69, 0
4, 16704, Note_on_c, 1, 55, 72
4, 16793, Note_on_c, 1, 55, 0
4, 16800, Note_on_c, 1, 65, 72
4, 16896, Note_on_c, 1, 65, 0
4, 16896, Note_on_c, 1, 67, 72
4, 16985, Note_on_c, 1, 67, 0
4, 16992, Note_on_c, 1, 62, 54
4, 17007, Note_on_c, 1, 62, 0
4, 17008, Note_on_c, 1, 69, 54
4, 17023, Note_on_c, 1, 69, 0
4, 17024, Note_on_c, 1, 72, 54
4, 17039, Note_on_c, 1, 72, 0
4, 17040, Note_on_c, 1, 62, 54
4, 17055, Note_on_c, 1, 62, 0
4, 17056, Note_on_c, 1, 69, 54
4, 17071, Note_on_c, 1, 69, 0
4, 17072, Note_on_c, 1, 72, 54
4, 17087, Note_on_c, 1, 72, 0
4, 17088, Note_on_c, 1, 62, 54
4, 17103, Note_on_c, 1, 62, 0
4, 17104, Note_on_c, 1, 69, 54
4, 17119, Note_on_c, 1, 69, 0
4, 17120, Note_on_c, 1, 72, 54
4, 17135, Note_on_c, 1, 72, 0
4, 17136, Note_on_c, 1, 62, 54
4, 17151, Note_on_c, 1, 62, 0
4, 17152, Note_on_c, 1, 69, 54
4, 17167, Note_on_c, 1, 69, 0
4, 17168, Note_on_c, 1, 72, 54
4, 17183, Note_on_c, 1, 72, 0
4, 17184, Note_on_c, 1, 62, 54
4, 17199, Note_on_c, 1, 62, 0
4, 17200, Note_on_c, 1, 69, 54
4, 17215, Note_on_c, 1, 69, 0
4, 17216, Note_on_c, 1, 72, 54
4, 17231, Note_on_c, 1, 72, 0
4, 17232, Note_on_c, 1, 62, 54
4, 17247, Note_on_c, 1, 62, 0
4, 17248, Note_on_c, 1, 69, 54
4, 17263, Note_on_c, 1, 69, 0
4, 17264, Note_on_c, 1, 72, 54
4, 17279, Note_on_c, 1, 72, 0
4, 17280, Note_on_c, 1, 62, 54
4, 17295, Note_on_c, 1, 62, 0
4, 17296, Note_on_c, 1, 67, 54
4, 17311, Note_on_c, 1, 67, 0
4, 17312, Note_on_c, 1, 70, 54
4, 17327, Note_on_c, 1, 70, 0
4, 17328, Note_on_c, 1, 62, 54
4, 17343, Note_on_c, 1, 62, 0
4, 17344, Note_on_c, 1, 67, 54
4, 17359, Note_on_c, 1, 67, 0
4, 17360, Note_on_c, 1, 70, 54
4, 17375, Note_on_c, 1, 70, 0
4, 17376, Note_on_c, 1, 62, 54
4, 17391, Note_on_c, 1, 62, 0
4, 17392, Note_on_c, 1, 67, 54
4, 17407, Note_on_c, 1, 67, 0
4, 17408, Note_on_c, 1, 70, 54
4, 17423, Note_on_c, 1, 70, 0
4, 17424, Note_on_c, 1, 62, 54
4, 17439, Note_on_c, 1, 62, 0
4, 17440, Note_on_c, 1, 67, 54
4, 17455, Note_on_c, 1, 67, 0
4, 17456, Note_on_c, 1, 70, 54
4, 17471, Note_on_c, 1, 70, 0
4, 17472, Note_on_c, 1, 62, 54
4, 17487, Note_on_c, 1, 62, 0
4, 17488, Note_on_c, 1, 67, 54
4, 17503, Note_on_c, 1, 67, 0
4, 17504, Note_on_c, 1, 70, 54
4, 17519, Note_on_c, 1, 70, 0
4, 17520, Note_on_c, 1, 62, 54
4, 17535, Note_on_c, 1, 62, 0
4, 17536, Note_on_c, 1, 67, 54
4, 17551, Note_on_c, 1, 67, 0
4, 17552, Note_on_c, 1, 70, 54
4, 17567, Note_on_c, 1, 70, 0
4, 17568, Note_on_c, 1, 62, 54
4, 17583, Note_on_c, 1, 62, 0
4, 17584, Note_on_c, 1, 69, 54
4, 17599, Note_on_c, 1, 69, 0
4, 17600, Note_on_c, 1, 72, 54
4, 17615, Note_on_c, 1, 72, 0
4, 17616, Note_on_c, 1, 62, 54
4, 17631, Note_on_c, 1, 62, 0
4, 17632, Note_on_c, 1, 69, 54
4, 17647, Note_on_c, 1, 69, 0
4, 17648, Note_on_c, 1, 72, 54
4, 17663, Note_on_c, 1, 72, 0
4, 17664, Note_on_c, 1, 62, 54
4, 17679, Note_on_c, 1, 62, 0
4, 17680, Note_on_c, 1, 69, 54
4, 17695, Note_on_c, 1, 69, 0
4, 17696, Note_on_c, 1, 72, 54
4, 17711, Note_on_c, 1, 72, 0
4, 17712, Note_on_c, 1, 62, 54
4, 17727, Note_on_c, 1, 62, 0
4, 17728, Note_on_c, 1, 69, 54
4, 17743, Note_on_c, 1, 69, 0
4, 17744, Note_on_c, 1, 72, 54
4, 17759, Note_on_c, 1, 72, 0
4, 17760, Note_on_c, 1, 62, 54
4, 17775, Note_on_c, 1, 62, 0
4, 17776, Note_on_c, 1, 69, 54
4, 17791, Note_on_c, 1, 69, 0
4, 17792, Note_on_c, 1, 72, 54
4, 17807, Note_on_c, 1, 72, 0
4, 17808, Note_on_c, 1, 62, 54
4, 17823, Note_on_c, 1, 62, 0
4, 17824, Note_on_c, 1, 69, 54
4, 17839, Note_on_c, 1, 69, 0
4, 17840, Note_on_c, 1, 72, 54
4, 17855, Note_on_c, 1, 72, 0
4, 17856, Note_on_c, 1, 67, 72
4, 17945, Note_on_c, 1, 67, 0
4, 18192, Control_c, 1, 64, 127
4, 18192, Note_on_c, 1, 55, 72
4, 18207, Note_on_c, 1, 55, 0
4, 18208, Note_on_c, 1, 58, 72
4, 18223, Note_on_c, 1, 58, 0
4, 18224, Note_on_c, 1, 61, 72
4, 18239, Note_on_c, 1, 61, 0
4, 18240, Note_on_c, 1, 64, 72
4, 18285, Note_on_c, 1, 64, 0
4, 18384, Control_c, 1, 64, 0
4, 18384, Note_on_c, 1, 53, 88
4, 18432, Note_on_c, 1, 53, 0
4, 18432, Note_on_c, 1, 55, 72
4, 18521, Note_on_c, 1, 55, 0
4, 18528, Note_on_c, 1, 53, 72
4, 18624, Note_on_c, 1, 53, 0
4, 18624, Note_on_c, 1, 55, 72
4, 18713, Note_on_c, 1, 55, 0
4, 18720, Note_on_c, 1, 46, 72
4, 18735, Note_on_c, 1, 46, 0
4, 18736, Note_on_c, 1, 50, 72
4, 18751, Note_on_c, 1, 50, 0
4, 18752, Note_on_c, 1, 56, 72
4, 18767, Note_on_c, 1, 56, 0
4, 18768, Note_on_c, 1, 46, 72
4, 18783, Note_on_c, 1, 46, 0
4, 18784, Note_on_c, 1, 50, 72
4, 18799, Note_on_c, 1, 50, 0
4, 18800, Note_on_c, 1, 56, 72
4, 18815, Note_on_c, 1, 56, 0
4, 18816, Note_on_c, 1, 46, 72
4, 18861, Note_on_c, 1, 46, 0
4, 19008, Note_on_c, 1, 45, 72
4, 19023, Note_on_c, 1, 45, 0
4, 19024, Note_on_c, 1, 50, 72
4, 19039, Note_on_c, 1, 50, 0
4, 19040, Note_on_c, 1, 53, 72
4, 19055, Note_on_c, 1, 53, 0
4, 19056, Note_on_c, 1, 45, 72
4, 19071, Note_on_c, 1, 45, 0
4, 19072, Note_on_c, 1, 50, 72
4, 19087, Note_on_c, 1, 50, 0
4, 19088, Note_on_c, 1, 53, 72
4, 19103, Note_on_c, 1, 53, 0
4, 19104, Note_on_c, 1, 45, 72
4, 19149, Note_on_c, 1, 45, 0
4, 19296, Note_on_c, 1, 44, 72
4, 19311, Note_on_c, 1, 44, 0
4, 19312, Note_on_c, 1, 50, 72
4, 19327, Note_on_c, 1, 50, 0
4, 19328, Note_on_c, 1, 53, 72
4, 19343, Note_on_c, 1, 53, 0
4, 19344, Note_on_c, 1, 44, 72
4, 19359, Note_on_c, 1, 44, 0
4, 19360, Note_on_c, 1, 50, 72
4, 19375, Note_on_c, 1, 50, 0
4, 19376, Note_on_c, 1, 53, 72
4, 19391, Note_on_c, 1, 53, 0
4, 19392, Note_on_c, 1, 44, 72
4, 19437, Note_on_c, 1, 44, 0
4, 19680, Control_c, 1, 64, 127
4, 19680, Note_on_c, 1, 57, 72
4, 19695, Note_on_c, 1, 57, 0
4, 19696, Note_on_c, 1, 52, 72
4, 19711, Note_on_c, 1, 52, 0
4, 19712, Note_on_c, 1, 49, 72
4, 19727, Note_on_c, 1, 49, 0
4, 19728, Note_on_c, 1, 45, 72
4, 19743, Note_on_c, 1, 45, 0
4, 19744, Note_on_c, 1, 40, 72
4, 19759, Note_on_c, 1, 40, 0
4, 19760, Note_on_c, 1, 37, 72
4, 19775, Note_on_c, 1, 37, 0
4, 19776, Note_on_c, 1, 33, 72
4, 19791, Note_on_c, 1, 33, 0
4, 19792, Note_on_c, 1, 37, 72
4, 19807, Note_on_c, 1, 37, 0
4, 19808, Note_on_c, 1, 40, 72
4, 19823, Note_on_c, 1, 40, 0
4, 19824, Note_on_c, 1, 45, 72
4, 19839, Note_on_c, 1, 45, 0
4, 19840, Note_on_c, 1, 49, 72
4, 19855, Note_on_c, 1, 49, 0
4, 19856, Note_on_c, 1, 52, 72
4, 19871, Note_on_c, 1, 52, 0
4, 19872, Note_on_c, 1, 57, 72
4, 19917, Note_on_c, 1, 57, 0
4, 19968, Note_on_c, 1, 45, 72
4, 20013, Note_on_c, 1, 45, 0
4, 20064, Control_c, 1, 64, 0
4, 20160, Note_on_c, 1, 62, 72
4, 20249, Note_on_c, 1, 62, 0
4, 20256, Note_on_c, 1, 66, 72
4, 20345, Note_on_c, 1, 66, 0
4, 20352, Note_on_c, 1, 62, 72
4, 20441, Note_on_c, 1, 62, 0
4, 20448, Note_on_c, 1, 69, 72
4, 20537, Note_on_c, 1, 69, 0
4, 20544, Note_on_c, 1, 57, 72
4, 20633, Note_on_c, 1, 57, 0
4, 20640, Note_on_c, 1, 61, 72
4, 20729, Note_on_c, 1, 61, 0
4, 20736, Note_on_c, 1, 62, 72
4, 20825, Note_on_c, 1, 62, 0
4, 20832, Note_on_c, 1, 66, 72
4, 20921, Note_on_c, 1, 66, 0
4, 20928, Note_on_c, 1, 67, 72
4, 21017, Note_on_c, 1, 67, 0
4, 21024, Note_on_c, 1, 69, 72
4, 21113, Note_on_c, 1, 69, 0
4, 21120, Note_on_c, 1, 57, 72
4, 21209, Note_on_c, 1, 57, 0
4, 21312, Note_on_c, 1, 62, 72
4, 21401, Note_on_c, 1, 62, 0
4, 21408, Note_on_c, 1, 66, 72
4, 21497, Note_on_c, 1, 66, 0
4, 21504, Note_on_c, 1, 62, 72
4, 21593, Note_on_c, 1, 62, 0
4, 21600, Note_on_c, 1, 69, 72
4, 21689, Note_on_c, 1, 69, 0
4, 21696, Note_on_c, 1, 61, 72
4, 21785, Note_on_c, 1, 61, 0
4, 21792, Note_on_c, 1, 62, 72
4, 21881, Note_on_c, 1, 62, 0
4, 21888, Note_on_c, 1, 67, 72
4, 21888, Note_on_c, 1, 55, 72
4, 22065, Note_on_c, 1, 67, 0
4, 22065, Note_on_c, 1, 55, 0
4, 22080, Note_on_c, 1, 64, 72
4, 22080, Note_on_c, 1, 57, 72
4, 22169, Note_on_c, 1, 64, 0
4, 22169, Note_on_c, 1, 57, 0
4, 22176, Note_on_c, 1, 62, 72
4, 22265, Note_on_c, 1, 62, 0
4, 22272, Note_on_c, 1, 50, 72
4, 22361, Note_on_c, 1, 50, 0
4, 22368, Control_c, 1, 64, 0
4, 22464, Note_on_c, 1, 62, 72
4, 22553, Note_on_c, 1, 62, 0
4, 22560, Note_on_c, 1, 66, 72
4, 22649, Note_on_c, 1, 66, 0
4, 22656, Note_on_c, 1, 62, 72
4, 22745, Note_on_c, 1, 62, 0
4, 22752, Note_on_c, 1, 69, 72
4, 22841, Note_on_c, 1, 69, 0
4, 22848, Note_on_c, 1, 57, 72
4, 22937, Note_on_c, 1, 57, 0
4, 22944, Note_on_c, 1, 61, 72
4, 23033, Note_on_c, 1, 61, 0
4, 23040, Note_on_c, 1, 62, 72
4, 23129, Note_on_c, 1, 62, 0
4, 23136, Note_on_c, 1, 66, 72
4, 23225, Note_on_c, 1, 66, 0
4, 23232, Note_on_c, 1, 67, 72
4, 23321, Note_on_c, 1, 67, 0
4, 23328, Note_on_c, 1, 69, 72
4, 23417, Note_on_c, 1, 69, 0
4, 23424, Note_on_c, 1, 57, 72
4, 23513, Note_on_c, 1, 57, 0
4, 23616, Note_on_c, 1, 62, 72
4, 23705, Note_on_c, 1, 62, 0
4, 23712, Note_on_c, 1, 66, 72
4, 23801, Note_on_c, 1, 66, 0
4, 23808, Note_on_c, 1, 62, 72
4, 23897, Note_on_c, 1, 62, 0
4, 23904, Note_on_c, 1, 69, 72
4, 23993, Note_on_c, 1, 69, 0
4, 24000, Note_on_c, 1, 61, 72
4, 24089, Note_on_c, 1, 61, 0
4, 24096, Note_on_c, 1, 62, 72
4, 24185, Note_on_c, 1, 62, 0
4, 24192, Note_on_c, 1, 67, 72
4, 24192, Note_on_c, 1, 55, 72
4, 24369, Note_on_c, 1, 67, 0
4, 24369, Note_on_c, 1, 55, 0
4, 24384, Note_on_c, 1, 64, 72
4, 24384, Note_on_c, 1, 57, 72
4, 24473, Note_on_c, 1, 64, 0
4, 24473, Note_on_c, 1, 57, 0
4, 24480, Note_on_c, 1, 62, 72
4, 24569, Note_on_c, 1, 62, 0
4, 24576, Note_on_c, 1, 50, 72
4, 24665, Note_on_c, 1, 50, 0
4, 24864, Note_on_c, 1, 74, 72
4, 24953, Note_on_c, 1, 74, 0
4, 24960, Note_on_c, 1, 73, 72
4, 25049, Note_on_c, 1, 73, 0
4, 25056, Note_on_c, 1, 71, 72
4, 25145, Note_on_c, 1, 71, 0
4, 25152, Note_on_c, 1, 69, 72
4, 25241, Note_on_c, 1, 69, 0
4, 25248, Note_on_c, 1, 67, 72
4, 25337, Note_on_c, 1, 67, 0
4, 25344, Note_on_c, 1, 66, 72
4, 25433, Note_on_c, 1, 66, 0
4, 25440, Note_on_c, 1, 64, 72
4, 25529, Note_on_c, 1, 64, 0
4, 25536, Note_on_c, 1, 62, 72
4, 25625, Note_on_c, 1, 62, 0
4, 25632, Note_on_c, 1, 69, 72
4, 25721, Note_on_c, 1, 69, 0
4, 25728, Note_on_c, 1, 57, 72
4, 25817, Note_on_c, 1, 57, 0
4, 26016, Note_on_c, 1, 74, 72
4, 26112, Note_on_c, 1, 74, 0
4, 26112, Note_on_c, 1, 73, 72
4, 26201, Note_on_c, 1, 73, 0
4, 26208, Note_on_c, 1, 71, 72
4, 26297, Note_on_c, 1, 71, 0
4, 26304, Note_on_c, 1, 69, 72
4, 26393, Note_on_c, 1, 69, 0
4, 26400, Note_on_c, 1, 67, 72
4, 26489, Note_on_c, 1, 67, 0
4, 26496, Note_on_c, 1, 66, 72
4, 26585, Note_on_c, 1, 66, 0
4, 26592, Note_on_c, 1, 69, 72
4, 26681, Note_on_c, 1, 69, 0
4, 26688, Note_on_c, 1, 57, 72
4, 26777, Note_on_c, 1, 57, 0
4, 26784, Note_on_c, 1, 62, 72
4, 26873, Note_on_c, 1, 62, 0
4, 26880, Note_on_c, 1, 50, 72
4, 26969, Note_on_c, 1, 50, 0
4, 27168, Note_on_c, 1, 74, 72
4, 27257, Note_on_c, 1, 74, 0
4, 27264, Note_on_c, 1, 73, 72
4, 27353, Note_on_c, 1, 73, 0
4, 27360, Note_on_c, 1, 71, 72
4, 27449, Note_on_c, 1, 71, 0
4, 27456, Note_on_c, 1, 69, 72
4, 27545, Note_on_c, 1, 69, 0
4, 27552, Note_on_c, 1, 67, 72
4, 27641, Note_on_c, 1, 67, 0
4, 27648, Note_on_c, 1, 66, 72
4, 27737, Note_on_c, 1, 66, 0
4, 27744, Note_on_c, 1, 64, 72
4, 27833, Note_on_c, 1, 64, 0
4, 27840, Note_on_c, 1, 62, 72
4, 27929, Note_on_c, 1, 62, 0
4, 27936, Note_on_c, 1, 69, 72
4, 28025, Note_on_c, 1, 69, 0
4, 28032, Note_on_c, 1, 57, 72
4, 28121, Note_on_c, 1, 57, 0
4, 28320, Note_on_c, 1, 74, 72
4, 28416, Note_on_c, 1, 74, 0
4, 28416, Note_on_c, 1, 73, 72
4, 28505, Note_on_c, 1, 73, 0
4, 28512, Note_on_c, 1, 71, 72
4, 28601, Note_on_c, 1, 71, 0
4, 28608, Note_on_c, 1, 69, 72
4, 28697, Note_on_c, 1, 69, 0
4, 28704, Note_on_c, 1, 67, 72
4, 28793, Note_on_c, 1, 67, 0
4, 28800, Note_on_c, 1, 66, 72
4, 28889, Note_on_c, 1, 66, 0
4, 28896, Note_on_c, 1, 69, 72
4, 28985, Note_on_c, 1, 69, 0
4, 28992, Note_on_c, 1, 57, 72
4, 29081, Note_on_c, 1, 57, 0
4, 29088, Note_on_c, 1, 62, 72
4, 29177, Note_on_c, 1, 62, 0
4, 29184, Note_on_c, 1, 50, 72
4, 29273, Note_on_c, 1, 50, 0
4, 29472, Note_on_c, 1, 53, 54
4, 29561, Note_on_c, 1, 53, 0
4, 29568, Note_on_c, 1, 50, 54
4, 29657, Note_on_c, 1, 50, 0
4, 29664, Note_on_c, 1, 52, 54
4, 29841, Note_on_c, 1, 52, 0
4, 29856, Note_on_c, 1, 49, 54
4, 29945, Note_on_c, 1, 49, 0
4, 29952, Note_on_c, 1, 50, 54
4, 30041, Note_on_c, 1, 50, 0
4, 30048, Note_on_c, 1, 41, 54
4, 30137, Note_on_c, 1, 41, 0
4, 30144, Note_on_c, 1, 43, 54
4, 30233, Note_on_c, 1, 43, 0
4, 30240, Note_on_c, 1, 45, 54
4, 30329, Note_on_c, 1, 45, 0
4, 30336, Note_on_c, 1, 33, 54
4, 30425, Note_on_c, 1, 33, 0
4, 30528, Note_on_c, 1, 60, 54
4, 30528, Note_on_c, 1, 57, 54
4, 30528, Note_on_c, 1, 53, 54
4, 30705, Note_on_c, 1, 60, 0
4, 30705, Note_on_c, 1, 57, 0
4, 30705, Note_on_c, 1, 53, 0
4, 30720, Note_on_c, 1, 65, 54
4, 30720, Note_on_c, 1, 63, 54
4, 30809, Note_on_c, 1, 65, 0
4, 30809, Note_on_c, 1, 63, 0
4, 30816, Note_on_c, 1, 65, 54
4, 30993, Note_on_c, 1, 65, 0
4, 31008, Note_on_c, 1, 58, 54
4, 31097, Note_on_c, 1, 58, 0
4, 31104, Note_on_c, 1, 60, 54
4, 31104, Note_on_c, 1, 57, 54
4, 31193, Note_on_c, 1, 60, 0
4, 31193, Note_on_c, 1, 57, 0
4, 31200, Note_on_c, 1, 60, 54
4, 31289, Note_on_c, 1, 60, 0
4, 31296, Note_on_c, 1, 48, 54
4, 31385, Note_on_c, 1, 48, 0
4, 31392, Note_on_c, 1, 53, 54
4, 31481, Note_on_c, 1, 53, 0
4, 31488, Note_on_c, 1, 41, 54
4, 31577, Note_on_c, 1, 41, 0
4, 31776, Note_on_c, 1, 53, 54
4, 31865, Note_on_c, 1, 53, 0
4, 31872, Note_on_c, 1, 50, 54
4, 31961, Note_on_c, 1, 50, 0
4, 31968, Note_on_c, 1, 52, 54
4, 32145, Note_on_c, 1, 52, 0
4, 32160, Note_on_c, 1, 49, 54
4, 32249, Note_on_c, 1, 49, 0
4, 32256, Note_on_c, 1, 50, 54
4, 32345, Note_on_c, 1, 50, 0
4, 32352, Note_on_c, 1, 41, 54
4, 32441, Note_on_c, 1, 41, 0
4, 32448, Note_on_c, 1, 43, 54
4, 32537, Note_on_c, 1, 43, 0
4, 32544, Note_on_c, 1, 45, 54
4, 32633, Note_on_c, 1, 45, 0
4, 32640, Note_on_c, 1, 33, 54
4, 32729, Note_on_c, 1, 33, 0
4, 32832, Note_on_c, 1, 60, 54
4, 32832, Note_on_c, 1, 57, 54
4, 32832, Note_on_c, 1, 53, 54
4, 33009, Note_on_c, 1, 60, 0
4, 33009, Note_on_c, 1, 57, 0
4, 33009, Note_on_c, 1, 53, 0
4, 33024, Note_on_c, 1, 65, 54
4, 33024, Note_on_c, 1, 63, 54
4, 33113, Note_on_c, 1, 65, 0
4, 33113, Note_on_c, 1, 63, 0
4, 33120, Note_on_c, 1, 65, 54
4, 33297, Note_on_c, 1, 65, 0
4, 33312, Note_on_c, 1, 58, 54
4, 33401, Note_on_c, 1, 58, 0
4, 33408, Note_on_c, 1, 60, 54
4, 33408, Note_on_c, 1, 57, 54
4, 33497, Note_on_c, 1, 60, 0
4, 33497, Note_on_c, 1, 57, 0
4, 33504, Note_on_c, 1, 60, 54
4, 33593, Note_on_c, 1, 60, 0
4, 33600, Note_on_c, 1, 48, 54
4, 33689, Note_on_c, 1, 48, 0
4, 33696, Note_on_c, 1, 53, 54
4, 33785, Note_on_c, 1, 53, 0
4, 33792, Note_on_c, 1, 41, 54
4, 33881, Note_on_c, 1, 41, 0
4, 34080, Note_on_c, 1, 72, 54
4, 34080, Note_on_c, 1, 69, 54
4, 34169, Note_on_c, 1, 72, 0
4, 34169, Note_on_c, 1, 69, 0
4, 34176, Note_on_c, 1, 70, 54
4, 34176, Note_on_c, 1, 67, 54
4, 34265, Note_on_c, 1, 70, 0
4, 34265, Note_on_c, 1, 67, 0
4, 34272, Note_on_c, 1, 69, 54
4, 34272, Note_on_c, 1, 66, 54
4, 34449, Note_on_c, 1, 69, 0
4, 34449, Note_on_c, 1, 66, 0
4, 34464, Note_on_c, 1, 74, 54
4, 34464, Note_on_c, 1, 67, 54
4, 34553, Note_on_c, 1, 74, 0
4, 34553, Note_on_c, 1, 67, 0
4, 34560, Note_on_c, 1, 72, 54
4, 34737, Note_on_c, 1, 72, 0
4, 34752, Note_on_c, 1, 67, 54
4, 34841, Note_on_c, 1, 67, 0
4, 34848, Note_on_c, 1, 64, 54
4, 34848, Note_on_c, 1, 57, 54
4, 35025, Note_on_c, 1, 64, 0
4, 35025, Note_on_c, 1, 57, 0
4, 35232, Note_on_c, 1, 61, 54
4, 35232, Note_on_c, 1, 58, 54
4, 35321, Note_on_c, 1, 61, 0
4, 35321, Note_on_c, 1, 58, 0
4, 35328, Note_on_c, 1, 58, 54
4, 35328, Note_on_c, 1, 55, 54
4, 35417, Note_on_c, 1, 58, 0
4, 35417, Note_on_c, 1, 55, 0
4, 35424, Note_on_c, 1, 62, 54
4, 35424, Note_on_c, 1, 57, 54
4, 35424, Note_on_c, 1, 53, 54
4, 35513, Note_on_c, 1, 62, 0
4, 35513, Note_on_c, 1, 57, 0
4, 35513, Note_on_c, 1, 53, 0
4, 35520, Note_on_c, 1, 61, 54
4, 35520, Note_on_c, 1, 55, 54
4, 35520, Note_on_c, 1, 52, 54
4, 35609, Note_on_c, 1, 61, 0
4, 35609, Note_on_c, 1, 55, 0
4, 35609, Note_on_c, 1, 52, 0
4, 35616, Note_on_c, 1, 62, 54
4, 35616, Note_on_c, 1, 53, 54
4, 35616, Note_on_c, 1, 50, 54
4, 35705, Note_on_c, 1, 62, 0
4, 35705, Note_on_c, 1, 53, 0
4, 35705, Note_on_c, 1, 50, 0
4, 35712, Note_on_c, 1, 55, 54
4, 35801, Note_on_c, 1, 55, 0
4, 35808, Note_on_c, 1, 57, 54
4, 35897, Note_on_c, 1, 57, 0
4, 35904, Note_on_c, 1, 45, 54
4, 35993, Note_on_c, 1, 45, 0
4, 36000, Note_on_c, 1, 50, 54
4, 36089, Note_on_c, 1, 50, 0
4, 36096, Note_on_c, 1, 38, 54
4, 36185, Note_on_c, 1, 38, 0
4, 36384, Note_on_c, 1, 72, 54
4, 36384, Note_on_c, 1, 69, 54
4, 36473, Note_on_c, 1, 72, 0
4, 36473, Note_on_c, 1, 69, 0
4, 36480, Note_on_c, 1, 70, 54
4, 36480, Note_on_c, 1, 67, 54
4, 36569, Note_on_c, 1, 70, 0
4, 36569, Note_on_c, 1, 67, 0
4, 36576, Note_on_c, 1, 69, 54
4, 36576, Note_on_c, 1, 66, 54
4, 36753, Note_on_c, 1, 69, 0
4, 36753, Note_on_c, 1, 66, 0
4, 36768, Note_on_c, 1, 74, 54
4, 36768, Note_on_c, 1, 67, 54
4, 36857, Note_on_c, 1, 74, 0
4, 36857, Note_on_c, 1, 67, 0
4, 36864, Note_on_c, 1, 72, 54
4, 37041, Note_on_c, 1, 72, 0
4, 37056, Note_on_c, 1, 67, 54
4, 37145, Note_on_c, 1, 67, 0
4, 37152, Note_on_c, 1, 64, 54
4, 37152, Note_on_c, 1, 57, 54
4, 37329, Note_on_c, 1, 64, 0
4, 37329, Note_on_c, 1, 57, 0
4, 37536, Note_on_c, 1, 61, 54
4, 37536, Note_on_c, 1, 58, 54
4, 37625, Note_on_c, 1, 61, 0
4, 37625, Note_on_c, 1, 58, 0
4, 37632, Note_on_c, 1, 58, 54
4, 37632, Note_on_c, 1, 55, 54
4, 37721, Note_on_c, 1, 58, 0
4, 37721, Note_on_c, 1, 55, 0
4, 37728, Note_on_c, 1, 62, 54
4, 37728, Note_on_c, 1, 57, 54
4, 37728, Note_on_c, 1, 53, 54
4, 37817, Note_on_c, 1, 62, 0
4, 37817, Note_on_c, 1, 57, 0
4, 37817, Note_on_c, 1, 53, 0
4, 37824, Note_on_c, 1, 61, 54
4, 37824, Note_on_c, 1, 55, 54
4, 37824, Note_on_c, 1, 52, 54
4, 37913, Note_on_c, 1, 61, 0
4, 37913, Note_on_c, 1, 55, 0
4, 37913, Note_on_c, 1, 52, 0
4, 37920, Note_on_c, 1, 62, 54
4, 37920, Note_on_c, 1, 53, 54
4, 37920, Note_on_c, 1, 50, 54
4, 38009, Note_on_c, 1, 62, 0
4, 38009, Note_on_c, 1, 53, 0
4, 38009, Note_on_c, 1, 50, 0
4, 38016, Note_on_c, 1, 55, 54
4, 38105, Note_on_c, 1, 55, 0
4, 38112, Note_on_c, 1, 57, 54
4, 38201, Note_on_c, 1, 57, 0
4, 38208, Note_on_c, 1, 45, 54
4, 38297, Note_on_c, 1, 45, 0
4, 38304, Note_on_c, 1, 50, 54
4, 38393, Note_on_c, 1, 50, 0
4, 38400, Note_on_c, 1, 38, 54
4, 38489, Note_on_c, 1, 38, 0
4, 38592, Note_on_c, 1, 62, 54
4, 38681, Note_on_c, 1, 62, 0
4, 38688, Note_on_c, 1, 66, 54
4, 38777, Note_on_c, 1, 66, 0
4, 38784, Note_on_c, 1, 62, 54
4, 38873, Note_on_c, 1, 62, 0
4, 38880, Note_on_c, 1, 69, 54
4, 38969, Note_on_c, 1, 69, 0
4, 38976, Note_on_c, 1, 57, 54
4, 39065, Note_on_c, 1, 57, 0
4, 39072, Note_on_c, 1, 61, 54
4, 39161, Note_on_c, 1, 61, 0
4, 39168, Note_on_c, 1, 62, 54
4, 39257, Note_on_c, 1, 62, 0
4, 39264, Note_on_c, 1, 66, 54
4, 39353, Note_on_c, 1, 66, 0
4, 39360, Note_on_c, 1, 67, 54
4, 39449, Note_on_c, 1, 67, 0
4, 39456, Note_on_c, 1, 69, 54
4, 39545, Note_on_c, 1, 69, 0
4, 39552, Note_on_c, 1, 57, 54
4, 39641, Note_on_c, 1, 57, 0
4, 39744, Note_on_c, 1, 62, 54
4, 39833, Note_on_c, 1, 62, 0
4, 39840, Note_on_c, 1, 66, 54
4, 39929, Note_on_c, 1, 66, 0
4, 39936, Note_on_c, 1, 62, 54
4, 40025, Note_on_c, 1, 62, 0
4, 40032, Note_on_c, 1, 69, 54
4, 40121, Note_on_c, 1, 69, 0
4, 40128, Note_on_c, 1, 61, 54
4, 40217, Note_on_c, 1, 61, 0
4, 40224, Note_on_c, 1, 62, 54
4, 40313, Note_on_c, 1, 62, 0
4, 40320, Note_on_c, 1, 55, 54
4, 40409, Note_on_c, 1, 55, 0
4, 40416, Note_on_c, 1, 57, 54
4, 40505, Note_on_c, 1, 57, 0
4, 40512, Note_on_c, 1, 45, 54
4, 40601, Note_on_c, 1, 45, 0
4, 40608, Note_on_c, 1, 50, 54
4, 40697, Note_on_c, 1, 50, 0
4, 40704, Note_on_c, 1, 38, 54
4, 40793, Note_on_c, 1, 38, 0
4, 40896, Note_on_c, 1, 62, 54
4, 40985, Note_on_c, 1, 62, 0
4, 40992, Note_on_c, 1, 66, 54
4, 41081, Note_on_c, 1, 66, 0
4, 41088, Note_on_c, 1, 62, 54
4, 41177, Note_on_c, 1, 62, 0
4, 41184, Note_on_c, 1, 69, 54
4, 41273, Note_on_c, 1, 69, 0
4, 41280, Note_on_c, 1, 57, 54
4, 41369, Note_on_c, 1, 57, 0
4, 41376, Note_on_c, 1, 61, 54
4, 41465, Note_on_c, 1, 61, 0
4, 41472, Note_on_c, 1, 62, 54
4, 41561, Note_on_c, 1, 62, 0
4, 41568, Note_on_c, 1, 66, 54
4, 41657, Note_on_c, 1, 66, 0
4, 41664, Note_on_c, 1, 67, 54
4, 41753, Note_on_c, 1, 67, 0
4, 41760, Note_on_c, 1, 69, 54
4, 41849, Note_on_c, 1, 69, 0
4, 41856, Note_on_c, 1, 57, 54
4, 41945, Note_on_c, 1, 57, 0
4, 42048, Note_on_c, 1, 62, 54
4, 42137, Note_on_c, 1, 62, 0
4, 42144, Note_on_c, 1, 66, 54
4, 42233, Note_on_c, 1, 66, 0
4, 42240, Note_on_c, 1, 62, 54
4, 42329, Note_on_c, 1, 62, 0
4, 42336, Note_on_c, 1, 69, 54
4, 42425, Note_on_c, 1, 69, 0
4, 42432, Note_on_c, 1, 61, 54
4, 42521, Note_on_c, 1, 61, 0
4, 42528, Note_on_c, 1, 62, 54
4, 42617, Note_on_c, 1, 62, 0
4, 42624, Note_on_c, 1, 55, 54
4, 42713, Note_on_c, 1, 55, 0
4, 42720, Note_on_c, 1, 57, 54
4, 42809, Note_on_c, 1, 57, 0
4, 42816, Note_on_c, 1, 45, 54
4, 42905, Note_on_c, 1, 45, 0
4, 42912, Note_on_c, 1, 50, 54
4, 43001, Note_on_c, 1, 50, 0
4, 43008, Note_on_c, 1, 38, 54
4, 43097, Note_on_c, 1, 38, 0
4, 43296, Note_on_c, 1, 62, 54
4, 43385, Note_on_c, 1, 62, 0
4, 43392, Note_on_c, 1, 61, 54
4, 43481, Note_on_c, 1, 61, 0
4, 43488, Note_on_c, 1, 59, 54
4, 43577, Note_on_c, 1, 59, 0
4, 43584, Note_on_c, 1, 57, 54
4, 43673, Note_on_c, 1, 57, 0
4, 43680, Note_on_c, 1, 55, 54
4, 43769, Note_on_c, 1, 55, 0
4, 43776, Note_on_c, 1, 54, 54
4, 43865, Note_on_c, 1, 54, 0
4, 43872, Note_on_c, 1, 52, 54
4, 43961, Note_on_c, 1, 52, 0
4, 43968, Note_on_c, 1, 50, 54
4, 44057, Note_on_c, 1, 50, 0
4, 44064, Note_on_c, 1, 57, 54
4, 44153, Note_on_c, 1, 57, 0
4, 44160, Note_on_c, 1, 45, 54
4, 44249, Note_on_c, 1, 45, 0
4, 44448, Note_on_c, 1, 74, 54
4, 44537, Note_on_c, 1, 74, 0
4, 44544, Note_on_c, 1, 73, 54
4, 44633, Note_on_c, 1, 73, 0
4, 44640, Note_on_c, 1, 71, 54
4, 44729, Note_on_c, 1, 71, 0
4, 44736, Note_on_c, 1, 69, 54
4, 44825, Note_on_c, 1, 69, 0
4, 44832, Note_on_c, 1, 67, 54
4, 44921, Note_on_c, 1, 67, 0
4, 44928, Note_on_c, 1, 66, 54
4, 44995, Note_on_c, 1, 66, 0
4, 45000, Note_on_c, 1, 67, 54
4, 45023, Note_on_c, 1, 67, 0
4, 45024, Note_on_c, 1, 69, 54
4, 45113, Note_on_c, 1, 69, 0
4, 45120, Note_on_c, 1, 57, 54
4, 45209, Note_on_c, 1, 57, 0
4, 45216, Note_on_c, 1, 62, 54
4, 45305, Note_on_c, 1, 62, 0
4, 45312, Note_on_c, 1, 50, 54
4, 45401, Note_on_c, 1, 50, 0
4, 45600, Note_on_c, 1, 62, 54
4, 45689, Note_on_c, 1, 62, 0
4, 45696, Note_on_c, 1, 61, 54
4, 45785, Note_on_c, 1, 61, 0
4, 45792, Note_on_c, 1, 59, 54
4, 45881, Note_on_c, 1, 59, 0
4, 45888, Note_on_c, 1, 57, 54
4, 45977, Note_on_c, 1, 57, 0
4, 45984, Note_on_c, 1, 55, 54
4, 46073, Note_on_c, 1, 55, 0
4, 46080, Note_on_c, 1, 54, 54
4, 46169, Note_on_c, 1, 54, 0
4, 46176, Note_on_c, 1, 52, 54
4, 46265, Note_on_c, 1, 52, 0
4, 46272, Note_on_c, 1, 50, 54
4, 46361, Note_on_c, 1, 50, 0
4, 46368, Note_on_c, 1, 57, 54
4, 46457, Note_on_c, 1, 57, 0
4, 46464, Note_on_c, 1, 45, 54
4, 46553, Note_on_c, 1, 45, 0
4, 46752, Note_on_c, 1, 74, 54
4, 46841, Note_on_c, 1, 74, 0
4, 46848, Note_on_c, 1, 73, 54
4, 46937, Note_on_c, 1, 73, 0
4, 46944, Note_on_c, 1, 71, 54
4, 47033, Note_on_c, 1, 71, 0
4, 47040, Note_on_c, 1, 69, 54
4, 47129, Note_on_c, 1, 69, 0
4, 47136, Note_on_c, 1, 67, 54
4, 47225, Note_on_c, 1, 67, 0
4, 47232, Note_on_c, 1, 66, 54
4, 47299, Note_on_c, 1, 66, 0
4, 47304, Note_on_c, 1, 67, 54
4, 47327, Note_on_c, 1, 67, 0
4, 47328, Note_on_c, 1, 69, 54
4, 47417, Note_on_c, 1, 69, 0
4, 47424, Note_on_c, 1, 57, 54
4, 47513, Note_on_c, 1, 57, 0
4, 47520, Note_on_c, 1, 62, 54
4, 47609, Note_on_c, 1, 62, 0
4, 47616, Note_on_c, 1, 50, 54
4, 47705, Note_on_c, 1, 50, 0
4, 47904, Note_on_c, 1, 53, 54
4, 47993, Note_on_c, 1, 53, 0
4, 48000, Note_on_c, 1, 50, 54
4, 48089, Note_on_c, 1, 50, 0
4, 48096, Note_on_c, 1, 52, 54
4, 48185, Note_on_c, 1, 52, 0
4, 48192, Note_on_c, 1, 47, 55
4, 48281, Note_on_c, 1, 47, 0
4, 48288, Note_on_c, 1, 49, 57
4, 48377, Note_on_c, 1, 49, 0
4, 48384, Note_on_c, 1, 50, 59
4, 48473, Note_on_c, 1, 50, 0
4, 48480, Note_on_c, 1, 41, 61
4, 48569, Note_on_c, 1, 41, 0
4, 48576, Note_on_c, 1, 43, 63
4, 48665, Note_on_c, 1, 43, 0
4, 48672, Note_on_c, 1, 45, 60
4, 48761, Note_on_c, 1, 45, 0
4, 48768, Note_on_c, 1, 33, 57
4, 48857, Note_on_c, 1, 33, 0
4, 48960, Note_on_c, 1, 60, 54
4, 48960, Note_on_c, 1, 57, 54
4, 48960, Note_on_c, 1, 53, 54
4, 49137, Note_on_c, 1, 60, 0
4, 49137, Note_on_c, 1, 57, 0
4, 49137, Note_on_c, 1, 53, 0
4, 49152, Note_on_c, 1, 65, 54
4, 49152, Note_on_c, 1, 63, 54
4, 49241, Note_on_c, 1, 65, 0
4, 49241, Note_on_c, 1, 63, 0
4, 49248, Note_on_c, 1, 62, 54
4, 49337, Note_on_c, 1, 62, 0
4, 49344, Note_on_c, 1, 58, 54
4, 49433, Note_on_c, 1, 58, 0
4, 49440, Note_on_c, 1, 55, 54
4, 49529, Note_on_c, 1, 55, 0
4, 49536, Note_on_c, 1, 60, 54
4, 49536, Note_on_c, 1, 57, 54
4, 49625, Note_on_c, 1, 60, 0
4, 49625, Note_on_c, 1, 57, 0
4, 49632, Note_on_c, 1, 60, 54
4, 49721, Note_on_c, 1, 60, 0
4, 49728, Note_on_c, 1, 48, 54
4, 49817, Note_on_c, 1, 48, 0
4, 49824, Note_on_c, 1, 53, 54
4, 49913, Note_on_c, 1, 53, 0
4, 49920, Note_on_c, 1, 41, 54
4, 50009, Note_on_c, 1, 41, 0
4, 50208, Note_on_c, 1, 53, 54
4, 50297, Note_on_c, 1, 53, 0
4, 50304, Note_on_c, 1, 50, 54
4, 50393, Note_on_c, 1, 50, 0
4, 50400, Note_on_c, 1, 52, 54
4, 50489, Note_on_c, 1, 52, 0
4, 50496, Note_on_c, 1, 47, 55
4, 50585, Note_on_c, 1, 47, 0
4, 50592, Note_on_c, 1, 49, 57
4, 50681, Note_on_c, 1, 49, 0
4, 50688, Note_on_c, 1, 50, 59
4, 50777, Note_on_c, 1, 50, 0
4, 50784, Note_on_c, 1, 41, 61
4, 50873, Note_on_c, 1, 41, 0
4, 50880, Note_on_c, 1, 43, 63
4, 50969, Note_on_c, 1, 43, 0
4, 50976, Note_on_c, 1, 45, 60
4, 51065, Note_on_c, 1, 45, 0
4, 51072, Note_on_c, 1, 33, 57
4, 51161, Note_on_c, 1, 33, 0
4, 51264, Note_on_c, 1, 60, 54
4, 51264, Note_on_c, 1, 57, 54
4, 51264, Note_on_c, 1, 53, 54
4, 51441, Note_on_c, 1, 60, 0
4, 51441, Note_on_c, 1, 57, 0
4, 51441, Note_on_c, 1, 53, 0
4, 51456, Note_on_c, 1, 65, 54
4, 51456, Note_on_c, 1, 63, 54
4, 51545, Note_on_c, 1, 65, 0
4, 51545, Note_on_c, 1, 63, 0
4, 51552, Note_on_c, 1, 62, 54
4, 51641, Note_on_c, 1, 62, 0
4, 51648, Note_on_c, 1, 58, 54
4, 51737, Note_on_c, 1, 58, 0
4, 51744, Note_on_c, 1, 55, 54
4, 51833, Note_on_c, 1, 55, 0
4, 51840, Note_on_c, 1, 60, 54
4, 51840, Note_on_c, 1, 57, 54
4, 51929, Note_on_c, 1, 60, 0
4, 51929, Note_on_c, 1, 57, 0
4, 51936, Note_on_c, 1, 60, 54
4, 52025, Note_on_c, 1, 60, 0
4, 52032, Note_on_c, 1, 48, 54
4, 52121, Note_on_c, 1, 48, 0
4, 52128, Note_on_c, 1, 53, 54
4, 52217, Note_on_c, 1, 53, 0
4, 52224, Note_on_c, 1, 41, 54
4, 52313, Note_on_c, 1, 41, 0
4, 52512, Note_on_c, 1, 72, 54
4, 52512, Note_on_c, 1, 69, 54
4, 52601, Note_on_c, 1, 72, 0
4, 52601, Note_on_c, 1, 69, 0
4, 52608, Note_on_c, 1, 70, 54
4, 52608, Note_on_c, 1, 67, 54
4, 52697, Note_on_c, 1, 70, 0
4, 52697, Note_on_c, 1, 67, 0
4, 52704, Note_on_c, 1, 69, 54
4, 52704, Note_on_c, 1, 66, 54
4, 52881, Note_on_c, 1, 69, 0
4, 52881, Note_on_c, 1, 66, 0
4, 52896, Note_on_c, 1, 74, 54
4, 52896, Note_on_c, 1, 67, 54
4, 52985, Note_on_c, 1, 74, 0
4, 52985, Note_on_c, 1, 67, 0
4, 52992, Note_on_c, 1, 64, 54
4, 53081, Note_on_c, 1, 64, 0
4, 53088, Note_on_c, 1, 65, 54
4, 53177, Note_on_c, 1, 65, 0
4, 53184, Note_on_c, 1, 67, 54
4, 53184, Note_on_c, 1, 55, 54
4, 53273, Note_on_c, 1, 67, 0
4, 53273, Note_on_c, 1, 55, 0
4, 53280, Note_on_c, 1, 64, 54
4, 53280, Note_on_c, 1, 57, 54
4, 53457, Note_on_c, 1, 64, 0
4, 53457, Note_on_c, 1, 57, 0
4, 53664, Note_on_c, 1, 61, 54
4, 53664, Note_on_c, 1, 58, 54
4, 53753, Note_on_c, 1, 61, 0
4, 53753, Note_on_c, 1, 58, 0
4, 53760, Note_on_c, 1, 58, 54
4, 53760, Note_on_c, 1, 55, 54
4, 53849, Note_on_c, 1, 58, 0
4, 53849, Note_on_c, 1, 55, 0
4, 53856, Note_on_c, 1, 62, 54
4, 53856, Note_on_c, 1, 57, 54
4, 53856, Note_on_c, 1, 53, 54
4, 53945, Note_on_c, 1, 62, 0
4, 53945, Note_on_c, 1, 57, 0
4, 53945, Note_on_c, 1, 53, 0
4, 53952, Note_on_c, 1, 61, 54
4, 53952, Note_on_c, 1, 55, 54
4, 53952, Note_on_c, 1, 52, 54
4, 54041, Note_on_c, 1, 61, 0
4, 54041, Note_on_c, 1, 55, 0
4, 54041, Note_on_c, 1, 52, 0
4, 54048, Note_on_c, 1, 62, 54
4, 54048, Note_on_c, 1, 53, 54
4, 54048, Note_on_c, 1, 50, 54
4, 54137, Note_on_c, 1, 62, 0
4, 54137, Note_on_c, 1, 53, 0
4, 54137, Note_on_c, 1, 50, 0
4, 54144, Note_on_c, 1, 55, 54
4, 54233, Note_on_c, 1, 55, 0
4, 54240, Note_on_c, 1, 57, 54
4, 54329, Note_on_c, 1, 57, 0
4, 54336, Note_on_c, 1, 45, 54
4, 54425, Note_on_c, 1, 45, 0
4, 54432, Note_on_c, 1, 50, 54
4, 54521, Note_on_c, 1, 50, 0
4, 54528, Note_on_c, 1, 38, 54
4, 54617, Note_on_c, 1, 38, 0
4, 54816, Note_on_c, 1, 72, 54
4, 54816, Note_on_c, 1, 69, 54
4, 54905, Note_on_c, 1, 72, 0
4, 54905, Note_on_c, 1, 69, 0
4, 54912, Note_on_c, 1, 70, 54
4, 54912, Note_on_c, 1, 67, 54
4, 55001, Note_on_c, 1, 70, 0
4, 55001, Note_on_c, 1, 67, 0
4, 55008, Note_on_c, 1, 69, 54
4, 55008, Note_on_c, 1, 66, 54
4, 55185, Note_on_c, 1, 69, 0
4, 55185, Note_on_c, 1, 66, 0
4, 55200, Note_on_c, 1, 74, 54
4, 55200, Note_on_c, 1, 67, 54
4, 55289, Note_on_c, 1, 74, 0
4, 55289, Note_on_c, 1, 67, 0
4, 55296, Note_on_c, 1, 64, 54
4, 55385, Note_on_c, 1, 64, 0
4, 55392, Note_on_c, 1, 65, 54
4, 55481, Note_on_c, 1, 65, 0
4, 55488, Note_on_c, 1, 67, 54
4, 55488, Note_on_c, 1, 55, 54
4, 55577, Note_on_c, 1, 67, 0
4, 55577, Note_on_c, 1, 55, 0
4, 55584, Note_on_c, 1, 64, 54
4, 55584, Note_on_c, 1, 57, 54
4, 55761, Note_on_c, 1, 64, 0
4, 55761, Note_on_c, 1, 57, 0
4, 55968, Note_on_c, 1, 61, 54
4, 55968, Note_on_c, 1, 58, 54
4, 56057, Note_on_c, 1, 61, 0
4, 56057, Note_on_c, 1, 58, 0
4, 56064, Note_on_c, 1, 58, 54
4, 56064, Note_on_c, 1, 55, 54
4, 56153, Note_on_c, 1, 58, 0
4, 56153, Note_on_c, 1, 55, 0
4, 56160, Note_on_c, 1, 62, 54
4, 56160, Note_on_c, 1, 57, 54
4, 56160, Note_on_c, 1, 53, 54
4, 56249, Note_on_c, 1, 62, 0
4, 56249, Note_on_c, 1, 57, 0
4, 56249, Note_on_c, 1, 53, 0
4, 56256, Note_on_c, 1, 61, 54
4, 56256, Note_on_c, 1, 55, 54
4, 56256, Note_on_c, 1, 52, 54
4, 56345, Note_on_c, 1, 61, 0
4, 56345, Note_on_c, 1, 55, 0
4, 56345, Note_on_c, 1, 52, 0
4, 56352, Note_on_c, 1, 62, 54
4, 56352, Note_on_c, 1, 53, 54
4, 56352, Note_on_c, 1, 50, 54
4, 56441, Note_on_c, 1, 62, 0
4, 56441, Note_on_c, 1, 53, 0
4, 56441, Note_on_c, 1, 50, 0
4, 56448, Note_on_c, 1, 55, 54
4, 56537, Note_on_c, 1, 55, 0
4, 56544, Note_on_c, 1, 57, 54
4, 56633, Note_on_c, 1, 57, 0
4, 56640, Note_on_c, 1, 45, 54
4, 56729, Note_on_c, 1, 45, 0
4, 56736, Note_on_c, 1, 50, 54
4, 56825, Note_on_c, 1, 50, 0
4, 56832, Note_on_c, 1, 38, 54
4, 56921, Note_on_c, 1, 38, 0
4, 57024, Note_on_c, 1, 62, 72
4, 57113, Note_on_c, 1, 62, 0
4, 57120, Note_on_c, 1, 66, 72
4, 57209, Note_on_c, 1, 66, 0
4, 57216, Note_on_c, 1, 62, 72
4, 57305, Note_on_c, 1, 62, 0
4, 57312, Note_on_c, 1, 69, 72
4, 57401, Note_on_c, 1, 69, 0
4, 57408, Note_on_c, 1, 57, 72
4, 57497, Note_on_c, 1, 57, 0
4, 57504, Note_on_c, 1, 61, 72
4, 57593, Note_on_c, 1, 61, 0
4, 57600, Note_on_c, 1, 62, 72
4, 57689, Note_on_c, 1, 62, 0
4, 57696, Note_on_c, 1, 66, 72
4, 57785, Note_on_c, 1, 66, 0
4, 57792, Note_on_c, 1, 67, 72
4, 57881, Note_on_c, 1, 67, 0
4, 57888, Note_on_c, 1, 69, 72
4, 57977, Note_on_c, 1, 69, 0
4, 57984, Note_on_c, 1, 57, 72
4, 58073, Note_on_c, 1, 57, 0
4, 58176, Note_on_c, 1, 62, 72
4, 58265, Note_on_c, 1, 62, 0
4, 58272, Note_on_c, 1, 66, 72
4, 58361, Note_on_c, 1, 66, 0
4, 58368, Note_on_c, 1, 62, 72
4, 58457, Note_on_c, 1, 62, 0
4, 58464, Note_on_c, 1, 69, 72
4, 58553, Note_on_c, 1, 69, 0
4, 58560, Note_on_c, 1, 61, 72
4, 58649, Note_on_c, 1, 61, 0
4, 58656, Note_on_c, 1, 62, 72
4, 58745, Note_on_c, 1, 62, 0
4, 58752, Note_on_c, 1, 67, 72
4, 58752, Note_on_c, 1, 55, 72
4, 58929, Note_on_c, 1, 67, 0
4, 58929, Note_on_c, 1, 55, 0
4, 58944, Note_on_c, 1, 64, 72
4, 58944, Note_on_c, 1, 57, 72
4, 59033, Note_on_c, 1, 64, 0
4, 59033, Note_on_c, 1, 57, 0
4, 59040, Note_on_c, 1, 62, 72
4, 59129, Note_on_c, 1, 62, 0
4, 59136, Note_on_c, 1, 50, 72
4, 59225, Note_on_c, 1, 50, 0
4, 59424, Note_on_c, 1, 66, 72
4, 59513, Note_on_c, 1, 66, 0
4, 59520, Note_on_c, 1, 62, 72
4, 59609, Note_on_c, 1, 62, 0
4, 59616, Note_on_c, 1, 64, 72
4, 59705, Note_on_c, 1, 64, 0
4, 59712, Note_on_c, 1, 61, 72
4, 59801, Note_on_c, 1, 61, 0
4, 59808, Note_on_c, 1, 57, 72
4, 59897, Note_on_c, 1, 57, 0
4, 59904, Note_on_c, 1, 62, 72
4, 59993, Note_on_c, 1, 62, 0
4, 60000, Note_on_c, 1, 59, 72
4, 60089, Note_on_c, 1, 59, 0
4, 60096, Note_on_c, 1, 55, 72
4, 60185, Note_on_c, 1, 55, 0
4, 60192, Note_on_c, 1, 57, 72
4, 60281, Note_on_c, 1, 57, 0
4, 60288, Note_on_c, 1, 45, 72
4, 60377, Note_on_c, 1, 45, 0
4, 60576, Note_on_c, 1, 66, 72
4, 60665, Note_on_c, 1, 66, 0
4, 60672, Note_on_c, 1, 62, 72
4, 60761, Note_on_c, 1, 62, 0
4, 60768, Note_on_c, 1, 64, 72
4, 60857, Note_on_c, 1, 64, 0
4, 60864, Note_on_c, 1, 57, 72
4, 60953, Note_on_c, 1, 57, 0
4, 60960, Note_on_c, 1, 61, 72
4, 61049, Note_on_c, 1, 61, 0
4, 61056, Note_on_c, 1, 62, 72
4, 61145, Note_on_c, 1, 62, 0
4, 61152, Note_on_c, 1, 55, 72
4, 61241, Note_on_c, 1, 55, 0
4, 61248, Note_on_c, 1, 57, 72
4, 61248, Note_on_c, 1, 45, 72
4, 61337, Note_on_c, 1, 57, 0
4, 61337, Note_on_c, 1, 45, 0
4, 61344, Note_on_c, 1, 50, 72
4, 61433, Note_on_c, 1, 50, 0
4, 61440, Note_on_c, 1, 38, 72
4, 61529, Note_on_c, 1, 38, 0
4, 62496, Note_on_c, 1, 69, 63
4, 62585, Note_on_c, 1, 69, 0
4, 62592, Note_on_c, 1, 57, 63
4, 62681, Note_on_c, 1, 57, 0
4, 63648, Note_on_c, 1, 62, 63
4, 63737, Note_on_c, 1, 62, 0
4, 63744, Note_on_c, 1, 50, 63
4, 63833, Note_on_c, 1, 50, 0
4, 64800, Note_on_c, 1, 69, 63
4, 64889, Note_on_c, 1, 69, 0
4, 64896, Note_on_c, 1, 57, 63
4, 64985, Note_on_c, 1, 57, 0
4, 65952, Note_on_c, 1, 62, 63
4, 66041, Note_on_c, 1, 62, 0
4, 66048, Note_on_c, 1, 50, 63
4, 66137, Note_on_c, 1, 50, 0
4, 66144, Note_on_c, 1, 50, 4
4, 66233, Note_on_c, 1, 50, 0
4, 66240, End_track
5, 0, Start_track
5, 0, Program_c, 1, 0
5, 0, Control_c, 1, 7, 127
5, 0, Control_c, 1, 10, 64
5, 4704, Note_on_c, 1, 48, 64
5, 4881, Note_on_c, 1, 48, 0
5, 10752, Note_on_c, 1, 48, 64
5, 10929, Note_on_c, 1, 48, 0
5, 13248, Note_on_c, 1, 65, 72
5, 13513, Note_on_c, 1, 65, 0
5, 16800, Note_on_c, 1, 57, 72
5, 16977, Note_on_c, 1, 57, 0
5, 18432, Note_on_c, 1, 43, 72
5, 18521, Note_on_c, 1, 43, 0
5, 18528, Note_on_c, 1, 45, 72
5, 18705, Note_on_c, 1, 45, 0
5, 30816, Note_on_c, 1, 62, 54
5, 30905, Note_on_c, 1, 62, 0
5, 30912, Note_on_c, 1, 58, 54
5, 31001, Note_on_c, 1, 58, 0
5, 31008, Note_on_c, 1, 55, 54
5, 31097, Note_on_c, 1, 55, 0
5, 33120, Note_on_c, 1, 62, 54
5, 33209, Note_on_c, 1, 62, 0
5, 33216, Note_on_c, 1, 58, 54
5, 33305, Note_on_c, 1, 58, 0
5, 33312, Note_on_c, 1, 55, 54
5, 33401, Note_on_c, 1, 55, 0
5, 34560, Note_on_c, 1, 64, 54
5, 34649, Note_on_c, 1, 64, 0
5, 34656, Note_on_c, 1, 65, 54
5, 34745, Note_on_c, 1, 65, 0
5, 34752, Note_on_c, 1, 55, 54
5, 34841, Note_on_c, 1, 55, 0
5, 36864, Note_on_c, 1, 64, 54
5, 36953, Note_on_c, 1, 64, 0
5, 36960, Note_on_c, 1, 65, 54
5, 37049, Note_on_c, 1, 65, 0
5, 37056, Note_on_c, 1, 55, 54
5, 37145, Note_on_c, 1, 55, 0
5, 49248, Note_on_c, 1, 65, 72
5, 49425, Note_on_c, 1, 65, 0
5, 49440, Note_on_c, 1, 58, 72
5, 49529, Note_on_c, 1, 58, 0
5, 51552, Note_on_c, 1, 65, 72
5, 51729, Note_on_c, 1, 65, 0
5, 51744, Note_on_c, 1, 58, 72
5, 51833, Note_on_c, 1, 58, 0
5, 52992, Note_on_c, 1, 72, 72
5, 53169, Note_on_c, 1, 72, 0
5, 55296, Note_on_c, 1, 72, 72
5, 55473, Note_on_c, 1, 72, 0
5, 66240, End_track
6, 0, Start_track
6, 0, Title_t, "Sonata I   Haydn  "
6, 0, End_track
0, 0, End_of_file
