0, 0, Header, 1, 6, 96
1, 0, Start_track
1, 0, Copyright_t, "Copyright  2000 <copyright holder>"
1, 0, Text_t, "Sonata II\015\012"
1, 0, Text_t, "Haydn\015\012"
1, 0, Sequencer_specific, 16, 68, 87, 77, 90, 86, 82, 83, 78, 32, 55, 46, 49, 46, 50, 46, 48
1, 0, Time_signature, 4, 2, 24, 8
1, 0, Tempo, 645161
1, 0, Key_signature, 4, "major"
1, 29088, Tempo, 1200000
1, 29184, Tempo, 645161
1, 45312, Tempo, 1000000
1, 45696, Tempo, 645161
1, 53664, Tempo, 1200000
1, 53760, Tempo, 645161
1, 69888, Tempo, 1000000
1, 70272, Tempo, 645161
1, 74784, End_track
2, 0, Start_track
2, 0, Program_c, 0, 0
2, 0, Control_c, 0, 7, 127
2, 0, Control_c, 0, 10, 64
2, 0, Note_on_c, 0, 61, 85
2, 45, Note_on_c, 0, 61, 0
2, 48, Note_on_c, 0, 61, 85
2, 60, Note_on_c, 0, 61, 0
2, 60, Note_on_c, 0, 60, 85
2, 72, Note_on_c, 0, 60, 0
2, 72, Note_on_c, 0, 61, 85
2, 84, Note_on_c, 0, 61, 0
2, 84, Note_on_c, 0, 63, 85
2, 96, Note_on_c, 0, 63, 0
2, 96, Note_on_c, 0, 64, 85
2, 116, Note_on_c, 0, 64, 0
2, 144, Note_on_c, 0, 63, 85
2, 164, Note_on_c, 0, 63, 0
2, 192, Note_on_c, 0, 61, 85
2, 212, Note_on_c, 0, 61, 0
2, 240, Note_on_c, 0, 56, 85
2, 260, Note_on_c, 0, 56, 0
2, 288, Note_on_c, 0, 61, 85
2, 308, Note_on_c, 0, 61, 0
2, 336, Note_on_c, 0, 64, 85
2, 356, Note_on_c, 0, 64, 0
2, 384, Note_on_c, 0, 61, 85
2, 429, Note_on_c, 0, 61, 0
2, 432, Note_on_c, 0, 68, 70
2, 477, Note_on_c, 0, 68, 0
2, 480, Note_on_c, 0, 68, 70
2, 525, Note_on_c, 0, 68, 0
2, 528, Note_on_c, 0, 68, 70
2, 573, Note_on_c, 0, 68, 0
2, 576, Note_on_c, 0, 69, 70
2, 582, Note_on_c, 0, 69, 0
2, 582, Note_on_c, 0, 68, 70
2, 588, Note_on_c, 0, 68, 0
2, 588, Note_on_c, 0, 67, 70
2, 594, Note_on_c, 0, 67, 0
2, 594, Note_on_c, 0, 68, 70
2, 665, Note_on_c, 0, 68, 0
2, 816, Note_on_c, 0, 68, 70
2, 861, Note_on_c, 0, 68, 0
2, 864, Note_on_c, 0, 68, 70
2, 909, Note_on_c, 0, 68, 0
2, 912, Note_on_c, 0, 68, 70
2, 957, Note_on_c, 0, 68, 0
2, 960, Note_on_c, 0, 69, 70
2, 966, Note_on_c, 0, 69, 0
2, 966, Note_on_c, 0, 68, 70
2, 972, Note_on_c, 0, 68, 0
2, 972, Note_on_c, 0, 66, 70
2, 978, Note_on_c, 0, 66, 0
2, 978, Note_on_c, 0, 68, 70
2, 1049, Note_on_c, 0, 68, 0
2, 1200, Note_on_c, 0, 73, 70
2, 1245, Note_on_c, 0, 73, 0
2, 1248, Note_on_c, 0, 73, 70
2, 1293, Note_on_c, 0, 73, 0
2, 1296, Note_on_c, 0, 73, 70
2, 1341, Note_on_c, 0, 73, 0
2, 1344, Note_on_c, 0, 75, 70
2, 1350, Note_on_c, 0, 75, 0
2, 1350, Note_on_c, 0, 73, 70
2, 1356, Note_on_c, 0, 73, 0
2, 1356, Note_on_c, 0, 72, 70
2, 1362, Note_on_c, 0, 72, 0
2, 1362, Note_on_c, 0, 73, 70
2, 1389, Note_on_c, 0, 73, 0
2, 1392, Note_on_c, 0, 76, 70
2, 1437, Note_on_c, 0, 76, 0
2, 1440, Note_on_c, 0, 76, 70
2, 1485, Note_on_c, 0, 76, 0
2, 1488, Note_on_c, 0, 76, 71
2, 1533, Note_on_c, 0, 76, 0
2, 1536, Note_on_c, 0, 76, 88
2, 1632, Note_on_c, 0, 76, 0
2, 1632, Note_on_c, 0, 74, 75
2, 1677, Note_on_c, 0, 74, 0
2, 1680, Note_on_c, 0, 81, 76
2, 1700, Note_on_c, 0, 81, 0
2, 1728, Note_on_c, 0, 73, 78
2, 1847, Note_on_c, 0, 73, 0
2, 1848, Note_on_c, 0, 72, 74
2, 1871, Note_on_c, 0, 72, 0
2, 1872, Note_on_c, 0, 75, 74
2, 1895, Note_on_c, 0, 75, 0
2, 1896, Note_on_c, 0, 72, 73
2, 1919, Note_on_c, 0, 72, 0
2, 1920, Note_on_c, 0, 73, 72
2, 2009, Note_on_c, 0, 73, 0
2, 2064, Note_on_c, 0, 69, 70
2, 2076, Note_on_c, 0, 69, 0
2, 2076, Note_on_c, 0, 66, 70
2, 2110, Note_on_c, 0, 66, 0
2, 2112, Note_on_c, 0, 68, 71
2, 2124, Note_on_c, 0, 68, 0
2, 2124, Note_on_c, 0, 64, 72
2, 2158, Note_on_c, 0, 64, 0
2, 2160, Note_on_c, 0, 66, 73
2, 2172, Note_on_c, 0, 66, 0
2, 2172, Note_on_c, 0, 63, 74
2, 2206, Note_on_c, 0, 63, 0
2, 2208, Note_on_c, 0, 64, 75
2, 2220, Note_on_c, 0, 64, 0
2, 2220, Note_on_c, 0, 61, 76
2, 2254, Note_on_c, 0, 61, 0
2, 2256, Note_on_c, 0, 63, 77
2, 2268, Note_on_c, 0, 63, 0
2, 2268, Note_on_c, 0, 60, 78
2, 2302, Note_on_c, 0, 60, 0
2, 2304, Note_on_c, 0, 61, 78
2, 2349, Note_on_c, 0, 61, 0
2, 2352, Note_on_c, 0, 61, 78
2, 2364, Note_on_c, 0, 61, 0
2, 2364, Note_on_c, 0, 60, 78
2, 2376, Note_on_c, 0, 60, 0
2, 2376, Note_on_c, 0, 61, 78
2, 2388, Note_on_c, 0, 61, 0
2, 2388, Note_on_c, 0, 63, 78
2, 2400, Note_on_c, 0, 63, 0
2, 2400, Note_on_c, 0, 64, 78
2, 2420, Note_on_c, 0, 64, 0
2, 2448, Note_on_c, 0, 63, 78
2, 2468, Note_on_c, 0, 63, 0
2, 2496, Note_on_c, 0, 61, 78
2, 2516, Note_on_c, 0, 61, 0
2, 2544, Note_on_c, 0, 56, 78
2, 2564, Note_on_c, 0, 56, 0
2, 2592, Note_on_c, 0, 61, 78
2, 2612, Note_on_c, 0, 61, 0
2, 2640, Note_on_c, 0, 64, 78
2, 2660, Note_on_c, 0, 64, 0
2, 2688, Note_on_c, 0, 57, 78
2, 2733, Note_on_c, 0, 57, 0
2, 2736, Note_on_c, 0, 57, 78
2, 2748, Note_on_c, 0, 57, 0
2, 2748, Note_on_c, 0, 56, 78
2, 2760, Note_on_c, 0, 56, 0
2, 2760, Note_on_c, 0, 57, 78
2, 2772, Note_on_c, 0, 57, 0
2, 2772, Note_on_c, 0, 59, 78
2, 2784, Note_on_c, 0, 59, 0
2, 2784, Note_on_c, 0, 61, 78
2, 2804, Note_on_c, 0, 61, 0
2, 2832, Note_on_c, 0, 59, 78
2, 2852, Note_on_c, 0, 59, 0
2, 2880, Note_on_c, 0, 57, 78
2, 2900, Note_on_c, 0, 57, 0
2, 2928, Note_on_c, 0, 52, 78
2, 2948, Note_on_c, 0, 52, 0
2, 2976, Note_on_c, 0, 57, 78
2, 2996, Note_on_c, 0, 57, 0
2, 3024, Note_on_c, 0, 61, 78
2, 3044, Note_on_c, 0, 61, 0
2, 3264, Note_on_c, 0, 59, 85
2, 3284, Note_on_c, 0, 59, 0
2, 3312, Note_on_c, 0, 63, 85
2, 3332, Note_on_c, 0, 63, 0
2, 3360, Note_on_c, 0, 66, 85
2, 3380, Note_on_c, 0, 66, 0
2, 3408, Note_on_c, 0, 70, 85
2, 3428, Note_on_c, 0, 70, 0
2, 3456, Note_on_c, 0, 70, 101
2, 3552, Note_on_c, 0, 70, 0
2, 3552, Note_on_c, 0, 71, 85
2, 3575, Note_on_c, 0, 71, 0
2, 3576, Note_on_c, 0, 73, 85
2, 3588, Note_on_c, 0, 73, 0
2, 3588, Note_on_c, 0, 75, 85
2, 3600, Note_on_c, 0, 75, 0
2, 3600, Note_on_c, 0, 76, 85
2, 3612, Note_on_c, 0, 76, 0
2, 3612, Note_on_c, 0, 78, 85
2, 3624, Note_on_c, 0, 78, 0
2, 3624, Note_on_c, 0, 80, 85
2, 3636, Note_on_c, 0, 80, 0
2, 3636, Note_on_c, 0, 82, 85
2, 3648, Note_on_c, 0, 82, 0
2, 3648, Note_on_c, 0, 83, 101
2, 3696, Note_on_c, 0, 83, 0
2, 3696, Note_on_c, 0, 81, 78
2, 3696, Note_on_c, 0, 78, 78
2, 3719, Note_on_c, 0, 81, 0
2, 3719, Note_on_c, 0, 78, 0
2, 3720, Note_on_c, 0, 71, 78
2, 3743, Note_on_c, 0, 71, 0
2, 3744, Note_on_c, 0, 81, 78
2, 3744, Note_on_c, 0, 78, 78
2, 3767, Note_on_c, 0, 81, 0
2, 3767, Note_on_c, 0, 78, 0
2, 3768, Note_on_c, 0, 71, 76
2, 3791, Note_on_c, 0, 71, 0
2, 3792, Note_on_c, 0, 81, 74
2, 3792, Note_on_c, 0, 78, 74
2, 3815, Note_on_c, 0, 81, 0
2, 3815, Note_on_c, 0, 78, 0
2, 3816, Note_on_c, 0, 71, 72
2, 3839, Note_on_c, 0, 71, 0
2, 3840, Note_on_c, 0, 81, 70
2, 3840, Note_on_c, 0, 78, 70
2, 4105, Note_on_c, 0, 81, 0
2, 4105, Note_on_c, 0, 78, 0
2, 4224, Note_on_c, 0, 64, 78
2, 4247, Note_on_c, 0, 64, 0
2, 4248, Note_on_c, 0, 66, 78
2, 4256, Note_on_c, 0, 66, 0
2, 4256, Note_on_c, 0, 64, 78
2, 4264, Note_on_c, 0, 64, 0
2, 4264, Note_on_c, 0, 63, 78
2, 4272, Note_on_c, 0, 63, 0
2, 4272, Note_on_c, 0, 64, 78
2, 4295, Note_on_c, 0, 64, 0
2, 4296, Note_on_c, 0, 66, 78
2, 4319, Note_on_c, 0, 66, 0
2, 4320, Note_on_c, 0, 68, 78
2, 4365, Note_on_c, 0, 68, 0
2, 4368, Note_on_c, 0, 66, 78
2, 4413, Note_on_c, 0, 66, 0
2, 4416, Note_on_c, 0, 64, 78
2, 4461, Note_on_c, 0, 64, 0
2, 4464, Note_on_c, 0, 59, 78
2, 4509, Note_on_c, 0, 59, 0
2, 4512, Note_on_c, 0, 64, 78
2, 4557, Note_on_c, 0, 64, 0
2, 4560, Note_on_c, 0, 68, 78
2, 4605, Note_on_c, 0, 68, 0
2, 4608, Note_on_c, 0, 66, 78
2, 4631, Note_on_c, 0, 66, 0
2, 4632, Note_on_c, 0, 68, 78
2, 4640, Note_on_c, 0, 68, 0
2, 4640, Note_on_c, 0, 66, 78
2, 4648, Note_on_c, 0, 66, 0
2, 4648, Note_on_c, 0, 64, 78
2, 4656, Note_on_c, 0, 64, 0
2, 4656, Note_on_c, 0, 66, 78
2, 4679, Note_on_c, 0, 66, 0
2, 4680, Note_on_c, 0, 68, 78
2, 4703, Note_on_c, 0, 68, 0
2, 4704, Note_on_c, 0, 69, 78
2, 4749, Note_on_c, 0, 69, 0
2, 4752, Note_on_c, 0, 68, 78
2, 4797, Note_on_c, 0, 68, 0
2, 4800, Note_on_c, 0, 66, 78
2, 4845, Note_on_c, 0, 66, 0
2, 4848, Note_on_c, 0, 59, 78
2, 4893, Note_on_c, 0, 59, 0
2, 4896, Note_on_c, 0, 66, 78
2, 4941, Note_on_c, 0, 66, 0
2, 4944, Note_on_c, 0, 69, 78
2, 4989, Note_on_c, 0, 69, 0
2, 4992, Note_on_c, 0, 68, 78
2, 5015, Note_on_c, 0, 68, 0
2, 5016, Note_on_c, 0, 69, 78
2, 5024, Note_on_c, 0, 69, 0
2, 5024, Note_on_c, 0, 68, 78
2, 5032, Note_on_c, 0, 68, 0
2, 5032, Note_on_c, 0, 66, 78
2, 5040, Note_on_c, 0, 66, 0
2, 5040, Note_on_c, 0, 68, 78
2, 5063, Note_on_c, 0, 68, 0
2, 5064, Note_on_c, 0, 69, 78
2, 5087, Note_on_c, 0, 69, 0
2, 5088, Note_on_c, 0, 71, 78
2, 5133, Note_on_c, 0, 71, 0
2, 5136, Note_on_c, 0, 69, 78
2, 5181, Note_on_c, 0, 69, 0
2, 5184, Note_on_c, 0, 68, 78
2, 5229, Note_on_c, 0, 68, 0
2, 5232, Note_on_c, 0, 64, 78
2, 5277, Note_on_c, 0, 64, 0
2, 5280, Note_on_c, 0, 68, 78
2, 5325, Note_on_c, 0, 68, 0
2, 5328, Note_on_c, 0, 71, 78
2, 5373, Note_on_c, 0, 71, 0
2, 5376, Note_on_c, 0, 69, 78
2, 5421, Note_on_c, 0, 69, 0
2, 5424, Note_on_c, 0, 64, 78
2, 5469, Note_on_c, 0, 64, 0
2, 5472, Note_on_c, 0, 69, 78
2, 5517, Note_on_c, 0, 69, 0
2, 5520, Note_on_c, 0, 73, 78
2, 5565, Note_on_c, 0, 73, 0
2, 5568, Note_on_c, 0, 69, 78
2, 5613, Note_on_c, 0, 69, 0
2, 5616, Note_on_c, 0, 73, 78
2, 5661, Note_on_c, 0, 73, 0
2, 5664, Note_on_c, 0, 81, 78
2, 5709, Note_on_c, 0, 81, 0
2, 5712, Note_on_c, 0, 81, 80
2, 5757, Note_on_c, 0, 81, 0
2, 5760, Note_on_c, 0, 81, 99
2, 5784, Note_on_c, 0, 81, 0
2, 5784, Note_on_c, 0, 80, 85
2, 5807, Note_on_c, 0, 80, 0
2, 5808, Note_on_c, 0, 78, 85
2, 5831, Note_on_c, 0, 78, 0
2, 5832, Note_on_c, 0, 76, 85
2, 5855, Note_on_c, 0, 76, 0
2, 5856, Note_on_c, 0, 75, 85
2, 5879, Note_on_c, 0, 75, 0
2, 5880, Note_on_c, 0, 73, 85
2, 5903, Note_on_c, 0, 73, 0
2, 5904, Note_on_c, 0, 71, 85
2, 5927, Note_on_c, 0, 71, 0
2, 5928, Note_on_c, 0, 69, 85
2, 5951, Note_on_c, 0, 69, 0
2, 5952, Note_on_c, 0, 68, 85
2, 5976, Note_on_c, 0, 68, 0
2, 5976, Note_on_c, 0, 71, 84
2, 6000, Note_on_c, 0, 71, 0
2, 6000, Note_on_c, 0, 69, 83
2, 6024, Note_on_c, 0, 69, 0
2, 6024, Note_on_c, 0, 68, 82
2, 6048, Note_on_c, 0, 68, 0
2, 6048, Note_on_c, 0, 66, 81
2, 6072, Note_on_c, 0, 66, 0
2, 6072, Note_on_c, 0, 64, 80
2, 6096, Note_on_c, 0, 64, 0
2, 6096, Note_on_c, 0, 63, 79
2, 6120, Note_on_c, 0, 63, 0
2, 6120, Note_on_c, 0, 61, 78
2, 6143, Note_on_c, 0, 61, 0
2, 6144, Note_on_c, 0, 59, 78
2, 6189, Note_on_c, 0, 59, 0
2, 6192, Note_on_c, 0, 71, 70
2, 6237, Note_on_c, 0, 71, 0
2, 6240, Note_on_c, 0, 71, 70
2, 6285, Note_on_c, 0, 71, 0
2, 6288, Note_on_c, 0, 71, 70
2, 6333, Note_on_c, 0, 71, 0
2, 6336, Note_on_c, 0, 73, 70
2, 6342, Note_on_c, 0, 73, 0
2, 6342, Note_on_c, 0, 71, 70
2, 6348, Note_on_c, 0, 71, 0
2, 6348, Note_on_c, 0, 70, 70
2, 6354, Note_on_c, 0, 70, 0
2, 6354, Note_on_c, 0, 71, 70
2, 6425, Note_on_c, 0, 71, 0
2, 6576, Note_on_c, 0, 71, 70
2, 6621, Note_on_c, 0, 71, 0
2, 6624, Note_on_c, 0, 71, 70
2, 6669, Note_on_c, 0, 71, 0
2, 6672, Note_on_c, 0, 71, 70
2, 6717, Note_on_c, 0, 71, 0
2, 6720, Note_on_c, 0, 73, 70
2, 6726, Note_on_c, 0, 73, 0
2, 6726, Note_on_c, 0, 71, 70
2, 6732, Note_on_c, 0, 71, 0
2, 6732, Note_on_c, 0, 70, 70
2, 6738, Note_on_c, 0, 70, 0
2, 6738, Note_on_c, 0, 71, 70
2, 6809, Note_on_c, 0, 71, 0
2, 6960, Note_on_c, 0, 76, 70
2, 7005, Note_on_c, 0, 76, 0
2, 7008, Note_on_c, 0, 76, 70
2, 7053, Note_on_c, 0, 76, 0
2, 7056, Note_on_c, 0, 76, 70
2, 7101, Note_on_c, 0, 76, 0
2, 7104, Note_on_c, 0, 78, 70
2, 7110, Note_on_c, 0, 78, 0
2, 7110, Note_on_c, 0, 76, 70
2, 7116, Note_on_c, 0, 76, 0
2, 7116, Note_on_c, 0, 76, 70
2, 7122, Note_on_c, 0, 76, 0
2, 7122, Note_on_c, 0, 76, 86
2, 7152, Note_on_c, 0, 76, 0
2, 7152, Note_on_c, 0, 77, 70
2, 7152, Note_on_c, 0, 74, 70
2, 7172, Note_on_c, 0, 77, 0
2, 7172, Note_on_c, 0, 74, 0
2, 7200, Note_on_c, 0, 77, 73
2, 7200, Note_on_c, 0, 74, 73
2, 7220, Note_on_c, 0, 77, 0
2, 7220, Note_on_c, 0, 74, 0
2, 7248, Note_on_c, 0, 77, 76
2, 7248, Note_on_c, 0, 74, 76
2, 7268, Note_on_c, 0, 77, 0
2, 7268, Note_on_c, 0, 74, 0
2, 7296, Note_on_c, 0, 77, 79
2, 7296, Note_on_c, 0, 74, 79
2, 7392, Note_on_c, 0, 77, 0
2, 7392, Note_on_c, 0, 74, 0
2, 7392, Note_on_c, 0, 78, 63
2, 7392, Note_on_c, 0, 73, 63
2, 7412, Note_on_c, 0, 78, 0
2, 7412, Note_on_c, 0, 73, 0
2, 7440, Note_on_c, 0, 80, 63
2, 7440, Note_on_c, 0, 74, 63
2, 7460, Note_on_c, 0, 80, 0
2, 7460, Note_on_c, 0, 74, 0
2, 7488, Note_on_c, 0, 80, 85
2, 7488, Note_on_c, 0, 74, 85
2, 7584, Note_on_c, 0, 80, 0
2, 7584, Note_on_c, 0, 74, 0
2, 7584, Note_on_c, 0, 81, 63
2, 7584, Note_on_c, 0, 73, 63
2, 7604, Note_on_c, 0, 81, 0
2, 7604, Note_on_c, 0, 73, 0
2, 7632, Note_on_c, 0, 75, 63
2, 7632, Note_on_c, 0, 72, 63
2, 7652, Note_on_c, 0, 75, 0
2, 7652, Note_on_c, 0, 72, 0
2, 7680, Note_on_c, 0, 75, 85
2, 7680, Note_on_c, 0, 72, 85
2, 7776, Note_on_c, 0, 75, 0
2, 7776, Note_on_c, 0, 72, 0
2, 7776, Note_on_c, 0, 76, 63
2, 7776, Note_on_c, 0, 71, 63
2, 7796, Note_on_c, 0, 76, 0
2, 7796, Note_on_c, 0, 71, 0
2, 7824, Note_on_c, 0, 78, 63
2, 7824, Note_on_c, 0, 72, 63
2, 7844, Note_on_c, 0, 78, 0
2, 7844, Note_on_c, 0, 72, 0
2, 7872, Note_on_c, 0, 78, 85
2, 7872, Note_on_c, 0, 72, 85
2, 7968, Note_on_c, 0, 78, 0
2, 7968, Note_on_c, 0, 72, 0
2, 7968, Note_on_c, 0, 80, 63
2, 7968, Note_on_c, 0, 71, 63
2, 7988, Note_on_c, 0, 80, 0
2, 7988, Note_on_c, 0, 71, 0
2, 8016, Note_on_c, 0, 83, 85
2, 8016, Note_on_c, 0, 71, 85
2, 8036, Note_on_c, 0, 83, 0
2, 8036, Note_on_c, 0, 71, 0
2, 8064, Note_on_c, 0, 83, 101
2, 8064, Note_on_c, 0, 71, 101
2, 8160, Note_on_c, 0, 83, 0
2, 8160, Note_on_c, 0, 71, 0
2, 8160, Note_on_c, 0, 82, 85
2, 8160, Note_on_c, 0, 70, 85
2, 8205, Note_on_c, 0, 82, 0
2, 8205, Note_on_c, 0, 70, 0
2, 8208, Note_on_c, 0, 83, 85
2, 8208, Note_on_c, 0, 71, 85
2, 8253, Note_on_c, 0, 83, 0
2, 8253, Note_on_c, 0, 71, 0
2, 8256, Note_on_c, 0, 84, 101
2, 8256, Note_on_c, 0, 72, 101
2, 8352, Note_on_c, 0, 84, 0
2, 8352, Note_on_c, 0, 72, 0
2, 8352, Note_on_c, 0, 85, 85
2, 8352, Note_on_c, 0, 73, 85
2, 8397, Note_on_c, 0, 85, 0
2, 8397, Note_on_c, 0, 73, 0
2, 8400, Note_on_c, 0, 83, 85
2, 8400, Note_on_c, 0, 71, 85
2, 8420, Note_on_c, 0, 83, 0
2, 8420, Note_on_c, 0, 71, 0
2, 8448, Note_on_c, 0, 83, 101
2, 8448, Note_on_c, 0, 71, 101
2, 8496, Note_on_c, 0, 83, 0
2, 8496, Note_on_c, 0, 71, 0
2, 8496, Note_on_c, 0, 81, 85
2, 8496, Note_on_c, 0, 69, 85
2, 8519, Note_on_c, 0, 81, 0
2, 8519, Note_on_c, 0, 69, 0
2, 8544, Note_on_c, 0, 81, 85
2, 8544, Note_on_c, 0, 69, 85
2, 8592, Note_on_c, 0, 81, 0
2, 8592, Note_on_c, 0, 69, 0
2, 8592, Note_on_c, 0, 80, 85
2, 8592, Note_on_c, 0, 68, 85
2, 8615, Note_on_c, 0, 80, 0
2, 8615, Note_on_c, 0, 68, 0
2, 8640, Note_on_c, 0, 80, 85
2, 8640, Note_on_c, 0, 68, 85
2, 8688, Note_on_c, 0, 80, 0
2, 8688, Note_on_c, 0, 68, 0
2, 8688, Note_on_c, 0, 78, 85
2, 8688, Note_on_c, 0, 66, 85
2, 8711, Note_on_c, 0, 78, 0
2, 8711, Note_on_c, 0, 66, 0
2, 8736, Note_on_c, 0, 81, 70
2, 8781, Note_on_c, 0, 81, 0
2, 8784, Note_on_c, 0, 75, 70
2, 8829, Note_on_c, 0, 75, 0
2, 8832, Note_on_c, 0, 75, 70
2, 8921, Note_on_c, 0, 75, 0
2, 8928, Note_on_c, 0, 78, 70
2, 8995, Note_on_c, 0, 78, 0
2, 9000, Note_on_c, 0, 76, 70
2, 9023, Note_on_c, 0, 76, 0
2, 9024, Note_on_c, 0, 76, 70
2, 9157, Note_on_c, 0, 76, 0
2, 9168, Note_on_c, 0, 76, 70
2, 9180, Note_on_c, 0, 76, 0
2, 9180, Note_on_c, 0, 75, 72
2, 9192, Note_on_c, 0, 75, 0
2, 9192, Note_on_c, 0, 73, 74
2, 9204, Note_on_c, 0, 73, 0
2, 9204, Note_on_c, 0, 71, 76
2, 9216, Note_on_c, 0, 71, 0
2, 9216, Note_on_c, 0, 70, 85
2, 9305, Note_on_c, 0, 70, 0
2, 9312, Note_on_c, 0, 76, 85
2, 9324, Note_on_c, 0, 76, 0
2, 9324, Note_on_c, 0, 88, 85
2, 9357, Note_on_c, 0, 88, 0
2, 9360, Note_on_c, 0, 73, 85
2, 9372, Note_on_c, 0, 73, 0
2, 9372, Note_on_c, 0, 85, 85
2, 9405, Note_on_c, 0, 85, 0
2, 9408, Note_on_c, 0, 70, 85
2, 9420, Note_on_c, 0, 70, 0
2, 9420, Note_on_c, 0, 82, 85
2, 9453, Note_on_c, 0, 82, 0
2, 9456, Note_on_c, 0, 67, 85
2, 9468, Note_on_c, 0, 67, 0
2, 9468, Note_on_c, 0, 79, 85
2, 9501, Note_on_c, 0, 79, 0
2, 9504, Note_on_c, 0, 64, 85
2, 9516, Note_on_c, 0, 64, 0
2, 9516, Note_on_c, 0, 76, 85
2, 9549, Note_on_c, 0, 76, 0
2, 9552, Note_on_c, 0, 61, 85
2, 9564, Note_on_c, 0, 61, 0
2, 9564, Note_on_c, 0, 73, 85
2, 9597, Note_on_c, 0, 73, 0
2, 9600, Note_on_c, 0, 70, 106
2, 9600, Note_on_c, 0, 58, 106
2, 9792, Note_on_c, 0, 70, 0
2, 9792, Note_on_c, 0, 58, 0
2, 9792, Note_on_c, 0, 69, 85
2, 9792, Note_on_c, 0, 57, 85
2, 9969, Note_on_c, 0, 69, 0
2, 9969, Note_on_c, 0, 57, 0
2, 9984, Note_on_c, 0, 56, 78
2, 10007, Note_on_c, 0, 56, 0
2, 10008, Note_on_c, 0, 68, 78
2, 10031, Note_on_c, 0, 68, 0
2, 10032, Note_on_c, 0, 59, 78
2, 10055, Note_on_c, 0, 59, 0
2, 10056, Note_on_c, 0, 71, 78
2, 10079, Note_on_c, 0, 71, 0
2, 10080, Note_on_c, 0, 69, 78
2, 10103, Note_on_c, 0, 69, 0
2, 10104, Note_on_c, 0, 68, 78
2, 10127, Note_on_c, 0, 68, 0
2, 10128, Note_on_c, 0, 66, 78
2, 10151, Note_on_c, 0, 66, 0
2, 10152, Note_on_c, 0, 64, 78
2, 10175, Note_on_c, 0, 64, 0
2, 10176, Note_on_c, 0, 61, 78
2, 10199, Note_on_c, 0, 61, 0
2, 10200, Note_on_c, 0, 73, 78
2, 10223, Note_on_c, 0, 73, 0
2, 10224, Note_on_c, 0, 64, 78
2, 10247, Note_on_c, 0, 64, 0
2, 10248, Note_on_c, 0, 76, 78
2, 10271, Note_on_c, 0, 76, 0
2, 10272, Note_on_c, 0, 75, 78
2, 10295, Note_on_c, 0, 75, 0
2, 10296, Note_on_c, 0, 73, 78
2, 10319, Note_on_c, 0, 73, 0
2, 10320, Note_on_c, 0, 71, 78
2, 10343, Note_on_c, 0, 71, 0
2, 10344, Note_on_c, 0, 69, 78
2, 10367, Note_on_c, 0, 69, 0
2, 10368, Note_on_c, 0, 68, 78
2, 10457, Note_on_c, 0, 68, 0
2, 10464, Note_on_c, 0, 71, 78
2, 10487, Note_on_c, 0, 71, 0
2, 10488, Note_on_c, 0, 69, 78
2, 10511, Note_on_c, 0, 69, 0
2, 10512, Note_on_c, 0, 68, 78
2, 10535, Note_on_c, 0, 68, 0
2, 10536, Note_on_c, 0, 66, 78
2, 10559, Note_on_c, 0, 66, 0
2, 10560, Note_on_c, 0, 68, 78
2, 10583, Note_on_c, 0, 68, 0
2, 10584, Note_on_c, 0, 80, 78
2, 10607, Note_on_c, 0, 80, 0
2, 10608, Note_on_c, 0, 71, 78
2, 10631, Note_on_c, 0, 71, 0
2, 10632, Note_on_c, 0, 83, 78
2, 10655, Note_on_c, 0, 83, 0
2, 10656, Note_on_c, 0, 81, 78
2, 10679, Note_on_c, 0, 81, 0
2, 10680, Note_on_c, 0, 80, 78
2, 10703, Note_on_c, 0, 80, 0
2, 10704, Note_on_c, 0, 78, 78
2, 10727, Note_on_c, 0, 78, 0
2, 10728, Note_on_c, 0, 76, 78
2, 10751, Note_on_c, 0, 76, 0
2, 10752, Note_on_c, 0, 73, 78
2, 10775, Note_on_c, 0, 73, 0
2, 10776, Note_on_c, 0, 85, 78
2, 10799, Note_on_c, 0, 85, 0
2, 10800, Note_on_c, 0, 76, 78
2, 10823, Note_on_c, 0, 76, 0
2, 10824, Note_on_c, 0, 88, 78
2, 10847, Note_on_c, 0, 88, 0
2, 10896, Note_on_c, 0, 85, 78
2, 10908, Note_on_c, 0, 85, 0
2, 10908, Note_on_c, 0, 84, 78
2, 10920, Note_on_c, 0, 84, 0
2, 10920, Note_on_c, 0, 85, 78
2, 10932, Note_on_c, 0, 85, 0
2, 10932, Note_on_c, 0, 87, 78
2, 10944, Note_on_c, 0, 87, 0
2, 10944, Note_on_c, 0, 88, 78
2, 10964, Note_on_c, 0, 88, 0
2, 10992, Note_on_c, 0, 81, 78
2, 11012, Note_on_c, 0, 81, 0
2, 11040, Note_on_c, 0, 85, 78
2, 11060, Note_on_c, 0, 85, 0
2, 11088, Note_on_c, 0, 78, 78
2, 11108, Note_on_c, 0, 78, 0
2, 11136, Note_on_c, 0, 71, 78
2, 11142, Note_on_c, 0, 71, 0
2, 11142, Note_on_c, 0, 75, 78
2, 11148, Note_on_c, 0, 75, 0
2, 11148, Note_on_c, 0, 78, 78
2, 11154, Note_on_c, 0, 78, 0
2, 11154, Note_on_c, 0, 80, 78
2, 11160, Note_on_c, 0, 80, 0
2, 11160, Note_on_c, 0, 81, 78
2, 11175, Note_on_c, 0, 81, 0
2, 11232, Note_on_c, 0, 73, 78
2, 11238, Note_on_c, 0, 73, 0
2, 11238, Note_on_c, 0, 75, 78
2, 11244, Note_on_c, 0, 75, 0
2, 11244, Note_on_c, 0, 76, 78
2, 11250, Note_on_c, 0, 76, 0
2, 11250, Note_on_c, 0, 80, 78
2, 11271, Note_on_c, 0, 80, 0
2, 11328, Note_on_c, 0, 69, 78
2, 11334, Note_on_c, 0, 69, 0
2, 11334, Note_on_c, 0, 73, 78
2, 11340, Note_on_c, 0, 73, 0
2, 11340, Note_on_c, 0, 77, 78
2, 11346, Note_on_c, 0, 77, 0
2, 11346, Note_on_c, 0, 78, 78
2, 11367, Note_on_c, 0, 78, 0
2, 11472, Note_on_c, 0, 75, 78
2, 11506, Note_on_c, 0, 75, 0
2, 11508, Note_on_c, 0, 71, 78
2, 11520, Note_on_c, 0, 71, 0
2, 11520, Note_on_c, 0, 76, 78
2, 11540, Note_on_c, 0, 76, 0
2, 11568, Note_on_c, 0, 83, 78
2, 11568, Note_on_c, 0, 80, 78
2, 11616, Note_on_c, 0, 83, 0
2, 11616, Note_on_c, 0, 76, 78
2, 11661, Note_on_c, 0, 80, 0
2, 11661, Note_on_c, 0, 76, 0
2, 11664, Note_on_c, 0, 75, 78
2, 11698, Note_on_c, 0, 75, 0
2, 11700, Note_on_c, 0, 71, 78
2, 11712, Note_on_c, 0, 71, 0
2, 11712, Note_on_c, 0, 76, 78
2, 11732, Note_on_c, 0, 76, 0
2, 11760, Note_on_c, 0, 78, 78
2, 11760, Note_on_c, 0, 75, 78
2, 11808, Note_on_c, 0, 78, 0
2, 11808, Note_on_c, 0, 75, 0
2, 11808, Note_on_c, 0, 80, 78
2, 11808, Note_on_c, 0, 76, 78
2, 11853, Note_on_c, 0, 80, 0
2, 11853, Note_on_c, 0, 76, 0
2, 11856, Note_on_c, 0, 75, 70
2, 11890, Note_on_c, 0, 75, 0
2, 11892, Note_on_c, 0, 71, 70
2, 11904, Note_on_c, 0, 71, 0
2, 11904, Note_on_c, 0, 76, 70
2, 11924, Note_on_c, 0, 76, 0
2, 11952, Note_on_c, 0, 83, 70
2, 11952, Note_on_c, 0, 80, 70
2, 12000, Note_on_c, 0, 83, 0
2, 12000, Note_on_c, 0, 76, 70
2, 12045, Note_on_c, 0, 80, 0
2, 12045, Note_on_c, 0, 76, 0
2, 12048, Note_on_c, 0, 75, 70
2, 12082, Note_on_c, 0, 75, 0
2, 12084, Note_on_c, 0, 71, 70
2, 12096, Note_on_c, 0, 71, 0
2, 12096, Note_on_c, 0, 76, 70
2, 12116, Note_on_c, 0, 76, 0
2, 12144, Note_on_c, 0, 78, 70
2, 12144, Note_on_c, 0, 75, 70
2, 12192, Note_on_c, 0, 78, 0
2, 12192, Note_on_c, 0, 75, 0
2, 12192, Note_on_c, 0, 80, 70
2, 12192, Note_on_c, 0, 76, 70
2, 12237, Note_on_c, 0, 80, 0
2, 12237, Note_on_c, 0, 76, 0
2, 12240, Note_on_c, 0, 75, 63
2, 12274, Note_on_c, 0, 75, 0
2, 12276, Note_on_c, 0, 71, 63
2, 12288, Note_on_c, 0, 71, 0
2, 12288, Note_on_c, 0, 76, 63
2, 12308, Note_on_c, 0, 76, 0
2, 12384, Note_on_c, 0, 87, 55
2, 12384, Note_on_c, 0, 78, 55
2, 12404, Note_on_c, 0, 87, 0
2, 12404, Note_on_c, 0, 78, 0
2, 12480, Note_on_c, 0, 88, 55
2, 12480, Note_on_c, 0, 80, 55
2, 12519, Note_on_c, 0, 88, 0
2, 12519, Note_on_c, 0, 80, 0
2, 12672, Note_on_c, 0, 61, 85
2, 12717, Note_on_c, 0, 61, 0
2, 12720, Note_on_c, 0, 61, 85
2, 12732, Note_on_c, 0, 61, 0
2, 12732, Note_on_c, 0, 60, 85
2, 12744, Note_on_c, 0, 60, 0
2, 12744, Note_on_c, 0, 61, 85
2, 12756, Note_on_c, 0, 61, 0
2, 12756, Note_on_c, 0, 63, 85
2, 12768, Note_on_c, 0, 63, 0
2, 12768, Note_on_c, 0, 64, 85
2, 12788, Note_on_c, 0, 64, 0
2, 12816, Note_on_c, 0, 63, 85
2, 12836, Note_on_c, 0, 63, 0
2, 12864, Note_on_c, 0, 61, 85
2, 12884, Note_on_c, 0, 61, 0
2, 12912, Note_on_c, 0, 56, 85
2, 12932, Note_on_c, 0, 56, 0
2, 12960, Note_on_c, 0, 61, 85
2, 12980, Note_on_c, 0, 61, 0
2, 13008, Note_on_c, 0, 64, 85
2, 13028, Note_on_c, 0, 64, 0
2, 13056, Note_on_c, 0, 61, 85
2, 13101, Note_on_c, 0, 61, 0
2, 13104, Note_on_c, 0, 68, 70
2, 13149, Note_on_c, 0, 68, 0
2, 13152, Note_on_c, 0, 68, 70
2, 13197, Note_on_c, 0, 68, 0
2, 13200, Note_on_c, 0, 68, 70
2, 13245, Note_on_c, 0, 68, 0
2, 13248, Note_on_c, 0, 69, 70
2, 13254, Note_on_c, 0, 69, 0
2, 13254, Note_on_c, 0, 68, 70
2, 13260, Note_on_c, 0, 68, 0
2, 13260, Note_on_c, 0, 67, 70
2, 13266, Note_on_c, 0, 67, 0
2, 13266, Note_on_c, 0, 68, 70
2, 13337, Note_on_c, 0, 68, 0
2, 13488, Note_on_c, 0, 68, 70
2, 13533, Note_on_c, 0, 68, 0
2, 13536, Note_on_c, 0, 68, 70
2, 13581, Note_on_c, 0, 68, 0
2, 13584, Note_on_c, 0, 68, 70
2, 13629, Note_on_c, 0, 68, 0
2, 13632, Note_on_c, 0, 69, 70
2, 13638, Note_on_c, 0, 69, 0
2, 13638, Note_on_c, 0, 68, 70
2, 13644, Note_on_c, 0, 68, 0
2, 13644, Note_on_c, 0, 66, 70
2, 13650, Note_on_c, 0, 66, 0
2, 13650, Note_on_c, 0, 68, 70
2, 13721, Note_on_c, 0, 68, 0
2, 13872, Note_on_c, 0, 73, 70
2, 13917, Note_on_c, 0, 73, 0
2, 13920, Note_on_c, 0, 73, 70
2, 13965, Note_on_c, 0, 73, 0
2, 13968, Note_on_c, 0, 73, 70
2, 14013, Note_on_c, 0, 73, 0
2, 14016, Note_on_c, 0, 75, 70
2, 14022, Note_on_c, 0, 75, 0
2, 14022, Note_on_c, 0, 73, 70
2, 14028, Note_on_c, 0, 73, 0
2, 14028, Note_on_c, 0, 72, 70
2, 14034, Note_on_c, 0, 72, 0
2, 14034, Note_on_c, 0, 73, 70
2, 14061, Note_on_c, 0, 73, 0
2, 14064, Note_on_c, 0, 76, 70
2, 14109, Note_on_c, 0, 76, 0
2, 14112, Note_on_c, 0, 76, 70
2, 14157, Note_on_c, 0, 76, 0
2, 14160, Note_on_c, 0, 76, 71
2, 14205, Note_on_c, 0, 76, 0
2, 14208, Note_on_c, 0, 76, 88
2, 14304, Note_on_c, 0, 76, 0
2, 14304, Note_on_c, 0, 74, 75
2, 14349, Note_on_c, 0, 74, 0
2, 14352, Note_on_c, 0, 81, 76
2, 14372, Note_on_c, 0, 81, 0
2, 14400, Note_on_c, 0, 73, 78
2, 14519, Note_on_c, 0, 73, 0
2, 14520, Note_on_c, 0, 72, 74
2, 14543, Note_on_c, 0, 72, 0
2, 14544, Note_on_c, 0, 75, 74
2, 14567, Note_on_c, 0, 75, 0
2, 14568, Note_on_c, 0, 72, 73
2, 14591, Note_on_c, 0, 72, 0
2, 14592, Note_on_c, 0, 73, 72
2, 14681, Note_on_c, 0, 73, 0
2, 14736, Note_on_c, 0, 69, 70
2, 14748, Note_on_c, 0, 69, 0
2, 14748, Note_on_c, 0, 66, 70
2, 14782, Note_on_c, 0, 66, 0
2, 14784, Note_on_c, 0, 68, 71
2, 14796, Note_on_c, 0, 68, 0
2, 14796, Note_on_c, 0, 64, 72
2, 14830, Note_on_c, 0, 64, 0
2, 14832, Note_on_c, 0, 66, 73
2, 14844, Note_on_c, 0, 66, 0
2, 14844, Note_on_c, 0, 63, 74
2, 14878, Note_on_c, 0, 63, 0
2, 14880, Note_on_c, 0, 64, 75
2, 14892, Note_on_c, 0, 64, 0
2, 14892, Note_on_c, 0, 61, 76
2, 14926, Note_on_c, 0, 61, 0
2, 14928, Note_on_c, 0, 63, 77
2, 14940, Note_on_c, 0, 63, 0
2, 14940, Note_on_c, 0, 60, 78
2, 14974, Note_on_c, 0, 60, 0
2, 14976, Note_on_c, 0, 61, 78
2, 15021, Note_on_c, 0, 61, 0
2, 15024, Note_on_c, 0, 61, 78
2, 15036, Note_on_c, 0, 61, 0
2, 15036, Note_on_c, 0, 60, 78
2, 15048, Note_on_c, 0, 60, 0
2, 15048, Note_on_c, 0, 61, 78
2, 15060, Note_on_c, 0, 61, 0
2, 15060, Note_on_c, 0, 63, 78
2, 15072, Note_on_c, 0, 63, 0
2, 15072, Note_on_c, 0, 64, 78
2, 15092, Note_on_c, 0, 64, 0
2, 15120, Note_on_c, 0, 63, 78
2, 15140, Note_on_c, 0, 63, 0
2, 15168, Note_on_c, 0, 61, 78
2, 15188, Note_on_c, 0, 61, 0
2, 15216, Note_on_c, 0, 56, 78
2, 15236, Note_on_c, 0, 56, 0
2, 15264, Note_on_c, 0, 61, 78
2, 15284, Note_on_c, 0, 61, 0
2, 15312, Note_on_c, 0, 64, 78
2, 15332, Note_on_c, 0, 64, 0
2, 15360, Note_on_c, 0, 57, 78
2, 15405, Note_on_c, 0, 57, 0
2, 15408, Note_on_c, 0, 57, 78
2, 15420, Note_on_c, 0, 57, 0
2, 15420, Note_on_c, 0, 56, 78
2, 15432, Note_on_c, 0, 56, 0
2, 15432, Note_on_c, 0, 57, 78
2, 15444, Note_on_c, 0, 57, 0
2, 15444, Note_on_c, 0, 59, 78
2, 15456, Note_on_c, 0, 59, 0
2, 15456, Note_on_c, 0, 61, 78
2, 15476, Note_on_c, 0, 61, 0
2, 15504, Note_on_c, 0, 59, 78
2, 15524, Note_on_c, 0, 59, 0
2, 15552, Note_on_c, 0, 57, 78
2, 15572, Note_on_c, 0, 57, 0
2, 15600, Note_on_c, 0, 52, 78
2, 15620, Note_on_c, 0, 52, 0
2, 15648, Note_on_c, 0, 57, 78
2, 15668, Note_on_c, 0, 57, 0
2, 15696, Note_on_c, 0, 61, 78
2, 15716, Note_on_c, 0, 61, 0
2, 15936, Note_on_c, 0, 59, 85
2, 15956, Note_on_c, 0, 59, 0
2, 15984, Note_on_c, 0, 63, 85
2, 16004, Note_on_c, 0, 63, 0
2, 16032, Note_on_c, 0, 66, 85
2, 16052, Note_on_c, 0, 66, 0
2, 16080, Note_on_c, 0, 70, 85
2, 16100, Note_on_c, 0, 70, 0
2, 16128, Note_on_c, 0, 70, 101
2, 16224, Note_on_c, 0, 70, 0
2, 16224, Note_on_c, 0, 71, 85
2, 16247, Note_on_c, 0, 71, 0
2, 16248, Note_on_c, 0, 73, 85
2, 16260, Note_on_c, 0, 73, 0
2, 16260, Note_on_c, 0, 75, 85
2, 16272, Note_on_c, 0, 75, 0
2, 16272, Note_on_c, 0, 76, 85
2, 16284, Note_on_c, 0, 76, 0
2, 16284, Note_on_c, 0, 78, 85
2, 16296, Note_on_c, 0, 78, 0
2, 16296, Note_on_c, 0, 80, 85
2, 16308, Note_on_c, 0, 80, 0
2, 16308, Note_on_c, 0, 82, 85
2, 16320, Note_on_c, 0, 82, 0
2, 16320, Note_on_c, 0, 83, 101
2, 16368, Note_on_c, 0, 83, 0
2, 16368, Note_on_c, 0, 81, 78
2, 16368, Note_on_c, 0, 78, 78
2, 16391, Note_on_c, 0, 81, 0
2, 16391, Note_on_c, 0, 78, 0
2, 16392, Note_on_c, 0, 71, 78
2, 16415, Note_on_c, 0, 71, 0
2, 16416, Note_on_c, 0, 81, 78
2, 16416, Note_on_c, 0, 78, 78
2, 16439, Note_on_c, 0, 81, 0
2, 16439, Note_on_c, 0, 78, 0
2, 16440, Note_on_c, 0, 71, 76
2, 16463, Note_on_c, 0, 71, 0
2, 16464, Note_on_c, 0, 81, 74
2, 16464, Note_on_c, 0, 78, 74
2, 16487, Note_on_c, 0, 81, 0
2, 16487, Note_on_c, 0, 78, 0
2, 16488, Note_on_c, 0, 71, 72
2, 16511, Note_on_c, 0, 71, 0
2, 16512, Note_on_c, 0, 81, 70
2, 16512, Note_on_c, 0, 78, 70
2, 16777, Note_on_c, 0, 81, 0
2, 16777, Note_on_c, 0, 78, 0
2, 16896, Note_on_c, 0, 64, 78
2, 16919, Note_on_c, 0, 64, 0
2, 16920, Note_on_c, 0, 66, 78
2, 16928, Note_on_c, 0, 66, 0
2, 16928, Note_on_c, 0, 64, 78
2, 16936, Note_on_c, 0, 64, 0
2, 16936, Note_on_c, 0, 63, 78
2, 16944, Note_on_c, 0, 63, 0
2, 16944, Note_on_c, 0, 64, 78
2, 16967, Note_on_c, 0, 64, 0
2, 16968, Note_on_c, 0, 66, 78
2, 16991, Note_on_c, 0, 66, 0
2, 16992, Note_on_c, 0, 68, 78
2, 17037, Note_on_c, 0, 68, 0
2, 17040, Note_on_c, 0, 66, 78
2, 17085, Note_on_c, 0, 66, 0
2, 17088, Note_on_c, 0, 64, 78
2, 17133, Note_on_c, 0, 64, 0
2, 17136, Note_on_c, 0, 59, 78
2, 17181, Note_on_c, 0, 59, 0
2, 17184, Note_on_c, 0, 64, 78
2, 17229, Note_on_c, 0, 64, 0
2, 17232, Note_on_c, 0, 68, 78
2, 17277, Note_on_c, 0, 68, 0
2, 17280, Note_on_c, 0, 66, 78
2, 17303, Note_on_c, 0, 66, 0
2, 17304, Note_on_c, 0, 68, 78
2, 17312, Note_on_c, 0, 68, 0
2, 17312, Note_on_c, 0, 66, 78
2, 17320, Note_on_c, 0, 66, 0
2, 17320, Note_on_c, 0, 64, 78
2, 17328, Note_on_c, 0, 64, 0
2, 17328, Note_on_c, 0, 66, 78
2, 17351, Note_on_c, 0, 66, 0
2, 17352, Note_on_c, 0, 68, 78
2, 17375, Note_on_c, 0, 68, 0
2, 17376, Note_on_c, 0, 69, 78
2, 17421, Note_on_c, 0, 69, 0
2, 17424, Note_on_c, 0, 68, 78
2, 17469, Note_on_c, 0, 68, 0
2, 17472, Note_on_c, 0, 66, 78
2, 17517, Note_on_c, 0, 66, 0
2, 17520, Note_on_c, 0, 59, 78
2, 17565, Note_on_c, 0, 59, 0
2, 17568, Note_on_c, 0, 66, 78
2, 17613, Note_on_c, 0, 66, 0
2, 17616, Note_on_c, 0, 69, 78
2, 17661, Note_on_c, 0, 69, 0
2, 17664, Note_on_c, 0, 68, 78
2, 17687, Note_on_c, 0, 68, 0
2, 17688, Note_on_c, 0, 69, 78
2, 17696, Note_on_c, 0, 69, 0
2, 17696, Note_on_c, 0, 68, 78
2, 17704, Note_on_c, 0, 68, 0
2, 17704, Note_on_c, 0, 66, 78
2, 17712, Note_on_c, 0, 66, 0
2, 17712, Note_on_c, 0, 68, 78
2, 17735, Note_on_c, 0, 68, 0
2, 17736, Note_on_c, 0, 69, 78
2, 17759, Note_on_c, 0, 69, 0
2, 17760, Note_on_c, 0, 71, 78
2, 17805, Note_on_c, 0, 71, 0
2, 17808, Note_on_c, 0, 69, 78
2, 17853, Note_on_c, 0, 69, 0
2, 17856, Note_on_c, 0, 68, 78
2, 17901, Note_on_c, 0, 68, 0
2, 17904, Note_on_c, 0, 64, 78
2, 17949, Note_on_c, 0, 64, 0
2, 17952, Note_on_c, 0, 68, 78
2, 17997, Note_on_c, 0, 68, 0
2, 18000, Note_on_c, 0, 71, 78
2, 18045, Note_on_c, 0, 71, 0
2, 18048, Note_on_c, 0, 69, 78
2, 18093, Note_on_c, 0, 69, 0
2, 18096, Note_on_c, 0, 64, 78
2, 18141, Note_on_c, 0, 64, 0
2, 18144, Note_on_c, 0, 69, 78
2, 18189, Note_on_c, 0, 69, 0
2, 18192, Note_on_c, 0, 73, 78
2, 18237, Note_on_c, 0, 73, 0
2, 18240, Note_on_c, 0, 69, 78
2, 18285, Note_on_c, 0, 69, 0
2, 18288, Note_on_c, 0, 73, 78
2, 18333, Note_on_c, 0, 73, 0
2, 18336, Note_on_c, 0, 81, 78
2, 18381, Note_on_c, 0, 81, 0
2, 18384, Note_on_c, 0, 81, 80
2, 18429, Note_on_c, 0, 81, 0
2, 18432, Note_on_c, 0, 81, 99
2, 18456, Note_on_c, 0, 81, 0
2, 18456, Note_on_c, 0, 80, 85
2, 18479, Note_on_c, 0, 80, 0
2, 18480, Note_on_c, 0, 78, 85
2, 18503, Note_on_c, 0, 78, 0
2, 18504, Note_on_c, 0, 76, 85
2, 18527, Note_on_c, 0, 76, 0
2, 18528, Note_on_c, 0, 75, 85
2, 18551, Note_on_c, 0, 75, 0
2, 18552, Note_on_c, 0, 73, 85
2, 18575, Note_on_c, 0, 73, 0
2, 18576, Note_on_c, 0, 71, 85
2, 18599, Note_on_c, 0, 71, 0
2, 18600, Note_on_c, 0, 69, 85
2, 18623, Note_on_c, 0, 69, 0
2, 18624, Note_on_c, 0, 68, 85
2, 18648, Note_on_c, 0, 68, 0
2, 18648, Note_on_c, 0, 71, 84
2, 18672, Note_on_c, 0, 71, 0
2, 18672, Note_on_c, 0, 69, 83
2, 18696, Note_on_c, 0, 69, 0
2, 18696, Note_on_c, 0, 68, 82
2, 18720, Note_on_c, 0, 68, 0
2, 18720, Note_on_c, 0, 66, 81
2, 18744, Note_on_c, 0, 66, 0
2, 18744, Note_on_c, 0, 64, 80
2, 18768, Note_on_c, 0, 64, 0
2, 18768, Note_on_c, 0, 63, 79
2, 18792, Note_on_c, 0, 63, 0
2, 18792, Note_on_c, 0, 61, 78
2, 18815, Note_on_c, 0, 61, 0
2, 18816, Note_on_c, 0, 59, 78
2, 18861, Note_on_c, 0, 59, 0
2, 18864, Note_on_c, 0, 71, 70
2, 18909, Note_on_c, 0, 71, 0
2, 18912, Note_on_c, 0, 71, 70
2, 18957, Note_on_c, 0, 71, 0
2, 18960, Note_on_c, 0, 71, 70
2, 19005, Note_on_c, 0, 71, 0
2, 19008, Note_on_c, 0, 73, 70
2, 19014, Note_on_c, 0, 73, 0
2, 19014, Note_on_c, 0, 71, 70
2, 19020, Note_on_c, 0, 71, 0
2, 19020, Note_on_c, 0, 70, 70
2, 19026, Note_on_c, 0, 70, 0
2, 19026, Note_on_c, 0, 71, 70
2, 19097, Note_on_c, 0, 71, 0
2, 19248, Note_on_c, 0, 71, 70
2, 19293, Note_on_c, 0, 71, 0
2, 19296, Note_on_c, 0, 71, 70
2, 19341, Note_on_c, 0, 71, 0
2, 19344, Note_on_c, 0, 71, 70
2, 19389, Note_on_c, 0, 71, 0
2, 19392, Note_on_c, 0, 73, 70
2, 19398, Note_on_c, 0, 73, 0
2, 19398, Note_on_c, 0, 71, 70
2, 19404, Note_on_c, 0, 71, 0
2, 19404, Note_on_c, 0, 70, 70
2, 19410, Note_on_c, 0, 70, 0
2, 19410, Note_on_c, 0, 71, 70
2, 19481, Note_on_c, 0, 71, 0
2, 19632, Note_on_c, 0, 76, 70
2, 19677, Note_on_c, 0, 76, 0
2, 19680, Note_on_c, 0, 76, 70
2, 19725, Note_on_c, 0, 76, 0
2, 19728, Note_on_c, 0, 76, 70
2, 19773, Note_on_c, 0, 76, 0
2, 19776, Note_on_c, 0, 78, 70
2, 19782, Note_on_c, 0, 78, 0
2, 19782, Note_on_c, 0, 76, 70
2, 19788, Note_on_c, 0, 76, 0
2, 19788, Note_on_c, 0, 76, 70
2, 19794, Note_on_c, 0, 76, 0
2, 19794, Note_on_c, 0, 76, 86
2, 19824, Note_on_c, 0, 76, 0
2, 19824, Note_on_c, 0, 77, 70
2, 19824, Note_on_c, 0, 74, 70
2, 19844, Note_on_c, 0, 77, 0
2, 19844, Note_on_c, 0, 74, 0
2, 19872, Note_on_c, 0, 77, 73
2, 19872, Note_on_c, 0, 74, 73
2, 19892, Note_on_c, 0, 77, 0
2, 19892, Note_on_c, 0, 74, 0
2, 19920, Note_on_c, 0, 77, 76
2, 19920, Note_on_c, 0, 74, 76
2, 19940, Note_on_c, 0, 77, 0
2, 19940, Note_on_c, 0, 74, 0
2, 19968, Note_on_c, 0, 77, 79
2, 19968, Note_on_c, 0, 74, 79
2, 20064, Note_on_c, 0, 77, 0
2, 20064, Note_on_c, 0, 74, 0
2, 20064, Note_on_c, 0, 78, 63
2, 20064, Note_on_c, 0, 73, 63
2, 20084, Note_on_c, 0, 78, 0
2, 20084, Note_on_c, 0, 73, 0
2, 20112, Note_on_c, 0, 80, 63
2, 20112, Note_on_c, 0, 74, 63
2, 20132, Note_on_c, 0, 80, 0
2, 20132, Note_on_c, 0, 74, 0
2, 20160, Note_on_c, 0, 80, 85
2, 20160, Note_on_c, 0, 74, 85
2, 20256, Note_on_c, 0, 80, 0
2, 20256, Note_on_c, 0, 74, 0
2, 20256, Note_on_c, 0, 81, 63
2, 20256, Note_on_c, 0, 73, 63
2, 20276, Note_on_c, 0, 81, 0
2, 20276, Note_on_c, 0, 73, 0
2, 20304, Note_on_c, 0, 75, 63
2, 20304, Note_on_c, 0, 72, 63
2, 20324, Note_on_c, 0, 75, 0
2, 20324, Note_on_c, 0, 72, 0
2, 20352, Note_on_c, 0, 75, 85
2, 20352, Note_on_c, 0, 72, 85
2, 20448, Note_on_c, 0, 75, 0
2, 20448, Note_on_c, 0, 72, 0
2, 20448, Note_on_c, 0, 76, 63
2, 20448, Note_on_c, 0, 71, 63
2, 20468, Note_on_c, 0, 76, 0
2, 20468, Note_on_c, 0, 71, 0
2, 20496, Note_on_c, 0, 78, 63
2, 20496, Note_on_c, 0, 72, 63
2, 20516, Note_on_c, 0, 78, 0
2, 20516, Note_on_c, 0, 72, 0
2, 20544, Note_on_c, 0, 78, 85
2, 20544, Note_on_c, 0, 72, 85
2, 20640, Note_on_c, 0, 78, 0
2, 20640, Note_on_c, 0, 72, 0
2, 20640, Note_on_c, 0, 80, 63
2, 20640, Note_on_c, 0, 71, 63
2, 20660, Note_on_c, 0, 80, 0
2, 20660, Note_on_c, 0, 71, 0
2, 20688, Note_on_c, 0, 83, 85
2, 20688, Note_on_c, 0, 71, 85
2, 20708, Note_on_c, 0, 83, 0
2, 20708, Note_on_c, 0, 71, 0
2, 20736, Note_on_c, 0, 83, 101
2, 20736, Note_on_c, 0, 71, 101
2, 20832, Note_on_c, 0, 83, 0
2, 20832, Note_on_c, 0, 71, 0
2, 20832, Note_on_c, 0, 82, 85
2, 20832, Note_on_c, 0, 70, 85
2, 20877, Note_on_c, 0, 82, 0
2, 20877, Note_on_c, 0, 70, 0
2, 20880, Note_on_c, 0, 83, 85
2, 20880, Note_on_c, 0, 71, 85
2, 20925, Note_on_c, 0, 83, 0
2, 20925, Note_on_c, 0, 71, 0
2, 20928, Note_on_c, 0, 84, 101
2, 20928, Note_on_c, 0, 72, 101
2, 21024, Note_on_c, 0, 84, 0
2, 21024, Note_on_c, 0, 72, 0
2, 21024, Note_on_c, 0, 85, 85
2, 21024, Note_on_c, 0, 73, 85
2, 21069, Note_on_c, 0, 85, 0
2, 21069, Note_on_c, 0, 73, 0
2, 21072, Note_on_c, 0, 83, 85
2, 21072, Note_on_c, 0, 71, 85
2, 21092, Note_on_c, 0, 83, 0
2, 21092, Note_on_c, 0, 71, 0
2, 21120, Note_on_c, 0, 83, 101
2, 21120, Note_on_c, 0, 71, 101
2, 21168, Note_on_c, 0, 83, 0
2, 21168, Note_on_c, 0, 71, 0
2, 21168, Note_on_c, 0, 81, 85
2, 21168, Note_on_c, 0, 69, 85
2, 21191, Note_on_c, 0, 81, 0
2, 21191, Note_on_c, 0, 69, 0
2, 21216, Note_on_c, 0, 81, 85
2, 21216, Note_on_c, 0, 69, 85
2, 21264, Note_on_c, 0, 81, 0
2, 21264, Note_on_c, 0, 69, 0
2, 21264, Note_on_c, 0, 80, 85
2, 21264, Note_on_c, 0, 68, 85
2, 21287, Note_on_c, 0, 80, 0
2, 21287, Note_on_c, 0, 68, 0
2, 21312, Note_on_c, 0, 80, 85
2, 21312, Note_on_c, 0, 68, 85
2, 21360, Note_on_c, 0, 80, 0
2, 21360, Note_on_c, 0, 68, 0
2, 21360, Note_on_c, 0, 78, 85
2, 21360, Note_on_c, 0, 66, 85
2, 21383, Note_on_c, 0, 78, 0
2, 21383, Note_on_c, 0, 66, 0
2, 21408, Note_on_c, 0, 81, 70
2, 21453, Note_on_c, 0, 81, 0
2, 21456, Note_on_c, 0, 75, 70
2, 21501, Note_on_c, 0, 75, 0
2, 21504, Note_on_c, 0, 75, 70
2, 21593, Note_on_c, 0, 75, 0
2, 21600, Note_on_c, 0, 78, 70
2, 21667, Note_on_c, 0, 78, 0
2, 21672, Note_on_c, 0, 76, 70
2, 21695, Note_on_c, 0, 76, 0
2, 21696, Note_on_c, 0, 76, 70
2, 21829, Note_on_c, 0, 76, 0
2, 21840, Note_on_c, 0, 76, 70
2, 21852, Note_on_c, 0, 76, 0
2, 21852, Note_on_c, 0, 75, 72
2, 21864, Note_on_c, 0, 75, 0
2, 21864, Note_on_c, 0, 73, 74
2, 21876, Note_on_c, 0, 73, 0
2, 21876, Note_on_c, 0, 71, 76
2, 21888, Note_on_c, 0, 71, 0
2, 21888, Note_on_c, 0, 70, 85
2, 21977, Note_on_c, 0, 70, 0
2, 21984, Note_on_c, 0, 76, 85
2, 21996, Note_on_c, 0, 76, 0
2, 21996, Note_on_c, 0, 88, 85
2, 22029, Note_on_c, 0, 88, 0
2, 22032, Note_on_c, 0, 73, 85
2, 22044, Note_on_c, 0, 73, 0
2, 22044, Note_on_c, 0, 85, 85
2, 22077, Note_on_c, 0, 85, 0
2, 22080, Note_on_c, 0, 70, 85
2, 22092, Note_on_c, 0, 70, 0
2, 22092, Note_on_c, 0, 82, 85
2, 22125, Note_on_c, 0, 82, 0
2, 22128, Note_on_c, 0, 67, 85
2, 22140, Note_on_c, 0, 67, 0
2, 22140, Note_on_c, 0, 79, 85
2, 22173, Note_on_c, 0, 79, 0
2, 22176, Note_on_c, 0, 64, 85
2, 22188, Note_on_c, 0, 64, 0
2, 22188, Note_on_c, 0, 76, 85
2, 22221, Note_on_c, 0, 76, 0
2, 22224, Note_on_c, 0, 61, 85
2, 22236, Note_on_c, 0, 61, 0
2, 22236, Note_on_c, 0, 73, 85
2, 22269, Note_on_c, 0, 73, 0
2, 22272, Note_on_c, 0, 70, 106
2, 22272, Note_on_c, 0, 58, 106
2, 22464, Note_on_c, 0, 70, 0
2, 22464, Note_on_c, 0, 58, 0
2, 22464, Note_on_c, 0, 69, 85
2, 22464, Note_on_c, 0, 57, 85
2, 22641, Note_on_c, 0, 69, 0
2, 22641, Note_on_c, 0, 57, 0
2, 22656, Note_on_c, 0, 56, 78
2, 22679, Note_on_c, 0, 56, 0
2, 22680, Note_on_c, 0, 68, 78
2, 22703, Note_on_c, 0, 68, 0
2, 22704, Note_on_c, 0, 59, 78
2, 22727, Note_on_c, 0, 59, 0
2, 22728, Note_on_c, 0, 71, 78
2, 22751, Note_on_c, 0, 71, 0
2, 22752, Note_on_c, 0, 69, 78
2, 22775, Note_on_c, 0, 69, 0
2, 22776, Note_on_c, 0, 68, 78
2, 22799, Note_on_c, 0, 68, 0
2, 22800, Note_on_c, 0, 66, 78
2, 22823, Note_on_c, 0, 66, 0
2, 22824, Note_on_c, 0, 64, 78
2, 22847, Note_on_c, 0, 64, 0
2, 22848, Note_on_c, 0, 61, 78
2, 22871, Note_on_c, 0, 61, 0
2, 22872, Note_on_c, 0, 73, 78
2, 22895, Note_on_c, 0, 73, 0
2, 22896, Note_on_c, 0, 64, 78
2, 22919, Note_on_c, 0, 64, 0
2, 22920, Note_on_c, 0, 76, 78
2, 22943, Note_on_c, 0, 76, 0
2, 22944, Note_on_c, 0, 75, 78
2, 22967, Note_on_c, 0, 75, 0
2, 22968, Note_on_c, 0, 73, 78
2, 22991, Note_on_c, 0, 73, 0
2, 22992, Note_on_c, 0, 71, 78
2, 23015, Note_on_c, 0, 71, 0
2, 23016, Note_on_c, 0, 69, 78
2, 23039, Note_on_c, 0, 69, 0
2, 23040, Note_on_c, 0, 68, 78
2, 23129, Note_on_c, 0, 68, 0
2, 23136, Note_on_c, 0, 71, 78
2, 23159, Note_on_c, 0, 71, 0
2, 23160, Note_on_c, 0, 69, 78
2, 23183, Note_on_c, 0, 69, 0
2, 23184, Note_on_c, 0, 68, 78
2, 23207, Note_on_c, 0, 68, 0
2, 23208, Note_on_c, 0, 66, 78
2, 23231, Note_on_c, 0, 66, 0
2, 23232, Note_on_c, 0, 68, 78
2, 23255, Note_on_c, 0, 68, 0
2, 23256, Note_on_c, 0, 80, 78
2, 23279, Note_on_c, 0, 80, 0
2, 23280, Note_on_c, 0, 71, 78
2, 23303, Note_on_c, 0, 71, 0
2, 23304, Note_on_c, 0, 83, 78
2, 23327, Note_on_c, 0, 83, 0
2, 23328, Note_on_c, 0, 81, 78
2, 23351, Note_on_c, 0, 81, 0
2, 23352, Note_on_c, 0, 80, 78
2, 23375, Note_on_c, 0, 80, 0
2, 23376, Note_on_c, 0, 78, 78
2, 23399, Note_on_c, 0, 78, 0
2, 23400, Note_on_c, 0, 76, 78
2, 23423, Note_on_c, 0, 76, 0
2, 23424, Note_on_c, 0, 73, 78
2, 23447, Note_on_c, 0, 73, 0
2, 23448, Note_on_c, 0, 85, 78
2, 23471, Note_on_c, 0, 85, 0
2, 23472, Note_on_c, 0, 76, 78
2, 23495, Note_on_c, 0, 76, 0
2, 23496, Note_on_c, 0, 88, 78
2, 23519, Note_on_c, 0, 88, 0
2, 23568, Note_on_c, 0, 85, 78
2, 23580, Note_on_c, 0, 85, 0
2, 23580, Note_on_c, 0, 84, 78
2, 23592, Note_on_c, 0, 84, 0
2, 23592, Note_on_c, 0, 85, 78
2, 23604, Note_on_c, 0, 85, 0
2, 23604, Note_on_c, 0, 87, 78
2, 23616, Note_on_c, 0, 87, 0
2, 23616, Note_on_c, 0, 88, 78
2, 23636, Note_on_c, 0, 88, 0
2, 23664, Note_on_c, 0, 81, 78
2, 23684, Note_on_c, 0, 81, 0
2, 23712, Note_on_c, 0, 85, 78
2, 23732, Note_on_c, 0, 85, 0
2, 23760, Note_on_c, 0, 78, 78
2, 23780, Note_on_c, 0, 78, 0
2, 23808, Note_on_c, 0, 71, 78
2, 23814, Note_on_c, 0, 71, 0
2, 23814, Note_on_c, 0, 75, 78
2, 23820, Note_on_c, 0, 75, 0
2, 23820, Note_on_c, 0, 78, 78
2, 23826, Note_on_c, 0, 78, 0
2, 23826, Note_on_c, 0, 80, 78
2, 23832, Note_on_c, 0, 80, 0
2, 23832, Note_on_c, 0, 81, 78
2, 23847, Note_on_c, 0, 81, 0
2, 23904, Note_on_c, 0, 73, 78
2, 23910, Note_on_c, 0, 73, 0
2, 23910, Note_on_c, 0, 75, 78
2, 23916, Note_on_c, 0, 75, 0
2, 23916, Note_on_c, 0, 76, 78
2, 23922, Note_on_c, 0, 76, 0
2, 23922, Note_on_c, 0, 80, 78
2, 23943, Note_on_c, 0, 80, 0
2, 24000, Note_on_c, 0, 69, 78
2, 24006, Note_on_c, 0, 69, 0
2, 24006, Note_on_c, 0, 73, 78
2, 24012, Note_on_c, 0, 73, 0
2, 24012, Note_on_c, 0, 77, 78
2, 24018, Note_on_c, 0, 77, 0
2, 24018, Note_on_c, 0, 78, 78
2, 24039, Note_on_c, 0, 78, 0
2, 24144, Note_on_c, 0, 75, 78
2, 24178, Note_on_c, 0, 75, 0
2, 24180, Note_on_c, 0, 71, 78
2, 24192, Note_on_c, 0, 71, 0
2, 24192, Note_on_c, 0, 76, 78
2, 24212, Note_on_c, 0, 76, 0
2, 24240, Note_on_c, 0, 83, 78
2, 24240, Note_on_c, 0, 80, 78
2, 24288, Note_on_c, 0, 83, 0
2, 24288, Note_on_c, 0, 76, 78
2, 24333, Note_on_c, 0, 80, 0
2, 24333, Note_on_c, 0, 76, 0
2, 24336, Note_on_c, 0, 75, 78
2, 24370, Note_on_c, 0, 75, 0
2, 24372, Note_on_c, 0, 71, 78
2, 24384, Note_on_c, 0, 71, 0
2, 24384, Note_on_c, 0, 76, 78
2, 24404, Note_on_c, 0, 76, 0
2, 24432, Note_on_c, 0, 78, 78
2, 24432, Note_on_c, 0, 75, 78
2, 24480, Note_on_c, 0, 78, 0
2, 24480, Note_on_c, 0, 75, 0
2, 24480, Note_on_c, 0, 80, 78
2, 24480, Note_on_c, 0, 76, 78
2, 24525, Note_on_c, 0, 80, 0
2, 24525, Note_on_c, 0, 76, 0
2, 24528, Note_on_c, 0, 75, 70
2, 24562, Note_on_c, 0, 75, 0
2, 24564, Note_on_c, 0, 71, 70
2, 24576, Note_on_c, 0, 71, 0
2, 24576, Note_on_c, 0, 76, 70
2, 24596, Note_on_c, 0, 76, 0
2, 24624, Note_on_c, 0, 83, 70
2, 24624, Note_on_c, 0, 80, 70
2, 24672, Note_on_c, 0, 83, 0
2, 24672, Note_on_c, 0, 76, 70
2, 24717, Note_on_c, 0, 80, 0
2, 24717, Note_on_c, 0, 76, 0
2, 24720, Note_on_c, 0, 75, 70
2, 24754, Note_on_c, 0, 75, 0
2, 24756, Note_on_c, 0, 71, 70
2, 24768, Note_on_c, 0, 71, 0
2, 24768, Note_on_c, 0, 76, 70
2, 24788, Note_on_c, 0, 76, 0
2, 24816, Note_on_c, 0, 78, 70
2, 24816, Note_on_c, 0, 75, 70
2, 24864, Note_on_c, 0, 78, 0
2, 24864, Note_on_c, 0, 75, 0
2, 24864, Note_on_c, 0, 80, 70
2, 24864, Note_on_c, 0, 76, 70
2, 24909, Note_on_c, 0, 80, 0
2, 24909, Note_on_c, 0, 76, 0
2, 24912, Note_on_c, 0, 75, 63
2, 24946, Note_on_c, 0, 75, 0
2, 24948, Note_on_c, 0, 71, 63
2, 24960, Note_on_c, 0, 71, 0
2, 24960, Note_on_c, 0, 76, 63
2, 24980, Note_on_c, 0, 76, 0
2, 25056, Note_on_c, 0, 87, 55
2, 25056, Note_on_c, 0, 78, 55
2, 25076, Note_on_c, 0, 87, 0
2, 25076, Note_on_c, 0, 78, 0
2, 25152, Note_on_c, 0, 88, 55
2, 25152, Note_on_c, 0, 80, 55
2, 25191, Note_on_c, 0, 88, 0
2, 25191, Note_on_c, 0, 80, 0
2, 25344, Note_on_c, 0, 76, 78
2, 25367, Note_on_c, 0, 76, 0
2, 25368, Note_on_c, 0, 78, 78
2, 25376, Note_on_c, 0, 78, 0
2, 25376, Note_on_c, 0, 76, 78
2, 25384, Note_on_c, 0, 76, 0
2, 25384, Note_on_c, 0, 75, 78
2, 25392, Note_on_c, 0, 75, 0
2, 25392, Note_on_c, 0, 76, 78
2, 25415, Note_on_c, 0, 76, 0
2, 25416, Note_on_c, 0, 78, 78
2, 25439, Note_on_c, 0, 78, 0
2, 25440, Note_on_c, 0, 80, 78
2, 25485, Note_on_c, 0, 80, 0
2, 25488, Note_on_c, 0, 78, 78
2, 25533, Note_on_c, 0, 78, 0
2, 25536, Note_on_c, 0, 76, 78
2, 25581, Note_on_c, 0, 76, 0
2, 25584, Note_on_c, 0, 71, 78
2, 25629, Note_on_c, 0, 71, 0
2, 25632, Note_on_c, 0, 76, 78
2, 25677, Note_on_c, 0, 76, 0
2, 25680, Note_on_c, 0, 80, 78
2, 25725, Note_on_c, 0, 80, 0
2, 25728, Note_on_c, 0, 78, 78
2, 25751, Note_on_c, 0, 78, 0
2, 25752, Note_on_c, 0, 80, 78
2, 25760, Note_on_c, 0, 80, 0
2, 25760, Note_on_c, 0, 78, 78
2, 25768, Note_on_c, 0, 78, 0
2, 25768, Note_on_c, 0, 76, 78
2, 25776, Note_on_c, 0, 76, 0
2, 25776, Note_on_c, 0, 78, 78
2, 25799, Note_on_c, 0, 78, 0
2, 25800, Note_on_c, 0, 80, 78
2, 25823, Note_on_c, 0, 80, 0
2, 25824, Note_on_c, 0, 81, 78
2, 25869, Note_on_c, 0, 81, 0
2, 25872, Note_on_c, 0, 80, 78
2, 25917, Note_on_c, 0, 80, 0
2, 25920, Note_on_c, 0, 78, 78
2, 25965, Note_on_c, 0, 78, 0
2, 25968, Note_on_c, 0, 71, 78
2, 26013, Note_on_c, 0, 71, 0
2, 26016, Note_on_c, 0, 78, 78
2, 26061, Note_on_c, 0, 78, 0
2, 26064, Note_on_c, 0, 81, 78
2, 26109, Note_on_c, 0, 81, 0
2, 26112, Note_on_c, 0, 80, 78
2, 26135, Note_on_c, 0, 80, 0
2, 26136, Note_on_c, 0, 81, 78
2, 26144, Note_on_c, 0, 81, 0
2, 26144, Note_on_c, 0, 80, 78
2, 26152, Note_on_c, 0, 80, 0
2, 26152, Note_on_c, 0, 78, 78
2, 26160, Note_on_c, 0, 78, 0
2, 26160, Note_on_c, 0, 80, 78
2, 26183, Note_on_c, 0, 80, 0
2, 26184, Note_on_c, 0, 81, 78
2, 26207, Note_on_c, 0, 81, 0
2, 26208, Note_on_c, 0, 83, 78
2, 26231, Note_on_c, 0, 83, 0
2, 26232, Note_on_c, 0, 81, 78
2, 26255, Note_on_c, 0, 81, 0
2, 26256, Note_on_c, 0, 80, 78
2, 26279, Note_on_c, 0, 80, 0
2, 26280, Note_on_c, 0, 78, 78
2, 26303, Note_on_c, 0, 78, 0
2, 26304, Note_on_c, 0, 77, 78
2, 26327, Note_on_c, 0, 77, 0
2, 26328, Note_on_c, 0, 80, 79
2, 26351, Note_on_c, 0, 80, 0
2, 26352, Note_on_c, 0, 83, 81
2, 26375, Note_on_c, 0, 83, 0
2, 26376, Note_on_c, 0, 86, 83
2, 26399, Note_on_c, 0, 86, 0
2, 26400, Note_on_c, 0, 85, 85
2, 26423, Note_on_c, 0, 85, 0
2, 26424, Note_on_c, 0, 83, 83
2, 26447, Note_on_c, 0, 83, 0
2, 26448, Note_on_c, 0, 81, 81
2, 26471, Note_on_c, 0, 81, 0
2, 26472, Note_on_c, 0, 80, 79
2, 26495, Note_on_c, 0, 80, 0
2, 26496, Note_on_c, 0, 78, 78
2, 26519, Note_on_c, 0, 78, 0
2, 26520, Note_on_c, 0, 80, 78
2, 26528, Note_on_c, 0, 80, 0
2, 26528, Note_on_c, 0, 78, 78
2, 26536, Note_on_c, 0, 78, 0
2, 26536, Note_on_c, 0, 77, 78
2, 26544, Note_on_c, 0, 77, 0
2, 26544, Note_on_c, 0, 78, 78
2, 26567, Note_on_c, 0, 78, 0
2, 26568, Note_on_c, 0, 80, 78
2, 26591, Note_on_c, 0, 80, 0
2, 26592, Note_on_c, 0, 81, 78
2, 26637, Note_on_c, 0, 81, 0
2, 26640, Note_on_c, 0, 80, 78
2, 26685, Note_on_c, 0, 80, 0
2, 26688, Note_on_c, 0, 78, 78
2, 26708, Note_on_c, 0, 78, 0
2, 26736, Note_on_c, 0, 73, 78
2, 26756, Note_on_c, 0, 73, 0
2, 26784, Note_on_c, 0, 78, 78
2, 26804, Note_on_c, 0, 78, 0
2, 26832, Note_on_c, 0, 81, 78
2, 26852, Note_on_c, 0, 81, 0
2, 26880, Note_on_c, 0, 78, 78
2, 26925, Note_on_c, 0, 78, 0
2, 26928, Note_on_c, 0, 85, 70
2, 26973, Note_on_c, 0, 85, 0
2, 26976, Note_on_c, 0, 85, 70
2, 27021, Note_on_c, 0, 85, 0
2, 27024, Note_on_c, 0, 85, 70
2, 27069, Note_on_c, 0, 85, 0
2, 27072, Note_on_c, 0, 87, 70
2, 27078, Note_on_c, 0, 87, 0
2, 27078, Note_on_c, 0, 85, 70
2, 27084, Note_on_c, 0, 85, 0
2, 27084, Note_on_c, 0, 84, 70
2, 27090, Note_on_c, 0, 84, 0
2, 27090, Note_on_c, 0, 85, 70
2, 27161, Note_on_c, 0, 85, 0
2, 27312, Note_on_c, 0, 85, 70
2, 27357, Note_on_c, 0, 85, 0
2, 27360, Note_on_c, 0, 85, 70
2, 27405, Note_on_c, 0, 85, 0
2, 27408, Note_on_c, 0, 85, 70
2, 27453, Note_on_c, 0, 85, 0
2, 27456, Note_on_c, 0, 87, 70
2, 27462, Note_on_c, 0, 87, 0
2, 27462, Note_on_c, 0, 85, 70
2, 27468, Note_on_c, 0, 85, 0
2, 27468, Note_on_c, 0, 84, 70
2, 27474, Note_on_c, 0, 84, 0
2, 27474, Note_on_c, 0, 85, 70
2, 27545, Note_on_c, 0, 85, 0
2, 27696, Note_on_c, 0, 78, 70
2, 27741, Note_on_c, 0, 78, 0
2, 27744, Note_on_c, 0, 78, 70
2, 27789, Note_on_c, 0, 78, 0
2, 27792, Note_on_c, 0, 78, 70
2, 27837, Note_on_c, 0, 78, 0
2, 27840, Note_on_c, 0, 80, 70
2, 27846, Note_on_c, 0, 80, 0
2, 27846, Note_on_c, 0, 78, 70
2, 27852, Note_on_c, 0, 78, 0
2, 27852, Note_on_c, 0, 77, 70
2, 27858, Note_on_c, 0, 77, 0
2, 27858, Note_on_c, 0, 78, 86
2, 27888, Note_on_c, 0, 78, 0
2, 27888, Note_on_c, 0, 81, 85
2, 27888, Note_on_c, 0, 73, 85
2, 27888, Note_on_c, 0, 69, 85
2, 27933, Note_on_c, 0, 81, 0
2, 27933, Note_on_c, 0, 73, 0
2, 27933, Note_on_c, 0, 69, 0
2, 27936, Note_on_c, 0, 81, 85
2, 27936, Note_on_c, 0, 73, 85
2, 27936, Note_on_c, 0, 69, 85
2, 27981, Note_on_c, 0, 81, 0
2, 27981, Note_on_c, 0, 73, 0
2, 27981, Note_on_c, 0, 69, 0
2, 27984, Note_on_c, 0, 81, 85
2, 27984, Note_on_c, 0, 73, 85
2, 27984, Note_on_c, 0, 69, 85
2, 28029, Note_on_c, 0, 81, 0
2, 28029, Note_on_c, 0, 73, 0
2, 28029, Note_on_c, 0, 69, 0
2, 28032, Control_c, 0, 64, 127
2, 28032, Note_on_c, 0, 81, 85
2, 28077, Note_on_c, 0, 81, 0
2, 28080, Note_on_c, 0, 79, 85
2, 28125, Note_on_c, 0, 79, 0
2, 28128, Note_on_c, 0, 79, 85
2, 28173, Note_on_c, 0, 79, 0
2, 28176, Note_on_c, 0, 79, 85
2, 28221, Note_on_c, 0, 79, 0
2, 28224, Note_on_c, 0, 79, 85
2, 28313, Note_on_c, 0, 79, 0
2, 28320, Control_c, 0, 64, 0
2, 28464, Note_on_c, 0, 79, 63
2, 28509, Note_on_c, 0, 79, 0
2, 28512, Note_on_c, 0, 79, 63
2, 28557, Note_on_c, 0, 79, 0
2, 28560, Note_on_c, 0, 79, 63
2, 28605, Note_on_c, 0, 79, 0
2, 28608, Note_on_c, 0, 79, 63
2, 28653, Note_on_c, 0, 79, 0
2, 28656, Note_on_c, 0, 79, 85
2, 28701, Note_on_c, 0, 79, 0
2, 28704, Note_on_c, 0, 79, 85
2, 28749, Note_on_c, 0, 79, 0
2, 28752, Note_on_c, 0, 79, 85
2, 28797, Note_on_c, 0, 79, 0
2, 28800, Control_c, 0, 64, 127
2, 28800, Note_on_c, 0, 80, 85
2, 28845, Note_on_c, 0, 80, 0
2, 28848, Note_on_c, 0, 80, 85
2, 28893, Note_on_c, 0, 80, 0
2, 28896, Note_on_c, 0, 80, 85
2, 28941, Note_on_c, 0, 80, 0
2, 28944, Note_on_c, 0, 80, 85
2, 28989, Note_on_c, 0, 80, 0
2, 28992, Note_on_c, 0, 80, 85
2, 29081, Note_on_c, 0, 80, 0
2, 29184, Control_c, 0, 64, 0
2, 29184, Note_on_c, 0, 56, 78
2, 29229, Note_on_c, 0, 56, 0
2, 29232, Note_on_c, 0, 56, 78
2, 29244, Note_on_c, 0, 56, 0
2, 29244, Note_on_c, 0, 55, 78
2, 29256, Note_on_c, 0, 55, 0
2, 29256, Note_on_c, 0, 56, 78
2, 29268, Note_on_c, 0, 56, 0
2, 29268, Note_on_c, 0, 58, 78
2, 29280, Note_on_c, 0, 58, 0
2, 29280, Note_on_c, 0, 59, 78
2, 29325, Note_on_c, 0, 59, 0
2, 29328, Note_on_c, 0, 58, 78
2, 29373, Note_on_c, 0, 58, 0
2, 29376, Note_on_c, 0, 56, 78
2, 29396, Note_on_c, 0, 56, 0
2, 29424, Note_on_c, 0, 51, 78
2, 29444, Note_on_c, 0, 51, 0
2, 29472, Note_on_c, 0, 56, 78
2, 29492, Note_on_c, 0, 56, 0
2, 29520, Note_on_c, 0, 59, 78
2, 29540, Note_on_c, 0, 59, 0
2, 29568, Note_on_c, 0, 56, 78
2, 29613, Note_on_c, 0, 56, 0
2, 29616, Note_on_c, 0, 63, 70
2, 29661, Note_on_c, 0, 63, 0
2, 29664, Note_on_c, 0, 63, 70
2, 29709, Note_on_c, 0, 63, 0
2, 29712, Note_on_c, 0, 63, 70
2, 29757, Note_on_c, 0, 63, 0
2, 29760, Note_on_c, 0, 64, 70
2, 29766, Note_on_c, 0, 64, 0
2, 29766, Note_on_c, 0, 63, 70
2, 29772, Note_on_c, 0, 63, 0
2, 29772, Note_on_c, 0, 62, 70
2, 29778, Note_on_c, 0, 62, 0
2, 29778, Note_on_c, 0, 63, 70
2, 29849, Note_on_c, 0, 63, 0
2, 30000, Note_on_c, 0, 63, 70
2, 30045, Note_on_c, 0, 63, 0
2, 30048, Note_on_c, 0, 63, 70
2, 30093, Note_on_c, 0, 63, 0
2, 30096, Note_on_c, 0, 63, 70
2, 30141, Note_on_c, 0, 63, 0
2, 30144, Note_on_c, 0, 64, 70
2, 30150, Note_on_c, 0, 64, 0
2, 30150, Note_on_c, 0, 63, 70
2, 30156, Note_on_c, 0, 63, 0
2, 30156, Note_on_c, 0, 62, 70
2, 30162, Note_on_c, 0, 62, 0
2, 30162, Note_on_c, 0, 63, 70
2, 30233, Note_on_c, 0, 63, 0
2, 30384, Note_on_c, 0, 68, 70
2, 30429, Note_on_c, 0, 68, 0
2, 30432, Note_on_c, 0, 68, 70
2, 30477, Note_on_c, 0, 68, 0
2, 30480, Note_on_c, 0, 68, 70
2, 30525, Note_on_c, 0, 68, 0
2, 30528, Note_on_c, 0, 69, 70
2, 30534, Note_on_c, 0, 69, 0
2, 30534, Note_on_c, 0, 68, 70
2, 30540, Note_on_c, 0, 68, 0
2, 30540, Note_on_c, 0, 67, 70
2, 30546, Note_on_c, 0, 67, 0
2, 30546, Note_on_c, 0, 68, 86
2, 30576, Note_on_c, 0, 68, 0
2, 30576, Note_on_c, 0, 71, 70
2, 30621, Note_on_c, 0, 71, 0
2, 30624, Note_on_c, 0, 71, 70
2, 30669, Note_on_c, 0, 71, 0
2, 30672, Note_on_c, 0, 71, 70
2, 30717, Note_on_c, 0, 71, 0
2, 30720, Note_on_c, 0, 71, 86
2, 30816, Note_on_c, 0, 71, 0
2, 30816, Note_on_c, 0, 70, 70
2, 30836, Note_on_c, 0, 70, 0
2, 30864, Note_on_c, 0, 76, 71
2, 30884, Note_on_c, 0, 76, 0
2, 30912, Note_on_c, 0, 68, 87
2, 31008, Note_on_c, 0, 68, 0
2, 31008, Note_on_c, 0, 67, 72
2, 31028, Note_on_c, 0, 67, 0
2, 31056, Note_on_c, 0, 73, 72
2, 31076, Note_on_c, 0, 73, 0
2, 31104, Note_on_c, 0, 73, 88
2, 31200, Note_on_c, 0, 73, 0
2, 31200, Note_on_c, 0, 72, 73
2, 31220, Note_on_c, 0, 72, 0
2, 31248, Note_on_c, 0, 78, 73
2, 31268, Note_on_c, 0, 78, 0
2, 31296, Note_on_c, 0, 66, 90
2, 31392, Note_on_c, 0, 66, 0
2, 31392, Note_on_c, 0, 65, 74
2, 31412, Note_on_c, 0, 65, 0
2, 31440, Note_on_c, 0, 71, 75
2, 31460, Note_on_c, 0, 71, 0
2, 31488, Note_on_c, 0, 71, 91
2, 31584, Note_on_c, 0, 71, 0
2, 31584, Note_on_c, 0, 70, 76
2, 31604, Note_on_c, 0, 70, 0
2, 31632, Note_on_c, 0, 76, 76
2, 31652, Note_on_c, 0, 76, 0
2, 31680, Note_on_c, 0, 64, 92
2, 31776, Note_on_c, 0, 64, 0
2, 31776, Note_on_c, 0, 63, 77
2, 31796, Note_on_c, 0, 63, 0
2, 31824, Note_on_c, 0, 69, 77
2, 31844, Note_on_c, 0, 69, 0
2, 31872, Note_on_c, 0, 64, 78
2, 31895, Note_on_c, 0, 64, 0
2, 31896, Control_c, 0, 64, 127
2, 31896, Note_on_c, 0, 76, 78
2, 31919, Note_on_c, 0, 76, 0
2, 31920, Note_on_c, 0, 68, 78
2, 31943, Note_on_c, 0, 68, 0
2, 31944, Note_on_c, 0, 76, 78
2, 31967, Note_on_c, 0, 76, 0
2, 31968, Note_on_c, 0, 71, 78
2, 31991, Note_on_c, 0, 71, 0
2, 31992, Note_on_c, 0, 76, 78
2, 32015, Note_on_c, 0, 76, 0
2, 32016, Note_on_c, 0, 68, 78
2, 32039, Note_on_c, 0, 68, 0
2, 32040, Note_on_c, 0, 76, 78
2, 32063, Note_on_c, 0, 76, 0
2, 32064, Note_on_c, 0, 64, 78
2, 32087, Note_on_c, 0, 64, 0
2, 32088, Note_on_c, 0, 76, 78
2, 32111, Note_on_c, 0, 76, 0
2, 32112, Note_on_c, 0, 68, 78
2, 32135, Note_on_c, 0, 68, 0
2, 32136, Note_on_c, 0, 76, 78
2, 32159, Note_on_c, 0, 76, 0
2, 32160, Note_on_c, 0, 71, 78
2, 32183, Note_on_c, 0, 71, 0
2, 32184, Note_on_c, 0, 76, 78
2, 32207, Note_on_c, 0, 76, 0
2, 32208, Note_on_c, 0, 68, 78
2, 32231, Note_on_c, 0, 68, 0
2, 32232, Control_c, 0, 64, 0
2, 32232, Note_on_c, 0, 76, 78
2, 32255, Note_on_c, 0, 76, 0
2, 32256, Control_c, 0, 64, 127
2, 32256, Note_on_c, 0, 65, 78
2, 32279, Note_on_c, 0, 65, 0
2, 32280, Note_on_c, 0, 74, 78
2, 32303, Note_on_c, 0, 74, 0
2, 32304, Note_on_c, 0, 68, 79
2, 32327, Note_on_c, 0, 68, 0
2, 32328, Note_on_c, 0, 74, 79
2, 32351, Note_on_c, 0, 74, 0
2, 32352, Note_on_c, 0, 71, 79
2, 32375, Note_on_c, 0, 71, 0
2, 32376, Note_on_c, 0, 74, 79
2, 32399, Note_on_c, 0, 74, 0
2, 32400, Note_on_c, 0, 68, 79
2, 32423, Note_on_c, 0, 68, 0
2, 32424, Note_on_c, 0, 74, 79
2, 32447, Note_on_c, 0, 74, 0
2, 32448, Note_on_c, 0, 65, 79
2, 32471, Note_on_c, 0, 65, 0
2, 32472, Note_on_c, 0, 74, 79
2, 32495, Note_on_c, 0, 74, 0
2, 32496, Note_on_c, 0, 68, 79
2, 32519, Note_on_c, 0, 68, 0
2, 32520, Note_on_c, 0, 74, 79
2, 32543, Note_on_c, 0, 74, 0
2, 32544, Note_on_c, 0, 71, 79
2, 32567, Note_on_c, 0, 71, 0
2, 32568, Note_on_c, 0, 74, 79
2, 32591, Note_on_c, 0, 74, 0
2, 32592, Note_on_c, 0, 68, 79
2, 32615, Note_on_c, 0, 68, 0
2, 32616, Control_c, 0, 64, 0
2, 32616, Note_on_c, 0, 74, 79
2, 32639, Note_on_c, 0, 74, 0
2, 32640, Control_c, 0, 64, 127
2, 32640, Note_on_c, 0, 66, 79
2, 32663, Note_on_c, 0, 66, 0
2, 32664, Note_on_c, 0, 78, 79
2, 32687, Note_on_c, 0, 78, 0
2, 32688, Note_on_c, 0, 69, 80
2, 32711, Note_on_c, 0, 69, 0
2, 32712, Note_on_c, 0, 78, 80
2, 32735, Note_on_c, 0, 78, 0
2, 32736, Note_on_c, 0, 73, 80
2, 32759, Note_on_c, 0, 73, 0
2, 32760, Note_on_c, 0, 78, 80
2, 32783, Note_on_c, 0, 78, 0
2, 32784, Note_on_c, 0, 69, 80
2, 32807, Note_on_c, 0, 69, 0
2, 32808, Note_on_c, 0, 78, 80
2, 32831, Note_on_c, 0, 78, 0
2, 32832, Note_on_c, 0, 66, 80
2, 32855, Note_on_c, 0, 66, 0
2, 32856, Note_on_c, 0, 78, 80
2, 32879, Note_on_c, 0, 78, 0
2, 32880, Note_on_c, 0, 69, 80
2, 32903, Note_on_c, 0, 69, 0
2, 32904, Note_on_c, 0, 78, 80
2, 32927, Note_on_c, 0, 78, 0
2, 32928, Note_on_c, 0, 73, 80
2, 32951, Note_on_c, 0, 73, 0
2, 32952, Note_on_c, 0, 78, 80
2, 32975, Note_on_c, 0, 78, 0
2, 32976, Note_on_c, 0, 69, 80
2, 32999, Note_on_c, 0, 69, 0
2, 33000, Control_c, 0, 64, 0
2, 33000, Note_on_c, 0, 78, 80
2, 33023, Note_on_c, 0, 78, 0
2, 33024, Control_c, 0, 64, 127
2, 33024, Note_on_c, 0, 67, 80
2, 33047, Note_on_c, 0, 67, 0
2, 33048, Note_on_c, 0, 76, 80
2, 33071, Note_on_c, 0, 76, 0
2, 33072, Note_on_c, 0, 70, 81
2, 33095, Note_on_c, 0, 70, 0
2, 33096, Note_on_c, 0, 76, 81
2, 33119, Note_on_c, 0, 76, 0
2, 33120, Note_on_c, 0, 73, 81
2, 33143, Note_on_c, 0, 73, 0
2, 33144, Note_on_c, 0, 76, 81
2, 33167, Note_on_c, 0, 76, 0
2, 33168, Note_on_c, 0, 70, 81
2, 33191, Note_on_c, 0, 70, 0
2, 33192, Note_on_c, 0, 76, 81
2, 33215, Note_on_c, 0, 76, 0
2, 33216, Note_on_c, 0, 67, 81
2, 33239, Note_on_c, 0, 67, 0
2, 33240, Note_on_c, 0, 76, 81
2, 33263, Note_on_c, 0, 76, 0
2, 33264, Note_on_c, 0, 70, 81
2, 33287, Note_on_c, 0, 70, 0
2, 33288, Note_on_c, 0, 76, 81
2, 33311, Note_on_c, 0, 76, 0
2, 33312, Note_on_c, 0, 73, 81
2, 33335, Note_on_c, 0, 73, 0
2, 33336, Note_on_c, 0, 76, 81
2, 33359, Note_on_c, 0, 76, 0
2, 33360, Note_on_c, 0, 70, 81
2, 33383, Note_on_c, 0, 70, 0
2, 33384, Control_c, 0, 64, 0
2, 33384, Note_on_c, 0, 76, 81
2, 33407, Note_on_c, 0, 76, 0
2, 33408, Control_c, 0, 64, 127
2, 33408, Note_on_c, 0, 68, 81
2, 33431, Note_on_c, 0, 68, 0
2, 33432, Note_on_c, 0, 80, 82
2, 33455, Note_on_c, 0, 80, 0
2, 33456, Note_on_c, 0, 71, 82
2, 33479, Note_on_c, 0, 71, 0
2, 33480, Note_on_c, 0, 80, 82
2, 33503, Note_on_c, 0, 80, 0
2, 33504, Note_on_c, 0, 75, 82
2, 33527, Note_on_c, 0, 75, 0
2, 33528, Note_on_c, 0, 80, 82
2, 33551, Note_on_c, 0, 80, 0
2, 33552, Note_on_c, 0, 71, 82
2, 33575, Note_on_c, 0, 71, 0
2, 33576, Note_on_c, 0, 80, 82
2, 33599, Note_on_c, 0, 80, 0
2, 33600, Note_on_c, 0, 68, 82
2, 33623, Note_on_c, 0, 68, 0
2, 33624, Note_on_c, 0, 80, 82
2, 33647, Note_on_c, 0, 80, 0
2, 33648, Note_on_c, 0, 71, 82
2, 33671, Note_on_c, 0, 71, 0
2, 33672, Note_on_c, 0, 80, 82
2, 33695, Note_on_c, 0, 80, 0
2, 33696, Note_on_c, 0, 75, 82
2, 33719, Note_on_c, 0, 75, 0
2, 33720, Note_on_c, 0, 80, 82
2, 33743, Note_on_c, 0, 80, 0
2, 33744, Note_on_c, 0, 71, 82
2, 33767, Note_on_c, 0, 71, 0
2, 33768, Control_c, 0, 64, 0
2, 33768, Note_on_c, 0, 80, 82
2, 33791, Note_on_c, 0, 80, 0
2, 33792, Control_c, 0, 64, 127
2, 33792, Note_on_c, 0, 69, 82
2, 33815, Note_on_c, 0, 69, 0
2, 33816, Note_on_c, 0, 81, 83
2, 33839, Note_on_c, 0, 81, 0
2, 33840, Note_on_c, 0, 72, 83
2, 33863, Note_on_c, 0, 72, 0
2, 33864, Note_on_c, 0, 81, 83
2, 33887, Note_on_c, 0, 81, 0
2, 33888, Note_on_c, 0, 75, 83
2, 33911, Note_on_c, 0, 75, 0
2, 33912, Note_on_c, 0, 81, 83
2, 33935, Note_on_c, 0, 81, 0
2, 33936, Note_on_c, 0, 72, 83
2, 33959, Note_on_c, 0, 72, 0
2, 33960, Note_on_c, 0, 81, 83
2, 33983, Note_on_c, 0, 81, 0
2, 33984, Note_on_c, 0, 69, 83
2, 34007, Note_on_c, 0, 69, 0
2, 34008, Note_on_c, 0, 81, 83
2, 34031, Note_on_c, 0, 81, 0
2, 34032, Note_on_c, 0, 72, 83
2, 34055, Note_on_c, 0, 72, 0
2, 34056, Note_on_c, 0, 81, 83
2, 34079, Note_on_c, 0, 81, 0
2, 34080, Note_on_c, 0, 75, 83
2, 34103, Note_on_c, 0, 75, 0
2, 34104, Note_on_c, 0, 81, 83
2, 34127, Note_on_c, 0, 81, 0
2, 34128, Note_on_c, 0, 72, 83
2, 34151, Note_on_c, 0, 72, 0
2, 34152, Control_c, 0, 64, 0
2, 34152, Note_on_c, 0, 81, 83
2, 34175, Note_on_c, 0, 81, 0
2, 34176, Control_c, 0, 64, 127
2, 34176, Note_on_c, 0, 69, 83
2, 34199, Note_on_c, 0, 69, 0
2, 34200, Note_on_c, 0, 81, 84
2, 34223, Note_on_c, 0, 81, 0
2, 34224, Note_on_c, 0, 72, 84
2, 34247, Note_on_c, 0, 72, 0
2, 34248, Note_on_c, 0, 81, 84
2, 34271, Note_on_c, 0, 81, 0
2, 34272, Note_on_c, 0, 75, 84
2, 34295, Note_on_c, 0, 75, 0
2, 34296, Note_on_c, 0, 81, 84
2, 34319, Note_on_c, 0, 81, 0
2, 34320, Note_on_c, 0, 72, 84
2, 34343, Note_on_c, 0, 72, 0
2, 34344, Note_on_c, 0, 81, 84
2, 34367, Note_on_c, 0, 81, 0
2, 34368, Note_on_c, 0, 69, 84
2, 34391, Note_on_c, 0, 69, 0
2, 34392, Note_on_c, 0, 81, 84
2, 34415, Note_on_c, 0, 81, 0
2, 34416, Note_on_c, 0, 72, 84
2, 34439, Note_on_c, 0, 72, 0
2, 34440, Note_on_c, 0, 81, 84
2, 34463, Note_on_c, 0, 81, 0
2, 34464, Note_on_c, 0, 75, 84
2, 34487, Note_on_c, 0, 75, 0
2, 34488, Note_on_c, 0, 81, 84
2, 34511, Note_on_c, 0, 81, 0
2, 34512, Note_on_c, 0, 72, 84
2, 34535, Note_on_c, 0, 72, 0
2, 34536, Control_c, 0, 64, 0
2, 34536, Note_on_c, 0, 81, 84
2, 34559, Note_on_c, 0, 81, 0
2, 34560, Control_c, 0, 64, 127
2, 34560, Note_on_c, 0, 69, 85
2, 34583, Note_on_c, 0, 69, 0
2, 34584, Note_on_c, 0, 81, 85
2, 34607, Note_on_c, 0, 81, 0
2, 34608, Note_on_c, 0, 73, 85
2, 34631, Note_on_c, 0, 73, 0
2, 34632, Note_on_c, 0, 81, 85
2, 34655, Note_on_c, 0, 81, 0
2, 34656, Note_on_c, 0, 76, 85
2, 34679, Note_on_c, 0, 76, 0
2, 34680, Note_on_c, 0, 81, 85
2, 34703, Note_on_c, 0, 81, 0
2, 34704, Note_on_c, 0, 73, 85
2, 34727, Note_on_c, 0, 73, 0
2, 34728, Note_on_c, 0, 81, 85
2, 34751, Note_on_c, 0, 81, 0
2, 34752, Note_on_c, 0, 69, 85
2, 34775, Note_on_c, 0, 69, 0
2, 34776, Note_on_c, 0, 81, 85
2, 34799, Note_on_c, 0, 81, 0
2, 34800, Note_on_c, 0, 73, 85
2, 34823, Note_on_c, 0, 73, 0
2, 34824, Note_on_c, 0, 81, 85
2, 34847, Note_on_c, 0, 81, 0
2, 34848, Note_on_c, 0, 76, 85
2, 34871, Note_on_c, 0, 76, 0
2, 34872, Note_on_c, 0, 81, 85
2, 34895, Note_on_c, 0, 81, 0
2, 34896, Note_on_c, 0, 73, 85
2, 34919, Note_on_c, 0, 73, 0
2, 34920, Control_c, 0, 64, 0
2, 34920, Note_on_c, 0, 81, 85
2, 34943, Note_on_c, 0, 81, 0
2, 34944, Control_c, 0, 64, 127
2, 34944, Note_on_c, 0, 69, 85
2, 34967, Note_on_c, 0, 69, 0
2, 34968, Note_on_c, 0, 81, 85
2, 34991, Note_on_c, 0, 81, 0
2, 34992, Note_on_c, 0, 72, 85
2, 35015, Note_on_c, 0, 72, 0
2, 35016, Note_on_c, 0, 81, 85
2, 35039, Note_on_c, 0, 81, 0
2, 35040, Note_on_c, 0, 75, 85
2, 35063, Note_on_c, 0, 75, 0
2, 35064, Note_on_c, 0, 81, 85
2, 35087, Note_on_c, 0, 81, 0
2, 35088, Note_on_c, 0, 72, 85
2, 35111, Note_on_c, 0, 72, 0
2, 35112, Note_on_c, 0, 81, 85
2, 35135, Note_on_c, 0, 81, 0
2, 35136, Note_on_c, 0, 69, 85
2, 35159, Note_on_c, 0, 69, 0
2, 35160, Note_on_c, 0, 81, 85
2, 35183, Note_on_c, 0, 81, 0
2, 35184, Note_on_c, 0, 72, 85
2, 35207, Note_on_c, 0, 72, 0
2, 35208, Note_on_c, 0, 81, 85
2, 35231, Note_on_c, 0, 81, 0
2, 35232, Note_on_c, 0, 75, 85
2, 35255, Note_on_c, 0, 75, 0
2, 35256, Note_on_c, 0, 81, 85
2, 35279, Note_on_c, 0, 81, 0
2, 35280, Note_on_c, 0, 72, 85
2, 35303, Note_on_c, 0, 72, 0
2, 35304, Control_c, 0, 64, 0
2, 35304, Note_on_c, 0, 81, 85
2, 35327, Note_on_c, 0, 81, 0
2, 35328, Control_c, 0, 64, 127
2, 35328, Note_on_c, 0, 68, 85
2, 35351, Note_on_c, 0, 68, 0
2, 35352, Note_on_c, 0, 80, 84
2, 35375, Note_on_c, 0, 80, 0
2, 35376, Note_on_c, 0, 73, 84
2, 35399, Note_on_c, 0, 73, 0
2, 35400, Note_on_c, 0, 80, 84
2, 35423, Note_on_c, 0, 80, 0
2, 35424, Note_on_c, 0, 76, 84
2, 35447, Note_on_c, 0, 76, 0
2, 35448, Note_on_c, 0, 80, 83
2, 35471, Note_on_c, 0, 80, 0
2, 35472, Note_on_c, 0, 73, 83
2, 35495, Note_on_c, 0, 73, 0
2, 35496, Note_on_c, 0, 80, 83
2, 35519, Note_on_c, 0, 80, 0
2, 35520, Note_on_c, 0, 68, 83
2, 35543, Note_on_c, 0, 68, 0
2, 35544, Note_on_c, 0, 80, 83
2, 35567, Note_on_c, 0, 80, 0
2, 35568, Note_on_c, 0, 73, 82
2, 35591, Note_on_c, 0, 73, 0
2, 35592, Note_on_c, 0, 80, 82
2, 35615, Note_on_c, 0, 80, 0
2, 35616, Note_on_c, 0, 76, 82
2, 35639, Note_on_c, 0, 76, 0
2, 35640, Note_on_c, 0, 80, 82
2, 35663, Note_on_c, 0, 80, 0
2, 35664, Note_on_c, 0, 73, 81
2, 35687, Note_on_c, 0, 73, 0
2, 35688, Control_c, 0, 64, 0
2, 35688, Note_on_c, 0, 80, 81
2, 35711, Note_on_c, 0, 80, 0
2, 35712, Control_c, 0, 64, 127
2, 35712, Note_on_c, 0, 68, 81
2, 35735, Note_on_c, 0, 68, 0
2, 35736, Note_on_c, 0, 78, 81
2, 35759, Note_on_c, 0, 78, 0
2, 35760, Note_on_c, 0, 75, 81
2, 35783, Note_on_c, 0, 75, 0
2, 35784, Note_on_c, 0, 78, 80
2, 35807, Note_on_c, 0, 78, 0
2, 35808, Note_on_c, 0, 68, 80
2, 35831, Note_on_c, 0, 68, 0
2, 35832, Note_on_c, 0, 78, 80
2, 35855, Note_on_c, 0, 78, 0
2, 35856, Note_on_c, 0, 75, 80
2, 35879, Note_on_c, 0, 75, 0
2, 35880, Control_c, 0, 64, 0
2, 35880, Note_on_c, 0, 78, 79
2, 35903, Note_on_c, 0, 78, 0
2, 35904, Control_c, 0, 64, 127
2, 35904, Note_on_c, 0, 68, 79
2, 35927, Note_on_c, 0, 68, 0
2, 35928, Note_on_c, 0, 76, 79
2, 35951, Note_on_c, 0, 76, 0
2, 35952, Note_on_c, 0, 73, 79
2, 35975, Note_on_c, 0, 73, 0
2, 35976, Note_on_c, 0, 76, 79
2, 35999, Note_on_c, 0, 76, 0
2, 36000, Note_on_c, 0, 68, 78
2, 36023, Note_on_c, 0, 68, 0
2, 36024, Note_on_c, 0, 76, 78
2, 36047, Note_on_c, 0, 76, 0
2, 36048, Note_on_c, 0, 73, 78
2, 36071, Note_on_c, 0, 73, 0
2, 36072, Control_c, 0, 64, 0
2, 36072, Note_on_c, 0, 76, 78
2, 36095, Note_on_c, 0, 76, 0
2, 36096, Note_on_c, 0, 75, 78
2, 36119, Note_on_c, 0, 75, 0
2, 36120, Note_on_c, 0, 68, 78
2, 36143, Note_on_c, 0, 68, 0
2, 36144, Note_on_c, 0, 75, 77
2, 36167, Note_on_c, 0, 75, 0
2, 36168, Note_on_c, 0, 68, 77
2, 36191, Note_on_c, 0, 68, 0
2, 36192, Note_on_c, 0, 80, 77
2, 36215, Note_on_c, 0, 80, 0
2, 36216, Note_on_c, 0, 68, 76
2, 36239, Note_on_c, 0, 68, 0
2, 36240, Note_on_c, 0, 80, 76
2, 36263, Note_on_c, 0, 80, 0
2, 36264, Note_on_c, 0, 68, 76
2, 36287, Note_on_c, 0, 68, 0
2, 36288, Note_on_c, 0, 78, 76
2, 36311, Note_on_c, 0, 78, 0
2, 36312, Note_on_c, 0, 68, 75
2, 36335, Note_on_c, 0, 68, 0
2, 36336, Note_on_c, 0, 78, 75
2, 36359, Note_on_c, 0, 78, 0
2, 36360, Note_on_c, 0, 68, 75
2, 36383, Note_on_c, 0, 68, 0
2, 36384, Note_on_c, 0, 76, 75
2, 36407, Note_on_c, 0, 76, 0
2, 36408, Note_on_c, 0, 68, 74
2, 36431, Note_on_c, 0, 68, 0
2, 36432, Note_on_c, 0, 76, 74
2, 36455, Note_on_c, 0, 76, 0
2, 36456, Note_on_c, 0, 68, 74
2, 36479, Note_on_c, 0, 68, 0
2, 36480, Note_on_c, 0, 75, 74
2, 36503, Note_on_c, 0, 75, 0
2, 36504, Note_on_c, 0, 68, 73
2, 36527, Note_on_c, 0, 68, 0
2, 36528, Note_on_c, 0, 75, 73
2, 36551, Note_on_c, 0, 75, 0
2, 36552, Note_on_c, 0, 68, 73
2, 36575, Note_on_c, 0, 68, 0
2, 36576, Note_on_c, 0, 73, 73
2, 36599, Note_on_c, 0, 73, 0
2, 36600, Note_on_c, 0, 68, 72
2, 36623, Note_on_c, 0, 68, 0
2, 36624, Note_on_c, 0, 73, 72
2, 36647, Note_on_c, 0, 73, 0
2, 36648, Note_on_c, 0, 68, 72
2, 36671, Note_on_c, 0, 68, 0
2, 36672, Note_on_c, 0, 72, 72
2, 36695, Note_on_c, 0, 72, 0
2, 36696, Note_on_c, 0, 68, 71
2, 36719, Note_on_c, 0, 68, 0
2, 36720, Note_on_c, 0, 72, 71
2, 36743, Note_on_c, 0, 72, 0
2, 36744, Note_on_c, 0, 68, 71
2, 36767, Note_on_c, 0, 68, 0
2, 36768, Note_on_c, 0, 73, 71
2, 36791, Note_on_c, 0, 73, 0
2, 36792, Note_on_c, 0, 68, 70
2, 36815, Note_on_c, 0, 68, 0
2, 36816, Note_on_c, 0, 73, 70
2, 36839, Note_on_c, 0, 73, 0
2, 36840, Note_on_c, 0, 68, 70
2, 36863, Note_on_c, 0, 68, 0
2, 36864, Note_on_c, 0, 75, 70
2, 36953, Note_on_c, 0, 75, 0
2, 36960, Note_on_c, 0, 68, 70
2, 36960, Note_on_c, 0, 63, 70
2, 36960, Note_on_c, 0, 60, 70
2, 37027, Note_on_c, 0, 68, 0
2, 37027, Note_on_c, 0, 63, 0
2, 37027, Note_on_c, 0, 60, 0
2, 37032, Note_on_c, 0, 68, 70
2, 37032, Note_on_c, 0, 63, 70
2, 37032, Note_on_c, 0, 60, 70
2, 37055, Note_on_c, 0, 68, 0
2, 37055, Note_on_c, 0, 63, 0
2, 37055, Note_on_c, 0, 60, 0
2, 37056, Note_on_c, 0, 68, 70
2, 37056, Note_on_c, 0, 63, 70
2, 37056, Note_on_c, 0, 60, 70
2, 37145, Note_on_c, 0, 68, 0
2, 37145, Note_on_c, 0, 63, 0
2, 37145, Note_on_c, 0, 60, 0
2, 37248, Note_on_c, 0, 61, 85
2, 37293, Note_on_c, 0, 61, 0
2, 37296, Note_on_c, 0, 61, 85
2, 37308, Note_on_c, 0, 61, 0
2, 37308, Note_on_c, 0, 60, 85
2, 37320, Note_on_c, 0, 60, 0
2, 37320, Note_on_c, 0, 61, 85
2, 37332, Note_on_c, 0, 61, 0
2, 37332, Note_on_c, 0, 63, 85
2, 37344, Note_on_c, 0, 63, 0
2, 37344, Note_on_c, 0, 64, 85
2, 37364, Note_on_c, 0, 64, 0
2, 37392, Note_on_c, 0, 63, 85
2, 37412, Note_on_c, 0, 63, 0
2, 37440, Note_on_c, 0, 61, 85
2, 37460, Note_on_c, 0, 61, 0
2, 37488, Note_on_c, 0, 56, 85
2, 37508, Note_on_c, 0, 56, 0
2, 37536, Note_on_c, 0, 61, 85
2, 37556, Note_on_c, 0, 61, 0
2, 37584, Note_on_c, 0, 64, 85
2, 37604, Note_on_c, 0, 64, 0
2, 37632, Note_on_c, 0, 61, 85
2, 37677, Note_on_c, 0, 61, 0
2, 37680, Note_on_c, 0, 68, 70
2, 37725, Note_on_c, 0, 68, 0
2, 37728, Note_on_c, 0, 68, 70
2, 37773, Note_on_c, 0, 68, 0
2, 37776, Note_on_c, 0, 68, 70
2, 37821, Note_on_c, 0, 68, 0
2, 37824, Note_on_c, 0, 69, 70
2, 37830, Note_on_c, 0, 69, 0
2, 37830, Note_on_c, 0, 68, 70
2, 37836, Note_on_c, 0, 68, 0
2, 37836, Note_on_c, 0, 67, 70
2, 37842, Note_on_c, 0, 67, 0
2, 37842, Note_on_c, 0, 68, 70
2, 37913, Note_on_c, 0, 68, 0
2, 38064, Note_on_c, 0, 68, 70
2, 38109, Note_on_c, 0, 68, 0
2, 38112, Note_on_c, 0, 68, 70
2, 38157, Note_on_c, 0, 68, 0
2, 38160, Note_on_c, 0, 68, 70
2, 38205, Note_on_c, 0, 68, 0
2, 38208, Note_on_c, 0, 69, 70
2, 38214, Note_on_c, 0, 69, 0
2, 38214, Note_on_c, 0, 68, 70
2, 38220, Note_on_c, 0, 68, 0
2, 38220, Note_on_c, 0, 67, 70
2, 38226, Note_on_c, 0, 67, 0
2, 38226, Note_on_c, 0, 68, 70
2, 38297, Note_on_c, 0, 68, 0
2, 38448, Note_on_c, 0, 76, 70
2, 38448, Note_on_c, 0, 73, 70
2, 38493, Note_on_c, 0, 76, 0
2, 38493, Note_on_c, 0, 73, 0
2, 38496, Note_on_c, 0, 75, 70
2, 38496, Note_on_c, 0, 72, 70
2, 38541, Note_on_c, 0, 75, 0
2, 38541, Note_on_c, 0, 72, 0
2, 38544, Note_on_c, 0, 76, 70
2, 38544, Note_on_c, 0, 73, 70
2, 38589, Note_on_c, 0, 76, 0
2, 38589, Note_on_c, 0, 73, 0
2, 38592, Note_on_c, 0, 78, 70
2, 38592, Note_on_c, 0, 75, 70
2, 38631, Note_on_c, 0, 78, 0
2, 38631, Note_on_c, 0, 75, 0
2, 38832, Note_on_c, 0, 80, 70
2, 38832, Note_on_c, 0, 77, 70
2, 38877, Note_on_c, 0, 80, 0
2, 38877, Note_on_c, 0, 77, 0
2, 38880, Note_on_c, 0, 78, 70
2, 38880, Note_on_c, 0, 75, 70
2, 38925, Note_on_c, 0, 78, 0
2, 38925, Note_on_c, 0, 75, 0
2, 38928, Note_on_c, 0, 80, 70
2, 38928, Note_on_c, 0, 77, 70
2, 38973, Note_on_c, 0, 80, 0
2, 38973, Note_on_c, 0, 77, 0
2, 38976, Note_on_c, 0, 81, 70
2, 38976, Note_on_c, 0, 78, 70
2, 39015, Note_on_c, 0, 81, 0
2, 39015, Note_on_c, 0, 78, 0
2, 39216, Note_on_c, 0, 85, 70
2, 39216, Note_on_c, 0, 81, 70
2, 39261, Note_on_c, 0, 85, 0
2, 39261, Note_on_c, 0, 81, 0
2, 39264, Note_on_c, 0, 83, 70
2, 39264, Note_on_c, 0, 80, 70
2, 39309, Note_on_c, 0, 83, 0
2, 39309, Note_on_c, 0, 80, 0
2, 39312, Note_on_c, 0, 85, 70
2, 39312, Note_on_c, 0, 81, 70
2, 39357, Note_on_c, 0, 85, 0
2, 39357, Note_on_c, 0, 81, 0
2, 39360, Note_on_c, 0, 81, 70
2, 39360, Note_on_c, 0, 78, 70
2, 39380, Note_on_c, 0, 81, 0
2, 39380, Note_on_c, 0, 78, 0
2, 39408, Note_on_c, 0, 81, 70
2, 39453, Note_on_c, 0, 81, 0
2, 39456, Note_on_c, 0, 80, 70
2, 39501, Note_on_c, 0, 80, 0
2, 39504, Note_on_c, 0, 81, 70
2, 39549, Note_on_c, 0, 81, 0
2, 39552, Note_on_c, 0, 78, 70
2, 39572, Note_on_c, 0, 78, 0
2, 39600, Note_on_c, 0, 78, 70
2, 39645, Note_on_c, 0, 78, 0
2, 39648, Note_on_c, 0, 77, 70
2, 39693, Note_on_c, 0, 77, 0
2, 39696, Note_on_c, 0, 78, 70
2, 39741, Note_on_c, 0, 78, 0
2, 39744, Note_on_c, 0, 74, 70
2, 39764, Note_on_c, 0, 74, 0
2, 39792, Note_on_c, 0, 74, 70
2, 39837, Note_on_c, 0, 74, 0
2, 39840, Note_on_c, 0, 78, 71
2, 39885, Note_on_c, 0, 78, 0
2, 39888, Note_on_c, 0, 81, 73
2, 39933, Note_on_c, 0, 81, 0
2, 39936, Note_on_c, 0, 73, 74
2, 40055, Note_on_c, 0, 73, 0
2, 40056, Note_on_c, 0, 72, 76
2, 40079, Note_on_c, 0, 72, 0
2, 40080, Note_on_c, 0, 75, 74
2, 40103, Note_on_c, 0, 75, 0
2, 40104, Note_on_c, 0, 72, 72
2, 40127, Note_on_c, 0, 72, 0
2, 40128, Note_on_c, 0, 73, 70
2, 40217, Note_on_c, 0, 73, 0
2, 40272, Note_on_c, 0, 69, 85
2, 40284, Note_on_c, 0, 69, 0
2, 40284, Note_on_c, 0, 66, 85
2, 40318, Note_on_c, 0, 66, 0
2, 40320, Note_on_c, 0, 68, 85
2, 40332, Note_on_c, 0, 68, 0
2, 40332, Note_on_c, 0, 64, 85
2, 40366, Note_on_c, 0, 64, 0
2, 40368, Note_on_c, 0, 66, 85
2, 40380, Note_on_c, 0, 66, 0
2, 40380, Note_on_c, 0, 63, 85
2, 40414, Note_on_c, 0, 63, 0
2, 40416, Note_on_c, 0, 64, 85
2, 40428, Note_on_c, 0, 64, 0
2, 40428, Note_on_c, 0, 61, 85
2, 40462, Note_on_c, 0, 61, 0
2, 40464, Note_on_c, 0, 76, 85
2, 40476, Note_on_c, 0, 76, 0
2, 40476, Note_on_c, 0, 73, 85
2, 40510, Note_on_c, 0, 73, 0
2, 40512, Note_on_c, 0, 75, 85
2, 40524, Note_on_c, 0, 75, 0
2, 40524, Note_on_c, 0, 72, 85
2, 40558, Note_on_c, 0, 72, 0
2, 40560, Note_on_c, 0, 73, 85
2, 40572, Note_on_c, 0, 73, 0
2, 40572, Note_on_c, 0, 70, 85
2, 40606, Note_on_c, 0, 70, 0
2, 40608, Note_on_c, 0, 72, 85
2, 40620, Note_on_c, 0, 72, 0
2, 40620, Note_on_c, 0, 68, 85
2, 40654, Note_on_c, 0, 68, 0
2, 40656, Note_on_c, 0, 81, 85
2, 40668, Note_on_c, 0, 81, 0
2, 40668, Note_on_c, 0, 78, 85
2, 40702, Note_on_c, 0, 78, 0
2, 40704, Note_on_c, 0, 80, 85
2, 40716, Note_on_c, 0, 80, 0
2, 40716, Note_on_c, 0, 76, 83
2, 40750, Note_on_c, 0, 76, 0
2, 40752, Note_on_c, 0, 78, 80
2, 40764, Note_on_c, 0, 78, 0
2, 40764, Note_on_c, 0, 75, 79
2, 40798, Note_on_c, 0, 75, 0
2, 40800, Note_on_c, 0, 76, 75
2, 40812, Note_on_c, 0, 76, 0
2, 40812, Note_on_c, 0, 73, 74
2, 40846, Note_on_c, 0, 73, 0
2, 40848, Note_on_c, 0, 85, 71
2, 40860, Note_on_c, 0, 85, 0
2, 40860, Note_on_c, 0, 80, 70
2, 40894, Note_on_c, 0, 80, 0
2, 40896, Note_on_c, 0, 81, 70
2, 40908, Note_on_c, 0, 81, 0
2, 40908, Note_on_c, 0, 78, 70
2, 40942, Note_on_c, 0, 78, 0
2, 40944, Note_on_c, 0, 80, 70
2, 40956, Note_on_c, 0, 80, 0
2, 40956, Note_on_c, 0, 76, 70
2, 40990, Note_on_c, 0, 76, 0
2, 40992, Note_on_c, 0, 78, 70
2, 41004, Note_on_c, 0, 78, 0
2, 41004, Note_on_c, 0, 75, 70
2, 41038, Note_on_c, 0, 75, 0
2, 41040, Note_on_c, 0, 76, 70
2, 41052, Note_on_c, 0, 76, 0
2, 41052, Note_on_c, 0, 73, 70
2, 41086, Note_on_c, 0, 73, 0
2, 41088, Note_on_c, 0, 75, 70
2, 41100, Note_on_c, 0, 75, 0
2, 41100, Note_on_c, 0, 73, 70
2, 41134, Note_on_c, 0, 73, 0
2, 41136, Note_on_c, 0, 75, 72
2, 41148, Note_on_c, 0, 75, 0
2, 41148, Note_on_c, 0, 73, 72
2, 41182, Note_on_c, 0, 73, 0
2, 41184, Note_on_c, 0, 76, 74
2, 41196, Note_on_c, 0, 76, 0
2, 41196, Note_on_c, 0, 73, 74
2, 41230, Note_on_c, 0, 73, 0
2, 41232, Note_on_c, 0, 76, 76
2, 41244, Note_on_c, 0, 76, 0
2, 41244, Note_on_c, 0, 73, 76
2, 41278, Note_on_c, 0, 73, 0
2, 41280, Note_on_c, 0, 78, 78
2, 41292, Note_on_c, 0, 78, 0
2, 41292, Note_on_c, 0, 73, 77
2, 41326, Note_on_c, 0, 73, 0
2, 41328, Note_on_c, 0, 78, 76
2, 41340, Note_on_c, 0, 78, 0
2, 41340, Note_on_c, 0, 73, 75
2, 41374, Note_on_c, 0, 73, 0
2, 41376, Note_on_c, 0, 76, 74
2, 41388, Note_on_c, 0, 76, 0
2, 41388, Note_on_c, 0, 73, 73
2, 41422, Note_on_c, 0, 73, 0
2, 41424, Note_on_c, 0, 76, 72
2, 41436, Note_on_c, 0, 76, 0
2, 41436, Note_on_c, 0, 73, 71
2, 41470, Note_on_c, 0, 73, 0
2, 41472, Note_on_c, 0, 75, 70
2, 41484, Note_on_c, 0, 75, 0
2, 41484, Note_on_c, 0, 73, 70
2, 41518, Note_on_c, 0, 73, 0
2, 41520, Note_on_c, 0, 75, 72
2, 41532, Note_on_c, 0, 75, 0
2, 41532, Note_on_c, 0, 73, 73
2, 41566, Note_on_c, 0, 73, 0
2, 41568, Note_on_c, 0, 76, 74
2, 41580, Note_on_c, 0, 76, 0
2, 41580, Note_on_c, 0, 73, 75
2, 41614, Note_on_c, 0, 73, 0
2, 41616, Note_on_c, 0, 76, 77
2, 41628, Note_on_c, 0, 76, 0
2, 41628, Note_on_c, 0, 73, 78
2, 41662, Note_on_c, 0, 73, 0
2, 41664, Note_on_c, 0, 78, 76
2, 41676, Note_on_c, 0, 78, 0
2, 41676, Note_on_c, 0, 73, 76
2, 41710, Note_on_c, 0, 73, 0
2, 41712, Note_on_c, 0, 78, 75
2, 41724, Note_on_c, 0, 78, 0
2, 41724, Note_on_c, 0, 73, 74
2, 41758, Note_on_c, 0, 73, 0
2, 41760, Note_on_c, 0, 76, 73
2, 41772, Note_on_c, 0, 76, 0
2, 41772, Note_on_c, 0, 73, 72
2, 41806, Note_on_c, 0, 73, 0
2, 41808, Note_on_c, 0, 76, 71
2, 41820, Note_on_c, 0, 76, 0
2, 41820, Note_on_c, 0, 73, 71
2, 41854, Note_on_c, 0, 73, 0
2, 41856, Note_on_c, 0, 75, 70
2, 41868, Note_on_c, 0, 75, 0
2, 41868, Note_on_c, 0, 73, 70
2, 41902, Note_on_c, 0, 73, 0
2, 41904, Note_on_c, 0, 75, 71
2, 41916, Note_on_c, 0, 75, 0
2, 41916, Note_on_c, 0, 73, 72
2, 41950, Note_on_c, 0, 73, 0
2, 41952, Note_on_c, 0, 75, 73
2, 41964, Note_on_c, 0, 75, 0
2, 41964, Note_on_c, 0, 73, 73
2, 41998, Note_on_c, 0, 73, 0
2, 42000, Note_on_c, 0, 75, 74
2, 42012, Note_on_c, 0, 75, 0
2, 42012, Note_on_c, 0, 73, 75
2, 42046, Note_on_c, 0, 73, 0
2, 42048, Note_on_c, 0, 72, 76
2, 42093, Note_on_c, 0, 72, 0
2, 42096, Note_on_c, 0, 68, 70
2, 42141, Note_on_c, 0, 68, 0
2, 42144, Note_on_c, 0, 68, 70
2, 42189, Note_on_c, 0, 68, 0
2, 42192, Note_on_c, 0, 68, 70
2, 42237, Note_on_c, 0, 68, 0
2, 42240, Note_on_c, 0, 69, 70
2, 42246, Note_on_c, 0, 69, 0
2, 42246, Note_on_c, 0, 68, 70
2, 42252, Note_on_c, 0, 68, 0
2, 42252, Note_on_c, 0, 67, 70
2, 42258, Note_on_c, 0, 67, 0
2, 42258, Note_on_c, 0, 68, 70
2, 42329, Note_on_c, 0, 68, 0
2, 42480, Note_on_c, 0, 68, 70
2, 42525, Note_on_c, 0, 68, 0
2, 42528, Note_on_c, 0, 68, 70
2, 42573, Note_on_c, 0, 68, 0
2, 42576, Note_on_c, 0, 68, 70
2, 42621, Note_on_c, 0, 68, 0
2, 42624, Note_on_c, 0, 69, 70
2, 42630, Note_on_c, 0, 69, 0
2, 42630, Note_on_c, 0, 68, 70
2, 42636, Note_on_c, 0, 68, 0
2, 42636, Note_on_c, 0, 67, 70
2, 42642, Note_on_c, 0, 67, 0
2, 42642, Note_on_c, 0, 68, 70
2, 42713, Note_on_c, 0, 68, 0
2, 42864, Note_on_c, 0, 73, 70
2, 42909, Note_on_c, 0, 73, 0
2, 42912, Note_on_c, 0, 73, 70
2, 42957, Note_on_c, 0, 73, 0
2, 42960, Note_on_c, 0, 73, 70
2, 43005, Note_on_c, 0, 73, 0
2, 43008, Note_on_c, 0, 73, 63
2, 43053, Note_on_c, 0, 73, 0
2, 43056, Note_on_c, 0, 74, 63
2, 43056, Note_on_c, 0, 71, 63
2, 43076, Note_on_c, 0, 74, 0
2, 43076, Note_on_c, 0, 71, 0
2, 43104, Note_on_c, 0, 74, 63
2, 43104, Note_on_c, 0, 71, 63
2, 43124, Note_on_c, 0, 74, 0
2, 43124, Note_on_c, 0, 71, 0
2, 43152, Note_on_c, 0, 74, 63
2, 43152, Note_on_c, 0, 71, 63
2, 43172, Note_on_c, 0, 74, 0
2, 43172, Note_on_c, 0, 71, 0
2, 43200, Note_on_c, 0, 74, 79
2, 43200, Note_on_c, 0, 71, 79
2, 43296, Note_on_c, 0, 74, 0
2, 43296, Note_on_c, 0, 71, 0
2, 43296, Note_on_c, 0, 73, 63
2, 43296, Note_on_c, 0, 69, 63
2, 43316, Note_on_c, 0, 73, 0
2, 43316, Note_on_c, 0, 69, 0
2, 43344, Note_on_c, 0, 77, 63
2, 43344, Note_on_c, 0, 71, 63
2, 43364, Note_on_c, 0, 77, 0
2, 43364, Note_on_c, 0, 71, 0
2, 43392, Note_on_c, 0, 77, 63
2, 43392, Note_on_c, 0, 71, 63
2, 43488, Note_on_c, 0, 77, 0
2, 43488, Note_on_c, 0, 71, 0
2, 43488, Note_on_c, 0, 78, 63
2, 43488, Note_on_c, 0, 69, 63
2, 43508, Note_on_c, 0, 78, 0
2, 43508, Note_on_c, 0, 69, 0
2, 43536, Note_on_c, 0, 76, 63
2, 43536, Note_on_c, 0, 73, 63
2, 43556, Note_on_c, 0, 76, 0
2, 43556, Note_on_c, 0, 73, 0
2, 43584, Note_on_c, 0, 76, 63
2, 43584, Note_on_c, 0, 73, 63
2, 43680, Note_on_c, 0, 76, 0
2, 43680, Note_on_c, 0, 73, 0
2, 43680, Note_on_c, 0, 75, 63
2, 43680, Note_on_c, 0, 72, 63
2, 43700, Note_on_c, 0, 75, 0
2, 43700, Note_on_c, 0, 72, 0
2, 43728, Note_on_c, 0, 79, 63
2, 43728, Note_on_c, 0, 73, 63
2, 43748, Note_on_c, 0, 79, 0
2, 43748, Note_on_c, 0, 73, 0
2, 43776, Note_on_c, 0, 79, 63
2, 43776, Note_on_c, 0, 73, 63
2, 43872, Note_on_c, 0, 79, 0
2, 43872, Note_on_c, 0, 73, 0
2, 43872, Note_on_c, 0, 80, 63
2, 43872, Note_on_c, 0, 72, 63
2, 43892, Note_on_c, 0, 80, 0
2, 43892, Note_on_c, 0, 72, 0
2, 43920, Note_on_c, 0, 80, 63
2, 43920, Note_on_c, 0, 68, 63
2, 43940, Note_on_c, 0, 80, 0
2, 43940, Note_on_c, 0, 68, 0
2, 43968, Note_on_c, 0, 80, 79
2, 43968, Note_on_c, 0, 68, 79
2, 44064, Note_on_c, 0, 80, 0
2, 44064, Note_on_c, 0, 68, 0
2, 44064, Note_on_c, 0, 85, 63
2, 44064, Note_on_c, 0, 73, 63
2, 44109, Note_on_c, 0, 85, 0
2, 44109, Note_on_c, 0, 73, 0
2, 44112, Note_on_c, 0, 83, 63
2, 44112, Note_on_c, 0, 71, 63
2, 44132, Note_on_c, 0, 83, 0
2, 44132, Note_on_c, 0, 71, 0
2, 44160, Note_on_c, 0, 83, 79
2, 44160, Note_on_c, 0, 71, 79
2, 44208, Note_on_c, 0, 83, 0
2, 44208, Note_on_c, 0, 71, 0
2, 44208, Note_on_c, 0, 81, 63
2, 44208, Note_on_c, 0, 69, 63
2, 44231, Note_on_c, 0, 81, 0
2, 44231, Note_on_c, 0, 69, 0
2, 44256, Note_on_c, 0, 81, 63
2, 44256, Note_on_c, 0, 69, 63
2, 44304, Note_on_c, 0, 81, 0
2, 44304, Note_on_c, 0, 69, 0
2, 44304, Note_on_c, 0, 80, 63
2, 44304, Note_on_c, 0, 68, 63
2, 44327, Note_on_c, 0, 80, 0
2, 44327, Note_on_c, 0, 68, 0
2, 44352, Note_on_c, 0, 80, 63
2, 44352, Note_on_c, 0, 68, 63
2, 44400, Note_on_c, 0, 80, 0
2, 44400, Note_on_c, 0, 68, 0
2, 44400, Note_on_c, 0, 78, 63
2, 44400, Note_on_c, 0, 66, 63
2, 44423, Note_on_c, 0, 78, 0
2, 44423, Note_on_c, 0, 66, 0
2, 44496, Note_on_c, 0, 83, 78
2, 44496, Note_on_c, 0, 71, 78
2, 44516, Note_on_c, 0, 83, 0
2, 44516, Note_on_c, 0, 71, 0
2, 44544, Note_on_c, 0, 83, 92
2, 44544, Note_on_c, 0, 71, 92
2, 44592, Note_on_c, 0, 83, 0
2, 44592, Note_on_c, 0, 71, 0
2, 44592, Note_on_c, 0, 81, 74
2, 44592, Note_on_c, 0, 69, 74
2, 44615, Note_on_c, 0, 81, 0
2, 44615, Note_on_c, 0, 69, 0
2, 44640, Note_on_c, 0, 81, 73
2, 44640, Note_on_c, 0, 69, 73
2, 44688, Note_on_c, 0, 81, 0
2, 44688, Note_on_c, 0, 69, 0
2, 44688, Note_on_c, 0, 80, 71
2, 44688, Note_on_c, 0, 68, 71
2, 44711, Note_on_c, 0, 80, 0
2, 44711, Note_on_c, 0, 68, 0
2, 44736, Note_on_c, 0, 80, 69
2, 44736, Note_on_c, 0, 68, 69
2, 44784, Note_on_c, 0, 80, 0
2, 44784, Note_on_c, 0, 68, 0
2, 44784, Note_on_c, 0, 78, 68
2, 44784, Note_on_c, 0, 66, 68
2, 44807, Note_on_c, 0, 78, 0
2, 44807, Note_on_c, 0, 66, 0
2, 44880, Note_on_c, 0, 78, 64
2, 44900, Note_on_c, 0, 78, 0
2, 44928, Note_on_c, 0, 78, 79
2, 44976, Note_on_c, 0, 78, 0
2, 44976, Note_on_c, 0, 76, 63
2, 44999, Note_on_c, 0, 76, 0
2, 45024, Note_on_c, 0, 76, 63
2, 45072, Note_on_c, 0, 76, 0
2, 45072, Note_on_c, 0, 75, 63
2, 45095, Note_on_c, 0, 75, 0
2, 45120, Note_on_c, 0, 75, 63
2, 45143, Note_on_c, 0, 75, 0
2, 45144, Note_on_c, 0, 78, 63
2, 45167, Note_on_c, 0, 78, 0
2, 45168, Note_on_c, 0, 76, 63
2, 45191, Note_on_c, 0, 76, 0
2, 45192, Note_on_c, 0, 80, 63
2, 45215, Note_on_c, 0, 80, 0
2, 45216, Note_on_c, 0, 78, 63
2, 45239, Note_on_c, 0, 78, 0
2, 45240, Note_on_c, 0, 81, 63
2, 45263, Note_on_c, 0, 81, 0
2, 45264, Note_on_c, 0, 80, 63
2, 45287, Note_on_c, 0, 80, 0
2, 45288, Note_on_c, 0, 83, 63
2, 45311, Note_on_c, 0, 83, 0
2, 45312, Note_on_c, 0, 81, 79
2, 45423, Note_on_c, 0, 81, 0
2, 45424, Note_on_c, 0, 80, 63
2, 45439, Note_on_c, 0, 80, 0
2, 45440, Note_on_c, 0, 78, 63
2, 45455, Note_on_c, 0, 78, 0
2, 45456, Note_on_c, 0, 76, 63
2, 45471, Note_on_c, 0, 76, 0
2, 45472, Note_on_c, 0, 75, 63
2, 45487, Note_on_c, 0, 75, 0
2, 45488, Note_on_c, 0, 73, 63
2, 45503, Note_on_c, 0, 73, 0
2, 45504, Note_on_c, 0, 72, 63
2, 45681, Note_on_c, 0, 72, 0
2, 45792, Note_on_c, 0, 75, 85
2, 45815, Note_on_c, 0, 75, 0
2, 45816, Note_on_c, 0, 87, 85
2, 45839, Note_on_c, 0, 87, 0
2, 45840, Note_on_c, 0, 72, 85
2, 45863, Note_on_c, 0, 72, 0
2, 45864, Note_on_c, 0, 84, 87
2, 45887, Note_on_c, 0, 84, 0
2, 45888, Note_on_c, 0, 69, 89
2, 45911, Note_on_c, 0, 69, 0
2, 45912, Note_on_c, 0, 81, 91
2, 45935, Note_on_c, 0, 81, 0
2, 45936, Note_on_c, 0, 66, 93
2, 45959, Note_on_c, 0, 66, 0
2, 45960, Note_on_c, 0, 78, 95
2, 45983, Note_on_c, 0, 78, 0
2, 45984, Note_on_c, 0, 63, 97
2, 46007, Note_on_c, 0, 63, 0
2, 46008, Note_on_c, 0, 75, 99
2, 46031, Note_on_c, 0, 75, 0
2, 46032, Note_on_c, 0, 60, 101
2, 46055, Note_on_c, 0, 60, 0
2, 46056, Note_on_c, 0, 72, 103
2, 46079, Note_on_c, 0, 72, 0
2, 46080, Note_on_c, 0, 69, 106
2, 46080, Note_on_c, 0, 57, 106
2, 46257, Note_on_c, 0, 69, 0
2, 46257, Note_on_c, 0, 57, 0
2, 46272, Note_on_c, 0, 68, 106
2, 46272, Note_on_c, 0, 56, 106
2, 46361, Note_on_c, 0, 68, 0
2, 46361, Note_on_c, 0, 56, 0
2, 46368, Note_on_c, 0, 66, 93
2, 46368, Note_on_c, 0, 54, 93
2, 46457, Note_on_c, 0, 66, 0
2, 46457, Note_on_c, 0, 54, 0
2, 46464, Note_on_c, 0, 52, 81
2, 46487, Note_on_c, 0, 52, 0
2, 46488, Note_on_c, 0, 64, 78
2, 46511, Note_on_c, 0, 64, 0
2, 46512, Note_on_c, 0, 56, 78
2, 46535, Note_on_c, 0, 56, 0
2, 46536, Note_on_c, 0, 68, 78
2, 46559, Note_on_c, 0, 68, 0
2, 46560, Note_on_c, 0, 60, 78
2, 46583, Note_on_c, 0, 60, 0
2, 46584, Note_on_c, 0, 61, 78
2, 46607, Note_on_c, 0, 61, 0
2, 46608, Note_on_c, 0, 63, 78
2, 46631, Note_on_c, 0, 63, 0
2, 46632, Note_on_c, 0, 61, 78
2, 46655, Note_on_c, 0, 61, 0
2, 46656, Note_on_c, 0, 57, 78
2, 46679, Note_on_c, 0, 57, 0
2, 46680, Note_on_c, 0, 69, 78
2, 46703, Note_on_c, 0, 69, 0
2, 46704, Note_on_c, 0, 61, 78
2, 46727, Note_on_c, 0, 61, 0
2, 46728, Note_on_c, 0, 73, 78
2, 46751, Note_on_c, 0, 73, 0
2, 46752, Note_on_c, 0, 65, 78
2, 46775, Note_on_c, 0, 65, 0
2, 46776, Note_on_c, 0, 66, 78
2, 46799, Note_on_c, 0, 66, 0
2, 46800, Note_on_c, 0, 68, 78
2, 46823, Note_on_c, 0, 68, 0
2, 46824, Note_on_c, 0, 66, 78
2, 46847, Note_on_c, 0, 66, 0
2, 46848, Note_on_c, 0, 64, 78
2, 46937, Note_on_c, 0, 64, 0
2, 46944, Note_on_c, 0, 68, 78
2, 46967, Note_on_c, 0, 68, 0
2, 46968, Note_on_c, 0, 66, 78
2, 46991, Note_on_c, 0, 66, 0
2, 46992, Note_on_c, 0, 64, 78
2, 47015, Note_on_c, 0, 64, 0
2, 47016, Note_on_c, 0, 63, 78
2, 47039, Note_on_c, 0, 63, 0
2, 47040, Note_on_c, 0, 64, 78
2, 47063, Note_on_c, 0, 64, 0
2, 47064, Note_on_c, 0, 76, 78
2, 47087, Note_on_c, 0, 76, 0
2, 47088, Note_on_c, 0, 68, 78
2, 47111, Note_on_c, 0, 68, 0
2, 47112, Note_on_c, 0, 80, 78
2, 47135, Note_on_c, 0, 80, 0
2, 47136, Note_on_c, 0, 72, 78
2, 47160, Note_on_c, 0, 72, 0
2, 47160, Note_on_c, 0, 73, 78
2, 47183, Note_on_c, 0, 73, 0
2, 47184, Note_on_c, 0, 75, 78
2, 47207, Note_on_c, 0, 75, 0
2, 47208, Note_on_c, 0, 73, 78
2, 47231, Note_on_c, 0, 73, 0
2, 47232, Note_on_c, 0, 69, 78
2, 47255, Note_on_c, 0, 69, 0
2, 47256, Note_on_c, 0, 81, 78
2, 47279, Note_on_c, 0, 81, 0
2, 47280, Note_on_c, 0, 73, 78
2, 47303, Note_on_c, 0, 73, 0
2, 47304, Note_on_c, 0, 85, 78
2, 47327, Note_on_c, 0, 85, 0
2, 47328, Note_on_c, 0, 72, 78
2, 47351, Note_on_c, 0, 72, 0
2, 47352, Note_on_c, 0, 84, 78
2, 47375, Note_on_c, 0, 84, 0
2, 47376, Note_on_c, 0, 75, 78
2, 47399, Note_on_c, 0, 75, 0
2, 47400, Note_on_c, 0, 87, 78
2, 47423, Note_on_c, 0, 87, 0
2, 47424, Note_on_c, 0, 73, 78
2, 47447, Note_on_c, 0, 73, 0
2, 47448, Note_on_c, 0, 85, 78
2, 47471, Note_on_c, 0, 85, 0
2, 47472, Note_on_c, 0, 76, 79
2, 47495, Note_on_c, 0, 76, 0
2, 47496, Note_on_c, 0, 88, 80
2, 47519, Note_on_c, 0, 88, 0
2, 47520, Note_on_c, 0, 75, 81
2, 47543, Note_on_c, 0, 75, 0
2, 47544, Note_on_c, 0, 87, 82
2, 47567, Note_on_c, 0, 87, 0
2, 47568, Note_on_c, 0, 73, 83
2, 47591, Note_on_c, 0, 73, 0
2, 47592, Note_on_c, 0, 85, 84
2, 47615, Note_on_c, 0, 85, 0
2, 47616, Note_on_c, 0, 71, 85
2, 47639, Note_on_c, 0, 71, 0
2, 47640, Note_on_c, 0, 83, 84
2, 47663, Note_on_c, 0, 83, 0
2, 47664, Note_on_c, 0, 69, 83
2, 47687, Note_on_c, 0, 69, 0
2, 47688, Note_on_c, 0, 81, 82
2, 47711, Note_on_c, 0, 81, 0
2, 47712, Note_on_c, 0, 68, 81
2, 47735, Note_on_c, 0, 68, 0
2, 47736, Note_on_c, 0, 80, 80
2, 47759, Note_on_c, 0, 80, 0
2, 47760, Note_on_c, 0, 67, 79
2, 47783, Note_on_c, 0, 67, 0
2, 47784, Note_on_c, 0, 79, 78
2, 47807, Note_on_c, 0, 79, 0
2, 47808, Note_on_c, 0, 68, 78
2, 47831, Note_on_c, 0, 68, 0
2, 47832, Note_on_c, 0, 80, 78
2, 47855, Note_on_c, 0, 80, 0
2, 47856, Note_on_c, 0, 67, 78
2, 47879, Note_on_c, 0, 67, 0
2, 47880, Note_on_c, 0, 79, 78
2, 47903, Note_on_c, 0, 79, 0
2, 47904, Note_on_c, 0, 68, 78
2, 47927, Note_on_c, 0, 68, 0
2, 47928, Note_on_c, 0, 80, 78
2, 47951, Note_on_c, 0, 80, 0
2, 47952, Note_on_c, 0, 67, 78
2, 47975, Note_on_c, 0, 67, 0
2, 47976, Note_on_c, 0, 79, 78
2, 47999, Note_on_c, 0, 79, 0
2, 48000, Note_on_c, 0, 68, 78
2, 48023, Note_on_c, 0, 68, 0
2, 48024, Note_on_c, 0, 80, 78
2, 48047, Note_on_c, 0, 80, 0
2, 48144, Note_on_c, 0, 72, 78
2, 48156, Note_on_c, 0, 72, 0
2, 48156, Note_on_c, 0, 70, 78
2, 48168, Note_on_c, 0, 70, 0
2, 48168, Note_on_c, 0, 72, 78
2, 48180, Note_on_c, 0, 72, 0
2, 48180, Note_on_c, 0, 73, 78
2, 48192, Note_on_c, 0, 73, 0
2, 48192, Note_on_c, 0, 75, 78
2, 48212, Note_on_c, 0, 75, 0
2, 48240, Note_on_c, 0, 75, 78
2, 48252, Note_on_c, 0, 75, 0
2, 48252, Note_on_c, 0, 73, 78
2, 48264, Note_on_c, 0, 73, 0
2, 48264, Note_on_c, 0, 75, 78
2, 48276, Note_on_c, 0, 75, 0
2, 48276, Note_on_c, 0, 76, 78
2, 48288, Note_on_c, 0, 76, 0
2, 48288, Note_on_c, 0, 78, 78
2, 48308, Note_on_c, 0, 78, 0
2, 48336, Note_on_c, 0, 78, 78
2, 48348, Note_on_c, 0, 78, 0
2, 48348, Note_on_c, 0, 76, 78
2, 48360, Note_on_c, 0, 76, 0
2, 48360, Note_on_c, 0, 78, 78
2, 48372, Note_on_c, 0, 78, 0
2, 48372, Note_on_c, 0, 80, 78
2, 48384, Note_on_c, 0, 80, 0
2, 48384, Note_on_c, 0, 81, 78
2, 48404, Note_on_c, 0, 81, 0
2, 48432, Note_on_c, 0, 75, 78
2, 48452, Note_on_c, 0, 75, 0
2, 48480, Note_on_c, 0, 78, 78
2, 48500, Note_on_c, 0, 78, 0
2, 48528, Note_on_c, 0, 72, 78
2, 48548, Note_on_c, 0, 72, 0
2, 48576, Note_on_c, 0, 68, 101
2, 48576, Note_on_c, 0, 73, 101
2, 48576, Note_on_c, 0, 76, 101
2, 48576, Note_on_c, 0, 80, 101
2, 48624, Note_on_c, 0, 80, 0
2, 48624, Note_on_c, 0, 76, 0
2, 48624, Note_on_c, 0, 73, 0
2, 48624, Note_on_c, 0, 68, 0
2, 48672, Note_on_c, 0, 69, 85
2, 48680, Note_on_c, 0, 75, 85
2, 48688, Note_on_c, 0, 78, 85
2, 48717, Note_on_c, 0, 78, 0
2, 48717, Note_on_c, 0, 75, 0
2, 48717, Note_on_c, 0, 69, 0
2, 48768, Note_on_c, 0, 68, 85
2, 48776, Note_on_c, 0, 73, 85
2, 48784, Note_on_c, 0, 76, 85
2, 48813, Note_on_c, 0, 76, 0
2, 48813, Note_on_c, 0, 73, 0
2, 48813, Note_on_c, 0, 68, 0
2, 48912, Note_on_c, 0, 75, 78
2, 48948, Note_on_c, 0, 75, 0
2, 48948, Note_on_c, 0, 72, 78
2, 48960, Note_on_c, 0, 72, 0
2, 48960, Note_on_c, 0, 73, 78
2, 48980, Note_on_c, 0, 73, 0
2, 49008, Note_on_c, 0, 80, 78
2, 49008, Note_on_c, 0, 76, 78
2, 49056, Note_on_c, 0, 80, 0
2, 49056, Note_on_c, 0, 73, 78
2, 49101, Note_on_c, 0, 76, 0
2, 49101, Note_on_c, 0, 73, 0
2, 49104, Note_on_c, 0, 72, 78
2, 49138, Note_on_c, 0, 72, 0
2, 49140, Note_on_c, 0, 68, 78
2, 49152, Note_on_c, 0, 68, 0
2, 49152, Note_on_c, 0, 73, 78
2, 49172, Note_on_c, 0, 73, 0
2, 49200, Note_on_c, 0, 75, 78
2, 49200, Note_on_c, 0, 72, 78
2, 49248, Note_on_c, 0, 75, 0
2, 49248, Note_on_c, 0, 72, 0
2, 49248, Note_on_c, 0, 76, 78
2, 49248, Note_on_c, 0, 73, 78
2, 49293, Note_on_c, 0, 76, 0
2, 49293, Note_on_c, 0, 73, 0
2, 49296, Note_on_c, 0, 75, 78
2, 49330, Note_on_c, 0, 75, 0
2, 49332, Note_on_c, 0, 72, 78
2, 49344, Note_on_c, 0, 72, 0
2, 49344, Note_on_c, 0, 73, 70
2, 49364, Note_on_c, 0, 73, 0
2, 49392, Note_on_c, 0, 80, 70
2, 49392, Note_on_c, 0, 76, 70
2, 49440, Note_on_c, 0, 80, 0
2, 49440, Note_on_c, 0, 73, 70
2, 49485, Note_on_c, 0, 76, 0
2, 49485, Note_on_c, 0, 73, 0
2, 49488, Note_on_c, 0, 72, 70
2, 49522, Note_on_c, 0, 72, 0
2, 49524, Note_on_c, 0, 68, 70
2, 49536, Note_on_c, 0, 68, 0
2, 49536, Note_on_c, 0, 73, 70
2, 49556, Note_on_c, 0, 73, 0
2, 49632, Note_on_c, 0, 84, 63
2, 49632, Note_on_c, 0, 75, 63
2, 49652, Note_on_c, 0, 84, 0
2, 49652, Note_on_c, 0, 75, 0
2, 49728, Note_on_c, 0, 85, 63
2, 49728, Note_on_c, 0, 76, 63
2, 49767, Note_on_c, 0, 85, 0
2, 49767, Note_on_c, 0, 76, 0
2, 49920, Note_on_c, 0, 76, 78
2, 49943, Note_on_c, 0, 76, 0
2, 49944, Note_on_c, 0, 78, 78
2, 49952, Note_on_c, 0, 78, 0
2, 49952, Note_on_c, 0, 76, 78
2, 49960, Note_on_c, 0, 76, 0
2, 49960, Note_on_c, 0, 75, 78
2, 49968, Note_on_c, 0, 75, 0
2, 49968, Note_on_c, 0, 76, 78
2, 49991, Note_on_c, 0, 76, 0
2, 49992, Note_on_c, 0, 78, 78
2, 50015, Note_on_c, 0, 78, 0
2, 50016, Note_on_c, 0, 80, 78
2, 50061, Note_on_c, 0, 80, 0
2, 50064, Note_on_c, 0, 78, 78
2, 50109, Note_on_c, 0, 78, 0
2, 50112, Note_on_c, 0, 76, 78
2, 50157, Note_on_c, 0, 76, 0
2, 50160, Note_on_c, 0, 71, 78
2, 50205, Note_on_c, 0, 71, 0
2, 50208, Note_on_c, 0, 76, 78
2, 50253, Note_on_c, 0, 76, 0
2, 50256, Note_on_c, 0, 80, 78
2, 50301, Note_on_c, 0, 80, 0
2, 50304, Note_on_c, 0, 78, 78
2, 50327, Note_on_c, 0, 78, 0
2, 50328, Note_on_c, 0, 80, 78
2, 50336, Note_on_c, 0, 80, 0
2, 50336, Note_on_c, 0, 78, 78
2, 50344, Note_on_c, 0, 78, 0
2, 50344, Note_on_c, 0, 76, 78
2, 50352, Note_on_c, 0, 76, 0
2, 50352, Note_on_c, 0, 78, 78
2, 50375, Note_on_c, 0, 78, 0
2, 50376, Note_on_c, 0, 80, 78
2, 50399, Note_on_c, 0, 80, 0
2, 50400, Note_on_c, 0, 81, 78
2, 50445, Note_on_c, 0, 81, 0
2, 50448, Note_on_c, 0, 80, 78
2, 50493, Note_on_c, 0, 80, 0
2, 50496, Note_on_c, 0, 78, 78
2, 50541, Note_on_c, 0, 78, 0
2, 50544, Note_on_c, 0, 71, 78
2, 50589, Note_on_c, 0, 71, 0
2, 50592, Note_on_c, 0, 78, 78
2, 50637, Note_on_c, 0, 78, 0
2, 50640, Note_on_c, 0, 81, 78
2, 50685, Note_on_c, 0, 81, 0
2, 50688, Note_on_c, 0, 80, 78
2, 50711, Note_on_c, 0, 80, 0
2, 50712, Note_on_c, 0, 81, 78
2, 50720, Note_on_c, 0, 81, 0
2, 50720, Note_on_c, 0, 80, 78
2, 50728, Note_on_c, 0, 80, 0
2, 50728, Note_on_c, 0, 78, 78
2, 50736, Note_on_c, 0, 78, 0
2, 50736, Note_on_c, 0, 80, 78
2, 50759, Note_on_c, 0, 80, 0
2, 50760, Note_on_c, 0, 81, 78
2, 50783, Note_on_c, 0, 81, 0
2, 50784, Note_on_c, 0, 83, 78
2, 50807, Note_on_c, 0, 83, 0
2, 50808, Note_on_c, 0, 81, 78
2, 50831, Note_on_c, 0, 81, 0
2, 50832, Note_on_c, 0, 80, 78
2, 50855, Note_on_c, 0, 80, 0
2, 50856, Note_on_c, 0, 78, 78
2, 50879, Note_on_c, 0, 78, 0
2, 50880, Note_on_c, 0, 77, 78
2, 50903, Note_on_c, 0, 77, 0
2, 50904, Note_on_c, 0, 80, 79
2, 50927, Note_on_c, 0, 80, 0
2, 50928, Note_on_c, 0, 83, 81
2, 50951, Note_on_c, 0, 83, 0
2, 50952, Note_on_c, 0, 86, 83
2, 50975, Note_on_c, 0, 86, 0
2, 50976, Note_on_c, 0, 85, 85
2, 50999, Note_on_c, 0, 85, 0
2, 51000, Note_on_c, 0, 83, 83
2, 51023, Note_on_c, 0, 83, 0
2, 51024, Note_on_c, 0, 81, 81
2, 51047, Note_on_c, 0, 81, 0
2, 51048, Note_on_c, 0, 80, 79
2, 51071, Note_on_c, 0, 80, 0
2, 51072, Note_on_c, 0, 78, 78
2, 51095, Note_on_c, 0, 78, 0
2, 51096, Note_on_c, 0, 80, 78
2, 51104, Note_on_c, 0, 80, 0
2, 51104, Note_on_c, 0, 78, 78
2, 51112, Note_on_c, 0, 78, 0
2, 51112, Note_on_c, 0, 77, 78
2, 51120, Note_on_c, 0, 77, 0
2, 51120, Note_on_c, 0, 78, 78
2, 51143, Note_on_c, 0, 78, 0
2, 51144, Note_on_c, 0, 80, 78
2, 51167, Note_on_c, 0, 80, 0
2, 51168, Note_on_c, 0, 81, 78
2, 51213, Note_on_c, 0, 81, 0
2, 51216, Note_on_c, 0, 80, 78
2, 51261, Note_on_c, 0, 80, 0
2, 51264, Note_on_c, 0, 78, 78
2, 51284, Note_on_c, 0, 78, 0
2, 51312, Note_on_c, 0, 73, 78
2, 51332, Note_on_c, 0, 73, 0
2, 51360, Note_on_c, 0, 78, 78
2, 51380, Note_on_c, 0, 78, 0
2, 51408, Note_on_c, 0, 81, 78
2, 51428, Note_on_c, 0, 81, 0
2, 51456, Note_on_c, 0, 78, 78
2, 51501, Note_on_c, 0, 78, 0
2, 51504, Note_on_c, 0, 85, 70
2, 51549, Note_on_c, 0, 85, 0
2, 51552, Note_on_c, 0, 85, 70
2, 51597, Note_on_c, 0, 85, 0
2, 51600, Note_on_c, 0, 85, 70
2, 51645, Note_on_c, 0, 85, 0
2, 51648, Note_on_c, 0, 87, 70
2, 51654, Note_on_c, 0, 87, 0
2, 51654, Note_on_c, 0, 85, 70
2, 51660, Note_on_c, 0, 85, 0
2, 51660, Note_on_c, 0, 84, 70
2, 51666, Note_on_c, 0, 84, 0
2, 51666, Note_on_c, 0, 85, 70
2, 51737, Note_on_c, 0, 85, 0
2, 51888, Note_on_c, 0, 85, 70
2, 51933, Note_on_c, 0, 85, 0
2, 51936, Note_on_c, 0, 85, 70
2, 51981, Note_on_c, 0, 85, 0
2, 51984, Note_on_c, 0, 85, 70
2, 52029, Note_on_c, 0, 85, 0
2, 52032, Note_on_c, 0, 87, 70
2, 52038, Note_on_c, 0, 87, 0
2, 52038, Note_on_c, 0, 85, 70
2, 52044, Note_on_c, 0, 85, 0
2, 52044, Note_on_c, 0, 84, 70
2, 52050, Note_on_c, 0, 84, 0
2, 52050, Note_on_c, 0, 85, 70
2, 52121, Note_on_c, 0, 85, 0
2, 52272, Note_on_c, 0, 78, 70
2, 52317, Note_on_c, 0, 78, 0
2, 52320, Note_on_c, 0, 78, 70
2, 52365, Note_on_c, 0, 78, 0
2, 52368, Note_on_c, 0, 78, 70
2, 52413, Note_on_c, 0, 78, 0
2, 52416, Note_on_c, 0, 80, 70
2, 52422, Note_on_c, 0, 80, 0
2, 52422, Note_on_c, 0, 78, 70
2, 52428, Note_on_c, 0, 78, 0
2, 52428, Note_on_c, 0, 77, 70
2, 52434, Note_on_c, 0, 77, 0
2, 52434, Note_on_c, 0, 78, 86
2, 52464, Note_on_c, 0, 78, 0
2, 52464, Note_on_c, 0, 81, 85
2, 52464, Note_on_c, 0, 73, 85
2, 52464, Note_on_c, 0, 69, 85
2, 52509, Note_on_c, 0, 81, 0
2, 52509, Note_on_c, 0, 73, 0
2, 52509, Note_on_c, 0, 69, 0
2, 52512, Note_on_c, 0, 81, 85
2, 52512, Note_on_c, 0, 73, 85
2, 52512, Note_on_c, 0, 69, 85
2, 52557, Note_on_c, 0, 81, 0
2, 52557, Note_on_c, 0, 73, 0
2, 52557, Note_on_c, 0, 69, 0
2, 52560, Note_on_c, 0, 81, 85
2, 52560, Note_on_c, 0, 73, 85
2, 52560, Note_on_c, 0, 69, 85
2, 52605, Note_on_c, 0, 81, 0
2, 52605, Note_on_c, 0, 73, 0
2, 52605, Note_on_c, 0, 69, 0
2, 52608, Control_c, 0, 64, 127
2, 52608, Note_on_c, 0, 81, 85
2, 52653, Note_on_c, 0, 81, 0
2, 52656, Note_on_c, 0, 79, 85
2, 52701, Note_on_c, 0, 79, 0
2, 52704, Note_on_c, 0, 79, 85
2, 52749, Note_on_c, 0, 79, 0
2, 52752, Note_on_c, 0, 79, 85
2, 52797, Note_on_c, 0, 79, 0
2, 52800, Note_on_c, 0, 79, 85
2, 52889, Note_on_c, 0, 79, 0
2, 52896, Control_c, 0, 64, 0
2, 53040, Note_on_c, 0, 79, 63
2, 53085, Note_on_c, 0, 79, 0
2, 53088, Note_on_c, 0, 79, 63
2, 53133, Note_on_c, 0, 79, 0
2, 53136, Note_on_c, 0, 79, 63
2, 53181, Note_on_c, 0, 79, 0
2, 53184, Note_on_c, 0, 79, 63
2, 53229, Note_on_c, 0, 79, 0
2, 53232, Note_on_c, 0, 79, 85
2, 53277, Note_on_c, 0, 79, 0
2, 53280, Note_on_c, 0, 79, 85
2, 53325, Note_on_c, 0, 79, 0
2, 53328, Note_on_c, 0, 79, 85
2, 53373, Note_on_c, 0, 79, 0
2, 53376, Control_c, 0, 64, 127
2, 53376, Note_on_c, 0, 80, 85
2, 53421, Note_on_c, 0, 80, 0
2, 53424, Note_on_c, 0, 80, 85
2, 53469, Note_on_c, 0, 80, 0
2, 53472, Note_on_c, 0, 80, 85
2, 53517, Note_on_c, 0, 80, 0
2, 53520, Note_on_c, 0, 80, 85
2, 53565, Note_on_c, 0, 80, 0
2, 53568, Note_on_c, 0, 80, 85
2, 53657, Note_on_c, 0, 80, 0
2, 53760, Control_c, 0, 64, 0
2, 53760, Note_on_c, 0, 56, 78
2, 53805, Note_on_c, 0, 56, 0
2, 53808, Note_on_c, 0, 56, 78
2, 53820, Note_on_c, 0, 56, 0
2, 53820, Note_on_c, 0, 55, 78
2, 53832, Note_on_c, 0, 55, 0
2, 53832, Note_on_c, 0, 56, 78
2, 53844, Note_on_c, 0, 56, 0
2, 53844, Note_on_c, 0, 58, 78
2, 53856, Note_on_c, 0, 58, 0
2, 53856, Note_on_c, 0, 59, 78
2, 53901, Note_on_c, 0, 59, 0
2, 53904, Note_on_c, 0, 58, 78
2, 53949, Note_on_c, 0, 58, 0
2, 53952, Note_on_c, 0, 56, 78
2, 53972, Note_on_c, 0, 56, 0
2, 54000, Note_on_c, 0, 51, 78
2, 54020, Note_on_c, 0, 51, 0
2, 54048, Note_on_c, 0, 56, 78
2, 54068, Note_on_c, 0, 56, 0
2, 54096, Note_on_c, 0, 59, 78
2, 54116, Note_on_c, 0, 59, 0
2, 54144, Note_on_c, 0, 56, 78
2, 54189, Note_on_c, 0, 56, 0
2, 54192, Note_on_c, 0, 63, 70
2, 54237, Note_on_c, 0, 63, 0
2, 54240, Note_on_c, 0, 63, 70
2, 54285, Note_on_c, 0, 63, 0
2, 54288, Note_on_c, 0, 63, 70
2, 54333, Note_on_c, 0, 63, 0
2, 54336, Note_on_c, 0, 64, 70
2, 54342, Note_on_c, 0, 64, 0
2, 54342, Note_on_c, 0, 63, 70
2, 54348, Note_on_c, 0, 63, 0
2, 54348, Note_on_c, 0, 62, 70
2, 54354, Note_on_c, 0, 62, 0
2, 54354, Note_on_c, 0, 63, 70
2, 54425, Note_on_c, 0, 63, 0
2, 54576, Note_on_c, 0, 63, 70
2, 54621, Note_on_c, 0, 63, 0
2, 54624, Note_on_c, 0, 63, 70
2, 54669, Note_on_c, 0, 63, 0
2, 54672, Note_on_c, 0, 63, 70
2, 54717, Note_on_c, 0, 63, 0
2, 54720, Note_on_c, 0, 64, 70
2, 54726, Note_on_c, 0, 64, 0
2, 54726, Note_on_c, 0, 63, 70
2, 54732, Note_on_c, 0, 63, 0
2, 54732, Note_on_c, 0, 62, 70
2, 54738, Note_on_c, 0, 62, 0
2, 54738, Note_on_c, 0, 63, 70
2, 54809, Note_on_c, 0, 63, 0
2, 54960, Note_on_c, 0, 68, 70
2, 55005, Note_on_c, 0, 68, 0
2, 55008, Note_on_c, 0, 68, 70
2, 55053, Note_on_c, 0, 68, 0
2, 55056, Note_on_c, 0, 68, 70
2, 55101, Note_on_c, 0, 68, 0
2, 55104, Note_on_c, 0, 69, 70
2, 55110, Note_on_c, 0, 69, 0
2, 55110, Note_on_c, 0, 68, 70
2, 55116, Note_on_c, 0, 68, 0
2, 55116, Note_on_c, 0, 67, 70
2, 55122, Note_on_c, 0, 67, 0
2, 55122, Note_on_c, 0, 68, 86
2, 55152, Note_on_c, 0, 68, 0
2, 55152, Note_on_c, 0, 71, 70
2, 55197, Note_on_c, 0, 71, 0
2, 55200, Note_on_c, 0, 71, 70
2, 55245, Note_on_c, 0, 71, 0
2, 55248, Note_on_c, 0, 71, 70
2, 55293, Note_on_c, 0, 71, 0
2, 55296, Note_on_c, 0, 71, 86
2, 55392, Note_on_c, 0, 71, 0
2, 55392, Note_on_c, 0, 70, 70
2, 55412, Note_on_c, 0, 70, 0
2, 55440, Note_on_c, 0, 76, 71
2, 55460, Note_on_c, 0, 76, 0
2, 55488, Note_on_c, 0, 68, 87
2, 55584, Note_on_c, 0, 68, 0
2, 55584, Note_on_c, 0, 67, 72
2, 55604, Note_on_c, 0, 67, 0
2, 55632, Note_on_c, 0, 73, 72
2, 55652, Note_on_c, 0, 73, 0
2, 55680, Note_on_c, 0, 73, 88
2, 55776, Note_on_c, 0, 73, 0
2, 55776, Note_on_c, 0, 72, 73
2, 55796, Note_on_c, 0, 72, 0
2, 55824, Note_on_c, 0, 78, 73
2, 55844, Note_on_c, 0, 78, 0
2, 55872, Note_on_c, 0, 66, 90
2, 55968, Note_on_c, 0, 66, 0
2, 55968, Note_on_c, 0, 65, 74
2, 55988, Note_on_c, 0, 65, 0
2, 56016, Note_on_c, 0, 71, 75
2, 56036, Note_on_c, 0, 71, 0
2, 56064, Note_on_c, 0, 71, 91
2, 56160, Note_on_c, 0, 71, 0
2, 56160, Note_on_c, 0, 70, 76
2, 56180, Note_on_c, 0, 70, 0
2, 56208, Note_on_c, 0, 76, 76
2, 56228, Note_on_c, 0, 76, 0
2, 56256, Note_on_c, 0, 64, 92
2, 56352, Note_on_c, 0, 64, 0
2, 56352, Note_on_c, 0, 63, 77
2, 56372, Note_on_c, 0, 63, 0
2, 56400, Note_on_c, 0, 69, 77
2, 56420, Note_on_c, 0, 69, 0
2, 56448, Note_on_c, 0, 64, 78
2, 56471, Note_on_c, 0, 64, 0
2, 56472, Control_c, 0, 64, 127
2, 56472, Note_on_c, 0, 76, 78
2, 56495, Note_on_c, 0, 76, 0
2, 56496, Note_on_c, 0, 68, 78
2, 56519, Note_on_c, 0, 68, 0
2, 56520, Note_on_c, 0, 76, 78
2, 56543, Note_on_c, 0, 76, 0
2, 56544, Note_on_c, 0, 71, 78
2, 56567, Note_on_c, 0, 71, 0
2, 56568, Note_on_c, 0, 76, 78
2, 56591, Note_on_c, 0, 76, 0
2, 56592, Note_on_c, 0, 68, 78
2, 56615, Note_on_c, 0, 68, 0
2, 56616, Note_on_c, 0, 76, 78
2, 56639, Note_on_c, 0, 76, 0
2, 56640, Note_on_c, 0, 64, 78
2, 56663, Note_on_c, 0, 64, 0
2, 56664, Note_on_c, 0, 76, 78
2, 56687, Note_on_c, 0, 76, 0
2, 56688, Note_on_c, 0, 68, 78
2, 56711, Note_on_c, 0, 68, 0
2, 56712, Note_on_c, 0, 76, 78
2, 56735, Note_on_c, 0, 76, 0
2, 56736, Note_on_c, 0, 71, 78
2, 56759, Note_on_c, 0, 71, 0
2, 56760, Note_on_c, 0, 76, 78
2, 56783, Note_on_c, 0, 76, 0
2, 56784, Note_on_c, 0, 68, 78
2, 56807, Note_on_c, 0, 68, 0
2, 56808, Control_c, 0, 64, 0
2, 56808, Note_on_c, 0, 76, 78
2, 56831, Note_on_c, 0, 76, 0
2, 56832, Control_c, 0, 64, 127
2, 56832, Note_on_c, 0, 65, 78
2, 56855, Note_on_c, 0, 65, 0
2, 56856, Note_on_c, 0, 74, 78
2, 56879, Note_on_c, 0, 74, 0
2, 56880, Note_on_c, 0, 68, 79
2, 56903, Note_on_c, 0, 68, 0
2, 56904, Note_on_c, 0, 74, 79
2, 56927, Note_on_c, 0, 74, 0
2, 56928, Note_on_c, 0, 71, 79
2, 56951, Note_on_c, 0, 71, 0
2, 56952, Note_on_c, 0, 74, 79
2, 56975, Note_on_c, 0, 74, 0
2, 56976, Note_on_c, 0, 68, 79
2, 56999, Note_on_c, 0, 68, 0
2, 57000, Note_on_c, 0, 74, 79
2, 57023, Note_on_c, 0, 74, 0
2, 57024, Note_on_c, 0, 65, 79
2, 57047, Note_on_c, 0, 65, 0
2, 57048, Note_on_c, 0, 74, 79
2, 57071, Note_on_c, 0, 74, 0
2, 57072, Note_on_c, 0, 68, 79
2, 57095, Note_on_c, 0, 68, 0
2, 57096, Note_on_c, 0, 74, 79
2, 57119, Note_on_c, 0, 74, 0
2, 57120, Note_on_c, 0, 71, 79
2, 57143, Note_on_c, 0, 71, 0
2, 57144, Note_on_c, 0, 74, 79
2, 57167, Note_on_c, 0, 74, 0
2, 57168, Note_on_c, 0, 68, 79
2, 57191, Note_on_c, 0, 68, 0
2, 57192, Control_c, 0, 64, 0
2, 57192, Note_on_c, 0, 74, 79
2, 57215, Note_on_c, 0, 74, 0
2, 57216, Control_c, 0, 64, 127
2, 57216, Note_on_c, 0, 66, 79
2, 57239, Note_on_c, 0, 66, 0
2, 57240, Note_on_c, 0, 78, 79
2, 57263, Note_on_c, 0, 78, 0
2, 57264, Note_on_c, 0, 69, 80
2, 57287, Note_on_c, 0, 69, 0
2, 57288, Note_on_c, 0, 78, 80
2, 57311, Note_on_c, 0, 78, 0
2, 57312, Note_on_c, 0, 73, 80
2, 57335, Note_on_c, 0, 73, 0
2, 57336, Note_on_c, 0, 78, 80
2, 57359, Note_on_c, 0, 78, 0
2, 57360, Note_on_c, 0, 69, 80
2, 57383, Note_on_c, 0, 69, 0
2, 57384, Note_on_c, 0, 78, 80
2, 57407, Note_on_c, 0, 78, 0
2, 57408, Note_on_c, 0, 66, 80
2, 57431, Note_on_c, 0, 66, 0
2, 57432, Note_on_c, 0, 78, 80
2, 57455, Note_on_c, 0, 78, 0
2, 57456, Note_on_c, 0, 69, 80
2, 57479, Note_on_c, 0, 69, 0
2, 57480, Note_on_c, 0, 78, 80
2, 57503, Note_on_c, 0, 78, 0
2, 57504, Note_on_c, 0, 73, 80
2, 57527, Note_on_c, 0, 73, 0
2, 57528, Note_on_c, 0, 78, 80
2, 57551, Note_on_c, 0, 78, 0
2, 57552, Note_on_c, 0, 69, 80
2, 57575, Note_on_c, 0, 69, 0
2, 57576, Control_c, 0, 64, 0
2, 57576, Note_on_c, 0, 78, 80
2, 57599, Note_on_c, 0, 78, 0
2, 57600, Control_c, 0, 64, 127
2, 57600, Note_on_c, 0, 67, 80
2, 57623, Note_on_c, 0, 67, 0
2, 57624, Note_on_c, 0, 76, 80
2, 57647, Note_on_c, 0, 76, 0
2, 57648, Note_on_c, 0, 70, 81
2, 57671, Note_on_c, 0, 70, 0
2, 57672, Note_on_c, 0, 76, 81
2, 57695, Note_on_c, 0, 76, 0
2, 57696, Note_on_c, 0, 73, 81
2, 57719, Note_on_c, 0, 73, 0
2, 57720, Note_on_c, 0, 76, 81
2, 57743, Note_on_c, 0, 76, 0
2, 57744, Note_on_c, 0, 70, 81
2, 57767, Note_on_c, 0, 70, 0
2, 57768, Note_on_c, 0, 76, 81
2, 57791, Note_on_c, 0, 76, 0
2, 57792, Note_on_c, 0, 67, 81
2, 57815, Note_on_c, 0, 67, 0
2, 57816, Note_on_c, 0, 76, 81
2, 57839, Note_on_c, 0, 76, 0
2, 57840, Note_on_c, 0, 70, 81
2, 57863, Note_on_c, 0, 70, 0
2, 57864, Note_on_c, 0, 76, 81
2, 57887, Note_on_c, 0, 76, 0
2, 57888, Note_on_c, 0, 73, 81
2, 57911, Note_on_c, 0, 73, 0
2, 57912, Note_on_c, 0, 76, 81
2, 57935, Note_on_c, 0, 76, 0
2, 57936, Note_on_c, 0, 70, 81
2, 57959, Note_on_c, 0, 70, 0
2, 57960, Control_c, 0, 64, 0
2, 57960, Note_on_c, 0, 76, 81
2, 57983, Note_on_c, 0, 76, 0
2, 57984, Control_c, 0, 64, 127
2, 57984, Note_on_c, 0, 68, 81
2, 58007, Note_on_c, 0, 68, 0
2, 58008, Note_on_c, 0, 80, 82
2, 58031, Note_on_c, 0, 80, 0
2, 58032, Note_on_c, 0, 71, 82
2, 58055, Note_on_c, 0, 71, 0
2, 58056, Note_on_c, 0, 80, 82
2, 58079, Note_on_c, 0, 80, 0
2, 58080, Note_on_c, 0, 75, 82
2, 58103, Note_on_c, 0, 75, 0
2, 58104, Note_on_c, 0, 80, 82
2, 58127, Note_on_c, 0, 80, 0
2, 58128, Note_on_c, 0, 71, 82
2, 58151, Note_on_c, 0, 71, 0
2, 58152, Note_on_c, 0, 80, 82
2, 58175, Note_on_c, 0, 80, 0
2, 58176, Note_on_c, 0, 68, 82
2, 58199, Note_on_c, 0, 68, 0
2, 58200, Note_on_c, 0, 80, 82
2, 58223, Note_on_c, 0, 80, 0
2, 58224, Note_on_c, 0, 71, 82
2, 58247, Note_on_c, 0, 71, 0
2, 58248, Note_on_c, 0, 80, 82
2, 58271, Note_on_c, 0, 80, 0
2, 58272, Note_on_c, 0, 75, 82
2, 58295, Note_on_c, 0, 75, 0
2, 58296, Note_on_c, 0, 80, 82
2, 58319, Note_on_c, 0, 80, 0
2, 58320, Note_on_c, 0, 71, 82
2, 58343, Note_on_c, 0, 71, 0
2, 58344, Control_c, 0, 64, 0
2, 58344, Note_on_c, 0, 80, 82
2, 58367, Note_on_c, 0, 80, 0
2, 58368, Control_c, 0, 64, 127
2, 58368, Note_on_c, 0, 69, 82
2, 58391, Note_on_c, 0, 69, 0
2, 58392, Note_on_c, 0, 81, 83
2, 58415, Note_on_c, 0, 81, 0
2, 58416, Note_on_c, 0, 72, 83
2, 58439, Note_on_c, 0, 72, 0
2, 58440, Note_on_c, 0, 81, 83
2, 58463, Note_on_c, 0, 81, 0
2, 58464, Note_on_c, 0, 75, 83
2, 58487, Note_on_c, 0, 75, 0
2, 58488, Note_on_c, 0, 81, 83
2, 58511, Note_on_c, 0, 81, 0
2, 58512, Note_on_c, 0, 72, 83
2, 58535, Note_on_c, 0, 72, 0
2, 58536, Note_on_c, 0, 81, 83
2, 58559, Note_on_c, 0, 81, 0
2, 58560, Note_on_c, 0, 69, 83
2, 58583, Note_on_c, 0, 69, 0
2, 58584, Note_on_c, 0, 81, 83
2, 58607, Note_on_c, 0, 81, 0
2, 58608, Note_on_c, 0, 72, 83
2, 58631, Note_on_c, 0, 72, 0
2, 58632, Note_on_c, 0, 81, 83
2, 58655, Note_on_c, 0, 81, 0
2, 58656, Note_on_c, 0, 75, 83
2, 58679, Note_on_c, 0, 75, 0
2, 58680, Note_on_c, 0, 81, 83
2, 58703, Note_on_c, 0, 81, 0
2, 58704, Note_on_c, 0, 72, 83
2, 58727, Note_on_c, 0, 72, 0
2, 58728, Control_c, 0, 64, 0
2, 58728, Note_on_c, 0, 81, 83
2, 58751, Note_on_c, 0, 81, 0
2, 58752, Control_c, 0, 64, 127
2, 58752, Note_on_c, 0, 69, 83
2, 58775, Note_on_c, 0, 69, 0
2, 58776, Note_on_c, 0, 81, 84
2, 58799, Note_on_c, 0, 81, 0
2, 58800, Note_on_c, 0, 72, 84
2, 58823, Note_on_c, 0, 72, 0
2, 58824, Note_on_c, 0, 81, 84
2, 58847, Note_on_c, 0, 81, 0
2, 58848, Note_on_c, 0, 75, 84
2, 58871, Note_on_c, 0, 75, 0
2, 58872, Note_on_c, 0, 81, 84
2, 58895, Note_on_c, 0, 81, 0
2, 58896, Note_on_c, 0, 72, 84
2, 58919, Note_on_c, 0, 72, 0
2, 58920, Note_on_c, 0, 81, 84
2, 58943, Note_on_c, 0, 81, 0
2, 58944, Note_on_c, 0, 69, 84
2, 58967, Note_on_c, 0, 69, 0
2, 58968, Note_on_c, 0, 81, 84
2, 58991, Note_on_c, 0, 81, 0
2, 58992, Note_on_c, 0, 72, 84
2, 59015, Note_on_c, 0, 72, 0
2, 59016, Note_on_c, 0, 81, 84
2, 59039, Note_on_c, 0, 81, 0
2, 59040, Note_on_c, 0, 75, 84
2, 59063, Note_on_c, 0, 75, 0
2, 59064, Note_on_c, 0, 81, 84
2, 59087, Note_on_c, 0, 81, 0
2, 59088, Note_on_c, 0, 72, 84
2, 59111, Note_on_c, 0, 72, 0
2, 59112, Control_c, 0, 64, 0
2, 59112, Note_on_c, 0, 81, 84
2, 59135, Note_on_c, 0, 81, 0
2, 59136, Control_c, 0, 64, 127
2, 59136, Note_on_c, 0, 69, 85
2, 59159, Note_on_c, 0, 69, 0
2, 59160, Note_on_c, 0, 81, 85
2, 59183, Note_on_c, 0, 81, 0
2, 59184, Note_on_c, 0, 73, 85
2, 59207, Note_on_c, 0, 73, 0
2, 59208, Note_on_c, 0, 81, 85
2, 59231, Note_on_c, 0, 81, 0
2, 59232, Note_on_c, 0, 76, 85
2, 59255, Note_on_c, 0, 76, 0
2, 59256, Note_on_c, 0, 81, 85
2, 59279, Note_on_c, 0, 81, 0
2, 59280, Note_on_c, 0, 73, 85
2, 59303, Note_on_c, 0, 73, 0
2, 59304, Note_on_c, 0, 81, 85
2, 59327, Note_on_c, 0, 81, 0
2, 59328, Note_on_c, 0, 69, 85
2, 59351, Note_on_c, 0, 69, 0
2, 59352, Note_on_c, 0, 81, 85
2, 59375, Note_on_c, 0, 81, 0
2, 59376, Note_on_c, 0, 73, 85
2, 59399, Note_on_c, 0, 73, 0
2, 59400, Note_on_c, 0, 81, 85
2, 59423, Note_on_c, 0, 81, 0
2, 59424, Note_on_c, 0, 76, 85
2, 59447, Note_on_c, 0, 76, 0
2, 59448, Note_on_c, 0, 81, 85
2, 59471, Note_on_c, 0, 81, 0
2, 59472, Note_on_c, 0, 73, 85
2, 59495, Note_on_c, 0, 73, 0
2, 59496, Control_c, 0, 64, 0
2, 59496, Note_on_c, 0, 81, 85
2, 59519, Note_on_c, 0, 81, 0
2, 59520, Control_c, 0, 64, 127
2, 59520, Note_on_c, 0, 69, 85
2, 59543, Note_on_c, 0, 69, 0
2, 59544, Note_on_c, 0, 81, 85
2, 59567, Note_on_c, 0, 81, 0
2, 59568, Note_on_c, 0, 72, 85
2, 59591, Note_on_c, 0, 72, 0
2, 59592, Note_on_c, 0, 81, 85
2, 59615, Note_on_c, 0, 81, 0
2, 59616, Note_on_c, 0, 75, 85
2, 59639, Note_on_c, 0, 75, 0
2, 59640, Note_on_c, 0, 81, 85
2, 59663, Note_on_c, 0, 81, 0
2, 59664, Note_on_c, 0, 72, 85
2, 59687, Note_on_c, 0, 72, 0
2, 59688, Note_on_c, 0, 81, 85
2, 59711, Note_on_c, 0, 81, 0
2, 59712, Note_on_c, 0, 69, 85
2, 59735, Note_on_c, 0, 69, 0
2, 59736, Note_on_c, 0, 81, 85
2, 59759, Note_on_c, 0, 81, 0
2, 59760, Note_on_c, 0, 72, 85
2, 59783, Note_on_c, 0, 72, 0
2, 59784, Note_on_c, 0, 81, 85
2, 59807, Note_on_c, 0, 81, 0
2, 59808, Note_on_c, 0, 75, 85
2, 59831, Note_on_c, 0, 75, 0
2, 59832, Note_on_c, 0, 81, 85
2, 59855, Note_on_c, 0, 81, 0
2, 59856, Note_on_c, 0, 72, 85
2, 59879, Note_on_c, 0, 72, 0
2, 59880, Control_c, 0, 64, 0
2, 59880, Note_on_c, 0, 81, 85
2, 59903, Note_on_c, 0, 81, 0
2, 59904, Control_c, 0, 64, 127
2, 59904, Note_on_c, 0, 68, 85
2, 59927, Note_on_c, 0, 68, 0
2, 59928, Note_on_c, 0, 80, 84
2, 59951, Note_on_c, 0, 80, 0
2, 59952, Note_on_c, 0, 73, 84
2, 59975, Note_on_c, 0, 73, 0
2, 59976, Note_on_c, 0, 80, 84
2, 59999, Note_on_c, 0, 80, 0
2, 60000, Note_on_c, 0, 76, 84
2, 60023, Note_on_c, 0, 76, 0
2, 60024, Note_on_c, 0, 80, 83
2, 60047, Note_on_c, 0, 80, 0
2, 60048, Note_on_c, 0, 73, 83
2, 60071, Note_on_c, 0, 73, 0
2, 60072, Note_on_c, 0, 80, 83
2, 60095, Note_on_c, 0, 80, 0
2, 60096, Note_on_c, 0, 68, 83
2, 60119, Note_on_c, 0, 68, 0
2, 60120, Note_on_c, 0, 80, 83
2, 60143, Note_on_c, 0, 80, 0
2, 60144, Note_on_c, 0, 73, 82
2, 60167, Note_on_c, 0, 73, 0
2, 60168, Note_on_c, 0, 80, 82
2, 60191, Note_on_c, 0, 80, 0
2, 60192, Note_on_c, 0, 76, 82
2, 60215, Note_on_c, 0, 76, 0
2, 60216, Note_on_c, 0, 80, 82
2, 60239, Note_on_c, 0, 80, 0
2, 60240, Note_on_c, 0, 73, 81
2, 60263, Note_on_c, 0, 73, 0
2, 60264, Control_c, 0, 64, 0
2, 60264, Note_on_c, 0, 80, 81
2, 60287, Note_on_c, 0, 80, 0
2, 60288, Control_c, 0, 64, 127
2, 60288, Note_on_c, 0, 68, 81
2, 60311, Note_on_c, 0, 68, 0
2, 60312, Note_on_c, 0, 78, 81
2, 60335, Note_on_c, 0, 78, 0
2, 60336, Note_on_c, 0, 75, 81
2, 60359, Note_on_c, 0, 75, 0
2, 60360, Note_on_c, 0, 78, 80
2, 60383, Note_on_c, 0, 78, 0
2, 60384, Note_on_c, 0, 68, 80
2, 60407, Note_on_c, 0, 68, 0
2, 60408, Note_on_c, 0, 78, 80
2, 60431, Note_on_c, 0, 78, 0
2, 60432, Note_on_c, 0, 75, 80
2, 60455, Note_on_c, 0, 75, 0
2, 60456, Control_c, 0, 64, 0
2, 60456, Note_on_c, 0, 78, 79
2, 60479, Note_on_c, 0, 78, 0
2, 60480, Control_c, 0, 64, 127
2, 60480, Note_on_c, 0, 68, 79
2, 60503, Note_on_c, 0, 68, 0
2, 60504, Note_on_c, 0, 76, 79
2, 60527, Note_on_c, 0, 76, 0
2, 60528, Note_on_c, 0, 73, 79
2, 60551, Note_on_c, 0, 73, 0
2, 60552, Note_on_c, 0, 76, 79
2, 60575, Note_on_c, 0, 76, 0
2, 60576, Note_on_c, 0, 68, 78
2, 60599, Note_on_c, 0, 68, 0
2, 60600, Note_on_c, 0, 76, 78
2, 60623, Note_on_c, 0, 76, 0
2, 60624, Note_on_c, 0, 73, 78
2, 60647, Note_on_c, 0, 73, 0
2, 60648, Control_c, 0, 64, 0
2, 60648, Note_on_c, 0, 76, 78
2, 60671, Note_on_c, 0, 76, 0
2, 60672, Note_on_c, 0, 75, 78
2, 60695, Note_on_c, 0, 75, 0
2, 60696, Note_on_c, 0, 68, 78
2, 60719, Note_on_c, 0, 68, 0
2, 60720, Note_on_c, 0, 75, 77
2, 60743, Note_on_c, 0, 75, 0
2, 60744, Note_on_c, 0, 68, 77
2, 60767, Note_on_c, 0, 68, 0
2, 60768, Note_on_c, 0, 80, 77
2, 60791, Note_on_c, 0, 80, 0
2, 60792, Note_on_c, 0, 68, 76
2, 60815, Note_on_c, 0, 68, 0
2, 60816, Note_on_c, 0, 80, 76
2, 60839, Note_on_c, 0, 80, 0
2, 60840, Note_on_c, 0, 68, 76
2, 60863, Note_on_c, 0, 68, 0
2, 60864, Note_on_c, 0, 78, 76
2, 60887, Note_on_c, 0, 78, 0
2, 60888, Note_on_c, 0, 68, 75
2, 60911, Note_on_c, 0, 68, 0
2, 60912, Note_on_c, 0, 78, 75
2, 60935, Note_on_c, 0, 78, 0
2, 60936, Note_on_c, 0, 68, 75
2, 60959, Note_on_c, 0, 68, 0
2, 60960, Note_on_c, 0, 76, 75
2, 60983, Note_on_c, 0, 76, 0
2, 60984, Note_on_c, 0, 68, 74
2, 61007, Note_on_c, 0, 68, 0
2, 61008, Note_on_c, 0, 76, 74
2, 61031, Note_on_c, 0, 76, 0
2, 61032, Note_on_c, 0, 68, 74
2, 61055, Note_on_c, 0, 68, 0
2, 61056, Note_on_c, 0, 75, 74
2, 61079, Note_on_c, 0, 75, 0
2, 61080, Note_on_c, 0, 68, 73
2, 61103, Note_on_c, 0, 68, 0
2, 61104, Note_on_c, 0, 75, 73
2, 61127, Note_on_c, 0, 75, 0
2, 61128, Note_on_c, 0, 68, 73
2, 61151, Note_on_c, 0, 68, 0
2, 61152, Note_on_c, 0, 73, 73
2, 61175, Note_on_c, 0, 73, 0
2, 61176, Note_on_c, 0, 68, 72
2, 61199, Note_on_c, 0, 68, 0
2, 61200, Note_on_c, 0, 73, 72
2, 61223, Note_on_c, 0, 73, 0
2, 61224, Note_on_c, 0, 68, 72
2, 61247, Note_on_c, 0, 68, 0
2, 61248, Note_on_c, 0, 72, 72
2, 61271, Note_on_c, 0, 72, 0
2, 61272, Note_on_c, 0, 68, 71
2, 61295, Note_on_c, 0, 68, 0
2, 61296, Note_on_c, 0, 72, 71
2, 61319, Note_on_c, 0, 72, 0
2, 61320, Note_on_c, 0, 68, 71
2, 61343, Note_on_c, 0, 68, 0
2, 61344, Note_on_c, 0, 73, 71
2, 61367, Note_on_c, 0, 73, 0
2, 61368, Note_on_c, 0, 68, 70
2, 61391, Note_on_c, 0, 68, 0
2, 61392, Note_on_c, 0, 73, 70
2, 61415, Note_on_c, 0, 73, 0
2, 61416, Note_on_c, 0, 68, 70
2, 61439, Note_on_c, 0, 68, 0
2, 61440, Note_on_c, 0, 75, 70
2, 61529, Note_on_c, 0, 75, 0
2, 61536, Note_on_c, 0, 68, 70
2, 61536, Note_on_c, 0, 63, 70
2, 61536, Note_on_c, 0, 60, 70
2, 61603, Note_on_c, 0, 68, 0
2, 61603, Note_on_c, 0, 63, 0
2, 61603, Note_on_c, 0, 60, 0
2, 61608, Note_on_c, 0, 68, 70
2, 61608, Note_on_c, 0, 63, 70
2, 61608, Note_on_c, 0, 60, 70
2, 61631, Note_on_c, 0, 68, 0
2, 61631, Note_on_c, 0, 63, 0
2, 61631, Note_on_c, 0, 60, 0
2, 61632, Note_on_c, 0, 68, 70
2, 61632, Note_on_c, 0, 63, 70
2, 61632, Note_on_c, 0, 60, 70
2, 61721, Note_on_c, 0, 68, 0
2, 61721, Note_on_c, 0, 63, 0
2, 61721, Note_on_c, 0, 60, 0
2, 61824, Note_on_c, 0, 61, 85
2, 61869, Note_on_c, 0, 61, 0
2, 61872, Note_on_c, 0, 61, 85
2, 61884, Note_on_c, 0, 61, 0
2, 61884, Note_on_c, 0, 60, 85
2, 61896, Note_on_c, 0, 60, 0
2, 61896, Note_on_c, 0, 61, 85
2, 61908, Note_on_c, 0, 61, 0
2, 61908, Note_on_c, 0, 63, 85
2, 61920, Note_on_c, 0, 63, 0
2, 61920, Note_on_c, 0, 64, 85
2, 61940, Note_on_c, 0, 64, 0
2, 61968, Note_on_c, 0, 63, 85
2, 61988, Note_on_c, 0, 63, 0
2, 62016, Note_on_c, 0, 61, 85
2, 62036, Note_on_c, 0, 61, 0
2, 62064, Note_on_c, 0, 56, 85
2, 62084, Note_on_c, 0, 56, 0
2, 62112, Note_on_c, 0, 61, 85
2, 62132, Note_on_c, 0, 61, 0
2, 62160, Note_on_c, 0, 64, 85
2, 62180, Note_on_c, 0, 64, 0
2, 62208, Note_on_c, 0, 61, 85
2, 62253, Note_on_c, 0, 61, 0
2, 62256, Note_on_c, 0, 68, 70
2, 62301, Note_on_c, 0, 68, 0
2, 62304, Note_on_c, 0, 68, 70
2, 62349, Note_on_c, 0, 68, 0
2, 62352, Note_on_c, 0, 68, 70
2, 62397, Note_on_c, 0, 68, 0
2, 62400, Note_on_c, 0, 69, 70
2, 62406, Note_on_c, 0, 69, 0
2, 62406, Note_on_c, 0, 68, 70
2, 62412, Note_on_c, 0, 68, 0
2, 62412, Note_on_c, 0, 67, 70
2, 62418, Note_on_c, 0, 67, 0
2, 62418, Note_on_c, 0, 68, 70
2, 62489, Note_on_c, 0, 68, 0
2, 62640, Note_on_c, 0, 68, 70
2, 62685, Note_on_c, 0, 68, 0
2, 62688, Note_on_c, 0, 68, 70
2, 62733, Note_on_c, 0, 68, 0
2, 62736, Note_on_c, 0, 68, 70
2, 62781, Note_on_c, 0, 68, 0
2, 62784, Note_on_c, 0, 69, 70
2, 62790, Note_on_c, 0, 69, 0
2, 62790, Note_on_c, 0, 68, 70
2, 62796, Note_on_c, 0, 68, 0
2, 62796, Note_on_c, 0, 67, 70
2, 62802, Note_on_c, 0, 67, 0
2, 62802, Note_on_c, 0, 68, 70
2, 62873, Note_on_c, 0, 68, 0
2, 63024, Note_on_c, 0, 76, 70
2, 63024, Note_on_c, 0, 73, 70
2, 63069, Note_on_c, 0, 76, 0
2, 63069, Note_on_c, 0, 73, 0
2, 63072, Note_on_c, 0, 75, 70
2, 63072, Note_on_c, 0, 72, 70
2, 63117, Note_on_c, 0, 75, 0
2, 63117, Note_on_c, 0, 72, 0
2, 63120, Note_on_c, 0, 76, 70
2, 63120, Note_on_c, 0, 73, 70
2, 63165, Note_on_c, 0, 76, 0
2, 63165, Note_on_c, 0, 73, 0
2, 63168, Note_on_c, 0, 78, 70
2, 63168, Note_on_c, 0, 75, 70
2, 63207, Note_on_c, 0, 78, 0
2, 63207, Note_on_c, 0, 75, 0
2, 63408, Note_on_c, 0, 80, 70
2, 63408, Note_on_c, 0, 77, 70
2, 63453, Note_on_c, 0, 80, 0
2, 63453, Note_on_c, 0, 77, 0
2, 63456, Note_on_c, 0, 78, 70
2, 63456, Note_on_c, 0, 75, 70
2, 63501, Note_on_c, 0, 78, 0
2, 63501, Note_on_c, 0, 75, 0
2, 63504, Note_on_c, 0, 80, 70
2, 63504, Note_on_c, 0, 77, 70
2, 63549, Note_on_c, 0, 80, 0
2, 63549, Note_on_c, 0, 77, 0
2, 63552, Note_on_c, 0, 81, 70
2, 63552, Note_on_c, 0, 78, 70
2, 63591, Note_on_c, 0, 81, 0
2, 63591, Note_on_c, 0, 78, 0
2, 63792, Note_on_c, 0, 85, 70
2, 63792, Note_on_c, 0, 81, 70
2, 63837, Note_on_c, 0, 85, 0
2, 63837, Note_on_c, 0, 81, 0
2, 63840, Note_on_c, 0, 83, 70
2, 63840, Note_on_c, 0, 80, 70
2, 63885, Note_on_c, 0, 83, 0
2, 63885, Note_on_c, 0, 80, 0
2, 63888, Note_on_c, 0, 85, 70
2, 63888, Note_on_c, 0, 81, 70
2, 63933, Note_on_c, 0, 85, 0
2, 63933, Note_on_c, 0, 81, 0
2, 63936, Note_on_c, 0, 81, 70
2, 63936, Note_on_c, 0, 78, 70
2, 63956, Note_on_c, 0, 81, 0
2, 63956, Note_on_c, 0, 78, 0
2, 63984, Note_on_c, 0, 81, 70
2, 64029, Note_on_c, 0, 81, 0
2, 64032, Note_on_c, 0, 80, 70
2, 64077, Note_on_c, 0, 80, 0
2, 64080, Note_on_c, 0, 81, 70
2, 64125, Note_on_c, 0, 81, 0
2, 64128, Note_on_c, 0, 78, 70
2, 64148, Note_on_c, 0, 78, 0
2, 64176, Note_on_c, 0, 78, 70
2, 64221, Note_on_c, 0, 78, 0
2, 64224, Note_on_c, 0, 77, 70
2, 64269, Note_on_c, 0, 77, 0
2, 64272, Note_on_c, 0, 78, 70
2, 64317, Note_on_c, 0, 78, 0
2, 64320, Note_on_c, 0, 74, 70
2, 64340, Note_on_c, 0, 74, 0
2, 64368, Note_on_c, 0, 74, 70
2, 64413, Note_on_c, 0, 74, 0
2, 64416, Note_on_c, 0, 78, 71
2, 64461, Note_on_c, 0, 78, 0
2, 64464, Note_on_c, 0, 81, 73
2, 64509, Note_on_c, 0, 81, 0
2, 64512, Note_on_c, 0, 73, 74
2, 64631, Note_on_c, 0, 73, 0
2, 64632, Note_on_c, 0, 72, 76
2, 64655, Note_on_c, 0, 72, 0
2, 64656, Note_on_c, 0, 75, 74
2, 64679, Note_on_c, 0, 75, 0
2, 64680, Note_on_c, 0, 72, 72
2, 64703, Note_on_c, 0, 72, 0
2, 64704, Note_on_c, 0, 73, 70
2, 64793, Note_on_c, 0, 73, 0
2, 64848, Note_on_c, 0, 69, 85
2, 64860, Note_on_c, 0, 69, 0
2, 64860, Note_on_c, 0, 66, 85
2, 64894, Note_on_c, 0, 66, 0
2, 64896, Note_on_c, 0, 68, 85
2, 64908, Note_on_c, 0, 68, 0
2, 64908, Note_on_c, 0, 64, 85
2, 64942, Note_on_c, 0, 64, 0
2, 64944, Note_on_c, 0, 66, 85
2, 64956, Note_on_c, 0, 66, 0
2, 64956, Note_on_c, 0, 63, 85
2, 64990, Note_on_c, 0, 63, 0
2, 64992, Note_on_c, 0, 64, 85
2, 65004, Note_on_c, 0, 64, 0
2, 65004, Note_on_c, 0, 61, 85
2, 65038, Note_on_c, 0, 61, 0
2, 65040, Note_on_c, 0, 76, 85
2, 65052, Note_on_c, 0, 76, 0
2, 65052, Note_on_c, 0, 73, 85
2, 65086, Note_on_c, 0, 73, 0
2, 65088, Note_on_c, 0, 75, 85
2, 65100, Note_on_c, 0, 75, 0
2, 65100, Note_on_c, 0, 72, 85
2, 65134, Note_on_c, 0, 72, 0
2, 65136, Note_on_c, 0, 73, 85
2, 65148, Note_on_c, 0, 73, 0
2, 65148, Note_on_c, 0, 70, 85
2, 65182, Note_on_c, 0, 70, 0
2, 65184, Note_on_c, 0, 72, 85
2, 65196, Note_on_c, 0, 72, 0
2, 65196, Note_on_c, 0, 68, 85
2, 65230, Note_on_c, 0, 68, 0
2, 65232, Note_on_c, 0, 81, 85
2, 65244, Note_on_c, 0, 81, 0
2, 65244, Note_on_c, 0, 78, 85
2, 65278, Note_on_c, 0, 78, 0
2, 65280, Note_on_c, 0, 80, 85
2, 65292, Note_on_c, 0, 80, 0
2, 65292, Note_on_c, 0, 76, 83
2, 65326, Note_on_c, 0, 76, 0
2, 65328, Note_on_c, 0, 78, 80
2, 65340, Note_on_c, 0, 78, 0
2, 65340, Note_on_c, 0, 75, 79
2, 65374, Note_on_c, 0, 75, 0
2, 65376, Note_on_c, 0, 76, 75
2, 65388, Note_on_c, 0, 76, 0
2, 65388, Note_on_c, 0, 73, 74
2, 65422, Note_on_c, 0, 73, 0
2, 65424, Note_on_c, 0, 85, 71
2, 65436, Note_on_c, 0, 85, 0
2, 65436, Note_on_c, 0, 80, 70
2, 65470, Note_on_c, 0, 80, 0
2, 65472, Note_on_c, 0, 81, 70
2, 65484, Note_on_c, 0, 81, 0
2, 65484, Note_on_c, 0, 78, 70
2, 65518, Note_on_c, 0, 78, 0
2, 65520, Note_on_c, 0, 80, 70
2, 65532, Note_on_c, 0, 80, 0
2, 65532, Note_on_c, 0, 76, 70
2, 65566, Note_on_c, 0, 76, 0
2, 65568, Note_on_c, 0, 78, 70
2, 65580, Note_on_c, 0, 78, 0
2, 65580, Note_on_c, 0, 75, 70
2, 65614, Note_on_c, 0, 75, 0
2, 65616, Note_on_c, 0, 76, 70
2, 65628, Note_on_c, 0, 76, 0
2, 65628, Note_on_c, 0, 73, 70
2, 65662, Note_on_c, 0, 73, 0
2, 65664, Note_on_c, 0, 75, 70
2, 65676, Note_on_c, 0, 75, 0
2, 65676, Note_on_c, 0, 73, 70
2, 65710, Note_on_c, 0, 73, 0
2, 65712, Note_on_c, 0, 75, 72
2, 65724, Note_on_c, 0, 75, 0
2, 65724, Note_on_c, 0, 73, 72
2, 65758, Note_on_c, 0, 73, 0
2, 65760, Note_on_c, 0, 76, 74
2, 65772, Note_on_c, 0, 76, 0
2, 65772, Note_on_c, 0, 73, 74
2, 65806, Note_on_c, 0, 73, 0
2, 65808, Note_on_c, 0, 76, 76
2, 65820, Note_on_c, 0, 76, 0
2, 65820, Note_on_c, 0, 73, 76
2, 65854, Note_on_c, 0, 73, 0
2, 65856, Note_on_c, 0, 78, 78
2, 65868, Note_on_c, 0, 78, 0
2, 65868, Note_on_c, 0, 73, 77
2, 65902, Note_on_c, 0, 73, 0
2, 65904, Note_on_c, 0, 78, 76
2, 65916, Note_on_c, 0, 78, 0
2, 65916, Note_on_c, 0, 73, 75
2, 65950, Note_on_c, 0, 73, 0
2, 65952, Note_on_c, 0, 76, 74
2, 65964, Note_on_c, 0, 76, 0
2, 65964, Note_on_c, 0, 73, 73
2, 65998, Note_on_c, 0, 73, 0
2, 66000, Note_on_c, 0, 76, 72
2, 66012, Note_on_c, 0, 76, 0
2, 66012, Note_on_c, 0, 73, 71
2, 66046, Note_on_c, 0, 73, 0
2, 66048, Note_on_c, 0, 75, 70
2, 66060, Note_on_c, 0, 75, 0
2, 66060, Note_on_c, 0, 73, 70
2, 66094, Note_on_c, 0, 73, 0
2, 66096, Note_on_c, 0, 75, 72
2, 66108, Note_on_c, 0, 75, 0
2, 66108, Note_on_c, 0, 73, 73
2, 66142, Note_on_c, 0, 73, 0
2, 66144, Note_on_c, 0, 76, 74
2, 66156, Note_on_c, 0, 76, 0
2, 66156, Note_on_c, 0, 73, 75
2, 66190, Note_on_c, 0, 73, 0
2, 66192, Note_on_c, 0, 76, 77
2, 66204, Note_on_c, 0, 76, 0
2, 66204, Note_on_c, 0, 73, 78
2, 66238, Note_on_c, 0, 73, 0
2, 66240, Note_on_c, 0, 78, 76
2, 66252, Note_on_c, 0, 78, 0
2, 66252, Note_on_c, 0, 73, 76
2, 66286, Note_on_c, 0, 73, 0
2, 66288, Note_on_c, 0, 78, 75
2, 66300, Note_on_c, 0, 78, 0
2, 66300, Note_on_c, 0, 73, 74
2, 66334, Note_on_c, 0, 73, 0
2, 66336, Note_on_c, 0, 76, 73
2, 66348, Note_on_c, 0, 76, 0
2, 66348, Note_on_c, 0, 73, 72
2, 66382, Note_on_c, 0, 73, 0
2, 66384, Note_on_c, 0, 76, 71
2, 66396, Note_on_c, 0, 76, 0
2, 66396, Note_on_c, 0, 73, 71
2, 66430, Note_on_c, 0, 73, 0
2, 66432, Note_on_c, 0, 75, 70
2, 66444, Note_on_c, 0, 75, 0
2, 66444, Note_on_c, 0, 73, 70
2, 66478, Note_on_c, 0, 73, 0
2, 66480, Note_on_c, 0, 75, 71
2, 66492, Note_on_c, 0, 75, 0
2, 66492, Note_on_c, 0, 73, 72
2, 66526, Note_on_c, 0, 73, 0
2, 66528, Note_on_c, 0, 75, 73
2, 66540, Note_on_c, 0, 75, 0
2, 66540, Note_on_c, 0, 73, 73
2, 66574, Note_on_c, 0, 73, 0
2, 66576, Note_on_c, 0, 75, 74
2, 66588, Note_on_c, 0, 75, 0
2, 66588, Note_on_c, 0, 73, 75
2, 66622, Note_on_c, 0, 73, 0
2, 66624, Note_on_c, 0, 72, 76
2, 66669, Note_on_c, 0, 72, 0
2, 66672, Note_on_c, 0, 68, 70
2, 66717, Note_on_c, 0, 68, 0
2, 66720, Note_on_c, 0, 68, 70
2, 66765, Note_on_c, 0, 68, 0
2, 66768, Note_on_c, 0, 68, 70
2, 66813, Note_on_c, 0, 68, 0
2, 66816, Note_on_c, 0, 69, 70
2, 66822, Note_on_c, 0, 69, 0
2, 66822, Note_on_c, 0, 68, 70
2, 66828, Note_on_c, 0, 68, 0
2, 66828, Note_on_c, 0, 67, 70
2, 66834, Note_on_c, 0, 67, 0
2, 66834, Note_on_c, 0, 68, 70
2, 66905, Note_on_c, 0, 68, 0
2, 67056, Note_on_c, 0, 68, 70
2, 67101, Note_on_c, 0, 68, 0
2, 67104, Note_on_c, 0, 68, 70
2, 67149, Note_on_c, 0, 68, 0
2, 67152, Note_on_c, 0, 68, 70
2, 67197, Note_on_c, 0, 68, 0
2, 67200, Note_on_c, 0, 69, 70
2, 67206, Note_on_c, 0, 69, 0
2, 67206, Note_on_c, 0, 68, 70
2, 67212, Note_on_c, 0, 68, 0
2, 67212, Note_on_c, 0, 67, 70
2, 67218, Note_on_c, 0, 67, 0
2, 67218, Note_on_c, 0, 68, 70
2, 67289, Note_on_c, 0, 68, 0
2, 67440, Note_on_c, 0, 73, 70
2, 67485, Note_on_c, 0, 73, 0
2, 67488, Note_on_c, 0, 73, 70
2, 67533, Note_on_c, 0, 73, 0
2, 67536, Note_on_c, 0, 73, 70
2, 67581, Note_on_c, 0, 73, 0
2, 67584, Note_on_c, 0, 73, 63
2, 67629, Note_on_c, 0, 73, 0
2, 67632, Note_on_c, 0, 74, 63
2, 67632, Note_on_c, 0, 71, 63
2, 67652, Note_on_c, 0, 74, 0
2, 67652, Note_on_c, 0, 71, 0
2, 67680, Note_on_c, 0, 74, 63
2, 67680, Note_on_c, 0, 71, 63
2, 67700, Note_on_c, 0, 74, 0
2, 67700, Note_on_c, 0, 71, 0
2, 67728, Note_on_c, 0, 74, 63
2, 67728, Note_on_c, 0, 71, 63
2, 67748, Note_on_c, 0, 74, 0
2, 67748, Note_on_c, 0, 71, 0
2, 67776, Note_on_c, 0, 74, 79
2, 67776, Note_on_c, 0, 71, 79
2, 67872, Note_on_c, 0, 74, 0
2, 67872, Note_on_c, 0, 71, 0
2, 67872, Note_on_c, 0, 73, 63
2, 67872, Note_on_c, 0, 69, 63
2, 67892, Note_on_c, 0, 73, 0
2, 67892, Note_on_c, 0, 69, 0
2, 67920, Note_on_c, 0, 77, 63
2, 67920, Note_on_c, 0, 71, 63
2, 67940, Note_on_c, 0, 77, 0
2, 67940, Note_on_c, 0, 71, 0
2, 67968, Note_on_c, 0, 77, 63
2, 67968, Note_on_c, 0, 71, 63
2, 68064, Note_on_c, 0, 77, 0
2, 68064, Note_on_c, 0, 71, 0
2, 68064, Note_on_c, 0, 78, 63
2, 68064, Note_on_c, 0, 69, 63
2, 68084, Note_on_c, 0, 78, 0
2, 68084, Note_on_c, 0, 69, 0
2, 68112, Note_on_c, 0, 76, 63
2, 68112, Note_on_c, 0, 73, 63
2, 68132, Note_on_c, 0, 76, 0
2, 68132, Note_on_c, 0, 73, 0
2, 68160, Note_on_c, 0, 76, 63
2, 68160, Note_on_c, 0, 73, 63
2, 68256, Note_on_c, 0, 76, 0
2, 68256, Note_on_c, 0, 73, 0
2, 68256, Note_on_c, 0, 75, 63
2, 68256, Note_on_c, 0, 72, 63
2, 68276, Note_on_c, 0, 75, 0
2, 68276, Note_on_c, 0, 72, 0
2, 68304, Note_on_c, 0, 79, 63
2, 68304, Note_on_c, 0, 73, 63
2, 68324, Note_on_c, 0, 79, 0
2, 68324, Note_on_c, 0, 73, 0
2, 68352, Note_on_c, 0, 79, 63
2, 68352, Note_on_c, 0, 73, 63
2, 68448, Note_on_c, 0, 79, 0
2, 68448, Note_on_c, 0, 73, 0
2, 68448, Note_on_c, 0, 80, 63
2, 68448, Note_on_c, 0, 72, 63
2, 68468, Note_on_c, 0, 80, 0
2, 68468, Note_on_c, 0, 72, 0
2, 68496, Note_on_c, 0, 80, 63
2, 68496, Note_on_c, 0, 68, 63
2, 68516, Note_on_c, 0, 80, 0
2, 68516, Note_on_c, 0, 68, 0
2, 68544, Note_on_c, 0, 80, 79
2, 68544, Note_on_c, 0, 68, 79
2, 68640, Note_on_c, 0, 80, 0
2, 68640, Note_on_c, 0, 68, 0
2, 68640, Note_on_c, 0, 85, 63
2, 68640, Note_on_c, 0, 73, 63
2, 68685, Note_on_c, 0, 85, 0
2, 68685, Note_on_c, 0, 73, 0
2, 68688, Note_on_c, 0, 83, 63
2, 68688, Note_on_c, 0, 71, 63
2, 68708, Note_on_c, 0, 83, 0
2, 68708, Note_on_c, 0, 71, 0
2, 68736, Note_on_c, 0, 83, 79
2, 68736, Note_on_c, 0, 71, 79
2, 68784, Note_on_c, 0, 83, 0
2, 68784, Note_on_c, 0, 71, 0
2, 68784, Note_on_c, 0, 81, 63
2, 68784, Note_on_c, 0, 69, 63
2, 68807, Note_on_c, 0, 81, 0
2, 68807, Note_on_c, 0, 69, 0
2, 68832, Note_on_c, 0, 81, 63
2, 68832, Note_on_c, 0, 69, 63
2, 68880, Note_on_c, 0, 81, 0
2, 68880, Note_on_c, 0, 69, 0
2, 68880, Note_on_c, 0, 80, 63
2, 68880, Note_on_c, 0, 68, 63
2, 68903, Note_on_c, 0, 80, 0
2, 68903, Note_on_c, 0, 68, 0
2, 68928, Note_on_c, 0, 80, 63
2, 68928, Note_on_c, 0, 68, 63
2, 68976, Note_on_c, 0, 80, 0
2, 68976, Note_on_c, 0, 68, 0
2, 68976, Note_on_c, 0, 78, 63
2, 68976, Note_on_c, 0, 66, 63
2, 68999, Note_on_c, 0, 78, 0
2, 68999, Note_on_c, 0, 66, 0
2, 69072, Note_on_c, 0, 83, 78
2, 69072, Note_on_c, 0, 71, 78
2, 69092, Note_on_c, 0, 83, 0
2, 69092, Note_on_c, 0, 71, 0
2, 69120, Note_on_c, 0, 83, 92
2, 69120, Note_on_c, 0, 71, 92
2, 69168, Note_on_c, 0, 83, 0
2, 69168, Note_on_c, 0, 71, 0
2, 69168, Note_on_c, 0, 81, 74
2, 69168, Note_on_c, 0, 69, 74
2, 69191, Note_on_c, 0, 81, 0
2, 69191, Note_on_c, 0, 69, 0
2, 69216, Note_on_c, 0, 81, 73
2, 69216, Note_on_c, 0, 69, 73
2, 69264, Note_on_c, 0, 81, 0
2, 69264, Note_on_c, 0, 69, 0
2, 69264, Note_on_c, 0, 80, 71
2, 69264, Note_on_c, 0, 68, 71
2, 69287, Note_on_c, 0, 80, 0
2, 69287, Note_on_c, 0, 68, 0
2, 69312, Note_on_c, 0, 80, 69
2, 69312, Note_on_c, 0, 68, 69
2, 69360, Note_on_c, 0, 80, 0
2, 69360, Note_on_c, 0, 68, 0
2, 69360, Note_on_c, 0, 78, 68
2, 69360, Note_on_c, 0, 66, 68
2, 69383, Note_on_c, 0, 78, 0
2, 69383, Note_on_c, 0, 66, 0
2, 69456, Note_on_c, 0, 78, 64
2, 69476, Note_on_c, 0, 78, 0
2, 69504, Note_on_c, 0, 78, 79
2, 69552, Note_on_c, 0, 78, 0
2, 69552, Note_on_c, 0, 76, 63
2, 69575, Note_on_c, 0, 76, 0
2, 69600, Note_on_c, 0, 76, 63
2, 69648, Note_on_c, 0, 76, 0
2, 69648, Note_on_c, 0, 75, 63
2, 69671, Note_on_c, 0, 75, 0
2, 69696, Note_on_c, 0, 75, 63
2, 69719, Note_on_c, 0, 75, 0
2, 69720, Note_on_c, 0, 78, 63
2, 69743, Note_on_c, 0, 78, 0
2, 69744, Note_on_c, 0, 76, 63
2, 69767, Note_on_c, 0, 76, 0
2, 69768, Note_on_c, 0, 80, 63
2, 69791, Note_on_c, 0, 80, 0
2, 69792, Note_on_c, 0, 78, 63
2, 69815, Note_on_c, 0, 78, 0
2, 69816, Note_on_c, 0, 81, 63
2, 69839, Note_on_c, 0, 81, 0
2, 69840, Note_on_c, 0, 80, 63
2, 69863, Note_on_c, 0, 80, 0
2, 69864, Note_on_c, 0, 83, 63
2, 69887, Note_on_c, 0, 83, 0
2, 69888, Note_on_c, 0, 81, 79
2, 69999, Note_on_c, 0, 81, 0
2, 70000, Note_on_c, 0, 80, 63
2, 70015, Note_on_c, 0, 80, 0
2, 70016, Note_on_c, 0, 78, 63
2, 70031, Note_on_c, 0, 78, 0
2, 70032, Note_on_c, 0, 76, 63
2, 70047, Note_on_c, 0, 76, 0
2, 70048, Note_on_c, 0, 75, 63
2, 70063, Note_on_c, 0, 75, 0
2, 70064, Note_on_c, 0, 73, 63
2, 70079, Note_on_c, 0, 73, 0
2, 70080, Note_on_c, 0, 72, 63
2, 70257, Note_on_c, 0, 72, 0
2, 70368, Note_on_c, 0, 75, 85
2, 70391, Note_on_c, 0, 75, 0
2, 70392, Note_on_c, 0, 87, 85
2, 70415, Note_on_c, 0, 87, 0
2, 70416, Note_on_c, 0, 72, 85
2, 70439, Note_on_c, 0, 72, 0
2, 70440, Note_on_c, 0, 84, 87
2, 70463, Note_on_c, 0, 84, 0
2, 70464, Note_on_c, 0, 69, 89
2, 70487, Note_on_c, 0, 69, 0
2, 70488, Note_on_c, 0, 81, 91
2, 70511, Note_on_c, 0, 81, 0
2, 70512, Note_on_c, 0, 66, 93
2, 70535, Note_on_c, 0, 66, 0
2, 70536, Note_on_c, 0, 78, 95
2, 70559, Note_on_c, 0, 78, 0
2, 70560, Note_on_c, 0, 63, 97
2, 70583, Note_on_c, 0, 63, 0
2, 70584, Note_on_c, 0, 75, 99
2, 70607, Note_on_c, 0, 75, 0
2, 70608, Note_on_c, 0, 60, 101
2, 70631, Note_on_c, 0, 60, 0
2, 70632, Note_on_c, 0, 72, 103
2, 70655, Note_on_c, 0, 72, 0
2, 70656, Note_on_c, 0, 69, 106
2, 70656, Note_on_c, 0, 57, 106
2, 70833, Note_on_c, 0, 69, 0
2, 70833, Note_on_c, 0, 57, 0
2, 70848, Note_on_c, 0, 68, 106
2, 70848, Note_on_c, 0, 56, 106
2, 70937, Note_on_c, 0, 68, 0
2, 70937, Note_on_c, 0, 56, 0
2, 70944, Note_on_c, 0, 66, 93
2, 70944, Note_on_c, 0, 54, 93
2, 71033, Note_on_c, 0, 66, 0
2, 71033, Note_on_c, 0, 54, 0
2, 71040, Note_on_c, 0, 52, 81
2, 71063, Note_on_c, 0, 52, 0
2, 71064, Note_on_c, 0, 64, 78
2, 71087, Note_on_c, 0, 64, 0
2, 71088, Note_on_c, 0, 56, 78
2, 71111, Note_on_c, 0, 56, 0
2, 71112, Note_on_c, 0, 68, 78
2, 71135, Note_on_c, 0, 68, 0
2, 71136, Note_on_c, 0, 60, 78
2, 71159, Note_on_c, 0, 60, 0
2, 71160, Note_on_c, 0, 61, 78
2, 71183, Note_on_c, 0, 61, 0
2, 71184, Note_on_c, 0, 63, 78
2, 71207, Note_on_c, 0, 63, 0
2, 71208, Note_on_c, 0, 61, 78
2, 71231, Note_on_c, 0, 61, 0
2, 71232, Note_on_c, 0, 57, 78
2, 71255, Note_on_c, 0, 57, 0
2, 71256, Note_on_c, 0, 69, 78
2, 71279, Note_on_c, 0, 69, 0
2, 71280, Note_on_c, 0, 61, 78
2, 71303, Note_on_c, 0, 61, 0
2, 71304, Note_on_c, 0, 73, 78
2, 71327, Note_on_c, 0, 73, 0
2, 71328, Note_on_c, 0, 65, 78
2, 71351, Note_on_c, 0, 65, 0
2, 71352, Note_on_c, 0, 66, 78
2, 71375, Note_on_c, 0, 66, 0
2, 71376, Note_on_c, 0, 68, 78
2, 71399, Note_on_c, 0, 68, 0
2, 71400, Note_on_c, 0, 66, 78
2, 71423, Note_on_c, 0, 66, 0
2, 71424, Note_on_c, 0, 64, 78
2, 71513, Note_on_c, 0, 64, 0
2, 71520, Note_on_c, 0, 68, 78
2, 71543, Note_on_c, 0, 68, 0
2, 71544, Note_on_c, 0, 66, 78
2, 71567, Note_on_c, 0, 66, 0
2, 71568, Note_on_c, 0, 64, 78
2, 71591, Note_on_c, 0, 64, 0
2, 71592, Note_on_c, 0, 63, 78
2, 71615, Note_on_c, 0, 63, 0
2, 71616, Note_on_c, 0, 64, 78
2, 71639, Note_on_c, 0, 64, 0
2, 71640, Note_on_c, 0, 76, 78
2, 71663, Note_on_c, 0, 76, 0
2, 71664, Note_on_c, 0, 68, 78
2, 71687, Note_on_c, 0, 68, 0
2, 71688, Note_on_c, 0, 80, 78
2, 71711, Note_on_c, 0, 80, 0
2, 71712, Note_on_c, 0, 72, 78
2, 71736, Note_on_c, 0, 72, 0
2, 71736, Note_on_c, 0, 73, 78
2, 71759, Note_on_c, 0, 73, 0
2, 71760, Note_on_c, 0, 75, 78
2, 71783, Note_on_c, 0, 75, 0
2, 71784, Note_on_c, 0, 73, 78
2, 71807, Note_on_c, 0, 73, 0
2, 71808, Note_on_c, 0, 69, 78
2, 71831, Note_on_c, 0, 69, 0
2, 71832, Note_on_c, 0, 81, 78
2, 71855, Note_on_c, 0, 81, 0
2, 71856, Note_on_c, 0, 73, 78
2, 71879, Note_on_c, 0, 73, 0
2, 71880, Note_on_c, 0, 85, 78
2, 71903, Note_on_c, 0, 85, 0
2, 71904, Note_on_c, 0, 72, 78
2, 71927, Note_on_c, 0, 72, 0
2, 71928, Note_on_c, 0, 84, 78
2, 71951, Note_on_c, 0, 84, 0
2, 71952, Note_on_c, 0, 75, 78
2, 71975, Note_on_c, 0, 75, 0
2, 71976, Note_on_c, 0, 87, 78
2, 71999, Note_on_c, 0, 87, 0
2, 72000, Note_on_c, 0, 73, 78
2, 72023, Note_on_c, 0, 73, 0
2, 72024, Note_on_c, 0, 85, 78
2, 72047, Note_on_c, 0, 85, 0
2, 72048, Note_on_c, 0, 76, 79
2, 72071, Note_on_c, 0, 76, 0
2, 72072, Note_on_c, 0, 88, 80
2, 72095, Note_on_c, 0, 88, 0
2, 72096, Note_on_c, 0, 75, 81
2, 72119, Note_on_c, 0, 75, 0
2, 72120, Note_on_c, 0, 87, 82
2, 72143, Note_on_c, 0, 87, 0
2, 72144, Note_on_c, 0, 73, 83
2, 72167, Note_on_c, 0, 73, 0
2, 72168, Note_on_c, 0, 85, 84
2, 72191, Note_on_c, 0, 85, 0
2, 72192, Note_on_c, 0, 71, 85
2, 72215, Note_on_c, 0, 71, 0
2, 72216, Note_on_c, 0, 83, 84
2, 72239, Note_on_c, 0, 83, 0
2, 72240, Note_on_c, 0, 69, 83
2, 72263, Note_on_c, 0, 69, 0
2, 72264, Note_on_c, 0, 81, 82
2, 72287, Note_on_c, 0, 81, 0
2, 72288, Note_on_c, 0, 68, 81
2, 72311, Note_on_c, 0, 68, 0
2, 72312, Note_on_c, 0, 80, 80
2, 72335, Note_on_c, 0, 80, 0
2, 72336, Note_on_c, 0, 67, 79
2, 72359, Note_on_c, 0, 67, 0
2, 72360, Note_on_c, 0, 79, 78
2, 72383, Note_on_c, 0, 79, 0
2, 72384, Note_on_c, 0, 68, 78
2, 72407, Note_on_c, 0, 68, 0
2, 72408, Note_on_c, 0, 80, 78
2, 72431, Note_on_c, 0, 80, 0
2, 72432, Note_on_c, 0, 67, 78
2, 72455, Note_on_c, 0, 67, 0
2, 72456, Note_on_c, 0, 79, 78
2, 72479, Note_on_c, 0, 79, 0
2, 72480, Note_on_c, 0, 68, 78
2, 72503, Note_on_c, 0, 68, 0
2, 72504, Note_on_c, 0, 80, 78
2, 72527, Note_on_c, 0, 80, 0
2, 72528, Note_on_c, 0, 67, 78
2, 72551, Note_on_c, 0, 67, 0
2, 72552, Note_on_c, 0, 79, 78
2, 72575, Note_on_c, 0, 79, 0
2, 72576, Note_on_c, 0, 68, 78
2, 72599, Note_on_c, 0, 68, 0
2, 72600, Note_on_c, 0, 80, 78
2, 72623, Note_on_c, 0, 80, 0
2, 72720, Note_on_c, 0, 72, 78
2, 72732, Note_on_c, 0, 72, 0
2, 72732, Note_on_c, 0, 70, 78
2, 72744, Note_on_c, 0, 70, 0
2, 72744, Note_on_c, 0, 72, 78
2, 72756, Note_on_c, 0, 72, 0
2, 72756, Note_on_c, 0, 73, 78
2, 72768, Note_on_c, 0, 73, 0
2, 72768, Note_on_c, 0, 75, 78
2, 72788, Note_on_c, 0, 75, 0
2, 72816, Note_on_c, 0, 75, 78
2, 72828, Note_on_c, 0, 75, 0
2, 72828, Note_on_c, 0, 73, 78
2, 72840, Note_on_c, 0, 73, 0
2, 72840, Note_on_c, 0, 75, 78
2, 72852, Note_on_c, 0, 75, 0
2, 72852, Note_on_c, 0, 76, 78
2, 72864, Note_on_c, 0, 76, 0
2, 72864, Note_on_c, 0, 78, 78
2, 72884, Note_on_c, 0, 78, 0
2, 72912, Note_on_c, 0, 78, 78
2, 72924, Note_on_c, 0, 78, 0
2, 72924, Note_on_c, 0, 76, 78
2, 72936, Note_on_c, 0, 76, 0
2, 72936, Note_on_c, 0, 78, 78
2, 72948, Note_on_c, 0, 78, 0
2, 72948, Note_on_c, 0, 80, 78
2, 72960, Note_on_c, 0, 80, 0
2, 72960, Note_on_c, 0, 81, 78
2, 72980, Note_on_c, 0, 81, 0
2, 73008, Note_on_c, 0, 75, 78
2, 73028, Note_on_c, 0, 75, 0
2, 73056, Note_on_c, 0, 78, 78
2, 73076, Note_on_c, 0, 78, 0
2, 73104, Note_on_c, 0, 72, 78
2, 73124, Note_on_c, 0, 72, 0
2, 73152, Note_on_c, 0, 68, 101
2, 73152, Note_on_c, 0, 73, 101
2, 73152, Note_on_c, 0, 76, 101
2, 73152, Note_on_c, 0, 80, 101
2, 73200, Note_on_c, 0, 80, 0
2, 73200, Note_on_c, 0, 76, 0
2, 73200, Note_on_c, 0, 73, 0
2, 73200, Note_on_c, 0, 68, 0
2, 73248, Note_on_c, 0, 69, 85
2, 73256, Note_on_c, 0, 75, 85
2, 73264, Note_on_c, 0, 78, 85
2, 73293, Note_on_c, 0, 78, 0
2, 73293, Note_on_c, 0, 75, 0
2, 73293, Note_on_c, 0, 69, 0
2, 73344, Note_on_c, 0, 68, 85
2, 73352, Note_on_c, 0, 73, 85
2, 73360, Note_on_c, 0, 76, 85
2, 73389, Note_on_c, 0, 76, 0
2, 73389, Note_on_c, 0, 73, 0
2, 73389, Note_on_c, 0, 68, 0
2, 73488, Note_on_c, 0, 75, 78
2, 73524, Note_on_c, 0, 75, 0
2, 73524, Note_on_c, 0, 72, 78
2, 73536, Note_on_c, 0, 72, 0
2, 73536, Note_on_c, 0, 73, 78
2, 73556, Note_on_c, 0, 73, 0
2, 73584, Note_on_c, 0, 80, 78
2, 73584, Note_on_c, 0, 76, 78
2, 73632, Note_on_c, 0, 80, 0
2, 73632, Note_on_c, 0, 73, 78
2, 73677, Note_on_c, 0, 76, 0
2, 73677, Note_on_c, 0, 73, 0
2, 73680, Note_on_c, 0, 72, 78
2, 73714, Note_on_c, 0, 72, 0
2, 73716, Note_on_c, 0, 68, 78
2, 73728, Note_on_c, 0, 68, 0
2, 73728, Note_on_c, 0, 73, 78
2, 73748, Note_on_c, 0, 73, 0
2, 73776, Note_on_c, 0, 75, 78
2, 73776, Note_on_c, 0, 72, 78
2, 73824, Note_on_c, 0, 75, 0
2, 73824, Note_on_c, 0, 72, 0
2, 73824, Note_on_c, 0, 76, 78
2, 73824, Note_on_c, 0, 73, 78
2, 73869, Note_on_c, 0, 76, 0
2, 73869, Note_on_c, 0, 73, 0
2, 73872, Note_on_c, 0, 75, 78
2, 73906, Note_on_c, 0, 75, 0
2, 73908, Note_on_c, 0, 72, 78
2, 73920, Note_on_c, 0, 72, 0
2, 73920, Note_on_c, 0, 73, 70
2, 73940, Note_on_c, 0, 73, 0
2, 73968, Note_on_c, 0, 80, 70
2, 73968, Note_on_c, 0, 76, 70
2, 74016, Note_on_c, 0, 80, 0
2, 74016, Note_on_c, 0, 73, 70
2, 74061, Note_on_c, 0, 76, 0
2, 74061, Note_on_c, 0, 73, 0
2, 74064, Note_on_c, 0, 72, 70
2, 74098, Note_on_c, 0, 72, 0
2, 74100, Note_on_c, 0, 68, 70
2, 74112, Note_on_c, 0, 68, 0
2, 74112, Note_on_c, 0, 73, 70
2, 74132, Note_on_c, 0, 73, 0
2, 74208, Note_on_c, 0, 84, 63
2, 74208, Note_on_c, 0, 75, 63
2, 74228, Note_on_c, 0, 84, 0
2, 74228, Note_on_c, 0, 75, 0
2, 74304, Note_on_c, 0, 85, 63
2, 74304, Note_on_c, 0, 76, 63
2, 74343, Note_on_c, 0, 85, 0
2, 74343, Note_on_c, 0, 76, 0
2, 74784, End_track
3, 0, Start_track
3, 0, Program_c, 0, 0
3, 0, Control_c, 0, 7, 127
3, 0, Control_c, 0, 10, 64
3, 10752, Note_on_c, 0, 64, 64
3, 11062, Note_on_c, 0, 64, 0
3, 23424, Note_on_c, 0, 64, 64
3, 23734, Note_on_c, 0, 64, 0
3, 28032, Control_c, 0, 64, 127
3, 28032, Note_on_c, 0, 73, 64
3, 28032, Note_on_c, 0, 69, 64
3, 28077, Note_on_c, 0, 73, 0
3, 28077, Note_on_c, 0, 69, 0
3, 28080, Note_on_c, 0, 76, 64
3, 28103, Note_on_c, 0, 76, 0
3, 28104, Note_on_c, 0, 69, 64
3, 28127, Note_on_c, 0, 69, 0
3, 28128, Note_on_c, 0, 76, 64
3, 28151, Note_on_c, 0, 76, 0
3, 28152, Note_on_c, 0, 69, 64
3, 28175, Note_on_c, 0, 69, 0
3, 28176, Note_on_c, 0, 76, 64
3, 28199, Note_on_c, 0, 76, 0
3, 28200, Note_on_c, 0, 69, 64
3, 28223, Note_on_c, 0, 69, 0
3, 28224, Note_on_c, 0, 76, 64
3, 28224, Note_on_c, 0, 69, 64
3, 28313, Note_on_c, 0, 76, 0
3, 28313, Note_on_c, 0, 69, 0
3, 28320, Control_c, 0, 64, 0
3, 28464, Note_on_c, 0, 76, 64
3, 28487, Note_on_c, 0, 76, 0
3, 28488, Note_on_c, 0, 69, 64
3, 28511, Note_on_c, 0, 69, 0
3, 28512, Note_on_c, 0, 76, 64
3, 28535, Note_on_c, 0, 76, 0
3, 28536, Note_on_c, 0, 69, 64
3, 28559, Note_on_c, 0, 69, 0
3, 28560, Note_on_c, 0, 76, 64
3, 28583, Note_on_c, 0, 76, 0
3, 28584, Note_on_c, 0, 69, 64
3, 28607, Note_on_c, 0, 69, 0
3, 28608, Note_on_c, 0, 76, 64
3, 28653, Note_on_c, 0, 76, 0
3, 28656, Note_on_c, 0, 73, 64
3, 28679, Note_on_c, 0, 73, 0
3, 28680, Note_on_c, 0, 69, 64
3, 28703, Note_on_c, 0, 69, 0
3, 28704, Note_on_c, 0, 73, 64
3, 28727, Note_on_c, 0, 73, 0
3, 28728, Note_on_c, 0, 69, 64
3, 28751, Note_on_c, 0, 69, 0
3, 28752, Note_on_c, 0, 73, 64
3, 28775, Note_on_c, 0, 73, 0
3, 28776, Note_on_c, 0, 69, 64
3, 28799, Note_on_c, 0, 69, 0
3, 28800, Control_c, 0, 64, 127
3, 28800, Note_on_c, 0, 75, 64
3, 28800, Note_on_c, 0, 72, 64
3, 28845, Note_on_c, 0, 75, 0
3, 28845, Note_on_c, 0, 72, 0
3, 28848, Note_on_c, 0, 75, 64
3, 28871, Note_on_c, 0, 75, 0
3, 28872, Note_on_c, 0, 72, 64
3, 28895, Note_on_c, 0, 72, 0
3, 28896, Note_on_c, 0, 75, 64
3, 28919, Note_on_c, 0, 75, 0
3, 28920, Note_on_c, 0, 72, 64
3, 28943, Note_on_c, 0, 72, 0
3, 28944, Note_on_c, 0, 75, 64
3, 28967, Note_on_c, 0, 75, 0
3, 28968, Note_on_c, 0, 72, 64
3, 28991, Note_on_c, 0, 72, 0
3, 28992, Note_on_c, 0, 75, 64
3, 29081, Note_on_c, 0, 75, 0
3, 29184, Control_c, 0, 64, 0
3, 52608, Control_c, 0, 64, 127
3, 52608, Note_on_c, 0, 73, 64
3, 52608, Note_on_c, 0, 69, 64
3, 52653, Note_on_c, 0, 73, 0
3, 52653, Note_on_c, 0, 69, 0
3, 52656, Note_on_c, 0, 76, 64
3, 52679, Note_on_c, 0, 76, 0
3, 52680, Note_on_c, 0, 69, 64
3, 52703, Note_on_c, 0, 69, 0
3, 52704, Note_on_c, 0, 76, 64
3, 52727, Note_on_c, 0, 76, 0
3, 52728, Note_on_c, 0, 69, 64
3, 52751, Note_on_c, 0, 69, 0
3, 52752, Note_on_c, 0, 76, 64
3, 52775, Note_on_c, 0, 76, 0
3, 52776, Note_on_c, 0, 69, 64
3, 52799, Note_on_c, 0, 69, 0
3, 52800, Note_on_c, 0, 76, 64
3, 52800, Note_on_c, 0, 69, 64
3, 52889, Note_on_c, 0, 76, 0
3, 52889, Note_on_c, 0, 69, 0
3, 52896, Control_c, 0, 64, 0
3, 53040, Note_on_c, 0, 76, 64
3, 53063, Note_on_c, 0, 76, 0
3, 53064, Note_on_c, 0, 69, 64
3, 53087, Note_on_c, 0, 69, 0
3, 53088, Note_on_c, 0, 76, 64
3, 53111, Note_on_c, 0, 76, 0
3, 53112, Note_on_c, 0, 69, 64
3, 53135, Note_on_c, 0, 69, 0
3, 53136, Note_on_c, 0, 76, 64
3, 53159, Note_on_c, 0, 76, 0
3, 53160, Note_on_c, 0, 69, 64
3, 53183, Note_on_c, 0, 69, 0
3, 53184, Note_on_c, 0, 76, 64
3, 53229, Note_on_c, 0, 76, 0
3, 53232, Note_on_c, 0, 73, 64
3, 53255, Note_on_c, 0, 73, 0
3, 53256, Note_on_c, 0, 69, 64
3, 53279, Note_on_c, 0, 69, 0
3, 53280, Note_on_c, 0, 73, 64
3, 53303, Note_on_c, 0, 73, 0
3, 53304, Note_on_c, 0, 69, 64
3, 53327, Note_on_c, 0, 69, 0
3, 53328, Note_on_c, 0, 73, 64
3, 53351, Note_on_c, 0, 73, 0
3, 53352, Note_on_c, 0, 69, 64
3, 53375, Note_on_c, 0, 69, 0
3, 53376, Control_c, 0, 64, 127
3, 53376, Note_on_c, 0, 75, 64
3, 53376, Note_on_c, 0, 72, 64
3, 53421, Note_on_c, 0, 75, 0
3, 53421, Note_on_c, 0, 72, 0
3, 53424, Note_on_c, 0, 75, 64
3, 53447, Note_on_c, 0, 75, 0
3, 53448, Note_on_c, 0, 72, 64
3, 53471, Note_on_c, 0, 72, 0
3, 53472, Note_on_c, 0, 75, 64
3, 53495, Note_on_c, 0, 75, 0
3, 53496, Note_on_c, 0, 72, 64
3, 53519, Note_on_c, 0, 72, 0
3, 53520, Note_on_c, 0, 75, 64
3, 53543, Note_on_c, 0, 75, 0
3, 53544, Note_on_c, 0, 72, 64
3, 53567, Note_on_c, 0, 72, 0
3, 53568, Note_on_c, 0, 75, 64
3, 53657, Note_on_c, 0, 75, 0
3, 53760, Control_c, 0, 64, 0
3, 74784, End_track
4, 0, Start_track
4, 0, Program_c, 1, 0
4, 0, Control_c, 1, 7, 127
4, 0, Control_c, 1, 10, 64
4, 0, Note_on_c, 1, 49, 85
4, 0, Note_on_c, 1, 37, 85
4, 45, Note_on_c, 1, 49, 0
4, 45, Note_on_c, 1, 37, 0
4, 48, Note_on_c, 1, 49, 85
4, 60, Note_on_c, 1, 49, 0
4, 60, Note_on_c, 1, 48, 85
4, 72, Note_on_c, 1, 48, 0
4, 72, Note_on_c, 1, 49, 85
4, 84, Note_on_c, 1, 49, 0
4, 84, Note_on_c, 1, 51, 85
4, 96, Note_on_c, 1, 51, 0
4, 96, Note_on_c, 1, 52, 85
4, 116, Note_on_c, 1, 52, 0
4, 144, Note_on_c, 1, 51, 85
4, 164, Note_on_c, 1, 51, 0
4, 192, Note_on_c, 1, 49, 85
4, 212, Note_on_c, 1, 49, 0
4, 240, Note_on_c, 1, 44, 85
4, 260, Note_on_c, 1, 44, 0
4, 288, Note_on_c, 1, 49, 85
4, 308, Note_on_c, 1, 49, 0
4, 336, Note_on_c, 1, 52, 85
4, 356, Note_on_c, 1, 52, 0
4, 384, Note_on_c, 1, 49, 85
4, 473, Note_on_c, 1, 49, 0
4, 624, Note_on_c, 1, 64, 63
4, 624, Note_on_c, 1, 61, 63
4, 669, Note_on_c, 1, 64, 0
4, 669, Note_on_c, 1, 61, 0
4, 672, Note_on_c, 1, 63, 63
4, 672, Note_on_c, 1, 60, 63
4, 717, Note_on_c, 1, 63, 0
4, 717, Note_on_c, 1, 60, 0
4, 720, Note_on_c, 1, 64, 63
4, 720, Note_on_c, 1, 61, 63
4, 765, Note_on_c, 1, 64, 0
4, 765, Note_on_c, 1, 61, 0
4, 768, Note_on_c, 1, 66, 63
4, 768, Note_on_c, 1, 63, 63
4, 807, Note_on_c, 1, 66, 0
4, 807, Note_on_c, 1, 63, 0
4, 1008, Note_on_c, 1, 66, 63
4, 1008, Note_on_c, 1, 63, 63
4, 1053, Note_on_c, 1, 66, 0
4, 1053, Note_on_c, 1, 63, 0
4, 1056, Note_on_c, 1, 64, 63
4, 1056, Note_on_c, 1, 61, 63
4, 1101, Note_on_c, 1, 64, 0
4, 1101, Note_on_c, 1, 61, 0
4, 1104, Note_on_c, 1, 66, 63
4, 1104, Note_on_c, 1, 63, 63
4, 1149, Note_on_c, 1, 66, 0
4, 1149, Note_on_c, 1, 63, 0
4, 1152, Note_on_c, 1, 68, 63
4, 1152, Note_on_c, 1, 64, 63
4, 1191, Note_on_c, 1, 68, 0
4, 1191, Note_on_c, 1, 64, 0
4, 1392, Note_on_c, 1, 56, 63
4, 1392, Note_on_c, 1, 52, 63
4, 1437, Note_on_c, 1, 56, 0
4, 1437, Note_on_c, 1, 52, 0
4, 1440, Note_on_c, 1, 56, 63
4, 1440, Note_on_c, 1, 52, 63
4, 1485, Note_on_c, 1, 56, 0
4, 1485, Note_on_c, 1, 52, 0
4, 1488, Note_on_c, 1, 56, 63
4, 1488, Note_on_c, 1, 52, 63
4, 1533, Note_on_c, 1, 56, 0
4, 1533, Note_on_c, 1, 52, 0
4, 1584, Note_on_c, 1, 57, 63
4, 1584, Note_on_c, 1, 54, 63
4, 1629, Note_on_c, 1, 57, 0
4, 1629, Note_on_c, 1, 54, 0
4, 1632, Note_on_c, 1, 57, 63
4, 1632, Note_on_c, 1, 54, 63
4, 1677, Note_on_c, 1, 57, 0
4, 1677, Note_on_c, 1, 54, 0
4, 1680, Note_on_c, 1, 57, 63
4, 1680, Note_on_c, 1, 54, 63
4, 1725, Note_on_c, 1, 57, 0
4, 1725, Note_on_c, 1, 54, 0
4, 1776, Note_on_c, 1, 64, 63
4, 1821, Note_on_c, 1, 64, 0
4, 1824, Note_on_c, 1, 63, 63
4, 1869, Note_on_c, 1, 63, 0
4, 1872, Note_on_c, 1, 66, 63
4, 1917, Note_on_c, 1, 66, 0
4, 1920, Note_on_c, 1, 64, 63
4, 1920, Note_on_c, 1, 61, 63
4, 2009, Note_on_c, 1, 64, 0
4, 2009, Note_on_c, 1, 61, 0
4, 2304, Note_on_c, 1, 49, 78
4, 2304, Note_on_c, 1, 37, 78
4, 2349, Note_on_c, 1, 49, 0
4, 2349, Note_on_c, 1, 37, 0
4, 2352, Note_on_c, 1, 49, 78
4, 2364, Note_on_c, 1, 49, 0
4, 2364, Note_on_c, 1, 48, 78
4, 2376, Note_on_c, 1, 48, 0
4, 2376, Note_on_c, 1, 49, 78
4, 2388, Note_on_c, 1, 49, 0
4, 2388, Note_on_c, 1, 51, 78
4, 2400, Note_on_c, 1, 51, 0
4, 2400, Note_on_c, 1, 52, 78
4, 2420, Note_on_c, 1, 52, 0
4, 2448, Note_on_c, 1, 51, 78
4, 2468, Note_on_c, 1, 51, 0
4, 2496, Note_on_c, 1, 49, 78
4, 2516, Note_on_c, 1, 49, 0
4, 2544, Note_on_c, 1, 44, 78
4, 2564, Note_on_c, 1, 44, 0
4, 2592, Note_on_c, 1, 49, 78
4, 2612, Note_on_c, 1, 49, 0
4, 2640, Note_on_c, 1, 52, 78
4, 2660, Note_on_c, 1, 52, 0
4, 2688, Note_on_c, 1, 45, 78
4, 2688, Note_on_c, 1, 33, 78
4, 2733, Note_on_c, 1, 45, 0
4, 2733, Note_on_c, 1, 33, 0
4, 2736, Note_on_c, 1, 45, 78
4, 2748, Note_on_c, 1, 45, 0
4, 2748, Note_on_c, 1, 44, 78
4, 2760, Note_on_c, 1, 44, 0
4, 2760, Note_on_c, 1, 45, 78
4, 2772, Note_on_c, 1, 45, 0
4, 2772, Note_on_c, 1, 47, 78
4, 2784, Note_on_c, 1, 47, 0
4, 2784, Note_on_c, 1, 49, 78
4, 2804, Note_on_c, 1, 49, 0
4, 2832, Note_on_c, 1, 47, 78
4, 2852, Note_on_c, 1, 47, 0
4, 2880, Note_on_c, 1, 45, 78
4, 2900, Note_on_c, 1, 45, 0
4, 2928, Note_on_c, 1, 40, 78
4, 2948, Note_on_c, 1, 40, 0
4, 2976, Note_on_c, 1, 45, 78
4, 2996, Note_on_c, 1, 45, 0
4, 3024, Note_on_c, 1, 49, 78
4, 3044, Note_on_c, 1, 49, 0
4, 3072, Note_on_c, 1, 51, 101
4, 3216, Note_on_c, 1, 51, 0
4, 3216, Note_on_c, 1, 54, 85
4, 3239, Note_on_c, 1, 54, 0
4, 3240, Note_on_c, 1, 58, 85
4, 3263, Note_on_c, 1, 58, 0
4, 3264, Note_on_c, 1, 47, 85
4, 3284, Note_on_c, 1, 47, 0
4, 3312, Note_on_c, 1, 51, 85
4, 3332, Note_on_c, 1, 51, 0
4, 3360, Note_on_c, 1, 54, 85
4, 3380, Note_on_c, 1, 54, 0
4, 3408, Note_on_c, 1, 58, 85
4, 3428, Note_on_c, 1, 58, 0
4, 3456, Note_on_c, 1, 58, 101
4, 3552, Note_on_c, 1, 58, 0
4, 3552, Note_on_c, 1, 59, 85
4, 3693, Note_on_c, 1, 59, 0
4, 3696, Note_on_c, 1, 66, 78
4, 3696, Note_on_c, 1, 63, 78
4, 3741, Note_on_c, 1, 66, 0
4, 3741, Note_on_c, 1, 63, 0
4, 3744, Note_on_c, 1, 66, 78
4, 3744, Note_on_c, 1, 63, 78
4, 3789, Note_on_c, 1, 66, 0
4, 3789, Note_on_c, 1, 63, 0
4, 3792, Note_on_c, 1, 66, 74
4, 3792, Note_on_c, 1, 63, 74
4, 3837, Note_on_c, 1, 66, 0
4, 3837, Note_on_c, 1, 63, 0
4, 3840, Note_on_c, 1, 66, 70
4, 3840, Note_on_c, 1, 63, 70
4, 4105, Note_on_c, 1, 66, 0
4, 4105, Note_on_c, 1, 63, 0
4, 4416, Note_on_c, 1, 52, 78
4, 4439, Note_on_c, 1, 52, 0
4, 4440, Note_on_c, 1, 51, 78
4, 4463, Note_on_c, 1, 51, 0
4, 4464, Note_on_c, 1, 49, 78
4, 4487, Note_on_c, 1, 49, 0
4, 4488, Note_on_c, 1, 47, 78
4, 4511, Note_on_c, 1, 47, 0
4, 4512, Note_on_c, 1, 45, 78
4, 4535, Note_on_c, 1, 45, 0
4, 4536, Note_on_c, 1, 44, 78
4, 4559, Note_on_c, 1, 44, 0
4, 4560, Note_on_c, 1, 42, 78
4, 4583, Note_on_c, 1, 42, 0
4, 4584, Note_on_c, 1, 40, 78
4, 4607, Note_on_c, 1, 40, 0
4, 4608, Note_on_c, 1, 39, 78
4, 4697, Note_on_c, 1, 39, 0
4, 4800, Note_on_c, 1, 57, 78
4, 4823, Note_on_c, 1, 57, 0
4, 4824, Note_on_c, 1, 56, 78
4, 4847, Note_on_c, 1, 56, 0
4, 4848, Note_on_c, 1, 54, 78
4, 4871, Note_on_c, 1, 54, 0
4, 4872, Note_on_c, 1, 52, 78
4, 4895, Note_on_c, 1, 52, 0
4, 4896, Note_on_c, 1, 51, 78
4, 4919, Note_on_c, 1, 51, 0
4, 4920, Note_on_c, 1, 49, 78
4, 4943, Note_on_c, 1, 49, 0
4, 4944, Note_on_c, 1, 47, 78
4, 4967, Note_on_c, 1, 47, 0
4, 4968, Note_on_c, 1, 51, 78
4, 4991, Note_on_c, 1, 51, 0
4, 4992, Note_on_c, 1, 52, 78
4, 5081, Note_on_c, 1, 52, 0
4, 5184, Note_on_c, 1, 62, 78
4, 5207, Note_on_c, 1, 62, 0
4, 5208, Note_on_c, 1, 61, 78
4, 5231, Note_on_c, 1, 61, 0
4, 5232, Note_on_c, 1, 59, 78
4, 5255, Note_on_c, 1, 59, 0
4, 5256, Note_on_c, 1, 57, 78
4, 5279, Note_on_c, 1, 57, 0
4, 5280, Note_on_c, 1, 56, 78
4, 5303, Note_on_c, 1, 56, 0
4, 5304, Note_on_c, 1, 54, 78
4, 5327, Note_on_c, 1, 54, 0
4, 5328, Note_on_c, 1, 52, 78
4, 5351, Note_on_c, 1, 52, 0
4, 5352, Note_on_c, 1, 50, 78
4, 5375, Note_on_c, 1, 50, 0
4, 5376, Note_on_c, 1, 49, 78
4, 5399, Note_on_c, 1, 49, 0
4, 5400, Note_on_c, 1, 50, 78
4, 5423, Note_on_c, 1, 50, 0
4, 5424, Note_on_c, 1, 52, 78
4, 5447, Note_on_c, 1, 52, 0
4, 5448, Note_on_c, 1, 50, 78
4, 5471, Note_on_c, 1, 50, 0
4, 5472, Note_on_c, 1, 49, 78
4, 5495, Note_on_c, 1, 49, 0
4, 5496, Note_on_c, 1, 47, 78
4, 5519, Note_on_c, 1, 47, 0
4, 5520, Note_on_c, 1, 45, 78
4, 5543, Note_on_c, 1, 45, 0
4, 5544, Note_on_c, 1, 44, 78
4, 5567, Note_on_c, 1, 44, 0
4, 5568, Note_on_c, 1, 42, 78
4, 5591, Note_on_c, 1, 42, 0
4, 5592, Note_on_c, 1, 44, 78
4, 5615, Note_on_c, 1, 44, 0
4, 5616, Note_on_c, 1, 45, 78
4, 5639, Note_on_c, 1, 45, 0
4, 5640, Note_on_c, 1, 44, 78
4, 5663, Note_on_c, 1, 44, 0
4, 5664, Note_on_c, 1, 42, 78
4, 5687, Note_on_c, 1, 42, 0
4, 5688, Note_on_c, 1, 40, 78
4, 5711, Note_on_c, 1, 40, 0
4, 5712, Note_on_c, 1, 39, 78
4, 5735, Note_on_c, 1, 39, 0
4, 5736, Note_on_c, 1, 37, 78
4, 5759, Note_on_c, 1, 37, 0
4, 5760, Note_on_c, 1, 35, 78
4, 5849, Note_on_c, 1, 35, 0
4, 5904, Note_on_c, 1, 39, 78
4, 5949, Note_on_c, 1, 39, 0
4, 5952, Note_on_c, 1, 40, 78
4, 5972, Note_on_c, 1, 40, 0
4, 6000, Note_on_c, 1, 44, 79
4, 6020, Note_on_c, 1, 44, 0
4, 6048, Note_on_c, 1, 45, 81
4, 6068, Note_on_c, 1, 45, 0
4, 6096, Note_on_c, 1, 46, 83
4, 6116, Note_on_c, 1, 46, 0
4, 6144, Note_on_c, 1, 47, 85
4, 6233, Note_on_c, 1, 47, 0
4, 6384, Note_on_c, 1, 68, 63
4, 6384, Note_on_c, 1, 64, 63
4, 6429, Note_on_c, 1, 68, 0
4, 6429, Note_on_c, 1, 64, 0
4, 6432, Note_on_c, 1, 66, 63
4, 6432, Note_on_c, 1, 63, 63
4, 6477, Note_on_c, 1, 66, 0
4, 6477, Note_on_c, 1, 63, 0
4, 6480, Note_on_c, 1, 68, 63
4, 6480, Note_on_c, 1, 64, 63
4, 6525, Note_on_c, 1, 68, 0
4, 6525, Note_on_c, 1, 64, 0
4, 6528, Note_on_c, 1, 69, 63
4, 6528, Note_on_c, 1, 66, 63
4, 6567, Note_on_c, 1, 69, 0
4, 6567, Note_on_c, 1, 66, 0
4, 6768, Note_on_c, 1, 69, 63
4, 6768, Note_on_c, 1, 66, 63
4, 6813, Note_on_c, 1, 69, 0
4, 6813, Note_on_c, 1, 66, 0
4, 6816, Note_on_c, 1, 68, 63
4, 6816, Note_on_c, 1, 64, 63
4, 6861, Note_on_c, 1, 68, 0
4, 6861, Note_on_c, 1, 64, 0
4, 6864, Note_on_c, 1, 69, 63
4, 6864, Note_on_c, 1, 66, 63
4, 6909, Note_on_c, 1, 69, 0
4, 6909, Note_on_c, 1, 66, 0
4, 6912, Note_on_c, 1, 71, 63
4, 6912, Note_on_c, 1, 68, 63
4, 6951, Note_on_c, 1, 71, 0
4, 6951, Note_on_c, 1, 68, 0
4, 7152, Note_on_c, 1, 71, 63
4, 7152, Note_on_c, 1, 68, 63
4, 7172, Note_on_c, 1, 71, 0
4, 7172, Note_on_c, 1, 68, 0
4, 7200, Note_on_c, 1, 71, 67
4, 7200, Note_on_c, 1, 68, 67
4, 7220, Note_on_c, 1, 71, 0
4, 7220, Note_on_c, 1, 68, 0
4, 7248, Note_on_c, 1, 71, 71
4, 7248, Note_on_c, 1, 68, 71
4, 7268, Note_on_c, 1, 71, 0
4, 7268, Note_on_c, 1, 68, 0
4, 7296, Note_on_c, 1, 71, 76
4, 7296, Note_on_c, 1, 68, 76
4, 7392, Note_on_c, 1, 71, 0
4, 7392, Note_on_c, 1, 68, 0
4, 7392, Note_on_c, 1, 69, 63
4, 7392, Note_on_c, 1, 66, 63
4, 7412, Note_on_c, 1, 69, 0
4, 7412, Note_on_c, 1, 66, 0
4, 7440, Note_on_c, 1, 71, 63
4, 7440, Note_on_c, 1, 65, 63
4, 7460, Note_on_c, 1, 71, 0
4, 7460, Note_on_c, 1, 65, 0
4, 7488, Note_on_c, 1, 71, 85
4, 7488, Note_on_c, 1, 65, 85
4, 7584, Note_on_c, 1, 71, 0
4, 7584, Note_on_c, 1, 65, 0
4, 7584, Note_on_c, 1, 69, 63
4, 7584, Note_on_c, 1, 66, 63
4, 7604, Note_on_c, 1, 69, 0
4, 7604, Note_on_c, 1, 66, 0
4, 7632, Note_on_c, 1, 69, 63
4, 7632, Note_on_c, 1, 66, 63
4, 7652, Note_on_c, 1, 69, 0
4, 7652, Note_on_c, 1, 66, 0
4, 7680, Note_on_c, 1, 69, 85
4, 7680, Note_on_c, 1, 66, 85
4, 7776, Note_on_c, 1, 69, 0
4, 7776, Note_on_c, 1, 66, 0
4, 7776, Note_on_c, 1, 68, 63
4, 7776, Note_on_c, 1, 64, 63
4, 7796, Note_on_c, 1, 68, 0
4, 7796, Note_on_c, 1, 64, 0
4, 7824, Note_on_c, 1, 69, 63
4, 7824, Note_on_c, 1, 63, 63
4, 7844, Note_on_c, 1, 69, 0
4, 7844, Note_on_c, 1, 63, 0
4, 7872, Note_on_c, 1, 69, 85
4, 7872, Note_on_c, 1, 63, 85
4, 7968, Note_on_c, 1, 69, 0
4, 7968, Note_on_c, 1, 63, 0
4, 7968, Note_on_c, 1, 68, 85
4, 7968, Note_on_c, 1, 64, 85
4, 8013, Note_on_c, 1, 68, 0
4, 8013, Note_on_c, 1, 64, 0
4, 8016, Note_on_c, 1, 64, 85
4, 8016, Note_on_c, 1, 56, 85
4, 8036, Note_on_c, 1, 64, 0
4, 8036, Note_on_c, 1, 56, 0
4, 8064, Note_on_c, 1, 64, 85
4, 8241, Note_on_c, 1, 64, 0
4, 8256, Note_on_c, 1, 64, 85
4, 8389, Note_on_c, 1, 64, 0
4, 8400, Note_on_c, 1, 64, 85
4, 8445, Note_on_c, 1, 64, 0
4, 8448, Note_on_c, 1, 63, 85
4, 8448, Note_on_c, 1, 54, 85
4, 8493, Note_on_c, 1, 63, 0
4, 8493, Note_on_c, 1, 54, 0
4, 8544, Note_on_c, 1, 64, 85
4, 8544, Note_on_c, 1, 52, 85
4, 8589, Note_on_c, 1, 64, 0
4, 8589, Note_on_c, 1, 52, 0
4, 8640, Note_on_c, 1, 61, 85
4, 8640, Note_on_c, 1, 57, 85
4, 8685, Note_on_c, 1, 61, 0
4, 8685, Note_on_c, 1, 57, 0
4, 8784, Note_on_c, 1, 69, 63
4, 8784, Note_on_c, 1, 59, 63
4, 8829, Note_on_c, 1, 69, 0
4, 8829, Note_on_c, 1, 59, 0
4, 8832, Note_on_c, 1, 69, 63
4, 8832, Note_on_c, 1, 61, 63
4, 9024, Note_on_c, 1, 69, 0
4, 9024, Note_on_c, 1, 68, 63
4, 9201, Note_on_c, 1, 68, 0
4, 9201, Note_on_c, 1, 61, 0
4, 9216, Note_on_c, 1, 67, 85
4, 9216, Note_on_c, 1, 64, 85
4, 9216, Note_on_c, 1, 61, 85
4, 9305, Note_on_c, 1, 67, 0
4, 9305, Note_on_c, 1, 64, 0
4, 9305, Note_on_c, 1, 61, 0
4, 9600, Note_on_c, 1, 46, 106
4, 9600, Note_on_c, 1, 34, 106
4, 9792, Note_on_c, 1, 46, 0
4, 9792, Note_on_c, 1, 34, 0
4, 9792, Note_on_c, 1, 45, 85
4, 9792, Note_on_c, 1, 33, 85
4, 9969, Note_on_c, 1, 45, 0
4, 9969, Note_on_c, 1, 33, 0
4, 9984, Note_on_c, 1, 44, 78
4, 9984, Note_on_c, 1, 32, 78
4, 10073, Note_on_c, 1, 44, 0
4, 10073, Note_on_c, 1, 32, 0
4, 10176, Note_on_c, 1, 45, 78
4, 10176, Note_on_c, 1, 33, 78
4, 10265, Note_on_c, 1, 45, 0
4, 10265, Note_on_c, 1, 33, 0
4, 10368, Note_on_c, 1, 52, 78
4, 10368, Note_on_c, 1, 47, 78
4, 10457, Note_on_c, 1, 52, 0
4, 10457, Note_on_c, 1, 47, 0
4, 10464, Note_on_c, 1, 51, 78
4, 10464, Note_on_c, 1, 47, 78
4, 10553, Note_on_c, 1, 51, 0
4, 10553, Note_on_c, 1, 47, 0
4, 10560, Note_on_c, 1, 40, 78
4, 10583, Note_on_c, 1, 40, 0
4, 10584, Note_on_c, 1, 52, 78
4, 10607, Note_on_c, 1, 52, 0
4, 10608, Note_on_c, 1, 44, 78
4, 10631, Note_on_c, 1, 44, 0
4, 10632, Note_on_c, 1, 56, 78
4, 10655, Note_on_c, 1, 56, 0
4, 10752, Note_on_c, 1, 45, 78
4, 10775, Note_on_c, 1, 45, 0
4, 10776, Note_on_c, 1, 57, 78
4, 10799, Note_on_c, 1, 57, 0
4, 10800, Note_on_c, 1, 49, 78
4, 10823, Note_on_c, 1, 49, 0
4, 10824, Note_on_c, 1, 61, 78
4, 10847, Note_on_c, 1, 61, 0
4, 11136, Note_on_c, 1, 59, 85
4, 11136, Note_on_c, 1, 63, 85
4, 11136, Note_on_c, 1, 66, 85
4, 11136, Note_on_c, 1, 69, 85
4, 11175, Note_on_c, 1, 69, 0
4, 11175, Note_on_c, 1, 66, 0
4, 11175, Note_on_c, 1, 63, 0
4, 11175, Note_on_c, 1, 59, 0
4, 11232, Note_on_c, 1, 61, 85
4, 11232, Note_on_c, 1, 64, 85
4, 11232, Note_on_c, 1, 68, 85
4, 11271, Note_on_c, 1, 68, 0
4, 11271, Note_on_c, 1, 64, 0
4, 11271, Note_on_c, 1, 61, 0
4, 11328, Note_on_c, 1, 57, 85
4, 11328, Note_on_c, 1, 61, 85
4, 11328, Note_on_c, 1, 66, 85
4, 11367, Note_on_c, 1, 66, 0
4, 11367, Note_on_c, 1, 61, 0
4, 11367, Note_on_c, 1, 57, 0
4, 11472, Note_on_c, 1, 69, 78
4, 11472, Note_on_c, 1, 59, 78
4, 11520, Note_on_c, 1, 69, 0
4, 11520, Note_on_c, 1, 59, 0
4, 11520, Note_on_c, 1, 68, 78
4, 11520, Note_on_c, 1, 64, 78
4, 11559, Note_on_c, 1, 68, 0
4, 11559, Note_on_c, 1, 64, 0
4, 11664, Note_on_c, 1, 69, 78
4, 11664, Note_on_c, 1, 59, 78
4, 11712, Note_on_c, 1, 69, 0
4, 11712, Note_on_c, 1, 59, 0
4, 11712, Note_on_c, 1, 68, 78
4, 11712, Note_on_c, 1, 64, 78
4, 11751, Note_on_c, 1, 68, 0
4, 11751, Note_on_c, 1, 64, 0
4, 11856, Note_on_c, 1, 69, 70
4, 11856, Note_on_c, 1, 59, 70
4, 11904, Note_on_c, 1, 69, 0
4, 11904, Note_on_c, 1, 59, 0
4, 11904, Note_on_c, 1, 68, 70
4, 11904, Note_on_c, 1, 64, 70
4, 11943, Note_on_c, 1, 68, 0
4, 11943, Note_on_c, 1, 64, 0
4, 12048, Note_on_c, 1, 69, 70
4, 12048, Note_on_c, 1, 59, 70
4, 12096, Note_on_c, 1, 69, 0
4, 12096, Note_on_c, 1, 59, 0
4, 12096, Note_on_c, 1, 68, 70
4, 12096, Note_on_c, 1, 64, 70
4, 12135, Note_on_c, 1, 68, 0
4, 12135, Note_on_c, 1, 64, 0
4, 12240, Note_on_c, 1, 69, 63
4, 12240, Note_on_c, 1, 59, 63
4, 12288, Note_on_c, 1, 69, 0
4, 12288, Note_on_c, 1, 59, 0
4, 12288, Note_on_c, 1, 68, 63
4, 12288, Note_on_c, 1, 64, 63
4, 12308, Note_on_c, 1, 68, 0
4, 12308, Note_on_c, 1, 64, 0
4, 12384, Note_on_c, 1, 59, 55
4, 12404, Note_on_c, 1, 59, 0
4, 12672, Note_on_c, 1, 49, 85
4, 12672, Note_on_c, 1, 37, 85
4, 12717, Note_on_c, 1, 49, 0
4, 12717, Note_on_c, 1, 37, 0
4, 12720, Note_on_c, 1, 49, 85
4, 12732, Note_on_c, 1, 49, 0
4, 12732, Note_on_c, 1, 48, 85
4, 12744, Note_on_c, 1, 48, 0
4, 12744, Note_on_c, 1, 49, 85
4, 12756, Note_on_c, 1, 49, 0
4, 12756, Note_on_c, 1, 51, 85
4, 12768, Note_on_c, 1, 51, 0
4, 12768, Note_on_c, 1, 52, 85
4, 12788, Note_on_c, 1, 52, 0
4, 12816, Note_on_c, 1, 51, 85
4, 12836, Note_on_c, 1, 51, 0
4, 12864, Note_on_c, 1, 49, 85
4, 12884, Note_on_c, 1, 49, 0
4, 12912, Note_on_c, 1, 44, 85
4, 12932, Note_on_c, 1, 44, 0
4, 12960, Note_on_c, 1, 49, 85
4, 12980, Note_on_c, 1, 49, 0
4, 13008, Note_on_c, 1, 52, 85
4, 13028, Note_on_c, 1, 52, 0
4, 13056, Note_on_c, 1, 49, 85
4, 13145, Note_on_c, 1, 49, 0
4, 13296, Note_on_c, 1, 64, 63
4, 13296, Note_on_c, 1, 61, 63
4, 13341, Note_on_c, 1, 64, 0
4, 13341, Note_on_c, 1, 61, 0
4, 13344, Note_on_c, 1, 63, 63
4, 13344, Note_on_c, 1, 60, 63
4, 13389, Note_on_c, 1, 63, 0
4, 13389, Note_on_c, 1, 60, 0
4, 13392, Note_on_c, 1, 64, 63
4, 13392, Note_on_c, 1, 61, 63
4, 13437, Note_on_c, 1, 64, 0
4, 13437, Note_on_c, 1, 61, 0
4, 13440, Note_on_c, 1, 66, 63
4, 13440, Note_on_c, 1, 63, 63
4, 13479, Note_on_c, 1, 66, 0
4, 13479, Note_on_c, 1, 63, 0
4, 13680, Note_on_c, 1, 66, 63
4, 13680, Note_on_c, 1, 63, 63
4, 13725, Note_on_c, 1, 66, 0
4, 13725, Note_on_c, 1, 63, 0
4, 13728, Note_on_c, 1, 64, 63
4, 13728, Note_on_c, 1, 61, 63
4, 13773, Note_on_c, 1, 64, 0
4, 13773, Note_on_c, 1, 61, 0
4, 13776, Note_on_c, 1, 66, 63
4, 13776, Note_on_c, 1, 63, 63
4, 13821, Note_on_c, 1, 66, 0
4, 13821, Note_on_c, 1, 63, 0
4, 13824, Note_on_c, 1, 68, 63
4, 13824, Note_on_c, 1, 64, 63
4, 13863, Note_on_c, 1, 68, 0
4, 13863, Note_on_c, 1, 64, 0
4, 14064, Note_on_c, 1, 56, 63
4, 14064, Note_on_c, 1, 52, 63
4, 14109, Note_on_c, 1, 56, 0
4, 14109, Note_on_c, 1, 52, 0
4, 14112, Note_on_c, 1, 56, 63
4, 14112, Note_on_c, 1, 52, 63
4, 14157, Note_on_c, 1, 56, 0
4, 14157, Note_on_c, 1, 52, 0
4, 14160, Note_on_c, 1, 56, 63
4, 14160, Note_on_c, 1, 52, 63
4, 14205, Note_on_c, 1, 56, 0
4, 14205, Note_on_c, 1, 52, 0
4, 14256, Note_on_c, 1, 57, 63
4, 14256, Note_on_c, 1, 54, 63
4, 14301, Note_on_c, 1, 57, 0
4, 14301, Note_on_c, 1, 54, 0
4, 14304, Note_on_c, 1, 57, 63
4, 14304, Note_on_c, 1, 54, 63
4, 14349, Note_on_c, 1, 57, 0
4, 14349, Note_on_c, 1, 54, 0
4, 14352, Note_on_c, 1, 57, 63
4, 14352, Note_on_c, 1, 54, 63
4, 14397, Note_on_c, 1, 57, 0
4, 14397, Note_on_c, 1, 54, 0
4, 14448, Note_on_c, 1, 64, 63
4, 14493, Note_on_c, 1, 64, 0
4, 14496, Note_on_c, 1, 63, 63
4, 14541, Note_on_c, 1, 63, 0
4, 14544, Note_on_c, 1, 66, 63
4, 14589, Note_on_c, 1, 66, 0
4, 14592, Note_on_c, 1, 64, 63
4, 14592, Note_on_c, 1, 61, 63
4, 14681, Note_on_c, 1, 64, 0
4, 14681, Note_on_c, 1, 61, 0
4, 14976, Note_on_c, 1, 49, 78
4, 14976, Note_on_c, 1, 37, 78
4, 15021, Note_on_c, 1, 49, 0
4, 15021, Note_on_c, 1, 37, 0
4, 15024, Note_on_c, 1, 49, 78
4, 15036, Note_on_c, 1, 49, 0
4, 15036, Note_on_c, 1, 48, 78
4, 15048, Note_on_c, 1, 48, 0
4, 15048, Note_on_c, 1, 49, 78
4, 15060, Note_on_c, 1, 49, 0
4, 15060, Note_on_c, 1, 51, 78
4, 15072, Note_on_c, 1, 51, 0
4, 15072, Note_on_c, 1, 52, 78
4, 15092, Note_on_c, 1, 52, 0
4, 15120, Note_on_c, 1, 51, 78
4, 15140, Note_on_c, 1, 51, 0
4, 15168, Note_on_c, 1, 49, 78
4, 15188, Note_on_c, 1, 49, 0
4, 15216, Note_on_c, 1, 44, 78
4, 15236, Note_on_c, 1, 44, 0
4, 15264, Note_on_c, 1, 49, 78
4, 15284, Note_on_c, 1, 49, 0
4, 15312, Note_on_c, 1, 52, 78
4, 15332, Note_on_c, 1, 52, 0
4, 15360, Note_on_c, 1, 45, 78
4, 15360, Note_on_c, 1, 33, 78
4, 15405, Note_on_c, 1, 45, 0
4, 15405, Note_on_c, 1, 33, 0
4, 15408, Note_on_c, 1, 45, 78
4, 15420, Note_on_c, 1, 45, 0
4, 15420, Note_on_c, 1, 44, 78
4, 15432, Note_on_c, 1, 44, 0
4, 15432, Note_on_c, 1, 45, 78
4, 15444, Note_on_c, 1, 45, 0
4, 15444, Note_on_c, 1, 47, 78
4, 15456, Note_on_c, 1, 47, 0
4, 15456, Note_on_c, 1, 49, 78
4, 15476, Note_on_c, 1, 49, 0
4, 15504, Note_on_c, 1, 47, 78
4, 15524, Note_on_c, 1, 47, 0
4, 15552, Note_on_c, 1, 45, 78
4, 15572, Note_on_c, 1, 45, 0
4, 15600, Note_on_c, 1, 40, 78
4, 15620, Note_on_c, 1, 40, 0
4, 15648, Note_on_c, 1, 45, 78
4, 15668, Note_on_c, 1, 45, 0
4, 15696, Note_on_c, 1, 49, 78
4, 15716, Note_on_c, 1, 49, 0
4, 15744, Note_on_c, 1, 51, 101
4, 15888, Note_on_c, 1, 51, 0
4, 15888, Note_on_c, 1, 54, 85
4, 15911, Note_on_c, 1, 54, 0
4, 15912, Note_on_c, 1, 58, 85
4, 15935, Note_on_c, 1, 58, 0
4, 15936, Note_on_c, 1, 47, 85
4, 15956, Note_on_c, 1, 47, 0
4, 15984, Note_on_c, 1, 51, 85
4, 16004, Note_on_c, 1, 51, 0
4, 16032, Note_on_c, 1, 54, 85
4, 16052, Note_on_c, 1, 54, 0
4, 16080, Note_on_c, 1, 58, 85
4, 16100, Note_on_c, 1, 58, 0
4, 16128, Note_on_c, 1, 58, 101
4, 16224, Note_on_c, 1, 58, 0
4, 16224, Note_on_c, 1, 59, 85
4, 16365, Note_on_c, 1, 59, 0
4, 16368, Note_on_c, 1, 66, 78
4, 16368, Note_on_c, 1, 63, 78
4, 16413, Note_on_c, 1, 66, 0
4, 16413, Note_on_c, 1, 63, 0
4, 16416, Note_on_c, 1, 66, 78
4, 16416, Note_on_c, 1, 63, 78
4, 16461, Note_on_c, 1, 66, 0
4, 16461, Note_on_c, 1, 63, 0
4, 16464, Note_on_c, 1, 66, 74
4, 16464, Note_on_c, 1, 63, 74
4, 16509, Note_on_c, 1, 66, 0
4, 16509, Note_on_c, 1, 63, 0
4, 16512, Note_on_c, 1, 66, 70
4, 16512, Note_on_c, 1, 63, 70
4, 16777, Note_on_c, 1, 66, 0
4, 16777, Note_on_c, 1, 63, 0
4, 17088, Note_on_c, 1, 52, 78
4, 17111, Note_on_c, 1, 52, 0
4, 17112, Note_on_c, 1, 51, 78
4, 17135, Note_on_c, 1, 51, 0
4, 17136, Note_on_c, 1, 49, 78
4, 17159, Note_on_c, 1, 49, 0
4, 17160, Note_on_c, 1, 47, 78
4, 17183, Note_on_c, 1, 47, 0
4, 17184, Note_on_c, 1, 45, 78
4, 17207, Note_on_c, 1, 45, 0
4, 17208, Note_on_c, 1, 44, 78
4, 17231, Note_on_c, 1, 44, 0
4, 17232, Note_on_c, 1, 42, 78
4, 17255, Note_on_c, 1, 42, 0
4, 17256, Note_on_c, 1, 40, 78
4, 17279, Note_on_c, 1, 40, 0
4, 17280, Note_on_c, 1, 39, 78
4, 17369, Note_on_c, 1, 39, 0
4, 17472, Note_on_c, 1, 57, 78
4, 17495, Note_on_c, 1, 57, 0
4, 17496, Note_on_c, 1, 56, 78
4, 17519, Note_on_c, 1, 56, 0
4, 17520, Note_on_c, 1, 54, 78
4, 17543, Note_on_c, 1, 54, 0
4, 17544, Note_on_c, 1, 52, 78
4, 17567, Note_on_c, 1, 52, 0
4, 17568, Note_on_c, 1, 51, 78
4, 17591, Note_on_c, 1, 51, 0
4, 17592, Note_on_c, 1, 49, 78
4, 17615, Note_on_c, 1, 49, 0
4, 17616, Note_on_c, 1, 47, 78
4, 17639, Note_on_c, 1, 47, 0
4, 17640, Note_on_c, 1, 51, 78
4, 17663, Note_on_c, 1, 51, 0
4, 17664, Note_on_c, 1, 52, 78
4, 17753, Note_on_c, 1, 52, 0
4, 17856, Note_on_c, 1, 62, 78
4, 17879, Note_on_c, 1, 62, 0
4, 17880, Note_on_c, 1, 61, 78
4, 17903, Note_on_c, 1, 61, 0
4, 17904, Note_on_c, 1, 59, 78
4, 17927, Note_on_c, 1, 59, 0
4, 17928, Note_on_c, 1, 57, 78
4, 17951, Note_on_c, 1, 57, 0
4, 17952, Note_on_c, 1, 56, 78
4, 17975, Note_on_c, 1, 56, 0
4, 17976, Note_on_c, 1, 54, 78
4, 17999, Note_on_c, 1, 54, 0
4, 18000, Note_on_c, 1, 52, 78
4, 18023, Note_on_c, 1, 52, 0
4, 18024, Note_on_c, 1, 50, 78
4, 18047, Note_on_c, 1, 50, 0
4, 18048, Note_on_c, 1, 49, 78
4, 18071, Note_on_c, 1, 49, 0
4, 18072, Note_on_c, 1, 50, 78
4, 18095, Note_on_c, 1, 50, 0
4, 18096, Note_on_c, 1, 52, 78
4, 18119, Note_on_c, 1, 52, 0
4, 18120, Note_on_c, 1, 50, 78
4, 18143, Note_on_c, 1, 50, 0
4, 18144, Note_on_c, 1, 49, 78
4, 18167, Note_on_c, 1, 49, 0
4, 18168, Note_on_c, 1, 47, 78
4, 18191, Note_on_c, 1, 47, 0
4, 18192, Note_on_c, 1, 45, 78
4, 18215, Note_on_c, 1, 45, 0
4, 18216, Note_on_c, 1, 44, 78
4, 18239, Note_on_c, 1, 44, 0
4, 18240, Note_on_c, 1, 42, 78
4, 18263, Note_on_c, 1, 42, 0
4, 18264, Note_on_c, 1, 44, 78
4, 18287, Note_on_c, 1, 44, 0
4, 18288, Note_on_c, 1, 45, 78
4, 18311, Note_on_c, 1, 45, 0
4, 18312, Note_on_c, 1, 44, 78
4, 18335, Note_on_c, 1, 44, 0
4, 18336, Note_on_c, 1, 42, 78
4, 18359, Note_on_c, 1, 42, 0
4, 18360, Note_on_c, 1, 40, 78
4, 18383, Note_on_c, 1, 40, 0
4, 18384, Note_on_c, 1, 39, 78
4, 18407, Note_on_c, 1, 39, 0
4, 18408, Note_on_c, 1, 37, 78
4, 18431, Note_on_c, 1, 37, 0
4, 18432, Note_on_c, 1, 35, 78
4, 18521, Note_on_c, 1, 35, 0
4, 18576, Note_on_c, 1, 39, 78
4, 18621, Note_on_c, 1, 39, 0
4, 18624, Note_on_c, 1, 40, 78
4, 18644, Note_on_c, 1, 40, 0
4, 18672, Note_on_c, 1, 44, 79
4, 18692, Note_on_c, 1, 44, 0
4, 18720, Note_on_c, 1, 45, 81
4, 18740, Note_on_c, 1, 45, 0
4, 18768, Note_on_c, 1, 46, 83
4, 18788, Note_on_c, 1, 46, 0
4, 18816, Note_on_c, 1, 47, 85
4, 18905, Note_on_c, 1, 47, 0
4, 19056, Note_on_c, 1, 68, 63
4, 19056, Note_on_c, 1, 64, 63
4, 19101, Note_on_c, 1, 68, 0
4, 19101, Note_on_c, 1, 64, 0
4, 19104, Note_on_c, 1, 66, 63
4, 19104, Note_on_c, 1, 63, 63
4, 19149, Note_on_c, 1, 66, 0
4, 19149, Note_on_c, 1, 63, 0
4, 19152, Note_on_c, 1, 68, 63
4, 19152, Note_on_c, 1, 64, 63
4, 19197, Note_on_c, 1, 68, 0
4, 19197, Note_on_c, 1, 64, 0
4, 19200, Note_on_c, 1, 69, 63
4, 19200, Note_on_c, 1, 66, 63
4, 19239, Note_on_c, 1, 69, 0
4, 19239, Note_on_c, 1, 66, 0
4, 19440, Note_on_c, 1, 69, 63
4, 19440, Note_on_c, 1, 66, 63
4, 19485, Note_on_c, 1, 69, 0
4, 19485, Note_on_c, 1, 66, 0
4, 19488, Note_on_c, 1, 68, 63
4, 19488, Note_on_c, 1, 64, 63
4, 19533, Note_on_c, 1, 68, 0
4, 19533, Note_on_c, 1, 64, 0
4, 19536, Note_on_c, 1, 69, 63
4, 19536, Note_on_c, 1, 66, 63
4, 19581, Note_on_c, 1, 69, 0
4, 19581, Note_on_c, 1, 66, 0
4, 19584, Note_on_c, 1, 71, 63
4, 19584, Note_on_c, 1, 68, 63
4, 19623, Note_on_c, 1, 71, 0
4, 19623, Note_on_c, 1, 68, 0
4, 19824, Note_on_c, 1, 71, 63
4, 19824, Note_on_c, 1, 68, 63
4, 19844, Note_on_c, 1, 71, 0
4, 19844, Note_on_c, 1, 68, 0
4, 19872, Note_on_c, 1, 71, 67
4, 19872, Note_on_c, 1, 68, 67
4, 19892, Note_on_c, 1, 71, 0
4, 19892, Note_on_c, 1, 68, 0
4, 19920, Note_on_c, 1, 71, 71
4, 19920, Note_on_c, 1, 68, 71
4, 19940, Note_on_c, 1, 71, 0
4, 19940, Note_on_c, 1, 68, 0
4, 19968, Note_on_c, 1, 71, 76
4, 19968, Note_on_c, 1, 68, 76
4, 20064, Note_on_c, 1, 71, 0
4, 20064, Note_on_c, 1, 68, 0
4, 20064, Note_on_c, 1, 69, 63
4, 20064, Note_on_c, 1, 66, 63
4, 20084, Note_on_c, 1, 69, 0
4, 20084, Note_on_c, 1, 66, 0
4, 20112, Note_on_c, 1, 71, 63
4, 20112, Note_on_c, 1, 65, 63
4, 20132, Note_on_c, 1, 71, 0
4, 20132, Note_on_c, 1, 65, 0
4, 20160, Note_on_c, 1, 71, 85
4, 20160, Note_on_c, 1, 65, 85
4, 20256, Note_on_c, 1, 71, 0
4, 20256, Note_on_c, 1, 65, 0
4, 20256, Note_on_c, 1, 69, 63
4, 20256, Note_on_c, 1, 66, 63
4, 20276, Note_on_c, 1, 69, 0
4, 20276, Note_on_c, 1, 66, 0
4, 20304, Note_on_c, 1, 69, 63
4, 20304, Note_on_c, 1, 66, 63
4, 20324, Note_on_c, 1, 69, 0
4, 20324, Note_on_c, 1, 66, 0
4, 20352, Note_on_c, 1, 69, 85
4, 20352, Note_on_c, 1, 66, 85
4, 20448, Note_on_c, 1, 69, 0
4, 20448, Note_on_c, 1, 66, 0
4, 20448, Note_on_c, 1, 68, 63
4, 20448, Note_on_c, 1, 64, 63
4, 20468, Note_on_c, 1, 68, 0
4, 20468, Note_on_c, 1, 64, 0
4, 20496, Note_on_c, 1, 69, 63
4, 20496, Note_on_c, 1, 63, 63
4, 20516, Note_on_c, 1, 69, 0
4, 20516, Note_on_c, 1, 63, 0
4, 20544, Note_on_c, 1, 69, 85
4, 20544, Note_on_c, 1, 63, 85
4, 20640, Note_on_c, 1, 69, 0
4, 20640, Note_on_c, 1, 63, 0
4, 20640, Note_on_c, 1, 68, 85
4, 20640, Note_on_c, 1, 64, 85
4, 20685, Note_on_c, 1, 68, 0
4, 20685, Note_on_c, 1, 64, 0
4, 20688, Note_on_c, 1, 64, 85
4, 20688, Note_on_c, 1, 56, 85
4, 20708, Note_on_c, 1, 64, 0
4, 20708, Note_on_c, 1, 56, 0
4, 20736, Note_on_c, 1, 64, 85
4, 20913, Note_on_c, 1, 64, 0
4, 20928, Note_on_c, 1, 64, 85
4, 21061, Note_on_c, 1, 64, 0
4, 21072, Note_on_c, 1, 64, 85
4, 21117, Note_on_c, 1, 64, 0
4, 21120, Note_on_c, 1, 63, 85
4, 21120, Note_on_c, 1, 54, 85
4, 21165, Note_on_c, 1, 63, 0
4, 21165, Note_on_c, 1, 54, 0
4, 21216, Note_on_c, 1, 64, 85
4, 21216, Note_on_c, 1, 52, 85
4, 21261, Note_on_c, 1, 64, 0
4, 21261, Note_on_c, 1, 52, 0
4, 21312, Note_on_c, 1, 61, 85
4, 21312, Note_on_c, 1, 57, 85
4, 21357, Note_on_c, 1, 61, 0
4, 21357, Note_on_c, 1, 57, 0
4, 21456, Note_on_c, 1, 69, 63
4, 21456, Note_on_c, 1, 59, 63
4, 21501, Note_on_c, 1, 69, 0
4, 21501, Note_on_c, 1, 59, 0
4, 21504, Note_on_c, 1, 69, 63
4, 21504, Note_on_c, 1, 61, 63
4, 21696, Note_on_c, 1, 69, 0
4, 21696, Note_on_c, 1, 68, 63
4, 21873, Note_on_c, 1, 68, 0
4, 21873, Note_on_c, 1, 61, 0
4, 21888, Note_on_c, 1, 67, 85
4, 21888, Note_on_c, 1, 64, 85
4, 21888, Note_on_c, 1, 61, 85
4, 21977, Note_on_c, 1, 67, 0
4, 21977, Note_on_c, 1, 64, 0
4, 21977, Note_on_c, 1, 61, 0
4, 22272, Note_on_c, 1, 46, 106
4, 22272, Note_on_c, 1, 34, 106
4, 22464, Note_on_c, 1, 46, 0
4, 22464, Note_on_c, 1, 34, 0
4, 22464, Note_on_c, 1, 45, 85
4, 22464, Note_on_c, 1, 33, 85
4, 22641, Note_on_c, 1, 45, 0
4, 22641, Note_on_c, 1, 33, 0
4, 22656, Note_on_c, 1, 44, 78
4, 22656, Note_on_c, 1, 32, 78
4, 22745, Note_on_c, 1, 44, 0
4, 22745, Note_on_c, 1, 32, 0
4, 22848, Note_on_c, 1, 45, 78
4, 22848, Note_on_c, 1, 33, 78
4, 22937, Note_on_c, 1, 45, 0
4, 22937, Note_on_c, 1, 33, 0
4, 23040, Note_on_c, 1, 52, 78
4, 23040, Note_on_c, 1, 47, 78
4, 23129, Note_on_c, 1, 52, 0
4, 23129, Note_on_c, 1, 47, 0
4, 23136, Note_on_c, 1, 51, 78
4, 23136, Note_on_c, 1, 47, 78
4, 23225, Note_on_c, 1, 51, 0
4, 23225, Note_on_c, 1, 47, 0
4, 23232, Note_on_c, 1, 40, 78
4, 23255, Note_on_c, 1, 40, 0
4, 23256, Note_on_c, 1, 52, 78
4, 23279, Note_on_c, 1, 52, 0
4, 23280, Note_on_c, 1, 44, 78
4, 23303, Note_on_c, 1, 44, 0
4, 23304, Note_on_c, 1, 56, 78
4, 23327, Note_on_c, 1, 56, 0
4, 23424, Note_on_c, 1, 45, 78
4, 23447, Note_on_c, 1, 45, 0
4, 23448, Note_on_c, 1, 57, 78
4, 23471, Note_on_c, 1, 57, 0
4, 23472, Note_on_c, 1, 49, 78
4, 23495, Note_on_c, 1, 49, 0
4, 23496, Note_on_c, 1, 61, 78
4, 23519, Note_on_c, 1, 61, 0
4, 23808, Note_on_c, 1, 59, 85
4, 23808, Note_on_c, 1, 63, 85
4, 23808, Note_on_c, 1, 66, 85
4, 23808, Note_on_c, 1, 69, 85
4, 23847, Note_on_c, 1, 69, 0
4, 23847, Note_on_c, 1, 66, 0
4, 23847, Note_on_c, 1, 63, 0
4, 23847, Note_on_c, 1, 59, 0
4, 23904, Note_on_c, 1, 61, 85
4, 23904, Note_on_c, 1, 64, 85
4, 23904, Note_on_c, 1, 68, 85
4, 23943, Note_on_c, 1, 68, 0
4, 23943, Note_on_c, 1, 64, 0
4, 23943, Note_on_c, 1, 61, 0
4, 24000, Note_on_c, 1, 57, 85
4, 24000, Note_on_c, 1, 61, 85
4, 24000, Note_on_c, 1, 66, 85
4, 24039, Note_on_c, 1, 66, 0
4, 24039, Note_on_c, 1, 61, 0
4, 24039, Note_on_c, 1, 57, 0
4, 24144, Note_on_c, 1, 69, 78
4, 24144, Note_on_c, 1, 59, 78
4, 24192, Note_on_c, 1, 69, 0
4, 24192, Note_on_c, 1, 59, 0
4, 24192, Note_on_c, 1, 68, 78
4, 24192, Note_on_c, 1, 64, 78
4, 24231, Note_on_c, 1, 68, 0
4, 24231, Note_on_c, 1, 64, 0
4, 24336, Note_on_c, 1, 69, 78
4, 24336, Note_on_c, 1, 59, 78
4, 24384, Note_on_c, 1, 69, 0
4, 24384, Note_on_c, 1, 59, 0
4, 24384, Note_on_c, 1, 68, 78
4, 24384, Note_on_c, 1, 64, 78
4, 24423, Note_on_c, 1, 68, 0
4, 24423, Note_on_c, 1, 64, 0
4, 24528, Note_on_c, 1, 69, 70
4, 24528, Note_on_c, 1, 59, 70
4, 24576, Note_on_c, 1, 69, 0
4, 24576, Note_on_c, 1, 59, 0
4, 24576, Note_on_c, 1, 68, 70
4, 24576, Note_on_c, 1, 64, 70
4, 24615, Note_on_c, 1, 68, 0
4, 24615, Note_on_c, 1, 64, 0
4, 24720, Note_on_c, 1, 69, 70
4, 24720, Note_on_c, 1, 59, 70
4, 24768, Note_on_c, 1, 69, 0
4, 24768, Note_on_c, 1, 59, 0
4, 24768, Note_on_c, 1, 68, 70
4, 24768, Note_on_c, 1, 64, 70
4, 24807, Note_on_c, 1, 68, 0
4, 24807, Note_on_c, 1, 64, 0
4, 24912, Note_on_c, 1, 69, 63
4, 24912, Note_on_c, 1, 59, 63
4, 24960, Note_on_c, 1, 69, 0
4, 24960, Note_on_c, 1, 59, 0
4, 24960, Note_on_c, 1, 68, 63
4, 24960, Note_on_c, 1, 64, 63
4, 24980, Note_on_c, 1, 68, 0
4, 24980, Note_on_c, 1, 64, 0
4, 25056, Note_on_c, 1, 59, 55
4, 25076, Note_on_c, 1, 59, 0
4, 25536, Note_on_c, 1, 64, 78
4, 25559, Note_on_c, 1, 64, 0
4, 25560, Note_on_c, 1, 63, 78
4, 25583, Note_on_c, 1, 63, 0
4, 25584, Note_on_c, 1, 61, 78
4, 25607, Note_on_c, 1, 61, 0
4, 25608, Note_on_c, 1, 59, 78
4, 25631, Note_on_c, 1, 59, 0
4, 25632, Note_on_c, 1, 57, 78
4, 25655, Note_on_c, 1, 57, 0
4, 25656, Note_on_c, 1, 56, 78
4, 25679, Note_on_c, 1, 56, 0
4, 25680, Note_on_c, 1, 54, 78
4, 25703, Note_on_c, 1, 54, 0
4, 25704, Note_on_c, 1, 52, 78
4, 25727, Note_on_c, 1, 52, 0
4, 25728, Note_on_c, 1, 51, 78
4, 25817, Note_on_c, 1, 51, 0
4, 26496, Note_on_c, 1, 66, 85
4, 26519, Note_on_c, 1, 66, 0
4, 26520, Note_on_c, 1, 68, 85
4, 26528, Note_on_c, 1, 68, 0
4, 26528, Note_on_c, 1, 66, 85
4, 26536, Note_on_c, 1, 66, 0
4, 26536, Note_on_c, 1, 65, 85
4, 26544, Note_on_c, 1, 65, 0
4, 26544, Note_on_c, 1, 66, 85
4, 26567, Note_on_c, 1, 66, 0
4, 26568, Note_on_c, 1, 68, 85
4, 26591, Note_on_c, 1, 68, 0
4, 26592, Note_on_c, 1, 69, 85
4, 26637, Note_on_c, 1, 69, 0
4, 26640, Note_on_c, 1, 68, 85
4, 26685, Note_on_c, 1, 68, 0
4, 26688, Note_on_c, 1, 66, 85
4, 26708, Note_on_c, 1, 66, 0
4, 26736, Note_on_c, 1, 61, 85
4, 26756, Note_on_c, 1, 61, 0
4, 26784, Note_on_c, 1, 66, 85
4, 26804, Note_on_c, 1, 66, 0
4, 26832, Note_on_c, 1, 69, 85
4, 26852, Note_on_c, 1, 69, 0
4, 26880, Note_on_c, 1, 66, 85
4, 26969, Note_on_c, 1, 66, 0
4, 27120, Note_on_c, 1, 69, 63
4, 27120, Note_on_c, 1, 66, 63
4, 27165, Note_on_c, 1, 69, 0
4, 27165, Note_on_c, 1, 66, 0
4, 27168, Note_on_c, 1, 68, 63
4, 27168, Note_on_c, 1, 65, 63
4, 27213, Note_on_c, 1, 68, 0
4, 27213, Note_on_c, 1, 65, 0
4, 27216, Note_on_c, 1, 69, 63
4, 27216, Note_on_c, 1, 66, 63
4, 27261, Note_on_c, 1, 69, 0
4, 27261, Note_on_c, 1, 66, 0
4, 27264, Note_on_c, 1, 71, 63
4, 27264, Note_on_c, 1, 68, 63
4, 27303, Note_on_c, 1, 71, 0
4, 27303, Note_on_c, 1, 68, 0
4, 27504, Note_on_c, 1, 71, 63
4, 27504, Note_on_c, 1, 68, 63
4, 27549, Note_on_c, 1, 71, 0
4, 27549, Note_on_c, 1, 68, 0
4, 27552, Note_on_c, 1, 69, 63
4, 27552, Note_on_c, 1, 66, 63
4, 27597, Note_on_c, 1, 69, 0
4, 27597, Note_on_c, 1, 66, 0
4, 27600, Note_on_c, 1, 71, 63
4, 27600, Note_on_c, 1, 68, 63
4, 27645, Note_on_c, 1, 71, 0
4, 27645, Note_on_c, 1, 68, 0
4, 27648, Note_on_c, 1, 73, 63
4, 27648, Note_on_c, 1, 69, 63
4, 27687, Note_on_c, 1, 73, 0
4, 27687, Note_on_c, 1, 69, 0
4, 27888, Note_on_c, 1, 64, 85
4, 27888, Note_on_c, 1, 61, 85
4, 27888, Note_on_c, 1, 57, 85
4, 27933, Note_on_c, 1, 64, 0
4, 27933, Note_on_c, 1, 61, 0
4, 27933, Note_on_c, 1, 57, 0
4, 27936, Note_on_c, 1, 64, 85
4, 27936, Note_on_c, 1, 61, 85
4, 27936, Note_on_c, 1, 57, 85
4, 27981, Note_on_c, 1, 64, 0
4, 27981, Note_on_c, 1, 61, 0
4, 27981, Note_on_c, 1, 57, 0
4, 27984, Note_on_c, 1, 64, 85
4, 27984, Note_on_c, 1, 61, 85
4, 27984, Note_on_c, 1, 57, 85
4, 28029, Note_on_c, 1, 64, 0
4, 28029, Note_on_c, 1, 61, 0
4, 28029, Note_on_c, 1, 57, 0
4, 28032, Control_c, 1, 64, 127
4, 28032, Note_on_c, 1, 64, 85
4, 28032, Note_on_c, 1, 61, 85
4, 28032, Note_on_c, 1, 57, 85
4, 28077, Note_on_c, 1, 64, 0
4, 28077, Note_on_c, 1, 61, 0
4, 28077, Note_on_c, 1, 57, 0
4, 28080, Note_on_c, 1, 64, 85
4, 28080, Note_on_c, 1, 61, 85
4, 28125, Note_on_c, 1, 64, 0
4, 28125, Note_on_c, 1, 61, 0
4, 28128, Note_on_c, 1, 64, 85
4, 28128, Note_on_c, 1, 61, 85
4, 28173, Note_on_c, 1, 64, 0
4, 28173, Note_on_c, 1, 61, 0
4, 28176, Note_on_c, 1, 64, 85
4, 28176, Note_on_c, 1, 61, 85
4, 28221, Note_on_c, 1, 64, 0
4, 28221, Note_on_c, 1, 61, 0
4, 28224, Note_on_c, 1, 64, 85
4, 28224, Note_on_c, 1, 61, 85
4, 28313, Note_on_c, 1, 64, 0
4, 28313, Note_on_c, 1, 61, 0
4, 28320, Control_c, 1, 64, 0
4, 28416, Note_on_c, 1, 64, 63
4, 28416, Note_on_c, 1, 61, 63
4, 28505, Note_on_c, 1, 64, 0
4, 28505, Note_on_c, 1, 61, 0
4, 28656, Note_on_c, 1, 64, 85
4, 28656, Note_on_c, 1, 57, 85
4, 28701, Note_on_c, 1, 64, 0
4, 28701, Note_on_c, 1, 57, 0
4, 28704, Note_on_c, 1, 64, 85
4, 28704, Note_on_c, 1, 57, 85
4, 28749, Note_on_c, 1, 64, 0
4, 28749, Note_on_c, 1, 57, 0
4, 28752, Note_on_c, 1, 61, 85
4, 28752, Note_on_c, 1, 57, 85
4, 28797, Note_on_c, 1, 61, 0
4, 28797, Note_on_c, 1, 57, 0
4, 28800, Control_c, 1, 64, 127
4, 28800, Note_on_c, 1, 63, 85
4, 28800, Note_on_c, 1, 60, 85
4, 28800, Note_on_c, 1, 56, 85
4, 28845, Note_on_c, 1, 63, 0
4, 28845, Note_on_c, 1, 60, 0
4, 28845, Note_on_c, 1, 56, 0
4, 28848, Note_on_c, 1, 63, 85
4, 28848, Note_on_c, 1, 60, 85
4, 28848, Note_on_c, 1, 56, 85
4, 28893, Note_on_c, 1, 63, 0
4, 28893, Note_on_c, 1, 60, 0
4, 28893, Note_on_c, 1, 56, 0
4, 28896, Note_on_c, 1, 63, 85
4, 28896, Note_on_c, 1, 60, 85
4, 28896, Note_on_c, 1, 56, 85
4, 28941, Note_on_c, 1, 63, 0
4, 28941, Note_on_c, 1, 60, 0
4, 28941, Note_on_c, 1, 56, 0
4, 28944, Note_on_c, 1, 63, 85
4, 28944, Note_on_c, 1, 60, 85
4, 28944, Note_on_c, 1, 56, 85
4, 28989, Note_on_c, 1, 63, 0
4, 28989, Note_on_c, 1, 60, 0
4, 28989, Note_on_c, 1, 56, 0
4, 28992, Note_on_c, 1, 63, 85
4, 28992, Note_on_c, 1, 60, 85
4, 28992, Note_on_c, 1, 56, 85
4, 29081, Note_on_c, 1, 63, 0
4, 29081, Note_on_c, 1, 60, 0
4, 29081, Note_on_c, 1, 56, 0
4, 29184, Control_c, 1, 64, 0
4, 29184, Note_on_c, 1, 44, 78
4, 29229, Note_on_c, 1, 44, 0
4, 29232, Note_on_c, 1, 44, 78
4, 29244, Note_on_c, 1, 44, 0
4, 29244, Note_on_c, 1, 43, 78
4, 29256, Note_on_c, 1, 43, 0
4, 29256, Note_on_c, 1, 44, 78
4, 29268, Note_on_c, 1, 44, 0
4, 29268, Note_on_c, 1, 46, 78
4, 29280, Note_on_c, 1, 46, 0
4, 29280, Note_on_c, 1, 47, 78
4, 29325, Note_on_c, 1, 47, 0
4, 29328, Note_on_c, 1, 46, 78
4, 29373, Note_on_c, 1, 46, 0
4, 29376, Note_on_c, 1, 44, 78
4, 29396, Note_on_c, 1, 44, 0
4, 29424, Note_on_c, 1, 39, 78
4, 29444, Note_on_c, 1, 39, 0
4, 29472, Note_on_c, 1, 44, 78
4, 29492, Note_on_c, 1, 44, 0
4, 29520, Note_on_c, 1, 47, 78
4, 29540, Note_on_c, 1, 47, 0
4, 29568, Note_on_c, 1, 44, 78
4, 29657, Note_on_c, 1, 44, 0
4, 29808, Note_on_c, 1, 59, 63
4, 29808, Note_on_c, 1, 56, 63
4, 29853, Note_on_c, 1, 59, 0
4, 29853, Note_on_c, 1, 56, 0
4, 29856, Note_on_c, 1, 58, 63
4, 29856, Note_on_c, 1, 55, 63
4, 29901, Note_on_c, 1, 58, 0
4, 29901, Note_on_c, 1, 55, 0
4, 29904, Note_on_c, 1, 59, 63
4, 29904, Note_on_c, 1, 56, 63
4, 29949, Note_on_c, 1, 59, 0
4, 29949, Note_on_c, 1, 56, 0
4, 29952, Note_on_c, 1, 61, 63
4, 29952, Note_on_c, 1, 58, 63
4, 29991, Note_on_c, 1, 61, 0
4, 29991, Note_on_c, 1, 58, 0
4, 30192, Note_on_c, 1, 61, 63
4, 30192, Note_on_c, 1, 58, 63
4, 30237, Note_on_c, 1, 61, 0
4, 30237, Note_on_c, 1, 58, 0
4, 30240, Note_on_c, 1, 59, 63
4, 30240, Note_on_c, 1, 56, 63
4, 30285, Note_on_c, 1, 59, 0
4, 30285, Note_on_c, 1, 56, 0
4, 30288, Note_on_c, 1, 61, 63
4, 30288, Note_on_c, 1, 58, 63
4, 30333, Note_on_c, 1, 61, 0
4, 30333, Note_on_c, 1, 58, 0
4, 30336, Note_on_c, 1, 63, 63
4, 30336, Note_on_c, 1, 59, 63
4, 30375, Note_on_c, 1, 63, 0
4, 30375, Note_on_c, 1, 59, 0
4, 30576, Note_on_c, 1, 51, 63
4, 30576, Note_on_c, 1, 47, 63
4, 30621, Note_on_c, 1, 51, 0
4, 30621, Note_on_c, 1, 47, 0
4, 30624, Note_on_c, 1, 51, 63
4, 30624, Note_on_c, 1, 47, 63
4, 30669, Note_on_c, 1, 51, 0
4, 30669, Note_on_c, 1, 47, 0
4, 30672, Note_on_c, 1, 51, 63
4, 30672, Note_on_c, 1, 47, 63
4, 30717, Note_on_c, 1, 51, 0
4, 30717, Note_on_c, 1, 47, 0
4, 30768, Note_on_c, 1, 52, 63
4, 30768, Note_on_c, 1, 49, 63
4, 30813, Note_on_c, 1, 52, 0
4, 30813, Note_on_c, 1, 49, 0
4, 30816, Note_on_c, 1, 52, 63
4, 30816, Note_on_c, 1, 49, 63
4, 30861, Note_on_c, 1, 52, 0
4, 30861, Note_on_c, 1, 49, 0
4, 30864, Note_on_c, 1, 52, 63
4, 30864, Note_on_c, 1, 49, 63
4, 30909, Note_on_c, 1, 52, 0
4, 30909, Note_on_c, 1, 49, 0
4, 30960, Note_on_c, 1, 58, 64
4, 30960, Note_on_c, 1, 51, 64
4, 31005, Note_on_c, 1, 58, 0
4, 31005, Note_on_c, 1, 51, 0
4, 31008, Note_on_c, 1, 58, 64
4, 31008, Note_on_c, 1, 51, 64
4, 31053, Note_on_c, 1, 58, 0
4, 31053, Note_on_c, 1, 51, 0
4, 31056, Note_on_c, 1, 58, 64
4, 31056, Note_on_c, 1, 51, 64
4, 31101, Note_on_c, 1, 58, 0
4, 31101, Note_on_c, 1, 51, 0
4, 31152, Note_on_c, 1, 56, 65
4, 31152, Note_on_c, 1, 44, 65
4, 31197, Note_on_c, 1, 56, 0
4, 31197, Note_on_c, 1, 44, 0
4, 31200, Note_on_c, 1, 56, 65
4, 31200, Note_on_c, 1, 44, 65
4, 31245, Note_on_c, 1, 56, 0
4, 31245, Note_on_c, 1, 44, 0
4, 31248, Note_on_c, 1, 56, 66
4, 31248, Note_on_c, 1, 44, 66
4, 31293, Note_on_c, 1, 56, 0
4, 31293, Note_on_c, 1, 44, 0
4, 31344, Note_on_c, 1, 56, 66
4, 31344, Note_on_c, 1, 49, 66
4, 31389, Note_on_c, 1, 56, 0
4, 31389, Note_on_c, 1, 49, 0
4, 31392, Note_on_c, 1, 56, 66
4, 31392, Note_on_c, 1, 49, 66
4, 31437, Note_on_c, 1, 56, 0
4, 31437, Note_on_c, 1, 49, 0
4, 31440, Note_on_c, 1, 56, 67
4, 31440, Note_on_c, 1, 49, 67
4, 31485, Note_on_c, 1, 56, 0
4, 31485, Note_on_c, 1, 49, 0
4, 31536, Note_on_c, 1, 54, 67
4, 31536, Note_on_c, 1, 42, 67
4, 31581, Note_on_c, 1, 54, 0
4, 31581, Note_on_c, 1, 42, 0
4, 31584, Note_on_c, 1, 54, 68
4, 31584, Note_on_c, 1, 42, 68
4, 31629, Note_on_c, 1, 54, 0
4, 31629, Note_on_c, 1, 42, 0
4, 31632, Note_on_c, 1, 54, 68
4, 31632, Note_on_c, 1, 42, 68
4, 31677, Note_on_c, 1, 54, 0
4, 31677, Note_on_c, 1, 42, 0
4, 31728, Note_on_c, 1, 54, 69
4, 31728, Note_on_c, 1, 47, 69
4, 31773, Note_on_c, 1, 54, 0
4, 31773, Note_on_c, 1, 47, 0
4, 31776, Note_on_c, 1, 54, 69
4, 31776, Note_on_c, 1, 47, 69
4, 31821, Note_on_c, 1, 54, 0
4, 31821, Note_on_c, 1, 47, 0
4, 31824, Note_on_c, 1, 54, 69
4, 31824, Note_on_c, 1, 47, 69
4, 31869, Note_on_c, 1, 54, 0
4, 31869, Note_on_c, 1, 47, 0
4, 31872, Note_on_c, 1, 52, 70
4, 31872, Note_on_c, 1, 40, 70
4, 31920, Note_on_c, 1, 52, 0
4, 31920, Note_on_c, 1, 40, 0
4, 31920, Control_c, 1, 64, 127
4, 31920, Note_on_c, 1, 56, 70
4, 31965, Note_on_c, 1, 56, 0
4, 31968, Note_on_c, 1, 59, 70
4, 32013, Note_on_c, 1, 59, 0
4, 32016, Note_on_c, 1, 56, 70
4, 32061, Note_on_c, 1, 56, 0
4, 32064, Note_on_c, 1, 52, 70
4, 32153, Note_on_c, 1, 52, 0
4, 32256, Control_c, 1, 64, 0
4, 32256, Control_c, 1, 64, 127
4, 32256, Control_c, 1, 64, 127
4, 32256, Note_on_c, 1, 53, 71
4, 32256, Note_on_c, 1, 41, 71
4, 32304, Note_on_c, 1, 53, 0
4, 32304, Note_on_c, 1, 41, 0
4, 32304, Note_on_c, 1, 56, 72
4, 32349, Note_on_c, 1, 56, 0
4, 32352, Note_on_c, 1, 59, 72
4, 32397, Note_on_c, 1, 59, 0
4, 32400, Note_on_c, 1, 56, 72
4, 32445, Note_on_c, 1, 56, 0
4, 32448, Note_on_c, 1, 53, 73
4, 32537, Note_on_c, 1, 53, 0
4, 32640, Control_c, 1, 64, 0
4, 32640, Control_c, 1, 64, 127
4, 32640, Note_on_c, 1, 54, 74
4, 32640, Note_on_c, 1, 42, 74
4, 32688, Note_on_c, 1, 54, 0
4, 32688, Note_on_c, 1, 42, 0
4, 32688, Note_on_c, 1, 57, 74
4, 32733, Note_on_c, 1, 57, 0
4, 32736, Note_on_c, 1, 61, 74
4, 32781, Note_on_c, 1, 61, 0
4, 32784, Note_on_c, 1, 57, 74
4, 32829, Note_on_c, 1, 57, 0
4, 32832, Note_on_c, 1, 54, 75
4, 32921, Note_on_c, 1, 54, 0
4, 33024, Control_c, 1, 64, 0
4, 33024, Control_c, 1, 64, 127
4, 33024, Note_on_c, 1, 55, 76
4, 33024, Note_on_c, 1, 43, 76
4, 33072, Note_on_c, 1, 55, 0
4, 33072, Note_on_c, 1, 43, 0
4, 33072, Note_on_c, 1, 58, 76
4, 33117, Note_on_c, 1, 58, 0
4, 33120, Note_on_c, 1, 61, 76
4, 33165, Note_on_c, 1, 61, 0
4, 33168, Note_on_c, 1, 58, 77
4, 33213, Note_on_c, 1, 58, 0
4, 33216, Note_on_c, 1, 55, 77
4, 33305, Note_on_c, 1, 55, 0
4, 33408, Control_c, 1, 64, 0
4, 33456, Control_c, 1, 64, 127
4, 33456, Note_on_c, 1, 59, 78
4, 33501, Note_on_c, 1, 59, 0
4, 33504, Note_on_c, 1, 63, 79
4, 33549, Note_on_c, 1, 63, 0
4, 33552, Note_on_c, 1, 59, 79
4, 33597, Note_on_c, 1, 59, 0
4, 33648, Note_on_c, 1, 59, 79
4, 33693, Note_on_c, 1, 59, 0
4, 33696, Note_on_c, 1, 63, 80
4, 33741, Note_on_c, 1, 63, 0
4, 33744, Note_on_c, 1, 59, 80
4, 33789, Note_on_c, 1, 59, 0
4, 33792, Control_c, 1, 64, 0
4, 33792, Control_c, 1, 64, 127
4, 33840, Note_on_c, 1, 57, 80
4, 33885, Note_on_c, 1, 57, 0
4, 33888, Note_on_c, 1, 60, 81
4, 33933, Note_on_c, 1, 60, 0
4, 33936, Note_on_c, 1, 57, 81
4, 33981, Note_on_c, 1, 57, 0
4, 34032, Note_on_c, 1, 57, 82
4, 34077, Note_on_c, 1, 57, 0
4, 34080, Note_on_c, 1, 60, 82
4, 34125, Note_on_c, 1, 60, 0
4, 34128, Note_on_c, 1, 57, 82
4, 34173, Note_on_c, 1, 57, 0
4, 34176, Control_c, 1, 64, 0
4, 34176, Control_c, 1, 64, 127
4, 34224, Note_on_c, 1, 57, 83
4, 34269, Note_on_c, 1, 57, 0
4, 34272, Note_on_c, 1, 60, 83
4, 34317, Note_on_c, 1, 60, 0
4, 34320, Note_on_c, 1, 57, 83
4, 34365, Note_on_c, 1, 57, 0
4, 34416, Note_on_c, 1, 57, 84
4, 34461, Note_on_c, 1, 57, 0
4, 34464, Note_on_c, 1, 60, 84
4, 34509, Note_on_c, 1, 60, 0
4, 34512, Note_on_c, 1, 57, 84
4, 34557, Note_on_c, 1, 57, 0
4, 34560, Control_c, 1, 64, 0
4, 34560, Control_c, 1, 64, 127
4, 34608, Note_on_c, 1, 57, 85
4, 34653, Note_on_c, 1, 57, 0
4, 34656, Note_on_c, 1, 61, 85
4, 34701, Note_on_c, 1, 61, 0
4, 34704, Note_on_c, 1, 57, 85
4, 34749, Note_on_c, 1, 57, 0
4, 34800, Note_on_c, 1, 57, 85
4, 34845, Note_on_c, 1, 57, 0
4, 34848, Note_on_c, 1, 61, 85
4, 34893, Note_on_c, 1, 61, 0
4, 34896, Note_on_c, 1, 57, 85
4, 34941, Note_on_c, 1, 57, 0
4, 34944, Control_c, 1, 64, 0
4, 34944, Control_c, 1, 64, 127
4, 34992, Note_on_c, 1, 57, 85
4, 35037, Note_on_c, 1, 57, 0
4, 35040, Note_on_c, 1, 60, 85
4, 35085, Note_on_c, 1, 60, 0
4, 35088, Note_on_c, 1, 57, 85
4, 35133, Note_on_c, 1, 57, 0
4, 35184, Note_on_c, 1, 57, 85
4, 35229, Note_on_c, 1, 57, 0
4, 35232, Note_on_c, 1, 60, 85
4, 35277, Note_on_c, 1, 60, 0
4, 35280, Note_on_c, 1, 57, 85
4, 35325, Note_on_c, 1, 57, 0
4, 35328, Control_c, 1, 64, 0
4, 35328, Control_c, 1, 64, 127
4, 35376, Note_on_c, 1, 56, 69
4, 35421, Note_on_c, 1, 56, 0
4, 35424, Note_on_c, 1, 61, 69
4, 35469, Note_on_c, 1, 61, 0
4, 35472, Note_on_c, 1, 56, 68
4, 35517, Note_on_c, 1, 56, 0
4, 35568, Note_on_c, 1, 56, 67
4, 35613, Note_on_c, 1, 56, 0
4, 35616, Note_on_c, 1, 61, 67
4, 35661, Note_on_c, 1, 61, 0
4, 35664, Note_on_c, 1, 56, 66
4, 35709, Note_on_c, 1, 56, 0
4, 35712, Control_c, 1, 64, 0
4, 35712, Control_c, 1, 64, 127
4, 35760, Note_on_c, 1, 51, 66
4, 35805, Note_on_c, 1, 51, 0
4, 35808, Note_on_c, 1, 56, 65
4, 35853, Note_on_c, 1, 56, 0
4, 35856, Note_on_c, 1, 51, 65
4, 35901, Note_on_c, 1, 51, 0
4, 35904, Control_c, 1, 64, 0
4, 35904, Control_c, 1, 64, 127
4, 35952, Note_on_c, 1, 52, 64
4, 35997, Note_on_c, 1, 52, 0
4, 36000, Note_on_c, 1, 56, 63
4, 36045, Note_on_c, 1, 56, 0
4, 36048, Note_on_c, 1, 52, 63
4, 36093, Note_on_c, 1, 52, 0
4, 36096, Control_c, 1, 64, 0
4, 36096, Note_on_c, 1, 60, 63
4, 36096, Note_on_c, 1, 56, 63
4, 36141, Note_on_c, 1, 60, 0
4, 36141, Note_on_c, 1, 56, 0
4, 36144, Note_on_c, 1, 60, 63
4, 36144, Note_on_c, 1, 56, 63
4, 36189, Note_on_c, 1, 60, 0
4, 36189, Note_on_c, 1, 56, 0
4, 36192, Note_on_c, 1, 64, 62
4, 36192, Note_on_c, 1, 56, 62
4, 36237, Note_on_c, 1, 64, 0
4, 36237, Note_on_c, 1, 56, 0
4, 36240, Note_on_c, 1, 64, 61
4, 36240, Note_on_c, 1, 56, 61
4, 36285, Note_on_c, 1, 64, 0
4, 36285, Note_on_c, 1, 56, 0
4, 36288, Note_on_c, 1, 63, 61
4, 36288, Note_on_c, 1, 56, 61
4, 36333, Note_on_c, 1, 63, 0
4, 36333, Note_on_c, 1, 56, 0
4, 36336, Note_on_c, 1, 63, 60
4, 36336, Note_on_c, 1, 56, 60
4, 36381, Note_on_c, 1, 63, 0
4, 36381, Note_on_c, 1, 56, 0
4, 36384, Note_on_c, 1, 61, 60
4, 36384, Note_on_c, 1, 56, 60
4, 36429, Note_on_c, 1, 61, 0
4, 36429, Note_on_c, 1, 56, 0
4, 36432, Note_on_c, 1, 61, 59
4, 36432, Note_on_c, 1, 56, 59
4, 36477, Note_on_c, 1, 61, 0
4, 36477, Note_on_c, 1, 56, 0
4, 36480, Note_on_c, 1, 60, 59
4, 36480, Note_on_c, 1, 56, 59
4, 36525, Note_on_c, 1, 60, 0
4, 36525, Note_on_c, 1, 56, 0
4, 36528, Note_on_c, 1, 60, 58
4, 36528, Note_on_c, 1, 56, 58
4, 36573, Note_on_c, 1, 60, 0
4, 36573, Note_on_c, 1, 56, 0
4, 36576, Note_on_c, 1, 64, 58
4, 36576, Note_on_c, 1, 56, 58
4, 36621, Note_on_c, 1, 64, 0
4, 36621, Note_on_c, 1, 56, 0
4, 36624, Note_on_c, 1, 64, 57
4, 36624, Note_on_c, 1, 56, 57
4, 36669, Note_on_c, 1, 64, 0
4, 36669, Note_on_c, 1, 56, 0
4, 36672, Note_on_c, 1, 63, 57
4, 36672, Note_on_c, 1, 56, 57
4, 36717, Note_on_c, 1, 63, 0
4, 36717, Note_on_c, 1, 56, 0
4, 36720, Note_on_c, 1, 63, 56
4, 36720, Note_on_c, 1, 56, 56
4, 36765, Note_on_c, 1, 63, 0
4, 36765, Note_on_c, 1, 56, 0
4, 36768, Note_on_c, 1, 61, 56
4, 36768, Note_on_c, 1, 56, 56
4, 36813, Note_on_c, 1, 61, 0
4, 36813, Note_on_c, 1, 56, 0
4, 36816, Note_on_c, 1, 61, 55
4, 36816, Note_on_c, 1, 56, 55
4, 36861, Note_on_c, 1, 61, 0
4, 36861, Note_on_c, 1, 56, 0
4, 36864, Note_on_c, 1, 60, 63
4, 36864, Note_on_c, 1, 56, 63
4, 36953, Note_on_c, 1, 60, 0
4, 36953, Note_on_c, 1, 56, 0
4, 36960, Note_on_c, 1, 56, 63
4, 36960, Note_on_c, 1, 44, 63
4, 37027, Note_on_c, 1, 56, 0
4, 37027, Note_on_c, 1, 44, 0
4, 37032, Note_on_c, 1, 56, 63
4, 37032, Note_on_c, 1, 44, 63
4, 37055, Note_on_c, 1, 56, 0
4, 37055, Note_on_c, 1, 44, 0
4, 37056, Note_on_c, 1, 56, 63
4, 37056, Note_on_c, 1, 44, 63
4, 37145, Note_on_c, 1, 56, 0
4, 37145, Note_on_c, 1, 44, 0
4, 37248, Note_on_c, 1, 49, 85
4, 37248, Note_on_c, 1, 37, 85
4, 37293, Note_on_c, 1, 49, 0
4, 37293, Note_on_c, 1, 37, 0
4, 37296, Note_on_c, 1, 49, 85
4, 37308, Note_on_c, 1, 49, 0
4, 37308, Note_on_c, 1, 48, 85
4, 37320, Note_on_c, 1, 48, 0
4, 37320, Note_on_c, 1, 49, 85
4, 37332, Note_on_c, 1, 49, 0
4, 37332, Note_on_c, 1, 51, 85
4, 37344, Note_on_c, 1, 51, 0
4, 37344, Note_on_c, 1, 52, 85
4, 37364, Note_on_c, 1, 52, 0
4, 37392, Note_on_c, 1, 51, 85
4, 37412, Note_on_c, 1, 51, 0
4, 37440, Note_on_c, 1, 49, 85
4, 37460, Note_on_c, 1, 49, 0
4, 37488, Note_on_c, 1, 44, 85
4, 37508, Note_on_c, 1, 44, 0
4, 37536, Note_on_c, 1, 49, 85
4, 37556, Note_on_c, 1, 49, 0
4, 37584, Note_on_c, 1, 52, 85
4, 37604, Note_on_c, 1, 52, 0
4, 37632, Note_on_c, 1, 49, 85
4, 37721, Note_on_c, 1, 49, 0
4, 37872, Note_on_c, 1, 64, 63
4, 37872, Note_on_c, 1, 61, 63
4, 37917, Note_on_c, 1, 64, 0
4, 37917, Note_on_c, 1, 61, 0
4, 37920, Note_on_c, 1, 63, 63
4, 37920, Note_on_c, 1, 60, 63
4, 37965, Note_on_c, 1, 63, 0
4, 37965, Note_on_c, 1, 60, 0
4, 37968, Note_on_c, 1, 64, 63
4, 37968, Note_on_c, 1, 61, 63
4, 38013, Note_on_c, 1, 64, 0
4, 38013, Note_on_c, 1, 61, 0
4, 38016, Note_on_c, 1, 66, 63
4, 38016, Note_on_c, 1, 63, 63
4, 38055, Note_on_c, 1, 66, 0
4, 38055, Note_on_c, 1, 63, 0
4, 38256, Note_on_c, 1, 66, 63
4, 38256, Note_on_c, 1, 63, 63
4, 38301, Note_on_c, 1, 66, 0
4, 38301, Note_on_c, 1, 63, 0
4, 38304, Note_on_c, 1, 64, 63
4, 38304, Note_on_c, 1, 61, 63
4, 38349, Note_on_c, 1, 64, 0
4, 38349, Note_on_c, 1, 61, 0
4, 38352, Note_on_c, 1, 66, 63
4, 38352, Note_on_c, 1, 63, 63
4, 38397, Note_on_c, 1, 66, 0
4, 38397, Note_on_c, 1, 63, 0
4, 38400, Note_on_c, 1, 68, 63
4, 38400, Note_on_c, 1, 64, 63
4, 38439, Note_on_c, 1, 68, 0
4, 38439, Note_on_c, 1, 64, 0
4, 38640, Note_on_c, 1, 69, 63
4, 38640, Note_on_c, 1, 66, 63
4, 38685, Note_on_c, 1, 69, 0
4, 38685, Note_on_c, 1, 66, 0
4, 38688, Note_on_c, 1, 68, 63
4, 38688, Note_on_c, 1, 64, 63
4, 38733, Note_on_c, 1, 68, 0
4, 38733, Note_on_c, 1, 64, 0
4, 38736, Note_on_c, 1, 69, 63
4, 38736, Note_on_c, 1, 66, 63
4, 38781, Note_on_c, 1, 69, 0
4, 38781, Note_on_c, 1, 66, 0
4, 38784, Note_on_c, 1, 71, 63
4, 38784, Note_on_c, 1, 68, 63
4, 38823, Note_on_c, 1, 71, 0
4, 38823, Note_on_c, 1, 68, 0
4, 39024, Note_on_c, 1, 73, 63
4, 39024, Note_on_c, 1, 69, 63
4, 39069, Note_on_c, 1, 73, 0
4, 39069, Note_on_c, 1, 69, 0
4, 39072, Note_on_c, 1, 71, 63
4, 39072, Note_on_c, 1, 68, 63
4, 39117, Note_on_c, 1, 71, 0
4, 39117, Note_on_c, 1, 68, 0
4, 39120, Note_on_c, 1, 73, 63
4, 39120, Note_on_c, 1, 69, 63
4, 39165, Note_on_c, 1, 73, 0
4, 39165, Note_on_c, 1, 69, 0
4, 39168, Note_on_c, 1, 69, 63
4, 39168, Note_on_c, 1, 66, 63
4, 39207, Note_on_c, 1, 69, 0
4, 39207, Note_on_c, 1, 66, 0
4, 39408, Note_on_c, 1, 73, 63
4, 39453, Note_on_c, 1, 73, 0
4, 39456, Note_on_c, 1, 71, 63
4, 39501, Note_on_c, 1, 71, 0
4, 39504, Note_on_c, 1, 73, 63
4, 39549, Note_on_c, 1, 73, 0
4, 39552, Note_on_c, 1, 69, 63
4, 39572, Note_on_c, 1, 69, 0
4, 39600, Note_on_c, 1, 73, 63
4, 39600, Note_on_c, 1, 69, 63
4, 39645, Note_on_c, 1, 73, 0
4, 39645, Note_on_c, 1, 69, 0
4, 39648, Note_on_c, 1, 71, 63
4, 39648, Note_on_c, 1, 68, 63
4, 39693, Note_on_c, 1, 71, 0
4, 39693, Note_on_c, 1, 68, 0
4, 39696, Note_on_c, 1, 73, 63
4, 39696, Note_on_c, 1, 69, 63
4, 39741, Note_on_c, 1, 73, 0
4, 39741, Note_on_c, 1, 69, 0
4, 39744, Note_on_c, 1, 69, 63
4, 39744, Note_on_c, 1, 66, 63
4, 39783, Note_on_c, 1, 69, 0
4, 39783, Note_on_c, 1, 66, 0
4, 39840, Note_on_c, 1, 57, 63
4, 39840, Note_on_c, 1, 54, 63
4, 39929, Note_on_c, 1, 57, 0
4, 39929, Note_on_c, 1, 54, 0
4, 39984, Note_on_c, 1, 64, 63
4, 40029, Note_on_c, 1, 64, 0
4, 40032, Note_on_c, 1, 63, 63
4, 40077, Note_on_c, 1, 63, 0
4, 40080, Note_on_c, 1, 66, 63
4, 40125, Note_on_c, 1, 66, 0
4, 40128, Note_on_c, 1, 64, 63
4, 40128, Note_on_c, 1, 61, 63
4, 40217, Note_on_c, 1, 64, 0
4, 40217, Note_on_c, 1, 61, 0
4, 40272, Note_on_c, 1, 48, 85
4, 40272, Note_on_c, 1, 36, 85
4, 40317, Note_on_c, 1, 48, 0
4, 40317, Note_on_c, 1, 36, 0
4, 40320, Note_on_c, 1, 49, 85
4, 40320, Note_on_c, 1, 37, 85
4, 40409, Note_on_c, 1, 49, 0
4, 40409, Note_on_c, 1, 37, 0
4, 40464, Note_on_c, 1, 55, 85
4, 40464, Note_on_c, 1, 43, 85
4, 40509, Note_on_c, 1, 55, 0
4, 40509, Note_on_c, 1, 43, 0
4, 40512, Note_on_c, 1, 56, 85
4, 40512, Note_on_c, 1, 44, 85
4, 40601, Note_on_c, 1, 56, 0
4, 40601, Note_on_c, 1, 44, 0
4, 40656, Note_on_c, 1, 60, 85
4, 40656, Note_on_c, 1, 48, 85
4, 40701, Note_on_c, 1, 60, 0
4, 40701, Note_on_c, 1, 48, 0
4, 40704, Note_on_c, 1, 61, 85
4, 40704, Note_on_c, 1, 49, 85
4, 40793, Note_on_c, 1, 61, 0
4, 40793, Note_on_c, 1, 49, 0
4, 40848, Note_on_c, 1, 64, 63
4, 40893, Note_on_c, 1, 64, 0
4, 40896, Note_on_c, 1, 66, 63
4, 40941, Note_on_c, 1, 66, 0
4, 40944, Note_on_c, 1, 68, 63
4, 40989, Note_on_c, 1, 68, 0
4, 40992, Note_on_c, 1, 69, 63
4, 41037, Note_on_c, 1, 69, 0
4, 41040, Note_on_c, 1, 68, 63
4, 41085, Note_on_c, 1, 68, 0
4, 41088, Note_on_c, 1, 66, 63
4, 41133, Note_on_c, 1, 66, 0
4, 41136, Note_on_c, 1, 66, 66
4, 41181, Note_on_c, 1, 66, 0
4, 41184, Note_on_c, 1, 68, 70
4, 41229, Note_on_c, 1, 68, 0
4, 41232, Note_on_c, 1, 68, 74
4, 41277, Note_on_c, 1, 68, 0
4, 41280, Note_on_c, 1, 69, 78
4, 41325, Note_on_c, 1, 69, 0
4, 41328, Note_on_c, 1, 69, 74
4, 41373, Note_on_c, 1, 69, 0
4, 41376, Note_on_c, 1, 68, 70
4, 41421, Note_on_c, 1, 68, 0
4, 41424, Note_on_c, 1, 68, 66
4, 41469, Note_on_c, 1, 68, 0
4, 41472, Note_on_c, 1, 66, 63
4, 41517, Note_on_c, 1, 66, 0
4, 41520, Note_on_c, 1, 66, 63
4, 41565, Note_on_c, 1, 66, 0
4, 41568, Note_on_c, 1, 68, 64
4, 41613, Note_on_c, 1, 68, 0
4, 41616, Note_on_c, 1, 68, 65
4, 41661, Note_on_c, 1, 68, 0
4, 41664, Note_on_c, 1, 69, 66
4, 41709, Note_on_c, 1, 69, 0
4, 41712, Note_on_c, 1, 69, 67
4, 41757, Note_on_c, 1, 69, 0
4, 41760, Note_on_c, 1, 68, 68
4, 41805, Note_on_c, 1, 68, 0
4, 41808, Note_on_c, 1, 68, 69
4, 41853, Note_on_c, 1, 68, 0
4, 41856, Note_on_c, 1, 67, 70
4, 41901, Note_on_c, 1, 67, 0
4, 41904, Note_on_c, 1, 67, 71
4, 41949, Note_on_c, 1, 67, 0
4, 41952, Note_on_c, 1, 67, 72
4, 41997, Note_on_c, 1, 67, 0
4, 42000, Note_on_c, 1, 67, 74
4, 42045, Note_on_c, 1, 67, 0
4, 42048, Note_on_c, 1, 68, 75
4, 42137, Note_on_c, 1, 68, 0
4, 42288, Note_on_c, 1, 64, 63
4, 42288, Note_on_c, 1, 61, 63
4, 42333, Note_on_c, 1, 64, 0
4, 42333, Note_on_c, 1, 61, 0
4, 42336, Note_on_c, 1, 63, 63
4, 42336, Note_on_c, 1, 60, 63
4, 42381, Note_on_c, 1, 63, 0
4, 42381, Note_on_c, 1, 60, 0
4, 42384, Note_on_c, 1, 64, 63
4, 42384, Note_on_c, 1, 61, 63
4, 42429, Note_on_c, 1, 64, 0
4, 42429, Note_on_c, 1, 61, 0
4, 42432, Note_on_c, 1, 66, 63
4, 42432, Note_on_c, 1, 63, 63
4, 42471, Note_on_c, 1, 66, 0
4, 42471, Note_on_c, 1, 63, 0
4, 42672, Note_on_c, 1, 66, 63
4, 42672, Note_on_c, 1, 63, 63
4, 42717, Note_on_c, 1, 66, 0
4, 42717, Note_on_c, 1, 63, 0
4, 42720, Note_on_c, 1, 64, 63
4, 42720, Note_on_c, 1, 61, 63
4, 42765, Note_on_c, 1, 64, 0
4, 42765, Note_on_c, 1, 61, 0
4, 42768, Note_on_c, 1, 66, 63
4, 42768, Note_on_c, 1, 63, 63
4, 42813, Note_on_c, 1, 66, 0
4, 42813, Note_on_c, 1, 63, 0
4, 42816, Note_on_c, 1, 68, 63
4, 42816, Note_on_c, 1, 64, 63
4, 42855, Note_on_c, 1, 68, 0
4, 42855, Note_on_c, 1, 64, 0
4, 43056, Note_on_c, 1, 68, 63
4, 43056, Note_on_c, 1, 65, 63
4, 43076, Note_on_c, 1, 68, 0
4, 43076, Note_on_c, 1, 65, 0
4, 43104, Note_on_c, 1, 68, 63
4, 43104, Note_on_c, 1, 65, 63
4, 43124, Note_on_c, 1, 68, 0
4, 43124, Note_on_c, 1, 65, 0
4, 43152, Note_on_c, 1, 68, 63
4, 43152, Note_on_c, 1, 65, 63
4, 43172, Note_on_c, 1, 68, 0
4, 43172, Note_on_c, 1, 65, 0
4, 43200, Note_on_c, 1, 68, 63
4, 43200, Note_on_c, 1, 65, 63
4, 43296, Note_on_c, 1, 68, 0
4, 43296, Note_on_c, 1, 65, 0
4, 43296, Note_on_c, 1, 66, 63
4, 43341, Note_on_c, 1, 66, 0
4, 43344, Note_on_c, 1, 68, 63
4, 43344, Note_on_c, 1, 61, 63
4, 43364, Note_on_c, 1, 68, 0
4, 43364, Note_on_c, 1, 61, 0
4, 43392, Note_on_c, 1, 68, 63
4, 43392, Note_on_c, 1, 61, 63
4, 43488, Note_on_c, 1, 68, 0
4, 43488, Note_on_c, 1, 61, 0
4, 43488, Note_on_c, 1, 66, 63
4, 43508, Note_on_c, 1, 66, 0
4, 43536, Note_on_c, 1, 70, 63
4, 43536, Note_on_c, 1, 67, 63
4, 43556, Note_on_c, 1, 70, 0
4, 43556, Note_on_c, 1, 67, 0
4, 43584, Note_on_c, 1, 70, 63
4, 43584, Note_on_c, 1, 67, 63
4, 43680, Note_on_c, 1, 70, 0
4, 43680, Note_on_c, 1, 67, 0
4, 43680, Note_on_c, 1, 68, 63
4, 43700, Note_on_c, 1, 68, 0
4, 43728, Note_on_c, 1, 70, 63
4, 43728, Note_on_c, 1, 63, 63
4, 43748, Note_on_c, 1, 70, 0
4, 43748, Note_on_c, 1, 63, 0
4, 43776, Note_on_c, 1, 70, 63
4, 43776, Note_on_c, 1, 63, 63
4, 43872, Note_on_c, 1, 70, 0
4, 43872, Note_on_c, 1, 63, 0
4, 43872, Note_on_c, 1, 68, 63
4, 43892, Note_on_c, 1, 68, 0
4, 43920, Note_on_c, 1, 61, 63
4, 43920, Note_on_c, 1, 52, 63
4, 43940, Note_on_c, 1, 61, 0
4, 43940, Note_on_c, 1, 52, 0
4, 43968, Note_on_c, 1, 61, 63
4, 43968, Note_on_c, 1, 52, 63
4, 44101, Note_on_c, 1, 61, 0
4, 44101, Note_on_c, 1, 52, 0
4, 44112, Note_on_c, 1, 61, 63
4, 44112, Note_on_c, 1, 53, 63
4, 44157, Note_on_c, 1, 61, 0
4, 44157, Note_on_c, 1, 53, 0
4, 44160, Note_on_c, 1, 61, 63
4, 44160, Note_on_c, 1, 54, 63
4, 44205, Note_on_c, 1, 61, 0
4, 44205, Note_on_c, 1, 54, 0
4, 44256, Note_on_c, 1, 61, 63
4, 44256, Note_on_c, 1, 56, 63
4, 44301, Note_on_c, 1, 61, 0
4, 44301, Note_on_c, 1, 56, 0
4, 44352, Note_on_c, 1, 61, 63
4, 44352, Note_on_c, 1, 57, 63
4, 44397, Note_on_c, 1, 61, 0
4, 44397, Note_on_c, 1, 57, 0
4, 44496, Note_on_c, 1, 61, 78
4, 44496, Note_on_c, 1, 53, 78
4, 44541, Note_on_c, 1, 61, 0
4, 44541, Note_on_c, 1, 53, 0
4, 44544, Note_on_c, 1, 61, 76
4, 44544, Note_on_c, 1, 54, 76
4, 44589, Note_on_c, 1, 61, 0
4, 44589, Note_on_c, 1, 54, 0
4, 44640, Note_on_c, 1, 61, 73
4, 44640, Note_on_c, 1, 56, 73
4, 44685, Note_on_c, 1, 61, 0
4, 44685, Note_on_c, 1, 56, 0
4, 44736, Note_on_c, 1, 61, 69
4, 44736, Note_on_c, 1, 57, 69
4, 44781, Note_on_c, 1, 61, 0
4, 44781, Note_on_c, 1, 57, 0
4, 45120, Note_on_c, 1, 69, 63
4, 45120, Note_on_c, 1, 66, 63
4, 45666, Note_on_c, 1, 69, 0
4, 45666, Note_on_c, 1, 66, 0
4, 46080, Note_on_c, 1, 45, 106
4, 46080, Note_on_c, 1, 33, 106
4, 46257, Note_on_c, 1, 45, 0
4, 46257, Note_on_c, 1, 33, 0
4, 46272, Note_on_c, 1, 44, 106
4, 46272, Note_on_c, 1, 32, 106
4, 46361, Note_on_c, 1, 44, 0
4, 46361, Note_on_c, 1, 32, 0
4, 46368, Note_on_c, 1, 42, 92
4, 46368, Note_on_c, 1, 30, 92
4, 46457, Note_on_c, 1, 42, 0
4, 46457, Note_on_c, 1, 30, 0
4, 46464, Note_on_c, 1, 40, 78
4, 46553, Note_on_c, 1, 40, 0
4, 46656, Note_on_c, 1, 54, 78
4, 46656, Note_on_c, 1, 42, 78
4, 46745, Note_on_c, 1, 54, 0
4, 46745, Note_on_c, 1, 42, 0
4, 46848, Note_on_c, 1, 49, 78
4, 46937, Note_on_c, 1, 49, 0
4, 46944, Note_on_c, 1, 48, 78
4, 47033, Note_on_c, 1, 48, 0
4, 47040, Note_on_c, 1, 37, 78
4, 47085, Note_on_c, 1, 37, 0
4, 47088, Note_on_c, 1, 40, 78
4, 47133, Note_on_c, 1, 40, 0
4, 47232, Note_on_c, 1, 54, 78
4, 47232, Note_on_c, 1, 42, 78
4, 47277, Note_on_c, 1, 54, 0
4, 47277, Note_on_c, 1, 42, 0
4, 47280, Note_on_c, 1, 57, 78
4, 47280, Note_on_c, 1, 45, 78
4, 47325, Note_on_c, 1, 57, 0
4, 47325, Note_on_c, 1, 45, 0
4, 47328, Note_on_c, 1, 56, 78
4, 47328, Note_on_c, 1, 44, 78
4, 47373, Note_on_c, 1, 56, 0
4, 47373, Note_on_c, 1, 44, 0
4, 47376, Note_on_c, 1, 54, 78
4, 47376, Note_on_c, 1, 42, 78
4, 47421, Note_on_c, 1, 54, 0
4, 47421, Note_on_c, 1, 42, 0
4, 47424, Note_on_c, 1, 52, 78
4, 47424, Note_on_c, 1, 40, 78
4, 47513, Note_on_c, 1, 52, 0
4, 47513, Note_on_c, 1, 40, 0
4, 47760, Note_on_c, 1, 64, 70
4, 47760, Note_on_c, 1, 61, 70
4, 47808, Note_on_c, 1, 64, 0
4, 47808, Note_on_c, 1, 61, 0
4, 47808, Note_on_c, 1, 63, 70
4, 47808, Note_on_c, 1, 60, 70
4, 47828, Note_on_c, 1, 63, 0
4, 47828, Note_on_c, 1, 60, 0
4, 47856, Note_on_c, 1, 64, 70
4, 47856, Note_on_c, 1, 61, 70
4, 47904, Note_on_c, 1, 64, 0
4, 47904, Note_on_c, 1, 61, 0
4, 47904, Note_on_c, 1, 63, 70
4, 47904, Note_on_c, 1, 60, 70
4, 47924, Note_on_c, 1, 63, 0
4, 47924, Note_on_c, 1, 60, 0
4, 47952, Note_on_c, 1, 64, 70
4, 47952, Note_on_c, 1, 61, 70
4, 48000, Note_on_c, 1, 64, 0
4, 48000, Note_on_c, 1, 61, 0
4, 48000, Note_on_c, 1, 63, 70
4, 48000, Note_on_c, 1, 60, 70
4, 48020, Note_on_c, 1, 63, 0
4, 48020, Note_on_c, 1, 60, 0
4, 48192, Note_on_c, 1, 60, 78
4, 48192, Note_on_c, 1, 56, 78
4, 48192, Note_on_c, 1, 54, 78
4, 48237, Note_on_c, 1, 60, 0
4, 48237, Note_on_c, 1, 56, 0
4, 48237, Note_on_c, 1, 54, 0
4, 48288, Note_on_c, 1, 60, 78
4, 48288, Note_on_c, 1, 56, 78
4, 48288, Note_on_c, 1, 54, 78
4, 48333, Note_on_c, 1, 60, 0
4, 48333, Note_on_c, 1, 56, 0
4, 48333, Note_on_c, 1, 54, 0
4, 48384, Note_on_c, 1, 60, 78
4, 48384, Note_on_c, 1, 56, 78
4, 48384, Note_on_c, 1, 54, 78
4, 48429, Note_on_c, 1, 60, 0
4, 48429, Note_on_c, 1, 56, 0
4, 48429, Note_on_c, 1, 54, 0
4, 48576, Note_on_c, 1, 52, 85
4, 48576, Note_on_c, 1, 56, 85
4, 48576, Note_on_c, 1, 61, 85
4, 48621, Note_on_c, 1, 61, 0
4, 48621, Note_on_c, 1, 56, 0
4, 48621, Note_on_c, 1, 52, 0
4, 48672, Note_on_c, 1, 54, 85
4, 48680, Note_on_c, 1, 57, 85
4, 48688, Note_on_c, 1, 63, 85
4, 48717, Note_on_c, 1, 63, 0
4, 48717, Note_on_c, 1, 57, 0
4, 48717, Note_on_c, 1, 54, 0
4, 48768, Note_on_c, 1, 56, 85
4, 48776, Note_on_c, 1, 61, 85
4, 48784, Note_on_c, 1, 64, 85
4, 48813, Note_on_c, 1, 64, 0
4, 48813, Note_on_c, 1, 61, 0
4, 48813, Note_on_c, 1, 56, 0
4, 48912, Note_on_c, 1, 66, 78
4, 48912, Note_on_c, 1, 56, 78
4, 48960, Note_on_c, 1, 66, 0
4, 48960, Note_on_c, 1, 56, 0
4, 48960, Note_on_c, 1, 64, 78
4, 48960, Note_on_c, 1, 61, 78
4, 48999, Note_on_c, 1, 64, 0
4, 48999, Note_on_c, 1, 61, 0
4, 49104, Note_on_c, 1, 66, 78
4, 49104, Note_on_c, 1, 56, 78
4, 49152, Note_on_c, 1, 66, 0
4, 49152, Note_on_c, 1, 56, 0
4, 49152, Note_on_c, 1, 64, 78
4, 49152, Note_on_c, 1, 61, 78
4, 49191, Note_on_c, 1, 64, 0
4, 49191, Note_on_c, 1, 61, 0
4, 49296, Note_on_c, 1, 66, 78
4, 49296, Note_on_c, 1, 56, 78
4, 49344, Note_on_c, 1, 66, 0
4, 49344, Note_on_c, 1, 56, 0
4, 49344, Note_on_c, 1, 64, 70
4, 49344, Note_on_c, 1, 61, 70
4, 49383, Note_on_c, 1, 64, 0
4, 49383, Note_on_c, 1, 61, 0
4, 49488, Note_on_c, 1, 66, 70
4, 49488, Note_on_c, 1, 56, 70
4, 49536, Note_on_c, 1, 66, 0
4, 49536, Note_on_c, 1, 56, 0
4, 49536, Note_on_c, 1, 64, 70
4, 49536, Note_on_c, 1, 61, 70
4, 49556, Note_on_c, 1, 64, 0
4, 49556, Note_on_c, 1, 61, 0
4, 49632, Note_on_c, 1, 56, 63
4, 49652, Note_on_c, 1, 56, 0
4, 49728, Note_on_c, 1, 49, 63
4, 49767, Note_on_c, 1, 49, 0
4, 50112, Note_on_c, 1, 64, 78
4, 50135, Note_on_c, 1, 64, 0
4, 50136, Note_on_c, 1, 63, 78
4, 50159, Note_on_c, 1, 63, 0
4, 50160, Note_on_c, 1, 61, 78
4, 50183, Note_on_c, 1, 61, 0
4, 50184, Note_on_c, 1, 59, 78
4, 50207, Note_on_c, 1, 59, 0
4, 50208, Note_on_c, 1, 57, 78
4, 50231, Note_on_c, 1, 57, 0
4, 50232, Note_on_c, 1, 56, 78
4, 50255, Note_on_c, 1, 56, 0
4, 50256, Note_on_c, 1, 54, 78
4, 50279, Note_on_c, 1, 54, 0
4, 50280, Note_on_c, 1, 52, 78
4, 50303, Note_on_c, 1, 52, 0
4, 50304, Note_on_c, 1, 51, 78
4, 50393, Note_on_c, 1, 51, 0
4, 51072, Note_on_c, 1, 66, 85
4, 51095, Note_on_c, 1, 66, 0
4, 51096, Note_on_c, 1, 68, 85
4, 51104, Note_on_c, 1, 68, 0
4, 51104, Note_on_c, 1, 66, 85
4, 51112, Note_on_c, 1, 66, 0
4, 51112, Note_on_c, 1, 65, 85
4, 51120, Note_on_c, 1, 65, 0
4, 51120, Note_on_c, 1, 66, 85
4, 51143, Note_on_c, 1, 66, 0
4, 51144, Note_on_c, 1, 68, 85
4, 51167, Note_on_c, 1, 68, 0
4, 51168, Note_on_c, 1, 69, 85
4, 51213, Note_on_c, 1, 69, 0
4, 51216, Note_on_c, 1, 68, 85
4, 51261, Note_on_c, 1, 68, 0
4, 51264, Note_on_c, 1, 66, 85
4, 51284, Note_on_c, 1, 66, 0
4, 51312, Note_on_c, 1, 61, 85
4, 51332, Note_on_c, 1, 61, 0
4, 51360, Note_on_c, 1, 66, 85
4, 51380, Note_on_c, 1, 66, 0
4, 51408, Note_on_c, 1, 69, 85
4, 51428, Note_on_c, 1, 69, 0
4, 51456, Note_on_c, 1, 66, 85
4, 51545, Note_on_c, 1, 66, 0
4, 51696, Note_on_c, 1, 69, 63
4, 51696, Note_on_c, 1, 66, 63
4, 51741, Note_on_c, 1, 69, 0
4, 51741, Note_on_c, 1, 66, 0
4, 51744, Note_on_c, 1, 68, 63
4, 51744, Note_on_c, 1, 65, 63
4, 51789, Note_on_c, 1, 68, 0
4, 51789, Note_on_c, 1, 65, 0
4, 51792, Note_on_c, 1, 69, 63
4, 51792, Note_on_c, 1, 66, 63
4, 51837, Note_on_c, 1, 69, 0
4, 51837, Note_on_c, 1, 66, 0
4, 51840, Note_on_c, 1, 71, 63
4, 51840, Note_on_c, 1, 68, 63
4, 51879, Note_on_c, 1, 71, 0
4, 51879, Note_on_c, 1, 68, 0
4, 52080, Note_on_c, 1, 71, 63
4, 52080, Note_on_c, 1, 68, 63
4, 52125, Note_on_c, 1, 71, 0
4, 52125, Note_on_c, 1, 68, 0
4, 52128, Note_on_c, 1, 69, 63
4, 52128, Note_on_c, 1, 66, 63
4, 52173, Note_on_c, 1, 69, 0
4, 52173, Note_on_c, 1, 66, 0
4, 52176, Note_on_c, 1, 71, 63
4, 52176, Note_on_c, 1, 68, 63
4, 52221, Note_on_c, 1, 71, 0
4, 52221, Note_on_c, 1, 68, 0
4, 52224, Note_on_c, 1, 73, 63
4, 52224, Note_on_c, 1, 69, 63
4, 52263, Note_on_c, 1, 73, 0
4, 52263, Note_on_c, 1, 69, 0
4, 52464, Note_on_c, 1, 64, 85
4, 52464, Note_on_c, 1, 61, 85
4, 52464, Note_on_c, 1, 57, 85
4, 52509, Note_on_c, 1, 64, 0
4, 52509, Note_on_c, 1, 61, 0
4, 52509, Note_on_c, 1, 57, 0
4, 52512, Note_on_c, 1, 64, 85
4, 52512, Note_on_c, 1, 61, 85
4, 52512, Note_on_c, 1, 57, 85
4, 52557, Note_on_c, 1, 64, 0
4, 52557, Note_on_c, 1, 61, 0
4, 52557, Note_on_c, 1, 57, 0
4, 52560, Note_on_c, 1, 64, 85
4, 52560, Note_on_c, 1, 61, 85
4, 52560, Note_on_c, 1, 57, 85
4, 52605, Note_on_c, 1, 64, 0
4, 52605, Note_on_c, 1, 61, 0
4, 52605, Note_on_c, 1, 57, 0
4, 52608, Control_c, 1, 64, 127
4, 52608, Note_on_c, 1, 64, 85
4, 52608, Note_on_c, 1, 61, 85
4, 52608, Note_on_c, 1, 57, 85
4, 52653, Note_on_c, 1, 64, 0
4, 52653, Note_on_c, 1, 61, 0
4, 52653, Note_on_c, 1, 57, 0
4, 52656, Note_on_c, 1, 64, 85
4, 52656, Note_on_c, 1, 61, 85
4, 52701, Note_on_c, 1, 64, 0
4, 52701, Note_on_c, 1, 61, 0
4, 52704, Note_on_c, 1, 64, 85
4, 52704, Note_on_c, 1, 61, 85
4, 52749, Note_on_c, 1, 64, 0
4, 52749, Note_on_c, 1, 61, 0
4, 52752, Note_on_c, 1, 64, 85
4, 52752, Note_on_c, 1, 61, 85
4, 52797, Note_on_c, 1, 64, 0
4, 52797, Note_on_c, 1, 61, 0
4, 52800, Note_on_c, 1, 64, 85
4, 52800, Note_on_c, 1, 61, 85
4, 52889, Note_on_c, 1, 64, 0
4, 52889, Note_on_c, 1, 61, 0
4, 52896, Control_c, 1, 64, 0
4, 52992, Note_on_c, 1, 64, 63
4, 52992, Note_on_c, 1, 61, 63
4, 53081, Note_on_c, 1, 64, 0
4, 53081, Note_on_c, 1, 61, 0
4, 53232, Note_on_c, 1, 64, 85
4, 53232, Note_on_c, 1, 57, 85
4, 53277, Note_on_c, 1, 64, 0
4, 53277, Note_on_c, 1, 57, 0
4, 53280, Note_on_c, 1, 64, 85
4, 53280, Note_on_c, 1, 57, 85
4, 53325, Note_on_c, 1, 64, 0
4, 53325, Note_on_c, 1, 57, 0
4, 53328, Note_on_c, 1, 61, 85
4, 53328, Note_on_c, 1, 57, 85
4, 53373, Note_on_c, 1, 61, 0
4, 53373, Note_on_c, 1, 57, 0
4, 53376, Control_c, 1, 64, 127
4, 53376, Note_on_c, 1, 63, 85
4, 53376, Note_on_c, 1, 60, 85
4, 53376, Note_on_c, 1, 56, 85
4, 53421, Note_on_c, 1, 63, 0
4, 53421, Note_on_c, 1, 60, 0
4, 53421, Note_on_c, 1, 56, 0
4, 53424, Note_on_c, 1, 63, 85
4, 53424, Note_on_c, 1, 60, 85
4, 53424, Note_on_c, 1, 56, 85
4, 53469, Note_on_c, 1, 63, 0
4, 53469, Note_on_c, 1, 60, 0
4, 53469, Note_on_c, 1, 56, 0
4, 53472, Note_on_c, 1, 63, 85
4, 53472, Note_on_c, 1, 60, 85
4, 53472, Note_on_c, 1, 56, 85
4, 53517, Note_on_c, 1, 63, 0
4, 53517, Note_on_c, 1, 60, 0
4, 53517, Note_on_c, 1, 56, 0
4, 53520, Note_on_c, 1, 63, 85
4, 53520, Note_on_c, 1, 60, 85
4, 53520, Note_on_c, 1, 56, 85
4, 53565, Note_on_c, 1, 63, 0
4, 53565, Note_on_c, 1, 60, 0
4, 53565, Note_on_c, 1, 56, 0
4, 53568, Note_on_c, 1, 63, 85
4, 53568, Note_on_c, 1, 60, 85
4, 53568, Note_on_c, 1, 56, 85
4, 53657, Note_on_c, 1, 63, 0
4, 53657, Note_on_c, 1, 60, 0
4, 53657, Note_on_c, 1, 56, 0
4, 53760, Control_c, 1, 64, 0
4, 53760, Note_on_c, 1, 44, 78
4, 53805, Note_on_c, 1, 44, 0
4, 53808, Note_on_c, 1, 44, 78
4, 53820, Note_on_c, 1, 44, 0
4, 53820, Note_on_c, 1, 43, 78
4, 53832, Note_on_c, 1, 43, 0
4, 53832, Note_on_c, 1, 44, 78
4, 53844, Note_on_c, 1, 44, 0
4, 53844, Note_on_c, 1, 46, 78
4, 53856, Note_on_c, 1, 46, 0
4, 53856, Note_on_c, 1, 47, 78
4, 53901, Note_on_c, 1, 47, 0
4, 53904, Note_on_c, 1, 46, 78
4, 53949, Note_on_c, 1, 46, 0
4, 53952, Note_on_c, 1, 44, 78
4, 53972, Note_on_c, 1, 44, 0
4, 54000, Note_on_c, 1, 39, 78
4, 54020, Note_on_c, 1, 39, 0
4, 54048, Note_on_c, 1, 44, 78
4, 54068, Note_on_c, 1, 44, 0
4, 54096, Note_on_c, 1, 47, 78
4, 54116, Note_on_c, 1, 47, 0
4, 54144, Note_on_c, 1, 44, 78
4, 54233, Note_on_c, 1, 44, 0
4, 54384, Note_on_c, 1, 59, 63
4, 54384, Note_on_c, 1, 56, 63
4, 54429, Note_on_c, 1, 59, 0
4, 54429, Note_on_c, 1, 56, 0
4, 54432, Note_on_c, 1, 58, 63
4, 54432, Note_on_c, 1, 55, 63
4, 54477, Note_on_c, 1, 58, 0
4, 54477, Note_on_c, 1, 55, 0
4, 54480, Note_on_c, 1, 59, 63
4, 54480, Note_on_c, 1, 56, 63
4, 54525, Note_on_c, 1, 59, 0
4, 54525, Note_on_c, 1, 56, 0
4, 54528, Note_on_c, 1, 61, 63
4, 54528, Note_on_c, 1, 58, 63
4, 54567, Note_on_c, 1, 61, 0
4, 54567, Note_on_c, 1, 58, 0
4, 54768, Note_on_c, 1, 61, 63
4, 54768, Note_on_c, 1, 58, 63
4, 54813, Note_on_c, 1, 61, 0
4, 54813, Note_on_c, 1, 58, 0
4, 54816, Note_on_c, 1, 59, 63
4, 54816, Note_on_c, 1, 56, 63
4, 54861, Note_on_c, 1, 59, 0
4, 54861, Note_on_c, 1, 56, 0
4, 54864, Note_on_c, 1, 61, 63
4, 54864, Note_on_c, 1, 58, 63
4, 54909, Note_on_c, 1, 61, 0
4, 54909, Note_on_c, 1, 58, 0
4, 54912, Note_on_c, 1, 63, 63
4, 54912, Note_on_c, 1, 59, 63
4, 54951, Note_on_c, 1, 63, 0
4, 54951, Note_on_c, 1, 59, 0
4, 55152, Note_on_c, 1, 51, 63
4, 55152, Note_on_c, 1, 47, 63
4, 55197, Note_on_c, 1, 51, 0
4, 55197, Note_on_c, 1, 47, 0
4, 55200, Note_on_c, 1, 51, 63
4, 55200, Note_on_c, 1, 47, 63
4, 55245, Note_on_c, 1, 51, 0
4, 55245, Note_on_c, 1, 47, 0
4, 55248, Note_on_c, 1, 51, 63
4, 55248, Note_on_c, 1, 47, 63
4, 55293, Note_on_c, 1, 51, 0
4, 55293, Note_on_c, 1, 47, 0
4, 55344, Note_on_c, 1, 52, 63
4, 55344, Note_on_c, 1, 49, 63
4, 55389, Note_on_c, 1, 52, 0
4, 55389, Note_on_c, 1, 49, 0
4, 55392, Note_on_c, 1, 52, 63
4, 55392, Note_on_c, 1, 49, 63
4, 55437, Note_on_c, 1, 52, 0
4, 55437, Note_on_c, 1, 49, 0
4, 55440, Note_on_c, 1, 52, 63
4, 55440, Note_on_c, 1, 49, 63
4, 55485, Note_on_c, 1, 52, 0
4, 55485, Note_on_c, 1, 49, 0
4, 55536, Note_on_c, 1, 58, 64
4, 55536, Note_on_c, 1, 51, 64
4, 55581, Note_on_c, 1, 58, 0
4, 55581, Note_on_c, 1, 51, 0
4, 55584, Note_on_c, 1, 58, 64
4, 55584, Note_on_c, 1, 51, 64
4, 55629, Note_on_c, 1, 58, 0
4, 55629, Note_on_c, 1, 51, 0
4, 55632, Note_on_c, 1, 58, 64
4, 55632, Note_on_c, 1, 51, 64
4, 55677, Note_on_c, 1, 58, 0
4, 55677, Note_on_c, 1, 51, 0
4, 55728, Note_on_c, 1, 56, 65
4, 55728, Note_on_c, 1, 44, 65
4, 55773, Note_on_c, 1, 56, 0
4, 55773, Note_on_c, 1, 44, 0
4, 55776, Note_on_c, 1, 56, 65
4, 55776, Note_on_c, 1, 44, 65
4, 55821, Note_on_c, 1, 56, 0
4, 55821, Note_on_c, 1, 44, 0
4, 55824, Note_on_c, 1, 56, 66
4, 55824, Note_on_c, 1, 44, 66
4, 55869, Note_on_c, 1, 56, 0
4, 55869, Note_on_c, 1, 44, 0
4, 55920, Note_on_c, 1, 56, 66
4, 55920, Note_on_c, 1, 49, 66
4, 55965, Note_on_c, 1, 56, 0
4, 55965, Note_on_c, 1, 49, 0
4, 55968, Note_on_c, 1, 56, 66
4, 55968, Note_on_c, 1, 49, 66
4, 56013, Note_on_c, 1, 56, 0
4, 56013, Note_on_c, 1, 49, 0
4, 56016, Note_on_c, 1, 56, 67
4, 56016, Note_on_c, 1, 49, 67
4, 56061, Note_on_c, 1, 56, 0
4, 56061, Note_on_c, 1, 49, 0
4, 56112, Note_on_c, 1, 54, 67
4, 56112, Note_on_c, 1, 42, 67
4, 56157, Note_on_c, 1, 54, 0
4, 56157, Note_on_c, 1, 42, 0
4, 56160, Note_on_c, 1, 54, 68
4, 56160, Note_on_c, 1, 42, 68
4, 56205, Note_on_c, 1, 54, 0
4, 56205, Note_on_c, 1, 42, 0
4, 56208, Note_on_c, 1, 54, 68
4, 56208, Note_on_c, 1, 42, 68
4, 56253, Note_on_c, 1, 54, 0
4, 56253, Note_on_c, 1, 42, 0
4, 56304, Note_on_c, 1, 54, 69
4, 56304, Note_on_c, 1, 47, 69
4, 56349, Note_on_c, 1, 54, 0
4, 56349, Note_on_c, 1, 47, 0
4, 56352, Note_on_c, 1, 54, 69
4, 56352, Note_on_c, 1, 47, 69
4, 56397, Note_on_c, 1, 54, 0
4, 56397, Note_on_c, 1, 47, 0
4, 56400, Note_on_c, 1, 54, 69
4, 56400, Note_on_c, 1, 47, 69
4, 56445, Note_on_c, 1, 54, 0
4, 56445, Note_on_c, 1, 47, 0
4, 56448, Note_on_c, 1, 52, 70
4, 56448, Note_on_c, 1, 40, 70
4, 56496, Note_on_c, 1, 52, 0
4, 56496, Note_on_c, 1, 40, 0
4, 56496, Control_c, 1, 64, 127
4, 56496, Note_on_c, 1, 56, 70
4, 56541, Note_on_c, 1, 56, 0
4, 56544, Note_on_c, 1, 59, 70
4, 56589, Note_on_c, 1, 59, 0
4, 56592, Note_on_c, 1, 56, 70
4, 56637, Note_on_c, 1, 56, 0
4, 56640, Note_on_c, 1, 52, 70
4, 56729, Note_on_c, 1, 52, 0
4, 56832, Control_c, 1, 64, 0
4, 56832, Control_c, 1, 64, 127
4, 56832, Control_c, 1, 64, 127
4, 56832, Note_on_c, 1, 53, 71
4, 56832, Note_on_c, 1, 41, 71
4, 56880, Note_on_c, 1, 53, 0
4, 56880, Note_on_c, 1, 41, 0
4, 56880, Note_on_c, 1, 56, 72
4, 56925, Note_on_c, 1, 56, 0
4, 56928, Note_on_c, 1, 59, 72
4, 56973, Note_on_c, 1, 59, 0
4, 56976, Note_on_c, 1, 56, 72
4, 57021, Note_on_c, 1, 56, 0
4, 57024, Note_on_c, 1, 53, 73
4, 57113, Note_on_c, 1, 53, 0
4, 57216, Control_c, 1, 64, 0
4, 57216, Control_c, 1, 64, 127
4, 57216, Note_on_c, 1, 54, 74
4, 57216, Note_on_c, 1, 42, 74
4, 57264, Note_on_c, 1, 54, 0
4, 57264, Note_on_c, 1, 42, 0
4, 57264, Note_on_c, 1, 57, 74
4, 57309, Note_on_c, 1, 57, 0
4, 57312, Note_on_c, 1, 61, 74
4, 57357, Note_on_c, 1, 61, 0
4, 57360, Note_on_c, 1, 57, 74
4, 57405, Note_on_c, 1, 57, 0
4, 57408, Note_on_c, 1, 54, 75
4, 57497, Note_on_c, 1, 54, 0
4, 57600, Control_c, 1, 64, 0
4, 57600, Control_c, 1, 64, 127
4, 57600, Note_on_c, 1, 55, 76
4, 57600, Note_on_c, 1, 43, 76
4, 57648, Note_on_c, 1, 55, 0
4, 57648, Note_on_c, 1, 43, 0
4, 57648, Note_on_c, 1, 58, 76
4, 57693, Note_on_c, 1, 58, 0
4, 57696, Note_on_c, 1, 61, 76
4, 57741, Note_on_c, 1, 61, 0
4, 57744, Note_on_c, 1, 58, 77
4, 57789, Note_on_c, 1, 58, 0
4, 57792, Note_on_c, 1, 55, 77
4, 57881, Note_on_c, 1, 55, 0
4, 57984, Control_c, 1, 64, 0
4, 58032, Control_c, 1, 64, 127
4, 58032, Note_on_c, 1, 59, 78
4, 58077, Note_on_c, 1, 59, 0
4, 58080, Note_on_c, 1, 63, 79
4, 58125, Note_on_c, 1, 63, 0
4, 58128, Note_on_c, 1, 59, 79
4, 58173, Note_on_c, 1, 59, 0
4, 58224, Note_on_c, 1, 59, 79
4, 58269, Note_on_c, 1, 59, 0
4, 58272, Note_on_c, 1, 63, 80
4, 58317, Note_on_c, 1, 63, 0
4, 58320, Note_on_c, 1, 59, 80
4, 58365, Note_on_c, 1, 59, 0
4, 58368, Control_c, 1, 64, 0
4, 58368, Control_c, 1, 64, 127
4, 58416, Note_on_c, 1, 57, 80
4, 58461, Note_on_c, 1, 57, 0
4, 58464, Note_on_c, 1, 60, 81
4, 58509, Note_on_c, 1, 60, 0
4, 58512, Note_on_c, 1, 57, 81
4, 58557, Note_on_c, 1, 57, 0
4, 58608, Note_on_c, 1, 57, 82
4, 58653, Note_on_c, 1, 57, 0
4, 58656, Note_on_c, 1, 60, 82
4, 58701, Note_on_c, 1, 60, 0
4, 58704, Note_on_c, 1, 57, 82
4, 58749, Note_on_c, 1, 57, 0
4, 58752, Control_c, 1, 64, 0
4, 58752, Control_c, 1, 64, 127
4, 58800, Note_on_c, 1, 57, 83
4, 58845, Note_on_c, 1, 57, 0
4, 58848, Note_on_c, 1, 60, 83
4, 58893, Note_on_c, 1, 60, 0
4, 58896, Note_on_c, 1, 57, 83
4, 58941, Note_on_c, 1, 57, 0
4, 58992, Note_on_c, 1, 57, 84
4, 59037, Note_on_c, 1, 57, 0
4, 59040, Note_on_c, 1, 60, 84
4, 59085, Note_on_c, 1, 60, 0
4, 59088, Note_on_c, 1, 57, 84
4, 59133, Note_on_c, 1, 57, 0
4, 59136, Control_c, 1, 64, 0
4, 59136, Control_c, 1, 64, 127
4, 59184, Note_on_c, 1, 57, 85
4, 59229, Note_on_c, 1, 57, 0
4, 59232, Note_on_c, 1, 61, 85
4, 59277, Note_on_c, 1, 61, 0
4, 59280, Note_on_c, 1, 57, 85
4, 59325, Note_on_c, 1, 57, 0
4, 59376, Note_on_c, 1, 57, 85
4, 59421, Note_on_c, 1, 57, 0
4, 59424, Note_on_c, 1, 61, 85
4, 59469, Note_on_c, 1, 61, 0
4, 59472, Note_on_c, 1, 57, 85
4, 59517, Note_on_c, 1, 57, 0
4, 59520, Control_c, 1, 64, 0
4, 59520, Control_c, 1, 64, 127
4, 59568, Note_on_c, 1, 57, 85
4, 59613, Note_on_c, 1, 57, 0
4, 59616, Note_on_c, 1, 60, 85
4, 59661, Note_on_c, 1, 60, 0
4, 59664, Note_on_c, 1, 57, 85
4, 59709, Note_on_c, 1, 57, 0
4, 59760, Note_on_c, 1, 57, 85
4, 59805, Note_on_c, 1, 57, 0
4, 59808, Note_on_c, 1, 60, 85
4, 59853, Note_on_c, 1, 60, 0
4, 59856, Note_on_c, 1, 57, 85
4, 59901, Note_on_c, 1, 57, 0
4, 59904, Control_c, 1, 64, 0
4, 59904, Control_c, 1, 64, 127
4, 59952, Note_on_c, 1, 56, 69
4, 59997, Note_on_c, 1, 56, 0
4, 60000, Note_on_c, 1, 61, 69
4, 60045, Note_on_c, 1, 61, 0
4, 60048, Note_on_c, 1, 56, 68
4, 60093, Note_on_c, 1, 56, 0
4, 60144, Note_on_c, 1, 56, 67
4, 60189, Note_on_c, 1, 56, 0
4, 60192, Note_on_c, 1, 61, 67
4, 60237, Note_on_c, 1, 61, 0
4, 60240, Note_on_c, 1, 56, 66
4, 60285, Note_on_c, 1, 56, 0
4, 60288, Control_c, 1, 64, 0
4, 60288, Control_c, 1, 64, 127
4, 60336, Note_on_c, 1, 51, 66
4, 60381, Note_on_c, 1, 51, 0
4, 60384, Note_on_c, 1, 56, 65
4, 60429, Note_on_c, 1, 56, 0
4, 60432, Note_on_c, 1, 51, 65
4, 60477, Note_on_c, 1, 51, 0
4, 60480, Control_c, 1, 64, 0
4, 60480, Control_c, 1, 64, 127
4, 60528, Note_on_c, 1, 52, 64
4, 60573, Note_on_c, 1, 52, 0
4, 60576, Note_on_c, 1, 56, 63
4, 60621, Note_on_c, 1, 56, 0
4, 60624, Note_on_c, 1, 52, 63
4, 60669, Note_on_c, 1, 52, 0
4, 60672, Control_c, 1, 64, 0
4, 60672, Note_on_c, 1, 60, 63
4, 60672, Note_on_c, 1, 56, 63
4, 60717, Note_on_c, 1, 60, 0
4, 60717, Note_on_c, 1, 56, 0
4, 60720, Note_on_c, 1, 60, 63
4, 60720, Note_on_c, 1, 56, 63
4, 60765, Note_on_c, 1, 60, 0
4, 60765, Note_on_c, 1, 56, 0
4, 60768, Note_on_c, 1, 64, 62
4, 60768, Note_on_c, 1, 56, 62
4, 60813, Note_on_c, 1, 64, 0
4, 60813, Note_on_c, 1, 56, 0
4, 60816, Note_on_c, 1, 64, 61
4, 60816, Note_on_c, 1, 56, 61
4, 60861, Note_on_c, 1, 64, 0
4, 60861, Note_on_c, 1, 56, 0
4, 60864, Note_on_c, 1, 63, 61
4, 60864, Note_on_c, 1, 56, 61
4, 60909, Note_on_c, 1, 63, 0
4, 60909, Note_on_c, 1, 56, 0
4, 60912, Note_on_c, 1, 63, 60
4, 60912, Note_on_c, 1, 56, 60
4, 60957, Note_on_c, 1, 63, 0
4, 60957, Note_on_c, 1, 56, 0
4, 60960, Note_on_c, 1, 61, 60
4, 60960, Note_on_c, 1, 56, 60
4, 61005, Note_on_c, 1, 61, 0
4, 61005, Note_on_c, 1, 56, 0
4, 61008, Note_on_c, 1, 61, 59
4, 61008, Note_on_c, 1, 56, 59
4, 61053, Note_on_c, 1, 61, 0
4, 61053, Note_on_c, 1, 56, 0
4, 61056, Note_on_c, 1, 60, 59
4, 61056, Note_on_c, 1, 56, 59
4, 61101, Note_on_c, 1, 60, 0
4, 61101, Note_on_c, 1, 56, 0
4, 61104, Note_on_c, 1, 60, 58
4, 61104, Note_on_c, 1, 56, 58
4, 61149, Note_on_c, 1, 60, 0
4, 61149, Note_on_c, 1, 56, 0
4, 61152, Note_on_c, 1, 64, 58
4, 61152, Note_on_c, 1, 56, 58
4, 61197, Note_on_c, 1, 64, 0
4, 61197, Note_on_c, 1, 56, 0
4, 61200, Note_on_c, 1, 64, 57
4, 61200, Note_on_c, 1, 56, 57
4, 61245, Note_on_c, 1, 64, 0
4, 61245, Note_on_c, 1, 56, 0
4, 61248, Note_on_c, 1, 63, 57
4, 61248, Note_on_c, 1, 56, 57
4, 61293, Note_on_c, 1, 63, 0
4, 61293, Note_on_c, 1, 56, 0
4, 61296, Note_on_c, 1, 63, 56
4, 61296, Note_on_c, 1, 56, 56
4, 61341, Note_on_c, 1, 63, 0
4, 61341, Note_on_c, 1, 56, 0
4, 61344, Note_on_c, 1, 61, 56
4, 61344, Note_on_c, 1, 56, 56
4, 61389, Note_on_c, 1, 61, 0
4, 61389, Note_on_c, 1, 56, 0
4, 61392, Note_on_c, 1, 61, 55
4, 61392, Note_on_c, 1, 56, 55
4, 61437, Note_on_c, 1, 61, 0
4, 61437, Note_on_c, 1, 56, 0
4, 61440, Note_on_c, 1, 60, 63
4, 61440, Note_on_c, 1, 56, 63
4, 61529, Note_on_c, 1, 60, 0
4, 61529, Note_on_c, 1, 56, 0
4, 61536, Note_on_c, 1, 56, 63
4, 61536, Note_on_c, 1, 44, 63
4, 61603, Note_on_c, 1, 56, 0
4, 61603, Note_on_c, 1, 44, 0
4, 61608, Note_on_c, 1, 56, 63
4, 61608, Note_on_c, 1, 44, 63
4, 61631, Note_on_c, 1, 56, 0
4, 61631, Note_on_c, 1, 44, 0
4, 61632, Note_on_c, 1, 56, 63
4, 61632, Note_on_c, 1, 44, 63
4, 61721, Note_on_c, 1, 56, 0
4, 61721, Note_on_c, 1, 44, 0
4, 61824, Note_on_c, 1, 49, 85
4, 61824, Note_on_c, 1, 37, 85
4, 61869, Note_on_c, 1, 49, 0
4, 61869, Note_on_c, 1, 37, 0
4, 61872, Note_on_c, 1, 49, 85
4, 61884, Note_on_c, 1, 49, 0
4, 61884, Note_on_c, 1, 48, 85
4, 61896, Note_on_c, 1, 48, 0
4, 61896, Note_on_c, 1, 49, 85
4, 61908, Note_on_c, 1, 49, 0
4, 61908, Note_on_c, 1, 51, 85
4, 61920, Note_on_c, 1, 51, 0
4, 61920, Note_on_c, 1, 52, 85
4, 61940, Note_on_c, 1, 52, 0
4, 61968, Note_on_c, 1, 51, 85
4, 61988, Note_on_c, 1, 51, 0
4, 62016, Note_on_c, 1, 49, 85
4, 62036, Note_on_c, 1, 49, 0
4, 62064, Note_on_c, 1, 44, 85
4, 62084, Note_on_c, 1, 44, 0
4, 62112, Note_on_c, 1, 49, 85
4, 62132, Note_on_c, 1, 49, 0
4, 62160, Note_on_c, 1, 52, 85
4, 62180, Note_on_c, 1, 52, 0
4, 62208, Note_on_c, 1, 49, 85
4, 62297, Note_on_c, 1, 49, 0
4, 62448, Note_on_c, 1, 64, 63
4, 62448, Note_on_c, 1, 61, 63
4, 62493, Note_on_c, 1, 64, 0
4, 62493, Note_on_c, 1, 61, 0
4, 62496, Note_on_c, 1, 63, 63
4, 62496, Note_on_c, 1, 60, 63
4, 62541, Note_on_c, 1, 63, 0
4, 62541, Note_on_c, 1, 60, 0
4, 62544, Note_on_c, 1, 64, 63
4, 62544, Note_on_c, 1, 61, 63
4, 62589, Note_on_c, 1, 64, 0
4, 62589, Note_on_c, 1, 61, 0
4, 62592, Note_on_c, 1, 66, 63
4, 62592, Note_on_c, 1, 63, 63
4, 62631, Note_on_c, 1, 66, 0
4, 62631, Note_on_c, 1, 63, 0
4, 62832, Note_on_c, 1, 66, 63
4, 62832, Note_on_c, 1, 63, 63
4, 62877, Note_on_c, 1, 66, 0
4, 62877, Note_on_c, 1, 63, 0
4, 62880, Note_on_c, 1, 64, 63
4, 62880, Note_on_c, 1, 61, 63
4, 62925, Note_on_c, 1, 64, 0
4, 62925, Note_on_c, 1, 61, 0
4, 62928, Note_on_c, 1, 66, 63
4, 62928, Note_on_c, 1, 63, 63
4, 62973, Note_on_c, 1, 66, 0
4, 62973, Note_on_c, 1, 63, 0
4, 62976, Note_on_c, 1, 68, 63
4, 62976, Note_on_c, 1, 64, 63
4, 63015, Note_on_c, 1, 68, 0
4, 63015, Note_on_c, 1, 64, 0
4, 63216, Note_on_c, 1, 69, 63
4, 63216, Note_on_c, 1, 66, 63
4, 63261, Note_on_c, 1, 69, 0
4, 63261, Note_on_c, 1, 66, 0
4, 63264, Note_on_c, 1, 68, 63
4, 63264, Note_on_c, 1, 64, 63
4, 63309, Note_on_c, 1, 68, 0
4, 63309, Note_on_c, 1, 64, 0
4, 63312, Note_on_c, 1, 69, 63
4, 63312, Note_on_c, 1, 66, 63
4, 63357, Note_on_c, 1, 69, 0
4, 63357, Note_on_c, 1, 66, 0
4, 63360, Note_on_c, 1, 71, 63
4, 63360, Note_on_c, 1, 68, 63
4, 63399, Note_on_c, 1, 71, 0
4, 63399, Note_on_c, 1, 68, 0
4, 63600, Note_on_c, 1, 73, 63
4, 63600, Note_on_c, 1, 69, 63
4, 63645, Note_on_c, 1, 73, 0
4, 63645, Note_on_c, 1, 69, 0
4, 63648, Note_on_c, 1, 71, 63
4, 63648, Note_on_c, 1, 68, 63
4, 63693, Note_on_c, 1, 71, 0
4, 63693, Note_on_c, 1, 68, 0
4, 63696, Note_on_c, 1, 73, 63
4, 63696, Note_on_c, 1, 69, 63
4, 63741, Note_on_c, 1, 73, 0
4, 63741, Note_on_c, 1, 69, 0
4, 63744, Note_on_c, 1, 69, 63
4, 63744, Note_on_c, 1, 66, 63
4, 63783, Note_on_c, 1, 69, 0
4, 63783, Note_on_c, 1, 66, 0
4, 63984, Note_on_c, 1, 73, 63
4, 64029, Note_on_c, 1, 73, 0
4, 64032, Note_on_c, 1, 71, 63
4, 64077, Note_on_c, 1, 71, 0
4, 64080, Note_on_c, 1, 73, 63
4, 64125, Note_on_c, 1, 73, 0
4, 64128, Note_on_c, 1, 69, 63
4, 64148, Note_on_c, 1, 69, 0
4, 64176, Note_on_c, 1, 73, 63
4, 64176, Note_on_c, 1, 69, 63
4, 64221, Note_on_c, 1, 73, 0
4, 64221, Note_on_c, 1, 69, 0
4, 64224, Note_on_c, 1, 71, 63
4, 64224, Note_on_c, 1, 68, 63
4, 64269, Note_on_c, 1, 71, 0
4, 64269, Note_on_c, 1, 68, 0
4, 64272, Note_on_c, 1, 73, 63
4, 64272, Note_on_c, 1, 69, 63
4, 64317, Note_on_c, 1, 73, 0
4, 64317, Note_on_c, 1, 69, 0
4, 64320, Note_on_c, 1, 69, 63
4, 64320, Note_on_c, 1, 66, 63
4, 64359, Note_on_c, 1, 69, 0
4, 64359, Note_on_c, 1, 66, 0
4, 64416, Note_on_c, 1, 57, 63
4, 64416, Note_on_c, 1, 54, 63
4, 64505, Note_on_c, 1, 57, 0
4, 64505, Note_on_c, 1, 54, 0
4, 64560, Note_on_c, 1, 64, 63
4, 64605, Note_on_c, 1, 64, 0
4, 64608, Note_on_c, 1, 63, 63
4, 64653, Note_on_c, 1, 63, 0
4, 64656, Note_on_c, 1, 66, 63
4, 64701, Note_on_c, 1, 66, 0
4, 64704, Note_on_c, 1, 64, 63
4, 64704, Note_on_c, 1, 61, 63
4, 64793, Note_on_c, 1, 64, 0
4, 64793, Note_on_c, 1, 61, 0
4, 64848, Note_on_c, 1, 48, 85
4, 64848, Note_on_c, 1, 36, 85
4, 64893, Note_on_c, 1, 48, 0
4, 64893, Note_on_c, 1, 36, 0
4, 64896, Note_on_c, 1, 49, 85
4, 64896, Note_on_c, 1, 37, 85
4, 64985, Note_on_c, 1, 49, 0
4, 64985, Note_on_c, 1, 37, 0
4, 65040, Note_on_c, 1, 55, 85
4, 65040, Note_on_c, 1, 43, 85
4, 65085, Note_on_c, 1, 55, 0
4, 65085, Note_on_c, 1, 43, 0
4, 65088, Note_on_c, 1, 56, 85
4, 65088, Note_on_c, 1, 44, 85
4, 65177, Note_on_c, 1, 56, 0
4, 65177, Note_on_c, 1, 44, 0
4, 65232, Note_on_c, 1, 60, 85
4, 65232, Note_on_c, 1, 48, 85
4, 65277, Note_on_c, 1, 60, 0
4, 65277, Note_on_c, 1, 48, 0
4, 65280, Note_on_c, 1, 61, 85
4, 65280, Note_on_c, 1, 49, 85
4, 65369, Note_on_c, 1, 61, 0
4, 65369, Note_on_c, 1, 49, 0
4, 65424, Note_on_c, 1, 64, 63
4, 65469, Note_on_c, 1, 64, 0
4, 65472, Note_on_c, 1, 66, 63
4, 65517, Note_on_c, 1, 66, 0
4, 65520, Note_on_c, 1, 68, 63
4, 65565, Note_on_c, 1, 68, 0
4, 65568, Note_on_c, 1, 69, 63
4, 65613, Note_on_c, 1, 69, 0
4, 65616, Note_on_c, 1, 68, 63
4, 65661, Note_on_c, 1, 68, 0
4, 65664, Note_on_c, 1, 66, 63
4, 65709, Note_on_c, 1, 66, 0
4, 65712, Note_on_c, 1, 66, 66
4, 65757, Note_on_c, 1, 66, 0
4, 65760, Note_on_c, 1, 68, 70
4, 65805, Note_on_c, 1, 68, 0
4, 65808, Note_on_c, 1, 68, 74
4, 65853, Note_on_c, 1, 68, 0
4, 65856, Note_on_c, 1, 69, 78
4, 65901, Note_on_c, 1, 69, 0
4, 65904, Note_on_c, 1, 69, 74
4, 65949, Note_on_c, 1, 69, 0
4, 65952, Note_on_c, 1, 68, 70
4, 65997, Note_on_c, 1, 68, 0
4, 66000, Note_on_c, 1, 68, 66
4, 66045, Note_on_c, 1, 68, 0
4, 66048, Note_on_c, 1, 66, 63
4, 66093, Note_on_c, 1, 66, 0
4, 66096, Note_on_c, 1, 66, 63
4, 66141, Note_on_c, 1, 66, 0
4, 66144, Note_on_c, 1, 68, 64
4, 66189, Note_on_c, 1, 68, 0
4, 66192, Note_on_c, 1, 68, 65
4, 66237, Note_on_c, 1, 68, 0
4, 66240, Note_on_c, 1, 69, 66
4, 66285, Note_on_c, 1, 69, 0
4, 66288, Note_on_c, 1, 69, 67
4, 66333, Note_on_c, 1, 69, 0
4, 66336, Note_on_c, 1, 68, 68
4, 66381, Note_on_c, 1, 68, 0
4, 66384, Note_on_c, 1, 68, 69
4, 66429, Note_on_c, 1, 68, 0
4, 66432, Note_on_c, 1, 67, 70
4, 66477, Note_on_c, 1, 67, 0
4, 66480, Note_on_c, 1, 67, 71
4, 66525, Note_on_c, 1, 67, 0
4, 66528, Note_on_c, 1, 67, 72
4, 66573, Note_on_c, 1, 67, 0
4, 66576, Note_on_c, 1, 67, 74
4, 66621, Note_on_c, 1, 67, 0
4, 66624, Note_on_c, 1, 68, 75
4, 66713, Note_on_c, 1, 68, 0
4, 66864, Note_on_c, 1, 64, 63
4, 66864, Note_on_c, 1, 61, 63
4, 66909, Note_on_c, 1, 64, 0
4, 66909, Note_on_c, 1, 61, 0
4, 66912, Note_on_c, 1, 63, 63
4, 66912, Note_on_c, 1, 60, 63
4, 66957, Note_on_c, 1, 63, 0
4, 66957, Note_on_c, 1, 60, 0
4, 66960, Note_on_c, 1, 64, 63
4, 66960, Note_on_c, 1, 61, 63
4, 67005, Note_on_c, 1, 64, 0
4, 67005, Note_on_c, 1, 61, 0
4, 67008, Note_on_c, 1, 66, 63
4, 67008, Note_on_c, 1, 63, 63
4, 67047, Note_on_c, 1, 66, 0
4, 67047, Note_on_c, 1, 63, 0
4, 67248, Note_on_c, 1, 66, 63
4, 67248, Note_on_c, 1, 63, 63
4, 67293, Note_on_c, 1, 66, 0
4, 67293, Note_on_c, 1, 63, 0
4, 67296, Note_on_c, 1, 64, 63
4, 67296, Note_on_c, 1, 61, 63
4, 67341, Note_on_c, 1, 64, 0
4, 67341, Note_on_c, 1, 61, 0
4, 67344, Note_on_c, 1, 66, 63
4, 67344, Note_on_c, 1, 63, 63
4, 67389, Note_on_c, 1, 66, 0
4, 67389, Note_on_c, 1, 63, 0
4, 67392, Note_on_c, 1, 68, 63
4, 67392, Note_on_c, 1, 64, 63
4, 67431, Note_on_c, 1, 68, 0
4, 67431, Note_on_c, 1, 64, 0
4, 67632, Note_on_c, 1, 68, 63
4, 67632, Note_on_c, 1, 65, 63
4, 67652, Note_on_c, 1, 68, 0
4, 67652, Note_on_c, 1, 65, 0
4, 67680, Note_on_c, 1, 68, 63
4, 67680, Note_on_c, 1, 65, 63
4, 67700, Note_on_c, 1, 68, 0
4, 67700, Note_on_c, 1, 65, 0
4, 67728, Note_on_c, 1, 68, 63
4, 67728, Note_on_c, 1, 65, 63
4, 67748, Note_on_c, 1, 68, 0
4, 67748, Note_on_c, 1, 65, 0
4, 67776, Note_on_c, 1, 68, 63
4, 67776, Note_on_c, 1, 65, 63
4, 67872, Note_on_c, 1, 68, 0
4, 67872, Note_on_c, 1, 65, 0
4, 67872, Note_on_c, 1, 66, 63
4, 67917, Note_on_c, 1, 66, 0
4, 67920, Note_on_c, 1, 68, 63
4, 67920, Note_on_c, 1, 61, 63
4, 67940, Note_on_c, 1, 68, 0
4, 67940, Note_on_c, 1, 61, 0
4, 67968, Note_on_c, 1, 68, 63
4, 67968, Note_on_c, 1, 61, 63
4, 68064, Note_on_c, 1, 68, 0
4, 68064, Note_on_c, 1, 61, 0
4, 68064, Note_on_c, 1, 66, 63
4, 68084, Note_on_c, 1, 66, 0
4, 68112, Note_on_c, 1, 70, 63
4, 68112, Note_on_c, 1, 67, 63
4, 68132, Note_on_c, 1, 70, 0
4, 68132, Note_on_c, 1, 67, 0
4, 68160, Note_on_c, 1, 70, 63
4, 68160, Note_on_c, 1, 67, 63
4, 68256, Note_on_c, 1, 70, 0
4, 68256, Note_on_c, 1, 67, 0
4, 68256, Note_on_c, 1, 68, 63
4, 68276, Note_on_c, 1, 68, 0
4, 68304, Note_on_c, 1, 70, 63
4, 68304, Note_on_c, 1, 63, 63
4, 68324, Note_on_c, 1, 70, 0
4, 68324, Note_on_c, 1, 63, 0
4, 68352, Note_on_c, 1, 70, 63
4, 68352, Note_on_c, 1, 63, 63
4, 68448, Note_on_c, 1, 70, 0
4, 68448, Note_on_c, 1, 63, 0
4, 68448, Note_on_c, 1, 68, 63
4, 68468, Note_on_c, 1, 68, 0
4, 68496, Note_on_c, 1, 61, 63
4, 68496, Note_on_c, 1, 52, 63
4, 68516, Note_on_c, 1, 61, 0
4, 68516, Note_on_c, 1, 52, 0
4, 68544, Note_on_c, 1, 61, 63
4, 68544, Note_on_c, 1, 52, 63
4, 68677, Note_on_c, 1, 61, 0
4, 68677, Note_on_c, 1, 52, 0
4, 68688, Note_on_c, 1, 61, 63
4, 68688, Note_on_c, 1, 53, 63
4, 68733, Note_on_c, 1, 61, 0
4, 68733, Note_on_c, 1, 53, 0
4, 68736, Note_on_c, 1, 61, 63
4, 68736, Note_on_c, 1, 54, 63
4, 68781, Note_on_c, 1, 61, 0
4, 68781, Note_on_c, 1, 54, 0
4, 68832, Note_on_c, 1, 61, 63
4, 68832, Note_on_c, 1, 56, 63
4, 68877, Note_on_c, 1, 61, 0
4, 68877, Note_on_c, 1, 56, 0
4, 68928, Note_on_c, 1, 61, 63
4, 68928, Note_on_c, 1, 57, 63
4, 68973, Note_on_c, 1, 61, 0
4, 68973, Note_on_c, 1, 57, 0
4, 69072, Note_on_c, 1, 61, 78
4, 69072, Note_on_c, 1, 53, 78
4, 69117, Note_on_c, 1, 61, 0
4, 69117, Note_on_c, 1, 53, 0
4, 69120, Note_on_c, 1, 61, 76
4, 69120, Note_on_c, 1, 54, 76
4, 69165, Note_on_c, 1, 61, 0
4, 69165, Note_on_c, 1, 54, 0
4, 69216, Note_on_c, 1, 61, 73
4, 69216, Note_on_c, 1, 56, 73
4, 69261, Note_on_c, 1, 61, 0
4, 69261, Note_on_c, 1, 56, 0
4, 69312, Note_on_c, 1, 61, 69
4, 69312, Note_on_c, 1, 57, 69
4, 69357, Note_on_c, 1, 61, 0
4, 69357, Note_on_c, 1, 57, 0
4, 69696, Note_on_c, 1, 69, 63
4, 69696, Note_on_c, 1, 66, 63
4, 70242, Note_on_c, 1, 69, 0
4, 70242, Note_on_c, 1, 66, 0
4, 70656, Note_on_c, 1, 45, 106
4, 70656, Note_on_c, 1, 33, 106
4, 70833, Note_on_c, 1, 45, 0
4, 70833, Note_on_c, 1, 33, 0
4, 70848, Note_on_c, 1, 44, 106
4, 70848, Note_on_c, 1, 32, 106
4, 70937, Note_on_c, 1, 44, 0
4, 70937, Note_on_c, 1, 32, 0
4, 70944, Note_on_c, 1, 42, 92
4, 70944, Note_on_c, 1, 30, 92
4, 71033, Note_on_c, 1, 42, 0
4, 71033, Note_on_c, 1, 30, 0
4, 71040, Note_on_c, 1, 40, 78
4, 71129, Note_on_c, 1, 40, 0
4, 71232, Note_on_c, 1, 54, 78
4, 71232, Note_on_c, 1, 42, 78
4, 71321, Note_on_c, 1, 54, 0
4, 71321, Note_on_c, 1, 42, 0
4, 71424, Note_on_c, 1, 49, 78
4, 71513, Note_on_c, 1, 49, 0
4, 71520, Note_on_c, 1, 48, 78
4, 71609, Note_on_c, 1, 48, 0
4, 71616, Note_on_c, 1, 37, 78
4, 71661, Note_on_c, 1, 37, 0
4, 71664, Note_on_c, 1, 40, 78
4, 71709, Note_on_c, 1, 40, 0
4, 71808, Note_on_c, 1, 54, 78
4, 71808, Note_on_c, 1, 42, 78
4, 71853, Note_on_c, 1, 54, 0
4, 71853, Note_on_c, 1, 42, 0
4, 71856, Note_on_c, 1, 57, 78
4, 71856, Note_on_c, 1, 45, 78
4, 71901, Note_on_c, 1, 57, 0
4, 71901, Note_on_c, 1, 45, 0
4, 71904, Note_on_c, 1, 56, 78
4, 71904, Note_on_c, 1, 44, 78
4, 71949, Note_on_c, 1, 56, 0
4, 71949, Note_on_c, 1, 44, 0
4, 71952, Note_on_c, 1, 54, 78
4, 71952, Note_on_c, 1, 42, 78
4, 71997, Note_on_c, 1, 54, 0
4, 71997, Note_on_c, 1, 42, 0
4, 72000, Note_on_c, 1, 52, 78
4, 72000, Note_on_c, 1, 40, 78
4, 72089, Note_on_c, 1, 52, 0
4, 72089, Note_on_c, 1, 40, 0
4, 72336, Note_on_c, 1, 64, 70
4, 72336, Note_on_c, 1, 61, 70
4, 72384, Note_on_c, 1, 64, 0
4, 72384, Note_on_c, 1, 61, 0
4, 72384, Note_on_c, 1, 63, 70
4, 72384, Note_on_c, 1, 60, 70
4, 72404, Note_on_c, 1, 63, 0
4, 72404, Note_on_c, 1, 60, 0
4, 72432, Note_on_c, 1, 64, 70
4, 72432, Note_on_c, 1, 61, 70
4, 72480, Note_on_c, 1, 64, 0
4, 72480, Note_on_c, 1, 61, 0
4, 72480, Note_on_c, 1, 63, 70
4, 72480, Note_on_c, 1, 60, 70
4, 72500, Note_on_c, 1, 63, 0
4, 72500, Note_on_c, 1, 60, 0
4, 72528, Note_on_c, 1, 64, 70
4, 72528, Note_on_c, 1, 61, 70
4, 72576, Note_on_c, 1, 64, 0
4, 72576, Note_on_c, 1, 61, 0
4, 72576, Note_on_c, 1, 63, 70
4, 72576, Note_on_c, 1, 60, 70
4, 72596, Note_on_c, 1, 63, 0
4, 72596, Note_on_c, 1, 60, 0
4, 72768, Note_on_c, 1, 60, 78
4, 72768, Note_on_c, 1, 56, 78
4, 72768, Note_on_c, 1, 54, 78
4, 72813, Note_on_c, 1, 60, 0
4, 72813, Note_on_c, 1, 56, 0
4, 72813, Note_on_c, 1, 54, 0
4, 72864, Note_on_c, 1, 60, 78
4, 72864, Note_on_c, 1, 56, 78
4, 72864, Note_on_c, 1, 54, 78
4, 72909, Note_on_c, 1, 60, 0
4, 72909, Note_on_c, 1, 56, 0
4, 72909, Note_on_c, 1, 54, 0
4, 72960, Note_on_c, 1, 60, 78
4, 72960, Note_on_c, 1, 56, 78
4, 72960, Note_on_c, 1, 54, 78
4, 73005, Note_on_c, 1, 60, 0
4, 73005, Note_on_c, 1, 56, 0
4, 73005, Note_on_c, 1, 54, 0
4, 73152, Note_on_c, 1, 52, 85
4, 73152, Note_on_c, 1, 56, 85
4, 73152, Note_on_c, 1, 61, 85
4, 73197, Note_on_c, 1, 61, 0
4, 73197, Note_on_c, 1, 56, 0
4, 73197, Note_on_c, 1, 52, 0
4, 73248, Note_on_c, 1, 54, 85
4, 73256, Note_on_c, 1, 57, 85
4, 73264, Note_on_c, 1, 63, 85
4, 73293, Note_on_c, 1, 63, 0
4, 73293, Note_on_c, 1, 57, 0
4, 73293, Note_on_c, 1, 54, 0
4, 73344, Note_on_c, 1, 56, 85
4, 73352, Note_on_c, 1, 61, 85
4, 73360, Note_on_c, 1, 64, 85
4, 73389, Note_on_c, 1, 64, 0
4, 73389, Note_on_c, 1, 61, 0
4, 73389, Note_on_c, 1, 56, 0
4, 73488, Note_on_c, 1, 66, 78
4, 73488, Note_on_c, 1, 56, 78
4, 73536, Note_on_c, 1, 66, 0
4, 73536, Note_on_c, 1, 56, 0
4, 73536, Note_on_c, 1, 64, 78
4, 73536, Note_on_c, 1, 61, 78
4, 73575, Note_on_c, 1, 64, 0
4, 73575, Note_on_c, 1, 61, 0
4, 73680, Note_on_c, 1, 66, 78
4, 73680, Note_on_c, 1, 56, 78
4, 73728, Note_on_c, 1, 66, 0
4, 73728, Note_on_c, 1, 56, 0
4, 73728, Note_on_c, 1, 64, 78
4, 73728, Note_on_c, 1, 61, 78
4, 73767, Note_on_c, 1, 64, 0
4, 73767, Note_on_c, 1, 61, 0
4, 73872, Note_on_c, 1, 66, 78
4, 73872, Note_on_c, 1, 56, 78
4, 73920, Note_on_c, 1, 66, 0
4, 73920, Note_on_c, 1, 56, 0
4, 73920, Note_on_c, 1, 64, 70
4, 73920, Note_on_c, 1, 61, 70
4, 73959, Note_on_c, 1, 64, 0
4, 73959, Note_on_c, 1, 61, 0
4, 74064, Note_on_c, 1, 66, 70
4, 74064, Note_on_c, 1, 56, 70
4, 74112, Note_on_c, 1, 66, 0
4, 74112, Note_on_c, 1, 56, 0
4, 74112, Note_on_c, 1, 64, 70
4, 74112, Note_on_c, 1, 61, 70
4, 74132, Note_on_c, 1, 64, 0
4, 74132, Note_on_c, 1, 61, 0
4, 74208, Note_on_c, 1, 56, 63
4, 74228, Note_on_c, 1, 56, 0
4, 74304, Note_on_c, 1, 49, 63
4, 74343, Note_on_c, 1, 49, 0
4, 74496, Note_on_c, 1, 49, 4
4, 74585, Note_on_c, 1, 49, 0
4, 74784, End_track
5, 0, Start_track
5, 0, Program_c, 1, 0
5, 0, Control_c, 1, 7, 127
5, 0, Control_c, 1, 10, 64
5, 1776, Note_on_c, 1, 56, 64
5, 1909, Note_on_c, 1, 56, 0
5, 3072, Note_on_c, 1, 39, 80
5, 3216, Note_on_c, 1, 39, 0
5, 3216, Note_on_c, 1, 42, 64
5, 3239, Note_on_c, 1, 42, 0
5, 3240, Note_on_c, 1, 46, 64
5, 3263, Note_on_c, 1, 46, 0
5, 8064, Note_on_c, 1, 56, 64
5, 8153, Note_on_c, 1, 56, 0
5, 8160, Note_on_c, 1, 55, 64
5, 8205, Note_on_c, 1, 55, 0
5, 8208, Note_on_c, 1, 56, 64
5, 8253, Note_on_c, 1, 56, 0
5, 8256, Note_on_c, 1, 57, 64
5, 8389, Note_on_c, 1, 57, 0
5, 8400, Note_on_c, 1, 56, 64
5, 8445, Note_on_c, 1, 56, 0
5, 12480, Note_on_c, 1, 52, 64
5, 12519, Note_on_c, 1, 52, 0
5, 14448, Note_on_c, 1, 56, 64
5, 14581, Note_on_c, 1, 56, 0
5, 15744, Note_on_c, 1, 39, 80
5, 15888, Note_on_c, 1, 39, 0
5, 15888, Note_on_c, 1, 42, 64
5, 15911, Note_on_c, 1, 42, 0
5, 15912, Note_on_c, 1, 46, 64
5, 15935, Note_on_c, 1, 46, 0
5, 20736, Note_on_c, 1, 56, 64
5, 20825, Note_on_c, 1, 56, 0
5, 20832, Note_on_c, 1, 55, 64
5, 20877, Note_on_c, 1, 55, 0
5, 20880, Note_on_c, 1, 56, 64
5, 20925, Note_on_c, 1, 56, 0
5, 20928, Note_on_c, 1, 57, 64
5, 21061, Note_on_c, 1, 57, 0
5, 21072, Note_on_c, 1, 56, 64
5, 21117, Note_on_c, 1, 56, 0
5, 25152, Note_on_c, 1, 52, 64
5, 25191, Note_on_c, 1, 52, 0
5, 25920, Note_on_c, 1, 69, 64
5, 25943, Note_on_c, 1, 69, 0
5, 25944, Note_on_c, 1, 68, 64
5, 25967, Note_on_c, 1, 68, 0
5, 25968, Note_on_c, 1, 66, 64
5, 25991, Note_on_c, 1, 66, 0
5, 25992, Note_on_c, 1, 64, 64
5, 26015, Note_on_c, 1, 64, 0
5, 26016, Note_on_c, 1, 63, 64
5, 26039, Note_on_c, 1, 63, 0
5, 26040, Note_on_c, 1, 61, 64
5, 26063, Note_on_c, 1, 61, 0
5, 26064, Note_on_c, 1, 59, 64
5, 26087, Note_on_c, 1, 59, 0
5, 26088, Note_on_c, 1, 63, 64
5, 26111, Note_on_c, 1, 63, 0
5, 26112, Note_on_c, 1, 64, 64
5, 26245, Note_on_c, 1, 64, 0
5, 26256, Note_on_c, 1, 62, 64
5, 26301, Note_on_c, 1, 62, 0
5, 26304, Note_on_c, 1, 61, 64
5, 26393, Note_on_c, 1, 61, 0
5, 26400, Note_on_c, 1, 65, 64
5, 26489, Note_on_c, 1, 65, 0
5, 33408, Control_c, 1, 64, 127
5, 33408, Note_on_c, 1, 56, 74
5, 33585, Note_on_c, 1, 56, 0
5, 33600, Control_c, 1, 64, 127
5, 33600, Note_on_c, 1, 56, 75
5, 33777, Note_on_c, 1, 56, 0
5, 33792, Control_c, 1, 64, 0
5, 33792, Control_c, 1, 64, 127
5, 33792, Note_on_c, 1, 54, 77
5, 33969, Note_on_c, 1, 54, 0
5, 33984, Note_on_c, 1, 54, 79
5, 34161, Note_on_c, 1, 54, 0
5, 34176, Control_c, 1, 64, 0
5, 34176, Control_c, 1, 64, 127
5, 34176, Note_on_c, 1, 53, 81
5, 34353, Note_on_c, 1, 53, 0
5, 34368, Note_on_c, 1, 53, 83
5, 34545, Note_on_c, 1, 53, 0
5, 34560, Control_c, 1, 64, 0
5, 34560, Control_c, 1, 64, 127
5, 34560, Note_on_c, 1, 52, 85
5, 34737, Note_on_c, 1, 52, 0
5, 34752, Note_on_c, 1, 52, 85
5, 34929, Note_on_c, 1, 52, 0
5, 34944, Control_c, 1, 64, 0
5, 34944, Control_c, 1, 64, 127
5, 34944, Note_on_c, 1, 51, 85
5, 35121, Note_on_c, 1, 51, 0
5, 35136, Note_on_c, 1, 51, 85
5, 35313, Note_on_c, 1, 51, 0
5, 35328, Control_c, 1, 64, 0
5, 35328, Control_c, 1, 64, 127
5, 35328, Note_on_c, 1, 52, 85
5, 35505, Note_on_c, 1, 52, 0
5, 35520, Note_on_c, 1, 52, 85
5, 35697, Note_on_c, 1, 52, 0
5, 35712, Control_c, 1, 64, 0
5, 35712, Control_c, 1, 64, 127
5, 35712, Note_on_c, 1, 48, 85
5, 35889, Note_on_c, 1, 48, 0
5, 35904, Control_c, 1, 64, 0
5, 35904, Control_c, 1, 64, 127
5, 35904, Note_on_c, 1, 49, 85
5, 36081, Note_on_c, 1, 49, 0
5, 36096, Control_c, 1, 64, 0
5, 37632, Note_on_c, 1, 49, 85
5, 37721, Note_on_c, 1, 49, 0
5, 39936, Note_on_c, 1, 56, 85
5, 40113, Note_on_c, 1, 56, 0
5, 46848, Note_on_c, 1, 44, 85
5, 47025, Note_on_c, 1, 44, 0
5, 50496, Note_on_c, 1, 69, 64
5, 50519, Note_on_c, 1, 69, 0
5, 50520, Note_on_c, 1, 68, 64
5, 50543, Note_on_c, 1, 68, 0
5, 50544, Note_on_c, 1, 66, 64
5, 50567, Note_on_c, 1, 66, 0
5, 50568, Note_on_c, 1, 64, 64
5, 50591, Note_on_c, 1, 64, 0
5, 50592, Note_on_c, 1, 63, 64
5, 50615, Note_on_c, 1, 63, 0
5, 50616, Note_on_c, 1, 61, 64
5, 50639, Note_on_c, 1, 61, 0
5, 50640, Note_on_c, 1, 59, 64
5, 50663, Note_on_c, 1, 59, 0
5, 50664, Note_on_c, 1, 63, 64
5, 50687, Note_on_c, 1, 63, 0
5, 50688, Note_on_c, 1, 64, 64
5, 50821, Note_on_c, 1, 64, 0
5, 50832, Note_on_c, 1, 62, 64
5, 50877, Note_on_c, 1, 62, 0
5, 50880, Note_on_c, 1, 61, 64
5, 50969, Note_on_c, 1, 61, 0
5, 50976, Note_on_c, 1, 65, 64
5, 51065, Note_on_c, 1, 65, 0
5, 57984, Control_c, 1, 64, 127
5, 57984, Note_on_c, 1, 56, 74
5, 58161, Note_on_c, 1, 56, 0
5, 58176, Control_c, 1, 64, 127
5, 58176, Note_on_c, 1, 56, 75
5, 58353, Note_on_c, 1, 56, 0
5, 58368, Control_c, 1, 64, 0
5, 58368, Control_c, 1, 64, 127
5, 58368, Note_on_c, 1, 54, 77
5, 58545, Note_on_c, 1, 54, 0
5, 58560, Note_on_c, 1, 54, 79
5, 58737, Note_on_c, 1, 54, 0
5, 58752, Control_c, 1, 64, 0
5, 58752, Control_c, 1, 64, 127
5, 58752, Note_on_c, 1, 53, 81
5, 58929, Note_on_c, 1, 53, 0
5, 58944, Note_on_c, 1, 53, 83
5, 59121, Note_on_c, 1, 53, 0
5, 59136, Control_c, 1, 64, 0
5, 59136, Control_c, 1, 64, 127
5, 59136, Note_on_c, 1, 52, 85
5, 59313, Note_on_c, 1, 52, 0
5, 59328, Note_on_c, 1, 52, 85
5, 59505, Note_on_c, 1, 52, 0
5, 59520, Control_c, 1, 64, 0
5, 59520, Control_c, 1, 64, 127
5, 59520, Note_on_c, 1, 51, 85
5, 59697, Note_on_c, 1, 51, 0
5, 59712, Note_on_c, 1, 51, 85
5, 59889, Note_on_c, 1, 51, 0
5, 59904, Control_c, 1, 64, 0
5, 59904, Control_c, 1, 64, 127
5, 59904, Note_on_c, 1, 52, 85
5, 60081, Note_on_c, 1, 52, 0
5, 60096, Note_on_c, 1, 52, 85
5, 60273, Note_on_c, 1, 52, 0
5, 60288, Control_c, 1, 64, 0
5, 60288, Control_c, 1, 64, 127
5, 60288, Note_on_c, 1, 48, 85
5, 60465, Note_on_c, 1, 48, 0
5, 60480, Control_c, 1, 64, 0
5, 60480, Control_c, 1, 64, 127
5, 60480, Note_on_c, 1, 49, 85
5, 60657, Note_on_c, 1, 49, 0
5, 60672, Control_c, 1, 64, 0
5, 62208, Note_on_c, 1, 49, 85
5, 62297, Note_on_c, 1, 49, 0
5, 64512, Note_on_c, 1, 56, 85
5, 64689, Note_on_c, 1, 56, 0
5, 71424, Note_on_c, 1, 44, 85
5, 71601, Note_on_c, 1, 44, 0
5, 74784, End_track
6, 0, Start_track
6, 0, Title_t, "Sonata II   Haydn  "
6, 0, End_track
0, 0, End_of_file
