0, 0, Header, 1, 6, 96
1, 0, Start_track
1, 0, Text_t, "Piano Solo\015\012"
1, 0, Text_t, "<composer>\015\012"
1, 0, Sequencer_specific, 16, 68, 87, 77, 90, 86, 82, 83, 78, 32, 55, 46, 49, 46, 50, 46, 48
1, 0, Time_signature, 4, 2, 24, 8
1, 0, Tempo, 705882
1, 0, Key_signature, -3, "major"
1, 32448, Tempo, 1500000
1, 32640, Tempo, 705882
1, 57024, Tempo, 1500000
1, 57216, Tempo, 705882
1, 78336, End_track
2, 0, Start_track
2, 0, Program_c, 0, 0
2, 0, Control_c, 0, 7, 127
2, 0, Control_c, 0, 10, 64
2, 0, Note_on_c, 0, 79, 74
2, 0, Note_on_c, 0, 75, 74
2, 144, Note_on_c, 0, 79, 0
2, 144, Note_on_c, 0, 75, 0
2, 144, Note_on_c, 0, 77, 74
2, 144, Note_on_c, 0, 74, 74
2, 189, Note_on_c, 0, 77, 0
2, 189, Note_on_c, 0, 74, 0
2, 192, Note_on_c, 0, 80, 74
2, 192, Note_on_c, 0, 77, 74
2, 336, Note_on_c, 0, 80, 0
2, 336, Note_on_c, 0, 77, 0
2, 336, Note_on_c, 0, 79, 74
2, 336, Note_on_c, 0, 75, 74
2, 381, Note_on_c, 0, 79, 0
2, 381, Note_on_c, 0, 75, 0
2, 384, Note_on_c, 0, 77, 74
2, 384, Note_on_c, 0, 68, 74
2, 429, Note_on_c, 0, 77, 0
2, 429, Note_on_c, 0, 68, 0
2, 432, Note_on_c, 0, 75, 75
2, 432, Note_on_c, 0, 67, 75
2, 477, Note_on_c, 0, 75, 0
2, 477, Note_on_c, 0, 67, 0
2, 480, Note_on_c, 0, 74, 76
2, 480, Note_on_c, 0, 65, 76
2, 525, Note_on_c, 0, 74, 0
2, 525, Note_on_c, 0, 65, 0
2, 528, Note_on_c, 0, 72, 77
2, 528, Note_on_c, 0, 63, 77
2, 573, Note_on_c, 0, 72, 0
2, 573, Note_on_c, 0, 63, 0
2, 576, Note_on_c, 0, 71, 79
2, 582, Note_on_c, 0, 71, 0
2, 582, Note_on_c, 0, 72, 79
2, 588, Note_on_c, 0, 72, 0
2, 588, Note_on_c, 0, 74, 79
2, 594, Note_on_c, 0, 74, 0
2, 594, Note_on_c, 0, 72, 79
2, 672, Note_on_c, 0, 72, 0
2, 672, Note_on_c, 0, 71, 75
2, 717, Note_on_c, 0, 71, 0
2, 768, Note_on_c, 0, 67, 74
2, 774, Note_on_c, 0, 67, 0
2, 774, Note_on_c, 0, 68, 74
2, 780, Note_on_c, 0, 68, 0
2, 780, Note_on_c, 0, 70, 74
2, 786, Note_on_c, 0, 70, 0
2, 786, Note_on_c, 0, 68, 74
2, 864, Note_on_c, 0, 68, 0
2, 864, Note_on_c, 0, 67, 74
2, 884, Note_on_c, 0, 67, 0
2, 912, Note_on_c, 0, 72, 74
2, 957, Note_on_c, 0, 72, 0
2, 960, Note_on_c, 0, 71, 74
2, 966, Note_on_c, 0, 71, 0
2, 966, Note_on_c, 0, 72, 74
2, 972, Note_on_c, 0, 72, 0
2, 972, Note_on_c, 0, 74, 74
2, 978, Note_on_c, 0, 74, 0
2, 978, Note_on_c, 0, 72, 74
2, 1056, Note_on_c, 0, 72, 0
2, 1056, Note_on_c, 0, 71, 74
2, 1066, Note_on_c, 0, 71, 0
2, 1080, Note_on_c, 0, 80, 74
2, 1103, Note_on_c, 0, 80, 0
2, 1104, Note_on_c, 0, 79, 74
2, 1127, Note_on_c, 0, 79, 0
2, 1128, Note_on_c, 0, 77, 74
2, 1151, Note_on_c, 0, 77, 0
2, 1152, Note_on_c, 0, 77, 74
2, 1175, Note_on_c, 0, 77, 0
2, 1176, Note_on_c, 0, 75, 74
2, 1199, Note_on_c, 0, 75, 0
2, 1200, Note_on_c, 0, 74, 74
2, 1206, Note_on_c, 0, 74, 0
2, 1206, Note_on_c, 0, 75, 74
2, 1212, Note_on_c, 0, 75, 0
2, 1212, Note_on_c, 0, 74, 74
2, 1223, Note_on_c, 0, 74, 0
2, 1224, Note_on_c, 0, 72, 74
2, 1247, Note_on_c, 0, 72, 0
2, 1248, Note_on_c, 0, 71, 74
2, 1293, Note_on_c, 0, 71, 0
2, 1296, Note_on_c, 0, 72, 76
2, 1341, Note_on_c, 0, 72, 0
2, 1344, Note_on_c, 0, 75, 79
2, 1411, Note_on_c, 0, 75, 0
2, 1416, Note_on_c, 0, 77, 76
2, 1428, Note_on_c, 0, 77, 0
2, 1428, Note_on_c, 0, 75, 76
2, 1440, Note_on_c, 0, 75, 0
2, 1440, Note_on_c, 0, 74, 75
2, 1485, Note_on_c, 0, 74, 0
2, 1536, Note_on_c, 0, 67, 74
2, 1536, Note_on_c, 0, 63, 74
2, 1680, Note_on_c, 0, 67, 0
2, 1680, Note_on_c, 0, 63, 0
2, 1680, Note_on_c, 0, 65, 74
2, 1680, Note_on_c, 0, 62, 74
2, 1725, Note_on_c, 0, 65, 0
2, 1725, Note_on_c, 0, 62, 0
2, 1728, Note_on_c, 0, 68, 74
2, 1728, Note_on_c, 0, 65, 74
2, 1872, Note_on_c, 0, 68, 0
2, 1872, Note_on_c, 0, 65, 0
2, 1872, Note_on_c, 0, 67, 74
2, 1872, Note_on_c, 0, 63, 74
2, 1917, Note_on_c, 0, 67, 0
2, 1917, Note_on_c, 0, 63, 0
2, 1920, Note_on_c, 0, 72, 74
2, 2050, Note_on_c, 0, 72, 0
2, 2052, Note_on_c, 0, 71, 74
2, 2064, Note_on_c, 0, 71, 0
2, 2064, Note_on_c, 0, 74, 74
2, 2098, Note_on_c, 0, 74, 0
2, 2100, Note_on_c, 0, 72, 74
2, 2112, Note_on_c, 0, 72, 0
2, 2112, Note_on_c, 0, 75, 74
2, 2132, Note_on_c, 0, 75, 0
2, 2208, Note_on_c, 0, 72, 74
2, 2220, Note_on_c, 0, 72, 0
2, 2220, Note_on_c, 0, 74, 74
2, 2232, Note_on_c, 0, 74, 0
2, 2232, Note_on_c, 0, 75, 75
2, 2244, Note_on_c, 0, 75, 0
2, 2244, Note_on_c, 0, 77, 75
2, 2256, Note_on_c, 0, 77, 0
2, 2256, Note_on_c, 0, 79, 76
2, 2268, Note_on_c, 0, 79, 0
2, 2268, Note_on_c, 0, 80, 77
2, 2280, Note_on_c, 0, 80, 0
2, 2280, Note_on_c, 0, 82, 77
2, 2292, Note_on_c, 0, 82, 0
2, 2292, Note_on_c, 0, 84, 78
2, 2304, Note_on_c, 0, 84, 0
2, 2304, Note_on_c, 0, 82, 95
2, 2376, Note_on_c, 0, 82, 0
2, 2376, Note_on_c, 0, 80, 79
2, 2382, Note_on_c, 0, 80, 0
2, 2382, Note_on_c, 0, 82, 79
2, 2388, Note_on_c, 0, 82, 0
2, 2388, Note_on_c, 0, 80, 79
2, 2399, Note_on_c, 0, 80, 0
2, 2400, Note_on_c, 0, 79, 79
2, 2467, Note_on_c, 0, 79, 0
2, 2472, Note_on_c, 0, 84, 79
2, 2495, Note_on_c, 0, 84, 0
2, 2496, Note_on_c, 0, 79, 79
2, 2563, Note_on_c, 0, 79, 0
2, 2568, Note_on_c, 0, 77, 79
2, 2574, Note_on_c, 0, 77, 0
2, 2574, Note_on_c, 0, 79, 79
2, 2580, Note_on_c, 0, 79, 0
2, 2580, Note_on_c, 0, 77, 79
2, 2591, Note_on_c, 0, 77, 0
2, 2592, Note_on_c, 0, 75, 79
2, 2637, Note_on_c, 0, 75, 0
2, 2712, Note_on_c, 0, 73, 79
2, 2735, Note_on_c, 0, 73, 0
2, 2736, Note_on_c, 0, 75, 79
2, 2742, Note_on_c, 0, 75, 0
2, 2742, Note_on_c, 0, 73, 79
2, 2748, Note_on_c, 0, 73, 0
2, 2748, Note_on_c, 0, 72, 79
2, 2754, Note_on_c, 0, 72, 0
2, 2754, Note_on_c, 0, 73, 79
2, 2760, Note_on_c, 0, 73, 0
2, 2760, Note_on_c, 0, 80, 79
2, 2783, Note_on_c, 0, 80, 0
2, 2784, Note_on_c, 0, 72, 79
2, 2829, Note_on_c, 0, 72, 0
2, 2832, Note_on_c, 0, 71, 79
2, 2838, Note_on_c, 0, 71, 0
2, 2838, Note_on_c, 0, 72, 79
2, 2844, Note_on_c, 0, 72, 0
2, 2844, Note_on_c, 0, 71, 79
2, 2879, Note_on_c, 0, 71, 0
2, 2880, Note_on_c, 0, 72, 79
2, 2919, Note_on_c, 0, 72, 0
2, 3072, Note_on_c, 0, 63, 99
2, 3191, Note_on_c, 0, 63, 0
2, 3192, Note_on_c, 0, 63, 83
2, 3215, Note_on_c, 0, 63, 0
2, 3216, Note_on_c, 0, 65, 83
2, 3228, Note_on_c, 0, 65, 0
2, 3228, Note_on_c, 0, 63, 83
2, 3240, Note_on_c, 0, 63, 0
2, 3240, Note_on_c, 0, 62, 83
2, 3252, Note_on_c, 0, 62, 0
2, 3252, Note_on_c, 0, 63, 83
2, 3264, Note_on_c, 0, 63, 0
2, 3264, Note_on_c, 0, 68, 83
2, 3287, Note_on_c, 0, 68, 0
2, 3288, Note_on_c, 0, 63, 83
2, 3311, Note_on_c, 0, 63, 0
2, 3312, Note_on_c, 0, 65, 83
2, 3324, Note_on_c, 0, 65, 0
2, 3324, Note_on_c, 0, 63, 83
2, 3336, Note_on_c, 0, 63, 0
2, 3336, Note_on_c, 0, 62, 83
2, 3348, Note_on_c, 0, 62, 0
2, 3348, Note_on_c, 0, 63, 83
2, 3360, Note_on_c, 0, 63, 0
2, 3360, Note_on_c, 0, 70, 83
2, 3383, Note_on_c, 0, 70, 0
2, 3384, Note_on_c, 0, 63, 83
2, 3407, Note_on_c, 0, 63, 0
2, 3408, Note_on_c, 0, 65, 83
2, 3420, Note_on_c, 0, 65, 0
2, 3420, Note_on_c, 0, 63, 83
2, 3432, Note_on_c, 0, 63, 0
2, 3432, Note_on_c, 0, 62, 83
2, 3444, Note_on_c, 0, 62, 0
2, 3444, Note_on_c, 0, 63, 83
2, 3456, Note_on_c, 0, 63, 0
2, 3456, Note_on_c, 0, 72, 83
2, 3501, Note_on_c, 0, 72, 0
2, 3552, Note_on_c, 0, 74, 74
2, 3575, Note_on_c, 0, 74, 0
2, 3576, Note_on_c, 0, 75, 75
2, 3599, Note_on_c, 0, 75, 0
2, 3600, Note_on_c, 0, 77, 76
2, 3623, Note_on_c, 0, 77, 0
2, 3624, Note_on_c, 0, 75, 77
2, 3647, Note_on_c, 0, 75, 0
2, 3648, Note_on_c, 0, 73, 79
2, 3671, Note_on_c, 0, 73, 0
2, 3672, Note_on_c, 0, 72, 77
2, 3695, Note_on_c, 0, 72, 0
2, 3696, Note_on_c, 0, 70, 76
2, 3719, Note_on_c, 0, 70, 0
2, 3720, Note_on_c, 0, 68, 75
2, 3743, Note_on_c, 0, 68, 0
2, 3744, Note_on_c, 0, 67, 74
2, 3764, Note_on_c, 0, 67, 0
2, 3792, Note_on_c, 0, 70, 83
2, 3812, Note_on_c, 0, 70, 0
2, 3840, Note_on_c, 0, 68, 68
2, 3860, Note_on_c, 0, 68, 0
2, 3888, Note_on_c, 0, 73, 83
2, 3908, Note_on_c, 0, 73, 0
2, 3936, Note_on_c, 0, 72, 68
2, 3956, Note_on_c, 0, 72, 0
2, 3984, Note_on_c, 0, 77, 83
2, 4004, Note_on_c, 0, 77, 0
2, 4032, Note_on_c, 0, 75, 68
2, 4151, Note_on_c, 0, 75, 0
2, 4152, Note_on_c, 0, 73, 68
2, 4175, Note_on_c, 0, 73, 0
2, 4176, Note_on_c, 0, 72, 68
2, 4199, Note_on_c, 0, 72, 0
2, 4200, Note_on_c, 0, 70, 68
2, 4223, Note_on_c, 0, 70, 0
2, 4224, Note_on_c, 0, 70, 83
2, 4320, Note_on_c, 0, 70, 0
2, 4320, Note_on_c, 0, 69, 83
2, 4343, Note_on_c, 0, 69, 0
2, 4344, Note_on_c, 0, 65, 83
2, 4367, Note_on_c, 0, 65, 0
2, 4368, Note_on_c, 0, 67, 83
2, 4380, Note_on_c, 0, 67, 0
2, 4380, Note_on_c, 0, 65, 83
2, 4392, Note_on_c, 0, 65, 0
2, 4392, Note_on_c, 0, 63, 83
2, 4404, Note_on_c, 0, 63, 0
2, 4404, Note_on_c, 0, 65, 83
2, 4416, Note_on_c, 0, 65, 0
2, 4416, Note_on_c, 0, 70, 83
2, 4439, Note_on_c, 0, 70, 0
2, 4440, Note_on_c, 0, 65, 83
2, 4463, Note_on_c, 0, 65, 0
2, 4464, Note_on_c, 0, 67, 83
2, 4476, Note_on_c, 0, 67, 0
2, 4476, Note_on_c, 0, 65, 83
2, 4488, Note_on_c, 0, 65, 0
2, 4488, Note_on_c, 0, 63, 83
2, 4500, Note_on_c, 0, 63, 0
2, 4500, Note_on_c, 0, 65, 83
2, 4512, Note_on_c, 0, 65, 0
2, 4512, Note_on_c, 0, 72, 83
2, 4535, Note_on_c, 0, 72, 0
2, 4536, Note_on_c, 0, 65, 83
2, 4559, Note_on_c, 0, 65, 0
2, 4560, Note_on_c, 0, 67, 83
2, 4572, Note_on_c, 0, 67, 0
2, 4572, Note_on_c, 0, 65, 83
2, 4584, Note_on_c, 0, 65, 0
2, 4584, Note_on_c, 0, 63, 83
2, 4596, Note_on_c, 0, 63, 0
2, 4596, Note_on_c, 0, 65, 83
2, 4608, Note_on_c, 0, 65, 0
2, 4608, Note_on_c, 0, 74, 83
2, 4653, Note_on_c, 0, 74, 0
2, 4704, Note_on_c, 0, 76, 74
2, 4727, Note_on_c, 0, 76, 0
2, 4728, Note_on_c, 0, 77, 75
2, 4751, Note_on_c, 0, 77, 0
2, 4752, Note_on_c, 0, 79, 76
2, 4775, Note_on_c, 0, 79, 0
2, 4776, Note_on_c, 0, 77, 77
2, 4799, Note_on_c, 0, 77, 0
2, 4800, Note_on_c, 0, 75, 79
2, 4823, Note_on_c, 0, 75, 0
2, 4824, Note_on_c, 0, 74, 77
2, 4847, Note_on_c, 0, 74, 0
2, 4848, Note_on_c, 0, 72, 76
2, 4871, Note_on_c, 0, 72, 0
2, 4872, Note_on_c, 0, 70, 75
2, 4895, Note_on_c, 0, 70, 0
2, 4896, Note_on_c, 0, 69, 74
2, 4916, Note_on_c, 0, 69, 0
2, 4944, Note_on_c, 0, 72, 83
2, 4964, Note_on_c, 0, 72, 0
2, 4992, Note_on_c, 0, 70, 68
2, 5012, Note_on_c, 0, 70, 0
2, 5040, Note_on_c, 0, 75, 83
2, 5060, Note_on_c, 0, 75, 0
2, 5088, Note_on_c, 0, 74, 68
2, 5108, Note_on_c, 0, 74, 0
2, 5136, Note_on_c, 0, 79, 83
2, 5156, Note_on_c, 0, 79, 0
2, 5184, Note_on_c, 0, 77, 68
2, 5273, Note_on_c, 0, 77, 0
2, 5280, Note_on_c, 0, 75, 68
2, 5303, Note_on_c, 0, 75, 0
2, 5304, Note_on_c, 0, 74, 68
2, 5327, Note_on_c, 0, 74, 0
2, 5328, Note_on_c, 0, 72, 68
2, 5351, Note_on_c, 0, 72, 0
2, 5352, Note_on_c, 0, 70, 68
2, 5375, Note_on_c, 0, 70, 0
2, 5376, Note_on_c, 0, 68, 74
2, 5376, Note_on_c, 0, 65, 74
2, 5613, Note_on_c, 0, 68, 0
2, 5613, Note_on_c, 0, 65, 0
2, 5616, Note_on_c, 0, 68, 74
2, 5616, Note_on_c, 0, 65, 74
2, 5661, Note_on_c, 0, 68, 0
2, 5661, Note_on_c, 0, 65, 0
2, 5664, Note_on_c, 0, 70, 74
2, 5664, Note_on_c, 0, 67, 74
2, 5687, Note_on_c, 0, 70, 0
2, 5687, Note_on_c, 0, 67, 0
2, 5688, Note_on_c, 0, 68, 74
2, 5688, Note_on_c, 0, 65, 74
2, 5711, Note_on_c, 0, 68, 0
2, 5711, Note_on_c, 0, 65, 0
2, 5712, Note_on_c, 0, 67, 74
2, 5712, Note_on_c, 0, 63, 74
2, 5735, Note_on_c, 0, 67, 0
2, 5735, Note_on_c, 0, 63, 0
2, 5736, Note_on_c, 0, 65, 74
2, 5736, Note_on_c, 0, 62, 74
2, 5759, Note_on_c, 0, 65, 0
2, 5759, Note_on_c, 0, 62, 0
2, 5760, Note_on_c, 0, 66, 90
2, 5760, Note_on_c, 0, 62, 90
2, 5856, Note_on_c, 0, 66, 0
2, 5856, Note_on_c, 0, 62, 0
2, 5856, Note_on_c, 0, 67, 74
2, 5856, Note_on_c, 0, 63, 74
2, 5997, Note_on_c, 0, 67, 0
2, 5997, Note_on_c, 0, 63, 0
2, 6000, Note_on_c, 0, 82, 74
2, 6000, Note_on_c, 0, 79, 74
2, 6045, Note_on_c, 0, 82, 0
2, 6045, Note_on_c, 0, 79, 0
2, 6048, Note_on_c, 0, 84, 74
2, 6048, Note_on_c, 0, 80, 74
2, 6071, Note_on_c, 0, 84, 0
2, 6071, Note_on_c, 0, 80, 0
2, 6072, Note_on_c, 0, 82, 74
2, 6072, Note_on_c, 0, 79, 74
2, 6095, Note_on_c, 0, 82, 0
2, 6095, Note_on_c, 0, 79, 0
2, 6096, Note_on_c, 0, 80, 74
2, 6096, Note_on_c, 0, 77, 74
2, 6119, Note_on_c, 0, 80, 0
2, 6119, Note_on_c, 0, 77, 0
2, 6120, Note_on_c, 0, 79, 74
2, 6120, Note_on_c, 0, 76, 74
2, 6143, Note_on_c, 0, 79, 0
2, 6143, Note_on_c, 0, 76, 0
2, 6144, Note_on_c, 0, 79, 90
2, 6144, Note_on_c, 0, 76, 90
2, 6240, Note_on_c, 0, 79, 0
2, 6240, Note_on_c, 0, 76, 0
2, 6240, Note_on_c, 0, 80, 74
2, 6240, Note_on_c, 0, 77, 74
2, 6381, Note_on_c, 0, 80, 0
2, 6381, Note_on_c, 0, 77, 0
2, 6384, Note_on_c, 0, 80, 74
2, 6384, Note_on_c, 0, 77, 74
2, 6429, Note_on_c, 0, 80, 0
2, 6429, Note_on_c, 0, 77, 0
2, 6432, Note_on_c, 0, 82, 74
2, 6432, Note_on_c, 0, 78, 74
2, 6455, Note_on_c, 0, 82, 0
2, 6455, Note_on_c, 0, 78, 0
2, 6456, Note_on_c, 0, 80, 74
2, 6456, Note_on_c, 0, 77, 74
2, 6479, Note_on_c, 0, 80, 0
2, 6479, Note_on_c, 0, 77, 0
2, 6480, Note_on_c, 0, 78, 74
2, 6480, Note_on_c, 0, 75, 74
2, 6503, Note_on_c, 0, 78, 0
2, 6503, Note_on_c, 0, 75, 0
2, 6504, Note_on_c, 0, 77, 74
2, 6504, Note_on_c, 0, 74, 74
2, 6527, Note_on_c, 0, 77, 0
2, 6527, Note_on_c, 0, 74, 0
2, 6528, Note_on_c, 0, 78, 68
2, 6528, Note_on_c, 0, 75, 68
2, 6622, Note_on_c, 0, 78, 0
2, 6622, Note_on_c, 0, 75, 0
2, 6624, Note_on_c, 0, 79, 73
2, 6624, Note_on_c, 0, 75, 73
2, 6718, Note_on_c, 0, 79, 0
2, 6718, Note_on_c, 0, 75, 0
2, 6720, Note_on_c, 0, 80, 78
2, 6720, Note_on_c, 0, 75, 78
2, 6814, Note_on_c, 0, 80, 0
2, 6814, Note_on_c, 0, 75, 0
2, 6816, Note_on_c, 0, 81, 83
2, 6816, Note_on_c, 0, 75, 83
2, 6910, Note_on_c, 0, 81, 0
2, 6910, Note_on_c, 0, 75, 0
2, 6960, Control_c, 0, 64, 127
2, 6960, Note_on_c, 0, 74, 83
2, 6983, Note_on_c, 0, 74, 0
2, 6984, Control_c, 0, 64, 0
2, 6984, Note_on_c, 0, 82, 83
2, 7007, Note_on_c, 0, 82, 0
2, 7008, Note_on_c, 0, 80, 83
2, 7031, Note_on_c, 0, 80, 0
2, 7032, Note_on_c, 0, 79, 83
2, 7055, Note_on_c, 0, 79, 0
2, 7056, Note_on_c, 0, 77, 83
2, 7079, Note_on_c, 0, 77, 0
2, 7080, Note_on_c, 0, 75, 83
2, 7103, Note_on_c, 0, 75, 0
2, 7104, Note_on_c, 0, 74, 83
2, 7127, Note_on_c, 0, 74, 0
2, 7128, Note_on_c, 0, 72, 83
2, 7151, Note_on_c, 0, 72, 0
2, 7152, Note_on_c, 0, 70, 83
2, 7175, Note_on_c, 0, 70, 0
2, 7368, Note_on_c, 0, 84, 99
2, 7392, Note_on_c, 0, 84, 0
2, 7392, Note_on_c, 0, 82, 80
2, 7415, Note_on_c, 0, 82, 0
2, 7416, Note_on_c, 0, 80, 78
2, 7439, Note_on_c, 0, 80, 0
2, 7440, Note_on_c, 0, 79, 75
2, 7463, Note_on_c, 0, 79, 0
2, 7464, Note_on_c, 0, 77, 73
2, 7487, Note_on_c, 0, 77, 0
2, 7488, Note_on_c, 0, 76, 70
2, 7511, Note_on_c, 0, 76, 0
2, 7512, Note_on_c, 0, 77, 68
2, 7535, Note_on_c, 0, 77, 0
2, 7536, Note_on_c, 0, 78, 71
2, 7559, Note_on_c, 0, 78, 0
2, 7560, Note_on_c, 0, 77, 75
2, 7583, Note_on_c, 0, 77, 0
2, 7584, Note_on_c, 0, 79, 79
2, 7607, Note_on_c, 0, 79, 0
2, 7608, Note_on_c, 0, 77, 76
2, 7631, Note_on_c, 0, 77, 0
2, 7632, Note_on_c, 0, 80, 73
2, 7655, Note_on_c, 0, 80, 0
2, 7656, Note_on_c, 0, 77, 70
2, 7679, Note_on_c, 0, 77, 0
2, 7680, Note_on_c, 0, 76, 68
2, 7703, Note_on_c, 0, 76, 0
2, 7704, Note_on_c, 0, 77, 71
2, 7727, Note_on_c, 0, 77, 0
2, 7728, Note_on_c, 0, 78, 75
2, 7751, Note_on_c, 0, 78, 0
2, 7752, Note_on_c, 0, 77, 79
2, 7775, Note_on_c, 0, 77, 0
2, 7776, Note_on_c, 0, 79, 76
2, 7799, Note_on_c, 0, 79, 0
2, 7800, Note_on_c, 0, 77, 74
2, 7823, Note_on_c, 0, 77, 0
2, 7824, Note_on_c, 0, 80, 72
2, 7847, Note_on_c, 0, 80, 0
2, 7848, Note_on_c, 0, 77, 70
2, 7871, Note_on_c, 0, 77, 0
2, 7872, Note_on_c, 0, 76, 68
2, 7895, Note_on_c, 0, 76, 0
2, 7896, Note_on_c, 0, 77, 70
2, 7919, Note_on_c, 0, 77, 0
2, 7920, Note_on_c, 0, 78, 73
2, 7943, Note_on_c, 0, 78, 0
2, 7944, Note_on_c, 0, 77, 76
2, 7967, Note_on_c, 0, 77, 0
2, 7968, Note_on_c, 0, 79, 79
2, 7991, Note_on_c, 0, 79, 0
2, 7992, Note_on_c, 0, 77, 76
2, 8015, Note_on_c, 0, 77, 0
2, 8016, Note_on_c, 0, 80, 73
2, 8039, Note_on_c, 0, 80, 0
2, 8040, Note_on_c, 0, 77, 70
2, 8063, Note_on_c, 0, 77, 0
2, 8064, Note_on_c, 0, 75, 68
2, 8271, Note_on_c, 0, 75, 0
2, 8272, Note_on_c, 0, 74, 83
2, 8287, Note_on_c, 0, 74, 0
2, 8288, Note_on_c, 0, 75, 83
2, 8303, Note_on_c, 0, 75, 0
2, 8304, Note_on_c, 0, 77, 83
2, 8319, Note_on_c, 0, 77, 0
2, 8320, Note_on_c, 0, 75, 83
2, 8335, Note_on_c, 0, 75, 0
2, 8336, Note_on_c, 0, 74, 83
2, 8351, Note_on_c, 0, 74, 0
2, 8352, Note_on_c, 0, 80, 83
2, 8367, Note_on_c, 0, 80, 0
2, 8368, Note_on_c, 0, 79, 83
2, 8383, Note_on_c, 0, 79, 0
2, 8384, Note_on_c, 0, 77, 83
2, 8399, Note_on_c, 0, 77, 0
2, 8400, Note_on_c, 0, 84, 83
2, 8415, Note_on_c, 0, 84, 0
2, 8416, Note_on_c, 0, 80, 83
2, 8431, Note_on_c, 0, 80, 0
2, 8432, Note_on_c, 0, 77, 83
2, 8447, Note_on_c, 0, 77, 0
2, 8448, Note_on_c, 0, 75, 83
2, 8655, Note_on_c, 0, 75, 0
2, 8656, Note_on_c, 0, 74, 83
2, 8671, Note_on_c, 0, 74, 0
2, 8672, Note_on_c, 0, 75, 83
2, 8687, Note_on_c, 0, 75, 0
2, 8688, Note_on_c, 0, 77, 83
2, 8703, Note_on_c, 0, 77, 0
2, 8704, Note_on_c, 0, 75, 83
2, 8719, Note_on_c, 0, 75, 0
2, 8720, Note_on_c, 0, 74, 83
2, 8735, Note_on_c, 0, 74, 0
2, 8736, Note_on_c, 0, 80, 83
2, 8751, Note_on_c, 0, 80, 0
2, 8752, Note_on_c, 0, 78, 83
2, 8767, Note_on_c, 0, 78, 0
2, 8768, Note_on_c, 0, 77, 83
2, 8783, Note_on_c, 0, 77, 0
2, 8784, Note_on_c, 0, 83, 83
2, 8799, Note_on_c, 0, 83, 0
2, 8800, Note_on_c, 0, 80, 83
2, 8815, Note_on_c, 0, 80, 0
2, 8816, Note_on_c, 0, 77, 83
2, 8831, Note_on_c, 0, 77, 0
2, 8832, Note_on_c, 0, 75, 83
2, 9157, Note_on_c, 0, 75, 0
2, 9168, Note_on_c, 0, 74, 68
2, 9192, Note_on_c, 0, 74, 0
2, 9192, Note_on_c, 0, 75, 68
2, 9216, Note_on_c, 0, 75, 0
2, 9216, Note_on_c, 0, 77, 68
2, 9240, Note_on_c, 0, 77, 0
2, 9240, Note_on_c, 0, 75, 68
2, 9264, Note_on_c, 0, 75, 0
2, 9264, Note_on_c, 0, 74, 68
2, 9288, Note_on_c, 0, 74, 0
2, 9288, Note_on_c, 0, 80, 68
2, 9312, Note_on_c, 0, 80, 0
2, 9312, Note_on_c, 0, 78, 68
2, 9336, Note_on_c, 0, 78, 0
2, 9336, Note_on_c, 0, 77, 68
2, 9360, Note_on_c, 0, 77, 0
2, 9360, Note_on_c, 0, 83, 68
2, 9500, Note_on_c, 0, 83, 0
2, 9504, Note_on_c, 0, 82, 68
2, 9524, Note_on_c, 0, 82, 0
2, 9524, Note_on_c, 0, 80, 68
2, 9543, Note_on_c, 0, 80, 0
2, 9543, Note_on_c, 0, 78, 68
2, 9562, Note_on_c, 0, 78, 0
2, 9562, Note_on_c, 0, 77, 68
2, 9581, Note_on_c, 0, 77, 0
2, 9581, Note_on_c, 0, 75, 68
2, 9740, Note_on_c, 0, 75, 0
2, 9744, Control_c, 0, 64, 127
2, 9744, Note_on_c, 0, 74, 68
2, 9935, Note_on_c, 0, 74, 0
2, 9936, Note_on_c, 0, 74, 68
2, 9984, Control_c, 0, 64, 0
2, 10171, Note_on_c, 0, 74, 0
2, 10224, Note_on_c, 0, 79, 83
2, 10236, Note_on_c, 0, 79, 0
2, 10236, Note_on_c, 0, 75, 83
2, 10251, Note_on_c, 0, 75, 0
2, 10272, Note_on_c, 0, 75, 83
2, 10284, Note_on_c, 0, 75, 0
2, 10284, Note_on_c, 0, 70, 83
2, 10299, Note_on_c, 0, 70, 0
2, 10320, Note_on_c, 0, 70, 83
2, 10332, Note_on_c, 0, 70, 0
2, 10332, Note_on_c, 0, 67, 83
2, 10347, Note_on_c, 0, 67, 0
2, 10416, Note_on_c, 0, 72, 83
2, 10428, Note_on_c, 0, 72, 0
2, 10428, Note_on_c, 0, 68, 83
2, 10443, Note_on_c, 0, 68, 0
2, 10464, Note_on_c, 0, 68, 83
2, 10476, Note_on_c, 0, 68, 0
2, 10476, Note_on_c, 0, 65, 83
2, 10491, Note_on_c, 0, 65, 0
2, 10512, Note_on_c, 0, 65, 83
2, 10524, Note_on_c, 0, 65, 0
2, 10524, Note_on_c, 0, 60, 83
2, 10539, Note_on_c, 0, 60, 0
2, 10560, Note_on_c, 0, 63, 83
2, 10679, Note_on_c, 0, 63, 0
2, 10680, Note_on_c, 0, 62, 83
2, 10703, Note_on_c, 0, 62, 0
2, 10704, Note_on_c, 0, 68, 83
2, 10719, Note_on_c, 0, 68, 0
2, 10720, Note_on_c, 0, 65, 83
2, 10735, Note_on_c, 0, 65, 0
2, 10736, Note_on_c, 0, 62, 83
2, 10751, Note_on_c, 0, 62, 0
2, 10776, Note_on_c, 0, 75, 83
2, 10799, Note_on_c, 0, 75, 0
2, 10800, Note_on_c, 0, 77, 83
2, 10806, Note_on_c, 0, 77, 0
2, 10806, Note_on_c, 0, 75, 83
2, 10812, Note_on_c, 0, 75, 0
2, 10812, Note_on_c, 0, 74, 83
2, 10818, Note_on_c, 0, 74, 0
2, 10818, Note_on_c, 0, 75, 83
2, 10824, Note_on_c, 0, 75, 0
2, 10824, Note_on_c, 0, 75, 83
2, 10834, Note_on_c, 0, 75, 0
2, 10836, Note_on_c, 0, 79, 83
2, 10848, Note_on_c, 0, 79, 0
2, 10848, Note_on_c, 0, 70, 83
2, 10882, Note_on_c, 0, 70, 0
2, 10884, Note_on_c, 0, 70, 83
2, 10896, Note_on_c, 0, 70, 0
2, 10896, Note_on_c, 0, 72, 83
2, 10902, Note_on_c, 0, 72, 0
2, 10902, Note_on_c, 0, 70, 83
2, 10908, Note_on_c, 0, 70, 0
2, 10908, Note_on_c, 0, 68, 83
2, 10914, Note_on_c, 0, 68, 0
2, 10914, Note_on_c, 0, 70, 83
2, 10920, Note_on_c, 0, 70, 0
2, 10920, Note_on_c, 0, 70, 83
2, 10930, Note_on_c, 0, 70, 0
2, 10932, Note_on_c, 0, 75, 83
2, 10944, Note_on_c, 0, 75, 0
2, 10944, Note_on_c, 0, 65, 83
2, 10978, Note_on_c, 0, 65, 0
2, 10980, Note_on_c, 0, 65, 83
2, 10992, Note_on_c, 0, 65, 0
2, 10992, Note_on_c, 0, 67, 83
2, 10998, Note_on_c, 0, 67, 0
2, 10998, Note_on_c, 0, 65, 83
2, 11004, Note_on_c, 0, 65, 0
2, 11004, Note_on_c, 0, 63, 83
2, 11010, Note_on_c, 0, 63, 0
2, 11010, Note_on_c, 0, 65, 83
2, 11016, Note_on_c, 0, 65, 0
2, 11016, Note_on_c, 0, 65, 83
2, 11026, Note_on_c, 0, 65, 0
2, 11028, Note_on_c, 0, 72, 83
2, 11040, Note_on_c, 0, 72, 0
2, 11040, Note_on_c, 0, 60, 83
2, 11074, Note_on_c, 0, 60, 0
2, 11076, Note_on_c, 0, 60, 83
2, 11088, Note_on_c, 0, 60, 0
2, 11088, Note_on_c, 0, 62, 83
2, 11094, Note_on_c, 0, 62, 0
2, 11094, Note_on_c, 0, 60, 83
2, 11100, Note_on_c, 0, 60, 0
2, 11100, Note_on_c, 0, 58, 83
2, 11106, Note_on_c, 0, 58, 0
2, 11106, Note_on_c, 0, 60, 83
2, 11112, Note_on_c, 0, 60, 0
2, 11112, Note_on_c, 0, 60, 83
2, 11122, Note_on_c, 0, 60, 0
2, 11124, Note_on_c, 0, 68, 83
2, 11136, Note_on_c, 0, 68, 0
2, 11136, Note_on_c, 0, 63, 83
2, 11255, Note_on_c, 0, 63, 0
2, 11256, Note_on_c, 0, 62, 83
2, 11279, Note_on_c, 0, 62, 0
2, 11280, Note_on_c, 0, 68, 83
2, 11295, Note_on_c, 0, 68, 0
2, 11296, Note_on_c, 0, 65, 83
2, 11311, Note_on_c, 0, 65, 0
2, 11312, Note_on_c, 0, 62, 83
2, 11327, Note_on_c, 0, 62, 0
2, 11328, Note_on_c, 0, 70, 83
2, 11439, Note_on_c, 0, 70, 0
2, 11440, Note_on_c, 0, 67, 82
2, 11455, Note_on_c, 0, 67, 0
2, 11456, Note_on_c, 0, 63, 82
2, 11471, Note_on_c, 0, 63, 0
2, 11472, Note_on_c, 0, 68, 81
2, 11487, Note_on_c, 0, 68, 0
2, 11488, Note_on_c, 0, 65, 81
2, 11503, Note_on_c, 0, 65, 0
2, 11504, Note_on_c, 0, 62, 80
2, 11519, Note_on_c, 0, 62, 0
2, 11520, Note_on_c, 0, 70, 68
2, 11631, Note_on_c, 0, 70, 0
2, 11632, Note_on_c, 0, 67, 68
2, 11647, Note_on_c, 0, 67, 0
2, 11648, Note_on_c, 0, 63, 69
2, 11663, Note_on_c, 0, 63, 0
2, 11664, Note_on_c, 0, 68, 70
2, 11679, Note_on_c, 0, 68, 0
2, 11680, Note_on_c, 0, 65, 71
2, 11695, Note_on_c, 0, 65, 0
2, 11696, Note_on_c, 0, 62, 71
2, 11711, Note_on_c, 0, 62, 0
2, 11712, Note_on_c, 0, 70, 83
2, 11823, Note_on_c, 0, 70, 0
2, 11824, Note_on_c, 0, 67, 83
2, 11839, Note_on_c, 0, 67, 0
2, 11840, Note_on_c, 0, 63, 83
2, 11855, Note_on_c, 0, 63, 0
2, 11856, Note_on_c, 0, 72, 83
2, 11871, Note_on_c, 0, 72, 0
2, 11872, Note_on_c, 0, 68, 83
2, 11887, Note_on_c, 0, 68, 0
2, 11888, Note_on_c, 0, 65, 83
2, 11903, Note_on_c, 0, 65, 0
2, 11904, Note_on_c, 0, 74, 83
2, 11919, Note_on_c, 0, 74, 0
2, 11920, Note_on_c, 0, 68, 83
2, 11935, Note_on_c, 0, 68, 0
2, 11936, Note_on_c, 0, 65, 83
2, 11951, Note_on_c, 0, 65, 0
2, 11952, Note_on_c, 0, 75, 83
2, 11967, Note_on_c, 0, 75, 0
2, 11968, Note_on_c, 0, 70, 84
2, 11983, Note_on_c, 0, 70, 0
2, 11984, Note_on_c, 0, 67, 84
2, 11999, Note_on_c, 0, 67, 0
2, 12000, Note_on_c, 0, 77, 84
2, 12015, Note_on_c, 0, 77, 0
2, 12016, Note_on_c, 0, 74, 85
2, 12031, Note_on_c, 0, 74, 0
2, 12032, Note_on_c, 0, 70, 85
2, 12047, Note_on_c, 0, 70, 0
2, 12048, Note_on_c, 0, 79, 85
2, 12063, Note_on_c, 0, 79, 0
2, 12064, Note_on_c, 0, 75, 86
2, 12079, Note_on_c, 0, 75, 0
2, 12080, Note_on_c, 0, 70, 86
2, 12095, Note_on_c, 0, 70, 0
2, 12096, Note_on_c, 0, 80, 88
2, 12135, Note_on_c, 0, 80, 0
2, 12432, Note_on_c, 0, 80, 68
2, 12444, Note_on_c, 0, 80, 0
2, 12444, Note_on_c, 0, 79, 68
2, 12456, Note_on_c, 0, 79, 0
2, 12456, Note_on_c, 0, 77, 68
2, 12468, Note_on_c, 0, 77, 0
2, 12468, Note_on_c, 0, 75, 68
2, 12480, Note_on_c, 0, 75, 0
2, 12480, Note_on_c, 0, 74, 69
2, 12500, Note_on_c, 0, 74, 0
2, 12624, Note_on_c, 0, 86, 72
2, 12636, Note_on_c, 0, 86, 0
2, 12636, Note_on_c, 0, 84, 72
2, 12648, Note_on_c, 0, 84, 0
2, 12648, Note_on_c, 0, 82, 72
2, 12660, Note_on_c, 0, 82, 0
2, 12660, Note_on_c, 0, 80, 73
2, 12672, Note_on_c, 0, 80, 0
2, 12672, Note_on_c, 0, 79, 73
2, 12692, Note_on_c, 0, 79, 0
2, 12816, Note_on_c, 0, 80, 76
2, 12828, Note_on_c, 0, 80, 0
2, 12828, Note_on_c, 0, 79, 76
2, 12840, Note_on_c, 0, 79, 0
2, 12840, Note_on_c, 0, 77, 77
2, 12852, Note_on_c, 0, 77, 0
2, 12852, Note_on_c, 0, 75, 77
2, 12864, Note_on_c, 0, 75, 0
2, 12864, Note_on_c, 0, 74, 77
2, 12884, Note_on_c, 0, 74, 0
2, 13008, Note_on_c, 0, 86, 80
2, 13020, Note_on_c, 0, 86, 0
2, 13020, Note_on_c, 0, 84, 81
2, 13032, Note_on_c, 0, 84, 0
2, 13032, Note_on_c, 0, 82, 81
2, 13044, Note_on_c, 0, 82, 0
2, 13044, Note_on_c, 0, 80, 81
2, 13056, Note_on_c, 0, 80, 0
2, 13056, Note_on_c, 0, 79, 81
2, 13076, Note_on_c, 0, 79, 0
2, 13104, Note_on_c, 0, 80, 83
2, 13116, Note_on_c, 0, 80, 0
2, 13116, Note_on_c, 0, 79, 83
2, 13128, Note_on_c, 0, 79, 0
2, 13128, Note_on_c, 0, 77, 83
2, 13140, Note_on_c, 0, 77, 0
2, 13140, Note_on_c, 0, 75, 83
2, 13152, Note_on_c, 0, 75, 0
2, 13152, Note_on_c, 0, 74, 83
2, 13172, Note_on_c, 0, 74, 0
2, 13200, Note_on_c, 0, 86, 83
2, 13212, Note_on_c, 0, 86, 0
2, 13212, Note_on_c, 0, 84, 83
2, 13224, Note_on_c, 0, 84, 0
2, 13224, Note_on_c, 0, 82, 83
2, 13236, Note_on_c, 0, 82, 0
2, 13236, Note_on_c, 0, 80, 83
2, 13248, Note_on_c, 0, 80, 0
2, 13248, Note_on_c, 0, 79, 83
2, 13268, Note_on_c, 0, 79, 0
2, 13296, Note_on_c, 0, 80, 83
2, 13308, Note_on_c, 0, 80, 0
2, 13308, Note_on_c, 0, 79, 83
2, 13320, Note_on_c, 0, 79, 0
2, 13320, Note_on_c, 0, 77, 83
2, 13332, Note_on_c, 0, 77, 0
2, 13332, Note_on_c, 0, 75, 83
2, 13344, Note_on_c, 0, 75, 0
2, 13344, Note_on_c, 0, 74, 83
2, 13364, Note_on_c, 0, 74, 0
2, 13392, Note_on_c, 0, 86, 83
2, 13404, Note_on_c, 0, 86, 0
2, 13404, Note_on_c, 0, 84, 83
2, 13416, Note_on_c, 0, 84, 0
2, 13416, Note_on_c, 0, 82, 83
2, 13428, Note_on_c, 0, 82, 0
2, 13428, Note_on_c, 0, 80, 83
2, 13440, Note_on_c, 0, 80, 0
2, 13440, Note_on_c, 0, 79, 83
2, 13460, Note_on_c, 0, 79, 0
2, 13488, Note_on_c, 0, 87, 83
2, 13503, Note_on_c, 0, 87, 0
2, 13504, Note_on_c, 0, 86, 83
2, 13519, Note_on_c, 0, 86, 0
2, 13520, Note_on_c, 0, 84, 83
2, 13535, Note_on_c, 0, 84, 0
2, 13536, Note_on_c, 0, 82, 83
2, 13551, Note_on_c, 0, 82, 0
2, 13552, Note_on_c, 0, 80, 83
2, 13567, Note_on_c, 0, 80, 0
2, 13568, Note_on_c, 0, 79, 83
2, 13583, Note_on_c, 0, 79, 0
2, 13584, Note_on_c, 0, 77, 83
2, 13599, Note_on_c, 0, 77, 0
2, 13600, Note_on_c, 0, 75, 83
2, 13615, Note_on_c, 0, 75, 0
2, 13616, Note_on_c, 0, 74, 83
2, 13631, Note_on_c, 0, 74, 0
2, 13632, Note_on_c, 0, 72, 83
2, 13652, Note_on_c, 0, 72, 0
2, 13704, Note_on_c, 0, 76, 83
2, 13727, Note_on_c, 0, 76, 0
2, 13728, Note_on_c, 0, 77, 83
2, 13751, Note_on_c, 0, 77, 0
2, 13752, Note_on_c, 0, 78, 83
2, 13775, Note_on_c, 0, 78, 0
2, 13776, Note_on_c, 0, 79, 84
2, 13799, Note_on_c, 0, 79, 0
2, 13800, Note_on_c, 0, 80, 84
2, 13823, Note_on_c, 0, 80, 0
2, 13824, Note_on_c, 0, 81, 85
2, 13847, Note_on_c, 0, 81, 0
2, 13848, Note_on_c, 0, 82, 86
2, 13871, Note_on_c, 0, 82, 0
2, 13872, Note_on_c, 0, 83, 86
2, 13895, Note_on_c, 0, 83, 0
2, 13896, Note_on_c, 0, 84, 87
2, 13919, Note_on_c, 0, 84, 0
2, 13920, Note_on_c, 0, 82, 88
2, 13943, Note_on_c, 0, 82, 0
2, 13944, Note_on_c, 0, 80, 87
2, 13967, Note_on_c, 0, 80, 0
2, 13968, Note_on_c, 0, 79, 86
2, 13991, Note_on_c, 0, 79, 0
2, 13992, Note_on_c, 0, 77, 86
2, 14015, Note_on_c, 0, 77, 0
2, 14016, Note_on_c, 0, 75, 85
2, 14135, Note_on_c, 0, 75, 0
2, 14136, Note_on_c, 0, 74, 83
2, 14159, Note_on_c, 0, 74, 0
2, 14160, Note_on_c, 0, 80, 83
2, 14175, Note_on_c, 0, 80, 0
2, 14176, Note_on_c, 0, 77, 83
2, 14191, Note_on_c, 0, 77, 0
2, 14192, Note_on_c, 0, 74, 83
2, 14207, Note_on_c, 0, 74, 0
2, 14208, Note_on_c, 0, 75, 83
2, 14255, Note_on_c, 0, 75, 0
2, 14304, Note_on_c, 0, 70, 74
2, 14304, Note_on_c, 0, 67, 74
2, 14371, Note_on_c, 0, 70, 0
2, 14371, Note_on_c, 0, 67, 0
2, 14376, Note_on_c, 0, 74, 74
2, 14382, Note_on_c, 0, 74, 0
2, 14382, Note_on_c, 0, 72, 74
2, 14382, Note_on_c, 0, 68, 74
2, 14399, Note_on_c, 0, 72, 0
2, 14399, Note_on_c, 0, 68, 0
2, 14400, Note_on_c, 0, 70, 74
2, 14400, Note_on_c, 0, 67, 74
2, 14489, Note_on_c, 0, 70, 0
2, 14489, Note_on_c, 0, 67, 0
2, 14592, Note_on_c, 0, 79, 74
2, 14592, Note_on_c, 0, 75, 74
2, 14736, Note_on_c, 0, 79, 0
2, 14736, Note_on_c, 0, 75, 0
2, 14736, Note_on_c, 0, 77, 74
2, 14736, Note_on_c, 0, 74, 74
2, 14781, Note_on_c, 0, 77, 0
2, 14781, Note_on_c, 0, 74, 0
2, 14784, Note_on_c, 0, 80, 74
2, 14784, Note_on_c, 0, 77, 74
2, 14928, Note_on_c, 0, 80, 0
2, 14928, Note_on_c, 0, 77, 0
2, 14928, Note_on_c, 0, 79, 74
2, 14928, Note_on_c, 0, 75, 74
2, 14973, Note_on_c, 0, 79, 0
2, 14973, Note_on_c, 0, 75, 0
2, 14976, Note_on_c, 0, 77, 74
2, 14976, Note_on_c, 0, 68, 74
2, 15021, Note_on_c, 0, 77, 0
2, 15021, Note_on_c, 0, 68, 0
2, 15024, Note_on_c, 0, 75, 75
2, 15024, Note_on_c, 0, 67, 75
2, 15069, Note_on_c, 0, 75, 0
2, 15069, Note_on_c, 0, 67, 0
2, 15072, Note_on_c, 0, 74, 76
2, 15072, Note_on_c, 0, 65, 76
2, 15117, Note_on_c, 0, 74, 0
2, 15117, Note_on_c, 0, 65, 0
2, 15120, Note_on_c, 0, 72, 77
2, 15120, Note_on_c, 0, 63, 77
2, 15165, Note_on_c, 0, 72, 0
2, 15165, Note_on_c, 0, 63, 0
2, 15168, Note_on_c, 0, 71, 79
2, 15174, Note_on_c, 0, 71, 0
2, 15174, Note_on_c, 0, 72, 79
2, 15180, Note_on_c, 0, 72, 0
2, 15180, Note_on_c, 0, 74, 79
2, 15186, Note_on_c, 0, 74, 0
2, 15186, Note_on_c, 0, 72, 79
2, 15264, Note_on_c, 0, 72, 0
2, 15264, Note_on_c, 0, 71, 75
2, 15309, Note_on_c, 0, 71, 0
2, 15360, Note_on_c, 0, 67, 74
2, 15366, Note_on_c, 0, 67, 0
2, 15366, Note_on_c, 0, 68, 74
2, 15372, Note_on_c, 0, 68, 0
2, 15372, Note_on_c, 0, 70, 74
2, 15378, Note_on_c, 0, 70, 0
2, 15378, Note_on_c, 0, 68, 74
2, 15456, Note_on_c, 0, 68, 0
2, 15456, Note_on_c, 0, 67, 74
2, 15476, Note_on_c, 0, 67, 0
2, 15504, Note_on_c, 0, 72, 74
2, 15549, Note_on_c, 0, 72, 0
2, 15552, Note_on_c, 0, 71, 74
2, 15558, Note_on_c, 0, 71, 0
2, 15558, Note_on_c, 0, 72, 74
2, 15564, Note_on_c, 0, 72, 0
2, 15564, Note_on_c, 0, 74, 74
2, 15570, Note_on_c, 0, 74, 0
2, 15570, Note_on_c, 0, 72, 74
2, 15648, Note_on_c, 0, 72, 0
2, 15648, Note_on_c, 0, 71, 74
2, 15658, Note_on_c, 0, 71, 0
2, 15672, Note_on_c, 0, 80, 74
2, 15695, Note_on_c, 0, 80, 0
2, 15696, Note_on_c, 0, 79, 74
2, 15719, Note_on_c, 0, 79, 0
2, 15720, Note_on_c, 0, 77, 74
2, 15743, Note_on_c, 0, 77, 0
2, 15744, Note_on_c, 0, 77, 74
2, 15767, Note_on_c, 0, 77, 0
2, 15768, Note_on_c, 0, 75, 74
2, 15791, Note_on_c, 0, 75, 0
2, 15792, Note_on_c, 0, 74, 74
2, 15798, Note_on_c, 0, 74, 0
2, 15798, Note_on_c, 0, 75, 74
2, 15804, Note_on_c, 0, 75, 0
2, 15804, Note_on_c, 0, 74, 74
2, 15815, Note_on_c, 0, 74, 0
2, 15816, Note_on_c, 0, 72, 74
2, 15839, Note_on_c, 0, 72, 0
2, 15840, Note_on_c, 0, 71, 74
2, 15885, Note_on_c, 0, 71, 0
2, 15888, Note_on_c, 0, 72, 76
2, 15933, Note_on_c, 0, 72, 0
2, 15936, Note_on_c, 0, 75, 79
2, 16003, Note_on_c, 0, 75, 0
2, 16008, Note_on_c, 0, 77, 76
2, 16020, Note_on_c, 0, 77, 0
2, 16020, Note_on_c, 0, 75, 76
2, 16032, Note_on_c, 0, 75, 0
2, 16032, Note_on_c, 0, 74, 75
2, 16077, Note_on_c, 0, 74, 0
2, 16128, Note_on_c, 0, 67, 74
2, 16128, Note_on_c, 0, 63, 74
2, 16272, Note_on_c, 0, 67, 0
2, 16272, Note_on_c, 0, 63, 0
2, 16272, Note_on_c, 0, 65, 74
2, 16272, Note_on_c, 0, 62, 74
2, 16317, Note_on_c, 0, 65, 0
2, 16317, Note_on_c, 0, 62, 0
2, 16320, Note_on_c, 0, 68, 74
2, 16320, Note_on_c, 0, 65, 74
2, 16464, Note_on_c, 0, 68, 0
2, 16464, Note_on_c, 0, 65, 0
2, 16464, Note_on_c, 0, 67, 74
2, 16464, Note_on_c, 0, 63, 74
2, 16509, Note_on_c, 0, 67, 0
2, 16509, Note_on_c, 0, 63, 0
2, 16512, Note_on_c, 0, 72, 74
2, 16642, Note_on_c, 0, 72, 0
2, 16644, Note_on_c, 0, 71, 74
2, 16656, Note_on_c, 0, 71, 0
2, 16656, Note_on_c, 0, 74, 74
2, 16690, Note_on_c, 0, 74, 0
2, 16692, Note_on_c, 0, 72, 74
2, 16704, Note_on_c, 0, 72, 0
2, 16704, Note_on_c, 0, 75, 74
2, 16724, Note_on_c, 0, 75, 0
2, 16800, Note_on_c, 0, 72, 74
2, 16812, Note_on_c, 0, 72, 0
2, 16812, Note_on_c, 0, 74, 74
2, 16824, Note_on_c, 0, 74, 0
2, 16824, Note_on_c, 0, 75, 75
2, 16836, Note_on_c, 0, 75, 0
2, 16836, Note_on_c, 0, 77, 75
2, 16848, Note_on_c, 0, 77, 0
2, 16848, Note_on_c, 0, 79, 76
2, 16860, Note_on_c, 0, 79, 0
2, 16860, Note_on_c, 0, 80, 77
2, 16872, Note_on_c, 0, 80, 0
2, 16872, Note_on_c, 0, 82, 77
2, 16884, Note_on_c, 0, 82, 0
2, 16884, Note_on_c, 0, 84, 78
2, 16896, Note_on_c, 0, 84, 0
2, 16896, Note_on_c, 0, 82, 95
2, 16968, Note_on_c, 0, 82, 0
2, 16968, Note_on_c, 0, 80, 79
2, 16974, Note_on_c, 0, 80, 0
2, 16974, Note_on_c, 0, 82, 79
2, 16980, Note_on_c, 0, 82, 0
2, 16980, Note_on_c, 0, 80, 79
2, 16991, Note_on_c, 0, 80, 0
2, 16992, Note_on_c, 0, 79, 79
2, 17059, Note_on_c, 0, 79, 0
2, 17064, Note_on_c, 0, 84, 79
2, 17087, Note_on_c, 0, 84, 0
2, 17088, Note_on_c, 0, 79, 79
2, 17155, Note_on_c, 0, 79, 0
2, 17160, Note_on_c, 0, 77, 79
2, 17166, Note_on_c, 0, 77, 0
2, 17166, Note_on_c, 0, 79, 79
2, 17172, Note_on_c, 0, 79, 0
2, 17172, Note_on_c, 0, 77, 79
2, 17183, Note_on_c, 0, 77, 0
2, 17184, Note_on_c, 0, 75, 79
2, 17229, Note_on_c, 0, 75, 0
2, 17304, Note_on_c, 0, 73, 79
2, 17327, Note_on_c, 0, 73, 0
2, 17328, Note_on_c, 0, 75, 79
2, 17334, Note_on_c, 0, 75, 0
2, 17334, Note_on_c, 0, 73, 79
2, 17340, Note_on_c, 0, 73, 0
2, 17340, Note_on_c, 0, 72, 79
2, 17346, Note_on_c, 0, 72, 0
2, 17346, Note_on_c, 0, 73, 79
2, 17352, Note_on_c, 0, 73, 0
2, 17352, Note_on_c, 0, 80, 79
2, 17375, Note_on_c, 0, 80, 0
2, 17376, Note_on_c, 0, 72, 79
2, 17421, Note_on_c, 0, 72, 0
2, 17424, Note_on_c, 0, 71, 79
2, 17430, Note_on_c, 0, 71, 0
2, 17430, Note_on_c, 0, 72, 79
2, 17436, Note_on_c, 0, 72, 0
2, 17436, Note_on_c, 0, 71, 79
2, 17471, Note_on_c, 0, 71, 0
2, 17472, Note_on_c, 0, 72, 79
2, 17511, Note_on_c, 0, 72, 0
2, 17664, Note_on_c, 0, 63, 99
2, 17783, Note_on_c, 0, 63, 0
2, 17784, Note_on_c, 0, 63, 83
2, 17807, Note_on_c, 0, 63, 0
2, 17808, Note_on_c, 0, 65, 83
2, 17820, Note_on_c, 0, 65, 0
2, 17820, Note_on_c, 0, 63, 83
2, 17832, Note_on_c, 0, 63, 0
2, 17832, Note_on_c, 0, 62, 83
2, 17844, Note_on_c, 0, 62, 0
2, 17844, Note_on_c, 0, 63, 83
2, 17856, Note_on_c, 0, 63, 0
2, 17856, Note_on_c, 0, 68, 83
2, 17879, Note_on_c, 0, 68, 0
2, 17880, Note_on_c, 0, 63, 83
2, 17903, Note_on_c, 0, 63, 0
2, 17904, Note_on_c, 0, 65, 83
2, 17916, Note_on_c, 0, 65, 0
2, 17916, Note_on_c, 0, 63, 83
2, 17928, Note_on_c, 0, 63, 0
2, 17928, Note_on_c, 0, 62, 83
2, 17940, Note_on_c, 0, 62, 0
2, 17940, Note_on_c, 0, 63, 83
2, 17952, Note_on_c, 0, 63, 0
2, 17952, Note_on_c, 0, 70, 83
2, 17975, Note_on_c, 0, 70, 0
2, 17976, Note_on_c, 0, 63, 83
2, 17999, Note_on_c, 0, 63, 0
2, 18000, Note_on_c, 0, 65, 83
2, 18012, Note_on_c, 0, 65, 0
2, 18012, Note_on_c, 0, 63, 83
2, 18024, Note_on_c, 0, 63, 0
2, 18024, Note_on_c, 0, 62, 83
2, 18036, Note_on_c, 0, 62, 0
2, 18036, Note_on_c, 0, 63, 83
2, 18048, Note_on_c, 0, 63, 0
2, 18048, Note_on_c, 0, 72, 83
2, 18093, Note_on_c, 0, 72, 0
2, 18144, Note_on_c, 0, 74, 74
2, 18167, Note_on_c, 0, 74, 0
2, 18168, Note_on_c, 0, 75, 75
2, 18191, Note_on_c, 0, 75, 0
2, 18192, Note_on_c, 0, 77, 76
2, 18215, Note_on_c, 0, 77, 0
2, 18216, Note_on_c, 0, 75, 77
2, 18239, Note_on_c, 0, 75, 0
2, 18240, Note_on_c, 0, 73, 79
2, 18263, Note_on_c, 0, 73, 0
2, 18264, Note_on_c, 0, 72, 77
2, 18287, Note_on_c, 0, 72, 0
2, 18288, Note_on_c, 0, 70, 76
2, 18311, Note_on_c, 0, 70, 0
2, 18312, Note_on_c, 0, 68, 75
2, 18335, Note_on_c, 0, 68, 0
2, 18336, Note_on_c, 0, 67, 74
2, 18356, Note_on_c, 0, 67, 0
2, 18384, Note_on_c, 0, 70, 83
2, 18404, Note_on_c, 0, 70, 0
2, 18432, Note_on_c, 0, 68, 68
2, 18452, Note_on_c, 0, 68, 0
2, 18480, Note_on_c, 0, 73, 83
2, 18500, Note_on_c, 0, 73, 0
2, 18528, Note_on_c, 0, 72, 68
2, 18548, Note_on_c, 0, 72, 0
2, 18576, Note_on_c, 0, 77, 83
2, 18596, Note_on_c, 0, 77, 0
2, 18624, Note_on_c, 0, 75, 68
2, 18743, Note_on_c, 0, 75, 0
2, 18744, Note_on_c, 0, 73, 68
2, 18767, Note_on_c, 0, 73, 0
2, 18768, Note_on_c, 0, 72, 68
2, 18791, Note_on_c, 0, 72, 0
2, 18792, Note_on_c, 0, 70, 68
2, 18815, Note_on_c, 0, 70, 0
2, 18816, Note_on_c, 0, 70, 83
2, 18912, Note_on_c, 0, 70, 0
2, 18912, Note_on_c, 0, 69, 83
2, 18935, Note_on_c, 0, 69, 0
2, 18936, Note_on_c, 0, 65, 83
2, 18959, Note_on_c, 0, 65, 0
2, 18960, Note_on_c, 0, 67, 83
2, 18972, Note_on_c, 0, 67, 0
2, 18972, Note_on_c, 0, 65, 83
2, 18984, Note_on_c, 0, 65, 0
2, 18984, Note_on_c, 0, 63, 83
2, 18996, Note_on_c, 0, 63, 0
2, 18996, Note_on_c, 0, 65, 83
2, 19008, Note_on_c, 0, 65, 0
2, 19008, Note_on_c, 0, 70, 83
2, 19031, Note_on_c, 0, 70, 0
2, 19032, Note_on_c, 0, 65, 83
2, 19055, Note_on_c, 0, 65, 0
2, 19056, Note_on_c, 0, 67, 83
2, 19068, Note_on_c, 0, 67, 0
2, 19068, Note_on_c, 0, 65, 83
2, 19080, Note_on_c, 0, 65, 0
2, 19080, Note_on_c, 0, 63, 83
2, 19092, Note_on_c, 0, 63, 0
2, 19092, Note_on_c, 0, 65, 83
2, 19104, Note_on_c, 0, 65, 0
2, 19104, Note_on_c, 0, 72, 83
2, 19127, Note_on_c, 0, 72, 0
2, 19128, Note_on_c, 0, 65, 83
2, 19151, Note_on_c, 0, 65, 0
2, 19152, Note_on_c, 0, 67, 83
2, 19164, Note_on_c, 0, 67, 0
2, 19164, Note_on_c, 0, 65, 83
2, 19176, Note_on_c, 0, 65, 0
2, 19176, Note_on_c, 0, 63, 83
2, 19188, Note_on_c, 0, 63, 0
2, 19188, Note_on_c, 0, 65, 83
2, 19200, Note_on_c, 0, 65, 0
2, 19200, Note_on_c, 0, 74, 83
2, 19245, Note_on_c, 0, 74, 0
2, 19296, Note_on_c, 0, 76, 74
2, 19319, Note_on_c, 0, 76, 0
2, 19320, Note_on_c, 0, 77, 75
2, 19343, Note_on_c, 0, 77, 0
2, 19344, Note_on_c, 0, 79, 76
2, 19367, Note_on_c, 0, 79, 0
2, 19368, Note_on_c, 0, 77, 77
2, 19391, Note_on_c, 0, 77, 0
2, 19392, Note_on_c, 0, 75, 79
2, 19415, Note_on_c, 0, 75, 0
2, 19416, Note_on_c, 0, 74, 77
2, 19439, Note_on_c, 0, 74, 0
2, 19440, Note_on_c, 0, 72, 76
2, 19463, Note_on_c, 0, 72, 0
2, 19464, Note_on_c, 0, 70, 75
2, 19487, Note_on_c, 0, 70, 0
2, 19488, Note_on_c, 0, 69, 74
2, 19508, Note_on_c, 0, 69, 0
2, 19536, Note_on_c, 0, 72, 83
2, 19556, Note_on_c, 0, 72, 0
2, 19584, Note_on_c, 0, 70, 68
2, 19604, Note_on_c, 0, 70, 0
2, 19632, Note_on_c, 0, 75, 83
2, 19652, Note_on_c, 0, 75, 0
2, 19680, Note_on_c, 0, 74, 68
2, 19700, Note_on_c, 0, 74, 0
2, 19728, Note_on_c, 0, 79, 83
2, 19748, Note_on_c, 0, 79, 0
2, 19776, Note_on_c, 0, 77, 68
2, 19865, Note_on_c, 0, 77, 0
2, 19872, Note_on_c, 0, 75, 68
2, 19895, Note_on_c, 0, 75, 0
2, 19896, Note_on_c, 0, 74, 68
2, 19919, Note_on_c, 0, 74, 0
2, 19920, Note_on_c, 0, 72, 68
2, 19943, Note_on_c, 0, 72, 0
2, 19944, Note_on_c, 0, 70, 68
2, 19967, Note_on_c, 0, 70, 0
2, 19968, Note_on_c, 0, 68, 74
2, 19968, Note_on_c, 0, 65, 74
2, 20205, Note_on_c, 0, 68, 0
2, 20205, Note_on_c, 0, 65, 0
2, 20208, Note_on_c, 0, 68, 74
2, 20208, Note_on_c, 0, 65, 74
2, 20253, Note_on_c, 0, 68, 0
2, 20253, Note_on_c, 0, 65, 0
2, 20256, Note_on_c, 0, 70, 74
2, 20256, Note_on_c, 0, 67, 74
2, 20279, Note_on_c, 0, 70, 0
2, 20279, Note_on_c, 0, 67, 0
2, 20280, Note_on_c, 0, 68, 74
2, 20280, Note_on_c, 0, 65, 74
2, 20303, Note_on_c, 0, 68, 0
2, 20303, Note_on_c, 0, 65, 0
2, 20304, Note_on_c, 0, 67, 74
2, 20304, Note_on_c, 0, 63, 74
2, 20327, Note_on_c, 0, 67, 0
2, 20327, Note_on_c, 0, 63, 0
2, 20328, Note_on_c, 0, 65, 74
2, 20328, Note_on_c, 0, 62, 74
2, 20351, Note_on_c, 0, 65, 0
2, 20351, Note_on_c, 0, 62, 0
2, 20352, Note_on_c, 0, 66, 90
2, 20352, Note_on_c, 0, 62, 90
2, 20448, Note_on_c, 0, 66, 0
2, 20448, Note_on_c, 0, 62, 0
2, 20448, Note_on_c, 0, 67, 74
2, 20448, Note_on_c, 0, 63, 74
2, 20589, Note_on_c, 0, 67, 0
2, 20589, Note_on_c, 0, 63, 0
2, 20592, Note_on_c, 0, 82, 74
2, 20592, Note_on_c, 0, 79, 74
2, 20637, Note_on_c, 0, 82, 0
2, 20637, Note_on_c, 0, 79, 0
2, 20640, Note_on_c, 0, 84, 74
2, 20640, Note_on_c, 0, 80, 74
2, 20663, Note_on_c, 0, 84, 0
2, 20663, Note_on_c, 0, 80, 0
2, 20664, Note_on_c, 0, 82, 74
2, 20664, Note_on_c, 0, 79, 74
2, 20687, Note_on_c, 0, 82, 0
2, 20687, Note_on_c, 0, 79, 0
2, 20688, Note_on_c, 0, 80, 74
2, 20688, Note_on_c, 0, 77, 74
2, 20711, Note_on_c, 0, 80, 0
2, 20711, Note_on_c, 0, 77, 0
2, 20712, Note_on_c, 0, 79, 74
2, 20712, Note_on_c, 0, 76, 74
2, 20735, Note_on_c, 0, 79, 0
2, 20735, Note_on_c, 0, 76, 0
2, 20736, Note_on_c, 0, 79, 90
2, 20736, Note_on_c, 0, 76, 90
2, 20832, Note_on_c, 0, 79, 0
2, 20832, Note_on_c, 0, 76, 0
2, 20832, Note_on_c, 0, 80, 74
2, 20832, Note_on_c, 0, 77, 74
2, 20973, Note_on_c, 0, 80, 0
2, 20973, Note_on_c, 0, 77, 0
2, 20976, Note_on_c, 0, 80, 74
2, 20976, Note_on_c, 0, 77, 74
2, 21021, Note_on_c, 0, 80, 0
2, 21021, Note_on_c, 0, 77, 0
2, 21024, Note_on_c, 0, 82, 74
2, 21024, Note_on_c, 0, 78, 74
2, 21047, Note_on_c, 0, 82, 0
2, 21047, Note_on_c, 0, 78, 0
2, 21048, Note_on_c, 0, 80, 74
2, 21048, Note_on_c, 0, 77, 74
2, 21071, Note_on_c, 0, 80, 0
2, 21071, Note_on_c, 0, 77, 0
2, 21072, Note_on_c, 0, 78, 74
2, 21072, Note_on_c, 0, 75, 74
2, 21095, Note_on_c, 0, 78, 0
2, 21095, Note_on_c, 0, 75, 0
2, 21096, Note_on_c, 0, 77, 74
2, 21096, Note_on_c, 0, 74, 74
2, 21119, Note_on_c, 0, 77, 0
2, 21119, Note_on_c, 0, 74, 0
2, 21120, Note_on_c, 0, 78, 68
2, 21120, Note_on_c, 0, 75, 68
2, 21214, Note_on_c, 0, 78, 0
2, 21214, Note_on_c, 0, 75, 0
2, 21216, Note_on_c, 0, 79, 73
2, 21216, Note_on_c, 0, 75, 73
2, 21310, Note_on_c, 0, 79, 0
2, 21310, Note_on_c, 0, 75, 0
2, 21312, Note_on_c, 0, 80, 78
2, 21312, Note_on_c, 0, 75, 78
2, 21406, Note_on_c, 0, 80, 0
2, 21406, Note_on_c, 0, 75, 0
2, 21408, Note_on_c, 0, 81, 83
2, 21408, Note_on_c, 0, 75, 83
2, 21502, Note_on_c, 0, 81, 0
2, 21502, Note_on_c, 0, 75, 0
2, 21552, Control_c, 0, 64, 127
2, 21552, Note_on_c, 0, 74, 83
2, 21575, Note_on_c, 0, 74, 0
2, 21576, Control_c, 0, 64, 0
2, 21576, Note_on_c, 0, 82, 83
2, 21599, Note_on_c, 0, 82, 0
2, 21600, Note_on_c, 0, 80, 83
2, 21623, Note_on_c, 0, 80, 0
2, 21624, Note_on_c, 0, 79, 83
2, 21647, Note_on_c, 0, 79, 0
2, 21648, Note_on_c, 0, 77, 83
2, 21671, Note_on_c, 0, 77, 0
2, 21672, Note_on_c, 0, 75, 83
2, 21695, Note_on_c, 0, 75, 0
2, 21696, Note_on_c, 0, 74, 83
2, 21719, Note_on_c, 0, 74, 0
2, 21720, Note_on_c, 0, 72, 83
2, 21743, Note_on_c, 0, 72, 0
2, 21744, Note_on_c, 0, 70, 83
2, 21767, Note_on_c, 0, 70, 0
2, 21960, Note_on_c, 0, 84, 99
2, 21984, Note_on_c, 0, 84, 0
2, 21984, Note_on_c, 0, 82, 80
2, 22007, Note_on_c, 0, 82, 0
2, 22008, Note_on_c, 0, 80, 78
2, 22031, Note_on_c, 0, 80, 0
2, 22032, Note_on_c, 0, 79, 75
2, 22055, Note_on_c, 0, 79, 0
2, 22056, Note_on_c, 0, 77, 73
2, 22079, Note_on_c, 0, 77, 0
2, 22080, Note_on_c, 0, 76, 70
2, 22103, Note_on_c, 0, 76, 0
2, 22104, Note_on_c, 0, 77, 68
2, 22127, Note_on_c, 0, 77, 0
2, 22128, Note_on_c, 0, 78, 71
2, 22151, Note_on_c, 0, 78, 0
2, 22152, Note_on_c, 0, 77, 75
2, 22175, Note_on_c, 0, 77, 0
2, 22176, Note_on_c, 0, 79, 79
2, 22199, Note_on_c, 0, 79, 0
2, 22200, Note_on_c, 0, 77, 76
2, 22223, Note_on_c, 0, 77, 0
2, 22224, Note_on_c, 0, 80, 73
2, 22247, Note_on_c, 0, 80, 0
2, 22248, Note_on_c, 0, 77, 70
2, 22271, Note_on_c, 0, 77, 0
2, 22272, Note_on_c, 0, 76, 68
2, 22295, Note_on_c, 0, 76, 0
2, 22296, Note_on_c, 0, 77, 71
2, 22319, Note_on_c, 0, 77, 0
2, 22320, Note_on_c, 0, 78, 75
2, 22343, Note_on_c, 0, 78, 0
2, 22344, Note_on_c, 0, 77, 79
2, 22367, Note_on_c, 0, 77, 0
2, 22368, Note_on_c, 0, 79, 76
2, 22391, Note_on_c, 0, 79, 0
2, 22392, Note_on_c, 0, 77, 74
2, 22415, Note_on_c, 0, 77, 0
2, 22416, Note_on_c, 0, 80, 72
2, 22439, Note_on_c, 0, 80, 0
2, 22440, Note_on_c, 0, 77, 70
2, 22463, Note_on_c, 0, 77, 0
2, 22464, Note_on_c, 0, 76, 68
2, 22487, Note_on_c, 0, 76, 0
2, 22488, Note_on_c, 0, 77, 70
2, 22511, Note_on_c, 0, 77, 0
2, 22512, Note_on_c, 0, 78, 73
2, 22535, Note_on_c, 0, 78, 0
2, 22536, Note_on_c, 0, 77, 76
2, 22559, Note_on_c, 0, 77, 0
2, 22560, Note_on_c, 0, 79, 79
2, 22583, Note_on_c, 0, 79, 0
2, 22584, Note_on_c, 0, 77, 76
2, 22607, Note_on_c, 0, 77, 0
2, 22608, Note_on_c, 0, 80, 73
2, 22631, Note_on_c, 0, 80, 0
2, 22632, Note_on_c, 0, 77, 70
2, 22655, Note_on_c, 0, 77, 0
2, 22656, Note_on_c, 0, 75, 68
2, 22863, Note_on_c, 0, 75, 0
2, 22864, Note_on_c, 0, 74, 83
2, 22879, Note_on_c, 0, 74, 0
2, 22880, Note_on_c, 0, 75, 83
2, 22895, Note_on_c, 0, 75, 0
2, 22896, Note_on_c, 0, 77, 83
2, 22911, Note_on_c, 0, 77, 0
2, 22912, Note_on_c, 0, 75, 83
2, 22927, Note_on_c, 0, 75, 0
2, 22928, Note_on_c, 0, 74, 83
2, 22943, Note_on_c, 0, 74, 0
2, 22944, Note_on_c, 0, 80, 83
2, 22959, Note_on_c, 0, 80, 0
2, 22960, Note_on_c, 0, 79, 83
2, 22975, Note_on_c, 0, 79, 0
2, 22976, Note_on_c, 0, 77, 83
2, 22991, Note_on_c, 0, 77, 0
2, 22992, Note_on_c, 0, 84, 83
2, 23007, Note_on_c, 0, 84, 0
2, 23008, Note_on_c, 0, 80, 83
2, 23023, Note_on_c, 0, 80, 0
2, 23024, Note_on_c, 0, 77, 83
2, 23039, Note_on_c, 0, 77, 0
2, 23040, Note_on_c, 0, 75, 83
2, 23247, Note_on_c, 0, 75, 0
2, 23248, Note_on_c, 0, 74, 83
2, 23263, Note_on_c, 0, 74, 0
2, 23264, Note_on_c, 0, 75, 83
2, 23279, Note_on_c, 0, 75, 0
2, 23280, Note_on_c, 0, 77, 83
2, 23295, Note_on_c, 0, 77, 0
2, 23296, Note_on_c, 0, 75, 83
2, 23311, Note_on_c, 0, 75, 0
2, 23312, Note_on_c, 0, 74, 83
2, 23327, Note_on_c, 0, 74, 0
2, 23328, Note_on_c, 0, 80, 83
2, 23343, Note_on_c, 0, 80, 0
2, 23344, Note_on_c, 0, 78, 83
2, 23359, Note_on_c, 0, 78, 0
2, 23360, Note_on_c, 0, 77, 83
2, 23375, Note_on_c, 0, 77, 0
2, 23376, Note_on_c, 0, 83, 83
2, 23391, Note_on_c, 0, 83, 0
2, 23392, Note_on_c, 0, 80, 83
2, 23407, Note_on_c, 0, 80, 0
2, 23408, Note_on_c, 0, 77, 83
2, 23423, Note_on_c, 0, 77, 0
2, 23424, Note_on_c, 0, 75, 83
2, 23749, Note_on_c, 0, 75, 0
2, 23760, Note_on_c, 0, 74, 68
2, 23784, Note_on_c, 0, 74, 0
2, 23784, Note_on_c, 0, 75, 68
2, 23808, Note_on_c, 0, 75, 0
2, 23808, Note_on_c, 0, 77, 68
2, 23832, Note_on_c, 0, 77, 0
2, 23832, Note_on_c, 0, 75, 68
2, 23856, Note_on_c, 0, 75, 0
2, 23856, Note_on_c, 0, 74, 68
2, 23880, Note_on_c, 0, 74, 0
2, 23880, Note_on_c, 0, 80, 68
2, 23904, Note_on_c, 0, 80, 0
2, 23904, Note_on_c, 0, 78, 68
2, 23928, Note_on_c, 0, 78, 0
2, 23928, Note_on_c, 0, 77, 68
2, 23952, Note_on_c, 0, 77, 0
2, 23952, Note_on_c, 0, 83, 68
2, 24092, Note_on_c, 0, 83, 0
2, 24096, Note_on_c, 0, 82, 68
2, 24116, Note_on_c, 0, 82, 0
2, 24116, Note_on_c, 0, 80, 68
2, 24135, Note_on_c, 0, 80, 0
2, 24135, Note_on_c, 0, 78, 68
2, 24154, Note_on_c, 0, 78, 0
2, 24154, Note_on_c, 0, 77, 68
2, 24173, Note_on_c, 0, 77, 0
2, 24173, Note_on_c, 0, 75, 68
2, 24332, Note_on_c, 0, 75, 0
2, 24336, Control_c, 0, 64, 127
2, 24336, Note_on_c, 0, 74, 68
2, 24527, Note_on_c, 0, 74, 0
2, 24528, Note_on_c, 0, 74, 68
2, 24576, Control_c, 0, 64, 0
2, 24763, Note_on_c, 0, 74, 0
2, 24816, Note_on_c, 0, 79, 83
2, 24828, Note_on_c, 0, 79, 0
2, 24828, Note_on_c, 0, 75, 83
2, 24843, Note_on_c, 0, 75, 0
2, 24864, Note_on_c, 0, 75, 83
2, 24876, Note_on_c, 0, 75, 0
2, 24876, Note_on_c, 0, 70, 83
2, 24891, Note_on_c, 0, 70, 0
2, 24912, Note_on_c, 0, 70, 83
2, 24924, Note_on_c, 0, 70, 0
2, 24924, Note_on_c, 0, 67, 83
2, 24939, Note_on_c, 0, 67, 0
2, 25008, Note_on_c, 0, 72, 83
2, 25020, Note_on_c, 0, 72, 0
2, 25020, Note_on_c, 0, 68, 83
2, 25035, Note_on_c, 0, 68, 0
2, 25056, Note_on_c, 0, 68, 83
2, 25068, Note_on_c, 0, 68, 0
2, 25068, Note_on_c, 0, 65, 83
2, 25083, Note_on_c, 0, 65, 0
2, 25104, Note_on_c, 0, 65, 83
2, 25116, Note_on_c, 0, 65, 0
2, 25116, Note_on_c, 0, 60, 83
2, 25131, Note_on_c, 0, 60, 0
2, 25152, Note_on_c, 0, 63, 83
2, 25271, Note_on_c, 0, 63, 0
2, 25272, Note_on_c, 0, 62, 83
2, 25295, Note_on_c, 0, 62, 0
2, 25296, Note_on_c, 0, 68, 83
2, 25311, Note_on_c, 0, 68, 0
2, 25312, Note_on_c, 0, 65, 83
2, 25327, Note_on_c, 0, 65, 0
2, 25328, Note_on_c, 0, 62, 83
2, 25343, Note_on_c, 0, 62, 0
2, 25368, Note_on_c, 0, 75, 83
2, 25391, Note_on_c, 0, 75, 0
2, 25392, Note_on_c, 0, 77, 83
2, 25398, Note_on_c, 0, 77, 0
2, 25398, Note_on_c, 0, 75, 83
2, 25404, Note_on_c, 0, 75, 0
2, 25404, Note_on_c, 0, 74, 83
2, 25410, Note_on_c, 0, 74, 0
2, 25410, Note_on_c, 0, 75, 83
2, 25416, Note_on_c, 0, 75, 0
2, 25416, Note_on_c, 0, 75, 83
2, 25426, Note_on_c, 0, 75, 0
2, 25428, Note_on_c, 0, 79, 83
2, 25440, Note_on_c, 0, 79, 0
2, 25440, Note_on_c, 0, 70, 83
2, 25474, Note_on_c, 0, 70, 0
2, 25476, Note_on_c, 0, 70, 83
2, 25488, Note_on_c, 0, 70, 0
2, 25488, Note_on_c, 0, 72, 83
2, 25494, Note_on_c, 0, 72, 0
2, 25494, Note_on_c, 0, 70, 83
2, 25500, Note_on_c, 0, 70, 0
2, 25500, Note_on_c, 0, 68, 83
2, 25506, Note_on_c, 0, 68, 0
2, 25506, Note_on_c, 0, 70, 83
2, 25512, Note_on_c, 0, 70, 0
2, 25512, Note_on_c, 0, 70, 83
2, 25522, Note_on_c, 0, 70, 0
2, 25524, Note_on_c, 0, 75, 83
2, 25536, Note_on_c, 0, 75, 0
2, 25536, Note_on_c, 0, 65, 83
2, 25570, Note_on_c, 0, 65, 0
2, 25572, Note_on_c, 0, 65, 83
2, 25584, Note_on_c, 0, 65, 0
2, 25584, Note_on_c, 0, 67, 83
2, 25590, Note_on_c, 0, 67, 0
2, 25590, Note_on_c, 0, 65, 83
2, 25596, Note_on_c, 0, 65, 0
2, 25596, Note_on_c, 0, 63, 83
2, 25602, Note_on_c, 0, 63, 0
2, 25602, Note_on_c, 0, 65, 83
2, 25608, Note_on_c, 0, 65, 0
2, 25608, Note_on_c, 0, 65, 83
2, 25618, Note_on_c, 0, 65, 0
2, 25620, Note_on_c, 0, 72, 83
2, 25632, Note_on_c, 0, 72, 0
2, 25632, Note_on_c, 0, 60, 83
2, 25666, Note_on_c, 0, 60, 0
2, 25668, Note_on_c, 0, 60, 83
2, 25680, Note_on_c, 0, 60, 0
2, 25680, Note_on_c, 0, 62, 83
2, 25686, Note_on_c, 0, 62, 0
2, 25686, Note_on_c, 0, 60, 83
2, 25692, Note_on_c, 0, 60, 0
2, 25692, Note_on_c, 0, 58, 83
2, 25698, Note_on_c, 0, 58, 0
2, 25698, Note_on_c, 0, 60, 83
2, 25704, Note_on_c, 0, 60, 0
2, 25704, Note_on_c, 0, 60, 83
2, 25714, Note_on_c, 0, 60, 0
2, 25716, Note_on_c, 0, 68, 83
2, 25728, Note_on_c, 0, 68, 0
2, 25728, Note_on_c, 0, 63, 83
2, 25847, Note_on_c, 0, 63, 0
2, 25848, Note_on_c, 0, 62, 83
2, 25871, Note_on_c, 0, 62, 0
2, 25872, Note_on_c, 0, 68, 83
2, 25887, Note_on_c, 0, 68, 0
2, 25888, Note_on_c, 0, 65, 83
2, 25903, Note_on_c, 0, 65, 0
2, 25904, Note_on_c, 0, 62, 83
2, 25919, Note_on_c, 0, 62, 0
2, 25920, Note_on_c, 0, 70, 83
2, 26031, Note_on_c, 0, 70, 0
2, 26032, Note_on_c, 0, 67, 82
2, 26047, Note_on_c, 0, 67, 0
2, 26048, Note_on_c, 0, 63, 82
2, 26063, Note_on_c, 0, 63, 0
2, 26064, Note_on_c, 0, 68, 81
2, 26079, Note_on_c, 0, 68, 0
2, 26080, Note_on_c, 0, 65, 81
2, 26095, Note_on_c, 0, 65, 0
2, 26096, Note_on_c, 0, 62, 80
2, 26111, Note_on_c, 0, 62, 0
2, 26112, Note_on_c, 0, 70, 68
2, 26223, Note_on_c, 0, 70, 0
2, 26224, Note_on_c, 0, 67, 68
2, 26239, Note_on_c, 0, 67, 0
2, 26240, Note_on_c, 0, 63, 69
2, 26255, Note_on_c, 0, 63, 0
2, 26256, Note_on_c, 0, 68, 70
2, 26271, Note_on_c, 0, 68, 0
2, 26272, Note_on_c, 0, 65, 71
2, 26287, Note_on_c, 0, 65, 0
2, 26288, Note_on_c, 0, 62, 71
2, 26303, Note_on_c, 0, 62, 0
2, 26304, Note_on_c, 0, 70, 83
2, 26415, Note_on_c, 0, 70, 0
2, 26416, Note_on_c, 0, 67, 83
2, 26431, Note_on_c, 0, 67, 0
2, 26432, Note_on_c, 0, 63, 83
2, 26447, Note_on_c, 0, 63, 0
2, 26448, Note_on_c, 0, 72, 83
2, 26463, Note_on_c, 0, 72, 0
2, 26464, Note_on_c, 0, 68, 83
2, 26479, Note_on_c, 0, 68, 0
2, 26480, Note_on_c, 0, 65, 83
2, 26495, Note_on_c, 0, 65, 0
2, 26496, Note_on_c, 0, 74, 83
2, 26511, Note_on_c, 0, 74, 0
2, 26512, Note_on_c, 0, 68, 83
2, 26527, Note_on_c, 0, 68, 0
2, 26528, Note_on_c, 0, 65, 83
2, 26543, Note_on_c, 0, 65, 0
2, 26544, Note_on_c, 0, 75, 83
2, 26559, Note_on_c, 0, 75, 0
2, 26560, Note_on_c, 0, 70, 84
2, 26575, Note_on_c, 0, 70, 0
2, 26576, Note_on_c, 0, 67, 84
2, 26591, Note_on_c, 0, 67, 0
2, 26592, Note_on_c, 0, 77, 84
2, 26607, Note_on_c, 0, 77, 0
2, 26608, Note_on_c, 0, 74, 85
2, 26623, Note_on_c, 0, 74, 0
2, 26624, Note_on_c, 0, 70, 85
2, 26639, Note_on_c, 0, 70, 0
2, 26640, Note_on_c, 0, 79, 85
2, 26655, Note_on_c, 0, 79, 0
2, 26656, Note_on_c, 0, 75, 86
2, 26671, Note_on_c, 0, 75, 0
2, 26672, Note_on_c, 0, 70, 86
2, 26687, Note_on_c, 0, 70, 0
2, 26688, Note_on_c, 0, 80, 88
2, 26727, Note_on_c, 0, 80, 0
2, 27024, Note_on_c, 0, 80, 68
2, 27036, Note_on_c, 0, 80, 0
2, 27036, Note_on_c, 0, 79, 68
2, 27048, Note_on_c, 0, 79, 0
2, 27048, Note_on_c, 0, 77, 68
2, 27060, Note_on_c, 0, 77, 0
2, 27060, Note_on_c, 0, 75, 68
2, 27072, Note_on_c, 0, 75, 0
2, 27072, Note_on_c, 0, 74, 69
2, 27092, Note_on_c, 0, 74, 0
2, 27216, Note_on_c, 0, 86, 72
2, 27228, Note_on_c, 0, 86, 0
2, 27228, Note_on_c, 0, 84, 72
2, 27240, Note_on_c, 0, 84, 0
2, 27240, Note_on_c, 0, 82, 72
2, 27252, Note_on_c, 0, 82, 0
2, 27252, Note_on_c, 0, 80, 73
2, 27264, Note_on_c, 0, 80, 0
2, 27264, Note_on_c, 0, 79, 73
2, 27284, Note_on_c, 0, 79, 0
2, 27408, Note_on_c, 0, 80, 76
2, 27420, Note_on_c, 0, 80, 0
2, 27420, Note_on_c, 0, 79, 76
2, 27432, Note_on_c, 0, 79, 0
2, 27432, Note_on_c, 0, 77, 77
2, 27444, Note_on_c, 0, 77, 0
2, 27444, Note_on_c, 0, 75, 77
2, 27456, Note_on_c, 0, 75, 0
2, 27456, Note_on_c, 0, 74, 77
2, 27476, Note_on_c, 0, 74, 0
2, 27600, Note_on_c, 0, 86, 80
2, 27612, Note_on_c, 0, 86, 0
2, 27612, Note_on_c, 0, 84, 81
2, 27624, Note_on_c, 0, 84, 0
2, 27624, Note_on_c, 0, 82, 81
2, 27636, Note_on_c, 0, 82, 0
2, 27636, Note_on_c, 0, 80, 81
2, 27648, Note_on_c, 0, 80, 0
2, 27648, Note_on_c, 0, 79, 81
2, 27668, Note_on_c, 0, 79, 0
2, 27696, Note_on_c, 0, 80, 83
2, 27708, Note_on_c, 0, 80, 0
2, 27708, Note_on_c, 0, 79, 83
2, 27720, Note_on_c, 0, 79, 0
2, 27720, Note_on_c, 0, 77, 83
2, 27732, Note_on_c, 0, 77, 0
2, 27732, Note_on_c, 0, 75, 83
2, 27744, Note_on_c, 0, 75, 0
2, 27744, Note_on_c, 0, 74, 83
2, 27764, Note_on_c, 0, 74, 0
2, 27792, Note_on_c, 0, 86, 83
2, 27804, Note_on_c, 0, 86, 0
2, 27804, Note_on_c, 0, 84, 83
2, 27816, Note_on_c, 0, 84, 0
2, 27816, Note_on_c, 0, 82, 83
2, 27828, Note_on_c, 0, 82, 0
2, 27828, Note_on_c, 0, 80, 83
2, 27840, Note_on_c, 0, 80, 0
2, 27840, Note_on_c, 0, 79, 83
2, 27860, Note_on_c, 0, 79, 0
2, 27888, Note_on_c, 0, 80, 83
2, 27900, Note_on_c, 0, 80, 0
2, 27900, Note_on_c, 0, 79, 83
2, 27912, Note_on_c, 0, 79, 0
2, 27912, Note_on_c, 0, 77, 83
2, 27924, Note_on_c, 0, 77, 0
2, 27924, Note_on_c, 0, 75, 83
2, 27936, Note_on_c, 0, 75, 0
2, 27936, Note_on_c, 0, 74, 83
2, 27956, Note_on_c, 0, 74, 0
2, 27984, Note_on_c, 0, 86, 83
2, 27996, Note_on_c, 0, 86, 0
2, 27996, Note_on_c, 0, 84, 83
2, 28008, Note_on_c, 0, 84, 0
2, 28008, Note_on_c, 0, 82, 83
2, 28020, Note_on_c, 0, 82, 0
2, 28020, Note_on_c, 0, 80, 83
2, 28032, Note_on_c, 0, 80, 0
2, 28032, Note_on_c, 0, 79, 83
2, 28052, Note_on_c, 0, 79, 0
2, 28080, Note_on_c, 0, 87, 83
2, 28095, Note_on_c, 0, 87, 0
2, 28096, Note_on_c, 0, 86, 83
2, 28111, Note_on_c, 0, 86, 0
2, 28112, Note_on_c, 0, 84, 83
2, 28127, Note_on_c, 0, 84, 0
2, 28128, Note_on_c, 0, 82, 83
2, 28143, Note_on_c, 0, 82, 0
2, 28144, Note_on_c, 0, 80, 83
2, 28159, Note_on_c, 0, 80, 0
2, 28160, Note_on_c, 0, 79, 83
2, 28175, Note_on_c, 0, 79, 0
2, 28176, Note_on_c, 0, 77, 83
2, 28191, Note_on_c, 0, 77, 0
2, 28192, Note_on_c, 0, 75, 83
2, 28207, Note_on_c, 0, 75, 0
2, 28208, Note_on_c, 0, 74, 83
2, 28223, Note_on_c, 0, 74, 0
2, 28224, Note_on_c, 0, 72, 83
2, 28244, Note_on_c, 0, 72, 0
2, 28296, Note_on_c, 0, 76, 83
2, 28319, Note_on_c, 0, 76, 0
2, 28320, Note_on_c, 0, 77, 83
2, 28343, Note_on_c, 0, 77, 0
2, 28344, Note_on_c, 0, 78, 83
2, 28367, Note_on_c, 0, 78, 0
2, 28368, Note_on_c, 0, 79, 84
2, 28391, Note_on_c, 0, 79, 0
2, 28392, Note_on_c, 0, 80, 84
2, 28415, Note_on_c, 0, 80, 0
2, 28416, Note_on_c, 0, 81, 85
2, 28439, Note_on_c, 0, 81, 0
2, 28440, Note_on_c, 0, 82, 86
2, 28463, Note_on_c, 0, 82, 0
2, 28464, Note_on_c, 0, 83, 86
2, 28487, Note_on_c, 0, 83, 0
2, 28488, Note_on_c, 0, 84, 87
2, 28511, Note_on_c, 0, 84, 0
2, 28512, Note_on_c, 0, 82, 88
2, 28535, Note_on_c, 0, 82, 0
2, 28536, Note_on_c, 0, 80, 87
2, 28559, Note_on_c, 0, 80, 0
2, 28560, Note_on_c, 0, 79, 86
2, 28583, Note_on_c, 0, 79, 0
2, 28584, Note_on_c, 0, 77, 86
2, 28607, Note_on_c, 0, 77, 0
2, 28608, Note_on_c, 0, 75, 85
2, 28727, Note_on_c, 0, 75, 0
2, 28728, Note_on_c, 0, 74, 83
2, 28751, Note_on_c, 0, 74, 0
2, 28752, Note_on_c, 0, 80, 83
2, 28767, Note_on_c, 0, 80, 0
2, 28768, Note_on_c, 0, 77, 83
2, 28783, Note_on_c, 0, 77, 0
2, 28784, Note_on_c, 0, 74, 83
2, 28799, Note_on_c, 0, 74, 0
2, 28800, Note_on_c, 0, 75, 83
2, 28847, Note_on_c, 0, 75, 0
2, 28896, Note_on_c, 0, 70, 74
2, 28896, Note_on_c, 0, 67, 74
2, 28963, Note_on_c, 0, 70, 0
2, 28963, Note_on_c, 0, 67, 0
2, 28968, Note_on_c, 0, 74, 74
2, 28974, Note_on_c, 0, 74, 0
2, 28974, Note_on_c, 0, 72, 74
2, 28974, Note_on_c, 0, 68, 74
2, 28991, Note_on_c, 0, 72, 0
2, 28991, Note_on_c, 0, 68, 0
2, 28992, Note_on_c, 0, 70, 74
2, 28992, Note_on_c, 0, 67, 74
2, 29081, Note_on_c, 0, 70, 0
2, 29081, Note_on_c, 0, 67, 0
2, 29184, Note_on_c, 0, 82, 79
2, 29184, Note_on_c, 0, 79, 79
2, 29328, Note_on_c, 0, 82, 0
2, 29328, Note_on_c, 0, 79, 0
2, 29328, Note_on_c, 0, 80, 79
2, 29328, Note_on_c, 0, 77, 79
2, 29373, Note_on_c, 0, 80, 0
2, 29373, Note_on_c, 0, 77, 0
2, 29376, Note_on_c, 0, 84, 79
2, 29376, Note_on_c, 0, 80, 79
2, 29520, Note_on_c, 0, 84, 0
2, 29520, Note_on_c, 0, 80, 0
2, 29520, Note_on_c, 0, 82, 79
2, 29520, Note_on_c, 0, 79, 79
2, 29565, Note_on_c, 0, 82, 0
2, 29565, Note_on_c, 0, 79, 0
2, 29568, Note_on_c, 0, 85, 99
2, 29568, Note_on_c, 0, 82, 99
2, 29712, Note_on_c, 0, 85, 0
2, 29712, Note_on_c, 0, 82, 0
2, 29712, Note_on_c, 0, 84, 83
2, 29712, Note_on_c, 0, 80, 83
2, 29757, Note_on_c, 0, 84, 0
2, 29757, Note_on_c, 0, 80, 0
2, 29760, Note_on_c, 0, 82, 83
2, 29760, Note_on_c, 0, 79, 83
2, 29805, Note_on_c, 0, 82, 0
2, 29805, Note_on_c, 0, 79, 0
2, 29808, Note_on_c, 0, 80, 83
2, 29808, Note_on_c, 0, 77, 83
2, 29853, Note_on_c, 0, 80, 0
2, 29853, Note_on_c, 0, 77, 0
2, 29856, Note_on_c, 0, 79, 83
2, 29856, Note_on_c, 0, 76, 83
2, 29901, Note_on_c, 0, 79, 0
2, 29901, Note_on_c, 0, 76, 0
2, 29904, Note_on_c, 0, 82, 83
2, 29904, Note_on_c, 0, 79, 83
2, 29949, Note_on_c, 0, 82, 0
2, 29949, Note_on_c, 0, 79, 0
2, 29952, Note_on_c, 0, 80, 83
2, 29997, Note_on_c, 0, 80, 0
2, 30384, Note_on_c, 0, 77, 83
2, 30432, Note_on_c, 0, 77, 0
2, 30432, Note_on_c, 0, 89, 83
2, 30452, Note_on_c, 0, 89, 0
2, 30480, Note_on_c, 0, 75, 83
2, 30503, Note_on_c, 0, 75, 0
2, 30504, Note_on_c, 0, 87, 83
2, 30527, Note_on_c, 0, 87, 0
2, 30528, Note_on_c, 0, 73, 83
2, 30551, Note_on_c, 0, 73, 0
2, 30552, Note_on_c, 0, 85, 83
2, 30575, Note_on_c, 0, 85, 0
2, 30576, Note_on_c, 0, 72, 83
2, 30599, Note_on_c, 0, 72, 0
2, 30600, Note_on_c, 0, 84, 83
2, 30623, Note_on_c, 0, 84, 0
2, 30624, Note_on_c, 0, 70, 83
2, 30647, Note_on_c, 0, 70, 0
2, 30648, Note_on_c, 0, 82, 83
2, 30671, Note_on_c, 0, 82, 0
2, 30672, Note_on_c, 0, 68, 83
2, 30695, Note_on_c, 0, 68, 0
2, 30696, Note_on_c, 0, 80, 83
2, 30719, Note_on_c, 0, 80, 0
2, 30720, Note_on_c, 0, 67, 83
2, 30743, Note_on_c, 0, 67, 0
2, 30744, Note_on_c, 0, 79, 83
2, 30767, Note_on_c, 0, 79, 0
2, 30768, Note_on_c, 0, 65, 83
2, 30791, Note_on_c, 0, 65, 0
2, 30792, Note_on_c, 0, 77, 83
2, 30815, Note_on_c, 0, 77, 0
2, 30816, Note_on_c, 0, 63, 83
2, 30839, Note_on_c, 0, 63, 0
2, 30840, Note_on_c, 0, 75, 83
2, 30863, Note_on_c, 0, 75, 0
2, 30864, Note_on_c, 0, 62, 83
2, 30887, Note_on_c, 0, 62, 0
2, 30888, Note_on_c, 0, 74, 83
2, 30911, Note_on_c, 0, 74, 0
2, 30912, Note_on_c, 0, 63, 83
2, 30935, Note_on_c, 0, 63, 0
2, 30936, Note_on_c, 0, 75, 83
2, 30959, Note_on_c, 0, 75, 0
2, 30960, Note_on_c, 0, 73, 83
2, 30983, Note_on_c, 0, 73, 0
2, 30984, Note_on_c, 0, 77, 83
2, 31007, Note_on_c, 0, 77, 0
2, 31008, Note_on_c, 0, 75, 83
2, 31031, Note_on_c, 0, 75, 0
2, 31032, Note_on_c, 0, 72, 83
2, 31055, Note_on_c, 0, 72, 0
2, 31056, Note_on_c, 0, 73, 83
2, 31079, Note_on_c, 0, 73, 0
2, 31080, Note_on_c, 0, 70, 83
2, 31103, Note_on_c, 0, 70, 0
2, 31104, Note_on_c, 0, 72, 79
2, 31104, Note_on_c, 0, 68, 79
2, 31248, Note_on_c, 0, 72, 0
2, 31248, Note_on_c, 0, 68, 0
2, 31248, Note_on_c, 0, 70, 79
2, 31248, Note_on_c, 0, 67, 79
2, 31293, Note_on_c, 0, 70, 0
2, 31293, Note_on_c, 0, 67, 0
2, 31296, Note_on_c, 0, 73, 79
2, 31296, Note_on_c, 0, 70, 79
2, 31440, Note_on_c, 0, 73, 0
2, 31440, Note_on_c, 0, 70, 0
2, 31440, Note_on_c, 0, 72, 79
2, 31440, Note_on_c, 0, 68, 79
2, 31485, Note_on_c, 0, 72, 0
2, 31485, Note_on_c, 0, 68, 0
2, 31488, Note_on_c, 0, 75, 79
2, 31488, Note_on_c, 0, 72, 79
2, 31632, Note_on_c, 0, 75, 0
2, 31632, Note_on_c, 0, 72, 0
2, 31632, Note_on_c, 0, 73, 80
2, 31632, Note_on_c, 0, 70, 80
2, 31677, Note_on_c, 0, 73, 0
2, 31677, Note_on_c, 0, 70, 0
2, 31680, Note_on_c, 0, 77, 81
2, 31680, Note_on_c, 0, 73, 81
2, 31824, Note_on_c, 0, 77, 0
2, 31824, Note_on_c, 0, 73, 0
2, 31824, Note_on_c, 0, 75, 82
2, 31824, Note_on_c, 0, 72, 82
2, 31869, Note_on_c, 0, 75, 0
2, 31869, Note_on_c, 0, 72, 0
2, 31872, Note_on_c, 0, 78, 83
2, 31872, Note_on_c, 0, 75, 83
2, 32005, Note_on_c, 0, 78, 0
2, 32005, Note_on_c, 0, 75, 0
2, 32016, Note_on_c, 0, 77, 83
2, 32016, Note_on_c, 0, 73, 83
2, 32061, Note_on_c, 0, 77, 0
2, 32061, Note_on_c, 0, 73, 0
2, 32064, Note_on_c, 0, 75, 83
2, 32064, Note_on_c, 0, 72, 83
2, 32109, Note_on_c, 0, 75, 0
2, 32109, Note_on_c, 0, 72, 0
2, 32112, Note_on_c, 0, 73, 83
2, 32112, Note_on_c, 0, 70, 83
2, 32157, Note_on_c, 0, 73, 0
2, 32157, Note_on_c, 0, 70, 0
2, 32160, Note_on_c, 0, 72, 83
2, 32160, Note_on_c, 0, 69, 83
2, 32205, Note_on_c, 0, 72, 0
2, 32205, Note_on_c, 0, 69, 0
2, 32208, Note_on_c, 0, 70, 83
2, 32208, Note_on_c, 0, 65, 83
2, 32253, Note_on_c, 0, 70, 0
2, 32253, Note_on_c, 0, 65, 0
2, 32256, Note_on_c, 0, 69, 83
2, 32256, Note_on_c, 0, 63, 83
2, 32301, Note_on_c, 0, 69, 0
2, 32301, Note_on_c, 0, 63, 0
2, 32304, Note_on_c, 0, 66, 83
2, 32304, Note_on_c, 0, 61, 83
2, 32349, Note_on_c, 0, 66, 0
2, 32349, Note_on_c, 0, 61, 0
2, 32352, Note_on_c, 0, 65, 83
2, 32352, Note_on_c, 0, 60, 83
2, 32397, Note_on_c, 0, 65, 0
2, 32397, Note_on_c, 0, 60, 0
2, 32400, Note_on_c, 0, 64, 83
2, 32400, Note_on_c, 0, 58, 83
2, 32445, Note_on_c, 0, 64, 0
2, 32445, Note_on_c, 0, 58, 0
2, 32448, Note_on_c, 0, 63, 83
2, 32448, Note_on_c, 0, 60, 83
2, 32625, Note_on_c, 0, 63, 0
2, 32625, Note_on_c, 0, 60, 0
2, 32784, Note_on_c, 0, 75, 74
2, 32796, Note_on_c, 0, 75, 0
2, 32796, Note_on_c, 0, 73, 74
2, 32808, Note_on_c, 0, 73, 0
2, 32808, Note_on_c, 0, 72, 74
2, 32820, Note_on_c, 0, 72, 0
2, 32820, Note_on_c, 0, 70, 74
2, 32832, Note_on_c, 0, 70, 0
2, 32832, Note_on_c, 0, 69, 74
2, 32852, Note_on_c, 0, 69, 0
2, 32976, Note_on_c, 0, 80, 74
2, 32988, Note_on_c, 0, 80, 0
2, 32988, Note_on_c, 0, 78, 74
2, 33000, Note_on_c, 0, 78, 0
2, 33000, Note_on_c, 0, 77, 74
2, 33012, Note_on_c, 0, 77, 0
2, 33012, Note_on_c, 0, 75, 74
2, 33024, Note_on_c, 0, 75, 0
2, 33024, Note_on_c, 0, 73, 74
2, 33044, Note_on_c, 0, 73, 0
2, 33168, Note_on_c, 0, 75, 74
2, 33180, Note_on_c, 0, 75, 0
2, 33180, Note_on_c, 0, 73, 74
2, 33192, Note_on_c, 0, 73, 0
2, 33192, Note_on_c, 0, 72, 74
2, 33204, Note_on_c, 0, 72, 0
2, 33204, Note_on_c, 0, 70, 74
2, 33216, Note_on_c, 0, 70, 0
2, 33216, Note_on_c, 0, 69, 74
2, 33236, Note_on_c, 0, 69, 0
2, 33360, Note_on_c, 0, 80, 74
2, 33372, Note_on_c, 0, 80, 0
2, 33372, Note_on_c, 0, 78, 74
2, 33384, Note_on_c, 0, 78, 0
2, 33384, Note_on_c, 0, 77, 74
2, 33396, Note_on_c, 0, 77, 0
2, 33396, Note_on_c, 0, 75, 74
2, 33408, Note_on_c, 0, 75, 0
2, 33408, Note_on_c, 0, 73, 74
2, 33428, Note_on_c, 0, 73, 0
2, 33552, Note_on_c, 0, 78, 74
2, 33564, Note_on_c, 0, 78, 0
2, 33564, Note_on_c, 0, 77, 74
2, 33576, Note_on_c, 0, 77, 0
2, 33576, Note_on_c, 0, 75, 74
2, 33588, Note_on_c, 0, 75, 0
2, 33588, Note_on_c, 0, 73, 74
2, 33600, Note_on_c, 0, 73, 0
2, 33600, Note_on_c, 0, 72, 74
2, 33620, Note_on_c, 0, 72, 0
2, 33744, Note_on_c, 0, 84, 74
2, 33756, Note_on_c, 0, 84, 0
2, 33756, Note_on_c, 0, 82, 74
2, 33768, Note_on_c, 0, 82, 0
2, 33768, Note_on_c, 0, 80, 74
2, 33780, Note_on_c, 0, 80, 0
2, 33780, Note_on_c, 0, 78, 74
2, 33792, Note_on_c, 0, 78, 0
2, 33792, Note_on_c, 0, 77, 74
2, 33812, Note_on_c, 0, 77, 0
2, 33936, Note_on_c, 0, 78, 74
2, 33948, Note_on_c, 0, 78, 0
2, 33948, Note_on_c, 0, 77, 74
2, 33960, Note_on_c, 0, 77, 0
2, 33960, Note_on_c, 0, 75, 74
2, 33972, Note_on_c, 0, 75, 0
2, 33972, Note_on_c, 0, 73, 74
2, 33984, Note_on_c, 0, 73, 0
2, 33984, Note_on_c, 0, 72, 74
2, 34004, Note_on_c, 0, 72, 0
2, 34128, Note_on_c, 0, 84, 74
2, 34140, Note_on_c, 0, 84, 0
2, 34140, Note_on_c, 0, 82, 74
2, 34152, Note_on_c, 0, 82, 0
2, 34152, Note_on_c, 0, 80, 74
2, 34164, Note_on_c, 0, 80, 0
2, 34164, Note_on_c, 0, 78, 74
2, 34176, Note_on_c, 0, 78, 0
2, 34176, Note_on_c, 0, 77, 74
2, 34196, Note_on_c, 0, 77, 0
2, 34224, Note_on_c, 0, 89, 90
2, 34240, Note_on_c, 0, 89, 0
2, 34240, Note_on_c, 0, 87, 74
2, 34255, Note_on_c, 0, 87, 0
2, 34256, Note_on_c, 0, 85, 74
2, 34271, Note_on_c, 0, 85, 0
2, 34272, Note_on_c, 0, 84, 74
2, 34287, Note_on_c, 0, 84, 0
2, 34288, Note_on_c, 0, 82, 74
2, 34303, Note_on_c, 0, 82, 0
2, 34304, Note_on_c, 0, 80, 74
2, 34319, Note_on_c, 0, 80, 0
2, 34320, Note_on_c, 0, 78, 74
2, 34335, Note_on_c, 0, 78, 0
2, 34336, Note_on_c, 0, 77, 74
2, 34351, Note_on_c, 0, 77, 0
2, 34352, Note_on_c, 0, 75, 74
2, 34367, Note_on_c, 0, 75, 0
2, 34368, Note_on_c, 0, 73, 74
2, 34388, Note_on_c, 0, 73, 0
2, 34416, Note_on_c, 0, 77, 83
2, 34431, Note_on_c, 0, 77, 0
2, 34432, Note_on_c, 0, 75, 83
2, 34447, Note_on_c, 0, 75, 0
2, 34448, Note_on_c, 0, 73, 83
2, 34463, Note_on_c, 0, 73, 0
2, 34464, Note_on_c, 0, 72, 83
2, 34479, Note_on_c, 0, 72, 0
2, 34480, Note_on_c, 0, 70, 83
2, 34495, Note_on_c, 0, 70, 0
2, 34496, Note_on_c, 0, 68, 83
2, 34511, Note_on_c, 0, 68, 0
2, 34512, Note_on_c, 0, 66, 83
2, 34527, Note_on_c, 0, 66, 0
2, 34528, Note_on_c, 0, 65, 83
2, 34543, Note_on_c, 0, 65, 0
2, 34544, Note_on_c, 0, 63, 83
2, 34559, Note_on_c, 0, 63, 0
2, 34560, Note_on_c, 0, 61, 83
2, 34649, Note_on_c, 0, 61, 0
2, 34656, Note_on_c, 0, 59, 83
2, 34665, Note_on_c, 0, 59, 0
2, 34665, Note_on_c, 0, 61, 83
2, 34674, Note_on_c, 0, 61, 0
2, 34674, Note_on_c, 0, 59, 83
2, 34683, Note_on_c, 0, 59, 0
2, 34683, Note_on_c, 0, 61, 83
2, 34692, Note_on_c, 0, 61, 0
2, 34692, Note_on_c, 0, 59, 83
2, 34701, Note_on_c, 0, 59, 0
2, 34701, Note_on_c, 0, 61, 83
2, 34710, Note_on_c, 0, 61, 0
2, 34710, Note_on_c, 0, 59, 83
2, 34719, Note_on_c, 0, 59, 0
2, 34719, Note_on_c, 0, 61, 83
2, 34728, Note_on_c, 0, 61, 0
2, 34728, Note_on_c, 0, 59, 83
2, 34736, Note_on_c, 0, 59, 0
2, 34736, Note_on_c, 0, 58, 83
2, 34744, Note_on_c, 0, 58, 0
2, 34744, Note_on_c, 0, 59, 83
2, 34752, Note_on_c, 0, 59, 0
2, 34752, Note_on_c, 0, 58, 83
2, 34767, Note_on_c, 0, 58, 0
2, 34768, Note_on_c, 0, 62, 83
2, 34783, Note_on_c, 0, 62, 0
2, 34784, Note_on_c, 0, 65, 83
2, 34799, Note_on_c, 0, 65, 0
2, 34800, Note_on_c, 0, 62, 83
2, 34815, Note_on_c, 0, 62, 0
2, 34816, Note_on_c, 0, 65, 83
2, 34831, Note_on_c, 0, 65, 0
2, 34832, Note_on_c, 0, 70, 84
2, 34847, Note_on_c, 0, 70, 0
2, 34848, Note_on_c, 0, 65, 84
2, 34863, Note_on_c, 0, 65, 0
2, 34864, Note_on_c, 0, 70, 84
2, 34879, Note_on_c, 0, 70, 0
2, 34880, Note_on_c, 0, 74, 84
2, 34895, Note_on_c, 0, 74, 0
2, 34896, Note_on_c, 0, 70, 84
2, 34911, Note_on_c, 0, 70, 0
2, 34912, Note_on_c, 0, 74, 85
2, 34927, Note_on_c, 0, 74, 0
2, 34928, Note_on_c, 0, 77, 85
2, 34943, Note_on_c, 0, 77, 0
2, 34944, Note_on_c, 0, 74, 85
2, 34959, Note_on_c, 0, 74, 0
2, 34960, Note_on_c, 0, 77, 85
2, 34975, Note_on_c, 0, 77, 0
2, 34976, Note_on_c, 0, 80, 85
2, 34991, Note_on_c, 0, 80, 0
2, 34992, Note_on_c, 0, 77, 86
2, 35007, Note_on_c, 0, 77, 0
2, 35008, Note_on_c, 0, 80, 86
2, 35023, Note_on_c, 0, 80, 0
2, 35024, Note_on_c, 0, 83, 86
2, 35039, Note_on_c, 0, 83, 0
2, 35040, Note_on_c, 0, 82, 83
2, 35055, Note_on_c, 0, 82, 0
2, 35056, Note_on_c, 0, 80, 81
2, 35071, Note_on_c, 0, 80, 0
2, 35072, Note_on_c, 0, 78, 80
2, 35087, Note_on_c, 0, 78, 0
2, 35088, Note_on_c, 0, 77, 79
2, 35103, Note_on_c, 0, 77, 0
2, 35104, Note_on_c, 0, 75, 78
2, 35119, Note_on_c, 0, 75, 0
2, 35120, Note_on_c, 0, 74, 76
2, 35135, Note_on_c, 0, 74, 0
2, 35136, Note_on_c, 0, 75, 75
2, 35181, Note_on_c, 0, 75, 0
2, 35280, Note_on_c, 0, 80, 68
2, 35292, Note_on_c, 0, 80, 0
2, 35292, Note_on_c, 0, 78, 68
2, 35304, Note_on_c, 0, 78, 0
2, 35304, Note_on_c, 0, 77, 68
2, 35316, Note_on_c, 0, 77, 0
2, 35316, Note_on_c, 0, 75, 68
2, 35328, Note_on_c, 0, 75, 0
2, 35328, Note_on_c, 0, 74, 68
2, 35348, Note_on_c, 0, 74, 0
2, 35472, Note_on_c, 0, 85, 68
2, 35484, Note_on_c, 0, 85, 0
2, 35484, Note_on_c, 0, 83, 68
2, 35496, Note_on_c, 0, 83, 0
2, 35496, Note_on_c, 0, 82, 68
2, 35508, Note_on_c, 0, 82, 0
2, 35508, Note_on_c, 0, 80, 68
2, 35520, Note_on_c, 0, 80, 0
2, 35520, Note_on_c, 0, 78, 68
2, 35540, Note_on_c, 0, 78, 0
2, 35664, Note_on_c, 0, 80, 68
2, 35676, Note_on_c, 0, 80, 0
2, 35676, Note_on_c, 0, 78, 68
2, 35688, Note_on_c, 0, 78, 0
2, 35688, Note_on_c, 0, 77, 68
2, 35700, Note_on_c, 0, 77, 0
2, 35700, Note_on_c, 0, 75, 68
2, 35712, Note_on_c, 0, 75, 0
2, 35712, Note_on_c, 0, 74, 68
2, 35732, Note_on_c, 0, 74, 0
2, 35856, Note_on_c, 0, 85, 68
2, 35868, Note_on_c, 0, 85, 0
2, 35868, Note_on_c, 0, 83, 68
2, 35880, Note_on_c, 0, 83, 0
2, 35880, Note_on_c, 0, 82, 68
2, 35892, Note_on_c, 0, 82, 0
2, 35892, Note_on_c, 0, 80, 68
2, 35904, Note_on_c, 0, 80, 0
2, 35904, Note_on_c, 0, 78, 68
2, 35993, Note_on_c, 0, 78, 0
2, 36000, Note_on_c, 0, 79, 83
2, 36009, Note_on_c, 0, 79, 0
2, 36009, Note_on_c, 0, 80, 83
2, 36018, Note_on_c, 0, 80, 0
2, 36018, Note_on_c, 0, 79, 83
2, 36027, Note_on_c, 0, 79, 0
2, 36027, Note_on_c, 0, 80, 83
2, 36036, Note_on_c, 0, 80, 0
2, 36036, Note_on_c, 0, 79, 83
2, 36045, Note_on_c, 0, 79, 0
2, 36045, Note_on_c, 0, 80, 83
2, 36054, Note_on_c, 0, 80, 0
2, 36054, Note_on_c, 0, 79, 83
2, 36063, Note_on_c, 0, 79, 0
2, 36063, Note_on_c, 0, 80, 83
2, 36072, Note_on_c, 0, 80, 0
2, 36072, Note_on_c, 0, 79, 83
2, 36080, Note_on_c, 0, 79, 0
2, 36080, Note_on_c, 0, 77, 83
2, 36088, Note_on_c, 0, 77, 0
2, 36088, Note_on_c, 0, 79, 83
2, 36096, Note_on_c, 0, 79, 0
2, 36096, Note_on_c, 0, 80, 83
2, 36119, Note_on_c, 0, 80, 0
2, 36120, Note_on_c, 0, 82, 83
2, 36128, Note_on_c, 0, 82, 0
2, 36128, Note_on_c, 0, 80, 83
2, 36136, Note_on_c, 0, 80, 0
2, 36136, Note_on_c, 0, 79, 83
2, 36144, Note_on_c, 0, 79, 0
2, 36144, Note_on_c, 0, 80, 83
2, 36167, Note_on_c, 0, 80, 0
2, 36168, Note_on_c, 0, 82, 83
2, 36191, Note_on_c, 0, 82, 0
2, 36192, Note_on_c, 0, 85, 83
2, 36215, Note_on_c, 0, 85, 0
2, 36216, Note_on_c, 0, 83, 83
2, 36239, Note_on_c, 0, 83, 0
2, 36240, Note_on_c, 0, 82, 83
2, 36263, Note_on_c, 0, 82, 0
2, 36264, Note_on_c, 0, 80, 83
2, 36287, Note_on_c, 0, 80, 0
2, 36288, Note_on_c, 0, 78, 83
2, 36377, Note_on_c, 0, 78, 0
2, 36384, Note_on_c, 0, 77, 83
2, 36393, Note_on_c, 0, 77, 0
2, 36393, Note_on_c, 0, 78, 83
2, 36402, Note_on_c, 0, 78, 0
2, 36402, Note_on_c, 0, 77, 83
2, 36411, Note_on_c, 0, 77, 0
2, 36411, Note_on_c, 0, 78, 83
2, 36420, Note_on_c, 0, 78, 0
2, 36420, Note_on_c, 0, 77, 83
2, 36429, Note_on_c, 0, 77, 0
2, 36429, Note_on_c, 0, 78, 83
2, 36438, Note_on_c, 0, 78, 0
2, 36438, Note_on_c, 0, 77, 83
2, 36447, Note_on_c, 0, 77, 0
2, 36447, Note_on_c, 0, 78, 83
2, 36456, Note_on_c, 0, 78, 0
2, 36456, Note_on_c, 0, 77, 83
2, 36464, Note_on_c, 0, 77, 0
2, 36464, Note_on_c, 0, 75, 83
2, 36472, Note_on_c, 0, 75, 0
2, 36472, Note_on_c, 0, 77, 83
2, 36480, Note_on_c, 0, 77, 0
2, 36480, Note_on_c, 0, 78, 83
2, 36503, Note_on_c, 0, 78, 0
2, 36504, Note_on_c, 0, 80, 83
2, 36512, Note_on_c, 0, 80, 0
2, 36512, Note_on_c, 0, 78, 83
2, 36520, Note_on_c, 0, 78, 0
2, 36520, Note_on_c, 0, 77, 83
2, 36528, Note_on_c, 0, 77, 0
2, 36528, Note_on_c, 0, 78, 83
2, 36551, Note_on_c, 0, 78, 0
2, 36552, Note_on_c, 0, 80, 83
2, 36575, Note_on_c, 0, 80, 0
2, 36576, Note_on_c, 0, 83, 83
2, 36599, Note_on_c, 0, 83, 0
2, 36600, Note_on_c, 0, 82, 83
2, 36623, Note_on_c, 0, 82, 0
2, 36624, Note_on_c, 0, 80, 83
2, 36647, Note_on_c, 0, 80, 0
2, 36648, Note_on_c, 0, 78, 83
2, 36671, Note_on_c, 0, 78, 0
2, 36672, Note_on_c, 0, 77, 83
2, 36761, Note_on_c, 0, 77, 0
2, 36768, Note_on_c, 0, 75, 83
2, 36777, Note_on_c, 0, 75, 0
2, 36777, Note_on_c, 0, 77, 83
2, 36786, Note_on_c, 0, 77, 0
2, 36786, Note_on_c, 0, 75, 83
2, 36795, Note_on_c, 0, 75, 0
2, 36795, Note_on_c, 0, 77, 83
2, 36804, Note_on_c, 0, 77, 0
2, 36804, Note_on_c, 0, 75, 83
2, 36813, Note_on_c, 0, 75, 0
2, 36813, Note_on_c, 0, 77, 83
2, 36822, Note_on_c, 0, 77, 0
2, 36822, Note_on_c, 0, 75, 83
2, 36831, Note_on_c, 0, 75, 0
2, 36831, Note_on_c, 0, 77, 83
2, 36840, Note_on_c, 0, 77, 0
2, 36840, Note_on_c, 0, 75, 83
2, 36848, Note_on_c, 0, 75, 0
2, 36848, Note_on_c, 0, 74, 83
2, 36856, Note_on_c, 0, 74, 0
2, 36856, Note_on_c, 0, 75, 83
2, 36864, Note_on_c, 0, 75, 0
2, 36864, Note_on_c, 0, 77, 83
2, 36887, Note_on_c, 0, 77, 0
2, 36888, Note_on_c, 0, 78, 83
2, 36896, Note_on_c, 0, 78, 0
2, 36896, Note_on_c, 0, 77, 83
2, 36904, Note_on_c, 0, 77, 0
2, 36904, Note_on_c, 0, 75, 83
2, 36912, Note_on_c, 0, 75, 0
2, 36912, Note_on_c, 0, 77, 83
2, 36935, Note_on_c, 0, 77, 0
2, 36936, Note_on_c, 0, 78, 83
2, 36959, Note_on_c, 0, 78, 0
2, 36960, Note_on_c, 0, 82, 83
2, 36983, Note_on_c, 0, 82, 0
2, 36984, Note_on_c, 0, 80, 83
2, 37007, Note_on_c, 0, 80, 0
2, 37008, Note_on_c, 0, 78, 83
2, 37031, Note_on_c, 0, 78, 0
2, 37032, Note_on_c, 0, 77, 83
2, 37055, Note_on_c, 0, 77, 0
2, 37056, Note_on_c, 0, 75, 83
2, 37145, Note_on_c, 0, 75, 0
2, 37152, Note_on_c, 0, 74, 83
2, 37161, Note_on_c, 0, 74, 0
2, 37161, Note_on_c, 0, 75, 83
2, 37170, Note_on_c, 0, 75, 0
2, 37170, Note_on_c, 0, 74, 83
2, 37179, Note_on_c, 0, 74, 0
2, 37179, Note_on_c, 0, 75, 83
2, 37188, Note_on_c, 0, 75, 0
2, 37188, Note_on_c, 0, 74, 83
2, 37197, Note_on_c, 0, 74, 0
2, 37197, Note_on_c, 0, 75, 83
2, 37206, Note_on_c, 0, 75, 0
2, 37206, Note_on_c, 0, 74, 83
2, 37215, Note_on_c, 0, 74, 0
2, 37215, Note_on_c, 0, 75, 83
2, 37224, Note_on_c, 0, 75, 0
2, 37224, Note_on_c, 0, 74, 83
2, 37232, Note_on_c, 0, 74, 0
2, 37232, Note_on_c, 0, 72, 83
2, 37240, Note_on_c, 0, 72, 0
2, 37240, Note_on_c, 0, 74, 83
2, 37248, Note_on_c, 0, 74, 0
2, 37248, Note_on_c, 0, 75, 83
2, 37337, Note_on_c, 0, 75, 0
2, 37368, Note_on_c, 0, 75, 83
2, 37391, Note_on_c, 0, 75, 0
2, 37392, Note_on_c, 0, 77, 83
2, 37400, Note_on_c, 0, 77, 0
2, 37400, Note_on_c, 0, 75, 83
2, 37408, Note_on_c, 0, 75, 0
2, 37408, Note_on_c, 0, 77, 83
2, 37416, Note_on_c, 0, 77, 0
2, 37416, Note_on_c, 0, 75, 83
2, 37424, Note_on_c, 0, 75, 0
2, 37424, Note_on_c, 0, 74, 83
2, 37432, Note_on_c, 0, 74, 0
2, 37432, Note_on_c, 0, 75, 83
2, 37440, Note_on_c, 0, 75, 0
2, 37440, Note_on_c, 0, 79, 83
2, 37485, Note_on_c, 0, 79, 0
2, 37488, Note_on_c, 0, 75, 83
2, 37533, Note_on_c, 0, 75, 0
2, 37560, Note_on_c, 0, 75, 83
2, 37583, Note_on_c, 0, 75, 0
2, 37584, Note_on_c, 0, 77, 83
2, 37592, Note_on_c, 0, 77, 0
2, 37592, Note_on_c, 0, 75, 83
2, 37600, Note_on_c, 0, 75, 0
2, 37600, Note_on_c, 0, 77, 83
2, 37608, Note_on_c, 0, 77, 0
2, 37608, Note_on_c, 0, 75, 83
2, 37616, Note_on_c, 0, 75, 0
2, 37616, Note_on_c, 0, 74, 83
2, 37624, Note_on_c, 0, 74, 0
2, 37624, Note_on_c, 0, 75, 83
2, 37632, Note_on_c, 0, 75, 0
2, 37632, Note_on_c, 0, 79, 83
2, 37677, Note_on_c, 0, 79, 0
2, 37680, Note_on_c, 0, 75, 83
2, 37725, Note_on_c, 0, 75, 0
2, 37752, Note_on_c, 0, 75, 83
2, 37775, Note_on_c, 0, 75, 0
2, 37776, Note_on_c, 0, 77, 83
2, 37784, Note_on_c, 0, 77, 0
2, 37784, Note_on_c, 0, 75, 83
2, 37792, Note_on_c, 0, 75, 0
2, 37792, Note_on_c, 0, 77, 83
2, 37800, Note_on_c, 0, 77, 0
2, 37800, Note_on_c, 0, 75, 83
2, 37808, Note_on_c, 0, 75, 0
2, 37808, Note_on_c, 0, 74, 83
2, 37816, Note_on_c, 0, 74, 0
2, 37816, Note_on_c, 0, 75, 83
2, 37824, Note_on_c, 0, 75, 0
2, 37824, Note_on_c, 0, 84, 83
2, 37869, Note_on_c, 0, 84, 0
2, 37872, Note_on_c, 0, 75, 83
2, 37917, Note_on_c, 0, 75, 0
2, 37944, Note_on_c, 0, 75, 83
2, 37967, Note_on_c, 0, 75, 0
2, 37968, Note_on_c, 0, 77, 83
2, 37976, Note_on_c, 0, 77, 0
2, 37976, Note_on_c, 0, 75, 83
2, 37984, Note_on_c, 0, 75, 0
2, 37984, Note_on_c, 0, 77, 83
2, 37992, Note_on_c, 0, 77, 0
2, 37992, Note_on_c, 0, 75, 83
2, 38000, Note_on_c, 0, 75, 0
2, 38000, Note_on_c, 0, 74, 83
2, 38008, Note_on_c, 0, 74, 0
2, 38008, Note_on_c, 0, 75, 83
2, 38016, Note_on_c, 0, 75, 0
2, 38016, Note_on_c, 0, 70, 79
2, 38031, Note_on_c, 0, 70, 0
2, 38032, Note_on_c, 0, 75, 79
2, 38047, Note_on_c, 0, 75, 0
2, 38048, Note_on_c, 0, 79, 79
2, 38063, Note_on_c, 0, 79, 0
2, 38064, Note_on_c, 0, 70, 79
2, 38079, Note_on_c, 0, 70, 0
2, 38080, Note_on_c, 0, 75, 80
2, 38095, Note_on_c, 0, 75, 0
2, 38096, Note_on_c, 0, 79, 80
2, 38111, Note_on_c, 0, 79, 0
2, 38112, Note_on_c, 0, 71, 80
2, 38127, Note_on_c, 0, 71, 0
2, 38128, Note_on_c, 0, 75, 80
2, 38143, Note_on_c, 0, 75, 0
2, 38144, Note_on_c, 0, 79, 81
2, 38159, Note_on_c, 0, 79, 0
2, 38160, Note_on_c, 0, 71, 81
2, 38175, Note_on_c, 0, 71, 0
2, 38176, Note_on_c, 0, 75, 81
2, 38191, Note_on_c, 0, 75, 0
2, 38192, Note_on_c, 0, 79, 82
2, 38207, Note_on_c, 0, 79, 0
2, 38208, Note_on_c, 0, 72, 82
2, 38223, Note_on_c, 0, 72, 0
2, 38224, Note_on_c, 0, 75, 82
2, 38239, Note_on_c, 0, 75, 0
2, 38240, Note_on_c, 0, 79, 82
2, 38255, Note_on_c, 0, 79, 0
2, 38256, Note_on_c, 0, 72, 83
2, 38271, Note_on_c, 0, 72, 0
2, 38272, Note_on_c, 0, 75, 83
2, 38287, Note_on_c, 0, 75, 0
2, 38288, Note_on_c, 0, 79, 83
2, 38303, Note_on_c, 0, 79, 0
2, 38304, Note_on_c, 0, 73, 83
2, 38319, Note_on_c, 0, 73, 0
2, 38320, Note_on_c, 0, 76, 84
2, 38335, Note_on_c, 0, 76, 0
2, 38336, Note_on_c, 0, 79, 84
2, 38351, Note_on_c, 0, 79, 0
2, 38352, Note_on_c, 0, 73, 84
2, 38367, Note_on_c, 0, 73, 0
2, 38368, Note_on_c, 0, 76, 85
2, 38383, Note_on_c, 0, 76, 0
2, 38384, Note_on_c, 0, 79, 85
2, 38399, Note_on_c, 0, 79, 0
2, 38400, Note_on_c, 0, 74, 85
2, 38415, Note_on_c, 0, 74, 0
2, 38416, Note_on_c, 0, 79, 88
2, 38431, Note_on_c, 0, 79, 0
2, 38432, Note_on_c, 0, 82, 88
2, 38447, Note_on_c, 0, 82, 0
2, 38448, Note_on_c, 0, 86, 88
2, 38463, Note_on_c, 0, 86, 0
2, 38464, Note_on_c, 0, 82, 88
2, 38479, Note_on_c, 0, 82, 0
2, 38480, Note_on_c, 0, 79, 88
2, 38495, Note_on_c, 0, 79, 0
2, 38496, Note_on_c, 0, 74, 88
2, 38511, Note_on_c, 0, 74, 0
2, 38512, Note_on_c, 0, 79, 88
2, 38527, Note_on_c, 0, 79, 0
2, 38528, Note_on_c, 0, 82, 88
2, 38543, Note_on_c, 0, 82, 0
2, 38544, Note_on_c, 0, 86, 88
2, 38559, Note_on_c, 0, 86, 0
2, 38560, Note_on_c, 0, 82, 88
2, 38575, Note_on_c, 0, 82, 0
2, 38576, Note_on_c, 0, 79, 88
2, 38591, Note_on_c, 0, 79, 0
2, 38592, Note_on_c, 0, 74, 88
2, 38607, Note_on_c, 0, 74, 0
2, 38608, Note_on_c, 0, 78, 88
2, 38623, Note_on_c, 0, 78, 0
2, 38624, Note_on_c, 0, 81, 88
2, 38639, Note_on_c, 0, 81, 0
2, 38640, Note_on_c, 0, 84, 88
2, 38655, Note_on_c, 0, 84, 0
2, 38656, Note_on_c, 0, 81, 88
2, 38671, Note_on_c, 0, 81, 0
2, 38672, Note_on_c, 0, 78, 88
2, 38687, Note_on_c, 0, 78, 0
2, 38688, Note_on_c, 0, 74, 88
2, 38703, Note_on_c, 0, 74, 0
2, 38704, Note_on_c, 0, 78, 88
2, 38719, Note_on_c, 0, 78, 0
2, 38720, Note_on_c, 0, 81, 88
2, 38735, Note_on_c, 0, 81, 0
2, 38736, Note_on_c, 0, 84, 88
2, 38751, Note_on_c, 0, 84, 0
2, 38752, Note_on_c, 0, 81, 88
2, 38767, Note_on_c, 0, 81, 0
2, 38768, Note_on_c, 0, 78, 88
2, 38783, Note_on_c, 0, 78, 0
2, 38784, Note_on_c, 0, 79, 88
2, 38799, Note_on_c, 0, 79, 0
2, 38800, Note_on_c, 0, 82, 88
2, 38815, Note_on_c, 0, 82, 0
2, 38816, Note_on_c, 0, 81, 88
2, 38831, Note_on_c, 0, 81, 0
2, 38832, Note_on_c, 0, 79, 88
2, 38847, Note_on_c, 0, 79, 0
2, 38848, Note_on_c, 0, 77, 88
2, 38863, Note_on_c, 0, 77, 0
2, 38864, Note_on_c, 0, 75, 88
2, 38879, Note_on_c, 0, 75, 0
2, 38880, Note_on_c, 0, 74, 88
2, 38895, Note_on_c, 0, 74, 0
2, 38896, Note_on_c, 0, 72, 88
2, 38911, Note_on_c, 0, 72, 0
2, 38912, Note_on_c, 0, 70, 88
2, 38927, Note_on_c, 0, 70, 0
2, 38928, Note_on_c, 0, 69, 88
2, 38943, Note_on_c, 0, 69, 0
2, 38944, Note_on_c, 0, 67, 88
2, 38959, Note_on_c, 0, 67, 0
2, 38960, Note_on_c, 0, 65, 88
2, 38975, Note_on_c, 0, 65, 0
2, 38976, Note_on_c, 0, 63, 88
2, 38991, Note_on_c, 0, 63, 0
2, 38992, Note_on_c, 0, 67, 88
2, 39007, Note_on_c, 0, 67, 0
2, 39008, Note_on_c, 0, 70, 88
2, 39023, Note_on_c, 0, 70, 0
2, 39024, Note_on_c, 0, 63, 88
2, 39039, Note_on_c, 0, 63, 0
2, 39040, Note_on_c, 0, 67, 88
2, 39055, Note_on_c, 0, 67, 0
2, 39056, Note_on_c, 0, 70, 88
2, 39071, Note_on_c, 0, 70, 0
2, 39072, Note_on_c, 0, 62, 88
2, 39087, Note_on_c, 0, 62, 0
2, 39088, Note_on_c, 0, 67, 88
2, 39103, Note_on_c, 0, 67, 0
2, 39104, Note_on_c, 0, 70, 88
2, 39119, Note_on_c, 0, 70, 0
2, 39120, Note_on_c, 0, 62, 88
2, 39135, Note_on_c, 0, 62, 0
2, 39136, Note_on_c, 0, 67, 88
2, 39151, Note_on_c, 0, 67, 0
2, 39152, Note_on_c, 0, 70, 88
2, 39167, Note_on_c, 0, 70, 0
2, 39168, Note_on_c, 0, 61, 88
2, 39183, Note_on_c, 0, 61, 0
2, 39184, Note_on_c, 0, 67, 88
2, 39199, Note_on_c, 0, 67, 0
2, 39200, Note_on_c, 0, 70, 88
2, 39215, Note_on_c, 0, 70, 0
2, 39216, Note_on_c, 0, 61, 88
2, 39231, Note_on_c, 0, 61, 0
2, 39232, Note_on_c, 0, 67, 88
2, 39247, Note_on_c, 0, 67, 0
2, 39248, Note_on_c, 0, 70, 88
2, 39263, Note_on_c, 0, 70, 0
2, 39264, Note_on_c, 0, 61, 88
2, 39279, Note_on_c, 0, 61, 0
2, 39280, Note_on_c, 0, 67, 88
2, 39295, Note_on_c, 0, 67, 0
2, 39296, Note_on_c, 0, 70, 88
2, 39311, Note_on_c, 0, 70, 0
2, 39312, Note_on_c, 0, 61, 88
2, 39327, Note_on_c, 0, 61, 0
2, 39328, Note_on_c, 0, 67, 88
2, 39343, Note_on_c, 0, 67, 0
2, 39344, Note_on_c, 0, 70, 88
2, 39359, Note_on_c, 0, 70, 0
2, 39360, Note_on_c, 0, 62, 88
2, 39375, Note_on_c, 0, 62, 0
2, 39376, Note_on_c, 0, 67, 88
2, 39391, Note_on_c, 0, 67, 0
2, 39392, Note_on_c, 0, 70, 88
2, 39407, Note_on_c, 0, 70, 0
2, 39408, Note_on_c, 0, 74, 88
2, 39423, Note_on_c, 0, 74, 0
2, 39424, Note_on_c, 0, 70, 88
2, 39439, Note_on_c, 0, 70, 0
2, 39440, Note_on_c, 0, 67, 88
2, 39455, Note_on_c, 0, 67, 0
2, 39456, Note_on_c, 0, 62, 88
2, 39476, Note_on_c, 0, 62, 0
2, 39504, Note_on_c, 0, 66, 88
2, 39504, Note_on_c, 0, 60, 88
2, 39524, Note_on_c, 0, 66, 0
2, 39524, Note_on_c, 0, 60, 0
2, 39648, Note_on_c, 0, 79, 74
2, 39671, Note_on_c, 0, 79, 0
2, 39672, Note_on_c, 0, 78, 75
2, 39695, Note_on_c, 0, 78, 0
2, 39696, Note_on_c, 0, 81, 76
2, 39719, Note_on_c, 0, 81, 0
2, 39720, Note_on_c, 0, 79, 77
2, 39743, Note_on_c, 0, 79, 0
2, 39744, Note_on_c, 0, 82, 79
2, 39767, Note_on_c, 0, 82, 0
2, 39768, Note_on_c, 0, 81, 77
2, 39791, Note_on_c, 0, 81, 0
2, 39792, Note_on_c, 0, 79, 76
2, 39815, Note_on_c, 0, 79, 0
2, 39816, Note_on_c, 0, 77, 75
2, 39839, Note_on_c, 0, 77, 0
2, 39840, Note_on_c, 0, 75, 74
2, 39885, Note_on_c, 0, 75, 0
2, 39888, Note_on_c, 0, 74, 74
2, 39933, Note_on_c, 0, 74, 0
2, 39936, Note_on_c, 0, 74, 74
2, 40032, Note_on_c, 0, 74, 0
2, 40032, Note_on_c, 0, 73, 83
2, 40055, Note_on_c, 0, 73, 0
2, 40056, Note_on_c, 0, 69, 83
2, 40079, Note_on_c, 0, 69, 0
2, 40080, Note_on_c, 0, 70, 83
2, 40092, Note_on_c, 0, 70, 0
2, 40092, Note_on_c, 0, 69, 83
2, 40104, Note_on_c, 0, 69, 0
2, 40104, Note_on_c, 0, 68, 83
2, 40116, Note_on_c, 0, 68, 0
2, 40116, Note_on_c, 0, 69, 83
2, 40128, Note_on_c, 0, 69, 0
2, 40128, Note_on_c, 0, 74, 83
2, 40151, Note_on_c, 0, 74, 0
2, 40152, Note_on_c, 0, 69, 83
2, 40175, Note_on_c, 0, 69, 0
2, 40176, Note_on_c, 0, 70, 83
2, 40188, Note_on_c, 0, 70, 0
2, 40188, Note_on_c, 0, 69, 83
2, 40200, Note_on_c, 0, 69, 0
2, 40200, Note_on_c, 0, 68, 83
2, 40212, Note_on_c, 0, 68, 0
2, 40212, Note_on_c, 0, 69, 83
2, 40224, Note_on_c, 0, 69, 0
2, 40224, Note_on_c, 0, 76, 83
2, 40247, Note_on_c, 0, 76, 0
2, 40248, Note_on_c, 0, 69, 83
2, 40271, Note_on_c, 0, 69, 0
2, 40272, Note_on_c, 0, 70, 83
2, 40284, Note_on_c, 0, 70, 0
2, 40284, Note_on_c, 0, 69, 83
2, 40296, Note_on_c, 0, 69, 0
2, 40296, Note_on_c, 0, 68, 83
2, 40308, Note_on_c, 0, 68, 0
2, 40308, Note_on_c, 0, 69, 83
2, 40320, Note_on_c, 0, 69, 0
2, 40320, Note_on_c, 0, 77, 83
2, 40365, Note_on_c, 0, 77, 0
2, 40416, Note_on_c, 0, 77, 74
2, 40439, Note_on_c, 0, 77, 0
2, 40440, Note_on_c, 0, 76, 74
2, 40463, Note_on_c, 0, 76, 0
2, 40464, Note_on_c, 0, 79, 75
2, 40487, Note_on_c, 0, 79, 0
2, 40488, Note_on_c, 0, 77, 77
2, 40511, Note_on_c, 0, 77, 0
2, 40512, Note_on_c, 0, 80, 79
2, 40535, Note_on_c, 0, 80, 0
2, 40536, Note_on_c, 0, 79, 77
2, 40559, Note_on_c, 0, 79, 0
2, 40560, Note_on_c, 0, 77, 76
2, 40583, Note_on_c, 0, 77, 0
2, 40584, Note_on_c, 0, 75, 75
2, 40607, Note_on_c, 0, 75, 0
2, 40608, Note_on_c, 0, 74, 74
2, 40653, Note_on_c, 0, 74, 0
2, 40656, Note_on_c, 0, 72, 74
2, 40701, Note_on_c, 0, 72, 0
2, 40704, Note_on_c, 0, 72, 74
2, 40800, Note_on_c, 0, 72, 0
2, 40800, Note_on_c, 0, 71, 83
2, 40823, Note_on_c, 0, 71, 0
2, 40824, Note_on_c, 0, 67, 83
2, 40847, Note_on_c, 0, 67, 0
2, 40848, Note_on_c, 0, 68, 83
2, 40860, Note_on_c, 0, 68, 0
2, 40860, Note_on_c, 0, 67, 83
2, 40872, Note_on_c, 0, 67, 0
2, 40872, Note_on_c, 0, 66, 83
2, 40884, Note_on_c, 0, 66, 0
2, 40884, Note_on_c, 0, 67, 83
2, 40896, Note_on_c, 0, 67, 0
2, 40896, Note_on_c, 0, 72, 83
2, 40919, Note_on_c, 0, 72, 0
2, 40920, Note_on_c, 0, 67, 83
2, 40943, Note_on_c, 0, 67, 0
2, 40944, Note_on_c, 0, 68, 83
2, 40956, Note_on_c, 0, 68, 0
2, 40956, Note_on_c, 0, 67, 83
2, 40968, Note_on_c, 0, 67, 0
2, 40968, Note_on_c, 0, 66, 83
2, 40980, Note_on_c, 0, 66, 0
2, 40980, Note_on_c, 0, 67, 83
2, 40992, Note_on_c, 0, 67, 0
2, 40992, Note_on_c, 0, 74, 83
2, 41015, Note_on_c, 0, 74, 0
2, 41016, Note_on_c, 0, 67, 83
2, 41039, Note_on_c, 0, 67, 0
2, 41040, Note_on_c, 0, 68, 83
2, 41052, Note_on_c, 0, 68, 0
2, 41052, Note_on_c, 0, 67, 83
2, 41064, Note_on_c, 0, 67, 0
2, 41064, Note_on_c, 0, 66, 83
2, 41076, Note_on_c, 0, 66, 0
2, 41076, Note_on_c, 0, 67, 83
2, 41088, Note_on_c, 0, 67, 0
2, 41088, Note_on_c, 0, 79, 79
2, 41088, Note_on_c, 0, 75, 79
2, 41232, Note_on_c, 0, 79, 0
2, 41232, Note_on_c, 0, 75, 0
2, 41232, Note_on_c, 0, 77, 79
2, 41232, Note_on_c, 0, 74, 79
2, 41277, Note_on_c, 0, 77, 0
2, 41277, Note_on_c, 0, 74, 0
2, 41280, Note_on_c, 0, 80, 79
2, 41280, Note_on_c, 0, 77, 79
2, 41424, Note_on_c, 0, 80, 0
2, 41424, Note_on_c, 0, 77, 0
2, 41424, Note_on_c, 0, 79, 79
2, 41424, Note_on_c, 0, 75, 79
2, 41469, Note_on_c, 0, 79, 0
2, 41469, Note_on_c, 0, 75, 0
2, 41472, Note_on_c, 0, 77, 79
2, 41472, Note_on_c, 0, 68, 79
2, 41517, Note_on_c, 0, 77, 0
2, 41517, Note_on_c, 0, 68, 0
2, 41520, Note_on_c, 0, 75, 80
2, 41520, Note_on_c, 0, 67, 80
2, 41565, Note_on_c, 0, 75, 0
2, 41565, Note_on_c, 0, 67, 0
2, 41568, Note_on_c, 0, 74, 81
2, 41568, Note_on_c, 0, 65, 81
2, 41613, Note_on_c, 0, 74, 0
2, 41613, Note_on_c, 0, 65, 0
2, 41616, Note_on_c, 0, 72, 82
2, 41616, Note_on_c, 0, 63, 82
2, 41661, Note_on_c, 0, 72, 0
2, 41661, Note_on_c, 0, 63, 0
2, 41664, Note_on_c, 0, 71, 83
2, 41670, Note_on_c, 0, 71, 0
2, 41670, Note_on_c, 0, 72, 83
2, 41676, Note_on_c, 0, 72, 0
2, 41676, Note_on_c, 0, 74, 83
2, 41682, Note_on_c, 0, 74, 0
2, 41682, Note_on_c, 0, 72, 83
2, 41760, Note_on_c, 0, 72, 0
2, 41760, Note_on_c, 0, 71, 80
2, 41780, Note_on_c, 0, 71, 0
2, 41856, Note_on_c, 0, 67, 79
2, 41862, Note_on_c, 0, 67, 0
2, 41862, Note_on_c, 0, 68, 79
2, 41868, Note_on_c, 0, 68, 0
2, 41868, Note_on_c, 0, 70, 79
2, 41874, Note_on_c, 0, 70, 0
2, 41874, Note_on_c, 0, 68, 79
2, 41952, Note_on_c, 0, 68, 0
2, 41952, Note_on_c, 0, 67, 79
2, 41972, Note_on_c, 0, 67, 0
2, 42000, Note_on_c, 0, 72, 79
2, 42045, Note_on_c, 0, 72, 0
2, 42048, Note_on_c, 0, 71, 79
2, 42054, Note_on_c, 0, 71, 0
2, 42054, Note_on_c, 0, 72, 79
2, 42060, Note_on_c, 0, 72, 0
2, 42060, Note_on_c, 0, 74, 79
2, 42066, Note_on_c, 0, 74, 0
2, 42066, Note_on_c, 0, 72, 79
2, 42144, Note_on_c, 0, 72, 0
2, 42144, Note_on_c, 0, 71, 79
2, 42154, Note_on_c, 0, 71, 0
2, 42168, Note_on_c, 0, 80, 79
2, 42191, Note_on_c, 0, 80, 0
2, 42192, Note_on_c, 0, 79, 79
2, 42215, Note_on_c, 0, 79, 0
2, 42216, Note_on_c, 0, 77, 79
2, 42239, Note_on_c, 0, 77, 0
2, 42240, Note_on_c, 0, 77, 79
2, 42263, Note_on_c, 0, 77, 0
2, 42264, Note_on_c, 0, 75, 79
2, 42287, Note_on_c, 0, 75, 0
2, 42288, Note_on_c, 0, 74, 80
2, 42294, Note_on_c, 0, 74, 0
2, 42294, Note_on_c, 0, 75, 80
2, 42300, Note_on_c, 0, 75, 0
2, 42300, Note_on_c, 0, 74, 80
2, 42311, Note_on_c, 0, 74, 0
2, 42312, Note_on_c, 0, 72, 80
2, 42335, Note_on_c, 0, 72, 0
2, 42336, Note_on_c, 0, 71, 81
2, 42381, Note_on_c, 0, 71, 0
2, 42384, Note_on_c, 0, 72, 82
2, 42429, Note_on_c, 0, 72, 0
2, 42432, Note_on_c, 0, 75, 83
2, 42499, Note_on_c, 0, 75, 0
2, 42504, Note_on_c, 0, 77, 81
2, 42516, Note_on_c, 0, 77, 0
2, 42516, Note_on_c, 0, 75, 80
2, 42528, Note_on_c, 0, 75, 0
2, 42528, Note_on_c, 0, 74, 80
2, 42573, Note_on_c, 0, 74, 0
2, 42672, Note_on_c, 0, 67, 79
2, 42720, Note_on_c, 0, 67, 0
2, 42720, Note_on_c, 0, 79, 79
2, 42740, Note_on_c, 0, 79, 0
2, 42864, Note_on_c, 0, 68, 80
2, 42912, Note_on_c, 0, 68, 0
2, 42912, Note_on_c, 0, 80, 80
2, 42932, Note_on_c, 0, 80, 0
2, 43056, Note_on_c, 0, 71, 81
2, 43104, Note_on_c, 0, 71, 0
2, 43104, Note_on_c, 0, 83, 81
2, 43124, Note_on_c, 0, 83, 0
2, 43248, Note_on_c, 0, 72, 82
2, 43296, Note_on_c, 0, 72, 0
2, 43296, Note_on_c, 0, 84, 82
2, 43316, Note_on_c, 0, 84, 0
2, 43440, Note_on_c, 0, 73, 83
2, 43488, Note_on_c, 0, 85, 83
2, 43536, Note_on_c, 0, 85, 0
2, 43536, Note_on_c, 0, 73, 0
2, 43536, Note_on_c, 0, 86, 83
2, 43536, Note_on_c, 0, 74, 83
2, 43556, Note_on_c, 0, 86, 0
2, 43556, Note_on_c, 0, 74, 0
2, 43584, Note_on_c, 0, 83, 88
2, 43584, Note_on_c, 0, 71, 88
2, 43632, Note_on_c, 0, 83, 0
2, 43632, Note_on_c, 0, 71, 0
2, 43632, Note_on_c, 0, 84, 88
2, 43632, Note_on_c, 0, 72, 88
2, 43652, Note_on_c, 0, 84, 0
2, 43652, Note_on_c, 0, 72, 0
2, 43680, Note_on_c, 0, 81, 88
2, 43680, Note_on_c, 0, 69, 88
2, 43728, Note_on_c, 0, 81, 0
2, 43728, Note_on_c, 0, 69, 0
2, 43728, Note_on_c, 0, 82, 88
2, 43728, Note_on_c, 0, 70, 88
2, 43748, Note_on_c, 0, 82, 0
2, 43748, Note_on_c, 0, 70, 0
2, 44016, Note_on_c, 0, 80, 62
2, 44016, Note_on_c, 0, 68, 62
2, 44061, Note_on_c, 0, 80, 0
2, 44061, Note_on_c, 0, 68, 0
2, 44064, Note_on_c, 0, 79, 62
2, 44064, Note_on_c, 0, 67, 62
2, 44109, Note_on_c, 0, 79, 0
2, 44109, Note_on_c, 0, 67, 0
2, 44112, Note_on_c, 0, 78, 62
2, 44112, Note_on_c, 0, 66, 62
2, 44157, Note_on_c, 0, 78, 0
2, 44157, Note_on_c, 0, 66, 0
2, 44160, Note_on_c, 0, 78, 62
2, 44300, Note_on_c, 0, 78, 0
2, 44304, Note_on_c, 0, 80, 62
2, 44327, Note_on_c, 0, 80, 0
2, 44328, Note_on_c, 0, 79, 62
2, 44351, Note_on_c, 0, 79, 0
2, 44352, Note_on_c, 0, 79, 62
2, 44372, Note_on_c, 0, 79, 0
2, 44544, Note_on_c, 0, 77, 79
2, 44544, Note_on_c, 0, 74, 79
2, 44781, Note_on_c, 0, 77, 0
2, 44781, Note_on_c, 0, 74, 0
2, 44784, Note_on_c, 0, 77, 79
2, 44784, Note_on_c, 0, 74, 79
2, 44829, Note_on_c, 0, 77, 0
2, 44829, Note_on_c, 0, 74, 0
2, 44832, Note_on_c, 0, 79, 79
2, 44832, Note_on_c, 0, 75, 79
2, 44855, Note_on_c, 0, 79, 0
2, 44855, Note_on_c, 0, 75, 0
2, 44856, Note_on_c, 0, 77, 79
2, 44856, Note_on_c, 0, 74, 79
2, 44879, Note_on_c, 0, 77, 0
2, 44879, Note_on_c, 0, 74, 0
2, 44880, Note_on_c, 0, 75, 79
2, 44880, Note_on_c, 0, 72, 79
2, 44903, Note_on_c, 0, 75, 0
2, 44903, Note_on_c, 0, 72, 0
2, 44904, Note_on_c, 0, 74, 79
2, 44904, Note_on_c, 0, 71, 79
2, 44927, Note_on_c, 0, 74, 0
2, 44927, Note_on_c, 0, 71, 0
2, 44928, Note_on_c, 0, 74, 95
2, 44928, Note_on_c, 0, 71, 95
2, 45024, Note_on_c, 0, 74, 0
2, 45024, Note_on_c, 0, 71, 0
2, 45024, Note_on_c, 0, 75, 79
2, 45024, Note_on_c, 0, 72, 79
2, 45165, Note_on_c, 0, 75, 0
2, 45165, Note_on_c, 0, 72, 0
2, 45168, Note_on_c, 0, 79, 79
2, 45168, Note_on_c, 0, 75, 79
2, 45213, Note_on_c, 0, 79, 0
2, 45213, Note_on_c, 0, 75, 0
2, 45216, Note_on_c, 0, 80, 79
2, 45216, Note_on_c, 0, 77, 79
2, 45239, Note_on_c, 0, 80, 0
2, 45239, Note_on_c, 0, 77, 0
2, 45240, Note_on_c, 0, 79, 79
2, 45240, Note_on_c, 0, 75, 79
2, 45263, Note_on_c, 0, 79, 0
2, 45263, Note_on_c, 0, 75, 0
2, 45264, Note_on_c, 0, 77, 79
2, 45264, Note_on_c, 0, 74, 79
2, 45287, Note_on_c, 0, 77, 0
2, 45287, Note_on_c, 0, 74, 0
2, 45288, Note_on_c, 0, 75, 79
2, 45288, Note_on_c, 0, 72, 79
2, 45311, Note_on_c, 0, 75, 0
2, 45311, Note_on_c, 0, 72, 0
2, 45312, Note_on_c, 0, 76, 95
2, 45312, Note_on_c, 0, 73, 95
2, 45408, Note_on_c, 0, 76, 0
2, 45408, Note_on_c, 0, 73, 0
2, 45408, Note_on_c, 0, 77, 79
2, 45408, Note_on_c, 0, 74, 79
2, 45549, Note_on_c, 0, 77, 0
2, 45549, Note_on_c, 0, 74, 0
2, 45552, Note_on_c, 0, 77, 79
2, 45552, Note_on_c, 0, 74, 79
2, 45597, Note_on_c, 0, 77, 0
2, 45597, Note_on_c, 0, 74, 0
2, 45600, Note_on_c, 0, 79, 79
2, 45600, Note_on_c, 0, 75, 79
2, 45623, Note_on_c, 0, 79, 0
2, 45623, Note_on_c, 0, 75, 0
2, 45624, Note_on_c, 0, 77, 79
2, 45624, Note_on_c, 0, 74, 79
2, 45647, Note_on_c, 0, 77, 0
2, 45647, Note_on_c, 0, 74, 0
2, 45648, Note_on_c, 0, 75, 79
2, 45648, Note_on_c, 0, 72, 79
2, 45671, Note_on_c, 0, 75, 0
2, 45671, Note_on_c, 0, 72, 0
2, 45672, Note_on_c, 0, 74, 79
2, 45672, Note_on_c, 0, 71, 79
2, 45695, Note_on_c, 0, 74, 0
2, 45695, Note_on_c, 0, 71, 0
2, 45696, Note_on_c, 0, 75, 68
2, 45696, Note_on_c, 0, 72, 68
2, 45790, Note_on_c, 0, 75, 0
2, 45790, Note_on_c, 0, 72, 0
2, 45792, Note_on_c, 0, 76, 73
2, 45792, Note_on_c, 0, 73, 73
2, 45886, Note_on_c, 0, 76, 0
2, 45886, Note_on_c, 0, 73, 0
2, 45888, Note_on_c, 0, 77, 78
2, 45888, Note_on_c, 0, 72, 78
2, 45982, Note_on_c, 0, 77, 0
2, 45982, Note_on_c, 0, 72, 0
2, 45984, Note_on_c, 0, 78, 83
2, 45984, Note_on_c, 0, 72, 83
2, 46078, Note_on_c, 0, 78, 0
2, 46078, Note_on_c, 0, 72, 0
2, 46128, Control_c, 0, 64, 127
2, 46128, Note_on_c, 0, 71, 83
2, 46151, Note_on_c, 0, 71, 0
2, 46152, Control_c, 0, 64, 0
2, 46152, Note_on_c, 0, 79, 83
2, 46175, Note_on_c, 0, 79, 0
2, 46176, Note_on_c, 0, 77, 83
2, 46199, Note_on_c, 0, 77, 0
2, 46200, Note_on_c, 0, 75, 83
2, 46223, Note_on_c, 0, 75, 0
2, 46224, Note_on_c, 0, 74, 83
2, 46247, Note_on_c, 0, 74, 0
2, 46248, Note_on_c, 0, 72, 83
2, 46271, Note_on_c, 0, 72, 0
2, 46272, Note_on_c, 0, 71, 83
2, 46295, Note_on_c, 0, 71, 0
2, 46296, Note_on_c, 0, 68, 83
2, 46319, Note_on_c, 0, 68, 0
2, 46320, Note_on_c, 0, 67, 83
2, 46343, Note_on_c, 0, 67, 0
2, 46344, Note_on_c, 0, 65, 83
2, 46367, Note_on_c, 0, 65, 0
2, 46368, Note_on_c, 0, 63, 83
2, 46391, Note_on_c, 0, 63, 0
2, 46392, Note_on_c, 0, 62, 83
2, 46415, Note_on_c, 0, 62, 0
2, 46416, Note_on_c, 0, 60, 83
2, 46439, Note_on_c, 0, 60, 0
2, 46440, Note_on_c, 0, 59, 83
2, 46463, Note_on_c, 0, 59, 0
2, 46536, Note_on_c, 0, 80, 83
2, 46559, Note_on_c, 0, 80, 0
2, 46560, Note_on_c, 0, 79, 80
2, 46583, Note_on_c, 0, 79, 0
2, 46584, Note_on_c, 0, 77, 78
2, 46607, Note_on_c, 0, 77, 0
2, 46608, Note_on_c, 0, 75, 75
2, 46631, Note_on_c, 0, 75, 0
2, 46632, Note_on_c, 0, 74, 73
2, 46655, Note_on_c, 0, 74, 0
2, 46656, Note_on_c, 0, 73, 70
2, 46679, Note_on_c, 0, 73, 0
2, 46680, Note_on_c, 0, 74, 68
2, 46703, Note_on_c, 0, 74, 0
2, 46704, Note_on_c, 0, 75, 68
2, 46727, Note_on_c, 0, 75, 0
2, 46728, Note_on_c, 0, 74, 68
2, 46751, Note_on_c, 0, 74, 0
2, 46752, Note_on_c, 0, 77, 69
2, 46775, Note_on_c, 0, 77, 0
2, 46776, Note_on_c, 0, 75, 69
2, 46799, Note_on_c, 0, 75, 0
2, 46800, Note_on_c, 0, 79, 70
2, 46823, Note_on_c, 0, 79, 0
2, 46824, Note_on_c, 0, 77, 70
2, 46847, Note_on_c, 0, 77, 0
2, 46848, Note_on_c, 0, 80, 71
2, 46871, Note_on_c, 0, 80, 0
2, 46872, Note_on_c, 0, 79, 71
2, 46895, Note_on_c, 0, 79, 0
2, 46896, Note_on_c, 0, 82, 72
2, 46919, Note_on_c, 0, 82, 0
2, 46920, Note_on_c, 0, 80, 72
2, 46943, Note_on_c, 0, 80, 0
2, 46944, Note_on_c, 0, 79, 73
2, 46967, Note_on_c, 0, 79, 0
2, 46968, Note_on_c, 0, 77, 73
2, 46991, Note_on_c, 0, 77, 0
2, 46992, Note_on_c, 0, 75, 74
2, 47015, Note_on_c, 0, 75, 0
2, 47016, Note_on_c, 0, 74, 74
2, 47039, Note_on_c, 0, 74, 0
2, 47040, Note_on_c, 0, 73, 68
2, 47063, Note_on_c, 0, 73, 0
2, 47064, Note_on_c, 0, 74, 69
2, 47087, Note_on_c, 0, 74, 0
2, 47088, Note_on_c, 0, 75, 71
2, 47111, Note_on_c, 0, 75, 0
2, 47112, Note_on_c, 0, 74, 73
2, 47135, Note_on_c, 0, 74, 0
2, 47136, Note_on_c, 0, 77, 75
2, 47159, Note_on_c, 0, 77, 0
2, 47160, Note_on_c, 0, 75, 77
2, 47183, Note_on_c, 0, 75, 0
2, 47184, Note_on_c, 0, 74, 79
2, 47207, Note_on_c, 0, 74, 0
2, 47208, Note_on_c, 0, 72, 81
2, 47231, Note_on_c, 0, 72, 0
2, 47232, Note_on_c, 0, 72, 83
2, 47439, Note_on_c, 0, 72, 0
2, 47440, Note_on_c, 0, 71, 83
2, 47455, Note_on_c, 0, 71, 0
2, 47456, Note_on_c, 0, 72, 83
2, 47471, Note_on_c, 0, 72, 0
2, 47472, Note_on_c, 0, 74, 83
2, 47487, Note_on_c, 0, 74, 0
2, 47488, Note_on_c, 0, 72, 83
2, 47503, Note_on_c, 0, 72, 0
2, 47504, Note_on_c, 0, 71, 83
2, 47519, Note_on_c, 0, 71, 0
2, 47520, Note_on_c, 0, 77, 83
2, 47535, Note_on_c, 0, 77, 0
2, 47536, Note_on_c, 0, 75, 83
2, 47551, Note_on_c, 0, 75, 0
2, 47552, Note_on_c, 0, 74, 83
2, 47567, Note_on_c, 0, 74, 0
2, 47568, Note_on_c, 0, 80, 83
2, 47583, Note_on_c, 0, 80, 0
2, 47584, Note_on_c, 0, 77, 83
2, 47599, Note_on_c, 0, 77, 0
2, 47600, Note_on_c, 0, 74, 83
2, 47615, Note_on_c, 0, 74, 0
2, 47616, Note_on_c, 0, 72, 83
2, 47823, Note_on_c, 0, 72, 0
2, 47824, Note_on_c, 0, 71, 83
2, 47839, Note_on_c, 0, 71, 0
2, 47840, Note_on_c, 0, 72, 83
2, 47855, Note_on_c, 0, 72, 0
2, 47856, Note_on_c, 0, 74, 83
2, 47871, Note_on_c, 0, 74, 0
2, 47872, Note_on_c, 0, 72, 83
2, 47887, Note_on_c, 0, 72, 0
2, 47888, Note_on_c, 0, 71, 83
2, 47903, Note_on_c, 0, 71, 0
2, 47904, Note_on_c, 0, 77, 83
2, 47919, Note_on_c, 0, 77, 0
2, 47920, Note_on_c, 0, 75, 83
2, 47935, Note_on_c, 0, 75, 0
2, 47936, Note_on_c, 0, 74, 83
2, 47951, Note_on_c, 0, 74, 0
2, 47952, Note_on_c, 0, 80, 83
2, 47967, Note_on_c, 0, 80, 0
2, 47968, Note_on_c, 0, 77, 83
2, 47983, Note_on_c, 0, 77, 0
2, 47984, Note_on_c, 0, 74, 83
2, 47999, Note_on_c, 0, 74, 0
2, 48000, Note_on_c, 0, 72, 83
2, 48332, Note_on_c, 0, 72, 0
2, 48336, Note_on_c, 0, 71, 68
2, 48360, Note_on_c, 0, 71, 0
2, 48360, Note_on_c, 0, 72, 68
2, 48384, Note_on_c, 0, 72, 0
2, 48384, Note_on_c, 0, 74, 68
2, 48408, Note_on_c, 0, 74, 0
2, 48408, Note_on_c, 0, 72, 68
2, 48432, Note_on_c, 0, 72, 0
2, 48432, Note_on_c, 0, 71, 68
2, 48456, Note_on_c, 0, 71, 0
2, 48456, Note_on_c, 0, 77, 68
2, 48480, Note_on_c, 0, 77, 0
2, 48480, Note_on_c, 0, 75, 68
2, 48504, Note_on_c, 0, 75, 0
2, 48504, Note_on_c, 0, 74, 68
2, 48528, Note_on_c, 0, 74, 0
2, 48528, Note_on_c, 0, 80, 68
2, 48668, Note_on_c, 0, 80, 0
2, 48672, Note_on_c, 0, 79, 68
2, 48692, Note_on_c, 0, 79, 0
2, 48692, Note_on_c, 0, 77, 68
2, 48711, Note_on_c, 0, 77, 0
2, 48711, Note_on_c, 0, 75, 68
2, 48730, Note_on_c, 0, 75, 0
2, 48730, Note_on_c, 0, 74, 68
2, 48749, Note_on_c, 0, 74, 0
2, 48749, Note_on_c, 0, 72, 68
2, 48908, Note_on_c, 0, 72, 0
2, 48912, Control_c, 0, 64, 127
2, 48912, Note_on_c, 0, 71, 62
2, 49103, Note_on_c, 0, 71, 0
2, 49104, Note_on_c, 0, 71, 62
2, 49151, Note_on_c, 0, 71, 0
2, 49152, Control_c, 0, 64, 0
2, 49392, Note_on_c, 0, 84, 83
2, 49404, Note_on_c, 0, 84, 0
2, 49404, Note_on_c, 0, 79, 83
2, 49419, Note_on_c, 0, 79, 0
2, 49440, Note_on_c, 0, 79, 83
2, 49452, Note_on_c, 0, 79, 0
2, 49452, Note_on_c, 0, 75, 83
2, 49467, Note_on_c, 0, 75, 0
2, 49488, Note_on_c, 0, 75, 83
2, 49500, Note_on_c, 0, 75, 0
2, 49500, Note_on_c, 0, 72, 83
2, 49515, Note_on_c, 0, 72, 0
2, 49584, Note_on_c, 0, 84, 83
2, 49596, Note_on_c, 0, 84, 0
2, 49596, Note_on_c, 0, 80, 83
2, 49611, Note_on_c, 0, 80, 0
2, 49632, Note_on_c, 0, 80, 83
2, 49644, Note_on_c, 0, 80, 0
2, 49644, Note_on_c, 0, 77, 83
2, 49659, Note_on_c, 0, 77, 0
2, 49680, Note_on_c, 0, 77, 83
2, 49692, Note_on_c, 0, 77, 0
2, 49692, Note_on_c, 0, 74, 83
2, 49707, Note_on_c, 0, 74, 0
2, 49728, Note_on_c, 0, 72, 79
2, 49847, Note_on_c, 0, 72, 0
2, 49848, Note_on_c, 0, 71, 79
2, 49871, Note_on_c, 0, 71, 0
2, 49872, Note_on_c, 0, 77, 79
2, 49887, Note_on_c, 0, 77, 0
2, 49888, Note_on_c, 0, 74, 79
2, 49903, Note_on_c, 0, 74, 0
2, 49904, Note_on_c, 0, 71, 79
2, 49919, Note_on_c, 0, 71, 0
2, 49920, Note_on_c, 0, 79, 83
2, 50031, Note_on_c, 0, 79, 0
2, 50032, Note_on_c, 0, 75, 82
2, 50047, Note_on_c, 0, 75, 0
2, 50048, Note_on_c, 0, 72, 81
2, 50063, Note_on_c, 0, 72, 0
2, 50064, Note_on_c, 0, 77, 81
2, 50079, Note_on_c, 0, 77, 0
2, 50080, Note_on_c, 0, 74, 80
2, 50095, Note_on_c, 0, 74, 0
2, 50096, Note_on_c, 0, 71, 79
2, 50111, Note_on_c, 0, 71, 0
2, 50112, Note_on_c, 0, 79, 68
2, 50223, Note_on_c, 0, 79, 0
2, 50224, Note_on_c, 0, 75, 68
2, 50239, Note_on_c, 0, 75, 0
2, 50240, Note_on_c, 0, 72, 69
2, 50255, Note_on_c, 0, 72, 0
2, 50256, Note_on_c, 0, 77, 70
2, 50271, Note_on_c, 0, 77, 0
2, 50272, Note_on_c, 0, 74, 71
2, 50287, Note_on_c, 0, 74, 0
2, 50288, Note_on_c, 0, 71, 71
2, 50303, Note_on_c, 0, 71, 0
2, 50304, Note_on_c, 0, 79, 83
2, 50415, Note_on_c, 0, 79, 0
2, 50416, Note_on_c, 0, 75, 83
2, 50431, Note_on_c, 0, 75, 0
2, 50432, Note_on_c, 0, 72, 83
2, 50447, Note_on_c, 0, 72, 0
2, 50448, Note_on_c, 0, 80, 83
2, 50463, Note_on_c, 0, 80, 0
2, 50464, Note_on_c, 0, 77, 83
2, 50479, Note_on_c, 0, 77, 0
2, 50480, Note_on_c, 0, 74, 83
2, 50495, Note_on_c, 0, 74, 0
2, 50496, Note_on_c, 0, 83, 83
2, 50511, Note_on_c, 0, 83, 0
2, 50512, Note_on_c, 0, 77, 83
2, 50527, Note_on_c, 0, 77, 0
2, 50528, Note_on_c, 0, 74, 83
2, 50543, Note_on_c, 0, 74, 0
2, 50544, Note_on_c, 0, 84, 83
2, 50559, Note_on_c, 0, 84, 0
2, 50560, Note_on_c, 0, 79, 83
2, 50575, Note_on_c, 0, 79, 0
2, 50576, Note_on_c, 0, 75, 83
2, 50591, Note_on_c, 0, 75, 0
2, 50592, Note_on_c, 0, 86, 88
2, 50607, Note_on_c, 0, 86, 0
2, 50608, Note_on_c, 0, 83, 88
2, 50623, Note_on_c, 0, 83, 0
2, 50624, Note_on_c, 0, 79, 88
2, 50639, Note_on_c, 0, 79, 0
2, 50640, Note_on_c, 0, 87, 88
2, 50655, Note_on_c, 0, 87, 0
2, 50656, Note_on_c, 0, 84, 88
2, 50671, Note_on_c, 0, 84, 0
2, 50672, Note_on_c, 0, 79, 88
2, 50687, Note_on_c, 0, 79, 0
2, 50688, Note_on_c, 0, 89, 88
2, 50727, Note_on_c, 0, 89, 0
2, 51024, Note_on_c, 0, 77, 62
2, 51036, Note_on_c, 0, 77, 0
2, 51036, Note_on_c, 0, 75, 62
2, 51048, Note_on_c, 0, 75, 0
2, 51048, Note_on_c, 0, 74, 62
2, 51060, Note_on_c, 0, 74, 0
2, 51060, Note_on_c, 0, 72, 63
2, 51072, Note_on_c, 0, 72, 0
2, 51072, Note_on_c, 0, 71, 63
2, 51092, Note_on_c, 0, 71, 0
2, 51216, Note_on_c, 0, 82, 68
2, 51228, Note_on_c, 0, 82, 0
2, 51228, Note_on_c, 0, 80, 68
2, 51240, Note_on_c, 0, 80, 0
2, 51240, Note_on_c, 0, 79, 68
2, 51252, Note_on_c, 0, 79, 0
2, 51252, Note_on_c, 0, 77, 69
2, 51264, Note_on_c, 0, 77, 0
2, 51264, Note_on_c, 0, 75, 69
2, 51284, Note_on_c, 0, 75, 0
2, 51408, Note_on_c, 0, 77, 74
2, 51420, Note_on_c, 0, 77, 0
2, 51420, Note_on_c, 0, 75, 74
2, 51432, Note_on_c, 0, 75, 0
2, 51432, Note_on_c, 0, 74, 74
2, 51444, Note_on_c, 0, 74, 0
2, 51444, Note_on_c, 0, 72, 75
2, 51456, Note_on_c, 0, 72, 0
2, 51456, Note_on_c, 0, 71, 75
2, 51476, Note_on_c, 0, 71, 0
2, 51600, Note_on_c, 0, 82, 80
2, 51612, Note_on_c, 0, 82, 0
2, 51612, Note_on_c, 0, 80, 80
2, 51624, Note_on_c, 0, 80, 0
2, 51624, Note_on_c, 0, 79, 80
2, 51636, Note_on_c, 0, 79, 0
2, 51636, Note_on_c, 0, 77, 81
2, 51648, Note_on_c, 0, 77, 0
2, 51648, Note_on_c, 0, 75, 81
2, 51668, Note_on_c, 0, 75, 0
2, 51696, Note_on_c, 0, 77, 83
2, 51708, Note_on_c, 0, 77, 0
2, 51708, Note_on_c, 0, 75, 83
2, 51720, Note_on_c, 0, 75, 0
2, 51720, Note_on_c, 0, 74, 83
2, 51732, Note_on_c, 0, 74, 0
2, 51732, Note_on_c, 0, 72, 83
2, 51744, Note_on_c, 0, 72, 0
2, 51744, Note_on_c, 0, 71, 83
2, 51764, Note_on_c, 0, 71, 0
2, 51792, Note_on_c, 0, 82, 83
2, 51804, Note_on_c, 0, 82, 0
2, 51804, Note_on_c, 0, 80, 83
2, 51816, Note_on_c, 0, 80, 0
2, 51816, Note_on_c, 0, 79, 83
2, 51828, Note_on_c, 0, 79, 0
2, 51828, Note_on_c, 0, 77, 83
2, 51840, Note_on_c, 0, 77, 0
2, 51840, Note_on_c, 0, 75, 83
2, 51860, Note_on_c, 0, 75, 0
2, 51888, Note_on_c, 0, 77, 83
2, 51900, Note_on_c, 0, 77, 0
2, 51900, Note_on_c, 0, 75, 83
2, 51912, Note_on_c, 0, 75, 0
2, 51912, Note_on_c, 0, 74, 83
2, 51924, Note_on_c, 0, 74, 0
2, 51924, Note_on_c, 0, 72, 83
2, 51936, Note_on_c, 0, 72, 0
2, 51936, Note_on_c, 0, 71, 83
2, 51956, Note_on_c, 0, 71, 0
2, 51984, Note_on_c, 0, 82, 83
2, 51996, Note_on_c, 0, 82, 0
2, 51996, Note_on_c, 0, 80, 83
2, 52008, Note_on_c, 0, 80, 0
2, 52008, Note_on_c, 0, 79, 83
2, 52020, Note_on_c, 0, 79, 0
2, 52020, Note_on_c, 0, 77, 83
2, 52032, Note_on_c, 0, 77, 0
2, 52032, Note_on_c, 0, 75, 83
2, 52052, Note_on_c, 0, 75, 0
2, 52080, Note_on_c, 0, 89, 83
2, 52095, Note_on_c, 0, 89, 0
2, 52096, Note_on_c, 0, 87, 82
2, 52111, Note_on_c, 0, 87, 0
2, 52112, Note_on_c, 0, 86, 82
2, 52127, Note_on_c, 0, 86, 0
2, 52128, Note_on_c, 0, 84, 82
2, 52143, Note_on_c, 0, 84, 0
2, 52144, Note_on_c, 0, 82, 81
2, 52159, Note_on_c, 0, 82, 0
2, 52160, Note_on_c, 0, 80, 81
2, 52175, Note_on_c, 0, 80, 0
2, 52176, Note_on_c, 0, 79, 81
2, 52191, Note_on_c, 0, 79, 0
2, 52192, Note_on_c, 0, 77, 80
2, 52207, Note_on_c, 0, 77, 0
2, 52208, Note_on_c, 0, 75, 80
2, 52223, Note_on_c, 0, 75, 0
2, 52224, Note_on_c, 0, 74, 79
2, 52269, Note_on_c, 0, 74, 0
2, 52296, Note_on_c, 0, 73, 79
2, 52319, Note_on_c, 0, 73, 0
2, 52320, Note_on_c, 0, 74, 79
2, 52343, Note_on_c, 0, 74, 0
2, 52344, Note_on_c, 0, 75, 79
2, 52367, Note_on_c, 0, 75, 0
2, 52368, Note_on_c, 0, 76, 80
2, 52391, Note_on_c, 0, 76, 0
2, 52392, Note_on_c, 0, 77, 81
2, 52415, Note_on_c, 0, 77, 0
2, 52416, Note_on_c, 0, 78, 81
2, 52439, Note_on_c, 0, 78, 0
2, 52440, Note_on_c, 0, 79, 82
2, 52463, Note_on_c, 0, 79, 0
2, 52464, Note_on_c, 0, 82, 83
2, 52470, Note_on_c, 0, 82, 0
2, 52470, Note_on_c, 0, 84, 83
2, 52476, Note_on_c, 0, 84, 0
2, 52476, Note_on_c, 0, 82, 83
2, 52487, Note_on_c, 0, 82, 0
2, 52488, Note_on_c, 0, 80, 83
2, 52511, Note_on_c, 0, 80, 0
2, 52512, Note_on_c, 0, 79, 83
2, 52535, Note_on_c, 0, 79, 0
2, 52536, Note_on_c, 0, 77, 82
2, 52559, Note_on_c, 0, 77, 0
2, 52560, Note_on_c, 0, 75, 82
2, 52583, Note_on_c, 0, 75, 0
2, 52584, Note_on_c, 0, 74, 81
2, 52607, Note_on_c, 0, 74, 0
2, 52608, Note_on_c, 0, 72, 81
2, 52727, Note_on_c, 0, 72, 0
2, 52728, Note_on_c, 0, 71, 79
2, 52751, Note_on_c, 0, 71, 0
2, 52752, Note_on_c, 0, 77, 79
2, 52767, Note_on_c, 0, 77, 0
2, 52768, Note_on_c, 0, 74, 79
2, 52783, Note_on_c, 0, 74, 0
2, 52784, Note_on_c, 0, 71, 79
2, 52799, Note_on_c, 0, 71, 0
2, 52800, Note_on_c, 0, 72, 79
2, 52845, Note_on_c, 0, 72, 0
2, 52896, Note_on_c, 0, 79, 79
2, 52896, Note_on_c, 0, 75, 79
2, 52968, Note_on_c, 0, 79, 0
2, 52968, Note_on_c, 0, 75, 0
2, 52968, Note_on_c, 0, 80, 79
2, 52968, Note_on_c, 0, 77, 79
2, 52991, Note_on_c, 0, 80, 0
2, 52991, Note_on_c, 0, 77, 0
2, 52992, Note_on_c, 0, 79, 79
2, 52992, Note_on_c, 0, 75, 79
2, 53012, Note_on_c, 0, 79, 0
2, 53012, Note_on_c, 0, 75, 0
2, 53088, Note_on_c, 0, 75, 79
2, 53088, Note_on_c, 0, 67, 79
2, 53108, Note_on_c, 0, 75, 0
2, 53108, Note_on_c, 0, 67, 0
2, 53136, Note_on_c, 0, 71, 79
2, 53136, Note_on_c, 0, 65, 79
2, 53156, Note_on_c, 0, 71, 0
2, 53156, Note_on_c, 0, 65, 0
2, 53184, Note_on_c, 0, 72, 79
2, 53184, Note_on_c, 0, 63, 79
2, 53229, Note_on_c, 0, 72, 0
2, 53229, Note_on_c, 0, 63, 0
2, 53280, Note_on_c, 0, 67, 74
2, 53280, Note_on_c, 0, 63, 74
2, 53352, Note_on_c, 0, 67, 0
2, 53352, Note_on_c, 0, 63, 0
2, 53352, Note_on_c, 0, 68, 74
2, 53352, Note_on_c, 0, 65, 74
2, 53375, Note_on_c, 0, 68, 0
2, 53375, Note_on_c, 0, 65, 0
2, 53376, Note_on_c, 0, 67, 74
2, 53376, Note_on_c, 0, 63, 74
2, 53396, Note_on_c, 0, 67, 0
2, 53396, Note_on_c, 0, 63, 0
2, 53472, Note_on_c, 0, 63, 74
2, 53472, Note_on_c, 0, 55, 74
2, 53492, Note_on_c, 0, 63, 0
2, 53492, Note_on_c, 0, 55, 0
2, 53520, Note_on_c, 0, 59, 74
2, 53520, Note_on_c, 0, 53, 74
2, 53540, Note_on_c, 0, 59, 0
2, 53540, Note_on_c, 0, 53, 0
2, 53568, Note_on_c, 0, 60, 74
2, 53568, Note_on_c, 0, 51, 74
2, 53657, Note_on_c, 0, 60, 0
2, 53657, Note_on_c, 0, 51, 0
2, 53760, Note_on_c, 0, 82, 79
2, 53760, Note_on_c, 0, 79, 79
2, 53904, Note_on_c, 0, 82, 0
2, 53904, Note_on_c, 0, 79, 0
2, 53904, Note_on_c, 0, 80, 79
2, 53904, Note_on_c, 0, 77, 79
2, 53949, Note_on_c, 0, 80, 0
2, 53949, Note_on_c, 0, 77, 0
2, 53952, Note_on_c, 0, 84, 79
2, 53952, Note_on_c, 0, 80, 79
2, 54096, Note_on_c, 0, 84, 0
2, 54096, Note_on_c, 0, 80, 0
2, 54096, Note_on_c, 0, 82, 79
2, 54096, Note_on_c, 0, 79, 79
2, 54141, Note_on_c, 0, 82, 0
2, 54141, Note_on_c, 0, 79, 0
2, 54144, Note_on_c, 0, 85, 99
2, 54144, Note_on_c, 0, 82, 99
2, 54288, Note_on_c, 0, 85, 0
2, 54288, Note_on_c, 0, 82, 0
2, 54288, Note_on_c, 0, 84, 83
2, 54288, Note_on_c, 0, 80, 83
2, 54333, Note_on_c, 0, 84, 0
2, 54333, Note_on_c, 0, 80, 0
2, 54336, Note_on_c, 0, 82, 83
2, 54336, Note_on_c, 0, 79, 83
2, 54381, Note_on_c, 0, 82, 0
2, 54381, Note_on_c, 0, 79, 0
2, 54384, Note_on_c, 0, 80, 83
2, 54384, Note_on_c, 0, 77, 83
2, 54429, Note_on_c, 0, 80, 0
2, 54429, Note_on_c, 0, 77, 0
2, 54432, Note_on_c, 0, 79, 83
2, 54432, Note_on_c, 0, 76, 83
2, 54477, Note_on_c, 0, 79, 0
2, 54477, Note_on_c, 0, 76, 0
2, 54480, Note_on_c, 0, 82, 83
2, 54480, Note_on_c, 0, 79, 83
2, 54525, Note_on_c, 0, 82, 0
2, 54525, Note_on_c, 0, 79, 0
2, 54528, Note_on_c, 0, 80, 83
2, 54573, Note_on_c, 0, 80, 0
2, 54960, Note_on_c, 0, 77, 83
2, 55008, Note_on_c, 0, 77, 0
2, 55008, Note_on_c, 0, 89, 83
2, 55028, Note_on_c, 0, 89, 0
2, 55056, Note_on_c, 0, 75, 83
2, 55079, Note_on_c, 0, 75, 0
2, 55080, Note_on_c, 0, 87, 83
2, 55103, Note_on_c, 0, 87, 0
2, 55104, Note_on_c, 0, 73, 83
2, 55127, Note_on_c, 0, 73, 0
2, 55128, Note_on_c, 0, 85, 83
2, 55151, Note_on_c, 0, 85, 0
2, 55152, Note_on_c, 0, 72, 83
2, 55175, Note_on_c, 0, 72, 0
2, 55176, Note_on_c, 0, 84, 83
2, 55199, Note_on_c, 0, 84, 0
2, 55200, Note_on_c, 0, 70, 83
2, 55223, Note_on_c, 0, 70, 0
2, 55224, Note_on_c, 0, 82, 83
2, 55247, Note_on_c, 0, 82, 0
2, 55248, Note_on_c, 0, 68, 83
2, 55271, Note_on_c, 0, 68, 0
2, 55272, Note_on_c, 0, 80, 83
2, 55295, Note_on_c, 0, 80, 0
2, 55296, Note_on_c, 0, 67, 83
2, 55319, Note_on_c, 0, 67, 0
2, 55320, Note_on_c, 0, 79, 83
2, 55343, Note_on_c, 0, 79, 0
2, 55344, Note_on_c, 0, 65, 83
2, 55367, Note_on_c, 0, 65, 0
2, 55368, Note_on_c, 0, 77, 83
2, 55391, Note_on_c, 0, 77, 0
2, 55392, Note_on_c, 0, 63, 83
2, 55415, Note_on_c, 0, 63, 0
2, 55416, Note_on_c, 0, 75, 83
2, 55439, Note_on_c, 0, 75, 0
2, 55440, Note_on_c, 0, 62, 83
2, 55463, Note_on_c, 0, 62, 0
2, 55464, Note_on_c, 0, 74, 83
2, 55487, Note_on_c, 0, 74, 0
2, 55488, Note_on_c, 0, 63, 83
2, 55511, Note_on_c, 0, 63, 0
2, 55512, Note_on_c, 0, 75, 83
2, 55535, Note_on_c, 0, 75, 0
2, 55536, Note_on_c, 0, 73, 83
2, 55559, Note_on_c, 0, 73, 0
2, 55560, Note_on_c, 0, 77, 83
2, 55583, Note_on_c, 0, 77, 0
2, 55584, Note_on_c, 0, 75, 83
2, 55607, Note_on_c, 0, 75, 0
2, 55608, Note_on_c, 0, 72, 83
2, 55631, Note_on_c, 0, 72, 0
2, 55632, Note_on_c, 0, 73, 83
2, 55655, Note_on_c, 0, 73, 0
2, 55656, Note_on_c, 0, 70, 83
2, 55679, Note_on_c, 0, 70, 0
2, 55680, Note_on_c, 0, 72, 79
2, 55680, Note_on_c, 0, 68, 79
2, 55824, Note_on_c, 0, 72, 0
2, 55824, Note_on_c, 0, 68, 0
2, 55824, Note_on_c, 0, 70, 79
2, 55824, Note_on_c, 0, 67, 79
2, 55869, Note_on_c, 0, 70, 0
2, 55869, Note_on_c, 0, 67, 0
2, 55872, Note_on_c, 0, 73, 79
2, 55872, Note_on_c, 0, 70, 79
2, 56016, Note_on_c, 0, 73, 0
2, 56016, Note_on_c, 0, 70, 0
2, 56016, Note_on_c, 0, 72, 79
2, 56016, Note_on_c, 0, 68, 79
2, 56061, Note_on_c, 0, 72, 0
2, 56061, Note_on_c, 0, 68, 0
2, 56064, Note_on_c, 0, 75, 79
2, 56064, Note_on_c, 0, 72, 79
2, 56208, Note_on_c, 0, 75, 0
2, 56208, Note_on_c, 0, 72, 0
2, 56208, Note_on_c, 0, 73, 80
2, 56208, Note_on_c, 0, 70, 80
2, 56253, Note_on_c, 0, 73, 0
2, 56253, Note_on_c, 0, 70, 0
2, 56256, Note_on_c, 0, 77, 81
2, 56256, Note_on_c, 0, 73, 81
2, 56400, Note_on_c, 0, 77, 0
2, 56400, Note_on_c, 0, 73, 0
2, 56400, Note_on_c, 0, 75, 82
2, 56400, Note_on_c, 0, 72, 82
2, 56445, Note_on_c, 0, 75, 0
2, 56445, Note_on_c, 0, 72, 0
2, 56448, Note_on_c, 0, 78, 83
2, 56448, Note_on_c, 0, 75, 83
2, 56581, Note_on_c, 0, 78, 0
2, 56581, Note_on_c, 0, 75, 0
2, 56592, Note_on_c, 0, 77, 83
2, 56592, Note_on_c, 0, 73, 83
2, 56637, Note_on_c, 0, 77, 0
2, 56637, Note_on_c, 0, 73, 0
2, 56640, Note_on_c, 0, 75, 83
2, 56640, Note_on_c, 0, 72, 83
2, 56685, Note_on_c, 0, 75, 0
2, 56685, Note_on_c, 0, 72, 0
2, 56688, Note_on_c, 0, 73, 83
2, 56688, Note_on_c, 0, 70, 83
2, 56733, Note_on_c, 0, 73, 0
2, 56733, Note_on_c, 0, 70, 0
2, 56736, Note_on_c, 0, 72, 83
2, 56736, Note_on_c, 0, 69, 83
2, 56781, Note_on_c, 0, 72, 0
2, 56781, Note_on_c, 0, 69, 0
2, 56784, Note_on_c, 0, 70, 83
2, 56784, Note_on_c, 0, 65, 83
2, 56829, Note_on_c, 0, 70, 0
2, 56829, Note_on_c, 0, 65, 0
2, 56832, Note_on_c, 0, 69, 83
2, 56832, Note_on_c, 0, 63, 83
2, 56877, Note_on_c, 0, 69, 0
2, 56877, Note_on_c, 0, 63, 0
2, 56880, Note_on_c, 0, 66, 83
2, 56880, Note_on_c, 0, 61, 83
2, 56925, Note_on_c, 0, 66, 0
2, 56925, Note_on_c, 0, 61, 0
2, 56928, Note_on_c, 0, 65, 83
2, 56928, Note_on_c, 0, 60, 83
2, 56973, Note_on_c, 0, 65, 0
2, 56973, Note_on_c, 0, 60, 0
2, 56976, Note_on_c, 0, 64, 83
2, 56976, Note_on_c, 0, 58, 83
2, 57021, Note_on_c, 0, 64, 0
2, 57021, Note_on_c, 0, 58, 0
2, 57024, Note_on_c, 0, 63, 83
2, 57024, Note_on_c, 0, 60, 83
2, 57201, Note_on_c, 0, 63, 0
2, 57201, Note_on_c, 0, 60, 0
2, 57360, Note_on_c, 0, 75, 74
2, 57372, Note_on_c, 0, 75, 0
2, 57372, Note_on_c, 0, 73, 74
2, 57384, Note_on_c, 0, 73, 0
2, 57384, Note_on_c, 0, 72, 74
2, 57396, Note_on_c, 0, 72, 0
2, 57396, Note_on_c, 0, 70, 74
2, 57408, Note_on_c, 0, 70, 0
2, 57408, Note_on_c, 0, 69, 74
2, 57428, Note_on_c, 0, 69, 0
2, 57552, Note_on_c, 0, 80, 74
2, 57564, Note_on_c, 0, 80, 0
2, 57564, Note_on_c, 0, 78, 74
2, 57576, Note_on_c, 0, 78, 0
2, 57576, Note_on_c, 0, 77, 74
2, 57588, Note_on_c, 0, 77, 0
2, 57588, Note_on_c, 0, 75, 74
2, 57600, Note_on_c, 0, 75, 0
2, 57600, Note_on_c, 0, 73, 74
2, 57620, Note_on_c, 0, 73, 0
2, 57744, Note_on_c, 0, 75, 74
2, 57756, Note_on_c, 0, 75, 0
2, 57756, Note_on_c, 0, 73, 74
2, 57768, Note_on_c, 0, 73, 0
2, 57768, Note_on_c, 0, 72, 74
2, 57780, Note_on_c, 0, 72, 0
2, 57780, Note_on_c, 0, 70, 74
2, 57792, Note_on_c, 0, 70, 0
2, 57792, Note_on_c, 0, 69, 74
2, 57812, Note_on_c, 0, 69, 0
2, 57936, Note_on_c, 0, 80, 74
2, 57948, Note_on_c, 0, 80, 0
2, 57948, Note_on_c, 0, 78, 74
2, 57960, Note_on_c, 0, 78, 0
2, 57960, Note_on_c, 0, 77, 74
2, 57972, Note_on_c, 0, 77, 0
2, 57972, Note_on_c, 0, 75, 74
2, 57984, Note_on_c, 0, 75, 0
2, 57984, Note_on_c, 0, 73, 74
2, 58004, Note_on_c, 0, 73, 0
2, 58128, Note_on_c, 0, 78, 74
2, 58140, Note_on_c, 0, 78, 0
2, 58140, Note_on_c, 0, 77, 74
2, 58152, Note_on_c, 0, 77, 0
2, 58152, Note_on_c, 0, 75, 74
2, 58164, Note_on_c, 0, 75, 0
2, 58164, Note_on_c, 0, 73, 74
2, 58176, Note_on_c, 0, 73, 0
2, 58176, Note_on_c, 0, 72, 74
2, 58196, Note_on_c, 0, 72, 0
2, 58320, Note_on_c, 0, 84, 74
2, 58332, Note_on_c, 0, 84, 0
2, 58332, Note_on_c, 0, 82, 74
2, 58344, Note_on_c, 0, 82, 0
2, 58344, Note_on_c, 0, 80, 74
2, 58356, Note_on_c, 0, 80, 0
2, 58356, Note_on_c, 0, 78, 74
2, 58368, Note_on_c, 0, 78, 0
2, 58368, Note_on_c, 0, 77, 74
2, 58388, Note_on_c, 0, 77, 0
2, 58512, Note_on_c, 0, 78, 74
2, 58524, Note_on_c, 0, 78, 0
2, 58524, Note_on_c, 0, 77, 74
2, 58536, Note_on_c, 0, 77, 0
2, 58536, Note_on_c, 0, 75, 74
2, 58548, Note_on_c, 0, 75, 0
2, 58548, Note_on_c, 0, 73, 74
2, 58560, Note_on_c, 0, 73, 0
2, 58560, Note_on_c, 0, 72, 74
2, 58580, Note_on_c, 0, 72, 0
2, 58704, Note_on_c, 0, 84, 74
2, 58716, Note_on_c, 0, 84, 0
2, 58716, Note_on_c, 0, 82, 74
2, 58728, Note_on_c, 0, 82, 0
2, 58728, Note_on_c, 0, 80, 74
2, 58740, Note_on_c, 0, 80, 0
2, 58740, Note_on_c, 0, 78, 74
2, 58752, Note_on_c, 0, 78, 0
2, 58752, Note_on_c, 0, 77, 74
2, 58772, Note_on_c, 0, 77, 0
2, 58800, Note_on_c, 0, 89, 90
2, 58816, Note_on_c, 0, 89, 0
2, 58816, Note_on_c, 0, 87, 74
2, 58831, Note_on_c, 0, 87, 0
2, 58832, Note_on_c, 0, 85, 74
2, 58847, Note_on_c, 0, 85, 0
2, 58848, Note_on_c, 0, 84, 74
2, 58863, Note_on_c, 0, 84, 0
2, 58864, Note_on_c, 0, 82, 74
2, 58879, Note_on_c, 0, 82, 0
2, 58880, Note_on_c, 0, 80, 74
2, 58895, Note_on_c, 0, 80, 0
2, 58896, Note_on_c, 0, 78, 74
2, 58911, Note_on_c, 0, 78, 0
2, 58912, Note_on_c, 0, 77, 74
2, 58927, Note_on_c, 0, 77, 0
2, 58928, Note_on_c, 0, 75, 74
2, 58943, Note_on_c, 0, 75, 0
2, 58944, Note_on_c, 0, 73, 74
2, 58964, Note_on_c, 0, 73, 0
2, 58992, Note_on_c, 0, 77, 83
2, 59007, Note_on_c, 0, 77, 0
2, 59008, Note_on_c, 0, 75, 83
2, 59023, Note_on_c, 0, 75, 0
2, 59024, Note_on_c, 0, 73, 83
2, 59039, Note_on_c, 0, 73, 0
2, 59040, Note_on_c, 0, 72, 83
2, 59055, Note_on_c, 0, 72, 0
2, 59056, Note_on_c, 0, 70, 83
2, 59071, Note_on_c, 0, 70, 0
2, 59072, Note_on_c, 0, 68, 83
2, 59087, Note_on_c, 0, 68, 0
2, 59088, Note_on_c, 0, 66, 83
2, 59103, Note_on_c, 0, 66, 0
2, 59104, Note_on_c, 0, 65, 83
2, 59119, Note_on_c, 0, 65, 0
2, 59120, Note_on_c, 0, 63, 83
2, 59135, Note_on_c, 0, 63, 0
2, 59136, Note_on_c, 0, 61, 83
2, 59225, Note_on_c, 0, 61, 0
2, 59232, Note_on_c, 0, 59, 83
2, 59241, Note_on_c, 0, 59, 0
2, 59241, Note_on_c, 0, 61, 83
2, 59250, Note_on_c, 0, 61, 0
2, 59250, Note_on_c, 0, 59, 83
2, 59259, Note_on_c, 0, 59, 0
2, 59259, Note_on_c, 0, 61, 83
2, 59268, Note_on_c, 0, 61, 0
2, 59268, Note_on_c, 0, 59, 83
2, 59277, Note_on_c, 0, 59, 0
2, 59277, Note_on_c, 0, 61, 83
2, 59286, Note_on_c, 0, 61, 0
2, 59286, Note_on_c, 0, 59, 83
2, 59295, Note_on_c, 0, 59, 0
2, 59295, Note_on_c, 0, 61, 83
2, 59304, Note_on_c, 0, 61, 0
2, 59304, Note_on_c, 0, 59, 83
2, 59312, Note_on_c, 0, 59, 0
2, 59312, Note_on_c, 0, 58, 83
2, 59320, Note_on_c, 0, 58, 0
2, 59320, Note_on_c, 0, 59, 83
2, 59328, Note_on_c, 0, 59, 0
2, 59328, Note_on_c, 0, 58, 83
2, 59343, Note_on_c, 0, 58, 0
2, 59344, Note_on_c, 0, 62, 83
2, 59359, Note_on_c, 0, 62, 0
2, 59360, Note_on_c, 0, 65, 83
2, 59375, Note_on_c, 0, 65, 0
2, 59376, Note_on_c, 0, 62, 83
2, 59391, Note_on_c, 0, 62, 0
2, 59392, Note_on_c, 0, 65, 83
2, 59407, Note_on_c, 0, 65, 0
2, 59408, Note_on_c, 0, 70, 84
2, 59423, Note_on_c, 0, 70, 0
2, 59424, Note_on_c, 0, 65, 84
2, 59439, Note_on_c, 0, 65, 0
2, 59440, Note_on_c, 0, 70, 84
2, 59455, Note_on_c, 0, 70, 0
2, 59456, Note_on_c, 0, 74, 84
2, 59471, Note_on_c, 0, 74, 0
2, 59472, Note_on_c, 0, 70, 84
2, 59487, Note_on_c, 0, 70, 0
2, 59488, Note_on_c, 0, 74, 85
2, 59503, Note_on_c, 0, 74, 0
2, 59504, Note_on_c, 0, 77, 85
2, 59519, Note_on_c, 0, 77, 0
2, 59520, Note_on_c, 0, 74, 85
2, 59535, Note_on_c, 0, 74, 0
2, 59536, Note_on_c, 0, 77, 85
2, 59551, Note_on_c, 0, 77, 0
2, 59552, Note_on_c, 0, 80, 85
2, 59567, Note_on_c, 0, 80, 0
2, 59568, Note_on_c, 0, 77, 86
2, 59583, Note_on_c, 0, 77, 0
2, 59584, Note_on_c, 0, 80, 86
2, 59599, Note_on_c, 0, 80, 0
2, 59600, Note_on_c, 0, 83, 86
2, 59615, Note_on_c, 0, 83, 0
2, 59616, Note_on_c, 0, 82, 83
2, 59631, Note_on_c, 0, 82, 0
2, 59632, Note_on_c, 0, 80, 81
2, 59647, Note_on_c, 0, 80, 0
2, 59648, Note_on_c, 0, 78, 80
2, 59663, Note_on_c, 0, 78, 0
2, 59664, Note_on_c, 0, 77, 79
2, 59679, Note_on_c, 0, 77, 0
2, 59680, Note_on_c, 0, 75, 78
2, 59695, Note_on_c, 0, 75, 0
2, 59696, Note_on_c, 0, 74, 76
2, 59711, Note_on_c, 0, 74, 0
2, 59712, Note_on_c, 0, 75, 75
2, 59757, Note_on_c, 0, 75, 0
2, 59856, Note_on_c, 0, 80, 68
2, 59868, Note_on_c, 0, 80, 0
2, 59868, Note_on_c, 0, 78, 68
2, 59880, Note_on_c, 0, 78, 0
2, 59880, Note_on_c, 0, 77, 68
2, 59892, Note_on_c, 0, 77, 0
2, 59892, Note_on_c, 0, 75, 68
2, 59904, Note_on_c, 0, 75, 0
2, 59904, Note_on_c, 0, 74, 68
2, 59924, Note_on_c, 0, 74, 0
2, 60048, Note_on_c, 0, 85, 68
2, 60060, Note_on_c, 0, 85, 0
2, 60060, Note_on_c, 0, 83, 68
2, 60072, Note_on_c, 0, 83, 0
2, 60072, Note_on_c, 0, 82, 68
2, 60084, Note_on_c, 0, 82, 0
2, 60084, Note_on_c, 0, 80, 68
2, 60096, Note_on_c, 0, 80, 0
2, 60096, Note_on_c, 0, 78, 68
2, 60116, Note_on_c, 0, 78, 0
2, 60240, Note_on_c, 0, 80, 68
2, 60252, Note_on_c, 0, 80, 0
2, 60252, Note_on_c, 0, 78, 68
2, 60264, Note_on_c, 0, 78, 0
2, 60264, Note_on_c, 0, 77, 68
2, 60276, Note_on_c, 0, 77, 0
2, 60276, Note_on_c, 0, 75, 68
2, 60288, Note_on_c, 0, 75, 0
2, 60288, Note_on_c, 0, 74, 68
2, 60308, Note_on_c, 0, 74, 0
2, 60432, Note_on_c, 0, 85, 68
2, 60444, Note_on_c, 0, 85, 0
2, 60444, Note_on_c, 0, 83, 68
2, 60456, Note_on_c, 0, 83, 0
2, 60456, Note_on_c, 0, 82, 68
2, 60468, Note_on_c, 0, 82, 0
2, 60468, Note_on_c, 0, 80, 68
2, 60480, Note_on_c, 0, 80, 0
2, 60480, Note_on_c, 0, 78, 68
2, 60569, Note_on_c, 0, 78, 0
2, 60576, Note_on_c, 0, 79, 83
2, 60585, Note_on_c, 0, 79, 0
2, 60585, Note_on_c, 0, 80, 83
2, 60594, Note_on_c, 0, 80, 0
2, 60594, Note_on_c, 0, 79, 83
2, 60603, Note_on_c, 0, 79, 0
2, 60603, Note_on_c, 0, 80, 83
2, 60612, Note_on_c, 0, 80, 0
2, 60612, Note_on_c, 0, 79, 83
2, 60621, Note_on_c, 0, 79, 0
2, 60621, Note_on_c, 0, 80, 83
2, 60630, Note_on_c, 0, 80, 0
2, 60630, Note_on_c, 0, 79, 83
2, 60639, Note_on_c, 0, 79, 0
2, 60639, Note_on_c, 0, 80, 83
2, 60648, Note_on_c, 0, 80, 0
2, 60648, Note_on_c, 0, 79, 83
2, 60656, Note_on_c, 0, 79, 0
2, 60656, Note_on_c, 0, 77, 83
2, 60664, Note_on_c, 0, 77, 0
2, 60664, Note_on_c, 0, 79, 83
2, 60672, Note_on_c, 0, 79, 0
2, 60672, Note_on_c, 0, 80, 83
2, 60695, Note_on_c, 0, 80, 0
2, 60696, Note_on_c, 0, 82, 83
2, 60704, Note_on_c, 0, 82, 0
2, 60704, Note_on_c, 0, 80, 83
2, 60712, Note_on_c, 0, 80, 0
2, 60712, Note_on_c, 0, 79, 83
2, 60720, Note_on_c, 0, 79, 0
2, 60720, Note_on_c, 0, 80, 83
2, 60743, Note_on_c, 0, 80, 0
2, 60744, Note_on_c, 0, 82, 83
2, 60767, Note_on_c, 0, 82, 0
2, 60768, Note_on_c, 0, 85, 83
2, 60791, Note_on_c, 0, 85, 0
2, 60792, Note_on_c, 0, 83, 83
2, 60815, Note_on_c, 0, 83, 0
2, 60816, Note_on_c, 0, 82, 83
2, 60839, Note_on_c, 0, 82, 0
2, 60840, Note_on_c, 0, 80, 83
2, 60863, Note_on_c, 0, 80, 0
2, 60864, Note_on_c, 0, 78, 83
2, 60953, Note_on_c, 0, 78, 0
2, 60960, Note_on_c, 0, 77, 83
2, 60969, Note_on_c, 0, 77, 0
2, 60969, Note_on_c, 0, 78, 83
2, 60978, Note_on_c, 0, 78, 0
2, 60978, Note_on_c, 0, 77, 83
2, 60987, Note_on_c, 0, 77, 0
2, 60987, Note_on_c, 0, 78, 83
2, 60996, Note_on_c, 0, 78, 0
2, 60996, Note_on_c, 0, 77, 83
2, 61005, Note_on_c, 0, 77, 0
2, 61005, Note_on_c, 0, 78, 83
2, 61014, Note_on_c, 0, 78, 0
2, 61014, Note_on_c, 0, 77, 83
2, 61023, Note_on_c, 0, 77, 0
2, 61023, Note_on_c, 0, 78, 83
2, 61032, Note_on_c, 0, 78, 0
2, 61032, Note_on_c, 0, 77, 83
2, 61040, Note_on_c, 0, 77, 0
2, 61040, Note_on_c, 0, 75, 83
2, 61048, Note_on_c, 0, 75, 0
2, 61048, Note_on_c, 0, 77, 83
2, 61056, Note_on_c, 0, 77, 0
2, 61056, Note_on_c, 0, 78, 83
2, 61079, Note_on_c, 0, 78, 0
2, 61080, Note_on_c, 0, 80, 83
2, 61088, Note_on_c, 0, 80, 0
2, 61088, Note_on_c, 0, 78, 83
2, 61096, Note_on_c, 0, 78, 0
2, 61096, Note_on_c, 0, 77, 83
2, 61104, Note_on_c, 0, 77, 0
2, 61104, Note_on_c, 0, 78, 83
2, 61127, Note_on_c, 0, 78, 0
2, 61128, Note_on_c, 0, 80, 83
2, 61151, Note_on_c, 0, 80, 0
2, 61152, Note_on_c, 0, 83, 83
2, 61175, Note_on_c, 0, 83, 0
2, 61176, Note_on_c, 0, 82, 83
2, 61199, Note_on_c, 0, 82, 0
2, 61200, Note_on_c, 0, 80, 83
2, 61223, Note_on_c, 0, 80, 0
2, 61224, Note_on_c, 0, 78, 83
2, 61247, Note_on_c, 0, 78, 0
2, 61248, Note_on_c, 0, 77, 83
2, 61337, Note_on_c, 0, 77, 0
2, 61344, Note_on_c, 0, 75, 83
2, 61353, Note_on_c, 0, 75, 0
2, 61353, Note_on_c, 0, 77, 83
2, 61362, Note_on_c, 0, 77, 0
2, 61362, Note_on_c, 0, 75, 83
2, 61371, Note_on_c, 0, 75, 0
2, 61371, Note_on_c, 0, 77, 83
2, 61380, Note_on_c, 0, 77, 0
2, 61380, Note_on_c, 0, 75, 83
2, 61389, Note_on_c, 0, 75, 0
2, 61389, Note_on_c, 0, 77, 83
2, 61398, Note_on_c, 0, 77, 0
2, 61398, Note_on_c, 0, 75, 83
2, 61407, Note_on_c, 0, 75, 0
2, 61407, Note_on_c, 0, 77, 83
2, 61416, Note_on_c, 0, 77, 0
2, 61416, Note_on_c, 0, 75, 83
2, 61424, Note_on_c, 0, 75, 0
2, 61424, Note_on_c, 0, 74, 83
2, 61432, Note_on_c, 0, 74, 0
2, 61432, Note_on_c, 0, 75, 83
2, 61440, Note_on_c, 0, 75, 0
2, 61440, Note_on_c, 0, 77, 83
2, 61463, Note_on_c, 0, 77, 0
2, 61464, Note_on_c, 0, 78, 83
2, 61472, Note_on_c, 0, 78, 0
2, 61472, Note_on_c, 0, 77, 83
2, 61480, Note_on_c, 0, 77, 0
2, 61480, Note_on_c, 0, 75, 83
2, 61488, Note_on_c, 0, 75, 0
2, 61488, Note_on_c, 0, 77, 83
2, 61511, Note_on_c, 0, 77, 0
2, 61512, Note_on_c, 0, 78, 83
2, 61535, Note_on_c, 0, 78, 0
2, 61536, Note_on_c, 0, 82, 83
2, 61559, Note_on_c, 0, 82, 0
2, 61560, Note_on_c, 0, 80, 83
2, 61583, Note_on_c, 0, 80, 0
2, 61584, Note_on_c, 0, 78, 83
2, 61607, Note_on_c, 0, 78, 0
2, 61608, Note_on_c, 0, 77, 83
2, 61631, Note_on_c, 0, 77, 0
2, 61632, Note_on_c, 0, 75, 83
2, 61721, Note_on_c, 0, 75, 0
2, 61728, Note_on_c, 0, 74, 83
2, 61737, Note_on_c, 0, 74, 0
2, 61737, Note_on_c, 0, 75, 83
2, 61746, Note_on_c, 0, 75, 0
2, 61746, Note_on_c, 0, 74, 83
2, 61755, Note_on_c, 0, 74, 0
2, 61755, Note_on_c, 0, 75, 83
2, 61764, Note_on_c, 0, 75, 0
2, 61764, Note_on_c, 0, 74, 83
2, 61773, Note_on_c, 0, 74, 0
2, 61773, Note_on_c, 0, 75, 83
2, 61782, Note_on_c, 0, 75, 0
2, 61782, Note_on_c, 0, 74, 83
2, 61791, Note_on_c, 0, 74, 0
2, 61791, Note_on_c, 0, 75, 83
2, 61800, Note_on_c, 0, 75, 0
2, 61800, Note_on_c, 0, 74, 83
2, 61808, Note_on_c, 0, 74, 0
2, 61808, Note_on_c, 0, 72, 83
2, 61816, Note_on_c, 0, 72, 0
2, 61816, Note_on_c, 0, 74, 83
2, 61824, Note_on_c, 0, 74, 0
2, 61824, Note_on_c, 0, 75, 83
2, 61913, Note_on_c, 0, 75, 0
2, 61944, Note_on_c, 0, 75, 83
2, 61967, Note_on_c, 0, 75, 0
2, 61968, Note_on_c, 0, 77, 83
2, 61976, Note_on_c, 0, 77, 0
2, 61976, Note_on_c, 0, 75, 83
2, 61984, Note_on_c, 0, 75, 0
2, 61984, Note_on_c, 0, 77, 83
2, 61992, Note_on_c, 0, 77, 0
2, 61992, Note_on_c, 0, 75, 83
2, 62000, Note_on_c, 0, 75, 0
2, 62000, Note_on_c, 0, 74, 83
2, 62008, Note_on_c, 0, 74, 0
2, 62008, Note_on_c, 0, 75, 83
2, 62016, Note_on_c, 0, 75, 0
2, 62016, Note_on_c, 0, 79, 83
2, 62061, Note_on_c, 0, 79, 0
2, 62064, Note_on_c, 0, 75, 83
2, 62109, Note_on_c, 0, 75, 0
2, 62136, Note_on_c, 0, 75, 83
2, 62159, Note_on_c, 0, 75, 0
2, 62160, Note_on_c, 0, 77, 83
2, 62168, Note_on_c, 0, 77, 0
2, 62168, Note_on_c, 0, 75, 83
2, 62176, Note_on_c, 0, 75, 0
2, 62176, Note_on_c, 0, 77, 83
2, 62184, Note_on_c, 0, 77, 0
2, 62184, Note_on_c, 0, 75, 83
2, 62192, Note_on_c, 0, 75, 0
2, 62192, Note_on_c, 0, 74, 83
2, 62200, Note_on_c, 0, 74, 0
2, 62200, Note_on_c, 0, 75, 83
2, 62208, Note_on_c, 0, 75, 0
2, 62208, Note_on_c, 0, 79, 83
2, 62253, Note_on_c, 0, 79, 0
2, 62256, Note_on_c, 0, 75, 83
2, 62301, Note_on_c, 0, 75, 0
2, 62328, Note_on_c, 0, 75, 83
2, 62351, Note_on_c, 0, 75, 0
2, 62352, Note_on_c, 0, 77, 83
2, 62360, Note_on_c, 0, 77, 0
2, 62360, Note_on_c, 0, 75, 83
2, 62368, Note_on_c, 0, 75, 0
2, 62368, Note_on_c, 0, 77, 83
2, 62376, Note_on_c, 0, 77, 0
2, 62376, Note_on_c, 0, 75, 83
2, 62384, Note_on_c, 0, 75, 0
2, 62384, Note_on_c, 0, 74, 83
2, 62392, Note_on_c, 0, 74, 0
2, 62392, Note_on_c, 0, 75, 83
2, 62400, Note_on_c, 0, 75, 0
2, 62400, Note_on_c, 0, 84, 83
2, 62445, Note_on_c, 0, 84, 0
2, 62448, Note_on_c, 0, 75, 83
2, 62493, Note_on_c, 0, 75, 0
2, 62520, Note_on_c, 0, 75, 83
2, 62543, Note_on_c, 0, 75, 0
2, 62544, Note_on_c, 0, 77, 83
2, 62552, Note_on_c, 0, 77, 0
2, 62552, Note_on_c, 0, 75, 83
2, 62560, Note_on_c, 0, 75, 0
2, 62560, Note_on_c, 0, 77, 83
2, 62568, Note_on_c, 0, 77, 0
2, 62568, Note_on_c, 0, 75, 83
2, 62576, Note_on_c, 0, 75, 0
2, 62576, Note_on_c, 0, 74, 83
2, 62584, Note_on_c, 0, 74, 0
2, 62584, Note_on_c, 0, 75, 83
2, 62592, Note_on_c, 0, 75, 0
2, 62592, Note_on_c, 0, 70, 79
2, 62607, Note_on_c, 0, 70, 0
2, 62608, Note_on_c, 0, 75, 79
2, 62623, Note_on_c, 0, 75, 0
2, 62624, Note_on_c, 0, 79, 79
2, 62639, Note_on_c, 0, 79, 0
2, 62640, Note_on_c, 0, 70, 79
2, 62655, Note_on_c, 0, 70, 0
2, 62656, Note_on_c, 0, 75, 80
2, 62671, Note_on_c, 0, 75, 0
2, 62672, Note_on_c, 0, 79, 80
2, 62687, Note_on_c, 0, 79, 0
2, 62688, Note_on_c, 0, 71, 80
2, 62703, Note_on_c, 0, 71, 0
2, 62704, Note_on_c, 0, 75, 80
2, 62719, Note_on_c, 0, 75, 0
2, 62720, Note_on_c, 0, 79, 81
2, 62735, Note_on_c, 0, 79, 0
2, 62736, Note_on_c, 0, 71, 81
2, 62751, Note_on_c, 0, 71, 0
2, 62752, Note_on_c, 0, 75, 81
2, 62767, Note_on_c, 0, 75, 0
2, 62768, Note_on_c, 0, 79, 82
2, 62783, Note_on_c, 0, 79, 0
2, 62784, Note_on_c, 0, 72, 82
2, 62799, Note_on_c, 0, 72, 0
2, 62800, Note_on_c, 0, 75, 82
2, 62815, Note_on_c, 0, 75, 0
2, 62816, Note_on_c, 0, 79, 82
2, 62831, Note_on_c, 0, 79, 0
2, 62832, Note_on_c, 0, 72, 83
2, 62847, Note_on_c, 0, 72, 0
2, 62848, Note_on_c, 0, 75, 83
2, 62863, Note_on_c, 0, 75, 0
2, 62864, Note_on_c, 0, 79, 83
2, 62879, Note_on_c, 0, 79, 0
2, 62880, Note_on_c, 0, 73, 83
2, 62895, Note_on_c, 0, 73, 0
2, 62896, Note_on_c, 0, 76, 84
2, 62911, Note_on_c, 0, 76, 0
2, 62912, Note_on_c, 0, 79, 84
2, 62927, Note_on_c, 0, 79, 0
2, 62928, Note_on_c, 0, 73, 84
2, 62943, Note_on_c, 0, 73, 0
2, 62944, Note_on_c, 0, 76, 85
2, 62959, Note_on_c, 0, 76, 0
2, 62960, Note_on_c, 0, 79, 85
2, 62975, Note_on_c, 0, 79, 0
2, 62976, Note_on_c, 0, 74, 85
2, 62991, Note_on_c, 0, 74, 0
2, 62992, Note_on_c, 0, 79, 88
2, 63007, Note_on_c, 0, 79, 0
2, 63008, Note_on_c, 0, 82, 88
2, 63023, Note_on_c, 0, 82, 0
2, 63024, Note_on_c, 0, 86, 88
2, 63039, Note_on_c, 0, 86, 0
2, 63040, Note_on_c, 0, 82, 88
2, 63055, Note_on_c, 0, 82, 0
2, 63056, Note_on_c, 0, 79, 88
2, 63071, Note_on_c, 0, 79, 0
2, 63072, Note_on_c, 0, 74, 88
2, 63087, Note_on_c, 0, 74, 0
2, 63088, Note_on_c, 0, 79, 88
2, 63103, Note_on_c, 0, 79, 0
2, 63104, Note_on_c, 0, 82, 88
2, 63119, Note_on_c, 0, 82, 0
2, 63120, Note_on_c, 0, 86, 88
2, 63135, Note_on_c, 0, 86, 0
2, 63136, Note_on_c, 0, 82, 88
2, 63151, Note_on_c, 0, 82, 0
2, 63152, Note_on_c, 0, 79, 88
2, 63167, Note_on_c, 0, 79, 0
2, 63168, Note_on_c, 0, 74, 88
2, 63183, Note_on_c, 0, 74, 0
2, 63184, Note_on_c, 0, 78, 88
2, 63199, Note_on_c, 0, 78, 0
2, 63200, Note_on_c, 0, 81, 88
2, 63215, Note_on_c, 0, 81, 0
2, 63216, Note_on_c, 0, 84, 88
2, 63231, Note_on_c, 0, 84, 0
2, 63232, Note_on_c, 0, 81, 88
2, 63247, Note_on_c, 0, 81, 0
2, 63248, Note_on_c, 0, 78, 88
2, 63263, Note_on_c, 0, 78, 0
2, 63264, Note_on_c, 0, 74, 88
2, 63279, Note_on_c, 0, 74, 0
2, 63280, Note_on_c, 0, 78, 88
2, 63295, Note_on_c, 0, 78, 0
2, 63296, Note_on_c, 0, 81, 88
2, 63311, Note_on_c, 0, 81, 0
2, 63312, Note_on_c, 0, 84, 88
2, 63327, Note_on_c, 0, 84, 0
2, 63328, Note_on_c, 0, 81, 88
2, 63343, Note_on_c, 0, 81, 0
2, 63344, Note_on_c, 0, 78, 88
2, 63359, Note_on_c, 0, 78, 0
2, 63360, Note_on_c, 0, 79, 88
2, 63375, Note_on_c, 0, 79, 0
2, 63376, Note_on_c, 0, 82, 88
2, 63391, Note_on_c, 0, 82, 0
2, 63392, Note_on_c, 0, 81, 88
2, 63407, Note_on_c, 0, 81, 0
2, 63408, Note_on_c, 0, 79, 88
2, 63423, Note_on_c, 0, 79, 0
2, 63424, Note_on_c, 0, 77, 88
2, 63439, Note_on_c, 0, 77, 0
2, 63440, Note_on_c, 0, 75, 88
2, 63455, Note_on_c, 0, 75, 0
2, 63456, Note_on_c, 0, 74, 88
2, 63471, Note_on_c, 0, 74, 0
2, 63472, Note_on_c, 0, 72, 88
2, 63487, Note_on_c, 0, 72, 0
2, 63488, Note_on_c, 0, 70, 88
2, 63503, Note_on_c, 0, 70, 0
2, 63504, Note_on_c, 0, 69, 88
2, 63519, Note_on_c, 0, 69, 0
2, 63520, Note_on_c, 0, 67, 88
2, 63535, Note_on_c, 0, 67, 0
2, 63536, Note_on_c, 0, 65, 88
2, 63551, Note_on_c, 0, 65, 0
2, 63552, Note_on_c, 0, 63, 88
2, 63567, Note_on_c, 0, 63, 0
2, 63568, Note_on_c, 0, 67, 88
2, 63583, Note_on_c, 0, 67, 0
2, 63584, Note_on_c, 0, 70, 88
2, 63599, Note_on_c, 0, 70, 0
2, 63600, Note_on_c, 0, 63, 88
2, 63615, Note_on_c, 0, 63, 0
2, 63616, Note_on_c, 0, 67, 88
2, 63631, Note_on_c, 0, 67, 0
2, 63632, Note_on_c, 0, 70, 88
2, 63647, Note_on_c, 0, 70, 0
2, 63648, Note_on_c, 0, 62, 88
2, 63663, Note_on_c, 0, 62, 0
2, 63664, Note_on_c, 0, 67, 88
2, 63679, Note_on_c, 0, 67, 0
2, 63680, Note_on_c, 0, 70, 88
2, 63695, Note_on_c, 0, 70, 0
2, 63696, Note_on_c, 0, 62, 88
2, 63711, Note_on_c, 0, 62, 0
2, 63712, Note_on_c, 0, 67, 88
2, 63727, Note_on_c, 0, 67, 0
2, 63728, Note_on_c, 0, 70, 88
2, 63743, Note_on_c, 0, 70, 0
2, 63744, Note_on_c, 0, 61, 88
2, 63759, Note_on_c, 0, 61, 0
2, 63760, Note_on_c, 0, 67, 88
2, 63775, Note_on_c, 0, 67, 0
2, 63776, Note_on_c, 0, 70, 88
2, 63791, Note_on_c, 0, 70, 0
2, 63792, Note_on_c, 0, 61, 88
2, 63807, Note_on_c, 0, 61, 0
2, 63808, Note_on_c, 0, 67, 88
2, 63823, Note_on_c, 0, 67, 0
2, 63824, Note_on_c, 0, 70, 88
2, 63839, Note_on_c, 0, 70, 0
2, 63840, Note_on_c, 0, 61, 88
2, 63855, Note_on_c, 0, 61, 0
2, 63856, Note_on_c, 0, 67, 88
2, 63871, Note_on_c, 0, 67, 0
2, 63872, Note_on_c, 0, 70, 88
2, 63887, Note_on_c, 0, 70, 0
2, 63888, Note_on_c, 0, 61, 88
2, 63903, Note_on_c, 0, 61, 0
2, 63904, Note_on_c, 0, 67, 88
2, 63919, Note_on_c, 0, 67, 0
2, 63920, Note_on_c, 0, 70, 88
2, 63935, Note_on_c, 0, 70, 0
2, 63936, Note_on_c, 0, 62, 88
2, 63951, Note_on_c, 0, 62, 0
2, 63952, Note_on_c, 0, 67, 88
2, 63967, Note_on_c, 0, 67, 0
2, 63968, Note_on_c, 0, 70, 88
2, 63983, Note_on_c, 0, 70, 0
2, 63984, Note_on_c, 0, 74, 88
2, 63999, Note_on_c, 0, 74, 0
2, 64000, Note_on_c, 0, 70, 88
2, 64015, Note_on_c, 0, 70, 0
2, 64016, Note_on_c, 0, 67, 88
2, 64031, Note_on_c, 0, 67, 0
2, 64032, Note_on_c, 0, 62, 88
2, 64052, Note_on_c, 0, 62, 0
2, 64080, Note_on_c, 0, 66, 88
2, 64080, Note_on_c, 0, 60, 88
2, 64100, Note_on_c, 0, 66, 0
2, 64100, Note_on_c, 0, 60, 0
2, 64224, Note_on_c, 0, 79, 74
2, 64247, Note_on_c, 0, 79, 0
2, 64248, Note_on_c, 0, 78, 75
2, 64271, Note_on_c, 0, 78, 0
2, 64272, Note_on_c, 0, 81, 76
2, 64295, Note_on_c, 0, 81, 0
2, 64296, Note_on_c, 0, 79, 77
2, 64319, Note_on_c, 0, 79, 0
2, 64320, Note_on_c, 0, 82, 79
2, 64343, Note_on_c, 0, 82, 0
2, 64344, Note_on_c, 0, 81, 77
2, 64367, Note_on_c, 0, 81, 0
2, 64368, Note_on_c, 0, 79, 76
2, 64391, Note_on_c, 0, 79, 0
2, 64392, Note_on_c, 0, 77, 75
2, 64415, Note_on_c, 0, 77, 0
2, 64416, Note_on_c, 0, 75, 74
2, 64461, Note_on_c, 0, 75, 0
2, 64464, Note_on_c, 0, 74, 74
2, 64509, Note_on_c, 0, 74, 0
2, 64512, Note_on_c, 0, 74, 74
2, 64608, Note_on_c, 0, 74, 0
2, 64608, Note_on_c, 0, 73, 83
2, 64631, Note_on_c, 0, 73, 0
2, 64632, Note_on_c, 0, 69, 83
2, 64655, Note_on_c, 0, 69, 0
2, 64656, Note_on_c, 0, 70, 83
2, 64668, Note_on_c, 0, 70, 0
2, 64668, Note_on_c, 0, 69, 83
2, 64680, Note_on_c, 0, 69, 0
2, 64680, Note_on_c, 0, 68, 83
2, 64692, Note_on_c, 0, 68, 0
2, 64692, Note_on_c, 0, 69, 83
2, 64704, Note_on_c, 0, 69, 0
2, 64704, Note_on_c, 0, 74, 83
2, 64727, Note_on_c, 0, 74, 0
2, 64728, Note_on_c, 0, 69, 83
2, 64751, Note_on_c, 0, 69, 0
2, 64752, Note_on_c, 0, 70, 83
2, 64764, Note_on_c, 0, 70, 0
2, 64764, Note_on_c, 0, 69, 83
2, 64776, Note_on_c, 0, 69, 0
2, 64776, Note_on_c, 0, 68, 83
2, 64788, Note_on_c, 0, 68, 0
2, 64788, Note_on_c, 0, 69, 83
2, 64800, Note_on_c, 0, 69, 0
2, 64800, Note_on_c, 0, 76, 83
2, 64823, Note_on_c, 0, 76, 0
2, 64824, Note_on_c, 0, 69, 83
2, 64847, Note_on_c, 0, 69, 0
2, 64848, Note_on_c, 0, 70, 83
2, 64860, Note_on_c, 0, 70, 0
2, 64860, Note_on_c, 0, 69, 83
2, 64872, Note_on_c, 0, 69, 0
2, 64872, Note_on_c, 0, 68, 83
2, 64884, Note_on_c, 0, 68, 0
2, 64884, Note_on_c, 0, 69, 83
2, 64896, Note_on_c, 0, 69, 0
2, 64896, Note_on_c, 0, 77, 83
2, 64941, Note_on_c, 0, 77, 0
2, 64992, Note_on_c, 0, 77, 74
2, 65015, Note_on_c, 0, 77, 0
2, 65016, Note_on_c, 0, 76, 74
2, 65039, Note_on_c, 0, 76, 0
2, 65040, Note_on_c, 0, 79, 75
2, 65063, Note_on_c, 0, 79, 0
2, 65064, Note_on_c, 0, 77, 77
2, 65087, Note_on_c, 0, 77, 0
2, 65088, Note_on_c, 0, 80, 79
2, 65111, Note_on_c, 0, 80, 0
2, 65112, Note_on_c, 0, 79, 77
2, 65135, Note_on_c, 0, 79, 0
2, 65136, Note_on_c, 0, 77, 76
2, 65159, Note_on_c, 0, 77, 0
2, 65160, Note_on_c, 0, 75, 75
2, 65183, Note_on_c, 0, 75, 0
2, 65184, Note_on_c, 0, 74, 74
2, 65229, Note_on_c, 0, 74, 0
2, 65232, Note_on_c, 0, 72, 74
2, 65277, Note_on_c, 0, 72, 0
2, 65280, Note_on_c, 0, 72, 74
2, 65376, Note_on_c, 0, 72, 0
2, 65376, Note_on_c, 0, 71, 83
2, 65399, Note_on_c, 0, 71, 0
2, 65400, Note_on_c, 0, 67, 83
2, 65423, Note_on_c, 0, 67, 0
2, 65424, Note_on_c, 0, 68, 83
2, 65436, Note_on_c, 0, 68, 0
2, 65436, Note_on_c, 0, 67, 83
2, 65448, Note_on_c, 0, 67, 0
2, 65448, Note_on_c, 0, 66, 83
2, 65460, Note_on_c, 0, 66, 0
2, 65460, Note_on_c, 0, 67, 83
2, 65472, Note_on_c, 0, 67, 0
2, 65472, Note_on_c, 0, 72, 83
2, 65495, Note_on_c, 0, 72, 0
2, 65496, Note_on_c, 0, 67, 83
2, 65519, Note_on_c, 0, 67, 0
2, 65520, Note_on_c, 0, 68, 83
2, 65532, Note_on_c, 0, 68, 0
2, 65532, Note_on_c, 0, 67, 83
2, 65544, Note_on_c, 0, 67, 0
2, 65544, Note_on_c, 0, 66, 83
2, 65556, Note_on_c, 0, 66, 0
2, 65556, Note_on_c, 0, 67, 83
2, 65568, Note_on_c, 0, 67, 0
2, 65568, Note_on_c, 0, 74, 83
2, 65591, Note_on_c, 0, 74, 0
2, 65592, Note_on_c, 0, 67, 83
2, 65615, Note_on_c, 0, 67, 0
2, 65616, Note_on_c, 0, 68, 83
2, 65628, Note_on_c, 0, 68, 0
2, 65628, Note_on_c, 0, 67, 83
2, 65640, Note_on_c, 0, 67, 0
2, 65640, Note_on_c, 0, 66, 83
2, 65652, Note_on_c, 0, 66, 0
2, 65652, Note_on_c, 0, 67, 83
2, 65664, Note_on_c, 0, 67, 0
2, 65664, Note_on_c, 0, 79, 79
2, 65664, Note_on_c, 0, 75, 79
2, 65808, Note_on_c, 0, 79, 0
2, 65808, Note_on_c, 0, 75, 0
2, 65808, Note_on_c, 0, 77, 79
2, 65808, Note_on_c, 0, 74, 79
2, 65853, Note_on_c, 0, 77, 0
2, 65853, Note_on_c, 0, 74, 0
2, 65856, Note_on_c, 0, 80, 79
2, 65856, Note_on_c, 0, 77, 79
2, 66000, Note_on_c, 0, 80, 0
2, 66000, Note_on_c, 0, 77, 0
2, 66000, Note_on_c, 0, 79, 79
2, 66000, Note_on_c, 0, 75, 79
2, 66045, Note_on_c, 0, 79, 0
2, 66045, Note_on_c, 0, 75, 0
2, 66048, Note_on_c, 0, 77, 79
2, 66048, Note_on_c, 0, 68, 79
2, 66093, Note_on_c, 0, 77, 0
2, 66093, Note_on_c, 0, 68, 0
2, 66096, Note_on_c, 0, 75, 80
2, 66096, Note_on_c, 0, 67, 80
2, 66141, Note_on_c, 0, 75, 0
2, 66141, Note_on_c, 0, 67, 0
2, 66144, Note_on_c, 0, 74, 81
2, 66144, Note_on_c, 0, 65, 81
2, 66189, Note_on_c, 0, 74, 0
2, 66189, Note_on_c, 0, 65, 0
2, 66192, Note_on_c, 0, 72, 82
2, 66192, Note_on_c, 0, 63, 82
2, 66237, Note_on_c, 0, 72, 0
2, 66237, Note_on_c, 0, 63, 0
2, 66240, Note_on_c, 0, 71, 83
2, 66246, Note_on_c, 0, 71, 0
2, 66246, Note_on_c, 0, 72, 83
2, 66252, Note_on_c, 0, 72, 0
2, 66252, Note_on_c, 0, 74, 83
2, 66258, Note_on_c, 0, 74, 0
2, 66258, Note_on_c, 0, 72, 83
2, 66336, Note_on_c, 0, 72, 0
2, 66336, Note_on_c, 0, 71, 80
2, 66356, Note_on_c, 0, 71, 0
2, 66432, Note_on_c, 0, 67, 79
2, 66438, Note_on_c, 0, 67, 0
2, 66438, Note_on_c, 0, 68, 79
2, 66444, Note_on_c, 0, 68, 0
2, 66444, Note_on_c, 0, 70, 79
2, 66450, Note_on_c, 0, 70, 0
2, 66450, Note_on_c, 0, 68, 79
2, 66528, Note_on_c, 0, 68, 0
2, 66528, Note_on_c, 0, 67, 79
2, 66548, Note_on_c, 0, 67, 0
2, 66576, Note_on_c, 0, 72, 79
2, 66621, Note_on_c, 0, 72, 0
2, 66624, Note_on_c, 0, 71, 79
2, 66630, Note_on_c, 0, 71, 0
2, 66630, Note_on_c, 0, 72, 79
2, 66636, Note_on_c, 0, 72, 0
2, 66636, Note_on_c, 0, 74, 79
2, 66642, Note_on_c, 0, 74, 0
2, 66642, Note_on_c, 0, 72, 79
2, 66720, Note_on_c, 0, 72, 0
2, 66720, Note_on_c, 0, 71, 79
2, 66730, Note_on_c, 0, 71, 0
2, 66744, Note_on_c, 0, 80, 79
2, 66767, Note_on_c, 0, 80, 0
2, 66768, Note_on_c, 0, 79, 79
2, 66791, Note_on_c, 0, 79, 0
2, 66792, Note_on_c, 0, 77, 79
2, 66815, Note_on_c, 0, 77, 0
2, 66816, Note_on_c, 0, 77, 79
2, 66839, Note_on_c, 0, 77, 0
2, 66840, Note_on_c, 0, 75, 79
2, 66863, Note_on_c, 0, 75, 0
2, 66864, Note_on_c, 0, 74, 80
2, 66870, Note_on_c, 0, 74, 0
2, 66870, Note_on_c, 0, 75, 80
2, 66876, Note_on_c, 0, 75, 0
2, 66876, Note_on_c, 0, 74, 80
2, 66887, Note_on_c, 0, 74, 0
2, 66888, Note_on_c, 0, 72, 80
2, 66911, Note_on_c, 0, 72, 0
2, 66912, Note_on_c, 0, 71, 81
2, 66957, Note_on_c, 0, 71, 0
2, 66960, Note_on_c, 0, 72, 82
2, 67005, Note_on_c, 0, 72, 0
2, 67008, Note_on_c, 0, 75, 83
2, 67075, Note_on_c, 0, 75, 0
2, 67080, Note_on_c, 0, 77, 81
2, 67092, Note_on_c, 0, 77, 0
2, 67092, Note_on_c, 0, 75, 80
2, 67104, Note_on_c, 0, 75, 0
2, 67104, Note_on_c, 0, 74, 80
2, 67149, Note_on_c, 0, 74, 0
2, 67248, Note_on_c, 0, 67, 79
2, 67296, Note_on_c, 0, 67, 0
2, 67296, Note_on_c, 0, 79, 79
2, 67316, Note_on_c, 0, 79, 0
2, 67440, Note_on_c, 0, 68, 80
2, 67488, Note_on_c, 0, 68, 0
2, 67488, Note_on_c, 0, 80, 80
2, 67508, Note_on_c, 0, 80, 0
2, 67632, Note_on_c, 0, 71, 81
2, 67680, Note_on_c, 0, 71, 0
2, 67680, Note_on_c, 0, 83, 81
2, 67700, Note_on_c, 0, 83, 0
2, 67824, Note_on_c, 0, 72, 82
2, 67872, Note_on_c, 0, 72, 0
2, 67872, Note_on_c, 0, 84, 82
2, 67892, Note_on_c, 0, 84, 0
2, 68016, Note_on_c, 0, 73, 83
2, 68064, Note_on_c, 0, 85, 83
2, 68112, Note_on_c, 0, 85, 0
2, 68112, Note_on_c, 0, 73, 0
2, 68112, Note_on_c, 0, 86, 83
2, 68112, Note_on_c, 0, 74, 83
2, 68132, Note_on_c, 0, 86, 0
2, 68132, Note_on_c, 0, 74, 0
2, 68160, Note_on_c, 0, 83, 88
2, 68160, Note_on_c, 0, 71, 88
2, 68208, Note_on_c, 0, 83, 0
2, 68208, Note_on_c, 0, 71, 0
2, 68208, Note_on_c, 0, 84, 88
2, 68208, Note_on_c, 0, 72, 88
2, 68228, Note_on_c, 0, 84, 0
2, 68228, Note_on_c, 0, 72, 0
2, 68256, Note_on_c, 0, 81, 88
2, 68256, Note_on_c, 0, 69, 88
2, 68304, Note_on_c, 0, 81, 0
2, 68304, Note_on_c, 0, 69, 0
2, 68304, Note_on_c, 0, 82, 88
2, 68304, Note_on_c, 0, 70, 88
2, 68324, Note_on_c, 0, 82, 0
2, 68324, Note_on_c, 0, 70, 0
2, 68592, Note_on_c, 0, 80, 62
2, 68592, Note_on_c, 0, 68, 62
2, 68637, Note_on_c, 0, 80, 0
2, 68637, Note_on_c, 0, 68, 0
2, 68640, Note_on_c, 0, 79, 62
2, 68640, Note_on_c, 0, 67, 62
2, 68685, Note_on_c, 0, 79, 0
2, 68685, Note_on_c, 0, 67, 0
2, 68688, Note_on_c, 0, 78, 62
2, 68688, Note_on_c, 0, 66, 62
2, 68733, Note_on_c, 0, 78, 0
2, 68733, Note_on_c, 0, 66, 0
2, 68736, Note_on_c, 0, 78, 62
2, 68876, Note_on_c, 0, 78, 0
2, 68880, Note_on_c, 0, 80, 62
2, 68903, Note_on_c, 0, 80, 0
2, 68904, Note_on_c, 0, 79, 62
2, 68927, Note_on_c, 0, 79, 0
2, 68928, Note_on_c, 0, 79, 62
2, 68948, Note_on_c, 0, 79, 0
2, 69120, Note_on_c, 0, 77, 79
2, 69120, Note_on_c, 0, 74, 79
2, 69357, Note_on_c, 0, 77, 0
2, 69357, Note_on_c, 0, 74, 0
2, 69360, Note_on_c, 0, 77, 79
2, 69360, Note_on_c, 0, 74, 79
2, 69405, Note_on_c, 0, 77, 0
2, 69405, Note_on_c, 0, 74, 0
2, 69408, Note_on_c, 0, 79, 79
2, 69408, Note_on_c, 0, 75, 79
2, 69431, Note_on_c, 0, 79, 0
2, 69431, Note_on_c, 0, 75, 0
2, 69432, Note_on_c, 0, 77, 79
2, 69432, Note_on_c, 0, 74, 79
2, 69455, Note_on_c, 0, 77, 0
2, 69455, Note_on_c, 0, 74, 0
2, 69456, Note_on_c, 0, 75, 79
2, 69456, Note_on_c, 0, 72, 79
2, 69479, Note_on_c, 0, 75, 0
2, 69479, Note_on_c, 0, 72, 0
2, 69480, Note_on_c, 0, 74, 79
2, 69480, Note_on_c, 0, 71, 79
2, 69503, Note_on_c, 0, 74, 0
2, 69503, Note_on_c, 0, 71, 0
2, 69504, Note_on_c, 0, 74, 95
2, 69504, Note_on_c, 0, 71, 95
2, 69600, Note_on_c, 0, 74, 0
2, 69600, Note_on_c, 0, 71, 0
2, 69600, Note_on_c, 0, 75, 79
2, 69600, Note_on_c, 0, 72, 79
2, 69741, Note_on_c, 0, 75, 0
2, 69741, Note_on_c, 0, 72, 0
2, 69744, Note_on_c, 0, 79, 79
2, 69744, Note_on_c, 0, 75, 79
2, 69789, Note_on_c, 0, 79, 0
2, 69789, Note_on_c, 0, 75, 0
2, 69792, Note_on_c, 0, 80, 79
2, 69792, Note_on_c, 0, 77, 79
2, 69815, Note_on_c, 0, 80, 0
2, 69815, Note_on_c, 0, 77, 0
2, 69816, Note_on_c, 0, 79, 79
2, 69816, Note_on_c, 0, 75, 79
2, 69839, Note_on_c, 0, 79, 0
2, 69839, Note_on_c, 0, 75, 0
2, 69840, Note_on_c, 0, 77, 79
2, 69840, Note_on_c, 0, 74, 79
2, 69863, Note_on_c, 0, 77, 0
2, 69863, Note_on_c, 0, 74, 0
2, 69864, Note_on_c, 0, 75, 79
2, 69864, Note_on_c, 0, 72, 79
2, 69887, Note_on_c, 0, 75, 0
2, 69887, Note_on_c, 0, 72, 0
2, 69888, Note_on_c, 0, 76, 95
2, 69888, Note_on_c, 0, 73, 95
2, 69984, Note_on_c, 0, 76, 0
2, 69984, Note_on_c, 0, 73, 0
2, 69984, Note_on_c, 0, 77, 79
2, 69984, Note_on_c, 0, 74, 79
2, 70125, Note_on_c, 0, 77, 0
2, 70125, Note_on_c, 0, 74, 0
2, 70128, Note_on_c, 0, 77, 79
2, 70128, Note_on_c, 0, 74, 79
2, 70173, Note_on_c, 0, 77, 0
2, 70173, Note_on_c, 0, 74, 0
2, 70176, Note_on_c, 0, 79, 79
2, 70176, Note_on_c, 0, 75, 79
2, 70199, Note_on_c, 0, 79, 0
2, 70199, Note_on_c, 0, 75, 0
2, 70200, Note_on_c, 0, 77, 79
2, 70200, Note_on_c, 0, 74, 79
2, 70223, Note_on_c, 0, 77, 0
2, 70223, Note_on_c, 0, 74, 0
2, 70224, Note_on_c, 0, 75, 79
2, 70224, Note_on_c, 0, 72, 79
2, 70247, Note_on_c, 0, 75, 0
2, 70247, Note_on_c, 0, 72, 0
2, 70248, Note_on_c, 0, 74, 79
2, 70248, Note_on_c, 0, 71, 79
2, 70271, Note_on_c, 0, 74, 0
2, 70271, Note_on_c, 0, 71, 0
2, 70272, Note_on_c, 0, 75, 68
2, 70272, Note_on_c, 0, 72, 68
2, 70366, Note_on_c, 0, 75, 0
2, 70366, Note_on_c, 0, 72, 0
2, 70368, Note_on_c, 0, 76, 73
2, 70368, Note_on_c, 0, 73, 73
2, 70462, Note_on_c, 0, 76, 0
2, 70462, Note_on_c, 0, 73, 0
2, 70464, Note_on_c, 0, 77, 78
2, 70464, Note_on_c, 0, 72, 78
2, 70558, Note_on_c, 0, 77, 0
2, 70558, Note_on_c, 0, 72, 0
2, 70560, Note_on_c, 0, 78, 83
2, 70560, Note_on_c, 0, 72, 83
2, 70654, Note_on_c, 0, 78, 0
2, 70654, Note_on_c, 0, 72, 0
2, 70704, Control_c, 0, 64, 127
2, 70704, Note_on_c, 0, 71, 83
2, 70727, Note_on_c, 0, 71, 0
2, 70728, Control_c, 0, 64, 0
2, 70728, Note_on_c, 0, 79, 83
2, 70751, Note_on_c, 0, 79, 0
2, 70752, Note_on_c, 0, 77, 83
2, 70775, Note_on_c, 0, 77, 0
2, 70776, Note_on_c, 0, 75, 83
2, 70799, Note_on_c, 0, 75, 0
2, 70800, Note_on_c, 0, 74, 83
2, 70823, Note_on_c, 0, 74, 0
2, 70824, Note_on_c, 0, 72, 83
2, 70847, Note_on_c, 0, 72, 0
2, 70848, Note_on_c, 0, 71, 83
2, 70871, Note_on_c, 0, 71, 0
2, 70872, Note_on_c, 0, 68, 83
2, 70895, Note_on_c, 0, 68, 0
2, 70896, Note_on_c, 0, 67, 83
2, 70919, Note_on_c, 0, 67, 0
2, 70920, Note_on_c, 0, 65, 83
2, 70943, Note_on_c, 0, 65, 0
2, 70944, Note_on_c, 0, 63, 83
2, 70967, Note_on_c, 0, 63, 0
2, 70968, Note_on_c, 0, 62, 83
2, 70991, Note_on_c, 0, 62, 0
2, 70992, Note_on_c, 0, 60, 83
2, 71015, Note_on_c, 0, 60, 0
2, 71016, Note_on_c, 0, 59, 83
2, 71039, Note_on_c, 0, 59, 0
2, 71112, Note_on_c, 0, 80, 83
2, 71135, Note_on_c, 0, 80, 0
2, 71136, Note_on_c, 0, 79, 80
2, 71159, Note_on_c, 0, 79, 0
2, 71160, Note_on_c, 0, 77, 78
2, 71183, Note_on_c, 0, 77, 0
2, 71184, Note_on_c, 0, 75, 75
2, 71207, Note_on_c, 0, 75, 0
2, 71208, Note_on_c, 0, 74, 73
2, 71231, Note_on_c, 0, 74, 0
2, 71232, Note_on_c, 0, 73, 70
2, 71255, Note_on_c, 0, 73, 0
2, 71256, Note_on_c, 0, 74, 68
2, 71279, Note_on_c, 0, 74, 0
2, 71280, Note_on_c, 0, 75, 68
2, 71303, Note_on_c, 0, 75, 0
2, 71304, Note_on_c, 0, 74, 68
2, 71327, Note_on_c, 0, 74, 0
2, 71328, Note_on_c, 0, 77, 69
2, 71351, Note_on_c, 0, 77, 0
2, 71352, Note_on_c, 0, 75, 69
2, 71375, Note_on_c, 0, 75, 0
2, 71376, Note_on_c, 0, 79, 70
2, 71399, Note_on_c, 0, 79, 0
2, 71400, Note_on_c, 0, 77, 70
2, 71423, Note_on_c, 0, 77, 0
2, 71424, Note_on_c, 0, 80, 71
2, 71447, Note_on_c, 0, 80, 0
2, 71448, Note_on_c, 0, 79, 71
2, 71471, Note_on_c, 0, 79, 0
2, 71472, Note_on_c, 0, 82, 72
2, 71495, Note_on_c, 0, 82, 0
2, 71496, Note_on_c, 0, 80, 72
2, 71519, Note_on_c, 0, 80, 0
2, 71520, Note_on_c, 0, 79, 73
2, 71543, Note_on_c, 0, 79, 0
2, 71544, Note_on_c, 0, 77, 73
2, 71567, Note_on_c, 0, 77, 0
2, 71568, Note_on_c, 0, 75, 74
2, 71591, Note_on_c, 0, 75, 0
2, 71592, Note_on_c, 0, 74, 74
2, 71615, Note_on_c, 0, 74, 0
2, 71616, Note_on_c, 0, 73, 68
2, 71639, Note_on_c, 0, 73, 0
2, 71640, Note_on_c, 0, 74, 69
2, 71663, Note_on_c, 0, 74, 0
2, 71664, Note_on_c, 0, 75, 71
2, 71687, Note_on_c, 0, 75, 0
2, 71688, Note_on_c, 0, 74, 73
2, 71711, Note_on_c, 0, 74, 0
2, 71712, Note_on_c, 0, 77, 75
2, 71735, Note_on_c, 0, 77, 0
2, 71736, Note_on_c, 0, 75, 77
2, 71759, Note_on_c, 0, 75, 0
2, 71760, Note_on_c, 0, 74, 79
2, 71783, Note_on_c, 0, 74, 0
2, 71784, Note_on_c, 0, 72, 81
2, 71807, Note_on_c, 0, 72, 0
2, 71808, Note_on_c, 0, 72, 83
2, 72015, Note_on_c, 0, 72, 0
2, 72016, Note_on_c, 0, 71, 83
2, 72031, Note_on_c, 0, 71, 0
2, 72032, Note_on_c, 0, 72, 83
2, 72047, Note_on_c, 0, 72, 0
2, 72048, Note_on_c, 0, 74, 83
2, 72063, Note_on_c, 0, 74, 0
2, 72064, Note_on_c, 0, 72, 83
2, 72079, Note_on_c, 0, 72, 0
2, 72080, Note_on_c, 0, 71, 83
2, 72095, Note_on_c, 0, 71, 0
2, 72096, Note_on_c, 0, 77, 83
2, 72111, Note_on_c, 0, 77, 0
2, 72112, Note_on_c, 0, 75, 83
2, 72127, Note_on_c, 0, 75, 0
2, 72128, Note_on_c, 0, 74, 83
2, 72143, Note_on_c, 0, 74, 0
2, 72144, Note_on_c, 0, 80, 83
2, 72159, Note_on_c, 0, 80, 0
2, 72160, Note_on_c, 0, 77, 83
2, 72175, Note_on_c, 0, 77, 0
2, 72176, Note_on_c, 0, 74, 83
2, 72191, Note_on_c, 0, 74, 0
2, 72192, Note_on_c, 0, 72, 83
2, 72399, Note_on_c, 0, 72, 0
2, 72400, Note_on_c, 0, 71, 83
2, 72415, Note_on_c, 0, 71, 0
2, 72416, Note_on_c, 0, 72, 83
2, 72431, Note_on_c, 0, 72, 0
2, 72432, Note_on_c, 0, 74, 83
2, 72447, Note_on_c, 0, 74, 0
2, 72448, Note_on_c, 0, 72, 83
2, 72463, Note_on_c, 0, 72, 0
2, 72464, Note_on_c, 0, 71, 83
2, 72479, Note_on_c, 0, 71, 0
2, 72480, Note_on_c, 0, 77, 83
2, 72495, Note_on_c, 0, 77, 0
2, 72496, Note_on_c, 0, 75, 83
2, 72511, Note_on_c, 0, 75, 0
2, 72512, Note_on_c, 0, 74, 83
2, 72527, Note_on_c, 0, 74, 0
2, 72528, Note_on_c, 0, 80, 83
2, 72543, Note_on_c, 0, 80, 0
2, 72544, Note_on_c, 0, 77, 83
2, 72559, Note_on_c, 0, 77, 0
2, 72560, Note_on_c, 0, 74, 83
2, 72575, Note_on_c, 0, 74, 0
2, 72576, Note_on_c, 0, 72, 83
2, 72908, Note_on_c, 0, 72, 0
2, 72912, Note_on_c, 0, 71, 68
2, 72936, Note_on_c, 0, 71, 0
2, 72936, Note_on_c, 0, 72, 68
2, 72960, Note_on_c, 0, 72, 0
2, 72960, Note_on_c, 0, 74, 68
2, 72984, Note_on_c, 0, 74, 0
2, 72984, Note_on_c, 0, 72, 68
2, 73008, Note_on_c, 0, 72, 0
2, 73008, Note_on_c, 0, 71, 68
2, 73032, Note_on_c, 0, 71, 0
2, 73032, Note_on_c, 0, 77, 68
2, 73056, Note_on_c, 0, 77, 0
2, 73056, Note_on_c, 0, 75, 68
2, 73080, Note_on_c, 0, 75, 0
2, 73080, Note_on_c, 0, 74, 68
2, 73104, Note_on_c, 0, 74, 0
2, 73104, Note_on_c, 0, 80, 68
2, 73244, Note_on_c, 0, 80, 0
2, 73248, Note_on_c, 0, 79, 68
2, 73268, Note_on_c, 0, 79, 0
2, 73268, Note_on_c, 0, 77, 68
2, 73287, Note_on_c, 0, 77, 0
2, 73287, Note_on_c, 0, 75, 68
2, 73306, Note_on_c, 0, 75, 0
2, 73306, Note_on_c, 0, 74, 68
2, 73325, Note_on_c, 0, 74, 0
2, 73325, Note_on_c, 0, 72, 68
2, 73484, Note_on_c, 0, 72, 0
2, 73488, Control_c, 0, 64, 127
2, 73488, Note_on_c, 0, 71, 62
2, 73679, Note_on_c, 0, 71, 0
2, 73680, Note_on_c, 0, 71, 62
2, 73727, Note_on_c, 0, 71, 0
2, 73728, Control_c, 0, 64, 0
2, 73968, Note_on_c, 0, 84, 83
2, 73980, Note_on_c, 0, 84, 0
2, 73980, Note_on_c, 0, 79, 83
2, 73995, Note_on_c, 0, 79, 0
2, 74016, Note_on_c, 0, 79, 83
2, 74028, Note_on_c, 0, 79, 0
2, 74028, Note_on_c, 0, 75, 83
2, 74043, Note_on_c, 0, 75, 0
2, 74064, Note_on_c, 0, 75, 83
2, 74076, Note_on_c, 0, 75, 0
2, 74076, Note_on_c, 0, 72, 83
2, 74091, Note_on_c, 0, 72, 0
2, 74160, Note_on_c, 0, 84, 83
2, 74172, Note_on_c, 0, 84, 0
2, 74172, Note_on_c, 0, 80, 83
2, 74187, Note_on_c, 0, 80, 0
2, 74208, Note_on_c, 0, 80, 83
2, 74220, Note_on_c, 0, 80, 0
2, 74220, Note_on_c, 0, 77, 83
2, 74235, Note_on_c, 0, 77, 0
2, 74256, Note_on_c, 0, 77, 83
2, 74268, Note_on_c, 0, 77, 0
2, 74268, Note_on_c, 0, 74, 83
2, 74283, Note_on_c, 0, 74, 0
2, 74304, Note_on_c, 0, 72, 79
2, 74423, Note_on_c, 0, 72, 0
2, 74424, Note_on_c, 0, 71, 79
2, 74447, Note_on_c, 0, 71, 0
2, 74448, Note_on_c, 0, 77, 79
2, 74463, Note_on_c, 0, 77, 0
2, 74464, Note_on_c, 0, 74, 79
2, 74479, Note_on_c, 0, 74, 0
2, 74480, Note_on_c, 0, 71, 79
2, 74495, Note_on_c, 0, 71, 0
2, 74496, Note_on_c, 0, 79, 83
2, 74607, Note_on_c, 0, 79, 0
2, 74608, Note_on_c, 0, 75, 82
2, 74623, Note_on_c, 0, 75, 0
2, 74624, Note_on_c, 0, 72, 81
2, 74639, Note_on_c, 0, 72, 0
2, 74640, Note_on_c, 0, 77, 81
2, 74655, Note_on_c, 0, 77, 0
2, 74656, Note_on_c, 0, 74, 80
2, 74671, Note_on_c, 0, 74, 0
2, 74672, Note_on_c, 0, 71, 79
2, 74687, Note_on_c, 0, 71, 0
2, 74688, Note_on_c, 0, 79, 68
2, 74799, Note_on_c, 0, 79, 0
2, 74800, Note_on_c, 0, 75, 68
2, 74815, Note_on_c, 0, 75, 0
2, 74816, Note_on_c, 0, 72, 69
2, 74831, Note_on_c, 0, 72, 0
2, 74832, Note_on_c, 0, 77, 70
2, 74847, Note_on_c, 0, 77, 0
2, 74848, Note_on_c, 0, 74, 71
2, 74863, Note_on_c, 0, 74, 0
2, 74864, Note_on_c, 0, 71, 71
2, 74879, Note_on_c, 0, 71, 0
2, 74880, Note_on_c, 0, 79, 83
2, 74991, Note_on_c, 0, 79, 0
2, 74992, Note_on_c, 0, 75, 83
2, 75007, Note_on_c, 0, 75, 0
2, 75008, Note_on_c, 0, 72, 83
2, 75023, Note_on_c, 0, 72, 0
2, 75024, Note_on_c, 0, 80, 83
2, 75039, Note_on_c, 0, 80, 0
2, 75040, Note_on_c, 0, 77, 83
2, 75055, Note_on_c, 0, 77, 0
2, 75056, Note_on_c, 0, 74, 83
2, 75071, Note_on_c, 0, 74, 0
2, 75072, Note_on_c, 0, 83, 83
2, 75087, Note_on_c, 0, 83, 0
2, 75088, Note_on_c, 0, 77, 83
2, 75103, Note_on_c, 0, 77, 0
2, 75104, Note_on_c, 0, 74, 83
2, 75119, Note_on_c, 0, 74, 0
2, 75120, Note_on_c, 0, 84, 83
2, 75135, Note_on_c, 0, 84, 0
2, 75136, Note_on_c, 0, 79, 83
2, 75151, Note_on_c, 0, 79, 0
2, 75152, Note_on_c, 0, 75, 83
2, 75167, Note_on_c, 0, 75, 0
2, 75168, Note_on_c, 0, 86, 88
2, 75183, Note_on_c, 0, 86, 0
2, 75184, Note_on_c, 0, 83, 88
2, 75199, Note_on_c, 0, 83, 0
2, 75200, Note_on_c, 0, 79, 88
2, 75215, Note_on_c, 0, 79, 0
2, 75216, Note_on_c, 0, 87, 88
2, 75231, Note_on_c, 0, 87, 0
2, 75232, Note_on_c, 0, 84, 88
2, 75247, Note_on_c, 0, 84, 0
2, 75248, Note_on_c, 0, 79, 88
2, 75263, Note_on_c, 0, 79, 0
2, 75264, Note_on_c, 0, 89, 88
2, 75303, Note_on_c, 0, 89, 0
2, 75600, Note_on_c, 0, 77, 62
2, 75612, Note_on_c, 0, 77, 0
2, 75612, Note_on_c, 0, 75, 62
2, 75624, Note_on_c, 0, 75, 0
2, 75624, Note_on_c, 0, 74, 62
2, 75636, Note_on_c, 0, 74, 0
2, 75636, Note_on_c, 0, 72, 63
2, 75648, Note_on_c, 0, 72, 0
2, 75648, Note_on_c, 0, 71, 63
2, 75668, Note_on_c, 0, 71, 0
2, 75792, Note_on_c, 0, 82, 68
2, 75804, Note_on_c, 0, 82, 0
2, 75804, Note_on_c, 0, 80, 68
2, 75816, Note_on_c, 0, 80, 0
2, 75816, Note_on_c, 0, 79, 68
2, 75828, Note_on_c, 0, 79, 0
2, 75828, Note_on_c, 0, 77, 69
2, 75840, Note_on_c, 0, 77, 0
2, 75840, Note_on_c, 0, 75, 69
2, 75860, Note_on_c, 0, 75, 0
2, 75984, Note_on_c, 0, 77, 74
2, 75996, Note_on_c, 0, 77, 0
2, 75996, Note_on_c, 0, 75, 74
2, 76008, Note_on_c, 0, 75, 0
2, 76008, Note_on_c, 0, 74, 74
2, 76020, Note_on_c, 0, 74, 0
2, 76020, Note_on_c, 0, 72, 75
2, 76032, Note_on_c, 0, 72, 0
2, 76032, Note_on_c, 0, 71, 75
2, 76052, Note_on_c, 0, 71, 0
2, 76176, Note_on_c, 0, 82, 80
2, 76188, Note_on_c, 0, 82, 0
2, 76188, Note_on_c, 0, 80, 80
2, 76200, Note_on_c, 0, 80, 0
2, 76200, Note_on_c, 0, 79, 80
2, 76212, Note_on_c, 0, 79, 0
2, 76212, Note_on_c, 0, 77, 81
2, 76224, Note_on_c, 0, 77, 0
2, 76224, Note_on_c, 0, 75, 81
2, 76244, Note_on_c, 0, 75, 0
2, 76272, Note_on_c, 0, 77, 83
2, 76284, Note_on_c, 0, 77, 0
2, 76284, Note_on_c, 0, 75, 83
2, 76296, Note_on_c, 0, 75, 0
2, 76296, Note_on_c, 0, 74, 83
2, 76308, Note_on_c, 0, 74, 0
2, 76308, Note_on_c, 0, 72, 83
2, 76320, Note_on_c, 0, 72, 0
2, 76320, Note_on_c, 0, 71, 83
2, 76340, Note_on_c, 0, 71, 0
2, 76368, Note_on_c, 0, 82, 83
2, 76380, Note_on_c, 0, 82, 0
2, 76380, Note_on_c, 0, 80, 83
2, 76392, Note_on_c, 0, 80, 0
2, 76392, Note_on_c, 0, 79, 83
2, 76404, Note_on_c, 0, 79, 0
2, 76404, Note_on_c, 0, 77, 83
2, 76416, Note_on_c, 0, 77, 0
2, 76416, Note_on_c, 0, 75, 83
2, 76436, Note_on_c, 0, 75, 0
2, 76464, Note_on_c, 0, 77, 83
2, 76476, Note_on_c, 0, 77, 0
2, 76476, Note_on_c, 0, 75, 83
2, 76488, Note_on_c, 0, 75, 0
2, 76488, Note_on_c, 0, 74, 83
2, 76500, Note_on_c, 0, 74, 0
2, 76500, Note_on_c, 0, 72, 83
2, 76512, Note_on_c, 0, 72, 0
2, 76512, Note_on_c, 0, 71, 83
2, 76532, Note_on_c, 0, 71, 0
2, 76560, Note_on_c, 0, 82, 83
2, 76572, Note_on_c, 0, 82, 0
2, 76572, Note_on_c, 0, 80, 83
2, 76584, Note_on_c, 0, 80, 0
2, 76584, Note_on_c, 0, 79, 83
2, 76596, Note_on_c, 0, 79, 0
2, 76596, Note_on_c, 0, 77, 83
2, 76608, Note_on_c, 0, 77, 0
2, 76608, Note_on_c, 0, 75, 83
2, 76628, Note_on_c, 0, 75, 0
2, 76656, Note_on_c, 0, 89, 83
2, 76671, Note_on_c, 0, 89, 0
2, 76672, Note_on_c, 0, 87, 82
2, 76687, Note_on_c, 0, 87, 0
2, 76688, Note_on_c, 0, 86, 82
2, 76703, Note_on_c, 0, 86, 0
2, 76704, Note_on_c, 0, 84, 82
2, 76719, Note_on_c, 0, 84, 0
2, 76720, Note_on_c, 0, 82, 81
2, 76735, Note_on_c, 0, 82, 0
2, 76736, Note_on_c, 0, 80, 81
2, 76751, Note_on_c, 0, 80, 0
2, 76752, Note_on_c, 0, 79, 81
2, 76767, Note_on_c, 0, 79, 0
2, 76768, Note_on_c, 0, 77, 80
2, 76783, Note_on_c, 0, 77, 0
2, 76784, Note_on_c, 0, 75, 80
2, 76799, Note_on_c, 0, 75, 0
2, 76800, Note_on_c, 0, 74, 79
2, 76845, Note_on_c, 0, 74, 0
2, 76872, Note_on_c, 0, 73, 79
2, 76895, Note_on_c, 0, 73, 0
2, 76896, Note_on_c, 0, 74, 79
2, 76919, Note_on_c, 0, 74, 0
2, 76920, Note_on_c, 0, 75, 79
2, 76943, Note_on_c, 0, 75, 0
2, 76944, Note_on_c, 0, 76, 80
2, 76967, Note_on_c, 0, 76, 0
2, 76968, Note_on_c, 0, 77, 81
2, 76991, Note_on_c, 0, 77, 0
2, 76992, Note_on_c, 0, 78, 81
2, 77015, Note_on_c, 0, 78, 0
2, 77016, Note_on_c, 0, 79, 82
2, 77039, Note_on_c, 0, 79, 0
2, 77040, Note_on_c, 0, 82, 83
2, 77046, Note_on_c, 0, 82, 0
2, 77046, Note_on_c, 0, 84, 83
2, 77052, Note_on_c, 0, 84, 0
2, 77052, Note_on_c, 0, 82, 83
2, 77063, Note_on_c, 0, 82, 0
2, 77064, Note_on_c, 0, 80, 83
2, 77087, Note_on_c, 0, 80, 0
2, 77088, Note_on_c, 0, 79, 83
2, 77111, Note_on_c, 0, 79, 0
2, 77112, Note_on_c, 0, 77, 82
2, 77135, Note_on_c, 0, 77, 0
2, 77136, Note_on_c, 0, 75, 82
2, 77159, Note_on_c, 0, 75, 0
2, 77160, Note_on_c, 0, 74, 81
2, 77183, Note_on_c, 0, 74, 0
2, 77184, Note_on_c, 0, 72, 81
2, 77303, Note_on_c, 0, 72, 0
2, 77304, Note_on_c, 0, 71, 79
2, 77327, Note_on_c, 0, 71, 0
2, 77328, Note_on_c, 0, 77, 79
2, 77343, Note_on_c, 0, 77, 0
2, 77344, Note_on_c, 0, 74, 79
2, 77359, Note_on_c, 0, 74, 0
2, 77360, Note_on_c, 0, 71, 79
2, 77375, Note_on_c, 0, 71, 0
2, 77376, Note_on_c, 0, 72, 79
2, 77421, Note_on_c, 0, 72, 0
2, 77472, Note_on_c, 0, 79, 79
2, 77472, Note_on_c, 0, 75, 79
2, 77544, Note_on_c, 0, 79, 0
2, 77544, Note_on_c, 0, 75, 0
2, 77544, Note_on_c, 0, 80, 79
2, 77544, Note_on_c, 0, 77, 79
2, 77567, Note_on_c, 0, 80, 0
2, 77567, Note_on_c, 0, 77, 0
2, 77568, Note_on_c, 0, 79, 79
2, 77568, Note_on_c, 0, 75, 79
2, 77588, Note_on_c, 0, 79, 0
2, 77588, Note_on_c, 0, 75, 0
2, 77664, Note_on_c, 0, 75, 79
2, 77664, Note_on_c, 0, 67, 79
2, 77684, Note_on_c, 0, 75, 0
2, 77684, Note_on_c, 0, 67, 0
2, 77712, Note_on_c, 0, 71, 79
2, 77712, Note_on_c, 0, 65, 79
2, 77732, Note_on_c, 0, 71, 0
2, 77732, Note_on_c, 0, 65, 0
2, 77760, Note_on_c, 0, 72, 79
2, 77760, Note_on_c, 0, 63, 79
2, 77805, Note_on_c, 0, 72, 0
2, 77805, Note_on_c, 0, 63, 0
2, 77856, Note_on_c, 0, 67, 74
2, 77856, Note_on_c, 0, 63, 74
2, 77928, Note_on_c, 0, 67, 0
2, 77928, Note_on_c, 0, 63, 0
2, 77928, Note_on_c, 0, 68, 74
2, 77928, Note_on_c, 0, 65, 74
2, 77951, Note_on_c, 0, 68, 0
2, 77951, Note_on_c, 0, 65, 0
2, 77952, Note_on_c, 0, 67, 74
2, 77952, Note_on_c, 0, 63, 74
2, 77972, Note_on_c, 0, 67, 0
2, 77972, Note_on_c, 0, 63, 0
2, 78048, Note_on_c, 0, 63, 74
2, 78048, Note_on_c, 0, 55, 74
2, 78068, Note_on_c, 0, 63, 0
2, 78068, Note_on_c, 0, 55, 0
2, 78096, Note_on_c, 0, 59, 74
2, 78096, Note_on_c, 0, 53, 74
2, 78116, Note_on_c, 0, 59, 0
2, 78116, Note_on_c, 0, 53, 0
2, 78144, Note_on_c, 0, 60, 74
2, 78144, Note_on_c, 0, 51, 74
2, 78321, Note_on_c, 0, 60, 0
2, 78321, Note_on_c, 0, 51, 0
2, 78336, End_track
3, 0, Start_track
3, 0, Program_c, 0, 0
3, 0, Control_c, 0, 7, 127
3, 0, Control_c, 0, 10, 64
3, 576, Note_on_c, 0, 63, 64
3, 665, Note_on_c, 0, 63, 0
3, 672, Note_on_c, 0, 62, 64
3, 717, Note_on_c, 0, 62, 0
3, 720, Note_on_c, 0, 68, 64
3, 765, Note_on_c, 0, 68, 0
3, 9792, Control_c, 0, 64, 127
3, 9792, Note_on_c, 0, 84, 64
3, 9979, Note_on_c, 0, 84, 0
3, 9984, Control_c, 0, 64, 0
3, 9984, Note_on_c, 0, 84, 64
3, 10171, Note_on_c, 0, 84, 0
3, 15168, Note_on_c, 0, 63, 64
3, 15257, Note_on_c, 0, 63, 0
3, 15264, Note_on_c, 0, 62, 64
3, 15309, Note_on_c, 0, 62, 0
3, 15312, Note_on_c, 0, 68, 64
3, 15357, Note_on_c, 0, 68, 0
3, 24384, Control_c, 0, 64, 127
3, 24384, Note_on_c, 0, 84, 64
3, 24571, Note_on_c, 0, 84, 0
3, 24576, Control_c, 0, 64, 0
3, 24576, Note_on_c, 0, 84, 64
3, 24763, Note_on_c, 0, 84, 0
3, 29952, Note_on_c, 0, 77, 64
3, 29997, Note_on_c, 0, 77, 0
3, 30000, Note_on_c, 0, 72, 64
3, 30048, Note_on_c, 0, 72, 0
3, 30048, Note_on_c, 0, 84, 64
3, 30068, Note_on_c, 0, 84, 0
3, 30192, Note_on_c, 0, 72, 64
3, 30240, Note_on_c, 0, 72, 0
3, 30240, Note_on_c, 0, 84, 64
3, 30260, Note_on_c, 0, 84, 0
3, 41664, Note_on_c, 0, 63, 64
3, 41753, Note_on_c, 0, 63, 0
3, 41760, Note_on_c, 0, 62, 64
3, 41805, Note_on_c, 0, 62, 0
3, 41808, Note_on_c, 0, 68, 64
3, 41853, Note_on_c, 0, 68, 0
3, 44160, Note_on_c, 0, 66, 64
3, 44352, Note_on_c, 0, 66, 0
3, 44352, Note_on_c, 0, 67, 64
3, 44372, Note_on_c, 0, 67, 0
3, 44400, Note_on_c, 0, 67, 79
3, 44445, Note_on_c, 0, 67, 0
3, 44448, Note_on_c, 0, 71, 79
3, 44493, Note_on_c, 0, 71, 0
3, 44496, Note_on_c, 0, 74, 79
3, 44541, Note_on_c, 0, 74, 0
3, 48960, Control_c, 0, 64, 127
3, 48960, Note_on_c, 0, 80, 62
3, 49147, Note_on_c, 0, 80, 0
3, 49152, Control_c, 0, 64, 0
3, 49152, Note_on_c, 0, 80, 62
3, 49339, Note_on_c, 0, 80, 0
3, 54528, Note_on_c, 0, 77, 64
3, 54573, Note_on_c, 0, 77, 0
3, 54576, Note_on_c, 0, 72, 64
3, 54624, Note_on_c, 0, 72, 0
3, 54624, Note_on_c, 0, 84, 64
3, 54644, Note_on_c, 0, 84, 0
3, 54768, Note_on_c, 0, 72, 64
3, 54816, Note_on_c, 0, 72, 0
3, 54816, Note_on_c, 0, 84, 64
3, 54836, Note_on_c, 0, 84, 0
3, 66240, Note_on_c, 0, 63, 64
3, 66329, Note_on_c, 0, 63, 0
3, 66336, Note_on_c, 0, 62, 64
3, 66381, Note_on_c, 0, 62, 0
3, 66384, Note_on_c, 0, 68, 64
3, 66429, Note_on_c, 0, 68, 0
3, 68736, Note_on_c, 0, 66, 64
3, 68928, Note_on_c, 0, 66, 0
3, 68928, Note_on_c, 0, 67, 64
3, 68948, Note_on_c, 0, 67, 0
3, 68976, Note_on_c, 0, 67, 79
3, 69021, Note_on_c, 0, 67, 0
3, 69024, Note_on_c, 0, 71, 79
3, 69069, Note_on_c, 0, 71, 0
3, 69072, Note_on_c, 0, 74, 79
3, 69117, Note_on_c, 0, 74, 0
3, 73536, Control_c, 0, 64, 127
3, 73536, Note_on_c, 0, 80, 62
3, 73723, Note_on_c, 0, 80, 0
3, 73728, Control_c, 0, 64, 0
3, 73728, Note_on_c, 0, 80, 62
3, 73915, Note_on_c, 0, 80, 0
3, 78336, End_track
4, 0, Start_track
4, 0, Program_c, 1, 0
4, 0, Control_c, 1, 7, 127
4, 0, Control_c, 1, 10, 64
4, 48, Note_on_c, 1, 48, 74
4, 96, Note_on_c, 1, 48, 0
4, 96, Note_on_c, 1, 60, 74
4, 116, Note_on_c, 1, 60, 0
4, 240, Note_on_c, 1, 48, 74
4, 288, Note_on_c, 1, 48, 0
4, 288, Note_on_c, 1, 60, 74
4, 308, Note_on_c, 1, 60, 0
4, 432, Note_on_c, 1, 48, 74
4, 477, Note_on_c, 1, 48, 0
4, 480, Note_on_c, 1, 53, 74
4, 525, Note_on_c, 1, 53, 0
4, 528, Note_on_c, 1, 54, 74
4, 573, Note_on_c, 1, 54, 0
4, 576, Note_on_c, 1, 55, 74
4, 665, Note_on_c, 1, 55, 0
4, 672, Note_on_c, 1, 43, 74
4, 717, Note_on_c, 1, 43, 0
4, 720, Note_on_c, 1, 63, 74
4, 720, Note_on_c, 1, 60, 74
4, 765, Note_on_c, 1, 63, 0
4, 765, Note_on_c, 1, 60, 0
4, 768, Note_on_c, 1, 62, 74
4, 768, Note_on_c, 1, 59, 74
4, 901, Note_on_c, 1, 62, 0
4, 901, Note_on_c, 1, 59, 0
4, 912, Note_on_c, 1, 67, 74
4, 912, Note_on_c, 1, 63, 74
4, 957, Note_on_c, 1, 67, 0
4, 957, Note_on_c, 1, 63, 0
4, 960, Note_on_c, 1, 65, 74
4, 960, Note_on_c, 1, 62, 74
4, 1093, Note_on_c, 1, 65, 0
4, 1093, Note_on_c, 1, 62, 0
4, 1104, Note_on_c, 1, 67, 74
4, 1104, Note_on_c, 1, 59, 74
4, 1152, Note_on_c, 1, 59, 0
4, 1241, Note_on_c, 1, 67, 0
4, 1248, Note_on_c, 1, 65, 74
4, 1293, Note_on_c, 1, 65, 0
4, 1296, Note_on_c, 1, 63, 74
4, 1341, Note_on_c, 1, 63, 0
4, 1344, Note_on_c, 1, 60, 74
4, 1440, Note_on_c, 1, 60, 0
4, 1440, Note_on_c, 1, 59, 74
4, 1485, Note_on_c, 1, 59, 0
4, 1584, Note_on_c, 1, 36, 74
4, 1632, Note_on_c, 1, 36, 0
4, 1632, Note_on_c, 1, 48, 74
4, 1652, Note_on_c, 1, 48, 0
4, 1776, Note_on_c, 1, 36, 74
4, 1824, Note_on_c, 1, 36, 0
4, 1824, Note_on_c, 1, 48, 74
4, 1844, Note_on_c, 1, 48, 0
4, 1968, Note_on_c, 1, 67, 74
4, 1968, Note_on_c, 1, 63, 74
4, 2013, Note_on_c, 1, 67, 0
4, 2013, Note_on_c, 1, 63, 0
4, 2016, Note_on_c, 1, 65, 74
4, 2016, Note_on_c, 1, 62, 74
4, 2061, Note_on_c, 1, 65, 0
4, 2061, Note_on_c, 1, 62, 0
4, 2064, Note_on_c, 1, 68, 74
4, 2064, Note_on_c, 1, 65, 74
4, 2109, Note_on_c, 1, 68, 0
4, 2109, Note_on_c, 1, 65, 0
4, 2112, Note_on_c, 1, 67, 74
4, 2112, Note_on_c, 1, 63, 74
4, 2157, Note_on_c, 1, 67, 0
4, 2157, Note_on_c, 1, 63, 0
4, 2352, Note_on_c, 1, 72, 74
4, 2352, Note_on_c, 1, 65, 74
4, 2397, Note_on_c, 1, 72, 0
4, 2397, Note_on_c, 1, 65, 0
4, 2448, Note_on_c, 1, 72, 74
4, 2448, Note_on_c, 1, 63, 74
4, 2493, Note_on_c, 1, 72, 0
4, 2493, Note_on_c, 1, 63, 0
4, 2544, Note_on_c, 1, 71, 74
4, 2544, Note_on_c, 1, 62, 74
4, 2589, Note_on_c, 1, 71, 0
4, 2589, Note_on_c, 1, 62, 0
4, 2640, Note_on_c, 1, 72, 74
4, 2640, Note_on_c, 1, 60, 74
4, 2685, Note_on_c, 1, 72, 0
4, 2685, Note_on_c, 1, 60, 0
4, 2688, Note_on_c, 1, 68, 74
4, 2688, Note_on_c, 1, 65, 74
4, 2777, Note_on_c, 1, 68, 0
4, 2777, Note_on_c, 1, 65, 0
4, 2784, Note_on_c, 1, 63, 74
4, 2784, Note_on_c, 1, 55, 74
4, 2804, Note_on_c, 1, 63, 0
4, 2804, Note_on_c, 1, 55, 0
4, 2832, Note_on_c, 1, 62, 74
4, 2832, Note_on_c, 1, 55, 74
4, 2852, Note_on_c, 1, 62, 0
4, 2852, Note_on_c, 1, 55, 0
4, 2880, Note_on_c, 1, 60, 74
4, 2880, Note_on_c, 1, 48, 74
4, 2969, Note_on_c, 1, 60, 0
4, 2969, Note_on_c, 1, 48, 0
4, 3168, Note_on_c, 1, 61, 79
4, 3168, Note_on_c, 1, 58, 79
4, 3168, Note_on_c, 1, 51, 79
4, 3257, Note_on_c, 1, 61, 0
4, 3257, Note_on_c, 1, 58, 0
4, 3257, Note_on_c, 1, 51, 0
4, 3264, Note_on_c, 1, 60, 79
4, 3264, Note_on_c, 1, 56, 79
4, 3264, Note_on_c, 1, 51, 79
4, 3353, Note_on_c, 1, 60, 0
4, 3353, Note_on_c, 1, 56, 0
4, 3353, Note_on_c, 1, 51, 0
4, 3360, Note_on_c, 1, 61, 79
4, 3360, Note_on_c, 1, 55, 79
4, 3360, Note_on_c, 1, 51, 79
4, 3449, Note_on_c, 1, 61, 0
4, 3449, Note_on_c, 1, 55, 0
4, 3449, Note_on_c, 1, 51, 0
4, 3456, Note_on_c, 1, 60, 79
4, 3456, Note_on_c, 1, 56, 79
4, 3501, Note_on_c, 1, 60, 0
4, 3501, Note_on_c, 1, 56, 0
4, 4320, Note_on_c, 1, 63, 79
4, 4320, Note_on_c, 1, 60, 79
4, 4320, Note_on_c, 1, 53, 79
4, 4409, Note_on_c, 1, 63, 0
4, 4409, Note_on_c, 1, 60, 0
4, 4409, Note_on_c, 1, 53, 0
4, 4416, Note_on_c, 1, 62, 79
4, 4416, Note_on_c, 1, 58, 79
4, 4416, Note_on_c, 1, 53, 79
4, 4505, Note_on_c, 1, 62, 0
4, 4505, Note_on_c, 1, 58, 0
4, 4505, Note_on_c, 1, 53, 0
4, 4512, Note_on_c, 1, 63, 79
4, 4512, Note_on_c, 1, 57, 79
4, 4512, Note_on_c, 1, 53, 79
4, 4601, Note_on_c, 1, 63, 0
4, 4601, Note_on_c, 1, 57, 0
4, 4601, Note_on_c, 1, 53, 0
4, 4608, Note_on_c, 1, 62, 79
4, 4608, Note_on_c, 1, 58, 79
4, 4653, Note_on_c, 1, 62, 0
4, 4653, Note_on_c, 1, 58, 0
4, 5424, Note_on_c, 1, 46, 74
4, 5469, Note_on_c, 1, 46, 0
4, 5472, Note_on_c, 1, 50, 74
4, 5517, Note_on_c, 1, 50, 0
4, 5520, Note_on_c, 1, 53, 74
4, 5565, Note_on_c, 1, 53, 0
4, 5568, Note_on_c, 1, 58, 74
4, 5607, Note_on_c, 1, 58, 0
4, 5808, Note_on_c, 1, 46, 74
4, 5853, Note_on_c, 1, 46, 0
4, 5856, Note_on_c, 1, 51, 74
4, 5901, Note_on_c, 1, 51, 0
4, 5904, Note_on_c, 1, 55, 74
4, 5949, Note_on_c, 1, 55, 0
4, 5952, Note_on_c, 1, 58, 74
4, 5991, Note_on_c, 1, 58, 0
4, 6192, Note_on_c, 1, 46, 74
4, 6237, Note_on_c, 1, 46, 0
4, 6240, Note_on_c, 1, 50, 74
4, 6263, Note_on_c, 1, 50, 0
4, 6264, Note_on_c, 1, 46, 74
4, 6287, Note_on_c, 1, 46, 0
4, 6288, Note_on_c, 1, 53, 74
4, 6311, Note_on_c, 1, 53, 0
4, 6312, Note_on_c, 1, 50, 74
4, 6335, Note_on_c, 1, 50, 0
4, 6336, Note_on_c, 1, 58, 74
4, 6375, Note_on_c, 1, 58, 0
4, 6528, Control_c, 1, 64, 127
4, 6576, Note_on_c, 1, 57, 70
4, 6599, Note_on_c, 1, 57, 0
4, 6600, Control_c, 1, 64, 0
4, 6600, Note_on_c, 1, 45, 72
4, 6623, Note_on_c, 1, 45, 0
4, 6672, Control_c, 1, 64, 127
4, 6672, Note_on_c, 1, 58, 76
4, 6695, Note_on_c, 1, 58, 0
4, 6696, Control_c, 1, 64, 0
4, 6696, Note_on_c, 1, 46, 78
4, 6719, Note_on_c, 1, 46, 0
4, 6768, Control_c, 1, 64, 127
4, 6768, Note_on_c, 1, 60, 82
4, 6791, Note_on_c, 1, 60, 0
4, 6792, Control_c, 1, 64, 0
4, 6792, Note_on_c, 1, 48, 83
4, 6815, Note_on_c, 1, 48, 0
4, 6864, Control_c, 1, 64, 127
4, 6864, Note_on_c, 1, 59, 88
4, 6887, Note_on_c, 1, 59, 0
4, 6888, Control_c, 1, 64, 0
4, 6888, Note_on_c, 1, 47, 88
4, 6911, Note_on_c, 1, 47, 0
4, 6912, Control_c, 1, 64, 127
4, 6912, Note_on_c, 1, 46, 83
4, 6935, Note_on_c, 1, 46, 0
4, 6936, Note_on_c, 1, 58, 83
4, 6959, Note_on_c, 1, 58, 0
4, 7008, Control_c, 1, 64, 0
4, 7176, Note_on_c, 1, 68, 83
4, 7199, Note_on_c, 1, 68, 0
4, 7200, Note_on_c, 1, 67, 83
4, 7223, Note_on_c, 1, 67, 0
4, 7224, Note_on_c, 1, 65, 83
4, 7247, Note_on_c, 1, 65, 0
4, 7248, Note_on_c, 1, 63, 83
4, 7271, Note_on_c, 1, 63, 0
4, 7272, Note_on_c, 1, 62, 83
4, 7295, Note_on_c, 1, 62, 0
4, 7296, Note_on_c, 1, 60, 83
4, 7319, Note_on_c, 1, 60, 0
4, 7320, Note_on_c, 1, 58, 83
4, 7343, Note_on_c, 1, 58, 0
4, 7344, Note_on_c, 1, 56, 83
4, 7367, Note_on_c, 1, 56, 0
4, 8112, Note_on_c, 1, 68, 62
4, 8112, Note_on_c, 1, 65, 62
4, 8112, Note_on_c, 1, 58, 62
4, 8159, Note_on_c, 1, 68, 0
4, 8159, Note_on_c, 1, 65, 0
4, 8159, Note_on_c, 1, 58, 0
4, 8160, Note_on_c, 1, 68, 65
4, 8160, Note_on_c, 1, 65, 65
4, 8160, Note_on_c, 1, 58, 65
4, 8207, Note_on_c, 1, 68, 0
4, 8207, Note_on_c, 1, 65, 0
4, 8207, Note_on_c, 1, 58, 0
4, 8208, Note_on_c, 1, 68, 68
4, 8208, Note_on_c, 1, 65, 68
4, 8208, Note_on_c, 1, 58, 68
4, 8255, Note_on_c, 1, 68, 0
4, 8255, Note_on_c, 1, 65, 0
4, 8255, Note_on_c, 1, 58, 0
4, 8256, Note_on_c, 1, 68, 71
4, 8256, Note_on_c, 1, 65, 71
4, 8256, Note_on_c, 1, 58, 71
4, 8443, Note_on_c, 1, 68, 0
4, 8443, Note_on_c, 1, 65, 0
4, 8443, Note_on_c, 1, 58, 0
4, 8496, Note_on_c, 1, 59, 79
4, 8511, Note_on_c, 1, 59, 0
4, 8512, Note_on_c, 1, 65, 79
4, 8527, Note_on_c, 1, 65, 0
4, 8528, Note_on_c, 1, 68, 79
4, 8543, Note_on_c, 1, 68, 0
4, 8544, Note_on_c, 1, 59, 79
4, 8559, Note_on_c, 1, 59, 0
4, 8560, Note_on_c, 1, 65, 79
4, 8575, Note_on_c, 1, 65, 0
4, 8576, Note_on_c, 1, 68, 79
4, 8591, Note_on_c, 1, 68, 0
4, 8592, Note_on_c, 1, 59, 79
4, 8607, Note_on_c, 1, 59, 0
4, 8608, Note_on_c, 1, 65, 79
4, 8623, Note_on_c, 1, 65, 0
4, 8624, Note_on_c, 1, 68, 79
4, 8639, Note_on_c, 1, 68, 0
4, 8640, Note_on_c, 1, 59, 79
4, 8817, Note_on_c, 1, 59, 0
4, 8880, Note_on_c, 1, 59, 74
4, 8895, Note_on_c, 1, 59, 0
4, 8896, Note_on_c, 1, 65, 74
4, 8911, Note_on_c, 1, 65, 0
4, 8912, Note_on_c, 1, 68, 74
4, 8927, Note_on_c, 1, 68, 0
4, 8928, Note_on_c, 1, 59, 74
4, 8943, Note_on_c, 1, 59, 0
4, 8944, Note_on_c, 1, 65, 74
4, 8959, Note_on_c, 1, 65, 0
4, 8960, Note_on_c, 1, 68, 74
4, 8975, Note_on_c, 1, 68, 0
4, 8976, Control_c, 1, 64, 127
4, 8976, Note_on_c, 1, 59, 74
4, 8991, Note_on_c, 1, 59, 0
4, 8992, Note_on_c, 1, 65, 74
4, 9007, Note_on_c, 1, 65, 0
4, 9008, Note_on_c, 1, 68, 74
4, 9024, Note_on_c, 1, 59, 74
4, 9694, Note_on_c, 1, 68, 0
4, 9694, Note_on_c, 1, 59, 0
4, 9696, Note_on_c, 1, 68, 74
4, 9883, Note_on_c, 1, 68, 0
4, 9888, Note_on_c, 1, 68, 74
4, 9984, Control_c, 1, 64, 0
4, 10171, Note_on_c, 1, 68, 0
4, 10176, Note_on_c, 1, 51, 99
4, 10176, Note_on_c, 1, 46, 99
4, 10176, Note_on_c, 1, 43, 99
4, 10272, Note_on_c, 1, 51, 0
4, 10272, Note_on_c, 1, 46, 0
4, 10272, Note_on_c, 1, 43, 0
4, 10368, Note_on_c, 1, 51, 99
4, 10368, Note_on_c, 1, 48, 99
4, 10368, Note_on_c, 1, 44, 99
4, 10464, Note_on_c, 1, 51, 0
4, 10464, Note_on_c, 1, 48, 0
4, 10464, Note_on_c, 1, 44, 0
4, 10608, Note_on_c, 1, 55, 83
4, 10608, Note_on_c, 1, 46, 83
4, 10655, Note_on_c, 1, 55, 0
4, 10655, Note_on_c, 1, 46, 0
4, 10656, Note_on_c, 1, 55, 83
4, 10656, Note_on_c, 1, 46, 83
4, 10703, Note_on_c, 1, 55, 0
4, 10703, Note_on_c, 1, 46, 0
4, 10704, Note_on_c, 1, 53, 83
4, 10704, Note_on_c, 1, 46, 83
4, 10751, Note_on_c, 1, 53, 0
4, 10751, Note_on_c, 1, 46, 0
4, 10752, Note_on_c, 1, 51, 99
4, 10752, Note_on_c, 1, 46, 99
4, 10752, Note_on_c, 1, 43, 99
4, 10848, Note_on_c, 1, 51, 0
4, 10848, Note_on_c, 1, 46, 0
4, 10848, Note_on_c, 1, 43, 0
4, 10944, Note_on_c, 1, 51, 99
4, 10944, Note_on_c, 1, 48, 99
4, 10944, Note_on_c, 1, 44, 99
4, 11040, Note_on_c, 1, 51, 0
4, 11040, Note_on_c, 1, 48, 0
4, 11040, Note_on_c, 1, 44, 0
4, 11184, Note_on_c, 1, 55, 83
4, 11184, Note_on_c, 1, 46, 83
4, 11231, Note_on_c, 1, 55, 0
4, 11231, Note_on_c, 1, 46, 0
4, 11232, Note_on_c, 1, 55, 83
4, 11232, Note_on_c, 1, 46, 83
4, 11279, Note_on_c, 1, 55, 0
4, 11279, Note_on_c, 1, 46, 0
4, 11280, Note_on_c, 1, 53, 83
4, 11280, Note_on_c, 1, 46, 83
4, 11327, Note_on_c, 1, 53, 0
4, 11327, Note_on_c, 1, 46, 0
4, 11376, Note_on_c, 1, 55, 83
4, 11376, Note_on_c, 1, 46, 83
4, 11423, Note_on_c, 1, 55, 0
4, 11423, Note_on_c, 1, 46, 0
4, 11424, Note_on_c, 1, 55, 81
4, 11424, Note_on_c, 1, 46, 81
4, 11471, Note_on_c, 1, 55, 0
4, 11471, Note_on_c, 1, 46, 0
4, 11472, Note_on_c, 1, 53, 80
4, 11472, Note_on_c, 1, 46, 80
4, 11519, Note_on_c, 1, 53, 0
4, 11519, Note_on_c, 1, 46, 0
4, 11568, Note_on_c, 1, 55, 68
4, 11568, Note_on_c, 1, 46, 68
4, 11615, Note_on_c, 1, 55, 0
4, 11615, Note_on_c, 1, 46, 0
4, 11616, Note_on_c, 1, 55, 68
4, 11616, Note_on_c, 1, 46, 68
4, 11663, Note_on_c, 1, 55, 0
4, 11663, Note_on_c, 1, 46, 0
4, 11664, Note_on_c, 1, 53, 71
4, 11664, Note_on_c, 1, 46, 71
4, 11711, Note_on_c, 1, 53, 0
4, 11711, Note_on_c, 1, 46, 0
4, 11760, Note_on_c, 1, 55, 83
4, 11760, Note_on_c, 1, 46, 83
4, 11807, Note_on_c, 1, 55, 0
4, 11807, Note_on_c, 1, 46, 0
4, 11808, Note_on_c, 1, 55, 83
4, 11808, Note_on_c, 1, 46, 83
4, 11855, Note_on_c, 1, 55, 0
4, 11855, Note_on_c, 1, 46, 0
4, 11856, Note_on_c, 1, 53, 83
4, 11856, Note_on_c, 1, 46, 83
4, 11903, Note_on_c, 1, 53, 0
4, 11903, Note_on_c, 1, 46, 0
4, 11904, Note_on_c, 1, 53, 83
4, 11904, Note_on_c, 1, 46, 83
4, 11951, Note_on_c, 1, 53, 0
4, 11951, Note_on_c, 1, 46, 0
4, 11952, Note_on_c, 1, 55, 84
4, 11952, Note_on_c, 1, 46, 84
4, 11999, Note_on_c, 1, 55, 0
4, 11999, Note_on_c, 1, 46, 0
4, 12000, Note_on_c, 1, 50, 85
4, 12000, Note_on_c, 1, 46, 85
4, 12047, Note_on_c, 1, 50, 0
4, 12047, Note_on_c, 1, 46, 0
4, 12048, Note_on_c, 1, 51, 86
4, 12048, Note_on_c, 1, 46, 86
4, 12095, Note_on_c, 1, 51, 0
4, 12095, Note_on_c, 1, 46, 0
4, 12096, Note_on_c, 1, 53, 88
4, 12096, Note_on_c, 1, 46, 88
4, 12185, Note_on_c, 1, 53, 0
4, 12185, Note_on_c, 1, 46, 0
4, 12288, Note_on_c, 1, 63, 68
4, 12303, Note_on_c, 1, 63, 0
4, 12304, Note_on_c, 1, 67, 68
4, 12319, Note_on_c, 1, 67, 0
4, 12320, Note_on_c, 1, 70, 68
4, 12335, Note_on_c, 1, 70, 0
4, 12336, Note_on_c, 1, 63, 68
4, 12351, Note_on_c, 1, 63, 0
4, 12352, Note_on_c, 1, 67, 68
4, 12367, Note_on_c, 1, 67, 0
4, 12368, Note_on_c, 1, 70, 68
4, 12383, Note_on_c, 1, 70, 0
4, 12384, Note_on_c, 1, 63, 68
4, 12399, Note_on_c, 1, 63, 0
4, 12400, Note_on_c, 1, 67, 68
4, 12415, Note_on_c, 1, 67, 0
4, 12416, Note_on_c, 1, 70, 68
4, 12431, Note_on_c, 1, 70, 0
4, 12432, Note_on_c, 1, 63, 68
4, 12447, Note_on_c, 1, 63, 0
4, 12448, Note_on_c, 1, 67, 68
4, 12463, Note_on_c, 1, 67, 0
4, 12464, Note_on_c, 1, 70, 68
4, 12479, Note_on_c, 1, 70, 0
4, 12480, Note_on_c, 1, 65, 68
4, 12495, Note_on_c, 1, 65, 0
4, 12496, Note_on_c, 1, 68, 69
4, 12511, Note_on_c, 1, 68, 0
4, 12512, Note_on_c, 1, 70, 69
4, 12527, Note_on_c, 1, 70, 0
4, 12528, Note_on_c, 1, 65, 69
4, 12543, Note_on_c, 1, 65, 0
4, 12544, Note_on_c, 1, 68, 69
4, 12559, Note_on_c, 1, 68, 0
4, 12560, Note_on_c, 1, 70, 70
4, 12575, Note_on_c, 1, 70, 0
4, 12576, Note_on_c, 1, 62, 70
4, 12591, Note_on_c, 1, 62, 0
4, 12592, Note_on_c, 1, 65, 70
4, 12607, Note_on_c, 1, 65, 0
4, 12608, Note_on_c, 1, 70, 70
4, 12623, Note_on_c, 1, 70, 0
4, 12624, Note_on_c, 1, 62, 71
4, 12639, Note_on_c, 1, 62, 0
4, 12640, Note_on_c, 1, 65, 71
4, 12655, Note_on_c, 1, 65, 0
4, 12656, Note_on_c, 1, 70, 71
4, 12671, Note_on_c, 1, 70, 0
4, 12672, Note_on_c, 1, 63, 72
4, 12687, Note_on_c, 1, 63, 0
4, 12688, Note_on_c, 1, 67, 72
4, 12703, Note_on_c, 1, 67, 0
4, 12704, Note_on_c, 1, 70, 72
4, 12719, Note_on_c, 1, 70, 0
4, 12720, Note_on_c, 1, 63, 72
4, 12735, Note_on_c, 1, 63, 0
4, 12736, Note_on_c, 1, 67, 73
4, 12751, Note_on_c, 1, 67, 0
4, 12752, Note_on_c, 1, 70, 73
4, 12767, Note_on_c, 1, 70, 0
4, 12768, Note_on_c, 1, 63, 73
4, 12783, Note_on_c, 1, 63, 0
4, 12784, Note_on_c, 1, 67, 73
4, 12799, Note_on_c, 1, 67, 0
4, 12800, Note_on_c, 1, 70, 74
4, 12815, Note_on_c, 1, 70, 0
4, 12816, Note_on_c, 1, 63, 74
4, 12831, Note_on_c, 1, 63, 0
4, 12832, Note_on_c, 1, 67, 74
4, 12847, Note_on_c, 1, 67, 0
4, 12848, Note_on_c, 1, 70, 74
4, 12863, Note_on_c, 1, 70, 0
4, 12864, Note_on_c, 1, 65, 75
4, 12879, Note_on_c, 1, 65, 0
4, 12880, Note_on_c, 1, 68, 75
4, 12895, Note_on_c, 1, 68, 0
4, 12896, Note_on_c, 1, 70, 75
4, 12911, Note_on_c, 1, 70, 0
4, 12912, Note_on_c, 1, 65, 76
4, 12927, Note_on_c, 1, 65, 0
4, 12928, Note_on_c, 1, 68, 76
4, 12943, Note_on_c, 1, 68, 0
4, 12944, Note_on_c, 1, 70, 76
4, 12959, Note_on_c, 1, 70, 0
4, 12960, Note_on_c, 1, 62, 76
4, 12975, Note_on_c, 1, 62, 0
4, 12976, Note_on_c, 1, 65, 77
4, 12991, Note_on_c, 1, 65, 0
4, 12992, Note_on_c, 1, 70, 77
4, 13007, Note_on_c, 1, 70, 0
4, 13008, Note_on_c, 1, 62, 77
4, 13023, Note_on_c, 1, 62, 0
4, 13024, Note_on_c, 1, 65, 77
4, 13039, Note_on_c, 1, 65, 0
4, 13040, Note_on_c, 1, 70, 78
4, 13055, Note_on_c, 1, 70, 0
4, 13056, Note_on_c, 1, 63, 78
4, 13071, Note_on_c, 1, 63, 0
4, 13072, Note_on_c, 1, 67, 78
4, 13087, Note_on_c, 1, 67, 0
4, 13088, Note_on_c, 1, 70, 78
4, 13103, Note_on_c, 1, 70, 0
4, 13104, Note_on_c, 1, 63, 83
4, 13119, Note_on_c, 1, 63, 0
4, 13120, Note_on_c, 1, 67, 83
4, 13135, Note_on_c, 1, 67, 0
4, 13136, Note_on_c, 1, 70, 83
4, 13151, Note_on_c, 1, 70, 0
4, 13152, Note_on_c, 1, 65, 83
4, 13167, Note_on_c, 1, 65, 0
4, 13168, Note_on_c, 1, 68, 83
4, 13183, Note_on_c, 1, 68, 0
4, 13184, Note_on_c, 1, 70, 83
4, 13199, Note_on_c, 1, 70, 0
4, 13200, Note_on_c, 1, 62, 83
4, 13215, Note_on_c, 1, 62, 0
4, 13216, Note_on_c, 1, 65, 83
4, 13231, Note_on_c, 1, 65, 0
4, 13232, Note_on_c, 1, 70, 83
4, 13247, Note_on_c, 1, 70, 0
4, 13248, Note_on_c, 1, 63, 83
4, 13263, Note_on_c, 1, 63, 0
4, 13264, Note_on_c, 1, 67, 83
4, 13279, Note_on_c, 1, 67, 0
4, 13280, Note_on_c, 1, 70, 83
4, 13295, Note_on_c, 1, 70, 0
4, 13296, Note_on_c, 1, 63, 83
4, 13311, Note_on_c, 1, 63, 0
4, 13312, Note_on_c, 1, 67, 83
4, 13327, Note_on_c, 1, 67, 0
4, 13328, Note_on_c, 1, 70, 83
4, 13343, Note_on_c, 1, 70, 0
4, 13344, Note_on_c, 1, 65, 83
4, 13359, Note_on_c, 1, 65, 0
4, 13360, Note_on_c, 1, 68, 83
4, 13375, Note_on_c, 1, 68, 0
4, 13376, Note_on_c, 1, 70, 83
4, 13391, Note_on_c, 1, 70, 0
4, 13392, Note_on_c, 1, 62, 83
4, 13407, Note_on_c, 1, 62, 0
4, 13408, Note_on_c, 1, 65, 83
4, 13423, Note_on_c, 1, 65, 0
4, 13424, Note_on_c, 1, 70, 83
4, 13439, Note_on_c, 1, 70, 0
4, 13440, Note_on_c, 1, 63, 83
4, 13529, Note_on_c, 1, 63, 0
4, 13632, Note_on_c, 1, 56, 83
4, 13721, Note_on_c, 1, 56, 0
4, 14064, Note_on_c, 1, 67, 74
4, 14064, Note_on_c, 1, 58, 74
4, 14109, Note_on_c, 1, 67, 0
4, 14109, Note_on_c, 1, 58, 0
4, 14112, Note_on_c, 1, 67, 72
4, 14112, Note_on_c, 1, 58, 72
4, 14157, Note_on_c, 1, 67, 0
4, 14157, Note_on_c, 1, 58, 0
4, 14160, Note_on_c, 1, 65, 70
4, 14160, Note_on_c, 1, 58, 70
4, 14205, Note_on_c, 1, 65, 0
4, 14205, Note_on_c, 1, 58, 0
4, 14208, Note_on_c, 1, 63, 68
4, 14255, Note_on_c, 1, 63, 0
4, 14400, Note_on_c, 1, 39, 68
4, 14489, Note_on_c, 1, 39, 0
4, 14640, Note_on_c, 1, 48, 74
4, 14688, Note_on_c, 1, 48, 0
4, 14688, Note_on_c, 1, 60, 74
4, 14708, Note_on_c, 1, 60, 0
4, 14832, Note_on_c, 1, 48, 74
4, 14880, Note_on_c, 1, 48, 0
4, 14880, Note_on_c, 1, 60, 74
4, 14900, Note_on_c, 1, 60, 0
4, 15024, Note_on_c, 1, 48, 74
4, 15069, Note_on_c, 1, 48, 0
4, 15072, Note_on_c, 1, 53, 74
4, 15117, Note_on_c, 1, 53, 0
4, 15120, Note_on_c, 1, 54, 74
4, 15165, Note_on_c, 1, 54, 0
4, 15168, Note_on_c, 1, 55, 74
4, 15257, Note_on_c, 1, 55, 0
4, 15264, Note_on_c, 1, 43, 74
4, 15309, Note_on_c, 1, 43, 0
4, 15312, Note_on_c, 1, 63, 74
4, 15312, Note_on_c, 1, 60, 74
4, 15357, Note_on_c, 1, 63, 0
4, 15357, Note_on_c, 1, 60, 0
4, 15360, Note_on_c, 1, 62, 74
4, 15360, Note_on_c, 1, 59, 74
4, 15493, Note_on_c, 1, 62, 0
4, 15493, Note_on_c, 1, 59, 0
4, 15504, Note_on_c, 1, 67, 74
4, 15504, Note_on_c, 1, 63, 74
4, 15549, Note_on_c, 1, 67, 0
4, 15549, Note_on_c, 1, 63, 0
4, 15552, Note_on_c, 1, 65, 74
4, 15552, Note_on_c, 1, 62, 74
4, 15685, Note_on_c, 1, 65, 0
4, 15685, Note_on_c, 1, 62, 0
4, 15696, Note_on_c, 1, 67, 74
4, 15696, Note_on_c, 1, 59, 74
4, 15744, Note_on_c, 1, 59, 0
4, 15833, Note_on_c, 1, 67, 0
4, 15840, Note_on_c, 1, 65, 74
4, 15885, Note_on_c, 1, 65, 0
4, 15888, Note_on_c, 1, 63, 74
4, 15933, Note_on_c, 1, 63, 0
4, 15936, Note_on_c, 1, 60, 74
4, 16032, Note_on_c, 1, 60, 0
4, 16032, Note_on_c, 1, 59, 74
4, 16077, Note_on_c, 1, 59, 0
4, 16176, Note_on_c, 1, 36, 74
4, 16224, Note_on_c, 1, 36, 0
4, 16224, Note_on_c, 1, 48, 74
4, 16244, Note_on_c, 1, 48, 0
4, 16368, Note_on_c, 1, 36, 74
4, 16416, Note_on_c, 1, 36, 0
4, 16416, Note_on_c, 1, 48, 74
4, 16436, Note_on_c, 1, 48, 0
4, 16560, Note_on_c, 1, 67, 74
4, 16560, Note_on_c, 1, 63, 74
4, 16605, Note_on_c, 1, 67, 0
4, 16605, Note_on_c, 1, 63, 0
4, 16608, Note_on_c, 1, 65, 74
4, 16608, Note_on_c, 1, 62, 74
4, 16653, Note_on_c, 1, 65, 0
4, 16653, Note_on_c, 1, 62, 0
4, 16656, Note_on_c, 1, 68, 74
4, 16656, Note_on_c, 1, 65, 74
4, 16701, Note_on_c, 1, 68, 0
4, 16701, Note_on_c, 1, 65, 0
4, 16704, Note_on_c, 1, 67, 74
4, 16704, Note_on_c, 1, 63, 74
4, 16749, Note_on_c, 1, 67, 0
4, 16749, Note_on_c, 1, 63, 0
4, 16944, Note_on_c, 1, 72, 74
4, 16944, Note_on_c, 1, 65, 74
4, 16989, Note_on_c, 1, 72, 0
4, 16989, Note_on_c, 1, 65, 0
4, 17040, Note_on_c, 1, 72, 74
4, 17040, Note_on_c, 1, 63, 74
4, 17085, Note_on_c, 1, 72, 0
4, 17085, Note_on_c, 1, 63, 0
4, 17136, Note_on_c, 1, 71, 74
4, 17136, Note_on_c, 1, 62, 74
4, 17181, Note_on_c, 1, 71, 0
4, 17181, Note_on_c, 1, 62, 0
4, 17232, Note_on_c, 1, 72, 74
4, 17232, Note_on_c, 1, 60, 74
4, 17277, Note_on_c, 1, 72, 0
4, 17277, Note_on_c, 1, 60, 0
4, 17280, Note_on_c, 1, 68, 74
4, 17280, Note_on_c, 1, 65, 74
4, 17369, Note_on_c, 1, 68, 0
4, 17369, Note_on_c, 1, 65, 0
4, 17376, Note_on_c, 1, 63, 74
4, 17376, Note_on_c, 1, 55, 74
4, 17396, Note_on_c, 1, 63, 0
4, 17396, Note_on_c, 1, 55, 0
4, 17424, Note_on_c, 1, 62, 74
4, 17424, Note_on_c, 1, 55, 74
4, 17444, Note_on_c, 1, 62, 0
4, 17444, Note_on_c, 1, 55, 0
4, 17472, Note_on_c, 1, 60, 74
4, 17472, Note_on_c, 1, 48, 74
4, 17561, Note_on_c, 1, 60, 0
4, 17561, Note_on_c, 1, 48, 0
4, 17760, Note_on_c, 1, 61, 79
4, 17760, Note_on_c, 1, 58, 79
4, 17760, Note_on_c, 1, 51, 79
4, 17849, Note_on_c, 1, 61, 0
4, 17849, Note_on_c, 1, 58, 0
4, 17849, Note_on_c, 1, 51, 0
4, 17856, Note_on_c, 1, 60, 79
4, 17856, Note_on_c, 1, 56, 79
4, 17856, Note_on_c, 1, 51, 79
4, 17945, Note_on_c, 1, 60, 0
4, 17945, Note_on_c, 1, 56, 0
4, 17945, Note_on_c, 1, 51, 0
4, 17952, Note_on_c, 1, 61, 79
4, 17952, Note_on_c, 1, 55, 79
4, 17952, Note_on_c, 1, 51, 79
4, 18041, Note_on_c, 1, 61, 0
4, 18041, Note_on_c, 1, 55, 0
4, 18041, Note_on_c, 1, 51, 0
4, 18048, Note_on_c, 1, 60, 79
4, 18048, Note_on_c, 1, 56, 79
4, 18093, Note_on_c, 1, 60, 0
4, 18093, Note_on_c, 1, 56, 0
4, 18912, Note_on_c, 1, 63, 79
4, 18912, Note_on_c, 1, 60, 79
4, 18912, Note_on_c, 1, 53, 79
4, 19001, Note_on_c, 1, 63, 0
4, 19001, Note_on_c, 1, 60, 0
4, 19001, Note_on_c, 1, 53, 0
4, 19008, Note_on_c, 1, 62, 79
4, 19008, Note_on_c, 1, 58, 79
4, 19008, Note_on_c, 1, 53, 79
4, 19097, Note_on_c, 1, 62, 0
4, 19097, Note_on_c, 1, 58, 0
4, 19097, Note_on_c, 1, 53, 0
4, 19104, Note_on_c, 1, 63, 79
4, 19104, Note_on_c, 1, 57, 79
4, 19104, Note_on_c, 1, 53, 79
4, 19193, Note_on_c, 1, 63, 0
4, 19193, Note_on_c, 1, 57, 0
4, 19193, Note_on_c, 1, 53, 0
4, 19200, Note_on_c, 1, 62, 79
4, 19200, Note_on_c, 1, 58, 79
4, 19245, Note_on_c, 1, 62, 0
4, 19245, Note_on_c, 1, 58, 0
4, 20016, Note_on_c, 1, 46, 74
4, 20061, Note_on_c, 1, 46, 0
4, 20064, Note_on_c, 1, 50, 74
4, 20109, Note_on_c, 1, 50, 0
4, 20112, Note_on_c, 1, 53, 74
4, 20157, Note_on_c, 1, 53, 0
4, 20160, Note_on_c, 1, 58, 74
4, 20199, Note_on_c, 1, 58, 0
4, 20400, Note_on_c, 1, 46, 74
4, 20445, Note_on_c, 1, 46, 0
4, 20448, Note_on_c, 1, 51, 74
4, 20493, Note_on_c, 1, 51, 0
4, 20496, Note_on_c, 1, 55, 74
4, 20541, Note_on_c, 1, 55, 0
4, 20544, Note_on_c, 1, 58, 74
4, 20583, Note_on_c, 1, 58, 0
4, 20784, Note_on_c, 1, 46, 74
4, 20829, Note_on_c, 1, 46, 0
4, 20832, Note_on_c, 1, 50, 74
4, 20855, Note_on_c, 1, 50, 0
4, 20856, Note_on_c, 1, 46, 74
4, 20879, Note_on_c, 1, 46, 0
4, 20880, Note_on_c, 1, 53, 74
4, 20903, Note_on_c, 1, 53, 0
4, 20904, Note_on_c, 1, 50, 74
4, 20927, Note_on_c, 1, 50, 0
4, 20928, Note_on_c, 1, 58, 74
4, 20967, Note_on_c, 1, 58, 0
4, 21120, Control_c, 1, 64, 127
4, 21168, Note_on_c, 1, 57, 70
4, 21191, Note_on_c, 1, 57, 0
4, 21192, Control_c, 1, 64, 0
4, 21192, Note_on_c, 1, 45, 72
4, 21215, Note_on_c, 1, 45, 0
4, 21264, Control_c, 1, 64, 127
4, 21264, Note_on_c, 1, 58, 76
4, 21287, Note_on_c, 1, 58, 0
4, 21288, Control_c, 1, 64, 0
4, 21288, Note_on_c, 1, 46, 78
4, 21311, Note_on_c, 1, 46, 0
4, 21360, Control_c, 1, 64, 127
4, 21360, Note_on_c, 1, 60, 82
4, 21383, Note_on_c, 1, 60, 0
4, 21384, Control_c, 1, 64, 0
4, 21384, Note_on_c, 1, 48, 83
4, 21407, Note_on_c, 1, 48, 0
4, 21456, Control_c, 1, 64, 127
4, 21456, Note_on_c, 1, 59, 88
4, 21479, Note_on_c, 1, 59, 0
4, 21480, Control_c, 1, 64, 0
4, 21480, Note_on_c, 1, 47, 88
4, 21503, Note_on_c, 1, 47, 0
4, 21504, Control_c, 1, 64, 127
4, 21504, Note_on_c, 1, 46, 83
4, 21527, Note_on_c, 1, 46, 0
4, 21528, Note_on_c, 1, 58, 83
4, 21551, Note_on_c, 1, 58, 0
4, 21600, Control_c, 1, 64, 0
4, 21768, Note_on_c, 1, 68, 83
4, 21791, Note_on_c, 1, 68, 0
4, 21792, Note_on_c, 1, 67, 83
4, 21815, Note_on_c, 1, 67, 0
4, 21816, Note_on_c, 1, 65, 83
4, 21839, Note_on_c, 1, 65, 0
4, 21840, Note_on_c, 1, 63, 83
4, 21863, Note_on_c, 1, 63, 0
4, 21864, Note_on_c, 1, 62, 83
4, 21887, Note_on_c, 1, 62, 0
4, 21888, Note_on_c, 1, 60, 83
4, 21911, Note_on_c, 1, 60, 0
4, 21912, Note_on_c, 1, 58, 83
4, 21935, Note_on_c, 1, 58, 0
4, 21936, Note_on_c, 1, 56, 83
4, 21959, Note_on_c, 1, 56, 0
4, 22704, Note_on_c, 1, 68, 62
4, 22704, Note_on_c, 1, 65, 62
4, 22704, Note_on_c, 1, 58, 62
4, 22751, Note_on_c, 1, 68, 0
4, 22751, Note_on_c, 1, 65, 0
4, 22751, Note_on_c, 1, 58, 0
4, 22752, Note_on_c, 1, 68, 65
4, 22752, Note_on_c, 1, 65, 65
4, 22752, Note_on_c, 1, 58, 65
4, 22799, Note_on_c, 1, 68, 0
4, 22799, Note_on_c, 1, 65, 0
4, 22799, Note_on_c, 1, 58, 0
4, 22800, Note_on_c, 1, 68, 68
4, 22800, Note_on_c, 1, 65, 68
4, 22800, Note_on_c, 1, 58, 68
4, 22847, Note_on_c, 1, 68, 0
4, 22847, Note_on_c, 1, 65, 0
4, 22847, Note_on_c, 1, 58, 0
4, 22848, Note_on_c, 1, 68, 71
4, 22848, Note_on_c, 1, 65, 71
4, 22848, Note_on_c, 1, 58, 71
4, 23035, Note_on_c, 1, 68, 0
4, 23035, Note_on_c, 1, 65, 0
4, 23035, Note_on_c, 1, 58, 0
4, 23088, Note_on_c, 1, 59, 79
4, 23103, Note_on_c, 1, 59, 0
4, 23104, Note_on_c, 1, 65, 79
4, 23119, Note_on_c, 1, 65, 0
4, 23120, Note_on_c, 1, 68, 79
4, 23135, Note_on_c, 1, 68, 0
4, 23136, Note_on_c, 1, 59, 79
4, 23151, Note_on_c, 1, 59, 0
4, 23152, Note_on_c, 1, 65, 79
4, 23167, Note_on_c, 1, 65, 0
4, 23168, Note_on_c, 1, 68, 79
4, 23183, Note_on_c, 1, 68, 0
4, 23184, Note_on_c, 1, 59, 79
4, 23199, Note_on_c, 1, 59, 0
4, 23200, Note_on_c, 1, 65, 79
4, 23215, Note_on_c, 1, 65, 0
4, 23216, Note_on_c, 1, 68, 79
4, 23231, Note_on_c, 1, 68, 0
4, 23232, Note_on_c, 1, 59, 79
4, 23409, Note_on_c, 1, 59, 0
4, 23472, Note_on_c, 1, 59, 74
4, 23487, Note_on_c, 1, 59, 0
4, 23488, Note_on_c, 1, 65, 74
4, 23503, Note_on_c, 1, 65, 0
4, 23504, Note_on_c, 1, 68, 74
4, 23519, Note_on_c, 1, 68, 0
4, 23520, Note_on_c, 1, 59, 74
4, 23535, Note_on_c, 1, 59, 0
4, 23536, Note_on_c, 1, 65, 74
4, 23551, Note_on_c, 1, 65, 0
4, 23552, Note_on_c, 1, 68, 74
4, 23567, Note_on_c, 1, 68, 0
4, 23568, Control_c, 1, 64, 127
4, 23568, Note_on_c, 1, 59, 74
4, 23583, Note_on_c, 1, 59, 0
4, 23584, Note_on_c, 1, 65, 74
4, 23599, Note_on_c, 1, 65, 0
4, 23600, Note_on_c, 1, 68, 74
4, 23616, Note_on_c, 1, 59, 74
4, 24286, Note_on_c, 1, 68, 0
4, 24286, Note_on_c, 1, 59, 0
4, 24288, Note_on_c, 1, 68, 74
4, 24475, Note_on_c, 1, 68, 0
4, 24480, Note_on_c, 1, 68, 74
4, 24576, Control_c, 1, 64, 0
4, 24763, Note_on_c, 1, 68, 0
4, 24768, Note_on_c, 1, 51, 99
4, 24768, Note_on_c, 1, 46, 99
4, 24768, Note_on_c, 1, 43, 99
4, 24864, Note_on_c, 1, 51, 0
4, 24864, Note_on_c, 1, 46, 0
4, 24864, Note_on_c, 1, 43, 0
4, 24960, Note_on_c, 1, 51, 99
4, 24960, Note_on_c, 1, 48, 99
4, 24960, Note_on_c, 1, 44, 99
4, 25056, Note_on_c, 1, 51, 0
4, 25056, Note_on_c, 1, 48, 0
4, 25056, Note_on_c, 1, 44, 0
4, 25200, Note_on_c, 1, 55, 83
4, 25200, Note_on_c, 1, 46, 83
4, 25247, Note_on_c, 1, 55, 0
4, 25247, Note_on_c, 1, 46, 0
4, 25248, Note_on_c, 1, 55, 83
4, 25248, Note_on_c, 1, 46, 83
4, 25295, Note_on_c, 1, 55, 0
4, 25295, Note_on_c, 1, 46, 0
4, 25296, Note_on_c, 1, 53, 83
4, 25296, Note_on_c, 1, 46, 83
4, 25343, Note_on_c, 1, 53, 0
4, 25343, Note_on_c, 1, 46, 0
4, 25344, Note_on_c, 1, 51, 99
4, 25344, Note_on_c, 1, 46, 99
4, 25344, Note_on_c, 1, 43, 99
4, 25440, Note_on_c, 1, 51, 0
4, 25440, Note_on_c, 1, 46, 0
4, 25440, Note_on_c, 1, 43, 0
4, 25536, Note_on_c, 1, 51, 99
4, 25536, Note_on_c, 1, 48, 99
4, 25536, Note_on_c, 1, 44, 99
4, 25632, Note_on_c, 1, 51, 0
4, 25632, Note_on_c, 1, 48, 0
4, 25632, Note_on_c, 1, 44, 0
4, 25776, Note_on_c, 1, 55, 83
4, 25776, Note_on_c, 1, 46, 83
4, 25823, Note_on_c, 1, 55, 0
4, 25823, Note_on_c, 1, 46, 0
4, 25824, Note_on_c, 1, 55, 83
4, 25824, Note_on_c, 1, 46, 83
4, 25871, Note_on_c, 1, 55, 0
4, 25871, Note_on_c, 1, 46, 0
4, 25872, Note_on_c, 1, 53, 83
4, 25872, Note_on_c, 1, 46, 83
4, 25919, Note_on_c, 1, 53, 0
4, 25919, Note_on_c, 1, 46, 0
4, 25968, Note_on_c, 1, 55, 83
4, 25968, Note_on_c, 1, 46, 83
4, 26015, Note_on_c, 1, 55, 0
4, 26015, Note_on_c, 1, 46, 0
4, 26016, Note_on_c, 1, 55, 81
4, 26016, Note_on_c, 1, 46, 81
4, 26063, Note_on_c, 1, 55, 0
4, 26063, Note_on_c, 1, 46, 0
4, 26064, Note_on_c, 1, 53, 80
4, 26064, Note_on_c, 1, 46, 80
4, 26111, Note_on_c, 1, 53, 0
4, 26111, Note_on_c, 1, 46, 0
4, 26160, Note_on_c, 1, 55, 68
4, 26160, Note_on_c, 1, 46, 68
4, 26207, Note_on_c, 1, 55, 0
4, 26207, Note_on_c, 1, 46, 0
4, 26208, Note_on_c, 1, 55, 68
4, 26208, Note_on_c, 1, 46, 68
4, 26255, Note_on_c, 1, 55, 0
4, 26255, Note_on_c, 1, 46, 0
4, 26256, Note_on_c, 1, 53, 71
4, 26256, Note_on_c, 1, 46, 71
4, 26303, Note_on_c, 1, 53, 0
4, 26303, Note_on_c, 1, 46, 0
4, 26352, Note_on_c, 1, 55, 83
4, 26352, Note_on_c, 1, 46, 83
4, 26399, Note_on_c, 1, 55, 0
4, 26399, Note_on_c, 1, 46, 0
4, 26400, Note_on_c, 1, 55, 83
4, 26400, Note_on_c, 1, 46, 83
4, 26447, Note_on_c, 1, 55, 0
4, 26447, Note_on_c, 1, 46, 0
4, 26448, Note_on_c, 1, 53, 83
4, 26448, Note_on_c, 1, 46, 83
4, 26495, Note_on_c, 1, 53, 0
4, 26495, Note_on_c, 1, 46, 0
4, 26496, Note_on_c, 1, 53, 83
4, 26496, Note_on_c, 1, 46, 83
4, 26543, Note_on_c, 1, 53, 0
4, 26543, Note_on_c, 1, 46, 0
4, 26544, Note_on_c, 1, 55, 84
4, 26544, Note_on_c, 1, 46, 84
4, 26591, Note_on_c, 1, 55, 0
4, 26591, Note_on_c, 1, 46, 0
4, 26592, Note_on_c, 1, 50, 85
4, 26592, Note_on_c, 1, 46, 85
4, 26639, Note_on_c, 1, 50, 0
4, 26639, Note_on_c, 1, 46, 0
4, 26640, Note_on_c, 1, 51, 86
4, 26640, Note_on_c, 1, 46, 86
4, 26687, Note_on_c, 1, 51, 0
4, 26687, Note_on_c, 1, 46, 0
4, 26688, Note_on_c, 1, 53, 88
4, 26688, Note_on_c, 1, 46, 88
4, 26777, Note_on_c, 1, 53, 0
4, 26777, Note_on_c, 1, 46, 0
4, 26880, Note_on_c, 1, 63, 68
4, 26895, Note_on_c, 1, 63, 0
4, 26896, Note_on_c, 1, 67, 68
4, 26911, Note_on_c, 1, 67, 0
4, 26912, Note_on_c, 1, 70, 68
4, 26927, Note_on_c, 1, 70, 0
4, 26928, Note_on_c, 1, 63, 68
4, 26943, Note_on_c, 1, 63, 0
4, 26944, Note_on_c, 1, 67, 68
4, 26959, Note_on_c, 1, 67, 0
4, 26960, Note_on_c, 1, 70, 68
4, 26975, Note_on_c, 1, 70, 0
4, 26976, Note_on_c, 1, 63, 68
4, 26991, Note_on_c, 1, 63, 0
4, 26992, Note_on_c, 1, 67, 68
4, 27007, Note_on_c, 1, 67, 0
4, 27008, Note_on_c, 1, 70, 68
4, 27023, Note_on_c, 1, 70, 0
4, 27024, Note_on_c, 1, 63, 68
4, 27039, Note_on_c, 1, 63, 0
4, 27040, Note_on_c, 1, 67, 68
4, 27055, Note_on_c, 1, 67, 0
4, 27056, Note_on_c, 1, 70, 68
4, 27071, Note_on_c, 1, 70, 0
4, 27072, Note_on_c, 1, 65, 68
4, 27087, Note_on_c, 1, 65, 0
4, 27088, Note_on_c, 1, 68, 69
4, 27103, Note_on_c, 1, 68, 0
4, 27104, Note_on_c, 1, 70, 69
4, 27119, Note_on_c, 1, 70, 0
4, 27120, Note_on_c, 1, 65, 69
4, 27135, Note_on_c, 1, 65, 0
4, 27136, Note_on_c, 1, 68, 69
4, 27151, Note_on_c, 1, 68, 0
4, 27152, Note_on_c, 1, 70, 70
4, 27167, Note_on_c, 1, 70, 0
4, 27168, Note_on_c, 1, 62, 70
4, 27183, Note_on_c, 1, 62, 0
4, 27184, Note_on_c, 1, 65, 70
4, 27199, Note_on_c, 1, 65, 0
4, 27200, Note_on_c, 1, 70, 70
4, 27215, Note_on_c, 1, 70, 0
4, 27216, Note_on_c, 1, 62, 71
4, 27231, Note_on_c, 1, 62, 0
4, 27232, Note_on_c, 1, 65, 71
4, 27247, Note_on_c, 1, 65, 0
4, 27248, Note_on_c, 1, 70, 71
4, 27263, Note_on_c, 1, 70, 0
4, 27264, Note_on_c, 1, 63, 72
4, 27279, Note_on_c, 1, 63, 0
4, 27280, Note_on_c, 1, 67, 72
4, 27295, Note_on_c, 1, 67, 0
4, 27296, Note_on_c, 1, 70, 72
4, 27311, Note_on_c, 1, 70, 0
4, 27312, Note_on_c, 1, 63, 72
4, 27327, Note_on_c, 1, 63, 0
4, 27328, Note_on_c, 1, 67, 73
4, 27343, Note_on_c, 1, 67, 0
4, 27344, Note_on_c, 1, 70, 73
4, 27359, Note_on_c, 1, 70, 0
4, 27360, Note_on_c, 1, 63, 73
4, 27375, Note_on_c, 1, 63, 0
4, 27376, Note_on_c, 1, 67, 73
4, 27391, Note_on_c, 1, 67, 0
4, 27392, Note_on_c, 1, 70, 74
4, 27407, Note_on_c, 1, 70, 0
4, 27408, Note_on_c, 1, 63, 74
4, 27423, Note_on_c, 1, 63, 0
4, 27424, Note_on_c, 1, 67, 74
4, 27439, Note_on_c, 1, 67, 0
4, 27440, Note_on_c, 1, 70, 74
4, 27455, Note_on_c, 1, 70, 0
4, 27456, Note_on_c, 1, 65, 75
4, 27471, Note_on_c, 1, 65, 0
4, 27472, Note_on_c, 1, 68, 75
4, 27487, Note_on_c, 1, 68, 0
4, 27488, Note_on_c, 1, 70, 75
4, 27503, Note_on_c, 1, 70, 0
4, 27504, Note_on_c, 1, 65, 76
4, 27519, Note_on_c, 1, 65, 0
4, 27520, Note_on_c, 1, 68, 76
4, 27535, Note_on_c, 1, 68, 0
4, 27536, Note_on_c, 1, 70, 76
4, 27551, Note_on_c, 1, 70, 0
4, 27552, Note_on_c, 1, 62, 76
4, 27567, Note_on_c, 1, 62, 0
4, 27568, Note_on_c, 1, 65, 77
4, 27583, Note_on_c, 1, 65, 0
4, 27584, Note_on_c, 1, 70, 77
4, 27599, Note_on_c, 1, 70, 0
4, 27600, Note_on_c, 1, 62, 77
4, 27615, Note_on_c, 1, 62, 0
4, 27616, Note_on_c, 1, 65, 77
4, 27631, Note_on_c, 1, 65, 0
4, 27632, Note_on_c, 1, 70, 78
4, 27647, Note_on_c, 1, 70, 0
4, 27648, Note_on_c, 1, 63, 78
4, 27663, Note_on_c, 1, 63, 0
4, 27664, Note_on_c, 1, 67, 78
4, 27679, Note_on_c, 1, 67, 0
4, 27680, Note_on_c, 1, 70, 78
4, 27695, Note_on_c, 1, 70, 0
4, 27696, Note_on_c, 1, 63, 83
4, 27711, Note_on_c, 1, 63, 0
4, 27712, Note_on_c, 1, 67, 83
4, 27727, Note_on_c, 1, 67, 0
4, 27728, Note_on_c, 1, 70, 83
4, 27743, Note_on_c, 1, 70, 0
4, 27744, Note_on_c, 1, 65, 83
4, 27759, Note_on_c, 1, 65, 0
4, 27760, Note_on_c, 1, 68, 83
4, 27775, Note_on_c, 1, 68, 0
4, 27776, Note_on_c, 1, 70, 83
4, 27791, Note_on_c, 1, 70, 0
4, 27792, Note_on_c, 1, 62, 83
4, 27807, Note_on_c, 1, 62, 0
4, 27808, Note_on_c, 1, 65, 83
4, 27823, Note_on_c, 1, 65, 0
4, 27824, Note_on_c, 1, 70, 83
4, 27839, Note_on_c, 1, 70, 0
4, 27840, Note_on_c, 1, 63, 83
4, 27855, Note_on_c, 1, 63, 0
4, 27856, Note_on_c, 1, 67, 83
4, 27871, Note_on_c, 1, 67, 0
4, 27872, Note_on_c, 1, 70, 83
4, 27887, Note_on_c, 1, 70, 0
4, 27888, Note_on_c, 1, 63, 83
4, 27903, Note_on_c, 1, 63, 0
4, 27904, Note_on_c, 1, 67, 83
4, 27919, Note_on_c, 1, 67, 0
4, 27920, Note_on_c, 1, 70, 83
4, 27935, Note_on_c, 1, 70, 0
4, 27936, Note_on_c, 1, 65, 83
4, 27951, Note_on_c, 1, 65, 0
4, 27952, Note_on_c, 1, 68, 83
4, 27967, Note_on_c, 1, 68, 0
4, 27968, Note_on_c, 1, 70, 83
4, 27983, Note_on_c, 1, 70, 0
4, 27984, Note_on_c, 1, 62, 83
4, 27999, Note_on_c, 1, 62, 0
4, 28000, Note_on_c, 1, 65, 83
4, 28015, Note_on_c, 1, 65, 0
4, 28016, Note_on_c, 1, 70, 83
4, 28031, Note_on_c, 1, 70, 0
4, 28032, Note_on_c, 1, 63, 83
4, 28121, Note_on_c, 1, 63, 0
4, 28224, Note_on_c, 1, 56, 83
4, 28313, Note_on_c, 1, 56, 0
4, 28656, Note_on_c, 1, 67, 74
4, 28656, Note_on_c, 1, 58, 74
4, 28701, Note_on_c, 1, 67, 0
4, 28701, Note_on_c, 1, 58, 0
4, 28704, Note_on_c, 1, 67, 72
4, 28704, Note_on_c, 1, 58, 72
4, 28749, Note_on_c, 1, 67, 0
4, 28749, Note_on_c, 1, 58, 0
4, 28752, Note_on_c, 1, 65, 70
4, 28752, Note_on_c, 1, 58, 70
4, 28797, Note_on_c, 1, 65, 0
4, 28797, Note_on_c, 1, 58, 0
4, 28800, Note_on_c, 1, 63, 68
4, 28847, Note_on_c, 1, 63, 0
4, 28992, Note_on_c, 1, 39, 68
4, 29081, Note_on_c, 1, 39, 0
4, 29232, Note_on_c, 1, 51, 79
4, 29280, Note_on_c, 1, 51, 0
4, 29280, Note_on_c, 1, 63, 79
4, 29300, Note_on_c, 1, 63, 0
4, 29424, Note_on_c, 1, 51, 79
4, 29472, Note_on_c, 1, 51, 0
4, 29472, Note_on_c, 1, 63, 79
4, 29492, Note_on_c, 1, 63, 0
4, 29616, Note_on_c, 1, 36, 83
4, 29661, Note_on_c, 1, 36, 0
4, 29664, Note_on_c, 1, 48, 83
4, 29929, Note_on_c, 1, 48, 0
4, 29952, Note_on_c, 1, 68, 74
4, 29952, Note_on_c, 1, 65, 74
4, 30096, Note_on_c, 1, 68, 0
4, 30096, Note_on_c, 1, 65, 0
4, 30096, Note_on_c, 1, 67, 74
4, 30096, Note_on_c, 1, 64, 74
4, 30141, Note_on_c, 1, 67, 0
4, 30141, Note_on_c, 1, 64, 0
4, 30144, Note_on_c, 1, 70, 74
4, 30144, Note_on_c, 1, 67, 74
4, 30288, Note_on_c, 1, 70, 0
4, 30288, Note_on_c, 1, 67, 0
4, 30288, Note_on_c, 1, 68, 74
4, 30288, Note_on_c, 1, 65, 74
4, 30333, Note_on_c, 1, 68, 0
4, 30333, Note_on_c, 1, 65, 0
4, 30336, Note_on_c, 1, 72, 74
4, 30336, Note_on_c, 1, 68, 74
4, 30469, Note_on_c, 1, 72, 0
4, 30469, Note_on_c, 1, 68, 0
4, 30480, Note_on_c, 1, 70, 74
4, 30480, Note_on_c, 1, 67, 74
4, 30525, Note_on_c, 1, 70, 0
4, 30525, Note_on_c, 1, 67, 0
4, 30528, Note_on_c, 1, 68, 74
4, 30528, Note_on_c, 1, 65, 74
4, 30573, Note_on_c, 1, 68, 0
4, 30573, Note_on_c, 1, 65, 0
4, 30576, Note_on_c, 1, 67, 74
4, 30576, Note_on_c, 1, 63, 74
4, 30621, Note_on_c, 1, 67, 0
4, 30621, Note_on_c, 1, 63, 0
4, 30624, Note_on_c, 1, 65, 74
4, 30624, Note_on_c, 1, 61, 74
4, 30669, Note_on_c, 1, 65, 0
4, 30669, Note_on_c, 1, 61, 0
4, 30672, Note_on_c, 1, 63, 74
4, 30672, Note_on_c, 1, 60, 74
4, 30717, Note_on_c, 1, 63, 0
4, 30717, Note_on_c, 1, 60, 0
4, 30720, Note_on_c, 1, 61, 74
4, 30720, Note_on_c, 1, 58, 74
4, 30765, Note_on_c, 1, 61, 0
4, 30765, Note_on_c, 1, 58, 0
4, 30768, Note_on_c, 1, 60, 74
4, 30768, Note_on_c, 1, 56, 74
4, 30813, Note_on_c, 1, 60, 0
4, 30813, Note_on_c, 1, 56, 0
4, 30816, Note_on_c, 1, 58, 74
4, 30816, Note_on_c, 1, 55, 74
4, 30861, Note_on_c, 1, 58, 0
4, 30861, Note_on_c, 1, 55, 0
4, 30864, Note_on_c, 1, 56, 74
4, 30864, Note_on_c, 1, 53, 74
4, 30909, Note_on_c, 1, 56, 0
4, 30909, Note_on_c, 1, 53, 0
4, 30912, Note_on_c, 1, 58, 83
4, 30912, Note_on_c, 1, 55, 83
4, 31089, Note_on_c, 1, 58, 0
4, 31089, Note_on_c, 1, 55, 0
4, 31152, Note_on_c, 1, 44, 79
4, 31200, Note_on_c, 1, 44, 0
4, 31200, Note_on_c, 1, 56, 79
4, 31220, Note_on_c, 1, 56, 0
4, 31344, Note_on_c, 1, 44, 79
4, 31392, Note_on_c, 1, 44, 0
4, 31392, Note_on_c, 1, 56, 79
4, 31412, Note_on_c, 1, 56, 0
4, 31536, Note_on_c, 1, 42, 79
4, 31584, Note_on_c, 1, 42, 0
4, 31584, Note_on_c, 1, 54, 79
4, 31604, Note_on_c, 1, 54, 0
4, 31728, Note_on_c, 1, 42, 81
4, 31776, Note_on_c, 1, 42, 0
4, 31776, Note_on_c, 1, 54, 82
4, 31796, Note_on_c, 1, 54, 0
4, 31920, Note_on_c, 1, 41, 88
4, 31965, Note_on_c, 1, 41, 0
4, 32208, Note_on_c, 1, 61, 79
4, 32253, Note_on_c, 1, 61, 0
4, 32256, Note_on_c, 1, 60, 79
4, 32301, Note_on_c, 1, 60, 0
4, 32304, Note_on_c, 1, 58, 79
4, 32349, Note_on_c, 1, 58, 0
4, 32352, Note_on_c, 1, 57, 79
4, 32397, Note_on_c, 1, 57, 0
4, 32400, Note_on_c, 1, 55, 79
4, 32445, Note_on_c, 1, 55, 0
4, 32448, Note_on_c, 1, 57, 79
4, 32625, Note_on_c, 1, 57, 0
4, 32640, Note_on_c, 1, 58, 68
4, 32655, Note_on_c, 1, 58, 0
4, 32656, Note_on_c, 1, 61, 68
4, 32671, Note_on_c, 1, 61, 0
4, 32672, Note_on_c, 1, 65, 68
4, 32687, Note_on_c, 1, 65, 0
4, 32688, Note_on_c, 1, 58, 68
4, 32703, Note_on_c, 1, 58, 0
4, 32704, Note_on_c, 1, 61, 68
4, 32719, Note_on_c, 1, 61, 0
4, 32720, Note_on_c, 1, 65, 68
4, 32735, Note_on_c, 1, 65, 0
4, 32736, Note_on_c, 1, 58, 68
4, 32751, Note_on_c, 1, 58, 0
4, 32752, Note_on_c, 1, 61, 68
4, 32767, Note_on_c, 1, 61, 0
4, 32768, Note_on_c, 1, 65, 68
4, 32783, Note_on_c, 1, 65, 0
4, 32784, Note_on_c, 1, 58, 68
4, 32799, Note_on_c, 1, 58, 0
4, 32800, Note_on_c, 1, 61, 68
4, 32815, Note_on_c, 1, 61, 0
4, 32816, Note_on_c, 1, 65, 68
4, 32831, Note_on_c, 1, 65, 0
4, 32832, Note_on_c, 1, 60, 68
4, 32847, Note_on_c, 1, 60, 0
4, 32848, Note_on_c, 1, 63, 68
4, 32863, Note_on_c, 1, 63, 0
4, 32864, Note_on_c, 1, 65, 68
4, 32879, Note_on_c, 1, 65, 0
4, 32880, Note_on_c, 1, 60, 68
4, 32895, Note_on_c, 1, 60, 0
4, 32896, Note_on_c, 1, 63, 68
4, 32911, Note_on_c, 1, 63, 0
4, 32912, Note_on_c, 1, 65, 68
4, 32927, Note_on_c, 1, 65, 0
4, 32928, Note_on_c, 1, 57, 68
4, 32943, Note_on_c, 1, 57, 0
4, 32944, Note_on_c, 1, 60, 68
4, 32959, Note_on_c, 1, 60, 0
4, 32960, Note_on_c, 1, 65, 68
4, 32975, Note_on_c, 1, 65, 0
4, 32976, Note_on_c, 1, 57, 68
4, 32991, Note_on_c, 1, 57, 0
4, 32992, Note_on_c, 1, 60, 68
4, 33007, Note_on_c, 1, 60, 0
4, 33008, Note_on_c, 1, 65, 68
4, 33023, Note_on_c, 1, 65, 0
4, 33024, Note_on_c, 1, 58, 68
4, 33039, Note_on_c, 1, 58, 0
4, 33040, Note_on_c, 1, 61, 68
4, 33055, Note_on_c, 1, 61, 0
4, 33056, Note_on_c, 1, 65, 68
4, 33071, Note_on_c, 1, 65, 0
4, 33072, Note_on_c, 1, 58, 68
4, 33087, Note_on_c, 1, 58, 0
4, 33088, Note_on_c, 1, 61, 68
4, 33103, Note_on_c, 1, 61, 0
4, 33104, Note_on_c, 1, 65, 68
4, 33119, Note_on_c, 1, 65, 0
4, 33120, Note_on_c, 1, 58, 68
4, 33135, Note_on_c, 1, 58, 0
4, 33136, Note_on_c, 1, 61, 68
4, 33151, Note_on_c, 1, 61, 0
4, 33152, Note_on_c, 1, 65, 68
4, 33167, Note_on_c, 1, 65, 0
4, 33168, Note_on_c, 1, 58, 68
4, 33183, Note_on_c, 1, 58, 0
4, 33184, Note_on_c, 1, 61, 68
4, 33199, Note_on_c, 1, 61, 0
4, 33200, Note_on_c, 1, 65, 68
4, 33215, Note_on_c, 1, 65, 0
4, 33216, Note_on_c, 1, 60, 68
4, 33231, Note_on_c, 1, 60, 0
4, 33232, Note_on_c, 1, 63, 68
4, 33247, Note_on_c, 1, 63, 0
4, 33248, Note_on_c, 1, 65, 68
4, 33263, Note_on_c, 1, 65, 0
4, 33264, Note_on_c, 1, 60, 68
4, 33279, Note_on_c, 1, 60, 0
4, 33280, Note_on_c, 1, 63, 68
4, 33295, Note_on_c, 1, 63, 0
4, 33296, Note_on_c, 1, 65, 68
4, 33311, Note_on_c, 1, 65, 0
4, 33312, Note_on_c, 1, 57, 68
4, 33327, Note_on_c, 1, 57, 0
4, 33328, Note_on_c, 1, 60, 68
4, 33343, Note_on_c, 1, 60, 0
4, 33344, Note_on_c, 1, 65, 68
4, 33359, Note_on_c, 1, 65, 0
4, 33360, Note_on_c, 1, 57, 68
4, 33375, Note_on_c, 1, 57, 0
4, 33376, Note_on_c, 1, 60, 68
4, 33391, Note_on_c, 1, 60, 0
4, 33392, Note_on_c, 1, 65, 68
4, 33407, Note_on_c, 1, 65, 0
4, 33408, Note_on_c, 1, 58, 68
4, 33423, Note_on_c, 1, 58, 0
4, 33424, Note_on_c, 1, 61, 68
4, 33439, Note_on_c, 1, 61, 0
4, 33440, Note_on_c, 1, 65, 68
4, 33455, Note_on_c, 1, 65, 0
4, 33456, Note_on_c, 1, 58, 68
4, 33471, Note_on_c, 1, 58, 0
4, 33472, Note_on_c, 1, 61, 68
4, 33487, Note_on_c, 1, 61, 0
4, 33488, Note_on_c, 1, 65, 68
4, 33503, Note_on_c, 1, 65, 0
4, 33504, Note_on_c, 1, 58, 68
4, 33519, Note_on_c, 1, 58, 0
4, 33520, Note_on_c, 1, 61, 68
4, 33535, Note_on_c, 1, 61, 0
4, 33536, Note_on_c, 1, 65, 68
4, 33551, Note_on_c, 1, 65, 0
4, 33552, Note_on_c, 1, 58, 68
4, 33567, Note_on_c, 1, 58, 0
4, 33568, Note_on_c, 1, 61, 68
4, 33583, Note_on_c, 1, 61, 0
4, 33584, Note_on_c, 1, 65, 68
4, 33599, Note_on_c, 1, 65, 0
4, 33600, Note_on_c, 1, 56, 68
4, 33615, Note_on_c, 1, 56, 0
4, 33616, Note_on_c, 1, 63, 68
4, 33631, Note_on_c, 1, 63, 0
4, 33632, Note_on_c, 1, 66, 68
4, 33647, Note_on_c, 1, 66, 0
4, 33648, Note_on_c, 1, 56, 68
4, 33663, Note_on_c, 1, 56, 0
4, 33664, Note_on_c, 1, 63, 68
4, 33679, Note_on_c, 1, 63, 0
4, 33680, Note_on_c, 1, 66, 68
4, 33695, Note_on_c, 1, 66, 0
4, 33696, Note_on_c, 1, 56, 68
4, 33711, Note_on_c, 1, 56, 0
4, 33712, Note_on_c, 1, 60, 68
4, 33727, Note_on_c, 1, 60, 0
4, 33728, Note_on_c, 1, 66, 68
4, 33743, Note_on_c, 1, 66, 0
4, 33744, Note_on_c, 1, 56, 68
4, 33759, Note_on_c, 1, 56, 0
4, 33760, Note_on_c, 1, 60, 68
4, 33775, Note_on_c, 1, 60, 0
4, 33776, Note_on_c, 1, 66, 68
4, 33791, Note_on_c, 1, 66, 0
4, 33792, Note_on_c, 1, 61, 68
4, 33807, Note_on_c, 1, 61, 0
4, 33808, Note_on_c, 1, 65, 68
4, 33823, Note_on_c, 1, 65, 0
4, 33824, Note_on_c, 1, 68, 68
4, 33839, Note_on_c, 1, 68, 0
4, 33840, Note_on_c, 1, 61, 68
4, 33855, Note_on_c, 1, 61, 0
4, 33856, Note_on_c, 1, 65, 68
4, 33871, Note_on_c, 1, 65, 0
4, 33872, Note_on_c, 1, 68, 68
4, 33887, Note_on_c, 1, 68, 0
4, 33888, Note_on_c, 1, 61, 68
4, 33903, Note_on_c, 1, 61, 0
4, 33904, Note_on_c, 1, 65, 68
4, 33919, Note_on_c, 1, 65, 0
4, 33920, Note_on_c, 1, 68, 68
4, 33935, Note_on_c, 1, 68, 0
4, 33936, Note_on_c, 1, 61, 68
4, 33951, Note_on_c, 1, 61, 0
4, 33952, Note_on_c, 1, 65, 68
4, 33967, Note_on_c, 1, 65, 0
4, 33968, Note_on_c, 1, 68, 68
4, 33983, Note_on_c, 1, 68, 0
4, 33984, Note_on_c, 1, 63, 68
4, 33999, Note_on_c, 1, 63, 0
4, 34000, Note_on_c, 1, 66, 68
4, 34015, Note_on_c, 1, 66, 0
4, 34016, Note_on_c, 1, 68, 68
4, 34031, Note_on_c, 1, 68, 0
4, 34032, Note_on_c, 1, 63, 68
4, 34047, Note_on_c, 1, 63, 0
4, 34048, Note_on_c, 1, 66, 68
4, 34063, Note_on_c, 1, 66, 0
4, 34064, Note_on_c, 1, 68, 68
4, 34079, Note_on_c, 1, 68, 0
4, 34080, Note_on_c, 1, 60, 68
4, 34095, Note_on_c, 1, 60, 0
4, 34096, Note_on_c, 1, 63, 68
4, 34111, Note_on_c, 1, 63, 0
4, 34112, Note_on_c, 1, 68, 68
4, 34127, Note_on_c, 1, 68, 0
4, 34128, Note_on_c, 1, 60, 68
4, 34143, Note_on_c, 1, 60, 0
4, 34144, Note_on_c, 1, 63, 68
4, 34159, Note_on_c, 1, 63, 0
4, 34160, Note_on_c, 1, 68, 68
4, 34175, Note_on_c, 1, 68, 0
4, 34176, Note_on_c, 1, 61, 68
4, 34265, Note_on_c, 1, 61, 0
4, 34416, Note_on_c, 1, 65, 83
4, 34431, Note_on_c, 1, 65, 0
4, 34432, Note_on_c, 1, 63, 83
4, 34447, Note_on_c, 1, 63, 0
4, 34448, Note_on_c, 1, 61, 83
4, 34463, Note_on_c, 1, 61, 0
4, 34464, Note_on_c, 1, 60, 83
4, 34479, Note_on_c, 1, 60, 0
4, 34480, Note_on_c, 1, 58, 83
4, 34495, Note_on_c, 1, 58, 0
4, 34496, Note_on_c, 1, 56, 83
4, 34511, Note_on_c, 1, 56, 0
4, 34512, Note_on_c, 1, 54, 83
4, 34527, Note_on_c, 1, 54, 0
4, 34528, Note_on_c, 1, 53, 83
4, 34543, Note_on_c, 1, 53, 0
4, 34544, Note_on_c, 1, 51, 83
4, 34559, Note_on_c, 1, 51, 0
4, 34560, Note_on_c, 1, 49, 83
4, 34649, Note_on_c, 1, 49, 0
4, 34656, Note_on_c, 1, 47, 83
4, 34667, Note_on_c, 1, 47, 0
4, 34667, Note_on_c, 1, 49, 83
4, 34678, Note_on_c, 1, 49, 0
4, 34678, Note_on_c, 1, 47, 83
4, 34689, Note_on_c, 1, 47, 0
4, 34689, Note_on_c, 1, 49, 83
4, 34700, Note_on_c, 1, 49, 0
4, 34700, Note_on_c, 1, 47, 83
4, 34711, Note_on_c, 1, 47, 0
4, 34711, Note_on_c, 1, 49, 83
4, 34722, Note_on_c, 1, 49, 0
4, 34722, Note_on_c, 1, 47, 83
4, 34732, Note_on_c, 1, 47, 0
4, 34732, Note_on_c, 1, 46, 83
4, 34742, Note_on_c, 1, 46, 0
4, 34742, Note_on_c, 1, 47, 83
4, 34752, Note_on_c, 1, 47, 0
4, 34752, Note_on_c, 1, 46, 83
4, 34752, Note_on_c, 1, 34, 83
4, 34929, Note_on_c, 1, 46, 0
4, 34929, Note_on_c, 1, 34, 0
4, 35136, Note_on_c, 1, 63, 62
4, 35151, Note_on_c, 1, 63, 0
4, 35152, Note_on_c, 1, 66, 62
4, 35167, Note_on_c, 1, 66, 0
4, 35168, Note_on_c, 1, 70, 62
4, 35183, Note_on_c, 1, 70, 0
4, 35184, Note_on_c, 1, 63, 62
4, 35199, Note_on_c, 1, 63, 0
4, 35200, Note_on_c, 1, 66, 62
4, 35215, Note_on_c, 1, 66, 0
4, 35216, Note_on_c, 1, 70, 62
4, 35231, Note_on_c, 1, 70, 0
4, 35232, Note_on_c, 1, 63, 62
4, 35247, Note_on_c, 1, 63, 0
4, 35248, Note_on_c, 1, 66, 62
4, 35263, Note_on_c, 1, 66, 0
4, 35264, Note_on_c, 1, 70, 62
4, 35279, Note_on_c, 1, 70, 0
4, 35280, Note_on_c, 1, 63, 62
4, 35295, Note_on_c, 1, 63, 0
4, 35296, Note_on_c, 1, 66, 62
4, 35311, Note_on_c, 1, 66, 0
4, 35312, Note_on_c, 1, 70, 62
4, 35327, Note_on_c, 1, 70, 0
4, 35328, Note_on_c, 1, 65, 62
4, 35343, Note_on_c, 1, 65, 0
4, 35344, Note_on_c, 1, 68, 62
4, 35359, Note_on_c, 1, 68, 0
4, 35360, Note_on_c, 1, 70, 62
4, 35375, Note_on_c, 1, 70, 0
4, 35376, Note_on_c, 1, 65, 62
4, 35391, Note_on_c, 1, 65, 0
4, 35392, Note_on_c, 1, 68, 62
4, 35407, Note_on_c, 1, 68, 0
4, 35408, Note_on_c, 1, 70, 62
4, 35423, Note_on_c, 1, 70, 0
4, 35424, Note_on_c, 1, 62, 62
4, 35439, Note_on_c, 1, 62, 0
4, 35440, Note_on_c, 1, 65, 62
4, 35455, Note_on_c, 1, 65, 0
4, 35456, Note_on_c, 1, 70, 62
4, 35471, Note_on_c, 1, 70, 0
4, 35472, Note_on_c, 1, 62, 62
4, 35487, Note_on_c, 1, 62, 0
4, 35488, Note_on_c, 1, 65, 62
4, 35503, Note_on_c, 1, 65, 0
4, 35504, Note_on_c, 1, 70, 62
4, 35519, Note_on_c, 1, 70, 0
4, 35520, Note_on_c, 1, 63, 62
4, 35535, Note_on_c, 1, 63, 0
4, 35536, Note_on_c, 1, 66, 62
4, 35551, Note_on_c, 1, 66, 0
4, 35552, Note_on_c, 1, 70, 62
4, 35567, Note_on_c, 1, 70, 0
4, 35568, Note_on_c, 1, 63, 62
4, 35583, Note_on_c, 1, 63, 0
4, 35584, Note_on_c, 1, 66, 62
4, 35599, Note_on_c, 1, 66, 0
4, 35600, Note_on_c, 1, 70, 62
4, 35615, Note_on_c, 1, 70, 0
4, 35616, Note_on_c, 1, 63, 62
4, 35631, Note_on_c, 1, 63, 0
4, 35632, Note_on_c, 1, 66, 62
4, 35647, Note_on_c, 1, 66, 0
4, 35648, Note_on_c, 1, 70, 62
4, 35663, Note_on_c, 1, 70, 0
4, 35664, Note_on_c, 1, 63, 62
4, 35679, Note_on_c, 1, 63, 0
4, 35680, Note_on_c, 1, 66, 62
4, 35695, Note_on_c, 1, 66, 0
4, 35696, Note_on_c, 1, 70, 62
4, 35711, Note_on_c, 1, 70, 0
4, 35712, Note_on_c, 1, 65, 62
4, 35727, Note_on_c, 1, 65, 0
4, 35728, Note_on_c, 1, 68, 62
4, 35743, Note_on_c, 1, 68, 0
4, 35744, Note_on_c, 1, 70, 62
4, 35759, Note_on_c, 1, 70, 0
4, 35760, Note_on_c, 1, 65, 62
4, 35775, Note_on_c, 1, 65, 0
4, 35776, Note_on_c, 1, 68, 62
4, 35791, Note_on_c, 1, 68, 0
4, 35792, Note_on_c, 1, 70, 62
4, 35807, Note_on_c, 1, 70, 0
4, 35808, Note_on_c, 1, 62, 62
4, 35823, Note_on_c, 1, 62, 0
4, 35824, Note_on_c, 1, 65, 62
4, 35839, Note_on_c, 1, 65, 0
4, 35840, Note_on_c, 1, 70, 62
4, 35855, Note_on_c, 1, 70, 0
4, 35856, Note_on_c, 1, 62, 62
4, 35871, Note_on_c, 1, 62, 0
4, 35872, Note_on_c, 1, 65, 62
4, 35887, Note_on_c, 1, 65, 0
4, 35888, Note_on_c, 1, 70, 62
4, 35903, Note_on_c, 1, 70, 0
4, 35904, Note_on_c, 1, 63, 68
4, 35919, Note_on_c, 1, 63, 0
4, 35920, Note_on_c, 1, 66, 68
4, 35935, Note_on_c, 1, 66, 0
4, 35936, Note_on_c, 1, 70, 69
4, 35951, Note_on_c, 1, 70, 0
4, 35952, Note_on_c, 1, 63, 70
4, 35967, Note_on_c, 1, 63, 0
4, 35968, Note_on_c, 1, 66, 71
4, 35983, Note_on_c, 1, 66, 0
4, 35984, Note_on_c, 1, 70, 71
4, 35999, Note_on_c, 1, 70, 0
4, 36000, Note_on_c, 1, 63, 74
4, 36015, Note_on_c, 1, 63, 0
4, 36016, Note_on_c, 1, 70, 74
4, 36031, Note_on_c, 1, 70, 0
4, 36032, Note_on_c, 1, 73, 74
4, 36047, Note_on_c, 1, 73, 0
4, 36048, Note_on_c, 1, 63, 74
4, 36063, Note_on_c, 1, 63, 0
4, 36064, Note_on_c, 1, 70, 74
4, 36079, Note_on_c, 1, 70, 0
4, 36080, Note_on_c, 1, 73, 74
4, 36095, Note_on_c, 1, 73, 0
4, 36096, Note_on_c, 1, 63, 74
4, 36111, Note_on_c, 1, 63, 0
4, 36112, Note_on_c, 1, 68, 74
4, 36127, Note_on_c, 1, 68, 0
4, 36128, Note_on_c, 1, 71, 74
4, 36143, Note_on_c, 1, 71, 0
4, 36144, Note_on_c, 1, 63, 74
4, 36159, Note_on_c, 1, 63, 0
4, 36160, Note_on_c, 1, 68, 74
4, 36175, Note_on_c, 1, 68, 0
4, 36176, Note_on_c, 1, 71, 74
4, 36191, Note_on_c, 1, 71, 0
4, 36192, Note_on_c, 1, 63, 74
4, 36207, Note_on_c, 1, 63, 0
4, 36208, Note_on_c, 1, 68, 74
4, 36223, Note_on_c, 1, 68, 0
4, 36224, Note_on_c, 1, 71, 74
4, 36239, Note_on_c, 1, 71, 0
4, 36240, Note_on_c, 1, 63, 74
4, 36255, Note_on_c, 1, 63, 0
4, 36256, Note_on_c, 1, 68, 74
4, 36271, Note_on_c, 1, 68, 0
4, 36272, Note_on_c, 1, 71, 74
4, 36287, Note_on_c, 1, 71, 0
4, 36288, Note_on_c, 1, 61, 74
4, 36303, Note_on_c, 1, 61, 0
4, 36304, Note_on_c, 1, 68, 74
4, 36319, Note_on_c, 1, 68, 0
4, 36320, Note_on_c, 1, 71, 74
4, 36335, Note_on_c, 1, 71, 0
4, 36336, Note_on_c, 1, 61, 74
4, 36351, Note_on_c, 1, 61, 0
4, 36352, Note_on_c, 1, 68, 74
4, 36367, Note_on_c, 1, 68, 0
4, 36368, Note_on_c, 1, 71, 74
4, 36383, Note_on_c, 1, 71, 0
4, 36384, Note_on_c, 1, 61, 74
4, 36399, Note_on_c, 1, 61, 0
4, 36400, Note_on_c, 1, 68, 74
4, 36415, Note_on_c, 1, 68, 0
4, 36416, Note_on_c, 1, 71, 74
4, 36431, Note_on_c, 1, 71, 0
4, 36432, Note_on_c, 1, 61, 74
4, 36447, Note_on_c, 1, 61, 0
4, 36448, Note_on_c, 1, 68, 74
4, 36463, Note_on_c, 1, 68, 0
4, 36464, Note_on_c, 1, 71, 74
4, 36479, Note_on_c, 1, 71, 0
4, 36480, Note_on_c, 1, 61, 74
4, 36495, Note_on_c, 1, 61, 0
4, 36496, Note_on_c, 1, 66, 74
4, 36511, Note_on_c, 1, 66, 0
4, 36512, Note_on_c, 1, 70, 74
4, 36527, Note_on_c, 1, 70, 0
4, 36528, Note_on_c, 1, 61, 74
4, 36543, Note_on_c, 1, 61, 0
4, 36544, Note_on_c, 1, 66, 74
4, 36559, Note_on_c, 1, 66, 0
4, 36560, Note_on_c, 1, 70, 74
4, 36575, Note_on_c, 1, 70, 0
4, 36576, Note_on_c, 1, 61, 74
4, 36591, Note_on_c, 1, 61, 0
4, 36592, Note_on_c, 1, 66, 74
4, 36607, Note_on_c, 1, 66, 0
4, 36608, Note_on_c, 1, 70, 74
4, 36623, Note_on_c, 1, 70, 0
4, 36624, Note_on_c, 1, 61, 74
4, 36639, Note_on_c, 1, 61, 0
4, 36640, Note_on_c, 1, 66, 74
4, 36655, Note_on_c, 1, 66, 0
4, 36656, Note_on_c, 1, 70, 74
4, 36671, Note_on_c, 1, 70, 0
4, 36672, Note_on_c, 1, 59, 74
4, 36687, Note_on_c, 1, 59, 0
4, 36688, Note_on_c, 1, 66, 74
4, 36703, Note_on_c, 1, 66, 0
4, 36704, Note_on_c, 1, 70, 74
4, 36719, Note_on_c, 1, 70, 0
4, 36720, Note_on_c, 1, 59, 74
4, 36735, Note_on_c, 1, 59, 0
4, 36736, Note_on_c, 1, 66, 74
4, 36751, Note_on_c, 1, 66, 0
4, 36752, Note_on_c, 1, 70, 74
4, 36767, Note_on_c, 1, 70, 0
4, 36768, Note_on_c, 1, 59, 74
4, 36783, Note_on_c, 1, 59, 0
4, 36784, Note_on_c, 1, 66, 74
4, 36799, Note_on_c, 1, 66, 0
4, 36800, Note_on_c, 1, 70, 74
4, 36815, Note_on_c, 1, 70, 0
4, 36816, Note_on_c, 1, 59, 74
4, 36831, Note_on_c, 1, 59, 0
4, 36832, Note_on_c, 1, 66, 74
4, 36847, Note_on_c, 1, 66, 0
4, 36848, Note_on_c, 1, 70, 74
4, 36863, Note_on_c, 1, 70, 0
4, 36864, Note_on_c, 1, 59, 74
4, 36879, Note_on_c, 1, 59, 0
4, 36880, Note_on_c, 1, 65, 74
4, 36895, Note_on_c, 1, 65, 0
4, 36896, Note_on_c, 1, 68, 74
4, 36911, Note_on_c, 1, 68, 0
4, 36912, Note_on_c, 1, 59, 74
4, 36927, Note_on_c, 1, 59, 0
4, 36928, Note_on_c, 1, 65, 74
4, 36943, Note_on_c, 1, 65, 0
4, 36944, Note_on_c, 1, 68, 74
4, 36959, Note_on_c, 1, 68, 0
4, 36960, Note_on_c, 1, 59, 74
4, 36975, Note_on_c, 1, 59, 0
4, 36976, Note_on_c, 1, 65, 74
4, 36991, Note_on_c, 1, 65, 0
4, 36992, Note_on_c, 1, 68, 74
4, 37007, Note_on_c, 1, 68, 0
4, 37008, Note_on_c, 1, 59, 74
4, 37023, Note_on_c, 1, 59, 0
4, 37024, Note_on_c, 1, 65, 74
4, 37039, Note_on_c, 1, 65, 0
4, 37040, Note_on_c, 1, 68, 74
4, 37055, Note_on_c, 1, 68, 0
4, 37056, Note_on_c, 1, 58, 74
4, 37071, Note_on_c, 1, 58, 0
4, 37072, Note_on_c, 1, 65, 74
4, 37087, Note_on_c, 1, 65, 0
4, 37088, Note_on_c, 1, 68, 74
4, 37103, Note_on_c, 1, 68, 0
4, 37104, Note_on_c, 1, 58, 74
4, 37119, Note_on_c, 1, 58, 0
4, 37120, Note_on_c, 1, 65, 74
4, 37135, Note_on_c, 1, 65, 0
4, 37136, Note_on_c, 1, 68, 74
4, 37151, Note_on_c, 1, 68, 0
4, 37152, Note_on_c, 1, 58, 74
4, 37167, Note_on_c, 1, 58, 0
4, 37168, Note_on_c, 1, 65, 74
4, 37183, Note_on_c, 1, 65, 0
4, 37184, Note_on_c, 1, 68, 74
4, 37199, Note_on_c, 1, 68, 0
4, 37200, Note_on_c, 1, 58, 74
4, 37215, Note_on_c, 1, 58, 0
4, 37216, Note_on_c, 1, 65, 74
4, 37231, Note_on_c, 1, 65, 0
4, 37232, Note_on_c, 1, 68, 74
4, 37247, Note_on_c, 1, 68, 0
4, 37248, Note_on_c, 1, 58, 74
4, 37263, Note_on_c, 1, 58, 0
4, 37264, Note_on_c, 1, 63, 74
4, 37279, Note_on_c, 1, 63, 0
4, 37280, Note_on_c, 1, 67, 74
4, 37295, Note_on_c, 1, 67, 0
4, 37296, Note_on_c, 1, 58, 74
4, 37311, Note_on_c, 1, 58, 0
4, 37312, Note_on_c, 1, 63, 74
4, 37327, Note_on_c, 1, 63, 0
4, 37328, Note_on_c, 1, 67, 74
4, 37343, Note_on_c, 1, 67, 0
4, 37344, Note_on_c, 1, 58, 74
4, 37359, Note_on_c, 1, 58, 0
4, 37360, Note_on_c, 1, 63, 74
4, 37375, Note_on_c, 1, 63, 0
4, 37376, Note_on_c, 1, 67, 74
4, 37391, Note_on_c, 1, 67, 0
4, 37392, Note_on_c, 1, 58, 74
4, 37407, Note_on_c, 1, 58, 0
4, 37408, Note_on_c, 1, 63, 74
4, 37423, Note_on_c, 1, 63, 0
4, 37424, Note_on_c, 1, 67, 74
4, 37439, Note_on_c, 1, 67, 0
4, 37440, Note_on_c, 1, 60, 74
4, 37455, Note_on_c, 1, 60, 0
4, 37456, Note_on_c, 1, 63, 74
4, 37471, Note_on_c, 1, 63, 0
4, 37472, Note_on_c, 1, 67, 74
4, 37487, Note_on_c, 1, 67, 0
4, 37488, Note_on_c, 1, 60, 74
4, 37503, Note_on_c, 1, 60, 0
4, 37504, Note_on_c, 1, 63, 74
4, 37519, Note_on_c, 1, 63, 0
4, 37520, Note_on_c, 1, 67, 74
4, 37535, Note_on_c, 1, 67, 0
4, 37536, Note_on_c, 1, 60, 74
4, 37551, Note_on_c, 1, 60, 0
4, 37552, Note_on_c, 1, 63, 74
4, 37567, Note_on_c, 1, 63, 0
4, 37568, Note_on_c, 1, 67, 74
4, 37583, Note_on_c, 1, 67, 0
4, 37584, Note_on_c, 1, 60, 74
4, 37599, Note_on_c, 1, 60, 0
4, 37600, Note_on_c, 1, 63, 74
4, 37615, Note_on_c, 1, 63, 0
4, 37616, Note_on_c, 1, 67, 74
4, 37631, Note_on_c, 1, 67, 0
4, 37632, Note_on_c, 1, 58, 74
4, 37647, Note_on_c, 1, 58, 0
4, 37648, Note_on_c, 1, 63, 74
4, 37663, Note_on_c, 1, 63, 0
4, 37664, Note_on_c, 1, 67, 74
4, 37679, Note_on_c, 1, 67, 0
4, 37680, Note_on_c, 1, 58, 74
4, 37695, Note_on_c, 1, 58, 0
4, 37696, Note_on_c, 1, 63, 74
4, 37711, Note_on_c, 1, 63, 0
4, 37712, Note_on_c, 1, 67, 74
4, 37727, Note_on_c, 1, 67, 0
4, 37728, Note_on_c, 1, 58, 74
4, 37743, Note_on_c, 1, 58, 0
4, 37744, Note_on_c, 1, 63, 74
4, 37759, Note_on_c, 1, 63, 0
4, 37760, Note_on_c, 1, 67, 74
4, 37775, Note_on_c, 1, 67, 0
4, 37776, Note_on_c, 1, 58, 74
4, 37791, Note_on_c, 1, 58, 0
4, 37792, Note_on_c, 1, 63, 74
4, 37807, Note_on_c, 1, 63, 0
4, 37808, Note_on_c, 1, 67, 74
4, 37823, Note_on_c, 1, 67, 0
4, 37824, Note_on_c, 1, 57, 74
4, 37839, Note_on_c, 1, 57, 0
4, 37840, Note_on_c, 1, 63, 74
4, 37855, Note_on_c, 1, 63, 0
4, 37856, Note_on_c, 1, 67, 74
4, 37871, Note_on_c, 1, 67, 0
4, 37872, Note_on_c, 1, 57, 74
4, 37887, Note_on_c, 1, 57, 0
4, 37888, Note_on_c, 1, 63, 74
4, 37903, Note_on_c, 1, 63, 0
4, 37904, Note_on_c, 1, 67, 74
4, 37919, Note_on_c, 1, 67, 0
4, 37920, Note_on_c, 1, 57, 74
4, 37935, Note_on_c, 1, 57, 0
4, 37936, Note_on_c, 1, 63, 74
4, 37951, Note_on_c, 1, 63, 0
4, 37952, Note_on_c, 1, 67, 74
4, 37967, Note_on_c, 1, 67, 0
4, 37968, Note_on_c, 1, 57, 74
4, 37983, Note_on_c, 1, 57, 0
4, 37984, Note_on_c, 1, 63, 74
4, 37999, Note_on_c, 1, 63, 0
4, 38000, Note_on_c, 1, 67, 74
4, 38015, Note_on_c, 1, 67, 0
4, 38016, Note_on_c, 1, 58, 74
4, 38031, Note_on_c, 1, 58, 0
4, 38032, Note_on_c, 1, 63, 74
4, 38047, Note_on_c, 1, 63, 0
4, 38048, Note_on_c, 1, 67, 74
4, 38063, Note_on_c, 1, 67, 0
4, 38064, Note_on_c, 1, 58, 75
4, 38079, Note_on_c, 1, 58, 0
4, 38080, Note_on_c, 1, 63, 75
4, 38095, Note_on_c, 1, 63, 0
4, 38096, Note_on_c, 1, 67, 76
4, 38111, Note_on_c, 1, 67, 0
4, 38112, Note_on_c, 1, 59, 76
4, 38127, Note_on_c, 1, 59, 0
4, 38128, Note_on_c, 1, 63, 76
4, 38143, Note_on_c, 1, 63, 0
4, 38144, Note_on_c, 1, 67, 77
4, 38159, Note_on_c, 1, 67, 0
4, 38160, Note_on_c, 1, 59, 77
4, 38175, Note_on_c, 1, 59, 0
4, 38176, Note_on_c, 1, 63, 78
4, 38191, Note_on_c, 1, 63, 0
4, 38192, Note_on_c, 1, 67, 78
4, 38207, Note_on_c, 1, 67, 0
4, 38208, Note_on_c, 1, 60, 79
4, 38223, Note_on_c, 1, 60, 0
4, 38224, Note_on_c, 1, 63, 79
4, 38239, Note_on_c, 1, 63, 0
4, 38240, Note_on_c, 1, 67, 79
4, 38255, Note_on_c, 1, 67, 0
4, 38256, Note_on_c, 1, 60, 80
4, 38271, Note_on_c, 1, 60, 0
4, 38272, Note_on_c, 1, 63, 80
4, 38287, Note_on_c, 1, 63, 0
4, 38288, Note_on_c, 1, 67, 81
4, 38303, Note_on_c, 1, 67, 0
4, 38304, Note_on_c, 1, 61, 81
4, 38319, Note_on_c, 1, 61, 0
4, 38320, Note_on_c, 1, 64, 82
4, 38335, Note_on_c, 1, 64, 0
4, 38336, Note_on_c, 1, 67, 82
4, 38351, Note_on_c, 1, 67, 0
4, 38352, Note_on_c, 1, 61, 82
4, 38367, Note_on_c, 1, 61, 0
4, 38368, Note_on_c, 1, 64, 83
4, 38383, Note_on_c, 1, 64, 0
4, 38384, Note_on_c, 1, 67, 83
4, 38399, Note_on_c, 1, 67, 0
4, 38400, Note_on_c, 1, 62, 84
4, 38415, Note_on_c, 1, 62, 0
4, 38416, Note_on_c, 1, 67, 88
4, 38431, Note_on_c, 1, 67, 0
4, 38432, Note_on_c, 1, 70, 88
4, 38447, Note_on_c, 1, 70, 0
4, 38448, Note_on_c, 1, 74, 88
4, 38463, Note_on_c, 1, 74, 0
4, 38464, Note_on_c, 1, 70, 88
4, 38479, Note_on_c, 1, 70, 0
4, 38480, Note_on_c, 1, 67, 88
4, 38495, Note_on_c, 1, 67, 0
4, 38496, Note_on_c, 1, 62, 88
4, 38511, Note_on_c, 1, 62, 0
4, 38512, Note_on_c, 1, 67, 88
4, 38527, Note_on_c, 1, 67, 0
4, 38528, Note_on_c, 1, 70, 88
4, 38543, Note_on_c, 1, 70, 0
4, 38544, Note_on_c, 1, 74, 88
4, 38559, Note_on_c, 1, 74, 0
4, 38560, Note_on_c, 1, 70, 88
4, 38575, Note_on_c, 1, 70, 0
4, 38576, Note_on_c, 1, 67, 88
4, 38591, Note_on_c, 1, 67, 0
4, 38592, Note_on_c, 1, 62, 88
4, 38607, Note_on_c, 1, 62, 0
4, 38608, Note_on_c, 1, 66, 88
4, 38623, Note_on_c, 1, 66, 0
4, 38624, Note_on_c, 1, 69, 88
4, 38639, Note_on_c, 1, 69, 0
4, 38640, Note_on_c, 1, 72, 88
4, 38655, Note_on_c, 1, 72, 0
4, 38656, Note_on_c, 1, 69, 88
4, 38671, Note_on_c, 1, 69, 0
4, 38672, Note_on_c, 1, 66, 88
4, 38687, Note_on_c, 1, 66, 0
4, 38688, Note_on_c, 1, 62, 88
4, 38703, Note_on_c, 1, 62, 0
4, 38704, Note_on_c, 1, 66, 88
4, 38719, Note_on_c, 1, 66, 0
4, 38720, Note_on_c, 1, 69, 88
4, 38735, Note_on_c, 1, 69, 0
4, 38736, Note_on_c, 1, 72, 88
4, 38751, Note_on_c, 1, 72, 0
4, 38752, Note_on_c, 1, 69, 88
4, 38767, Note_on_c, 1, 69, 0
4, 38768, Note_on_c, 1, 66, 88
4, 38783, Note_on_c, 1, 66, 0
4, 38784, Note_on_c, 1, 67, 88
4, 38873, Note_on_c, 1, 67, 0
4, 38976, Note_on_c, 1, 51, 88
4, 38976, Note_on_c, 1, 39, 88
4, 39072, Note_on_c, 1, 51, 0
4, 39072, Note_on_c, 1, 39, 0
4, 39072, Note_on_c, 1, 50, 88
4, 39072, Note_on_c, 1, 38, 88
4, 39161, Note_on_c, 1, 50, 0
4, 39161, Note_on_c, 1, 38, 0
4, 39168, Note_on_c, 1, 49, 88
4, 39168, Note_on_c, 1, 37, 88
4, 39345, Note_on_c, 1, 49, 0
4, 39345, Note_on_c, 1, 37, 0
4, 39360, Note_on_c, 1, 50, 88
4, 39360, Note_on_c, 1, 38, 88
4, 39449, Note_on_c, 1, 50, 0
4, 39449, Note_on_c, 1, 38, 0
4, 39552, Note_on_c, 1, 43, 88
4, 39552, Note_on_c, 1, 31, 88
4, 39641, Note_on_c, 1, 43, 0
4, 39641, Note_on_c, 1, 31, 0
4, 40032, Note_on_c, 1, 67, 79
4, 40032, Note_on_c, 1, 64, 79
4, 40032, Note_on_c, 1, 57, 79
4, 40121, Note_on_c, 1, 67, 0
4, 40121, Note_on_c, 1, 64, 0
4, 40121, Note_on_c, 1, 57, 0
4, 40128, Note_on_c, 1, 65, 79
4, 40128, Note_on_c, 1, 62, 79
4, 40128, Note_on_c, 1, 57, 79
4, 40217, Note_on_c, 1, 65, 0
4, 40217, Note_on_c, 1, 62, 0
4, 40217, Note_on_c, 1, 57, 0
4, 40224, Note_on_c, 1, 67, 79
4, 40224, Note_on_c, 1, 61, 79
4, 40224, Note_on_c, 1, 57, 79
4, 40313, Note_on_c, 1, 67, 0
4, 40313, Note_on_c, 1, 61, 0
4, 40313, Note_on_c, 1, 57, 0
4, 40320, Note_on_c, 1, 65, 79
4, 40320, Note_on_c, 1, 62, 79
4, 40365, Note_on_c, 1, 65, 0
4, 40365, Note_on_c, 1, 62, 0
4, 40800, Note_on_c, 1, 65, 79
4, 40800, Note_on_c, 1, 62, 79
4, 40800, Note_on_c, 1, 55, 79
4, 40889, Note_on_c, 1, 65, 0
4, 40889, Note_on_c, 1, 62, 0
4, 40889, Note_on_c, 1, 55, 0
4, 40896, Note_on_c, 1, 63, 79
4, 40896, Note_on_c, 1, 60, 79
4, 40896, Note_on_c, 1, 55, 79
4, 40985, Note_on_c, 1, 63, 0
4, 40985, Note_on_c, 1, 60, 0
4, 40985, Note_on_c, 1, 55, 0
4, 40992, Note_on_c, 1, 65, 79
4, 40992, Note_on_c, 1, 59, 79
4, 40992, Note_on_c, 1, 55, 79
4, 41081, Note_on_c, 1, 65, 0
4, 41081, Note_on_c, 1, 59, 0
4, 41081, Note_on_c, 1, 55, 0
4, 41136, Note_on_c, 1, 48, 79
4, 41184, Note_on_c, 1, 48, 0
4, 41184, Note_on_c, 1, 60, 79
4, 41204, Note_on_c, 1, 60, 0
4, 41328, Note_on_c, 1, 48, 79
4, 41376, Note_on_c, 1, 48, 0
4, 41376, Note_on_c, 1, 60, 79
4, 41396, Note_on_c, 1, 60, 0
4, 41520, Note_on_c, 1, 48, 79
4, 41565, Note_on_c, 1, 48, 0
4, 41568, Note_on_c, 1, 53, 79
4, 41613, Note_on_c, 1, 53, 0
4, 41616, Note_on_c, 1, 54, 79
4, 41661, Note_on_c, 1, 54, 0
4, 41664, Note_on_c, 1, 55, 79
4, 41753, Note_on_c, 1, 55, 0
4, 41760, Note_on_c, 1, 43, 79
4, 41805, Note_on_c, 1, 43, 0
4, 41808, Note_on_c, 1, 63, 79
4, 41808, Note_on_c, 1, 60, 79
4, 41853, Note_on_c, 1, 63, 0
4, 41853, Note_on_c, 1, 60, 0
4, 41856, Note_on_c, 1, 62, 79
4, 41856, Note_on_c, 1, 59, 79
4, 41989, Note_on_c, 1, 62, 0
4, 41989, Note_on_c, 1, 59, 0
4, 42000, Note_on_c, 1, 67, 79
4, 42000, Note_on_c, 1, 63, 79
4, 42045, Note_on_c, 1, 67, 0
4, 42045, Note_on_c, 1, 63, 0
4, 42048, Note_on_c, 1, 65, 79
4, 42048, Note_on_c, 1, 62, 79
4, 42181, Note_on_c, 1, 65, 0
4, 42181, Note_on_c, 1, 62, 0
4, 42192, Note_on_c, 1, 67, 79
4, 42192, Note_on_c, 1, 59, 79
4, 42240, Note_on_c, 1, 59, 0
4, 42329, Note_on_c, 1, 67, 0
4, 42336, Note_on_c, 1, 65, 79
4, 42381, Note_on_c, 1, 65, 0
4, 42384, Note_on_c, 1, 63, 79
4, 42429, Note_on_c, 1, 63, 0
4, 42432, Note_on_c, 1, 60, 79
4, 42528, Note_on_c, 1, 60, 0
4, 42528, Note_on_c, 1, 59, 79
4, 42573, Note_on_c, 1, 59, 0
4, 42624, Note_on_c, 1, 63, 79
4, 42624, Note_on_c, 1, 60, 79
4, 42768, Note_on_c, 1, 63, 0
4, 42768, Note_on_c, 1, 60, 0
4, 42768, Note_on_c, 1, 62, 79
4, 42768, Note_on_c, 1, 59, 79
4, 42813, Note_on_c, 1, 62, 0
4, 42813, Note_on_c, 1, 59, 0
4, 42816, Note_on_c, 1, 65, 79
4, 42816, Note_on_c, 1, 62, 79
4, 42960, Note_on_c, 1, 65, 0
4, 42960, Note_on_c, 1, 62, 0
4, 42960, Note_on_c, 1, 63, 80
4, 42960, Note_on_c, 1, 60, 80
4, 43005, Note_on_c, 1, 63, 0
4, 43005, Note_on_c, 1, 60, 0
4, 43008, Note_on_c, 1, 67, 80
4, 43008, Note_on_c, 1, 63, 80
4, 43152, Note_on_c, 1, 67, 0
4, 43152, Note_on_c, 1, 63, 0
4, 43152, Note_on_c, 1, 65, 81
4, 43152, Note_on_c, 1, 62, 81
4, 43197, Note_on_c, 1, 65, 0
4, 43197, Note_on_c, 1, 62, 0
4, 43200, Note_on_c, 1, 68, 81
4, 43200, Note_on_c, 1, 65, 81
4, 43344, Note_on_c, 1, 68, 0
4, 43344, Note_on_c, 1, 65, 0
4, 43344, Note_on_c, 1, 67, 82
4, 43344, Note_on_c, 1, 63, 82
4, 43389, Note_on_c, 1, 67, 0
4, 43389, Note_on_c, 1, 63, 0
4, 43392, Note_on_c, 1, 70, 83
4, 43392, Note_on_c, 1, 67, 83
4, 43536, Note_on_c, 1, 70, 0
4, 43536, Note_on_c, 1, 67, 0
4, 43536, Note_on_c, 1, 69, 83
4, 43536, Note_on_c, 1, 66, 83
4, 43581, Note_on_c, 1, 69, 0
4, 43581, Note_on_c, 1, 66, 0
4, 43584, Note_on_c, 1, 68, 88
4, 43584, Note_on_c, 1, 65, 88
4, 43632, Note_on_c, 1, 68, 0
4, 43632, Note_on_c, 1, 65, 0
4, 43632, Note_on_c, 1, 67, 88
4, 43632, Note_on_c, 1, 64, 88
4, 43677, Note_on_c, 1, 67, 0
4, 43677, Note_on_c, 1, 64, 0
4, 43680, Note_on_c, 1, 66, 88
4, 43680, Note_on_c, 1, 63, 88
4, 43728, Note_on_c, 1, 66, 0
4, 43728, Note_on_c, 1, 63, 0
4, 43728, Note_on_c, 1, 65, 88
4, 43728, Note_on_c, 1, 62, 88
4, 43773, Note_on_c, 1, 65, 0
4, 43773, Note_on_c, 1, 62, 0
4, 43968, Note_on_c, 1, 63, 62
4, 43968, Note_on_c, 1, 60, 62
4, 44145, Note_on_c, 1, 63, 0
4, 44145, Note_on_c, 1, 60, 0
4, 44160, Note_on_c, 1, 62, 62
4, 44160, Note_on_c, 1, 59, 62
4, 44397, Note_on_c, 1, 62, 0
4, 44397, Note_on_c, 1, 59, 0
4, 44592, Note_on_c, 1, 43, 79
4, 44637, Note_on_c, 1, 43, 0
4, 44640, Note_on_c, 1, 47, 79
4, 44685, Note_on_c, 1, 47, 0
4, 44688, Note_on_c, 1, 50, 79
4, 44733, Note_on_c, 1, 50, 0
4, 44736, Note_on_c, 1, 55, 79
4, 44775, Note_on_c, 1, 55, 0
4, 44976, Note_on_c, 1, 43, 79
4, 45021, Note_on_c, 1, 43, 0
4, 45024, Note_on_c, 1, 48, 79
4, 45069, Note_on_c, 1, 48, 0
4, 45072, Note_on_c, 1, 51, 79
4, 45117, Note_on_c, 1, 51, 0
4, 45120, Note_on_c, 1, 55, 79
4, 45159, Note_on_c, 1, 55, 0
4, 45360, Note_on_c, 1, 43, 79
4, 45405, Note_on_c, 1, 43, 0
4, 45408, Note_on_c, 1, 47, 79
4, 45431, Note_on_c, 1, 47, 0
4, 45432, Note_on_c, 1, 43, 79
4, 45455, Note_on_c, 1, 43, 0
4, 45456, Note_on_c, 1, 50, 79
4, 45479, Note_on_c, 1, 50, 0
4, 45480, Note_on_c, 1, 47, 79
4, 45503, Note_on_c, 1, 47, 0
4, 45504, Note_on_c, 1, 55, 79
4, 45543, Note_on_c, 1, 55, 0
4, 45744, Control_c, 1, 64, 127
4, 45744, Note_on_c, 1, 60, 70
4, 45767, Note_on_c, 1, 60, 0
4, 45768, Control_c, 1, 64, 0
4, 45768, Note_on_c, 1, 48, 72
4, 45791, Note_on_c, 1, 48, 0
4, 45840, Control_c, 1, 64, 127
4, 45840, Note_on_c, 1, 58, 76
4, 45863, Note_on_c, 1, 58, 0
4, 45864, Control_c, 1, 64, 0
4, 45864, Note_on_c, 1, 46, 78
4, 45887, Note_on_c, 1, 46, 0
4, 45936, Control_c, 1, 64, 127
4, 45936, Note_on_c, 1, 57, 82
4, 45959, Note_on_c, 1, 57, 0
4, 45960, Control_c, 1, 64, 0
4, 45960, Note_on_c, 1, 45, 83
4, 45983, Note_on_c, 1, 45, 0
4, 46032, Control_c, 1, 64, 127
4, 46032, Note_on_c, 1, 56, 88
4, 46055, Note_on_c, 1, 56, 0
4, 46056, Control_c, 1, 64, 0
4, 46056, Note_on_c, 1, 44, 88
4, 46079, Note_on_c, 1, 44, 0
4, 46080, Control_c, 1, 64, 127
4, 46080, Note_on_c, 1, 43, 83
4, 46103, Note_on_c, 1, 43, 0
4, 46104, Note_on_c, 1, 55, 83
4, 46127, Note_on_c, 1, 55, 0
4, 46152, Control_c, 1, 64, 0
4, 46464, Note_on_c, 1, 56, 83
4, 46487, Note_on_c, 1, 56, 0
4, 46488, Note_on_c, 1, 55, 83
4, 46511, Note_on_c, 1, 55, 0
4, 46512, Note_on_c, 1, 53, 83
4, 46535, Note_on_c, 1, 53, 0
4, 47280, Note_on_c, 1, 65, 68
4, 47280, Note_on_c, 1, 62, 68
4, 47280, Note_on_c, 1, 55, 68
4, 47327, Note_on_c, 1, 65, 0
4, 47327, Note_on_c, 1, 62, 0
4, 47327, Note_on_c, 1, 55, 0
4, 47328, Note_on_c, 1, 65, 70
4, 47328, Note_on_c, 1, 62, 70
4, 47328, Note_on_c, 1, 55, 70
4, 47375, Note_on_c, 1, 65, 0
4, 47375, Note_on_c, 1, 62, 0
4, 47375, Note_on_c, 1, 55, 0
4, 47376, Note_on_c, 1, 65, 72
4, 47376, Note_on_c, 1, 62, 72
4, 47376, Note_on_c, 1, 55, 72
4, 47423, Note_on_c, 1, 65, 0
4, 47423, Note_on_c, 1, 62, 0
4, 47423, Note_on_c, 1, 55, 0
4, 47424, Note_on_c, 1, 65, 74
4, 47424, Note_on_c, 1, 62, 74
4, 47424, Note_on_c, 1, 55, 74
4, 47611, Note_on_c, 1, 65, 0
4, 47611, Note_on_c, 1, 62, 0
4, 47611, Note_on_c, 1, 55, 0
4, 47664, Note_on_c, 1, 56, 79
4, 47679, Note_on_c, 1, 56, 0
4, 47680, Note_on_c, 1, 62, 79
4, 47695, Note_on_c, 1, 62, 0
4, 47696, Note_on_c, 1, 65, 79
4, 47711, Note_on_c, 1, 65, 0
4, 47712, Note_on_c, 1, 56, 79
4, 47727, Note_on_c, 1, 56, 0
4, 47728, Note_on_c, 1, 62, 79
4, 47743, Note_on_c, 1, 62, 0
4, 47744, Note_on_c, 1, 65, 79
4, 47759, Note_on_c, 1, 65, 0
4, 47760, Note_on_c, 1, 56, 79
4, 47775, Note_on_c, 1, 56, 0
4, 47776, Note_on_c, 1, 62, 79
4, 47791, Note_on_c, 1, 62, 0
4, 47792, Note_on_c, 1, 65, 79
4, 47807, Note_on_c, 1, 65, 0
4, 47808, Note_on_c, 1, 56, 79
4, 47985, Note_on_c, 1, 56, 0
4, 48048, Note_on_c, 1, 56, 74
4, 48063, Note_on_c, 1, 56, 0
4, 48064, Note_on_c, 1, 62, 74
4, 48079, Note_on_c, 1, 62, 0
4, 48080, Note_on_c, 1, 65, 74
4, 48095, Note_on_c, 1, 65, 0
4, 48096, Note_on_c, 1, 56, 74
4, 48111, Note_on_c, 1, 56, 0
4, 48112, Note_on_c, 1, 62, 74
4, 48127, Note_on_c, 1, 62, 0
4, 48128, Note_on_c, 1, 65, 74
4, 48143, Note_on_c, 1, 65, 0
4, 48144, Control_c, 1, 64, 127
4, 48144, Note_on_c, 1, 56, 74
4, 48159, Note_on_c, 1, 56, 0
4, 48160, Note_on_c, 1, 62, 74
4, 48175, Note_on_c, 1, 62, 0
4, 48176, Note_on_c, 1, 65, 74
4, 48191, Note_on_c, 1, 65, 0
4, 48192, Note_on_c, 1, 56, 83
4, 48862, Note_on_c, 1, 56, 0
4, 48864, Note_on_c, 1, 65, 62
4, 49051, Note_on_c, 1, 65, 0
4, 49056, Note_on_c, 1, 65, 62
4, 49152, Control_c, 1, 64, 0
4, 49339, Note_on_c, 1, 65, 0
4, 49344, Note_on_c, 1, 60, 99
4, 49344, Note_on_c, 1, 55, 99
4, 49344, Note_on_c, 1, 51, 99
4, 49440, Note_on_c, 1, 60, 0
4, 49440, Note_on_c, 1, 55, 0
4, 49440, Note_on_c, 1, 51, 0
4, 49536, Note_on_c, 1, 60, 99
4, 49536, Note_on_c, 1, 56, 99
4, 49536, Note_on_c, 1, 53, 99
4, 49632, Note_on_c, 1, 60, 0
4, 49632, Note_on_c, 1, 56, 0
4, 49632, Note_on_c, 1, 53, 0
4, 49776, Note_on_c, 1, 63, 79
4, 49776, Note_on_c, 1, 55, 79
4, 49823, Note_on_c, 1, 63, 0
4, 49823, Note_on_c, 1, 55, 0
4, 49824, Note_on_c, 1, 63, 79
4, 49824, Note_on_c, 1, 55, 79
4, 49871, Note_on_c, 1, 63, 0
4, 49871, Note_on_c, 1, 55, 0
4, 49872, Note_on_c, 1, 62, 81
4, 49872, Note_on_c, 1, 55, 81
4, 49919, Note_on_c, 1, 62, 0
4, 49919, Note_on_c, 1, 55, 0
4, 49968, Note_on_c, 1, 63, 83
4, 49968, Note_on_c, 1, 55, 83
4, 50015, Note_on_c, 1, 63, 0
4, 50015, Note_on_c, 1, 55, 0
4, 50016, Note_on_c, 1, 63, 83
4, 50016, Note_on_c, 1, 55, 83
4, 50063, Note_on_c, 1, 63, 0
4, 50063, Note_on_c, 1, 55, 0
4, 50064, Note_on_c, 1, 62, 81
4, 50064, Note_on_c, 1, 55, 81
4, 50111, Note_on_c, 1, 62, 0
4, 50111, Note_on_c, 1, 55, 0
4, 50160, Note_on_c, 1, 63, 68
4, 50160, Note_on_c, 1, 55, 68
4, 50207, Note_on_c, 1, 63, 0
4, 50207, Note_on_c, 1, 55, 0
4, 50208, Note_on_c, 1, 63, 68
4, 50208, Note_on_c, 1, 55, 68
4, 50255, Note_on_c, 1, 63, 0
4, 50255, Note_on_c, 1, 55, 0
4, 50256, Note_on_c, 1, 62, 71
4, 50256, Note_on_c, 1, 55, 71
4, 50303, Note_on_c, 1, 62, 0
4, 50303, Note_on_c, 1, 55, 0
4, 50352, Note_on_c, 1, 63, 83
4, 50352, Note_on_c, 1, 55, 83
4, 50399, Note_on_c, 1, 63, 0
4, 50399, Note_on_c, 1, 55, 0
4, 50400, Note_on_c, 1, 63, 83
4, 50400, Note_on_c, 1, 55, 83
4, 50447, Note_on_c, 1, 63, 0
4, 50447, Note_on_c, 1, 55, 0
4, 50448, Note_on_c, 1, 65, 83
4, 50448, Note_on_c, 1, 55, 83
4, 50495, Note_on_c, 1, 65, 0
4, 50495, Note_on_c, 1, 55, 0
4, 50496, Note_on_c, 1, 62, 83
4, 50496, Note_on_c, 1, 55, 83
4, 50543, Note_on_c, 1, 62, 0
4, 50543, Note_on_c, 1, 55, 0
4, 50544, Note_on_c, 1, 63, 83
4, 50544, Note_on_c, 1, 55, 83
4, 50591, Note_on_c, 1, 63, 0
4, 50591, Note_on_c, 1, 55, 0
4, 50592, Note_on_c, 1, 59, 88
4, 50592, Note_on_c, 1, 55, 88
4, 50639, Note_on_c, 1, 59, 0
4, 50639, Note_on_c, 1, 55, 0
4, 50640, Note_on_c, 1, 60, 88
4, 50640, Note_on_c, 1, 55, 88
4, 50687, Note_on_c, 1, 60, 0
4, 50687, Note_on_c, 1, 55, 0
4, 50688, Note_on_c, 1, 62, 88
4, 50688, Note_on_c, 1, 55, 88
4, 50777, Note_on_c, 1, 62, 0
4, 50777, Note_on_c, 1, 55, 0
4, 50880, Note_on_c, 1, 60, 68
4, 50895, Note_on_c, 1, 60, 0
4, 50896, Note_on_c, 1, 63, 68
4, 50911, Note_on_c, 1, 63, 0
4, 50912, Note_on_c, 1, 67, 68
4, 50927, Note_on_c, 1, 67, 0
4, 50928, Note_on_c, 1, 60, 68
4, 50943, Note_on_c, 1, 60, 0
4, 50944, Note_on_c, 1, 63, 68
4, 50959, Note_on_c, 1, 63, 0
4, 50960, Note_on_c, 1, 67, 68
4, 50975, Note_on_c, 1, 67, 0
4, 50976, Note_on_c, 1, 60, 68
4, 50991, Note_on_c, 1, 60, 0
4, 50992, Note_on_c, 1, 63, 68
4, 51007, Note_on_c, 1, 63, 0
4, 51008, Note_on_c, 1, 67, 68
4, 51023, Note_on_c, 1, 67, 0
4, 51024, Note_on_c, 1, 60, 68
4, 51039, Note_on_c, 1, 60, 0
4, 51040, Note_on_c, 1, 63, 68
4, 51055, Note_on_c, 1, 63, 0
4, 51056, Note_on_c, 1, 67, 68
4, 51071, Note_on_c, 1, 67, 0
4, 51072, Note_on_c, 1, 62, 68
4, 51087, Note_on_c, 1, 62, 0
4, 51088, Note_on_c, 1, 65, 69
4, 51103, Note_on_c, 1, 65, 0
4, 51104, Note_on_c, 1, 67, 69
4, 51119, Note_on_c, 1, 67, 0
4, 51120, Note_on_c, 1, 62, 69
4, 51135, Note_on_c, 1, 62, 0
4, 51136, Note_on_c, 1, 65, 69
4, 51151, Note_on_c, 1, 65, 0
4, 51152, Note_on_c, 1, 67, 70
4, 51167, Note_on_c, 1, 67, 0
4, 51168, Note_on_c, 1, 59, 70
4, 51183, Note_on_c, 1, 59, 0
4, 51184, Note_on_c, 1, 62, 70
4, 51199, Note_on_c, 1, 62, 0
4, 51200, Note_on_c, 1, 67, 70
4, 51215, Note_on_c, 1, 67, 0
4, 51216, Note_on_c, 1, 59, 71
4, 51231, Note_on_c, 1, 59, 0
4, 51232, Note_on_c, 1, 62, 71
4, 51247, Note_on_c, 1, 62, 0
4, 51248, Note_on_c, 1, 67, 71
4, 51263, Note_on_c, 1, 67, 0
4, 51264, Note_on_c, 1, 60, 72
4, 51279, Note_on_c, 1, 60, 0
4, 51280, Note_on_c, 1, 63, 72
4, 51295, Note_on_c, 1, 63, 0
4, 51296, Note_on_c, 1, 67, 72
4, 51311, Note_on_c, 1, 67, 0
4, 51312, Note_on_c, 1, 60, 72
4, 51327, Note_on_c, 1, 60, 0
4, 51328, Note_on_c, 1, 63, 73
4, 51343, Note_on_c, 1, 63, 0
4, 51344, Note_on_c, 1, 67, 73
4, 51359, Note_on_c, 1, 67, 0
4, 51360, Note_on_c, 1, 60, 73
4, 51375, Note_on_c, 1, 60, 0
4, 51376, Note_on_c, 1, 63, 73
4, 51391, Note_on_c, 1, 63, 0
4, 51392, Note_on_c, 1, 67, 74
4, 51407, Note_on_c, 1, 67, 0
4, 51408, Note_on_c, 1, 60, 74
4, 51423, Note_on_c, 1, 60, 0
4, 51424, Note_on_c, 1, 63, 74
4, 51439, Note_on_c, 1, 63, 0
4, 51440, Note_on_c, 1, 67, 74
4, 51455, Note_on_c, 1, 67, 0
4, 51456, Note_on_c, 1, 62, 75
4, 51471, Note_on_c, 1, 62, 0
4, 51472, Note_on_c, 1, 65, 75
4, 51487, Note_on_c, 1, 65, 0
4, 51488, Note_on_c, 1, 67, 75
4, 51503, Note_on_c, 1, 67, 0
4, 51504, Note_on_c, 1, 62, 76
4, 51519, Note_on_c, 1, 62, 0
4, 51520, Note_on_c, 1, 65, 76
4, 51535, Note_on_c, 1, 65, 0
4, 51536, Note_on_c, 1, 67, 76
4, 51551, Note_on_c, 1, 67, 0
4, 51552, Note_on_c, 1, 59, 76
4, 51567, Note_on_c, 1, 59, 0
4, 51568, Note_on_c, 1, 62, 77
4, 51583, Note_on_c, 1, 62, 0
4, 51584, Note_on_c, 1, 67, 77
4, 51599, Note_on_c, 1, 67, 0
4, 51600, Note_on_c, 1, 59, 77
4, 51615, Note_on_c, 1, 59, 0
4, 51616, Note_on_c, 1, 62, 77
4, 51631, Note_on_c, 1, 62, 0
4, 51632, Note_on_c, 1, 67, 78
4, 51647, Note_on_c, 1, 67, 0
4, 51648, Note_on_c, 1, 60, 78
4, 51663, Note_on_c, 1, 60, 0
4, 51664, Note_on_c, 1, 63, 78
4, 51679, Note_on_c, 1, 63, 0
4, 51680, Note_on_c, 1, 67, 78
4, 51695, Note_on_c, 1, 67, 0
4, 51696, Note_on_c, 1, 60, 83
4, 51711, Note_on_c, 1, 60, 0
4, 51712, Note_on_c, 1, 63, 83
4, 51727, Note_on_c, 1, 63, 0
4, 51728, Note_on_c, 1, 67, 83
4, 51743, Note_on_c, 1, 67, 0
4, 51744, Note_on_c, 1, 62, 83
4, 51759, Note_on_c, 1, 62, 0
4, 51760, Note_on_c, 1, 65, 83
4, 51775, Note_on_c, 1, 65, 0
4, 51776, Note_on_c, 1, 67, 83
4, 51791, Note_on_c, 1, 67, 0
4, 51792, Note_on_c, 1, 59, 83
4, 51807, Note_on_c, 1, 59, 0
4, 51808, Note_on_c, 1, 62, 83
4, 51823, Note_on_c, 1, 62, 0
4, 51824, Note_on_c, 1, 67, 83
4, 51839, Note_on_c, 1, 67, 0
4, 51840, Note_on_c, 1, 60, 83
4, 51855, Note_on_c, 1, 60, 0
4, 51856, Note_on_c, 1, 63, 83
4, 51871, Note_on_c, 1, 63, 0
4, 51872, Note_on_c, 1, 67, 83
4, 51887, Note_on_c, 1, 67, 0
4, 51888, Note_on_c, 1, 60, 83
4, 51903, Note_on_c, 1, 60, 0
4, 51904, Note_on_c, 1, 63, 83
4, 51919, Note_on_c, 1, 63, 0
4, 51920, Note_on_c, 1, 67, 83
4, 51935, Note_on_c, 1, 67, 0
4, 51936, Note_on_c, 1, 62, 83
4, 51951, Note_on_c, 1, 62, 0
4, 51952, Note_on_c, 1, 65, 83
4, 51967, Note_on_c, 1, 65, 0
4, 51968, Note_on_c, 1, 67, 83
4, 51983, Note_on_c, 1, 67, 0
4, 51984, Note_on_c, 1, 59, 83
4, 51999, Note_on_c, 1, 59, 0
4, 52000, Note_on_c, 1, 62, 83
4, 52015, Note_on_c, 1, 62, 0
4, 52016, Note_on_c, 1, 67, 83
4, 52031, Note_on_c, 1, 67, 0
4, 52032, Note_on_c, 1, 60, 83
4, 52077, Note_on_c, 1, 60, 0
4, 52224, Note_on_c, 1, 56, 83
4, 52224, Note_on_c, 1, 53, 83
4, 52313, Note_on_c, 1, 56, 0
4, 52313, Note_on_c, 1, 53, 0
4, 52656, Note_on_c, 1, 63, 74
4, 52656, Note_on_c, 1, 55, 74
4, 52701, Note_on_c, 1, 63, 0
4, 52701, Note_on_c, 1, 55, 0
4, 52704, Note_on_c, 1, 63, 74
4, 52704, Note_on_c, 1, 55, 74
4, 52749, Note_on_c, 1, 63, 0
4, 52749, Note_on_c, 1, 55, 0
4, 52752, Note_on_c, 1, 62, 74
4, 52752, Note_on_c, 1, 55, 74
4, 52797, Note_on_c, 1, 62, 0
4, 52797, Note_on_c, 1, 55, 0
4, 52800, Note_on_c, 1, 60, 74
4, 52800, Note_on_c, 1, 48, 74
4, 52845, Note_on_c, 1, 60, 0
4, 52845, Note_on_c, 1, 48, 0
4, 52848, Note_on_c, 1, 60, 74
4, 52848, Note_on_c, 1, 48, 74
4, 52893, Note_on_c, 1, 60, 0
4, 52893, Note_on_c, 1, 48, 0
4, 52896, Note_on_c, 1, 60, 74
4, 52896, Note_on_c, 1, 48, 74
4, 52941, Note_on_c, 1, 60, 0
4, 52941, Note_on_c, 1, 48, 0
4, 52944, Note_on_c, 1, 60, 74
4, 52944, Note_on_c, 1, 48, 74
4, 52989, Note_on_c, 1, 60, 0
4, 52989, Note_on_c, 1, 48, 0
4, 52992, Note_on_c, 1, 60, 74
4, 52992, Note_on_c, 1, 48, 74
4, 53037, Note_on_c, 1, 60, 0
4, 53037, Note_on_c, 1, 48, 0
4, 53040, Note_on_c, 1, 60, 74
4, 53040, Note_on_c, 1, 48, 74
4, 53085, Note_on_c, 1, 60, 0
4, 53085, Note_on_c, 1, 48, 0
4, 53088, Note_on_c, 1, 60, 74
4, 53088, Note_on_c, 1, 48, 74
4, 53133, Note_on_c, 1, 60, 0
4, 53133, Note_on_c, 1, 48, 0
4, 53136, Note_on_c, 1, 60, 74
4, 53136, Note_on_c, 1, 48, 74
4, 53181, Note_on_c, 1, 60, 0
4, 53181, Note_on_c, 1, 48, 0
4, 53184, Note_on_c, 1, 48, 83
4, 53184, Note_on_c, 1, 36, 83
4, 53229, Note_on_c, 1, 48, 0
4, 53229, Note_on_c, 1, 36, 0
4, 53232, Note_on_c, 1, 48, 80
4, 53232, Note_on_c, 1, 36, 80
4, 53277, Note_on_c, 1, 48, 0
4, 53277, Note_on_c, 1, 36, 0
4, 53280, Note_on_c, 1, 48, 77
4, 53280, Note_on_c, 1, 36, 77
4, 53325, Note_on_c, 1, 48, 0
4, 53325, Note_on_c, 1, 36, 0
4, 53328, Note_on_c, 1, 48, 74
4, 53328, Note_on_c, 1, 36, 74
4, 53373, Note_on_c, 1, 48, 0
4, 53373, Note_on_c, 1, 36, 0
4, 53376, Note_on_c, 1, 48, 74
4, 53376, Note_on_c, 1, 36, 74
4, 53421, Note_on_c, 1, 48, 0
4, 53421, Note_on_c, 1, 36, 0
4, 53424, Note_on_c, 1, 48, 74
4, 53424, Note_on_c, 1, 36, 74
4, 53469, Note_on_c, 1, 48, 0
4, 53469, Note_on_c, 1, 36, 0
4, 53472, Note_on_c, 1, 48, 74
4, 53472, Note_on_c, 1, 36, 74
4, 53517, Note_on_c, 1, 48, 0
4, 53517, Note_on_c, 1, 36, 0
4, 53520, Note_on_c, 1, 48, 74
4, 53520, Note_on_c, 1, 36, 74
4, 53565, Note_on_c, 1, 48, 0
4, 53565, Note_on_c, 1, 36, 0
4, 53568, Note_on_c, 1, 48, 74
4, 53568, Note_on_c, 1, 36, 74
4, 53657, Note_on_c, 1, 48, 0
4, 53657, Note_on_c, 1, 36, 0
4, 53808, Note_on_c, 1, 51, 79
4, 53856, Note_on_c, 1, 51, 0
4, 53856, Note_on_c, 1, 63, 79
4, 53876, Note_on_c, 1, 63, 0
4, 54000, Note_on_c, 1, 51, 79
4, 54048, Note_on_c, 1, 51, 0
4, 54048, Note_on_c, 1, 63, 79
4, 54068, Note_on_c, 1, 63, 0
4, 54192, Note_on_c, 1, 36, 83
4, 54237, Note_on_c, 1, 36, 0
4, 54240, Note_on_c, 1, 48, 83
4, 54505, Note_on_c, 1, 48, 0
4, 54528, Note_on_c, 1, 68, 74
4, 54528, Note_on_c, 1, 65, 74
4, 54672, Note_on_c, 1, 68, 0
4, 54672, Note_on_c, 1, 65, 0
4, 54672, Note_on_c, 1, 67, 74
4, 54672, Note_on_c, 1, 64, 74
4, 54717, Note_on_c, 1, 67, 0
4, 54717, Note_on_c, 1, 64, 0
4, 54720, Note_on_c, 1, 70, 74
4, 54720, Note_on_c, 1, 67, 74
4, 54864, Note_on_c, 1, 70, 0
4, 54864, Note_on_c, 1, 67, 0
4, 54864, Note_on_c, 1, 68, 74
4, 54864, Note_on_c, 1, 65, 74
4, 54909, Note_on_c, 1, 68, 0
4, 54909, Note_on_c, 1, 65, 0
4, 54912, Note_on_c, 1, 72, 74
4, 54912, Note_on_c, 1, 68, 74
4, 55045, Note_on_c, 1, 72, 0
4, 55045, Note_on_c, 1, 68, 0
4, 55056, Note_on_c, 1, 70, 74
4, 55056, Note_on_c, 1, 67, 74
4, 55101, Note_on_c, 1, 70, 0
4, 55101, Note_on_c, 1, 67, 0
4, 55104, Note_on_c, 1, 68, 74
4, 55104, Note_on_c, 1, 65, 74
4, 55149, Note_on_c, 1, 68, 0
4, 55149, Note_on_c, 1, 65, 0
4, 55152, Note_on_c, 1, 67, 74
4, 55152, Note_on_c, 1, 63, 74
4, 55197, Note_on_c, 1, 67, 0
4, 55197, Note_on_c, 1, 63, 0
4, 55200, Note_on_c, 1, 65, 74
4, 55200, Note_on_c, 1, 61, 74
4, 55245, Note_on_c, 1, 65, 0
4, 55245, Note_on_c, 1, 61, 0
4, 55248, Note_on_c, 1, 63, 74
4, 55248, Note_on_c, 1, 60, 74
4, 55293, Note_on_c, 1, 63, 0
4, 55293, Note_on_c, 1, 60, 0
4, 55296, Note_on_c, 1, 61, 74
4, 55296, Note_on_c, 1, 58, 74
4, 55341, Note_on_c, 1, 61, 0
4, 55341, Note_on_c, 1, 58, 0
4, 55344, Note_on_c, 1, 60, 74
4, 55344, Note_on_c, 1, 56, 74
4, 55389, Note_on_c, 1, 60, 0
4, 55389, Note_on_c, 1, 56, 0
4, 55392, Note_on_c, 1, 58, 74
4, 55392, Note_on_c, 1, 55, 74
4, 55437, Note_on_c, 1, 58, 0
4, 55437, Note_on_c, 1, 55, 0
4, 55440, Note_on_c, 1, 56, 74
4, 55440, Note_on_c, 1, 53, 74
4, 55485, Note_on_c, 1, 56, 0
4, 55485, Note_on_c, 1, 53, 0
4, 55488, Note_on_c, 1, 58, 83
4, 55488, Note_on_c, 1, 55, 83
4, 55665, Note_on_c, 1, 58, 0
4, 55665, Note_on_c, 1, 55, 0
4, 55728, Note_on_c, 1, 44, 79
4, 55776, Note_on_c, 1, 44, 0
4, 55776, Note_on_c, 1, 56, 79
4, 55796, Note_on_c, 1, 56, 0
4, 55920, Note_on_c, 1, 44, 79
4, 55968, Note_on_c, 1, 44, 0
4, 55968, Note_on_c, 1, 56, 79
4, 55988, Note_on_c, 1, 56, 0
4, 56112, Note_on_c, 1, 42, 79
4, 56160, Note_on_c, 1, 42, 0
4, 56160, Note_on_c, 1, 54, 79
4, 56180, Note_on_c, 1, 54, 0
4, 56304, Note_on_c, 1, 42, 81
4, 56352, Note_on_c, 1, 42, 0
4, 56352, Note_on_c, 1, 54, 82
4, 56372, Note_on_c, 1, 54, 0
4, 56496, Note_on_c, 1, 41, 88
4, 56541, Note_on_c, 1, 41, 0
4, 56784, Note_on_c, 1, 61, 79
4, 56829, Note_on_c, 1, 61, 0
4, 56832, Note_on_c, 1, 60, 79
4, 56877, Note_on_c, 1, 60, 0
4, 56880, Note_on_c, 1, 58, 79
4, 56925, Note_on_c, 1, 58, 0
4, 56928, Note_on_c, 1, 57, 79
4, 56973, Note_on_c, 1, 57, 0
4, 56976, Note_on_c, 1, 55, 79
4, 57021, Note_on_c, 1, 55, 0
4, 57024, Note_on_c, 1, 57, 79
4, 57201, Note_on_c, 1, 57, 0
4, 57216, Note_on_c, 1, 58, 68
4, 57231, Note_on_c, 1, 58, 0
4, 57232, Note_on_c, 1, 61, 68
4, 57247, Note_on_c, 1, 61, 0
4, 57248, Note_on_c, 1, 65, 68
4, 57263, Note_on_c, 1, 65, 0
4, 57264, Note_on_c, 1, 58, 68
4, 57279, Note_on_c, 1, 58, 0
4, 57280, Note_on_c, 1, 61, 68
4, 57295, Note_on_c, 1, 61, 0
4, 57296, Note_on_c, 1, 65, 68
4, 57311, Note_on_c, 1, 65, 0
4, 57312, Note_on_c, 1, 58, 68
4, 57327, Note_on_c, 1, 58, 0
4, 57328, Note_on_c, 1, 61, 68
4, 57343, Note_on_c, 1, 61, 0
4, 57344, Note_on_c, 1, 65, 68
4, 57359, Note_on_c, 1, 65, 0
4, 57360, Note_on_c, 1, 58, 68
4, 57375, Note_on_c, 1, 58, 0
4, 57376, Note_on_c, 1, 61, 68
4, 57391, Note_on_c, 1, 61, 0
4, 57392, Note_on_c, 1, 65, 68
4, 57407, Note_on_c, 1, 65, 0
4, 57408, Note_on_c, 1, 60, 68
4, 57423, Note_on_c, 1, 60, 0
4, 57424, Note_on_c, 1, 63, 68
4, 57439, Note_on_c, 1, 63, 0
4, 57440, Note_on_c, 1, 65, 68
4, 57455, Note_on_c, 1, 65, 0
4, 57456, Note_on_c, 1, 60, 68
4, 57471, Note_on_c, 1, 60, 0
4, 57472, Note_on_c, 1, 63, 68
4, 57487, Note_on_c, 1, 63, 0
4, 57488, Note_on_c, 1, 65, 68
4, 57503, Note_on_c, 1, 65, 0
4, 57504, Note_on_c, 1, 57, 68
4, 57519, Note_on_c, 1, 57, 0
4, 57520, Note_on_c, 1, 60, 68
4, 57535, Note_on_c, 1, 60, 0
4, 57536, Note_on_c, 1, 65, 68
4, 57551, Note_on_c, 1, 65, 0
4, 57552, Note_on_c, 1, 57, 68
4, 57567, Note_on_c, 1, 57, 0
4, 57568, Note_on_c, 1, 60, 68
4, 57583, Note_on_c, 1, 60, 0
4, 57584, Note_on_c, 1, 65, 68
4, 57599, Note_on_c, 1, 65, 0
4, 57600, Note_on_c, 1, 58, 68
4, 57615, Note_on_c, 1, 58, 0
4, 57616, Note_on_c, 1, 61, 68
4, 57631, Note_on_c, 1, 61, 0
4, 57632, Note_on_c, 1, 65, 68
4, 57647, Note_on_c, 1, 65, 0
4, 57648, Note_on_c, 1, 58, 68
4, 57663, Note_on_c, 1, 58, 0
4, 57664, Note_on_c, 1, 61, 68
4, 57679, Note_on_c, 1, 61, 0
4, 57680, Note_on_c, 1, 65, 68
4, 57695, Note_on_c, 1, 65, 0
4, 57696, Note_on_c, 1, 58, 68
4, 57711, Note_on_c, 1, 58, 0
4, 57712, Note_on_c, 1, 61, 68
4, 57727, Note_on_c, 1, 61, 0
4, 57728, Note_on_c, 1, 65, 68
4, 57743, Note_on_c, 1, 65, 0
4, 57744, Note_on_c, 1, 58, 68
4, 57759, Note_on_c, 1, 58, 0
4, 57760, Note_on_c, 1, 61, 68
4, 57775, Note_on_c, 1, 61, 0
4, 57776, Note_on_c, 1, 65, 68
4, 57791, Note_on_c, 1, 65, 0
4, 57792, Note_on_c, 1, 60, 68
4, 57807, Note_on_c, 1, 60, 0
4, 57808, Note_on_c, 1, 63, 68
4, 57823, Note_on_c, 1, 63, 0
4, 57824, Note_on_c, 1, 65, 68
4, 57839, Note_on_c, 1, 65, 0
4, 57840, Note_on_c, 1, 60, 68
4, 57855, Note_on_c, 1, 60, 0
4, 57856, Note_on_c, 1, 63, 68
4, 57871, Note_on_c, 1, 63, 0
4, 57872, Note_on_c, 1, 65, 68
4, 57887, Note_on_c, 1, 65, 0
4, 57888, Note_on_c, 1, 57, 68
4, 57903, Note_on_c, 1, 57, 0
4, 57904, Note_on_c, 1, 60, 68
4, 57919, Note_on_c, 1, 60, 0
4, 57920, Note_on_c, 1, 65, 68
4, 57935, Note_on_c, 1, 65, 0
4, 57936, Note_on_c, 1, 57, 68
4, 57951, Note_on_c, 1, 57, 0
4, 57952, Note_on_c, 1, 60, 68
4, 57967, Note_on_c, 1, 60, 0
4, 57968, Note_on_c, 1, 65, 68
4, 57983, Note_on_c, 1, 65, 0
4, 57984, Note_on_c, 1, 58, 68
4, 57999, Note_on_c, 1, 58, 0
4, 58000, Note_on_c, 1, 61, 68
4, 58015, Note_on_c, 1, 61, 0
4, 58016, Note_on_c, 1, 65, 68
4, 58031, Note_on_c, 1, 65, 0
4, 58032, Note_on_c, 1, 58, 68
4, 58047, Note_on_c, 1, 58, 0
4, 58048, Note_on_c, 1, 61, 68
4, 58063, Note_on_c, 1, 61, 0
4, 58064, Note_on_c, 1, 65, 68
4, 58079, Note_on_c, 1, 65, 0
4, 58080, Note_on_c, 1, 58, 68
4, 58095, Note_on_c, 1, 58, 0
4, 58096, Note_on_c, 1, 61, 68
4, 58111, Note_on_c, 1, 61, 0
4, 58112, Note_on_c, 1, 65, 68
4, 58127, Note_on_c, 1, 65, 0
4, 58128, Note_on_c, 1, 58, 68
4, 58143, Note_on_c, 1, 58, 0
4, 58144, Note_on_c, 1, 61, 68
4, 58159, Note_on_c, 1, 61, 0
4, 58160, Note_on_c, 1, 65, 68
4, 58175, Note_on_c, 1, 65, 0
4, 58176, Note_on_c, 1, 56, 68
4, 58191, Note_on_c, 1, 56, 0
4, 58192, Note_on_c, 1, 63, 68
4, 58207, Note_on_c, 1, 63, 0
4, 58208, Note_on_c, 1, 66, 68
4, 58223, Note_on_c, 1, 66, 0
4, 58224, Note_on_c, 1, 56, 68
4, 58239, Note_on_c, 1, 56, 0
4, 58240, Note_on_c, 1, 63, 68
4, 58255, Note_on_c, 1, 63, 0
4, 58256, Note_on_c, 1, 66, 68
4, 58271, Note_on_c, 1, 66, 0
4, 58272, Note_on_c, 1, 56, 68
4, 58287, Note_on_c, 1, 56, 0
4, 58288, Note_on_c, 1, 60, 68
4, 58303, Note_on_c, 1, 60, 0
4, 58304, Note_on_c, 1, 66, 68
4, 58319, Note_on_c, 1, 66, 0
4, 58320, Note_on_c, 1, 56, 68
4, 58335, Note_on_c, 1, 56, 0
4, 58336, Note_on_c, 1, 60, 68
4, 58351, Note_on_c, 1, 60, 0
4, 58352, Note_on_c, 1, 66, 68
4, 58367, Note_on_c, 1, 66, 0
4, 58368, Note_on_c, 1, 61, 68
4, 58383, Note_on_c, 1, 61, 0
4, 58384, Note_on_c, 1, 65, 68
4, 58399, Note_on_c, 1, 65, 0
4, 58400, Note_on_c, 1, 68, 68
4, 58415, Note_on_c, 1, 68, 0
4, 58416, Note_on_c, 1, 61, 68
4, 58431, Note_on_c, 1, 61, 0
4, 58432, Note_on_c, 1, 65, 68
4, 58447, Note_on_c, 1, 65, 0
4, 58448, Note_on_c, 1, 68, 68
4, 58463, Note_on_c, 1, 68, 0
4, 58464, Note_on_c, 1, 61, 68
4, 58479, Note_on_c, 1, 61, 0
4, 58480, Note_on_c, 1, 65, 68
4, 58495, Note_on_c, 1, 65, 0
4, 58496, Note_on_c, 1, 68, 68
4, 58511, Note_on_c, 1, 68, 0
4, 58512, Note_on_c, 1, 61, 68
4, 58527, Note_on_c, 1, 61, 0
4, 58528, Note_on_c, 1, 65, 68
4, 58543, Note_on_c, 1, 65, 0
4, 58544, Note_on_c, 1, 68, 68
4, 58559, Note_on_c, 1, 68, 0
4, 58560, Note_on_c, 1, 63, 68
4, 58575, Note_on_c, 1, 63, 0
4, 58576, Note_on_c, 1, 66, 68
4, 58591, Note_on_c, 1, 66, 0
4, 58592, Note_on_c, 1, 68, 68
4, 58607, Note_on_c, 1, 68, 0
4, 58608, Note_on_c, 1, 63, 68
4, 58623, Note_on_c, 1, 63, 0
4, 58624, Note_on_c, 1, 66, 68
4, 58639, Note_on_c, 1, 66, 0
4, 58640, Note_on_c, 1, 68, 68
4, 58655, Note_on_c, 1, 68, 0
4, 58656, Note_on_c, 1, 60, 68
4, 58671, Note_on_c, 1, 60, 0
4, 58672, Note_on_c, 1, 63, 68
4, 58687, Note_on_c, 1, 63, 0
4, 58688, Note_on_c, 1, 68, 68
4, 58703, Note_on_c, 1, 68, 0
4, 58704, Note_on_c, 1, 60, 68
4, 58719, Note_on_c, 1, 60, 0
4, 58720, Note_on_c, 1, 63, 68
4, 58735, Note_on_c, 1, 63, 0
4, 58736, Note_on_c, 1, 68, 68
4, 58751, Note_on_c, 1, 68, 0
4, 58752, Note_on_c, 1, 61, 68
4, 58841, Note_on_c, 1, 61, 0
4, 58992, Note_on_c, 1, 65, 83
4, 59007, Note_on_c, 1, 65, 0
4, 59008, Note_on_c, 1, 63, 83
4, 59023, Note_on_c, 1, 63, 0
4, 59024, Note_on_c, 1, 61, 83
4, 59039, Note_on_c, 1, 61, 0
4, 59040, Note_on_c, 1, 60, 83
4, 59055, Note_on_c, 1, 60, 0
4, 59056, Note_on_c, 1, 58, 83
4, 59071, Note_on_c, 1, 58, 0
4, 59072, Note_on_c, 1, 56, 83
4, 59087, Note_on_c, 1, 56, 0
4, 59088, Note_on_c, 1, 54, 83
4, 59103, Note_on_c, 1, 54, 0
4, 59104, Note_on_c, 1, 53, 83
4, 59119, Note_on_c, 1, 53, 0
4, 59120, Note_on_c, 1, 51, 83
4, 59135, Note_on_c, 1, 51, 0
4, 59136, Note_on_c, 1, 49, 83
4, 59225, Note_on_c, 1, 49, 0
4, 59232, Note_on_c, 1, 47, 83
4, 59243, Note_on_c, 1, 47, 0
4, 59243, Note_on_c, 1, 49, 83
4, 59254, Note_on_c, 1, 49, 0
4, 59254, Note_on_c, 1, 47, 83
4, 59265, Note_on_c, 1, 47, 0
4, 59265, Note_on_c, 1, 49, 83
4, 59276, Note_on_c, 1, 49, 0
4, 59276, Note_on_c, 1, 47, 83
4, 59287, Note_on_c, 1, 47, 0
4, 59287, Note_on_c, 1, 49, 83
4, 59298, Note_on_c, 1, 49, 0
4, 59298, Note_on_c, 1, 47, 83
4, 59308, Note_on_c, 1, 47, 0
4, 59308, Note_on_c, 1, 46, 83
4, 59318, Note_on_c, 1, 46, 0
4, 59318, Note_on_c, 1, 47, 83
4, 59328, Note_on_c, 1, 47, 0
4, 59328, Note_on_c, 1, 46, 83
4, 59328, Note_on_c, 1, 34, 83
4, 59505, Note_on_c, 1, 46, 0
4, 59505, Note_on_c, 1, 34, 0
4, 59712, Note_on_c, 1, 63, 62
4, 59727, Note_on_c, 1, 63, 0
4, 59728, Note_on_c, 1, 66, 62
4, 59743, Note_on_c, 1, 66, 0
4, 59744, Note_on_c, 1, 70, 62
4, 59759, Note_on_c, 1, 70, 0
4, 59760, Note_on_c, 1, 63, 62
4, 59775, Note_on_c, 1, 63, 0
4, 59776, Note_on_c, 1, 66, 62
4, 59791, Note_on_c, 1, 66, 0
4, 59792, Note_on_c, 1, 70, 62
4, 59807, Note_on_c, 1, 70, 0
4, 59808, Note_on_c, 1, 63, 62
4, 59823, Note_on_c, 1, 63, 0
4, 59824, Note_on_c, 1, 66, 62
4, 59839, Note_on_c, 1, 66, 0
4, 59840, Note_on_c, 1, 70, 62
4, 59855, Note_on_c, 1, 70, 0
4, 59856, Note_on_c, 1, 63, 62
4, 59871, Note_on_c, 1, 63, 0
4, 59872, Note_on_c, 1, 66, 62
4, 59887, Note_on_c, 1, 66, 0
4, 59888, Note_on_c, 1, 70, 62
4, 59903, Note_on_c, 1, 70, 0
4, 59904, Note_on_c, 1, 65, 62
4, 59919, Note_on_c, 1, 65, 0
4, 59920, Note_on_c, 1, 68, 62
4, 59935, Note_on_c, 1, 68, 0
4, 59936, Note_on_c, 1, 70, 62
4, 59951, Note_on_c, 1, 70, 0
4, 59952, Note_on_c, 1, 65, 62
4, 59967, Note_on_c, 1, 65, 0
4, 59968, Note_on_c, 1, 68, 62
4, 59983, Note_on_c, 1, 68, 0
4, 59984, Note_on_c, 1, 70, 62
4, 59999, Note_on_c, 1, 70, 0
4, 60000, Note_on_c, 1, 62, 62
4, 60015, Note_on_c, 1, 62, 0
4, 60016, Note_on_c, 1, 65, 62
4, 60031, Note_on_c, 1, 65, 0
4, 60032, Note_on_c, 1, 70, 62
4, 60047, Note_on_c, 1, 70, 0
4, 60048, Note_on_c, 1, 62, 62
4, 60063, Note_on_c, 1, 62, 0
4, 60064, Note_on_c, 1, 65, 62
4, 60079, Note_on_c, 1, 65, 0
4, 60080, Note_on_c, 1, 70, 62
4, 60095, Note_on_c, 1, 70, 0
4, 60096, Note_on_c, 1, 63, 62
4, 60111, Note_on_c, 1, 63, 0
4, 60112, Note_on_c, 1, 66, 62
4, 60127, Note_on_c, 1, 66, 0
4, 60128, Note_on_c, 1, 70, 62
4, 60143, Note_on_c, 1, 70, 0
4, 60144, Note_on_c, 1, 63, 62
4, 60159, Note_on_c, 1, 63, 0
4, 60160, Note_on_c, 1, 66, 62
4, 60175, Note_on_c, 1, 66, 0
4, 60176, Note_on_c, 1, 70, 62
4, 60191, Note_on_c, 1, 70, 0
4, 60192, Note_on_c, 1, 63, 62
4, 60207, Note_on_c, 1, 63, 0
4, 60208, Note_on_c, 1, 66, 62
4, 60223, Note_on_c, 1, 66, 0
4, 60224, Note_on_c, 1, 70, 62
4, 60239, Note_on_c, 1, 70, 0
4, 60240, Note_on_c, 1, 63, 62
4, 60255, Note_on_c, 1, 63, 0
4, 60256, Note_on_c, 1, 66, 62
4, 60271, Note_on_c, 1, 66, 0
4, 60272, Note_on_c, 1, 70, 62
4, 60287, Note_on_c, 1, 70, 0
4, 60288, Note_on_c, 1, 65, 62
4, 60303, Note_on_c, 1, 65, 0
4, 60304, Note_on_c, 1, 68, 62
4, 60319, Note_on_c, 1, 68, 0
4, 60320, Note_on_c, 1, 70, 62
4, 60335, Note_on_c, 1, 70, 0
4, 60336, Note_on_c, 1, 65, 62
4, 60351, Note_on_c, 1, 65, 0
4, 60352, Note_on_c, 1, 68, 62
4, 60367, Note_on_c, 1, 68, 0
4, 60368, Note_on_c, 1, 70, 62
4, 60383, Note_on_c, 1, 70, 0
4, 60384, Note_on_c, 1, 62, 62
4, 60399, Note_on_c, 1, 62, 0
4, 60400, Note_on_c, 1, 65, 62
4, 60415, Note_on_c, 1, 65, 0
4, 60416, Note_on_c, 1, 70, 62
4, 60431, Note_on_c, 1, 70, 0
4, 60432, Note_on_c, 1, 62, 62
4, 60447, Note_on_c, 1, 62, 0
4, 60448, Note_on_c, 1, 65, 62
4, 60463, Note_on_c, 1, 65, 0
4, 60464, Note_on_c, 1, 70, 62
4, 60479, Note_on_c, 1, 70, 0
4, 60480, Note_on_c, 1, 63, 68
4, 60495, Note_on_c, 1, 63, 0
4, 60496, Note_on_c, 1, 66, 68
4, 60511, Note_on_c, 1, 66, 0
4, 60512, Note_on_c, 1, 70, 69
4, 60527, Note_on_c, 1, 70, 0
4, 60528, Note_on_c, 1, 63, 70
4, 60543, Note_on_c, 1, 63, 0
4, 60544, Note_on_c, 1, 66, 71
4, 60559, Note_on_c, 1, 66, 0
4, 60560, Note_on_c, 1, 70, 71
4, 60575, Note_on_c, 1, 70, 0
4, 60576, Note_on_c, 1, 63, 74
4, 60591, Note_on_c, 1, 63, 0
4, 60592, Note_on_c, 1, 70, 74
4, 60607, Note_on_c, 1, 70, 0
4, 60608, Note_on_c, 1, 73, 74
4, 60623, Note_on_c, 1, 73, 0
4, 60624, Note_on_c, 1, 63, 74
4, 60639, Note_on_c, 1, 63, 0
4, 60640, Note_on_c, 1, 70, 74
4, 60655, Note_on_c, 1, 70, 0
4, 60656, Note_on_c, 1, 73, 74
4, 60671, Note_on_c, 1, 73, 0
4, 60672, Note_on_c, 1, 63, 74
4, 60687, Note_on_c, 1, 63, 0
4, 60688, Note_on_c, 1, 68, 74
4, 60703, Note_on_c, 1, 68, 0
4, 60704, Note_on_c, 1, 71, 74
4, 60719, Note_on_c, 1, 71, 0
4, 60720, Note_on_c, 1, 63, 74
4, 60735, Note_on_c, 1, 63, 0
4, 60736, Note_on_c, 1, 68, 74
4, 60751, Note_on_c, 1, 68, 0
4, 60752, Note_on_c, 1, 71, 74
4, 60767, Note_on_c, 1, 71, 0
4, 60768, Note_on_c, 1, 63, 74
4, 60783, Note_on_c, 1, 63, 0
4, 60784, Note_on_c, 1, 68, 74
4, 60799, Note_on_c, 1, 68, 0
4, 60800, Note_on_c, 1, 71, 74
4, 60815, Note_on_c, 1, 71, 0
4, 60816, Note_on_c, 1, 63, 74
4, 60831, Note_on_c, 1, 63, 0
4, 60832, Note_on_c, 1, 68, 74
4, 60847, Note_on_c, 1, 68, 0
4, 60848, Note_on_c, 1, 71, 74
4, 60863, Note_on_c, 1, 71, 0
4, 60864, Note_on_c, 1, 61, 74
4, 60879, Note_on_c, 1, 61, 0
4, 60880, Note_on_c, 1, 68, 74
4, 60895, Note_on_c, 1, 68, 0
4, 60896, Note_on_c, 1, 71, 74
4, 60911, Note_on_c, 1, 71, 0
4, 60912, Note_on_c, 1, 61, 74
4, 60927, Note_on_c, 1, 61, 0
4, 60928, Note_on_c, 1, 68, 74
4, 60943, Note_on_c, 1, 68, 0
4, 60944, Note_on_c, 1, 71, 74
4, 60959, Note_on_c, 1, 71, 0
4, 60960, Note_on_c, 1, 61, 74
4, 60975, Note_on_c, 1, 61, 0
4, 60976, Note_on_c, 1, 68, 74
4, 60991, Note_on_c, 1, 68, 0
4, 60992, Note_on_c, 1, 71, 74
4, 61007, Note_on_c, 1, 71, 0
4, 61008, Note_on_c, 1, 61, 74
4, 61023, Note_on_c, 1, 61, 0
4, 61024, Note_on_c, 1, 68, 74
4, 61039, Note_on_c, 1, 68, 0
4, 61040, Note_on_c, 1, 71, 74
4, 61055, Note_on_c, 1, 71, 0
4, 61056, Note_on_c, 1, 61, 74
4, 61071, Note_on_c, 1, 61, 0
4, 61072, Note_on_c, 1, 66, 74
4, 61087, Note_on_c, 1, 66, 0
4, 61088, Note_on_c, 1, 70, 74
4, 61103, Note_on_c, 1, 70, 0
4, 61104, Note_on_c, 1, 61, 74
4, 61119, Note_on_c, 1, 61, 0
4, 61120, Note_on_c, 1, 66, 74
4, 61135, Note_on_c, 1, 66, 0
4, 61136, Note_on_c, 1, 70, 74
4, 61151, Note_on_c, 1, 70, 0
4, 61152, Note_on_c, 1, 61, 74
4, 61167, Note_on_c, 1, 61, 0
4, 61168, Note_on_c, 1, 66, 74
4, 61183, Note_on_c, 1, 66, 0
4, 61184, Note_on_c, 1, 70, 74
4, 61199, Note_on_c, 1, 70, 0
4, 61200, Note_on_c, 1, 61, 74
4, 61215, Note_on_c, 1, 61, 0
4, 61216, Note_on_c, 1, 66, 74
4, 61231, Note_on_c, 1, 66, 0
4, 61232, Note_on_c, 1, 70, 74
4, 61247, Note_on_c, 1, 70, 0
4, 61248, Note_on_c, 1, 59, 74
4, 61263, Note_on_c, 1, 59, 0
4, 61264, Note_on_c, 1, 66, 74
4, 61279, Note_on_c, 1, 66, 0
4, 61280, Note_on_c, 1, 70, 74
4, 61295, Note_on_c, 1, 70, 0
4, 61296, Note_on_c, 1, 59, 74
4, 61311, Note_on_c, 1, 59, 0
4, 61312, Note_on_c, 1, 66, 74
4, 61327, Note_on_c, 1, 66, 0
4, 61328, Note_on_c, 1, 70, 74
4, 61343, Note_on_c, 1, 70, 0
4, 61344, Note_on_c, 1, 59, 74
4, 61359, Note_on_c, 1, 59, 0
4, 61360, Note_on_c, 1, 66, 74
4, 61375, Note_on_c, 1, 66, 0
4, 61376, Note_on_c, 1, 70, 74
4, 61391, Note_on_c, 1, 70, 0
4, 61392, Note_on_c, 1, 59, 74
4, 61407, Note_on_c, 1, 59, 0
4, 61408, Note_on_c, 1, 66, 74
4, 61423, Note_on_c, 1, 66, 0
4, 61424, Note_on_c, 1, 70, 74
4, 61439, Note_on_c, 1, 70, 0
4, 61440, Note_on_c, 1, 59, 74
4, 61455, Note_on_c, 1, 59, 0
4, 61456, Note_on_c, 1, 65, 74
4, 61471, Note_on_c, 1, 65, 0
4, 61472, Note_on_c, 1, 68, 74
4, 61487, Note_on_c, 1, 68, 0
4, 61488, Note_on_c, 1, 59, 74
4, 61503, Note_on_c, 1, 59, 0
4, 61504, Note_on_c, 1, 65, 74
4, 61519, Note_on_c, 1, 65, 0
4, 61520, Note_on_c, 1, 68, 74
4, 61535, Note_on_c, 1, 68, 0
4, 61536, Note_on_c, 1, 59, 74
4, 61551, Note_on_c, 1, 59, 0
4, 61552, Note_on_c, 1, 65, 74
4, 61567, Note_on_c, 1, 65, 0
4, 61568, Note_on_c, 1, 68, 74
4, 61583, Note_on_c, 1, 68, 0
4, 61584, Note_on_c, 1, 59, 74
4, 61599, Note_on_c, 1, 59, 0
4, 61600, Note_on_c, 1, 65, 74
4, 61615, Note_on_c, 1, 65, 0
4, 61616, Note_on_c, 1, 68, 74
4, 61631, Note_on_c, 1, 68, 0
4, 61632, Note_on_c, 1, 58, 74
4, 61647, Note_on_c, 1, 58, 0
4, 61648, Note_on_c, 1, 65, 74
4, 61663, Note_on_c, 1, 65, 0
4, 61664, Note_on_c, 1, 68, 74
4, 61679, Note_on_c, 1, 68, 0
4, 61680, Note_on_c, 1, 58, 74
4, 61695, Note_on_c, 1, 58, 0
4, 61696, Note_on_c, 1, 65, 74
4, 61711, Note_on_c, 1, 65, 0
4, 61712, Note_on_c, 1, 68, 74
4, 61727, Note_on_c, 1, 68, 0
4, 61728, Note_on_c, 1, 58, 74
4, 61743, Note_on_c, 1, 58, 0
4, 61744, Note_on_c, 1, 65, 74
4, 61759, Note_on_c, 1, 65, 0
4, 61760, Note_on_c, 1, 68, 74
4, 61775, Note_on_c, 1, 68, 0
4, 61776, Note_on_c, 1, 58, 74
4, 61791, Note_on_c, 1, 58, 0
4, 61792, Note_on_c, 1, 65, 74
4, 61807, Note_on_c, 1, 65, 0
4, 61808, Note_on_c, 1, 68, 74
4, 61823, Note_on_c, 1, 68, 0
4, 61824, Note_on_c, 1, 58, 74
4, 61839, Note_on_c, 1, 58, 0
4, 61840, Note_on_c, 1, 63, 74
4, 61855, Note_on_c, 1, 63, 0
4, 61856, Note_on_c, 1, 67, 74
4, 61871, Note_on_c, 1, 67, 0
4, 61872, Note_on_c, 1, 58, 74
4, 61887, Note_on_c, 1, 58, 0
4, 61888, Note_on_c, 1, 63, 74
4, 61903, Note_on_c, 1, 63, 0
4, 61904, Note_on_c, 1, 67, 74
4, 61919, Note_on_c, 1, 67, 0
4, 61920, Note_on_c, 1, 58, 74
4, 61935, Note_on_c, 1, 58, 0
4, 61936, Note_on_c, 1, 63, 74
4, 61951, Note_on_c, 1, 63, 0
4, 61952, Note_on_c, 1, 67, 74
4, 61967, Note_on_c, 1, 67, 0
4, 61968, Note_on_c, 1, 58, 74
4, 61983, Note_on_c, 1, 58, 0
4, 61984, Note_on_c, 1, 63, 74
4, 61999, Note_on_c, 1, 63, 0
4, 62000, Note_on_c, 1, 67, 74
4, 62015, Note_on_c, 1, 67, 0
4, 62016, Note_on_c, 1, 60, 74
4, 62031, Note_on_c, 1, 60, 0
4, 62032, Note_on_c, 1, 63, 74
4, 62047, Note_on_c, 1, 63, 0
4, 62048, Note_on_c, 1, 67, 74
4, 62063, Note_on_c, 1, 67, 0
4, 62064, Note_on_c, 1, 60, 74
4, 62079, Note_on_c, 1, 60, 0
4, 62080, Note_on_c, 1, 63, 74
4, 62095, Note_on_c, 1, 63, 0
4, 62096, Note_on_c, 1, 67, 74
4, 62111, Note_on_c, 1, 67, 0
4, 62112, Note_on_c, 1, 60, 74
4, 62127, Note_on_c, 1, 60, 0
4, 62128, Note_on_c, 1, 63, 74
4, 62143, Note_on_c, 1, 63, 0
4, 62144, Note_on_c, 1, 67, 74
4, 62159, Note_on_c, 1, 67, 0
4, 62160, Note_on_c, 1, 60, 74
4, 62175, Note_on_c, 1, 60, 0
4, 62176, Note_on_c, 1, 63, 74
4, 62191, Note_on_c, 1, 63, 0
4, 62192, Note_on_c, 1, 67, 74
4, 62207, Note_on_c, 1, 67, 0
4, 62208, Note_on_c, 1, 58, 74
4, 62223, Note_on_c, 1, 58, 0
4, 62224, Note_on_c, 1, 63, 74
4, 62239, Note_on_c, 1, 63, 0
4, 62240, Note_on_c, 1, 67, 74
4, 62255, Note_on_c, 1, 67, 0
4, 62256, Note_on_c, 1, 58, 74
4, 62271, Note_on_c, 1, 58, 0
4, 62272, Note_on_c, 1, 63, 74
4, 62287, Note_on_c, 1, 63, 0
4, 62288, Note_on_c, 1, 67, 74
4, 62303, Note_on_c, 1, 67, 0
4, 62304, Note_on_c, 1, 58, 74
4, 62319, Note_on_c, 1, 58, 0
4, 62320, Note_on_c, 1, 63, 74
4, 62335, Note_on_c, 1, 63, 0
4, 62336, Note_on_c, 1, 67, 74
4, 62351, Note_on_c, 1, 67, 0
4, 62352, Note_on_c, 1, 58, 74
4, 62367, Note_on_c, 1, 58, 0
4, 62368, Note_on_c, 1, 63, 74
4, 62383, Note_on_c, 1, 63, 0
4, 62384, Note_on_c, 1, 67, 74
4, 62399, Note_on_c, 1, 67, 0
4, 62400, Note_on_c, 1, 57, 74
4, 62415, Note_on_c, 1, 57, 0
4, 62416, Note_on_c, 1, 63, 74
4, 62431, Note_on_c, 1, 63, 0
4, 62432, Note_on_c, 1, 67, 74
4, 62447, Note_on_c, 1, 67, 0
4, 62448, Note_on_c, 1, 57, 74
4, 62463, Note_on_c, 1, 57, 0
4, 62464, Note_on_c, 1, 63, 74
4, 62479, Note_on_c, 1, 63, 0
4, 62480, Note_on_c, 1, 67, 74
4, 62495, Note_on_c, 1, 67, 0
4, 62496, Note_on_c, 1, 57, 74
4, 62511, Note_on_c, 1, 57, 0
4, 62512, Note_on_c, 1, 63, 74
4, 62527, Note_on_c, 1, 63, 0
4, 62528, Note_on_c, 1, 67, 74
4, 62543, Note_on_c, 1, 67, 0
4, 62544, Note_on_c, 1, 57, 74
4, 62559, Note_on_c, 1, 57, 0
4, 62560, Note_on_c, 1, 63, 74
4, 62575, Note_on_c, 1, 63, 0
4, 62576, Note_on_c, 1, 67, 74
4, 62591, Note_on_c, 1, 67, 0
4, 62592, Note_on_c, 1, 58, 74
4, 62607, Note_on_c, 1, 58, 0
4, 62608, Note_on_c, 1, 63, 74
4, 62623, Note_on_c, 1, 63, 0
4, 62624, Note_on_c, 1, 67, 74
4, 62639, Note_on_c, 1, 67, 0
4, 62640, Note_on_c, 1, 58, 75
4, 62655, Note_on_c, 1, 58, 0
4, 62656, Note_on_c, 1, 63, 75
4, 62671, Note_on_c, 1, 63, 0
4, 62672, Note_on_c, 1, 67, 76
4, 62687, Note_on_c, 1, 67, 0
4, 62688, Note_on_c, 1, 59, 76
4, 62703, Note_on_c, 1, 59, 0
4, 62704, Note_on_c, 1, 63, 76
4, 62719, Note_on_c, 1, 63, 0
4, 62720, Note_on_c, 1, 67, 77
4, 62735, Note_on_c, 1, 67, 0
4, 62736, Note_on_c, 1, 59, 77
4, 62751, Note_on_c, 1, 59, 0
4, 62752, Note_on_c, 1, 63, 78
4, 62767, Note_on_c, 1, 63, 0
4, 62768, Note_on_c, 1, 67, 78
4, 62783, Note_on_c, 1, 67, 0
4, 62784, Note_on_c, 1, 60, 79
4, 62799, Note_on_c, 1, 60, 0
4, 62800, Note_on_c, 1, 63, 79
4, 62815, Note_on_c, 1, 63, 0
4, 62816, Note_on_c, 1, 67, 79
4, 62831, Note_on_c, 1, 67, 0
4, 62832, Note_on_c, 1, 60, 80
4, 62847, Note_on_c, 1, 60, 0
4, 62848, Note_on_c, 1, 63, 80
4, 62863, Note_on_c, 1, 63, 0
4, 62864, Note_on_c, 1, 67, 81
4, 62879, Note_on_c, 1, 67, 0
4, 62880, Note_on_c, 1, 61, 81
4, 62895, Note_on_c, 1, 61, 0
4, 62896, Note_on_c, 1, 64, 82
4, 62911, Note_on_c, 1, 64, 0
4, 62912, Note_on_c, 1, 67, 82
4, 62927, Note_on_c, 1, 67, 0
4, 62928, Note_on_c, 1, 61, 82
4, 62943, Note_on_c, 1, 61, 0
4, 62944, Note_on_c, 1, 64, 83
4, 62959, Note_on_c, 1, 64, 0
4, 62960, Note_on_c, 1, 67, 83
4, 62975, Note_on_c, 1, 67, 0
4, 62976, Note_on_c, 1, 62, 84
4, 62991, Note_on_c, 1, 62, 0
4, 62992, Note_on_c, 1, 67, 88
4, 63007, Note_on_c, 1, 67, 0
4, 63008, Note_on_c, 1, 70, 88
4, 63023, Note_on_c, 1, 70, 0
4, 63024, Note_on_c, 1, 74, 88
4, 63039, Note_on_c, 1, 74, 0
4, 63040, Note_on_c, 1, 70, 88
4, 63055, Note_on_c, 1, 70, 0
4, 63056, Note_on_c, 1, 67, 88
4, 63071, Note_on_c, 1, 67, 0
4, 63072, Note_on_c, 1, 62, 88
4, 63087, Note_on_c, 1, 62, 0
4, 63088, Note_on_c, 1, 67, 88
4, 63103, Note_on_c, 1, 67, 0
4, 63104, Note_on_c, 1, 70, 88
4, 63119, Note_on_c, 1, 70, 0
4, 63120, Note_on_c, 1, 74, 88
4, 63135, Note_on_c, 1, 74, 0
4, 63136, Note_on_c, 1, 70, 88
4, 63151, Note_on_c, 1, 70, 0
4, 63152, Note_on_c, 1, 67, 88
4, 63167, Note_on_c, 1, 67, 0
4, 63168, Note_on_c, 1, 62, 88
4, 63183, Note_on_c, 1, 62, 0
4, 63184, Note_on_c, 1, 66, 88
4, 63199, Note_on_c, 1, 66, 0
4, 63200, Note_on_c, 1, 69, 88
4, 63215, Note_on_c, 1, 69, 0
4, 63216, Note_on_c, 1, 72, 88
4, 63231, Note_on_c, 1, 72, 0
4, 63232, Note_on_c, 1, 69, 88
4, 63247, Note_on_c, 1, 69, 0
4, 63248, Note_on_c, 1, 66, 88
4, 63263, Note_on_c, 1, 66, 0
4, 63264, Note_on_c, 1, 62, 88
4, 63279, Note_on_c, 1, 62, 0
4, 63280, Note_on_c, 1, 66, 88
4, 63295, Note_on_c, 1, 66, 0
4, 63296, Note_on_c, 1, 69, 88
4, 63311, Note_on_c, 1, 69, 0
4, 63312, Note_on_c, 1, 72, 88
4, 63327, Note_on_c, 1, 72, 0
4, 63328, Note_on_c, 1, 69, 88
4, 63343, Note_on_c, 1, 69, 0
4, 63344, Note_on_c, 1, 66, 88
4, 63359, Note_on_c, 1, 66, 0
4, 63360, Note_on_c, 1, 67, 88
4, 63449, Note_on_c, 1, 67, 0
4, 63552, Note_on_c, 1, 51, 88
4, 63552, Note_on_c, 1, 39, 88
4, 63648, Note_on_c, 1, 51, 0
4, 63648, Note_on_c, 1, 39, 0
4, 63648, Note_on_c, 1, 50, 88
4, 63648, Note_on_c, 1, 38, 88
4, 63737, Note_on_c, 1, 50, 0
4, 63737, Note_on_c, 1, 38, 0
4, 63744, Note_on_c, 1, 49, 88
4, 63744, Note_on_c, 1, 37, 88
4, 63921, Note_on_c, 1, 49, 0
4, 63921, Note_on_c, 1, 37, 0
4, 63936, Note_on_c, 1, 50, 88
4, 63936, Note_on_c, 1, 38, 88
4, 64025, Note_on_c, 1, 50, 0
4, 64025, Note_on_c, 1, 38, 0
4, 64128, Note_on_c, 1, 43, 88
4, 64128, Note_on_c, 1, 31, 88
4, 64217, Note_on_c, 1, 43, 0
4, 64217, Note_on_c, 1, 31, 0
4, 64608, Note_on_c, 1, 67, 79
4, 64608, Note_on_c, 1, 64, 79
4, 64608, Note_on_c, 1, 57, 79
4, 64697, Note_on_c, 1, 67, 0
4, 64697, Note_on_c, 1, 64, 0
4, 64697, Note_on_c, 1, 57, 0
4, 64704, Note_on_c, 1, 65, 79
4, 64704, Note_on_c, 1, 62, 79
4, 64704, Note_on_c, 1, 57, 79
4, 64793, Note_on_c, 1, 65, 0
4, 64793, Note_on_c, 1, 62, 0
4, 64793, Note_on_c, 1, 57, 0
4, 64800, Note_on_c, 1, 67, 79
4, 64800, Note_on_c, 1, 61, 79
4, 64800, Note_on_c, 1, 57, 79
4, 64889, Note_on_c, 1, 67, 0
4, 64889, Note_on_c, 1, 61, 0
4, 64889, Note_on_c, 1, 57, 0
4, 64896, Note_on_c, 1, 65, 79
4, 64896, Note_on_c, 1, 62, 79
4, 64941, Note_on_c, 1, 65, 0
4, 64941, Note_on_c, 1, 62, 0
4, 65376, Note_on_c, 1, 65, 79
4, 65376, Note_on_c, 1, 62, 79
4, 65376, Note_on_c, 1, 55, 79
4, 65465, Note_on_c, 1, 65, 0
4, 65465, Note_on_c, 1, 62, 0
4, 65465, Note_on_c, 1, 55, 0
4, 65472, Note_on_c, 1, 63, 79
4, 65472, Note_on_c, 1, 60, 79
4, 65472, Note_on_c, 1, 55, 79
4, 65561, Note_on_c, 1, 63, 0
4, 65561, Note_on_c, 1, 60, 0
4, 65561, Note_on_c, 1, 55, 0
4, 65568, Note_on_c, 1, 65, 79
4, 65568, Note_on_c, 1, 59, 79
4, 65568, Note_on_c, 1, 55, 79
4, 65657, Note_on_c, 1, 65, 0
4, 65657, Note_on_c, 1, 59, 0
4, 65657, Note_on_c, 1, 55, 0
4, 65712, Note_on_c, 1, 48, 79
4, 65760, Note_on_c, 1, 48, 0
4, 65760, Note_on_c, 1, 60, 79
4, 65780, Note_on_c, 1, 60, 0
4, 65904, Note_on_c, 1, 48, 79
4, 65952, Note_on_c, 1, 48, 0
4, 65952, Note_on_c, 1, 60, 79
4, 65972, Note_on_c, 1, 60, 0
4, 66096, Note_on_c, 1, 48, 79
4, 66141, Note_on_c, 1, 48, 0
4, 66144, Note_on_c, 1, 53, 79
4, 66189, Note_on_c, 1, 53, 0
4, 66192, Note_on_c, 1, 54, 79
4, 66237, Note_on_c, 1, 54, 0
4, 66240, Note_on_c, 1, 55, 79
4, 66329, Note_on_c, 1, 55, 0
4, 66336, Note_on_c, 1, 43, 79
4, 66381, Note_on_c, 1, 43, 0
4, 66384, Note_on_c, 1, 63, 79
4, 66384, Note_on_c, 1, 60, 79
4, 66429, Note_on_c, 1, 63, 0
4, 66429, Note_on_c, 1, 60, 0
4, 66432, Note_on_c, 1, 62, 79
4, 66432, Note_on_c, 1, 59, 79
4, 66565, Note_on_c, 1, 62, 0
4, 66565, Note_on_c, 1, 59, 0
4, 66576, Note_on_c, 1, 67, 79
4, 66576, Note_on_c, 1, 63, 79
4, 66621, Note_on_c, 1, 67, 0
4, 66621, Note_on_c, 1, 63, 0
4, 66624, Note_on_c, 1, 65, 79
4, 66624, Note_on_c, 1, 62, 79
4, 66757, Note_on_c, 1, 65, 0
4, 66757, Note_on_c, 1, 62, 0
4, 66768, Note_on_c, 1, 67, 79
4, 66768, Note_on_c, 1, 59, 79
4, 66816, Note_on_c, 1, 59, 0
4, 66905, Note_on_c, 1, 67, 0
4, 66912, Note_on_c, 1, 65, 79
4, 66957, Note_on_c, 1, 65, 0
4, 66960, Note_on_c, 1, 63, 79
4, 67005, Note_on_c, 1, 63, 0
4, 67008, Note_on_c, 1, 60, 79
4, 67104, Note_on_c, 1, 60, 0
4, 67104, Note_on_c, 1, 59, 79
4, 67149, Note_on_c, 1, 59, 0
4, 67200, Note_on_c, 1, 63, 79
4, 67200, Note_on_c, 1, 60, 79
4, 67344, Note_on_c, 1, 63, 0
4, 67344, Note_on_c, 1, 60, 0
4, 67344, Note_on_c, 1, 62, 79
4, 67344, Note_on_c, 1, 59, 79
4, 67389, Note_on_c, 1, 62, 0
4, 67389, Note_on_c, 1, 59, 0
4, 67392, Note_on_c, 1, 65, 79
4, 67392, Note_on_c, 1, 62, 79
4, 67536, Note_on_c, 1, 65, 0
4, 67536, Note_on_c, 1, 62, 0
4, 67536, Note_on_c, 1, 63, 80
4, 67536, Note_on_c, 1, 60, 80
4, 67581, Note_on_c, 1, 63, 0
4, 67581, Note_on_c, 1, 60, 0
4, 67584, Note_on_c, 1, 67, 80
4, 67584, Note_on_c, 1, 63, 80
4, 67728, Note_on_c, 1, 67, 0
4, 67728, Note_on_c, 1, 63, 0
4, 67728, Note_on_c, 1, 65, 81
4, 67728, Note_on_c, 1, 62, 81
4, 67773, Note_on_c, 1, 65, 0
4, 67773, Note_on_c, 1, 62, 0
4, 67776, Note_on_c, 1, 68, 81
4, 67776, Note_on_c, 1, 65, 81
4, 67920, Note_on_c, 1, 68, 0
4, 67920, Note_on_c, 1, 65, 0
4, 67920, Note_on_c, 1, 67, 82
4, 67920, Note_on_c, 1, 63, 82
4, 67965, Note_on_c, 1, 67, 0
4, 67965, Note_on_c, 1, 63, 0
4, 67968, Note_on_c, 1, 70, 83
4, 67968, Note_on_c, 1, 67, 83
4, 68112, Note_on_c, 1, 70, 0
4, 68112, Note_on_c, 1, 67, 0
4, 68112, Note_on_c, 1, 69, 83
4, 68112, Note_on_c, 1, 66, 83
4, 68157, Note_on_c, 1, 69, 0
4, 68157, Note_on_c, 1, 66, 0
4, 68160, Note_on_c, 1, 68, 88
4, 68160, Note_on_c, 1, 65, 88
4, 68208, Note_on_c, 1, 68, 0
4, 68208, Note_on_c, 1, 65, 0
4, 68208, Note_on_c, 1, 67, 88
4, 68208, Note_on_c, 1, 64, 88
4, 68253, Note_on_c, 1, 67, 0
4, 68253, Note_on_c, 1, 64, 0
4, 68256, Note_on_c, 1, 66, 88
4, 68256, Note_on_c, 1, 63, 88
4, 68304, Note_on_c, 1, 66, 0
4, 68304, Note_on_c, 1, 63, 0
4, 68304, Note_on_c, 1, 65, 88
4, 68304, Note_on_c, 1, 62, 88
4, 68349, Note_on_c, 1, 65, 0
4, 68349, Note_on_c, 1, 62, 0
4, 68544, Note_on_c, 1, 63, 62
4, 68544, Note_on_c, 1, 60, 62
4, 68721, Note_on_c, 1, 63, 0
4, 68721, Note_on_c, 1, 60, 0
4, 68736, Note_on_c, 1, 62, 62
4, 68736, Note_on_c, 1, 59, 62
4, 68973, Note_on_c, 1, 62, 0
4, 68973, Note_on_c, 1, 59, 0
4, 69168, Note_on_c, 1, 43, 79
4, 69213, Note_on_c, 1, 43, 0
4, 69216, Note_on_c, 1, 47, 79
4, 69261, Note_on_c, 1, 47, 0
4, 69264, Note_on_c, 1, 50, 79
4, 69309, Note_on_c, 1, 50, 0
4, 69312, Note_on_c, 1, 55, 79
4, 69351, Note_on_c, 1, 55, 0
4, 69552, Note_on_c, 1, 43, 79
4, 69597, Note_on_c, 1, 43, 0
4, 69600, Note_on_c, 1, 48, 79
4, 69645, Note_on_c, 1, 48, 0
4, 69648, Note_on_c, 1, 51, 79
4, 69693, Note_on_c, 1, 51, 0
4, 69696, Note_on_c, 1, 55, 79
4, 69735, Note_on_c, 1, 55, 0
4, 69936, Note_on_c, 1, 43, 79
4, 69981, Note_on_c, 1, 43, 0
4, 69984, Note_on_c, 1, 47, 79
4, 70007, Note_on_c, 1, 47, 0
4, 70008, Note_on_c, 1, 43, 79
4, 70031, Note_on_c, 1, 43, 0
4, 70032, Note_on_c, 1, 50, 79
4, 70055, Note_on_c, 1, 50, 0
4, 70056, Note_on_c, 1, 47, 79
4, 70079, Note_on_c, 1, 47, 0
4, 70080, Note_on_c, 1, 55, 79
4, 70119, Note_on_c, 1, 55, 0
4, 70320, Control_c, 1, 64, 127
4, 70320, Note_on_c, 1, 60, 70
4, 70343, Note_on_c, 1, 60, 0
4, 70344, Control_c, 1, 64, 0
4, 70344, Note_on_c, 1, 48, 72
4, 70367, Note_on_c, 1, 48, 0
4, 70416, Control_c, 1, 64, 127
4, 70416, Note_on_c, 1, 58, 76
4, 70439, Note_on_c, 1, 58, 0
4, 70440, Control_c, 1, 64, 0
4, 70440, Note_on_c, 1, 46, 78
4, 70463, Note_on_c, 1, 46, 0
4, 70512, Control_c, 1, 64, 127
4, 70512, Note_on_c, 1, 57, 82
4, 70535, Note_on_c, 1, 57, 0
4, 70536, Control_c, 1, 64, 0
4, 70536, Note_on_c, 1, 45, 83
4, 70559, Note_on_c, 1, 45, 0
4, 70608, Control_c, 1, 64, 127
4, 70608, Note_on_c, 1, 56, 88
4, 70631, Note_on_c, 1, 56, 0
4, 70632, Control_c, 1, 64, 0
4, 70632, Note_on_c, 1, 44, 88
4, 70655, Note_on_c, 1, 44, 0
4, 70656, Control_c, 1, 64, 127
4, 70656, Note_on_c, 1, 43, 83
4, 70679, Note_on_c, 1, 43, 0
4, 70680, Note_on_c, 1, 55, 83
4, 70703, Note_on_c, 1, 55, 0
4, 70728, Control_c, 1, 64, 0
4, 71040, Note_on_c, 1, 56, 83
4, 71063, Note_on_c, 1, 56, 0
4, 71064, Note_on_c, 1, 55, 83
4, 71087, Note_on_c, 1, 55, 0
4, 71088, Note_on_c, 1, 53, 83
4, 71111, Note_on_c, 1, 53, 0
4, 71856, Note_on_c, 1, 65, 68
4, 71856, Note_on_c, 1, 62, 68
4, 71856, Note_on_c, 1, 55, 68
4, 71903, Note_on_c, 1, 65, 0
4, 71903, Note_on_c, 1, 62, 0
4, 71903, Note_on_c, 1, 55, 0
4, 71904, Note_on_c, 1, 65, 70
4, 71904, Note_on_c, 1, 62, 70
4, 71904, Note_on_c, 1, 55, 70
4, 71951, Note_on_c, 1, 65, 0
4, 71951, Note_on_c, 1, 62, 0
4, 71951, Note_on_c, 1, 55, 0
4, 71952, Note_on_c, 1, 65, 72
4, 71952, Note_on_c, 1, 62, 72
4, 71952, Note_on_c, 1, 55, 72
4, 71999, Note_on_c, 1, 65, 0
4, 71999, Note_on_c, 1, 62, 0
4, 71999, Note_on_c, 1, 55, 0
4, 72000, Note_on_c, 1, 65, 74
4, 72000, Note_on_c, 1, 62, 74
4, 72000, Note_on_c, 1, 55, 74
4, 72187, Note_on_c, 1, 65, 0
4, 72187, Note_on_c, 1, 62, 0
4, 72187, Note_on_c, 1, 55, 0
4, 72240, Note_on_c, 1, 56, 79
4, 72255, Note_on_c, 1, 56, 0
4, 72256, Note_on_c, 1, 62, 79
4, 72271, Note_on_c, 1, 62, 0
4, 72272, Note_on_c, 1, 65, 79
4, 72287, Note_on_c, 1, 65, 0
4, 72288, Note_on_c, 1, 56, 79
4, 72303, Note_on_c, 1, 56, 0
4, 72304, Note_on_c, 1, 62, 79
4, 72319, Note_on_c, 1, 62, 0
4, 72320, Note_on_c, 1, 65, 79
4, 72335, Note_on_c, 1, 65, 0
4, 72336, Note_on_c, 1, 56, 79
4, 72351, Note_on_c, 1, 56, 0
4, 72352, Note_on_c, 1, 62, 79
4, 72367, Note_on_c, 1, 62, 0
4, 72368, Note_on_c, 1, 65, 79
4, 72383, Note_on_c, 1, 65, 0
4, 72384, Note_on_c, 1, 56, 79
4, 72561, Note_on_c, 1, 56, 0
4, 72624, Note_on_c, 1, 56, 74
4, 72639, Note_on_c, 1, 56, 0
4, 72640, Note_on_c, 1, 62, 74
4, 72655, Note_on_c, 1, 62, 0
4, 72656, Note_on_c, 1, 65, 74
4, 72671, Note_on_c, 1, 65, 0
4, 72672, Note_on_c, 1, 56, 74
4, 72687, Note_on_c, 1, 56, 0
4, 72688, Note_on_c, 1, 62, 74
4, 72703, Note_on_c, 1, 62, 0
4, 72704, Note_on_c, 1, 65, 74
4, 72719, Note_on_c, 1, 65, 0
4, 72720, Control_c, 1, 64, 127
4, 72720, Note_on_c, 1, 56, 74
4, 72735, Note_on_c, 1, 56, 0
4, 72736, Note_on_c, 1, 62, 74
4, 72751, Note_on_c, 1, 62, 0
4, 72752, Note_on_c, 1, 65, 74
4, 72767, Note_on_c, 1, 65, 0
4, 72768, Note_on_c, 1, 56, 83
4, 73438, Note_on_c, 1, 56, 0
4, 73440, Note_on_c, 1, 65, 62
4, 73627, Note_on_c, 1, 65, 0
4, 73632, Note_on_c, 1, 65, 62
4, 73728, Control_c, 1, 64, 0
4, 73915, Note_on_c, 1, 65, 0
4, 73920, Note_on_c, 1, 60, 99
4, 73920, Note_on_c, 1, 55, 99
4, 73920, Note_on_c, 1, 51, 99
4, 74016, Note_on_c, 1, 60, 0
4, 74016, Note_on_c, 1, 55, 0
4, 74016, Note_on_c, 1, 51, 0
4, 74112, Note_on_c, 1, 60, 99
4, 74112, Note_on_c, 1, 56, 99
4, 74112, Note_on_c, 1, 53, 99
4, 74208, Note_on_c, 1, 60, 0
4, 74208, Note_on_c, 1, 56, 0
4, 74208, Note_on_c, 1, 53, 0
4, 74352, Note_on_c, 1, 63, 79
4, 74352, Note_on_c, 1, 55, 79
4, 74399, Note_on_c, 1, 63, 0
4, 74399, Note_on_c, 1, 55, 0
4, 74400, Note_on_c, 1, 63, 79
4, 74400, Note_on_c, 1, 55, 79
4, 74447, Note_on_c, 1, 63, 0
4, 74447, Note_on_c, 1, 55, 0
4, 74448, Note_on_c, 1, 62, 81
4, 74448, Note_on_c, 1, 55, 81
4, 74495, Note_on_c, 1, 62, 0
4, 74495, Note_on_c, 1, 55, 0
4, 74544, Note_on_c, 1, 63, 83
4, 74544, Note_on_c, 1, 55, 83
4, 74591, Note_on_c, 1, 63, 0
4, 74591, Note_on_c, 1, 55, 0
4, 74592, Note_on_c, 1, 63, 83
4, 74592, Note_on_c, 1, 55, 83
4, 74639, Note_on_c, 1, 63, 0
4, 74639, Note_on_c, 1, 55, 0
4, 74640, Note_on_c, 1, 62, 81
4, 74640, Note_on_c, 1, 55, 81
4, 74687, Note_on_c, 1, 62, 0
4, 74687, Note_on_c, 1, 55, 0
4, 74736, Note_on_c, 1, 63, 68
4, 74736, Note_on_c, 1, 55, 68
4, 74783, Note_on_c, 1, 63, 0
4, 74783, Note_on_c, 1, 55, 0
4, 74784, Note_on_c, 1, 63, 68
4, 74784, Note_on_c, 1, 55, 68
4, 74831, Note_on_c, 1, 63, 0
4, 74831, Note_on_c, 1, 55, 0
4, 74832, Note_on_c, 1, 62, 71
4, 74832, Note_on_c, 1, 55, 71
4, 74879, Note_on_c, 1, 62, 0
4, 74879, Note_on_c, 1, 55, 0
4, 74928, Note_on_c, 1, 63, 83
4, 74928, Note_on_c, 1, 55, 83
4, 74975, Note_on_c, 1, 63, 0
4, 74975, Note_on_c, 1, 55, 0
4, 74976, Note_on_c, 1, 63, 83
4, 74976, Note_on_c, 1, 55, 83
4, 75023, Note_on_c, 1, 63, 0
4, 75023, Note_on_c, 1, 55, 0
4, 75024, Note_on_c, 1, 65, 83
4, 75024, Note_on_c, 1, 55, 83
4, 75071, Note_on_c, 1, 65, 0
4, 75071, Note_on_c, 1, 55, 0
4, 75072, Note_on_c, 1, 62, 83
4, 75072, Note_on_c, 1, 55, 83
4, 75119, Note_on_c, 1, 62, 0
4, 75119, Note_on_c, 1, 55, 0
4, 75120, Note_on_c, 1, 63, 83
4, 75120, Note_on_c, 1, 55, 83
4, 75167, Note_on_c, 1, 63, 0
4, 75167, Note_on_c, 1, 55, 0
4, 75168, Note_on_c, 1, 59, 88
4, 75168, Note_on_c, 1, 55, 88
4, 75215, Note_on_c, 1, 59, 0
4, 75215, Note_on_c, 1, 55, 0
4, 75216, Note_on_c, 1, 60, 88
4, 75216, Note_on_c, 1, 55, 88
4, 75263, Note_on_c, 1, 60, 0
4, 75263, Note_on_c, 1, 55, 0
4, 75264, Note_on_c, 1, 62, 88
4, 75264, Note_on_c, 1, 55, 88
4, 75353, Note_on_c, 1, 62, 0
4, 75353, Note_on_c, 1, 55, 0
4, 75456, Note_on_c, 1, 60, 68
4, 75471, Note_on_c, 1, 60, 0
4, 75472, Note_on_c, 1, 63, 68
4, 75487, Note_on_c, 1, 63, 0
4, 75488, Note_on_c, 1, 67, 68
4, 75503, Note_on_c, 1, 67, 0
4, 75504, Note_on_c, 1, 60, 68
4, 75519, Note_on_c, 1, 60, 0
4, 75520, Note_on_c, 1, 63, 68
4, 75535, Note_on_c, 1, 63, 0
4, 75536, Note_on_c, 1, 67, 68
4, 75551, Note_on_c, 1, 67, 0
4, 75552, Note_on_c, 1, 60, 68
4, 75567, Note_on_c, 1, 60, 0
4, 75568, Note_on_c, 1, 63, 68
4, 75583, Note_on_c, 1, 63, 0
4, 75584, Note_on_c, 1, 67, 68
4, 75599, Note_on_c, 1, 67, 0
4, 75600, Note_on_c, 1, 60, 68
4, 75615, Note_on_c, 1, 60, 0
4, 75616, Note_on_c, 1, 63, 68
4, 75631, Note_on_c, 1, 63, 0
4, 75632, Note_on_c, 1, 67, 68
4, 75647, Note_on_c, 1, 67, 0
4, 75648, Note_on_c, 1, 62, 68
4, 75663, Note_on_c, 1, 62, 0
4, 75664, Note_on_c, 1, 65, 69
4, 75679, Note_on_c, 1, 65, 0
4, 75680, Note_on_c, 1, 67, 69
4, 75695, Note_on_c, 1, 67, 0
4, 75696, Note_on_c, 1, 62, 69
4, 75711, Note_on_c, 1, 62, 0
4, 75712, Note_on_c, 1, 65, 69
4, 75727, Note_on_c, 1, 65, 0
4, 75728, Note_on_c, 1, 67, 70
4, 75743, Note_on_c, 1, 67, 0
4, 75744, Note_on_c, 1, 59, 70
4, 75759, Note_on_c, 1, 59, 0
4, 75760, Note_on_c, 1, 62, 70
4, 75775, Note_on_c, 1, 62, 0
4, 75776, Note_on_c, 1, 67, 70
4, 75791, Note_on_c, 1, 67, 0
4, 75792, Note_on_c, 1, 59, 71
4, 75807, Note_on_c, 1, 59, 0
4, 75808, Note_on_c, 1, 62, 71
4, 75823, Note_on_c, 1, 62, 0
4, 75824, Note_on_c, 1, 67, 71
4, 75839, Note_on_c, 1, 67, 0
4, 75840, Note_on_c, 1, 60, 72
4, 75855, Note_on_c, 1, 60, 0
4, 75856, Note_on_c, 1, 63, 72
4, 75871, Note_on_c, 1, 63, 0
4, 75872, Note_on_c, 1, 67, 72
4, 75887, Note_on_c, 1, 67, 0
4, 75888, Note_on_c, 1, 60, 72
4, 75903, Note_on_c, 1, 60, 0
4, 75904, Note_on_c, 1, 63, 73
4, 75919, Note_on_c, 1, 63, 0
4, 75920, Note_on_c, 1, 67, 73
4, 75935, Note_on_c, 1, 67, 0
4, 75936, Note_on_c, 1, 60, 73
4, 75951, Note_on_c, 1, 60, 0
4, 75952, Note_on_c, 1, 63, 73
4, 75967, Note_on_c, 1, 63, 0
4, 75968, Note_on_c, 1, 67, 74
4, 75983, Note_on_c, 1, 67, 0
4, 75984, Note_on_c, 1, 60, 74
4, 75999, Note_on_c, 1, 60, 0
4, 76000, Note_on_c, 1, 63, 74
4, 76015, Note_on_c, 1, 63, 0
4, 76016, Note_on_c, 1, 67, 74
4, 76031, Note_on_c, 1, 67, 0
4, 76032, Note_on_c, 1, 62, 75
4, 76047, Note_on_c, 1, 62, 0
4, 76048, Note_on_c, 1, 65, 75
4, 76063, Note_on_c, 1, 65, 0
4, 76064, Note_on_c, 1, 67, 75
4, 76079, Note_on_c, 1, 67, 0
4, 76080, Note_on_c, 1, 62, 76
4, 76095, Note_on_c, 1, 62, 0
4, 76096, Note_on_c, 1, 65, 76
4, 76111, Note_on_c, 1, 65, 0
4, 76112, Note_on_c, 1, 67, 76
4, 76127, Note_on_c, 1, 67, 0
4, 76128, Note_on_c, 1, 59, 76
4, 76143, Note_on_c, 1, 59, 0
4, 76144, Note_on_c, 1, 62, 77
4, 76159, Note_on_c, 1, 62, 0
4, 76160, Note_on_c, 1, 67, 77
4, 76175, Note_on_c, 1, 67, 0
4, 76176, Note_on_c, 1, 59, 77
4, 76191, Note_on_c, 1, 59, 0
4, 76192, Note_on_c, 1, 62, 77
4, 76207, Note_on_c, 1, 62, 0
4, 76208, Note_on_c, 1, 67, 78
4, 76223, Note_on_c, 1, 67, 0
4, 76224, Note_on_c, 1, 60, 78
4, 76239, Note_on_c, 1, 60, 0
4, 76240, Note_on_c, 1, 63, 78
4, 76255, Note_on_c, 1, 63, 0
4, 76256, Note_on_c, 1, 67, 78
4, 76271, Note_on_c, 1, 67, 0
4, 76272, Note_on_c, 1, 60, 83
4, 76287, Note_on_c, 1, 60, 0
4, 76288, Note_on_c, 1, 63, 83
4, 76303, Note_on_c, 1, 63, 0
4, 76304, Note_on_c, 1, 67, 83
4, 76319, Note_on_c, 1, 67, 0
4, 76320, Note_on_c, 1, 62, 83
4, 76335, Note_on_c, 1, 62, 0
4, 76336, Note_on_c, 1, 65, 83
4, 76351, Note_on_c, 1, 65, 0
4, 76352, Note_on_c, 1, 67, 83
4, 76367, Note_on_c, 1, 67, 0
4, 76368, Note_on_c, 1, 59, 83
4, 76383, Note_on_c, 1, 59, 0
4, 76384, Note_on_c, 1, 62, 83
4, 76399, Note_on_c, 1, 62, 0
4, 76400, Note_on_c, 1, 67, 83
4, 76415, Note_on_c, 1, 67, 0
4, 76416, Note_on_c, 1, 60, 83
4, 76431, Note_on_c, 1, 60, 0
4, 76432, Note_on_c, 1, 63, 83
4, 76447, Note_on_c, 1, 63, 0
4, 76448, Note_on_c, 1, 67, 83
4, 76463, Note_on_c, 1, 67, 0
4, 76464, Note_on_c, 1, 60, 83
4, 76479, Note_on_c, 1, 60, 0
4, 76480, Note_on_c, 1, 63, 83
4, 76495, Note_on_c, 1, 63, 0
4, 76496, Note_on_c, 1, 67, 83
4, 76511, Note_on_c, 1, 67, 0
4, 76512, Note_on_c, 1, 62, 83
4, 76527, Note_on_c, 1, 62, 0
4, 76528, Note_on_c, 1, 65, 83
4, 76543, Note_on_c, 1, 65, 0
4, 76544, Note_on_c, 1, 67, 83
4, 76559, Note_on_c, 1, 67, 0
4, 76560, Note_on_c, 1, 59, 83
4, 76575, Note_on_c, 1, 59, 0
4, 76576, Note_on_c, 1, 62, 83
4, 76591, Note_on_c, 1, 62, 0
4, 76592, Note_on_c, 1, 67, 83
4, 76607, Note_on_c, 1, 67, 0
4, 76608, Note_on_c, 1, 60, 83
4, 76653, Note_on_c, 1, 60, 0
4, 76800, Note_on_c, 1, 56, 83
4, 76800, Note_on_c, 1, 53, 83
4, 76889, Note_on_c, 1, 56, 0
4, 76889, Note_on_c, 1, 53, 0
4, 77232, Note_on_c, 1, 63, 74
4, 77232, Note_on_c, 1, 55, 74
4, 77277, Note_on_c, 1, 63, 0
4, 77277, Note_on_c, 1, 55, 0
4, 77280, Note_on_c, 1, 63, 74
4, 77280, Note_on_c, 1, 55, 74
4, 77325, Note_on_c, 1, 63, 0
4, 77325, Note_on_c, 1, 55, 0
4, 77328, Note_on_c, 1, 62, 74
4, 77328, Note_on_c, 1, 55, 74
4, 77373, Note_on_c, 1, 62, 0
4, 77373, Note_on_c, 1, 55, 0
4, 77376, Note_on_c, 1, 60, 74
4, 77376, Note_on_c, 1, 48, 74
4, 77421, Note_on_c, 1, 60, 0
4, 77421, Note_on_c, 1, 48, 0
4, 77424, Note_on_c, 1, 60, 74
4, 77424, Note_on_c, 1, 48, 74
4, 77469, Note_on_c, 1, 60, 0
4, 77469, Note_on_c, 1, 48, 0
4, 77472, Note_on_c, 1, 60, 74
4, 77472, Note_on_c, 1, 48, 74
4, 77517, Note_on_c, 1, 60, 0
4, 77517, Note_on_c, 1, 48, 0
4, 77520, Note_on_c, 1, 60, 74
4, 77520, Note_on_c, 1, 48, 74
4, 77565, Note_on_c, 1, 60, 0
4, 77565, Note_on_c, 1, 48, 0
4, 77568, Note_on_c, 1, 60, 74
4, 77568, Note_on_c, 1, 48, 74
4, 77613, Note_on_c, 1, 60, 0
4, 77613, Note_on_c, 1, 48, 0
4, 77616, Note_on_c, 1, 60, 74
4, 77616, Note_on_c, 1, 48, 74
4, 77661, Note_on_c, 1, 60, 0
4, 77661, Note_on_c, 1, 48, 0
4, 77664, Note_on_c, 1, 60, 74
4, 77664, Note_on_c, 1, 48, 74
4, 77709, Note_on_c, 1, 60, 0
4, 77709, Note_on_c, 1, 48, 0
4, 77712, Note_on_c, 1, 60, 74
4, 77712, Note_on_c, 1, 48, 74
4, 77757, Note_on_c, 1, 60, 0
4, 77757, Note_on_c, 1, 48, 0
4, 77760, Note_on_c, 1, 48, 83
4, 77760, Note_on_c, 1, 36, 83
4, 77805, Note_on_c, 1, 48, 0
4, 77805, Note_on_c, 1, 36, 0
4, 77808, Note_on_c, 1, 48, 80
4, 77808, Note_on_c, 1, 36, 80
4, 77853, Note_on_c, 1, 48, 0
4, 77853, Note_on_c, 1, 36, 0
4, 77856, Note_on_c, 1, 48, 77
4, 77856, Note_on_c, 1, 36, 77
4, 77901, Note_on_c, 1, 48, 0
4, 77901, Note_on_c, 1, 36, 0
4, 77904, Note_on_c, 1, 48, 74
4, 77904, Note_on_c, 1, 36, 74
4, 77949, Note_on_c, 1, 48, 0
4, 77949, Note_on_c, 1, 36, 0
4, 77952, Note_on_c, 1, 48, 74
4, 77952, Note_on_c, 1, 36, 74
4, 77997, Note_on_c, 1, 48, 0
4, 77997, Note_on_c, 1, 36, 0
4, 78000, Note_on_c, 1, 48, 74
4, 78000, Note_on_c, 1, 36, 74
4, 78045, Note_on_c, 1, 48, 0
4, 78045, Note_on_c, 1, 36, 0
4, 78048, Note_on_c, 1, 48, 74
4, 78048, Note_on_c, 1, 36, 74
4, 78093, Note_on_c, 1, 48, 0
4, 78093, Note_on_c, 1, 36, 0
4, 78096, Note_on_c, 1, 48, 74
4, 78096, Note_on_c, 1, 36, 74
4, 78141, Note_on_c, 1, 48, 0
4, 78141, Note_on_c, 1, 36, 0
4, 78144, Note_on_c, 1, 48, 74
4, 78144, Note_on_c, 1, 36, 74
4, 78321, Note_on_c, 1, 48, 0
4, 78321, Note_on_c, 1, 36, 0
4, 78336, Note_on_c, 1, 36, 0
4, 78513, Note_on_c, 1, 36, 0
4, 78528, End_track
5, 0, Start_track
5, 0, Program_c, 1, 0
5, 0, Control_c, 1, 7, 127
5, 0, Control_c, 1, 10, 64
5, 1152, Note_on_c, 1, 60, 64
5, 1197, Note_on_c, 1, 60, 0
5, 1200, Note_on_c, 1, 63, 64
5, 1245, Note_on_c, 1, 63, 0
5, 1248, Note_on_c, 1, 62, 64
5, 1293, Note_on_c, 1, 62, 0
5, 1296, Note_on_c, 1, 60, 64
5, 1341, Note_on_c, 1, 60, 0
5, 1344, Note_on_c, 1, 55, 64
5, 1477, Note_on_c, 1, 55, 0
5, 9648, Control_c, 1, 64, 127
5, 9648, Note_on_c, 1, 58, 64
5, 9839, Note_on_c, 1, 58, 0
5, 9840, Note_on_c, 1, 58, 64
5, 9984, Control_c, 1, 64, 0
5, 10171, Note_on_c, 1, 58, 0
5, 15744, Note_on_c, 1, 60, 64
5, 15789, Note_on_c, 1, 60, 0
5, 15792, Note_on_c, 1, 63, 64
5, 15837, Note_on_c, 1, 63, 0
5, 15840, Note_on_c, 1, 62, 64
5, 15885, Note_on_c, 1, 62, 0
5, 15888, Note_on_c, 1, 60, 64
5, 15933, Note_on_c, 1, 60, 0
5, 15936, Note_on_c, 1, 55, 64
5, 16069, Note_on_c, 1, 55, 0
5, 24240, Control_c, 1, 64, 127
5, 24240, Note_on_c, 1, 58, 64
5, 24431, Note_on_c, 1, 58, 0
5, 24432, Note_on_c, 1, 58, 64
5, 24576, Control_c, 1, 64, 0
5, 24763, Note_on_c, 1, 58, 0
5, 31968, Note_on_c, 1, 53, 88
5, 32625, Note_on_c, 1, 53, 0
5, 42240, Note_on_c, 1, 60, 88
5, 42285, Note_on_c, 1, 60, 0
5, 42288, Note_on_c, 1, 63, 88
5, 42333, Note_on_c, 1, 63, 0
5, 42336, Note_on_c, 1, 62, 88
5, 42381, Note_on_c, 1, 62, 0
5, 42384, Note_on_c, 1, 60, 88
5, 42429, Note_on_c, 1, 60, 0
5, 42432, Note_on_c, 1, 55, 88
5, 42565, Note_on_c, 1, 55, 0
5, 48816, Control_c, 1, 64, 127
5, 48816, Note_on_c, 1, 55, 62
5, 49007, Note_on_c, 1, 55, 0
5, 49008, Note_on_c, 1, 55, 62
5, 49152, Control_c, 1, 64, 0
5, 49339, Note_on_c, 1, 55, 0
5, 56544, Note_on_c, 1, 53, 88
5, 57201, Note_on_c, 1, 53, 0
5, 66816, Note_on_c, 1, 60, 88
5, 66861, Note_on_c, 1, 60, 0
5, 66864, Note_on_c, 1, 63, 88
5, 66909, Note_on_c, 1, 63, 0
5, 66912, Note_on_c, 1, 62, 88
5, 66957, Note_on_c, 1, 62, 0
5, 66960, Note_on_c, 1, 60, 88
5, 67005, Note_on_c, 1, 60, 0
5, 67008, Note_on_c, 1, 55, 88
5, 67141, Note_on_c, 1, 55, 0
5, 73392, Control_c, 1, 64, 127
5, 73392, Note_on_c, 1, 55, 62
5, 73583, Note_on_c, 1, 55, 0
5, 73584, Note_on_c, 1, 55, 62
5, 73728, Control_c, 1, 64, 0
5, 73915, Note_on_c, 1, 55, 0
5, 78336, End_track
6, 0, Start_track
6, 0, Title_t, "Piano Solo   <composer>  "
6, 0, End_track
0, 0, End_of_file
