0, 0, Header, 1, 6, 96
1, 0, Start_track
1, 0, Copyright_t, "Copyright  2000 <copyright holder>"
1, 0, Text_t, "Sonata IV\015\012"
1, 0, Text_t, "Haydn"
1, 0, Sequencer_specific, 16, 68, 87, 77, 90, 86, 82, 83, 78, 32, 54, 46, 48, 46, 57, 46, 48
1, 0, Time_signature, 6, 3, 24, 8
1, 0, Tempo, 1052631
1, 0, Key_signature, -3, "major"
1, 13248, Time_signature, 3, 2, 24, 8
1, 13248, Tempo, 428571
1, 29376, Key_signature, -4, "major"
1, 42048, Key_signature, -3, "major"
1, 58464, End_track
2, 0, Start_track
2, 0, Program_c, 0, 0
2, 0, Control_c, 0, 7, 127
2, 0, Control_c, 0, 10, 64
2, 264, Note_on_c, 0, 55, 64
2, 276, Note_on_c, 0, 55, 0
2, 276, Note_on_c, 0, 60, 64
2, 288, Note_on_c, 0, 60, 0
2, 288, Note_on_c, 0, 63, 64
2, 355, Note_on_c, 0, 63, 0
2, 360, Note_on_c, 0, 62, 64
2, 383, Note_on_c, 0, 62, 0
2, 384, Note_on_c, 0, 60, 64
2, 429, Note_on_c, 0, 60, 0
2, 432, Note_on_c, 0, 59, 64
2, 452, Note_on_c, 0, 59, 0
2, 480, Note_on_c, 0, 80, 64
2, 480, Note_on_c, 0, 71, 64
2, 500, Note_on_c, 0, 80, 0
2, 500, Note_on_c, 0, 71, 0
2, 552, Note_on_c, 0, 59, 64
2, 564, Note_on_c, 0, 59, 0
2, 564, Note_on_c, 0, 62, 64
2, 576, Note_on_c, 0, 62, 0
2, 576, Note_on_c, 0, 65, 64
2, 643, Note_on_c, 0, 65, 0
2, 648, Note_on_c, 0, 63, 64
2, 671, Note_on_c, 0, 63, 0
2, 672, Note_on_c, 0, 62, 64
2, 717, Note_on_c, 0, 62, 0
2, 720, Note_on_c, 0, 60, 64
2, 740, Note_on_c, 0, 60, 0
2, 768, Note_on_c, 0, 79, 64
2, 768, Note_on_c, 0, 75, 64
2, 788, Note_on_c, 0, 79, 0
2, 788, Note_on_c, 0, 75, 0
2, 840, Note_on_c, 0, 60, 64
2, 852, Note_on_c, 0, 60, 0
2, 852, Note_on_c, 0, 63, 64
2, 864, Note_on_c, 0, 63, 0
2, 864, Note_on_c, 0, 67, 64
2, 931, Note_on_c, 0, 67, 0
2, 936, Note_on_c, 0, 63, 64
2, 959, Note_on_c, 0, 63, 0
2, 960, Note_on_c, 0, 72, 64
2, 1005, Note_on_c, 0, 72, 0
2, 1008, Note_on_c, 0, 70, 64
2, 1053, Note_on_c, 0, 70, 0
2, 1056, Note_on_c, 0, 68, 64
2, 1062, Note_on_c, 0, 68, 0
2, 1062, Note_on_c, 0, 70, 64
2, 1068, Note_on_c, 0, 70, 0
2, 1068, Note_on_c, 0, 68, 64
2, 1102, Note_on_c, 0, 68, 0
2, 1104, Note_on_c, 0, 68, 64
2, 1110, Note_on_c, 0, 68, 0
2, 1110, Note_on_c, 0, 67, 64
2, 1116, Note_on_c, 0, 67, 0
2, 1116, Note_on_c, 0, 65, 64
2, 1122, Note_on_c, 0, 65, 0
2, 1122, Note_on_c, 0, 67, 64
2, 1128, Note_on_c, 0, 67, 0
2, 1128, Note_on_c, 0, 67, 64
2, 1138, Note_on_c, 0, 67, 0
2, 1140, Note_on_c, 0, 68, 64
2, 1152, Note_on_c, 0, 68, 0
2, 1152, Note_on_c, 0, 67, 64
2, 1200, Note_on_c, 0, 67, 0
2, 1200, Note_on_c, 0, 65, 64
2, 1206, Note_on_c, 0, 65, 0
2, 1206, Note_on_c, 0, 67, 64
2, 1212, Note_on_c, 0, 67, 0
2, 1212, Note_on_c, 0, 65, 64
2, 1234, Note_on_c, 0, 65, 0
2, 1236, Note_on_c, 0, 62, 64
2, 1248, Note_on_c, 0, 62, 0
2, 1248, Note_on_c, 0, 63, 64
2, 1282, Note_on_c, 0, 63, 0
2, 1284, Note_on_c, 0, 60, 64
2, 1296, Note_on_c, 0, 60, 0
2, 1296, Note_on_c, 0, 67, 64
2, 1296, Note_on_c, 0, 59, 64
2, 1316, Note_on_c, 0, 67, 0
2, 1316, Note_on_c, 0, 59, 0
2, 1416, Note_on_c, 0, 58, 64
2, 1428, Note_on_c, 0, 58, 0
2, 1428, Note_on_c, 0, 63, 64
2, 1440, Note_on_c, 0, 63, 0
2, 1440, Note_on_c, 0, 67, 64
2, 1507, Note_on_c, 0, 67, 0
2, 1512, Note_on_c, 0, 65, 64
2, 1535, Note_on_c, 0, 65, 0
2, 1536, Note_on_c, 0, 63, 64
2, 1581, Note_on_c, 0, 63, 0
2, 1584, Note_on_c, 0, 62, 64
2, 1604, Note_on_c, 0, 62, 0
2, 1632, Note_on_c, 0, 80, 64
2, 1632, Note_on_c, 0, 74, 64
2, 1652, Note_on_c, 0, 80, 0
2, 1652, Note_on_c, 0, 74, 0
2, 1704, Note_on_c, 0, 62, 64
2, 1712, Note_on_c, 0, 62, 0
2, 1712, Note_on_c, 0, 65, 64
2, 1720, Note_on_c, 0, 65, 0
2, 1720, Note_on_c, 0, 68, 64
2, 1728, Note_on_c, 0, 72, 64
2, 1795, Note_on_c, 0, 72, 0
2, 1795, Note_on_c, 0, 68, 0
2, 1800, Note_on_c, 0, 70, 64
2, 1800, Note_on_c, 0, 67, 64
2, 1823, Note_on_c, 0, 70, 0
2, 1823, Note_on_c, 0, 67, 0
2, 1824, Note_on_c, 0, 68, 64
2, 1824, Note_on_c, 0, 65, 64
2, 1869, Note_on_c, 0, 68, 0
2, 1869, Note_on_c, 0, 65, 0
2, 1872, Note_on_c, 0, 67, 64
2, 1872, Note_on_c, 0, 63, 64
2, 1892, Note_on_c, 0, 67, 0
2, 1892, Note_on_c, 0, 63, 0
2, 1920, Note_on_c, 0, 82, 64
2, 1920, Note_on_c, 0, 79, 64
2, 1940, Note_on_c, 0, 82, 0
2, 1940, Note_on_c, 0, 79, 0
2, 1992, Note_on_c, 0, 63, 64
2, 2004, Note_on_c, 0, 63, 0
2, 2004, Note_on_c, 0, 67, 64
2, 2016, Note_on_c, 0, 67, 0
2, 2016, Note_on_c, 0, 75, 65
2, 2083, Note_on_c, 0, 75, 0
2, 2088, Note_on_c, 0, 74, 65
2, 2111, Note_on_c, 0, 74, 0
2, 2112, Note_on_c, 0, 72, 65
2, 2157, Note_on_c, 0, 72, 0
2, 2160, Note_on_c, 0, 72, 65
2, 2208, Note_on_c, 0, 72, 0
2, 2208, Note_on_c, 0, 70, 65
2, 2253, Note_on_c, 0, 70, 0
2, 2256, Note_on_c, 0, 68, 65
2, 2301, Note_on_c, 0, 68, 0
2, 2304, Note_on_c, 0, 67, 65
2, 2310, Note_on_c, 0, 67, 0
2, 2310, Note_on_c, 0, 70, 65
2, 2316, Note_on_c, 0, 70, 0
2, 2316, Note_on_c, 0, 68, 65
2, 2350, Note_on_c, 0, 68, 0
2, 2352, Note_on_c, 0, 67, 65
2, 2397, Note_on_c, 0, 67, 0
2, 2400, Note_on_c, 0, 65, 65
2, 2445, Note_on_c, 0, 65, 0
2, 2448, Note_on_c, 0, 70, 85
2, 2515, Note_on_c, 0, 70, 0
2, 2520, Note_on_c, 0, 72, 85
2, 2532, Note_on_c, 0, 72, 0
2, 2532, Note_on_c, 0, 70, 85
2, 2544, Note_on_c, 0, 70, 0
2, 2544, Note_on_c, 0, 72, 85
2, 2556, Note_on_c, 0, 72, 0
2, 2556, Note_on_c, 0, 70, 85
2, 2568, Note_on_c, 0, 70, 0
2, 2568, Note_on_c, 0, 68, 85
2, 2580, Note_on_c, 0, 68, 0
2, 2580, Note_on_c, 0, 67, 85
2, 2592, Note_on_c, 0, 67, 0
2, 2592, Note_on_c, 0, 67, 85
2, 2615, Note_on_c, 0, 67, 0
2, 2616, Note_on_c, 0, 65, 85
2, 2639, Note_on_c, 0, 65, 0
2, 2640, Note_on_c, 0, 63, 85
2, 2685, Note_on_c, 0, 63, 0
2, 2688, Note_on_c, 0, 62, 85
2, 2694, Note_on_c, 0, 62, 0
2, 2694, Note_on_c, 0, 63, 85
2, 2700, Note_on_c, 0, 63, 0
2, 2700, Note_on_c, 0, 62, 85
2, 2722, Note_on_c, 0, 62, 0
2, 2724, Note_on_c, 0, 63, 85
2, 2736, Note_on_c, 0, 63, 0
2, 2736, Note_on_c, 0, 63, 65
2, 2825, Note_on_c, 0, 63, 0
2, 2832, Note_on_c, 0, 67, 65
2, 2832, Note_on_c, 0, 63, 65
2, 2877, Note_on_c, 0, 67, 0
2, 2877, Note_on_c, 0, 63, 0
2, 2880, Note_on_c, 0, 65, 65
2, 2969, Note_on_c, 0, 65, 0
2, 2976, Note_on_c, 0, 72, 65
2, 2976, Note_on_c, 0, 68, 65
2, 3021, Note_on_c, 0, 72, 0
2, 3021, Note_on_c, 0, 68, 0
2, 3024, Note_on_c, 0, 72, 65
2, 3024, Note_on_c, 0, 68, 65
2, 3069, Note_on_c, 0, 72, 0
2, 3069, Note_on_c, 0, 68, 0
2, 3072, Note_on_c, 0, 70, 65
2, 3072, Note_on_c, 0, 67, 65
2, 3117, Note_on_c, 0, 70, 0
2, 3117, Note_on_c, 0, 67, 0
2, 3120, Note_on_c, 0, 68, 65
2, 3120, Note_on_c, 0, 65, 65
2, 3165, Note_on_c, 0, 68, 0
2, 3165, Note_on_c, 0, 65, 0
2, 3168, Note_on_c, 0, 67, 65
2, 3176, Note_on_c, 0, 67, 0
2, 3176, Note_on_c, 0, 68, 65
2, 3184, Note_on_c, 0, 68, 0
2, 3184, Note_on_c, 0, 70, 65
2, 3192, Note_on_c, 0, 70, 0
2, 3192, Note_on_c, 0, 68, 65
2, 3259, Note_on_c, 0, 68, 0
2, 3264, Note_on_c, 0, 67, 65
2, 3309, Note_on_c, 0, 67, 0
2, 3312, Note_on_c, 0, 70, 92
2, 3312, Note_on_c, 0, 63, 92
2, 3445, Note_on_c, 0, 70, 0
2, 3445, Note_on_c, 0, 63, 0
2, 3456, Note_on_c, 0, 70, 92
2, 3523, Note_on_c, 0, 70, 0
2, 3528, Note_on_c, 0, 68, 92
2, 3551, Note_on_c, 0, 68, 0
2, 3552, Note_on_c, 0, 67, 92
2, 3575, Note_on_c, 0, 67, 0
2, 3576, Note_on_c, 0, 65, 92
2, 3599, Note_on_c, 0, 65, 0
2, 3600, Note_on_c, 0, 63, 92
2, 3689, Note_on_c, 0, 63, 0
2, 3696, Note_on_c, 0, 67, 92
2, 3708, Note_on_c, 0, 67, 0
2, 3708, Note_on_c, 0, 65, 92
2, 3731, Note_on_c, 0, 65, 0
2, 3732, Note_on_c, 0, 63, 92
2, 3744, Note_on_c, 0, 63, 0
2, 3744, Note_on_c, 0, 63, 92
2, 3789, Note_on_c, 0, 63, 0
2, 3840, Note_on_c, 0, 58, 65
2, 3840, Note_on_c, 0, 55, 65
2, 3860, Note_on_c, 0, 58, 0
2, 3860, Note_on_c, 0, 55, 0
2, 3888, Note_on_c, 0, 55, 65
2, 3888, Note_on_c, 0, 51, 65
2, 3908, Note_on_c, 0, 55, 0
2, 3908, Note_on_c, 0, 51, 0
2, 4008, Note_on_c, 0, 55, 78
2, 4020, Note_on_c, 0, 55, 0
2, 4020, Note_on_c, 0, 60, 78
2, 4032, Note_on_c, 0, 60, 0
2, 4032, Note_on_c, 0, 63, 78
2, 4099, Note_on_c, 0, 63, 0
2, 4104, Note_on_c, 0, 62, 78
2, 4127, Note_on_c, 0, 62, 0
2, 4128, Note_on_c, 0, 60, 78
2, 4173, Note_on_c, 0, 60, 0
2, 4176, Note_on_c, 0, 59, 78
2, 4221, Note_on_c, 0, 59, 0
2, 4224, Note_on_c, 0, 74, 78
2, 4230, Note_on_c, 0, 77, 78
2, 4236, Note_on_c, 0, 80, 78
2, 4242, Note_on_c, 0, 83, 78
2, 4282, Note_on_c, 0, 83, 0
2, 4282, Note_on_c, 0, 80, 0
2, 4282, Note_on_c, 0, 77, 0
2, 4282, Note_on_c, 0, 74, 0
2, 4296, Note_on_c, 0, 59, 78
2, 4308, Note_on_c, 0, 59, 0
2, 4308, Note_on_c, 0, 62, 78
2, 4320, Note_on_c, 0, 62, 0
2, 4320, Note_on_c, 0, 65, 78
2, 4387, Note_on_c, 0, 65, 0
2, 4392, Note_on_c, 0, 63, 78
2, 4415, Note_on_c, 0, 63, 0
2, 4416, Note_on_c, 0, 62, 78
2, 4461, Note_on_c, 0, 62, 0
2, 4464, Note_on_c, 0, 60, 78
2, 4509, Note_on_c, 0, 60, 0
2, 4518, Note_on_c, 0, 79, 78
2, 4524, Note_on_c, 0, 84, 78
2, 4530, Note_on_c, 0, 87, 78
2, 4570, Note_on_c, 0, 87, 0
2, 4570, Note_on_c, 0, 84, 0
2, 4570, Note_on_c, 0, 79, 0
2, 4584, Note_on_c, 0, 60, 78
2, 4596, Note_on_c, 0, 60, 0
2, 4596, Note_on_c, 0, 63, 78
2, 4608, Note_on_c, 0, 63, 0
2, 4608, Note_on_c, 0, 67, 78
2, 4675, Note_on_c, 0, 67, 0
2, 4680, Note_on_c, 0, 63, 78
2, 4703, Note_on_c, 0, 63, 0
2, 4704, Note_on_c, 0, 72, 78
2, 4749, Note_on_c, 0, 72, 0
2, 4752, Note_on_c, 0, 70, 78
2, 4797, Note_on_c, 0, 70, 0
2, 4800, Note_on_c, 0, 68, 78
2, 4806, Note_on_c, 0, 68, 0
2, 4806, Note_on_c, 0, 70, 78
2, 4812, Note_on_c, 0, 70, 0
2, 4812, Note_on_c, 0, 68, 78
2, 4846, Note_on_c, 0, 68, 0
2, 4848, Note_on_c, 0, 68, 78
2, 4854, Note_on_c, 0, 68, 0
2, 4854, Note_on_c, 0, 67, 78
2, 4860, Note_on_c, 0, 67, 0
2, 4860, Note_on_c, 0, 65, 78
2, 4866, Note_on_c, 0, 65, 0
2, 4866, Note_on_c, 0, 67, 78
2, 4872, Note_on_c, 0, 67, 0
2, 4872, Note_on_c, 0, 67, 78
2, 4882, Note_on_c, 0, 67, 0
2, 4884, Note_on_c, 0, 68, 78
2, 4896, Note_on_c, 0, 68, 0
2, 4896, Note_on_c, 0, 67, 78
2, 4941, Note_on_c, 0, 67, 0
2, 4944, Note_on_c, 0, 65, 78
2, 4950, Note_on_c, 0, 65, 0
2, 4950, Note_on_c, 0, 67, 78
2, 4956, Note_on_c, 0, 67, 0
2, 4956, Note_on_c, 0, 65, 78
2, 4967, Note_on_c, 0, 65, 0
2, 4968, Note_on_c, 0, 63, 78
2, 4980, Note_on_c, 0, 63, 0
2, 4980, Note_on_c, 0, 62, 78
2, 4992, Note_on_c, 0, 62, 0
2, 4992, Note_on_c, 0, 65, 78
2, 5004, Note_on_c, 0, 65, 0
2, 5004, Note_on_c, 0, 63, 78
2, 5016, Note_on_c, 0, 63, 0
2, 5016, Note_on_c, 0, 62, 78
2, 5028, Note_on_c, 0, 62, 0
2, 5028, Note_on_c, 0, 60, 78
2, 5040, Note_on_c, 0, 60, 0
2, 5040, Note_on_c, 0, 67, 78
2, 5040, Note_on_c, 0, 59, 78
2, 5060, Note_on_c, 0, 67, 0
2, 5060, Note_on_c, 0, 59, 0
2, 5160, Note_on_c, 0, 58, 78
2, 5172, Note_on_c, 0, 58, 0
2, 5172, Note_on_c, 0, 63, 78
2, 5184, Note_on_c, 0, 63, 0
2, 5184, Note_on_c, 0, 67, 78
2, 5251, Note_on_c, 0, 67, 0
2, 5256, Note_on_c, 0, 65, 78
2, 5279, Note_on_c, 0, 65, 0
2, 5280, Note_on_c, 0, 63, 78
2, 5325, Note_on_c, 0, 63, 0
2, 5328, Note_on_c, 0, 62, 78
2, 5348, Note_on_c, 0, 62, 0
2, 5376, Note_on_c, 0, 80, 78
2, 5388, Note_on_c, 0, 80, 0
2, 5388, Note_on_c, 0, 79, 78
2, 5400, Note_on_c, 0, 79, 0
2, 5400, Note_on_c, 0, 82, 78
2, 5412, Note_on_c, 0, 82, 0
2, 5412, Note_on_c, 0, 80, 78
2, 5424, Note_on_c, 0, 80, 0
2, 5424, Note_on_c, 0, 84, 78
2, 5436, Note_on_c, 0, 84, 0
2, 5436, Note_on_c, 0, 82, 78
2, 5448, Note_on_c, 0, 82, 0
2, 5448, Note_on_c, 0, 80, 78
2, 5460, Note_on_c, 0, 80, 0
2, 5460, Note_on_c, 0, 79, 78
2, 5472, Note_on_c, 0, 79, 0
2, 5472, Note_on_c, 0, 77, 78
2, 5484, Note_on_c, 0, 77, 0
2, 5484, Note_on_c, 0, 75, 78
2, 5496, Note_on_c, 0, 75, 0
2, 5496, Note_on_c, 0, 74, 78
2, 5508, Note_on_c, 0, 74, 0
2, 5508, Note_on_c, 0, 72, 78
2, 5520, Note_on_c, 0, 72, 0
2, 5520, Note_on_c, 0, 70, 78
2, 5532, Note_on_c, 0, 70, 0
2, 5532, Note_on_c, 0, 68, 78
2, 5544, Note_on_c, 0, 68, 0
2, 5544, Note_on_c, 0, 67, 78
2, 5556, Note_on_c, 0, 67, 0
2, 5556, Note_on_c, 0, 65, 78
2, 5568, Note_on_c, 0, 65, 0
2, 5568, Note_on_c, 0, 63, 78
2, 5580, Note_on_c, 0, 63, 0
2, 5580, Note_on_c, 0, 62, 78
2, 5592, Note_on_c, 0, 62, 0
2, 5592, Note_on_c, 0, 65, 78
2, 5604, Note_on_c, 0, 65, 0
2, 5604, Note_on_c, 0, 68, 78
2, 5616, Note_on_c, 0, 68, 0
2, 5616, Note_on_c, 0, 67, 78
2, 5616, Note_on_c, 0, 63, 78
2, 5661, Note_on_c, 0, 67, 0
2, 5661, Note_on_c, 0, 63, 0
2, 5664, Note_on_c, 0, 82, 78
2, 5664, Note_on_c, 0, 79, 78
2, 5684, Note_on_c, 0, 82, 0
2, 5684, Note_on_c, 0, 79, 0
2, 5712, Note_on_c, 0, 63, 78
2, 5718, Note_on_c, 0, 63, 0
2, 5718, Note_on_c, 0, 65, 78
2, 5724, Note_on_c, 0, 65, 0
2, 5724, Note_on_c, 0, 67, 78
2, 5730, Note_on_c, 0, 67, 0
2, 5730, Note_on_c, 0, 68, 78
2, 5736, Note_on_c, 0, 68, 0
2, 5736, Note_on_c, 0, 70, 78
2, 5742, Note_on_c, 0, 70, 0
2, 5742, Note_on_c, 0, 72, 78
2, 5748, Note_on_c, 0, 72, 0
2, 5748, Note_on_c, 0, 74, 78
2, 5754, Note_on_c, 0, 74, 0
2, 5754, Note_on_c, 0, 75, 78
2, 5760, Note_on_c, 0, 75, 0
2, 5760, Note_on_c, 0, 74, 78
2, 5768, Note_on_c, 0, 74, 0
2, 5768, Note_on_c, 0, 75, 78
2, 5776, Note_on_c, 0, 75, 0
2, 5776, Note_on_c, 0, 77, 78
2, 5784, Note_on_c, 0, 77, 0
2, 5784, Note_on_c, 0, 75, 78
2, 5829, Note_on_c, 0, 75, 0
2, 5832, Note_on_c, 0, 74, 78
2, 5855, Note_on_c, 0, 74, 0
2, 5856, Note_on_c, 0, 72, 78
2, 5901, Note_on_c, 0, 72, 0
2, 5904, Note_on_c, 0, 72, 78
2, 5952, Note_on_c, 0, 72, 0
2, 5952, Note_on_c, 0, 70, 78
2, 5975, Note_on_c, 0, 70, 0
2, 5976, Note_on_c, 0, 68, 78
2, 5988, Note_on_c, 0, 68, 0
2, 5988, Note_on_c, 0, 70, 78
2, 6000, Note_on_c, 0, 70, 0
2, 6000, Note_on_c, 0, 74, 78
2, 6012, Note_on_c, 0, 74, 0
2, 6012, Note_on_c, 0, 72, 78
2, 6024, Note_on_c, 0, 72, 0
2, 6024, Note_on_c, 0, 70, 78
2, 6036, Note_on_c, 0, 70, 0
2, 6036, Note_on_c, 0, 68, 78
2, 6048, Note_on_c, 0, 68, 0
2, 6048, Note_on_c, 0, 68, 78
2, 6096, Note_on_c, 0, 68, 0
2, 6096, Note_on_c, 0, 67, 78
2, 6102, Note_on_c, 0, 67, 0
2, 6102, Note_on_c, 0, 68, 78
2, 6108, Note_on_c, 0, 68, 0
2, 6108, Note_on_c, 0, 67, 78
2, 6119, Note_on_c, 0, 67, 0
2, 6120, Note_on_c, 0, 63, 78
2, 6132, Note_on_c, 0, 63, 0
2, 6132, Note_on_c, 0, 65, 78
2, 6144, Note_on_c, 0, 65, 0
2, 6144, Note_on_c, 0, 70, 78
2, 6156, Note_on_c, 0, 70, 0
2, 6156, Note_on_c, 0, 68, 78
2, 6168, Note_on_c, 0, 68, 0
2, 6168, Note_on_c, 0, 67, 78
2, 6180, Note_on_c, 0, 67, 0
2, 6180, Note_on_c, 0, 65, 78
2, 6192, Note_on_c, 0, 65, 0
2, 6192, Note_on_c, 0, 70, 85
2, 6215, Note_on_c, 0, 70, 0
2, 6216, Note_on_c, 0, 69, 85
2, 6228, Note_on_c, 0, 69, 0
2, 6228, Note_on_c, 0, 70, 85
2, 6240, Note_on_c, 0, 70, 0
2, 6240, Note_on_c, 0, 69, 85
2, 6252, Note_on_c, 0, 69, 0
2, 6252, Note_on_c, 0, 70, 85
2, 6264, Note_on_c, 0, 70, 0
2, 6264, Note_on_c, 0, 69, 85
2, 6276, Note_on_c, 0, 69, 0
2, 6276, Note_on_c, 0, 70, 85
2, 6288, Note_on_c, 0, 70, 0
2, 6288, Note_on_c, 0, 72, 85
2, 6300, Note_on_c, 0, 72, 0
2, 6300, Note_on_c, 0, 70, 85
2, 6312, Note_on_c, 0, 70, 0
2, 6312, Note_on_c, 0, 68, 85
2, 6324, Note_on_c, 0, 68, 0
2, 6324, Note_on_c, 0, 67, 85
2, 6336, Note_on_c, 0, 67, 0
2, 6336, Note_on_c, 0, 67, 85
2, 6348, Note_on_c, 0, 67, 0
2, 6348, Note_on_c, 0, 65, 85
2, 6360, Note_on_c, 0, 65, 0
2, 6360, Note_on_c, 0, 68, 85
2, 6372, Note_on_c, 0, 68, 0
2, 6372, Note_on_c, 0, 65, 85
2, 6384, Note_on_c, 0, 65, 0
2, 6384, Note_on_c, 0, 65, 85
2, 6396, Note_on_c, 0, 65, 0
2, 6396, Note_on_c, 0, 63, 85
2, 6408, Note_on_c, 0, 63, 0
2, 6408, Note_on_c, 0, 67, 85
2, 6420, Note_on_c, 0, 67, 0
2, 6420, Note_on_c, 0, 63, 85
2, 6432, Note_on_c, 0, 63, 0
2, 6432, Note_on_c, 0, 63, 85
2, 6444, Note_on_c, 0, 63, 0
2, 6444, Note_on_c, 0, 62, 85
2, 6456, Note_on_c, 0, 62, 0
2, 6456, Note_on_c, 0, 65, 85
2, 6468, Note_on_c, 0, 65, 0
2, 6468, Note_on_c, 0, 62, 85
2, 6480, Note_on_c, 0, 62, 0
2, 6480, Note_on_c, 0, 63, 65
2, 6569, Note_on_c, 0, 63, 0
2, 6576, Note_on_c, 0, 67, 65
2, 6576, Note_on_c, 0, 63, 65
2, 6621, Note_on_c, 0, 67, 0
2, 6621, Note_on_c, 0, 63, 0
2, 6624, Note_on_c, 0, 65, 65
2, 6713, Note_on_c, 0, 65, 0
2, 6720, Note_on_c, 0, 72, 65
2, 6720, Note_on_c, 0, 68, 65
2, 6765, Note_on_c, 0, 72, 0
2, 6765, Note_on_c, 0, 68, 0
2, 6768, Note_on_c, 0, 72, 85
2, 6768, Note_on_c, 0, 68, 85
2, 6813, Note_on_c, 0, 72, 0
2, 6813, Note_on_c, 0, 68, 0
2, 6816, Note_on_c, 0, 70, 85
2, 6816, Note_on_c, 0, 67, 85
2, 6861, Note_on_c, 0, 70, 0
2, 6861, Note_on_c, 0, 67, 0
2, 6864, Note_on_c, 0, 68, 85
2, 6864, Note_on_c, 0, 65, 85
2, 6909, Note_on_c, 0, 68, 0
2, 6909, Note_on_c, 0, 65, 0
2, 6912, Note_on_c, 0, 67, 85
2, 6920, Note_on_c, 0, 67, 0
2, 6920, Note_on_c, 0, 68, 85
2, 6928, Note_on_c, 0, 68, 0
2, 6928, Note_on_c, 0, 70, 85
2, 6936, Note_on_c, 0, 70, 0
2, 6936, Note_on_c, 0, 68, 85
2, 7003, Note_on_c, 0, 68, 0
2, 7008, Note_on_c, 0, 67, 85
2, 7053, Note_on_c, 0, 67, 0
2, 7056, Note_on_c, 0, 70, 92
2, 7056, Note_on_c, 0, 63, 92
2, 7189, Note_on_c, 0, 70, 0
2, 7189, Note_on_c, 0, 63, 0
2, 7200, Note_on_c, 0, 70, 92
2, 7267, Note_on_c, 0, 70, 0
2, 7272, Note_on_c, 0, 68, 92
2, 7295, Note_on_c, 0, 68, 0
2, 7296, Note_on_c, 0, 67, 92
2, 7319, Note_on_c, 0, 67, 0
2, 7320, Note_on_c, 0, 65, 92
2, 7343, Note_on_c, 0, 65, 0
2, 7344, Note_on_c, 0, 63, 92
2, 7433, Note_on_c, 0, 63, 0
2, 7440, Note_on_c, 0, 67, 92
2, 7452, Note_on_c, 0, 67, 0
2, 7452, Note_on_c, 0, 65, 92
2, 7475, Note_on_c, 0, 65, 0
2, 7476, Note_on_c, 0, 63, 92
2, 7488, Note_on_c, 0, 63, 0
2, 7488, Note_on_c, 0, 63, 92
2, 7533, Note_on_c, 0, 63, 0
2, 7584, Note_on_c, 0, 58, 58
2, 7584, Note_on_c, 0, 55, 58
2, 7604, Note_on_c, 0, 58, 0
2, 7604, Note_on_c, 0, 55, 0
2, 7632, Note_on_c, 0, 55, 58
2, 7632, Note_on_c, 0, 51, 58
2, 7652, Note_on_c, 0, 55, 0
2, 7652, Note_on_c, 0, 51, 0
2, 7752, Note_on_c, 0, 70, 78
2, 7764, Note_on_c, 0, 70, 0
2, 7764, Note_on_c, 0, 75, 78
2, 7776, Note_on_c, 0, 75, 0
2, 7776, Note_on_c, 0, 79, 78
2, 7843, Note_on_c, 0, 79, 0
2, 7848, Note_on_c, 0, 77, 78
2, 7871, Note_on_c, 0, 77, 0
2, 7872, Note_on_c, 0, 75, 78
2, 7917, Note_on_c, 0, 75, 0
2, 7920, Note_on_c, 0, 74, 78
2, 7965, Note_on_c, 0, 74, 0
2, 7968, Note_on_c, 0, 80, 78
2, 7968, Note_on_c, 0, 77, 78
2, 7988, Note_on_c, 0, 80, 0
2, 7988, Note_on_c, 0, 77, 0
2, 8016, Note_on_c, 0, 58, 78
2, 8020, Note_on_c, 0, 58, 0
2, 8020, Note_on_c, 0, 60, 78
2, 8024, Note_on_c, 0, 60, 0
2, 8024, Note_on_c, 0, 62, 78
2, 8028, Note_on_c, 0, 62, 0
2, 8028, Note_on_c, 0, 63, 78
2, 8031, Note_on_c, 0, 63, 0
2, 8031, Note_on_c, 0, 65, 78
2, 8034, Note_on_c, 0, 65, 0
2, 8034, Note_on_c, 0, 67, 78
2, 8037, Note_on_c, 0, 67, 0
2, 8037, Note_on_c, 0, 68, 78
2, 8040, Note_on_c, 0, 68, 0
2, 8040, Note_on_c, 0, 70, 78
2, 8043, Note_on_c, 0, 70, 0
2, 8043, Note_on_c, 0, 72, 78
2, 8046, Note_on_c, 0, 72, 0
2, 8046, Note_on_c, 0, 74, 78
2, 8049, Note_on_c, 0, 74, 0
2, 8049, Note_on_c, 0, 75, 78
2, 8052, Note_on_c, 0, 75, 0
2, 8052, Note_on_c, 0, 77, 78
2, 8055, Note_on_c, 0, 77, 0
2, 8055, Note_on_c, 0, 79, 78
2, 8058, Note_on_c, 0, 79, 0
2, 8058, Note_on_c, 0, 80, 78
2, 8061, Note_on_c, 0, 80, 0
2, 8061, Note_on_c, 0, 82, 78
2, 8064, Note_on_c, 0, 82, 0
2, 8064, Note_on_c, 0, 84, 78
2, 8064, Note_on_c, 0, 80, 78
2, 8131, Note_on_c, 0, 84, 0
2, 8131, Note_on_c, 0, 80, 0
2, 8136, Note_on_c, 0, 82, 78
2, 8136, Note_on_c, 0, 79, 78
2, 8159, Note_on_c, 0, 82, 0
2, 8159, Note_on_c, 0, 79, 0
2, 8160, Note_on_c, 0, 80, 78
2, 8160, Note_on_c, 0, 77, 78
2, 8205, Note_on_c, 0, 80, 0
2, 8205, Note_on_c, 0, 77, 0
2, 8208, Note_on_c, 0, 79, 78
2, 8208, Note_on_c, 0, 75, 78
2, 8228, Note_on_c, 0, 79, 0
2, 8228, Note_on_c, 0, 75, 0
2, 8256, Note_on_c, 0, 82, 78
2, 8256, Note_on_c, 0, 79, 78
2, 8276, Note_on_c, 0, 82, 0
2, 8276, Note_on_c, 0, 79, 0
2, 8352, Note_on_c, 0, 67, 78
2, 8352, Note_on_c, 0, 63, 78
2, 8372, Note_on_c, 0, 67, 0
2, 8372, Note_on_c, 0, 63, 0
2, 8400, Note_on_c, 0, 82, 78
2, 8400, Note_on_c, 0, 79, 78
2, 8420, Note_on_c, 0, 82, 0
2, 8420, Note_on_c, 0, 79, 0
2, 8496, Note_on_c, 0, 67, 78
2, 8496, Note_on_c, 0, 60, 78
2, 8516, Note_on_c, 0, 67, 0
2, 8516, Note_on_c, 0, 60, 0
2, 8544, Note_on_c, 0, 82, 78
2, 8544, Note_on_c, 0, 79, 78
2, 8564, Note_on_c, 0, 82, 0
2, 8564, Note_on_c, 0, 79, 0
2, 8640, Note_on_c, 0, 68, 78
2, 8640, Note_on_c, 0, 65, 78
2, 8660, Note_on_c, 0, 68, 0
2, 8660, Note_on_c, 0, 65, 0
2, 8688, Note_on_c, 0, 80, 78
2, 8688, Note_on_c, 0, 77, 78
2, 8708, Note_on_c, 0, 80, 0
2, 8708, Note_on_c, 0, 77, 0
2, 8784, Note_on_c, 0, 68, 78
2, 8784, Note_on_c, 0, 65, 78
2, 8829, Note_on_c, 0, 68, 0
2, 8829, Note_on_c, 0, 65, 0
2, 8832, Note_on_c, 0, 80, 78
2, 8832, Note_on_c, 0, 77, 78
2, 8877, Note_on_c, 0, 80, 0
2, 8877, Note_on_c, 0, 77, 0
2, 8880, Note_on_c, 0, 80, 78
2, 8880, Note_on_c, 0, 77, 78
2, 8925, Note_on_c, 0, 80, 0
2, 8925, Note_on_c, 0, 77, 0
2, 8928, Note_on_c, 0, 79, 78
2, 9024, Note_on_c, 0, 79, 0
2, 9024, Note_on_c, 0, 77, 78
2, 9036, Note_on_c, 0, 77, 0
2, 9036, Note_on_c, 0, 75, 78
2, 9048, Note_on_c, 0, 75, 0
2, 9048, Note_on_c, 0, 74, 78
2, 9060, Note_on_c, 0, 74, 0
2, 9060, Note_on_c, 0, 72, 78
2, 9072, Note_on_c, 0, 72, 0
2, 9072, Note_on_c, 0, 77, 78
2, 9072, Note_on_c, 0, 74, 78
2, 9161, Note_on_c, 0, 77, 0
2, 9161, Note_on_c, 0, 74, 0
2, 9168, Note_on_c, 0, 77, 78
2, 9180, Note_on_c, 0, 77, 0
2, 9180, Note_on_c, 0, 75, 78
2, 9192, Note_on_c, 0, 75, 0
2, 9192, Note_on_c, 0, 74, 78
2, 9204, Note_on_c, 0, 74, 0
2, 9204, Note_on_c, 0, 72, 78
2, 9216, Note_on_c, 0, 72, 0
2, 9216, Note_on_c, 0, 71, 78
2, 9261, Note_on_c, 0, 71, 0
2, 9264, Note_on_c, 0, 79, 78
2, 9264, Note_on_c, 0, 71, 78
2, 9309, Note_on_c, 0, 79, 0
2, 9309, Note_on_c, 0, 71, 0
2, 9312, Note_on_c, 0, 79, 78
2, 9312, Note_on_c, 0, 71, 78
2, 9357, Note_on_c, 0, 79, 0
2, 9357, Note_on_c, 0, 71, 0
2, 9360, Note_on_c, 0, 79, 78
2, 9360, Note_on_c, 0, 71, 78
2, 9405, Note_on_c, 0, 79, 0
2, 9405, Note_on_c, 0, 71, 0
2, 9480, Note_on_c, 0, 55, 78
2, 9492, Note_on_c, 0, 55, 0
2, 9492, Note_on_c, 0, 60, 78
2, 9504, Note_on_c, 0, 60, 0
2, 9504, Note_on_c, 0, 63, 78
2, 9571, Note_on_c, 0, 63, 0
2, 9576, Note_on_c, 0, 62, 78
2, 9599, Note_on_c, 0, 62, 0
2, 9600, Note_on_c, 0, 60, 78
2, 9645, Note_on_c, 0, 60, 0
2, 9648, Note_on_c, 0, 59, 78
2, 9682, Note_on_c, 0, 59, 0
2, 9684, Note_on_c, 0, 80, 78
2, 9696, Note_on_c, 0, 80, 0
2, 9696, Note_on_c, 0, 80, 78
2, 9708, Note_on_c, 0, 80, 0
2, 9708, Note_on_c, 0, 79, 78
2, 9720, Note_on_c, 0, 79, 0
2, 9720, Note_on_c, 0, 79, 78
2, 9732, Note_on_c, 0, 79, 0
2, 9732, Note_on_c, 0, 77, 78
2, 9744, Note_on_c, 0, 77, 0
2, 9744, Note_on_c, 0, 77, 78
2, 9756, Note_on_c, 0, 77, 0
2, 9756, Note_on_c, 0, 75, 78
2, 9768, Note_on_c, 0, 75, 0
2, 9768, Note_on_c, 0, 75, 78
2, 9780, Note_on_c, 0, 75, 0
2, 9780, Note_on_c, 0, 74, 78
2, 9792, Note_on_c, 0, 74, 0
2, 9792, Note_on_c, 0, 74, 78
2, 9804, Note_on_c, 0, 74, 0
2, 9804, Note_on_c, 0, 72, 78
2, 9816, Note_on_c, 0, 72, 0
2, 9816, Note_on_c, 0, 72, 78
2, 9828, Note_on_c, 0, 72, 0
2, 9828, Note_on_c, 0, 71, 78
2, 9840, Note_on_c, 0, 71, 0
2, 9840, Note_on_c, 0, 71, 78
2, 9852, Note_on_c, 0, 71, 0
2, 9852, Note_on_c, 0, 68, 78
2, 9864, Note_on_c, 0, 68, 0
2, 9864, Note_on_c, 0, 67, 78
2, 9876, Note_on_c, 0, 67, 0
2, 9876, Note_on_c, 0, 65, 78
2, 9888, Note_on_c, 0, 65, 0
2, 9888, Note_on_c, 0, 63, 78
2, 9900, Note_on_c, 0, 63, 0
2, 9900, Note_on_c, 0, 62, 78
2, 9912, Note_on_c, 0, 62, 0
2, 9912, Note_on_c, 0, 60, 78
2, 9924, Note_on_c, 0, 60, 0
2, 9924, Note_on_c, 0, 59, 78
2, 9936, Note_on_c, 0, 59, 0
2, 9936, Note_on_c, 0, 60, 78
2, 9948, Note_on_c, 0, 60, 0
2, 9948, Note_on_c, 0, 55, 78
2, 9960, Note_on_c, 0, 55, 0
2, 9960, Note_on_c, 0, 63, 78
2, 9972, Note_on_c, 0, 63, 0
2, 9972, Note_on_c, 0, 60, 78
2, 9984, Note_on_c, 0, 60, 0
2, 9984, Note_on_c, 0, 67, 78
2, 9996, Note_on_c, 0, 67, 0
2, 9996, Note_on_c, 0, 63, 78
2, 10008, Note_on_c, 0, 63, 0
2, 10008, Note_on_c, 0, 72, 78
2, 10020, Note_on_c, 0, 72, 0
2, 10020, Note_on_c, 0, 67, 78
2, 10032, Note_on_c, 0, 67, 0
2, 10032, Note_on_c, 0, 75, 78
2, 10044, Note_on_c, 0, 75, 0
2, 10044, Note_on_c, 0, 72, 78
2, 10056, Note_on_c, 0, 72, 0
2, 10056, Note_on_c, 0, 79, 78
2, 10068, Note_on_c, 0, 79, 0
2, 10068, Note_on_c, 0, 75, 78
2, 10080, Note_on_c, 0, 75, 0
2, 10080, Note_on_c, 0, 84, 78
2, 10114, Note_on_c, 0, 84, 0
2, 10116, Note_on_c, 0, 79, 78
2, 10128, Note_on_c, 0, 79, 0
2, 10128, Note_on_c, 0, 84, 78
2, 10140, Note_on_c, 0, 84, 0
2, 10140, Note_on_c, 0, 79, 78
2, 10152, Note_on_c, 0, 79, 0
2, 10152, Note_on_c, 0, 84, 78
2, 10164, Note_on_c, 0, 84, 0
2, 10164, Note_on_c, 0, 79, 78
2, 10176, Note_on_c, 0, 79, 0
2, 10176, Note_on_c, 0, 84, 85
2, 10188, Note_on_c, 0, 84, 0
2, 10188, Note_on_c, 0, 79, 85
2, 10200, Note_on_c, 0, 79, 0
2, 10200, Note_on_c, 0, 84, 85
2, 10212, Note_on_c, 0, 84, 0
2, 10212, Note_on_c, 0, 79, 85
2, 10224, Note_on_c, 0, 79, 0
2, 10224, Note_on_c, 0, 82, 85
2, 10269, Note_on_c, 0, 82, 0
2, 10272, Note_on_c, 0, 80, 85
2, 10278, Note_on_c, 0, 80, 0
2, 10278, Note_on_c, 0, 82, 85
2, 10284, Note_on_c, 0, 82, 0
2, 10284, Note_on_c, 0, 80, 85
2, 10318, Note_on_c, 0, 80, 0
2, 10320, Note_on_c, 0, 80, 85
2, 10326, Note_on_c, 0, 80, 0
2, 10326, Note_on_c, 0, 79, 85
2, 10332, Note_on_c, 0, 79, 0
2, 10332, Note_on_c, 0, 77, 85
2, 10338, Note_on_c, 0, 77, 0
2, 10338, Note_on_c, 0, 79, 85
2, 10344, Note_on_c, 0, 79, 0
2, 10344, Note_on_c, 0, 79, 85
2, 10354, Note_on_c, 0, 79, 0
2, 10356, Note_on_c, 0, 80, 85
2, 10368, Note_on_c, 0, 80, 0
2, 10368, Note_on_c, 0, 79, 85
2, 10413, Note_on_c, 0, 79, 0
2, 10416, Note_on_c, 0, 77, 85
2, 10422, Note_on_c, 0, 77, 0
2, 10422, Note_on_c, 0, 79, 85
2, 10428, Note_on_c, 0, 79, 0
2, 10428, Note_on_c, 0, 77, 85
2, 10439, Note_on_c, 0, 77, 0
2, 10440, Note_on_c, 0, 75, 85
2, 10452, Note_on_c, 0, 75, 0
2, 10452, Note_on_c, 0, 74, 85
2, 10464, Note_on_c, 0, 74, 0
2, 10464, Note_on_c, 0, 77, 85
2, 10476, Note_on_c, 0, 77, 0
2, 10476, Note_on_c, 0, 75, 85
2, 10488, Note_on_c, 0, 75, 0
2, 10488, Note_on_c, 0, 74, 85
2, 10500, Note_on_c, 0, 74, 0
2, 10500, Note_on_c, 0, 72, 85
2, 10512, Note_on_c, 0, 72, 0
2, 10512, Note_on_c, 0, 79, 85
2, 10512, Note_on_c, 0, 71, 85
2, 10557, Note_on_c, 0, 79, 0
2, 10557, Note_on_c, 0, 71, 0
2, 10632, Note_on_c, 0, 71, 78
2, 10644, Note_on_c, 0, 71, 0
2, 10644, Note_on_c, 0, 74, 78
2, 10656, Note_on_c, 0, 74, 0
2, 10656, Note_on_c, 0, 77, 78
2, 10656, Note_on_c, 0, 74, 78
2, 10723, Note_on_c, 0, 77, 0
2, 10723, Note_on_c, 0, 74, 0
2, 10728, Note_on_c, 0, 75, 78
2, 10728, Note_on_c, 0, 72, 78
2, 10751, Note_on_c, 0, 75, 0
2, 10751, Note_on_c, 0, 72, 0
2, 10752, Note_on_c, 0, 74, 78
2, 10752, Note_on_c, 0, 71, 78
2, 10797, Note_on_c, 0, 74, 0
2, 10797, Note_on_c, 0, 71, 0
2, 10800, Note_on_c, 0, 79, 78
2, 10800, Note_on_c, 0, 75, 78
2, 10867, Note_on_c, 0, 79, 0
2, 10867, Note_on_c, 0, 75, 0
2, 10872, Note_on_c, 0, 77, 78
2, 10872, Note_on_c, 0, 74, 78
2, 10895, Note_on_c, 0, 77, 0
2, 10895, Note_on_c, 0, 74, 0
2, 10896, Note_on_c, 0, 75, 78
2, 10896, Note_on_c, 0, 72, 78
2, 10941, Note_on_c, 0, 75, 0
2, 10941, Note_on_c, 0, 72, 0
2, 10956, Note_on_c, 0, 73, 78
2, 10968, Note_on_c, 0, 73, 0
2, 10968, Note_on_c, 0, 72, 78
2, 10980, Note_on_c, 0, 72, 0
2, 10980, Note_on_c, 0, 73, 78
2, 10992, Note_on_c, 0, 73, 0
2, 10992, Note_on_c, 0, 75, 78
2, 11004, Note_on_c, 0, 75, 0
2, 11004, Note_on_c, 0, 73, 78
2, 11016, Note_on_c, 0, 73, 0
2, 11016, Note_on_c, 0, 77, 78
2, 11028, Note_on_c, 0, 77, 0
2, 11028, Note_on_c, 0, 75, 78
2, 11040, Note_on_c, 0, 75, 0
2, 11040, Note_on_c, 0, 79, 78
2, 11052, Note_on_c, 0, 79, 0
2, 11052, Note_on_c, 0, 77, 78
2, 11064, Note_on_c, 0, 77, 0
2, 11064, Note_on_c, 0, 75, 78
2, 11076, Note_on_c, 0, 75, 0
2, 11076, Note_on_c, 0, 73, 78
2, 11088, Note_on_c, 0, 73, 0
2, 11088, Note_on_c, 0, 72, 78
2, 11133, Note_on_c, 0, 72, 0
2, 11136, Note_on_c, 0, 74, 78
2, 11142, Note_on_c, 0, 74, 0
2, 11142, Note_on_c, 0, 72, 78
2, 11148, Note_on_c, 0, 72, 0
2, 11148, Note_on_c, 0, 71, 78
2, 11154, Note_on_c, 0, 71, 0
2, 11154, Note_on_c, 0, 72, 78
2, 11160, Note_on_c, 0, 72, 0
2, 11160, Note_on_c, 0, 74, 78
2, 11183, Note_on_c, 0, 74, 0
2, 11184, Note_on_c, 0, 71, 78
2, 11229, Note_on_c, 0, 71, 0
2, 11232, Note_on_c, 0, 79, 78
2, 11299, Note_on_c, 0, 79, 0
2, 11304, Note_on_c, 0, 77, 78
2, 11316, Note_on_c, 0, 77, 0
2, 11316, Note_on_c, 0, 75, 78
2, 11328, Note_on_c, 0, 75, 0
2, 11328, Note_on_c, 0, 74, 78
2, 11340, Note_on_c, 0, 74, 0
2, 11340, Note_on_c, 0, 72, 78
2, 11352, Note_on_c, 0, 72, 0
2, 11352, Note_on_c, 0, 71, 78
2, 11364, Note_on_c, 0, 71, 0
2, 11364, Note_on_c, 0, 72, 78
2, 11376, Note_on_c, 0, 72, 0
2, 11376, Note_on_c, 0, 72, 78
2, 11443, Note_on_c, 0, 72, 0
2, 11448, Note_on_c, 0, 70, 78
2, 11460, Note_on_c, 0, 70, 0
2, 11460, Note_on_c, 0, 68, 78
2, 11472, Note_on_c, 0, 68, 0
2, 11472, Note_on_c, 0, 67, 78
2, 11484, Note_on_c, 0, 67, 0
2, 11484, Note_on_c, 0, 68, 78
2, 11496, Note_on_c, 0, 68, 0
2, 11496, Note_on_c, 0, 67, 78
2, 11508, Note_on_c, 0, 67, 0
2, 11508, Note_on_c, 0, 68, 78
2, 11520, Note_on_c, 0, 68, 0
2, 11520, Note_on_c, 0, 68, 78
2, 11587, Note_on_c, 0, 68, 0
2, 11592, Note_on_c, 0, 67, 78
2, 11615, Note_on_c, 0, 67, 0
2, 11616, Note_on_c, 0, 65, 78
2, 11661, Note_on_c, 0, 65, 0
2, 11664, Note_on_c, 0, 65, 78
2, 11753, Note_on_c, 0, 65, 0
2, 11760, Note_on_c, 0, 63, 78
2, 11805, Note_on_c, 0, 63, 0
2, 11808, Note_on_c, 0, 62, 78
2, 11875, Note_on_c, 0, 62, 0
2, 11880, Note_on_c, 0, 63, 78
2, 11903, Note_on_c, 0, 63, 0
2, 11904, Note_on_c, 0, 65, 78
2, 11949, Note_on_c, 0, 65, 0
2, 11952, Note_on_c, 0, 60, 78
2, 12019, Note_on_c, 0, 60, 0
2, 12024, Note_on_c, 0, 62, 78
2, 12047, Note_on_c, 0, 62, 0
2, 12048, Note_on_c, 0, 59, 78
2, 12093, Note_on_c, 0, 59, 0
2, 12096, Note_on_c, 0, 60, 78
2, 12229, Note_on_c, 0, 60, 0
2, 12288, Note_on_c, 0, 63, 85
2, 12300, Note_on_c, 0, 63, 0
2, 12300, Note_on_c, 0, 62, 85
2, 12312, Note_on_c, 0, 62, 0
2, 12312, Note_on_c, 0, 65, 85
2, 12324, Note_on_c, 0, 65, 0
2, 12324, Note_on_c, 0, 63, 85
2, 12336, Note_on_c, 0, 63, 0
2, 12336, Note_on_c, 0, 67, 85
2, 12348, Note_on_c, 0, 67, 0
2, 12348, Note_on_c, 0, 65, 85
2, 12360, Note_on_c, 0, 65, 0
2, 12360, Note_on_c, 0, 63, 85
2, 12372, Note_on_c, 0, 63, 0
2, 12372, Note_on_c, 0, 62, 85
2, 12384, Note_on_c, 0, 62, 0
2, 12384, Note_on_c, 0, 60, 85
2, 12396, Note_on_c, 0, 60, 0
2, 12396, Note_on_c, 0, 59, 85
2, 12408, Note_on_c, 0, 59, 0
2, 12408, Note_on_c, 0, 62, 85
2, 12420, Note_on_c, 0, 62, 0
2, 12420, Note_on_c, 0, 60, 85
2, 12432, Note_on_c, 0, 60, 0
2, 12432, Note_on_c, 0, 63, 85
2, 12444, Note_on_c, 0, 63, 0
2, 12444, Note_on_c, 0, 62, 85
2, 12456, Note_on_c, 0, 62, 0
2, 12456, Note_on_c, 0, 60, 85
2, 12468, Note_on_c, 0, 60, 0
2, 12468, Note_on_c, 0, 58, 85
2, 12480, Note_on_c, 0, 58, 0
2, 12480, Note_on_c, 0, 56, 85
2, 12492, Note_on_c, 0, 56, 0
2, 12492, Note_on_c, 0, 55, 85
2, 12504, Note_on_c, 0, 55, 0
2, 12504, Note_on_c, 0, 58, 85
2, 12516, Note_on_c, 0, 58, 0
2, 12516, Note_on_c, 0, 56, 85
2, 12528, Note_on_c, 0, 56, 0
2, 12528, Note_on_c, 0, 60, 85
2, 12540, Note_on_c, 0, 60, 0
2, 12540, Note_on_c, 0, 58, 85
2, 12552, Note_on_c, 0, 58, 0
2, 12552, Note_on_c, 0, 56, 85
2, 12564, Note_on_c, 0, 56, 0
2, 12564, Note_on_c, 0, 55, 85
2, 12576, Note_on_c, 0, 55, 0
2, 12576, Note_on_c, 0, 54, 85
2, 12665, Note_on_c, 0, 54, 0
2, 12672, Note_on_c, 0, 55, 85
2, 12805, Note_on_c, 0, 55, 0
2, 12816, Note_on_c, 0, 55, 85
2, 12949, Note_on_c, 0, 55, 0
2, 12960, Note_on_c, 0, 55, 85
2, 12960, Note_on_c, 0, 50, 85
2, 12960, Note_on_c, 0, 47, 85
2, 13005, Note_on_c, 0, 55, 0
2, 13005, Note_on_c, 0, 50, 0
2, 13005, Note_on_c, 0, 47, 0
2, 13008, Note_on_c, 0, 55, 85
2, 13008, Note_on_c, 0, 50, 85
2, 13008, Note_on_c, 0, 47, 85
2, 13053, Note_on_c, 0, 55, 0
2, 13053, Note_on_c, 0, 50, 0
2, 13053, Note_on_c, 0, 47, 0
2, 13056, Note_on_c, 0, 55, 85
2, 13056, Note_on_c, 0, 50, 85
2, 13056, Note_on_c, 0, 47, 85
2, 13101, Note_on_c, 0, 55, 0
2, 13101, Note_on_c, 0, 50, 0
2, 13101, Note_on_c, 0, 47, 0
2, 13104, Note_on_c, 0, 55, 85
2, 13104, Note_on_c, 0, 47, 85
2, 13237, Note_on_c, 0, 55, 0
2, 13237, Note_on_c, 0, 47, 0
2, 13440, Note_on_c, 0, 58, 78
2, 13529, Note_on_c, 0, 58, 0
2, 13536, Note_on_c, 0, 63, 78
2, 13548, Note_on_c, 0, 63, 0
2, 13548, Note_on_c, 0, 62, 78
2, 13560, Note_on_c, 0, 62, 0
2, 13560, Note_on_c, 0, 63, 78
2, 13632, Note_on_c, 0, 63, 0
2, 13632, Note_on_c, 0, 67, 78
2, 13721, Note_on_c, 0, 67, 0
2, 13728, Note_on_c, 0, 60, 78
2, 13817, Note_on_c, 0, 60, 0
2, 13824, Note_on_c, 0, 68, 78
2, 13872, Note_on_c, 0, 68, 0
2, 13872, Note_on_c, 0, 65, 78
2, 13917, Note_on_c, 0, 65, 0
2, 13920, Note_on_c, 0, 63, 78
2, 13932, Note_on_c, 0, 63, 0
2, 13932, Note_on_c, 0, 65, 78
2, 13944, Note_on_c, 0, 65, 0
2, 13944, Note_on_c, 0, 63, 78
2, 13968, Note_on_c, 0, 63, 0
2, 13968, Note_on_c, 0, 62, 78
2, 14013, Note_on_c, 0, 62, 0
2, 14016, Note_on_c, 0, 72, 78
2, 14064, Note_on_c, 0, 72, 0
2, 14064, Note_on_c, 0, 70, 78
2, 14109, Note_on_c, 0, 70, 0
2, 14112, Note_on_c, 0, 70, 78
2, 14201, Note_on_c, 0, 70, 0
2, 14208, Note_on_c, 0, 68, 78
2, 14220, Note_on_c, 0, 68, 0
2, 14220, Note_on_c, 0, 70, 78
2, 14232, Note_on_c, 0, 70, 0
2, 14232, Note_on_c, 0, 68, 78
2, 14256, Note_on_c, 0, 68, 0
2, 14256, Note_on_c, 0, 67, 78
2, 14301, Note_on_c, 0, 67, 0
2, 14304, Note_on_c, 0, 65, 78
2, 14316, Note_on_c, 0, 65, 0
2, 14316, Note_on_c, 0, 67, 78
2, 14328, Note_on_c, 0, 67, 0
2, 14328, Note_on_c, 0, 65, 78
2, 14352, Note_on_c, 0, 65, 0
2, 14352, Note_on_c, 0, 63, 78
2, 14397, Note_on_c, 0, 63, 0
2, 14400, Note_on_c, 0, 63, 78
2, 14496, Note_on_c, 0, 63, 0
2, 14496, Note_on_c, 0, 62, 78
2, 14508, Note_on_c, 0, 62, 0
2, 14508, Note_on_c, 0, 63, 78
2, 14520, Note_on_c, 0, 63, 0
2, 14520, Note_on_c, 0, 62, 78
2, 14585, Note_on_c, 0, 62, 0
2, 14592, Note_on_c, 0, 58, 78
2, 14681, Note_on_c, 0, 58, 0
2, 14688, Note_on_c, 0, 63, 78
2, 14700, Note_on_c, 0, 63, 0
2, 14700, Note_on_c, 0, 62, 78
2, 14712, Note_on_c, 0, 62, 0
2, 14712, Note_on_c, 0, 63, 78
2, 14777, Note_on_c, 0, 63, 0
2, 14784, Note_on_c, 0, 67, 78
2, 14873, Note_on_c, 0, 67, 0
2, 14880, Note_on_c, 0, 60, 78
2, 14969, Note_on_c, 0, 60, 0
2, 14976, Note_on_c, 0, 68, 78
2, 15024, Note_on_c, 0, 68, 0
2, 15024, Note_on_c, 0, 65, 78
2, 15069, Note_on_c, 0, 65, 0
2, 15072, Note_on_c, 0, 63, 78
2, 15084, Note_on_c, 0, 63, 0
2, 15084, Note_on_c, 0, 65, 78
2, 15096, Note_on_c, 0, 65, 0
2, 15096, Note_on_c, 0, 63, 78
2, 15120, Note_on_c, 0, 63, 0
2, 15120, Note_on_c, 0, 62, 78
2, 15165, Note_on_c, 0, 62, 0
2, 15168, Note_on_c, 0, 74, 78
2, 15216, Note_on_c, 0, 74, 0
2, 15216, Note_on_c, 0, 70, 78
2, 15261, Note_on_c, 0, 70, 0
2, 15264, Note_on_c, 0, 75, 78
2, 15312, Note_on_c, 0, 75, 0
2, 15312, Note_on_c, 0, 70, 78
2, 15357, Note_on_c, 0, 70, 0
2, 15360, Note_on_c, 0, 72, 78
2, 15408, Note_on_c, 0, 72, 0
2, 15408, Note_on_c, 0, 65, 78
2, 15453, Note_on_c, 0, 65, 0
2, 15456, Note_on_c, 0, 68, 78
2, 15504, Note_on_c, 0, 68, 0
2, 15504, Note_on_c, 0, 62, 78
2, 15549, Note_on_c, 0, 62, 0
2, 15552, Note_on_c, 0, 63, 78
2, 15641, Note_on_c, 0, 63, 0
2, 15744, Note_on_c, 0, 58, 78
2, 15833, Note_on_c, 0, 58, 0
2, 15840, Note_on_c, 0, 63, 78
2, 15852, Note_on_c, 0, 63, 0
2, 15852, Note_on_c, 0, 62, 78
2, 15864, Note_on_c, 0, 62, 0
2, 15864, Note_on_c, 0, 63, 78
2, 15936, Note_on_c, 0, 63, 0
2, 15936, Note_on_c, 0, 67, 78
2, 16025, Note_on_c, 0, 67, 0
2, 16032, Note_on_c, 0, 60, 78
2, 16121, Note_on_c, 0, 60, 0
2, 16128, Note_on_c, 0, 68, 78
2, 16176, Note_on_c, 0, 68, 0
2, 16176, Note_on_c, 0, 65, 78
2, 16221, Note_on_c, 0, 65, 0
2, 16224, Note_on_c, 0, 63, 78
2, 16236, Note_on_c, 0, 63, 0
2, 16236, Note_on_c, 0, 65, 78
2, 16248, Note_on_c, 0, 65, 0
2, 16248, Note_on_c, 0, 63, 78
2, 16272, Note_on_c, 0, 63, 0
2, 16272, Note_on_c, 0, 62, 78
2, 16317, Note_on_c, 0, 62, 0
2, 16320, Note_on_c, 0, 72, 78
2, 16368, Note_on_c, 0, 72, 0
2, 16368, Note_on_c, 0, 70, 78
2, 16413, Note_on_c, 0, 70, 0
2, 16416, Note_on_c, 0, 70, 78
2, 16505, Note_on_c, 0, 70, 0
2, 16512, Note_on_c, 0, 68, 78
2, 16524, Note_on_c, 0, 68, 0
2, 16524, Note_on_c, 0, 70, 78
2, 16536, Note_on_c, 0, 70, 0
2, 16536, Note_on_c, 0, 68, 78
2, 16560, Note_on_c, 0, 68, 0
2, 16560, Note_on_c, 0, 67, 78
2, 16605, Note_on_c, 0, 67, 0
2, 16608, Note_on_c, 0, 65, 78
2, 16620, Note_on_c, 0, 65, 0
2, 16620, Note_on_c, 0, 67, 78
2, 16632, Note_on_c, 0, 67, 0
2, 16632, Note_on_c, 0, 65, 78
2, 16656, Note_on_c, 0, 65, 0
2, 16656, Note_on_c, 0, 63, 78
2, 16701, Note_on_c, 0, 63, 0
2, 16704, Note_on_c, 0, 63, 78
2, 16800, Note_on_c, 0, 63, 0
2, 16800, Note_on_c, 0, 62, 78
2, 16812, Note_on_c, 0, 62, 0
2, 16812, Note_on_c, 0, 63, 78
2, 16824, Note_on_c, 0, 63, 0
2, 16824, Note_on_c, 0, 62, 78
2, 16889, Note_on_c, 0, 62, 0
2, 16896, Note_on_c, 0, 58, 78
2, 16985, Note_on_c, 0, 58, 0
2, 16992, Note_on_c, 0, 63, 78
2, 17004, Note_on_c, 0, 63, 0
2, 17004, Note_on_c, 0, 62, 78
2, 17016, Note_on_c, 0, 62, 0
2, 17016, Note_on_c, 0, 63, 78
2, 17081, Note_on_c, 0, 63, 0
2, 17088, Note_on_c, 0, 67, 78
2, 17177, Note_on_c, 0, 67, 0
2, 17184, Note_on_c, 0, 60, 78
2, 17273, Note_on_c, 0, 60, 0
2, 17280, Note_on_c, 0, 68, 78
2, 17328, Note_on_c, 0, 68, 0
2, 17328, Note_on_c, 0, 65, 78
2, 17373, Note_on_c, 0, 65, 0
2, 17376, Note_on_c, 0, 63, 78
2, 17388, Note_on_c, 0, 63, 0
2, 17388, Note_on_c, 0, 65, 78
2, 17400, Note_on_c, 0, 65, 0
2, 17400, Note_on_c, 0, 63, 78
2, 17424, Note_on_c, 0, 63, 0
2, 17424, Note_on_c, 0, 62, 78
2, 17469, Note_on_c, 0, 62, 0
2, 17472, Note_on_c, 0, 74, 78
2, 17520, Note_on_c, 0, 74, 0
2, 17520, Note_on_c, 0, 70, 78
2, 17565, Note_on_c, 0, 70, 0
2, 17568, Note_on_c, 0, 75, 78
2, 17616, Note_on_c, 0, 75, 0
2, 17616, Note_on_c, 0, 70, 78
2, 17661, Note_on_c, 0, 70, 0
2, 17664, Note_on_c, 0, 72, 78
2, 17712, Note_on_c, 0, 72, 0
2, 17712, Note_on_c, 0, 65, 78
2, 17757, Note_on_c, 0, 65, 0
2, 17760, Note_on_c, 0, 68, 78
2, 17808, Note_on_c, 0, 68, 0
2, 17808, Note_on_c, 0, 62, 78
2, 17853, Note_on_c, 0, 62, 0
2, 17856, Note_on_c, 0, 63, 78
2, 17945, Note_on_c, 0, 63, 0
2, 18048, Note_on_c, 0, 79, 78
2, 18096, Note_on_c, 0, 79, 0
2, 18096, Note_on_c, 0, 72, 78
2, 18141, Note_on_c, 0, 72, 0
2, 18144, Note_on_c, 0, 72, 78
2, 18192, Note_on_c, 0, 72, 0
2, 18192, Note_on_c, 0, 71, 78
2, 18237, Note_on_c, 0, 71, 0
2, 18240, Note_on_c, 0, 77, 78
2, 18288, Note_on_c, 0, 77, 0
2, 18288, Note_on_c, 0, 74, 78
2, 18333, Note_on_c, 0, 74, 0
2, 18336, Note_on_c, 0, 75, 78
2, 18384, Note_on_c, 0, 75, 0
2, 18384, Note_on_c, 0, 72, 78
2, 18429, Note_on_c, 0, 72, 0
2, 18432, Note_on_c, 0, 70, 78
2, 18480, Note_on_c, 0, 70, 0
2, 18480, Note_on_c, 0, 69, 78
2, 18525, Note_on_c, 0, 69, 0
2, 18528, Note_on_c, 0, 75, 78
2, 18576, Note_on_c, 0, 75, 0
2, 18576, Note_on_c, 0, 72, 78
2, 18621, Note_on_c, 0, 72, 0
2, 18624, Note_on_c, 0, 74, 78
2, 18672, Note_on_c, 0, 74, 0
2, 18672, Note_on_c, 0, 70, 78
2, 18717, Note_on_c, 0, 70, 0
2, 18720, Note_on_c, 0, 69, 78
2, 18768, Note_on_c, 0, 69, 0
2, 18768, Note_on_c, 0, 67, 78
2, 18813, Note_on_c, 0, 67, 0
2, 18816, Note_on_c, 0, 79, 78
2, 18864, Note_on_c, 0, 79, 0
2, 18864, Note_on_c, 0, 75, 78
2, 18909, Note_on_c, 0, 75, 0
2, 18912, Note_on_c, 0, 74, 78
2, 18960, Note_on_c, 0, 74, 0
2, 18960, Note_on_c, 0, 72, 78
2, 19005, Note_on_c, 0, 72, 0
2, 19008, Note_on_c, 0, 70, 78
2, 19104, Note_on_c, 0, 70, 0
2, 19104, Note_on_c, 0, 69, 78
2, 19116, Note_on_c, 0, 69, 0
2, 19116, Note_on_c, 0, 70, 78
2, 19128, Note_on_c, 0, 70, 0
2, 19128, Note_on_c, 0, 69, 78
2, 19193, Note_on_c, 0, 69, 0
2, 19200, Note_on_c, 0, 77, 78
2, 19289, Note_on_c, 0, 77, 0
2, 19296, Note_on_c, 0, 82, 78
2, 19341, Note_on_c, 0, 82, 0
2, 19344, Note_on_c, 0, 84, 78
2, 19389, Note_on_c, 0, 84, 0
2, 19392, Note_on_c, 0, 86, 78
2, 19437, Note_on_c, 0, 86, 0
2, 19440, Note_on_c, 0, 82, 78
2, 19485, Note_on_c, 0, 82, 0
2, 19488, Note_on_c, 0, 81, 78
2, 19533, Note_on_c, 0, 81, 0
2, 19536, Note_on_c, 0, 79, 78
2, 19581, Note_on_c, 0, 79, 0
2, 19584, Note_on_c, 0, 87, 78
2, 19629, Note_on_c, 0, 87, 0
2, 19632, Note_on_c, 0, 84, 78
2, 19677, Note_on_c, 0, 84, 0
2, 19680, Note_on_c, 0, 82, 78
2, 19725, Note_on_c, 0, 82, 0
2, 19728, Note_on_c, 0, 81, 78
2, 19773, Note_on_c, 0, 81, 0
2, 19776, Note_on_c, 0, 89, 78
2, 19824, Note_on_c, 0, 89, 0
2, 19824, Note_on_c, 0, 81, 78
2, 19869, Note_on_c, 0, 81, 0
2, 19872, Note_on_c, 0, 82, 78
2, 19920, Note_on_c, 0, 82, 0
2, 19920, Note_on_c, 0, 77, 78
2, 19965, Note_on_c, 0, 77, 0
2, 19968, Note_on_c, 0, 79, 78
2, 20016, Note_on_c, 0, 79, 0
2, 20016, Note_on_c, 0, 72, 78
2, 20061, Note_on_c, 0, 72, 0
2, 20064, Note_on_c, 0, 75, 78
2, 20112, Note_on_c, 0, 75, 0
2, 20112, Note_on_c, 0, 69, 78
2, 20157, Note_on_c, 0, 69, 0
2, 20160, Note_on_c, 0, 72, 78
2, 20256, Note_on_c, 0, 72, 0
2, 20256, Note_on_c, 0, 70, 78
2, 20268, Note_on_c, 0, 70, 0
2, 20268, Note_on_c, 0, 72, 78
2, 20280, Note_on_c, 0, 72, 0
2, 20280, Note_on_c, 0, 70, 78
2, 20433, Note_on_c, 0, 70, 0
2, 20448, Note_on_c, 0, 70, 78
2, 20460, Note_on_c, 0, 70, 0
2, 20460, Note_on_c, 0, 72, 78
2, 20472, Note_on_c, 0, 72, 0
2, 20472, Note_on_c, 0, 70, 78
2, 20484, Note_on_c, 0, 70, 0
2, 20484, Note_on_c, 0, 72, 78
2, 20496, Note_on_c, 0, 72, 0
2, 20496, Note_on_c, 0, 70, 78
2, 20508, Note_on_c, 0, 70, 0
2, 20508, Note_on_c, 0, 72, 78
2, 20515, Note_on_c, 0, 72, 0
2, 20520, Note_on_c, 0, 69, 78
2, 20532, Note_on_c, 0, 69, 0
2, 20532, Note_on_c, 0, 70, 78
2, 20544, Note_on_c, 0, 70, 0
2, 20544, Note_on_c, 0, 79, 78
2, 20592, Note_on_c, 0, 79, 0
2, 20592, Note_on_c, 0, 70, 78
2, 20637, Note_on_c, 0, 70, 0
2, 20640, Note_on_c, 0, 70, 78
2, 20688, Note_on_c, 0, 70, 0
2, 20688, Note_on_c, 0, 69, 78
2, 20733, Note_on_c, 0, 69, 0
2, 20736, Note_on_c, 0, 68, 78
2, 20748, Note_on_c, 0, 68, 0
2, 20748, Note_on_c, 0, 70, 78
2, 20760, Note_on_c, 0, 70, 0
2, 20760, Note_on_c, 0, 68, 78
2, 20772, Note_on_c, 0, 68, 0
2, 20772, Note_on_c, 0, 70, 78
2, 20784, Note_on_c, 0, 70, 0
2, 20784, Note_on_c, 0, 68, 78
2, 20796, Note_on_c, 0, 68, 0
2, 20796, Note_on_c, 0, 70, 78
2, 20803, Note_on_c, 0, 70, 0
2, 20808, Note_on_c, 0, 67, 78
2, 20820, Note_on_c, 0, 67, 0
2, 20820, Note_on_c, 0, 68, 78
2, 20832, Note_on_c, 0, 68, 0
2, 20832, Note_on_c, 0, 77, 78
2, 20880, Note_on_c, 0, 77, 0
2, 20880, Note_on_c, 0, 68, 78
2, 20925, Note_on_c, 0, 68, 0
2, 20928, Note_on_c, 0, 68, 78
2, 20976, Note_on_c, 0, 68, 0
2, 20976, Note_on_c, 0, 67, 78
2, 21021, Note_on_c, 0, 67, 0
2, 21024, Note_on_c, 0, 67, 78
2, 21036, Note_on_c, 0, 67, 0
2, 21036, Note_on_c, 0, 68, 78
2, 21048, Note_on_c, 0, 68, 0
2, 21048, Note_on_c, 0, 67, 78
2, 21072, Note_on_c, 0, 67, 0
2, 21072, Note_on_c, 0, 65, 78
2, 21117, Note_on_c, 0, 65, 0
2, 21120, Note_on_c, 0, 72, 78
2, 21168, Note_on_c, 0, 72, 0
2, 21168, Note_on_c, 0, 68, 78
2, 21213, Note_on_c, 0, 68, 0
2, 21216, Note_on_c, 0, 65, 78
2, 21264, Note_on_c, 0, 65, 0
2, 21264, Note_on_c, 0, 63, 78
2, 21309, Note_on_c, 0, 63, 0
2, 21312, Note_on_c, 0, 63, 78
2, 21408, Note_on_c, 0, 63, 0
2, 21408, Note_on_c, 0, 62, 78
2, 21420, Note_on_c, 0, 62, 0
2, 21420, Note_on_c, 0, 63, 78
2, 21432, Note_on_c, 0, 63, 0
2, 21432, Note_on_c, 0, 62, 78
2, 21497, Note_on_c, 0, 62, 0
2, 21504, Note_on_c, 0, 58, 78
2, 21593, Note_on_c, 0, 58, 0
2, 21600, Note_on_c, 0, 63, 78
2, 21733, Note_on_c, 0, 63, 0
2, 21744, Note_on_c, 0, 67, 78
2, 21833, Note_on_c, 0, 67, 0
2, 21840, Note_on_c, 0, 60, 78
2, 21933, Note_on_c, 0, 60, 0
2, 21936, Note_on_c, 0, 68, 78
2, 22025, Note_on_c, 0, 68, 0
2, 22032, Note_on_c, 0, 62, 78
2, 22121, Note_on_c, 0, 62, 0
2, 22128, Note_on_c, 0, 72, 78
2, 22221, Note_on_c, 0, 72, 0
2, 22224, Note_on_c, 0, 70, 78
2, 22269, Note_on_c, 0, 70, 0
2, 22272, Note_on_c, 0, 68, 78
2, 22317, Note_on_c, 0, 68, 0
2, 22320, Note_on_c, 0, 67, 78
2, 22365, Note_on_c, 0, 67, 0
2, 22368, Note_on_c, 0, 65, 78
2, 22413, Note_on_c, 0, 65, 0
2, 22416, Note_on_c, 0, 63, 78
2, 22461, Note_on_c, 0, 63, 0
2, 22464, Note_on_c, 0, 63, 78
2, 22553, Note_on_c, 0, 63, 0
2, 22560, Note_on_c, 0, 62, 78
2, 22572, Note_on_c, 0, 62, 0
2, 22572, Note_on_c, 0, 63, 78
2, 22584, Note_on_c, 0, 63, 0
2, 22584, Note_on_c, 0, 62, 78
2, 22649, Note_on_c, 0, 62, 0
2, 22656, Note_on_c, 0, 58, 78
2, 22676, Note_on_c, 0, 58, 0
2, 22704, Note_on_c, 0, 58, 78
2, 22752, Note_on_c, 0, 58, 0
2, 22752, Note_on_c, 0, 63, 78
2, 22772, Note_on_c, 0, 63, 0
2, 22800, Note_on_c, 0, 63, 78
2, 22848, Note_on_c, 0, 63, 0
2, 22848, Note_on_c, 0, 67, 78
2, 22868, Note_on_c, 0, 67, 0
2, 22896, Note_on_c, 0, 67, 78
2, 22944, Note_on_c, 0, 67, 0
2, 22944, Note_on_c, 0, 60, 78
2, 22964, Note_on_c, 0, 60, 0
2, 22992, Note_on_c, 0, 60, 78
2, 23040, Note_on_c, 0, 60, 0
2, 23040, Note_on_c, 0, 68, 78
2, 23060, Note_on_c, 0, 68, 0
2, 23088, Note_on_c, 0, 68, 78
2, 23136, Note_on_c, 0, 68, 0
2, 23136, Note_on_c, 0, 62, 78
2, 23156, Note_on_c, 0, 62, 0
2, 23184, Note_on_c, 0, 62, 78
2, 23229, Note_on_c, 0, 62, 0
2, 23232, Note_on_c, 0, 74, 78
2, 23280, Note_on_c, 0, 74, 0
2, 23280, Note_on_c, 0, 70, 78
2, 23325, Note_on_c, 0, 70, 0
2, 23328, Note_on_c, 0, 75, 78
2, 23376, Note_on_c, 0, 75, 0
2, 23376, Note_on_c, 0, 70, 78
2, 23421, Note_on_c, 0, 70, 0
2, 23424, Note_on_c, 0, 72, 78
2, 23472, Note_on_c, 0, 72, 0
2, 23472, Note_on_c, 0, 65, 78
2, 23517, Note_on_c, 0, 65, 0
2, 23520, Note_on_c, 0, 68, 78
2, 23568, Note_on_c, 0, 68, 0
2, 23568, Note_on_c, 0, 62, 78
2, 23613, Note_on_c, 0, 62, 0
2, 23616, Note_on_c, 0, 63, 78
2, 23705, Note_on_c, 0, 63, 0
2, 23808, Note_on_c, 0, 79, 78
2, 23856, Note_on_c, 0, 79, 0
2, 23856, Note_on_c, 0, 72, 78
2, 23901, Note_on_c, 0, 72, 0
2, 23904, Note_on_c, 0, 72, 78
2, 23952, Note_on_c, 0, 72, 0
2, 23952, Note_on_c, 0, 71, 78
2, 23997, Note_on_c, 0, 71, 0
2, 24000, Note_on_c, 0, 77, 78
2, 24048, Note_on_c, 0, 77, 0
2, 24048, Note_on_c, 0, 74, 78
2, 24093, Note_on_c, 0, 74, 0
2, 24096, Note_on_c, 0, 75, 78
2, 24144, Note_on_c, 0, 75, 0
2, 24144, Note_on_c, 0, 72, 78
2, 24189, Note_on_c, 0, 72, 0
2, 24192, Note_on_c, 0, 70, 78
2, 24240, Note_on_c, 0, 70, 0
2, 24240, Note_on_c, 0, 69, 78
2, 24285, Note_on_c, 0, 69, 0
2, 24288, Note_on_c, 0, 75, 78
2, 24336, Note_on_c, 0, 75, 0
2, 24336, Note_on_c, 0, 72, 78
2, 24381, Note_on_c, 0, 72, 0
2, 24384, Note_on_c, 0, 74, 78
2, 24432, Note_on_c, 0, 74, 0
2, 24432, Note_on_c, 0, 70, 78
2, 24477, Note_on_c, 0, 70, 0
2, 24480, Note_on_c, 0, 69, 78
2, 24528, Note_on_c, 0, 69, 0
2, 24528, Note_on_c, 0, 67, 78
2, 24573, Note_on_c, 0, 67, 0
2, 24576, Note_on_c, 0, 79, 78
2, 24624, Note_on_c, 0, 79, 0
2, 24624, Note_on_c, 0, 75, 78
2, 24669, Note_on_c, 0, 75, 0
2, 24672, Note_on_c, 0, 74, 78
2, 24720, Note_on_c, 0, 74, 0
2, 24720, Note_on_c, 0, 72, 78
2, 24765, Note_on_c, 0, 72, 0
2, 24768, Note_on_c, 0, 70, 78
2, 24864, Note_on_c, 0, 70, 0
2, 24864, Note_on_c, 0, 69, 78
2, 24876, Note_on_c, 0, 69, 0
2, 24876, Note_on_c, 0, 70, 78
2, 24888, Note_on_c, 0, 70, 0
2, 24888, Note_on_c, 0, 69, 78
2, 24953, Note_on_c, 0, 69, 0
2, 24960, Note_on_c, 0, 77, 78
2, 25049, Note_on_c, 0, 77, 0
2, 25056, Note_on_c, 0, 82, 78
2, 25101, Note_on_c, 0, 82, 0
2, 25104, Note_on_c, 0, 84, 78
2, 25149, Note_on_c, 0, 84, 0
2, 25152, Note_on_c, 0, 86, 78
2, 25197, Note_on_c, 0, 86, 0
2, 25200, Note_on_c, 0, 82, 78
2, 25245, Note_on_c, 0, 82, 0
2, 25248, Note_on_c, 0, 81, 78
2, 25293, Note_on_c, 0, 81, 0
2, 25296, Note_on_c, 0, 79, 78
2, 25341, Note_on_c, 0, 79, 0
2, 25344, Note_on_c, 0, 87, 78
2, 25389, Note_on_c, 0, 87, 0
2, 25392, Note_on_c, 0, 84, 78
2, 25437, Note_on_c, 0, 84, 0
2, 25440, Note_on_c, 0, 82, 78
2, 25485, Note_on_c, 0, 82, 0
2, 25488, Note_on_c, 0, 81, 78
2, 25533, Note_on_c, 0, 81, 0
2, 25536, Note_on_c, 0, 89, 78
2, 25584, Note_on_c, 0, 89, 0
2, 25584, Note_on_c, 0, 81, 78
2, 25629, Note_on_c, 0, 81, 0
2, 25632, Note_on_c, 0, 82, 78
2, 25680, Note_on_c, 0, 82, 0
2, 25680, Note_on_c, 0, 77, 78
2, 25725, Note_on_c, 0, 77, 0
2, 25728, Note_on_c, 0, 79, 78
2, 25776, Note_on_c, 0, 79, 0
2, 25776, Note_on_c, 0, 72, 78
2, 25821, Note_on_c, 0, 72, 0
2, 25824, Note_on_c, 0, 75, 78
2, 25872, Note_on_c, 0, 75, 0
2, 25872, Note_on_c, 0, 69, 78
2, 25917, Note_on_c, 0, 69, 0
2, 25920, Note_on_c, 0, 72, 78
2, 26016, Note_on_c, 0, 72, 0
2, 26016, Note_on_c, 0, 70, 78
2, 26028, Note_on_c, 0, 70, 0
2, 26028, Note_on_c, 0, 72, 78
2, 26040, Note_on_c, 0, 72, 0
2, 26040, Note_on_c, 0, 70, 78
2, 26193, Note_on_c, 0, 70, 0
2, 26208, Note_on_c, 0, 70, 78
2, 26220, Note_on_c, 0, 70, 0
2, 26220, Note_on_c, 0, 72, 78
2, 26232, Note_on_c, 0, 72, 0
2, 26232, Note_on_c, 0, 70, 78
2, 26244, Note_on_c, 0, 70, 0
2, 26244, Note_on_c, 0, 72, 78
2, 26256, Note_on_c, 0, 72, 0
2, 26256, Note_on_c, 0, 70, 78
2, 26268, Note_on_c, 0, 70, 0
2, 26268, Note_on_c, 0, 72, 78
2, 26275, Note_on_c, 0, 72, 0
2, 26280, Note_on_c, 0, 69, 78
2, 26292, Note_on_c, 0, 69, 0
2, 26292, Note_on_c, 0, 70, 78
2, 26304, Note_on_c, 0, 70, 0
2, 26304, Note_on_c, 0, 79, 78
2, 26352, Note_on_c, 0, 79, 0
2, 26352, Note_on_c, 0, 70, 78
2, 26397, Note_on_c, 0, 70, 0
2, 26400, Note_on_c, 0, 70, 78
2, 26448, Note_on_c, 0, 70, 0
2, 26448, Note_on_c, 0, 69, 78
2, 26493, Note_on_c, 0, 69, 0
2, 26496, Note_on_c, 0, 68, 78
2, 26508, Note_on_c, 0, 68, 0
2, 26508, Note_on_c, 0, 70, 78
2, 26520, Note_on_c, 0, 70, 0
2, 26520, Note_on_c, 0, 68, 78
2, 26532, Note_on_c, 0, 68, 0
2, 26532, Note_on_c, 0, 70, 78
2, 26544, Note_on_c, 0, 70, 0
2, 26544, Note_on_c, 0, 68, 78
2, 26556, Note_on_c, 0, 68, 0
2, 26556, Note_on_c, 0, 70, 78
2, 26563, Note_on_c, 0, 70, 0
2, 26568, Note_on_c, 0, 67, 78
2, 26580, Note_on_c, 0, 67, 0
2, 26580, Note_on_c, 0, 68, 78
2, 26592, Note_on_c, 0, 68, 0
2, 26592, Note_on_c, 0, 77, 78
2, 26640, Note_on_c, 0, 77, 0
2, 26640, Note_on_c, 0, 68, 78
2, 26685, Note_on_c, 0, 68, 0
2, 26688, Note_on_c, 0, 68, 78
2, 26736, Note_on_c, 0, 68, 0
2, 26736, Note_on_c, 0, 67, 78
2, 26781, Note_on_c, 0, 67, 0
2, 26784, Note_on_c, 0, 67, 78
2, 26796, Note_on_c, 0, 67, 0
2, 26796, Note_on_c, 0, 68, 78
2, 26808, Note_on_c, 0, 68, 0
2, 26808, Note_on_c, 0, 67, 78
2, 26832, Note_on_c, 0, 67, 0
2, 26832, Note_on_c, 0, 65, 78
2, 26877, Note_on_c, 0, 65, 0
2, 26880, Note_on_c, 0, 72, 78
2, 26928, Note_on_c, 0, 72, 0
2, 26928, Note_on_c, 0, 68, 78
2, 26973, Note_on_c, 0, 68, 0
2, 26976, Note_on_c, 0, 65, 78
2, 27024, Note_on_c, 0, 65, 0
2, 27024, Note_on_c, 0, 63, 78
2, 27069, Note_on_c, 0, 63, 0
2, 27072, Note_on_c, 0, 63, 78
2, 27168, Note_on_c, 0, 63, 0
2, 27168, Note_on_c, 0, 62, 78
2, 27180, Note_on_c, 0, 62, 0
2, 27180, Note_on_c, 0, 63, 78
2, 27192, Note_on_c, 0, 63, 0
2, 27192, Note_on_c, 0, 62, 78
2, 27257, Note_on_c, 0, 62, 0
2, 27264, Note_on_c, 0, 58, 78
2, 27353, Note_on_c, 0, 58, 0
2, 27360, Note_on_c, 0, 63, 78
2, 27493, Note_on_c, 0, 63, 0
2, 27504, Note_on_c, 0, 67, 78
2, 27593, Note_on_c, 0, 67, 0
2, 27600, Note_on_c, 0, 60, 78
2, 27693, Note_on_c, 0, 60, 0
2, 27696, Note_on_c, 0, 68, 78
2, 27785, Note_on_c, 0, 68, 0
2, 27792, Note_on_c, 0, 62, 78
2, 27881, Note_on_c, 0, 62, 0
2, 27888, Note_on_c, 0, 72, 78
2, 27981, Note_on_c, 0, 72, 0
2, 27984, Note_on_c, 0, 70, 78
2, 28029, Note_on_c, 0, 70, 0
2, 28032, Note_on_c, 0, 68, 78
2, 28077, Note_on_c, 0, 68, 0
2, 28080, Note_on_c, 0, 67, 78
2, 28125, Note_on_c, 0, 67, 0
2, 28128, Note_on_c, 0, 65, 78
2, 28173, Note_on_c, 0, 65, 0
2, 28176, Note_on_c, 0, 63, 78
2, 28221, Note_on_c, 0, 63, 0
2, 28224, Note_on_c, 0, 63, 78
2, 28313, Note_on_c, 0, 63, 0
2, 28320, Note_on_c, 0, 62, 78
2, 28332, Note_on_c, 0, 62, 0
2, 28332, Note_on_c, 0, 63, 78
2, 28344, Note_on_c, 0, 63, 0
2, 28344, Note_on_c, 0, 62, 78
2, 28409, Note_on_c, 0, 62, 0
2, 28416, Note_on_c, 0, 58, 78
2, 28436, Note_on_c, 0, 58, 0
2, 28464, Note_on_c, 0, 58, 78
2, 28512, Note_on_c, 0, 58, 0
2, 28512, Note_on_c, 0, 63, 78
2, 28532, Note_on_c, 0, 63, 0
2, 28560, Note_on_c, 0, 63, 78
2, 28608, Note_on_c, 0, 63, 0
2, 28608, Note_on_c, 0, 67, 78
2, 28628, Note_on_c, 0, 67, 0
2, 28656, Note_on_c, 0, 67, 78
2, 28704, Note_on_c, 0, 67, 0
2, 28704, Note_on_c, 0, 60, 78
2, 28724, Note_on_c, 0, 60, 0
2, 28752, Note_on_c, 0, 60, 78
2, 28800, Note_on_c, 0, 60, 0
2, 28800, Note_on_c, 0, 68, 78
2, 28820, Note_on_c, 0, 68, 0
2, 28848, Note_on_c, 0, 68, 78
2, 28896, Note_on_c, 0, 68, 0
2, 28896, Note_on_c, 0, 62, 78
2, 28916, Note_on_c, 0, 62, 0
2, 28944, Note_on_c, 0, 62, 78
2, 28989, Note_on_c, 0, 62, 0
2, 28992, Note_on_c, 0, 74, 78
2, 29040, Note_on_c, 0, 74, 0
2, 29040, Note_on_c, 0, 70, 78
2, 29085, Note_on_c, 0, 70, 0
2, 29088, Note_on_c, 0, 75, 78
2, 29136, Note_on_c, 0, 75, 0
2, 29136, Note_on_c, 0, 70, 78
2, 29181, Note_on_c, 0, 70, 0
2, 29184, Note_on_c, 0, 72, 78
2, 29232, Note_on_c, 0, 72, 0
2, 29232, Note_on_c, 0, 65, 78
2, 29277, Note_on_c, 0, 65, 0
2, 29280, Note_on_c, 0, 68, 78
2, 29328, Note_on_c, 0, 68, 0
2, 29328, Note_on_c, 0, 62, 78
2, 29373, Note_on_c, 0, 62, 0
2, 29376, Note_on_c, 0, 63, 78
2, 29465, Note_on_c, 0, 63, 0
2, 29568, Note_on_c, 0, 63, 78
2, 29657, Note_on_c, 0, 63, 0
2, 29664, Note_on_c, 0, 72, 78
2, 29841, Note_on_c, 0, 72, 0
2, 29856, Note_on_c, 0, 75, 78
2, 29879, Note_on_c, 0, 75, 0
2, 29880, Note_on_c, 0, 73, 78
2, 29903, Note_on_c, 0, 73, 0
2, 29904, Note_on_c, 0, 72, 78
2, 29927, Note_on_c, 0, 72, 0
2, 29928, Note_on_c, 0, 73, 78
2, 29951, Note_on_c, 0, 73, 0
2, 29952, Note_on_c, 0, 70, 78
2, 29991, Note_on_c, 0, 70, 0
2, 30048, Note_on_c, 0, 70, 78
2, 30087, Note_on_c, 0, 70, 0
2, 30144, Note_on_c, 0, 73, 78
2, 30167, Note_on_c, 0, 73, 0
2, 30168, Note_on_c, 0, 72, 78
2, 30191, Note_on_c, 0, 72, 0
2, 30192, Note_on_c, 0, 70, 78
2, 30215, Note_on_c, 0, 70, 0
2, 30216, Note_on_c, 0, 72, 78
2, 30239, Note_on_c, 0, 72, 0
2, 30240, Note_on_c, 0, 68, 78
2, 30329, Note_on_c, 0, 68, 0
2, 30336, Note_on_c, 0, 77, 78
2, 30425, Note_on_c, 0, 77, 0
2, 30432, Note_on_c, 0, 75, 78
2, 30521, Note_on_c, 0, 75, 0
2, 30528, Note_on_c, 0, 73, 78
2, 30540, Note_on_c, 0, 73, 0
2, 30540, Note_on_c, 0, 75, 78
2, 30552, Note_on_c, 0, 75, 0
2, 30552, Note_on_c, 0, 73, 78
2, 30617, Note_on_c, 0, 73, 0
2, 30624, Note_on_c, 0, 72, 78
2, 30713, Note_on_c, 0, 72, 0
2, 30720, Note_on_c, 0, 63, 78
2, 30809, Note_on_c, 0, 63, 0
2, 30816, Note_on_c, 0, 72, 78
2, 30993, Note_on_c, 0, 72, 0
2, 31008, Note_on_c, 0, 75, 78
2, 31031, Note_on_c, 0, 75, 0
2, 31032, Note_on_c, 0, 73, 78
2, 31055, Note_on_c, 0, 73, 0
2, 31056, Note_on_c, 0, 72, 78
2, 31079, Note_on_c, 0, 72, 0
2, 31080, Note_on_c, 0, 73, 78
2, 31103, Note_on_c, 0, 73, 0
2, 31104, Note_on_c, 0, 70, 78
2, 31143, Note_on_c, 0, 70, 0
2, 31200, Note_on_c, 0, 70, 78
2, 31239, Note_on_c, 0, 70, 0
2, 31296, Note_on_c, 0, 73, 78
2, 31319, Note_on_c, 0, 73, 0
2, 31320, Note_on_c, 0, 72, 78
2, 31343, Note_on_c, 0, 72, 0
2, 31344, Note_on_c, 0, 70, 78
2, 31367, Note_on_c, 0, 70, 0
2, 31368, Note_on_c, 0, 72, 78
2, 31391, Note_on_c, 0, 72, 0
2, 31392, Note_on_c, 0, 68, 78
2, 31481, Note_on_c, 0, 68, 0
2, 31488, Note_on_c, 0, 80, 78
2, 31577, Note_on_c, 0, 80, 0
2, 31584, Note_on_c, 0, 74, 78
2, 31584, Note_on_c, 0, 68, 78
2, 31623, Note_on_c, 0, 74, 0
2, 31623, Note_on_c, 0, 68, 0
2, 31680, Note_on_c, 0, 75, 78
2, 31680, Note_on_c, 0, 67, 78
2, 31769, Note_on_c, 0, 75, 0
2, 31769, Note_on_c, 0, 67, 0
2, 31872, Note_on_c, 0, 63, 78
2, 31961, Note_on_c, 0, 63, 0
2, 31968, Note_on_c, 0, 72, 78
2, 32145, Note_on_c, 0, 72, 0
2, 32160, Note_on_c, 0, 75, 78
2, 32183, Note_on_c, 0, 75, 0
2, 32184, Note_on_c, 0, 73, 78
2, 32207, Note_on_c, 0, 73, 0
2, 32208, Note_on_c, 0, 72, 78
2, 32231, Note_on_c, 0, 72, 0
2, 32232, Note_on_c, 0, 73, 78
2, 32255, Note_on_c, 0, 73, 0
2, 32256, Note_on_c, 0, 70, 78
2, 32295, Note_on_c, 0, 70, 0
2, 32352, Note_on_c, 0, 70, 78
2, 32391, Note_on_c, 0, 70, 0
2, 32448, Note_on_c, 0, 73, 78
2, 32471, Note_on_c, 0, 73, 0
2, 32472, Note_on_c, 0, 72, 78
2, 32495, Note_on_c, 0, 72, 0
2, 32496, Note_on_c, 0, 70, 78
2, 32519, Note_on_c, 0, 70, 0
2, 32520, Note_on_c, 0, 72, 78
2, 32543, Note_on_c, 0, 72, 0
2, 32544, Note_on_c, 0, 68, 78
2, 32633, Note_on_c, 0, 68, 0
2, 32640, Note_on_c, 0, 77, 78
2, 32729, Note_on_c, 0, 77, 0
2, 32736, Note_on_c, 0, 75, 78
2, 32825, Note_on_c, 0, 75, 0
2, 32832, Note_on_c, 0, 73, 78
2, 32844, Note_on_c, 0, 73, 0
2, 32844, Note_on_c, 0, 75, 78
2, 32856, Note_on_c, 0, 75, 0
2, 32856, Note_on_c, 0, 73, 78
2, 32921, Note_on_c, 0, 73, 0
2, 32928, Note_on_c, 0, 72, 78
2, 33017, Note_on_c, 0, 72, 0
2, 33024, Note_on_c, 0, 63, 78
2, 33113, Note_on_c, 0, 63, 0
2, 33120, Note_on_c, 0, 72, 78
2, 33297, Note_on_c, 0, 72, 0
2, 33312, Note_on_c, 0, 75, 78
2, 33335, Note_on_c, 0, 75, 0
2, 33336, Note_on_c, 0, 73, 78
2, 33359, Note_on_c, 0, 73, 0
2, 33360, Note_on_c, 0, 72, 78
2, 33383, Note_on_c, 0, 72, 0
2, 33384, Note_on_c, 0, 73, 78
2, 33407, Note_on_c, 0, 73, 0
2, 33408, Note_on_c, 0, 70, 78
2, 33447, Note_on_c, 0, 70, 0
2, 33504, Note_on_c, 0, 70, 78
2, 33543, Note_on_c, 0, 70, 0
2, 33600, Note_on_c, 0, 73, 78
2, 33623, Note_on_c, 0, 73, 0
2, 33624, Note_on_c, 0, 72, 78
2, 33647, Note_on_c, 0, 72, 0
2, 33648, Note_on_c, 0, 70, 78
2, 33671, Note_on_c, 0, 70, 0
2, 33672, Note_on_c, 0, 72, 78
2, 33695, Note_on_c, 0, 72, 0
2, 33696, Note_on_c, 0, 68, 78
2, 33785, Note_on_c, 0, 68, 0
2, 33792, Note_on_c, 0, 80, 78
2, 33881, Note_on_c, 0, 80, 0
2, 33888, Note_on_c, 0, 74, 78
2, 33888, Note_on_c, 0, 68, 78
2, 33927, Note_on_c, 0, 74, 0
2, 33927, Note_on_c, 0, 68, 0
2, 33984, Note_on_c, 0, 75, 78
2, 33984, Note_on_c, 0, 67, 78
2, 34023, Note_on_c, 0, 75, 0
2, 34023, Note_on_c, 0, 67, 0
2, 34176, Note_on_c, 0, 77, 78
2, 34199, Note_on_c, 0, 77, 0
2, 34200, Note_on_c, 0, 75, 78
2, 34223, Note_on_c, 0, 75, 0
2, 34224, Note_on_c, 0, 74, 78
2, 34247, Note_on_c, 0, 74, 0
2, 34248, Note_on_c, 0, 75, 78
2, 34271, Note_on_c, 0, 75, 0
2, 34272, Note_on_c, 0, 79, 78
2, 34368, Note_on_c, 0, 79, 0
2, 34368, Note_on_c, 0, 75, 78
2, 34457, Note_on_c, 0, 75, 0
2, 34464, Note_on_c, 0, 82, 78
2, 34487, Note_on_c, 0, 82, 0
2, 34488, Note_on_c, 0, 80, 78
2, 34511, Note_on_c, 0, 80, 0
2, 34512, Note_on_c, 0, 79, 78
2, 34535, Note_on_c, 0, 79, 0
2, 34536, Note_on_c, 0, 80, 78
2, 34559, Note_on_c, 0, 80, 0
2, 34560, Note_on_c, 0, 82, 78
2, 34649, Note_on_c, 0, 82, 0
2, 34656, Note_on_c, 0, 75, 78
2, 34745, Note_on_c, 0, 75, 0
2, 34752, Note_on_c, 0, 85, 78
2, 34775, Note_on_c, 0, 85, 0
2, 34776, Note_on_c, 0, 84, 78
2, 34799, Note_on_c, 0, 84, 0
2, 34800, Note_on_c, 0, 82, 78
2, 34823, Note_on_c, 0, 82, 0
2, 34824, Note_on_c, 0, 84, 78
2, 34847, Note_on_c, 0, 84, 0
2, 34848, Note_on_c, 0, 85, 78
2, 34937, Note_on_c, 0, 85, 0
2, 34944, Note_on_c, 0, 82, 78
2, 35011, Note_on_c, 0, 82, 0
2, 35016, Note_on_c, 0, 85, 78
2, 35039, Note_on_c, 0, 85, 0
2, 35040, Note_on_c, 0, 84, 78
2, 35107, Note_on_c, 0, 84, 0
2, 35112, Note_on_c, 0, 80, 78
2, 35135, Note_on_c, 0, 80, 0
2, 35136, Note_on_c, 0, 87, 78
2, 35175, Note_on_c, 0, 87, 0
2, 35328, Note_on_c, 0, 63, 78
2, 35417, Note_on_c, 0, 63, 0
2, 35424, Note_on_c, 0, 72, 78
2, 35601, Note_on_c, 0, 72, 0
2, 35616, Note_on_c, 0, 75, 78
2, 35639, Note_on_c, 0, 75, 0
2, 35640, Note_on_c, 0, 73, 78
2, 35663, Note_on_c, 0, 73, 0
2, 35664, Note_on_c, 0, 72, 78
2, 35687, Note_on_c, 0, 72, 0
2, 35688, Note_on_c, 0, 73, 78
2, 35711, Note_on_c, 0, 73, 0
2, 35712, Note_on_c, 0, 70, 78
2, 35751, Note_on_c, 0, 70, 0
2, 35808, Note_on_c, 0, 70, 78
2, 35847, Note_on_c, 0, 70, 0
2, 35904, Note_on_c, 0, 73, 78
2, 35927, Note_on_c, 0, 73, 0
2, 35928, Note_on_c, 0, 72, 78
2, 35951, Note_on_c, 0, 72, 0
2, 35952, Note_on_c, 0, 70, 78
2, 35975, Note_on_c, 0, 70, 0
2, 35976, Note_on_c, 0, 72, 78
2, 35999, Note_on_c, 0, 72, 0
2, 36000, Note_on_c, 0, 68, 78
2, 36089, Note_on_c, 0, 68, 0
2, 36096, Note_on_c, 0, 77, 78
2, 36185, Note_on_c, 0, 77, 0
2, 36192, Note_on_c, 0, 75, 78
2, 36281, Note_on_c, 0, 75, 0
2, 36288, Note_on_c, 0, 75, 78
2, 36377, Note_on_c, 0, 75, 0
2, 36384, Note_on_c, 0, 74, 78
2, 36473, Note_on_c, 0, 74, 0
2, 36480, Note_on_c, 0, 79, 78
2, 36503, Note_on_c, 0, 79, 0
2, 36504, Note_on_c, 0, 77, 78
2, 36527, Note_on_c, 0, 77, 0
2, 36528, Note_on_c, 0, 75, 78
2, 36551, Note_on_c, 0, 75, 0
2, 36552, Note_on_c, 0, 77, 78
2, 36575, Note_on_c, 0, 77, 0
2, 36576, Note_on_c, 0, 70, 78
2, 36665, Note_on_c, 0, 70, 0
2, 36672, Note_on_c, 0, 75, 78
2, 36761, Note_on_c, 0, 75, 0
2, 36768, Note_on_c, 0, 73, 78
2, 36857, Note_on_c, 0, 73, 0
2, 36864, Note_on_c, 0, 73, 78
2, 36953, Note_on_c, 0, 73, 0
2, 36960, Note_on_c, 0, 72, 78
2, 37049, Note_on_c, 0, 72, 0
2, 37056, Note_on_c, 0, 73, 78
2, 37079, Note_on_c, 0, 73, 0
2, 37080, Note_on_c, 0, 72, 78
2, 37103, Note_on_c, 0, 72, 0
2, 37104, Note_on_c, 0, 70, 78
2, 37127, Note_on_c, 0, 70, 0
2, 37128, Note_on_c, 0, 72, 78
2, 37151, Note_on_c, 0, 72, 0
2, 37152, Note_on_c, 0, 73, 78
2, 37241, Note_on_c, 0, 73, 0
2, 37248, Note_on_c, 0, 75, 78
2, 37337, Note_on_c, 0, 75, 0
2, 37344, Note_on_c, 0, 79, 78
2, 37367, Note_on_c, 0, 79, 0
2, 37368, Note_on_c, 0, 77, 78
2, 37391, Note_on_c, 0, 77, 0
2, 37392, Note_on_c, 0, 75, 78
2, 37415, Note_on_c, 0, 75, 0
2, 37416, Note_on_c, 0, 77, 78
2, 37439, Note_on_c, 0, 77, 0
2, 37440, Note_on_c, 0, 75, 78
2, 37529, Note_on_c, 0, 75, 0
2, 37536, Note_on_c, 0, 80, 78
2, 37625, Note_on_c, 0, 80, 0
2, 37632, Note_on_c, 0, 79, 78
2, 37655, Note_on_c, 0, 79, 0
2, 37656, Note_on_c, 0, 77, 78
2, 37679, Note_on_c, 0, 77, 0
2, 37680, Note_on_c, 0, 75, 78
2, 37703, Note_on_c, 0, 75, 0
2, 37704, Note_on_c, 0, 77, 78
2, 37727, Note_on_c, 0, 77, 0
2, 37728, Note_on_c, 0, 75, 78
2, 37817, Note_on_c, 0, 75, 0
2, 37824, Note_on_c, 0, 68, 78
2, 37913, Note_on_c, 0, 68, 0
2, 37920, Note_on_c, 0, 67, 78
2, 37932, Note_on_c, 0, 67, 0
2, 37932, Note_on_c, 0, 68, 78
2, 37944, Note_on_c, 0, 68, 0
2, 37944, Note_on_c, 0, 67, 78
2, 38009, Note_on_c, 0, 67, 0
2, 38016, Note_on_c, 0, 68, 78
2, 38105, Note_on_c, 0, 68, 0
2, 38208, Note_on_c, 0, 77, 78
2, 38231, Note_on_c, 0, 77, 0
2, 38232, Note_on_c, 0, 75, 78
2, 38255, Note_on_c, 0, 75, 0
2, 38256, Note_on_c, 0, 74, 78
2, 38279, Note_on_c, 0, 74, 0
2, 38280, Note_on_c, 0, 75, 78
2, 38303, Note_on_c, 0, 75, 0
2, 38304, Note_on_c, 0, 79, 78
2, 38400, Note_on_c, 0, 79, 0
2, 38400, Note_on_c, 0, 75, 78
2, 38489, Note_on_c, 0, 75, 0
2, 38496, Note_on_c, 0, 82, 78
2, 38519, Note_on_c, 0, 82, 0
2, 38520, Note_on_c, 0, 80, 78
2, 38543, Note_on_c, 0, 80, 0
2, 38544, Note_on_c, 0, 79, 78
2, 38567, Note_on_c, 0, 79, 0
2, 38568, Note_on_c, 0, 80, 78
2, 38591, Note_on_c, 0, 80, 0
2, 38592, Note_on_c, 0, 82, 78
2, 38681, Note_on_c, 0, 82, 0
2, 38688, Note_on_c, 0, 75, 78
2, 38777, Note_on_c, 0, 75, 0
2, 38784, Note_on_c, 0, 85, 78
2, 38807, Note_on_c, 0, 85, 0
2, 38808, Note_on_c, 0, 84, 78
2, 38831, Note_on_c, 0, 84, 0
2, 38832, Note_on_c, 0, 82, 78
2, 38855, Note_on_c, 0, 82, 0
2, 38856, Note_on_c, 0, 84, 78
2, 38879, Note_on_c, 0, 84, 0
2, 38880, Note_on_c, 0, 85, 78
2, 38969, Note_on_c, 0, 85, 0
2, 38976, Note_on_c, 0, 82, 78
2, 39043, Note_on_c, 0, 82, 0
2, 39048, Note_on_c, 0, 85, 78
2, 39071, Note_on_c, 0, 85, 0
2, 39072, Note_on_c, 0, 84, 78
2, 39139, Note_on_c, 0, 84, 0
2, 39144, Note_on_c, 0, 80, 78
2, 39167, Note_on_c, 0, 80, 0
2, 39168, Note_on_c, 0, 87, 78
2, 39207, Note_on_c, 0, 87, 0
2, 39360, Note_on_c, 0, 63, 78
2, 39449, Note_on_c, 0, 63, 0
2, 39456, Note_on_c, 0, 72, 78
2, 39633, Note_on_c, 0, 72, 0
2, 39648, Note_on_c, 0, 75, 78
2, 39671, Note_on_c, 0, 75, 0
2, 39672, Note_on_c, 0, 73, 78
2, 39695, Note_on_c, 0, 73, 0
2, 39696, Note_on_c, 0, 72, 78
2, 39719, Note_on_c, 0, 72, 0
2, 39720, Note_on_c, 0, 73, 78
2, 39743, Note_on_c, 0, 73, 0
2, 39744, Note_on_c, 0, 70, 78
2, 39783, Note_on_c, 0, 70, 0
2, 39840, Note_on_c, 0, 70, 78
2, 39879, Note_on_c, 0, 70, 0
2, 39936, Note_on_c, 0, 73, 78
2, 39959, Note_on_c, 0, 73, 0
2, 39960, Note_on_c, 0, 72, 78
2, 39983, Note_on_c, 0, 72, 0
2, 39984, Note_on_c, 0, 70, 78
2, 40007, Note_on_c, 0, 70, 0
2, 40008, Note_on_c, 0, 72, 78
2, 40031, Note_on_c, 0, 72, 0
2, 40032, Note_on_c, 0, 68, 78
2, 40121, Note_on_c, 0, 68, 0
2, 40128, Note_on_c, 0, 77, 78
2, 40217, Note_on_c, 0, 77, 0
2, 40224, Note_on_c, 0, 75, 78
2, 40313, Note_on_c, 0, 75, 0
2, 40320, Note_on_c, 0, 75, 78
2, 40409, Note_on_c, 0, 75, 0
2, 40416, Note_on_c, 0, 74, 78
2, 40505, Note_on_c, 0, 74, 0
2, 40512, Note_on_c, 0, 79, 78
2, 40535, Note_on_c, 0, 79, 0
2, 40536, Note_on_c, 0, 77, 78
2, 40559, Note_on_c, 0, 77, 0
2, 40560, Note_on_c, 0, 75, 78
2, 40583, Note_on_c, 0, 75, 0
2, 40584, Note_on_c, 0, 77, 78
2, 40607, Note_on_c, 0, 77, 0
2, 40608, Note_on_c, 0, 70, 78
2, 40697, Note_on_c, 0, 70, 0
2, 40704, Note_on_c, 0, 75, 78
2, 40793, Note_on_c, 0, 75, 0
2, 40800, Note_on_c, 0, 73, 78
2, 40889, Note_on_c, 0, 73, 0
2, 40896, Note_on_c, 0, 73, 78
2, 40985, Note_on_c, 0, 73, 0
2, 40992, Note_on_c, 0, 72, 78
2, 41081, Note_on_c, 0, 72, 0
2, 41088, Note_on_c, 0, 73, 78
2, 41111, Note_on_c, 0, 73, 0
2, 41112, Note_on_c, 0, 72, 78
2, 41135, Note_on_c, 0, 72, 0
2, 41136, Note_on_c, 0, 70, 78
2, 41159, Note_on_c, 0, 70, 0
2, 41160, Note_on_c, 0, 72, 78
2, 41183, Note_on_c, 0, 72, 0
2, 41184, Note_on_c, 0, 73, 78
2, 41273, Note_on_c, 0, 73, 0
2, 41280, Note_on_c, 0, 75, 78
2, 41369, Note_on_c, 0, 75, 0
2, 41376, Note_on_c, 0, 79, 78
2, 41399, Note_on_c, 0, 79, 0
2, 41400, Note_on_c, 0, 77, 78
2, 41423, Note_on_c, 0, 77, 0
2, 41424, Note_on_c, 0, 75, 78
2, 41447, Note_on_c, 0, 75, 0
2, 41448, Note_on_c, 0, 77, 78
2, 41471, Note_on_c, 0, 77, 0
2, 41472, Note_on_c, 0, 75, 78
2, 41561, Note_on_c, 0, 75, 0
2, 41568, Note_on_c, 0, 80, 78
2, 41657, Note_on_c, 0, 80, 0
2, 41664, Note_on_c, 0, 79, 78
2, 41687, Note_on_c, 0, 79, 0
2, 41688, Note_on_c, 0, 77, 78
2, 41711, Note_on_c, 0, 77, 0
2, 41712, Note_on_c, 0, 75, 78
2, 41735, Note_on_c, 0, 75, 0
2, 41736, Note_on_c, 0, 77, 78
2, 41759, Note_on_c, 0, 77, 0
2, 41760, Note_on_c, 0, 75, 78
2, 41849, Note_on_c, 0, 75, 0
2, 41856, Note_on_c, 0, 68, 78
2, 41945, Note_on_c, 0, 68, 0
2, 41952, Note_on_c, 0, 67, 78
2, 41964, Note_on_c, 0, 67, 0
2, 41964, Note_on_c, 0, 68, 78
2, 41976, Note_on_c, 0, 68, 0
2, 41976, Note_on_c, 0, 67, 78
2, 42041, Note_on_c, 0, 67, 0
2, 42048, Note_on_c, 0, 68, 78
2, 42137, Note_on_c, 0, 68, 0
2, 42240, Note_on_c, 0, 58, 78
2, 42329, Note_on_c, 0, 58, 0
2, 42336, Note_on_c, 0, 63, 78
2, 42348, Note_on_c, 0, 63, 0
2, 42348, Note_on_c, 0, 62, 78
2, 42360, Note_on_c, 0, 62, 0
2, 42360, Note_on_c, 0, 63, 78
2, 42432, Note_on_c, 0, 63, 0
2, 42432, Note_on_c, 0, 67, 78
2, 42521, Note_on_c, 0, 67, 0
2, 42528, Note_on_c, 0, 60, 78
2, 42617, Note_on_c, 0, 60, 0
2, 42624, Note_on_c, 0, 68, 78
2, 42672, Note_on_c, 0, 68, 0
2, 42672, Note_on_c, 0, 65, 78
2, 42717, Note_on_c, 0, 65, 0
2, 42720, Note_on_c, 0, 63, 78
2, 42732, Note_on_c, 0, 63, 0
2, 42732, Note_on_c, 0, 65, 78
2, 42744, Note_on_c, 0, 65, 0
2, 42744, Note_on_c, 0, 63, 78
2, 42768, Note_on_c, 0, 63, 0
2, 42768, Note_on_c, 0, 62, 78
2, 42813, Note_on_c, 0, 62, 0
2, 42816, Note_on_c, 0, 72, 78
2, 42864, Note_on_c, 0, 72, 0
2, 42864, Note_on_c, 0, 70, 78
2, 42909, Note_on_c, 0, 70, 0
2, 42912, Note_on_c, 0, 70, 78
2, 43001, Note_on_c, 0, 70, 0
2, 43008, Note_on_c, 0, 68, 78
2, 43020, Note_on_c, 0, 68, 0
2, 43020, Note_on_c, 0, 70, 78
2, 43032, Note_on_c, 0, 70, 0
2, 43032, Note_on_c, 0, 68, 78
2, 43056, Note_on_c, 0, 68, 0
2, 43056, Note_on_c, 0, 67, 78
2, 43101, Note_on_c, 0, 67, 0
2, 43104, Note_on_c, 0, 65, 78
2, 43116, Note_on_c, 0, 65, 0
2, 43116, Note_on_c, 0, 67, 78
2, 43128, Note_on_c, 0, 67, 0
2, 43128, Note_on_c, 0, 65, 78
2, 43152, Note_on_c, 0, 65, 0
2, 43152, Note_on_c, 0, 63, 78
2, 43197, Note_on_c, 0, 63, 0
2, 43200, Note_on_c, 0, 63, 78
2, 43296, Note_on_c, 0, 63, 0
2, 43296, Note_on_c, 0, 62, 78
2, 43308, Note_on_c, 0, 62, 0
2, 43308, Note_on_c, 0, 63, 78
2, 43320, Note_on_c, 0, 63, 0
2, 43320, Note_on_c, 0, 62, 78
2, 43385, Note_on_c, 0, 62, 0
2, 43392, Note_on_c, 0, 58, 78
2, 43481, Note_on_c, 0, 58, 0
2, 43488, Note_on_c, 0, 63, 78
2, 43500, Note_on_c, 0, 63, 0
2, 43500, Note_on_c, 0, 62, 78
2, 43512, Note_on_c, 0, 62, 0
2, 43512, Note_on_c, 0, 63, 78
2, 43577, Note_on_c, 0, 63, 0
2, 43584, Note_on_c, 0, 67, 78
2, 43673, Note_on_c, 0, 67, 0
2, 43680, Note_on_c, 0, 60, 78
2, 43769, Note_on_c, 0, 60, 0
2, 43776, Note_on_c, 0, 68, 78
2, 43824, Note_on_c, 0, 68, 0
2, 43824, Note_on_c, 0, 65, 78
2, 43869, Note_on_c, 0, 65, 0
2, 43872, Note_on_c, 0, 63, 78
2, 43884, Note_on_c, 0, 63, 0
2, 43884, Note_on_c, 0, 65, 78
2, 43896, Note_on_c, 0, 65, 0
2, 43896, Note_on_c, 0, 63, 78
2, 43920, Note_on_c, 0, 63, 0
2, 43920, Note_on_c, 0, 62, 78
2, 43965, Note_on_c, 0, 62, 0
2, 43968, Note_on_c, 0, 74, 78
2, 44016, Note_on_c, 0, 74, 0
2, 44016, Note_on_c, 0, 70, 78
2, 44061, Note_on_c, 0, 70, 0
2, 44064, Note_on_c, 0, 75, 78
2, 44112, Note_on_c, 0, 75, 0
2, 44112, Note_on_c, 0, 70, 78
2, 44157, Note_on_c, 0, 70, 0
2, 44160, Note_on_c, 0, 72, 78
2, 44208, Note_on_c, 0, 72, 0
2, 44208, Note_on_c, 0, 65, 78
2, 44253, Note_on_c, 0, 65, 0
2, 44256, Note_on_c, 0, 68, 78
2, 44304, Note_on_c, 0, 68, 0
2, 44304, Note_on_c, 0, 62, 78
2, 44349, Note_on_c, 0, 62, 0
2, 44352, Note_on_c, 0, 63, 78
2, 44441, Note_on_c, 0, 63, 0
2, 44544, Note_on_c, 0, 58, 78
2, 44633, Note_on_c, 0, 58, 0
2, 44640, Note_on_c, 0, 63, 78
2, 44652, Note_on_c, 0, 63, 0
2, 44652, Note_on_c, 0, 62, 78
2, 44664, Note_on_c, 0, 62, 0
2, 44664, Note_on_c, 0, 63, 78
2, 44736, Note_on_c, 0, 63, 0
2, 44736, Note_on_c, 0, 67, 78
2, 44825, Note_on_c, 0, 67, 0
2, 44832, Note_on_c, 0, 60, 78
2, 44921, Note_on_c, 0, 60, 0
2, 44928, Note_on_c, 0, 68, 78
2, 44976, Note_on_c, 0, 68, 0
2, 44976, Note_on_c, 0, 65, 78
2, 45021, Note_on_c, 0, 65, 0
2, 45024, Note_on_c, 0, 63, 78
2, 45036, Note_on_c, 0, 63, 0
2, 45036, Note_on_c, 0, 65, 78
2, 45048, Note_on_c, 0, 65, 0
2, 45048, Note_on_c, 0, 63, 78
2, 45072, Note_on_c, 0, 63, 0
2, 45072, Note_on_c, 0, 62, 78
2, 45117, Note_on_c, 0, 62, 0
2, 45120, Note_on_c, 0, 72, 78
2, 45168, Note_on_c, 0, 72, 0
2, 45168, Note_on_c, 0, 70, 78
2, 45213, Note_on_c, 0, 70, 0
2, 45216, Note_on_c, 0, 70, 78
2, 45305, Note_on_c, 0, 70, 0
2, 45312, Note_on_c, 0, 68, 78
2, 45324, Note_on_c, 0, 68, 0
2, 45324, Note_on_c, 0, 70, 78
2, 45336, Note_on_c, 0, 70, 0
2, 45336, Note_on_c, 0, 68, 78
2, 45360, Note_on_c, 0, 68, 0
2, 45360, Note_on_c, 0, 67, 78
2, 45405, Note_on_c, 0, 67, 0
2, 45408, Note_on_c, 0, 65, 78
2, 45420, Note_on_c, 0, 65, 0
2, 45420, Note_on_c, 0, 67, 78
2, 45432, Note_on_c, 0, 67, 0
2, 45432, Note_on_c, 0, 65, 78
2, 45456, Note_on_c, 0, 65, 0
2, 45456, Note_on_c, 0, 63, 78
2, 45501, Note_on_c, 0, 63, 0
2, 45504, Note_on_c, 0, 63, 78
2, 45600, Note_on_c, 0, 63, 0
2, 45600, Note_on_c, 0, 62, 78
2, 45612, Note_on_c, 0, 62, 0
2, 45612, Note_on_c, 0, 63, 78
2, 45624, Note_on_c, 0, 63, 0
2, 45624, Note_on_c, 0, 62, 78
2, 45689, Note_on_c, 0, 62, 0
2, 45696, Note_on_c, 0, 58, 78
2, 45785, Note_on_c, 0, 58, 0
2, 45792, Note_on_c, 0, 63, 78
2, 45804, Note_on_c, 0, 63, 0
2, 45804, Note_on_c, 0, 62, 78
2, 45816, Note_on_c, 0, 62, 0
2, 45816, Note_on_c, 0, 63, 78
2, 45881, Note_on_c, 0, 63, 0
2, 45888, Note_on_c, 0, 67, 78
2, 45977, Note_on_c, 0, 67, 0
2, 45984, Note_on_c, 0, 60, 78
2, 46073, Note_on_c, 0, 60, 0
2, 46080, Note_on_c, 0, 68, 78
2, 46128, Note_on_c, 0, 68, 0
2, 46128, Note_on_c, 0, 65, 78
2, 46173, Note_on_c, 0, 65, 0
2, 46176, Note_on_c, 0, 63, 78
2, 46188, Note_on_c, 0, 63, 0
2, 46188, Note_on_c, 0, 65, 78
2, 46200, Note_on_c, 0, 65, 0
2, 46200, Note_on_c, 0, 63, 78
2, 46224, Note_on_c, 0, 63, 0
2, 46224, Note_on_c, 0, 62, 78
2, 46269, Note_on_c, 0, 62, 0
2, 46272, Note_on_c, 0, 74, 78
2, 46320, Note_on_c, 0, 74, 0
2, 46320, Note_on_c, 0, 70, 78
2, 46365, Note_on_c, 0, 70, 0
2, 46368, Note_on_c, 0, 75, 78
2, 46416, Note_on_c, 0, 75, 0
2, 46416, Note_on_c, 0, 70, 78
2, 46461, Note_on_c, 0, 70, 0
2, 46464, Note_on_c, 0, 72, 78
2, 46512, Note_on_c, 0, 72, 0
2, 46512, Note_on_c, 0, 65, 78
2, 46557, Note_on_c, 0, 65, 0
2, 46560, Note_on_c, 0, 68, 78
2, 46608, Note_on_c, 0, 68, 0
2, 46608, Note_on_c, 0, 62, 78
2, 46653, Note_on_c, 0, 62, 0
2, 46656, Note_on_c, 0, 63, 78
2, 46745, Note_on_c, 0, 63, 0
2, 46848, Note_on_c, 0, 79, 78
2, 46896, Note_on_c, 0, 79, 0
2, 46896, Note_on_c, 0, 72, 78
2, 46941, Note_on_c, 0, 72, 0
2, 46944, Note_on_c, 0, 72, 78
2, 46992, Note_on_c, 0, 72, 0
2, 46992, Note_on_c, 0, 71, 78
2, 47037, Note_on_c, 0, 71, 0
2, 47040, Note_on_c, 0, 77, 78
2, 47088, Note_on_c, 0, 77, 0
2, 47088, Note_on_c, 0, 74, 78
2, 47133, Note_on_c, 0, 74, 0
2, 47136, Note_on_c, 0, 75, 78
2, 47184, Note_on_c, 0, 75, 0
2, 47184, Note_on_c, 0, 72, 78
2, 47229, Note_on_c, 0, 72, 0
2, 47232, Note_on_c, 0, 70, 78
2, 47280, Note_on_c, 0, 70, 0
2, 47280, Note_on_c, 0, 69, 78
2, 47325, Note_on_c, 0, 69, 0
2, 47328, Note_on_c, 0, 75, 78
2, 47376, Note_on_c, 0, 75, 0
2, 47376, Note_on_c, 0, 72, 78
2, 47421, Note_on_c, 0, 72, 0
2, 47424, Note_on_c, 0, 74, 78
2, 47472, Note_on_c, 0, 74, 0
2, 47472, Note_on_c, 0, 70, 78
2, 47517, Note_on_c, 0, 70, 0
2, 47520, Note_on_c, 0, 69, 78
2, 47568, Note_on_c, 0, 69, 0
2, 47568, Note_on_c, 0, 67, 78
2, 47613, Note_on_c, 0, 67, 0
2, 47616, Note_on_c, 0, 79, 78
2, 47664, Note_on_c, 0, 79, 0
2, 47664, Note_on_c, 0, 75, 78
2, 47709, Note_on_c, 0, 75, 0
2, 47712, Note_on_c, 0, 74, 78
2, 47760, Note_on_c, 0, 74, 0
2, 47760, Note_on_c, 0, 72, 78
2, 47805, Note_on_c, 0, 72, 0
2, 47808, Note_on_c, 0, 70, 78
2, 47904, Note_on_c, 0, 70, 0
2, 47904, Note_on_c, 0, 69, 78
2, 47916, Note_on_c, 0, 69, 0
2, 47916, Note_on_c, 0, 70, 78
2, 47928, Note_on_c, 0, 70, 0
2, 47928, Note_on_c, 0, 69, 78
2, 47993, Note_on_c, 0, 69, 0
2, 48000, Note_on_c, 0, 77, 78
2, 48089, Note_on_c, 0, 77, 0
2, 48096, Note_on_c, 0, 82, 78
2, 48141, Note_on_c, 0, 82, 0
2, 48144, Note_on_c, 0, 84, 78
2, 48189, Note_on_c, 0, 84, 0
2, 48192, Note_on_c, 0, 86, 78
2, 48237, Note_on_c, 0, 86, 0
2, 48240, Note_on_c, 0, 82, 78
2, 48285, Note_on_c, 0, 82, 0
2, 48288, Note_on_c, 0, 81, 78
2, 48333, Note_on_c, 0, 81, 0
2, 48336, Note_on_c, 0, 79, 78
2, 48381, Note_on_c, 0, 79, 0
2, 48384, Note_on_c, 0, 87, 78
2, 48429, Note_on_c, 0, 87, 0
2, 48432, Note_on_c, 0, 84, 78
2, 48477, Note_on_c, 0, 84, 0
2, 48480, Note_on_c, 0, 82, 78
2, 48525, Note_on_c, 0, 82, 0
2, 48528, Note_on_c, 0, 81, 78
2, 48573, Note_on_c, 0, 81, 0
2, 48576, Note_on_c, 0, 89, 78
2, 48624, Note_on_c, 0, 89, 0
2, 48624, Note_on_c, 0, 81, 78
2, 48669, Note_on_c, 0, 81, 0
2, 48672, Note_on_c, 0, 82, 78
2, 48720, Note_on_c, 0, 82, 0
2, 48720, Note_on_c, 0, 77, 78
2, 48765, Note_on_c, 0, 77, 0
2, 48768, Note_on_c, 0, 79, 78
2, 48816, Note_on_c, 0, 79, 0
2, 48816, Note_on_c, 0, 72, 78
2, 48861, Note_on_c, 0, 72, 0
2, 48864, Note_on_c, 0, 75, 78
2, 48912, Note_on_c, 0, 75, 0
2, 48912, Note_on_c, 0, 69, 78
2, 48957, Note_on_c, 0, 69, 0
2, 48960, Note_on_c, 0, 72, 78
2, 49056, Note_on_c, 0, 72, 0
2, 49056, Note_on_c, 0, 70, 78
2, 49068, Note_on_c, 0, 70, 0
2, 49068, Note_on_c, 0, 72, 78
2, 49080, Note_on_c, 0, 72, 0
2, 49080, Note_on_c, 0, 70, 78
2, 49233, Note_on_c, 0, 70, 0
2, 49248, Note_on_c, 0, 70, 78
2, 49260, Note_on_c, 0, 70, 0
2, 49260, Note_on_c, 0, 72, 78
2, 49272, Note_on_c, 0, 72, 0
2, 49272, Note_on_c, 0, 70, 78
2, 49284, Note_on_c, 0, 70, 0
2, 49284, Note_on_c, 0, 72, 78
2, 49296, Note_on_c, 0, 72, 0
2, 49296, Note_on_c, 0, 70, 78
2, 49308, Note_on_c, 0, 70, 0
2, 49308, Note_on_c, 0, 72, 78
2, 49315, Note_on_c, 0, 72, 0
2, 49320, Note_on_c, 0, 69, 78
2, 49332, Note_on_c, 0, 69, 0
2, 49332, Note_on_c, 0, 70, 78
2, 49344, Note_on_c, 0, 70, 0
2, 49344, Note_on_c, 0, 79, 78
2, 49389, Note_on_c, 0, 79, 0
2, 49392, Note_on_c, 0, 70, 78
2, 49437, Note_on_c, 0, 70, 0
2, 49440, Note_on_c, 0, 70, 78
2, 49485, Note_on_c, 0, 70, 0
2, 49488, Note_on_c, 0, 69, 78
2, 49533, Note_on_c, 0, 69, 0
2, 49536, Note_on_c, 0, 68, 78
2, 49548, Note_on_c, 0, 68, 0
2, 49548, Note_on_c, 0, 70, 78
2, 49560, Note_on_c, 0, 70, 0
2, 49560, Note_on_c, 0, 68, 78
2, 49572, Note_on_c, 0, 68, 0
2, 49572, Note_on_c, 0, 70, 78
2, 49584, Note_on_c, 0, 70, 0
2, 49584, Note_on_c, 0, 68, 78
2, 49596, Note_on_c, 0, 68, 0
2, 49596, Note_on_c, 0, 70, 78
2, 49603, Note_on_c, 0, 70, 0
2, 49608, Note_on_c, 0, 67, 78
2, 49620, Note_on_c, 0, 67, 0
2, 49620, Note_on_c, 0, 68, 78
2, 49632, Note_on_c, 0, 68, 0
2, 49632, Note_on_c, 0, 77, 78
2, 49677, Note_on_c, 0, 77, 0
2, 49680, Note_on_c, 0, 68, 78
2, 49725, Note_on_c, 0, 68, 0
2, 49728, Note_on_c, 0, 68, 78
2, 49773, Note_on_c, 0, 68, 0
2, 49776, Note_on_c, 0, 67, 78
2, 49821, Note_on_c, 0, 67, 0
2, 49824, Note_on_c, 0, 67, 78
2, 49836, Note_on_c, 0, 67, 0
2, 49836, Note_on_c, 0, 68, 78
2, 49848, Note_on_c, 0, 68, 0
2, 49848, Note_on_c, 0, 67, 78
2, 49872, Note_on_c, 0, 67, 0
2, 49872, Note_on_c, 0, 65, 78
2, 49917, Note_on_c, 0, 65, 0
2, 49920, Note_on_c, 0, 72, 78
2, 49968, Note_on_c, 0, 72, 0
2, 49968, Note_on_c, 0, 68, 78
2, 50013, Note_on_c, 0, 68, 0
2, 50016, Note_on_c, 0, 65, 78
2, 50064, Note_on_c, 0, 65, 0
2, 50064, Note_on_c, 0, 63, 78
2, 50109, Note_on_c, 0, 63, 0
2, 50112, Note_on_c, 0, 63, 78
2, 50208, Note_on_c, 0, 63, 0
2, 50208, Note_on_c, 0, 62, 78
2, 50220, Note_on_c, 0, 62, 0
2, 50220, Note_on_c, 0, 63, 78
2, 50232, Note_on_c, 0, 63, 0
2, 50232, Note_on_c, 0, 62, 78
2, 50297, Note_on_c, 0, 62, 0
2, 50304, Note_on_c, 0, 58, 78
2, 50393, Note_on_c, 0, 58, 0
2, 50400, Note_on_c, 0, 63, 78
2, 50533, Note_on_c, 0, 63, 0
2, 50544, Note_on_c, 0, 67, 78
2, 50633, Note_on_c, 0, 67, 0
2, 50640, Note_on_c, 0, 60, 78
2, 50733, Note_on_c, 0, 60, 0
2, 50736, Note_on_c, 0, 68, 78
2, 50825, Note_on_c, 0, 68, 0
2, 50832, Note_on_c, 0, 62, 78
2, 50921, Note_on_c, 0, 62, 0
2, 50928, Note_on_c, 0, 72, 78
2, 51021, Note_on_c, 0, 72, 0
2, 51024, Note_on_c, 0, 70, 78
2, 51069, Note_on_c, 0, 70, 0
2, 51072, Note_on_c, 0, 68, 78
2, 51117, Note_on_c, 0, 68, 0
2, 51120, Note_on_c, 0, 67, 78
2, 51165, Note_on_c, 0, 67, 0
2, 51168, Note_on_c, 0, 65, 78
2, 51213, Note_on_c, 0, 65, 0
2, 51216, Note_on_c, 0, 63, 78
2, 51261, Note_on_c, 0, 63, 0
2, 51264, Note_on_c, 0, 63, 78
2, 51353, Note_on_c, 0, 63, 0
2, 51360, Note_on_c, 0, 62, 78
2, 51372, Note_on_c, 0, 62, 0
2, 51372, Note_on_c, 0, 63, 78
2, 51384, Note_on_c, 0, 63, 0
2, 51384, Note_on_c, 0, 62, 78
2, 51449, Note_on_c, 0, 62, 0
2, 51456, Note_on_c, 0, 58, 78
2, 51476, Note_on_c, 0, 58, 0
2, 51504, Note_on_c, 0, 58, 78
2, 51552, Note_on_c, 0, 58, 0
2, 51552, Note_on_c, 0, 63, 78
2, 51572, Note_on_c, 0, 63, 0
2, 51600, Note_on_c, 0, 63, 78
2, 51648, Note_on_c, 0, 63, 0
2, 51648, Note_on_c, 0, 67, 78
2, 51668, Note_on_c, 0, 67, 0
2, 51696, Note_on_c, 0, 67, 78
2, 51744, Note_on_c, 0, 67, 0
2, 51744, Note_on_c, 0, 60, 78
2, 51764, Note_on_c, 0, 60, 0
2, 51792, Note_on_c, 0, 60, 78
2, 51840, Note_on_c, 0, 60, 0
2, 51840, Note_on_c, 0, 68, 78
2, 51860, Note_on_c, 0, 68, 0
2, 51888, Note_on_c, 0, 68, 78
2, 51936, Note_on_c, 0, 68, 0
2, 51936, Note_on_c, 0, 62, 78
2, 51956, Note_on_c, 0, 62, 0
2, 51984, Note_on_c, 0, 62, 78
2, 52029, Note_on_c, 0, 62, 0
2, 52032, Note_on_c, 0, 74, 78
2, 52080, Note_on_c, 0, 74, 0
2, 52080, Note_on_c, 0, 70, 78
2, 52125, Note_on_c, 0, 70, 0
2, 52128, Note_on_c, 0, 75, 78
2, 52176, Note_on_c, 0, 75, 0
2, 52176, Note_on_c, 0, 70, 78
2, 52221, Note_on_c, 0, 70, 0
2, 52224, Note_on_c, 0, 72, 78
2, 52272, Note_on_c, 0, 72, 0
2, 52272, Note_on_c, 0, 65, 78
2, 52317, Note_on_c, 0, 65, 0
2, 52320, Note_on_c, 0, 68, 78
2, 52368, Note_on_c, 0, 68, 0
2, 52368, Note_on_c, 0, 62, 78
2, 52413, Note_on_c, 0, 62, 0
2, 52416, Note_on_c, 0, 63, 78
2, 52505, Note_on_c, 0, 63, 0
2, 52608, Note_on_c, 0, 79, 78
2, 52656, Note_on_c, 0, 79, 0
2, 52656, Note_on_c, 0, 72, 78
2, 52701, Note_on_c, 0, 72, 0
2, 52704, Note_on_c, 0, 72, 78
2, 52752, Note_on_c, 0, 72, 0
2, 52752, Note_on_c, 0, 71, 78
2, 52797, Note_on_c, 0, 71, 0
2, 52800, Note_on_c, 0, 77, 78
2, 52848, Note_on_c, 0, 77, 0
2, 52848, Note_on_c, 0, 74, 78
2, 52893, Note_on_c, 0, 74, 0
2, 52896, Note_on_c, 0, 75, 78
2, 52944, Note_on_c, 0, 75, 0
2, 52944, Note_on_c, 0, 72, 78
2, 52989, Note_on_c, 0, 72, 0
2, 52992, Note_on_c, 0, 70, 78
2, 53040, Note_on_c, 0, 70, 0
2, 53040, Note_on_c, 0, 69, 78
2, 53085, Note_on_c, 0, 69, 0
2, 53088, Note_on_c, 0, 75, 78
2, 53136, Note_on_c, 0, 75, 0
2, 53136, Note_on_c, 0, 72, 78
2, 53181, Note_on_c, 0, 72, 0
2, 53184, Note_on_c, 0, 74, 78
2, 53232, Note_on_c, 0, 74, 0
2, 53232, Note_on_c, 0, 70, 78
2, 53277, Note_on_c, 0, 70, 0
2, 53280, Note_on_c, 0, 69, 78
2, 53328, Note_on_c, 0, 69, 0
2, 53328, Note_on_c, 0, 67, 78
2, 53373, Note_on_c, 0, 67, 0
2, 53376, Note_on_c, 0, 79, 78
2, 53424, Note_on_c, 0, 79, 0
2, 53424, Note_on_c, 0, 75, 78
2, 53469, Note_on_c, 0, 75, 0
2, 53472, Note_on_c, 0, 74, 78
2, 53520, Note_on_c, 0, 74, 0
2, 53520, Note_on_c, 0, 72, 78
2, 53565, Note_on_c, 0, 72, 0
2, 53568, Note_on_c, 0, 70, 78
2, 53664, Note_on_c, 0, 70, 0
2, 53664, Note_on_c, 0, 69, 78
2, 53676, Note_on_c, 0, 69, 0
2, 53676, Note_on_c, 0, 70, 78
2, 53688, Note_on_c, 0, 70, 0
2, 53688, Note_on_c, 0, 69, 78
2, 53753, Note_on_c, 0, 69, 0
2, 53760, Note_on_c, 0, 77, 78
2, 53849, Note_on_c, 0, 77, 0
2, 53856, Note_on_c, 0, 82, 78
2, 53901, Note_on_c, 0, 82, 0
2, 53904, Note_on_c, 0, 84, 78
2, 53949, Note_on_c, 0, 84, 0
2, 53952, Note_on_c, 0, 86, 78
2, 53997, Note_on_c, 0, 86, 0
2, 54000, Note_on_c, 0, 82, 78
2, 54045, Note_on_c, 0, 82, 0
2, 54048, Note_on_c, 0, 81, 78
2, 54093, Note_on_c, 0, 81, 0
2, 54096, Note_on_c, 0, 79, 78
2, 54141, Note_on_c, 0, 79, 0
2, 54144, Note_on_c, 0, 87, 78
2, 54189, Note_on_c, 0, 87, 0
2, 54192, Note_on_c, 0, 84, 78
2, 54237, Note_on_c, 0, 84, 0
2, 54240, Note_on_c, 0, 82, 78
2, 54285, Note_on_c, 0, 82, 0
2, 54288, Note_on_c, 0, 81, 78
2, 54333, Note_on_c, 0, 81, 0
2, 54336, Note_on_c, 0, 89, 78
2, 54384, Note_on_c, 0, 89, 0
2, 54384, Note_on_c, 0, 81, 78
2, 54429, Note_on_c, 0, 81, 0
2, 54432, Note_on_c, 0, 82, 78
2, 54480, Note_on_c, 0, 82, 0
2, 54480, Note_on_c, 0, 77, 78
2, 54525, Note_on_c, 0, 77, 0
2, 54528, Note_on_c, 0, 79, 78
2, 54576, Note_on_c, 0, 79, 0
2, 54576, Note_on_c, 0, 72, 78
2, 54621, Note_on_c, 0, 72, 0
2, 54624, Note_on_c, 0, 75, 78
2, 54672, Note_on_c, 0, 75, 0
2, 54672, Note_on_c, 0, 69, 78
2, 54717, Note_on_c, 0, 69, 0
2, 54720, Note_on_c, 0, 72, 78
2, 54816, Note_on_c, 0, 72, 0
2, 54816, Note_on_c, 0, 70, 78
2, 54828, Note_on_c, 0, 70, 0
2, 54828, Note_on_c, 0, 72, 78
2, 54840, Note_on_c, 0, 72, 0
2, 54840, Note_on_c, 0, 70, 78
2, 54993, Note_on_c, 0, 70, 0
2, 55008, Note_on_c, 0, 70, 78
2, 55020, Note_on_c, 0, 70, 0
2, 55020, Note_on_c, 0, 72, 78
2, 55032, Note_on_c, 0, 72, 0
2, 55032, Note_on_c, 0, 70, 78
2, 55044, Note_on_c, 0, 70, 0
2, 55044, Note_on_c, 0, 72, 78
2, 55056, Note_on_c, 0, 72, 0
2, 55056, Note_on_c, 0, 70, 78
2, 55068, Note_on_c, 0, 70, 0
2, 55068, Note_on_c, 0, 72, 78
2, 55075, Note_on_c, 0, 72, 0
2, 55080, Note_on_c, 0, 69, 78
2, 55092, Note_on_c, 0, 69, 0
2, 55092, Note_on_c, 0, 70, 78
2, 55104, Note_on_c, 0, 70, 0
2, 55104, Note_on_c, 0, 79, 78
2, 55149, Note_on_c, 0, 79, 0
2, 55152, Note_on_c, 0, 70, 78
2, 55197, Note_on_c, 0, 70, 0
2, 55200, Note_on_c, 0, 70, 78
2, 55245, Note_on_c, 0, 70, 0
2, 55248, Note_on_c, 0, 69, 78
2, 55293, Note_on_c, 0, 69, 0
2, 55296, Note_on_c, 0, 68, 78
2, 55308, Note_on_c, 0, 68, 0
2, 55308, Note_on_c, 0, 70, 78
2, 55320, Note_on_c, 0, 70, 0
2, 55320, Note_on_c, 0, 68, 78
2, 55332, Note_on_c, 0, 68, 0
2, 55332, Note_on_c, 0, 70, 78
2, 55344, Note_on_c, 0, 70, 0
2, 55344, Note_on_c, 0, 68, 78
2, 55356, Note_on_c, 0, 68, 0
2, 55356, Note_on_c, 0, 70, 78
2, 55363, Note_on_c, 0, 70, 0
2, 55368, Note_on_c, 0, 67, 78
2, 55380, Note_on_c, 0, 67, 0
2, 55380, Note_on_c, 0, 68, 78
2, 55392, Note_on_c, 0, 68, 0
2, 55392, Note_on_c, 0, 77, 78
2, 55437, Note_on_c, 0, 77, 0
2, 55440, Note_on_c, 0, 68, 78
2, 55485, Note_on_c, 0, 68, 0
2, 55488, Note_on_c, 0, 68, 78
2, 55533, Note_on_c, 0, 68, 0
2, 55536, Note_on_c, 0, 67, 78
2, 55581, Note_on_c, 0, 67, 0
2, 55584, Note_on_c, 0, 67, 78
2, 55596, Note_on_c, 0, 67, 0
2, 55596, Note_on_c, 0, 68, 78
2, 55608, Note_on_c, 0, 68, 0
2, 55608, Note_on_c, 0, 67, 78
2, 55632, Note_on_c, 0, 67, 0
2, 55632, Note_on_c, 0, 65, 78
2, 55677, Note_on_c, 0, 65, 0
2, 55680, Note_on_c, 0, 72, 78
2, 55728, Note_on_c, 0, 72, 0
2, 55728, Note_on_c, 0, 68, 78
2, 55773, Note_on_c, 0, 68, 0
2, 55776, Note_on_c, 0, 65, 78
2, 55824, Note_on_c, 0, 65, 0
2, 55824, Note_on_c, 0, 63, 78
2, 55869, Note_on_c, 0, 63, 0
2, 55872, Note_on_c, 0, 63, 78
2, 55968, Note_on_c, 0, 63, 0
2, 55968, Note_on_c, 0, 62, 78
2, 55980, Note_on_c, 0, 62, 0
2, 55980, Note_on_c, 0, 63, 78
2, 55992, Note_on_c, 0, 63, 0
2, 55992, Note_on_c, 0, 62, 78
2, 56057, Note_on_c, 0, 62, 0
2, 56064, Note_on_c, 0, 58, 78
2, 56153, Note_on_c, 0, 58, 0
2, 56160, Note_on_c, 0, 63, 78
2, 56293, Note_on_c, 0, 63, 0
2, 56304, Note_on_c, 0, 67, 78
2, 56393, Note_on_c, 0, 67, 0
2, 56400, Note_on_c, 0, 60, 78
2, 56493, Note_on_c, 0, 60, 0
2, 56496, Note_on_c, 0, 68, 78
2, 56585, Note_on_c, 0, 68, 0
2, 56592, Note_on_c, 0, 62, 78
2, 56681, Note_on_c, 0, 62, 0
2, 56688, Note_on_c, 0, 72, 78
2, 56781, Note_on_c, 0, 72, 0
2, 56784, Note_on_c, 0, 70, 78
2, 56829, Note_on_c, 0, 70, 0
2, 56832, Note_on_c, 0, 68, 78
2, 56877, Note_on_c, 0, 68, 0
2, 56880, Note_on_c, 0, 67, 78
2, 56925, Note_on_c, 0, 67, 0
2, 56928, Note_on_c, 0, 65, 78
2, 56973, Note_on_c, 0, 65, 0
2, 56976, Note_on_c, 0, 63, 78
2, 57021, Note_on_c, 0, 63, 0
2, 57024, Note_on_c, 0, 63, 78
2, 57113, Note_on_c, 0, 63, 0
2, 57120, Note_on_c, 0, 62, 78
2, 57132, Note_on_c, 0, 62, 0
2, 57132, Note_on_c, 0, 63, 78
2, 57144, Note_on_c, 0, 63, 0
2, 57144, Note_on_c, 0, 62, 78
2, 57209, Note_on_c, 0, 62, 0
2, 57216, Note_on_c, 0, 58, 78
2, 57236, Note_on_c, 0, 58, 0
2, 57264, Note_on_c, 0, 58, 78
2, 57312, Note_on_c, 0, 58, 0
2, 57312, Note_on_c, 0, 63, 78
2, 57332, Note_on_c, 0, 63, 0
2, 57360, Note_on_c, 0, 63, 78
2, 57408, Note_on_c, 0, 63, 0
2, 57408, Note_on_c, 0, 67, 78
2, 57428, Note_on_c, 0, 67, 0
2, 57456, Note_on_c, 0, 67, 78
2, 57504, Note_on_c, 0, 67, 0
2, 57504, Note_on_c, 0, 60, 78
2, 57524, Note_on_c, 0, 60, 0
2, 57552, Note_on_c, 0, 60, 78
2, 57600, Note_on_c, 0, 60, 0
2, 57600, Note_on_c, 0, 68, 78
2, 57620, Note_on_c, 0, 68, 0
2, 57648, Note_on_c, 0, 68, 78
2, 57696, Note_on_c, 0, 68, 0
2, 57696, Note_on_c, 0, 62, 78
2, 57716, Note_on_c, 0, 62, 0
2, 57744, Note_on_c, 0, 62, 78
2, 57789, Note_on_c, 0, 62, 0
2, 57792, Note_on_c, 0, 74, 78
2, 57840, Note_on_c, 0, 74, 0
2, 57840, Note_on_c, 0, 70, 78
2, 57885, Note_on_c, 0, 70, 0
2, 57888, Note_on_c, 0, 75, 78
2, 57936, Note_on_c, 0, 75, 0
2, 57936, Note_on_c, 0, 70, 78
2, 57981, Note_on_c, 0, 70, 0
2, 57984, Note_on_c, 0, 72, 78
2, 58032, Note_on_c, 0, 72, 0
2, 58032, Note_on_c, 0, 65, 78
2, 58077, Note_on_c, 0, 65, 0
2, 58080, Note_on_c, 0, 68, 78
2, 58128, Note_on_c, 0, 68, 0
2, 58128, Note_on_c, 0, 62, 78
2, 58173, Note_on_c, 0, 62, 0
2, 58176, Note_on_c, 0, 63, 78
2, 58353, Note_on_c, 0, 63, 0
2, 58464, End_track
3, 0, Start_track
3, 0, Program_c, 0, 0
3, 0, Control_c, 0, 7, 127
3, 0, Control_c, 0, 10, 64
3, 2880, Note_on_c, 0, 63, 64
3, 2969, Note_on_c, 0, 63, 0
3, 2976, Note_on_c, 0, 63, 64
3, 3021, Note_on_c, 0, 63, 0
3, 3024, Note_on_c, 0, 62, 64
3, 3157, Note_on_c, 0, 62, 0
3, 3168, Note_on_c, 0, 65, 64
3, 3257, Note_on_c, 0, 65, 0
3, 3264, Note_on_c, 0, 63, 64
3, 3309, Note_on_c, 0, 63, 0
3, 3312, Note_on_c, 0, 61, 64
3, 3445, Note_on_c, 0, 61, 0
3, 3456, Note_on_c, 0, 63, 64
3, 3456, Note_on_c, 0, 60, 64
3, 3589, Note_on_c, 0, 63, 0
3, 3589, Note_on_c, 0, 60, 0
3, 3600, Note_on_c, 0, 58, 64
3, 3689, Note_on_c, 0, 58, 0
3, 3696, Note_on_c, 0, 62, 64
3, 3741, Note_on_c, 0, 62, 0
3, 6624, Note_on_c, 0, 63, 64
3, 6713, Note_on_c, 0, 63, 0
3, 6720, Note_on_c, 0, 63, 64
3, 6765, Note_on_c, 0, 63, 0
3, 6768, Note_on_c, 0, 62, 85
3, 6901, Note_on_c, 0, 62, 0
3, 6912, Note_on_c, 0, 65, 85
3, 7001, Note_on_c, 0, 65, 0
3, 7008, Note_on_c, 0, 63, 85
3, 7053, Note_on_c, 0, 63, 0
3, 7056, Note_on_c, 0, 61, 85
3, 7189, Note_on_c, 0, 61, 0
3, 7200, Note_on_c, 0, 63, 85
3, 7200, Note_on_c, 0, 60, 85
3, 7333, Note_on_c, 0, 63, 0
3, 7333, Note_on_c, 0, 60, 0
3, 7344, Note_on_c, 0, 58, 85
3, 7433, Note_on_c, 0, 58, 0
3, 7440, Note_on_c, 0, 62, 85
3, 7485, Note_on_c, 0, 62, 0
3, 7488, Note_on_c, 0, 63, 85
3, 7533, Note_on_c, 0, 63, 0
3, 7584, Note_on_c, 0, 55, 85
3, 7629, Note_on_c, 0, 55, 0
3, 7632, Note_on_c, 0, 51, 85
3, 7677, Note_on_c, 0, 51, 0
3, 11520, Note_on_c, 0, 65, 85
3, 11520, Note_on_c, 0, 62, 85
3, 11520, Note_on_c, 0, 59, 85
3, 11609, Note_on_c, 0, 65, 0
3, 11609, Note_on_c, 0, 62, 0
3, 11609, Note_on_c, 0, 59, 0
3, 11616, Note_on_c, 0, 62, 85
3, 11661, Note_on_c, 0, 62, 0
3, 11664, Note_on_c, 0, 62, 85
3, 11753, Note_on_c, 0, 62, 0
3, 11760, Note_on_c, 0, 60, 85
3, 11805, Note_on_c, 0, 60, 0
3, 11808, Note_on_c, 0, 56, 85
3, 11941, Note_on_c, 0, 56, 0
3, 11952, Note_on_c, 0, 55, 85
3, 12041, Note_on_c, 0, 55, 0
3, 12048, Note_on_c, 0, 53, 85
3, 12093, Note_on_c, 0, 53, 0
3, 12096, Note_on_c, 0, 51, 85
3, 12229, Note_on_c, 0, 51, 0
3, 12600, Note_on_c, 0, 51, 85
3, 12623, Note_on_c, 0, 51, 0
3, 12624, Note_on_c, 0, 50, 85
3, 12630, Note_on_c, 0, 50, 0
3, 12630, Note_on_c, 0, 51, 85
3, 12636, Note_on_c, 0, 51, 0
3, 12636, Note_on_c, 0, 50, 85
3, 12647, Note_on_c, 0, 50, 0
3, 12648, Note_on_c, 0, 48, 85
3, 12671, Note_on_c, 0, 48, 0
3, 12672, Note_on_c, 0, 50, 85
3, 12672, Note_on_c, 0, 47, 85
3, 12761, Note_on_c, 0, 50, 0
3, 12761, Note_on_c, 0, 47, 0
3, 12768, Note_on_c, 0, 53, 85
3, 12774, Note_on_c, 0, 53, 0
3, 12774, Note_on_c, 0, 51, 85
3, 12774, Note_on_c, 0, 48, 85
3, 12813, Note_on_c, 0, 51, 0
3, 12813, Note_on_c, 0, 48, 0
3, 12816, Note_on_c, 0, 50, 85
3, 12816, Note_on_c, 0, 47, 85
3, 12905, Note_on_c, 0, 50, 0
3, 12905, Note_on_c, 0, 47, 0
3, 12912, Note_on_c, 0, 53, 85
3, 12918, Note_on_c, 0, 53, 0
3, 12918, Note_on_c, 0, 51, 85
3, 12918, Note_on_c, 0, 48, 85
3, 12957, Note_on_c, 0, 51, 0
3, 12957, Note_on_c, 0, 48, 0
3, 36192, Note_on_c, 0, 70, 85
3, 36215, Note_on_c, 0, 70, 0
3, 36216, Note_on_c, 0, 68, 85
3, 36239, Note_on_c, 0, 68, 0
3, 36240, Note_on_c, 0, 67, 85
3, 36263, Note_on_c, 0, 67, 0
3, 36264, Note_on_c, 0, 68, 85
3, 36287, Note_on_c, 0, 68, 0
3, 36288, Note_on_c, 0, 65, 85
3, 36377, Note_on_c, 0, 65, 0
3, 36384, Note_on_c, 0, 70, 85
3, 36473, Note_on_c, 0, 70, 0
3, 36480, Note_on_c, 0, 68, 85
3, 36569, Note_on_c, 0, 68, 0
3, 36576, Note_on_c, 0, 68, 85
3, 36672, Note_on_c, 0, 68, 0
3, 36672, Note_on_c, 0, 67, 85
3, 36761, Note_on_c, 0, 67, 0
3, 36768, Note_on_c, 0, 67, 85
3, 36857, Note_on_c, 0, 67, 0
3, 36864, Note_on_c, 0, 68, 85
3, 37041, Note_on_c, 0, 68, 0
3, 40224, Note_on_c, 0, 70, 85
3, 40247, Note_on_c, 0, 70, 0
3, 40248, Note_on_c, 0, 68, 85
3, 40271, Note_on_c, 0, 68, 0
3, 40272, Note_on_c, 0, 67, 85
3, 40295, Note_on_c, 0, 67, 0
3, 40296, Note_on_c, 0, 68, 85
3, 40319, Note_on_c, 0, 68, 0
3, 40320, Note_on_c, 0, 65, 85
3, 40409, Note_on_c, 0, 65, 0
3, 40416, Note_on_c, 0, 70, 85
3, 40505, Note_on_c, 0, 70, 0
3, 40512, Note_on_c, 0, 68, 85
3, 40601, Note_on_c, 0, 68, 0
3, 40608, Note_on_c, 0, 68, 85
3, 40704, Note_on_c, 0, 68, 0
3, 40704, Note_on_c, 0, 67, 85
3, 40793, Note_on_c, 0, 67, 0
3, 40800, Note_on_c, 0, 67, 85
3, 40889, Note_on_c, 0, 67, 0
3, 40896, Note_on_c, 0, 68, 85
3, 41073, Note_on_c, 0, 68, 0
3, 58464, End_track
4, 0, Start_track
4, 0, Program_c, 1, 0
4, 0, Control_c, 1, 7, 127
4, 0, Control_c, 1, 10, 64
4, 384, Note_on_c, 1, 51, 64
4, 384, Note_on_c, 1, 48, 64
4, 432, Note_on_c, 1, 51, 0
4, 432, Note_on_c, 1, 48, 0
4, 432, Note_on_c, 1, 53, 64
4, 432, Note_on_c, 1, 50, 64
4, 452, Note_on_c, 1, 53, 0
4, 452, Note_on_c, 1, 50, 0
4, 672, Note_on_c, 1, 53, 64
4, 672, Note_on_c, 1, 50, 64
4, 720, Note_on_c, 1, 53, 0
4, 720, Note_on_c, 1, 50, 0
4, 720, Note_on_c, 1, 55, 64
4, 720, Note_on_c, 1, 51, 64
4, 740, Note_on_c, 1, 55, 0
4, 740, Note_on_c, 1, 51, 0
4, 960, Note_on_c, 1, 60, 64
4, 960, Note_on_c, 1, 51, 64
4, 1005, Note_on_c, 1, 60, 0
4, 1005, Note_on_c, 1, 51, 0
4, 1008, Note_on_c, 1, 60, 64
4, 1008, Note_on_c, 1, 53, 64
4, 1097, Note_on_c, 1, 60, 0
4, 1097, Note_on_c, 1, 53, 0
4, 1104, Note_on_c, 1, 60, 64
4, 1104, Note_on_c, 1, 51, 64
4, 1149, Note_on_c, 1, 60, 0
4, 1149, Note_on_c, 1, 51, 0
4, 1152, Note_on_c, 1, 59, 64
4, 1152, Note_on_c, 1, 50, 64
4, 1241, Note_on_c, 1, 59, 0
4, 1241, Note_on_c, 1, 50, 0
4, 1248, Note_on_c, 1, 60, 64
4, 1248, Note_on_c, 1, 48, 64
4, 1293, Note_on_c, 1, 60, 0
4, 1293, Note_on_c, 1, 48, 0
4, 1296, Note_on_c, 1, 55, 64
4, 1296, Note_on_c, 1, 43, 64
4, 1335, Note_on_c, 1, 55, 0
4, 1335, Note_on_c, 1, 43, 0
4, 1536, Note_on_c, 1, 55, 64
4, 1536, Note_on_c, 1, 51, 64
4, 1584, Note_on_c, 1, 55, 0
4, 1584, Note_on_c, 1, 51, 0
4, 1584, Note_on_c, 1, 56, 64
4, 1584, Note_on_c, 1, 53, 64
4, 1629, Note_on_c, 1, 56, 0
4, 1629, Note_on_c, 1, 53, 0
4, 1824, Note_on_c, 1, 58, 64
4, 1824, Note_on_c, 1, 50, 64
4, 1872, Note_on_c, 1, 50, 0
4, 1872, Note_on_c, 1, 51, 64
4, 1961, Note_on_c, 1, 58, 0
4, 1961, Note_on_c, 1, 51, 0
4, 2112, Note_on_c, 1, 67, 65
4, 2112, Note_on_c, 1, 63, 65
4, 2157, Note_on_c, 1, 67, 0
4, 2157, Note_on_c, 1, 63, 0
4, 2160, Note_on_c, 1, 65, 65
4, 2160, Note_on_c, 1, 62, 65
4, 2249, Note_on_c, 1, 65, 0
4, 2249, Note_on_c, 1, 62, 0
4, 2256, Note_on_c, 1, 63, 65
4, 2256, Note_on_c, 1, 60, 65
4, 2301, Note_on_c, 1, 63, 0
4, 2301, Note_on_c, 1, 60, 0
4, 2304, Note_on_c, 1, 62, 65
4, 2304, Note_on_c, 1, 58, 65
4, 2393, Note_on_c, 1, 62, 0
4, 2393, Note_on_c, 1, 58, 0
4, 2400, Note_on_c, 1, 60, 65
4, 2400, Note_on_c, 1, 56, 65
4, 2445, Note_on_c, 1, 60, 0
4, 2445, Note_on_c, 1, 56, 0
4, 2448, Note_on_c, 1, 65, 85
4, 2448, Note_on_c, 1, 62, 85
4, 2448, Note_on_c, 1, 58, 85
4, 2448, Note_on_c, 1, 56, 85
4, 2537, Note_on_c, 1, 65, 0
4, 2537, Note_on_c, 1, 62, 0
4, 2537, Note_on_c, 1, 58, 0
4, 2537, Note_on_c, 1, 56, 0
4, 2544, Note_on_c, 1, 63, 85
4, 2544, Note_on_c, 1, 58, 85
4, 2544, Note_on_c, 1, 55, 85
4, 2589, Note_on_c, 1, 63, 0
4, 2589, Note_on_c, 1, 58, 0
4, 2589, Note_on_c, 1, 55, 0
4, 2592, Note_on_c, 1, 60, 85
4, 2637, Note_on_c, 1, 60, 0
4, 2640, Note_on_c, 1, 55, 85
4, 2685, Note_on_c, 1, 55, 0
4, 2688, Note_on_c, 1, 53, 85
4, 2733, Note_on_c, 1, 53, 0
4, 2736, Note_on_c, 1, 39, 85
4, 2759, Note_on_c, 1, 39, 0
4, 2760, Note_on_c, 1, 51, 85
4, 2783, Note_on_c, 1, 51, 0
4, 2784, Note_on_c, 1, 43, 85
4, 2807, Note_on_c, 1, 43, 0
4, 2808, Note_on_c, 1, 51, 85
4, 2831, Note_on_c, 1, 51, 0
4, 2832, Note_on_c, 1, 39, 85
4, 2855, Note_on_c, 1, 39, 0
4, 2856, Note_on_c, 1, 51, 85
4, 2879, Note_on_c, 1, 51, 0
4, 2880, Note_on_c, 1, 44, 85
4, 2903, Note_on_c, 1, 44, 0
4, 2904, Note_on_c, 1, 56, 85
4, 2927, Note_on_c, 1, 56, 0
4, 2928, Note_on_c, 1, 48, 85
4, 2951, Note_on_c, 1, 48, 0
4, 2952, Note_on_c, 1, 56, 85
4, 2975, Note_on_c, 1, 56, 0
4, 2976, Note_on_c, 1, 44, 85
4, 2999, Note_on_c, 1, 44, 0
4, 3000, Note_on_c, 1, 56, 85
4, 3023, Note_on_c, 1, 56, 0
4, 3024, Note_on_c, 1, 46, 85
4, 3047, Note_on_c, 1, 46, 0
4, 3048, Note_on_c, 1, 58, 85
4, 3071, Note_on_c, 1, 58, 0
4, 3072, Note_on_c, 1, 50, 85
4, 3095, Note_on_c, 1, 50, 0
4, 3096, Note_on_c, 1, 58, 85
4, 3119, Note_on_c, 1, 58, 0
4, 3120, Note_on_c, 1, 46, 85
4, 3143, Note_on_c, 1, 46, 0
4, 3144, Note_on_c, 1, 58, 85
4, 3167, Note_on_c, 1, 58, 0
4, 3168, Note_on_c, 1, 48, 85
4, 3191, Note_on_c, 1, 48, 0
4, 3192, Note_on_c, 1, 60, 85
4, 3215, Note_on_c, 1, 60, 0
4, 3216, Note_on_c, 1, 59, 85
4, 3239, Note_on_c, 1, 59, 0
4, 3240, Note_on_c, 1, 60, 85
4, 3263, Note_on_c, 1, 60, 0
4, 3264, Note_on_c, 1, 48, 85
4, 3287, Note_on_c, 1, 48, 0
4, 3288, Note_on_c, 1, 60, 85
4, 3311, Note_on_c, 1, 60, 0
4, 3312, Note_on_c, 1, 43, 92
4, 3335, Note_on_c, 1, 43, 0
4, 3336, Note_on_c, 1, 51, 92
4, 3359, Note_on_c, 1, 51, 0
4, 3360, Note_on_c, 1, 46, 92
4, 3383, Note_on_c, 1, 46, 0
4, 3384, Note_on_c, 1, 51, 92
4, 3407, Note_on_c, 1, 51, 0
4, 3408, Note_on_c, 1, 43, 92
4, 3431, Note_on_c, 1, 43, 0
4, 3432, Note_on_c, 1, 51, 92
4, 3455, Note_on_c, 1, 51, 0
4, 3456, Note_on_c, 1, 44, 92
4, 3479, Note_on_c, 1, 44, 0
4, 3480, Note_on_c, 1, 56, 92
4, 3503, Note_on_c, 1, 56, 0
4, 3504, Note_on_c, 1, 51, 92
4, 3527, Note_on_c, 1, 51, 0
4, 3528, Note_on_c, 1, 56, 92
4, 3551, Note_on_c, 1, 56, 0
4, 3552, Note_on_c, 1, 44, 92
4, 3575, Note_on_c, 1, 44, 0
4, 3576, Note_on_c, 1, 56, 92
4, 3599, Note_on_c, 1, 56, 0
4, 3600, Note_on_c, 1, 46, 92
4, 3623, Note_on_c, 1, 46, 0
4, 3624, Note_on_c, 1, 55, 92
4, 3647, Note_on_c, 1, 55, 0
4, 3648, Note_on_c, 1, 51, 92
4, 3671, Note_on_c, 1, 51, 0
4, 3672, Note_on_c, 1, 55, 92
4, 3695, Note_on_c, 1, 55, 0
4, 3696, Note_on_c, 1, 46, 92
4, 3719, Note_on_c, 1, 46, 0
4, 3720, Note_on_c, 1, 55, 92
4, 3743, Note_on_c, 1, 55, 0
4, 3744, Note_on_c, 1, 55, 92
4, 3744, Note_on_c, 1, 51, 92
4, 3789, Note_on_c, 1, 55, 0
4, 3789, Note_on_c, 1, 51, 0
4, 4128, Note_on_c, 1, 51, 78
4, 4128, Note_on_c, 1, 48, 78
4, 4176, Note_on_c, 1, 51, 0
4, 4176, Note_on_c, 1, 48, 0
4, 4176, Note_on_c, 1, 53, 78
4, 4176, Note_on_c, 1, 50, 78
4, 4221, Note_on_c, 1, 53, 0
4, 4221, Note_on_c, 1, 50, 0
4, 4224, Note_on_c, 1, 62, 78
4, 4230, Note_on_c, 1, 65, 78
4, 4236, Note_on_c, 1, 68, 78
4, 4242, Note_on_c, 1, 71, 78
4, 4282, Note_on_c, 1, 71, 0
4, 4282, Note_on_c, 1, 68, 0
4, 4282, Note_on_c, 1, 65, 0
4, 4282, Note_on_c, 1, 62, 0
4, 4416, Note_on_c, 1, 53, 78
4, 4461, Note_on_c, 1, 53, 0
4, 4464, Note_on_c, 1, 55, 78
4, 4464, Note_on_c, 1, 51, 78
4, 4509, Note_on_c, 1, 55, 0
4, 4509, Note_on_c, 1, 51, 0
4, 4512, Note_on_c, 1, 63, 78
4, 4518, Note_on_c, 1, 67, 78
4, 4524, Note_on_c, 1, 72, 78
4, 4530, Note_on_c, 1, 75, 78
4, 4570, Note_on_c, 1, 75, 0
4, 4570, Note_on_c, 1, 72, 0
4, 4570, Note_on_c, 1, 67, 0
4, 4570, Note_on_c, 1, 63, 0
4, 4704, Note_on_c, 1, 60, 78
4, 4704, Note_on_c, 1, 51, 78
4, 4749, Note_on_c, 1, 60, 0
4, 4749, Note_on_c, 1, 51, 0
4, 4752, Note_on_c, 1, 60, 78
4, 4752, Note_on_c, 1, 53, 78
4, 4841, Note_on_c, 1, 60, 0
4, 4841, Note_on_c, 1, 53, 0
4, 4848, Note_on_c, 1, 60, 78
4, 4848, Note_on_c, 1, 51, 78
4, 4893, Note_on_c, 1, 60, 0
4, 4893, Note_on_c, 1, 51, 0
4, 4896, Note_on_c, 1, 59, 78
4, 4896, Note_on_c, 1, 50, 78
4, 4985, Note_on_c, 1, 59, 0
4, 4985, Note_on_c, 1, 50, 0
4, 4992, Note_on_c, 1, 60, 78
4, 4992, Note_on_c, 1, 48, 78
4, 5037, Note_on_c, 1, 60, 0
4, 5037, Note_on_c, 1, 48, 0
4, 5040, Note_on_c, 1, 55, 78
4, 5040, Note_on_c, 1, 43, 78
4, 5079, Note_on_c, 1, 55, 0
4, 5079, Note_on_c, 1, 43, 0
4, 5280, Note_on_c, 1, 55, 78
4, 5280, Note_on_c, 1, 51, 78
4, 5328, Note_on_c, 1, 55, 0
4, 5328, Note_on_c, 1, 51, 0
4, 5328, Note_on_c, 1, 56, 78
4, 5328, Note_on_c, 1, 53, 78
4, 5373, Note_on_c, 1, 56, 0
4, 5373, Note_on_c, 1, 53, 0
4, 5568, Note_on_c, 1, 53, 78
4, 5568, Note_on_c, 1, 46, 78
4, 5613, Note_on_c, 1, 53, 0
4, 5613, Note_on_c, 1, 46, 0
4, 5616, Note_on_c, 1, 51, 78
4, 5661, Note_on_c, 1, 51, 0
4, 5856, Note_on_c, 1, 67, 78
4, 5856, Note_on_c, 1, 63, 78
4, 5901, Note_on_c, 1, 67, 0
4, 5901, Note_on_c, 1, 63, 0
4, 5904, Note_on_c, 1, 65, 78
4, 5904, Note_on_c, 1, 62, 78
4, 5993, Note_on_c, 1, 65, 0
4, 5993, Note_on_c, 1, 62, 0
4, 6000, Note_on_c, 1, 63, 78
4, 6000, Note_on_c, 1, 60, 78
4, 6045, Note_on_c, 1, 63, 0
4, 6045, Note_on_c, 1, 60, 0
4, 6048, Note_on_c, 1, 62, 78
4, 6048, Note_on_c, 1, 58, 78
4, 6137, Note_on_c, 1, 62, 0
4, 6137, Note_on_c, 1, 58, 0
4, 6144, Note_on_c, 1, 60, 78
4, 6144, Note_on_c, 1, 56, 78
4, 6189, Note_on_c, 1, 60, 0
4, 6189, Note_on_c, 1, 56, 0
4, 6192, Note_on_c, 1, 65, 85
4, 6192, Note_on_c, 1, 62, 85
4, 6192, Note_on_c, 1, 58, 85
4, 6192, Note_on_c, 1, 56, 85
4, 6281, Note_on_c, 1, 65, 0
4, 6281, Note_on_c, 1, 62, 0
4, 6281, Note_on_c, 1, 58, 0
4, 6281, Note_on_c, 1, 56, 0
4, 6288, Note_on_c, 1, 63, 85
4, 6288, Note_on_c, 1, 58, 85
4, 6288, Note_on_c, 1, 56, 85
4, 6333, Note_on_c, 1, 63, 0
4, 6333, Note_on_c, 1, 58, 0
4, 6333, Note_on_c, 1, 56, 0
4, 6336, Note_on_c, 1, 60, 85
4, 6381, Note_on_c, 1, 60, 0
4, 6384, Note_on_c, 1, 55, 85
4, 6429, Note_on_c, 1, 55, 0
4, 6432, Note_on_c, 1, 53, 85
4, 6477, Note_on_c, 1, 53, 0
4, 6480, Note_on_c, 1, 39, 65
4, 6503, Note_on_c, 1, 39, 0
4, 6504, Note_on_c, 1, 51, 65
4, 6527, Note_on_c, 1, 51, 0
4, 6528, Note_on_c, 1, 43, 65
4, 6551, Note_on_c, 1, 43, 0
4, 6552, Note_on_c, 1, 51, 65
4, 6575, Note_on_c, 1, 51, 0
4, 6576, Note_on_c, 1, 39, 65
4, 6599, Note_on_c, 1, 39, 0
4, 6600, Note_on_c, 1, 51, 65
4, 6623, Note_on_c, 1, 51, 0
4, 6624, Note_on_c, 1, 44, 65
4, 6647, Note_on_c, 1, 44, 0
4, 6648, Note_on_c, 1, 56, 65
4, 6671, Note_on_c, 1, 56, 0
4, 6672, Note_on_c, 1, 48, 65
4, 6695, Note_on_c, 1, 48, 0
4, 6696, Note_on_c, 1, 56, 65
4, 6719, Note_on_c, 1, 56, 0
4, 6720, Note_on_c, 1, 44, 65
4, 6743, Note_on_c, 1, 44, 0
4, 6744, Note_on_c, 1, 56, 65
4, 6767, Note_on_c, 1, 56, 0
4, 6768, Note_on_c, 1, 46, 85
4, 6791, Note_on_c, 1, 46, 0
4, 6792, Note_on_c, 1, 58, 85
4, 6815, Note_on_c, 1, 58, 0
4, 6816, Note_on_c, 1, 50, 85
4, 6839, Note_on_c, 1, 50, 0
4, 6840, Note_on_c, 1, 58, 85
4, 6863, Note_on_c, 1, 58, 0
4, 6864, Note_on_c, 1, 46, 85
4, 6887, Note_on_c, 1, 46, 0
4, 6888, Note_on_c, 1, 58, 85
4, 6911, Note_on_c, 1, 58, 0
4, 6912, Note_on_c, 1, 48, 85
4, 6935, Note_on_c, 1, 48, 0
4, 6936, Note_on_c, 1, 60, 85
4, 6959, Note_on_c, 1, 60, 0
4, 6960, Note_on_c, 1, 59, 85
4, 6983, Note_on_c, 1, 59, 0
4, 6984, Note_on_c, 1, 60, 85
4, 7007, Note_on_c, 1, 60, 0
4, 7008, Note_on_c, 1, 48, 85
4, 7031, Note_on_c, 1, 48, 0
4, 7032, Note_on_c, 1, 60, 85
4, 7055, Note_on_c, 1, 60, 0
4, 7056, Note_on_c, 1, 43, 92
4, 7068, Note_on_c, 1, 43, 0
4, 7068, Note_on_c, 1, 51, 92
4, 7080, Note_on_c, 1, 51, 0
4, 7080, Note_on_c, 1, 46, 92
4, 7092, Note_on_c, 1, 46, 0
4, 7092, Note_on_c, 1, 51, 92
4, 7104, Note_on_c, 1, 51, 0
4, 7104, Note_on_c, 1, 43, 92
4, 7116, Note_on_c, 1, 43, 0
4, 7116, Note_on_c, 1, 51, 92
4, 7128, Note_on_c, 1, 51, 0
4, 7128, Note_on_c, 1, 46, 92
4, 7140, Note_on_c, 1, 46, 0
4, 7140, Note_on_c, 1, 51, 92
4, 7152, Note_on_c, 1, 51, 0
4, 7152, Note_on_c, 1, 43, 92
4, 7164, Note_on_c, 1, 43, 0
4, 7164, Note_on_c, 1, 51, 92
4, 7176, Note_on_c, 1, 51, 0
4, 7176, Note_on_c, 1, 46, 92
4, 7188, Note_on_c, 1, 46, 0
4, 7188, Note_on_c, 1, 51, 92
4, 7200, Note_on_c, 1, 51, 0
4, 7200, Note_on_c, 1, 44, 92
4, 7212, Note_on_c, 1, 44, 0
4, 7212, Note_on_c, 1, 56, 92
4, 7224, Note_on_c, 1, 56, 0
4, 7224, Note_on_c, 1, 51, 92
4, 7236, Note_on_c, 1, 51, 0
4, 7236, Note_on_c, 1, 56, 92
4, 7248, Note_on_c, 1, 56, 0
4, 7248, Note_on_c, 1, 44, 92
4, 7260, Note_on_c, 1, 44, 0
4, 7260, Note_on_c, 1, 56, 92
4, 7272, Note_on_c, 1, 56, 0
4, 7272, Note_on_c, 1, 51, 92
4, 7284, Note_on_c, 1, 51, 0
4, 7284, Note_on_c, 1, 56, 92
4, 7296, Note_on_c, 1, 56, 0
4, 7296, Note_on_c, 1, 44, 92
4, 7308, Note_on_c, 1, 44, 0
4, 7308, Note_on_c, 1, 56, 92
4, 7320, Note_on_c, 1, 56, 0
4, 7320, Note_on_c, 1, 51, 92
4, 7332, Note_on_c, 1, 51, 0
4, 7332, Note_on_c, 1, 56, 92
4, 7344, Note_on_c, 1, 56, 0
4, 7344, Note_on_c, 1, 46, 92
4, 7356, Note_on_c, 1, 46, 0
4, 7356, Note_on_c, 1, 55, 92
4, 7368, Note_on_c, 1, 55, 0
4, 7368, Note_on_c, 1, 51, 92
4, 7380, Note_on_c, 1, 51, 0
4, 7380, Note_on_c, 1, 55, 92
4, 7392, Note_on_c, 1, 55, 0
4, 7392, Note_on_c, 1, 46, 92
4, 7404, Note_on_c, 1, 46, 0
4, 7404, Note_on_c, 1, 55, 92
4, 7416, Note_on_c, 1, 55, 0
4, 7416, Note_on_c, 1, 51, 92
4, 7428, Note_on_c, 1, 51, 0
4, 7428, Note_on_c, 1, 55, 92
4, 7440, Note_on_c, 1, 55, 0
4, 7440, Note_on_c, 1, 46, 92
4, 7452, Note_on_c, 1, 46, 0
4, 7452, Note_on_c, 1, 56, 92
4, 7464, Note_on_c, 1, 56, 0
4, 7464, Note_on_c, 1, 53, 92
4, 7476, Note_on_c, 1, 53, 0
4, 7476, Note_on_c, 1, 56, 92
4, 7488, Note_on_c, 1, 56, 0
4, 7488, Note_on_c, 1, 55, 92
4, 7488, Note_on_c, 1, 51, 92
4, 7533, Note_on_c, 1, 55, 0
4, 7533, Note_on_c, 1, 51, 0
4, 7872, Note_on_c, 1, 67, 78
4, 7872, Note_on_c, 1, 63, 78
4, 7920, Note_on_c, 1, 67, 0
4, 7920, Note_on_c, 1, 63, 0
4, 7920, Note_on_c, 1, 68, 78
4, 7920, Note_on_c, 1, 65, 78
4, 7965, Note_on_c, 1, 68, 0
4, 7965, Note_on_c, 1, 65, 0
4, 8160, Note_on_c, 1, 70, 78
4, 8160, Note_on_c, 1, 62, 78
4, 8208, Note_on_c, 1, 62, 0
4, 8208, Note_on_c, 1, 63, 78
4, 8297, Note_on_c, 1, 70, 0
4, 8297, Note_on_c, 1, 63, 0
4, 8376, Note_on_c, 1, 61, 78
4, 8399, Note_on_c, 1, 61, 0
4, 8400, Note_on_c, 1, 58, 78
4, 8423, Note_on_c, 1, 58, 0
4, 8424, Note_on_c, 1, 61, 78
4, 8447, Note_on_c, 1, 61, 0
4, 8448, Note_on_c, 1, 58, 78
4, 8471, Note_on_c, 1, 58, 0
4, 8472, Note_on_c, 1, 61, 78
4, 8495, Note_on_c, 1, 61, 0
4, 8520, Note_on_c, 1, 60, 78
4, 8543, Note_on_c, 1, 60, 0
4, 8544, Note_on_c, 1, 59, 78
4, 8567, Note_on_c, 1, 59, 0
4, 8568, Note_on_c, 1, 60, 78
4, 8591, Note_on_c, 1, 60, 0
4, 8592, Note_on_c, 1, 55, 78
4, 8615, Note_on_c, 1, 55, 0
4, 8616, Note_on_c, 1, 60, 78
4, 8639, Note_on_c, 1, 60, 0
4, 8664, Note_on_c, 1, 60, 78
4, 8687, Note_on_c, 1, 60, 0
4, 8688, Note_on_c, 1, 59, 78
4, 8711, Note_on_c, 1, 59, 0
4, 8712, Note_on_c, 1, 60, 78
4, 8735, Note_on_c, 1, 60, 0
4, 8736, Note_on_c, 1, 56, 78
4, 8759, Note_on_c, 1, 56, 0
4, 8760, Note_on_c, 1, 60, 78
4, 8783, Note_on_c, 1, 60, 0
4, 8808, Note_on_c, 1, 62, 78
4, 8831, Note_on_c, 1, 62, 0
4, 8832, Note_on_c, 1, 59, 78
4, 8855, Note_on_c, 1, 59, 0
4, 8856, Note_on_c, 1, 62, 78
4, 8879, Note_on_c, 1, 62, 0
4, 8880, Note_on_c, 1, 59, 78
4, 8903, Note_on_c, 1, 59, 0
4, 8904, Note_on_c, 1, 62, 78
4, 8927, Note_on_c, 1, 62, 0
4, 8952, Note_on_c, 1, 60, 78
4, 8975, Note_on_c, 1, 60, 0
4, 8976, Note_on_c, 1, 55, 78
4, 8999, Note_on_c, 1, 55, 0
4, 9000, Note_on_c, 1, 60, 78
4, 9023, Note_on_c, 1, 60, 0
4, 9024, Note_on_c, 1, 51, 78
4, 9047, Note_on_c, 1, 51, 0
4, 9048, Note_on_c, 1, 60, 78
4, 9071, Note_on_c, 1, 60, 0
4, 9096, Note_on_c, 1, 55, 78
4, 9119, Note_on_c, 1, 55, 0
4, 9120, Note_on_c, 1, 50, 78
4, 9143, Note_on_c, 1, 50, 0
4, 9144, Note_on_c, 1, 55, 78
4, 9167, Note_on_c, 1, 55, 0
4, 9168, Note_on_c, 1, 48, 78
4, 9191, Note_on_c, 1, 48, 0
4, 9192, Note_on_c, 1, 55, 78
4, 9215, Note_on_c, 1, 55, 0
4, 9216, Note_on_c, 1, 43, 78
4, 9239, Note_on_c, 1, 43, 0
4, 9240, Note_on_c, 1, 55, 78
4, 9263, Note_on_c, 1, 55, 0
4, 9264, Note_on_c, 1, 50, 78
4, 9287, Note_on_c, 1, 50, 0
4, 9288, Note_on_c, 1, 55, 78
4, 9311, Note_on_c, 1, 55, 0
4, 9312, Note_on_c, 1, 47, 78
4, 9335, Note_on_c, 1, 47, 0
4, 9336, Note_on_c, 1, 50, 78
4, 9359, Note_on_c, 1, 50, 0
4, 9360, Note_on_c, 1, 43, 78
4, 9405, Note_on_c, 1, 43, 0
4, 9600, Note_on_c, 1, 51, 78
4, 9600, Note_on_c, 1, 48, 78
4, 9648, Note_on_c, 1, 51, 0
4, 9648, Note_on_c, 1, 48, 0
4, 9648, Note_on_c, 1, 53, 78
4, 9648, Note_on_c, 1, 50, 78
4, 9693, Note_on_c, 1, 53, 0
4, 9693, Note_on_c, 1, 50, 0
4, 9888, Note_on_c, 1, 53, 78
4, 9888, Note_on_c, 1, 50, 78
4, 9936, Note_on_c, 1, 53, 0
4, 9936, Note_on_c, 1, 50, 0
4, 9936, Note_on_c, 1, 55, 78
4, 9936, Note_on_c, 1, 51, 78
4, 9981, Note_on_c, 1, 55, 0
4, 9981, Note_on_c, 1, 51, 0
4, 10176, Note_on_c, 1, 72, 85
4, 10176, Note_on_c, 1, 63, 85
4, 10221, Note_on_c, 1, 72, 0
4, 10221, Note_on_c, 1, 63, 0
4, 10224, Note_on_c, 1, 72, 85
4, 10224, Note_on_c, 1, 65, 85
4, 10313, Note_on_c, 1, 72, 0
4, 10313, Note_on_c, 1, 65, 0
4, 10320, Note_on_c, 1, 72, 85
4, 10320, Note_on_c, 1, 63, 85
4, 10365, Note_on_c, 1, 72, 0
4, 10365, Note_on_c, 1, 63, 0
4, 10368, Note_on_c, 1, 71, 85
4, 10368, Note_on_c, 1, 62, 85
4, 10457, Note_on_c, 1, 71, 0
4, 10457, Note_on_c, 1, 62, 0
4, 10464, Note_on_c, 1, 72, 85
4, 10464, Note_on_c, 1, 60, 85
4, 10509, Note_on_c, 1, 72, 0
4, 10509, Note_on_c, 1, 60, 0
4, 10512, Note_on_c, 1, 67, 85
4, 10512, Note_on_c, 1, 55, 85
4, 10601, Note_on_c, 1, 67, 0
4, 10601, Note_on_c, 1, 55, 0
4, 10752, Note_on_c, 1, 65, 78
4, 10797, Note_on_c, 1, 65, 0
4, 10800, Note_on_c, 1, 63, 78
4, 10889, Note_on_c, 1, 63, 0
4, 10896, Note_on_c, 1, 68, 78
4, 10941, Note_on_c, 1, 68, 0
4, 10944, Note_on_c, 1, 65, 78
4, 11033, Note_on_c, 1, 65, 0
4, 11088, Note_on_c, 1, 63, 78
4, 11177, Note_on_c, 1, 63, 0
4, 11184, Note_on_c, 1, 62, 78
4, 11229, Note_on_c, 1, 62, 0
4, 11232, Note_on_c, 1, 39, 78
4, 11255, Note_on_c, 1, 39, 0
4, 11256, Note_on_c, 1, 48, 78
4, 11279, Note_on_c, 1, 48, 0
4, 11280, Note_on_c, 1, 43, 78
4, 11303, Note_on_c, 1, 43, 0
4, 11304, Note_on_c, 1, 48, 78
4, 11327, Note_on_c, 1, 48, 0
4, 11328, Note_on_c, 1, 39, 78
4, 11351, Note_on_c, 1, 39, 0
4, 11352, Note_on_c, 1, 48, 78
4, 11375, Note_on_c, 1, 48, 0
4, 11376, Note_on_c, 1, 41, 78
4, 11399, Note_on_c, 1, 41, 0
4, 11400, Note_on_c, 1, 48, 78
4, 11423, Note_on_c, 1, 48, 0
4, 11424, Note_on_c, 1, 44, 78
4, 11447, Note_on_c, 1, 44, 0
4, 11448, Note_on_c, 1, 48, 78
4, 11471, Note_on_c, 1, 48, 0
4, 11472, Note_on_c, 1, 41, 78
4, 11495, Note_on_c, 1, 41, 0
4, 11496, Note_on_c, 1, 48, 78
4, 11519, Note_on_c, 1, 48, 0
4, 11520, Note_on_c, 1, 43, 78
4, 11543, Note_on_c, 1, 43, 0
4, 11544, Note_on_c, 1, 55, 78
4, 11567, Note_on_c, 1, 55, 0
4, 11568, Note_on_c, 1, 47, 78
4, 11591, Note_on_c, 1, 47, 0
4, 11592, Note_on_c, 1, 55, 78
4, 11615, Note_on_c, 1, 55, 0
4, 11616, Note_on_c, 1, 43, 78
4, 11639, Note_on_c, 1, 43, 0
4, 11640, Note_on_c, 1, 55, 78
4, 11663, Note_on_c, 1, 55, 0
4, 11664, Note_on_c, 1, 44, 78
4, 11687, Note_on_c, 1, 44, 0
4, 11688, Note_on_c, 1, 56, 78
4, 11711, Note_on_c, 1, 56, 0
4, 11712, Note_on_c, 1, 55, 78
4, 11735, Note_on_c, 1, 55, 0
4, 11736, Note_on_c, 1, 56, 78
4, 11759, Note_on_c, 1, 56, 0
4, 11760, Note_on_c, 1, 44, 78
4, 11783, Note_on_c, 1, 44, 0
4, 11784, Note_on_c, 1, 56, 78
4, 11807, Note_on_c, 1, 56, 0
4, 11808, Note_on_c, 1, 41, 78
4, 11831, Note_on_c, 1, 41, 0
4, 11832, Note_on_c, 1, 53, 78
4, 11855, Note_on_c, 1, 53, 0
4, 11856, Note_on_c, 1, 44, 78
4, 11879, Note_on_c, 1, 44, 0
4, 11880, Note_on_c, 1, 53, 78
4, 11903, Note_on_c, 1, 53, 0
4, 11904, Note_on_c, 1, 41, 78
4, 11927, Note_on_c, 1, 41, 0
4, 11928, Note_on_c, 1, 53, 78
4, 11951, Note_on_c, 1, 53, 0
4, 11952, Note_on_c, 1, 43, 78
4, 11975, Note_on_c, 1, 43, 0
4, 11976, Note_on_c, 1, 51, 78
4, 11999, Note_on_c, 1, 51, 0
4, 12000, Note_on_c, 1, 48, 78
4, 12023, Note_on_c, 1, 48, 0
4, 12024, Note_on_c, 1, 51, 78
4, 12047, Note_on_c, 1, 51, 0
4, 12048, Note_on_c, 1, 43, 78
4, 12093, Note_on_c, 1, 43, 0
4, 12096, Note_on_c, 1, 44, 78
4, 12096, Note_on_c, 1, 32, 78
4, 12229, Note_on_c, 1, 44, 0
4, 12229, Note_on_c, 1, 32, 0
4, 12624, Note_on_c, 1, 44, 85
4, 12624, Note_on_c, 1, 32, 85
4, 12669, Note_on_c, 1, 44, 0
4, 12669, Note_on_c, 1, 32, 0
4, 12672, Note_on_c, 1, 31, 85
4, 12684, Note_on_c, 1, 31, 0
4, 12684, Note_on_c, 1, 43, 85
4, 12696, Note_on_c, 1, 43, 0
4, 12696, Note_on_c, 1, 42, 85
4, 12708, Note_on_c, 1, 42, 0
4, 12708, Note_on_c, 1, 43, 85
4, 12720, Note_on_c, 1, 43, 0
4, 12720, Note_on_c, 1, 42, 85
4, 12732, Note_on_c, 1, 42, 0
4, 12732, Note_on_c, 1, 43, 85
4, 12744, Note_on_c, 1, 43, 0
4, 12744, Note_on_c, 1, 42, 85
4, 12756, Note_on_c, 1, 42, 0
4, 12756, Note_on_c, 1, 43, 85
4, 12768, Note_on_c, 1, 43, 0
4, 12768, Note_on_c, 1, 31, 85
4, 12780, Note_on_c, 1, 31, 0
4, 12780, Note_on_c, 1, 43, 85
4, 12792, Note_on_c, 1, 43, 0
4, 12792, Note_on_c, 1, 42, 85
4, 12804, Note_on_c, 1, 42, 0
4, 12804, Note_on_c, 1, 43, 85
4, 12816, Note_on_c, 1, 43, 0
4, 12816, Note_on_c, 1, 31, 85
4, 12828, Note_on_c, 1, 31, 0
4, 12828, Note_on_c, 1, 43, 85
4, 12840, Note_on_c, 1, 43, 0
4, 12840, Note_on_c, 1, 42, 85
4, 12852, Note_on_c, 1, 42, 0
4, 12852, Note_on_c, 1, 43, 85
4, 12864, Note_on_c, 1, 43, 0
4, 12864, Note_on_c, 1, 42, 85
4, 12876, Note_on_c, 1, 42, 0
4, 12876, Note_on_c, 1, 43, 85
4, 12888, Note_on_c, 1, 43, 0
4, 12888, Note_on_c, 1, 42, 85
4, 12900, Note_on_c, 1, 42, 0
4, 12900, Note_on_c, 1, 43, 85
4, 12912, Note_on_c, 1, 43, 0
4, 12912, Note_on_c, 1, 31, 85
4, 12924, Note_on_c, 1, 31, 0
4, 12924, Note_on_c, 1, 43, 85
4, 12936, Note_on_c, 1, 43, 0
4, 12936, Note_on_c, 1, 42, 85
4, 12948, Note_on_c, 1, 42, 0
4, 12948, Note_on_c, 1, 43, 85
4, 12960, Note_on_c, 1, 43, 0
4, 12960, Note_on_c, 1, 31, 85
4, 13005, Note_on_c, 1, 31, 0
4, 13008, Note_on_c, 1, 43, 85
4, 13008, Note_on_c, 1, 31, 85
4, 13053, Note_on_c, 1, 43, 0
4, 13053, Note_on_c, 1, 31, 0
4, 13056, Note_on_c, 1, 43, 85
4, 13056, Note_on_c, 1, 31, 85
4, 13101, Note_on_c, 1, 43, 0
4, 13101, Note_on_c, 1, 31, 0
4, 13104, Note_on_c, 1, 43, 85
4, 13104, Note_on_c, 1, 31, 85
4, 13237, Note_on_c, 1, 43, 0
4, 13237, Note_on_c, 1, 31, 0
4, 13632, Note_on_c, 1, 51, 78
4, 13632, Note_on_c, 1, 39, 78
4, 13671, Note_on_c, 1, 51, 0
4, 13671, Note_on_c, 1, 39, 0
4, 13728, Note_on_c, 1, 56, 78
4, 13728, Note_on_c, 1, 44, 78
4, 13767, Note_on_c, 1, 56, 0
4, 13767, Note_on_c, 1, 44, 0
4, 13824, Note_on_c, 1, 53, 78
4, 13824, Note_on_c, 1, 41, 78
4, 13863, Note_on_c, 1, 53, 0
4, 13863, Note_on_c, 1, 41, 0
4, 13920, Note_on_c, 1, 58, 78
4, 13920, Note_on_c, 1, 46, 78
4, 13959, Note_on_c, 1, 58, 0
4, 13959, Note_on_c, 1, 46, 0
4, 14016, Note_on_c, 1, 56, 78
4, 14016, Note_on_c, 1, 44, 78
4, 14055, Note_on_c, 1, 56, 0
4, 14055, Note_on_c, 1, 44, 0
4, 14112, Note_on_c, 1, 55, 78
4, 14112, Note_on_c, 1, 43, 78
4, 14151, Note_on_c, 1, 55, 0
4, 14151, Note_on_c, 1, 43, 0
4, 14208, Note_on_c, 1, 56, 78
4, 14208, Note_on_c, 1, 44, 78
4, 14247, Note_on_c, 1, 56, 0
4, 14247, Note_on_c, 1, 44, 0
4, 14304, Note_on_c, 1, 57, 78
4, 14304, Note_on_c, 1, 45, 78
4, 14343, Note_on_c, 1, 57, 0
4, 14343, Note_on_c, 1, 45, 0
4, 14400, Note_on_c, 1, 58, 78
4, 14439, Note_on_c, 1, 58, 0
4, 14496, Note_on_c, 1, 46, 78
4, 14535, Note_on_c, 1, 46, 0
4, 14784, Note_on_c, 1, 51, 78
4, 14784, Note_on_c, 1, 39, 78
4, 14823, Note_on_c, 1, 51, 0
4, 14823, Note_on_c, 1, 39, 0
4, 14880, Note_on_c, 1, 56, 78
4, 14880, Note_on_c, 1, 44, 78
4, 14919, Note_on_c, 1, 56, 0
4, 14919, Note_on_c, 1, 44, 0
4, 14976, Note_on_c, 1, 53, 78
4, 14976, Note_on_c, 1, 41, 78
4, 15015, Note_on_c, 1, 53, 0
4, 15015, Note_on_c, 1, 41, 0
4, 15072, Note_on_c, 1, 58, 78
4, 15072, Note_on_c, 1, 46, 78
4, 15111, Note_on_c, 1, 58, 0
4, 15111, Note_on_c, 1, 46, 0
4, 15168, Note_on_c, 1, 56, 78
4, 15168, Note_on_c, 1, 44, 78
4, 15207, Note_on_c, 1, 56, 0
4, 15207, Note_on_c, 1, 44, 0
4, 15264, Note_on_c, 1, 55, 78
4, 15264, Note_on_c, 1, 43, 78
4, 15303, Note_on_c, 1, 55, 0
4, 15303, Note_on_c, 1, 43, 0
4, 15360, Note_on_c, 1, 56, 78
4, 15360, Note_on_c, 1, 44, 78
4, 15399, Note_on_c, 1, 56, 0
4, 15399, Note_on_c, 1, 44, 0
4, 15456, Note_on_c, 1, 58, 78
4, 15456, Note_on_c, 1, 46, 78
4, 15495, Note_on_c, 1, 58, 0
4, 15495, Note_on_c, 1, 46, 0
4, 15552, Note_on_c, 1, 51, 78
4, 15591, Note_on_c, 1, 51, 0
4, 15648, Note_on_c, 1, 39, 78
4, 15687, Note_on_c, 1, 39, 0
4, 15936, Note_on_c, 1, 51, 78
4, 15936, Note_on_c, 1, 39, 78
4, 15975, Note_on_c, 1, 51, 0
4, 15975, Note_on_c, 1, 39, 0
4, 16032, Note_on_c, 1, 56, 78
4, 16032, Note_on_c, 1, 44, 78
4, 16071, Note_on_c, 1, 56, 0
4, 16071, Note_on_c, 1, 44, 0
4, 16128, Note_on_c, 1, 53, 78
4, 16128, Note_on_c, 1, 41, 78
4, 16167, Note_on_c, 1, 53, 0
4, 16167, Note_on_c, 1, 41, 0
4, 16224, Note_on_c, 1, 58, 78
4, 16224, Note_on_c, 1, 46, 78
4, 16263, Note_on_c, 1, 58, 0
4, 16263, Note_on_c, 1, 46, 0
4, 16320, Note_on_c, 1, 56, 78
4, 16320, Note_on_c, 1, 44, 78
4, 16359, Note_on_c, 1, 56, 0
4, 16359, Note_on_c, 1, 44, 0
4, 16416, Note_on_c, 1, 55, 78
4, 16416, Note_on_c, 1, 43, 78
4, 16455, Note_on_c, 1, 55, 0
4, 16455, Note_on_c, 1, 43, 0
4, 16512, Note_on_c, 1, 56, 78
4, 16512, Note_on_c, 1, 44, 78
4, 16551, Note_on_c, 1, 56, 0
4, 16551, Note_on_c, 1, 44, 0
4, 16608, Note_on_c, 1, 57, 78
4, 16608, Note_on_c, 1, 45, 78
4, 16647, Note_on_c, 1, 57, 0
4, 16647, Note_on_c, 1, 45, 0
4, 16704, Note_on_c, 1, 58, 78
4, 16743, Note_on_c, 1, 58, 0
4, 16800, Note_on_c, 1, 46, 78
4, 16839, Note_on_c, 1, 46, 0
4, 17088, Note_on_c, 1, 51, 78
4, 17088, Note_on_c, 1, 39, 78
4, 17127, Note_on_c, 1, 51, 0
4, 17127, Note_on_c, 1, 39, 0
4, 17184, Note_on_c, 1, 56, 78
4, 17184, Note_on_c, 1, 44, 78
4, 17223, Note_on_c, 1, 56, 0
4, 17223, Note_on_c, 1, 44, 0
4, 17280, Note_on_c, 1, 53, 78
4, 17280, Note_on_c, 1, 41, 78
4, 17319, Note_on_c, 1, 53, 0
4, 17319, Note_on_c, 1, 41, 0
4, 17376, Note_on_c, 1, 58, 78
4, 17376, Note_on_c, 1, 46, 78
4, 17415, Note_on_c, 1, 58, 0
4, 17415, Note_on_c, 1, 46, 0
4, 17472, Note_on_c, 1, 56, 78
4, 17472, Note_on_c, 1, 44, 78
4, 17511, Note_on_c, 1, 56, 0
4, 17511, Note_on_c, 1, 44, 0
4, 17568, Note_on_c, 1, 55, 78
4, 17568, Note_on_c, 1, 43, 78
4, 17607, Note_on_c, 1, 55, 0
4, 17607, Note_on_c, 1, 43, 0
4, 17664, Note_on_c, 1, 56, 78
4, 17664, Note_on_c, 1, 44, 78
4, 17703, Note_on_c, 1, 56, 0
4, 17703, Note_on_c, 1, 44, 0
4, 17760, Note_on_c, 1, 58, 78
4, 17760, Note_on_c, 1, 46, 78
4, 17799, Note_on_c, 1, 58, 0
4, 17799, Note_on_c, 1, 46, 0
4, 17856, Note_on_c, 1, 51, 78
4, 17895, Note_on_c, 1, 51, 0
4, 17952, Note_on_c, 1, 39, 78
4, 17991, Note_on_c, 1, 39, 0
4, 18048, Note_on_c, 1, 63, 78
4, 18137, Note_on_c, 1, 63, 0
4, 18144, Note_on_c, 1, 62, 78
4, 18233, Note_on_c, 1, 62, 0
4, 18240, Note_on_c, 1, 55, 78
4, 18329, Note_on_c, 1, 55, 0
4, 18336, Note_on_c, 1, 60, 78
4, 18425, Note_on_c, 1, 60, 0
4, 18432, Note_on_c, 1, 53, 78
4, 18521, Note_on_c, 1, 53, 0
4, 18528, Note_on_c, 1, 57, 78
4, 18617, Note_on_c, 1, 57, 0
4, 18624, Note_on_c, 1, 58, 78
4, 18713, Note_on_c, 1, 58, 0
4, 18720, Note_on_c, 1, 51, 78
4, 18897, Note_on_c, 1, 51, 0
4, 18912, Note_on_c, 1, 52, 78
4, 19001, Note_on_c, 1, 52, 0
4, 19008, Note_on_c, 1, 53, 78
4, 19097, Note_on_c, 1, 53, 0
4, 19104, Note_on_c, 1, 41, 78
4, 19193, Note_on_c, 1, 41, 0
4, 19392, Note_on_c, 1, 58, 78
4, 19481, Note_on_c, 1, 58, 0
4, 19488, Note_on_c, 1, 63, 78
4, 19533, Note_on_c, 1, 63, 0
4, 19536, Note_on_c, 1, 65, 78
4, 19581, Note_on_c, 1, 65, 0
4, 19584, Note_on_c, 1, 67, 78
4, 19629, Note_on_c, 1, 67, 0
4, 19632, Note_on_c, 1, 63, 78
4, 19677, Note_on_c, 1, 63, 0
4, 19680, Note_on_c, 1, 62, 78
4, 19725, Note_on_c, 1, 62, 0
4, 19728, Note_on_c, 1, 60, 78
4, 19773, Note_on_c, 1, 60, 0
4, 19776, Note_on_c, 1, 63, 78
4, 19865, Note_on_c, 1, 63, 0
4, 19872, Note_on_c, 1, 62, 78
4, 19961, Note_on_c, 1, 62, 0
4, 19968, Note_on_c, 1, 63, 78
4, 20057, Note_on_c, 1, 63, 0
4, 20064, Note_on_c, 1, 65, 78
4, 20153, Note_on_c, 1, 65, 0
4, 20256, Note_on_c, 1, 58, 78
4, 20301, Note_on_c, 1, 58, 0
4, 20304, Note_on_c, 1, 55, 78
4, 20349, Note_on_c, 1, 55, 0
4, 20352, Note_on_c, 1, 56, 78
4, 20397, Note_on_c, 1, 56, 0
4, 20400, Note_on_c, 1, 53, 78
4, 20445, Note_on_c, 1, 53, 0
4, 20544, Note_on_c, 1, 61, 78
4, 20633, Note_on_c, 1, 61, 0
4, 20640, Note_on_c, 1, 60, 78
4, 20729, Note_on_c, 1, 60, 0
4, 20832, Note_on_c, 1, 59, 78
4, 20921, Note_on_c, 1, 59, 0
4, 20928, Note_on_c, 1, 58, 78
4, 21017, Note_on_c, 1, 58, 0
4, 21024, Note_on_c, 1, 60, 78
4, 21157, Note_on_c, 1, 60, 0
4, 21312, Note_on_c, 1, 58, 78
4, 21401, Note_on_c, 1, 58, 0
4, 21408, Note_on_c, 1, 46, 78
4, 21497, Note_on_c, 1, 46, 0
4, 21696, Note_on_c, 1, 51, 78
4, 21792, Note_on_c, 1, 51, 0
4, 21792, Note_on_c, 1, 56, 78
4, 21881, Note_on_c, 1, 56, 0
4, 21888, Note_on_c, 1, 53, 78
4, 21977, Note_on_c, 1, 53, 0
4, 21984, Note_on_c, 1, 58, 78
4, 22073, Note_on_c, 1, 58, 0
4, 22080, Note_on_c, 1, 56, 78
4, 22169, Note_on_c, 1, 56, 0
4, 22176, Note_on_c, 1, 55, 78
4, 22265, Note_on_c, 1, 55, 0
4, 22272, Note_on_c, 1, 56, 78
4, 22361, Note_on_c, 1, 56, 0
4, 22368, Note_on_c, 1, 57, 78
4, 22457, Note_on_c, 1, 57, 0
4, 22464, Note_on_c, 1, 58, 78
4, 22553, Note_on_c, 1, 58, 0
4, 22560, Note_on_c, 1, 46, 78
4, 22649, Note_on_c, 1, 46, 0
4, 22848, Note_on_c, 1, 51, 78
4, 22868, Note_on_c, 1, 51, 0
4, 22896, Note_on_c, 1, 51, 78
4, 22944, Note_on_c, 1, 51, 0
4, 22944, Note_on_c, 1, 56, 78
4, 22964, Note_on_c, 1, 56, 0
4, 22992, Note_on_c, 1, 56, 78
4, 23040, Note_on_c, 1, 56, 0
4, 23040, Note_on_c, 1, 53, 78
4, 23060, Note_on_c, 1, 53, 0
4, 23088, Note_on_c, 1, 53, 78
4, 23136, Note_on_c, 1, 53, 0
4, 23136, Note_on_c, 1, 58, 78
4, 23156, Note_on_c, 1, 58, 0
4, 23184, Note_on_c, 1, 58, 78
4, 23229, Note_on_c, 1, 58, 0
4, 23232, Note_on_c, 1, 56, 78
4, 23321, Note_on_c, 1, 56, 0
4, 23328, Note_on_c, 1, 55, 78
4, 23417, Note_on_c, 1, 55, 0
4, 23424, Note_on_c, 1, 56, 78
4, 23513, Note_on_c, 1, 56, 0
4, 23520, Note_on_c, 1, 58, 78
4, 23609, Note_on_c, 1, 58, 0
4, 23616, Note_on_c, 1, 51, 78
4, 23705, Note_on_c, 1, 51, 0
4, 23712, Note_on_c, 1, 39, 78
4, 23801, Note_on_c, 1, 39, 0
4, 23808, Note_on_c, 1, 63, 78
4, 23897, Note_on_c, 1, 63, 0
4, 23904, Note_on_c, 1, 62, 78
4, 23993, Note_on_c, 1, 62, 0
4, 24000, Note_on_c, 1, 55, 78
4, 24089, Note_on_c, 1, 55, 0
4, 24096, Note_on_c, 1, 60, 78
4, 24185, Note_on_c, 1, 60, 0
4, 24192, Note_on_c, 1, 53, 78
4, 24281, Note_on_c, 1, 53, 0
4, 24288, Note_on_c, 1, 57, 78
4, 24377, Note_on_c, 1, 57, 0
4, 24384, Note_on_c, 1, 58, 78
4, 24473, Note_on_c, 1, 58, 0
4, 24480, Note_on_c, 1, 51, 78
4, 24657, Note_on_c, 1, 51, 0
4, 24672, Note_on_c, 1, 52, 78
4, 24761, Note_on_c, 1, 52, 0
4, 24768, Note_on_c, 1, 53, 78
4, 24857, Note_on_c, 1, 53, 0
4, 24864, Note_on_c, 1, 41, 78
4, 24953, Note_on_c, 1, 41, 0
4, 25152, Note_on_c, 1, 58, 78
4, 25241, Note_on_c, 1, 58, 0
4, 25248, Note_on_c, 1, 63, 78
4, 25293, Note_on_c, 1, 63, 0
4, 25296, Note_on_c, 1, 65, 78
4, 25341, Note_on_c, 1, 65, 0
4, 25344, Note_on_c, 1, 67, 78
4, 25389, Note_on_c, 1, 67, 0
4, 25392, Note_on_c, 1, 63, 78
4, 25437, Note_on_c, 1, 63, 0
4, 25440, Note_on_c, 1, 62, 78
4, 25485, Note_on_c, 1, 62, 0
4, 25488, Note_on_c, 1, 60, 78
4, 25533, Note_on_c, 1, 60, 0
4, 25536, Note_on_c, 1, 63, 78
4, 25625, Note_on_c, 1, 63, 0
4, 25632, Note_on_c, 1, 62, 78
4, 25721, Note_on_c, 1, 62, 0
4, 25728, Note_on_c, 1, 63, 78
4, 25817, Note_on_c, 1, 63, 0
4, 25824, Note_on_c, 1, 65, 78
4, 25913, Note_on_c, 1, 65, 0
4, 26016, Note_on_c, 1, 58, 78
4, 26061, Note_on_c, 1, 58, 0
4, 26064, Note_on_c, 1, 55, 78
4, 26109, Note_on_c, 1, 55, 0
4, 26112, Note_on_c, 1, 56, 78
4, 26157, Note_on_c, 1, 56, 0
4, 26160, Note_on_c, 1, 53, 78
4, 26205, Note_on_c, 1, 53, 0
4, 26304, Note_on_c, 1, 61, 78
4, 26393, Note_on_c, 1, 61, 0
4, 26400, Note_on_c, 1, 60, 78
4, 26489, Note_on_c, 1, 60, 0
4, 26592, Note_on_c, 1, 59, 78
4, 26681, Note_on_c, 1, 59, 0
4, 26688, Note_on_c, 1, 58, 78
4, 26777, Note_on_c, 1, 58, 0
4, 26784, Note_on_c, 1, 60, 78
4, 26917, Note_on_c, 1, 60, 0
4, 27072, Note_on_c, 1, 58, 78
4, 27161, Note_on_c, 1, 58, 0
4, 27168, Note_on_c, 1, 46, 78
4, 27257, Note_on_c, 1, 46, 0
4, 27456, Note_on_c, 1, 51, 78
4, 27552, Note_on_c, 1, 51, 0
4, 27552, Note_on_c, 1, 56, 78
4, 27641, Note_on_c, 1, 56, 0
4, 27648, Note_on_c, 1, 53, 78
4, 27737, Note_on_c, 1, 53, 0
4, 27744, Note_on_c, 1, 58, 78
4, 27833, Note_on_c, 1, 58, 0
4, 27840, Note_on_c, 1, 56, 78
4, 27929, Note_on_c, 1, 56, 0
4, 27936, Note_on_c, 1, 55, 78
4, 28025, Note_on_c, 1, 55, 0
4, 28032, Note_on_c, 1, 56, 78
4, 28121, Note_on_c, 1, 56, 0
4, 28128, Note_on_c, 1, 57, 78
4, 28217, Note_on_c, 1, 57, 0
4, 28224, Note_on_c, 1, 58, 78
4, 28313, Note_on_c, 1, 58, 0
4, 28320, Note_on_c, 1, 46, 78
4, 28409, Note_on_c, 1, 46, 0
4, 28608, Note_on_c, 1, 51, 78
4, 28628, Note_on_c, 1, 51, 0
4, 28656, Note_on_c, 1, 51, 78
4, 28704, Note_on_c, 1, 51, 0
4, 28704, Note_on_c, 1, 56, 78
4, 28724, Note_on_c, 1, 56, 0
4, 28752, Note_on_c, 1, 56, 78
4, 28800, Note_on_c, 1, 56, 0
4, 28800, Note_on_c, 1, 53, 78
4, 28820, Note_on_c, 1, 53, 0
4, 28848, Note_on_c, 1, 53, 78
4, 28896, Note_on_c, 1, 53, 0
4, 28896, Note_on_c, 1, 58, 78
4, 28916, Note_on_c, 1, 58, 0
4, 28944, Note_on_c, 1, 58, 78
4, 28989, Note_on_c, 1, 58, 0
4, 28992, Note_on_c, 1, 56, 78
4, 29081, Note_on_c, 1, 56, 0
4, 29088, Note_on_c, 1, 55, 78
4, 29177, Note_on_c, 1, 55, 0
4, 29184, Note_on_c, 1, 56, 78
4, 29273, Note_on_c, 1, 56, 0
4, 29280, Note_on_c, 1, 58, 78
4, 29369, Note_on_c, 1, 58, 0
4, 29376, Note_on_c, 1, 51, 78
4, 29465, Note_on_c, 1, 51, 0
4, 29472, Note_on_c, 1, 39, 78
4, 29561, Note_on_c, 1, 39, 0
4, 29760, Note_on_c, 1, 63, 78
4, 29760, Note_on_c, 1, 56, 78
4, 29849, Note_on_c, 1, 63, 0
4, 29849, Note_on_c, 1, 56, 0
4, 29856, Note_on_c, 1, 63, 78
4, 29856, Note_on_c, 1, 58, 78
4, 29945, Note_on_c, 1, 63, 0
4, 29945, Note_on_c, 1, 58, 0
4, 29952, Note_on_c, 1, 63, 78
4, 29952, Note_on_c, 1, 55, 78
4, 30129, Note_on_c, 1, 63, 0
4, 30129, Note_on_c, 1, 55, 0
4, 30144, Note_on_c, 1, 63, 78
4, 30144, Note_on_c, 1, 56, 78
4, 30233, Note_on_c, 1, 63, 0
4, 30233, Note_on_c, 1, 56, 0
4, 30240, Note_on_c, 1, 65, 78
4, 30240, Note_on_c, 1, 61, 78
4, 30417, Note_on_c, 1, 65, 0
4, 30417, Note_on_c, 1, 61, 0
4, 31392, Note_on_c, 1, 65, 78
4, 31392, Note_on_c, 1, 53, 78
4, 31569, Note_on_c, 1, 65, 0
4, 31569, Note_on_c, 1, 53, 0
4, 31584, Note_on_c, 1, 65, 78
4, 31584, Note_on_c, 1, 58, 78
4, 31673, Note_on_c, 1, 65, 0
4, 31673, Note_on_c, 1, 58, 0
4, 31680, Note_on_c, 1, 63, 78
4, 31680, Note_on_c, 1, 51, 78
4, 31769, Note_on_c, 1, 63, 0
4, 31769, Note_on_c, 1, 51, 0
4, 32064, Note_on_c, 1, 63, 78
4, 32064, Note_on_c, 1, 56, 78
4, 32153, Note_on_c, 1, 63, 0
4, 32153, Note_on_c, 1, 56, 0
4, 32160, Note_on_c, 1, 63, 78
4, 32160, Note_on_c, 1, 58, 78
4, 32249, Note_on_c, 1, 63, 0
4, 32249, Note_on_c, 1, 58, 0
4, 32256, Note_on_c, 1, 63, 78
4, 32256, Note_on_c, 1, 55, 78
4, 32433, Note_on_c, 1, 63, 0
4, 32433, Note_on_c, 1, 55, 0
4, 32448, Note_on_c, 1, 63, 78
4, 32448, Note_on_c, 1, 56, 78
4, 32537, Note_on_c, 1, 63, 0
4, 32537, Note_on_c, 1, 56, 0
4, 32544, Note_on_c, 1, 65, 78
4, 32544, Note_on_c, 1, 61, 78
4, 32721, Note_on_c, 1, 65, 0
4, 32721, Note_on_c, 1, 61, 0
4, 33696, Note_on_c, 1, 65, 78
4, 33696, Note_on_c, 1, 53, 78
4, 33873, Note_on_c, 1, 65, 0
4, 33873, Note_on_c, 1, 53, 0
4, 33888, Note_on_c, 1, 65, 78
4, 33888, Note_on_c, 1, 58, 78
4, 33977, Note_on_c, 1, 65, 0
4, 33977, Note_on_c, 1, 58, 0
4, 33984, Note_on_c, 1, 63, 78
4, 33984, Note_on_c, 1, 51, 78
4, 34073, Note_on_c, 1, 63, 0
4, 34073, Note_on_c, 1, 51, 0
4, 34272, Note_on_c, 1, 73, 78
4, 34449, Note_on_c, 1, 73, 0
4, 34464, Note_on_c, 1, 72, 78
4, 34553, Note_on_c, 1, 72, 0
4, 34560, Note_on_c, 1, 67, 78
4, 34737, Note_on_c, 1, 67, 0
4, 34752, Note_on_c, 1, 68, 78
4, 34841, Note_on_c, 1, 68, 0
4, 34848, Note_on_c, 1, 70, 78
4, 34937, Note_on_c, 1, 70, 0
4, 34944, Note_on_c, 1, 67, 78
4, 35033, Note_on_c, 1, 67, 0
4, 35040, Note_on_c, 1, 68, 78
4, 35129, Note_on_c, 1, 68, 0
4, 35136, Note_on_c, 1, 67, 78
4, 35225, Note_on_c, 1, 67, 0
4, 35520, Note_on_c, 1, 63, 78
4, 35520, Note_on_c, 1, 56, 78
4, 35609, Note_on_c, 1, 63, 0
4, 35609, Note_on_c, 1, 56, 0
4, 35616, Note_on_c, 1, 63, 78
4, 35616, Note_on_c, 1, 58, 78
4, 35705, Note_on_c, 1, 63, 0
4, 35705, Note_on_c, 1, 58, 0
4, 35712, Note_on_c, 1, 63, 78
4, 35712, Note_on_c, 1, 55, 78
4, 35889, Note_on_c, 1, 63, 0
4, 35889, Note_on_c, 1, 55, 0
4, 35904, Note_on_c, 1, 63, 78
4, 35904, Note_on_c, 1, 56, 78
4, 35993, Note_on_c, 1, 63, 0
4, 35993, Note_on_c, 1, 56, 0
4, 36000, Note_on_c, 1, 61, 78
4, 36177, Note_on_c, 1, 61, 0
4, 36192, Note_on_c, 1, 60, 78
4, 36281, Note_on_c, 1, 60, 0
4, 36288, Note_on_c, 1, 58, 78
4, 36553, Note_on_c, 1, 58, 0
4, 36576, Note_on_c, 1, 63, 78
4, 36753, Note_on_c, 1, 63, 0
4, 36768, Note_on_c, 1, 53, 78
4, 36791, Note_on_c, 1, 53, 0
4, 36792, Note_on_c, 1, 51, 78
4, 36815, Note_on_c, 1, 51, 0
4, 36816, Note_on_c, 1, 50, 78
4, 36839, Note_on_c, 1, 50, 0
4, 36840, Note_on_c, 1, 51, 78
4, 36863, Note_on_c, 1, 51, 0
4, 36864, Note_on_c, 1, 44, 78
4, 36953, Note_on_c, 1, 44, 0
4, 36960, Note_on_c, 1, 56, 78
4, 37049, Note_on_c, 1, 56, 0
4, 37056, Note_on_c, 1, 56, 78
4, 37417, Note_on_c, 1, 56, 0
4, 37440, Note_on_c, 1, 56, 78
4, 37817, Note_on_c, 1, 56, 0
4, 37824, Note_on_c, 1, 60, 78
4, 37913, Note_on_c, 1, 60, 0
4, 37920, Note_on_c, 1, 58, 78
4, 38009, Note_on_c, 1, 58, 0
4, 38016, Note_on_c, 1, 56, 78
4, 38105, Note_on_c, 1, 56, 0
4, 38112, Note_on_c, 1, 44, 78
4, 38201, Note_on_c, 1, 44, 0
4, 38304, Note_on_c, 1, 73, 78
4, 38481, Note_on_c, 1, 73, 0
4, 38496, Note_on_c, 1, 72, 78
4, 38585, Note_on_c, 1, 72, 0
4, 38592, Note_on_c, 1, 67, 78
4, 38769, Note_on_c, 1, 67, 0
4, 38784, Note_on_c, 1, 68, 78
4, 38873, Note_on_c, 1, 68, 0
4, 38880, Note_on_c, 1, 70, 78
4, 38969, Note_on_c, 1, 70, 0
4, 38976, Note_on_c, 1, 67, 78
4, 39065, Note_on_c, 1, 67, 0
4, 39072, Note_on_c, 1, 68, 78
4, 39161, Note_on_c, 1, 68, 0
4, 39168, Note_on_c, 1, 67, 78
4, 39257, Note_on_c, 1, 67, 0
4, 39552, Note_on_c, 1, 63, 78
4, 39552, Note_on_c, 1, 56, 78
4, 39641, Note_on_c, 1, 63, 0
4, 39641, Note_on_c, 1, 56, 0
4, 39648, Note_on_c, 1, 63, 78
4, 39648, Note_on_c, 1, 58, 78
4, 39737, Note_on_c, 1, 63, 0
4, 39737, Note_on_c, 1, 58, 0
4, 39744, Note_on_c, 1, 63, 78
4, 39744, Note_on_c, 1, 55, 78
4, 39921, Note_on_c, 1, 63, 0
4, 39921, Note_on_c, 1, 55, 0
4, 39936, Note_on_c, 1, 63, 78
4, 39936, Note_on_c, 1, 56, 78
4, 40025, Note_on_c, 1, 63, 0
4, 40025, Note_on_c, 1, 56, 0
4, 40032, Note_on_c, 1, 61, 78
4, 40209, Note_on_c, 1, 61, 0
4, 40224, Note_on_c, 1, 60, 78
4, 40313, Note_on_c, 1, 60, 0
4, 40320, Note_on_c, 1, 58, 78
4, 40585, Note_on_c, 1, 58, 0
4, 40608, Note_on_c, 1, 63, 78
4, 40785, Note_on_c, 1, 63, 0
4, 40800, Note_on_c, 1, 53, 78
4, 40823, Note_on_c, 1, 53, 0
4, 40824, Note_on_c, 1, 51, 78
4, 40847, Note_on_c, 1, 51, 0
4, 40848, Note_on_c, 1, 50, 78
4, 40871, Note_on_c, 1, 50, 0
4, 40872, Note_on_c, 1, 51, 78
4, 40895, Note_on_c, 1, 51, 0
4, 40896, Note_on_c, 1, 44, 78
4, 40985, Note_on_c, 1, 44, 0
4, 40992, Note_on_c, 1, 56, 78
4, 41081, Note_on_c, 1, 56, 0
4, 41088, Note_on_c, 1, 56, 78
4, 41449, Note_on_c, 1, 56, 0
4, 41472, Note_on_c, 1, 56, 78
4, 41849, Note_on_c, 1, 56, 0
4, 41856, Note_on_c, 1, 60, 78
4, 41945, Note_on_c, 1, 60, 0
4, 41952, Note_on_c, 1, 58, 78
4, 42041, Note_on_c, 1, 58, 0
4, 42048, Note_on_c, 1, 56, 78
4, 42137, Note_on_c, 1, 56, 0
4, 42144, Note_on_c, 1, 44, 78
4, 42233, Note_on_c, 1, 44, 0
4, 42432, Note_on_c, 1, 51, 78
4, 42432, Note_on_c, 1, 39, 78
4, 42471, Note_on_c, 1, 51, 0
4, 42471, Note_on_c, 1, 39, 0
4, 42528, Note_on_c, 1, 56, 78
4, 42528, Note_on_c, 1, 44, 78
4, 42567, Note_on_c, 1, 56, 0
4, 42567, Note_on_c, 1, 44, 0
4, 42624, Note_on_c, 1, 53, 78
4, 42624, Note_on_c, 1, 41, 78
4, 42663, Note_on_c, 1, 53, 0
4, 42663, Note_on_c, 1, 41, 0
4, 42720, Note_on_c, 1, 58, 78
4, 42720, Note_on_c, 1, 46, 78
4, 42759, Note_on_c, 1, 58, 0
4, 42759, Note_on_c, 1, 46, 0
4, 42816, Note_on_c, 1, 56, 78
4, 42816, Note_on_c, 1, 44, 78
4, 42855, Note_on_c, 1, 56, 0
4, 42855, Note_on_c, 1, 44, 0
4, 42912, Note_on_c, 1, 55, 78
4, 42912, Note_on_c, 1, 43, 78
4, 42951, Note_on_c, 1, 55, 0
4, 42951, Note_on_c, 1, 43, 0
4, 43008, Note_on_c, 1, 56, 78
4, 43008, Note_on_c, 1, 44, 78
4, 43047, Note_on_c, 1, 56, 0
4, 43047, Note_on_c, 1, 44, 0
4, 43104, Note_on_c, 1, 57, 78
4, 43104, Note_on_c, 1, 45, 78
4, 43143, Note_on_c, 1, 57, 0
4, 43143, Note_on_c, 1, 45, 0
4, 43200, Note_on_c, 1, 58, 78
4, 43239, Note_on_c, 1, 58, 0
4, 43296, Note_on_c, 1, 46, 78
4, 43335, Note_on_c, 1, 46, 0
4, 43584, Note_on_c, 1, 51, 78
4, 43584, Note_on_c, 1, 39, 78
4, 43623, Note_on_c, 1, 51, 0
4, 43623, Note_on_c, 1, 39, 0
4, 43680, Note_on_c, 1, 56, 78
4, 43680, Note_on_c, 1, 44, 78
4, 43719, Note_on_c, 1, 56, 0
4, 43719, Note_on_c, 1, 44, 0
4, 43776, Note_on_c, 1, 53, 78
4, 43776, Note_on_c, 1, 41, 78
4, 43815, Note_on_c, 1, 53, 0
4, 43815, Note_on_c, 1, 41, 0
4, 43872, Note_on_c, 1, 58, 78
4, 43872, Note_on_c, 1, 46, 78
4, 43911, Note_on_c, 1, 58, 0
4, 43911, Note_on_c, 1, 46, 0
4, 43968, Note_on_c, 1, 56, 78
4, 43968, Note_on_c, 1, 44, 78
4, 44007, Note_on_c, 1, 56, 0
4, 44007, Note_on_c, 1, 44, 0
4, 44064, Note_on_c, 1, 55, 78
4, 44064, Note_on_c, 1, 43, 78
4, 44103, Note_on_c, 1, 55, 0
4, 44103, Note_on_c, 1, 43, 0
4, 44160, Note_on_c, 1, 56, 78
4, 44160, Note_on_c, 1, 44, 78
4, 44199, Note_on_c, 1, 56, 0
4, 44199, Note_on_c, 1, 44, 0
4, 44256, Note_on_c, 1, 58, 78
4, 44256, Note_on_c, 1, 46, 78
4, 44295, Note_on_c, 1, 58, 0
4, 44295, Note_on_c, 1, 46, 0
4, 44352, Note_on_c, 1, 51, 78
4, 44391, Note_on_c, 1, 51, 0
4, 44448, Note_on_c, 1, 39, 78
4, 44487, Note_on_c, 1, 39, 0
4, 44736, Note_on_c, 1, 51, 78
4, 44736, Note_on_c, 1, 39, 78
4, 44775, Note_on_c, 1, 51, 0
4, 44775, Note_on_c, 1, 39, 0
4, 44832, Note_on_c, 1, 56, 78
4, 44832, Note_on_c, 1, 44, 78
4, 44871, Note_on_c, 1, 56, 0
4, 44871, Note_on_c, 1, 44, 0
4, 44928, Note_on_c, 1, 53, 78
4, 44928, Note_on_c, 1, 41, 78
4, 44967, Note_on_c, 1, 53, 0
4, 44967, Note_on_c, 1, 41, 0
4, 45024, Note_on_c, 1, 58, 78
4, 45024, Note_on_c, 1, 46, 78
4, 45063, Note_on_c, 1, 58, 0
4, 45063, Note_on_c, 1, 46, 0
4, 45120, Note_on_c, 1, 56, 78
4, 45120, Note_on_c, 1, 44, 78
4, 45159, Note_on_c, 1, 56, 0
4, 45159, Note_on_c, 1, 44, 0
4, 45216, Note_on_c, 1, 55, 78
4, 45216, Note_on_c, 1, 43, 78
4, 45255, Note_on_c, 1, 55, 0
4, 45255, Note_on_c, 1, 43, 0
4, 45312, Note_on_c, 1, 56, 78
4, 45312, Note_on_c, 1, 44, 78
4, 45351, Note_on_c, 1, 56, 0
4, 45351, Note_on_c, 1, 44, 0
4, 45408, Note_on_c, 1, 57, 78
4, 45408, Note_on_c, 1, 45, 78
4, 45447, Note_on_c, 1, 57, 0
4, 45447, Note_on_c, 1, 45, 0
4, 45504, Note_on_c, 1, 58, 78
4, 45543, Note_on_c, 1, 58, 0
4, 45600, Note_on_c, 1, 46, 78
4, 45639, Note_on_c, 1, 46, 0
4, 45888, Note_on_c, 1, 51, 78
4, 45888, Note_on_c, 1, 39, 78
4, 45927, Note_on_c, 1, 51, 0
4, 45927, Note_on_c, 1, 39, 0
4, 45984, Note_on_c, 1, 56, 78
4, 45984, Note_on_c, 1, 44, 78
4, 46023, Note_on_c, 1, 56, 0
4, 46023, Note_on_c, 1, 44, 0
4, 46080, Note_on_c, 1, 53, 78
4, 46080, Note_on_c, 1, 41, 78
4, 46119, Note_on_c, 1, 53, 0
4, 46119, Note_on_c, 1, 41, 0
4, 46176, Note_on_c, 1, 58, 78
4, 46176, Note_on_c, 1, 46, 78
4, 46215, Note_on_c, 1, 58, 0
4, 46215, Note_on_c, 1, 46, 0
4, 46272, Note_on_c, 1, 56, 78
4, 46272, Note_on_c, 1, 44, 78
4, 46311, Note_on_c, 1, 56, 0
4, 46311, Note_on_c, 1, 44, 0
4, 46368, Note_on_c, 1, 55, 78
4, 46368, Note_on_c, 1, 43, 78
4, 46407, Note_on_c, 1, 55, 0
4, 46407, Note_on_c, 1, 43, 0
4, 46464, Note_on_c, 1, 56, 78
4, 46464, Note_on_c, 1, 44, 78
4, 46503, Note_on_c, 1, 56, 0
4, 46503, Note_on_c, 1, 44, 0
4, 46560, Note_on_c, 1, 58, 78
4, 46560, Note_on_c, 1, 46, 78
4, 46599, Note_on_c, 1, 58, 0
4, 46599, Note_on_c, 1, 46, 0
4, 46656, Note_on_c, 1, 51, 78
4, 46695, Note_on_c, 1, 51, 0
4, 46752, Note_on_c, 1, 39, 78
4, 46791, Note_on_c, 1, 39, 0
4, 46848, Note_on_c, 1, 63, 78
4, 46937, Note_on_c, 1, 63, 0
4, 46944, Note_on_c, 1, 62, 78
4, 47033, Note_on_c, 1, 62, 0
4, 47040, Note_on_c, 1, 55, 78
4, 47129, Note_on_c, 1, 55, 0
4, 47136, Note_on_c, 1, 60, 78
4, 47225, Note_on_c, 1, 60, 0
4, 47232, Note_on_c, 1, 53, 78
4, 47321, Note_on_c, 1, 53, 0
4, 47328, Note_on_c, 1, 57, 78
4, 47417, Note_on_c, 1, 57, 0
4, 47424, Note_on_c, 1, 58, 78
4, 47513, Note_on_c, 1, 58, 0
4, 47520, Note_on_c, 1, 51, 78
4, 47697, Note_on_c, 1, 51, 0
4, 47712, Note_on_c, 1, 52, 78
4, 47801, Note_on_c, 1, 52, 0
4, 47808, Note_on_c, 1, 53, 78
4, 47897, Note_on_c, 1, 53, 0
4, 47904, Note_on_c, 1, 41, 78
4, 47993, Note_on_c, 1, 41, 0
4, 48192, Note_on_c, 1, 58, 78
4, 48281, Note_on_c, 1, 58, 0
4, 48288, Note_on_c, 1, 63, 78
4, 48333, Note_on_c, 1, 63, 0
4, 48336, Note_on_c, 1, 65, 78
4, 48381, Note_on_c, 1, 65, 0
4, 48384, Note_on_c, 1, 67, 78
4, 48429, Note_on_c, 1, 67, 0
4, 48432, Note_on_c, 1, 63, 78
4, 48477, Note_on_c, 1, 63, 0
4, 48480, Note_on_c, 1, 62, 78
4, 48525, Note_on_c, 1, 62, 0
4, 48528, Note_on_c, 1, 60, 78
4, 48573, Note_on_c, 1, 60, 0
4, 48576, Note_on_c, 1, 63, 78
4, 48665, Note_on_c, 1, 63, 0
4, 48672, Note_on_c, 1, 62, 78
4, 48761, Note_on_c, 1, 62, 0
4, 48768, Note_on_c, 1, 63, 78
4, 48857, Note_on_c, 1, 63, 0
4, 48864, Note_on_c, 1, 65, 78
4, 48953, Note_on_c, 1, 65, 0
4, 49056, Note_on_c, 1, 58, 78
4, 49101, Note_on_c, 1, 58, 0
4, 49104, Note_on_c, 1, 55, 78
4, 49149, Note_on_c, 1, 55, 0
4, 49152, Note_on_c, 1, 56, 78
4, 49197, Note_on_c, 1, 56, 0
4, 49200, Note_on_c, 1, 53, 78
4, 49245, Note_on_c, 1, 53, 0
4, 49344, Note_on_c, 1, 61, 78
4, 49433, Note_on_c, 1, 61, 0
4, 49440, Note_on_c, 1, 60, 78
4, 49529, Note_on_c, 1, 60, 0
4, 49632, Note_on_c, 1, 59, 78
4, 49721, Note_on_c, 1, 59, 0
4, 49728, Note_on_c, 1, 58, 78
4, 49817, Note_on_c, 1, 58, 0
4, 49824, Note_on_c, 1, 60, 78
4, 49957, Note_on_c, 1, 60, 0
4, 50112, Note_on_c, 1, 58, 78
4, 50201, Note_on_c, 1, 58, 0
4, 50208, Note_on_c, 1, 46, 78
4, 50297, Note_on_c, 1, 46, 0
4, 50496, Note_on_c, 1, 51, 78
4, 50592, Note_on_c, 1, 51, 0
4, 50592, Note_on_c, 1, 56, 78
4, 50681, Note_on_c, 1, 56, 0
4, 50688, Note_on_c, 1, 53, 78
4, 50777, Note_on_c, 1, 53, 0
4, 50784, Note_on_c, 1, 58, 78
4, 50873, Note_on_c, 1, 58, 0
4, 50880, Note_on_c, 1, 56, 78
4, 50969, Note_on_c, 1, 56, 0
4, 50976, Note_on_c, 1, 55, 78
4, 51065, Note_on_c, 1, 55, 0
4, 51072, Note_on_c, 1, 56, 78
4, 51161, Note_on_c, 1, 56, 0
4, 51168, Note_on_c, 1, 57, 78
4, 51257, Note_on_c, 1, 57, 0
4, 51264, Note_on_c, 1, 58, 78
4, 51353, Note_on_c, 1, 58, 0
4, 51360, Note_on_c, 1, 46, 78
4, 51449, Note_on_c, 1, 46, 0
4, 51648, Note_on_c, 1, 51, 78
4, 51668, Note_on_c, 1, 51, 0
4, 51696, Note_on_c, 1, 51, 78
4, 51744, Note_on_c, 1, 51, 0
4, 51744, Note_on_c, 1, 56, 78
4, 51764, Note_on_c, 1, 56, 0
4, 51792, Note_on_c, 1, 56, 78
4, 51840, Note_on_c, 1, 56, 0
4, 51840, Note_on_c, 1, 53, 78
4, 51860, Note_on_c, 1, 53, 0
4, 51888, Note_on_c, 1, 53, 78
4, 51936, Note_on_c, 1, 53, 0
4, 51936, Note_on_c, 1, 58, 78
4, 51956, Note_on_c, 1, 58, 0
4, 51984, Note_on_c, 1, 58, 78
4, 52029, Note_on_c, 1, 58, 0
4, 52032, Note_on_c, 1, 56, 78
4, 52121, Note_on_c, 1, 56, 0
4, 52128, Note_on_c, 1, 55, 78
4, 52217, Note_on_c, 1, 55, 0
4, 52224, Note_on_c, 1, 56, 78
4, 52313, Note_on_c, 1, 56, 0
4, 52320, Note_on_c, 1, 58, 78
4, 52409, Note_on_c, 1, 58, 0
4, 52416, Note_on_c, 1, 51, 78
4, 52505, Note_on_c, 1, 51, 0
4, 52512, Note_on_c, 1, 39, 78
4, 52601, Note_on_c, 1, 39, 0
4, 52608, Note_on_c, 1, 63, 78
4, 52697, Note_on_c, 1, 63, 0
4, 52704, Note_on_c, 1, 62, 78
4, 52793, Note_on_c, 1, 62, 0
4, 52800, Note_on_c, 1, 55, 78
4, 52889, Note_on_c, 1, 55, 0
4, 52896, Note_on_c, 1, 60, 78
4, 52985, Note_on_c, 1, 60, 0
4, 52992, Note_on_c, 1, 53, 78
4, 53081, Note_on_c, 1, 53, 0
4, 53088, Note_on_c, 1, 57, 78
4, 53177, Note_on_c, 1, 57, 0
4, 53184, Note_on_c, 1, 58, 78
4, 53273, Note_on_c, 1, 58, 0
4, 53280, Note_on_c, 1, 51, 78
4, 53457, Note_on_c, 1, 51, 0
4, 53472, Note_on_c, 1, 52, 78
4, 53561, Note_on_c, 1, 52, 0
4, 53568, Note_on_c, 1, 53, 78
4, 53657, Note_on_c, 1, 53, 0
4, 53664, Note_on_c, 1, 41, 78
4, 53753, Note_on_c, 1, 41, 0
4, 53952, Note_on_c, 1, 58, 78
4, 54041, Note_on_c, 1, 58, 0
4, 54048, Note_on_c, 1, 63, 78
4, 54093, Note_on_c, 1, 63, 0
4, 54096, Note_on_c, 1, 65, 78
4, 54141, Note_on_c, 1, 65, 0
4, 54144, Note_on_c, 1, 67, 78
4, 54189, Note_on_c, 1, 67, 0
4, 54192, Note_on_c, 1, 63, 78
4, 54237, Note_on_c, 1, 63, 0
4, 54240, Note_on_c, 1, 62, 78
4, 54285, Note_on_c, 1, 62, 0
4, 54288, Note_on_c, 1, 60, 78
4, 54333, Note_on_c, 1, 60, 0
4, 54336, Note_on_c, 1, 63, 78
4, 54425, Note_on_c, 1, 63, 0
4, 54432, Note_on_c, 1, 62, 78
4, 54521, Note_on_c, 1, 62, 0
4, 54528, Note_on_c, 1, 63, 78
4, 54617, Note_on_c, 1, 63, 0
4, 54624, Note_on_c, 1, 65, 78
4, 54713, Note_on_c, 1, 65, 0
4, 54816, Note_on_c, 1, 58, 78
4, 54861, Note_on_c, 1, 58, 0
4, 54864, Note_on_c, 1, 55, 78
4, 54909, Note_on_c, 1, 55, 0
4, 54912, Note_on_c, 1, 56, 78
4, 54957, Note_on_c, 1, 56, 0
4, 54960, Note_on_c, 1, 53, 78
4, 55005, Note_on_c, 1, 53, 0
4, 55104, Note_on_c, 1, 61, 78
4, 55193, Note_on_c, 1, 61, 0
4, 55200, Note_on_c, 1, 60, 78
4, 55289, Note_on_c, 1, 60, 0
4, 55392, Note_on_c, 1, 59, 78
4, 55481, Note_on_c, 1, 59, 0
4, 55488, Note_on_c, 1, 58, 78
4, 55577, Note_on_c, 1, 58, 0
4, 55584, Note_on_c, 1, 60, 78
4, 55717, Note_on_c, 1, 60, 0
4, 55872, Note_on_c, 1, 58, 78
4, 55961, Note_on_c, 1, 58, 0
4, 55968, Note_on_c, 1, 46, 78
4, 56057, Note_on_c, 1, 46, 0
4, 56256, Note_on_c, 1, 51, 78
4, 56352, Note_on_c, 1, 51, 0
4, 56352, Note_on_c, 1, 56, 78
4, 56441, Note_on_c, 1, 56, 0
4, 56448, Note_on_c, 1, 53, 78
4, 56537, Note_on_c, 1, 53, 0
4, 56544, Note_on_c, 1, 58, 78
4, 56633, Note_on_c, 1, 58, 0
4, 56640, Note_on_c, 1, 56, 78
4, 56729, Note_on_c, 1, 56, 0
4, 56736, Note_on_c, 1, 55, 78
4, 56825, Note_on_c, 1, 55, 0
4, 56832, Note_on_c, 1, 56, 78
4, 56921, Note_on_c, 1, 56, 0
4, 56928, Note_on_c, 1, 57, 78
4, 57017, Note_on_c, 1, 57, 0
4, 57024, Note_on_c, 1, 58, 78
4, 57113, Note_on_c, 1, 58, 0
4, 57120, Note_on_c, 1, 46, 78
4, 57209, Note_on_c, 1, 46, 0
4, 57408, Note_on_c, 1, 51, 78
4, 57428, Note_on_c, 1, 51, 0
4, 57456, Note_on_c, 1, 51, 78
4, 57504, Note_on_c, 1, 51, 0
4, 57504, Note_on_c, 1, 56, 78
4, 57524, Note_on_c, 1, 56, 0
4, 57552, Note_on_c, 1, 56, 78
4, 57600, Note_on_c, 1, 56, 0
4, 57600, Note_on_c, 1, 53, 78
4, 57620, Note_on_c, 1, 53, 0
4, 57648, Note_on_c, 1, 53, 78
4, 57696, Note_on_c, 1, 53, 0
4, 57696, Note_on_c, 1, 58, 78
4, 57716, Note_on_c, 1, 58, 0
4, 57744, Note_on_c, 1, 58, 78
4, 57789, Note_on_c, 1, 58, 0
4, 57792, Note_on_c, 1, 56, 78
4, 57881, Note_on_c, 1, 56, 0
4, 57888, Note_on_c, 1, 55, 78
4, 57977, Note_on_c, 1, 55, 0
4, 57984, Note_on_c, 1, 56, 78
4, 58073, Note_on_c, 1, 56, 0
4, 58080, Note_on_c, 1, 58, 78
4, 58169, Note_on_c, 1, 58, 0
4, 58176, Note_on_c, 1, 51, 78
4, 58265, Note_on_c, 1, 51, 0
4, 58272, Note_on_c, 1, 39, 78
4, 58449, Note_on_c, 1, 39, 0
4, 58464, End_track
5, 0, Start_track
5, 0, Program_c, 1, 0
5, 0, Control_c, 1, 7, 127
5, 0, Control_c, 1, 10, 64
5, 2592, Note_on_c, 1, 56, 64
5, 2637, Note_on_c, 1, 56, 0
5, 2640, Note_on_c, 1, 46, 64
5, 2729, Note_on_c, 1, 46, 0
5, 6336, Note_on_c, 1, 56, 64
5, 6381, Note_on_c, 1, 56, 0
5, 6384, Note_on_c, 1, 46, 64
5, 6473, Note_on_c, 1, 46, 0
5, 8352, Note_on_c, 1, 51, 64
5, 8485, Note_on_c, 1, 51, 0
5, 8496, Note_on_c, 1, 52, 64
5, 8629, Note_on_c, 1, 52, 0
5, 8640, Note_on_c, 1, 53, 64
5, 8773, Note_on_c, 1, 53, 0
5, 8784, Note_on_c, 1, 53, 64
5, 8917, Note_on_c, 1, 53, 0
5, 8928, Note_on_c, 1, 51, 64
5, 9061, Note_on_c, 1, 51, 0
5, 9072, Note_on_c, 1, 47, 64
5, 9161, Note_on_c, 1, 47, 0
5, 9168, Note_on_c, 1, 48, 64
5, 9213, Note_on_c, 1, 48, 0
5, 11088, Note_on_c, 1, 55, 64
5, 11221, Note_on_c, 1, 55, 0
5, 20448, Note_on_c, 1, 52, 64
5, 20625, Note_on_c, 1, 52, 0
5, 20640, Note_on_c, 1, 53, 64
5, 20729, Note_on_c, 1, 53, 0
5, 20736, Note_on_c, 1, 50, 64
5, 20913, Note_on_c, 1, 50, 0
5, 20928, Note_on_c, 1, 51, 64
5, 21017, Note_on_c, 1, 51, 0
5, 21024, Note_on_c, 1, 56, 64
5, 21201, Note_on_c, 1, 56, 0
5, 21216, Note_on_c, 1, 57, 64
5, 21305, Note_on_c, 1, 57, 0
5, 21312, Note_on_c, 1, 58, 64
5, 21401, Note_on_c, 1, 58, 0
5, 26208, Note_on_c, 1, 52, 64
5, 26385, Note_on_c, 1, 52, 0
5, 26400, Note_on_c, 1, 53, 64
5, 26489, Note_on_c, 1, 53, 0
5, 26496, Note_on_c, 1, 50, 64
5, 26673, Note_on_c, 1, 50, 0
5, 26688, Note_on_c, 1, 51, 64
5, 26777, Note_on_c, 1, 51, 0
5, 26784, Note_on_c, 1, 56, 64
5, 26961, Note_on_c, 1, 56, 0
5, 26976, Note_on_c, 1, 57, 64
5, 27065, Note_on_c, 1, 57, 0
5, 27072, Note_on_c, 1, 58, 64
5, 27161, Note_on_c, 1, 58, 0
5, 30240, Note_on_c, 1, 61, 64
5, 30417, Note_on_c, 1, 61, 0
5, 30432, Note_on_c, 1, 68, 64
5, 30432, Note_on_c, 1, 60, 64
5, 30521, Note_on_c, 1, 68, 0
5, 30521, Note_on_c, 1, 60, 0
5, 30528, Note_on_c, 1, 67, 64
5, 30528, Note_on_c, 1, 58, 64
5, 30617, Note_on_c, 1, 67, 0
5, 30617, Note_on_c, 1, 58, 0
5, 30624, Note_on_c, 1, 68, 64
5, 30624, Note_on_c, 1, 56, 64
5, 30713, Note_on_c, 1, 68, 0
5, 30713, Note_on_c, 1, 56, 0
5, 30912, Note_on_c, 1, 63, 64
5, 30912, Note_on_c, 1, 56, 64
5, 31001, Note_on_c, 1, 63, 0
5, 31001, Note_on_c, 1, 56, 0
5, 31008, Note_on_c, 1, 63, 64
5, 31008, Note_on_c, 1, 58, 64
5, 31097, Note_on_c, 1, 63, 0
5, 31097, Note_on_c, 1, 58, 0
5, 31104, Note_on_c, 1, 63, 64
5, 31104, Note_on_c, 1, 55, 64
5, 31281, Note_on_c, 1, 63, 0
5, 31281, Note_on_c, 1, 55, 0
5, 31296, Note_on_c, 1, 63, 64
5, 31296, Note_on_c, 1, 56, 64
5, 31385, Note_on_c, 1, 63, 0
5, 31385, Note_on_c, 1, 56, 0
5, 32544, Note_on_c, 1, 61, 64
5, 32721, Note_on_c, 1, 61, 0
5, 32736, Note_on_c, 1, 68, 64
5, 32736, Note_on_c, 1, 60, 64
5, 32825, Note_on_c, 1, 68, 0
5, 32825, Note_on_c, 1, 60, 0
5, 32832, Note_on_c, 1, 67, 64
5, 32832, Note_on_c, 1, 58, 64
5, 32921, Note_on_c, 1, 67, 0
5, 32921, Note_on_c, 1, 58, 0
5, 32928, Note_on_c, 1, 68, 64
5, 32928, Note_on_c, 1, 56, 64
5, 33017, Note_on_c, 1, 68, 0
5, 33017, Note_on_c, 1, 56, 0
5, 33216, Note_on_c, 1, 63, 64
5, 33216, Note_on_c, 1, 56, 64
5, 33305, Note_on_c, 1, 63, 0
5, 33305, Note_on_c, 1, 56, 0
5, 33312, Note_on_c, 1, 63, 64
5, 33312, Note_on_c, 1, 58, 64
5, 33401, Note_on_c, 1, 63, 0
5, 33401, Note_on_c, 1, 58, 0
5, 33408, Note_on_c, 1, 63, 64
5, 33408, Note_on_c, 1, 55, 64
5, 33585, Note_on_c, 1, 63, 0
5, 33585, Note_on_c, 1, 55, 0
5, 33600, Note_on_c, 1, 63, 64
5, 33600, Note_on_c, 1, 56, 64
5, 33689, Note_on_c, 1, 63, 0
5, 33689, Note_on_c, 1, 56, 0
5, 34272, Note_on_c, 1, 63, 64
5, 34537, Note_on_c, 1, 63, 0
5, 34560, Note_on_c, 1, 63, 64
5, 35113, Note_on_c, 1, 63, 0
5, 35136, Note_on_c, 1, 63, 64
5, 35225, Note_on_c, 1, 63, 0
5, 37056, Note_on_c, 1, 54, 64
5, 37145, Note_on_c, 1, 54, 0
5, 37152, Note_on_c, 1, 53, 64
5, 37241, Note_on_c, 1, 53, 0
5, 37248, Note_on_c, 1, 51, 64
5, 37337, Note_on_c, 1, 51, 0
5, 37344, Note_on_c, 1, 49, 64
5, 37433, Note_on_c, 1, 49, 0
5, 37440, Note_on_c, 1, 48, 64
5, 37617, Note_on_c, 1, 48, 0
5, 37632, Note_on_c, 1, 49, 64
5, 37721, Note_on_c, 1, 49, 0
5, 37728, Note_on_c, 1, 51, 64
5, 37993, Note_on_c, 1, 51, 0
5, 38016, Note_on_c, 1, 56, 64
5, 38105, Note_on_c, 1, 56, 0
5, 38304, Note_on_c, 1, 63, 64
5, 38569, Note_on_c, 1, 63, 0
5, 38592, Note_on_c, 1, 63, 64
5, 39145, Note_on_c, 1, 63, 0
5, 39168, Note_on_c, 1, 63, 64
5, 39257, Note_on_c, 1, 63, 0
5, 41088, Note_on_c, 1, 54, 64
5, 41177, Note_on_c, 1, 54, 0
5, 41184, Note_on_c, 1, 53, 64
5, 41273, Note_on_c, 1, 53, 0
5, 41280, Note_on_c, 1, 51, 64
5, 41369, Note_on_c, 1, 51, 0
5, 41376, Note_on_c, 1, 49, 64
5, 41465, Note_on_c, 1, 49, 0
5, 41472, Note_on_c, 1, 48, 64
5, 41649, Note_on_c, 1, 48, 0
5, 41664, Note_on_c, 1, 49, 64
5, 41753, Note_on_c, 1, 49, 0
5, 41760, Note_on_c, 1, 51, 64
5, 42025, Note_on_c, 1, 51, 0
5, 49248, Note_on_c, 1, 52, 64
5, 49425, Note_on_c, 1, 52, 0
5, 49440, Note_on_c, 1, 53, 64
5, 49529, Note_on_c, 1, 53, 0
5, 49536, Note_on_c, 1, 50, 64
5, 49713, Note_on_c, 1, 50, 0
5, 49728, Note_on_c, 1, 51, 64
5, 49817, Note_on_c, 1, 51, 0
5, 49824, Note_on_c, 1, 56, 64
5, 50001, Note_on_c, 1, 56, 0
5, 50016, Note_on_c, 1, 57, 64
5, 50105, Note_on_c, 1, 57, 0
5, 50112, Note_on_c, 1, 58, 64
5, 50201, Note_on_c, 1, 58, 0
5, 55008, Note_on_c, 1, 52, 64
5, 55185, Note_on_c, 1, 52, 0
5, 55200, Note_on_c, 1, 53, 64
5, 55289, Note_on_c, 1, 53, 0
5, 55296, Note_on_c, 1, 50, 64
5, 55473, Note_on_c, 1, 50, 0
5, 55488, Note_on_c, 1, 51, 64
5, 55577, Note_on_c, 1, 51, 0
5, 55584, Note_on_c, 1, 56, 64
5, 55761, Note_on_c, 1, 56, 0
5, 55776, Note_on_c, 1, 57, 64
5, 55865, Note_on_c, 1, 57, 0
5, 55872, Note_on_c, 1, 58, 64
5, 55961, Note_on_c, 1, 58, 0
5, 58464, End_track
6, 0, Start_track
6, 0, Title_t, "Sonata IV   Haydn"
6, 0, End_track
0, 0, End_of_file
