0, 0, Header, 1, 6, 96
1, 0, Start_track
1, 0, Copyright_t, "1780"
1, 0, Text_t, "Sonata I\015\012"
1, 0, Text_t, "Hob. XVI: 35"
1, 0, Sequencer_specific, 16, 68, 87, 77, 90, 86, 82, 83, 78, 32, 55, 46, 49, 46, 49, 46, 48
1, 0, Time_signature, 4, 2, 24, 8
1, 0, Tempo, 100000
1, 0, Key_signature, 0, "major"
1, 288, Tempo, 375000
1, 64512, Tempo, 1000000
1, 64896, Tempo, 375000
1, 87744, Tempo, 1000000
1, 87936, Tempo, 375000
1, 108672, Tempo, 1000000
1, 109056, Tempo, 375000
1, 131904, Tempo, 1000000
1, 132096, Tempo, 375000
1, 140160, End_track
2, 0, Start_track
2, 0, Program_c, 0, 0
2, 0, Control_c, 0, 7, 127
2, 0, Control_c, 0, 10, 64
2, 288, Note_on_c, 0, 72, 79
2, 355, Note_on_c, 0, 72, 0
2, 360, Note_on_c, 0, 76, 79
2, 383, Note_on_c, 0, 76, 0
2, 384, Note_on_c, 0, 79, 79
2, 423, Note_on_c, 0, 79, 0
2, 480, Note_on_c, 0, 79, 79
2, 519, Note_on_c, 0, 79, 0
2, 576, Note_on_c, 0, 79, 79
2, 615, Note_on_c, 0, 79, 0
2, 672, Note_on_c, 0, 83, 85
2, 684, Note_on_c, 0, 83, 0
2, 684, Note_on_c, 0, 84, 85
2, 711, Note_on_c, 0, 84, 0
2, 768, Note_on_c, 0, 79, 79
2, 807, Note_on_c, 0, 79, 0
2, 864, Note_on_c, 0, 79, 79
2, 903, Note_on_c, 0, 79, 0
2, 960, Note_on_c, 0, 79, 79
2, 999, Note_on_c, 0, 79, 0
2, 1056, Note_on_c, 0, 76, 79
2, 1123, Note_on_c, 0, 76, 0
2, 1128, Note_on_c, 0, 72, 79
2, 1151, Note_on_c, 0, 72, 0
2, 1152, Note_on_c, 0, 71, 79
2, 1191, Note_on_c, 0, 71, 0
2, 1248, Note_on_c, 0, 71, 80
2, 1287, Note_on_c, 0, 71, 0
2, 1344, Note_on_c, 0, 72, 82
2, 1383, Note_on_c, 0, 72, 0
2, 1440, Note_on_c, 0, 72, 83
2, 1479, Note_on_c, 0, 72, 0
2, 1536, Note_on_c, 0, 74, 85
2, 1625, Note_on_c, 0, 74, 0
2, 1824, Note_on_c, 0, 67, 79
2, 1891, Note_on_c, 0, 67, 0
2, 1896, Note_on_c, 0, 74, 79
2, 1919, Note_on_c, 0, 74, 0
2, 1920, Note_on_c, 0, 77, 79
2, 1959, Note_on_c, 0, 77, 0
2, 2016, Note_on_c, 0, 77, 79
2, 2088, Note_on_c, 0, 77, 0
2, 2088, Note_on_c, 0, 79, 79
2, 2111, Note_on_c, 0, 79, 0
2, 2112, Note_on_c, 0, 76, 79
2, 2151, Note_on_c, 0, 76, 0
2, 2208, Note_on_c, 0, 76, 79
2, 2280, Note_on_c, 0, 76, 0
2, 2280, Note_on_c, 0, 77, 79
2, 2303, Note_on_c, 0, 77, 0
2, 2304, Note_on_c, 0, 74, 79
2, 2343, Note_on_c, 0, 74, 0
2, 2400, Note_on_c, 0, 74, 79
2, 2472, Note_on_c, 0, 74, 0
2, 2472, Note_on_c, 0, 76, 79
2, 2495, Note_on_c, 0, 76, 0
2, 2496, Note_on_c, 0, 72, 79
2, 2535, Note_on_c, 0, 72, 0
2, 2592, Note_on_c, 0, 72, 79
2, 2631, Note_on_c, 0, 72, 0
2, 2688, Note_on_c, 0, 74, 79
2, 2727, Note_on_c, 0, 74, 0
2, 2784, Note_on_c, 0, 74, 79
2, 2823, Note_on_c, 0, 74, 0
2, 2880, Note_on_c, 0, 71, 79
2, 2919, Note_on_c, 0, 71, 0
2, 2976, Note_on_c, 0, 71, 79
2, 3015, Note_on_c, 0, 71, 0
2, 3072, Note_on_c, 0, 72, 85
2, 3111, Note_on_c, 0, 72, 0
2, 3360, Note_on_c, 0, 72, 85
2, 3427, Note_on_c, 0, 72, 0
2, 3432, Note_on_c, 0, 76, 85
2, 3455, Note_on_c, 0, 76, 0
2, 3456, Note_on_c, 0, 79, 85
2, 3495, Note_on_c, 0, 79, 0
2, 3552, Note_on_c, 0, 79, 85
2, 3591, Note_on_c, 0, 79, 0
2, 3648, Note_on_c, 0, 79, 85
2, 3687, Note_on_c, 0, 79, 0
2, 3744, Note_on_c, 0, 83, 85
2, 3756, Note_on_c, 0, 83, 0
2, 3756, Note_on_c, 0, 84, 85
2, 3783, Note_on_c, 0, 84, 0
2, 3840, Note_on_c, 0, 79, 79
2, 3879, Note_on_c, 0, 79, 0
2, 3936, Note_on_c, 0, 79, 79
2, 3975, Note_on_c, 0, 79, 0
2, 4032, Note_on_c, 0, 79, 79
2, 4071, Note_on_c, 0, 79, 0
2, 4128, Note_on_c, 0, 77, 79
2, 4151, Note_on_c, 0, 77, 0
2, 4152, Note_on_c, 0, 76, 79
2, 4175, Note_on_c, 0, 76, 0
2, 4176, Note_on_c, 0, 74, 79
2, 4199, Note_on_c, 0, 74, 0
2, 4200, Note_on_c, 0, 72, 79
2, 4223, Note_on_c, 0, 72, 0
2, 4224, Note_on_c, 0, 71, 85
2, 4263, Note_on_c, 0, 71, 0
2, 4320, Note_on_c, 0, 71, 86
2, 4359, Note_on_c, 0, 71, 0
2, 4416, Note_on_c, 0, 72, 88
2, 4455, Note_on_c, 0, 72, 0
2, 4512, Note_on_c, 0, 72, 90
2, 4551, Note_on_c, 0, 72, 0
2, 4608, Note_on_c, 0, 74, 92
2, 4697, Note_on_c, 0, 74, 0
2, 4896, Note_on_c, 0, 67, 85
2, 4963, Note_on_c, 0, 67, 0
2, 4968, Note_on_c, 0, 74, 85
2, 4991, Note_on_c, 0, 74, 0
2, 4992, Note_on_c, 0, 77, 85
2, 5031, Note_on_c, 0, 77, 0
2, 5088, Note_on_c, 0, 77, 85
2, 5160, Note_on_c, 0, 77, 0
2, 5160, Note_on_c, 0, 79, 85
2, 5183, Note_on_c, 0, 79, 0
2, 5184, Note_on_c, 0, 76, 85
2, 5223, Note_on_c, 0, 76, 0
2, 5280, Note_on_c, 0, 76, 85
2, 5352, Note_on_c, 0, 76, 0
2, 5352, Note_on_c, 0, 77, 85
2, 5375, Note_on_c, 0, 77, 0
2, 5376, Note_on_c, 0, 74, 85
2, 5415, Note_on_c, 0, 74, 0
2, 5472, Note_on_c, 0, 74, 86
2, 5544, Note_on_c, 0, 74, 0
2, 5544, Note_on_c, 0, 76, 88
2, 5567, Note_on_c, 0, 76, 0
2, 5568, Note_on_c, 0, 72, 88
2, 5607, Note_on_c, 0, 72, 0
2, 5664, Note_on_c, 0, 72, 90
2, 5703, Note_on_c, 0, 72, 0
2, 5760, Note_on_c, 0, 74, 92
2, 5799, Note_on_c, 0, 74, 0
2, 5856, Note_on_c, 0, 74, 90
2, 5895, Note_on_c, 0, 74, 0
2, 5952, Note_on_c, 0, 71, 88
2, 5991, Note_on_c, 0, 71, 0
2, 6048, Note_on_c, 0, 71, 86
2, 6087, Note_on_c, 0, 71, 0
2, 6144, Note_on_c, 0, 72, 79
2, 6409, Note_on_c, 0, 72, 0
2, 6432, Note_on_c, 0, 76, 82
2, 6504, Note_on_c, 0, 76, 0
2, 6504, Note_on_c, 0, 79, 83
2, 6527, Note_on_c, 0, 79, 0
2, 6528, Note_on_c, 0, 77, 83
2, 6567, Note_on_c, 0, 77, 0
2, 6624, Note_on_c, 0, 77, 85
2, 6696, Note_on_c, 0, 77, 0
2, 6696, Note_on_c, 0, 81, 83
2, 6719, Note_on_c, 0, 81, 0
2, 6720, Note_on_c, 0, 71, 83
2, 6759, Note_on_c, 0, 71, 0
2, 6816, Note_on_c, 0, 71, 81
2, 6888, Note_on_c, 0, 71, 0
2, 6888, Note_on_c, 0, 74, 79
2, 6911, Note_on_c, 0, 74, 0
2, 6912, Note_on_c, 0, 72, 79
2, 6951, Note_on_c, 0, 72, 0
2, 7008, Note_on_c, 0, 72, 80
2, 7080, Note_on_c, 0, 72, 0
2, 7080, Note_on_c, 0, 76, 81
2, 7103, Note_on_c, 0, 76, 0
2, 7104, Note_on_c, 0, 79, 82
2, 7143, Note_on_c, 0, 79, 0
2, 7200, Note_on_c, 0, 84, 83
2, 7272, Note_on_c, 0, 84, 0
2, 7272, Note_on_c, 0, 76, 84
2, 7295, Note_on_c, 0, 76, 0
2, 7296, Note_on_c, 0, 77, 85
2, 7335, Note_on_c, 0, 77, 0
2, 7392, Note_on_c, 0, 81, 83
2, 7464, Note_on_c, 0, 81, 0
2, 7464, Note_on_c, 0, 72, 82
2, 7487, Note_on_c, 0, 72, 0
2, 7488, Note_on_c, 0, 71, 82
2, 7527, Note_on_c, 0, 71, 0
2, 7584, Note_on_c, 0, 77, 80
2, 7656, Note_on_c, 0, 77, 0
2, 7656, Note_on_c, 0, 71, 79
2, 7679, Note_on_c, 0, 71, 0
2, 7680, Note_on_c, 0, 72, 79
2, 7719, Note_on_c, 0, 72, 0
2, 7776, Note_on_c, 0, 72, 79
2, 7815, Note_on_c, 0, 72, 0
2, 7872, Note_on_c, 0, 72, 79
2, 7911, Note_on_c, 0, 72, 0
2, 7968, Note_on_c, 0, 76, 79
2, 7992, Note_on_c, 0, 76, 0
2, 7992, Note_on_c, 0, 74, 79
2, 8016, Note_on_c, 0, 74, 0
2, 8016, Note_on_c, 0, 72, 79
2, 8040, Note_on_c, 0, 72, 0
2, 8040, Note_on_c, 0, 74, 79
2, 8064, Note_on_c, 0, 74, 0
2, 8064, Note_on_c, 0, 76, 79
2, 8153, Note_on_c, 0, 76, 0
2, 8160, Note_on_c, 0, 72, 79
2, 8199, Note_on_c, 0, 72, 0
2, 8256, Note_on_c, 0, 72, 79
2, 8295, Note_on_c, 0, 72, 0
2, 8352, Note_on_c, 0, 76, 79
2, 8376, Note_on_c, 0, 76, 0
2, 8376, Note_on_c, 0, 74, 79
2, 8400, Note_on_c, 0, 74, 0
2, 8400, Note_on_c, 0, 72, 79
2, 8424, Note_on_c, 0, 72, 0
2, 8424, Note_on_c, 0, 74, 79
2, 8448, Note_on_c, 0, 74, 0
2, 8448, Note_on_c, 0, 76, 79
2, 8537, Note_on_c, 0, 76, 0
2, 8544, Note_on_c, 0, 72, 79
2, 8583, Note_on_c, 0, 72, 0
2, 8640, Note_on_c, 0, 72, 79
2, 8679, Note_on_c, 0, 72, 0
2, 8736, Note_on_c, 0, 76, 79
2, 8760, Note_on_c, 0, 76, 0
2, 8760, Note_on_c, 0, 74, 79
2, 8784, Note_on_c, 0, 74, 0
2, 8784, Note_on_c, 0, 72, 79
2, 8808, Note_on_c, 0, 72, 0
2, 8808, Note_on_c, 0, 74, 79
2, 8832, Note_on_c, 0, 74, 0
2, 8832, Note_on_c, 0, 76, 79
2, 8921, Note_on_c, 0, 76, 0
2, 8928, Note_on_c, 0, 76, 79
2, 8967, Note_on_c, 0, 76, 0
2, 9024, Note_on_c, 0, 76, 79
2, 9063, Note_on_c, 0, 76, 0
2, 9120, Note_on_c, 0, 79, 79
2, 9144, Note_on_c, 0, 79, 0
2, 9144, Note_on_c, 0, 78, 79
2, 9168, Note_on_c, 0, 78, 0
2, 9168, Note_on_c, 0, 76, 79
2, 9192, Note_on_c, 0, 76, 0
2, 9192, Note_on_c, 0, 78, 79
2, 9216, Note_on_c, 0, 78, 0
2, 9216, Note_on_c, 0, 79, 79
2, 9305, Note_on_c, 0, 79, 0
2, 9312, Note_on_c, 0, 79, 79
2, 9351, Note_on_c, 0, 79, 0
2, 9408, Note_on_c, 0, 79, 79
2, 9447, Note_on_c, 0, 79, 0
2, 9504, Note_on_c, 0, 83, 79
2, 9528, Note_on_c, 0, 83, 0
2, 9528, Note_on_c, 0, 81, 79
2, 9552, Note_on_c, 0, 81, 0
2, 9552, Note_on_c, 0, 79, 79
2, 9576, Note_on_c, 0, 79, 0
2, 9576, Note_on_c, 0, 81, 79
2, 9600, Note_on_c, 0, 81, 0
2, 9600, Note_on_c, 0, 83, 79
2, 9689, Note_on_c, 0, 83, 0
2, 9696, Note_on_c, 0, 79, 79
2, 9735, Note_on_c, 0, 79, 0
2, 9792, Note_on_c, 0, 79, 79
2, 9831, Note_on_c, 0, 79, 0
2, 9888, Note_on_c, 0, 83, 79
2, 9912, Note_on_c, 0, 83, 0
2, 9912, Note_on_c, 0, 81, 79
2, 9936, Note_on_c, 0, 81, 0
2, 9936, Note_on_c, 0, 79, 79
2, 9960, Note_on_c, 0, 79, 0
2, 9960, Note_on_c, 0, 81, 79
2, 9984, Note_on_c, 0, 81, 0
2, 9984, Note_on_c, 0, 83, 79
2, 10073, Note_on_c, 0, 83, 0
2, 10080, Note_on_c, 0, 79, 79
2, 10119, Note_on_c, 0, 79, 0
2, 10176, Note_on_c, 0, 79, 79
2, 10215, Note_on_c, 0, 79, 0
2, 10272, Note_on_c, 0, 79, 79
2, 10302, Note_on_c, 0, 79, 0
2, 10304, Note_on_c, 0, 83, 79
2, 10334, Note_on_c, 0, 83, 0
2, 10336, Note_on_c, 0, 86, 79
2, 10366, Note_on_c, 0, 86, 0
2, 10368, Note_on_c, 0, 84, 79
2, 10407, Note_on_c, 0, 84, 0
2, 10464, Note_on_c, 0, 84, 79
2, 10536, Note_on_c, 0, 84, 0
2, 10536, Note_on_c, 0, 86, 79
2, 10559, Note_on_c, 0, 86, 0
2, 10560, Note_on_c, 0, 83, 79
2, 10599, Note_on_c, 0, 83, 0
2, 10656, Note_on_c, 0, 83, 79
2, 10728, Note_on_c, 0, 83, 0
2, 10728, Note_on_c, 0, 84, 79
2, 10751, Note_on_c, 0, 84, 0
2, 10752, Note_on_c, 0, 81, 79
2, 10791, Note_on_c, 0, 81, 0
2, 10848, Note_on_c, 0, 81, 79
2, 10920, Note_on_c, 0, 81, 0
2, 10920, Note_on_c, 0, 83, 79
2, 10943, Note_on_c, 0, 83, 0
2, 10944, Note_on_c, 0, 79, 79
2, 10983, Note_on_c, 0, 79, 0
2, 11040, Note_on_c, 0, 79, 79
2, 11070, Note_on_c, 0, 79, 0
2, 11072, Note_on_c, 0, 83, 79
2, 11102, Note_on_c, 0, 83, 0
2, 11104, Note_on_c, 0, 86, 79
2, 11134, Note_on_c, 0, 86, 0
2, 11136, Note_on_c, 0, 84, 79
2, 11156, Note_on_c, 0, 84, 0
2, 11184, Note_on_c, 0, 86, 79
2, 11199, Note_on_c, 0, 86, 0
2, 11200, Note_on_c, 0, 84, 79
2, 11215, Note_on_c, 0, 84, 0
2, 11216, Note_on_c, 0, 83, 79
2, 11231, Note_on_c, 0, 83, 0
2, 11232, Note_on_c, 0, 84, 79
2, 11304, Note_on_c, 0, 84, 0
2, 11304, Note_on_c, 0, 86, 79
2, 11327, Note_on_c, 0, 86, 0
2, 11328, Note_on_c, 0, 83, 79
2, 11348, Note_on_c, 0, 83, 0
2, 11376, Note_on_c, 0, 84, 79
2, 11391, Note_on_c, 0, 84, 0
2, 11392, Note_on_c, 0, 83, 79
2, 11407, Note_on_c, 0, 83, 0
2, 11408, Note_on_c, 0, 81, 79
2, 11423, Note_on_c, 0, 81, 0
2, 11424, Note_on_c, 0, 83, 79
2, 11496, Note_on_c, 0, 83, 0
2, 11496, Note_on_c, 0, 84, 79
2, 11519, Note_on_c, 0, 84, 0
2, 11520, Note_on_c, 0, 81, 79
2, 11540, Note_on_c, 0, 81, 0
2, 11568, Note_on_c, 0, 83, 79
2, 11583, Note_on_c, 0, 83, 0
2, 11584, Note_on_c, 0, 81, 79
2, 11599, Note_on_c, 0, 81, 0
2, 11600, Note_on_c, 0, 79, 79
2, 11615, Note_on_c, 0, 79, 0
2, 11616, Note_on_c, 0, 81, 79
2, 11688, Note_on_c, 0, 81, 0
2, 11688, Note_on_c, 0, 83, 79
2, 11711, Note_on_c, 0, 83, 0
2, 11712, Note_on_c, 0, 79, 79
2, 11751, Note_on_c, 0, 79, 0
2, 11808, Note_on_c, 0, 86, 79
2, 11875, Note_on_c, 0, 86, 0
2, 11880, Note_on_c, 0, 83, 79
2, 11903, Note_on_c, 0, 83, 0
2, 11904, Note_on_c, 0, 81, 79
2, 11924, Note_on_c, 0, 81, 0
2, 11952, Note_on_c, 0, 83, 79
2, 11967, Note_on_c, 0, 83, 0
2, 11968, Note_on_c, 0, 81, 79
2, 11983, Note_on_c, 0, 81, 0
2, 11984, Note_on_c, 0, 79, 80
2, 11999, Note_on_c, 0, 79, 0
2, 12000, Note_on_c, 0, 81, 80
2, 12067, Note_on_c, 0, 81, 0
2, 12072, Note_on_c, 0, 83, 81
2, 12095, Note_on_c, 0, 83, 0
2, 12096, Note_on_c, 0, 79, 81
2, 12116, Note_on_c, 0, 79, 0
2, 12144, Note_on_c, 0, 81, 82
2, 12159, Note_on_c, 0, 81, 0
2, 12160, Note_on_c, 0, 79, 82
2, 12175, Note_on_c, 0, 79, 0
2, 12176, Note_on_c, 0, 78, 82
2, 12191, Note_on_c, 0, 78, 0
2, 12192, Note_on_c, 0, 79, 83
2, 12259, Note_on_c, 0, 79, 0
2, 12264, Note_on_c, 0, 81, 84
2, 12287, Note_on_c, 0, 81, 0
2, 12288, Note_on_c, 0, 78, 85
2, 12377, Note_on_c, 0, 78, 0
2, 12456, Note_on_c, 0, 74, 85
2, 12479, Note_on_c, 0, 74, 0
2, 12480, Note_on_c, 0, 78, 85
2, 12547, Note_on_c, 0, 78, 0
2, 12552, Note_on_c, 0, 74, 85
2, 12575, Note_on_c, 0, 74, 0
2, 12576, Note_on_c, 0, 81, 85
2, 12643, Note_on_c, 0, 81, 0
2, 12648, Note_on_c, 0, 78, 85
2, 12671, Note_on_c, 0, 78, 0
2, 12672, Note_on_c, 0, 86, 85
2, 12761, Note_on_c, 0, 86, 0
2, 12840, Note_on_c, 0, 62, 85
2, 12863, Note_on_c, 0, 62, 0
2, 12864, Note_on_c, 0, 66, 85
2, 12894, Note_on_c, 0, 66, 0
2, 12896, Note_on_c, 0, 62, 85
2, 12926, Note_on_c, 0, 62, 0
2, 12928, Note_on_c, 0, 66, 85
2, 12958, Note_on_c, 0, 66, 0
2, 12960, Note_on_c, 0, 69, 85
2, 12990, Note_on_c, 0, 69, 0
2, 12992, Note_on_c, 0, 66, 85
2, 13022, Note_on_c, 0, 66, 0
2, 13024, Note_on_c, 0, 69, 85
2, 13054, Note_on_c, 0, 69, 0
2, 13056, Note_on_c, 0, 74, 85
2, 13145, Note_on_c, 0, 74, 0
2, 13248, Note_on_c, 0, 50, 85
2, 13306, Note_on_c, 0, 50, 0
2, 13392, Note_on_c, 0, 50, 85
2, 13412, Note_on_c, 0, 50, 0
2, 13440, Note_on_c, 0, 50, 85
2, 13529, Note_on_c, 0, 50, 0
2, 14112, Note_on_c, 0, 76, 79
2, 14135, Note_on_c, 0, 76, 0
2, 14136, Note_on_c, 0, 74, 79
2, 14159, Note_on_c, 0, 74, 0
2, 14160, Note_on_c, 0, 73, 79
2, 14183, Note_on_c, 0, 73, 0
2, 14184, Note_on_c, 0, 74, 79
2, 14208, Note_on_c, 0, 74, 0
2, 14208, Note_on_c, 0, 79, 79
2, 14247, Note_on_c, 0, 79, 0
2, 14304, Note_on_c, 0, 79, 79
2, 14393, Note_on_c, 0, 79, 0
2, 14496, Note_on_c, 0, 76, 79
2, 14519, Note_on_c, 0, 76, 0
2, 14520, Note_on_c, 0, 74, 79
2, 14543, Note_on_c, 0, 74, 0
2, 14544, Note_on_c, 0, 73, 79
2, 14567, Note_on_c, 0, 73, 0
2, 14568, Note_on_c, 0, 74, 79
2, 14592, Note_on_c, 0, 74, 0
2, 14592, Note_on_c, 0, 79, 79
2, 14631, Note_on_c, 0, 79, 0
2, 14688, Note_on_c, 0, 79, 79
2, 14777, Note_on_c, 0, 79, 0
2, 14880, Note_on_c, 0, 76, 79
2, 14903, Note_on_c, 0, 76, 0
2, 14904, Note_on_c, 0, 74, 79
2, 14927, Note_on_c, 0, 74, 0
2, 14928, Note_on_c, 0, 73, 79
2, 14951, Note_on_c, 0, 73, 0
2, 14952, Note_on_c, 0, 74, 79
2, 14976, Note_on_c, 0, 74, 0
2, 14976, Note_on_c, 0, 79, 79
2, 15015, Note_on_c, 0, 79, 0
2, 15072, Note_on_c, 0, 81, 79
2, 15095, Note_on_c, 0, 81, 0
2, 15096, Note_on_c, 0, 79, 79
2, 15119, Note_on_c, 0, 79, 0
2, 15120, Note_on_c, 0, 78, 79
2, 15143, Note_on_c, 0, 78, 0
2, 15144, Note_on_c, 0, 79, 79
2, 15168, Note_on_c, 0, 79, 0
2, 15168, Note_on_c, 0, 81, 79
2, 15207, Note_on_c, 0, 81, 0
2, 15264, Note_on_c, 0, 83, 80
2, 15288, Note_on_c, 0, 83, 0
2, 15288, Note_on_c, 0, 81, 80
2, 15312, Note_on_c, 0, 81, 0
2, 15312, Note_on_c, 0, 79, 80
2, 15336, Note_on_c, 0, 79, 0
2, 15336, Note_on_c, 0, 81, 80
2, 15360, Note_on_c, 0, 81, 0
2, 15360, Note_on_c, 0, 83, 80
2, 15399, Note_on_c, 0, 83, 0
2, 15456, Note_on_c, 0, 84, 81
2, 15480, Note_on_c, 0, 84, 0
2, 15480, Note_on_c, 0, 83, 81
2, 15504, Note_on_c, 0, 83, 0
2, 15504, Note_on_c, 0, 81, 81
2, 15528, Note_on_c, 0, 81, 0
2, 15528, Note_on_c, 0, 83, 81
2, 15552, Note_on_c, 0, 83, 0
2, 15552, Note_on_c, 0, 84, 82
2, 15591, Note_on_c, 0, 84, 0
2, 15648, Note_on_c, 0, 86, 82
2, 15672, Note_on_c, 0, 86, 0
2, 15672, Note_on_c, 0, 84, 82
2, 15696, Note_on_c, 0, 84, 0
2, 15696, Note_on_c, 0, 83, 82
2, 15720, Note_on_c, 0, 83, 0
2, 15720, Note_on_c, 0, 84, 82
2, 15744, Note_on_c, 0, 84, 0
2, 15744, Note_on_c, 0, 86, 83
2, 16009, Note_on_c, 0, 86, 0
2, 16032, Note_on_c, 0, 87, 85
2, 16032, Note_on_c, 0, 75, 85
2, 16121, Note_on_c, 0, 87, 0
2, 16121, Note_on_c, 0, 75, 0
2, 16128, Note_on_c, 0, 88, 101
2, 16128, Note_on_c, 0, 76, 101
2, 16224, Note_on_c, 0, 88, 0
2, 16224, Note_on_c, 0, 76, 0
2, 16224, Note_on_c, 0, 80, 92
2, 16224, Note_on_c, 0, 68, 92
2, 16313, Note_on_c, 0, 80, 0
2, 16313, Note_on_c, 0, 68, 0
2, 16320, Note_on_c, 0, 81, 92
2, 16320, Note_on_c, 0, 69, 92
2, 16409, Note_on_c, 0, 81, 0
2, 16409, Note_on_c, 0, 69, 0
2, 16416, Note_on_c, 0, 83, 92
2, 16416, Note_on_c, 0, 71, 92
2, 16505, Note_on_c, 0, 83, 0
2, 16505, Note_on_c, 0, 71, 0
2, 16512, Note_on_c, 0, 84, 92
2, 16512, Note_on_c, 0, 72, 92
2, 16689, Note_on_c, 0, 84, 0
2, 16689, Note_on_c, 0, 72, 0
2, 16704, Note_on_c, 0, 86, 92
2, 16704, Note_on_c, 0, 74, 92
2, 16793, Note_on_c, 0, 86, 0
2, 16793, Note_on_c, 0, 74, 0
2, 16800, Note_on_c, 0, 88, 92
2, 16800, Note_on_c, 0, 76, 92
2, 16889, Note_on_c, 0, 88, 0
2, 16889, Note_on_c, 0, 76, 0
2, 16896, Note_on_c, 0, 79, 69
2, 17073, Note_on_c, 0, 79, 0
2, 17088, Note_on_c, 0, 83, 69
2, 17133, Note_on_c, 0, 83, 0
2, 17136, Note_on_c, 0, 81, 69
2, 17225, Note_on_c, 0, 81, 0
2, 17232, Note_on_c, 0, 79, 69
2, 17277, Note_on_c, 0, 79, 0
2, 17280, Note_on_c, 0, 79, 69
2, 17369, Note_on_c, 0, 79, 0
2, 17568, Note_on_c, 0, 83, 64
2, 17598, Note_on_c, 0, 83, 0
2, 17600, Note_on_c, 0, 87, 64
2, 17630, Note_on_c, 0, 87, 0
2, 17632, Note_on_c, 0, 88, 64
2, 17662, Note_on_c, 0, 88, 0
2, 17664, Note_on_c, 0, 86, 64
2, 17703, Note_on_c, 0, 86, 0
2, 17760, Note_on_c, 0, 86, 64
2, 17799, Note_on_c, 0, 86, 0
2, 17856, Note_on_c, 0, 86, 64
2, 17895, Note_on_c, 0, 86, 0
2, 17952, Note_on_c, 0, 79, 64
2, 17982, Note_on_c, 0, 79, 0
2, 17984, Note_on_c, 0, 83, 64
2, 18014, Note_on_c, 0, 83, 0
2, 18016, Note_on_c, 0, 84, 64
2, 18046, Note_on_c, 0, 84, 0
2, 18048, Note_on_c, 0, 83, 64
2, 18087, Note_on_c, 0, 83, 0
2, 18144, Note_on_c, 0, 83, 64
2, 18183, Note_on_c, 0, 83, 0
2, 18240, Note_on_c, 0, 83, 64
2, 18279, Note_on_c, 0, 83, 0
2, 18336, Note_on_c, 0, 76, 64
2, 18366, Note_on_c, 0, 76, 0
2, 18368, Note_on_c, 0, 80, 64
2, 18398, Note_on_c, 0, 80, 0
2, 18400, Note_on_c, 0, 81, 64
2, 18430, Note_on_c, 0, 81, 0
2, 18432, Note_on_c, 0, 79, 64
2, 18471, Note_on_c, 0, 79, 0
2, 18528, Note_on_c, 0, 79, 64
2, 18567, Note_on_c, 0, 79, 0
2, 18624, Note_on_c, 0, 79, 64
2, 18663, Note_on_c, 0, 79, 0
2, 18720, Note_on_c, 0, 83, 64
2, 18787, Note_on_c, 0, 83, 0
2, 18792, Note_on_c, 0, 79, 64
2, 18815, Note_on_c, 0, 79, 0
2, 18816, Note_on_c, 0, 76, 64
2, 18855, Note_on_c, 0, 76, 0
2, 18912, Note_on_c, 0, 84, 64
2, 18984, Note_on_c, 0, 84, 0
2, 18984, Note_on_c, 0, 81, 64
2, 19007, Note_on_c, 0, 81, 0
2, 19008, Note_on_c, 0, 78, 64
2, 19047, Note_on_c, 0, 78, 0
2, 19104, Note_on_c, 0, 81, 64
2, 19176, Note_on_c, 0, 81, 0
2, 19176, Note_on_c, 0, 78, 64
2, 19199, Note_on_c, 0, 78, 0
2, 19200, Note_on_c, 0, 79, 64
2, 19239, Note_on_c, 0, 79, 0
2, 19488, Note_on_c, 0, 83, 85
2, 19518, Note_on_c, 0, 83, 0
2, 19520, Note_on_c, 0, 87, 85
2, 19550, Note_on_c, 0, 87, 0
2, 19552, Note_on_c, 0, 88, 85
2, 19582, Note_on_c, 0, 88, 0
2, 19584, Note_on_c, 0, 81, 69
2, 19614, Note_on_c, 0, 81, 0
2, 19616, Note_on_c, 0, 85, 69
2, 19646, Note_on_c, 0, 85, 0
2, 19648, Note_on_c, 0, 86, 69
2, 19678, Note_on_c, 0, 86, 0
2, 19680, Note_on_c, 0, 81, 69
2, 19710, Note_on_c, 0, 81, 0
2, 19712, Note_on_c, 0, 85, 69
2, 19742, Note_on_c, 0, 85, 0
2, 19744, Note_on_c, 0, 86, 69
2, 19774, Note_on_c, 0, 86, 0
2, 19776, Note_on_c, 0, 81, 69
2, 19806, Note_on_c, 0, 81, 0
2, 19808, Note_on_c, 0, 85, 69
2, 19838, Note_on_c, 0, 85, 0
2, 19840, Note_on_c, 0, 86, 69
2, 19870, Note_on_c, 0, 86, 0
2, 19872, Note_on_c, 0, 83, 85
2, 19902, Note_on_c, 0, 83, 0
2, 19904, Note_on_c, 0, 87, 85
2, 19934, Note_on_c, 0, 87, 0
2, 19936, Note_on_c, 0, 88, 85
2, 19966, Note_on_c, 0, 88, 0
2, 19968, Note_on_c, 0, 81, 69
2, 19998, Note_on_c, 0, 81, 0
2, 20000, Note_on_c, 0, 85, 69
2, 20030, Note_on_c, 0, 85, 0
2, 20032, Note_on_c, 0, 86, 69
2, 20062, Note_on_c, 0, 86, 0
2, 20064, Note_on_c, 0, 81, 69
2, 20094, Note_on_c, 0, 81, 0
2, 20096, Note_on_c, 0, 85, 69
2, 20126, Note_on_c, 0, 85, 0
2, 20128, Note_on_c, 0, 86, 69
2, 20158, Note_on_c, 0, 86, 0
2, 20160, Note_on_c, 0, 81, 69
2, 20190, Note_on_c, 0, 81, 0
2, 20192, Note_on_c, 0, 85, 69
2, 20222, Note_on_c, 0, 85, 0
2, 20224, Note_on_c, 0, 86, 69
2, 20254, Note_on_c, 0, 86, 0
2, 20256, Note_on_c, 0, 79, 85
2, 20286, Note_on_c, 0, 79, 0
2, 20288, Note_on_c, 0, 83, 85
2, 20318, Note_on_c, 0, 83, 0
2, 20320, Note_on_c, 0, 84, 85
2, 20350, Note_on_c, 0, 84, 0
2, 20352, Note_on_c, 0, 78, 69
2, 20382, Note_on_c, 0, 78, 0
2, 20384, Note_on_c, 0, 82, 69
2, 20414, Note_on_c, 0, 82, 0
2, 20416, Note_on_c, 0, 83, 69
2, 20446, Note_on_c, 0, 83, 0
2, 20448, Note_on_c, 0, 78, 69
2, 20478, Note_on_c, 0, 78, 0
2, 20480, Note_on_c, 0, 82, 69
2, 20510, Note_on_c, 0, 82, 0
2, 20512, Note_on_c, 0, 83, 69
2, 20542, Note_on_c, 0, 83, 0
2, 20544, Note_on_c, 0, 78, 69
2, 20574, Note_on_c, 0, 78, 0
2, 20576, Note_on_c, 0, 82, 69
2, 20606, Note_on_c, 0, 82, 0
2, 20608, Note_on_c, 0, 83, 69
2, 20638, Note_on_c, 0, 83, 0
2, 20640, Note_on_c, 0, 79, 85
2, 20670, Note_on_c, 0, 79, 0
2, 20672, Note_on_c, 0, 83, 85
2, 20702, Note_on_c, 0, 83, 0
2, 20704, Note_on_c, 0, 84, 85
2, 20734, Note_on_c, 0, 84, 0
2, 20736, Note_on_c, 0, 78, 69
2, 20766, Note_on_c, 0, 78, 0
2, 20768, Note_on_c, 0, 82, 69
2, 20798, Note_on_c, 0, 82, 0
2, 20800, Note_on_c, 0, 83, 69
2, 20830, Note_on_c, 0, 83, 0
2, 20832, Note_on_c, 0, 78, 69
2, 20862, Note_on_c, 0, 78, 0
2, 20864, Note_on_c, 0, 82, 69
2, 20894, Note_on_c, 0, 82, 0
2, 20896, Note_on_c, 0, 83, 69
2, 20926, Note_on_c, 0, 83, 0
2, 20928, Note_on_c, 0, 78, 69
2, 20958, Note_on_c, 0, 78, 0
2, 20960, Note_on_c, 0, 82, 69
2, 20990, Note_on_c, 0, 82, 0
2, 20992, Note_on_c, 0, 83, 69
2, 21022, Note_on_c, 0, 83, 0
2, 21024, Note_on_c, 0, 76, 85
2, 21054, Note_on_c, 0, 76, 0
2, 21056, Note_on_c, 0, 80, 85
2, 21086, Note_on_c, 0, 80, 0
2, 21088, Note_on_c, 0, 81, 85
2, 21118, Note_on_c, 0, 81, 0
2, 21120, Note_on_c, 0, 74, 69
2, 21150, Note_on_c, 0, 74, 0
2, 21152, Note_on_c, 0, 78, 69
2, 21182, Note_on_c, 0, 78, 0
2, 21184, Note_on_c, 0, 79, 69
2, 21214, Note_on_c, 0, 79, 0
2, 21216, Note_on_c, 0, 74, 69
2, 21246, Note_on_c, 0, 74, 0
2, 21248, Note_on_c, 0, 78, 69
2, 21278, Note_on_c, 0, 78, 0
2, 21280, Note_on_c, 0, 79, 69
2, 21310, Note_on_c, 0, 79, 0
2, 21312, Note_on_c, 0, 74, 69
2, 21342, Note_on_c, 0, 74, 0
2, 21344, Note_on_c, 0, 78, 69
2, 21374, Note_on_c, 0, 78, 0
2, 21376, Note_on_c, 0, 79, 69
2, 21406, Note_on_c, 0, 79, 0
2, 21408, Note_on_c, 0, 76, 85
2, 21438, Note_on_c, 0, 76, 0
2, 21440, Note_on_c, 0, 80, 85
2, 21470, Note_on_c, 0, 80, 0
2, 21472, Note_on_c, 0, 81, 85
2, 21502, Note_on_c, 0, 81, 0
2, 21504, Note_on_c, 0, 74, 69
2, 21534, Note_on_c, 0, 74, 0
2, 21536, Note_on_c, 0, 78, 69
2, 21566, Note_on_c, 0, 78, 0
2, 21568, Note_on_c, 0, 79, 69
2, 21598, Note_on_c, 0, 79, 0
2, 21600, Note_on_c, 0, 74, 69
2, 21630, Note_on_c, 0, 74, 0
2, 21632, Note_on_c, 0, 78, 69
2, 21662, Note_on_c, 0, 78, 0
2, 21664, Note_on_c, 0, 79, 69
2, 21694, Note_on_c, 0, 79, 0
2, 21696, Note_on_c, 0, 74, 69
2, 21726, Note_on_c, 0, 74, 0
2, 21728, Note_on_c, 0, 78, 69
2, 21758, Note_on_c, 0, 78, 0
2, 21760, Note_on_c, 0, 79, 69
2, 21790, Note_on_c, 0, 79, 0
2, 21792, Note_on_c, 0, 76, 85
2, 21822, Note_on_c, 0, 76, 0
2, 21824, Note_on_c, 0, 80, 85
2, 21854, Note_on_c, 0, 80, 0
2, 21856, Note_on_c, 0, 81, 85
2, 21886, Note_on_c, 0, 81, 0
2, 21888, Note_on_c, 0, 74, 69
2, 21918, Note_on_c, 0, 74, 0
2, 21920, Note_on_c, 0, 78, 70
2, 21950, Note_on_c, 0, 78, 0
2, 21952, Note_on_c, 0, 79, 72
2, 21982, Note_on_c, 0, 79, 0
2, 21984, Note_on_c, 0, 74, 74
2, 22014, Note_on_c, 0, 74, 0
2, 22016, Note_on_c, 0, 80, 75
2, 22046, Note_on_c, 0, 80, 0
2, 22048, Note_on_c, 0, 81, 77
2, 22078, Note_on_c, 0, 81, 0
2, 22080, Note_on_c, 0, 74, 79
2, 22110, Note_on_c, 0, 74, 0
2, 22112, Note_on_c, 0, 82, 80
2, 22142, Note_on_c, 0, 82, 0
2, 22144, Note_on_c, 0, 83, 82
2, 22174, Note_on_c, 0, 83, 0
2, 22176, Note_on_c, 0, 74, 84
2, 22206, Note_on_c, 0, 74, 0
2, 22208, Note_on_c, 0, 83, 85
2, 22238, Note_on_c, 0, 83, 0
2, 22240, Note_on_c, 0, 84, 87
2, 22270, Note_on_c, 0, 84, 0
2, 22272, Note_on_c, 0, 74, 89
2, 22302, Note_on_c, 0, 74, 0
2, 22304, Note_on_c, 0, 85, 92
2, 22334, Note_on_c, 0, 85, 0
2, 22336, Note_on_c, 0, 86, 92
2, 22366, Note_on_c, 0, 86, 0
2, 22368, Note_on_c, 0, 84, 92
2, 22398, Note_on_c, 0, 84, 0
2, 22400, Note_on_c, 0, 83, 92
2, 22430, Note_on_c, 0, 83, 0
2, 22432, Note_on_c, 0, 81, 92
2, 22462, Note_on_c, 0, 81, 0
2, 22464, Note_on_c, 0, 79, 92
2, 22494, Note_on_c, 0, 79, 0
2, 22496, Note_on_c, 0, 78, 92
2, 22526, Note_on_c, 0, 78, 0
2, 22528, Note_on_c, 0, 76, 92
2, 22558, Note_on_c, 0, 76, 0
2, 22560, Note_on_c, 0, 74, 92
2, 22590, Note_on_c, 0, 74, 0
2, 22592, Note_on_c, 0, 72, 92
2, 22622, Note_on_c, 0, 72, 0
2, 22624, Note_on_c, 0, 71, 92
2, 22654, Note_on_c, 0, 71, 0
2, 22656, Note_on_c, 0, 69, 85
2, 22686, Note_on_c, 0, 69, 0
2, 22688, Note_on_c, 0, 76, 83
2, 22718, Note_on_c, 0, 76, 0
2, 22720, Note_on_c, 0, 74, 82
2, 22750, Note_on_c, 0, 74, 0
2, 22752, Note_on_c, 0, 72, 81
2, 22782, Note_on_c, 0, 72, 0
2, 22784, Note_on_c, 0, 71, 80
2, 22814, Note_on_c, 0, 71, 0
2, 22816, Note_on_c, 0, 69, 78
2, 22846, Note_on_c, 0, 69, 0
2, 22848, Note_on_c, 0, 67, 77
2, 22937, Note_on_c, 0, 67, 0
2, 22944, Note_on_c, 0, 66, 73
2, 22956, Note_on_c, 0, 66, 0
2, 22956, Note_on_c, 0, 67, 73
2, 22968, Note_on_c, 0, 67, 0
2, 22968, Note_on_c, 0, 66, 73
2, 23033, Note_on_c, 0, 66, 0
2, 23072, Note_on_c, 0, 85, 85
2, 23102, Note_on_c, 0, 85, 0
2, 23104, Note_on_c, 0, 86, 85
2, 23134, Note_on_c, 0, 86, 0
2, 23136, Note_on_c, 0, 84, 85
2, 23166, Note_on_c, 0, 84, 0
2, 23168, Note_on_c, 0, 83, 85
2, 23198, Note_on_c, 0, 83, 0
2, 23200, Note_on_c, 0, 81, 85
2, 23230, Note_on_c, 0, 81, 0
2, 23232, Note_on_c, 0, 79, 85
2, 23262, Note_on_c, 0, 79, 0
2, 23264, Note_on_c, 0, 78, 85
2, 23294, Note_on_c, 0, 78, 0
2, 23296, Note_on_c, 0, 76, 85
2, 23326, Note_on_c, 0, 76, 0
2, 23328, Note_on_c, 0, 74, 85
2, 23358, Note_on_c, 0, 74, 0
2, 23360, Note_on_c, 0, 72, 85
2, 23390, Note_on_c, 0, 72, 0
2, 23392, Note_on_c, 0, 71, 85
2, 23422, Note_on_c, 0, 71, 0
2, 23424, Note_on_c, 0, 69, 85
2, 23454, Note_on_c, 0, 69, 0
2, 23456, Note_on_c, 0, 76, 83
2, 23486, Note_on_c, 0, 76, 0
2, 23488, Note_on_c, 0, 74, 82
2, 23518, Note_on_c, 0, 74, 0
2, 23520, Note_on_c, 0, 72, 81
2, 23550, Note_on_c, 0, 72, 0
2, 23552, Note_on_c, 0, 71, 80
2, 23582, Note_on_c, 0, 71, 0
2, 23584, Note_on_c, 0, 69, 78
2, 23614, Note_on_c, 0, 69, 0
2, 23616, Note_on_c, 0, 67, 77
2, 23705, Note_on_c, 0, 67, 0
2, 23712, Note_on_c, 0, 66, 73
2, 23724, Note_on_c, 0, 66, 0
2, 23724, Note_on_c, 0, 67, 73
2, 23736, Note_on_c, 0, 67, 0
2, 23736, Note_on_c, 0, 66, 73
2, 23801, Note_on_c, 0, 66, 0
2, 23808, Note_on_c, 0, 67, 69
2, 23897, Note_on_c, 0, 67, 0
2, 24096, Note_on_c, 0, 74, 79
2, 24163, Note_on_c, 0, 74, 0
2, 24168, Note_on_c, 0, 78, 79
2, 24191, Note_on_c, 0, 78, 0
2, 24192, Note_on_c, 0, 79, 79
2, 24231, Note_on_c, 0, 79, 0
2, 24288, Note_on_c, 0, 79, 79
2, 24327, Note_on_c, 0, 79, 0
2, 24384, Note_on_c, 0, 79, 79
2, 24423, Note_on_c, 0, 79, 0
2, 24480, Note_on_c, 0, 83, 79
2, 24492, Note_on_c, 0, 83, 0
2, 24492, Note_on_c, 0, 81, 79
2, 24504, Note_on_c, 0, 81, 0
2, 24504, Note_on_c, 0, 79, 79
2, 24516, Note_on_c, 0, 79, 0
2, 24516, Note_on_c, 0, 81, 79
2, 24547, Note_on_c, 0, 81, 0
2, 24552, Note_on_c, 0, 86, 79
2, 24575, Note_on_c, 0, 86, 0
2, 24576, Note_on_c, 0, 83, 79
2, 24615, Note_on_c, 0, 83, 0
2, 24672, Note_on_c, 0, 79, 79
2, 24711, Note_on_c, 0, 79, 0
2, 24768, Note_on_c, 0, 79, 79
2, 24807, Note_on_c, 0, 79, 0
2, 24864, Note_on_c, 0, 74, 79
2, 24931, Note_on_c, 0, 74, 0
2, 24936, Note_on_c, 0, 78, 79
2, 24959, Note_on_c, 0, 78, 0
2, 24960, Note_on_c, 0, 79, 79
2, 24999, Note_on_c, 0, 79, 0
2, 25056, Note_on_c, 0, 79, 79
2, 25095, Note_on_c, 0, 79, 0
2, 25152, Note_on_c, 0, 79, 79
2, 25191, Note_on_c, 0, 79, 0
2, 25248, Note_on_c, 0, 83, 79
2, 25260, Note_on_c, 0, 83, 0
2, 25260, Note_on_c, 0, 81, 79
2, 25272, Note_on_c, 0, 81, 0
2, 25272, Note_on_c, 0, 79, 79
2, 25284, Note_on_c, 0, 79, 0
2, 25284, Note_on_c, 0, 81, 79
2, 25315, Note_on_c, 0, 81, 0
2, 25320, Note_on_c, 0, 86, 79
2, 25343, Note_on_c, 0, 86, 0
2, 25344, Note_on_c, 0, 79, 79
2, 25433, Note_on_c, 0, 79, 0
2, 25536, Note_on_c, 0, 74, 79
2, 25536, Note_on_c, 0, 71, 79
2, 25625, Note_on_c, 0, 74, 0
2, 25625, Note_on_c, 0, 71, 0
2, 25728, Note_on_c, 0, 71, 79
2, 25728, Note_on_c, 0, 67, 79
2, 25861, Note_on_c, 0, 71, 0
2, 25861, Note_on_c, 0, 67, 0
2, 26016, Note_on_c, 0, 72, 79
2, 26083, Note_on_c, 0, 72, 0
2, 26088, Note_on_c, 0, 76, 79
2, 26111, Note_on_c, 0, 76, 0
2, 26112, Note_on_c, 0, 79, 79
2, 26151, Note_on_c, 0, 79, 0
2, 26208, Note_on_c, 0, 79, 79
2, 26247, Note_on_c, 0, 79, 0
2, 26304, Note_on_c, 0, 79, 79
2, 26343, Note_on_c, 0, 79, 0
2, 26400, Note_on_c, 0, 83, 85
2, 26412, Note_on_c, 0, 83, 0
2, 26412, Note_on_c, 0, 84, 85
2, 26439, Note_on_c, 0, 84, 0
2, 26496, Note_on_c, 0, 79, 79
2, 26535, Note_on_c, 0, 79, 0
2, 26592, Note_on_c, 0, 79, 79
2, 26631, Note_on_c, 0, 79, 0
2, 26688, Note_on_c, 0, 79, 79
2, 26727, Note_on_c, 0, 79, 0
2, 26784, Note_on_c, 0, 76, 79
2, 26851, Note_on_c, 0, 76, 0
2, 26856, Note_on_c, 0, 72, 79
2, 26879, Note_on_c, 0, 72, 0
2, 26880, Note_on_c, 0, 71, 79
2, 26919, Note_on_c, 0, 71, 0
2, 26976, Note_on_c, 0, 71, 80
2, 27015, Note_on_c, 0, 71, 0
2, 27072, Note_on_c, 0, 72, 82
2, 27111, Note_on_c, 0, 72, 0
2, 27168, Note_on_c, 0, 72, 83
2, 27207, Note_on_c, 0, 72, 0
2, 27264, Note_on_c, 0, 74, 85
2, 27353, Note_on_c, 0, 74, 0
2, 27552, Note_on_c, 0, 67, 79
2, 27619, Note_on_c, 0, 67, 0
2, 27624, Note_on_c, 0, 74, 79
2, 27647, Note_on_c, 0, 74, 0
2, 27648, Note_on_c, 0, 77, 79
2, 27687, Note_on_c, 0, 77, 0
2, 27744, Note_on_c, 0, 77, 79
2, 27816, Note_on_c, 0, 77, 0
2, 27816, Note_on_c, 0, 79, 79
2, 27839, Note_on_c, 0, 79, 0
2, 27840, Note_on_c, 0, 76, 79
2, 27879, Note_on_c, 0, 76, 0
2, 27936, Note_on_c, 0, 76, 79
2, 28008, Note_on_c, 0, 76, 0
2, 28008, Note_on_c, 0, 77, 79
2, 28031, Note_on_c, 0, 77, 0
2, 28032, Note_on_c, 0, 74, 79
2, 28052, Note_on_c, 0, 74, 0
2, 28080, Note_on_c, 0, 76, 79
2, 28095, Note_on_c, 0, 76, 0
2, 28096, Note_on_c, 0, 74, 79
2, 28111, Note_on_c, 0, 74, 0
2, 28112, Note_on_c, 0, 72, 79
2, 28127, Note_on_c, 0, 72, 0
2, 28128, Note_on_c, 0, 74, 79
2, 28200, Note_on_c, 0, 74, 0
2, 28200, Note_on_c, 0, 76, 79
2, 28223, Note_on_c, 0, 76, 0
2, 28224, Note_on_c, 0, 72, 79
2, 28263, Note_on_c, 0, 72, 0
2, 28320, Note_on_c, 0, 72, 80
2, 28359, Note_on_c, 0, 72, 0
2, 28416, Note_on_c, 0, 74, 81
2, 28455, Note_on_c, 0, 74, 0
2, 28512, Note_on_c, 0, 74, 82
2, 28551, Note_on_c, 0, 74, 0
2, 28608, Note_on_c, 0, 71, 83
2, 28647, Note_on_c, 0, 71, 0
2, 28704, Note_on_c, 0, 71, 84
2, 28743, Note_on_c, 0, 71, 0
2, 28800, Note_on_c, 0, 72, 85
2, 28839, Note_on_c, 0, 72, 0
2, 29088, Note_on_c, 0, 72, 85
2, 29111, Note_on_c, 0, 72, 0
2, 29112, Note_on_c, 0, 74, 85
2, 29135, Note_on_c, 0, 74, 0
2, 29136, Note_on_c, 0, 76, 85
2, 29159, Note_on_c, 0, 76, 0
2, 29160, Note_on_c, 0, 77, 85
2, 29183, Note_on_c, 0, 77, 0
2, 29184, Note_on_c, 0, 79, 85
2, 29223, Note_on_c, 0, 79, 0
2, 29280, Note_on_c, 0, 79, 85
2, 29319, Note_on_c, 0, 79, 0
2, 29376, Note_on_c, 0, 79, 85
2, 29415, Note_on_c, 0, 79, 0
2, 29472, Note_on_c, 0, 83, 85
2, 29484, Note_on_c, 0, 83, 0
2, 29484, Note_on_c, 0, 84, 85
2, 29511, Note_on_c, 0, 84, 0
2, 29568, Note_on_c, 0, 79, 79
2, 29607, Note_on_c, 0, 79, 0
2, 29664, Note_on_c, 0, 79, 79
2, 29703, Note_on_c, 0, 79, 0
2, 29760, Note_on_c, 0, 79, 79
2, 29780, Note_on_c, 0, 79, 0
2, 29808, Note_on_c, 0, 81, 79
2, 29831, Note_on_c, 0, 81, 0
2, 29832, Note_on_c, 0, 79, 79
2, 29855, Note_on_c, 0, 79, 0
2, 29856, Note_on_c, 0, 77, 79
2, 29879, Note_on_c, 0, 77, 0
2, 29880, Note_on_c, 0, 76, 79
2, 29903, Note_on_c, 0, 76, 0
2, 29904, Note_on_c, 0, 74, 79
2, 29927, Note_on_c, 0, 74, 0
2, 29928, Note_on_c, 0, 72, 79
2, 29951, Note_on_c, 0, 72, 0
2, 29952, Note_on_c, 0, 71, 79
2, 30019, Note_on_c, 0, 71, 0
2, 30024, Note_on_c, 0, 79, 80
2, 30047, Note_on_c, 0, 79, 0
2, 30048, Note_on_c, 0, 81, 80
2, 30071, Note_on_c, 0, 81, 0
2, 30072, Note_on_c, 0, 79, 80
2, 30095, Note_on_c, 0, 79, 0
2, 30096, Note_on_c, 0, 78, 81
2, 30119, Note_on_c, 0, 78, 0
2, 30120, Note_on_c, 0, 79, 81
2, 30143, Note_on_c, 0, 79, 0
2, 30144, Note_on_c, 0, 72, 82
2, 30211, Note_on_c, 0, 72, 0
2, 30216, Note_on_c, 0, 79, 83
2, 30239, Note_on_c, 0, 79, 0
2, 30240, Note_on_c, 0, 81, 83
2, 30263, Note_on_c, 0, 81, 0
2, 30264, Note_on_c, 0, 79, 83
2, 30287, Note_on_c, 0, 79, 0
2, 30288, Note_on_c, 0, 78, 84
2, 30311, Note_on_c, 0, 78, 0
2, 30312, Note_on_c, 0, 79, 84
2, 30335, Note_on_c, 0, 79, 0
2, 30336, Note_on_c, 0, 74, 85
2, 30425, Note_on_c, 0, 74, 0
2, 30624, Note_on_c, 0, 67, 85
2, 30691, Note_on_c, 0, 67, 0
2, 30696, Note_on_c, 0, 74, 85
2, 30719, Note_on_c, 0, 74, 0
2, 30720, Note_on_c, 0, 77, 85
2, 30759, Note_on_c, 0, 77, 0
2, 30816, Note_on_c, 0, 77, 85
2, 30888, Note_on_c, 0, 77, 0
2, 30888, Note_on_c, 0, 79, 85
2, 30911, Note_on_c, 0, 79, 0
2, 30912, Note_on_c, 0, 76, 85
2, 30951, Note_on_c, 0, 76, 0
2, 31008, Note_on_c, 0, 76, 85
2, 31080, Note_on_c, 0, 76, 0
2, 31080, Note_on_c, 0, 77, 85
2, 31103, Note_on_c, 0, 77, 0
2, 31104, Note_on_c, 0, 74, 85
2, 31124, Note_on_c, 0, 74, 0
2, 31152, Note_on_c, 0, 76, 85
2, 31167, Note_on_c, 0, 76, 0
2, 31168, Note_on_c, 0, 74, 86
2, 31183, Note_on_c, 0, 74, 0
2, 31184, Note_on_c, 0, 72, 86
2, 31199, Note_on_c, 0, 72, 0
2, 31200, Note_on_c, 0, 74, 86
2, 31272, Note_on_c, 0, 74, 0
2, 31272, Note_on_c, 0, 76, 88
2, 31295, Note_on_c, 0, 76, 0
2, 31296, Note_on_c, 0, 72, 88
2, 31363, Note_on_c, 0, 72, 0
2, 31368, Note_on_c, 0, 74, 89
2, 31391, Note_on_c, 0, 74, 0
2, 31392, Note_on_c, 0, 76, 90
2, 31459, Note_on_c, 0, 76, 0
2, 31464, Note_on_c, 0, 72, 91
2, 31487, Note_on_c, 0, 72, 0
2, 31488, Note_on_c, 0, 74, 91
2, 31527, Note_on_c, 0, 74, 0
2, 31584, Note_on_c, 0, 74, 90
2, 31623, Note_on_c, 0, 74, 0
2, 31680, Note_on_c, 0, 67, 88
2, 31747, Note_on_c, 0, 67, 0
2, 31752, Note_on_c, 0, 69, 87
2, 31775, Note_on_c, 0, 69, 0
2, 31776, Note_on_c, 0, 71, 86
2, 31843, Note_on_c, 0, 71, 0
2, 31848, Note_on_c, 0, 67, 85
2, 31871, Note_on_c, 0, 67, 0
2, 31872, Note_on_c, 0, 72, 79
2, 32137, Note_on_c, 0, 72, 0
2, 32160, Note_on_c, 0, 84, 82
2, 32183, Note_on_c, 0, 84, 0
2, 32184, Note_on_c, 0, 83, 82
2, 32207, Note_on_c, 0, 83, 0
2, 32208, Note_on_c, 0, 81, 83
2, 32231, Note_on_c, 0, 81, 0
2, 32232, Note_on_c, 0, 79, 83
2, 32255, Note_on_c, 0, 79, 0
2, 32256, Note_on_c, 0, 77, 83
2, 32295, Note_on_c, 0, 77, 0
2, 32352, Note_on_c, 0, 77, 84
2, 32375, Note_on_c, 0, 77, 0
2, 32376, Note_on_c, 0, 76, 85
2, 32399, Note_on_c, 0, 76, 0
2, 32400, Note_on_c, 0, 74, 84
2, 32423, Note_on_c, 0, 74, 0
2, 32424, Note_on_c, 0, 72, 83
2, 32447, Note_on_c, 0, 72, 0
2, 32448, Note_on_c, 0, 71, 83
2, 32487, Note_on_c, 0, 71, 0
2, 32544, Note_on_c, 0, 71, 81
2, 32567, Note_on_c, 0, 71, 0
2, 32568, Note_on_c, 0, 72, 80
2, 32591, Note_on_c, 0, 72, 0
2, 32592, Note_on_c, 0, 74, 80
2, 32615, Note_on_c, 0, 74, 0
2, 32616, Note_on_c, 0, 71, 79
2, 32639, Note_on_c, 0, 71, 0
2, 32640, Note_on_c, 0, 72, 79
2, 32663, Note_on_c, 0, 72, 0
2, 32664, Note_on_c, 0, 74, 79
2, 32687, Note_on_c, 0, 74, 0
2, 32688, Note_on_c, 0, 72, 79
2, 32711, Note_on_c, 0, 72, 0
2, 32712, Note_on_c, 0, 71, 80
2, 32735, Note_on_c, 0, 71, 0
2, 32736, Note_on_c, 0, 72, 80
2, 32759, Note_on_c, 0, 72, 0
2, 32760, Note_on_c, 0, 74, 81
2, 32783, Note_on_c, 0, 74, 0
2, 32784, Note_on_c, 0, 76, 81
2, 32807, Note_on_c, 0, 76, 0
2, 32808, Note_on_c, 0, 77, 81
2, 32831, Note_on_c, 0, 77, 0
2, 32832, Note_on_c, 0, 78, 82
2, 32855, Note_on_c, 0, 78, 0
2, 32856, Note_on_c, 0, 79, 82
2, 32879, Note_on_c, 0, 79, 0
2, 32880, Note_on_c, 0, 78, 83
2, 32903, Note_on_c, 0, 78, 0
2, 32904, Note_on_c, 0, 79, 83
2, 32927, Note_on_c, 0, 79, 0
2, 32928, Note_on_c, 0, 84, 83
2, 32951, Note_on_c, 0, 84, 0
2, 32952, Note_on_c, 0, 82, 84
2, 32975, Note_on_c, 0, 82, 0
2, 32976, Note_on_c, 0, 81, 84
2, 32999, Note_on_c, 0, 81, 0
2, 33000, Note_on_c, 0, 79, 85
2, 33023, Note_on_c, 0, 79, 0
2, 33024, Note_on_c, 0, 77, 84
2, 33047, Note_on_c, 0, 77, 0
2, 33048, Note_on_c, 0, 79, 84
2, 33071, Note_on_c, 0, 79, 0
2, 33072, Note_on_c, 0, 81, 83
2, 33095, Note_on_c, 0, 81, 0
2, 33096, Note_on_c, 0, 79, 83
2, 33119, Note_on_c, 0, 79, 0
2, 33120, Note_on_c, 0, 77, 83
2, 33143, Note_on_c, 0, 77, 0
2, 33144, Note_on_c, 0, 76, 82
2, 33167, Note_on_c, 0, 76, 0
2, 33168, Note_on_c, 0, 74, 82
2, 33191, Note_on_c, 0, 74, 0
2, 33192, Note_on_c, 0, 72, 82
2, 33215, Note_on_c, 0, 72, 0
2, 33216, Note_on_c, 0, 71, 81
2, 33239, Note_on_c, 0, 71, 0
2, 33240, Note_on_c, 0, 69, 81
2, 33263, Note_on_c, 0, 69, 0
2, 33264, Note_on_c, 0, 67, 80
2, 33287, Note_on_c, 0, 67, 0
2, 33288, Note_on_c, 0, 69, 80
2, 33311, Note_on_c, 0, 69, 0
2, 33312, Note_on_c, 0, 71, 80
2, 33335, Note_on_c, 0, 71, 0
2, 33336, Note_on_c, 0, 72, 79
2, 33359, Note_on_c, 0, 72, 0
2, 33360, Note_on_c, 0, 74, 79
2, 33383, Note_on_c, 0, 74, 0
2, 33384, Note_on_c, 0, 71, 79
2, 33407, Note_on_c, 0, 71, 0
2, 33408, Note_on_c, 0, 72, 79
2, 33447, Note_on_c, 0, 72, 0
2, 33504, Note_on_c, 0, 72, 79
2, 33543, Note_on_c, 0, 72, 0
2, 33600, Note_on_c, 0, 72, 79
2, 33639, Note_on_c, 0, 72, 0
2, 33696, Note_on_c, 0, 76, 79
2, 33720, Note_on_c, 0, 76, 0
2, 33720, Note_on_c, 0, 74, 79
2, 33744, Note_on_c, 0, 74, 0
2, 33744, Note_on_c, 0, 72, 79
2, 33768, Note_on_c, 0, 72, 0
2, 33768, Note_on_c, 0, 74, 79
2, 33792, Note_on_c, 0, 74, 0
2, 33792, Note_on_c, 0, 76, 79
2, 33881, Note_on_c, 0, 76, 0
2, 33888, Note_on_c, 0, 72, 79
2, 33927, Note_on_c, 0, 72, 0
2, 33984, Note_on_c, 0, 72, 79
2, 34023, Note_on_c, 0, 72, 0
2, 34080, Note_on_c, 0, 76, 79
2, 34104, Note_on_c, 0, 76, 0
2, 34104, Note_on_c, 0, 74, 79
2, 34128, Note_on_c, 0, 74, 0
2, 34128, Note_on_c, 0, 72, 79
2, 34152, Note_on_c, 0, 72, 0
2, 34152, Note_on_c, 0, 74, 79
2, 34176, Note_on_c, 0, 74, 0
2, 34176, Note_on_c, 0, 76, 79
2, 34265, Note_on_c, 0, 76, 0
2, 34272, Note_on_c, 0, 72, 79
2, 34311, Note_on_c, 0, 72, 0
2, 34368, Note_on_c, 0, 72, 79
2, 34407, Note_on_c, 0, 72, 0
2, 34464, Note_on_c, 0, 76, 79
2, 34488, Note_on_c, 0, 76, 0
2, 34488, Note_on_c, 0, 74, 79
2, 34512, Note_on_c, 0, 74, 0
2, 34512, Note_on_c, 0, 72, 79
2, 34536, Note_on_c, 0, 72, 0
2, 34536, Note_on_c, 0, 74, 79
2, 34560, Note_on_c, 0, 74, 0
2, 34560, Note_on_c, 0, 76, 79
2, 34649, Note_on_c, 0, 76, 0
2, 34656, Note_on_c, 0, 76, 79
2, 34695, Note_on_c, 0, 76, 0
2, 34752, Note_on_c, 0, 76, 79
2, 34791, Note_on_c, 0, 76, 0
2, 34848, Note_on_c, 0, 79, 79
2, 34872, Note_on_c, 0, 79, 0
2, 34872, Note_on_c, 0, 78, 79
2, 34896, Note_on_c, 0, 78, 0
2, 34896, Note_on_c, 0, 76, 79
2, 34920, Note_on_c, 0, 76, 0
2, 34920, Note_on_c, 0, 78, 79
2, 34944, Note_on_c, 0, 78, 0
2, 34944, Note_on_c, 0, 79, 79
2, 35033, Note_on_c, 0, 79, 0
2, 35040, Note_on_c, 0, 79, 79
2, 35079, Note_on_c, 0, 79, 0
2, 35136, Note_on_c, 0, 79, 79
2, 35175, Note_on_c, 0, 79, 0
2, 35232, Note_on_c, 0, 83, 79
2, 35256, Note_on_c, 0, 83, 0
2, 35256, Note_on_c, 0, 81, 79
2, 35280, Note_on_c, 0, 81, 0
2, 35280, Note_on_c, 0, 79, 79
2, 35304, Note_on_c, 0, 79, 0
2, 35304, Note_on_c, 0, 81, 79
2, 35328, Note_on_c, 0, 81, 0
2, 35328, Note_on_c, 0, 83, 79
2, 35417, Note_on_c, 0, 83, 0
2, 35424, Note_on_c, 0, 79, 79
2, 35463, Note_on_c, 0, 79, 0
2, 35520, Note_on_c, 0, 79, 79
2, 35559, Note_on_c, 0, 79, 0
2, 35616, Note_on_c, 0, 83, 79
2, 35640, Note_on_c, 0, 83, 0
2, 35640, Note_on_c, 0, 81, 79
2, 35664, Note_on_c, 0, 81, 0
2, 35664, Note_on_c, 0, 79, 79
2, 35688, Note_on_c, 0, 79, 0
2, 35688, Note_on_c, 0, 81, 79
2, 35712, Note_on_c, 0, 81, 0
2, 35712, Note_on_c, 0, 83, 79
2, 35801, Note_on_c, 0, 83, 0
2, 35808, Note_on_c, 0, 79, 79
2, 35847, Note_on_c, 0, 79, 0
2, 35904, Note_on_c, 0, 79, 79
2, 35943, Note_on_c, 0, 79, 0
2, 36000, Note_on_c, 0, 79, 79
2, 36030, Note_on_c, 0, 79, 0
2, 36032, Note_on_c, 0, 83, 79
2, 36062, Note_on_c, 0, 83, 0
2, 36064, Note_on_c, 0, 86, 79
2, 36094, Note_on_c, 0, 86, 0
2, 36096, Note_on_c, 0, 84, 79
2, 36135, Note_on_c, 0, 84, 0
2, 36192, Note_on_c, 0, 84, 79
2, 36264, Note_on_c, 0, 84, 0
2, 36264, Note_on_c, 0, 86, 79
2, 36287, Note_on_c, 0, 86, 0
2, 36288, Note_on_c, 0, 83, 79
2, 36327, Note_on_c, 0, 83, 0
2, 36384, Note_on_c, 0, 83, 79
2, 36456, Note_on_c, 0, 83, 0
2, 36456, Note_on_c, 0, 84, 79
2, 36479, Note_on_c, 0, 84, 0
2, 36480, Note_on_c, 0, 81, 79
2, 36569, Note_on_c, 0, 81, 0
2, 36576, Note_on_c, 0, 81, 79
2, 36643, Note_on_c, 0, 81, 0
2, 36648, Note_on_c, 0, 83, 79
2, 36671, Note_on_c, 0, 83, 0
2, 36672, Note_on_c, 0, 79, 79
2, 36761, Note_on_c, 0, 79, 0
2, 36768, Note_on_c, 0, 79, 79
2, 36798, Note_on_c, 0, 79, 0
2, 36800, Note_on_c, 0, 83, 79
2, 36830, Note_on_c, 0, 83, 0
2, 36832, Note_on_c, 0, 86, 79
2, 36862, Note_on_c, 0, 86, 0
2, 36864, Note_on_c, 0, 84, 79
2, 36884, Note_on_c, 0, 84, 0
2, 36912, Note_on_c, 0, 86, 79
2, 36927, Note_on_c, 0, 86, 0
2, 36928, Note_on_c, 0, 84, 79
2, 36943, Note_on_c, 0, 84, 0
2, 36944, Note_on_c, 0, 83, 79
2, 36959, Note_on_c, 0, 83, 0
2, 36960, Note_on_c, 0, 84, 79
2, 37027, Note_on_c, 0, 84, 0
2, 37032, Note_on_c, 0, 86, 79
2, 37055, Note_on_c, 0, 86, 0
2, 37056, Note_on_c, 0, 83, 79
2, 37076, Note_on_c, 0, 83, 0
2, 37104, Note_on_c, 0, 84, 79
2, 37119, Note_on_c, 0, 84, 0
2, 37120, Note_on_c, 0, 83, 79
2, 37135, Note_on_c, 0, 83, 0
2, 37136, Note_on_c, 0, 81, 79
2, 37151, Note_on_c, 0, 81, 0
2, 37152, Note_on_c, 0, 83, 79
2, 37219, Note_on_c, 0, 83, 0
2, 37224, Note_on_c, 0, 84, 79
2, 37247, Note_on_c, 0, 84, 0
2, 37248, Note_on_c, 0, 81, 79
2, 37268, Note_on_c, 0, 81, 0
2, 37296, Note_on_c, 0, 83, 79
2, 37311, Note_on_c, 0, 83, 0
2, 37312, Note_on_c, 0, 81, 79
2, 37327, Note_on_c, 0, 81, 0
2, 37328, Note_on_c, 0, 79, 79
2, 37343, Note_on_c, 0, 79, 0
2, 37344, Note_on_c, 0, 81, 79
2, 37411, Note_on_c, 0, 81, 0
2, 37416, Note_on_c, 0, 83, 79
2, 37439, Note_on_c, 0, 83, 0
2, 37440, Note_on_c, 0, 79, 79
2, 37479, Note_on_c, 0, 79, 0
2, 37536, Note_on_c, 0, 86, 79
2, 37603, Note_on_c, 0, 86, 0
2, 37608, Note_on_c, 0, 83, 79
2, 37631, Note_on_c, 0, 83, 0
2, 37632, Note_on_c, 0, 81, 79
2, 37652, Note_on_c, 0, 81, 0
2, 37680, Note_on_c, 0, 83, 79
2, 37695, Note_on_c, 0, 83, 0
2, 37696, Note_on_c, 0, 81, 79
2, 37711, Note_on_c, 0, 81, 0
2, 37712, Note_on_c, 0, 79, 80
2, 37727, Note_on_c, 0, 79, 0
2, 37728, Note_on_c, 0, 81, 80
2, 37795, Note_on_c, 0, 81, 0
2, 37800, Note_on_c, 0, 83, 81
2, 37823, Note_on_c, 0, 83, 0
2, 37824, Note_on_c, 0, 79, 81
2, 37844, Note_on_c, 0, 79, 0
2, 37872, Note_on_c, 0, 81, 82
2, 37887, Note_on_c, 0, 81, 0
2, 37888, Note_on_c, 0, 79, 82
2, 37903, Note_on_c, 0, 79, 0
2, 37904, Note_on_c, 0, 78, 82
2, 37919, Note_on_c, 0, 78, 0
2, 37920, Note_on_c, 0, 79, 83
2, 37987, Note_on_c, 0, 79, 0
2, 37992, Note_on_c, 0, 81, 84
2, 38015, Note_on_c, 0, 81, 0
2, 38016, Note_on_c, 0, 78, 85
2, 38105, Note_on_c, 0, 78, 0
2, 38184, Note_on_c, 0, 74, 85
2, 38207, Note_on_c, 0, 74, 0
2, 38208, Note_on_c, 0, 78, 85
2, 38275, Note_on_c, 0, 78, 0
2, 38280, Note_on_c, 0, 74, 85
2, 38303, Note_on_c, 0, 74, 0
2, 38304, Note_on_c, 0, 81, 85
2, 38371, Note_on_c, 0, 81, 0
2, 38376, Note_on_c, 0, 78, 85
2, 38399, Note_on_c, 0, 78, 0
2, 38400, Note_on_c, 0, 86, 85
2, 38489, Note_on_c, 0, 86, 0
2, 38568, Note_on_c, 0, 62, 85
2, 38591, Note_on_c, 0, 62, 0
2, 38592, Note_on_c, 0, 66, 85
2, 38622, Note_on_c, 0, 66, 0
2, 38624, Note_on_c, 0, 62, 85
2, 38654, Note_on_c, 0, 62, 0
2, 38656, Note_on_c, 0, 66, 85
2, 38686, Note_on_c, 0, 66, 0
2, 38688, Note_on_c, 0, 69, 85
2, 38718, Note_on_c, 0, 69, 0
2, 38720, Note_on_c, 0, 66, 85
2, 38750, Note_on_c, 0, 66, 0
2, 38752, Note_on_c, 0, 69, 85
2, 38782, Note_on_c, 0, 69, 0
2, 38784, Note_on_c, 0, 74, 85
2, 38873, Note_on_c, 0, 74, 0
2, 38976, Note_on_c, 0, 50, 85
2, 39034, Note_on_c, 0, 50, 0
2, 39120, Note_on_c, 0, 50, 85
2, 39140, Note_on_c, 0, 50, 0
2, 39168, Note_on_c, 0, 50, 85
2, 39257, Note_on_c, 0, 50, 0
2, 39840, Note_on_c, 0, 76, 79
2, 39863, Note_on_c, 0, 76, 0
2, 39864, Note_on_c, 0, 74, 79
2, 39887, Note_on_c, 0, 74, 0
2, 39888, Note_on_c, 0, 73, 79
2, 39911, Note_on_c, 0, 73, 0
2, 39912, Note_on_c, 0, 74, 79
2, 39936, Note_on_c, 0, 74, 0
2, 39936, Note_on_c, 0, 79, 79
2, 39975, Note_on_c, 0, 79, 0
2, 40032, Note_on_c, 0, 79, 79
2, 40121, Note_on_c, 0, 79, 0
2, 40224, Note_on_c, 0, 76, 79
2, 40247, Note_on_c, 0, 76, 0
2, 40248, Note_on_c, 0, 74, 79
2, 40271, Note_on_c, 0, 74, 0
2, 40272, Note_on_c, 0, 73, 79
2, 40295, Note_on_c, 0, 73, 0
2, 40296, Note_on_c, 0, 74, 79
2, 40320, Note_on_c, 0, 74, 0
2, 40320, Note_on_c, 0, 79, 79
2, 40359, Note_on_c, 0, 79, 0
2, 40416, Note_on_c, 0, 79, 79
2, 40505, Note_on_c, 0, 79, 0
2, 40608, Note_on_c, 0, 76, 79
2, 40631, Note_on_c, 0, 76, 0
2, 40632, Note_on_c, 0, 74, 79
2, 40655, Note_on_c, 0, 74, 0
2, 40656, Note_on_c, 0, 73, 79
2, 40679, Note_on_c, 0, 73, 0
2, 40680, Note_on_c, 0, 74, 79
2, 40704, Note_on_c, 0, 74, 0
2, 40704, Note_on_c, 0, 79, 79
2, 40743, Note_on_c, 0, 79, 0
2, 40800, Note_on_c, 0, 81, 79
2, 40823, Note_on_c, 0, 81, 0
2, 40824, Note_on_c, 0, 79, 79
2, 40847, Note_on_c, 0, 79, 0
2, 40848, Note_on_c, 0, 78, 79
2, 40871, Note_on_c, 0, 78, 0
2, 40872, Note_on_c, 0, 79, 79
2, 40896, Note_on_c, 0, 79, 0
2, 40896, Note_on_c, 0, 81, 80
2, 40935, Note_on_c, 0, 81, 0
2, 40992, Note_on_c, 0, 83, 80
2, 41016, Note_on_c, 0, 83, 0
2, 41016, Note_on_c, 0, 81, 80
2, 41040, Note_on_c, 0, 81, 0
2, 41040, Note_on_c, 0, 79, 80
2, 41064, Note_on_c, 0, 79, 0
2, 41064, Note_on_c, 0, 81, 80
2, 41088, Note_on_c, 0, 81, 0
2, 41088, Note_on_c, 0, 83, 81
2, 41127, Note_on_c, 0, 83, 0
2, 41184, Note_on_c, 0, 84, 81
2, 41208, Note_on_c, 0, 84, 0
2, 41208, Note_on_c, 0, 83, 81
2, 41232, Note_on_c, 0, 83, 0
2, 41232, Note_on_c, 0, 81, 81
2, 41256, Note_on_c, 0, 81, 0
2, 41256, Note_on_c, 0, 83, 81
2, 41280, Note_on_c, 0, 83, 0
2, 41280, Note_on_c, 0, 84, 82
2, 41319, Note_on_c, 0, 84, 0
2, 41376, Note_on_c, 0, 86, 82
2, 41400, Note_on_c, 0, 86, 0
2, 41400, Note_on_c, 0, 84, 82
2, 41424, Note_on_c, 0, 84, 0
2, 41424, Note_on_c, 0, 83, 82
2, 41448, Note_on_c, 0, 83, 0
2, 41448, Note_on_c, 0, 84, 82
2, 41472, Note_on_c, 0, 84, 0
2, 41472, Note_on_c, 0, 86, 83
2, 41737, Note_on_c, 0, 86, 0
2, 41760, Note_on_c, 0, 87, 85
2, 41760, Note_on_c, 0, 75, 85
2, 41856, Note_on_c, 0, 87, 0
2, 41856, Note_on_c, 0, 75, 0
2, 41856, Note_on_c, 0, 88, 101
2, 41856, Note_on_c, 0, 76, 101
2, 41952, Note_on_c, 0, 88, 0
2, 41952, Note_on_c, 0, 76, 0
2, 41952, Note_on_c, 0, 80, 92
2, 41952, Note_on_c, 0, 68, 92
2, 42041, Note_on_c, 0, 80, 0
2, 42041, Note_on_c, 0, 68, 0
2, 42048, Note_on_c, 0, 81, 92
2, 42048, Note_on_c, 0, 69, 92
2, 42137, Note_on_c, 0, 81, 0
2, 42137, Note_on_c, 0, 69, 0
2, 42144, Note_on_c, 0, 83, 92
2, 42144, Note_on_c, 0, 71, 92
2, 42233, Note_on_c, 0, 83, 0
2, 42233, Note_on_c, 0, 71, 0
2, 42240, Note_on_c, 0, 84, 108
2, 42240, Note_on_c, 0, 72, 108
2, 42432, Note_on_c, 0, 84, 0
2, 42432, Note_on_c, 0, 72, 0
2, 42432, Note_on_c, 0, 87, 92
2, 42432, Note_on_c, 0, 75, 92
2, 42521, Note_on_c, 0, 87, 0
2, 42521, Note_on_c, 0, 75, 0
2, 42528, Note_on_c, 0, 88, 92
2, 42528, Note_on_c, 0, 76, 92
2, 42617, Note_on_c, 0, 88, 0
2, 42617, Note_on_c, 0, 76, 0
2, 42624, Note_on_c, 0, 79, 69
2, 42801, Note_on_c, 0, 79, 0
2, 42816, Note_on_c, 0, 83, 69
2, 42861, Note_on_c, 0, 83, 0
2, 42864, Note_on_c, 0, 81, 69
2, 42953, Note_on_c, 0, 81, 0
2, 42960, Note_on_c, 0, 79, 69
2, 43005, Note_on_c, 0, 79, 0
2, 43008, Note_on_c, 0, 79, 69
2, 43097, Note_on_c, 0, 79, 0
2, 43296, Note_on_c, 0, 83, 64
2, 43326, Note_on_c, 0, 83, 0
2, 43328, Note_on_c, 0, 87, 64
2, 43358, Note_on_c, 0, 87, 0
2, 43360, Note_on_c, 0, 88, 64
2, 43390, Note_on_c, 0, 88, 0
2, 43392, Note_on_c, 0, 86, 64
2, 43431, Note_on_c, 0, 86, 0
2, 43488, Note_on_c, 0, 86, 64
2, 43527, Note_on_c, 0, 86, 0
2, 43584, Note_on_c, 0, 86, 64
2, 43623, Note_on_c, 0, 86, 0
2, 43680, Note_on_c, 0, 79, 64
2, 43710, Note_on_c, 0, 79, 0
2, 43712, Note_on_c, 0, 83, 64
2, 43742, Note_on_c, 0, 83, 0
2, 43744, Note_on_c, 0, 84, 64
2, 43774, Note_on_c, 0, 84, 0
2, 43776, Note_on_c, 0, 83, 64
2, 43815, Note_on_c, 0, 83, 0
2, 43872, Note_on_c, 0, 83, 64
2, 43911, Note_on_c, 0, 83, 0
2, 43968, Note_on_c, 0, 83, 64
2, 44007, Note_on_c, 0, 83, 0
2, 44064, Note_on_c, 0, 76, 64
2, 44094, Note_on_c, 0, 76, 0
2, 44096, Note_on_c, 0, 80, 64
2, 44126, Note_on_c, 0, 80, 0
2, 44128, Note_on_c, 0, 81, 64
2, 44158, Note_on_c, 0, 81, 0
2, 44160, Note_on_c, 0, 79, 64
2, 44199, Note_on_c, 0, 79, 0
2, 44256, Note_on_c, 0, 79, 64
2, 44295, Note_on_c, 0, 79, 0
2, 44352, Note_on_c, 0, 79, 64
2, 44391, Note_on_c, 0, 79, 0
2, 44448, Note_on_c, 0, 83, 64
2, 44515, Note_on_c, 0, 83, 0
2, 44520, Note_on_c, 0, 79, 64
2, 44543, Note_on_c, 0, 79, 0
2, 44544, Note_on_c, 0, 76, 64
2, 44583, Note_on_c, 0, 76, 0
2, 44640, Note_on_c, 0, 84, 64
2, 44712, Note_on_c, 0, 84, 0
2, 44712, Note_on_c, 0, 81, 64
2, 44735, Note_on_c, 0, 81, 0
2, 44736, Note_on_c, 0, 78, 64
2, 44775, Note_on_c, 0, 78, 0
2, 44832, Note_on_c, 0, 81, 64
2, 44904, Note_on_c, 0, 81, 0
2, 44904, Note_on_c, 0, 78, 64
2, 44927, Note_on_c, 0, 78, 0
2, 44928, Note_on_c, 0, 79, 64
2, 44967, Note_on_c, 0, 79, 0
2, 45216, Note_on_c, 0, 83, 85
2, 45246, Note_on_c, 0, 83, 0
2, 45248, Note_on_c, 0, 87, 85
2, 45278, Note_on_c, 0, 87, 0
2, 45280, Note_on_c, 0, 88, 85
2, 45310, Note_on_c, 0, 88, 0
2, 45312, Note_on_c, 0, 81, 69
2, 45342, Note_on_c, 0, 81, 0
2, 45344, Note_on_c, 0, 85, 69
2, 45374, Note_on_c, 0, 85, 0
2, 45376, Note_on_c, 0, 86, 69
2, 45406, Note_on_c, 0, 86, 0
2, 45408, Note_on_c, 0, 81, 69
2, 45438, Note_on_c, 0, 81, 0
2, 45440, Note_on_c, 0, 85, 69
2, 45470, Note_on_c, 0, 85, 0
2, 45472, Note_on_c, 0, 86, 69
2, 45502, Note_on_c, 0, 86, 0
2, 45504, Note_on_c, 0, 81, 69
2, 45534, Note_on_c, 0, 81, 0
2, 45536, Note_on_c, 0, 85, 69
2, 45566, Note_on_c, 0, 85, 0
2, 45568, Note_on_c, 0, 86, 69
2, 45598, Note_on_c, 0, 86, 0
2, 45600, Note_on_c, 0, 83, 85
2, 45630, Note_on_c, 0, 83, 0
2, 45632, Note_on_c, 0, 87, 85
2, 45662, Note_on_c, 0, 87, 0
2, 45664, Note_on_c, 0, 88, 85
2, 45694, Note_on_c, 0, 88, 0
2, 45696, Note_on_c, 0, 81, 69
2, 45726, Note_on_c, 0, 81, 0
2, 45728, Note_on_c, 0, 85, 69
2, 45758, Note_on_c, 0, 85, 0
2, 45760, Note_on_c, 0, 86, 69
2, 45790, Note_on_c, 0, 86, 0
2, 45792, Note_on_c, 0, 81, 69
2, 45822, Note_on_c, 0, 81, 0
2, 45824, Note_on_c, 0, 85, 69
2, 45854, Note_on_c, 0, 85, 0
2, 45856, Note_on_c, 0, 86, 69
2, 45886, Note_on_c, 0, 86, 0
2, 45888, Note_on_c, 0, 81, 69
2, 45918, Note_on_c, 0, 81, 0
2, 45920, Note_on_c, 0, 85, 69
2, 45950, Note_on_c, 0, 85, 0
2, 45952, Note_on_c, 0, 86, 69
2, 45982, Note_on_c, 0, 86, 0
2, 45984, Note_on_c, 0, 79, 85
2, 46014, Note_on_c, 0, 79, 0
2, 46016, Note_on_c, 0, 83, 85
2, 46046, Note_on_c, 0, 83, 0
2, 46048, Note_on_c, 0, 84, 85
2, 46078, Note_on_c, 0, 84, 0
2, 46080, Note_on_c, 0, 78, 69
2, 46110, Note_on_c, 0, 78, 0
2, 46112, Note_on_c, 0, 82, 69
2, 46142, Note_on_c, 0, 82, 0
2, 46144, Note_on_c, 0, 83, 69
2, 46174, Note_on_c, 0, 83, 0
2, 46176, Note_on_c, 0, 78, 69
2, 46206, Note_on_c, 0, 78, 0
2, 46208, Note_on_c, 0, 82, 69
2, 46238, Note_on_c, 0, 82, 0
2, 46240, Note_on_c, 0, 83, 69
2, 46270, Note_on_c, 0, 83, 0
2, 46272, Note_on_c, 0, 78, 69
2, 46302, Note_on_c, 0, 78, 0
2, 46304, Note_on_c, 0, 82, 69
2, 46334, Note_on_c, 0, 82, 0
2, 46336, Note_on_c, 0, 83, 69
2, 46366, Note_on_c, 0, 83, 0
2, 46368, Note_on_c, 0, 79, 85
2, 46398, Note_on_c, 0, 79, 0
2, 46400, Note_on_c, 0, 83, 85
2, 46430, Note_on_c, 0, 83, 0
2, 46432, Note_on_c, 0, 84, 85
2, 46462, Note_on_c, 0, 84, 0
2, 46464, Note_on_c, 0, 78, 69
2, 46494, Note_on_c, 0, 78, 0
2, 46496, Note_on_c, 0, 82, 69
2, 46526, Note_on_c, 0, 82, 0
2, 46528, Note_on_c, 0, 83, 69
2, 46558, Note_on_c, 0, 83, 0
2, 46560, Note_on_c, 0, 78, 69
2, 46590, Note_on_c, 0, 78, 0
2, 46592, Note_on_c, 0, 82, 69
2, 46622, Note_on_c, 0, 82, 0
2, 46624, Note_on_c, 0, 83, 69
2, 46654, Note_on_c, 0, 83, 0
2, 46656, Note_on_c, 0, 78, 69
2, 46686, Note_on_c, 0, 78, 0
2, 46688, Note_on_c, 0, 82, 69
2, 46718, Note_on_c, 0, 82, 0
2, 46720, Note_on_c, 0, 83, 69
2, 46750, Note_on_c, 0, 83, 0
2, 46752, Note_on_c, 0, 76, 85
2, 46782, Note_on_c, 0, 76, 0
2, 46784, Note_on_c, 0, 80, 85
2, 46814, Note_on_c, 0, 80, 0
2, 46816, Note_on_c, 0, 81, 85
2, 46846, Note_on_c, 0, 81, 0
2, 46848, Note_on_c, 0, 74, 69
2, 46878, Note_on_c, 0, 74, 0
2, 46880, Note_on_c, 0, 78, 69
2, 46910, Note_on_c, 0, 78, 0
2, 46912, Note_on_c, 0, 79, 69
2, 46942, Note_on_c, 0, 79, 0
2, 46944, Note_on_c, 0, 74, 69
2, 46974, Note_on_c, 0, 74, 0
2, 46976, Note_on_c, 0, 78, 69
2, 47006, Note_on_c, 0, 78, 0
2, 47008, Note_on_c, 0, 79, 69
2, 47038, Note_on_c, 0, 79, 0
2, 47040, Note_on_c, 0, 74, 69
2, 47070, Note_on_c, 0, 74, 0
2, 47072, Note_on_c, 0, 78, 69
2, 47102, Note_on_c, 0, 78, 0
2, 47104, Note_on_c, 0, 79, 69
2, 47134, Note_on_c, 0, 79, 0
2, 47136, Note_on_c, 0, 76, 85
2, 47166, Note_on_c, 0, 76, 0
2, 47168, Note_on_c, 0, 80, 85
2, 47198, Note_on_c, 0, 80, 0
2, 47200, Note_on_c, 0, 81, 85
2, 47230, Note_on_c, 0, 81, 0
2, 47232, Note_on_c, 0, 74, 69
2, 47262, Note_on_c, 0, 74, 0
2, 47264, Note_on_c, 0, 78, 69
2, 47294, Note_on_c, 0, 78, 0
2, 47296, Note_on_c, 0, 79, 69
2, 47326, Note_on_c, 0, 79, 0
2, 47328, Note_on_c, 0, 74, 69
2, 47358, Note_on_c, 0, 74, 0
2, 47360, Note_on_c, 0, 78, 69
2, 47390, Note_on_c, 0, 78, 0
2, 47392, Note_on_c, 0, 79, 70
2, 47422, Note_on_c, 0, 79, 0
2, 47424, Note_on_c, 0, 74, 71
2, 47454, Note_on_c, 0, 74, 0
2, 47456, Note_on_c, 0, 78, 71
2, 47486, Note_on_c, 0, 78, 0
2, 47488, Note_on_c, 0, 79, 72
2, 47518, Note_on_c, 0, 79, 0
2, 47520, Note_on_c, 0, 76, 73
2, 47550, Note_on_c, 0, 76, 0
2, 47552, Note_on_c, 0, 80, 73
2, 47582, Note_on_c, 0, 80, 0
2, 47584, Note_on_c, 0, 81, 74
2, 47614, Note_on_c, 0, 81, 0
2, 47616, Note_on_c, 0, 74, 75
2, 47646, Note_on_c, 0, 74, 0
2, 47648, Note_on_c, 0, 78, 75
2, 47678, Note_on_c, 0, 78, 0
2, 47680, Note_on_c, 0, 79, 76
2, 47710, Note_on_c, 0, 79, 0
2, 47712, Note_on_c, 0, 74, 77
2, 47742, Note_on_c, 0, 74, 0
2, 47744, Note_on_c, 0, 80, 77
2, 47774, Note_on_c, 0, 80, 0
2, 47776, Note_on_c, 0, 81, 78
2, 47806, Note_on_c, 0, 81, 0
2, 47808, Note_on_c, 0, 74, 79
2, 47838, Note_on_c, 0, 74, 0
2, 47840, Note_on_c, 0, 82, 79
2, 47870, Note_on_c, 0, 82, 0
2, 47872, Note_on_c, 0, 83, 80
2, 47902, Note_on_c, 0, 83, 0
2, 47904, Note_on_c, 0, 74, 81
2, 47934, Note_on_c, 0, 74, 0
2, 47936, Note_on_c, 0, 83, 81
2, 47966, Note_on_c, 0, 83, 0
2, 47968, Note_on_c, 0, 84, 82
2, 47998, Note_on_c, 0, 84, 0
2, 48000, Note_on_c, 0, 74, 83
2, 48030, Note_on_c, 0, 74, 0
2, 48032, Note_on_c, 0, 85, 85
2, 48062, Note_on_c, 0, 85, 0
2, 48064, Note_on_c, 0, 86, 85
2, 48094, Note_on_c, 0, 86, 0
2, 48096, Note_on_c, 0, 84, 85
2, 48126, Note_on_c, 0, 84, 0
2, 48128, Note_on_c, 0, 83, 85
2, 48158, Note_on_c, 0, 83, 0
2, 48160, Note_on_c, 0, 81, 85
2, 48190, Note_on_c, 0, 81, 0
2, 48192, Note_on_c, 0, 79, 85
2, 48222, Note_on_c, 0, 79, 0
2, 48224, Note_on_c, 0, 78, 85
2, 48254, Note_on_c, 0, 78, 0
2, 48256, Note_on_c, 0, 76, 85
2, 48286, Note_on_c, 0, 76, 0
2, 48288, Note_on_c, 0, 74, 85
2, 48318, Note_on_c, 0, 74, 0
2, 48320, Note_on_c, 0, 72, 85
2, 48350, Note_on_c, 0, 72, 0
2, 48352, Note_on_c, 0, 71, 85
2, 48382, Note_on_c, 0, 71, 0
2, 48384, Note_on_c, 0, 69, 85
2, 48414, Note_on_c, 0, 69, 0
2, 48416, Note_on_c, 0, 76, 83
2, 48446, Note_on_c, 0, 76, 0
2, 48448, Note_on_c, 0, 74, 82
2, 48478, Note_on_c, 0, 74, 0
2, 48480, Note_on_c, 0, 72, 81
2, 48510, Note_on_c, 0, 72, 0
2, 48512, Note_on_c, 0, 71, 80
2, 48542, Note_on_c, 0, 71, 0
2, 48544, Note_on_c, 0, 69, 78
2, 48574, Note_on_c, 0, 69, 0
2, 48576, Note_on_c, 0, 67, 77
2, 48665, Note_on_c, 0, 67, 0
2, 48672, Note_on_c, 0, 66, 73
2, 48684, Note_on_c, 0, 66, 0
2, 48684, Note_on_c, 0, 67, 73
2, 48696, Note_on_c, 0, 67, 0
2, 48696, Note_on_c, 0, 66, 73
2, 48761, Note_on_c, 0, 66, 0
2, 48800, Note_on_c, 0, 85, 85
2, 48830, Note_on_c, 0, 85, 0
2, 48832, Note_on_c, 0, 86, 85
2, 48862, Note_on_c, 0, 86, 0
2, 48864, Note_on_c, 0, 84, 85
2, 48894, Note_on_c, 0, 84, 0
2, 48896, Note_on_c, 0, 83, 85
2, 48926, Note_on_c, 0, 83, 0
2, 48928, Note_on_c, 0, 81, 85
2, 48958, Note_on_c, 0, 81, 0
2, 48960, Note_on_c, 0, 79, 85
2, 48990, Note_on_c, 0, 79, 0
2, 48992, Note_on_c, 0, 78, 85
2, 49022, Note_on_c, 0, 78, 0
2, 49024, Note_on_c, 0, 76, 85
2, 49054, Note_on_c, 0, 76, 0
2, 49056, Note_on_c, 0, 74, 85
2, 49086, Note_on_c, 0, 74, 0
2, 49088, Note_on_c, 0, 72, 85
2, 49118, Note_on_c, 0, 72, 0
2, 49120, Note_on_c, 0, 71, 85
2, 49150, Note_on_c, 0, 71, 0
2, 49152, Note_on_c, 0, 69, 85
2, 49182, Note_on_c, 0, 69, 0
2, 49184, Note_on_c, 0, 76, 83
2, 49214, Note_on_c, 0, 76, 0
2, 49216, Note_on_c, 0, 74, 82
2, 49246, Note_on_c, 0, 74, 0
2, 49248, Note_on_c, 0, 72, 81
2, 49278, Note_on_c, 0, 72, 0
2, 49280, Note_on_c, 0, 71, 80
2, 49310, Note_on_c, 0, 71, 0
2, 49312, Note_on_c, 0, 69, 78
2, 49342, Note_on_c, 0, 69, 0
2, 49344, Note_on_c, 0, 67, 77
2, 49433, Note_on_c, 0, 67, 0
2, 49440, Note_on_c, 0, 66, 73
2, 49452, Note_on_c, 0, 66, 0
2, 49452, Note_on_c, 0, 67, 73
2, 49464, Note_on_c, 0, 67, 0
2, 49464, Note_on_c, 0, 66, 73
2, 49529, Note_on_c, 0, 66, 0
2, 49536, Note_on_c, 0, 67, 69
2, 49625, Note_on_c, 0, 67, 0
2, 49824, Note_on_c, 0, 74, 79
2, 49891, Note_on_c, 0, 74, 0
2, 49896, Note_on_c, 0, 78, 79
2, 49919, Note_on_c, 0, 78, 0
2, 49920, Note_on_c, 0, 79, 79
2, 49959, Note_on_c, 0, 79, 0
2, 50016, Note_on_c, 0, 79, 79
2, 50055, Note_on_c, 0, 79, 0
2, 50112, Note_on_c, 0, 79, 79
2, 50151, Note_on_c, 0, 79, 0
2, 50208, Note_on_c, 0, 83, 79
2, 50220, Note_on_c, 0, 83, 0
2, 50220, Note_on_c, 0, 81, 79
2, 50232, Note_on_c, 0, 81, 0
2, 50232, Note_on_c, 0, 79, 79
2, 50244, Note_on_c, 0, 79, 0
2, 50244, Note_on_c, 0, 81, 79
2, 50275, Note_on_c, 0, 81, 0
2, 50280, Note_on_c, 0, 86, 79
2, 50303, Note_on_c, 0, 86, 0
2, 50304, Note_on_c, 0, 83, 79
2, 50343, Note_on_c, 0, 83, 0
2, 50400, Note_on_c, 0, 79, 79
2, 50439, Note_on_c, 0, 79, 0
2, 50496, Note_on_c, 0, 79, 79
2, 50535, Note_on_c, 0, 79, 0
2, 50592, Note_on_c, 0, 74, 79
2, 50659, Note_on_c, 0, 74, 0
2, 50664, Note_on_c, 0, 78, 79
2, 50687, Note_on_c, 0, 78, 0
2, 50688, Note_on_c, 0, 79, 79
2, 50727, Note_on_c, 0, 79, 0
2, 50784, Note_on_c, 0, 79, 79
2, 50823, Note_on_c, 0, 79, 0
2, 50880, Note_on_c, 0, 79, 79
2, 50919, Note_on_c, 0, 79, 0
2, 50976, Note_on_c, 0, 83, 79
2, 50988, Note_on_c, 0, 83, 0
2, 50988, Note_on_c, 0, 81, 79
2, 51000, Note_on_c, 0, 81, 0
2, 51000, Note_on_c, 0, 79, 79
2, 51012, Note_on_c, 0, 79, 0
2, 51012, Note_on_c, 0, 81, 79
2, 51043, Note_on_c, 0, 81, 0
2, 51048, Note_on_c, 0, 86, 79
2, 51071, Note_on_c, 0, 86, 0
2, 51072, Note_on_c, 0, 79, 79
2, 51161, Note_on_c, 0, 79, 0
2, 51264, Note_on_c, 0, 74, 77
2, 51264, Note_on_c, 0, 71, 77
2, 51353, Note_on_c, 0, 74, 0
2, 51353, Note_on_c, 0, 71, 0
2, 51456, Note_on_c, 0, 71, 75
2, 51456, Note_on_c, 0, 67, 75
2, 51589, Note_on_c, 0, 71, 0
2, 51589, Note_on_c, 0, 67, 0
2, 51744, Note_on_c, 0, 79, 79
2, 51816, Note_on_c, 0, 79, 0
2, 51816, Note_on_c, 0, 81, 79
2, 51839, Note_on_c, 0, 81, 0
2, 51840, Note_on_c, 0, 77, 79
2, 51879, Note_on_c, 0, 77, 0
2, 51936, Note_on_c, 0, 77, 79
2, 52008, Note_on_c, 0, 77, 0
2, 52008, Note_on_c, 0, 79, 79
2, 52031, Note_on_c, 0, 79, 0
2, 52032, Note_on_c, 0, 76, 79
2, 52071, Note_on_c, 0, 76, 0
2, 52128, Note_on_c, 0, 76, 79
2, 52200, Note_on_c, 0, 76, 0
2, 52200, Note_on_c, 0, 77, 79
2, 52223, Note_on_c, 0, 77, 0
2, 52224, Note_on_c, 0, 74, 79
2, 52263, Note_on_c, 0, 74, 0
2, 52320, Note_on_c, 0, 74, 79
2, 52392, Note_on_c, 0, 74, 0
2, 52392, Note_on_c, 0, 76, 79
2, 52415, Note_on_c, 0, 76, 0
2, 52416, Note_on_c, 0, 72, 79
2, 52455, Note_on_c, 0, 72, 0
2, 52512, Note_on_c, 0, 76, 79
2, 52584, Note_on_c, 0, 76, 0
2, 52584, Note_on_c, 0, 77, 79
2, 52607, Note_on_c, 0, 77, 0
2, 52608, Note_on_c, 0, 74, 85
2, 52647, Note_on_c, 0, 74, 0
2, 52704, Note_on_c, 0, 74, 85
2, 52776, Note_on_c, 0, 74, 0
2, 52776, Note_on_c, 0, 76, 85
2, 52799, Note_on_c, 0, 76, 0
2, 52800, Note_on_c, 0, 72, 85
2, 52894, Note_on_c, 0, 72, 0
2, 52896, Note_on_c, 0, 72, 85
2, 52968, Note_on_c, 0, 72, 0
2, 52968, Note_on_c, 0, 74, 85
2, 52991, Note_on_c, 0, 74, 0
2, 52992, Note_on_c, 0, 71, 85
2, 53553, Note_on_c, 0, 71, 0
2, 53664, Note_on_c, 0, 77, 79
2, 53687, Note_on_c, 0, 77, 0
2, 53688, Note_on_c, 0, 79, 79
2, 53711, Note_on_c, 0, 79, 0
2, 53712, Note_on_c, 0, 81, 79
2, 53735, Note_on_c, 0, 81, 0
2, 53736, Note_on_c, 0, 82, 79
2, 53759, Note_on_c, 0, 82, 0
2, 53760, Note_on_c, 0, 84, 79
2, 53799, Note_on_c, 0, 84, 0
2, 53856, Note_on_c, 0, 84, 79
2, 53895, Note_on_c, 0, 84, 0
2, 53952, Note_on_c, 0, 84, 79
2, 53991, Note_on_c, 0, 84, 0
2, 54048, Note_on_c, 0, 88, 85
2, 54060, Note_on_c, 0, 88, 0
2, 54060, Note_on_c, 0, 89, 85
2, 54087, Note_on_c, 0, 89, 0
2, 54144, Note_on_c, 0, 84, 79
2, 54183, Note_on_c, 0, 84, 0
2, 54240, Note_on_c, 0, 84, 79
2, 54279, Note_on_c, 0, 84, 0
2, 54336, Note_on_c, 0, 84, 79
2, 54356, Note_on_c, 0, 84, 0
2, 54384, Note_on_c, 0, 86, 79
2, 54407, Note_on_c, 0, 86, 0
2, 54408, Note_on_c, 0, 84, 79
2, 54431, Note_on_c, 0, 84, 0
2, 54432, Note_on_c, 0, 82, 79
2, 54455, Note_on_c, 0, 82, 0
2, 54456, Note_on_c, 0, 81, 79
2, 54479, Note_on_c, 0, 81, 0
2, 54480, Note_on_c, 0, 79, 79
2, 54503, Note_on_c, 0, 79, 0
2, 54504, Note_on_c, 0, 77, 79
2, 54527, Note_on_c, 0, 77, 0
2, 54528, Note_on_c, 0, 76, 79
2, 54567, Note_on_c, 0, 76, 0
2, 54624, Note_on_c, 0, 76, 80
2, 54663, Note_on_c, 0, 76, 0
2, 54720, Note_on_c, 0, 77, 82
2, 54759, Note_on_c, 0, 77, 0
2, 54816, Note_on_c, 0, 77, 83
2, 54855, Note_on_c, 0, 77, 0
2, 54912, Note_on_c, 0, 78, 101
2, 55008, Note_on_c, 0, 78, 0
2, 55008, Note_on_c, 0, 79, 85
2, 55097, Note_on_c, 0, 79, 0
2, 55200, Note_on_c, 0, 72, 85
2, 55272, Note_on_c, 0, 72, 0
2, 55272, Note_on_c, 0, 79, 85
2, 55295, Note_on_c, 0, 79, 0
2, 55296, Note_on_c, 0, 82, 85
2, 55335, Note_on_c, 0, 82, 0
2, 55392, Note_on_c, 0, 82, 86
2, 55464, Note_on_c, 0, 82, 0
2, 55464, Note_on_c, 0, 84, 88
2, 55487, Note_on_c, 0, 84, 0
2, 55488, Note_on_c, 0, 81, 88
2, 55527, Note_on_c, 0, 81, 0
2, 55584, Note_on_c, 0, 81, 90
2, 55656, Note_on_c, 0, 81, 0
2, 55656, Note_on_c, 0, 82, 92
2, 55679, Note_on_c, 0, 82, 0
2, 55680, Note_on_c, 0, 79, 92
2, 55700, Note_on_c, 0, 79, 0
2, 55728, Note_on_c, 0, 81, 92
2, 55743, Note_on_c, 0, 81, 0
2, 55744, Note_on_c, 0, 79, 92
2, 55759, Note_on_c, 0, 79, 0
2, 55760, Note_on_c, 0, 78, 92
2, 55775, Note_on_c, 0, 78, 0
2, 55776, Note_on_c, 0, 79, 92
2, 55848, Note_on_c, 0, 79, 0
2, 55848, Note_on_c, 0, 81, 92
2, 55871, Note_on_c, 0, 81, 0
2, 55872, Note_on_c, 0, 77, 92
2, 55911, Note_on_c, 0, 77, 0
2, 55968, Note_on_c, 0, 77, 92
2, 56007, Note_on_c, 0, 77, 0
2, 56064, Note_on_c, 0, 79, 92
2, 56103, Note_on_c, 0, 79, 0
2, 56160, Note_on_c, 0, 79, 92
2, 56199, Note_on_c, 0, 79, 0
2, 56256, Note_on_c, 0, 72, 86
2, 56323, Note_on_c, 0, 72, 0
2, 56328, Note_on_c, 0, 74, 81
2, 56351, Note_on_c, 0, 74, 0
2, 56352, Note_on_c, 0, 76, 80
2, 56419, Note_on_c, 0, 76, 0
2, 56424, Note_on_c, 0, 72, 75
2, 56447, Note_on_c, 0, 72, 0
2, 56448, Note_on_c, 0, 77, 74
2, 56478, Note_on_c, 0, 77, 0
2, 56480, Note_on_c, 0, 72, 74
2, 56510, Note_on_c, 0, 72, 0
2, 56512, Note_on_c, 0, 69, 74
2, 56542, Note_on_c, 0, 69, 0
2, 56544, Note_on_c, 0, 77, 74
2, 56574, Note_on_c, 0, 77, 0
2, 56576, Note_on_c, 0, 72, 74
2, 56606, Note_on_c, 0, 72, 0
2, 56608, Note_on_c, 0, 69, 74
2, 56638, Note_on_c, 0, 69, 0
2, 56640, Note_on_c, 0, 77, 74
2, 56670, Note_on_c, 0, 77, 0
2, 56672, Note_on_c, 0, 72, 74
2, 56702, Note_on_c, 0, 72, 0
2, 56704, Note_on_c, 0, 69, 74
2, 56734, Note_on_c, 0, 69, 0
2, 56736, Note_on_c, 0, 76, 85
2, 56766, Note_on_c, 0, 76, 0
2, 56768, Note_on_c, 0, 72, 85
2, 56798, Note_on_c, 0, 72, 0
2, 56800, Note_on_c, 0, 70, 85
2, 56830, Note_on_c, 0, 70, 0
2, 56832, Note_on_c, 0, 77, 74
2, 56862, Note_on_c, 0, 77, 0
2, 56864, Note_on_c, 0, 72, 74
2, 56894, Note_on_c, 0, 72, 0
2, 56896, Note_on_c, 0, 69, 74
2, 56926, Note_on_c, 0, 69, 0
2, 56928, Note_on_c, 0, 77, 69
2, 56958, Note_on_c, 0, 77, 0
2, 56960, Note_on_c, 0, 72, 69
2, 56990, Note_on_c, 0, 72, 0
2, 56992, Note_on_c, 0, 69, 69
2, 57022, Note_on_c, 0, 69, 0
2, 57024, Note_on_c, 0, 77, 69
2, 57054, Note_on_c, 0, 77, 0
2, 57056, Note_on_c, 0, 72, 69
2, 57086, Note_on_c, 0, 72, 0
2, 57088, Note_on_c, 0, 69, 69
2, 57118, Note_on_c, 0, 69, 0
2, 57120, Note_on_c, 0, 76, 85
2, 57150, Note_on_c, 0, 76, 0
2, 57152, Note_on_c, 0, 72, 85
2, 57182, Note_on_c, 0, 72, 0
2, 57184, Note_on_c, 0, 70, 85
2, 57214, Note_on_c, 0, 70, 0
2, 57216, Note_on_c, 0, 77, 74
2, 57246, Note_on_c, 0, 77, 0
2, 57248, Note_on_c, 0, 72, 74
2, 57278, Note_on_c, 0, 72, 0
2, 57280, Note_on_c, 0, 69, 74
2, 57310, Note_on_c, 0, 69, 0
2, 57312, Note_on_c, 0, 77, 69
2, 57342, Note_on_c, 0, 77, 0
2, 57344, Note_on_c, 0, 72, 69
2, 57374, Note_on_c, 0, 72, 0
2, 57376, Note_on_c, 0, 69, 69
2, 57406, Note_on_c, 0, 69, 0
2, 57408, Note_on_c, 0, 77, 69
2, 57438, Note_on_c, 0, 77, 0
2, 57440, Note_on_c, 0, 72, 69
2, 57470, Note_on_c, 0, 72, 0
2, 57472, Note_on_c, 0, 69, 69
2, 57502, Note_on_c, 0, 69, 0
2, 57504, Note_on_c, 0, 78, 85
2, 57534, Note_on_c, 0, 78, 0
2, 57536, Note_on_c, 0, 74, 85
2, 57566, Note_on_c, 0, 74, 0
2, 57568, Note_on_c, 0, 72, 85
2, 57598, Note_on_c, 0, 72, 0
2, 57600, Note_on_c, 0, 79, 79
2, 57630, Note_on_c, 0, 79, 0
2, 57632, Note_on_c, 0, 74, 79
2, 57662, Note_on_c, 0, 74, 0
2, 57664, Note_on_c, 0, 71, 79
2, 57694, Note_on_c, 0, 71, 0
2, 57696, Note_on_c, 0, 79, 74
2, 57726, Note_on_c, 0, 79, 0
2, 57728, Note_on_c, 0, 74, 74
2, 57758, Note_on_c, 0, 74, 0
2, 57760, Note_on_c, 0, 71, 74
2, 57790, Note_on_c, 0, 71, 0
2, 57792, Note_on_c, 0, 79, 74
2, 57822, Note_on_c, 0, 79, 0
2, 57824, Note_on_c, 0, 74, 74
2, 57854, Note_on_c, 0, 74, 0
2, 57856, Note_on_c, 0, 71, 74
2, 57886, Note_on_c, 0, 71, 0
2, 57888, Note_on_c, 0, 80, 85
2, 57918, Note_on_c, 0, 80, 0
2, 57920, Note_on_c, 0, 76, 85
2, 57950, Note_on_c, 0, 76, 0
2, 57952, Note_on_c, 0, 74, 85
2, 57982, Note_on_c, 0, 74, 0
2, 57984, Note_on_c, 0, 81, 79
2, 58014, Note_on_c, 0, 81, 0
2, 58016, Note_on_c, 0, 76, 79
2, 58046, Note_on_c, 0, 76, 0
2, 58048, Note_on_c, 0, 72, 79
2, 58078, Note_on_c, 0, 72, 0
2, 58080, Note_on_c, 0, 81, 79
2, 58110, Note_on_c, 0, 81, 0
2, 58112, Note_on_c, 0, 76, 79
2, 58142, Note_on_c, 0, 76, 0
2, 58144, Note_on_c, 0, 72, 79
2, 58174, Note_on_c, 0, 72, 0
2, 58176, Note_on_c, 0, 81, 80
2, 58206, Note_on_c, 0, 81, 0
2, 58208, Note_on_c, 0, 76, 81
2, 58238, Note_on_c, 0, 76, 0
2, 58240, Note_on_c, 0, 72, 82
2, 58270, Note_on_c, 0, 72, 0
2, 58272, Note_on_c, 0, 83, 83
2, 58302, Note_on_c, 0, 83, 0
2, 58304, Note_on_c, 0, 80, 85
2, 58334, Note_on_c, 0, 80, 0
2, 58336, Note_on_c, 0, 76, 85
2, 58366, Note_on_c, 0, 76, 0
2, 58368, Note_on_c, 0, 84, 85
2, 58398, Note_on_c, 0, 84, 0
2, 58400, Note_on_c, 0, 81, 85
2, 58430, Note_on_c, 0, 81, 0
2, 58432, Note_on_c, 0, 76, 85
2, 58462, Note_on_c, 0, 76, 0
2, 58464, Note_on_c, 0, 86, 85
2, 58494, Note_on_c, 0, 86, 0
2, 58496, Note_on_c, 0, 83, 85
2, 58526, Note_on_c, 0, 83, 0
2, 58528, Note_on_c, 0, 76, 85
2, 58558, Note_on_c, 0, 76, 0
2, 58560, Note_on_c, 0, 88, 85
2, 58590, Note_on_c, 0, 88, 0
2, 58592, Note_on_c, 0, 84, 85
2, 58622, Note_on_c, 0, 84, 0
2, 58624, Note_on_c, 0, 76, 85
2, 58654, Note_on_c, 0, 76, 0
2, 58656, Note_on_c, 0, 84, 85
2, 58686, Note_on_c, 0, 84, 0
2, 58688, Note_on_c, 0, 81, 85
2, 58718, Note_on_c, 0, 81, 0
2, 58720, Note_on_c, 0, 76, 85
2, 58750, Note_on_c, 0, 76, 0
2, 58752, Note_on_c, 0, 83, 85
2, 58782, Note_on_c, 0, 83, 0
2, 58784, Note_on_c, 0, 80, 85
2, 58814, Note_on_c, 0, 80, 0
2, 58816, Note_on_c, 0, 76, 85
2, 58846, Note_on_c, 0, 76, 0
2, 58848, Note_on_c, 0, 84, 85
2, 58878, Note_on_c, 0, 84, 0
2, 58880, Note_on_c, 0, 81, 85
2, 58910, Note_on_c, 0, 81, 0
2, 58912, Note_on_c, 0, 76, 85
2, 58942, Note_on_c, 0, 76, 0
2, 58944, Note_on_c, 0, 83, 85
2, 58974, Note_on_c, 0, 83, 0
2, 58976, Note_on_c, 0, 80, 85
2, 59006, Note_on_c, 0, 80, 0
2, 59008, Note_on_c, 0, 76, 85
2, 59038, Note_on_c, 0, 76, 0
2, 59040, Note_on_c, 0, 88, 85
2, 59070, Note_on_c, 0, 88, 0
2, 59072, Note_on_c, 0, 83, 85
2, 59102, Note_on_c, 0, 83, 0
2, 59104, Note_on_c, 0, 80, 85
2, 59134, Note_on_c, 0, 80, 0
2, 59136, Note_on_c, 0, 88, 85
2, 59166, Note_on_c, 0, 88, 0
2, 59168, Note_on_c, 0, 84, 85
2, 59198, Note_on_c, 0, 84, 0
2, 59200, Note_on_c, 0, 81, 85
2, 59230, Note_on_c, 0, 81, 0
2, 59232, Note_on_c, 0, 88, 85
2, 59262, Note_on_c, 0, 88, 0
2, 59264, Note_on_c, 0, 84, 85
2, 59294, Note_on_c, 0, 84, 0
2, 59296, Note_on_c, 0, 81, 85
2, 59326, Note_on_c, 0, 81, 0
2, 59328, Note_on_c, 0, 86, 85
2, 59358, Note_on_c, 0, 86, 0
2, 59360, Note_on_c, 0, 83, 85
2, 59390, Note_on_c, 0, 83, 0
2, 59392, Note_on_c, 0, 81, 85
2, 59422, Note_on_c, 0, 81, 0
2, 59424, Note_on_c, 0, 86, 85
2, 59454, Note_on_c, 0, 86, 0
2, 59456, Note_on_c, 0, 83, 85
2, 59486, Note_on_c, 0, 83, 0
2, 59488, Note_on_c, 0, 81, 85
2, 59518, Note_on_c, 0, 81, 0
2, 59520, Note_on_c, 0, 86, 85
2, 59550, Note_on_c, 0, 86, 0
2, 59552, Note_on_c, 0, 83, 85
2, 59582, Note_on_c, 0, 83, 0
2, 59584, Note_on_c, 0, 80, 85
2, 59614, Note_on_c, 0, 80, 0
2, 59616, Note_on_c, 0, 86, 85
2, 59646, Note_on_c, 0, 86, 0
2, 59648, Note_on_c, 0, 83, 85
2, 59678, Note_on_c, 0, 83, 0
2, 59680, Note_on_c, 0, 80, 85
2, 59710, Note_on_c, 0, 80, 0
2, 59712, Note_on_c, 0, 85, 85
2, 59742, Note_on_c, 0, 85, 0
2, 59744, Note_on_c, 0, 81, 85
2, 59774, Note_on_c, 0, 81, 0
2, 59776, Note_on_c, 0, 79, 85
2, 59806, Note_on_c, 0, 79, 0
2, 59808, Note_on_c, 0, 85, 85
2, 59838, Note_on_c, 0, 85, 0
2, 59840, Note_on_c, 0, 81, 85
2, 59870, Note_on_c, 0, 81, 0
2, 59872, Note_on_c, 0, 79, 85
2, 59902, Note_on_c, 0, 79, 0
2, 59904, Note_on_c, 0, 84, 85
2, 59934, Note_on_c, 0, 84, 0
2, 59936, Note_on_c, 0, 81, 85
2, 59966, Note_on_c, 0, 81, 0
2, 59968, Note_on_c, 0, 78, 85
2, 59998, Note_on_c, 0, 78, 0
2, 60000, Note_on_c, 0, 84, 85
2, 60030, Note_on_c, 0, 84, 0
2, 60032, Note_on_c, 0, 81, 85
2, 60062, Note_on_c, 0, 81, 0
2, 60064, Note_on_c, 0, 78, 85
2, 60094, Note_on_c, 0, 78, 0
2, 60096, Note_on_c, 0, 83, 85
2, 60126, Note_on_c, 0, 83, 0
2, 60128, Note_on_c, 0, 79, 85
2, 60158, Note_on_c, 0, 79, 0
2, 60160, Note_on_c, 0, 77, 85
2, 60190, Note_on_c, 0, 77, 0
2, 60192, Note_on_c, 0, 83, 85
2, 60222, Note_on_c, 0, 83, 0
2, 60224, Note_on_c, 0, 79, 85
2, 60254, Note_on_c, 0, 79, 0
2, 60256, Note_on_c, 0, 77, 85
2, 60286, Note_on_c, 0, 77, 0
2, 60288, Note_on_c, 0, 82, 85
2, 60318, Note_on_c, 0, 82, 0
2, 60320, Note_on_c, 0, 79, 85
2, 60350, Note_on_c, 0, 79, 0
2, 60352, Note_on_c, 0, 76, 85
2, 60382, Note_on_c, 0, 76, 0
2, 60384, Note_on_c, 0, 82, 85
2, 60414, Note_on_c, 0, 82, 0
2, 60416, Note_on_c, 0, 79, 85
2, 60446, Note_on_c, 0, 79, 0
2, 60448, Note_on_c, 0, 76, 85
2, 60478, Note_on_c, 0, 76, 0
2, 60480, Note_on_c, 0, 81, 85
2, 60510, Note_on_c, 0, 81, 0
2, 60512, Note_on_c, 0, 77, 85
2, 60542, Note_on_c, 0, 77, 0
2, 60544, Note_on_c, 0, 72, 85
2, 60574, Note_on_c, 0, 72, 0
2, 60576, Note_on_c, 0, 81, 85
2, 60606, Note_on_c, 0, 81, 0
2, 60608, Note_on_c, 0, 77, 85
2, 60638, Note_on_c, 0, 77, 0
2, 60640, Note_on_c, 0, 72, 85
2, 60670, Note_on_c, 0, 72, 0
2, 60672, Note_on_c, 0, 82, 85
2, 60702, Note_on_c, 0, 82, 0
2, 60704, Note_on_c, 0, 79, 85
2, 60734, Note_on_c, 0, 79, 0
2, 60736, Note_on_c, 0, 72, 85
2, 60766, Note_on_c, 0, 72, 0
2, 60768, Note_on_c, 0, 82, 85
2, 60798, Note_on_c, 0, 82, 0
2, 60800, Note_on_c, 0, 79, 85
2, 60830, Note_on_c, 0, 79, 0
2, 60832, Note_on_c, 0, 72, 85
2, 60862, Note_on_c, 0, 72, 0
2, 60864, Note_on_c, 0, 81, 85
2, 60894, Note_on_c, 0, 81, 0
2, 60896, Note_on_c, 0, 77, 85
2, 60926, Note_on_c, 0, 77, 0
2, 60928, Note_on_c, 0, 72, 85
2, 60958, Note_on_c, 0, 72, 0
2, 60960, Note_on_c, 0, 81, 85
2, 60990, Note_on_c, 0, 81, 0
2, 60992, Note_on_c, 0, 77, 85
2, 61022, Note_on_c, 0, 77, 0
2, 61024, Note_on_c, 0, 72, 85
2, 61054, Note_on_c, 0, 72, 0
2, 61056, Note_on_c, 0, 81, 85
2, 61086, Note_on_c, 0, 81, 0
2, 61088, Note_on_c, 0, 77, 85
2, 61118, Note_on_c, 0, 77, 0
2, 61120, Note_on_c, 0, 72, 85
2, 61150, Note_on_c, 0, 72, 0
2, 61152, Note_on_c, 0, 81, 85
2, 61182, Note_on_c, 0, 81, 0
2, 61184, Note_on_c, 0, 77, 85
2, 61214, Note_on_c, 0, 77, 0
2, 61216, Note_on_c, 0, 72, 85
2, 61246, Note_on_c, 0, 72, 0
2, 61248, Note_on_c, 0, 81, 85
2, 61278, Note_on_c, 0, 81, 0
2, 61280, Note_on_c, 0, 76, 85
2, 61310, Note_on_c, 0, 76, 0
2, 61312, Note_on_c, 0, 72, 85
2, 61342, Note_on_c, 0, 72, 0
2, 61344, Note_on_c, 0, 81, 85
2, 61374, Note_on_c, 0, 81, 0
2, 61376, Note_on_c, 0, 76, 85
2, 61406, Note_on_c, 0, 76, 0
2, 61408, Note_on_c, 0, 72, 85
2, 61438, Note_on_c, 0, 72, 0
2, 61440, Control_c, 0, 64, 127
2, 61440, Note_on_c, 0, 81, 85
2, 61470, Note_on_c, 0, 81, 0
2, 61472, Note_on_c, 0, 78, 85
2, 61502, Note_on_c, 0, 78, 0
2, 61504, Note_on_c, 0, 72, 85
2, 61534, Note_on_c, 0, 72, 0
2, 61536, Note_on_c, 0, 81, 85
2, 61566, Note_on_c, 0, 81, 0
2, 61568, Note_on_c, 0, 78, 85
2, 61598, Note_on_c, 0, 78, 0
2, 61600, Note_on_c, 0, 72, 85
2, 61630, Note_on_c, 0, 72, 0
2, 61632, Note_on_c, 0, 81, 85
2, 61662, Note_on_c, 0, 81, 0
2, 61664, Note_on_c, 0, 78, 85
2, 61694, Note_on_c, 0, 78, 0
2, 61696, Note_on_c, 0, 72, 85
2, 61726, Note_on_c, 0, 72, 0
2, 61728, Note_on_c, 0, 81, 85
2, 61758, Note_on_c, 0, 81, 0
2, 61760, Note_on_c, 0, 78, 85
2, 61790, Note_on_c, 0, 78, 0
2, 61792, Note_on_c, 0, 72, 85
2, 61822, Note_on_c, 0, 72, 0
2, 61824, Note_on_c, 0, 81, 85
2, 61854, Note_on_c, 0, 81, 0
2, 61856, Note_on_c, 0, 78, 85
2, 61886, Note_on_c, 0, 78, 0
2, 61888, Note_on_c, 0, 72, 85
2, 61918, Note_on_c, 0, 72, 0
2, 61920, Note_on_c, 0, 81, 85
2, 61950, Note_on_c, 0, 81, 0
2, 61952, Note_on_c, 0, 78, 85
2, 61982, Note_on_c, 0, 78, 0
2, 61984, Note_on_c, 0, 72, 85
2, 62014, Note_on_c, 0, 72, 0
2, 62016, Note_on_c, 0, 81, 85
2, 62046, Note_on_c, 0, 81, 0
2, 62048, Note_on_c, 0, 78, 85
2, 62078, Note_on_c, 0, 78, 0
2, 62080, Note_on_c, 0, 72, 85
2, 62110, Note_on_c, 0, 72, 0
2, 62112, Note_on_c, 0, 81, 85
2, 62142, Note_on_c, 0, 81, 0
2, 62144, Note_on_c, 0, 78, 85
2, 62174, Note_on_c, 0, 78, 0
2, 62176, Note_on_c, 0, 72, 85
2, 62206, Note_on_c, 0, 72, 0
2, 62208, Control_c, 0, 64, 0
2, 62208, Note_on_c, 0, 81, 85
2, 62238, Note_on_c, 0, 81, 0
2, 62240, Note_on_c, 0, 76, 85
2, 62270, Note_on_c, 0, 76, 0
2, 62272, Note_on_c, 0, 72, 85
2, 62302, Note_on_c, 0, 72, 0
2, 62304, Note_on_c, 0, 81, 85
2, 62334, Note_on_c, 0, 81, 0
2, 62336, Note_on_c, 0, 76, 85
2, 62366, Note_on_c, 0, 76, 0
2, 62368, Note_on_c, 0, 72, 85
2, 62398, Note_on_c, 0, 72, 0
2, 62400, Note_on_c, 0, 80, 85
2, 62430, Note_on_c, 0, 80, 0
2, 62432, Note_on_c, 0, 74, 85
2, 62462, Note_on_c, 0, 74, 0
2, 62464, Note_on_c, 0, 71, 85
2, 62494, Note_on_c, 0, 71, 0
2, 62496, Note_on_c, 0, 80, 85
2, 62526, Note_on_c, 0, 80, 0
2, 62528, Note_on_c, 0, 74, 85
2, 62558, Note_on_c, 0, 74, 0
2, 62560, Note_on_c, 0, 71, 85
2, 62590, Note_on_c, 0, 71, 0
2, 62592, Note_on_c, 0, 77, 85
2, 62622, Note_on_c, 0, 77, 0
2, 62624, Note_on_c, 0, 72, 85
2, 62654, Note_on_c, 0, 72, 0
2, 62656, Note_on_c, 0, 69, 85
2, 62686, Note_on_c, 0, 69, 0
2, 62688, Note_on_c, 0, 77, 85
2, 62718, Note_on_c, 0, 77, 0
2, 62720, Note_on_c, 0, 72, 85
2, 62750, Note_on_c, 0, 72, 0
2, 62752, Note_on_c, 0, 69, 85
2, 62782, Note_on_c, 0, 69, 0
2, 62784, Note_on_c, 0, 76, 85
2, 62814, Note_on_c, 0, 76, 0
2, 62816, Note_on_c, 0, 71, 85
2, 62846, Note_on_c, 0, 71, 0
2, 62848, Note_on_c, 0, 68, 85
2, 62878, Note_on_c, 0, 68, 0
2, 62880, Note_on_c, 0, 76, 85
2, 62910, Note_on_c, 0, 76, 0
2, 62912, Note_on_c, 0, 71, 85
2, 62942, Note_on_c, 0, 71, 0
2, 62944, Note_on_c, 0, 68, 85
2, 62974, Note_on_c, 0, 68, 0
2, 62976, Note_on_c, 0, 75, 85
2, 63006, Note_on_c, 0, 75, 0
2, 63008, Note_on_c, 0, 69, 85
2, 63038, Note_on_c, 0, 69, 0
2, 63040, Note_on_c, 0, 66, 85
2, 63070, Note_on_c, 0, 66, 0
2, 63072, Note_on_c, 0, 75, 85
2, 63102, Note_on_c, 0, 75, 0
2, 63104, Note_on_c, 0, 69, 85
2, 63134, Note_on_c, 0, 69, 0
2, 63136, Note_on_c, 0, 66, 85
2, 63166, Note_on_c, 0, 66, 0
2, 63168, Note_on_c, 0, 74, 85
2, 63198, Note_on_c, 0, 74, 0
2, 63200, Note_on_c, 0, 71, 85
2, 63230, Note_on_c, 0, 71, 0
2, 63232, Note_on_c, 0, 68, 85
2, 63262, Note_on_c, 0, 68, 0
2, 63264, Note_on_c, 0, 74, 85
2, 63294, Note_on_c, 0, 74, 0
2, 63296, Note_on_c, 0, 71, 85
2, 63326, Note_on_c, 0, 71, 0
2, 63328, Note_on_c, 0, 68, 85
2, 63358, Note_on_c, 0, 68, 0
2, 63360, Note_on_c, 0, 72, 85
2, 63390, Note_on_c, 0, 72, 0
2, 63392, Note_on_c, 0, 69, 85
2, 63422, Note_on_c, 0, 69, 0
2, 63424, Note_on_c, 0, 64, 85
2, 63454, Note_on_c, 0, 64, 0
2, 63456, Note_on_c, 0, 72, 85
2, 63486, Note_on_c, 0, 72, 0
2, 63488, Note_on_c, 0, 69, 85
2, 63518, Note_on_c, 0, 69, 0
2, 63520, Note_on_c, 0, 64, 85
2, 63550, Note_on_c, 0, 64, 0
2, 63552, Note_on_c, 0, 69, 85
2, 63582, Note_on_c, 0, 69, 0
2, 63584, Note_on_c, 0, 64, 85
2, 63614, Note_on_c, 0, 64, 0
2, 63616, Note_on_c, 0, 60, 85
2, 63646, Note_on_c, 0, 60, 0
2, 63648, Note_on_c, 0, 69, 85
2, 63678, Note_on_c, 0, 69, 0
2, 63680, Note_on_c, 0, 64, 85
2, 63710, Note_on_c, 0, 64, 0
2, 63712, Note_on_c, 0, 60, 85
2, 63742, Note_on_c, 0, 60, 0
2, 63744, Note_on_c, 0, 70, 85
2, 63774, Note_on_c, 0, 70, 0
2, 63776, Note_on_c, 0, 65, 85
2, 63806, Note_on_c, 0, 65, 0
2, 63808, Note_on_c, 0, 62, 85
2, 63838, Note_on_c, 0, 62, 0
2, 63840, Note_on_c, 0, 70, 85
2, 63870, Note_on_c, 0, 70, 0
2, 63872, Note_on_c, 0, 65, 85
2, 63902, Note_on_c, 0, 65, 0
2, 63904, Note_on_c, 0, 62, 85
2, 63934, Note_on_c, 0, 62, 0
2, 63936, Note_on_c, 0, 68, 85
2, 63966, Note_on_c, 0, 68, 0
2, 63968, Note_on_c, 0, 62, 85
2, 63998, Note_on_c, 0, 62, 0
2, 64000, Note_on_c, 0, 59, 85
2, 64030, Note_on_c, 0, 59, 0
2, 64032, Note_on_c, 0, 68, 85
2, 64062, Note_on_c, 0, 68, 0
2, 64064, Note_on_c, 0, 62, 85
2, 64094, Note_on_c, 0, 62, 0
2, 64096, Note_on_c, 0, 59, 85
2, 64126, Note_on_c, 0, 59, 0
2, 64128, Note_on_c, 0, 67, 85
2, 64158, Note_on_c, 0, 67, 0
2, 64160, Note_on_c, 0, 64, 84
2, 64190, Note_on_c, 0, 64, 0
2, 64192, Note_on_c, 0, 61, 84
2, 64222, Note_on_c, 0, 61, 0
2, 64224, Note_on_c, 0, 67, 83
2, 64254, Note_on_c, 0, 67, 0
2, 64256, Note_on_c, 0, 64, 83
2, 64286, Note_on_c, 0, 64, 0
2, 64288, Note_on_c, 0, 61, 82
2, 64318, Note_on_c, 0, 61, 0
2, 64320, Note_on_c, 0, 67, 82
2, 64350, Note_on_c, 0, 67, 0
2, 64352, Note_on_c, 0, 64, 81
2, 64382, Note_on_c, 0, 64, 0
2, 64384, Note_on_c, 0, 61, 81
2, 64414, Note_on_c, 0, 61, 0
2, 64416, Note_on_c, 0, 67, 80
2, 64446, Note_on_c, 0, 67, 0
2, 64448, Note_on_c, 0, 64, 80
2, 64478, Note_on_c, 0, 64, 0
2, 64480, Note_on_c, 0, 61, 79
2, 64510, Note_on_c, 0, 61, 0
2, 64512, Control_c, 0, 64, 127
2, 64512, Note_on_c, 0, 58, 79
2, 64518, Note_on_c, 0, 61, 79
2, 64524, Note_on_c, 0, 64, 79
2, 64530, Note_on_c, 0, 67, 79
2, 64697, Note_on_c, 0, 67, 0
2, 64697, Note_on_c, 0, 64, 0
2, 64697, Note_on_c, 0, 61, 0
2, 64697, Note_on_c, 0, 58, 0
2, 64704, Control_c, 0, 64, 0
2, 64704, Note_on_c, 0, 65, 69
2, 64793, Note_on_c, 0, 65, 0
2, 64800, Note_on_c, 0, 64, 69
2, 64889, Note_on_c, 0, 64, 0
2, 64896, Note_on_c, 0, 65, 85
2, 64926, Note_on_c, 0, 65, 0
2, 64928, Note_on_c, 0, 62, 85
2, 64958, Note_on_c, 0, 62, 0
2, 64960, Note_on_c, 0, 57, 85
2, 64990, Note_on_c, 0, 57, 0
2, 64992, Note_on_c, 0, 65, 85
2, 65022, Note_on_c, 0, 65, 0
2, 65024, Note_on_c, 0, 62, 85
2, 65054, Note_on_c, 0, 62, 0
2, 65056, Note_on_c, 0, 57, 85
2, 65086, Note_on_c, 0, 57, 0
2, 65088, Note_on_c, 0, 65, 85
2, 65118, Note_on_c, 0, 65, 0
2, 65120, Note_on_c, 0, 62, 85
2, 65150, Note_on_c, 0, 62, 0
2, 65152, Note_on_c, 0, 57, 85
2, 65182, Note_on_c, 0, 57, 0
2, 65184, Note_on_c, 0, 65, 85
2, 65214, Note_on_c, 0, 65, 0
2, 65216, Note_on_c, 0, 62, 85
2, 65246, Note_on_c, 0, 62, 0
2, 65248, Note_on_c, 0, 57, 85
2, 65278, Note_on_c, 0, 57, 0
2, 65280, Note_on_c, 0, 65, 85
2, 65310, Note_on_c, 0, 65, 0
2, 65312, Note_on_c, 0, 62, 85
2, 65342, Note_on_c, 0, 62, 0
2, 65344, Note_on_c, 0, 55, 85
2, 65374, Note_on_c, 0, 55, 0
2, 65376, Note_on_c, 0, 65, 85
2, 65406, Note_on_c, 0, 65, 0
2, 65408, Note_on_c, 0, 62, 85
2, 65438, Note_on_c, 0, 62, 0
2, 65440, Note_on_c, 0, 55, 85
2, 65470, Note_on_c, 0, 55, 0
2, 65472, Note_on_c, 0, 65, 85
2, 65502, Note_on_c, 0, 65, 0
2, 65504, Note_on_c, 0, 62, 85
2, 65534, Note_on_c, 0, 62, 0
2, 65536, Note_on_c, 0, 55, 85
2, 65566, Note_on_c, 0, 55, 0
2, 65568, Note_on_c, 0, 65, 85
2, 65598, Note_on_c, 0, 65, 0
2, 65600, Note_on_c, 0, 62, 85
2, 65630, Note_on_c, 0, 62, 0
2, 65632, Note_on_c, 0, 55, 85
2, 65662, Note_on_c, 0, 55, 0
2, 65664, Note_on_c, 0, 65, 85
2, 65664, Note_on_c, 0, 62, 85
2, 65664, Note_on_c, 0, 55, 85
2, 65929, Note_on_c, 0, 65, 0
2, 65929, Note_on_c, 0, 62, 0
2, 65929, Note_on_c, 0, 55, 0
2, 65952, Note_on_c, 0, 55, 69
2, 66024, Note_on_c, 0, 55, 0
2, 66024, Note_on_c, 0, 59, 69
2, 66047, Note_on_c, 0, 59, 0
2, 66048, Note_on_c, 0, 62, 69
2, 66087, Note_on_c, 0, 62, 0
2, 66144, Note_on_c, 0, 59, 69
2, 66216, Note_on_c, 0, 59, 0
2, 66216, Note_on_c, 0, 62, 70
2, 66239, Note_on_c, 0, 62, 0
2, 66240, Note_on_c, 0, 65, 70
2, 66279, Note_on_c, 0, 65, 0
2, 66336, Note_on_c, 0, 62, 71
2, 66408, Note_on_c, 0, 62, 0
2, 66408, Note_on_c, 0, 65, 72
2, 66431, Note_on_c, 0, 65, 0
2, 66432, Note_on_c, 0, 71, 72
2, 66471, Note_on_c, 0, 71, 0
2, 66528, Note_on_c, 0, 65, 73
2, 66600, Note_on_c, 0, 65, 0
2, 66600, Note_on_c, 0, 71, 73
2, 66623, Note_on_c, 0, 71, 0
2, 66624, Note_on_c, 0, 74, 74
2, 66663, Note_on_c, 0, 74, 0
2, 66720, Note_on_c, 0, 77, 74
2, 66743, Note_on_c, 0, 77, 0
2, 66744, Note_on_c, 0, 76, 73
2, 66767, Note_on_c, 0, 76, 0
2, 66768, Note_on_c, 0, 74, 73
2, 66791, Note_on_c, 0, 74, 0
2, 66792, Note_on_c, 0, 72, 73
2, 66815, Note_on_c, 0, 72, 0
2, 66816, Note_on_c, 0, 71, 73
2, 66855, Note_on_c, 0, 71, 0
2, 66912, Note_on_c, 0, 74, 72
2, 66935, Note_on_c, 0, 74, 0
2, 66936, Note_on_c, 0, 72, 71
2, 66959, Note_on_c, 0, 72, 0
2, 66960, Note_on_c, 0, 71, 71
2, 66983, Note_on_c, 0, 71, 0
2, 66984, Note_on_c, 0, 69, 71
2, 67007, Note_on_c, 0, 69, 0
2, 67008, Note_on_c, 0, 67, 71
2, 67047, Note_on_c, 0, 67, 0
2, 67104, Note_on_c, 0, 71, 70
2, 67127, Note_on_c, 0, 71, 0
2, 67128, Note_on_c, 0, 69, 69
2, 67151, Note_on_c, 0, 69, 0
2, 67152, Note_on_c, 0, 67, 69
2, 67175, Note_on_c, 0, 67, 0
2, 67176, Note_on_c, 0, 66, 69
2, 67199, Note_on_c, 0, 66, 0
2, 67200, Note_on_c, 0, 67, 69
2, 67230, Note_on_c, 0, 67, 0
2, 67232, Note_on_c, 0, 74, 69
2, 67262, Note_on_c, 0, 74, 0
2, 67264, Note_on_c, 0, 71, 69
2, 67294, Note_on_c, 0, 71, 0
2, 67296, Note_on_c, 0, 67, 69
2, 67326, Note_on_c, 0, 67, 0
2, 67328, Note_on_c, 0, 71, 69
2, 67358, Note_on_c, 0, 71, 0
2, 67360, Note_on_c, 0, 67, 69
2, 67390, Note_on_c, 0, 67, 0
2, 67392, Note_on_c, 0, 62, 69
2, 67422, Note_on_c, 0, 62, 0
2, 67424, Note_on_c, 0, 67, 69
2, 67454, Note_on_c, 0, 67, 0
2, 67456, Note_on_c, 0, 62, 69
2, 67486, Note_on_c, 0, 62, 0
2, 67488, Note_on_c, 0, 59, 69
2, 67518, Note_on_c, 0, 59, 0
2, 67520, Note_on_c, 0, 62, 69
2, 67550, Note_on_c, 0, 62, 0
2, 67552, Note_on_c, 0, 59, 69
2, 67582, Note_on_c, 0, 59, 0
2, 67584, Note_on_c, 0, 55, 69
2, 67673, Note_on_c, 0, 55, 0
2, 67680, Note_on_c, 0, 57, 70
2, 67725, Note_on_c, 0, 57, 0
2, 67728, Note_on_c, 0, 59, 70
2, 67773, Note_on_c, 0, 59, 0
2, 67776, Note_on_c, 0, 60, 71
2, 67821, Note_on_c, 0, 60, 0
2, 67824, Note_on_c, 0, 62, 72
2, 67869, Note_on_c, 0, 62, 0
2, 67872, Note_on_c, 0, 64, 72
2, 67917, Note_on_c, 0, 64, 0
2, 67920, Note_on_c, 0, 66, 73
2, 67965, Note_on_c, 0, 66, 0
2, 67968, Note_on_c, 0, 67, 85
2, 67988, Note_on_c, 0, 67, 0
2, 68016, Note_on_c, 0, 67, 85
2, 68061, Note_on_c, 0, 67, 0
2, 68064, Note_on_c, 0, 69, 85
2, 68109, Note_on_c, 0, 69, 0
2, 68112, Note_on_c, 0, 71, 85
2, 68157, Note_on_c, 0, 71, 0
2, 68160, Note_on_c, 0, 72, 85
2, 68205, Note_on_c, 0, 72, 0
2, 68208, Note_on_c, 0, 74, 85
2, 68253, Note_on_c, 0, 74, 0
2, 68256, Note_on_c, 0, 76, 85
2, 68301, Note_on_c, 0, 76, 0
2, 68304, Note_on_c, 0, 78, 85
2, 68349, Note_on_c, 0, 78, 0
2, 68352, Note_on_c, 0, 79, 85
2, 68370, Note_on_c, 0, 79, 0
2, 68370, Note_on_c, 0, 81, 85
2, 68388, Note_on_c, 0, 81, 0
2, 68388, Note_on_c, 0, 79, 85
2, 68406, Note_on_c, 0, 79, 0
2, 68406, Note_on_c, 0, 81, 85
2, 68424, Note_on_c, 0, 81, 0
2, 68424, Note_on_c, 0, 79, 85
2, 68442, Note_on_c, 0, 79, 0
2, 68442, Note_on_c, 0, 81, 85
2, 68460, Note_on_c, 0, 81, 0
2, 68460, Note_on_c, 0, 79, 85
2, 68478, Note_on_c, 0, 79, 0
2, 68478, Note_on_c, 0, 81, 85
2, 68496, Note_on_c, 0, 81, 0
2, 68496, Note_on_c, 0, 79, 85
2, 68514, Note_on_c, 0, 79, 0
2, 68514, Note_on_c, 0, 81, 85
2, 68532, Note_on_c, 0, 81, 0
2, 68532, Note_on_c, 0, 79, 85
2, 68550, Note_on_c, 0, 79, 0
2, 68550, Note_on_c, 0, 81, 85
2, 68568, Note_on_c, 0, 81, 0
2, 68568, Note_on_c, 0, 79, 85
2, 68586, Note_on_c, 0, 79, 0
2, 68586, Note_on_c, 0, 81, 85
2, 68604, Note_on_c, 0, 81, 0
2, 68604, Note_on_c, 0, 79, 85
2, 68617, Note_on_c, 0, 79, 0
2, 68640, Note_on_c, 0, 78, 85
2, 68685, Note_on_c, 0, 78, 0
2, 68688, Note_on_c, 0, 79, 85
2, 68733, Note_on_c, 0, 79, 0
2, 68736, Note_on_c, 0, 67, 85
2, 69046, Note_on_c, 0, 67, 0
2, 69408, Note_on_c, 0, 60, 79
2, 69475, Note_on_c, 0, 60, 0
2, 69480, Note_on_c, 0, 64, 79
2, 69503, Note_on_c, 0, 64, 0
2, 69504, Note_on_c, 0, 67, 79
2, 69543, Note_on_c, 0, 67, 0
2, 69600, Note_on_c, 0, 67, 79
2, 69639, Note_on_c, 0, 67, 0
2, 69696, Note_on_c, 0, 67, 79
2, 69735, Note_on_c, 0, 67, 0
2, 69792, Note_on_c, 0, 71, 85
2, 69804, Note_on_c, 0, 71, 0
2, 69804, Note_on_c, 0, 72, 85
2, 69831, Note_on_c, 0, 72, 0
2, 69888, Note_on_c, 0, 67, 79
2, 69927, Note_on_c, 0, 67, 0
2, 69984, Note_on_c, 0, 67, 79
2, 70023, Note_on_c, 0, 67, 0
2, 70080, Note_on_c, 0, 67, 79
2, 70119, Note_on_c, 0, 67, 0
2, 70176, Note_on_c, 0, 64, 79
2, 70243, Note_on_c, 0, 64, 0
2, 70248, Note_on_c, 0, 60, 79
2, 70271, Note_on_c, 0, 60, 0
2, 70272, Note_on_c, 0, 59, 79
2, 70311, Note_on_c, 0, 59, 0
2, 70368, Note_on_c, 0, 59, 80
2, 70407, Note_on_c, 0, 59, 0
2, 70464, Note_on_c, 0, 60, 82
2, 70503, Note_on_c, 0, 60, 0
2, 70560, Note_on_c, 0, 60, 83
2, 70599, Note_on_c, 0, 60, 0
2, 70656, Note_on_c, 0, 62, 85
2, 70745, Note_on_c, 0, 62, 0
2, 70944, Note_on_c, 0, 55, 79
2, 71011, Note_on_c, 0, 55, 0
2, 71016, Note_on_c, 0, 62, 79
2, 71039, Note_on_c, 0, 62, 0
2, 71040, Note_on_c, 0, 65, 79
2, 71079, Note_on_c, 0, 65, 0
2, 71136, Note_on_c, 0, 65, 79
2, 71208, Note_on_c, 0, 65, 0
2, 71208, Note_on_c, 0, 67, 80
2, 71231, Note_on_c, 0, 67, 0
2, 71232, Note_on_c, 0, 64, 80
2, 71271, Note_on_c, 0, 64, 0
2, 71328, Note_on_c, 0, 64, 82
2, 71400, Note_on_c, 0, 64, 0
2, 71400, Note_on_c, 0, 65, 83
2, 71423, Note_on_c, 0, 65, 0
2, 71424, Note_on_c, 0, 62, 84
2, 71463, Note_on_c, 0, 62, 0
2, 71520, Note_on_c, 0, 62, 84
2, 71592, Note_on_c, 0, 62, 0
2, 71592, Note_on_c, 0, 64, 82
2, 71615, Note_on_c, 0, 64, 0
2, 71616, Note_on_c, 0, 60, 82
2, 71655, Note_on_c, 0, 60, 0
2, 71712, Note_on_c, 0, 60, 80
2, 71751, Note_on_c, 0, 60, 0
2, 71808, Note_on_c, 0, 62, 79
2, 71847, Note_on_c, 0, 62, 0
2, 71904, Note_on_c, 0, 62, 79
2, 71943, Note_on_c, 0, 62, 0
2, 72000, Note_on_c, 0, 59, 79
2, 72039, Note_on_c, 0, 59, 0
2, 72096, Note_on_c, 0, 59, 79
2, 72135, Note_on_c, 0, 59, 0
2, 72480, Note_on_c, 0, 72, 85
2, 72503, Note_on_c, 0, 72, 0
2, 72504, Note_on_c, 0, 74, 85
2, 72527, Note_on_c, 0, 74, 0
2, 72528, Note_on_c, 0, 75, 85
2, 72551, Note_on_c, 0, 75, 0
2, 72552, Note_on_c, 0, 77, 85
2, 72575, Note_on_c, 0, 77, 0
2, 72576, Note_on_c, 0, 79, 85
2, 72615, Note_on_c, 0, 79, 0
2, 72672, Note_on_c, 0, 79, 85
2, 72711, Note_on_c, 0, 79, 0
2, 72768, Note_on_c, 0, 79, 85
2, 72807, Note_on_c, 0, 79, 0
2, 72864, Note_on_c, 0, 83, 85
2, 72876, Note_on_c, 0, 83, 0
2, 72876, Note_on_c, 0, 84, 85
2, 72903, Note_on_c, 0, 84, 0
2, 72960, Note_on_c, 0, 79, 85
2, 72999, Note_on_c, 0, 79, 0
2, 73056, Note_on_c, 0, 79, 85
2, 73095, Note_on_c, 0, 79, 0
2, 73152, Note_on_c, 0, 79, 85
2, 73191, Note_on_c, 0, 79, 0
2, 73248, Note_on_c, 0, 72, 85
2, 73271, Note_on_c, 0, 72, 0
2, 73272, Note_on_c, 0, 74, 85
2, 73295, Note_on_c, 0, 74, 0
2, 73296, Note_on_c, 0, 76, 85
2, 73319, Note_on_c, 0, 76, 0
2, 73320, Note_on_c, 0, 77, 85
2, 73343, Note_on_c, 0, 77, 0
2, 73344, Note_on_c, 0, 79, 85
2, 73383, Note_on_c, 0, 79, 0
2, 73440, Note_on_c, 0, 79, 85
2, 73479, Note_on_c, 0, 79, 0
2, 73536, Note_on_c, 0, 79, 85
2, 73575, Note_on_c, 0, 79, 0
2, 73632, Note_on_c, 0, 83, 85
2, 73644, Note_on_c, 0, 83, 0
2, 73644, Note_on_c, 0, 84, 85
2, 73671, Note_on_c, 0, 84, 0
2, 73728, Note_on_c, 0, 79, 85
2, 73767, Note_on_c, 0, 79, 0
2, 73824, Note_on_c, 0, 79, 85
2, 73863, Note_on_c, 0, 79, 0
2, 73920, Note_on_c, 0, 79, 85
2, 73959, Note_on_c, 0, 79, 0
2, 74016, Note_on_c, 0, 73, 85
2, 74039, Note_on_c, 0, 73, 0
2, 74040, Note_on_c, 0, 74, 85
2, 74063, Note_on_c, 0, 74, 0
2, 74064, Note_on_c, 0, 76, 85
2, 74087, Note_on_c, 0, 76, 0
2, 74088, Note_on_c, 0, 77, 85
2, 74111, Note_on_c, 0, 77, 0
2, 74112, Note_on_c, 0, 79, 85
2, 74151, Note_on_c, 0, 79, 0
2, 74208, Note_on_c, 0, 79, 85
2, 74247, Note_on_c, 0, 79, 0
2, 74304, Note_on_c, 0, 79, 85
2, 74343, Note_on_c, 0, 79, 0
2, 74400, Note_on_c, 0, 79, 85
2, 74430, Note_on_c, 0, 79, 0
2, 74432, Note_on_c, 0, 85, 85
2, 74462, Note_on_c, 0, 85, 0
2, 74464, Note_on_c, 0, 88, 85
2, 74494, Note_on_c, 0, 88, 0
2, 74496, Note_on_c, 0, 77, 85
2, 74535, Note_on_c, 0, 77, 0
2, 74592, Note_on_c, 0, 77, 85
2, 74631, Note_on_c, 0, 77, 0
2, 74688, Note_on_c, 0, 77, 85
2, 74727, Note_on_c, 0, 77, 0
2, 74784, Note_on_c, 0, 77, 85
2, 74814, Note_on_c, 0, 77, 0
2, 74816, Note_on_c, 0, 81, 85
2, 74846, Note_on_c, 0, 81, 0
2, 74848, Note_on_c, 0, 86, 85
2, 74878, Note_on_c, 0, 86, 0
2, 74880, Note_on_c, 0, 77, 85
2, 74919, Note_on_c, 0, 77, 0
2, 74976, Note_on_c, 0, 77, 85
2, 75043, Note_on_c, 0, 77, 0
2, 75048, Note_on_c, 0, 79, 85
2, 75071, Note_on_c, 0, 79, 0
2, 75072, Note_on_c, 0, 76, 85
2, 75111, Note_on_c, 0, 76, 0
2, 75168, Note_on_c, 0, 76, 85
2, 75235, Note_on_c, 0, 76, 0
2, 75240, Note_on_c, 0, 77, 85
2, 75263, Note_on_c, 0, 77, 0
2, 75264, Note_on_c, 0, 74, 85
2, 75303, Note_on_c, 0, 74, 0
2, 75360, Note_on_c, 0, 74, 85
2, 75427, Note_on_c, 0, 74, 0
2, 75432, Note_on_c, 0, 76, 85
2, 75455, Note_on_c, 0, 76, 0
2, 75456, Note_on_c, 0, 72, 85
2, 75495, Note_on_c, 0, 72, 0
2, 75552, Note_on_c, 0, 72, 85
2, 75582, Note_on_c, 0, 72, 0
2, 75584, Note_on_c, 0, 76, 85
2, 75614, Note_on_c, 0, 76, 0
2, 75616, Note_on_c, 0, 79, 85
2, 75646, Note_on_c, 0, 79, 0
2, 75648, Note_on_c, 0, 77, 85
2, 75668, Note_on_c, 0, 77, 0
2, 75696, Note_on_c, 0, 79, 85
2, 75711, Note_on_c, 0, 79, 0
2, 75712, Note_on_c, 0, 77, 85
2, 75727, Note_on_c, 0, 77, 0
2, 75728, Note_on_c, 0, 76, 85
2, 75743, Note_on_c, 0, 76, 0
2, 75744, Note_on_c, 0, 77, 85
2, 75811, Note_on_c, 0, 77, 0
2, 75816, Note_on_c, 0, 79, 86
2, 75839, Note_on_c, 0, 79, 0
2, 75840, Note_on_c, 0, 76, 86
2, 75860, Note_on_c, 0, 76, 0
2, 75888, Note_on_c, 0, 77, 86
2, 75903, Note_on_c, 0, 77, 0
2, 75904, Note_on_c, 0, 76, 86
2, 75919, Note_on_c, 0, 76, 0
2, 75920, Note_on_c, 0, 74, 86
2, 75935, Note_on_c, 0, 74, 0
2, 75936, Note_on_c, 0, 76, 87
2, 76003, Note_on_c, 0, 76, 0
2, 76008, Note_on_c, 0, 77, 87
2, 76031, Note_on_c, 0, 77, 0
2, 76032, Note_on_c, 0, 74, 88
2, 76052, Note_on_c, 0, 74, 0
2, 76080, Note_on_c, 0, 76, 88
2, 76095, Note_on_c, 0, 76, 0
2, 76096, Note_on_c, 0, 74, 88
2, 76111, Note_on_c, 0, 74, 0
2, 76112, Note_on_c, 0, 72, 88
2, 76127, Note_on_c, 0, 72, 0
2, 76128, Note_on_c, 0, 74, 88
2, 76195, Note_on_c, 0, 74, 0
2, 76200, Note_on_c, 0, 76, 89
2, 76223, Note_on_c, 0, 76, 0
2, 76224, Note_on_c, 0, 72, 89
2, 76244, Note_on_c, 0, 72, 0
2, 76272, Note_on_c, 0, 74, 90
2, 76287, Note_on_c, 0, 74, 0
2, 76288, Note_on_c, 0, 72, 90
2, 76303, Note_on_c, 0, 72, 0
2, 76304, Note_on_c, 0, 71, 90
2, 76319, Note_on_c, 0, 71, 0
2, 76320, Note_on_c, 0, 72, 90
2, 76387, Note_on_c, 0, 72, 0
2, 76392, Note_on_c, 0, 74, 91
2, 76415, Note_on_c, 0, 74, 0
2, 76416, Note_on_c, 0, 71, 92
2, 76505, Note_on_c, 0, 71, 0
2, 76584, Note_on_c, 0, 67, 92
2, 76607, Note_on_c, 0, 67, 0
2, 76608, Note_on_c, 0, 71, 92
2, 76675, Note_on_c, 0, 71, 0
2, 76680, Note_on_c, 0, 67, 92
2, 76703, Note_on_c, 0, 67, 0
2, 76704, Note_on_c, 0, 74, 92
2, 76771, Note_on_c, 0, 74, 0
2, 76776, Note_on_c, 0, 71, 92
2, 76799, Note_on_c, 0, 71, 0
2, 76800, Note_on_c, 0, 79, 92
2, 76889, Note_on_c, 0, 79, 0
2, 76968, Note_on_c, 0, 55, 92
2, 76991, Note_on_c, 0, 55, 0
2, 76992, Note_on_c, 0, 59, 92
2, 77022, Note_on_c, 0, 59, 0
2, 77024, Note_on_c, 0, 55, 92
2, 77054, Note_on_c, 0, 55, 0
2, 77056, Note_on_c, 0, 59, 92
2, 77086, Note_on_c, 0, 59, 0
2, 77088, Note_on_c, 0, 62, 92
2, 77118, Note_on_c, 0, 62, 0
2, 77120, Note_on_c, 0, 59, 92
2, 77150, Note_on_c, 0, 59, 0
2, 77152, Note_on_c, 0, 62, 92
2, 77182, Note_on_c, 0, 62, 0
2, 77184, Note_on_c, 0, 67, 92
2, 77273, Note_on_c, 0, 67, 0
2, 77376, Note_on_c, 0, 43, 92
2, 77434, Note_on_c, 0, 43, 0
2, 77520, Note_on_c, 0, 43, 92
2, 77540, Note_on_c, 0, 43, 0
2, 77568, Note_on_c, 0, 43, 92
2, 77657, Note_on_c, 0, 43, 0
2, 78240, Note_on_c, 0, 69, 79
2, 78263, Note_on_c, 0, 69, 0
2, 78264, Note_on_c, 0, 67, 79
2, 78287, Note_on_c, 0, 67, 0
2, 78288, Note_on_c, 0, 66, 79
2, 78311, Note_on_c, 0, 66, 0
2, 78312, Note_on_c, 0, 67, 79
2, 78336, Note_on_c, 0, 67, 0
2, 78336, Note_on_c, 0, 72, 79
2, 78375, Note_on_c, 0, 72, 0
2, 78432, Note_on_c, 0, 72, 79
2, 78471, Note_on_c, 0, 72, 0
2, 78624, Note_on_c, 0, 69, 79
2, 78647, Note_on_c, 0, 69, 0
2, 78648, Note_on_c, 0, 67, 79
2, 78671, Note_on_c, 0, 67, 0
2, 78672, Note_on_c, 0, 66, 79
2, 78695, Note_on_c, 0, 66, 0
2, 78696, Note_on_c, 0, 67, 79
2, 78720, Note_on_c, 0, 67, 0
2, 78720, Note_on_c, 0, 72, 79
2, 78759, Note_on_c, 0, 72, 0
2, 78816, Note_on_c, 0, 72, 79
2, 78855, Note_on_c, 0, 72, 0
2, 79008, Note_on_c, 0, 69, 79
2, 79031, Note_on_c, 0, 69, 0
2, 79032, Note_on_c, 0, 67, 79
2, 79055, Note_on_c, 0, 67, 0
2, 79056, Note_on_c, 0, 66, 79
2, 79079, Note_on_c, 0, 66, 0
2, 79080, Note_on_c, 0, 67, 79
2, 79104, Note_on_c, 0, 67, 0
2, 79104, Note_on_c, 0, 72, 79
2, 79143, Note_on_c, 0, 72, 0
2, 79200, Note_on_c, 0, 74, 79
2, 79224, Note_on_c, 0, 74, 0
2, 79224, Note_on_c, 0, 72, 79
2, 79248, Note_on_c, 0, 72, 0
2, 79248, Note_on_c, 0, 71, 79
2, 79272, Note_on_c, 0, 71, 0
2, 79272, Note_on_c, 0, 72, 79
2, 79296, Note_on_c, 0, 72, 0
2, 79296, Note_on_c, 0, 74, 79
2, 79335, Note_on_c, 0, 74, 0
2, 79392, Note_on_c, 0, 76, 80
2, 79416, Note_on_c, 0, 76, 0
2, 79416, Note_on_c, 0, 74, 80
2, 79440, Note_on_c, 0, 74, 0
2, 79440, Note_on_c, 0, 72, 80
2, 79464, Note_on_c, 0, 72, 0
2, 79464, Note_on_c, 0, 74, 80
2, 79488, Note_on_c, 0, 74, 0
2, 79488, Note_on_c, 0, 76, 80
2, 79527, Note_on_c, 0, 76, 0
2, 79584, Note_on_c, 0, 77, 81
2, 79608, Note_on_c, 0, 77, 0
2, 79608, Note_on_c, 0, 76, 81
2, 79632, Note_on_c, 0, 76, 0
2, 79632, Note_on_c, 0, 74, 81
2, 79656, Note_on_c, 0, 74, 0
2, 79656, Note_on_c, 0, 76, 81
2, 79680, Note_on_c, 0, 76, 0
2, 79680, Note_on_c, 0, 77, 82
2, 79719, Note_on_c, 0, 77, 0
2, 79776, Note_on_c, 0, 79, 82
2, 79800, Note_on_c, 0, 79, 0
2, 79800, Note_on_c, 0, 77, 82
2, 79824, Note_on_c, 0, 77, 0
2, 79824, Note_on_c, 0, 76, 82
2, 79848, Note_on_c, 0, 76, 0
2, 79848, Note_on_c, 0, 77, 82
2, 79872, Note_on_c, 0, 77, 0
2, 79872, Note_on_c, 0, 79, 83
2, 80137, Note_on_c, 0, 79, 0
2, 80160, Note_on_c, 0, 80, 101
2, 80160, Note_on_c, 0, 68, 101
2, 80256, Note_on_c, 0, 80, 0
2, 80256, Note_on_c, 0, 68, 0
2, 80256, Note_on_c, 0, 81, 85
2, 80256, Note_on_c, 0, 69, 85
2, 80345, Note_on_c, 0, 81, 0
2, 80345, Note_on_c, 0, 69, 0
2, 80352, Note_on_c, 0, 83, 86
2, 80352, Note_on_c, 0, 71, 86
2, 80441, Note_on_c, 0, 83, 0
2, 80441, Note_on_c, 0, 71, 0
2, 80448, Note_on_c, 0, 84, 87
2, 80448, Note_on_c, 0, 72, 87
2, 80537, Note_on_c, 0, 84, 0
2, 80537, Note_on_c, 0, 72, 0
2, 80544, Note_on_c, 0, 85, 89
2, 80544, Note_on_c, 0, 73, 89
2, 80633, Note_on_c, 0, 85, 0
2, 80633, Note_on_c, 0, 73, 0
2, 80640, Note_on_c, 0, 86, 90
2, 80640, Note_on_c, 0, 74, 90
2, 80729, Note_on_c, 0, 86, 0
2, 80729, Note_on_c, 0, 74, 0
2, 80736, Note_on_c, 0, 88, 92
2, 80736, Note_on_c, 0, 76, 92
2, 80825, Note_on_c, 0, 88, 0
2, 80825, Note_on_c, 0, 76, 0
2, 80832, Note_on_c, 0, 89, 92
2, 80921, Note_on_c, 0, 89, 0
2, 80928, Note_on_c, 0, 86, 92
2, 81017, Note_on_c, 0, 86, 0
2, 81024, Note_on_c, 0, 84, 69
2, 81201, Note_on_c, 0, 84, 0
2, 81216, Note_on_c, 0, 88, 69
2, 81261, Note_on_c, 0, 88, 0
2, 81264, Note_on_c, 0, 86, 69
2, 81353, Note_on_c, 0, 86, 0
2, 81360, Note_on_c, 0, 84, 69
2, 81405, Note_on_c, 0, 84, 0
2, 81408, Note_on_c, 0, 84, 69
2, 81497, Note_on_c, 0, 84, 0
2, 81696, Note_on_c, 0, 76, 64
2, 81726, Note_on_c, 0, 76, 0
2, 81728, Note_on_c, 0, 80, 64
2, 81758, Note_on_c, 0, 80, 0
2, 81760, Note_on_c, 0, 81, 64
2, 81792, Note_on_c, 0, 81, 0
2, 81792, Note_on_c, 0, 79, 64
2, 81831, Note_on_c, 0, 79, 0
2, 81888, Note_on_c, 0, 79, 64
2, 81927, Note_on_c, 0, 79, 0
2, 81984, Note_on_c, 0, 79, 64
2, 82023, Note_on_c, 0, 79, 0
2, 82080, Note_on_c, 0, 72, 64
2, 82110, Note_on_c, 0, 72, 0
2, 82112, Note_on_c, 0, 76, 64
2, 82142, Note_on_c, 0, 76, 0
2, 82144, Note_on_c, 0, 77, 64
2, 82176, Note_on_c, 0, 77, 0
2, 82176, Note_on_c, 0, 76, 64
2, 82215, Note_on_c, 0, 76, 0
2, 82272, Note_on_c, 0, 76, 64
2, 82311, Note_on_c, 0, 76, 0
2, 82368, Note_on_c, 0, 76, 64
2, 82407, Note_on_c, 0, 76, 0
2, 82464, Note_on_c, 0, 69, 64
2, 82496, Note_on_c, 0, 69, 0
2, 82496, Note_on_c, 0, 73, 64
2, 82526, Note_on_c, 0, 73, 0
2, 82528, Note_on_c, 0, 74, 64
2, 82560, Note_on_c, 0, 74, 0
2, 82560, Note_on_c, 0, 72, 64
2, 82599, Note_on_c, 0, 72, 0
2, 82656, Note_on_c, 0, 72, 67
2, 82695, Note_on_c, 0, 72, 0
2, 82752, Note_on_c, 0, 72, 71
2, 82791, Note_on_c, 0, 72, 0
2, 82848, Note_on_c, 0, 76, 75
2, 82920, Note_on_c, 0, 76, 0
2, 82920, Note_on_c, 0, 72, 78
2, 82943, Note_on_c, 0, 72, 0
2, 82944, Note_on_c, 0, 69, 79
2, 82983, Note_on_c, 0, 69, 0
2, 83040, Note_on_c, 0, 77, 75
2, 83112, Note_on_c, 0, 77, 0
2, 83112, Note_on_c, 0, 74, 72
2, 83135, Note_on_c, 0, 74, 0
2, 83136, Note_on_c, 0, 71, 71
2, 83175, Note_on_c, 0, 71, 0
2, 83232, Note_on_c, 0, 74, 67
2, 83304, Note_on_c, 0, 74, 0
2, 83304, Note_on_c, 0, 71, 64
2, 83327, Note_on_c, 0, 71, 0
2, 83328, Note_on_c, 0, 72, 64
2, 83417, Note_on_c, 0, 72, 0
2, 83616, Note_on_c, 0, 76, 85
2, 83646, Note_on_c, 0, 76, 0
2, 83648, Note_on_c, 0, 80, 85
2, 83678, Note_on_c, 0, 80, 0
2, 83680, Note_on_c, 0, 81, 85
2, 83710, Note_on_c, 0, 81, 0
2, 83712, Note_on_c, 0, 74, 69
2, 83742, Note_on_c, 0, 74, 0
2, 83744, Note_on_c, 0, 78, 69
2, 83774, Note_on_c, 0, 78, 0
2, 83776, Note_on_c, 0, 79, 69
2, 83806, Note_on_c, 0, 79, 0
2, 83808, Note_on_c, 0, 74, 69
2, 83838, Note_on_c, 0, 74, 0
2, 83840, Note_on_c, 0, 78, 69
2, 83870, Note_on_c, 0, 78, 0
2, 83872, Note_on_c, 0, 79, 69
2, 83902, Note_on_c, 0, 79, 0
2, 83904, Note_on_c, 0, 74, 69
2, 83934, Note_on_c, 0, 74, 0
2, 83936, Note_on_c, 0, 78, 69
2, 83966, Note_on_c, 0, 78, 0
2, 83968, Note_on_c, 0, 79, 69
2, 83998, Note_on_c, 0, 79, 0
2, 84000, Note_on_c, 0, 76, 85
2, 84023, Note_on_c, 0, 76, 0
2, 84024, Note_on_c, 0, 78, 85
2, 84047, Note_on_c, 0, 78, 0
2, 84048, Note_on_c, 0, 80, 85
2, 84071, Note_on_c, 0, 80, 0
2, 84072, Note_on_c, 0, 81, 85
2, 84095, Note_on_c, 0, 81, 0
2, 84096, Note_on_c, 0, 74, 69
2, 84126, Note_on_c, 0, 74, 0
2, 84128, Note_on_c, 0, 78, 69
2, 84158, Note_on_c, 0, 78, 0
2, 84160, Note_on_c, 0, 79, 69
2, 84190, Note_on_c, 0, 79, 0
2, 84192, Note_on_c, 0, 74, 69
2, 84222, Note_on_c, 0, 74, 0
2, 84224, Note_on_c, 0, 78, 69
2, 84254, Note_on_c, 0, 78, 0
2, 84256, Note_on_c, 0, 79, 69
2, 84286, Note_on_c, 0, 79, 0
2, 84288, Note_on_c, 0, 74, 69
2, 84318, Note_on_c, 0, 74, 0
2, 84320, Note_on_c, 0, 78, 69
2, 84350, Note_on_c, 0, 78, 0
2, 84352, Note_on_c, 0, 79, 69
2, 84382, Note_on_c, 0, 79, 0
2, 84384, Note_on_c, 0, 72, 85
2, 84407, Note_on_c, 0, 72, 0
2, 84408, Note_on_c, 0, 74, 85
2, 84431, Note_on_c, 0, 74, 0
2, 84432, Note_on_c, 0, 76, 85
2, 84455, Note_on_c, 0, 76, 0
2, 84456, Note_on_c, 0, 77, 85
2, 84479, Note_on_c, 0, 77, 0
2, 84480, Note_on_c, 0, 71, 69
2, 84510, Note_on_c, 0, 71, 0
2, 84512, Note_on_c, 0, 75, 69
2, 84542, Note_on_c, 0, 75, 0
2, 84544, Note_on_c, 0, 76, 69
2, 84574, Note_on_c, 0, 76, 0
2, 84576, Note_on_c, 0, 71, 69
2, 84606, Note_on_c, 0, 71, 0
2, 84608, Note_on_c, 0, 75, 69
2, 84638, Note_on_c, 0, 75, 0
2, 84640, Note_on_c, 0, 76, 69
2, 84670, Note_on_c, 0, 76, 0
2, 84672, Note_on_c, 0, 71, 69
2, 84702, Note_on_c, 0, 71, 0
2, 84704, Note_on_c, 0, 75, 69
2, 84734, Note_on_c, 0, 75, 0
2, 84736, Note_on_c, 0, 76, 69
2, 84766, Note_on_c, 0, 76, 0
2, 84768, Note_on_c, 0, 72, 85
2, 84791, Note_on_c, 0, 72, 0
2, 84792, Note_on_c, 0, 74, 85
2, 84815, Note_on_c, 0, 74, 0
2, 84816, Note_on_c, 0, 76, 85
2, 84839, Note_on_c, 0, 76, 0
2, 84840, Note_on_c, 0, 77, 85
2, 84863, Note_on_c, 0, 77, 0
2, 84864, Note_on_c, 0, 71, 69
2, 84894, Note_on_c, 0, 71, 0
2, 84896, Note_on_c, 0, 75, 69
2, 84926, Note_on_c, 0, 75, 0
2, 84928, Note_on_c, 0, 76, 69
2, 84958, Note_on_c, 0, 76, 0
2, 84960, Note_on_c, 0, 71, 69
2, 84990, Note_on_c, 0, 71, 0
2, 84992, Note_on_c, 0, 75, 69
2, 85022, Note_on_c, 0, 75, 0
2, 85024, Note_on_c, 0, 76, 69
2, 85054, Note_on_c, 0, 76, 0
2, 85056, Note_on_c, 0, 71, 69
2, 85086, Note_on_c, 0, 71, 0
2, 85088, Note_on_c, 0, 75, 69
2, 85118, Note_on_c, 0, 75, 0
2, 85120, Note_on_c, 0, 76, 69
2, 85150, Note_on_c, 0, 76, 0
2, 85152, Note_on_c, 0, 69, 85
2, 85175, Note_on_c, 0, 69, 0
2, 85176, Note_on_c, 0, 71, 85
2, 85199, Note_on_c, 0, 71, 0
2, 85200, Note_on_c, 0, 73, 85
2, 85223, Note_on_c, 0, 73, 0
2, 85224, Note_on_c, 0, 74, 85
2, 85247, Note_on_c, 0, 74, 0
2, 85248, Note_on_c, 0, 67, 69
2, 85278, Note_on_c, 0, 67, 0
2, 85280, Note_on_c, 0, 71, 69
2, 85310, Note_on_c, 0, 71, 0
2, 85312, Note_on_c, 0, 72, 69
2, 85342, Note_on_c, 0, 72, 0
2, 85344, Note_on_c, 0, 67, 69
2, 85374, Note_on_c, 0, 67, 0
2, 85376, Note_on_c, 0, 71, 69
2, 85406, Note_on_c, 0, 71, 0
2, 85408, Note_on_c, 0, 72, 69
2, 85438, Note_on_c, 0, 72, 0
2, 85440, Note_on_c, 0, 67, 69
2, 85470, Note_on_c, 0, 67, 0
2, 85472, Note_on_c, 0, 71, 69
2, 85502, Note_on_c, 0, 71, 0
2, 85504, Note_on_c, 0, 72, 69
2, 85534, Note_on_c, 0, 72, 0
2, 85536, Note_on_c, 0, 69, 85
2, 85559, Note_on_c, 0, 69, 0
2, 85560, Note_on_c, 0, 71, 85
2, 85583, Note_on_c, 0, 71, 0
2, 85584, Note_on_c, 0, 73, 85
2, 85607, Note_on_c, 0, 73, 0
2, 85608, Note_on_c, 0, 74, 85
2, 85631, Note_on_c, 0, 74, 0
2, 85632, Note_on_c, 0, 67, 69
2, 85662, Note_on_c, 0, 67, 0
2, 85664, Note_on_c, 0, 71, 69
2, 85694, Note_on_c, 0, 71, 0
2, 85696, Note_on_c, 0, 72, 69
2, 85726, Note_on_c, 0, 72, 0
2, 85728, Note_on_c, 0, 67, 69
2, 85758, Note_on_c, 0, 67, 0
2, 85760, Note_on_c, 0, 71, 69
2, 85790, Note_on_c, 0, 71, 0
2, 85792, Note_on_c, 0, 72, 69
2, 85822, Note_on_c, 0, 72, 0
2, 85824, Note_on_c, 0, 67, 69
2, 85854, Note_on_c, 0, 67, 0
2, 85856, Note_on_c, 0, 71, 69
2, 85886, Note_on_c, 0, 71, 0
2, 85888, Note_on_c, 0, 72, 69
2, 85918, Note_on_c, 0, 72, 0
2, 85920, Note_on_c, 0, 69, 85
2, 85943, Note_on_c, 0, 69, 0
2, 85944, Note_on_c, 0, 71, 85
2, 85967, Note_on_c, 0, 71, 0
2, 85968, Note_on_c, 0, 73, 85
2, 85991, Note_on_c, 0, 73, 0
2, 85992, Note_on_c, 0, 74, 85
2, 86015, Note_on_c, 0, 74, 0
2, 86016, Note_on_c, 0, 67, 69
2, 86046, Note_on_c, 0, 67, 0
2, 86048, Note_on_c, 0, 71, 69
2, 86078, Note_on_c, 0, 71, 0
2, 86080, Note_on_c, 0, 72, 69
2, 86110, Note_on_c, 0, 72, 0
2, 86112, Note_on_c, 0, 67, 69
2, 86142, Note_on_c, 0, 67, 0
2, 86144, Note_on_c, 0, 73, 70
2, 86174, Note_on_c, 0, 73, 0
2, 86176, Note_on_c, 0, 74, 72
2, 86206, Note_on_c, 0, 74, 0
2, 86208, Note_on_c, 0, 67, 73
2, 86238, Note_on_c, 0, 67, 0
2, 86240, Note_on_c, 0, 75, 75
2, 86270, Note_on_c, 0, 75, 0
2, 86272, Note_on_c, 0, 76, 76
2, 86302, Note_on_c, 0, 76, 0
2, 86304, Note_on_c, 0, 67, 78
2, 86334, Note_on_c, 0, 67, 0
2, 86336, Note_on_c, 0, 76, 79
2, 86366, Note_on_c, 0, 76, 0
2, 86368, Note_on_c, 0, 77, 81
2, 86398, Note_on_c, 0, 77, 0
2, 86400, Note_on_c, 0, 67, 82
2, 86430, Note_on_c, 0, 67, 0
2, 86432, Note_on_c, 0, 78, 85
2, 86462, Note_on_c, 0, 78, 0
2, 86464, Note_on_c, 0, 79, 85
2, 86494, Note_on_c, 0, 79, 0
2, 86496, Note_on_c, 0, 77, 85
2, 86526, Note_on_c, 0, 77, 0
2, 86528, Note_on_c, 0, 76, 85
2, 86558, Note_on_c, 0, 76, 0
2, 86560, Note_on_c, 0, 74, 85
2, 86590, Note_on_c, 0, 74, 0
2, 86592, Note_on_c, 0, 72, 85
2, 86622, Note_on_c, 0, 72, 0
2, 86624, Note_on_c, 0, 71, 85
2, 86654, Note_on_c, 0, 71, 0
2, 86656, Note_on_c, 0, 69, 85
2, 86686, Note_on_c, 0, 69, 0
2, 86688, Note_on_c, 0, 67, 85
2, 86718, Note_on_c, 0, 67, 0
2, 86720, Note_on_c, 0, 65, 85
2, 86750, Note_on_c, 0, 65, 0
2, 86752, Note_on_c, 0, 64, 85
2, 86782, Note_on_c, 0, 64, 0
2, 86784, Note_on_c, 0, 62, 85
2, 86814, Note_on_c, 0, 62, 0
2, 86816, Note_on_c, 0, 69, 83
2, 86846, Note_on_c, 0, 69, 0
2, 86848, Note_on_c, 0, 67, 82
2, 86878, Note_on_c, 0, 67, 0
2, 86880, Note_on_c, 0, 65, 81
2, 86910, Note_on_c, 0, 65, 0
2, 86912, Note_on_c, 0, 64, 80
2, 86942, Note_on_c, 0, 64, 0
2, 86944, Note_on_c, 0, 62, 78
2, 86974, Note_on_c, 0, 62, 0
2, 86976, Note_on_c, 0, 60, 77
2, 87065, Note_on_c, 0, 60, 0
2, 87072, Note_on_c, 0, 59, 73
2, 87084, Note_on_c, 0, 59, 0
2, 87084, Note_on_c, 0, 60, 73
2, 87096, Note_on_c, 0, 60, 0
2, 87096, Note_on_c, 0, 59, 73
2, 87161, Note_on_c, 0, 59, 0
2, 87200, Note_on_c, 0, 78, 85
2, 87230, Note_on_c, 0, 78, 0
2, 87232, Note_on_c, 0, 79, 85
2, 87262, Note_on_c, 0, 79, 0
2, 87264, Note_on_c, 0, 77, 85
2, 87294, Note_on_c, 0, 77, 0
2, 87296, Note_on_c, 0, 76, 85
2, 87326, Note_on_c, 0, 76, 0
2, 87328, Note_on_c, 0, 74, 85
2, 87358, Note_on_c, 0, 74, 0
2, 87360, Note_on_c, 0, 72, 85
2, 87390, Note_on_c, 0, 72, 0
2, 87392, Note_on_c, 0, 71, 85
2, 87422, Note_on_c, 0, 71, 0
2, 87424, Note_on_c, 0, 69, 85
2, 87454, Note_on_c, 0, 69, 0
2, 87456, Note_on_c, 0, 67, 85
2, 87486, Note_on_c, 0, 67, 0
2, 87488, Note_on_c, 0, 65, 85
2, 87518, Note_on_c, 0, 65, 0
2, 87520, Note_on_c, 0, 64, 85
2, 87550, Note_on_c, 0, 64, 0
2, 87552, Note_on_c, 0, 62, 85
2, 87729, Note_on_c, 0, 62, 0
2, 87744, Note_on_c, 0, 72, 92
2, 87750, Note_on_c, 0, 75, 92
2, 87756, Note_on_c, 0, 78, 92
2, 87762, Note_on_c, 0, 81, 92
2, 87923, Note_on_c, 0, 81, 0
2, 87923, Note_on_c, 0, 78, 0
2, 87923, Note_on_c, 0, 75, 0
2, 87923, Note_on_c, 0, 72, 0
2, 87968, Note_on_c, 0, 69, 69
2, 87998, Note_on_c, 0, 69, 0
2, 88000, Note_on_c, 0, 81, 69
2, 88030, Note_on_c, 0, 81, 0
2, 88064, Note_on_c, 0, 66, 69
2, 88094, Note_on_c, 0, 66, 0
2, 88096, Note_on_c, 0, 78, 69
2, 88126, Note_on_c, 0, 78, 0
2, 88160, Note_on_c, 0, 63, 69
2, 88190, Note_on_c, 0, 63, 0
2, 88192, Note_on_c, 0, 75, 69
2, 88222, Note_on_c, 0, 75, 0
2, 88256, Note_on_c, 0, 60, 69
2, 88286, Note_on_c, 0, 60, 0
2, 88288, Note_on_c, 0, 72, 69
2, 88318, Note_on_c, 0, 72, 0
2, 88352, Note_on_c, 0, 57, 69
2, 88382, Note_on_c, 0, 57, 0
2, 88384, Note_on_c, 0, 69, 69
2, 88414, Note_on_c, 0, 69, 0
2, 88448, Note_on_c, 0, 54, 69
2, 88478, Note_on_c, 0, 54, 0
2, 88480, Note_on_c, 0, 66, 69
2, 88510, Note_on_c, 0, 66, 0
2, 88992, Note_on_c, 0, 72, 69
2, 89015, Note_on_c, 0, 72, 0
2, 89016, Note_on_c, 0, 74, 69
2, 89039, Note_on_c, 0, 74, 0
2, 89040, Note_on_c, 0, 76, 69
2, 89063, Note_on_c, 0, 76, 0
2, 89064, Note_on_c, 0, 77, 69
2, 89087, Note_on_c, 0, 77, 0
2, 89088, Note_on_c, 0, 79, 69
2, 89127, Note_on_c, 0, 79, 0
2, 89184, Note_on_c, 0, 79, 69
2, 89223, Note_on_c, 0, 79, 0
2, 89280, Note_on_c, 0, 79, 69
2, 89319, Note_on_c, 0, 79, 0
2, 89376, Note_on_c, 0, 83, 85
2, 89388, Note_on_c, 0, 83, 0
2, 89388, Note_on_c, 0, 84, 85
2, 89415, Note_on_c, 0, 84, 0
2, 89472, Note_on_c, 0, 79, 79
2, 89511, Note_on_c, 0, 79, 0
2, 89568, Note_on_c, 0, 79, 79
2, 89607, Note_on_c, 0, 79, 0
2, 89664, Note_on_c, 0, 79, 79
2, 89684, Note_on_c, 0, 79, 0
2, 89712, Note_on_c, 0, 81, 79
2, 89735, Note_on_c, 0, 81, 0
2, 89736, Note_on_c, 0, 79, 79
2, 89759, Note_on_c, 0, 79, 0
2, 89760, Note_on_c, 0, 77, 79
2, 89783, Note_on_c, 0, 77, 0
2, 89784, Note_on_c, 0, 76, 79
2, 89807, Note_on_c, 0, 76, 0
2, 89808, Note_on_c, 0, 74, 79
2, 89831, Note_on_c, 0, 74, 0
2, 89832, Note_on_c, 0, 72, 79
2, 89855, Note_on_c, 0, 72, 0
2, 89856, Note_on_c, 0, 71, 79
2, 89923, Note_on_c, 0, 71, 0
2, 89928, Note_on_c, 0, 79, 80
2, 89951, Note_on_c, 0, 79, 0
2, 89952, Note_on_c, 0, 81, 80
2, 89975, Note_on_c, 0, 81, 0
2, 89976, Note_on_c, 0, 79, 80
2, 89999, Note_on_c, 0, 79, 0
2, 90000, Note_on_c, 0, 78, 81
2, 90023, Note_on_c, 0, 78, 0
2, 90024, Note_on_c, 0, 79, 81
2, 90047, Note_on_c, 0, 79, 0
2, 90048, Note_on_c, 0, 72, 82
2, 90115, Note_on_c, 0, 72, 0
2, 90120, Note_on_c, 0, 79, 83
2, 90143, Note_on_c, 0, 79, 0
2, 90144, Note_on_c, 0, 81, 83
2, 90167, Note_on_c, 0, 81, 0
2, 90168, Note_on_c, 0, 79, 83
2, 90191, Note_on_c, 0, 79, 0
2, 90192, Note_on_c, 0, 78, 84
2, 90215, Note_on_c, 0, 78, 0
2, 90216, Note_on_c, 0, 79, 84
2, 90239, Note_on_c, 0, 79, 0
2, 90240, Note_on_c, 0, 74, 85
2, 90329, Note_on_c, 0, 74, 0
2, 90528, Note_on_c, 0, 67, 79
2, 90595, Note_on_c, 0, 67, 0
2, 90600, Note_on_c, 0, 74, 79
2, 90623, Note_on_c, 0, 74, 0
2, 90624, Note_on_c, 0, 77, 79
2, 90663, Note_on_c, 0, 77, 0
2, 90720, Note_on_c, 0, 77, 79
2, 90792, Note_on_c, 0, 77, 0
2, 90792, Note_on_c, 0, 79, 79
2, 90815, Note_on_c, 0, 79, 0
2, 90816, Note_on_c, 0, 76, 79
2, 90855, Note_on_c, 0, 76, 0
2, 90912, Note_on_c, 0, 76, 79
2, 90984, Note_on_c, 0, 76, 0
2, 90984, Note_on_c, 0, 77, 79
2, 91007, Note_on_c, 0, 77, 0
2, 91008, Note_on_c, 0, 74, 79
2, 91028, Note_on_c, 0, 74, 0
2, 91056, Note_on_c, 0, 76, 79
2, 91071, Note_on_c, 0, 76, 0
2, 91072, Note_on_c, 0, 74, 79
2, 91087, Note_on_c, 0, 74, 0
2, 91088, Note_on_c, 0, 72, 79
2, 91103, Note_on_c, 0, 72, 0
2, 91104, Note_on_c, 0, 74, 79
2, 91176, Note_on_c, 0, 74, 0
2, 91176, Note_on_c, 0, 76, 80
2, 91199, Note_on_c, 0, 76, 0
2, 91200, Note_on_c, 0, 72, 80
2, 91267, Note_on_c, 0, 72, 0
2, 91272, Note_on_c, 0, 74, 80
2, 91295, Note_on_c, 0, 74, 0
2, 91296, Note_on_c, 0, 76, 81
2, 91363, Note_on_c, 0, 76, 0
2, 91368, Note_on_c, 0, 72, 81
2, 91391, Note_on_c, 0, 72, 0
2, 91392, Note_on_c, 0, 74, 81
2, 91431, Note_on_c, 0, 74, 0
2, 91488, Note_on_c, 0, 74, 82
2, 91527, Note_on_c, 0, 74, 0
2, 91584, Note_on_c, 0, 79, 99
2, 91703, Note_on_c, 0, 79, 0
2, 91704, Note_on_c, 0, 77, 84
2, 91727, Note_on_c, 0, 77, 0
2, 91728, Note_on_c, 0, 76, 84
2, 91751, Note_on_c, 0, 76, 0
2, 91752, Note_on_c, 0, 74, 84
2, 91775, Note_on_c, 0, 74, 0
2, 91776, Note_on_c, 0, 72, 85
2, 91865, Note_on_c, 0, 72, 0
2, 92064, Note_on_c, 0, 79, 92
2, 92136, Note_on_c, 0, 79, 0
2, 92136, Note_on_c, 0, 83, 92
2, 92159, Note_on_c, 0, 83, 0
2, 92160, Note_on_c, 0, 84, 92
2, 92199, Note_on_c, 0, 84, 0
2, 92256, Note_on_c, 0, 84, 92
2, 92295, Note_on_c, 0, 84, 0
2, 92352, Note_on_c, 0, 84, 92
2, 92391, Note_on_c, 0, 84, 0
2, 92448, Note_on_c, 0, 88, 92
2, 92472, Note_on_c, 0, 88, 0
2, 92472, Note_on_c, 0, 86, 92
2, 92496, Note_on_c, 0, 86, 0
2, 92496, Note_on_c, 0, 84, 92
2, 92520, Note_on_c, 0, 84, 0
2, 92520, Note_on_c, 0, 86, 92
2, 92544, Note_on_c, 0, 86, 0
2, 92544, Note_on_c, 0, 88, 92
2, 92583, Note_on_c, 0, 88, 0
2, 92640, Note_on_c, 0, 84, 92
2, 92679, Note_on_c, 0, 84, 0
2, 92736, Note_on_c, 0, 84, 92
2, 92775, Note_on_c, 0, 84, 0
2, 92832, Note_on_c, 0, 79, 92
2, 92904, Note_on_c, 0, 79, 0
2, 92904, Note_on_c, 0, 83, 92
2, 92927, Note_on_c, 0, 83, 0
2, 92928, Note_on_c, 0, 84, 92
2, 92967, Note_on_c, 0, 84, 0
2, 93024, Note_on_c, 0, 84, 92
2, 93063, Note_on_c, 0, 84, 0
2, 93120, Note_on_c, 0, 84, 92
2, 93159, Note_on_c, 0, 84, 0
2, 93216, Note_on_c, 0, 88, 92
2, 93228, Note_on_c, 0, 88, 0
2, 93228, Note_on_c, 0, 86, 92
2, 93240, Note_on_c, 0, 86, 0
2, 93240, Note_on_c, 0, 84, 92
2, 93252, Note_on_c, 0, 84, 0
2, 93252, Note_on_c, 0, 86, 92
2, 93283, Note_on_c, 0, 86, 0
2, 93288, Note_on_c, 0, 88, 92
2, 93311, Note_on_c, 0, 88, 0
2, 93312, Note_on_c, 0, 84, 92
2, 93401, Note_on_c, 0, 84, 0
2, 93600, Note_on_c, 0, 79, 92
2, 93672, Note_on_c, 0, 79, 0
2, 93672, Note_on_c, 0, 83, 92
2, 93695, Note_on_c, 0, 83, 0
2, 93696, Note_on_c, 0, 84, 92
2, 93735, Note_on_c, 0, 84, 0
2, 93792, Note_on_c, 0, 84, 92
2, 93831, Note_on_c, 0, 84, 0
2, 93888, Note_on_c, 0, 84, 92
2, 93927, Note_on_c, 0, 84, 0
2, 93984, Note_on_c, 0, 88, 92
2, 94008, Note_on_c, 0, 88, 0
2, 94008, Note_on_c, 0, 86, 92
2, 94032, Note_on_c, 0, 86, 0
2, 94032, Note_on_c, 0, 84, 92
2, 94056, Note_on_c, 0, 84, 0
2, 94056, Note_on_c, 0, 86, 92
2, 94080, Note_on_c, 0, 86, 0
2, 94080, Note_on_c, 0, 88, 92
2, 94119, Note_on_c, 0, 88, 0
2, 94176, Note_on_c, 0, 84, 92
2, 94215, Note_on_c, 0, 84, 0
2, 94272, Note_on_c, 0, 84, 92
2, 94311, Note_on_c, 0, 84, 0
2, 94368, Note_on_c, 0, 79, 92
2, 94440, Note_on_c, 0, 79, 0
2, 94440, Note_on_c, 0, 83, 92
2, 94463, Note_on_c, 0, 83, 0
2, 94464, Note_on_c, 0, 84, 92
2, 94503, Note_on_c, 0, 84, 0
2, 94560, Note_on_c, 0, 84, 92
2, 94599, Note_on_c, 0, 84, 0
2, 94656, Note_on_c, 0, 84, 92
2, 94695, Note_on_c, 0, 84, 0
2, 94752, Note_on_c, 0, 88, 92
2, 94764, Note_on_c, 0, 88, 0
2, 94764, Note_on_c, 0, 86, 92
2, 94776, Note_on_c, 0, 86, 0
2, 94776, Note_on_c, 0, 84, 92
2, 94788, Note_on_c, 0, 84, 0
2, 94788, Note_on_c, 0, 86, 92
2, 94819, Note_on_c, 0, 86, 0
2, 94824, Note_on_c, 0, 88, 92
2, 94847, Note_on_c, 0, 88, 0
2, 94848, Note_on_c, 0, 84, 92
2, 94937, Note_on_c, 0, 84, 0
2, 95040, Note_on_c, 0, 79, 92
2, 95040, Note_on_c, 0, 76, 92
2, 95129, Note_on_c, 0, 79, 0
2, 95129, Note_on_c, 0, 76, 0
2, 95232, Note_on_c, 0, 76, 92
2, 95232, Note_on_c, 0, 72, 92
2, 95321, Note_on_c, 0, 76, 0
2, 95321, Note_on_c, 0, 72, 0
2, 95424, Note_on_c, 0, 55, 92
2, 95424, Note_on_c, 0, 52, 92
2, 95513, Note_on_c, 0, 55, 0
2, 95513, Note_on_c, 0, 52, 0
2, 95616, Note_on_c, 0, 52, 92
2, 95616, Note_on_c, 0, 48, 92
2, 95749, Note_on_c, 0, 52, 0
2, 95749, Note_on_c, 0, 48, 0
2, 95904, Note_on_c, 0, 79, 79
2, 95976, Note_on_c, 0, 79, 0
2, 95976, Note_on_c, 0, 81, 79
2, 95999, Note_on_c, 0, 81, 0
2, 96000, Note_on_c, 0, 77, 79
2, 96039, Note_on_c, 0, 77, 0
2, 96096, Note_on_c, 0, 77, 79
2, 96168, Note_on_c, 0, 77, 0
2, 96168, Note_on_c, 0, 79, 79
2, 96191, Note_on_c, 0, 79, 0
2, 96192, Note_on_c, 0, 76, 79
2, 96231, Note_on_c, 0, 76, 0
2, 96288, Note_on_c, 0, 76, 79
2, 96360, Note_on_c, 0, 76, 0
2, 96360, Note_on_c, 0, 77, 79
2, 96383, Note_on_c, 0, 77, 0
2, 96384, Note_on_c, 0, 74, 79
2, 96423, Note_on_c, 0, 74, 0
2, 96480, Note_on_c, 0, 74, 79
2, 96552, Note_on_c, 0, 74, 0
2, 96552, Note_on_c, 0, 76, 79
2, 96575, Note_on_c, 0, 76, 0
2, 96576, Note_on_c, 0, 72, 79
2, 96615, Note_on_c, 0, 72, 0
2, 96672, Note_on_c, 0, 76, 79
2, 96744, Note_on_c, 0, 76, 0
2, 96744, Note_on_c, 0, 77, 79
2, 96767, Note_on_c, 0, 77, 0
2, 96768, Note_on_c, 0, 74, 85
2, 96807, Note_on_c, 0, 74, 0
2, 96864, Note_on_c, 0, 74, 85
2, 96936, Note_on_c, 0, 74, 0
2, 96936, Note_on_c, 0, 76, 85
2, 96959, Note_on_c, 0, 76, 0
2, 96960, Note_on_c, 0, 72, 85
2, 97054, Note_on_c, 0, 72, 0
2, 97056, Note_on_c, 0, 72, 85
2, 97128, Note_on_c, 0, 72, 0
2, 97128, Note_on_c, 0, 74, 85
2, 97151, Note_on_c, 0, 74, 0
2, 97152, Note_on_c, 0, 71, 85
2, 97713, Note_on_c, 0, 71, 0
2, 97824, Note_on_c, 0, 77, 79
2, 97847, Note_on_c, 0, 77, 0
2, 97848, Note_on_c, 0, 79, 79
2, 97871, Note_on_c, 0, 79, 0
2, 97872, Note_on_c, 0, 81, 79
2, 97895, Note_on_c, 0, 81, 0
2, 97896, Note_on_c, 0, 82, 79
2, 97919, Note_on_c, 0, 82, 0
2, 97920, Note_on_c, 0, 84, 79
2, 97959, Note_on_c, 0, 84, 0
2, 98016, Note_on_c, 0, 84, 79
2, 98055, Note_on_c, 0, 84, 0
2, 98112, Note_on_c, 0, 84, 79
2, 98151, Note_on_c, 0, 84, 0
2, 98208, Note_on_c, 0, 88, 85
2, 98220, Note_on_c, 0, 88, 0
2, 98220, Note_on_c, 0, 89, 85
2, 98247, Note_on_c, 0, 89, 0
2, 98304, Note_on_c, 0, 84, 79
2, 98343, Note_on_c, 0, 84, 0
2, 98400, Note_on_c, 0, 84, 79
2, 98439, Note_on_c, 0, 84, 0
2, 98496, Note_on_c, 0, 84, 79
2, 98516, Note_on_c, 0, 84, 0
2, 98544, Note_on_c, 0, 86, 79
2, 98567, Note_on_c, 0, 86, 0
2, 98568, Note_on_c, 0, 84, 79
2, 98591, Note_on_c, 0, 84, 0
2, 98592, Note_on_c, 0, 82, 79
2, 98615, Note_on_c, 0, 82, 0
2, 98616, Note_on_c, 0, 81, 79
2, 98639, Note_on_c, 0, 81, 0
2, 98640, Note_on_c, 0, 79, 79
2, 98663, Note_on_c, 0, 79, 0
2, 98664, Note_on_c, 0, 77, 79
2, 98687, Note_on_c, 0, 77, 0
2, 98688, Note_on_c, 0, 76, 79
2, 98727, Note_on_c, 0, 76, 0
2, 98784, Note_on_c, 0, 76, 80
2, 98823, Note_on_c, 0, 76, 0
2, 98880, Note_on_c, 0, 77, 82
2, 98919, Note_on_c, 0, 77, 0
2, 98976, Note_on_c, 0, 77, 83
2, 99015, Note_on_c, 0, 77, 0
2, 99072, Note_on_c, 0, 78, 101
2, 99168, Note_on_c, 0, 78, 0
2, 99168, Note_on_c, 0, 79, 85
2, 99257, Note_on_c, 0, 79, 0
2, 99360, Note_on_c, 0, 72, 85
2, 99432, Note_on_c, 0, 72, 0
2, 99432, Note_on_c, 0, 79, 85
2, 99455, Note_on_c, 0, 79, 0
2, 99456, Note_on_c, 0, 82, 85
2, 99495, Note_on_c, 0, 82, 0
2, 99552, Note_on_c, 0, 82, 86
2, 99624, Note_on_c, 0, 82, 0
2, 99624, Note_on_c, 0, 84, 88
2, 99647, Note_on_c, 0, 84, 0
2, 99648, Note_on_c, 0, 81, 88
2, 99687, Note_on_c, 0, 81, 0
2, 99744, Note_on_c, 0, 81, 90
2, 99816, Note_on_c, 0, 81, 0
2, 99816, Note_on_c, 0, 82, 92
2, 99839, Note_on_c, 0, 82, 0
2, 99840, Note_on_c, 0, 79, 92
2, 99860, Note_on_c, 0, 79, 0
2, 99888, Note_on_c, 0, 81, 92
2, 99903, Note_on_c, 0, 81, 0
2, 99904, Note_on_c, 0, 79, 92
2, 99919, Note_on_c, 0, 79, 0
2, 99920, Note_on_c, 0, 78, 92
2, 99935, Note_on_c, 0, 78, 0
2, 99936, Note_on_c, 0, 79, 92
2, 100008, Note_on_c, 0, 79, 0
2, 100008, Note_on_c, 0, 81, 92
2, 100031, Note_on_c, 0, 81, 0
2, 100032, Note_on_c, 0, 77, 92
2, 100071, Note_on_c, 0, 77, 0
2, 100128, Note_on_c, 0, 77, 92
2, 100167, Note_on_c, 0, 77, 0
2, 100224, Note_on_c, 0, 79, 92
2, 100263, Note_on_c, 0, 79, 0
2, 100320, Note_on_c, 0, 79, 92
2, 100359, Note_on_c, 0, 79, 0
2, 100416, Note_on_c, 0, 72, 86
2, 100483, Note_on_c, 0, 72, 0
2, 100488, Note_on_c, 0, 74, 81
2, 100511, Note_on_c, 0, 74, 0
2, 100512, Note_on_c, 0, 76, 80
2, 100579, Note_on_c, 0, 76, 0
2, 100584, Note_on_c, 0, 72, 75
2, 100607, Note_on_c, 0, 72, 0
2, 100608, Note_on_c, 0, 77, 74
2, 100638, Note_on_c, 0, 77, 0
2, 100640, Note_on_c, 0, 72, 74
2, 100670, Note_on_c, 0, 72, 0
2, 100672, Note_on_c, 0, 69, 74
2, 100702, Note_on_c, 0, 69, 0
2, 100704, Note_on_c, 0, 77, 74
2, 100734, Note_on_c, 0, 77, 0
2, 100736, Note_on_c, 0, 72, 74
2, 100766, Note_on_c, 0, 72, 0
2, 100768, Note_on_c, 0, 69, 74
2, 100798, Note_on_c, 0, 69, 0
2, 100800, Note_on_c, 0, 77, 74
2, 100830, Note_on_c, 0, 77, 0
2, 100832, Note_on_c, 0, 72, 74
2, 100862, Note_on_c, 0, 72, 0
2, 100864, Note_on_c, 0, 69, 74
2, 100894, Note_on_c, 0, 69, 0
2, 100896, Note_on_c, 0, 76, 85
2, 100926, Note_on_c, 0, 76, 0
2, 100928, Note_on_c, 0, 72, 85
2, 100958, Note_on_c, 0, 72, 0
2, 100960, Note_on_c, 0, 70, 85
2, 100990, Note_on_c, 0, 70, 0
2, 100992, Note_on_c, 0, 77, 74
2, 101022, Note_on_c, 0, 77, 0
2, 101024, Note_on_c, 0, 72, 74
2, 101054, Note_on_c, 0, 72, 0
2, 101056, Note_on_c, 0, 69, 74
2, 101086, Note_on_c, 0, 69, 0
2, 101088, Note_on_c, 0, 77, 69
2, 101118, Note_on_c, 0, 77, 0
2, 101120, Note_on_c, 0, 72, 69
2, 101150, Note_on_c, 0, 72, 0
2, 101152, Note_on_c, 0, 69, 69
2, 101182, Note_on_c, 0, 69, 0
2, 101184, Note_on_c, 0, 77, 69
2, 101214, Note_on_c, 0, 77, 0
2, 101216, Note_on_c, 0, 72, 69
2, 101246, Note_on_c, 0, 72, 0
2, 101248, Note_on_c, 0, 69, 69
2, 101278, Note_on_c, 0, 69, 0
2, 101280, Note_on_c, 0, 76, 85
2, 101310, Note_on_c, 0, 76, 0
2, 101312, Note_on_c, 0, 72, 85
2, 101342, Note_on_c, 0, 72, 0
2, 101344, Note_on_c, 0, 70, 85
2, 101374, Note_on_c, 0, 70, 0
2, 101376, Note_on_c, 0, 77, 74
2, 101406, Note_on_c, 0, 77, 0
2, 101408, Note_on_c, 0, 72, 74
2, 101438, Note_on_c, 0, 72, 0
2, 101440, Note_on_c, 0, 69, 74
2, 101470, Note_on_c, 0, 69, 0
2, 101472, Note_on_c, 0, 77, 69
2, 101502, Note_on_c, 0, 77, 0
2, 101504, Note_on_c, 0, 72, 69
2, 101534, Note_on_c, 0, 72, 0
2, 101536, Note_on_c, 0, 69, 69
2, 101566, Note_on_c, 0, 69, 0
2, 101568, Note_on_c, 0, 77, 69
2, 101598, Note_on_c, 0, 77, 0
2, 101600, Note_on_c, 0, 72, 69
2, 101630, Note_on_c, 0, 72, 0
2, 101632, Note_on_c, 0, 69, 69
2, 101662, Note_on_c, 0, 69, 0
2, 101664, Note_on_c, 0, 78, 85
2, 101694, Note_on_c, 0, 78, 0
2, 101696, Note_on_c, 0, 74, 85
2, 101726, Note_on_c, 0, 74, 0
2, 101728, Note_on_c, 0, 72, 85
2, 101758, Note_on_c, 0, 72, 0
2, 101760, Note_on_c, 0, 79, 79
2, 101790, Note_on_c, 0, 79, 0
2, 101792, Note_on_c, 0, 74, 79
2, 101822, Note_on_c, 0, 74, 0
2, 101824, Note_on_c, 0, 71, 79
2, 101854, Note_on_c, 0, 71, 0
2, 101856, Note_on_c, 0, 79, 74
2, 101886, Note_on_c, 0, 79, 0
2, 101888, Note_on_c, 0, 74, 74
2, 101918, Note_on_c, 0, 74, 0
2, 101920, Note_on_c, 0, 71, 74
2, 101950, Note_on_c, 0, 71, 0
2, 101952, Note_on_c, 0, 79, 74
2, 101982, Note_on_c, 0, 79, 0
2, 101984, Note_on_c, 0, 74, 74
2, 102014, Note_on_c, 0, 74, 0
2, 102016, Note_on_c, 0, 71, 74
2, 102046, Note_on_c, 0, 71, 0
2, 102048, Note_on_c, 0, 80, 85
2, 102078, Note_on_c, 0, 80, 0
2, 102080, Note_on_c, 0, 76, 85
2, 102110, Note_on_c, 0, 76, 0
2, 102112, Note_on_c, 0, 74, 85
2, 102142, Note_on_c, 0, 74, 0
2, 102144, Note_on_c, 0, 81, 79
2, 102174, Note_on_c, 0, 81, 0
2, 102176, Note_on_c, 0, 76, 79
2, 102206, Note_on_c, 0, 76, 0
2, 102208, Note_on_c, 0, 72, 79
2, 102238, Note_on_c, 0, 72, 0
2, 102240, Note_on_c, 0, 81, 79
2, 102270, Note_on_c, 0, 81, 0
2, 102272, Note_on_c, 0, 76, 79
2, 102302, Note_on_c, 0, 76, 0
2, 102304, Note_on_c, 0, 72, 79
2, 102334, Note_on_c, 0, 72, 0
2, 102336, Note_on_c, 0, 81, 80
2, 102366, Note_on_c, 0, 81, 0
2, 102368, Note_on_c, 0, 76, 81
2, 102398, Note_on_c, 0, 76, 0
2, 102400, Note_on_c, 0, 72, 82
2, 102430, Note_on_c, 0, 72, 0
2, 102432, Note_on_c, 0, 83, 83
2, 102462, Note_on_c, 0, 83, 0
2, 102464, Note_on_c, 0, 80, 85
2, 102494, Note_on_c, 0, 80, 0
2, 102496, Note_on_c, 0, 76, 85
2, 102526, Note_on_c, 0, 76, 0
2, 102528, Note_on_c, 0, 84, 85
2, 102558, Note_on_c, 0, 84, 0
2, 102560, Note_on_c, 0, 81, 85
2, 102590, Note_on_c, 0, 81, 0
2, 102592, Note_on_c, 0, 76, 85
2, 102622, Note_on_c, 0, 76, 0
2, 102624, Note_on_c, 0, 86, 85
2, 102654, Note_on_c, 0, 86, 0
2, 102656, Note_on_c, 0, 83, 85
2, 102686, Note_on_c, 0, 83, 0
2, 102688, Note_on_c, 0, 76, 85
2, 102718, Note_on_c, 0, 76, 0
2, 102720, Note_on_c, 0, 88, 85
2, 102750, Note_on_c, 0, 88, 0
2, 102752, Note_on_c, 0, 84, 85
2, 102782, Note_on_c, 0, 84, 0
2, 102784, Note_on_c, 0, 76, 85
2, 102814, Note_on_c, 0, 76, 0
2, 102816, Note_on_c, 0, 84, 85
2, 102846, Note_on_c, 0, 84, 0
2, 102848, Note_on_c, 0, 81, 85
2, 102878, Note_on_c, 0, 81, 0
2, 102880, Note_on_c, 0, 76, 85
2, 102910, Note_on_c, 0, 76, 0
2, 102912, Note_on_c, 0, 83, 85
2, 102942, Note_on_c, 0, 83, 0
2, 102944, Note_on_c, 0, 80, 85
2, 102974, Note_on_c, 0, 80, 0
2, 102976, Note_on_c, 0, 76, 85
2, 103006, Note_on_c, 0, 76, 0
2, 103008, Note_on_c, 0, 84, 85
2, 103038, Note_on_c, 0, 84, 0
2, 103040, Note_on_c, 0, 81, 85
2, 103070, Note_on_c, 0, 81, 0
2, 103072, Note_on_c, 0, 76, 85
2, 103102, Note_on_c, 0, 76, 0
2, 103104, Note_on_c, 0, 83, 85
2, 103134, Note_on_c, 0, 83, 0
2, 103136, Note_on_c, 0, 80, 85
2, 103166, Note_on_c, 0, 80, 0
2, 103168, Note_on_c, 0, 76, 85
2, 103198, Note_on_c, 0, 76, 0
2, 103200, Note_on_c, 0, 88, 85
2, 103230, Note_on_c, 0, 88, 0
2, 103232, Note_on_c, 0, 83, 85
2, 103262, Note_on_c, 0, 83, 0
2, 103264, Note_on_c, 0, 80, 85
2, 103294, Note_on_c, 0, 80, 0
2, 103296, Note_on_c, 0, 88, 85
2, 103326, Note_on_c, 0, 88, 0
2, 103328, Note_on_c, 0, 84, 85
2, 103358, Note_on_c, 0, 84, 0
2, 103360, Note_on_c, 0, 81, 85
2, 103390, Note_on_c, 0, 81, 0
2, 103392, Note_on_c, 0, 88, 85
2, 103422, Note_on_c, 0, 88, 0
2, 103424, Note_on_c, 0, 84, 85
2, 103454, Note_on_c, 0, 84, 0
2, 103456, Note_on_c, 0, 81, 85
2, 103486, Note_on_c, 0, 81, 0
2, 103488, Note_on_c, 0, 86, 85
2, 103518, Note_on_c, 0, 86, 0
2, 103520, Note_on_c, 0, 83, 85
2, 103550, Note_on_c, 0, 83, 0
2, 103552, Note_on_c, 0, 81, 85
2, 103582, Note_on_c, 0, 81, 0
2, 103584, Note_on_c, 0, 86, 85
2, 103614, Note_on_c, 0, 86, 0
2, 103616, Note_on_c, 0, 83, 85
2, 103646, Note_on_c, 0, 83, 0
2, 103648, Note_on_c, 0, 81, 85
2, 103678, Note_on_c, 0, 81, 0
2, 103680, Note_on_c, 0, 86, 85
2, 103710, Note_on_c, 0, 86, 0
2, 103712, Note_on_c, 0, 83, 85
2, 103742, Note_on_c, 0, 83, 0
2, 103744, Note_on_c, 0, 80, 85
2, 103774, Note_on_c, 0, 80, 0
2, 103776, Note_on_c, 0, 86, 85
2, 103806, Note_on_c, 0, 86, 0
2, 103808, Note_on_c, 0, 83, 85
2, 103838, Note_on_c, 0, 83, 0
2, 103840, Note_on_c, 0, 80, 85
2, 103870, Note_on_c, 0, 80, 0
2, 103872, Note_on_c, 0, 85, 85
2, 103902, Note_on_c, 0, 85, 0
2, 103904, Note_on_c, 0, 81, 85
2, 103934, Note_on_c, 0, 81, 0
2, 103936, Note_on_c, 0, 79, 85
2, 103966, Note_on_c, 0, 79, 0
2, 103968, Note_on_c, 0, 85, 85
2, 103998, Note_on_c, 0, 85, 0
2, 104000, Note_on_c, 0, 81, 85
2, 104030, Note_on_c, 0, 81, 0
2, 104032, Note_on_c, 0, 79, 85
2, 104062, Note_on_c, 0, 79, 0
2, 104064, Note_on_c, 0, 84, 85
2, 104094, Note_on_c, 0, 84, 0
2, 104096, Note_on_c, 0, 81, 85
2, 104126, Note_on_c, 0, 81, 0
2, 104128, Note_on_c, 0, 78, 85
2, 104158, Note_on_c, 0, 78, 0
2, 104160, Note_on_c, 0, 84, 85
2, 104190, Note_on_c, 0, 84, 0
2, 104192, Note_on_c, 0, 81, 85
2, 104222, Note_on_c, 0, 81, 0
2, 104224, Note_on_c, 0, 78, 85
2, 104254, Note_on_c, 0, 78, 0
2, 104256, Note_on_c, 0, 83, 85
2, 104286, Note_on_c, 0, 83, 0
2, 104288, Note_on_c, 0, 79, 85
2, 104318, Note_on_c, 0, 79, 0
2, 104320, Note_on_c, 0, 77, 85
2, 104350, Note_on_c, 0, 77, 0
2, 104352, Note_on_c, 0, 83, 85
2, 104382, Note_on_c, 0, 83, 0
2, 104384, Note_on_c, 0, 79, 85
2, 104414, Note_on_c, 0, 79, 0
2, 104416, Note_on_c, 0, 77, 85
2, 104446, Note_on_c, 0, 77, 0
2, 104448, Note_on_c, 0, 82, 85
2, 104478, Note_on_c, 0, 82, 0
2, 104480, Note_on_c, 0, 79, 85
2, 104510, Note_on_c, 0, 79, 0
2, 104512, Note_on_c, 0, 76, 85
2, 104542, Note_on_c, 0, 76, 0
2, 104544, Note_on_c, 0, 82, 85
2, 104574, Note_on_c, 0, 82, 0
2, 104576, Note_on_c, 0, 79, 85
2, 104606, Note_on_c, 0, 79, 0
2, 104608, Note_on_c, 0, 76, 85
2, 104638, Note_on_c, 0, 76, 0
2, 104640, Note_on_c, 0, 81, 85
2, 104670, Note_on_c, 0, 81, 0
2, 104672, Note_on_c, 0, 77, 85
2, 104702, Note_on_c, 0, 77, 0
2, 104704, Note_on_c, 0, 72, 85
2, 104734, Note_on_c, 0, 72, 0
2, 104736, Note_on_c, 0, 81, 85
2, 104766, Note_on_c, 0, 81, 0
2, 104768, Note_on_c, 0, 77, 85
2, 104798, Note_on_c, 0, 77, 0
2, 104800, Note_on_c, 0, 72, 85
2, 104830, Note_on_c, 0, 72, 0
2, 104832, Note_on_c, 0, 82, 85
2, 104862, Note_on_c, 0, 82, 0
2, 104864, Note_on_c, 0, 79, 85
2, 104894, Note_on_c, 0, 79, 0
2, 104896, Note_on_c, 0, 72, 85
2, 104926, Note_on_c, 0, 72, 0
2, 104928, Note_on_c, 0, 82, 85
2, 104958, Note_on_c, 0, 82, 0
2, 104960, Note_on_c, 0, 79, 85
2, 104990, Note_on_c, 0, 79, 0
2, 104992, Note_on_c, 0, 72, 85
2, 105022, Note_on_c, 0, 72, 0
2, 105024, Note_on_c, 0, 81, 85
2, 105054, Note_on_c, 0, 81, 0
2, 105056, Note_on_c, 0, 77, 85
2, 105086, Note_on_c, 0, 77, 0
2, 105088, Note_on_c, 0, 72, 85
2, 105118, Note_on_c, 0, 72, 0
2, 105120, Note_on_c, 0, 81, 85
2, 105150, Note_on_c, 0, 81, 0
2, 105152, Note_on_c, 0, 77, 85
2, 105182, Note_on_c, 0, 77, 0
2, 105184, Note_on_c, 0, 72, 85
2, 105214, Note_on_c, 0, 72, 0
2, 105216, Note_on_c, 0, 81, 85
2, 105246, Note_on_c, 0, 81, 0
2, 105248, Note_on_c, 0, 77, 85
2, 105278, Note_on_c, 0, 77, 0
2, 105280, Note_on_c, 0, 72, 85
2, 105310, Note_on_c, 0, 72, 0
2, 105312, Note_on_c, 0, 81, 85
2, 105342, Note_on_c, 0, 81, 0
2, 105344, Note_on_c, 0, 77, 85
2, 105374, Note_on_c, 0, 77, 0
2, 105376, Note_on_c, 0, 72, 85
2, 105406, Note_on_c, 0, 72, 0
2, 105408, Note_on_c, 0, 81, 85
2, 105438, Note_on_c, 0, 81, 0
2, 105440, Note_on_c, 0, 76, 85
2, 105470, Note_on_c, 0, 76, 0
2, 105472, Note_on_c, 0, 72, 85
2, 105502, Note_on_c, 0, 72, 0
2, 105504, Note_on_c, 0, 81, 85
2, 105534, Note_on_c, 0, 81, 0
2, 105536, Note_on_c, 0, 76, 85
2, 105566, Note_on_c, 0, 76, 0
2, 105568, Note_on_c, 0, 72, 85
2, 105598, Note_on_c, 0, 72, 0
2, 105600, Control_c, 0, 64, 127
2, 105600, Note_on_c, 0, 81, 85
2, 105630, Note_on_c, 0, 81, 0
2, 105632, Note_on_c, 0, 78, 85
2, 105662, Note_on_c, 0, 78, 0
2, 105664, Note_on_c, 0, 72, 85
2, 105694, Note_on_c, 0, 72, 0
2, 105696, Note_on_c, 0, 81, 85
2, 105726, Note_on_c, 0, 81, 0
2, 105728, Note_on_c, 0, 78, 85
2, 105758, Note_on_c, 0, 78, 0
2, 105760, Note_on_c, 0, 72, 85
2, 105790, Note_on_c, 0, 72, 0
2, 105792, Note_on_c, 0, 81, 85
2, 105822, Note_on_c, 0, 81, 0
2, 105824, Note_on_c, 0, 78, 85
2, 105854, Note_on_c, 0, 78, 0
2, 105856, Note_on_c, 0, 72, 85
2, 105886, Note_on_c, 0, 72, 0
2, 105888, Note_on_c, 0, 81, 85
2, 105918, Note_on_c, 0, 81, 0
2, 105920, Note_on_c, 0, 78, 85
2, 105950, Note_on_c, 0, 78, 0
2, 105952, Note_on_c, 0, 72, 85
2, 105982, Note_on_c, 0, 72, 0
2, 105984, Note_on_c, 0, 81, 85
2, 106014, Note_on_c, 0, 81, 0
2, 106016, Note_on_c, 0, 78, 85
2, 106046, Note_on_c, 0, 78, 0
2, 106048, Note_on_c, 0, 72, 85
2, 106078, Note_on_c, 0, 72, 0
2, 106080, Note_on_c, 0, 81, 85
2, 106110, Note_on_c, 0, 81, 0
2, 106112, Note_on_c, 0, 78, 85
2, 106142, Note_on_c, 0, 78, 0
2, 106144, Note_on_c, 0, 72, 85
2, 106174, Note_on_c, 0, 72, 0
2, 106176, Note_on_c, 0, 81, 85
2, 106206, Note_on_c, 0, 81, 0
2, 106208, Note_on_c, 0, 78, 85
2, 106238, Note_on_c, 0, 78, 0
2, 106240, Note_on_c, 0, 72, 85
2, 106270, Note_on_c, 0, 72, 0
2, 106272, Note_on_c, 0, 81, 85
2, 106302, Note_on_c, 0, 81, 0
2, 106304, Note_on_c, 0, 78, 85
2, 106334, Note_on_c, 0, 78, 0
2, 106336, Note_on_c, 0, 72, 85
2, 106366, Note_on_c, 0, 72, 0
2, 106368, Control_c, 0, 64, 0
2, 106368, Note_on_c, 0, 81, 85
2, 106398, Note_on_c, 0, 81, 0
2, 106400, Note_on_c, 0, 76, 85
2, 106430, Note_on_c, 0, 76, 0
2, 106432, Note_on_c, 0, 72, 85
2, 106462, Note_on_c, 0, 72, 0
2, 106464, Note_on_c, 0, 81, 85
2, 106494, Note_on_c, 0, 81, 0
2, 106496, Note_on_c, 0, 76, 85
2, 106526, Note_on_c, 0, 76, 0
2, 106528, Note_on_c, 0, 72, 85
2, 106558, Note_on_c, 0, 72, 0
2, 106560, Note_on_c, 0, 80, 85
2, 106590, Note_on_c, 0, 80, 0
2, 106592, Note_on_c, 0, 74, 85
2, 106622, Note_on_c, 0, 74, 0
2, 106624, Note_on_c, 0, 71, 85
2, 106654, Note_on_c, 0, 71, 0
2, 106656, Note_on_c, 0, 80, 85
2, 106686, Note_on_c, 0, 80, 0
2, 106688, Note_on_c, 0, 74, 85
2, 106718, Note_on_c, 0, 74, 0
2, 106720, Note_on_c, 0, 71, 85
2, 106750, Note_on_c, 0, 71, 0
2, 106752, Note_on_c, 0, 77, 85
2, 106782, Note_on_c, 0, 77, 0
2, 106784, Note_on_c, 0, 72, 85
2, 106814, Note_on_c, 0, 72, 0
2, 106816, Note_on_c, 0, 69, 85
2, 106846, Note_on_c, 0, 69, 0
2, 106848, Note_on_c, 0, 77, 85
2, 106878, Note_on_c, 0, 77, 0
2, 106880, Note_on_c, 0, 72, 85
2, 106910, Note_on_c, 0, 72, 0
2, 106912, Note_on_c, 0, 69, 85
2, 106942, Note_on_c, 0, 69, 0
2, 106944, Note_on_c, 0, 76, 85
2, 106974, Note_on_c, 0, 76, 0
2, 106976, Note_on_c, 0, 71, 85
2, 107006, Note_on_c, 0, 71, 0
2, 107008, Note_on_c, 0, 68, 85
2, 107038, Note_on_c, 0, 68, 0
2, 107040, Note_on_c, 0, 76, 85
2, 107070, Note_on_c, 0, 76, 0
2, 107072, Note_on_c, 0, 71, 85
2, 107102, Note_on_c, 0, 71, 0
2, 107104, Note_on_c, 0, 68, 85
2, 107134, Note_on_c, 0, 68, 0
2, 107136, Note_on_c, 0, 75, 85
2, 107166, Note_on_c, 0, 75, 0
2, 107168, Note_on_c, 0, 69, 85
2, 107198, Note_on_c, 0, 69, 0
2, 107200, Note_on_c, 0, 66, 85
2, 107230, Note_on_c, 0, 66, 0
2, 107232, Note_on_c, 0, 75, 85
2, 107262, Note_on_c, 0, 75, 0
2, 107264, Note_on_c, 0, 69, 85
2, 107294, Note_on_c, 0, 69, 0
2, 107296, Note_on_c, 0, 66, 85
2, 107326, Note_on_c, 0, 66, 0
2, 107328, Note_on_c, 0, 74, 85
2, 107358, Note_on_c, 0, 74, 0
2, 107360, Note_on_c, 0, 71, 85
2, 107390, Note_on_c, 0, 71, 0
2, 107392, Note_on_c, 0, 68, 85
2, 107422, Note_on_c, 0, 68, 0
2, 107424, Note_on_c, 0, 74, 85
2, 107454, Note_on_c, 0, 74, 0
2, 107456, Note_on_c, 0, 71, 85
2, 107486, Note_on_c, 0, 71, 0
2, 107488, Note_on_c, 0, 68, 85
2, 107518, Note_on_c, 0, 68, 0
2, 107520, Note_on_c, 0, 72, 85
2, 107550, Note_on_c, 0, 72, 0
2, 107552, Note_on_c, 0, 69, 85
2, 107582, Note_on_c, 0, 69, 0
2, 107584, Note_on_c, 0, 64, 85
2, 107614, Note_on_c, 0, 64, 0
2, 107616, Note_on_c, 0, 72, 85
2, 107646, Note_on_c, 0, 72, 0
2, 107648, Note_on_c, 0, 69, 85
2, 107678, Note_on_c, 0, 69, 0
2, 107680, Note_on_c, 0, 64, 85
2, 107710, Note_on_c, 0, 64, 0
2, 107712, Note_on_c, 0, 69, 85
2, 107742, Note_on_c, 0, 69, 0
2, 107744, Note_on_c, 0, 64, 85
2, 107774, Note_on_c, 0, 64, 0
2, 107776, Note_on_c, 0, 60, 85
2, 107806, Note_on_c, 0, 60, 0
2, 107808, Note_on_c, 0, 69, 85
2, 107838, Note_on_c, 0, 69, 0
2, 107840, Note_on_c, 0, 64, 85
2, 107870, Note_on_c, 0, 64, 0
2, 107872, Note_on_c, 0, 60, 85
2, 107902, Note_on_c, 0, 60, 0
2, 107904, Note_on_c, 0, 70, 85
2, 107934, Note_on_c, 0, 70, 0
2, 107936, Note_on_c, 0, 65, 85
2, 107966, Note_on_c, 0, 65, 0
2, 107968, Note_on_c, 0, 62, 85
2, 107998, Note_on_c, 0, 62, 0
2, 108000, Note_on_c, 0, 70, 85
2, 108030, Note_on_c, 0, 70, 0
2, 108032, Note_on_c, 0, 65, 85
2, 108062, Note_on_c, 0, 65, 0
2, 108064, Note_on_c, 0, 62, 85
2, 108094, Note_on_c, 0, 62, 0
2, 108096, Note_on_c, 0, 68, 85
2, 108126, Note_on_c, 0, 68, 0
2, 108128, Note_on_c, 0, 62, 85
2, 108158, Note_on_c, 0, 62, 0
2, 108160, Note_on_c, 0, 59, 85
2, 108190, Note_on_c, 0, 59, 0
2, 108192, Note_on_c, 0, 68, 85
2, 108222, Note_on_c, 0, 68, 0
2, 108224, Note_on_c, 0, 62, 85
2, 108254, Note_on_c, 0, 62, 0
2, 108256, Note_on_c, 0, 59, 85
2, 108286, Note_on_c, 0, 59, 0
2, 108288, Note_on_c, 0, 67, 85
2, 108318, Note_on_c, 0, 67, 0
2, 108320, Note_on_c, 0, 64, 84
2, 108350, Note_on_c, 0, 64, 0
2, 108352, Note_on_c, 0, 61, 84
2, 108382, Note_on_c, 0, 61, 0
2, 108384, Note_on_c, 0, 67, 83
2, 108414, Note_on_c, 0, 67, 0
2, 108416, Note_on_c, 0, 64, 83
2, 108446, Note_on_c, 0, 64, 0
2, 108448, Note_on_c, 0, 61, 82
2, 108478, Note_on_c, 0, 61, 0
2, 108480, Note_on_c, 0, 67, 82
2, 108510, Note_on_c, 0, 67, 0
2, 108512, Note_on_c, 0, 64, 81
2, 108542, Note_on_c, 0, 64, 0
2, 108544, Note_on_c, 0, 61, 81
2, 108574, Note_on_c, 0, 61, 0
2, 108576, Note_on_c, 0, 67, 80
2, 108606, Note_on_c, 0, 67, 0
2, 108608, Note_on_c, 0, 64, 80
2, 108638, Note_on_c, 0, 64, 0
2, 108640, Note_on_c, 0, 61, 79
2, 108670, Note_on_c, 0, 61, 0
2, 108672, Control_c, 0, 64, 127
2, 108672, Note_on_c, 0, 58, 79
2, 108678, Note_on_c, 0, 61, 79
2, 108684, Note_on_c, 0, 64, 79
2, 108690, Note_on_c, 0, 67, 79
2, 108857, Note_on_c, 0, 67, 0
2, 108857, Note_on_c, 0, 64, 0
2, 108857, Note_on_c, 0, 61, 0
2, 108857, Note_on_c, 0, 58, 0
2, 108864, Control_c, 0, 64, 0
2, 108864, Note_on_c, 0, 65, 69
2, 108953, Note_on_c, 0, 65, 0
2, 108960, Note_on_c, 0, 64, 69
2, 109049, Note_on_c, 0, 64, 0
2, 109056, Note_on_c, 0, 65, 85
2, 109086, Note_on_c, 0, 65, 0
2, 109088, Note_on_c, 0, 62, 85
2, 109118, Note_on_c, 0, 62, 0
2, 109120, Note_on_c, 0, 57, 85
2, 109150, Note_on_c, 0, 57, 0
2, 109152, Note_on_c, 0, 65, 85
2, 109182, Note_on_c, 0, 65, 0
2, 109184, Note_on_c, 0, 62, 85
2, 109214, Note_on_c, 0, 62, 0
2, 109216, Note_on_c, 0, 57, 85
2, 109246, Note_on_c, 0, 57, 0
2, 109248, Note_on_c, 0, 65, 85
2, 109278, Note_on_c, 0, 65, 0
2, 109280, Note_on_c, 0, 62, 85
2, 109310, Note_on_c, 0, 62, 0
2, 109312, Note_on_c, 0, 57, 85
2, 109342, Note_on_c, 0, 57, 0
2, 109344, Note_on_c, 0, 65, 85
2, 109374, Note_on_c, 0, 65, 0
2, 109376, Note_on_c, 0, 62, 85
2, 109406, Note_on_c, 0, 62, 0
2, 109408, Note_on_c, 0, 57, 85
2, 109438, Note_on_c, 0, 57, 0
2, 109440, Note_on_c, 0, 65, 85
2, 109470, Note_on_c, 0, 65, 0
2, 109472, Note_on_c, 0, 62, 85
2, 109502, Note_on_c, 0, 62, 0
2, 109504, Note_on_c, 0, 55, 85
2, 109534, Note_on_c, 0, 55, 0
2, 109536, Note_on_c, 0, 65, 85
2, 109566, Note_on_c, 0, 65, 0
2, 109568, Note_on_c, 0, 62, 85
2, 109598, Note_on_c, 0, 62, 0
2, 109600, Note_on_c, 0, 55, 85
2, 109630, Note_on_c, 0, 55, 0
2, 109632, Note_on_c, 0, 65, 85
2, 109662, Note_on_c, 0, 65, 0
2, 109664, Note_on_c, 0, 62, 85
2, 109694, Note_on_c, 0, 62, 0
2, 109696, Note_on_c, 0, 55, 85
2, 109726, Note_on_c, 0, 55, 0
2, 109728, Note_on_c, 0, 65, 85
2, 109758, Note_on_c, 0, 65, 0
2, 109760, Note_on_c, 0, 62, 85
2, 109790, Note_on_c, 0, 62, 0
2, 109792, Note_on_c, 0, 55, 85
2, 109822, Note_on_c, 0, 55, 0
2, 109824, Note_on_c, 0, 65, 85
2, 109824, Note_on_c, 0, 62, 85
2, 109824, Note_on_c, 0, 55, 85
2, 110089, Note_on_c, 0, 65, 0
2, 110089, Note_on_c, 0, 62, 0
2, 110089, Note_on_c, 0, 55, 0
2, 110112, Note_on_c, 0, 55, 69
2, 110184, Note_on_c, 0, 55, 0
2, 110184, Note_on_c, 0, 59, 69
2, 110207, Note_on_c, 0, 59, 0
2, 110208, Note_on_c, 0, 62, 69
2, 110247, Note_on_c, 0, 62, 0
2, 110304, Note_on_c, 0, 59, 69
2, 110376, Note_on_c, 0, 59, 0
2, 110376, Note_on_c, 0, 62, 70
2, 110399, Note_on_c, 0, 62, 0
2, 110400, Note_on_c, 0, 65, 70
2, 110439, Note_on_c, 0, 65, 0
2, 110496, Note_on_c, 0, 62, 71
2, 110568, Note_on_c, 0, 62, 0
2, 110568, Note_on_c, 0, 65, 72
2, 110591, Note_on_c, 0, 65, 0
2, 110592, Note_on_c, 0, 71, 72
2, 110631, Note_on_c, 0, 71, 0
2, 110688, Note_on_c, 0, 65, 73
2, 110760, Note_on_c, 0, 65, 0
2, 110760, Note_on_c, 0, 71, 73
2, 110783, Note_on_c, 0, 71, 0
2, 110784, Note_on_c, 0, 74, 74
2, 110823, Note_on_c, 0, 74, 0
2, 110880, Note_on_c, 0, 77, 74
2, 110903, Note_on_c, 0, 77, 0
2, 110904, Note_on_c, 0, 76, 73
2, 110927, Note_on_c, 0, 76, 0
2, 110928, Note_on_c, 0, 74, 73
2, 110951, Note_on_c, 0, 74, 0
2, 110952, Note_on_c, 0, 72, 73
2, 110975, Note_on_c, 0, 72, 0
2, 110976, Note_on_c, 0, 71, 73
2, 111015, Note_on_c, 0, 71, 0
2, 111072, Note_on_c, 0, 74, 72
2, 111095, Note_on_c, 0, 74, 0
2, 111096, Note_on_c, 0, 72, 71
2, 111119, Note_on_c, 0, 72, 0
2, 111120, Note_on_c, 0, 71, 71
2, 111143, Note_on_c, 0, 71, 0
2, 111144, Note_on_c, 0, 69, 71
2, 111167, Note_on_c, 0, 69, 0
2, 111168, Note_on_c, 0, 67, 71
2, 111207, Note_on_c, 0, 67, 0
2, 111264, Note_on_c, 0, 71, 70
2, 111287, Note_on_c, 0, 71, 0
2, 111288, Note_on_c, 0, 69, 69
2, 111311, Note_on_c, 0, 69, 0
2, 111312, Note_on_c, 0, 67, 69
2, 111335, Note_on_c, 0, 67, 0
2, 111336, Note_on_c, 0, 66, 69
2, 111359, Note_on_c, 0, 66, 0
2, 111360, Note_on_c, 0, 67, 69
2, 111390, Note_on_c, 0, 67, 0
2, 111392, Note_on_c, 0, 74, 69
2, 111422, Note_on_c, 0, 74, 0
2, 111424, Note_on_c, 0, 71, 69
2, 111454, Note_on_c, 0, 71, 0
2, 111456, Note_on_c, 0, 67, 69
2, 111486, Note_on_c, 0, 67, 0
2, 111488, Note_on_c, 0, 71, 69
2, 111518, Note_on_c, 0, 71, 0
2, 111520, Note_on_c, 0, 67, 69
2, 111550, Note_on_c, 0, 67, 0
2, 111552, Note_on_c, 0, 62, 69
2, 111582, Note_on_c, 0, 62, 0
2, 111584, Note_on_c, 0, 67, 69
2, 111614, Note_on_c, 0, 67, 0
2, 111616, Note_on_c, 0, 62, 69
2, 111646, Note_on_c, 0, 62, 0
2, 111648, Note_on_c, 0, 59, 69
2, 111678, Note_on_c, 0, 59, 0
2, 111680, Note_on_c, 0, 62, 69
2, 111710, Note_on_c, 0, 62, 0
2, 111712, Note_on_c, 0, 59, 69
2, 111742, Note_on_c, 0, 59, 0
2, 111744, Note_on_c, 0, 55, 69
2, 111833, Note_on_c, 0, 55, 0
2, 111840, Note_on_c, 0, 57, 70
2, 111885, Note_on_c, 0, 57, 0
2, 111888, Note_on_c, 0, 59, 70
2, 111933, Note_on_c, 0, 59, 0
2, 111936, Note_on_c, 0, 60, 71
2, 111981, Note_on_c, 0, 60, 0
2, 111984, Note_on_c, 0, 62, 72
2, 112029, Note_on_c, 0, 62, 0
2, 112032, Note_on_c, 0, 64, 72
2, 112077, Note_on_c, 0, 64, 0
2, 112080, Note_on_c, 0, 66, 73
2, 112125, Note_on_c, 0, 66, 0
2, 112128, Note_on_c, 0, 67, 85
2, 112148, Note_on_c, 0, 67, 0
2, 112176, Note_on_c, 0, 67, 85
2, 112221, Note_on_c, 0, 67, 0
2, 112224, Note_on_c, 0, 69, 85
2, 112269, Note_on_c, 0, 69, 0
2, 112272, Note_on_c, 0, 71, 85
2, 112317, Note_on_c, 0, 71, 0
2, 112320, Note_on_c, 0, 72, 85
2, 112365, Note_on_c, 0, 72, 0
2, 112368, Note_on_c, 0, 74, 85
2, 112413, Note_on_c, 0, 74, 0
2, 112416, Note_on_c, 0, 76, 85
2, 112461, Note_on_c, 0, 76, 0
2, 112464, Note_on_c, 0, 78, 85
2, 112509, Note_on_c, 0, 78, 0
2, 112512, Note_on_c, 0, 79, 85
2, 112530, Note_on_c, 0, 79, 0
2, 112530, Note_on_c, 0, 81, 85
2, 112548, Note_on_c, 0, 81, 0
2, 112548, Note_on_c, 0, 79, 85
2, 112566, Note_on_c, 0, 79, 0
2, 112566, Note_on_c, 0, 81, 85
2, 112584, Note_on_c, 0, 81, 0
2, 112584, Note_on_c, 0, 79, 85
2, 112602, Note_on_c, 0, 79, 0
2, 112602, Note_on_c, 0, 81, 85
2, 112620, Note_on_c, 0, 81, 0
2, 112620, Note_on_c, 0, 79, 85
2, 112638, Note_on_c, 0, 79, 0
2, 112638, Note_on_c, 0, 81, 85
2, 112656, Note_on_c, 0, 81, 0
2, 112656, Note_on_c, 0, 79, 85
2, 112674, Note_on_c, 0, 79, 0
2, 112674, Note_on_c, 0, 81, 85
2, 112692, Note_on_c, 0, 81, 0
2, 112692, Note_on_c, 0, 79, 85
2, 112710, Note_on_c, 0, 79, 0
2, 112710, Note_on_c, 0, 81, 85
2, 112728, Note_on_c, 0, 81, 0
2, 112728, Note_on_c, 0, 79, 85
2, 112746, Note_on_c, 0, 79, 0
2, 112746, Note_on_c, 0, 81, 85
2, 112764, Note_on_c, 0, 81, 0
2, 112764, Note_on_c, 0, 79, 85
2, 112777, Note_on_c, 0, 79, 0
2, 112800, Note_on_c, 0, 78, 85
2, 112845, Note_on_c, 0, 78, 0
2, 112848, Note_on_c, 0, 79, 85
2, 112893, Note_on_c, 0, 79, 0
2, 112896, Note_on_c, 0, 67, 85
2, 113206, Note_on_c, 0, 67, 0
2, 113568, Note_on_c, 0, 60, 79
2, 113635, Note_on_c, 0, 60, 0
2, 113640, Note_on_c, 0, 64, 79
2, 113663, Note_on_c, 0, 64, 0
2, 113664, Note_on_c, 0, 67, 79
2, 113703, Note_on_c, 0, 67, 0
2, 113760, Note_on_c, 0, 67, 79
2, 113799, Note_on_c, 0, 67, 0
2, 113856, Note_on_c, 0, 67, 79
2, 113895, Note_on_c, 0, 67, 0
2, 113952, Note_on_c, 0, 71, 85
2, 113964, Note_on_c, 0, 71, 0
2, 113964, Note_on_c, 0, 72, 85
2, 113991, Note_on_c, 0, 72, 0
2, 114048, Note_on_c, 0, 67, 79
2, 114087, Note_on_c, 0, 67, 0
2, 114144, Note_on_c, 0, 67, 79
2, 114183, Note_on_c, 0, 67, 0
2, 114240, Note_on_c, 0, 67, 79
2, 114279, Note_on_c, 0, 67, 0
2, 114336, Note_on_c, 0, 64, 79
2, 114403, Note_on_c, 0, 64, 0
2, 114408, Note_on_c, 0, 60, 79
2, 114431, Note_on_c, 0, 60, 0
2, 114432, Note_on_c, 0, 59, 79
2, 114471, Note_on_c, 0, 59, 0
2, 114528, Note_on_c, 0, 59, 80
2, 114567, Note_on_c, 0, 59, 0
2, 114624, Note_on_c, 0, 60, 82
2, 114663, Note_on_c, 0, 60, 0
2, 114720, Note_on_c, 0, 60, 83
2, 114759, Note_on_c, 0, 60, 0
2, 114816, Note_on_c, 0, 62, 85
2, 114905, Note_on_c, 0, 62, 0
2, 115104, Note_on_c, 0, 55, 79
2, 115171, Note_on_c, 0, 55, 0
2, 115176, Note_on_c, 0, 62, 79
2, 115199, Note_on_c, 0, 62, 0
2, 115200, Note_on_c, 0, 65, 79
2, 115239, Note_on_c, 0, 65, 0
2, 115296, Note_on_c, 0, 65, 79
2, 115368, Note_on_c, 0, 65, 0
2, 115368, Note_on_c, 0, 67, 80
2, 115391, Note_on_c, 0, 67, 0
2, 115392, Note_on_c, 0, 64, 80
2, 115431, Note_on_c, 0, 64, 0
2, 115488, Note_on_c, 0, 64, 82
2, 115560, Note_on_c, 0, 64, 0
2, 115560, Note_on_c, 0, 65, 83
2, 115583, Note_on_c, 0, 65, 0
2, 115584, Note_on_c, 0, 62, 84
2, 115623, Note_on_c, 0, 62, 0
2, 115680, Note_on_c, 0, 62, 84
2, 115752, Note_on_c, 0, 62, 0
2, 115752, Note_on_c, 0, 64, 82
2, 115775, Note_on_c, 0, 64, 0
2, 115776, Note_on_c, 0, 60, 82
2, 115815, Note_on_c, 0, 60, 0
2, 115872, Note_on_c, 0, 60, 80
2, 115911, Note_on_c, 0, 60, 0
2, 115968, Note_on_c, 0, 62, 79
2, 116007, Note_on_c, 0, 62, 0
2, 116064, Note_on_c, 0, 62, 79
2, 116103, Note_on_c, 0, 62, 0
2, 116160, Note_on_c, 0, 59, 79
2, 116199, Note_on_c, 0, 59, 0
2, 116256, Note_on_c, 0, 59, 79
2, 116295, Note_on_c, 0, 59, 0
2, 116640, Note_on_c, 0, 72, 85
2, 116663, Note_on_c, 0, 72, 0
2, 116664, Note_on_c, 0, 74, 85
2, 116687, Note_on_c, 0, 74, 0
2, 116688, Note_on_c, 0, 75, 85
2, 116711, Note_on_c, 0, 75, 0
2, 116712, Note_on_c, 0, 77, 85
2, 116735, Note_on_c, 0, 77, 0
2, 116736, Note_on_c, 0, 79, 85
2, 116775, Note_on_c, 0, 79, 0
2, 116832, Note_on_c, 0, 79, 85
2, 116871, Note_on_c, 0, 79, 0
2, 116928, Note_on_c, 0, 79, 85
2, 116967, Note_on_c, 0, 79, 0
2, 117024, Note_on_c, 0, 83, 85
2, 117036, Note_on_c, 0, 83, 0
2, 117036, Note_on_c, 0, 84, 85
2, 117063, Note_on_c, 0, 84, 0
2, 117120, Note_on_c, 0, 79, 85
2, 117159, Note_on_c, 0, 79, 0
2, 117216, Note_on_c, 0, 79, 85
2, 117255, Note_on_c, 0, 79, 0
2, 117312, Note_on_c, 0, 79, 85
2, 117351, Note_on_c, 0, 79, 0
2, 117408, Note_on_c, 0, 72, 85
2, 117431, Note_on_c, 0, 72, 0
2, 117432, Note_on_c, 0, 74, 85
2, 117455, Note_on_c, 0, 74, 0
2, 117456, Note_on_c, 0, 76, 85
2, 117479, Note_on_c, 0, 76, 0
2, 117480, Note_on_c, 0, 77, 85
2, 117503, Note_on_c, 0, 77, 0
2, 117504, Note_on_c, 0, 79, 85
2, 117543, Note_on_c, 0, 79, 0
2, 117600, Note_on_c, 0, 79, 85
2, 117639, Note_on_c, 0, 79, 0
2, 117696, Note_on_c, 0, 79, 85
2, 117735, Note_on_c, 0, 79, 0
2, 117792, Note_on_c, 0, 83, 85
2, 117804, Note_on_c, 0, 83, 0
2, 117804, Note_on_c, 0, 84, 85
2, 117831, Note_on_c, 0, 84, 0
2, 117888, Note_on_c, 0, 79, 85
2, 117927, Note_on_c, 0, 79, 0
2, 117984, Note_on_c, 0, 79, 85
2, 118023, Note_on_c, 0, 79, 0
2, 118080, Note_on_c, 0, 79, 85
2, 118119, Note_on_c, 0, 79, 0
2, 118176, Note_on_c, 0, 73, 85
2, 118199, Note_on_c, 0, 73, 0
2, 118200, Note_on_c, 0, 74, 85
2, 118223, Note_on_c, 0, 74, 0
2, 118224, Note_on_c, 0, 76, 85
2, 118247, Note_on_c, 0, 76, 0
2, 118248, Note_on_c, 0, 77, 85
2, 118271, Note_on_c, 0, 77, 0
2, 118272, Note_on_c, 0, 79, 85
2, 118311, Note_on_c, 0, 79, 0
2, 118368, Note_on_c, 0, 79, 85
2, 118407, Note_on_c, 0, 79, 0
2, 118464, Note_on_c, 0, 79, 85
2, 118503, Note_on_c, 0, 79, 0
2, 118560, Note_on_c, 0, 79, 85
2, 118590, Note_on_c, 0, 79, 0
2, 118592, Note_on_c, 0, 85, 85
2, 118622, Note_on_c, 0, 85, 0
2, 118624, Note_on_c, 0, 88, 85
2, 118654, Note_on_c, 0, 88, 0
2, 118656, Note_on_c, 0, 77, 85
2, 118695, Note_on_c, 0, 77, 0
2, 118752, Note_on_c, 0, 77, 85
2, 118791, Note_on_c, 0, 77, 0
2, 118848, Note_on_c, 0, 77, 85
2, 118887, Note_on_c, 0, 77, 0
2, 118944, Note_on_c, 0, 77, 85
2, 118974, Note_on_c, 0, 77, 0
2, 118976, Note_on_c, 0, 81, 85
2, 119006, Note_on_c, 0, 81, 0
2, 119008, Note_on_c, 0, 86, 85
2, 119038, Note_on_c, 0, 86, 0
2, 119040, Note_on_c, 0, 77, 85
2, 119079, Note_on_c, 0, 77, 0
2, 119136, Note_on_c, 0, 77, 85
2, 119203, Note_on_c, 0, 77, 0
2, 119208, Note_on_c, 0, 79, 85
2, 119231, Note_on_c, 0, 79, 0
2, 119232, Note_on_c, 0, 76, 85
2, 119271, Note_on_c, 0, 76, 0
2, 119328, Note_on_c, 0, 76, 85
2, 119395, Note_on_c, 0, 76, 0
2, 119400, Note_on_c, 0, 77, 85
2, 119423, Note_on_c, 0, 77, 0
2, 119424, Note_on_c, 0, 74, 85
2, 119463, Note_on_c, 0, 74, 0
2, 119520, Note_on_c, 0, 74, 85
2, 119587, Note_on_c, 0, 74, 0
2, 119592, Note_on_c, 0, 76, 85
2, 119615, Note_on_c, 0, 76, 0
2, 119616, Note_on_c, 0, 72, 85
2, 119655, Note_on_c, 0, 72, 0
2, 119712, Note_on_c, 0, 72, 85
2, 119742, Note_on_c, 0, 72, 0
2, 119744, Note_on_c, 0, 76, 85
2, 119774, Note_on_c, 0, 76, 0
2, 119776, Note_on_c, 0, 79, 85
2, 119806, Note_on_c, 0, 79, 0
2, 119808, Note_on_c, 0, 77, 85
2, 119828, Note_on_c, 0, 77, 0
2, 119856, Note_on_c, 0, 79, 85
2, 119871, Note_on_c, 0, 79, 0
2, 119872, Note_on_c, 0, 77, 85
2, 119887, Note_on_c, 0, 77, 0
2, 119888, Note_on_c, 0, 76, 85
2, 119903, Note_on_c, 0, 76, 0
2, 119904, Note_on_c, 0, 77, 85
2, 119971, Note_on_c, 0, 77, 0
2, 119976, Note_on_c, 0, 79, 86
2, 119999, Note_on_c, 0, 79, 0
2, 120000, Note_on_c, 0, 76, 86
2, 120020, Note_on_c, 0, 76, 0
2, 120048, Note_on_c, 0, 77, 86
2, 120063, Note_on_c, 0, 77, 0
2, 120064, Note_on_c, 0, 76, 86
2, 120079, Note_on_c, 0, 76, 0
2, 120080, Note_on_c, 0, 74, 86
2, 120095, Note_on_c, 0, 74, 0
2, 120096, Note_on_c, 0, 76, 87
2, 120163, Note_on_c, 0, 76, 0
2, 120168, Note_on_c, 0, 77, 87
2, 120191, Note_on_c, 0, 77, 0
2, 120192, Note_on_c, 0, 74, 88
2, 120212, Note_on_c, 0, 74, 0
2, 120240, Note_on_c, 0, 76, 88
2, 120255, Note_on_c, 0, 76, 0
2, 120256, Note_on_c, 0, 74, 88
2, 120271, Note_on_c, 0, 74, 0
2, 120272, Note_on_c, 0, 72, 88
2, 120287, Note_on_c, 0, 72, 0
2, 120288, Note_on_c, 0, 74, 88
2, 120355, Note_on_c, 0, 74, 0
2, 120360, Note_on_c, 0, 76, 89
2, 120383, Note_on_c, 0, 76, 0
2, 120384, Note_on_c, 0, 72, 89
2, 120404, Note_on_c, 0, 72, 0
2, 120432, Note_on_c, 0, 74, 90
2, 120447, Note_on_c, 0, 74, 0
2, 120448, Note_on_c, 0, 72, 90
2, 120463, Note_on_c, 0, 72, 0
2, 120464, Note_on_c, 0, 71, 90
2, 120479, Note_on_c, 0, 71, 0
2, 120480, Note_on_c, 0, 72, 90
2, 120547, Note_on_c, 0, 72, 0
2, 120552, Note_on_c, 0, 74, 91
2, 120575, Note_on_c, 0, 74, 0
2, 120576, Note_on_c, 0, 71, 92
2, 120665, Note_on_c, 0, 71, 0
2, 120744, Note_on_c, 0, 67, 92
2, 120767, Note_on_c, 0, 67, 0
2, 120768, Note_on_c, 0, 71, 92
2, 120835, Note_on_c, 0, 71, 0
2, 120840, Note_on_c, 0, 67, 92
2, 120863, Note_on_c, 0, 67, 0
2, 120864, Note_on_c, 0, 74, 92
2, 120931, Note_on_c, 0, 74, 0
2, 120936, Note_on_c, 0, 71, 92
2, 120959, Note_on_c, 0, 71, 0
2, 120960, Note_on_c, 0, 79, 92
2, 121049, Note_on_c, 0, 79, 0
2, 121128, Note_on_c, 0, 55, 92
2, 121151, Note_on_c, 0, 55, 0
2, 121152, Note_on_c, 0, 59, 92
2, 121182, Note_on_c, 0, 59, 0
2, 121184, Note_on_c, 0, 55, 92
2, 121214, Note_on_c, 0, 55, 0
2, 121216, Note_on_c, 0, 59, 92
2, 121246, Note_on_c, 0, 59, 0
2, 121248, Note_on_c, 0, 62, 92
2, 121278, Note_on_c, 0, 62, 0
2, 121280, Note_on_c, 0, 59, 92
2, 121310, Note_on_c, 0, 59, 0
2, 121312, Note_on_c, 0, 62, 92
2, 121342, Note_on_c, 0, 62, 0
2, 121344, Note_on_c, 0, 67, 92
2, 121433, Note_on_c, 0, 67, 0
2, 121536, Note_on_c, 0, 43, 92
2, 121594, Note_on_c, 0, 43, 0
2, 121680, Note_on_c, 0, 43, 92
2, 121700, Note_on_c, 0, 43, 0
2, 121728, Note_on_c, 0, 43, 92
2, 121817, Note_on_c, 0, 43, 0
2, 122400, Note_on_c, 0, 69, 79
2, 122423, Note_on_c, 0, 69, 0
2, 122424, Note_on_c, 0, 67, 79
2, 122447, Note_on_c, 0, 67, 0
2, 122448, Note_on_c, 0, 66, 79
2, 122471, Note_on_c, 0, 66, 0
2, 122472, Note_on_c, 0, 67, 79
2, 122496, Note_on_c, 0, 67, 0
2, 122496, Note_on_c, 0, 72, 79
2, 122535, Note_on_c, 0, 72, 0
2, 122592, Note_on_c, 0, 72, 79
2, 122631, Note_on_c, 0, 72, 0
2, 122784, Note_on_c, 0, 69, 79
2, 122807, Note_on_c, 0, 69, 0
2, 122808, Note_on_c, 0, 67, 79
2, 122831, Note_on_c, 0, 67, 0
2, 122832, Note_on_c, 0, 66, 79
2, 122855, Note_on_c, 0, 66, 0
2, 122856, Note_on_c, 0, 67, 79
2, 122880, Note_on_c, 0, 67, 0
2, 122880, Note_on_c, 0, 72, 79
2, 122919, Note_on_c, 0, 72, 0
2, 122976, Note_on_c, 0, 72, 79
2, 123015, Note_on_c, 0, 72, 0
2, 123168, Note_on_c, 0, 69, 79
2, 123191, Note_on_c, 0, 69, 0
2, 123192, Note_on_c, 0, 67, 79
2, 123215, Note_on_c, 0, 67, 0
2, 123216, Note_on_c, 0, 66, 79
2, 123239, Note_on_c, 0, 66, 0
2, 123240, Note_on_c, 0, 67, 79
2, 123264, Note_on_c, 0, 67, 0
2, 123264, Note_on_c, 0, 72, 79
2, 123303, Note_on_c, 0, 72, 0
2, 123360, Note_on_c, 0, 74, 79
2, 123384, Note_on_c, 0, 74, 0
2, 123384, Note_on_c, 0, 72, 79
2, 123408, Note_on_c, 0, 72, 0
2, 123408, Note_on_c, 0, 71, 79
2, 123432, Note_on_c, 0, 71, 0
2, 123432, Note_on_c, 0, 72, 79
2, 123456, Note_on_c, 0, 72, 0
2, 123456, Note_on_c, 0, 74, 79
2, 123495, Note_on_c, 0, 74, 0
2, 123552, Note_on_c, 0, 76, 80
2, 123576, Note_on_c, 0, 76, 0
2, 123576, Note_on_c, 0, 74, 80
2, 123600, Note_on_c, 0, 74, 0
2, 123600, Note_on_c, 0, 72, 80
2, 123624, Note_on_c, 0, 72, 0
2, 123624, Note_on_c, 0, 74, 80
2, 123648, Note_on_c, 0, 74, 0
2, 123648, Note_on_c, 0, 76, 80
2, 123687, Note_on_c, 0, 76, 0
2, 123744, Note_on_c, 0, 77, 81
2, 123768, Note_on_c, 0, 77, 0
2, 123768, Note_on_c, 0, 76, 81
2, 123792, Note_on_c, 0, 76, 0
2, 123792, Note_on_c, 0, 74, 81
2, 123816, Note_on_c, 0, 74, 0
2, 123816, Note_on_c, 0, 76, 81
2, 123840, Note_on_c, 0, 76, 0
2, 123840, Note_on_c, 0, 77, 82
2, 123879, Note_on_c, 0, 77, 0
2, 123936, Note_on_c, 0, 79, 82
2, 123960, Note_on_c, 0, 79, 0
2, 123960, Note_on_c, 0, 77, 82
2, 123984, Note_on_c, 0, 77, 0
2, 123984, Note_on_c, 0, 76, 82
2, 124008, Note_on_c, 0, 76, 0
2, 124008, Note_on_c, 0, 77, 82
2, 124032, Note_on_c, 0, 77, 0
2, 124032, Note_on_c, 0, 79, 83
2, 124297, Note_on_c, 0, 79, 0
2, 124320, Note_on_c, 0, 80, 101
2, 124320, Note_on_c, 0, 68, 101
2, 124416, Note_on_c, 0, 80, 0
2, 124416, Note_on_c, 0, 68, 0
2, 124416, Note_on_c, 0, 81, 85
2, 124416, Note_on_c, 0, 69, 85
2, 124505, Note_on_c, 0, 81, 0
2, 124505, Note_on_c, 0, 69, 0
2, 124512, Note_on_c, 0, 83, 86
2, 124512, Note_on_c, 0, 71, 86
2, 124601, Note_on_c, 0, 83, 0
2, 124601, Note_on_c, 0, 71, 0
2, 124608, Note_on_c, 0, 84, 87
2, 124608, Note_on_c, 0, 72, 87
2, 124697, Note_on_c, 0, 84, 0
2, 124697, Note_on_c, 0, 72, 0
2, 124704, Note_on_c, 0, 85, 89
2, 124704, Note_on_c, 0, 73, 89
2, 124793, Note_on_c, 0, 85, 0
2, 124793, Note_on_c, 0, 73, 0
2, 124800, Note_on_c, 0, 86, 90
2, 124800, Note_on_c, 0, 74, 90
2, 124889, Note_on_c, 0, 86, 0
2, 124889, Note_on_c, 0, 74, 0
2, 124896, Note_on_c, 0, 88, 92
2, 124896, Note_on_c, 0, 76, 92
2, 124985, Note_on_c, 0, 88, 0
2, 124985, Note_on_c, 0, 76, 0
2, 124992, Note_on_c, 0, 89, 92
2, 125081, Note_on_c, 0, 89, 0
2, 125088, Note_on_c, 0, 86, 92
2, 125177, Note_on_c, 0, 86, 0
2, 125184, Note_on_c, 0, 84, 69
2, 125361, Note_on_c, 0, 84, 0
2, 125376, Note_on_c, 0, 88, 69
2, 125421, Note_on_c, 0, 88, 0
2, 125424, Note_on_c, 0, 86, 69
2, 125513, Note_on_c, 0, 86, 0
2, 125520, Note_on_c, 0, 84, 69
2, 125565, Note_on_c, 0, 84, 0
2, 125568, Note_on_c, 0, 84, 69
2, 125657, Note_on_c, 0, 84, 0
2, 125856, Note_on_c, 0, 76, 64
2, 125886, Note_on_c, 0, 76, 0
2, 125888, Note_on_c, 0, 80, 64
2, 125918, Note_on_c, 0, 80, 0
2, 125920, Note_on_c, 0, 81, 64
2, 125952, Note_on_c, 0, 81, 0
2, 125952, Note_on_c, 0, 79, 64
2, 125991, Note_on_c, 0, 79, 0
2, 126048, Note_on_c, 0, 79, 64
2, 126087, Note_on_c, 0, 79, 0
2, 126144, Note_on_c, 0, 79, 64
2, 126183, Note_on_c, 0, 79, 0
2, 126240, Note_on_c, 0, 72, 64
2, 126270, Note_on_c, 0, 72, 0
2, 126272, Note_on_c, 0, 76, 64
2, 126302, Note_on_c, 0, 76, 0
2, 126304, Note_on_c, 0, 77, 64
2, 126336, Note_on_c, 0, 77, 0
2, 126336, Note_on_c, 0, 76, 64
2, 126375, Note_on_c, 0, 76, 0
2, 126432, Note_on_c, 0, 76, 64
2, 126471, Note_on_c, 0, 76, 0
2, 126528, Note_on_c, 0, 76, 64
2, 126567, Note_on_c, 0, 76, 0
2, 126624, Note_on_c, 0, 69, 64
2, 126656, Note_on_c, 0, 69, 0
2, 126656, Note_on_c, 0, 73, 64
2, 126686, Note_on_c, 0, 73, 0
2, 126688, Note_on_c, 0, 74, 64
2, 126720, Note_on_c, 0, 74, 0
2, 126720, Note_on_c, 0, 72, 64
2, 126759, Note_on_c, 0, 72, 0
2, 126816, Note_on_c, 0, 72, 67
2, 126855, Note_on_c, 0, 72, 0
2, 126912, Note_on_c, 0, 72, 71
2, 126951, Note_on_c, 0, 72, 0
2, 127008, Note_on_c, 0, 76, 75
2, 127080, Note_on_c, 0, 76, 0
2, 127080, Note_on_c, 0, 72, 78
2, 127103, Note_on_c, 0, 72, 0
2, 127104, Note_on_c, 0, 69, 79
2, 127143, Note_on_c, 0, 69, 0
2, 127200, Note_on_c, 0, 77, 75
2, 127272, Note_on_c, 0, 77, 0
2, 127272, Note_on_c, 0, 74, 72
2, 127295, Note_on_c, 0, 74, 0
2, 127296, Note_on_c, 0, 71, 71
2, 127335, Note_on_c, 0, 71, 0
2, 127392, Note_on_c, 0, 74, 67
2, 127464, Note_on_c, 0, 74, 0
2, 127464, Note_on_c, 0, 71, 64
2, 127487, Note_on_c, 0, 71, 0
2, 127488, Note_on_c, 0, 72, 64
2, 127577, Note_on_c, 0, 72, 0
2, 127776, Note_on_c, 0, 76, 85
2, 127806, Note_on_c, 0, 76, 0
2, 127808, Note_on_c, 0, 80, 85
2, 127838, Note_on_c, 0, 80, 0
2, 127840, Note_on_c, 0, 81, 85
2, 127870, Note_on_c, 0, 81, 0
2, 127872, Note_on_c, 0, 74, 69
2, 127902, Note_on_c, 0, 74, 0
2, 127904, Note_on_c, 0, 78, 69
2, 127934, Note_on_c, 0, 78, 0
2, 127936, Note_on_c, 0, 79, 69
2, 127966, Note_on_c, 0, 79, 0
2, 127968, Note_on_c, 0, 74, 69
2, 127998, Note_on_c, 0, 74, 0
2, 128000, Note_on_c, 0, 78, 69
2, 128030, Note_on_c, 0, 78, 0
2, 128032, Note_on_c, 0, 79, 69
2, 128062, Note_on_c, 0, 79, 0
2, 128064, Note_on_c, 0, 74, 69
2, 128094, Note_on_c, 0, 74, 0
2, 128096, Note_on_c, 0, 78, 69
2, 128126, Note_on_c, 0, 78, 0
2, 128128, Note_on_c, 0, 79, 69
2, 128158, Note_on_c, 0, 79, 0
2, 128160, Note_on_c, 0, 76, 85
2, 128183, Note_on_c, 0, 76, 0
2, 128184, Note_on_c, 0, 78, 85
2, 128207, Note_on_c, 0, 78, 0
2, 128208, Note_on_c, 0, 80, 85
2, 128231, Note_on_c, 0, 80, 0
2, 128232, Note_on_c, 0, 81, 85
2, 128255, Note_on_c, 0, 81, 0
2, 128256, Note_on_c, 0, 74, 69
2, 128286, Note_on_c, 0, 74, 0
2, 128288, Note_on_c, 0, 78, 69
2, 128318, Note_on_c, 0, 78, 0
2, 128320, Note_on_c, 0, 79, 69
2, 128350, Note_on_c, 0, 79, 0
2, 128352, Note_on_c, 0, 74, 69
2, 128382, Note_on_c, 0, 74, 0
2, 128384, Note_on_c, 0, 78, 69
2, 128414, Note_on_c, 0, 78, 0
2, 128416, Note_on_c, 0, 79, 69
2, 128446, Note_on_c, 0, 79, 0
2, 128448, Note_on_c, 0, 74, 69
2, 128478, Note_on_c, 0, 74, 0
2, 128480, Note_on_c, 0, 78, 69
2, 128510, Note_on_c, 0, 78, 0
2, 128512, Note_on_c, 0, 79, 69
2, 128542, Note_on_c, 0, 79, 0
2, 128544, Note_on_c, 0, 72, 85
2, 128567, Note_on_c, 0, 72, 0
2, 128568, Note_on_c, 0, 74, 85
2, 128591, Note_on_c, 0, 74, 0
2, 128592, Note_on_c, 0, 76, 85
2, 128615, Note_on_c, 0, 76, 0
2, 128616, Note_on_c, 0, 77, 85
2, 128639, Note_on_c, 0, 77, 0
2, 128640, Note_on_c, 0, 71, 69
2, 128670, Note_on_c, 0, 71, 0
2, 128672, Note_on_c, 0, 75, 69
2, 128702, Note_on_c, 0, 75, 0
2, 128704, Note_on_c, 0, 76, 69
2, 128734, Note_on_c, 0, 76, 0
2, 128736, Note_on_c, 0, 71, 69
2, 128766, Note_on_c, 0, 71, 0
2, 128768, Note_on_c, 0, 75, 69
2, 128798, Note_on_c, 0, 75, 0
2, 128800, Note_on_c, 0, 76, 69
2, 128830, Note_on_c, 0, 76, 0
2, 128832, Note_on_c, 0, 71, 69
2, 128862, Note_on_c, 0, 71, 0
2, 128864, Note_on_c, 0, 75, 69
2, 128894, Note_on_c, 0, 75, 0
2, 128896, Note_on_c, 0, 76, 69
2, 128926, Note_on_c, 0, 76, 0
2, 128928, Note_on_c, 0, 72, 85
2, 128951, Note_on_c, 0, 72, 0
2, 128952, Note_on_c, 0, 74, 85
2, 128975, Note_on_c, 0, 74, 0
2, 128976, Note_on_c, 0, 76, 85
2, 128999, Note_on_c, 0, 76, 0
2, 129000, Note_on_c, 0, 77, 85
2, 129023, Note_on_c, 0, 77, 0
2, 129024, Note_on_c, 0, 71, 69
2, 129054, Note_on_c, 0, 71, 0
2, 129056, Note_on_c, 0, 75, 69
2, 129086, Note_on_c, 0, 75, 0
2, 129088, Note_on_c, 0, 76, 69
2, 129118, Note_on_c, 0, 76, 0
2, 129120, Note_on_c, 0, 71, 69
2, 129150, Note_on_c, 0, 71, 0
2, 129152, Note_on_c, 0, 75, 69
2, 129182, Note_on_c, 0, 75, 0
2, 129184, Note_on_c, 0, 76, 69
2, 129214, Note_on_c, 0, 76, 0
2, 129216, Note_on_c, 0, 71, 69
2, 129246, Note_on_c, 0, 71, 0
2, 129248, Note_on_c, 0, 75, 69
2, 129278, Note_on_c, 0, 75, 0
2, 129280, Note_on_c, 0, 76, 69
2, 129310, Note_on_c, 0, 76, 0
2, 129312, Note_on_c, 0, 69, 85
2, 129335, Note_on_c, 0, 69, 0
2, 129336, Note_on_c, 0, 71, 85
2, 129359, Note_on_c, 0, 71, 0
2, 129360, Note_on_c, 0, 73, 85
2, 129383, Note_on_c, 0, 73, 0
2, 129384, Note_on_c, 0, 74, 85
2, 129407, Note_on_c, 0, 74, 0
2, 129408, Note_on_c, 0, 67, 69
2, 129438, Note_on_c, 0, 67, 0
2, 129440, Note_on_c, 0, 71, 69
2, 129470, Note_on_c, 0, 71, 0
2, 129472, Note_on_c, 0, 72, 69
2, 129502, Note_on_c, 0, 72, 0
2, 129504, Note_on_c, 0, 67, 69
2, 129534, Note_on_c, 0, 67, 0
2, 129536, Note_on_c, 0, 71, 69
2, 129566, Note_on_c, 0, 71, 0
2, 129568, Note_on_c, 0, 72, 69
2, 129598, Note_on_c, 0, 72, 0
2, 129600, Note_on_c, 0, 67, 69
2, 129630, Note_on_c, 0, 67, 0
2, 129632, Note_on_c, 0, 71, 69
2, 129662, Note_on_c, 0, 71, 0
2, 129664, Note_on_c, 0, 72, 69
2, 129694, Note_on_c, 0, 72, 0
2, 129696, Note_on_c, 0, 69, 85
2, 129719, Note_on_c, 0, 69, 0
2, 129720, Note_on_c, 0, 71, 85
2, 129743, Note_on_c, 0, 71, 0
2, 129744, Note_on_c, 0, 73, 85
2, 129767, Note_on_c, 0, 73, 0
2, 129768, Note_on_c, 0, 74, 85
2, 129791, Note_on_c, 0, 74, 0
2, 129792, Note_on_c, 0, 67, 69
2, 129822, Note_on_c, 0, 67, 0
2, 129824, Note_on_c, 0, 71, 69
2, 129854, Note_on_c, 0, 71, 0
2, 129856, Note_on_c, 0, 72, 69
2, 129886, Note_on_c, 0, 72, 0
2, 129888, Note_on_c, 0, 67, 69
2, 129918, Note_on_c, 0, 67, 0
2, 129920, Note_on_c, 0, 71, 69
2, 129950, Note_on_c, 0, 71, 0
2, 129952, Note_on_c, 0, 72, 69
2, 129982, Note_on_c, 0, 72, 0
2, 129984, Note_on_c, 0, 67, 69
2, 130014, Note_on_c, 0, 67, 0
2, 130016, Note_on_c, 0, 71, 69
2, 130046, Note_on_c, 0, 71, 0
2, 130048, Note_on_c, 0, 72, 69
2, 130078, Note_on_c, 0, 72, 0
2, 130080, Note_on_c, 0, 69, 85
2, 130103, Note_on_c, 0, 69, 0
2, 130104, Note_on_c, 0, 71, 85
2, 130127, Note_on_c, 0, 71, 0
2, 130128, Note_on_c, 0, 73, 85
2, 130151, Note_on_c, 0, 73, 0
2, 130152, Note_on_c, 0, 74, 85
2, 130175, Note_on_c, 0, 74, 0
2, 130176, Note_on_c, 0, 67, 69
2, 130206, Note_on_c, 0, 67, 0
2, 130208, Note_on_c, 0, 71, 69
2, 130238, Note_on_c, 0, 71, 0
2, 130240, Note_on_c, 0, 72, 69
2, 130270, Note_on_c, 0, 72, 0
2, 130272, Note_on_c, 0, 67, 69
2, 130302, Note_on_c, 0, 67, 0
2, 130304, Note_on_c, 0, 73, 70
2, 130334, Note_on_c, 0, 73, 0
2, 130336, Note_on_c, 0, 74, 72
2, 130366, Note_on_c, 0, 74, 0
2, 130368, Note_on_c, 0, 67, 73
2, 130398, Note_on_c, 0, 67, 0
2, 130400, Note_on_c, 0, 75, 75
2, 130430, Note_on_c, 0, 75, 0
2, 130432, Note_on_c, 0, 76, 76
2, 130462, Note_on_c, 0, 76, 0
2, 130464, Note_on_c, 0, 67, 78
2, 130494, Note_on_c, 0, 67, 0
2, 130496, Note_on_c, 0, 76, 79
2, 130526, Note_on_c, 0, 76, 0
2, 130528, Note_on_c, 0, 77, 81
2, 130558, Note_on_c, 0, 77, 0
2, 130560, Note_on_c, 0, 67, 82
2, 130590, Note_on_c, 0, 67, 0
2, 130592, Note_on_c, 0, 78, 85
2, 130622, Note_on_c, 0, 78, 0
2, 130624, Note_on_c, 0, 79, 85
2, 130654, Note_on_c, 0, 79, 0
2, 130656, Note_on_c, 0, 77, 85
2, 130686, Note_on_c, 0, 77, 0
2, 130688, Note_on_c, 0, 76, 85
2, 130718, Note_on_c, 0, 76, 0
2, 130720, Note_on_c, 0, 74, 85
2, 130750, Note_on_c, 0, 74, 0
2, 130752, Note_on_c, 0, 72, 85
2, 130782, Note_on_c, 0, 72, 0
2, 130784, Note_on_c, 0, 71, 85
2, 130814, Note_on_c, 0, 71, 0
2, 130816, Note_on_c, 0, 69, 85
2, 130846, Note_on_c, 0, 69, 0
2, 130848, Note_on_c, 0, 67, 85
2, 130878, Note_on_c, 0, 67, 0
2, 130880, Note_on_c, 0, 65, 85
2, 130910, Note_on_c, 0, 65, 0
2, 130912, Note_on_c, 0, 64, 85
2, 130942, Note_on_c, 0, 64, 0
2, 130944, Note_on_c, 0, 62, 85
2, 130974, Note_on_c, 0, 62, 0
2, 130976, Note_on_c, 0, 69, 83
2, 131006, Note_on_c, 0, 69, 0
2, 131008, Note_on_c, 0, 67, 82
2, 131038, Note_on_c, 0, 67, 0
2, 131040, Note_on_c, 0, 65, 81
2, 131070, Note_on_c, 0, 65, 0
2, 131072, Note_on_c, 0, 64, 80
2, 131102, Note_on_c, 0, 64, 0
2, 131104, Note_on_c, 0, 62, 78
2, 131134, Note_on_c, 0, 62, 0
2, 131136, Note_on_c, 0, 60, 77
2, 131225, Note_on_c, 0, 60, 0
2, 131232, Note_on_c, 0, 59, 73
2, 131244, Note_on_c, 0, 59, 0
2, 131244, Note_on_c, 0, 60, 73
2, 131256, Note_on_c, 0, 60, 0
2, 131256, Note_on_c, 0, 59, 73
2, 131321, Note_on_c, 0, 59, 0
2, 131360, Note_on_c, 0, 78, 85
2, 131390, Note_on_c, 0, 78, 0
2, 131392, Note_on_c, 0, 79, 85
2, 131422, Note_on_c, 0, 79, 0
2, 131424, Note_on_c, 0, 77, 85
2, 131454, Note_on_c, 0, 77, 0
2, 131456, Note_on_c, 0, 76, 85
2, 131486, Note_on_c, 0, 76, 0
2, 131488, Note_on_c, 0, 74, 85
2, 131518, Note_on_c, 0, 74, 0
2, 131520, Note_on_c, 0, 72, 85
2, 131550, Note_on_c, 0, 72, 0
2, 131552, Note_on_c, 0, 71, 85
2, 131582, Note_on_c, 0, 71, 0
2, 131584, Note_on_c, 0, 69, 85
2, 131614, Note_on_c, 0, 69, 0
2, 131616, Note_on_c, 0, 67, 85
2, 131646, Note_on_c, 0, 67, 0
2, 131648, Note_on_c, 0, 65, 85
2, 131678, Note_on_c, 0, 65, 0
2, 131680, Note_on_c, 0, 64, 85
2, 131710, Note_on_c, 0, 64, 0
2, 131712, Note_on_c, 0, 62, 85
2, 131889, Note_on_c, 0, 62, 0
2, 131904, Note_on_c, 0, 72, 92
2, 131910, Note_on_c, 0, 75, 92
2, 131916, Note_on_c, 0, 78, 92
2, 131922, Note_on_c, 0, 81, 92
2, 132083, Note_on_c, 0, 81, 0
2, 132083, Note_on_c, 0, 78, 0
2, 132083, Note_on_c, 0, 75, 0
2, 132083, Note_on_c, 0, 72, 0
2, 132128, Note_on_c, 0, 69, 69
2, 132158, Note_on_c, 0, 69, 0
2, 132160, Note_on_c, 0, 81, 69
2, 132190, Note_on_c, 0, 81, 0
2, 132224, Note_on_c, 0, 66, 69
2, 132254, Note_on_c, 0, 66, 0
2, 132256, Note_on_c, 0, 78, 69
2, 132286, Note_on_c, 0, 78, 0
2, 132320, Note_on_c, 0, 63, 69
2, 132350, Note_on_c, 0, 63, 0
2, 132352, Note_on_c, 0, 75, 69
2, 132382, Note_on_c, 0, 75, 0
2, 132416, Note_on_c, 0, 60, 69
2, 132446, Note_on_c, 0, 60, 0
2, 132448, Note_on_c, 0, 72, 69
2, 132478, Note_on_c, 0, 72, 0
2, 132512, Note_on_c, 0, 57, 69
2, 132542, Note_on_c, 0, 57, 0
2, 132544, Note_on_c, 0, 69, 69
2, 132574, Note_on_c, 0, 69, 0
2, 132608, Note_on_c, 0, 54, 69
2, 132638, Note_on_c, 0, 54, 0
2, 132640, Note_on_c, 0, 66, 69
2, 132670, Note_on_c, 0, 66, 0
2, 133152, Note_on_c, 0, 72, 69
2, 133175, Note_on_c, 0, 72, 0
2, 133176, Note_on_c, 0, 74, 69
2, 133199, Note_on_c, 0, 74, 0
2, 133200, Note_on_c, 0, 76, 69
2, 133223, Note_on_c, 0, 76, 0
2, 133224, Note_on_c, 0, 77, 69
2, 133247, Note_on_c, 0, 77, 0
2, 133248, Note_on_c, 0, 79, 69
2, 133287, Note_on_c, 0, 79, 0
2, 133344, Note_on_c, 0, 79, 69
2, 133383, Note_on_c, 0, 79, 0
2, 133440, Note_on_c, 0, 79, 69
2, 133479, Note_on_c, 0, 79, 0
2, 133536, Note_on_c, 0, 83, 85
2, 133548, Note_on_c, 0, 83, 0
2, 133548, Note_on_c, 0, 84, 85
2, 133575, Note_on_c, 0, 84, 0
2, 133632, Note_on_c, 0, 79, 79
2, 133671, Note_on_c, 0, 79, 0
2, 133728, Note_on_c, 0, 79, 79
2, 133767, Note_on_c, 0, 79, 0
2, 133824, Note_on_c, 0, 79, 79
2, 133844, Note_on_c, 0, 79, 0
2, 133872, Note_on_c, 0, 81, 79
2, 133895, Note_on_c, 0, 81, 0
2, 133896, Note_on_c, 0, 79, 79
2, 133919, Note_on_c, 0, 79, 0
2, 133920, Note_on_c, 0, 77, 79
2, 133943, Note_on_c, 0, 77, 0
2, 133944, Note_on_c, 0, 76, 79
2, 133967, Note_on_c, 0, 76, 0
2, 133968, Note_on_c, 0, 74, 79
2, 133991, Note_on_c, 0, 74, 0
2, 133992, Note_on_c, 0, 72, 79
2, 134015, Note_on_c, 0, 72, 0
2, 134016, Note_on_c, 0, 71, 79
2, 134083, Note_on_c, 0, 71, 0
2, 134088, Note_on_c, 0, 79, 80
2, 134111, Note_on_c, 0, 79, 0
2, 134112, Note_on_c, 0, 81, 80
2, 134135, Note_on_c, 0, 81, 0
2, 134136, Note_on_c, 0, 79, 80
2, 134159, Note_on_c, 0, 79, 0
2, 134160, Note_on_c, 0, 78, 81
2, 134183, Note_on_c, 0, 78, 0
2, 134184, Note_on_c, 0, 79, 81
2, 134207, Note_on_c, 0, 79, 0
2, 134208, Note_on_c, 0, 72, 82
2, 134275, Note_on_c, 0, 72, 0
2, 134280, Note_on_c, 0, 79, 83
2, 134303, Note_on_c, 0, 79, 0
2, 134304, Note_on_c, 0, 81, 83
2, 134327, Note_on_c, 0, 81, 0
2, 134328, Note_on_c, 0, 79, 83
2, 134351, Note_on_c, 0, 79, 0
2, 134352, Note_on_c, 0, 78, 84
2, 134375, Note_on_c, 0, 78, 0
2, 134376, Note_on_c, 0, 79, 84
2, 134399, Note_on_c, 0, 79, 0
2, 134400, Note_on_c, 0, 74, 85
2, 134489, Note_on_c, 0, 74, 0
2, 134688, Note_on_c, 0, 67, 79
2, 134755, Note_on_c, 0, 67, 0
2, 134760, Note_on_c, 0, 74, 79
2, 134783, Note_on_c, 0, 74, 0
2, 134784, Note_on_c, 0, 77, 79
2, 134823, Note_on_c, 0, 77, 0
2, 134880, Note_on_c, 0, 77, 79
2, 134952, Note_on_c, 0, 77, 0
2, 134952, Note_on_c, 0, 79, 79
2, 134975, Note_on_c, 0, 79, 0
2, 134976, Note_on_c, 0, 76, 79
2, 135015, Note_on_c, 0, 76, 0
2, 135072, Note_on_c, 0, 76, 79
2, 135144, Note_on_c, 0, 76, 0
2, 135144, Note_on_c, 0, 77, 79
2, 135167, Note_on_c, 0, 77, 0
2, 135168, Note_on_c, 0, 74, 79
2, 135188, Note_on_c, 0, 74, 0
2, 135216, Note_on_c, 0, 76, 79
2, 135231, Note_on_c, 0, 76, 0
2, 135232, Note_on_c, 0, 74, 79
2, 135247, Note_on_c, 0, 74, 0
2, 135248, Note_on_c, 0, 72, 79
2, 135263, Note_on_c, 0, 72, 0
2, 135264, Note_on_c, 0, 74, 79
2, 135336, Note_on_c, 0, 74, 0
2, 135336, Note_on_c, 0, 76, 80
2, 135359, Note_on_c, 0, 76, 0
2, 135360, Note_on_c, 0, 72, 80
2, 135427, Note_on_c, 0, 72, 0
2, 135432, Note_on_c, 0, 74, 80
2, 135455, Note_on_c, 0, 74, 0
2, 135456, Note_on_c, 0, 76, 81
2, 135523, Note_on_c, 0, 76, 0
2, 135528, Note_on_c, 0, 72, 81
2, 135551, Note_on_c, 0, 72, 0
2, 135552, Note_on_c, 0, 74, 81
2, 135591, Note_on_c, 0, 74, 0
2, 135648, Note_on_c, 0, 74, 82
2, 135687, Note_on_c, 0, 74, 0
2, 135744, Note_on_c, 0, 79, 99
2, 135863, Note_on_c, 0, 79, 0
2, 135864, Note_on_c, 0, 77, 84
2, 135887, Note_on_c, 0, 77, 0
2, 135888, Note_on_c, 0, 76, 84
2, 135911, Note_on_c, 0, 76, 0
2, 135912, Note_on_c, 0, 74, 84
2, 135935, Note_on_c, 0, 74, 0
2, 135936, Note_on_c, 0, 72, 85
2, 136025, Note_on_c, 0, 72, 0
2, 136224, Note_on_c, 0, 79, 92
2, 136296, Note_on_c, 0, 79, 0
2, 136296, Note_on_c, 0, 83, 92
2, 136319, Note_on_c, 0, 83, 0
2, 136320, Note_on_c, 0, 84, 92
2, 136359, Note_on_c, 0, 84, 0
2, 136416, Note_on_c, 0, 84, 92
2, 136455, Note_on_c, 0, 84, 0
2, 136512, Note_on_c, 0, 84, 92
2, 136551, Note_on_c, 0, 84, 0
2, 136608, Note_on_c, 0, 88, 92
2, 136632, Note_on_c, 0, 88, 0
2, 136632, Note_on_c, 0, 86, 92
2, 136656, Note_on_c, 0, 86, 0
2, 136656, Note_on_c, 0, 84, 92
2, 136680, Note_on_c, 0, 84, 0
2, 136680, Note_on_c, 0, 86, 92
2, 136704, Note_on_c, 0, 86, 0
2, 136704, Note_on_c, 0, 88, 92
2, 136743, Note_on_c, 0, 88, 0
2, 136800, Note_on_c, 0, 84, 92
2, 136839, Note_on_c, 0, 84, 0
2, 136896, Note_on_c, 0, 84, 92
2, 136935, Note_on_c, 0, 84, 0
2, 136992, Note_on_c, 0, 79, 92
2, 137064, Note_on_c, 0, 79, 0
2, 137064, Note_on_c, 0, 83, 92
2, 137087, Note_on_c, 0, 83, 0
2, 137088, Note_on_c, 0, 84, 92
2, 137127, Note_on_c, 0, 84, 0
2, 137184, Note_on_c, 0, 84, 92
2, 137223, Note_on_c, 0, 84, 0
2, 137280, Note_on_c, 0, 84, 92
2, 137319, Note_on_c, 0, 84, 0
2, 137376, Note_on_c, 0, 88, 92
2, 137388, Note_on_c, 0, 88, 0
2, 137388, Note_on_c, 0, 86, 92
2, 137400, Note_on_c, 0, 86, 0
2, 137400, Note_on_c, 0, 84, 92
2, 137412, Note_on_c, 0, 84, 0
2, 137412, Note_on_c, 0, 86, 92
2, 137443, Note_on_c, 0, 86, 0
2, 137448, Note_on_c, 0, 88, 92
2, 137471, Note_on_c, 0, 88, 0
2, 137472, Note_on_c, 0, 84, 92
2, 137561, Note_on_c, 0, 84, 0
2, 137760, Note_on_c, 0, 79, 92
2, 137832, Note_on_c, 0, 79, 0
2, 137832, Note_on_c, 0, 83, 92
2, 137855, Note_on_c, 0, 83, 0
2, 137856, Note_on_c, 0, 84, 92
2, 137895, Note_on_c, 0, 84, 0
2, 137952, Note_on_c, 0, 84, 92
2, 137991, Note_on_c, 0, 84, 0
2, 138048, Note_on_c, 0, 84, 92
2, 138087, Note_on_c, 0, 84, 0
2, 138144, Note_on_c, 0, 88, 92
2, 138168, Note_on_c, 0, 88, 0
2, 138168, Note_on_c, 0, 86, 92
2, 138192, Note_on_c, 0, 86, 0
2, 138192, Note_on_c, 0, 84, 92
2, 138216, Note_on_c, 0, 84, 0
2, 138216, Note_on_c, 0, 86, 92
2, 138240, Note_on_c, 0, 86, 0
2, 138240, Note_on_c, 0, 88, 92
2, 138279, Note_on_c, 0, 88, 0
2, 138336, Note_on_c, 0, 84, 92
2, 138375, Note_on_c, 0, 84, 0
2, 138432, Note_on_c, 0, 84, 92
2, 138471, Note_on_c, 0, 84, 0
2, 138528, Note_on_c, 0, 79, 92
2, 138600, Note_on_c, 0, 79, 0
2, 138600, Note_on_c, 0, 83, 92
2, 138623, Note_on_c, 0, 83, 0
2, 138624, Note_on_c, 0, 84, 92
2, 138663, Note_on_c, 0, 84, 0
2, 138720, Note_on_c, 0, 84, 92
2, 138759, Note_on_c, 0, 84, 0
2, 138816, Note_on_c, 0, 84, 92
2, 138855, Note_on_c, 0, 84, 0
2, 138912, Note_on_c, 0, 88, 92
2, 138924, Note_on_c, 0, 88, 0
2, 138924, Note_on_c, 0, 86, 92
2, 138936, Note_on_c, 0, 86, 0
2, 138936, Note_on_c, 0, 84, 92
2, 138948, Note_on_c, 0, 84, 0
2, 138948, Note_on_c, 0, 86, 92
2, 138979, Note_on_c, 0, 86, 0
2, 138984, Note_on_c, 0, 88, 92
2, 139007, Note_on_c, 0, 88, 0
2, 139008, Note_on_c, 0, 84, 92
2, 139097, Note_on_c, 0, 84, 0
2, 139200, Note_on_c, 0, 79, 92
2, 139200, Note_on_c, 0, 76, 92
2, 139289, Note_on_c, 0, 79, 0
2, 139289, Note_on_c, 0, 76, 0
2, 139392, Note_on_c, 0, 76, 92
2, 139392, Note_on_c, 0, 72, 92
2, 139481, Note_on_c, 0, 76, 0
2, 139481, Note_on_c, 0, 72, 0
2, 139584, Note_on_c, 0, 55, 92
2, 139584, Note_on_c, 0, 52, 92
2, 139673, Note_on_c, 0, 55, 0
2, 139673, Note_on_c, 0, 52, 0
2, 139776, Note_on_c, 0, 52, 85
2, 139776, Note_on_c, 0, 48, 85
2, 139909, Note_on_c, 0, 52, 0
2, 139909, Note_on_c, 0, 48, 0
2, 140160, End_track
3, 0, Start_track
3, 0, Program_c, 0, 0
3, 0, Control_c, 0, 7, 127
3, 0, Control_c, 0, 10, 64
3, 16896, Note_on_c, 0, 74, 64
3, 17073, Note_on_c, 0, 74, 0
3, 17088, Note_on_c, 0, 78, 64
3, 17265, Note_on_c, 0, 78, 0
3, 42624, Note_on_c, 0, 74, 69
3, 42801, Note_on_c, 0, 74, 0
3, 42816, Note_on_c, 0, 78, 69
3, 42993, Note_on_c, 0, 78, 0
3, 52512, Note_on_c, 0, 72, 69
3, 52601, Note_on_c, 0, 72, 0
3, 52608, Note_on_c, 0, 71, 69
3, 52647, Note_on_c, 0, 71, 0
3, 52704, Note_on_c, 0, 71, 69
3, 52793, Note_on_c, 0, 71, 0
3, 52800, Note_on_c, 0, 69, 69
3, 52839, Note_on_c, 0, 69, 0
3, 52896, Note_on_c, 0, 69, 69
3, 52985, Note_on_c, 0, 69, 0
3, 52992, Note_on_c, 0, 68, 69
3, 53553, Note_on_c, 0, 68, 0
3, 80640, Note_on_c, 0, 74, 69
3, 80729, Note_on_c, 0, 74, 0
3, 80736, Note_on_c, 0, 76, 69
3, 80825, Note_on_c, 0, 76, 0
3, 80832, Note_on_c, 0, 77, 69
3, 81009, Note_on_c, 0, 77, 0
3, 81024, Note_on_c, 0, 79, 69
3, 81201, Note_on_c, 0, 79, 0
3, 81216, Note_on_c, 0, 83, 69
3, 81393, Note_on_c, 0, 83, 0
3, 87552, Note_on_c, 0, 62, 69
3, 87729, Note_on_c, 0, 62, 0
3, 91584, Note_on_c, 0, 71, 69
3, 91761, Note_on_c, 0, 71, 0
3, 95232, Note_on_c, 0, 76, 69
3, 95321, Note_on_c, 0, 76, 0
3, 95616, Note_on_c, 0, 52, 69
3, 95616, Note_on_c, 0, 48, 69
3, 95705, Note_on_c, 0, 52, 0
3, 95705, Note_on_c, 0, 48, 0
3, 96672, Note_on_c, 0, 72, 69
3, 96761, Note_on_c, 0, 72, 0
3, 96768, Note_on_c, 0, 71, 69
3, 96807, Note_on_c, 0, 71, 0
3, 96864, Note_on_c, 0, 71, 69
3, 96953, Note_on_c, 0, 71, 0
3, 96960, Note_on_c, 0, 69, 69
3, 96999, Note_on_c, 0, 69, 0
3, 97056, Note_on_c, 0, 69, 69
3, 97145, Note_on_c, 0, 69, 0
3, 97152, Note_on_c, 0, 68, 69
3, 97713, Note_on_c, 0, 68, 0
3, 124800, Note_on_c, 0, 74, 69
3, 124889, Note_on_c, 0, 74, 0
3, 124896, Note_on_c, 0, 76, 69
3, 124985, Note_on_c, 0, 76, 0
3, 124992, Note_on_c, 0, 77, 69
3, 125169, Note_on_c, 0, 77, 0
3, 125184, Note_on_c, 0, 79, 69
3, 125361, Note_on_c, 0, 79, 0
3, 125376, Note_on_c, 0, 83, 69
3, 125553, Note_on_c, 0, 83, 0
3, 131712, Note_on_c, 0, 62, 69
3, 131889, Note_on_c, 0, 62, 0
3, 135744, Note_on_c, 0, 71, 69
3, 135921, Note_on_c, 0, 71, 0
3, 139392, Note_on_c, 0, 76, 69
3, 139481, Note_on_c, 0, 76, 0
3, 140160, End_track
4, 0, Start_track
4, 0, Program_c, 1, 0
4, 0, Control_c, 1, 7, 127
4, 0, Control_c, 1, 10, 64
4, 384, Note_on_c, 1, 64, 74
4, 384, Note_on_c, 1, 60, 74
4, 423, Note_on_c, 1, 64, 0
4, 423, Note_on_c, 1, 60, 0
4, 768, Note_on_c, 1, 64, 74
4, 768, Note_on_c, 1, 60, 74
4, 807, Note_on_c, 1, 64, 0
4, 807, Note_on_c, 1, 60, 0
4, 1152, Note_on_c, 1, 65, 74
4, 1152, Note_on_c, 1, 62, 74
4, 1152, Note_on_c, 1, 55, 74
4, 1191, Note_on_c, 1, 65, 0
4, 1191, Note_on_c, 1, 62, 0
4, 1191, Note_on_c, 1, 55, 0
4, 1248, Note_on_c, 1, 65, 75
4, 1248, Note_on_c, 1, 62, 75
4, 1248, Note_on_c, 1, 55, 75
4, 1287, Note_on_c, 1, 65, 0
4, 1287, Note_on_c, 1, 62, 0
4, 1287, Note_on_c, 1, 55, 0
4, 1344, Note_on_c, 1, 64, 76
4, 1344, Note_on_c, 1, 60, 76
4, 1344, Note_on_c, 1, 55, 76
4, 1383, Note_on_c, 1, 64, 0
4, 1383, Note_on_c, 1, 60, 0
4, 1383, Note_on_c, 1, 55, 0
4, 1440, Note_on_c, 1, 64, 77
4, 1440, Note_on_c, 1, 60, 77
4, 1440, Note_on_c, 1, 55, 77
4, 1479, Note_on_c, 1, 64, 0
4, 1479, Note_on_c, 1, 60, 0
4, 1479, Note_on_c, 1, 55, 0
4, 1536, Note_on_c, 1, 62, 79
4, 1536, Note_on_c, 1, 59, 79
4, 1536, Note_on_c, 1, 55, 79
4, 1625, Note_on_c, 1, 62, 0
4, 1625, Note_on_c, 1, 59, 0
4, 1625, Note_on_c, 1, 55, 0
4, 1920, Note_on_c, 1, 67, 74
4, 1920, Note_on_c, 1, 59, 74
4, 1959, Note_on_c, 1, 67, 0
4, 1959, Note_on_c, 1, 59, 0
4, 2112, Note_on_c, 1, 67, 74
4, 2112, Note_on_c, 1, 60, 74
4, 2151, Note_on_c, 1, 67, 0
4, 2151, Note_on_c, 1, 60, 0
4, 2304, Note_on_c, 1, 67, 74
4, 2304, Note_on_c, 1, 65, 74
4, 2343, Note_on_c, 1, 67, 0
4, 2343, Note_on_c, 1, 65, 0
4, 2496, Note_on_c, 1, 67, 74
4, 2496, Note_on_c, 1, 64, 74
4, 2535, Note_on_c, 1, 67, 0
4, 2535, Note_on_c, 1, 64, 0
4, 2688, Note_on_c, 1, 65, 74
4, 2688, Note_on_c, 1, 53, 74
4, 2727, Note_on_c, 1, 65, 0
4, 2727, Note_on_c, 1, 53, 0
4, 2784, Note_on_c, 1, 65, 74
4, 2784, Note_on_c, 1, 53, 74
4, 2823, Note_on_c, 1, 65, 0
4, 2823, Note_on_c, 1, 53, 0
4, 2880, Note_on_c, 1, 62, 74
4, 2880, Note_on_c, 1, 55, 74
4, 2919, Note_on_c, 1, 62, 0
4, 2919, Note_on_c, 1, 55, 0
4, 2976, Note_on_c, 1, 62, 74
4, 2976, Note_on_c, 1, 55, 74
4, 3015, Note_on_c, 1, 62, 0
4, 3015, Note_on_c, 1, 55, 0
4, 3072, Note_on_c, 1, 60, 69
4, 3102, Note_on_c, 1, 60, 0
4, 3104, Note_on_c, 1, 64, 69
4, 3134, Note_on_c, 1, 64, 0
4, 3136, Note_on_c, 1, 67, 69
4, 3166, Note_on_c, 1, 67, 0
4, 3168, Note_on_c, 1, 60, 69
4, 3198, Note_on_c, 1, 60, 0
4, 3200, Note_on_c, 1, 64, 69
4, 3230, Note_on_c, 1, 64, 0
4, 3232, Note_on_c, 1, 67, 69
4, 3262, Note_on_c, 1, 67, 0
4, 3264, Note_on_c, 1, 60, 69
4, 3294, Note_on_c, 1, 60, 0
4, 3296, Note_on_c, 1, 64, 69
4, 3326, Note_on_c, 1, 64, 0
4, 3328, Note_on_c, 1, 67, 69
4, 3358, Note_on_c, 1, 67, 0
4, 3360, Note_on_c, 1, 60, 69
4, 3390, Note_on_c, 1, 60, 0
4, 3392, Note_on_c, 1, 64, 69
4, 3422, Note_on_c, 1, 64, 0
4, 3424, Note_on_c, 1, 67, 69
4, 3454, Note_on_c, 1, 67, 0
4, 3456, Note_on_c, 1, 60, 69
4, 3486, Note_on_c, 1, 60, 0
4, 3488, Note_on_c, 1, 64, 69
4, 3518, Note_on_c, 1, 64, 0
4, 3520, Note_on_c, 1, 67, 69
4, 3550, Note_on_c, 1, 67, 0
4, 3552, Note_on_c, 1, 60, 69
4, 3582, Note_on_c, 1, 60, 0
4, 3584, Note_on_c, 1, 64, 69
4, 3614, Note_on_c, 1, 64, 0
4, 3616, Note_on_c, 1, 67, 69
4, 3646, Note_on_c, 1, 67, 0
4, 3648, Note_on_c, 1, 60, 69
4, 3678, Note_on_c, 1, 60, 0
4, 3680, Note_on_c, 1, 64, 69
4, 3710, Note_on_c, 1, 64, 0
4, 3712, Note_on_c, 1, 67, 69
4, 3742, Note_on_c, 1, 67, 0
4, 3744, Note_on_c, 1, 60, 69
4, 3774, Note_on_c, 1, 60, 0
4, 3776, Note_on_c, 1, 64, 69
4, 3806, Note_on_c, 1, 64, 0
4, 3808, Note_on_c, 1, 67, 69
4, 3838, Note_on_c, 1, 67, 0
4, 3840, Note_on_c, 1, 60, 69
4, 3870, Note_on_c, 1, 60, 0
4, 3872, Note_on_c, 1, 64, 69
4, 3902, Note_on_c, 1, 64, 0
4, 3904, Note_on_c, 1, 67, 69
4, 3934, Note_on_c, 1, 67, 0
4, 3936, Note_on_c, 1, 60, 69
4, 3966, Note_on_c, 1, 60, 0
4, 3968, Note_on_c, 1, 64, 69
4, 3998, Note_on_c, 1, 64, 0
4, 4000, Note_on_c, 1, 67, 69
4, 4030, Note_on_c, 1, 67, 0
4, 4032, Note_on_c, 1, 60, 69
4, 4062, Note_on_c, 1, 60, 0
4, 4064, Note_on_c, 1, 64, 69
4, 4094, Note_on_c, 1, 64, 0
4, 4096, Note_on_c, 1, 67, 69
4, 4126, Note_on_c, 1, 67, 0
4, 4128, Note_on_c, 1, 60, 69
4, 4158, Note_on_c, 1, 60, 0
4, 4160, Note_on_c, 1, 64, 69
4, 4190, Note_on_c, 1, 64, 0
4, 4192, Note_on_c, 1, 67, 69
4, 4222, Note_on_c, 1, 67, 0
4, 4224, Note_on_c, 1, 62, 69
4, 4254, Note_on_c, 1, 62, 0
4, 4256, Note_on_c, 1, 65, 69
4, 4286, Note_on_c, 1, 65, 0
4, 4288, Note_on_c, 1, 67, 69
4, 4318, Note_on_c, 1, 67, 0
4, 4320, Note_on_c, 1, 62, 70
4, 4350, Note_on_c, 1, 62, 0
4, 4352, Note_on_c, 1, 65, 70
4, 4382, Note_on_c, 1, 65, 0
4, 4384, Note_on_c, 1, 67, 70
4, 4414, Note_on_c, 1, 67, 0
4, 4416, Note_on_c, 1, 60, 71
4, 4446, Note_on_c, 1, 60, 0
4, 4448, Note_on_c, 1, 64, 71
4, 4478, Note_on_c, 1, 64, 0
4, 4480, Note_on_c, 1, 67, 72
4, 4510, Note_on_c, 1, 67, 0
4, 4512, Note_on_c, 1, 60, 72
4, 4542, Note_on_c, 1, 60, 0
4, 4544, Note_on_c, 1, 64, 72
4, 4574, Note_on_c, 1, 64, 0
4, 4576, Note_on_c, 1, 67, 73
4, 4606, Note_on_c, 1, 67, 0
4, 4608, Note_on_c, 1, 59, 74
4, 4697, Note_on_c, 1, 59, 0
4, 4992, Note_on_c, 1, 55, 69
4, 5022, Note_on_c, 1, 55, 0
4, 5024, Note_on_c, 1, 59, 69
4, 5054, Note_on_c, 1, 59, 0
4, 5056, Note_on_c, 1, 62, 69
4, 5086, Note_on_c, 1, 62, 0
4, 5088, Note_on_c, 1, 55, 69
4, 5118, Note_on_c, 1, 55, 0
4, 5120, Note_on_c, 1, 59, 69
4, 5150, Note_on_c, 1, 59, 0
4, 5152, Note_on_c, 1, 62, 69
4, 5182, Note_on_c, 1, 62, 0
4, 5184, Note_on_c, 1, 55, 69
4, 5214, Note_on_c, 1, 55, 0
4, 5216, Note_on_c, 1, 60, 69
4, 5246, Note_on_c, 1, 60, 0
4, 5248, Note_on_c, 1, 64, 69
4, 5278, Note_on_c, 1, 64, 0
4, 5280, Note_on_c, 1, 55, 69
4, 5310, Note_on_c, 1, 55, 0
4, 5312, Note_on_c, 1, 60, 69
4, 5342, Note_on_c, 1, 60, 0
4, 5344, Note_on_c, 1, 64, 69
4, 5374, Note_on_c, 1, 64, 0
4, 5376, Note_on_c, 1, 55, 69
4, 5406, Note_on_c, 1, 55, 0
4, 5408, Note_on_c, 1, 62, 69
4, 5438, Note_on_c, 1, 62, 0
4, 5440, Note_on_c, 1, 65, 69
4, 5470, Note_on_c, 1, 65, 0
4, 5472, Note_on_c, 1, 55, 69
4, 5502, Note_on_c, 1, 55, 0
4, 5504, Note_on_c, 1, 62, 69
4, 5534, Note_on_c, 1, 62, 0
4, 5536, Note_on_c, 1, 65, 69
4, 5566, Note_on_c, 1, 65, 0
4, 5568, Note_on_c, 1, 57, 69
4, 5598, Note_on_c, 1, 57, 0
4, 5600, Note_on_c, 1, 60, 69
4, 5630, Note_on_c, 1, 60, 0
4, 5632, Note_on_c, 1, 64, 69
4, 5662, Note_on_c, 1, 64, 0
4, 5664, Note_on_c, 1, 57, 69
4, 5694, Note_on_c, 1, 57, 0
4, 5696, Note_on_c, 1, 60, 69
4, 5726, Note_on_c, 1, 60, 0
4, 5728, Note_on_c, 1, 64, 69
4, 5758, Note_on_c, 1, 64, 0
4, 5760, Note_on_c, 1, 53, 69
4, 5790, Note_on_c, 1, 53, 0
4, 5792, Note_on_c, 1, 57, 69
4, 5822, Note_on_c, 1, 57, 0
4, 5824, Note_on_c, 1, 62, 69
4, 5854, Note_on_c, 1, 62, 0
4, 5856, Note_on_c, 1, 53, 69
4, 5886, Note_on_c, 1, 53, 0
4, 5888, Note_on_c, 1, 57, 69
4, 5918, Note_on_c, 1, 57, 0
4, 5920, Note_on_c, 1, 62, 69
4, 5950, Note_on_c, 1, 62, 0
4, 5952, Note_on_c, 1, 55, 69
4, 5982, Note_on_c, 1, 55, 0
4, 5984, Note_on_c, 1, 62, 69
4, 6014, Note_on_c, 1, 62, 0
4, 6016, Note_on_c, 1, 65, 69
4, 6046, Note_on_c, 1, 65, 0
4, 6048, Note_on_c, 1, 55, 69
4, 6078, Note_on_c, 1, 55, 0
4, 6080, Note_on_c, 1, 62, 69
4, 6110, Note_on_c, 1, 62, 0
4, 6112, Note_on_c, 1, 65, 69
4, 6142, Note_on_c, 1, 65, 0
4, 6144, Note_on_c, 1, 64, 74
4, 6321, Note_on_c, 1, 64, 0
4, 6336, Note_on_c, 1, 70, 74
4, 6513, Note_on_c, 1, 70, 0
4, 6528, Note_on_c, 1, 69, 74
4, 6705, Note_on_c, 1, 69, 0
4, 6720, Note_on_c, 1, 65, 74
4, 6897, Note_on_c, 1, 65, 0
4, 6912, Note_on_c, 1, 64, 74
4, 7089, Note_on_c, 1, 64, 0
4, 7104, Note_on_c, 1, 70, 74
4, 7281, Note_on_c, 1, 70, 0
4, 7296, Note_on_c, 1, 69, 74
4, 7473, Note_on_c, 1, 69, 0
4, 7488, Note_on_c, 1, 65, 74
4, 7665, Note_on_c, 1, 65, 0
4, 7680, Note_on_c, 1, 60, 69
4, 7710, Note_on_c, 1, 60, 0
4, 7712, Note_on_c, 1, 64, 69
4, 7742, Note_on_c, 1, 64, 0
4, 7744, Note_on_c, 1, 67, 69
4, 7774, Note_on_c, 1, 67, 0
4, 7776, Note_on_c, 1, 60, 69
4, 7806, Note_on_c, 1, 60, 0
4, 7808, Note_on_c, 1, 64, 69
4, 7838, Note_on_c, 1, 64, 0
4, 7840, Note_on_c, 1, 67, 69
4, 7870, Note_on_c, 1, 67, 0
4, 7872, Note_on_c, 1, 60, 69
4, 7902, Note_on_c, 1, 60, 0
4, 7904, Note_on_c, 1, 64, 69
4, 7934, Note_on_c, 1, 64, 0
4, 7936, Note_on_c, 1, 67, 69
4, 7966, Note_on_c, 1, 67, 0
4, 7968, Note_on_c, 1, 59, 69
4, 7998, Note_on_c, 1, 59, 0
4, 8000, Note_on_c, 1, 62, 69
4, 8030, Note_on_c, 1, 62, 0
4, 8032, Note_on_c, 1, 67, 69
4, 8062, Note_on_c, 1, 67, 0
4, 8064, Note_on_c, 1, 60, 69
4, 8094, Note_on_c, 1, 60, 0
4, 8096, Note_on_c, 1, 64, 69
4, 8126, Note_on_c, 1, 64, 0
4, 8128, Note_on_c, 1, 67, 69
4, 8158, Note_on_c, 1, 67, 0
4, 8160, Note_on_c, 1, 60, 69
4, 8190, Note_on_c, 1, 60, 0
4, 8192, Note_on_c, 1, 64, 69
4, 8222, Note_on_c, 1, 64, 0
4, 8224, Note_on_c, 1, 67, 69
4, 8254, Note_on_c, 1, 67, 0
4, 8256, Note_on_c, 1, 60, 69
4, 8286, Note_on_c, 1, 60, 0
4, 8288, Note_on_c, 1, 64, 69
4, 8318, Note_on_c, 1, 64, 0
4, 8320, Note_on_c, 1, 67, 69
4, 8350, Note_on_c, 1, 67, 0
4, 8352, Note_on_c, 1, 59, 69
4, 8382, Note_on_c, 1, 59, 0
4, 8384, Note_on_c, 1, 62, 69
4, 8414, Note_on_c, 1, 62, 0
4, 8416, Note_on_c, 1, 67, 69
4, 8446, Note_on_c, 1, 67, 0
4, 8448, Note_on_c, 1, 60, 69
4, 8478, Note_on_c, 1, 60, 0
4, 8480, Note_on_c, 1, 64, 69
4, 8510, Note_on_c, 1, 64, 0
4, 8512, Note_on_c, 1, 67, 69
4, 8542, Note_on_c, 1, 67, 0
4, 8544, Note_on_c, 1, 60, 69
4, 8574, Note_on_c, 1, 60, 0
4, 8576, Note_on_c, 1, 64, 69
4, 8606, Note_on_c, 1, 64, 0
4, 8608, Note_on_c, 1, 67, 69
4, 8638, Note_on_c, 1, 67, 0
4, 8640, Note_on_c, 1, 60, 69
4, 8670, Note_on_c, 1, 60, 0
4, 8672, Note_on_c, 1, 64, 69
4, 8702, Note_on_c, 1, 64, 0
4, 8704, Note_on_c, 1, 67, 69
4, 8734, Note_on_c, 1, 67, 0
4, 8736, Note_on_c, 1, 59, 69
4, 8766, Note_on_c, 1, 59, 0
4, 8768, Note_on_c, 1, 62, 69
4, 8798, Note_on_c, 1, 62, 0
4, 8800, Note_on_c, 1, 67, 69
4, 8830, Note_on_c, 1, 67, 0
4, 8832, Note_on_c, 1, 60, 69
4, 8862, Note_on_c, 1, 60, 0
4, 8864, Note_on_c, 1, 64, 69
4, 8894, Note_on_c, 1, 64, 0
4, 8896, Note_on_c, 1, 67, 70
4, 8926, Note_on_c, 1, 67, 0
4, 8928, Note_on_c, 1, 60, 70
4, 8958, Note_on_c, 1, 60, 0
4, 8960, Note_on_c, 1, 64, 71
4, 8990, Note_on_c, 1, 64, 0
4, 8992, Note_on_c, 1, 67, 71
4, 9022, Note_on_c, 1, 67, 0
4, 9024, Note_on_c, 1, 60, 72
4, 9054, Note_on_c, 1, 60, 0
4, 9056, Note_on_c, 1, 64, 72
4, 9086, Note_on_c, 1, 64, 0
4, 9088, Note_on_c, 1, 67, 73
4, 9118, Note_on_c, 1, 67, 0
4, 9120, Note_on_c, 1, 60, 74
4, 9150, Note_on_c, 1, 60, 0
4, 9152, Note_on_c, 1, 62, 74
4, 9182, Note_on_c, 1, 62, 0
4, 9184, Note_on_c, 1, 66, 74
4, 9214, Note_on_c, 1, 66, 0
4, 9216, Note_on_c, 1, 59, 74
4, 9246, Note_on_c, 1, 59, 0
4, 9248, Note_on_c, 1, 62, 74
4, 9278, Note_on_c, 1, 62, 0
4, 9280, Note_on_c, 1, 67, 74
4, 9310, Note_on_c, 1, 67, 0
4, 9312, Note_on_c, 1, 59, 74
4, 9342, Note_on_c, 1, 59, 0
4, 9344, Note_on_c, 1, 62, 74
4, 9374, Note_on_c, 1, 62, 0
4, 9376, Note_on_c, 1, 67, 74
4, 9406, Note_on_c, 1, 67, 0
4, 9408, Note_on_c, 1, 59, 74
4, 9438, Note_on_c, 1, 59, 0
4, 9440, Note_on_c, 1, 62, 74
4, 9470, Note_on_c, 1, 62, 0
4, 9472, Note_on_c, 1, 67, 74
4, 9502, Note_on_c, 1, 67, 0
4, 9504, Note_on_c, 1, 54, 74
4, 9534, Note_on_c, 1, 54, 0
4, 9536, Note_on_c, 1, 57, 74
4, 9566, Note_on_c, 1, 57, 0
4, 9568, Note_on_c, 1, 60, 74
4, 9598, Note_on_c, 1, 60, 0
4, 9600, Note_on_c, 1, 55, 74
4, 9630, Note_on_c, 1, 55, 0
4, 9632, Note_on_c, 1, 59, 74
4, 9662, Note_on_c, 1, 59, 0
4, 9664, Note_on_c, 1, 62, 74
4, 9694, Note_on_c, 1, 62, 0
4, 9696, Note_on_c, 1, 55, 74
4, 9726, Note_on_c, 1, 55, 0
4, 9728, Note_on_c, 1, 59, 74
4, 9758, Note_on_c, 1, 59, 0
4, 9760, Note_on_c, 1, 62, 74
4, 9790, Note_on_c, 1, 62, 0
4, 9792, Note_on_c, 1, 55, 74
4, 9822, Note_on_c, 1, 55, 0
4, 9824, Note_on_c, 1, 59, 74
4, 9854, Note_on_c, 1, 59, 0
4, 9856, Note_on_c, 1, 62, 74
4, 9886, Note_on_c, 1, 62, 0
4, 9888, Note_on_c, 1, 54, 74
4, 9918, Note_on_c, 1, 54, 0
4, 9920, Note_on_c, 1, 57, 74
4, 9950, Note_on_c, 1, 57, 0
4, 9952, Note_on_c, 1, 60, 74
4, 9982, Note_on_c, 1, 60, 0
4, 9984, Note_on_c, 1, 55, 74
4, 10014, Note_on_c, 1, 55, 0
4, 10016, Note_on_c, 1, 59, 74
4, 10046, Note_on_c, 1, 59, 0
4, 10048, Note_on_c, 1, 62, 74
4, 10078, Note_on_c, 1, 62, 0
4, 10080, Note_on_c, 1, 55, 74
4, 10110, Note_on_c, 1, 55, 0
4, 10112, Note_on_c, 1, 59, 74
4, 10142, Note_on_c, 1, 59, 0
4, 10144, Note_on_c, 1, 62, 74
4, 10174, Note_on_c, 1, 62, 0
4, 10176, Note_on_c, 1, 55, 74
4, 10206, Note_on_c, 1, 55, 0
4, 10208, Note_on_c, 1, 59, 74
4, 10238, Note_on_c, 1, 59, 0
4, 10240, Note_on_c, 1, 62, 74
4, 10270, Note_on_c, 1, 62, 0
4, 10272, Note_on_c, 1, 55, 74
4, 10302, Note_on_c, 1, 55, 0
4, 10304, Note_on_c, 1, 59, 74
4, 10334, Note_on_c, 1, 59, 0
4, 10336, Note_on_c, 1, 62, 74
4, 10366, Note_on_c, 1, 62, 0
4, 10368, Note_on_c, 1, 54, 74
4, 10398, Note_on_c, 1, 54, 0
4, 10400, Note_on_c, 1, 57, 74
4, 10430, Note_on_c, 1, 57, 0
4, 10432, Note_on_c, 1, 62, 74
4, 10462, Note_on_c, 1, 62, 0
4, 10464, Note_on_c, 1, 54, 74
4, 10494, Note_on_c, 1, 54, 0
4, 10496, Note_on_c, 1, 57, 74
4, 10526, Note_on_c, 1, 57, 0
4, 10528, Note_on_c, 1, 62, 74
4, 10558, Note_on_c, 1, 62, 0
4, 10560, Note_on_c, 1, 55, 74
4, 10590, Note_on_c, 1, 55, 0
4, 10592, Note_on_c, 1, 59, 74
4, 10622, Note_on_c, 1, 59, 0
4, 10624, Note_on_c, 1, 62, 74
4, 10654, Note_on_c, 1, 62, 0
4, 10656, Note_on_c, 1, 55, 74
4, 10686, Note_on_c, 1, 55, 0
4, 10688, Note_on_c, 1, 59, 74
4, 10718, Note_on_c, 1, 59, 0
4, 10720, Note_on_c, 1, 62, 74
4, 10750, Note_on_c, 1, 62, 0
4, 10752, Note_on_c, 1, 60, 74
4, 10782, Note_on_c, 1, 60, 0
4, 10784, Note_on_c, 1, 62, 74
4, 10814, Note_on_c, 1, 62, 0
4, 10816, Note_on_c, 1, 66, 74
4, 10846, Note_on_c, 1, 66, 0
4, 10848, Note_on_c, 1, 60, 74
4, 10878, Note_on_c, 1, 60, 0
4, 10880, Note_on_c, 1, 62, 74
4, 10910, Note_on_c, 1, 62, 0
4, 10912, Note_on_c, 1, 66, 74
4, 10942, Note_on_c, 1, 66, 0
4, 10944, Note_on_c, 1, 59, 74
4, 10974, Note_on_c, 1, 59, 0
4, 10976, Note_on_c, 1, 62, 74
4, 11006, Note_on_c, 1, 62, 0
4, 11008, Note_on_c, 1, 67, 74
4, 11038, Note_on_c, 1, 67, 0
4, 11040, Note_on_c, 1, 59, 74
4, 11070, Note_on_c, 1, 59, 0
4, 11072, Note_on_c, 1, 62, 74
4, 11102, Note_on_c, 1, 62, 0
4, 11104, Note_on_c, 1, 67, 74
4, 11134, Note_on_c, 1, 67, 0
4, 11136, Note_on_c, 1, 54, 74
4, 11166, Note_on_c, 1, 54, 0
4, 11168, Note_on_c, 1, 57, 74
4, 11198, Note_on_c, 1, 57, 0
4, 11200, Note_on_c, 1, 62, 74
4, 11230, Note_on_c, 1, 62, 0
4, 11232, Note_on_c, 1, 54, 74
4, 11262, Note_on_c, 1, 54, 0
4, 11264, Note_on_c, 1, 57, 74
4, 11294, Note_on_c, 1, 57, 0
4, 11296, Note_on_c, 1, 62, 74
4, 11326, Note_on_c, 1, 62, 0
4, 11328, Note_on_c, 1, 55, 74
4, 11358, Note_on_c, 1, 55, 0
4, 11360, Note_on_c, 1, 59, 74
4, 11390, Note_on_c, 1, 59, 0
4, 11392, Note_on_c, 1, 62, 74
4, 11422, Note_on_c, 1, 62, 0
4, 11424, Note_on_c, 1, 55, 74
4, 11454, Note_on_c, 1, 55, 0
4, 11456, Note_on_c, 1, 59, 74
4, 11486, Note_on_c, 1, 59, 0
4, 11488, Note_on_c, 1, 62, 74
4, 11518, Note_on_c, 1, 62, 0
4, 11520, Note_on_c, 1, 60, 74
4, 11550, Note_on_c, 1, 60, 0
4, 11552, Note_on_c, 1, 62, 74
4, 11582, Note_on_c, 1, 62, 0
4, 11584, Note_on_c, 1, 66, 74
4, 11614, Note_on_c, 1, 66, 0
4, 11616, Note_on_c, 1, 60, 75
4, 11646, Note_on_c, 1, 60, 0
4, 11648, Note_on_c, 1, 62, 75
4, 11678, Note_on_c, 1, 62, 0
4, 11680, Note_on_c, 1, 66, 76
4, 11710, Note_on_c, 1, 66, 0
4, 11712, Note_on_c, 1, 59, 76
4, 11742, Note_on_c, 1, 59, 0
4, 11744, Note_on_c, 1, 62, 77
4, 11774, Note_on_c, 1, 62, 0
4, 11776, Note_on_c, 1, 67, 77
4, 11806, Note_on_c, 1, 67, 0
4, 11808, Note_on_c, 1, 59, 77
4, 11838, Note_on_c, 1, 59, 0
4, 11840, Note_on_c, 1, 62, 78
4, 11870, Note_on_c, 1, 62, 0
4, 11872, Note_on_c, 1, 67, 78
4, 11902, Note_on_c, 1, 67, 0
4, 11904, Note_on_c, 1, 60, 79
4, 11934, Note_on_c, 1, 60, 0
4, 11936, Note_on_c, 1, 64, 79
4, 11966, Note_on_c, 1, 64, 0
4, 11968, Note_on_c, 1, 69, 80
4, 11998, Note_on_c, 1, 69, 0
4, 12000, Note_on_c, 1, 60, 80
4, 12030, Note_on_c, 1, 60, 0
4, 12032, Note_on_c, 1, 64, 80
4, 12062, Note_on_c, 1, 64, 0
4, 12064, Note_on_c, 1, 69, 81
4, 12094, Note_on_c, 1, 69, 0
4, 12096, Note_on_c, 1, 61, 81
4, 12126, Note_on_c, 1, 61, 0
4, 12128, Note_on_c, 1, 64, 82
4, 12158, Note_on_c, 1, 64, 0
4, 12160, Note_on_c, 1, 69, 82
4, 12190, Note_on_c, 1, 69, 0
4, 12192, Note_on_c, 1, 61, 83
4, 12222, Note_on_c, 1, 61, 0
4, 12224, Note_on_c, 1, 64, 83
4, 12254, Note_on_c, 1, 64, 0
4, 12256, Note_on_c, 1, 69, 83
4, 12286, Note_on_c, 1, 69, 0
4, 12288, Note_on_c, 1, 62, 85
4, 12377, Note_on_c, 1, 62, 0
4, 12456, Note_on_c, 1, 62, 85
4, 12479, Note_on_c, 1, 62, 0
4, 12480, Note_on_c, 1, 66, 85
4, 12547, Note_on_c, 1, 66, 0
4, 12552, Note_on_c, 1, 62, 85
4, 12575, Note_on_c, 1, 62, 0
4, 12576, Note_on_c, 1, 69, 85
4, 12643, Note_on_c, 1, 69, 0
4, 12648, Note_on_c, 1, 66, 85
4, 12671, Note_on_c, 1, 66, 0
4, 12672, Note_on_c, 1, 74, 85
4, 12761, Note_on_c, 1, 74, 0
4, 12840, Note_on_c, 1, 50, 85
4, 12863, Note_on_c, 1, 50, 0
4, 12864, Note_on_c, 1, 54, 85
4, 12894, Note_on_c, 1, 54, 0
4, 12896, Note_on_c, 1, 50, 85
4, 12926, Note_on_c, 1, 50, 0
4, 12928, Note_on_c, 1, 54, 85
4, 12958, Note_on_c, 1, 54, 0
4, 12960, Note_on_c, 1, 57, 85
4, 12990, Note_on_c, 1, 57, 0
4, 12992, Note_on_c, 1, 54, 85
4, 13022, Note_on_c, 1, 54, 0
4, 13024, Note_on_c, 1, 57, 85
4, 13054, Note_on_c, 1, 57, 0
4, 13056, Note_on_c, 1, 62, 85
4, 13145, Note_on_c, 1, 62, 0
4, 13248, Note_on_c, 1, 38, 85
4, 13306, Note_on_c, 1, 38, 0
4, 13392, Note_on_c, 1, 38, 85
4, 13412, Note_on_c, 1, 38, 0
4, 13440, Note_on_c, 1, 38, 85
4, 13529, Note_on_c, 1, 38, 0
4, 13824, Note_on_c, 1, 59, 69
4, 13854, Note_on_c, 1, 59, 0
4, 13856, Note_on_c, 1, 62, 69
4, 13886, Note_on_c, 1, 62, 0
4, 13888, Note_on_c, 1, 67, 69
4, 13918, Note_on_c, 1, 67, 0
4, 13920, Note_on_c, 1, 59, 69
4, 13950, Note_on_c, 1, 59, 0
4, 13952, Note_on_c, 1, 62, 69
4, 13982, Note_on_c, 1, 62, 0
4, 13984, Note_on_c, 1, 67, 69
4, 14014, Note_on_c, 1, 67, 0
4, 14016, Note_on_c, 1, 59, 69
4, 14046, Note_on_c, 1, 59, 0
4, 14048, Note_on_c, 1, 62, 69
4, 14078, Note_on_c, 1, 62, 0
4, 14080, Note_on_c, 1, 67, 69
4, 14110, Note_on_c, 1, 67, 0
4, 14112, Note_on_c, 1, 60, 69
4, 14142, Note_on_c, 1, 60, 0
4, 14144, Note_on_c, 1, 62, 69
4, 14174, Note_on_c, 1, 62, 0
4, 14176, Note_on_c, 1, 66, 69
4, 14206, Note_on_c, 1, 66, 0
4, 14208, Note_on_c, 1, 59, 69
4, 14238, Note_on_c, 1, 59, 0
4, 14240, Note_on_c, 1, 62, 69
4, 14270, Note_on_c, 1, 62, 0
4, 14272, Note_on_c, 1, 67, 69
4, 14302, Note_on_c, 1, 67, 0
4, 14304, Note_on_c, 1, 59, 69
4, 14334, Note_on_c, 1, 59, 0
4, 14336, Note_on_c, 1, 62, 69
4, 14366, Note_on_c, 1, 62, 0
4, 14368, Note_on_c, 1, 67, 69
4, 14398, Note_on_c, 1, 67, 0
4, 14400, Note_on_c, 1, 59, 69
4, 14430, Note_on_c, 1, 59, 0
4, 14432, Note_on_c, 1, 62, 69
4, 14462, Note_on_c, 1, 62, 0
4, 14464, Note_on_c, 1, 67, 69
4, 14494, Note_on_c, 1, 67, 0
4, 14496, Note_on_c, 1, 60, 69
4, 14526, Note_on_c, 1, 60, 0
4, 14528, Note_on_c, 1, 62, 69
4, 14558, Note_on_c, 1, 62, 0
4, 14560, Note_on_c, 1, 66, 69
4, 14590, Note_on_c, 1, 66, 0
4, 14592, Note_on_c, 1, 59, 69
4, 14622, Note_on_c, 1, 59, 0
4, 14624, Note_on_c, 1, 62, 69
4, 14654, Note_on_c, 1, 62, 0
4, 14656, Note_on_c, 1, 67, 69
4, 14686, Note_on_c, 1, 67, 0
4, 14688, Note_on_c, 1, 59, 69
4, 14718, Note_on_c, 1, 59, 0
4, 14720, Note_on_c, 1, 62, 69
4, 14750, Note_on_c, 1, 62, 0
4, 14752, Note_on_c, 1, 67, 69
4, 14782, Note_on_c, 1, 67, 0
4, 14784, Note_on_c, 1, 59, 69
4, 14814, Note_on_c, 1, 59, 0
4, 14816, Note_on_c, 1, 62, 69
4, 14846, Note_on_c, 1, 62, 0
4, 14848, Note_on_c, 1, 67, 69
4, 14878, Note_on_c, 1, 67, 0
4, 14880, Note_on_c, 1, 60, 69
4, 14910, Note_on_c, 1, 60, 0
4, 14912, Note_on_c, 1, 62, 69
4, 14942, Note_on_c, 1, 62, 0
4, 14944, Note_on_c, 1, 66, 69
4, 14974, Note_on_c, 1, 66, 0
4, 14976, Note_on_c, 1, 59, 69
4, 15006, Note_on_c, 1, 59, 0
4, 15008, Note_on_c, 1, 62, 69
4, 15038, Note_on_c, 1, 62, 0
4, 15040, Note_on_c, 1, 67, 69
4, 15070, Note_on_c, 1, 67, 0
4, 15072, Note_on_c, 1, 59, 69
4, 15102, Note_on_c, 1, 59, 0
4, 15104, Note_on_c, 1, 62, 69
4, 15134, Note_on_c, 1, 62, 0
4, 15136, Note_on_c, 1, 67, 69
4, 15166, Note_on_c, 1, 67, 0
4, 15168, Note_on_c, 1, 54, 69
4, 15198, Note_on_c, 1, 54, 0
4, 15200, Note_on_c, 1, 57, 69
4, 15230, Note_on_c, 1, 57, 0
4, 15232, Note_on_c, 1, 62, 69
4, 15262, Note_on_c, 1, 62, 0
4, 15264, Note_on_c, 1, 54, 70
4, 15294, Note_on_c, 1, 54, 0
4, 15296, Note_on_c, 1, 57, 70
4, 15326, Note_on_c, 1, 57, 0
4, 15328, Note_on_c, 1, 62, 71
4, 15358, Note_on_c, 1, 62, 0
4, 15360, Note_on_c, 1, 55, 71
4, 15390, Note_on_c, 1, 55, 0
4, 15392, Note_on_c, 1, 59, 72
4, 15422, Note_on_c, 1, 59, 0
4, 15424, Note_on_c, 1, 62, 72
4, 15454, Note_on_c, 1, 62, 0
4, 15456, Note_on_c, 1, 55, 73
4, 15486, Note_on_c, 1, 55, 0
4, 15488, Note_on_c, 1, 59, 73
4, 15518, Note_on_c, 1, 59, 0
4, 15520, Note_on_c, 1, 62, 74
4, 15550, Note_on_c, 1, 62, 0
4, 15552, Note_on_c, 1, 52, 74
4, 15582, Note_on_c, 1, 52, 0
4, 15584, Note_on_c, 1, 55, 74
4, 15614, Note_on_c, 1, 55, 0
4, 15616, Note_on_c, 1, 60, 75
4, 15646, Note_on_c, 1, 60, 0
4, 15648, Note_on_c, 1, 52, 75
4, 15678, Note_on_c, 1, 52, 0
4, 15680, Note_on_c, 1, 55, 76
4, 15710, Note_on_c, 1, 55, 0
4, 15712, Note_on_c, 1, 60, 76
4, 15742, Note_on_c, 1, 60, 0
4, 15744, Note_on_c, 1, 47, 77
4, 15774, Note_on_c, 1, 47, 0
4, 15776, Note_on_c, 1, 50, 77
4, 15806, Note_on_c, 1, 50, 0
4, 15808, Note_on_c, 1, 55, 78
4, 15838, Note_on_c, 1, 55, 0
4, 15840, Note_on_c, 1, 47, 78
4, 15870, Note_on_c, 1, 47, 0
4, 15872, Note_on_c, 1, 50, 79
4, 15902, Note_on_c, 1, 50, 0
4, 15904, Note_on_c, 1, 55, 79
4, 15934, Note_on_c, 1, 55, 0
4, 15936, Note_on_c, 1, 47, 79
4, 16025, Note_on_c, 1, 47, 0
4, 16128, Note_on_c, 1, 48, 82
4, 16217, Note_on_c, 1, 48, 0
4, 16896, Note_on_c, 1, 71, 69
4, 17073, Note_on_c, 1, 71, 0
4, 17088, Note_on_c, 1, 72, 69
4, 17265, Note_on_c, 1, 72, 0
4, 17280, Note_on_c, 1, 71, 69
4, 17280, Note_on_c, 1, 67, 69
4, 17369, Note_on_c, 1, 71, 0
4, 17369, Note_on_c, 1, 67, 0
4, 17568, Note_on_c, 1, 79, 64
4, 17664, Note_on_c, 1, 79, 0
4, 17664, Note_on_c, 1, 81, 64
4, 17664, Note_on_c, 1, 78, 64
4, 17703, Note_on_c, 1, 81, 0
4, 17703, Note_on_c, 1, 78, 0
4, 17952, Note_on_c, 1, 76, 64
4, 18048, Note_on_c, 1, 76, 0
4, 18048, Note_on_c, 1, 78, 64
4, 18048, Note_on_c, 1, 74, 64
4, 18087, Note_on_c, 1, 78, 0
4, 18087, Note_on_c, 1, 74, 0
4, 18336, Note_on_c, 1, 72, 64
4, 18432, Note_on_c, 1, 72, 0
4, 18432, Note_on_c, 1, 74, 64
4, 18432, Note_on_c, 1, 71, 64
4, 18471, Note_on_c, 1, 74, 0
4, 18471, Note_on_c, 1, 71, 0
4, 18720, Note_on_c, 1, 71, 64
4, 18720, Note_on_c, 1, 67, 64
4, 18809, Note_on_c, 1, 71, 0
4, 18809, Note_on_c, 1, 67, 0
4, 18816, Note_on_c, 1, 72, 64
4, 18816, Note_on_c, 1, 60, 64
4, 18905, Note_on_c, 1, 72, 0
4, 18905, Note_on_c, 1, 60, 0
4, 19008, Note_on_c, 1, 69, 64
4, 19008, Note_on_c, 1, 62, 64
4, 19097, Note_on_c, 1, 69, 0
4, 19097, Note_on_c, 1, 62, 0
4, 19200, Note_on_c, 1, 71, 64
4, 19200, Note_on_c, 1, 67, 64
4, 19289, Note_on_c, 1, 71, 0
4, 19289, Note_on_c, 1, 67, 0
4, 19488, Note_on_c, 1, 79, 85
4, 19584, Note_on_c, 1, 79, 0
4, 19584, Note_on_c, 1, 78, 69
4, 19623, Note_on_c, 1, 78, 0
4, 19680, Note_on_c, 1, 78, 69
4, 19719, Note_on_c, 1, 78, 0
4, 19776, Note_on_c, 1, 78, 69
4, 19815, Note_on_c, 1, 78, 0
4, 19872, Note_on_c, 1, 79, 85
4, 19968, Note_on_c, 1, 79, 0
4, 19968, Note_on_c, 1, 78, 69
4, 20007, Note_on_c, 1, 78, 0
4, 20064, Note_on_c, 1, 78, 69
4, 20103, Note_on_c, 1, 78, 0
4, 20160, Note_on_c, 1, 78, 69
4, 20199, Note_on_c, 1, 78, 0
4, 20256, Note_on_c, 1, 76, 85
4, 20352, Note_on_c, 1, 76, 0
4, 20352, Note_on_c, 1, 74, 69
4, 20391, Note_on_c, 1, 74, 0
4, 20448, Note_on_c, 1, 74, 69
4, 20487, Note_on_c, 1, 74, 0
4, 20544, Note_on_c, 1, 74, 69
4, 20583, Note_on_c, 1, 74, 0
4, 20640, Note_on_c, 1, 76, 85
4, 20736, Note_on_c, 1, 76, 0
4, 20736, Note_on_c, 1, 74, 69
4, 20775, Note_on_c, 1, 74, 0
4, 20832, Note_on_c, 1, 74, 69
4, 20871, Note_on_c, 1, 74, 0
4, 20928, Note_on_c, 1, 74, 69
4, 20967, Note_on_c, 1, 74, 0
4, 21024, Note_on_c, 1, 72, 85
4, 21120, Note_on_c, 1, 72, 0
4, 21120, Note_on_c, 1, 71, 69
4, 21159, Note_on_c, 1, 71, 0
4, 21216, Note_on_c, 1, 71, 69
4, 21255, Note_on_c, 1, 71, 0
4, 21312, Note_on_c, 1, 71, 69
4, 21351, Note_on_c, 1, 71, 0
4, 21408, Note_on_c, 1, 72, 85
4, 21504, Note_on_c, 1, 72, 0
4, 21504, Note_on_c, 1, 71, 69
4, 21543, Note_on_c, 1, 71, 0
4, 21600, Note_on_c, 1, 71, 69
4, 21639, Note_on_c, 1, 71, 0
4, 21696, Note_on_c, 1, 71, 69
4, 21735, Note_on_c, 1, 71, 0
4, 21792, Note_on_c, 1, 72, 85
4, 21888, Note_on_c, 1, 72, 0
4, 21888, Note_on_c, 1, 71, 69
4, 21927, Note_on_c, 1, 71, 0
4, 21984, Note_on_c, 1, 66, 72
4, 22073, Note_on_c, 1, 66, 0
4, 22080, Note_on_c, 1, 67, 75
4, 22169, Note_on_c, 1, 67, 0
4, 22176, Note_on_c, 1, 69, 78
4, 22265, Note_on_c, 1, 69, 0
4, 22272, Note_on_c, 1, 71, 81
4, 22361, Note_on_c, 1, 71, 0
4, 22752, Note_on_c, 1, 60, 81
4, 22841, Note_on_c, 1, 60, 0
4, 22848, Note_on_c, 1, 59, 77
4, 22937, Note_on_c, 1, 59, 0
4, 22944, Note_on_c, 1, 57, 73
4, 23033, Note_on_c, 1, 57, 0
4, 23040, Note_on_c, 1, 55, 85
4, 23040, Note_on_c, 1, 50, 85
4, 23040, Note_on_c, 1, 47, 85
4, 23217, Note_on_c, 1, 55, 0
4, 23217, Note_on_c, 1, 50, 0
4, 23217, Note_on_c, 1, 47, 0
4, 23520, Note_on_c, 1, 60, 81
4, 23609, Note_on_c, 1, 60, 0
4, 23616, Note_on_c, 1, 59, 77
4, 23705, Note_on_c, 1, 59, 0
4, 23712, Note_on_c, 1, 57, 73
4, 23801, Note_on_c, 1, 57, 0
4, 23808, Note_on_c, 1, 55, 74
4, 23838, Note_on_c, 1, 55, 0
4, 23840, Note_on_c, 1, 59, 74
4, 23870, Note_on_c, 1, 59, 0
4, 23872, Note_on_c, 1, 62, 74
4, 23902, Note_on_c, 1, 62, 0
4, 23904, Note_on_c, 1, 55, 74
4, 23934, Note_on_c, 1, 55, 0
4, 23936, Note_on_c, 1, 59, 74
4, 23966, Note_on_c, 1, 59, 0
4, 23968, Note_on_c, 1, 62, 74
4, 23998, Note_on_c, 1, 62, 0
4, 24000, Note_on_c, 1, 55, 74
4, 24030, Note_on_c, 1, 55, 0
4, 24032, Note_on_c, 1, 59, 74
4, 24062, Note_on_c, 1, 59, 0
4, 24064, Note_on_c, 1, 62, 74
4, 24094, Note_on_c, 1, 62, 0
4, 24096, Note_on_c, 1, 50, 74
4, 24126, Note_on_c, 1, 50, 0
4, 24128, Note_on_c, 1, 54, 74
4, 24158, Note_on_c, 1, 54, 0
4, 24160, Note_on_c, 1, 62, 74
4, 24190, Note_on_c, 1, 62, 0
4, 24192, Note_on_c, 1, 55, 74
4, 24222, Note_on_c, 1, 55, 0
4, 24224, Note_on_c, 1, 59, 74
4, 24254, Note_on_c, 1, 59, 0
4, 24256, Note_on_c, 1, 62, 74
4, 24286, Note_on_c, 1, 62, 0
4, 24288, Note_on_c, 1, 55, 74
4, 24318, Note_on_c, 1, 55, 0
4, 24320, Note_on_c, 1, 59, 74
4, 24350, Note_on_c, 1, 59, 0
4, 24352, Note_on_c, 1, 62, 74
4, 24382, Note_on_c, 1, 62, 0
4, 24384, Note_on_c, 1, 55, 74
4, 24414, Note_on_c, 1, 55, 0
4, 24416, Note_on_c, 1, 59, 74
4, 24446, Note_on_c, 1, 59, 0
4, 24448, Note_on_c, 1, 62, 74
4, 24478, Note_on_c, 1, 62, 0
4, 24480, Note_on_c, 1, 50, 74
4, 24510, Note_on_c, 1, 50, 0
4, 24512, Note_on_c, 1, 54, 74
4, 24542, Note_on_c, 1, 54, 0
4, 24544, Note_on_c, 1, 62, 74
4, 24574, Note_on_c, 1, 62, 0
4, 24576, Note_on_c, 1, 55, 74
4, 24606, Note_on_c, 1, 55, 0
4, 24608, Note_on_c, 1, 59, 74
4, 24638, Note_on_c, 1, 59, 0
4, 24640, Note_on_c, 1, 62, 74
4, 24670, Note_on_c, 1, 62, 0
4, 24672, Note_on_c, 1, 55, 74
4, 24702, Note_on_c, 1, 55, 0
4, 24704, Note_on_c, 1, 59, 74
4, 24734, Note_on_c, 1, 59, 0
4, 24736, Note_on_c, 1, 62, 74
4, 24766, Note_on_c, 1, 62, 0
4, 24768, Note_on_c, 1, 55, 74
4, 24798, Note_on_c, 1, 55, 0
4, 24800, Note_on_c, 1, 59, 74
4, 24830, Note_on_c, 1, 59, 0
4, 24832, Note_on_c, 1, 62, 74
4, 24862, Note_on_c, 1, 62, 0
4, 24864, Note_on_c, 1, 50, 74
4, 24894, Note_on_c, 1, 50, 0
4, 24896, Note_on_c, 1, 54, 74
4, 24926, Note_on_c, 1, 54, 0
4, 24928, Note_on_c, 1, 62, 74
4, 24958, Note_on_c, 1, 62, 0
4, 24960, Note_on_c, 1, 55, 74
4, 24990, Note_on_c, 1, 55, 0
4, 24992, Note_on_c, 1, 59, 74
4, 25022, Note_on_c, 1, 59, 0
4, 25024, Note_on_c, 1, 62, 74
4, 25054, Note_on_c, 1, 62, 0
4, 25056, Note_on_c, 1, 55, 74
4, 25086, Note_on_c, 1, 55, 0
4, 25088, Note_on_c, 1, 59, 74
4, 25118, Note_on_c, 1, 59, 0
4, 25120, Note_on_c, 1, 62, 74
4, 25150, Note_on_c, 1, 62, 0
4, 25152, Note_on_c, 1, 55, 74
4, 25182, Note_on_c, 1, 55, 0
4, 25184, Note_on_c, 1, 59, 74
4, 25214, Note_on_c, 1, 59, 0
4, 25216, Note_on_c, 1, 62, 74
4, 25246, Note_on_c, 1, 62, 0
4, 25248, Note_on_c, 1, 50, 74
4, 25278, Note_on_c, 1, 50, 0
4, 25280, Note_on_c, 1, 54, 74
4, 25310, Note_on_c, 1, 54, 0
4, 25312, Note_on_c, 1, 62, 74
4, 25342, Note_on_c, 1, 62, 0
4, 25344, Note_on_c, 1, 55, 74
4, 25374, Note_on_c, 1, 55, 0
4, 25376, Note_on_c, 1, 59, 74
4, 25406, Note_on_c, 1, 59, 0
4, 25408, Note_on_c, 1, 62, 74
4, 25438, Note_on_c, 1, 62, 0
4, 25440, Note_on_c, 1, 55, 74
4, 25470, Note_on_c, 1, 55, 0
4, 25472, Note_on_c, 1, 59, 74
4, 25502, Note_on_c, 1, 59, 0
4, 25504, Note_on_c, 1, 62, 74
4, 25534, Note_on_c, 1, 62, 0
4, 25536, Note_on_c, 1, 55, 74
4, 25566, Note_on_c, 1, 55, 0
4, 25568, Note_on_c, 1, 59, 74
4, 25598, Note_on_c, 1, 59, 0
4, 25600, Note_on_c, 1, 62, 74
4, 25630, Note_on_c, 1, 62, 0
4, 25632, Note_on_c, 1, 55, 74
4, 25662, Note_on_c, 1, 55, 0
4, 25664, Note_on_c, 1, 59, 74
4, 25694, Note_on_c, 1, 59, 0
4, 25696, Note_on_c, 1, 62, 74
4, 25726, Note_on_c, 1, 62, 0
4, 25728, Note_on_c, 1, 55, 74
4, 25861, Note_on_c, 1, 55, 0
4, 26112, Note_on_c, 1, 64, 74
4, 26112, Note_on_c, 1, 60, 74
4, 26201, Note_on_c, 1, 64, 0
4, 26201, Note_on_c, 1, 60, 0
4, 26496, Note_on_c, 1, 64, 74
4, 26496, Note_on_c, 1, 60, 74
4, 26535, Note_on_c, 1, 64, 0
4, 26535, Note_on_c, 1, 60, 0
4, 26880, Note_on_c, 1, 65, 74
4, 26880, Note_on_c, 1, 62, 74
4, 26880, Note_on_c, 1, 55, 74
4, 26919, Note_on_c, 1, 65, 0
4, 26919, Note_on_c, 1, 62, 0
4, 26919, Note_on_c, 1, 55, 0
4, 26976, Note_on_c, 1, 65, 75
4, 26976, Note_on_c, 1, 62, 75
4, 26976, Note_on_c, 1, 55, 75
4, 27015, Note_on_c, 1, 65, 0
4, 27015, Note_on_c, 1, 62, 0
4, 27015, Note_on_c, 1, 55, 0
4, 27072, Note_on_c, 1, 64, 76
4, 27072, Note_on_c, 1, 60, 76
4, 27072, Note_on_c, 1, 55, 76
4, 27111, Note_on_c, 1, 64, 0
4, 27111, Note_on_c, 1, 60, 0
4, 27111, Note_on_c, 1, 55, 0
4, 27168, Note_on_c, 1, 64, 77
4, 27168, Note_on_c, 1, 60, 77
4, 27168, Note_on_c, 1, 55, 77
4, 27207, Note_on_c, 1, 64, 0
4, 27207, Note_on_c, 1, 60, 0
4, 27207, Note_on_c, 1, 55, 0
4, 27264, Note_on_c, 1, 62, 79
4, 27264, Note_on_c, 1, 59, 79
4, 27264, Note_on_c, 1, 55, 79
4, 27353, Note_on_c, 1, 62, 0
4, 27353, Note_on_c, 1, 59, 0
4, 27353, Note_on_c, 1, 55, 0
4, 27648, Note_on_c, 1, 67, 74
4, 27648, Note_on_c, 1, 59, 74
4, 27687, Note_on_c, 1, 67, 0
4, 27687, Note_on_c, 1, 59, 0
4, 27840, Note_on_c, 1, 67, 74
4, 27840, Note_on_c, 1, 60, 74
4, 27879, Note_on_c, 1, 67, 0
4, 27879, Note_on_c, 1, 60, 0
4, 28032, Note_on_c, 1, 67, 74
4, 28032, Note_on_c, 1, 65, 74
4, 28071, Note_on_c, 1, 67, 0
4, 28071, Note_on_c, 1, 65, 0
4, 28224, Note_on_c, 1, 67, 74
4, 28224, Note_on_c, 1, 64, 74
4, 28263, Note_on_c, 1, 67, 0
4, 28263, Note_on_c, 1, 64, 0
4, 28320, Note_on_c, 1, 67, 74
4, 28320, Note_on_c, 1, 64, 74
4, 28359, Note_on_c, 1, 67, 0
4, 28359, Note_on_c, 1, 64, 0
4, 28416, Note_on_c, 1, 65, 74
4, 28416, Note_on_c, 1, 53, 74
4, 28505, Note_on_c, 1, 65, 0
4, 28505, Note_on_c, 1, 53, 0
4, 28512, Note_on_c, 1, 65, 74
4, 28512, Note_on_c, 1, 53, 74
4, 28601, Note_on_c, 1, 65, 0
4, 28601, Note_on_c, 1, 53, 0
4, 28608, Note_on_c, 1, 62, 74
4, 28608, Note_on_c, 1, 55, 74
4, 28697, Note_on_c, 1, 62, 0
4, 28697, Note_on_c, 1, 55, 0
4, 28704, Note_on_c, 1, 62, 74
4, 28704, Note_on_c, 1, 55, 74
4, 28793, Note_on_c, 1, 62, 0
4, 28793, Note_on_c, 1, 55, 0
4, 28800, Note_on_c, 1, 60, 69
4, 28830, Note_on_c, 1, 60, 0
4, 28832, Note_on_c, 1, 64, 69
4, 28862, Note_on_c, 1, 64, 0
4, 28864, Note_on_c, 1, 67, 69
4, 28894, Note_on_c, 1, 67, 0
4, 28896, Note_on_c, 1, 60, 69
4, 28926, Note_on_c, 1, 60, 0
4, 28928, Note_on_c, 1, 64, 69
4, 28958, Note_on_c, 1, 64, 0
4, 28960, Note_on_c, 1, 67, 69
4, 28990, Note_on_c, 1, 67, 0
4, 28992, Note_on_c, 1, 60, 69
4, 29022, Note_on_c, 1, 60, 0
4, 29024, Note_on_c, 1, 64, 69
4, 29054, Note_on_c, 1, 64, 0
4, 29056, Note_on_c, 1, 67, 69
4, 29086, Note_on_c, 1, 67, 0
4, 29088, Note_on_c, 1, 60, 69
4, 29118, Note_on_c, 1, 60, 0
4, 29120, Note_on_c, 1, 64, 69
4, 29150, Note_on_c, 1, 64, 0
4, 29152, Note_on_c, 1, 67, 69
4, 29182, Note_on_c, 1, 67, 0
4, 29184, Note_on_c, 1, 60, 69
4, 29214, Note_on_c, 1, 60, 0
4, 29216, Note_on_c, 1, 64, 69
4, 29246, Note_on_c, 1, 64, 0
4, 29248, Note_on_c, 1, 67, 69
4, 29278, Note_on_c, 1, 67, 0
4, 29280, Note_on_c, 1, 60, 69
4, 29310, Note_on_c, 1, 60, 0
4, 29312, Note_on_c, 1, 64, 69
4, 29342, Note_on_c, 1, 64, 0
4, 29344, Note_on_c, 1, 67, 69
4, 29374, Note_on_c, 1, 67, 0
4, 29376, Note_on_c, 1, 60, 69
4, 29406, Note_on_c, 1, 60, 0
4, 29408, Note_on_c, 1, 64, 69
4, 29438, Note_on_c, 1, 64, 0
4, 29440, Note_on_c, 1, 67, 69
4, 29470, Note_on_c, 1, 67, 0
4, 29472, Note_on_c, 1, 60, 69
4, 29502, Note_on_c, 1, 60, 0
4, 29504, Note_on_c, 1, 64, 69
4, 29534, Note_on_c, 1, 64, 0
4, 29536, Note_on_c, 1, 67, 69
4, 29566, Note_on_c, 1, 67, 0
4, 29568, Note_on_c, 1, 60, 69
4, 29598, Note_on_c, 1, 60, 0
4, 29600, Note_on_c, 1, 64, 69
4, 29630, Note_on_c, 1, 64, 0
4, 29632, Note_on_c, 1, 67, 69
4, 29662, Note_on_c, 1, 67, 0
4, 29664, Note_on_c, 1, 60, 69
4, 29694, Note_on_c, 1, 60, 0
4, 29696, Note_on_c, 1, 64, 69
4, 29726, Note_on_c, 1, 64, 0
4, 29728, Note_on_c, 1, 67, 69
4, 29758, Note_on_c, 1, 67, 0
4, 29760, Note_on_c, 1, 60, 69
4, 29790, Note_on_c, 1, 60, 0
4, 29792, Note_on_c, 1, 64, 69
4, 29822, Note_on_c, 1, 64, 0
4, 29824, Note_on_c, 1, 67, 69
4, 29854, Note_on_c, 1, 67, 0
4, 29856, Note_on_c, 1, 60, 69
4, 29886, Note_on_c, 1, 60, 0
4, 29888, Note_on_c, 1, 64, 69
4, 29918, Note_on_c, 1, 64, 0
4, 29920, Note_on_c, 1, 67, 69
4, 29950, Note_on_c, 1, 67, 0
4, 29952, Note_on_c, 1, 62, 69
4, 29982, Note_on_c, 1, 62, 0
4, 29984, Note_on_c, 1, 65, 69
4, 30014, Note_on_c, 1, 65, 0
4, 30016, Note_on_c, 1, 67, 69
4, 30046, Note_on_c, 1, 67, 0
4, 30048, Note_on_c, 1, 62, 70
4, 30078, Note_on_c, 1, 62, 0
4, 30080, Note_on_c, 1, 65, 70
4, 30110, Note_on_c, 1, 65, 0
4, 30112, Note_on_c, 1, 67, 70
4, 30142, Note_on_c, 1, 67, 0
4, 30144, Note_on_c, 1, 60, 71
4, 30174, Note_on_c, 1, 60, 0
4, 30176, Note_on_c, 1, 64, 71
4, 30206, Note_on_c, 1, 64, 0
4, 30208, Note_on_c, 1, 67, 72
4, 30238, Note_on_c, 1, 67, 0
4, 30240, Note_on_c, 1, 60, 72
4, 30270, Note_on_c, 1, 60, 0
4, 30272, Note_on_c, 1, 64, 72
4, 30302, Note_on_c, 1, 64, 0
4, 30304, Note_on_c, 1, 67, 73
4, 30334, Note_on_c, 1, 67, 0
4, 30336, Note_on_c, 1, 59, 74
4, 30425, Note_on_c, 1, 59, 0
4, 30720, Note_on_c, 1, 55, 69
4, 30750, Note_on_c, 1, 55, 0
4, 30752, Note_on_c, 1, 59, 69
4, 30782, Note_on_c, 1, 59, 0
4, 30784, Note_on_c, 1, 62, 69
4, 30814, Note_on_c, 1, 62, 0
4, 30816, Note_on_c, 1, 55, 69
4, 30846, Note_on_c, 1, 55, 0
4, 30848, Note_on_c, 1, 59, 69
4, 30878, Note_on_c, 1, 59, 0
4, 30880, Note_on_c, 1, 62, 69
4, 30910, Note_on_c, 1, 62, 0
4, 30912, Note_on_c, 1, 55, 69
4, 30942, Note_on_c, 1, 55, 0
4, 30944, Note_on_c, 1, 60, 69
4, 30974, Note_on_c, 1, 60, 0
4, 30976, Note_on_c, 1, 64, 69
4, 31006, Note_on_c, 1, 64, 0
4, 31008, Note_on_c, 1, 55, 69
4, 31038, Note_on_c, 1, 55, 0
4, 31040, Note_on_c, 1, 60, 69
4, 31070, Note_on_c, 1, 60, 0
4, 31072, Note_on_c, 1, 64, 69
4, 31102, Note_on_c, 1, 64, 0
4, 31104, Note_on_c, 1, 55, 69
4, 31134, Note_on_c, 1, 55, 0
4, 31136, Note_on_c, 1, 62, 69
4, 31166, Note_on_c, 1, 62, 0
4, 31168, Note_on_c, 1, 65, 69
4, 31198, Note_on_c, 1, 65, 0
4, 31200, Note_on_c, 1, 55, 69
4, 31230, Note_on_c, 1, 55, 0
4, 31232, Note_on_c, 1, 62, 69
4, 31262, Note_on_c, 1, 62, 0
4, 31264, Note_on_c, 1, 65, 69
4, 31294, Note_on_c, 1, 65, 0
4, 31296, Note_on_c, 1, 57, 69
4, 31326, Note_on_c, 1, 57, 0
4, 31328, Note_on_c, 1, 60, 69
4, 31358, Note_on_c, 1, 60, 0
4, 31360, Note_on_c, 1, 64, 69
4, 31390, Note_on_c, 1, 64, 0
4, 31392, Note_on_c, 1, 57, 69
4, 31422, Note_on_c, 1, 57, 0
4, 31424, Note_on_c, 1, 60, 69
4, 31454, Note_on_c, 1, 60, 0
4, 31456, Note_on_c, 1, 64, 69
4, 31486, Note_on_c, 1, 64, 0
4, 31488, Note_on_c, 1, 53, 69
4, 31518, Note_on_c, 1, 53, 0
4, 31520, Note_on_c, 1, 57, 69
4, 31550, Note_on_c, 1, 57, 0
4, 31552, Note_on_c, 1, 62, 69
4, 31582, Note_on_c, 1, 62, 0
4, 31584, Note_on_c, 1, 53, 69
4, 31614, Note_on_c, 1, 53, 0
4, 31616, Note_on_c, 1, 57, 69
4, 31646, Note_on_c, 1, 57, 0
4, 31648, Note_on_c, 1, 62, 69
4, 31678, Note_on_c, 1, 62, 0
4, 31680, Note_on_c, 1, 55, 69
4, 31710, Note_on_c, 1, 55, 0
4, 31712, Note_on_c, 1, 62, 69
4, 31742, Note_on_c, 1, 62, 0
4, 31744, Note_on_c, 1, 65, 69
4, 31774, Note_on_c, 1, 65, 0
4, 31776, Note_on_c, 1, 55, 69
4, 31806, Note_on_c, 1, 55, 0
4, 31808, Note_on_c, 1, 62, 69
4, 31838, Note_on_c, 1, 62, 0
4, 31840, Note_on_c, 1, 65, 69
4, 31870, Note_on_c, 1, 65, 0
4, 31872, Note_on_c, 1, 64, 74
4, 32049, Note_on_c, 1, 64, 0
4, 32064, Note_on_c, 1, 70, 74
4, 32241, Note_on_c, 1, 70, 0
4, 32256, Note_on_c, 1, 69, 74
4, 32433, Note_on_c, 1, 69, 0
4, 32448, Note_on_c, 1, 65, 74
4, 32625, Note_on_c, 1, 65, 0
4, 32640, Note_on_c, 1, 64, 74
4, 32817, Note_on_c, 1, 64, 0
4, 32832, Note_on_c, 1, 70, 74
4, 33009, Note_on_c, 1, 70, 0
4, 33024, Note_on_c, 1, 69, 74
4, 33201, Note_on_c, 1, 69, 0
4, 33216, Note_on_c, 1, 65, 74
4, 33393, Note_on_c, 1, 65, 0
4, 33408, Note_on_c, 1, 60, 69
4, 33438, Note_on_c, 1, 60, 0
4, 33440, Note_on_c, 1, 64, 69
4, 33470, Note_on_c, 1, 64, 0
4, 33472, Note_on_c, 1, 67, 69
4, 33502, Note_on_c, 1, 67, 0
4, 33504, Note_on_c, 1, 60, 69
4, 33534, Note_on_c, 1, 60, 0
4, 33536, Note_on_c, 1, 64, 69
4, 33566, Note_on_c, 1, 64, 0
4, 33568, Note_on_c, 1, 67, 69
4, 33598, Note_on_c, 1, 67, 0
4, 33600, Note_on_c, 1, 60, 69
4, 33630, Note_on_c, 1, 60, 0
4, 33632, Note_on_c, 1, 64, 69
4, 33662, Note_on_c, 1, 64, 0
4, 33664, Note_on_c, 1, 67, 69
4, 33694, Note_on_c, 1, 67, 0
4, 33696, Note_on_c, 1, 59, 69
4, 33726, Note_on_c, 1, 59, 0
4, 33728, Note_on_c, 1, 62, 69
4, 33758, Note_on_c, 1, 62, 0
4, 33760, Note_on_c, 1, 67, 69
4, 33790, Note_on_c, 1, 67, 0
4, 33792, Note_on_c, 1, 60, 69
4, 33822, Note_on_c, 1, 60, 0
4, 33824, Note_on_c, 1, 64, 69
4, 33854, Note_on_c, 1, 64, 0
4, 33856, Note_on_c, 1, 67, 69
4, 33886, Note_on_c, 1, 67, 0
4, 33888, Note_on_c, 1, 60, 69
4, 33918, Note_on_c, 1, 60, 0
4, 33920, Note_on_c, 1, 64, 69
4, 33950, Note_on_c, 1, 64, 0
4, 33952, Note_on_c, 1, 67, 69
4, 33982, Note_on_c, 1, 67, 0
4, 33984, Note_on_c, 1, 60, 69
4, 34014, Note_on_c, 1, 60, 0
4, 34016, Note_on_c, 1, 64, 69
4, 34046, Note_on_c, 1, 64, 0
4, 34048, Note_on_c, 1, 67, 69
4, 34078, Note_on_c, 1, 67, 0
4, 34080, Note_on_c, 1, 59, 69
4, 34110, Note_on_c, 1, 59, 0
4, 34112, Note_on_c, 1, 62, 69
4, 34142, Note_on_c, 1, 62, 0
4, 34144, Note_on_c, 1, 67, 69
4, 34174, Note_on_c, 1, 67, 0
4, 34176, Note_on_c, 1, 60, 69
4, 34206, Note_on_c, 1, 60, 0
4, 34208, Note_on_c, 1, 64, 69
4, 34238, Note_on_c, 1, 64, 0
4, 34240, Note_on_c, 1, 67, 69
4, 34270, Note_on_c, 1, 67, 0
4, 34272, Note_on_c, 1, 60, 69
4, 34302, Note_on_c, 1, 60, 0
4, 34304, Note_on_c, 1, 64, 69
4, 34334, Note_on_c, 1, 64, 0
4, 34336, Note_on_c, 1, 67, 69
4, 34366, Note_on_c, 1, 67, 0
4, 34368, Note_on_c, 1, 60, 69
4, 34398, Note_on_c, 1, 60, 0
4, 34400, Note_on_c, 1, 64, 69
4, 34430, Note_on_c, 1, 64, 0
4, 34432, Note_on_c, 1, 67, 69
4, 34462, Note_on_c, 1, 67, 0
4, 34464, Note_on_c, 1, 59, 69
4, 34494, Note_on_c, 1, 59, 0
4, 34496, Note_on_c, 1, 62, 69
4, 34526, Note_on_c, 1, 62, 0
4, 34528, Note_on_c, 1, 67, 69
4, 34558, Note_on_c, 1, 67, 0
4, 34560, Note_on_c, 1, 60, 69
4, 34590, Note_on_c, 1, 60, 0
4, 34592, Note_on_c, 1, 64, 69
4, 34622, Note_on_c, 1, 64, 0
4, 34624, Note_on_c, 1, 67, 69
4, 34654, Note_on_c, 1, 67, 0
4, 34656, Note_on_c, 1, 60, 70
4, 34686, Note_on_c, 1, 60, 0
4, 34688, Note_on_c, 1, 64, 70
4, 34718, Note_on_c, 1, 64, 0
4, 34720, Note_on_c, 1, 67, 71
4, 34750, Note_on_c, 1, 67, 0
4, 34752, Note_on_c, 1, 60, 71
4, 34782, Note_on_c, 1, 60, 0
4, 34784, Note_on_c, 1, 64, 72
4, 34814, Note_on_c, 1, 64, 0
4, 34816, Note_on_c, 1, 67, 72
4, 34846, Note_on_c, 1, 67, 0
4, 34848, Note_on_c, 1, 60, 73
4, 34878, Note_on_c, 1, 60, 0
4, 34880, Note_on_c, 1, 62, 74
4, 34910, Note_on_c, 1, 62, 0
4, 34912, Note_on_c, 1, 66, 74
4, 34942, Note_on_c, 1, 66, 0
4, 34944, Note_on_c, 1, 59, 74
4, 34974, Note_on_c, 1, 59, 0
4, 34976, Note_on_c, 1, 62, 74
4, 35006, Note_on_c, 1, 62, 0
4, 35008, Note_on_c, 1, 67, 74
4, 35038, Note_on_c, 1, 67, 0
4, 35040, Note_on_c, 1, 59, 74
4, 35070, Note_on_c, 1, 59, 0
4, 35072, Note_on_c, 1, 62, 74
4, 35102, Note_on_c, 1, 62, 0
4, 35104, Note_on_c, 1, 67, 74
4, 35134, Note_on_c, 1, 67, 0
4, 35136, Note_on_c, 1, 59, 74
4, 35166, Note_on_c, 1, 59, 0
4, 35168, Note_on_c, 1, 62, 74
4, 35198, Note_on_c, 1, 62, 0
4, 35200, Note_on_c, 1, 67, 74
4, 35230, Note_on_c, 1, 67, 0
4, 35232, Note_on_c, 1, 54, 74
4, 35262, Note_on_c, 1, 54, 0
4, 35264, Note_on_c, 1, 57, 74
4, 35294, Note_on_c, 1, 57, 0
4, 35296, Note_on_c, 1, 60, 74
4, 35326, Note_on_c, 1, 60, 0
4, 35328, Note_on_c, 1, 55, 74
4, 35358, Note_on_c, 1, 55, 0
4, 35360, Note_on_c, 1, 59, 74
4, 35390, Note_on_c, 1, 59, 0
4, 35392, Note_on_c, 1, 62, 74
4, 35422, Note_on_c, 1, 62, 0
4, 35424, Note_on_c, 1, 55, 74
4, 35454, Note_on_c, 1, 55, 0
4, 35456, Note_on_c, 1, 59, 74
4, 35486, Note_on_c, 1, 59, 0
4, 35488, Note_on_c, 1, 62, 74
4, 35518, Note_on_c, 1, 62, 0
4, 35520, Note_on_c, 1, 55, 74
4, 35550, Note_on_c, 1, 55, 0
4, 35552, Note_on_c, 1, 59, 74
4, 35582, Note_on_c, 1, 59, 0
4, 35584, Note_on_c, 1, 62, 74
4, 35614, Note_on_c, 1, 62, 0
4, 35616, Note_on_c, 1, 54, 74
4, 35646, Note_on_c, 1, 54, 0
4, 35648, Note_on_c, 1, 57, 74
4, 35678, Note_on_c, 1, 57, 0
4, 35680, Note_on_c, 1, 60, 74
4, 35710, Note_on_c, 1, 60, 0
4, 35712, Note_on_c, 1, 55, 74
4, 35742, Note_on_c, 1, 55, 0
4, 35744, Note_on_c, 1, 59, 74
4, 35774, Note_on_c, 1, 59, 0
4, 35776, Note_on_c, 1, 62, 74
4, 35806, Note_on_c, 1, 62, 0
4, 35808, Note_on_c, 1, 55, 74
4, 35838, Note_on_c, 1, 55, 0
4, 35840, Note_on_c, 1, 59, 74
4, 35870, Note_on_c, 1, 59, 0
4, 35872, Note_on_c, 1, 62, 74
4, 35902, Note_on_c, 1, 62, 0
4, 35904, Note_on_c, 1, 55, 74
4, 35934, Note_on_c, 1, 55, 0
4, 35936, Note_on_c, 1, 59, 74
4, 35966, Note_on_c, 1, 59, 0
4, 35968, Note_on_c, 1, 62, 74
4, 35998, Note_on_c, 1, 62, 0
4, 36000, Note_on_c, 1, 55, 74
4, 36030, Note_on_c, 1, 55, 0
4, 36032, Note_on_c, 1, 59, 74
4, 36062, Note_on_c, 1, 59, 0
4, 36064, Note_on_c, 1, 62, 74
4, 36094, Note_on_c, 1, 62, 0
4, 36096, Note_on_c, 1, 54, 74
4, 36126, Note_on_c, 1, 54, 0
4, 36128, Note_on_c, 1, 57, 74
4, 36158, Note_on_c, 1, 57, 0
4, 36160, Note_on_c, 1, 62, 74
4, 36190, Note_on_c, 1, 62, 0
4, 36192, Note_on_c, 1, 54, 74
4, 36222, Note_on_c, 1, 54, 0
4, 36224, Note_on_c, 1, 57, 74
4, 36254, Note_on_c, 1, 57, 0
4, 36256, Note_on_c, 1, 62, 74
4, 36286, Note_on_c, 1, 62, 0
4, 36288, Note_on_c, 1, 55, 74
4, 36318, Note_on_c, 1, 55, 0
4, 36320, Note_on_c, 1, 59, 74
4, 36350, Note_on_c, 1, 59, 0
4, 36352, Note_on_c, 1, 62, 74
4, 36382, Note_on_c, 1, 62, 0
4, 36384, Note_on_c, 1, 55, 74
4, 36414, Note_on_c, 1, 55, 0
4, 36416, Note_on_c, 1, 59, 74
4, 36446, Note_on_c, 1, 59, 0
4, 36448, Note_on_c, 1, 62, 74
4, 36478, Note_on_c, 1, 62, 0
4, 36480, Note_on_c, 1, 60, 74
4, 36510, Note_on_c, 1, 60, 0
4, 36512, Note_on_c, 1, 62, 74
4, 36542, Note_on_c, 1, 62, 0
4, 36544, Note_on_c, 1, 66, 74
4, 36574, Note_on_c, 1, 66, 0
4, 36576, Note_on_c, 1, 60, 74
4, 36606, Note_on_c, 1, 60, 0
4, 36608, Note_on_c, 1, 62, 74
4, 36638, Note_on_c, 1, 62, 0
4, 36640, Note_on_c, 1, 66, 74
4, 36670, Note_on_c, 1, 66, 0
4, 36672, Note_on_c, 1, 59, 74
4, 36702, Note_on_c, 1, 59, 0
4, 36704, Note_on_c, 1, 62, 74
4, 36734, Note_on_c, 1, 62, 0
4, 36736, Note_on_c, 1, 67, 74
4, 36766, Note_on_c, 1, 67, 0
4, 36768, Note_on_c, 1, 59, 74
4, 36798, Note_on_c, 1, 59, 0
4, 36800, Note_on_c, 1, 62, 74
4, 36830, Note_on_c, 1, 62, 0
4, 36832, Note_on_c, 1, 67, 74
4, 36862, Note_on_c, 1, 67, 0
4, 36864, Note_on_c, 1, 54, 74
4, 36894, Note_on_c, 1, 54, 0
4, 36896, Note_on_c, 1, 57, 74
4, 36926, Note_on_c, 1, 57, 0
4, 36928, Note_on_c, 1, 62, 74
4, 36958, Note_on_c, 1, 62, 0
4, 36960, Note_on_c, 1, 54, 74
4, 36990, Note_on_c, 1, 54, 0
4, 36992, Note_on_c, 1, 57, 74
4, 37022, Note_on_c, 1, 57, 0
4, 37024, Note_on_c, 1, 62, 74
4, 37054, Note_on_c, 1, 62, 0
4, 37056, Note_on_c, 1, 55, 74
4, 37086, Note_on_c, 1, 55, 0
4, 37088, Note_on_c, 1, 59, 74
4, 37118, Note_on_c, 1, 59, 0
4, 37120, Note_on_c, 1, 62, 74
4, 37150, Note_on_c, 1, 62, 0
4, 37152, Note_on_c, 1, 55, 74
4, 37182, Note_on_c, 1, 55, 0
4, 37184, Note_on_c, 1, 59, 74
4, 37214, Note_on_c, 1, 59, 0
4, 37216, Note_on_c, 1, 62, 74
4, 37246, Note_on_c, 1, 62, 0
4, 37248, Note_on_c, 1, 60, 74
4, 37278, Note_on_c, 1, 60, 0
4, 37280, Note_on_c, 1, 62, 74
4, 37310, Note_on_c, 1, 62, 0
4, 37312, Note_on_c, 1, 66, 74
4, 37342, Note_on_c, 1, 66, 0
4, 37344, Note_on_c, 1, 60, 75
4, 37374, Note_on_c, 1, 60, 0
4, 37376, Note_on_c, 1, 62, 75
4, 37406, Note_on_c, 1, 62, 0
4, 37408, Note_on_c, 1, 66, 76
4, 37438, Note_on_c, 1, 66, 0
4, 37440, Note_on_c, 1, 59, 76
4, 37470, Note_on_c, 1, 59, 0
4, 37472, Note_on_c, 1, 62, 77
4, 37502, Note_on_c, 1, 62, 0
4, 37504, Note_on_c, 1, 67, 77
4, 37534, Note_on_c, 1, 67, 0
4, 37536, Note_on_c, 1, 59, 77
4, 37566, Note_on_c, 1, 59, 0
4, 37568, Note_on_c, 1, 62, 78
4, 37598, Note_on_c, 1, 62, 0
4, 37600, Note_on_c, 1, 67, 78
4, 37630, Note_on_c, 1, 67, 0
4, 37632, Note_on_c, 1, 60, 79
4, 37662, Note_on_c, 1, 60, 0
4, 37664, Note_on_c, 1, 64, 79
4, 37694, Note_on_c, 1, 64, 0
4, 37696, Note_on_c, 1, 69, 80
4, 37726, Note_on_c, 1, 69, 0
4, 37728, Note_on_c, 1, 60, 80
4, 37758, Note_on_c, 1, 60, 0
4, 37760, Note_on_c, 1, 64, 80
4, 37790, Note_on_c, 1, 64, 0
4, 37792, Note_on_c, 1, 69, 81
4, 37822, Note_on_c, 1, 69, 0
4, 37824, Note_on_c, 1, 61, 81
4, 37854, Note_on_c, 1, 61, 0
4, 37856, Note_on_c, 1, 64, 82
4, 37886, Note_on_c, 1, 64, 0
4, 37888, Note_on_c, 1, 69, 82
4, 37918, Note_on_c, 1, 69, 0
4, 37920, Note_on_c, 1, 61, 83
4, 37950, Note_on_c, 1, 61, 0
4, 37952, Note_on_c, 1, 64, 83
4, 37982, Note_on_c, 1, 64, 0
4, 37984, Note_on_c, 1, 69, 83
4, 38014, Note_on_c, 1, 69, 0
4, 38016, Note_on_c, 1, 62, 85
4, 38105, Note_on_c, 1, 62, 0
4, 38184, Note_on_c, 1, 62, 85
4, 38207, Note_on_c, 1, 62, 0
4, 38208, Note_on_c, 1, 66, 85
4, 38275, Note_on_c, 1, 66, 0
4, 38280, Note_on_c, 1, 62, 85
4, 38303, Note_on_c, 1, 62, 0
4, 38304, Note_on_c, 1, 69, 85
4, 38371, Note_on_c, 1, 69, 0
4, 38376, Note_on_c, 1, 66, 85
4, 38399, Note_on_c, 1, 66, 0
4, 38400, Note_on_c, 1, 74, 85
4, 38489, Note_on_c, 1, 74, 0
4, 38568, Note_on_c, 1, 50, 85
4, 38591, Note_on_c, 1, 50, 0
4, 38592, Note_on_c, 1, 54, 85
4, 38622, Note_on_c, 1, 54, 0
4, 38624, Note_on_c, 1, 50, 85
4, 38654, Note_on_c, 1, 50, 0
4, 38656, Note_on_c, 1, 54, 85
4, 38686, Note_on_c, 1, 54, 0
4, 38688, Note_on_c, 1, 57, 85
4, 38718, Note_on_c, 1, 57, 0
4, 38720, Note_on_c, 1, 54, 85
4, 38750, Note_on_c, 1, 54, 0
4, 38752, Note_on_c, 1, 57, 85
4, 38782, Note_on_c, 1, 57, 0
4, 38784, Note_on_c, 1, 62, 85
4, 38873, Note_on_c, 1, 62, 0
4, 38976, Note_on_c, 1, 38, 85
4, 39034, Note_on_c, 1, 38, 0
4, 39120, Note_on_c, 1, 38, 85
4, 39140, Note_on_c, 1, 38, 0
4, 39168, Note_on_c, 1, 38, 85
4, 39257, Note_on_c, 1, 38, 0
4, 39552, Note_on_c, 1, 59, 69
4, 39582, Note_on_c, 1, 59, 0
4, 39584, Note_on_c, 1, 62, 69
4, 39614, Note_on_c, 1, 62, 0
4, 39616, Note_on_c, 1, 67, 69
4, 39646, Note_on_c, 1, 67, 0
4, 39648, Note_on_c, 1, 59, 69
4, 39678, Note_on_c, 1, 59, 0
4, 39680, Note_on_c, 1, 62, 69
4, 39710, Note_on_c, 1, 62, 0
4, 39712, Note_on_c, 1, 67, 69
4, 39742, Note_on_c, 1, 67, 0
4, 39744, Note_on_c, 1, 59, 69
4, 39774, Note_on_c, 1, 59, 0
4, 39776, Note_on_c, 1, 62, 69
4, 39806, Note_on_c, 1, 62, 0
4, 39808, Note_on_c, 1, 67, 69
4, 39838, Note_on_c, 1, 67, 0
4, 39840, Note_on_c, 1, 60, 69
4, 39870, Note_on_c, 1, 60, 0
4, 39872, Note_on_c, 1, 62, 69
4, 39902, Note_on_c, 1, 62, 0
4, 39904, Note_on_c, 1, 66, 69
4, 39934, Note_on_c, 1, 66, 0
4, 39936, Note_on_c, 1, 59, 69
4, 39966, Note_on_c, 1, 59, 0
4, 39968, Note_on_c, 1, 62, 69
4, 39998, Note_on_c, 1, 62, 0
4, 40000, Note_on_c, 1, 67, 69
4, 40030, Note_on_c, 1, 67, 0
4, 40032, Note_on_c, 1, 59, 69
4, 40062, Note_on_c, 1, 59, 0
4, 40064, Note_on_c, 1, 62, 69
4, 40094, Note_on_c, 1, 62, 0
4, 40096, Note_on_c, 1, 67, 69
4, 40126, Note_on_c, 1, 67, 0
4, 40128, Note_on_c, 1, 59, 69
4, 40158, Note_on_c, 1, 59, 0
4, 40160, Note_on_c, 1, 62, 69
4, 40190, Note_on_c, 1, 62, 0
4, 40192, Note_on_c, 1, 67, 69
4, 40222, Note_on_c, 1, 67, 0
4, 40224, Note_on_c, 1, 60, 69
4, 40254, Note_on_c, 1, 60, 0
4, 40256, Note_on_c, 1, 62, 69
4, 40286, Note_on_c, 1, 62, 0
4, 40288, Note_on_c, 1, 66, 69
4, 40318, Note_on_c, 1, 66, 0
4, 40320, Note_on_c, 1, 59, 69
4, 40350, Note_on_c, 1, 59, 0
4, 40352, Note_on_c, 1, 62, 69
4, 40382, Note_on_c, 1, 62, 0
4, 40384, Note_on_c, 1, 67, 69
4, 40414, Note_on_c, 1, 67, 0
4, 40416, Note_on_c, 1, 59, 69
4, 40446, Note_on_c, 1, 59, 0
4, 40448, Note_on_c, 1, 62, 69
4, 40478, Note_on_c, 1, 62, 0
4, 40480, Note_on_c, 1, 67, 69
4, 40510, Note_on_c, 1, 67, 0
4, 40512, Note_on_c, 1, 59, 69
4, 40542, Note_on_c, 1, 59, 0
4, 40544, Note_on_c, 1, 62, 69
4, 40574, Note_on_c, 1, 62, 0
4, 40576, Note_on_c, 1, 67, 69
4, 40606, Note_on_c, 1, 67, 0
4, 40608, Note_on_c, 1, 60, 69
4, 40638, Note_on_c, 1, 60, 0
4, 40640, Note_on_c, 1, 62, 69
4, 40670, Note_on_c, 1, 62, 0
4, 40672, Note_on_c, 1, 66, 69
4, 40702, Note_on_c, 1, 66, 0
4, 40704, Note_on_c, 1, 59, 69
4, 40734, Note_on_c, 1, 59, 0
4, 40736, Note_on_c, 1, 62, 69
4, 40766, Note_on_c, 1, 62, 0
4, 40768, Note_on_c, 1, 67, 69
4, 40798, Note_on_c, 1, 67, 0
4, 40800, Note_on_c, 1, 59, 69
4, 40830, Note_on_c, 1, 59, 0
4, 40832, Note_on_c, 1, 62, 69
4, 40862, Note_on_c, 1, 62, 0
4, 40864, Note_on_c, 1, 67, 69
4, 40894, Note_on_c, 1, 67, 0
4, 40896, Note_on_c, 1, 54, 69
4, 40926, Note_on_c, 1, 54, 0
4, 40928, Note_on_c, 1, 57, 69
4, 40958, Note_on_c, 1, 57, 0
4, 40960, Note_on_c, 1, 62, 70
4, 40990, Note_on_c, 1, 62, 0
4, 40992, Note_on_c, 1, 54, 70
4, 41022, Note_on_c, 1, 54, 0
4, 41024, Note_on_c, 1, 57, 71
4, 41054, Note_on_c, 1, 57, 0
4, 41056, Note_on_c, 1, 62, 71
4, 41086, Note_on_c, 1, 62, 0
4, 41088, Note_on_c, 1, 55, 72
4, 41118, Note_on_c, 1, 55, 0
4, 41120, Note_on_c, 1, 59, 72
4, 41150, Note_on_c, 1, 59, 0
4, 41152, Note_on_c, 1, 62, 73
4, 41182, Note_on_c, 1, 62, 0
4, 41184, Note_on_c, 1, 55, 74
4, 41214, Note_on_c, 1, 55, 0
4, 41216, Note_on_c, 1, 59, 74
4, 41246, Note_on_c, 1, 59, 0
4, 41248, Note_on_c, 1, 62, 75
4, 41278, Note_on_c, 1, 62, 0
4, 41280, Note_on_c, 1, 52, 75
4, 41310, Note_on_c, 1, 52, 0
4, 41312, Note_on_c, 1, 55, 76
4, 41342, Note_on_c, 1, 55, 0
4, 41344, Note_on_c, 1, 60, 76
4, 41374, Note_on_c, 1, 60, 0
4, 41376, Note_on_c, 1, 52, 77
4, 41406, Note_on_c, 1, 52, 0
4, 41408, Note_on_c, 1, 55, 77
4, 41438, Note_on_c, 1, 55, 0
4, 41440, Note_on_c, 1, 60, 78
4, 41470, Note_on_c, 1, 60, 0
4, 41472, Note_on_c, 1, 47, 79
4, 41502, Note_on_c, 1, 47, 0
4, 41504, Note_on_c, 1, 50, 79
4, 41534, Note_on_c, 1, 50, 0
4, 41536, Note_on_c, 1, 55, 80
4, 41566, Note_on_c, 1, 55, 0
4, 41568, Note_on_c, 1, 47, 80
4, 41598, Note_on_c, 1, 47, 0
4, 41600, Note_on_c, 1, 50, 81
4, 41630, Note_on_c, 1, 50, 0
4, 41632, Note_on_c, 1, 55, 81
4, 41662, Note_on_c, 1, 55, 0
4, 41664, Note_on_c, 1, 47, 82
4, 41753, Note_on_c, 1, 47, 0
4, 41856, Note_on_c, 1, 48, 85
4, 41945, Note_on_c, 1, 48, 0
4, 42624, Note_on_c, 1, 71, 69
4, 42801, Note_on_c, 1, 71, 0
4, 42816, Note_on_c, 1, 72, 69
4, 42993, Note_on_c, 1, 72, 0
4, 43008, Note_on_c, 1, 71, 69
4, 43008, Note_on_c, 1, 67, 69
4, 43097, Note_on_c, 1, 71, 0
4, 43097, Note_on_c, 1, 67, 0
4, 43296, Note_on_c, 1, 79, 64
4, 43392, Note_on_c, 1, 79, 0
4, 43392, Note_on_c, 1, 81, 64
4, 43392, Note_on_c, 1, 78, 64
4, 43431, Note_on_c, 1, 81, 0
4, 43431, Note_on_c, 1, 78, 0
4, 43680, Note_on_c, 1, 76, 64
4, 43776, Note_on_c, 1, 76, 0
4, 43776, Note_on_c, 1, 78, 64
4, 43776, Note_on_c, 1, 74, 64
4, 43815, Note_on_c, 1, 78, 0
4, 43815, Note_on_c, 1, 74, 0
4, 44064, Note_on_c, 1, 72, 64
4, 44160, Note_on_c, 1, 72, 0
4, 44160, Note_on_c, 1, 74, 64
4, 44160, Note_on_c, 1, 71, 64
4, 44199, Note_on_c, 1, 74, 0
4, 44199, Note_on_c, 1, 71, 0
4, 44448, Note_on_c, 1, 71, 64
4, 44448, Note_on_c, 1, 67, 64
4, 44537, Note_on_c, 1, 71, 0
4, 44537, Note_on_c, 1, 67, 0
4, 44544, Note_on_c, 1, 72, 64
4, 44544, Note_on_c, 1, 60, 64
4, 44633, Note_on_c, 1, 72, 0
4, 44633, Note_on_c, 1, 60, 0
4, 44736, Note_on_c, 1, 69, 64
4, 44736, Note_on_c, 1, 62, 64
4, 44825, Note_on_c, 1, 69, 0
4, 44825, Note_on_c, 1, 62, 0
4, 44928, Note_on_c, 1, 71, 64
4, 44928, Note_on_c, 1, 67, 64
4, 45017, Note_on_c, 1, 71, 0
4, 45017, Note_on_c, 1, 67, 0
4, 45216, Note_on_c, 1, 79, 85
4, 45312, Note_on_c, 1, 79, 0
4, 45312, Note_on_c, 1, 78, 69
4, 45351, Note_on_c, 1, 78, 0
4, 45408, Note_on_c, 1, 78, 69
4, 45447, Note_on_c, 1, 78, 0
4, 45504, Note_on_c, 1, 78, 69
4, 45543, Note_on_c, 1, 78, 0
4, 45600, Note_on_c, 1, 79, 85
4, 45696, Note_on_c, 1, 79, 0
4, 45696, Note_on_c, 1, 78, 69
4, 45735, Note_on_c, 1, 78, 0
4, 45792, Note_on_c, 1, 78, 69
4, 45831, Note_on_c, 1, 78, 0
4, 45888, Note_on_c, 1, 78, 69
4, 45927, Note_on_c, 1, 78, 0
4, 45984, Note_on_c, 1, 76, 85
4, 46080, Note_on_c, 1, 76, 0
4, 46080, Note_on_c, 1, 74, 69
4, 46119, Note_on_c, 1, 74, 0
4, 46176, Note_on_c, 1, 74, 69
4, 46215, Note_on_c, 1, 74, 0
4, 46272, Note_on_c, 1, 74, 69
4, 46311, Note_on_c, 1, 74, 0
4, 46368, Note_on_c, 1, 76, 85
4, 46464, Note_on_c, 1, 76, 0
4, 46464, Note_on_c, 1, 74, 69
4, 46503, Note_on_c, 1, 74, 0
4, 46560, Note_on_c, 1, 74, 69
4, 46599, Note_on_c, 1, 74, 0
4, 46656, Note_on_c, 1, 74, 69
4, 46695, Note_on_c, 1, 74, 0
4, 46752, Note_on_c, 1, 72, 85
4, 46848, Note_on_c, 1, 72, 0
4, 46848, Note_on_c, 1, 71, 69
4, 46887, Note_on_c, 1, 71, 0
4, 46944, Note_on_c, 1, 71, 69
4, 46983, Note_on_c, 1, 71, 0
4, 47040, Note_on_c, 1, 71, 69
4, 47079, Note_on_c, 1, 71, 0
4, 47136, Note_on_c, 1, 72, 85
4, 47232, Note_on_c, 1, 72, 0
4, 47232, Note_on_c, 1, 71, 69
4, 47271, Note_on_c, 1, 71, 0
4, 47328, Note_on_c, 1, 71, 69
4, 47367, Note_on_c, 1, 71, 0
4, 47424, Note_on_c, 1, 71, 71
4, 47463, Note_on_c, 1, 71, 0
4, 47520, Note_on_c, 1, 72, 73
4, 47616, Note_on_c, 1, 72, 0
4, 47616, Note_on_c, 1, 71, 75
4, 47655, Note_on_c, 1, 71, 0
4, 47712, Note_on_c, 1, 66, 77
4, 47801, Note_on_c, 1, 66, 0
4, 47808, Note_on_c, 1, 67, 79
4, 47897, Note_on_c, 1, 67, 0
4, 47904, Note_on_c, 1, 69, 81
4, 47993, Note_on_c, 1, 69, 0
4, 48000, Note_on_c, 1, 71, 83
4, 48089, Note_on_c, 1, 71, 0
4, 48480, Note_on_c, 1, 60, 81
4, 48569, Note_on_c, 1, 60, 0
4, 48576, Note_on_c, 1, 59, 77
4, 48665, Note_on_c, 1, 59, 0
4, 48672, Note_on_c, 1, 57, 73
4, 48761, Note_on_c, 1, 57, 0
4, 48768, Note_on_c, 1, 55, 85
4, 48768, Note_on_c, 1, 50, 85
4, 48768, Note_on_c, 1, 47, 85
4, 48945, Note_on_c, 1, 55, 0
4, 48945, Note_on_c, 1, 50, 0
4, 48945, Note_on_c, 1, 47, 0
4, 49248, Note_on_c, 1, 60, 81
4, 49337, Note_on_c, 1, 60, 0
4, 49344, Note_on_c, 1, 59, 77
4, 49433, Note_on_c, 1, 59, 0
4, 49440, Note_on_c, 1, 57, 73
4, 49529, Note_on_c, 1, 57, 0
4, 49536, Note_on_c, 1, 55, 74
4, 49566, Note_on_c, 1, 55, 0
4, 49568, Note_on_c, 1, 59, 74
4, 49598, Note_on_c, 1, 59, 0
4, 49600, Note_on_c, 1, 62, 74
4, 49630, Note_on_c, 1, 62, 0
4, 49632, Note_on_c, 1, 55, 74
4, 49662, Note_on_c, 1, 55, 0
4, 49664, Note_on_c, 1, 59, 74
4, 49694, Note_on_c, 1, 59, 0
4, 49696, Note_on_c, 1, 62, 74
4, 49726, Note_on_c, 1, 62, 0
4, 49728, Note_on_c, 1, 55, 74
4, 49758, Note_on_c, 1, 55, 0
4, 49760, Note_on_c, 1, 59, 74
4, 49790, Note_on_c, 1, 59, 0
4, 49792, Note_on_c, 1, 62, 74
4, 49822, Note_on_c, 1, 62, 0
4, 49824, Note_on_c, 1, 50, 74
4, 49854, Note_on_c, 1, 50, 0
4, 49856, Note_on_c, 1, 54, 74
4, 49886, Note_on_c, 1, 54, 0
4, 49888, Note_on_c, 1, 62, 74
4, 49918, Note_on_c, 1, 62, 0
4, 49920, Note_on_c, 1, 55, 74
4, 49950, Note_on_c, 1, 55, 0
4, 49952, Note_on_c, 1, 59, 74
4, 49982, Note_on_c, 1, 59, 0
4, 49984, Note_on_c, 1, 62, 74
4, 50014, Note_on_c, 1, 62, 0
4, 50016, Note_on_c, 1, 55, 74
4, 50046, Note_on_c, 1, 55, 0
4, 50048, Note_on_c, 1, 59, 74
4, 50078, Note_on_c, 1, 59, 0
4, 50080, Note_on_c, 1, 62, 74
4, 50110, Note_on_c, 1, 62, 0
4, 50112, Note_on_c, 1, 55, 74
4, 50142, Note_on_c, 1, 55, 0
4, 50144, Note_on_c, 1, 59, 74
4, 50174, Note_on_c, 1, 59, 0
4, 50176, Note_on_c, 1, 62, 74
4, 50206, Note_on_c, 1, 62, 0
4, 50208, Note_on_c, 1, 50, 74
4, 50238, Note_on_c, 1, 50, 0
4, 50240, Note_on_c, 1, 54, 74
4, 50270, Note_on_c, 1, 54, 0
4, 50272, Note_on_c, 1, 62, 74
4, 50302, Note_on_c, 1, 62, 0
4, 50304, Note_on_c, 1, 55, 74
4, 50334, Note_on_c, 1, 55, 0
4, 50336, Note_on_c, 1, 59, 74
4, 50366, Note_on_c, 1, 59, 0
4, 50368, Note_on_c, 1, 62, 74
4, 50398, Note_on_c, 1, 62, 0
4, 50400, Note_on_c, 1, 55, 74
4, 50430, Note_on_c, 1, 55, 0
4, 50432, Note_on_c, 1, 59, 74
4, 50462, Note_on_c, 1, 59, 0
4, 50464, Note_on_c, 1, 62, 74
4, 50494, Note_on_c, 1, 62, 0
4, 50496, Note_on_c, 1, 55, 74
4, 50526, Note_on_c, 1, 55, 0
4, 50528, Note_on_c, 1, 59, 74
4, 50558, Note_on_c, 1, 59, 0
4, 50560, Note_on_c, 1, 62, 74
4, 50590, Note_on_c, 1, 62, 0
4, 50592, Note_on_c, 1, 50, 74
4, 50622, Note_on_c, 1, 50, 0
4, 50624, Note_on_c, 1, 54, 74
4, 50654, Note_on_c, 1, 54, 0
4, 50656, Note_on_c, 1, 62, 74
4, 50686, Note_on_c, 1, 62, 0
4, 50688, Note_on_c, 1, 55, 74
4, 50718, Note_on_c, 1, 55, 0
4, 50720, Note_on_c, 1, 59, 74
4, 50750, Note_on_c, 1, 59, 0
4, 50752, Note_on_c, 1, 62, 74
4, 50782, Note_on_c, 1, 62, 0
4, 50784, Note_on_c, 1, 55, 74
4, 50814, Note_on_c, 1, 55, 0
4, 50816, Note_on_c, 1, 59, 74
4, 50846, Note_on_c, 1, 59, 0
4, 50848, Note_on_c, 1, 62, 74
4, 50878, Note_on_c, 1, 62, 0
4, 50880, Note_on_c, 1, 55, 74
4, 50910, Note_on_c, 1, 55, 0
4, 50912, Note_on_c, 1, 59, 74
4, 50942, Note_on_c, 1, 59, 0
4, 50944, Note_on_c, 1, 62, 74
4, 50974, Note_on_c, 1, 62, 0
4, 50976, Note_on_c, 1, 50, 74
4, 51006, Note_on_c, 1, 50, 0
4, 51008, Note_on_c, 1, 54, 74
4, 51038, Note_on_c, 1, 54, 0
4, 51040, Note_on_c, 1, 62, 74
4, 51070, Note_on_c, 1, 62, 0
4, 51072, Note_on_c, 1, 55, 74
4, 51102, Note_on_c, 1, 55, 0
4, 51104, Note_on_c, 1, 59, 73
4, 51134, Note_on_c, 1, 59, 0
4, 51136, Note_on_c, 1, 62, 73
4, 51166, Note_on_c, 1, 62, 0
4, 51168, Note_on_c, 1, 55, 73
4, 51198, Note_on_c, 1, 55, 0
4, 51200, Note_on_c, 1, 59, 72
4, 51230, Note_on_c, 1, 59, 0
4, 51232, Note_on_c, 1, 62, 72
4, 51262, Note_on_c, 1, 62, 0
4, 51264, Note_on_c, 1, 55, 72
4, 51294, Note_on_c, 1, 55, 0
4, 51296, Note_on_c, 1, 59, 72
4, 51326, Note_on_c, 1, 59, 0
4, 51328, Note_on_c, 1, 62, 71
4, 51358, Note_on_c, 1, 62, 0
4, 51360, Note_on_c, 1, 55, 71
4, 51390, Note_on_c, 1, 55, 0
4, 51392, Note_on_c, 1, 59, 71
4, 51422, Note_on_c, 1, 59, 0
4, 51424, Note_on_c, 1, 62, 70
4, 51454, Note_on_c, 1, 62, 0
4, 51456, Note_on_c, 1, 55, 70
4, 51589, Note_on_c, 1, 55, 0
4, 51840, Note_on_c, 1, 67, 74
4, 51840, Note_on_c, 1, 59, 74
4, 51879, Note_on_c, 1, 67, 0
4, 51879, Note_on_c, 1, 59, 0
4, 52032, Note_on_c, 1, 67, 74
4, 52032, Note_on_c, 1, 60, 74
4, 52071, Note_on_c, 1, 67, 0
4, 52071, Note_on_c, 1, 60, 0
4, 52224, Note_on_c, 1, 67, 74
4, 52224, Note_on_c, 1, 65, 74
4, 52263, Note_on_c, 1, 67, 0
4, 52263, Note_on_c, 1, 65, 0
4, 52416, Note_on_c, 1, 67, 74
4, 52416, Note_on_c, 1, 64, 74
4, 52455, Note_on_c, 1, 67, 0
4, 52455, Note_on_c, 1, 64, 0
4, 52608, Note_on_c, 1, 52, 85
4, 52608, Note_on_c, 1, 40, 85
4, 52647, Note_on_c, 1, 52, 0
4, 52647, Note_on_c, 1, 40, 0
4, 52800, Note_on_c, 1, 52, 85
4, 52800, Note_on_c, 1, 40, 85
4, 52839, Note_on_c, 1, 52, 0
4, 52839, Note_on_c, 1, 40, 0
4, 52992, Note_on_c, 1, 52, 85
4, 52992, Note_on_c, 1, 40, 85
4, 53553, Note_on_c, 1, 52, 0
4, 53553, Note_on_c, 1, 40, 0
4, 53760, Note_on_c, 1, 53, 69
4, 53790, Note_on_c, 1, 53, 0
4, 53792, Note_on_c, 1, 57, 69
4, 53822, Note_on_c, 1, 57, 0
4, 53824, Note_on_c, 1, 60, 69
4, 53854, Note_on_c, 1, 60, 0
4, 53856, Note_on_c, 1, 53, 69
4, 53886, Note_on_c, 1, 53, 0
4, 53888, Note_on_c, 1, 57, 69
4, 53918, Note_on_c, 1, 57, 0
4, 53920, Note_on_c, 1, 60, 69
4, 53950, Note_on_c, 1, 60, 0
4, 53952, Note_on_c, 1, 53, 69
4, 53982, Note_on_c, 1, 53, 0
4, 53984, Note_on_c, 1, 57, 69
4, 54014, Note_on_c, 1, 57, 0
4, 54016, Note_on_c, 1, 60, 69
4, 54046, Note_on_c, 1, 60, 0
4, 54048, Note_on_c, 1, 53, 69
4, 54078, Note_on_c, 1, 53, 0
4, 54080, Note_on_c, 1, 57, 69
4, 54110, Note_on_c, 1, 57, 0
4, 54112, Note_on_c, 1, 60, 69
4, 54142, Note_on_c, 1, 60, 0
4, 54144, Note_on_c, 1, 53, 69
4, 54174, Note_on_c, 1, 53, 0
4, 54176, Note_on_c, 1, 57, 69
4, 54206, Note_on_c, 1, 57, 0
4, 54208, Note_on_c, 1, 60, 69
4, 54238, Note_on_c, 1, 60, 0
4, 54240, Note_on_c, 1, 53, 69
4, 54270, Note_on_c, 1, 53, 0
4, 54272, Note_on_c, 1, 57, 69
4, 54302, Note_on_c, 1, 57, 0
4, 54304, Note_on_c, 1, 60, 69
4, 54334, Note_on_c, 1, 60, 0
4, 54336, Note_on_c, 1, 53, 69
4, 54366, Note_on_c, 1, 53, 0
4, 54368, Note_on_c, 1, 57, 69
4, 54398, Note_on_c, 1, 57, 0
4, 54400, Note_on_c, 1, 60, 69
4, 54430, Note_on_c, 1, 60, 0
4, 54432, Note_on_c, 1, 53, 69
4, 54462, Note_on_c, 1, 53, 0
4, 54464, Note_on_c, 1, 57, 69
4, 54494, Note_on_c, 1, 57, 0
4, 54496, Note_on_c, 1, 60, 69
4, 54526, Note_on_c, 1, 60, 0
4, 54528, Note_on_c, 1, 55, 69
4, 54558, Note_on_c, 1, 55, 0
4, 54560, Note_on_c, 1, 58, 69
4, 54590, Note_on_c, 1, 58, 0
4, 54592, Note_on_c, 1, 60, 69
4, 54622, Note_on_c, 1, 60, 0
4, 54624, Note_on_c, 1, 55, 69
4, 54654, Note_on_c, 1, 55, 0
4, 54656, Note_on_c, 1, 58, 69
4, 54686, Note_on_c, 1, 58, 0
4, 54688, Note_on_c, 1, 60, 69
4, 54718, Note_on_c, 1, 60, 0
4, 54720, Note_on_c, 1, 53, 69
4, 54750, Note_on_c, 1, 53, 0
4, 54752, Note_on_c, 1, 57, 69
4, 54782, Note_on_c, 1, 57, 0
4, 54784, Note_on_c, 1, 60, 69
4, 54814, Note_on_c, 1, 60, 0
4, 54816, Note_on_c, 1, 53, 69
4, 54846, Note_on_c, 1, 53, 0
4, 54848, Note_on_c, 1, 57, 69
4, 54878, Note_on_c, 1, 57, 0
4, 54880, Note_on_c, 1, 60, 69
4, 54910, Note_on_c, 1, 60, 0
4, 54912, Note_on_c, 1, 52, 69
4, 54942, Note_on_c, 1, 52, 0
4, 54944, Note_on_c, 1, 55, 69
4, 54974, Note_on_c, 1, 55, 0
4, 54976, Note_on_c, 1, 60, 69
4, 55006, Note_on_c, 1, 60, 0
4, 55008, Note_on_c, 1, 52, 69
4, 55038, Note_on_c, 1, 52, 0
4, 55040, Note_on_c, 1, 55, 69
4, 55070, Note_on_c, 1, 55, 0
4, 55072, Note_on_c, 1, 60, 69
4, 55102, Note_on_c, 1, 60, 0
4, 55104, Note_on_c, 1, 52, 69
4, 55134, Note_on_c, 1, 52, 0
4, 55136, Note_on_c, 1, 55, 69
4, 55166, Note_on_c, 1, 55, 0
4, 55168, Note_on_c, 1, 60, 69
4, 55198, Note_on_c, 1, 60, 0
4, 55200, Note_on_c, 1, 52, 69
4, 55230, Note_on_c, 1, 52, 0
4, 55232, Note_on_c, 1, 55, 69
4, 55262, Note_on_c, 1, 55, 0
4, 55264, Note_on_c, 1, 60, 69
4, 55294, Note_on_c, 1, 60, 0
4, 55296, Note_on_c, 1, 52, 69
4, 55326, Note_on_c, 1, 52, 0
4, 55328, Note_on_c, 1, 55, 69
4, 55358, Note_on_c, 1, 55, 0
4, 55360, Note_on_c, 1, 60, 69
4, 55390, Note_on_c, 1, 60, 0
4, 55392, Note_on_c, 1, 52, 69
4, 55422, Note_on_c, 1, 52, 0
4, 55424, Note_on_c, 1, 55, 69
4, 55454, Note_on_c, 1, 55, 0
4, 55456, Note_on_c, 1, 60, 69
4, 55486, Note_on_c, 1, 60, 0
4, 55488, Note_on_c, 1, 53, 69
4, 55518, Note_on_c, 1, 53, 0
4, 55520, Note_on_c, 1, 57, 69
4, 55550, Note_on_c, 1, 57, 0
4, 55552, Note_on_c, 1, 60, 69
4, 55582, Note_on_c, 1, 60, 0
4, 55584, Note_on_c, 1, 53, 69
4, 55614, Note_on_c, 1, 53, 0
4, 55616, Note_on_c, 1, 57, 69
4, 55646, Note_on_c, 1, 57, 0
4, 55648, Note_on_c, 1, 60, 69
4, 55678, Note_on_c, 1, 60, 0
4, 55680, Note_on_c, 1, 58, 69
4, 55710, Note_on_c, 1, 58, 0
4, 55712, Note_on_c, 1, 60, 69
4, 55742, Note_on_c, 1, 60, 0
4, 55744, Note_on_c, 1, 64, 69
4, 55774, Note_on_c, 1, 64, 0
4, 55776, Note_on_c, 1, 58, 69
4, 55806, Note_on_c, 1, 58, 0
4, 55808, Note_on_c, 1, 60, 69
4, 55838, Note_on_c, 1, 60, 0
4, 55840, Note_on_c, 1, 64, 69
4, 55870, Note_on_c, 1, 64, 0
4, 55872, Note_on_c, 1, 57, 69
4, 55902, Note_on_c, 1, 57, 0
4, 55904, Note_on_c, 1, 60, 69
4, 55934, Note_on_c, 1, 60, 0
4, 55936, Note_on_c, 1, 65, 69
4, 55966, Note_on_c, 1, 65, 0
4, 55968, Note_on_c, 1, 57, 69
4, 55998, Note_on_c, 1, 57, 0
4, 56000, Note_on_c, 1, 60, 69
4, 56030, Note_on_c, 1, 60, 0
4, 56032, Note_on_c, 1, 65, 69
4, 56062, Note_on_c, 1, 65, 0
4, 56064, Note_on_c, 1, 58, 69
4, 56094, Note_on_c, 1, 58, 0
4, 56096, Note_on_c, 1, 62, 69
4, 56126, Note_on_c, 1, 62, 0
4, 56128, Note_on_c, 1, 65, 69
4, 56158, Note_on_c, 1, 65, 0
4, 56160, Note_on_c, 1, 58, 69
4, 56190, Note_on_c, 1, 58, 0
4, 56192, Note_on_c, 1, 62, 69
4, 56222, Note_on_c, 1, 62, 0
4, 56224, Note_on_c, 1, 65, 69
4, 56254, Note_on_c, 1, 65, 0
4, 56256, Note_on_c, 1, 60, 69
4, 56286, Note_on_c, 1, 60, 0
4, 56288, Note_on_c, 1, 64, 69
4, 56318, Note_on_c, 1, 64, 0
4, 56320, Note_on_c, 1, 67, 69
4, 56350, Note_on_c, 1, 67, 0
4, 56352, Note_on_c, 1, 60, 69
4, 56382, Note_on_c, 1, 60, 0
4, 56384, Note_on_c, 1, 64, 69
4, 56414, Note_on_c, 1, 64, 0
4, 56416, Note_on_c, 1, 67, 69
4, 56446, Note_on_c, 1, 67, 0
4, 56448, Note_on_c, 1, 65, 69
4, 56537, Note_on_c, 1, 65, 0
4, 56736, Note_on_c, 1, 67, 85
4, 56736, Note_on_c, 1, 60, 85
4, 56825, Note_on_c, 1, 67, 0
4, 56825, Note_on_c, 1, 60, 0
4, 56832, Note_on_c, 1, 65, 74
4, 56871, Note_on_c, 1, 65, 0
4, 57120, Note_on_c, 1, 67, 85
4, 57120, Note_on_c, 1, 60, 85
4, 57209, Note_on_c, 1, 67, 0
4, 57209, Note_on_c, 1, 60, 0
4, 57216, Note_on_c, 1, 65, 74
4, 57255, Note_on_c, 1, 65, 0
4, 57504, Note_on_c, 1, 69, 85
4, 57504, Note_on_c, 1, 62, 85
4, 57593, Note_on_c, 1, 69, 0
4, 57593, Note_on_c, 1, 62, 0
4, 57600, Note_on_c, 1, 67, 79
4, 57639, Note_on_c, 1, 67, 0
4, 57888, Note_on_c, 1, 71, 85
4, 57888, Note_on_c, 1, 64, 85
4, 57977, Note_on_c, 1, 71, 0
4, 57977, Note_on_c, 1, 64, 0
4, 57984, Note_on_c, 1, 69, 74
4, 58023, Note_on_c, 1, 69, 0
4, 58272, Note_on_c, 1, 68, 85
4, 58361, Note_on_c, 1, 68, 0
4, 58368, Note_on_c, 1, 69, 85
4, 58457, Note_on_c, 1, 69, 0
4, 58464, Note_on_c, 1, 71, 85
4, 58553, Note_on_c, 1, 71, 0
4, 58560, Note_on_c, 1, 72, 85
4, 58649, Note_on_c, 1, 72, 0
4, 58656, Note_on_c, 1, 69, 85
4, 58745, Note_on_c, 1, 69, 0
4, 58752, Note_on_c, 1, 68, 85
4, 58841, Note_on_c, 1, 68, 0
4, 58848, Note_on_c, 1, 69, 85
4, 58937, Note_on_c, 1, 69, 0
4, 58944, Note_on_c, 1, 68, 85
4, 59033, Note_on_c, 1, 68, 0
4, 59040, Note_on_c, 1, 64, 85
4, 59129, Note_on_c, 1, 64, 0
4, 59136, Note_on_c, 1, 65, 85
4, 59225, Note_on_c, 1, 65, 0
4, 59232, Note_on_c, 1, 69, 85
4, 59321, Note_on_c, 1, 69, 0
4, 59328, Note_on_c, 1, 71, 85
4, 59417, Note_on_c, 1, 71, 0
4, 59424, Note_on_c, 1, 74, 85
4, 59513, Note_on_c, 1, 74, 0
4, 59520, Note_on_c, 1, 64, 85
4, 59609, Note_on_c, 1, 64, 0
4, 59616, Note_on_c, 1, 68, 85
4, 59705, Note_on_c, 1, 68, 0
4, 59712, Note_on_c, 1, 69, 85
4, 59801, Note_on_c, 1, 69, 0
4, 59808, Note_on_c, 1, 73, 85
4, 59897, Note_on_c, 1, 73, 0
4, 59904, Note_on_c, 1, 62, 85
4, 59993, Note_on_c, 1, 62, 0
4, 60000, Note_on_c, 1, 66, 85
4, 60089, Note_on_c, 1, 66, 0
4, 60096, Note_on_c, 1, 67, 85
4, 60185, Note_on_c, 1, 67, 0
4, 60192, Note_on_c, 1, 71, 85
4, 60281, Note_on_c, 1, 71, 0
4, 60288, Note_on_c, 1, 60, 85
4, 60377, Note_on_c, 1, 60, 0
4, 60384, Note_on_c, 1, 64, 85
4, 60473, Note_on_c, 1, 64, 0
4, 60480, Note_on_c, 1, 65, 85
4, 60569, Note_on_c, 1, 65, 0
4, 60576, Note_on_c, 1, 69, 85
4, 60665, Note_on_c, 1, 69, 0
4, 60672, Note_on_c, 1, 64, 85
4, 60761, Note_on_c, 1, 64, 0
4, 60768, Note_on_c, 1, 60, 85
4, 60857, Note_on_c, 1, 60, 0
4, 60864, Note_on_c, 1, 65, 85
4, 60953, Note_on_c, 1, 65, 0
4, 60960, Note_on_c, 1, 69, 85
4, 61049, Note_on_c, 1, 69, 0
4, 61056, Note_on_c, 1, 53, 92
4, 61056, Note_on_c, 1, 41, 92
4, 61145, Note_on_c, 1, 53, 0
4, 61145, Note_on_c, 1, 41, 0
4, 61152, Note_on_c, 1, 57, 92
4, 61152, Note_on_c, 1, 45, 92
4, 61241, Note_on_c, 1, 57, 0
4, 61241, Note_on_c, 1, 45, 0
4, 61248, Note_on_c, 1, 52, 92
4, 61248, Note_on_c, 1, 40, 92
4, 61337, Note_on_c, 1, 52, 0
4, 61337, Note_on_c, 1, 40, 0
4, 61344, Note_on_c, 1, 57, 92
4, 61344, Note_on_c, 1, 45, 92
4, 61433, Note_on_c, 1, 57, 0
4, 61433, Note_on_c, 1, 45, 0
4, 61440, Control_c, 1, 64, 127
4, 61440, Note_on_c, 1, 51, 92
4, 61440, Note_on_c, 1, 39, 92
4, 61529, Note_on_c, 1, 51, 0
4, 61529, Note_on_c, 1, 39, 0
4, 61536, Note_on_c, 1, 54, 92
4, 61536, Note_on_c, 1, 42, 92
4, 61625, Note_on_c, 1, 54, 0
4, 61625, Note_on_c, 1, 42, 0
4, 61632, Note_on_c, 1, 57, 92
4, 61632, Note_on_c, 1, 45, 92
4, 61721, Note_on_c, 1, 57, 0
4, 61721, Note_on_c, 1, 45, 0
4, 61728, Note_on_c, 1, 60, 92
4, 61728, Note_on_c, 1, 48, 92
4, 61817, Note_on_c, 1, 60, 0
4, 61817, Note_on_c, 1, 48, 0
4, 61824, Note_on_c, 1, 63, 92
4, 61824, Note_on_c, 1, 51, 92
4, 61913, Note_on_c, 1, 63, 0
4, 61913, Note_on_c, 1, 51, 0
4, 61920, Note_on_c, 1, 66, 92
4, 61920, Note_on_c, 1, 54, 92
4, 62009, Note_on_c, 1, 66, 0
4, 62009, Note_on_c, 1, 54, 0
4, 62016, Note_on_c, 1, 69, 92
4, 62016, Note_on_c, 1, 57, 92
4, 62105, Note_on_c, 1, 69, 0
4, 62105, Note_on_c, 1, 57, 0
4, 62112, Note_on_c, 1, 51, 92
4, 62112, Note_on_c, 1, 39, 92
4, 62201, Note_on_c, 1, 51, 0
4, 62201, Note_on_c, 1, 39, 0
4, 62208, Control_c, 1, 64, 0
4, 62208, Note_on_c, 1, 52, 92
4, 62208, Note_on_c, 1, 40, 92
4, 63330, Note_on_c, 1, 52, 0
4, 63330, Note_on_c, 1, 40, 0
4, 63360, Note_on_c, 1, 57, 92
4, 63360, Note_on_c, 1, 45, 92
4, 63537, Note_on_c, 1, 57, 0
4, 63537, Note_on_c, 1, 45, 0
4, 63552, Note_on_c, 1, 48, 92
4, 63552, Note_on_c, 1, 36, 92
4, 63729, Note_on_c, 1, 48, 0
4, 63729, Note_on_c, 1, 36, 0
4, 63744, Note_on_c, 1, 50, 92
4, 63744, Note_on_c, 1, 38, 92
4, 63921, Note_on_c, 1, 50, 0
4, 63921, Note_on_c, 1, 38, 0
4, 63936, Note_on_c, 1, 52, 92
4, 63936, Note_on_c, 1, 40, 92
4, 64113, Note_on_c, 1, 52, 0
4, 64113, Note_on_c, 1, 40, 0
4, 64704, Note_on_c, 1, 57, 69
4, 64793, Note_on_c, 1, 57, 0
4, 64800, Note_on_c, 1, 55, 69
4, 64889, Note_on_c, 1, 55, 0
4, 64896, Note_on_c, 1, 53, 85
4, 64896, Note_on_c, 1, 50, 85
4, 65161, Note_on_c, 1, 53, 0
4, 65161, Note_on_c, 1, 50, 0
4, 65184, Note_on_c, 1, 52, 85
4, 65184, Note_on_c, 1, 48, 85
4, 65273, Note_on_c, 1, 52, 0
4, 65273, Note_on_c, 1, 48, 0
4, 65280, Note_on_c, 1, 50, 85
4, 65280, Note_on_c, 1, 47, 85
4, 65545, Note_on_c, 1, 50, 0
4, 65545, Note_on_c, 1, 47, 0
4, 65568, Note_on_c, 1, 48, 85
4, 65568, Note_on_c, 1, 45, 85
4, 65657, Note_on_c, 1, 48, 0
4, 65657, Note_on_c, 1, 45, 0
4, 65664, Note_on_c, 1, 47, 69
4, 65664, Note_on_c, 1, 43, 69
4, 66402, Note_on_c, 1, 47, 0
4, 66402, Note_on_c, 1, 43, 0
4, 67200, Control_c, 1, 64, 127
4, 67200, Note_on_c, 1, 59, 74
4, 67200, Note_on_c, 1, 55, 74
4, 67554, Note_on_c, 1, 59, 0
4, 67554, Note_on_c, 1, 55, 0
4, 67584, Control_c, 1, 64, 0
4, 67680, Control_c, 1, 64, 0
4, 67968, Note_on_c, 1, 55, 85
4, 67988, Note_on_c, 1, 55, 0
4, 68016, Note_on_c, 1, 55, 85
4, 68061, Note_on_c, 1, 55, 0
4, 68064, Note_on_c, 1, 57, 85
4, 68109, Note_on_c, 1, 57, 0
4, 68112, Note_on_c, 1, 59, 85
4, 68157, Note_on_c, 1, 59, 0
4, 68160, Note_on_c, 1, 60, 85
4, 68205, Note_on_c, 1, 60, 0
4, 68208, Note_on_c, 1, 62, 85
4, 68253, Note_on_c, 1, 62, 0
4, 68256, Note_on_c, 1, 64, 85
4, 68301, Note_on_c, 1, 64, 0
4, 68304, Note_on_c, 1, 66, 85
4, 68349, Note_on_c, 1, 66, 0
4, 68352, Note_on_c, 1, 67, 85
4, 68617, Note_on_c, 1, 67, 0
4, 69504, Note_on_c, 1, 52, 74
4, 69504, Note_on_c, 1, 48, 74
4, 69543, Note_on_c, 1, 52, 0
4, 69543, Note_on_c, 1, 48, 0
4, 69888, Note_on_c, 1, 52, 74
4, 69888, Note_on_c, 1, 48, 74
4, 69927, Note_on_c, 1, 52, 0
4, 69927, Note_on_c, 1, 48, 0
4, 70272, Note_on_c, 1, 53, 74
4, 70272, Note_on_c, 1, 50, 74
4, 70272, Note_on_c, 1, 43, 74
4, 70311, Note_on_c, 1, 53, 0
4, 70311, Note_on_c, 1, 50, 0
4, 70311, Note_on_c, 1, 43, 0
4, 70368, Note_on_c, 1, 53, 75
4, 70368, Note_on_c, 1, 50, 75
4, 70368, Note_on_c, 1, 43, 75
4, 70407, Note_on_c, 1, 53, 0
4, 70407, Note_on_c, 1, 50, 0
4, 70407, Note_on_c, 1, 43, 0
4, 70464, Note_on_c, 1, 52, 76
4, 70464, Note_on_c, 1, 48, 76
4, 70464, Note_on_c, 1, 43, 76
4, 70503, Note_on_c, 1, 52, 0
4, 70503, Note_on_c, 1, 48, 0
4, 70503, Note_on_c, 1, 43, 0
4, 70560, Note_on_c, 1, 52, 77
4, 70560, Note_on_c, 1, 48, 77
4, 70560, Note_on_c, 1, 43, 77
4, 70599, Note_on_c, 1, 52, 0
4, 70599, Note_on_c, 1, 48, 0
4, 70599, Note_on_c, 1, 43, 0
4, 70656, Note_on_c, 1, 50, 79
4, 70656, Note_on_c, 1, 47, 79
4, 70656, Note_on_c, 1, 43, 79
4, 70745, Note_on_c, 1, 50, 0
4, 70745, Note_on_c, 1, 47, 0
4, 70745, Note_on_c, 1, 43, 0
4, 71040, Note_on_c, 1, 55, 74
4, 71040, Note_on_c, 1, 47, 74
4, 71079, Note_on_c, 1, 55, 0
4, 71079, Note_on_c, 1, 47, 0
4, 71232, Note_on_c, 1, 55, 74
4, 71232, Note_on_c, 1, 48, 74
4, 71271, Note_on_c, 1, 55, 0
4, 71271, Note_on_c, 1, 48, 0
4, 71424, Note_on_c, 1, 55, 74
4, 71424, Note_on_c, 1, 53, 74
4, 71463, Note_on_c, 1, 55, 0
4, 71463, Note_on_c, 1, 53, 0
4, 71616, Note_on_c, 1, 55, 74
4, 71616, Note_on_c, 1, 52, 74
4, 71655, Note_on_c, 1, 55, 0
4, 71655, Note_on_c, 1, 52, 0
4, 71808, Note_on_c, 1, 53, 74
4, 71808, Note_on_c, 1, 41, 74
4, 71847, Note_on_c, 1, 53, 0
4, 71847, Note_on_c, 1, 41, 0
4, 71904, Note_on_c, 1, 53, 74
4, 71904, Note_on_c, 1, 41, 74
4, 71943, Note_on_c, 1, 53, 0
4, 71943, Note_on_c, 1, 41, 0
4, 72000, Note_on_c, 1, 50, 74
4, 72000, Note_on_c, 1, 43, 74
4, 72039, Note_on_c, 1, 50, 0
4, 72039, Note_on_c, 1, 43, 0
4, 72096, Note_on_c, 1, 50, 74
4, 72096, Note_on_c, 1, 43, 74
4, 72135, Note_on_c, 1, 50, 0
4, 72135, Note_on_c, 1, 43, 0
4, 72192, Note_on_c, 1, 60, 74
4, 72222, Note_on_c, 1, 60, 0
4, 72224, Note_on_c, 1, 63, 74
4, 72254, Note_on_c, 1, 63, 0
4, 72256, Note_on_c, 1, 67, 74
4, 72286, Note_on_c, 1, 67, 0
4, 72288, Note_on_c, 1, 60, 74
4, 72318, Note_on_c, 1, 60, 0
4, 72320, Note_on_c, 1, 63, 74
4, 72350, Note_on_c, 1, 63, 0
4, 72352, Note_on_c, 1, 67, 74
4, 72382, Note_on_c, 1, 67, 0
4, 72384, Note_on_c, 1, 60, 74
4, 72414, Note_on_c, 1, 60, 0
4, 72416, Note_on_c, 1, 63, 74
4, 72446, Note_on_c, 1, 63, 0
4, 72448, Note_on_c, 1, 67, 74
4, 72478, Note_on_c, 1, 67, 0
4, 72480, Note_on_c, 1, 60, 74
4, 72510, Note_on_c, 1, 60, 0
4, 72512, Note_on_c, 1, 63, 74
4, 72542, Note_on_c, 1, 63, 0
4, 72544, Note_on_c, 1, 67, 74
4, 72574, Note_on_c, 1, 67, 0
4, 72576, Note_on_c, 1, 60, 74
4, 72606, Note_on_c, 1, 60, 0
4, 72608, Note_on_c, 1, 63, 74
4, 72638, Note_on_c, 1, 63, 0
4, 72640, Note_on_c, 1, 67, 74
4, 72670, Note_on_c, 1, 67, 0
4, 72672, Note_on_c, 1, 60, 74
4, 72702, Note_on_c, 1, 60, 0
4, 72704, Note_on_c, 1, 63, 74
4, 72734, Note_on_c, 1, 63, 0
4, 72736, Note_on_c, 1, 67, 74
4, 72766, Note_on_c, 1, 67, 0
4, 72768, Note_on_c, 1, 60, 74
4, 72798, Note_on_c, 1, 60, 0
4, 72800, Note_on_c, 1, 63, 74
4, 72830, Note_on_c, 1, 63, 0
4, 72832, Note_on_c, 1, 67, 74
4, 72862, Note_on_c, 1, 67, 0
4, 72864, Note_on_c, 1, 60, 74
4, 72894, Note_on_c, 1, 60, 0
4, 72896, Note_on_c, 1, 63, 74
4, 72926, Note_on_c, 1, 63, 0
4, 72928, Note_on_c, 1, 67, 74
4, 72958, Note_on_c, 1, 67, 0
4, 72960, Note_on_c, 1, 60, 74
4, 72990, Note_on_c, 1, 60, 0
4, 72992, Note_on_c, 1, 63, 74
4, 73022, Note_on_c, 1, 63, 0
4, 73024, Note_on_c, 1, 67, 74
4, 73054, Note_on_c, 1, 67, 0
4, 73056, Note_on_c, 1, 60, 74
4, 73086, Note_on_c, 1, 60, 0
4, 73088, Note_on_c, 1, 63, 74
4, 73118, Note_on_c, 1, 63, 0
4, 73120, Note_on_c, 1, 67, 74
4, 73150, Note_on_c, 1, 67, 0
4, 73152, Note_on_c, 1, 60, 74
4, 73182, Note_on_c, 1, 60, 0
4, 73184, Note_on_c, 1, 63, 74
4, 73214, Note_on_c, 1, 63, 0
4, 73216, Note_on_c, 1, 67, 74
4, 73246, Note_on_c, 1, 67, 0
4, 73248, Note_on_c, 1, 60, 74
4, 73278, Note_on_c, 1, 60, 0
4, 73280, Note_on_c, 1, 63, 74
4, 73310, Note_on_c, 1, 63, 0
4, 73312, Note_on_c, 1, 67, 74
4, 73342, Note_on_c, 1, 67, 0
4, 73344, Note_on_c, 1, 58, 74
4, 73374, Note_on_c, 1, 58, 0
4, 73376, Note_on_c, 1, 64, 74
4, 73406, Note_on_c, 1, 64, 0
4, 73408, Note_on_c, 1, 67, 74
4, 73438, Note_on_c, 1, 67, 0
4, 73440, Note_on_c, 1, 58, 74
4, 73470, Note_on_c, 1, 58, 0
4, 73472, Note_on_c, 1, 64, 74
4, 73502, Note_on_c, 1, 64, 0
4, 73504, Note_on_c, 1, 67, 74
4, 73534, Note_on_c, 1, 67, 0
4, 73536, Note_on_c, 1, 58, 74
4, 73566, Note_on_c, 1, 58, 0
4, 73568, Note_on_c, 1, 64, 74
4, 73598, Note_on_c, 1, 64, 0
4, 73600, Note_on_c, 1, 67, 74
4, 73630, Note_on_c, 1, 67, 0
4, 73632, Note_on_c, 1, 58, 74
4, 73662, Note_on_c, 1, 58, 0
4, 73664, Note_on_c, 1, 64, 74
4, 73694, Note_on_c, 1, 64, 0
4, 73696, Note_on_c, 1, 67, 74
4, 73726, Note_on_c, 1, 67, 0
4, 73728, Note_on_c, 1, 58, 74
4, 73758, Note_on_c, 1, 58, 0
4, 73760, Note_on_c, 1, 64, 74
4, 73790, Note_on_c, 1, 64, 0
4, 73792, Note_on_c, 1, 67, 74
4, 73822, Note_on_c, 1, 67, 0
4, 73824, Note_on_c, 1, 58, 74
4, 73854, Note_on_c, 1, 58, 0
4, 73856, Note_on_c, 1, 64, 74
4, 73886, Note_on_c, 1, 64, 0
4, 73888, Note_on_c, 1, 67, 74
4, 73918, Note_on_c, 1, 67, 0
4, 73920, Note_on_c, 1, 58, 74
4, 73950, Note_on_c, 1, 58, 0
4, 73952, Note_on_c, 1, 64, 74
4, 73982, Note_on_c, 1, 64, 0
4, 73984, Note_on_c, 1, 67, 74
4, 74014, Note_on_c, 1, 67, 0
4, 74016, Note_on_c, 1, 58, 74
4, 74046, Note_on_c, 1, 58, 0
4, 74048, Note_on_c, 1, 64, 74
4, 74078, Note_on_c, 1, 64, 0
4, 74080, Note_on_c, 1, 67, 74
4, 74110, Note_on_c, 1, 67, 0
4, 74112, Note_on_c, 1, 57, 74
4, 74142, Note_on_c, 1, 57, 0
4, 74144, Note_on_c, 1, 64, 74
4, 74174, Note_on_c, 1, 64, 0
4, 74176, Note_on_c, 1, 67, 74
4, 74206, Note_on_c, 1, 67, 0
4, 74208, Note_on_c, 1, 57, 74
4, 74238, Note_on_c, 1, 57, 0
4, 74240, Note_on_c, 1, 64, 74
4, 74270, Note_on_c, 1, 64, 0
4, 74272, Note_on_c, 1, 67, 74
4, 74302, Note_on_c, 1, 67, 0
4, 74304, Note_on_c, 1, 57, 74
4, 74334, Note_on_c, 1, 57, 0
4, 74336, Note_on_c, 1, 64, 74
4, 74366, Note_on_c, 1, 64, 0
4, 74368, Note_on_c, 1, 67, 74
4, 74398, Note_on_c, 1, 67, 0
4, 74400, Note_on_c, 1, 57, 74
4, 74430, Note_on_c, 1, 57, 0
4, 74432, Note_on_c, 1, 64, 74
4, 74462, Note_on_c, 1, 64, 0
4, 74464, Note_on_c, 1, 67, 74
4, 74494, Note_on_c, 1, 67, 0
4, 74496, Note_on_c, 1, 57, 74
4, 74526, Note_on_c, 1, 57, 0
4, 74528, Note_on_c, 1, 62, 74
4, 74558, Note_on_c, 1, 62, 0
4, 74560, Note_on_c, 1, 65, 74
4, 74590, Note_on_c, 1, 65, 0
4, 74592, Note_on_c, 1, 57, 74
4, 74622, Note_on_c, 1, 57, 0
4, 74624, Note_on_c, 1, 62, 74
4, 74654, Note_on_c, 1, 62, 0
4, 74656, Note_on_c, 1, 65, 74
4, 74686, Note_on_c, 1, 65, 0
4, 74688, Note_on_c, 1, 57, 74
4, 74718, Note_on_c, 1, 57, 0
4, 74720, Note_on_c, 1, 62, 74
4, 74750, Note_on_c, 1, 62, 0
4, 74752, Note_on_c, 1, 65, 74
4, 74782, Note_on_c, 1, 65, 0
4, 74784, Note_on_c, 1, 57, 74
4, 74814, Note_on_c, 1, 57, 0
4, 74816, Note_on_c, 1, 62, 74
4, 74846, Note_on_c, 1, 62, 0
4, 74848, Note_on_c, 1, 65, 74
4, 74878, Note_on_c, 1, 65, 0
4, 74880, Note_on_c, 1, 55, 74
4, 74910, Note_on_c, 1, 55, 0
4, 74912, Note_on_c, 1, 59, 74
4, 74942, Note_on_c, 1, 59, 0
4, 74944, Note_on_c, 1, 62, 74
4, 74974, Note_on_c, 1, 62, 0
4, 74976, Note_on_c, 1, 55, 74
4, 75006, Note_on_c, 1, 55, 0
4, 75008, Note_on_c, 1, 59, 74
4, 75038, Note_on_c, 1, 59, 0
4, 75040, Note_on_c, 1, 62, 74
4, 75070, Note_on_c, 1, 62, 0
4, 75072, Note_on_c, 1, 55, 74
4, 75102, Note_on_c, 1, 55, 0
4, 75104, Note_on_c, 1, 60, 74
4, 75134, Note_on_c, 1, 60, 0
4, 75136, Note_on_c, 1, 64, 74
4, 75166, Note_on_c, 1, 64, 0
4, 75168, Note_on_c, 1, 55, 74
4, 75198, Note_on_c, 1, 55, 0
4, 75200, Note_on_c, 1, 60, 74
4, 75230, Note_on_c, 1, 60, 0
4, 75232, Note_on_c, 1, 64, 74
4, 75262, Note_on_c, 1, 64, 0
4, 75264, Note_on_c, 1, 55, 74
4, 75294, Note_on_c, 1, 55, 0
4, 75296, Note_on_c, 1, 62, 74
4, 75326, Note_on_c, 1, 62, 0
4, 75328, Note_on_c, 1, 65, 74
4, 75358, Note_on_c, 1, 65, 0
4, 75360, Note_on_c, 1, 55, 74
4, 75390, Note_on_c, 1, 55, 0
4, 75392, Note_on_c, 1, 62, 74
4, 75422, Note_on_c, 1, 62, 0
4, 75424, Note_on_c, 1, 65, 74
4, 75454, Note_on_c, 1, 65, 0
4, 75456, Note_on_c, 1, 55, 74
4, 75486, Note_on_c, 1, 55, 0
4, 75488, Note_on_c, 1, 60, 74
4, 75518, Note_on_c, 1, 60, 0
4, 75520, Note_on_c, 1, 64, 74
4, 75550, Note_on_c, 1, 64, 0
4, 75552, Note_on_c, 1, 55, 74
4, 75582, Note_on_c, 1, 55, 0
4, 75584, Note_on_c, 1, 60, 74
4, 75614, Note_on_c, 1, 60, 0
4, 75616, Note_on_c, 1, 64, 74
4, 75646, Note_on_c, 1, 64, 0
4, 75648, Note_on_c, 1, 55, 74
4, 75678, Note_on_c, 1, 55, 0
4, 75680, Note_on_c, 1, 59, 74
4, 75710, Note_on_c, 1, 59, 0
4, 75712, Note_on_c, 1, 62, 74
4, 75742, Note_on_c, 1, 62, 0
4, 75744, Note_on_c, 1, 55, 74
4, 75774, Note_on_c, 1, 55, 0
4, 75776, Note_on_c, 1, 59, 75
4, 75806, Note_on_c, 1, 59, 0
4, 75808, Note_on_c, 1, 62, 75
4, 75838, Note_on_c, 1, 62, 0
4, 75840, Note_on_c, 1, 55, 76
4, 75870, Note_on_c, 1, 55, 0
4, 75872, Note_on_c, 1, 60, 76
4, 75902, Note_on_c, 1, 60, 0
4, 75904, Note_on_c, 1, 64, 77
4, 75934, Note_on_c, 1, 64, 0
4, 75936, Note_on_c, 1, 55, 77
4, 75966, Note_on_c, 1, 55, 0
4, 75968, Note_on_c, 1, 60, 78
4, 75998, Note_on_c, 1, 60, 0
4, 76000, Note_on_c, 1, 64, 78
4, 76030, Note_on_c, 1, 64, 0
4, 76032, Note_on_c, 1, 55, 78
4, 76062, Note_on_c, 1, 55, 0
4, 76064, Note_on_c, 1, 62, 79
4, 76094, Note_on_c, 1, 62, 0
4, 76096, Note_on_c, 1, 65, 79
4, 76126, Note_on_c, 1, 65, 0
4, 76128, Note_on_c, 1, 55, 80
4, 76158, Note_on_c, 1, 55, 0
4, 76160, Note_on_c, 1, 62, 80
4, 76190, Note_on_c, 1, 62, 0
4, 76192, Note_on_c, 1, 65, 81
4, 76222, Note_on_c, 1, 65, 0
4, 76224, Note_on_c, 1, 55, 81
4, 76254, Note_on_c, 1, 55, 0
4, 76256, Note_on_c, 1, 60, 82
4, 76286, Note_on_c, 1, 60, 0
4, 76288, Note_on_c, 1, 64, 82
4, 76318, Note_on_c, 1, 64, 0
4, 76320, Note_on_c, 1, 55, 82
4, 76350, Note_on_c, 1, 55, 0
4, 76352, Note_on_c, 1, 60, 83
4, 76382, Note_on_c, 1, 60, 0
4, 76384, Note_on_c, 1, 64, 83
4, 76414, Note_on_c, 1, 64, 0
4, 76416, Note_on_c, 1, 55, 85
4, 76505, Note_on_c, 1, 55, 0
4, 76584, Note_on_c, 1, 55, 85
4, 76607, Note_on_c, 1, 55, 0
4, 76608, Note_on_c, 1, 59, 85
4, 76675, Note_on_c, 1, 59, 0
4, 76680, Note_on_c, 1, 55, 85
4, 76703, Note_on_c, 1, 55, 0
4, 76704, Note_on_c, 1, 62, 85
4, 76771, Note_on_c, 1, 62, 0
4, 76776, Note_on_c, 1, 59, 85
4, 76799, Note_on_c, 1, 59, 0
4, 76800, Note_on_c, 1, 67, 85
4, 76889, Note_on_c, 1, 67, 0
4, 77952, Note_on_c, 1, 52, 69
4, 77982, Note_on_c, 1, 52, 0
4, 77984, Note_on_c, 1, 55, 69
4, 78014, Note_on_c, 1, 55, 0
4, 78016, Note_on_c, 1, 60, 69
4, 78046, Note_on_c, 1, 60, 0
4, 78048, Note_on_c, 1, 52, 69
4, 78078, Note_on_c, 1, 52, 0
4, 78080, Note_on_c, 1, 55, 69
4, 78110, Note_on_c, 1, 55, 0
4, 78112, Note_on_c, 1, 60, 69
4, 78142, Note_on_c, 1, 60, 0
4, 78144, Note_on_c, 1, 52, 69
4, 78174, Note_on_c, 1, 52, 0
4, 78176, Note_on_c, 1, 55, 69
4, 78206, Note_on_c, 1, 55, 0
4, 78208, Note_on_c, 1, 60, 69
4, 78238, Note_on_c, 1, 60, 0
4, 78240, Note_on_c, 1, 53, 69
4, 78270, Note_on_c, 1, 53, 0
4, 78272, Note_on_c, 1, 55, 69
4, 78302, Note_on_c, 1, 55, 0
4, 78304, Note_on_c, 1, 59, 69
4, 78334, Note_on_c, 1, 59, 0
4, 78336, Note_on_c, 1, 52, 69
4, 78366, Note_on_c, 1, 52, 0
4, 78368, Note_on_c, 1, 55, 69
4, 78398, Note_on_c, 1, 55, 0
4, 78400, Note_on_c, 1, 60, 69
4, 78430, Note_on_c, 1, 60, 0
4, 78432, Note_on_c, 1, 52, 69
4, 78462, Note_on_c, 1, 52, 0
4, 78464, Note_on_c, 1, 55, 69
4, 78494, Note_on_c, 1, 55, 0
4, 78496, Note_on_c, 1, 60, 69
4, 78526, Note_on_c, 1, 60, 0
4, 78528, Note_on_c, 1, 52, 69
4, 78558, Note_on_c, 1, 52, 0
4, 78560, Note_on_c, 1, 55, 69
4, 78590, Note_on_c, 1, 55, 0
4, 78592, Note_on_c, 1, 60, 69
4, 78622, Note_on_c, 1, 60, 0
4, 78624, Note_on_c, 1, 53, 69
4, 78654, Note_on_c, 1, 53, 0
4, 78656, Note_on_c, 1, 55, 69
4, 78686, Note_on_c, 1, 55, 0
4, 78688, Note_on_c, 1, 59, 69
4, 78718, Note_on_c, 1, 59, 0
4, 78720, Note_on_c, 1, 52, 69
4, 78750, Note_on_c, 1, 52, 0
4, 78752, Note_on_c, 1, 55, 69
4, 78782, Note_on_c, 1, 55, 0
4, 78784, Note_on_c, 1, 60, 69
4, 78814, Note_on_c, 1, 60, 0
4, 78816, Note_on_c, 1, 52, 69
4, 78846, Note_on_c, 1, 52, 0
4, 78848, Note_on_c, 1, 55, 69
4, 78878, Note_on_c, 1, 55, 0
4, 78880, Note_on_c, 1, 60, 69
4, 78910, Note_on_c, 1, 60, 0
4, 78912, Note_on_c, 1, 52, 69
4, 78942, Note_on_c, 1, 52, 0
4, 78944, Note_on_c, 1, 55, 69
4, 78974, Note_on_c, 1, 55, 0
4, 78976, Note_on_c, 1, 60, 69
4, 79006, Note_on_c, 1, 60, 0
4, 79008, Note_on_c, 1, 53, 69
4, 79038, Note_on_c, 1, 53, 0
4, 79040, Note_on_c, 1, 55, 69
4, 79070, Note_on_c, 1, 55, 0
4, 79072, Note_on_c, 1, 59, 69
4, 79102, Note_on_c, 1, 59, 0
4, 79104, Note_on_c, 1, 52, 69
4, 79134, Note_on_c, 1, 52, 0
4, 79136, Note_on_c, 1, 55, 69
4, 79166, Note_on_c, 1, 55, 0
4, 79168, Note_on_c, 1, 60, 69
4, 79198, Note_on_c, 1, 60, 0
4, 79200, Note_on_c, 1, 52, 69
4, 79230, Note_on_c, 1, 52, 0
4, 79232, Note_on_c, 1, 55, 69
4, 79262, Note_on_c, 1, 55, 0
4, 79264, Note_on_c, 1, 60, 69
4, 79294, Note_on_c, 1, 60, 0
4, 79296, Note_on_c, 1, 47, 69
4, 79326, Note_on_c, 1, 47, 0
4, 79328, Note_on_c, 1, 50, 69
4, 79358, Note_on_c, 1, 50, 0
4, 79360, Note_on_c, 1, 55, 70
4, 79390, Note_on_c, 1, 55, 0
4, 79392, Note_on_c, 1, 47, 70
4, 79422, Note_on_c, 1, 47, 0
4, 79424, Note_on_c, 1, 50, 71
4, 79454, Note_on_c, 1, 50, 0
4, 79456, Note_on_c, 1, 55, 71
4, 79486, Note_on_c, 1, 55, 0
4, 79488, Note_on_c, 1, 48, 72
4, 79518, Note_on_c, 1, 48, 0
4, 79520, Note_on_c, 1, 52, 72
4, 79550, Note_on_c, 1, 52, 0
4, 79552, Note_on_c, 1, 55, 73
4, 79582, Note_on_c, 1, 55, 0
4, 79584, Note_on_c, 1, 48, 74
4, 79614, Note_on_c, 1, 48, 0
4, 79616, Note_on_c, 1, 52, 74
4, 79646, Note_on_c, 1, 52, 0
4, 79648, Note_on_c, 1, 55, 75
4, 79678, Note_on_c, 1, 55, 0
4, 79680, Note_on_c, 1, 50, 75
4, 79710, Note_on_c, 1, 50, 0
4, 79712, Note_on_c, 1, 53, 76
4, 79742, Note_on_c, 1, 53, 0
4, 79744, Note_on_c, 1, 59, 76
4, 79774, Note_on_c, 1, 59, 0
4, 79776, Note_on_c, 1, 50, 77
4, 79806, Note_on_c, 1, 50, 0
4, 79808, Note_on_c, 1, 53, 77
4, 79838, Note_on_c, 1, 53, 0
4, 79840, Note_on_c, 1, 59, 78
4, 79870, Note_on_c, 1, 59, 0
4, 79872, Note_on_c, 1, 52, 79
4, 79902, Note_on_c, 1, 52, 0
4, 79904, Note_on_c, 1, 55, 79
4, 79934, Note_on_c, 1, 55, 0
4, 79936, Note_on_c, 1, 60, 80
4, 79966, Note_on_c, 1, 60, 0
4, 79968, Note_on_c, 1, 52, 80
4, 79998, Note_on_c, 1, 52, 0
4, 80000, Note_on_c, 1, 55, 81
4, 80030, Note_on_c, 1, 55, 0
4, 80032, Note_on_c, 1, 60, 81
4, 80062, Note_on_c, 1, 60, 0
4, 80064, Note_on_c, 1, 52, 82
4, 80153, Note_on_c, 1, 52, 0
4, 80256, Note_on_c, 1, 53, 85
4, 80256, Note_on_c, 1, 41, 85
4, 80345, Note_on_c, 1, 53, 0
4, 80345, Note_on_c, 1, 41, 0
4, 81024, Note_on_c, 1, 76, 69
4, 81201, Note_on_c, 1, 76, 0
4, 81216, Note_on_c, 1, 77, 69
4, 81393, Note_on_c, 1, 77, 0
4, 81408, Note_on_c, 1, 76, 69
4, 81408, Note_on_c, 1, 72, 69
4, 81497, Note_on_c, 1, 76, 0
4, 81497, Note_on_c, 1, 72, 0
4, 81696, Note_on_c, 1, 72, 64
4, 81792, Note_on_c, 1, 72, 0
4, 81792, Note_on_c, 1, 74, 64
4, 81792, Note_on_c, 1, 71, 64
4, 81881, Note_on_c, 1, 74, 0
4, 81881, Note_on_c, 1, 71, 0
4, 82080, Note_on_c, 1, 69, 64
4, 82176, Note_on_c, 1, 69, 0
4, 82176, Note_on_c, 1, 71, 64
4, 82176, Note_on_c, 1, 67, 64
4, 82265, Note_on_c, 1, 71, 0
4, 82265, Note_on_c, 1, 67, 0
4, 82464, Note_on_c, 1, 65, 64
4, 82560, Note_on_c, 1, 65, 0
4, 82560, Note_on_c, 1, 67, 64
4, 82560, Note_on_c, 1, 64, 64
4, 82649, Note_on_c, 1, 67, 0
4, 82649, Note_on_c, 1, 64, 0
4, 82848, Note_on_c, 1, 64, 64
4, 82848, Note_on_c, 1, 60, 64
4, 82937, Note_on_c, 1, 64, 0
4, 82937, Note_on_c, 1, 60, 0
4, 82944, Note_on_c, 1, 65, 64
4, 82944, Note_on_c, 1, 53, 64
4, 83033, Note_on_c, 1, 65, 0
4, 83033, Note_on_c, 1, 53, 0
4, 83136, Note_on_c, 1, 62, 64
4, 83136, Note_on_c, 1, 55, 64
4, 83225, Note_on_c, 1, 62, 0
4, 83225, Note_on_c, 1, 55, 0
4, 83328, Note_on_c, 1, 64, 64
4, 83328, Note_on_c, 1, 60, 64
4, 83417, Note_on_c, 1, 64, 0
4, 83417, Note_on_c, 1, 60, 0
4, 83616, Note_on_c, 1, 72, 85
4, 83712, Note_on_c, 1, 72, 0
4, 83712, Note_on_c, 1, 71, 69
4, 83751, Note_on_c, 1, 71, 0
4, 83808, Note_on_c, 1, 71, 69
4, 83847, Note_on_c, 1, 71, 0
4, 83904, Note_on_c, 1, 71, 69
4, 83943, Note_on_c, 1, 71, 0
4, 84000, Note_on_c, 1, 72, 85
4, 84096, Note_on_c, 1, 72, 0
4, 84096, Note_on_c, 1, 71, 69
4, 84135, Note_on_c, 1, 71, 0
4, 84192, Note_on_c, 1, 71, 69
4, 84231, Note_on_c, 1, 71, 0
4, 84288, Note_on_c, 1, 71, 69
4, 84327, Note_on_c, 1, 71, 0
4, 84384, Note_on_c, 1, 69, 85
4, 84480, Note_on_c, 1, 69, 0
4, 84480, Note_on_c, 1, 67, 69
4, 84519, Note_on_c, 1, 67, 0
4, 84576, Note_on_c, 1, 67, 69
4, 84615, Note_on_c, 1, 67, 0
4, 84672, Note_on_c, 1, 67, 69
4, 84711, Note_on_c, 1, 67, 0
4, 84768, Note_on_c, 1, 69, 85
4, 84864, Note_on_c, 1, 69, 0
4, 84864, Note_on_c, 1, 67, 69
4, 84903, Note_on_c, 1, 67, 0
4, 84960, Note_on_c, 1, 67, 69
4, 84999, Note_on_c, 1, 67, 0
4, 85056, Note_on_c, 1, 67, 69
4, 85095, Note_on_c, 1, 67, 0
4, 85152, Note_on_c, 1, 65, 85
4, 85248, Note_on_c, 1, 65, 0
4, 85248, Note_on_c, 1, 64, 69
4, 85287, Note_on_c, 1, 64, 0
4, 85344, Note_on_c, 1, 64, 69
4, 85383, Note_on_c, 1, 64, 0
4, 85440, Note_on_c, 1, 64, 69
4, 85479, Note_on_c, 1, 64, 0
4, 85536, Note_on_c, 1, 65, 85
4, 85632, Note_on_c, 1, 65, 0
4, 85632, Note_on_c, 1, 64, 69
4, 85671, Note_on_c, 1, 64, 0
4, 85728, Note_on_c, 1, 64, 69
4, 85767, Note_on_c, 1, 64, 0
4, 85824, Note_on_c, 1, 64, 69
4, 85863, Note_on_c, 1, 64, 0
4, 85920, Note_on_c, 1, 65, 85
4, 86016, Note_on_c, 1, 65, 0
4, 86016, Note_on_c, 1, 64, 69
4, 86055, Note_on_c, 1, 64, 0
4, 86112, Note_on_c, 1, 59, 69
4, 86201, Note_on_c, 1, 59, 0
4, 86208, Note_on_c, 1, 60, 73
4, 86297, Note_on_c, 1, 60, 0
4, 86304, Note_on_c, 1, 62, 77
4, 86393, Note_on_c, 1, 62, 0
4, 86400, Note_on_c, 1, 64, 81
4, 86489, Note_on_c, 1, 64, 0
4, 86880, Note_on_c, 1, 53, 81
4, 86969, Note_on_c, 1, 53, 0
4, 86976, Note_on_c, 1, 52, 77
4, 87065, Note_on_c, 1, 52, 0
4, 87072, Note_on_c, 1, 50, 73
4, 87161, Note_on_c, 1, 50, 0
4, 87168, Note_on_c, 1, 48, 85
4, 87168, Note_on_c, 1, 43, 85
4, 87168, Note_on_c, 1, 40, 85
4, 87345, Note_on_c, 1, 48, 0
4, 87345, Note_on_c, 1, 43, 0
4, 87345, Note_on_c, 1, 40, 0
4, 87552, Note_on_c, 1, 57, 85
4, 87552, Note_on_c, 1, 53, 85
4, 87729, Note_on_c, 1, 57, 0
4, 87729, Note_on_c, 1, 53, 0
4, 87744, Note_on_c, 1, 54, 85
4, 87750, Note_on_c, 1, 57, 85
4, 87756, Note_on_c, 1, 60, 85
4, 87762, Note_on_c, 1, 63, 85
4, 87923, Note_on_c, 1, 63, 0
4, 87923, Note_on_c, 1, 60, 0
4, 87923, Note_on_c, 1, 57, 0
4, 87923, Note_on_c, 1, 54, 0
4, 87936, Note_on_c, 1, 57, 69
4, 87981, Note_on_c, 1, 57, 0
4, 88032, Note_on_c, 1, 54, 69
4, 88077, Note_on_c, 1, 54, 0
4, 88128, Note_on_c, 1, 51, 69
4, 88173, Note_on_c, 1, 51, 0
4, 88224, Note_on_c, 1, 48, 69
4, 88269, Note_on_c, 1, 48, 0
4, 88544, Note_on_c, 1, 51, 69
4, 88574, Note_on_c, 1, 51, 0
4, 88576, Note_on_c, 1, 63, 69
4, 88606, Note_on_c, 1, 63, 0
4, 88640, Note_on_c, 1, 48, 69
4, 88670, Note_on_c, 1, 48, 0
4, 88672, Note_on_c, 1, 60, 69
4, 88702, Note_on_c, 1, 60, 0
4, 88704, Note_on_c, 1, 55, 69
4, 88734, Note_on_c, 1, 55, 0
4, 88736, Note_on_c, 1, 60, 69
4, 88766, Note_on_c, 1, 60, 0
4, 88768, Note_on_c, 1, 64, 69
4, 88798, Note_on_c, 1, 64, 0
4, 88800, Note_on_c, 1, 55, 69
4, 88830, Note_on_c, 1, 55, 0
4, 88832, Note_on_c, 1, 60, 69
4, 88862, Note_on_c, 1, 60, 0
4, 88864, Note_on_c, 1, 64, 69
4, 88894, Note_on_c, 1, 64, 0
4, 88896, Note_on_c, 1, 55, 69
4, 88926, Note_on_c, 1, 55, 0
4, 88928, Note_on_c, 1, 60, 69
4, 88958, Note_on_c, 1, 60, 0
4, 88960, Note_on_c, 1, 64, 69
4, 88990, Note_on_c, 1, 64, 0
4, 88992, Note_on_c, 1, 55, 69
4, 89022, Note_on_c, 1, 55, 0
4, 89024, Note_on_c, 1, 60, 69
4, 89054, Note_on_c, 1, 60, 0
4, 89056, Note_on_c, 1, 64, 69
4, 89086, Note_on_c, 1, 64, 0
4, 89088, Note_on_c, 1, 55, 69
4, 89118, Note_on_c, 1, 55, 0
4, 89120, Note_on_c, 1, 60, 69
4, 89150, Note_on_c, 1, 60, 0
4, 89152, Note_on_c, 1, 64, 69
4, 89182, Note_on_c, 1, 64, 0
4, 89184, Note_on_c, 1, 55, 69
4, 89214, Note_on_c, 1, 55, 0
4, 89216, Note_on_c, 1, 60, 69
4, 89246, Note_on_c, 1, 60, 0
4, 89248, Note_on_c, 1, 64, 69
4, 89278, Note_on_c, 1, 64, 0
4, 89280, Note_on_c, 1, 55, 69
4, 89310, Note_on_c, 1, 55, 0
4, 89312, Note_on_c, 1, 60, 69
4, 89342, Note_on_c, 1, 60, 0
4, 89344, Note_on_c, 1, 64, 69
4, 89374, Note_on_c, 1, 64, 0
4, 89376, Note_on_c, 1, 55, 69
4, 89406, Note_on_c, 1, 55, 0
4, 89408, Note_on_c, 1, 60, 69
4, 89438, Note_on_c, 1, 60, 0
4, 89440, Note_on_c, 1, 64, 69
4, 89470, Note_on_c, 1, 64, 0
4, 89472, Note_on_c, 1, 55, 69
4, 89502, Note_on_c, 1, 55, 0
4, 89504, Note_on_c, 1, 60, 69
4, 89534, Note_on_c, 1, 60, 0
4, 89536, Note_on_c, 1, 64, 69
4, 89566, Note_on_c, 1, 64, 0
4, 89568, Note_on_c, 1, 55, 69
4, 89598, Note_on_c, 1, 55, 0
4, 89600, Note_on_c, 1, 60, 69
4, 89630, Note_on_c, 1, 60, 0
4, 89632, Note_on_c, 1, 64, 69
4, 89662, Note_on_c, 1, 64, 0
4, 89664, Note_on_c, 1, 55, 69
4, 89694, Note_on_c, 1, 55, 0
4, 89696, Note_on_c, 1, 60, 69
4, 89726, Note_on_c, 1, 60, 0
4, 89728, Note_on_c, 1, 64, 69
4, 89758, Note_on_c, 1, 64, 0
4, 89760, Note_on_c, 1, 55, 69
4, 89790, Note_on_c, 1, 55, 0
4, 89792, Note_on_c, 1, 60, 69
4, 89822, Note_on_c, 1, 60, 0
4, 89824, Note_on_c, 1, 64, 69
4, 89854, Note_on_c, 1, 64, 0
4, 89856, Note_on_c, 1, 55, 69
4, 89886, Note_on_c, 1, 55, 0
4, 89888, Note_on_c, 1, 62, 69
4, 89918, Note_on_c, 1, 62, 0
4, 89920, Note_on_c, 1, 65, 69
4, 89950, Note_on_c, 1, 65, 0
4, 89952, Note_on_c, 1, 55, 70
4, 89982, Note_on_c, 1, 55, 0
4, 89984, Note_on_c, 1, 62, 70
4, 90014, Note_on_c, 1, 62, 0
4, 90016, Note_on_c, 1, 65, 70
4, 90046, Note_on_c, 1, 65, 0
4, 90048, Note_on_c, 1, 55, 71
4, 90078, Note_on_c, 1, 55, 0
4, 90080, Note_on_c, 1, 60, 71
4, 90110, Note_on_c, 1, 60, 0
4, 90112, Note_on_c, 1, 64, 72
4, 90142, Note_on_c, 1, 64, 0
4, 90144, Note_on_c, 1, 55, 72
4, 90174, Note_on_c, 1, 55, 0
4, 90176, Note_on_c, 1, 60, 72
4, 90206, Note_on_c, 1, 60, 0
4, 90208, Note_on_c, 1, 64, 73
4, 90238, Note_on_c, 1, 64, 0
4, 90240, Note_on_c, 1, 55, 74
4, 90270, Note_on_c, 1, 55, 0
4, 90272, Note_on_c, 1, 59, 74
4, 90302, Note_on_c, 1, 59, 0
4, 90304, Note_on_c, 1, 62, 74
4, 90334, Note_on_c, 1, 62, 0
4, 90336, Note_on_c, 1, 55, 74
4, 90366, Note_on_c, 1, 55, 0
4, 90368, Note_on_c, 1, 59, 74
4, 90398, Note_on_c, 1, 59, 0
4, 90400, Note_on_c, 1, 62, 74
4, 90430, Note_on_c, 1, 62, 0
4, 90432, Note_on_c, 1, 55, 74
4, 90462, Note_on_c, 1, 55, 0
4, 90464, Note_on_c, 1, 59, 74
4, 90494, Note_on_c, 1, 59, 0
4, 90496, Note_on_c, 1, 62, 74
4, 90526, Note_on_c, 1, 62, 0
4, 90528, Note_on_c, 1, 55, 74
4, 90558, Note_on_c, 1, 55, 0
4, 90560, Note_on_c, 1, 59, 74
4, 90590, Note_on_c, 1, 59, 0
4, 90592, Note_on_c, 1, 62, 74
4, 90622, Note_on_c, 1, 62, 0
4, 90624, Note_on_c, 1, 55, 74
4, 90654, Note_on_c, 1, 55, 0
4, 90656, Note_on_c, 1, 59, 74
4, 90686, Note_on_c, 1, 59, 0
4, 90688, Note_on_c, 1, 62, 74
4, 90718, Note_on_c, 1, 62, 0
4, 90720, Note_on_c, 1, 55, 74
4, 90750, Note_on_c, 1, 55, 0
4, 90752, Note_on_c, 1, 59, 74
4, 90782, Note_on_c, 1, 59, 0
4, 90784, Note_on_c, 1, 62, 74
4, 90814, Note_on_c, 1, 62, 0
4, 90816, Note_on_c, 1, 55, 74
4, 90846, Note_on_c, 1, 55, 0
4, 90848, Note_on_c, 1, 60, 74
4, 90878, Note_on_c, 1, 60, 0
4, 90880, Note_on_c, 1, 64, 74
4, 90910, Note_on_c, 1, 64, 0
4, 90912, Note_on_c, 1, 55, 74
4, 90942, Note_on_c, 1, 55, 0
4, 90944, Note_on_c, 1, 60, 74
4, 90974, Note_on_c, 1, 60, 0
4, 90976, Note_on_c, 1, 64, 74
4, 91006, Note_on_c, 1, 64, 0
4, 91008, Note_on_c, 1, 55, 74
4, 91038, Note_on_c, 1, 55, 0
4, 91040, Note_on_c, 1, 62, 74
4, 91070, Note_on_c, 1, 62, 0
4, 91072, Note_on_c, 1, 65, 74
4, 91102, Note_on_c, 1, 65, 0
4, 91104, Note_on_c, 1, 55, 74
4, 91134, Note_on_c, 1, 55, 0
4, 91136, Note_on_c, 1, 62, 74
4, 91166, Note_on_c, 1, 62, 0
4, 91168, Note_on_c, 1, 65, 74
4, 91198, Note_on_c, 1, 65, 0
4, 91200, Note_on_c, 1, 57, 74
4, 91230, Note_on_c, 1, 57, 0
4, 91232, Note_on_c, 1, 60, 74
4, 91262, Note_on_c, 1, 60, 0
4, 91264, Note_on_c, 1, 64, 74
4, 91294, Note_on_c, 1, 64, 0
4, 91296, Note_on_c, 1, 57, 74
4, 91326, Note_on_c, 1, 57, 0
4, 91328, Note_on_c, 1, 60, 74
4, 91358, Note_on_c, 1, 60, 0
4, 91360, Note_on_c, 1, 64, 74
4, 91390, Note_on_c, 1, 64, 0
4, 91392, Note_on_c, 1, 53, 74
4, 91422, Note_on_c, 1, 53, 0
4, 91424, Note_on_c, 1, 57, 74
4, 91454, Note_on_c, 1, 57, 0
4, 91456, Note_on_c, 1, 62, 74
4, 91486, Note_on_c, 1, 62, 0
4, 91488, Note_on_c, 1, 53, 74
4, 91518, Note_on_c, 1, 53, 0
4, 91520, Note_on_c, 1, 57, 74
4, 91550, Note_on_c, 1, 57, 0
4, 91552, Note_on_c, 1, 62, 74
4, 91582, Note_on_c, 1, 62, 0
4, 91584, Note_on_c, 1, 55, 74
4, 91614, Note_on_c, 1, 55, 0
4, 91616, Note_on_c, 1, 62, 74
4, 91646, Note_on_c, 1, 62, 0
4, 91648, Note_on_c, 1, 65, 74
4, 91678, Note_on_c, 1, 65, 0
4, 91680, Note_on_c, 1, 55, 74
4, 91710, Note_on_c, 1, 55, 0
4, 91712, Note_on_c, 1, 62, 74
4, 91742, Note_on_c, 1, 62, 0
4, 91744, Note_on_c, 1, 65, 74
4, 91774, Note_on_c, 1, 65, 0
4, 91776, Note_on_c, 1, 60, 79
4, 91806, Note_on_c, 1, 60, 0
4, 91808, Note_on_c, 1, 64, 79
4, 91838, Note_on_c, 1, 64, 0
4, 91840, Note_on_c, 1, 67, 79
4, 91870, Note_on_c, 1, 67, 0
4, 91872, Note_on_c, 1, 60, 79
4, 91902, Note_on_c, 1, 60, 0
4, 91904, Note_on_c, 1, 64, 79
4, 91934, Note_on_c, 1, 64, 0
4, 91936, Note_on_c, 1, 67, 79
4, 91966, Note_on_c, 1, 67, 0
4, 91968, Note_on_c, 1, 60, 79
4, 91998, Note_on_c, 1, 60, 0
4, 92000, Note_on_c, 1, 64, 79
4, 92030, Note_on_c, 1, 64, 0
4, 92032, Note_on_c, 1, 67, 79
4, 92062, Note_on_c, 1, 67, 0
4, 92064, Note_on_c, 1, 55, 79
4, 92094, Note_on_c, 1, 55, 0
4, 92096, Note_on_c, 1, 59, 79
4, 92126, Note_on_c, 1, 59, 0
4, 92128, Note_on_c, 1, 67, 79
4, 92158, Note_on_c, 1, 67, 0
4, 92160, Note_on_c, 1, 60, 79
4, 92190, Note_on_c, 1, 60, 0
4, 92192, Note_on_c, 1, 64, 79
4, 92222, Note_on_c, 1, 64, 0
4, 92224, Note_on_c, 1, 67, 79
4, 92254, Note_on_c, 1, 67, 0
4, 92256, Note_on_c, 1, 60, 79
4, 92286, Note_on_c, 1, 60, 0
4, 92288, Note_on_c, 1, 64, 79
4, 92318, Note_on_c, 1, 64, 0
4, 92320, Note_on_c, 1, 67, 79
4, 92350, Note_on_c, 1, 67, 0
4, 92352, Note_on_c, 1, 60, 79
4, 92382, Note_on_c, 1, 60, 0
4, 92384, Note_on_c, 1, 64, 79
4, 92414, Note_on_c, 1, 64, 0
4, 92416, Note_on_c, 1, 67, 79
4, 92446, Note_on_c, 1, 67, 0
4, 92448, Note_on_c, 1, 55, 79
4, 92478, Note_on_c, 1, 55, 0
4, 92480, Note_on_c, 1, 59, 79
4, 92510, Note_on_c, 1, 59, 0
4, 92512, Note_on_c, 1, 67, 79
4, 92542, Note_on_c, 1, 67, 0
4, 92544, Note_on_c, 1, 60, 79
4, 92574, Note_on_c, 1, 60, 0
4, 92576, Note_on_c, 1, 64, 79
4, 92606, Note_on_c, 1, 64, 0
4, 92608, Note_on_c, 1, 67, 79
4, 92638, Note_on_c, 1, 67, 0
4, 92640, Note_on_c, 1, 60, 79
4, 92670, Note_on_c, 1, 60, 0
4, 92672, Note_on_c, 1, 64, 79
4, 92702, Note_on_c, 1, 64, 0
4, 92704, Note_on_c, 1, 67, 79
4, 92734, Note_on_c, 1, 67, 0
4, 92736, Note_on_c, 1, 60, 79
4, 92766, Note_on_c, 1, 60, 0
4, 92768, Note_on_c, 1, 64, 79
4, 92798, Note_on_c, 1, 64, 0
4, 92800, Note_on_c, 1, 67, 79
4, 92830, Note_on_c, 1, 67, 0
4, 92832, Note_on_c, 1, 55, 79
4, 92862, Note_on_c, 1, 55, 0
4, 92864, Note_on_c, 1, 59, 79
4, 92894, Note_on_c, 1, 59, 0
4, 92896, Note_on_c, 1, 67, 79
4, 92926, Note_on_c, 1, 67, 0
4, 92928, Note_on_c, 1, 60, 79
4, 92958, Note_on_c, 1, 60, 0
4, 92960, Note_on_c, 1, 64, 79
4, 92990, Note_on_c, 1, 64, 0
4, 92992, Note_on_c, 1, 67, 79
4, 93022, Note_on_c, 1, 67, 0
4, 93024, Note_on_c, 1, 60, 79
4, 93054, Note_on_c, 1, 60, 0
4, 93056, Note_on_c, 1, 64, 79
4, 93086, Note_on_c, 1, 64, 0
4, 93088, Note_on_c, 1, 67, 79
4, 93118, Note_on_c, 1, 67, 0
4, 93120, Note_on_c, 1, 60, 79
4, 93150, Note_on_c, 1, 60, 0
4, 93152, Note_on_c, 1, 64, 79
4, 93182, Note_on_c, 1, 64, 0
4, 93184, Note_on_c, 1, 67, 79
4, 93214, Note_on_c, 1, 67, 0
4, 93216, Note_on_c, 1, 55, 79
4, 93246, Note_on_c, 1, 55, 0
4, 93248, Note_on_c, 1, 59, 79
4, 93278, Note_on_c, 1, 59, 0
4, 93280, Note_on_c, 1, 67, 79
4, 93310, Note_on_c, 1, 67, 0
4, 93312, Note_on_c, 1, 60, 79
4, 93342, Note_on_c, 1, 60, 0
4, 93344, Note_on_c, 1, 64, 79
4, 93374, Note_on_c, 1, 64, 0
4, 93376, Note_on_c, 1, 67, 79
4, 93406, Note_on_c, 1, 67, 0
4, 93408, Note_on_c, 1, 60, 79
4, 93438, Note_on_c, 1, 60, 0
4, 93440, Note_on_c, 1, 64, 79
4, 93470, Note_on_c, 1, 64, 0
4, 93472, Note_on_c, 1, 67, 79
4, 93502, Note_on_c, 1, 67, 0
4, 93504, Note_on_c, 1, 60, 79
4, 93534, Note_on_c, 1, 60, 0
4, 93536, Note_on_c, 1, 64, 79
4, 93566, Note_on_c, 1, 64, 0
4, 93568, Note_on_c, 1, 67, 79
4, 93598, Note_on_c, 1, 67, 0
4, 93600, Note_on_c, 1, 55, 79
4, 93630, Note_on_c, 1, 55, 0
4, 93632, Note_on_c, 1, 59, 79
4, 93662, Note_on_c, 1, 59, 0
4, 93664, Note_on_c, 1, 67, 79
4, 93694, Note_on_c, 1, 67, 0
4, 93696, Note_on_c, 1, 60, 79
4, 93726, Note_on_c, 1, 60, 0
4, 93728, Note_on_c, 1, 64, 79
4, 93758, Note_on_c, 1, 64, 0
4, 93760, Note_on_c, 1, 67, 79
4, 93790, Note_on_c, 1, 67, 0
4, 93792, Note_on_c, 1, 60, 79
4, 93822, Note_on_c, 1, 60, 0
4, 93824, Note_on_c, 1, 64, 79
4, 93854, Note_on_c, 1, 64, 0
4, 93856, Note_on_c, 1, 67, 79
4, 93886, Note_on_c, 1, 67, 0
4, 93888, Note_on_c, 1, 60, 79
4, 93918, Note_on_c, 1, 60, 0
4, 93920, Note_on_c, 1, 64, 79
4, 93950, Note_on_c, 1, 64, 0
4, 93952, Note_on_c, 1, 67, 79
4, 93982, Note_on_c, 1, 67, 0
4, 93984, Note_on_c, 1, 55, 79
4, 94014, Note_on_c, 1, 55, 0
4, 94016, Note_on_c, 1, 59, 79
4, 94046, Note_on_c, 1, 59, 0
4, 94048, Note_on_c, 1, 67, 79
4, 94078, Note_on_c, 1, 67, 0
4, 94080, Note_on_c, 1, 60, 79
4, 94110, Note_on_c, 1, 60, 0
4, 94112, Note_on_c, 1, 64, 79
4, 94142, Note_on_c, 1, 64, 0
4, 94144, Note_on_c, 1, 67, 79
4, 94174, Note_on_c, 1, 67, 0
4, 94176, Note_on_c, 1, 60, 79
4, 94206, Note_on_c, 1, 60, 0
4, 94208, Note_on_c, 1, 64, 79
4, 94238, Note_on_c, 1, 64, 0
4, 94240, Note_on_c, 1, 67, 79
4, 94270, Note_on_c, 1, 67, 0
4, 94272, Note_on_c, 1, 60, 79
4, 94302, Note_on_c, 1, 60, 0
4, 94304, Note_on_c, 1, 64, 79
4, 94334, Note_on_c, 1, 64, 0
4, 94336, Note_on_c, 1, 67, 79
4, 94366, Note_on_c, 1, 67, 0
4, 94368, Note_on_c, 1, 55, 79
4, 94398, Note_on_c, 1, 55, 0
4, 94400, Note_on_c, 1, 59, 79
4, 94430, Note_on_c, 1, 59, 0
4, 94432, Note_on_c, 1, 67, 79
4, 94462, Note_on_c, 1, 67, 0
4, 94464, Note_on_c, 1, 60, 79
4, 94494, Note_on_c, 1, 60, 0
4, 94496, Note_on_c, 1, 64, 79
4, 94526, Note_on_c, 1, 64, 0
4, 94528, Note_on_c, 1, 67, 79
4, 94558, Note_on_c, 1, 67, 0
4, 94560, Note_on_c, 1, 60, 79
4, 94590, Note_on_c, 1, 60, 0
4, 94592, Note_on_c, 1, 64, 79
4, 94622, Note_on_c, 1, 64, 0
4, 94624, Note_on_c, 1, 67, 79
4, 94654, Note_on_c, 1, 67, 0
4, 94656, Note_on_c, 1, 60, 79
4, 94686, Note_on_c, 1, 60, 0
4, 94688, Note_on_c, 1, 64, 79
4, 94718, Note_on_c, 1, 64, 0
4, 94720, Note_on_c, 1, 67, 79
4, 94750, Note_on_c, 1, 67, 0
4, 94752, Note_on_c, 1, 55, 79
4, 94782, Note_on_c, 1, 55, 0
4, 94784, Note_on_c, 1, 59, 79
4, 94814, Note_on_c, 1, 59, 0
4, 94816, Note_on_c, 1, 67, 79
4, 94846, Note_on_c, 1, 67, 0
4, 94848, Note_on_c, 1, 60, 79
4, 94878, Note_on_c, 1, 60, 0
4, 94880, Note_on_c, 1, 64, 79
4, 94910, Note_on_c, 1, 64, 0
4, 94912, Note_on_c, 1, 67, 79
4, 94942, Note_on_c, 1, 67, 0
4, 94944, Note_on_c, 1, 60, 79
4, 94974, Note_on_c, 1, 60, 0
4, 94976, Note_on_c, 1, 64, 79
4, 95006, Note_on_c, 1, 64, 0
4, 95008, Note_on_c, 1, 67, 79
4, 95038, Note_on_c, 1, 67, 0
4, 95040, Note_on_c, 1, 60, 79
4, 95070, Note_on_c, 1, 60, 0
4, 95072, Note_on_c, 1, 64, 79
4, 95102, Note_on_c, 1, 64, 0
4, 95104, Note_on_c, 1, 67, 79
4, 95134, Note_on_c, 1, 67, 0
4, 95136, Note_on_c, 1, 60, 79
4, 95166, Note_on_c, 1, 60, 0
4, 95168, Note_on_c, 1, 64, 79
4, 95198, Note_on_c, 1, 64, 0
4, 95200, Note_on_c, 1, 67, 79
4, 95230, Note_on_c, 1, 67, 0
4, 95232, Note_on_c, 1, 60, 79
4, 95262, Note_on_c, 1, 60, 0
4, 95264, Note_on_c, 1, 64, 79
4, 95294, Note_on_c, 1, 64, 0
4, 95296, Note_on_c, 1, 67, 79
4, 95326, Note_on_c, 1, 67, 0
4, 95328, Note_on_c, 1, 60, 79
4, 95358, Note_on_c, 1, 60, 0
4, 95360, Note_on_c, 1, 64, 79
4, 95390, Note_on_c, 1, 64, 0
4, 95392, Note_on_c, 1, 67, 79
4, 95422, Note_on_c, 1, 67, 0
4, 95424, Note_on_c, 1, 60, 79
4, 95454, Note_on_c, 1, 60, 0
4, 95456, Note_on_c, 1, 64, 79
4, 95486, Note_on_c, 1, 64, 0
4, 95488, Note_on_c, 1, 67, 79
4, 95518, Note_on_c, 1, 67, 0
4, 95520, Note_on_c, 1, 60, 79
4, 95550, Note_on_c, 1, 60, 0
4, 95552, Note_on_c, 1, 64, 79
4, 95582, Note_on_c, 1, 64, 0
4, 95584, Note_on_c, 1, 67, 79
4, 95614, Note_on_c, 1, 67, 0
4, 95616, Note_on_c, 1, 60, 79
4, 95749, Note_on_c, 1, 60, 0
4, 96000, Note_on_c, 1, 67, 74
4, 96000, Note_on_c, 1, 59, 74
4, 96039, Note_on_c, 1, 67, 0
4, 96039, Note_on_c, 1, 59, 0
4, 96192, Note_on_c, 1, 67, 74
4, 96192, Note_on_c, 1, 60, 74
4, 96231, Note_on_c, 1, 67, 0
4, 96231, Note_on_c, 1, 60, 0
4, 96384, Note_on_c, 1, 67, 74
4, 96384, Note_on_c, 1, 65, 74
4, 96423, Note_on_c, 1, 67, 0
4, 96423, Note_on_c, 1, 65, 0
4, 96576, Note_on_c, 1, 67, 74
4, 96576, Note_on_c, 1, 64, 74
4, 96615, Note_on_c, 1, 67, 0
4, 96615, Note_on_c, 1, 64, 0
4, 96768, Note_on_c, 1, 52, 85
4, 96768, Note_on_c, 1, 40, 85
4, 96807, Note_on_c, 1, 52, 0
4, 96807, Note_on_c, 1, 40, 0
4, 96960, Note_on_c, 1, 52, 85
4, 96960, Note_on_c, 1, 40, 85
4, 96999, Note_on_c, 1, 52, 0
4, 96999, Note_on_c, 1, 40, 0
4, 97152, Note_on_c, 1, 52, 85
4, 97152, Note_on_c, 1, 40, 85
4, 97713, Note_on_c, 1, 52, 0
4, 97713, Note_on_c, 1, 40, 0
4, 97920, Note_on_c, 1, 53, 69
4, 97950, Note_on_c, 1, 53, 0
4, 97952, Note_on_c, 1, 57, 69
4, 97982, Note_on_c, 1, 57, 0
4, 97984, Note_on_c, 1, 60, 69
4, 98014, Note_on_c, 1, 60, 0
4, 98016, Note_on_c, 1, 53, 69
4, 98046, Note_on_c, 1, 53, 0
4, 98048, Note_on_c, 1, 57, 69
4, 98078, Note_on_c, 1, 57, 0
4, 98080, Note_on_c, 1, 60, 69
4, 98110, Note_on_c, 1, 60, 0
4, 98112, Note_on_c, 1, 53, 69
4, 98142, Note_on_c, 1, 53, 0
4, 98144, Note_on_c, 1, 57, 69
4, 98174, Note_on_c, 1, 57, 0
4, 98176, Note_on_c, 1, 60, 69
4, 98206, Note_on_c, 1, 60, 0
4, 98208, Note_on_c, 1, 53, 69
4, 98238, Note_on_c, 1, 53, 0
4, 98240, Note_on_c, 1, 57, 69
4, 98270, Note_on_c, 1, 57, 0
4, 98272, Note_on_c, 1, 60, 69
4, 98302, Note_on_c, 1, 60, 0
4, 98304, Note_on_c, 1, 53, 69
4, 98334, Note_on_c, 1, 53, 0
4, 98336, Note_on_c, 1, 57, 69
4, 98366, Note_on_c, 1, 57, 0
4, 98368, Note_on_c, 1, 60, 69
4, 98398, Note_on_c, 1, 60, 0
4, 98400, Note_on_c, 1, 53, 69
4, 98430, Note_on_c, 1, 53, 0
4, 98432, Note_on_c, 1, 57, 69
4, 98462, Note_on_c, 1, 57, 0
4, 98464, Note_on_c, 1, 60, 69
4, 98494, Note_on_c, 1, 60, 0
4, 98496, Note_on_c, 1, 53, 69
4, 98526, Note_on_c, 1, 53, 0
4, 98528, Note_on_c, 1, 57, 69
4, 98558, Note_on_c, 1, 57, 0
4, 98560, Note_on_c, 1, 60, 69
4, 98590, Note_on_c, 1, 60, 0
4, 98592, Note_on_c, 1, 53, 69
4, 98622, Note_on_c, 1, 53, 0
4, 98624, Note_on_c, 1, 57, 69
4, 98654, Note_on_c, 1, 57, 0
4, 98656, Note_on_c, 1, 60, 69
4, 98686, Note_on_c, 1, 60, 0
4, 98688, Note_on_c, 1, 55, 69
4, 98718, Note_on_c, 1, 55, 0
4, 98720, Note_on_c, 1, 58, 69
4, 98750, Note_on_c, 1, 58, 0
4, 98752, Note_on_c, 1, 60, 69
4, 98782, Note_on_c, 1, 60, 0
4, 98784, Note_on_c, 1, 55, 69
4, 98814, Note_on_c, 1, 55, 0
4, 98816, Note_on_c, 1, 58, 69
4, 98846, Note_on_c, 1, 58, 0
4, 98848, Note_on_c, 1, 60, 69
4, 98878, Note_on_c, 1, 60, 0
4, 98880, Note_on_c, 1, 53, 69
4, 98910, Note_on_c, 1, 53, 0
4, 98912, Note_on_c, 1, 57, 69
4, 98942, Note_on_c, 1, 57, 0
4, 98944, Note_on_c, 1, 60, 69
4, 98974, Note_on_c, 1, 60, 0
4, 98976, Note_on_c, 1, 53, 69
4, 99006, Note_on_c, 1, 53, 0
4, 99008, Note_on_c, 1, 57, 69
4, 99038, Note_on_c, 1, 57, 0
4, 99040, Note_on_c, 1, 60, 69
4, 99070, Note_on_c, 1, 60, 0
4, 99072, Note_on_c, 1, 52, 69
4, 99102, Note_on_c, 1, 52, 0
4, 99104, Note_on_c, 1, 55, 69
4, 99134, Note_on_c, 1, 55, 0
4, 99136, Note_on_c, 1, 60, 69
4, 99166, Note_on_c, 1, 60, 0
4, 99168, Note_on_c, 1, 52, 69
4, 99198, Note_on_c, 1, 52, 0
4, 99200, Note_on_c, 1, 55, 69
4, 99230, Note_on_c, 1, 55, 0
4, 99232, Note_on_c, 1, 60, 69
4, 99262, Note_on_c, 1, 60, 0
4, 99264, Note_on_c, 1, 52, 69
4, 99294, Note_on_c, 1, 52, 0
4, 99296, Note_on_c, 1, 55, 69
4, 99326, Note_on_c, 1, 55, 0
4, 99328, Note_on_c, 1, 60, 69
4, 99358, Note_on_c, 1, 60, 0
4, 99360, Note_on_c, 1, 52, 69
4, 99390, Note_on_c, 1, 52, 0
4, 99392, Note_on_c, 1, 55, 69
4, 99422, Note_on_c, 1, 55, 0
4, 99424, Note_on_c, 1, 60, 69
4, 99454, Note_on_c, 1, 60, 0
4, 99456, Note_on_c, 1, 52, 69
4, 99486, Note_on_c, 1, 52, 0
4, 99488, Note_on_c, 1, 55, 69
4, 99518, Note_on_c, 1, 55, 0
4, 99520, Note_on_c, 1, 60, 69
4, 99550, Note_on_c, 1, 60, 0
4, 99552, Note_on_c, 1, 52, 69
4, 99582, Note_on_c, 1, 52, 0
4, 99584, Note_on_c, 1, 55, 69
4, 99614, Note_on_c, 1, 55, 0
4, 99616, Note_on_c, 1, 60, 69
4, 99646, Note_on_c, 1, 60, 0
4, 99648, Note_on_c, 1, 53, 69
4, 99678, Note_on_c, 1, 53, 0
4, 99680, Note_on_c, 1, 57, 69
4, 99710, Note_on_c, 1, 57, 0
4, 99712, Note_on_c, 1, 60, 69
4, 99742, Note_on_c, 1, 60, 0
4, 99744, Note_on_c, 1, 53, 69
4, 99774, Note_on_c, 1, 53, 0
4, 99776, Note_on_c, 1, 57, 69
4, 99806, Note_on_c, 1, 57, 0
4, 99808, Note_on_c, 1, 60, 69
4, 99838, Note_on_c, 1, 60, 0
4, 99840, Note_on_c, 1, 58, 69
4, 99870, Note_on_c, 1, 58, 0
4, 99872, Note_on_c, 1, 60, 69
4, 99902, Note_on_c, 1, 60, 0
4, 99904, Note_on_c, 1, 64, 69
4, 99934, Note_on_c, 1, 64, 0
4, 99936, Note_on_c, 1, 58, 69
4, 99966, Note_on_c, 1, 58, 0
4, 99968, Note_on_c, 1, 60, 69
4, 99998, Note_on_c, 1, 60, 0
4, 100000, Note_on_c, 1, 64, 69
4, 100030, Note_on_c, 1, 64, 0
4, 100032, Note_on_c, 1, 57, 69
4, 100062, Note_on_c, 1, 57, 0
4, 100064, Note_on_c, 1, 60, 69
4, 100094, Note_on_c, 1, 60, 0
4, 100096, Note_on_c, 1, 65, 69
4, 100126, Note_on_c, 1, 65, 0
4, 100128, Note_on_c, 1, 57, 69
4, 100158, Note_on_c, 1, 57, 0
4, 100160, Note_on_c, 1, 60, 69
4, 100190, Note_on_c, 1, 60, 0
4, 100192, Note_on_c, 1, 65, 69
4, 100222, Note_on_c, 1, 65, 0
4, 100224, Note_on_c, 1, 58, 69
4, 100254, Note_on_c, 1, 58, 0
4, 100256, Note_on_c, 1, 62, 69
4, 100286, Note_on_c, 1, 62, 0
4, 100288, Note_on_c, 1, 65, 69
4, 100318, Note_on_c, 1, 65, 0
4, 100320, Note_on_c, 1, 58, 69
4, 100350, Note_on_c, 1, 58, 0
4, 100352, Note_on_c, 1, 62, 69
4, 100382, Note_on_c, 1, 62, 0
4, 100384, Note_on_c, 1, 65, 69
4, 100414, Note_on_c, 1, 65, 0
4, 100416, Note_on_c, 1, 60, 69
4, 100446, Note_on_c, 1, 60, 0
4, 100448, Note_on_c, 1, 64, 69
4, 100478, Note_on_c, 1, 64, 0
4, 100480, Note_on_c, 1, 67, 69
4, 100510, Note_on_c, 1, 67, 0
4, 100512, Note_on_c, 1, 60, 69
4, 100542, Note_on_c, 1, 60, 0
4, 100544, Note_on_c, 1, 64, 69
4, 100574, Note_on_c, 1, 64, 0
4, 100576, Note_on_c, 1, 67, 69
4, 100606, Note_on_c, 1, 67, 0
4, 100608, Note_on_c, 1, 65, 69
4, 100697, Note_on_c, 1, 65, 0
4, 100896, Note_on_c, 1, 67, 85
4, 100896, Note_on_c, 1, 60, 85
4, 100985, Note_on_c, 1, 67, 0
4, 100985, Note_on_c, 1, 60, 0
4, 100992, Note_on_c, 1, 65, 74
4, 101031, Note_on_c, 1, 65, 0
4, 101280, Note_on_c, 1, 67, 85
4, 101280, Note_on_c, 1, 60, 85
4, 101369, Note_on_c, 1, 67, 0
4, 101369, Note_on_c, 1, 60, 0
4, 101376, Note_on_c, 1, 65, 74
4, 101415, Note_on_c, 1, 65, 0
4, 101664, Note_on_c, 1, 69, 85
4, 101664, Note_on_c, 1, 62, 85
4, 101753, Note_on_c, 1, 69, 0
4, 101753, Note_on_c, 1, 62, 0
4, 101760, Note_on_c, 1, 67, 79
4, 101799, Note_on_c, 1, 67, 0
4, 102048, Note_on_c, 1, 71, 85
4, 102048, Note_on_c, 1, 64, 85
4, 102137, Note_on_c, 1, 71, 0
4, 102137, Note_on_c, 1, 64, 0
4, 102144, Note_on_c, 1, 69, 74
4, 102183, Note_on_c, 1, 69, 0
4, 102432, Note_on_c, 1, 68, 85
4, 102521, Note_on_c, 1, 68, 0
4, 102528, Note_on_c, 1, 69, 85
4, 102617, Note_on_c, 1, 69, 0
4, 102624, Note_on_c, 1, 71, 85
4, 102713, Note_on_c, 1, 71, 0
4, 102720, Note_on_c, 1, 72, 85
4, 102809, Note_on_c, 1, 72, 0
4, 102816, Note_on_c, 1, 69, 85
4, 102905, Note_on_c, 1, 69, 0
4, 102912, Note_on_c, 1, 68, 85
4, 103001, Note_on_c, 1, 68, 0
4, 103008, Note_on_c, 1, 69, 85
4, 103097, Note_on_c, 1, 69, 0
4, 103104, Note_on_c, 1, 68, 85
4, 103193, Note_on_c, 1, 68, 0
4, 103200, Note_on_c, 1, 64, 85
4, 103289, Note_on_c, 1, 64, 0
4, 103296, Note_on_c, 1, 65, 85
4, 103385, Note_on_c, 1, 65, 0
4, 103392, Note_on_c, 1, 69, 85
4, 103481, Note_on_c, 1, 69, 0
4, 103488, Note_on_c, 1, 71, 85
4, 103577, Note_on_c, 1, 71, 0
4, 103584, Note_on_c, 1, 74, 85
4, 103673, Note_on_c, 1, 74, 0
4, 103680, Note_on_c, 1, 64, 85
4, 103769, Note_on_c, 1, 64, 0
4, 103776, Note_on_c, 1, 68, 85
4, 103865, Note_on_c, 1, 68, 0
4, 103872, Note_on_c, 1, 69, 85
4, 103961, Note_on_c, 1, 69, 0
4, 103968, Note_on_c, 1, 73, 85
4, 104057, Note_on_c, 1, 73, 0
4, 104064, Note_on_c, 1, 62, 85
4, 104153, Note_on_c, 1, 62, 0
4, 104160, Note_on_c, 1, 66, 85
4, 104249, Note_on_c, 1, 66, 0
4, 104256, Note_on_c, 1, 67, 85
4, 104345, Note_on_c, 1, 67, 0
4, 104352, Note_on_c, 1, 71, 85
4, 104441, Note_on_c, 1, 71, 0
4, 104448, Note_on_c, 1, 60, 85
4, 104537, Note_on_c, 1, 60, 0
4, 104544, Note_on_c, 1, 64, 85
4, 104633, Note_on_c, 1, 64, 0
4, 104640, Note_on_c, 1, 65, 85
4, 104729, Note_on_c, 1, 65, 0
4, 104736, Note_on_c, 1, 69, 85
4, 104825, Note_on_c, 1, 69, 0
4, 104832, Note_on_c, 1, 64, 85
4, 104921, Note_on_c, 1, 64, 0
4, 104928, Note_on_c, 1, 60, 85
4, 105017, Note_on_c, 1, 60, 0
4, 105024, Note_on_c, 1, 65, 85
4, 105113, Note_on_c, 1, 65, 0
4, 105120, Note_on_c, 1, 69, 85
4, 105209, Note_on_c, 1, 69, 0
4, 105216, Note_on_c, 1, 53, 92
4, 105216, Note_on_c, 1, 41, 92
4, 105305, Note_on_c, 1, 53, 0
4, 105305, Note_on_c, 1, 41, 0
4, 105312, Note_on_c, 1, 57, 92
4, 105312, Note_on_c, 1, 45, 92
4, 105401, Note_on_c, 1, 57, 0
4, 105401, Note_on_c, 1, 45, 0
4, 105408, Note_on_c, 1, 52, 92
4, 105408, Note_on_c, 1, 40, 92
4, 105497, Note_on_c, 1, 52, 0
4, 105497, Note_on_c, 1, 40, 0
4, 105504, Note_on_c, 1, 57, 92
4, 105504, Note_on_c, 1, 45, 92
4, 105593, Note_on_c, 1, 57, 0
4, 105593, Note_on_c, 1, 45, 0
4, 105600, Control_c, 1, 64, 127
4, 105600, Note_on_c, 1, 51, 92
4, 105600, Note_on_c, 1, 39, 92
4, 105689, Note_on_c, 1, 51, 0
4, 105689, Note_on_c, 1, 39, 0
4, 105696, Note_on_c, 1, 54, 92
4, 105696, Note_on_c, 1, 42, 92
4, 105785, Note_on_c, 1, 54, 0
4, 105785, Note_on_c, 1, 42, 0
4, 105792, Note_on_c, 1, 57, 92
4, 105792, Note_on_c, 1, 45, 92
4, 105881, Note_on_c, 1, 57, 0
4, 105881, Note_on_c, 1, 45, 0
4, 105888, Note_on_c, 1, 60, 92
4, 105888, Note_on_c, 1, 48, 92
4, 105977, Note_on_c, 1, 60, 0
4, 105977, Note_on_c, 1, 48, 0
4, 105984, Note_on_c, 1, 63, 92
4, 105984, Note_on_c, 1, 51, 92
4, 106073, Note_on_c, 1, 63, 0
4, 106073, Note_on_c, 1, 51, 0
4, 106080, Note_on_c, 1, 66, 92
4, 106080, Note_on_c, 1, 54, 92
4, 106169, Note_on_c, 1, 66, 0
4, 106169, Note_on_c, 1, 54, 0
4, 106176, Note_on_c, 1, 69, 92
4, 106176, Note_on_c, 1, 57, 92
4, 106265, Note_on_c, 1, 69, 0
4, 106265, Note_on_c, 1, 57, 0
4, 106272, Note_on_c, 1, 51, 92
4, 106272, Note_on_c, 1, 39, 92
4, 106361, Note_on_c, 1, 51, 0
4, 106361, Note_on_c, 1, 39, 0
4, 106368, Control_c, 1, 64, 0
4, 106368, Note_on_c, 1, 52, 92
4, 106368, Note_on_c, 1, 40, 92
4, 107490, Note_on_c, 1, 52, 0
4, 107490, Note_on_c, 1, 40, 0
4, 107520, Note_on_c, 1, 57, 92
4, 107520, Note_on_c, 1, 45, 92
4, 107697, Note_on_c, 1, 57, 0
4, 107697, Note_on_c, 1, 45, 0
4, 107712, Note_on_c, 1, 48, 92
4, 107712, Note_on_c, 1, 36, 92
4, 107889, Note_on_c, 1, 48, 0
4, 107889, Note_on_c, 1, 36, 0
4, 107904, Note_on_c, 1, 50, 92
4, 107904, Note_on_c, 1, 38, 92
4, 108081, Note_on_c, 1, 50, 0
4, 108081, Note_on_c, 1, 38, 0
4, 108096, Note_on_c, 1, 52, 92
4, 108096, Note_on_c, 1, 40, 92
4, 108273, Note_on_c, 1, 52, 0
4, 108273, Note_on_c, 1, 40, 0
4, 108864, Note_on_c, 1, 57, 69
4, 108953, Note_on_c, 1, 57, 0
4, 108960, Note_on_c, 1, 55, 69
4, 109049, Note_on_c, 1, 55, 0
4, 109056, Note_on_c, 1, 53, 85
4, 109056, Note_on_c, 1, 50, 85
4, 109321, Note_on_c, 1, 53, 0
4, 109321, Note_on_c, 1, 50, 0
4, 109344, Note_on_c, 1, 52, 85
4, 109344, Note_on_c, 1, 48, 85
4, 109433, Note_on_c, 1, 52, 0
4, 109433, Note_on_c, 1, 48, 0
4, 109440, Note_on_c, 1, 50, 85
4, 109440, Note_on_c, 1, 47, 85
4, 109705, Note_on_c, 1, 50, 0
4, 109705, Note_on_c, 1, 47, 0
4, 109728, Note_on_c, 1, 48, 85
4, 109728, Note_on_c, 1, 45, 85
4, 109817, Note_on_c, 1, 48, 0
4, 109817, Note_on_c, 1, 45, 0
4, 109824, Note_on_c, 1, 47, 69
4, 109824, Note_on_c, 1, 43, 69
4, 110562, Note_on_c, 1, 47, 0
4, 110562, Note_on_c, 1, 43, 0
4, 111360, Control_c, 1, 64, 127
4, 111360, Note_on_c, 1, 59, 74
4, 111360, Note_on_c, 1, 55, 74
4, 111714, Note_on_c, 1, 59, 0
4, 111714, Note_on_c, 1, 55, 0
4, 111744, Control_c, 1, 64, 0
4, 111840, Control_c, 1, 64, 0
4, 112128, Note_on_c, 1, 55, 85
4, 112148, Note_on_c, 1, 55, 0
4, 112176, Note_on_c, 1, 55, 85
4, 112221, Note_on_c, 1, 55, 0
4, 112224, Note_on_c, 1, 57, 85
4, 112269, Note_on_c, 1, 57, 0
4, 112272, Note_on_c, 1, 59, 85
4, 112317, Note_on_c, 1, 59, 0
4, 112320, Note_on_c, 1, 60, 85
4, 112365, Note_on_c, 1, 60, 0
4, 112368, Note_on_c, 1, 62, 85
4, 112413, Note_on_c, 1, 62, 0
4, 112416, Note_on_c, 1, 64, 85
4, 112461, Note_on_c, 1, 64, 0
4, 112464, Note_on_c, 1, 66, 85
4, 112509, Note_on_c, 1, 66, 0
4, 112512, Note_on_c, 1, 67, 85
4, 112777, Note_on_c, 1, 67, 0
4, 113664, Note_on_c, 1, 52, 74
4, 113664, Note_on_c, 1, 48, 74
4, 113703, Note_on_c, 1, 52, 0
4, 113703, Note_on_c, 1, 48, 0
4, 114048, Note_on_c, 1, 52, 74
4, 114048, Note_on_c, 1, 48, 74
4, 114087, Note_on_c, 1, 52, 0
4, 114087, Note_on_c, 1, 48, 0
4, 114432, Note_on_c, 1, 53, 74
4, 114432, Note_on_c, 1, 50, 74
4, 114432, Note_on_c, 1, 43, 74
4, 114471, Note_on_c, 1, 53, 0
4, 114471, Note_on_c, 1, 50, 0
4, 114471, Note_on_c, 1, 43, 0
4, 114528, Note_on_c, 1, 53, 75
4, 114528, Note_on_c, 1, 50, 75
4, 114528, Note_on_c, 1, 43, 75
4, 114567, Note_on_c, 1, 53, 0
4, 114567, Note_on_c, 1, 50, 0
4, 114567, Note_on_c, 1, 43, 0
4, 114624, Note_on_c, 1, 52, 76
4, 114624, Note_on_c, 1, 48, 76
4, 114624, Note_on_c, 1, 43, 76
4, 114663, Note_on_c, 1, 52, 0
4, 114663, Note_on_c, 1, 48, 0
4, 114663, Note_on_c, 1, 43, 0
4, 114720, Note_on_c, 1, 52, 77
4, 114720, Note_on_c, 1, 48, 77
4, 114720, Note_on_c, 1, 43, 77
4, 114759, Note_on_c, 1, 52, 0
4, 114759, Note_on_c, 1, 48, 0
4, 114759, Note_on_c, 1, 43, 0
4, 114816, Note_on_c, 1, 50, 79
4, 114816, Note_on_c, 1, 47, 79
4, 114816, Note_on_c, 1, 43, 79
4, 114905, Note_on_c, 1, 50, 0
4, 114905, Note_on_c, 1, 47, 0
4, 114905, Note_on_c, 1, 43, 0
4, 115200, Note_on_c, 1, 55, 74
4, 115200, Note_on_c, 1, 47, 74
4, 115239, Note_on_c, 1, 55, 0
4, 115239, Note_on_c, 1, 47, 0
4, 115392, Note_on_c, 1, 55, 74
4, 115392, Note_on_c, 1, 48, 74
4, 115431, Note_on_c, 1, 55, 0
4, 115431, Note_on_c, 1, 48, 0
4, 115584, Note_on_c, 1, 55, 74
4, 115584, Note_on_c, 1, 53, 74
4, 115623, Note_on_c, 1, 55, 0
4, 115623, Note_on_c, 1, 53, 0
4, 115776, Note_on_c, 1, 55, 74
4, 115776, Note_on_c, 1, 52, 74
4, 115815, Note_on_c, 1, 55, 0
4, 115815, Note_on_c, 1, 52, 0
4, 115968, Note_on_c, 1, 53, 74
4, 115968, Note_on_c, 1, 41, 74
4, 116007, Note_on_c, 1, 53, 0
4, 116007, Note_on_c, 1, 41, 0
4, 116064, Note_on_c, 1, 53, 74
4, 116064, Note_on_c, 1, 41, 74
4, 116103, Note_on_c, 1, 53, 0
4, 116103, Note_on_c, 1, 41, 0
4, 116160, Note_on_c, 1, 50, 74
4, 116160, Note_on_c, 1, 43, 74
4, 116199, Note_on_c, 1, 50, 0
4, 116199, Note_on_c, 1, 43, 0
4, 116256, Note_on_c, 1, 50, 74
4, 116256, Note_on_c, 1, 43, 74
4, 116295, Note_on_c, 1, 50, 0
4, 116295, Note_on_c, 1, 43, 0
4, 116352, Note_on_c, 1, 60, 74
4, 116382, Note_on_c, 1, 60, 0
4, 116384, Note_on_c, 1, 63, 74
4, 116414, Note_on_c, 1, 63, 0
4, 116416, Note_on_c, 1, 67, 74
4, 116446, Note_on_c, 1, 67, 0
4, 116448, Note_on_c, 1, 60, 74
4, 116478, Note_on_c, 1, 60, 0
4, 116480, Note_on_c, 1, 63, 74
4, 116510, Note_on_c, 1, 63, 0
4, 116512, Note_on_c, 1, 67, 74
4, 116542, Note_on_c, 1, 67, 0
4, 116544, Note_on_c, 1, 60, 74
4, 116574, Note_on_c, 1, 60, 0
4, 116576, Note_on_c, 1, 63, 74
4, 116606, Note_on_c, 1, 63, 0
4, 116608, Note_on_c, 1, 67, 74
4, 116638, Note_on_c, 1, 67, 0
4, 116640, Note_on_c, 1, 60, 74
4, 116670, Note_on_c, 1, 60, 0
4, 116672, Note_on_c, 1, 63, 74
4, 116702, Note_on_c, 1, 63, 0
4, 116704, Note_on_c, 1, 67, 74
4, 116734, Note_on_c, 1, 67, 0
4, 116736, Note_on_c, 1, 60, 74
4, 116766, Note_on_c, 1, 60, 0
4, 116768, Note_on_c, 1, 63, 74
4, 116798, Note_on_c, 1, 63, 0
4, 116800, Note_on_c, 1, 67, 74
4, 116830, Note_on_c, 1, 67, 0
4, 116832, Note_on_c, 1, 60, 74
4, 116862, Note_on_c, 1, 60, 0
4, 116864, Note_on_c, 1, 63, 74
4, 116894, Note_on_c, 1, 63, 0
4, 116896, Note_on_c, 1, 67, 74
4, 116926, Note_on_c, 1, 67, 0
4, 116928, Note_on_c, 1, 60, 74
4, 116958, Note_on_c, 1, 60, 0
4, 116960, Note_on_c, 1, 63, 74
4, 116990, Note_on_c, 1, 63, 0
4, 116992, Note_on_c, 1, 67, 74
4, 117022, Note_on_c, 1, 67, 0
4, 117024, Note_on_c, 1, 60, 74
4, 117054, Note_on_c, 1, 60, 0
4, 117056, Note_on_c, 1, 63, 74
4, 117086, Note_on_c, 1, 63, 0
4, 117088, Note_on_c, 1, 67, 74
4, 117118, Note_on_c, 1, 67, 0
4, 117120, Note_on_c, 1, 60, 74
4, 117150, Note_on_c, 1, 60, 0
4, 117152, Note_on_c, 1, 63, 74
4, 117182, Note_on_c, 1, 63, 0
4, 117184, Note_on_c, 1, 67, 74
4, 117214, Note_on_c, 1, 67, 0
4, 117216, Note_on_c, 1, 60, 74
4, 117246, Note_on_c, 1, 60, 0
4, 117248, Note_on_c, 1, 63, 74
4, 117278, Note_on_c, 1, 63, 0
4, 117280, Note_on_c, 1, 67, 74
4, 117310, Note_on_c, 1, 67, 0
4, 117312, Note_on_c, 1, 60, 74
4, 117342, Note_on_c, 1, 60, 0
4, 117344, Note_on_c, 1, 63, 74
4, 117374, Note_on_c, 1, 63, 0
4, 117376, Note_on_c, 1, 67, 74
4, 117406, Note_on_c, 1, 67, 0
4, 117408, Note_on_c, 1, 60, 74
4, 117438, Note_on_c, 1, 60, 0
4, 117440, Note_on_c, 1, 63, 74
4, 117470, Note_on_c, 1, 63, 0
4, 117472, Note_on_c, 1, 67, 74
4, 117502, Note_on_c, 1, 67, 0
4, 117504, Note_on_c, 1, 58, 74
4, 117534, Note_on_c, 1, 58, 0
4, 117536, Note_on_c, 1, 64, 74
4, 117566, Note_on_c, 1, 64, 0
4, 117568, Note_on_c, 1, 67, 74
4, 117598, Note_on_c, 1, 67, 0
4, 117600, Note_on_c, 1, 58, 74
4, 117630, Note_on_c, 1, 58, 0
4, 117632, Note_on_c, 1, 64, 74
4, 117662, Note_on_c, 1, 64, 0
4, 117664, Note_on_c, 1, 67, 74
4, 117694, Note_on_c, 1, 67, 0
4, 117696, Note_on_c, 1, 58, 74
4, 117726, Note_on_c, 1, 58, 0
4, 117728, Note_on_c, 1, 64, 74
4, 117758, Note_on_c, 1, 64, 0
4, 117760, Note_on_c, 1, 67, 74
4, 117790, Note_on_c, 1, 67, 0
4, 117792, Note_on_c, 1, 58, 74
4, 117822, Note_on_c, 1, 58, 0
4, 117824, Note_on_c, 1, 64, 74
4, 117854, Note_on_c, 1, 64, 0
4, 117856, Note_on_c, 1, 67, 74
4, 117886, Note_on_c, 1, 67, 0
4, 117888, Note_on_c, 1, 58, 74
4, 117918, Note_on_c, 1, 58, 0
4, 117920, Note_on_c, 1, 64, 74
4, 117950, Note_on_c, 1, 64, 0
4, 117952, Note_on_c, 1, 67, 74
4, 117982, Note_on_c, 1, 67, 0
4, 117984, Note_on_c, 1, 58, 74
4, 118014, Note_on_c, 1, 58, 0
4, 118016, Note_on_c, 1, 64, 74
4, 118046, Note_on_c, 1, 64, 0
4, 118048, Note_on_c, 1, 67, 74
4, 118078, Note_on_c, 1, 67, 0
4, 118080, Note_on_c, 1, 58, 74
4, 118110, Note_on_c, 1, 58, 0
4, 118112, Note_on_c, 1, 64, 74
4, 118142, Note_on_c, 1, 64, 0
4, 118144, Note_on_c, 1, 67, 74
4, 118174, Note_on_c, 1, 67, 0
4, 118176, Note_on_c, 1, 58, 74
4, 118206, Note_on_c, 1, 58, 0
4, 118208, Note_on_c, 1, 64, 74
4, 118238, Note_on_c, 1, 64, 0
4, 118240, Note_on_c, 1, 67, 74
4, 118270, Note_on_c, 1, 67, 0
4, 118272, Note_on_c, 1, 57, 74
4, 118302, Note_on_c, 1, 57, 0
4, 118304, Note_on_c, 1, 64, 74
4, 118334, Note_on_c, 1, 64, 0
4, 118336, Note_on_c, 1, 67, 74
4, 118366, Note_on_c, 1, 67, 0
4, 118368, Note_on_c, 1, 57, 74
4, 118398, Note_on_c, 1, 57, 0
4, 118400, Note_on_c, 1, 64, 74
4, 118430, Note_on_c, 1, 64, 0
4, 118432, Note_on_c, 1, 67, 74
4, 118462, Note_on_c, 1, 67, 0
4, 118464, Note_on_c, 1, 57, 74
4, 118494, Note_on_c, 1, 57, 0
4, 118496, Note_on_c, 1, 64, 74
4, 118526, Note_on_c, 1, 64, 0
4, 118528, Note_on_c, 1, 67, 74
4, 118558, Note_on_c, 1, 67, 0
4, 118560, Note_on_c, 1, 57, 74
4, 118590, Note_on_c, 1, 57, 0
4, 118592, Note_on_c, 1, 64, 74
4, 118622, Note_on_c, 1, 64, 0
4, 118624, Note_on_c, 1, 67, 74
4, 118654, Note_on_c, 1, 67, 0
4, 118656, Note_on_c, 1, 57, 74
4, 118686, Note_on_c, 1, 57, 0
4, 118688, Note_on_c, 1, 62, 74
4, 118718, Note_on_c, 1, 62, 0
4, 118720, Note_on_c, 1, 65, 74
4, 118750, Note_on_c, 1, 65, 0
4, 118752, Note_on_c, 1, 57, 74
4, 118782, Note_on_c, 1, 57, 0
4, 118784, Note_on_c, 1, 62, 74
4, 118814, Note_on_c, 1, 62, 0
4, 118816, Note_on_c, 1, 65, 74
4, 118846, Note_on_c, 1, 65, 0
4, 118848, Note_on_c, 1, 57, 74
4, 118878, Note_on_c, 1, 57, 0
4, 118880, Note_on_c, 1, 62, 74
4, 118910, Note_on_c, 1, 62, 0
4, 118912, Note_on_c, 1, 65, 74
4, 118942, Note_on_c, 1, 65, 0
4, 118944, Note_on_c, 1, 57, 74
4, 118974, Note_on_c, 1, 57, 0
4, 118976, Note_on_c, 1, 62, 74
4, 119006, Note_on_c, 1, 62, 0
4, 119008, Note_on_c, 1, 65, 74
4, 119038, Note_on_c, 1, 65, 0
4, 119040, Note_on_c, 1, 55, 74
4, 119070, Note_on_c, 1, 55, 0
4, 119072, Note_on_c, 1, 59, 74
4, 119102, Note_on_c, 1, 59, 0
4, 119104, Note_on_c, 1, 62, 74
4, 119134, Note_on_c, 1, 62, 0
4, 119136, Note_on_c, 1, 55, 74
4, 119166, Note_on_c, 1, 55, 0
4, 119168, Note_on_c, 1, 59, 74
4, 119198, Note_on_c, 1, 59, 0
4, 119200, Note_on_c, 1, 62, 74
4, 119230, Note_on_c, 1, 62, 0
4, 119232, Note_on_c, 1, 55, 74
4, 119262, Note_on_c, 1, 55, 0
4, 119264, Note_on_c, 1, 60, 74
4, 119294, Note_on_c, 1, 60, 0
4, 119296, Note_on_c, 1, 64, 74
4, 119326, Note_on_c, 1, 64, 0
4, 119328, Note_on_c, 1, 55, 74
4, 119358, Note_on_c, 1, 55, 0
4, 119360, Note_on_c, 1, 60, 74
4, 119390, Note_on_c, 1, 60, 0
4, 119392, Note_on_c, 1, 64, 74
4, 119422, Note_on_c, 1, 64, 0
4, 119424, Note_on_c, 1, 55, 74
4, 119454, Note_on_c, 1, 55, 0
4, 119456, Note_on_c, 1, 62, 74
4, 119486, Note_on_c, 1, 62, 0
4, 119488, Note_on_c, 1, 65, 74
4, 119518, Note_on_c, 1, 65, 0
4, 119520, Note_on_c, 1, 55, 74
4, 119550, Note_on_c, 1, 55, 0
4, 119552, Note_on_c, 1, 62, 74
4, 119582, Note_on_c, 1, 62, 0
4, 119584, Note_on_c, 1, 65, 74
4, 119614, Note_on_c, 1, 65, 0
4, 119616, Note_on_c, 1, 55, 74
4, 119646, Note_on_c, 1, 55, 0
4, 119648, Note_on_c, 1, 60, 74
4, 119678, Note_on_c, 1, 60, 0
4, 119680, Note_on_c, 1, 64, 74
4, 119710, Note_on_c, 1, 64, 0
4, 119712, Note_on_c, 1, 55, 74
4, 119742, Note_on_c, 1, 55, 0
4, 119744, Note_on_c, 1, 60, 74
4, 119774, Note_on_c, 1, 60, 0
4, 119776, Note_on_c, 1, 64, 74
4, 119806, Note_on_c, 1, 64, 0
4, 119808, Note_on_c, 1, 55, 74
4, 119838, Note_on_c, 1, 55, 0
4, 119840, Note_on_c, 1, 59, 74
4, 119870, Note_on_c, 1, 59, 0
4, 119872, Note_on_c, 1, 62, 74
4, 119902, Note_on_c, 1, 62, 0
4, 119904, Note_on_c, 1, 55, 74
4, 119934, Note_on_c, 1, 55, 0
4, 119936, Note_on_c, 1, 59, 75
4, 119966, Note_on_c, 1, 59, 0
4, 119968, Note_on_c, 1, 62, 75
4, 119998, Note_on_c, 1, 62, 0
4, 120000, Note_on_c, 1, 55, 76
4, 120030, Note_on_c, 1, 55, 0
4, 120032, Note_on_c, 1, 60, 76
4, 120062, Note_on_c, 1, 60, 0
4, 120064, Note_on_c, 1, 64, 77
4, 120094, Note_on_c, 1, 64, 0
4, 120096, Note_on_c, 1, 55, 77
4, 120126, Note_on_c, 1, 55, 0
4, 120128, Note_on_c, 1, 60, 78
4, 120158, Note_on_c, 1, 60, 0
4, 120160, Note_on_c, 1, 64, 78
4, 120190, Note_on_c, 1, 64, 0
4, 120192, Note_on_c, 1, 55, 78
4, 120222, Note_on_c, 1, 55, 0
4, 120224, Note_on_c, 1, 62, 79
4, 120254, Note_on_c, 1, 62, 0
4, 120256, Note_on_c, 1, 65, 79
4, 120286, Note_on_c, 1, 65, 0
4, 120288, Note_on_c, 1, 55, 80
4, 120318, Note_on_c, 1, 55, 0
4, 120320, Note_on_c, 1, 62, 80
4, 120350, Note_on_c, 1, 62, 0
4, 120352, Note_on_c, 1, 65, 81
4, 120382, Note_on_c, 1, 65, 0
4, 120384, Note_on_c, 1, 55, 81
4, 120414, Note_on_c, 1, 55, 0
4, 120416, Note_on_c, 1, 60, 82
4, 120446, Note_on_c, 1, 60, 0
4, 120448, Note_on_c, 1, 64, 82
4, 120478, Note_on_c, 1, 64, 0
4, 120480, Note_on_c, 1, 55, 82
4, 120510, Note_on_c, 1, 55, 0
4, 120512, Note_on_c, 1, 60, 83
4, 120542, Note_on_c, 1, 60, 0
4, 120544, Note_on_c, 1, 64, 83
4, 120574, Note_on_c, 1, 64, 0
4, 120576, Note_on_c, 1, 55, 85
4, 120665, Note_on_c, 1, 55, 0
4, 120744, Note_on_c, 1, 55, 85
4, 120767, Note_on_c, 1, 55, 0
4, 120768, Note_on_c, 1, 59, 85
4, 120835, Note_on_c, 1, 59, 0
4, 120840, Note_on_c, 1, 55, 85
4, 120863, Note_on_c, 1, 55, 0
4, 120864, Note_on_c, 1, 62, 85
4, 120931, Note_on_c, 1, 62, 0
4, 120936, Note_on_c, 1, 59, 85
4, 120959, Note_on_c, 1, 59, 0
4, 120960, Note_on_c, 1, 67, 85
4, 121049, Note_on_c, 1, 67, 0
4, 122112, Note_on_c, 1, 52, 69
4, 122142, Note_on_c, 1, 52, 0
4, 122144, Note_on_c, 1, 55, 69
4, 122174, Note_on_c, 1, 55, 0
4, 122176, Note_on_c, 1, 60, 69
4, 122206, Note_on_c, 1, 60, 0
4, 122208, Note_on_c, 1, 52, 69
4, 122238, Note_on_c, 1, 52, 0
4, 122240, Note_on_c, 1, 55, 69
4, 122270, Note_on_c, 1, 55, 0
4, 122272, Note_on_c, 1, 60, 69
4, 122302, Note_on_c, 1, 60, 0
4, 122304, Note_on_c, 1, 52, 69
4, 122334, Note_on_c, 1, 52, 0
4, 122336, Note_on_c, 1, 55, 69
4, 122366, Note_on_c, 1, 55, 0
4, 122368, Note_on_c, 1, 60, 69
4, 122398, Note_on_c, 1, 60, 0
4, 122400, Note_on_c, 1, 53, 69
4, 122430, Note_on_c, 1, 53, 0
4, 122432, Note_on_c, 1, 55, 69
4, 122462, Note_on_c, 1, 55, 0
4, 122464, Note_on_c, 1, 59, 69
4, 122494, Note_on_c, 1, 59, 0
4, 122496, Note_on_c, 1, 52, 69
4, 122526, Note_on_c, 1, 52, 0
4, 122528, Note_on_c, 1, 55, 69
4, 122558, Note_on_c, 1, 55, 0
4, 122560, Note_on_c, 1, 60, 69
4, 122590, Note_on_c, 1, 60, 0
4, 122592, Note_on_c, 1, 52, 69
4, 122622, Note_on_c, 1, 52, 0
4, 122624, Note_on_c, 1, 55, 69
4, 122654, Note_on_c, 1, 55, 0
4, 122656, Note_on_c, 1, 60, 69
4, 122686, Note_on_c, 1, 60, 0
4, 122688, Note_on_c, 1, 52, 69
4, 122718, Note_on_c, 1, 52, 0
4, 122720, Note_on_c, 1, 55, 69
4, 122750, Note_on_c, 1, 55, 0
4, 122752, Note_on_c, 1, 60, 69
4, 122782, Note_on_c, 1, 60, 0
4, 122784, Note_on_c, 1, 53, 69
4, 122814, Note_on_c, 1, 53, 0
4, 122816, Note_on_c, 1, 55, 69
4, 122846, Note_on_c, 1, 55, 0
4, 122848, Note_on_c, 1, 59, 69
4, 122878, Note_on_c, 1, 59, 0
4, 122880, Note_on_c, 1, 52, 69
4, 122910, Note_on_c, 1, 52, 0
4, 122912, Note_on_c, 1, 55, 69
4, 122942, Note_on_c, 1, 55, 0
4, 122944, Note_on_c, 1, 60, 69
4, 122974, Note_on_c, 1, 60, 0
4, 122976, Note_on_c, 1, 52, 69
4, 123006, Note_on_c, 1, 52, 0
4, 123008, Note_on_c, 1, 55, 69
4, 123038, Note_on_c, 1, 55, 0
4, 123040, Note_on_c, 1, 60, 69
4, 123070, Note_on_c, 1, 60, 0
4, 123072, Note_on_c, 1, 52, 69
4, 123102, Note_on_c, 1, 52, 0
4, 123104, Note_on_c, 1, 55, 69
4, 123134, Note_on_c, 1, 55, 0
4, 123136, Note_on_c, 1, 60, 69
4, 123166, Note_on_c, 1, 60, 0
4, 123168, Note_on_c, 1, 53, 69
4, 123198, Note_on_c, 1, 53, 0
4, 123200, Note_on_c, 1, 55, 69
4, 123230, Note_on_c, 1, 55, 0
4, 123232, Note_on_c, 1, 59, 69
4, 123262, Note_on_c, 1, 59, 0
4, 123264, Note_on_c, 1, 52, 69
4, 123294, Note_on_c, 1, 52, 0
4, 123296, Note_on_c, 1, 55, 69
4, 123326, Note_on_c, 1, 55, 0
4, 123328, Note_on_c, 1, 60, 69
4, 123358, Note_on_c, 1, 60, 0
4, 123360, Note_on_c, 1, 52, 69
4, 123390, Note_on_c, 1, 52, 0
4, 123392, Note_on_c, 1, 55, 69
4, 123422, Note_on_c, 1, 55, 0
4, 123424, Note_on_c, 1, 60, 69
4, 123454, Note_on_c, 1, 60, 0
4, 123456, Note_on_c, 1, 47, 69
4, 123486, Note_on_c, 1, 47, 0
4, 123488, Note_on_c, 1, 50, 69
4, 123518, Note_on_c, 1, 50, 0
4, 123520, Note_on_c, 1, 55, 70
4, 123550, Note_on_c, 1, 55, 0
4, 123552, Note_on_c, 1, 47, 70
4, 123582, Note_on_c, 1, 47, 0
4, 123584, Note_on_c, 1, 50, 71
4, 123614, Note_on_c, 1, 50, 0
4, 123616, Note_on_c, 1, 55, 71
4, 123646, Note_on_c, 1, 55, 0
4, 123648, Note_on_c, 1, 48, 72
4, 123678, Note_on_c, 1, 48, 0
4, 123680, Note_on_c, 1, 52, 72
4, 123710, Note_on_c, 1, 52, 0
4, 123712, Note_on_c, 1, 55, 73
4, 123742, Note_on_c, 1, 55, 0
4, 123744, Note_on_c, 1, 48, 74
4, 123774, Note_on_c, 1, 48, 0
4, 123776, Note_on_c, 1, 52, 74
4, 123806, Note_on_c, 1, 52, 0
4, 123808, Note_on_c, 1, 55, 75
4, 123838, Note_on_c, 1, 55, 0
4, 123840, Note_on_c, 1, 50, 75
4, 123870, Note_on_c, 1, 50, 0
4, 123872, Note_on_c, 1, 53, 76
4, 123902, Note_on_c, 1, 53, 0
4, 123904, Note_on_c, 1, 59, 76
4, 123934, Note_on_c, 1, 59, 0
4, 123936, Note_on_c, 1, 50, 77
4, 123966, Note_on_c, 1, 50, 0
4, 123968, Note_on_c, 1, 53, 77
4, 123998, Note_on_c, 1, 53, 0
4, 124000, Note_on_c, 1, 59, 78
4, 124030, Note_on_c, 1, 59, 0
4, 124032, Note_on_c, 1, 52, 79
4, 124062, Note_on_c, 1, 52, 0
4, 124064, Note_on_c, 1, 55, 79
4, 124094, Note_on_c, 1, 55, 0
4, 124096, Note_on_c, 1, 60, 80
4, 124126, Note_on_c, 1, 60, 0
4, 124128, Note_on_c, 1, 52, 80
4, 124158, Note_on_c, 1, 52, 0
4, 124160, Note_on_c, 1, 55, 81
4, 124190, Note_on_c, 1, 55, 0
4, 124192, Note_on_c, 1, 60, 81
4, 124222, Note_on_c, 1, 60, 0
4, 124224, Note_on_c, 1, 52, 82
4, 124313, Note_on_c, 1, 52, 0
4, 124416, Note_on_c, 1, 53, 85
4, 124416, Note_on_c, 1, 41, 85
4, 124505, Note_on_c, 1, 53, 0
4, 124505, Note_on_c, 1, 41, 0
4, 125184, Note_on_c, 1, 76, 69
4, 125361, Note_on_c, 1, 76, 0
4, 125376, Note_on_c, 1, 77, 69
4, 125553, Note_on_c, 1, 77, 0
4, 125568, Note_on_c, 1, 76, 69
4, 125568, Note_on_c, 1, 72, 69
4, 125657, Note_on_c, 1, 76, 0
4, 125657, Note_on_c, 1, 72, 0
4, 125856, Note_on_c, 1, 72, 64
4, 125952, Note_on_c, 1, 72, 0
4, 125952, Note_on_c, 1, 74, 64
4, 125952, Note_on_c, 1, 71, 64
4, 126041, Note_on_c, 1, 74, 0
4, 126041, Note_on_c, 1, 71, 0
4, 126240, Note_on_c, 1, 69, 64
4, 126336, Note_on_c, 1, 69, 0
4, 126336, Note_on_c, 1, 71, 64
4, 126336, Note_on_c, 1, 67, 64
4, 126425, Note_on_c, 1, 71, 0
4, 126425, Note_on_c, 1, 67, 0
4, 126624, Note_on_c, 1, 65, 64
4, 126720, Note_on_c, 1, 65, 0
4, 126720, Note_on_c, 1, 67, 64
4, 126720, Note_on_c, 1, 64, 64
4, 126809, Note_on_c, 1, 67, 0
4, 126809, Note_on_c, 1, 64, 0
4, 127008, Note_on_c, 1, 64, 64
4, 127008, Note_on_c, 1, 60, 64
4, 127097, Note_on_c, 1, 64, 0
4, 127097, Note_on_c, 1, 60, 0
4, 127104, Note_on_c, 1, 65, 64
4, 127104, Note_on_c, 1, 53, 64
4, 127193, Note_on_c, 1, 65, 0
4, 127193, Note_on_c, 1, 53, 0
4, 127296, Note_on_c, 1, 62, 64
4, 127296, Note_on_c, 1, 55, 64
4, 127385, Note_on_c, 1, 62, 0
4, 127385, Note_on_c, 1, 55, 0
4, 127488, Note_on_c, 1, 64, 64
4, 127488, Note_on_c, 1, 60, 64
4, 127577, Note_on_c, 1, 64, 0
4, 127577, Note_on_c, 1, 60, 0
4, 127776, Note_on_c, 1, 72, 85
4, 127872, Note_on_c, 1, 72, 0
4, 127872, Note_on_c, 1, 71, 69
4, 127911, Note_on_c, 1, 71, 0
4, 127968, Note_on_c, 1, 71, 69
4, 128007, Note_on_c, 1, 71, 0
4, 128064, Note_on_c, 1, 71, 69
4, 128103, Note_on_c, 1, 71, 0
4, 128160, Note_on_c, 1, 72, 85
4, 128256, Note_on_c, 1, 72, 0
4, 128256, Note_on_c, 1, 71, 69
4, 128295, Note_on_c, 1, 71, 0
4, 128352, Note_on_c, 1, 71, 69
4, 128391, Note_on_c, 1, 71, 0
4, 128448, Note_on_c, 1, 71, 69
4, 128487, Note_on_c, 1, 71, 0
4, 128544, Note_on_c, 1, 69, 85
4, 128640, Note_on_c, 1, 69, 0
4, 128640, Note_on_c, 1, 67, 69
4, 128679, Note_on_c, 1, 67, 0
4, 128736, Note_on_c, 1, 67, 69
4, 128775, Note_on_c, 1, 67, 0
4, 128832, Note_on_c, 1, 67, 69
4, 128871, Note_on_c, 1, 67, 0
4, 128928, Note_on_c, 1, 69, 85
4, 129024, Note_on_c, 1, 69, 0
4, 129024, Note_on_c, 1, 67, 69
4, 129063, Note_on_c, 1, 67, 0
4, 129120, Note_on_c, 1, 67, 69
4, 129159, Note_on_c, 1, 67, 0
4, 129216, Note_on_c, 1, 67, 69
4, 129255, Note_on_c, 1, 67, 0
4, 129312, Note_on_c, 1, 65, 85
4, 129408, Note_on_c, 1, 65, 0
4, 129408, Note_on_c, 1, 64, 69
4, 129447, Note_on_c, 1, 64, 0
4, 129504, Note_on_c, 1, 64, 69
4, 129543, Note_on_c, 1, 64, 0
4, 129600, Note_on_c, 1, 64, 69
4, 129639, Note_on_c, 1, 64, 0
4, 129696, Note_on_c, 1, 65, 85
4, 129792, Note_on_c, 1, 65, 0
4, 129792, Note_on_c, 1, 64, 69
4, 129831, Note_on_c, 1, 64, 0
4, 129888, Note_on_c, 1, 64, 69
4, 129927, Note_on_c, 1, 64, 0
4, 129984, Note_on_c, 1, 64, 69
4, 130023, Note_on_c, 1, 64, 0
4, 130080, Note_on_c, 1, 65, 85
4, 130176, Note_on_c, 1, 65, 0
4, 130176, Note_on_c, 1, 64, 69
4, 130215, Note_on_c, 1, 64, 0
4, 130272, Note_on_c, 1, 59, 69
4, 130361, Note_on_c, 1, 59, 0
4, 130368, Note_on_c, 1, 60, 73
4, 130457, Note_on_c, 1, 60, 0
4, 130464, Note_on_c, 1, 62, 77
4, 130553, Note_on_c, 1, 62, 0
4, 130560, Note_on_c, 1, 64, 81
4, 130649, Note_on_c, 1, 64, 0
4, 131040, Note_on_c, 1, 53, 81
4, 131129, Note_on_c, 1, 53, 0
4, 131136, Note_on_c, 1, 52, 77
4, 131225, Note_on_c, 1, 52, 0
4, 131232, Note_on_c, 1, 50, 73
4, 131321, Note_on_c, 1, 50, 0
4, 131328, Note_on_c, 1, 48, 85
4, 131328, Note_on_c, 1, 43, 85
4, 131328, Note_on_c, 1, 40, 85
4, 131505, Note_on_c, 1, 48, 0
4, 131505, Note_on_c, 1, 43, 0
4, 131505, Note_on_c, 1, 40, 0
4, 131712, Note_on_c, 1, 57, 85
4, 131712, Note_on_c, 1, 53, 85
4, 131889, Note_on_c, 1, 57, 0
4, 131889, Note_on_c, 1, 53, 0
4, 131904, Note_on_c, 1, 54, 85
4, 131910, Note_on_c, 1, 57, 85
4, 131916, Note_on_c, 1, 60, 85
4, 131922, Note_on_c, 1, 63, 85
4, 132083, Note_on_c, 1, 63, 0
4, 132083, Note_on_c, 1, 60, 0
4, 132083, Note_on_c, 1, 57, 0
4, 132083, Note_on_c, 1, 54, 0
4, 132096, Note_on_c, 1, 57, 69
4, 132141, Note_on_c, 1, 57, 0
4, 132192, Note_on_c, 1, 54, 69
4, 132237, Note_on_c, 1, 54, 0
4, 132288, Note_on_c, 1, 51, 69
4, 132333, Note_on_c, 1, 51, 0
4, 132384, Note_on_c, 1, 48, 69
4, 132429, Note_on_c, 1, 48, 0
4, 132704, Note_on_c, 1, 51, 69
4, 132734, Note_on_c, 1, 51, 0
4, 132736, Note_on_c, 1, 63, 69
4, 132766, Note_on_c, 1, 63, 0
4, 132800, Note_on_c, 1, 48, 69
4, 132830, Note_on_c, 1, 48, 0
4, 132832, Note_on_c, 1, 60, 69
4, 132862, Note_on_c, 1, 60, 0
4, 132864, Note_on_c, 1, 55, 69
4, 132894, Note_on_c, 1, 55, 0
4, 132896, Note_on_c, 1, 60, 69
4, 132926, Note_on_c, 1, 60, 0
4, 132928, Note_on_c, 1, 64, 69
4, 132958, Note_on_c, 1, 64, 0
4, 132960, Note_on_c, 1, 55, 69
4, 132990, Note_on_c, 1, 55, 0
4, 132992, Note_on_c, 1, 60, 69
4, 133022, Note_on_c, 1, 60, 0
4, 133024, Note_on_c, 1, 64, 69
4, 133054, Note_on_c, 1, 64, 0
4, 133056, Note_on_c, 1, 55, 69
4, 133086, Note_on_c, 1, 55, 0
4, 133088, Note_on_c, 1, 60, 69
4, 133118, Note_on_c, 1, 60, 0
4, 133120, Note_on_c, 1, 64, 69
4, 133150, Note_on_c, 1, 64, 0
4, 133152, Note_on_c, 1, 55, 69
4, 133182, Note_on_c, 1, 55, 0
4, 133184, Note_on_c, 1, 60, 69
4, 133214, Note_on_c, 1, 60, 0
4, 133216, Note_on_c, 1, 64, 69
4, 133246, Note_on_c, 1, 64, 0
4, 133248, Note_on_c, 1, 55, 69
4, 133278, Note_on_c, 1, 55, 0
4, 133280, Note_on_c, 1, 60, 69
4, 133310, Note_on_c, 1, 60, 0
4, 133312, Note_on_c, 1, 64, 69
4, 133342, Note_on_c, 1, 64, 0
4, 133344, Note_on_c, 1, 55, 69
4, 133374, Note_on_c, 1, 55, 0
4, 133376, Note_on_c, 1, 60, 69
4, 133406, Note_on_c, 1, 60, 0
4, 133408, Note_on_c, 1, 64, 69
4, 133438, Note_on_c, 1, 64, 0
4, 133440, Note_on_c, 1, 55, 69
4, 133470, Note_on_c, 1, 55, 0
4, 133472, Note_on_c, 1, 60, 69
4, 133502, Note_on_c, 1, 60, 0
4, 133504, Note_on_c, 1, 64, 69
4, 133534, Note_on_c, 1, 64, 0
4, 133536, Note_on_c, 1, 55, 69
4, 133566, Note_on_c, 1, 55, 0
4, 133568, Note_on_c, 1, 60, 69
4, 133598, Note_on_c, 1, 60, 0
4, 133600, Note_on_c, 1, 64, 69
4, 133630, Note_on_c, 1, 64, 0
4, 133632, Note_on_c, 1, 55, 69
4, 133662, Note_on_c, 1, 55, 0
4, 133664, Note_on_c, 1, 60, 69
4, 133694, Note_on_c, 1, 60, 0
4, 133696, Note_on_c, 1, 64, 69
4, 133726, Note_on_c, 1, 64, 0
4, 133728, Note_on_c, 1, 55, 69
4, 133758, Note_on_c, 1, 55, 0
4, 133760, Note_on_c, 1, 60, 69
4, 133790, Note_on_c, 1, 60, 0
4, 133792, Note_on_c, 1, 64, 69
4, 133822, Note_on_c, 1, 64, 0
4, 133824, Note_on_c, 1, 55, 69
4, 133854, Note_on_c, 1, 55, 0
4, 133856, Note_on_c, 1, 60, 69
4, 133886, Note_on_c, 1, 60, 0
4, 133888, Note_on_c, 1, 64, 69
4, 133918, Note_on_c, 1, 64, 0
4, 133920, Note_on_c, 1, 55, 69
4, 133950, Note_on_c, 1, 55, 0
4, 133952, Note_on_c, 1, 60, 69
4, 133982, Note_on_c, 1, 60, 0
4, 133984, Note_on_c, 1, 64, 69
4, 134014, Note_on_c, 1, 64, 0
4, 134016, Note_on_c, 1, 55, 69
4, 134046, Note_on_c, 1, 55, 0
4, 134048, Note_on_c, 1, 62, 69
4, 134078, Note_on_c, 1, 62, 0
4, 134080, Note_on_c, 1, 65, 69
4, 134110, Note_on_c, 1, 65, 0
4, 134112, Note_on_c, 1, 55, 70
4, 134142, Note_on_c, 1, 55, 0
4, 134144, Note_on_c, 1, 62, 70
4, 134174, Note_on_c, 1, 62, 0
4, 134176, Note_on_c, 1, 65, 70
4, 134206, Note_on_c, 1, 65, 0
4, 134208, Note_on_c, 1, 55, 71
4, 134238, Note_on_c, 1, 55, 0
4, 134240, Note_on_c, 1, 60, 71
4, 134270, Note_on_c, 1, 60, 0
4, 134272, Note_on_c, 1, 64, 72
4, 134302, Note_on_c, 1, 64, 0
4, 134304, Note_on_c, 1, 55, 72
4, 134334, Note_on_c, 1, 55, 0
4, 134336, Note_on_c, 1, 60, 72
4, 134366, Note_on_c, 1, 60, 0
4, 134368, Note_on_c, 1, 64, 73
4, 134398, Note_on_c, 1, 64, 0
4, 134400, Note_on_c, 1, 55, 74
4, 134430, Note_on_c, 1, 55, 0
4, 134432, Note_on_c, 1, 59, 74
4, 134462, Note_on_c, 1, 59, 0
4, 134464, Note_on_c, 1, 62, 74
4, 134494, Note_on_c, 1, 62, 0
4, 134496, Note_on_c, 1, 55, 74
4, 134526, Note_on_c, 1, 55, 0
4, 134528, Note_on_c, 1, 59, 74
4, 134558, Note_on_c, 1, 59, 0
4, 134560, Note_on_c, 1, 62, 74
4, 134590, Note_on_c, 1, 62, 0
4, 134592, Note_on_c, 1, 55, 74
4, 134622, Note_on_c, 1, 55, 0
4, 134624, Note_on_c, 1, 59, 74
4, 134654, Note_on_c, 1, 59, 0
4, 134656, Note_on_c, 1, 62, 74
4, 134686, Note_on_c, 1, 62, 0
4, 134688, Note_on_c, 1, 55, 74
4, 134718, Note_on_c, 1, 55, 0
4, 134720, Note_on_c, 1, 59, 74
4, 134750, Note_on_c, 1, 59, 0
4, 134752, Note_on_c, 1, 62, 74
4, 134782, Note_on_c, 1, 62, 0
4, 134784, Note_on_c, 1, 55, 74
4, 134814, Note_on_c, 1, 55, 0
4, 134816, Note_on_c, 1, 59, 74
4, 134846, Note_on_c, 1, 59, 0
4, 134848, Note_on_c, 1, 62, 74
4, 134878, Note_on_c, 1, 62, 0
4, 134880, Note_on_c, 1, 55, 74
4, 134910, Note_on_c, 1, 55, 0
4, 134912, Note_on_c, 1, 59, 74
4, 134942, Note_on_c, 1, 59, 0
4, 134944, Note_on_c, 1, 62, 74
4, 134974, Note_on_c, 1, 62, 0
4, 134976, Note_on_c, 1, 55, 74
4, 135006, Note_on_c, 1, 55, 0
4, 135008, Note_on_c, 1, 60, 74
4, 135038, Note_on_c, 1, 60, 0
4, 135040, Note_on_c, 1, 64, 74
4, 135070, Note_on_c, 1, 64, 0
4, 135072, Note_on_c, 1, 55, 74
4, 135102, Note_on_c, 1, 55, 0
4, 135104, Note_on_c, 1, 60, 74
4, 135134, Note_on_c, 1, 60, 0
4, 135136, Note_on_c, 1, 64, 74
4, 135166, Note_on_c, 1, 64, 0
4, 135168, Note_on_c, 1, 55, 74
4, 135198, Note_on_c, 1, 55, 0
4, 135200, Note_on_c, 1, 62, 74
4, 135230, Note_on_c, 1, 62, 0
4, 135232, Note_on_c, 1, 65, 74
4, 135262, Note_on_c, 1, 65, 0
4, 135264, Note_on_c, 1, 55, 74
4, 135294, Note_on_c, 1, 55, 0
4, 135296, Note_on_c, 1, 62, 74
4, 135326, Note_on_c, 1, 62, 0
4, 135328, Note_on_c, 1, 65, 74
4, 135358, Note_on_c, 1, 65, 0
4, 135360, Note_on_c, 1, 57, 74
4, 135390, Note_on_c, 1, 57, 0
4, 135392, Note_on_c, 1, 60, 74
4, 135422, Note_on_c, 1, 60, 0
4, 135424, Note_on_c, 1, 64, 74
4, 135454, Note_on_c, 1, 64, 0
4, 135456, Note_on_c, 1, 57, 74
4, 135486, Note_on_c, 1, 57, 0
4, 135488, Note_on_c, 1, 60, 74
4, 135518, Note_on_c, 1, 60, 0
4, 135520, Note_on_c, 1, 64, 74
4, 135550, Note_on_c, 1, 64, 0
4, 135552, Note_on_c, 1, 53, 74
4, 135582, Note_on_c, 1, 53, 0
4, 135584, Note_on_c, 1, 57, 74
4, 135614, Note_on_c, 1, 57, 0
4, 135616, Note_on_c, 1, 62, 74
4, 135646, Note_on_c, 1, 62, 0
4, 135648, Note_on_c, 1, 53, 74
4, 135678, Note_on_c, 1, 53, 0
4, 135680, Note_on_c, 1, 57, 74
4, 135710, Note_on_c, 1, 57, 0
4, 135712, Note_on_c, 1, 62, 74
4, 135742, Note_on_c, 1, 62, 0
4, 135744, Note_on_c, 1, 55, 74
4, 135774, Note_on_c, 1, 55, 0
4, 135776, Note_on_c, 1, 62, 74
4, 135806, Note_on_c, 1, 62, 0
4, 135808, Note_on_c, 1, 65, 74
4, 135838, Note_on_c, 1, 65, 0
4, 135840, Note_on_c, 1, 55, 74
4, 135870, Note_on_c, 1, 55, 0
4, 135872, Note_on_c, 1, 62, 74
4, 135902, Note_on_c, 1, 62, 0
4, 135904, Note_on_c, 1, 65, 74
4, 135934, Note_on_c, 1, 65, 0
4, 135936, Note_on_c, 1, 60, 79
4, 135966, Note_on_c, 1, 60, 0
4, 135968, Note_on_c, 1, 64, 79
4, 135998, Note_on_c, 1, 64, 0
4, 136000, Note_on_c, 1, 67, 79
4, 136030, Note_on_c, 1, 67, 0
4, 136032, Note_on_c, 1, 60, 79
4, 136062, Note_on_c, 1, 60, 0
4, 136064, Note_on_c, 1, 64, 79
4, 136094, Note_on_c, 1, 64, 0
4, 136096, Note_on_c, 1, 67, 79
4, 136126, Note_on_c, 1, 67, 0
4, 136128, Note_on_c, 1, 60, 79
4, 136158, Note_on_c, 1, 60, 0
4, 136160, Note_on_c, 1, 64, 79
4, 136190, Note_on_c, 1, 64, 0
4, 136192, Note_on_c, 1, 67, 79
4, 136222, Note_on_c, 1, 67, 0
4, 136224, Note_on_c, 1, 55, 79
4, 136254, Note_on_c, 1, 55, 0
4, 136256, Note_on_c, 1, 59, 79
4, 136286, Note_on_c, 1, 59, 0
4, 136288, Note_on_c, 1, 67, 79
4, 136318, Note_on_c, 1, 67, 0
4, 136320, Note_on_c, 1, 60, 79
4, 136350, Note_on_c, 1, 60, 0
4, 136352, Note_on_c, 1, 64, 79
4, 136382, Note_on_c, 1, 64, 0
4, 136384, Note_on_c, 1, 67, 79
4, 136414, Note_on_c, 1, 67, 0
4, 136416, Note_on_c, 1, 60, 79
4, 136446, Note_on_c, 1, 60, 0
4, 136448, Note_on_c, 1, 64, 79
4, 136478, Note_on_c, 1, 64, 0
4, 136480, Note_on_c, 1, 67, 79
4, 136510, Note_on_c, 1, 67, 0
4, 136512, Note_on_c, 1, 60, 79
4, 136542, Note_on_c, 1, 60, 0
4, 136544, Note_on_c, 1, 64, 79
4, 136574, Note_on_c, 1, 64, 0
4, 136576, Note_on_c, 1, 67, 79
4, 136606, Note_on_c, 1, 67, 0
4, 136608, Note_on_c, 1, 55, 79
4, 136638, Note_on_c, 1, 55, 0
4, 136640, Note_on_c, 1, 59, 79
4, 136670, Note_on_c, 1, 59, 0
4, 136672, Note_on_c, 1, 67, 79
4, 136702, Note_on_c, 1, 67, 0
4, 136704, Note_on_c, 1, 60, 79
4, 136734, Note_on_c, 1, 60, 0
4, 136736, Note_on_c, 1, 64, 79
4, 136766, Note_on_c, 1, 64, 0
4, 136768, Note_on_c, 1, 67, 79
4, 136798, Note_on_c, 1, 67, 0
4, 136800, Note_on_c, 1, 60, 79
4, 136830, Note_on_c, 1, 60, 0
4, 136832, Note_on_c, 1, 64, 79
4, 136862, Note_on_c, 1, 64, 0
4, 136864, Note_on_c, 1, 67, 79
4, 136894, Note_on_c, 1, 67, 0
4, 136896, Note_on_c, 1, 60, 79
4, 136926, Note_on_c, 1, 60, 0
4, 136928, Note_on_c, 1, 64, 79
4, 136958, Note_on_c, 1, 64, 0
4, 136960, Note_on_c, 1, 67, 79
4, 136990, Note_on_c, 1, 67, 0
4, 136992, Note_on_c, 1, 55, 79
4, 137022, Note_on_c, 1, 55, 0
4, 137024, Note_on_c, 1, 59, 79
4, 137054, Note_on_c, 1, 59, 0
4, 137056, Note_on_c, 1, 67, 79
4, 137086, Note_on_c, 1, 67, 0
4, 137088, Note_on_c, 1, 60, 79
4, 137118, Note_on_c, 1, 60, 0
4, 137120, Note_on_c, 1, 64, 79
4, 137150, Note_on_c, 1, 64, 0
4, 137152, Note_on_c, 1, 67, 79
4, 137182, Note_on_c, 1, 67, 0
4, 137184, Note_on_c, 1, 60, 79
4, 137214, Note_on_c, 1, 60, 0
4, 137216, Note_on_c, 1, 64, 79
4, 137246, Note_on_c, 1, 64, 0
4, 137248, Note_on_c, 1, 67, 79
4, 137278, Note_on_c, 1, 67, 0
4, 137280, Note_on_c, 1, 60, 79
4, 137310, Note_on_c, 1, 60, 0
4, 137312, Note_on_c, 1, 64, 79
4, 137342, Note_on_c, 1, 64, 0
4, 137344, Note_on_c, 1, 67, 79
4, 137374, Note_on_c, 1, 67, 0
4, 137376, Note_on_c, 1, 55, 79
4, 137406, Note_on_c, 1, 55, 0
4, 137408, Note_on_c, 1, 59, 79
4, 137438, Note_on_c, 1, 59, 0
4, 137440, Note_on_c, 1, 67, 79
4, 137470, Note_on_c, 1, 67, 0
4, 137472, Note_on_c, 1, 60, 79
4, 137502, Note_on_c, 1, 60, 0
4, 137504, Note_on_c, 1, 64, 79
4, 137534, Note_on_c, 1, 64, 0
4, 137536, Note_on_c, 1, 67, 79
4, 137566, Note_on_c, 1, 67, 0
4, 137568, Note_on_c, 1, 60, 79
4, 137598, Note_on_c, 1, 60, 0
4, 137600, Note_on_c, 1, 64, 79
4, 137630, Note_on_c, 1, 64, 0
4, 137632, Note_on_c, 1, 67, 79
4, 137662, Note_on_c, 1, 67, 0
4, 137664, Note_on_c, 1, 60, 79
4, 137694, Note_on_c, 1, 60, 0
4, 137696, Note_on_c, 1, 64, 79
4, 137726, Note_on_c, 1, 64, 0
4, 137728, Note_on_c, 1, 67, 79
4, 137758, Note_on_c, 1, 67, 0
4, 137760, Note_on_c, 1, 55, 79
4, 137790, Note_on_c, 1, 55, 0
4, 137792, Note_on_c, 1, 59, 79
4, 137822, Note_on_c, 1, 59, 0
4, 137824, Note_on_c, 1, 67, 79
4, 137854, Note_on_c, 1, 67, 0
4, 137856, Note_on_c, 1, 60, 79
4, 137886, Note_on_c, 1, 60, 0
4, 137888, Note_on_c, 1, 64, 79
4, 137918, Note_on_c, 1, 64, 0
4, 137920, Note_on_c, 1, 67, 79
4, 137950, Note_on_c, 1, 67, 0
4, 137952, Note_on_c, 1, 60, 79
4, 137982, Note_on_c, 1, 60, 0
4, 137984, Note_on_c, 1, 64, 79
4, 138014, Note_on_c, 1, 64, 0
4, 138016, Note_on_c, 1, 67, 79
4, 138046, Note_on_c, 1, 67, 0
4, 138048, Note_on_c, 1, 60, 79
4, 138078, Note_on_c, 1, 60, 0
4, 138080, Note_on_c, 1, 64, 79
4, 138110, Note_on_c, 1, 64, 0
4, 138112, Note_on_c, 1, 67, 79
4, 138142, Note_on_c, 1, 67, 0
4, 138144, Note_on_c, 1, 55, 79
4, 138174, Note_on_c, 1, 55, 0
4, 138176, Note_on_c, 1, 59, 79
4, 138206, Note_on_c, 1, 59, 0
4, 138208, Note_on_c, 1, 67, 79
4, 138238, Note_on_c, 1, 67, 0
4, 138240, Note_on_c, 1, 60, 79
4, 138270, Note_on_c, 1, 60, 0
4, 138272, Note_on_c, 1, 64, 79
4, 138302, Note_on_c, 1, 64, 0
4, 138304, Note_on_c, 1, 67, 79
4, 138334, Note_on_c, 1, 67, 0
4, 138336, Note_on_c, 1, 60, 79
4, 138366, Note_on_c, 1, 60, 0
4, 138368, Note_on_c, 1, 64, 79
4, 138398, Note_on_c, 1, 64, 0
4, 138400, Note_on_c, 1, 67, 79
4, 138430, Note_on_c, 1, 67, 0
4, 138432, Note_on_c, 1, 60, 79
4, 138462, Note_on_c, 1, 60, 0
4, 138464, Note_on_c, 1, 64, 79
4, 138494, Note_on_c, 1, 64, 0
4, 138496, Note_on_c, 1, 67, 79
4, 138526, Note_on_c, 1, 67, 0
4, 138528, Note_on_c, 1, 55, 79
4, 138558, Note_on_c, 1, 55, 0
4, 138560, Note_on_c, 1, 59, 79
4, 138590, Note_on_c, 1, 59, 0
4, 138592, Note_on_c, 1, 67, 79
4, 138622, Note_on_c, 1, 67, 0
4, 138624, Note_on_c, 1, 60, 79
4, 138654, Note_on_c, 1, 60, 0
4, 138656, Note_on_c, 1, 64, 79
4, 138686, Note_on_c, 1, 64, 0
4, 138688, Note_on_c, 1, 67, 79
4, 138718, Note_on_c, 1, 67, 0
4, 138720, Note_on_c, 1, 60, 79
4, 138750, Note_on_c, 1, 60, 0
4, 138752, Note_on_c, 1, 64, 79
4, 138782, Note_on_c, 1, 64, 0
4, 138784, Note_on_c, 1, 67, 79
4, 138814, Note_on_c, 1, 67, 0
4, 138816, Note_on_c, 1, 60, 79
4, 138846, Note_on_c, 1, 60, 0
4, 138848, Note_on_c, 1, 64, 79
4, 138878, Note_on_c, 1, 64, 0
4, 138880, Note_on_c, 1, 67, 79
4, 138910, Note_on_c, 1, 67, 0
4, 138912, Note_on_c, 1, 55, 79
4, 138942, Note_on_c, 1, 55, 0
4, 138944, Note_on_c, 1, 59, 79
4, 138974, Note_on_c, 1, 59, 0
4, 138976, Note_on_c, 1, 67, 79
4, 139006, Note_on_c, 1, 67, 0
4, 139008, Note_on_c, 1, 60, 79
4, 139038, Note_on_c, 1, 60, 0
4, 139040, Note_on_c, 1, 64, 79
4, 139070, Note_on_c, 1, 64, 0
4, 139072, Note_on_c, 1, 67, 79
4, 139102, Note_on_c, 1, 67, 0
4, 139104, Note_on_c, 1, 60, 79
4, 139134, Note_on_c, 1, 60, 0
4, 139136, Note_on_c, 1, 64, 79
4, 139166, Note_on_c, 1, 64, 0
4, 139168, Note_on_c, 1, 67, 79
4, 139198, Note_on_c, 1, 67, 0
4, 139200, Note_on_c, 1, 60, 79
4, 139230, Note_on_c, 1, 60, 0
4, 139232, Note_on_c, 1, 64, 79
4, 139262, Note_on_c, 1, 64, 0
4, 139264, Note_on_c, 1, 67, 79
4, 139294, Note_on_c, 1, 67, 0
4, 139296, Note_on_c, 1, 60, 79
4, 139326, Note_on_c, 1, 60, 0
4, 139328, Note_on_c, 1, 64, 79
4, 139358, Note_on_c, 1, 64, 0
4, 139360, Note_on_c, 1, 67, 79
4, 139390, Note_on_c, 1, 67, 0
4, 139392, Note_on_c, 1, 60, 79
4, 139422, Note_on_c, 1, 60, 0
4, 139424, Note_on_c, 1, 64, 79
4, 139454, Note_on_c, 1, 64, 0
4, 139456, Note_on_c, 1, 67, 79
4, 139486, Note_on_c, 1, 67, 0
4, 139488, Note_on_c, 1, 60, 79
4, 139518, Note_on_c, 1, 60, 0
4, 139520, Note_on_c, 1, 64, 79
4, 139550, Note_on_c, 1, 64, 0
4, 139552, Note_on_c, 1, 67, 79
4, 139582, Note_on_c, 1, 67, 0
4, 139584, Note_on_c, 1, 60, 79
4, 139614, Note_on_c, 1, 60, 0
4, 139616, Note_on_c, 1, 64, 79
4, 139646, Note_on_c, 1, 64, 0
4, 139648, Note_on_c, 1, 67, 79
4, 139678, Note_on_c, 1, 67, 0
4, 139680, Note_on_c, 1, 60, 79
4, 139710, Note_on_c, 1, 60, 0
4, 139712, Note_on_c, 1, 64, 79
4, 139742, Note_on_c, 1, 64, 0
4, 139744, Note_on_c, 1, 67, 79
4, 139774, Note_on_c, 1, 67, 0
4, 139776, Note_on_c, 1, 60, 85
4, 139909, Note_on_c, 1, 60, 0
4, 140160, Note_on_c, 1, 60, 0
4, 140249, Note_on_c, 1, 60, 0
4, 140256, End_track
5, 0, Start_track
5, 0, Program_c, 1, 0
5, 0, Control_c, 1, 7, 127
5, 0, Control_c, 1, 10, 64
5, 6144, Note_on_c, 1, 60, 64
5, 6882, Note_on_c, 1, 60, 0
5, 6912, Note_on_c, 1, 60, 64
5, 7650, Note_on_c, 1, 60, 0
5, 16896, Note_on_c, 1, 62, 64
5, 17250, Note_on_c, 1, 62, 0
5, 22656, Note_on_c, 1, 48, 64
5, 22833, Note_on_c, 1, 48, 0
5, 22848, Note_on_c, 1, 50, 64
5, 23025, Note_on_c, 1, 50, 0
5, 23424, Note_on_c, 1, 48, 64
5, 23601, Note_on_c, 1, 48, 0
5, 23616, Note_on_c, 1, 50, 64
5, 23793, Note_on_c, 1, 50, 0
5, 31872, Note_on_c, 1, 60, 64
5, 32610, Note_on_c, 1, 60, 0
5, 32640, Note_on_c, 1, 60, 64
5, 33378, Note_on_c, 1, 60, 0
5, 38400, Note_on_c, 1, 74, 64
5, 38489, Note_on_c, 1, 74, 0
5, 40704, Note_on_c, 1, 59, 64
5, 40734, Note_on_c, 1, 59, 0
5, 40736, Note_on_c, 1, 62, 64
5, 40766, Note_on_c, 1, 62, 0
5, 40768, Note_on_c, 1, 67, 64
5, 40798, Note_on_c, 1, 67, 0
5, 40800, Note_on_c, 1, 59, 64
5, 40830, Note_on_c, 1, 59, 0
5, 40832, Note_on_c, 1, 62, 64
5, 40862, Note_on_c, 1, 62, 0
5, 40864, Note_on_c, 1, 67, 64
5, 40894, Note_on_c, 1, 67, 0
5, 42624, Note_on_c, 1, 62, 64
5, 42978, Note_on_c, 1, 62, 0
5, 48384, Note_on_c, 1, 48, 64
5, 48561, Note_on_c, 1, 48, 0
5, 48576, Note_on_c, 1, 50, 64
5, 48753, Note_on_c, 1, 50, 0
5, 49152, Note_on_c, 1, 48, 64
5, 49329, Note_on_c, 1, 48, 0
5, 49344, Note_on_c, 1, 50, 64
5, 49521, Note_on_c, 1, 50, 0
5, 58752, Note_on_c, 1, 64, 64
5, 58929, Note_on_c, 1, 64, 0
5, 64128, Control_c, 1, 64, 127
5, 64128, Note_on_c, 1, 45, 64
5, 64224, Note_on_c, 1, 49, 64
5, 64320, Note_on_c, 1, 52, 64
5, 64416, Note_on_c, 1, 55, 64
5, 64866, Note_on_c, 1, 55, 0
5, 64866, Note_on_c, 1, 52, 0
5, 64866, Note_on_c, 1, 49, 0
5, 64866, Note_on_c, 1, 45, 0
5, 64896, Control_c, 1, 64, 0
5, 76800, Note_on_c, 1, 67, 64
5, 76889, Note_on_c, 1, 67, 0
5, 76968, Note_on_c, 1, 43, 64
5, 76991, Note_on_c, 1, 43, 0
5, 76992, Note_on_c, 1, 47, 64
5, 77022, Note_on_c, 1, 47, 0
5, 77024, Note_on_c, 1, 43, 64
5, 77054, Note_on_c, 1, 43, 0
5, 77056, Note_on_c, 1, 47, 64
5, 77086, Note_on_c, 1, 47, 0
5, 77088, Note_on_c, 1, 50, 64
5, 77118, Note_on_c, 1, 50, 0
5, 77120, Note_on_c, 1, 47, 64
5, 77150, Note_on_c, 1, 47, 0
5, 77152, Note_on_c, 1, 50, 64
5, 77182, Note_on_c, 1, 50, 0
5, 77184, Note_on_c, 1, 55, 64
5, 77273, Note_on_c, 1, 55, 0
5, 77376, Note_on_c, 1, 31, 64
5, 77434, Note_on_c, 1, 31, 0
5, 77520, Note_on_c, 1, 31, 64
5, 77540, Note_on_c, 1, 31, 0
5, 77568, Note_on_c, 1, 31, 64
5, 77657, Note_on_c, 1, 31, 0
5, 81024, Note_on_c, 1, 67, 69
5, 81378, Note_on_c, 1, 67, 0
5, 86784, Note_on_c, 1, 41, 69
5, 86961, Note_on_c, 1, 41, 0
5, 86976, Note_on_c, 1, 43, 69
5, 87153, Note_on_c, 1, 43, 0
5, 87552, Note_on_c, 1, 57, 69
5, 87552, Note_on_c, 1, 53, 69
5, 87729, Note_on_c, 1, 57, 0
5, 87729, Note_on_c, 1, 53, 0
5, 88320, Note_on_c, 1, 45, 69
5, 88365, Note_on_c, 1, 45, 0
5, 88416, Note_on_c, 1, 42, 69
5, 88461, Note_on_c, 1, 42, 0
5, 88512, Note_on_c, 1, 39, 69
5, 88557, Note_on_c, 1, 39, 0
5, 88608, Note_on_c, 1, 36, 69
5, 88653, Note_on_c, 1, 36, 0
5, 102912, Note_on_c, 1, 64, 64
5, 103089, Note_on_c, 1, 64, 0
5, 108288, Control_c, 1, 64, 127
5, 108288, Note_on_c, 1, 45, 64
5, 108384, Note_on_c, 1, 49, 64
5, 108480, Note_on_c, 1, 52, 64
5, 108576, Note_on_c, 1, 55, 64
5, 109026, Note_on_c, 1, 55, 0
5, 109026, Note_on_c, 1, 52, 0
5, 109026, Note_on_c, 1, 49, 0
5, 109026, Note_on_c, 1, 45, 0
5, 109056, Control_c, 1, 64, 0
5, 120960, Note_on_c, 1, 67, 64
5, 121049, Note_on_c, 1, 67, 0
5, 121128, Note_on_c, 1, 43, 64
5, 121151, Note_on_c, 1, 43, 0
5, 121152, Note_on_c, 1, 47, 64
5, 121182, Note_on_c, 1, 47, 0
5, 121184, Note_on_c, 1, 43, 64
5, 121214, Note_on_c, 1, 43, 0
5, 121216, Note_on_c, 1, 47, 64
5, 121246, Note_on_c, 1, 47, 0
5, 121248, Note_on_c, 1, 50, 64
5, 121278, Note_on_c, 1, 50, 0
5, 121280, Note_on_c, 1, 47, 64
5, 121310, Note_on_c, 1, 47, 0
5, 121312, Note_on_c, 1, 50, 64
5, 121342, Note_on_c, 1, 50, 0
5, 121344, Note_on_c, 1, 55, 64
5, 121433, Note_on_c, 1, 55, 0
5, 121536, Note_on_c, 1, 31, 64
5, 121594, Note_on_c, 1, 31, 0
5, 121680, Note_on_c, 1, 31, 64
5, 121700, Note_on_c, 1, 31, 0
5, 121728, Note_on_c, 1, 31, 64
5, 121817, Note_on_c, 1, 31, 0
5, 125184, Note_on_c, 1, 67, 69
5, 125538, Note_on_c, 1, 67, 0
5, 130944, Note_on_c, 1, 41, 69
5, 131121, Note_on_c, 1, 41, 0
5, 131136, Note_on_c, 1, 43, 69
5, 131313, Note_on_c, 1, 43, 0
5, 131712, Note_on_c, 1, 57, 69
5, 131712, Note_on_c, 1, 53, 69
5, 131889, Note_on_c, 1, 57, 0
5, 131889, Note_on_c, 1, 53, 0
5, 132480, Note_on_c, 1, 45, 69
5, 132525, Note_on_c, 1, 45, 0
5, 132576, Note_on_c, 1, 42, 69
5, 132621, Note_on_c, 1, 42, 0
5, 132672, Note_on_c, 1, 39, 69
5, 132717, Note_on_c, 1, 39, 0
5, 132768, Note_on_c, 1, 36, 69
5, 132813, Note_on_c, 1, 36, 0
5, 140160, End_track
6, 0, Start_track
6, 0, Title_t, "Sonata I   Hob. XVI: 35"
6, 0, End_track
0, 0, End_of_file
