0, 0, Header, 1, 6, 96
1, 0, Start_track
1, 0, Copyright_t, "Copyright  2000 <copyright holder>"
1, 0, Text_t, "Sonata I\015\012"
1, 0, Text_t, "Haydn\015\012"
1, 0, Sequencer_specific, 16, 68, 87, 77, 90, 86, 82, 83, 78, 32, 55, 46, 49, 46, 49, 46, 48
1, 0, Time_signature, 6, 3, 24, 8
1, 0, Tempo, 428571
1, 0, Key_signature, 1, "major"
1, 35280, Tempo, 1200000
1, 35424, Tempo, 428571
1, 58896, Tempo, 1200000
1, 59040, Tempo, 428571
1, 73200, End_track
2, 0, Start_track
2, 0, Program_c, 0, 0
2, 0, Control_c, 0, 7, 127
2, 0, Control_c, 0, 10, 64
2, 192, Note_on_c, 0, 67, 65
2, 192, Note_on_c, 0, 59, 65
2, 240, Note_on_c, 0, 67, 0
2, 240, Note_on_c, 0, 59, 0
2, 240, Note_on_c, 0, 63, 65
2, 240, Note_on_c, 0, 57, 65
2, 285, Note_on_c, 0, 63, 0
2, 285, Note_on_c, 0, 57, 0
2, 288, Note_on_c, 0, 64, 65
2, 288, Note_on_c, 0, 55, 65
2, 333, Note_on_c, 0, 64, 0
2, 333, Note_on_c, 0, 55, 0
2, 480, Note_on_c, 0, 71, 65
2, 480, Note_on_c, 0, 67, 65
2, 528, Note_on_c, 0, 71, 0
2, 528, Note_on_c, 0, 67, 0
2, 528, Note_on_c, 0, 69, 65
2, 528, Note_on_c, 0, 66, 65
2, 573, Note_on_c, 0, 69, 0
2, 573, Note_on_c, 0, 66, 0
2, 576, Note_on_c, 0, 67, 65
2, 576, Note_on_c, 0, 64, 65
2, 621, Note_on_c, 0, 67, 0
2, 621, Note_on_c, 0, 64, 0
2, 768, Note_on_c, 0, 79, 65
2, 768, Note_on_c, 0, 71, 65
2, 816, Note_on_c, 0, 79, 0
2, 816, Note_on_c, 0, 71, 0
2, 816, Note_on_c, 0, 78, 65
2, 816, Note_on_c, 0, 69, 65
2, 861, Note_on_c, 0, 78, 0
2, 861, Note_on_c, 0, 69, 0
2, 864, Note_on_c, 0, 76, 65
2, 864, Note_on_c, 0, 67, 65
2, 1053, Note_on_c, 0, 76, 0
2, 1053, Note_on_c, 0, 67, 0
2, 1056, Note_on_c, 0, 72, 65
2, 1056, Note_on_c, 0, 69, 65
2, 1101, Note_on_c, 0, 72, 0
2, 1101, Note_on_c, 0, 69, 0
2, 1104, Note_on_c, 0, 69, 65
2, 1104, Note_on_c, 0, 66, 65
2, 1149, Note_on_c, 0, 69, 0
2, 1149, Note_on_c, 0, 66, 0
2, 1152, Note_on_c, 0, 66, 65
2, 1152, Note_on_c, 0, 63, 65
2, 1341, Note_on_c, 0, 66, 0
2, 1341, Note_on_c, 0, 63, 0
2, 1344, Note_on_c, 0, 71, 65
2, 1389, Note_on_c, 0, 71, 0
2, 1392, Note_on_c, 0, 69, 65
2, 1437, Note_on_c, 0, 69, 0
2, 1440, Note_on_c, 0, 69, 65
2, 1440, Note_on_c, 0, 66, 65
2, 1536, Note_on_c, 0, 69, 0
2, 1536, Note_on_c, 0, 66, 0
2, 1536, Note_on_c, 0, 67, 65
2, 1536, Note_on_c, 0, 64, 65
2, 1581, Note_on_c, 0, 67, 0
2, 1581, Note_on_c, 0, 64, 0
2, 1584, Note_on_c, 0, 66, 65
2, 1604, Note_on_c, 0, 66, 0
2, 1632, Note_on_c, 0, 70, 65
2, 1680, Note_on_c, 0, 70, 0
2, 1680, Note_on_c, 0, 71, 65
2, 1725, Note_on_c, 0, 71, 0
2, 1728, Note_on_c, 0, 69, 65
2, 1728, Note_on_c, 0, 66, 65
2, 1824, Note_on_c, 0, 69, 0
2, 1824, Note_on_c, 0, 66, 0
2, 1824, Note_on_c, 0, 67, 65
2, 1824, Note_on_c, 0, 64, 65
2, 1869, Note_on_c, 0, 67, 0
2, 1869, Note_on_c, 0, 64, 0
2, 1872, Note_on_c, 0, 66, 65
2, 1892, Note_on_c, 0, 66, 0
2, 1920, Note_on_c, 0, 70, 65
2, 1968, Note_on_c, 0, 70, 0
2, 1968, Note_on_c, 0, 71, 65
2, 2013, Note_on_c, 0, 71, 0
2, 2016, Note_on_c, 0, 69, 65
2, 2112, Note_on_c, 0, 69, 0
2, 2112, Note_on_c, 0, 67, 65
2, 2124, Note_on_c, 0, 67, 0
2, 2124, Note_on_c, 0, 69, 65
2, 2136, Note_on_c, 0, 69, 0
2, 2136, Note_on_c, 0, 67, 65
2, 2148, Note_on_c, 0, 67, 0
2, 2148, Note_on_c, 0, 69, 65
2, 2157, Note_on_c, 0, 69, 0
2, 2160, Note_on_c, 0, 66, 65
2, 2205, Note_on_c, 0, 66, 0
2, 2496, Note_on_c, 0, 67, 65
2, 2496, Note_on_c, 0, 59, 65
2, 2544, Note_on_c, 0, 67, 0
2, 2544, Note_on_c, 0, 59, 0
2, 2544, Note_on_c, 0, 63, 65
2, 2544, Note_on_c, 0, 57, 65
2, 2589, Note_on_c, 0, 63, 0
2, 2589, Note_on_c, 0, 57, 0
2, 2592, Note_on_c, 0, 64, 65
2, 2592, Note_on_c, 0, 55, 65
2, 2637, Note_on_c, 0, 64, 0
2, 2637, Note_on_c, 0, 55, 0
2, 2784, Note_on_c, 0, 71, 65
2, 2784, Note_on_c, 0, 67, 65
2, 2832, Note_on_c, 0, 71, 0
2, 2832, Note_on_c, 0, 67, 0
2, 2832, Note_on_c, 0, 69, 65
2, 2832, Note_on_c, 0, 66, 65
2, 2877, Note_on_c, 0, 69, 0
2, 2877, Note_on_c, 0, 66, 0
2, 2880, Note_on_c, 0, 67, 65
2, 2880, Note_on_c, 0, 64, 65
2, 2925, Note_on_c, 0, 67, 0
2, 2925, Note_on_c, 0, 64, 0
2, 3072, Note_on_c, 0, 76, 65
2, 3072, Note_on_c, 0, 68, 65
2, 3120, Note_on_c, 0, 76, 0
2, 3120, Note_on_c, 0, 68, 0
2, 3120, Note_on_c, 0, 74, 65
2, 3120, Note_on_c, 0, 71, 65
2, 3165, Note_on_c, 0, 74, 0
2, 3165, Note_on_c, 0, 71, 0
2, 3168, Note_on_c, 0, 72, 65
2, 3168, Note_on_c, 0, 69, 65
2, 3213, Note_on_c, 0, 72, 0
2, 3213, Note_on_c, 0, 69, 0
2, 3360, Note_on_c, 0, 72, 65
2, 3360, Note_on_c, 0, 69, 65
2, 3408, Note_on_c, 0, 72, 0
2, 3408, Note_on_c, 0, 69, 0
2, 3408, Note_on_c, 0, 76, 65
2, 3408, Note_on_c, 0, 67, 65
2, 3453, Note_on_c, 0, 76, 0
2, 3453, Note_on_c, 0, 67, 0
2, 3456, Note_on_c, 0, 74, 65
2, 3456, Note_on_c, 0, 66, 65
2, 3501, Note_on_c, 0, 74, 0
2, 3501, Note_on_c, 0, 66, 0
2, 3648, Note_on_c, 0, 69, 65
2, 3648, Note_on_c, 0, 66, 65
2, 3696, Note_on_c, 0, 66, 0
2, 3696, Note_on_c, 0, 72, 65
2, 3741, Note_on_c, 0, 72, 0
2, 3741, Note_on_c, 0, 69, 0
2, 3744, Note_on_c, 0, 71, 94
2, 3744, Note_on_c, 0, 67, 94
2, 3792, Note_on_c, 0, 71, 0
2, 3792, Note_on_c, 0, 67, 0
2, 3912, Note_on_c, 0, 62, 78
2, 3935, Note_on_c, 0, 62, 0
2, 3936, Note_on_c, 0, 74, 78
2, 3959, Note_on_c, 0, 74, 0
2, 3960, Note_on_c, 0, 71, 78
2, 3983, Note_on_c, 0, 71, 0
2, 3984, Note_on_c, 0, 69, 78
2, 4007, Note_on_c, 0, 69, 0
2, 4008, Note_on_c, 0, 67, 78
2, 4031, Note_on_c, 0, 67, 0
2, 4032, Note_on_c, 0, 66, 78
2, 4077, Note_on_c, 0, 66, 0
2, 4200, Note_on_c, 0, 62, 78
2, 4223, Note_on_c, 0, 62, 0
2, 4224, Note_on_c, 0, 74, 78
2, 4247, Note_on_c, 0, 74, 0
2, 4248, Note_on_c, 0, 72, 76
2, 4271, Note_on_c, 0, 72, 0
2, 4272, Note_on_c, 0, 71, 74
2, 4295, Note_on_c, 0, 71, 0
2, 4296, Note_on_c, 0, 69, 73
2, 4319, Note_on_c, 0, 69, 0
2, 4320, Note_on_c, 0, 71, 69
2, 4365, Note_on_c, 0, 71, 0
2, 4488, Note_on_c, 0, 74, 69
2, 4511, Note_on_c, 0, 74, 0
2, 4512, Note_on_c, 0, 86, 69
2, 4535, Note_on_c, 0, 86, 0
2, 4536, Note_on_c, 0, 83, 69
2, 4559, Note_on_c, 0, 83, 0
2, 4560, Note_on_c, 0, 81, 69
2, 4583, Note_on_c, 0, 81, 0
2, 4584, Note_on_c, 0, 79, 69
2, 4607, Note_on_c, 0, 79, 0
2, 4608, Note_on_c, 0, 79, 69
2, 4704, Note_on_c, 0, 79, 0
2, 4704, Note_on_c, 0, 78, 69
2, 4749, Note_on_c, 0, 78, 0
2, 4776, Note_on_c, 0, 74, 69
2, 4799, Note_on_c, 0, 74, 0
2, 4800, Note_on_c, 0, 86, 69
2, 4823, Note_on_c, 0, 86, 0
2, 4824, Note_on_c, 0, 84, 69
2, 4847, Note_on_c, 0, 84, 0
2, 4848, Note_on_c, 0, 83, 69
2, 4871, Note_on_c, 0, 83, 0
2, 4872, Note_on_c, 0, 81, 69
2, 4895, Note_on_c, 0, 81, 0
2, 4896, Note_on_c, 0, 81, 69
2, 4992, Note_on_c, 0, 81, 0
2, 4992, Note_on_c, 0, 83, 69
2, 5037, Note_on_c, 0, 83, 0
2, 5064, Note_on_c, 0, 74, 69
2, 5087, Note_on_c, 0, 74, 0
2, 5088, Note_on_c, 0, 86, 69
2, 5111, Note_on_c, 0, 86, 0
2, 5112, Note_on_c, 0, 83, 69
2, 5135, Note_on_c, 0, 83, 0
2, 5136, Note_on_c, 0, 81, 69
2, 5159, Note_on_c, 0, 81, 0
2, 5160, Note_on_c, 0, 79, 69
2, 5183, Note_on_c, 0, 79, 0
2, 5184, Note_on_c, 0, 88, 69
2, 5207, Note_on_c, 0, 88, 0
2, 5208, Note_on_c, 0, 76, 69
2, 5231, Note_on_c, 0, 76, 0
2, 5232, Note_on_c, 0, 84, 69
2, 5255, Note_on_c, 0, 84, 0
2, 5256, Note_on_c, 0, 88, 69
2, 5279, Note_on_c, 0, 88, 0
2, 5280, Note_on_c, 0, 83, 69
2, 5303, Note_on_c, 0, 83, 0
2, 5304, Note_on_c, 0, 88, 69
2, 5327, Note_on_c, 0, 88, 0
2, 5328, Note_on_c, 0, 81, 69
2, 5351, Note_on_c, 0, 81, 0
2, 5352, Note_on_c, 0, 83, 69
2, 5375, Note_on_c, 0, 83, 0
2, 5376, Note_on_c, 0, 84, 69
2, 5399, Note_on_c, 0, 84, 0
2, 5400, Note_on_c, 0, 86, 69
2, 5423, Note_on_c, 0, 86, 0
2, 5424, Note_on_c, 0, 88, 69
2, 5447, Note_on_c, 0, 88, 0
2, 5448, Note_on_c, 0, 84, 69
2, 5471, Note_on_c, 0, 84, 0
2, 5472, Note_on_c, 0, 86, 69
2, 5495, Note_on_c, 0, 86, 0
2, 5496, Note_on_c, 0, 74, 69
2, 5519, Note_on_c, 0, 74, 0
2, 5520, Note_on_c, 0, 83, 69
2, 5543, Note_on_c, 0, 83, 0
2, 5544, Note_on_c, 0, 86, 69
2, 5567, Note_on_c, 0, 86, 0
2, 5568, Note_on_c, 0, 81, 69
2, 5591, Note_on_c, 0, 81, 0
2, 5592, Note_on_c, 0, 86, 69
2, 5615, Note_on_c, 0, 86, 0
2, 5616, Note_on_c, 0, 79, 69
2, 5639, Note_on_c, 0, 79, 0
2, 5640, Note_on_c, 0, 81, 69
2, 5663, Note_on_c, 0, 81, 0
2, 5664, Note_on_c, 0, 83, 69
2, 5687, Note_on_c, 0, 83, 0
2, 5688, Note_on_c, 0, 84, 69
2, 5711, Note_on_c, 0, 84, 0
2, 5712, Note_on_c, 0, 86, 69
2, 5735, Note_on_c, 0, 86, 0
2, 5736, Note_on_c, 0, 83, 69
2, 5759, Note_on_c, 0, 83, 0
2, 5760, Note_on_c, 0, 84, 69
2, 5783, Note_on_c, 0, 84, 0
2, 5784, Note_on_c, 0, 72, 69
2, 5807, Note_on_c, 0, 72, 0
2, 5808, Note_on_c, 0, 81, 69
2, 5831, Note_on_c, 0, 81, 0
2, 5832, Note_on_c, 0, 84, 69
2, 5855, Note_on_c, 0, 84, 0
2, 5856, Note_on_c, 0, 79, 69
2, 5879, Note_on_c, 0, 79, 0
2, 5880, Note_on_c, 0, 84, 69
2, 5903, Note_on_c, 0, 84, 0
2, 5904, Note_on_c, 0, 78, 69
2, 5927, Note_on_c, 0, 78, 0
2, 5928, Note_on_c, 0, 84, 69
2, 5951, Note_on_c, 0, 84, 0
2, 5952, Note_on_c, 0, 79, 69
2, 5975, Note_on_c, 0, 79, 0
2, 5976, Note_on_c, 0, 84, 69
2, 5999, Note_on_c, 0, 84, 0
2, 6000, Note_on_c, 0, 81, 69
2, 6023, Note_on_c, 0, 81, 0
2, 6024, Note_on_c, 0, 84, 69
2, 6047, Note_on_c, 0, 84, 0
2, 6048, Note_on_c, 0, 83, 69
2, 6093, Note_on_c, 0, 83, 0
2, 6096, Note_on_c, 0, 86, 69
2, 6108, Note_on_c, 0, 86, 0
2, 6108, Note_on_c, 0, 84, 69
2, 6120, Note_on_c, 0, 84, 0
2, 6120, Note_on_c, 0, 83, 69
2, 6132, Note_on_c, 0, 83, 0
2, 6132, Note_on_c, 0, 84, 69
2, 6144, Note_on_c, 0, 84, 0
2, 6144, Note_on_c, 0, 86, 69
2, 6189, Note_on_c, 0, 86, 0
2, 6192, Note_on_c, 0, 81, 69
2, 6237, Note_on_c, 0, 81, 0
2, 6240, Note_on_c, 0, 81, 69
2, 6285, Note_on_c, 0, 81, 0
2, 6288, Note_on_c, 0, 81, 69
2, 6333, Note_on_c, 0, 81, 0
2, 6336, Note_on_c, 0, 83, 69
2, 6381, Note_on_c, 0, 83, 0
2, 6384, Note_on_c, 0, 86, 69
2, 6396, Note_on_c, 0, 86, 0
2, 6396, Note_on_c, 0, 84, 69
2, 6408, Note_on_c, 0, 84, 0
2, 6408, Note_on_c, 0, 83, 69
2, 6420, Note_on_c, 0, 83, 0
2, 6420, Note_on_c, 0, 84, 69
2, 6432, Note_on_c, 0, 84, 0
2, 6432, Note_on_c, 0, 86, 69
2, 6477, Note_on_c, 0, 86, 0
2, 6480, Note_on_c, 0, 81, 69
2, 6525, Note_on_c, 0, 81, 0
2, 6528, Note_on_c, 0, 81, 69
2, 6573, Note_on_c, 0, 81, 0
2, 6576, Note_on_c, 0, 81, 69
2, 6621, Note_on_c, 0, 81, 0
2, 6624, Note_on_c, 0, 83, 69
2, 6669, Note_on_c, 0, 83, 0
2, 6672, Note_on_c, 0, 86, 69
2, 6684, Note_on_c, 0, 86, 0
2, 6684, Note_on_c, 0, 84, 69
2, 6696, Note_on_c, 0, 84, 0
2, 6696, Note_on_c, 0, 83, 69
2, 6708, Note_on_c, 0, 83, 0
2, 6708, Note_on_c, 0, 84, 69
2, 6720, Note_on_c, 0, 84, 0
2, 6720, Note_on_c, 0, 86, 69
2, 6765, Note_on_c, 0, 86, 0
2, 6768, Note_on_c, 0, 81, 69
2, 6813, Note_on_c, 0, 81, 0
2, 6816, Note_on_c, 0, 81, 69
2, 6861, Note_on_c, 0, 81, 0
2, 6864, Note_on_c, 0, 81, 69
2, 6909, Note_on_c, 0, 81, 0
2, 6912, Note_on_c, 0, 79, 69
2, 6957, Note_on_c, 0, 79, 0
2, 6960, Note_on_c, 0, 79, 69
2, 7005, Note_on_c, 0, 79, 0
2, 7008, Note_on_c, 0, 79, 69
2, 7053, Note_on_c, 0, 79, 0
2, 7056, Note_on_c, 0, 78, 69
2, 7101, Note_on_c, 0, 78, 0
2, 7104, Note_on_c, 0, 78, 69
2, 7149, Note_on_c, 0, 78, 0
2, 7152, Note_on_c, 0, 78, 69
2, 7197, Note_on_c, 0, 78, 0
2, 7200, Note_on_c, 0, 73, 69
2, 7245, Note_on_c, 0, 73, 0
2, 7248, Note_on_c, 0, 73, 69
2, 7293, Note_on_c, 0, 73, 0
2, 7296, Note_on_c, 0, 73, 69
2, 7341, Note_on_c, 0, 73, 0
2, 7344, Note_on_c, 0, 74, 69
2, 7367, Note_on_c, 0, 74, 0
2, 7368, Note_on_c, 0, 69, 69
2, 7391, Note_on_c, 0, 69, 0
2, 7392, Note_on_c, 0, 71, 69
2, 7415, Note_on_c, 0, 71, 0
2, 7416, Note_on_c, 0, 73, 69
2, 7439, Note_on_c, 0, 73, 0
2, 7440, Note_on_c, 0, 74, 70
2, 7463, Note_on_c, 0, 74, 0
2, 7464, Note_on_c, 0, 76, 70
2, 7487, Note_on_c, 0, 76, 0
2, 7488, Note_on_c, 0, 78, 71
2, 7511, Note_on_c, 0, 78, 0
2, 7512, Note_on_c, 0, 74, 71
2, 7535, Note_on_c, 0, 74, 0
2, 7536, Note_on_c, 0, 76, 72
2, 7559, Note_on_c, 0, 76, 0
2, 7560, Note_on_c, 0, 78, 72
2, 7583, Note_on_c, 0, 78, 0
2, 7584, Note_on_c, 0, 79, 73
2, 7607, Note_on_c, 0, 79, 0
2, 7608, Note_on_c, 0, 81, 73
2, 7631, Note_on_c, 0, 81, 0
2, 7632, Note_on_c, 0, 83, 74
2, 7655, Note_on_c, 0, 83, 0
2, 7656, Note_on_c, 0, 81, 74
2, 7679, Note_on_c, 0, 81, 0
2, 7680, Note_on_c, 0, 79, 75
2, 7703, Note_on_c, 0, 79, 0
2, 7704, Note_on_c, 0, 81, 75
2, 7727, Note_on_c, 0, 81, 0
2, 7728, Note_on_c, 0, 83, 76
2, 7751, Note_on_c, 0, 83, 0
2, 7752, Note_on_c, 0, 85, 76
2, 7775, Note_on_c, 0, 85, 0
2, 7776, Note_on_c, 0, 86, 93
2, 7824, Note_on_c, 0, 86, 0
2, 7824, Note_on_c, 0, 81, 78
2, 7869, Note_on_c, 0, 81, 0
2, 7872, Note_on_c, 0, 78, 78
2, 7917, Note_on_c, 0, 78, 0
2, 7920, Note_on_c, 0, 74, 78
2, 7965, Note_on_c, 0, 74, 0
2, 7968, Note_on_c, 0, 69, 78
2, 8013, Note_on_c, 0, 69, 0
2, 8016, Note_on_c, 0, 66, 78
2, 8061, Note_on_c, 0, 66, 0
2, 8064, Note_on_c, 0, 62, 78
2, 8197, Note_on_c, 0, 62, 0
2, 8400, Note_on_c, 0, 74, 73
2, 8400, Note_on_c, 0, 71, 73
2, 8445, Note_on_c, 0, 74, 0
2, 8445, Note_on_c, 0, 71, 0
2, 8448, Note_on_c, 0, 72, 73
2, 8448, Note_on_c, 0, 69, 73
2, 8493, Note_on_c, 0, 72, 0
2, 8493, Note_on_c, 0, 69, 0
2, 8496, Note_on_c, 0, 71, 73
2, 8496, Note_on_c, 0, 67, 73
2, 8541, Note_on_c, 0, 71, 0
2, 8541, Note_on_c, 0, 67, 0
2, 8544, Note_on_c, 0, 83, 73
2, 8544, Note_on_c, 0, 74, 73
2, 8589, Note_on_c, 0, 83, 0
2, 8589, Note_on_c, 0, 74, 0
2, 8592, Note_on_c, 0, 79, 73
2, 8592, Note_on_c, 0, 71, 73
2, 8637, Note_on_c, 0, 79, 0
2, 8637, Note_on_c, 0, 71, 0
2, 8640, Note_on_c, 0, 78, 73
2, 8640, Note_on_c, 0, 69, 73
2, 8685, Note_on_c, 0, 78, 0
2, 8685, Note_on_c, 0, 69, 0
2, 8688, Note_on_c, 0, 84, 73
2, 8688, Note_on_c, 0, 81, 73
2, 8733, Note_on_c, 0, 84, 0
2, 8733, Note_on_c, 0, 81, 0
2, 8736, Note_on_c, 0, 83, 73
2, 8736, Note_on_c, 0, 79, 73
2, 8781, Note_on_c, 0, 83, 0
2, 8781, Note_on_c, 0, 79, 0
2, 8784, Note_on_c, 0, 81, 73
2, 8784, Note_on_c, 0, 78, 73
2, 8829, Note_on_c, 0, 81, 0
2, 8829, Note_on_c, 0, 78, 0
2, 8832, Note_on_c, 0, 88, 73
2, 8832, Note_on_c, 0, 84, 73
2, 8877, Note_on_c, 0, 88, 0
2, 8877, Note_on_c, 0, 84, 0
2, 8880, Note_on_c, 0, 84, 73
2, 8880, Note_on_c, 0, 81, 73
2, 8925, Note_on_c, 0, 84, 0
2, 8925, Note_on_c, 0, 81, 0
2, 8928, Note_on_c, 0, 83, 73
2, 8973, Note_on_c, 0, 83, 0
2, 8976, Note_on_c, 0, 86, 73
2, 9161, Note_on_c, 0, 86, 0
2, 9168, Note_on_c, 0, 84, 73
2, 9305, Note_on_c, 0, 84, 0
2, 9312, Note_on_c, 0, 83, 73
2, 9357, Note_on_c, 0, 83, 0
2, 9360, Note_on_c, 0, 81, 73
2, 9405, Note_on_c, 0, 81, 0
2, 9408, Note_on_c, 0, 83, 73
2, 9453, Note_on_c, 0, 83, 0
2, 9456, Note_on_c, 0, 84, 73
2, 9501, Note_on_c, 0, 84, 0
2, 9504, Note_on_c, 0, 79, 73
2, 9693, Note_on_c, 0, 79, 0
2, 9696, Note_on_c, 0, 81, 73
2, 9741, Note_on_c, 0, 81, 0
2, 9744, Note_on_c, 0, 78, 73
2, 9789, Note_on_c, 0, 78, 0
2, 9792, Note_on_c, 0, 79, 73
2, 9925, Note_on_c, 0, 79, 0
2, 10128, Note_on_c, 0, 74, 73
2, 10128, Note_on_c, 0, 71, 73
2, 10173, Note_on_c, 0, 74, 0
2, 10173, Note_on_c, 0, 71, 0
2, 10176, Note_on_c, 0, 72, 73
2, 10176, Note_on_c, 0, 69, 73
2, 10221, Note_on_c, 0, 72, 0
2, 10221, Note_on_c, 0, 69, 0
2, 10224, Note_on_c, 0, 71, 73
2, 10224, Note_on_c, 0, 67, 73
2, 10269, Note_on_c, 0, 71, 0
2, 10269, Note_on_c, 0, 67, 0
2, 10272, Note_on_c, 0, 83, 73
2, 10272, Note_on_c, 0, 74, 73
2, 10317, Note_on_c, 0, 83, 0
2, 10317, Note_on_c, 0, 74, 0
2, 10320, Note_on_c, 0, 79, 73
2, 10320, Note_on_c, 0, 71, 73
2, 10365, Note_on_c, 0, 79, 0
2, 10365, Note_on_c, 0, 71, 0
2, 10368, Note_on_c, 0, 78, 73
2, 10368, Note_on_c, 0, 69, 73
2, 10413, Note_on_c, 0, 78, 0
2, 10413, Note_on_c, 0, 69, 0
2, 10416, Note_on_c, 0, 84, 73
2, 10416, Note_on_c, 0, 81, 73
2, 10461, Note_on_c, 0, 84, 0
2, 10461, Note_on_c, 0, 81, 0
2, 10464, Note_on_c, 0, 83, 73
2, 10464, Note_on_c, 0, 79, 73
2, 10509, Note_on_c, 0, 83, 0
2, 10509, Note_on_c, 0, 79, 0
2, 10512, Note_on_c, 0, 81, 73
2, 10512, Note_on_c, 0, 78, 73
2, 10557, Note_on_c, 0, 81, 0
2, 10557, Note_on_c, 0, 78, 0
2, 10560, Note_on_c, 0, 88, 73
2, 10560, Note_on_c, 0, 84, 73
2, 10605, Note_on_c, 0, 88, 0
2, 10605, Note_on_c, 0, 84, 0
2, 10608, Note_on_c, 0, 84, 73
2, 10608, Note_on_c, 0, 81, 73
2, 10653, Note_on_c, 0, 84, 0
2, 10653, Note_on_c, 0, 81, 0
2, 10656, Note_on_c, 0, 83, 73
2, 10701, Note_on_c, 0, 83, 0
2, 10704, Note_on_c, 0, 86, 73
2, 10889, Note_on_c, 0, 86, 0
2, 10896, Note_on_c, 0, 84, 73
2, 11033, Note_on_c, 0, 84, 0
2, 11040, Note_on_c, 0, 83, 73
2, 11129, Note_on_c, 0, 83, 0
2, 11136, Note_on_c, 0, 81, 73
2, 11225, Note_on_c, 0, 81, 0
2, 11232, Note_on_c, 0, 79, 73
2, 11252, Note_on_c, 0, 79, 0
2, 11280, Note_on_c, 0, 79, 73
2, 11300, Note_on_c, 0, 79, 0
2, 11328, Note_on_c, 0, 79, 73
2, 11348, Note_on_c, 0, 79, 0
2, 11376, Note_on_c, 0, 79, 73
2, 11396, Note_on_c, 0, 79, 0
2, 11424, Note_on_c, 0, 79, 73
2, 11444, Note_on_c, 0, 79, 0
2, 11472, Note_on_c, 0, 79, 73
2, 11492, Note_on_c, 0, 79, 0
2, 11520, Note_on_c, 0, 79, 73
2, 11709, Note_on_c, 0, 79, 0
2, 11712, Note_on_c, 0, 81, 73
2, 11757, Note_on_c, 0, 81, 0
2, 11760, Note_on_c, 0, 78, 73
2, 11805, Note_on_c, 0, 78, 0
2, 11808, Note_on_c, 0, 79, 78
2, 11831, Note_on_c, 0, 79, 0
2, 11832, Note_on_c, 0, 74, 78
2, 11855, Note_on_c, 0, 74, 0
2, 11856, Note_on_c, 0, 71, 78
2, 11879, Note_on_c, 0, 71, 0
2, 11880, Note_on_c, 0, 74, 78
2, 11903, Note_on_c, 0, 74, 0
2, 11904, Note_on_c, 0, 72, 78
2, 11927, Note_on_c, 0, 72, 0
2, 11928, Note_on_c, 0, 74, 78
2, 11951, Note_on_c, 0, 74, 0
2, 11952, Note_on_c, 0, 71, 78
2, 11975, Note_on_c, 0, 71, 0
2, 11976, Note_on_c, 0, 74, 78
2, 11999, Note_on_c, 0, 74, 0
2, 12000, Note_on_c, 0, 79, 78
2, 12023, Note_on_c, 0, 79, 0
2, 12024, Note_on_c, 0, 74, 78
2, 12047, Note_on_c, 0, 74, 0
2, 12048, Note_on_c, 0, 81, 78
2, 12071, Note_on_c, 0, 81, 0
2, 12072, Note_on_c, 0, 74, 78
2, 12095, Note_on_c, 0, 74, 0
2, 12096, Note_on_c, 0, 83, 78
2, 12119, Note_on_c, 0, 83, 0
2, 12120, Note_on_c, 0, 74, 78
2, 12143, Note_on_c, 0, 74, 0
2, 12144, Note_on_c, 0, 71, 78
2, 12167, Note_on_c, 0, 71, 0
2, 12168, Note_on_c, 0, 74, 78
2, 12191, Note_on_c, 0, 74, 0
2, 12192, Note_on_c, 0, 72, 78
2, 12215, Note_on_c, 0, 72, 0
2, 12216, Note_on_c, 0, 74, 78
2, 12239, Note_on_c, 0, 74, 0
2, 12240, Note_on_c, 0, 71, 78
2, 12263, Note_on_c, 0, 71, 0
2, 12264, Note_on_c, 0, 74, 78
2, 12287, Note_on_c, 0, 74, 0
2, 12288, Note_on_c, 0, 79, 78
2, 12311, Note_on_c, 0, 79, 0
2, 12312, Note_on_c, 0, 74, 78
2, 12335, Note_on_c, 0, 74, 0
2, 12336, Note_on_c, 0, 81, 78
2, 12359, Note_on_c, 0, 81, 0
2, 12360, Note_on_c, 0, 74, 78
2, 12383, Note_on_c, 0, 74, 0
2, 12384, Note_on_c, 0, 83, 78
2, 12407, Note_on_c, 0, 83, 0
2, 12408, Note_on_c, 0, 74, 78
2, 12431, Note_on_c, 0, 74, 0
2, 12432, Note_on_c, 0, 71, 78
2, 12455, Note_on_c, 0, 71, 0
2, 12456, Note_on_c, 0, 74, 78
2, 12479, Note_on_c, 0, 74, 0
2, 12480, Note_on_c, 0, 72, 78
2, 12503, Note_on_c, 0, 72, 0
2, 12504, Note_on_c, 0, 74, 78
2, 12527, Note_on_c, 0, 74, 0
2, 12528, Note_on_c, 0, 71, 78
2, 12551, Note_on_c, 0, 71, 0
2, 12552, Note_on_c, 0, 74, 78
2, 12575, Note_on_c, 0, 74, 0
2, 12576, Note_on_c, 0, 79, 78
2, 12599, Note_on_c, 0, 79, 0
2, 12600, Note_on_c, 0, 74, 78
2, 12623, Note_on_c, 0, 74, 0
2, 12624, Note_on_c, 0, 81, 78
2, 12647, Note_on_c, 0, 81, 0
2, 12648, Note_on_c, 0, 74, 78
2, 12671, Note_on_c, 0, 74, 0
2, 12672, Note_on_c, 0, 83, 78
2, 12717, Note_on_c, 0, 83, 0
2, 12720, Note_on_c, 0, 83, 78
2, 12720, Note_on_c, 0, 79, 78
2, 12765, Note_on_c, 0, 83, 0
2, 12765, Note_on_c, 0, 79, 0
2, 12768, Note_on_c, 0, 86, 78
2, 12768, Note_on_c, 0, 83, 78
2, 12813, Note_on_c, 0, 86, 0
2, 12813, Note_on_c, 0, 83, 0
2, 12816, Note_on_c, 0, 83, 78
2, 12816, Note_on_c, 0, 79, 78
2, 12861, Note_on_c, 0, 83, 0
2, 12861, Note_on_c, 0, 79, 0
2, 13152, Note_on_c, 0, 67, 65
2, 13152, Note_on_c, 0, 59, 65
2, 13200, Note_on_c, 0, 67, 0
2, 13200, Note_on_c, 0, 59, 0
2, 13200, Note_on_c, 0, 63, 65
2, 13200, Note_on_c, 0, 57, 65
2, 13245, Note_on_c, 0, 63, 0
2, 13245, Note_on_c, 0, 57, 0
2, 13248, Note_on_c, 0, 64, 65
2, 13248, Note_on_c, 0, 55, 65
2, 13293, Note_on_c, 0, 64, 0
2, 13293, Note_on_c, 0, 55, 0
2, 13440, Note_on_c, 0, 71, 65
2, 13440, Note_on_c, 0, 67, 65
2, 13488, Note_on_c, 0, 71, 0
2, 13488, Note_on_c, 0, 67, 0
2, 13488, Note_on_c, 0, 69, 65
2, 13488, Note_on_c, 0, 66, 65
2, 13533, Note_on_c, 0, 69, 0
2, 13533, Note_on_c, 0, 66, 0
2, 13536, Note_on_c, 0, 67, 65
2, 13536, Note_on_c, 0, 64, 65
2, 13581, Note_on_c, 0, 67, 0
2, 13581, Note_on_c, 0, 64, 0
2, 13728, Note_on_c, 0, 79, 65
2, 13728, Note_on_c, 0, 71, 65
2, 13776, Note_on_c, 0, 79, 0
2, 13776, Note_on_c, 0, 71, 0
2, 13776, Note_on_c, 0, 78, 65
2, 13776, Note_on_c, 0, 69, 65
2, 13821, Note_on_c, 0, 78, 0
2, 13821, Note_on_c, 0, 69, 0
2, 13824, Note_on_c, 0, 76, 65
2, 13824, Note_on_c, 0, 67, 65
2, 14013, Note_on_c, 0, 76, 0
2, 14013, Note_on_c, 0, 67, 0
2, 14016, Note_on_c, 0, 72, 65
2, 14016, Note_on_c, 0, 69, 65
2, 14061, Note_on_c, 0, 72, 0
2, 14061, Note_on_c, 0, 69, 0
2, 14064, Note_on_c, 0, 69, 65
2, 14064, Note_on_c, 0, 66, 65
2, 14109, Note_on_c, 0, 69, 0
2, 14109, Note_on_c, 0, 66, 0
2, 14112, Note_on_c, 0, 66, 65
2, 14112, Note_on_c, 0, 63, 65
2, 14301, Note_on_c, 0, 66, 0
2, 14301, Note_on_c, 0, 63, 0
2, 14304, Note_on_c, 0, 71, 65
2, 14349, Note_on_c, 0, 71, 0
2, 14352, Note_on_c, 0, 69, 65
2, 14397, Note_on_c, 0, 69, 0
2, 14400, Note_on_c, 0, 69, 65
2, 14400, Note_on_c, 0, 66, 65
2, 14496, Note_on_c, 0, 69, 0
2, 14496, Note_on_c, 0, 66, 0
2, 14496, Note_on_c, 0, 67, 65
2, 14496, Note_on_c, 0, 64, 65
2, 14541, Note_on_c, 0, 67, 0
2, 14541, Note_on_c, 0, 64, 0
2, 14544, Note_on_c, 0, 66, 65
2, 14564, Note_on_c, 0, 66, 0
2, 14592, Note_on_c, 0, 70, 65
2, 14640, Note_on_c, 0, 70, 0
2, 14640, Note_on_c, 0, 71, 65
2, 14685, Note_on_c, 0, 71, 0
2, 14688, Note_on_c, 0, 69, 65
2, 14688, Note_on_c, 0, 66, 65
2, 14784, Note_on_c, 0, 69, 0
2, 14784, Note_on_c, 0, 66, 0
2, 14784, Note_on_c, 0, 67, 65
2, 14784, Note_on_c, 0, 64, 65
2, 14829, Note_on_c, 0, 67, 0
2, 14829, Note_on_c, 0, 64, 0
2, 14832, Note_on_c, 0, 66, 65
2, 14852, Note_on_c, 0, 66, 0
2, 14880, Note_on_c, 0, 70, 65
2, 14928, Note_on_c, 0, 70, 0
2, 14928, Note_on_c, 0, 71, 65
2, 14973, Note_on_c, 0, 71, 0
2, 14976, Note_on_c, 0, 69, 65
2, 15072, Note_on_c, 0, 69, 0
2, 15072, Note_on_c, 0, 67, 65
2, 15084, Note_on_c, 0, 67, 0
2, 15084, Note_on_c, 0, 69, 65
2, 15096, Note_on_c, 0, 69, 0
2, 15096, Note_on_c, 0, 67, 65
2, 15108, Note_on_c, 0, 67, 0
2, 15108, Note_on_c, 0, 69, 65
2, 15117, Note_on_c, 0, 69, 0
2, 15120, Note_on_c, 0, 66, 65
2, 15165, Note_on_c, 0, 66, 0
2, 15456, Note_on_c, 0, 67, 65
2, 15456, Note_on_c, 0, 59, 65
2, 15504, Note_on_c, 0, 67, 0
2, 15504, Note_on_c, 0, 59, 0
2, 15504, Note_on_c, 0, 63, 65
2, 15504, Note_on_c, 0, 57, 65
2, 15549, Note_on_c, 0, 63, 0
2, 15549, Note_on_c, 0, 57, 0
2, 15552, Note_on_c, 0, 64, 65
2, 15552, Note_on_c, 0, 55, 65
2, 15597, Note_on_c, 0, 64, 0
2, 15597, Note_on_c, 0, 55, 0
2, 15744, Note_on_c, 0, 71, 65
2, 15744, Note_on_c, 0, 67, 65
2, 15792, Note_on_c, 0, 71, 0
2, 15792, Note_on_c, 0, 67, 0
2, 15792, Note_on_c, 0, 69, 65
2, 15792, Note_on_c, 0, 66, 65
2, 15837, Note_on_c, 0, 69, 0
2, 15837, Note_on_c, 0, 66, 0
2, 15840, Note_on_c, 0, 67, 65
2, 15840, Note_on_c, 0, 64, 65
2, 15885, Note_on_c, 0, 67, 0
2, 15885, Note_on_c, 0, 64, 0
2, 16032, Note_on_c, 0, 76, 65
2, 16032, Note_on_c, 0, 68, 65
2, 16080, Note_on_c, 0, 76, 0
2, 16080, Note_on_c, 0, 68, 0
2, 16080, Note_on_c, 0, 74, 65
2, 16080, Note_on_c, 0, 71, 65
2, 16125, Note_on_c, 0, 74, 0
2, 16125, Note_on_c, 0, 71, 0
2, 16128, Note_on_c, 0, 72, 65
2, 16128, Note_on_c, 0, 69, 65
2, 16173, Note_on_c, 0, 72, 0
2, 16173, Note_on_c, 0, 69, 0
2, 16320, Note_on_c, 0, 72, 65
2, 16320, Note_on_c, 0, 69, 65
2, 16368, Note_on_c, 0, 72, 0
2, 16368, Note_on_c, 0, 69, 0
2, 16368, Note_on_c, 0, 76, 65
2, 16368, Note_on_c, 0, 67, 65
2, 16413, Note_on_c, 0, 76, 0
2, 16413, Note_on_c, 0, 67, 0
2, 16416, Note_on_c, 0, 74, 65
2, 16416, Note_on_c, 0, 66, 65
2, 16461, Note_on_c, 0, 74, 0
2, 16461, Note_on_c, 0, 66, 0
2, 16608, Note_on_c, 0, 69, 65
2, 16608, Note_on_c, 0, 66, 65
2, 16656, Note_on_c, 0, 66, 0
2, 16656, Note_on_c, 0, 72, 65
2, 16701, Note_on_c, 0, 72, 0
2, 16701, Note_on_c, 0, 69, 0
2, 16704, Note_on_c, 0, 71, 94
2, 16704, Note_on_c, 0, 67, 94
2, 16752, Note_on_c, 0, 71, 0
2, 16752, Note_on_c, 0, 67, 0
2, 16872, Note_on_c, 0, 62, 78
2, 16895, Note_on_c, 0, 62, 0
2, 16896, Note_on_c, 0, 74, 78
2, 16919, Note_on_c, 0, 74, 0
2, 16920, Note_on_c, 0, 71, 78
2, 16943, Note_on_c, 0, 71, 0
2, 16944, Note_on_c, 0, 69, 78
2, 16967, Note_on_c, 0, 69, 0
2, 16968, Note_on_c, 0, 67, 78
2, 16991, Note_on_c, 0, 67, 0
2, 16992, Note_on_c, 0, 66, 78
2, 17037, Note_on_c, 0, 66, 0
2, 17160, Note_on_c, 0, 62, 78
2, 17183, Note_on_c, 0, 62, 0
2, 17184, Note_on_c, 0, 74, 78
2, 17207, Note_on_c, 0, 74, 0
2, 17208, Note_on_c, 0, 72, 76
2, 17231, Note_on_c, 0, 72, 0
2, 17232, Note_on_c, 0, 71, 74
2, 17255, Note_on_c, 0, 71, 0
2, 17256, Note_on_c, 0, 69, 73
2, 17279, Note_on_c, 0, 69, 0
2, 17280, Note_on_c, 0, 71, 69
2, 17325, Note_on_c, 0, 71, 0
2, 17448, Note_on_c, 0, 74, 69
2, 17471, Note_on_c, 0, 74, 0
2, 17472, Note_on_c, 0, 86, 69
2, 17495, Note_on_c, 0, 86, 0
2, 17496, Note_on_c, 0, 83, 69
2, 17519, Note_on_c, 0, 83, 0
2, 17520, Note_on_c, 0, 81, 69
2, 17543, Note_on_c, 0, 81, 0
2, 17544, Note_on_c, 0, 79, 69
2, 17567, Note_on_c, 0, 79, 0
2, 17568, Note_on_c, 0, 79, 69
2, 17664, Note_on_c, 0, 79, 0
2, 17664, Note_on_c, 0, 78, 69
2, 17709, Note_on_c, 0, 78, 0
2, 17736, Note_on_c, 0, 74, 69
2, 17759, Note_on_c, 0, 74, 0
2, 17760, Note_on_c, 0, 86, 69
2, 17783, Note_on_c, 0, 86, 0
2, 17784, Note_on_c, 0, 84, 69
2, 17807, Note_on_c, 0, 84, 0
2, 17808, Note_on_c, 0, 83, 69
2, 17831, Note_on_c, 0, 83, 0
2, 17832, Note_on_c, 0, 81, 69
2, 17855, Note_on_c, 0, 81, 0
2, 17856, Note_on_c, 0, 81, 69
2, 17952, Note_on_c, 0, 81, 0
2, 17952, Note_on_c, 0, 83, 69
2, 17997, Note_on_c, 0, 83, 0
2, 18024, Note_on_c, 0, 74, 69
2, 18047, Note_on_c, 0, 74, 0
2, 18048, Note_on_c, 0, 86, 69
2, 18071, Note_on_c, 0, 86, 0
2, 18072, Note_on_c, 0, 83, 69
2, 18095, Note_on_c, 0, 83, 0
2, 18096, Note_on_c, 0, 81, 69
2, 18119, Note_on_c, 0, 81, 0
2, 18120, Note_on_c, 0, 79, 69
2, 18143, Note_on_c, 0, 79, 0
2, 18144, Note_on_c, 0, 88, 69
2, 18167, Note_on_c, 0, 88, 0
2, 18168, Note_on_c, 0, 76, 69
2, 18191, Note_on_c, 0, 76, 0
2, 18192, Note_on_c, 0, 84, 69
2, 18215, Note_on_c, 0, 84, 0
2, 18216, Note_on_c, 0, 88, 69
2, 18239, Note_on_c, 0, 88, 0
2, 18240, Note_on_c, 0, 83, 69
2, 18263, Note_on_c, 0, 83, 0
2, 18264, Note_on_c, 0, 88, 69
2, 18287, Note_on_c, 0, 88, 0
2, 18288, Note_on_c, 0, 81, 69
2, 18311, Note_on_c, 0, 81, 0
2, 18312, Note_on_c, 0, 83, 69
2, 18335, Note_on_c, 0, 83, 0
2, 18336, Note_on_c, 0, 84, 69
2, 18359, Note_on_c, 0, 84, 0
2, 18360, Note_on_c, 0, 86, 69
2, 18383, Note_on_c, 0, 86, 0
2, 18384, Note_on_c, 0, 88, 69
2, 18407, Note_on_c, 0, 88, 0
2, 18408, Note_on_c, 0, 84, 69
2, 18431, Note_on_c, 0, 84, 0
2, 18432, Note_on_c, 0, 86, 69
2, 18455, Note_on_c, 0, 86, 0
2, 18456, Note_on_c, 0, 74, 69
2, 18479, Note_on_c, 0, 74, 0
2, 18480, Note_on_c, 0, 83, 69
2, 18503, Note_on_c, 0, 83, 0
2, 18504, Note_on_c, 0, 86, 69
2, 18527, Note_on_c, 0, 86, 0
2, 18528, Note_on_c, 0, 81, 69
2, 18551, Note_on_c, 0, 81, 0
2, 18552, Note_on_c, 0, 86, 69
2, 18575, Note_on_c, 0, 86, 0
2, 18576, Note_on_c, 0, 79, 69
2, 18599, Note_on_c, 0, 79, 0
2, 18600, Note_on_c, 0, 81, 69
2, 18623, Note_on_c, 0, 81, 0
2, 18624, Note_on_c, 0, 83, 69
2, 18647, Note_on_c, 0, 83, 0
2, 18648, Note_on_c, 0, 84, 69
2, 18671, Note_on_c, 0, 84, 0
2, 18672, Note_on_c, 0, 86, 69
2, 18695, Note_on_c, 0, 86, 0
2, 18696, Note_on_c, 0, 83, 69
2, 18719, Note_on_c, 0, 83, 0
2, 18720, Note_on_c, 0, 84, 69
2, 18743, Note_on_c, 0, 84, 0
2, 18744, Note_on_c, 0, 72, 69
2, 18767, Note_on_c, 0, 72, 0
2, 18768, Note_on_c, 0, 81, 69
2, 18791, Note_on_c, 0, 81, 0
2, 18792, Note_on_c, 0, 84, 69
2, 18815, Note_on_c, 0, 84, 0
2, 18816, Note_on_c, 0, 79, 69
2, 18839, Note_on_c, 0, 79, 0
2, 18840, Note_on_c, 0, 84, 69
2, 18863, Note_on_c, 0, 84, 0
2, 18864, Note_on_c, 0, 78, 69
2, 18887, Note_on_c, 0, 78, 0
2, 18888, Note_on_c, 0, 84, 69
2, 18911, Note_on_c, 0, 84, 0
2, 18912, Note_on_c, 0, 79, 69
2, 18935, Note_on_c, 0, 79, 0
2, 18936, Note_on_c, 0, 84, 69
2, 18959, Note_on_c, 0, 84, 0
2, 18960, Note_on_c, 0, 81, 69
2, 18983, Note_on_c, 0, 81, 0
2, 18984, Note_on_c, 0, 84, 69
2, 19007, Note_on_c, 0, 84, 0
2, 19008, Note_on_c, 0, 83, 69
2, 19053, Note_on_c, 0, 83, 0
2, 19056, Note_on_c, 0, 86, 69
2, 19068, Note_on_c, 0, 86, 0
2, 19068, Note_on_c, 0, 84, 69
2, 19080, Note_on_c, 0, 84, 0
2, 19080, Note_on_c, 0, 83, 69
2, 19092, Note_on_c, 0, 83, 0
2, 19092, Note_on_c, 0, 84, 69
2, 19104, Note_on_c, 0, 84, 0
2, 19104, Note_on_c, 0, 86, 69
2, 19149, Note_on_c, 0, 86, 0
2, 19152, Note_on_c, 0, 81, 69
2, 19197, Note_on_c, 0, 81, 0
2, 19200, Note_on_c, 0, 81, 69
2, 19245, Note_on_c, 0, 81, 0
2, 19248, Note_on_c, 0, 81, 69
2, 19293, Note_on_c, 0, 81, 0
2, 19296, Note_on_c, 0, 83, 69
2, 19341, Note_on_c, 0, 83, 0
2, 19344, Note_on_c, 0, 86, 69
2, 19356, Note_on_c, 0, 86, 0
2, 19356, Note_on_c, 0, 84, 69
2, 19368, Note_on_c, 0, 84, 0
2, 19368, Note_on_c, 0, 83, 69
2, 19380, Note_on_c, 0, 83, 0
2, 19380, Note_on_c, 0, 84, 69
2, 19392, Note_on_c, 0, 84, 0
2, 19392, Note_on_c, 0, 86, 69
2, 19437, Note_on_c, 0, 86, 0
2, 19440, Note_on_c, 0, 81, 69
2, 19485, Note_on_c, 0, 81, 0
2, 19488, Note_on_c, 0, 81, 69
2, 19533, Note_on_c, 0, 81, 0
2, 19536, Note_on_c, 0, 81, 69
2, 19581, Note_on_c, 0, 81, 0
2, 19584, Note_on_c, 0, 83, 69
2, 19629, Note_on_c, 0, 83, 0
2, 19632, Note_on_c, 0, 86, 69
2, 19644, Note_on_c, 0, 86, 0
2, 19644, Note_on_c, 0, 84, 69
2, 19656, Note_on_c, 0, 84, 0
2, 19656, Note_on_c, 0, 83, 69
2, 19668, Note_on_c, 0, 83, 0
2, 19668, Note_on_c, 0, 84, 69
2, 19680, Note_on_c, 0, 84, 0
2, 19680, Note_on_c, 0, 86, 69
2, 19725, Note_on_c, 0, 86, 0
2, 19728, Note_on_c, 0, 81, 69
2, 19773, Note_on_c, 0, 81, 0
2, 19776, Note_on_c, 0, 81, 69
2, 19821, Note_on_c, 0, 81, 0
2, 19824, Note_on_c, 0, 81, 69
2, 19869, Note_on_c, 0, 81, 0
2, 19872, Note_on_c, 0, 79, 69
2, 19917, Note_on_c, 0, 79, 0
2, 19920, Note_on_c, 0, 79, 69
2, 19965, Note_on_c, 0, 79, 0
2, 19968, Note_on_c, 0, 79, 69
2, 20013, Note_on_c, 0, 79, 0
2, 20016, Note_on_c, 0, 78, 69
2, 20061, Note_on_c, 0, 78, 0
2, 20064, Note_on_c, 0, 78, 69
2, 20109, Note_on_c, 0, 78, 0
2, 20112, Note_on_c, 0, 78, 69
2, 20157, Note_on_c, 0, 78, 0
2, 20160, Note_on_c, 0, 73, 69
2, 20205, Note_on_c, 0, 73, 0
2, 20208, Note_on_c, 0, 73, 69
2, 20253, Note_on_c, 0, 73, 0
2, 20256, Note_on_c, 0, 73, 69
2, 20301, Note_on_c, 0, 73, 0
2, 20304, Note_on_c, 0, 74, 69
2, 20327, Note_on_c, 0, 74, 0
2, 20328, Note_on_c, 0, 69, 69
2, 20351, Note_on_c, 0, 69, 0
2, 20352, Note_on_c, 0, 71, 69
2, 20375, Note_on_c, 0, 71, 0
2, 20376, Note_on_c, 0, 73, 69
2, 20399, Note_on_c, 0, 73, 0
2, 20400, Note_on_c, 0, 74, 70
2, 20423, Note_on_c, 0, 74, 0
2, 20424, Note_on_c, 0, 76, 70
2, 20447, Note_on_c, 0, 76, 0
2, 20448, Note_on_c, 0, 78, 71
2, 20471, Note_on_c, 0, 78, 0
2, 20472, Note_on_c, 0, 74, 71
2, 20495, Note_on_c, 0, 74, 0
2, 20496, Note_on_c, 0, 76, 72
2, 20519, Note_on_c, 0, 76, 0
2, 20520, Note_on_c, 0, 78, 72
2, 20543, Note_on_c, 0, 78, 0
2, 20544, Note_on_c, 0, 79, 73
2, 20567, Note_on_c, 0, 79, 0
2, 20568, Note_on_c, 0, 81, 73
2, 20591, Note_on_c, 0, 81, 0
2, 20592, Note_on_c, 0, 83, 74
2, 20615, Note_on_c, 0, 83, 0
2, 20616, Note_on_c, 0, 81, 74
2, 20639, Note_on_c, 0, 81, 0
2, 20640, Note_on_c, 0, 79, 75
2, 20663, Note_on_c, 0, 79, 0
2, 20664, Note_on_c, 0, 81, 75
2, 20687, Note_on_c, 0, 81, 0
2, 20688, Note_on_c, 0, 83, 76
2, 20711, Note_on_c, 0, 83, 0
2, 20712, Note_on_c, 0, 85, 76
2, 20735, Note_on_c, 0, 85, 0
2, 20736, Note_on_c, 0, 86, 93
2, 20784, Note_on_c, 0, 86, 0
2, 20784, Note_on_c, 0, 81, 78
2, 20829, Note_on_c, 0, 81, 0
2, 20832, Note_on_c, 0, 78, 78
2, 20877, Note_on_c, 0, 78, 0
2, 20880, Note_on_c, 0, 74, 78
2, 20925, Note_on_c, 0, 74, 0
2, 20928, Note_on_c, 0, 69, 78
2, 20973, Note_on_c, 0, 69, 0
2, 20976, Note_on_c, 0, 66, 78
2, 21021, Note_on_c, 0, 66, 0
2, 21024, Note_on_c, 0, 62, 78
2, 21157, Note_on_c, 0, 62, 0
2, 21360, Note_on_c, 0, 74, 73
2, 21360, Note_on_c, 0, 71, 73
2, 21405, Note_on_c, 0, 74, 0
2, 21405, Note_on_c, 0, 71, 0
2, 21408, Note_on_c, 0, 72, 73
2, 21408, Note_on_c, 0, 69, 73
2, 21453, Note_on_c, 0, 72, 0
2, 21453, Note_on_c, 0, 69, 0
2, 21456, Note_on_c, 0, 71, 73
2, 21456, Note_on_c, 0, 67, 73
2, 21501, Note_on_c, 0, 71, 0
2, 21501, Note_on_c, 0, 67, 0
2, 21504, Note_on_c, 0, 83, 73
2, 21504, Note_on_c, 0, 74, 73
2, 21549, Note_on_c, 0, 83, 0
2, 21549, Note_on_c, 0, 74, 0
2, 21552, Note_on_c, 0, 79, 73
2, 21552, Note_on_c, 0, 71, 73
2, 21597, Note_on_c, 0, 79, 0
2, 21597, Note_on_c, 0, 71, 0
2, 21600, Note_on_c, 0, 78, 73
2, 21600, Note_on_c, 0, 69, 73
2, 21645, Note_on_c, 0, 78, 0
2, 21645, Note_on_c, 0, 69, 0
2, 21648, Note_on_c, 0, 84, 73
2, 21648, Note_on_c, 0, 81, 73
2, 21693, Note_on_c, 0, 84, 0
2, 21693, Note_on_c, 0, 81, 0
2, 21696, Note_on_c, 0, 83, 73
2, 21696, Note_on_c, 0, 79, 73
2, 21741, Note_on_c, 0, 83, 0
2, 21741, Note_on_c, 0, 79, 0
2, 21744, Note_on_c, 0, 81, 73
2, 21744, Note_on_c, 0, 78, 73
2, 21789, Note_on_c, 0, 81, 0
2, 21789, Note_on_c, 0, 78, 0
2, 21792, Note_on_c, 0, 88, 73
2, 21792, Note_on_c, 0, 84, 73
2, 21837, Note_on_c, 0, 88, 0
2, 21837, Note_on_c, 0, 84, 0
2, 21840, Note_on_c, 0, 84, 73
2, 21840, Note_on_c, 0, 81, 73
2, 21885, Note_on_c, 0, 84, 0
2, 21885, Note_on_c, 0, 81, 0
2, 21888, Note_on_c, 0, 83, 73
2, 21933, Note_on_c, 0, 83, 0
2, 21936, Note_on_c, 0, 86, 73
2, 22121, Note_on_c, 0, 86, 0
2, 22128, Note_on_c, 0, 84, 73
2, 22265, Note_on_c, 0, 84, 0
2, 22272, Note_on_c, 0, 83, 73
2, 22317, Note_on_c, 0, 83, 0
2, 22320, Note_on_c, 0, 81, 73
2, 22365, Note_on_c, 0, 81, 0
2, 22368, Note_on_c, 0, 83, 73
2, 22413, Note_on_c, 0, 83, 0
2, 22416, Note_on_c, 0, 84, 73
2, 22461, Note_on_c, 0, 84, 0
2, 22464, Note_on_c, 0, 79, 73
2, 22653, Note_on_c, 0, 79, 0
2, 22656, Note_on_c, 0, 81, 73
2, 22701, Note_on_c, 0, 81, 0
2, 22704, Note_on_c, 0, 78, 73
2, 22749, Note_on_c, 0, 78, 0
2, 22752, Note_on_c, 0, 79, 73
2, 22885, Note_on_c, 0, 79, 0
2, 23088, Note_on_c, 0, 74, 73
2, 23088, Note_on_c, 0, 71, 73
2, 23133, Note_on_c, 0, 74, 0
2, 23133, Note_on_c, 0, 71, 0
2, 23136, Note_on_c, 0, 72, 73
2, 23136, Note_on_c, 0, 69, 73
2, 23181, Note_on_c, 0, 72, 0
2, 23181, Note_on_c, 0, 69, 0
2, 23184, Note_on_c, 0, 71, 73
2, 23184, Note_on_c, 0, 67, 73
2, 23229, Note_on_c, 0, 71, 0
2, 23229, Note_on_c, 0, 67, 0
2, 23232, Note_on_c, 0, 83, 73
2, 23232, Note_on_c, 0, 74, 73
2, 23277, Note_on_c, 0, 83, 0
2, 23277, Note_on_c, 0, 74, 0
2, 23280, Note_on_c, 0, 79, 73
2, 23280, Note_on_c, 0, 71, 73
2, 23325, Note_on_c, 0, 79, 0
2, 23325, Note_on_c, 0, 71, 0
2, 23328, Note_on_c, 0, 78, 73
2, 23328, Note_on_c, 0, 69, 73
2, 23373, Note_on_c, 0, 78, 0
2, 23373, Note_on_c, 0, 69, 0
2, 23376, Note_on_c, 0, 84, 73
2, 23376, Note_on_c, 0, 81, 73
2, 23421, Note_on_c, 0, 84, 0
2, 23421, Note_on_c, 0, 81, 0
2, 23424, Note_on_c, 0, 83, 73
2, 23424, Note_on_c, 0, 79, 73
2, 23469, Note_on_c, 0, 83, 0
2, 23469, Note_on_c, 0, 79, 0
2, 23472, Note_on_c, 0, 81, 73
2, 23472, Note_on_c, 0, 78, 73
2, 23517, Note_on_c, 0, 81, 0
2, 23517, Note_on_c, 0, 78, 0
2, 23520, Note_on_c, 0, 88, 73
2, 23520, Note_on_c, 0, 84, 73
2, 23565, Note_on_c, 0, 88, 0
2, 23565, Note_on_c, 0, 84, 0
2, 23568, Note_on_c, 0, 84, 73
2, 23568, Note_on_c, 0, 81, 73
2, 23613, Note_on_c, 0, 84, 0
2, 23613, Note_on_c, 0, 81, 0
2, 23616, Note_on_c, 0, 83, 73
2, 23661, Note_on_c, 0, 83, 0
2, 23664, Note_on_c, 0, 86, 73
2, 23849, Note_on_c, 0, 86, 0
2, 23856, Note_on_c, 0, 84, 73
2, 23993, Note_on_c, 0, 84, 0
2, 24000, Note_on_c, 0, 83, 73
2, 24089, Note_on_c, 0, 83, 0
2, 24096, Note_on_c, 0, 81, 73
2, 24185, Note_on_c, 0, 81, 0
2, 24192, Note_on_c, 0, 79, 73
2, 24212, Note_on_c, 0, 79, 0
2, 24240, Note_on_c, 0, 79, 73
2, 24260, Note_on_c, 0, 79, 0
2, 24288, Note_on_c, 0, 79, 73
2, 24308, Note_on_c, 0, 79, 0
2, 24336, Note_on_c, 0, 79, 73
2, 24356, Note_on_c, 0, 79, 0
2, 24384, Note_on_c, 0, 79, 73
2, 24404, Note_on_c, 0, 79, 0
2, 24432, Note_on_c, 0, 79, 73
2, 24452, Note_on_c, 0, 79, 0
2, 24480, Note_on_c, 0, 79, 73
2, 24669, Note_on_c, 0, 79, 0
2, 24672, Note_on_c, 0, 81, 73
2, 24717, Note_on_c, 0, 81, 0
2, 24720, Note_on_c, 0, 78, 73
2, 24765, Note_on_c, 0, 78, 0
2, 24768, Note_on_c, 0, 79, 78
2, 24791, Note_on_c, 0, 79, 0
2, 24792, Note_on_c, 0, 74, 78
2, 24815, Note_on_c, 0, 74, 0
2, 24816, Note_on_c, 0, 71, 78
2, 24839, Note_on_c, 0, 71, 0
2, 24840, Note_on_c, 0, 74, 78
2, 24863, Note_on_c, 0, 74, 0
2, 24864, Note_on_c, 0, 72, 78
2, 24887, Note_on_c, 0, 72, 0
2, 24888, Note_on_c, 0, 74, 78
2, 24911, Note_on_c, 0, 74, 0
2, 24912, Note_on_c, 0, 71, 78
2, 24935, Note_on_c, 0, 71, 0
2, 24936, Note_on_c, 0, 74, 78
2, 24959, Note_on_c, 0, 74, 0
2, 24960, Note_on_c, 0, 79, 78
2, 24983, Note_on_c, 0, 79, 0
2, 24984, Note_on_c, 0, 74, 78
2, 25007, Note_on_c, 0, 74, 0
2, 25008, Note_on_c, 0, 81, 78
2, 25031, Note_on_c, 0, 81, 0
2, 25032, Note_on_c, 0, 74, 78
2, 25055, Note_on_c, 0, 74, 0
2, 25056, Note_on_c, 0, 83, 78
2, 25079, Note_on_c, 0, 83, 0
2, 25080, Note_on_c, 0, 74, 78
2, 25103, Note_on_c, 0, 74, 0
2, 25104, Note_on_c, 0, 71, 78
2, 25127, Note_on_c, 0, 71, 0
2, 25128, Note_on_c, 0, 74, 78
2, 25151, Note_on_c, 0, 74, 0
2, 25152, Note_on_c, 0, 72, 78
2, 25175, Note_on_c, 0, 72, 0
2, 25176, Note_on_c, 0, 74, 78
2, 25199, Note_on_c, 0, 74, 0
2, 25200, Note_on_c, 0, 71, 78
2, 25223, Note_on_c, 0, 71, 0
2, 25224, Note_on_c, 0, 74, 78
2, 25247, Note_on_c, 0, 74, 0
2, 25248, Note_on_c, 0, 79, 78
2, 25271, Note_on_c, 0, 79, 0
2, 25272, Note_on_c, 0, 74, 78
2, 25295, Note_on_c, 0, 74, 0
2, 25296, Note_on_c, 0, 81, 78
2, 25319, Note_on_c, 0, 81, 0
2, 25320, Note_on_c, 0, 74, 78
2, 25343, Note_on_c, 0, 74, 0
2, 25344, Note_on_c, 0, 83, 78
2, 25367, Note_on_c, 0, 83, 0
2, 25368, Note_on_c, 0, 74, 78
2, 25391, Note_on_c, 0, 74, 0
2, 25392, Note_on_c, 0, 71, 78
2, 25415, Note_on_c, 0, 71, 0
2, 25416, Note_on_c, 0, 74, 78
2, 25439, Note_on_c, 0, 74, 0
2, 25440, Note_on_c, 0, 72, 78
2, 25463, Note_on_c, 0, 72, 0
2, 25464, Note_on_c, 0, 74, 78
2, 25487, Note_on_c, 0, 74, 0
2, 25488, Note_on_c, 0, 71, 78
2, 25511, Note_on_c, 0, 71, 0
2, 25512, Note_on_c, 0, 74, 78
2, 25535, Note_on_c, 0, 74, 0
2, 25536, Note_on_c, 0, 79, 78
2, 25559, Note_on_c, 0, 79, 0
2, 25560, Note_on_c, 0, 74, 78
2, 25583, Note_on_c, 0, 74, 0
2, 25584, Note_on_c, 0, 81, 78
2, 25607, Note_on_c, 0, 81, 0
2, 25608, Note_on_c, 0, 74, 78
2, 25631, Note_on_c, 0, 74, 0
2, 25632, Note_on_c, 0, 83, 78
2, 25677, Note_on_c, 0, 83, 0
2, 25680, Note_on_c, 0, 83, 78
2, 25680, Note_on_c, 0, 79, 78
2, 25725, Note_on_c, 0, 83, 0
2, 25725, Note_on_c, 0, 79, 0
2, 25728, Note_on_c, 0, 86, 78
2, 25728, Note_on_c, 0, 83, 78
2, 25773, Note_on_c, 0, 86, 0
2, 25773, Note_on_c, 0, 83, 0
2, 25776, Note_on_c, 0, 83, 78
2, 25776, Note_on_c, 0, 79, 78
2, 25821, Note_on_c, 0, 83, 0
2, 25821, Note_on_c, 0, 79, 0
2, 26112, Note_on_c, 0, 64, 65
2, 26112, Note_on_c, 0, 56, 65
2, 26160, Note_on_c, 0, 64, 0
2, 26160, Note_on_c, 0, 56, 0
2, 26160, Note_on_c, 0, 62, 65
2, 26160, Note_on_c, 0, 59, 65
2, 26205, Note_on_c, 0, 62, 0
2, 26205, Note_on_c, 0, 59, 0
2, 26208, Note_on_c, 0, 60, 65
2, 26208, Note_on_c, 0, 57, 65
2, 26253, Note_on_c, 0, 60, 0
2, 26253, Note_on_c, 0, 57, 0
2, 26400, Note_on_c, 0, 72, 65
2, 26400, Note_on_c, 0, 64, 65
2, 26448, Note_on_c, 0, 72, 0
2, 26448, Note_on_c, 0, 64, 0
2, 26448, Note_on_c, 0, 69, 65
2, 26448, Note_on_c, 0, 60, 65
2, 26493, Note_on_c, 0, 69, 0
2, 26493, Note_on_c, 0, 60, 0
2, 26496, Note_on_c, 0, 68, 65
2, 26496, Note_on_c, 0, 59, 65
2, 26541, Note_on_c, 0, 68, 0
2, 26541, Note_on_c, 0, 59, 0
2, 26688, Note_on_c, 0, 76, 65
2, 26688, Note_on_c, 0, 68, 65
2, 26736, Note_on_c, 0, 76, 0
2, 26736, Note_on_c, 0, 68, 0
2, 26736, Note_on_c, 0, 74, 65
2, 26736, Note_on_c, 0, 71, 65
2, 26781, Note_on_c, 0, 74, 0
2, 26781, Note_on_c, 0, 71, 0
2, 26784, Note_on_c, 0, 72, 65
2, 26784, Note_on_c, 0, 69, 65
2, 26829, Note_on_c, 0, 72, 0
2, 26829, Note_on_c, 0, 69, 0
2, 26976, Note_on_c, 0, 81, 65
2, 26976, Note_on_c, 0, 72, 65
2, 27024, Note_on_c, 0, 81, 0
2, 27024, Note_on_c, 0, 72, 0
2, 27024, Note_on_c, 0, 75, 65
2, 27024, Note_on_c, 0, 69, 65
2, 27069, Note_on_c, 0, 75, 0
2, 27069, Note_on_c, 0, 69, 0
2, 27072, Note_on_c, 0, 76, 65
2, 27072, Note_on_c, 0, 68, 65
2, 27117, Note_on_c, 0, 76, 0
2, 27117, Note_on_c, 0, 68, 0
2, 27528, Note_on_c, 0, 67, 78
2, 27551, Note_on_c, 0, 67, 0
2, 27552, Note_on_c, 0, 79, 78
2, 27575, Note_on_c, 0, 79, 0
2, 27576, Note_on_c, 0, 76, 78
2, 27599, Note_on_c, 0, 76, 0
2, 27600, Note_on_c, 0, 74, 78
2, 27623, Note_on_c, 0, 74, 0
2, 27624, Note_on_c, 0, 72, 78
2, 27647, Note_on_c, 0, 72, 0
2, 27648, Note_on_c, 0, 71, 78
2, 27693, Note_on_c, 0, 71, 0
2, 27816, Note_on_c, 0, 67, 78
2, 27839, Note_on_c, 0, 67, 0
2, 27840, Note_on_c, 0, 79, 78
2, 27863, Note_on_c, 0, 79, 0
2, 27864, Note_on_c, 0, 77, 78
2, 27887, Note_on_c, 0, 77, 0
2, 27888, Note_on_c, 0, 76, 78
2, 27911, Note_on_c, 0, 76, 0
2, 27912, Note_on_c, 0, 74, 78
2, 27935, Note_on_c, 0, 74, 0
2, 27936, Note_on_c, 0, 76, 69
2, 28025, Note_on_c, 0, 76, 0
2, 28104, Note_on_c, 0, 67, 69
2, 28127, Note_on_c, 0, 67, 0
2, 28128, Note_on_c, 0, 79, 69
2, 28151, Note_on_c, 0, 79, 0
2, 28152, Note_on_c, 0, 76, 69
2, 28175, Note_on_c, 0, 76, 0
2, 28176, Note_on_c, 0, 74, 69
2, 28199, Note_on_c, 0, 74, 0
2, 28200, Note_on_c, 0, 72, 69
2, 28223, Note_on_c, 0, 72, 0
2, 28224, Note_on_c, 0, 72, 69
2, 28320, Note_on_c, 0, 72, 0
2, 28320, Note_on_c, 0, 71, 69
2, 28365, Note_on_c, 0, 71, 0
2, 28392, Note_on_c, 0, 67, 70
2, 28415, Note_on_c, 0, 67, 0
2, 28416, Note_on_c, 0, 79, 70
2, 28439, Note_on_c, 0, 79, 0
2, 28440, Note_on_c, 0, 77, 70
2, 28463, Note_on_c, 0, 77, 0
2, 28464, Note_on_c, 0, 76, 70
2, 28487, Note_on_c, 0, 76, 0
2, 28488, Note_on_c, 0, 74, 70
2, 28511, Note_on_c, 0, 74, 0
2, 28512, Note_on_c, 0, 74, 70
2, 28608, Note_on_c, 0, 74, 0
2, 28608, Note_on_c, 0, 73, 71
2, 28653, Note_on_c, 0, 73, 0
2, 28680, Note_on_c, 0, 82, 71
2, 28703, Note_on_c, 0, 82, 0
2, 28704, Note_on_c, 0, 81, 71
2, 28727, Note_on_c, 0, 81, 0
2, 28728, Note_on_c, 0, 79, 71
2, 28751, Note_on_c, 0, 79, 0
2, 28752, Note_on_c, 0, 77, 71
2, 28775, Note_on_c, 0, 77, 0
2, 28776, Note_on_c, 0, 76, 71
2, 28799, Note_on_c, 0, 76, 0
2, 28800, Note_on_c, 0, 76, 71
2, 28896, Note_on_c, 0, 76, 0
2, 28896, Note_on_c, 0, 74, 72
2, 28941, Note_on_c, 0, 74, 0
2, 28968, Note_on_c, 0, 69, 72
2, 28991, Note_on_c, 0, 69, 0
2, 28992, Note_on_c, 0, 81, 72
2, 29015, Note_on_c, 0, 81, 0
2, 29016, Note_on_c, 0, 77, 72
2, 29039, Note_on_c, 0, 77, 0
2, 29040, Note_on_c, 0, 76, 72
2, 29063, Note_on_c, 0, 76, 0
2, 29064, Note_on_c, 0, 74, 72
2, 29087, Note_on_c, 0, 74, 0
2, 29088, Note_on_c, 0, 74, 72
2, 29184, Note_on_c, 0, 74, 0
2, 29184, Note_on_c, 0, 73, 73
2, 29229, Note_on_c, 0, 73, 0
2, 29256, Note_on_c, 0, 82, 73
2, 29279, Note_on_c, 0, 82, 0
2, 29280, Note_on_c, 0, 81, 73
2, 29303, Note_on_c, 0, 81, 0
2, 29304, Note_on_c, 0, 79, 73
2, 29327, Note_on_c, 0, 79, 0
2, 29328, Note_on_c, 0, 77, 73
2, 29351, Note_on_c, 0, 77, 0
2, 29352, Note_on_c, 0, 76, 74
2, 29375, Note_on_c, 0, 76, 0
2, 29376, Note_on_c, 0, 76, 74
2, 29472, Note_on_c, 0, 76, 0
2, 29472, Note_on_c, 0, 75, 74
2, 29517, Note_on_c, 0, 75, 0
2, 29544, Note_on_c, 0, 84, 74
2, 29567, Note_on_c, 0, 84, 0
2, 29568, Note_on_c, 0, 83, 74
2, 29591, Note_on_c, 0, 83, 0
2, 29592, Note_on_c, 0, 81, 75
2, 29615, Note_on_c, 0, 81, 0
2, 29616, Note_on_c, 0, 79, 75
2, 29639, Note_on_c, 0, 79, 0
2, 29640, Note_on_c, 0, 78, 75
2, 29663, Note_on_c, 0, 78, 0
2, 29664, Note_on_c, 0, 78, 75
2, 29760, Note_on_c, 0, 78, 0
2, 29760, Note_on_c, 0, 76, 75
2, 29805, Note_on_c, 0, 76, 0
2, 29832, Note_on_c, 0, 71, 75
2, 29855, Note_on_c, 0, 71, 0
2, 29856, Note_on_c, 0, 83, 76
2, 29879, Note_on_c, 0, 83, 0
2, 29880, Note_on_c, 0, 79, 76
2, 29903, Note_on_c, 0, 79, 0
2, 29904, Note_on_c, 0, 78, 76
2, 29927, Note_on_c, 0, 78, 0
2, 29928, Note_on_c, 0, 76, 76
2, 29951, Note_on_c, 0, 76, 0
2, 29952, Note_on_c, 0, 83, 76
2, 30048, Note_on_c, 0, 83, 0
2, 30048, Note_on_c, 0, 82, 76
2, 30093, Note_on_c, 0, 82, 0
2, 30120, Note_on_c, 0, 79, 77
2, 30143, Note_on_c, 0, 79, 0
2, 30144, Note_on_c, 0, 78, 77
2, 30167, Note_on_c, 0, 78, 0
2, 30168, Note_on_c, 0, 76, 77
2, 30191, Note_on_c, 0, 76, 0
2, 30192, Note_on_c, 0, 74, 77
2, 30215, Note_on_c, 0, 74, 0
2, 30216, Note_on_c, 0, 73, 77
2, 30239, Note_on_c, 0, 73, 0
2, 30240, Note_on_c, 0, 76, 77
2, 30336, Note_on_c, 0, 76, 0
2, 30336, Note_on_c, 0, 74, 78
2, 30381, Note_on_c, 0, 74, 0
2, 30408, Note_on_c, 0, 74, 78
2, 30431, Note_on_c, 0, 74, 0
2, 30432, Note_on_c, 0, 78, 78
2, 30455, Note_on_c, 0, 78, 0
2, 30456, Note_on_c, 0, 74, 78
2, 30479, Note_on_c, 0, 74, 0
2, 30480, Note_on_c, 0, 73, 78
2, 30503, Note_on_c, 0, 73, 0
2, 30504, Note_on_c, 0, 71, 78
2, 30527, Note_on_c, 0, 71, 0
2, 30528, Note_on_c, 0, 71, 78
2, 30624, Note_on_c, 0, 71, 0
2, 30624, Note_on_c, 0, 70, 78
2, 30669, Note_on_c, 0, 70, 0
2, 30696, Note_on_c, 0, 79, 78
2, 30719, Note_on_c, 0, 79, 0
2, 30720, Note_on_c, 0, 78, 78
2, 30743, Note_on_c, 0, 78, 0
2, 30744, Note_on_c, 0, 76, 78
2, 30767, Note_on_c, 0, 76, 0
2, 30768, Note_on_c, 0, 74, 78
2, 30791, Note_on_c, 0, 74, 0
2, 30792, Note_on_c, 0, 73, 78
2, 30815, Note_on_c, 0, 73, 0
2, 30816, Note_on_c, 0, 76, 78
2, 30912, Note_on_c, 0, 76, 0
2, 30912, Note_on_c, 0, 74, 78
2, 30957, Note_on_c, 0, 74, 0
2, 30984, Note_on_c, 0, 83, 78
2, 31007, Note_on_c, 0, 83, 0
2, 31008, Note_on_c, 0, 82, 78
2, 31031, Note_on_c, 0, 82, 0
2, 31032, Note_on_c, 0, 83, 78
2, 31055, Note_on_c, 0, 83, 0
2, 31056, Note_on_c, 0, 86, 78
2, 31079, Note_on_c, 0, 86, 0
2, 31080, Note_on_c, 0, 83, 78
2, 31103, Note_on_c, 0, 83, 0
2, 31104, Note_on_c, 0, 79, 73
2, 31127, Note_on_c, 0, 79, 0
2, 31128, Note_on_c, 0, 83, 73
2, 31151, Note_on_c, 0, 83, 0
2, 31152, Note_on_c, 0, 78, 73
2, 31175, Note_on_c, 0, 78, 0
2, 31176, Note_on_c, 0, 83, 73
2, 31199, Note_on_c, 0, 83, 0
2, 31200, Note_on_c, 0, 76, 73
2, 31223, Note_on_c, 0, 76, 0
2, 31224, Note_on_c, 0, 83, 73
2, 31247, Note_on_c, 0, 83, 0
2, 31248, Note_on_c, 0, 74, 73
2, 31271, Note_on_c, 0, 74, 0
2, 31272, Note_on_c, 0, 83, 73
2, 31295, Note_on_c, 0, 83, 0
2, 31296, Note_on_c, 0, 82, 73
2, 31319, Note_on_c, 0, 82, 0
2, 31320, Note_on_c, 0, 83, 73
2, 31343, Note_on_c, 0, 83, 0
2, 31344, Note_on_c, 0, 86, 73
2, 31367, Note_on_c, 0, 86, 0
2, 31368, Note_on_c, 0, 83, 73
2, 31391, Note_on_c, 0, 83, 0
2, 31392, Note_on_c, 0, 76, 73
2, 31415, Note_on_c, 0, 76, 0
2, 31416, Note_on_c, 0, 83, 73
2, 31439, Note_on_c, 0, 83, 0
2, 31440, Note_on_c, 0, 74, 73
2, 31463, Note_on_c, 0, 74, 0
2, 31464, Note_on_c, 0, 83, 73
2, 31487, Note_on_c, 0, 83, 0
2, 31488, Note_on_c, 0, 73, 73
2, 31511, Note_on_c, 0, 73, 0
2, 31512, Note_on_c, 0, 83, 73
2, 31535, Note_on_c, 0, 83, 0
2, 31536, Note_on_c, 0, 71, 73
2, 31559, Note_on_c, 0, 71, 0
2, 31560, Note_on_c, 0, 83, 73
2, 31583, Note_on_c, 0, 83, 0
2, 31584, Note_on_c, 0, 82, 73
2, 31607, Note_on_c, 0, 82, 0
2, 31608, Note_on_c, 0, 83, 73
2, 31631, Note_on_c, 0, 83, 0
2, 31632, Note_on_c, 0, 86, 73
2, 31655, Note_on_c, 0, 86, 0
2, 31656, Note_on_c, 0, 83, 73
2, 31679, Note_on_c, 0, 83, 0
2, 31680, Note_on_c, 0, 79, 73
2, 31703, Note_on_c, 0, 79, 0
2, 31704, Note_on_c, 0, 83, 73
2, 31727, Note_on_c, 0, 83, 0
2, 31728, Note_on_c, 0, 78, 73
2, 31751, Note_on_c, 0, 78, 0
2, 31752, Note_on_c, 0, 83, 73
2, 31775, Note_on_c, 0, 83, 0
2, 31776, Note_on_c, 0, 76, 73
2, 31799, Note_on_c, 0, 76, 0
2, 31800, Note_on_c, 0, 83, 73
2, 31823, Note_on_c, 0, 83, 0
2, 31824, Note_on_c, 0, 74, 73
2, 31847, Note_on_c, 0, 74, 0
2, 31848, Note_on_c, 0, 83, 73
2, 31871, Note_on_c, 0, 83, 0
2, 31872, Note_on_c, 0, 82, 73
2, 31895, Note_on_c, 0, 82, 0
2, 31896, Note_on_c, 0, 83, 73
2, 31919, Note_on_c, 0, 83, 0
2, 31920, Note_on_c, 0, 86, 73
2, 31943, Note_on_c, 0, 86, 0
2, 31944, Note_on_c, 0, 83, 73
2, 31967, Note_on_c, 0, 83, 0
2, 31968, Note_on_c, 0, 76, 73
2, 31991, Note_on_c, 0, 76, 0
2, 31992, Note_on_c, 0, 83, 73
2, 32015, Note_on_c, 0, 83, 0
2, 32016, Note_on_c, 0, 74, 73
2, 32039, Note_on_c, 0, 74, 0
2, 32040, Note_on_c, 0, 83, 73
2, 32063, Note_on_c, 0, 83, 0
2, 32064, Note_on_c, 0, 73, 73
2, 32087, Note_on_c, 0, 73, 0
2, 32088, Note_on_c, 0, 83, 73
2, 32111, Note_on_c, 0, 83, 0
2, 32112, Note_on_c, 0, 71, 73
2, 32201, Note_on_c, 0, 71, 0
2, 32208, Note_on_c, 0, 83, 73
2, 32253, Note_on_c, 0, 83, 0
2, 32256, Note_on_c, 0, 73, 73
2, 32345, Note_on_c, 0, 73, 0
2, 32352, Note_on_c, 0, 79, 73
2, 32397, Note_on_c, 0, 79, 0
2, 32400, Note_on_c, 0, 78, 73
2, 32489, Note_on_c, 0, 78, 0
2, 32496, Note_on_c, 0, 76, 73
2, 32541, Note_on_c, 0, 76, 0
2, 32544, Note_on_c, 0, 76, 73
2, 32633, Note_on_c, 0, 76, 0
2, 32640, Note_on_c, 0, 74, 73
2, 32685, Note_on_c, 0, 74, 0
2, 32688, Note_on_c, 0, 71, 73
2, 32777, Note_on_c, 0, 71, 0
2, 32784, Note_on_c, 0, 83, 73
2, 32829, Note_on_c, 0, 83, 0
2, 32832, Note_on_c, 0, 73, 73
2, 32921, Note_on_c, 0, 73, 0
2, 32928, Note_on_c, 0, 79, 73
2, 32973, Note_on_c, 0, 79, 0
2, 33024, Note_on_c, 0, 78, 73
2, 33069, Note_on_c, 0, 78, 0
2, 33072, Note_on_c, 0, 70, 73
2, 33117, Note_on_c, 0, 70, 0
2, 33120, Note_on_c, 0, 71, 73
2, 33140, Note_on_c, 0, 71, 0
2, 33168, Note_on_c, 0, 74, 73
2, 33188, Note_on_c, 0, 74, 0
2, 33216, Note_on_c, 0, 78, 73
2, 33236, Note_on_c, 0, 78, 0
2, 33264, Note_on_c, 0, 83, 73
2, 33284, Note_on_c, 0, 83, 0
2, 33408, Note_on_c, 0, 71, 73
2, 33428, Note_on_c, 0, 71, 0
2, 33456, Note_on_c, 0, 74, 73
2, 33476, Note_on_c, 0, 74, 0
2, 33504, Note_on_c, 0, 78, 73
2, 33524, Note_on_c, 0, 78, 0
2, 33552, Note_on_c, 0, 83, 73
2, 33572, Note_on_c, 0, 83, 0
2, 33696, Note_on_c, 0, 71, 73
2, 33716, Note_on_c, 0, 71, 0
2, 33744, Note_on_c, 0, 74, 73
2, 33764, Note_on_c, 0, 74, 0
2, 33792, Note_on_c, 0, 79, 73
2, 33812, Note_on_c, 0, 79, 0
2, 33840, Note_on_c, 0, 83, 73
2, 33860, Note_on_c, 0, 83, 0
2, 33984, Note_on_c, 0, 71, 73
2, 34004, Note_on_c, 0, 71, 0
2, 34032, Note_on_c, 0, 76, 73
2, 34052, Note_on_c, 0, 76, 0
2, 34080, Note_on_c, 0, 79, 73
2, 34100, Note_on_c, 0, 79, 0
2, 34128, Note_on_c, 0, 83, 73
2, 34148, Note_on_c, 0, 83, 0
2, 34272, Note_on_c, 0, 72, 73
2, 34292, Note_on_c, 0, 72, 0
2, 34320, Note_on_c, 0, 76, 73
2, 34340, Note_on_c, 0, 76, 0
2, 34368, Note_on_c, 0, 79, 73
2, 34388, Note_on_c, 0, 79, 0
2, 34416, Note_on_c, 0, 84, 73
2, 34436, Note_on_c, 0, 84, 0
2, 34560, Note_on_c, 0, 72, 73
2, 34580, Note_on_c, 0, 72, 0
2, 34608, Note_on_c, 0, 76, 73
2, 34628, Note_on_c, 0, 76, 0
2, 34656, Note_on_c, 0, 81, 73
2, 34676, Note_on_c, 0, 81, 0
2, 34704, Note_on_c, 0, 84, 73
2, 34724, Note_on_c, 0, 84, 0
2, 34848, Note_on_c, 0, 72, 73
2, 34868, Note_on_c, 0, 72, 0
2, 34896, Note_on_c, 0, 78, 73
2, 34916, Note_on_c, 0, 78, 0
2, 34944, Note_on_c, 0, 81, 73
2, 34964, Note_on_c, 0, 81, 0
2, 34992, Note_on_c, 0, 84, 73
2, 35012, Note_on_c, 0, 84, 0
2, 35136, Note_on_c, 0, 71, 71
2, 35156, Note_on_c, 0, 71, 0
2, 35184, Note_on_c, 0, 75, 71
2, 35204, Note_on_c, 0, 75, 0
2, 35232, Note_on_c, 0, 78, 70
2, 35252, Note_on_c, 0, 78, 0
2, 35280, Note_on_c, 0, 83, 70
2, 35413, Note_on_c, 0, 83, 0
2, 35616, Note_on_c, 0, 67, 65
2, 35616, Note_on_c, 0, 59, 65
2, 35664, Note_on_c, 0, 67, 0
2, 35664, Note_on_c, 0, 59, 0
2, 35664, Note_on_c, 0, 63, 65
2, 35664, Note_on_c, 0, 57, 65
2, 35709, Note_on_c, 0, 63, 0
2, 35709, Note_on_c, 0, 57, 0
2, 35712, Note_on_c, 0, 64, 65
2, 35712, Note_on_c, 0, 55, 65
2, 35757, Note_on_c, 0, 64, 0
2, 35757, Note_on_c, 0, 55, 0
2, 35904, Note_on_c, 0, 71, 65
2, 35904, Note_on_c, 0, 67, 65
2, 35952, Note_on_c, 0, 71, 0
2, 35952, Note_on_c, 0, 67, 0
2, 35952, Note_on_c, 0, 69, 65
2, 35952, Note_on_c, 0, 66, 65
2, 35997, Note_on_c, 0, 69, 0
2, 35997, Note_on_c, 0, 66, 0
2, 36000, Note_on_c, 0, 67, 65
2, 36000, Note_on_c, 0, 64, 65
2, 36045, Note_on_c, 0, 67, 0
2, 36045, Note_on_c, 0, 64, 0
2, 36168, Note_on_c, 0, 83, 73
2, 36191, Note_on_c, 0, 83, 0
2, 36192, Note_on_c, 0, 81, 73
2, 36215, Note_on_c, 0, 81, 0
2, 36216, Note_on_c, 0, 79, 73
2, 36239, Note_on_c, 0, 79, 0
2, 36240, Note_on_c, 0, 78, 73
2, 36263, Note_on_c, 0, 78, 0
2, 36264, Note_on_c, 0, 76, 73
2, 36287, Note_on_c, 0, 76, 0
2, 36288, Note_on_c, 0, 76, 73
2, 36384, Note_on_c, 0, 76, 0
2, 36384, Note_on_c, 0, 75, 73
2, 36429, Note_on_c, 0, 75, 0
2, 36456, Note_on_c, 0, 84, 73
2, 36479, Note_on_c, 0, 84, 0
2, 36480, Note_on_c, 0, 83, 73
2, 36503, Note_on_c, 0, 83, 0
2, 36504, Note_on_c, 0, 81, 73
2, 36527, Note_on_c, 0, 81, 0
2, 36528, Note_on_c, 0, 79, 73
2, 36551, Note_on_c, 0, 79, 0
2, 36552, Note_on_c, 0, 78, 73
2, 36575, Note_on_c, 0, 78, 0
2, 36576, Note_on_c, 0, 78, 73
2, 36672, Note_on_c, 0, 78, 0
2, 36672, Note_on_c, 0, 76, 73
2, 36717, Note_on_c, 0, 76, 0
2, 36744, Note_on_c, 0, 83, 73
2, 36767, Note_on_c, 0, 83, 0
2, 36768, Note_on_c, 0, 81, 73
2, 36791, Note_on_c, 0, 81, 0
2, 36792, Note_on_c, 0, 79, 73
2, 36815, Note_on_c, 0, 79, 0
2, 36816, Note_on_c, 0, 78, 73
2, 36839, Note_on_c, 0, 78, 0
2, 36840, Note_on_c, 0, 76, 73
2, 36863, Note_on_c, 0, 76, 0
2, 36864, Note_on_c, 0, 84, 73
2, 36887, Note_on_c, 0, 84, 0
2, 36888, Note_on_c, 0, 72, 73
2, 36911, Note_on_c, 0, 72, 0
2, 36912, Note_on_c, 0, 81, 73
2, 36935, Note_on_c, 0, 81, 0
2, 36936, Note_on_c, 0, 84, 73
2, 36959, Note_on_c, 0, 84, 0
2, 36960, Note_on_c, 0, 79, 73
2, 36983, Note_on_c, 0, 79, 0
2, 36984, Note_on_c, 0, 84, 73
2, 37007, Note_on_c, 0, 84, 0
2, 37008, Note_on_c, 0, 78, 73
2, 37031, Note_on_c, 0, 78, 0
2, 37032, Note_on_c, 0, 81, 73
2, 37055, Note_on_c, 0, 81, 0
2, 37056, Note_on_c, 0, 86, 73
2, 37079, Note_on_c, 0, 86, 0
2, 37080, Note_on_c, 0, 84, 73
2, 37103, Note_on_c, 0, 84, 0
2, 37104, Note_on_c, 0, 83, 73
2, 37127, Note_on_c, 0, 83, 0
2, 37128, Note_on_c, 0, 81, 73
2, 37151, Note_on_c, 0, 81, 0
2, 37152, Note_on_c, 0, 83, 73
2, 37175, Note_on_c, 0, 83, 0
2, 37176, Note_on_c, 0, 71, 73
2, 37199, Note_on_c, 0, 71, 0
2, 37200, Note_on_c, 0, 79, 73
2, 37223, Note_on_c, 0, 79, 0
2, 37224, Note_on_c, 0, 83, 73
2, 37247, Note_on_c, 0, 83, 0
2, 37248, Note_on_c, 0, 78, 73
2, 37271, Note_on_c, 0, 78, 0
2, 37272, Note_on_c, 0, 83, 73
2, 37295, Note_on_c, 0, 83, 0
2, 37296, Note_on_c, 0, 76, 73
2, 37319, Note_on_c, 0, 76, 0
2, 37320, Note_on_c, 0, 79, 73
2, 37343, Note_on_c, 0, 79, 0
2, 37344, Note_on_c, 0, 84, 73
2, 37367, Note_on_c, 0, 84, 0
2, 37368, Note_on_c, 0, 83, 73
2, 37391, Note_on_c, 0, 83, 0
2, 37392, Note_on_c, 0, 81, 73
2, 37415, Note_on_c, 0, 81, 0
2, 37416, Note_on_c, 0, 79, 73
2, 37439, Note_on_c, 0, 79, 0
2, 37440, Note_on_c, 0, 81, 73
2, 37463, Note_on_c, 0, 81, 0
2, 37464, Note_on_c, 0, 69, 73
2, 37487, Note_on_c, 0, 69, 0
2, 37488, Note_on_c, 0, 78, 73
2, 37511, Note_on_c, 0, 78, 0
2, 37512, Note_on_c, 0, 81, 73
2, 37535, Note_on_c, 0, 81, 0
2, 37536, Note_on_c, 0, 76, 73
2, 37559, Note_on_c, 0, 76, 0
2, 37560, Note_on_c, 0, 81, 73
2, 37583, Note_on_c, 0, 81, 0
2, 37584, Note_on_c, 0, 75, 73
2, 37607, Note_on_c, 0, 75, 0
2, 37608, Note_on_c, 0, 78, 73
2, 37631, Note_on_c, 0, 78, 0
2, 37632, Note_on_c, 0, 83, 73
2, 37655, Note_on_c, 0, 83, 0
2, 37656, Note_on_c, 0, 81, 73
2, 37679, Note_on_c, 0, 81, 0
2, 37680, Note_on_c, 0, 79, 73
2, 37703, Note_on_c, 0, 79, 0
2, 37704, Note_on_c, 0, 78, 73
2, 37727, Note_on_c, 0, 78, 0
2, 37728, Note_on_c, 0, 79, 73
2, 37773, Note_on_c, 0, 79, 0
2, 37776, Note_on_c, 0, 83, 73
2, 37788, Note_on_c, 0, 83, 0
2, 37788, Note_on_c, 0, 81, 73
2, 37800, Note_on_c, 0, 81, 0
2, 37800, Note_on_c, 0, 79, 73
2, 37812, Note_on_c, 0, 79, 0
2, 37812, Note_on_c, 0, 81, 73
2, 37824, Note_on_c, 0, 81, 0
2, 37824, Note_on_c, 0, 83, 73
2, 37869, Note_on_c, 0, 83, 0
2, 37872, Note_on_c, 0, 78, 73
2, 37917, Note_on_c, 0, 78, 0
2, 37920, Note_on_c, 0, 78, 73
2, 37965, Note_on_c, 0, 78, 0
2, 37968, Note_on_c, 0, 78, 73
2, 38013, Note_on_c, 0, 78, 0
2, 38016, Note_on_c, 0, 79, 73
2, 38061, Note_on_c, 0, 79, 0
2, 38064, Note_on_c, 0, 83, 73
2, 38076, Note_on_c, 0, 83, 0
2, 38076, Note_on_c, 0, 81, 73
2, 38088, Note_on_c, 0, 81, 0
2, 38088, Note_on_c, 0, 79, 73
2, 38100, Note_on_c, 0, 79, 0
2, 38100, Note_on_c, 0, 81, 73
2, 38112, Note_on_c, 0, 81, 0
2, 38112, Note_on_c, 0, 83, 73
2, 38157, Note_on_c, 0, 83, 0
2, 38160, Note_on_c, 0, 78, 73
2, 38205, Note_on_c, 0, 78, 0
2, 38208, Note_on_c, 0, 78, 73
2, 38253, Note_on_c, 0, 78, 0
2, 38256, Note_on_c, 0, 78, 73
2, 38301, Note_on_c, 0, 78, 0
2, 38304, Note_on_c, 0, 79, 73
2, 38349, Note_on_c, 0, 79, 0
2, 38352, Note_on_c, 0, 83, 73
2, 38364, Note_on_c, 0, 83, 0
2, 38364, Note_on_c, 0, 81, 73
2, 38376, Note_on_c, 0, 81, 0
2, 38376, Note_on_c, 0, 79, 73
2, 38388, Note_on_c, 0, 79, 0
2, 38388, Note_on_c, 0, 81, 73
2, 38400, Note_on_c, 0, 81, 0
2, 38400, Note_on_c, 0, 83, 73
2, 38445, Note_on_c, 0, 83, 0
2, 38448, Note_on_c, 0, 78, 73
2, 38493, Note_on_c, 0, 78, 0
2, 38496, Note_on_c, 0, 78, 73
2, 38541, Note_on_c, 0, 78, 0
2, 38544, Note_on_c, 0, 78, 73
2, 38589, Note_on_c, 0, 78, 0
2, 38592, Note_on_c, 0, 76, 73
2, 38637, Note_on_c, 0, 76, 0
2, 38640, Note_on_c, 0, 76, 73
2, 38685, Note_on_c, 0, 76, 0
2, 38688, Note_on_c, 0, 76, 73
2, 38733, Note_on_c, 0, 76, 0
2, 38736, Note_on_c, 0, 75, 73
2, 38781, Note_on_c, 0, 75, 0
2, 38784, Note_on_c, 0, 75, 73
2, 38829, Note_on_c, 0, 75, 0
2, 38832, Note_on_c, 0, 75, 73
2, 38877, Note_on_c, 0, 75, 0
2, 38880, Note_on_c, 0, 70, 73
2, 38925, Note_on_c, 0, 70, 0
2, 38928, Note_on_c, 0, 70, 73
2, 38973, Note_on_c, 0, 70, 0
2, 38976, Note_on_c, 0, 70, 73
2, 39021, Note_on_c, 0, 70, 0
2, 39048, Note_on_c, 0, 71, 73
2, 39071, Note_on_c, 0, 71, 0
2, 39072, Note_on_c, 0, 73, 73
2, 39095, Note_on_c, 0, 73, 0
2, 39096, Note_on_c, 0, 75, 73
2, 39119, Note_on_c, 0, 75, 0
2, 39120, Note_on_c, 0, 76, 73
2, 39143, Note_on_c, 0, 76, 0
2, 39144, Note_on_c, 0, 78, 73
2, 39167, Note_on_c, 0, 78, 0
2, 39168, Note_on_c, 0, 79, 73
2, 39191, Note_on_c, 0, 79, 0
2, 39192, Note_on_c, 0, 71, 73
2, 39215, Note_on_c, 0, 71, 0
2, 39216, Note_on_c, 0, 73, 73
2, 39239, Note_on_c, 0, 73, 0
2, 39240, Note_on_c, 0, 75, 73
2, 39263, Note_on_c, 0, 75, 0
2, 39264, Note_on_c, 0, 76, 74
2, 39287, Note_on_c, 0, 76, 0
2, 39288, Note_on_c, 0, 78, 74
2, 39311, Note_on_c, 0, 78, 0
2, 39312, Note_on_c, 0, 79, 74
2, 39335, Note_on_c, 0, 79, 0
2, 39336, Note_on_c, 0, 78, 75
2, 39359, Note_on_c, 0, 78, 0
2, 39360, Note_on_c, 0, 76, 75
2, 39383, Note_on_c, 0, 76, 0
2, 39384, Note_on_c, 0, 78, 76
2, 39407, Note_on_c, 0, 78, 0
2, 39408, Note_on_c, 0, 79, 76
2, 39431, Note_on_c, 0, 79, 0
2, 39432, Note_on_c, 0, 81, 76
2, 39455, Note_on_c, 0, 81, 0
2, 39456, Note_on_c, 0, 83, 77
2, 39501, Note_on_c, 0, 83, 0
2, 39504, Note_on_c, 0, 78, 78
2, 39549, Note_on_c, 0, 78, 0
2, 39552, Note_on_c, 0, 75, 78
2, 39597, Note_on_c, 0, 75, 0
2, 39600, Note_on_c, 0, 71, 78
2, 39645, Note_on_c, 0, 71, 0
2, 39648, Note_on_c, 0, 66, 78
2, 39693, Note_on_c, 0, 66, 0
2, 39696, Note_on_c, 0, 63, 78
2, 39741, Note_on_c, 0, 63, 0
2, 39744, Note_on_c, 0, 59, 78
2, 39981, Note_on_c, 0, 59, 0
2, 40080, Note_on_c, 0, 71, 73
2, 40125, Note_on_c, 0, 71, 0
2, 40128, Note_on_c, 0, 69, 73
2, 40173, Note_on_c, 0, 69, 0
2, 40176, Note_on_c, 0, 67, 73
2, 40221, Note_on_c, 0, 67, 0
2, 40224, Note_on_c, 0, 79, 73
2, 40269, Note_on_c, 0, 79, 0
2, 40272, Note_on_c, 0, 76, 73
2, 40317, Note_on_c, 0, 76, 0
2, 40320, Note_on_c, 0, 75, 73
2, 40365, Note_on_c, 0, 75, 0
2, 40368, Note_on_c, 0, 81, 73
2, 40413, Note_on_c, 0, 81, 0
2, 40416, Note_on_c, 0, 79, 73
2, 40461, Note_on_c, 0, 79, 0
2, 40464, Note_on_c, 0, 78, 73
2, 40509, Note_on_c, 0, 78, 0
2, 40512, Note_on_c, 0, 84, 73
2, 40557, Note_on_c, 0, 84, 0
2, 40560, Note_on_c, 0, 81, 73
2, 40605, Note_on_c, 0, 81, 0
2, 40608, Note_on_c, 0, 79, 73
2, 40653, Note_on_c, 0, 79, 0
2, 40656, Note_on_c, 0, 83, 73
2, 40789, Note_on_c, 0, 83, 0
2, 40800, Note_on_c, 0, 81, 73
2, 40941, Note_on_c, 0, 81, 0
2, 40944, Note_on_c, 0, 79, 73
2, 40989, Note_on_c, 0, 79, 0
2, 40992, Note_on_c, 0, 76, 73
2, 41037, Note_on_c, 0, 76, 0
2, 41040, Note_on_c, 0, 76, 73
2, 41085, Note_on_c, 0, 76, 0
2, 41088, Note_on_c, 0, 77, 73
2, 41133, Note_on_c, 0, 77, 0
2, 41136, Note_on_c, 0, 81, 73
2, 41181, Note_on_c, 0, 81, 0
2, 41184, Note_on_c, 0, 76, 73
2, 41373, Note_on_c, 0, 76, 0
2, 41376, Note_on_c, 0, 78, 73
2, 41421, Note_on_c, 0, 78, 0
2, 41424, Note_on_c, 0, 75, 73
2, 41469, Note_on_c, 0, 75, 0
2, 41472, Note_on_c, 0, 76, 73
2, 41605, Note_on_c, 0, 76, 0
2, 41808, Note_on_c, 0, 71, 73
2, 41853, Note_on_c, 0, 71, 0
2, 41856, Note_on_c, 0, 69, 73
2, 41901, Note_on_c, 0, 69, 0
2, 41904, Note_on_c, 0, 67, 73
2, 41949, Note_on_c, 0, 67, 0
2, 41952, Note_on_c, 0, 79, 73
2, 41997, Note_on_c, 0, 79, 0
2, 42000, Note_on_c, 0, 76, 73
2, 42045, Note_on_c, 0, 76, 0
2, 42048, Note_on_c, 0, 75, 73
2, 42093, Note_on_c, 0, 75, 0
2, 42096, Note_on_c, 0, 81, 73
2, 42141, Note_on_c, 0, 81, 0
2, 42144, Note_on_c, 0, 79, 73
2, 42189, Note_on_c, 0, 79, 0
2, 42192, Note_on_c, 0, 78, 73
2, 42237, Note_on_c, 0, 78, 0
2, 42240, Note_on_c, 0, 84, 73
2, 42285, Note_on_c, 0, 84, 0
2, 42288, Note_on_c, 0, 81, 73
2, 42333, Note_on_c, 0, 81, 0
2, 42336, Note_on_c, 0, 79, 73
2, 42381, Note_on_c, 0, 79, 0
2, 42384, Note_on_c, 0, 83, 73
2, 42517, Note_on_c, 0, 83, 0
2, 42528, Note_on_c, 0, 81, 73
2, 42669, Note_on_c, 0, 81, 0
2, 42672, Note_on_c, 0, 79, 73
2, 42761, Note_on_c, 0, 79, 0
2, 42768, Note_on_c, 0, 77, 73
2, 42901, Note_on_c, 0, 77, 0
2, 42912, Note_on_c, 0, 76, 73
2, 43045, Note_on_c, 0, 76, 0
2, 43056, Note_on_c, 0, 74, 73
2, 43189, Note_on_c, 0, 74, 0
2, 43200, Note_on_c, 0, 72, 73
2, 43333, Note_on_c, 0, 72, 0
2, 43344, Note_on_c, 0, 71, 73
2, 43433, Note_on_c, 0, 71, 0
2, 43440, Note_on_c, 0, 76, 73
2, 43485, Note_on_c, 0, 76, 0
2, 43488, Note_on_c, 0, 76, 73
2, 43508, Note_on_c, 0, 76, 0
2, 43536, Note_on_c, 0, 76, 73
2, 43556, Note_on_c, 0, 76, 0
2, 43584, Note_on_c, 0, 76, 73
2, 43604, Note_on_c, 0, 76, 0
2, 43632, Note_on_c, 0, 76, 73
2, 43652, Note_on_c, 0, 76, 0
2, 43680, Note_on_c, 0, 76, 73
2, 43700, Note_on_c, 0, 76, 0
2, 43728, Note_on_c, 0, 76, 73
2, 43748, Note_on_c, 0, 76, 0
2, 43776, Note_on_c, 0, 76, 73
2, 43965, Note_on_c, 0, 76, 0
2, 43968, Note_on_c, 0, 78, 73
2, 44013, Note_on_c, 0, 78, 0
2, 44016, Note_on_c, 0, 75, 73
2, 44061, Note_on_c, 0, 75, 0
2, 44064, Note_on_c, 0, 76, 78
2, 44087, Note_on_c, 0, 76, 0
2, 44088, Note_on_c, 0, 71, 78
2, 44111, Note_on_c, 0, 71, 0
2, 44112, Note_on_c, 0, 67, 78
2, 44135, Note_on_c, 0, 67, 0
2, 44136, Note_on_c, 0, 71, 78
2, 44159, Note_on_c, 0, 71, 0
2, 44160, Note_on_c, 0, 69, 78
2, 44183, Note_on_c, 0, 69, 0
2, 44184, Note_on_c, 0, 71, 78
2, 44207, Note_on_c, 0, 71, 0
2, 44208, Note_on_c, 0, 67, 78
2, 44231, Note_on_c, 0, 67, 0
2, 44232, Note_on_c, 0, 71, 78
2, 44255, Note_on_c, 0, 71, 0
2, 44256, Note_on_c, 0, 76, 78
2, 44279, Note_on_c, 0, 76, 0
2, 44280, Note_on_c, 0, 71, 78
2, 44303, Note_on_c, 0, 71, 0
2, 44304, Note_on_c, 0, 78, 78
2, 44327, Note_on_c, 0, 78, 0
2, 44328, Note_on_c, 0, 71, 78
2, 44351, Note_on_c, 0, 71, 0
2, 44352, Note_on_c, 0, 79, 78
2, 44375, Note_on_c, 0, 79, 0
2, 44376, Note_on_c, 0, 71, 78
2, 44399, Note_on_c, 0, 71, 0
2, 44400, Note_on_c, 0, 67, 78
2, 44423, Note_on_c, 0, 67, 0
2, 44424, Note_on_c, 0, 71, 78
2, 44447, Note_on_c, 0, 71, 0
2, 44448, Note_on_c, 0, 69, 78
2, 44471, Note_on_c, 0, 69, 0
2, 44472, Note_on_c, 0, 71, 78
2, 44495, Note_on_c, 0, 71, 0
2, 44496, Note_on_c, 0, 67, 78
2, 44519, Note_on_c, 0, 67, 0
2, 44520, Note_on_c, 0, 71, 78
2, 44543, Note_on_c, 0, 71, 0
2, 44544, Note_on_c, 0, 76, 78
2, 44567, Note_on_c, 0, 76, 0
2, 44568, Note_on_c, 0, 71, 78
2, 44591, Note_on_c, 0, 71, 0
2, 44592, Note_on_c, 0, 78, 78
2, 44615, Note_on_c, 0, 78, 0
2, 44616, Note_on_c, 0, 71, 78
2, 44639, Note_on_c, 0, 71, 0
2, 44640, Note_on_c, 0, 79, 73
2, 44773, Note_on_c, 0, 79, 0
2, 44784, Note_on_c, 0, 77, 73
2, 44917, Note_on_c, 0, 77, 0
2, 44928, Note_on_c, 0, 76, 78
2, 44951, Note_on_c, 0, 76, 0
2, 44952, Note_on_c, 0, 79, 78
2, 44975, Note_on_c, 0, 79, 0
2, 44976, Note_on_c, 0, 76, 78
2, 44999, Note_on_c, 0, 76, 0
2, 45000, Note_on_c, 0, 79, 78
2, 45023, Note_on_c, 0, 79, 0
2, 45024, Note_on_c, 0, 77, 78
2, 45047, Note_on_c, 0, 77, 0
2, 45048, Note_on_c, 0, 79, 78
2, 45071, Note_on_c, 0, 79, 0
2, 45072, Note_on_c, 0, 76, 78
2, 45095, Note_on_c, 0, 76, 0
2, 45096, Note_on_c, 0, 79, 78
2, 45119, Note_on_c, 0, 79, 0
2, 45120, Note_on_c, 0, 84, 78
2, 45143, Note_on_c, 0, 84, 0
2, 45144, Note_on_c, 0, 79, 78
2, 45167, Note_on_c, 0, 79, 0
2, 45168, Note_on_c, 0, 86, 78
2, 45191, Note_on_c, 0, 86, 0
2, 45192, Note_on_c, 0, 79, 78
2, 45215, Note_on_c, 0, 79, 0
2, 45216, Note_on_c, 0, 88, 78
2, 45239, Note_on_c, 0, 88, 0
2, 45240, Note_on_c, 0, 79, 78
2, 45263, Note_on_c, 0, 79, 0
2, 45264, Note_on_c, 0, 76, 78
2, 45287, Note_on_c, 0, 76, 0
2, 45288, Note_on_c, 0, 79, 78
2, 45311, Note_on_c, 0, 79, 0
2, 45312, Note_on_c, 0, 77, 78
2, 45335, Note_on_c, 0, 77, 0
2, 45336, Note_on_c, 0, 79, 78
2, 45359, Note_on_c, 0, 79, 0
2, 45360, Note_on_c, 0, 88, 78
2, 45383, Note_on_c, 0, 88, 0
2, 45384, Note_on_c, 0, 79, 78
2, 45407, Note_on_c, 0, 79, 0
2, 45408, Note_on_c, 0, 84, 78
2, 45431, Note_on_c, 0, 84, 0
2, 45432, Note_on_c, 0, 79, 78
2, 45455, Note_on_c, 0, 79, 0
2, 45456, Note_on_c, 0, 86, 78
2, 45479, Note_on_c, 0, 86, 0
2, 45480, Note_on_c, 0, 79, 78
2, 45503, Note_on_c, 0, 79, 0
2, 45504, Note_on_c, 0, 88, 73
2, 45549, Note_on_c, 0, 88, 0
2, 45552, Note_on_c, 0, 81, 73
2, 45597, Note_on_c, 0, 81, 0
2, 45600, Note_on_c, 0, 81, 73
2, 45645, Note_on_c, 0, 81, 0
2, 45648, Note_on_c, 0, 86, 73
2, 45693, Note_on_c, 0, 86, 0
2, 45696, Note_on_c, 0, 80, 73
2, 45741, Note_on_c, 0, 80, 0
2, 45744, Note_on_c, 0, 80, 73
2, 45789, Note_on_c, 0, 80, 0
2, 45792, Note_on_c, 0, 84, 73
2, 45837, Note_on_c, 0, 84, 0
2, 45840, Note_on_c, 0, 77, 73
2, 45885, Note_on_c, 0, 77, 0
2, 45888, Note_on_c, 0, 77, 73
2, 45933, Note_on_c, 0, 77, 0
2, 45936, Note_on_c, 0, 83, 73
2, 45981, Note_on_c, 0, 83, 0
2, 45984, Note_on_c, 0, 76, 73
2, 46029, Note_on_c, 0, 76, 0
2, 46032, Note_on_c, 0, 76, 73
2, 46077, Note_on_c, 0, 76, 0
2, 46080, Note_on_c, 0, 81, 73
2, 46125, Note_on_c, 0, 81, 0
2, 46128, Note_on_c, 0, 75, 73
2, 46173, Note_on_c, 0, 75, 0
2, 46176, Note_on_c, 0, 75, 73
2, 46221, Note_on_c, 0, 75, 0
2, 46224, Note_on_c, 0, 79, 73
2, 46269, Note_on_c, 0, 79, 0
2, 46272, Note_on_c, 0, 70, 73
2, 46317, Note_on_c, 0, 70, 0
2, 46320, Note_on_c, 0, 70, 73
2, 46365, Note_on_c, 0, 70, 0
2, 46368, Note_on_c, 0, 78, 73
2, 46413, Note_on_c, 0, 78, 0
2, 46416, Note_on_c, 0, 71, 73
2, 46461, Note_on_c, 0, 71, 0
2, 46464, Note_on_c, 0, 71, 73
2, 46509, Note_on_c, 0, 71, 0
2, 46512, Note_on_c, 0, 81, 73
2, 46557, Note_on_c, 0, 81, 0
2, 46560, Note_on_c, 0, 69, 73
2, 46605, Note_on_c, 0, 69, 0
2, 46608, Note_on_c, 0, 69, 73
2, 46653, Note_on_c, 0, 69, 0
2, 46656, Note_on_c, 0, 79, 78
2, 46679, Note_on_c, 0, 79, 0
2, 46680, Note_on_c, 0, 71, 78
2, 46703, Note_on_c, 0, 71, 0
2, 46704, Note_on_c, 0, 67, 78
2, 46727, Note_on_c, 0, 67, 0
2, 46728, Note_on_c, 0, 71, 78
2, 46751, Note_on_c, 0, 71, 0
2, 46752, Note_on_c, 0, 69, 78
2, 46775, Note_on_c, 0, 69, 0
2, 46776, Note_on_c, 0, 71, 78
2, 46799, Note_on_c, 0, 71, 0
2, 46800, Note_on_c, 0, 67, 78
2, 46823, Note_on_c, 0, 67, 0
2, 46824, Note_on_c, 0, 71, 78
2, 46847, Note_on_c, 0, 71, 0
2, 46848, Note_on_c, 0, 76, 78
2, 46871, Note_on_c, 0, 76, 0
2, 46872, Note_on_c, 0, 71, 78
2, 46895, Note_on_c, 0, 71, 0
2, 46896, Note_on_c, 0, 78, 78
2, 46919, Note_on_c, 0, 78, 0
2, 46920, Note_on_c, 0, 71, 78
2, 46943, Note_on_c, 0, 71, 0
2, 46944, Note_on_c, 0, 79, 78
2, 46967, Note_on_c, 0, 79, 0
2, 46968, Note_on_c, 0, 71, 78
2, 46991, Note_on_c, 0, 71, 0
2, 46992, Note_on_c, 0, 67, 78
2, 47015, Note_on_c, 0, 67, 0
2, 47016, Note_on_c, 0, 71, 78
2, 47039, Note_on_c, 0, 71, 0
2, 47040, Note_on_c, 0, 69, 78
2, 47063, Note_on_c, 0, 69, 0
2, 47064, Note_on_c, 0, 71, 78
2, 47087, Note_on_c, 0, 71, 0
2, 47088, Note_on_c, 0, 67, 78
2, 47111, Note_on_c, 0, 67, 0
2, 47112, Note_on_c, 0, 71, 78
2, 47135, Note_on_c, 0, 71, 0
2, 47136, Note_on_c, 0, 76, 78
2, 47159, Note_on_c, 0, 76, 0
2, 47160, Note_on_c, 0, 71, 78
2, 47183, Note_on_c, 0, 71, 0
2, 47184, Note_on_c, 0, 78, 78
2, 47207, Note_on_c, 0, 78, 0
2, 47208, Note_on_c, 0, 71, 78
2, 47231, Note_on_c, 0, 71, 0
2, 47232, Note_on_c, 0, 79, 78
2, 47255, Note_on_c, 0, 79, 0
2, 47256, Note_on_c, 0, 71, 78
2, 47279, Note_on_c, 0, 71, 0
2, 47280, Note_on_c, 0, 67, 78
2, 47303, Note_on_c, 0, 67, 0
2, 47304, Note_on_c, 0, 71, 78
2, 47327, Note_on_c, 0, 71, 0
2, 47328, Note_on_c, 0, 67, 78
2, 47351, Note_on_c, 0, 67, 0
2, 47352, Note_on_c, 0, 71, 78
2, 47375, Note_on_c, 0, 71, 0
2, 47376, Note_on_c, 0, 76, 78
2, 47399, Note_on_c, 0, 76, 0
2, 47400, Note_on_c, 0, 72, 78
2, 47423, Note_on_c, 0, 72, 0
2, 47424, Note_on_c, 0, 67, 78
2, 47447, Note_on_c, 0, 67, 0
2, 47448, Note_on_c, 0, 72, 78
2, 47471, Note_on_c, 0, 72, 0
2, 47472, Note_on_c, 0, 67, 78
2, 47495, Note_on_c, 0, 67, 0
2, 47496, Note_on_c, 0, 72, 78
2, 47519, Note_on_c, 0, 72, 0
2, 47520, Note_on_c, 0, 66, 78
2, 47543, Note_on_c, 0, 66, 0
2, 47544, Note_on_c, 0, 72, 78
2, 47567, Note_on_c, 0, 72, 0
2, 47568, Note_on_c, 0, 76, 78
2, 47591, Note_on_c, 0, 76, 0
2, 47592, Note_on_c, 0, 72, 78
2, 47615, Note_on_c, 0, 72, 0
2, 47616, Note_on_c, 0, 76, 78
2, 47639, Note_on_c, 0, 76, 0
2, 47640, Note_on_c, 0, 72, 78
2, 47663, Note_on_c, 0, 72, 0
2, 47664, Note_on_c, 0, 66, 78
2, 47687, Note_on_c, 0, 66, 0
2, 47688, Note_on_c, 0, 71, 78
2, 47711, Note_on_c, 0, 71, 0
2, 47712, Note_on_c, 0, 75, 78
2, 47735, Note_on_c, 0, 75, 0
2, 47736, Note_on_c, 0, 71, 78
2, 47759, Note_on_c, 0, 71, 0
2, 47760, Note_on_c, 0, 75, 78
2, 47783, Note_on_c, 0, 75, 0
2, 47784, Note_on_c, 0, 71, 78
2, 47807, Note_on_c, 0, 71, 0
2, 47808, Note_on_c, 0, 79, 78
2, 47831, Note_on_c, 0, 79, 0
2, 47832, Note_on_c, 0, 71, 78
2, 47855, Note_on_c, 0, 71, 0
2, 47856, Note_on_c, 0, 67, 78
2, 47879, Note_on_c, 0, 67, 0
2, 47880, Note_on_c, 0, 71, 78
2, 47903, Note_on_c, 0, 71, 0
2, 47904, Note_on_c, 0, 67, 78
2, 47927, Note_on_c, 0, 67, 0
2, 47928, Note_on_c, 0, 71, 78
2, 47951, Note_on_c, 0, 71, 0
2, 47952, Note_on_c, 0, 76, 78
2, 47975, Note_on_c, 0, 76, 0
2, 47976, Note_on_c, 0, 72, 78
2, 47999, Note_on_c, 0, 72, 0
2, 48000, Note_on_c, 0, 67, 78
2, 48023, Note_on_c, 0, 67, 0
2, 48024, Note_on_c, 0, 72, 78
2, 48047, Note_on_c, 0, 72, 0
2, 48048, Note_on_c, 0, 67, 78
2, 48071, Note_on_c, 0, 67, 0
2, 48072, Note_on_c, 0, 72, 78
2, 48095, Note_on_c, 0, 72, 0
2, 48096, Note_on_c, 0, 66, 78
2, 48119, Note_on_c, 0, 66, 0
2, 48120, Note_on_c, 0, 72, 78
2, 48143, Note_on_c, 0, 72, 0
2, 48144, Note_on_c, 0, 76, 78
2, 48167, Note_on_c, 0, 76, 0
2, 48168, Note_on_c, 0, 72, 78
2, 48191, Note_on_c, 0, 72, 0
2, 48192, Note_on_c, 0, 76, 78
2, 48215, Note_on_c, 0, 76, 0
2, 48216, Note_on_c, 0, 72, 78
2, 48239, Note_on_c, 0, 72, 0
2, 48240, Note_on_c, 0, 66, 78
2, 48263, Note_on_c, 0, 66, 0
2, 48264, Note_on_c, 0, 71, 78
2, 48287, Note_on_c, 0, 71, 0
2, 48288, Note_on_c, 0, 75, 78
2, 48311, Note_on_c, 0, 75, 0
2, 48312, Note_on_c, 0, 71, 78
2, 48335, Note_on_c, 0, 71, 0
2, 48336, Note_on_c, 0, 75, 78
2, 48359, Note_on_c, 0, 75, 0
2, 48360, Note_on_c, 0, 71, 78
2, 48383, Note_on_c, 0, 71, 0
2, 48576, Note_on_c, 0, 67, 65
2, 48576, Note_on_c, 0, 59, 65
2, 48624, Note_on_c, 0, 67, 0
2, 48624, Note_on_c, 0, 59, 0
2, 48624, Note_on_c, 0, 63, 65
2, 48624, Note_on_c, 0, 57, 65
2, 48669, Note_on_c, 0, 63, 0
2, 48669, Note_on_c, 0, 57, 0
2, 48672, Note_on_c, 0, 64, 65
2, 48672, Note_on_c, 0, 55, 65
2, 48717, Note_on_c, 0, 64, 0
2, 48717, Note_on_c, 0, 55, 0
2, 48864, Note_on_c, 0, 71, 65
2, 48864, Note_on_c, 0, 67, 65
2, 48912, Note_on_c, 0, 71, 0
2, 48912, Note_on_c, 0, 67, 0
2, 48912, Note_on_c, 0, 69, 65
2, 48912, Note_on_c, 0, 66, 65
2, 48957, Note_on_c, 0, 69, 0
2, 48957, Note_on_c, 0, 66, 0
2, 48960, Note_on_c, 0, 67, 65
2, 48960, Note_on_c, 0, 64, 65
2, 49005, Note_on_c, 0, 67, 0
2, 49005, Note_on_c, 0, 64, 0
2, 49152, Note_on_c, 0, 83, 65
2, 49152, Note_on_c, 0, 79, 65
2, 49200, Note_on_c, 0, 83, 0
2, 49200, Note_on_c, 0, 79, 0
2, 49200, Note_on_c, 0, 81, 65
2, 49200, Note_on_c, 0, 78, 65
2, 49245, Note_on_c, 0, 81, 0
2, 49245, Note_on_c, 0, 78, 0
2, 49248, Note_on_c, 0, 79, 65
2, 49248, Note_on_c, 0, 76, 65
2, 49268, Note_on_c, 0, 79, 0
2, 49268, Note_on_c, 0, 76, 0
2, 49296, Note_on_c, 0, 88, 60
2, 49296, Note_on_c, 0, 76, 60
2, 49316, Note_on_c, 0, 88, 0
2, 49316, Note_on_c, 0, 76, 0
2, 49344, Note_on_c, 0, 88, 60
2, 49344, Note_on_c, 0, 76, 60
2, 49364, Note_on_c, 0, 88, 0
2, 49364, Note_on_c, 0, 76, 0
2, 49392, Note_on_c, 0, 88, 60
2, 49392, Note_on_c, 0, 76, 60
2, 49412, Note_on_c, 0, 88, 0
2, 49412, Note_on_c, 0, 76, 0
2, 49728, Note_on_c, 0, 64, 65
2, 49728, Note_on_c, 0, 56, 65
2, 49776, Note_on_c, 0, 64, 0
2, 49776, Note_on_c, 0, 56, 0
2, 49776, Note_on_c, 0, 62, 65
2, 49776, Note_on_c, 0, 59, 65
2, 49821, Note_on_c, 0, 62, 0
2, 49821, Note_on_c, 0, 59, 0
2, 49824, Note_on_c, 0, 60, 65
2, 49824, Note_on_c, 0, 57, 65
2, 49869, Note_on_c, 0, 60, 0
2, 49869, Note_on_c, 0, 57, 0
2, 50016, Note_on_c, 0, 72, 65
2, 50016, Note_on_c, 0, 64, 65
2, 50064, Note_on_c, 0, 72, 0
2, 50064, Note_on_c, 0, 64, 0
2, 50064, Note_on_c, 0, 69, 65
2, 50064, Note_on_c, 0, 60, 65
2, 50109, Note_on_c, 0, 69, 0
2, 50109, Note_on_c, 0, 60, 0
2, 50112, Note_on_c, 0, 68, 65
2, 50112, Note_on_c, 0, 59, 65
2, 50157, Note_on_c, 0, 68, 0
2, 50157, Note_on_c, 0, 59, 0
2, 50304, Note_on_c, 0, 76, 65
2, 50304, Note_on_c, 0, 68, 65
2, 50352, Note_on_c, 0, 76, 0
2, 50352, Note_on_c, 0, 68, 0
2, 50352, Note_on_c, 0, 74, 65
2, 50352, Note_on_c, 0, 71, 65
2, 50397, Note_on_c, 0, 74, 0
2, 50397, Note_on_c, 0, 71, 0
2, 50400, Note_on_c, 0, 72, 65
2, 50400, Note_on_c, 0, 69, 65
2, 50445, Note_on_c, 0, 72, 0
2, 50445, Note_on_c, 0, 69, 0
2, 50592, Note_on_c, 0, 81, 65
2, 50592, Note_on_c, 0, 72, 65
2, 50640, Note_on_c, 0, 81, 0
2, 50640, Note_on_c, 0, 72, 0
2, 50640, Note_on_c, 0, 75, 65
2, 50640, Note_on_c, 0, 69, 65
2, 50685, Note_on_c, 0, 75, 0
2, 50685, Note_on_c, 0, 69, 0
2, 50688, Note_on_c, 0, 76, 65
2, 50688, Note_on_c, 0, 68, 65
2, 50733, Note_on_c, 0, 76, 0
2, 50733, Note_on_c, 0, 68, 0
2, 51144, Note_on_c, 0, 67, 78
2, 51167, Note_on_c, 0, 67, 0
2, 51168, Note_on_c, 0, 79, 78
2, 51191, Note_on_c, 0, 79, 0
2, 51192, Note_on_c, 0, 76, 78
2, 51215, Note_on_c, 0, 76, 0
2, 51216, Note_on_c, 0, 74, 78
2, 51239, Note_on_c, 0, 74, 0
2, 51240, Note_on_c, 0, 72, 78
2, 51263, Note_on_c, 0, 72, 0
2, 51264, Note_on_c, 0, 71, 78
2, 51309, Note_on_c, 0, 71, 0
2, 51432, Note_on_c, 0, 67, 78
2, 51455, Note_on_c, 0, 67, 0
2, 51456, Note_on_c, 0, 79, 78
2, 51479, Note_on_c, 0, 79, 0
2, 51480, Note_on_c, 0, 77, 78
2, 51503, Note_on_c, 0, 77, 0
2, 51504, Note_on_c, 0, 76, 78
2, 51527, Note_on_c, 0, 76, 0
2, 51528, Note_on_c, 0, 74, 78
2, 51551, Note_on_c, 0, 74, 0
2, 51552, Note_on_c, 0, 76, 69
2, 51641, Note_on_c, 0, 76, 0
2, 51720, Note_on_c, 0, 67, 69
2, 51743, Note_on_c, 0, 67, 0
2, 51744, Note_on_c, 0, 79, 69
2, 51767, Note_on_c, 0, 79, 0
2, 51768, Note_on_c, 0, 76, 69
2, 51791, Note_on_c, 0, 76, 0
2, 51792, Note_on_c, 0, 74, 69
2, 51815, Note_on_c, 0, 74, 0
2, 51816, Note_on_c, 0, 72, 69
2, 51839, Note_on_c, 0, 72, 0
2, 51840, Note_on_c, 0, 72, 69
2, 51936, Note_on_c, 0, 72, 0
2, 51936, Note_on_c, 0, 71, 69
2, 51981, Note_on_c, 0, 71, 0
2, 52008, Note_on_c, 0, 67, 70
2, 52031, Note_on_c, 0, 67, 0
2, 52032, Note_on_c, 0, 79, 70
2, 52055, Note_on_c, 0, 79, 0
2, 52056, Note_on_c, 0, 77, 70
2, 52079, Note_on_c, 0, 77, 0
2, 52080, Note_on_c, 0, 76, 70
2, 52103, Note_on_c, 0, 76, 0
2, 52104, Note_on_c, 0, 74, 70
2, 52127, Note_on_c, 0, 74, 0
2, 52128, Note_on_c, 0, 74, 70
2, 52224, Note_on_c, 0, 74, 0
2, 52224, Note_on_c, 0, 73, 71
2, 52269, Note_on_c, 0, 73, 0
2, 52296, Note_on_c, 0, 82, 71
2, 52319, Note_on_c, 0, 82, 0
2, 52320, Note_on_c, 0, 81, 71
2, 52343, Note_on_c, 0, 81, 0
2, 52344, Note_on_c, 0, 79, 71
2, 52367, Note_on_c, 0, 79, 0
2, 52368, Note_on_c, 0, 77, 71
2, 52391, Note_on_c, 0, 77, 0
2, 52392, Note_on_c, 0, 76, 71
2, 52415, Note_on_c, 0, 76, 0
2, 52416, Note_on_c, 0, 76, 71
2, 52512, Note_on_c, 0, 76, 0
2, 52512, Note_on_c, 0, 74, 72
2, 52557, Note_on_c, 0, 74, 0
2, 52584, Note_on_c, 0, 69, 72
2, 52607, Note_on_c, 0, 69, 0
2, 52608, Note_on_c, 0, 81, 72
2, 52631, Note_on_c, 0, 81, 0
2, 52632, Note_on_c, 0, 77, 72
2, 52655, Note_on_c, 0, 77, 0
2, 52656, Note_on_c, 0, 76, 72
2, 52679, Note_on_c, 0, 76, 0
2, 52680, Note_on_c, 0, 74, 72
2, 52703, Note_on_c, 0, 74, 0
2, 52704, Note_on_c, 0, 74, 72
2, 52800, Note_on_c, 0, 74, 0
2, 52800, Note_on_c, 0, 73, 73
2, 52845, Note_on_c, 0, 73, 0
2, 52872, Note_on_c, 0, 82, 73
2, 52895, Note_on_c, 0, 82, 0
2, 52896, Note_on_c, 0, 81, 73
2, 52919, Note_on_c, 0, 81, 0
2, 52920, Note_on_c, 0, 79, 73
2, 52943, Note_on_c, 0, 79, 0
2, 52944, Note_on_c, 0, 77, 73
2, 52967, Note_on_c, 0, 77, 0
2, 52968, Note_on_c, 0, 76, 74
2, 52991, Note_on_c, 0, 76, 0
2, 52992, Note_on_c, 0, 76, 74
2, 53088, Note_on_c, 0, 76, 0
2, 53088, Note_on_c, 0, 75, 74
2, 53133, Note_on_c, 0, 75, 0
2, 53160, Note_on_c, 0, 84, 74
2, 53183, Note_on_c, 0, 84, 0
2, 53184, Note_on_c, 0, 83, 74
2, 53207, Note_on_c, 0, 83, 0
2, 53208, Note_on_c, 0, 81, 75
2, 53231, Note_on_c, 0, 81, 0
2, 53232, Note_on_c, 0, 79, 75
2, 53255, Note_on_c, 0, 79, 0
2, 53256, Note_on_c, 0, 78, 75
2, 53279, Note_on_c, 0, 78, 0
2, 53280, Note_on_c, 0, 78, 75
2, 53376, Note_on_c, 0, 78, 0
2, 53376, Note_on_c, 0, 76, 75
2, 53421, Note_on_c, 0, 76, 0
2, 53448, Note_on_c, 0, 71, 75
2, 53471, Note_on_c, 0, 71, 0
2, 53472, Note_on_c, 0, 83, 76
2, 53495, Note_on_c, 0, 83, 0
2, 53496, Note_on_c, 0, 79, 76
2, 53519, Note_on_c, 0, 79, 0
2, 53520, Note_on_c, 0, 78, 76
2, 53543, Note_on_c, 0, 78, 0
2, 53544, Note_on_c, 0, 76, 76
2, 53567, Note_on_c, 0, 76, 0
2, 53568, Note_on_c, 0, 83, 76
2, 53664, Note_on_c, 0, 83, 0
2, 53664, Note_on_c, 0, 82, 76
2, 53709, Note_on_c, 0, 82, 0
2, 53736, Note_on_c, 0, 79, 77
2, 53759, Note_on_c, 0, 79, 0
2, 53760, Note_on_c, 0, 78, 77
2, 53783, Note_on_c, 0, 78, 0
2, 53784, Note_on_c, 0, 76, 77
2, 53807, Note_on_c, 0, 76, 0
2, 53808, Note_on_c, 0, 74, 77
2, 53831, Note_on_c, 0, 74, 0
2, 53832, Note_on_c, 0, 73, 77
2, 53855, Note_on_c, 0, 73, 0
2, 53856, Note_on_c, 0, 76, 77
2, 53952, Note_on_c, 0, 76, 0
2, 53952, Note_on_c, 0, 74, 78
2, 53997, Note_on_c, 0, 74, 0
2, 54024, Note_on_c, 0, 74, 78
2, 54047, Note_on_c, 0, 74, 0
2, 54048, Note_on_c, 0, 78, 78
2, 54071, Note_on_c, 0, 78, 0
2, 54072, Note_on_c, 0, 74, 78
2, 54095, Note_on_c, 0, 74, 0
2, 54096, Note_on_c, 0, 73, 78
2, 54119, Note_on_c, 0, 73, 0
2, 54120, Note_on_c, 0, 71, 78
2, 54143, Note_on_c, 0, 71, 0
2, 54144, Note_on_c, 0, 71, 78
2, 54240, Note_on_c, 0, 71, 0
2, 54240, Note_on_c, 0, 70, 78
2, 54285, Note_on_c, 0, 70, 0
2, 54312, Note_on_c, 0, 79, 78
2, 54335, Note_on_c, 0, 79, 0
2, 54336, Note_on_c, 0, 78, 78
2, 54359, Note_on_c, 0, 78, 0
2, 54360, Note_on_c, 0, 76, 78
2, 54383, Note_on_c, 0, 76, 0
2, 54384, Note_on_c, 0, 74, 78
2, 54407, Note_on_c, 0, 74, 0
2, 54408, Note_on_c, 0, 73, 78
2, 54431, Note_on_c, 0, 73, 0
2, 54432, Note_on_c, 0, 76, 78
2, 54528, Note_on_c, 0, 76, 0
2, 54528, Note_on_c, 0, 74, 78
2, 54573, Note_on_c, 0, 74, 0
2, 54600, Note_on_c, 0, 83, 78
2, 54623, Note_on_c, 0, 83, 0
2, 54624, Note_on_c, 0, 82, 78
2, 54647, Note_on_c, 0, 82, 0
2, 54648, Note_on_c, 0, 83, 78
2, 54671, Note_on_c, 0, 83, 0
2, 54672, Note_on_c, 0, 86, 78
2, 54695, Note_on_c, 0, 86, 0
2, 54696, Note_on_c, 0, 83, 78
2, 54719, Note_on_c, 0, 83, 0
2, 54720, Note_on_c, 0, 79, 73
2, 54743, Note_on_c, 0, 79, 0
2, 54744, Note_on_c, 0, 83, 73
2, 54767, Note_on_c, 0, 83, 0
2, 54768, Note_on_c, 0, 78, 73
2, 54791, Note_on_c, 0, 78, 0
2, 54792, Note_on_c, 0, 83, 73
2, 54815, Note_on_c, 0, 83, 0
2, 54816, Note_on_c, 0, 76, 73
2, 54839, Note_on_c, 0, 76, 0
2, 54840, Note_on_c, 0, 83, 73
2, 54863, Note_on_c, 0, 83, 0
2, 54864, Note_on_c, 0, 74, 73
2, 54887, Note_on_c, 0, 74, 0
2, 54888, Note_on_c, 0, 83, 73
2, 54911, Note_on_c, 0, 83, 0
2, 54912, Note_on_c, 0, 82, 73
2, 54935, Note_on_c, 0, 82, 0
2, 54936, Note_on_c, 0, 83, 73
2, 54959, Note_on_c, 0, 83, 0
2, 54960, Note_on_c, 0, 86, 73
2, 54983, Note_on_c, 0, 86, 0
2, 54984, Note_on_c, 0, 83, 73
2, 55007, Note_on_c, 0, 83, 0
2, 55008, Note_on_c, 0, 76, 73
2, 55031, Note_on_c, 0, 76, 0
2, 55032, Note_on_c, 0, 83, 73
2, 55055, Note_on_c, 0, 83, 0
2, 55056, Note_on_c, 0, 74, 73
2, 55079, Note_on_c, 0, 74, 0
2, 55080, Note_on_c, 0, 83, 73
2, 55103, Note_on_c, 0, 83, 0
2, 55104, Note_on_c, 0, 73, 73
2, 55127, Note_on_c, 0, 73, 0
2, 55128, Note_on_c, 0, 83, 73
2, 55151, Note_on_c, 0, 83, 0
2, 55152, Note_on_c, 0, 71, 73
2, 55175, Note_on_c, 0, 71, 0
2, 55176, Note_on_c, 0, 83, 73
2, 55199, Note_on_c, 0, 83, 0
2, 55200, Note_on_c, 0, 82, 73
2, 55223, Note_on_c, 0, 82, 0
2, 55224, Note_on_c, 0, 83, 73
2, 55247, Note_on_c, 0, 83, 0
2, 55248, Note_on_c, 0, 86, 73
2, 55271, Note_on_c, 0, 86, 0
2, 55272, Note_on_c, 0, 83, 73
2, 55295, Note_on_c, 0, 83, 0
2, 55296, Note_on_c, 0, 79, 73
2, 55319, Note_on_c, 0, 79, 0
2, 55320, Note_on_c, 0, 83, 73
2, 55343, Note_on_c, 0, 83, 0
2, 55344, Note_on_c, 0, 78, 73
2, 55367, Note_on_c, 0, 78, 0
2, 55368, Note_on_c, 0, 83, 73
2, 55391, Note_on_c, 0, 83, 0
2, 55392, Note_on_c, 0, 76, 73
2, 55415, Note_on_c, 0, 76, 0
2, 55416, Note_on_c, 0, 83, 73
2, 55439, Note_on_c, 0, 83, 0
2, 55440, Note_on_c, 0, 74, 73
2, 55463, Note_on_c, 0, 74, 0
2, 55464, Note_on_c, 0, 83, 73
2, 55487, Note_on_c, 0, 83, 0
2, 55488, Note_on_c, 0, 82, 73
2, 55511, Note_on_c, 0, 82, 0
2, 55512, Note_on_c, 0, 83, 73
2, 55535, Note_on_c, 0, 83, 0
2, 55536, Note_on_c, 0, 86, 73
2, 55559, Note_on_c, 0, 86, 0
2, 55560, Note_on_c, 0, 83, 73
2, 55583, Note_on_c, 0, 83, 0
2, 55584, Note_on_c, 0, 76, 73
2, 55607, Note_on_c, 0, 76, 0
2, 55608, Note_on_c, 0, 83, 73
2, 55631, Note_on_c, 0, 83, 0
2, 55632, Note_on_c, 0, 74, 73
2, 55655, Note_on_c, 0, 74, 0
2, 55656, Note_on_c, 0, 83, 73
2, 55679, Note_on_c, 0, 83, 0
2, 55680, Note_on_c, 0, 73, 73
2, 55703, Note_on_c, 0, 73, 0
2, 55704, Note_on_c, 0, 83, 73
2, 55727, Note_on_c, 0, 83, 0
2, 55728, Note_on_c, 0, 71, 73
2, 55817, Note_on_c, 0, 71, 0
2, 55824, Note_on_c, 0, 83, 73
2, 55869, Note_on_c, 0, 83, 0
2, 55872, Note_on_c, 0, 73, 73
2, 55961, Note_on_c, 0, 73, 0
2, 55968, Note_on_c, 0, 79, 73
2, 56013, Note_on_c, 0, 79, 0
2, 56016, Note_on_c, 0, 78, 73
2, 56105, Note_on_c, 0, 78, 0
2, 56112, Note_on_c, 0, 76, 73
2, 56157, Note_on_c, 0, 76, 0
2, 56160, Note_on_c, 0, 76, 73
2, 56249, Note_on_c, 0, 76, 0
2, 56256, Note_on_c, 0, 74, 73
2, 56301, Note_on_c, 0, 74, 0
2, 56304, Note_on_c, 0, 71, 73
2, 56393, Note_on_c, 0, 71, 0
2, 56400, Note_on_c, 0, 83, 73
2, 56445, Note_on_c, 0, 83, 0
2, 56448, Note_on_c, 0, 73, 73
2, 56537, Note_on_c, 0, 73, 0
2, 56544, Note_on_c, 0, 79, 73
2, 56589, Note_on_c, 0, 79, 0
2, 56640, Note_on_c, 0, 78, 73
2, 56685, Note_on_c, 0, 78, 0
2, 56688, Note_on_c, 0, 70, 73
2, 56733, Note_on_c, 0, 70, 0
2, 56736, Note_on_c, 0, 71, 73
2, 56756, Note_on_c, 0, 71, 0
2, 56784, Note_on_c, 0, 74, 73
2, 56804, Note_on_c, 0, 74, 0
2, 56832, Note_on_c, 0, 78, 73
2, 56852, Note_on_c, 0, 78, 0
2, 56880, Note_on_c, 0, 83, 73
2, 56900, Note_on_c, 0, 83, 0
2, 57024, Note_on_c, 0, 71, 73
2, 57044, Note_on_c, 0, 71, 0
2, 57072, Note_on_c, 0, 74, 73
2, 57092, Note_on_c, 0, 74, 0
2, 57120, Note_on_c, 0, 78, 73
2, 57140, Note_on_c, 0, 78, 0
2, 57168, Note_on_c, 0, 83, 73
2, 57188, Note_on_c, 0, 83, 0
2, 57312, Note_on_c, 0, 71, 73
2, 57332, Note_on_c, 0, 71, 0
2, 57360, Note_on_c, 0, 74, 73
2, 57380, Note_on_c, 0, 74, 0
2, 57408, Note_on_c, 0, 79, 73
2, 57428, Note_on_c, 0, 79, 0
2, 57456, Note_on_c, 0, 83, 73
2, 57476, Note_on_c, 0, 83, 0
2, 57600, Note_on_c, 0, 71, 73
2, 57620, Note_on_c, 0, 71, 0
2, 57648, Note_on_c, 0, 76, 73
2, 57668, Note_on_c, 0, 76, 0
2, 57696, Note_on_c, 0, 79, 73
2, 57716, Note_on_c, 0, 79, 0
2, 57744, Note_on_c, 0, 83, 73
2, 57764, Note_on_c, 0, 83, 0
2, 57888, Note_on_c, 0, 72, 73
2, 57908, Note_on_c, 0, 72, 0
2, 57936, Note_on_c, 0, 76, 73
2, 57956, Note_on_c, 0, 76, 0
2, 57984, Note_on_c, 0, 79, 73
2, 58004, Note_on_c, 0, 79, 0
2, 58032, Note_on_c, 0, 84, 73
2, 58052, Note_on_c, 0, 84, 0
2, 58176, Note_on_c, 0, 72, 73
2, 58196, Note_on_c, 0, 72, 0
2, 58224, Note_on_c, 0, 76, 73
2, 58244, Note_on_c, 0, 76, 0
2, 58272, Note_on_c, 0, 81, 73
2, 58292, Note_on_c, 0, 81, 0
2, 58320, Note_on_c, 0, 84, 73
2, 58340, Note_on_c, 0, 84, 0
2, 58464, Note_on_c, 0, 72, 73
2, 58484, Note_on_c, 0, 72, 0
2, 58512, Note_on_c, 0, 78, 73
2, 58532, Note_on_c, 0, 78, 0
2, 58560, Note_on_c, 0, 81, 73
2, 58580, Note_on_c, 0, 81, 0
2, 58608, Note_on_c, 0, 84, 73
2, 58628, Note_on_c, 0, 84, 0
2, 58752, Note_on_c, 0, 71, 71
2, 58772, Note_on_c, 0, 71, 0
2, 58800, Note_on_c, 0, 75, 71
2, 58820, Note_on_c, 0, 75, 0
2, 58848, Note_on_c, 0, 78, 70
2, 58868, Note_on_c, 0, 78, 0
2, 58896, Note_on_c, 0, 83, 70
2, 59029, Note_on_c, 0, 83, 0
2, 59232, Note_on_c, 0, 67, 65
2, 59232, Note_on_c, 0, 59, 65
2, 59280, Note_on_c, 0, 67, 0
2, 59280, Note_on_c, 0, 59, 0
2, 59280, Note_on_c, 0, 63, 65
2, 59280, Note_on_c, 0, 57, 65
2, 59325, Note_on_c, 0, 63, 0
2, 59325, Note_on_c, 0, 57, 0
2, 59328, Note_on_c, 0, 64, 65
2, 59328, Note_on_c, 0, 55, 65
2, 59373, Note_on_c, 0, 64, 0
2, 59373, Note_on_c, 0, 55, 0
2, 59520, Note_on_c, 0, 71, 65
2, 59520, Note_on_c, 0, 67, 65
2, 59568, Note_on_c, 0, 71, 0
2, 59568, Note_on_c, 0, 67, 0
2, 59568, Note_on_c, 0, 69, 65
2, 59568, Note_on_c, 0, 66, 65
2, 59613, Note_on_c, 0, 69, 0
2, 59613, Note_on_c, 0, 66, 0
2, 59616, Note_on_c, 0, 67, 65
2, 59616, Note_on_c, 0, 64, 65
2, 59661, Note_on_c, 0, 67, 0
2, 59661, Note_on_c, 0, 64, 0
2, 59784, Note_on_c, 0, 83, 73
2, 59807, Note_on_c, 0, 83, 0
2, 59808, Note_on_c, 0, 81, 73
2, 59831, Note_on_c, 0, 81, 0
2, 59832, Note_on_c, 0, 79, 73
2, 59855, Note_on_c, 0, 79, 0
2, 59856, Note_on_c, 0, 78, 73
2, 59879, Note_on_c, 0, 78, 0
2, 59880, Note_on_c, 0, 76, 73
2, 59903, Note_on_c, 0, 76, 0
2, 59904, Note_on_c, 0, 76, 73
2, 60000, Note_on_c, 0, 76, 0
2, 60000, Note_on_c, 0, 75, 73
2, 60045, Note_on_c, 0, 75, 0
2, 60072, Note_on_c, 0, 84, 73
2, 60095, Note_on_c, 0, 84, 0
2, 60096, Note_on_c, 0, 83, 73
2, 60119, Note_on_c, 0, 83, 0
2, 60120, Note_on_c, 0, 81, 73
2, 60143, Note_on_c, 0, 81, 0
2, 60144, Note_on_c, 0, 79, 73
2, 60167, Note_on_c, 0, 79, 0
2, 60168, Note_on_c, 0, 78, 73
2, 60191, Note_on_c, 0, 78, 0
2, 60192, Note_on_c, 0, 78, 73
2, 60288, Note_on_c, 0, 78, 0
2, 60288, Note_on_c, 0, 76, 73
2, 60333, Note_on_c, 0, 76, 0
2, 60360, Note_on_c, 0, 83, 73
2, 60383, Note_on_c, 0, 83, 0
2, 60384, Note_on_c, 0, 81, 73
2, 60407, Note_on_c, 0, 81, 0
2, 60408, Note_on_c, 0, 79, 73
2, 60431, Note_on_c, 0, 79, 0
2, 60432, Note_on_c, 0, 78, 73
2, 60455, Note_on_c, 0, 78, 0
2, 60456, Note_on_c, 0, 76, 73
2, 60479, Note_on_c, 0, 76, 0
2, 60480, Note_on_c, 0, 84, 73
2, 60503, Note_on_c, 0, 84, 0
2, 60504, Note_on_c, 0, 72, 73
2, 60527, Note_on_c, 0, 72, 0
2, 60528, Note_on_c, 0, 81, 73
2, 60551, Note_on_c, 0, 81, 0
2, 60552, Note_on_c, 0, 84, 73
2, 60575, Note_on_c, 0, 84, 0
2, 60576, Note_on_c, 0, 79, 73
2, 60599, Note_on_c, 0, 79, 0
2, 60600, Note_on_c, 0, 84, 73
2, 60623, Note_on_c, 0, 84, 0
2, 60624, Note_on_c, 0, 78, 73
2, 60647, Note_on_c, 0, 78, 0
2, 60648, Note_on_c, 0, 81, 73
2, 60671, Note_on_c, 0, 81, 0
2, 60672, Note_on_c, 0, 86, 73
2, 60695, Note_on_c, 0, 86, 0
2, 60696, Note_on_c, 0, 84, 73
2, 60719, Note_on_c, 0, 84, 0
2, 60720, Note_on_c, 0, 83, 73
2, 60743, Note_on_c, 0, 83, 0
2, 60744, Note_on_c, 0, 81, 73
2, 60767, Note_on_c, 0, 81, 0
2, 60768, Note_on_c, 0, 83, 73
2, 60791, Note_on_c, 0, 83, 0
2, 60792, Note_on_c, 0, 71, 73
2, 60815, Note_on_c, 0, 71, 0
2, 60816, Note_on_c, 0, 79, 73
2, 60839, Note_on_c, 0, 79, 0
2, 60840, Note_on_c, 0, 83, 73
2, 60863, Note_on_c, 0, 83, 0
2, 60864, Note_on_c, 0, 78, 73
2, 60887, Note_on_c, 0, 78, 0
2, 60888, Note_on_c, 0, 83, 73
2, 60911, Note_on_c, 0, 83, 0
2, 60912, Note_on_c, 0, 76, 73
2, 60935, Note_on_c, 0, 76, 0
2, 60936, Note_on_c, 0, 79, 73
2, 60959, Note_on_c, 0, 79, 0
2, 60960, Note_on_c, 0, 84, 73
2, 60983, Note_on_c, 0, 84, 0
2, 60984, Note_on_c, 0, 83, 73
2, 61007, Note_on_c, 0, 83, 0
2, 61008, Note_on_c, 0, 81, 73
2, 61031, Note_on_c, 0, 81, 0
2, 61032, Note_on_c, 0, 79, 73
2, 61055, Note_on_c, 0, 79, 0
2, 61056, Note_on_c, 0, 81, 73
2, 61079, Note_on_c, 0, 81, 0
2, 61080, Note_on_c, 0, 69, 73
2, 61103, Note_on_c, 0, 69, 0
2, 61104, Note_on_c, 0, 78, 73
2, 61127, Note_on_c, 0, 78, 0
2, 61128, Note_on_c, 0, 81, 73
2, 61151, Note_on_c, 0, 81, 0
2, 61152, Note_on_c, 0, 76, 73
2, 61175, Note_on_c, 0, 76, 0
2, 61176, Note_on_c, 0, 81, 73
2, 61199, Note_on_c, 0, 81, 0
2, 61200, Note_on_c, 0, 75, 73
2, 61223, Note_on_c, 0, 75, 0
2, 61224, Note_on_c, 0, 78, 73
2, 61247, Note_on_c, 0, 78, 0
2, 61248, Note_on_c, 0, 83, 73
2, 61271, Note_on_c, 0, 83, 0
2, 61272, Note_on_c, 0, 81, 73
2, 61295, Note_on_c, 0, 81, 0
2, 61296, Note_on_c, 0, 79, 73
2, 61319, Note_on_c, 0, 79, 0
2, 61320, Note_on_c, 0, 78, 73
2, 61343, Note_on_c, 0, 78, 0
2, 61344, Note_on_c, 0, 79, 73
2, 61389, Note_on_c, 0, 79, 0
2, 61392, Note_on_c, 0, 83, 73
2, 61404, Note_on_c, 0, 83, 0
2, 61404, Note_on_c, 0, 81, 73
2, 61416, Note_on_c, 0, 81, 0
2, 61416, Note_on_c, 0, 79, 73
2, 61428, Note_on_c, 0, 79, 0
2, 61428, Note_on_c, 0, 81, 73
2, 61440, Note_on_c, 0, 81, 0
2, 61440, Note_on_c, 0, 83, 73
2, 61485, Note_on_c, 0, 83, 0
2, 61488, Note_on_c, 0, 78, 73
2, 61533, Note_on_c, 0, 78, 0
2, 61536, Note_on_c, 0, 78, 73
2, 61581, Note_on_c, 0, 78, 0
2, 61584, Note_on_c, 0, 78, 73
2, 61629, Note_on_c, 0, 78, 0
2, 61632, Note_on_c, 0, 79, 73
2, 61677, Note_on_c, 0, 79, 0
2, 61680, Note_on_c, 0, 83, 73
2, 61692, Note_on_c, 0, 83, 0
2, 61692, Note_on_c, 0, 81, 73
2, 61704, Note_on_c, 0, 81, 0
2, 61704, Note_on_c, 0, 79, 73
2, 61716, Note_on_c, 0, 79, 0
2, 61716, Note_on_c, 0, 81, 73
2, 61728, Note_on_c, 0, 81, 0
2, 61728, Note_on_c, 0, 83, 73
2, 61773, Note_on_c, 0, 83, 0
2, 61776, Note_on_c, 0, 78, 73
2, 61821, Note_on_c, 0, 78, 0
2, 61824, Note_on_c, 0, 78, 73
2, 61869, Note_on_c, 0, 78, 0
2, 61872, Note_on_c, 0, 78, 73
2, 61917, Note_on_c, 0, 78, 0
2, 61920, Note_on_c, 0, 79, 73
2, 61965, Note_on_c, 0, 79, 0
2, 61968, Note_on_c, 0, 83, 73
2, 61980, Note_on_c, 0, 83, 0
2, 61980, Note_on_c, 0, 81, 73
2, 61992, Note_on_c, 0, 81, 0
2, 61992, Note_on_c, 0, 79, 73
2, 62004, Note_on_c, 0, 79, 0
2, 62004, Note_on_c, 0, 81, 73
2, 62016, Note_on_c, 0, 81, 0
2, 62016, Note_on_c, 0, 83, 73
2, 62061, Note_on_c, 0, 83, 0
2, 62064, Note_on_c, 0, 78, 73
2, 62109, Note_on_c, 0, 78, 0
2, 62112, Note_on_c, 0, 78, 73
2, 62157, Note_on_c, 0, 78, 0
2, 62160, Note_on_c, 0, 78, 73
2, 62205, Note_on_c, 0, 78, 0
2, 62208, Note_on_c, 0, 76, 73
2, 62253, Note_on_c, 0, 76, 0
2, 62256, Note_on_c, 0, 76, 73
2, 62301, Note_on_c, 0, 76, 0
2, 62304, Note_on_c, 0, 76, 73
2, 62349, Note_on_c, 0, 76, 0
2, 62352, Note_on_c, 0, 75, 73
2, 62397, Note_on_c, 0, 75, 0
2, 62400, Note_on_c, 0, 75, 73
2, 62445, Note_on_c, 0, 75, 0
2, 62448, Note_on_c, 0, 75, 73
2, 62493, Note_on_c, 0, 75, 0
2, 62496, Note_on_c, 0, 70, 73
2, 62541, Note_on_c, 0, 70, 0
2, 62544, Note_on_c, 0, 70, 73
2, 62589, Note_on_c, 0, 70, 0
2, 62592, Note_on_c, 0, 70, 73
2, 62637, Note_on_c, 0, 70, 0
2, 62664, Note_on_c, 0, 71, 73
2, 62687, Note_on_c, 0, 71, 0
2, 62688, Note_on_c, 0, 73, 73
2, 62711, Note_on_c, 0, 73, 0
2, 62712, Note_on_c, 0, 75, 73
2, 62735, Note_on_c, 0, 75, 0
2, 62736, Note_on_c, 0, 76, 73
2, 62759, Note_on_c, 0, 76, 0
2, 62760, Note_on_c, 0, 78, 73
2, 62783, Note_on_c, 0, 78, 0
2, 62784, Note_on_c, 0, 79, 73
2, 62807, Note_on_c, 0, 79, 0
2, 62808, Note_on_c, 0, 71, 73
2, 62831, Note_on_c, 0, 71, 0
2, 62832, Note_on_c, 0, 73, 73
2, 62855, Note_on_c, 0, 73, 0
2, 62856, Note_on_c, 0, 75, 73
2, 62879, Note_on_c, 0, 75, 0
2, 62880, Note_on_c, 0, 76, 74
2, 62903, Note_on_c, 0, 76, 0
2, 62904, Note_on_c, 0, 78, 74
2, 62927, Note_on_c, 0, 78, 0
2, 62928, Note_on_c, 0, 79, 74
2, 62951, Note_on_c, 0, 79, 0
2, 62952, Note_on_c, 0, 78, 75
2, 62975, Note_on_c, 0, 78, 0
2, 62976, Note_on_c, 0, 76, 75
2, 62999, Note_on_c, 0, 76, 0
2, 63000, Note_on_c, 0, 78, 76
2, 63023, Note_on_c, 0, 78, 0
2, 63024, Note_on_c, 0, 79, 76
2, 63047, Note_on_c, 0, 79, 0
2, 63048, Note_on_c, 0, 81, 76
2, 63071, Note_on_c, 0, 81, 0
2, 63072, Note_on_c, 0, 83, 77
2, 63117, Note_on_c, 0, 83, 0
2, 63120, Note_on_c, 0, 78, 78
2, 63165, Note_on_c, 0, 78, 0
2, 63168, Note_on_c, 0, 75, 78
2, 63213, Note_on_c, 0, 75, 0
2, 63216, Note_on_c, 0, 71, 78
2, 63261, Note_on_c, 0, 71, 0
2, 63264, Note_on_c, 0, 66, 78
2, 63309, Note_on_c, 0, 66, 0
2, 63312, Note_on_c, 0, 63, 78
2, 63357, Note_on_c, 0, 63, 0
2, 63360, Note_on_c, 0, 59, 78
2, 63597, Note_on_c, 0, 59, 0
2, 63696, Note_on_c, 0, 71, 73
2, 63741, Note_on_c, 0, 71, 0
2, 63744, Note_on_c, 0, 69, 73
2, 63789, Note_on_c, 0, 69, 0
2, 63792, Note_on_c, 0, 67, 73
2, 63837, Note_on_c, 0, 67, 0
2, 63840, Note_on_c, 0, 79, 73
2, 63885, Note_on_c, 0, 79, 0
2, 63888, Note_on_c, 0, 76, 73
2, 63933, Note_on_c, 0, 76, 0
2, 63936, Note_on_c, 0, 75, 73
2, 63981, Note_on_c, 0, 75, 0
2, 63984, Note_on_c, 0, 81, 73
2, 64029, Note_on_c, 0, 81, 0
2, 64032, Note_on_c, 0, 79, 73
2, 64077, Note_on_c, 0, 79, 0
2, 64080, Note_on_c, 0, 78, 73
2, 64125, Note_on_c, 0, 78, 0
2, 64128, Note_on_c, 0, 84, 73
2, 64173, Note_on_c, 0, 84, 0
2, 64176, Note_on_c, 0, 81, 73
2, 64221, Note_on_c, 0, 81, 0
2, 64224, Note_on_c, 0, 79, 73
2, 64269, Note_on_c, 0, 79, 0
2, 64272, Note_on_c, 0, 83, 73
2, 64405, Note_on_c, 0, 83, 0
2, 64416, Note_on_c, 0, 81, 73
2, 64557, Note_on_c, 0, 81, 0
2, 64560, Note_on_c, 0, 79, 73
2, 64605, Note_on_c, 0, 79, 0
2, 64608, Note_on_c, 0, 76, 73
2, 64653, Note_on_c, 0, 76, 0
2, 64656, Note_on_c, 0, 76, 73
2, 64701, Note_on_c, 0, 76, 0
2, 64704, Note_on_c, 0, 77, 73
2, 64749, Note_on_c, 0, 77, 0
2, 64752, Note_on_c, 0, 81, 73
2, 64797, Note_on_c, 0, 81, 0
2, 64800, Note_on_c, 0, 76, 73
2, 64989, Note_on_c, 0, 76, 0
2, 64992, Note_on_c, 0, 78, 73
2, 65037, Note_on_c, 0, 78, 0
2, 65040, Note_on_c, 0, 75, 73
2, 65085, Note_on_c, 0, 75, 0
2, 65088, Note_on_c, 0, 76, 73
2, 65221, Note_on_c, 0, 76, 0
2, 65424, Note_on_c, 0, 71, 73
2, 65469, Note_on_c, 0, 71, 0
2, 65472, Note_on_c, 0, 69, 73
2, 65517, Note_on_c, 0, 69, 0
2, 65520, Note_on_c, 0, 67, 73
2, 65565, Note_on_c, 0, 67, 0
2, 65568, Note_on_c, 0, 79, 73
2, 65613, Note_on_c, 0, 79, 0
2, 65616, Note_on_c, 0, 76, 73
2, 65661, Note_on_c, 0, 76, 0
2, 65664, Note_on_c, 0, 75, 73
2, 65709, Note_on_c, 0, 75, 0
2, 65712, Note_on_c, 0, 81, 73
2, 65757, Note_on_c, 0, 81, 0
2, 65760, Note_on_c, 0, 79, 73
2, 65805, Note_on_c, 0, 79, 0
2, 65808, Note_on_c, 0, 78, 73
2, 65853, Note_on_c, 0, 78, 0
2, 65856, Note_on_c, 0, 84, 73
2, 65901, Note_on_c, 0, 84, 0
2, 65904, Note_on_c, 0, 81, 73
2, 65949, Note_on_c, 0, 81, 0
2, 65952, Note_on_c, 0, 79, 73
2, 65997, Note_on_c, 0, 79, 0
2, 66000, Note_on_c, 0, 83, 73
2, 66133, Note_on_c, 0, 83, 0
2, 66144, Note_on_c, 0, 81, 73
2, 66285, Note_on_c, 0, 81, 0
2, 66288, Note_on_c, 0, 79, 73
2, 66377, Note_on_c, 0, 79, 0
2, 66384, Note_on_c, 0, 77, 73
2, 66517, Note_on_c, 0, 77, 0
2, 66528, Note_on_c, 0, 76, 73
2, 66661, Note_on_c, 0, 76, 0
2, 66672, Note_on_c, 0, 74, 73
2, 66805, Note_on_c, 0, 74, 0
2, 66816, Note_on_c, 0, 72, 73
2, 66949, Note_on_c, 0, 72, 0
2, 66960, Note_on_c, 0, 71, 73
2, 67049, Note_on_c, 0, 71, 0
2, 67056, Note_on_c, 0, 76, 73
2, 67101, Note_on_c, 0, 76, 0
2, 67104, Note_on_c, 0, 76, 73
2, 67124, Note_on_c, 0, 76, 0
2, 67152, Note_on_c, 0, 76, 73
2, 67172, Note_on_c, 0, 76, 0
2, 67200, Note_on_c, 0, 76, 73
2, 67220, Note_on_c, 0, 76, 0
2, 67248, Note_on_c, 0, 76, 73
2, 67268, Note_on_c, 0, 76, 0
2, 67296, Note_on_c, 0, 76, 73
2, 67316, Note_on_c, 0, 76, 0
2, 67344, Note_on_c, 0, 76, 73
2, 67364, Note_on_c, 0, 76, 0
2, 67392, Note_on_c, 0, 76, 73
2, 67581, Note_on_c, 0, 76, 0
2, 67584, Note_on_c, 0, 78, 73
2, 67629, Note_on_c, 0, 78, 0
2, 67632, Note_on_c, 0, 75, 73
2, 67677, Note_on_c, 0, 75, 0
2, 67680, Note_on_c, 0, 76, 78
2, 67703, Note_on_c, 0, 76, 0
2, 67704, Note_on_c, 0, 71, 78
2, 67727, Note_on_c, 0, 71, 0
2, 67728, Note_on_c, 0, 67, 78
2, 67751, Note_on_c, 0, 67, 0
2, 67752, Note_on_c, 0, 71, 78
2, 67775, Note_on_c, 0, 71, 0
2, 67776, Note_on_c, 0, 69, 78
2, 67799, Note_on_c, 0, 69, 0
2, 67800, Note_on_c, 0, 71, 78
2, 67823, Note_on_c, 0, 71, 0
2, 67824, Note_on_c, 0, 67, 78
2, 67847, Note_on_c, 0, 67, 0
2, 67848, Note_on_c, 0, 71, 78
2, 67871, Note_on_c, 0, 71, 0
2, 67872, Note_on_c, 0, 76, 78
2, 67895, Note_on_c, 0, 76, 0
2, 67896, Note_on_c, 0, 71, 78
2, 67919, Note_on_c, 0, 71, 0
2, 67920, Note_on_c, 0, 78, 78
2, 67943, Note_on_c, 0, 78, 0
2, 67944, Note_on_c, 0, 71, 78
2, 67967, Note_on_c, 0, 71, 0
2, 67968, Note_on_c, 0, 79, 78
2, 67991, Note_on_c, 0, 79, 0
2, 67992, Note_on_c, 0, 71, 78
2, 68015, Note_on_c, 0, 71, 0
2, 68016, Note_on_c, 0, 67, 78
2, 68039, Note_on_c, 0, 67, 0
2, 68040, Note_on_c, 0, 71, 78
2, 68063, Note_on_c, 0, 71, 0
2, 68064, Note_on_c, 0, 69, 78
2, 68087, Note_on_c, 0, 69, 0
2, 68088, Note_on_c, 0, 71, 78
2, 68111, Note_on_c, 0, 71, 0
2, 68112, Note_on_c, 0, 67, 78
2, 68135, Note_on_c, 0, 67, 0
2, 68136, Note_on_c, 0, 71, 78
2, 68159, Note_on_c, 0, 71, 0
2, 68160, Note_on_c, 0, 76, 78
2, 68183, Note_on_c, 0, 76, 0
2, 68184, Note_on_c, 0, 71, 78
2, 68207, Note_on_c, 0, 71, 0
2, 68208, Note_on_c, 0, 78, 78
2, 68231, Note_on_c, 0, 78, 0
2, 68232, Note_on_c, 0, 71, 78
2, 68255, Note_on_c, 0, 71, 0
2, 68256, Note_on_c, 0, 79, 73
2, 68389, Note_on_c, 0, 79, 0
2, 68400, Note_on_c, 0, 77, 73
2, 68533, Note_on_c, 0, 77, 0
2, 68544, Note_on_c, 0, 76, 78
2, 68567, Note_on_c, 0, 76, 0
2, 68568, Note_on_c, 0, 79, 78
2, 68591, Note_on_c, 0, 79, 0
2, 68592, Note_on_c, 0, 76, 78
2, 68615, Note_on_c, 0, 76, 0
2, 68616, Note_on_c, 0, 79, 78
2, 68639, Note_on_c, 0, 79, 0
2, 68640, Note_on_c, 0, 77, 78
2, 68663, Note_on_c, 0, 77, 0
2, 68664, Note_on_c, 0, 79, 78
2, 68687, Note_on_c, 0, 79, 0
2, 68688, Note_on_c, 0, 76, 78
2, 68711, Note_on_c, 0, 76, 0
2, 68712, Note_on_c, 0, 79, 78
2, 68735, Note_on_c, 0, 79, 0
2, 68736, Note_on_c, 0, 84, 78
2, 68759, Note_on_c, 0, 84, 0
2, 68760, Note_on_c, 0, 79, 78
2, 68783, Note_on_c, 0, 79, 0
2, 68784, Note_on_c, 0, 86, 78
2, 68807, Note_on_c, 0, 86, 0
2, 68808, Note_on_c, 0, 79, 78
2, 68831, Note_on_c, 0, 79, 0
2, 68832, Note_on_c, 0, 88, 78
2, 68855, Note_on_c, 0, 88, 0
2, 68856, Note_on_c, 0, 79, 78
2, 68879, Note_on_c, 0, 79, 0
2, 68880, Note_on_c, 0, 76, 78
2, 68903, Note_on_c, 0, 76, 0
2, 68904, Note_on_c, 0, 79, 78
2, 68927, Note_on_c, 0, 79, 0
2, 68928, Note_on_c, 0, 77, 78
2, 68951, Note_on_c, 0, 77, 0
2, 68952, Note_on_c, 0, 79, 78
2, 68975, Note_on_c, 0, 79, 0
2, 68976, Note_on_c, 0, 88, 78
2, 68999, Note_on_c, 0, 88, 0
2, 69000, Note_on_c, 0, 79, 78
2, 69023, Note_on_c, 0, 79, 0
2, 69024, Note_on_c, 0, 84, 78
2, 69047, Note_on_c, 0, 84, 0
2, 69048, Note_on_c, 0, 79, 78
2, 69071, Note_on_c, 0, 79, 0
2, 69072, Note_on_c, 0, 86, 78
2, 69095, Note_on_c, 0, 86, 0
2, 69096, Note_on_c, 0, 79, 78
2, 69119, Note_on_c, 0, 79, 0
2, 69120, Note_on_c, 0, 88, 73
2, 69165, Note_on_c, 0, 88, 0
2, 69168, Note_on_c, 0, 81, 73
2, 69213, Note_on_c, 0, 81, 0
2, 69216, Note_on_c, 0, 81, 73
2, 69261, Note_on_c, 0, 81, 0
2, 69264, Note_on_c, 0, 86, 73
2, 69309, Note_on_c, 0, 86, 0
2, 69312, Note_on_c, 0, 80, 73
2, 69357, Note_on_c, 0, 80, 0
2, 69360, Note_on_c, 0, 80, 73
2, 69405, Note_on_c, 0, 80, 0
2, 69408, Note_on_c, 0, 84, 73
2, 69453, Note_on_c, 0, 84, 0
2, 69456, Note_on_c, 0, 77, 73
2, 69501, Note_on_c, 0, 77, 0
2, 69504, Note_on_c, 0, 77, 73
2, 69549, Note_on_c, 0, 77, 0
2, 69552, Note_on_c, 0, 83, 73
2, 69597, Note_on_c, 0, 83, 0
2, 69600, Note_on_c, 0, 76, 73
2, 69645, Note_on_c, 0, 76, 0
2, 69648, Note_on_c, 0, 76, 73
2, 69693, Note_on_c, 0, 76, 0
2, 69696, Note_on_c, 0, 81, 73
2, 69741, Note_on_c, 0, 81, 0
2, 69744, Note_on_c, 0, 75, 73
2, 69789, Note_on_c, 0, 75, 0
2, 69792, Note_on_c, 0, 75, 73
2, 69837, Note_on_c, 0, 75, 0
2, 69840, Note_on_c, 0, 79, 73
2, 69885, Note_on_c, 0, 79, 0
2, 69888, Note_on_c, 0, 70, 73
2, 69933, Note_on_c, 0, 70, 0
2, 69936, Note_on_c, 0, 70, 73
2, 69981, Note_on_c, 0, 70, 0
2, 69984, Note_on_c, 0, 78, 73
2, 70029, Note_on_c, 0, 78, 0
2, 70032, Note_on_c, 0, 71, 73
2, 70077, Note_on_c, 0, 71, 0
2, 70080, Note_on_c, 0, 71, 73
2, 70125, Note_on_c, 0, 71, 0
2, 70128, Note_on_c, 0, 81, 73
2, 70173, Note_on_c, 0, 81, 0
2, 70176, Note_on_c, 0, 69, 73
2, 70221, Note_on_c, 0, 69, 0
2, 70224, Note_on_c, 0, 69, 73
2, 70269, Note_on_c, 0, 69, 0
2, 70272, Note_on_c, 0, 79, 78
2, 70295, Note_on_c, 0, 79, 0
2, 70296, Note_on_c, 0, 71, 78
2, 70319, Note_on_c, 0, 71, 0
2, 70320, Note_on_c, 0, 67, 78
2, 70343, Note_on_c, 0, 67, 0
2, 70344, Note_on_c, 0, 71, 78
2, 70367, Note_on_c, 0, 71, 0
2, 70368, Note_on_c, 0, 69, 78
2, 70391, Note_on_c, 0, 69, 0
2, 70392, Note_on_c, 0, 71, 78
2, 70415, Note_on_c, 0, 71, 0
2, 70416, Note_on_c, 0, 67, 78
2, 70439, Note_on_c, 0, 67, 0
2, 70440, Note_on_c, 0, 71, 78
2, 70463, Note_on_c, 0, 71, 0
2, 70464, Note_on_c, 0, 76, 78
2, 70487, Note_on_c, 0, 76, 0
2, 70488, Note_on_c, 0, 71, 78
2, 70511, Note_on_c, 0, 71, 0
2, 70512, Note_on_c, 0, 78, 78
2, 70535, Note_on_c, 0, 78, 0
2, 70536, Note_on_c, 0, 71, 78
2, 70559, Note_on_c, 0, 71, 0
2, 70560, Note_on_c, 0, 79, 78
2, 70583, Note_on_c, 0, 79, 0
2, 70584, Note_on_c, 0, 71, 78
2, 70607, Note_on_c, 0, 71, 0
2, 70608, Note_on_c, 0, 67, 78
2, 70631, Note_on_c, 0, 67, 0
2, 70632, Note_on_c, 0, 71, 78
2, 70655, Note_on_c, 0, 71, 0
2, 70656, Note_on_c, 0, 69, 78
2, 70679, Note_on_c, 0, 69, 0
2, 70680, Note_on_c, 0, 71, 78
2, 70703, Note_on_c, 0, 71, 0
2, 70704, Note_on_c, 0, 67, 78
2, 70727, Note_on_c, 0, 67, 0
2, 70728, Note_on_c, 0, 71, 78
2, 70751, Note_on_c, 0, 71, 0
2, 70752, Note_on_c, 0, 76, 78
2, 70775, Note_on_c, 0, 76, 0
2, 70776, Note_on_c, 0, 71, 78
2, 70799, Note_on_c, 0, 71, 0
2, 70800, Note_on_c, 0, 78, 78
2, 70823, Note_on_c, 0, 78, 0
2, 70824, Note_on_c, 0, 71, 78
2, 70847, Note_on_c, 0, 71, 0
2, 70848, Note_on_c, 0, 79, 78
2, 70871, Note_on_c, 0, 79, 0
2, 70872, Note_on_c, 0, 71, 78
2, 70895, Note_on_c, 0, 71, 0
2, 70896, Note_on_c, 0, 67, 78
2, 70919, Note_on_c, 0, 67, 0
2, 70920, Note_on_c, 0, 71, 78
2, 70943, Note_on_c, 0, 71, 0
2, 70944, Note_on_c, 0, 67, 78
2, 70967, Note_on_c, 0, 67, 0
2, 70968, Note_on_c, 0, 71, 78
2, 70991, Note_on_c, 0, 71, 0
2, 70992, Note_on_c, 0, 76, 78
2, 71015, Note_on_c, 0, 76, 0
2, 71016, Note_on_c, 0, 72, 78
2, 71039, Note_on_c, 0, 72, 0
2, 71040, Note_on_c, 0, 67, 78
2, 71063, Note_on_c, 0, 67, 0
2, 71064, Note_on_c, 0, 72, 78
2, 71087, Note_on_c, 0, 72, 0
2, 71088, Note_on_c, 0, 67, 78
2, 71111, Note_on_c, 0, 67, 0
2, 71112, Note_on_c, 0, 72, 78
2, 71135, Note_on_c, 0, 72, 0
2, 71136, Note_on_c, 0, 66, 78
2, 71159, Note_on_c, 0, 66, 0
2, 71160, Note_on_c, 0, 72, 78
2, 71183, Note_on_c, 0, 72, 0
2, 71184, Note_on_c, 0, 76, 78
2, 71207, Note_on_c, 0, 76, 0
2, 71208, Note_on_c, 0, 72, 78
2, 71231, Note_on_c, 0, 72, 0
2, 71232, Note_on_c, 0, 76, 78
2, 71255, Note_on_c, 0, 76, 0
2, 71256, Note_on_c, 0, 72, 78
2, 71279, Note_on_c, 0, 72, 0
2, 71280, Note_on_c, 0, 66, 78
2, 71303, Note_on_c, 0, 66, 0
2, 71304, Note_on_c, 0, 71, 78
2, 71327, Note_on_c, 0, 71, 0
2, 71328, Note_on_c, 0, 75, 78
2, 71351, Note_on_c, 0, 75, 0
2, 71352, Note_on_c, 0, 71, 78
2, 71375, Note_on_c, 0, 71, 0
2, 71376, Note_on_c, 0, 75, 78
2, 71399, Note_on_c, 0, 75, 0
2, 71400, Note_on_c, 0, 71, 78
2, 71423, Note_on_c, 0, 71, 0
2, 71424, Note_on_c, 0, 79, 78
2, 71447, Note_on_c, 0, 79, 0
2, 71448, Note_on_c, 0, 71, 78
2, 71471, Note_on_c, 0, 71, 0
2, 71472, Note_on_c, 0, 67, 78
2, 71495, Note_on_c, 0, 67, 0
2, 71496, Note_on_c, 0, 71, 78
2, 71519, Note_on_c, 0, 71, 0
2, 71520, Note_on_c, 0, 67, 78
2, 71543, Note_on_c, 0, 67, 0
2, 71544, Note_on_c, 0, 71, 78
2, 71567, Note_on_c, 0, 71, 0
2, 71568, Note_on_c, 0, 76, 78
2, 71591, Note_on_c, 0, 76, 0
2, 71592, Note_on_c, 0, 72, 78
2, 71615, Note_on_c, 0, 72, 0
2, 71616, Note_on_c, 0, 67, 78
2, 71639, Note_on_c, 0, 67, 0
2, 71640, Note_on_c, 0, 72, 78
2, 71663, Note_on_c, 0, 72, 0
2, 71664, Note_on_c, 0, 67, 78
2, 71687, Note_on_c, 0, 67, 0
2, 71688, Note_on_c, 0, 72, 78
2, 71711, Note_on_c, 0, 72, 0
2, 71712, Note_on_c, 0, 66, 78
2, 71735, Note_on_c, 0, 66, 0
2, 71736, Note_on_c, 0, 72, 78
2, 71759, Note_on_c, 0, 72, 0
2, 71760, Note_on_c, 0, 76, 78
2, 71783, Note_on_c, 0, 76, 0
2, 71784, Note_on_c, 0, 72, 78
2, 71807, Note_on_c, 0, 72, 0
2, 71808, Note_on_c, 0, 76, 78
2, 71831, Note_on_c, 0, 76, 0
2, 71832, Note_on_c, 0, 72, 78
2, 71855, Note_on_c, 0, 72, 0
2, 71856, Note_on_c, 0, 66, 78
2, 71879, Note_on_c, 0, 66, 0
2, 71880, Note_on_c, 0, 71, 78
2, 71903, Note_on_c, 0, 71, 0
2, 71904, Note_on_c, 0, 75, 78
2, 71927, Note_on_c, 0, 75, 0
2, 71928, Note_on_c, 0, 71, 78
2, 71951, Note_on_c, 0, 71, 0
2, 71952, Note_on_c, 0, 75, 78
2, 71975, Note_on_c, 0, 75, 0
2, 71976, Note_on_c, 0, 71, 78
2, 71999, Note_on_c, 0, 71, 0
2, 72192, Note_on_c, 0, 67, 65
2, 72192, Note_on_c, 0, 59, 65
2, 72240, Note_on_c, 0, 67, 0
2, 72240, Note_on_c, 0, 59, 0
2, 72240, Note_on_c, 0, 63, 65
2, 72240, Note_on_c, 0, 57, 65
2, 72285, Note_on_c, 0, 63, 0
2, 72285, Note_on_c, 0, 57, 0
2, 72288, Note_on_c, 0, 64, 65
2, 72288, Note_on_c, 0, 55, 65
2, 72333, Note_on_c, 0, 64, 0
2, 72333, Note_on_c, 0, 55, 0
2, 72480, Note_on_c, 0, 71, 65
2, 72480, Note_on_c, 0, 67, 65
2, 72528, Note_on_c, 0, 71, 0
2, 72528, Note_on_c, 0, 67, 0
2, 72528, Note_on_c, 0, 69, 65
2, 72528, Note_on_c, 0, 66, 65
2, 72573, Note_on_c, 0, 69, 0
2, 72573, Note_on_c, 0, 66, 0
2, 72576, Note_on_c, 0, 67, 65
2, 72576, Note_on_c, 0, 64, 65
2, 72621, Note_on_c, 0, 67, 0
2, 72621, Note_on_c, 0, 64, 0
2, 72768, Note_on_c, 0, 83, 65
2, 72768, Note_on_c, 0, 79, 65
2, 72816, Note_on_c, 0, 83, 0
2, 72816, Note_on_c, 0, 79, 0
2, 72816, Note_on_c, 0, 81, 65
2, 72816, Note_on_c, 0, 78, 65
2, 72861, Note_on_c, 0, 81, 0
2, 72861, Note_on_c, 0, 78, 0
2, 72864, Note_on_c, 0, 79, 65
2, 72864, Note_on_c, 0, 76, 65
2, 72884, Note_on_c, 0, 79, 0
2, 72884, Note_on_c, 0, 76, 0
2, 72912, Note_on_c, 0, 88, 60
2, 72912, Note_on_c, 0, 76, 60
2, 72932, Note_on_c, 0, 88, 0
2, 72932, Note_on_c, 0, 76, 0
2, 72960, Note_on_c, 0, 88, 60
2, 72960, Note_on_c, 0, 76, 60
2, 72980, Note_on_c, 0, 88, 0
2, 72980, Note_on_c, 0, 76, 0
2, 73008, Note_on_c, 0, 88, 60
2, 73008, Note_on_c, 0, 76, 60
2, 73028, Note_on_c, 0, 88, 0
2, 73028, Note_on_c, 0, 76, 0
2, 73152, Note_on_c, 0, 76, 4
2, 73197, Note_on_c, 0, 76, 0
2, 73200, End_track
3, 0, Start_track
3, 0, Program_c, 0, 0
3, 0, Control_c, 0, 7, 127
3, 0, Control_c, 0, 10, 64
3, 2016, Note_on_c, 0, 66, 64
3, 2105, Note_on_c, 0, 66, 0
3, 2112, Note_on_c, 0, 64, 64
3, 2157, Note_on_c, 0, 64, 0
3, 2160, Note_on_c, 0, 63, 64
3, 2205, Note_on_c, 0, 63, 0
3, 8928, Note_on_c, 0, 79, 64
3, 9017, Note_on_c, 0, 79, 0
3, 9024, Note_on_c, 0, 74, 64
3, 9069, Note_on_c, 0, 74, 0
3, 9072, Note_on_c, 0, 76, 64
3, 9117, Note_on_c, 0, 76, 0
3, 9120, Note_on_c, 0, 80, 64
3, 9165, Note_on_c, 0, 80, 0
3, 9168, Note_on_c, 0, 81, 64
3, 9213, Note_on_c, 0, 81, 0
3, 9216, Note_on_c, 0, 75, 64
3, 9261, Note_on_c, 0, 75, 0
3, 9264, Note_on_c, 0, 74, 64
3, 9353, Note_on_c, 0, 74, 0
3, 9360, Note_on_c, 0, 76, 64
3, 9405, Note_on_c, 0, 76, 0
3, 9408, Note_on_c, 0, 74, 64
3, 9453, Note_on_c, 0, 74, 0
3, 9456, Note_on_c, 0, 72, 64
3, 9501, Note_on_c, 0, 72, 0
3, 9504, Note_on_c, 0, 74, 64
3, 9637, Note_on_c, 0, 74, 0
3, 9648, Note_on_c, 0, 72, 64
3, 9781, Note_on_c, 0, 72, 0
3, 9792, Note_on_c, 0, 71, 64
3, 9925, Note_on_c, 0, 71, 0
3, 10656, Note_on_c, 0, 79, 64
3, 10745, Note_on_c, 0, 79, 0
3, 10752, Note_on_c, 0, 74, 64
3, 10797, Note_on_c, 0, 74, 0
3, 10800, Note_on_c, 0, 76, 64
3, 10845, Note_on_c, 0, 76, 0
3, 10848, Note_on_c, 0, 80, 64
3, 10893, Note_on_c, 0, 80, 0
3, 10896, Note_on_c, 0, 81, 64
3, 10941, Note_on_c, 0, 81, 0
3, 10944, Note_on_c, 0, 75, 64
3, 10989, Note_on_c, 0, 75, 0
3, 10992, Note_on_c, 0, 74, 64
3, 11081, Note_on_c, 0, 74, 0
3, 11088, Note_on_c, 0, 72, 64
3, 11177, Note_on_c, 0, 72, 0
3, 11184, Note_on_c, 0, 71, 64
3, 11277, Note_on_c, 0, 71, 0
3, 11280, Note_on_c, 0, 69, 64
3, 11325, Note_on_c, 0, 69, 0
3, 11328, Note_on_c, 0, 70, 64
3, 11373, Note_on_c, 0, 70, 0
3, 11376, Note_on_c, 0, 71, 64
3, 11421, Note_on_c, 0, 71, 0
3, 11424, Note_on_c, 0, 72, 64
3, 11469, Note_on_c, 0, 72, 0
3, 11472, Note_on_c, 0, 73, 64
3, 11517, Note_on_c, 0, 73, 0
3, 11520, Note_on_c, 0, 74, 64
3, 11653, Note_on_c, 0, 74, 0
3, 11664, Note_on_c, 0, 72, 64
3, 11797, Note_on_c, 0, 72, 0
3, 14976, Note_on_c, 0, 66, 64
3, 15065, Note_on_c, 0, 66, 0
3, 15072, Note_on_c, 0, 64, 64
3, 15117, Note_on_c, 0, 64, 0
3, 15120, Note_on_c, 0, 63, 64
3, 15165, Note_on_c, 0, 63, 0
3, 21888, Note_on_c, 0, 79, 64
3, 21977, Note_on_c, 0, 79, 0
3, 21984, Note_on_c, 0, 74, 64
3, 22029, Note_on_c, 0, 74, 0
3, 22032, Note_on_c, 0, 76, 64
3, 22077, Note_on_c, 0, 76, 0
3, 22080, Note_on_c, 0, 80, 64
3, 22125, Note_on_c, 0, 80, 0
3, 22128, Note_on_c, 0, 81, 64
3, 22173, Note_on_c, 0, 81, 0
3, 22176, Note_on_c, 0, 75, 64
3, 22221, Note_on_c, 0, 75, 0
3, 22224, Note_on_c, 0, 74, 64
3, 22313, Note_on_c, 0, 74, 0
3, 22320, Note_on_c, 0, 76, 64
3, 22365, Note_on_c, 0, 76, 0
3, 22368, Note_on_c, 0, 74, 64
3, 22413, Note_on_c, 0, 74, 0
3, 22416, Note_on_c, 0, 72, 64
3, 22461, Note_on_c, 0, 72, 0
3, 22464, Note_on_c, 0, 74, 64
3, 22597, Note_on_c, 0, 74, 0
3, 22608, Note_on_c, 0, 72, 64
3, 22741, Note_on_c, 0, 72, 0
3, 22752, Note_on_c, 0, 71, 64
3, 22885, Note_on_c, 0, 71, 0
3, 23616, Note_on_c, 0, 79, 64
3, 23705, Note_on_c, 0, 79, 0
3, 23712, Note_on_c, 0, 74, 64
3, 23757, Note_on_c, 0, 74, 0
3, 23760, Note_on_c, 0, 76, 64
3, 23805, Note_on_c, 0, 76, 0
3, 23808, Note_on_c, 0, 80, 64
3, 23853, Note_on_c, 0, 80, 0
3, 23856, Note_on_c, 0, 81, 64
3, 23901, Note_on_c, 0, 81, 0
3, 23904, Note_on_c, 0, 75, 64
3, 23949, Note_on_c, 0, 75, 0
3, 23952, Note_on_c, 0, 74, 64
3, 24041, Note_on_c, 0, 74, 0
3, 24048, Note_on_c, 0, 72, 64
3, 24137, Note_on_c, 0, 72, 0
3, 24144, Note_on_c, 0, 71, 64
3, 24237, Note_on_c, 0, 71, 0
3, 24240, Note_on_c, 0, 69, 64
3, 24285, Note_on_c, 0, 69, 0
3, 24288, Note_on_c, 0, 70, 64
3, 24333, Note_on_c, 0, 70, 0
3, 24336, Note_on_c, 0, 71, 64
3, 24381, Note_on_c, 0, 71, 0
3, 24384, Note_on_c, 0, 72, 64
3, 24429, Note_on_c, 0, 72, 0
3, 24432, Note_on_c, 0, 73, 64
3, 24477, Note_on_c, 0, 73, 0
3, 24480, Note_on_c, 0, 74, 64
3, 24613, Note_on_c, 0, 74, 0
3, 24624, Note_on_c, 0, 72, 64
3, 24757, Note_on_c, 0, 72, 0
3, 40080, Note_on_c, 0, 67, 73
3, 40125, Note_on_c, 0, 67, 0
3, 40128, Note_on_c, 0, 66, 73
3, 40173, Note_on_c, 0, 66, 0
3, 40176, Note_on_c, 0, 64, 73
3, 40221, Note_on_c, 0, 64, 0
3, 40224, Note_on_c, 0, 71, 73
3, 40269, Note_on_c, 0, 71, 0
3, 40272, Note_on_c, 0, 67, 73
3, 40317, Note_on_c, 0, 67, 0
3, 40320, Note_on_c, 0, 66, 73
3, 40365, Note_on_c, 0, 66, 0
3, 40368, Note_on_c, 0, 78, 73
3, 40413, Note_on_c, 0, 78, 0
3, 40416, Note_on_c, 0, 76, 73
3, 40461, Note_on_c, 0, 76, 0
3, 40464, Note_on_c, 0, 75, 73
3, 40509, Note_on_c, 0, 75, 0
3, 40512, Note_on_c, 0, 81, 73
3, 40557, Note_on_c, 0, 81, 0
3, 40560, Note_on_c, 0, 78, 73
3, 40605, Note_on_c, 0, 78, 0
3, 40608, Note_on_c, 0, 76, 73
3, 40697, Note_on_c, 0, 76, 0
3, 40704, Note_on_c, 0, 71, 73
3, 40749, Note_on_c, 0, 71, 0
3, 40752, Note_on_c, 0, 72, 73
3, 40885, Note_on_c, 0, 72, 0
3, 40896, Note_on_c, 0, 71, 73
3, 41029, Note_on_c, 0, 71, 0
3, 41040, Note_on_c, 0, 69, 73
3, 41173, Note_on_c, 0, 69, 0
3, 41184, Note_on_c, 0, 71, 73
3, 41317, Note_on_c, 0, 71, 0
3, 41328, Note_on_c, 0, 69, 73
3, 41461, Note_on_c, 0, 69, 0
3, 41472, Note_on_c, 0, 67, 73
3, 41605, Note_on_c, 0, 67, 0
3, 41808, Note_on_c, 0, 67, 73
3, 41853, Note_on_c, 0, 67, 0
3, 41856, Note_on_c, 0, 66, 73
3, 41901, Note_on_c, 0, 66, 0
3, 41904, Note_on_c, 0, 64, 73
3, 41949, Note_on_c, 0, 64, 0
3, 41952, Note_on_c, 0, 71, 73
3, 41997, Note_on_c, 0, 71, 0
3, 42000, Note_on_c, 0, 67, 73
3, 42045, Note_on_c, 0, 67, 0
3, 42048, Note_on_c, 0, 66, 73
3, 42093, Note_on_c, 0, 66, 0
3, 42096, Note_on_c, 0, 78, 73
3, 42141, Note_on_c, 0, 78, 0
3, 42144, Note_on_c, 0, 76, 73
3, 42189, Note_on_c, 0, 76, 0
3, 42192, Note_on_c, 0, 75, 73
3, 42237, Note_on_c, 0, 75, 0
3, 42240, Note_on_c, 0, 81, 73
3, 42285, Note_on_c, 0, 81, 0
3, 42288, Note_on_c, 0, 78, 73
3, 42333, Note_on_c, 0, 78, 0
3, 42336, Note_on_c, 0, 76, 73
3, 42425, Note_on_c, 0, 76, 0
3, 42432, Note_on_c, 0, 71, 73
3, 42477, Note_on_c, 0, 71, 0
3, 42480, Note_on_c, 0, 72, 73
3, 42613, Note_on_c, 0, 72, 0
3, 42624, Note_on_c, 0, 71, 73
3, 42713, Note_on_c, 0, 71, 0
3, 42720, Note_on_c, 0, 76, 73
3, 42809, Note_on_c, 0, 76, 0
3, 42816, Note_on_c, 0, 74, 73
3, 42905, Note_on_c, 0, 74, 0
3, 42912, Note_on_c, 0, 74, 73
3, 42957, Note_on_c, 0, 74, 0
3, 42960, Note_on_c, 0, 72, 73
3, 43093, Note_on_c, 0, 72, 0
3, 43104, Note_on_c, 0, 71, 73
3, 43193, Note_on_c, 0, 71, 0
3, 43200, Note_on_c, 0, 71, 73
3, 43245, Note_on_c, 0, 71, 0
3, 43248, Note_on_c, 0, 69, 73
3, 43337, Note_on_c, 0, 69, 0
3, 43344, Note_on_c, 0, 69, 73
3, 43389, Note_on_c, 0, 69, 0
3, 43392, Note_on_c, 0, 67, 73
3, 43437, Note_on_c, 0, 67, 0
3, 43440, Note_on_c, 0, 64, 73
3, 43485, Note_on_c, 0, 64, 0
3, 43488, Note_on_c, 0, 65, 73
3, 43533, Note_on_c, 0, 65, 0
3, 43536, Note_on_c, 0, 66, 73
3, 43581, Note_on_c, 0, 66, 0
3, 43584, Note_on_c, 0, 67, 73
3, 43629, Note_on_c, 0, 67, 0
3, 43632, Note_on_c, 0, 68, 73
3, 43677, Note_on_c, 0, 68, 0
3, 43680, Note_on_c, 0, 69, 73
3, 43725, Note_on_c, 0, 69, 0
3, 43728, Note_on_c, 0, 70, 73
3, 43773, Note_on_c, 0, 70, 0
3, 43776, Note_on_c, 0, 71, 73
3, 43909, Note_on_c, 0, 71, 0
3, 43920, Note_on_c, 0, 69, 73
3, 44053, Note_on_c, 0, 69, 0
3, 63696, Note_on_c, 0, 67, 73
3, 63741, Note_on_c, 0, 67, 0
3, 63744, Note_on_c, 0, 66, 73
3, 63789, Note_on_c, 0, 66, 0
3, 63792, Note_on_c, 0, 64, 73
3, 63837, Note_on_c, 0, 64, 0
3, 63840, Note_on_c, 0, 71, 73
3, 63885, Note_on_c, 0, 71, 0
3, 63888, Note_on_c, 0, 67, 73
3, 63933, Note_on_c, 0, 67, 0
3, 63936, Note_on_c, 0, 66, 73
3, 63981, Note_on_c, 0, 66, 0
3, 63984, Note_on_c, 0, 78, 73
3, 64029, Note_on_c, 0, 78, 0
3, 64032, Note_on_c, 0, 76, 73
3, 64077, Note_on_c, 0, 76, 0
3, 64080, Note_on_c, 0, 75, 73
3, 64125, Note_on_c, 0, 75, 0
3, 64128, Note_on_c, 0, 81, 73
3, 64173, Note_on_c, 0, 81, 0
3, 64176, Note_on_c, 0, 78, 73
3, 64221, Note_on_c, 0, 78, 0
3, 64224, Note_on_c, 0, 76, 73
3, 64313, Note_on_c, 0, 76, 0
3, 64320, Note_on_c, 0, 71, 73
3, 64365, Note_on_c, 0, 71, 0
3, 64368, Note_on_c, 0, 72, 73
3, 64501, Note_on_c, 0, 72, 0
3, 64512, Note_on_c, 0, 71, 73
3, 64645, Note_on_c, 0, 71, 0
3, 64656, Note_on_c, 0, 69, 73
3, 64789, Note_on_c, 0, 69, 0
3, 64800, Note_on_c, 0, 71, 73
3, 64933, Note_on_c, 0, 71, 0
3, 64944, Note_on_c, 0, 69, 73
3, 65077, Note_on_c, 0, 69, 0
3, 65088, Note_on_c, 0, 67, 73
3, 65221, Note_on_c, 0, 67, 0
3, 65424, Note_on_c, 0, 67, 73
3, 65469, Note_on_c, 0, 67, 0
3, 65472, Note_on_c, 0, 66, 73
3, 65517, Note_on_c, 0, 66, 0
3, 65520, Note_on_c, 0, 64, 73
3, 65565, Note_on_c, 0, 64, 0
3, 65568, Note_on_c, 0, 71, 73
3, 65613, Note_on_c, 0, 71, 0
3, 65616, Note_on_c, 0, 67, 73
3, 65661, Note_on_c, 0, 67, 0
3, 65664, Note_on_c, 0, 66, 73
3, 65709, Note_on_c, 0, 66, 0
3, 65712, Note_on_c, 0, 78, 73
3, 65757, Note_on_c, 0, 78, 0
3, 65760, Note_on_c, 0, 76, 73
3, 65805, Note_on_c, 0, 76, 0
3, 65808, Note_on_c, 0, 75, 73
3, 65853, Note_on_c, 0, 75, 0
3, 65856, Note_on_c, 0, 81, 73
3, 65901, Note_on_c, 0, 81, 0
3, 65904, Note_on_c, 0, 78, 73
3, 65949, Note_on_c, 0, 78, 0
3, 65952, Note_on_c, 0, 76, 73
3, 66041, Note_on_c, 0, 76, 0
3, 66048, Note_on_c, 0, 71, 73
3, 66093, Note_on_c, 0, 71, 0
3, 66096, Note_on_c, 0, 72, 73
3, 66229, Note_on_c, 0, 72, 0
3, 66240, Note_on_c, 0, 71, 73
3, 66329, Note_on_c, 0, 71, 0
3, 66336, Note_on_c, 0, 76, 73
3, 66425, Note_on_c, 0, 76, 0
3, 66432, Note_on_c, 0, 74, 73
3, 66521, Note_on_c, 0, 74, 0
3, 66528, Note_on_c, 0, 74, 73
3, 66573, Note_on_c, 0, 74, 0
3, 66576, Note_on_c, 0, 72, 73
3, 66709, Note_on_c, 0, 72, 0
3, 66720, Note_on_c, 0, 71, 73
3, 66809, Note_on_c, 0, 71, 0
3, 66816, Note_on_c, 0, 71, 73
3, 66861, Note_on_c, 0, 71, 0
3, 66864, Note_on_c, 0, 69, 73
3, 66953, Note_on_c, 0, 69, 0
3, 66960, Note_on_c, 0, 69, 73
3, 67005, Note_on_c, 0, 69, 0
3, 67008, Note_on_c, 0, 67, 73
3, 67053, Note_on_c, 0, 67, 0
3, 67056, Note_on_c, 0, 64, 73
3, 67101, Note_on_c, 0, 64, 0
3, 67104, Note_on_c, 0, 65, 73
3, 67149, Note_on_c, 0, 65, 0
3, 67152, Note_on_c, 0, 66, 73
3, 67197, Note_on_c, 0, 66, 0
3, 67200, Note_on_c, 0, 67, 73
3, 67245, Note_on_c, 0, 67, 0
3, 67248, Note_on_c, 0, 68, 73
3, 67293, Note_on_c, 0, 68, 0
3, 67296, Note_on_c, 0, 69, 73
3, 67341, Note_on_c, 0, 69, 0
3, 67344, Note_on_c, 0, 70, 73
3, 67389, Note_on_c, 0, 70, 0
3, 67392, Note_on_c, 0, 71, 73
3, 67525, Note_on_c, 0, 71, 0
3, 67536, Note_on_c, 0, 69, 73
3, 67669, Note_on_c, 0, 69, 0
3, 73152, End_track
4, 0, Start_track
4, 0, Program_c, 1, 0
4, 0, Control_c, 1, 7, 127
4, 0, Control_c, 1, 10, 64
4, 0, Note_on_c, 1, 40, 65
4, 20, Note_on_c, 1, 40, 0
4, 48, Note_on_c, 1, 43, 65
4, 68, Note_on_c, 1, 43, 0
4, 96, Note_on_c, 1, 47, 65
4, 116, Note_on_c, 1, 47, 0
4, 144, Note_on_c, 1, 52, 65
4, 189, Note_on_c, 1, 52, 0
4, 288, Note_on_c, 1, 40, 65
4, 308, Note_on_c, 1, 40, 0
4, 336, Note_on_c, 1, 43, 65
4, 356, Note_on_c, 1, 43, 0
4, 384, Note_on_c, 1, 47, 65
4, 404, Note_on_c, 1, 47, 0
4, 432, Note_on_c, 1, 52, 65
4, 477, Note_on_c, 1, 52, 0
4, 576, Note_on_c, 1, 40, 65
4, 596, Note_on_c, 1, 40, 0
4, 624, Note_on_c, 1, 43, 65
4, 644, Note_on_c, 1, 43, 0
4, 672, Note_on_c, 1, 47, 65
4, 692, Note_on_c, 1, 47, 0
4, 720, Note_on_c, 1, 52, 65
4, 765, Note_on_c, 1, 52, 0
4, 864, Note_on_c, 1, 48, 65
4, 909, Note_on_c, 1, 48, 0
4, 912, Note_on_c, 1, 52, 65
4, 957, Note_on_c, 1, 52, 0
4, 960, Note_on_c, 1, 55, 65
4, 1005, Note_on_c, 1, 55, 0
4, 1008, Note_on_c, 1, 60, 65
4, 1197, Note_on_c, 1, 60, 0
4, 1200, Note_on_c, 1, 51, 65
4, 1245, Note_on_c, 1, 51, 0
4, 1248, Note_on_c, 1, 54, 65
4, 1293, Note_on_c, 1, 54, 0
4, 1296, Note_on_c, 1, 59, 65
4, 1429, Note_on_c, 1, 59, 0
4, 1488, Note_on_c, 1, 52, 65
4, 1536, Note_on_c, 1, 52, 0
4, 1536, Note_on_c, 1, 58, 65
4, 1581, Note_on_c, 1, 58, 0
4, 1584, Note_on_c, 1, 59, 65
4, 1604, Note_on_c, 1, 59, 0
4, 1776, Note_on_c, 1, 52, 65
4, 1824, Note_on_c, 1, 52, 0
4, 1824, Note_on_c, 1, 58, 65
4, 1869, Note_on_c, 1, 58, 0
4, 1872, Note_on_c, 1, 59, 65
4, 1892, Note_on_c, 1, 59, 0
4, 2064, Note_on_c, 1, 52, 65
4, 2112, Note_on_c, 1, 52, 0
4, 2112, Note_on_c, 1, 58, 65
4, 2157, Note_on_c, 1, 58, 0
4, 2160, Note_on_c, 1, 59, 65
4, 2205, Note_on_c, 1, 59, 0
4, 2304, Note_on_c, 1, 40, 65
4, 2324, Note_on_c, 1, 40, 0
4, 2352, Note_on_c, 1, 43, 65
4, 2372, Note_on_c, 1, 43, 0
4, 2400, Note_on_c, 1, 47, 65
4, 2420, Note_on_c, 1, 47, 0
4, 2448, Note_on_c, 1, 52, 65
4, 2493, Note_on_c, 1, 52, 0
4, 2592, Note_on_c, 1, 40, 65
4, 2612, Note_on_c, 1, 40, 0
4, 2640, Note_on_c, 1, 43, 65
4, 2660, Note_on_c, 1, 43, 0
4, 2688, Note_on_c, 1, 47, 65
4, 2708, Note_on_c, 1, 47, 0
4, 2736, Note_on_c, 1, 52, 65
4, 2781, Note_on_c, 1, 52, 0
4, 2880, Note_on_c, 1, 40, 65
4, 2900, Note_on_c, 1, 40, 0
4, 2928, Note_on_c, 1, 43, 65
4, 2948, Note_on_c, 1, 43, 0
4, 2976, Note_on_c, 1, 47, 65
4, 2996, Note_on_c, 1, 47, 0
4, 3024, Note_on_c, 1, 52, 65
4, 3069, Note_on_c, 1, 52, 0
4, 3168, Note_on_c, 1, 40, 65
4, 3188, Note_on_c, 1, 40, 0
4, 3216, Note_on_c, 1, 45, 65
4, 3236, Note_on_c, 1, 45, 0
4, 3264, Note_on_c, 1, 48, 65
4, 3284, Note_on_c, 1, 48, 0
4, 3312, Note_on_c, 1, 52, 65
4, 3357, Note_on_c, 1, 52, 0
4, 3456, Note_on_c, 1, 38, 65
4, 3476, Note_on_c, 1, 38, 0
4, 3504, Note_on_c, 1, 42, 65
4, 3524, Note_on_c, 1, 42, 0
4, 3552, Note_on_c, 1, 45, 65
4, 3572, Note_on_c, 1, 45, 0
4, 3600, Note_on_c, 1, 50, 65
4, 3645, Note_on_c, 1, 50, 0
4, 3744, Note_on_c, 1, 43, 78
4, 3744, Note_on_c, 1, 31, 78
4, 3789, Note_on_c, 1, 43, 0
4, 3789, Note_on_c, 1, 31, 0
4, 3792, Note_on_c, 1, 47, 78
4, 3792, Note_on_c, 1, 35, 78
4, 3837, Note_on_c, 1, 47, 0
4, 3837, Note_on_c, 1, 35, 0
4, 3840, Note_on_c, 1, 50, 78
4, 3840, Note_on_c, 1, 38, 78
4, 3885, Note_on_c, 1, 50, 0
4, 3885, Note_on_c, 1, 38, 0
4, 3888, Note_on_c, 1, 55, 78
4, 3888, Note_on_c, 1, 43, 78
4, 3933, Note_on_c, 1, 55, 0
4, 3933, Note_on_c, 1, 43, 0
4, 4032, Note_on_c, 1, 45, 78
4, 4032, Note_on_c, 1, 33, 78
4, 4077, Note_on_c, 1, 45, 0
4, 4077, Note_on_c, 1, 33, 0
4, 4080, Note_on_c, 1, 48, 78
4, 4080, Note_on_c, 1, 36, 78
4, 4125, Note_on_c, 1, 48, 0
4, 4125, Note_on_c, 1, 36, 0
4, 4128, Note_on_c, 1, 50, 78
4, 4128, Note_on_c, 1, 38, 78
4, 4173, Note_on_c, 1, 50, 0
4, 4173, Note_on_c, 1, 38, 0
4, 4176, Note_on_c, 1, 54, 78
4, 4176, Note_on_c, 1, 42, 78
4, 4221, Note_on_c, 1, 54, 0
4, 4221, Note_on_c, 1, 42, 0
4, 4320, Note_on_c, 1, 55, 65
4, 4368, Note_on_c, 1, 59, 65
4, 4416, Note_on_c, 1, 62, 65
4, 4464, Note_on_c, 1, 67, 65
4, 4597, Note_on_c, 1, 67, 0
4, 4597, Note_on_c, 1, 62, 0
4, 4597, Note_on_c, 1, 59, 0
4, 4597, Note_on_c, 1, 55, 0
4, 4608, Note_on_c, 1, 57, 65
4, 4656, Note_on_c, 1, 60, 65
4, 4704, Note_on_c, 1, 62, 65
4, 4752, Note_on_c, 1, 66, 65
4, 4885, Note_on_c, 1, 66, 0
4, 4885, Note_on_c, 1, 62, 0
4, 4885, Note_on_c, 1, 60, 0
4, 4885, Note_on_c, 1, 57, 0
4, 4896, Note_on_c, 1, 55, 65
4, 4944, Note_on_c, 1, 59, 65
4, 4992, Note_on_c, 1, 62, 65
4, 5040, Note_on_c, 1, 67, 65
4, 5173, Note_on_c, 1, 67, 0
4, 5173, Note_on_c, 1, 62, 0
4, 5173, Note_on_c, 1, 59, 0
4, 5173, Note_on_c, 1, 55, 0
4, 5184, Note_on_c, 1, 60, 65
4, 5229, Note_on_c, 1, 60, 0
4, 5232, Note_on_c, 1, 69, 65
4, 5277, Note_on_c, 1, 69, 0
4, 5280, Note_on_c, 1, 67, 65
4, 5325, Note_on_c, 1, 67, 0
4, 5328, Note_on_c, 1, 66, 65
4, 5417, Note_on_c, 1, 66, 0
4, 5472, Note_on_c, 1, 59, 65
4, 5517, Note_on_c, 1, 59, 0
4, 5520, Note_on_c, 1, 67, 65
4, 5565, Note_on_c, 1, 67, 0
4, 5568, Note_on_c, 1, 66, 65
4, 5613, Note_on_c, 1, 66, 0
4, 5616, Note_on_c, 1, 64, 65
4, 5705, Note_on_c, 1, 64, 0
4, 5760, Note_on_c, 1, 57, 65
4, 5805, Note_on_c, 1, 57, 0
4, 5808, Note_on_c, 1, 66, 65
4, 5853, Note_on_c, 1, 66, 0
4, 5856, Note_on_c, 1, 64, 65
4, 5901, Note_on_c, 1, 64, 0
4, 5904, Note_on_c, 1, 62, 65
4, 5949, Note_on_c, 1, 62, 0
4, 5952, Note_on_c, 1, 64, 65
4, 5997, Note_on_c, 1, 64, 0
4, 6000, Note_on_c, 1, 66, 65
4, 6045, Note_on_c, 1, 66, 0
4, 6048, Note_on_c, 1, 55, 65
4, 6071, Note_on_c, 1, 55, 0
4, 6072, Note_on_c, 1, 67, 65
4, 6095, Note_on_c, 1, 67, 0
4, 6096, Note_on_c, 1, 57, 65
4, 6119, Note_on_c, 1, 57, 0
4, 6120, Note_on_c, 1, 67, 65
4, 6143, Note_on_c, 1, 67, 0
4, 6144, Note_on_c, 1, 59, 65
4, 6167, Note_on_c, 1, 59, 0
4, 6168, Note_on_c, 1, 67, 65
4, 6191, Note_on_c, 1, 67, 0
4, 6192, Note_on_c, 1, 60, 65
4, 6215, Note_on_c, 1, 60, 0
4, 6216, Note_on_c, 1, 67, 65
4, 6239, Note_on_c, 1, 67, 0
4, 6240, Note_on_c, 1, 60, 65
4, 6263, Note_on_c, 1, 60, 0
4, 6264, Note_on_c, 1, 67, 65
4, 6287, Note_on_c, 1, 67, 0
4, 6288, Note_on_c, 1, 60, 65
4, 6311, Note_on_c, 1, 60, 0
4, 6312, Note_on_c, 1, 67, 65
4, 6335, Note_on_c, 1, 67, 0
4, 6336, Note_on_c, 1, 55, 65
4, 6359, Note_on_c, 1, 55, 0
4, 6360, Note_on_c, 1, 67, 65
4, 6383, Note_on_c, 1, 67, 0
4, 6384, Note_on_c, 1, 57, 65
4, 6407, Note_on_c, 1, 57, 0
4, 6408, Note_on_c, 1, 67, 65
4, 6431, Note_on_c, 1, 67, 0
4, 6432, Note_on_c, 1, 59, 65
4, 6455, Note_on_c, 1, 59, 0
4, 6456, Note_on_c, 1, 67, 65
4, 6479, Note_on_c, 1, 67, 0
4, 6480, Note_on_c, 1, 60, 65
4, 6503, Note_on_c, 1, 60, 0
4, 6504, Note_on_c, 1, 67, 65
4, 6527, Note_on_c, 1, 67, 0
4, 6528, Note_on_c, 1, 60, 65
4, 6551, Note_on_c, 1, 60, 0
4, 6552, Note_on_c, 1, 67, 65
4, 6575, Note_on_c, 1, 67, 0
4, 6576, Note_on_c, 1, 60, 65
4, 6599, Note_on_c, 1, 60, 0
4, 6600, Note_on_c, 1, 67, 65
4, 6623, Note_on_c, 1, 67, 0
4, 6624, Note_on_c, 1, 55, 65
4, 6647, Note_on_c, 1, 55, 0
4, 6648, Note_on_c, 1, 67, 65
4, 6671, Note_on_c, 1, 67, 0
4, 6672, Note_on_c, 1, 57, 65
4, 6695, Note_on_c, 1, 57, 0
4, 6696, Note_on_c, 1, 67, 65
4, 6719, Note_on_c, 1, 67, 0
4, 6720, Note_on_c, 1, 59, 65
4, 6743, Note_on_c, 1, 59, 0
4, 6744, Note_on_c, 1, 67, 65
4, 6767, Note_on_c, 1, 67, 0
4, 6768, Note_on_c, 1, 60, 65
4, 6791, Note_on_c, 1, 60, 0
4, 6792, Note_on_c, 1, 67, 65
4, 6815, Note_on_c, 1, 67, 0
4, 6816, Note_on_c, 1, 60, 65
4, 6839, Note_on_c, 1, 60, 0
4, 6840, Note_on_c, 1, 67, 65
4, 6863, Note_on_c, 1, 67, 0
4, 6864, Note_on_c, 1, 60, 65
4, 6887, Note_on_c, 1, 60, 0
4, 6888, Note_on_c, 1, 67, 65
4, 6911, Note_on_c, 1, 67, 0
4, 6912, Note_on_c, 1, 61, 65
4, 6935, Note_on_c, 1, 61, 0
4, 6936, Note_on_c, 1, 70, 65
4, 6959, Note_on_c, 1, 70, 0
4, 6960, Note_on_c, 1, 61, 65
4, 6983, Note_on_c, 1, 61, 0
4, 6984, Note_on_c, 1, 70, 65
4, 7007, Note_on_c, 1, 70, 0
4, 7008, Note_on_c, 1, 61, 65
4, 7031, Note_on_c, 1, 61, 0
4, 7032, Note_on_c, 1, 70, 65
4, 7055, Note_on_c, 1, 70, 0
4, 7056, Note_on_c, 1, 62, 65
4, 7079, Note_on_c, 1, 62, 0
4, 7080, Note_on_c, 1, 69, 65
4, 7103, Note_on_c, 1, 69, 0
4, 7104, Note_on_c, 1, 62, 65
4, 7127, Note_on_c, 1, 62, 0
4, 7128, Note_on_c, 1, 69, 65
4, 7151, Note_on_c, 1, 69, 0
4, 7152, Note_on_c, 1, 62, 65
4, 7175, Note_on_c, 1, 62, 0
4, 7176, Note_on_c, 1, 69, 65
4, 7199, Note_on_c, 1, 69, 0
4, 7200, Note_on_c, 1, 64, 65
4, 7223, Note_on_c, 1, 64, 0
4, 7224, Note_on_c, 1, 67, 65
4, 7247, Note_on_c, 1, 67, 0
4, 7248, Note_on_c, 1, 64, 65
4, 7271, Note_on_c, 1, 64, 0
4, 7272, Note_on_c, 1, 67, 65
4, 7295, Note_on_c, 1, 67, 0
4, 7296, Note_on_c, 1, 64, 65
4, 7319, Note_on_c, 1, 64, 0
4, 7320, Note_on_c, 1, 67, 65
4, 7343, Note_on_c, 1, 67, 0
4, 7344, Note_on_c, 1, 66, 65
4, 7389, Note_on_c, 1, 66, 0
4, 7512, Note_on_c, 1, 62, 73
4, 7535, Note_on_c, 1, 62, 0
4, 7536, Note_on_c, 1, 64, 73
4, 7559, Note_on_c, 1, 64, 0
4, 7560, Note_on_c, 1, 66, 73
4, 7583, Note_on_c, 1, 66, 0
4, 7584, Note_on_c, 1, 67, 74
4, 7607, Note_on_c, 1, 67, 0
4, 7608, Note_on_c, 1, 69, 74
4, 7631, Note_on_c, 1, 69, 0
4, 7632, Note_on_c, 1, 71, 74
4, 7655, Note_on_c, 1, 71, 0
4, 7656, Note_on_c, 1, 69, 75
4, 7679, Note_on_c, 1, 69, 0
4, 7680, Note_on_c, 1, 67, 75
4, 7703, Note_on_c, 1, 67, 0
4, 7704, Note_on_c, 1, 69, 76
4, 7727, Note_on_c, 1, 69, 0
4, 7728, Note_on_c, 1, 71, 76
4, 7751, Note_on_c, 1, 71, 0
4, 7752, Note_on_c, 1, 73, 76
4, 7775, Note_on_c, 1, 73, 0
4, 7776, Note_on_c, 1, 74, 77
4, 7821, Note_on_c, 1, 74, 0
4, 7824, Note_on_c, 1, 69, 78
4, 7869, Note_on_c, 1, 69, 0
4, 7872, Note_on_c, 1, 66, 78
4, 7917, Note_on_c, 1, 66, 0
4, 7920, Note_on_c, 1, 62, 78
4, 7965, Note_on_c, 1, 62, 0
4, 7968, Note_on_c, 1, 57, 78
4, 8013, Note_on_c, 1, 57, 0
4, 8016, Note_on_c, 1, 54, 78
4, 8061, Note_on_c, 1, 54, 0
4, 8064, Note_on_c, 1, 50, 78
4, 8197, Note_on_c, 1, 50, 0
4, 8352, Note_on_c, 1, 43, 73
4, 8352, Note_on_c, 1, 31, 73
4, 8441, Note_on_c, 1, 43, 0
4, 8441, Note_on_c, 1, 31, 0
4, 8592, Note_on_c, 1, 59, 69
4, 8592, Note_on_c, 1, 55, 69
4, 8637, Note_on_c, 1, 59, 0
4, 8637, Note_on_c, 1, 55, 0
4, 8640, Note_on_c, 1, 60, 69
4, 8640, Note_on_c, 1, 57, 69
4, 8729, Note_on_c, 1, 60, 0
4, 8729, Note_on_c, 1, 57, 0
4, 8832, Note_on_c, 1, 66, 69
4, 8832, Note_on_c, 1, 62, 69
4, 8880, Note_on_c, 1, 62, 0
4, 8880, Note_on_c, 1, 69, 69
4, 8925, Note_on_c, 1, 69, 0
4, 8925, Note_on_c, 1, 66, 0
4, 8928, Note_on_c, 1, 71, 69
4, 8928, Note_on_c, 1, 67, 69
4, 9017, Note_on_c, 1, 71, 0
4, 9017, Note_on_c, 1, 67, 0
4, 9024, Note_on_c, 1, 71, 69
4, 9069, Note_on_c, 1, 71, 0
4, 9072, Note_on_c, 1, 72, 69
4, 9117, Note_on_c, 1, 72, 0
4, 9120, Note_on_c, 1, 71, 69
4, 9165, Note_on_c, 1, 71, 0
4, 9168, Note_on_c, 1, 69, 69
4, 9213, Note_on_c, 1, 69, 0
4, 9216, Note_on_c, 1, 67, 69
4, 9261, Note_on_c, 1, 67, 0
4, 9264, Note_on_c, 1, 66, 69
4, 9309, Note_on_c, 1, 66, 0
4, 9312, Note_on_c, 1, 67, 69
4, 9357, Note_on_c, 1, 67, 0
4, 9360, Note_on_c, 1, 72, 69
4, 9405, Note_on_c, 1, 72, 0
4, 9408, Note_on_c, 1, 71, 69
4, 9453, Note_on_c, 1, 71, 0
4, 9456, Note_on_c, 1, 69, 69
4, 9501, Note_on_c, 1, 69, 0
4, 9504, Note_on_c, 1, 71, 69
4, 9637, Note_on_c, 1, 71, 0
4, 9648, Note_on_c, 1, 69, 69
4, 9781, Note_on_c, 1, 69, 0
4, 9792, Note_on_c, 1, 67, 69
4, 9925, Note_on_c, 1, 67, 0
4, 10080, Note_on_c, 1, 43, 73
4, 10080, Note_on_c, 1, 31, 73
4, 10169, Note_on_c, 1, 43, 0
4, 10169, Note_on_c, 1, 31, 0
4, 10320, Note_on_c, 1, 59, 69
4, 10320, Note_on_c, 1, 55, 69
4, 10365, Note_on_c, 1, 59, 0
4, 10365, Note_on_c, 1, 55, 0
4, 10368, Note_on_c, 1, 60, 69
4, 10368, Note_on_c, 1, 57, 69
4, 10457, Note_on_c, 1, 60, 0
4, 10457, Note_on_c, 1, 57, 0
4, 10560, Note_on_c, 1, 66, 69
4, 10560, Note_on_c, 1, 62, 69
4, 10608, Note_on_c, 1, 62, 0
4, 10608, Note_on_c, 1, 69, 69
4, 10653, Note_on_c, 1, 69, 0
4, 10653, Note_on_c, 1, 66, 0
4, 10656, Note_on_c, 1, 71, 69
4, 10656, Note_on_c, 1, 67, 69
4, 10745, Note_on_c, 1, 71, 0
4, 10745, Note_on_c, 1, 67, 0
4, 10752, Note_on_c, 1, 71, 69
4, 10797, Note_on_c, 1, 71, 0
4, 10800, Note_on_c, 1, 72, 69
4, 10845, Note_on_c, 1, 72, 0
4, 10848, Note_on_c, 1, 71, 69
4, 10893, Note_on_c, 1, 71, 0
4, 10896, Note_on_c, 1, 69, 69
4, 10941, Note_on_c, 1, 69, 0
4, 10944, Note_on_c, 1, 67, 69
4, 10989, Note_on_c, 1, 67, 0
4, 10992, Note_on_c, 1, 66, 69
4, 11037, Note_on_c, 1, 66, 0
4, 11040, Note_on_c, 1, 67, 69
4, 11085, Note_on_c, 1, 67, 0
4, 11088, Note_on_c, 1, 64, 69
4, 11133, Note_on_c, 1, 64, 0
4, 11136, Note_on_c, 1, 66, 69
4, 11181, Note_on_c, 1, 66, 0
4, 11184, Note_on_c, 1, 63, 69
4, 11229, Note_on_c, 1, 63, 0
4, 11232, Note_on_c, 1, 64, 69
4, 11277, Note_on_c, 1, 64, 0
4, 11280, Note_on_c, 1, 60, 69
4, 11325, Note_on_c, 1, 60, 0
4, 11328, Note_on_c, 1, 61, 69
4, 11373, Note_on_c, 1, 61, 0
4, 11376, Note_on_c, 1, 62, 69
4, 11421, Note_on_c, 1, 62, 0
4, 11424, Note_on_c, 1, 63, 69
4, 11469, Note_on_c, 1, 63, 0
4, 11472, Note_on_c, 1, 64, 69
4, 11517, Note_on_c, 1, 64, 0
4, 11520, Note_on_c, 1, 71, 69
4, 11653, Note_on_c, 1, 71, 0
4, 11664, Note_on_c, 1, 69, 69
4, 11797, Note_on_c, 1, 69, 0
4, 12672, Note_on_c, 1, 67, 78
4, 12672, Note_on_c, 1, 55, 78
4, 12761, Note_on_c, 1, 67, 0
4, 12761, Note_on_c, 1, 55, 0
4, 12960, Note_on_c, 1, 40, 65
4, 12980, Note_on_c, 1, 40, 0
4, 13008, Note_on_c, 1, 43, 65
4, 13028, Note_on_c, 1, 43, 0
4, 13056, Note_on_c, 1, 47, 65
4, 13076, Note_on_c, 1, 47, 0
4, 13104, Note_on_c, 1, 52, 65
4, 13149, Note_on_c, 1, 52, 0
4, 13248, Note_on_c, 1, 40, 65
4, 13268, Note_on_c, 1, 40, 0
4, 13296, Note_on_c, 1, 43, 65
4, 13316, Note_on_c, 1, 43, 0
4, 13344, Note_on_c, 1, 47, 65
4, 13364, Note_on_c, 1, 47, 0
4, 13392, Note_on_c, 1, 52, 65
4, 13437, Note_on_c, 1, 52, 0
4, 13536, Note_on_c, 1, 40, 65
4, 13556, Note_on_c, 1, 40, 0
4, 13584, Note_on_c, 1, 43, 65
4, 13604, Note_on_c, 1, 43, 0
4, 13632, Note_on_c, 1, 47, 65
4, 13652, Note_on_c, 1, 47, 0
4, 13680, Note_on_c, 1, 52, 65
4, 13725, Note_on_c, 1, 52, 0
4, 13824, Note_on_c, 1, 48, 65
4, 13869, Note_on_c, 1, 48, 0
4, 13872, Note_on_c, 1, 52, 65
4, 13917, Note_on_c, 1, 52, 0
4, 13920, Note_on_c, 1, 55, 65
4, 13965, Note_on_c, 1, 55, 0
4, 13968, Note_on_c, 1, 60, 65
4, 14157, Note_on_c, 1, 60, 0
4, 14160, Note_on_c, 1, 51, 65
4, 14205, Note_on_c, 1, 51, 0
4, 14208, Note_on_c, 1, 54, 65
4, 14253, Note_on_c, 1, 54, 0
4, 14256, Note_on_c, 1, 59, 65
4, 14389, Note_on_c, 1, 59, 0
4, 14448, Note_on_c, 1, 52, 65
4, 14496, Note_on_c, 1, 52, 0
4, 14496, Note_on_c, 1, 58, 65
4, 14541, Note_on_c, 1, 58, 0
4, 14544, Note_on_c, 1, 59, 65
4, 14564, Note_on_c, 1, 59, 0
4, 14736, Note_on_c, 1, 52, 65
4, 14784, Note_on_c, 1, 52, 0
4, 14784, Note_on_c, 1, 58, 65
4, 14829, Note_on_c, 1, 58, 0
4, 14832, Note_on_c, 1, 59, 65
4, 14852, Note_on_c, 1, 59, 0
4, 15024, Note_on_c, 1, 52, 65
4, 15072, Note_on_c, 1, 52, 0
4, 15072, Note_on_c, 1, 58, 65
4, 15117, Note_on_c, 1, 58, 0
4, 15120, Note_on_c, 1, 59, 65
4, 15165, Note_on_c, 1, 59, 0
4, 15264, Note_on_c, 1, 40, 65
4, 15284, Note_on_c, 1, 40, 0
4, 15312, Note_on_c, 1, 43, 65
4, 15332, Note_on_c, 1, 43, 0
4, 15360, Note_on_c, 1, 47, 65
4, 15380, Note_on_c, 1, 47, 0
4, 15408, Note_on_c, 1, 52, 65
4, 15453, Note_on_c, 1, 52, 0
4, 15552, Note_on_c, 1, 40, 65
4, 15572, Note_on_c, 1, 40, 0
4, 15600, Note_on_c, 1, 43, 65
4, 15620, Note_on_c, 1, 43, 0
4, 15648, Note_on_c, 1, 47, 65
4, 15668, Note_on_c, 1, 47, 0
4, 15696, Note_on_c, 1, 52, 65
4, 15741, Note_on_c, 1, 52, 0
4, 15840, Note_on_c, 1, 40, 65
4, 15860, Note_on_c, 1, 40, 0
4, 15888, Note_on_c, 1, 43, 65
4, 15908, Note_on_c, 1, 43, 0
4, 15936, Note_on_c, 1, 47, 65
4, 15956, Note_on_c, 1, 47, 0
4, 15984, Note_on_c, 1, 52, 65
4, 16029, Note_on_c, 1, 52, 0
4, 16128, Note_on_c, 1, 40, 65
4, 16148, Note_on_c, 1, 40, 0
4, 16176, Note_on_c, 1, 45, 65
4, 16196, Note_on_c, 1, 45, 0
4, 16224, Note_on_c, 1, 48, 65
4, 16244, Note_on_c, 1, 48, 0
4, 16272, Note_on_c, 1, 52, 65
4, 16317, Note_on_c, 1, 52, 0
4, 16416, Note_on_c, 1, 38, 65
4, 16436, Note_on_c, 1, 38, 0
4, 16464, Note_on_c, 1, 42, 65
4, 16484, Note_on_c, 1, 42, 0
4, 16512, Note_on_c, 1, 45, 65
4, 16532, Note_on_c, 1, 45, 0
4, 16560, Note_on_c, 1, 50, 65
4, 16605, Note_on_c, 1, 50, 0
4, 16704, Note_on_c, 1, 43, 78
4, 16704, Note_on_c, 1, 31, 78
4, 16749, Note_on_c, 1, 43, 0
4, 16749, Note_on_c, 1, 31, 0
4, 16752, Note_on_c, 1, 47, 78
4, 16752, Note_on_c, 1, 35, 78
4, 16797, Note_on_c, 1, 47, 0
4, 16797, Note_on_c, 1, 35, 0
4, 16800, Note_on_c, 1, 50, 78
4, 16800, Note_on_c, 1, 38, 78
4, 16845, Note_on_c, 1, 50, 0
4, 16845, Note_on_c, 1, 38, 0
4, 16848, Note_on_c, 1, 55, 78
4, 16848, Note_on_c, 1, 43, 78
4, 16893, Note_on_c, 1, 55, 0
4, 16893, Note_on_c, 1, 43, 0
4, 16992, Note_on_c, 1, 45, 78
4, 16992, Note_on_c, 1, 33, 78
4, 17037, Note_on_c, 1, 45, 0
4, 17037, Note_on_c, 1, 33, 0
4, 17040, Note_on_c, 1, 48, 78
4, 17040, Note_on_c, 1, 36, 78
4, 17085, Note_on_c, 1, 48, 0
4, 17085, Note_on_c, 1, 36, 0
4, 17088, Note_on_c, 1, 50, 78
4, 17088, Note_on_c, 1, 38, 78
4, 17133, Note_on_c, 1, 50, 0
4, 17133, Note_on_c, 1, 38, 0
4, 17136, Note_on_c, 1, 54, 78
4, 17136, Note_on_c, 1, 42, 78
4, 17181, Note_on_c, 1, 54, 0
4, 17181, Note_on_c, 1, 42, 0
4, 17280, Note_on_c, 1, 55, 65
4, 17328, Note_on_c, 1, 59, 65
4, 17376, Note_on_c, 1, 62, 65
4, 17424, Note_on_c, 1, 67, 65
4, 17557, Note_on_c, 1, 67, 0
4, 17557, Note_on_c, 1, 62, 0
4, 17557, Note_on_c, 1, 59, 0
4, 17557, Note_on_c, 1, 55, 0
4, 17568, Note_on_c, 1, 57, 65
4, 17616, Note_on_c, 1, 60, 65
4, 17664, Note_on_c, 1, 62, 65
4, 17712, Note_on_c, 1, 66, 65
4, 17845, Note_on_c, 1, 66, 0
4, 17845, Note_on_c, 1, 62, 0
4, 17845, Note_on_c, 1, 60, 0
4, 17845, Note_on_c, 1, 57, 0
4, 17856, Note_on_c, 1, 55, 65
4, 17904, Note_on_c, 1, 59, 65
4, 17952, Note_on_c, 1, 62, 65
4, 18000, Note_on_c, 1, 67, 65
4, 18133, Note_on_c, 1, 67, 0
4, 18133, Note_on_c, 1, 62, 0
4, 18133, Note_on_c, 1, 59, 0
4, 18133, Note_on_c, 1, 55, 0
4, 18144, Note_on_c, 1, 60, 65
4, 18189, Note_on_c, 1, 60, 0
4, 18192, Note_on_c, 1, 69, 65
4, 18237, Note_on_c, 1, 69, 0
4, 18240, Note_on_c, 1, 67, 65
4, 18285, Note_on_c, 1, 67, 0
4, 18288, Note_on_c, 1, 66, 65
4, 18377, Note_on_c, 1, 66, 0
4, 18432, Note_on_c, 1, 59, 65
4, 18477, Note_on_c, 1, 59, 0
4, 18480, Note_on_c, 1, 67, 65
4, 18525, Note_on_c, 1, 67, 0
4, 18528, Note_on_c, 1, 66, 65
4, 18573, Note_on_c, 1, 66, 0
4, 18576, Note_on_c, 1, 64, 65
4, 18665, Note_on_c, 1, 64, 0
4, 18720, Note_on_c, 1, 57, 65
4, 18765, Note_on_c, 1, 57, 0
4, 18768, Note_on_c, 1, 66, 65
4, 18813, Note_on_c, 1, 66, 0
4, 18816, Note_on_c, 1, 64, 65
4, 18861, Note_on_c, 1, 64, 0
4, 18864, Note_on_c, 1, 62, 65
4, 18909, Note_on_c, 1, 62, 0
4, 18912, Note_on_c, 1, 64, 65
4, 18957, Note_on_c, 1, 64, 0
4, 18960, Note_on_c, 1, 66, 65
4, 19005, Note_on_c, 1, 66, 0
4, 19008, Note_on_c, 1, 55, 65
4, 19031, Note_on_c, 1, 55, 0
4, 19032, Note_on_c, 1, 67, 65
4, 19055, Note_on_c, 1, 67, 0
4, 19056, Note_on_c, 1, 57, 65
4, 19079, Note_on_c, 1, 57, 0
4, 19080, Note_on_c, 1, 67, 65
4, 19103, Note_on_c, 1, 67, 0
4, 19104, Note_on_c, 1, 59, 65
4, 19127, Note_on_c, 1, 59, 0
4, 19128, Note_on_c, 1, 67, 65
4, 19151, Note_on_c, 1, 67, 0
4, 19152, Note_on_c, 1, 60, 65
4, 19175, Note_on_c, 1, 60, 0
4, 19176, Note_on_c, 1, 67, 65
4, 19199, Note_on_c, 1, 67, 0
4, 19200, Note_on_c, 1, 60, 65
4, 19223, Note_on_c, 1, 60, 0
4, 19224, Note_on_c, 1, 67, 65
4, 19247, Note_on_c, 1, 67, 0
4, 19248, Note_on_c, 1, 60, 65
4, 19271, Note_on_c, 1, 60, 0
4, 19272, Note_on_c, 1, 67, 65
4, 19295, Note_on_c, 1, 67, 0
4, 19296, Note_on_c, 1, 55, 65
4, 19319, Note_on_c, 1, 55, 0
4, 19320, Note_on_c, 1, 67, 65
4, 19343, Note_on_c, 1, 67, 0
4, 19344, Note_on_c, 1, 57, 65
4, 19367, Note_on_c, 1, 57, 0
4, 19368, Note_on_c, 1, 67, 65
4, 19391, Note_on_c, 1, 67, 0
4, 19392, Note_on_c, 1, 59, 65
4, 19415, Note_on_c, 1, 59, 0
4, 19416, Note_on_c, 1, 67, 65
4, 19439, Note_on_c, 1, 67, 0
4, 19440, Note_on_c, 1, 60, 65
4, 19463, Note_on_c, 1, 60, 0
4, 19464, Note_on_c, 1, 67, 65
4, 19487, Note_on_c, 1, 67, 0
4, 19488, Note_on_c, 1, 60, 65
4, 19511, Note_on_c, 1, 60, 0
4, 19512, Note_on_c, 1, 67, 65
4, 19535, Note_on_c, 1, 67, 0
4, 19536, Note_on_c, 1, 60, 65
4, 19559, Note_on_c, 1, 60, 0
4, 19560, Note_on_c, 1, 67, 65
4, 19583, Note_on_c, 1, 67, 0
4, 19584, Note_on_c, 1, 55, 65
4, 19607, Note_on_c, 1, 55, 0
4, 19608, Note_on_c, 1, 67, 65
4, 19631, Note_on_c, 1, 67, 0
4, 19632, Note_on_c, 1, 57, 65
4, 19655, Note_on_c, 1, 57, 0
4, 19656, Note_on_c, 1, 67, 65
4, 19679, Note_on_c, 1, 67, 0
4, 19680, Note_on_c, 1, 59, 65
4, 19703, Note_on_c, 1, 59, 0
4, 19704, Note_on_c, 1, 67, 65
4, 19727, Note_on_c, 1, 67, 0
4, 19728, Note_on_c, 1, 60, 65
4, 19751, Note_on_c, 1, 60, 0
4, 19752, Note_on_c, 1, 67, 65
4, 19775, Note_on_c, 1, 67, 0
4, 19776, Note_on_c, 1, 60, 65
4, 19799, Note_on_c, 1, 60, 0
4, 19800, Note_on_c, 1, 67, 65
4, 19823, Note_on_c, 1, 67, 0
4, 19824, Note_on_c, 1, 60, 65
4, 19847, Note_on_c, 1, 60, 0
4, 19848, Note_on_c, 1, 67, 65
4, 19871, Note_on_c, 1, 67, 0
4, 19872, Note_on_c, 1, 61, 65
4, 19895, Note_on_c, 1, 61, 0
4, 19896, Note_on_c, 1, 70, 65
4, 19919, Note_on_c, 1, 70, 0
4, 19920, Note_on_c, 1, 61, 65
4, 19943, Note_on_c, 1, 61, 0
4, 19944, Note_on_c, 1, 70, 65
4, 19967, Note_on_c, 1, 70, 0
4, 19968, Note_on_c, 1, 61, 65
4, 19991, Note_on_c, 1, 61, 0
4, 19992, Note_on_c, 1, 70, 65
4, 20015, Note_on_c, 1, 70, 0
4, 20016, Note_on_c, 1, 62, 65
4, 20039, Note_on_c, 1, 62, 0
4, 20040, Note_on_c, 1, 69, 65
4, 20063, Note_on_c, 1, 69, 0
4, 20064, Note_on_c, 1, 62, 65
4, 20087, Note_on_c, 1, 62, 0
4, 20088, Note_on_c, 1, 69, 65
4, 20111, Note_on_c, 1, 69, 0
4, 20112, Note_on_c, 1, 62, 65
4, 20135, Note_on_c, 1, 62, 0
4, 20136, Note_on_c, 1, 69, 65
4, 20159, Note_on_c, 1, 69, 0
4, 20160, Note_on_c, 1, 64, 65
4, 20183, Note_on_c, 1, 64, 0
4, 20184, Note_on_c, 1, 67, 65
4, 20207, Note_on_c, 1, 67, 0
4, 20208, Note_on_c, 1, 64, 65
4, 20231, Note_on_c, 1, 64, 0
4, 20232, Note_on_c, 1, 67, 65
4, 20255, Note_on_c, 1, 67, 0
4, 20256, Note_on_c, 1, 64, 65
4, 20279, Note_on_c, 1, 64, 0
4, 20280, Note_on_c, 1, 67, 65
4, 20303, Note_on_c, 1, 67, 0
4, 20304, Note_on_c, 1, 66, 65
4, 20349, Note_on_c, 1, 66, 0
4, 20472, Note_on_c, 1, 62, 73
4, 20495, Note_on_c, 1, 62, 0
4, 20496, Note_on_c, 1, 64, 73
4, 20519, Note_on_c, 1, 64, 0
4, 20520, Note_on_c, 1, 66, 73
4, 20543, Note_on_c, 1, 66, 0
4, 20544, Note_on_c, 1, 67, 74
4, 20567, Note_on_c, 1, 67, 0
4, 20568, Note_on_c, 1, 69, 74
4, 20591, Note_on_c, 1, 69, 0
4, 20592, Note_on_c, 1, 71, 74
4, 20615, Note_on_c, 1, 71, 0
4, 20616, Note_on_c, 1, 69, 75
4, 20639, Note_on_c, 1, 69, 0
4, 20640, Note_on_c, 1, 67, 75
4, 20663, Note_on_c, 1, 67, 0
4, 20664, Note_on_c, 1, 69, 76
4, 20687, Note_on_c, 1, 69, 0
4, 20688, Note_on_c, 1, 71, 76
4, 20711, Note_on_c, 1, 71, 0
4, 20712, Note_on_c, 1, 73, 76
4, 20735, Note_on_c, 1, 73, 0
4, 20736, Note_on_c, 1, 74, 77
4, 20781, Note_on_c, 1, 74, 0
4, 20784, Note_on_c, 1, 69, 78
4, 20829, Note_on_c, 1, 69, 0
4, 20832, Note_on_c, 1, 66, 78
4, 20877, Note_on_c, 1, 66, 0
4, 20880, Note_on_c, 1, 62, 78
4, 20925, Note_on_c, 1, 62, 0
4, 20928, Note_on_c, 1, 57, 78
4, 20973, Note_on_c, 1, 57, 0
4, 20976, Note_on_c, 1, 54, 78
4, 21021, Note_on_c, 1, 54, 0
4, 21024, Note_on_c, 1, 50, 78
4, 21157, Note_on_c, 1, 50, 0
4, 21312, Note_on_c, 1, 43, 73
4, 21312, Note_on_c, 1, 31, 73
4, 21401, Note_on_c, 1, 43, 0
4, 21401, Note_on_c, 1, 31, 0
4, 21552, Note_on_c, 1, 59, 69
4, 21552, Note_on_c, 1, 55, 69
4, 21597, Note_on_c, 1, 59, 0
4, 21597, Note_on_c, 1, 55, 0
4, 21600, Note_on_c, 1, 60, 69
4, 21600, Note_on_c, 1, 57, 69
4, 21689, Note_on_c, 1, 60, 0
4, 21689, Note_on_c, 1, 57, 0
4, 21792, Note_on_c, 1, 66, 69
4, 21792, Note_on_c, 1, 62, 69
4, 21840, Note_on_c, 1, 62, 0
4, 21840, Note_on_c, 1, 69, 69
4, 21885, Note_on_c, 1, 69, 0
4, 21885, Note_on_c, 1, 66, 0
4, 21888, Note_on_c, 1, 71, 69
4, 21888, Note_on_c, 1, 67, 69
4, 21977, Note_on_c, 1, 71, 0
4, 21977, Note_on_c, 1, 67, 0
4, 21984, Note_on_c, 1, 71, 69
4, 22029, Note_on_c, 1, 71, 0
4, 22032, Note_on_c, 1, 72, 69
4, 22077, Note_on_c, 1, 72, 0
4, 22080, Note_on_c, 1, 71, 69
4, 22125, Note_on_c, 1, 71, 0
4, 22128, Note_on_c, 1, 69, 69
4, 22173, Note_on_c, 1, 69, 0
4, 22176, Note_on_c, 1, 67, 69
4, 22221, Note_on_c, 1, 67, 0
4, 22224, Note_on_c, 1, 66, 69
4, 22269, Note_on_c, 1, 66, 0
4, 22272, Note_on_c, 1, 67, 69
4, 22317, Note_on_c, 1, 67, 0
4, 22320, Note_on_c, 1, 72, 69
4, 22365, Note_on_c, 1, 72, 0
4, 22368, Note_on_c, 1, 71, 69
4, 22413, Note_on_c, 1, 71, 0
4, 22416, Note_on_c, 1, 69, 69
4, 22461, Note_on_c, 1, 69, 0
4, 22464, Note_on_c, 1, 71, 69
4, 22597, Note_on_c, 1, 71, 0
4, 22608, Note_on_c, 1, 69, 69
4, 22741, Note_on_c, 1, 69, 0
4, 22752, Note_on_c, 1, 67, 69
4, 22885, Note_on_c, 1, 67, 0
4, 23040, Note_on_c, 1, 43, 73
4, 23040, Note_on_c, 1, 31, 73
4, 23129, Note_on_c, 1, 43, 0
4, 23129, Note_on_c, 1, 31, 0
4, 23280, Note_on_c, 1, 59, 69
4, 23280, Note_on_c, 1, 55, 69
4, 23325, Note_on_c, 1, 59, 0
4, 23325, Note_on_c, 1, 55, 0
4, 23328, Note_on_c, 1, 60, 69
4, 23328, Note_on_c, 1, 57, 69
4, 23417, Note_on_c, 1, 60, 0
4, 23417, Note_on_c, 1, 57, 0
4, 23520, Note_on_c, 1, 66, 69
4, 23520, Note_on_c, 1, 62, 69
4, 23568, Note_on_c, 1, 62, 0
4, 23568, Note_on_c, 1, 69, 69
4, 23613, Note_on_c, 1, 69, 0
4, 23613, Note_on_c, 1, 66, 0
4, 23616, Note_on_c, 1, 71, 69
4, 23616, Note_on_c, 1, 67, 69
4, 23705, Note_on_c, 1, 71, 0
4, 23705, Note_on_c, 1, 67, 0
4, 23712, Note_on_c, 1, 71, 69
4, 23757, Note_on_c, 1, 71, 0
4, 23760, Note_on_c, 1, 72, 69
4, 23805, Note_on_c, 1, 72, 0
4, 23808, Note_on_c, 1, 71, 69
4, 23853, Note_on_c, 1, 71, 0
4, 23856, Note_on_c, 1, 69, 69
4, 23901, Note_on_c, 1, 69, 0
4, 23904, Note_on_c, 1, 67, 69
4, 23949, Note_on_c, 1, 67, 0
4, 23952, Note_on_c, 1, 66, 69
4, 23997, Note_on_c, 1, 66, 0
4, 24000, Note_on_c, 1, 67, 69
4, 24045, Note_on_c, 1, 67, 0
4, 24048, Note_on_c, 1, 64, 69
4, 24093, Note_on_c, 1, 64, 0
4, 24096, Note_on_c, 1, 66, 69
4, 24141, Note_on_c, 1, 66, 0
4, 24144, Note_on_c, 1, 63, 69
4, 24189, Note_on_c, 1, 63, 0
4, 24192, Note_on_c, 1, 64, 69
4, 24237, Note_on_c, 1, 64, 0
4, 24240, Note_on_c, 1, 60, 69
4, 24285, Note_on_c, 1, 60, 0
4, 24288, Note_on_c, 1, 61, 69
4, 24333, Note_on_c, 1, 61, 0
4, 24336, Note_on_c, 1, 62, 69
4, 24381, Note_on_c, 1, 62, 0
4, 24384, Note_on_c, 1, 63, 69
4, 24429, Note_on_c, 1, 63, 0
4, 24432, Note_on_c, 1, 64, 69
4, 24477, Note_on_c, 1, 64, 0
4, 24480, Note_on_c, 1, 71, 69
4, 24613, Note_on_c, 1, 71, 0
4, 24624, Note_on_c, 1, 69, 69
4, 24757, Note_on_c, 1, 69, 0
4, 25632, Note_on_c, 1, 67, 78
4, 25632, Note_on_c, 1, 55, 78
4, 25721, Note_on_c, 1, 67, 0
4, 25721, Note_on_c, 1, 55, 0
4, 25920, Note_on_c, 1, 40, 65
4, 25940, Note_on_c, 1, 40, 0
4, 25968, Note_on_c, 1, 44, 65
4, 25988, Note_on_c, 1, 44, 0
4, 26016, Note_on_c, 1, 47, 65
4, 26036, Note_on_c, 1, 47, 0
4, 26064, Note_on_c, 1, 52, 65
4, 26109, Note_on_c, 1, 52, 0
4, 26208, Note_on_c, 1, 40, 65
4, 26228, Note_on_c, 1, 40, 0
4, 26256, Note_on_c, 1, 45, 65
4, 26276, Note_on_c, 1, 45, 0
4, 26304, Note_on_c, 1, 48, 65
4, 26324, Note_on_c, 1, 48, 0
4, 26352, Note_on_c, 1, 52, 65
4, 26397, Note_on_c, 1, 52, 0
4, 26496, Note_on_c, 1, 40, 65
4, 26516, Note_on_c, 1, 40, 0
4, 26544, Note_on_c, 1, 44, 65
4, 26564, Note_on_c, 1, 44, 0
4, 26592, Note_on_c, 1, 47, 65
4, 26612, Note_on_c, 1, 47, 0
4, 26640, Note_on_c, 1, 52, 65
4, 26685, Note_on_c, 1, 52, 0
4, 26784, Note_on_c, 1, 40, 65
4, 26804, Note_on_c, 1, 40, 0
4, 26832, Note_on_c, 1, 45, 65
4, 26852, Note_on_c, 1, 45, 0
4, 26880, Note_on_c, 1, 48, 65
4, 26900, Note_on_c, 1, 48, 0
4, 26928, Note_on_c, 1, 52, 65
4, 26973, Note_on_c, 1, 52, 0
4, 27072, Note_on_c, 1, 40, 65
4, 27092, Note_on_c, 1, 40, 0
4, 27120, Note_on_c, 1, 44, 65
4, 27140, Note_on_c, 1, 44, 0
4, 27168, Note_on_c, 1, 47, 65
4, 27188, Note_on_c, 1, 47, 0
4, 27216, Note_on_c, 1, 52, 65
4, 27261, Note_on_c, 1, 52, 0
4, 27360, Note_on_c, 1, 48, 78
4, 27360, Note_on_c, 1, 36, 78
4, 27405, Note_on_c, 1, 48, 0
4, 27405, Note_on_c, 1, 36, 0
4, 27408, Note_on_c, 1, 52, 78
4, 27408, Note_on_c, 1, 40, 78
4, 27453, Note_on_c, 1, 52, 0
4, 27453, Note_on_c, 1, 40, 0
4, 27456, Note_on_c, 1, 55, 78
4, 27456, Note_on_c, 1, 43, 78
4, 27501, Note_on_c, 1, 55, 0
4, 27501, Note_on_c, 1, 43, 0
4, 27504, Note_on_c, 1, 60, 78
4, 27504, Note_on_c, 1, 48, 78
4, 27593, Note_on_c, 1, 60, 0
4, 27593, Note_on_c, 1, 48, 0
4, 27648, Note_on_c, 1, 50, 78
4, 27648, Note_on_c, 1, 38, 78
4, 27693, Note_on_c, 1, 50, 0
4, 27693, Note_on_c, 1, 38, 0
4, 27696, Note_on_c, 1, 53, 78
4, 27696, Note_on_c, 1, 41, 78
4, 27741, Note_on_c, 1, 53, 0
4, 27741, Note_on_c, 1, 41, 0
4, 27744, Note_on_c, 1, 55, 78
4, 27744, Note_on_c, 1, 43, 78
4, 27789, Note_on_c, 1, 55, 0
4, 27789, Note_on_c, 1, 43, 0
4, 27792, Note_on_c, 1, 59, 78
4, 27792, Note_on_c, 1, 47, 78
4, 27837, Note_on_c, 1, 59, 0
4, 27837, Note_on_c, 1, 47, 0
4, 27936, Note_on_c, 1, 48, 65
4, 27984, Note_on_c, 1, 52, 65
4, 28032, Note_on_c, 1, 55, 65
4, 28080, Note_on_c, 1, 60, 65
4, 28213, Note_on_c, 1, 60, 0
4, 28213, Note_on_c, 1, 55, 0
4, 28213, Note_on_c, 1, 52, 0
4, 28213, Note_on_c, 1, 48, 0
4, 28224, Note_on_c, 1, 50, 66
4, 28272, Note_on_c, 1, 53, 66
4, 28320, Note_on_c, 1, 55, 66
4, 28368, Note_on_c, 1, 62, 66
4, 28501, Note_on_c, 1, 62, 0
4, 28501, Note_on_c, 1, 55, 0
4, 28501, Note_on_c, 1, 53, 0
4, 28501, Note_on_c, 1, 50, 0
4, 28512, Note_on_c, 1, 52, 67
4, 28560, Note_on_c, 1, 55, 67
4, 28608, Note_on_c, 1, 58, 67
4, 28656, Note_on_c, 1, 61, 67
4, 28789, Note_on_c, 1, 61, 0
4, 28789, Note_on_c, 1, 58, 0
4, 28789, Note_on_c, 1, 55, 0
4, 28789, Note_on_c, 1, 52, 0
4, 28800, Note_on_c, 1, 53, 68
4, 28848, Note_on_c, 1, 57, 68
4, 28896, Note_on_c, 1, 61, 68
4, 28944, Note_on_c, 1, 61, 0
4, 28944, Note_on_c, 1, 62, 68
4, 29077, Note_on_c, 1, 62, 0
4, 29077, Note_on_c, 1, 57, 0
4, 29077, Note_on_c, 1, 53, 0
4, 29088, Note_on_c, 1, 52, 69
4, 29136, Note_on_c, 1, 55, 69
4, 29184, Note_on_c, 1, 58, 69
4, 29232, Note_on_c, 1, 61, 69
4, 29365, Note_on_c, 1, 61, 0
4, 29365, Note_on_c, 1, 58, 0
4, 29365, Note_on_c, 1, 55, 0
4, 29365, Note_on_c, 1, 52, 0
4, 29376, Note_on_c, 1, 54, 70
4, 29424, Note_on_c, 1, 57, 70
4, 29472, Note_on_c, 1, 60, 70
4, 29520, Note_on_c, 1, 63, 70
4, 29653, Note_on_c, 1, 63, 0
4, 29653, Note_on_c, 1, 60, 0
4, 29653, Note_on_c, 1, 57, 0
4, 29653, Note_on_c, 1, 54, 0
4, 29664, Note_on_c, 1, 55, 71
4, 29712, Note_on_c, 1, 59, 71
4, 29760, Note_on_c, 1, 63, 71
4, 29808, Note_on_c, 1, 63, 0
4, 29808, Note_on_c, 1, 64, 71
4, 29941, Note_on_c, 1, 64, 0
4, 29941, Note_on_c, 1, 59, 0
4, 29941, Note_on_c, 1, 55, 0
4, 29952, Note_on_c, 1, 54, 72
4, 30000, Note_on_c, 1, 58, 72
4, 30048, Note_on_c, 1, 61, 72
4, 30096, Note_on_c, 1, 64, 72
4, 30229, Note_on_c, 1, 64, 0
4, 30229, Note_on_c, 1, 61, 0
4, 30229, Note_on_c, 1, 58, 0
4, 30229, Note_on_c, 1, 54, 0
4, 30240, Note_on_c, 1, 59, 73
4, 30288, Note_on_c, 1, 62, 73
4, 30336, Note_on_c, 1, 66, 73
4, 30384, Note_on_c, 1, 71, 73
4, 30517, Note_on_c, 1, 71, 0
4, 30517, Note_on_c, 1, 66, 0
4, 30517, Note_on_c, 1, 62, 0
4, 30517, Note_on_c, 1, 59, 0
4, 30528, Note_on_c, 1, 61, 73
4, 30576, Note_on_c, 1, 64, 73
4, 30624, Note_on_c, 1, 67, 73
4, 30672, Note_on_c, 1, 70, 73
4, 30805, Note_on_c, 1, 70, 0
4, 30805, Note_on_c, 1, 67, 0
4, 30805, Note_on_c, 1, 64, 0
4, 30805, Note_on_c, 1, 61, 0
4, 30816, Note_on_c, 1, 62, 73
4, 30864, Note_on_c, 1, 66, 73
4, 30912, Note_on_c, 1, 70, 73
4, 30960, Note_on_c, 1, 70, 0
4, 30960, Note_on_c, 1, 71, 73
4, 31093, Note_on_c, 1, 71, 0
4, 31093, Note_on_c, 1, 66, 0
4, 31093, Note_on_c, 1, 62, 0
4, 31104, Note_on_c, 1, 64, 69
4, 31149, Note_on_c, 1, 64, 0
4, 31152, Note_on_c, 1, 62, 69
4, 31197, Note_on_c, 1, 62, 0
4, 31200, Note_on_c, 1, 61, 69
4, 31245, Note_on_c, 1, 61, 0
4, 31248, Note_on_c, 1, 59, 69
4, 31337, Note_on_c, 1, 59, 0
4, 31392, Note_on_c, 1, 67, 69
4, 31437, Note_on_c, 1, 67, 0
4, 31440, Note_on_c, 1, 66, 69
4, 31485, Note_on_c, 1, 66, 0
4, 31488, Note_on_c, 1, 64, 69
4, 31533, Note_on_c, 1, 64, 0
4, 31536, Note_on_c, 1, 62, 69
4, 31625, Note_on_c, 1, 62, 0
4, 31680, Note_on_c, 1, 76, 69
4, 31725, Note_on_c, 1, 76, 0
4, 31728, Note_on_c, 1, 74, 69
4, 31773, Note_on_c, 1, 74, 0
4, 31776, Note_on_c, 1, 73, 69
4, 31821, Note_on_c, 1, 73, 0
4, 31824, Note_on_c, 1, 71, 69
4, 31913, Note_on_c, 1, 71, 0
4, 31968, Note_on_c, 1, 67, 69
4, 32013, Note_on_c, 1, 67, 0
4, 32016, Note_on_c, 1, 66, 69
4, 32061, Note_on_c, 1, 66, 0
4, 32064, Note_on_c, 1, 64, 69
4, 32109, Note_on_c, 1, 64, 0
4, 32112, Control_c, 1, 64, 127
4, 32112, Note_on_c, 1, 62, 69
4, 32135, Note_on_c, 1, 62, 0
4, 32136, Note_on_c, 1, 66, 69
4, 32159, Note_on_c, 1, 66, 0
4, 32160, Note_on_c, 1, 62, 69
4, 32183, Note_on_c, 1, 62, 0
4, 32184, Note_on_c, 1, 66, 69
4, 32207, Note_on_c, 1, 66, 0
4, 32208, Note_on_c, 1, 62, 69
4, 32231, Note_on_c, 1, 62, 0
4, 32232, Control_c, 1, 64, 0
4, 32232, Note_on_c, 1, 66, 69
4, 32255, Note_on_c, 1, 66, 0
4, 32256, Control_c, 1, 64, 127
4, 32256, Note_on_c, 1, 64, 69
4, 32279, Note_on_c, 1, 64, 0
4, 32280, Note_on_c, 1, 67, 69
4, 32303, Note_on_c, 1, 67, 0
4, 32304, Note_on_c, 1, 64, 69
4, 32327, Note_on_c, 1, 64, 0
4, 32328, Note_on_c, 1, 67, 69
4, 32351, Note_on_c, 1, 67, 0
4, 32352, Note_on_c, 1, 64, 69
4, 32375, Note_on_c, 1, 64, 0
4, 32376, Control_c, 1, 64, 0
4, 32376, Note_on_c, 1, 67, 69
4, 32399, Note_on_c, 1, 67, 0
4, 32400, Control_c, 1, 64, 127
4, 32400, Note_on_c, 1, 66, 69
4, 32423, Note_on_c, 1, 66, 0
4, 32424, Note_on_c, 1, 70, 69
4, 32447, Note_on_c, 1, 70, 0
4, 32448, Note_on_c, 1, 66, 69
4, 32471, Note_on_c, 1, 66, 0
4, 32472, Note_on_c, 1, 70, 69
4, 32495, Note_on_c, 1, 70, 0
4, 32496, Note_on_c, 1, 66, 69
4, 32519, Note_on_c, 1, 66, 0
4, 32520, Control_c, 1, 64, 0
4, 32520, Note_on_c, 1, 70, 69
4, 32543, Note_on_c, 1, 70, 0
4, 32544, Control_c, 1, 64, 127
4, 32544, Note_on_c, 1, 67, 69
4, 32567, Note_on_c, 1, 67, 0
4, 32568, Note_on_c, 1, 71, 69
4, 32591, Note_on_c, 1, 71, 0
4, 32592, Note_on_c, 1, 67, 69
4, 32615, Note_on_c, 1, 67, 0
4, 32616, Note_on_c, 1, 71, 69
4, 32639, Note_on_c, 1, 71, 0
4, 32640, Note_on_c, 1, 67, 69
4, 32663, Note_on_c, 1, 67, 0
4, 32664, Control_c, 1, 64, 0
4, 32664, Note_on_c, 1, 71, 69
4, 32687, Note_on_c, 1, 71, 0
4, 32688, Control_c, 1, 64, 127
4, 32688, Note_on_c, 1, 62, 69
4, 32711, Note_on_c, 1, 62, 0
4, 32712, Note_on_c, 1, 66, 69
4, 32735, Note_on_c, 1, 66, 0
4, 32736, Note_on_c, 1, 62, 69
4, 32759, Note_on_c, 1, 62, 0
4, 32760, Note_on_c, 1, 66, 69
4, 32783, Note_on_c, 1, 66, 0
4, 32784, Note_on_c, 1, 62, 69
4, 32807, Note_on_c, 1, 62, 0
4, 32808, Control_c, 1, 64, 0
4, 32808, Note_on_c, 1, 66, 69
4, 32831, Note_on_c, 1, 66, 0
4, 32832, Control_c, 1, 64, 127
4, 32832, Note_on_c, 1, 64, 69
4, 32855, Note_on_c, 1, 64, 0
4, 32856, Note_on_c, 1, 67, 69
4, 32879, Note_on_c, 1, 67, 0
4, 32880, Note_on_c, 1, 64, 69
4, 32903, Note_on_c, 1, 64, 0
4, 32904, Note_on_c, 1, 67, 69
4, 32927, Note_on_c, 1, 67, 0
4, 32928, Note_on_c, 1, 64, 69
4, 32951, Note_on_c, 1, 64, 0
4, 32952, Control_c, 1, 64, 0
4, 32952, Note_on_c, 1, 67, 69
4, 32975, Note_on_c, 1, 67, 0
4, 32976, Note_on_c, 1, 66, 69
4, 33021, Note_on_c, 1, 66, 0
4, 33120, Note_on_c, 1, 59, 69
4, 33209, Note_on_c, 1, 59, 0
4, 33312, Note_on_c, 1, 66, 69
4, 33312, Note_on_c, 1, 62, 69
4, 33357, Note_on_c, 1, 66, 0
4, 33357, Note_on_c, 1, 62, 0
4, 33360, Note_on_c, 1, 64, 69
4, 33360, Note_on_c, 1, 61, 69
4, 33405, Note_on_c, 1, 64, 0
4, 33405, Note_on_c, 1, 61, 0
4, 33408, Note_on_c, 1, 62, 69
4, 33408, Note_on_c, 1, 59, 69
4, 33453, Note_on_c, 1, 62, 0
4, 33453, Note_on_c, 1, 59, 0
4, 33600, Note_on_c, 1, 62, 73
4, 33600, Note_on_c, 1, 59, 73
4, 33645, Note_on_c, 1, 62, 0
4, 33645, Note_on_c, 1, 59, 0
4, 33648, Note_on_c, 1, 60, 73
4, 33648, Note_on_c, 1, 57, 73
4, 33693, Note_on_c, 1, 60, 0
4, 33693, Note_on_c, 1, 57, 0
4, 33696, Note_on_c, 1, 59, 73
4, 33696, Note_on_c, 1, 55, 73
4, 33741, Note_on_c, 1, 59, 0
4, 33741, Note_on_c, 1, 55, 0
4, 33888, Note_on_c, 1, 59, 73
4, 33888, Note_on_c, 1, 55, 73
4, 33933, Note_on_c, 1, 59, 0
4, 33933, Note_on_c, 1, 55, 0
4, 33936, Note_on_c, 1, 57, 73
4, 33936, Note_on_c, 1, 54, 73
4, 33981, Note_on_c, 1, 57, 0
4, 33981, Note_on_c, 1, 54, 0
4, 33984, Note_on_c, 1, 55, 73
4, 33984, Note_on_c, 1, 52, 73
4, 34029, Note_on_c, 1, 55, 0
4, 34029, Note_on_c, 1, 52, 0
4, 34176, Note_on_c, 1, 55, 73
4, 34176, Note_on_c, 1, 52, 73
4, 34221, Note_on_c, 1, 55, 0
4, 34221, Note_on_c, 1, 52, 0
4, 34224, Note_on_c, 1, 53, 73
4, 34224, Note_on_c, 1, 50, 73
4, 34269, Note_on_c, 1, 53, 0
4, 34269, Note_on_c, 1, 50, 0
4, 34272, Note_on_c, 1, 52, 73
4, 34272, Note_on_c, 1, 48, 73
4, 34317, Note_on_c, 1, 52, 0
4, 34317, Note_on_c, 1, 48, 0
4, 34464, Note_on_c, 1, 52, 73
4, 34464, Note_on_c, 1, 48, 73
4, 34509, Note_on_c, 1, 52, 0
4, 34509, Note_on_c, 1, 48, 0
4, 34512, Note_on_c, 1, 50, 73
4, 34512, Note_on_c, 1, 47, 73
4, 34557, Note_on_c, 1, 50, 0
4, 34557, Note_on_c, 1, 47, 0
4, 34560, Note_on_c, 1, 48, 73
4, 34560, Note_on_c, 1, 45, 73
4, 34605, Note_on_c, 1, 48, 0
4, 34605, Note_on_c, 1, 45, 0
4, 34752, Note_on_c, 1, 48, 73
4, 34752, Note_on_c, 1, 45, 73
4, 34797, Note_on_c, 1, 48, 0
4, 34797, Note_on_c, 1, 45, 0
4, 34800, Note_on_c, 1, 47, 73
4, 34800, Note_on_c, 1, 43, 73
4, 34845, Note_on_c, 1, 47, 0
4, 34845, Note_on_c, 1, 43, 0
4, 34848, Note_on_c, 1, 45, 73
4, 34848, Note_on_c, 1, 42, 73
4, 34893, Note_on_c, 1, 45, 0
4, 34893, Note_on_c, 1, 42, 0
4, 35040, Note_on_c, 1, 45, 72
4, 35040, Note_on_c, 1, 42, 72
4, 35085, Note_on_c, 1, 45, 0
4, 35085, Note_on_c, 1, 42, 0
4, 35088, Note_on_c, 1, 43, 72
4, 35088, Note_on_c, 1, 40, 72
4, 35133, Note_on_c, 1, 43, 0
4, 35133, Note_on_c, 1, 40, 0
4, 35136, Note_on_c, 1, 42, 71
4, 35136, Note_on_c, 1, 39, 71
4, 35413, Note_on_c, 1, 42, 0
4, 35413, Note_on_c, 1, 39, 0
4, 35424, Note_on_c, 1, 40, 65
4, 35444, Note_on_c, 1, 40, 0
4, 35472, Note_on_c, 1, 43, 65
4, 35492, Note_on_c, 1, 43, 0
4, 35520, Note_on_c, 1, 47, 65
4, 35540, Note_on_c, 1, 47, 0
4, 35568, Note_on_c, 1, 52, 65
4, 35613, Note_on_c, 1, 52, 0
4, 35712, Note_on_c, 1, 40, 65
4, 35732, Note_on_c, 1, 40, 0
4, 35760, Note_on_c, 1, 43, 65
4, 35780, Note_on_c, 1, 43, 0
4, 35808, Note_on_c, 1, 47, 65
4, 35828, Note_on_c, 1, 47, 0
4, 35856, Note_on_c, 1, 52, 65
4, 35901, Note_on_c, 1, 52, 0
4, 36000, Note_on_c, 1, 52, 65
4, 36048, Note_on_c, 1, 55, 65
4, 36096, Note_on_c, 1, 59, 65
4, 36144, Note_on_c, 1, 64, 65
4, 36277, Note_on_c, 1, 64, 0
4, 36277, Note_on_c, 1, 59, 0
4, 36277, Note_on_c, 1, 55, 0
4, 36277, Note_on_c, 1, 52, 0
4, 36288, Note_on_c, 1, 54, 73
4, 36336, Note_on_c, 1, 57, 73
4, 36384, Note_on_c, 1, 60, 73
4, 36432, Note_on_c, 1, 63, 73
4, 36565, Note_on_c, 1, 63, 0
4, 36565, Note_on_c, 1, 60, 0
4, 36565, Note_on_c, 1, 57, 0
4, 36565, Note_on_c, 1, 54, 0
4, 36576, Note_on_c, 1, 55, 73
4, 36624, Note_on_c, 1, 59, 73
4, 36672, Note_on_c, 1, 63, 73
4, 36720, Note_on_c, 1, 63, 0
4, 36720, Note_on_c, 1, 64, 73
4, 36853, Note_on_c, 1, 64, 0
4, 36853, Note_on_c, 1, 59, 0
4, 36853, Note_on_c, 1, 55, 0
4, 36864, Note_on_c, 1, 57, 73
4, 36909, Note_on_c, 1, 57, 0
4, 36912, Note_on_c, 1, 66, 73
4, 36957, Note_on_c, 1, 66, 0
4, 36960, Note_on_c, 1, 64, 73
4, 37005, Note_on_c, 1, 64, 0
4, 37008, Note_on_c, 1, 62, 73
4, 37097, Note_on_c, 1, 62, 0
4, 37152, Note_on_c, 1, 55, 73
4, 37197, Note_on_c, 1, 55, 0
4, 37200, Note_on_c, 1, 64, 73
4, 37245, Note_on_c, 1, 64, 0
4, 37248, Note_on_c, 1, 62, 73
4, 37293, Note_on_c, 1, 62, 0
4, 37296, Note_on_c, 1, 60, 73
4, 37385, Note_on_c, 1, 60, 0
4, 37440, Note_on_c, 1, 54, 73
4, 37485, Note_on_c, 1, 54, 0
4, 37488, Note_on_c, 1, 63, 73
4, 37533, Note_on_c, 1, 63, 0
4, 37536, Note_on_c, 1, 61, 73
4, 37581, Note_on_c, 1, 61, 0
4, 37584, Note_on_c, 1, 59, 73
4, 37673, Note_on_c, 1, 59, 0
4, 37728, Note_on_c, 1, 52, 73
4, 37751, Note_on_c, 1, 52, 0
4, 37752, Note_on_c, 1, 64, 73
4, 37775, Note_on_c, 1, 64, 0
4, 37776, Note_on_c, 1, 54, 73
4, 37799, Note_on_c, 1, 54, 0
4, 37800, Note_on_c, 1, 64, 73
4, 37823, Note_on_c, 1, 64, 0
4, 37824, Note_on_c, 1, 55, 73
4, 37847, Note_on_c, 1, 55, 0
4, 37848, Note_on_c, 1, 64, 73
4, 37871, Note_on_c, 1, 64, 0
4, 37872, Note_on_c, 1, 57, 73
4, 37895, Note_on_c, 1, 57, 0
4, 37896, Note_on_c, 1, 64, 73
4, 37919, Note_on_c, 1, 64, 0
4, 37920, Note_on_c, 1, 57, 73
4, 37943, Note_on_c, 1, 57, 0
4, 37944, Note_on_c, 1, 64, 73
4, 37967, Note_on_c, 1, 64, 0
4, 37968, Note_on_c, 1, 57, 73
4, 37991, Note_on_c, 1, 57, 0
4, 37992, Note_on_c, 1, 64, 73
4, 38015, Note_on_c, 1, 64, 0
4, 38016, Note_on_c, 1, 52, 73
4, 38039, Note_on_c, 1, 52, 0
4, 38040, Note_on_c, 1, 64, 73
4, 38063, Note_on_c, 1, 64, 0
4, 38064, Note_on_c, 1, 54, 73
4, 38087, Note_on_c, 1, 54, 0
4, 38088, Note_on_c, 1, 64, 73
4, 38111, Note_on_c, 1, 64, 0
4, 38112, Note_on_c, 1, 55, 73
4, 38135, Note_on_c, 1, 55, 0
4, 38136, Note_on_c, 1, 64, 73
4, 38159, Note_on_c, 1, 64, 0
4, 38160, Note_on_c, 1, 57, 73
4, 38183, Note_on_c, 1, 57, 0
4, 38184, Note_on_c, 1, 64, 73
4, 38207, Note_on_c, 1, 64, 0
4, 38208, Note_on_c, 1, 57, 73
4, 38231, Note_on_c, 1, 57, 0
4, 38232, Note_on_c, 1, 64, 73
4, 38255, Note_on_c, 1, 64, 0
4, 38256, Note_on_c, 1, 57, 73
4, 38279, Note_on_c, 1, 57, 0
4, 38280, Note_on_c, 1, 64, 73
4, 38303, Note_on_c, 1, 64, 0
4, 38304, Note_on_c, 1, 52, 73
4, 38327, Note_on_c, 1, 52, 0
4, 38328, Note_on_c, 1, 64, 73
4, 38351, Note_on_c, 1, 64, 0
4, 38352, Note_on_c, 1, 54, 73
4, 38375, Note_on_c, 1, 54, 0
4, 38376, Note_on_c, 1, 64, 73
4, 38399, Note_on_c, 1, 64, 0
4, 38400, Note_on_c, 1, 55, 73
4, 38423, Note_on_c, 1, 55, 0
4, 38424, Note_on_c, 1, 64, 73
4, 38447, Note_on_c, 1, 64, 0
4, 38448, Note_on_c, 1, 57, 73
4, 38471, Note_on_c, 1, 57, 0
4, 38472, Note_on_c, 1, 64, 73
4, 38495, Note_on_c, 1, 64, 0
4, 38496, Note_on_c, 1, 57, 73
4, 38519, Note_on_c, 1, 57, 0
4, 38520, Note_on_c, 1, 64, 73
4, 38543, Note_on_c, 1, 64, 0
4, 38544, Note_on_c, 1, 57, 73
4, 38567, Note_on_c, 1, 57, 0
4, 38568, Note_on_c, 1, 64, 73
4, 38591, Note_on_c, 1, 64, 0
4, 38592, Note_on_c, 1, 58, 73
4, 38615, Note_on_c, 1, 58, 0
4, 38616, Note_on_c, 1, 67, 73
4, 38639, Note_on_c, 1, 67, 0
4, 38640, Note_on_c, 1, 58, 73
4, 38663, Note_on_c, 1, 58, 0
4, 38664, Note_on_c, 1, 67, 73
4, 38687, Note_on_c, 1, 67, 0
4, 38688, Note_on_c, 1, 58, 73
4, 38711, Note_on_c, 1, 58, 0
4, 38712, Note_on_c, 1, 67, 73
4, 38735, Note_on_c, 1, 67, 0
4, 38736, Note_on_c, 1, 59, 73
4, 38759, Note_on_c, 1, 59, 0
4, 38760, Note_on_c, 1, 66, 73
4, 38783, Note_on_c, 1, 66, 0
4, 38784, Note_on_c, 1, 59, 73
4, 38807, Note_on_c, 1, 59, 0
4, 38808, Note_on_c, 1, 66, 73
4, 38831, Note_on_c, 1, 66, 0
4, 38832, Note_on_c, 1, 59, 73
4, 38855, Note_on_c, 1, 59, 0
4, 38856, Note_on_c, 1, 66, 73
4, 38879, Note_on_c, 1, 66, 0
4, 38880, Note_on_c, 1, 60, 73
4, 38903, Note_on_c, 1, 60, 0
4, 38904, Note_on_c, 1, 64, 73
4, 38927, Note_on_c, 1, 64, 0
4, 38928, Note_on_c, 1, 60, 73
4, 38951, Note_on_c, 1, 60, 0
4, 38952, Note_on_c, 1, 64, 73
4, 38975, Note_on_c, 1, 64, 0
4, 38976, Note_on_c, 1, 60, 73
4, 38999, Note_on_c, 1, 60, 0
4, 39000, Note_on_c, 1, 64, 73
4, 39023, Note_on_c, 1, 64, 0
4, 39024, Note_on_c, 1, 59, 73
4, 39113, Note_on_c, 1, 59, 0
4, 39192, Note_on_c, 1, 59, 73
4, 39215, Note_on_c, 1, 59, 0
4, 39216, Note_on_c, 1, 61, 73
4, 39239, Note_on_c, 1, 61, 0
4, 39240, Note_on_c, 1, 63, 73
4, 39263, Note_on_c, 1, 63, 0
4, 39264, Note_on_c, 1, 64, 74
4, 39287, Note_on_c, 1, 64, 0
4, 39288, Note_on_c, 1, 66, 74
4, 39311, Note_on_c, 1, 66, 0
4, 39312, Note_on_c, 1, 67, 74
4, 39335, Note_on_c, 1, 67, 0
4, 39336, Note_on_c, 1, 66, 75
4, 39359, Note_on_c, 1, 66, 0
4, 39360, Note_on_c, 1, 64, 75
4, 39383, Note_on_c, 1, 64, 0
4, 39384, Note_on_c, 1, 66, 76
4, 39407, Note_on_c, 1, 66, 0
4, 39408, Note_on_c, 1, 67, 76
4, 39431, Note_on_c, 1, 67, 0
4, 39432, Note_on_c, 1, 69, 76
4, 39455, Note_on_c, 1, 69, 0
4, 39456, Note_on_c, 1, 71, 77
4, 39501, Note_on_c, 1, 71, 0
4, 39504, Note_on_c, 1, 66, 78
4, 39549, Note_on_c, 1, 66, 0
4, 39552, Note_on_c, 1, 63, 78
4, 39597, Note_on_c, 1, 63, 0
4, 39600, Note_on_c, 1, 59, 78
4, 39645, Note_on_c, 1, 59, 0
4, 39648, Note_on_c, 1, 54, 78
4, 39693, Note_on_c, 1, 54, 0
4, 39696, Note_on_c, 1, 51, 78
4, 39741, Note_on_c, 1, 51, 0
4, 39744, Note_on_c, 1, 47, 78
4, 39981, Note_on_c, 1, 47, 0
4, 40032, Note_on_c, 1, 40, 73
4, 40121, Note_on_c, 1, 40, 0
4, 40272, Note_on_c, 1, 55, 69
4, 40272, Note_on_c, 1, 52, 69
4, 40317, Note_on_c, 1, 55, 0
4, 40317, Note_on_c, 1, 52, 0
4, 40320, Note_on_c, 1, 57, 69
4, 40320, Note_on_c, 1, 54, 69
4, 40409, Note_on_c, 1, 57, 0
4, 40409, Note_on_c, 1, 54, 0
4, 40512, Note_on_c, 1, 63, 69
4, 40512, Note_on_c, 1, 59, 69
4, 40560, Note_on_c, 1, 59, 0
4, 40560, Note_on_c, 1, 66, 69
4, 40605, Note_on_c, 1, 66, 0
4, 40605, Note_on_c, 1, 63, 0
4, 40608, Note_on_c, 1, 67, 69
4, 40697, Note_on_c, 1, 67, 0
4, 40704, Note_on_c, 1, 67, 69
4, 40749, Note_on_c, 1, 67, 0
4, 40752, Note_on_c, 1, 69, 69
4, 40797, Note_on_c, 1, 69, 0
4, 40800, Note_on_c, 1, 66, 69
4, 40845, Note_on_c, 1, 66, 0
4, 40848, Note_on_c, 1, 64, 69
4, 40893, Note_on_c, 1, 64, 0
4, 40896, Note_on_c, 1, 63, 69
4, 40941, Note_on_c, 1, 63, 0
4, 40944, Note_on_c, 1, 64, 69
4, 40989, Note_on_c, 1, 64, 0
4, 40992, Note_on_c, 1, 71, 69
4, 41037, Note_on_c, 1, 71, 0
4, 41040, Note_on_c, 1, 72, 69
4, 41173, Note_on_c, 1, 72, 0
4, 41184, Note_on_c, 1, 67, 69
4, 41317, Note_on_c, 1, 67, 0
4, 41328, Note_on_c, 1, 66, 69
4, 41461, Note_on_c, 1, 66, 0
4, 41472, Note_on_c, 1, 64, 69
4, 41605, Note_on_c, 1, 64, 0
4, 41760, Note_on_c, 1, 40, 73
4, 41849, Note_on_c, 1, 40, 0
4, 42000, Note_on_c, 1, 55, 69
4, 42000, Note_on_c, 1, 52, 69
4, 42045, Note_on_c, 1, 55, 0
4, 42045, Note_on_c, 1, 52, 0
4, 42048, Note_on_c, 1, 57, 69
4, 42048, Note_on_c, 1, 54, 69
4, 42137, Note_on_c, 1, 57, 0
4, 42137, Note_on_c, 1, 54, 0
4, 42240, Note_on_c, 1, 63, 69
4, 42240, Note_on_c, 1, 59, 69
4, 42288, Note_on_c, 1, 59, 0
4, 42288, Note_on_c, 1, 66, 69
4, 42333, Note_on_c, 1, 66, 0
4, 42333, Note_on_c, 1, 63, 0
4, 42336, Note_on_c, 1, 67, 69
4, 42425, Note_on_c, 1, 67, 0
4, 42432, Note_on_c, 1, 67, 69
4, 42477, Note_on_c, 1, 67, 0
4, 42480, Note_on_c, 1, 69, 69
4, 42525, Note_on_c, 1, 69, 0
4, 42528, Note_on_c, 1, 66, 69
4, 42573, Note_on_c, 1, 66, 0
4, 42576, Note_on_c, 1, 64, 69
4, 42621, Note_on_c, 1, 64, 0
4, 42624, Note_on_c, 1, 63, 69
4, 42669, Note_on_c, 1, 63, 0
4, 42672, Note_on_c, 1, 64, 69
4, 42717, Note_on_c, 1, 64, 0
4, 42720, Note_on_c, 1, 67, 69
4, 42765, Note_on_c, 1, 67, 0
4, 42768, Note_on_c, 1, 69, 69
4, 42813, Note_on_c, 1, 69, 0
4, 42816, Note_on_c, 1, 71, 69
4, 42861, Note_on_c, 1, 71, 0
4, 42864, Note_on_c, 1, 69, 69
4, 42909, Note_on_c, 1, 69, 0
4, 42912, Note_on_c, 1, 68, 69
4, 42957, Note_on_c, 1, 68, 0
4, 42960, Note_on_c, 1, 69, 69
4, 43005, Note_on_c, 1, 69, 0
4, 43008, Note_on_c, 1, 67, 69
4, 43053, Note_on_c, 1, 67, 0
4, 43056, Note_on_c, 1, 66, 69
4, 43101, Note_on_c, 1, 66, 0
4, 43104, Note_on_c, 1, 67, 69
4, 43149, Note_on_c, 1, 67, 0
4, 43152, Note_on_c, 1, 66, 69
4, 43197, Note_on_c, 1, 66, 0
4, 43200, Note_on_c, 1, 64, 69
4, 43245, Note_on_c, 1, 64, 0
4, 43248, Note_on_c, 1, 66, 69
4, 43293, Note_on_c, 1, 66, 0
4, 43296, Note_on_c, 1, 64, 69
4, 43341, Note_on_c, 1, 64, 0
4, 43344, Note_on_c, 1, 63, 69
4, 43389, Note_on_c, 1, 63, 0
4, 43392, Note_on_c, 1, 64, 69
4, 43437, Note_on_c, 1, 64, 0
4, 43440, Note_on_c, 1, 55, 69
4, 43485, Note_on_c, 1, 55, 0
4, 43488, Note_on_c, 1, 56, 69
4, 43533, Note_on_c, 1, 56, 0
4, 43536, Note_on_c, 1, 57, 69
4, 43581, Note_on_c, 1, 57, 0
4, 43584, Note_on_c, 1, 58, 69
4, 43629, Note_on_c, 1, 58, 0
4, 43632, Note_on_c, 1, 59, 69
4, 43677, Note_on_c, 1, 59, 0
4, 43680, Note_on_c, 1, 60, 69
4, 43725, Note_on_c, 1, 60, 0
4, 43728, Note_on_c, 1, 61, 69
4, 43773, Note_on_c, 1, 61, 0
4, 43776, Note_on_c, 1, 67, 69
4, 43909, Note_on_c, 1, 67, 0
4, 43920, Note_on_c, 1, 66, 69
4, 44053, Note_on_c, 1, 66, 0
4, 44064, Note_on_c, 1, 64, 78
4, 44064, Note_on_c, 1, 52, 78
4, 44153, Note_on_c, 1, 64, 0
4, 44153, Note_on_c, 1, 52, 0
4, 44160, Note_on_c, 1, 63, 78
4, 44160, Note_on_c, 1, 59, 78
4, 44205, Note_on_c, 1, 63, 0
4, 44205, Note_on_c, 1, 59, 0
4, 44208, Note_on_c, 1, 64, 78
4, 44208, Note_on_c, 1, 52, 78
4, 44297, Note_on_c, 1, 64, 0
4, 44297, Note_on_c, 1, 52, 0
4, 44304, Note_on_c, 1, 63, 78
4, 44304, Note_on_c, 1, 59, 78
4, 44349, Note_on_c, 1, 63, 0
4, 44349, Note_on_c, 1, 59, 0
4, 44352, Note_on_c, 1, 64, 78
4, 44352, Note_on_c, 1, 52, 78
4, 44441, Note_on_c, 1, 64, 0
4, 44441, Note_on_c, 1, 52, 0
4, 44448, Note_on_c, 1, 63, 78
4, 44448, Note_on_c, 1, 59, 78
4, 44493, Note_on_c, 1, 63, 0
4, 44493, Note_on_c, 1, 59, 0
4, 44496, Note_on_c, 1, 64, 78
4, 44496, Note_on_c, 1, 52, 78
4, 44585, Note_on_c, 1, 64, 0
4, 44585, Note_on_c, 1, 52, 0
4, 44592, Note_on_c, 1, 63, 78
4, 44592, Note_on_c, 1, 59, 78
4, 44637, Note_on_c, 1, 63, 0
4, 44637, Note_on_c, 1, 59, 0
4, 44640, Note_on_c, 1, 64, 69
4, 44663, Note_on_c, 1, 64, 0
4, 44664, Note_on_c, 1, 71, 69
4, 44687, Note_on_c, 1, 71, 0
4, 44688, Note_on_c, 1, 67, 69
4, 44711, Note_on_c, 1, 67, 0
4, 44712, Note_on_c, 1, 71, 69
4, 44735, Note_on_c, 1, 71, 0
4, 44736, Note_on_c, 1, 64, 69
4, 44759, Note_on_c, 1, 64, 0
4, 44760, Note_on_c, 1, 71, 69
4, 44783, Note_on_c, 1, 71, 0
4, 44784, Note_on_c, 1, 62, 69
4, 44807, Note_on_c, 1, 62, 0
4, 44808, Note_on_c, 1, 71, 69
4, 44831, Note_on_c, 1, 71, 0
4, 44832, Note_on_c, 1, 67, 69
4, 44855, Note_on_c, 1, 67, 0
4, 44856, Note_on_c, 1, 71, 69
4, 44879, Note_on_c, 1, 71, 0
4, 44880, Note_on_c, 1, 62, 69
4, 44903, Note_on_c, 1, 62, 0
4, 44904, Note_on_c, 1, 71, 69
4, 44927, Note_on_c, 1, 71, 0
4, 44928, Note_on_c, 1, 60, 78
4, 45017, Note_on_c, 1, 60, 0
4, 45024, Note_on_c, 1, 71, 78
4, 45024, Note_on_c, 1, 67, 78
4, 45069, Note_on_c, 1, 71, 0
4, 45069, Note_on_c, 1, 67, 0
4, 45072, Note_on_c, 1, 72, 78
4, 45072, Note_on_c, 1, 60, 78
4, 45161, Note_on_c, 1, 72, 0
4, 45161, Note_on_c, 1, 60, 0
4, 45168, Note_on_c, 1, 71, 78
4, 45168, Note_on_c, 1, 67, 78
4, 45213, Note_on_c, 1, 71, 0
4, 45213, Note_on_c, 1, 67, 0
4, 45216, Note_on_c, 1, 72, 78
4, 45216, Note_on_c, 1, 60, 78
4, 45305, Note_on_c, 1, 72, 0
4, 45305, Note_on_c, 1, 60, 0
4, 45312, Note_on_c, 1, 71, 78
4, 45312, Note_on_c, 1, 67, 78
4, 45357, Note_on_c, 1, 71, 0
4, 45357, Note_on_c, 1, 67, 0
4, 45360, Note_on_c, 1, 72, 78
4, 45360, Note_on_c, 1, 60, 78
4, 45449, Note_on_c, 1, 72, 0
4, 45449, Note_on_c, 1, 60, 0
4, 45456, Note_on_c, 1, 71, 78
4, 45456, Note_on_c, 1, 67, 78
4, 45501, Note_on_c, 1, 71, 0
4, 45501, Note_on_c, 1, 67, 0
4, 45504, Note_on_c, 1, 72, 69
4, 45527, Note_on_c, 1, 72, 0
4, 45528, Note_on_c, 1, 76, 69
4, 45551, Note_on_c, 1, 76, 0
4, 45552, Note_on_c, 1, 72, 69
4, 45575, Note_on_c, 1, 72, 0
4, 45576, Note_on_c, 1, 76, 69
4, 45599, Note_on_c, 1, 76, 0
4, 45600, Note_on_c, 1, 72, 69
4, 45623, Note_on_c, 1, 72, 0
4, 45624, Note_on_c, 1, 76, 69
4, 45647, Note_on_c, 1, 76, 0
4, 45648, Note_on_c, 1, 71, 69
4, 45671, Note_on_c, 1, 71, 0
4, 45672, Note_on_c, 1, 74, 69
4, 45695, Note_on_c, 1, 74, 0
4, 45696, Note_on_c, 1, 71, 69
4, 45719, Note_on_c, 1, 71, 0
4, 45720, Note_on_c, 1, 74, 69
4, 45743, Note_on_c, 1, 74, 0
4, 45744, Note_on_c, 1, 71, 69
4, 45767, Note_on_c, 1, 71, 0
4, 45768, Note_on_c, 1, 74, 69
4, 45791, Note_on_c, 1, 74, 0
4, 45792, Note_on_c, 1, 69, 69
4, 45815, Note_on_c, 1, 69, 0
4, 45816, Note_on_c, 1, 72, 69
4, 45839, Note_on_c, 1, 72, 0
4, 45840, Note_on_c, 1, 69, 69
4, 45863, Note_on_c, 1, 69, 0
4, 45864, Note_on_c, 1, 72, 69
4, 45887, Note_on_c, 1, 72, 0
4, 45888, Note_on_c, 1, 69, 69
4, 45911, Note_on_c, 1, 69, 0
4, 45912, Note_on_c, 1, 72, 69
4, 45935, Note_on_c, 1, 72, 0
4, 45936, Note_on_c, 1, 67, 69
4, 45959, Note_on_c, 1, 67, 0
4, 45960, Note_on_c, 1, 71, 69
4, 45983, Note_on_c, 1, 71, 0
4, 45984, Note_on_c, 1, 67, 69
4, 46007, Note_on_c, 1, 67, 0
4, 46008, Note_on_c, 1, 71, 69
4, 46031, Note_on_c, 1, 71, 0
4, 46032, Note_on_c, 1, 67, 69
4, 46055, Note_on_c, 1, 67, 0
4, 46056, Note_on_c, 1, 71, 69
4, 46079, Note_on_c, 1, 71, 0
4, 46080, Note_on_c, 1, 66, 69
4, 46103, Note_on_c, 1, 66, 0
4, 46104, Note_on_c, 1, 69, 69
4, 46127, Note_on_c, 1, 69, 0
4, 46128, Note_on_c, 1, 66, 69
4, 46151, Note_on_c, 1, 66, 0
4, 46152, Note_on_c, 1, 69, 69
4, 46175, Note_on_c, 1, 69, 0
4, 46176, Note_on_c, 1, 66, 69
4, 46199, Note_on_c, 1, 66, 0
4, 46200, Note_on_c, 1, 69, 69
4, 46223, Note_on_c, 1, 69, 0
4, 46224, Note_on_c, 1, 64, 69
4, 46247, Note_on_c, 1, 64, 0
4, 46248, Note_on_c, 1, 67, 69
4, 46271, Note_on_c, 1, 67, 0
4, 46272, Note_on_c, 1, 64, 69
4, 46295, Note_on_c, 1, 64, 0
4, 46296, Note_on_c, 1, 67, 69
4, 46319, Note_on_c, 1, 67, 0
4, 46320, Note_on_c, 1, 64, 69
4, 46343, Note_on_c, 1, 64, 0
4, 46344, Note_on_c, 1, 67, 69
4, 46367, Note_on_c, 1, 67, 0
4, 46368, Note_on_c, 1, 63, 69
4, 46391, Note_on_c, 1, 63, 0
4, 46392, Note_on_c, 1, 66, 69
4, 46415, Note_on_c, 1, 66, 0
4, 46416, Note_on_c, 1, 63, 69
4, 46439, Note_on_c, 1, 63, 0
4, 46440, Note_on_c, 1, 66, 69
4, 46463, Note_on_c, 1, 66, 0
4, 46464, Note_on_c, 1, 63, 69
4, 46487, Note_on_c, 1, 63, 0
4, 46488, Note_on_c, 1, 66, 69
4, 46511, Note_on_c, 1, 66, 0
4, 46512, Note_on_c, 1, 63, 69
4, 46535, Note_on_c, 1, 63, 0
4, 46536, Note_on_c, 1, 66, 69
4, 46559, Note_on_c, 1, 66, 0
4, 46560, Note_on_c, 1, 63, 69
4, 46583, Note_on_c, 1, 63, 0
4, 46584, Note_on_c, 1, 66, 69
4, 46607, Note_on_c, 1, 66, 0
4, 46608, Note_on_c, 1, 63, 69
4, 46631, Note_on_c, 1, 63, 0
4, 46632, Note_on_c, 1, 66, 69
4, 46655, Note_on_c, 1, 66, 0
4, 46656, Note_on_c, 1, 64, 78
4, 46656, Note_on_c, 1, 52, 78
4, 46745, Note_on_c, 1, 64, 0
4, 46745, Note_on_c, 1, 52, 0
4, 46752, Note_on_c, 1, 63, 78
4, 46752, Note_on_c, 1, 59, 78
4, 46797, Note_on_c, 1, 63, 0
4, 46797, Note_on_c, 1, 59, 0
4, 46800, Note_on_c, 1, 64, 78
4, 46800, Note_on_c, 1, 52, 78
4, 46889, Note_on_c, 1, 64, 0
4, 46889, Note_on_c, 1, 52, 0
4, 46896, Note_on_c, 1, 63, 78
4, 46896, Note_on_c, 1, 59, 78
4, 46941, Note_on_c, 1, 63, 0
4, 46941, Note_on_c, 1, 59, 0
4, 46944, Note_on_c, 1, 64, 78
4, 46944, Note_on_c, 1, 52, 78
4, 47033, Note_on_c, 1, 64, 0
4, 47033, Note_on_c, 1, 52, 0
4, 47040, Note_on_c, 1, 63, 78
4, 47040, Note_on_c, 1, 59, 78
4, 47085, Note_on_c, 1, 63, 0
4, 47085, Note_on_c, 1, 59, 0
4, 47088, Note_on_c, 1, 64, 78
4, 47088, Note_on_c, 1, 52, 78
4, 47177, Note_on_c, 1, 64, 0
4, 47177, Note_on_c, 1, 52, 0
4, 47184, Note_on_c, 1, 63, 78
4, 47184, Note_on_c, 1, 59, 78
4, 47229, Note_on_c, 1, 63, 0
4, 47229, Note_on_c, 1, 59, 0
4, 47232, Note_on_c, 1, 64, 78
4, 47232, Note_on_c, 1, 52, 78
4, 47321, Note_on_c, 1, 64, 0
4, 47321, Note_on_c, 1, 52, 0
4, 47376, Note_on_c, 1, 60, 78
4, 47376, Note_on_c, 1, 48, 78
4, 47465, Note_on_c, 1, 60, 0
4, 47465, Note_on_c, 1, 48, 0
4, 47520, Note_on_c, 1, 57, 78
4, 47520, Note_on_c, 1, 45, 78
4, 47609, Note_on_c, 1, 57, 0
4, 47609, Note_on_c, 1, 45, 0
4, 47664, Note_on_c, 1, 59, 78
4, 47664, Note_on_c, 1, 47, 78
4, 47753, Note_on_c, 1, 59, 0
4, 47753, Note_on_c, 1, 47, 0
4, 47808, Note_on_c, 1, 52, 78
4, 47808, Note_on_c, 1, 40, 78
4, 47897, Note_on_c, 1, 52, 0
4, 47897, Note_on_c, 1, 40, 0
4, 47952, Note_on_c, 1, 60, 78
4, 47952, Note_on_c, 1, 48, 78
4, 48041, Note_on_c, 1, 60, 0
4, 48041, Note_on_c, 1, 48, 0
4, 48096, Note_on_c, 1, 57, 78
4, 48096, Note_on_c, 1, 45, 78
4, 48185, Note_on_c, 1, 57, 0
4, 48185, Note_on_c, 1, 45, 0
4, 48240, Note_on_c, 1, 59, 78
4, 48240, Note_on_c, 1, 47, 78
4, 48329, Note_on_c, 1, 59, 0
4, 48329, Note_on_c, 1, 47, 0
4, 48384, Note_on_c, 1, 40, 65
4, 48404, Note_on_c, 1, 40, 0
4, 48432, Note_on_c, 1, 43, 65
4, 48452, Note_on_c, 1, 43, 0
4, 48480, Note_on_c, 1, 47, 65
4, 48500, Note_on_c, 1, 47, 0
4, 48528, Note_on_c, 1, 52, 65
4, 48573, Note_on_c, 1, 52, 0
4, 48672, Note_on_c, 1, 40, 65
4, 48692, Note_on_c, 1, 40, 0
4, 48720, Note_on_c, 1, 43, 65
4, 48740, Note_on_c, 1, 43, 0
4, 48768, Note_on_c, 1, 47, 65
4, 48788, Note_on_c, 1, 47, 0
4, 48816, Note_on_c, 1, 52, 65
4, 48861, Note_on_c, 1, 52, 0
4, 48960, Note_on_c, 1, 40, 65
4, 48980, Note_on_c, 1, 40, 0
4, 49008, Note_on_c, 1, 43, 65
4, 49028, Note_on_c, 1, 43, 0
4, 49056, Note_on_c, 1, 47, 65
4, 49076, Note_on_c, 1, 47, 0
4, 49104, Note_on_c, 1, 52, 65
4, 49149, Note_on_c, 1, 52, 0
4, 49536, Note_on_c, 1, 40, 65
4, 49556, Note_on_c, 1, 40, 0
4, 49584, Note_on_c, 1, 44, 65
4, 49604, Note_on_c, 1, 44, 0
4, 49632, Note_on_c, 1, 47, 65
4, 49652, Note_on_c, 1, 47, 0
4, 49680, Note_on_c, 1, 52, 65
4, 49725, Note_on_c, 1, 52, 0
4, 49824, Note_on_c, 1, 40, 65
4, 49844, Note_on_c, 1, 40, 0
4, 49872, Note_on_c, 1, 45, 65
4, 49892, Note_on_c, 1, 45, 0
4, 49920, Note_on_c, 1, 48, 65
4, 49940, Note_on_c, 1, 48, 0
4, 49968, Note_on_c, 1, 52, 65
4, 50013, Note_on_c, 1, 52, 0
4, 50112, Note_on_c, 1, 40, 65
4, 50132, Note_on_c, 1, 40, 0
4, 50160, Note_on_c, 1, 44, 65
4, 50180, Note_on_c, 1, 44, 0
4, 50208, Note_on_c, 1, 47, 65
4, 50228, Note_on_c, 1, 47, 0
4, 50256, Note_on_c, 1, 52, 65
4, 50301, Note_on_c, 1, 52, 0
4, 50400, Note_on_c, 1, 40, 65
4, 50420, Note_on_c, 1, 40, 0
4, 50448, Note_on_c, 1, 45, 65
4, 50468, Note_on_c, 1, 45, 0
4, 50496, Note_on_c, 1, 48, 65
4, 50516, Note_on_c, 1, 48, 0
4, 50544, Note_on_c, 1, 52, 65
4, 50589, Note_on_c, 1, 52, 0
4, 50688, Note_on_c, 1, 40, 65
4, 50708, Note_on_c, 1, 40, 0
4, 50736, Note_on_c, 1, 44, 65
4, 50756, Note_on_c, 1, 44, 0
4, 50784, Note_on_c, 1, 47, 65
4, 50804, Note_on_c, 1, 47, 0
4, 50832, Note_on_c, 1, 52, 65
4, 50877, Note_on_c, 1, 52, 0
4, 50976, Note_on_c, 1, 48, 78
4, 50976, Note_on_c, 1, 36, 78
4, 51021, Note_on_c, 1, 48, 0
4, 51021, Note_on_c, 1, 36, 0
4, 51024, Note_on_c, 1, 52, 78
4, 51024, Note_on_c, 1, 40, 78
4, 51069, Note_on_c, 1, 52, 0
4, 51069, Note_on_c, 1, 40, 0
4, 51072, Note_on_c, 1, 55, 78
4, 51072, Note_on_c, 1, 43, 78
4, 51117, Note_on_c, 1, 55, 0
4, 51117, Note_on_c, 1, 43, 0
4, 51120, Note_on_c, 1, 60, 78
4, 51120, Note_on_c, 1, 48, 78
4, 51209, Note_on_c, 1, 60, 0
4, 51209, Note_on_c, 1, 48, 0
4, 51264, Note_on_c, 1, 50, 78
4, 51264, Note_on_c, 1, 38, 78
4, 51309, Note_on_c, 1, 50, 0
4, 51309, Note_on_c, 1, 38, 0
4, 51312, Note_on_c, 1, 53, 78
4, 51312, Note_on_c, 1, 41, 78
4, 51357, Note_on_c, 1, 53, 0
4, 51357, Note_on_c, 1, 41, 0
4, 51360, Note_on_c, 1, 55, 78
4, 51360, Note_on_c, 1, 43, 78
4, 51405, Note_on_c, 1, 55, 0
4, 51405, Note_on_c, 1, 43, 0
4, 51408, Note_on_c, 1, 59, 78
4, 51408, Note_on_c, 1, 47, 78
4, 51453, Note_on_c, 1, 59, 0
4, 51453, Note_on_c, 1, 47, 0
4, 51552, Note_on_c, 1, 48, 65
4, 51600, Note_on_c, 1, 52, 65
4, 51648, Note_on_c, 1, 55, 65
4, 51696, Note_on_c, 1, 60, 65
4, 51829, Note_on_c, 1, 60, 0
4, 51829, Note_on_c, 1, 55, 0
4, 51829, Note_on_c, 1, 52, 0
4, 51829, Note_on_c, 1, 48, 0
4, 51840, Note_on_c, 1, 50, 66
4, 51888, Note_on_c, 1, 53, 66
4, 51936, Note_on_c, 1, 55, 66
4, 51984, Note_on_c, 1, 62, 66
4, 52117, Note_on_c, 1, 62, 0
4, 52117, Note_on_c, 1, 55, 0
4, 52117, Note_on_c, 1, 53, 0
4, 52117, Note_on_c, 1, 50, 0
4, 52128, Note_on_c, 1, 52, 67
4, 52176, Note_on_c, 1, 55, 67
4, 52224, Note_on_c, 1, 58, 67
4, 52272, Note_on_c, 1, 61, 67
4, 52405, Note_on_c, 1, 61, 0
4, 52405, Note_on_c, 1, 58, 0
4, 52405, Note_on_c, 1, 55, 0
4, 52405, Note_on_c, 1, 52, 0
4, 52416, Note_on_c, 1, 53, 68
4, 52464, Note_on_c, 1, 57, 68
4, 52512, Note_on_c, 1, 61, 68
4, 52560, Note_on_c, 1, 61, 0
4, 52560, Note_on_c, 1, 62, 68
4, 52693, Note_on_c, 1, 62, 0
4, 52693, Note_on_c, 1, 57, 0
4, 52693, Note_on_c, 1, 53, 0
4, 52704, Note_on_c, 1, 52, 69
4, 52752, Note_on_c, 1, 55, 69
4, 52800, Note_on_c, 1, 58, 69
4, 52848, Note_on_c, 1, 61, 69
4, 52981, Note_on_c, 1, 61, 0
4, 52981, Note_on_c, 1, 58, 0
4, 52981, Note_on_c, 1, 55, 0
4, 52981, Note_on_c, 1, 52, 0
4, 52992, Note_on_c, 1, 54, 70
4, 53040, Note_on_c, 1, 57, 70
4, 53088, Note_on_c, 1, 60, 70
4, 53136, Note_on_c, 1, 63, 70
4, 53269, Note_on_c, 1, 63, 0
4, 53269, Note_on_c, 1, 60, 0
4, 53269, Note_on_c, 1, 57, 0
4, 53269, Note_on_c, 1, 54, 0
4, 53280, Note_on_c, 1, 55, 71
4, 53328, Note_on_c, 1, 59, 71
4, 53376, Note_on_c, 1, 63, 71
4, 53424, Note_on_c, 1, 63, 0
4, 53424, Note_on_c, 1, 64, 71
4, 53557, Note_on_c, 1, 64, 0
4, 53557, Note_on_c, 1, 59, 0
4, 53557, Note_on_c, 1, 55, 0
4, 53568, Note_on_c, 1, 54, 72
4, 53616, Note_on_c, 1, 58, 72
4, 53664, Note_on_c, 1, 61, 72
4, 53712, Note_on_c, 1, 64, 72
4, 53845, Note_on_c, 1, 64, 0
4, 53845, Note_on_c, 1, 61, 0
4, 53845, Note_on_c, 1, 58, 0
4, 53845, Note_on_c, 1, 54, 0
4, 53856, Note_on_c, 1, 59, 73
4, 53904, Note_on_c, 1, 62, 73
4, 53952, Note_on_c, 1, 66, 73
4, 54000, Note_on_c, 1, 71, 73
4, 54133, Note_on_c, 1, 71, 0
4, 54133, Note_on_c, 1, 66, 0
4, 54133, Note_on_c, 1, 62, 0
4, 54133, Note_on_c, 1, 59, 0
4, 54144, Note_on_c, 1, 61, 73
4, 54192, Note_on_c, 1, 64, 73
4, 54240, Note_on_c, 1, 67, 73
4, 54288, Note_on_c, 1, 70, 73
4, 54421, Note_on_c, 1, 70, 0
4, 54421, Note_on_c, 1, 67, 0
4, 54421, Note_on_c, 1, 64, 0
4, 54421, Note_on_c, 1, 61, 0
4, 54432, Note_on_c, 1, 62, 73
4, 54480, Note_on_c, 1, 66, 73
4, 54528, Note_on_c, 1, 70, 73
4, 54576, Note_on_c, 1, 70, 0
4, 54576, Note_on_c, 1, 71, 73
4, 54709, Note_on_c, 1, 71, 0
4, 54709, Note_on_c, 1, 66, 0
4, 54709, Note_on_c, 1, 62, 0
4, 54720, Note_on_c, 1, 64, 69
4, 54765, Note_on_c, 1, 64, 0
4, 54768, Note_on_c, 1, 62, 69
4, 54813, Note_on_c, 1, 62, 0
4, 54816, Note_on_c, 1, 61, 69
4, 54861, Note_on_c, 1, 61, 0
4, 54864, Note_on_c, 1, 59, 69
4, 54953, Note_on_c, 1, 59, 0
4, 55008, Note_on_c, 1, 67, 69
4, 55053, Note_on_c, 1, 67, 0
4, 55056, Note_on_c, 1, 66, 69
4, 55101, Note_on_c, 1, 66, 0
4, 55104, Note_on_c, 1, 64, 69
4, 55149, Note_on_c, 1, 64, 0
4, 55152, Note_on_c, 1, 62, 69
4, 55241, Note_on_c, 1, 62, 0
4, 55296, Note_on_c, 1, 76, 69
4, 55341, Note_on_c, 1, 76, 0
4, 55344, Note_on_c, 1, 74, 69
4, 55389, Note_on_c, 1, 74, 0
4, 55392, Note_on_c, 1, 73, 69
4, 55437, Note_on_c, 1, 73, 0
4, 55440, Note_on_c, 1, 71, 69
4, 55529, Note_on_c, 1, 71, 0
4, 55584, Note_on_c, 1, 67, 69
4, 55629, Note_on_c, 1, 67, 0
4, 55632, Note_on_c, 1, 66, 69
4, 55677, Note_on_c, 1, 66, 0
4, 55680, Note_on_c, 1, 64, 69
4, 55725, Note_on_c, 1, 64, 0
4, 55728, Control_c, 1, 64, 127
4, 55728, Note_on_c, 1, 62, 69
4, 55751, Note_on_c, 1, 62, 0
4, 55752, Note_on_c, 1, 66, 69
4, 55775, Note_on_c, 1, 66, 0
4, 55776, Note_on_c, 1, 62, 69
4, 55799, Note_on_c, 1, 62, 0
4, 55800, Note_on_c, 1, 66, 69
4, 55823, Note_on_c, 1, 66, 0
4, 55824, Note_on_c, 1, 62, 69
4, 55847, Note_on_c, 1, 62, 0
4, 55848, Control_c, 1, 64, 0
4, 55848, Note_on_c, 1, 66, 69
4, 55871, Note_on_c, 1, 66, 0
4, 55872, Control_c, 1, 64, 127
4, 55872, Note_on_c, 1, 64, 69
4, 55895, Note_on_c, 1, 64, 0
4, 55896, Note_on_c, 1, 67, 69
4, 55919, Note_on_c, 1, 67, 0
4, 55920, Note_on_c, 1, 64, 69
4, 55943, Note_on_c, 1, 64, 0
4, 55944, Note_on_c, 1, 67, 69
4, 55967, Note_on_c, 1, 67, 0
4, 55968, Note_on_c, 1, 64, 69
4, 55991, Note_on_c, 1, 64, 0
4, 55992, Control_c, 1, 64, 0
4, 55992, Note_on_c, 1, 67, 69
4, 56015, Note_on_c, 1, 67, 0
4, 56016, Control_c, 1, 64, 127
4, 56016, Note_on_c, 1, 66, 69
4, 56039, Note_on_c, 1, 66, 0
4, 56040, Note_on_c, 1, 70, 69
4, 56063, Note_on_c, 1, 70, 0
4, 56064, Note_on_c, 1, 66, 69
4, 56087, Note_on_c, 1, 66, 0
4, 56088, Note_on_c, 1, 70, 69
4, 56111, Note_on_c, 1, 70, 0
4, 56112, Note_on_c, 1, 66, 69
4, 56135, Note_on_c, 1, 66, 0
4, 56136, Control_c, 1, 64, 0
4, 56136, Note_on_c, 1, 70, 69
4, 56159, Note_on_c, 1, 70, 0
4, 56160, Control_c, 1, 64, 127
4, 56160, Note_on_c, 1, 67, 69
4, 56183, Note_on_c, 1, 67, 0
4, 56184, Note_on_c, 1, 71, 69
4, 56207, Note_on_c, 1, 71, 0
4, 56208, Note_on_c, 1, 67, 69
4, 56231, Note_on_c, 1, 67, 0
4, 56232, Note_on_c, 1, 71, 69
4, 56255, Note_on_c, 1, 71, 0
4, 56256, Note_on_c, 1, 67, 69
4, 56279, Note_on_c, 1, 67, 0
4, 56280, Control_c, 1, 64, 0
4, 56280, Note_on_c, 1, 71, 69
4, 56303, Note_on_c, 1, 71, 0
4, 56304, Control_c, 1, 64, 127
4, 56304, Note_on_c, 1, 62, 69
4, 56327, Note_on_c, 1, 62, 0
4, 56328, Note_on_c, 1, 66, 69
4, 56351, Note_on_c, 1, 66, 0
4, 56352, Note_on_c, 1, 62, 69
4, 56375, Note_on_c, 1, 62, 0
4, 56376, Note_on_c, 1, 66, 69
4, 56399, Note_on_c, 1, 66, 0
4, 56400, Note_on_c, 1, 62, 69
4, 56423, Note_on_c, 1, 62, 0
4, 56424, Control_c, 1, 64, 0
4, 56424, Note_on_c, 1, 66, 69
4, 56447, Note_on_c, 1, 66, 0
4, 56448, Control_c, 1, 64, 127
4, 56448, Note_on_c, 1, 64, 69
4, 56471, Note_on_c, 1, 64, 0
4, 56472, Note_on_c, 1, 67, 69
4, 56495, Note_on_c, 1, 67, 0
4, 56496, Note_on_c, 1, 64, 69
4, 56519, Note_on_c, 1, 64, 0
4, 56520, Note_on_c, 1, 67, 69
4, 56543, Note_on_c, 1, 67, 0
4, 56544, Note_on_c, 1, 64, 69
4, 56567, Note_on_c, 1, 64, 0
4, 56568, Control_c, 1, 64, 0
4, 56568, Note_on_c, 1, 67, 69
4, 56591, Note_on_c, 1, 67, 0
4, 56592, Note_on_c, 1, 66, 69
4, 56637, Note_on_c, 1, 66, 0
4, 56736, Note_on_c, 1, 59, 69
4, 56825, Note_on_c, 1, 59, 0
4, 56928, Note_on_c, 1, 66, 69
4, 56928, Note_on_c, 1, 62, 69
4, 56973, Note_on_c, 1, 66, 0
4, 56973, Note_on_c, 1, 62, 0
4, 56976, Note_on_c, 1, 64, 69
4, 56976, Note_on_c, 1, 61, 69
4, 57021, Note_on_c, 1, 64, 0
4, 57021, Note_on_c, 1, 61, 0
4, 57024, Note_on_c, 1, 62, 69
4, 57024, Note_on_c, 1, 59, 69
4, 57069, Note_on_c, 1, 62, 0
4, 57069, Note_on_c, 1, 59, 0
4, 57216, Note_on_c, 1, 62, 73
4, 57216, Note_on_c, 1, 59, 73
4, 57261, Note_on_c, 1, 62, 0
4, 57261, Note_on_c, 1, 59, 0
4, 57264, Note_on_c, 1, 60, 73
4, 57264, Note_on_c, 1, 57, 73
4, 57309, Note_on_c, 1, 60, 0
4, 57309, Note_on_c, 1, 57, 0
4, 57312, Note_on_c, 1, 59, 73
4, 57312, Note_on_c, 1, 55, 73
4, 57357, Note_on_c, 1, 59, 0
4, 57357, Note_on_c, 1, 55, 0
4, 57504, Note_on_c, 1, 59, 73
4, 57504, Note_on_c, 1, 55, 73
4, 57549, Note_on_c, 1, 59, 0
4, 57549, Note_on_c, 1, 55, 0
4, 57552, Note_on_c, 1, 57, 73
4, 57552, Note_on_c, 1, 54, 73
4, 57597, Note_on_c, 1, 57, 0
4, 57597, Note_on_c, 1, 54, 0
4, 57600, Note_on_c, 1, 55, 73
4, 57600, Note_on_c, 1, 52, 73
4, 57645, Note_on_c, 1, 55, 0
4, 57645, Note_on_c, 1, 52, 0
4, 57792, Note_on_c, 1, 55, 73
4, 57792, Note_on_c, 1, 52, 73
4, 57837, Note_on_c, 1, 55, 0
4, 57837, Note_on_c, 1, 52, 0
4, 57840, Note_on_c, 1, 53, 73
4, 57840, Note_on_c, 1, 50, 73
4, 57885, Note_on_c, 1, 53, 0
4, 57885, Note_on_c, 1, 50, 0
4, 57888, Note_on_c, 1, 52, 73
4, 57888, Note_on_c, 1, 48, 73
4, 57933, Note_on_c, 1, 52, 0
4, 57933, Note_on_c, 1, 48, 0
4, 58080, Note_on_c, 1, 52, 73
4, 58080, Note_on_c, 1, 48, 73
4, 58125, Note_on_c, 1, 52, 0
4, 58125, Note_on_c, 1, 48, 0
4, 58128, Note_on_c, 1, 50, 73
4, 58128, Note_on_c, 1, 47, 73
4, 58173, Note_on_c, 1, 50, 0
4, 58173, Note_on_c, 1, 47, 0
4, 58176, Note_on_c, 1, 48, 73
4, 58176, Note_on_c, 1, 45, 73
4, 58221, Note_on_c, 1, 48, 0
4, 58221, Note_on_c, 1, 45, 0
4, 58368, Note_on_c, 1, 48, 73
4, 58368, Note_on_c, 1, 45, 73
4, 58413, Note_on_c, 1, 48, 0
4, 58413, Note_on_c, 1, 45, 0
4, 58416, Note_on_c, 1, 47, 73
4, 58416, Note_on_c, 1, 43, 73
4, 58461, Note_on_c, 1, 47, 0
4, 58461, Note_on_c, 1, 43, 0
4, 58464, Note_on_c, 1, 45, 73
4, 58464, Note_on_c, 1, 42, 73
4, 58509, Note_on_c, 1, 45, 0
4, 58509, Note_on_c, 1, 42, 0
4, 58656, Note_on_c, 1, 45, 72
4, 58656, Note_on_c, 1, 42, 72
4, 58701, Note_on_c, 1, 45, 0
4, 58701, Note_on_c, 1, 42, 0
4, 58704, Note_on_c, 1, 43, 72
4, 58704, Note_on_c, 1, 40, 72
4, 58749, Note_on_c, 1, 43, 0
4, 58749, Note_on_c, 1, 40, 0
4, 58752, Note_on_c, 1, 42, 71
4, 58752, Note_on_c, 1, 39, 71
4, 59029, Note_on_c, 1, 42, 0
4, 59029, Note_on_c, 1, 39, 0
4, 59040, Note_on_c, 1, 40, 65
4, 59060, Note_on_c, 1, 40, 0
4, 59088, Note_on_c, 1, 43, 65
4, 59108, Note_on_c, 1, 43, 0
4, 59136, Note_on_c, 1, 47, 65
4, 59156, Note_on_c, 1, 47, 0
4, 59184, Note_on_c, 1, 52, 65
4, 59229, Note_on_c, 1, 52, 0
4, 59328, Note_on_c, 1, 40, 65
4, 59348, Note_on_c, 1, 40, 0
4, 59376, Note_on_c, 1, 43, 65
4, 59396, Note_on_c, 1, 43, 0
4, 59424, Note_on_c, 1, 47, 65
4, 59444, Note_on_c, 1, 47, 0
4, 59472, Note_on_c, 1, 52, 65
4, 59517, Note_on_c, 1, 52, 0
4, 59616, Note_on_c, 1, 52, 65
4, 59664, Note_on_c, 1, 55, 65
4, 59712, Note_on_c, 1, 59, 65
4, 59760, Note_on_c, 1, 64, 65
4, 59893, Note_on_c, 1, 64, 0
4, 59893, Note_on_c, 1, 59, 0
4, 59893, Note_on_c, 1, 55, 0
4, 59893, Note_on_c, 1, 52, 0
4, 59904, Note_on_c, 1, 54, 73
4, 59952, Note_on_c, 1, 57, 73
4, 60000, Note_on_c, 1, 60, 73
4, 60048, Note_on_c, 1, 63, 73
4, 60181, Note_on_c, 1, 63, 0
4, 60181, Note_on_c, 1, 60, 0
4, 60181, Note_on_c, 1, 57, 0
4, 60181, Note_on_c, 1, 54, 0
4, 60192, Note_on_c, 1, 55, 73
4, 60240, Note_on_c, 1, 59, 73
4, 60288, Note_on_c, 1, 63, 73
4, 60336, Note_on_c, 1, 63, 0
4, 60336, Note_on_c, 1, 64, 73
4, 60469, Note_on_c, 1, 64, 0
4, 60469, Note_on_c, 1, 59, 0
4, 60469, Note_on_c, 1, 55, 0
4, 60480, Note_on_c, 1, 57, 73
4, 60525, Note_on_c, 1, 57, 0
4, 60528, Note_on_c, 1, 66, 73
4, 60573, Note_on_c, 1, 66, 0
4, 60576, Note_on_c, 1, 64, 73
4, 60621, Note_on_c, 1, 64, 0
4, 60624, Note_on_c, 1, 62, 73
4, 60713, Note_on_c, 1, 62, 0
4, 60768, Note_on_c, 1, 55, 73
4, 60813, Note_on_c, 1, 55, 0
4, 60816, Note_on_c, 1, 64, 73
4, 60861, Note_on_c, 1, 64, 0
4, 60864, Note_on_c, 1, 62, 73
4, 60909, Note_on_c, 1, 62, 0
4, 60912, Note_on_c, 1, 60, 73
4, 61001, Note_on_c, 1, 60, 0
4, 61056, Note_on_c, 1, 54, 73
4, 61101, Note_on_c, 1, 54, 0
4, 61104, Note_on_c, 1, 63, 73
4, 61149, Note_on_c, 1, 63, 0
4, 61152, Note_on_c, 1, 61, 73
4, 61197, Note_on_c, 1, 61, 0
4, 61200, Note_on_c, 1, 59, 73
4, 61289, Note_on_c, 1, 59, 0
4, 61344, Note_on_c, 1, 52, 73
4, 61367, Note_on_c, 1, 52, 0
4, 61368, Note_on_c, 1, 64, 73
4, 61391, Note_on_c, 1, 64, 0
4, 61392, Note_on_c, 1, 54, 73
4, 61415, Note_on_c, 1, 54, 0
4, 61416, Note_on_c, 1, 64, 73
4, 61439, Note_on_c, 1, 64, 0
4, 61440, Note_on_c, 1, 55, 73
4, 61463, Note_on_c, 1, 55, 0
4, 61464, Note_on_c, 1, 64, 73
4, 61487, Note_on_c, 1, 64, 0
4, 61488, Note_on_c, 1, 57, 73
4, 61511, Note_on_c, 1, 57, 0
4, 61512, Note_on_c, 1, 64, 73
4, 61535, Note_on_c, 1, 64, 0
4, 61536, Note_on_c, 1, 57, 73
4, 61559, Note_on_c, 1, 57, 0
4, 61560, Note_on_c, 1, 64, 73
4, 61583, Note_on_c, 1, 64, 0
4, 61584, Note_on_c, 1, 57, 73
4, 61607, Note_on_c, 1, 57, 0
4, 61608, Note_on_c, 1, 64, 73
4, 61631, Note_on_c, 1, 64, 0
4, 61632, Note_on_c, 1, 52, 73
4, 61655, Note_on_c, 1, 52, 0
4, 61656, Note_on_c, 1, 64, 73
4, 61679, Note_on_c, 1, 64, 0
4, 61680, Note_on_c, 1, 54, 73
4, 61703, Note_on_c, 1, 54, 0
4, 61704, Note_on_c, 1, 64, 73
4, 61727, Note_on_c, 1, 64, 0
4, 61728, Note_on_c, 1, 55, 73
4, 61751, Note_on_c, 1, 55, 0
4, 61752, Note_on_c, 1, 64, 73
4, 61775, Note_on_c, 1, 64, 0
4, 61776, Note_on_c, 1, 57, 73
4, 61799, Note_on_c, 1, 57, 0
4, 61800, Note_on_c, 1, 64, 73
4, 61823, Note_on_c, 1, 64, 0
4, 61824, Note_on_c, 1, 57, 73
4, 61847, Note_on_c, 1, 57, 0
4, 61848, Note_on_c, 1, 64, 73
4, 61871, Note_on_c, 1, 64, 0
4, 61872, Note_on_c, 1, 57, 73
4, 61895, Note_on_c, 1, 57, 0
4, 61896, Note_on_c, 1, 64, 73
4, 61919, Note_on_c, 1, 64, 0
4, 61920, Note_on_c, 1, 52, 73
4, 61943, Note_on_c, 1, 52, 0
4, 61944, Note_on_c, 1, 64, 73
4, 61967, Note_on_c, 1, 64, 0
4, 61968, Note_on_c, 1, 54, 73
4, 61991, Note_on_c, 1, 54, 0
4, 61992, Note_on_c, 1, 64, 73
4, 62015, Note_on_c, 1, 64, 0
4, 62016, Note_on_c, 1, 55, 73
4, 62039, Note_on_c, 1, 55, 0
4, 62040, Note_on_c, 1, 64, 73
4, 62063, Note_on_c, 1, 64, 0
4, 62064, Note_on_c, 1, 57, 73
4, 62087, Note_on_c, 1, 57, 0
4, 62088, Note_on_c, 1, 64, 73
4, 62111, Note_on_c, 1, 64, 0
4, 62112, Note_on_c, 1, 57, 73
4, 62135, Note_on_c, 1, 57, 0
4, 62136, Note_on_c, 1, 64, 73
4, 62159, Note_on_c, 1, 64, 0
4, 62160, Note_on_c, 1, 57, 73
4, 62183, Note_on_c, 1, 57, 0
4, 62184, Note_on_c, 1, 64, 73
4, 62207, Note_on_c, 1, 64, 0
4, 62208, Note_on_c, 1, 58, 73
4, 62231, Note_on_c, 1, 58, 0
4, 62232, Note_on_c, 1, 67, 73
4, 62255, Note_on_c, 1, 67, 0
4, 62256, Note_on_c, 1, 58, 73
4, 62279, Note_on_c, 1, 58, 0
4, 62280, Note_on_c, 1, 67, 73
4, 62303, Note_on_c, 1, 67, 0
4, 62304, Note_on_c, 1, 58, 73
4, 62327, Note_on_c, 1, 58, 0
4, 62328, Note_on_c, 1, 67, 73
4, 62351, Note_on_c, 1, 67, 0
4, 62352, Note_on_c, 1, 59, 73
4, 62375, Note_on_c, 1, 59, 0
4, 62376, Note_on_c, 1, 66, 73
4, 62399, Note_on_c, 1, 66, 0
4, 62400, Note_on_c, 1, 59, 73
4, 62423, Note_on_c, 1, 59, 0
4, 62424, Note_on_c, 1, 66, 73
4, 62447, Note_on_c, 1, 66, 0
4, 62448, Note_on_c, 1, 59, 73
4, 62471, Note_on_c, 1, 59, 0
4, 62472, Note_on_c, 1, 66, 73
4, 62495, Note_on_c, 1, 66, 0
4, 62496, Note_on_c, 1, 60, 73
4, 62519, Note_on_c, 1, 60, 0
4, 62520, Note_on_c, 1, 64, 73
4, 62543, Note_on_c, 1, 64, 0
4, 62544, Note_on_c, 1, 60, 73
4, 62567, Note_on_c, 1, 60, 0
4, 62568, Note_on_c, 1, 64, 73
4, 62591, Note_on_c, 1, 64, 0
4, 62592, Note_on_c, 1, 60, 73
4, 62615, Note_on_c, 1, 60, 0
4, 62616, Note_on_c, 1, 64, 73
4, 62639, Note_on_c, 1, 64, 0
4, 62640, Note_on_c, 1, 59, 73
4, 62729, Note_on_c, 1, 59, 0
4, 62808, Note_on_c, 1, 59, 73
4, 62831, Note_on_c, 1, 59, 0
4, 62832, Note_on_c, 1, 61, 73
4, 62855, Note_on_c, 1, 61, 0
4, 62856, Note_on_c, 1, 63, 73
4, 62879, Note_on_c, 1, 63, 0
4, 62880, Note_on_c, 1, 64, 74
4, 62903, Note_on_c, 1, 64, 0
4, 62904, Note_on_c, 1, 66, 74
4, 62927, Note_on_c, 1, 66, 0
4, 62928, Note_on_c, 1, 67, 74
4, 62951, Note_on_c, 1, 67, 0
4, 62952, Note_on_c, 1, 66, 75
4, 62975, Note_on_c, 1, 66, 0
4, 62976, Note_on_c, 1, 64, 75
4, 62999, Note_on_c, 1, 64, 0
4, 63000, Note_on_c, 1, 66, 76
4, 63023, Note_on_c, 1, 66, 0
4, 63024, Note_on_c, 1, 67, 76
4, 63047, Note_on_c, 1, 67, 0
4, 63048, Note_on_c, 1, 69, 76
4, 63071, Note_on_c, 1, 69, 0
4, 63072, Note_on_c, 1, 71, 77
4, 63117, Note_on_c, 1, 71, 0
4, 63120, Note_on_c, 1, 66, 78
4, 63165, Note_on_c, 1, 66, 0
4, 63168, Note_on_c, 1, 63, 78
4, 63213, Note_on_c, 1, 63, 0
4, 63216, Note_on_c, 1, 59, 78
4, 63261, Note_on_c, 1, 59, 0
4, 63264, Note_on_c, 1, 54, 78
4, 63309, Note_on_c, 1, 54, 0
4, 63312, Note_on_c, 1, 51, 78
4, 63357, Note_on_c, 1, 51, 0
4, 63360, Note_on_c, 1, 47, 78
4, 63597, Note_on_c, 1, 47, 0
4, 63648, Note_on_c, 1, 40, 73
4, 63737, Note_on_c, 1, 40, 0
4, 63888, Note_on_c, 1, 55, 69
4, 63888, Note_on_c, 1, 52, 69
4, 63933, Note_on_c, 1, 55, 0
4, 63933, Note_on_c, 1, 52, 0
4, 63936, Note_on_c, 1, 57, 69
4, 63936, Note_on_c, 1, 54, 69
4, 64025, Note_on_c, 1, 57, 0
4, 64025, Note_on_c, 1, 54, 0
4, 64128, Note_on_c, 1, 63, 69
4, 64128, Note_on_c, 1, 59, 69
4, 64176, Note_on_c, 1, 59, 0
4, 64176, Note_on_c, 1, 66, 69
4, 64221, Note_on_c, 1, 66, 0
4, 64221, Note_on_c, 1, 63, 0
4, 64224, Note_on_c, 1, 67, 69
4, 64313, Note_on_c, 1, 67, 0
4, 64320, Note_on_c, 1, 67, 69
4, 64365, Note_on_c, 1, 67, 0
4, 64368, Note_on_c, 1, 69, 69
4, 64413, Note_on_c, 1, 69, 0
4, 64416, Note_on_c, 1, 66, 69
4, 64461, Note_on_c, 1, 66, 0
4, 64464, Note_on_c, 1, 64, 69
4, 64509, Note_on_c, 1, 64, 0
4, 64512, Note_on_c, 1, 63, 69
4, 64557, Note_on_c, 1, 63, 0
4, 64560, Note_on_c, 1, 64, 69
4, 64605, Note_on_c, 1, 64, 0
4, 64608, Note_on_c, 1, 71, 69
4, 64653, Note_on_c, 1, 71, 0
4, 64656, Note_on_c, 1, 72, 69
4, 64789, Note_on_c, 1, 72, 0
4, 64800, Note_on_c, 1, 67, 69
4, 64933, Note_on_c, 1, 67, 0
4, 64944, Note_on_c, 1, 66, 69
4, 65077, Note_on_c, 1, 66, 0
4, 65088, Note_on_c, 1, 64, 69
4, 65221, Note_on_c, 1, 64, 0
4, 65376, Note_on_c, 1, 40, 73
4, 65465, Note_on_c, 1, 40, 0
4, 65616, Note_on_c, 1, 55, 69
4, 65616, Note_on_c, 1, 52, 69
4, 65661, Note_on_c, 1, 55, 0
4, 65661, Note_on_c, 1, 52, 0
4, 65664, Note_on_c, 1, 57, 69
4, 65664, Note_on_c, 1, 54, 69
4, 65753, Note_on_c, 1, 57, 0
4, 65753, Note_on_c, 1, 54, 0
4, 65856, Note_on_c, 1, 63, 69
4, 65856, Note_on_c, 1, 59, 69
4, 65904, Note_on_c, 1, 59, 0
4, 65904, Note_on_c, 1, 66, 69
4, 65949, Note_on_c, 1, 66, 0
4, 65949, Note_on_c, 1, 63, 0
4, 65952, Note_on_c, 1, 67, 69
4, 66041, Note_on_c, 1, 67, 0
4, 66048, Note_on_c, 1, 67, 69
4, 66093, Note_on_c, 1, 67, 0
4, 66096, Note_on_c, 1, 69, 69
4, 66141, Note_on_c, 1, 69, 0
4, 66144, Note_on_c, 1, 66, 69
4, 66189, Note_on_c, 1, 66, 0
4, 66192, Note_on_c, 1, 64, 69
4, 66237, Note_on_c, 1, 64, 0
4, 66240, Note_on_c, 1, 63, 69
4, 66285, Note_on_c, 1, 63, 0
4, 66288, Note_on_c, 1, 64, 69
4, 66333, Note_on_c, 1, 64, 0
4, 66336, Note_on_c, 1, 67, 69
4, 66381, Note_on_c, 1, 67, 0
4, 66384, Note_on_c, 1, 69, 69
4, 66429, Note_on_c, 1, 69, 0
4, 66432, Note_on_c, 1, 71, 69
4, 66477, Note_on_c, 1, 71, 0
4, 66480, Note_on_c, 1, 69, 69
4, 66525, Note_on_c, 1, 69, 0
4, 66528, Note_on_c, 1, 68, 69
4, 66573, Note_on_c, 1, 68, 0
4, 66576, Note_on_c, 1, 69, 69
4, 66621, Note_on_c, 1, 69, 0
4, 66624, Note_on_c, 1, 67, 69
4, 66669, Note_on_c, 1, 67, 0
4, 66672, Note_on_c, 1, 66, 69
4, 66717, Note_on_c, 1, 66, 0
4, 66720, Note_on_c, 1, 67, 69
4, 66765, Note_on_c, 1, 67, 0
4, 66768, Note_on_c, 1, 66, 69
4, 66813, Note_on_c, 1, 66, 0
4, 66816, Note_on_c, 1, 64, 69
4, 66861, Note_on_c, 1, 64, 0
4, 66864, Note_on_c, 1, 66, 69
4, 66909, Note_on_c, 1, 66, 0
4, 66912, Note_on_c, 1, 64, 69
4, 66957, Note_on_c, 1, 64, 0
4, 66960, Note_on_c, 1, 63, 69
4, 67005, Note_on_c, 1, 63, 0
4, 67008, Note_on_c, 1, 64, 69
4, 67053, Note_on_c, 1, 64, 0
4, 67056, Note_on_c, 1, 55, 69
4, 67101, Note_on_c, 1, 55, 0
4, 67104, Note_on_c, 1, 56, 69
4, 67149, Note_on_c, 1, 56, 0
4, 67152, Note_on_c, 1, 57, 69
4, 67197, Note_on_c, 1, 57, 0
4, 67200, Note_on_c, 1, 58, 69
4, 67245, Note_on_c, 1, 58, 0
4, 67248, Note_on_c, 1, 59, 69
4, 67293, Note_on_c, 1, 59, 0
4, 67296, Note_on_c, 1, 60, 69
4, 67341, Note_on_c, 1, 60, 0
4, 67344, Note_on_c, 1, 61, 69
4, 67389, Note_on_c, 1, 61, 0
4, 67392, Note_on_c, 1, 67, 69
4, 67525, Note_on_c, 1, 67, 0
4, 67536, Note_on_c, 1, 66, 69
4, 67669, Note_on_c, 1, 66, 0
4, 67680, Note_on_c, 1, 64, 78
4, 67680, Note_on_c, 1, 52, 78
4, 67769, Note_on_c, 1, 64, 0
4, 67769, Note_on_c, 1, 52, 0
4, 67776, Note_on_c, 1, 63, 78
4, 67776, Note_on_c, 1, 59, 78
4, 67821, Note_on_c, 1, 63, 0
4, 67821, Note_on_c, 1, 59, 0
4, 67824, Note_on_c, 1, 64, 78
4, 67824, Note_on_c, 1, 52, 78
4, 67913, Note_on_c, 1, 64, 0
4, 67913, Note_on_c, 1, 52, 0
4, 67920, Note_on_c, 1, 63, 78
4, 67920, Note_on_c, 1, 59, 78
4, 67965, Note_on_c, 1, 63, 0
4, 67965, Note_on_c, 1, 59, 0
4, 67968, Note_on_c, 1, 64, 78
4, 67968, Note_on_c, 1, 52, 78
4, 68057, Note_on_c, 1, 64, 0
4, 68057, Note_on_c, 1, 52, 0
4, 68064, Note_on_c, 1, 63, 78
4, 68064, Note_on_c, 1, 59, 78
4, 68109, Note_on_c, 1, 63, 0
4, 68109, Note_on_c, 1, 59, 0
4, 68112, Note_on_c, 1, 64, 78
4, 68112, Note_on_c, 1, 52, 78
4, 68201, Note_on_c, 1, 64, 0
4, 68201, Note_on_c, 1, 52, 0
4, 68208, Note_on_c, 1, 63, 78
4, 68208, Note_on_c, 1, 59, 78
4, 68253, Note_on_c, 1, 63, 0
4, 68253, Note_on_c, 1, 59, 0
4, 68256, Note_on_c, 1, 64, 69
4, 68279, Note_on_c, 1, 64, 0
4, 68280, Note_on_c, 1, 71, 69
4, 68303, Note_on_c, 1, 71, 0
4, 68304, Note_on_c, 1, 67, 69
4, 68327, Note_on_c, 1, 67, 0
4, 68328, Note_on_c, 1, 71, 69
4, 68351, Note_on_c, 1, 71, 0
4, 68352, Note_on_c, 1, 64, 69
4, 68375, Note_on_c, 1, 64, 0
4, 68376, Note_on_c, 1, 71, 69
4, 68399, Note_on_c, 1, 71, 0
4, 68400, Note_on_c, 1, 62, 69
4, 68423, Note_on_c, 1, 62, 0
4, 68424, Note_on_c, 1, 71, 69
4, 68447, Note_on_c, 1, 71, 0
4, 68448, Note_on_c, 1, 67, 69
4, 68471, Note_on_c, 1, 67, 0
4, 68472, Note_on_c, 1, 71, 69
4, 68495, Note_on_c, 1, 71, 0
4, 68496, Note_on_c, 1, 62, 69
4, 68519, Note_on_c, 1, 62, 0
4, 68520, Note_on_c, 1, 71, 69
4, 68543, Note_on_c, 1, 71, 0
4, 68544, Note_on_c, 1, 60, 78
4, 68633, Note_on_c, 1, 60, 0
4, 68640, Note_on_c, 1, 71, 78
4, 68640, Note_on_c, 1, 67, 78
4, 68685, Note_on_c, 1, 71, 0
4, 68685, Note_on_c, 1, 67, 0
4, 68688, Note_on_c, 1, 72, 78
4, 68688, Note_on_c, 1, 60, 78
4, 68777, Note_on_c, 1, 72, 0
4, 68777, Note_on_c, 1, 60, 0
4, 68784, Note_on_c, 1, 71, 78
4, 68784, Note_on_c, 1, 67, 78
4, 68829, Note_on_c, 1, 71, 0
4, 68829, Note_on_c, 1, 67, 0
4, 68832, Note_on_c, 1, 72, 78
4, 68832, Note_on_c, 1, 60, 78
4, 68921, Note_on_c, 1, 72, 0
4, 68921, Note_on_c, 1, 60, 0
4, 68928, Note_on_c, 1, 71, 78
4, 68928, Note_on_c, 1, 67, 78
4, 68973, Note_on_c, 1, 71, 0
4, 68973, Note_on_c, 1, 67, 0
4, 68976, Note_on_c, 1, 72, 78
4, 68976, Note_on_c, 1, 60, 78
4, 69065, Note_on_c, 1, 72, 0
4, 69065, Note_on_c, 1, 60, 0
4, 69072, Note_on_c, 1, 71, 78
4, 69072, Note_on_c, 1, 67, 78
4, 69117, Note_on_c, 1, 71, 0
4, 69117, Note_on_c, 1, 67, 0
4, 69120, Note_on_c, 1, 72, 69
4, 69143, Note_on_c, 1, 72, 0
4, 69144, Note_on_c, 1, 76, 69
4, 69167, Note_on_c, 1, 76, 0
4, 69168, Note_on_c, 1, 72, 69
4, 69191, Note_on_c, 1, 72, 0
4, 69192, Note_on_c, 1, 76, 69
4, 69215, Note_on_c, 1, 76, 0
4, 69216, Note_on_c, 1, 72, 69
4, 69239, Note_on_c, 1, 72, 0
4, 69240, Note_on_c, 1, 76, 69
4, 69263, Note_on_c, 1, 76, 0
4, 69264, Note_on_c, 1, 71, 69
4, 69287, Note_on_c, 1, 71, 0
4, 69288, Note_on_c, 1, 74, 69
4, 69311, Note_on_c, 1, 74, 0
4, 69312, Note_on_c, 1, 71, 69
4, 69335, Note_on_c, 1, 71, 0
4, 69336, Note_on_c, 1, 74, 69
4, 69359, Note_on_c, 1, 74, 0
4, 69360, Note_on_c, 1, 71, 69
4, 69383, Note_on_c, 1, 71, 0
4, 69384, Note_on_c, 1, 74, 69
4, 69407, Note_on_c, 1, 74, 0
4, 69408, Note_on_c, 1, 69, 69
4, 69431, Note_on_c, 1, 69, 0
4, 69432, Note_on_c, 1, 72, 69
4, 69455, Note_on_c, 1, 72, 0
4, 69456, Note_on_c, 1, 69, 69
4, 69479, Note_on_c, 1, 69, 0
4, 69480, Note_on_c, 1, 72, 69
4, 69503, Note_on_c, 1, 72, 0
4, 69504, Note_on_c, 1, 69, 69
4, 69527, Note_on_c, 1, 69, 0
4, 69528, Note_on_c, 1, 72, 69
4, 69551, Note_on_c, 1, 72, 0
4, 69552, Note_on_c, 1, 67, 69
4, 69575, Note_on_c, 1, 67, 0
4, 69576, Note_on_c, 1, 71, 69
4, 69599, Note_on_c, 1, 71, 0
4, 69600, Note_on_c, 1, 67, 69
4, 69623, Note_on_c, 1, 67, 0
4, 69624, Note_on_c, 1, 71, 69
4, 69647, Note_on_c, 1, 71, 0
4, 69648, Note_on_c, 1, 67, 69
4, 69671, Note_on_c, 1, 67, 0
4, 69672, Note_on_c, 1, 71, 69
4, 69695, Note_on_c, 1, 71, 0
4, 69696, Note_on_c, 1, 66, 69
4, 69719, Note_on_c, 1, 66, 0
4, 69720, Note_on_c, 1, 69, 69
4, 69743, Note_on_c, 1, 69, 0
4, 69744, Note_on_c, 1, 66, 69
4, 69767, Note_on_c, 1, 66, 0
4, 69768, Note_on_c, 1, 69, 69
4, 69791, Note_on_c, 1, 69, 0
4, 69792, Note_on_c, 1, 66, 69
4, 69815, Note_on_c, 1, 66, 0
4, 69816, Note_on_c, 1, 69, 69
4, 69839, Note_on_c, 1, 69, 0
4, 69840, Note_on_c, 1, 64, 69
4, 69863, Note_on_c, 1, 64, 0
4, 69864, Note_on_c, 1, 67, 69
4, 69887, Note_on_c, 1, 67, 0
4, 69888, Note_on_c, 1, 64, 69
4, 69911, Note_on_c, 1, 64, 0
4, 69912, Note_on_c, 1, 67, 69
4, 69935, Note_on_c, 1, 67, 0
4, 69936, Note_on_c, 1, 64, 69
4, 69959, Note_on_c, 1, 64, 0
4, 69960, Note_on_c, 1, 67, 69
4, 69983, Note_on_c, 1, 67, 0
4, 69984, Note_on_c, 1, 63, 69
4, 70007, Note_on_c, 1, 63, 0
4, 70008, Note_on_c, 1, 66, 69
4, 70031, Note_on_c, 1, 66, 0
4, 70032, Note_on_c, 1, 63, 69
4, 70055, Note_on_c, 1, 63, 0
4, 70056, Note_on_c, 1, 66, 69
4, 70079, Note_on_c, 1, 66, 0
4, 70080, Note_on_c, 1, 63, 69
4, 70103, Note_on_c, 1, 63, 0
4, 70104, Note_on_c, 1, 66, 69
4, 70127, Note_on_c, 1, 66, 0
4, 70128, Note_on_c, 1, 63, 69
4, 70151, Note_on_c, 1, 63, 0
4, 70152, Note_on_c, 1, 66, 69
4, 70175, Note_on_c, 1, 66, 0
4, 70176, Note_on_c, 1, 63, 69
4, 70199, Note_on_c, 1, 63, 0
4, 70200, Note_on_c, 1, 66, 69
4, 70223, Note_on_c, 1, 66, 0
4, 70224, Note_on_c, 1, 63, 69
4, 70247, Note_on_c, 1, 63, 0
4, 70248, Note_on_c, 1, 66, 69
4, 70271, Note_on_c, 1, 66, 0
4, 70272, Note_on_c, 1, 64, 78
4, 70272, Note_on_c, 1, 52, 78
4, 70361, Note_on_c, 1, 64, 0
4, 70361, Note_on_c, 1, 52, 0
4, 70368, Note_on_c, 1, 63, 78
4, 70368, Note_on_c, 1, 59, 78
4, 70413, Note_on_c, 1, 63, 0
4, 70413, Note_on_c, 1, 59, 0
4, 70416, Note_on_c, 1, 64, 78
4, 70416, Note_on_c, 1, 52, 78
4, 70505, Note_on_c, 1, 64, 0
4, 70505, Note_on_c, 1, 52, 0
4, 70512, Note_on_c, 1, 63, 78
4, 70512, Note_on_c, 1, 59, 78
4, 70557, Note_on_c, 1, 63, 0
4, 70557, Note_on_c, 1, 59, 0
4, 70560, Note_on_c, 1, 64, 78
4, 70560, Note_on_c, 1, 52, 78
4, 70649, Note_on_c, 1, 64, 0
4, 70649, Note_on_c, 1, 52, 0
4, 70656, Note_on_c, 1, 63, 78
4, 70656, Note_on_c, 1, 59, 78
4, 70701, Note_on_c, 1, 63, 0
4, 70701, Note_on_c, 1, 59, 0
4, 70704, Note_on_c, 1, 64, 78
4, 70704, Note_on_c, 1, 52, 78
4, 70793, Note_on_c, 1, 64, 0
4, 70793, Note_on_c, 1, 52, 0
4, 70800, Note_on_c, 1, 63, 78
4, 70800, Note_on_c, 1, 59, 78
4, 70845, Note_on_c, 1, 63, 0
4, 70845, Note_on_c, 1, 59, 0
4, 70848, Note_on_c, 1, 64, 78
4, 70848, Note_on_c, 1, 52, 78
4, 70937, Note_on_c, 1, 64, 0
4, 70937, Note_on_c, 1, 52, 0
4, 70992, Note_on_c, 1, 60, 78
4, 70992, Note_on_c, 1, 48, 78
4, 71081, Note_on_c, 1, 60, 0
4, 71081, Note_on_c, 1, 48, 0
4, 71136, Note_on_c, 1, 57, 78
4, 71136, Note_on_c, 1, 45, 78
4, 71225, Note_on_c, 1, 57, 0
4, 71225, Note_on_c, 1, 45, 0
4, 71280, Note_on_c, 1, 59, 78
4, 71280, Note_on_c, 1, 47, 78
4, 71369, Note_on_c, 1, 59, 0
4, 71369, Note_on_c, 1, 47, 0
4, 71424, Note_on_c, 1, 52, 78
4, 71424, Note_on_c, 1, 40, 78
4, 71513, Note_on_c, 1, 52, 0
4, 71513, Note_on_c, 1, 40, 0
4, 71568, Note_on_c, 1, 60, 78
4, 71568, Note_on_c, 1, 48, 78
4, 71657, Note_on_c, 1, 60, 0
4, 71657, Note_on_c, 1, 48, 0
4, 71712, Note_on_c, 1, 57, 78
4, 71712, Note_on_c, 1, 45, 78
4, 71801, Note_on_c, 1, 57, 0
4, 71801, Note_on_c, 1, 45, 0
4, 71856, Note_on_c, 1, 59, 78
4, 71856, Note_on_c, 1, 47, 78
4, 71945, Note_on_c, 1, 59, 0
4, 71945, Note_on_c, 1, 47, 0
4, 72000, Note_on_c, 1, 40, 65
4, 72020, Note_on_c, 1, 40, 0
4, 72048, Note_on_c, 1, 43, 65
4, 72068, Note_on_c, 1, 43, 0
4, 72096, Note_on_c, 1, 47, 65
4, 72116, Note_on_c, 1, 47, 0
4, 72144, Note_on_c, 1, 52, 65
4, 72189, Note_on_c, 1, 52, 0
4, 72288, Note_on_c, 1, 40, 65
4, 72308, Note_on_c, 1, 40, 0
4, 72336, Note_on_c, 1, 43, 65
4, 72356, Note_on_c, 1, 43, 0
4, 72384, Note_on_c, 1, 47, 65
4, 72404, Note_on_c, 1, 47, 0
4, 72432, Note_on_c, 1, 52, 65
4, 72477, Note_on_c, 1, 52, 0
4, 72576, Note_on_c, 1, 40, 65
4, 72596, Note_on_c, 1, 40, 0
4, 72624, Note_on_c, 1, 43, 65
4, 72644, Note_on_c, 1, 43, 0
4, 72672, Note_on_c, 1, 47, 65
4, 72692, Note_on_c, 1, 47, 0
4, 72720, Note_on_c, 1, 52, 65
4, 72765, Note_on_c, 1, 52, 0
4, 73152, End_track
5, 0, Start_track
5, 0, Program_c, 1, 0
5, 0, Control_c, 1, 7, 127
5, 0, Control_c, 1, 10, 64
5, 9360, Note_on_c, 1, 60, 64
5, 9493, Note_on_c, 1, 60, 0
5, 9504, Note_on_c, 1, 62, 64
5, 9769, Note_on_c, 1, 62, 0
5, 9792, Note_on_c, 1, 67, 64
5, 9925, Note_on_c, 1, 67, 0
5, 11520, Note_on_c, 1, 62, 64
5, 11785, Note_on_c, 1, 62, 0
5, 11808, Note_on_c, 1, 67, 64
5, 11808, Note_on_c, 1, 55, 64
5, 11897, Note_on_c, 1, 67, 0
5, 11897, Note_on_c, 1, 55, 0
5, 11904, Note_on_c, 1, 66, 64
5, 11904, Note_on_c, 1, 62, 64
5, 11949, Note_on_c, 1, 66, 0
5, 11949, Note_on_c, 1, 62, 0
5, 11952, Note_on_c, 1, 67, 64
5, 11952, Note_on_c, 1, 55, 64
5, 12041, Note_on_c, 1, 67, 0
5, 12041, Note_on_c, 1, 55, 0
5, 12048, Note_on_c, 1, 66, 64
5, 12048, Note_on_c, 1, 62, 64
5, 12093, Note_on_c, 1, 66, 0
5, 12093, Note_on_c, 1, 62, 0
5, 12096, Note_on_c, 1, 67, 64
5, 12096, Note_on_c, 1, 55, 64
5, 12185, Note_on_c, 1, 67, 0
5, 12185, Note_on_c, 1, 55, 0
5, 12192, Note_on_c, 1, 66, 64
5, 12192, Note_on_c, 1, 62, 64
5, 12237, Note_on_c, 1, 66, 0
5, 12237, Note_on_c, 1, 62, 0
5, 12240, Note_on_c, 1, 67, 64
5, 12240, Note_on_c, 1, 55, 64
5, 12329, Note_on_c, 1, 67, 0
5, 12329, Note_on_c, 1, 55, 0
5, 12336, Note_on_c, 1, 66, 64
5, 12336, Note_on_c, 1, 62, 64
5, 12381, Note_on_c, 1, 66, 0
5, 12381, Note_on_c, 1, 62, 0
5, 12384, Note_on_c, 1, 67, 64
5, 12384, Note_on_c, 1, 55, 64
5, 12473, Note_on_c, 1, 67, 0
5, 12473, Note_on_c, 1, 55, 0
5, 12480, Note_on_c, 1, 66, 64
5, 12480, Note_on_c, 1, 62, 64
5, 12525, Note_on_c, 1, 66, 0
5, 12525, Note_on_c, 1, 62, 0
5, 12528, Note_on_c, 1, 67, 64
5, 12528, Note_on_c, 1, 55, 64
5, 12617, Note_on_c, 1, 67, 0
5, 12617, Note_on_c, 1, 55, 0
5, 12624, Note_on_c, 1, 66, 64
5, 12624, Note_on_c, 1, 62, 64
5, 12669, Note_on_c, 1, 66, 0
5, 12669, Note_on_c, 1, 62, 0
5, 22320, Note_on_c, 1, 60, 64
5, 22453, Note_on_c, 1, 60, 0
5, 22464, Note_on_c, 1, 62, 64
5, 22729, Note_on_c, 1, 62, 0
5, 22752, Note_on_c, 1, 67, 64
5, 22885, Note_on_c, 1, 67, 0
5, 24480, Note_on_c, 1, 62, 64
5, 24745, Note_on_c, 1, 62, 0
5, 24768, Note_on_c, 1, 67, 64
5, 24768, Note_on_c, 1, 55, 64
5, 24857, Note_on_c, 1, 67, 0
5, 24857, Note_on_c, 1, 55, 0
5, 24864, Note_on_c, 1, 66, 64
5, 24864, Note_on_c, 1, 62, 64
5, 24909, Note_on_c, 1, 66, 0
5, 24909, Note_on_c, 1, 62, 0
5, 24912, Note_on_c, 1, 67, 64
5, 24912, Note_on_c, 1, 55, 64
5, 25001, Note_on_c, 1, 67, 0
5, 25001, Note_on_c, 1, 55, 0
5, 25008, Note_on_c, 1, 66, 64
5, 25008, Note_on_c, 1, 62, 64
5, 25053, Note_on_c, 1, 66, 0
5, 25053, Note_on_c, 1, 62, 0
5, 25056, Note_on_c, 1, 67, 64
5, 25056, Note_on_c, 1, 55, 64
5, 25145, Note_on_c, 1, 67, 0
5, 25145, Note_on_c, 1, 55, 0
5, 25152, Note_on_c, 1, 66, 64
5, 25152, Note_on_c, 1, 62, 64
5, 25197, Note_on_c, 1, 66, 0
5, 25197, Note_on_c, 1, 62, 0
5, 25200, Note_on_c, 1, 67, 64
5, 25200, Note_on_c, 1, 55, 64
5, 25289, Note_on_c, 1, 67, 0
5, 25289, Note_on_c, 1, 55, 0
5, 25296, Note_on_c, 1, 66, 64
5, 25296, Note_on_c, 1, 62, 64
5, 25341, Note_on_c, 1, 66, 0
5, 25341, Note_on_c, 1, 62, 0
5, 25344, Note_on_c, 1, 67, 64
5, 25344, Note_on_c, 1, 55, 64
5, 25433, Note_on_c, 1, 67, 0
5, 25433, Note_on_c, 1, 55, 0
5, 25440, Note_on_c, 1, 66, 64
5, 25440, Note_on_c, 1, 62, 64
5, 25485, Note_on_c, 1, 66, 0
5, 25485, Note_on_c, 1, 62, 0
5, 25488, Note_on_c, 1, 67, 64
5, 25488, Note_on_c, 1, 55, 64
5, 25577, Note_on_c, 1, 67, 0
5, 25577, Note_on_c, 1, 55, 0
5, 25584, Note_on_c, 1, 66, 64
5, 25584, Note_on_c, 1, 62, 64
5, 25629, Note_on_c, 1, 66, 0
5, 25629, Note_on_c, 1, 62, 0
5, 40608, Note_on_c, 1, 64, 73
5, 40697, Note_on_c, 1, 64, 0
5, 40992, Note_on_c, 1, 67, 73
5, 41037, Note_on_c, 1, 67, 0
5, 41040, Note_on_c, 1, 69, 73
5, 41173, Note_on_c, 1, 69, 0
5, 41184, Note_on_c, 1, 59, 73
5, 41449, Note_on_c, 1, 59, 0
5, 41472, Note_on_c, 1, 64, 73
5, 41605, Note_on_c, 1, 64, 0
5, 42336, Note_on_c, 1, 64, 73
5, 42425, Note_on_c, 1, 64, 0
5, 43776, Note_on_c, 1, 59, 73
5, 44041, Note_on_c, 1, 59, 0
5, 64224, Note_on_c, 1, 64, 73
5, 64313, Note_on_c, 1, 64, 0
5, 64608, Note_on_c, 1, 67, 73
5, 64653, Note_on_c, 1, 67, 0
5, 64656, Note_on_c, 1, 69, 73
5, 64789, Note_on_c, 1, 69, 0
5, 64800, Note_on_c, 1, 59, 73
5, 65065, Note_on_c, 1, 59, 0
5, 65088, Note_on_c, 1, 64, 73
5, 65221, Note_on_c, 1, 64, 0
5, 65952, Note_on_c, 1, 64, 73
5, 66041, Note_on_c, 1, 64, 0
5, 67392, Note_on_c, 1, 59, 73
5, 67657, Note_on_c, 1, 59, 0
5, 73152, End_track
6, 0, Start_track
6, 0, Title_t, "Sonata I   Haydn  "
6, 0, End_track
0, 0, End_of_file
