0, 0, Header, 1, 6, 96
1, 0, Start_track
1, 0, Copyright_t, "Copyright  2000 <copyright holder>"
1, 0, Text_t, "Piano Solo\015\012"
1, 0, Text_t, "<composer>\015\012"
1, 0, Sequencer_specific, 16, 68, 87, 77, 90, 86, 82, 83, 78, 32, 55, 46, 49, 46, 50, 46, 48
1, 0, Time_signature, 2, 2, 24, 8
1, 0, Tempo, 500000
1, 0, Key_signature, 2, "major"
1, 144, Tempo, 545454
1, 4656, Tempo, 750000
1, 4704, Tempo, 545454
1, 13968, Tempo, 545454
1, 18480, Tempo, 750000
1, 18528, Tempo, 545454
1, 41712, Tempo, 750000
1, 41760, Tempo, 545454
1, 49008, Tempo, 1000000
1, 49104, Tempo, 545454
1, 65904, Tempo, 750000
1, 65952, Tempo, 545454
1, 73200, Tempo, 1000000
1, 73296, Tempo, 545454
1, 76224, End_track
2, 0, Start_track
2, 0, Program_c, 0, 0
2, 0, Control_c, 0, 7, 127
2, 0, Control_c, 0, 10, 64
2, 144, Note_on_c, 0, 57, 75
2, 156, Note_on_c, 0, 57, 0
2, 156, Note_on_c, 0, 62, 75
2, 168, Note_on_c, 0, 62, 0
2, 168, Note_on_c, 0, 66, 75
2, 180, Note_on_c, 0, 66, 0
2, 180, Note_on_c, 0, 69, 75
2, 192, Note_on_c, 0, 69, 0
2, 192, Note_on_c, 0, 66, 76
2, 240, Note_on_c, 0, 66, 0
2, 240, Note_on_c, 0, 62, 80
2, 285, Note_on_c, 0, 62, 0
2, 288, Note_on_c, 0, 74, 84
2, 308, Note_on_c, 0, 74, 0
2, 336, Note_on_c, 0, 69, 81
2, 356, Note_on_c, 0, 69, 0
2, 384, Note_on_c, 0, 71, 79
2, 396, Note_on_c, 0, 71, 0
2, 396, Note_on_c, 0, 73, 79
2, 408, Note_on_c, 0, 73, 0
2, 408, Note_on_c, 0, 71, 79
2, 429, Note_on_c, 0, 71, 0
2, 432, Note_on_c, 0, 69, 77
2, 477, Note_on_c, 0, 69, 0
2, 528, Note_on_c, 0, 57, 75
2, 540, Note_on_c, 0, 57, 0
2, 540, Note_on_c, 0, 62, 75
2, 552, Note_on_c, 0, 62, 0
2, 552, Note_on_c, 0, 66, 76
2, 564, Note_on_c, 0, 66, 0
2, 564, Note_on_c, 0, 69, 77
2, 576, Note_on_c, 0, 69, 0
2, 576, Note_on_c, 0, 66, 78
2, 624, Note_on_c, 0, 66, 0
2, 624, Note_on_c, 0, 62, 84
2, 669, Note_on_c, 0, 62, 0
2, 672, Note_on_c, 0, 81, 82
2, 672, Note_on_c, 0, 78, 82
2, 692, Note_on_c, 0, 81, 0
2, 692, Note_on_c, 0, 78, 0
2, 720, Note_on_c, 0, 78, 80
2, 720, Note_on_c, 0, 74, 80
2, 740, Note_on_c, 0, 78, 0
2, 740, Note_on_c, 0, 74, 0
2, 768, Note_on_c, 0, 79, 78
2, 780, Note_on_c, 0, 79, 0
2, 780, Note_on_c, 0, 81, 78
2, 792, Note_on_c, 0, 81, 0
2, 792, Note_on_c, 0, 79, 78
2, 813, Note_on_c, 0, 79, 0
2, 816, Note_on_c, 0, 78, 76
2, 861, Note_on_c, 0, 78, 0
2, 912, Note_on_c, 0, 74, 75
2, 924, Note_on_c, 0, 74, 0
2, 924, Note_on_c, 0, 78, 75
2, 936, Note_on_c, 0, 78, 0
2, 936, Note_on_c, 0, 81, 75
2, 948, Note_on_c, 0, 81, 0
2, 948, Note_on_c, 0, 86, 75
2, 960, Note_on_c, 0, 86, 0
2, 960, Note_on_c, 0, 72, 75
2, 1100, Note_on_c, 0, 72, 0
2, 1104, Note_on_c, 0, 84, 75
2, 1116, Note_on_c, 0, 84, 0
2, 1116, Note_on_c, 0, 81, 75
2, 1128, Note_on_c, 0, 81, 0
2, 1128, Note_on_c, 0, 78, 75
2, 1140, Note_on_c, 0, 78, 0
2, 1140, Note_on_c, 0, 72, 75
2, 1152, Note_on_c, 0, 72, 0
2, 1152, Note_on_c, 0, 71, 75
2, 1292, Note_on_c, 0, 71, 0
2, 1296, Note_on_c, 0, 71, 75
2, 1308, Note_on_c, 0, 71, 0
2, 1308, Note_on_c, 0, 74, 75
2, 1320, Note_on_c, 0, 74, 0
2, 1320, Note_on_c, 0, 79, 75
2, 1332, Note_on_c, 0, 79, 0
2, 1332, Note_on_c, 0, 83, 75
2, 1344, Note_on_c, 0, 83, 0
2, 1344, Note_on_c, 0, 81, 75
2, 1344, Note_on_c, 0, 78, 75
2, 1364, Note_on_c, 0, 81, 0
2, 1364, Note_on_c, 0, 78, 0
2, 1392, Note_on_c, 0, 78, 75
2, 1392, Note_on_c, 0, 74, 75
2, 1412, Note_on_c, 0, 78, 0
2, 1412, Note_on_c, 0, 74, 0
2, 1440, Note_on_c, 0, 79, 75
2, 1440, Note_on_c, 0, 76, 75
2, 1460, Note_on_c, 0, 79, 0
2, 1460, Note_on_c, 0, 76, 0
2, 1488, Note_on_c, 0, 76, 75
2, 1488, Note_on_c, 0, 73, 75
2, 1508, Note_on_c, 0, 76, 0
2, 1508, Note_on_c, 0, 73, 0
2, 1536, Note_on_c, 0, 76, 75
2, 1536, Note_on_c, 0, 73, 75
2, 1632, Note_on_c, 0, 76, 0
2, 1632, Note_on_c, 0, 73, 0
2, 1632, Note_on_c, 0, 78, 75
2, 1632, Note_on_c, 0, 74, 75
2, 1677, Note_on_c, 0, 78, 0
2, 1677, Note_on_c, 0, 74, 0
2, 1680, Note_on_c, 0, 74, 75
2, 1692, Note_on_c, 0, 74, 0
2, 1692, Note_on_c, 0, 78, 75
2, 1704, Note_on_c, 0, 78, 0
2, 1704, Note_on_c, 0, 81, 75
2, 1716, Note_on_c, 0, 81, 0
2, 1716, Note_on_c, 0, 86, 75
2, 1728, Note_on_c, 0, 86, 0
2, 1728, Note_on_c, 0, 72, 75
2, 1868, Note_on_c, 0, 72, 0
2, 1872, Note_on_c, 0, 84, 75
2, 1884, Note_on_c, 0, 84, 0
2, 1884, Note_on_c, 0, 81, 75
2, 1896, Note_on_c, 0, 81, 0
2, 1896, Note_on_c, 0, 78, 75
2, 1908, Note_on_c, 0, 78, 0
2, 1908, Note_on_c, 0, 72, 75
2, 1920, Note_on_c, 0, 72, 0
2, 1920, Note_on_c, 0, 71, 75
2, 2060, Note_on_c, 0, 71, 0
2, 2064, Note_on_c, 0, 83, 75
2, 2079, Note_on_c, 0, 83, 0
2, 2080, Note_on_c, 0, 85, 75
2, 2095, Note_on_c, 0, 85, 0
2, 2096, Note_on_c, 0, 86, 75
2, 2111, Note_on_c, 0, 86, 0
2, 2112, Note_on_c, 0, 85, 91
2, 2128, Note_on_c, 0, 85, 0
2, 2128, Note_on_c, 0, 83, 75
2, 2143, Note_on_c, 0, 83, 0
2, 2144, Note_on_c, 0, 81, 75
2, 2159, Note_on_c, 0, 81, 0
2, 2160, Note_on_c, 0, 79, 75
2, 2175, Note_on_c, 0, 79, 0
2, 2176, Note_on_c, 0, 78, 75
2, 2191, Note_on_c, 0, 78, 0
2, 2192, Note_on_c, 0, 76, 75
2, 2207, Note_on_c, 0, 76, 0
2, 2208, Note_on_c, 0, 74, 75
2, 2223, Note_on_c, 0, 74, 0
2, 2224, Note_on_c, 0, 73, 75
2, 2239, Note_on_c, 0, 73, 0
2, 2240, Note_on_c, 0, 71, 75
2, 2255, Note_on_c, 0, 71, 0
2, 2256, Note_on_c, 0, 69, 75
2, 2268, Note_on_c, 0, 69, 0
2, 2268, Note_on_c, 0, 67, 75
2, 2280, Note_on_c, 0, 67, 0
2, 2280, Note_on_c, 0, 66, 75
2, 2292, Note_on_c, 0, 66, 0
2, 2292, Note_on_c, 0, 64, 75
2, 2304, Note_on_c, 0, 64, 0
2, 2304, Note_on_c, 0, 62, 91
2, 2400, Note_on_c, 0, 62, 0
2, 2448, Note_on_c, 0, 57, 77
2, 2496, Note_on_c, 0, 57, 0
2, 2496, Note_on_c, 0, 62, 63
2, 2520, Note_on_c, 0, 62, 0
2, 2520, Note_on_c, 0, 61, 65
2, 2543, Note_on_c, 0, 61, 0
2, 2544, Note_on_c, 0, 64, 66
2, 2568, Note_on_c, 0, 64, 0
2, 2568, Note_on_c, 0, 62, 68
2, 2591, Note_on_c, 0, 62, 0
2, 2592, Note_on_c, 0, 66, 69
2, 2616, Note_on_c, 0, 66, 0
2, 2616, Note_on_c, 0, 64, 70
2, 2639, Note_on_c, 0, 64, 0
2, 2640, Note_on_c, 0, 67, 72
2, 2664, Note_on_c, 0, 67, 0
2, 2664, Note_on_c, 0, 66, 73
2, 2687, Note_on_c, 0, 66, 0
2, 2688, Note_on_c, 0, 66, 75
2, 2688, Note_on_c, 0, 62, 75
2, 2784, Note_on_c, 0, 66, 0
2, 2784, Note_on_c, 0, 62, 0
2, 2784, Note_on_c, 0, 64, 75
2, 2784, Note_on_c, 0, 61, 75
2, 2829, Note_on_c, 0, 64, 0
2, 2829, Note_on_c, 0, 61, 0
2, 2832, Note_on_c, 0, 57, 85
2, 2880, Note_on_c, 0, 57, 0
2, 2880, Note_on_c, 0, 64, 70
2, 2904, Note_on_c, 0, 64, 0
2, 2904, Note_on_c, 0, 63, 70
2, 2927, Note_on_c, 0, 63, 0
2, 2928, Note_on_c, 0, 66, 71
2, 2952, Note_on_c, 0, 66, 0
2, 2952, Note_on_c, 0, 64, 72
2, 2975, Note_on_c, 0, 64, 0
2, 2976, Note_on_c, 0, 67, 72
2, 3000, Note_on_c, 0, 67, 0
2, 3000, Note_on_c, 0, 66, 73
2, 3023, Note_on_c, 0, 66, 0
2, 3024, Note_on_c, 0, 69, 73
2, 3048, Note_on_c, 0, 69, 0
2, 3048, Note_on_c, 0, 67, 74
2, 3071, Note_on_c, 0, 67, 0
2, 3072, Note_on_c, 0, 67, 75
2, 3072, Note_on_c, 0, 64, 75
2, 3168, Note_on_c, 0, 67, 0
2, 3168, Note_on_c, 0, 64, 0
2, 3168, Note_on_c, 0, 66, 75
2, 3168, Note_on_c, 0, 62, 75
2, 3213, Note_on_c, 0, 66, 0
2, 3213, Note_on_c, 0, 62, 0
2, 3216, Note_on_c, 0, 62, 85
2, 3264, Note_on_c, 0, 62, 0
2, 3264, Note_on_c, 0, 67, 70
2, 3288, Note_on_c, 0, 67, 0
2, 3288, Note_on_c, 0, 66, 70
2, 3311, Note_on_c, 0, 66, 0
2, 3312, Note_on_c, 0, 69, 71
2, 3336, Note_on_c, 0, 69, 0
2, 3336, Note_on_c, 0, 67, 72
2, 3359, Note_on_c, 0, 67, 0
2, 3360, Note_on_c, 0, 71, 72
2, 3384, Note_on_c, 0, 71, 0
2, 3384, Note_on_c, 0, 69, 73
2, 3407, Note_on_c, 0, 69, 0
2, 3408, Note_on_c, 0, 74, 73
2, 3432, Note_on_c, 0, 74, 0
2, 3432, Note_on_c, 0, 73, 74
2, 3455, Note_on_c, 0, 73, 0
2, 3456, Note_on_c, 0, 71, 75
2, 3476, Note_on_c, 0, 71, 0
2, 3504, Note_on_c, 0, 71, 75
2, 3528, Note_on_c, 0, 71, 0
2, 3528, Note_on_c, 0, 74, 75
2, 3551, Note_on_c, 0, 74, 0
2, 3552, Note_on_c, 0, 69, 75
2, 3572, Note_on_c, 0, 69, 0
2, 3648, Note_on_c, 0, 69, 75
2, 3654, Note_on_c, 0, 69, 0
2, 3654, Note_on_c, 0, 67, 75
2, 3660, Note_on_c, 0, 67, 0
2, 3660, Note_on_c, 0, 66, 75
2, 3666, Note_on_c, 0, 66, 0
2, 3666, Note_on_c, 0, 67, 75
2, 3693, Note_on_c, 0, 67, 0
2, 3696, Note_on_c, 0, 67, 75
2, 3720, Note_on_c, 0, 67, 0
2, 3720, Note_on_c, 0, 71, 75
2, 3743, Note_on_c, 0, 71, 0
2, 3744, Note_on_c, 0, 66, 75
2, 3764, Note_on_c, 0, 66, 0
2, 3840, Note_on_c, 0, 73, 75
2, 3846, Note_on_c, 0, 73, 0
2, 3846, Note_on_c, 0, 71, 75
2, 3852, Note_on_c, 0, 71, 0
2, 3852, Note_on_c, 0, 69, 75
2, 3858, Note_on_c, 0, 69, 0
2, 3858, Note_on_c, 0, 71, 75
2, 3885, Note_on_c, 0, 71, 0
2, 3888, Note_on_c, 0, 71, 75
2, 3912, Note_on_c, 0, 71, 0
2, 3912, Note_on_c, 0, 74, 75
2, 3935, Note_on_c, 0, 74, 0
2, 3936, Note_on_c, 0, 69, 75
2, 3956, Note_on_c, 0, 69, 0
2, 4032, Note_on_c, 0, 69, 75
2, 4038, Note_on_c, 0, 69, 0
2, 4038, Note_on_c, 0, 67, 75
2, 4044, Note_on_c, 0, 67, 0
2, 4044, Note_on_c, 0, 66, 75
2, 4050, Note_on_c, 0, 66, 0
2, 4050, Note_on_c, 0, 67, 75
2, 4077, Note_on_c, 0, 67, 0
2, 4080, Note_on_c, 0, 67, 75
2, 4104, Note_on_c, 0, 67, 0
2, 4104, Note_on_c, 0, 71, 75
2, 4127, Note_on_c, 0, 71, 0
2, 4128, Note_on_c, 0, 66, 75
2, 4148, Note_on_c, 0, 66, 0
2, 4224, Note_on_c, 0, 63, 75
2, 4247, Note_on_c, 0, 63, 0
2, 4248, Note_on_c, 0, 64, 77
2, 4271, Note_on_c, 0, 64, 0
2, 4272, Note_on_c, 0, 66, 79
2, 4295, Note_on_c, 0, 66, 0
2, 4296, Note_on_c, 0, 67, 81
2, 4319, Note_on_c, 0, 67, 0
2, 4320, Note_on_c, 0, 69, 84
2, 4343, Note_on_c, 0, 69, 0
2, 4344, Note_on_c, 0, 71, 81
2, 4367, Note_on_c, 0, 71, 0
2, 4368, Note_on_c, 0, 67, 79
2, 4391, Note_on_c, 0, 67, 0
2, 4392, Note_on_c, 0, 64, 77
2, 4415, Note_on_c, 0, 64, 0
2, 4416, Note_on_c, 0, 62, 75
2, 4608, Note_on_c, 0, 62, 0
2, 4608, Note_on_c, 0, 61, 63
2, 4628, Note_on_c, 0, 61, 0
2, 4752, Note_on_c, 0, 64, 84
2, 4764, Note_on_c, 0, 64, 0
2, 4764, Note_on_c, 0, 69, 84
2, 4776, Note_on_c, 0, 69, 0
2, 4776, Note_on_c, 0, 73, 84
2, 4788, Note_on_c, 0, 73, 0
2, 4788, Note_on_c, 0, 76, 84
2, 4800, Note_on_c, 0, 76, 0
2, 4800, Note_on_c, 0, 73, 84
2, 4845, Note_on_c, 0, 73, 0
2, 4848, Note_on_c, 0, 69, 84
2, 4860, Note_on_c, 0, 69, 0
2, 4860, Note_on_c, 0, 73, 84
2, 4872, Note_on_c, 0, 73, 0
2, 4872, Note_on_c, 0, 76, 84
2, 4884, Note_on_c, 0, 76, 0
2, 4884, Note_on_c, 0, 81, 84
2, 4896, Note_on_c, 0, 81, 0
2, 4896, Note_on_c, 0, 76, 84
2, 4941, Note_on_c, 0, 76, 0
2, 4944, Note_on_c, 0, 76, 84
2, 4956, Note_on_c, 0, 76, 0
2, 4956, Note_on_c, 0, 81, 84
2, 4968, Note_on_c, 0, 81, 0
2, 4968, Note_on_c, 0, 85, 84
2, 4980, Note_on_c, 0, 85, 0
2, 4980, Note_on_c, 0, 88, 84
2, 4992, Note_on_c, 0, 88, 0
2, 4992, Note_on_c, 0, 85, 84
2, 5037, Note_on_c, 0, 85, 0
2, 5136, Note_on_c, 0, 69, 75
2, 5148, Note_on_c, 0, 69, 0
2, 5148, Note_on_c, 0, 64, 75
2, 5160, Note_on_c, 0, 64, 0
2, 5160, Note_on_c, 0, 61, 75
2, 5172, Note_on_c, 0, 61, 0
2, 5172, Note_on_c, 0, 57, 75
2, 5184, Note_on_c, 0, 57, 0
2, 5184, Note_on_c, 0, 55, 75
2, 5361, Note_on_c, 0, 55, 0
2, 5376, Note_on_c, 0, 54, 75
2, 5399, Note_on_c, 0, 54, 0
2, 5400, Note_on_c, 0, 59, 75
2, 5423, Note_on_c, 0, 59, 0
2, 5424, Note_on_c, 0, 58, 75
2, 5447, Note_on_c, 0, 58, 0
2, 5448, Note_on_c, 0, 59, 75
2, 5471, Note_on_c, 0, 59, 0
2, 5472, Note_on_c, 0, 61, 75
2, 5495, Note_on_c, 0, 61, 0
2, 5496, Note_on_c, 0, 59, 75
2, 5519, Note_on_c, 0, 59, 0
2, 5520, Note_on_c, 0, 58, 75
2, 5543, Note_on_c, 0, 58, 0
2, 5544, Note_on_c, 0, 59, 75
2, 5567, Note_on_c, 0, 59, 0
2, 5568, Note_on_c, 0, 57, 75
2, 5745, Note_on_c, 0, 57, 0
2, 5760, Note_on_c, 0, 56, 75
2, 5783, Note_on_c, 0, 56, 0
2, 5784, Note_on_c, 0, 64, 75
2, 5807, Note_on_c, 0, 64, 0
2, 5808, Note_on_c, 0, 63, 75
2, 5831, Note_on_c, 0, 63, 0
2, 5832, Note_on_c, 0, 64, 75
2, 5855, Note_on_c, 0, 64, 0
2, 5856, Note_on_c, 0, 66, 75
2, 5879, Note_on_c, 0, 66, 0
2, 5880, Note_on_c, 0, 64, 75
2, 5903, Note_on_c, 0, 64, 0
2, 5904, Note_on_c, 0, 63, 75
2, 5927, Note_on_c, 0, 63, 0
2, 5928, Note_on_c, 0, 64, 75
2, 5951, Note_on_c, 0, 64, 0
2, 5952, Note_on_c, 0, 63, 75
2, 6000, Note_on_c, 0, 63, 0
2, 6000, Note_on_c, 0, 69, 75
2, 6045, Note_on_c, 0, 69, 0
2, 6096, Note_on_c, 0, 63, 75
2, 6144, Note_on_c, 0, 63, 0
2, 6144, Note_on_c, 0, 64, 75
2, 6164, Note_on_c, 0, 64, 0
2, 6192, Note_on_c, 0, 64, 75
2, 6216, Note_on_c, 0, 64, 0
2, 6216, Note_on_c, 0, 71, 75
2, 6239, Note_on_c, 0, 71, 0
2, 6240, Note_on_c, 0, 64, 75
2, 6285, Note_on_c, 0, 64, 0
2, 6288, Note_on_c, 0, 64, 75
2, 6336, Note_on_c, 0, 64, 0
2, 6336, Note_on_c, 0, 63, 75
2, 6381, Note_on_c, 0, 63, 0
2, 6384, Note_on_c, 0, 69, 75
2, 6404, Note_on_c, 0, 69, 0
2, 6480, Note_on_c, 0, 63, 75
2, 6528, Note_on_c, 0, 63, 0
2, 6528, Note_on_c, 0, 64, 75
2, 6548, Note_on_c, 0, 64, 0
2, 6576, Note_on_c, 0, 64, 75
2, 6600, Note_on_c, 0, 64, 0
2, 6600, Note_on_c, 0, 71, 75
2, 6623, Note_on_c, 0, 71, 0
2, 6624, Note_on_c, 0, 64, 75
2, 6669, Note_on_c, 0, 64, 0
2, 6672, Note_on_c, 0, 62, 75
2, 6678, Note_on_c, 0, 62, 0
2, 6678, Note_on_c, 0, 64, 75
2, 6684, Note_on_c, 0, 64, 0
2, 6684, Note_on_c, 0, 62, 75
2, 6717, Note_on_c, 0, 62, 0
2, 6720, Note_on_c, 0, 61, 75
2, 6765, Note_on_c, 0, 61, 0
2, 6768, Note_on_c, 0, 76, 75
2, 6813, Note_on_c, 0, 76, 0
2, 6864, Note_on_c, 0, 69, 75
2, 6912, Note_on_c, 0, 69, 0
2, 6912, Note_on_c, 0, 68, 75
2, 6932, Note_on_c, 0, 68, 0
2, 6960, Note_on_c, 0, 68, 75
2, 6984, Note_on_c, 0, 68, 0
2, 6984, Note_on_c, 0, 76, 75
2, 7007, Note_on_c, 0, 76, 0
2, 7008, Note_on_c, 0, 68, 75
2, 7028, Note_on_c, 0, 68, 0
2, 7056, Note_on_c, 0, 68, 75
2, 7104, Note_on_c, 0, 68, 0
2, 7104, Note_on_c, 0, 69, 75
2, 7124, Note_on_c, 0, 69, 0
2, 7152, Note_on_c, 0, 69, 75
2, 7176, Note_on_c, 0, 69, 0
2, 7176, Note_on_c, 0, 76, 75
2, 7199, Note_on_c, 0, 76, 0
2, 7200, Note_on_c, 0, 69, 75
2, 7220, Note_on_c, 0, 69, 0
2, 7248, Note_on_c, 0, 69, 75
2, 7296, Note_on_c, 0, 69, 0
2, 7296, Note_on_c, 0, 71, 75
2, 7316, Note_on_c, 0, 71, 0
2, 7344, Note_on_c, 0, 71, 75
2, 7368, Note_on_c, 0, 71, 0
2, 7368, Note_on_c, 0, 76, 75
2, 7391, Note_on_c, 0, 76, 0
2, 7392, Note_on_c, 0, 71, 75
2, 7437, Note_on_c, 0, 71, 0
2, 7440, Note_on_c, 0, 74, 75
2, 7485, Note_on_c, 0, 74, 0
2, 7488, Note_on_c, 0, 73, 75
2, 7511, Note_on_c, 0, 73, 0
2, 7512, Note_on_c, 0, 74, 75
2, 7535, Note_on_c, 0, 74, 0
2, 7536, Note_on_c, 0, 76, 75
2, 7559, Note_on_c, 0, 76, 0
2, 7560, Note_on_c, 0, 73, 75
2, 7583, Note_on_c, 0, 73, 0
2, 7584, Note_on_c, 0, 71, 75
2, 7607, Note_on_c, 0, 71, 0
2, 7608, Note_on_c, 0, 69, 75
2, 7631, Note_on_c, 0, 69, 0
2, 7632, Note_on_c, 0, 68, 75
2, 7655, Note_on_c, 0, 68, 0
2, 7656, Note_on_c, 0, 66, 75
2, 7679, Note_on_c, 0, 66, 0
2, 7680, Note_on_c, 0, 64, 75
2, 7703, Note_on_c, 0, 64, 0
2, 7704, Note_on_c, 0, 63, 75
2, 7727, Note_on_c, 0, 63, 0
2, 7728, Note_on_c, 0, 64, 75
2, 7751, Note_on_c, 0, 64, 0
2, 7752, Note_on_c, 0, 66, 75
2, 7775, Note_on_c, 0, 66, 0
2, 7776, Note_on_c, 0, 64, 75
2, 7799, Note_on_c, 0, 64, 0
2, 7800, Note_on_c, 0, 62, 75
2, 7823, Note_on_c, 0, 62, 0
2, 7824, Note_on_c, 0, 61, 75
2, 7847, Note_on_c, 0, 61, 0
2, 7848, Note_on_c, 0, 59, 75
2, 7871, Note_on_c, 0, 59, 0
2, 7872, Note_on_c, 0, 61, 75
2, 7895, Note_on_c, 0, 61, 0
2, 7896, Note_on_c, 0, 62, 75
2, 7919, Note_on_c, 0, 62, 0
2, 7920, Note_on_c, 0, 64, 75
2, 7943, Note_on_c, 0, 64, 0
2, 7944, Note_on_c, 0, 61, 75
2, 7967, Note_on_c, 0, 61, 0
2, 7968, Note_on_c, 0, 59, 75
2, 7991, Note_on_c, 0, 59, 0
2, 7992, Note_on_c, 0, 57, 75
2, 8015, Note_on_c, 0, 57, 0
2, 8016, Note_on_c, 0, 56, 75
2, 8039, Note_on_c, 0, 56, 0
2, 8040, Note_on_c, 0, 54, 75
2, 8063, Note_on_c, 0, 54, 0
2, 8256, Note_on_c, 0, 73, 75
2, 8279, Note_on_c, 0, 73, 0
2, 8280, Note_on_c, 0, 74, 75
2, 8303, Note_on_c, 0, 74, 0
2, 8304, Note_on_c, 0, 76, 75
2, 8327, Note_on_c, 0, 76, 0
2, 8328, Note_on_c, 0, 73, 75
2, 8351, Note_on_c, 0, 73, 0
2, 8352, Note_on_c, 0, 71, 75
2, 8375, Note_on_c, 0, 71, 0
2, 8376, Note_on_c, 0, 69, 75
2, 8399, Note_on_c, 0, 69, 0
2, 8400, Note_on_c, 0, 68, 75
2, 8423, Note_on_c, 0, 68, 0
2, 8424, Note_on_c, 0, 69, 75
2, 8447, Note_on_c, 0, 69, 0
2, 8448, Note_on_c, 0, 78, 75
2, 8471, Note_on_c, 0, 78, 0
2, 8472, Note_on_c, 0, 80, 75
2, 8495, Note_on_c, 0, 80, 0
2, 8496, Note_on_c, 0, 81, 75
2, 8519, Note_on_c, 0, 81, 0
2, 8520, Note_on_c, 0, 78, 75
2, 8543, Note_on_c, 0, 78, 0
2, 8544, Note_on_c, 0, 76, 75
2, 8567, Note_on_c, 0, 76, 0
2, 8568, Note_on_c, 0, 74, 75
2, 8591, Note_on_c, 0, 74, 0
2, 8592, Note_on_c, 0, 73, 75
2, 8615, Note_on_c, 0, 73, 0
2, 8616, Note_on_c, 0, 71, 75
2, 8639, Note_on_c, 0, 71, 0
2, 8640, Note_on_c, 0, 70, 75
2, 8664, Note_on_c, 0, 70, 0
2, 8664, Note_on_c, 0, 71, 75
2, 8687, Note_on_c, 0, 71, 0
2, 8688, Note_on_c, 0, 73, 75
2, 8712, Note_on_c, 0, 73, 0
2, 8712, Note_on_c, 0, 71, 75
2, 8722, Note_on_c, 0, 71, 0
2, 8736, Note_on_c, 0, 74, 75
2, 8760, Note_on_c, 0, 74, 0
2, 8760, Note_on_c, 0, 73, 75
2, 8770, Note_on_c, 0, 73, 0
2, 8784, Note_on_c, 0, 76, 75
2, 8808, Note_on_c, 0, 76, 0
2, 8808, Note_on_c, 0, 74, 75
2, 8818, Note_on_c, 0, 74, 0
2, 8832, Note_on_c, 0, 78, 75
2, 8877, Note_on_c, 0, 78, 0
2, 8928, Note_on_c, 0, 76, 75
2, 8951, Note_on_c, 0, 76, 0
2, 8952, Note_on_c, 0, 74, 75
2, 8975, Note_on_c, 0, 74, 0
2, 8976, Note_on_c, 0, 73, 75
2, 8999, Note_on_c, 0, 73, 0
2, 9000, Note_on_c, 0, 71, 75
2, 9023, Note_on_c, 0, 71, 0
2, 9024, Note_on_c, 0, 69, 75
2, 9113, Note_on_c, 0, 69, 0
2, 9120, Note_on_c, 0, 71, 75
2, 9131, Note_on_c, 0, 71, 0
2, 9131, Note_on_c, 0, 73, 75
2, 9142, Note_on_c, 0, 73, 0
2, 9142, Note_on_c, 0, 71, 75
2, 9153, Note_on_c, 0, 71, 0
2, 9153, Note_on_c, 0, 73, 75
2, 9164, Note_on_c, 0, 73, 0
2, 9164, Note_on_c, 0, 71, 75
2, 9175, Note_on_c, 0, 71, 0
2, 9175, Note_on_c, 0, 73, 75
2, 9186, Note_on_c, 0, 73, 0
2, 9186, Note_on_c, 0, 71, 75
2, 9196, Note_on_c, 0, 71, 0
2, 9196, Note_on_c, 0, 69, 75
2, 9206, Note_on_c, 0, 69, 0
2, 9206, Note_on_c, 0, 71, 75
2, 9216, Note_on_c, 0, 71, 0
2, 9216, Note_on_c, 0, 73, 75
2, 9239, Note_on_c, 0, 73, 0
2, 9240, Note_on_c, 0, 74, 75
2, 9263, Note_on_c, 0, 74, 0
2, 9264, Note_on_c, 0, 76, 75
2, 9287, Note_on_c, 0, 76, 0
2, 9288, Note_on_c, 0, 73, 75
2, 9311, Note_on_c, 0, 73, 0
2, 9312, Note_on_c, 0, 71, 75
2, 9335, Note_on_c, 0, 71, 0
2, 9336, Note_on_c, 0, 69, 75
2, 9359, Note_on_c, 0, 69, 0
2, 9360, Note_on_c, 0, 68, 75
2, 9383, Note_on_c, 0, 68, 0
2, 9384, Note_on_c, 0, 69, 75
2, 9407, Note_on_c, 0, 69, 0
2, 9408, Note_on_c, 0, 78, 75
2, 9431, Note_on_c, 0, 78, 0
2, 9432, Note_on_c, 0, 80, 74
2, 9455, Note_on_c, 0, 80, 0
2, 9456, Note_on_c, 0, 81, 73
2, 9479, Note_on_c, 0, 81, 0
2, 9480, Note_on_c, 0, 78, 73
2, 9503, Note_on_c, 0, 78, 0
2, 9504, Note_on_c, 0, 76, 72
2, 9527, Note_on_c, 0, 76, 0
2, 9528, Note_on_c, 0, 74, 71
2, 9551, Note_on_c, 0, 74, 0
2, 9552, Note_on_c, 0, 73, 71
2, 9575, Note_on_c, 0, 73, 0
2, 9576, Note_on_c, 0, 71, 70
2, 9599, Note_on_c, 0, 71, 0
2, 9600, Note_on_c, 0, 70, 69
2, 9624, Note_on_c, 0, 70, 0
2, 9624, Note_on_c, 0, 71, 69
2, 9647, Note_on_c, 0, 71, 0
2, 9648, Note_on_c, 0, 73, 69
2, 9672, Note_on_c, 0, 73, 0
2, 9672, Note_on_c, 0, 71, 69
2, 9682, Note_on_c, 0, 71, 0
2, 9696, Note_on_c, 0, 74, 69
2, 9720, Note_on_c, 0, 74, 0
2, 9720, Note_on_c, 0, 73, 69
2, 9730, Note_on_c, 0, 73, 0
2, 9744, Note_on_c, 0, 76, 69
2, 9768, Note_on_c, 0, 76, 0
2, 9768, Note_on_c, 0, 74, 69
2, 9778, Note_on_c, 0, 74, 0
2, 9792, Note_on_c, 0, 78, 69
2, 9837, Note_on_c, 0, 78, 0
2, 9936, Note_on_c, 0, 74, 61
2, 9984, Note_on_c, 0, 74, 0
2, 9984, Note_on_c, 0, 73, 61
2, 10004, Note_on_c, 0, 73, 0
2, 10032, Note_on_c, 0, 76, 61
2, 10080, Note_on_c, 0, 76, 0
2, 10080, Note_on_c, 0, 74, 61
2, 10100, Note_on_c, 0, 74, 0
2, 10128, Note_on_c, 0, 78, 61
2, 10265, Note_on_c, 0, 78, 0
2, 10368, Note_on_c, 0, 74, 53
2, 10464, Note_on_c, 0, 74, 0
2, 10464, Note_on_c, 0, 73, 53
2, 10503, Note_on_c, 0, 73, 0
2, 10560, Note_on_c, 0, 76, 53
2, 10656, Note_on_c, 0, 76, 0
2, 10656, Note_on_c, 0, 74, 53
2, 10695, Note_on_c, 0, 74, 0
2, 10752, Note_on_c, 0, 78, 53
2, 11033, Note_on_c, 0, 78, 0
2, 11088, Note_on_c, 0, 65, 84
2, 11100, Note_on_c, 0, 65, 0
2, 11100, Note_on_c, 0, 77, 84
2, 11133, Note_on_c, 0, 77, 0
2, 11136, Note_on_c, 0, 66, 84
2, 11148, Note_on_c, 0, 66, 0
2, 11148, Note_on_c, 0, 78, 84
2, 11181, Note_on_c, 0, 78, 0
2, 11184, Note_on_c, 0, 70, 84
2, 11196, Note_on_c, 0, 70, 0
2, 11196, Note_on_c, 0, 82, 84
2, 11229, Note_on_c, 0, 82, 0
2, 11232, Note_on_c, 0, 71, 84
2, 11244, Note_on_c, 0, 71, 0
2, 11244, Note_on_c, 0, 83, 84
2, 11277, Note_on_c, 0, 83, 0
2, 11280, Note_on_c, 0, 73, 84
2, 11292, Note_on_c, 0, 73, 0
2, 11292, Note_on_c, 0, 85, 84
2, 11325, Note_on_c, 0, 85, 0
2, 11328, Note_on_c, 0, 74, 84
2, 11340, Note_on_c, 0, 74, 0
2, 11340, Note_on_c, 0, 86, 100
2, 11400, Note_on_c, 0, 86, 0
2, 11400, Note_on_c, 0, 83, 84
2, 11423, Note_on_c, 0, 83, 0
2, 11424, Note_on_c, 0, 86, 84
2, 11447, Note_on_c, 0, 86, 0
2, 11448, Note_on_c, 0, 83, 84
2, 11471, Note_on_c, 0, 83, 0
2, 11472, Note_on_c, 0, 86, 84
2, 11495, Note_on_c, 0, 86, 0
2, 11496, Note_on_c, 0, 83, 84
2, 11519, Note_on_c, 0, 83, 0
2, 11520, Note_on_c, 0, 76, 84
2, 11587, Note_on_c, 0, 76, 0
2, 11592, Note_on_c, 0, 81, 84
2, 11604, Note_on_c, 0, 81, 0
2, 11604, Note_on_c, 0, 85, 84
2, 11616, Note_on_c, 0, 85, 0
2, 11616, Note_on_c, 0, 88, 100
2, 11688, Note_on_c, 0, 88, 0
2, 11688, Note_on_c, 0, 81, 84
2, 11700, Note_on_c, 0, 81, 0
2, 11700, Note_on_c, 0, 85, 84
2, 11712, Note_on_c, 0, 85, 0
2, 11712, Note_on_c, 0, 83, 84
2, 11724, Note_on_c, 0, 83, 0
2, 11725, Note_on_c, 0, 85, 84
2, 11737, Note_on_c, 0, 85, 0
2, 11738, Note_on_c, 0, 83, 84
2, 11750, Note_on_c, 0, 83, 0
2, 11751, Note_on_c, 0, 85, 84
2, 11763, Note_on_c, 0, 85, 0
2, 11764, Note_on_c, 0, 83, 84
2, 11776, Note_on_c, 0, 83, 0
2, 11777, Note_on_c, 0, 85, 84
2, 11789, Note_on_c, 0, 85, 0
2, 11790, Note_on_c, 0, 83, 84
2, 11802, Note_on_c, 0, 83, 0
2, 11803, Note_on_c, 0, 85, 84
2, 11815, Note_on_c, 0, 85, 0
2, 11816, Note_on_c, 0, 83, 84
2, 11828, Note_on_c, 0, 83, 0
2, 11829, Note_on_c, 0, 85, 84
2, 11841, Note_on_c, 0, 85, 0
2, 11842, Note_on_c, 0, 83, 84
2, 11854, Note_on_c, 0, 83, 0
2, 11855, Note_on_c, 0, 81, 84
2, 11880, Note_on_c, 0, 81, 0
2, 11880, Note_on_c, 0, 83, 84
2, 11904, Note_on_c, 0, 83, 0
2, 11904, Note_on_c, 0, 81, 84
2, 11993, Note_on_c, 0, 81, 0
2, 12048, Note_on_c, 0, 76, 84
2, 12093, Note_on_c, 0, 76, 0
2, 12096, Note_on_c, 0, 78, 84
2, 12108, Note_on_c, 0, 78, 0
2, 12108, Note_on_c, 0, 80, 84
2, 12120, Note_on_c, 0, 80, 0
2, 12120, Note_on_c, 0, 78, 84
2, 12141, Note_on_c, 0, 78, 0
2, 12144, Note_on_c, 0, 76, 84
2, 12189, Note_on_c, 0, 76, 0
2, 12192, Note_on_c, 0, 78, 84
2, 12204, Note_on_c, 0, 78, 0
2, 12204, Note_on_c, 0, 80, 84
2, 12216, Note_on_c, 0, 80, 0
2, 12216, Note_on_c, 0, 78, 84
2, 12237, Note_on_c, 0, 78, 0
2, 12240, Note_on_c, 0, 76, 84
2, 12285, Note_on_c, 0, 76, 0
2, 12288, Note_on_c, 0, 76, 100
2, 12300, Note_on_c, 0, 80, 100
2, 12312, Note_on_c, 0, 83, 100
2, 12324, Note_on_c, 0, 86, 100
2, 12384, Note_on_c, 0, 86, 0
2, 12384, Note_on_c, 0, 83, 0
2, 12384, Note_on_c, 0, 80, 0
2, 12384, Note_on_c, 0, 76, 0
2, 12432, Note_on_c, 0, 85, 84
2, 12477, Note_on_c, 0, 85, 0
2, 12480, Note_on_c, 0, 85, 84
2, 12492, Note_on_c, 0, 85, 0
2, 12492, Note_on_c, 0, 83, 84
2, 12504, Note_on_c, 0, 83, 0
2, 12504, Note_on_c, 0, 82, 84
2, 12516, Note_on_c, 0, 82, 0
2, 12516, Note_on_c, 0, 83, 84
2, 12528, Note_on_c, 0, 83, 0
2, 12528, Note_on_c, 0, 86, 84
2, 12573, Note_on_c, 0, 86, 0
2, 12576, Note_on_c, 0, 78, 84
2, 12588, Note_on_c, 0, 78, 0
2, 12588, Note_on_c, 0, 76, 84
2, 12600, Note_on_c, 0, 76, 0
2, 12600, Note_on_c, 0, 75, 84
2, 12612, Note_on_c, 0, 75, 0
2, 12612, Note_on_c, 0, 76, 84
2, 12624, Note_on_c, 0, 76, 0
2, 12624, Note_on_c, 0, 80, 84
2, 12624, Note_on_c, 0, 74, 84
2, 12669, Note_on_c, 0, 80, 0
2, 12669, Note_on_c, 0, 74, 0
2, 12672, Note_on_c, 0, 81, 84
2, 12672, Note_on_c, 0, 73, 84
2, 12761, Note_on_c, 0, 81, 0
2, 12761, Note_on_c, 0, 73, 0
2, 12816, Note_on_c, 0, 76, 84
2, 12861, Note_on_c, 0, 76, 0
2, 12864, Note_on_c, 0, 78, 84
2, 12876, Note_on_c, 0, 78, 0
2, 12876, Note_on_c, 0, 80, 84
2, 12888, Note_on_c, 0, 80, 0
2, 12888, Note_on_c, 0, 78, 84
2, 12909, Note_on_c, 0, 78, 0
2, 12912, Note_on_c, 0, 76, 84
2, 12957, Note_on_c, 0, 76, 0
2, 12960, Note_on_c, 0, 78, 84
2, 12972, Note_on_c, 0, 78, 0
2, 12972, Note_on_c, 0, 80, 84
2, 12984, Note_on_c, 0, 80, 0
2, 12984, Note_on_c, 0, 78, 84
2, 13005, Note_on_c, 0, 78, 0
2, 13008, Note_on_c, 0, 76, 84
2, 13053, Note_on_c, 0, 76, 0
2, 13056, Note_on_c, 0, 76, 100
2, 13068, Note_on_c, 0, 80, 100
2, 13080, Note_on_c, 0, 83, 100
2, 13092, Note_on_c, 0, 86, 100
2, 13152, Note_on_c, 0, 86, 0
2, 13152, Note_on_c, 0, 83, 0
2, 13152, Note_on_c, 0, 80, 0
2, 13152, Note_on_c, 0, 76, 0
2, 13200, Note_on_c, 0, 85, 84
2, 13245, Note_on_c, 0, 85, 0
2, 13248, Note_on_c, 0, 85, 84
2, 13260, Note_on_c, 0, 85, 0
2, 13260, Note_on_c, 0, 83, 84
2, 13272, Note_on_c, 0, 83, 0
2, 13272, Note_on_c, 0, 82, 84
2, 13284, Note_on_c, 0, 82, 0
2, 13284, Note_on_c, 0, 83, 84
2, 13296, Note_on_c, 0, 83, 0
2, 13296, Note_on_c, 0, 86, 84
2, 13341, Note_on_c, 0, 86, 0
2, 13344, Note_on_c, 0, 78, 84
2, 13356, Note_on_c, 0, 78, 0
2, 13356, Note_on_c, 0, 76, 84
2, 13368, Note_on_c, 0, 76, 0
2, 13368, Note_on_c, 0, 75, 84
2, 13380, Note_on_c, 0, 75, 0
2, 13380, Note_on_c, 0, 76, 84
2, 13392, Note_on_c, 0, 76, 0
2, 13392, Note_on_c, 0, 80, 84
2, 13392, Note_on_c, 0, 74, 84
2, 13437, Note_on_c, 0, 80, 0
2, 13437, Note_on_c, 0, 74, 0
2, 13440, Note_on_c, 0, 81, 84
2, 13440, Note_on_c, 0, 73, 84
2, 13485, Note_on_c, 0, 81, 0
2, 13485, Note_on_c, 0, 73, 0
2, 13560, Note_on_c, 0, 64, 82
2, 13583, Note_on_c, 0, 64, 0
2, 13584, Note_on_c, 0, 68, 80
2, 13607, Note_on_c, 0, 68, 0
2, 13608, Note_on_c, 0, 76, 78
2, 13631, Note_on_c, 0, 76, 0
2, 13656, Note_on_c, 0, 64, 74
2, 13679, Note_on_c, 0, 64, 0
2, 13680, Note_on_c, 0, 69, 72
2, 13703, Note_on_c, 0, 69, 0
2, 13704, Note_on_c, 0, 76, 70
2, 13727, Note_on_c, 0, 76, 0
2, 13752, Note_on_c, 0, 59, 66
2, 13775, Note_on_c, 0, 59, 0
2, 13776, Note_on_c, 0, 62, 64
2, 13799, Note_on_c, 0, 62, 0
2, 13800, Note_on_c, 0, 68, 62
2, 13823, Note_on_c, 0, 68, 0
2, 13824, Note_on_c, 0, 69, 60
2, 13824, Note_on_c, 0, 61, 60
2, 13913, Note_on_c, 0, 69, 0
2, 13913, Note_on_c, 0, 61, 0
2, 13968, Note_on_c, 0, 57, 75
2, 13980, Note_on_c, 0, 57, 0
2, 13980, Note_on_c, 0, 62, 75
2, 13992, Note_on_c, 0, 62, 0
2, 13992, Note_on_c, 0, 66, 75
2, 14004, Note_on_c, 0, 66, 0
2, 14004, Note_on_c, 0, 69, 75
2, 14016, Note_on_c, 0, 69, 0
2, 14016, Note_on_c, 0, 66, 76
2, 14064, Note_on_c, 0, 66, 0
2, 14064, Note_on_c, 0, 62, 80
2, 14109, Note_on_c, 0, 62, 0
2, 14112, Note_on_c, 0, 74, 84
2, 14132, Note_on_c, 0, 74, 0
2, 14160, Note_on_c, 0, 69, 81
2, 14180, Note_on_c, 0, 69, 0
2, 14208, Note_on_c, 0, 71, 79
2, 14220, Note_on_c, 0, 71, 0
2, 14220, Note_on_c, 0, 73, 79
2, 14232, Note_on_c, 0, 73, 0
2, 14232, Note_on_c, 0, 71, 79
2, 14253, Note_on_c, 0, 71, 0
2, 14256, Note_on_c, 0, 69, 77
2, 14301, Note_on_c, 0, 69, 0
2, 14352, Note_on_c, 0, 57, 75
2, 14364, Note_on_c, 0, 57, 0
2, 14364, Note_on_c, 0, 62, 75
2, 14376, Note_on_c, 0, 62, 0
2, 14376, Note_on_c, 0, 66, 76
2, 14388, Note_on_c, 0, 66, 0
2, 14388, Note_on_c, 0, 69, 77
2, 14400, Note_on_c, 0, 69, 0
2, 14400, Note_on_c, 0, 66, 78
2, 14448, Note_on_c, 0, 66, 0
2, 14448, Note_on_c, 0, 62, 84
2, 14493, Note_on_c, 0, 62, 0
2, 14496, Note_on_c, 0, 81, 82
2, 14496, Note_on_c, 0, 78, 82
2, 14516, Note_on_c, 0, 81, 0
2, 14516, Note_on_c, 0, 78, 0
2, 14544, Note_on_c, 0, 78, 80
2, 14544, Note_on_c, 0, 74, 80
2, 14564, Note_on_c, 0, 78, 0
2, 14564, Note_on_c, 0, 74, 0
2, 14592, Note_on_c, 0, 79, 78
2, 14604, Note_on_c, 0, 79, 0
2, 14604, Note_on_c, 0, 81, 78
2, 14616, Note_on_c, 0, 81, 0
2, 14616, Note_on_c, 0, 79, 78
2, 14637, Note_on_c, 0, 79, 0
2, 14640, Note_on_c, 0, 78, 76
2, 14685, Note_on_c, 0, 78, 0
2, 14736, Note_on_c, 0, 74, 75
2, 14748, Note_on_c, 0, 74, 0
2, 14748, Note_on_c, 0, 78, 75
2, 14760, Note_on_c, 0, 78, 0
2, 14760, Note_on_c, 0, 81, 75
2, 14772, Note_on_c, 0, 81, 0
2, 14772, Note_on_c, 0, 86, 75
2, 14784, Note_on_c, 0, 86, 0
2, 14784, Note_on_c, 0, 72, 75
2, 14924, Note_on_c, 0, 72, 0
2, 14928, Note_on_c, 0, 84, 75
2, 14940, Note_on_c, 0, 84, 0
2, 14940, Note_on_c, 0, 81, 75
2, 14952, Note_on_c, 0, 81, 0
2, 14952, Note_on_c, 0, 78, 75
2, 14964, Note_on_c, 0, 78, 0
2, 14964, Note_on_c, 0, 72, 75
2, 14976, Note_on_c, 0, 72, 0
2, 14976, Note_on_c, 0, 71, 75
2, 15116, Note_on_c, 0, 71, 0
2, 15120, Note_on_c, 0, 71, 75
2, 15132, Note_on_c, 0, 71, 0
2, 15132, Note_on_c, 0, 74, 75
2, 15144, Note_on_c, 0, 74, 0
2, 15144, Note_on_c, 0, 79, 75
2, 15156, Note_on_c, 0, 79, 0
2, 15156, Note_on_c, 0, 83, 75
2, 15168, Note_on_c, 0, 83, 0
2, 15168, Note_on_c, 0, 81, 75
2, 15168, Note_on_c, 0, 78, 75
2, 15188, Note_on_c, 0, 81, 0
2, 15188, Note_on_c, 0, 78, 0
2, 15216, Note_on_c, 0, 78, 75
2, 15216, Note_on_c, 0, 74, 75
2, 15236, Note_on_c, 0, 78, 0
2, 15236, Note_on_c, 0, 74, 0
2, 15264, Note_on_c, 0, 79, 75
2, 15264, Note_on_c, 0, 76, 75
2, 15284, Note_on_c, 0, 79, 0
2, 15284, Note_on_c, 0, 76, 0
2, 15312, Note_on_c, 0, 76, 75
2, 15312, Note_on_c, 0, 73, 75
2, 15332, Note_on_c, 0, 76, 0
2, 15332, Note_on_c, 0, 73, 0
2, 15360, Note_on_c, 0, 76, 75
2, 15360, Note_on_c, 0, 73, 75
2, 15456, Note_on_c, 0, 76, 0
2, 15456, Note_on_c, 0, 73, 0
2, 15456, Note_on_c, 0, 78, 75
2, 15456, Note_on_c, 0, 74, 75
2, 15501, Note_on_c, 0, 78, 0
2, 15501, Note_on_c, 0, 74, 0
2, 15504, Note_on_c, 0, 74, 75
2, 15516, Note_on_c, 0, 74, 0
2, 15516, Note_on_c, 0, 78, 75
2, 15528, Note_on_c, 0, 78, 0
2, 15528, Note_on_c, 0, 81, 75
2, 15540, Note_on_c, 0, 81, 0
2, 15540, Note_on_c, 0, 86, 75
2, 15552, Note_on_c, 0, 86, 0
2, 15552, Note_on_c, 0, 72, 75
2, 15692, Note_on_c, 0, 72, 0
2, 15696, Note_on_c, 0, 84, 75
2, 15708, Note_on_c, 0, 84, 0
2, 15708, Note_on_c, 0, 81, 75
2, 15720, Note_on_c, 0, 81, 0
2, 15720, Note_on_c, 0, 78, 75
2, 15732, Note_on_c, 0, 78, 0
2, 15732, Note_on_c, 0, 72, 75
2, 15744, Note_on_c, 0, 72, 0
2, 15744, Note_on_c, 0, 71, 75
2, 15884, Note_on_c, 0, 71, 0
2, 15888, Note_on_c, 0, 83, 75
2, 15903, Note_on_c, 0, 83, 0
2, 15904, Note_on_c, 0, 85, 75
2, 15919, Note_on_c, 0, 85, 0
2, 15920, Note_on_c, 0, 86, 75
2, 15935, Note_on_c, 0, 86, 0
2, 15936, Note_on_c, 0, 85, 91
2, 15952, Note_on_c, 0, 85, 0
2, 15952, Note_on_c, 0, 83, 75
2, 15967, Note_on_c, 0, 83, 0
2, 15968, Note_on_c, 0, 81, 75
2, 15983, Note_on_c, 0, 81, 0
2, 15984, Note_on_c, 0, 79, 75
2, 15999, Note_on_c, 0, 79, 0
2, 16000, Note_on_c, 0, 78, 75
2, 16015, Note_on_c, 0, 78, 0
2, 16016, Note_on_c, 0, 76, 75
2, 16031, Note_on_c, 0, 76, 0
2, 16032, Note_on_c, 0, 74, 75
2, 16047, Note_on_c, 0, 74, 0
2, 16048, Note_on_c, 0, 73, 75
2, 16063, Note_on_c, 0, 73, 0
2, 16064, Note_on_c, 0, 71, 75
2, 16079, Note_on_c, 0, 71, 0
2, 16080, Note_on_c, 0, 69, 75
2, 16092, Note_on_c, 0, 69, 0
2, 16092, Note_on_c, 0, 67, 75
2, 16104, Note_on_c, 0, 67, 0
2, 16104, Note_on_c, 0, 66, 75
2, 16116, Note_on_c, 0, 66, 0
2, 16116, Note_on_c, 0, 64, 75
2, 16128, Note_on_c, 0, 64, 0
2, 16128, Note_on_c, 0, 62, 91
2, 16224, Note_on_c, 0, 62, 0
2, 16272, Note_on_c, 0, 57, 77
2, 16320, Note_on_c, 0, 57, 0
2, 16320, Note_on_c, 0, 62, 63
2, 16344, Note_on_c, 0, 62, 0
2, 16344, Note_on_c, 0, 61, 65
2, 16367, Note_on_c, 0, 61, 0
2, 16368, Note_on_c, 0, 64, 66
2, 16392, Note_on_c, 0, 64, 0
2, 16392, Note_on_c, 0, 62, 68
2, 16415, Note_on_c, 0, 62, 0
2, 16416, Note_on_c, 0, 66, 69
2, 16440, Note_on_c, 0, 66, 0
2, 16440, Note_on_c, 0, 64, 70
2, 16463, Note_on_c, 0, 64, 0
2, 16464, Note_on_c, 0, 67, 72
2, 16488, Note_on_c, 0, 67, 0
2, 16488, Note_on_c, 0, 66, 73
2, 16511, Note_on_c, 0, 66, 0
2, 16512, Note_on_c, 0, 66, 75
2, 16512, Note_on_c, 0, 62, 75
2, 16608, Note_on_c, 0, 66, 0
2, 16608, Note_on_c, 0, 62, 0
2, 16608, Note_on_c, 0, 64, 75
2, 16608, Note_on_c, 0, 61, 75
2, 16653, Note_on_c, 0, 64, 0
2, 16653, Note_on_c, 0, 61, 0
2, 16656, Note_on_c, 0, 57, 85
2, 16704, Note_on_c, 0, 57, 0
2, 16704, Note_on_c, 0, 64, 70
2, 16728, Note_on_c, 0, 64, 0
2, 16728, Note_on_c, 0, 63, 70
2, 16751, Note_on_c, 0, 63, 0
2, 16752, Note_on_c, 0, 66, 71
2, 16776, Note_on_c, 0, 66, 0
2, 16776, Note_on_c, 0, 64, 72
2, 16799, Note_on_c, 0, 64, 0
2, 16800, Note_on_c, 0, 67, 72
2, 16824, Note_on_c, 0, 67, 0
2, 16824, Note_on_c, 0, 66, 73
2, 16847, Note_on_c, 0, 66, 0
2, 16848, Note_on_c, 0, 69, 73
2, 16872, Note_on_c, 0, 69, 0
2, 16872, Note_on_c, 0, 67, 74
2, 16895, Note_on_c, 0, 67, 0
2, 16896, Note_on_c, 0, 67, 75
2, 16896, Note_on_c, 0, 64, 75
2, 16992, Note_on_c, 0, 67, 0
2, 16992, Note_on_c, 0, 64, 0
2, 16992, Note_on_c, 0, 66, 75
2, 16992, Note_on_c, 0, 62, 75
2, 17037, Note_on_c, 0, 66, 0
2, 17037, Note_on_c, 0, 62, 0
2, 17040, Note_on_c, 0, 62, 85
2, 17088, Note_on_c, 0, 62, 0
2, 17088, Note_on_c, 0, 67, 70
2, 17112, Note_on_c, 0, 67, 0
2, 17112, Note_on_c, 0, 66, 70
2, 17135, Note_on_c, 0, 66, 0
2, 17136, Note_on_c, 0, 69, 71
2, 17160, Note_on_c, 0, 69, 0
2, 17160, Note_on_c, 0, 67, 72
2, 17183, Note_on_c, 0, 67, 0
2, 17184, Note_on_c, 0, 71, 72
2, 17208, Note_on_c, 0, 71, 0
2, 17208, Note_on_c, 0, 69, 73
2, 17231, Note_on_c, 0, 69, 0
2, 17232, Note_on_c, 0, 74, 73
2, 17256, Note_on_c, 0, 74, 0
2, 17256, Note_on_c, 0, 73, 74
2, 17279, Note_on_c, 0, 73, 0
2, 17280, Note_on_c, 0, 71, 75
2, 17300, Note_on_c, 0, 71, 0
2, 17328, Note_on_c, 0, 71, 75
2, 17352, Note_on_c, 0, 71, 0
2, 17352, Note_on_c, 0, 74, 75
2, 17375, Note_on_c, 0, 74, 0
2, 17376, Note_on_c, 0, 69, 75
2, 17396, Note_on_c, 0, 69, 0
2, 17472, Note_on_c, 0, 69, 75
2, 17478, Note_on_c, 0, 69, 0
2, 17478, Note_on_c, 0, 67, 75
2, 17484, Note_on_c, 0, 67, 0
2, 17484, Note_on_c, 0, 66, 75
2, 17490, Note_on_c, 0, 66, 0
2, 17490, Note_on_c, 0, 67, 75
2, 17517, Note_on_c, 0, 67, 0
2, 17520, Note_on_c, 0, 67, 75
2, 17544, Note_on_c, 0, 67, 0
2, 17544, Note_on_c, 0, 71, 75
2, 17567, Note_on_c, 0, 71, 0
2, 17568, Note_on_c, 0, 66, 75
2, 17588, Note_on_c, 0, 66, 0
2, 17664, Note_on_c, 0, 73, 75
2, 17670, Note_on_c, 0, 73, 0
2, 17670, Note_on_c, 0, 71, 75
2, 17676, Note_on_c, 0, 71, 0
2, 17676, Note_on_c, 0, 69, 75
2, 17682, Note_on_c, 0, 69, 0
2, 17682, Note_on_c, 0, 71, 75
2, 17709, Note_on_c, 0, 71, 0
2, 17712, Note_on_c, 0, 71, 75
2, 17736, Note_on_c, 0, 71, 0
2, 17736, Note_on_c, 0, 74, 75
2, 17759, Note_on_c, 0, 74, 0
2, 17760, Note_on_c, 0, 69, 75
2, 17780, Note_on_c, 0, 69, 0
2, 17856, Note_on_c, 0, 69, 75
2, 17862, Note_on_c, 0, 69, 0
2, 17862, Note_on_c, 0, 67, 75
2, 17868, Note_on_c, 0, 67, 0
2, 17868, Note_on_c, 0, 66, 75
2, 17874, Note_on_c, 0, 66, 0
2, 17874, Note_on_c, 0, 67, 75
2, 17901, Note_on_c, 0, 67, 0
2, 17904, Note_on_c, 0, 67, 75
2, 17928, Note_on_c, 0, 67, 0
2, 17928, Note_on_c, 0, 71, 75
2, 17951, Note_on_c, 0, 71, 0
2, 17952, Note_on_c, 0, 66, 75
2, 17972, Note_on_c, 0, 66, 0
2, 18048, Note_on_c, 0, 63, 75
2, 18071, Note_on_c, 0, 63, 0
2, 18072, Note_on_c, 0, 64, 77
2, 18095, Note_on_c, 0, 64, 0
2, 18096, Note_on_c, 0, 66, 79
2, 18119, Note_on_c, 0, 66, 0
2, 18120, Note_on_c, 0, 67, 81
2, 18143, Note_on_c, 0, 67, 0
2, 18144, Note_on_c, 0, 69, 84
2, 18167, Note_on_c, 0, 69, 0
2, 18168, Note_on_c, 0, 71, 81
2, 18191, Note_on_c, 0, 71, 0
2, 18192, Note_on_c, 0, 67, 79
2, 18215, Note_on_c, 0, 67, 0
2, 18216, Note_on_c, 0, 64, 77
2, 18239, Note_on_c, 0, 64, 0
2, 18240, Note_on_c, 0, 62, 75
2, 18432, Note_on_c, 0, 62, 0
2, 18432, Note_on_c, 0, 61, 63
2, 18452, Note_on_c, 0, 61, 0
2, 18576, Note_on_c, 0, 64, 84
2, 18588, Note_on_c, 0, 64, 0
2, 18588, Note_on_c, 0, 69, 84
2, 18600, Note_on_c, 0, 69, 0
2, 18600, Note_on_c, 0, 73, 84
2, 18612, Note_on_c, 0, 73, 0
2, 18612, Note_on_c, 0, 76, 84
2, 18624, Note_on_c, 0, 76, 0
2, 18624, Note_on_c, 0, 73, 84
2, 18669, Note_on_c, 0, 73, 0
2, 18672, Note_on_c, 0, 69, 84
2, 18684, Note_on_c, 0, 69, 0
2, 18684, Note_on_c, 0, 73, 84
2, 18696, Note_on_c, 0, 73, 0
2, 18696, Note_on_c, 0, 76, 84
2, 18708, Note_on_c, 0, 76, 0
2, 18708, Note_on_c, 0, 81, 84
2, 18720, Note_on_c, 0, 81, 0
2, 18720, Note_on_c, 0, 76, 84
2, 18765, Note_on_c, 0, 76, 0
2, 18768, Note_on_c, 0, 76, 84
2, 18780, Note_on_c, 0, 76, 0
2, 18780, Note_on_c, 0, 81, 84
2, 18792, Note_on_c, 0, 81, 0
2, 18792, Note_on_c, 0, 85, 84
2, 18804, Note_on_c, 0, 85, 0
2, 18804, Note_on_c, 0, 88, 84
2, 18816, Note_on_c, 0, 88, 0
2, 18816, Note_on_c, 0, 85, 84
2, 18861, Note_on_c, 0, 85, 0
2, 18960, Note_on_c, 0, 69, 75
2, 18972, Note_on_c, 0, 69, 0
2, 18972, Note_on_c, 0, 64, 75
2, 18984, Note_on_c, 0, 64, 0
2, 18984, Note_on_c, 0, 61, 75
2, 18996, Note_on_c, 0, 61, 0
2, 18996, Note_on_c, 0, 57, 75
2, 19008, Note_on_c, 0, 57, 0
2, 19008, Note_on_c, 0, 55, 75
2, 19185, Note_on_c, 0, 55, 0
2, 19200, Note_on_c, 0, 54, 75
2, 19223, Note_on_c, 0, 54, 0
2, 19224, Note_on_c, 0, 59, 75
2, 19247, Note_on_c, 0, 59, 0
2, 19248, Note_on_c, 0, 58, 75
2, 19271, Note_on_c, 0, 58, 0
2, 19272, Note_on_c, 0, 59, 75
2, 19295, Note_on_c, 0, 59, 0
2, 19296, Note_on_c, 0, 61, 75
2, 19319, Note_on_c, 0, 61, 0
2, 19320, Note_on_c, 0, 59, 75
2, 19343, Note_on_c, 0, 59, 0
2, 19344, Note_on_c, 0, 58, 75
2, 19367, Note_on_c, 0, 58, 0
2, 19368, Note_on_c, 0, 59, 75
2, 19391, Note_on_c, 0, 59, 0
2, 19392, Note_on_c, 0, 57, 75
2, 19569, Note_on_c, 0, 57, 0
2, 19584, Note_on_c, 0, 56, 75
2, 19607, Note_on_c, 0, 56, 0
2, 19608, Note_on_c, 0, 64, 75
2, 19631, Note_on_c, 0, 64, 0
2, 19632, Note_on_c, 0, 63, 75
2, 19655, Note_on_c, 0, 63, 0
2, 19656, Note_on_c, 0, 64, 75
2, 19679, Note_on_c, 0, 64, 0
2, 19680, Note_on_c, 0, 66, 75
2, 19703, Note_on_c, 0, 66, 0
2, 19704, Note_on_c, 0, 64, 75
2, 19727, Note_on_c, 0, 64, 0
2, 19728, Note_on_c, 0, 63, 75
2, 19751, Note_on_c, 0, 63, 0
2, 19752, Note_on_c, 0, 64, 75
2, 19775, Note_on_c, 0, 64, 0
2, 19776, Note_on_c, 0, 63, 75
2, 19824, Note_on_c, 0, 63, 0
2, 19824, Note_on_c, 0, 69, 75
2, 19869, Note_on_c, 0, 69, 0
2, 19920, Note_on_c, 0, 63, 75
2, 19968, Note_on_c, 0, 63, 0
2, 19968, Note_on_c, 0, 64, 75
2, 19988, Note_on_c, 0, 64, 0
2, 20016, Note_on_c, 0, 64, 75
2, 20040, Note_on_c, 0, 64, 0
2, 20040, Note_on_c, 0, 71, 75
2, 20063, Note_on_c, 0, 71, 0
2, 20064, Note_on_c, 0, 64, 75
2, 20109, Note_on_c, 0, 64, 0
2, 20112, Note_on_c, 0, 64, 75
2, 20160, Note_on_c, 0, 64, 0
2, 20160, Note_on_c, 0, 63, 75
2, 20205, Note_on_c, 0, 63, 0
2, 20208, Note_on_c, 0, 69, 75
2, 20228, Note_on_c, 0, 69, 0
2, 20304, Note_on_c, 0, 63, 75
2, 20352, Note_on_c, 0, 63, 0
2, 20352, Note_on_c, 0, 64, 75
2, 20372, Note_on_c, 0, 64, 0
2, 20400, Note_on_c, 0, 64, 75
2, 20424, Note_on_c, 0, 64, 0
2, 20424, Note_on_c, 0, 71, 75
2, 20447, Note_on_c, 0, 71, 0
2, 20448, Note_on_c, 0, 64, 75
2, 20493, Note_on_c, 0, 64, 0
2, 20496, Note_on_c, 0, 62, 75
2, 20502, Note_on_c, 0, 62, 0
2, 20502, Note_on_c, 0, 64, 75
2, 20508, Note_on_c, 0, 64, 0
2, 20508, Note_on_c, 0, 62, 75
2, 20541, Note_on_c, 0, 62, 0
2, 20544, Note_on_c, 0, 61, 75
2, 20589, Note_on_c, 0, 61, 0
2, 20592, Note_on_c, 0, 76, 75
2, 20637, Note_on_c, 0, 76, 0
2, 20688, Note_on_c, 0, 69, 75
2, 20736, Note_on_c, 0, 69, 0
2, 20736, Note_on_c, 0, 68, 75
2, 20756, Note_on_c, 0, 68, 0
2, 20784, Note_on_c, 0, 68, 75
2, 20808, Note_on_c, 0, 68, 0
2, 20808, Note_on_c, 0, 76, 75
2, 20831, Note_on_c, 0, 76, 0
2, 20832, Note_on_c, 0, 68, 75
2, 20852, Note_on_c, 0, 68, 0
2, 20880, Note_on_c, 0, 68, 75
2, 20928, Note_on_c, 0, 68, 0
2, 20928, Note_on_c, 0, 69, 75
2, 20948, Note_on_c, 0, 69, 0
2, 20976, Note_on_c, 0, 69, 75
2, 21000, Note_on_c, 0, 69, 0
2, 21000, Note_on_c, 0, 76, 75
2, 21023, Note_on_c, 0, 76, 0
2, 21024, Note_on_c, 0, 69, 75
2, 21044, Note_on_c, 0, 69, 0
2, 21072, Note_on_c, 0, 69, 75
2, 21120, Note_on_c, 0, 69, 0
2, 21120, Note_on_c, 0, 71, 75
2, 21140, Note_on_c, 0, 71, 0
2, 21168, Note_on_c, 0, 71, 75
2, 21192, Note_on_c, 0, 71, 0
2, 21192, Note_on_c, 0, 76, 75
2, 21215, Note_on_c, 0, 76, 0
2, 21216, Note_on_c, 0, 71, 75
2, 21261, Note_on_c, 0, 71, 0
2, 21264, Note_on_c, 0, 74, 75
2, 21309, Note_on_c, 0, 74, 0
2, 21312, Note_on_c, 0, 73, 75
2, 21335, Note_on_c, 0, 73, 0
2, 21336, Note_on_c, 0, 74, 75
2, 21359, Note_on_c, 0, 74, 0
2, 21360, Note_on_c, 0, 76, 75
2, 21383, Note_on_c, 0, 76, 0
2, 21384, Note_on_c, 0, 73, 75
2, 21407, Note_on_c, 0, 73, 0
2, 21408, Note_on_c, 0, 71, 75
2, 21431, Note_on_c, 0, 71, 0
2, 21432, Note_on_c, 0, 69, 75
2, 21455, Note_on_c, 0, 69, 0
2, 21456, Note_on_c, 0, 68, 75
2, 21479, Note_on_c, 0, 68, 0
2, 21480, Note_on_c, 0, 66, 75
2, 21503, Note_on_c, 0, 66, 0
2, 21504, Note_on_c, 0, 64, 75
2, 21527, Note_on_c, 0, 64, 0
2, 21528, Note_on_c, 0, 63, 75
2, 21551, Note_on_c, 0, 63, 0
2, 21552, Note_on_c, 0, 64, 75
2, 21575, Note_on_c, 0, 64, 0
2, 21576, Note_on_c, 0, 66, 75
2, 21599, Note_on_c, 0, 66, 0
2, 21600, Note_on_c, 0, 64, 75
2, 21623, Note_on_c, 0, 64, 0
2, 21624, Note_on_c, 0, 62, 75
2, 21647, Note_on_c, 0, 62, 0
2, 21648, Note_on_c, 0, 61, 75
2, 21671, Note_on_c, 0, 61, 0
2, 21672, Note_on_c, 0, 59, 75
2, 21695, Note_on_c, 0, 59, 0
2, 21696, Note_on_c, 0, 61, 75
2, 21719, Note_on_c, 0, 61, 0
2, 21720, Note_on_c, 0, 62, 75
2, 21743, Note_on_c, 0, 62, 0
2, 21744, Note_on_c, 0, 64, 75
2, 21767, Note_on_c, 0, 64, 0
2, 21768, Note_on_c, 0, 61, 75
2, 21791, Note_on_c, 0, 61, 0
2, 21792, Note_on_c, 0, 59, 75
2, 21815, Note_on_c, 0, 59, 0
2, 21816, Note_on_c, 0, 57, 75
2, 21839, Note_on_c, 0, 57, 0
2, 21840, Note_on_c, 0, 56, 75
2, 21863, Note_on_c, 0, 56, 0
2, 21864, Note_on_c, 0, 54, 75
2, 21887, Note_on_c, 0, 54, 0
2, 22080, Note_on_c, 0, 73, 75
2, 22103, Note_on_c, 0, 73, 0
2, 22104, Note_on_c, 0, 74, 75
2, 22127, Note_on_c, 0, 74, 0
2, 22128, Note_on_c, 0, 76, 75
2, 22151, Note_on_c, 0, 76, 0
2, 22152, Note_on_c, 0, 73, 75
2, 22175, Note_on_c, 0, 73, 0
2, 22176, Note_on_c, 0, 71, 75
2, 22199, Note_on_c, 0, 71, 0
2, 22200, Note_on_c, 0, 69, 75
2, 22223, Note_on_c, 0, 69, 0
2, 22224, Note_on_c, 0, 68, 75
2, 22247, Note_on_c, 0, 68, 0
2, 22248, Note_on_c, 0, 69, 75
2, 22271, Note_on_c, 0, 69, 0
2, 22272, Note_on_c, 0, 78, 75
2, 22295, Note_on_c, 0, 78, 0
2, 22296, Note_on_c, 0, 80, 75
2, 22319, Note_on_c, 0, 80, 0
2, 22320, Note_on_c, 0, 81, 75
2, 22343, Note_on_c, 0, 81, 0
2, 22344, Note_on_c, 0, 78, 75
2, 22367, Note_on_c, 0, 78, 0
2, 22368, Note_on_c, 0, 76, 75
2, 22391, Note_on_c, 0, 76, 0
2, 22392, Note_on_c, 0, 74, 75
2, 22415, Note_on_c, 0, 74, 0
2, 22416, Note_on_c, 0, 73, 75
2, 22439, Note_on_c, 0, 73, 0
2, 22440, Note_on_c, 0, 71, 75
2, 22463, Note_on_c, 0, 71, 0
2, 22464, Note_on_c, 0, 70, 75
2, 22488, Note_on_c, 0, 70, 0
2, 22488, Note_on_c, 0, 71, 75
2, 22511, Note_on_c, 0, 71, 0
2, 22512, Note_on_c, 0, 73, 75
2, 22536, Note_on_c, 0, 73, 0
2, 22536, Note_on_c, 0, 71, 75
2, 22546, Note_on_c, 0, 71, 0
2, 22560, Note_on_c, 0, 74, 75
2, 22584, Note_on_c, 0, 74, 0
2, 22584, Note_on_c, 0, 73, 75
2, 22594, Note_on_c, 0, 73, 0
2, 22608, Note_on_c, 0, 76, 75
2, 22632, Note_on_c, 0, 76, 0
2, 22632, Note_on_c, 0, 74, 75
2, 22642, Note_on_c, 0, 74, 0
2, 22656, Note_on_c, 0, 78, 75
2, 22701, Note_on_c, 0, 78, 0
2, 22752, Note_on_c, 0, 76, 75
2, 22775, Note_on_c, 0, 76, 0
2, 22776, Note_on_c, 0, 74, 75
2, 22799, Note_on_c, 0, 74, 0
2, 22800, Note_on_c, 0, 73, 75
2, 22823, Note_on_c, 0, 73, 0
2, 22824, Note_on_c, 0, 71, 75
2, 22847, Note_on_c, 0, 71, 0
2, 22848, Note_on_c, 0, 69, 75
2, 22937, Note_on_c, 0, 69, 0
2, 22944, Note_on_c, 0, 71, 75
2, 22955, Note_on_c, 0, 71, 0
2, 22955, Note_on_c, 0, 73, 75
2, 22966, Note_on_c, 0, 73, 0
2, 22966, Note_on_c, 0, 71, 75
2, 22977, Note_on_c, 0, 71, 0
2, 22977, Note_on_c, 0, 73, 75
2, 22988, Note_on_c, 0, 73, 0
2, 22988, Note_on_c, 0, 71, 75
2, 22999, Note_on_c, 0, 71, 0
2, 22999, Note_on_c, 0, 73, 75
2, 23010, Note_on_c, 0, 73, 0
2, 23010, Note_on_c, 0, 71, 75
2, 23020, Note_on_c, 0, 71, 0
2, 23020, Note_on_c, 0, 69, 75
2, 23030, Note_on_c, 0, 69, 0
2, 23030, Note_on_c, 0, 71, 75
2, 23040, Note_on_c, 0, 71, 0
2, 23040, Note_on_c, 0, 73, 75
2, 23063, Note_on_c, 0, 73, 0
2, 23064, Note_on_c, 0, 74, 75
2, 23087, Note_on_c, 0, 74, 0
2, 23088, Note_on_c, 0, 76, 75
2, 23111, Note_on_c, 0, 76, 0
2, 23112, Note_on_c, 0, 73, 75
2, 23135, Note_on_c, 0, 73, 0
2, 23136, Note_on_c, 0, 71, 75
2, 23159, Note_on_c, 0, 71, 0
2, 23160, Note_on_c, 0, 69, 75
2, 23183, Note_on_c, 0, 69, 0
2, 23184, Note_on_c, 0, 68, 75
2, 23207, Note_on_c, 0, 68, 0
2, 23208, Note_on_c, 0, 69, 75
2, 23231, Note_on_c, 0, 69, 0
2, 23232, Note_on_c, 0, 78, 75
2, 23255, Note_on_c, 0, 78, 0
2, 23256, Note_on_c, 0, 80, 74
2, 23279, Note_on_c, 0, 80, 0
2, 23280, Note_on_c, 0, 81, 73
2, 23303, Note_on_c, 0, 81, 0
2, 23304, Note_on_c, 0, 78, 73
2, 23327, Note_on_c, 0, 78, 0
2, 23328, Note_on_c, 0, 76, 72
2, 23351, Note_on_c, 0, 76, 0
2, 23352, Note_on_c, 0, 74, 71
2, 23375, Note_on_c, 0, 74, 0
2, 23376, Note_on_c, 0, 73, 71
2, 23399, Note_on_c, 0, 73, 0
2, 23400, Note_on_c, 0, 71, 70
2, 23423, Note_on_c, 0, 71, 0
2, 23424, Note_on_c, 0, 70, 69
2, 23448, Note_on_c, 0, 70, 0
2, 23448, Note_on_c, 0, 71, 69
2, 23471, Note_on_c, 0, 71, 0
2, 23472, Note_on_c, 0, 73, 69
2, 23496, Note_on_c, 0, 73, 0
2, 23496, Note_on_c, 0, 71, 69
2, 23506, Note_on_c, 0, 71, 0
2, 23520, Note_on_c, 0, 74, 69
2, 23544, Note_on_c, 0, 74, 0
2, 23544, Note_on_c, 0, 73, 69
2, 23554, Note_on_c, 0, 73, 0
2, 23568, Note_on_c, 0, 76, 69
2, 23592, Note_on_c, 0, 76, 0
2, 23592, Note_on_c, 0, 74, 69
2, 23602, Note_on_c, 0, 74, 0
2, 23616, Note_on_c, 0, 78, 69
2, 23661, Note_on_c, 0, 78, 0
2, 23760, Note_on_c, 0, 74, 61
2, 23808, Note_on_c, 0, 74, 0
2, 23808, Note_on_c, 0, 73, 61
2, 23828, Note_on_c, 0, 73, 0
2, 23856, Note_on_c, 0, 76, 61
2, 23904, Note_on_c, 0, 76, 0
2, 23904, Note_on_c, 0, 74, 61
2, 23924, Note_on_c, 0, 74, 0
2, 23952, Note_on_c, 0, 78, 61
2, 24089, Note_on_c, 0, 78, 0
2, 24192, Note_on_c, 0, 74, 53
2, 24288, Note_on_c, 0, 74, 0
2, 24288, Note_on_c, 0, 73, 53
2, 24327, Note_on_c, 0, 73, 0
2, 24384, Note_on_c, 0, 76, 53
2, 24480, Note_on_c, 0, 76, 0
2, 24480, Note_on_c, 0, 74, 53
2, 24519, Note_on_c, 0, 74, 0
2, 24576, Note_on_c, 0, 78, 53
2, 24857, Note_on_c, 0, 78, 0
2, 24912, Note_on_c, 0, 65, 84
2, 24924, Note_on_c, 0, 65, 0
2, 24924, Note_on_c, 0, 77, 84
2, 24957, Note_on_c, 0, 77, 0
2, 24960, Note_on_c, 0, 66, 84
2, 24972, Note_on_c, 0, 66, 0
2, 24972, Note_on_c, 0, 78, 84
2, 25005, Note_on_c, 0, 78, 0
2, 25008, Note_on_c, 0, 70, 84
2, 25020, Note_on_c, 0, 70, 0
2, 25020, Note_on_c, 0, 82, 84
2, 25053, Note_on_c, 0, 82, 0
2, 25056, Note_on_c, 0, 71, 84
2, 25068, Note_on_c, 0, 71, 0
2, 25068, Note_on_c, 0, 83, 84
2, 25101, Note_on_c, 0, 83, 0
2, 25104, Note_on_c, 0, 73, 84
2, 25116, Note_on_c, 0, 73, 0
2, 25116, Note_on_c, 0, 85, 84
2, 25149, Note_on_c, 0, 85, 0
2, 25152, Note_on_c, 0, 74, 84
2, 25164, Note_on_c, 0, 74, 0
2, 25164, Note_on_c, 0, 86, 100
2, 25224, Note_on_c, 0, 86, 0
2, 25224, Note_on_c, 0, 83, 84
2, 25247, Note_on_c, 0, 83, 0
2, 25248, Note_on_c, 0, 86, 84
2, 25271, Note_on_c, 0, 86, 0
2, 25272, Note_on_c, 0, 83, 84
2, 25295, Note_on_c, 0, 83, 0
2, 25296, Note_on_c, 0, 86, 84
2, 25319, Note_on_c, 0, 86, 0
2, 25320, Note_on_c, 0, 83, 84
2, 25343, Note_on_c, 0, 83, 0
2, 25344, Note_on_c, 0, 76, 84
2, 25411, Note_on_c, 0, 76, 0
2, 25416, Note_on_c, 0, 81, 84
2, 25428, Note_on_c, 0, 81, 0
2, 25428, Note_on_c, 0, 85, 84
2, 25440, Note_on_c, 0, 85, 0
2, 25440, Note_on_c, 0, 88, 100
2, 25512, Note_on_c, 0, 88, 0
2, 25512, Note_on_c, 0, 81, 84
2, 25524, Note_on_c, 0, 81, 0
2, 25524, Note_on_c, 0, 85, 84
2, 25536, Note_on_c, 0, 85, 0
2, 25536, Note_on_c, 0, 83, 84
2, 25548, Note_on_c, 0, 83, 0
2, 25549, Note_on_c, 0, 85, 84
2, 25561, Note_on_c, 0, 85, 0
2, 25562, Note_on_c, 0, 83, 84
2, 25574, Note_on_c, 0, 83, 0
2, 25575, Note_on_c, 0, 85, 84
2, 25587, Note_on_c, 0, 85, 0
2, 25588, Note_on_c, 0, 83, 84
2, 25600, Note_on_c, 0, 83, 0
2, 25601, Note_on_c, 0, 85, 84
2, 25613, Note_on_c, 0, 85, 0
2, 25614, Note_on_c, 0, 83, 84
2, 25626, Note_on_c, 0, 83, 0
2, 25627, Note_on_c, 0, 85, 84
2, 25639, Note_on_c, 0, 85, 0
2, 25640, Note_on_c, 0, 83, 84
2, 25652, Note_on_c, 0, 83, 0
2, 25653, Note_on_c, 0, 85, 84
2, 25665, Note_on_c, 0, 85, 0
2, 25666, Note_on_c, 0, 83, 84
2, 25678, Note_on_c, 0, 83, 0
2, 25679, Note_on_c, 0, 81, 84
2, 25704, Note_on_c, 0, 81, 0
2, 25704, Note_on_c, 0, 83, 84
2, 25728, Note_on_c, 0, 83, 0
2, 25728, Note_on_c, 0, 81, 84
2, 25817, Note_on_c, 0, 81, 0
2, 25872, Note_on_c, 0, 76, 84
2, 25917, Note_on_c, 0, 76, 0
2, 25920, Note_on_c, 0, 78, 84
2, 25932, Note_on_c, 0, 78, 0
2, 25932, Note_on_c, 0, 80, 84
2, 25944, Note_on_c, 0, 80, 0
2, 25944, Note_on_c, 0, 78, 84
2, 25965, Note_on_c, 0, 78, 0
2, 25968, Note_on_c, 0, 76, 84
2, 26013, Note_on_c, 0, 76, 0
2, 26016, Note_on_c, 0, 78, 84
2, 26028, Note_on_c, 0, 78, 0
2, 26028, Note_on_c, 0, 80, 84
2, 26040, Note_on_c, 0, 80, 0
2, 26040, Note_on_c, 0, 78, 84
2, 26061, Note_on_c, 0, 78, 0
2, 26064, Note_on_c, 0, 76, 84
2, 26109, Note_on_c, 0, 76, 0
2, 26112, Note_on_c, 0, 76, 100
2, 26124, Note_on_c, 0, 80, 100
2, 26136, Note_on_c, 0, 83, 100
2, 26148, Note_on_c, 0, 86, 100
2, 26208, Note_on_c, 0, 86, 0
2, 26208, Note_on_c, 0, 83, 0
2, 26208, Note_on_c, 0, 80, 0
2, 26208, Note_on_c, 0, 76, 0
2, 26256, Note_on_c, 0, 85, 84
2, 26301, Note_on_c, 0, 85, 0
2, 26304, Note_on_c, 0, 85, 84
2, 26316, Note_on_c, 0, 85, 0
2, 26316, Note_on_c, 0, 83, 84
2, 26328, Note_on_c, 0, 83, 0
2, 26328, Note_on_c, 0, 82, 84
2, 26340, Note_on_c, 0, 82, 0
2, 26340, Note_on_c, 0, 83, 84
2, 26352, Note_on_c, 0, 83, 0
2, 26352, Note_on_c, 0, 86, 84
2, 26397, Note_on_c, 0, 86, 0
2, 26400, Note_on_c, 0, 78, 84
2, 26412, Note_on_c, 0, 78, 0
2, 26412, Note_on_c, 0, 76, 84
2, 26424, Note_on_c, 0, 76, 0
2, 26424, Note_on_c, 0, 75, 84
2, 26436, Note_on_c, 0, 75, 0
2, 26436, Note_on_c, 0, 76, 84
2, 26448, Note_on_c, 0, 76, 0
2, 26448, Note_on_c, 0, 80, 84
2, 26448, Note_on_c, 0, 74, 84
2, 26493, Note_on_c, 0, 80, 0
2, 26493, Note_on_c, 0, 74, 0
2, 26496, Note_on_c, 0, 81, 84
2, 26496, Note_on_c, 0, 73, 84
2, 26585, Note_on_c, 0, 81, 0
2, 26585, Note_on_c, 0, 73, 0
2, 26640, Note_on_c, 0, 76, 84
2, 26685, Note_on_c, 0, 76, 0
2, 26688, Note_on_c, 0, 78, 84
2, 26700, Note_on_c, 0, 78, 0
2, 26700, Note_on_c, 0, 80, 84
2, 26712, Note_on_c, 0, 80, 0
2, 26712, Note_on_c, 0, 78, 84
2, 26733, Note_on_c, 0, 78, 0
2, 26736, Note_on_c, 0, 76, 84
2, 26781, Note_on_c, 0, 76, 0
2, 26784, Note_on_c, 0, 78, 84
2, 26796, Note_on_c, 0, 78, 0
2, 26796, Note_on_c, 0, 80, 84
2, 26808, Note_on_c, 0, 80, 0
2, 26808, Note_on_c, 0, 78, 84
2, 26829, Note_on_c, 0, 78, 0
2, 26832, Note_on_c, 0, 76, 84
2, 26877, Note_on_c, 0, 76, 0
2, 26880, Note_on_c, 0, 76, 100
2, 26892, Note_on_c, 0, 80, 100
2, 26904, Note_on_c, 0, 83, 100
2, 26916, Note_on_c, 0, 86, 100
2, 26976, Note_on_c, 0, 86, 0
2, 26976, Note_on_c, 0, 83, 0
2, 26976, Note_on_c, 0, 80, 0
2, 26976, Note_on_c, 0, 76, 0
2, 27024, Note_on_c, 0, 85, 84
2, 27069, Note_on_c, 0, 85, 0
2, 27072, Note_on_c, 0, 85, 84
2, 27084, Note_on_c, 0, 85, 0
2, 27084, Note_on_c, 0, 83, 84
2, 27096, Note_on_c, 0, 83, 0
2, 27096, Note_on_c, 0, 82, 84
2, 27108, Note_on_c, 0, 82, 0
2, 27108, Note_on_c, 0, 83, 84
2, 27120, Note_on_c, 0, 83, 0
2, 27120, Note_on_c, 0, 86, 84
2, 27165, Note_on_c, 0, 86, 0
2, 27168, Note_on_c, 0, 78, 84
2, 27180, Note_on_c, 0, 78, 0
2, 27180, Note_on_c, 0, 76, 84
2, 27192, Note_on_c, 0, 76, 0
2, 27192, Note_on_c, 0, 75, 84
2, 27204, Note_on_c, 0, 75, 0
2, 27204, Note_on_c, 0, 76, 84
2, 27216, Note_on_c, 0, 76, 0
2, 27216, Note_on_c, 0, 80, 84
2, 27216, Note_on_c, 0, 74, 84
2, 27261, Note_on_c, 0, 80, 0
2, 27261, Note_on_c, 0, 74, 0
2, 27264, Note_on_c, 0, 81, 84
2, 27264, Note_on_c, 0, 73, 84
2, 27309, Note_on_c, 0, 81, 0
2, 27309, Note_on_c, 0, 73, 0
2, 27384, Note_on_c, 0, 64, 82
2, 27407, Note_on_c, 0, 64, 0
2, 27408, Note_on_c, 0, 68, 80
2, 27431, Note_on_c, 0, 68, 0
2, 27432, Note_on_c, 0, 76, 78
2, 27455, Note_on_c, 0, 76, 0
2, 27480, Note_on_c, 0, 64, 74
2, 27503, Note_on_c, 0, 64, 0
2, 27504, Note_on_c, 0, 69, 72
2, 27527, Note_on_c, 0, 69, 0
2, 27528, Note_on_c, 0, 76, 70
2, 27551, Note_on_c, 0, 76, 0
2, 27576, Note_on_c, 0, 59, 66
2, 27599, Note_on_c, 0, 59, 0
2, 27600, Note_on_c, 0, 62, 64
2, 27623, Note_on_c, 0, 62, 0
2, 27624, Note_on_c, 0, 68, 62
2, 27647, Note_on_c, 0, 68, 0
2, 27648, Note_on_c, 0, 69, 60
2, 27648, Note_on_c, 0, 61, 60
2, 27737, Note_on_c, 0, 69, 0
2, 27737, Note_on_c, 0, 61, 0
2, 28128, Note_on_c, 0, 55, 75
2, 28140, Note_on_c, 0, 55, 0
2, 28140, Note_on_c, 0, 54, 75
2, 28152, Note_on_c, 0, 54, 0
2, 28152, Note_on_c, 0, 53, 75
2, 28164, Note_on_c, 0, 53, 0
2, 28164, Note_on_c, 0, 54, 75
2, 28176, Note_on_c, 0, 54, 0
2, 28176, Note_on_c, 0, 58, 75
2, 28221, Note_on_c, 0, 58, 0
2, 28224, Note_on_c, 0, 61, 75
2, 28236, Note_on_c, 0, 61, 0
2, 28236, Note_on_c, 0, 59, 75
2, 28248, Note_on_c, 0, 59, 0
2, 28248, Note_on_c, 0, 58, 75
2, 28260, Note_on_c, 0, 58, 0
2, 28260, Note_on_c, 0, 59, 75
2, 28272, Note_on_c, 0, 59, 0
2, 28272, Note_on_c, 0, 62, 75
2, 28317, Note_on_c, 0, 62, 0
2, 28320, Note_on_c, 0, 62, 75
2, 28332, Note_on_c, 0, 62, 0
2, 28332, Note_on_c, 0, 61, 75
2, 28344, Note_on_c, 0, 61, 0
2, 28344, Note_on_c, 0, 59, 75
2, 28356, Note_on_c, 0, 59, 0
2, 28356, Note_on_c, 0, 61, 75
2, 28368, Note_on_c, 0, 61, 0
2, 28368, Note_on_c, 0, 64, 75
2, 28413, Note_on_c, 0, 64, 0
2, 28416, Note_on_c, 0, 64, 75
2, 28428, Note_on_c, 0, 64, 0
2, 28428, Note_on_c, 0, 62, 75
2, 28440, Note_on_c, 0, 62, 0
2, 28440, Note_on_c, 0, 61, 75
2, 28452, Note_on_c, 0, 61, 0
2, 28452, Note_on_c, 0, 62, 75
2, 28464, Note_on_c, 0, 62, 0
2, 28464, Note_on_c, 0, 66, 75
2, 28509, Note_on_c, 0, 66, 0
2, 28560, Note_on_c, 0, 62, 75
2, 28572, Note_on_c, 0, 62, 0
2, 28572, Note_on_c, 0, 66, 75
2, 28584, Note_on_c, 0, 66, 0
2, 28584, Note_on_c, 0, 71, 75
2, 28596, Note_on_c, 0, 71, 0
2, 28596, Note_on_c, 0, 74, 76
2, 28608, Note_on_c, 0, 74, 0
2, 28608, Note_on_c, 0, 71, 77
2, 28656, Note_on_c, 0, 71, 0
2, 28656, Note_on_c, 0, 66, 80
2, 28701, Note_on_c, 0, 66, 0
2, 28704, Note_on_c, 0, 78, 84
2, 28724, Note_on_c, 0, 78, 0
2, 28752, Note_on_c, 0, 71, 81
2, 28772, Note_on_c, 0, 71, 0
2, 28800, Note_on_c, 0, 73, 79
2, 28812, Note_on_c, 0, 73, 0
2, 28812, Note_on_c, 0, 74, 79
2, 28824, Note_on_c, 0, 74, 0
2, 28824, Note_on_c, 0, 73, 79
2, 28845, Note_on_c, 0, 73, 0
2, 28848, Note_on_c, 0, 71, 77
2, 28893, Note_on_c, 0, 71, 0
2, 28944, Note_on_c, 0, 62, 75
2, 28956, Note_on_c, 0, 62, 0
2, 28956, Note_on_c, 0, 66, 76
2, 28968, Note_on_c, 0, 66, 0
2, 28968, Note_on_c, 0, 71, 77
2, 28980, Note_on_c, 0, 71, 0
2, 28980, Note_on_c, 0, 74, 78
2, 28992, Note_on_c, 0, 74, 0
2, 28992, Note_on_c, 0, 71, 79
2, 29040, Note_on_c, 0, 71, 0
2, 29040, Note_on_c, 0, 66, 84
2, 29085, Note_on_c, 0, 66, 0
2, 29088, Note_on_c, 0, 83, 82
2, 29108, Note_on_c, 0, 83, 0
2, 29136, Note_on_c, 0, 78, 80
2, 29156, Note_on_c, 0, 78, 0
2, 29184, Note_on_c, 0, 79, 78
2, 29196, Note_on_c, 0, 79, 0
2, 29196, Note_on_c, 0, 81, 78
2, 29208, Note_on_c, 0, 81, 0
2, 29208, Note_on_c, 0, 79, 78
2, 29229, Note_on_c, 0, 79, 0
2, 29232, Note_on_c, 0, 78, 76
2, 29277, Note_on_c, 0, 78, 0
2, 29328, Note_on_c, 0, 71, 75
2, 29340, Note_on_c, 0, 71, 0
2, 29340, Note_on_c, 0, 74, 77
2, 29352, Note_on_c, 0, 74, 0
2, 29352, Note_on_c, 0, 78, 79
2, 29364, Note_on_c, 0, 78, 0
2, 29364, Note_on_c, 0, 83, 81
2, 29376, Note_on_c, 0, 83, 0
2, 29376, Note_on_c, 0, 78, 84
2, 29424, Note_on_c, 0, 78, 0
2, 29424, Note_on_c, 0, 74, 82
2, 29469, Note_on_c, 0, 74, 0
2, 29472, Note_on_c, 0, 79, 81
2, 29492, Note_on_c, 0, 79, 0
2, 29520, Note_on_c, 0, 78, 79
2, 29540, Note_on_c, 0, 78, 0
2, 29568, Note_on_c, 0, 76, 78
2, 29580, Note_on_c, 0, 76, 0
2, 29580, Note_on_c, 0, 78, 78
2, 29592, Note_on_c, 0, 78, 0
2, 29592, Note_on_c, 0, 76, 78
2, 29613, Note_on_c, 0, 76, 0
2, 29616, Note_on_c, 0, 74, 76
2, 29661, Note_on_c, 0, 74, 0
2, 29784, Note_on_c, 0, 60, 75
2, 29807, Note_on_c, 0, 60, 0
2, 29808, Note_on_c, 0, 59, 75
2, 29831, Note_on_c, 0, 59, 0
2, 29832, Note_on_c, 0, 60, 75
2, 29855, Note_on_c, 0, 60, 0
2, 29856, Note_on_c, 0, 62, 75
2, 29879, Note_on_c, 0, 62, 0
2, 29880, Note_on_c, 0, 60, 75
2, 29903, Note_on_c, 0, 60, 0
2, 29904, Note_on_c, 0, 64, 75
2, 29927, Note_on_c, 0, 64, 0
2, 29928, Note_on_c, 0, 60, 75
2, 29951, Note_on_c, 0, 60, 0
2, 29976, Note_on_c, 0, 67, 75
2, 29999, Note_on_c, 0, 67, 0
2, 30000, Note_on_c, 0, 66, 75
2, 30023, Note_on_c, 0, 66, 0
2, 30024, Note_on_c, 0, 67, 75
2, 30047, Note_on_c, 0, 67, 0
2, 30048, Note_on_c, 0, 69, 75
2, 30071, Note_on_c, 0, 69, 0
2, 30072, Note_on_c, 0, 67, 75
2, 30095, Note_on_c, 0, 67, 0
2, 30096, Note_on_c, 0, 71, 75
2, 30119, Note_on_c, 0, 71, 0
2, 30120, Note_on_c, 0, 67, 75
2, 30143, Note_on_c, 0, 67, 0
2, 30144, Note_on_c, 0, 66, 75
2, 30321, Note_on_c, 0, 66, 0
2, 30336, Note_on_c, 0, 59, 75
2, 30359, Note_on_c, 0, 59, 0
2, 30360, Note_on_c, 0, 64, 75
2, 30383, Note_on_c, 0, 64, 0
2, 30384, Note_on_c, 0, 63, 75
2, 30407, Note_on_c, 0, 63, 0
2, 30408, Note_on_c, 0, 64, 75
2, 30431, Note_on_c, 0, 64, 0
2, 30432, Note_on_c, 0, 66, 75
2, 30455, Note_on_c, 0, 66, 0
2, 30456, Note_on_c, 0, 64, 75
2, 30479, Note_on_c, 0, 64, 0
2, 30480, Note_on_c, 0, 67, 75
2, 30503, Note_on_c, 0, 67, 0
2, 30504, Note_on_c, 0, 64, 75
2, 30527, Note_on_c, 0, 64, 0
2, 30528, Note_on_c, 0, 76, 75
2, 30528, Note_on_c, 0, 67, 75
2, 30705, Note_on_c, 0, 76, 0
2, 30705, Note_on_c, 0, 67, 0
2, 30744, Note_on_c, 0, 76, 75
2, 30767, Note_on_c, 0, 76, 0
2, 30768, Note_on_c, 0, 75, 75
2, 30791, Note_on_c, 0, 75, 0
2, 30792, Note_on_c, 0, 76, 75
2, 30815, Note_on_c, 0, 76, 0
2, 30816, Note_on_c, 0, 78, 75
2, 30839, Note_on_c, 0, 78, 0
2, 30840, Note_on_c, 0, 76, 75
2, 30863, Note_on_c, 0, 76, 0
2, 30864, Note_on_c, 0, 79, 75
2, 30887, Note_on_c, 0, 79, 0
2, 30888, Note_on_c, 0, 76, 75
2, 30911, Note_on_c, 0, 76, 0
2, 30912, Note_on_c, 0, 74, 75
2, 30935, Note_on_c, 0, 74, 0
2, 30936, Note_on_c, 0, 83, 75
2, 30959, Note_on_c, 0, 83, 0
2, 30960, Note_on_c, 0, 82, 75
2, 30983, Note_on_c, 0, 82, 0
2, 30984, Note_on_c, 0, 83, 75
2, 31007, Note_on_c, 0, 83, 0
2, 31008, Note_on_c, 0, 85, 75
2, 31031, Note_on_c, 0, 85, 0
2, 31032, Note_on_c, 0, 83, 75
2, 31055, Note_on_c, 0, 83, 0
2, 31056, Note_on_c, 0, 86, 75
2, 31079, Note_on_c, 0, 86, 0
2, 31080, Note_on_c, 0, 83, 75
2, 31103, Note_on_c, 0, 83, 0
2, 31104, Note_on_c, 0, 82, 75
2, 31127, Note_on_c, 0, 82, 0
2, 31128, Note_on_c, 0, 85, 75
2, 31151, Note_on_c, 0, 85, 0
2, 31152, Note_on_c, 0, 78, 75
2, 31175, Note_on_c, 0, 78, 0
2, 31176, Note_on_c, 0, 82, 75
2, 31199, Note_on_c, 0, 82, 0
2, 31200, Note_on_c, 0, 73, 75
2, 31223, Note_on_c, 0, 73, 0
2, 31224, Note_on_c, 0, 78, 75
2, 31247, Note_on_c, 0, 78, 0
2, 31248, Note_on_c, 0, 70, 75
2, 31271, Note_on_c, 0, 70, 0
2, 31272, Note_on_c, 0, 73, 75
2, 31295, Note_on_c, 0, 73, 0
2, 31296, Note_on_c, 0, 66, 75
2, 31390, Note_on_c, 0, 66, 0
2, 31440, Note_on_c, 0, 66, 85
2, 31488, Note_on_c, 0, 66, 0
2, 31488, Note_on_c, 0, 71, 70
2, 31512, Note_on_c, 0, 71, 0
2, 31512, Note_on_c, 0, 70, 70
2, 31535, Note_on_c, 0, 70, 0
2, 31536, Note_on_c, 0, 73, 71
2, 31560, Note_on_c, 0, 73, 0
2, 31560, Note_on_c, 0, 71, 72
2, 31583, Note_on_c, 0, 71, 0
2, 31584, Note_on_c, 0, 74, 72
2, 31608, Note_on_c, 0, 74, 0
2, 31608, Note_on_c, 0, 73, 73
2, 31631, Note_on_c, 0, 73, 0
2, 31632, Note_on_c, 0, 76, 73
2, 31656, Note_on_c, 0, 76, 0
2, 31656, Note_on_c, 0, 74, 74
2, 31679, Note_on_c, 0, 74, 0
2, 31680, Note_on_c, 0, 74, 75
2, 31680, Note_on_c, 0, 71, 75
2, 31776, Note_on_c, 0, 74, 0
2, 31776, Note_on_c, 0, 71, 0
2, 31776, Note_on_c, 0, 73, 75
2, 31776, Note_on_c, 0, 70, 75
2, 31821, Note_on_c, 0, 73, 0
2, 31821, Note_on_c, 0, 70, 0
2, 31824, Note_on_c, 0, 66, 85
2, 31872, Note_on_c, 0, 66, 0
2, 31872, Note_on_c, 0, 73, 70
2, 31896, Note_on_c, 0, 73, 0
2, 31896, Note_on_c, 0, 71, 70
2, 31919, Note_on_c, 0, 71, 0
2, 31920, Note_on_c, 0, 74, 71
2, 31944, Note_on_c, 0, 74, 0
2, 31944, Note_on_c, 0, 73, 72
2, 31967, Note_on_c, 0, 73, 0
2, 31968, Note_on_c, 0, 76, 72
2, 31992, Note_on_c, 0, 76, 0
2, 31992, Note_on_c, 0, 74, 73
2, 32015, Note_on_c, 0, 74, 0
2, 32016, Note_on_c, 0, 78, 73
2, 32040, Note_on_c, 0, 78, 0
2, 32040, Note_on_c, 0, 76, 74
2, 32063, Note_on_c, 0, 76, 0
2, 32064, Note_on_c, 0, 76, 75
2, 32064, Note_on_c, 0, 73, 75
2, 32160, Note_on_c, 0, 76, 0
2, 32160, Note_on_c, 0, 73, 0
2, 32160, Note_on_c, 0, 74, 75
2, 32160, Note_on_c, 0, 71, 75
2, 32205, Note_on_c, 0, 74, 0
2, 32205, Note_on_c, 0, 71, 0
2, 32208, Note_on_c, 0, 71, 75
2, 32253, Note_on_c, 0, 71, 0
2, 32256, Note_on_c, 0, 76, 75
2, 32280, Note_on_c, 0, 76, 0
2, 32280, Note_on_c, 0, 75, 75
2, 32303, Note_on_c, 0, 75, 0
2, 32304, Note_on_c, 0, 78, 75
2, 32328, Note_on_c, 0, 78, 0
2, 32328, Note_on_c, 0, 76, 75
2, 32351, Note_on_c, 0, 76, 0
2, 32352, Note_on_c, 0, 79, 75
2, 32376, Note_on_c, 0, 79, 0
2, 32376, Note_on_c, 0, 78, 75
2, 32399, Note_on_c, 0, 78, 0
2, 32400, Note_on_c, 0, 81, 75
2, 32424, Note_on_c, 0, 81, 0
2, 32424, Note_on_c, 0, 79, 75
2, 32447, Note_on_c, 0, 79, 0
2, 32448, Note_on_c, 0, 83, 75
2, 32471, Note_on_c, 0, 83, 0
2, 32472, Note_on_c, 0, 81, 75
2, 32495, Note_on_c, 0, 81, 0
2, 32496, Note_on_c, 0, 79, 75
2, 32519, Note_on_c, 0, 79, 0
2, 32520, Note_on_c, 0, 78, 75
2, 32543, Note_on_c, 0, 78, 0
2, 32544, Note_on_c, 0, 76, 75
2, 32567, Note_on_c, 0, 76, 0
2, 32568, Note_on_c, 0, 74, 75
2, 32591, Note_on_c, 0, 74, 0
2, 32592, Note_on_c, 0, 73, 75
2, 32615, Note_on_c, 0, 73, 0
2, 32616, Note_on_c, 0, 71, 75
2, 32639, Note_on_c, 0, 71, 0
2, 32640, Note_on_c, 0, 73, 75
2, 32664, Note_on_c, 0, 73, 0
2, 32664, Note_on_c, 0, 71, 75
2, 32687, Note_on_c, 0, 71, 0
2, 32688, Note_on_c, 0, 74, 75
2, 32712, Note_on_c, 0, 74, 0
2, 32712, Note_on_c, 0, 73, 75
2, 32735, Note_on_c, 0, 73, 0
2, 32736, Note_on_c, 0, 76, 75
2, 32760, Note_on_c, 0, 76, 0
2, 32760, Note_on_c, 0, 74, 75
2, 32783, Note_on_c, 0, 74, 0
2, 32784, Note_on_c, 0, 78, 75
2, 32808, Note_on_c, 0, 78, 0
2, 32808, Note_on_c, 0, 76, 75
2, 32831, Note_on_c, 0, 76, 0
2, 32832, Note_on_c, 0, 79, 75
2, 32855, Note_on_c, 0, 79, 0
2, 32856, Note_on_c, 0, 78, 75
2, 32879, Note_on_c, 0, 78, 0
2, 32880, Note_on_c, 0, 76, 75
2, 32903, Note_on_c, 0, 76, 0
2, 32904, Note_on_c, 0, 74, 75
2, 32927, Note_on_c, 0, 74, 0
2, 32928, Note_on_c, 0, 73, 75
2, 32951, Note_on_c, 0, 73, 0
2, 32952, Note_on_c, 0, 71, 75
2, 32975, Note_on_c, 0, 71, 0
2, 32976, Note_on_c, 0, 69, 75
2, 32999, Note_on_c, 0, 69, 0
2, 33000, Note_on_c, 0, 67, 75
2, 33023, Note_on_c, 0, 67, 0
2, 33024, Note_on_c, 0, 66, 75
2, 33048, Note_on_c, 0, 66, 0
2, 33048, Note_on_c, 0, 64, 75
2, 33071, Note_on_c, 0, 64, 0
2, 33072, Note_on_c, 0, 67, 75
2, 33096, Note_on_c, 0, 67, 0
2, 33096, Note_on_c, 0, 66, 75
2, 33119, Note_on_c, 0, 66, 0
2, 33120, Note_on_c, 0, 69, 75
2, 33144, Note_on_c, 0, 69, 0
2, 33144, Note_on_c, 0, 67, 75
2, 33167, Note_on_c, 0, 67, 0
2, 33168, Note_on_c, 0, 71, 75
2, 33192, Note_on_c, 0, 71, 0
2, 33192, Note_on_c, 0, 69, 75
2, 33215, Note_on_c, 0, 69, 0
2, 33216, Note_on_c, 0, 72, 75
2, 33239, Note_on_c, 0, 72, 0
2, 33240, Note_on_c, 0, 71, 75
2, 33263, Note_on_c, 0, 71, 0
2, 33264, Note_on_c, 0, 69, 75
2, 33287, Note_on_c, 0, 69, 0
2, 33288, Note_on_c, 0, 67, 75
2, 33311, Note_on_c, 0, 67, 0
2, 33312, Note_on_c, 0, 66, 75
2, 33335, Note_on_c, 0, 66, 0
2, 33336, Note_on_c, 0, 64, 75
2, 33359, Note_on_c, 0, 64, 0
2, 33360, Note_on_c, 0, 62, 75
2, 33383, Note_on_c, 0, 62, 0
2, 33384, Note_on_c, 0, 60, 75
2, 33407, Note_on_c, 0, 60, 0
2, 33408, Note_on_c, 0, 59, 75
2, 33431, Note_on_c, 0, 59, 0
2, 33432, Note_on_c, 0, 71, 75
2, 33455, Note_on_c, 0, 71, 0
2, 33456, Note_on_c, 0, 70, 75
2, 33479, Note_on_c, 0, 70, 0
2, 33480, Note_on_c, 0, 71, 75
2, 33503, Note_on_c, 0, 71, 0
2, 33504, Note_on_c, 0, 69, 75
2, 33527, Note_on_c, 0, 69, 0
2, 33528, Note_on_c, 0, 67, 75
2, 33551, Note_on_c, 0, 67, 0
2, 33552, Note_on_c, 0, 66, 75
2, 33575, Note_on_c, 0, 66, 0
2, 33576, Note_on_c, 0, 64, 75
2, 33599, Note_on_c, 0, 64, 0
2, 33600, Note_on_c, 0, 63, 75
2, 33623, Note_on_c, 0, 63, 0
2, 33624, Note_on_c, 0, 64, 75
2, 33647, Note_on_c, 0, 64, 0
2, 33648, Note_on_c, 0, 66, 75
2, 33671, Note_on_c, 0, 66, 0
2, 33672, Note_on_c, 0, 64, 75
2, 33695, Note_on_c, 0, 64, 0
2, 33696, Note_on_c, 0, 67, 75
2, 33719, Note_on_c, 0, 67, 0
2, 33720, Note_on_c, 0, 66, 75
2, 33743, Note_on_c, 0, 66, 0
2, 33744, Note_on_c, 0, 64, 75
2, 33767, Note_on_c, 0, 64, 0
2, 33768, Note_on_c, 0, 62, 75
2, 33791, Note_on_c, 0, 62, 0
2, 33792, Note_on_c, 0, 62, 75
2, 33984, Note_on_c, 0, 62, 0
2, 33984, Note_on_c, 0, 61, 75
2, 34007, Note_on_c, 0, 61, 0
2, 34008, Note_on_c, 0, 57, 75
2, 34031, Note_on_c, 0, 57, 0
2, 34032, Note_on_c, 0, 64, 75
2, 34055, Note_on_c, 0, 64, 0
2, 34056, Note_on_c, 0, 61, 75
2, 34079, Note_on_c, 0, 61, 0
2, 34080, Note_on_c, 0, 69, 75
2, 34103, Note_on_c, 0, 69, 0
2, 34104, Note_on_c, 0, 64, 74
2, 34127, Note_on_c, 0, 64, 0
2, 34128, Note_on_c, 0, 73, 73
2, 34151, Note_on_c, 0, 73, 0
2, 34152, Note_on_c, 0, 69, 73
2, 34175, Note_on_c, 0, 69, 0
2, 34176, Note_on_c, 0, 76, 72
2, 34199, Note_on_c, 0, 76, 0
2, 34200, Note_on_c, 0, 73, 72
2, 34223, Note_on_c, 0, 73, 0
2, 34224, Note_on_c, 0, 79, 71
2, 34247, Note_on_c, 0, 79, 0
2, 34248, Note_on_c, 0, 76, 70
2, 34271, Note_on_c, 0, 76, 0
2, 34272, Note_on_c, 0, 83, 70
2, 34317, Note_on_c, 0, 83, 0
2, 34488, Note_on_c, 0, 82, 61
2, 34511, Note_on_c, 0, 82, 0
2, 34512, Note_on_c, 0, 83, 61
2, 34535, Note_on_c, 0, 83, 0
2, 34536, Note_on_c, 0, 82, 61
2, 34559, Note_on_c, 0, 82, 0
2, 34560, Note_on_c, 0, 83, 61
2, 34580, Note_on_c, 0, 83, 0
2, 34680, Note_on_c, 0, 82, 53
2, 34703, Note_on_c, 0, 82, 0
2, 34704, Note_on_c, 0, 83, 53
2, 34727, Note_on_c, 0, 83, 0
2, 34728, Note_on_c, 0, 82, 53
2, 34751, Note_on_c, 0, 82, 0
2, 34752, Note_on_c, 0, 83, 53
2, 34772, Note_on_c, 0, 83, 0
2, 34872, Note_on_c, 0, 82, 61
2, 34895, Note_on_c, 0, 82, 0
2, 34896, Note_on_c, 0, 83, 62
2, 34919, Note_on_c, 0, 83, 0
2, 34920, Note_on_c, 0, 82, 63
2, 34943, Note_on_c, 0, 82, 0
2, 34944, Note_on_c, 0, 83, 64
2, 34967, Note_on_c, 0, 83, 0
2, 34968, Note_on_c, 0, 85, 65
2, 34991, Note_on_c, 0, 85, 0
2, 34992, Note_on_c, 0, 86, 66
2, 35015, Note_on_c, 0, 86, 0
2, 35016, Note_on_c, 0, 85, 68
2, 35039, Note_on_c, 0, 85, 0
2, 35040, Note_on_c, 0, 83, 69
2, 35063, Note_on_c, 0, 83, 0
2, 35064, Note_on_c, 0, 81, 70
2, 35087, Note_on_c, 0, 81, 0
2, 35088, Note_on_c, 0, 79, 71
2, 35111, Note_on_c, 0, 79, 0
2, 35112, Note_on_c, 0, 78, 72
2, 35135, Note_on_c, 0, 78, 0
2, 35136, Note_on_c, 0, 79, 73
2, 35159, Note_on_c, 0, 79, 0
2, 35160, Note_on_c, 0, 81, 75
2, 35183, Note_on_c, 0, 81, 0
2, 35184, Note_on_c, 0, 83, 75
2, 35207, Note_on_c, 0, 83, 0
2, 35208, Note_on_c, 0, 81, 75
2, 35231, Note_on_c, 0, 81, 0
2, 35232, Note_on_c, 0, 79, 75
2, 35255, Note_on_c, 0, 79, 0
2, 35256, Note_on_c, 0, 78, 75
2, 35279, Note_on_c, 0, 78, 0
2, 35280, Note_on_c, 0, 76, 75
2, 35303, Note_on_c, 0, 76, 0
2, 35304, Note_on_c, 0, 75, 75
2, 35327, Note_on_c, 0, 75, 0
2, 35328, Note_on_c, 0, 76, 75
2, 35351, Note_on_c, 0, 76, 0
2, 35352, Note_on_c, 0, 78, 75
2, 35375, Note_on_c, 0, 78, 0
2, 35376, Note_on_c, 0, 79, 75
2, 35399, Note_on_c, 0, 79, 0
2, 35400, Note_on_c, 0, 78, 75
2, 35423, Note_on_c, 0, 78, 0
2, 35424, Note_on_c, 0, 76, 75
2, 35447, Note_on_c, 0, 76, 0
2, 35448, Note_on_c, 0, 74, 75
2, 35471, Note_on_c, 0, 74, 0
2, 35472, Note_on_c, 0, 73, 75
2, 35495, Note_on_c, 0, 73, 0
2, 35496, Note_on_c, 0, 71, 75
2, 35519, Note_on_c, 0, 71, 0
2, 35520, Note_on_c, 0, 69, 75
2, 35543, Note_on_c, 0, 69, 0
2, 35544, Note_on_c, 0, 71, 75
2, 35567, Note_on_c, 0, 71, 0
2, 35568, Note_on_c, 0, 68, 75
2, 35591, Note_on_c, 0, 68, 0
2, 35592, Note_on_c, 0, 71, 75
2, 35615, Note_on_c, 0, 71, 0
2, 35616, Note_on_c, 0, 69, 75
2, 35639, Note_on_c, 0, 69, 0
2, 35640, Note_on_c, 0, 71, 75
2, 35663, Note_on_c, 0, 71, 0
2, 35664, Note_on_c, 0, 68, 75
2, 35687, Note_on_c, 0, 68, 0
2, 35688, Note_on_c, 0, 71, 75
2, 35711, Note_on_c, 0, 71, 0
2, 35712, Note_on_c, 0, 69, 75
2, 35735, Note_on_c, 0, 69, 0
2, 35736, Note_on_c, 0, 71, 75
2, 35759, Note_on_c, 0, 71, 0
2, 35760, Note_on_c, 0, 68, 75
2, 35783, Note_on_c, 0, 68, 0
2, 35784, Note_on_c, 0, 71, 75
2, 35807, Note_on_c, 0, 71, 0
2, 35808, Note_on_c, 0, 69, 75
2, 35831, Note_on_c, 0, 69, 0
2, 35832, Note_on_c, 0, 71, 75
2, 35855, Note_on_c, 0, 71, 0
2, 35856, Note_on_c, 0, 66, 75
2, 35879, Note_on_c, 0, 66, 0
2, 35880, Note_on_c, 0, 69, 75
2, 35903, Note_on_c, 0, 69, 0
2, 35904, Note_on_c, 0, 67, 75
2, 35927, Note_on_c, 0, 67, 0
2, 35928, Note_on_c, 0, 69, 75
2, 35951, Note_on_c, 0, 69, 0
2, 35952, Note_on_c, 0, 66, 75
2, 35975, Note_on_c, 0, 66, 0
2, 35976, Note_on_c, 0, 69, 75
2, 35999, Note_on_c, 0, 69, 0
2, 36000, Note_on_c, 0, 67, 75
2, 36023, Note_on_c, 0, 67, 0
2, 36024, Note_on_c, 0, 69, 75
2, 36047, Note_on_c, 0, 69, 0
2, 36048, Note_on_c, 0, 66, 75
2, 36071, Note_on_c, 0, 66, 0
2, 36072, Note_on_c, 0, 69, 75
2, 36095, Note_on_c, 0, 69, 0
2, 36096, Note_on_c, 0, 67, 75
2, 36119, Note_on_c, 0, 67, 0
2, 36120, Note_on_c, 0, 69, 75
2, 36143, Note_on_c, 0, 69, 0
2, 36144, Note_on_c, 0, 66, 75
2, 36167, Note_on_c, 0, 66, 0
2, 36168, Note_on_c, 0, 69, 75
2, 36191, Note_on_c, 0, 69, 0
2, 36192, Note_on_c, 0, 67, 75
2, 36215, Note_on_c, 0, 67, 0
2, 36216, Note_on_c, 0, 69, 75
2, 36239, Note_on_c, 0, 69, 0
2, 36240, Note_on_c, 0, 66, 75
2, 36263, Note_on_c, 0, 66, 0
2, 36264, Note_on_c, 0, 69, 75
2, 36287, Note_on_c, 0, 69, 0
2, 36288, Note_on_c, 0, 67, 75
2, 36355, Note_on_c, 0, 67, 0
2, 36360, Note_on_c, 0, 66, 72
2, 36383, Note_on_c, 0, 66, 0
2, 36384, Note_on_c, 0, 67, 72
2, 36451, Note_on_c, 0, 67, 0
2, 36456, Note_on_c, 0, 66, 70
2, 36479, Note_on_c, 0, 66, 0
2, 36480, Note_on_c, 0, 67, 69
2, 36547, Note_on_c, 0, 67, 0
2, 36552, Note_on_c, 0, 66, 67
2, 36575, Note_on_c, 0, 66, 0
2, 36576, Note_on_c, 0, 67, 66
2, 36599, Note_on_c, 0, 67, 0
2, 36600, Note_on_c, 0, 66, 65
2, 36623, Note_on_c, 0, 66, 0
2, 36624, Note_on_c, 0, 67, 65
2, 36647, Note_on_c, 0, 67, 0
2, 36648, Note_on_c, 0, 66, 64
2, 36671, Note_on_c, 0, 66, 0
2, 36672, Note_on_c, 0, 67, 63
2, 36761, Note_on_c, 0, 67, 0
2, 36912, Control_c, 0, 64, 127
2, 36912, Note_on_c, 0, 69, 84
2, 36924, Note_on_c, 0, 69, 0
2, 36924, Note_on_c, 0, 73, 84
2, 36936, Note_on_c, 0, 73, 0
2, 36936, Note_on_c, 0, 76, 84
2, 36948, Note_on_c, 0, 76, 0
2, 36948, Note_on_c, 0, 79, 84
2, 36960, Note_on_c, 0, 79, 0
2, 36960, Control_c, 0, 64, 0
2, 37200, Note_on_c, 0, 57, 75
2, 37212, Note_on_c, 0, 57, 0
2, 37212, Note_on_c, 0, 62, 75
2, 37224, Note_on_c, 0, 62, 0
2, 37224, Note_on_c, 0, 66, 75
2, 37236, Note_on_c, 0, 66, 0
2, 37236, Note_on_c, 0, 69, 76
2, 37248, Note_on_c, 0, 69, 0
2, 37248, Note_on_c, 0, 66, 77
2, 37293, Note_on_c, 0, 66, 0
2, 37296, Note_on_c, 0, 62, 80
2, 37341, Note_on_c, 0, 62, 0
2, 37344, Note_on_c, 0, 74, 84
2, 37364, Note_on_c, 0, 74, 0
2, 37392, Note_on_c, 0, 69, 81
2, 37412, Note_on_c, 0, 69, 0
2, 37440, Note_on_c, 0, 71, 79
2, 37452, Note_on_c, 0, 71, 0
2, 37452, Note_on_c, 0, 73, 79
2, 37464, Note_on_c, 0, 73, 0
2, 37464, Note_on_c, 0, 71, 79
2, 37485, Note_on_c, 0, 71, 0
2, 37488, Note_on_c, 0, 69, 77
2, 37533, Note_on_c, 0, 69, 0
2, 37584, Note_on_c, 0, 57, 75
2, 37596, Note_on_c, 0, 57, 0
2, 37596, Note_on_c, 0, 62, 75
2, 37608, Note_on_c, 0, 62, 0
2, 37608, Note_on_c, 0, 66, 76
2, 37620, Note_on_c, 0, 66, 0
2, 37620, Note_on_c, 0, 69, 77
2, 37632, Note_on_c, 0, 69, 0
2, 37632, Note_on_c, 0, 66, 78
2, 37680, Note_on_c, 0, 66, 0
2, 37680, Note_on_c, 0, 62, 84
2, 37725, Note_on_c, 0, 62, 0
2, 37728, Note_on_c, 0, 81, 82
2, 37728, Note_on_c, 0, 78, 82
2, 37748, Note_on_c, 0, 81, 0
2, 37748, Note_on_c, 0, 78, 0
2, 37776, Note_on_c, 0, 78, 80
2, 37776, Note_on_c, 0, 74, 80
2, 37796, Note_on_c, 0, 78, 0
2, 37796, Note_on_c, 0, 74, 0
2, 37824, Note_on_c, 0, 79, 78
2, 37836, Note_on_c, 0, 79, 0
2, 37836, Note_on_c, 0, 81, 78
2, 37848, Note_on_c, 0, 81, 0
2, 37848, Note_on_c, 0, 79, 78
2, 37869, Note_on_c, 0, 79, 0
2, 37872, Note_on_c, 0, 78, 76
2, 37917, Note_on_c, 0, 78, 0
2, 37968, Note_on_c, 0, 74, 75
2, 37980, Note_on_c, 0, 74, 0
2, 37980, Note_on_c, 0, 78, 75
2, 37992, Note_on_c, 0, 78, 0
2, 37992, Note_on_c, 0, 81, 75
2, 38004, Note_on_c, 0, 81, 0
2, 38004, Note_on_c, 0, 86, 75
2, 38016, Note_on_c, 0, 86, 0
2, 38016, Note_on_c, 0, 72, 75
2, 38156, Note_on_c, 0, 72, 0
2, 38160, Note_on_c, 0, 84, 75
2, 38172, Note_on_c, 0, 84, 0
2, 38172, Note_on_c, 0, 81, 75
2, 38184, Note_on_c, 0, 81, 0
2, 38184, Note_on_c, 0, 78, 75
2, 38196, Note_on_c, 0, 78, 0
2, 38196, Note_on_c, 0, 72, 75
2, 38208, Note_on_c, 0, 72, 0
2, 38208, Note_on_c, 0, 71, 75
2, 38348, Note_on_c, 0, 71, 0
2, 38352, Note_on_c, 0, 71, 75
2, 38364, Note_on_c, 0, 71, 0
2, 38364, Note_on_c, 0, 74, 75
2, 38376, Note_on_c, 0, 74, 0
2, 38376, Note_on_c, 0, 79, 75
2, 38388, Note_on_c, 0, 79, 0
2, 38388, Note_on_c, 0, 83, 75
2, 38400, Note_on_c, 0, 83, 0
2, 38400, Note_on_c, 0, 81, 75
2, 38400, Note_on_c, 0, 78, 75
2, 38420, Note_on_c, 0, 81, 0
2, 38420, Note_on_c, 0, 78, 0
2, 38448, Note_on_c, 0, 78, 75
2, 38448, Note_on_c, 0, 74, 75
2, 38468, Note_on_c, 0, 78, 0
2, 38468, Note_on_c, 0, 74, 0
2, 38496, Note_on_c, 0, 79, 75
2, 38496, Note_on_c, 0, 76, 75
2, 38516, Note_on_c, 0, 79, 0
2, 38516, Note_on_c, 0, 76, 0
2, 38544, Note_on_c, 0, 76, 75
2, 38544, Note_on_c, 0, 73, 75
2, 38564, Note_on_c, 0, 76, 0
2, 38564, Note_on_c, 0, 73, 0
2, 38592, Note_on_c, 0, 76, 75
2, 38592, Note_on_c, 0, 73, 75
2, 38688, Note_on_c, 0, 76, 0
2, 38688, Note_on_c, 0, 73, 0
2, 38688, Note_on_c, 0, 78, 75
2, 38688, Note_on_c, 0, 74, 75
2, 38733, Note_on_c, 0, 78, 0
2, 38733, Note_on_c, 0, 74, 0
2, 38736, Note_on_c, 0, 74, 75
2, 38748, Note_on_c, 0, 74, 0
2, 38748, Note_on_c, 0, 78, 75
2, 38760, Note_on_c, 0, 78, 0
2, 38760, Note_on_c, 0, 81, 75
2, 38772, Note_on_c, 0, 81, 0
2, 38772, Note_on_c, 0, 86, 75
2, 38784, Note_on_c, 0, 86, 0
2, 38784, Note_on_c, 0, 72, 75
2, 38924, Note_on_c, 0, 72, 0
2, 38928, Note_on_c, 0, 84, 75
2, 38940, Note_on_c, 0, 84, 0
2, 38940, Note_on_c, 0, 81, 75
2, 38952, Note_on_c, 0, 81, 0
2, 38952, Note_on_c, 0, 78, 75
2, 38964, Note_on_c, 0, 78, 0
2, 38964, Note_on_c, 0, 72, 75
2, 38976, Note_on_c, 0, 72, 0
2, 38976, Note_on_c, 0, 71, 75
2, 39116, Note_on_c, 0, 71, 0
2, 39120, Note_on_c, 0, 83, 75
2, 39135, Note_on_c, 0, 83, 0
2, 39136, Note_on_c, 0, 85, 75
2, 39151, Note_on_c, 0, 85, 0
2, 39152, Note_on_c, 0, 86, 75
2, 39167, Note_on_c, 0, 86, 0
2, 39168, Note_on_c, 0, 85, 91
2, 39184, Note_on_c, 0, 85, 0
2, 39184, Note_on_c, 0, 83, 75
2, 39199, Note_on_c, 0, 83, 0
2, 39200, Note_on_c, 0, 81, 75
2, 39215, Note_on_c, 0, 81, 0
2, 39216, Note_on_c, 0, 79, 75
2, 39231, Note_on_c, 0, 79, 0
2, 39232, Note_on_c, 0, 78, 75
2, 39247, Note_on_c, 0, 78, 0
2, 39248, Note_on_c, 0, 76, 75
2, 39263, Note_on_c, 0, 76, 0
2, 39264, Note_on_c, 0, 74, 75
2, 39279, Note_on_c, 0, 74, 0
2, 39280, Note_on_c, 0, 73, 75
2, 39295, Note_on_c, 0, 73, 0
2, 39296, Note_on_c, 0, 71, 75
2, 39311, Note_on_c, 0, 71, 0
2, 39312, Note_on_c, 0, 69, 75
2, 39324, Note_on_c, 0, 69, 0
2, 39324, Note_on_c, 0, 67, 75
2, 39336, Note_on_c, 0, 67, 0
2, 39336, Note_on_c, 0, 66, 75
2, 39348, Note_on_c, 0, 66, 0
2, 39348, Note_on_c, 0, 64, 75
2, 39360, Note_on_c, 0, 64, 0
2, 39360, Note_on_c, 0, 62, 91
2, 39456, Note_on_c, 0, 62, 0
2, 39504, Note_on_c, 0, 57, 85
2, 39552, Note_on_c, 0, 57, 0
2, 39552, Note_on_c, 0, 62, 70
2, 39576, Note_on_c, 0, 62, 0
2, 39576, Note_on_c, 0, 61, 70
2, 39599, Note_on_c, 0, 61, 0
2, 39600, Note_on_c, 0, 64, 71
2, 39624, Note_on_c, 0, 64, 0
2, 39624, Note_on_c, 0, 62, 72
2, 39647, Note_on_c, 0, 62, 0
2, 39648, Note_on_c, 0, 66, 72
2, 39672, Note_on_c, 0, 66, 0
2, 39672, Note_on_c, 0, 64, 73
2, 39695, Note_on_c, 0, 64, 0
2, 39696, Note_on_c, 0, 67, 73
2, 39720, Note_on_c, 0, 67, 0
2, 39720, Note_on_c, 0, 66, 74
2, 39743, Note_on_c, 0, 66, 0
2, 39744, Note_on_c, 0, 66, 75
2, 39744, Note_on_c, 0, 62, 75
2, 39840, Note_on_c, 0, 66, 0
2, 39840, Note_on_c, 0, 62, 0
2, 39840, Note_on_c, 0, 64, 75
2, 39840, Note_on_c, 0, 61, 75
2, 39885, Note_on_c, 0, 64, 0
2, 39885, Note_on_c, 0, 61, 0
2, 39888, Note_on_c, 0, 57, 91
2, 39936, Note_on_c, 0, 57, 0
2, 39936, Note_on_c, 0, 64, 73
2, 39960, Note_on_c, 0, 64, 0
2, 39960, Note_on_c, 0, 63, 73
2, 39983, Note_on_c, 0, 63, 0
2, 39984, Note_on_c, 0, 66, 72
2, 40008, Note_on_c, 0, 66, 0
2, 40008, Note_on_c, 0, 64, 72
2, 40031, Note_on_c, 0, 64, 0
2, 40032, Note_on_c, 0, 67, 71
2, 40056, Note_on_c, 0, 67, 0
2, 40056, Note_on_c, 0, 66, 70
2, 40079, Note_on_c, 0, 66, 0
2, 40080, Note_on_c, 0, 69, 70
2, 40104, Note_on_c, 0, 69, 0
2, 40104, Note_on_c, 0, 67, 69
2, 40127, Note_on_c, 0, 67, 0
2, 40128, Note_on_c, 0, 67, 69
2, 40128, Note_on_c, 0, 64, 69
2, 40224, Note_on_c, 0, 67, 0
2, 40224, Note_on_c, 0, 64, 0
2, 40224, Note_on_c, 0, 66, 69
2, 40224, Note_on_c, 0, 62, 69
2, 40269, Note_on_c, 0, 66, 0
2, 40269, Note_on_c, 0, 62, 0
2, 40272, Note_on_c, 0, 62, 85
2, 40320, Note_on_c, 0, 62, 0
2, 40320, Note_on_c, 0, 67, 70
2, 40344, Note_on_c, 0, 67, 0
2, 40344, Note_on_c, 0, 66, 70
2, 40367, Note_on_c, 0, 66, 0
2, 40368, Note_on_c, 0, 69, 71
2, 40392, Note_on_c, 0, 69, 0
2, 40392, Note_on_c, 0, 67, 72
2, 40415, Note_on_c, 0, 67, 0
2, 40416, Note_on_c, 0, 71, 72
2, 40440, Note_on_c, 0, 71, 0
2, 40440, Note_on_c, 0, 69, 73
2, 40463, Note_on_c, 0, 69, 0
2, 40464, Note_on_c, 0, 74, 73
2, 40488, Note_on_c, 0, 74, 0
2, 40488, Note_on_c, 0, 73, 74
2, 40511, Note_on_c, 0, 73, 0
2, 40512, Note_on_c, 0, 71, 75
2, 40532, Note_on_c, 0, 71, 0
2, 40560, Note_on_c, 0, 71, 75
2, 40584, Note_on_c, 0, 71, 0
2, 40584, Note_on_c, 0, 74, 75
2, 40607, Note_on_c, 0, 74, 0
2, 40608, Note_on_c, 0, 69, 75
2, 40628, Note_on_c, 0, 69, 0
2, 40704, Note_on_c, 0, 69, 75
2, 40710, Note_on_c, 0, 69, 0
2, 40710, Note_on_c, 0, 67, 75
2, 40716, Note_on_c, 0, 67, 0
2, 40716, Note_on_c, 0, 66, 75
2, 40722, Note_on_c, 0, 66, 0
2, 40722, Note_on_c, 0, 67, 75
2, 40749, Note_on_c, 0, 67, 0
2, 40752, Note_on_c, 0, 67, 75
2, 40776, Note_on_c, 0, 67, 0
2, 40776, Note_on_c, 0, 71, 75
2, 40799, Note_on_c, 0, 71, 0
2, 40800, Note_on_c, 0, 66, 75
2, 40820, Note_on_c, 0, 66, 0
2, 40896, Note_on_c, 0, 73, 75
2, 40902, Note_on_c, 0, 73, 0
2, 40902, Note_on_c, 0, 71, 75
2, 40908, Note_on_c, 0, 71, 0
2, 40908, Note_on_c, 0, 69, 75
2, 40914, Note_on_c, 0, 69, 0
2, 40914, Note_on_c, 0, 71, 75
2, 40941, Note_on_c, 0, 71, 0
2, 40944, Note_on_c, 0, 71, 75
2, 40968, Note_on_c, 0, 71, 0
2, 40968, Note_on_c, 0, 74, 75
2, 40991, Note_on_c, 0, 74, 0
2, 40992, Note_on_c, 0, 69, 75
2, 41012, Note_on_c, 0, 69, 0
2, 41088, Note_on_c, 0, 69, 75
2, 41094, Note_on_c, 0, 69, 0
2, 41094, Note_on_c, 0, 67, 75
2, 41100, Note_on_c, 0, 67, 0
2, 41100, Note_on_c, 0, 66, 75
2, 41106, Note_on_c, 0, 66, 0
2, 41106, Note_on_c, 0, 67, 75
2, 41133, Note_on_c, 0, 67, 0
2, 41136, Note_on_c, 0, 67, 75
2, 41160, Note_on_c, 0, 67, 0
2, 41160, Note_on_c, 0, 71, 75
2, 41183, Note_on_c, 0, 71, 0
2, 41184, Note_on_c, 0, 66, 75
2, 41204, Note_on_c, 0, 66, 0
2, 41280, Note_on_c, 0, 63, 75
2, 41303, Note_on_c, 0, 63, 0
2, 41304, Note_on_c, 0, 64, 77
2, 41327, Note_on_c, 0, 64, 0
2, 41328, Note_on_c, 0, 66, 79
2, 41351, Note_on_c, 0, 66, 0
2, 41352, Note_on_c, 0, 67, 81
2, 41375, Note_on_c, 0, 67, 0
2, 41376, Note_on_c, 0, 69, 84
2, 41399, Note_on_c, 0, 69, 0
2, 41400, Note_on_c, 0, 71, 81
2, 41423, Note_on_c, 0, 71, 0
2, 41424, Note_on_c, 0, 67, 79
2, 41447, Note_on_c, 0, 67, 0
2, 41448, Note_on_c, 0, 64, 77
2, 41471, Note_on_c, 0, 64, 0
2, 41472, Note_on_c, 0, 62, 75
2, 41664, Note_on_c, 0, 62, 0
2, 41664, Note_on_c, 0, 61, 63
2, 41684, Note_on_c, 0, 61, 0
2, 41808, Note_on_c, 0, 57, 84
2, 41820, Note_on_c, 0, 57, 0
2, 41820, Note_on_c, 0, 61, 84
2, 41832, Note_on_c, 0, 61, 0
2, 41832, Note_on_c, 0, 64, 84
2, 41844, Note_on_c, 0, 64, 0
2, 41844, Note_on_c, 0, 67, 84
2, 41856, Note_on_c, 0, 67, 0
2, 41856, Note_on_c, 0, 64, 84
2, 41901, Note_on_c, 0, 64, 0
2, 41904, Note_on_c, 0, 64, 84
2, 41916, Note_on_c, 0, 64, 0
2, 41916, Note_on_c, 0, 67, 84
2, 41928, Note_on_c, 0, 67, 0
2, 41928, Note_on_c, 0, 73, 84
2, 41940, Note_on_c, 0, 73, 0
2, 41940, Note_on_c, 0, 76, 84
2, 41952, Note_on_c, 0, 76, 0
2, 41952, Note_on_c, 0, 73, 84
2, 41997, Note_on_c, 0, 73, 0
2, 42000, Note_on_c, 0, 67, 84
2, 42012, Note_on_c, 0, 67, 0
2, 42012, Note_on_c, 0, 73, 84
2, 42024, Note_on_c, 0, 73, 0
2, 42024, Note_on_c, 0, 76, 84
2, 42036, Note_on_c, 0, 76, 0
2, 42036, Note_on_c, 0, 79, 84
2, 42048, Note_on_c, 0, 79, 0
2, 42048, Note_on_c, 0, 76, 84
2, 42093, Note_on_c, 0, 76, 0
2, 42192, Note_on_c, 0, 67, 75
2, 42204, Note_on_c, 0, 67, 0
2, 42204, Note_on_c, 0, 64, 75
2, 42216, Note_on_c, 0, 64, 0
2, 42216, Note_on_c, 0, 61, 75
2, 42228, Note_on_c, 0, 61, 0
2, 42228, Note_on_c, 0, 57, 75
2, 42240, Note_on_c, 0, 57, 0
2, 42240, Note_on_c, 0, 55, 75
2, 42417, Note_on_c, 0, 55, 0
2, 42432, Note_on_c, 0, 54, 75
2, 42455, Note_on_c, 0, 54, 0
2, 42456, Note_on_c, 0, 62, 75
2, 42479, Note_on_c, 0, 62, 0
2, 42480, Note_on_c, 0, 61, 75
2, 42503, Note_on_c, 0, 61, 0
2, 42504, Note_on_c, 0, 62, 75
2, 42527, Note_on_c, 0, 62, 0
2, 42528, Note_on_c, 0, 64, 75
2, 42551, Note_on_c, 0, 64, 0
2, 42552, Note_on_c, 0, 62, 75
2, 42575, Note_on_c, 0, 62, 0
2, 42576, Note_on_c, 0, 61, 75
2, 42599, Note_on_c, 0, 61, 0
2, 42600, Note_on_c, 0, 62, 75
2, 42623, Note_on_c, 0, 62, 0
2, 42624, Note_on_c, 0, 60, 75
2, 42801, Note_on_c, 0, 60, 0
2, 42816, Note_on_c, 0, 59, 75
2, 42839, Note_on_c, 0, 59, 0
2, 42840, Note_on_c, 0, 64, 75
2, 42863, Note_on_c, 0, 64, 0
2, 42864, Note_on_c, 0, 63, 75
2, 42887, Note_on_c, 0, 63, 0
2, 42888, Note_on_c, 0, 64, 75
2, 42911, Note_on_c, 0, 64, 0
2, 42912, Note_on_c, 0, 66, 75
2, 42935, Note_on_c, 0, 66, 0
2, 42936, Note_on_c, 0, 64, 75
2, 42959, Note_on_c, 0, 64, 0
2, 42960, Note_on_c, 0, 63, 75
2, 42983, Note_on_c, 0, 63, 0
2, 42984, Note_on_c, 0, 64, 75
2, 43007, Note_on_c, 0, 64, 0
2, 43008, Note_on_c, 0, 62, 75
2, 43185, Note_on_c, 0, 62, 0
2, 43200, Note_on_c, 0, 61, 75
2, 43223, Note_on_c, 0, 61, 0
2, 43224, Note_on_c, 0, 69, 75
2, 43247, Note_on_c, 0, 69, 0
2, 43248, Note_on_c, 0, 68, 75
2, 43271, Note_on_c, 0, 68, 0
2, 43272, Note_on_c, 0, 69, 75
2, 43295, Note_on_c, 0, 69, 0
2, 43296, Note_on_c, 0, 71, 75
2, 43319, Note_on_c, 0, 71, 0
2, 43320, Note_on_c, 0, 69, 75
2, 43343, Note_on_c, 0, 69, 0
2, 43344, Note_on_c, 0, 68, 75
2, 43367, Note_on_c, 0, 68, 0
2, 43368, Note_on_c, 0, 69, 75
2, 43391, Note_on_c, 0, 69, 0
2, 43392, Note_on_c, 0, 68, 75
2, 43437, Note_on_c, 0, 68, 0
2, 43440, Note_on_c, 0, 74, 75
2, 43485, Note_on_c, 0, 74, 0
2, 43536, Note_on_c, 0, 68, 75
2, 43584, Note_on_c, 0, 68, 0
2, 43584, Note_on_c, 0, 69, 75
2, 43604, Note_on_c, 0, 69, 0
2, 43632, Note_on_c, 0, 69, 75
2, 43656, Note_on_c, 0, 69, 0
2, 43656, Note_on_c, 0, 76, 75
2, 43679, Note_on_c, 0, 76, 0
2, 43680, Note_on_c, 0, 69, 75
2, 43725, Note_on_c, 0, 69, 0
2, 43728, Note_on_c, 0, 69, 75
2, 43776, Note_on_c, 0, 69, 0
2, 43776, Note_on_c, 0, 68, 75
2, 43821, Note_on_c, 0, 68, 0
2, 43824, Note_on_c, 0, 74, 75
2, 43869, Note_on_c, 0, 74, 0
2, 43920, Note_on_c, 0, 68, 75
2, 43968, Note_on_c, 0, 68, 0
2, 43968, Note_on_c, 0, 69, 75
2, 43988, Note_on_c, 0, 69, 0
2, 44016, Note_on_c, 0, 69, 75
2, 44040, Note_on_c, 0, 69, 0
2, 44040, Note_on_c, 0, 76, 75
2, 44063, Note_on_c, 0, 76, 0
2, 44064, Note_on_c, 0, 69, 75
2, 44109, Note_on_c, 0, 69, 0
2, 44112, Note_on_c, 0, 67, 75
2, 44118, Note_on_c, 0, 67, 0
2, 44118, Note_on_c, 0, 69, 75
2, 44124, Note_on_c, 0, 69, 0
2, 44124, Note_on_c, 0, 67, 75
2, 44157, Note_on_c, 0, 67, 0
2, 44160, Note_on_c, 0, 66, 75
2, 44205, Note_on_c, 0, 66, 0
2, 44208, Note_on_c, 0, 81, 75
2, 44253, Note_on_c, 0, 81, 0
2, 44304, Note_on_c, 0, 74, 75
2, 44352, Note_on_c, 0, 74, 0
2, 44352, Note_on_c, 0, 73, 75
2, 44372, Note_on_c, 0, 73, 0
2, 44400, Note_on_c, 0, 73, 75
2, 44424, Note_on_c, 0, 73, 0
2, 44424, Note_on_c, 0, 81, 75
2, 44447, Note_on_c, 0, 81, 0
2, 44448, Note_on_c, 0, 73, 75
2, 44468, Note_on_c, 0, 73, 0
2, 44496, Note_on_c, 0, 73, 75
2, 44544, Note_on_c, 0, 73, 0
2, 44544, Note_on_c, 0, 74, 75
2, 44564, Note_on_c, 0, 74, 0
2, 44592, Note_on_c, 0, 74, 75
2, 44616, Note_on_c, 0, 74, 0
2, 44616, Note_on_c, 0, 81, 75
2, 44639, Note_on_c, 0, 81, 0
2, 44640, Note_on_c, 0, 74, 75
2, 44660, Note_on_c, 0, 74, 0
2, 44688, Note_on_c, 0, 74, 75
2, 44736, Note_on_c, 0, 74, 0
2, 44736, Note_on_c, 0, 76, 75
2, 44756, Note_on_c, 0, 76, 0
2, 44784, Note_on_c, 0, 76, 75
2, 44808, Note_on_c, 0, 76, 0
2, 44808, Note_on_c, 0, 81, 75
2, 44831, Note_on_c, 0, 81, 0
2, 44832, Note_on_c, 0, 76, 75
2, 44877, Note_on_c, 0, 76, 0
2, 44880, Note_on_c, 0, 79, 75
2, 44925, Note_on_c, 0, 79, 0
2, 44928, Note_on_c, 0, 78, 75
2, 44951, Note_on_c, 0, 78, 0
2, 44952, Note_on_c, 0, 79, 75
2, 44975, Note_on_c, 0, 79, 0
2, 44976, Note_on_c, 0, 81, 75
2, 44999, Note_on_c, 0, 81, 0
2, 45000, Note_on_c, 0, 78, 75
2, 45023, Note_on_c, 0, 78, 0
2, 45024, Note_on_c, 0, 76, 75
2, 45047, Note_on_c, 0, 76, 0
2, 45048, Note_on_c, 0, 74, 75
2, 45071, Note_on_c, 0, 74, 0
2, 45072, Note_on_c, 0, 73, 75
2, 45095, Note_on_c, 0, 73, 0
2, 45096, Note_on_c, 0, 71, 75
2, 45119, Note_on_c, 0, 71, 0
2, 45120, Note_on_c, 0, 69, 75
2, 45143, Note_on_c, 0, 69, 0
2, 45144, Note_on_c, 0, 68, 75
2, 45167, Note_on_c, 0, 68, 0
2, 45168, Note_on_c, 0, 69, 75
2, 45191, Note_on_c, 0, 69, 0
2, 45192, Note_on_c, 0, 71, 75
2, 45215, Note_on_c, 0, 71, 0
2, 45216, Note_on_c, 0, 69, 75
2, 45239, Note_on_c, 0, 69, 0
2, 45240, Note_on_c, 0, 67, 75
2, 45263, Note_on_c, 0, 67, 0
2, 45264, Note_on_c, 0, 66, 75
2, 45287, Note_on_c, 0, 66, 0
2, 45288, Note_on_c, 0, 64, 75
2, 45311, Note_on_c, 0, 64, 0
2, 45312, Note_on_c, 0, 66, 75
2, 45335, Note_on_c, 0, 66, 0
2, 45336, Note_on_c, 0, 67, 75
2, 45359, Note_on_c, 0, 67, 0
2, 45360, Note_on_c, 0, 69, 75
2, 45383, Note_on_c, 0, 69, 0
2, 45384, Note_on_c, 0, 66, 75
2, 45407, Note_on_c, 0, 66, 0
2, 45408, Note_on_c, 0, 64, 75
2, 45431, Note_on_c, 0, 64, 0
2, 45432, Note_on_c, 0, 62, 75
2, 45455, Note_on_c, 0, 62, 0
2, 45456, Note_on_c, 0, 61, 75
2, 45479, Note_on_c, 0, 61, 0
2, 45480, Note_on_c, 0, 59, 75
2, 45503, Note_on_c, 0, 59, 0
2, 45696, Note_on_c, 0, 78, 75
2, 45719, Note_on_c, 0, 78, 0
2, 45720, Note_on_c, 0, 79, 75
2, 45743, Note_on_c, 0, 79, 0
2, 45744, Note_on_c, 0, 81, 75
2, 45767, Note_on_c, 0, 81, 0
2, 45768, Note_on_c, 0, 78, 75
2, 45791, Note_on_c, 0, 78, 0
2, 45792, Note_on_c, 0, 76, 75
2, 45815, Note_on_c, 0, 76, 0
2, 45816, Note_on_c, 0, 74, 75
2, 45839, Note_on_c, 0, 74, 0
2, 45840, Note_on_c, 0, 73, 75
2, 45863, Note_on_c, 0, 73, 0
2, 45864, Note_on_c, 0, 74, 75
2, 45887, Note_on_c, 0, 74, 0
2, 45888, Note_on_c, 0, 83, 75
2, 45911, Note_on_c, 0, 83, 0
2, 45912, Note_on_c, 0, 85, 75
2, 45935, Note_on_c, 0, 85, 0
2, 45936, Note_on_c, 0, 86, 75
2, 45959, Note_on_c, 0, 86, 0
2, 45960, Note_on_c, 0, 83, 75
2, 45983, Note_on_c, 0, 83, 0
2, 45984, Note_on_c, 0, 81, 75
2, 46007, Note_on_c, 0, 81, 0
2, 46008, Note_on_c, 0, 79, 75
2, 46031, Note_on_c, 0, 79, 0
2, 46032, Note_on_c, 0, 78, 75
2, 46055, Note_on_c, 0, 78, 0
2, 46056, Note_on_c, 0, 76, 75
2, 46079, Note_on_c, 0, 76, 0
2, 46080, Note_on_c, 0, 75, 75
2, 46104, Note_on_c, 0, 75, 0
2, 46104, Note_on_c, 0, 76, 75
2, 46127, Note_on_c, 0, 76, 0
2, 46128, Note_on_c, 0, 78, 75
2, 46152, Note_on_c, 0, 78, 0
2, 46152, Note_on_c, 0, 76, 75
2, 46162, Note_on_c, 0, 76, 0
2, 46176, Note_on_c, 0, 79, 75
2, 46200, Note_on_c, 0, 79, 0
2, 46200, Note_on_c, 0, 78, 75
2, 46210, Note_on_c, 0, 78, 0
2, 46224, Note_on_c, 0, 81, 75
2, 46248, Note_on_c, 0, 81, 0
2, 46248, Note_on_c, 0, 79, 75
2, 46258, Note_on_c, 0, 79, 0
2, 46272, Note_on_c, 0, 83, 75
2, 46317, Note_on_c, 0, 83, 0
2, 46368, Note_on_c, 0, 81, 75
2, 46391, Note_on_c, 0, 81, 0
2, 46392, Note_on_c, 0, 79, 75
2, 46415, Note_on_c, 0, 79, 0
2, 46416, Note_on_c, 0, 78, 75
2, 46439, Note_on_c, 0, 78, 0
2, 46440, Note_on_c, 0, 76, 75
2, 46463, Note_on_c, 0, 76, 0
2, 46464, Note_on_c, 0, 74, 75
2, 46553, Note_on_c, 0, 74, 0
2, 46560, Note_on_c, 0, 76, 75
2, 46571, Note_on_c, 0, 76, 0
2, 46571, Note_on_c, 0, 78, 75
2, 46582, Note_on_c, 0, 78, 0
2, 46582, Note_on_c, 0, 76, 75
2, 46593, Note_on_c, 0, 76, 0
2, 46593, Note_on_c, 0, 78, 75
2, 46604, Note_on_c, 0, 78, 0
2, 46604, Note_on_c, 0, 76, 75
2, 46615, Note_on_c, 0, 76, 0
2, 46615, Note_on_c, 0, 78, 75
2, 46626, Note_on_c, 0, 78, 0
2, 46626, Note_on_c, 0, 76, 75
2, 46636, Note_on_c, 0, 76, 0
2, 46636, Note_on_c, 0, 74, 75
2, 46646, Note_on_c, 0, 74, 0
2, 46646, Note_on_c, 0, 76, 75
2, 46656, Note_on_c, 0, 76, 0
2, 46656, Note_on_c, 0, 78, 75
2, 46679, Note_on_c, 0, 78, 0
2, 46680, Note_on_c, 0, 79, 75
2, 46703, Note_on_c, 0, 79, 0
2, 46704, Note_on_c, 0, 81, 75
2, 46727, Note_on_c, 0, 81, 0
2, 46728, Note_on_c, 0, 78, 75
2, 46751, Note_on_c, 0, 78, 0
2, 46752, Note_on_c, 0, 76, 75
2, 46775, Note_on_c, 0, 76, 0
2, 46776, Note_on_c, 0, 74, 75
2, 46799, Note_on_c, 0, 74, 0
2, 46800, Note_on_c, 0, 73, 75
2, 46823, Note_on_c, 0, 73, 0
2, 46824, Note_on_c, 0, 74, 75
2, 46847, Note_on_c, 0, 74, 0
2, 46848, Note_on_c, 0, 83, 75
2, 46871, Note_on_c, 0, 83, 0
2, 46872, Note_on_c, 0, 85, 75
2, 46895, Note_on_c, 0, 85, 0
2, 46896, Note_on_c, 0, 86, 75
2, 46919, Note_on_c, 0, 86, 0
2, 46920, Note_on_c, 0, 85, 75
2, 46943, Note_on_c, 0, 85, 0
2, 46944, Note_on_c, 0, 83, 75
2, 46967, Note_on_c, 0, 83, 0
2, 46968, Note_on_c, 0, 81, 75
2, 46991, Note_on_c, 0, 81, 0
2, 46992, Note_on_c, 0, 79, 75
2, 47015, Note_on_c, 0, 79, 0
2, 47016, Note_on_c, 0, 78, 75
2, 47039, Note_on_c, 0, 78, 0
2, 47040, Note_on_c, 0, 76, 75
2, 47063, Note_on_c, 0, 76, 0
2, 47064, Note_on_c, 0, 78, 75
2, 47087, Note_on_c, 0, 78, 0
2, 47088, Note_on_c, 0, 79, 75
2, 47111, Note_on_c, 0, 79, 0
2, 47112, Note_on_c, 0, 76, 75
2, 47135, Note_on_c, 0, 76, 0
2, 47136, Note_on_c, 0, 74, 75
2, 47159, Note_on_c, 0, 74, 0
2, 47160, Note_on_c, 0, 73, 75
2, 47183, Note_on_c, 0, 73, 0
2, 47184, Note_on_c, 0, 71, 75
2, 47207, Note_on_c, 0, 71, 0
2, 47208, Note_on_c, 0, 73, 75
2, 47231, Note_on_c, 0, 73, 0
2, 47232, Note_on_c, 0, 81, 75
2, 47255, Note_on_c, 0, 81, 0
2, 47256, Note_on_c, 0, 83, 75
2, 47279, Note_on_c, 0, 83, 0
2, 47280, Note_on_c, 0, 85, 75
2, 47303, Note_on_c, 0, 85, 0
2, 47304, Note_on_c, 0, 83, 75
2, 47327, Note_on_c, 0, 83, 0
2, 47328, Note_on_c, 0, 81, 75
2, 47351, Note_on_c, 0, 81, 0
2, 47352, Note_on_c, 0, 79, 75
2, 47375, Note_on_c, 0, 79, 0
2, 47376, Note_on_c, 0, 78, 75
2, 47399, Note_on_c, 0, 78, 0
2, 47400, Note_on_c, 0, 76, 75
2, 47423, Note_on_c, 0, 76, 0
2, 47424, Note_on_c, 0, 74, 75
2, 47447, Note_on_c, 0, 74, 0
2, 47448, Note_on_c, 0, 76, 75
2, 47471, Note_on_c, 0, 76, 0
2, 47472, Note_on_c, 0, 78, 75
2, 47495, Note_on_c, 0, 78, 0
2, 47496, Note_on_c, 0, 74, 75
2, 47519, Note_on_c, 0, 74, 0
2, 47520, Note_on_c, 0, 73, 75
2, 47543, Note_on_c, 0, 73, 0
2, 47544, Note_on_c, 0, 71, 75
2, 47567, Note_on_c, 0, 71, 0
2, 47568, Note_on_c, 0, 70, 75
2, 47591, Note_on_c, 0, 70, 0
2, 47592, Note_on_c, 0, 71, 75
2, 47615, Note_on_c, 0, 71, 0
2, 47616, Note_on_c, 0, 79, 75
2, 47639, Note_on_c, 0, 79, 0
2, 47640, Note_on_c, 0, 81, 75
2, 47663, Note_on_c, 0, 81, 0
2, 47664, Note_on_c, 0, 83, 75
2, 47687, Note_on_c, 0, 83, 0
2, 47688, Note_on_c, 0, 81, 75
2, 47711, Note_on_c, 0, 81, 0
2, 47712, Note_on_c, 0, 79, 75
2, 47735, Note_on_c, 0, 79, 0
2, 47736, Note_on_c, 0, 78, 75
2, 47759, Note_on_c, 0, 78, 0
2, 47760, Note_on_c, 0, 76, 75
2, 47783, Note_on_c, 0, 76, 0
2, 47784, Note_on_c, 0, 74, 75
2, 47807, Note_on_c, 0, 74, 0
2, 47808, Note_on_c, 0, 73, 75
2, 47831, Note_on_c, 0, 73, 0
2, 47832, Note_on_c, 0, 74, 75
2, 47855, Note_on_c, 0, 74, 0
2, 47856, Note_on_c, 0, 76, 75
2, 47879, Note_on_c, 0, 76, 0
2, 47880, Note_on_c, 0, 74, 75
2, 47903, Note_on_c, 0, 74, 0
2, 47904, Note_on_c, 0, 73, 75
2, 47927, Note_on_c, 0, 73, 0
2, 47928, Note_on_c, 0, 71, 75
2, 47951, Note_on_c, 0, 71, 0
2, 47952, Note_on_c, 0, 69, 75
2, 47975, Note_on_c, 0, 69, 0
2, 47976, Note_on_c, 0, 67, 75
2, 47999, Note_on_c, 0, 67, 0
2, 48000, Note_on_c, 0, 66, 75
2, 48023, Note_on_c, 0, 66, 0
2, 48024, Note_on_c, 0, 67, 75
2, 48047, Note_on_c, 0, 67, 0
2, 48048, Note_on_c, 0, 69, 75
2, 48071, Note_on_c, 0, 69, 0
2, 48072, Note_on_c, 0, 66, 75
2, 48095, Note_on_c, 0, 66, 0
2, 48096, Note_on_c, 0, 64, 75
2, 48119, Note_on_c, 0, 64, 0
2, 48120, Note_on_c, 0, 62, 75
2, 48143, Note_on_c, 0, 62, 0
2, 48144, Note_on_c, 0, 61, 75
2, 48167, Note_on_c, 0, 61, 0
2, 48168, Note_on_c, 0, 62, 75
2, 48191, Note_on_c, 0, 62, 0
2, 48192, Note_on_c, 0, 71, 75
2, 48215, Note_on_c, 0, 71, 0
2, 48216, Note_on_c, 0, 73, 75
2, 48239, Note_on_c, 0, 73, 0
2, 48240, Note_on_c, 0, 74, 75
2, 48263, Note_on_c, 0, 74, 0
2, 48264, Note_on_c, 0, 71, 75
2, 48287, Note_on_c, 0, 71, 0
2, 48288, Note_on_c, 0, 69, 75
2, 48311, Note_on_c, 0, 69, 0
2, 48312, Note_on_c, 0, 67, 75
2, 48335, Note_on_c, 0, 67, 0
2, 48336, Note_on_c, 0, 66, 75
2, 48359, Note_on_c, 0, 66, 0
2, 48360, Note_on_c, 0, 64, 75
2, 48383, Note_on_c, 0, 64, 0
2, 48384, Note_on_c, 0, 63, 75
2, 48408, Note_on_c, 0, 63, 0
2, 48408, Note_on_c, 0, 64, 75
2, 48431, Note_on_c, 0, 64, 0
2, 48432, Note_on_c, 0, 66, 75
2, 48456, Note_on_c, 0, 66, 0
2, 48456, Note_on_c, 0, 64, 75
2, 48466, Note_on_c, 0, 64, 0
2, 48480, Note_on_c, 0, 67, 75
2, 48504, Note_on_c, 0, 67, 0
2, 48504, Note_on_c, 0, 66, 75
2, 48514, Note_on_c, 0, 66, 0
2, 48528, Note_on_c, 0, 69, 75
2, 48552, Note_on_c, 0, 69, 0
2, 48552, Note_on_c, 0, 67, 75
2, 48562, Note_on_c, 0, 67, 0
2, 48576, Note_on_c, 0, 71, 75
2, 48621, Note_on_c, 0, 71, 0
2, 48672, Note_on_c, 0, 79, 75
2, 48696, Note_on_c, 0, 79, 0
2, 48696, Note_on_c, 0, 78, 75
2, 48706, Note_on_c, 0, 78, 0
2, 48720, Note_on_c, 0, 81, 75
2, 48744, Note_on_c, 0, 81, 0
2, 48744, Note_on_c, 0, 79, 75
2, 48754, Note_on_c, 0, 79, 0
2, 48768, Note_on_c, 0, 83, 75
2, 48813, Note_on_c, 0, 83, 0
2, 48864, Note_on_c, 0, 55, 75
2, 48888, Note_on_c, 0, 55, 0
2, 48888, Note_on_c, 0, 54, 75
2, 48898, Note_on_c, 0, 54, 0
2, 48912, Note_on_c, 0, 57, 75
2, 48936, Note_on_c, 0, 57, 0
2, 48936, Note_on_c, 0, 55, 75
2, 48946, Note_on_c, 0, 55, 0
2, 48960, Note_on_c, 0, 59, 75
2, 49005, Note_on_c, 0, 59, 0
2, 49104, Note_on_c, 0, 63, 84
2, 49116, Note_on_c, 0, 63, 0
2, 49116, Note_on_c, 0, 75, 84
2, 49149, Note_on_c, 0, 75, 0
2, 49152, Note_on_c, 0, 64, 84
2, 49164, Note_on_c, 0, 64, 0
2, 49164, Note_on_c, 0, 76, 84
2, 49197, Note_on_c, 0, 76, 0
2, 49200, Note_on_c, 0, 66, 84
2, 49212, Note_on_c, 0, 66, 0
2, 49212, Note_on_c, 0, 78, 84
2, 49245, Note_on_c, 0, 78, 0
2, 49248, Note_on_c, 0, 67, 84
2, 49260, Note_on_c, 0, 67, 0
2, 49260, Note_on_c, 0, 79, 84
2, 49293, Note_on_c, 0, 79, 0
2, 49296, Note_on_c, 0, 70, 84
2, 49308, Note_on_c, 0, 70, 0
2, 49308, Note_on_c, 0, 82, 84
2, 49341, Note_on_c, 0, 82, 0
2, 49344, Note_on_c, 0, 71, 84
2, 49356, Note_on_c, 0, 71, 0
2, 49356, Note_on_c, 0, 83, 84
2, 49389, Note_on_c, 0, 83, 0
2, 49392, Note_on_c, 0, 73, 84
2, 49404, Note_on_c, 0, 73, 0
2, 49404, Note_on_c, 0, 85, 84
2, 49437, Note_on_c, 0, 85, 0
2, 49440, Note_on_c, 0, 74, 84
2, 49452, Note_on_c, 0, 74, 0
2, 49452, Note_on_c, 0, 86, 84
2, 49485, Note_on_c, 0, 86, 0
2, 49488, Note_on_c, 0, 68, 84
2, 49500, Note_on_c, 0, 68, 0
2, 49500, Note_on_c, 0, 80, 84
2, 49533, Note_on_c, 0, 80, 0
2, 49536, Note_on_c, 0, 69, 84
2, 49548, Note_on_c, 0, 69, 0
2, 49548, Note_on_c, 0, 81, 84
2, 49669, Note_on_c, 0, 81, 0
2, 49680, Note_on_c, 0, 79, 84
2, 49692, Note_on_c, 0, 79, 0
2, 49692, Note_on_c, 0, 78, 84
2, 49704, Note_on_c, 0, 78, 0
2, 49704, Note_on_c, 0, 76, 84
2, 49716, Note_on_c, 0, 76, 0
2, 49716, Note_on_c, 0, 74, 84
2, 49728, Note_on_c, 0, 74, 0
2, 49728, Note_on_c, 0, 76, 84
2, 49740, Note_on_c, 0, 76, 0
2, 49741, Note_on_c, 0, 78, 84
2, 49753, Note_on_c, 0, 78, 0
2, 49754, Note_on_c, 0, 76, 84
2, 49766, Note_on_c, 0, 76, 0
2, 49767, Note_on_c, 0, 78, 84
2, 49779, Note_on_c, 0, 78, 0
2, 49780, Note_on_c, 0, 76, 84
2, 49792, Note_on_c, 0, 76, 0
2, 49793, Note_on_c, 0, 78, 84
2, 49805, Note_on_c, 0, 78, 0
2, 49806, Note_on_c, 0, 76, 84
2, 49818, Note_on_c, 0, 76, 0
2, 49819, Note_on_c, 0, 78, 84
2, 49831, Note_on_c, 0, 78, 0
2, 49832, Note_on_c, 0, 76, 84
2, 49844, Note_on_c, 0, 76, 0
2, 49845, Note_on_c, 0, 78, 84
2, 49857, Note_on_c, 0, 78, 0
2, 49858, Note_on_c, 0, 76, 84
2, 49870, Note_on_c, 0, 76, 0
2, 49871, Note_on_c, 0, 74, 84
2, 49896, Note_on_c, 0, 74, 0
2, 49896, Note_on_c, 0, 76, 84
2, 49920, Note_on_c, 0, 76, 0
2, 49920, Note_on_c, 0, 74, 84
2, 50009, Note_on_c, 0, 74, 0
2, 50064, Note_on_c, 0, 69, 84
2, 50109, Note_on_c, 0, 69, 0
2, 50112, Note_on_c, 0, 71, 84
2, 50124, Note_on_c, 0, 71, 0
2, 50124, Note_on_c, 0, 73, 84
2, 50136, Note_on_c, 0, 73, 0
2, 50136, Note_on_c, 0, 71, 84
2, 50157, Note_on_c, 0, 71, 0
2, 50160, Note_on_c, 0, 69, 84
2, 50205, Note_on_c, 0, 69, 0
2, 50208, Note_on_c, 0, 71, 84
2, 50220, Note_on_c, 0, 71, 0
2, 50220, Note_on_c, 0, 73, 84
2, 50232, Note_on_c, 0, 73, 0
2, 50232, Note_on_c, 0, 71, 84
2, 50253, Note_on_c, 0, 71, 0
2, 50256, Note_on_c, 0, 69, 84
2, 50301, Note_on_c, 0, 69, 0
2, 50304, Note_on_c, 0, 69, 100
2, 50316, Note_on_c, 0, 73, 100
2, 50328, Note_on_c, 0, 76, 100
2, 50340, Note_on_c, 0, 79, 100
2, 50400, Note_on_c, 0, 79, 0
2, 50400, Note_on_c, 0, 76, 0
2, 50400, Note_on_c, 0, 73, 0
2, 50400, Note_on_c, 0, 69, 0
2, 50448, Note_on_c, 0, 78, 84
2, 50493, Note_on_c, 0, 78, 0
2, 50496, Note_on_c, 0, 78, 84
2, 50508, Note_on_c, 0, 78, 0
2, 50508, Note_on_c, 0, 76, 84
2, 50520, Note_on_c, 0, 76, 0
2, 50520, Note_on_c, 0, 75, 84
2, 50532, Note_on_c, 0, 75, 0
2, 50532, Note_on_c, 0, 76, 84
2, 50544, Note_on_c, 0, 76, 0
2, 50544, Note_on_c, 0, 79, 84
2, 50589, Note_on_c, 0, 79, 0
2, 50592, Note_on_c, 0, 71, 84
2, 50604, Note_on_c, 0, 71, 0
2, 50604, Note_on_c, 0, 69, 84
2, 50616, Note_on_c, 0, 69, 0
2, 50616, Note_on_c, 0, 68, 84
2, 50628, Note_on_c, 0, 68, 0
2, 50628, Note_on_c, 0, 69, 84
2, 50640, Note_on_c, 0, 69, 0
2, 50640, Note_on_c, 0, 73, 84
2, 50640, Note_on_c, 0, 67, 84
2, 50685, Note_on_c, 0, 73, 0
2, 50685, Note_on_c, 0, 67, 0
2, 50688, Note_on_c, 0, 74, 84
2, 50688, Note_on_c, 0, 66, 84
2, 50777, Note_on_c, 0, 74, 0
2, 50777, Note_on_c, 0, 66, 0
2, 50832, Note_on_c, 0, 69, 84
2, 50877, Note_on_c, 0, 69, 0
2, 50880, Note_on_c, 0, 71, 84
2, 50892, Note_on_c, 0, 71, 0
2, 50892, Note_on_c, 0, 73, 84
2, 50904, Note_on_c, 0, 73, 0
2, 50904, Note_on_c, 0, 71, 84
2, 50925, Note_on_c, 0, 71, 0
2, 50928, Note_on_c, 0, 69, 84
2, 50973, Note_on_c, 0, 69, 0
2, 50976, Note_on_c, 0, 71, 84
2, 50988, Note_on_c, 0, 71, 0
2, 50988, Note_on_c, 0, 73, 84
2, 51000, Note_on_c, 0, 73, 0
2, 51000, Note_on_c, 0, 71, 84
2, 51021, Note_on_c, 0, 71, 0
2, 51024, Note_on_c, 0, 69, 84
2, 51069, Note_on_c, 0, 69, 0
2, 51072, Note_on_c, 0, 69, 100
2, 51084, Note_on_c, 0, 73, 100
2, 51096, Note_on_c, 0, 76, 100
2, 51108, Note_on_c, 0, 79, 100
2, 51168, Note_on_c, 0, 79, 0
2, 51168, Note_on_c, 0, 76, 0
2, 51168, Note_on_c, 0, 73, 0
2, 51168, Note_on_c, 0, 69, 0
2, 51216, Note_on_c, 0, 78, 84
2, 51261, Note_on_c, 0, 78, 0
2, 51264, Note_on_c, 0, 78, 84
2, 51276, Note_on_c, 0, 78, 0
2, 51276, Note_on_c, 0, 76, 84
2, 51288, Note_on_c, 0, 76, 0
2, 51288, Note_on_c, 0, 75, 84
2, 51300, Note_on_c, 0, 75, 0
2, 51300, Note_on_c, 0, 76, 84
2, 51312, Note_on_c, 0, 76, 0
2, 51312, Note_on_c, 0, 79, 84
2, 51357, Note_on_c, 0, 79, 0
2, 51360, Note_on_c, 0, 71, 84
2, 51372, Note_on_c, 0, 71, 0
2, 51372, Note_on_c, 0, 69, 84
2, 51384, Note_on_c, 0, 69, 0
2, 51384, Note_on_c, 0, 68, 84
2, 51396, Note_on_c, 0, 68, 0
2, 51396, Note_on_c, 0, 69, 84
2, 51408, Note_on_c, 0, 69, 0
2, 51408, Note_on_c, 0, 73, 84
2, 51408, Note_on_c, 0, 67, 84
2, 51453, Note_on_c, 0, 73, 0
2, 51453, Note_on_c, 0, 67, 0
2, 51456, Note_on_c, 0, 74, 84
2, 51456, Note_on_c, 0, 66, 84
2, 51501, Note_on_c, 0, 74, 0
2, 51501, Note_on_c, 0, 66, 0
2, 51576, Note_on_c, 0, 57, 81
2, 51599, Note_on_c, 0, 57, 0
2, 51600, Note_on_c, 0, 61, 78
2, 51623, Note_on_c, 0, 61, 0
2, 51624, Note_on_c, 0, 69, 76
2, 51647, Note_on_c, 0, 69, 0
2, 51672, Note_on_c, 0, 57, 71
2, 51695, Note_on_c, 0, 57, 0
2, 51696, Note_on_c, 0, 62, 68
2, 51719, Note_on_c, 0, 62, 0
2, 51720, Note_on_c, 0, 69, 65
2, 51743, Note_on_c, 0, 69, 0
2, 51768, Note_on_c, 0, 52, 60
2, 51791, Note_on_c, 0, 52, 0
2, 51792, Note_on_c, 0, 55, 58
2, 51815, Note_on_c, 0, 55, 0
2, 51816, Note_on_c, 0, 61, 55
2, 51839, Note_on_c, 0, 61, 0
2, 51840, Note_on_c, 0, 62, 53
2, 51840, Note_on_c, 0, 54, 53
2, 51929, Note_on_c, 0, 62, 0
2, 51929, Note_on_c, 0, 54, 0
2, 52320, Note_on_c, 0, 55, 75
2, 52332, Note_on_c, 0, 55, 0
2, 52332, Note_on_c, 0, 54, 75
2, 52344, Note_on_c, 0, 54, 0
2, 52344, Note_on_c, 0, 53, 75
2, 52356, Note_on_c, 0, 53, 0
2, 52356, Note_on_c, 0, 54, 75
2, 52368, Note_on_c, 0, 54, 0
2, 52368, Note_on_c, 0, 58, 75
2, 52413, Note_on_c, 0, 58, 0
2, 52416, Note_on_c, 0, 61, 75
2, 52428, Note_on_c, 0, 61, 0
2, 52428, Note_on_c, 0, 59, 75
2, 52440, Note_on_c, 0, 59, 0
2, 52440, Note_on_c, 0, 58, 75
2, 52452, Note_on_c, 0, 58, 0
2, 52452, Note_on_c, 0, 59, 75
2, 52464, Note_on_c, 0, 59, 0
2, 52464, Note_on_c, 0, 62, 75
2, 52509, Note_on_c, 0, 62, 0
2, 52512, Note_on_c, 0, 62, 75
2, 52524, Note_on_c, 0, 62, 0
2, 52524, Note_on_c, 0, 61, 75
2, 52536, Note_on_c, 0, 61, 0
2, 52536, Note_on_c, 0, 59, 75
2, 52548, Note_on_c, 0, 59, 0
2, 52548, Note_on_c, 0, 61, 75
2, 52560, Note_on_c, 0, 61, 0
2, 52560, Note_on_c, 0, 64, 75
2, 52605, Note_on_c, 0, 64, 0
2, 52608, Note_on_c, 0, 64, 75
2, 52620, Note_on_c, 0, 64, 0
2, 52620, Note_on_c, 0, 62, 75
2, 52632, Note_on_c, 0, 62, 0
2, 52632, Note_on_c, 0, 61, 75
2, 52644, Note_on_c, 0, 61, 0
2, 52644, Note_on_c, 0, 62, 75
2, 52656, Note_on_c, 0, 62, 0
2, 52656, Note_on_c, 0, 66, 75
2, 52701, Note_on_c, 0, 66, 0
2, 52752, Note_on_c, 0, 62, 75
2, 52764, Note_on_c, 0, 62, 0
2, 52764, Note_on_c, 0, 66, 75
2, 52776, Note_on_c, 0, 66, 0
2, 52776, Note_on_c, 0, 71, 75
2, 52788, Note_on_c, 0, 71, 0
2, 52788, Note_on_c, 0, 74, 76
2, 52800, Note_on_c, 0, 74, 0
2, 52800, Note_on_c, 0, 71, 77
2, 52848, Note_on_c, 0, 71, 0
2, 52848, Note_on_c, 0, 66, 80
2, 52893, Note_on_c, 0, 66, 0
2, 52896, Note_on_c, 0, 78, 84
2, 52916, Note_on_c, 0, 78, 0
2, 52944, Note_on_c, 0, 71, 81
2, 52964, Note_on_c, 0, 71, 0
2, 52992, Note_on_c, 0, 73, 79
2, 53004, Note_on_c, 0, 73, 0
2, 53004, Note_on_c, 0, 74, 79
2, 53016, Note_on_c, 0, 74, 0
2, 53016, Note_on_c, 0, 73, 79
2, 53037, Note_on_c, 0, 73, 0
2, 53040, Note_on_c, 0, 71, 77
2, 53085, Note_on_c, 0, 71, 0
2, 53136, Note_on_c, 0, 62, 75
2, 53148, Note_on_c, 0, 62, 0
2, 53148, Note_on_c, 0, 66, 76
2, 53160, Note_on_c, 0, 66, 0
2, 53160, Note_on_c, 0, 71, 77
2, 53172, Note_on_c, 0, 71, 0
2, 53172, Note_on_c, 0, 74, 78
2, 53184, Note_on_c, 0, 74, 0
2, 53184, Note_on_c, 0, 71, 79
2, 53232, Note_on_c, 0, 71, 0
2, 53232, Note_on_c, 0, 66, 84
2, 53277, Note_on_c, 0, 66, 0
2, 53280, Note_on_c, 0, 83, 82
2, 53300, Note_on_c, 0, 83, 0
2, 53328, Note_on_c, 0, 78, 80
2, 53348, Note_on_c, 0, 78, 0
2, 53376, Note_on_c, 0, 79, 78
2, 53388, Note_on_c, 0, 79, 0
2, 53388, Note_on_c, 0, 81, 78
2, 53400, Note_on_c, 0, 81, 0
2, 53400, Note_on_c, 0, 79, 78
2, 53421, Note_on_c, 0, 79, 0
2, 53424, Note_on_c, 0, 78, 76
2, 53469, Note_on_c, 0, 78, 0
2, 53520, Note_on_c, 0, 71, 75
2, 53532, Note_on_c, 0, 71, 0
2, 53532, Note_on_c, 0, 74, 77
2, 53544, Note_on_c, 0, 74, 0
2, 53544, Note_on_c, 0, 78, 79
2, 53556, Note_on_c, 0, 78, 0
2, 53556, Note_on_c, 0, 83, 81
2, 53568, Note_on_c, 0, 83, 0
2, 53568, Note_on_c, 0, 78, 84
2, 53616, Note_on_c, 0, 78, 0
2, 53616, Note_on_c, 0, 74, 82
2, 53661, Note_on_c, 0, 74, 0
2, 53664, Note_on_c, 0, 79, 81
2, 53684, Note_on_c, 0, 79, 0
2, 53712, Note_on_c, 0, 78, 79
2, 53732, Note_on_c, 0, 78, 0
2, 53760, Note_on_c, 0, 76, 78
2, 53772, Note_on_c, 0, 76, 0
2, 53772, Note_on_c, 0, 78, 78
2, 53784, Note_on_c, 0, 78, 0
2, 53784, Note_on_c, 0, 76, 78
2, 53805, Note_on_c, 0, 76, 0
2, 53808, Note_on_c, 0, 74, 76
2, 53853, Note_on_c, 0, 74, 0
2, 53976, Note_on_c, 0, 60, 75
2, 53999, Note_on_c, 0, 60, 0
2, 54000, Note_on_c, 0, 59, 75
2, 54023, Note_on_c, 0, 59, 0
2, 54024, Note_on_c, 0, 60, 75
2, 54047, Note_on_c, 0, 60, 0
2, 54048, Note_on_c, 0, 62, 75
2, 54071, Note_on_c, 0, 62, 0
2, 54072, Note_on_c, 0, 60, 75
2, 54095, Note_on_c, 0, 60, 0
2, 54096, Note_on_c, 0, 64, 75
2, 54119, Note_on_c, 0, 64, 0
2, 54120, Note_on_c, 0, 60, 75
2, 54143, Note_on_c, 0, 60, 0
2, 54168, Note_on_c, 0, 67, 75
2, 54191, Note_on_c, 0, 67, 0
2, 54192, Note_on_c, 0, 66, 75
2, 54215, Note_on_c, 0, 66, 0
2, 54216, Note_on_c, 0, 67, 75
2, 54239, Note_on_c, 0, 67, 0
2, 54240, Note_on_c, 0, 69, 75
2, 54263, Note_on_c, 0, 69, 0
2, 54264, Note_on_c, 0, 67, 75
2, 54287, Note_on_c, 0, 67, 0
2, 54288, Note_on_c, 0, 71, 75
2, 54311, Note_on_c, 0, 71, 0
2, 54312, Note_on_c, 0, 67, 75
2, 54335, Note_on_c, 0, 67, 0
2, 54336, Note_on_c, 0, 66, 75
2, 54513, Note_on_c, 0, 66, 0
2, 54528, Note_on_c, 0, 59, 75
2, 54551, Note_on_c, 0, 59, 0
2, 54552, Note_on_c, 0, 64, 75
2, 54575, Note_on_c, 0, 64, 0
2, 54576, Note_on_c, 0, 63, 75
2, 54599, Note_on_c, 0, 63, 0
2, 54600, Note_on_c, 0, 64, 75
2, 54623, Note_on_c, 0, 64, 0
2, 54624, Note_on_c, 0, 66, 75
2, 54647, Note_on_c, 0, 66, 0
2, 54648, Note_on_c, 0, 64, 75
2, 54671, Note_on_c, 0, 64, 0
2, 54672, Note_on_c, 0, 67, 75
2, 54695, Note_on_c, 0, 67, 0
2, 54696, Note_on_c, 0, 64, 75
2, 54719, Note_on_c, 0, 64, 0
2, 54720, Note_on_c, 0, 76, 75
2, 54720, Note_on_c, 0, 67, 75
2, 54897, Note_on_c, 0, 76, 0
2, 54897, Note_on_c, 0, 67, 0
2, 54936, Note_on_c, 0, 76, 75
2, 54959, Note_on_c, 0, 76, 0
2, 54960, Note_on_c, 0, 75, 75
2, 54983, Note_on_c, 0, 75, 0
2, 54984, Note_on_c, 0, 76, 75
2, 55007, Note_on_c, 0, 76, 0
2, 55008, Note_on_c, 0, 78, 75
2, 55031, Note_on_c, 0, 78, 0
2, 55032, Note_on_c, 0, 76, 75
2, 55055, Note_on_c, 0, 76, 0
2, 55056, Note_on_c, 0, 79, 75
2, 55079, Note_on_c, 0, 79, 0
2, 55080, Note_on_c, 0, 76, 75
2, 55103, Note_on_c, 0, 76, 0
2, 55104, Note_on_c, 0, 74, 75
2, 55127, Note_on_c, 0, 74, 0
2, 55128, Note_on_c, 0, 83, 75
2, 55151, Note_on_c, 0, 83, 0
2, 55152, Note_on_c, 0, 82, 75
2, 55175, Note_on_c, 0, 82, 0
2, 55176, Note_on_c, 0, 83, 75
2, 55199, Note_on_c, 0, 83, 0
2, 55200, Note_on_c, 0, 85, 75
2, 55223, Note_on_c, 0, 85, 0
2, 55224, Note_on_c, 0, 83, 75
2, 55247, Note_on_c, 0, 83, 0
2, 55248, Note_on_c, 0, 86, 75
2, 55271, Note_on_c, 0, 86, 0
2, 55272, Note_on_c, 0, 83, 75
2, 55295, Note_on_c, 0, 83, 0
2, 55296, Note_on_c, 0, 82, 75
2, 55319, Note_on_c, 0, 82, 0
2, 55320, Note_on_c, 0, 85, 75
2, 55343, Note_on_c, 0, 85, 0
2, 55344, Note_on_c, 0, 78, 75
2, 55367, Note_on_c, 0, 78, 0
2, 55368, Note_on_c, 0, 82, 75
2, 55391, Note_on_c, 0, 82, 0
2, 55392, Note_on_c, 0, 73, 75
2, 55415, Note_on_c, 0, 73, 0
2, 55416, Note_on_c, 0, 78, 75
2, 55439, Note_on_c, 0, 78, 0
2, 55440, Note_on_c, 0, 70, 75
2, 55463, Note_on_c, 0, 70, 0
2, 55464, Note_on_c, 0, 73, 75
2, 55487, Note_on_c, 0, 73, 0
2, 55488, Note_on_c, 0, 66, 75
2, 55582, Note_on_c, 0, 66, 0
2, 55632, Note_on_c, 0, 66, 85
2, 55680, Note_on_c, 0, 66, 0
2, 55680, Note_on_c, 0, 71, 70
2, 55704, Note_on_c, 0, 71, 0
2, 55704, Note_on_c, 0, 70, 70
2, 55727, Note_on_c, 0, 70, 0
2, 55728, Note_on_c, 0, 73, 71
2, 55752, Note_on_c, 0, 73, 0
2, 55752, Note_on_c, 0, 71, 72
2, 55775, Note_on_c, 0, 71, 0
2, 55776, Note_on_c, 0, 74, 72
2, 55800, Note_on_c, 0, 74, 0
2, 55800, Note_on_c, 0, 73, 73
2, 55823, Note_on_c, 0, 73, 0
2, 55824, Note_on_c, 0, 76, 73
2, 55848, Note_on_c, 0, 76, 0
2, 55848, Note_on_c, 0, 74, 74
2, 55871, Note_on_c, 0, 74, 0
2, 55872, Note_on_c, 0, 74, 75
2, 55872, Note_on_c, 0, 71, 75
2, 55968, Note_on_c, 0, 74, 0
2, 55968, Note_on_c, 0, 71, 0
2, 55968, Note_on_c, 0, 73, 75
2, 55968, Note_on_c, 0, 70, 75
2, 56013, Note_on_c, 0, 73, 0
2, 56013, Note_on_c, 0, 70, 0
2, 56016, Note_on_c, 0, 66, 85
2, 56064, Note_on_c, 0, 66, 0
2, 56064, Note_on_c, 0, 73, 70
2, 56088, Note_on_c, 0, 73, 0
2, 56088, Note_on_c, 0, 71, 70
2, 56111, Note_on_c, 0, 71, 0
2, 56112, Note_on_c, 0, 74, 71
2, 56136, Note_on_c, 0, 74, 0
2, 56136, Note_on_c, 0, 73, 72
2, 56159, Note_on_c, 0, 73, 0
2, 56160, Note_on_c, 0, 76, 72
2, 56184, Note_on_c, 0, 76, 0
2, 56184, Note_on_c, 0, 74, 73
2, 56207, Note_on_c, 0, 74, 0
2, 56208, Note_on_c, 0, 78, 73
2, 56232, Note_on_c, 0, 78, 0
2, 56232, Note_on_c, 0, 76, 74
2, 56255, Note_on_c, 0, 76, 0
2, 56256, Note_on_c, 0, 76, 75
2, 56256, Note_on_c, 0, 73, 75
2, 56352, Note_on_c, 0, 76, 0
2, 56352, Note_on_c, 0, 73, 0
2, 56352, Note_on_c, 0, 74, 75
2, 56352, Note_on_c, 0, 71, 75
2, 56397, Note_on_c, 0, 74, 0
2, 56397, Note_on_c, 0, 71, 0
2, 56400, Note_on_c, 0, 71, 75
2, 56445, Note_on_c, 0, 71, 0
2, 56448, Note_on_c, 0, 76, 75
2, 56472, Note_on_c, 0, 76, 0
2, 56472, Note_on_c, 0, 75, 75
2, 56495, Note_on_c, 0, 75, 0
2, 56496, Note_on_c, 0, 78, 75
2, 56520, Note_on_c, 0, 78, 0
2, 56520, Note_on_c, 0, 76, 75
2, 56543, Note_on_c, 0, 76, 0
2, 56544, Note_on_c, 0, 79, 75
2, 56568, Note_on_c, 0, 79, 0
2, 56568, Note_on_c, 0, 78, 75
2, 56591, Note_on_c, 0, 78, 0
2, 56592, Note_on_c, 0, 81, 75
2, 56616, Note_on_c, 0, 81, 0
2, 56616, Note_on_c, 0, 79, 75
2, 56639, Note_on_c, 0, 79, 0
2, 56640, Note_on_c, 0, 83, 75
2, 56663, Note_on_c, 0, 83, 0
2, 56664, Note_on_c, 0, 81, 75
2, 56687, Note_on_c, 0, 81, 0
2, 56688, Note_on_c, 0, 79, 75
2, 56711, Note_on_c, 0, 79, 0
2, 56712, Note_on_c, 0, 78, 75
2, 56735, Note_on_c, 0, 78, 0
2, 56736, Note_on_c, 0, 76, 75
2, 56759, Note_on_c, 0, 76, 0
2, 56760, Note_on_c, 0, 74, 75
2, 56783, Note_on_c, 0, 74, 0
2, 56784, Note_on_c, 0, 73, 75
2, 56807, Note_on_c, 0, 73, 0
2, 56808, Note_on_c, 0, 71, 75
2, 56831, Note_on_c, 0, 71, 0
2, 56832, Note_on_c, 0, 73, 75
2, 56856, Note_on_c, 0, 73, 0
2, 56856, Note_on_c, 0, 71, 75
2, 56879, Note_on_c, 0, 71, 0
2, 56880, Note_on_c, 0, 74, 75
2, 56904, Note_on_c, 0, 74, 0
2, 56904, Note_on_c, 0, 73, 75
2, 56927, Note_on_c, 0, 73, 0
2, 56928, Note_on_c, 0, 76, 75
2, 56952, Note_on_c, 0, 76, 0
2, 56952, Note_on_c, 0, 74, 75
2, 56975, Note_on_c, 0, 74, 0
2, 56976, Note_on_c, 0, 78, 75
2, 57000, Note_on_c, 0, 78, 0
2, 57000, Note_on_c, 0, 76, 75
2, 57023, Note_on_c, 0, 76, 0
2, 57024, Note_on_c, 0, 79, 75
2, 57047, Note_on_c, 0, 79, 0
2, 57048, Note_on_c, 0, 78, 75
2, 57071, Note_on_c, 0, 78, 0
2, 57072, Note_on_c, 0, 76, 75
2, 57095, Note_on_c, 0, 76, 0
2, 57096, Note_on_c, 0, 74, 75
2, 57119, Note_on_c, 0, 74, 0
2, 57120, Note_on_c, 0, 73, 75
2, 57143, Note_on_c, 0, 73, 0
2, 57144, Note_on_c, 0, 71, 75
2, 57167, Note_on_c, 0, 71, 0
2, 57168, Note_on_c, 0, 69, 75
2, 57191, Note_on_c, 0, 69, 0
2, 57192, Note_on_c, 0, 67, 75
2, 57215, Note_on_c, 0, 67, 0
2, 57216, Note_on_c, 0, 66, 75
2, 57240, Note_on_c, 0, 66, 0
2, 57240, Note_on_c, 0, 64, 75
2, 57263, Note_on_c, 0, 64, 0
2, 57264, Note_on_c, 0, 67, 75
2, 57288, Note_on_c, 0, 67, 0
2, 57288, Note_on_c, 0, 66, 75
2, 57311, Note_on_c, 0, 66, 0
2, 57312, Note_on_c, 0, 69, 75
2, 57336, Note_on_c, 0, 69, 0
2, 57336, Note_on_c, 0, 67, 75
2, 57359, Note_on_c, 0, 67, 0
2, 57360, Note_on_c, 0, 71, 75
2, 57384, Note_on_c, 0, 71, 0
2, 57384, Note_on_c, 0, 69, 75
2, 57407, Note_on_c, 0, 69, 0
2, 57408, Note_on_c, 0, 72, 75
2, 57431, Note_on_c, 0, 72, 0
2, 57432, Note_on_c, 0, 71, 75
2, 57455, Note_on_c, 0, 71, 0
2, 57456, Note_on_c, 0, 69, 75
2, 57479, Note_on_c, 0, 69, 0
2, 57480, Note_on_c, 0, 67, 75
2, 57503, Note_on_c, 0, 67, 0
2, 57504, Note_on_c, 0, 66, 75
2, 57527, Note_on_c, 0, 66, 0
2, 57528, Note_on_c, 0, 64, 75
2, 57551, Note_on_c, 0, 64, 0
2, 57552, Note_on_c, 0, 62, 75
2, 57575, Note_on_c, 0, 62, 0
2, 57576, Note_on_c, 0, 60, 75
2, 57599, Note_on_c, 0, 60, 0
2, 57600, Note_on_c, 0, 59, 75
2, 57623, Note_on_c, 0, 59, 0
2, 57624, Note_on_c, 0, 71, 75
2, 57647, Note_on_c, 0, 71, 0
2, 57648, Note_on_c, 0, 70, 75
2, 57671, Note_on_c, 0, 70, 0
2, 57672, Note_on_c, 0, 71, 75
2, 57695, Note_on_c, 0, 71, 0
2, 57696, Note_on_c, 0, 69, 75
2, 57719, Note_on_c, 0, 69, 0
2, 57720, Note_on_c, 0, 67, 75
2, 57743, Note_on_c, 0, 67, 0
2, 57744, Note_on_c, 0, 66, 75
2, 57767, Note_on_c, 0, 66, 0
2, 57768, Note_on_c, 0, 64, 75
2, 57791, Note_on_c, 0, 64, 0
2, 57792, Note_on_c, 0, 63, 75
2, 57815, Note_on_c, 0, 63, 0
2, 57816, Note_on_c, 0, 64, 75
2, 57839, Note_on_c, 0, 64, 0
2, 57840, Note_on_c, 0, 66, 75
2, 57863, Note_on_c, 0, 66, 0
2, 57864, Note_on_c, 0, 64, 75
2, 57887, Note_on_c, 0, 64, 0
2, 57888, Note_on_c, 0, 67, 75
2, 57911, Note_on_c, 0, 67, 0
2, 57912, Note_on_c, 0, 66, 75
2, 57935, Note_on_c, 0, 66, 0
2, 57936, Note_on_c, 0, 64, 75
2, 57959, Note_on_c, 0, 64, 0
2, 57960, Note_on_c, 0, 62, 75
2, 57983, Note_on_c, 0, 62, 0
2, 57984, Note_on_c, 0, 62, 75
2, 58176, Note_on_c, 0, 62, 0
2, 58176, Note_on_c, 0, 61, 75
2, 58199, Note_on_c, 0, 61, 0
2, 58200, Note_on_c, 0, 57, 75
2, 58223, Note_on_c, 0, 57, 0
2, 58224, Note_on_c, 0, 64, 75
2, 58247, Note_on_c, 0, 64, 0
2, 58248, Note_on_c, 0, 61, 75
2, 58271, Note_on_c, 0, 61, 0
2, 58272, Note_on_c, 0, 69, 75
2, 58295, Note_on_c, 0, 69, 0
2, 58296, Note_on_c, 0, 64, 74
2, 58319, Note_on_c, 0, 64, 0
2, 58320, Note_on_c, 0, 73, 73
2, 58343, Note_on_c, 0, 73, 0
2, 58344, Note_on_c, 0, 69, 73
2, 58367, Note_on_c, 0, 69, 0
2, 58368, Note_on_c, 0, 76, 72
2, 58391, Note_on_c, 0, 76, 0
2, 58392, Note_on_c, 0, 73, 72
2, 58415, Note_on_c, 0, 73, 0
2, 58416, Note_on_c, 0, 79, 71
2, 58439, Note_on_c, 0, 79, 0
2, 58440, Note_on_c, 0, 76, 70
2, 58463, Note_on_c, 0, 76, 0
2, 58464, Note_on_c, 0, 83, 70
2, 58509, Note_on_c, 0, 83, 0
2, 58680, Note_on_c, 0, 82, 61
2, 58703, Note_on_c, 0, 82, 0
2, 58704, Note_on_c, 0, 83, 61
2, 58727, Note_on_c, 0, 83, 0
2, 58728, Note_on_c, 0, 82, 61
2, 58751, Note_on_c, 0, 82, 0
2, 58752, Note_on_c, 0, 83, 61
2, 58772, Note_on_c, 0, 83, 0
2, 58872, Note_on_c, 0, 82, 53
2, 58895, Note_on_c, 0, 82, 0
2, 58896, Note_on_c, 0, 83, 53
2, 58919, Note_on_c, 0, 83, 0
2, 58920, Note_on_c, 0, 82, 53
2, 58943, Note_on_c, 0, 82, 0
2, 58944, Note_on_c, 0, 83, 53
2, 58964, Note_on_c, 0, 83, 0
2, 59064, Note_on_c, 0, 82, 61
2, 59087, Note_on_c, 0, 82, 0
2, 59088, Note_on_c, 0, 83, 62
2, 59111, Note_on_c, 0, 83, 0
2, 59112, Note_on_c, 0, 82, 63
2, 59135, Note_on_c, 0, 82, 0
2, 59136, Note_on_c, 0, 83, 64
2, 59159, Note_on_c, 0, 83, 0
2, 59160, Note_on_c, 0, 85, 65
2, 59183, Note_on_c, 0, 85, 0
2, 59184, Note_on_c, 0, 86, 66
2, 59207, Note_on_c, 0, 86, 0
2, 59208, Note_on_c, 0, 85, 68
2, 59231, Note_on_c, 0, 85, 0
2, 59232, Note_on_c, 0, 83, 69
2, 59255, Note_on_c, 0, 83, 0
2, 59256, Note_on_c, 0, 81, 70
2, 59279, Note_on_c, 0, 81, 0
2, 59280, Note_on_c, 0, 79, 71
2, 59303, Note_on_c, 0, 79, 0
2, 59304, Note_on_c, 0, 78, 72
2, 59327, Note_on_c, 0, 78, 0
2, 59328, Note_on_c, 0, 79, 73
2, 59351, Note_on_c, 0, 79, 0
2, 59352, Note_on_c, 0, 81, 75
2, 59375, Note_on_c, 0, 81, 0
2, 59376, Note_on_c, 0, 83, 75
2, 59399, Note_on_c, 0, 83, 0
2, 59400, Note_on_c, 0, 81, 75
2, 59423, Note_on_c, 0, 81, 0
2, 59424, Note_on_c, 0, 79, 75
2, 59447, Note_on_c, 0, 79, 0
2, 59448, Note_on_c, 0, 78, 75
2, 59471, Note_on_c, 0, 78, 0
2, 59472, Note_on_c, 0, 76, 75
2, 59495, Note_on_c, 0, 76, 0
2, 59496, Note_on_c, 0, 75, 75
2, 59519, Note_on_c, 0, 75, 0
2, 59520, Note_on_c, 0, 76, 75
2, 59543, Note_on_c, 0, 76, 0
2, 59544, Note_on_c, 0, 78, 75
2, 59567, Note_on_c, 0, 78, 0
2, 59568, Note_on_c, 0, 79, 75
2, 59591, Note_on_c, 0, 79, 0
2, 59592, Note_on_c, 0, 78, 75
2, 59615, Note_on_c, 0, 78, 0
2, 59616, Note_on_c, 0, 76, 75
2, 59639, Note_on_c, 0, 76, 0
2, 59640, Note_on_c, 0, 74, 75
2, 59663, Note_on_c, 0, 74, 0
2, 59664, Note_on_c, 0, 73, 75
2, 59687, Note_on_c, 0, 73, 0
2, 59688, Note_on_c, 0, 71, 75
2, 59711, Note_on_c, 0, 71, 0
2, 59712, Note_on_c, 0, 69, 75
2, 59735, Note_on_c, 0, 69, 0
2, 59736, Note_on_c, 0, 71, 75
2, 59759, Note_on_c, 0, 71, 0
2, 59760, Note_on_c, 0, 68, 75
2, 59783, Note_on_c, 0, 68, 0
2, 59784, Note_on_c, 0, 71, 75
2, 59807, Note_on_c, 0, 71, 0
2, 59808, Note_on_c, 0, 69, 75
2, 59831, Note_on_c, 0, 69, 0
2, 59832, Note_on_c, 0, 71, 75
2, 59855, Note_on_c, 0, 71, 0
2, 59856, Note_on_c, 0, 68, 75
2, 59879, Note_on_c, 0, 68, 0
2, 59880, Note_on_c, 0, 71, 75
2, 59903, Note_on_c, 0, 71, 0
2, 59904, Note_on_c, 0, 69, 75
2, 59927, Note_on_c, 0, 69, 0
2, 59928, Note_on_c, 0, 71, 75
2, 59951, Note_on_c, 0, 71, 0
2, 59952, Note_on_c, 0, 68, 75
2, 59975, Note_on_c, 0, 68, 0
2, 59976, Note_on_c, 0, 71, 75
2, 59999, Note_on_c, 0, 71, 0
2, 60000, Note_on_c, 0, 69, 75
2, 60023, Note_on_c, 0, 69, 0
2, 60024, Note_on_c, 0, 71, 75
2, 60047, Note_on_c, 0, 71, 0
2, 60048, Note_on_c, 0, 66, 75
2, 60071, Note_on_c, 0, 66, 0
2, 60072, Note_on_c, 0, 69, 75
2, 60095, Note_on_c, 0, 69, 0
2, 60096, Note_on_c, 0, 67, 75
2, 60119, Note_on_c, 0, 67, 0
2, 60120, Note_on_c, 0, 69, 75
2, 60143, Note_on_c, 0, 69, 0
2, 60144, Note_on_c, 0, 66, 75
2, 60167, Note_on_c, 0, 66, 0
2, 60168, Note_on_c, 0, 69, 75
2, 60191, Note_on_c, 0, 69, 0
2, 60192, Note_on_c, 0, 67, 75
2, 60215, Note_on_c, 0, 67, 0
2, 60216, Note_on_c, 0, 69, 75
2, 60239, Note_on_c, 0, 69, 0
2, 60240, Note_on_c, 0, 66, 75
2, 60263, Note_on_c, 0, 66, 0
2, 60264, Note_on_c, 0, 69, 75
2, 60287, Note_on_c, 0, 69, 0
2, 60288, Note_on_c, 0, 67, 75
2, 60311, Note_on_c, 0, 67, 0
2, 60312, Note_on_c, 0, 69, 75
2, 60335, Note_on_c, 0, 69, 0
2, 60336, Note_on_c, 0, 66, 75
2, 60359, Note_on_c, 0, 66, 0
2, 60360, Note_on_c, 0, 69, 75
2, 60383, Note_on_c, 0, 69, 0
2, 60384, Note_on_c, 0, 67, 75
2, 60407, Note_on_c, 0, 67, 0
2, 60408, Note_on_c, 0, 69, 75
2, 60431, Note_on_c, 0, 69, 0
2, 60432, Note_on_c, 0, 66, 75
2, 60455, Note_on_c, 0, 66, 0
2, 60456, Note_on_c, 0, 69, 75
2, 60479, Note_on_c, 0, 69, 0
2, 60480, Note_on_c, 0, 67, 75
2, 60547, Note_on_c, 0, 67, 0
2, 60552, Note_on_c, 0, 66, 72
2, 60575, Note_on_c, 0, 66, 0
2, 60576, Note_on_c, 0, 67, 72
2, 60643, Note_on_c, 0, 67, 0
2, 60648, Note_on_c, 0, 66, 70
2, 60671, Note_on_c, 0, 66, 0
2, 60672, Note_on_c, 0, 67, 69
2, 60739, Note_on_c, 0, 67, 0
2, 60744, Note_on_c, 0, 66, 67
2, 60767, Note_on_c, 0, 66, 0
2, 60768, Note_on_c, 0, 67, 66
2, 60791, Note_on_c, 0, 67, 0
2, 60792, Note_on_c, 0, 66, 65
2, 60815, Note_on_c, 0, 66, 0
2, 60816, Note_on_c, 0, 67, 65
2, 60839, Note_on_c, 0, 67, 0
2, 60840, Note_on_c, 0, 66, 64
2, 60863, Note_on_c, 0, 66, 0
2, 60864, Note_on_c, 0, 67, 63
2, 60953, Note_on_c, 0, 67, 0
2, 61104, Control_c, 0, 64, 127
2, 61104, Note_on_c, 0, 69, 84
2, 61116, Note_on_c, 0, 69, 0
2, 61116, Note_on_c, 0, 73, 84
2, 61128, Note_on_c, 0, 73, 0
2, 61128, Note_on_c, 0, 76, 84
2, 61140, Note_on_c, 0, 76, 0
2, 61140, Note_on_c, 0, 79, 84
2, 61152, Note_on_c, 0, 79, 0
2, 61152, Control_c, 0, 64, 0
2, 61392, Note_on_c, 0, 57, 75
2, 61404, Note_on_c, 0, 57, 0
2, 61404, Note_on_c, 0, 62, 75
2, 61416, Note_on_c, 0, 62, 0
2, 61416, Note_on_c, 0, 66, 75
2, 61428, Note_on_c, 0, 66, 0
2, 61428, Note_on_c, 0, 69, 76
2, 61440, Note_on_c, 0, 69, 0
2, 61440, Note_on_c, 0, 66, 77
2, 61485, Note_on_c, 0, 66, 0
2, 61488, Note_on_c, 0, 62, 80
2, 61533, Note_on_c, 0, 62, 0
2, 61536, Note_on_c, 0, 74, 84
2, 61556, Note_on_c, 0, 74, 0
2, 61584, Note_on_c, 0, 69, 81
2, 61604, Note_on_c, 0, 69, 0
2, 61632, Note_on_c, 0, 71, 79
2, 61644, Note_on_c, 0, 71, 0
2, 61644, Note_on_c, 0, 73, 79
2, 61656, Note_on_c, 0, 73, 0
2, 61656, Note_on_c, 0, 71, 79
2, 61677, Note_on_c, 0, 71, 0
2, 61680, Note_on_c, 0, 69, 77
2, 61725, Note_on_c, 0, 69, 0
2, 61776, Note_on_c, 0, 57, 75
2, 61788, Note_on_c, 0, 57, 0
2, 61788, Note_on_c, 0, 62, 75
2, 61800, Note_on_c, 0, 62, 0
2, 61800, Note_on_c, 0, 66, 76
2, 61812, Note_on_c, 0, 66, 0
2, 61812, Note_on_c, 0, 69, 77
2, 61824, Note_on_c, 0, 69, 0
2, 61824, Note_on_c, 0, 66, 78
2, 61872, Note_on_c, 0, 66, 0
2, 61872, Note_on_c, 0, 62, 84
2, 61917, Note_on_c, 0, 62, 0
2, 61920, Note_on_c, 0, 81, 82
2, 61920, Note_on_c, 0, 78, 82
2, 61940, Note_on_c, 0, 81, 0
2, 61940, Note_on_c, 0, 78, 0
2, 61968, Note_on_c, 0, 78, 80
2, 61968, Note_on_c, 0, 74, 80
2, 61988, Note_on_c, 0, 78, 0
2, 61988, Note_on_c, 0, 74, 0
2, 62016, Note_on_c, 0, 79, 78
2, 62028, Note_on_c, 0, 79, 0
2, 62028, Note_on_c, 0, 81, 78
2, 62040, Note_on_c, 0, 81, 0
2, 62040, Note_on_c, 0, 79, 78
2, 62061, Note_on_c, 0, 79, 0
2, 62064, Note_on_c, 0, 78, 76
2, 62109, Note_on_c, 0, 78, 0
2, 62160, Note_on_c, 0, 74, 75
2, 62172, Note_on_c, 0, 74, 0
2, 62172, Note_on_c, 0, 78, 75
2, 62184, Note_on_c, 0, 78, 0
2, 62184, Note_on_c, 0, 81, 75
2, 62196, Note_on_c, 0, 81, 0
2, 62196, Note_on_c, 0, 86, 75
2, 62208, Note_on_c, 0, 86, 0
2, 62208, Note_on_c, 0, 72, 75
2, 62348, Note_on_c, 0, 72, 0
2, 62352, Note_on_c, 0, 84, 75
2, 62364, Note_on_c, 0, 84, 0
2, 62364, Note_on_c, 0, 81, 75
2, 62376, Note_on_c, 0, 81, 0
2, 62376, Note_on_c, 0, 78, 75
2, 62388, Note_on_c, 0, 78, 0
2, 62388, Note_on_c, 0, 72, 75
2, 62400, Note_on_c, 0, 72, 0
2, 62400, Note_on_c, 0, 71, 75
2, 62540, Note_on_c, 0, 71, 0
2, 62544, Note_on_c, 0, 71, 75
2, 62556, Note_on_c, 0, 71, 0
2, 62556, Note_on_c, 0, 74, 75
2, 62568, Note_on_c, 0, 74, 0
2, 62568, Note_on_c, 0, 79, 75
2, 62580, Note_on_c, 0, 79, 0
2, 62580, Note_on_c, 0, 83, 75
2, 62592, Note_on_c, 0, 83, 0
2, 62592, Note_on_c, 0, 81, 75
2, 62592, Note_on_c, 0, 78, 75
2, 62612, Note_on_c, 0, 81, 0
2, 62612, Note_on_c, 0, 78, 0
2, 62640, Note_on_c, 0, 78, 75
2, 62640, Note_on_c, 0, 74, 75
2, 62660, Note_on_c, 0, 78, 0
2, 62660, Note_on_c, 0, 74, 0
2, 62688, Note_on_c, 0, 79, 75
2, 62688, Note_on_c, 0, 76, 75
2, 62708, Note_on_c, 0, 79, 0
2, 62708, Note_on_c, 0, 76, 0
2, 62736, Note_on_c, 0, 76, 75
2, 62736, Note_on_c, 0, 73, 75
2, 62756, Note_on_c, 0, 76, 0
2, 62756, Note_on_c, 0, 73, 0
2, 62784, Note_on_c, 0, 76, 75
2, 62784, Note_on_c, 0, 73, 75
2, 62880, Note_on_c, 0, 76, 0
2, 62880, Note_on_c, 0, 73, 0
2, 62880, Note_on_c, 0, 78, 75
2, 62880, Note_on_c, 0, 74, 75
2, 62925, Note_on_c, 0, 78, 0
2, 62925, Note_on_c, 0, 74, 0
2, 62928, Note_on_c, 0, 74, 75
2, 62940, Note_on_c, 0, 74, 0
2, 62940, Note_on_c, 0, 78, 75
2, 62952, Note_on_c, 0, 78, 0
2, 62952, Note_on_c, 0, 81, 75
2, 62964, Note_on_c, 0, 81, 0
2, 62964, Note_on_c, 0, 86, 75
2, 62976, Note_on_c, 0, 86, 0
2, 62976, Note_on_c, 0, 72, 75
2, 63116, Note_on_c, 0, 72, 0
2, 63120, Note_on_c, 0, 84, 75
2, 63132, Note_on_c, 0, 84, 0
2, 63132, Note_on_c, 0, 81, 75
2, 63144, Note_on_c, 0, 81, 0
2, 63144, Note_on_c, 0, 78, 75
2, 63156, Note_on_c, 0, 78, 0
2, 63156, Note_on_c, 0, 72, 75
2, 63168, Note_on_c, 0, 72, 0
2, 63168, Note_on_c, 0, 71, 75
2, 63308, Note_on_c, 0, 71, 0
2, 63312, Note_on_c, 0, 83, 75
2, 63327, Note_on_c, 0, 83, 0
2, 63328, Note_on_c, 0, 85, 75
2, 63343, Note_on_c, 0, 85, 0
2, 63344, Note_on_c, 0, 86, 75
2, 63359, Note_on_c, 0, 86, 0
2, 63360, Note_on_c, 0, 85, 91
2, 63376, Note_on_c, 0, 85, 0
2, 63376, Note_on_c, 0, 83, 75
2, 63391, Note_on_c, 0, 83, 0
2, 63392, Note_on_c, 0, 81, 75
2, 63407, Note_on_c, 0, 81, 0
2, 63408, Note_on_c, 0, 79, 75
2, 63423, Note_on_c, 0, 79, 0
2, 63424, Note_on_c, 0, 78, 75
2, 63439, Note_on_c, 0, 78, 0
2, 63440, Note_on_c, 0, 76, 75
2, 63455, Note_on_c, 0, 76, 0
2, 63456, Note_on_c, 0, 74, 75
2, 63471, Note_on_c, 0, 74, 0
2, 63472, Note_on_c, 0, 73, 75
2, 63487, Note_on_c, 0, 73, 0
2, 63488, Note_on_c, 0, 71, 75
2, 63503, Note_on_c, 0, 71, 0
2, 63504, Note_on_c, 0, 69, 75
2, 63516, Note_on_c, 0, 69, 0
2, 63516, Note_on_c, 0, 67, 75
2, 63528, Note_on_c, 0, 67, 0
2, 63528, Note_on_c, 0, 66, 75
2, 63540, Note_on_c, 0, 66, 0
2, 63540, Note_on_c, 0, 64, 75
2, 63552, Note_on_c, 0, 64, 0
2, 63552, Note_on_c, 0, 62, 91
2, 63648, Note_on_c, 0, 62, 0
2, 63696, Note_on_c, 0, 57, 85
2, 63744, Note_on_c, 0, 57, 0
2, 63744, Note_on_c, 0, 62, 70
2, 63768, Note_on_c, 0, 62, 0
2, 63768, Note_on_c, 0, 61, 70
2, 63791, Note_on_c, 0, 61, 0
2, 63792, Note_on_c, 0, 64, 71
2, 63816, Note_on_c, 0, 64, 0
2, 63816, Note_on_c, 0, 62, 72
2, 63839, Note_on_c, 0, 62, 0
2, 63840, Note_on_c, 0, 66, 72
2, 63864, Note_on_c, 0, 66, 0
2, 63864, Note_on_c, 0, 64, 73
2, 63887, Note_on_c, 0, 64, 0
2, 63888, Note_on_c, 0, 67, 73
2, 63912, Note_on_c, 0, 67, 0
2, 63912, Note_on_c, 0, 66, 74
2, 63935, Note_on_c, 0, 66, 0
2, 63936, Note_on_c, 0, 66, 75
2, 63936, Note_on_c, 0, 62, 75
2, 64032, Note_on_c, 0, 66, 0
2, 64032, Note_on_c, 0, 62, 0
2, 64032, Note_on_c, 0, 64, 75
2, 64032, Note_on_c, 0, 61, 75
2, 64077, Note_on_c, 0, 64, 0
2, 64077, Note_on_c, 0, 61, 0
2, 64080, Note_on_c, 0, 57, 91
2, 64128, Note_on_c, 0, 57, 0
2, 64128, Note_on_c, 0, 64, 73
2, 64152, Note_on_c, 0, 64, 0
2, 64152, Note_on_c, 0, 63, 73
2, 64175, Note_on_c, 0, 63, 0
2, 64176, Note_on_c, 0, 66, 72
2, 64200, Note_on_c, 0, 66, 0
2, 64200, Note_on_c, 0, 64, 72
2, 64223, Note_on_c, 0, 64, 0
2, 64224, Note_on_c, 0, 67, 71
2, 64248, Note_on_c, 0, 67, 0
2, 64248, Note_on_c, 0, 66, 70
2, 64271, Note_on_c, 0, 66, 0
2, 64272, Note_on_c, 0, 69, 70
2, 64296, Note_on_c, 0, 69, 0
2, 64296, Note_on_c, 0, 67, 69
2, 64319, Note_on_c, 0, 67, 0
2, 64320, Note_on_c, 0, 67, 69
2, 64320, Note_on_c, 0, 64, 69
2, 64416, Note_on_c, 0, 67, 0
2, 64416, Note_on_c, 0, 64, 0
2, 64416, Note_on_c, 0, 66, 69
2, 64416, Note_on_c, 0, 62, 69
2, 64461, Note_on_c, 0, 66, 0
2, 64461, Note_on_c, 0, 62, 0
2, 64464, Note_on_c, 0, 62, 85
2, 64512, Note_on_c, 0, 62, 0
2, 64512, Note_on_c, 0, 67, 70
2, 64536, Note_on_c, 0, 67, 0
2, 64536, Note_on_c, 0, 66, 70
2, 64559, Note_on_c, 0, 66, 0
2, 64560, Note_on_c, 0, 69, 71
2, 64584, Note_on_c, 0, 69, 0
2, 64584, Note_on_c, 0, 67, 72
2, 64607, Note_on_c, 0, 67, 0
2, 64608, Note_on_c, 0, 71, 72
2, 64632, Note_on_c, 0, 71, 0
2, 64632, Note_on_c, 0, 69, 73
2, 64655, Note_on_c, 0, 69, 0
2, 64656, Note_on_c, 0, 74, 73
2, 64680, Note_on_c, 0, 74, 0
2, 64680, Note_on_c, 0, 73, 74
2, 64703, Note_on_c, 0, 73, 0
2, 64704, Note_on_c, 0, 71, 75
2, 64724, Note_on_c, 0, 71, 0
2, 64752, Note_on_c, 0, 71, 75
2, 64776, Note_on_c, 0, 71, 0
2, 64776, Note_on_c, 0, 74, 75
2, 64799, Note_on_c, 0, 74, 0
2, 64800, Note_on_c, 0, 69, 75
2, 64820, Note_on_c, 0, 69, 0
2, 64896, Note_on_c, 0, 69, 75
2, 64902, Note_on_c, 0, 69, 0
2, 64902, Note_on_c, 0, 67, 75
2, 64908, Note_on_c, 0, 67, 0
2, 64908, Note_on_c, 0, 66, 75
2, 64914, Note_on_c, 0, 66, 0
2, 64914, Note_on_c, 0, 67, 75
2, 64941, Note_on_c, 0, 67, 0
2, 64944, Note_on_c, 0, 67, 75
2, 64968, Note_on_c, 0, 67, 0
2, 64968, Note_on_c, 0, 71, 75
2, 64991, Note_on_c, 0, 71, 0
2, 64992, Note_on_c, 0, 66, 75
2, 65012, Note_on_c, 0, 66, 0
2, 65088, Note_on_c, 0, 73, 75
2, 65094, Note_on_c, 0, 73, 0
2, 65094, Note_on_c, 0, 71, 75
2, 65100, Note_on_c, 0, 71, 0
2, 65100, Note_on_c, 0, 69, 75
2, 65106, Note_on_c, 0, 69, 0
2, 65106, Note_on_c, 0, 71, 75
2, 65133, Note_on_c, 0, 71, 0
2, 65136, Note_on_c, 0, 71, 75
2, 65160, Note_on_c, 0, 71, 0
2, 65160, Note_on_c, 0, 74, 75
2, 65183, Note_on_c, 0, 74, 0
2, 65184, Note_on_c, 0, 69, 75
2, 65204, Note_on_c, 0, 69, 0
2, 65280, Note_on_c, 0, 69, 75
2, 65286, Note_on_c, 0, 69, 0
2, 65286, Note_on_c, 0, 67, 75
2, 65292, Note_on_c, 0, 67, 0
2, 65292, Note_on_c, 0, 66, 75
2, 65298, Note_on_c, 0, 66, 0
2, 65298, Note_on_c, 0, 67, 75
2, 65325, Note_on_c, 0, 67, 0
2, 65328, Note_on_c, 0, 67, 75
2, 65352, Note_on_c, 0, 67, 0
2, 65352, Note_on_c, 0, 71, 75
2, 65375, Note_on_c, 0, 71, 0
2, 65376, Note_on_c, 0, 66, 75
2, 65396, Note_on_c, 0, 66, 0
2, 65472, Note_on_c, 0, 63, 75
2, 65495, Note_on_c, 0, 63, 0
2, 65496, Note_on_c, 0, 64, 77
2, 65519, Note_on_c, 0, 64, 0
2, 65520, Note_on_c, 0, 66, 79
2, 65543, Note_on_c, 0, 66, 0
2, 65544, Note_on_c, 0, 67, 81
2, 65567, Note_on_c, 0, 67, 0
2, 65568, Note_on_c, 0, 69, 84
2, 65591, Note_on_c, 0, 69, 0
2, 65592, Note_on_c, 0, 71, 81
2, 65615, Note_on_c, 0, 71, 0
2, 65616, Note_on_c, 0, 67, 79
2, 65639, Note_on_c, 0, 67, 0
2, 65640, Note_on_c, 0, 64, 77
2, 65663, Note_on_c, 0, 64, 0
2, 65664, Note_on_c, 0, 62, 75
2, 65856, Note_on_c, 0, 62, 0
2, 65856, Note_on_c, 0, 61, 63
2, 65876, Note_on_c, 0, 61, 0
2, 66000, Note_on_c, 0, 57, 84
2, 66012, Note_on_c, 0, 57, 0
2, 66012, Note_on_c, 0, 61, 84
2, 66024, Note_on_c, 0, 61, 0
2, 66024, Note_on_c, 0, 64, 84
2, 66036, Note_on_c, 0, 64, 0
2, 66036, Note_on_c, 0, 67, 84
2, 66048, Note_on_c, 0, 67, 0
2, 66048, Note_on_c, 0, 64, 84
2, 66093, Note_on_c, 0, 64, 0
2, 66096, Note_on_c, 0, 64, 84
2, 66108, Note_on_c, 0, 64, 0
2, 66108, Note_on_c, 0, 67, 84
2, 66120, Note_on_c, 0, 67, 0
2, 66120, Note_on_c, 0, 73, 84
2, 66132, Note_on_c, 0, 73, 0
2, 66132, Note_on_c, 0, 76, 84
2, 66144, Note_on_c, 0, 76, 0
2, 66144, Note_on_c, 0, 73, 84
2, 66189, Note_on_c, 0, 73, 0
2, 66192, Note_on_c, 0, 67, 84
2, 66204, Note_on_c, 0, 67, 0
2, 66204, Note_on_c, 0, 73, 84
2, 66216, Note_on_c, 0, 73, 0
2, 66216, Note_on_c, 0, 76, 84
2, 66228, Note_on_c, 0, 76, 0
2, 66228, Note_on_c, 0, 79, 84
2, 66240, Note_on_c, 0, 79, 0
2, 66240, Note_on_c, 0, 76, 84
2, 66285, Note_on_c, 0, 76, 0
2, 66384, Note_on_c, 0, 67, 75
2, 66396, Note_on_c, 0, 67, 0
2, 66396, Note_on_c, 0, 64, 75
2, 66408, Note_on_c, 0, 64, 0
2, 66408, Note_on_c, 0, 61, 75
2, 66420, Note_on_c, 0, 61, 0
2, 66420, Note_on_c, 0, 57, 75
2, 66432, Note_on_c, 0, 57, 0
2, 66432, Note_on_c, 0, 55, 75
2, 66609, Note_on_c, 0, 55, 0
2, 66624, Note_on_c, 0, 54, 75
2, 66647, Note_on_c, 0, 54, 0
2, 66648, Note_on_c, 0, 62, 75
2, 66671, Note_on_c, 0, 62, 0
2, 66672, Note_on_c, 0, 61, 75
2, 66695, Note_on_c, 0, 61, 0
2, 66696, Note_on_c, 0, 62, 75
2, 66719, Note_on_c, 0, 62, 0
2, 66720, Note_on_c, 0, 64, 75
2, 66743, Note_on_c, 0, 64, 0
2, 66744, Note_on_c, 0, 62, 75
2, 66767, Note_on_c, 0, 62, 0
2, 66768, Note_on_c, 0, 61, 75
2, 66791, Note_on_c, 0, 61, 0
2, 66792, Note_on_c, 0, 62, 75
2, 66815, Note_on_c, 0, 62, 0
2, 66816, Note_on_c, 0, 60, 75
2, 66993, Note_on_c, 0, 60, 0
2, 67008, Note_on_c, 0, 59, 75
2, 67031, Note_on_c, 0, 59, 0
2, 67032, Note_on_c, 0, 64, 75
2, 67055, Note_on_c, 0, 64, 0
2, 67056, Note_on_c, 0, 63, 75
2, 67079, Note_on_c, 0, 63, 0
2, 67080, Note_on_c, 0, 64, 75
2, 67103, Note_on_c, 0, 64, 0
2, 67104, Note_on_c, 0, 66, 75
2, 67127, Note_on_c, 0, 66, 0
2, 67128, Note_on_c, 0, 64, 75
2, 67151, Note_on_c, 0, 64, 0
2, 67152, Note_on_c, 0, 63, 75
2, 67175, Note_on_c, 0, 63, 0
2, 67176, Note_on_c, 0, 64, 75
2, 67199, Note_on_c, 0, 64, 0
2, 67200, Note_on_c, 0, 62, 75
2, 67377, Note_on_c, 0, 62, 0
2, 67392, Note_on_c, 0, 61, 75
2, 67415, Note_on_c, 0, 61, 0
2, 67416, Note_on_c, 0, 69, 75
2, 67439, Note_on_c, 0, 69, 0
2, 67440, Note_on_c, 0, 68, 75
2, 67463, Note_on_c, 0, 68, 0
2, 67464, Note_on_c, 0, 69, 75
2, 67487, Note_on_c, 0, 69, 0
2, 67488, Note_on_c, 0, 71, 75
2, 67511, Note_on_c, 0, 71, 0
2, 67512, Note_on_c, 0, 69, 75
2, 67535, Note_on_c, 0, 69, 0
2, 67536, Note_on_c, 0, 68, 75
2, 67559, Note_on_c, 0, 68, 0
2, 67560, Note_on_c, 0, 69, 75
2, 67583, Note_on_c, 0, 69, 0
2, 67584, Note_on_c, 0, 68, 75
2, 67629, Note_on_c, 0, 68, 0
2, 67632, Note_on_c, 0, 74, 75
2, 67677, Note_on_c, 0, 74, 0
2, 67728, Note_on_c, 0, 68, 75
2, 67776, Note_on_c, 0, 68, 0
2, 67776, Note_on_c, 0, 69, 75
2, 67796, Note_on_c, 0, 69, 0
2, 67824, Note_on_c, 0, 69, 75
2, 67848, Note_on_c, 0, 69, 0
2, 67848, Note_on_c, 0, 76, 75
2, 67871, Note_on_c, 0, 76, 0
2, 67872, Note_on_c, 0, 69, 75
2, 67917, Note_on_c, 0, 69, 0
2, 67920, Note_on_c, 0, 69, 75
2, 67968, Note_on_c, 0, 69, 0
2, 67968, Note_on_c, 0, 68, 75
2, 68013, Note_on_c, 0, 68, 0
2, 68016, Note_on_c, 0, 74, 75
2, 68061, Note_on_c, 0, 74, 0
2, 68112, Note_on_c, 0, 68, 75
2, 68160, Note_on_c, 0, 68, 0
2, 68160, Note_on_c, 0, 69, 75
2, 68180, Note_on_c, 0, 69, 0
2, 68208, Note_on_c, 0, 69, 75
2, 68232, Note_on_c, 0, 69, 0
2, 68232, Note_on_c, 0, 76, 75
2, 68255, Note_on_c, 0, 76, 0
2, 68256, Note_on_c, 0, 69, 75
2, 68301, Note_on_c, 0, 69, 0
2, 68304, Note_on_c, 0, 67, 75
2, 68310, Note_on_c, 0, 67, 0
2, 68310, Note_on_c, 0, 69, 75
2, 68316, Note_on_c, 0, 69, 0
2, 68316, Note_on_c, 0, 67, 75
2, 68349, Note_on_c, 0, 67, 0
2, 68352, Note_on_c, 0, 66, 75
2, 68397, Note_on_c, 0, 66, 0
2, 68400, Note_on_c, 0, 81, 75
2, 68445, Note_on_c, 0, 81, 0
2, 68496, Note_on_c, 0, 74, 75
2, 68544, Note_on_c, 0, 74, 0
2, 68544, Note_on_c, 0, 73, 75
2, 68564, Note_on_c, 0, 73, 0
2, 68592, Note_on_c, 0, 73, 75
2, 68616, Note_on_c, 0, 73, 0
2, 68616, Note_on_c, 0, 81, 75
2, 68639, Note_on_c, 0, 81, 0
2, 68640, Note_on_c, 0, 73, 75
2, 68660, Note_on_c, 0, 73, 0
2, 68688, Note_on_c, 0, 73, 75
2, 68736, Note_on_c, 0, 73, 0
2, 68736, Note_on_c, 0, 74, 75
2, 68756, Note_on_c, 0, 74, 0
2, 68784, Note_on_c, 0, 74, 75
2, 68808, Note_on_c, 0, 74, 0
2, 68808, Note_on_c, 0, 81, 75
2, 68831, Note_on_c, 0, 81, 0
2, 68832, Note_on_c, 0, 74, 75
2, 68852, Note_on_c, 0, 74, 0
2, 68880, Note_on_c, 0, 74, 75
2, 68928, Note_on_c, 0, 74, 0
2, 68928, Note_on_c, 0, 76, 75
2, 68948, Note_on_c, 0, 76, 0
2, 68976, Note_on_c, 0, 76, 75
2, 69000, Note_on_c, 0, 76, 0
2, 69000, Note_on_c, 0, 81, 75
2, 69023, Note_on_c, 0, 81, 0
2, 69024, Note_on_c, 0, 76, 75
2, 69069, Note_on_c, 0, 76, 0
2, 69072, Note_on_c, 0, 79, 75
2, 69117, Note_on_c, 0, 79, 0
2, 69120, Note_on_c, 0, 78, 75
2, 69143, Note_on_c, 0, 78, 0
2, 69144, Note_on_c, 0, 79, 75
2, 69167, Note_on_c, 0, 79, 0
2, 69168, Note_on_c, 0, 81, 75
2, 69191, Note_on_c, 0, 81, 0
2, 69192, Note_on_c, 0, 78, 75
2, 69215, Note_on_c, 0, 78, 0
2, 69216, Note_on_c, 0, 76, 75
2, 69239, Note_on_c, 0, 76, 0
2, 69240, Note_on_c, 0, 74, 75
2, 69263, Note_on_c, 0, 74, 0
2, 69264, Note_on_c, 0, 73, 75
2, 69287, Note_on_c, 0, 73, 0
2, 69288, Note_on_c, 0, 71, 75
2, 69311, Note_on_c, 0, 71, 0
2, 69312, Note_on_c, 0, 69, 75
2, 69335, Note_on_c, 0, 69, 0
2, 69336, Note_on_c, 0, 68, 75
2, 69359, Note_on_c, 0, 68, 0
2, 69360, Note_on_c, 0, 69, 75
2, 69383, Note_on_c, 0, 69, 0
2, 69384, Note_on_c, 0, 71, 75
2, 69407, Note_on_c, 0, 71, 0
2, 69408, Note_on_c, 0, 69, 75
2, 69431, Note_on_c, 0, 69, 0
2, 69432, Note_on_c, 0, 67, 75
2, 69455, Note_on_c, 0, 67, 0
2, 69456, Note_on_c, 0, 66, 75
2, 69479, Note_on_c, 0, 66, 0
2, 69480, Note_on_c, 0, 64, 75
2, 69503, Note_on_c, 0, 64, 0
2, 69504, Note_on_c, 0, 66, 75
2, 69527, Note_on_c, 0, 66, 0
2, 69528, Note_on_c, 0, 67, 75
2, 69551, Note_on_c, 0, 67, 0
2, 69552, Note_on_c, 0, 69, 75
2, 69575, Note_on_c, 0, 69, 0
2, 69576, Note_on_c, 0, 66, 75
2, 69599, Note_on_c, 0, 66, 0
2, 69600, Note_on_c, 0, 64, 75
2, 69623, Note_on_c, 0, 64, 0
2, 69624, Note_on_c, 0, 62, 75
2, 69647, Note_on_c, 0, 62, 0
2, 69648, Note_on_c, 0, 61, 75
2, 69671, Note_on_c, 0, 61, 0
2, 69672, Note_on_c, 0, 59, 75
2, 69695, Note_on_c, 0, 59, 0
2, 69888, Note_on_c, 0, 78, 75
2, 69911, Note_on_c, 0, 78, 0
2, 69912, Note_on_c, 0, 79, 75
2, 69935, Note_on_c, 0, 79, 0
2, 69936, Note_on_c, 0, 81, 75
2, 69959, Note_on_c, 0, 81, 0
2, 69960, Note_on_c, 0, 78, 75
2, 69983, Note_on_c, 0, 78, 0
2, 69984, Note_on_c, 0, 76, 75
2, 70007, Note_on_c, 0, 76, 0
2, 70008, Note_on_c, 0, 74, 75
2, 70031, Note_on_c, 0, 74, 0
2, 70032, Note_on_c, 0, 73, 75
2, 70055, Note_on_c, 0, 73, 0
2, 70056, Note_on_c, 0, 74, 75
2, 70079, Note_on_c, 0, 74, 0
2, 70080, Note_on_c, 0, 83, 75
2, 70103, Note_on_c, 0, 83, 0
2, 70104, Note_on_c, 0, 85, 75
2, 70127, Note_on_c, 0, 85, 0
2, 70128, Note_on_c, 0, 86, 75
2, 70151, Note_on_c, 0, 86, 0
2, 70152, Note_on_c, 0, 83, 75
2, 70175, Note_on_c, 0, 83, 0
2, 70176, Note_on_c, 0, 81, 75
2, 70199, Note_on_c, 0, 81, 0
2, 70200, Note_on_c, 0, 79, 75
2, 70223, Note_on_c, 0, 79, 0
2, 70224, Note_on_c, 0, 78, 75
2, 70247, Note_on_c, 0, 78, 0
2, 70248, Note_on_c, 0, 76, 75
2, 70271, Note_on_c, 0, 76, 0
2, 70272, Note_on_c, 0, 75, 75
2, 70296, Note_on_c, 0, 75, 0
2, 70296, Note_on_c, 0, 76, 75
2, 70319, Note_on_c, 0, 76, 0
2, 70320, Note_on_c, 0, 78, 75
2, 70344, Note_on_c, 0, 78, 0
2, 70344, Note_on_c, 0, 76, 75
2, 70354, Note_on_c, 0, 76, 0
2, 70368, Note_on_c, 0, 79, 75
2, 70392, Note_on_c, 0, 79, 0
2, 70392, Note_on_c, 0, 78, 75
2, 70402, Note_on_c, 0, 78, 0
2, 70416, Note_on_c, 0, 81, 75
2, 70440, Note_on_c, 0, 81, 0
2, 70440, Note_on_c, 0, 79, 75
2, 70450, Note_on_c, 0, 79, 0
2, 70464, Note_on_c, 0, 83, 75
2, 70509, Note_on_c, 0, 83, 0
2, 70560, Note_on_c, 0, 81, 75
2, 70583, Note_on_c, 0, 81, 0
2, 70584, Note_on_c, 0, 79, 75
2, 70607, Note_on_c, 0, 79, 0
2, 70608, Note_on_c, 0, 78, 75
2, 70631, Note_on_c, 0, 78, 0
2, 70632, Note_on_c, 0, 76, 75
2, 70655, Note_on_c, 0, 76, 0
2, 70656, Note_on_c, 0, 74, 75
2, 70745, Note_on_c, 0, 74, 0
2, 70752, Note_on_c, 0, 76, 75
2, 70763, Note_on_c, 0, 76, 0
2, 70763, Note_on_c, 0, 78, 75
2, 70774, Note_on_c, 0, 78, 0
2, 70774, Note_on_c, 0, 76, 75
2, 70785, Note_on_c, 0, 76, 0
2, 70785, Note_on_c, 0, 78, 75
2, 70796, Note_on_c, 0, 78, 0
2, 70796, Note_on_c, 0, 76, 75
2, 70807, Note_on_c, 0, 76, 0
2, 70807, Note_on_c, 0, 78, 75
2, 70818, Note_on_c, 0, 78, 0
2, 70818, Note_on_c, 0, 76, 75
2, 70828, Note_on_c, 0, 76, 0
2, 70828, Note_on_c, 0, 74, 75
2, 70838, Note_on_c, 0, 74, 0
2, 70838, Note_on_c, 0, 76, 75
2, 70848, Note_on_c, 0, 76, 0
2, 70848, Note_on_c, 0, 78, 75
2, 70871, Note_on_c, 0, 78, 0
2, 70872, Note_on_c, 0, 79, 75
2, 70895, Note_on_c, 0, 79, 0
2, 70896, Note_on_c, 0, 81, 75
2, 70919, Note_on_c, 0, 81, 0
2, 70920, Note_on_c, 0, 78, 75
2, 70943, Note_on_c, 0, 78, 0
2, 70944, Note_on_c, 0, 76, 75
2, 70967, Note_on_c, 0, 76, 0
2, 70968, Note_on_c, 0, 74, 75
2, 70991, Note_on_c, 0, 74, 0
2, 70992, Note_on_c, 0, 73, 75
2, 71015, Note_on_c, 0, 73, 0
2, 71016, Note_on_c, 0, 74, 75
2, 71039, Note_on_c, 0, 74, 0
2, 71040, Note_on_c, 0, 83, 75
2, 71063, Note_on_c, 0, 83, 0
2, 71064, Note_on_c, 0, 85, 75
2, 71087, Note_on_c, 0, 85, 0
2, 71088, Note_on_c, 0, 86, 75
2, 71111, Note_on_c, 0, 86, 0
2, 71112, Note_on_c, 0, 85, 75
2, 71135, Note_on_c, 0, 85, 0
2, 71136, Note_on_c, 0, 83, 75
2, 71159, Note_on_c, 0, 83, 0
2, 71160, Note_on_c, 0, 81, 75
2, 71183, Note_on_c, 0, 81, 0
2, 71184, Note_on_c, 0, 79, 75
2, 71207, Note_on_c, 0, 79, 0
2, 71208, Note_on_c, 0, 78, 75
2, 71231, Note_on_c, 0, 78, 0
2, 71232, Note_on_c, 0, 76, 75
2, 71255, Note_on_c, 0, 76, 0
2, 71256, Note_on_c, 0, 78, 75
2, 71279, Note_on_c, 0, 78, 0
2, 71280, Note_on_c, 0, 79, 75
2, 71303, Note_on_c, 0, 79, 0
2, 71304, Note_on_c, 0, 76, 75
2, 71327, Note_on_c, 0, 76, 0
2, 71328, Note_on_c, 0, 74, 75
2, 71351, Note_on_c, 0, 74, 0
2, 71352, Note_on_c, 0, 73, 75
2, 71375, Note_on_c, 0, 73, 0
2, 71376, Note_on_c, 0, 71, 75
2, 71399, Note_on_c, 0, 71, 0
2, 71400, Note_on_c, 0, 73, 75
2, 71423, Note_on_c, 0, 73, 0
2, 71424, Note_on_c, 0, 81, 75
2, 71447, Note_on_c, 0, 81, 0
2, 71448, Note_on_c, 0, 83, 75
2, 71471, Note_on_c, 0, 83, 0
2, 71472, Note_on_c, 0, 85, 75
2, 71495, Note_on_c, 0, 85, 0
2, 71496, Note_on_c, 0, 83, 75
2, 71519, Note_on_c, 0, 83, 0
2, 71520, Note_on_c, 0, 81, 75
2, 71543, Note_on_c, 0, 81, 0
2, 71544, Note_on_c, 0, 79, 75
2, 71567, Note_on_c, 0, 79, 0
2, 71568, Note_on_c, 0, 78, 75
2, 71591, Note_on_c, 0, 78, 0
2, 71592, Note_on_c, 0, 76, 75
2, 71615, Note_on_c, 0, 76, 0
2, 71616, Note_on_c, 0, 74, 75
2, 71639, Note_on_c, 0, 74, 0
2, 71640, Note_on_c, 0, 76, 75
2, 71663, Note_on_c, 0, 76, 0
2, 71664, Note_on_c, 0, 78, 75
2, 71687, Note_on_c, 0, 78, 0
2, 71688, Note_on_c, 0, 74, 75
2, 71711, Note_on_c, 0, 74, 0
2, 71712, Note_on_c, 0, 73, 75
2, 71735, Note_on_c, 0, 73, 0
2, 71736, Note_on_c, 0, 71, 75
2, 71759, Note_on_c, 0, 71, 0
2, 71760, Note_on_c, 0, 70, 75
2, 71783, Note_on_c, 0, 70, 0
2, 71784, Note_on_c, 0, 71, 75
2, 71807, Note_on_c, 0, 71, 0
2, 71808, Note_on_c, 0, 79, 75
2, 71831, Note_on_c, 0, 79, 0
2, 71832, Note_on_c, 0, 81, 75
2, 71855, Note_on_c, 0, 81, 0
2, 71856, Note_on_c, 0, 83, 75
2, 71879, Note_on_c, 0, 83, 0
2, 71880, Note_on_c, 0, 81, 75
2, 71903, Note_on_c, 0, 81, 0
2, 71904, Note_on_c, 0, 79, 75
2, 71927, Note_on_c, 0, 79, 0
2, 71928, Note_on_c, 0, 78, 75
2, 71951, Note_on_c, 0, 78, 0
2, 71952, Note_on_c, 0, 76, 75
2, 71975, Note_on_c, 0, 76, 0
2, 71976, Note_on_c, 0, 74, 75
2, 71999, Note_on_c, 0, 74, 0
2, 72000, Note_on_c, 0, 73, 75
2, 72023, Note_on_c, 0, 73, 0
2, 72024, Note_on_c, 0, 74, 75
2, 72047, Note_on_c, 0, 74, 0
2, 72048, Note_on_c, 0, 76, 75
2, 72071, Note_on_c, 0, 76, 0
2, 72072, Note_on_c, 0, 74, 75
2, 72095, Note_on_c, 0, 74, 0
2, 72096, Note_on_c, 0, 73, 75
2, 72119, Note_on_c, 0, 73, 0
2, 72120, Note_on_c, 0, 71, 75
2, 72143, Note_on_c, 0, 71, 0
2, 72144, Note_on_c, 0, 69, 75
2, 72167, Note_on_c, 0, 69, 0
2, 72168, Note_on_c, 0, 67, 75
2, 72191, Note_on_c, 0, 67, 0
2, 72192, Note_on_c, 0, 66, 75
2, 72215, Note_on_c, 0, 66, 0
2, 72216, Note_on_c, 0, 67, 75
2, 72239, Note_on_c, 0, 67, 0
2, 72240, Note_on_c, 0, 69, 75
2, 72263, Note_on_c, 0, 69, 0
2, 72264, Note_on_c, 0, 66, 75
2, 72287, Note_on_c, 0, 66, 0
2, 72288, Note_on_c, 0, 64, 75
2, 72311, Note_on_c, 0, 64, 0
2, 72312, Note_on_c, 0, 62, 75
2, 72335, Note_on_c, 0, 62, 0
2, 72336, Note_on_c, 0, 61, 75
2, 72359, Note_on_c, 0, 61, 0
2, 72360, Note_on_c, 0, 62, 75
2, 72383, Note_on_c, 0, 62, 0
2, 72384, Note_on_c, 0, 71, 75
2, 72407, Note_on_c, 0, 71, 0
2, 72408, Note_on_c, 0, 73, 75
2, 72431, Note_on_c, 0, 73, 0
2, 72432, Note_on_c, 0, 74, 75
2, 72455, Note_on_c, 0, 74, 0
2, 72456, Note_on_c, 0, 71, 75
2, 72479, Note_on_c, 0, 71, 0
2, 72480, Note_on_c, 0, 69, 75
2, 72503, Note_on_c, 0, 69, 0
2, 72504, Note_on_c, 0, 67, 75
2, 72527, Note_on_c, 0, 67, 0
2, 72528, Note_on_c, 0, 66, 75
2, 72551, Note_on_c, 0, 66, 0
2, 72552, Note_on_c, 0, 64, 75
2, 72575, Note_on_c, 0, 64, 0
2, 72576, Note_on_c, 0, 63, 75
2, 72600, Note_on_c, 0, 63, 0
2, 72600, Note_on_c, 0, 64, 75
2, 72623, Note_on_c, 0, 64, 0
2, 72624, Note_on_c, 0, 66, 75
2, 72648, Note_on_c, 0, 66, 0
2, 72648, Note_on_c, 0, 64, 75
2, 72658, Note_on_c, 0, 64, 0
2, 72672, Note_on_c, 0, 67, 75
2, 72696, Note_on_c, 0, 67, 0
2, 72696, Note_on_c, 0, 66, 75
2, 72706, Note_on_c, 0, 66, 0
2, 72720, Note_on_c, 0, 69, 75
2, 72744, Note_on_c, 0, 69, 0
2, 72744, Note_on_c, 0, 67, 75
2, 72754, Note_on_c, 0, 67, 0
2, 72768, Note_on_c, 0, 71, 75
2, 72813, Note_on_c, 0, 71, 0
2, 72864, Note_on_c, 0, 79, 75
2, 72888, Note_on_c, 0, 79, 0
2, 72888, Note_on_c, 0, 78, 75
2, 72898, Note_on_c, 0, 78, 0
2, 72912, Note_on_c, 0, 81, 75
2, 72936, Note_on_c, 0, 81, 0
2, 72936, Note_on_c, 0, 79, 75
2, 72946, Note_on_c, 0, 79, 0
2, 72960, Note_on_c, 0, 83, 75
2, 73005, Note_on_c, 0, 83, 0
2, 73056, Note_on_c, 0, 55, 75
2, 73080, Note_on_c, 0, 55, 0
2, 73080, Note_on_c, 0, 54, 75
2, 73090, Note_on_c, 0, 54, 0
2, 73104, Note_on_c, 0, 57, 75
2, 73128, Note_on_c, 0, 57, 0
2, 73128, Note_on_c, 0, 55, 75
2, 73138, Note_on_c, 0, 55, 0
2, 73152, Note_on_c, 0, 59, 75
2, 73197, Note_on_c, 0, 59, 0
2, 73296, Note_on_c, 0, 63, 84
2, 73308, Note_on_c, 0, 63, 0
2, 73308, Note_on_c, 0, 75, 84
2, 73341, Note_on_c, 0, 75, 0
2, 73344, Note_on_c, 0, 64, 84
2, 73356, Note_on_c, 0, 64, 0
2, 73356, Note_on_c, 0, 76, 84
2, 73389, Note_on_c, 0, 76, 0
2, 73392, Note_on_c, 0, 66, 84
2, 73404, Note_on_c, 0, 66, 0
2, 73404, Note_on_c, 0, 78, 84
2, 73437, Note_on_c, 0, 78, 0
2, 73440, Note_on_c, 0, 67, 84
2, 73452, Note_on_c, 0, 67, 0
2, 73452, Note_on_c, 0, 79, 84
2, 73485, Note_on_c, 0, 79, 0
2, 73488, Note_on_c, 0, 70, 84
2, 73500, Note_on_c, 0, 70, 0
2, 73500, Note_on_c, 0, 82, 84
2, 73533, Note_on_c, 0, 82, 0
2, 73536, Note_on_c, 0, 71, 84
2, 73548, Note_on_c, 0, 71, 0
2, 73548, Note_on_c, 0, 83, 84
2, 73581, Note_on_c, 0, 83, 0
2, 73584, Note_on_c, 0, 73, 84
2, 73596, Note_on_c, 0, 73, 0
2, 73596, Note_on_c, 0, 85, 84
2, 73629, Note_on_c, 0, 85, 0
2, 73632, Note_on_c, 0, 74, 84
2, 73644, Note_on_c, 0, 74, 0
2, 73644, Note_on_c, 0, 86, 84
2, 73677, Note_on_c, 0, 86, 0
2, 73680, Note_on_c, 0, 68, 84
2, 73692, Note_on_c, 0, 68, 0
2, 73692, Note_on_c, 0, 80, 84
2, 73725, Note_on_c, 0, 80, 0
2, 73728, Note_on_c, 0, 69, 84
2, 73740, Note_on_c, 0, 69, 0
2, 73740, Note_on_c, 0, 81, 84
2, 73861, Note_on_c, 0, 81, 0
2, 73872, Note_on_c, 0, 79, 84
2, 73884, Note_on_c, 0, 79, 0
2, 73884, Note_on_c, 0, 78, 84
2, 73896, Note_on_c, 0, 78, 0
2, 73896, Note_on_c, 0, 76, 84
2, 73908, Note_on_c, 0, 76, 0
2, 73908, Note_on_c, 0, 74, 84
2, 73920, Note_on_c, 0, 74, 0
2, 73920, Note_on_c, 0, 76, 84
2, 73932, Note_on_c, 0, 76, 0
2, 73933, Note_on_c, 0, 78, 84
2, 73945, Note_on_c, 0, 78, 0
2, 73946, Note_on_c, 0, 76, 84
2, 73958, Note_on_c, 0, 76, 0
2, 73959, Note_on_c, 0, 78, 84
2, 73971, Note_on_c, 0, 78, 0
2, 73972, Note_on_c, 0, 76, 84
2, 73984, Note_on_c, 0, 76, 0
2, 73985, Note_on_c, 0, 78, 84
2, 73997, Note_on_c, 0, 78, 0
2, 73998, Note_on_c, 0, 76, 84
2, 74010, Note_on_c, 0, 76, 0
2, 74011, Note_on_c, 0, 78, 84
2, 74023, Note_on_c, 0, 78, 0
2, 74024, Note_on_c, 0, 76, 84
2, 74036, Note_on_c, 0, 76, 0
2, 74037, Note_on_c, 0, 78, 84
2, 74049, Note_on_c, 0, 78, 0
2, 74050, Note_on_c, 0, 76, 84
2, 74062, Note_on_c, 0, 76, 0
2, 74063, Note_on_c, 0, 74, 84
2, 74088, Note_on_c, 0, 74, 0
2, 74088, Note_on_c, 0, 76, 84
2, 74112, Note_on_c, 0, 76, 0
2, 74112, Note_on_c, 0, 74, 84
2, 74201, Note_on_c, 0, 74, 0
2, 74256, Note_on_c, 0, 69, 84
2, 74301, Note_on_c, 0, 69, 0
2, 74304, Note_on_c, 0, 71, 84
2, 74316, Note_on_c, 0, 71, 0
2, 74316, Note_on_c, 0, 73, 84
2, 74328, Note_on_c, 0, 73, 0
2, 74328, Note_on_c, 0, 71, 84
2, 74349, Note_on_c, 0, 71, 0
2, 74352, Note_on_c, 0, 69, 84
2, 74397, Note_on_c, 0, 69, 0
2, 74400, Note_on_c, 0, 71, 84
2, 74412, Note_on_c, 0, 71, 0
2, 74412, Note_on_c, 0, 73, 84
2, 74424, Note_on_c, 0, 73, 0
2, 74424, Note_on_c, 0, 71, 84
2, 74445, Note_on_c, 0, 71, 0
2, 74448, Note_on_c, 0, 69, 84
2, 74493, Note_on_c, 0, 69, 0
2, 74496, Note_on_c, 0, 69, 100
2, 74508, Note_on_c, 0, 73, 100
2, 74520, Note_on_c, 0, 76, 100
2, 74532, Note_on_c, 0, 79, 100
2, 74592, Note_on_c, 0, 79, 0
2, 74592, Note_on_c, 0, 76, 0
2, 74592, Note_on_c, 0, 73, 0
2, 74592, Note_on_c, 0, 69, 0
2, 74640, Note_on_c, 0, 78, 84
2, 74685, Note_on_c, 0, 78, 0
2, 74688, Note_on_c, 0, 78, 84
2, 74700, Note_on_c, 0, 78, 0
2, 74700, Note_on_c, 0, 76, 84
2, 74712, Note_on_c, 0, 76, 0
2, 74712, Note_on_c, 0, 75, 84
2, 74724, Note_on_c, 0, 75, 0
2, 74724, Note_on_c, 0, 76, 84
2, 74736, Note_on_c, 0, 76, 0
2, 74736, Note_on_c, 0, 79, 84
2, 74781, Note_on_c, 0, 79, 0
2, 74784, Note_on_c, 0, 71, 84
2, 74796, Note_on_c, 0, 71, 0
2, 74796, Note_on_c, 0, 69, 84
2, 74808, Note_on_c, 0, 69, 0
2, 74808, Note_on_c, 0, 68, 84
2, 74820, Note_on_c, 0, 68, 0
2, 74820, Note_on_c, 0, 69, 84
2, 74832, Note_on_c, 0, 69, 0
2, 74832, Note_on_c, 0, 73, 84
2, 74832, Note_on_c, 0, 67, 84
2, 74877, Note_on_c, 0, 73, 0
2, 74877, Note_on_c, 0, 67, 0
2, 74880, Note_on_c, 0, 74, 84
2, 74880, Note_on_c, 0, 66, 84
2, 74969, Note_on_c, 0, 74, 0
2, 74969, Note_on_c, 0, 66, 0
2, 75024, Note_on_c, 0, 69, 84
2, 75069, Note_on_c, 0, 69, 0
2, 75072, Note_on_c, 0, 71, 84
2, 75084, Note_on_c, 0, 71, 0
2, 75084, Note_on_c, 0, 73, 84
2, 75096, Note_on_c, 0, 73, 0
2, 75096, Note_on_c, 0, 71, 84
2, 75117, Note_on_c, 0, 71, 0
2, 75120, Note_on_c, 0, 69, 84
2, 75165, Note_on_c, 0, 69, 0
2, 75168, Note_on_c, 0, 71, 84
2, 75180, Note_on_c, 0, 71, 0
2, 75180, Note_on_c, 0, 73, 84
2, 75192, Note_on_c, 0, 73, 0
2, 75192, Note_on_c, 0, 71, 84
2, 75213, Note_on_c, 0, 71, 0
2, 75216, Note_on_c, 0, 69, 84
2, 75261, Note_on_c, 0, 69, 0
2, 75264, Note_on_c, 0, 69, 100
2, 75276, Note_on_c, 0, 73, 100
2, 75288, Note_on_c, 0, 76, 100
2, 75300, Note_on_c, 0, 79, 100
2, 75360, Note_on_c, 0, 79, 0
2, 75360, Note_on_c, 0, 76, 0
2, 75360, Note_on_c, 0, 73, 0
2, 75360, Note_on_c, 0, 69, 0
2, 75408, Note_on_c, 0, 78, 84
2, 75453, Note_on_c, 0, 78, 0
2, 75456, Note_on_c, 0, 78, 84
2, 75468, Note_on_c, 0, 78, 0
2, 75468, Note_on_c, 0, 76, 84
2, 75480, Note_on_c, 0, 76, 0
2, 75480, Note_on_c, 0, 75, 84
2, 75492, Note_on_c, 0, 75, 0
2, 75492, Note_on_c, 0, 76, 84
2, 75504, Note_on_c, 0, 76, 0
2, 75504, Note_on_c, 0, 79, 84
2, 75549, Note_on_c, 0, 79, 0
2, 75552, Note_on_c, 0, 71, 84
2, 75564, Note_on_c, 0, 71, 0
2, 75564, Note_on_c, 0, 69, 84
2, 75576, Note_on_c, 0, 69, 0
2, 75576, Note_on_c, 0, 68, 84
2, 75588, Note_on_c, 0, 68, 0
2, 75588, Note_on_c, 0, 69, 84
2, 75600, Note_on_c, 0, 69, 0
2, 75600, Note_on_c, 0, 73, 84
2, 75600, Note_on_c, 0, 67, 84
2, 75645, Note_on_c, 0, 73, 0
2, 75645, Note_on_c, 0, 67, 0
2, 75648, Note_on_c, 0, 74, 84
2, 75648, Note_on_c, 0, 66, 84
2, 75693, Note_on_c, 0, 74, 0
2, 75693, Note_on_c, 0, 66, 0
2, 75768, Note_on_c, 0, 57, 81
2, 75791, Note_on_c, 0, 57, 0
2, 75792, Note_on_c, 0, 61, 78
2, 75815, Note_on_c, 0, 61, 0
2, 75816, Note_on_c, 0, 69, 76
2, 75839, Note_on_c, 0, 69, 0
2, 75864, Note_on_c, 0, 57, 71
2, 75887, Note_on_c, 0, 57, 0
2, 75888, Note_on_c, 0, 62, 68
2, 75911, Note_on_c, 0, 62, 0
2, 75912, Note_on_c, 0, 69, 65
2, 75935, Note_on_c, 0, 69, 0
2, 75960, Note_on_c, 0, 52, 60
2, 75983, Note_on_c, 0, 52, 0
2, 75984, Note_on_c, 0, 55, 58
2, 76007, Note_on_c, 0, 55, 0
2, 76008, Note_on_c, 0, 61, 55
2, 76031, Note_on_c, 0, 61, 0
2, 76032, Note_on_c, 0, 62, 53
2, 76032, Note_on_c, 0, 54, 53
2, 76121, Note_on_c, 0, 62, 0
2, 76121, Note_on_c, 0, 54, 0
2, 76224, End_track
3, 0, Start_track
3, 0, Program_c, 0, 0
3, 0, Control_c, 0, 7, 127
3, 0, Control_c, 0, 10, 64
3, 768, Note_on_c, 0, 76, 75
3, 813, Note_on_c, 0, 76, 0
3, 816, Note_on_c, 0, 74, 75
3, 861, Note_on_c, 0, 74, 0
3, 14592, Note_on_c, 0, 76, 75
3, 14637, Note_on_c, 0, 76, 0
3, 14640, Note_on_c, 0, 74, 75
3, 14685, Note_on_c, 0, 74, 0
3, 37824, Note_on_c, 0, 76, 75
3, 37869, Note_on_c, 0, 76, 0
3, 37872, Note_on_c, 0, 74, 75
3, 37917, Note_on_c, 0, 74, 0
3, 62016, Note_on_c, 0, 76, 75
3, 62061, Note_on_c, 0, 76, 0
3, 62064, Note_on_c, 0, 74, 75
3, 62109, Note_on_c, 0, 74, 0
3, 76224, End_track
4, 0, Start_track
4, 0, Program_c, 1, 0
4, 0, Control_c, 1, 7, 127
4, 0, Control_c, 1, 10, 64
4, 192, Note_on_c, 1, 50, 75
4, 192, Note_on_c, 1, 38, 75
4, 281, Note_on_c, 1, 50, 0
4, 281, Note_on_c, 1, 38, 0
4, 336, Note_on_c, 1, 66, 75
4, 336, Note_on_c, 1, 62, 75
4, 356, Note_on_c, 1, 66, 0
4, 356, Note_on_c, 1, 62, 0
4, 384, Note_on_c, 1, 67, 75
4, 384, Note_on_c, 1, 62, 75
4, 404, Note_on_c, 1, 67, 0
4, 404, Note_on_c, 1, 62, 0
4, 432, Note_on_c, 1, 66, 75
4, 432, Note_on_c, 1, 62, 75
4, 452, Note_on_c, 1, 66, 0
4, 452, Note_on_c, 1, 62, 0
4, 576, Note_on_c, 1, 50, 75
4, 576, Note_on_c, 1, 38, 75
4, 665, Note_on_c, 1, 50, 0
4, 665, Note_on_c, 1, 38, 0
4, 720, Note_on_c, 1, 62, 75
4, 740, Note_on_c, 1, 62, 0
4, 768, Note_on_c, 1, 57, 75
4, 788, Note_on_c, 1, 57, 0
4, 816, Note_on_c, 1, 62, 75
4, 836, Note_on_c, 1, 62, 0
4, 1008, Note_on_c, 1, 62, 75
4, 1008, Note_on_c, 1, 54, 75
4, 1028, Note_on_c, 1, 62, 0
4, 1028, Note_on_c, 1, 54, 0
4, 1056, Note_on_c, 1, 62, 75
4, 1056, Note_on_c, 1, 54, 75
4, 1076, Note_on_c, 1, 62, 0
4, 1076, Note_on_c, 1, 54, 0
4, 1200, Note_on_c, 1, 62, 69
4, 1200, Note_on_c, 1, 55, 69
4, 1220, Note_on_c, 1, 62, 0
4, 1220, Note_on_c, 1, 55, 0
4, 1248, Note_on_c, 1, 62, 69
4, 1248, Note_on_c, 1, 55, 69
4, 1268, Note_on_c, 1, 62, 0
4, 1268, Note_on_c, 1, 55, 0
4, 1344, Note_on_c, 1, 57, 75
4, 1433, Note_on_c, 1, 57, 0
4, 1440, Note_on_c, 1, 45, 75
4, 1529, Note_on_c, 1, 45, 0
4, 1536, Note_on_c, 1, 50, 75
4, 1625, Note_on_c, 1, 50, 0
4, 1632, Note_on_c, 1, 38, 75
4, 1677, Note_on_c, 1, 38, 0
4, 1776, Note_on_c, 1, 62, 69
4, 1776, Note_on_c, 1, 54, 69
4, 1796, Note_on_c, 1, 62, 0
4, 1796, Note_on_c, 1, 54, 0
4, 1824, Note_on_c, 1, 62, 69
4, 1824, Note_on_c, 1, 54, 69
4, 1844, Note_on_c, 1, 62, 0
4, 1844, Note_on_c, 1, 54, 0
4, 1968, Note_on_c, 1, 62, 69
4, 1968, Note_on_c, 1, 55, 69
4, 1988, Note_on_c, 1, 62, 0
4, 1988, Note_on_c, 1, 55, 0
4, 2016, Note_on_c, 1, 62, 69
4, 2016, Note_on_c, 1, 55, 69
4, 2036, Note_on_c, 1, 62, 0
4, 2036, Note_on_c, 1, 55, 0
4, 2112, Note_on_c, 1, 57, 75
4, 2157, Note_on_c, 1, 57, 0
4, 2208, Note_on_c, 1, 45, 75
4, 2253, Note_on_c, 1, 45, 0
4, 2304, Note_on_c, 1, 38, 75
4, 2393, Note_on_c, 1, 38, 0
4, 2736, Note_on_c, 1, 56, 75
4, 2784, Note_on_c, 1, 56, 0
4, 2784, Note_on_c, 1, 57, 75
4, 2829, Note_on_c, 1, 57, 0
4, 3120, Note_on_c, 1, 49, 75
4, 3168, Note_on_c, 1, 49, 0
4, 3168, Note_on_c, 1, 50, 75
4, 3213, Note_on_c, 1, 50, 0
4, 3456, Note_on_c, 1, 55, 61
4, 3479, Note_on_c, 1, 55, 0
4, 3480, Note_on_c, 1, 62, 61
4, 3503, Note_on_c, 1, 62, 0
4, 3504, Note_on_c, 1, 55, 61
4, 3527, Note_on_c, 1, 55, 0
4, 3528, Note_on_c, 1, 62, 61
4, 3551, Note_on_c, 1, 62, 0
4, 3552, Note_on_c, 1, 54, 61
4, 3575, Note_on_c, 1, 54, 0
4, 3576, Note_on_c, 1, 62, 61
4, 3599, Note_on_c, 1, 62, 0
4, 3600, Note_on_c, 1, 54, 61
4, 3623, Note_on_c, 1, 54, 0
4, 3624, Note_on_c, 1, 62, 61
4, 3647, Note_on_c, 1, 62, 0
4, 3648, Note_on_c, 1, 59, 61
4, 3671, Note_on_c, 1, 59, 0
4, 3672, Note_on_c, 1, 62, 61
4, 3695, Note_on_c, 1, 62, 0
4, 3696, Note_on_c, 1, 59, 61
4, 3719, Note_on_c, 1, 59, 0
4, 3720, Note_on_c, 1, 62, 61
4, 3743, Note_on_c, 1, 62, 0
4, 3744, Note_on_c, 1, 57, 61
4, 3767, Note_on_c, 1, 57, 0
4, 3768, Note_on_c, 1, 62, 61
4, 3791, Note_on_c, 1, 62, 0
4, 3792, Note_on_c, 1, 57, 61
4, 3815, Note_on_c, 1, 57, 0
4, 3816, Note_on_c, 1, 62, 61
4, 3839, Note_on_c, 1, 62, 0
4, 3840, Note_on_c, 1, 55, 61
4, 3863, Note_on_c, 1, 55, 0
4, 3864, Note_on_c, 1, 62, 61
4, 3887, Note_on_c, 1, 62, 0
4, 3888, Note_on_c, 1, 55, 61
4, 3911, Note_on_c, 1, 55, 0
4, 3912, Note_on_c, 1, 62, 61
4, 3935, Note_on_c, 1, 62, 0
4, 3936, Note_on_c, 1, 54, 61
4, 3959, Note_on_c, 1, 54, 0
4, 3960, Note_on_c, 1, 62, 61
4, 3983, Note_on_c, 1, 62, 0
4, 3984, Note_on_c, 1, 54, 61
4, 4007, Note_on_c, 1, 54, 0
4, 4008, Note_on_c, 1, 62, 61
4, 4031, Note_on_c, 1, 62, 0
4, 4032, Note_on_c, 1, 59, 61
4, 4055, Note_on_c, 1, 59, 0
4, 4056, Note_on_c, 1, 62, 61
4, 4079, Note_on_c, 1, 62, 0
4, 4080, Note_on_c, 1, 59, 61
4, 4103, Note_on_c, 1, 59, 0
4, 4104, Note_on_c, 1, 62, 61
4, 4127, Note_on_c, 1, 62, 0
4, 4128, Note_on_c, 1, 57, 61
4, 4151, Note_on_c, 1, 57, 0
4, 4152, Note_on_c, 1, 62, 61
4, 4175, Note_on_c, 1, 62, 0
4, 4176, Note_on_c, 1, 57, 61
4, 4199, Note_on_c, 1, 57, 0
4, 4200, Note_on_c, 1, 62, 61
4, 4223, Note_on_c, 1, 62, 0
4, 4224, Note_on_c, 1, 55, 75
4, 4313, Note_on_c, 1, 55, 0
4, 4368, Note_on_c, 1, 55, 75
4, 4368, Note_on_c, 1, 43, 75
4, 4413, Note_on_c, 1, 55, 0
4, 4413, Note_on_c, 1, 43, 0
4, 4416, Note_on_c, 1, 54, 75
4, 4416, Note_on_c, 1, 45, 75
4, 4608, Note_on_c, 1, 54, 0
4, 4608, Note_on_c, 1, 52, 63
4, 4653, Note_on_c, 1, 52, 0
4, 4653, Note_on_c, 1, 45, 0
4, 4800, Note_on_c, 1, 57, 84
4, 4800, Note_on_c, 1, 52, 84
4, 4800, Note_on_c, 1, 49, 84
4, 4800, Note_on_c, 1, 45, 84
4, 4845, Note_on_c, 1, 57, 0
4, 4845, Note_on_c, 1, 52, 0
4, 4845, Note_on_c, 1, 49, 0
4, 4845, Note_on_c, 1, 45, 0
4, 4896, Note_on_c, 1, 57, 84
4, 4896, Note_on_c, 1, 52, 84
4, 4896, Note_on_c, 1, 49, 84
4, 4896, Note_on_c, 1, 45, 84
4, 4941, Note_on_c, 1, 57, 0
4, 4941, Note_on_c, 1, 52, 0
4, 4941, Note_on_c, 1, 49, 0
4, 4941, Note_on_c, 1, 45, 0
4, 4992, Note_on_c, 1, 57, 84
4, 4992, Note_on_c, 1, 52, 84
4, 4992, Note_on_c, 1, 49, 84
4, 4992, Note_on_c, 1, 45, 84
4, 5037, Note_on_c, 1, 57, 0
4, 5037, Note_on_c, 1, 52, 0
4, 5037, Note_on_c, 1, 49, 0
4, 5037, Note_on_c, 1, 45, 0
4, 5184, Note_on_c, 1, 45, 75
4, 5207, Note_on_c, 1, 45, 0
4, 5208, Note_on_c, 1, 52, 75
4, 5231, Note_on_c, 1, 52, 0
4, 5232, Note_on_c, 1, 50, 75
4, 5255, Note_on_c, 1, 50, 0
4, 5256, Note_on_c, 1, 52, 75
4, 5279, Note_on_c, 1, 52, 0
4, 5280, Note_on_c, 1, 49, 75
4, 5303, Note_on_c, 1, 49, 0
4, 5304, Note_on_c, 1, 52, 75
4, 5327, Note_on_c, 1, 52, 0
4, 5328, Note_on_c, 1, 45, 75
4, 5351, Note_on_c, 1, 45, 0
4, 5352, Note_on_c, 1, 49, 75
4, 5375, Note_on_c, 1, 49, 0
4, 5376, Note_on_c, 1, 50, 75
4, 5465, Note_on_c, 1, 50, 0
4, 5568, Note_on_c, 1, 51, 75
4, 5591, Note_on_c, 1, 51, 0
4, 5592, Note_on_c, 1, 54, 75
4, 5615, Note_on_c, 1, 54, 0
4, 5616, Note_on_c, 1, 52, 75
4, 5639, Note_on_c, 1, 52, 0
4, 5640, Note_on_c, 1, 54, 75
4, 5663, Note_on_c, 1, 54, 0
4, 5664, Note_on_c, 1, 51, 75
4, 5687, Note_on_c, 1, 51, 0
4, 5688, Note_on_c, 1, 54, 75
4, 5711, Note_on_c, 1, 54, 0
4, 5712, Note_on_c, 1, 47, 75
4, 5735, Note_on_c, 1, 47, 0
4, 5736, Note_on_c, 1, 51, 75
4, 5759, Note_on_c, 1, 51, 0
4, 5760, Note_on_c, 1, 52, 75
4, 5849, Note_on_c, 1, 52, 0
4, 5952, Note_on_c, 1, 54, 61
4, 5975, Note_on_c, 1, 54, 0
4, 5976, Note_on_c, 1, 60, 61
4, 5999, Note_on_c, 1, 60, 0
4, 6000, Note_on_c, 1, 54, 61
4, 6023, Note_on_c, 1, 54, 0
4, 6024, Note_on_c, 1, 60, 61
4, 6047, Note_on_c, 1, 60, 0
4, 6048, Note_on_c, 1, 54, 61
4, 6071, Note_on_c, 1, 54, 0
4, 6072, Note_on_c, 1, 60, 61
4, 6095, Note_on_c, 1, 60, 0
4, 6096, Note_on_c, 1, 54, 61
4, 6119, Note_on_c, 1, 54, 0
4, 6120, Note_on_c, 1, 60, 61
4, 6143, Note_on_c, 1, 60, 0
4, 6144, Note_on_c, 1, 56, 61
4, 6167, Note_on_c, 1, 56, 0
4, 6168, Note_on_c, 1, 59, 61
4, 6191, Note_on_c, 1, 59, 0
4, 6192, Note_on_c, 1, 56, 61
4, 6215, Note_on_c, 1, 56, 0
4, 6216, Note_on_c, 1, 59, 61
4, 6239, Note_on_c, 1, 59, 0
4, 6240, Note_on_c, 1, 56, 61
4, 6263, Note_on_c, 1, 56, 0
4, 6264, Note_on_c, 1, 59, 61
4, 6287, Note_on_c, 1, 59, 0
4, 6288, Note_on_c, 1, 56, 61
4, 6311, Note_on_c, 1, 56, 0
4, 6312, Note_on_c, 1, 59, 61
4, 6335, Note_on_c, 1, 59, 0
4, 6336, Note_on_c, 1, 54, 61
4, 6359, Note_on_c, 1, 54, 0
4, 6360, Note_on_c, 1, 60, 61
4, 6383, Note_on_c, 1, 60, 0
4, 6384, Note_on_c, 1, 54, 61
4, 6407, Note_on_c, 1, 54, 0
4, 6408, Note_on_c, 1, 60, 61
4, 6431, Note_on_c, 1, 60, 0
4, 6432, Note_on_c, 1, 54, 61
4, 6455, Note_on_c, 1, 54, 0
4, 6456, Note_on_c, 1, 60, 61
4, 6479, Note_on_c, 1, 60, 0
4, 6480, Note_on_c, 1, 54, 61
4, 6503, Note_on_c, 1, 54, 0
4, 6504, Note_on_c, 1, 60, 61
4, 6527, Note_on_c, 1, 60, 0
4, 6528, Note_on_c, 1, 56, 61
4, 6551, Note_on_c, 1, 56, 0
4, 6552, Note_on_c, 1, 59, 61
4, 6575, Note_on_c, 1, 59, 0
4, 6576, Note_on_c, 1, 56, 61
4, 6599, Note_on_c, 1, 56, 0
4, 6600, Note_on_c, 1, 59, 61
4, 6623, Note_on_c, 1, 59, 0
4, 6624, Note_on_c, 1, 56, 61
4, 6647, Note_on_c, 1, 56, 0
4, 6648, Note_on_c, 1, 59, 61
4, 6671, Note_on_c, 1, 59, 0
4, 6672, Note_on_c, 1, 56, 61
4, 6695, Note_on_c, 1, 56, 0
4, 6696, Note_on_c, 1, 59, 61
4, 6719, Note_on_c, 1, 59, 0
4, 6720, Note_on_c, 1, 57, 61
4, 6743, Note_on_c, 1, 57, 0
4, 6744, Note_on_c, 1, 61, 61
4, 6767, Note_on_c, 1, 61, 0
4, 6768, Note_on_c, 1, 57, 61
4, 6791, Note_on_c, 1, 57, 0
4, 6792, Note_on_c, 1, 61, 61
4, 6815, Note_on_c, 1, 61, 0
4, 6816, Note_on_c, 1, 57, 61
4, 6839, Note_on_c, 1, 57, 0
4, 6840, Note_on_c, 1, 61, 61
4, 6863, Note_on_c, 1, 61, 0
4, 6864, Note_on_c, 1, 57, 61
4, 6887, Note_on_c, 1, 57, 0
4, 6888, Note_on_c, 1, 61, 61
4, 6911, Note_on_c, 1, 61, 0
4, 6912, Note_on_c, 1, 59, 61
4, 6935, Note_on_c, 1, 59, 0
4, 6936, Note_on_c, 1, 62, 61
4, 6959, Note_on_c, 1, 62, 0
4, 6960, Note_on_c, 1, 59, 61
4, 6983, Note_on_c, 1, 59, 0
4, 6984, Note_on_c, 1, 62, 61
4, 7007, Note_on_c, 1, 62, 0
4, 7008, Note_on_c, 1, 59, 61
4, 7031, Note_on_c, 1, 59, 0
4, 7032, Note_on_c, 1, 62, 61
4, 7055, Note_on_c, 1, 62, 0
4, 7056, Note_on_c, 1, 59, 61
4, 7079, Note_on_c, 1, 59, 0
4, 7080, Note_on_c, 1, 62, 61
4, 7103, Note_on_c, 1, 62, 0
4, 7104, Note_on_c, 1, 61, 61
4, 7127, Note_on_c, 1, 61, 0
4, 7128, Note_on_c, 1, 64, 61
4, 7151, Note_on_c, 1, 64, 0
4, 7152, Note_on_c, 1, 61, 61
4, 7175, Note_on_c, 1, 61, 0
4, 7176, Note_on_c, 1, 64, 61
4, 7199, Note_on_c, 1, 64, 0
4, 7200, Note_on_c, 1, 61, 61
4, 7223, Note_on_c, 1, 61, 0
4, 7224, Note_on_c, 1, 64, 61
4, 7247, Note_on_c, 1, 64, 0
4, 7248, Note_on_c, 1, 61, 61
4, 7271, Note_on_c, 1, 61, 0
4, 7272, Note_on_c, 1, 64, 61
4, 7295, Note_on_c, 1, 64, 0
4, 7296, Note_on_c, 1, 56, 61
4, 7319, Note_on_c, 1, 56, 0
4, 7320, Note_on_c, 1, 64, 61
4, 7343, Note_on_c, 1, 64, 0
4, 7344, Note_on_c, 1, 56, 61
4, 7367, Note_on_c, 1, 56, 0
4, 7368, Note_on_c, 1, 64, 61
4, 7391, Note_on_c, 1, 64, 0
4, 7392, Note_on_c, 1, 56, 61
4, 7415, Note_on_c, 1, 56, 0
4, 7416, Note_on_c, 1, 64, 61
4, 7439, Note_on_c, 1, 64, 0
4, 7440, Note_on_c, 1, 56, 61
4, 7463, Note_on_c, 1, 56, 0
4, 7464, Note_on_c, 1, 64, 61
4, 7487, Note_on_c, 1, 64, 0
4, 7488, Note_on_c, 1, 57, 75
4, 7577, Note_on_c, 1, 57, 0
4, 7680, Note_on_c, 1, 59, 75
4, 7680, Note_on_c, 1, 56, 75
4, 7769, Note_on_c, 1, 59, 0
4, 7769, Note_on_c, 1, 56, 0
4, 7872, Note_on_c, 1, 57, 75
4, 7872, Note_on_c, 1, 45, 75
4, 7961, Note_on_c, 1, 57, 0
4, 7961, Note_on_c, 1, 45, 0
4, 8064, Note_on_c, 1, 52, 75
4, 8087, Note_on_c, 1, 52, 0
4, 8088, Note_on_c, 1, 51, 75
4, 8111, Note_on_c, 1, 51, 0
4, 8112, Note_on_c, 1, 52, 75
4, 8135, Note_on_c, 1, 52, 0
4, 8136, Note_on_c, 1, 54, 75
4, 8159, Note_on_c, 1, 54, 0
4, 8160, Note_on_c, 1, 52, 75
4, 8183, Note_on_c, 1, 52, 0
4, 8184, Note_on_c, 1, 50, 75
4, 8207, Note_on_c, 1, 50, 0
4, 8208, Note_on_c, 1, 49, 75
4, 8231, Note_on_c, 1, 49, 0
4, 8232, Note_on_c, 1, 47, 75
4, 8255, Note_on_c, 1, 47, 0
4, 8256, Note_on_c, 1, 45, 75
4, 8345, Note_on_c, 1, 45, 0
4, 8448, Note_on_c, 1, 62, 75
4, 8537, Note_on_c, 1, 62, 0
4, 8640, Note_on_c, 1, 38, 75
4, 8729, Note_on_c, 1, 38, 0
4, 9072, Note_on_c, 1, 57, 75
4, 9161, Note_on_c, 1, 57, 0
4, 9168, Note_on_c, 1, 56, 75
4, 9213, Note_on_c, 1, 56, 0
4, 9216, Note_on_c, 1, 57, 75
4, 9216, Note_on_c, 1, 45, 75
4, 9261, Note_on_c, 1, 57, 0
4, 9261, Note_on_c, 1, 45, 0
4, 9312, Note_on_c, 1, 61, 75
4, 9357, Note_on_c, 1, 61, 0
4, 9408, Note_on_c, 1, 62, 75
4, 9497, Note_on_c, 1, 62, 0
4, 9600, Note_on_c, 1, 38, 75
4, 9689, Note_on_c, 1, 38, 0
4, 11328, Note_on_c, 1, 71, 61
4, 11328, Note_on_c, 1, 66, 61
4, 11328, Note_on_c, 1, 62, 61
4, 11373, Note_on_c, 1, 71, 0
4, 11373, Note_on_c, 1, 66, 0
4, 11373, Note_on_c, 1, 62, 0
4, 11376, Note_on_c, 1, 71, 61
4, 11376, Note_on_c, 1, 66, 61
4, 11376, Note_on_c, 1, 62, 61
4, 11421, Note_on_c, 1, 71, 0
4, 11421, Note_on_c, 1, 66, 0
4, 11421, Note_on_c, 1, 62, 0
4, 11424, Note_on_c, 1, 71, 61
4, 11424, Note_on_c, 1, 66, 61
4, 11424, Note_on_c, 1, 62, 61
4, 11469, Note_on_c, 1, 71, 0
4, 11469, Note_on_c, 1, 66, 0
4, 11469, Note_on_c, 1, 62, 0
4, 11472, Note_on_c, 1, 71, 61
4, 11472, Note_on_c, 1, 66, 61
4, 11472, Note_on_c, 1, 62, 61
4, 11517, Note_on_c, 1, 71, 0
4, 11517, Note_on_c, 1, 66, 0
4, 11517, Note_on_c, 1, 62, 0
4, 11520, Note_on_c, 1, 73, 61
4, 11520, Note_on_c, 1, 69, 61
4, 11520, Note_on_c, 1, 64, 61
4, 11565, Note_on_c, 1, 73, 0
4, 11565, Note_on_c, 1, 69, 0
4, 11565, Note_on_c, 1, 64, 0
4, 11568, Note_on_c, 1, 73, 61
4, 11568, Note_on_c, 1, 69, 61
4, 11568, Note_on_c, 1, 64, 61
4, 11613, Note_on_c, 1, 73, 0
4, 11613, Note_on_c, 1, 69, 0
4, 11613, Note_on_c, 1, 64, 0
4, 11616, Note_on_c, 1, 73, 61
4, 11616, Note_on_c, 1, 69, 61
4, 11616, Note_on_c, 1, 64, 61
4, 11661, Note_on_c, 1, 73, 0
4, 11661, Note_on_c, 1, 69, 0
4, 11661, Note_on_c, 1, 64, 0
4, 11664, Note_on_c, 1, 73, 61
4, 11664, Note_on_c, 1, 69, 61
4, 11664, Note_on_c, 1, 64, 61
4, 11709, Note_on_c, 1, 73, 0
4, 11709, Note_on_c, 1, 69, 0
4, 11709, Note_on_c, 1, 64, 0
4, 11712, Note_on_c, 1, 68, 61
4, 11712, Note_on_c, 1, 64, 61
4, 11757, Note_on_c, 1, 68, 0
4, 11757, Note_on_c, 1, 64, 0
4, 11760, Note_on_c, 1, 68, 61
4, 11760, Note_on_c, 1, 64, 61
4, 11805, Note_on_c, 1, 68, 0
4, 11805, Note_on_c, 1, 64, 0
4, 11808, Note_on_c, 1, 68, 61
4, 11808, Note_on_c, 1, 64, 61
4, 11853, Note_on_c, 1, 68, 0
4, 11853, Note_on_c, 1, 64, 0
4, 11856, Note_on_c, 1, 68, 61
4, 11856, Note_on_c, 1, 64, 61
4, 11901, Note_on_c, 1, 68, 0
4, 11901, Note_on_c, 1, 64, 0
4, 11904, Note_on_c, 1, 57, 69
4, 11927, Note_on_c, 1, 57, 0
4, 11928, Note_on_c, 1, 69, 69
4, 11951, Note_on_c, 1, 69, 0
4, 11952, Note_on_c, 1, 68, 69
4, 11975, Note_on_c, 1, 68, 0
4, 11976, Note_on_c, 1, 69, 69
4, 11999, Note_on_c, 1, 69, 0
4, 12000, Note_on_c, 1, 61, 69
4, 12023, Note_on_c, 1, 61, 0
4, 12024, Note_on_c, 1, 69, 69
4, 12047, Note_on_c, 1, 69, 0
4, 12048, Note_on_c, 1, 68, 69
4, 12071, Note_on_c, 1, 68, 0
4, 12072, Note_on_c, 1, 69, 69
4, 12095, Note_on_c, 1, 69, 0
4, 12096, Note_on_c, 1, 62, 69
4, 12119, Note_on_c, 1, 62, 0
4, 12120, Note_on_c, 1, 69, 69
4, 12143, Note_on_c, 1, 69, 0
4, 12144, Note_on_c, 1, 61, 69
4, 12167, Note_on_c, 1, 61, 0
4, 12168, Note_on_c, 1, 69, 69
4, 12191, Note_on_c, 1, 69, 0
4, 12192, Note_on_c, 1, 62, 69
4, 12215, Note_on_c, 1, 62, 0
4, 12216, Note_on_c, 1, 69, 69
4, 12239, Note_on_c, 1, 69, 0
4, 12240, Note_on_c, 1, 61, 69
4, 12263, Note_on_c, 1, 61, 0
4, 12264, Note_on_c, 1, 69, 69
4, 12287, Note_on_c, 1, 69, 0
4, 12288, Note_on_c, 1, 68, 69
4, 12288, Note_on_c, 1, 59, 69
4, 12377, Note_on_c, 1, 68, 0
4, 12377, Note_on_c, 1, 59, 0
4, 12432, Note_on_c, 1, 69, 69
4, 12432, Note_on_c, 1, 57, 69
4, 12477, Note_on_c, 1, 69, 0
4, 12477, Note_on_c, 1, 57, 0
4, 12480, Note_on_c, 1, 66, 69
4, 12480, Note_on_c, 1, 62, 69
4, 12525, Note_on_c, 1, 66, 0
4, 12525, Note_on_c, 1, 62, 0
4, 12576, Note_on_c, 1, 64, 69
4, 12576, Note_on_c, 1, 52, 69
4, 12621, Note_on_c, 1, 64, 0
4, 12621, Note_on_c, 1, 52, 0
4, 12672, Note_on_c, 1, 57, 69
4, 12695, Note_on_c, 1, 57, 0
4, 12696, Note_on_c, 1, 69, 69
4, 12719, Note_on_c, 1, 69, 0
4, 12720, Note_on_c, 1, 68, 69
4, 12743, Note_on_c, 1, 68, 0
4, 12744, Note_on_c, 1, 69, 69
4, 12767, Note_on_c, 1, 69, 0
4, 12768, Note_on_c, 1, 61, 69
4, 12791, Note_on_c, 1, 61, 0
4, 12792, Note_on_c, 1, 69, 69
4, 12815, Note_on_c, 1, 69, 0
4, 12816, Note_on_c, 1, 68, 69
4, 12839, Note_on_c, 1, 68, 0
4, 12840, Note_on_c, 1, 69, 69
4, 12863, Note_on_c, 1, 69, 0
4, 12864, Note_on_c, 1, 62, 69
4, 12887, Note_on_c, 1, 62, 0
4, 12888, Note_on_c, 1, 69, 69
4, 12911, Note_on_c, 1, 69, 0
4, 12912, Note_on_c, 1, 61, 69
4, 12935, Note_on_c, 1, 61, 0
4, 12936, Note_on_c, 1, 69, 69
4, 12959, Note_on_c, 1, 69, 0
4, 12960, Note_on_c, 1, 62, 69
4, 12983, Note_on_c, 1, 62, 0
4, 12984, Note_on_c, 1, 69, 69
4, 13007, Note_on_c, 1, 69, 0
4, 13008, Note_on_c, 1, 61, 69
4, 13031, Note_on_c, 1, 61, 0
4, 13032, Note_on_c, 1, 69, 69
4, 13055, Note_on_c, 1, 69, 0
4, 13056, Note_on_c, 1, 68, 69
4, 13056, Note_on_c, 1, 59, 69
4, 13145, Note_on_c, 1, 68, 0
4, 13145, Note_on_c, 1, 59, 0
4, 13200, Note_on_c, 1, 69, 69
4, 13200, Note_on_c, 1, 57, 69
4, 13245, Note_on_c, 1, 69, 0
4, 13245, Note_on_c, 1, 57, 0
4, 13248, Note_on_c, 1, 66, 69
4, 13248, Note_on_c, 1, 62, 69
4, 13293, Note_on_c, 1, 66, 0
4, 13293, Note_on_c, 1, 62, 0
4, 13344, Note_on_c, 1, 64, 69
4, 13344, Note_on_c, 1, 52, 69
4, 13389, Note_on_c, 1, 64, 0
4, 13389, Note_on_c, 1, 52, 0
4, 13440, Note_on_c, 1, 57, 69
4, 13440, Note_on_c, 1, 45, 69
4, 13485, Note_on_c, 1, 57, 0
4, 13485, Note_on_c, 1, 45, 0
4, 13536, Note_on_c, 1, 62, 84
4, 13536, Note_on_c, 1, 52, 84
4, 13581, Note_on_c, 1, 62, 0
4, 13581, Note_on_c, 1, 52, 0
4, 13632, Note_on_c, 1, 61, 77
4, 13632, Note_on_c, 1, 52, 77
4, 13677, Note_on_c, 1, 61, 0
4, 13677, Note_on_c, 1, 52, 0
4, 13728, Note_on_c, 1, 59, 70
4, 13728, Note_on_c, 1, 52, 70
4, 13773, Note_on_c, 1, 59, 0
4, 13773, Note_on_c, 1, 52, 0
4, 13824, Note_on_c, 1, 57, 63
4, 13824, Note_on_c, 1, 45, 63
4, 13913, Note_on_c, 1, 57, 0
4, 13913, Note_on_c, 1, 45, 0
4, 14016, Note_on_c, 1, 50, 75
4, 14016, Note_on_c, 1, 38, 75
4, 14105, Note_on_c, 1, 50, 0
4, 14105, Note_on_c, 1, 38, 0
4, 14160, Note_on_c, 1, 66, 75
4, 14160, Note_on_c, 1, 62, 75
4, 14180, Note_on_c, 1, 66, 0
4, 14180, Note_on_c, 1, 62, 0
4, 14208, Note_on_c, 1, 67, 75
4, 14208, Note_on_c, 1, 62, 75
4, 14228, Note_on_c, 1, 67, 0
4, 14228, Note_on_c, 1, 62, 0
4, 14256, Note_on_c, 1, 66, 75
4, 14256, Note_on_c, 1, 62, 75
4, 14276, Note_on_c, 1, 66, 0
4, 14276, Note_on_c, 1, 62, 0
4, 14400, Note_on_c, 1, 50, 75
4, 14400, Note_on_c, 1, 38, 75
4, 14489, Note_on_c, 1, 50, 0
4, 14489, Note_on_c, 1, 38, 0
4, 14544, Note_on_c, 1, 62, 75
4, 14564, Note_on_c, 1, 62, 0
4, 14592, Note_on_c, 1, 57, 75
4, 14612, Note_on_c, 1, 57, 0
4, 14640, Note_on_c, 1, 62, 75
4, 14660, Note_on_c, 1, 62, 0
4, 14832, Note_on_c, 1, 62, 75
4, 14832, Note_on_c, 1, 54, 75
4, 14852, Note_on_c, 1, 62, 0
4, 14852, Note_on_c, 1, 54, 0
4, 14880, Note_on_c, 1, 62, 75
4, 14880, Note_on_c, 1, 54, 75
4, 14900, Note_on_c, 1, 62, 0
4, 14900, Note_on_c, 1, 54, 0
4, 15024, Note_on_c, 1, 62, 69
4, 15024, Note_on_c, 1, 55, 69
4, 15044, Note_on_c, 1, 62, 0
4, 15044, Note_on_c, 1, 55, 0
4, 15072, Note_on_c, 1, 62, 69
4, 15072, Note_on_c, 1, 55, 69
4, 15092, Note_on_c, 1, 62, 0
4, 15092, Note_on_c, 1, 55, 0
4, 15168, Note_on_c, 1, 57, 75
4, 15257, Note_on_c, 1, 57, 0
4, 15264, Note_on_c, 1, 45, 75
4, 15353, Note_on_c, 1, 45, 0
4, 15360, Note_on_c, 1, 50, 75
4, 15449, Note_on_c, 1, 50, 0
4, 15456, Note_on_c, 1, 38, 75
4, 15501, Note_on_c, 1, 38, 0
4, 15600, Note_on_c, 1, 62, 69
4, 15600, Note_on_c, 1, 54, 69
4, 15620, Note_on_c, 1, 62, 0
4, 15620, Note_on_c, 1, 54, 0
4, 15648, Note_on_c, 1, 62, 69
4, 15648, Note_on_c, 1, 54, 69
4, 15668, Note_on_c, 1, 62, 0
4, 15668, Note_on_c, 1, 54, 0
4, 15792, Note_on_c, 1, 62, 69
4, 15792, Note_on_c, 1, 55, 69
4, 15812, Note_on_c, 1, 62, 0
4, 15812, Note_on_c, 1, 55, 0
4, 15840, Note_on_c, 1, 62, 69
4, 15840, Note_on_c, 1, 55, 69
4, 15860, Note_on_c, 1, 62, 0
4, 15860, Note_on_c, 1, 55, 0
4, 15936, Note_on_c, 1, 57, 75
4, 15981, Note_on_c, 1, 57, 0
4, 16032, Note_on_c, 1, 45, 75
4, 16077, Note_on_c, 1, 45, 0
4, 16128, Note_on_c, 1, 38, 75
4, 16217, Note_on_c, 1, 38, 0
4, 16560, Note_on_c, 1, 56, 75
4, 16608, Note_on_c, 1, 56, 0
4, 16608, Note_on_c, 1, 57, 75
4, 16653, Note_on_c, 1, 57, 0
4, 16944, Note_on_c, 1, 49, 75
4, 16992, Note_on_c, 1, 49, 0
4, 16992, Note_on_c, 1, 50, 75
4, 17037, Note_on_c, 1, 50, 0
4, 17280, Note_on_c, 1, 55, 61
4, 17303, Note_on_c, 1, 55, 0
4, 17304, Note_on_c, 1, 62, 61
4, 17327, Note_on_c, 1, 62, 0
4, 17328, Note_on_c, 1, 55, 61
4, 17351, Note_on_c, 1, 55, 0
4, 17352, Note_on_c, 1, 62, 61
4, 17375, Note_on_c, 1, 62, 0
4, 17376, Note_on_c, 1, 54, 61
4, 17399, Note_on_c, 1, 54, 0
4, 17400, Note_on_c, 1, 62, 61
4, 17423, Note_on_c, 1, 62, 0
4, 17424, Note_on_c, 1, 54, 61
4, 17447, Note_on_c, 1, 54, 0
4, 17448, Note_on_c, 1, 62, 61
4, 17471, Note_on_c, 1, 62, 0
4, 17472, Note_on_c, 1, 59, 61
4, 17495, Note_on_c, 1, 59, 0
4, 17496, Note_on_c, 1, 62, 61
4, 17519, Note_on_c, 1, 62, 0
4, 17520, Note_on_c, 1, 59, 61
4, 17543, Note_on_c, 1, 59, 0
4, 17544, Note_on_c, 1, 62, 61
4, 17567, Note_on_c, 1, 62, 0
4, 17568, Note_on_c, 1, 57, 61
4, 17591, Note_on_c, 1, 57, 0
4, 17592, Note_on_c, 1, 62, 61
4, 17615, Note_on_c, 1, 62, 0
4, 17616, Note_on_c, 1, 57, 61
4, 17639, Note_on_c, 1, 57, 0
4, 17640, Note_on_c, 1, 62, 61
4, 17663, Note_on_c, 1, 62, 0
4, 17664, Note_on_c, 1, 55, 61
4, 17687, Note_on_c, 1, 55, 0
4, 17688, Note_on_c, 1, 62, 61
4, 17711, Note_on_c, 1, 62, 0
4, 17712, Note_on_c, 1, 55, 61
4, 17735, Note_on_c, 1, 55, 0
4, 17736, Note_on_c, 1, 62, 61
4, 17759, Note_on_c, 1, 62, 0
4, 17760, Note_on_c, 1, 54, 61
4, 17783, Note_on_c, 1, 54, 0
4, 17784, Note_on_c, 1, 62, 61
4, 17807, Note_on_c, 1, 62, 0
4, 17808, Note_on_c, 1, 54, 61
4, 17831, Note_on_c, 1, 54, 0
4, 17832, Note_on_c, 1, 62, 61
4, 17855, Note_on_c, 1, 62, 0
4, 17856, Note_on_c, 1, 59, 61
4, 17879, Note_on_c, 1, 59, 0
4, 17880, Note_on_c, 1, 62, 61
4, 17903, Note_on_c, 1, 62, 0
4, 17904, Note_on_c, 1, 59, 61
4, 17927, Note_on_c, 1, 59, 0
4, 17928, Note_on_c, 1, 62, 61
4, 17951, Note_on_c, 1, 62, 0
4, 17952, Note_on_c, 1, 57, 61
4, 17975, Note_on_c, 1, 57, 0
4, 17976, Note_on_c, 1, 62, 61
4, 17999, Note_on_c, 1, 62, 0
4, 18000, Note_on_c, 1, 57, 61
4, 18023, Note_on_c, 1, 57, 0
4, 18024, Note_on_c, 1, 62, 61
4, 18047, Note_on_c, 1, 62, 0
4, 18048, Note_on_c, 1, 55, 75
4, 18137, Note_on_c, 1, 55, 0
4, 18192, Note_on_c, 1, 55, 75
4, 18192, Note_on_c, 1, 43, 75
4, 18237, Note_on_c, 1, 55, 0
4, 18237, Note_on_c, 1, 43, 0
4, 18240, Note_on_c, 1, 54, 75
4, 18240, Note_on_c, 1, 45, 75
4, 18432, Note_on_c, 1, 54, 0
4, 18432, Note_on_c, 1, 52, 63
4, 18477, Note_on_c, 1, 52, 0
4, 18477, Note_on_c, 1, 45, 0
4, 18624, Note_on_c, 1, 57, 84
4, 18624, Note_on_c, 1, 52, 84
4, 18624, Note_on_c, 1, 49, 84
4, 18624, Note_on_c, 1, 45, 84
4, 18669, Note_on_c, 1, 57, 0
4, 18669, Note_on_c, 1, 52, 0
4, 18669, Note_on_c, 1, 49, 0
4, 18669, Note_on_c, 1, 45, 0
4, 18720, Note_on_c, 1, 57, 84
4, 18720, Note_on_c, 1, 52, 84
4, 18720, Note_on_c, 1, 49, 84
4, 18720, Note_on_c, 1, 45, 84
4, 18765, Note_on_c, 1, 57, 0
4, 18765, Note_on_c, 1, 52, 0
4, 18765, Note_on_c, 1, 49, 0
4, 18765, Note_on_c, 1, 45, 0
4, 18816, Note_on_c, 1, 57, 84
4, 18816, Note_on_c, 1, 52, 84
4, 18816, Note_on_c, 1, 49, 84
4, 18816, Note_on_c, 1, 45, 84
4, 18861, Note_on_c, 1, 57, 0
4, 18861, Note_on_c, 1, 52, 0
4, 18861, Note_on_c, 1, 49, 0
4, 18861, Note_on_c, 1, 45, 0
4, 19008, Note_on_c, 1, 45, 75
4, 19031, Note_on_c, 1, 45, 0
4, 19032, Note_on_c, 1, 52, 75
4, 19055, Note_on_c, 1, 52, 0
4, 19056, Note_on_c, 1, 50, 75
4, 19079, Note_on_c, 1, 50, 0
4, 19080, Note_on_c, 1, 52, 75
4, 19103, Note_on_c, 1, 52, 0
4, 19104, Note_on_c, 1, 49, 75
4, 19127, Note_on_c, 1, 49, 0
4, 19128, Note_on_c, 1, 52, 75
4, 19151, Note_on_c, 1, 52, 0
4, 19152, Note_on_c, 1, 45, 75
4, 19175, Note_on_c, 1, 45, 0
4, 19176, Note_on_c, 1, 49, 75
4, 19199, Note_on_c, 1, 49, 0
4, 19200, Note_on_c, 1, 50, 75
4, 19289, Note_on_c, 1, 50, 0
4, 19392, Note_on_c, 1, 51, 75
4, 19415, Note_on_c, 1, 51, 0
4, 19416, Note_on_c, 1, 54, 75
4, 19439, Note_on_c, 1, 54, 0
4, 19440, Note_on_c, 1, 52, 75
4, 19463, Note_on_c, 1, 52, 0
4, 19464, Note_on_c, 1, 54, 75
4, 19487, Note_on_c, 1, 54, 0
4, 19488, Note_on_c, 1, 51, 75
4, 19511, Note_on_c, 1, 51, 0
4, 19512, Note_on_c, 1, 54, 75
4, 19535, Note_on_c, 1, 54, 0
4, 19536, Note_on_c, 1, 47, 75
4, 19559, Note_on_c, 1, 47, 0
4, 19560, Note_on_c, 1, 51, 75
4, 19583, Note_on_c, 1, 51, 0
4, 19584, Note_on_c, 1, 52, 75
4, 19673, Note_on_c, 1, 52, 0
4, 19776, Note_on_c, 1, 54, 61
4, 19799, Note_on_c, 1, 54, 0
4, 19800, Note_on_c, 1, 60, 61
4, 19823, Note_on_c, 1, 60, 0
4, 19824, Note_on_c, 1, 54, 61
4, 19847, Note_on_c, 1, 54, 0
4, 19848, Note_on_c, 1, 60, 61
4, 19871, Note_on_c, 1, 60, 0
4, 19872, Note_on_c, 1, 54, 61
4, 19895, Note_on_c, 1, 54, 0
4, 19896, Note_on_c, 1, 60, 61
4, 19919, Note_on_c, 1, 60, 0
4, 19920, Note_on_c, 1, 54, 61
4, 19943, Note_on_c, 1, 54, 0
4, 19944, Note_on_c, 1, 60, 61
4, 19967, Note_on_c, 1, 60, 0
4, 19968, Note_on_c, 1, 56, 61
4, 19991, Note_on_c, 1, 56, 0
4, 19992, Note_on_c, 1, 59, 61
4, 20015, Note_on_c, 1, 59, 0
4, 20016, Note_on_c, 1, 56, 61
4, 20039, Note_on_c, 1, 56, 0
4, 20040, Note_on_c, 1, 59, 61
4, 20063, Note_on_c, 1, 59, 0
4, 20064, Note_on_c, 1, 56, 61
4, 20087, Note_on_c, 1, 56, 0
4, 20088, Note_on_c, 1, 59, 61
4, 20111, Note_on_c, 1, 59, 0
4, 20112, Note_on_c, 1, 56, 61
4, 20135, Note_on_c, 1, 56, 0
4, 20136, Note_on_c, 1, 59, 61
4, 20159, Note_on_c, 1, 59, 0
4, 20160, Note_on_c, 1, 54, 61
4, 20183, Note_on_c, 1, 54, 0
4, 20184, Note_on_c, 1, 60, 61
4, 20207, Note_on_c, 1, 60, 0
4, 20208, Note_on_c, 1, 54, 61
4, 20231, Note_on_c, 1, 54, 0
4, 20232, Note_on_c, 1, 60, 61
4, 20255, Note_on_c, 1, 60, 0
4, 20256, Note_on_c, 1, 54, 61
4, 20279, Note_on_c, 1, 54, 0
4, 20280, Note_on_c, 1, 60, 61
4, 20303, Note_on_c, 1, 60, 0
4, 20304, Note_on_c, 1, 54, 61
4, 20327, Note_on_c, 1, 54, 0
4, 20328, Note_on_c, 1, 60, 61
4, 20351, Note_on_c, 1, 60, 0
4, 20352, Note_on_c, 1, 56, 61
4, 20375, Note_on_c, 1, 56, 0
4, 20376, Note_on_c, 1, 59, 61
4, 20399, Note_on_c, 1, 59, 0
4, 20400, Note_on_c, 1, 56, 61
4, 20423, Note_on_c, 1, 56, 0
4, 20424, Note_on_c, 1, 59, 61
4, 20447, Note_on_c, 1, 59, 0
4, 20448, Note_on_c, 1, 56, 61
4, 20471, Note_on_c, 1, 56, 0
4, 20472, Note_on_c, 1, 59, 61
4, 20495, Note_on_c, 1, 59, 0
4, 20496, Note_on_c, 1, 56, 61
4, 20519, Note_on_c, 1, 56, 0
4, 20520, Note_on_c, 1, 59, 61
4, 20543, Note_on_c, 1, 59, 0
4, 20544, Note_on_c, 1, 57, 61
4, 20567, Note_on_c, 1, 57, 0
4, 20568, Note_on_c, 1, 61, 61
4, 20591, Note_on_c, 1, 61, 0
4, 20592, Note_on_c, 1, 57, 61
4, 20615, Note_on_c, 1, 57, 0
4, 20616, Note_on_c, 1, 61, 61
4, 20639, Note_on_c, 1, 61, 0
4, 20640, Note_on_c, 1, 57, 61
4, 20663, Note_on_c, 1, 57, 0
4, 20664, Note_on_c, 1, 61, 61
4, 20687, Note_on_c, 1, 61, 0
4, 20688, Note_on_c, 1, 57, 61
4, 20711, Note_on_c, 1, 57, 0
4, 20712, Note_on_c, 1, 61, 61
4, 20735, Note_on_c, 1, 61, 0
4, 20736, Note_on_c, 1, 59, 61
4, 20759, Note_on_c, 1, 59, 0
4, 20760, Note_on_c, 1, 62, 61
4, 20783, Note_on_c, 1, 62, 0
4, 20784, Note_on_c, 1, 59, 61
4, 20807, Note_on_c, 1, 59, 0
4, 20808, Note_on_c, 1, 62, 61
4, 20831, Note_on_c, 1, 62, 0
4, 20832, Note_on_c, 1, 59, 61
4, 20855, Note_on_c, 1, 59, 0
4, 20856, Note_on_c, 1, 62, 61
4, 20879, Note_on_c, 1, 62, 0
4, 20880, Note_on_c, 1, 59, 61
4, 20903, Note_on_c, 1, 59, 0
4, 20904, Note_on_c, 1, 62, 61
4, 20927, Note_on_c, 1, 62, 0
4, 20928, Note_on_c, 1, 61, 61
4, 20951, Note_on_c, 1, 61, 0
4, 20952, Note_on_c, 1, 64, 61
4, 20975, Note_on_c, 1, 64, 0
4, 20976, Note_on_c, 1, 61, 61
4, 20999, Note_on_c, 1, 61, 0
4, 21000, Note_on_c, 1, 64, 61
4, 21023, Note_on_c, 1, 64, 0
4, 21024, Note_on_c, 1, 61, 61
4, 21047, Note_on_c, 1, 61, 0
4, 21048, Note_on_c, 1, 64, 61
4, 21071, Note_on_c, 1, 64, 0
4, 21072, Note_on_c, 1, 61, 61
4, 21095, Note_on_c, 1, 61, 0
4, 21096, Note_on_c, 1, 64, 61
4, 21119, Note_on_c, 1, 64, 0
4, 21120, Note_on_c, 1, 56, 61
4, 21143, Note_on_c, 1, 56, 0
4, 21144, Note_on_c, 1, 64, 61
4, 21167, Note_on_c, 1, 64, 0
4, 21168, Note_on_c, 1, 56, 61
4, 21191, Note_on_c, 1, 56, 0
4, 21192, Note_on_c, 1, 64, 61
4, 21215, Note_on_c, 1, 64, 0
4, 21216, Note_on_c, 1, 56, 61
4, 21239, Note_on_c, 1, 56, 0
4, 21240, Note_on_c, 1, 64, 61
4, 21263, Note_on_c, 1, 64, 0
4, 21264, Note_on_c, 1, 56, 61
4, 21287, Note_on_c, 1, 56, 0
4, 21288, Note_on_c, 1, 64, 61
4, 21311, Note_on_c, 1, 64, 0
4, 21312, Note_on_c, 1, 57, 75
4, 21401, Note_on_c, 1, 57, 0
4, 21504, Note_on_c, 1, 59, 75
4, 21504, Note_on_c, 1, 56, 75
4, 21593, Note_on_c, 1, 59, 0
4, 21593, Note_on_c, 1, 56, 0
4, 21696, Note_on_c, 1, 57, 75
4, 21696, Note_on_c, 1, 45, 75
4, 21785, Note_on_c, 1, 57, 0
4, 21785, Note_on_c, 1, 45, 0
4, 21888, Note_on_c, 1, 52, 75
4, 21911, Note_on_c, 1, 52, 0
4, 21912, Note_on_c, 1, 51, 75
4, 21935, Note_on_c, 1, 51, 0
4, 21936, Note_on_c, 1, 52, 75
4, 21959, Note_on_c, 1, 52, 0
4, 21960, Note_on_c, 1, 54, 75
4, 21983, Note_on_c, 1, 54, 0
4, 21984, Note_on_c, 1, 52, 75
4, 22007, Note_on_c, 1, 52, 0
4, 22008, Note_on_c, 1, 50, 75
4, 22031, Note_on_c, 1, 50, 0
4, 22032, Note_on_c, 1, 49, 75
4, 22055, Note_on_c, 1, 49, 0
4, 22056, Note_on_c, 1, 47, 75
4, 22079, Note_on_c, 1, 47, 0
4, 22080, Note_on_c, 1, 45, 75
4, 22169, Note_on_c, 1, 45, 0
4, 22272, Note_on_c, 1, 62, 75
4, 22361, Note_on_c, 1, 62, 0
4, 22464, Note_on_c, 1, 38, 75
4, 22553, Note_on_c, 1, 38, 0
4, 22896, Note_on_c, 1, 57, 75
4, 22985, Note_on_c, 1, 57, 0
4, 22992, Note_on_c, 1, 56, 75
4, 23037, Note_on_c, 1, 56, 0
4, 23040, Note_on_c, 1, 57, 75
4, 23040, Note_on_c, 1, 45, 75
4, 23085, Note_on_c, 1, 57, 0
4, 23085, Note_on_c, 1, 45, 0
4, 23136, Note_on_c, 1, 61, 75
4, 23181, Note_on_c, 1, 61, 0
4, 23232, Note_on_c, 1, 62, 75
4, 23321, Note_on_c, 1, 62, 0
4, 23424, Note_on_c, 1, 38, 75
4, 23513, Note_on_c, 1, 38, 0
4, 25152, Note_on_c, 1, 71, 61
4, 25152, Note_on_c, 1, 66, 61
4, 25152, Note_on_c, 1, 62, 61
4, 25197, Note_on_c, 1, 71, 0
4, 25197, Note_on_c, 1, 66, 0
4, 25197, Note_on_c, 1, 62, 0
4, 25200, Note_on_c, 1, 71, 61
4, 25200, Note_on_c, 1, 66, 61
4, 25200, Note_on_c, 1, 62, 61
4, 25245, Note_on_c, 1, 71, 0
4, 25245, Note_on_c, 1, 66, 0
4, 25245, Note_on_c, 1, 62, 0
4, 25248, Note_on_c, 1, 71, 61
4, 25248, Note_on_c, 1, 66, 61
4, 25248, Note_on_c, 1, 62, 61
4, 25293, Note_on_c, 1, 71, 0
4, 25293, Note_on_c, 1, 66, 0
4, 25293, Note_on_c, 1, 62, 0
4, 25296, Note_on_c, 1, 71, 61
4, 25296, Note_on_c, 1, 66, 61
4, 25296, Note_on_c, 1, 62, 61
4, 25341, Note_on_c, 1, 71, 0
4, 25341, Note_on_c, 1, 66, 0
4, 25341, Note_on_c, 1, 62, 0
4, 25344, Note_on_c, 1, 73, 61
4, 25344, Note_on_c, 1, 69, 61
4, 25344, Note_on_c, 1, 64, 61
4, 25389, Note_on_c, 1, 73, 0
4, 25389, Note_on_c, 1, 69, 0
4, 25389, Note_on_c, 1, 64, 0
4, 25392, Note_on_c, 1, 73, 61
4, 25392, Note_on_c, 1, 69, 61
4, 25392, Note_on_c, 1, 64, 61
4, 25437, Note_on_c, 1, 73, 0
4, 25437, Note_on_c, 1, 69, 0
4, 25437, Note_on_c, 1, 64, 0
4, 25440, Note_on_c, 1, 73, 61
4, 25440, Note_on_c, 1, 69, 61
4, 25440, Note_on_c, 1, 64, 61
4, 25485, Note_on_c, 1, 73, 0
4, 25485, Note_on_c, 1, 69, 0
4, 25485, Note_on_c, 1, 64, 0
4, 25488, Note_on_c, 1, 73, 61
4, 25488, Note_on_c, 1, 69, 61
4, 25488, Note_on_c, 1, 64, 61
4, 25533, Note_on_c, 1, 73, 0
4, 25533, Note_on_c, 1, 69, 0
4, 25533, Note_on_c, 1, 64, 0
4, 25536, Note_on_c, 1, 68, 61
4, 25536, Note_on_c, 1, 64, 61
4, 25581, Note_on_c, 1, 68, 0
4, 25581, Note_on_c, 1, 64, 0
4, 25584, Note_on_c, 1, 68, 61
4, 25584, Note_on_c, 1, 64, 61
4, 25629, Note_on_c, 1, 68, 0
4, 25629, Note_on_c, 1, 64, 0
4, 25632, Note_on_c, 1, 68, 61
4, 25632, Note_on_c, 1, 64, 61
4, 25677, Note_on_c, 1, 68, 0
4, 25677, Note_on_c, 1, 64, 0
4, 25680, Note_on_c, 1, 68, 61
4, 25680, Note_on_c, 1, 64, 61
4, 25725, Note_on_c, 1, 68, 0
4, 25725, Note_on_c, 1, 64, 0
4, 25728, Note_on_c, 1, 57, 69
4, 25751, Note_on_c, 1, 57, 0
4, 25752, Note_on_c, 1, 69, 69
4, 25775, Note_on_c, 1, 69, 0
4, 25776, Note_on_c, 1, 68, 69
4, 25799, Note_on_c, 1, 68, 0
4, 25800, Note_on_c, 1, 69, 69
4, 25823, Note_on_c, 1, 69, 0
4, 25824, Note_on_c, 1, 61, 69
4, 25847, Note_on_c, 1, 61, 0
4, 25848, Note_on_c, 1, 69, 69
4, 25871, Note_on_c, 1, 69, 0
4, 25872, Note_on_c, 1, 68, 69
4, 25895, Note_on_c, 1, 68, 0
4, 25896, Note_on_c, 1, 69, 69
4, 25919, Note_on_c, 1, 69, 0
4, 25920, Note_on_c, 1, 62, 69
4, 25943, Note_on_c, 1, 62, 0
4, 25944, Note_on_c, 1, 69, 69
4, 25967, Note_on_c, 1, 69, 0
4, 25968, Note_on_c, 1, 61, 69
4, 25991, Note_on_c, 1, 61, 0
4, 25992, Note_on_c, 1, 69, 69
4, 26015, Note_on_c, 1, 69, 0
4, 26016, Note_on_c, 1, 62, 69
4, 26039, Note_on_c, 1, 62, 0
4, 26040, Note_on_c, 1, 69, 69
4, 26063, Note_on_c, 1, 69, 0
4, 26064, Note_on_c, 1, 61, 69
4, 26087, Note_on_c, 1, 61, 0
4, 26088, Note_on_c, 1, 69, 69
4, 26111, Note_on_c, 1, 69, 0
4, 26112, Note_on_c, 1, 68, 69
4, 26112, Note_on_c, 1, 59, 69
4, 26201, Note_on_c, 1, 68, 0
4, 26201, Note_on_c, 1, 59, 0
4, 26256, Note_on_c, 1, 69, 69
4, 26256, Note_on_c, 1, 57, 69
4, 26301, Note_on_c, 1, 69, 0
4, 26301, Note_on_c, 1, 57, 0
4, 26304, Note_on_c, 1, 66, 69
4, 26304, Note_on_c, 1, 62, 69
4, 26349, Note_on_c, 1, 66, 0
4, 26349, Note_on_c, 1, 62, 0
4, 26400, Note_on_c, 1, 64, 69
4, 26400, Note_on_c, 1, 52, 69
4, 26445, Note_on_c, 1, 64, 0
4, 26445, Note_on_c, 1, 52, 0
4, 26496, Note_on_c, 1, 57, 69
4, 26519, Note_on_c, 1, 57, 0
4, 26520, Note_on_c, 1, 69, 69
4, 26543, Note_on_c, 1, 69, 0
4, 26544, Note_on_c, 1, 68, 69
4, 26567, Note_on_c, 1, 68, 0
4, 26568, Note_on_c, 1, 69, 69
4, 26591, Note_on_c, 1, 69, 0
4, 26592, Note_on_c, 1, 61, 69
4, 26615, Note_on_c, 1, 61, 0
4, 26616, Note_on_c, 1, 69, 69
4, 26639, Note_on_c, 1, 69, 0
4, 26640, Note_on_c, 1, 68, 69
4, 26663, Note_on_c, 1, 68, 0
4, 26664, Note_on_c, 1, 69, 69
4, 26687, Note_on_c, 1, 69, 0
4, 26688, Note_on_c, 1, 62, 69
4, 26711, Note_on_c, 1, 62, 0
4, 26712, Note_on_c, 1, 69, 69
4, 26735, Note_on_c, 1, 69, 0
4, 26736, Note_on_c, 1, 61, 69
4, 26759, Note_on_c, 1, 61, 0
4, 26760, Note_on_c, 1, 69, 69
4, 26783, Note_on_c, 1, 69, 0
4, 26784, Note_on_c, 1, 62, 69
4, 26807, Note_on_c, 1, 62, 0
4, 26808, Note_on_c, 1, 69, 69
4, 26831, Note_on_c, 1, 69, 0
4, 26832, Note_on_c, 1, 61, 69
4, 26855, Note_on_c, 1, 61, 0
4, 26856, Note_on_c, 1, 69, 69
4, 26879, Note_on_c, 1, 69, 0
4, 26880, Note_on_c, 1, 68, 69
4, 26880, Note_on_c, 1, 59, 69
4, 26969, Note_on_c, 1, 68, 0
4, 26969, Note_on_c, 1, 59, 0
4, 27024, Note_on_c, 1, 69, 69
4, 27024, Note_on_c, 1, 57, 69
4, 27069, Note_on_c, 1, 69, 0
4, 27069, Note_on_c, 1, 57, 0
4, 27072, Note_on_c, 1, 66, 69
4, 27072, Note_on_c, 1, 62, 69
4, 27117, Note_on_c, 1, 66, 0
4, 27117, Note_on_c, 1, 62, 0
4, 27168, Note_on_c, 1, 64, 69
4, 27168, Note_on_c, 1, 52, 69
4, 27213, Note_on_c, 1, 64, 0
4, 27213, Note_on_c, 1, 52, 0
4, 27264, Note_on_c, 1, 57, 69
4, 27264, Note_on_c, 1, 45, 69
4, 27309, Note_on_c, 1, 57, 0
4, 27309, Note_on_c, 1, 45, 0
4, 27360, Note_on_c, 1, 62, 84
4, 27360, Note_on_c, 1, 52, 84
4, 27405, Note_on_c, 1, 62, 0
4, 27405, Note_on_c, 1, 52, 0
4, 27456, Note_on_c, 1, 61, 77
4, 27456, Note_on_c, 1, 52, 77
4, 27501, Note_on_c, 1, 61, 0
4, 27501, Note_on_c, 1, 52, 0
4, 27552, Note_on_c, 1, 59, 70
4, 27552, Note_on_c, 1, 52, 70
4, 27597, Note_on_c, 1, 59, 0
4, 27597, Note_on_c, 1, 52, 0
4, 27648, Note_on_c, 1, 57, 63
4, 27648, Note_on_c, 1, 45, 63
4, 27737, Note_on_c, 1, 57, 0
4, 27737, Note_on_c, 1, 45, 0
4, 27840, Note_on_c, 1, 42, 84
4, 27840, Note_on_c, 1, 30, 84
4, 28032, Note_on_c, 1, 30, 0
4, 28401, Note_on_c, 1, 42, 0
4, 28752, Note_on_c, 1, 66, 75
4, 28752, Note_on_c, 1, 62, 75
4, 28772, Note_on_c, 1, 66, 0
4, 28772, Note_on_c, 1, 62, 0
4, 28800, Note_on_c, 1, 67, 75
4, 28800, Note_on_c, 1, 64, 75
4, 28820, Note_on_c, 1, 67, 0
4, 28820, Note_on_c, 1, 64, 0
4, 28848, Note_on_c, 1, 66, 75
4, 28848, Note_on_c, 1, 62, 75
4, 28868, Note_on_c, 1, 66, 0
4, 28868, Note_on_c, 1, 62, 0
4, 29136, Note_on_c, 1, 74, 75
4, 29136, Note_on_c, 1, 71, 75
4, 29156, Note_on_c, 1, 74, 0
4, 29156, Note_on_c, 1, 71, 0
4, 29184, Note_on_c, 1, 73, 75
4, 29184, Note_on_c, 1, 70, 75
4, 29204, Note_on_c, 1, 73, 0
4, 29204, Note_on_c, 1, 70, 0
4, 29232, Note_on_c, 1, 74, 75
4, 29232, Note_on_c, 1, 71, 75
4, 29252, Note_on_c, 1, 74, 0
4, 29252, Note_on_c, 1, 71, 0
4, 29472, Note_on_c, 1, 74, 75
4, 29472, Note_on_c, 1, 71, 75
4, 29492, Note_on_c, 1, 74, 0
4, 29492, Note_on_c, 1, 71, 0
4, 29520, Note_on_c, 1, 73, 75
4, 29520, Note_on_c, 1, 69, 75
4, 29540, Note_on_c, 1, 73, 0
4, 29540, Note_on_c, 1, 69, 0
4, 29568, Note_on_c, 1, 71, 75
4, 29568, Note_on_c, 1, 67, 75
4, 29588, Note_on_c, 1, 71, 0
4, 29588, Note_on_c, 1, 67, 0
4, 29616, Note_on_c, 1, 69, 75
4, 29616, Note_on_c, 1, 66, 75
4, 29636, Note_on_c, 1, 69, 0
4, 29636, Note_on_c, 1, 66, 0
4, 29760, Note_on_c, 1, 50, 84
4, 30129, Note_on_c, 1, 50, 0
4, 30144, Note_on_c, 1, 51, 84
4, 30321, Note_on_c, 1, 51, 0
4, 30336, Note_on_c, 1, 52, 84
4, 30513, Note_on_c, 1, 52, 0
4, 30552, Note_on_c, 1, 61, 84
4, 30575, Note_on_c, 1, 61, 0
4, 30576, Note_on_c, 1, 59, 84
4, 30599, Note_on_c, 1, 59, 0
4, 30600, Note_on_c, 1, 61, 84
4, 30623, Note_on_c, 1, 61, 0
4, 30624, Note_on_c, 1, 62, 84
4, 30647, Note_on_c, 1, 62, 0
4, 30648, Note_on_c, 1, 61, 84
4, 30671, Note_on_c, 1, 61, 0
4, 30672, Note_on_c, 1, 64, 84
4, 30695, Note_on_c, 1, 64, 0
4, 30696, Note_on_c, 1, 59, 84
4, 30719, Note_on_c, 1, 59, 0
4, 30720, Note_on_c, 1, 66, 84
4, 30720, Note_on_c, 1, 58, 84
4, 30912, Note_on_c, 1, 58, 0
4, 30912, Note_on_c, 1, 59, 84
4, 31001, Note_on_c, 1, 66, 0
4, 31001, Note_on_c, 1, 59, 0
4, 31008, Note_on_c, 1, 65, 84
4, 31008, Note_on_c, 1, 55, 84
4, 31097, Note_on_c, 1, 65, 0
4, 31097, Note_on_c, 1, 55, 0
4, 31104, Note_on_c, 1, 66, 84
4, 31104, Note_on_c, 1, 54, 84
4, 31193, Note_on_c, 1, 66, 0
4, 31193, Note_on_c, 1, 54, 0
4, 31296, Note_on_c, 1, 42, 84
4, 31390, Note_on_c, 1, 42, 0
4, 31728, Note_on_c, 1, 53, 84
4, 31776, Note_on_c, 1, 53, 0
4, 31776, Note_on_c, 1, 54, 84
4, 31821, Note_on_c, 1, 54, 0
4, 32112, Note_on_c, 1, 58, 84
4, 32160, Note_on_c, 1, 58, 0
4, 32160, Note_on_c, 1, 59, 84
4, 32205, Note_on_c, 1, 59, 0
4, 32304, Note_on_c, 1, 59, 84
4, 32324, Note_on_c, 1, 59, 0
4, 32352, Note_on_c, 1, 64, 84
4, 32372, Note_on_c, 1, 64, 0
4, 32400, Note_on_c, 1, 66, 84
4, 32420, Note_on_c, 1, 66, 0
4, 32448, Note_on_c, 1, 67, 84
4, 32537, Note_on_c, 1, 67, 0
4, 32592, Note_on_c, 1, 52, 84
4, 32637, Note_on_c, 1, 52, 0
4, 32640, Note_on_c, 1, 57, 84
4, 32660, Note_on_c, 1, 57, 0
4, 32688, Note_on_c, 1, 59, 84
4, 32708, Note_on_c, 1, 59, 0
4, 32736, Note_on_c, 1, 61, 84
4, 32756, Note_on_c, 1, 61, 0
4, 32784, Note_on_c, 1, 62, 84
4, 32804, Note_on_c, 1, 62, 0
4, 32832, Note_on_c, 1, 64, 84
4, 32921, Note_on_c, 1, 64, 0
4, 32976, Note_on_c, 1, 45, 84
4, 33021, Note_on_c, 1, 45, 0
4, 33024, Note_on_c, 1, 50, 84
4, 33044, Note_on_c, 1, 50, 0
4, 33072, Note_on_c, 1, 52, 84
4, 33092, Note_on_c, 1, 52, 0
4, 33120, Note_on_c, 1, 54, 84
4, 33140, Note_on_c, 1, 54, 0
4, 33168, Note_on_c, 1, 55, 84
4, 33188, Note_on_c, 1, 55, 0
4, 33216, Note_on_c, 1, 57, 84
4, 33305, Note_on_c, 1, 57, 0
4, 33360, Note_on_c, 1, 50, 84
4, 33405, Note_on_c, 1, 50, 0
4, 33408, Note_on_c, 1, 55, 84
4, 33497, Note_on_c, 1, 55, 0
4, 33600, Note_on_c, 1, 43, 84
4, 33689, Note_on_c, 1, 43, 0
4, 33792, Note_on_c, 1, 45, 84
4, 33815, Note_on_c, 1, 45, 0
4, 33816, Note_on_c, 1, 47, 84
4, 33839, Note_on_c, 1, 47, 0
4, 33840, Note_on_c, 1, 49, 84
4, 33863, Note_on_c, 1, 49, 0
4, 33864, Note_on_c, 1, 50, 84
4, 33887, Note_on_c, 1, 50, 0
4, 33888, Note_on_c, 1, 52, 84
4, 33911, Note_on_c, 1, 52, 0
4, 33912, Note_on_c, 1, 54, 84
4, 33935, Note_on_c, 1, 54, 0
4, 33936, Note_on_c, 1, 55, 84
4, 33959, Note_on_c, 1, 55, 0
4, 33960, Note_on_c, 1, 54, 84
4, 33983, Note_on_c, 1, 54, 0
4, 33984, Note_on_c, 1, 52, 84
4, 34073, Note_on_c, 1, 52, 0
4, 35136, Note_on_c, 1, 71, 84
4, 35159, Note_on_c, 1, 71, 0
4, 35160, Note_on_c, 1, 73, 84
4, 35183, Note_on_c, 1, 73, 0
4, 35184, Note_on_c, 1, 74, 84
4, 35207, Note_on_c, 1, 74, 0
4, 35208, Note_on_c, 1, 73, 84
4, 35231, Note_on_c, 1, 73, 0
4, 35232, Note_on_c, 1, 71, 84
4, 35255, Note_on_c, 1, 71, 0
4, 35256, Note_on_c, 1, 69, 84
4, 35279, Note_on_c, 1, 69, 0
4, 35280, Note_on_c, 1, 67, 84
4, 35303, Note_on_c, 1, 67, 0
4, 35304, Note_on_c, 1, 66, 84
4, 35327, Note_on_c, 1, 66, 0
4, 35328, Note_on_c, 1, 67, 84
4, 35351, Note_on_c, 1, 67, 0
4, 35352, Note_on_c, 1, 69, 84
4, 35375, Note_on_c, 1, 69, 0
4, 35376, Note_on_c, 1, 71, 84
4, 35399, Note_on_c, 1, 71, 0
4, 35400, Note_on_c, 1, 69, 84
4, 35423, Note_on_c, 1, 69, 0
4, 35424, Note_on_c, 1, 67, 84
4, 35447, Note_on_c, 1, 67, 0
4, 35448, Note_on_c, 1, 66, 84
4, 35471, Note_on_c, 1, 66, 0
4, 35472, Note_on_c, 1, 64, 84
4, 35495, Note_on_c, 1, 64, 0
4, 35496, Note_on_c, 1, 62, 84
4, 35519, Note_on_c, 1, 62, 0
4, 35520, Note_on_c, 1, 61, 84
4, 35653, Note_on_c, 1, 61, 0
4, 35664, Note_on_c, 1, 62, 84
4, 35709, Note_on_c, 1, 62, 0
4, 35712, Note_on_c, 1, 61, 84
4, 35757, Note_on_c, 1, 61, 0
4, 35760, Note_on_c, 1, 62, 84
4, 35805, Note_on_c, 1, 62, 0
4, 35808, Note_on_c, 1, 61, 84
4, 35853, Note_on_c, 1, 61, 0
4, 35856, Note_on_c, 1, 63, 84
4, 35901, Note_on_c, 1, 63, 0
4, 35904, Note_on_c, 1, 64, 84
4, 36037, Note_on_c, 1, 64, 0
4, 36048, Note_on_c, 1, 63, 84
4, 36093, Note_on_c, 1, 63, 0
4, 36096, Note_on_c, 1, 64, 84
4, 36141, Note_on_c, 1, 64, 0
4, 36144, Note_on_c, 1, 63, 84
4, 36189, Note_on_c, 1, 63, 0
4, 36192, Note_on_c, 1, 64, 84
4, 36237, Note_on_c, 1, 64, 0
4, 36240, Note_on_c, 1, 63, 84
4, 36285, Note_on_c, 1, 63, 0
4, 36288, Note_on_c, 1, 64, 75
4, 36355, Note_on_c, 1, 64, 0
4, 36360, Note_on_c, 1, 63, 72
4, 36383, Note_on_c, 1, 63, 0
4, 36384, Note_on_c, 1, 64, 72
4, 36451, Note_on_c, 1, 64, 0
4, 36456, Note_on_c, 1, 63, 70
4, 36479, Note_on_c, 1, 63, 0
4, 36480, Note_on_c, 1, 64, 69
4, 36547, Note_on_c, 1, 64, 0
4, 36552, Note_on_c, 1, 63, 67
4, 36575, Note_on_c, 1, 63, 0
4, 36576, Note_on_c, 1, 64, 66
4, 36599, Note_on_c, 1, 64, 0
4, 36600, Note_on_c, 1, 63, 65
4, 36623, Note_on_c, 1, 63, 0
4, 36624, Note_on_c, 1, 64, 65
4, 36647, Note_on_c, 1, 64, 0
4, 36648, Note_on_c, 1, 63, 64
4, 36671, Note_on_c, 1, 63, 0
4, 36672, Note_on_c, 1, 64, 63
4, 36761, Note_on_c, 1, 64, 0
4, 36864, Control_c, 1, 64, 127
4, 36864, Note_on_c, 1, 57, 84
4, 36876, Note_on_c, 1, 57, 0
4, 36876, Note_on_c, 1, 61, 84
4, 36888, Note_on_c, 1, 61, 0
4, 36888, Note_on_c, 1, 64, 84
4, 36900, Note_on_c, 1, 64, 0
4, 36900, Note_on_c, 1, 67, 84
4, 36912, Note_on_c, 1, 67, 0
4, 37056, Control_c, 1, 64, 0
4, 37248, Note_on_c, 1, 50, 75
4, 37248, Note_on_c, 1, 38, 75
4, 37337, Note_on_c, 1, 50, 0
4, 37337, Note_on_c, 1, 38, 0
4, 37392, Note_on_c, 1, 66, 75
4, 37392, Note_on_c, 1, 62, 75
4, 37412, Note_on_c, 1, 66, 0
4, 37412, Note_on_c, 1, 62, 0
4, 37440, Note_on_c, 1, 67, 75
4, 37440, Note_on_c, 1, 62, 75
4, 37460, Note_on_c, 1, 67, 0
4, 37460, Note_on_c, 1, 62, 0
4, 37488, Note_on_c, 1, 66, 75
4, 37488, Note_on_c, 1, 62, 75
4, 37508, Note_on_c, 1, 66, 0
4, 37508, Note_on_c, 1, 62, 0
4, 37632, Note_on_c, 1, 50, 75
4, 37632, Note_on_c, 1, 38, 75
4, 37721, Note_on_c, 1, 50, 0
4, 37721, Note_on_c, 1, 38, 0
4, 37776, Note_on_c, 1, 62, 75
4, 37796, Note_on_c, 1, 62, 0
4, 37824, Note_on_c, 1, 57, 75
4, 37844, Note_on_c, 1, 57, 0
4, 37872, Note_on_c, 1, 62, 75
4, 37892, Note_on_c, 1, 62, 0
4, 38064, Note_on_c, 1, 62, 69
4, 38064, Note_on_c, 1, 54, 69
4, 38084, Note_on_c, 1, 62, 0
4, 38084, Note_on_c, 1, 54, 0
4, 38112, Note_on_c, 1, 62, 69
4, 38112, Note_on_c, 1, 54, 69
4, 38132, Note_on_c, 1, 62, 0
4, 38132, Note_on_c, 1, 54, 0
4, 38256, Note_on_c, 1, 62, 69
4, 38256, Note_on_c, 1, 55, 69
4, 38276, Note_on_c, 1, 62, 0
4, 38276, Note_on_c, 1, 55, 0
4, 38304, Note_on_c, 1, 62, 69
4, 38304, Note_on_c, 1, 55, 69
4, 38324, Note_on_c, 1, 62, 0
4, 38324, Note_on_c, 1, 55, 0
4, 38400, Note_on_c, 1, 57, 75
4, 38489, Note_on_c, 1, 57, 0
4, 38496, Note_on_c, 1, 45, 75
4, 38585, Note_on_c, 1, 45, 0
4, 38592, Note_on_c, 1, 50, 75
4, 38681, Note_on_c, 1, 50, 0
4, 38688, Note_on_c, 1, 38, 75
4, 38733, Note_on_c, 1, 38, 0
4, 38832, Note_on_c, 1, 62, 69
4, 38832, Note_on_c, 1, 54, 69
4, 38852, Note_on_c, 1, 62, 0
4, 38852, Note_on_c, 1, 54, 0
4, 38880, Note_on_c, 1, 62, 69
4, 38880, Note_on_c, 1, 54, 69
4, 38900, Note_on_c, 1, 62, 0
4, 38900, Note_on_c, 1, 54, 0
4, 39024, Note_on_c, 1, 62, 69
4, 39024, Note_on_c, 1, 55, 69
4, 39044, Note_on_c, 1, 62, 0
4, 39044, Note_on_c, 1, 55, 0
4, 39072, Note_on_c, 1, 62, 69
4, 39072, Note_on_c, 1, 55, 69
4, 39092, Note_on_c, 1, 62, 0
4, 39092, Note_on_c, 1, 55, 0
4, 39168, Note_on_c, 1, 57, 75
4, 39213, Note_on_c, 1, 57, 0
4, 39264, Note_on_c, 1, 45, 75
4, 39309, Note_on_c, 1, 45, 0
4, 39360, Note_on_c, 1, 38, 75
4, 39449, Note_on_c, 1, 38, 0
4, 39792, Note_on_c, 1, 56, 75
4, 39840, Note_on_c, 1, 56, 0
4, 39840, Note_on_c, 1, 57, 75
4, 39885, Note_on_c, 1, 57, 0
4, 40176, Note_on_c, 1, 58, 75
4, 40224, Note_on_c, 1, 58, 0
4, 40224, Note_on_c, 1, 59, 75
4, 40269, Note_on_c, 1, 59, 0
4, 40512, Note_on_c, 1, 55, 61
4, 40535, Note_on_c, 1, 55, 0
4, 40536, Note_on_c, 1, 62, 61
4, 40559, Note_on_c, 1, 62, 0
4, 40560, Note_on_c, 1, 55, 61
4, 40583, Note_on_c, 1, 55, 0
4, 40584, Note_on_c, 1, 62, 61
4, 40607, Note_on_c, 1, 62, 0
4, 40608, Note_on_c, 1, 54, 61
4, 40631, Note_on_c, 1, 54, 0
4, 40632, Note_on_c, 1, 62, 61
4, 40655, Note_on_c, 1, 62, 0
4, 40656, Note_on_c, 1, 54, 61
4, 40679, Note_on_c, 1, 54, 0
4, 40680, Note_on_c, 1, 62, 61
4, 40703, Note_on_c, 1, 62, 0
4, 40704, Note_on_c, 1, 59, 61
4, 40727, Note_on_c, 1, 59, 0
4, 40728, Note_on_c, 1, 62, 61
4, 40751, Note_on_c, 1, 62, 0
4, 40752, Note_on_c, 1, 59, 61
4, 40775, Note_on_c, 1, 59, 0
4, 40776, Note_on_c, 1, 62, 61
4, 40799, Note_on_c, 1, 62, 0
4, 40800, Note_on_c, 1, 57, 61
4, 40823, Note_on_c, 1, 57, 0
4, 40824, Note_on_c, 1, 62, 61
4, 40847, Note_on_c, 1, 62, 0
4, 40848, Note_on_c, 1, 57, 61
4, 40871, Note_on_c, 1, 57, 0
4, 40872, Note_on_c, 1, 62, 61
4, 40895, Note_on_c, 1, 62, 0
4, 40896, Note_on_c, 1, 55, 61
4, 40919, Note_on_c, 1, 55, 0
4, 40920, Note_on_c, 1, 62, 61
4, 40943, Note_on_c, 1, 62, 0
4, 40944, Note_on_c, 1, 55, 61
4, 40967, Note_on_c, 1, 55, 0
4, 40968, Note_on_c, 1, 62, 61
4, 40991, Note_on_c, 1, 62, 0
4, 40992, Note_on_c, 1, 54, 61
4, 41015, Note_on_c, 1, 54, 0
4, 41016, Note_on_c, 1, 62, 61
4, 41039, Note_on_c, 1, 62, 0
4, 41040, Note_on_c, 1, 54, 61
4, 41063, Note_on_c, 1, 54, 0
4, 41064, Note_on_c, 1, 62, 61
4, 41087, Note_on_c, 1, 62, 0
4, 41088, Note_on_c, 1, 59, 61
4, 41111, Note_on_c, 1, 59, 0
4, 41112, Note_on_c, 1, 62, 61
4, 41135, Note_on_c, 1, 62, 0
4, 41136, Note_on_c, 1, 59, 61
4, 41159, Note_on_c, 1, 59, 0
4, 41160, Note_on_c, 1, 62, 61
4, 41183, Note_on_c, 1, 62, 0
4, 41184, Note_on_c, 1, 57, 61
4, 41207, Note_on_c, 1, 57, 0
4, 41208, Note_on_c, 1, 62, 61
4, 41231, Note_on_c, 1, 62, 0
4, 41232, Note_on_c, 1, 57, 61
4, 41255, Note_on_c, 1, 57, 0
4, 41256, Note_on_c, 1, 62, 61
4, 41279, Note_on_c, 1, 62, 0
4, 41280, Note_on_c, 1, 55, 75
4, 41369, Note_on_c, 1, 55, 0
4, 41424, Note_on_c, 1, 55, 75
4, 41424, Note_on_c, 1, 43, 75
4, 41469, Note_on_c, 1, 55, 0
4, 41469, Note_on_c, 1, 43, 0
4, 41472, Note_on_c, 1, 54, 75
4, 41472, Note_on_c, 1, 45, 75
4, 41664, Note_on_c, 1, 54, 0
4, 41664, Note_on_c, 1, 52, 63
4, 41709, Note_on_c, 1, 52, 0
4, 41709, Note_on_c, 1, 45, 0
4, 41856, Note_on_c, 1, 57, 84
4, 41856, Note_on_c, 1, 52, 84
4, 41856, Note_on_c, 1, 49, 84
4, 41856, Note_on_c, 1, 45, 84
4, 41901, Note_on_c, 1, 57, 0
4, 41901, Note_on_c, 1, 52, 0
4, 41901, Note_on_c, 1, 49, 0
4, 41901, Note_on_c, 1, 45, 0
4, 41952, Note_on_c, 1, 57, 84
4, 41952, Note_on_c, 1, 52, 84
4, 41952, Note_on_c, 1, 49, 84
4, 41952, Note_on_c, 1, 45, 84
4, 41997, Note_on_c, 1, 57, 0
4, 41997, Note_on_c, 1, 52, 0
4, 41997, Note_on_c, 1, 49, 0
4, 41997, Note_on_c, 1, 45, 0
4, 42048, Note_on_c, 1, 57, 84
4, 42048, Note_on_c, 1, 52, 84
4, 42048, Note_on_c, 1, 49, 84
4, 42048, Note_on_c, 1, 45, 84
4, 42093, Note_on_c, 1, 57, 0
4, 42093, Note_on_c, 1, 52, 0
4, 42093, Note_on_c, 1, 49, 0
4, 42093, Note_on_c, 1, 45, 0
4, 42240, Note_on_c, 1, 45, 75
4, 42263, Note_on_c, 1, 45, 0
4, 42264, Note_on_c, 1, 52, 75
4, 42287, Note_on_c, 1, 52, 0
4, 42288, Note_on_c, 1, 50, 75
4, 42311, Note_on_c, 1, 50, 0
4, 42312, Note_on_c, 1, 52, 75
4, 42335, Note_on_c, 1, 52, 0
4, 42336, Note_on_c, 1, 49, 75
4, 42359, Note_on_c, 1, 49, 0
4, 42360, Note_on_c, 1, 52, 75
4, 42383, Note_on_c, 1, 52, 0
4, 42384, Note_on_c, 1, 45, 75
4, 42407, Note_on_c, 1, 45, 0
4, 42408, Note_on_c, 1, 49, 75
4, 42431, Note_on_c, 1, 49, 0
4, 42432, Note_on_c, 1, 50, 75
4, 42521, Note_on_c, 1, 50, 0
4, 42624, Note_on_c, 1, 50, 75
4, 42647, Note_on_c, 1, 50, 0
4, 42648, Note_on_c, 1, 57, 75
4, 42671, Note_on_c, 1, 57, 0
4, 42672, Note_on_c, 1, 55, 75
4, 42695, Note_on_c, 1, 55, 0
4, 42696, Note_on_c, 1, 57, 75
4, 42719, Note_on_c, 1, 57, 0
4, 42720, Note_on_c, 1, 54, 75
4, 42743, Note_on_c, 1, 54, 0
4, 42744, Note_on_c, 1, 57, 75
4, 42767, Note_on_c, 1, 57, 0
4, 42768, Note_on_c, 1, 50, 75
4, 42791, Note_on_c, 1, 50, 0
4, 42792, Note_on_c, 1, 54, 75
4, 42815, Note_on_c, 1, 54, 0
4, 42816, Note_on_c, 1, 55, 75
4, 42905, Note_on_c, 1, 55, 0
4, 43008, Note_on_c, 1, 52, 75
4, 43031, Note_on_c, 1, 52, 0
4, 43032, Note_on_c, 1, 59, 75
4, 43055, Note_on_c, 1, 59, 0
4, 43056, Note_on_c, 1, 57, 75
4, 43079, Note_on_c, 1, 57, 0
4, 43080, Note_on_c, 1, 59, 75
4, 43103, Note_on_c, 1, 59, 0
4, 43104, Note_on_c, 1, 56, 75
4, 43127, Note_on_c, 1, 56, 0
4, 43128, Note_on_c, 1, 59, 75
4, 43151, Note_on_c, 1, 59, 0
4, 43152, Note_on_c, 1, 52, 75
4, 43175, Note_on_c, 1, 52, 0
4, 43176, Note_on_c, 1, 56, 75
4, 43199, Note_on_c, 1, 56, 0
4, 43200, Note_on_c, 1, 57, 75
4, 43289, Note_on_c, 1, 57, 0
4, 43392, Note_on_c, 1, 59, 61
4, 43415, Note_on_c, 1, 59, 0
4, 43416, Note_on_c, 1, 65, 61
4, 43439, Note_on_c, 1, 65, 0
4, 43440, Note_on_c, 1, 59, 61
4, 43463, Note_on_c, 1, 59, 0
4, 43464, Note_on_c, 1, 65, 61
4, 43487, Note_on_c, 1, 65, 0
4, 43488, Note_on_c, 1, 59, 61
4, 43511, Note_on_c, 1, 59, 0
4, 43512, Note_on_c, 1, 65, 61
4, 43535, Note_on_c, 1, 65, 0
4, 43536, Note_on_c, 1, 59, 61
4, 43559, Note_on_c, 1, 59, 0
4, 43560, Note_on_c, 1, 65, 61
4, 43583, Note_on_c, 1, 65, 0
4, 43584, Note_on_c, 1, 61, 61
4, 43607, Note_on_c, 1, 61, 0
4, 43608, Note_on_c, 1, 64, 61
4, 43631, Note_on_c, 1, 64, 0
4, 43632, Note_on_c, 1, 61, 61
4, 43655, Note_on_c, 1, 61, 0
4, 43656, Note_on_c, 1, 64, 61
4, 43679, Note_on_c, 1, 64, 0
4, 43680, Note_on_c, 1, 61, 61
4, 43703, Note_on_c, 1, 61, 0
4, 43704, Note_on_c, 1, 64, 61
4, 43727, Note_on_c, 1, 64, 0
4, 43728, Note_on_c, 1, 61, 61
4, 43751, Note_on_c, 1, 61, 0
4, 43752, Note_on_c, 1, 64, 61
4, 43775, Note_on_c, 1, 64, 0
4, 43776, Note_on_c, 1, 59, 61
4, 43799, Note_on_c, 1, 59, 0
4, 43800, Note_on_c, 1, 65, 61
4, 43823, Note_on_c, 1, 65, 0
4, 43824, Note_on_c, 1, 59, 61
4, 43847, Note_on_c, 1, 59, 0
4, 43848, Note_on_c, 1, 65, 61
4, 43871, Note_on_c, 1, 65, 0
4, 43872, Note_on_c, 1, 59, 61
4, 43895, Note_on_c, 1, 59, 0
4, 43896, Note_on_c, 1, 65, 61
4, 43919, Note_on_c, 1, 65, 0
4, 43920, Note_on_c, 1, 59, 61
4, 43943, Note_on_c, 1, 59, 0
4, 43944, Note_on_c, 1, 65, 61
4, 43967, Note_on_c, 1, 65, 0
4, 43968, Note_on_c, 1, 61, 61
4, 43991, Note_on_c, 1, 61, 0
4, 43992, Note_on_c, 1, 64, 61
4, 44015, Note_on_c, 1, 64, 0
4, 44016, Note_on_c, 1, 61, 61
4, 44039, Note_on_c, 1, 61, 0
4, 44040, Note_on_c, 1, 64, 61
4, 44063, Note_on_c, 1, 64, 0
4, 44064, Note_on_c, 1, 61, 61
4, 44087, Note_on_c, 1, 61, 0
4, 44088, Note_on_c, 1, 64, 61
4, 44111, Note_on_c, 1, 64, 0
4, 44112, Note_on_c, 1, 61, 61
4, 44135, Note_on_c, 1, 61, 0
4, 44136, Note_on_c, 1, 64, 61
4, 44159, Note_on_c, 1, 64, 0
4, 44160, Note_on_c, 1, 62, 61
4, 44183, Note_on_c, 1, 62, 0
4, 44184, Note_on_c, 1, 66, 61
4, 44207, Note_on_c, 1, 66, 0
4, 44208, Note_on_c, 1, 62, 61
4, 44231, Note_on_c, 1, 62, 0
4, 44232, Note_on_c, 1, 66, 61
4, 44255, Note_on_c, 1, 66, 0
4, 44256, Note_on_c, 1, 62, 61
4, 44279, Note_on_c, 1, 62, 0
4, 44280, Note_on_c, 1, 66, 61
4, 44303, Note_on_c, 1, 66, 0
4, 44304, Note_on_c, 1, 62, 61
4, 44327, Note_on_c, 1, 62, 0
4, 44328, Note_on_c, 1, 66, 61
4, 44351, Note_on_c, 1, 66, 0
4, 44352, Note_on_c, 1, 64, 61
4, 44375, Note_on_c, 1, 64, 0
4, 44376, Note_on_c, 1, 67, 61
4, 44399, Note_on_c, 1, 67, 0
4, 44400, Note_on_c, 1, 64, 61
4, 44423, Note_on_c, 1, 64, 0
4, 44424, Note_on_c, 1, 67, 61
4, 44447, Note_on_c, 1, 67, 0
4, 44448, Note_on_c, 1, 64, 61
4, 44471, Note_on_c, 1, 64, 0
4, 44472, Note_on_c, 1, 67, 61
4, 44495, Note_on_c, 1, 67, 0
4, 44496, Note_on_c, 1, 64, 61
4, 44519, Note_on_c, 1, 64, 0
4, 44520, Note_on_c, 1, 67, 61
4, 44543, Note_on_c, 1, 67, 0
4, 44544, Note_on_c, 1, 66, 61
4, 44567, Note_on_c, 1, 66, 0
4, 44568, Note_on_c, 1, 69, 61
4, 44591, Note_on_c, 1, 69, 0
4, 44592, Note_on_c, 1, 66, 61
4, 44615, Note_on_c, 1, 66, 0
4, 44616, Note_on_c, 1, 69, 61
4, 44639, Note_on_c, 1, 69, 0
4, 44640, Note_on_c, 1, 66, 61
4, 44663, Note_on_c, 1, 66, 0
4, 44664, Note_on_c, 1, 69, 61
4, 44687, Note_on_c, 1, 69, 0
4, 44688, Note_on_c, 1, 66, 61
4, 44711, Note_on_c, 1, 66, 0
4, 44712, Note_on_c, 1, 69, 61
4, 44735, Note_on_c, 1, 69, 0
4, 44736, Note_on_c, 1, 61, 61
4, 44759, Note_on_c, 1, 61, 0
4, 44760, Note_on_c, 1, 69, 61
4, 44783, Note_on_c, 1, 69, 0
4, 44784, Note_on_c, 1, 61, 61
4, 44807, Note_on_c, 1, 61, 0
4, 44808, Note_on_c, 1, 69, 61
4, 44831, Note_on_c, 1, 69, 0
4, 44832, Note_on_c, 1, 61, 61
4, 44855, Note_on_c, 1, 61, 0
4, 44856, Note_on_c, 1, 69, 61
4, 44879, Note_on_c, 1, 69, 0
4, 44880, Note_on_c, 1, 61, 61
4, 44903, Note_on_c, 1, 61, 0
4, 44904, Note_on_c, 1, 69, 61
4, 44927, Note_on_c, 1, 69, 0
4, 44928, Note_on_c, 1, 62, 75
4, 45017, Note_on_c, 1, 62, 0
4, 45120, Note_on_c, 1, 64, 75
4, 45120, Note_on_c, 1, 61, 75
4, 45209, Note_on_c, 1, 64, 0
4, 45209, Note_on_c, 1, 61, 0
4, 45312, Note_on_c, 1, 50, 75
4, 45401, Note_on_c, 1, 50, 0
4, 45504, Note_on_c, 1, 57, 75
4, 45527, Note_on_c, 1, 57, 0
4, 45528, Note_on_c, 1, 56, 75
4, 45551, Note_on_c, 1, 56, 0
4, 45552, Note_on_c, 1, 57, 75
4, 45575, Note_on_c, 1, 57, 0
4, 45576, Note_on_c, 1, 59, 75
4, 45599, Note_on_c, 1, 59, 0
4, 45600, Note_on_c, 1, 57, 75
4, 45623, Note_on_c, 1, 57, 0
4, 45624, Note_on_c, 1, 55, 75
4, 45647, Note_on_c, 1, 55, 0
4, 45648, Note_on_c, 1, 54, 75
4, 45671, Note_on_c, 1, 54, 0
4, 45672, Note_on_c, 1, 52, 75
4, 45695, Note_on_c, 1, 52, 0
4, 45696, Note_on_c, 1, 50, 75
4, 45785, Note_on_c, 1, 50, 0
4, 45888, Note_on_c, 1, 67, 75
4, 45977, Note_on_c, 1, 67, 0
4, 46080, Note_on_c, 1, 55, 75
4, 46169, Note_on_c, 1, 55, 0
4, 46512, Note_on_c, 1, 62, 75
4, 46601, Note_on_c, 1, 62, 0
4, 46608, Note_on_c, 1, 61, 75
4, 46653, Note_on_c, 1, 61, 0
4, 46656, Note_on_c, 1, 62, 75
4, 46701, Note_on_c, 1, 62, 0
4, 46752, Note_on_c, 1, 66, 75
4, 46797, Note_on_c, 1, 66, 0
4, 46848, Note_on_c, 1, 67, 75
4, 46871, Note_on_c, 1, 67, 0
4, 46872, Note_on_c, 1, 69, 75
4, 46895, Note_on_c, 1, 69, 0
4, 46896, Note_on_c, 1, 71, 75
4, 46919, Note_on_c, 1, 71, 0
4, 46920, Note_on_c, 1, 69, 75
4, 46943, Note_on_c, 1, 69, 0
4, 46944, Note_on_c, 1, 67, 75
4, 46967, Note_on_c, 1, 67, 0
4, 46968, Note_on_c, 1, 66, 75
4, 46991, Note_on_c, 1, 66, 0
4, 46992, Note_on_c, 1, 64, 75
4, 47015, Note_on_c, 1, 64, 0
4, 47016, Note_on_c, 1, 62, 75
4, 47039, Note_on_c, 1, 62, 0
4, 47040, Note_on_c, 1, 61, 75
4, 47085, Note_on_c, 1, 61, 0
4, 47136, Note_on_c, 1, 64, 75
4, 47181, Note_on_c, 1, 64, 0
4, 47232, Note_on_c, 1, 66, 75
4, 47255, Note_on_c, 1, 66, 0
4, 47256, Note_on_c, 1, 67, 75
4, 47279, Note_on_c, 1, 67, 0
4, 47280, Note_on_c, 1, 69, 75
4, 47303, Note_on_c, 1, 69, 0
4, 47304, Note_on_c, 1, 67, 75
4, 47327, Note_on_c, 1, 67, 0
4, 47328, Note_on_c, 1, 66, 75
4, 47351, Note_on_c, 1, 66, 0
4, 47352, Note_on_c, 1, 64, 75
4, 47375, Note_on_c, 1, 64, 0
4, 47376, Note_on_c, 1, 62, 75
4, 47399, Note_on_c, 1, 62, 0
4, 47400, Note_on_c, 1, 61, 75
4, 47423, Note_on_c, 1, 61, 0
4, 47424, Note_on_c, 1, 59, 75
4, 47469, Note_on_c, 1, 59, 0
4, 47520, Note_on_c, 1, 62, 75
4, 47565, Note_on_c, 1, 62, 0
4, 47616, Note_on_c, 1, 64, 75
4, 47639, Note_on_c, 1, 64, 0
4, 47640, Note_on_c, 1, 66, 75
4, 47663, Note_on_c, 1, 66, 0
4, 47664, Note_on_c, 1, 67, 75
4, 47687, Note_on_c, 1, 67, 0
4, 47688, Note_on_c, 1, 66, 75
4, 47711, Note_on_c, 1, 66, 0
4, 47712, Note_on_c, 1, 64, 75
4, 47735, Note_on_c, 1, 64, 0
4, 47736, Note_on_c, 1, 62, 75
4, 47759, Note_on_c, 1, 62, 0
4, 47760, Note_on_c, 1, 61, 75
4, 47783, Note_on_c, 1, 61, 0
4, 47784, Note_on_c, 1, 59, 75
4, 47807, Note_on_c, 1, 59, 0
4, 47808, Note_on_c, 1, 57, 75
4, 47853, Note_on_c, 1, 57, 0
4, 47904, Note_on_c, 1, 61, 75
4, 47949, Note_on_c, 1, 61, 0
4, 48000, Note_on_c, 1, 62, 75
4, 48089, Note_on_c, 1, 62, 0
4, 48192, Note_on_c, 1, 55, 75
4, 48281, Note_on_c, 1, 55, 0
4, 48384, Note_on_c, 1, 43, 75
4, 48473, Note_on_c, 1, 43, 0
4, 49536, Note_on_c, 1, 66, 61
4, 49536, Note_on_c, 1, 62, 61
4, 49536, Note_on_c, 1, 57, 61
4, 49581, Note_on_c, 1, 66, 0
4, 49581, Note_on_c, 1, 62, 0
4, 49581, Note_on_c, 1, 57, 0
4, 49584, Note_on_c, 1, 66, 61
4, 49584, Note_on_c, 1, 62, 61
4, 49584, Note_on_c, 1, 57, 61
4, 49629, Note_on_c, 1, 66, 0
4, 49629, Note_on_c, 1, 62, 0
4, 49629, Note_on_c, 1, 57, 0
4, 49632, Note_on_c, 1, 66, 61
4, 49632, Note_on_c, 1, 62, 61
4, 49632, Note_on_c, 1, 57, 61
4, 49677, Note_on_c, 1, 66, 0
4, 49677, Note_on_c, 1, 62, 0
4, 49677, Note_on_c, 1, 57, 0
4, 49680, Note_on_c, 1, 66, 61
4, 49680, Note_on_c, 1, 62, 61
4, 49680, Note_on_c, 1, 57, 61
4, 49725, Note_on_c, 1, 66, 0
4, 49725, Note_on_c, 1, 62, 0
4, 49725, Note_on_c, 1, 57, 0
4, 49728, Note_on_c, 1, 61, 61
4, 49728, Note_on_c, 1, 57, 61
4, 49773, Note_on_c, 1, 61, 0
4, 49773, Note_on_c, 1, 57, 0
4, 49776, Note_on_c, 1, 61, 61
4, 49776, Note_on_c, 1, 57, 61
4, 49821, Note_on_c, 1, 61, 0
4, 49821, Note_on_c, 1, 57, 0
4, 49824, Note_on_c, 1, 61, 61
4, 49824, Note_on_c, 1, 57, 61
4, 49869, Note_on_c, 1, 61, 0
4, 49869, Note_on_c, 1, 57, 0
4, 49872, Note_on_c, 1, 61, 61
4, 49872, Note_on_c, 1, 57, 61
4, 49917, Note_on_c, 1, 61, 0
4, 49917, Note_on_c, 1, 57, 0
4, 49920, Note_on_c, 1, 50, 69
4, 49943, Note_on_c, 1, 50, 0
4, 49944, Note_on_c, 1, 62, 69
4, 49967, Note_on_c, 1, 62, 0
4, 49968, Note_on_c, 1, 61, 69
4, 49991, Note_on_c, 1, 61, 0
4, 49992, Note_on_c, 1, 62, 69
4, 50015, Note_on_c, 1, 62, 0
4, 50016, Note_on_c, 1, 54, 69
4, 50039, Note_on_c, 1, 54, 0
4, 50040, Note_on_c, 1, 62, 69
4, 50063, Note_on_c, 1, 62, 0
4, 50064, Note_on_c, 1, 61, 69
4, 50087, Note_on_c, 1, 61, 0
4, 50088, Note_on_c, 1, 62, 69
4, 50111, Note_on_c, 1, 62, 0
4, 50112, Note_on_c, 1, 55, 69
4, 50135, Note_on_c, 1, 55, 0
4, 50136, Note_on_c, 1, 62, 69
4, 50159, Note_on_c, 1, 62, 0
4, 50160, Note_on_c, 1, 54, 69
4, 50183, Note_on_c, 1, 54, 0
4, 50184, Note_on_c, 1, 62, 69
4, 50207, Note_on_c, 1, 62, 0
4, 50208, Note_on_c, 1, 55, 69
4, 50231, Note_on_c, 1, 55, 0
4, 50232, Note_on_c, 1, 62, 69
4, 50255, Note_on_c, 1, 62, 0
4, 50256, Note_on_c, 1, 54, 69
4, 50279, Note_on_c, 1, 54, 0
4, 50280, Note_on_c, 1, 62, 69
4, 50303, Note_on_c, 1, 62, 0
4, 50304, Note_on_c, 1, 61, 69
4, 50304, Note_on_c, 1, 52, 69
4, 50393, Note_on_c, 1, 61, 0
4, 50393, Note_on_c, 1, 52, 0
4, 50448, Note_on_c, 1, 62, 69
4, 50448, Note_on_c, 1, 50, 69
4, 50493, Note_on_c, 1, 62, 0
4, 50493, Note_on_c, 1, 50, 0
4, 50496, Note_on_c, 1, 59, 69
4, 50496, Note_on_c, 1, 55, 69
4, 50541, Note_on_c, 1, 59, 0
4, 50541, Note_on_c, 1, 55, 0
4, 50592, Note_on_c, 1, 57, 69
4, 50592, Note_on_c, 1, 45, 69
4, 50637, Note_on_c, 1, 57, 0
4, 50637, Note_on_c, 1, 45, 0
4, 50688, Note_on_c, 1, 50, 69
4, 50711, Note_on_c, 1, 50, 0
4, 50712, Note_on_c, 1, 62, 69
4, 50735, Note_on_c, 1, 62, 0
4, 50736, Note_on_c, 1, 61, 69
4, 50759, Note_on_c, 1, 61, 0
4, 50760, Note_on_c, 1, 62, 69
4, 50783, Note_on_c, 1, 62, 0
4, 50784, Note_on_c, 1, 54, 69
4, 50807, Note_on_c, 1, 54, 0
4, 50808, Note_on_c, 1, 62, 69
4, 50831, Note_on_c, 1, 62, 0
4, 50832, Note_on_c, 1, 61, 69
4, 50855, Note_on_c, 1, 61, 0
4, 50856, Note_on_c, 1, 62, 69
4, 50879, Note_on_c, 1, 62, 0
4, 50880, Note_on_c, 1, 55, 69
4, 50903, Note_on_c, 1, 55, 0
4, 50904, Note_on_c, 1, 62, 69
4, 50927, Note_on_c, 1, 62, 0
4, 50928, Note_on_c, 1, 54, 69
4, 50951, Note_on_c, 1, 54, 0
4, 50952, Note_on_c, 1, 62, 69
4, 50975, Note_on_c, 1, 62, 0
4, 50976, Note_on_c, 1, 55, 69
4, 50999, Note_on_c, 1, 55, 0
4, 51000, Note_on_c, 1, 62, 69
4, 51023, Note_on_c, 1, 62, 0
4, 51024, Note_on_c, 1, 54, 69
4, 51047, Note_on_c, 1, 54, 0
4, 51048, Note_on_c, 1, 62, 69
4, 51071, Note_on_c, 1, 62, 0
4, 51072, Note_on_c, 1, 61, 69
4, 51072, Note_on_c, 1, 52, 69
4, 51161, Note_on_c, 1, 61, 0
4, 51161, Note_on_c, 1, 52, 0
4, 51216, Note_on_c, 1, 62, 69
4, 51216, Note_on_c, 1, 50, 69
4, 51261, Note_on_c, 1, 62, 0
4, 51261, Note_on_c, 1, 50, 0
4, 51264, Note_on_c, 1, 59, 69
4, 51264, Note_on_c, 1, 55, 69
4, 51309, Note_on_c, 1, 59, 0
4, 51309, Note_on_c, 1, 55, 0
4, 51360, Note_on_c, 1, 57, 69
4, 51360, Note_on_c, 1, 45, 69
4, 51405, Note_on_c, 1, 57, 0
4, 51405, Note_on_c, 1, 45, 0
4, 51456, Note_on_c, 1, 50, 69
4, 51456, Note_on_c, 1, 38, 69
4, 51501, Note_on_c, 1, 50, 0
4, 51501, Note_on_c, 1, 38, 0
4, 51552, Note_on_c, 1, 55, 84
4, 51552, Note_on_c, 1, 45, 84
4, 51597, Note_on_c, 1, 55, 0
4, 51597, Note_on_c, 1, 45, 0
4, 51648, Note_on_c, 1, 54, 76
4, 51648, Note_on_c, 1, 45, 76
4, 51693, Note_on_c, 1, 54, 0
4, 51693, Note_on_c, 1, 45, 0
4, 51744, Note_on_c, 1, 52, 68
4, 51744, Note_on_c, 1, 45, 68
4, 51789, Note_on_c, 1, 52, 0
4, 51789, Note_on_c, 1, 45, 0
4, 51840, Note_on_c, 1, 50, 60
4, 51840, Note_on_c, 1, 38, 60
4, 51929, Note_on_c, 1, 50, 0
4, 51929, Note_on_c, 1, 38, 0
4, 52032, Note_on_c, 1, 42, 84
4, 52032, Note_on_c, 1, 30, 84
4, 52224, Note_on_c, 1, 30, 0
4, 52593, Note_on_c, 1, 42, 0
4, 52944, Note_on_c, 1, 66, 75
4, 52944, Note_on_c, 1, 62, 75
4, 52964, Note_on_c, 1, 66, 0
4, 52964, Note_on_c, 1, 62, 0
4, 52992, Note_on_c, 1, 67, 75
4, 52992, Note_on_c, 1, 64, 75
4, 53012, Note_on_c, 1, 67, 0
4, 53012, Note_on_c, 1, 64, 0
4, 53040, Note_on_c, 1, 66, 75
4, 53040, Note_on_c, 1, 62, 75
4, 53060, Note_on_c, 1, 66, 0
4, 53060, Note_on_c, 1, 62, 0
4, 53328, Note_on_c, 1, 74, 75
4, 53328, Note_on_c, 1, 71, 75
4, 53348, Note_on_c, 1, 74, 0
4, 53348, Note_on_c, 1, 71, 0
4, 53376, Note_on_c, 1, 73, 75
4, 53376, Note_on_c, 1, 70, 75
4, 53396, Note_on_c, 1, 73, 0
4, 53396, Note_on_c, 1, 70, 0
4, 53424, Note_on_c, 1, 74, 75
4, 53424, Note_on_c, 1, 71, 75
4, 53444, Note_on_c, 1, 74, 0
4, 53444, Note_on_c, 1, 71, 0
4, 53664, Note_on_c, 1, 74, 75
4, 53664, Note_on_c, 1, 71, 75
4, 53684, Note_on_c, 1, 74, 0
4, 53684, Note_on_c, 1, 71, 0
4, 53712, Note_on_c, 1, 73, 75
4, 53712, Note_on_c, 1, 69, 75
4, 53732, Note_on_c, 1, 73, 0
4, 53732, Note_on_c, 1, 69, 0
4, 53760, Note_on_c, 1, 71, 75
4, 53760, Note_on_c, 1, 67, 75
4, 53780, Note_on_c, 1, 71, 0
4, 53780, Note_on_c, 1, 67, 0
4, 53808, Note_on_c, 1, 69, 75
4, 53808, Note_on_c, 1, 66, 75
4, 53828, Note_on_c, 1, 69, 0
4, 53828, Note_on_c, 1, 66, 0
4, 53952, Note_on_c, 1, 50, 84
4, 54321, Note_on_c, 1, 50, 0
4, 54336, Note_on_c, 1, 51, 84
4, 54513, Note_on_c, 1, 51, 0
4, 54528, Note_on_c, 1, 52, 84
4, 54705, Note_on_c, 1, 52, 0
4, 54744, Note_on_c, 1, 61, 84
4, 54767, Note_on_c, 1, 61, 0
4, 54768, Note_on_c, 1, 59, 84
4, 54791, Note_on_c, 1, 59, 0
4, 54792, Note_on_c, 1, 61, 84
4, 54815, Note_on_c, 1, 61, 0
4, 54816, Note_on_c, 1, 62, 84
4, 54839, Note_on_c, 1, 62, 0
4, 54840, Note_on_c, 1, 61, 84
4, 54863, Note_on_c, 1, 61, 0
4, 54864, Note_on_c, 1, 64, 84
4, 54887, Note_on_c, 1, 64, 0
4, 54888, Note_on_c, 1, 59, 84
4, 54911, Note_on_c, 1, 59, 0
4, 54912, Note_on_c, 1, 66, 84
4, 54912, Note_on_c, 1, 58, 84
4, 55104, Note_on_c, 1, 58, 0
4, 55104, Note_on_c, 1, 59, 84
4, 55193, Note_on_c, 1, 66, 0
4, 55193, Note_on_c, 1, 59, 0
4, 55200, Note_on_c, 1, 65, 84
4, 55200, Note_on_c, 1, 55, 84
4, 55289, Note_on_c, 1, 65, 0
4, 55289, Note_on_c, 1, 55, 0
4, 55296, Note_on_c, 1, 66, 84
4, 55296, Note_on_c, 1, 54, 84
4, 55385, Note_on_c, 1, 66, 0
4, 55385, Note_on_c, 1, 54, 0
4, 55488, Note_on_c, 1, 42, 84
4, 55582, Note_on_c, 1, 42, 0
4, 55920, Note_on_c, 1, 53, 84
4, 55968, Note_on_c, 1, 53, 0
4, 55968, Note_on_c, 1, 54, 84
4, 56013, Note_on_c, 1, 54, 0
4, 56304, Note_on_c, 1, 58, 84
4, 56352, Note_on_c, 1, 58, 0
4, 56352, Note_on_c, 1, 59, 84
4, 56397, Note_on_c, 1, 59, 0
4, 56496, Note_on_c, 1, 59, 84
4, 56516, Note_on_c, 1, 59, 0
4, 56544, Note_on_c, 1, 64, 84
4, 56564, Note_on_c, 1, 64, 0
4, 56592, Note_on_c, 1, 66, 84
4, 56612, Note_on_c, 1, 66, 0
4, 56640, Note_on_c, 1, 67, 84
4, 56729, Note_on_c, 1, 67, 0
4, 56784, Note_on_c, 1, 52, 84
4, 56829, Note_on_c, 1, 52, 0
4, 56832, Note_on_c, 1, 57, 84
4, 56852, Note_on_c, 1, 57, 0
4, 56880, Note_on_c, 1, 59, 84
4, 56900, Note_on_c, 1, 59, 0
4, 56928, Note_on_c, 1, 61, 84
4, 56948, Note_on_c, 1, 61, 0
4, 56976, Note_on_c, 1, 62, 84
4, 56996, Note_on_c, 1, 62, 0
4, 57024, Note_on_c, 1, 64, 84
4, 57113, Note_on_c, 1, 64, 0
4, 57168, Note_on_c, 1, 45, 84
4, 57213, Note_on_c, 1, 45, 0
4, 57216, Note_on_c, 1, 50, 84
4, 57236, Note_on_c, 1, 50, 0
4, 57264, Note_on_c, 1, 52, 84
4, 57284, Note_on_c, 1, 52, 0
4, 57312, Note_on_c, 1, 54, 84
4, 57332, Note_on_c, 1, 54, 0
4, 57360, Note_on_c, 1, 55, 84
4, 57380, Note_on_c, 1, 55, 0
4, 57408, Note_on_c, 1, 57, 84
4, 57497, Note_on_c, 1, 57, 0
4, 57552, Note_on_c, 1, 50, 84
4, 57597, Note_on_c, 1, 50, 0
4, 57600, Note_on_c, 1, 55, 84
4, 57689, Note_on_c, 1, 55, 0
4, 57792, Note_on_c, 1, 43, 84
4, 57881, Note_on_c, 1, 43, 0
4, 57984, Note_on_c, 1, 45, 84
4, 58007, Note_on_c, 1, 45, 0
4, 58008, Note_on_c, 1, 47, 84
4, 58031, Note_on_c, 1, 47, 0
4, 58032, Note_on_c, 1, 49, 84
4, 58055, Note_on_c, 1, 49, 0
4, 58056, Note_on_c, 1, 50, 84
4, 58079, Note_on_c, 1, 50, 0
4, 58080, Note_on_c, 1, 52, 84
4, 58103, Note_on_c, 1, 52, 0
4, 58104, Note_on_c, 1, 54, 84
4, 58127, Note_on_c, 1, 54, 0
4, 58128, Note_on_c, 1, 55, 84
4, 58151, Note_on_c, 1, 55, 0
4, 58152, Note_on_c, 1, 54, 84
4, 58175, Note_on_c, 1, 54, 0
4, 58176, Note_on_c, 1, 52, 84
4, 58265, Note_on_c, 1, 52, 0
4, 59328, Note_on_c, 1, 71, 84
4, 59351, Note_on_c, 1, 71, 0
4, 59352, Note_on_c, 1, 73, 84
4, 59375, Note_on_c, 1, 73, 0
4, 59376, Note_on_c, 1, 74, 84
4, 59399, Note_on_c, 1, 74, 0
4, 59400, Note_on_c, 1, 73, 84
4, 59423, Note_on_c, 1, 73, 0
4, 59424, Note_on_c, 1, 71, 84
4, 59447, Note_on_c, 1, 71, 0
4, 59448, Note_on_c, 1, 69, 84
4, 59471, Note_on_c, 1, 69, 0
4, 59472, Note_on_c, 1, 67, 84
4, 59495, Note_on_c, 1, 67, 0
4, 59496, Note_on_c, 1, 66, 84
4, 59519, Note_on_c, 1, 66, 0
4, 59520, Note_on_c, 1, 67, 84
4, 59543, Note_on_c, 1, 67, 0
4, 59544, Note_on_c, 1, 69, 84
4, 59567, Note_on_c, 1, 69, 0
4, 59568, Note_on_c, 1, 71, 84
4, 59591, Note_on_c, 1, 71, 0
4, 59592, Note_on_c, 1, 69, 84
4, 59615, Note_on_c, 1, 69, 0
4, 59616, Note_on_c, 1, 67, 84
4, 59639, Note_on_c, 1, 67, 0
4, 59640, Note_on_c, 1, 66, 84
4, 59663, Note_on_c, 1, 66, 0
4, 59664, Note_on_c, 1, 64, 84
4, 59687, Note_on_c, 1, 64, 0
4, 59688, Note_on_c, 1, 62, 84
4, 59711, Note_on_c, 1, 62, 0
4, 59712, Note_on_c, 1, 61, 84
4, 59845, Note_on_c, 1, 61, 0
4, 59856, Note_on_c, 1, 62, 84
4, 59901, Note_on_c, 1, 62, 0
4, 59904, Note_on_c, 1, 61, 84
4, 59949, Note_on_c, 1, 61, 0
4, 59952, Note_on_c, 1, 62, 84
4, 59997, Note_on_c, 1, 62, 0
4, 60000, Note_on_c, 1, 61, 84
4, 60045, Note_on_c, 1, 61, 0
4, 60048, Note_on_c, 1, 63, 84
4, 60093, Note_on_c, 1, 63, 0
4, 60096, Note_on_c, 1, 64, 84
4, 60229, Note_on_c, 1, 64, 0
4, 60240, Note_on_c, 1, 63, 84
4, 60285, Note_on_c, 1, 63, 0
4, 60288, Note_on_c, 1, 64, 84
4, 60333, Note_on_c, 1, 64, 0
4, 60336, Note_on_c, 1, 63, 84
4, 60381, Note_on_c, 1, 63, 0
4, 60384, Note_on_c, 1, 64, 84
4, 60429, Note_on_c, 1, 64, 0
4, 60432, Note_on_c, 1, 63, 84
4, 60477, Note_on_c, 1, 63, 0
4, 60480, Note_on_c, 1, 64, 75
4, 60547, Note_on_c, 1, 64, 0
4, 60552, Note_on_c, 1, 63, 72
4, 60575, Note_on_c, 1, 63, 0
4, 60576, Note_on_c, 1, 64, 72
4, 60643, Note_on_c, 1, 64, 0
4, 60648, Note_on_c, 1, 63, 70
4, 60671, Note_on_c, 1, 63, 0
4, 60672, Note_on_c, 1, 64, 69
4, 60739, Note_on_c, 1, 64, 0
4, 60744, Note_on_c, 1, 63, 67
4, 60767, Note_on_c, 1, 63, 0
4, 60768, Note_on_c, 1, 64, 66
4, 60791, Note_on_c, 1, 64, 0
4, 60792, Note_on_c, 1, 63, 65
4, 60815, Note_on_c, 1, 63, 0
4, 60816, Note_on_c, 1, 64, 65
4, 60839, Note_on_c, 1, 64, 0
4, 60840, Note_on_c, 1, 63, 64
4, 60863, Note_on_c, 1, 63, 0
4, 60864, Note_on_c, 1, 64, 63
4, 60953, Note_on_c, 1, 64, 0
4, 61056, Control_c, 1, 64, 127
4, 61056, Note_on_c, 1, 57, 84
4, 61068, Note_on_c, 1, 57, 0
4, 61068, Note_on_c, 1, 61, 84
4, 61080, Note_on_c, 1, 61, 0
4, 61080, Note_on_c, 1, 64, 84
4, 61092, Note_on_c, 1, 64, 0
4, 61092, Note_on_c, 1, 67, 84
4, 61104, Note_on_c, 1, 67, 0
4, 61248, Control_c, 1, 64, 0
4, 61440, Note_on_c, 1, 50, 75
4, 61440, Note_on_c, 1, 38, 75
4, 61529, Note_on_c, 1, 50, 0
4, 61529, Note_on_c, 1, 38, 0
4, 61584, Note_on_c, 1, 66, 75
4, 61584, Note_on_c, 1, 62, 75
4, 61604, Note_on_c, 1, 66, 0
4, 61604, Note_on_c, 1, 62, 0
4, 61632, Note_on_c, 1, 67, 75
4, 61632, Note_on_c, 1, 62, 75
4, 61652, Note_on_c, 1, 67, 0
4, 61652, Note_on_c, 1, 62, 0
4, 61680, Note_on_c, 1, 66, 75
4, 61680, Note_on_c, 1, 62, 75
4, 61700, Note_on_c, 1, 66, 0
4, 61700, Note_on_c, 1, 62, 0
4, 61824, Note_on_c, 1, 50, 75
4, 61824, Note_on_c, 1, 38, 75
4, 61913, Note_on_c, 1, 50, 0
4, 61913, Note_on_c, 1, 38, 0
4, 61968, Note_on_c, 1, 62, 75
4, 61988, Note_on_c, 1, 62, 0
4, 62016, Note_on_c, 1, 57, 75
4, 62036, Note_on_c, 1, 57, 0
4, 62064, Note_on_c, 1, 62, 75
4, 62084, Note_on_c, 1, 62, 0
4, 62256, Note_on_c, 1, 62, 69
4, 62256, Note_on_c, 1, 54, 69
4, 62276, Note_on_c, 1, 62, 0
4, 62276, Note_on_c, 1, 54, 0
4, 62304, Note_on_c, 1, 62, 69
4, 62304, Note_on_c, 1, 54, 69
4, 62324, Note_on_c, 1, 62, 0
4, 62324, Note_on_c, 1, 54, 0
4, 62448, Note_on_c, 1, 62, 69
4, 62448, Note_on_c, 1, 55, 69
4, 62468, Note_on_c, 1, 62, 0
4, 62468, Note_on_c, 1, 55, 0
4, 62496, Note_on_c, 1, 62, 69
4, 62496, Note_on_c, 1, 55, 69
4, 62516, Note_on_c, 1, 62, 0
4, 62516, Note_on_c, 1, 55, 0
4, 62592, Note_on_c, 1, 57, 75
4, 62681, Note_on_c, 1, 57, 0
4, 62688, Note_on_c, 1, 45, 75
4, 62777, Note_on_c, 1, 45, 0
4, 62784, Note_on_c, 1, 50, 75
4, 62873, Note_on_c, 1, 50, 0
4, 62880, Note_on_c, 1, 38, 75
4, 62925, Note_on_c, 1, 38, 0
4, 63024, Note_on_c, 1, 62, 69
4, 63024, Note_on_c, 1, 54, 69
4, 63044, Note_on_c, 1, 62, 0
4, 63044, Note_on_c, 1, 54, 0
4, 63072, Note_on_c, 1, 62, 69
4, 63072, Note_on_c, 1, 54, 69
4, 63092, Note_on_c, 1, 62, 0
4, 63092, Note_on_c, 1, 54, 0
4, 63216, Note_on_c, 1, 62, 69
4, 63216, Note_on_c, 1, 55, 69
4, 63236, Note_on_c, 1, 62, 0
4, 63236, Note_on_c, 1, 55, 0
4, 63264, Note_on_c, 1, 62, 69
4, 63264, Note_on_c, 1, 55, 69
4, 63284, Note_on_c, 1, 62, 0
4, 63284, Note_on_c, 1, 55, 0
4, 63360, Note_on_c, 1, 57, 75
4, 63405, Note_on_c, 1, 57, 0
4, 63456, Note_on_c, 1, 45, 75
4, 63501, Note_on_c, 1, 45, 0
4, 63552, Note_on_c, 1, 38, 75
4, 63641, Note_on_c, 1, 38, 0
4, 63984, Note_on_c, 1, 56, 75
4, 64032, Note_on_c, 1, 56, 0
4, 64032, Note_on_c, 1, 57, 75
4, 64077, Note_on_c, 1, 57, 0
4, 64368, Note_on_c, 1, 58, 75
4, 64416, Note_on_c, 1, 58, 0
4, 64416, Note_on_c, 1, 59, 75
4, 64461, Note_on_c, 1, 59, 0
4, 64704, Note_on_c, 1, 55, 61
4, 64727, Note_on_c, 1, 55, 0
4, 64728, Note_on_c, 1, 62, 61
4, 64751, Note_on_c, 1, 62, 0
4, 64752, Note_on_c, 1, 55, 61
4, 64775, Note_on_c, 1, 55, 0
4, 64776, Note_on_c, 1, 62, 61
4, 64799, Note_on_c, 1, 62, 0
4, 64800, Note_on_c, 1, 54, 61
4, 64823, Note_on_c, 1, 54, 0
4, 64824, Note_on_c, 1, 62, 61
4, 64847, Note_on_c, 1, 62, 0
4, 64848, Note_on_c, 1, 54, 61
4, 64871, Note_on_c, 1, 54, 0
4, 64872, Note_on_c, 1, 62, 61
4, 64895, Note_on_c, 1, 62, 0
4, 64896, Note_on_c, 1, 59, 61
4, 64919, Note_on_c, 1, 59, 0
4, 64920, Note_on_c, 1, 62, 61
4, 64943, Note_on_c, 1, 62, 0
4, 64944, Note_on_c, 1, 59, 61
4, 64967, Note_on_c, 1, 59, 0
4, 64968, Note_on_c, 1, 62, 61
4, 64991, Note_on_c, 1, 62, 0
4, 64992, Note_on_c, 1, 57, 61
4, 65015, Note_on_c, 1, 57, 0
4, 65016, Note_on_c, 1, 62, 61
4, 65039, Note_on_c, 1, 62, 0
4, 65040, Note_on_c, 1, 57, 61
4, 65063, Note_on_c, 1, 57, 0
4, 65064, Note_on_c, 1, 62, 61
4, 65087, Note_on_c, 1, 62, 0
4, 65088, Note_on_c, 1, 55, 61
4, 65111, Note_on_c, 1, 55, 0
4, 65112, Note_on_c, 1, 62, 61
4, 65135, Note_on_c, 1, 62, 0
4, 65136, Note_on_c, 1, 55, 61
4, 65159, Note_on_c, 1, 55, 0
4, 65160, Note_on_c, 1, 62, 61
4, 65183, Note_on_c, 1, 62, 0
4, 65184, Note_on_c, 1, 54, 61
4, 65207, Note_on_c, 1, 54, 0
4, 65208, Note_on_c, 1, 62, 61
4, 65231, Note_on_c, 1, 62, 0
4, 65232, Note_on_c, 1, 54, 61
4, 65255, Note_on_c, 1, 54, 0
4, 65256, Note_on_c, 1, 62, 61
4, 65279, Note_on_c, 1, 62, 0
4, 65280, Note_on_c, 1, 59, 61
4, 65303, Note_on_c, 1, 59, 0
4, 65304, Note_on_c, 1, 62, 61
4, 65327, Note_on_c, 1, 62, 0
4, 65328, Note_on_c, 1, 59, 61
4, 65351, Note_on_c, 1, 59, 0
4, 65352, Note_on_c, 1, 62, 61
4, 65375, Note_on_c, 1, 62, 0
4, 65376, Note_on_c, 1, 57, 61
4, 65399, Note_on_c, 1, 57, 0
4, 65400, Note_on_c, 1, 62, 61
4, 65423, Note_on_c, 1, 62, 0
4, 65424, Note_on_c, 1, 57, 61
4, 65447, Note_on_c, 1, 57, 0
4, 65448, Note_on_c, 1, 62, 61
4, 65471, Note_on_c, 1, 62, 0
4, 65472, Note_on_c, 1, 55, 75
4, 65561, Note_on_c, 1, 55, 0
4, 65616, Note_on_c, 1, 55, 75
4, 65616, Note_on_c, 1, 43, 75
4, 65661, Note_on_c, 1, 55, 0
4, 65661, Note_on_c, 1, 43, 0
4, 65664, Note_on_c, 1, 54, 75
4, 65664, Note_on_c, 1, 45, 75
4, 65856, Note_on_c, 1, 54, 0
4, 65856, Note_on_c, 1, 52, 63
4, 65901, Note_on_c, 1, 52, 0
4, 65901, Note_on_c, 1, 45, 0
4, 66048, Note_on_c, 1, 57, 84
4, 66048, Note_on_c, 1, 52, 84
4, 66048, Note_on_c, 1, 49, 84
4, 66048, Note_on_c, 1, 45, 84
4, 66093, Note_on_c, 1, 57, 0
4, 66093, Note_on_c, 1, 52, 0
4, 66093, Note_on_c, 1, 49, 0
4, 66093, Note_on_c, 1, 45, 0
4, 66144, Note_on_c, 1, 57, 84
4, 66144, Note_on_c, 1, 52, 84
4, 66144, Note_on_c, 1, 49, 84
4, 66144, Note_on_c, 1, 45, 84
4, 66189, Note_on_c, 1, 57, 0
4, 66189, Note_on_c, 1, 52, 0
4, 66189, Note_on_c, 1, 49, 0
4, 66189, Note_on_c, 1, 45, 0
4, 66240, Note_on_c, 1, 57, 84
4, 66240, Note_on_c, 1, 52, 84
4, 66240, Note_on_c, 1, 49, 84
4, 66240, Note_on_c, 1, 45, 84
4, 66285, Note_on_c, 1, 57, 0
4, 66285, Note_on_c, 1, 52, 0
4, 66285, Note_on_c, 1, 49, 0
4, 66285, Note_on_c, 1, 45, 0
4, 66432, Note_on_c, 1, 45, 75
4, 66455, Note_on_c, 1, 45, 0
4, 66456, Note_on_c, 1, 52, 75
4, 66479, Note_on_c, 1, 52, 0
4, 66480, Note_on_c, 1, 50, 75
4, 66503, Note_on_c, 1, 50, 0
4, 66504, Note_on_c, 1, 52, 75
4, 66527, Note_on_c, 1, 52, 0
4, 66528, Note_on_c, 1, 49, 75
4, 66551, Note_on_c, 1, 49, 0
4, 66552, Note_on_c, 1, 52, 75
4, 66575, Note_on_c, 1, 52, 0
4, 66576, Note_on_c, 1, 45, 75
4, 66599, Note_on_c, 1, 45, 0
4, 66600, Note_on_c, 1, 49, 75
4, 66623, Note_on_c, 1, 49, 0
4, 66624, Note_on_c, 1, 50, 75
4, 66713, Note_on_c, 1, 50, 0
4, 66816, Note_on_c, 1, 50, 75
4, 66839, Note_on_c, 1, 50, 0
4, 66840, Note_on_c, 1, 57, 75
4, 66863, Note_on_c, 1, 57, 0
4, 66864, Note_on_c, 1, 55, 75
4, 66887, Note_on_c, 1, 55, 0
4, 66888, Note_on_c, 1, 57, 75
4, 66911, Note_on_c, 1, 57, 0
4, 66912, Note_on_c, 1, 54, 75
4, 66935, Note_on_c, 1, 54, 0
4, 66936, Note_on_c, 1, 57, 75
4, 66959, Note_on_c, 1, 57, 0
4, 66960, Note_on_c, 1, 50, 75
4, 66983, Note_on_c, 1, 50, 0
4, 66984, Note_on_c, 1, 54, 75
4, 67007, Note_on_c, 1, 54, 0
4, 67008, Note_on_c, 1, 55, 75
4, 67097, Note_on_c, 1, 55, 0
4, 67200, Note_on_c, 1, 52, 75
4, 67223, Note_on_c, 1, 52, 0
4, 67224, Note_on_c, 1, 59, 75
4, 67247, Note_on_c, 1, 59, 0
4, 67248, Note_on_c, 1, 57, 75
4, 67271, Note_on_c, 1, 57, 0
4, 67272, Note_on_c, 1, 59, 75
4, 67295, Note_on_c, 1, 59, 0
4, 67296, Note_on_c, 1, 56, 75
4, 67319, Note_on_c, 1, 56, 0
4, 67320, Note_on_c, 1, 59, 75
4, 67343, Note_on_c, 1, 59, 0
4, 67344, Note_on_c, 1, 52, 75
4, 67367, Note_on_c, 1, 52, 0
4, 67368, Note_on_c, 1, 56, 75
4, 67391, Note_on_c, 1, 56, 0
4, 67392, Note_on_c, 1, 57, 75
4, 67481, Note_on_c, 1, 57, 0
4, 67584, Note_on_c, 1, 59, 61
4, 67607, Note_on_c, 1, 59, 0
4, 67608, Note_on_c, 1, 65, 61
4, 67631, Note_on_c, 1, 65, 0
4, 67632, Note_on_c, 1, 59, 61
4, 67655, Note_on_c, 1, 59, 0
4, 67656, Note_on_c, 1, 65, 61
4, 67679, Note_on_c, 1, 65, 0
4, 67680, Note_on_c, 1, 59, 61
4, 67703, Note_on_c, 1, 59, 0
4, 67704, Note_on_c, 1, 65, 61
4, 67727, Note_on_c, 1, 65, 0
4, 67728, Note_on_c, 1, 59, 61
4, 67751, Note_on_c, 1, 59, 0
4, 67752, Note_on_c, 1, 65, 61
4, 67775, Note_on_c, 1, 65, 0
4, 67776, Note_on_c, 1, 61, 61
4, 67799, Note_on_c, 1, 61, 0
4, 67800, Note_on_c, 1, 64, 61
4, 67823, Note_on_c, 1, 64, 0
4, 67824, Note_on_c, 1, 61, 61
4, 67847, Note_on_c, 1, 61, 0
4, 67848, Note_on_c, 1, 64, 61
4, 67871, Note_on_c, 1, 64, 0
4, 67872, Note_on_c, 1, 61, 61
4, 67895, Note_on_c, 1, 61, 0
4, 67896, Note_on_c, 1, 64, 61
4, 67919, Note_on_c, 1, 64, 0
4, 67920, Note_on_c, 1, 61, 61
4, 67943, Note_on_c, 1, 61, 0
4, 67944, Note_on_c, 1, 64, 61
4, 67967, Note_on_c, 1, 64, 0
4, 67968, Note_on_c, 1, 59, 61
4, 67991, Note_on_c, 1, 59, 0
4, 67992, Note_on_c, 1, 65, 61
4, 68015, Note_on_c, 1, 65, 0
4, 68016, Note_on_c, 1, 59, 61
4, 68039, Note_on_c, 1, 59, 0
4, 68040, Note_on_c, 1, 65, 61
4, 68063, Note_on_c, 1, 65, 0
4, 68064, Note_on_c, 1, 59, 61
4, 68087, Note_on_c, 1, 59, 0
4, 68088, Note_on_c, 1, 65, 61
4, 68111, Note_on_c, 1, 65, 0
4, 68112, Note_on_c, 1, 59, 61
4, 68135, Note_on_c, 1, 59, 0
4, 68136, Note_on_c, 1, 65, 61
4, 68159, Note_on_c, 1, 65, 0
4, 68160, Note_on_c, 1, 61, 61
4, 68183, Note_on_c, 1, 61, 0
4, 68184, Note_on_c, 1, 64, 61
4, 68207, Note_on_c, 1, 64, 0
4, 68208, Note_on_c, 1, 61, 61
4, 68231, Note_on_c, 1, 61, 0
4, 68232, Note_on_c, 1, 64, 61
4, 68255, Note_on_c, 1, 64, 0
4, 68256, Note_on_c, 1, 61, 61
4, 68279, Note_on_c, 1, 61, 0
4, 68280, Note_on_c, 1, 64, 61
4, 68303, Note_on_c, 1, 64, 0
4, 68304, Note_on_c, 1, 61, 61
4, 68327, Note_on_c, 1, 61, 0
4, 68328, Note_on_c, 1, 64, 61
4, 68351, Note_on_c, 1, 64, 0
4, 68352, Note_on_c, 1, 62, 61
4, 68375, Note_on_c, 1, 62, 0
4, 68376, Note_on_c, 1, 66, 61
4, 68399, Note_on_c, 1, 66, 0
4, 68400, Note_on_c, 1, 62, 61
4, 68423, Note_on_c, 1, 62, 0
4, 68424, Note_on_c, 1, 66, 61
4, 68447, Note_on_c, 1, 66, 0
4, 68448, Note_on_c, 1, 62, 61
4, 68471, Note_on_c, 1, 62, 0
4, 68472, Note_on_c, 1, 66, 61
4, 68495, Note_on_c, 1, 66, 0
4, 68496, Note_on_c, 1, 62, 61
4, 68519, Note_on_c, 1, 62, 0
4, 68520, Note_on_c, 1, 66, 61
4, 68543, Note_on_c, 1, 66, 0
4, 68544, Note_on_c, 1, 64, 61
4, 68567, Note_on_c, 1, 64, 0
4, 68568, Note_on_c, 1, 67, 61
4, 68591, Note_on_c, 1, 67, 0
4, 68592, Note_on_c, 1, 64, 61
4, 68615, Note_on_c, 1, 64, 0
4, 68616, Note_on_c, 1, 67, 61
4, 68639, Note_on_c, 1, 67, 0
4, 68640, Note_on_c, 1, 64, 61
4, 68663, Note_on_c, 1, 64, 0
4, 68664, Note_on_c, 1, 67, 61
4, 68687, Note_on_c, 1, 67, 0
4, 68688, Note_on_c, 1, 64, 61
4, 68711, Note_on_c, 1, 64, 0
4, 68712, Note_on_c, 1, 67, 61
4, 68735, Note_on_c, 1, 67, 0
4, 68736, Note_on_c, 1, 66, 61
4, 68759, Note_on_c, 1, 66, 0
4, 68760, Note_on_c, 1, 69, 61
4, 68783, Note_on_c, 1, 69, 0
4, 68784, Note_on_c, 1, 66, 61
4, 68807, Note_on_c, 1, 66, 0
4, 68808, Note_on_c, 1, 69, 61
4, 68831, Note_on_c, 1, 69, 0
4, 68832, Note_on_c, 1, 66, 61
4, 68855, Note_on_c, 1, 66, 0
4, 68856, Note_on_c, 1, 69, 61
4, 68879, Note_on_c, 1, 69, 0
4, 68880, Note_on_c, 1, 66, 61
4, 68903, Note_on_c, 1, 66, 0
4, 68904, Note_on_c, 1, 69, 61
4, 68927, Note_on_c, 1, 69, 0
4, 68928, Note_on_c, 1, 61, 61
4, 68951, Note_on_c, 1, 61, 0
4, 68952, Note_on_c, 1, 69, 61
4, 68975, Note_on_c, 1, 69, 0
4, 68976, Note_on_c, 1, 61, 61
4, 68999, Note_on_c, 1, 61, 0
4, 69000, Note_on_c, 1, 69, 61
4, 69023, Note_on_c, 1, 69, 0
4, 69024, Note_on_c, 1, 61, 61
4, 69047, Note_on_c, 1, 61, 0
4, 69048, Note_on_c, 1, 69, 61
4, 69071, Note_on_c, 1, 69, 0
4, 69072, Note_on_c, 1, 61, 61
4, 69095, Note_on_c, 1, 61, 0
4, 69096, Note_on_c, 1, 69, 61
4, 69119, Note_on_c, 1, 69, 0
4, 69120, Note_on_c, 1, 62, 75
4, 69209, Note_on_c, 1, 62, 0
4, 69312, Note_on_c, 1, 64, 75
4, 69312, Note_on_c, 1, 61, 75
4, 69401, Note_on_c, 1, 64, 0
4, 69401, Note_on_c, 1, 61, 0
4, 69504, Note_on_c, 1, 50, 75
4, 69593, Note_on_c, 1, 50, 0
4, 69696, Note_on_c, 1, 57, 75
4, 69719, Note_on_c, 1, 57, 0
4, 69720, Note_on_c, 1, 56, 75
4, 69743, Note_on_c, 1, 56, 0
4, 69744, Note_on_c, 1, 57, 75
4, 69767, Note_on_c, 1, 57, 0
4, 69768, Note_on_c, 1, 59, 75
4, 69791, Note_on_c, 1, 59, 0
4, 69792, Note_on_c, 1, 57, 75
4, 69815, Note_on_c, 1, 57, 0
4, 69816, Note_on_c, 1, 55, 75
4, 69839, Note_on_c, 1, 55, 0
4, 69840, Note_on_c, 1, 54, 75
4, 69863, Note_on_c, 1, 54, 0
4, 69864, Note_on_c, 1, 52, 75
4, 69887, Note_on_c, 1, 52, 0
4, 69888, Note_on_c, 1, 50, 75
4, 69977, Note_on_c, 1, 50, 0
4, 70080, Note_on_c, 1, 67, 75
4, 70169, Note_on_c, 1, 67, 0
4, 70272, Note_on_c, 1, 55, 75
4, 70361, Note_on_c, 1, 55, 0
4, 70704, Note_on_c, 1, 62, 75
4, 70793, Note_on_c, 1, 62, 0
4, 70800, Note_on_c, 1, 61, 75
4, 70845, Note_on_c, 1, 61, 0
4, 70848, Note_on_c, 1, 62, 75
4, 70893, Note_on_c, 1, 62, 0
4, 70944, Note_on_c, 1, 66, 75
4, 70989, Note_on_c, 1, 66, 0
4, 71040, Note_on_c, 1, 67, 75
4, 71063, Note_on_c, 1, 67, 0
4, 71064, Note_on_c, 1, 69, 75
4, 71087, Note_on_c, 1, 69, 0
4, 71088, Note_on_c, 1, 71, 75
4, 71111, Note_on_c, 1, 71, 0
4, 71112, Note_on_c, 1, 69, 75
4, 71135, Note_on_c, 1, 69, 0
4, 71136, Note_on_c, 1, 67, 75
4, 71159, Note_on_c, 1, 67, 0
4, 71160, Note_on_c, 1, 66, 75
4, 71183, Note_on_c, 1, 66, 0
4, 71184, Note_on_c, 1, 64, 75
4, 71207, Note_on_c, 1, 64, 0
4, 71208, Note_on_c, 1, 62, 75
4, 71231, Note_on_c, 1, 62, 0
4, 71232, Note_on_c, 1, 61, 75
4, 71277, Note_on_c, 1, 61, 0
4, 71328, Note_on_c, 1, 64, 75
4, 71373, Note_on_c, 1, 64, 0
4, 71424, Note_on_c, 1, 66, 75
4, 71447, Note_on_c, 1, 66, 0
4, 71448, Note_on_c, 1, 67, 75
4, 71471, Note_on_c, 1, 67, 0
4, 71472, Note_on_c, 1, 69, 75
4, 71495, Note_on_c, 1, 69, 0
4, 71496, Note_on_c, 1, 67, 75
4, 71519, Note_on_c, 1, 67, 0
4, 71520, Note_on_c, 1, 66, 75
4, 71543, Note_on_c, 1, 66, 0
4, 71544, Note_on_c, 1, 64, 75
4, 71567, Note_on_c, 1, 64, 0
4, 71568, Note_on_c, 1, 62, 75
4, 71591, Note_on_c, 1, 62, 0
4, 71592, Note_on_c, 1, 61, 75
4, 71615, Note_on_c, 1, 61, 0
4, 71616, Note_on_c, 1, 59, 75
4, 71661, Note_on_c, 1, 59, 0
4, 71712, Note_on_c, 1, 62, 75
4, 71757, Note_on_c, 1, 62, 0
4, 71808, Note_on_c, 1, 64, 75
4, 71831, Note_on_c, 1, 64, 0
4, 71832, Note_on_c, 1, 66, 75
4, 71855, Note_on_c, 1, 66, 0
4, 71856, Note_on_c, 1, 67, 75
4, 71879, Note_on_c, 1, 67, 0
4, 71880, Note_on_c, 1, 66, 75
4, 71903, Note_on_c, 1, 66, 0
4, 71904, Note_on_c, 1, 64, 75
4, 71927, Note_on_c, 1, 64, 0
4, 71928, Note_on_c, 1, 62, 75
4, 71951, Note_on_c, 1, 62, 0
4, 71952, Note_on_c, 1, 61, 75
4, 71975, Note_on_c, 1, 61, 0
4, 71976, Note_on_c, 1, 59, 75
4, 71999, Note_on_c, 1, 59, 0
4, 72000, Note_on_c, 1, 57, 75
4, 72045, Note_on_c, 1, 57, 0
4, 72096, Note_on_c, 1, 61, 75
4, 72141, Note_on_c, 1, 61, 0
4, 72192, Note_on_c, 1, 62, 75
4, 72281, Note_on_c, 1, 62, 0
4, 72384, Note_on_c, 1, 55, 75
4, 72473, Note_on_c, 1, 55, 0
4, 72576, Note_on_c, 1, 43, 75
4, 72665, Note_on_c, 1, 43, 0
4, 73728, Note_on_c, 1, 66, 61
4, 73728, Note_on_c, 1, 62, 61
4, 73728, Note_on_c, 1, 57, 61
4, 73773, Note_on_c, 1, 66, 0
4, 73773, Note_on_c, 1, 62, 0
4, 73773, Note_on_c, 1, 57, 0
4, 73776, Note_on_c, 1, 66, 61
4, 73776, Note_on_c, 1, 62, 61
4, 73776, Note_on_c, 1, 57, 61
4, 73821, Note_on_c, 1, 66, 0
4, 73821, Note_on_c, 1, 62, 0
4, 73821, Note_on_c, 1, 57, 0
4, 73824, Note_on_c, 1, 66, 61
4, 73824, Note_on_c, 1, 62, 61
4, 73824, Note_on_c, 1, 57, 61
4, 73869, Note_on_c, 1, 66, 0
4, 73869, Note_on_c, 1, 62, 0
4, 73869, Note_on_c, 1, 57, 0
4, 73872, Note_on_c, 1, 66, 61
4, 73872, Note_on_c, 1, 62, 61
4, 73872, Note_on_c, 1, 57, 61
4, 73917, Note_on_c, 1, 66, 0
4, 73917, Note_on_c, 1, 62, 0
4, 73917, Note_on_c, 1, 57, 0
4, 73920, Note_on_c, 1, 61, 61
4, 73920, Note_on_c, 1, 57, 61
4, 73965, Note_on_c, 1, 61, 0
4, 73965, Note_on_c, 1, 57, 0
4, 73968, Note_on_c, 1, 61, 61
4, 73968, Note_on_c, 1, 57, 61
4, 74013, Note_on_c, 1, 61, 0
4, 74013, Note_on_c, 1, 57, 0
4, 74016, Note_on_c, 1, 61, 61
4, 74016, Note_on_c, 1, 57, 61
4, 74061, Note_on_c, 1, 61, 0
4, 74061, Note_on_c, 1, 57, 0
4, 74064, Note_on_c, 1, 61, 61
4, 74064, Note_on_c, 1, 57, 61
4, 74109, Note_on_c, 1, 61, 0
4, 74109, Note_on_c, 1, 57, 0
4, 74112, Note_on_c, 1, 50, 69
4, 74135, Note_on_c, 1, 50, 0
4, 74136, Note_on_c, 1, 62, 69
4, 74159, Note_on_c, 1, 62, 0
4, 74160, Note_on_c, 1, 61, 69
4, 74183, Note_on_c, 1, 61, 0
4, 74184, Note_on_c, 1, 62, 69
4, 74207, Note_on_c, 1, 62, 0
4, 74208, Note_on_c, 1, 54, 69
4, 74231, Note_on_c, 1, 54, 0
4, 74232, Note_on_c, 1, 62, 69
4, 74255, Note_on_c, 1, 62, 0
4, 74256, Note_on_c, 1, 61, 69
4, 74279, Note_on_c, 1, 61, 0
4, 74280, Note_on_c, 1, 62, 69
4, 74303, Note_on_c, 1, 62, 0
4, 74304, Note_on_c, 1, 55, 69
4, 74327, Note_on_c, 1, 55, 0
4, 74328, Note_on_c, 1, 62, 69
4, 74351, Note_on_c, 1, 62, 0
4, 74352, Note_on_c, 1, 54, 69
4, 74375, Note_on_c, 1, 54, 0
4, 74376, Note_on_c, 1, 62, 69
4, 74399, Note_on_c, 1, 62, 0
4, 74400, Note_on_c, 1, 55, 69
4, 74423, Note_on_c, 1, 55, 0
4, 74424, Note_on_c, 1, 62, 69
4, 74447, Note_on_c, 1, 62, 0
4, 74448, Note_on_c, 1, 54, 69
4, 74471, Note_on_c, 1, 54, 0
4, 74472, Note_on_c, 1, 62, 69
4, 74495, Note_on_c, 1, 62, 0
4, 74496, Note_on_c, 1, 61, 69
4, 74496, Note_on_c, 1, 52, 69
4, 74585, Note_on_c, 1, 61, 0
4, 74585, Note_on_c, 1, 52, 0
4, 74640, Note_on_c, 1, 62, 69
4, 74640, Note_on_c, 1, 50, 69
4, 74685, Note_on_c, 1, 62, 0
4, 74685, Note_on_c, 1, 50, 0
4, 74688, Note_on_c, 1, 59, 69
4, 74688, Note_on_c, 1, 55, 69
4, 74733, Note_on_c, 1, 59, 0
4, 74733, Note_on_c, 1, 55, 0
4, 74784, Note_on_c, 1, 57, 69
4, 74784, Note_on_c, 1, 45, 69
4, 74829, Note_on_c, 1, 57, 0
4, 74829, Note_on_c, 1, 45, 0
4, 74880, Note_on_c, 1, 50, 69
4, 74903, Note_on_c, 1, 50, 0
4, 74904, Note_on_c, 1, 62, 69
4, 74927, Note_on_c, 1, 62, 0
4, 74928, Note_on_c, 1, 61, 69
4, 74951, Note_on_c, 1, 61, 0
4, 74952, Note_on_c, 1, 62, 69
4, 74975, Note_on_c, 1, 62, 0
4, 74976, Note_on_c, 1, 54, 69
4, 74999, Note_on_c, 1, 54, 0
4, 75000, Note_on_c, 1, 62, 69
4, 75023, Note_on_c, 1, 62, 0
4, 75024, Note_on_c, 1, 61, 69
4, 75047, Note_on_c, 1, 61, 0
4, 75048, Note_on_c, 1, 62, 69
4, 75071, Note_on_c, 1, 62, 0
4, 75072, Note_on_c, 1, 55, 69
4, 75095, Note_on_c, 1, 55, 0
4, 75096, Note_on_c, 1, 62, 69
4, 75119, Note_on_c, 1, 62, 0
4, 75120, Note_on_c, 1, 54, 69
4, 75143, Note_on_c, 1, 54, 0
4, 75144, Note_on_c, 1, 62, 69
4, 75167, Note_on_c, 1, 62, 0
4, 75168, Note_on_c, 1, 55, 69
4, 75191, Note_on_c, 1, 55, 0
4, 75192, Note_on_c, 1, 62, 69
4, 75215, Note_on_c, 1, 62, 0
4, 75216, Note_on_c, 1, 54, 69
4, 75239, Note_on_c, 1, 54, 0
4, 75240, Note_on_c, 1, 62, 69
4, 75263, Note_on_c, 1, 62, 0
4, 75264, Note_on_c, 1, 61, 69
4, 75264, Note_on_c, 1, 52, 69
4, 75353, Note_on_c, 1, 61, 0
4, 75353, Note_on_c, 1, 52, 0
4, 75408, Note_on_c, 1, 62, 69
4, 75408, Note_on_c, 1, 50, 69
4, 75453, Note_on_c, 1, 62, 0
4, 75453, Note_on_c, 1, 50, 0
4, 75456, Note_on_c, 1, 59, 69
4, 75456, Note_on_c, 1, 55, 69
4, 75501, Note_on_c, 1, 59, 0
4, 75501, Note_on_c, 1, 55, 0
4, 75552, Note_on_c, 1, 57, 69
4, 75552, Note_on_c, 1, 45, 69
4, 75597, Note_on_c, 1, 57, 0
4, 75597, Note_on_c, 1, 45, 0
4, 75648, Note_on_c, 1, 50, 69
4, 75648, Note_on_c, 1, 38, 69
4, 75693, Note_on_c, 1, 50, 0
4, 75693, Note_on_c, 1, 38, 0
4, 75744, Note_on_c, 1, 55, 84
4, 75744, Note_on_c, 1, 45, 84
4, 75789, Note_on_c, 1, 55, 0
4, 75789, Note_on_c, 1, 45, 0
4, 75840, Note_on_c, 1, 54, 76
4, 75840, Note_on_c, 1, 45, 76
4, 75885, Note_on_c, 1, 54, 0
4, 75885, Note_on_c, 1, 45, 0
4, 75936, Note_on_c, 1, 52, 68
4, 75936, Note_on_c, 1, 45, 68
4, 75981, Note_on_c, 1, 52, 0
4, 75981, Note_on_c, 1, 45, 0
4, 76032, Note_on_c, 1, 50, 60
4, 76032, Note_on_c, 1, 38, 60
4, 76121, Note_on_c, 1, 50, 0
4, 76121, Note_on_c, 1, 38, 0
4, 76224, Note_on_c, 1, 50, 4
4, 76224, Note_on_c, 1, 38, 4
4, 76313, Note_on_c, 1, 50, 0
4, 76313, Note_on_c, 1, 38, 0
4, 76320, End_track
5, 0, Start_track
5, 0, Program_c, 1, 0
5, 0, Control_c, 1, 7, 127
5, 0, Control_c, 1, 10, 64
5, 8064, Note_on_c, 1, 40, 75
5, 8153, Note_on_c, 1, 40, 0
5, 9072, Note_on_c, 1, 49, 75
5, 9117, Note_on_c, 1, 49, 0
5, 9120, Note_on_c, 1, 50, 75
5, 9165, Note_on_c, 1, 50, 0
5, 9168, Note_on_c, 1, 52, 75
5, 9213, Note_on_c, 1, 52, 0
5, 21888, Note_on_c, 1, 40, 75
5, 21977, Note_on_c, 1, 40, 0
5, 22896, Note_on_c, 1, 49, 75
5, 22941, Note_on_c, 1, 49, 0
5, 22944, Note_on_c, 1, 50, 75
5, 22989, Note_on_c, 1, 50, 0
5, 22992, Note_on_c, 1, 52, 75
5, 23037, Note_on_c, 1, 52, 0
5, 28176, Note_on_c, 1, 52, 75
5, 28221, Note_on_c, 1, 52, 0
5, 28224, Note_on_c, 1, 50, 75
5, 28269, Note_on_c, 1, 50, 0
5, 28272, Note_on_c, 1, 47, 75
5, 28317, Note_on_c, 1, 47, 0
5, 28320, Note_on_c, 1, 46, 75
5, 28365, Note_on_c, 1, 46, 0
5, 28368, Note_on_c, 1, 49, 75
5, 28413, Note_on_c, 1, 49, 0
5, 28416, Note_on_c, 1, 47, 75
5, 28505, Note_on_c, 1, 47, 0
5, 29952, Note_on_c, 1, 59, 75
5, 30167, Note_on_c, 1, 59, 0
5, 30168, Note_on_c, 1, 57, 75
5, 30191, Note_on_c, 1, 57, 0
5, 30192, Note_on_c, 1, 56, 75
5, 30215, Note_on_c, 1, 56, 0
5, 30216, Note_on_c, 1, 57, 75
5, 30239, Note_on_c, 1, 57, 0
5, 30240, Note_on_c, 1, 59, 75
5, 30263, Note_on_c, 1, 59, 0
5, 30264, Note_on_c, 1, 57, 75
5, 30287, Note_on_c, 1, 57, 0
5, 30288, Note_on_c, 1, 60, 75
5, 30311, Note_on_c, 1, 60, 0
5, 30312, Note_on_c, 1, 57, 75
5, 30425, Note_on_c, 1, 57, 0
5, 30432, Note_on_c, 1, 55, 75
5, 30521, Note_on_c, 1, 55, 0
5, 35904, Note_on_c, 1, 57, 75
5, 36761, Note_on_c, 1, 57, 0
5, 45504, Note_on_c, 1, 45, 75
5, 45593, Note_on_c, 1, 45, 0
5, 46512, Note_on_c, 1, 54, 75
5, 46557, Note_on_c, 1, 54, 0
5, 46560, Note_on_c, 1, 55, 75
5, 46605, Note_on_c, 1, 55, 0
5, 46608, Note_on_c, 1, 57, 75
5, 46653, Note_on_c, 1, 57, 0
5, 52368, Note_on_c, 1, 52, 75
5, 52413, Note_on_c, 1, 52, 0
5, 52416, Note_on_c, 1, 50, 75
5, 52461, Note_on_c, 1, 50, 0
5, 52464, Note_on_c, 1, 47, 75
5, 52509, Note_on_c, 1, 47, 0
5, 52512, Note_on_c, 1, 46, 75
5, 52557, Note_on_c, 1, 46, 0
5, 52560, Note_on_c, 1, 49, 75
5, 52605, Note_on_c, 1, 49, 0
5, 52608, Note_on_c, 1, 47, 75
5, 52697, Note_on_c, 1, 47, 0
5, 54144, Note_on_c, 1, 59, 75
5, 54359, Note_on_c, 1, 59, 0
5, 54360, Note_on_c, 1, 57, 75
5, 54383, Note_on_c, 1, 57, 0
5, 54384, Note_on_c, 1, 56, 75
5, 54407, Note_on_c, 1, 56, 0
5, 54408, Note_on_c, 1, 57, 75
5, 54431, Note_on_c, 1, 57, 0
5, 54432, Note_on_c, 1, 59, 75
5, 54455, Note_on_c, 1, 59, 0
5, 54456, Note_on_c, 1, 57, 75
5, 54479, Note_on_c, 1, 57, 0
5, 54480, Note_on_c, 1, 60, 75
5, 54503, Note_on_c, 1, 60, 0
5, 54504, Note_on_c, 1, 57, 75
5, 54617, Note_on_c, 1, 57, 0
5, 54624, Note_on_c, 1, 55, 75
5, 54713, Note_on_c, 1, 55, 0
5, 60096, Note_on_c, 1, 57, 75
5, 60953, Note_on_c, 1, 57, 0
5, 69696, Note_on_c, 1, 45, 75
5, 69785, Note_on_c, 1, 45, 0
5, 70704, Note_on_c, 1, 54, 75
5, 70749, Note_on_c, 1, 54, 0
5, 70752, Note_on_c, 1, 55, 75
5, 70797, Note_on_c, 1, 55, 0
5, 70800, Note_on_c, 1, 57, 75
5, 70845, Note_on_c, 1, 57, 0
5, 76224, End_track
6, 0, Start_track
6, 0, Title_t, "Piano Solo   <composer>  "
6, 0, End_track
0, 0, End_of_file
