0, 0, Header, 1, 6, 96
1, 0, Start_track
1, 0, Copyright_t, "Copyright  2000 <copyright holder>"
1, 0, Text_t, "Piano Solo\015\012"
1, 0, Text_t, "<composer>\015\012"
1, 0, Sequencer_specific, 16, 68, 87, 77, 90, 86, 82, 83, 78, 32, 54, 46, 48, 46, 57, 46, 48
1, 0, Time_signature, 3, 2, 24, 8
1, 0, Tempo, 1200000
1, 0, Key_signature, 0, "major"
1, 23040, Tempo, 1333333
1, 23136, Tempo, 1500000
1, 23232, Tempo, 3000000
1, 23328, Tempo, 666666
1, 23616, Tempo, 1200000
1, 24480, End_track
2, 0, Start_track
2, 0, Program_c, 0, 0
2, 0, Control_c, 0, 7, 127
2, 0, Control_c, 0, 10, 64
2, 18, Note_on_c, 0, 71, 64
2, 24, Note_on_c, 0, 71, 0
2, 24, Note_on_c, 0, 72, 64
2, 72, Note_on_c, 0, 67, 64
2, 95, Note_on_c, 0, 72, 0
2, 95, Note_on_c, 0, 67, 0
2, 96, Note_on_c, 0, 79, 64
2, 141, Note_on_c, 0, 79, 0
2, 144, Note_on_c, 0, 77, 64
2, 156, Note_on_c, 0, 77, 0
2, 156, Note_on_c, 0, 76, 64
2, 168, Note_on_c, 0, 76, 0
2, 168, Note_on_c, 0, 74, 64
2, 180, Note_on_c, 0, 74, 0
2, 180, Note_on_c, 0, 72, 64
2, 192, Note_on_c, 0, 72, 0
2, 192, Note_on_c, 0, 71, 64
2, 212, Note_on_c, 0, 71, 0
2, 276, Note_on_c, 0, 67, 64
2, 288, Note_on_c, 0, 67, 0
2, 336, Note_on_c, 0, 76, 64
2, 381, Note_on_c, 0, 76, 0
2, 384, Note_on_c, 0, 77, 64
2, 429, Note_on_c, 0, 77, 0
2, 432, Note_on_c, 0, 76, 64
2, 477, Note_on_c, 0, 76, 0
2, 480, Note_on_c, 0, 74, 64
2, 525, Note_on_c, 0, 74, 0
2, 564, Note_on_c, 0, 60, 64
2, 576, Note_on_c, 0, 60, 0
2, 576, Note_on_c, 0, 72, 64
2, 654, Note_on_c, 0, 72, 0
2, 660, Note_on_c, 0, 74, 64
2, 666, Note_on_c, 0, 74, 0
2, 666, Note_on_c, 0, 72, 64
2, 672, Note_on_c, 0, 72, 0
2, 672, Note_on_c, 0, 71, 64
2, 706, Note_on_c, 0, 71, 0
2, 708, Note_on_c, 0, 72, 64
2, 714, Note_on_c, 0, 72, 0
2, 714, Note_on_c, 0, 71, 64
2, 720, Note_on_c, 0, 71, 0
2, 720, Note_on_c, 0, 69, 64
2, 754, Note_on_c, 0, 69, 0
2, 756, Note_on_c, 0, 71, 64
2, 762, Note_on_c, 0, 71, 0
2, 762, Note_on_c, 0, 69, 64
2, 768, Note_on_c, 0, 69, 0
2, 768, Note_on_c, 0, 67, 64
2, 792, Note_on_c, 0, 67, 0
2, 792, Note_on_c, 0, 72, 64
2, 815, Note_on_c, 0, 72, 0
2, 816, Note_on_c, 0, 76, 64
2, 826, Note_on_c, 0, 76, 0
2, 840, Note_on_c, 0, 79, 64
2, 850, Note_on_c, 0, 79, 0
2, 864, Note_on_c, 0, 79, 64
2, 887, Note_on_c, 0, 79, 0
2, 888, Note_on_c, 0, 69, 64
2, 911, Note_on_c, 0, 69, 0
2, 912, Note_on_c, 0, 77, 64
2, 935, Note_on_c, 0, 77, 0
2, 936, Note_on_c, 0, 74, 64
2, 959, Note_on_c, 0, 74, 0
2, 960, Note_on_c, 0, 72, 64
2, 1005, Note_on_c, 0, 72, 0
2, 1008, Note_on_c, 0, 72, 64
2, 1068, Note_on_c, 0, 72, 0
2, 1068, Note_on_c, 0, 71, 64
2, 1080, Note_on_c, 0, 71, 0
2, 1080, Note_on_c, 0, 77, 64
2, 1092, Note_on_c, 0, 77, 0
2, 1092, Note_on_c, 0, 76, 64
2, 1104, Note_on_c, 0, 76, 0
2, 1104, Note_on_c, 0, 77, 64
2, 1116, Note_on_c, 0, 77, 0
2, 1116, Note_on_c, 0, 74, 64
2, 1128, Note_on_c, 0, 74, 0
2, 1128, Note_on_c, 0, 72, 64
2, 1140, Note_on_c, 0, 72, 0
2, 1140, Note_on_c, 0, 71, 64
2, 1152, Note_on_c, 0, 71, 0
2, 1152, Note_on_c, 0, 71, 64
2, 1219, Note_on_c, 0, 71, 0
2, 1224, Note_on_c, 0, 74, 64
2, 1236, Note_on_c, 0, 74, 0
2, 1236, Note_on_c, 0, 72, 64
2, 1248, Note_on_c, 0, 72, 0
2, 1248, Note_on_c, 0, 72, 64
2, 1268, Note_on_c, 0, 72, 0
2, 1488, Note_on_c, 0, 67, 64
2, 1494, Note_on_c, 0, 67, 0
2, 1494, Note_on_c, 0, 69, 64
2, 1500, Note_on_c, 0, 69, 0
2, 1500, Note_on_c, 0, 67, 64
2, 1506, Note_on_c, 0, 67, 0
2, 1506, Note_on_c, 0, 66, 64
2, 1512, Note_on_c, 0, 66, 0
2, 1524, Note_on_c, 0, 67, 64
2, 1529, Note_on_c, 0, 67, 0
2, 1536, Note_on_c, 0, 79, 64
2, 1560, Note_on_c, 0, 79, 0
2, 1560, Note_on_c, 0, 81, 64
2, 1572, Note_on_c, 0, 81, 0
2, 1572, Note_on_c, 0, 79, 64
2, 1584, Note_on_c, 0, 79, 0
2, 1584, Note_on_c, 0, 77, 64
2, 1596, Note_on_c, 0, 77, 0
2, 1596, Note_on_c, 0, 76, 64
2, 1608, Note_on_c, 0, 76, 0
2, 1608, Note_on_c, 0, 74, 64
2, 1620, Note_on_c, 0, 74, 0
2, 1620, Note_on_c, 0, 72, 64
2, 1632, Note_on_c, 0, 72, 0
2, 1632, Note_on_c, 0, 71, 64
2, 1652, Note_on_c, 0, 71, 0
2, 1716, Note_on_c, 0, 67, 64
2, 1728, Note_on_c, 0, 67, 0
2, 1776, Note_on_c, 0, 76, 64
2, 1821, Note_on_c, 0, 76, 0
2, 1824, Note_on_c, 0, 77, 64
2, 1869, Note_on_c, 0, 77, 0
2, 1872, Note_on_c, 0, 76, 64
2, 1917, Note_on_c, 0, 76, 0
2, 1920, Note_on_c, 0, 74, 64
2, 1965, Note_on_c, 0, 74, 0
2, 2004, Note_on_c, 0, 60, 64
2, 2016, Note_on_c, 0, 60, 0
2, 2880, Note_on_c, 0, 74, 64
2, 2925, Note_on_c, 0, 74, 0
2, 2928, Note_on_c, 0, 72, 64
2, 2934, Note_on_c, 0, 72, 0
2, 2934, Note_on_c, 0, 74, 64
2, 2940, Note_on_c, 0, 74, 0
2, 2940, Note_on_c, 0, 72, 64
2, 2974, Note_on_c, 0, 72, 0
2, 2976, Note_on_c, 0, 71, 64
2, 3065, Note_on_c, 0, 71, 0
2, 3120, Note_on_c, 0, 66, 64
2, 3126, Note_on_c, 0, 66, 0
2, 3126, Note_on_c, 0, 67, 64
2, 3132, Note_on_c, 0, 67, 0
2, 3132, Note_on_c, 0, 69, 64
2, 3138, Note_on_c, 0, 69, 0
2, 3138, Note_on_c, 0, 71, 64
2, 3144, Note_on_c, 0, 71, 0
2, 3144, Note_on_c, 0, 72, 64
2, 3150, Note_on_c, 0, 72, 0
2, 3150, Note_on_c, 0, 74, 64
2, 3156, Note_on_c, 0, 74, 0
2, 3156, Note_on_c, 0, 76, 64
2, 3162, Note_on_c, 0, 76, 0
2, 3162, Note_on_c, 0, 78, 64
2, 3168, Note_on_c, 0, 78, 0
2, 3168, Note_on_c, 0, 79, 64
2, 3360, Note_on_c, 0, 79, 0
2, 3360, Note_on_c, 0, 78, 64
2, 3449, Note_on_c, 0, 78, 0
2, 3456, Note_on_c, 0, 76, 64
2, 3648, Note_on_c, 0, 76, 0
2, 3648, Note_on_c, 0, 74, 64
2, 3737, Note_on_c, 0, 74, 0
2, 3744, Note_on_c, 0, 73, 64
2, 3838, Note_on_c, 0, 73, 0
2, 3840, Note_on_c, 0, 73, 64
2, 3929, Note_on_c, 0, 73, 0
2, 3936, Note_on_c, 0, 76, 64
2, 4025, Note_on_c, 0, 76, 0
2, 4032, Note_on_c, 0, 72, 64
2, 4126, Note_on_c, 0, 72, 0
2, 4128, Note_on_c, 0, 72, 64
2, 4217, Note_on_c, 0, 72, 0
2, 4336, Note_on_c, 0, 86, 64
2, 4336, Note_on_c, 0, 83, 64
2, 4351, Note_on_c, 0, 86, 0
2, 4351, Note_on_c, 0, 83, 0
2, 4352, Note_on_c, 0, 84, 64
2, 4352, Note_on_c, 0, 81, 64
2, 4367, Note_on_c, 0, 84, 0
2, 4367, Note_on_c, 0, 81, 0
2, 4368, Note_on_c, 0, 83, 64
2, 4368, Note_on_c, 0, 79, 64
2, 4375, Note_on_c, 0, 83, 0
2, 4375, Note_on_c, 0, 79, 0
2, 4384, Note_on_c, 0, 83, 64
2, 4384, Note_on_c, 0, 79, 64
2, 4399, Note_on_c, 0, 83, 0
2, 4399, Note_on_c, 0, 79, 0
2, 4400, Note_on_c, 0, 81, 64
2, 4400, Note_on_c, 0, 78, 64
2, 4415, Note_on_c, 0, 81, 0
2, 4415, Note_on_c, 0, 78, 0
2, 4416, Note_on_c, 0, 79, 64
2, 4416, Note_on_c, 0, 76, 64
2, 4423, Note_on_c, 0, 79, 0
2, 4423, Note_on_c, 0, 76, 0
2, 4432, Note_on_c, 0, 79, 64
2, 4432, Note_on_c, 0, 76, 64
2, 4447, Note_on_c, 0, 79, 0
2, 4447, Note_on_c, 0, 76, 0
2, 4448, Note_on_c, 0, 78, 64
2, 4448, Note_on_c, 0, 74, 64
2, 4463, Note_on_c, 0, 78, 0
2, 4463, Note_on_c, 0, 74, 0
2, 4464, Note_on_c, 0, 76, 64
2, 4464, Note_on_c, 0, 72, 64
2, 4471, Note_on_c, 0, 76, 0
2, 4471, Note_on_c, 0, 72, 0
2, 4480, Note_on_c, 0, 76, 64
2, 4480, Note_on_c, 0, 72, 64
2, 4495, Note_on_c, 0, 76, 0
2, 4495, Note_on_c, 0, 72, 0
2, 4496, Note_on_c, 0, 74, 64
2, 4496, Note_on_c, 0, 71, 64
2, 4511, Note_on_c, 0, 74, 0
2, 4511, Note_on_c, 0, 71, 0
2, 4512, Note_on_c, 0, 72, 64
2, 4512, Note_on_c, 0, 69, 64
2, 4606, Note_on_c, 0, 72, 0
2, 4606, Note_on_c, 0, 69, 0
2, 4624, Note_on_c, 0, 71, 64
2, 4639, Note_on_c, 0, 71, 0
2, 4640, Note_on_c, 0, 74, 64
2, 4655, Note_on_c, 0, 74, 0
2, 4672, Note_on_c, 0, 64, 64
2, 4687, Note_on_c, 0, 64, 0
2, 4688, Note_on_c, 0, 72, 64
2, 4703, Note_on_c, 0, 72, 0
2, 4720, Note_on_c, 0, 62, 64
2, 4735, Note_on_c, 0, 62, 0
2, 4736, Note_on_c, 0, 67, 64
2, 4751, Note_on_c, 0, 67, 0
2, 4752, Note_on_c, 0, 71, 64
2, 4767, Note_on_c, 0, 71, 0
2, 4768, Note_on_c, 0, 74, 64
2, 4783, Note_on_c, 0, 74, 0
2, 4784, Note_on_c, 0, 71, 64
2, 4799, Note_on_c, 0, 71, 0
2, 4800, Note_on_c, 0, 72, 64
2, 4815, Note_on_c, 0, 72, 0
2, 4816, Note_on_c, 0, 69, 64
2, 4831, Note_on_c, 0, 69, 0
2, 4832, Note_on_c, 0, 66, 64
2, 4847, Note_on_c, 0, 66, 0
2, 4848, Note_on_c, 0, 62, 64
2, 4863, Note_on_c, 0, 62, 0
2, 4864, Note_on_c, 0, 60, 64
2, 4879, Note_on_c, 0, 60, 0
2, 4880, Note_on_c, 0, 69, 64
2, 4895, Note_on_c, 0, 69, 0
2, 4912, Note_on_c, 0, 86, 64
2, 4912, Note_on_c, 0, 83, 64
2, 4927, Note_on_c, 0, 86, 0
2, 4927, Note_on_c, 0, 83, 0
2, 4928, Note_on_c, 0, 84, 64
2, 4928, Note_on_c, 0, 81, 64
2, 4943, Note_on_c, 0, 84, 0
2, 4943, Note_on_c, 0, 81, 0
2, 4944, Note_on_c, 0, 83, 64
2, 4944, Note_on_c, 0, 79, 64
2, 4951, Note_on_c, 0, 83, 0
2, 4951, Note_on_c, 0, 79, 0
2, 4960, Note_on_c, 0, 83, 64
2, 4960, Note_on_c, 0, 79, 64
2, 4975, Note_on_c, 0, 83, 0
2, 4975, Note_on_c, 0, 79, 0
2, 4976, Note_on_c, 0, 81, 64
2, 4976, Note_on_c, 0, 78, 64
2, 4991, Note_on_c, 0, 81, 0
2, 4991, Note_on_c, 0, 78, 0
2, 4992, Note_on_c, 0, 79, 64
2, 4992, Note_on_c, 0, 76, 64
2, 4999, Note_on_c, 0, 79, 0
2, 4999, Note_on_c, 0, 76, 0
2, 5008, Note_on_c, 0, 79, 64
2, 5008, Note_on_c, 0, 76, 64
2, 5023, Note_on_c, 0, 79, 0
2, 5023, Note_on_c, 0, 76, 0
2, 5024, Note_on_c, 0, 78, 64
2, 5024, Note_on_c, 0, 74, 64
2, 5039, Note_on_c, 0, 78, 0
2, 5039, Note_on_c, 0, 74, 0
2, 5040, Note_on_c, 0, 76, 64
2, 5040, Note_on_c, 0, 72, 64
2, 5047, Note_on_c, 0, 76, 0
2, 5047, Note_on_c, 0, 72, 0
2, 5056, Note_on_c, 0, 76, 64
2, 5056, Note_on_c, 0, 72, 64
2, 5071, Note_on_c, 0, 76, 0
2, 5071, Note_on_c, 0, 72, 0
2, 5072, Note_on_c, 0, 74, 64
2, 5072, Note_on_c, 0, 71, 64
2, 5087, Note_on_c, 0, 74, 0
2, 5087, Note_on_c, 0, 71, 0
2, 5088, Note_on_c, 0, 72, 64
2, 5088, Note_on_c, 0, 69, 64
2, 5182, Note_on_c, 0, 72, 0
2, 5182, Note_on_c, 0, 69, 0
2, 5200, Note_on_c, 0, 71, 64
2, 5215, Note_on_c, 0, 71, 0
2, 5216, Note_on_c, 0, 74, 64
2, 5231, Note_on_c, 0, 74, 0
2, 5248, Note_on_c, 0, 64, 64
2, 5263, Note_on_c, 0, 64, 0
2, 5264, Note_on_c, 0, 72, 64
2, 5279, Note_on_c, 0, 72, 0
2, 5296, Note_on_c, 0, 62, 64
2, 5311, Note_on_c, 0, 62, 0
2, 5312, Note_on_c, 0, 67, 64
2, 5327, Note_on_c, 0, 67, 0
2, 5328, Note_on_c, 0, 71, 64
2, 5343, Note_on_c, 0, 71, 0
2, 5344, Note_on_c, 0, 74, 64
2, 5359, Note_on_c, 0, 74, 0
2, 5360, Note_on_c, 0, 71, 64
2, 5375, Note_on_c, 0, 71, 0
2, 5376, Note_on_c, 0, 72, 64
2, 5391, Note_on_c, 0, 72, 0
2, 5392, Note_on_c, 0, 69, 64
2, 5407, Note_on_c, 0, 69, 0
2, 5408, Note_on_c, 0, 66, 64
2, 5423, Note_on_c, 0, 66, 0
2, 5424, Note_on_c, 0, 62, 64
2, 5439, Note_on_c, 0, 62, 0
2, 5440, Note_on_c, 0, 60, 64
2, 5455, Note_on_c, 0, 60, 0
2, 5456, Note_on_c, 0, 69, 64
2, 5471, Note_on_c, 0, 69, 0
2, 5472, Note_on_c, 0, 60, 64
2, 5568, Note_on_c, 0, 60, 0
2, 5568, Note_on_c, 0, 59, 64
2, 5745, Note_on_c, 0, 59, 0
2, 5776, Note_on_c, 0, 68, 64
2, 5776, Note_on_c, 0, 56, 64
2, 5791, Note_on_c, 0, 68, 0
2, 5791, Note_on_c, 0, 56, 0
2, 5792, Note_on_c, 0, 69, 64
2, 5792, Note_on_c, 0, 57, 64
2, 5807, Note_on_c, 0, 69, 0
2, 5807, Note_on_c, 0, 57, 0
2, 5808, Note_on_c, 0, 71, 64
2, 5808, Note_on_c, 0, 59, 64
2, 5823, Note_on_c, 0, 71, 0
2, 5823, Note_on_c, 0, 59, 0
2, 5824, Note_on_c, 0, 72, 64
2, 5824, Note_on_c, 0, 60, 64
2, 5839, Note_on_c, 0, 72, 0
2, 5839, Note_on_c, 0, 60, 0
2, 5840, Note_on_c, 0, 74, 64
2, 5840, Note_on_c, 0, 62, 64
2, 5855, Note_on_c, 0, 74, 0
2, 5855, Note_on_c, 0, 62, 0
2, 5856, Note_on_c, 0, 76, 64
2, 5856, Note_on_c, 0, 64, 64
2, 5871, Note_on_c, 0, 76, 0
2, 5871, Note_on_c, 0, 64, 0
2, 5872, Note_on_c, 0, 78, 64
2, 5872, Note_on_c, 0, 66, 64
2, 5887, Note_on_c, 0, 78, 0
2, 5887, Note_on_c, 0, 66, 0
2, 5888, Note_on_c, 0, 80, 64
2, 5888, Note_on_c, 0, 68, 64
2, 5903, Note_on_c, 0, 80, 0
2, 5903, Note_on_c, 0, 68, 0
2, 5904, Note_on_c, 0, 81, 64
2, 5904, Note_on_c, 0, 69, 64
2, 5919, Note_on_c, 0, 81, 0
2, 5919, Note_on_c, 0, 69, 0
2, 5920, Note_on_c, 0, 83, 64
2, 5920, Note_on_c, 0, 71, 64
2, 5935, Note_on_c, 0, 83, 0
2, 5935, Note_on_c, 0, 71, 0
2, 5936, Note_on_c, 0, 84, 64
2, 5936, Note_on_c, 0, 72, 64
2, 5951, Note_on_c, 0, 84, 0
2, 5951, Note_on_c, 0, 72, 0
2, 5952, Note_on_c, 0, 86, 64
2, 5952, Note_on_c, 0, 74, 64
2, 5967, Note_on_c, 0, 86, 0
2, 5967, Note_on_c, 0, 74, 0
2, 5968, Note_on_c, 0, 88, 64
2, 5968, Note_on_c, 0, 76, 64
2, 5983, Note_on_c, 0, 88, 0
2, 5983, Note_on_c, 0, 76, 0
2, 5984, Note_on_c, 0, 86, 64
2, 5984, Note_on_c, 0, 74, 64
2, 5999, Note_on_c, 0, 86, 0
2, 5999, Note_on_c, 0, 74, 0
2, 6000, Note_on_c, 0, 84, 64
2, 6000, Note_on_c, 0, 72, 64
2, 6015, Note_on_c, 0, 84, 0
2, 6015, Note_on_c, 0, 72, 0
2, 6016, Note_on_c, 0, 83, 64
2, 6016, Note_on_c, 0, 71, 64
2, 6031, Note_on_c, 0, 83, 0
2, 6031, Note_on_c, 0, 71, 0
2, 6032, Note_on_c, 0, 81, 64
2, 6032, Note_on_c, 0, 69, 64
2, 6047, Note_on_c, 0, 81, 0
2, 6047, Note_on_c, 0, 69, 0
2, 6048, Note_on_c, 0, 79, 64
2, 6048, Note_on_c, 0, 67, 64
2, 6068, Note_on_c, 0, 79, 0
2, 6068, Note_on_c, 0, 67, 0
2, 6096, Note_on_c, 0, 86, 64
2, 6096, Note_on_c, 0, 74, 64
2, 6116, Note_on_c, 0, 86, 0
2, 6116, Note_on_c, 0, 74, 0
2, 6192, Note_on_c, 0, 84, 64
2, 6204, Note_on_c, 0, 84, 0
2, 6204, Note_on_c, 0, 83, 64
2, 6216, Note_on_c, 0, 83, 0
2, 6216, Note_on_c, 0, 81, 64
2, 6228, Note_on_c, 0, 81, 0
2, 6228, Note_on_c, 0, 79, 64
2, 6240, Note_on_c, 0, 79, 0
2, 6240, Note_on_c, 0, 83, 64
2, 6246, Note_on_c, 0, 83, 0
2, 6246, Note_on_c, 0, 81, 64
2, 6252, Note_on_c, 0, 81, 0
2, 6252, Note_on_c, 0, 83, 64
2, 6258, Note_on_c, 0, 83, 0
2, 6258, Note_on_c, 0, 81, 64
2, 6264, Note_on_c, 0, 81, 0
2, 6264, Note_on_c, 0, 83, 64
2, 6270, Note_on_c, 0, 83, 0
2, 6270, Note_on_c, 0, 81, 64
2, 6276, Note_on_c, 0, 81, 0
2, 6276, Note_on_c, 0, 83, 64
2, 6281, Note_on_c, 0, 83, 0
2, 6281, Note_on_c, 0, 81, 64
2, 6286, Note_on_c, 0, 81, 0
2, 6286, Note_on_c, 0, 83, 64
2, 6291, Note_on_c, 0, 83, 0
2, 6291, Note_on_c, 0, 81, 64
2, 6296, Note_on_c, 0, 81, 0
2, 6296, Note_on_c, 0, 83, 64
2, 6301, Note_on_c, 0, 83, 0
2, 6301, Note_on_c, 0, 81, 64
2, 6306, Note_on_c, 0, 81, 0
2, 6306, Note_on_c, 0, 83, 64
2, 6311, Note_on_c, 0, 83, 0
2, 6311, Note_on_c, 0, 81, 64
2, 6316, Note_on_c, 0, 81, 0
2, 6316, Note_on_c, 0, 83, 64
2, 6321, Note_on_c, 0, 83, 0
2, 6321, Note_on_c, 0, 81, 64
2, 6326, Note_on_c, 0, 81, 0
2, 6326, Note_on_c, 0, 79, 64
2, 6331, Note_on_c, 0, 79, 0
2, 6331, Note_on_c, 0, 81, 64
2, 6336, Note_on_c, 0, 81, 0
2, 6336, Note_on_c, 0, 79, 64
2, 6425, Note_on_c, 0, 79, 0
2, 6642, Note_on_c, 0, 71, 64
2, 6648, Note_on_c, 0, 71, 0
2, 6648, Note_on_c, 0, 72, 64
2, 6696, Note_on_c, 0, 67, 64
2, 6719, Note_on_c, 0, 72, 0
2, 6719, Note_on_c, 0, 67, 0
2, 6720, Note_on_c, 0, 79, 64
2, 6765, Note_on_c, 0, 79, 0
2, 6768, Note_on_c, 0, 77, 64
2, 6780, Note_on_c, 0, 77, 0
2, 6780, Note_on_c, 0, 76, 64
2, 6792, Note_on_c, 0, 76, 0
2, 6792, Note_on_c, 0, 74, 64
2, 6804, Note_on_c, 0, 74, 0
2, 6804, Note_on_c, 0, 72, 64
2, 6816, Note_on_c, 0, 72, 0
2, 6816, Note_on_c, 0, 71, 64
2, 6836, Note_on_c, 0, 71, 0
2, 6900, Note_on_c, 0, 67, 64
2, 6912, Note_on_c, 0, 67, 0
2, 6960, Note_on_c, 0, 76, 64
2, 7005, Note_on_c, 0, 76, 0
2, 7008, Note_on_c, 0, 77, 64
2, 7053, Note_on_c, 0, 77, 0
2, 7056, Note_on_c, 0, 76, 64
2, 7101, Note_on_c, 0, 76, 0
2, 7104, Note_on_c, 0, 74, 64
2, 7149, Note_on_c, 0, 74, 0
2, 7188, Note_on_c, 0, 60, 64
2, 7200, Note_on_c, 0, 60, 0
2, 7200, Note_on_c, 0, 72, 64
2, 7278, Note_on_c, 0, 72, 0
2, 7284, Note_on_c, 0, 74, 64
2, 7290, Note_on_c, 0, 74, 0
2, 7290, Note_on_c, 0, 72, 64
2, 7296, Note_on_c, 0, 72, 0
2, 7296, Note_on_c, 0, 71, 64
2, 7330, Note_on_c, 0, 71, 0
2, 7332, Note_on_c, 0, 72, 64
2, 7338, Note_on_c, 0, 72, 0
2, 7338, Note_on_c, 0, 71, 64
2, 7344, Note_on_c, 0, 71, 0
2, 7344, Note_on_c, 0, 69, 64
2, 7378, Note_on_c, 0, 69, 0
2, 7380, Note_on_c, 0, 71, 64
2, 7386, Note_on_c, 0, 71, 0
2, 7386, Note_on_c, 0, 69, 64
2, 7392, Note_on_c, 0, 69, 0
2, 7392, Note_on_c, 0, 67, 64
2, 7416, Note_on_c, 0, 67, 0
2, 7416, Note_on_c, 0, 72, 64
2, 7439, Note_on_c, 0, 72, 0
2, 7440, Note_on_c, 0, 76, 64
2, 7450, Note_on_c, 0, 76, 0
2, 7464, Note_on_c, 0, 79, 64
2, 7474, Note_on_c, 0, 79, 0
2, 7488, Note_on_c, 0, 79, 64
2, 7511, Note_on_c, 0, 79, 0
2, 7512, Note_on_c, 0, 69, 64
2, 7535, Note_on_c, 0, 69, 0
2, 7536, Note_on_c, 0, 77, 64
2, 7559, Note_on_c, 0, 77, 0
2, 7560, Note_on_c, 0, 74, 64
2, 7583, Note_on_c, 0, 74, 0
2, 7584, Note_on_c, 0, 72, 64
2, 7629, Note_on_c, 0, 72, 0
2, 7632, Note_on_c, 0, 72, 64
2, 7692, Note_on_c, 0, 72, 0
2, 7692, Note_on_c, 0, 71, 64
2, 7704, Note_on_c, 0, 71, 0
2, 7704, Note_on_c, 0, 77, 64
2, 7716, Note_on_c, 0, 77, 0
2, 7716, Note_on_c, 0, 76, 64
2, 7728, Note_on_c, 0, 76, 0
2, 7728, Note_on_c, 0, 77, 64
2, 7740, Note_on_c, 0, 77, 0
2, 7740, Note_on_c, 0, 74, 64
2, 7752, Note_on_c, 0, 74, 0
2, 7752, Note_on_c, 0, 72, 64
2, 7764, Note_on_c, 0, 72, 0
2, 7764, Note_on_c, 0, 71, 64
2, 7776, Note_on_c, 0, 71, 0
2, 7776, Note_on_c, 0, 71, 64
2, 7843, Note_on_c, 0, 71, 0
2, 7848, Note_on_c, 0, 74, 64
2, 7860, Note_on_c, 0, 74, 0
2, 7860, Note_on_c, 0, 72, 64
2, 7872, Note_on_c, 0, 72, 0
2, 7872, Note_on_c, 0, 72, 64
2, 7892, Note_on_c, 0, 72, 0
2, 8112, Note_on_c, 0, 67, 64
2, 8118, Note_on_c, 0, 67, 0
2, 8118, Note_on_c, 0, 69, 64
2, 8124, Note_on_c, 0, 69, 0
2, 8124, Note_on_c, 0, 67, 64
2, 8130, Note_on_c, 0, 67, 0
2, 8130, Note_on_c, 0, 66, 64
2, 8136, Note_on_c, 0, 66, 0
2, 8148, Note_on_c, 0, 67, 64
2, 8153, Note_on_c, 0, 67, 0
2, 8160, Note_on_c, 0, 79, 64
2, 8184, Note_on_c, 0, 79, 0
2, 8184, Note_on_c, 0, 81, 64
2, 8196, Note_on_c, 0, 81, 0
2, 8196, Note_on_c, 0, 79, 64
2, 8208, Note_on_c, 0, 79, 0
2, 8208, Note_on_c, 0, 77, 64
2, 8220, Note_on_c, 0, 77, 0
2, 8220, Note_on_c, 0, 76, 64
2, 8232, Note_on_c, 0, 76, 0
2, 8232, Note_on_c, 0, 74, 64
2, 8244, Note_on_c, 0, 74, 0
2, 8244, Note_on_c, 0, 72, 64
2, 8256, Note_on_c, 0, 72, 0
2, 8256, Note_on_c, 0, 71, 64
2, 8276, Note_on_c, 0, 71, 0
2, 8340, Note_on_c, 0, 67, 64
2, 8352, Note_on_c, 0, 67, 0
2, 8400, Note_on_c, 0, 76, 64
2, 8445, Note_on_c, 0, 76, 0
2, 8448, Note_on_c, 0, 77, 64
2, 8493, Note_on_c, 0, 77, 0
2, 8496, Note_on_c, 0, 76, 64
2, 8541, Note_on_c, 0, 76, 0
2, 8544, Note_on_c, 0, 74, 64
2, 8589, Note_on_c, 0, 74, 0
2, 8628, Note_on_c, 0, 60, 64
2, 8640, Note_on_c, 0, 60, 0
2, 9504, Note_on_c, 0, 74, 64
2, 9549, Note_on_c, 0, 74, 0
2, 9552, Note_on_c, 0, 72, 64
2, 9558, Note_on_c, 0, 72, 0
2, 9558, Note_on_c, 0, 74, 64
2, 9564, Note_on_c, 0, 74, 0
2, 9564, Note_on_c, 0, 72, 64
2, 9598, Note_on_c, 0, 72, 0
2, 9600, Note_on_c, 0, 71, 64
2, 9689, Note_on_c, 0, 71, 0
2, 9744, Note_on_c, 0, 66, 64
2, 9750, Note_on_c, 0, 66, 0
2, 9750, Note_on_c, 0, 67, 64
2, 9756, Note_on_c, 0, 67, 0
2, 9756, Note_on_c, 0, 69, 64
2, 9762, Note_on_c, 0, 69, 0
2, 9762, Note_on_c, 0, 71, 64
2, 9768, Note_on_c, 0, 71, 0
2, 9768, Note_on_c, 0, 72, 64
2, 9774, Note_on_c, 0, 72, 0
2, 9774, Note_on_c, 0, 74, 64
2, 9780, Note_on_c, 0, 74, 0
2, 9780, Note_on_c, 0, 76, 64
2, 9786, Note_on_c, 0, 76, 0
2, 9786, Note_on_c, 0, 78, 64
2, 9792, Note_on_c, 0, 78, 0
2, 9792, Note_on_c, 0, 79, 64
2, 9984, Note_on_c, 0, 79, 0
2, 9984, Note_on_c, 0, 78, 64
2, 10073, Note_on_c, 0, 78, 0
2, 10080, Note_on_c, 0, 76, 64
2, 10272, Note_on_c, 0, 76, 0
2, 10272, Note_on_c, 0, 74, 64
2, 10361, Note_on_c, 0, 74, 0
2, 10368, Note_on_c, 0, 73, 64
2, 10462, Note_on_c, 0, 73, 0
2, 10464, Note_on_c, 0, 73, 64
2, 10553, Note_on_c, 0, 73, 0
2, 10560, Note_on_c, 0, 76, 64
2, 10649, Note_on_c, 0, 76, 0
2, 10656, Note_on_c, 0, 72, 64
2, 10750, Note_on_c, 0, 72, 0
2, 10752, Note_on_c, 0, 72, 64
2, 10841, Note_on_c, 0, 72, 0
2, 10960, Note_on_c, 0, 86, 64
2, 10960, Note_on_c, 0, 83, 64
2, 10975, Note_on_c, 0, 86, 0
2, 10975, Note_on_c, 0, 83, 0
2, 10976, Note_on_c, 0, 84, 64
2, 10976, Note_on_c, 0, 81, 64
2, 10991, Note_on_c, 0, 84, 0
2, 10991, Note_on_c, 0, 81, 0
2, 10992, Note_on_c, 0, 83, 64
2, 10992, Note_on_c, 0, 79, 64
2, 10999, Note_on_c, 0, 83, 0
2, 10999, Note_on_c, 0, 79, 0
2, 11008, Note_on_c, 0, 83, 64
2, 11008, Note_on_c, 0, 79, 64
2, 11023, Note_on_c, 0, 83, 0
2, 11023, Note_on_c, 0, 79, 0
2, 11024, Note_on_c, 0, 81, 64
2, 11024, Note_on_c, 0, 78, 64
2, 11039, Note_on_c, 0, 81, 0
2, 11039, Note_on_c, 0, 78, 0
2, 11040, Note_on_c, 0, 79, 64
2, 11040, Note_on_c, 0, 76, 64
2, 11047, Note_on_c, 0, 79, 0
2, 11047, Note_on_c, 0, 76, 0
2, 11056, Note_on_c, 0, 79, 64
2, 11056, Note_on_c, 0, 76, 64
2, 11071, Note_on_c, 0, 79, 0
2, 11071, Note_on_c, 0, 76, 0
2, 11072, Note_on_c, 0, 78, 64
2, 11072, Note_on_c, 0, 74, 64
2, 11087, Note_on_c, 0, 78, 0
2, 11087, Note_on_c, 0, 74, 0
2, 11088, Note_on_c, 0, 76, 64
2, 11088, Note_on_c, 0, 72, 64
2, 11095, Note_on_c, 0, 76, 0
2, 11095, Note_on_c, 0, 72, 0
2, 11104, Note_on_c, 0, 76, 64
2, 11104, Note_on_c, 0, 72, 64
2, 11119, Note_on_c, 0, 76, 0
2, 11119, Note_on_c, 0, 72, 0
2, 11120, Note_on_c, 0, 74, 64
2, 11120, Note_on_c, 0, 71, 64
2, 11135, Note_on_c, 0, 74, 0
2, 11135, Note_on_c, 0, 71, 0
2, 11136, Note_on_c, 0, 72, 64
2, 11136, Note_on_c, 0, 69, 64
2, 11230, Note_on_c, 0, 72, 0
2, 11230, Note_on_c, 0, 69, 0
2, 11248, Note_on_c, 0, 71, 64
2, 11263, Note_on_c, 0, 71, 0
2, 11264, Note_on_c, 0, 74, 64
2, 11279, Note_on_c, 0, 74, 0
2, 11296, Note_on_c, 0, 64, 64
2, 11311, Note_on_c, 0, 64, 0
2, 11312, Note_on_c, 0, 72, 64
2, 11327, Note_on_c, 0, 72, 0
2, 11344, Note_on_c, 0, 62, 64
2, 11359, Note_on_c, 0, 62, 0
2, 11360, Note_on_c, 0, 67, 64
2, 11375, Note_on_c, 0, 67, 0
2, 11376, Note_on_c, 0, 71, 64
2, 11391, Note_on_c, 0, 71, 0
2, 11392, Note_on_c, 0, 74, 64
2, 11407, Note_on_c, 0, 74, 0
2, 11408, Note_on_c, 0, 71, 64
2, 11423, Note_on_c, 0, 71, 0
2, 11424, Note_on_c, 0, 72, 64
2, 11439, Note_on_c, 0, 72, 0
2, 11440, Note_on_c, 0, 69, 64
2, 11455, Note_on_c, 0, 69, 0
2, 11456, Note_on_c, 0, 66, 64
2, 11471, Note_on_c, 0, 66, 0
2, 11472, Note_on_c, 0, 62, 64
2, 11487, Note_on_c, 0, 62, 0
2, 11488, Note_on_c, 0, 60, 64
2, 11503, Note_on_c, 0, 60, 0
2, 11504, Note_on_c, 0, 69, 64
2, 11519, Note_on_c, 0, 69, 0
2, 11536, Note_on_c, 0, 86, 64
2, 11536, Note_on_c, 0, 83, 64
2, 11551, Note_on_c, 0, 86, 0
2, 11551, Note_on_c, 0, 83, 0
2, 11552, Note_on_c, 0, 84, 64
2, 11552, Note_on_c, 0, 81, 64
2, 11567, Note_on_c, 0, 84, 0
2, 11567, Note_on_c, 0, 81, 0
2, 11568, Note_on_c, 0, 83, 64
2, 11568, Note_on_c, 0, 79, 64
2, 11575, Note_on_c, 0, 83, 0
2, 11575, Note_on_c, 0, 79, 0
2, 11584, Note_on_c, 0, 83, 64
2, 11584, Note_on_c, 0, 79, 64
2, 11599, Note_on_c, 0, 83, 0
2, 11599, Note_on_c, 0, 79, 0
2, 11600, Note_on_c, 0, 81, 64
2, 11600, Note_on_c, 0, 78, 64
2, 11615, Note_on_c, 0, 81, 0
2, 11615, Note_on_c, 0, 78, 0
2, 11616, Note_on_c, 0, 79, 64
2, 11616, Note_on_c, 0, 76, 64
2, 11623, Note_on_c, 0, 79, 0
2, 11623, Note_on_c, 0, 76, 0
2, 11632, Note_on_c, 0, 79, 64
2, 11632, Note_on_c, 0, 76, 64
2, 11647, Note_on_c, 0, 79, 0
2, 11647, Note_on_c, 0, 76, 0
2, 11648, Note_on_c, 0, 78, 64
2, 11648, Note_on_c, 0, 74, 64
2, 11663, Note_on_c, 0, 78, 0
2, 11663, Note_on_c, 0, 74, 0
2, 11664, Note_on_c, 0, 76, 64
2, 11664, Note_on_c, 0, 72, 64
2, 11671, Note_on_c, 0, 76, 0
2, 11671, Note_on_c, 0, 72, 0
2, 11680, Note_on_c, 0, 76, 64
2, 11680, Note_on_c, 0, 72, 64
2, 11695, Note_on_c, 0, 76, 0
2, 11695, Note_on_c, 0, 72, 0
2, 11696, Note_on_c, 0, 74, 64
2, 11696, Note_on_c, 0, 71, 64
2, 11711, Note_on_c, 0, 74, 0
2, 11711, Note_on_c, 0, 71, 0
2, 11712, Note_on_c, 0, 72, 64
2, 11712, Note_on_c, 0, 69, 64
2, 11806, Note_on_c, 0, 72, 0
2, 11806, Note_on_c, 0, 69, 0
2, 11824, Note_on_c, 0, 71, 64
2, 11839, Note_on_c, 0, 71, 0
2, 11840, Note_on_c, 0, 74, 64
2, 11855, Note_on_c, 0, 74, 0
2, 11872, Note_on_c, 0, 64, 64
2, 11887, Note_on_c, 0, 64, 0
2, 11888, Note_on_c, 0, 72, 64
2, 11903, Note_on_c, 0, 72, 0
2, 11920, Note_on_c, 0, 62, 64
2, 11935, Note_on_c, 0, 62, 0
2, 11936, Note_on_c, 0, 67, 64
2, 11951, Note_on_c, 0, 67, 0
2, 11952, Note_on_c, 0, 71, 64
2, 11967, Note_on_c, 0, 71, 0
2, 11968, Note_on_c, 0, 74, 64
2, 11983, Note_on_c, 0, 74, 0
2, 11984, Note_on_c, 0, 71, 64
2, 11999, Note_on_c, 0, 71, 0
2, 12000, Note_on_c, 0, 72, 64
2, 12015, Note_on_c, 0, 72, 0
2, 12016, Note_on_c, 0, 69, 64
2, 12031, Note_on_c, 0, 69, 0
2, 12032, Note_on_c, 0, 66, 64
2, 12047, Note_on_c, 0, 66, 0
2, 12048, Note_on_c, 0, 62, 64
2, 12063, Note_on_c, 0, 62, 0
2, 12064, Note_on_c, 0, 60, 64
2, 12079, Note_on_c, 0, 60, 0
2, 12080, Note_on_c, 0, 69, 64
2, 12095, Note_on_c, 0, 69, 0
2, 12096, Note_on_c, 0, 60, 64
2, 12192, Note_on_c, 0, 60, 0
2, 12192, Note_on_c, 0, 59, 64
2, 12369, Note_on_c, 0, 59, 0
2, 12400, Note_on_c, 0, 68, 64
2, 12400, Note_on_c, 0, 56, 64
2, 12415, Note_on_c, 0, 68, 0
2, 12415, Note_on_c, 0, 56, 0
2, 12416, Note_on_c, 0, 69, 64
2, 12416, Note_on_c, 0, 57, 64
2, 12431, Note_on_c, 0, 69, 0
2, 12431, Note_on_c, 0, 57, 0
2, 12432, Note_on_c, 0, 71, 64
2, 12432, Note_on_c, 0, 59, 64
2, 12447, Note_on_c, 0, 71, 0
2, 12447, Note_on_c, 0, 59, 0
2, 12448, Note_on_c, 0, 72, 64
2, 12448, Note_on_c, 0, 60, 64
2, 12463, Note_on_c, 0, 72, 0
2, 12463, Note_on_c, 0, 60, 0
2, 12464, Note_on_c, 0, 74, 64
2, 12464, Note_on_c, 0, 62, 64
2, 12479, Note_on_c, 0, 74, 0
2, 12479, Note_on_c, 0, 62, 0
2, 12480, Note_on_c, 0, 76, 64
2, 12480, Note_on_c, 0, 64, 64
2, 12495, Note_on_c, 0, 76, 0
2, 12495, Note_on_c, 0, 64, 0
2, 12496, Note_on_c, 0, 78, 64
2, 12496, Note_on_c, 0, 66, 64
2, 12511, Note_on_c, 0, 78, 0
2, 12511, Note_on_c, 0, 66, 0
2, 12512, Note_on_c, 0, 80, 64
2, 12512, Note_on_c, 0, 68, 64
2, 12527, Note_on_c, 0, 80, 0
2, 12527, Note_on_c, 0, 68, 0
2, 12528, Note_on_c, 0, 81, 64
2, 12528, Note_on_c, 0, 69, 64
2, 12543, Note_on_c, 0, 81, 0
2, 12543, Note_on_c, 0, 69, 0
2, 12544, Note_on_c, 0, 83, 64
2, 12544, Note_on_c, 0, 71, 64
2, 12559, Note_on_c, 0, 83, 0
2, 12559, Note_on_c, 0, 71, 0
2, 12560, Note_on_c, 0, 84, 64
2, 12560, Note_on_c, 0, 72, 64
2, 12575, Note_on_c, 0, 84, 0
2, 12575, Note_on_c, 0, 72, 0
2, 12576, Note_on_c, 0, 86, 64
2, 12576, Note_on_c, 0, 74, 64
2, 12591, Note_on_c, 0, 86, 0
2, 12591, Note_on_c, 0, 74, 0
2, 12592, Note_on_c, 0, 88, 64
2, 12592, Note_on_c, 0, 76, 64
2, 12607, Note_on_c, 0, 88, 0
2, 12607, Note_on_c, 0, 76, 0
2, 12608, Note_on_c, 0, 86, 64
2, 12608, Note_on_c, 0, 74, 64
2, 12623, Note_on_c, 0, 86, 0
2, 12623, Note_on_c, 0, 74, 0
2, 12624, Note_on_c, 0, 84, 64
2, 12624, Note_on_c, 0, 72, 64
2, 12639, Note_on_c, 0, 84, 0
2, 12639, Note_on_c, 0, 72, 0
2, 12640, Note_on_c, 0, 83, 64
2, 12640, Note_on_c, 0, 71, 64
2, 12655, Note_on_c, 0, 83, 0
2, 12655, Note_on_c, 0, 71, 0
2, 12656, Note_on_c, 0, 81, 64
2, 12656, Note_on_c, 0, 69, 64
2, 12671, Note_on_c, 0, 81, 0
2, 12671, Note_on_c, 0, 69, 0
2, 12672, Note_on_c, 0, 79, 64
2, 12672, Note_on_c, 0, 67, 64
2, 12692, Note_on_c, 0, 79, 0
2, 12692, Note_on_c, 0, 67, 0
2, 12720, Note_on_c, 0, 86, 64
2, 12720, Note_on_c, 0, 74, 64
2, 12740, Note_on_c, 0, 86, 0
2, 12740, Note_on_c, 0, 74, 0
2, 12816, Note_on_c, 0, 84, 64
2, 12828, Note_on_c, 0, 84, 0
2, 12828, Note_on_c, 0, 83, 64
2, 12840, Note_on_c, 0, 83, 0
2, 12840, Note_on_c, 0, 81, 64
2, 12852, Note_on_c, 0, 81, 0
2, 12852, Note_on_c, 0, 79, 64
2, 12864, Note_on_c, 0, 79, 0
2, 12864, Note_on_c, 0, 83, 64
2, 12870, Note_on_c, 0, 83, 0
2, 12870, Note_on_c, 0, 81, 64
2, 12876, Note_on_c, 0, 81, 0
2, 12876, Note_on_c, 0, 83, 64
2, 12882, Note_on_c, 0, 83, 0
2, 12882, Note_on_c, 0, 81, 64
2, 12888, Note_on_c, 0, 81, 0
2, 12888, Note_on_c, 0, 83, 64
2, 12894, Note_on_c, 0, 83, 0
2, 12894, Note_on_c, 0, 81, 64
2, 12900, Note_on_c, 0, 81, 0
2, 12900, Note_on_c, 0, 83, 64
2, 12905, Note_on_c, 0, 83, 0
2, 12905, Note_on_c, 0, 81, 64
2, 12910, Note_on_c, 0, 81, 0
2, 12910, Note_on_c, 0, 83, 64
2, 12915, Note_on_c, 0, 83, 0
2, 12915, Note_on_c, 0, 81, 64
2, 12920, Note_on_c, 0, 81, 0
2, 12920, Note_on_c, 0, 83, 64
2, 12925, Note_on_c, 0, 83, 0
2, 12925, Note_on_c, 0, 81, 64
2, 12930, Note_on_c, 0, 81, 0
2, 12930, Note_on_c, 0, 83, 64
2, 12935, Note_on_c, 0, 83, 0
2, 12935, Note_on_c, 0, 81, 64
2, 12940, Note_on_c, 0, 81, 0
2, 12940, Note_on_c, 0, 83, 64
2, 12945, Note_on_c, 0, 83, 0
2, 12945, Note_on_c, 0, 81, 64
2, 12950, Note_on_c, 0, 81, 0
2, 12950, Note_on_c, 0, 79, 64
2, 12955, Note_on_c, 0, 79, 0
2, 12955, Note_on_c, 0, 81, 64
2, 12960, Note_on_c, 0, 81, 0
2, 12960, Note_on_c, 0, 79, 64
2, 13049, Note_on_c, 0, 79, 0
2, 13056, Note_on_c, 0, 82, 64
2, 13123, Note_on_c, 0, 82, 0
2, 13128, Note_on_c, 0, 79, 64
2, 13140, Note_on_c, 0, 79, 0
2, 13140, Note_on_c, 0, 81, 64
2, 13152, Note_on_c, 0, 81, 0
2, 13152, Note_on_c, 0, 82, 64
2, 13167, Note_on_c, 0, 82, 0
2, 13168, Note_on_c, 0, 81, 64
2, 13183, Note_on_c, 0, 81, 0
2, 13184, Note_on_c, 0, 79, 64
2, 13199, Note_on_c, 0, 79, 0
2, 13200, Note_on_c, 0, 77, 64
2, 13215, Note_on_c, 0, 77, 0
2, 13216, Note_on_c, 0, 76, 64
2, 13231, Note_on_c, 0, 76, 0
2, 13232, Note_on_c, 0, 74, 64
2, 13247, Note_on_c, 0, 74, 0
2, 13248, Note_on_c, 0, 73, 64
2, 13254, Note_on_c, 0, 73, 0
2, 13254, Note_on_c, 0, 74, 64
2, 13260, Note_on_c, 0, 74, 0
2, 13260, Note_on_c, 0, 73, 64
2, 13338, Note_on_c, 0, 73, 0
2, 13344, Note_on_c, 0, 88, 64
2, 13411, Note_on_c, 0, 88, 0
2, 13416, Note_on_c, 0, 85, 64
2, 13428, Note_on_c, 0, 85, 0
2, 13428, Note_on_c, 0, 86, 64
2, 13440, Note_on_c, 0, 86, 0
2, 13440, Note_on_c, 0, 88, 64
2, 13455, Note_on_c, 0, 88, 0
2, 13456, Note_on_c, 0, 86, 64
2, 13471, Note_on_c, 0, 86, 0
2, 13472, Note_on_c, 0, 85, 64
2, 13487, Note_on_c, 0, 85, 0
2, 13488, Note_on_c, 0, 82, 64
2, 13503, Note_on_c, 0, 82, 0
2, 13504, Note_on_c, 0, 81, 64
2, 13519, Note_on_c, 0, 81, 0
2, 13520, Note_on_c, 0, 79, 64
2, 13535, Note_on_c, 0, 79, 0
2, 13536, Note_on_c, 0, 79, 64
2, 13581, Note_on_c, 0, 79, 0
2, 13584, Note_on_c, 0, 77, 64
2, 13590, Note_on_c, 0, 77, 0
2, 13590, Note_on_c, 0, 79, 64
2, 13596, Note_on_c, 0, 79, 0
2, 13596, Note_on_c, 0, 77, 64
2, 13618, Note_on_c, 0, 77, 0
2, 13620, Note_on_c, 0, 79, 64
2, 13632, Note_on_c, 0, 79, 0
2, 13632, Note_on_c, 0, 81, 64
2, 13647, Note_on_c, 0, 81, 0
2, 13648, Note_on_c, 0, 82, 64
2, 13663, Note_on_c, 0, 82, 0
2, 13664, Note_on_c, 0, 79, 64
2, 13679, Note_on_c, 0, 79, 0
2, 13680, Note_on_c, 0, 81, 64
2, 13695, Note_on_c, 0, 81, 0
2, 13696, Note_on_c, 0, 82, 64
2, 13711, Note_on_c, 0, 82, 0
2, 13712, Note_on_c, 0, 79, 64
2, 13727, Note_on_c, 0, 79, 0
2, 13728, Note_on_c, 0, 81, 64
2, 13743, Note_on_c, 0, 81, 0
2, 13744, Note_on_c, 0, 79, 64
2, 13759, Note_on_c, 0, 79, 0
2, 13760, Note_on_c, 0, 77, 64
2, 13775, Note_on_c, 0, 77, 0
2, 13776, Note_on_c, 0, 76, 64
2, 13791, Note_on_c, 0, 76, 0
2, 13792, Note_on_c, 0, 74, 64
2, 13807, Note_on_c, 0, 74, 0
2, 13808, Note_on_c, 0, 72, 64
2, 13823, Note_on_c, 0, 72, 0
2, 13824, Note_on_c, 0, 72, 64
2, 13869, Note_on_c, 0, 72, 0
2, 13872, Note_on_c, 0, 71, 64
2, 13906, Note_on_c, 0, 71, 0
2, 13908, Note_on_c, 0, 86, 64
2, 13920, Note_on_c, 0, 86, 0
2, 13920, Note_on_c, 0, 86, 64
2, 13987, Note_on_c, 0, 86, 0
2, 13992, Note_on_c, 0, 83, 64
2, 14004, Note_on_c, 0, 83, 0
2, 14004, Note_on_c, 0, 84, 64
2, 14016, Note_on_c, 0, 84, 0
2, 14016, Note_on_c, 0, 86, 64
2, 14031, Note_on_c, 0, 86, 0
2, 14032, Note_on_c, 0, 84, 64
2, 14047, Note_on_c, 0, 84, 0
2, 14048, Note_on_c, 0, 83, 64
2, 14063, Note_on_c, 0, 83, 0
2, 14064, Note_on_c, 0, 81, 64
2, 14079, Note_on_c, 0, 81, 0
2, 14080, Note_on_c, 0, 79, 64
2, 14095, Note_on_c, 0, 79, 0
2, 14096, Note_on_c, 0, 77, 64
2, 14111, Note_on_c, 0, 77, 0
2, 14112, Note_on_c, 0, 77, 64
2, 14157, Note_on_c, 0, 77, 0
2, 14160, Note_on_c, 0, 76, 64
2, 14166, Note_on_c, 0, 76, 0
2, 14166, Note_on_c, 0, 77, 64
2, 14172, Note_on_c, 0, 77, 0
2, 14172, Note_on_c, 0, 76, 64
2, 14206, Note_on_c, 0, 76, 0
2, 14208, Note_on_c, 0, 84, 64
2, 14223, Note_on_c, 0, 84, 0
2, 14224, Note_on_c, 0, 88, 64
2, 14239, Note_on_c, 0, 88, 0
2, 14240, Note_on_c, 0, 86, 64
2, 14255, Note_on_c, 0, 86, 0
2, 14256, Note_on_c, 0, 84, 64
2, 14271, Note_on_c, 0, 84, 0
2, 14272, Note_on_c, 0, 88, 64
2, 14287, Note_on_c, 0, 88, 0
2, 14288, Note_on_c, 0, 86, 64
2, 14303, Note_on_c, 0, 86, 0
2, 14304, Note_on_c, 0, 84, 64
2, 14319, Note_on_c, 0, 84, 0
2, 14320, Note_on_c, 0, 83, 64
2, 14335, Note_on_c, 0, 83, 0
2, 14336, Note_on_c, 0, 81, 64
2, 14351, Note_on_c, 0, 81, 0
2, 14352, Note_on_c, 0, 79, 64
2, 14367, Note_on_c, 0, 79, 0
2, 14368, Note_on_c, 0, 77, 64
2, 14383, Note_on_c, 0, 77, 0
2, 14384, Note_on_c, 0, 76, 64
2, 14399, Note_on_c, 0, 76, 0
2, 14400, Note_on_c, 0, 77, 64
2, 14400, Note_on_c, 0, 74, 64
2, 14577, Note_on_c, 0, 77, 0
2, 14577, Note_on_c, 0, 74, 0
2, 14608, Note_on_c, 0, 76, 64
2, 14623, Note_on_c, 0, 76, 0
2, 14624, Note_on_c, 0, 79, 64
2, 14639, Note_on_c, 0, 79, 0
2, 14640, Note_on_c, 0, 84, 64
2, 14655, Note_on_c, 0, 84, 0
2, 14656, Note_on_c, 0, 79, 64
2, 14671, Note_on_c, 0, 79, 0
2, 14672, Note_on_c, 0, 76, 64
2, 14687, Note_on_c, 0, 76, 0
2, 14688, Note_on_c, 0, 76, 64
2, 14703, Note_on_c, 0, 76, 0
2, 14704, Note_on_c, 0, 77, 64
2, 14719, Note_on_c, 0, 77, 0
2, 14720, Note_on_c, 0, 73, 64
2, 14735, Note_on_c, 0, 73, 0
2, 14736, Note_on_c, 0, 74, 64
2, 14751, Note_on_c, 0, 74, 0
2, 14752, Note_on_c, 0, 82, 64
2, 14767, Note_on_c, 0, 82, 0
2, 14768, Note_on_c, 0, 81, 64
2, 14783, Note_on_c, 0, 81, 0
2, 14784, Note_on_c, 0, 80, 64
2, 14791, Note_on_c, 0, 80, 0
2, 14800, Note_on_c, 0, 81, 64
2, 14815, Note_on_c, 0, 81, 0
2, 14816, Note_on_c, 0, 79, 64
2, 14831, Note_on_c, 0, 79, 0
2, 14832, Note_on_c, 0, 77, 64
2, 14839, Note_on_c, 0, 77, 0
2, 14848, Note_on_c, 0, 79, 64
2, 14863, Note_on_c, 0, 79, 0
2, 14864, Note_on_c, 0, 77, 64
2, 14879, Note_on_c, 0, 77, 0
2, 14880, Note_on_c, 0, 76, 64
2, 14887, Note_on_c, 0, 76, 0
2, 14896, Note_on_c, 0, 77, 64
2, 14911, Note_on_c, 0, 77, 0
2, 14912, Note_on_c, 0, 76, 64
2, 14927, Note_on_c, 0, 76, 0
2, 14928, Note_on_c, 0, 74, 64
2, 14943, Note_on_c, 0, 74, 0
2, 14944, Note_on_c, 0, 72, 64
2, 14959, Note_on_c, 0, 72, 0
2, 14960, Note_on_c, 0, 81, 64
2, 14975, Note_on_c, 0, 81, 0
2, 14976, Note_on_c, 0, 74, 64
2, 15021, Note_on_c, 0, 74, 0
2, 15024, Note_on_c, 0, 72, 64
2, 15030, Note_on_c, 0, 72, 0
2, 15030, Note_on_c, 0, 74, 64
2, 15036, Note_on_c, 0, 74, 0
2, 15036, Note_on_c, 0, 72, 64
2, 15072, Note_on_c, 0, 72, 0
2, 15072, Note_on_c, 0, 71, 64
2, 15161, Note_on_c, 0, 71, 0
2, 15264, Note_on_c, 0, 72, 64
2, 15342, Note_on_c, 0, 72, 0
2, 15348, Note_on_c, 0, 67, 64
2, 15360, Note_on_c, 0, 67, 0
2, 15360, Note_on_c, 0, 76, 64
2, 15375, Note_on_c, 0, 76, 0
2, 15376, Note_on_c, 0, 79, 64
2, 15391, Note_on_c, 0, 79, 0
2, 15392, Note_on_c, 0, 77, 64
2, 15407, Note_on_c, 0, 77, 0
2, 15408, Note_on_c, 0, 76, 64
2, 15423, Note_on_c, 0, 76, 0
2, 15424, Note_on_c, 0, 74, 64
2, 15439, Note_on_c, 0, 74, 0
2, 15440, Note_on_c, 0, 72, 64
2, 15455, Note_on_c, 0, 72, 0
2, 15456, Note_on_c, 0, 71, 64
2, 15471, Note_on_c, 0, 71, 0
2, 15472, Note_on_c, 0, 69, 64
2, 15487, Note_on_c, 0, 69, 0
2, 15488, Note_on_c, 0, 67, 64
2, 15503, Note_on_c, 0, 67, 0
2, 15504, Note_on_c, 0, 65, 64
2, 15519, Note_on_c, 0, 65, 0
2, 15520, Note_on_c, 0, 64, 64
2, 15535, Note_on_c, 0, 64, 0
2, 15536, Note_on_c, 0, 62, 64
2, 15551, Note_on_c, 0, 62, 0
2, 15552, Note_on_c, 0, 60, 64
2, 15641, Note_on_c, 0, 60, 0
2, 15648, Note_on_c, 0, 59, 64
2, 15654, Note_on_c, 0, 59, 0
2, 15654, Note_on_c, 0, 60, 64
2, 15660, Note_on_c, 0, 60, 0
2, 15660, Note_on_c, 0, 59, 64
2, 15833, Note_on_c, 0, 59, 0
2, 15840, Note_on_c, 0, 77, 64
2, 15907, Note_on_c, 0, 77, 0
2, 15912, Note_on_c, 0, 74, 64
2, 15924, Note_on_c, 0, 74, 0
2, 15924, Note_on_c, 0, 76, 64
2, 15936, Note_on_c, 0, 76, 0
2, 15936, Note_on_c, 0, 77, 64
2, 15951, Note_on_c, 0, 77, 0
2, 15952, Note_on_c, 0, 86, 64
2, 15967, Note_on_c, 0, 86, 0
2, 15968, Note_on_c, 0, 84, 64
2, 15983, Note_on_c, 0, 84, 0
2, 15984, Note_on_c, 0, 83, 64
2, 15999, Note_on_c, 0, 83, 0
2, 16000, Note_on_c, 0, 89, 64
2, 16015, Note_on_c, 0, 89, 0
2, 16016, Note_on_c, 0, 88, 64
2, 16031, Note_on_c, 0, 88, 0
2, 16032, Note_on_c, 0, 86, 64
2, 16047, Note_on_c, 0, 86, 0
2, 16048, Note_on_c, 0, 84, 64
2, 16063, Note_on_c, 0, 84, 0
2, 16064, Note_on_c, 0, 83, 64
2, 16079, Note_on_c, 0, 83, 0
2, 16080, Note_on_c, 0, 81, 64
2, 16095, Note_on_c, 0, 81, 0
2, 16096, Note_on_c, 0, 79, 64
2, 16111, Note_on_c, 0, 79, 0
2, 16112, Note_on_c, 0, 77, 64
2, 16127, Note_on_c, 0, 77, 0
2, 16128, Note_on_c, 0, 79, 64
2, 16173, Note_on_c, 0, 79, 0
2, 16176, Note_on_c, 0, 77, 64
2, 16182, Note_on_c, 0, 77, 0
2, 16182, Note_on_c, 0, 79, 64
2, 16188, Note_on_c, 0, 79, 0
2, 16188, Note_on_c, 0, 77, 64
2, 16224, Note_on_c, 0, 77, 0
2, 16224, Note_on_c, 0, 76, 64
2, 16269, Note_on_c, 0, 76, 0
2, 16320, Note_on_c, 0, 72, 64
2, 16365, Note_on_c, 0, 72, 0
2, 16368, Note_on_c, 0, 74, 64
2, 16373, Note_on_c, 0, 74, 0
2, 16373, Note_on_c, 0, 76, 64
2, 16378, Note_on_c, 0, 76, 0
2, 16378, Note_on_c, 0, 74, 64
2, 16383, Note_on_c, 0, 74, 0
2, 16383, Note_on_c, 0, 72, 64
2, 16388, Note_on_c, 0, 72, 0
2, 16388, Note_on_c, 0, 74, 64
2, 16393, Note_on_c, 0, 74, 0
2, 16393, Note_on_c, 0, 76, 64
2, 16398, Note_on_c, 0, 76, 0
2, 16398, Note_on_c, 0, 77, 64
2, 16403, Note_on_c, 0, 77, 0
2, 16403, Note_on_c, 0, 79, 64
2, 16408, Note_on_c, 0, 79, 0
2, 16408, Note_on_c, 0, 81, 64
2, 16412, Note_on_c, 0, 81, 0
2, 16412, Note_on_c, 0, 83, 64
2, 16416, Note_on_c, 0, 83, 0
2, 16416, Note_on_c, 0, 84, 64
2, 16608, Note_on_c, 0, 84, 0
2, 16608, Note_on_c, 0, 83, 64
2, 16697, Note_on_c, 0, 83, 0
2, 16704, Note_on_c, 0, 81, 64
2, 16896, Note_on_c, 0, 81, 0
2, 16896, Note_on_c, 0, 79, 64
2, 16985, Note_on_c, 0, 79, 0
2, 16992, Note_on_c, 0, 78, 64
2, 17086, Note_on_c, 0, 78, 0
2, 17088, Note_on_c, 0, 78, 64
2, 17177, Note_on_c, 0, 78, 0
2, 17184, Note_on_c, 0, 81, 64
2, 17273, Note_on_c, 0, 81, 0
2, 17280, Note_on_c, 0, 77, 64
2, 17374, Note_on_c, 0, 77, 0
2, 17376, Note_on_c, 0, 77, 64
2, 17465, Note_on_c, 0, 77, 0
2, 17472, Note_on_c, 0, 77, 64
2, 17487, Note_on_c, 0, 77, 0
2, 17488, Note_on_c, 0, 65, 64
2, 17503, Note_on_c, 0, 65, 0
2, 17504, Note_on_c, 0, 67, 64
2, 17519, Note_on_c, 0, 67, 0
2, 17520, Note_on_c, 0, 69, 64
2, 17535, Note_on_c, 0, 69, 0
2, 17536, Note_on_c, 0, 67, 64
2, 17551, Note_on_c, 0, 67, 0
2, 17552, Note_on_c, 0, 65, 64
2, 17567, Note_on_c, 0, 65, 0
2, 17584, Note_on_c, 0, 79, 64
2, 17584, Note_on_c, 0, 76, 64
2, 17599, Note_on_c, 0, 79, 0
2, 17599, Note_on_c, 0, 76, 0
2, 17600, Note_on_c, 0, 77, 64
2, 17600, Note_on_c, 0, 74, 64
2, 17615, Note_on_c, 0, 77, 0
2, 17615, Note_on_c, 0, 74, 0
2, 17616, Note_on_c, 0, 76, 64
2, 17616, Note_on_c, 0, 72, 64
2, 17623, Note_on_c, 0, 76, 0
2, 17623, Note_on_c, 0, 72, 0
2, 17632, Note_on_c, 0, 76, 64
2, 17632, Note_on_c, 0, 72, 64
2, 17647, Note_on_c, 0, 76, 0
2, 17647, Note_on_c, 0, 72, 0
2, 17648, Note_on_c, 0, 74, 64
2, 17648, Note_on_c, 0, 71, 64
2, 17663, Note_on_c, 0, 74, 0
2, 17663, Note_on_c, 0, 71, 0
2, 17664, Note_on_c, 0, 72, 64
2, 17664, Note_on_c, 0, 69, 64
2, 17671, Note_on_c, 0, 72, 0
2, 17671, Note_on_c, 0, 69, 0
2, 17680, Note_on_c, 0, 72, 64
2, 17680, Note_on_c, 0, 69, 64
2, 17695, Note_on_c, 0, 72, 0
2, 17695, Note_on_c, 0, 69, 0
2, 17696, Note_on_c, 0, 71, 64
2, 17696, Note_on_c, 0, 67, 64
2, 17711, Note_on_c, 0, 71, 0
2, 17711, Note_on_c, 0, 67, 0
2, 17712, Note_on_c, 0, 69, 64
2, 17712, Note_on_c, 0, 65, 64
2, 17719, Note_on_c, 0, 69, 0
2, 17719, Note_on_c, 0, 65, 0
2, 17728, Note_on_c, 0, 69, 64
2, 17728, Note_on_c, 0, 65, 64
2, 17743, Note_on_c, 0, 69, 0
2, 17743, Note_on_c, 0, 65, 0
2, 17744, Note_on_c, 0, 67, 64
2, 17744, Note_on_c, 0, 64, 64
2, 17759, Note_on_c, 0, 67, 0
2, 17759, Note_on_c, 0, 64, 0
2, 17760, Note_on_c, 0, 65, 64
2, 17760, Note_on_c, 0, 62, 64
2, 17849, Note_on_c, 0, 65, 0
2, 17849, Note_on_c, 0, 62, 0
2, 17872, Note_on_c, 0, 64, 64
2, 17887, Note_on_c, 0, 64, 0
2, 17888, Note_on_c, 0, 67, 64
2, 17903, Note_on_c, 0, 67, 0
2, 17920, Note_on_c, 0, 57, 64
2, 17935, Note_on_c, 0, 57, 0
2, 17936, Note_on_c, 0, 65, 64
2, 17951, Note_on_c, 0, 65, 0
2, 17968, Note_on_c, 0, 55, 64
2, 17983, Note_on_c, 0, 55, 0
2, 17984, Note_on_c, 0, 60, 64
2, 17999, Note_on_c, 0, 60, 0
2, 18000, Note_on_c, 0, 64, 64
2, 18015, Note_on_c, 0, 64, 0
2, 18016, Note_on_c, 0, 67, 64
2, 18031, Note_on_c, 0, 67, 0
2, 18032, Note_on_c, 0, 64, 64
2, 18047, Note_on_c, 0, 64, 0
2, 18048, Note_on_c, 0, 65, 64
2, 18063, Note_on_c, 0, 65, 0
2, 18064, Note_on_c, 0, 62, 64
2, 18079, Note_on_c, 0, 62, 0
2, 18080, Note_on_c, 0, 59, 64
2, 18095, Note_on_c, 0, 59, 0
2, 18096, Note_on_c, 0, 55, 64
2, 18111, Note_on_c, 0, 55, 0
2, 18112, Note_on_c, 0, 53, 64
2, 18127, Note_on_c, 0, 53, 0
2, 18128, Note_on_c, 0, 62, 64
2, 18143, Note_on_c, 0, 62, 0
2, 18160, Note_on_c, 0, 79, 64
2, 18160, Note_on_c, 0, 76, 64
2, 18175, Note_on_c, 0, 79, 0
2, 18175, Note_on_c, 0, 76, 0
2, 18176, Note_on_c, 0, 77, 64
2, 18176, Note_on_c, 0, 74, 64
2, 18191, Note_on_c, 0, 77, 0
2, 18191, Note_on_c, 0, 74, 0
2, 18192, Note_on_c, 0, 76, 64
2, 18192, Note_on_c, 0, 72, 64
2, 18199, Note_on_c, 0, 76, 0
2, 18199, Note_on_c, 0, 72, 0
2, 18208, Note_on_c, 0, 88, 64
2, 18208, Note_on_c, 0, 84, 64
2, 18223, Note_on_c, 0, 88, 0
2, 18223, Note_on_c, 0, 84, 0
2, 18224, Note_on_c, 0, 86, 64
2, 18224, Note_on_c, 0, 83, 64
2, 18239, Note_on_c, 0, 86, 0
2, 18239, Note_on_c, 0, 83, 0
2, 18240, Note_on_c, 0, 84, 64
2, 18240, Note_on_c, 0, 81, 64
2, 18247, Note_on_c, 0, 84, 0
2, 18247, Note_on_c, 0, 81, 0
2, 18256, Note_on_c, 0, 84, 64
2, 18256, Note_on_c, 0, 81, 64
2, 18271, Note_on_c, 0, 84, 0
2, 18271, Note_on_c, 0, 81, 0
2, 18272, Note_on_c, 0, 83, 64
2, 18272, Note_on_c, 0, 79, 64
2, 18287, Note_on_c, 0, 83, 0
2, 18287, Note_on_c, 0, 79, 0
2, 18288, Note_on_c, 0, 81, 64
2, 18288, Note_on_c, 0, 77, 64
2, 18295, Note_on_c, 0, 81, 0
2, 18295, Note_on_c, 0, 77, 0
2, 18304, Note_on_c, 0, 81, 64
2, 18304, Note_on_c, 0, 77, 64
2, 18319, Note_on_c, 0, 81, 0
2, 18319, Note_on_c, 0, 77, 0
2, 18320, Note_on_c, 0, 79, 64
2, 18320, Note_on_c, 0, 76, 64
2, 18335, Note_on_c, 0, 79, 0
2, 18335, Note_on_c, 0, 76, 0
2, 18336, Note_on_c, 0, 77, 64
2, 18336, Note_on_c, 0, 74, 64
2, 18425, Note_on_c, 0, 77, 0
2, 18425, Note_on_c, 0, 74, 0
2, 18448, Note_on_c, 0, 76, 64
2, 18463, Note_on_c, 0, 76, 0
2, 18464, Note_on_c, 0, 79, 64
2, 18479, Note_on_c, 0, 79, 0
2, 18496, Note_on_c, 0, 69, 64
2, 18511, Note_on_c, 0, 69, 0
2, 18512, Note_on_c, 0, 77, 64
2, 18527, Note_on_c, 0, 77, 0
2, 18544, Note_on_c, 0, 67, 64
2, 18559, Note_on_c, 0, 67, 0
2, 18560, Note_on_c, 0, 72, 64
2, 18575, Note_on_c, 0, 72, 0
2, 18576, Note_on_c, 0, 76, 64
2, 18591, Note_on_c, 0, 76, 0
2, 18592, Note_on_c, 0, 79, 64
2, 18607, Note_on_c, 0, 79, 0
2, 18608, Note_on_c, 0, 76, 64
2, 18623, Note_on_c, 0, 76, 0
2, 18624, Note_on_c, 0, 77, 64
2, 18639, Note_on_c, 0, 77, 0
2, 18640, Note_on_c, 0, 74, 64
2, 18655, Note_on_c, 0, 74, 0
2, 18656, Note_on_c, 0, 71, 64
2, 18671, Note_on_c, 0, 71, 0
2, 18672, Note_on_c, 0, 67, 64
2, 18687, Note_on_c, 0, 67, 0
2, 18688, Note_on_c, 0, 65, 64
2, 18703, Note_on_c, 0, 65, 0
2, 18704, Note_on_c, 0, 74, 64
2, 18719, Note_on_c, 0, 74, 0
2, 18720, Note_on_c, 0, 65, 64
2, 18720, Note_on_c, 0, 59, 64
2, 18816, Note_on_c, 0, 65, 0
2, 18816, Note_on_c, 0, 59, 0
2, 18816, Note_on_c, 0, 64, 64
2, 18816, Note_on_c, 0, 60, 64
2, 18993, Note_on_c, 0, 64, 0
2, 18993, Note_on_c, 0, 60, 0
2, 19024, Note_on_c, 0, 73, 64
2, 19024, Note_on_c, 0, 61, 64
2, 19039, Note_on_c, 0, 73, 0
2, 19039, Note_on_c, 0, 61, 0
2, 19040, Note_on_c, 0, 74, 64
2, 19040, Note_on_c, 0, 62, 64
2, 19055, Note_on_c, 0, 74, 0
2, 19055, Note_on_c, 0, 62, 0
2, 19056, Note_on_c, 0, 76, 64
2, 19056, Note_on_c, 0, 64, 64
2, 19071, Note_on_c, 0, 76, 0
2, 19071, Note_on_c, 0, 64, 0
2, 19072, Note_on_c, 0, 77, 64
2, 19072, Note_on_c, 0, 65, 64
2, 19087, Note_on_c, 0, 77, 0
2, 19087, Note_on_c, 0, 65, 0
2, 19088, Note_on_c, 0, 79, 64
2, 19088, Note_on_c, 0, 67, 64
2, 19103, Note_on_c, 0, 79, 0
2, 19103, Note_on_c, 0, 67, 0
2, 19104, Note_on_c, 0, 81, 64
2, 19104, Note_on_c, 0, 69, 64
2, 19119, Note_on_c, 0, 81, 0
2, 19119, Note_on_c, 0, 69, 0
2, 19120, Note_on_c, 0, 82, 64
2, 19120, Note_on_c, 0, 70, 64
2, 19135, Note_on_c, 0, 82, 0
2, 19135, Note_on_c, 0, 70, 0
2, 19136, Note_on_c, 0, 81, 64
2, 19136, Note_on_c, 0, 69, 64
2, 19151, Note_on_c, 0, 81, 0
2, 19151, Note_on_c, 0, 69, 0
2, 19152, Note_on_c, 0, 79, 64
2, 19152, Note_on_c, 0, 67, 64
2, 19167, Note_on_c, 0, 79, 0
2, 19167, Note_on_c, 0, 67, 0
2, 19168, Note_on_c, 0, 77, 64
2, 19168, Note_on_c, 0, 65, 64
2, 19183, Note_on_c, 0, 77, 0
2, 19183, Note_on_c, 0, 65, 0
2, 19184, Note_on_c, 0, 76, 64
2, 19184, Note_on_c, 0, 64, 64
2, 19199, Note_on_c, 0, 76, 0
2, 19199, Note_on_c, 0, 64, 0
2, 19200, Note_on_c, 0, 74, 64
2, 19200, Note_on_c, 0, 62, 64
2, 19215, Note_on_c, 0, 74, 0
2, 19215, Note_on_c, 0, 62, 0
2, 19216, Note_on_c, 0, 81, 64
2, 19216, Note_on_c, 0, 69, 64
2, 19231, Note_on_c, 0, 81, 0
2, 19231, Note_on_c, 0, 69, 0
2, 19232, Note_on_c, 0, 79, 64
2, 19232, Note_on_c, 0, 67, 64
2, 19247, Note_on_c, 0, 79, 0
2, 19247, Note_on_c, 0, 67, 0
2, 19248, Note_on_c, 0, 77, 64
2, 19248, Note_on_c, 0, 65, 64
2, 19263, Note_on_c, 0, 77, 0
2, 19263, Note_on_c, 0, 65, 0
2, 19264, Note_on_c, 0, 76, 64
2, 19264, Note_on_c, 0, 64, 64
2, 19279, Note_on_c, 0, 76, 0
2, 19279, Note_on_c, 0, 64, 0
2, 19280, Note_on_c, 0, 74, 64
2, 19280, Note_on_c, 0, 62, 64
2, 19295, Note_on_c, 0, 74, 0
2, 19295, Note_on_c, 0, 62, 0
2, 19296, Note_on_c, 0, 72, 64
2, 19296, Note_on_c, 0, 60, 64
2, 19316, Note_on_c, 0, 72, 0
2, 19316, Note_on_c, 0, 60, 0
2, 19344, Note_on_c, 0, 79, 64
2, 19344, Note_on_c, 0, 67, 64
2, 19364, Note_on_c, 0, 79, 0
2, 19364, Note_on_c, 0, 67, 0
2, 19440, Note_on_c, 0, 77, 64
2, 19452, Note_on_c, 0, 77, 0
2, 19452, Note_on_c, 0, 76, 64
2, 19464, Note_on_c, 0, 76, 0
2, 19464, Note_on_c, 0, 74, 64
2, 19476, Note_on_c, 0, 74, 0
2, 19476, Note_on_c, 0, 72, 64
2, 19488, Note_on_c, 0, 72, 0
2, 19488, Note_on_c, 0, 76, 64
2, 19494, Note_on_c, 0, 76, 0
2, 19494, Note_on_c, 0, 74, 64
2, 19500, Note_on_c, 0, 74, 0
2, 19500, Note_on_c, 0, 76, 64
2, 19506, Note_on_c, 0, 76, 0
2, 19506, Note_on_c, 0, 74, 64
2, 19512, Note_on_c, 0, 74, 0
2, 19512, Note_on_c, 0, 76, 64
2, 19518, Note_on_c, 0, 76, 0
2, 19518, Note_on_c, 0, 74, 64
2, 19524, Note_on_c, 0, 74, 0
2, 19524, Note_on_c, 0, 76, 64
2, 19529, Note_on_c, 0, 76, 0
2, 19529, Note_on_c, 0, 74, 64
2, 19534, Note_on_c, 0, 74, 0
2, 19534, Note_on_c, 0, 76, 64
2, 19539, Note_on_c, 0, 76, 0
2, 19539, Note_on_c, 0, 74, 64
2, 19544, Note_on_c, 0, 74, 0
2, 19544, Note_on_c, 0, 76, 64
2, 19549, Note_on_c, 0, 76, 0
2, 19549, Note_on_c, 0, 74, 64
2, 19554, Note_on_c, 0, 74, 0
2, 19554, Note_on_c, 0, 76, 64
2, 19559, Note_on_c, 0, 76, 0
2, 19559, Note_on_c, 0, 74, 64
2, 19564, Note_on_c, 0, 74, 0
2, 19564, Note_on_c, 0, 76, 64
2, 19569, Note_on_c, 0, 76, 0
2, 19569, Note_on_c, 0, 74, 64
2, 19574, Note_on_c, 0, 74, 0
2, 19574, Note_on_c, 0, 72, 64
2, 19579, Note_on_c, 0, 72, 0
2, 19579, Note_on_c, 0, 74, 64
2, 19584, Note_on_c, 0, 74, 0
2, 19600, Note_on_c, 0, 72, 64
2, 19615, Note_on_c, 0, 72, 0
2, 19616, Note_on_c, 0, 76, 64
2, 19631, Note_on_c, 0, 76, 0
2, 19632, Note_on_c, 0, 84, 64
2, 19647, Note_on_c, 0, 84, 0
2, 19648, Note_on_c, 0, 76, 64
2, 19663, Note_on_c, 0, 76, 0
2, 19664, Note_on_c, 0, 72, 64
2, 19679, Note_on_c, 0, 72, 0
2, 19696, Note_on_c, 0, 72, 64
2, 19711, Note_on_c, 0, 72, 0
2, 19712, Note_on_c, 0, 76, 64
2, 19727, Note_on_c, 0, 76, 0
2, 19728, Note_on_c, 0, 84, 64
2, 19743, Note_on_c, 0, 84, 0
2, 19744, Note_on_c, 0, 76, 64
2, 19759, Note_on_c, 0, 76, 0
2, 19760, Note_on_c, 0, 72, 64
2, 19775, Note_on_c, 0, 72, 0
2, 19792, Note_on_c, 0, 72, 64
2, 19807, Note_on_c, 0, 72, 0
2, 19808, Note_on_c, 0, 81, 64
2, 19823, Note_on_c, 0, 81, 0
2, 19824, Note_on_c, 0, 84, 64
2, 19839, Note_on_c, 0, 84, 0
2, 19840, Note_on_c, 0, 81, 64
2, 19855, Note_on_c, 0, 81, 0
2, 19856, Note_on_c, 0, 72, 64
2, 19871, Note_on_c, 0, 72, 0
2, 19872, Note_on_c, 0, 84, 64
2, 20137, Note_on_c, 0, 84, 0
2, 20176, Note_on_c, 0, 88, 64
2, 20176, Note_on_c, 0, 84, 64
2, 20191, Note_on_c, 0, 88, 0
2, 20191, Note_on_c, 0, 84, 0
2, 20192, Note_on_c, 0, 86, 64
2, 20192, Note_on_c, 0, 83, 64
2, 20207, Note_on_c, 0, 86, 0
2, 20207, Note_on_c, 0, 83, 0
2, 20208, Note_on_c, 0, 84, 64
2, 20208, Note_on_c, 0, 81, 64
2, 20215, Note_on_c, 0, 84, 0
2, 20215, Note_on_c, 0, 81, 0
2, 20224, Note_on_c, 0, 84, 64
2, 20224, Note_on_c, 0, 81, 64
2, 20239, Note_on_c, 0, 84, 0
2, 20239, Note_on_c, 0, 81, 0
2, 20240, Note_on_c, 0, 83, 64
2, 20240, Note_on_c, 0, 79, 64
2, 20255, Note_on_c, 0, 83, 0
2, 20255, Note_on_c, 0, 79, 0
2, 20256, Note_on_c, 0, 81, 64
2, 20256, Note_on_c, 0, 77, 64
2, 20263, Note_on_c, 0, 81, 0
2, 20263, Note_on_c, 0, 77, 0
2, 20272, Note_on_c, 0, 81, 64
2, 20272, Note_on_c, 0, 77, 64
2, 20287, Note_on_c, 0, 81, 0
2, 20287, Note_on_c, 0, 77, 0
2, 20288, Note_on_c, 0, 79, 64
2, 20288, Note_on_c, 0, 76, 64
2, 20303, Note_on_c, 0, 79, 0
2, 20303, Note_on_c, 0, 76, 0
2, 20304, Note_on_c, 0, 77, 64
2, 20304, Note_on_c, 0, 74, 64
2, 20311, Note_on_c, 0, 77, 0
2, 20311, Note_on_c, 0, 74, 0
2, 20320, Note_on_c, 0, 77, 64
2, 20320, Note_on_c, 0, 74, 64
2, 20335, Note_on_c, 0, 77, 0
2, 20335, Note_on_c, 0, 74, 0
2, 20336, Note_on_c, 0, 76, 64
2, 20336, Note_on_c, 0, 72, 64
2, 20351, Note_on_c, 0, 76, 0
2, 20351, Note_on_c, 0, 72, 0
2, 20352, Note_on_c, 0, 74, 64
2, 20352, Note_on_c, 0, 71, 64
2, 20441, Note_on_c, 0, 74, 0
2, 20441, Note_on_c, 0, 71, 0
2, 20448, Note_on_c, 0, 76, 64
2, 20463, Note_on_c, 0, 76, 0
2, 20464, Note_on_c, 0, 79, 64
2, 20479, Note_on_c, 0, 79, 0
2, 20480, Note_on_c, 0, 77, 64
2, 20495, Note_on_c, 0, 77, 0
2, 20496, Note_on_c, 0, 76, 64
2, 20511, Note_on_c, 0, 76, 0
2, 20512, Note_on_c, 0, 82, 64
2, 20527, Note_on_c, 0, 82, 0
2, 20528, Note_on_c, 0, 81, 64
2, 20543, Note_on_c, 0, 81, 0
2, 20544, Note_on_c, 0, 79, 64
2, 20559, Note_on_c, 0, 79, 0
2, 20560, Note_on_c, 0, 86, 64
2, 20575, Note_on_c, 0, 86, 0
2, 20576, Note_on_c, 0, 84, 64
2, 20591, Note_on_c, 0, 84, 0
2, 20592, Note_on_c, 0, 82, 64
2, 20607, Note_on_c, 0, 82, 0
2, 20608, Note_on_c, 0, 81, 64
2, 20623, Note_on_c, 0, 81, 0
2, 20624, Note_on_c, 0, 79, 64
2, 20639, Note_on_c, 0, 79, 0
2, 20640, Note_on_c, 0, 77, 64
2, 20655, Note_on_c, 0, 77, 0
2, 20656, Note_on_c, 0, 76, 64
2, 20671, Note_on_c, 0, 76, 0
2, 20672, Note_on_c, 0, 74, 64
2, 20687, Note_on_c, 0, 74, 0
2, 20688, Note_on_c, 0, 72, 64
2, 20703, Note_on_c, 0, 72, 0
2, 20704, Note_on_c, 0, 74, 64
2, 20719, Note_on_c, 0, 74, 0
2, 20720, Note_on_c, 0, 70, 64
2, 20735, Note_on_c, 0, 70, 0
2, 20736, Note_on_c, 0, 69, 64
2, 20751, Note_on_c, 0, 69, 0
2, 20752, Note_on_c, 0, 81, 64
2, 20767, Note_on_c, 0, 81, 0
2, 20768, Note_on_c, 0, 79, 64
2, 20783, Note_on_c, 0, 79, 0
2, 20784, Note_on_c, 0, 77, 64
2, 20799, Note_on_c, 0, 77, 0
2, 20800, Note_on_c, 0, 76, 64
2, 20815, Note_on_c, 0, 76, 0
2, 20816, Note_on_c, 0, 74, 64
2, 20831, Note_on_c, 0, 74, 0
2, 20832, Note_on_c, 0, 73, 64
2, 20847, Note_on_c, 0, 73, 0
2, 20848, Note_on_c, 0, 82, 64
2, 20863, Note_on_c, 0, 82, 0
2, 20864, Note_on_c, 0, 81, 64
2, 20879, Note_on_c, 0, 81, 0
2, 20880, Note_on_c, 0, 79, 64
2, 20895, Note_on_c, 0, 79, 0
2, 20896, Note_on_c, 0, 88, 64
2, 20911, Note_on_c, 0, 88, 0
2, 20912, Note_on_c, 0, 86, 64
2, 20927, Note_on_c, 0, 86, 0
2, 20928, Note_on_c, 0, 85, 64
2, 20943, Note_on_c, 0, 85, 0
2, 20944, Note_on_c, 0, 82, 64
2, 20959, Note_on_c, 0, 82, 0
2, 20960, Note_on_c, 0, 81, 64
2, 20975, Note_on_c, 0, 81, 0
2, 20976, Note_on_c, 0, 79, 64
2, 20991, Note_on_c, 0, 79, 0
2, 20992, Note_on_c, 0, 77, 64
2, 21007, Note_on_c, 0, 77, 0
2, 21008, Note_on_c, 0, 76, 64
2, 21023, Note_on_c, 0, 76, 0
2, 21024, Note_on_c, 0, 74, 64
2, 21039, Note_on_c, 0, 74, 0
2, 21040, Note_on_c, 0, 81, 64
2, 21055, Note_on_c, 0, 81, 0
2, 21056, Note_on_c, 0, 79, 64
2, 21071, Note_on_c, 0, 79, 0
2, 21072, Note_on_c, 0, 77, 64
2, 21087, Note_on_c, 0, 77, 0
2, 21088, Note_on_c, 0, 76, 64
2, 21103, Note_on_c, 0, 76, 0
2, 21104, Note_on_c, 0, 74, 64
2, 21119, Note_on_c, 0, 74, 0
2, 21120, Note_on_c, 0, 73, 64
2, 21135, Note_on_c, 0, 73, 0
2, 21136, Note_on_c, 0, 82, 64
2, 21151, Note_on_c, 0, 82, 0
2, 21152, Note_on_c, 0, 81, 64
2, 21167, Note_on_c, 0, 81, 0
2, 21168, Note_on_c, 0, 79, 64
2, 21183, Note_on_c, 0, 79, 0
2, 21184, Note_on_c, 0, 88, 64
2, 21199, Note_on_c, 0, 88, 0
2, 21200, Note_on_c, 0, 86, 64
2, 21215, Note_on_c, 0, 86, 0
2, 21216, Note_on_c, 0, 85, 64
2, 21231, Note_on_c, 0, 85, 0
2, 21232, Note_on_c, 0, 82, 64
2, 21247, Note_on_c, 0, 82, 0
2, 21248, Note_on_c, 0, 81, 64
2, 21263, Note_on_c, 0, 81, 0
2, 21264, Note_on_c, 0, 79, 64
2, 21279, Note_on_c, 0, 79, 0
2, 21280, Note_on_c, 0, 77, 64
2, 21295, Note_on_c, 0, 77, 0
2, 21296, Note_on_c, 0, 76, 64
2, 21311, Note_on_c, 0, 76, 0
2, 21312, Note_on_c, 0, 75, 64
2, 21327, Note_on_c, 0, 75, 0
2, 21328, Note_on_c, 0, 84, 64
2, 21343, Note_on_c, 0, 84, 0
2, 21344, Note_on_c, 0, 83, 64
2, 21359, Note_on_c, 0, 83, 0
2, 21360, Note_on_c, 0, 81, 64
2, 21375, Note_on_c, 0, 81, 0
2, 21376, Note_on_c, 0, 79, 64
2, 21391, Note_on_c, 0, 79, 0
2, 21392, Note_on_c, 0, 78, 64
2, 21407, Note_on_c, 0, 78, 0
2, 21408, Note_on_c, 0, 76, 64
2, 21423, Note_on_c, 0, 76, 0
2, 21424, Note_on_c, 0, 75, 64
2, 21439, Note_on_c, 0, 75, 0
2, 21440, Note_on_c, 0, 81, 64
2, 21455, Note_on_c, 0, 81, 0
2, 21456, Note_on_c, 0, 79, 64
2, 21471, Note_on_c, 0, 79, 0
2, 21472, Note_on_c, 0, 78, 64
2, 21487, Note_on_c, 0, 78, 0
2, 21488, Note_on_c, 0, 84, 64
2, 21503, Note_on_c, 0, 84, 0
2, 21504, Note_on_c, 0, 83, 64
2, 21519, Note_on_c, 0, 83, 0
2, 21520, Note_on_c, 0, 81, 64
2, 21535, Note_on_c, 0, 81, 0
2, 21536, Note_on_c, 0, 79, 64
2, 21551, Note_on_c, 0, 79, 0
2, 21552, Note_on_c, 0, 78, 64
2, 21567, Note_on_c, 0, 78, 0
2, 21568, Note_on_c, 0, 76, 64
2, 21583, Note_on_c, 0, 76, 0
2, 21584, Note_on_c, 0, 75, 64
2, 21599, Note_on_c, 0, 75, 0
2, 21600, Note_on_c, 0, 76, 64
2, 21615, Note_on_c, 0, 76, 0
2, 21616, Note_on_c, 0, 83, 64
2, 21631, Note_on_c, 0, 83, 0
2, 21632, Note_on_c, 0, 81, 64
2, 21647, Note_on_c, 0, 81, 0
2, 21648, Note_on_c, 0, 79, 64
2, 21663, Note_on_c, 0, 79, 0
2, 21664, Note_on_c, 0, 78, 64
2, 21679, Note_on_c, 0, 78, 0
2, 21680, Note_on_c, 0, 76, 64
2, 21695, Note_on_c, 0, 76, 0
2, 21696, Note_on_c, 0, 77, 64
2, 21711, Note_on_c, 0, 77, 0
2, 21712, Note_on_c, 0, 86, 64
2, 21727, Note_on_c, 0, 86, 0
2, 21728, Note_on_c, 0, 84, 64
2, 21743, Note_on_c, 0, 84, 0
2, 21744, Note_on_c, 0, 83, 64
2, 21759, Note_on_c, 0, 83, 0
2, 21760, Note_on_c, 0, 81, 64
2, 21775, Note_on_c, 0, 81, 0
2, 21776, Note_on_c, 0, 79, 64
2, 21791, Note_on_c, 0, 79, 0
2, 21792, Note_on_c, 0, 77, 64
2, 21807, Note_on_c, 0, 77, 0
2, 21808, Note_on_c, 0, 89, 64
2, 21808, Note_on_c, 0, 86, 64
2, 21823, Note_on_c, 0, 89, 0
2, 21823, Note_on_c, 0, 86, 0
2, 21824, Note_on_c, 0, 88, 64
2, 21824, Note_on_c, 0, 84, 64
2, 21839, Note_on_c, 0, 88, 0
2, 21839, Note_on_c, 0, 84, 0
2, 21840, Note_on_c, 0, 86, 64
2, 21840, Note_on_c, 0, 83, 64
2, 21855, Note_on_c, 0, 86, 0
2, 21855, Note_on_c, 0, 83, 0
2, 21856, Note_on_c, 0, 86, 64
2, 21856, Note_on_c, 0, 83, 64
2, 21871, Note_on_c, 0, 86, 0
2, 21871, Note_on_c, 0, 83, 0
2, 21872, Note_on_c, 0, 84, 64
2, 21872, Note_on_c, 0, 81, 64
2, 21887, Note_on_c, 0, 84, 0
2, 21887, Note_on_c, 0, 81, 0
2, 21888, Note_on_c, 0, 83, 64
2, 21888, Note_on_c, 0, 79, 64
2, 21977, Note_on_c, 0, 83, 0
2, 21977, Note_on_c, 0, 79, 0
2, 21984, Note_on_c, 0, 83, 64
2, 21984, Note_on_c, 0, 79, 64
2, 21999, Note_on_c, 0, 83, 0
2, 21999, Note_on_c, 0, 79, 0
2, 22000, Note_on_c, 0, 89, 64
2, 22000, Note_on_c, 0, 86, 64
2, 22015, Note_on_c, 0, 89, 0
2, 22015, Note_on_c, 0, 86, 0
2, 22016, Note_on_c, 0, 88, 64
2, 22016, Note_on_c, 0, 84, 64
2, 22031, Note_on_c, 0, 88, 0
2, 22031, Note_on_c, 0, 84, 0
2, 22032, Note_on_c, 0, 86, 64
2, 22032, Note_on_c, 0, 83, 64
2, 22047, Note_on_c, 0, 86, 0
2, 22047, Note_on_c, 0, 83, 0
2, 22048, Note_on_c, 0, 86, 64
2, 22048, Note_on_c, 0, 83, 64
2, 22063, Note_on_c, 0, 86, 0
2, 22063, Note_on_c, 0, 83, 0
2, 22064, Note_on_c, 0, 84, 64
2, 22064, Note_on_c, 0, 81, 64
2, 22079, Note_on_c, 0, 84, 0
2, 22079, Note_on_c, 0, 81, 0
2, 22080, Note_on_c, 0, 83, 64
2, 22080, Note_on_c, 0, 79, 64
2, 22169, Note_on_c, 0, 83, 0
2, 22169, Note_on_c, 0, 79, 0
2, 22192, Note_on_c, 0, 79, 64
2, 22207, Note_on_c, 0, 79, 0
2, 22208, Note_on_c, 0, 81, 64
2, 22223, Note_on_c, 0, 81, 0
2, 22224, Note_on_c, 0, 83, 64
2, 22231, Note_on_c, 0, 83, 0
2, 22240, Note_on_c, 0, 83, 64
2, 22255, Note_on_c, 0, 83, 0
2, 22256, Note_on_c, 0, 84, 64
2, 22271, Note_on_c, 0, 84, 0
2, 22272, Note_on_c, 0, 86, 64
2, 22287, Note_on_c, 0, 86, 0
2, 22288, Note_on_c, 0, 83, 64
2, 22303, Note_on_c, 0, 83, 0
2, 22304, Note_on_c, 0, 79, 64
2, 22319, Note_on_c, 0, 79, 0
2, 22320, Note_on_c, 0, 86, 64
2, 22335, Note_on_c, 0, 86, 0
2, 22336, Note_on_c, 0, 83, 64
2, 22351, Note_on_c, 0, 83, 0
2, 22352, Note_on_c, 0, 79, 64
2, 22367, Note_on_c, 0, 79, 0
2, 22368, Note_on_c, 0, 87, 64
2, 22383, Note_on_c, 0, 87, 0
2, 22384, Note_on_c, 0, 84, 64
2, 22399, Note_on_c, 0, 84, 0
2, 22400, Note_on_c, 0, 79, 64
2, 22415, Note_on_c, 0, 79, 0
2, 22416, Note_on_c, 0, 87, 64
2, 22431, Note_on_c, 0, 87, 0
2, 22432, Note_on_c, 0, 84, 64
2, 22447, Note_on_c, 0, 84, 0
2, 22448, Note_on_c, 0, 79, 64
2, 22463, Note_on_c, 0, 79, 0
2, 22480, Note_on_c, 0, 79, 64
2, 22495, Note_on_c, 0, 79, 0
2, 22496, Note_on_c, 0, 81, 64
2, 22511, Note_on_c, 0, 81, 0
2, 22512, Note_on_c, 0, 83, 64
2, 22519, Note_on_c, 0, 83, 0
2, 22528, Note_on_c, 0, 83, 64
2, 22543, Note_on_c, 0, 83, 0
2, 22544, Note_on_c, 0, 84, 64
2, 22559, Note_on_c, 0, 84, 0
2, 22560, Note_on_c, 0, 86, 64
2, 22575, Note_on_c, 0, 86, 0
2, 22576, Note_on_c, 0, 83, 64
2, 22591, Note_on_c, 0, 83, 0
2, 22592, Note_on_c, 0, 79, 64
2, 22607, Note_on_c, 0, 79, 0
2, 22608, Note_on_c, 0, 86, 64
2, 22623, Note_on_c, 0, 86, 0
2, 22624, Note_on_c, 0, 83, 64
2, 22639, Note_on_c, 0, 83, 0
2, 22640, Note_on_c, 0, 79, 64
2, 22655, Note_on_c, 0, 79, 0
2, 22656, Note_on_c, 0, 87, 64
2, 22671, Note_on_c, 0, 87, 0
2, 22672, Note_on_c, 0, 84, 64
2, 22687, Note_on_c, 0, 84, 0
2, 22688, Note_on_c, 0, 79, 64
2, 22703, Note_on_c, 0, 79, 0
2, 22704, Note_on_c, 0, 87, 64
2, 22719, Note_on_c, 0, 87, 0
2, 22720, Note_on_c, 0, 81, 64
2, 22735, Note_on_c, 0, 81, 0
2, 22736, Note_on_c, 0, 78, 64
2, 22751, Note_on_c, 0, 78, 0
2, 22752, Note_on_c, 0, 86, 64
2, 22767, Note_on_c, 0, 86, 0
2, 22768, Note_on_c, 0, 80, 64
2, 22783, Note_on_c, 0, 80, 0
2, 22784, Note_on_c, 0, 77, 64
2, 22799, Note_on_c, 0, 77, 0
2, 22800, Note_on_c, 0, 85, 64
2, 22815, Note_on_c, 0, 85, 0
2, 22816, Note_on_c, 0, 79, 64
2, 22831, Note_on_c, 0, 79, 0
2, 22832, Note_on_c, 0, 76, 64
2, 22847, Note_on_c, 0, 76, 0
2, 22848, Note_on_c, 0, 84, 64
2, 22863, Note_on_c, 0, 84, 0
2, 22864, Note_on_c, 0, 78, 64
2, 22879, Note_on_c, 0, 78, 0
2, 22880, Note_on_c, 0, 75, 64
2, 22895, Note_on_c, 0, 75, 0
2, 22896, Note_on_c, 0, 84, 64
2, 22911, Note_on_c, 0, 84, 0
2, 22912, Note_on_c, 0, 79, 64
2, 22927, Note_on_c, 0, 79, 0
2, 22928, Note_on_c, 0, 75, 64
2, 22943, Note_on_c, 0, 75, 0
2, 22944, Note_on_c, 0, 84, 64
2, 22959, Note_on_c, 0, 84, 0
2, 22960, Note_on_c, 0, 81, 64
2, 22975, Note_on_c, 0, 81, 0
2, 22976, Note_on_c, 0, 75, 64
2, 22991, Note_on_c, 0, 75, 0
2, 22992, Note_on_c, 0, 84, 64
2, 23007, Note_on_c, 0, 84, 0
2, 23008, Note_on_c, 0, 81, 64
2, 23023, Note_on_c, 0, 81, 0
2, 23024, Note_on_c, 0, 75, 64
2, 23039, Note_on_c, 0, 75, 0
2, 23040, Note_on_c, 0, 84, 64
2, 23055, Note_on_c, 0, 84, 0
2, 23056, Note_on_c, 0, 79, 64
2, 23071, Note_on_c, 0, 79, 0
2, 23072, Note_on_c, 0, 76, 64
2, 23087, Note_on_c, 0, 76, 0
2, 23088, Note_on_c, 0, 84, 64
2, 23103, Note_on_c, 0, 84, 0
2, 23104, Note_on_c, 0, 79, 64
2, 23119, Note_on_c, 0, 79, 0
2, 23120, Note_on_c, 0, 76, 64
2, 23135, Note_on_c, 0, 76, 0
2, 23136, Note_on_c, 0, 84, 64
2, 23151, Note_on_c, 0, 84, 0
2, 23152, Note_on_c, 0, 79, 64
2, 23167, Note_on_c, 0, 79, 0
2, 23168, Note_on_c, 0, 76, 64
2, 23183, Note_on_c, 0, 76, 0
2, 23184, Note_on_c, 0, 84, 64
2, 23199, Note_on_c, 0, 84, 0
2, 23200, Note_on_c, 0, 79, 64
2, 23215, Note_on_c, 0, 79, 0
2, 23216, Note_on_c, 0, 76, 64
2, 23231, Note_on_c, 0, 76, 0
2, 23232, Note_on_c, 0, 84, 64
2, 23321, Note_on_c, 0, 84, 0
2, 23328, Note_on_c, 0, 86, 64
2, 23328, Note_on_c, 0, 76, 64
2, 23339, Note_on_c, 0, 86, 0
2, 23339, Note_on_c, 0, 76, 0
2, 23339, Note_on_c, 0, 74, 64
2, 23350, Note_on_c, 0, 74, 0
2, 23350, Note_on_c, 0, 76, 64
2, 23361, Note_on_c, 0, 76, 0
2, 23361, Note_on_c, 0, 74, 64
2, 23372, Note_on_c, 0, 74, 0
2, 23372, Note_on_c, 0, 76, 64
2, 23383, Note_on_c, 0, 76, 0
2, 23383, Note_on_c, 0, 74, 64
2, 23394, Note_on_c, 0, 74, 0
2, 23394, Note_on_c, 0, 76, 64
2, 23405, Note_on_c, 0, 76, 0
2, 23405, Note_on_c, 0, 74, 64
2, 23416, Note_on_c, 0, 74, 0
2, 23416, Note_on_c, 0, 76, 64
2, 23426, Note_on_c, 0, 76, 0
2, 23426, Note_on_c, 0, 74, 64
2, 23436, Note_on_c, 0, 74, 0
2, 23436, Note_on_c, 0, 76, 64
2, 23446, Note_on_c, 0, 76, 0
2, 23446, Note_on_c, 0, 74, 64
2, 23456, Note_on_c, 0, 74, 0
2, 23456, Note_on_c, 0, 76, 64
2, 23466, Note_on_c, 0, 76, 0
2, 23466, Note_on_c, 0, 74, 64
2, 23476, Note_on_c, 0, 74, 0
2, 23476, Note_on_c, 0, 76, 64
2, 23486, Note_on_c, 0, 76, 0
2, 23486, Note_on_c, 0, 74, 64
2, 23496, Note_on_c, 0, 74, 0
2, 23496, Note_on_c, 0, 76, 64
2, 23506, Note_on_c, 0, 76, 0
2, 23506, Note_on_c, 0, 74, 64
2, 23516, Note_on_c, 0, 74, 0
2, 23516, Note_on_c, 0, 76, 64
2, 23526, Note_on_c, 0, 76, 0
2, 23526, Note_on_c, 0, 74, 64
2, 23536, Note_on_c, 0, 74, 0
2, 23536, Note_on_c, 0, 76, 64
2, 23546, Note_on_c, 0, 76, 0
2, 23546, Note_on_c, 0, 74, 64
2, 23556, Note_on_c, 0, 74, 0
2, 23556, Note_on_c, 0, 76, 64
2, 23566, Note_on_c, 0, 76, 0
2, 23566, Note_on_c, 0, 74, 64
2, 23576, Note_on_c, 0, 74, 0
2, 23576, Note_on_c, 0, 76, 64
2, 23586, Note_on_c, 0, 76, 0
2, 23586, Note_on_c, 0, 74, 64
2, 23596, Note_on_c, 0, 74, 0
2, 23596, Note_on_c, 0, 72, 64
2, 23606, Note_on_c, 0, 72, 0
2, 23606, Note_on_c, 0, 74, 64
2, 23616, Note_on_c, 0, 74, 0
2, 23616, Note_on_c, 0, 72, 64
2, 23705, Note_on_c, 0, 72, 0
2, 23728, Note_on_c, 0, 79, 64
2, 23743, Note_on_c, 0, 79, 0
2, 23744, Note_on_c, 0, 77, 64
2, 23759, Note_on_c, 0, 77, 0
2, 23760, Note_on_c, 0, 76, 64
2, 23775, Note_on_c, 0, 76, 0
2, 23776, Note_on_c, 0, 74, 64
2, 23791, Note_on_c, 0, 74, 0
2, 23792, Note_on_c, 0, 72, 64
2, 23807, Note_on_c, 0, 72, 0
2, 23808, Note_on_c, 0, 70, 64
2, 23823, Note_on_c, 0, 70, 0
2, 23824, Note_on_c, 0, 69, 64
2, 23839, Note_on_c, 0, 69, 0
2, 23840, Note_on_c, 0, 67, 64
2, 23855, Note_on_c, 0, 67, 0
2, 23856, Note_on_c, 0, 65, 64
2, 23871, Note_on_c, 0, 65, 0
2, 23872, Note_on_c, 0, 64, 64
2, 23887, Note_on_c, 0, 64, 0
2, 23888, Note_on_c, 0, 70, 64
2, 23903, Note_on_c, 0, 70, 0
2, 23904, Note_on_c, 0, 69, 64
2, 23919, Note_on_c, 0, 69, 0
2, 23920, Note_on_c, 0, 84, 64
2, 23935, Note_on_c, 0, 84, 0
2, 23936, Note_on_c, 0, 82, 64
2, 23951, Note_on_c, 0, 82, 0
2, 23952, Note_on_c, 0, 81, 64
2, 23967, Note_on_c, 0, 81, 0
2, 23968, Note_on_c, 0, 79, 64
2, 23983, Note_on_c, 0, 79, 0
2, 23984, Note_on_c, 0, 77, 64
2, 23999, Note_on_c, 0, 77, 0
2, 24000, Note_on_c, 0, 76, 64
2, 24015, Note_on_c, 0, 76, 0
2, 24016, Note_on_c, 0, 74, 64
2, 24031, Note_on_c, 0, 74, 0
2, 24032, Note_on_c, 0, 72, 64
2, 24047, Note_on_c, 0, 72, 0
2, 24048, Note_on_c, 0, 70, 64
2, 24063, Note_on_c, 0, 70, 0
2, 24064, Note_on_c, 0, 69, 64
2, 24079, Note_on_c, 0, 69, 0
2, 24080, Note_on_c, 0, 67, 64
2, 24095, Note_on_c, 0, 67, 0
2, 24096, Note_on_c, 0, 65, 64
2, 24111, Note_on_c, 0, 65, 0
2, 24112, Note_on_c, 0, 64, 64
2, 24127, Note_on_c, 0, 64, 0
2, 24128, Note_on_c, 0, 62, 64
2, 24143, Note_on_c, 0, 62, 0
2, 24144, Note_on_c, 0, 60, 64
2, 24159, Note_on_c, 0, 60, 0
2, 24160, Note_on_c, 0, 59, 64
2, 24175, Note_on_c, 0, 59, 0
2, 24176, Note_on_c, 0, 65, 64
2, 24191, Note_on_c, 0, 65, 0
2, 24192, Note_on_c, 0, 65, 64
2, 24192, Note_on_c, 0, 59, 64
2, 24288, Note_on_c, 0, 65, 0
2, 24288, Note_on_c, 0, 59, 0
2, 24288, Note_on_c, 0, 64, 64
2, 24288, Note_on_c, 0, 60, 64
2, 24288, Note_on_c, 0, 55, 64
2, 24465, Note_on_c, 0, 64, 0
2, 24465, Note_on_c, 0, 60, 0
2, 24465, Note_on_c, 0, 55, 0
2, 24480, End_track
3, 0, Start_track
3, 0, Program_c, 0, 0
3, 0, Control_c, 0, 7, 127
3, 0, Control_c, 0, 10, 64
3, 0, Note_on_c, 0, 64, 64
3, 6, Note_on_c, 0, 67, 64
3, 24, Note_on_c, 0, 67, 0
3, 78, Note_on_c, 0, 64, 0
3, 288, Note_on_c, 0, 72, 64
3, 322, Note_on_c, 0, 72, 0
3, 324, Note_on_c, 0, 67, 64
3, 336, Note_on_c, 0, 67, 0
3, 336, Note_on_c, 0, 72, 64
3, 370, Note_on_c, 0, 72, 0
3, 372, Note_on_c, 0, 67, 64
3, 384, Note_on_c, 0, 67, 0
3, 384, Note_on_c, 0, 74, 64
3, 418, Note_on_c, 0, 74, 0
3, 420, Note_on_c, 0, 67, 64
3, 432, Note_on_c, 0, 67, 0
3, 432, Note_on_c, 0, 72, 64
3, 466, Note_on_c, 0, 72, 0
3, 468, Note_on_c, 0, 67, 64
3, 480, Note_on_c, 0, 67, 0
3, 480, Note_on_c, 0, 71, 64
3, 525, Note_on_c, 0, 71, 0
3, 1440, Note_on_c, 0, 64, 64
3, 1446, Note_on_c, 0, 67, 64
3, 1452, Note_on_c, 0, 72, 64
3, 1542, Note_on_c, 0, 72, 0
3, 1542, Note_on_c, 0, 67, 0
3, 1542, Note_on_c, 0, 64, 0
3, 1728, Note_on_c, 0, 72, 64
3, 1762, Note_on_c, 0, 72, 0
3, 1764, Note_on_c, 0, 67, 64
3, 1776, Note_on_c, 0, 67, 0
3, 1776, Note_on_c, 0, 72, 64
3, 1810, Note_on_c, 0, 72, 0
3, 1812, Note_on_c, 0, 67, 64
3, 1824, Note_on_c, 0, 67, 0
3, 1824, Note_on_c, 0, 74, 64
3, 1858, Note_on_c, 0, 74, 0
3, 1860, Note_on_c, 0, 67, 64
3, 1872, Note_on_c, 0, 67, 0
3, 1872, Note_on_c, 0, 72, 64
3, 1906, Note_on_c, 0, 72, 0
3, 1908, Note_on_c, 0, 67, 64
3, 1920, Note_on_c, 0, 67, 0
3, 1920, Note_on_c, 0, 71, 64
3, 1965, Note_on_c, 0, 71, 0
3, 2016, Note_on_c, 0, 74, 64
3, 2022, Note_on_c, 0, 74, 0
3, 2022, Note_on_c, 0, 73, 64
3, 2028, Note_on_c, 0, 73, 0
3, 2028, Note_on_c, 0, 74, 64
3, 2085, Note_on_c, 0, 74, 0
3, 2088, Note_on_c, 0, 71, 64
3, 2111, Note_on_c, 0, 71, 0
3, 2112, Note_on_c, 0, 83, 64
3, 2119, Note_on_c, 0, 83, 0
3, 2128, Note_on_c, 0, 86, 64
3, 2135, Note_on_c, 0, 86, 0
3, 2144, Note_on_c, 0, 84, 64
3, 2151, Note_on_c, 0, 84, 0
3, 2160, Note_on_c, 0, 83, 64
3, 2167, Note_on_c, 0, 83, 0
3, 2176, Note_on_c, 0, 81, 64
3, 2183, Note_on_c, 0, 81, 0
3, 2192, Note_on_c, 0, 79, 64
3, 2199, Note_on_c, 0, 79, 0
3, 2208, Note_on_c, 0, 78, 64
3, 2215, Note_on_c, 0, 78, 0
3, 2224, Note_on_c, 0, 76, 64
3, 2231, Note_on_c, 0, 76, 0
3, 2240, Note_on_c, 0, 74, 64
3, 2247, Note_on_c, 0, 74, 0
3, 2256, Note_on_c, 0, 72, 64
3, 2263, Note_on_c, 0, 72, 0
3, 2272, Note_on_c, 0, 71, 64
3, 2279, Note_on_c, 0, 71, 0
3, 2288, Note_on_c, 0, 69, 64
3, 2295, Note_on_c, 0, 69, 0
3, 2304, Note_on_c, 0, 67, 64
3, 2393, Note_on_c, 0, 67, 0
3, 2400, Note_on_c, 0, 66, 64
3, 2406, Note_on_c, 0, 66, 0
3, 2406, Note_on_c, 0, 67, 64
3, 2412, Note_on_c, 0, 67, 0
3, 2412, Note_on_c, 0, 66, 64
3, 2541, Note_on_c, 0, 66, 0
3, 2544, Note_on_c, 0, 67, 64
3, 2549, Note_on_c, 0, 67, 0
3, 2549, Note_on_c, 0, 69, 64
3, 2554, Note_on_c, 0, 69, 0
3, 2554, Note_on_c, 0, 71, 64
3, 2559, Note_on_c, 0, 71, 0
3, 2559, Note_on_c, 0, 72, 64
3, 2564, Note_on_c, 0, 72, 0
3, 2564, Note_on_c, 0, 74, 64
3, 2569, Note_on_c, 0, 74, 0
3, 2569, Note_on_c, 0, 76, 64
3, 2574, Note_on_c, 0, 76, 0
3, 2574, Note_on_c, 0, 78, 64
3, 2579, Note_on_c, 0, 78, 0
3, 2579, Note_on_c, 0, 79, 64
3, 2584, Note_on_c, 0, 79, 0
3, 2584, Note_on_c, 0, 81, 64
3, 2588, Note_on_c, 0, 81, 0
3, 2588, Note_on_c, 0, 83, 64
3, 2592, Note_on_c, 0, 83, 0
3, 2592, Note_on_c, 0, 84, 64
3, 2659, Note_on_c, 0, 84, 0
3, 2664, Note_on_c, 0, 81, 64
3, 2676, Note_on_c, 0, 81, 0
3, 2676, Note_on_c, 0, 83, 64
3, 2688, Note_on_c, 0, 83, 0
3, 2688, Note_on_c, 0, 84, 64
3, 2695, Note_on_c, 0, 84, 0
3, 2704, Note_on_c, 0, 88, 64
3, 2720, Note_on_c, 0, 88, 0
3, 2720, Note_on_c, 0, 86, 64
3, 2735, Note_on_c, 0, 86, 0
3, 2736, Note_on_c, 0, 84, 64
3, 2743, Note_on_c, 0, 84, 0
3, 2752, Note_on_c, 0, 83, 64
3, 2768, Note_on_c, 0, 83, 0
3, 2768, Note_on_c, 0, 81, 64
3, 2783, Note_on_c, 0, 81, 0
3, 2784, Note_on_c, 0, 79, 64
3, 2791, Note_on_c, 0, 79, 0
3, 2800, Note_on_c, 0, 78, 64
3, 2816, Note_on_c, 0, 78, 0
3, 2816, Note_on_c, 0, 76, 64
3, 2831, Note_on_c, 0, 76, 0
3, 2832, Note_on_c, 0, 74, 64
3, 2847, Note_on_c, 0, 74, 0
3, 2848, Note_on_c, 0, 72, 64
3, 2863, Note_on_c, 0, 72, 0
3, 2864, Note_on_c, 0, 81, 64
3, 2879, Note_on_c, 0, 81, 0
3, 3264, Note_on_c, 0, 74, 64
3, 3268, Note_on_c, 0, 74, 0
3, 3268, Note_on_c, 0, 72, 64
3, 3280, Note_on_c, 0, 72, 0
3, 3280, Note_on_c, 0, 71, 64
3, 3295, Note_on_c, 0, 71, 0
3, 3296, Note_on_c, 0, 72, 64
3, 3311, Note_on_c, 0, 72, 0
3, 3312, Note_on_c, 0, 76, 64
3, 3327, Note_on_c, 0, 76, 0
3, 3328, Note_on_c, 0, 74, 64
3, 3343, Note_on_c, 0, 74, 0
3, 3344, Note_on_c, 0, 72, 64
3, 3359, Note_on_c, 0, 72, 0
3, 3360, Note_on_c, 0, 72, 64
3, 3375, Note_on_c, 0, 72, 0
3, 3376, Note_on_c, 0, 70, 64
3, 3391, Note_on_c, 0, 70, 0
3, 3392, Note_on_c, 0, 71, 64
3, 3407, Note_on_c, 0, 71, 0
3, 3408, Note_on_c, 0, 74, 64
3, 3423, Note_on_c, 0, 74, 0
3, 3424, Note_on_c, 0, 72, 64
3, 3439, Note_on_c, 0, 72, 0
3, 3440, Note_on_c, 0, 71, 64
3, 3455, Note_on_c, 0, 71, 0
3, 3456, Note_on_c, 0, 71, 64
3, 3545, Note_on_c, 0, 71, 0
3, 3552, Note_on_c, 0, 71, 64
3, 3556, Note_on_c, 0, 71, 0
3, 3556, Note_on_c, 0, 69, 64
3, 3568, Note_on_c, 0, 69, 0
3, 3568, Note_on_c, 0, 68, 64
3, 3583, Note_on_c, 0, 68, 0
3, 3584, Note_on_c, 0, 69, 64
3, 3599, Note_on_c, 0, 69, 0
3, 3600, Note_on_c, 0, 72, 64
3, 3615, Note_on_c, 0, 72, 0
3, 3616, Note_on_c, 0, 71, 64
3, 3631, Note_on_c, 0, 71, 0
3, 3632, Note_on_c, 0, 69, 64
3, 3647, Note_on_c, 0, 69, 0
3, 3648, Note_on_c, 0, 69, 64
3, 3663, Note_on_c, 0, 69, 0
3, 3664, Note_on_c, 0, 66, 64
3, 3679, Note_on_c, 0, 66, 0
3, 3680, Note_on_c, 0, 67, 64
3, 3695, Note_on_c, 0, 67, 0
3, 3696, Note_on_c, 0, 71, 64
3, 3711, Note_on_c, 0, 71, 0
3, 3712, Note_on_c, 0, 69, 64
3, 3727, Note_on_c, 0, 69, 0
3, 3728, Note_on_c, 0, 67, 64
3, 3743, Note_on_c, 0, 67, 0
3, 3760, Note_on_c, 0, 67, 64
3, 3775, Note_on_c, 0, 67, 0
3, 3776, Note_on_c, 0, 69, 64
3, 3791, Note_on_c, 0, 69, 0
3, 3792, Note_on_c, 0, 70, 64
3, 3807, Note_on_c, 0, 70, 0
3, 3808, Note_on_c, 0, 69, 64
3, 3823, Note_on_c, 0, 69, 0
3, 3824, Note_on_c, 0, 67, 64
3, 3839, Note_on_c, 0, 67, 0
3, 3856, Note_on_c, 0, 67, 64
3, 3871, Note_on_c, 0, 67, 0
3, 3872, Note_on_c, 0, 69, 64
3, 3887, Note_on_c, 0, 69, 0
3, 3888, Note_on_c, 0, 70, 64
3, 3903, Note_on_c, 0, 70, 0
3, 3904, Note_on_c, 0, 69, 64
3, 3919, Note_on_c, 0, 69, 0
3, 3920, Note_on_c, 0, 67, 64
3, 3935, Note_on_c, 0, 67, 0
3, 3952, Note_on_c, 0, 67, 64
3, 3967, Note_on_c, 0, 67, 0
3, 3968, Note_on_c, 0, 69, 64
3, 3983, Note_on_c, 0, 69, 0
3, 3984, Note_on_c, 0, 70, 64
3, 3999, Note_on_c, 0, 70, 0
3, 4000, Note_on_c, 0, 69, 64
3, 4015, Note_on_c, 0, 69, 0
3, 4016, Note_on_c, 0, 67, 64
3, 4031, Note_on_c, 0, 67, 0
3, 4048, Note_on_c, 0, 66, 64
3, 4063, Note_on_c, 0, 66, 0
3, 4064, Note_on_c, 0, 67, 64
3, 4079, Note_on_c, 0, 67, 0
3, 4080, Note_on_c, 0, 69, 64
3, 4095, Note_on_c, 0, 69, 0
3, 4096, Note_on_c, 0, 67, 64
3, 4111, Note_on_c, 0, 67, 0
3, 4112, Note_on_c, 0, 66, 64
3, 4127, Note_on_c, 0, 66, 0
3, 4144, Note_on_c, 0, 66, 64
3, 4159, Note_on_c, 0, 66, 0
3, 4160, Note_on_c, 0, 67, 64
3, 4175, Note_on_c, 0, 67, 0
3, 4176, Note_on_c, 0, 69, 64
3, 4191, Note_on_c, 0, 69, 0
3, 4192, Note_on_c, 0, 67, 64
3, 4207, Note_on_c, 0, 67, 0
3, 4208, Note_on_c, 0, 66, 64
3, 4223, Note_on_c, 0, 66, 0
3, 4224, Note_on_c, 0, 72, 64
3, 4239, Note_on_c, 0, 72, 0
3, 4240, Note_on_c, 0, 60, 64
3, 4255, Note_on_c, 0, 60, 0
3, 4256, Note_on_c, 0, 62, 64
3, 4271, Note_on_c, 0, 62, 0
3, 4272, Note_on_c, 0, 64, 64
3, 4287, Note_on_c, 0, 64, 0
3, 4288, Note_on_c, 0, 62, 64
3, 4303, Note_on_c, 0, 62, 0
3, 4304, Note_on_c, 0, 60, 64
3, 4319, Note_on_c, 0, 60, 0
3, 6624, Note_on_c, 0, 64, 64
3, 6630, Note_on_c, 0, 67, 64
3, 6648, Note_on_c, 0, 67, 0
3, 6702, Note_on_c, 0, 64, 0
3, 6912, Note_on_c, 0, 72, 64
3, 6946, Note_on_c, 0, 72, 0
3, 6948, Note_on_c, 0, 67, 64
3, 6960, Note_on_c, 0, 67, 0
3, 6960, Note_on_c, 0, 72, 64
3, 6994, Note_on_c, 0, 72, 0
3, 6996, Note_on_c, 0, 67, 64
3, 7008, Note_on_c, 0, 67, 0
3, 7008, Note_on_c, 0, 74, 64
3, 7042, Note_on_c, 0, 74, 0
3, 7044, Note_on_c, 0, 67, 64
3, 7056, Note_on_c, 0, 67, 0
3, 7056, Note_on_c, 0, 72, 64
3, 7090, Note_on_c, 0, 72, 0
3, 7092, Note_on_c, 0, 67, 64
3, 7104, Note_on_c, 0, 67, 0
3, 7104, Note_on_c, 0, 71, 64
3, 7149, Note_on_c, 0, 71, 0
3, 8064, Note_on_c, 0, 64, 64
3, 8070, Note_on_c, 0, 67, 64
3, 8076, Note_on_c, 0, 72, 64
3, 8166, Note_on_c, 0, 72, 0
3, 8166, Note_on_c, 0, 67, 0
3, 8166, Note_on_c, 0, 64, 0
3, 8352, Note_on_c, 0, 72, 64
3, 8386, Note_on_c, 0, 72, 0
3, 8388, Note_on_c, 0, 67, 64
3, 8400, Note_on_c, 0, 67, 0
3, 8400, Note_on_c, 0, 72, 64
3, 8434, Note_on_c, 0, 72, 0
3, 8436, Note_on_c, 0, 67, 64
3, 8448, Note_on_c, 0, 67, 0
3, 8448, Note_on_c, 0, 74, 64
3, 8482, Note_on_c, 0, 74, 0
3, 8484, Note_on_c, 0, 67, 64
3, 8496, Note_on_c, 0, 67, 0
3, 8496, Note_on_c, 0, 72, 64
3, 8530, Note_on_c, 0, 72, 0
3, 8532, Note_on_c, 0, 67, 64
3, 8544, Note_on_c, 0, 67, 0
3, 8544, Note_on_c, 0, 71, 64
3, 8589, Note_on_c, 0, 71, 0
3, 8640, Note_on_c, 0, 74, 64
3, 8646, Note_on_c, 0, 74, 0
3, 8646, Note_on_c, 0, 73, 64
3, 8652, Note_on_c, 0, 73, 0
3, 8652, Note_on_c, 0, 74, 64
3, 8709, Note_on_c, 0, 74, 0
3, 8712, Note_on_c, 0, 71, 64
3, 8735, Note_on_c, 0, 71, 0
3, 8736, Note_on_c, 0, 83, 64
3, 8743, Note_on_c, 0, 83, 0
3, 8752, Note_on_c, 0, 86, 64
3, 8759, Note_on_c, 0, 86, 0
3, 8768, Note_on_c, 0, 84, 64
3, 8775, Note_on_c, 0, 84, 0
3, 8784, Note_on_c, 0, 83, 64
3, 8791, Note_on_c, 0, 83, 0
3, 8800, Note_on_c, 0, 81, 64
3, 8807, Note_on_c, 0, 81, 0
3, 8816, Note_on_c, 0, 79, 64
3, 8823, Note_on_c, 0, 79, 0
3, 8832, Note_on_c, 0, 78, 64
3, 8839, Note_on_c, 0, 78, 0
3, 8848, Note_on_c, 0, 76, 64
3, 8855, Note_on_c, 0, 76, 0
3, 8864, Note_on_c, 0, 74, 64
3, 8871, Note_on_c, 0, 74, 0
3, 8880, Note_on_c, 0, 72, 64
3, 8887, Note_on_c, 0, 72, 0
3, 8896, Note_on_c, 0, 71, 64
3, 8903, Note_on_c, 0, 71, 0
3, 8912, Note_on_c, 0, 69, 64
3, 8919, Note_on_c, 0, 69, 0
3, 8928, Note_on_c, 0, 67, 64
3, 9017, Note_on_c, 0, 67, 0
3, 9024, Note_on_c, 0, 66, 64
3, 9030, Note_on_c, 0, 66, 0
3, 9030, Note_on_c, 0, 67, 64
3, 9036, Note_on_c, 0, 67, 0
3, 9036, Note_on_c, 0, 66, 64
3, 9165, Note_on_c, 0, 66, 0
3, 9168, Note_on_c, 0, 67, 64
3, 9173, Note_on_c, 0, 67, 0
3, 9173, Note_on_c, 0, 69, 64
3, 9178, Note_on_c, 0, 69, 0
3, 9178, Note_on_c, 0, 71, 64
3, 9183, Note_on_c, 0, 71, 0
3, 9183, Note_on_c, 0, 72, 64
3, 9188, Note_on_c, 0, 72, 0
3, 9188, Note_on_c, 0, 74, 64
3, 9193, Note_on_c, 0, 74, 0
3, 9193, Note_on_c, 0, 76, 64
3, 9198, Note_on_c, 0, 76, 0
3, 9198, Note_on_c, 0, 78, 64
3, 9203, Note_on_c, 0, 78, 0
3, 9203, Note_on_c, 0, 79, 64
3, 9208, Note_on_c, 0, 79, 0
3, 9208, Note_on_c, 0, 81, 64
3, 9212, Note_on_c, 0, 81, 0
3, 9212, Note_on_c, 0, 83, 64
3, 9216, Note_on_c, 0, 83, 0
3, 9216, Note_on_c, 0, 84, 64
3, 9283, Note_on_c, 0, 84, 0
3, 9288, Note_on_c, 0, 81, 64
3, 9300, Note_on_c, 0, 81, 0
3, 9300, Note_on_c, 0, 83, 64
3, 9312, Note_on_c, 0, 83, 0
3, 9312, Note_on_c, 0, 84, 64
3, 9319, Note_on_c, 0, 84, 0
3, 9328, Note_on_c, 0, 88, 64
3, 9344, Note_on_c, 0, 88, 0
3, 9344, Note_on_c, 0, 86, 64
3, 9359, Note_on_c, 0, 86, 0
3, 9360, Note_on_c, 0, 84, 64
3, 9367, Note_on_c, 0, 84, 0
3, 9376, Note_on_c, 0, 83, 64
3, 9392, Note_on_c, 0, 83, 0
3, 9392, Note_on_c, 0, 81, 64
3, 9407, Note_on_c, 0, 81, 0
3, 9408, Note_on_c, 0, 79, 64
3, 9415, Note_on_c, 0, 79, 0
3, 9424, Note_on_c, 0, 78, 64
3, 9440, Note_on_c, 0, 78, 0
3, 9440, Note_on_c, 0, 76, 64
3, 9455, Note_on_c, 0, 76, 0
3, 9456, Note_on_c, 0, 74, 64
3, 9471, Note_on_c, 0, 74, 0
3, 9472, Note_on_c, 0, 72, 64
3, 9487, Note_on_c, 0, 72, 0
3, 9488, Note_on_c, 0, 81, 64
3, 9503, Note_on_c, 0, 81, 0
3, 9888, Note_on_c, 0, 74, 64
3, 9892, Note_on_c, 0, 74, 0
3, 9892, Note_on_c, 0, 72, 64
3, 9904, Note_on_c, 0, 72, 0
3, 9904, Note_on_c, 0, 71, 64
3, 9919, Note_on_c, 0, 71, 0
3, 9920, Note_on_c, 0, 72, 64
3, 9935, Note_on_c, 0, 72, 0
3, 9936, Note_on_c, 0, 76, 64
3, 9951, Note_on_c, 0, 76, 0
3, 9952, Note_on_c, 0, 74, 64
3, 9967, Note_on_c, 0, 74, 0
3, 9968, Note_on_c, 0, 72, 64
3, 9983, Note_on_c, 0, 72, 0
3, 9984, Note_on_c, 0, 72, 64
3, 9999, Note_on_c, 0, 72, 0
3, 10000, Note_on_c, 0, 70, 64
3, 10015, Note_on_c, 0, 70, 0
3, 10016, Note_on_c, 0, 71, 64
3, 10031, Note_on_c, 0, 71, 0
3, 10032, Note_on_c, 0, 74, 64
3, 10047, Note_on_c, 0, 74, 0
3, 10048, Note_on_c, 0, 72, 64
3, 10063, Note_on_c, 0, 72, 0
3, 10064, Note_on_c, 0, 71, 64
3, 10079, Note_on_c, 0, 71, 0
3, 10080, Note_on_c, 0, 71, 64
3, 10169, Note_on_c, 0, 71, 0
3, 10176, Note_on_c, 0, 71, 64
3, 10180, Note_on_c, 0, 71, 0
3, 10180, Note_on_c, 0, 69, 64
3, 10192, Note_on_c, 0, 69, 0
3, 10192, Note_on_c, 0, 68, 64
3, 10207, Note_on_c, 0, 68, 0
3, 10208, Note_on_c, 0, 69, 64
3, 10223, Note_on_c, 0, 69, 0
3, 10224, Note_on_c, 0, 72, 64
3, 10239, Note_on_c, 0, 72, 0
3, 10240, Note_on_c, 0, 71, 64
3, 10255, Note_on_c, 0, 71, 0
3, 10256, Note_on_c, 0, 69, 64
3, 10271, Note_on_c, 0, 69, 0
3, 10272, Note_on_c, 0, 69, 64
3, 10287, Note_on_c, 0, 69, 0
3, 10288, Note_on_c, 0, 66, 64
3, 10303, Note_on_c, 0, 66, 0
3, 10304, Note_on_c, 0, 67, 64
3, 10319, Note_on_c, 0, 67, 0
3, 10320, Note_on_c, 0, 71, 64
3, 10335, Note_on_c, 0, 71, 0
3, 10336, Note_on_c, 0, 69, 64
3, 10351, Note_on_c, 0, 69, 0
3, 10352, Note_on_c, 0, 67, 64
3, 10367, Note_on_c, 0, 67, 0
3, 10384, Note_on_c, 0, 67, 64
3, 10399, Note_on_c, 0, 67, 0
3, 10400, Note_on_c, 0, 69, 64
3, 10415, Note_on_c, 0, 69, 0
3, 10416, Note_on_c, 0, 70, 64
3, 10431, Note_on_c, 0, 70, 0
3, 10432, Note_on_c, 0, 69, 64
3, 10447, Note_on_c, 0, 69, 0
3, 10448, Note_on_c, 0, 67, 64
3, 10463, Note_on_c, 0, 67, 0
3, 10480, Note_on_c, 0, 67, 64
3, 10495, Note_on_c, 0, 67, 0
3, 10496, Note_on_c, 0, 69, 64
3, 10511, Note_on_c, 0, 69, 0
3, 10512, Note_on_c, 0, 70, 64
3, 10527, Note_on_c, 0, 70, 0
3, 10528, Note_on_c, 0, 69, 64
3, 10543, Note_on_c, 0, 69, 0
3, 10544, Note_on_c, 0, 67, 64
3, 10559, Note_on_c, 0, 67, 0
3, 10576, Note_on_c, 0, 67, 64
3, 10591, Note_on_c, 0, 67, 0
3, 10592, Note_on_c, 0, 69, 64
3, 10607, Note_on_c, 0, 69, 0
3, 10608, Note_on_c, 0, 70, 64
3, 10623, Note_on_c, 0, 70, 0
3, 10624, Note_on_c, 0, 69, 64
3, 10639, Note_on_c, 0, 69, 0
3, 10640, Note_on_c, 0, 67, 64
3, 10655, Note_on_c, 0, 67, 0
3, 10672, Note_on_c, 0, 66, 64
3, 10687, Note_on_c, 0, 66, 0
3, 10688, Note_on_c, 0, 67, 64
3, 10703, Note_on_c, 0, 67, 0
3, 10704, Note_on_c, 0, 69, 64
3, 10719, Note_on_c, 0, 69, 0
3, 10720, Note_on_c, 0, 67, 64
3, 10735, Note_on_c, 0, 67, 0
3, 10736, Note_on_c, 0, 66, 64
3, 10751, Note_on_c, 0, 66, 0
3, 10768, Note_on_c, 0, 66, 64
3, 10783, Note_on_c, 0, 66, 0
3, 10784, Note_on_c, 0, 67, 64
3, 10799, Note_on_c, 0, 67, 0
3, 10800, Note_on_c, 0, 69, 64
3, 10815, Note_on_c, 0, 69, 0
3, 10816, Note_on_c, 0, 67, 64
3, 10831, Note_on_c, 0, 67, 0
3, 10832, Note_on_c, 0, 66, 64
3, 10847, Note_on_c, 0, 66, 0
3, 10848, Note_on_c, 0, 72, 64
3, 10863, Note_on_c, 0, 72, 0
3, 10864, Note_on_c, 0, 60, 64
3, 10879, Note_on_c, 0, 60, 0
3, 10880, Note_on_c, 0, 62, 64
3, 10895, Note_on_c, 0, 62, 0
3, 10896, Note_on_c, 0, 64, 64
3, 10911, Note_on_c, 0, 64, 0
3, 10912, Note_on_c, 0, 62, 64
3, 10927, Note_on_c, 0, 62, 0
3, 10928, Note_on_c, 0, 60, 64
3, 10943, Note_on_c, 0, 60, 0
3, 16512, Note_on_c, 0, 79, 64
3, 16516, Note_on_c, 0, 79, 0
3, 16516, Note_on_c, 0, 77, 64
3, 16528, Note_on_c, 0, 77, 0
3, 16528, Note_on_c, 0, 76, 64
3, 16543, Note_on_c, 0, 76, 0
3, 16544, Note_on_c, 0, 77, 64
3, 16559, Note_on_c, 0, 77, 0
3, 16560, Note_on_c, 0, 81, 64
3, 16575, Note_on_c, 0, 81, 0
3, 16576, Note_on_c, 0, 79, 64
3, 16591, Note_on_c, 0, 79, 0
3, 16592, Note_on_c, 0, 77, 64
3, 16607, Note_on_c, 0, 77, 0
3, 16608, Note_on_c, 0, 77, 64
3, 16623, Note_on_c, 0, 77, 0
3, 16624, Note_on_c, 0, 75, 64
3, 16639, Note_on_c, 0, 75, 0
3, 16640, Note_on_c, 0, 76, 64
3, 16655, Note_on_c, 0, 76, 0
3, 16656, Note_on_c, 0, 79, 64
3, 16671, Note_on_c, 0, 79, 0
3, 16672, Note_on_c, 0, 77, 64
3, 16687, Note_on_c, 0, 77, 0
3, 16688, Note_on_c, 0, 76, 64
3, 16703, Note_on_c, 0, 76, 0
3, 16704, Note_on_c, 0, 76, 64
3, 16793, Note_on_c, 0, 76, 0
3, 16800, Note_on_c, 0, 76, 64
3, 16804, Note_on_c, 0, 76, 0
3, 16804, Note_on_c, 0, 74, 64
3, 16816, Note_on_c, 0, 74, 0
3, 16816, Note_on_c, 0, 73, 64
3, 16831, Note_on_c, 0, 73, 0
3, 16832, Note_on_c, 0, 74, 64
3, 16847, Note_on_c, 0, 74, 0
3, 16848, Note_on_c, 0, 77, 64
3, 16863, Note_on_c, 0, 77, 0
3, 16864, Note_on_c, 0, 76, 64
3, 16879, Note_on_c, 0, 76, 0
3, 16880, Note_on_c, 0, 74, 64
3, 16895, Note_on_c, 0, 74, 0
3, 16896, Note_on_c, 0, 74, 64
3, 16911, Note_on_c, 0, 74, 0
3, 16912, Note_on_c, 0, 71, 64
3, 16927, Note_on_c, 0, 71, 0
3, 16928, Note_on_c, 0, 72, 64
3, 16943, Note_on_c, 0, 72, 0
3, 16944, Note_on_c, 0, 76, 64
3, 16959, Note_on_c, 0, 76, 0
3, 16960, Note_on_c, 0, 74, 64
3, 16975, Note_on_c, 0, 74, 0
3, 16976, Note_on_c, 0, 72, 64
3, 16991, Note_on_c, 0, 72, 0
3, 17008, Note_on_c, 0, 72, 64
3, 17023, Note_on_c, 0, 72, 0
3, 17024, Note_on_c, 0, 74, 64
3, 17039, Note_on_c, 0, 74, 0
3, 17040, Note_on_c, 0, 75, 64
3, 17055, Note_on_c, 0, 75, 0
3, 17056, Note_on_c, 0, 74, 64
3, 17071, Note_on_c, 0, 74, 0
3, 17072, Note_on_c, 0, 72, 64
3, 17087, Note_on_c, 0, 72, 0
3, 17104, Note_on_c, 0, 72, 64
3, 17119, Note_on_c, 0, 72, 0
3, 17120, Note_on_c, 0, 74, 64
3, 17135, Note_on_c, 0, 74, 0
3, 17136, Note_on_c, 0, 75, 64
3, 17151, Note_on_c, 0, 75, 0
3, 17152, Note_on_c, 0, 74, 64
3, 17167, Note_on_c, 0, 74, 0
3, 17168, Note_on_c, 0, 72, 64
3, 17183, Note_on_c, 0, 72, 0
3, 17200, Note_on_c, 0, 72, 64
3, 17215, Note_on_c, 0, 72, 0
3, 17216, Note_on_c, 0, 74, 64
3, 17231, Note_on_c, 0, 74, 0
3, 17232, Note_on_c, 0, 75, 64
3, 17247, Note_on_c, 0, 75, 0
3, 17248, Note_on_c, 0, 74, 64
3, 17263, Note_on_c, 0, 74, 0
3, 17264, Note_on_c, 0, 72, 64
3, 17279, Note_on_c, 0, 72, 0
3, 17296, Note_on_c, 0, 71, 64
3, 17311, Note_on_c, 0, 71, 0
3, 17312, Note_on_c, 0, 72, 64
3, 17327, Note_on_c, 0, 72, 0
3, 17328, Note_on_c, 0, 74, 64
3, 17343, Note_on_c, 0, 74, 0
3, 17344, Note_on_c, 0, 72, 64
3, 17359, Note_on_c, 0, 72, 0
3, 17360, Note_on_c, 0, 71, 64
3, 17375, Note_on_c, 0, 71, 0
3, 17392, Note_on_c, 0, 71, 64
3, 17407, Note_on_c, 0, 71, 0
3, 17408, Note_on_c, 0, 72, 64
3, 17423, Note_on_c, 0, 72, 0
3, 17424, Note_on_c, 0, 74, 64
3, 17439, Note_on_c, 0, 74, 0
3, 17440, Note_on_c, 0, 72, 64
3, 17455, Note_on_c, 0, 72, 0
3, 17456, Note_on_c, 0, 71, 64
3, 17471, Note_on_c, 0, 71, 0
3, 24480, End_track
4, 0, Start_track
4, 0, Program_c, 1, 0
4, 0, Control_c, 1, 7, 127
4, 0, Control_c, 1, 10, 64
4, 0, Note_on_c, 1, 48, 64
4, 6, Note_on_c, 1, 52, 64
4, 12, Note_on_c, 1, 55, 64
4, 18, Note_on_c, 1, 60, 64
4, 91, Note_on_c, 1, 60, 0
4, 91, Note_on_c, 1, 55, 0
4, 91, Note_on_c, 1, 52, 0
4, 91, Note_on_c, 1, 48, 0
4, 336, Note_on_c, 1, 60, 64
4, 381, Note_on_c, 1, 60, 0
4, 384, Note_on_c, 1, 59, 64
4, 429, Note_on_c, 1, 59, 0
4, 432, Note_on_c, 1, 60, 64
4, 477, Note_on_c, 1, 60, 0
4, 480, Note_on_c, 1, 55, 64
4, 525, Note_on_c, 1, 55, 0
4, 624, Note_on_c, 1, 57, 64
4, 669, Note_on_c, 1, 57, 0
4, 672, Note_on_c, 1, 55, 64
4, 717, Note_on_c, 1, 55, 0
4, 720, Note_on_c, 1, 53, 64
4, 765, Note_on_c, 1, 53, 0
4, 816, Note_on_c, 1, 60, 64
4, 909, Note_on_c, 1, 60, 0
4, 912, Note_on_c, 1, 62, 64
4, 957, Note_on_c, 1, 62, 0
4, 960, Note_on_c, 1, 64, 64
4, 1049, Note_on_c, 1, 64, 0
4, 1056, Note_on_c, 1, 65, 64
4, 1145, Note_on_c, 1, 65, 0
4, 1152, Note_on_c, 1, 65, 64
4, 1241, Note_on_c, 1, 65, 0
4, 1248, Note_on_c, 1, 64, 64
4, 1293, Note_on_c, 1, 64, 0
4, 1296, Note_on_c, 1, 36, 64
4, 1316, Note_on_c, 1, 36, 0
4, 1344, Note_on_c, 1, 40, 64
4, 1364, Note_on_c, 1, 40, 0
4, 1392, Note_on_c, 1, 43, 64
4, 1412, Note_on_c, 1, 43, 0
4, 1440, Note_on_c, 1, 48, 64
4, 1446, Note_on_c, 1, 52, 64
4, 1452, Note_on_c, 1, 55, 64
4, 1458, Note_on_c, 1, 60, 64
4, 1531, Note_on_c, 1, 60, 0
4, 1531, Note_on_c, 1, 55, 0
4, 1531, Note_on_c, 1, 52, 0
4, 1531, Note_on_c, 1, 48, 0
4, 1536, Note_on_c, 1, 64, 64
4, 1536, Note_on_c, 1, 60, 64
4, 1632, Note_on_c, 1, 64, 0
4, 1632, Note_on_c, 1, 60, 0
4, 1632, Note_on_c, 1, 65, 64
4, 1632, Note_on_c, 1, 62, 64
4, 1652, Note_on_c, 1, 65, 0
4, 1652, Note_on_c, 1, 62, 0
4, 1776, Note_on_c, 1, 60, 64
4, 1821, Note_on_c, 1, 60, 0
4, 1824, Note_on_c, 1, 59, 64
4, 1869, Note_on_c, 1, 59, 0
4, 1872, Note_on_c, 1, 60, 64
4, 1917, Note_on_c, 1, 60, 0
4, 1920, Note_on_c, 1, 55, 64
4, 1965, Note_on_c, 1, 55, 0
4, 2016, Note_on_c, 1, 55, 64
4, 2031, Note_on_c, 1, 55, 0
4, 2032, Note_on_c, 1, 59, 64
4, 2047, Note_on_c, 1, 59, 0
4, 2048, Note_on_c, 1, 62, 64
4, 2063, Note_on_c, 1, 62, 0
4, 2064, Note_on_c, 1, 55, 64
4, 2079, Note_on_c, 1, 55, 0
4, 2080, Note_on_c, 1, 59, 64
4, 2095, Note_on_c, 1, 59, 0
4, 2096, Note_on_c, 1, 62, 64
4, 2111, Note_on_c, 1, 62, 0
4, 2112, Note_on_c, 1, 55, 64
4, 2127, Note_on_c, 1, 55, 0
4, 2128, Note_on_c, 1, 59, 64
4, 2143, Note_on_c, 1, 59, 0
4, 2144, Note_on_c, 1, 62, 64
4, 2159, Note_on_c, 1, 62, 0
4, 2160, Note_on_c, 1, 55, 64
4, 2175, Note_on_c, 1, 55, 0
4, 2176, Note_on_c, 1, 59, 64
4, 2191, Note_on_c, 1, 59, 0
4, 2192, Note_on_c, 1, 62, 64
4, 2207, Note_on_c, 1, 62, 0
4, 2208, Note_on_c, 1, 55, 64
4, 2223, Note_on_c, 1, 55, 0
4, 2224, Note_on_c, 1, 59, 64
4, 2239, Note_on_c, 1, 59, 0
4, 2240, Note_on_c, 1, 62, 64
4, 2255, Note_on_c, 1, 62, 0
4, 2256, Note_on_c, 1, 55, 64
4, 2271, Note_on_c, 1, 55, 0
4, 2272, Note_on_c, 1, 59, 64
4, 2287, Note_on_c, 1, 59, 0
4, 2288, Note_on_c, 1, 62, 64
4, 2303, Note_on_c, 1, 62, 0
4, 2304, Note_on_c, 1, 57, 64
4, 2319, Note_on_c, 1, 57, 0
4, 2320, Note_on_c, 1, 60, 64
4, 2335, Note_on_c, 1, 60, 0
4, 2336, Note_on_c, 1, 62, 64
4, 2351, Note_on_c, 1, 62, 0
4, 2352, Note_on_c, 1, 57, 64
4, 2367, Note_on_c, 1, 57, 0
4, 2368, Note_on_c, 1, 60, 64
4, 2383, Note_on_c, 1, 60, 0
4, 2384, Note_on_c, 1, 62, 64
4, 2399, Note_on_c, 1, 62, 0
4, 2400, Note_on_c, 1, 57, 64
4, 2415, Note_on_c, 1, 57, 0
4, 2416, Note_on_c, 1, 60, 64
4, 2431, Note_on_c, 1, 60, 0
4, 2432, Note_on_c, 1, 62, 64
4, 2447, Note_on_c, 1, 62, 0
4, 2448, Note_on_c, 1, 57, 64
4, 2463, Note_on_c, 1, 57, 0
4, 2464, Note_on_c, 1, 60, 64
4, 2479, Note_on_c, 1, 60, 0
4, 2480, Note_on_c, 1, 62, 64
4, 2495, Note_on_c, 1, 62, 0
4, 2496, Note_on_c, 1, 57, 64
4, 2511, Note_on_c, 1, 57, 0
4, 2512, Note_on_c, 1, 60, 64
4, 2527, Note_on_c, 1, 60, 0
4, 2528, Note_on_c, 1, 62, 64
4, 2543, Note_on_c, 1, 62, 0
4, 2544, Note_on_c, 1, 57, 64
4, 2559, Note_on_c, 1, 57, 0
4, 2560, Note_on_c, 1, 60, 64
4, 2575, Note_on_c, 1, 60, 0
4, 2576, Note_on_c, 1, 62, 64
4, 2591, Note_on_c, 1, 62, 0
4, 2592, Note_on_c, 1, 54, 64
4, 2607, Note_on_c, 1, 54, 0
4, 2608, Note_on_c, 1, 57, 64
4, 2623, Note_on_c, 1, 57, 0
4, 2624, Note_on_c, 1, 62, 64
4, 2639, Note_on_c, 1, 62, 0
4, 2640, Note_on_c, 1, 54, 64
4, 2655, Note_on_c, 1, 54, 0
4, 2656, Note_on_c, 1, 57, 64
4, 2671, Note_on_c, 1, 57, 0
4, 2672, Note_on_c, 1, 62, 64
4, 2687, Note_on_c, 1, 62, 0
4, 2688, Note_on_c, 1, 54, 64
4, 2703, Note_on_c, 1, 54, 0
4, 2704, Note_on_c, 1, 57, 64
4, 2719, Note_on_c, 1, 57, 0
4, 2720, Note_on_c, 1, 62, 64
4, 2735, Note_on_c, 1, 62, 0
4, 2736, Note_on_c, 1, 54, 64
4, 2751, Note_on_c, 1, 54, 0
4, 2752, Note_on_c, 1, 57, 64
4, 2767, Note_on_c, 1, 57, 0
4, 2768, Note_on_c, 1, 62, 64
4, 2783, Note_on_c, 1, 62, 0
4, 2784, Note_on_c, 1, 54, 64
4, 2799, Note_on_c, 1, 54, 0
4, 2800, Note_on_c, 1, 57, 64
4, 2815, Note_on_c, 1, 57, 0
4, 2816, Note_on_c, 1, 62, 64
4, 2831, Note_on_c, 1, 62, 0
4, 2832, Note_on_c, 1, 54, 64
4, 2847, Note_on_c, 1, 54, 0
4, 2848, Note_on_c, 1, 57, 64
4, 2863, Note_on_c, 1, 57, 0
4, 2864, Note_on_c, 1, 62, 64
4, 2879, Note_on_c, 1, 62, 0
4, 2880, Note_on_c, 1, 55, 64
4, 2895, Note_on_c, 1, 55, 0
4, 2896, Note_on_c, 1, 59, 64
4, 2911, Note_on_c, 1, 59, 0
4, 2912, Note_on_c, 1, 62, 64
4, 2927, Note_on_c, 1, 62, 0
4, 2928, Note_on_c, 1, 55, 64
4, 2943, Note_on_c, 1, 55, 0
4, 2944, Note_on_c, 1, 59, 64
4, 2959, Note_on_c, 1, 59, 0
4, 2960, Note_on_c, 1, 62, 64
4, 2975, Note_on_c, 1, 62, 0
4, 2976, Note_on_c, 1, 55, 64
4, 2991, Note_on_c, 1, 55, 0
4, 2992, Note_on_c, 1, 59, 64
4, 3007, Note_on_c, 1, 59, 0
4, 3008, Note_on_c, 1, 62, 64
4, 3023, Note_on_c, 1, 62, 0
4, 3024, Note_on_c, 1, 55, 64
4, 3039, Note_on_c, 1, 55, 0
4, 3040, Note_on_c, 1, 59, 64
4, 3055, Note_on_c, 1, 59, 0
4, 3056, Note_on_c, 1, 62, 64
4, 3071, Note_on_c, 1, 62, 0
4, 3072, Note_on_c, 1, 55, 64
4, 3117, Note_on_c, 1, 55, 0
4, 3168, Note_on_c, 1, 52, 64
4, 3183, Note_on_c, 1, 52, 0
4, 3184, Note_on_c, 1, 55, 64
4, 3199, Note_on_c, 1, 55, 0
4, 3200, Note_on_c, 1, 59, 64
4, 3215, Note_on_c, 1, 59, 0
4, 3216, Note_on_c, 1, 60, 64
4, 3231, Note_on_c, 1, 60, 0
4, 3232, Note_on_c, 1, 62, 64
4, 3247, Note_on_c, 1, 62, 0
4, 3248, Note_on_c, 1, 63, 64
4, 3263, Note_on_c, 1, 63, 0
4, 3264, Note_on_c, 1, 64, 64
4, 3360, Note_on_c, 1, 64, 0
4, 3360, Note_on_c, 1, 62, 64
4, 3449, Note_on_c, 1, 62, 0
4, 3456, Note_on_c, 1, 48, 64
4, 3471, Note_on_c, 1, 48, 0
4, 3472, Note_on_c, 1, 52, 64
4, 3487, Note_on_c, 1, 52, 0
4, 3488, Note_on_c, 1, 56, 64
4, 3503, Note_on_c, 1, 56, 0
4, 3504, Note_on_c, 1, 57, 64
4, 3519, Note_on_c, 1, 57, 0
4, 3520, Note_on_c, 1, 58, 64
4, 3535, Note_on_c, 1, 58, 0
4, 3536, Note_on_c, 1, 59, 64
4, 3551, Note_on_c, 1, 59, 0
4, 3552, Note_on_c, 1, 60, 64
4, 3648, Note_on_c, 1, 60, 0
4, 3648, Note_on_c, 1, 59, 64
4, 3737, Note_on_c, 1, 59, 0
4, 3840, Note_on_c, 1, 64, 64
4, 3929, Note_on_c, 1, 64, 0
4, 3936, Note_on_c, 1, 61, 64
4, 4025, Note_on_c, 1, 61, 0
4, 4128, Note_on_c, 1, 63, 64
4, 4224, Note_on_c, 1, 63, 0
4, 4224, Note_on_c, 1, 57, 64
4, 4224, Note_on_c, 1, 54, 64
4, 4313, Note_on_c, 1, 57, 0
4, 4313, Note_on_c, 1, 54, 0
4, 4320, Note_on_c, 1, 59, 64
4, 4409, Note_on_c, 1, 59, 0
4, 4512, Note_on_c, 1, 38, 64
4, 4527, Note_on_c, 1, 38, 0
4, 4528, Note_on_c, 1, 50, 64
4, 4543, Note_on_c, 1, 50, 0
4, 4544, Note_on_c, 1, 54, 64
4, 4559, Note_on_c, 1, 54, 0
4, 4560, Note_on_c, 1, 57, 64
4, 4575, Note_on_c, 1, 57, 0
4, 4576, Note_on_c, 1, 62, 64
4, 4591, Note_on_c, 1, 62, 0
4, 4592, Note_on_c, 1, 66, 64
4, 4607, Note_on_c, 1, 66, 0
4, 4608, Note_on_c, 1, 67, 64
4, 4628, Note_on_c, 1, 67, 0
4, 4656, Note_on_c, 1, 60, 64
4, 4676, Note_on_c, 1, 60, 0
4, 4704, Note_on_c, 1, 59, 64
4, 4704, Note_on_c, 1, 50, 64
4, 4793, Note_on_c, 1, 59, 0
4, 4793, Note_on_c, 1, 50, 0
4, 4800, Note_on_c, 1, 57, 64
4, 4800, Note_on_c, 1, 50, 64
4, 4889, Note_on_c, 1, 57, 0
4, 4889, Note_on_c, 1, 50, 0
4, 4896, Note_on_c, 1, 59, 64
4, 4896, Note_on_c, 1, 55, 64
4, 4985, Note_on_c, 1, 59, 0
4, 4985, Note_on_c, 1, 55, 0
4, 5088, Note_on_c, 1, 38, 64
4, 5103, Note_on_c, 1, 38, 0
4, 5104, Note_on_c, 1, 50, 64
4, 5119, Note_on_c, 1, 50, 0
4, 5120, Note_on_c, 1, 54, 64
4, 5135, Note_on_c, 1, 54, 0
4, 5136, Note_on_c, 1, 57, 64
4, 5151, Note_on_c, 1, 57, 0
4, 5152, Note_on_c, 1, 62, 64
4, 5167, Note_on_c, 1, 62, 0
4, 5168, Note_on_c, 1, 66, 64
4, 5183, Note_on_c, 1, 66, 0
4, 5184, Note_on_c, 1, 67, 64
4, 5204, Note_on_c, 1, 67, 0
4, 5232, Note_on_c, 1, 60, 64
4, 5252, Note_on_c, 1, 60, 0
4, 5280, Note_on_c, 1, 59, 64
4, 5280, Note_on_c, 1, 50, 64
4, 5369, Note_on_c, 1, 59, 0
4, 5369, Note_on_c, 1, 50, 0
4, 5376, Note_on_c, 1, 38, 64
4, 5465, Note_on_c, 1, 38, 0
4, 5472, Note_on_c, 1, 54, 64
4, 5561, Note_on_c, 1, 54, 0
4, 5568, Note_on_c, 1, 55, 64
4, 5568, Note_on_c, 1, 52, 64
4, 5745, Note_on_c, 1, 55, 0
4, 5745, Note_on_c, 1, 52, 0
4, 5760, Note_on_c, 1, 48, 64
4, 5760, Note_on_c, 1, 36, 64
4, 5937, Note_on_c, 1, 48, 0
4, 5937, Note_on_c, 1, 36, 0
4, 6048, Note_on_c, 1, 59, 64
4, 6048, Note_on_c, 1, 55, 64
4, 6048, Note_on_c, 1, 50, 64
4, 6093, Note_on_c, 1, 59, 0
4, 6093, Note_on_c, 1, 55, 0
4, 6093, Note_on_c, 1, 50, 0
4, 6144, Note_on_c, 1, 71, 64
4, 6144, Note_on_c, 1, 67, 64
4, 6144, Note_on_c, 1, 62, 64
4, 6189, Note_on_c, 1, 71, 0
4, 6189, Note_on_c, 1, 67, 0
4, 6189, Note_on_c, 1, 62, 0
4, 6240, Note_on_c, 1, 72, 64
4, 6240, Note_on_c, 1, 69, 64
4, 6240, Note_on_c, 1, 66, 64
4, 6240, Note_on_c, 1, 62, 64
4, 6329, Note_on_c, 1, 72, 0
4, 6329, Note_on_c, 1, 69, 0
4, 6329, Note_on_c, 1, 66, 0
4, 6329, Note_on_c, 1, 62, 0
4, 6336, Note_on_c, 1, 43, 64
4, 6351, Note_on_c, 1, 43, 0
4, 6352, Note_on_c, 1, 55, 64
4, 6367, Note_on_c, 1, 55, 0
4, 6368, Note_on_c, 1, 54, 64
4, 6383, Note_on_c, 1, 54, 0
4, 6384, Note_on_c, 1, 55, 64
4, 6399, Note_on_c, 1, 55, 0
4, 6400, Note_on_c, 1, 59, 64
4, 6415, Note_on_c, 1, 59, 0
4, 6416, Note_on_c, 1, 57, 64
4, 6431, Note_on_c, 1, 57, 0
4, 6432, Note_on_c, 1, 55, 64
4, 6447, Note_on_c, 1, 55, 0
4, 6448, Note_on_c, 1, 65, 64
4, 6448, Note_on_c, 1, 62, 64
4, 6463, Note_on_c, 1, 65, 0
4, 6463, Note_on_c, 1, 62, 0
4, 6464, Note_on_c, 1, 64, 64
4, 6464, Note_on_c, 1, 60, 64
4, 6479, Note_on_c, 1, 64, 0
4, 6479, Note_on_c, 1, 60, 0
4, 6480, Note_on_c, 1, 62, 64
4, 6480, Note_on_c, 1, 59, 64
4, 6487, Note_on_c, 1, 62, 0
4, 6487, Note_on_c, 1, 59, 0
4, 6496, Note_on_c, 1, 62, 64
4, 6496, Note_on_c, 1, 59, 64
4, 6511, Note_on_c, 1, 62, 0
4, 6511, Note_on_c, 1, 59, 0
4, 6512, Note_on_c, 1, 60, 64
4, 6512, Note_on_c, 1, 57, 64
4, 6527, Note_on_c, 1, 60, 0
4, 6527, Note_on_c, 1, 57, 0
4, 6528, Note_on_c, 1, 59, 64
4, 6528, Note_on_c, 1, 55, 64
4, 6535, Note_on_c, 1, 59, 0
4, 6535, Note_on_c, 1, 55, 0
4, 6544, Note_on_c, 1, 59, 64
4, 6544, Note_on_c, 1, 55, 64
4, 6559, Note_on_c, 1, 59, 0
4, 6559, Note_on_c, 1, 55, 0
4, 6560, Note_on_c, 1, 57, 64
4, 6560, Note_on_c, 1, 53, 64
4, 6575, Note_on_c, 1, 57, 0
4, 6575, Note_on_c, 1, 53, 0
4, 6576, Note_on_c, 1, 55, 64
4, 6576, Note_on_c, 1, 52, 64
4, 6583, Note_on_c, 1, 55, 0
4, 6583, Note_on_c, 1, 52, 0
4, 6592, Note_on_c, 1, 55, 64
4, 6592, Note_on_c, 1, 52, 64
4, 6607, Note_on_c, 1, 55, 0
4, 6607, Note_on_c, 1, 52, 0
4, 6608, Note_on_c, 1, 53, 64
4, 6608, Note_on_c, 1, 50, 64
4, 6623, Note_on_c, 1, 53, 0
4, 6623, Note_on_c, 1, 50, 0
4, 6624, Note_on_c, 1, 48, 64
4, 6630, Note_on_c, 1, 52, 64
4, 6636, Note_on_c, 1, 55, 64
4, 6642, Note_on_c, 1, 60, 64
4, 6715, Note_on_c, 1, 60, 0
4, 6715, Note_on_c, 1, 55, 0
4, 6715, Note_on_c, 1, 52, 0
4, 6715, Note_on_c, 1, 48, 0
4, 6960, Note_on_c, 1, 60, 64
4, 7005, Note_on_c, 1, 60, 0
4, 7008, Note_on_c, 1, 59, 64
4, 7053, Note_on_c, 1, 59, 0
4, 7056, Note_on_c, 1, 60, 64
4, 7101, Note_on_c, 1, 60, 0
4, 7104, Note_on_c, 1, 55, 64
4, 7149, Note_on_c, 1, 55, 0
4, 7248, Note_on_c, 1, 57, 64
4, 7293, Note_on_c, 1, 57, 0
4, 7296, Note_on_c, 1, 55, 64
4, 7341, Note_on_c, 1, 55, 0
4, 7344, Note_on_c, 1, 53, 64
4, 7389, Note_on_c, 1, 53, 0
4, 7440, Note_on_c, 1, 60, 64
4, 7533, Note_on_c, 1, 60, 0
4, 7536, Note_on_c, 1, 62, 64
4, 7581, Note_on_c, 1, 62, 0
4, 7584, Note_on_c, 1, 64, 64
4, 7673, Note_on_c, 1, 64, 0
4, 7680, Note_on_c, 1, 65, 64
4, 7769, Note_on_c, 1, 65, 0
4, 7776, Note_on_c, 1, 65, 64
4, 7865, Note_on_c, 1, 65, 0
4, 7872, Note_on_c, 1, 64, 64
4, 7917, Note_on_c, 1, 64, 0
4, 7920, Note_on_c, 1, 36, 64
4, 7940, Note_on_c, 1, 36, 0
4, 7968, Note_on_c, 1, 40, 64
4, 7988, Note_on_c, 1, 40, 0
4, 8016, Note_on_c, 1, 43, 64
4, 8036, Note_on_c, 1, 43, 0
4, 8064, Note_on_c, 1, 48, 64
4, 8070, Note_on_c, 1, 52, 64
4, 8076, Note_on_c, 1, 55, 64
4, 8082, Note_on_c, 1, 60, 64
4, 8155, Note_on_c, 1, 60, 0
4, 8155, Note_on_c, 1, 55, 0
4, 8155, Note_on_c, 1, 52, 0
4, 8155, Note_on_c, 1, 48, 0
4, 8160, Note_on_c, 1, 64, 64
4, 8160, Note_on_c, 1, 60, 64
4, 8256, Note_on_c, 1, 64, 0
4, 8256, Note_on_c, 1, 60, 0
4, 8256, Note_on_c, 1, 65, 64
4, 8256, Note_on_c, 1, 62, 64
4, 8276, Note_on_c, 1, 65, 0
4, 8276, Note_on_c, 1, 62, 0
4, 8400, Note_on_c, 1, 60, 64
4, 8445, Note_on_c, 1, 60, 0
4, 8448, Note_on_c, 1, 59, 64
4, 8493, Note_on_c, 1, 59, 0
4, 8496, Note_on_c, 1, 60, 64
4, 8541, Note_on_c, 1, 60, 0
4, 8544, Note_on_c, 1, 55, 64
4, 8589, Note_on_c, 1, 55, 0
4, 8640, Note_on_c, 1, 55, 64
4, 8655, Note_on_c, 1, 55, 0
4, 8656, Note_on_c, 1, 59, 64
4, 8671, Note_on_c, 1, 59, 0
4, 8672, Note_on_c, 1, 62, 64
4, 8687, Note_on_c, 1, 62, 0
4, 8688, Note_on_c, 1, 55, 64
4, 8703, Note_on_c, 1, 55, 0
4, 8704, Note_on_c, 1, 59, 64
4, 8719, Note_on_c, 1, 59, 0
4, 8720, Note_on_c, 1, 62, 64
4, 8735, Note_on_c, 1, 62, 0
4, 8736, Note_on_c, 1, 55, 64
4, 8751, Note_on_c, 1, 55, 0
4, 8752, Note_on_c, 1, 59, 64
4, 8767, Note_on_c, 1, 59, 0
4, 8768, Note_on_c, 1, 62, 64
4, 8783, Note_on_c, 1, 62, 0
4, 8784, Note_on_c, 1, 55, 64
4, 8799, Note_on_c, 1, 55, 0
4, 8800, Note_on_c, 1, 59, 64
4, 8815, Note_on_c, 1, 59, 0
4, 8816, Note_on_c, 1, 62, 64
4, 8831, Note_on_c, 1, 62, 0
4, 8832, Note_on_c, 1, 55, 64
4, 8847, Note_on_c, 1, 55, 0
4, 8848, Note_on_c, 1, 59, 64
4, 8863, Note_on_c, 1, 59, 0
4, 8864, Note_on_c, 1, 62, 64
4, 8879, Note_on_c, 1, 62, 0
4, 8880, Note_on_c, 1, 55, 64
4, 8895, Note_on_c, 1, 55, 0
4, 8896, Note_on_c, 1, 59, 64
4, 8911, Note_on_c, 1, 59, 0
4, 8912, Note_on_c, 1, 62, 64
4, 8927, Note_on_c, 1, 62, 0
4, 8928, Note_on_c, 1, 57, 64
4, 8943, Note_on_c, 1, 57, 0
4, 8944, Note_on_c, 1, 60, 64
4, 8959, Note_on_c, 1, 60, 0
4, 8960, Note_on_c, 1, 62, 64
4, 8975, Note_on_c, 1, 62, 0
4, 8976, Note_on_c, 1, 57, 64
4, 8991, Note_on_c, 1, 57, 0
4, 8992, Note_on_c, 1, 60, 64
4, 9007, Note_on_c, 1, 60, 0
4, 9008, Note_on_c, 1, 62, 64
4, 9023, Note_on_c, 1, 62, 0
4, 9024, Note_on_c, 1, 57, 64
4, 9039, Note_on_c, 1, 57, 0
4, 9040, Note_on_c, 1, 60, 64
4, 9055, Note_on_c, 1, 60, 0
4, 9056, Note_on_c, 1, 62, 64
4, 9071, Note_on_c, 1, 62, 0
4, 9072, Note_on_c, 1, 57, 64
4, 9087, Note_on_c, 1, 57, 0
4, 9088, Note_on_c, 1, 60, 64
4, 9103, Note_on_c, 1, 60, 0
4, 9104, Note_on_c, 1, 62, 64
4, 9119, Note_on_c, 1, 62, 0
4, 9120, Note_on_c, 1, 57, 64
4, 9135, Note_on_c, 1, 57, 0
4, 9136, Note_on_c, 1, 60, 64
4, 9151, Note_on_c, 1, 60, 0
4, 9152, Note_on_c, 1, 62, 64
4, 9167, Note_on_c, 1, 62, 0
4, 9168, Note_on_c, 1, 57, 64
4, 9183, Note_on_c, 1, 57, 0
4, 9184, Note_on_c, 1, 60, 64
4, 9199, Note_on_c, 1, 60, 0
4, 9200, Note_on_c, 1, 62, 64
4, 9215, Note_on_c, 1, 62, 0
4, 9216, Note_on_c, 1, 54, 64
4, 9231, Note_on_c, 1, 54, 0
4, 9232, Note_on_c, 1, 57, 64
4, 9247, Note_on_c, 1, 57, 0
4, 9248, Note_on_c, 1, 62, 64
4, 9263, Note_on_c, 1, 62, 0
4, 9264, Note_on_c, 1, 54, 64
4, 9279, Note_on_c, 1, 54, 0
4, 9280, Note_on_c, 1, 57, 64
4, 9295, Note_on_c, 1, 57, 0
4, 9296, Note_on_c, 1, 62, 64
4, 9311, Note_on_c, 1, 62, 0
4, 9312, Note_on_c, 1, 54, 64
4, 9327, Note_on_c, 1, 54, 0
4, 9328, Note_on_c, 1, 57, 64
4, 9343, Note_on_c, 1, 57, 0
4, 9344, Note_on_c, 1, 62, 64
4, 9359, Note_on_c, 1, 62, 0
4, 9360, Note_on_c, 1, 54, 64
4, 9375, Note_on_c, 1, 54, 0
4, 9376, Note_on_c, 1, 57, 64
4, 9391, Note_on_c, 1, 57, 0
4, 9392, Note_on_c, 1, 62, 64
4, 9407, Note_on_c, 1, 62, 0
4, 9408, Note_on_c, 1, 54, 64
4, 9423, Note_on_c, 1, 54, 0
4, 9424, Note_on_c, 1, 57, 64
4, 9439, Note_on_c, 1, 57, 0
4, 9440, Note_on_c, 1, 62, 64
4, 9455, Note_on_c, 1, 62, 0
4, 9456, Note_on_c, 1, 54, 64
4, 9471, Note_on_c, 1, 54, 0
4, 9472, Note_on_c, 1, 57, 64
4, 9487, Note_on_c, 1, 57, 0
4, 9488, Note_on_c, 1, 62, 64
4, 9503, Note_on_c, 1, 62, 0
4, 9504, Note_on_c, 1, 55, 64
4, 9519, Note_on_c, 1, 55, 0
4, 9520, Note_on_c, 1, 59, 64
4, 9535, Note_on_c, 1, 59, 0
4, 9536, Note_on_c, 1, 62, 64
4, 9551, Note_on_c, 1, 62, 0
4, 9552, Note_on_c, 1, 55, 64
4, 9567, Note_on_c, 1, 55, 0
4, 9568, Note_on_c, 1, 59, 64
4, 9583, Note_on_c, 1, 59, 0
4, 9584, Note_on_c, 1, 62, 64
4, 9599, Note_on_c, 1, 62, 0
4, 9600, Note_on_c, 1, 55, 64
4, 9615, Note_on_c, 1, 55, 0
4, 9616, Note_on_c, 1, 59, 64
4, 9631, Note_on_c, 1, 59, 0
4, 9632, Note_on_c, 1, 62, 64
4, 9647, Note_on_c, 1, 62, 0
4, 9648, Note_on_c, 1, 55, 64
4, 9663, Note_on_c, 1, 55, 0
4, 9664, Note_on_c, 1, 59, 64
4, 9679, Note_on_c, 1, 59, 0
4, 9680, Note_on_c, 1, 62, 64
4, 9695, Note_on_c, 1, 62, 0
4, 9696, Note_on_c, 1, 55, 64
4, 9741, Note_on_c, 1, 55, 0
4, 9792, Note_on_c, 1, 52, 64
4, 9807, Note_on_c, 1, 52, 0
4, 9808, Note_on_c, 1, 55, 64
4, 9823, Note_on_c, 1, 55, 0
4, 9824, Note_on_c, 1, 59, 64
4, 9839, Note_on_c, 1, 59, 0
4, 9840, Note_on_c, 1, 60, 64
4, 9855, Note_on_c, 1, 60, 0
4, 9856, Note_on_c, 1, 62, 64
4, 9871, Note_on_c, 1, 62, 0
4, 9872, Note_on_c, 1, 63, 64
4, 9887, Note_on_c, 1, 63, 0
4, 9888, Note_on_c, 1, 64, 64
4, 9984, Note_on_c, 1, 64, 0
4, 9984, Note_on_c, 1, 62, 64
4, 10073, Note_on_c, 1, 62, 0
4, 10080, Note_on_c, 1, 48, 64
4, 10095, Note_on_c, 1, 48, 0
4, 10096, Note_on_c, 1, 52, 64
4, 10111, Note_on_c, 1, 52, 0
4, 10112, Note_on_c, 1, 56, 64
4, 10127, Note_on_c, 1, 56, 0
4, 10128, Note_on_c, 1, 57, 64
4, 10143, Note_on_c, 1, 57, 0
4, 10144, Note_on_c, 1, 58, 64
4, 10159, Note_on_c, 1, 58, 0
4, 10160, Note_on_c, 1, 59, 64
4, 10175, Note_on_c, 1, 59, 0
4, 10176, Note_on_c, 1, 60, 64
4, 10272, Note_on_c, 1, 60, 0
4, 10272, Note_on_c, 1, 59, 64
4, 10361, Note_on_c, 1, 59, 0
4, 10464, Note_on_c, 1, 64, 64
4, 10553, Note_on_c, 1, 64, 0
4, 10560, Note_on_c, 1, 61, 64
4, 10649, Note_on_c, 1, 61, 0
4, 10752, Note_on_c, 1, 63, 64
4, 10848, Note_on_c, 1, 63, 0
4, 10848, Note_on_c, 1, 57, 64
4, 10848, Note_on_c, 1, 54, 64
4, 10937, Note_on_c, 1, 57, 0
4, 10937, Note_on_c, 1, 54, 0
4, 10944, Note_on_c, 1, 59, 64
4, 11033, Note_on_c, 1, 59, 0
4, 11136, Note_on_c, 1, 38, 64
4, 11151, Note_on_c, 1, 38, 0
4, 11152, Note_on_c, 1, 50, 64
4, 11167, Note_on_c, 1, 50, 0
4, 11168, Note_on_c, 1, 54, 64
4, 11183, Note_on_c, 1, 54, 0
4, 11184, Note_on_c, 1, 57, 64
4, 11199, Note_on_c, 1, 57, 0
4, 11200, Note_on_c, 1, 62, 64
4, 11215, Note_on_c, 1, 62, 0
4, 11216, Note_on_c, 1, 66, 64
4, 11231, Note_on_c, 1, 66, 0
4, 11232, Note_on_c, 1, 67, 64
4, 11252, Note_on_c, 1, 67, 0
4, 11280, Note_on_c, 1, 60, 64
4, 11300, Note_on_c, 1, 60, 0
4, 11328, Note_on_c, 1, 59, 64
4, 11328, Note_on_c, 1, 50, 64
4, 11417, Note_on_c, 1, 59, 0
4, 11417, Note_on_c, 1, 50, 0
4, 11424, Note_on_c, 1, 57, 64
4, 11424, Note_on_c, 1, 50, 64
4, 11513, Note_on_c, 1, 57, 0
4, 11513, Note_on_c, 1, 50, 0
4, 11520, Note_on_c, 1, 59, 64
4, 11520, Note_on_c, 1, 55, 64
4, 11609, Note_on_c, 1, 59, 0
4, 11609, Note_on_c, 1, 55, 0
4, 11712, Note_on_c, 1, 38, 64
4, 11727, Note_on_c, 1, 38, 0
4, 11728, Note_on_c, 1, 50, 64
4, 11743, Note_on_c, 1, 50, 0
4, 11744, Note_on_c, 1, 54, 64
4, 11759, Note_on_c, 1, 54, 0
4, 11760, Note_on_c, 1, 57, 64
4, 11775, Note_on_c, 1, 57, 0
4, 11776, Note_on_c, 1, 62, 64
4, 11791, Note_on_c, 1, 62, 0
4, 11792, Note_on_c, 1, 66, 64
4, 11807, Note_on_c, 1, 66, 0
4, 11808, Note_on_c, 1, 67, 64
4, 11828, Note_on_c, 1, 67, 0
4, 11856, Note_on_c, 1, 60, 64
4, 11876, Note_on_c, 1, 60, 0
4, 11904, Note_on_c, 1, 59, 64
4, 11904, Note_on_c, 1, 50, 64
4, 11993, Note_on_c, 1, 59, 0
4, 11993, Note_on_c, 1, 50, 0
4, 12000, Note_on_c, 1, 38, 64
4, 12089, Note_on_c, 1, 38, 0
4, 12096, Note_on_c, 1, 54, 64
4, 12185, Note_on_c, 1, 54, 0
4, 12192, Note_on_c, 1, 55, 64
4, 12192, Note_on_c, 1, 52, 64
4, 12369, Note_on_c, 1, 55, 0
4, 12369, Note_on_c, 1, 52, 0
4, 12384, Note_on_c, 1, 48, 64
4, 12384, Note_on_c, 1, 36, 64
4, 12561, Note_on_c, 1, 48, 0
4, 12561, Note_on_c, 1, 36, 0
4, 12672, Note_on_c, 1, 59, 64
4, 12672, Note_on_c, 1, 55, 64
4, 12672, Note_on_c, 1, 50, 64
4, 12717, Note_on_c, 1, 59, 0
4, 12717, Note_on_c, 1, 55, 0
4, 12717, Note_on_c, 1, 50, 0
4, 12768, Note_on_c, 1, 71, 64
4, 12768, Note_on_c, 1, 67, 64
4, 12768, Note_on_c, 1, 62, 64
4, 12813, Note_on_c, 1, 71, 0
4, 12813, Note_on_c, 1, 67, 0
4, 12813, Note_on_c, 1, 62, 0
4, 12864, Note_on_c, 1, 72, 64
4, 12864, Note_on_c, 1, 69, 64
4, 12864, Note_on_c, 1, 66, 64
4, 12864, Note_on_c, 1, 62, 64
4, 12953, Note_on_c, 1, 72, 0
4, 12953, Note_on_c, 1, 69, 0
4, 12953, Note_on_c, 1, 66, 0
4, 12953, Note_on_c, 1, 62, 0
4, 12960, Note_on_c, 1, 55, 64
4, 12975, Note_on_c, 1, 55, 0
4, 12976, Note_on_c, 1, 58, 64
4, 12991, Note_on_c, 1, 58, 0
4, 12992, Note_on_c, 1, 62, 64
4, 13007, Note_on_c, 1, 62, 0
4, 13008, Note_on_c, 1, 55, 64
4, 13023, Note_on_c, 1, 55, 0
4, 13024, Note_on_c, 1, 58, 64
4, 13039, Note_on_c, 1, 58, 0
4, 13040, Note_on_c, 1, 62, 64
4, 13055, Note_on_c, 1, 62, 0
4, 13056, Note_on_c, 1, 55, 64
4, 13071, Note_on_c, 1, 55, 0
4, 13072, Note_on_c, 1, 58, 64
4, 13087, Note_on_c, 1, 58, 0
4, 13088, Note_on_c, 1, 62, 64
4, 13103, Note_on_c, 1, 62, 0
4, 13104, Note_on_c, 1, 55, 64
4, 13119, Note_on_c, 1, 55, 0
4, 13120, Note_on_c, 1, 58, 64
4, 13135, Note_on_c, 1, 58, 0
4, 13136, Note_on_c, 1, 62, 64
4, 13151, Note_on_c, 1, 62, 0
4, 13152, Note_on_c, 1, 55, 64
4, 13167, Note_on_c, 1, 55, 0
4, 13168, Note_on_c, 1, 58, 64
4, 13183, Note_on_c, 1, 58, 0
4, 13184, Note_on_c, 1, 62, 64
4, 13199, Note_on_c, 1, 62, 0
4, 13200, Note_on_c, 1, 55, 64
4, 13215, Note_on_c, 1, 55, 0
4, 13216, Note_on_c, 1, 58, 64
4, 13231, Note_on_c, 1, 58, 0
4, 13232, Note_on_c, 1, 62, 64
4, 13247, Note_on_c, 1, 62, 0
4, 13248, Note_on_c, 1, 57, 64
4, 13263, Note_on_c, 1, 57, 0
4, 13264, Note_on_c, 1, 64, 64
4, 13279, Note_on_c, 1, 64, 0
4, 13280, Note_on_c, 1, 67, 64
4, 13295, Note_on_c, 1, 67, 0
4, 13296, Note_on_c, 1, 57, 64
4, 13311, Note_on_c, 1, 57, 0
4, 13312, Note_on_c, 1, 64, 64
4, 13327, Note_on_c, 1, 64, 0
4, 13328, Note_on_c, 1, 67, 64
4, 13343, Note_on_c, 1, 67, 0
4, 13344, Note_on_c, 1, 57, 64
4, 13359, Note_on_c, 1, 57, 0
4, 13360, Note_on_c, 1, 64, 64
4, 13375, Note_on_c, 1, 64, 0
4, 13376, Note_on_c, 1, 67, 64
4, 13391, Note_on_c, 1, 67, 0
4, 13392, Note_on_c, 1, 57, 64
4, 13407, Note_on_c, 1, 57, 0
4, 13408, Note_on_c, 1, 64, 64
4, 13423, Note_on_c, 1, 64, 0
4, 13424, Note_on_c, 1, 67, 64
4, 13439, Note_on_c, 1, 67, 0
4, 13440, Note_on_c, 1, 57, 64
4, 13455, Note_on_c, 1, 57, 0
4, 13456, Note_on_c, 1, 64, 64
4, 13471, Note_on_c, 1, 64, 0
4, 13472, Note_on_c, 1, 67, 64
4, 13487, Note_on_c, 1, 67, 0
4, 13488, Note_on_c, 1, 57, 64
4, 13503, Note_on_c, 1, 57, 0
4, 13504, Note_on_c, 1, 64, 64
4, 13519, Note_on_c, 1, 64, 0
4, 13520, Note_on_c, 1, 67, 64
4, 13535, Note_on_c, 1, 67, 0
4, 13536, Note_on_c, 1, 50, 64
4, 13551, Note_on_c, 1, 50, 0
4, 13552, Note_on_c, 1, 57, 64
4, 13567, Note_on_c, 1, 57, 0
4, 13568, Note_on_c, 1, 62, 64
4, 13583, Note_on_c, 1, 62, 0
4, 13584, Note_on_c, 1, 50, 64
4, 13599, Note_on_c, 1, 50, 0
4, 13600, Note_on_c, 1, 57, 64
4, 13615, Note_on_c, 1, 57, 0
4, 13616, Note_on_c, 1, 62, 64
4, 13631, Note_on_c, 1, 62, 0
4, 13632, Note_on_c, 1, 53, 64
4, 13647, Note_on_c, 1, 53, 0
4, 13648, Note_on_c, 1, 57, 64
4, 13663, Note_on_c, 1, 57, 0
4, 13664, Note_on_c, 1, 62, 64
4, 13679, Note_on_c, 1, 62, 0
4, 13680, Note_on_c, 1, 53, 64
4, 13695, Note_on_c, 1, 53, 0
4, 13696, Note_on_c, 1, 57, 64
4, 13711, Note_on_c, 1, 57, 0
4, 13712, Note_on_c, 1, 62, 64
4, 13727, Note_on_c, 1, 62, 0
4, 13728, Note_on_c, 1, 53, 64
4, 13743, Note_on_c, 1, 53, 0
4, 13744, Note_on_c, 1, 57, 64
4, 13759, Note_on_c, 1, 57, 0
4, 13760, Note_on_c, 1, 62, 64
4, 13775, Note_on_c, 1, 62, 0
4, 13776, Note_on_c, 1, 54, 64
4, 13791, Note_on_c, 1, 54, 0
4, 13792, Note_on_c, 1, 57, 64
4, 13807, Note_on_c, 1, 57, 0
4, 13808, Note_on_c, 1, 62, 64
4, 13823, Note_on_c, 1, 62, 0
4, 13824, Note_on_c, 1, 55, 64
4, 13839, Note_on_c, 1, 55, 0
4, 13840, Note_on_c, 1, 59, 64
4, 13855, Note_on_c, 1, 59, 0
4, 13856, Note_on_c, 1, 62, 64
4, 13871, Note_on_c, 1, 62, 0
4, 13872, Note_on_c, 1, 55, 64
4, 13887, Note_on_c, 1, 55, 0
4, 13888, Note_on_c, 1, 59, 64
4, 13903, Note_on_c, 1, 59, 0
4, 13904, Note_on_c, 1, 62, 64
4, 13919, Note_on_c, 1, 62, 0
4, 13920, Note_on_c, 1, 55, 64
4, 13935, Note_on_c, 1, 55, 0
4, 13936, Note_on_c, 1, 59, 64
4, 13951, Note_on_c, 1, 59, 0
4, 13952, Note_on_c, 1, 62, 64
4, 13967, Note_on_c, 1, 62, 0
4, 13968, Note_on_c, 1, 55, 64
4, 13983, Note_on_c, 1, 55, 0
4, 13984, Note_on_c, 1, 59, 64
4, 13999, Note_on_c, 1, 59, 0
4, 14000, Note_on_c, 1, 62, 64
4, 14015, Note_on_c, 1, 62, 0
4, 14016, Note_on_c, 1, 55, 64
4, 14031, Note_on_c, 1, 55, 0
4, 14032, Note_on_c, 1, 59, 64
4, 14047, Note_on_c, 1, 59, 0
4, 14048, Note_on_c, 1, 62, 64
4, 14063, Note_on_c, 1, 62, 0
4, 14064, Note_on_c, 1, 55, 64
4, 14079, Note_on_c, 1, 55, 0
4, 14080, Note_on_c, 1, 59, 64
4, 14095, Note_on_c, 1, 59, 0
4, 14096, Note_on_c, 1, 62, 64
4, 14111, Note_on_c, 1, 62, 0
4, 14112, Note_on_c, 1, 55, 64
4, 14127, Note_on_c, 1, 55, 0
4, 14128, Note_on_c, 1, 60, 64
4, 14143, Note_on_c, 1, 60, 0
4, 14144, Note_on_c, 1, 64, 64
4, 14159, Note_on_c, 1, 64, 0
4, 14160, Note_on_c, 1, 55, 64
4, 14175, Note_on_c, 1, 55, 0
4, 14176, Note_on_c, 1, 60, 64
4, 14191, Note_on_c, 1, 60, 0
4, 14192, Note_on_c, 1, 64, 64
4, 14207, Note_on_c, 1, 64, 0
4, 14208, Note_on_c, 1, 55, 64
4, 14223, Note_on_c, 1, 55, 0
4, 14224, Note_on_c, 1, 60, 64
4, 14239, Note_on_c, 1, 60, 0
4, 14240, Note_on_c, 1, 64, 64
4, 14255, Note_on_c, 1, 64, 0
4, 14256, Note_on_c, 1, 55, 64
4, 14271, Note_on_c, 1, 55, 0
4, 14272, Note_on_c, 1, 60, 64
4, 14287, Note_on_c, 1, 60, 0
4, 14288, Note_on_c, 1, 64, 64
4, 14303, Note_on_c, 1, 64, 0
4, 14304, Note_on_c, 1, 55, 64
4, 14319, Note_on_c, 1, 55, 0
4, 14320, Note_on_c, 1, 60, 64
4, 14335, Note_on_c, 1, 60, 0
4, 14336, Note_on_c, 1, 64, 64
4, 14351, Note_on_c, 1, 64, 0
4, 14352, Note_on_c, 1, 55, 64
4, 14367, Note_on_c, 1, 55, 0
4, 14368, Note_on_c, 1, 60, 64
4, 14383, Note_on_c, 1, 60, 0
4, 14384, Note_on_c, 1, 64, 64
4, 14399, Note_on_c, 1, 64, 0
4, 14400, Note_on_c, 1, 55, 64
4, 14415, Note_on_c, 1, 55, 0
4, 14416, Note_on_c, 1, 59, 64
4, 14431, Note_on_c, 1, 59, 0
4, 14432, Note_on_c, 1, 60, 64
4, 14447, Note_on_c, 1, 60, 0
4, 14448, Note_on_c, 1, 62, 64
4, 14463, Note_on_c, 1, 62, 0
4, 14464, Note_on_c, 1, 64, 64
4, 14479, Note_on_c, 1, 64, 0
4, 14480, Note_on_c, 1, 65, 64
4, 14495, Note_on_c, 1, 65, 0
4, 14496, Note_on_c, 1, 66, 64
4, 14511, Note_on_c, 1, 66, 0
4, 14512, Note_on_c, 1, 67, 64
4, 14527, Note_on_c, 1, 67, 0
4, 14528, Note_on_c, 1, 68, 64
4, 14543, Note_on_c, 1, 68, 0
4, 14544, Note_on_c, 1, 69, 64
4, 14559, Note_on_c, 1, 69, 0
4, 14560, Note_on_c, 1, 70, 64
4, 14575, Note_on_c, 1, 70, 0
4, 14576, Note_on_c, 1, 71, 64
4, 14591, Note_on_c, 1, 71, 0
4, 14592, Note_on_c, 1, 72, 64
4, 14681, Note_on_c, 1, 72, 0
4, 14688, Note_on_c, 1, 69, 64
4, 14953, Note_on_c, 1, 69, 0
4, 14976, Note_on_c, 1, 67, 64
4, 15065, Note_on_c, 1, 67, 0
4, 15264, Note_on_c, 1, 48, 64
4, 15279, Note_on_c, 1, 48, 0
4, 15280, Note_on_c, 1, 52, 64
4, 15295, Note_on_c, 1, 52, 0
4, 15296, Note_on_c, 1, 55, 64
4, 15311, Note_on_c, 1, 55, 0
4, 15312, Note_on_c, 1, 48, 64
4, 15327, Note_on_c, 1, 48, 0
4, 15328, Note_on_c, 1, 52, 64
4, 15343, Note_on_c, 1, 52, 0
4, 15344, Note_on_c, 1, 55, 64
4, 15359, Note_on_c, 1, 55, 0
4, 15360, Note_on_c, 1, 48, 64
4, 15375, Note_on_c, 1, 48, 0
4, 15376, Note_on_c, 1, 52, 64
4, 15391, Note_on_c, 1, 52, 0
4, 15392, Note_on_c, 1, 55, 64
4, 15407, Note_on_c, 1, 55, 0
4, 15408, Note_on_c, 1, 48, 64
4, 15423, Note_on_c, 1, 48, 0
4, 15424, Note_on_c, 1, 52, 64
4, 15439, Note_on_c, 1, 52, 0
4, 15440, Note_on_c, 1, 55, 64
4, 15455, Note_on_c, 1, 55, 0
4, 15456, Note_on_c, 1, 48, 64
4, 15471, Note_on_c, 1, 48, 0
4, 15472, Note_on_c, 1, 52, 64
4, 15487, Note_on_c, 1, 52, 0
4, 15488, Note_on_c, 1, 55, 64
4, 15503, Note_on_c, 1, 55, 0
4, 15504, Note_on_c, 1, 48, 64
4, 15519, Note_on_c, 1, 48, 0
4, 15520, Note_on_c, 1, 52, 64
4, 15535, Note_on_c, 1, 52, 0
4, 15536, Note_on_c, 1, 55, 64
4, 15551, Note_on_c, 1, 55, 0
4, 15552, Note_on_c, 1, 50, 64
4, 15567, Note_on_c, 1, 50, 0
4, 15568, Note_on_c, 1, 53, 64
4, 15583, Note_on_c, 1, 53, 0
4, 15584, Note_on_c, 1, 55, 64
4, 15599, Note_on_c, 1, 55, 0
4, 15600, Note_on_c, 1, 50, 64
4, 15615, Note_on_c, 1, 50, 0
4, 15616, Note_on_c, 1, 53, 64
4, 15631, Note_on_c, 1, 53, 0
4, 15632, Note_on_c, 1, 55, 64
4, 15647, Note_on_c, 1, 55, 0
4, 15648, Note_on_c, 1, 50, 64
4, 15663, Note_on_c, 1, 50, 0
4, 15664, Note_on_c, 1, 53, 64
4, 15679, Note_on_c, 1, 53, 0
4, 15680, Note_on_c, 1, 55, 64
4, 15695, Note_on_c, 1, 55, 0
4, 15696, Note_on_c, 1, 50, 64
4, 15711, Note_on_c, 1, 50, 0
4, 15712, Note_on_c, 1, 53, 64
4, 15727, Note_on_c, 1, 53, 0
4, 15728, Note_on_c, 1, 55, 64
4, 15743, Note_on_c, 1, 55, 0
4, 15744, Note_on_c, 1, 50, 64
4, 15759, Note_on_c, 1, 50, 0
4, 15760, Note_on_c, 1, 53, 64
4, 15775, Note_on_c, 1, 53, 0
4, 15776, Note_on_c, 1, 55, 64
4, 15791, Note_on_c, 1, 55, 0
4, 15792, Note_on_c, 1, 50, 64
4, 15807, Note_on_c, 1, 50, 0
4, 15808, Note_on_c, 1, 53, 64
4, 15823, Note_on_c, 1, 53, 0
4, 15824, Note_on_c, 1, 55, 64
4, 15839, Note_on_c, 1, 55, 0
4, 15840, Note_on_c, 1, 47, 64
4, 15855, Note_on_c, 1, 47, 0
4, 15856, Note_on_c, 1, 50, 64
4, 15871, Note_on_c, 1, 50, 0
4, 15872, Note_on_c, 1, 55, 64
4, 15887, Note_on_c, 1, 55, 0
4, 15888, Note_on_c, 1, 47, 64
4, 15903, Note_on_c, 1, 47, 0
4, 15904, Note_on_c, 1, 50, 64
4, 15919, Note_on_c, 1, 50, 0
4, 15920, Note_on_c, 1, 55, 64
4, 15935, Note_on_c, 1, 55, 0
4, 15936, Note_on_c, 1, 47, 64
4, 15951, Note_on_c, 1, 47, 0
4, 15952, Note_on_c, 1, 50, 64
4, 15967, Note_on_c, 1, 50, 0
4, 15968, Note_on_c, 1, 55, 64
4, 15983, Note_on_c, 1, 55, 0
4, 15984, Note_on_c, 1, 47, 64
4, 15999, Note_on_c, 1, 47, 0
4, 16000, Note_on_c, 1, 50, 64
4, 16015, Note_on_c, 1, 50, 0
4, 16016, Note_on_c, 1, 55, 64
4, 16031, Note_on_c, 1, 55, 0
4, 16032, Note_on_c, 1, 47, 64
4, 16047, Note_on_c, 1, 47, 0
4, 16048, Note_on_c, 1, 50, 64
4, 16063, Note_on_c, 1, 50, 0
4, 16064, Note_on_c, 1, 55, 64
4, 16079, Note_on_c, 1, 55, 0
4, 16080, Note_on_c, 1, 47, 64
4, 16095, Note_on_c, 1, 47, 0
4, 16096, Note_on_c, 1, 50, 64
4, 16111, Note_on_c, 1, 50, 0
4, 16112, Note_on_c, 1, 55, 64
4, 16127, Note_on_c, 1, 55, 0
4, 16128, Note_on_c, 1, 48, 64
4, 16143, Note_on_c, 1, 48, 0
4, 16144, Note_on_c, 1, 52, 64
4, 16159, Note_on_c, 1, 52, 0
4, 16160, Note_on_c, 1, 55, 64
4, 16175, Note_on_c, 1, 55, 0
4, 16176, Note_on_c, 1, 48, 64
4, 16191, Note_on_c, 1, 48, 0
4, 16192, Note_on_c, 1, 52, 64
4, 16207, Note_on_c, 1, 52, 0
4, 16208, Note_on_c, 1, 55, 64
4, 16223, Note_on_c, 1, 55, 0
4, 16224, Note_on_c, 1, 48, 64
4, 16239, Note_on_c, 1, 48, 0
4, 16240, Note_on_c, 1, 52, 64
4, 16255, Note_on_c, 1, 52, 0
4, 16256, Note_on_c, 1, 55, 64
4, 16271, Note_on_c, 1, 55, 0
4, 16272, Note_on_c, 1, 48, 64
4, 16287, Note_on_c, 1, 48, 0
4, 16288, Note_on_c, 1, 52, 64
4, 16303, Note_on_c, 1, 52, 0
4, 16304, Note_on_c, 1, 55, 64
4, 16319, Note_on_c, 1, 55, 0
4, 16320, Note_on_c, 1, 48, 64
4, 16365, Note_on_c, 1, 48, 0
4, 16416, Note_on_c, 1, 57, 64
4, 16431, Note_on_c, 1, 57, 0
4, 16432, Note_on_c, 1, 60, 64
4, 16447, Note_on_c, 1, 60, 0
4, 16448, Note_on_c, 1, 64, 64
4, 16463, Note_on_c, 1, 64, 0
4, 16464, Note_on_c, 1, 65, 64
4, 16479, Note_on_c, 1, 65, 0
4, 16480, Note_on_c, 1, 67, 64
4, 16495, Note_on_c, 1, 67, 0
4, 16496, Note_on_c, 1, 68, 64
4, 16511, Note_on_c, 1, 68, 0
4, 16512, Note_on_c, 1, 69, 64
4, 16601, Note_on_c, 1, 69, 0
4, 16608, Note_on_c, 1, 67, 64
4, 16697, Note_on_c, 1, 67, 0
4, 16704, Note_on_c, 1, 53, 64
4, 16719, Note_on_c, 1, 53, 0
4, 16720, Note_on_c, 1, 57, 64
4, 16735, Note_on_c, 1, 57, 0
4, 16736, Note_on_c, 1, 61, 64
4, 16751, Note_on_c, 1, 61, 0
4, 16752, Note_on_c, 1, 62, 64
4, 16767, Note_on_c, 1, 62, 0
4, 16768, Note_on_c, 1, 63, 64
4, 16783, Note_on_c, 1, 63, 0
4, 16784, Note_on_c, 1, 64, 64
4, 16799, Note_on_c, 1, 64, 0
4, 16800, Note_on_c, 1, 65, 64
4, 16889, Note_on_c, 1, 65, 0
4, 16896, Note_on_c, 1, 64, 64
4, 16985, Note_on_c, 1, 64, 0
4, 17088, Note_on_c, 1, 69, 64
4, 17177, Note_on_c, 1, 69, 0
4, 17184, Note_on_c, 1, 66, 64
4, 17273, Note_on_c, 1, 66, 0
4, 17296, Note_on_c, 1, 62, 64
4, 17311, Note_on_c, 1, 62, 0
4, 17312, Note_on_c, 1, 63, 64
4, 17327, Note_on_c, 1, 63, 0
4, 17328, Note_on_c, 1, 65, 64
4, 17343, Note_on_c, 1, 65, 0
4, 17344, Note_on_c, 1, 63, 64
4, 17359, Note_on_c, 1, 63, 0
4, 17360, Note_on_c, 1, 62, 64
4, 17375, Note_on_c, 1, 62, 0
4, 17376, Note_on_c, 1, 68, 64
4, 17472, Note_on_c, 1, 68, 0
4, 17472, Note_on_c, 1, 62, 64
4, 17472, Note_on_c, 1, 59, 64
4, 17561, Note_on_c, 1, 62, 0
4, 17561, Note_on_c, 1, 59, 0
4, 17568, Note_on_c, 1, 64, 64
4, 17657, Note_on_c, 1, 64, 0
4, 17760, Note_on_c, 1, 43, 64
4, 17775, Note_on_c, 1, 43, 0
4, 17776, Note_on_c, 1, 47, 64
4, 17791, Note_on_c, 1, 47, 0
4, 17792, Note_on_c, 1, 50, 64
4, 17807, Note_on_c, 1, 50, 0
4, 17808, Note_on_c, 1, 55, 64
4, 17823, Note_on_c, 1, 55, 0
4, 17824, Note_on_c, 1, 59, 64
4, 17839, Note_on_c, 1, 59, 0
4, 17840, Note_on_c, 1, 55, 64
4, 17855, Note_on_c, 1, 55, 0
4, 17856, Note_on_c, 1, 60, 64
4, 17876, Note_on_c, 1, 60, 0
4, 17904, Note_on_c, 1, 53, 64
4, 17924, Note_on_c, 1, 53, 0
4, 17952, Note_on_c, 1, 52, 64
4, 17952, Note_on_c, 1, 43, 64
4, 18048, Note_on_c, 1, 52, 0
4, 18048, Note_on_c, 1, 50, 64
4, 18137, Note_on_c, 1, 50, 0
4, 18137, Note_on_c, 1, 43, 0
4, 18144, Note_on_c, 1, 52, 64
4, 18144, Note_on_c, 1, 48, 64
4, 18233, Note_on_c, 1, 52, 0
4, 18233, Note_on_c, 1, 48, 0
4, 18336, Note_on_c, 1, 55, 64
4, 18351, Note_on_c, 1, 55, 0
4, 18352, Note_on_c, 1, 59, 64
4, 18367, Note_on_c, 1, 59, 0
4, 18368, Note_on_c, 1, 62, 64
4, 18383, Note_on_c, 1, 62, 0
4, 18384, Note_on_c, 1, 67, 64
4, 18399, Note_on_c, 1, 67, 0
4, 18400, Note_on_c, 1, 71, 64
4, 18415, Note_on_c, 1, 71, 0
4, 18416, Note_on_c, 1, 67, 64
4, 18431, Note_on_c, 1, 67, 0
4, 18432, Note_on_c, 1, 72, 64
4, 18477, Note_on_c, 1, 72, 0
4, 18480, Note_on_c, 1, 65, 64
4, 18525, Note_on_c, 1, 65, 0
4, 18528, Note_on_c, 1, 64, 64
4, 18528, Note_on_c, 1, 55, 64
4, 18617, Note_on_c, 1, 64, 0
4, 18617, Note_on_c, 1, 55, 0
4, 18624, Note_on_c, 1, 43, 64
4, 18713, Note_on_c, 1, 43, 0
4, 18720, Note_on_c, 1, 45, 64
4, 18985, Note_on_c, 1, 45, 0
4, 19008, Note_on_c, 1, 41, 64
4, 19008, Note_on_c, 1, 29, 64
4, 19273, Note_on_c, 1, 41, 0
4, 19273, Note_on_c, 1, 29, 0
4, 19296, Note_on_c, 1, 52, 64
4, 19296, Note_on_c, 1, 48, 64
4, 19296, Note_on_c, 1, 43, 64
4, 19341, Note_on_c, 1, 52, 0
4, 19341, Note_on_c, 1, 48, 0
4, 19341, Note_on_c, 1, 43, 0
4, 19392, Note_on_c, 1, 64, 64
4, 19392, Note_on_c, 1, 60, 64
4, 19392, Note_on_c, 1, 55, 64
4, 19437, Note_on_c, 1, 64, 0
4, 19437, Note_on_c, 1, 60, 0
4, 19437, Note_on_c, 1, 55, 0
4, 19488, Note_on_c, 1, 65, 64
4, 19488, Note_on_c, 1, 62, 64
4, 19488, Note_on_c, 1, 59, 64
4, 19488, Note_on_c, 1, 55, 64
4, 19577, Note_on_c, 1, 65, 0
4, 19577, Note_on_c, 1, 62, 0
4, 19577, Note_on_c, 1, 59, 0
4, 19577, Note_on_c, 1, 55, 0
4, 19584, Note_on_c, 1, 64, 64
4, 19584, Note_on_c, 1, 60, 64
4, 19584, Note_on_c, 1, 57, 64
4, 19673, Note_on_c, 1, 64, 0
4, 19673, Note_on_c, 1, 60, 0
4, 19673, Note_on_c, 1, 57, 0
4, 19680, Note_on_c, 1, 64, 64
4, 19680, Note_on_c, 1, 60, 64
4, 19680, Note_on_c, 1, 55, 64
4, 19769, Note_on_c, 1, 64, 0
4, 19769, Note_on_c, 1, 60, 0
4, 19769, Note_on_c, 1, 55, 0
4, 19776, Note_on_c, 1, 63, 64
4, 19776, Note_on_c, 1, 60, 64
4, 19776, Note_on_c, 1, 54, 64
4, 19865, Note_on_c, 1, 63, 0
4, 19865, Note_on_c, 1, 60, 0
4, 19865, Note_on_c, 1, 54, 0
4, 19872, Note_on_c, 1, 64, 64
4, 19872, Note_on_c, 1, 60, 64
4, 19872, Note_on_c, 1, 55, 64
4, 20137, Note_on_c, 1, 64, 0
4, 20137, Note_on_c, 1, 60, 0
4, 20137, Note_on_c, 1, 55, 0
4, 20160, Note_on_c, 1, 43, 64
4, 20249, Note_on_c, 1, 43, 0
4, 20368, Note_on_c, 1, 69, 64
4, 20383, Note_on_c, 1, 69, 0
4, 20384, Note_on_c, 1, 67, 64
4, 20399, Note_on_c, 1, 67, 0
4, 20400, Note_on_c, 1, 65, 64
4, 20415, Note_on_c, 1, 65, 0
4, 20416, Note_on_c, 1, 64, 64
4, 20431, Note_on_c, 1, 64, 0
4, 20432, Note_on_c, 1, 62, 64
4, 20447, Note_on_c, 1, 62, 0
4, 20448, Note_on_c, 1, 60, 64
4, 20463, Note_on_c, 1, 60, 0
4, 20464, Note_on_c, 1, 64, 64
4, 20479, Note_on_c, 1, 64, 0
4, 20480, Note_on_c, 1, 62, 64
4, 20495, Note_on_c, 1, 62, 0
4, 20496, Note_on_c, 1, 60, 64
4, 20511, Note_on_c, 1, 60, 0
4, 20512, Note_on_c, 1, 67, 64
4, 20527, Note_on_c, 1, 67, 0
4, 20528, Note_on_c, 1, 65, 64
4, 20543, Note_on_c, 1, 65, 0
4, 20544, Note_on_c, 1, 64, 64
4, 20559, Note_on_c, 1, 64, 0
4, 20560, Note_on_c, 1, 70, 64
4, 20575, Note_on_c, 1, 70, 0
4, 20576, Note_on_c, 1, 69, 64
4, 20591, Note_on_c, 1, 69, 0
4, 20592, Note_on_c, 1, 67, 64
4, 20607, Note_on_c, 1, 67, 0
4, 20608, Note_on_c, 1, 65, 64
4, 20623, Note_on_c, 1, 65, 0
4, 20624, Note_on_c, 1, 64, 64
4, 20639, Note_on_c, 1, 64, 0
4, 20640, Note_on_c, 1, 62, 64
4, 20655, Note_on_c, 1, 62, 0
4, 20656, Note_on_c, 1, 60, 64
4, 20671, Note_on_c, 1, 60, 0
4, 20672, Note_on_c, 1, 58, 64
4, 20687, Note_on_c, 1, 58, 0
4, 20688, Note_on_c, 1, 57, 64
4, 20703, Note_on_c, 1, 57, 0
4, 20704, Note_on_c, 1, 58, 64
4, 20719, Note_on_c, 1, 58, 0
4, 20720, Note_on_c, 1, 55, 64
4, 20735, Note_on_c, 1, 55, 0
4, 20752, Note_on_c, 1, 57, 64
4, 20767, Note_on_c, 1, 57, 0
4, 20768, Note_on_c, 1, 61, 64
4, 20783, Note_on_c, 1, 61, 0
4, 20784, Note_on_c, 1, 62, 64
4, 20829, Note_on_c, 1, 62, 0
4, 20848, Note_on_c, 1, 55, 64
4, 20863, Note_on_c, 1, 55, 0
4, 20864, Note_on_c, 1, 58, 64
4, 20879, Note_on_c, 1, 58, 0
4, 20880, Note_on_c, 1, 61, 64
4, 21022, Note_on_c, 1, 61, 0
4, 21040, Note_on_c, 1, 57, 64
4, 21055, Note_on_c, 1, 57, 0
4, 21056, Note_on_c, 1, 61, 64
4, 21071, Note_on_c, 1, 61, 0
4, 21072, Note_on_c, 1, 62, 64
4, 21117, Note_on_c, 1, 62, 0
4, 21136, Note_on_c, 1, 55, 64
4, 21151, Note_on_c, 1, 55, 0
4, 21152, Note_on_c, 1, 58, 64
4, 21167, Note_on_c, 1, 58, 0
4, 21168, Note_on_c, 1, 61, 64
4, 21310, Note_on_c, 1, 61, 0
4, 21328, Note_on_c, 1, 57, 64
4, 21343, Note_on_c, 1, 57, 0
4, 21344, Note_on_c, 1, 60, 64
4, 21359, Note_on_c, 1, 60, 0
4, 21360, Note_on_c, 1, 63, 64
4, 21585, Note_on_c, 1, 63, 0
4, 21616, Note_on_c, 1, 59, 64
4, 21631, Note_on_c, 1, 59, 0
4, 21632, Note_on_c, 1, 63, 64
4, 21647, Note_on_c, 1, 63, 0
4, 21648, Note_on_c, 1, 64, 64
4, 21693, Note_on_c, 1, 64, 0
4, 21712, Note_on_c, 1, 59, 64
4, 21727, Note_on_c, 1, 59, 0
4, 21728, Note_on_c, 1, 62, 64
4, 21743, Note_on_c, 1, 62, 0
4, 21744, Note_on_c, 1, 65, 64
4, 21881, Note_on_c, 1, 65, 0
4, 22176, Note_on_c, 1, 77, 64
4, 22176, Note_on_c, 1, 74, 64
4, 22353, Note_on_c, 1, 77, 0
4, 22353, Note_on_c, 1, 74, 0
4, 22368, Note_on_c, 1, 75, 64
4, 22368, Note_on_c, 1, 72, 64
4, 22457, Note_on_c, 1, 75, 0
4, 22457, Note_on_c, 1, 72, 0
4, 22464, Note_on_c, 1, 77, 64
4, 22464, Note_on_c, 1, 74, 64
4, 22641, Note_on_c, 1, 77, 0
4, 22641, Note_on_c, 1, 74, 0
4, 22656, Note_on_c, 1, 75, 64
4, 22656, Note_on_c, 1, 72, 64
4, 22701, Note_on_c, 1, 75, 0
4, 22701, Note_on_c, 1, 72, 0
4, 22704, Note_on_c, 1, 72, 64
4, 22749, Note_on_c, 1, 72, 0
4, 22752, Note_on_c, 1, 71, 64
4, 22797, Note_on_c, 1, 71, 0
4, 22800, Note_on_c, 1, 70, 64
4, 22845, Note_on_c, 1, 70, 0
4, 22848, Note_on_c, 1, 69, 64
4, 22893, Note_on_c, 1, 69, 0
4, 22896, Note_on_c, 1, 67, 64
4, 22941, Note_on_c, 1, 67, 0
4, 22944, Note_on_c, 1, 66, 64
4, 22989, Note_on_c, 1, 66, 0
4, 22992, Note_on_c, 1, 66, 64
4, 23037, Note_on_c, 1, 66, 0
4, 23040, Note_on_c, 1, 67, 64
4, 23129, Note_on_c, 1, 67, 0
4, 23136, Note_on_c, 1, 55, 64
4, 23225, Note_on_c, 1, 55, 0
4, 23232, Note_on_c, 1, 43, 64
4, 23321, Note_on_c, 1, 43, 0
4, 23424, Note_on_c, 1, 83, 64
4, 23436, Note_on_c, 1, 83, 0
4, 23436, Note_on_c, 1, 84, 64
4, 23448, Note_on_c, 1, 84, 0
4, 23448, Note_on_c, 1, 83, 64
4, 23460, Note_on_c, 1, 83, 0
4, 23460, Note_on_c, 1, 84, 64
4, 23472, Note_on_c, 1, 84, 0
4, 23472, Note_on_c, 1, 83, 64
4, 23484, Note_on_c, 1, 83, 0
4, 23484, Note_on_c, 1, 84, 64
4, 23496, Note_on_c, 1, 84, 0
4, 23496, Note_on_c, 1, 83, 64
4, 23508, Note_on_c, 1, 83, 0
4, 23508, Note_on_c, 1, 84, 64
4, 23520, Note_on_c, 1, 84, 0
4, 23520, Note_on_c, 1, 83, 64
4, 23532, Note_on_c, 1, 83, 0
4, 23532, Note_on_c, 1, 84, 64
4, 23544, Note_on_c, 1, 84, 0
4, 23544, Note_on_c, 1, 83, 64
4, 23556, Note_on_c, 1, 83, 0
4, 23556, Note_on_c, 1, 84, 64
4, 23568, Note_on_c, 1, 84, 0
4, 23568, Note_on_c, 1, 83, 64
4, 23580, Note_on_c, 1, 83, 0
4, 23580, Note_on_c, 1, 84, 64
4, 23592, Note_on_c, 1, 84, 0
4, 23592, Note_on_c, 1, 83, 64
4, 23601, Note_on_c, 1, 83, 0
4, 23616, Note_on_c, 1, 48, 64
4, 23631, Note_on_c, 1, 48, 0
4, 23632, Note_on_c, 1, 52, 64
4, 23647, Note_on_c, 1, 52, 0
4, 23648, Note_on_c, 1, 55, 64
4, 23663, Note_on_c, 1, 55, 0
4, 23664, Note_on_c, 1, 48, 64
4, 23679, Note_on_c, 1, 48, 0
4, 23680, Note_on_c, 1, 52, 64
4, 23695, Note_on_c, 1, 52, 0
4, 23696, Note_on_c, 1, 55, 64
4, 23711, Note_on_c, 1, 55, 0
4, 23712, Note_on_c, 1, 48, 64
4, 23727, Note_on_c, 1, 48, 0
4, 23728, Note_on_c, 1, 52, 64
4, 23743, Note_on_c, 1, 52, 0
4, 23744, Note_on_c, 1, 55, 64
4, 23759, Note_on_c, 1, 55, 0
4, 23760, Note_on_c, 1, 48, 64
4, 23775, Note_on_c, 1, 48, 0
4, 23776, Note_on_c, 1, 52, 64
4, 23791, Note_on_c, 1, 52, 0
4, 23792, Note_on_c, 1, 55, 64
4, 23807, Note_on_c, 1, 55, 0
4, 23808, Note_on_c, 1, 48, 64
4, 23823, Note_on_c, 1, 48, 0
4, 23824, Note_on_c, 1, 52, 64
4, 23839, Note_on_c, 1, 52, 0
4, 23840, Note_on_c, 1, 55, 64
4, 23855, Note_on_c, 1, 55, 0
4, 23856, Note_on_c, 1, 48, 64
4, 23871, Note_on_c, 1, 48, 0
4, 23872, Note_on_c, 1, 52, 64
4, 23887, Note_on_c, 1, 52, 0
4, 23888, Note_on_c, 1, 55, 64
4, 23903, Note_on_c, 1, 55, 0
4, 23904, Note_on_c, 1, 48, 64
4, 23919, Note_on_c, 1, 48, 0
4, 23920, Note_on_c, 1, 53, 64
4, 23935, Note_on_c, 1, 53, 0
4, 23936, Note_on_c, 1, 57, 64
4, 23951, Note_on_c, 1, 57, 0
4, 23952, Note_on_c, 1, 48, 64
4, 23967, Note_on_c, 1, 48, 0
4, 23968, Note_on_c, 1, 53, 64
4, 23983, Note_on_c, 1, 53, 0
4, 23984, Note_on_c, 1, 57, 64
4, 23999, Note_on_c, 1, 57, 0
4, 24000, Note_on_c, 1, 48, 64
4, 24015, Note_on_c, 1, 48, 0
4, 24016, Note_on_c, 1, 53, 64
4, 24031, Note_on_c, 1, 53, 0
4, 24032, Note_on_c, 1, 57, 64
4, 24047, Note_on_c, 1, 57, 0
4, 24048, Note_on_c, 1, 48, 64
4, 24063, Note_on_c, 1, 48, 0
4, 24064, Note_on_c, 1, 53, 64
4, 24079, Note_on_c, 1, 53, 0
4, 24080, Note_on_c, 1, 57, 64
4, 24095, Note_on_c, 1, 57, 0
4, 24096, Note_on_c, 1, 48, 64
4, 24111, Note_on_c, 1, 48, 0
4, 24112, Note_on_c, 1, 50, 64
4, 24127, Note_on_c, 1, 50, 0
4, 24128, Note_on_c, 1, 53, 64
4, 24143, Note_on_c, 1, 53, 0
4, 24144, Note_on_c, 1, 48, 64
4, 24159, Note_on_c, 1, 48, 0
4, 24160, Note_on_c, 1, 50, 64
4, 24175, Note_on_c, 1, 50, 0
4, 24176, Note_on_c, 1, 53, 64
4, 24191, Note_on_c, 1, 53, 0
4, 24192, Note_on_c, 1, 48, 64
4, 24288, Note_on_c, 1, 43, 64
4, 24288, Note_on_c, 1, 40, 64
4, 24288, Note_on_c, 1, 36, 64
4, 24465, Note_on_c, 1, 48, 0
4, 24465, Note_on_c, 1, 43, 0
4, 24465, Note_on_c, 1, 40, 0
4, 24465, Note_on_c, 1, 36, 0
4, 24480, End_track
5, 0, Start_track
5, 0, Program_c, 1, 0
5, 0, Control_c, 1, 7, 127
5, 0, Control_c, 1, 10, 64
5, 96, Note_on_c, 1, 64, 64
5, 96, Note_on_c, 1, 60, 64
5, 185, Note_on_c, 1, 64, 0
5, 185, Note_on_c, 1, 60, 0
5, 192, Note_on_c, 1, 67, 64
5, 192, Note_on_c, 1, 62, 64
5, 212, Note_on_c, 1, 67, 0
5, 212, Note_on_c, 1, 62, 0
5, 624, Note_on_c, 1, 57, 64
5, 669, Note_on_c, 1, 57, 0
5, 672, Note_on_c, 1, 55, 64
5, 717, Note_on_c, 1, 55, 0
5, 720, Note_on_c, 1, 53, 64
5, 765, Note_on_c, 1, 53, 0
5, 768, Note_on_c, 1, 52, 64
5, 857, Note_on_c, 1, 52, 0
5, 864, Note_on_c, 1, 53, 64
5, 953, Note_on_c, 1, 53, 0
5, 960, Note_on_c, 1, 55, 64
5, 1137, Note_on_c, 1, 55, 0
5, 1152, Note_on_c, 1, 60, 64
5, 1293, Note_on_c, 1, 60, 0
5, 3744, Note_on_c, 1, 57, 64
5, 4009, Note_on_c, 1, 57, 0
5, 4032, Note_on_c, 1, 50, 64
5, 4209, Note_on_c, 1, 50, 0
5, 4224, Note_on_c, 1, 50, 64
5, 4313, Note_on_c, 1, 50, 0
5, 4320, Note_on_c, 1, 55, 64
5, 4409, Note_on_c, 1, 55, 0
5, 5472, Note_on_c, 1, 40, 64
5, 5737, Note_on_c, 1, 40, 0
5, 6720, Note_on_c, 1, 64, 64
5, 6720, Note_on_c, 1, 60, 64
5, 6809, Note_on_c, 1, 64, 0
5, 6809, Note_on_c, 1, 60, 0
5, 6816, Note_on_c, 1, 67, 64
5, 6816, Note_on_c, 1, 62, 64
5, 6836, Note_on_c, 1, 67, 0
5, 6836, Note_on_c, 1, 62, 0
5, 7248, Note_on_c, 1, 57, 64
5, 7293, Note_on_c, 1, 57, 0
5, 7296, Note_on_c, 1, 55, 64
5, 7341, Note_on_c, 1, 55, 0
5, 7344, Note_on_c, 1, 53, 64
5, 7389, Note_on_c, 1, 53, 0
5, 7392, Note_on_c, 1, 52, 64
5, 7481, Note_on_c, 1, 52, 0
5, 7488, Note_on_c, 1, 53, 64
5, 7577, Note_on_c, 1, 53, 0
5, 7584, Note_on_c, 1, 55, 64
5, 7761, Note_on_c, 1, 55, 0
5, 7776, Note_on_c, 1, 60, 64
5, 7917, Note_on_c, 1, 60, 0
5, 10368, Note_on_c, 1, 57, 64
5, 10633, Note_on_c, 1, 57, 0
5, 10656, Note_on_c, 1, 50, 64
5, 10833, Note_on_c, 1, 50, 0
5, 10848, Note_on_c, 1, 50, 64
5, 10937, Note_on_c, 1, 50, 0
5, 10944, Note_on_c, 1, 55, 64
5, 11033, Note_on_c, 1, 55, 0
5, 12096, Note_on_c, 1, 40, 64
5, 12361, Note_on_c, 1, 40, 0
5, 14688, Note_on_c, 1, 65, 64
5, 14865, Note_on_c, 1, 65, 0
5, 14880, Note_on_c, 1, 66, 64
5, 14969, Note_on_c, 1, 66, 0
5, 14976, Note_on_c, 1, 67, 64
5, 15065, Note_on_c, 1, 67, 0
5, 15072, Note_on_c, 1, 55, 64
5, 15087, Note_on_c, 1, 55, 0
5, 15088, Note_on_c, 1, 65, 64
5, 15088, Note_on_c, 1, 62, 64
5, 15103, Note_on_c, 1, 65, 0
5, 15103, Note_on_c, 1, 62, 0
5, 15104, Note_on_c, 1, 64, 64
5, 15104, Note_on_c, 1, 60, 64
5, 15119, Note_on_c, 1, 64, 0
5, 15119, Note_on_c, 1, 60, 0
5, 15120, Note_on_c, 1, 62, 64
5, 15120, Note_on_c, 1, 59, 64
5, 15127, Note_on_c, 1, 62, 0
5, 15127, Note_on_c, 1, 59, 0
5, 15136, Note_on_c, 1, 62, 64
5, 15136, Note_on_c, 1, 59, 64
5, 15151, Note_on_c, 1, 62, 0
5, 15151, Note_on_c, 1, 59, 0
5, 15152, Note_on_c, 1, 60, 64
5, 15152, Note_on_c, 1, 57, 64
5, 15167, Note_on_c, 1, 60, 0
5, 15167, Note_on_c, 1, 57, 0
5, 15168, Note_on_c, 1, 59, 64
5, 15168, Note_on_c, 1, 55, 64
5, 15175, Note_on_c, 1, 59, 0
5, 15175, Note_on_c, 1, 55, 0
5, 15184, Note_on_c, 1, 59, 64
5, 15184, Note_on_c, 1, 55, 64
5, 15199, Note_on_c, 1, 59, 0
5, 15199, Note_on_c, 1, 55, 0
5, 15200, Note_on_c, 1, 57, 64
5, 15200, Note_on_c, 1, 53, 64
5, 15215, Note_on_c, 1, 57, 0
5, 15215, Note_on_c, 1, 53, 0
5, 15216, Note_on_c, 1, 55, 64
5, 15216, Note_on_c, 1, 52, 64
5, 15223, Note_on_c, 1, 55, 0
5, 15223, Note_on_c, 1, 52, 0
5, 15232, Note_on_c, 1, 55, 64
5, 15232, Note_on_c, 1, 52, 64
5, 15247, Note_on_c, 1, 55, 0
5, 15247, Note_on_c, 1, 52, 0
5, 15248, Note_on_c, 1, 53, 64
5, 15248, Note_on_c, 1, 50, 64
5, 15263, Note_on_c, 1, 53, 0
5, 15263, Note_on_c, 1, 50, 0
5, 16992, Note_on_c, 1, 62, 64
5, 17257, Note_on_c, 1, 62, 0
5, 17280, Note_on_c, 1, 55, 64
5, 17457, Note_on_c, 1, 55, 0
5, 17472, Note_on_c, 1, 55, 64
5, 17561, Note_on_c, 1, 55, 0
5, 17568, Note_on_c, 1, 60, 64
5, 17657, Note_on_c, 1, 60, 0
5, 18816, Note_on_c, 1, 33, 64
5, 18993, Note_on_c, 1, 33, 0
5, 20736, Note_on_c, 1, 53, 64
5, 20825, Note_on_c, 1, 53, 0
5, 20832, Note_on_c, 1, 52, 64
5, 21009, Note_on_c, 1, 52, 0
5, 21024, Note_on_c, 1, 53, 64
5, 21113, Note_on_c, 1, 53, 0
5, 21120, Note_on_c, 1, 52, 64
5, 21297, Note_on_c, 1, 52, 0
5, 21312, Note_on_c, 1, 54, 64
5, 21577, Note_on_c, 1, 54, 0
5, 21600, Note_on_c, 1, 55, 64
5, 21689, Note_on_c, 1, 55, 0
5, 21696, Note_on_c, 1, 55, 64
5, 21873, Note_on_c, 1, 55, 0
5, 21904, Note_on_c, 1, 71, 64
5, 21904, Note_on_c, 1, 67, 64
5, 21919, Note_on_c, 1, 71, 0
5, 21919, Note_on_c, 1, 67, 0
5, 21920, Note_on_c, 1, 72, 64
5, 21920, Note_on_c, 1, 69, 64
5, 21935, Note_on_c, 1, 72, 0
5, 21935, Note_on_c, 1, 69, 0
5, 21936, Note_on_c, 1, 74, 64
5, 21936, Note_on_c, 1, 71, 64
5, 21943, Note_on_c, 1, 74, 0
5, 21943, Note_on_c, 1, 71, 0
5, 21952, Note_on_c, 1, 74, 64
5, 21952, Note_on_c, 1, 71, 64
5, 21967, Note_on_c, 1, 74, 0
5, 21967, Note_on_c, 1, 71, 0
5, 21968, Note_on_c, 1, 76, 64
5, 21968, Note_on_c, 1, 72, 64
5, 21983, Note_on_c, 1, 76, 0
5, 21983, Note_on_c, 1, 72, 0
5, 21984, Note_on_c, 1, 77, 64
5, 21984, Note_on_c, 1, 74, 64
5, 22073, Note_on_c, 1, 77, 0
5, 22073, Note_on_c, 1, 74, 0
5, 22096, Note_on_c, 1, 71, 64
5, 22096, Note_on_c, 1, 67, 64
5, 22111, Note_on_c, 1, 71, 0
5, 22111, Note_on_c, 1, 67, 0
5, 22112, Note_on_c, 1, 72, 64
5, 22112, Note_on_c, 1, 69, 64
5, 22127, Note_on_c, 1, 72, 0
5, 22127, Note_on_c, 1, 69, 0
5, 22128, Note_on_c, 1, 74, 64
5, 22128, Note_on_c, 1, 71, 64
5, 22135, Note_on_c, 1, 74, 0
5, 22135, Note_on_c, 1, 71, 0
5, 22144, Note_on_c, 1, 74, 64
5, 22144, Note_on_c, 1, 71, 64
5, 22159, Note_on_c, 1, 74, 0
5, 22159, Note_on_c, 1, 71, 0
5, 22160, Note_on_c, 1, 76, 64
5, 22160, Note_on_c, 1, 72, 64
5, 22175, Note_on_c, 1, 76, 0
5, 22175, Note_on_c, 1, 72, 0
5, 24480, End_track
6, 0, Start_track
6, 0, Title_t, "Piano Solo   <composer>  "
6, 0, End_track
0, 0, End_of_file
