0, 0, Header, 1, 6, 96
1, 0, Start_track
1, 0, Copyright_t, "Copyright  2000 <copyright holder>"
1, 0, Text_t, "Sonata III\015\012"
1, 0, Text_t, "Haydn\015\012"
1, 0, Sequencer_specific, 16, 68, 87, 77, 90, 86, 82, 83, 78, 32, 55, 46, 49, 46, 50, 46, 48
1, 0, Time_signature, 2, 2, 24, 8
1, 0, Tempo, 600000
1, 0, Key_signature, 3, "major"
1, 6144, Key_signature, 0, "major"
1, 11520, Key_signature, 3, "major"
1, 18432, Key_signature, 0, "major"
1, 23808, Key_signature, 3, "major"
1, 32448, Tempo, 638297
1, 32640, Tempo, 750000
1, 32928, End_track
2, 0, Start_track
2, 0, Program_c, 0, 0
2, 0, Control_c, 0, 7, 127
2, 0, Control_c, 0, 10, 64
2, 96, Note_on_c, 0, 73, 80
2, 163, Note_on_c, 0, 73, 0
2, 168, Note_on_c, 0, 74, 80
2, 180, Note_on_c, 0, 74, 0
2, 180, Note_on_c, 0, 76, 80
2, 192, Note_on_c, 0, 76, 0
2, 192, Note_on_c, 0, 69, 80
2, 237, Note_on_c, 0, 69, 0
2, 240, Note_on_c, 0, 69, 80
2, 285, Note_on_c, 0, 69, 0
2, 288, Note_on_c, 0, 73, 80
2, 311, Note_on_c, 0, 73, 0
2, 312, Note_on_c, 0, 71, 80
2, 335, Note_on_c, 0, 71, 0
2, 336, Note_on_c, 0, 69, 80
2, 359, Note_on_c, 0, 69, 0
2, 360, Note_on_c, 0, 71, 80
2, 383, Note_on_c, 0, 71, 0
2, 384, Note_on_c, 0, 69, 80
2, 429, Note_on_c, 0, 69, 0
2, 480, Note_on_c, 0, 78, 80
2, 547, Note_on_c, 0, 78, 0
2, 552, Note_on_c, 0, 80, 80
2, 564, Note_on_c, 0, 80, 0
2, 564, Note_on_c, 0, 81, 80
2, 576, Note_on_c, 0, 81, 0
2, 576, Note_on_c, 0, 76, 80
2, 621, Note_on_c, 0, 76, 0
2, 624, Note_on_c, 0, 76, 81
2, 669, Note_on_c, 0, 76, 0
2, 672, Note_on_c, 0, 74, 82
2, 678, Note_on_c, 0, 74, 0
2, 678, Note_on_c, 0, 76, 82
2, 684, Note_on_c, 0, 76, 0
2, 684, Note_on_c, 0, 74, 82
2, 717, Note_on_c, 0, 74, 0
2, 720, Note_on_c, 0, 73, 83
2, 765, Note_on_c, 0, 73, 0
2, 768, Note_on_c, 0, 71, 85
2, 768, Note_on_c, 0, 68, 85
2, 857, Note_on_c, 0, 71, 0
2, 857, Note_on_c, 0, 68, 0
2, 864, Note_on_c, 0, 76, 80
2, 931, Note_on_c, 0, 76, 0
2, 936, Note_on_c, 0, 78, 80
2, 948, Note_on_c, 0, 78, 0
2, 948, Note_on_c, 0, 80, 80
2, 960, Note_on_c, 0, 80, 0
2, 960, Note_on_c, 0, 78, 80
2, 1005, Note_on_c, 0, 78, 0
2, 1008, Note_on_c, 0, 78, 80
2, 1053, Note_on_c, 0, 78, 0
2, 1056, Note_on_c, 0, 76, 80
2, 1079, Note_on_c, 0, 76, 0
2, 1080, Note_on_c, 0, 75, 80
2, 1103, Note_on_c, 0, 75, 0
2, 1104, Note_on_c, 0, 73, 80
2, 1127, Note_on_c, 0, 73, 0
2, 1128, Note_on_c, 0, 71, 80
2, 1151, Note_on_c, 0, 71, 0
2, 1152, Note_on_c, 0, 83, 80
2, 1197, Note_on_c, 0, 83, 0
2, 1200, Note_on_c, 0, 83, 80
2, 1245, Note_on_c, 0, 83, 0
2, 1248, Note_on_c, 0, 81, 80
2, 1271, Note_on_c, 0, 81, 0
2, 1272, Note_on_c, 0, 80, 80
2, 1295, Note_on_c, 0, 80, 0
2, 1296, Note_on_c, 0, 78, 80
2, 1319, Note_on_c, 0, 78, 0
2, 1320, Note_on_c, 0, 76, 80
2, 1343, Note_on_c, 0, 76, 0
2, 1344, Note_on_c, 0, 81, 80
2, 1389, Note_on_c, 0, 81, 0
2, 1392, Note_on_c, 0, 81, 80
2, 1437, Note_on_c, 0, 81, 0
2, 1440, Note_on_c, 0, 80, 80
2, 1463, Note_on_c, 0, 80, 0
2, 1464, Note_on_c, 0, 78, 80
2, 1487, Note_on_c, 0, 78, 0
2, 1488, Note_on_c, 0, 76, 80
2, 1511, Note_on_c, 0, 76, 0
2, 1512, Note_on_c, 0, 75, 80
2, 1535, Note_on_c, 0, 75, 0
2, 1536, Note_on_c, 0, 76, 80
2, 1625, Note_on_c, 0, 76, 0
2, 1632, Note_on_c, 0, 73, 80
2, 1699, Note_on_c, 0, 73, 0
2, 1704, Note_on_c, 0, 74, 80
2, 1716, Note_on_c, 0, 74, 0
2, 1716, Note_on_c, 0, 76, 80
2, 1728, Note_on_c, 0, 76, 0
2, 1728, Note_on_c, 0, 69, 80
2, 1773, Note_on_c, 0, 69, 0
2, 1776, Note_on_c, 0, 69, 80
2, 1821, Note_on_c, 0, 69, 0
2, 1824, Note_on_c, 0, 73, 80
2, 1847, Note_on_c, 0, 73, 0
2, 1848, Note_on_c, 0, 71, 80
2, 1871, Note_on_c, 0, 71, 0
2, 1872, Note_on_c, 0, 69, 80
2, 1895, Note_on_c, 0, 69, 0
2, 1896, Note_on_c, 0, 71, 80
2, 1919, Note_on_c, 0, 71, 0
2, 1920, Note_on_c, 0, 69, 80
2, 1965, Note_on_c, 0, 69, 0
2, 2016, Note_on_c, 0, 78, 80
2, 2083, Note_on_c, 0, 78, 0
2, 2088, Note_on_c, 0, 80, 80
2, 2100, Note_on_c, 0, 80, 0
2, 2100, Note_on_c, 0, 81, 80
2, 2112, Note_on_c, 0, 81, 0
2, 2112, Note_on_c, 0, 76, 80
2, 2157, Note_on_c, 0, 76, 0
2, 2160, Note_on_c, 0, 76, 81
2, 2205, Note_on_c, 0, 76, 0
2, 2208, Note_on_c, 0, 74, 82
2, 2214, Note_on_c, 0, 74, 0
2, 2214, Note_on_c, 0, 76, 82
2, 2220, Note_on_c, 0, 76, 0
2, 2220, Note_on_c, 0, 74, 82
2, 2253, Note_on_c, 0, 74, 0
2, 2256, Note_on_c, 0, 73, 83
2, 2301, Note_on_c, 0, 73, 0
2, 2304, Note_on_c, 0, 71, 85
2, 2304, Note_on_c, 0, 68, 85
2, 2393, Note_on_c, 0, 71, 0
2, 2393, Note_on_c, 0, 68, 0
2, 2400, Note_on_c, 0, 76, 80
2, 2467, Note_on_c, 0, 76, 0
2, 2472, Note_on_c, 0, 78, 80
2, 2484, Note_on_c, 0, 78, 0
2, 2484, Note_on_c, 0, 80, 80
2, 2496, Note_on_c, 0, 80, 0
2, 2496, Note_on_c, 0, 78, 80
2, 2541, Note_on_c, 0, 78, 0
2, 2544, Note_on_c, 0, 78, 80
2, 2589, Note_on_c, 0, 78, 0
2, 2592, Note_on_c, 0, 76, 80
2, 2615, Note_on_c, 0, 76, 0
2, 2616, Note_on_c, 0, 75, 80
2, 2639, Note_on_c, 0, 75, 0
2, 2640, Note_on_c, 0, 73, 80
2, 2663, Note_on_c, 0, 73, 0
2, 2664, Note_on_c, 0, 71, 80
2, 2687, Note_on_c, 0, 71, 0
2, 2688, Note_on_c, 0, 83, 80
2, 2733, Note_on_c, 0, 83, 0
2, 2736, Note_on_c, 0, 83, 80
2, 2781, Note_on_c, 0, 83, 0
2, 2784, Note_on_c, 0, 81, 80
2, 2807, Note_on_c, 0, 81, 0
2, 2808, Note_on_c, 0, 80, 80
2, 2831, Note_on_c, 0, 80, 0
2, 2832, Note_on_c, 0, 78, 80
2, 2855, Note_on_c, 0, 78, 0
2, 2856, Note_on_c, 0, 76, 80
2, 2879, Note_on_c, 0, 76, 0
2, 2880, Note_on_c, 0, 81, 80
2, 2925, Note_on_c, 0, 81, 0
2, 2928, Note_on_c, 0, 81, 80
2, 2973, Note_on_c, 0, 81, 0
2, 2976, Note_on_c, 0, 80, 80
2, 2999, Note_on_c, 0, 80, 0
2, 3000, Note_on_c, 0, 78, 80
2, 3023, Note_on_c, 0, 78, 0
2, 3024, Note_on_c, 0, 76, 80
2, 3047, Note_on_c, 0, 76, 0
2, 3048, Note_on_c, 0, 75, 80
2, 3071, Note_on_c, 0, 75, 0
2, 3072, Note_on_c, 0, 76, 80
2, 3161, Note_on_c, 0, 76, 0
2, 3168, Note_on_c, 0, 76, 80
2, 3235, Note_on_c, 0, 76, 0
2, 3240, Note_on_c, 0, 78, 80
2, 3252, Note_on_c, 0, 78, 0
2, 3252, Note_on_c, 0, 79, 80
2, 3264, Note_on_c, 0, 79, 0
2, 3264, Note_on_c, 0, 73, 80
2, 3309, Note_on_c, 0, 73, 0
2, 3312, Note_on_c, 0, 73, 80
2, 3357, Note_on_c, 0, 73, 0
2, 3360, Note_on_c, 0, 73, 80
2, 3383, Note_on_c, 0, 73, 0
2, 3384, Note_on_c, 0, 71, 80
2, 3407, Note_on_c, 0, 71, 0
2, 3408, Note_on_c, 0, 70, 80
2, 3431, Note_on_c, 0, 70, 0
2, 3432, Note_on_c, 0, 71, 80
2, 3455, Note_on_c, 0, 71, 0
2, 3456, Note_on_c, 0, 71, 80
2, 3504, Note_on_c, 0, 71, 0
2, 3504, Note_on_c, 0, 70, 80
2, 3549, Note_on_c, 0, 70, 0
2, 3552, Note_on_c, 0, 71, 80
2, 3575, Note_on_c, 0, 71, 0
2, 3576, Note_on_c, 0, 73, 80
2, 3599, Note_on_c, 0, 73, 0
2, 3600, Note_on_c, 0, 74, 80
2, 3623, Note_on_c, 0, 74, 0
2, 3624, Note_on_c, 0, 71, 80
2, 3647, Note_on_c, 0, 71, 0
2, 3648, Note_on_c, 0, 68, 80
2, 3671, Note_on_c, 0, 68, 0
2, 3672, Note_on_c, 0, 69, 80
2, 3695, Note_on_c, 0, 69, 0
2, 3696, Note_on_c, 0, 71, 80
2, 3719, Note_on_c, 0, 71, 0
2, 3720, Note_on_c, 0, 68, 81
2, 3743, Note_on_c, 0, 68, 0
2, 3744, Note_on_c, 0, 69, 82
2, 3767, Note_on_c, 0, 69, 0
2, 3768, Note_on_c, 0, 71, 82
2, 3791, Note_on_c, 0, 71, 0
2, 3792, Note_on_c, 0, 73, 83
2, 3815, Note_on_c, 0, 73, 0
2, 3816, Note_on_c, 0, 69, 84
2, 3839, Note_on_c, 0, 69, 0
2, 3840, Note_on_c, 0, 76, 85
2, 3929, Note_on_c, 0, 76, 0
2, 3936, Note_on_c, 0, 73, 80
2, 4003, Note_on_c, 0, 73, 0
2, 4008, Note_on_c, 0, 74, 80
2, 4020, Note_on_c, 0, 74, 0
2, 4020, Note_on_c, 0, 76, 80
2, 4032, Note_on_c, 0, 76, 0
2, 4032, Note_on_c, 0, 69, 80
2, 4077, Note_on_c, 0, 69, 0
2, 4080, Note_on_c, 0, 69, 80
2, 4125, Note_on_c, 0, 69, 0
2, 4128, Note_on_c, 0, 73, 80
2, 4151, Note_on_c, 0, 73, 0
2, 4152, Note_on_c, 0, 71, 80
2, 4175, Note_on_c, 0, 71, 0
2, 4176, Note_on_c, 0, 69, 80
2, 4199, Note_on_c, 0, 69, 0
2, 4200, Note_on_c, 0, 71, 80
2, 4223, Note_on_c, 0, 71, 0
2, 4224, Note_on_c, 0, 69, 80
2, 4269, Note_on_c, 0, 69, 0
2, 4320, Note_on_c, 0, 81, 80
2, 4387, Note_on_c, 0, 81, 0
2, 4392, Note_on_c, 0, 83, 80
2, 4404, Note_on_c, 0, 83, 0
2, 4404, Note_on_c, 0, 85, 80
2, 4416, Note_on_c, 0, 85, 0
2, 4416, Note_on_c, 0, 78, 80
2, 4461, Note_on_c, 0, 78, 0
2, 4464, Note_on_c, 0, 81, 80
2, 4479, Note_on_c, 0, 81, 0
2, 4480, Note_on_c, 0, 78, 80
2, 4495, Note_on_c, 0, 78, 0
2, 4496, Note_on_c, 0, 74, 80
2, 4511, Note_on_c, 0, 74, 0
2, 4512, Note_on_c, 0, 73, 80
2, 4557, Note_on_c, 0, 73, 0
2, 4560, Note_on_c, 0, 71, 80
2, 4566, Note_on_c, 0, 71, 0
2, 4566, Note_on_c, 0, 73, 80
2, 4572, Note_on_c, 0, 73, 0
2, 4572, Note_on_c, 0, 71, 80
2, 4605, Note_on_c, 0, 71, 0
2, 4608, Note_on_c, 0, 69, 80
2, 4697, Note_on_c, 0, 69, 0
2, 4704, Note_on_c, 0, 76, 80
2, 4771, Note_on_c, 0, 76, 0
2, 4776, Note_on_c, 0, 78, 80
2, 4788, Note_on_c, 0, 78, 0
2, 4788, Note_on_c, 0, 79, 80
2, 4800, Note_on_c, 0, 79, 0
2, 4800, Note_on_c, 0, 73, 80
2, 4845, Note_on_c, 0, 73, 0
2, 4848, Note_on_c, 0, 73, 80
2, 4893, Note_on_c, 0, 73, 0
2, 4896, Note_on_c, 0, 73, 80
2, 4919, Note_on_c, 0, 73, 0
2, 4920, Note_on_c, 0, 71, 80
2, 4943, Note_on_c, 0, 71, 0
2, 4944, Note_on_c, 0, 70, 80
2, 4967, Note_on_c, 0, 70, 0
2, 4968, Note_on_c, 0, 71, 80
2, 4991, Note_on_c, 0, 71, 0
2, 4992, Note_on_c, 0, 71, 80
2, 5040, Note_on_c, 0, 71, 0
2, 5040, Note_on_c, 0, 70, 80
2, 5085, Note_on_c, 0, 70, 0
2, 5088, Note_on_c, 0, 71, 80
2, 5111, Note_on_c, 0, 71, 0
2, 5112, Note_on_c, 0, 73, 80
2, 5135, Note_on_c, 0, 73, 0
2, 5136, Note_on_c, 0, 74, 80
2, 5159, Note_on_c, 0, 74, 0
2, 5160, Note_on_c, 0, 71, 80
2, 5183, Note_on_c, 0, 71, 0
2, 5184, Note_on_c, 0, 68, 80
2, 5207, Note_on_c, 0, 68, 0
2, 5208, Note_on_c, 0, 69, 80
2, 5231, Note_on_c, 0, 69, 0
2, 5232, Note_on_c, 0, 71, 80
2, 5255, Note_on_c, 0, 71, 0
2, 5256, Note_on_c, 0, 68, 81
2, 5279, Note_on_c, 0, 68, 0
2, 5280, Note_on_c, 0, 69, 82
2, 5303, Note_on_c, 0, 69, 0
2, 5304, Note_on_c, 0, 71, 82
2, 5327, Note_on_c, 0, 71, 0
2, 5328, Note_on_c, 0, 73, 83
2, 5351, Note_on_c, 0, 73, 0
2, 5352, Note_on_c, 0, 69, 84
2, 5375, Note_on_c, 0, 69, 0
2, 5376, Note_on_c, 0, 76, 85
2, 5465, Note_on_c, 0, 76, 0
2, 5472, Note_on_c, 0, 73, 80
2, 5539, Note_on_c, 0, 73, 0
2, 5544, Note_on_c, 0, 74, 80
2, 5556, Note_on_c, 0, 74, 0
2, 5556, Note_on_c, 0, 76, 80
2, 5568, Note_on_c, 0, 76, 0
2, 5568, Note_on_c, 0, 69, 80
2, 5613, Note_on_c, 0, 69, 0
2, 5616, Note_on_c, 0, 69, 80
2, 5661, Note_on_c, 0, 69, 0
2, 5664, Note_on_c, 0, 73, 80
2, 5687, Note_on_c, 0, 73, 0
2, 5688, Note_on_c, 0, 71, 80
2, 5711, Note_on_c, 0, 71, 0
2, 5712, Note_on_c, 0, 69, 80
2, 5735, Note_on_c, 0, 69, 0
2, 5736, Note_on_c, 0, 71, 80
2, 5759, Note_on_c, 0, 71, 0
2, 5760, Note_on_c, 0, 69, 80
2, 5805, Note_on_c, 0, 69, 0
2, 5856, Note_on_c, 0, 81, 80
2, 5923, Note_on_c, 0, 81, 0
2, 5928, Note_on_c, 0, 83, 80
2, 5940, Note_on_c, 0, 83, 0
2, 5940, Note_on_c, 0, 85, 80
2, 5952, Note_on_c, 0, 85, 0
2, 5952, Note_on_c, 0, 78, 80
2, 5997, Note_on_c, 0, 78, 0
2, 6000, Note_on_c, 0, 81, 80
2, 6015, Note_on_c, 0, 81, 0
2, 6016, Note_on_c, 0, 78, 80
2, 6031, Note_on_c, 0, 78, 0
2, 6032, Note_on_c, 0, 74, 80
2, 6047, Note_on_c, 0, 74, 0
2, 6048, Note_on_c, 0, 73, 80
2, 6093, Note_on_c, 0, 73, 0
2, 6096, Note_on_c, 0, 71, 80
2, 6102, Note_on_c, 0, 71, 0
2, 6102, Note_on_c, 0, 73, 80
2, 6108, Note_on_c, 0, 73, 0
2, 6108, Note_on_c, 0, 71, 80
2, 6141, Note_on_c, 0, 71, 0
2, 6144, Note_on_c, 0, 69, 80
2, 6233, Note_on_c, 0, 69, 0
2, 6240, Note_on_c, 0, 64, 80
2, 6285, Note_on_c, 0, 64, 0
2, 6288, Note_on_c, 0, 72, 80
2, 6311, Note_on_c, 0, 72, 0
2, 6312, Note_on_c, 0, 69, 80
2, 6335, Note_on_c, 0, 69, 0
2, 6336, Note_on_c, 0, 69, 80
2, 6359, Note_on_c, 0, 69, 0
2, 6360, Note_on_c, 0, 68, 80
2, 6383, Note_on_c, 0, 68, 0
2, 6384, Note_on_c, 0, 66, 80
2, 6407, Note_on_c, 0, 66, 0
2, 6408, Note_on_c, 0, 64, 80
2, 6431, Note_on_c, 0, 64, 0
2, 6432, Note_on_c, 0, 76, 80
2, 6432, Note_on_c, 0, 72, 80
2, 6452, Note_on_c, 0, 76, 0
2, 6452, Note_on_c, 0, 72, 0
2, 6480, Note_on_c, 0, 74, 80
2, 6480, Note_on_c, 0, 71, 80
2, 6500, Note_on_c, 0, 74, 0
2, 6500, Note_on_c, 0, 71, 0
2, 6528, Note_on_c, 0, 69, 80
2, 6573, Note_on_c, 0, 69, 0
2, 6576, Note_on_c, 0, 71, 80
2, 6576, Note_on_c, 0, 68, 80
2, 6621, Note_on_c, 0, 71, 0
2, 6621, Note_on_c, 0, 68, 0
2, 6624, Note_on_c, 0, 64, 80
2, 6669, Note_on_c, 0, 64, 0
2, 6672, Note_on_c, 0, 72, 80
2, 6695, Note_on_c, 0, 72, 0
2, 6696, Note_on_c, 0, 69, 80
2, 6719, Note_on_c, 0, 69, 0
2, 6720, Note_on_c, 0, 65, 80
2, 6740, Note_on_c, 0, 65, 0
2, 6768, Note_on_c, 0, 74, 81
2, 6792, Note_on_c, 0, 74, 0
2, 6792, Note_on_c, 0, 71, 82
2, 6815, Note_on_c, 0, 71, 0
2, 6816, Note_on_c, 0, 67, 83
2, 6836, Note_on_c, 0, 67, 0
2, 6864, Note_on_c, 0, 76, 85
2, 6888, Note_on_c, 0, 76, 0
2, 6888, Note_on_c, 0, 72, 86
2, 6911, Note_on_c, 0, 72, 0
2, 6912, Note_on_c, 0, 69, 86
2, 6932, Note_on_c, 0, 69, 0
2, 6960, Note_on_c, 0, 77, 88
2, 6984, Note_on_c, 0, 77, 0
2, 6984, Note_on_c, 0, 74, 89
2, 7007, Note_on_c, 0, 74, 0
2, 7008, Note_on_c, 0, 73, 90
2, 7028, Note_on_c, 0, 73, 0
2, 7056, Note_on_c, 0, 82, 92
2, 7080, Note_on_c, 0, 82, 0
2, 7080, Note_on_c, 0, 79, 92
2, 7103, Note_on_c, 0, 79, 0
2, 7104, Note_on_c, 0, 81, 92
2, 7149, Note_on_c, 0, 81, 0
2, 7152, Note_on_c, 0, 77, 92
2, 7175, Note_on_c, 0, 77, 0
2, 7176, Note_on_c, 0, 74, 92
2, 7199, Note_on_c, 0, 74, 0
2, 7200, Note_on_c, 0, 72, 92
2, 7245, Note_on_c, 0, 72, 0
2, 7248, Note_on_c, 0, 71, 92
2, 7254, Note_on_c, 0, 71, 0
2, 7254, Note_on_c, 0, 72, 92
2, 7260, Note_on_c, 0, 72, 0
2, 7260, Note_on_c, 0, 71, 92
2, 7293, Note_on_c, 0, 71, 0
2, 7296, Note_on_c, 0, 72, 92
2, 7385, Note_on_c, 0, 72, 0
2, 7392, Note_on_c, 0, 64, 80
2, 7437, Note_on_c, 0, 64, 0
2, 7440, Note_on_c, 0, 72, 80
2, 7463, Note_on_c, 0, 72, 0
2, 7464, Note_on_c, 0, 69, 80
2, 7487, Note_on_c, 0, 69, 0
2, 7488, Note_on_c, 0, 69, 80
2, 7511, Note_on_c, 0, 69, 0
2, 7512, Note_on_c, 0, 68, 80
2, 7535, Note_on_c, 0, 68, 0
2, 7536, Note_on_c, 0, 66, 80
2, 7559, Note_on_c, 0, 66, 0
2, 7560, Note_on_c, 0, 64, 80
2, 7583, Note_on_c, 0, 64, 0
2, 7584, Note_on_c, 0, 76, 80
2, 7584, Note_on_c, 0, 72, 80
2, 7604, Note_on_c, 0, 76, 0
2, 7604, Note_on_c, 0, 72, 0
2, 7632, Note_on_c, 0, 74, 80
2, 7632, Note_on_c, 0, 71, 80
2, 7652, Note_on_c, 0, 74, 0
2, 7652, Note_on_c, 0, 71, 0
2, 7680, Note_on_c, 0, 69, 80
2, 7725, Note_on_c, 0, 69, 0
2, 7728, Note_on_c, 0, 71, 80
2, 7728, Note_on_c, 0, 68, 80
2, 7773, Note_on_c, 0, 71, 0
2, 7773, Note_on_c, 0, 68, 0
2, 7776, Note_on_c, 0, 64, 80
2, 7821, Note_on_c, 0, 64, 0
2, 7824, Note_on_c, 0, 72, 80
2, 7847, Note_on_c, 0, 72, 0
2, 7848, Note_on_c, 0, 69, 80
2, 7871, Note_on_c, 0, 69, 0
2, 7872, Note_on_c, 0, 65, 80
2, 7892, Note_on_c, 0, 65, 0
2, 7920, Note_on_c, 0, 74, 81
2, 7944, Note_on_c, 0, 74, 0
2, 7944, Note_on_c, 0, 71, 82
2, 7967, Note_on_c, 0, 71, 0
2, 7968, Note_on_c, 0, 67, 83
2, 7988, Note_on_c, 0, 67, 0
2, 8016, Note_on_c, 0, 76, 85
2, 8040, Note_on_c, 0, 76, 0
2, 8040, Note_on_c, 0, 72, 86
2, 8063, Note_on_c, 0, 72, 0
2, 8064, Note_on_c, 0, 69, 86
2, 8084, Note_on_c, 0, 69, 0
2, 8112, Note_on_c, 0, 77, 88
2, 8136, Note_on_c, 0, 77, 0
2, 8136, Note_on_c, 0, 74, 89
2, 8159, Note_on_c, 0, 74, 0
2, 8160, Note_on_c, 0, 73, 90
2, 8180, Note_on_c, 0, 73, 0
2, 8208, Note_on_c, 0, 82, 92
2, 8232, Note_on_c, 0, 82, 0
2, 8232, Note_on_c, 0, 79, 92
2, 8255, Note_on_c, 0, 79, 0
2, 8256, Note_on_c, 0, 81, 92
2, 8301, Note_on_c, 0, 81, 0
2, 8304, Note_on_c, 0, 77, 92
2, 8327, Note_on_c, 0, 77, 0
2, 8328, Note_on_c, 0, 74, 92
2, 8351, Note_on_c, 0, 74, 0
2, 8352, Note_on_c, 0, 72, 92
2, 8397, Note_on_c, 0, 72, 0
2, 8400, Note_on_c, 0, 71, 92
2, 8406, Note_on_c, 0, 71, 0
2, 8406, Note_on_c, 0, 72, 92
2, 8412, Note_on_c, 0, 72, 0
2, 8412, Note_on_c, 0, 71, 92
2, 8445, Note_on_c, 0, 71, 0
2, 8448, Note_on_c, 0, 72, 92
2, 8537, Note_on_c, 0, 72, 0
2, 8544, Note_on_c, 0, 64, 85
2, 8589, Note_on_c, 0, 64, 0
2, 8592, Note_on_c, 0, 72, 85
2, 8615, Note_on_c, 0, 72, 0
2, 8616, Note_on_c, 0, 69, 85
2, 8639, Note_on_c, 0, 69, 0
2, 8640, Note_on_c, 0, 69, 85
2, 8663, Note_on_c, 0, 69, 0
2, 8664, Note_on_c, 0, 68, 85
2, 8687, Note_on_c, 0, 68, 0
2, 8688, Note_on_c, 0, 66, 85
2, 8711, Note_on_c, 0, 66, 0
2, 8712, Note_on_c, 0, 64, 85
2, 8735, Note_on_c, 0, 64, 0
2, 8736, Note_on_c, 0, 76, 85
2, 8781, Note_on_c, 0, 76, 0
2, 8784, Note_on_c, 0, 72, 85
2, 8807, Note_on_c, 0, 72, 0
2, 8808, Note_on_c, 0, 69, 85
2, 8831, Note_on_c, 0, 69, 0
2, 8832, Note_on_c, 0, 69, 85
2, 8855, Note_on_c, 0, 69, 0
2, 8856, Note_on_c, 0, 68, 85
2, 8879, Note_on_c, 0, 68, 0
2, 8880, Note_on_c, 0, 66, 85
2, 8903, Note_on_c, 0, 66, 0
2, 8904, Note_on_c, 0, 64, 85
2, 8927, Note_on_c, 0, 64, 0
2, 8928, Note_on_c, 0, 74, 85
2, 8973, Note_on_c, 0, 74, 0
2, 8976, Note_on_c, 0, 71, 85
2, 8999, Note_on_c, 0, 71, 0
2, 9000, Note_on_c, 0, 68, 85
2, 9023, Note_on_c, 0, 68, 0
2, 9024, Note_on_c, 0, 69, 85
2, 9069, Note_on_c, 0, 69, 0
2, 9072, Note_on_c, 0, 64, 85
2, 9095, Note_on_c, 0, 64, 0
2, 9096, Note_on_c, 0, 62, 85
2, 9119, Note_on_c, 0, 62, 0
2, 9120, Note_on_c, 0, 62, 85
2, 9143, Note_on_c, 0, 62, 0
2, 9144, Note_on_c, 0, 60, 85
2, 9167, Note_on_c, 0, 60, 0
2, 9168, Note_on_c, 0, 59, 85
2, 9191, Note_on_c, 0, 59, 0
2, 9192, Note_on_c, 0, 57, 85
2, 9215, Note_on_c, 0, 57, 0
2, 9216, Note_on_c, 0, 64, 85
2, 9305, Note_on_c, 0, 64, 0
2, 9312, Note_on_c, 0, 67, 80
2, 9357, Note_on_c, 0, 67, 0
2, 9360, Note_on_c, 0, 64, 82
2, 9383, Note_on_c, 0, 64, 0
2, 9384, Note_on_c, 0, 61, 83
2, 9407, Note_on_c, 0, 61, 0
2, 9408, Note_on_c, 0, 65, 84
2, 9453, Note_on_c, 0, 65, 0
2, 9456, Note_on_c, 0, 62, 86
2, 9479, Note_on_c, 0, 62, 0
2, 9480, Note_on_c, 0, 57, 87
2, 9503, Note_on_c, 0, 57, 0
2, 9504, Note_on_c, 0, 69, 88
2, 9549, Note_on_c, 0, 69, 0
2, 9552, Note_on_c, 0, 66, 90
2, 9575, Note_on_c, 0, 66, 0
2, 9576, Note_on_c, 0, 63, 91
2, 9599, Note_on_c, 0, 63, 0
2, 9600, Note_on_c, 0, 72, 92
2, 9645, Note_on_c, 0, 72, 0
2, 9648, Note_on_c, 0, 69, 92
2, 9671, Note_on_c, 0, 69, 0
2, 9672, Note_on_c, 0, 64, 92
2, 9695, Note_on_c, 0, 64, 0
2, 9696, Note_on_c, 0, 76, 92
2, 9741, Note_on_c, 0, 76, 0
2, 9744, Note_on_c, 0, 72, 92
2, 9767, Note_on_c, 0, 72, 0
2, 9768, Note_on_c, 0, 69, 92
2, 9791, Note_on_c, 0, 69, 0
2, 9792, Note_on_c, 0, 81, 92
2, 9837, Note_on_c, 0, 81, 0
2, 9840, Note_on_c, 0, 76, 92
2, 9863, Note_on_c, 0, 76, 0
2, 9864, Note_on_c, 0, 72, 92
2, 9887, Note_on_c, 0, 72, 0
2, 9888, Note_on_c, 0, 69, 92
2, 9933, Note_on_c, 0, 69, 0
2, 9936, Note_on_c, 0, 68, 92
2, 9942, Note_on_c, 0, 68, 0
2, 9942, Note_on_c, 0, 69, 92
2, 9948, Note_on_c, 0, 69, 0
2, 9948, Note_on_c, 0, 68, 92
2, 9981, Note_on_c, 0, 68, 0
2, 9984, Note_on_c, 0, 69, 92
2, 10073, Note_on_c, 0, 69, 0
2, 10080, Note_on_c, 0, 64, 85
2, 10125, Note_on_c, 0, 64, 0
2, 10128, Note_on_c, 0, 72, 85
2, 10151, Note_on_c, 0, 72, 0
2, 10152, Note_on_c, 0, 69, 85
2, 10175, Note_on_c, 0, 69, 0
2, 10176, Note_on_c, 0, 69, 85
2, 10199, Note_on_c, 0, 69, 0
2, 10200, Note_on_c, 0, 68, 85
2, 10223, Note_on_c, 0, 68, 0
2, 10224, Note_on_c, 0, 66, 85
2, 10247, Note_on_c, 0, 66, 0
2, 10248, Note_on_c, 0, 64, 85
2, 10271, Note_on_c, 0, 64, 0
2, 10272, Note_on_c, 0, 76, 85
2, 10317, Note_on_c, 0, 76, 0
2, 10320, Note_on_c, 0, 72, 85
2, 10343, Note_on_c, 0, 72, 0
2, 10344, Note_on_c, 0, 69, 85
2, 10367, Note_on_c, 0, 69, 0
2, 10368, Note_on_c, 0, 69, 85
2, 10391, Note_on_c, 0, 69, 0
2, 10392, Note_on_c, 0, 68, 85
2, 10415, Note_on_c, 0, 68, 0
2, 10416, Note_on_c, 0, 66, 85
2, 10439, Note_on_c, 0, 66, 0
2, 10440, Note_on_c, 0, 64, 85
2, 10463, Note_on_c, 0, 64, 0
2, 10464, Note_on_c, 0, 74, 85
2, 10509, Note_on_c, 0, 74, 0
2, 10512, Note_on_c, 0, 71, 85
2, 10535, Note_on_c, 0, 71, 0
2, 10536, Note_on_c, 0, 68, 85
2, 10559, Note_on_c, 0, 68, 0
2, 10560, Note_on_c, 0, 69, 85
2, 10605, Note_on_c, 0, 69, 0
2, 10608, Note_on_c, 0, 64, 85
2, 10631, Note_on_c, 0, 64, 0
2, 10632, Note_on_c, 0, 62, 85
2, 10655, Note_on_c, 0, 62, 0
2, 10656, Note_on_c, 0, 62, 85
2, 10679, Note_on_c, 0, 62, 0
2, 10680, Note_on_c, 0, 60, 85
2, 10703, Note_on_c, 0, 60, 0
2, 10704, Note_on_c, 0, 59, 85
2, 10727, Note_on_c, 0, 59, 0
2, 10728, Note_on_c, 0, 57, 85
2, 10751, Note_on_c, 0, 57, 0
2, 10752, Note_on_c, 0, 64, 85
2, 10841, Note_on_c, 0, 64, 0
2, 10848, Note_on_c, 0, 67, 80
2, 10893, Note_on_c, 0, 67, 0
2, 10896, Note_on_c, 0, 64, 82
2, 10919, Note_on_c, 0, 64, 0
2, 10920, Note_on_c, 0, 61, 83
2, 10943, Note_on_c, 0, 61, 0
2, 10944, Note_on_c, 0, 65, 84
2, 10989, Note_on_c, 0, 65, 0
2, 10992, Note_on_c, 0, 62, 86
2, 11015, Note_on_c, 0, 62, 0
2, 11016, Note_on_c, 0, 57, 87
2, 11039, Note_on_c, 0, 57, 0
2, 11040, Note_on_c, 0, 69, 88
2, 11085, Note_on_c, 0, 69, 0
2, 11088, Note_on_c, 0, 66, 90
2, 11111, Note_on_c, 0, 66, 0
2, 11112, Note_on_c, 0, 63, 91
2, 11135, Note_on_c, 0, 63, 0
2, 11136, Note_on_c, 0, 72, 92
2, 11181, Note_on_c, 0, 72, 0
2, 11184, Note_on_c, 0, 69, 92
2, 11207, Note_on_c, 0, 69, 0
2, 11208, Note_on_c, 0, 64, 92
2, 11231, Note_on_c, 0, 64, 0
2, 11232, Note_on_c, 0, 76, 92
2, 11277, Note_on_c, 0, 76, 0
2, 11280, Note_on_c, 0, 72, 92
2, 11303, Note_on_c, 0, 72, 0
2, 11304, Note_on_c, 0, 69, 92
2, 11327, Note_on_c, 0, 69, 0
2, 11328, Note_on_c, 0, 81, 92
2, 11373, Note_on_c, 0, 81, 0
2, 11376, Note_on_c, 0, 76, 92
2, 11399, Note_on_c, 0, 76, 0
2, 11400, Note_on_c, 0, 72, 92
2, 11423, Note_on_c, 0, 72, 0
2, 11424, Note_on_c, 0, 69, 92
2, 11469, Note_on_c, 0, 69, 0
2, 11472, Note_on_c, 0, 68, 92
2, 11478, Note_on_c, 0, 68, 0
2, 11478, Note_on_c, 0, 69, 92
2, 11484, Note_on_c, 0, 69, 0
2, 11484, Note_on_c, 0, 68, 92
2, 11517, Note_on_c, 0, 68, 0
2, 11520, Note_on_c, 0, 69, 92
2, 11609, Note_on_c, 0, 69, 0
2, 11616, Note_on_c, 0, 73, 75
2, 11683, Note_on_c, 0, 73, 0
2, 11688, Note_on_c, 0, 74, 75
2, 11700, Note_on_c, 0, 74, 0
2, 11700, Note_on_c, 0, 76, 75
2, 11712, Note_on_c, 0, 76, 0
2, 11712, Note_on_c, 0, 69, 75
2, 11757, Note_on_c, 0, 69, 0
2, 11760, Note_on_c, 0, 69, 75
2, 11805, Note_on_c, 0, 69, 0
2, 11808, Note_on_c, 0, 73, 75
2, 11831, Note_on_c, 0, 73, 0
2, 11832, Note_on_c, 0, 71, 75
2, 11855, Note_on_c, 0, 71, 0
2, 11856, Note_on_c, 0, 69, 75
2, 11879, Note_on_c, 0, 69, 0
2, 11880, Note_on_c, 0, 71, 75
2, 11903, Note_on_c, 0, 71, 0
2, 11904, Note_on_c, 0, 69, 75
2, 11949, Note_on_c, 0, 69, 0
2, 12000, Note_on_c, 0, 78, 75
2, 12067, Note_on_c, 0, 78, 0
2, 12072, Note_on_c, 0, 80, 75
2, 12084, Note_on_c, 0, 80, 0
2, 12084, Note_on_c, 0, 81, 75
2, 12096, Note_on_c, 0, 81, 0
2, 12096, Note_on_c, 0, 76, 75
2, 12141, Note_on_c, 0, 76, 0
2, 12144, Note_on_c, 0, 76, 75
2, 12144, Note_on_c, 0, 73, 75
2, 12189, Note_on_c, 0, 76, 0
2, 12189, Note_on_c, 0, 73, 0
2, 12192, Note_on_c, 0, 74, 76
2, 12198, Note_on_c, 0, 74, 0
2, 12198, Note_on_c, 0, 76, 76
2, 12204, Note_on_c, 0, 76, 0
2, 12204, Note_on_c, 0, 74, 76
2, 12237, Note_on_c, 0, 74, 0
2, 12240, Note_on_c, 0, 73, 78
2, 12240, Note_on_c, 0, 69, 78
2, 12285, Note_on_c, 0, 73, 0
2, 12285, Note_on_c, 0, 69, 0
2, 12288, Note_on_c, 0, 71, 80
2, 12288, Note_on_c, 0, 68, 80
2, 12377, Note_on_c, 0, 71, 0
2, 12377, Note_on_c, 0, 68, 0
2, 12384, Note_on_c, 0, 57, 85
2, 12407, Note_on_c, 0, 57, 0
2, 12408, Note_on_c, 0, 61, 85
2, 12431, Note_on_c, 0, 61, 0
2, 12432, Note_on_c, 0, 64, 85
2, 12455, Note_on_c, 0, 64, 0
2, 12456, Note_on_c, 0, 69, 85
2, 12479, Note_on_c, 0, 69, 0
2, 12480, Note_on_c, 0, 73, 85
2, 12503, Note_on_c, 0, 73, 0
2, 12504, Note_on_c, 0, 76, 85
2, 12527, Note_on_c, 0, 76, 0
2, 12528, Note_on_c, 0, 73, 85
2, 12551, Note_on_c, 0, 73, 0
2, 12552, Note_on_c, 0, 69, 85
2, 12575, Note_on_c, 0, 69, 0
2, 12576, Note_on_c, 0, 71, 85
2, 12599, Note_on_c, 0, 71, 0
2, 12600, Note_on_c, 0, 74, 85
2, 12623, Note_on_c, 0, 74, 0
2, 12624, Note_on_c, 0, 71, 85
2, 12647, Note_on_c, 0, 71, 0
2, 12648, Note_on_c, 0, 68, 85
2, 12671, Note_on_c, 0, 68, 0
2, 12672, Note_on_c, 0, 69, 85
2, 12695, Note_on_c, 0, 69, 0
2, 12696, Note_on_c, 0, 71, 85
2, 12719, Note_on_c, 0, 71, 0
2, 12720, Note_on_c, 0, 73, 85
2, 12743, Note_on_c, 0, 73, 0
2, 12744, Note_on_c, 0, 74, 85
2, 12767, Note_on_c, 0, 74, 0
2, 12768, Note_on_c, 0, 76, 85
2, 12791, Note_on_c, 0, 76, 0
2, 12792, Note_on_c, 0, 78, 85
2, 12815, Note_on_c, 0, 78, 0
2, 12816, Note_on_c, 0, 80, 85
2, 12839, Note_on_c, 0, 80, 0
2, 12840, Note_on_c, 0, 81, 85
2, 12863, Note_on_c, 0, 81, 0
2, 12864, Note_on_c, 0, 76, 85
2, 12887, Note_on_c, 0, 76, 0
2, 12888, Note_on_c, 0, 80, 85
2, 12911, Note_on_c, 0, 80, 0
2, 12912, Note_on_c, 0, 81, 85
2, 12935, Note_on_c, 0, 81, 0
2, 12936, Note_on_c, 0, 85, 85
2, 12959, Note_on_c, 0, 85, 0
2, 12960, Note_on_c, 0, 74, 85
2, 12983, Note_on_c, 0, 74, 0
2, 12984, Note_on_c, 0, 83, 85
2, 13007, Note_on_c, 0, 83, 0
2, 13008, Note_on_c, 0, 73, 85
2, 13031, Note_on_c, 0, 73, 0
2, 13032, Note_on_c, 0, 81, 85
2, 13055, Note_on_c, 0, 81, 0
2, 13056, Note_on_c, 0, 71, 85
2, 13079, Note_on_c, 0, 71, 0
2, 13080, Note_on_c, 0, 75, 85
2, 13103, Note_on_c, 0, 75, 0
2, 13104, Note_on_c, 0, 76, 85
2, 13127, Note_on_c, 0, 76, 0
2, 13128, Note_on_c, 0, 80, 85
2, 13151, Note_on_c, 0, 80, 0
2, 13152, Note_on_c, 0, 75, 85
2, 13175, Note_on_c, 0, 75, 0
2, 13176, Note_on_c, 0, 76, 85
2, 13199, Note_on_c, 0, 76, 0
2, 13200, Note_on_c, 0, 80, 85
2, 13223, Note_on_c, 0, 80, 0
2, 13224, Note_on_c, 0, 83, 85
2, 13247, Note_on_c, 0, 83, 0
2, 13248, Note_on_c, 0, 72, 85
2, 13271, Note_on_c, 0, 72, 0
2, 13272, Note_on_c, 0, 73, 85
2, 13295, Note_on_c, 0, 73, 0
2, 13296, Note_on_c, 0, 76, 85
2, 13319, Note_on_c, 0, 76, 0
2, 13320, Note_on_c, 0, 81, 85
2, 13343, Note_on_c, 0, 81, 0
2, 13344, Note_on_c, 0, 69, 85
2, 13367, Note_on_c, 0, 69, 0
2, 13368, Note_on_c, 0, 75, 85
2, 13391, Note_on_c, 0, 75, 0
2, 13392, Note_on_c, 0, 78, 85
2, 13415, Note_on_c, 0, 78, 0
2, 13416, Note_on_c, 0, 81, 85
2, 13439, Note_on_c, 0, 81, 0
2, 13440, Note_on_c, 0, 71, 85
2, 13463, Note_on_c, 0, 71, 0
2, 13464, Note_on_c, 0, 75, 85
2, 13487, Note_on_c, 0, 75, 0
2, 13488, Note_on_c, 0, 76, 85
2, 13511, Note_on_c, 0, 76, 0
2, 13512, Note_on_c, 0, 80, 85
2, 13535, Note_on_c, 0, 80, 0
2, 13536, Note_on_c, 0, 76, 85
2, 13559, Note_on_c, 0, 76, 0
2, 13560, Note_on_c, 0, 80, 85
2, 13583, Note_on_c, 0, 80, 0
2, 13584, Note_on_c, 0, 83, 85
2, 13607, Note_on_c, 0, 83, 0
2, 13608, Note_on_c, 0, 88, 85
2, 13631, Note_on_c, 0, 88, 0
2, 13632, Note_on_c, 0, 85, 85
2, 13655, Note_on_c, 0, 85, 0
2, 13656, Note_on_c, 0, 88, 85
2, 13679, Note_on_c, 0, 88, 0
2, 13680, Note_on_c, 0, 85, 85
2, 13703, Note_on_c, 0, 85, 0
2, 13704, Note_on_c, 0, 81, 85
2, 13727, Note_on_c, 0, 81, 0
2, 13728, Note_on_c, 0, 80, 85
2, 13751, Note_on_c, 0, 80, 0
2, 13752, Note_on_c, 0, 83, 85
2, 13775, Note_on_c, 0, 83, 0
2, 13776, Note_on_c, 0, 75, 85
2, 13799, Note_on_c, 0, 75, 0
2, 13800, Note_on_c, 0, 78, 85
2, 13823, Note_on_c, 0, 78, 0
2, 13824, Note_on_c, 0, 76, 85
2, 13913, Note_on_c, 0, 76, 0
2, 13920, Note_on_c, 0, 57, 80
2, 13943, Note_on_c, 0, 57, 0
2, 13944, Note_on_c, 0, 61, 80
2, 13967, Note_on_c, 0, 61, 0
2, 13968, Note_on_c, 0, 64, 80
2, 13991, Note_on_c, 0, 64, 0
2, 13992, Note_on_c, 0, 69, 80
2, 14015, Note_on_c, 0, 69, 0
2, 14016, Note_on_c, 0, 73, 85
2, 14039, Note_on_c, 0, 73, 0
2, 14040, Note_on_c, 0, 76, 85
2, 14063, Note_on_c, 0, 76, 0
2, 14064, Note_on_c, 0, 73, 85
2, 14087, Note_on_c, 0, 73, 0
2, 14088, Note_on_c, 0, 69, 85
2, 14111, Note_on_c, 0, 69, 0
2, 14112, Note_on_c, 0, 71, 85
2, 14135, Note_on_c, 0, 71, 0
2, 14136, Note_on_c, 0, 74, 85
2, 14159, Note_on_c, 0, 74, 0
2, 14160, Note_on_c, 0, 71, 85
2, 14183, Note_on_c, 0, 71, 0
2, 14184, Note_on_c, 0, 68, 85
2, 14207, Note_on_c, 0, 68, 0
2, 14208, Note_on_c, 0, 69, 85
2, 14231, Note_on_c, 0, 69, 0
2, 14232, Note_on_c, 0, 71, 85
2, 14255, Note_on_c, 0, 71, 0
2, 14256, Note_on_c, 0, 73, 85
2, 14279, Note_on_c, 0, 73, 0
2, 14280, Note_on_c, 0, 74, 85
2, 14303, Note_on_c, 0, 74, 0
2, 14304, Note_on_c, 0, 76, 85
2, 14327, Note_on_c, 0, 76, 0
2, 14328, Note_on_c, 0, 78, 85
2, 14351, Note_on_c, 0, 78, 0
2, 14352, Note_on_c, 0, 80, 85
2, 14375, Note_on_c, 0, 80, 0
2, 14376, Note_on_c, 0, 81, 85
2, 14399, Note_on_c, 0, 81, 0
2, 14400, Note_on_c, 0, 76, 85
2, 14423, Note_on_c, 0, 76, 0
2, 14424, Note_on_c, 0, 80, 85
2, 14447, Note_on_c, 0, 80, 0
2, 14448, Note_on_c, 0, 81, 85
2, 14471, Note_on_c, 0, 81, 0
2, 14472, Note_on_c, 0, 85, 85
2, 14495, Note_on_c, 0, 85, 0
2, 14496, Note_on_c, 0, 74, 85
2, 14519, Note_on_c, 0, 74, 0
2, 14520, Note_on_c, 0, 83, 85
2, 14543, Note_on_c, 0, 83, 0
2, 14544, Note_on_c, 0, 73, 85
2, 14567, Note_on_c, 0, 73, 0
2, 14568, Note_on_c, 0, 81, 85
2, 14591, Note_on_c, 0, 81, 0
2, 14592, Note_on_c, 0, 71, 85
2, 14615, Note_on_c, 0, 71, 0
2, 14616, Note_on_c, 0, 75, 85
2, 14639, Note_on_c, 0, 75, 0
2, 14640, Note_on_c, 0, 76, 85
2, 14663, Note_on_c, 0, 76, 0
2, 14664, Note_on_c, 0, 80, 85
2, 14687, Note_on_c, 0, 80, 0
2, 14688, Note_on_c, 0, 75, 85
2, 14711, Note_on_c, 0, 75, 0
2, 14712, Note_on_c, 0, 76, 85
2, 14735, Note_on_c, 0, 76, 0
2, 14736, Note_on_c, 0, 80, 85
2, 14759, Note_on_c, 0, 80, 0
2, 14760, Note_on_c, 0, 83, 85
2, 14783, Note_on_c, 0, 83, 0
2, 14784, Note_on_c, 0, 72, 85
2, 14807, Note_on_c, 0, 72, 0
2, 14808, Note_on_c, 0, 73, 85
2, 14831, Note_on_c, 0, 73, 0
2, 14832, Note_on_c, 0, 76, 85
2, 14855, Note_on_c, 0, 76, 0
2, 14856, Note_on_c, 0, 81, 85
2, 14879, Note_on_c, 0, 81, 0
2, 14880, Note_on_c, 0, 69, 85
2, 14903, Note_on_c, 0, 69, 0
2, 14904, Note_on_c, 0, 75, 85
2, 14927, Note_on_c, 0, 75, 0
2, 14928, Note_on_c, 0, 78, 85
2, 14951, Note_on_c, 0, 78, 0
2, 14952, Note_on_c, 0, 81, 85
2, 14975, Note_on_c, 0, 81, 0
2, 14976, Note_on_c, 0, 71, 85
2, 14999, Note_on_c, 0, 71, 0
2, 15000, Note_on_c, 0, 75, 85
2, 15023, Note_on_c, 0, 75, 0
2, 15024, Note_on_c, 0, 76, 85
2, 15047, Note_on_c, 0, 76, 0
2, 15048, Note_on_c, 0, 80, 85
2, 15071, Note_on_c, 0, 80, 0
2, 15072, Note_on_c, 0, 76, 85
2, 15095, Note_on_c, 0, 76, 0
2, 15096, Note_on_c, 0, 80, 85
2, 15119, Note_on_c, 0, 80, 0
2, 15120, Note_on_c, 0, 83, 85
2, 15143, Note_on_c, 0, 83, 0
2, 15144, Note_on_c, 0, 88, 85
2, 15167, Note_on_c, 0, 88, 0
2, 15168, Note_on_c, 0, 85, 85
2, 15191, Note_on_c, 0, 85, 0
2, 15192, Note_on_c, 0, 88, 85
2, 15215, Note_on_c, 0, 88, 0
2, 15216, Note_on_c, 0, 85, 85
2, 15239, Note_on_c, 0, 85, 0
2, 15240, Note_on_c, 0, 81, 85
2, 15263, Note_on_c, 0, 81, 0
2, 15264, Note_on_c, 0, 80, 85
2, 15287, Note_on_c, 0, 80, 0
2, 15288, Note_on_c, 0, 83, 85
2, 15311, Note_on_c, 0, 83, 0
2, 15312, Note_on_c, 0, 75, 85
2, 15335, Note_on_c, 0, 75, 0
2, 15336, Note_on_c, 0, 78, 85
2, 15359, Note_on_c, 0, 78, 0
2, 15360, Note_on_c, 0, 76, 85
2, 15449, Note_on_c, 0, 76, 0
2, 15456, Note_on_c, 0, 76, 75
2, 15479, Note_on_c, 0, 76, 0
2, 15480, Note_on_c, 0, 79, 75
2, 15503, Note_on_c, 0, 79, 0
2, 15504, Note_on_c, 0, 74, 75
2, 15527, Note_on_c, 0, 74, 0
2, 15528, Note_on_c, 0, 78, 75
2, 15551, Note_on_c, 0, 78, 0
2, 15552, Note_on_c, 0, 73, 75
2, 15575, Note_on_c, 0, 73, 0
2, 15576, Note_on_c, 0, 76, 75
2, 15599, Note_on_c, 0, 76, 0
2, 15600, Note_on_c, 0, 73, 75
2, 15623, Note_on_c, 0, 73, 0
2, 15624, Note_on_c, 0, 76, 75
2, 15647, Note_on_c, 0, 76, 0
2, 15648, Note_on_c, 0, 71, 75
2, 15671, Note_on_c, 0, 71, 0
2, 15672, Note_on_c, 0, 74, 75
2, 15695, Note_on_c, 0, 74, 0
2, 15696, Note_on_c, 0, 71, 75
2, 15719, Note_on_c, 0, 71, 0
2, 15720, Note_on_c, 0, 74, 75
2, 15743, Note_on_c, 0, 74, 0
2, 15744, Note_on_c, 0, 70, 75
2, 15767, Note_on_c, 0, 70, 0
2, 15768, Note_on_c, 0, 73, 75
2, 15791, Note_on_c, 0, 73, 0
2, 15792, Note_on_c, 0, 70, 75
2, 15815, Note_on_c, 0, 70, 0
2, 15816, Note_on_c, 0, 73, 75
2, 15839, Note_on_c, 0, 73, 0
2, 15840, Note_on_c, 0, 71, 75
2, 15863, Note_on_c, 0, 71, 0
2, 15864, Note_on_c, 0, 78, 75
2, 15887, Note_on_c, 0, 78, 0
2, 15888, Note_on_c, 0, 74, 75
2, 15911, Note_on_c, 0, 74, 0
2, 15912, Note_on_c, 0, 71, 75
2, 15935, Note_on_c, 0, 71, 0
2, 15936, Note_on_c, 0, 68, 75
2, 15959, Note_on_c, 0, 68, 0
2, 15960, Note_on_c, 0, 74, 76
2, 15983, Note_on_c, 0, 74, 0
2, 15984, Note_on_c, 0, 71, 77
2, 16007, Note_on_c, 0, 71, 0
2, 16008, Note_on_c, 0, 68, 78
2, 16031, Note_on_c, 0, 68, 0
2, 16032, Note_on_c, 0, 69, 80
2, 16055, Note_on_c, 0, 69, 0
2, 16056, Note_on_c, 0, 76, 81
2, 16079, Note_on_c, 0, 76, 0
2, 16080, Note_on_c, 0, 73, 82
2, 16103, Note_on_c, 0, 73, 0
2, 16104, Note_on_c, 0, 69, 83
2, 16127, Note_on_c, 0, 69, 0
2, 16128, Note_on_c, 0, 76, 85
2, 16217, Note_on_c, 0, 76, 0
2, 16224, Note_on_c, 0, 57, 85
2, 16247, Note_on_c, 0, 57, 0
2, 16248, Note_on_c, 0, 61, 85
2, 16271, Note_on_c, 0, 61, 0
2, 16272, Note_on_c, 0, 64, 85
2, 16295, Note_on_c, 0, 64, 0
2, 16296, Note_on_c, 0, 69, 85
2, 16319, Note_on_c, 0, 69, 0
2, 16320, Note_on_c, 0, 73, 85
2, 16343, Note_on_c, 0, 73, 0
2, 16344, Note_on_c, 0, 76, 85
2, 16367, Note_on_c, 0, 76, 0
2, 16368, Note_on_c, 0, 73, 85
2, 16391, Note_on_c, 0, 73, 0
2, 16392, Note_on_c, 0, 69, 85
2, 16415, Note_on_c, 0, 69, 0
2, 16416, Note_on_c, 0, 71, 85
2, 16439, Note_on_c, 0, 71, 0
2, 16440, Note_on_c, 0, 74, 85
2, 16463, Note_on_c, 0, 74, 0
2, 16464, Note_on_c, 0, 71, 85
2, 16487, Note_on_c, 0, 71, 0
2, 16488, Note_on_c, 0, 68, 85
2, 16511, Note_on_c, 0, 68, 0
2, 16512, Note_on_c, 0, 69, 85
2, 16535, Note_on_c, 0, 69, 0
2, 16536, Note_on_c, 0, 73, 85
2, 16559, Note_on_c, 0, 73, 0
2, 16560, Note_on_c, 0, 76, 85
2, 16583, Note_on_c, 0, 76, 0
2, 16584, Note_on_c, 0, 81, 85
2, 16607, Note_on_c, 0, 81, 0
2, 16608, Note_on_c, 0, 85, 85
2, 16631, Note_on_c, 0, 85, 0
2, 16632, Note_on_c, 0, 88, 85
2, 16655, Note_on_c, 0, 88, 0
2, 16656, Note_on_c, 0, 85, 85
2, 16679, Note_on_c, 0, 85, 0
2, 16680, Note_on_c, 0, 81, 85
2, 16703, Note_on_c, 0, 81, 0
2, 16704, Note_on_c, 0, 78, 85
2, 16727, Note_on_c, 0, 78, 0
2, 16728, Note_on_c, 0, 81, 85
2, 16751, Note_on_c, 0, 81, 0
2, 16752, Note_on_c, 0, 78, 85
2, 16775, Note_on_c, 0, 78, 0
2, 16776, Note_on_c, 0, 74, 85
2, 16799, Note_on_c, 0, 74, 0
2, 16800, Note_on_c, 0, 73, 85
2, 16823, Note_on_c, 0, 73, 0
2, 16824, Note_on_c, 0, 76, 85
2, 16847, Note_on_c, 0, 76, 0
2, 16848, Note_on_c, 0, 74, 85
2, 16871, Note_on_c, 0, 74, 0
2, 16872, Note_on_c, 0, 71, 85
2, 16895, Note_on_c, 0, 71, 0
2, 16896, Note_on_c, 0, 69, 85
2, 16985, Note_on_c, 0, 69, 0
2, 16992, Note_on_c, 0, 76, 75
2, 17015, Note_on_c, 0, 76, 0
2, 17016, Note_on_c, 0, 79, 75
2, 17039, Note_on_c, 0, 79, 0
2, 17040, Note_on_c, 0, 74, 75
2, 17063, Note_on_c, 0, 74, 0
2, 17064, Note_on_c, 0, 78, 75
2, 17087, Note_on_c, 0, 78, 0
2, 17088, Note_on_c, 0, 73, 75
2, 17111, Note_on_c, 0, 73, 0
2, 17112, Note_on_c, 0, 76, 75
2, 17135, Note_on_c, 0, 76, 0
2, 17136, Note_on_c, 0, 73, 75
2, 17159, Note_on_c, 0, 73, 0
2, 17160, Note_on_c, 0, 76, 75
2, 17183, Note_on_c, 0, 76, 0
2, 17184, Note_on_c, 0, 71, 75
2, 17207, Note_on_c, 0, 71, 0
2, 17208, Note_on_c, 0, 74, 75
2, 17231, Note_on_c, 0, 74, 0
2, 17232, Note_on_c, 0, 71, 75
2, 17255, Note_on_c, 0, 71, 0
2, 17256, Note_on_c, 0, 74, 75
2, 17279, Note_on_c, 0, 74, 0
2, 17280, Note_on_c, 0, 70, 75
2, 17303, Note_on_c, 0, 70, 0
2, 17304, Note_on_c, 0, 73, 75
2, 17327, Note_on_c, 0, 73, 0
2, 17328, Note_on_c, 0, 70, 75
2, 17351, Note_on_c, 0, 70, 0
2, 17352, Note_on_c, 0, 73, 75
2, 17375, Note_on_c, 0, 73, 0
2, 17376, Note_on_c, 0, 71, 75
2, 17399, Note_on_c, 0, 71, 0
2, 17400, Note_on_c, 0, 78, 75
2, 17423, Note_on_c, 0, 78, 0
2, 17424, Note_on_c, 0, 74, 75
2, 17447, Note_on_c, 0, 74, 0
2, 17448, Note_on_c, 0, 71, 75
2, 17471, Note_on_c, 0, 71, 0
2, 17472, Note_on_c, 0, 68, 75
2, 17495, Note_on_c, 0, 68, 0
2, 17496, Note_on_c, 0, 74, 76
2, 17519, Note_on_c, 0, 74, 0
2, 17520, Note_on_c, 0, 71, 77
2, 17543, Note_on_c, 0, 71, 0
2, 17544, Note_on_c, 0, 68, 78
2, 17567, Note_on_c, 0, 68, 0
2, 17568, Note_on_c, 0, 69, 80
2, 17591, Note_on_c, 0, 69, 0
2, 17592, Note_on_c, 0, 76, 81
2, 17615, Note_on_c, 0, 76, 0
2, 17616, Note_on_c, 0, 73, 82
2, 17639, Note_on_c, 0, 73, 0
2, 17640, Note_on_c, 0, 69, 83
2, 17663, Note_on_c, 0, 69, 0
2, 17664, Note_on_c, 0, 76, 85
2, 17753, Note_on_c, 0, 76, 0
2, 17760, Note_on_c, 0, 57, 85
2, 17783, Note_on_c, 0, 57, 0
2, 17784, Note_on_c, 0, 61, 85
2, 17807, Note_on_c, 0, 61, 0
2, 17808, Note_on_c, 0, 64, 85
2, 17831, Note_on_c, 0, 64, 0
2, 17832, Note_on_c, 0, 69, 85
2, 17855, Note_on_c, 0, 69, 0
2, 17856, Note_on_c, 0, 73, 85
2, 17879, Note_on_c, 0, 73, 0
2, 17880, Note_on_c, 0, 76, 85
2, 17903, Note_on_c, 0, 76, 0
2, 17904, Note_on_c, 0, 73, 85
2, 17927, Note_on_c, 0, 73, 0
2, 17928, Note_on_c, 0, 69, 85
2, 17951, Note_on_c, 0, 69, 0
2, 17952, Note_on_c, 0, 71, 85
2, 17975, Note_on_c, 0, 71, 0
2, 17976, Note_on_c, 0, 74, 85
2, 17999, Note_on_c, 0, 74, 0
2, 18000, Note_on_c, 0, 71, 85
2, 18023, Note_on_c, 0, 71, 0
2, 18024, Note_on_c, 0, 68, 85
2, 18047, Note_on_c, 0, 68, 0
2, 18048, Note_on_c, 0, 69, 85
2, 18071, Note_on_c, 0, 69, 0
2, 18072, Note_on_c, 0, 73, 85
2, 18095, Note_on_c, 0, 73, 0
2, 18096, Note_on_c, 0, 76, 85
2, 18119, Note_on_c, 0, 76, 0
2, 18120, Note_on_c, 0, 81, 85
2, 18143, Note_on_c, 0, 81, 0
2, 18144, Note_on_c, 0, 85, 85
2, 18167, Note_on_c, 0, 85, 0
2, 18168, Note_on_c, 0, 88, 85
2, 18191, Note_on_c, 0, 88, 0
2, 18192, Note_on_c, 0, 85, 85
2, 18215, Note_on_c, 0, 85, 0
2, 18216, Note_on_c, 0, 81, 85
2, 18239, Note_on_c, 0, 81, 0
2, 18240, Note_on_c, 0, 78, 85
2, 18263, Note_on_c, 0, 78, 0
2, 18264, Note_on_c, 0, 81, 85
2, 18287, Note_on_c, 0, 81, 0
2, 18288, Note_on_c, 0, 78, 85
2, 18311, Note_on_c, 0, 78, 0
2, 18312, Note_on_c, 0, 74, 85
2, 18335, Note_on_c, 0, 74, 0
2, 18336, Note_on_c, 0, 73, 85
2, 18359, Note_on_c, 0, 73, 0
2, 18360, Note_on_c, 0, 76, 85
2, 18383, Note_on_c, 0, 76, 0
2, 18384, Note_on_c, 0, 74, 85
2, 18407, Note_on_c, 0, 74, 0
2, 18408, Note_on_c, 0, 71, 85
2, 18431, Note_on_c, 0, 71, 0
2, 18432, Note_on_c, 0, 69, 85
2, 18521, Note_on_c, 0, 69, 0
2, 18528, Note_on_c, 0, 76, 80
2, 18573, Note_on_c, 0, 76, 0
2, 18576, Note_on_c, 0, 84, 80
2, 18599, Note_on_c, 0, 84, 0
2, 18600, Note_on_c, 0, 81, 80
2, 18623, Note_on_c, 0, 81, 0
2, 18624, Note_on_c, 0, 81, 80
2, 18647, Note_on_c, 0, 81, 0
2, 18648, Note_on_c, 0, 80, 80
2, 18671, Note_on_c, 0, 80, 0
2, 18672, Note_on_c, 0, 78, 80
2, 18695, Note_on_c, 0, 78, 0
2, 18696, Note_on_c, 0, 76, 80
2, 18719, Note_on_c, 0, 76, 0
2, 18720, Note_on_c, 0, 88, 80
2, 18720, Note_on_c, 0, 84, 80
2, 18740, Note_on_c, 0, 88, 0
2, 18740, Note_on_c, 0, 84, 0
2, 18768, Note_on_c, 0, 86, 80
2, 18768, Note_on_c, 0, 83, 80
2, 18788, Note_on_c, 0, 86, 0
2, 18788, Note_on_c, 0, 83, 0
2, 18816, Note_on_c, 0, 84, 80
2, 18816, Note_on_c, 0, 81, 80
2, 18864, Note_on_c, 0, 84, 0
2, 18864, Note_on_c, 0, 81, 0
2, 18864, Note_on_c, 0, 83, 80
2, 18864, Note_on_c, 0, 80, 80
2, 18909, Note_on_c, 0, 83, 0
2, 18909, Note_on_c, 0, 80, 0
2, 18912, Note_on_c, 0, 69, 80
2, 18935, Note_on_c, 0, 69, 0
2, 18936, Note_on_c, 0, 72, 80
2, 18959, Note_on_c, 0, 72, 0
2, 18960, Note_on_c, 0, 77, 80
2, 18983, Note_on_c, 0, 77, 0
2, 18984, Note_on_c, 0, 84, 80
2, 19007, Note_on_c, 0, 84, 0
2, 19008, Note_on_c, 0, 83, 80
2, 19031, Note_on_c, 0, 83, 0
2, 19032, Note_on_c, 0, 76, 80
2, 19055, Note_on_c, 0, 76, 0
2, 19056, Note_on_c, 0, 71, 80
2, 19079, Note_on_c, 0, 71, 0
2, 19080, Note_on_c, 0, 67, 80
2, 19103, Note_on_c, 0, 67, 0
2, 19104, Note_on_c, 0, 65, 80
2, 19127, Note_on_c, 0, 65, 0
2, 19128, Note_on_c, 0, 69, 80
2, 19151, Note_on_c, 0, 69, 0
2, 19152, Note_on_c, 0, 74, 80
2, 19175, Note_on_c, 0, 74, 0
2, 19176, Note_on_c, 0, 81, 80
2, 19199, Note_on_c, 0, 81, 0
2, 19200, Note_on_c, 0, 79, 80
2, 19223, Note_on_c, 0, 79, 0
2, 19224, Note_on_c, 0, 72, 80
2, 19247, Note_on_c, 0, 72, 0
2, 19248, Note_on_c, 0, 67, 80
2, 19271, Note_on_c, 0, 67, 0
2, 19272, Note_on_c, 0, 64, 80
2, 19295, Note_on_c, 0, 64, 0
2, 19296, Note_on_c, 0, 62, 80
2, 19319, Note_on_c, 0, 62, 0
2, 19320, Note_on_c, 0, 65, 80
2, 19343, Note_on_c, 0, 65, 0
2, 19344, Note_on_c, 0, 71, 80
2, 19367, Note_on_c, 0, 71, 0
2, 19368, Note_on_c, 0, 77, 80
2, 19391, Note_on_c, 0, 77, 0
2, 19392, Note_on_c, 0, 60, 80
2, 19415, Note_on_c, 0, 60, 0
2, 19416, Note_on_c, 0, 64, 80
2, 19439, Note_on_c, 0, 64, 0
2, 19440, Note_on_c, 0, 67, 80
2, 19463, Note_on_c, 0, 67, 0
2, 19464, Note_on_c, 0, 76, 80
2, 19487, Note_on_c, 0, 76, 0
2, 19488, Note_on_c, 0, 74, 80
2, 19533, Note_on_c, 0, 74, 0
2, 19536, Note_on_c, 0, 71, 80
2, 19542, Note_on_c, 0, 71, 0
2, 19542, Note_on_c, 0, 72, 80
2, 19548, Note_on_c, 0, 72, 0
2, 19548, Note_on_c, 0, 71, 80
2, 19581, Note_on_c, 0, 71, 0
2, 19584, Note_on_c, 0, 72, 80
2, 19673, Note_on_c, 0, 72, 0
2, 19680, Note_on_c, 0, 76, 80
2, 19725, Note_on_c, 0, 76, 0
2, 19728, Note_on_c, 0, 84, 80
2, 19751, Note_on_c, 0, 84, 0
2, 19752, Note_on_c, 0, 81, 80
2, 19775, Note_on_c, 0, 81, 0
2, 19776, Note_on_c, 0, 81, 80
2, 19799, Note_on_c, 0, 81, 0
2, 19800, Note_on_c, 0, 80, 80
2, 19823, Note_on_c, 0, 80, 0
2, 19824, Note_on_c, 0, 78, 80
2, 19847, Note_on_c, 0, 78, 0
2, 19848, Note_on_c, 0, 76, 80
2, 19871, Note_on_c, 0, 76, 0
2, 19872, Note_on_c, 0, 88, 80
2, 19872, Note_on_c, 0, 84, 80
2, 19892, Note_on_c, 0, 88, 0
2, 19892, Note_on_c, 0, 84, 0
2, 19920, Note_on_c, 0, 86, 80
2, 19920, Note_on_c, 0, 83, 80
2, 19940, Note_on_c, 0, 86, 0
2, 19940, Note_on_c, 0, 83, 0
2, 19968, Note_on_c, 0, 84, 80
2, 19968, Note_on_c, 0, 81, 80
2, 20016, Note_on_c, 0, 84, 0
2, 20016, Note_on_c, 0, 81, 0
2, 20016, Note_on_c, 0, 83, 80
2, 20016, Note_on_c, 0, 80, 80
2, 20061, Note_on_c, 0, 83, 0
2, 20061, Note_on_c, 0, 80, 0
2, 20064, Note_on_c, 0, 69, 80
2, 20087, Note_on_c, 0, 69, 0
2, 20088, Note_on_c, 0, 72, 80
2, 20111, Note_on_c, 0, 72, 0
2, 20112, Note_on_c, 0, 77, 80
2, 20135, Note_on_c, 0, 77, 0
2, 20136, Note_on_c, 0, 84, 80
2, 20159, Note_on_c, 0, 84, 0
2, 20160, Note_on_c, 0, 83, 80
2, 20183, Note_on_c, 0, 83, 0
2, 20184, Note_on_c, 0, 76, 80
2, 20207, Note_on_c, 0, 76, 0
2, 20208, Note_on_c, 0, 71, 80
2, 20231, Note_on_c, 0, 71, 0
2, 20232, Note_on_c, 0, 67, 80
2, 20255, Note_on_c, 0, 67, 0
2, 20256, Note_on_c, 0, 65, 80
2, 20279, Note_on_c, 0, 65, 0
2, 20280, Note_on_c, 0, 69, 80
2, 20303, Note_on_c, 0, 69, 0
2, 20304, Note_on_c, 0, 74, 80
2, 20327, Note_on_c, 0, 74, 0
2, 20328, Note_on_c, 0, 81, 80
2, 20351, Note_on_c, 0, 81, 0
2, 20352, Note_on_c, 0, 79, 80
2, 20375, Note_on_c, 0, 79, 0
2, 20376, Note_on_c, 0, 72, 80
2, 20399, Note_on_c, 0, 72, 0
2, 20400, Note_on_c, 0, 67, 80
2, 20423, Note_on_c, 0, 67, 0
2, 20424, Note_on_c, 0, 64, 80
2, 20447, Note_on_c, 0, 64, 0
2, 20448, Note_on_c, 0, 62, 80
2, 20471, Note_on_c, 0, 62, 0
2, 20472, Note_on_c, 0, 65, 80
2, 20495, Note_on_c, 0, 65, 0
2, 20496, Note_on_c, 0, 71, 80
2, 20519, Note_on_c, 0, 71, 0
2, 20520, Note_on_c, 0, 77, 80
2, 20543, Note_on_c, 0, 77, 0
2, 20544, Note_on_c, 0, 60, 80
2, 20567, Note_on_c, 0, 60, 0
2, 20568, Note_on_c, 0, 64, 80
2, 20591, Note_on_c, 0, 64, 0
2, 20592, Note_on_c, 0, 67, 80
2, 20615, Note_on_c, 0, 67, 0
2, 20616, Note_on_c, 0, 76, 80
2, 20639, Note_on_c, 0, 76, 0
2, 20640, Note_on_c, 0, 74, 80
2, 20685, Note_on_c, 0, 74, 0
2, 20688, Note_on_c, 0, 71, 80
2, 20694, Note_on_c, 0, 71, 0
2, 20694, Note_on_c, 0, 72, 80
2, 20700, Note_on_c, 0, 72, 0
2, 20700, Note_on_c, 0, 71, 80
2, 20733, Note_on_c, 0, 71, 0
2, 20736, Note_on_c, 0, 72, 80
2, 20825, Note_on_c, 0, 72, 0
2, 20832, Note_on_c, 0, 76, 80
2, 20877, Note_on_c, 0, 76, 0
2, 20880, Note_on_c, 0, 76, 80
2, 20903, Note_on_c, 0, 76, 0
2, 20904, Note_on_c, 0, 77, 80
2, 20927, Note_on_c, 0, 77, 0
2, 20928, Note_on_c, 0, 74, 80
2, 20973, Note_on_c, 0, 74, 0
2, 20976, Note_on_c, 0, 74, 80
2, 20999, Note_on_c, 0, 74, 0
2, 21000, Note_on_c, 0, 76, 80
2, 21023, Note_on_c, 0, 76, 0
2, 21024, Note_on_c, 0, 72, 80
2, 21069, Note_on_c, 0, 72, 0
2, 21072, Note_on_c, 0, 72, 80
2, 21095, Note_on_c, 0, 72, 0
2, 21096, Note_on_c, 0, 74, 80
2, 21119, Note_on_c, 0, 74, 0
2, 21120, Note_on_c, 0, 71, 80
2, 21209, Note_on_c, 0, 71, 0
2, 21216, Note_on_c, 0, 64, 80
2, 21239, Note_on_c, 0, 64, 0
2, 21240, Note_on_c, 0, 72, 80
2, 21263, Note_on_c, 0, 72, 0
2, 21264, Note_on_c, 0, 76, 80
2, 21287, Note_on_c, 0, 76, 0
2, 21288, Note_on_c, 0, 88, 80
2, 21311, Note_on_c, 0, 88, 0
2, 21312, Note_on_c, 0, 86, 80
2, 21335, Note_on_c, 0, 86, 0
2, 21336, Note_on_c, 0, 76, 80
2, 21359, Note_on_c, 0, 76, 0
2, 21360, Note_on_c, 0, 71, 80
2, 21383, Note_on_c, 0, 71, 0
2, 21384, Note_on_c, 0, 68, 80
2, 21407, Note_on_c, 0, 68, 0
2, 21408, Note_on_c, 0, 64, 80
2, 21431, Note_on_c, 0, 64, 0
2, 21432, Note_on_c, 0, 69, 80
2, 21455, Note_on_c, 0, 69, 0
2, 21456, Note_on_c, 0, 76, 80
2, 21479, Note_on_c, 0, 76, 0
2, 21480, Note_on_c, 0, 84, 80
2, 21503, Note_on_c, 0, 84, 0
2, 21504, Note_on_c, 0, 83, 80
2, 21527, Note_on_c, 0, 83, 0
2, 21528, Note_on_c, 0, 76, 80
2, 21551, Note_on_c, 0, 76, 0
2, 21552, Note_on_c, 0, 68, 80
2, 21575, Note_on_c, 0, 68, 0
2, 21576, Note_on_c, 0, 64, 80
2, 21599, Note_on_c, 0, 64, 0
2, 21600, Note_on_c, 0, 83, 80
2, 21623, Note_on_c, 0, 83, 0
2, 21624, Note_on_c, 0, 80, 80
2, 21647, Note_on_c, 0, 80, 0
2, 21648, Note_on_c, 0, 77, 80
2, 21671, Note_on_c, 0, 77, 0
2, 21672, Note_on_c, 0, 74, 80
2, 21695, Note_on_c, 0, 74, 0
2, 21696, Note_on_c, 0, 81, 80
2, 21719, Note_on_c, 0, 81, 0
2, 21720, Note_on_c, 0, 76, 80
2, 21743, Note_on_c, 0, 76, 0
2, 21744, Note_on_c, 0, 72, 80
2, 21767, Note_on_c, 0, 72, 0
2, 21768, Note_on_c, 0, 69, 80
2, 21791, Note_on_c, 0, 69, 0
2, 21792, Note_on_c, 0, 81, 80
2, 21815, Note_on_c, 0, 81, 0
2, 21816, Note_on_c, 0, 79, 81
2, 21839, Note_on_c, 0, 79, 0
2, 21840, Note_on_c, 0, 76, 81
2, 21863, Note_on_c, 0, 76, 0
2, 21864, Note_on_c, 0, 69, 81
2, 21887, Note_on_c, 0, 69, 0
2, 21888, Note_on_c, 0, 81, 81
2, 21911, Note_on_c, 0, 81, 0
2, 21912, Note_on_c, 0, 77, 81
2, 21935, Note_on_c, 0, 77, 0
2, 21936, Note_on_c, 0, 74, 82
2, 21959, Note_on_c, 0, 74, 0
2, 21960, Note_on_c, 0, 69, 82
2, 21983, Note_on_c, 0, 69, 0
2, 21984, Note_on_c, 0, 81, 82
2, 22007, Note_on_c, 0, 81, 0
2, 22008, Note_on_c, 0, 78, 82
2, 22031, Note_on_c, 0, 78, 0
2, 22032, Note_on_c, 0, 75, 82
2, 22055, Note_on_c, 0, 75, 0
2, 22056, Note_on_c, 0, 72, 83
2, 22079, Note_on_c, 0, 72, 0
2, 22080, Note_on_c, 0, 88, 83
2, 22103, Note_on_c, 0, 88, 0
2, 22104, Note_on_c, 0, 84, 83
2, 22127, Note_on_c, 0, 84, 0
2, 22128, Note_on_c, 0, 81, 83
2, 22151, Note_on_c, 0, 81, 0
2, 22152, Note_on_c, 0, 76, 83
2, 22175, Note_on_c, 0, 76, 0
2, 22176, Note_on_c, 0, 81, 84
2, 22221, Note_on_c, 0, 81, 0
2, 22224, Note_on_c, 0, 80, 84
2, 22236, Note_on_c, 0, 80, 0
2, 22236, Note_on_c, 0, 81, 84
2, 22248, Note_on_c, 0, 81, 0
2, 22248, Note_on_c, 0, 80, 84
2, 22269, Note_on_c, 0, 80, 0
2, 22272, Note_on_c, 0, 81, 85
2, 22361, Note_on_c, 0, 81, 0
2, 22368, Note_on_c, 0, 76, 85
2, 22413, Note_on_c, 0, 76, 0
2, 22416, Note_on_c, 0, 76, 85
2, 22439, Note_on_c, 0, 76, 0
2, 22440, Note_on_c, 0, 77, 85
2, 22463, Note_on_c, 0, 77, 0
2, 22464, Note_on_c, 0, 74, 80
2, 22509, Note_on_c, 0, 74, 0
2, 22512, Note_on_c, 0, 74, 80
2, 22535, Note_on_c, 0, 74, 0
2, 22536, Note_on_c, 0, 76, 80
2, 22559, Note_on_c, 0, 76, 0
2, 22560, Note_on_c, 0, 72, 80
2, 22605, Note_on_c, 0, 72, 0
2, 22608, Note_on_c, 0, 72, 80
2, 22631, Note_on_c, 0, 72, 0
2, 22632, Note_on_c, 0, 74, 80
2, 22655, Note_on_c, 0, 74, 0
2, 22656, Note_on_c, 0, 71, 80
2, 22745, Note_on_c, 0, 71, 0
2, 22752, Note_on_c, 0, 64, 80
2, 22775, Note_on_c, 0, 64, 0
2, 22776, Note_on_c, 0, 72, 80
2, 22799, Note_on_c, 0, 72, 0
2, 22800, Note_on_c, 0, 76, 80
2, 22823, Note_on_c, 0, 76, 0
2, 22824, Note_on_c, 0, 88, 80
2, 22847, Note_on_c, 0, 88, 0
2, 22848, Note_on_c, 0, 86, 80
2, 22871, Note_on_c, 0, 86, 0
2, 22872, Note_on_c, 0, 76, 80
2, 22895, Note_on_c, 0, 76, 0
2, 22896, Note_on_c, 0, 71, 80
2, 22919, Note_on_c, 0, 71, 0
2, 22920, Note_on_c, 0, 68, 80
2, 22943, Note_on_c, 0, 68, 0
2, 22944, Note_on_c, 0, 64, 80
2, 22967, Note_on_c, 0, 64, 0
2, 22968, Note_on_c, 0, 69, 80
2, 22991, Note_on_c, 0, 69, 0
2, 22992, Note_on_c, 0, 76, 80
2, 23015, Note_on_c, 0, 76, 0
2, 23016, Note_on_c, 0, 84, 80
2, 23039, Note_on_c, 0, 84, 0
2, 23040, Note_on_c, 0, 83, 80
2, 23063, Note_on_c, 0, 83, 0
2, 23064, Note_on_c, 0, 76, 80
2, 23087, Note_on_c, 0, 76, 0
2, 23088, Note_on_c, 0, 68, 80
2, 23111, Note_on_c, 0, 68, 0
2, 23112, Note_on_c, 0, 64, 80
2, 23135, Note_on_c, 0, 64, 0
2, 23136, Note_on_c, 0, 83, 80
2, 23159, Note_on_c, 0, 83, 0
2, 23160, Note_on_c, 0, 80, 80
2, 23183, Note_on_c, 0, 80, 0
2, 23184, Note_on_c, 0, 77, 80
2, 23207, Note_on_c, 0, 77, 0
2, 23208, Note_on_c, 0, 74, 80
2, 23231, Note_on_c, 0, 74, 0
2, 23232, Note_on_c, 0, 81, 80
2, 23255, Note_on_c, 0, 81, 0
2, 23256, Note_on_c, 0, 76, 80
2, 23279, Note_on_c, 0, 76, 0
2, 23280, Note_on_c, 0, 72, 80
2, 23303, Note_on_c, 0, 72, 0
2, 23304, Note_on_c, 0, 69, 80
2, 23327, Note_on_c, 0, 69, 0
2, 23328, Note_on_c, 0, 81, 80
2, 23351, Note_on_c, 0, 81, 0
2, 23352, Note_on_c, 0, 79, 81
2, 23375, Note_on_c, 0, 79, 0
2, 23376, Note_on_c, 0, 76, 81
2, 23399, Note_on_c, 0, 76, 0
2, 23400, Note_on_c, 0, 69, 81
2, 23423, Note_on_c, 0, 69, 0
2, 23424, Note_on_c, 0, 81, 81
2, 23447, Note_on_c, 0, 81, 0
2, 23448, Note_on_c, 0, 77, 81
2, 23471, Note_on_c, 0, 77, 0
2, 23472, Note_on_c, 0, 74, 82
2, 23495, Note_on_c, 0, 74, 0
2, 23496, Note_on_c, 0, 69, 82
2, 23519, Note_on_c, 0, 69, 0
2, 23520, Note_on_c, 0, 81, 82
2, 23543, Note_on_c, 0, 81, 0
2, 23544, Note_on_c, 0, 78, 82
2, 23567, Note_on_c, 0, 78, 0
2, 23568, Note_on_c, 0, 75, 82
2, 23591, Note_on_c, 0, 75, 0
2, 23592, Note_on_c, 0, 72, 83
2, 23615, Note_on_c, 0, 72, 0
2, 23616, Note_on_c, 0, 88, 83
2, 23639, Note_on_c, 0, 88, 0
2, 23640, Note_on_c, 0, 84, 83
2, 23663, Note_on_c, 0, 84, 0
2, 23664, Note_on_c, 0, 81, 83
2, 23687, Note_on_c, 0, 81, 0
2, 23688, Note_on_c, 0, 76, 83
2, 23711, Note_on_c, 0, 76, 0
2, 23712, Note_on_c, 0, 81, 84
2, 23757, Note_on_c, 0, 81, 0
2, 23760, Note_on_c, 0, 80, 84
2, 23772, Note_on_c, 0, 80, 0
2, 23772, Note_on_c, 0, 81, 84
2, 23784, Note_on_c, 0, 81, 0
2, 23784, Note_on_c, 0, 80, 84
2, 23805, Note_on_c, 0, 80, 0
2, 23808, Note_on_c, 0, 81, 85
2, 23897, Note_on_c, 0, 81, 0
2, 23904, Note_on_c, 0, 73, 85
2, 23971, Note_on_c, 0, 73, 0
2, 23976, Note_on_c, 0, 74, 85
2, 23988, Note_on_c, 0, 74, 0
2, 23988, Note_on_c, 0, 76, 85
2, 24000, Note_on_c, 0, 76, 0
2, 24000, Note_on_c, 0, 69, 85
2, 24045, Note_on_c, 0, 69, 0
2, 24048, Note_on_c, 0, 69, 85
2, 24093, Note_on_c, 0, 69, 0
2, 24096, Note_on_c, 0, 73, 85
2, 24119, Note_on_c, 0, 73, 0
2, 24120, Note_on_c, 0, 71, 85
2, 24143, Note_on_c, 0, 71, 0
2, 24144, Note_on_c, 0, 69, 85
2, 24167, Note_on_c, 0, 69, 0
2, 24168, Note_on_c, 0, 71, 85
2, 24191, Note_on_c, 0, 71, 0
2, 24192, Note_on_c, 0, 69, 85
2, 24237, Note_on_c, 0, 69, 0
2, 24288, Note_on_c, 0, 78, 85
2, 24355, Note_on_c, 0, 78, 0
2, 24360, Note_on_c, 0, 80, 85
2, 24372, Note_on_c, 0, 80, 0
2, 24372, Note_on_c, 0, 81, 85
2, 24384, Note_on_c, 0, 81, 0
2, 24384, Note_on_c, 0, 76, 80
2, 24429, Note_on_c, 0, 76, 0
2, 24432, Note_on_c, 0, 76, 81
2, 24432, Note_on_c, 0, 73, 81
2, 24477, Note_on_c, 0, 76, 0
2, 24477, Note_on_c, 0, 73, 0
2, 24480, Note_on_c, 0, 74, 82
2, 24486, Note_on_c, 0, 74, 0
2, 24486, Note_on_c, 0, 76, 82
2, 24492, Note_on_c, 0, 76, 0
2, 24492, Note_on_c, 0, 74, 82
2, 24525, Note_on_c, 0, 74, 0
2, 24528, Note_on_c, 0, 73, 83
2, 24528, Note_on_c, 0, 69, 83
2, 24573, Note_on_c, 0, 73, 0
2, 24573, Note_on_c, 0, 69, 0
2, 24576, Note_on_c, 0, 71, 85
2, 24576, Note_on_c, 0, 68, 85
2, 24665, Note_on_c, 0, 71, 0
2, 24665, Note_on_c, 0, 68, 0
2, 24672, Note_on_c, 0, 78, 80
2, 24695, Note_on_c, 0, 78, 0
2, 24696, Note_on_c, 0, 76, 80
2, 24719, Note_on_c, 0, 76, 0
2, 24720, Note_on_c, 0, 74, 80
2, 24743, Note_on_c, 0, 74, 0
2, 24744, Note_on_c, 0, 73, 80
2, 24767, Note_on_c, 0, 73, 0
2, 24768, Note_on_c, 0, 74, 80
2, 24791, Note_on_c, 0, 74, 0
2, 24792, Note_on_c, 0, 73, 80
2, 24815, Note_on_c, 0, 73, 0
2, 24816, Note_on_c, 0, 71, 80
2, 24839, Note_on_c, 0, 71, 0
2, 24840, Note_on_c, 0, 69, 80
2, 24863, Note_on_c, 0, 69, 0
2, 24864, Note_on_c, 0, 73, 80
2, 24887, Note_on_c, 0, 73, 0
2, 24888, Note_on_c, 0, 71, 80
2, 24911, Note_on_c, 0, 71, 0
2, 24912, Note_on_c, 0, 69, 80
2, 24935, Note_on_c, 0, 69, 0
2, 24936, Note_on_c, 0, 71, 80
2, 24959, Note_on_c, 0, 71, 0
2, 24960, Note_on_c, 0, 74, 80
2, 24983, Note_on_c, 0, 74, 0
2, 24984, Note_on_c, 0, 73, 80
2, 25007, Note_on_c, 0, 73, 0
2, 25008, Note_on_c, 0, 71, 80
2, 25031, Note_on_c, 0, 71, 0
2, 25032, Note_on_c, 0, 69, 80
2, 25055, Note_on_c, 0, 69, 0
2, 25056, Note_on_c, 0, 83, 80
2, 25079, Note_on_c, 0, 83, 0
2, 25080, Note_on_c, 0, 81, 80
2, 25103, Note_on_c, 0, 81, 0
2, 25104, Note_on_c, 0, 80, 80
2, 25127, Note_on_c, 0, 80, 0
2, 25128, Note_on_c, 0, 78, 80
2, 25151, Note_on_c, 0, 78, 0
2, 25152, Note_on_c, 0, 76, 80
2, 25175, Note_on_c, 0, 76, 0
2, 25176, Note_on_c, 0, 85, 80
2, 25199, Note_on_c, 0, 85, 0
2, 25200, Note_on_c, 0, 83, 80
2, 25223, Note_on_c, 0, 83, 0
2, 25224, Note_on_c, 0, 81, 80
2, 25247, Note_on_c, 0, 81, 0
2, 25248, Note_on_c, 0, 80, 80
2, 25271, Note_on_c, 0, 80, 0
2, 25272, Note_on_c, 0, 78, 81
2, 25295, Note_on_c, 0, 78, 0
2, 25296, Note_on_c, 0, 76, 82
2, 25319, Note_on_c, 0, 76, 0
2, 25320, Note_on_c, 0, 74, 83
2, 25343, Note_on_c, 0, 74, 0
2, 25344, Note_on_c, 0, 73, 85
2, 25392, Note_on_c, 0, 73, 0
2, 25392, Note_on_c, 0, 71, 85
2, 25437, Note_on_c, 0, 71, 0
2, 25440, Note_on_c, 0, 75, 75
2, 25463, Note_on_c, 0, 75, 0
2, 25464, Note_on_c, 0, 76, 75
2, 25487, Note_on_c, 0, 76, 0
2, 25488, Note_on_c, 0, 75, 75
2, 25511, Note_on_c, 0, 75, 0
2, 25512, Note_on_c, 0, 76, 75
2, 25535, Note_on_c, 0, 76, 0
2, 25536, Note_on_c, 0, 77, 75
2, 25559, Note_on_c, 0, 77, 0
2, 25560, Note_on_c, 0, 78, 75
2, 25583, Note_on_c, 0, 78, 0
2, 25584, Note_on_c, 0, 77, 75
2, 25607, Note_on_c, 0, 77, 0
2, 25608, Note_on_c, 0, 78, 75
2, 25631, Note_on_c, 0, 78, 0
2, 25632, Note_on_c, 0, 76, 75
2, 25655, Note_on_c, 0, 76, 0
2, 25656, Note_on_c, 0, 75, 75
2, 25679, Note_on_c, 0, 75, 0
2, 25680, Note_on_c, 0, 73, 75
2, 25703, Note_on_c, 0, 73, 0
2, 25704, Note_on_c, 0, 71, 75
2, 25727, Note_on_c, 0, 71, 0
2, 25728, Note_on_c, 0, 82, 75
2, 25751, Note_on_c, 0, 82, 0
2, 25752, Note_on_c, 0, 83, 75
2, 25775, Note_on_c, 0, 83, 0
2, 25776, Note_on_c, 0, 82, 75
2, 25799, Note_on_c, 0, 82, 0
2, 25800, Note_on_c, 0, 83, 75
2, 25823, Note_on_c, 0, 83, 0
2, 25824, Note_on_c, 0, 81, 75
2, 25847, Note_on_c, 0, 81, 0
2, 25848, Note_on_c, 0, 80, 75
2, 25871, Note_on_c, 0, 80, 0
2, 25872, Note_on_c, 0, 78, 75
2, 25895, Note_on_c, 0, 78, 0
2, 25896, Note_on_c, 0, 76, 75
2, 25919, Note_on_c, 0, 76, 0
2, 25920, Note_on_c, 0, 80, 75
2, 25943, Note_on_c, 0, 80, 0
2, 25944, Note_on_c, 0, 81, 75
2, 25967, Note_on_c, 0, 81, 0
2, 25968, Note_on_c, 0, 80, 75
2, 25991, Note_on_c, 0, 80, 0
2, 25992, Note_on_c, 0, 81, 75
2, 26015, Note_on_c, 0, 81, 0
2, 26016, Note_on_c, 0, 80, 75
2, 26039, Note_on_c, 0, 80, 0
2, 26040, Note_on_c, 0, 78, 75
2, 26063, Note_on_c, 0, 78, 0
2, 26064, Note_on_c, 0, 76, 75
2, 26087, Note_on_c, 0, 76, 0
2, 26088, Note_on_c, 0, 75, 75
2, 26111, Note_on_c, 0, 75, 0
2, 26112, Note_on_c, 0, 76, 75
2, 26201, Note_on_c, 0, 76, 0
2, 26208, Note_on_c, 0, 78, 75
2, 26231, Note_on_c, 0, 78, 0
2, 26232, Note_on_c, 0, 76, 75
2, 26255, Note_on_c, 0, 76, 0
2, 26256, Note_on_c, 0, 74, 75
2, 26279, Note_on_c, 0, 74, 0
2, 26280, Note_on_c, 0, 73, 75
2, 26303, Note_on_c, 0, 73, 0
2, 26304, Note_on_c, 0, 74, 80
2, 26327, Note_on_c, 0, 74, 0
2, 26328, Note_on_c, 0, 73, 80
2, 26351, Note_on_c, 0, 73, 0
2, 26352, Note_on_c, 0, 71, 80
2, 26375, Note_on_c, 0, 71, 0
2, 26376, Note_on_c, 0, 69, 80
2, 26399, Note_on_c, 0, 69, 0
2, 26400, Note_on_c, 0, 73, 80
2, 26423, Note_on_c, 0, 73, 0
2, 26424, Note_on_c, 0, 71, 80
2, 26447, Note_on_c, 0, 71, 0
2, 26448, Note_on_c, 0, 69, 80
2, 26471, Note_on_c, 0, 69, 0
2, 26472, Note_on_c, 0, 71, 80
2, 26495, Note_on_c, 0, 71, 0
2, 26496, Note_on_c, 0, 74, 80
2, 26519, Note_on_c, 0, 74, 0
2, 26520, Note_on_c, 0, 73, 80
2, 26543, Note_on_c, 0, 73, 0
2, 26544, Note_on_c, 0, 71, 80
2, 26567, Note_on_c, 0, 71, 0
2, 26568, Note_on_c, 0, 69, 80
2, 26591, Note_on_c, 0, 69, 0
2, 26592, Note_on_c, 0, 83, 80
2, 26615, Note_on_c, 0, 83, 0
2, 26616, Note_on_c, 0, 81, 80
2, 26639, Note_on_c, 0, 81, 0
2, 26640, Note_on_c, 0, 80, 80
2, 26663, Note_on_c, 0, 80, 0
2, 26664, Note_on_c, 0, 78, 80
2, 26687, Note_on_c, 0, 78, 0
2, 26688, Note_on_c, 0, 76, 80
2, 26711, Note_on_c, 0, 76, 0
2, 26712, Note_on_c, 0, 85, 80
2, 26735, Note_on_c, 0, 85, 0
2, 26736, Note_on_c, 0, 83, 80
2, 26759, Note_on_c, 0, 83, 0
2, 26760, Note_on_c, 0, 81, 80
2, 26783, Note_on_c, 0, 81, 0
2, 26784, Note_on_c, 0, 80, 80
2, 26807, Note_on_c, 0, 80, 0
2, 26808, Note_on_c, 0, 78, 81
2, 26831, Note_on_c, 0, 78, 0
2, 26832, Note_on_c, 0, 76, 82
2, 26855, Note_on_c, 0, 76, 0
2, 26856, Note_on_c, 0, 74, 83
2, 26879, Note_on_c, 0, 74, 0
2, 26880, Note_on_c, 0, 73, 85
2, 26928, Note_on_c, 0, 73, 0
2, 26928, Note_on_c, 0, 71, 85
2, 26973, Note_on_c, 0, 71, 0
2, 26976, Note_on_c, 0, 75, 75
2, 26999, Note_on_c, 0, 75, 0
2, 27000, Note_on_c, 0, 76, 75
2, 27023, Note_on_c, 0, 76, 0
2, 27024, Note_on_c, 0, 75, 75
2, 27047, Note_on_c, 0, 75, 0
2, 27048, Note_on_c, 0, 76, 75
2, 27071, Note_on_c, 0, 76, 0
2, 27072, Note_on_c, 0, 77, 75
2, 27095, Note_on_c, 0, 77, 0
2, 27096, Note_on_c, 0, 78, 75
2, 27119, Note_on_c, 0, 78, 0
2, 27120, Note_on_c, 0, 77, 75
2, 27143, Note_on_c, 0, 77, 0
2, 27144, Note_on_c, 0, 78, 75
2, 27167, Note_on_c, 0, 78, 0
2, 27168, Note_on_c, 0, 76, 75
2, 27191, Note_on_c, 0, 76, 0
2, 27192, Note_on_c, 0, 75, 75
2, 27215, Note_on_c, 0, 75, 0
2, 27216, Note_on_c, 0, 73, 75
2, 27239, Note_on_c, 0, 73, 0
2, 27240, Note_on_c, 0, 71, 75
2, 27263, Note_on_c, 0, 71, 0
2, 27264, Note_on_c, 0, 82, 75
2, 27287, Note_on_c, 0, 82, 0
2, 27288, Note_on_c, 0, 83, 75
2, 27311, Note_on_c, 0, 83, 0
2, 27312, Note_on_c, 0, 82, 75
2, 27335, Note_on_c, 0, 82, 0
2, 27336, Note_on_c, 0, 83, 75
2, 27359, Note_on_c, 0, 83, 0
2, 27360, Note_on_c, 0, 81, 75
2, 27383, Note_on_c, 0, 81, 0
2, 27384, Note_on_c, 0, 80, 75
2, 27407, Note_on_c, 0, 80, 0
2, 27408, Note_on_c, 0, 78, 75
2, 27431, Note_on_c, 0, 78, 0
2, 27432, Note_on_c, 0, 76, 75
2, 27455, Note_on_c, 0, 76, 0
2, 27456, Note_on_c, 0, 80, 75
2, 27479, Note_on_c, 0, 80, 0
2, 27480, Note_on_c, 0, 81, 75
2, 27503, Note_on_c, 0, 81, 0
2, 27504, Note_on_c, 0, 80, 75
2, 27527, Note_on_c, 0, 80, 0
2, 27528, Note_on_c, 0, 81, 75
2, 27551, Note_on_c, 0, 81, 0
2, 27552, Note_on_c, 0, 80, 75
2, 27575, Note_on_c, 0, 80, 0
2, 27576, Note_on_c, 0, 78, 75
2, 27599, Note_on_c, 0, 78, 0
2, 27600, Note_on_c, 0, 76, 75
2, 27623, Note_on_c, 0, 76, 0
2, 27624, Note_on_c, 0, 75, 75
2, 27647, Note_on_c, 0, 75, 0
2, 27648, Note_on_c, 0, 76, 75
2, 27737, Note_on_c, 0, 76, 0
2, 27744, Note_on_c, 0, 81, 75
2, 27767, Note_on_c, 0, 81, 0
2, 27768, Note_on_c, 0, 79, 75
2, 27791, Note_on_c, 0, 79, 0
2, 27792, Note_on_c, 0, 78, 75
2, 27815, Note_on_c, 0, 78, 0
2, 27816, Note_on_c, 0, 76, 75
2, 27839, Note_on_c, 0, 76, 0
2, 27840, Note_on_c, 0, 78, 75
2, 27863, Note_on_c, 0, 78, 0
2, 27864, Note_on_c, 0, 76, 75
2, 27887, Note_on_c, 0, 76, 0
2, 27888, Note_on_c, 0, 74, 75
2, 27911, Note_on_c, 0, 74, 0
2, 27912, Note_on_c, 0, 73, 75
2, 27935, Note_on_c, 0, 73, 0
2, 27936, Note_on_c, 0, 73, 75
2, 27959, Note_on_c, 0, 73, 0
2, 27960, Note_on_c, 0, 71, 75
2, 27983, Note_on_c, 0, 71, 0
2, 27984, Note_on_c, 0, 70, 75
2, 28007, Note_on_c, 0, 70, 0
2, 28008, Note_on_c, 0, 71, 75
2, 28031, Note_on_c, 0, 71, 0
2, 28032, Note_on_c, 0, 70, 75
2, 28055, Note_on_c, 0, 70, 0
2, 28056, Note_on_c, 0, 76, 75
2, 28079, Note_on_c, 0, 76, 0
2, 28080, Note_on_c, 0, 74, 75
2, 28103, Note_on_c, 0, 74, 0
2, 28104, Note_on_c, 0, 73, 75
2, 28127, Note_on_c, 0, 73, 0
2, 28128, Note_on_c, 0, 71, 75
2, 28151, Note_on_c, 0, 71, 0
2, 28152, Note_on_c, 0, 78, 75
2, 28175, Note_on_c, 0, 78, 0
2, 28176, Note_on_c, 0, 76, 75
2, 28199, Note_on_c, 0, 76, 0
2, 28200, Note_on_c, 0, 74, 75
2, 28223, Note_on_c, 0, 74, 0
2, 28224, Note_on_c, 0, 73, 75
2, 28247, Note_on_c, 0, 73, 0
2, 28248, Note_on_c, 0, 71, 76
2, 28271, Note_on_c, 0, 71, 0
2, 28272, Note_on_c, 0, 69, 77
2, 28295, Note_on_c, 0, 69, 0
2, 28296, Note_on_c, 0, 68, 78
2, 28319, Note_on_c, 0, 68, 0
2, 28320, Note_on_c, 0, 69, 80
2, 28343, Note_on_c, 0, 69, 0
2, 28344, Note_on_c, 0, 71, 81
2, 28367, Note_on_c, 0, 71, 0
2, 28368, Note_on_c, 0, 73, 82
2, 28391, Note_on_c, 0, 73, 0
2, 28392, Note_on_c, 0, 74, 83
2, 28415, Note_on_c, 0, 74, 0
2, 28416, Note_on_c, 0, 76, 85
2, 28505, Note_on_c, 0, 76, 0
2, 28512, Note_on_c, 0, 78, 80
2, 28535, Note_on_c, 0, 78, 0
2, 28536, Note_on_c, 0, 76, 80
2, 28559, Note_on_c, 0, 76, 0
2, 28560, Note_on_c, 0, 74, 80
2, 28583, Note_on_c, 0, 74, 0
2, 28584, Note_on_c, 0, 73, 80
2, 28607, Note_on_c, 0, 73, 0
2, 28608, Note_on_c, 0, 74, 80
2, 28631, Note_on_c, 0, 74, 0
2, 28632, Note_on_c, 0, 73, 80
2, 28655, Note_on_c, 0, 73, 0
2, 28656, Note_on_c, 0, 71, 80
2, 28679, Note_on_c, 0, 71, 0
2, 28680, Note_on_c, 0, 69, 80
2, 28703, Note_on_c, 0, 69, 0
2, 28704, Note_on_c, 0, 73, 80
2, 28727, Note_on_c, 0, 73, 0
2, 28728, Note_on_c, 0, 71, 80
2, 28751, Note_on_c, 0, 71, 0
2, 28752, Note_on_c, 0, 69, 80
2, 28775, Note_on_c, 0, 69, 0
2, 28776, Note_on_c, 0, 71, 80
2, 28799, Note_on_c, 0, 71, 0
2, 28800, Note_on_c, 0, 74, 80
2, 28823, Note_on_c, 0, 74, 0
2, 28824, Note_on_c, 0, 73, 80
2, 28847, Note_on_c, 0, 73, 0
2, 28848, Note_on_c, 0, 71, 80
2, 28871, Note_on_c, 0, 71, 0
2, 28872, Note_on_c, 0, 69, 80
2, 28895, Note_on_c, 0, 69, 0
2, 28896, Note_on_c, 0, 88, 80
2, 28919, Note_on_c, 0, 88, 0
2, 28920, Note_on_c, 0, 85, 80
2, 28943, Note_on_c, 0, 85, 0
2, 28944, Note_on_c, 0, 83, 80
2, 28967, Note_on_c, 0, 83, 0
2, 28968, Note_on_c, 0, 81, 80
2, 28991, Note_on_c, 0, 81, 0
2, 28992, Note_on_c, 0, 80, 80
2, 29015, Note_on_c, 0, 80, 0
2, 29016, Note_on_c, 0, 78, 80
2, 29039, Note_on_c, 0, 78, 0
2, 29040, Note_on_c, 0, 76, 80
2, 29063, Note_on_c, 0, 76, 0
2, 29064, Note_on_c, 0, 74, 80
2, 29087, Note_on_c, 0, 74, 0
2, 29088, Note_on_c, 0, 73, 80
2, 29133, Note_on_c, 0, 73, 0
2, 29136, Note_on_c, 0, 71, 80
2, 29142, Note_on_c, 0, 71, 0
2, 29142, Note_on_c, 0, 73, 80
2, 29148, Note_on_c, 0, 73, 0
2, 29148, Note_on_c, 0, 71, 80
2, 29181, Note_on_c, 0, 71, 0
2, 29184, Note_on_c, 0, 69, 80
2, 29273, Note_on_c, 0, 69, 0
2, 29280, Note_on_c, 0, 81, 80
2, 29303, Note_on_c, 0, 81, 0
2, 29304, Note_on_c, 0, 79, 80
2, 29327, Note_on_c, 0, 79, 0
2, 29328, Note_on_c, 0, 78, 80
2, 29351, Note_on_c, 0, 78, 0
2, 29352, Note_on_c, 0, 76, 80
2, 29375, Note_on_c, 0, 76, 0
2, 29376, Note_on_c, 0, 78, 75
2, 29399, Note_on_c, 0, 78, 0
2, 29400, Note_on_c, 0, 76, 75
2, 29423, Note_on_c, 0, 76, 0
2, 29424, Note_on_c, 0, 74, 75
2, 29447, Note_on_c, 0, 74, 0
2, 29448, Note_on_c, 0, 73, 75
2, 29471, Note_on_c, 0, 73, 0
2, 29472, Note_on_c, 0, 73, 75
2, 29495, Note_on_c, 0, 73, 0
2, 29496, Note_on_c, 0, 71, 75
2, 29519, Note_on_c, 0, 71, 0
2, 29520, Note_on_c, 0, 70, 75
2, 29543, Note_on_c, 0, 70, 0
2, 29544, Note_on_c, 0, 71, 75
2, 29567, Note_on_c, 0, 71, 0
2, 29568, Note_on_c, 0, 70, 75
2, 29591, Note_on_c, 0, 70, 0
2, 29592, Note_on_c, 0, 76, 75
2, 29615, Note_on_c, 0, 76, 0
2, 29616, Note_on_c, 0, 74, 75
2, 29639, Note_on_c, 0, 74, 0
2, 29640, Note_on_c, 0, 73, 75
2, 29663, Note_on_c, 0, 73, 0
2, 29664, Note_on_c, 0, 71, 75
2, 29687, Note_on_c, 0, 71, 0
2, 29688, Note_on_c, 0, 78, 75
2, 29711, Note_on_c, 0, 78, 0
2, 29712, Note_on_c, 0, 76, 75
2, 29735, Note_on_c, 0, 76, 0
2, 29736, Note_on_c, 0, 74, 75
2, 29759, Note_on_c, 0, 74, 0
2, 29760, Note_on_c, 0, 73, 75
2, 29783, Note_on_c, 0, 73, 0
2, 29784, Note_on_c, 0, 71, 76
2, 29807, Note_on_c, 0, 71, 0
2, 29808, Note_on_c, 0, 69, 77
2, 29831, Note_on_c, 0, 69, 0
2, 29832, Note_on_c, 0, 68, 78
2, 29855, Note_on_c, 0, 68, 0
2, 29856, Note_on_c, 0, 69, 80
2, 29879, Note_on_c, 0, 69, 0
2, 29880, Note_on_c, 0, 71, 81
2, 29903, Note_on_c, 0, 71, 0
2, 29904, Note_on_c, 0, 73, 82
2, 29927, Note_on_c, 0, 73, 0
2, 29928, Note_on_c, 0, 74, 83
2, 29951, Note_on_c, 0, 74, 0
2, 29952, Note_on_c, 0, 76, 85
2, 30041, Note_on_c, 0, 76, 0
2, 30048, Note_on_c, 0, 78, 80
2, 30071, Note_on_c, 0, 78, 0
2, 30072, Note_on_c, 0, 76, 80
2, 30095, Note_on_c, 0, 76, 0
2, 30096, Note_on_c, 0, 74, 80
2, 30119, Note_on_c, 0, 74, 0
2, 30120, Note_on_c, 0, 73, 80
2, 30143, Note_on_c, 0, 73, 0
2, 30144, Note_on_c, 0, 74, 80
2, 30167, Note_on_c, 0, 74, 0
2, 30168, Note_on_c, 0, 73, 80
2, 30191, Note_on_c, 0, 73, 0
2, 30192, Note_on_c, 0, 71, 80
2, 30215, Note_on_c, 0, 71, 0
2, 30216, Note_on_c, 0, 69, 80
2, 30239, Note_on_c, 0, 69, 0
2, 30240, Note_on_c, 0, 73, 80
2, 30263, Note_on_c, 0, 73, 0
2, 30264, Note_on_c, 0, 71, 80
2, 30287, Note_on_c, 0, 71, 0
2, 30288, Note_on_c, 0, 69, 80
2, 30311, Note_on_c, 0, 69, 0
2, 30312, Note_on_c, 0, 71, 80
2, 30335, Note_on_c, 0, 71, 0
2, 30336, Note_on_c, 0, 74, 80
2, 30359, Note_on_c, 0, 74, 0
2, 30360, Note_on_c, 0, 73, 80
2, 30383, Note_on_c, 0, 73, 0
2, 30384, Note_on_c, 0, 71, 80
2, 30407, Note_on_c, 0, 71, 0
2, 30408, Note_on_c, 0, 69, 80
2, 30431, Note_on_c, 0, 69, 0
2, 30432, Note_on_c, 0, 88, 80
2, 30455, Note_on_c, 0, 88, 0
2, 30456, Note_on_c, 0, 85, 80
2, 30479, Note_on_c, 0, 85, 0
2, 30480, Note_on_c, 0, 83, 80
2, 30503, Note_on_c, 0, 83, 0
2, 30504, Note_on_c, 0, 81, 80
2, 30527, Note_on_c, 0, 81, 0
2, 30528, Note_on_c, 0, 80, 80
2, 30551, Note_on_c, 0, 80, 0
2, 30552, Note_on_c, 0, 78, 80
2, 30575, Note_on_c, 0, 78, 0
2, 30576, Note_on_c, 0, 76, 80
2, 30599, Note_on_c, 0, 76, 0
2, 30600, Note_on_c, 0, 74, 80
2, 30623, Note_on_c, 0, 74, 0
2, 30624, Note_on_c, 0, 73, 80
2, 30669, Note_on_c, 0, 73, 0
2, 30672, Note_on_c, 0, 71, 80
2, 30678, Note_on_c, 0, 71, 0
2, 30678, Note_on_c, 0, 73, 80
2, 30684, Note_on_c, 0, 73, 0
2, 30684, Note_on_c, 0, 71, 80
2, 30717, Note_on_c, 0, 71, 0
2, 30720, Note_on_c, 0, 69, 80
2, 30809, Note_on_c, 0, 69, 0
2, 30816, Note_on_c, 0, 73, 80
2, 30883, Note_on_c, 0, 73, 0
2, 30888, Note_on_c, 0, 74, 80
2, 30900, Note_on_c, 0, 74, 0
2, 30900, Note_on_c, 0, 76, 80
2, 30912, Note_on_c, 0, 76, 0
2, 30912, Note_on_c, 0, 69, 80
2, 30932, Note_on_c, 0, 69, 0
2, 30960, Note_on_c, 0, 69, 80
2, 30980, Note_on_c, 0, 69, 0
2, 31008, Note_on_c, 0, 73, 80
2, 31031, Note_on_c, 0, 73, 0
2, 31032, Note_on_c, 0, 71, 80
2, 31055, Note_on_c, 0, 71, 0
2, 31056, Note_on_c, 0, 69, 80
2, 31079, Note_on_c, 0, 69, 0
2, 31080, Note_on_c, 0, 71, 80
2, 31103, Note_on_c, 0, 71, 0
2, 31104, Note_on_c, 0, 69, 80
2, 31149, Note_on_c, 0, 69, 0
2, 31200, Note_on_c, 0, 78, 80
2, 31267, Note_on_c, 0, 78, 0
2, 31272, Note_on_c, 0, 80, 80
2, 31284, Note_on_c, 0, 80, 0
2, 31284, Note_on_c, 0, 81, 80
2, 31296, Note_on_c, 0, 81, 0
2, 31296, Note_on_c, 0, 76, 80
2, 31341, Note_on_c, 0, 76, 0
2, 31344, Note_on_c, 0, 76, 81
2, 31344, Note_on_c, 0, 73, 81
2, 31389, Note_on_c, 0, 76, 0
2, 31389, Note_on_c, 0, 73, 0
2, 31392, Note_on_c, 0, 74, 82
2, 31398, Note_on_c, 0, 74, 0
2, 31398, Note_on_c, 0, 76, 82
2, 31404, Note_on_c, 0, 76, 0
2, 31404, Note_on_c, 0, 74, 82
2, 31437, Note_on_c, 0, 74, 0
2, 31440, Note_on_c, 0, 73, 83
2, 31440, Note_on_c, 0, 69, 83
2, 31485, Note_on_c, 0, 73, 0
2, 31485, Note_on_c, 0, 69, 0
2, 31488, Note_on_c, 0, 71, 85
2, 31488, Note_on_c, 0, 68, 85
2, 31577, Note_on_c, 0, 71, 0
2, 31577, Note_on_c, 0, 68, 0
2, 31584, Note_on_c, 0, 73, 80
2, 31607, Note_on_c, 0, 73, 0
2, 31608, Note_on_c, 0, 74, 80
2, 31631, Note_on_c, 0, 74, 0
2, 31632, Note_on_c, 0, 75, 80
2, 31655, Note_on_c, 0, 75, 0
2, 31656, Note_on_c, 0, 76, 80
2, 31679, Note_on_c, 0, 76, 0
2, 31680, Note_on_c, 0, 69, 80
2, 31725, Note_on_c, 0, 69, 0
2, 31728, Note_on_c, 0, 69, 80
2, 31773, Note_on_c, 0, 69, 0
2, 31776, Note_on_c, 0, 73, 80
2, 31799, Note_on_c, 0, 73, 0
2, 31800, Note_on_c, 0, 71, 80
2, 31823, Note_on_c, 0, 71, 0
2, 31824, Note_on_c, 0, 69, 80
2, 31847, Note_on_c, 0, 69, 0
2, 31848, Note_on_c, 0, 71, 80
2, 31871, Note_on_c, 0, 71, 0
2, 31872, Note_on_c, 0, 73, 85
2, 31917, Note_on_c, 0, 73, 0
2, 31920, Note_on_c, 0, 74, 85
2, 31943, Note_on_c, 0, 74, 0
2, 31944, Note_on_c, 0, 76, 85
2, 31967, Note_on_c, 0, 76, 0
2, 31968, Note_on_c, 0, 78, 85
2, 31991, Note_on_c, 0, 78, 0
2, 31992, Note_on_c, 0, 80, 85
2, 32015, Note_on_c, 0, 80, 0
2, 32016, Note_on_c, 0, 81, 85
2, 32039, Note_on_c, 0, 81, 0
2, 32040, Note_on_c, 0, 83, 85
2, 32063, Note_on_c, 0, 83, 0
2, 32064, Note_on_c, 0, 85, 85
2, 32087, Note_on_c, 0, 85, 0
2, 32088, Note_on_c, 0, 86, 85
2, 32111, Note_on_c, 0, 86, 0
2, 32112, Note_on_c, 0, 88, 85
2, 32135, Note_on_c, 0, 88, 0
2, 32136, Note_on_c, 0, 86, 85
2, 32159, Note_on_c, 0, 86, 0
2, 32160, Note_on_c, 0, 85, 85
2, 32183, Note_on_c, 0, 85, 0
2, 32184, Note_on_c, 0, 83, 85
2, 32207, Note_on_c, 0, 83, 0
2, 32208, Note_on_c, 0, 81, 85
2, 32231, Note_on_c, 0, 81, 0
2, 32232, Note_on_c, 0, 80, 85
2, 32255, Note_on_c, 0, 80, 0
2, 32256, Note_on_c, 0, 78, 85
2, 32301, Note_on_c, 0, 78, 0
2, 32304, Note_on_c, 0, 81, 85
2, 32319, Note_on_c, 0, 81, 0
2, 32320, Note_on_c, 0, 78, 85
2, 32335, Note_on_c, 0, 78, 0
2, 32336, Note_on_c, 0, 74, 85
2, 32351, Note_on_c, 0, 74, 0
2, 32352, Note_on_c, 0, 73, 85
2, 32397, Note_on_c, 0, 73, 0
2, 32400, Note_on_c, 0, 71, 85
2, 32406, Note_on_c, 0, 71, 0
2, 32406, Note_on_c, 0, 73, 85
2, 32412, Note_on_c, 0, 73, 0
2, 32412, Note_on_c, 0, 71, 85
2, 32445, Note_on_c, 0, 71, 0
2, 32448, Note_on_c, 0, 69, 85
2, 32537, Note_on_c, 0, 69, 0
2, 32544, Note_on_c, 0, 81, 92
2, 32544, Note_on_c, 0, 76, 92
2, 32544, Note_on_c, 0, 73, 92
2, 32633, Note_on_c, 0, 81, 0
2, 32633, Note_on_c, 0, 76, 0
2, 32633, Note_on_c, 0, 73, 0
2, 32640, Note_on_c, 0, 81, 92
2, 32640, Note_on_c, 0, 76, 92
2, 32640, Note_on_c, 0, 73, 92
2, 32729, Note_on_c, 0, 81, 0
2, 32729, Note_on_c, 0, 76, 0
2, 32729, Note_on_c, 0, 73, 0
2, 32928, End_track
3, 0, Start_track
3, 0, Program_c, 0, 0
3, 0, Control_c, 0, 7, 127
3, 0, Control_c, 0, 10, 64
3, 624, Note_on_c, 0, 73, 64
3, 669, Note_on_c, 0, 73, 0
3, 672, Note_on_c, 0, 71, 64
3, 717, Note_on_c, 0, 71, 0
3, 720, Note_on_c, 0, 69, 64
3, 765, Note_on_c, 0, 69, 0
3, 2160, Note_on_c, 0, 73, 64
3, 2205, Note_on_c, 0, 73, 0
3, 2208, Note_on_c, 0, 71, 64
3, 2253, Note_on_c, 0, 71, 0
3, 2256, Note_on_c, 0, 69, 64
3, 2301, Note_on_c, 0, 69, 0
3, 6528, Note_on_c, 0, 74, 80
3, 6540, Note_on_c, 0, 74, 0
3, 6540, Note_on_c, 0, 72, 80
3, 6552, Note_on_c, 0, 72, 0
3, 6552, Note_on_c, 0, 71, 80
3, 6564, Note_on_c, 0, 71, 0
3, 6564, Note_on_c, 0, 72, 80
3, 6576, Note_on_c, 0, 72, 0
3, 7680, Note_on_c, 0, 74, 80
3, 7692, Note_on_c, 0, 74, 0
3, 7692, Note_on_c, 0, 72, 80
3, 7704, Note_on_c, 0, 72, 0
3, 7704, Note_on_c, 0, 71, 80
3, 7716, Note_on_c, 0, 71, 0
3, 7716, Note_on_c, 0, 72, 80
3, 7728, Note_on_c, 0, 72, 0
3, 12192, Note_on_c, 0, 71, 80
3, 12237, Note_on_c, 0, 71, 0
3, 24480, Note_on_c, 0, 71, 80
3, 24525, Note_on_c, 0, 71, 0
3, 31392, Note_on_c, 0, 71, 80
3, 31437, Note_on_c, 0, 71, 0
3, 32928, End_track
4, 0, Start_track
4, 0, Program_c, 1, 0
4, 0, Control_c, 1, 7, 127
4, 0, Control_c, 1, 10, 64
4, 192, Note_on_c, 1, 61, 75
4, 192, Note_on_c, 1, 57, 75
4, 237, Note_on_c, 1, 61, 0
4, 237, Note_on_c, 1, 57, 0
4, 240, Note_on_c, 1, 61, 75
4, 240, Note_on_c, 1, 57, 75
4, 285, Note_on_c, 1, 61, 0
4, 285, Note_on_c, 1, 57, 0
4, 288, Note_on_c, 1, 62, 75
4, 288, Note_on_c, 1, 52, 75
4, 333, Note_on_c, 1, 62, 0
4, 333, Note_on_c, 1, 52, 0
4, 336, Note_on_c, 1, 62, 75
4, 336, Note_on_c, 1, 52, 75
4, 381, Note_on_c, 1, 62, 0
4, 381, Note_on_c, 1, 52, 0
4, 384, Note_on_c, 1, 61, 75
4, 384, Note_on_c, 1, 57, 75
4, 429, Note_on_c, 1, 61, 0
4, 429, Note_on_c, 1, 57, 0
4, 480, Note_on_c, 1, 57, 75
4, 480, Note_on_c, 1, 50, 75
4, 569, Note_on_c, 1, 57, 0
4, 569, Note_on_c, 1, 50, 0
4, 576, Note_on_c, 1, 57, 75
4, 576, Note_on_c, 1, 49, 75
4, 621, Note_on_c, 1, 57, 0
4, 621, Note_on_c, 1, 49, 0
4, 624, Note_on_c, 1, 61, 75
4, 669, Note_on_c, 1, 61, 0
4, 672, Note_on_c, 1, 62, 75
4, 717, Note_on_c, 1, 62, 0
4, 720, Note_on_c, 1, 63, 75
4, 765, Note_on_c, 1, 63, 0
4, 768, Note_on_c, 1, 64, 75
4, 857, Note_on_c, 1, 64, 0
4, 864, Note_on_c, 1, 56, 75
4, 864, Note_on_c, 1, 52, 75
4, 909, Note_on_c, 1, 56, 0
4, 909, Note_on_c, 1, 52, 0
4, 912, Note_on_c, 1, 56, 75
4, 912, Note_on_c, 1, 52, 75
4, 957, Note_on_c, 1, 56, 0
4, 957, Note_on_c, 1, 52, 0
4, 960, Note_on_c, 1, 57, 75
4, 960, Note_on_c, 1, 52, 75
4, 1005, Note_on_c, 1, 57, 0
4, 1005, Note_on_c, 1, 52, 0
4, 1008, Note_on_c, 1, 57, 75
4, 1008, Note_on_c, 1, 52, 75
4, 1053, Note_on_c, 1, 57, 0
4, 1053, Note_on_c, 1, 52, 0
4, 1056, Note_on_c, 1, 57, 75
4, 1056, Note_on_c, 1, 52, 75
4, 1101, Note_on_c, 1, 57, 0
4, 1101, Note_on_c, 1, 52, 0
4, 1104, Note_on_c, 1, 57, 75
4, 1104, Note_on_c, 1, 52, 75
4, 1149, Note_on_c, 1, 57, 0
4, 1149, Note_on_c, 1, 52, 0
4, 1152, Note_on_c, 1, 56, 75
4, 1152, Note_on_c, 1, 52, 75
4, 1197, Note_on_c, 1, 56, 0
4, 1197, Note_on_c, 1, 52, 0
4, 1200, Note_on_c, 1, 56, 75
4, 1200, Note_on_c, 1, 52, 75
4, 1245, Note_on_c, 1, 56, 0
4, 1245, Note_on_c, 1, 52, 0
4, 1248, Note_on_c, 1, 64, 75
4, 1248, Note_on_c, 1, 61, 75
4, 1293, Note_on_c, 1, 64, 0
4, 1293, Note_on_c, 1, 61, 0
4, 1296, Note_on_c, 1, 64, 75
4, 1296, Note_on_c, 1, 61, 75
4, 1341, Note_on_c, 1, 64, 0
4, 1341, Note_on_c, 1, 61, 0
4, 1344, Note_on_c, 1, 61, 75
4, 1344, Note_on_c, 1, 57, 75
4, 1389, Note_on_c, 1, 61, 0
4, 1389, Note_on_c, 1, 57, 0
4, 1392, Note_on_c, 1, 61, 75
4, 1392, Note_on_c, 1, 57, 75
4, 1437, Note_on_c, 1, 61, 0
4, 1437, Note_on_c, 1, 57, 0
4, 1440, Note_on_c, 1, 59, 75
4, 1485, Note_on_c, 1, 59, 0
4, 1488, Note_on_c, 1, 59, 75
4, 1533, Note_on_c, 1, 59, 0
4, 1536, Note_on_c, 1, 52, 75
4, 1625, Note_on_c, 1, 52, 0
4, 1728, Note_on_c, 1, 61, 75
4, 1728, Note_on_c, 1, 57, 75
4, 1773, Note_on_c, 1, 61, 0
4, 1773, Note_on_c, 1, 57, 0
4, 1776, Note_on_c, 1, 61, 75
4, 1776, Note_on_c, 1, 57, 75
4, 1821, Note_on_c, 1, 61, 0
4, 1821, Note_on_c, 1, 57, 0
4, 1824, Note_on_c, 1, 62, 75
4, 1824, Note_on_c, 1, 52, 75
4, 1869, Note_on_c, 1, 62, 0
4, 1869, Note_on_c, 1, 52, 0
4, 1872, Note_on_c, 1, 62, 75
4, 1872, Note_on_c, 1, 52, 75
4, 1917, Note_on_c, 1, 62, 0
4, 1917, Note_on_c, 1, 52, 0
4, 1920, Note_on_c, 1, 61, 75
4, 1920, Note_on_c, 1, 57, 75
4, 1965, Note_on_c, 1, 61, 0
4, 1965, Note_on_c, 1, 57, 0
4, 2016, Note_on_c, 1, 57, 75
4, 2016, Note_on_c, 1, 50, 75
4, 2105, Note_on_c, 1, 57, 0
4, 2105, Note_on_c, 1, 50, 0
4, 2112, Note_on_c, 1, 57, 75
4, 2112, Note_on_c, 1, 49, 75
4, 2157, Note_on_c, 1, 57, 0
4, 2157, Note_on_c, 1, 49, 0
4, 2160, Note_on_c, 1, 61, 75
4, 2205, Note_on_c, 1, 61, 0
4, 2208, Note_on_c, 1, 62, 75
4, 2253, Note_on_c, 1, 62, 0
4, 2256, Note_on_c, 1, 63, 75
4, 2301, Note_on_c, 1, 63, 0
4, 2304, Note_on_c, 1, 64, 75
4, 2393, Note_on_c, 1, 64, 0
4, 2400, Note_on_c, 1, 56, 75
4, 2400, Note_on_c, 1, 52, 75
4, 2445, Note_on_c, 1, 56, 0
4, 2445, Note_on_c, 1, 52, 0
4, 2448, Note_on_c, 1, 56, 75
4, 2448, Note_on_c, 1, 52, 75
4, 2493, Note_on_c, 1, 56, 0
4, 2493, Note_on_c, 1, 52, 0
4, 2496, Note_on_c, 1, 57, 75
4, 2496, Note_on_c, 1, 52, 75
4, 2541, Note_on_c, 1, 57, 0
4, 2541, Note_on_c, 1, 52, 0
4, 2544, Note_on_c, 1, 57, 75
4, 2544, Note_on_c, 1, 52, 75
4, 2589, Note_on_c, 1, 57, 0
4, 2589, Note_on_c, 1, 52, 0
4, 2592, Note_on_c, 1, 57, 75
4, 2592, Note_on_c, 1, 52, 75
4, 2637, Note_on_c, 1, 57, 0
4, 2637, Note_on_c, 1, 52, 0
4, 2640, Note_on_c, 1, 57, 75
4, 2640, Note_on_c, 1, 52, 75
4, 2685, Note_on_c, 1, 57, 0
4, 2685, Note_on_c, 1, 52, 0
4, 2688, Note_on_c, 1, 56, 75
4, 2688, Note_on_c, 1, 52, 75
4, 2733, Note_on_c, 1, 56, 0
4, 2733, Note_on_c, 1, 52, 0
4, 2736, Note_on_c, 1, 56, 75
4, 2736, Note_on_c, 1, 52, 75
4, 2781, Note_on_c, 1, 56, 0
4, 2781, Note_on_c, 1, 52, 0
4, 2784, Note_on_c, 1, 64, 75
4, 2784, Note_on_c, 1, 61, 75
4, 2829, Note_on_c, 1, 64, 0
4, 2829, Note_on_c, 1, 61, 0
4, 2832, Note_on_c, 1, 64, 75
4, 2832, Note_on_c, 1, 61, 75
4, 2877, Note_on_c, 1, 64, 0
4, 2877, Note_on_c, 1, 61, 0
4, 2880, Note_on_c, 1, 61, 75
4, 2880, Note_on_c, 1, 57, 75
4, 2925, Note_on_c, 1, 61, 0
4, 2925, Note_on_c, 1, 57, 0
4, 2928, Note_on_c, 1, 61, 75
4, 2928, Note_on_c, 1, 57, 75
4, 2973, Note_on_c, 1, 61, 0
4, 2973, Note_on_c, 1, 57, 0
4, 2976, Note_on_c, 1, 59, 75
4, 3021, Note_on_c, 1, 59, 0
4, 3024, Note_on_c, 1, 59, 75
4, 3069, Note_on_c, 1, 59, 0
4, 3072, Note_on_c, 1, 52, 75
4, 3161, Note_on_c, 1, 52, 0
4, 3264, Note_on_c, 1, 67, 70
4, 3264, Note_on_c, 1, 64, 70
4, 3309, Note_on_c, 1, 67, 0
4, 3309, Note_on_c, 1, 64, 0
4, 3312, Note_on_c, 1, 67, 70
4, 3312, Note_on_c, 1, 64, 70
4, 3357, Note_on_c, 1, 67, 0
4, 3357, Note_on_c, 1, 64, 0
4, 3360, Note_on_c, 1, 66, 70
4, 3360, Note_on_c, 1, 62, 70
4, 3405, Note_on_c, 1, 66, 0
4, 3405, Note_on_c, 1, 62, 0
4, 3408, Note_on_c, 1, 66, 70
4, 3408, Note_on_c, 1, 62, 70
4, 3453, Note_on_c, 1, 66, 0
4, 3453, Note_on_c, 1, 62, 0
4, 3456, Note_on_c, 1, 64, 70
4, 3456, Note_on_c, 1, 61, 70
4, 3501, Note_on_c, 1, 64, 0
4, 3501, Note_on_c, 1, 61, 0
4, 3504, Note_on_c, 1, 64, 70
4, 3504, Note_on_c, 1, 61, 70
4, 3549, Note_on_c, 1, 64, 0
4, 3549, Note_on_c, 1, 61, 0
4, 3552, Note_on_c, 1, 66, 70
4, 3552, Note_on_c, 1, 62, 70
4, 3597, Note_on_c, 1, 66, 0
4, 3597, Note_on_c, 1, 62, 0
4, 3600, Note_on_c, 1, 66, 70
4, 3600, Note_on_c, 1, 62, 70
4, 3645, Note_on_c, 1, 66, 0
4, 3645, Note_on_c, 1, 62, 0
4, 3648, Note_on_c, 1, 64, 70
4, 3648, Note_on_c, 1, 62, 70
4, 3693, Note_on_c, 1, 64, 0
4, 3693, Note_on_c, 1, 62, 0
4, 3696, Note_on_c, 1, 64, 70
4, 3696, Note_on_c, 1, 62, 70
4, 3741, Note_on_c, 1, 64, 0
4, 3741, Note_on_c, 1, 62, 0
4, 3744, Note_on_c, 1, 64, 70
4, 3744, Note_on_c, 1, 61, 70
4, 3789, Note_on_c, 1, 64, 0
4, 3789, Note_on_c, 1, 61, 0
4, 3792, Note_on_c, 1, 64, 70
4, 3792, Note_on_c, 1, 57, 70
4, 3837, Note_on_c, 1, 64, 0
4, 3837, Note_on_c, 1, 57, 0
4, 3840, Note_on_c, 1, 64, 70
4, 3840, Note_on_c, 1, 52, 70
4, 3929, Note_on_c, 1, 64, 0
4, 3929, Note_on_c, 1, 52, 0
4, 4032, Note_on_c, 1, 61, 75
4, 4032, Note_on_c, 1, 57, 75
4, 4077, Note_on_c, 1, 61, 0
4, 4077, Note_on_c, 1, 57, 0
4, 4080, Note_on_c, 1, 61, 75
4, 4080, Note_on_c, 1, 57, 75
4, 4125, Note_on_c, 1, 61, 0
4, 4125, Note_on_c, 1, 57, 0
4, 4128, Note_on_c, 1, 62, 75
4, 4128, Note_on_c, 1, 52, 75
4, 4173, Note_on_c, 1, 62, 0
4, 4173, Note_on_c, 1, 52, 0
4, 4176, Note_on_c, 1, 62, 75
4, 4176, Note_on_c, 1, 52, 75
4, 4221, Note_on_c, 1, 62, 0
4, 4221, Note_on_c, 1, 52, 0
4, 4224, Note_on_c, 1, 61, 75
4, 4224, Note_on_c, 1, 57, 75
4, 4269, Note_on_c, 1, 61, 0
4, 4269, Note_on_c, 1, 57, 0
4, 4320, Note_on_c, 1, 57, 75
4, 4320, Note_on_c, 1, 49, 75
4, 4409, Note_on_c, 1, 57, 0
4, 4409, Note_on_c, 1, 49, 0
4, 4416, Note_on_c, 1, 57, 75
4, 4416, Note_on_c, 1, 50, 75
4, 4461, Note_on_c, 1, 57, 0
4, 4461, Note_on_c, 1, 50, 0
4, 4464, Note_on_c, 1, 57, 75
4, 4464, Note_on_c, 1, 50, 75
4, 4509, Note_on_c, 1, 57, 0
4, 4509, Note_on_c, 1, 50, 0
4, 4512, Note_on_c, 1, 57, 75
4, 4512, Note_on_c, 1, 52, 75
4, 4557, Note_on_c, 1, 57, 0
4, 4557, Note_on_c, 1, 52, 0
4, 4560, Note_on_c, 1, 56, 75
4, 4560, Note_on_c, 1, 52, 75
4, 4605, Note_on_c, 1, 56, 0
4, 4605, Note_on_c, 1, 52, 0
4, 4608, Note_on_c, 1, 57, 75
4, 4697, Note_on_c, 1, 57, 0
4, 4800, Note_on_c, 1, 67, 70
4, 4800, Note_on_c, 1, 64, 70
4, 4845, Note_on_c, 1, 67, 0
4, 4845, Note_on_c, 1, 64, 0
4, 4848, Note_on_c, 1, 67, 70
4, 4848, Note_on_c, 1, 64, 70
4, 4893, Note_on_c, 1, 67, 0
4, 4893, Note_on_c, 1, 64, 0
4, 4896, Note_on_c, 1, 66, 70
4, 4896, Note_on_c, 1, 62, 70
4, 4941, Note_on_c, 1, 66, 0
4, 4941, Note_on_c, 1, 62, 0
4, 4944, Note_on_c, 1, 66, 70
4, 4944, Note_on_c, 1, 62, 70
4, 4989, Note_on_c, 1, 66, 0
4, 4989, Note_on_c, 1, 62, 0
4, 4992, Note_on_c, 1, 64, 70
4, 4992, Note_on_c, 1, 61, 70
4, 5037, Note_on_c, 1, 64, 0
4, 5037, Note_on_c, 1, 61, 0
4, 5040, Note_on_c, 1, 64, 70
4, 5040, Note_on_c, 1, 61, 70
4, 5085, Note_on_c, 1, 64, 0
4, 5085, Note_on_c, 1, 61, 0
4, 5088, Note_on_c, 1, 66, 70
4, 5088, Note_on_c, 1, 62, 70
4, 5133, Note_on_c, 1, 66, 0
4, 5133, Note_on_c, 1, 62, 0
4, 5136, Note_on_c, 1, 66, 70
4, 5136, Note_on_c, 1, 62, 70
4, 5181, Note_on_c, 1, 66, 0
4, 5181, Note_on_c, 1, 62, 0
4, 5184, Note_on_c, 1, 64, 70
4, 5184, Note_on_c, 1, 62, 70
4, 5229, Note_on_c, 1, 64, 0
4, 5229, Note_on_c, 1, 62, 0
4, 5232, Note_on_c, 1, 64, 70
4, 5232, Note_on_c, 1, 62, 70
4, 5277, Note_on_c, 1, 64, 0
4, 5277, Note_on_c, 1, 62, 0
4, 5280, Note_on_c, 1, 64, 70
4, 5280, Note_on_c, 1, 61, 70
4, 5325, Note_on_c, 1, 64, 0
4, 5325, Note_on_c, 1, 61, 0
4, 5328, Note_on_c, 1, 64, 70
4, 5328, Note_on_c, 1, 57, 70
4, 5373, Note_on_c, 1, 64, 0
4, 5373, Note_on_c, 1, 57, 0
4, 5376, Note_on_c, 1, 64, 70
4, 5376, Note_on_c, 1, 52, 70
4, 5465, Note_on_c, 1, 64, 0
4, 5465, Note_on_c, 1, 52, 0
4, 5568, Note_on_c, 1, 61, 75
4, 5568, Note_on_c, 1, 57, 75
4, 5613, Note_on_c, 1, 61, 0
4, 5613, Note_on_c, 1, 57, 0
4, 5616, Note_on_c, 1, 61, 75
4, 5616, Note_on_c, 1, 57, 75
4, 5661, Note_on_c, 1, 61, 0
4, 5661, Note_on_c, 1, 57, 0
4, 5664, Note_on_c, 1, 62, 75
4, 5664, Note_on_c, 1, 52, 75
4, 5709, Note_on_c, 1, 62, 0
4, 5709, Note_on_c, 1, 52, 0
4, 5712, Note_on_c, 1, 62, 75
4, 5712, Note_on_c, 1, 52, 75
4, 5757, Note_on_c, 1, 62, 0
4, 5757, Note_on_c, 1, 52, 0
4, 5760, Note_on_c, 1, 61, 75
4, 5760, Note_on_c, 1, 57, 75
4, 5805, Note_on_c, 1, 61, 0
4, 5805, Note_on_c, 1, 57, 0
4, 5856, Note_on_c, 1, 57, 75
4, 5856, Note_on_c, 1, 49, 75
4, 5945, Note_on_c, 1, 57, 0
4, 5945, Note_on_c, 1, 49, 0
4, 5952, Note_on_c, 1, 57, 75
4, 5952, Note_on_c, 1, 50, 75
4, 5997, Note_on_c, 1, 57, 0
4, 5997, Note_on_c, 1, 50, 0
4, 6000, Note_on_c, 1, 57, 75
4, 6000, Note_on_c, 1, 50, 75
4, 6045, Note_on_c, 1, 57, 0
4, 6045, Note_on_c, 1, 50, 0
4, 6048, Note_on_c, 1, 57, 75
4, 6048, Note_on_c, 1, 52, 75
4, 6093, Note_on_c, 1, 57, 0
4, 6093, Note_on_c, 1, 52, 0
4, 6096, Note_on_c, 1, 56, 75
4, 6096, Note_on_c, 1, 52, 75
4, 6141, Note_on_c, 1, 56, 0
4, 6141, Note_on_c, 1, 52, 0
4, 6144, Note_on_c, 1, 57, 75
4, 6233, Note_on_c, 1, 57, 0
4, 6288, Note_on_c, 1, 60, 75
4, 6288, Note_on_c, 1, 57, 75
4, 6333, Note_on_c, 1, 60, 0
4, 6333, Note_on_c, 1, 57, 0
4, 6336, Note_on_c, 1, 62, 75
4, 6336, Note_on_c, 1, 59, 75
4, 6425, Note_on_c, 1, 62, 0
4, 6425, Note_on_c, 1, 59, 0
4, 6480, Note_on_c, 1, 56, 75
4, 6525, Note_on_c, 1, 56, 0
4, 6528, Note_on_c, 1, 57, 75
4, 6573, Note_on_c, 1, 57, 0
4, 6576, Note_on_c, 1, 52, 75
4, 6621, Note_on_c, 1, 52, 0
4, 6624, Note_on_c, 1, 60, 75
4, 6624, Note_on_c, 1, 57, 75
4, 6669, Note_on_c, 1, 60, 0
4, 6669, Note_on_c, 1, 57, 0
4, 6672, Note_on_c, 1, 60, 75
4, 6672, Note_on_c, 1, 57, 75
4, 6717, Note_on_c, 1, 60, 0
4, 6717, Note_on_c, 1, 57, 0
4, 6720, Note_on_c, 1, 59, 80
4, 6720, Note_on_c, 1, 55, 80
4, 6765, Note_on_c, 1, 59, 0
4, 6765, Note_on_c, 1, 55, 0
4, 6768, Note_on_c, 1, 59, 81
4, 6768, Note_on_c, 1, 55, 81
4, 6813, Note_on_c, 1, 59, 0
4, 6813, Note_on_c, 1, 55, 0
4, 6816, Note_on_c, 1, 60, 83
4, 6816, Note_on_c, 1, 52, 83
4, 6816, Note_on_c, 1, 48, 83
4, 6861, Note_on_c, 1, 60, 0
4, 6861, Note_on_c, 1, 52, 0
4, 6861, Note_on_c, 1, 48, 0
4, 6864, Note_on_c, 1, 60, 85
4, 6864, Note_on_c, 1, 52, 85
4, 6864, Note_on_c, 1, 48, 85
4, 6909, Note_on_c, 1, 60, 0
4, 6909, Note_on_c, 1, 52, 0
4, 6909, Note_on_c, 1, 48, 0
4, 6912, Note_on_c, 1, 60, 86
4, 6912, Note_on_c, 1, 57, 86
4, 6912, Note_on_c, 1, 53, 86
4, 6957, Note_on_c, 1, 60, 0
4, 6957, Note_on_c, 1, 57, 0
4, 6957, Note_on_c, 1, 53, 0
4, 6960, Note_on_c, 1, 60, 88
4, 6960, Note_on_c, 1, 57, 88
4, 6960, Note_on_c, 1, 53, 88
4, 7005, Note_on_c, 1, 60, 0
4, 7005, Note_on_c, 1, 57, 0
4, 7005, Note_on_c, 1, 53, 0
4, 7008, Note_on_c, 1, 61, 90
4, 7008, Note_on_c, 1, 58, 90
4, 7008, Note_on_c, 1, 55, 90
4, 7008, Note_on_c, 1, 52, 90
4, 7053, Note_on_c, 1, 61, 0
4, 7053, Note_on_c, 1, 58, 0
4, 7053, Note_on_c, 1, 55, 0
4, 7053, Note_on_c, 1, 52, 0
4, 7056, Note_on_c, 1, 61, 92
4, 7056, Note_on_c, 1, 58, 92
4, 7056, Note_on_c, 1, 55, 92
4, 7056, Note_on_c, 1, 52, 92
4, 7101, Note_on_c, 1, 61, 0
4, 7101, Note_on_c, 1, 58, 0
4, 7101, Note_on_c, 1, 55, 0
4, 7101, Note_on_c, 1, 52, 0
4, 7104, Note_on_c, 1, 62, 92
4, 7104, Note_on_c, 1, 57, 92
4, 7104, Note_on_c, 1, 53, 92
4, 7193, Note_on_c, 1, 62, 0
4, 7193, Note_on_c, 1, 57, 0
4, 7193, Note_on_c, 1, 53, 0
4, 7200, Note_on_c, 1, 64, 92
4, 7245, Note_on_c, 1, 64, 0
4, 7248, Note_on_c, 1, 62, 92
4, 7293, Note_on_c, 1, 62, 0
4, 7296, Note_on_c, 1, 60, 92
4, 7296, Note_on_c, 1, 48, 92
4, 7385, Note_on_c, 1, 60, 0
4, 7385, Note_on_c, 1, 48, 0
4, 7440, Note_on_c, 1, 60, 75
4, 7440, Note_on_c, 1, 57, 75
4, 7485, Note_on_c, 1, 60, 0
4, 7485, Note_on_c, 1, 57, 0
4, 7488, Note_on_c, 1, 62, 75
4, 7488, Note_on_c, 1, 59, 75
4, 7577, Note_on_c, 1, 62, 0
4, 7577, Note_on_c, 1, 59, 0
4, 7632, Note_on_c, 1, 56, 75
4, 7677, Note_on_c, 1, 56, 0
4, 7680, Note_on_c, 1, 57, 75
4, 7725, Note_on_c, 1, 57, 0
4, 7728, Note_on_c, 1, 52, 75
4, 7773, Note_on_c, 1, 52, 0
4, 7776, Note_on_c, 1, 60, 75
4, 7776, Note_on_c, 1, 57, 75
4, 7821, Note_on_c, 1, 60, 0
4, 7821, Note_on_c, 1, 57, 0
4, 7824, Note_on_c, 1, 60, 75
4, 7824, Note_on_c, 1, 57, 75
4, 7869, Note_on_c, 1, 60, 0
4, 7869, Note_on_c, 1, 57, 0
4, 7872, Note_on_c, 1, 59, 80
4, 7872, Note_on_c, 1, 55, 80
4, 7917, Note_on_c, 1, 59, 0
4, 7917, Note_on_c, 1, 55, 0
4, 7920, Note_on_c, 1, 59, 81
4, 7920, Note_on_c, 1, 55, 81
4, 7965, Note_on_c, 1, 59, 0
4, 7965, Note_on_c, 1, 55, 0
4, 7968, Note_on_c, 1, 60, 83
4, 7968, Note_on_c, 1, 52, 83
4, 7968, Note_on_c, 1, 48, 83
4, 8013, Note_on_c, 1, 60, 0
4, 8013, Note_on_c, 1, 52, 0
4, 8013, Note_on_c, 1, 48, 0
4, 8016, Note_on_c, 1, 60, 85
4, 8016, Note_on_c, 1, 52, 85
4, 8016, Note_on_c, 1, 48, 85
4, 8061, Note_on_c, 1, 60, 0
4, 8061, Note_on_c, 1, 52, 0
4, 8061, Note_on_c, 1, 48, 0
4, 8064, Note_on_c, 1, 60, 86
4, 8064, Note_on_c, 1, 57, 86
4, 8064, Note_on_c, 1, 53, 86
4, 8109, Note_on_c, 1, 60, 0
4, 8109, Note_on_c, 1, 57, 0
4, 8109, Note_on_c, 1, 53, 0
4, 8112, Note_on_c, 1, 60, 88
4, 8112, Note_on_c, 1, 57, 88
4, 8112, Note_on_c, 1, 53, 88
4, 8157, Note_on_c, 1, 60, 0
4, 8157, Note_on_c, 1, 57, 0
4, 8157, Note_on_c, 1, 53, 0
4, 8160, Note_on_c, 1, 61, 90
4, 8160, Note_on_c, 1, 58, 90
4, 8160, Note_on_c, 1, 55, 90
4, 8160, Note_on_c, 1, 52, 90
4, 8205, Note_on_c, 1, 61, 0
4, 8205, Note_on_c, 1, 58, 0
4, 8205, Note_on_c, 1, 55, 0
4, 8205, Note_on_c, 1, 52, 0
4, 8208, Note_on_c, 1, 61, 92
4, 8208, Note_on_c, 1, 58, 92
4, 8208, Note_on_c, 1, 55, 92
4, 8208, Note_on_c, 1, 52, 92
4, 8253, Note_on_c, 1, 61, 0
4, 8253, Note_on_c, 1, 58, 0
4, 8253, Note_on_c, 1, 55, 0
4, 8253, Note_on_c, 1, 52, 0
4, 8256, Note_on_c, 1, 62, 92
4, 8256, Note_on_c, 1, 57, 92
4, 8256, Note_on_c, 1, 53, 92
4, 8345, Note_on_c, 1, 62, 0
4, 8345, Note_on_c, 1, 57, 0
4, 8345, Note_on_c, 1, 53, 0
4, 8352, Note_on_c, 1, 64, 92
4, 8397, Note_on_c, 1, 64, 0
4, 8400, Note_on_c, 1, 62, 92
4, 8445, Note_on_c, 1, 62, 0
4, 8448, Note_on_c, 1, 60, 92
4, 8448, Note_on_c, 1, 48, 92
4, 8537, Note_on_c, 1, 60, 0
4, 8537, Note_on_c, 1, 48, 0
4, 8544, Note_on_c, 1, 52, 85
4, 8589, Note_on_c, 1, 52, 0
4, 8592, Note_on_c, 1, 60, 85
4, 8615, Note_on_c, 1, 60, 0
4, 8616, Note_on_c, 1, 57, 85
4, 8639, Note_on_c, 1, 57, 0
4, 8640, Note_on_c, 1, 57, 85
4, 8663, Note_on_c, 1, 57, 0
4, 8664, Note_on_c, 1, 56, 85
4, 8687, Note_on_c, 1, 56, 0
4, 8688, Note_on_c, 1, 54, 85
4, 8711, Note_on_c, 1, 54, 0
4, 8712, Note_on_c, 1, 52, 85
4, 8735, Note_on_c, 1, 52, 0
4, 8736, Note_on_c, 1, 64, 85
4, 8781, Note_on_c, 1, 64, 0
4, 8784, Note_on_c, 1, 60, 85
4, 8807, Note_on_c, 1, 60, 0
4, 8808, Note_on_c, 1, 57, 85
4, 8831, Note_on_c, 1, 57, 0
4, 8832, Note_on_c, 1, 57, 85
4, 8855, Note_on_c, 1, 57, 0
4, 8856, Note_on_c, 1, 56, 85
4, 8879, Note_on_c, 1, 56, 0
4, 8880, Note_on_c, 1, 54, 85
4, 8903, Note_on_c, 1, 54, 0
4, 8904, Note_on_c, 1, 52, 85
4, 8927, Note_on_c, 1, 52, 0
4, 8928, Note_on_c, 1, 62, 85
4, 8973, Note_on_c, 1, 62, 0
4, 8976, Note_on_c, 1, 59, 85
4, 8999, Note_on_c, 1, 59, 0
4, 9000, Note_on_c, 1, 56, 85
4, 9023, Note_on_c, 1, 56, 0
4, 9024, Note_on_c, 1, 57, 85
4, 9069, Note_on_c, 1, 57, 0
4, 9072, Note_on_c, 1, 52, 85
4, 9095, Note_on_c, 1, 52, 0
4, 9096, Note_on_c, 1, 50, 85
4, 9119, Note_on_c, 1, 50, 0
4, 9120, Note_on_c, 1, 50, 85
4, 9143, Note_on_c, 1, 50, 0
4, 9144, Note_on_c, 1, 48, 85
4, 9167, Note_on_c, 1, 48, 0
4, 9168, Note_on_c, 1, 47, 85
4, 9191, Note_on_c, 1, 47, 0
4, 9192, Note_on_c, 1, 45, 85
4, 9215, Note_on_c, 1, 45, 0
4, 9216, Note_on_c, 1, 52, 85
4, 9305, Note_on_c, 1, 52, 0
4, 9312, Note_on_c, 1, 57, 80
4, 9312, Note_on_c, 1, 49, 80
4, 9357, Note_on_c, 1, 57, 0
4, 9357, Note_on_c, 1, 49, 0
4, 9360, Note_on_c, 1, 57, 82
4, 9360, Note_on_c, 1, 49, 82
4, 9405, Note_on_c, 1, 57, 0
4, 9405, Note_on_c, 1, 49, 0
4, 9408, Note_on_c, 1, 53, 84
4, 9408, Note_on_c, 1, 50, 84
4, 9453, Note_on_c, 1, 53, 0
4, 9453, Note_on_c, 1, 50, 0
4, 9456, Note_on_c, 1, 53, 86
4, 9456, Note_on_c, 1, 50, 86
4, 9501, Note_on_c, 1, 53, 0
4, 9501, Note_on_c, 1, 50, 0
4, 9504, Note_on_c, 1, 54, 88
4, 9504, Note_on_c, 1, 51, 88
4, 9549, Note_on_c, 1, 54, 0
4, 9549, Note_on_c, 1, 51, 0
4, 9552, Note_on_c, 1, 54, 90
4, 9552, Note_on_c, 1, 51, 90
4, 9597, Note_on_c, 1, 54, 0
4, 9597, Note_on_c, 1, 51, 0
4, 9600, Note_on_c, 1, 60, 92
4, 9600, Note_on_c, 1, 57, 92
4, 9600, Note_on_c, 1, 52, 92
4, 9881, Note_on_c, 1, 60, 0
4, 9881, Note_on_c, 1, 57, 0
4, 9881, Note_on_c, 1, 52, 0
4, 9888, Note_on_c, 1, 60, 92
4, 9888, Note_on_c, 1, 52, 92
4, 9933, Note_on_c, 1, 60, 0
4, 9933, Note_on_c, 1, 52, 0
4, 9936, Note_on_c, 1, 59, 92
4, 9936, Note_on_c, 1, 52, 92
4, 9981, Note_on_c, 1, 59, 0
4, 9981, Note_on_c, 1, 52, 0
4, 9984, Note_on_c, 1, 57, 92
4, 9984, Note_on_c, 1, 45, 92
4, 10073, Note_on_c, 1, 57, 0
4, 10073, Note_on_c, 1, 45, 0
4, 10080, Note_on_c, 1, 52, 85
4, 10125, Note_on_c, 1, 52, 0
4, 10128, Note_on_c, 1, 60, 85
4, 10151, Note_on_c, 1, 60, 0
4, 10152, Note_on_c, 1, 57, 85
4, 10175, Note_on_c, 1, 57, 0
4, 10176, Note_on_c, 1, 57, 85
4, 10199, Note_on_c, 1, 57, 0
4, 10200, Note_on_c, 1, 56, 85
4, 10223, Note_on_c, 1, 56, 0
4, 10224, Note_on_c, 1, 54, 85
4, 10247, Note_on_c, 1, 54, 0
4, 10248, Note_on_c, 1, 52, 85
4, 10271, Note_on_c, 1, 52, 0
4, 10272, Note_on_c, 1, 64, 85
4, 10317, Note_on_c, 1, 64, 0
4, 10320, Note_on_c, 1, 60, 85
4, 10343, Note_on_c, 1, 60, 0
4, 10344, Note_on_c, 1, 57, 85
4, 10367, Note_on_c, 1, 57, 0
4, 10368, Note_on_c, 1, 57, 85
4, 10391, Note_on_c, 1, 57, 0
4, 10392, Note_on_c, 1, 56, 85
4, 10415, Note_on_c, 1, 56, 0
4, 10416, Note_on_c, 1, 54, 85
4, 10439, Note_on_c, 1, 54, 0
4, 10440, Note_on_c, 1, 52, 85
4, 10463, Note_on_c, 1, 52, 0
4, 10464, Note_on_c, 1, 62, 85
4, 10509, Note_on_c, 1, 62, 0
4, 10512, Note_on_c, 1, 59, 85
4, 10535, Note_on_c, 1, 59, 0
4, 10536, Note_on_c, 1, 56, 85
4, 10559, Note_on_c, 1, 56, 0
4, 10560, Note_on_c, 1, 57, 85
4, 10605, Note_on_c, 1, 57, 0
4, 10608, Note_on_c, 1, 52, 85
4, 10631, Note_on_c, 1, 52, 0
4, 10632, Note_on_c, 1, 50, 85
4, 10655, Note_on_c, 1, 50, 0
4, 10656, Note_on_c, 1, 50, 85
4, 10679, Note_on_c, 1, 50, 0
4, 10680, Note_on_c, 1, 48, 85
4, 10703, Note_on_c, 1, 48, 0
4, 10704, Note_on_c, 1, 47, 85
4, 10727, Note_on_c, 1, 47, 0
4, 10728, Note_on_c, 1, 45, 85
4, 10751, Note_on_c, 1, 45, 0
4, 10752, Note_on_c, 1, 52, 85
4, 10841, Note_on_c, 1, 52, 0
4, 10848, Note_on_c, 1, 57, 80
4, 10848, Note_on_c, 1, 49, 80
4, 10893, Note_on_c, 1, 57, 0
4, 10893, Note_on_c, 1, 49, 0
4, 10896, Note_on_c, 1, 57, 82
4, 10896, Note_on_c, 1, 49, 82
4, 10941, Note_on_c, 1, 57, 0
4, 10941, Note_on_c, 1, 49, 0
4, 10944, Note_on_c, 1, 53, 84
4, 10944, Note_on_c, 1, 50, 84
4, 10989, Note_on_c, 1, 53, 0
4, 10989, Note_on_c, 1, 50, 0
4, 10992, Note_on_c, 1, 53, 86
4, 10992, Note_on_c, 1, 50, 86
4, 11037, Note_on_c, 1, 53, 0
4, 11037, Note_on_c, 1, 50, 0
4, 11040, Note_on_c, 1, 54, 88
4, 11040, Note_on_c, 1, 51, 88
4, 11085, Note_on_c, 1, 54, 0
4, 11085, Note_on_c, 1, 51, 0
4, 11088, Note_on_c, 1, 54, 90
4, 11088, Note_on_c, 1, 51, 90
4, 11133, Note_on_c, 1, 54, 0
4, 11133, Note_on_c, 1, 51, 0
4, 11136, Note_on_c, 1, 60, 92
4, 11136, Note_on_c, 1, 57, 92
4, 11136, Note_on_c, 1, 52, 92
4, 11417, Note_on_c, 1, 60, 0
4, 11417, Note_on_c, 1, 57, 0
4, 11417, Note_on_c, 1, 52, 0
4, 11424, Note_on_c, 1, 60, 92
4, 11424, Note_on_c, 1, 52, 92
4, 11469, Note_on_c, 1, 60, 0
4, 11469, Note_on_c, 1, 52, 0
4, 11472, Note_on_c, 1, 59, 92
4, 11472, Note_on_c, 1, 52, 92
4, 11517, Note_on_c, 1, 59, 0
4, 11517, Note_on_c, 1, 52, 0
4, 11520, Note_on_c, 1, 57, 92
4, 11520, Note_on_c, 1, 45, 92
4, 11609, Note_on_c, 1, 57, 0
4, 11609, Note_on_c, 1, 45, 0
4, 11712, Note_on_c, 1, 61, 75
4, 11712, Note_on_c, 1, 57, 75
4, 11757, Note_on_c, 1, 61, 0
4, 11757, Note_on_c, 1, 57, 0
4, 11760, Note_on_c, 1, 61, 75
4, 11760, Note_on_c, 1, 57, 75
4, 11805, Note_on_c, 1, 61, 0
4, 11805, Note_on_c, 1, 57, 0
4, 11808, Note_on_c, 1, 62, 75
4, 11808, Note_on_c, 1, 52, 75
4, 11853, Note_on_c, 1, 62, 0
4, 11853, Note_on_c, 1, 52, 0
4, 11856, Note_on_c, 1, 62, 75
4, 11856, Note_on_c, 1, 52, 75
4, 11901, Note_on_c, 1, 62, 0
4, 11901, Note_on_c, 1, 52, 0
4, 11904, Note_on_c, 1, 61, 75
4, 11904, Note_on_c, 1, 57, 75
4, 11949, Note_on_c, 1, 61, 0
4, 11949, Note_on_c, 1, 57, 0
4, 12000, Note_on_c, 1, 57, 75
4, 12000, Note_on_c, 1, 50, 75
4, 12089, Note_on_c, 1, 57, 0
4, 12089, Note_on_c, 1, 50, 0
4, 12096, Note_on_c, 1, 57, 75
4, 12096, Note_on_c, 1, 49, 75
4, 12141, Note_on_c, 1, 57, 0
4, 12141, Note_on_c, 1, 49, 0
4, 12144, Note_on_c, 1, 61, 75
4, 12189, Note_on_c, 1, 61, 0
4, 12192, Note_on_c, 1, 62, 75
4, 12237, Note_on_c, 1, 62, 0
4, 12240, Note_on_c, 1, 63, 75
4, 12285, Note_on_c, 1, 63, 0
4, 12288, Note_on_c, 1, 64, 75
4, 12377, Note_on_c, 1, 64, 0
4, 12480, Note_on_c, 1, 61, 80
4, 12480, Note_on_c, 1, 57, 80
4, 12525, Note_on_c, 1, 61, 0
4, 12525, Note_on_c, 1, 57, 0
4, 12528, Note_on_c, 1, 61, 80
4, 12528, Note_on_c, 1, 57, 80
4, 12573, Note_on_c, 1, 61, 0
4, 12573, Note_on_c, 1, 57, 0
4, 12576, Note_on_c, 1, 62, 80
4, 12576, Note_on_c, 1, 52, 80
4, 12621, Note_on_c, 1, 62, 0
4, 12621, Note_on_c, 1, 52, 0
4, 12624, Note_on_c, 1, 62, 80
4, 12624, Note_on_c, 1, 52, 80
4, 12669, Note_on_c, 1, 62, 0
4, 12669, Note_on_c, 1, 52, 0
4, 12672, Note_on_c, 1, 61, 80
4, 12672, Note_on_c, 1, 57, 80
4, 12761, Note_on_c, 1, 61, 0
4, 12761, Note_on_c, 1, 57, 0
4, 12912, Note_on_c, 1, 61, 80
4, 12957, Note_on_c, 1, 61, 0
4, 12960, Note_on_c, 1, 62, 80
4, 13005, Note_on_c, 1, 62, 0
4, 13008, Note_on_c, 1, 63, 80
4, 13053, Note_on_c, 1, 63, 0
4, 13152, Note_on_c, 1, 68, 80
4, 13241, Note_on_c, 1, 68, 0
4, 13248, Note_on_c, 1, 69, 80
4, 13337, Note_on_c, 1, 69, 0
4, 13344, Note_on_c, 1, 66, 80
4, 13433, Note_on_c, 1, 66, 0
4, 13440, Note_on_c, 1, 68, 80
4, 13529, Note_on_c, 1, 68, 0
4, 13536, Note_on_c, 1, 64, 80
4, 13625, Note_on_c, 1, 64, 0
4, 13632, Note_on_c, 1, 64, 80
4, 13765, Note_on_c, 1, 64, 0
4, 13776, Note_on_c, 1, 63, 80
4, 13821, Note_on_c, 1, 63, 0
4, 13824, Note_on_c, 1, 64, 80
4, 13913, Note_on_c, 1, 64, 0
4, 14016, Note_on_c, 1, 61, 80
4, 14016, Note_on_c, 1, 57, 80
4, 14061, Note_on_c, 1, 61, 0
4, 14061, Note_on_c, 1, 57, 0
4, 14064, Note_on_c, 1, 61, 80
4, 14064, Note_on_c, 1, 57, 80
4, 14109, Note_on_c, 1, 61, 0
4, 14109, Note_on_c, 1, 57, 0
4, 14112, Note_on_c, 1, 62, 80
4, 14112, Note_on_c, 1, 52, 80
4, 14157, Note_on_c, 1, 62, 0
4, 14157, Note_on_c, 1, 52, 0
4, 14160, Note_on_c, 1, 62, 80
4, 14160, Note_on_c, 1, 52, 80
4, 14205, Note_on_c, 1, 62, 0
4, 14205, Note_on_c, 1, 52, 0
4, 14208, Note_on_c, 1, 61, 80
4, 14208, Note_on_c, 1, 57, 80
4, 14297, Note_on_c, 1, 61, 0
4, 14297, Note_on_c, 1, 57, 0
4, 14448, Note_on_c, 1, 61, 80
4, 14493, Note_on_c, 1, 61, 0
4, 14496, Note_on_c, 1, 62, 80
4, 14541, Note_on_c, 1, 62, 0
4, 14544, Note_on_c, 1, 63, 80
4, 14589, Note_on_c, 1, 63, 0
4, 14688, Note_on_c, 1, 68, 80
4, 14777, Note_on_c, 1, 68, 0
4, 14784, Note_on_c, 1, 69, 80
4, 14873, Note_on_c, 1, 69, 0
4, 14880, Note_on_c, 1, 66, 80
4, 14969, Note_on_c, 1, 66, 0
4, 14976, Note_on_c, 1, 68, 80
4, 15065, Note_on_c, 1, 68, 0
4, 15072, Note_on_c, 1, 64, 80
4, 15161, Note_on_c, 1, 64, 0
4, 15168, Note_on_c, 1, 64, 80
4, 15301, Note_on_c, 1, 64, 0
4, 15312, Note_on_c, 1, 63, 80
4, 15357, Note_on_c, 1, 63, 0
4, 15360, Note_on_c, 1, 64, 80
4, 15449, Note_on_c, 1, 64, 0
4, 15552, Note_on_c, 1, 67, 58
4, 15552, Note_on_c, 1, 64, 58
4, 15597, Note_on_c, 1, 67, 0
4, 15597, Note_on_c, 1, 64, 0
4, 15600, Note_on_c, 1, 67, 58
4, 15600, Note_on_c, 1, 64, 58
4, 15645, Note_on_c, 1, 67, 0
4, 15645, Note_on_c, 1, 64, 0
4, 15648, Note_on_c, 1, 66, 58
4, 15648, Note_on_c, 1, 62, 58
4, 15693, Note_on_c, 1, 66, 0
4, 15693, Note_on_c, 1, 62, 0
4, 15696, Note_on_c, 1, 66, 58
4, 15696, Note_on_c, 1, 62, 58
4, 15741, Note_on_c, 1, 66, 0
4, 15741, Note_on_c, 1, 62, 0
4, 15744, Note_on_c, 1, 64, 58
4, 15744, Note_on_c, 1, 61, 58
4, 15789, Note_on_c, 1, 64, 0
4, 15789, Note_on_c, 1, 61, 0
4, 15792, Note_on_c, 1, 64, 58
4, 15792, Note_on_c, 1, 61, 58
4, 15837, Note_on_c, 1, 64, 0
4, 15837, Note_on_c, 1, 61, 0
4, 15840, Note_on_c, 1, 66, 58
4, 15840, Note_on_c, 1, 62, 58
4, 15885, Note_on_c, 1, 66, 0
4, 15885, Note_on_c, 1, 62, 0
4, 15888, Note_on_c, 1, 66, 58
4, 15888, Note_on_c, 1, 62, 58
4, 15933, Note_on_c, 1, 66, 0
4, 15933, Note_on_c, 1, 62, 0
4, 16032, Note_on_c, 1, 61, 66
4, 16077, Note_on_c, 1, 61, 0
4, 16080, Note_on_c, 1, 57, 70
4, 16125, Note_on_c, 1, 57, 0
4, 16128, Note_on_c, 1, 64, 85
4, 16128, Note_on_c, 1, 52, 85
4, 16217, Note_on_c, 1, 64, 0
4, 16217, Note_on_c, 1, 52, 0
4, 16320, Note_on_c, 1, 61, 80
4, 16320, Note_on_c, 1, 57, 80
4, 16365, Note_on_c, 1, 61, 0
4, 16365, Note_on_c, 1, 57, 0
4, 16368, Note_on_c, 1, 61, 80
4, 16368, Note_on_c, 1, 57, 80
4, 16413, Note_on_c, 1, 61, 0
4, 16413, Note_on_c, 1, 57, 0
4, 16416, Note_on_c, 1, 62, 80
4, 16416, Note_on_c, 1, 52, 80
4, 16461, Note_on_c, 1, 62, 0
4, 16461, Note_on_c, 1, 52, 0
4, 16464, Note_on_c, 1, 62, 80
4, 16464, Note_on_c, 1, 52, 80
4, 16509, Note_on_c, 1, 62, 0
4, 16509, Note_on_c, 1, 52, 0
4, 16512, Note_on_c, 1, 61, 80
4, 16512, Note_on_c, 1, 57, 80
4, 16601, Note_on_c, 1, 61, 0
4, 16601, Note_on_c, 1, 57, 0
4, 16656, Note_on_c, 1, 57, 80
4, 16656, Note_on_c, 1, 49, 80
4, 16701, Note_on_c, 1, 57, 0
4, 16701, Note_on_c, 1, 49, 0
4, 16704, Note_on_c, 1, 57, 80
4, 16704, Note_on_c, 1, 50, 80
4, 16749, Note_on_c, 1, 57, 0
4, 16749, Note_on_c, 1, 50, 0
4, 16752, Note_on_c, 1, 57, 80
4, 16752, Note_on_c, 1, 50, 80
4, 16797, Note_on_c, 1, 57, 0
4, 16797, Note_on_c, 1, 50, 0
4, 16800, Note_on_c, 1, 57, 80
4, 16800, Note_on_c, 1, 52, 80
4, 16845, Note_on_c, 1, 57, 0
4, 16845, Note_on_c, 1, 52, 0
4, 16848, Note_on_c, 1, 56, 80
4, 16848, Note_on_c, 1, 52, 80
4, 16893, Note_on_c, 1, 56, 0
4, 16893, Note_on_c, 1, 52, 0
4, 16896, Note_on_c, 1, 57, 80
4, 16896, Note_on_c, 1, 45, 80
4, 16985, Note_on_c, 1, 57, 0
4, 16985, Note_on_c, 1, 45, 0
4, 17088, Note_on_c, 1, 67, 58
4, 17088, Note_on_c, 1, 64, 58
4, 17133, Note_on_c, 1, 67, 0
4, 17133, Note_on_c, 1, 64, 0
4, 17136, Note_on_c, 1, 67, 58
4, 17136, Note_on_c, 1, 64, 58
4, 17181, Note_on_c, 1, 67, 0
4, 17181, Note_on_c, 1, 64, 0
4, 17184, Note_on_c, 1, 66, 58
4, 17184, Note_on_c, 1, 62, 58
4, 17229, Note_on_c, 1, 66, 0
4, 17229, Note_on_c, 1, 62, 0
4, 17232, Note_on_c, 1, 66, 58
4, 17232, Note_on_c, 1, 62, 58
4, 17277, Note_on_c, 1, 66, 0
4, 17277, Note_on_c, 1, 62, 0
4, 17280, Note_on_c, 1, 64, 58
4, 17280, Note_on_c, 1, 61, 58
4, 17325, Note_on_c, 1, 64, 0
4, 17325, Note_on_c, 1, 61, 0
4, 17328, Note_on_c, 1, 64, 58
4, 17328, Note_on_c, 1, 61, 58
4, 17373, Note_on_c, 1, 64, 0
4, 17373, Note_on_c, 1, 61, 0
4, 17376, Note_on_c, 1, 66, 58
4, 17376, Note_on_c, 1, 62, 58
4, 17421, Note_on_c, 1, 66, 0
4, 17421, Note_on_c, 1, 62, 0
4, 17424, Note_on_c, 1, 66, 58
4, 17424, Note_on_c, 1, 62, 58
4, 17469, Note_on_c, 1, 66, 0
4, 17469, Note_on_c, 1, 62, 0
4, 17568, Note_on_c, 1, 61, 66
4, 17613, Note_on_c, 1, 61, 0
4, 17616, Note_on_c, 1, 57, 70
4, 17661, Note_on_c, 1, 57, 0
4, 17664, Note_on_c, 1, 64, 85
4, 17664, Note_on_c, 1, 52, 85
4, 17753, Note_on_c, 1, 64, 0
4, 17753, Note_on_c, 1, 52, 0
4, 17856, Note_on_c, 1, 61, 80
4, 17856, Note_on_c, 1, 57, 80
4, 17901, Note_on_c, 1, 61, 0
4, 17901, Note_on_c, 1, 57, 0
4, 17904, Note_on_c, 1, 61, 80
4, 17904, Note_on_c, 1, 57, 80
4, 17949, Note_on_c, 1, 61, 0
4, 17949, Note_on_c, 1, 57, 0
4, 17952, Note_on_c, 1, 62, 80
4, 17952, Note_on_c, 1, 52, 80
4, 17997, Note_on_c, 1, 62, 0
4, 17997, Note_on_c, 1, 52, 0
4, 18000, Note_on_c, 1, 62, 80
4, 18000, Note_on_c, 1, 52, 80
4, 18045, Note_on_c, 1, 62, 0
4, 18045, Note_on_c, 1, 52, 0
4, 18048, Note_on_c, 1, 61, 80
4, 18048, Note_on_c, 1, 57, 80
4, 18137, Note_on_c, 1, 61, 0
4, 18137, Note_on_c, 1, 57, 0
4, 18192, Note_on_c, 1, 57, 80
4, 18192, Note_on_c, 1, 49, 80
4, 18237, Note_on_c, 1, 57, 0
4, 18237, Note_on_c, 1, 49, 0
4, 18240, Note_on_c, 1, 57, 80
4, 18240, Note_on_c, 1, 50, 80
4, 18285, Note_on_c, 1, 57, 0
4, 18285, Note_on_c, 1, 50, 0
4, 18288, Note_on_c, 1, 57, 80
4, 18288, Note_on_c, 1, 50, 80
4, 18333, Note_on_c, 1, 57, 0
4, 18333, Note_on_c, 1, 50, 0
4, 18336, Note_on_c, 1, 57, 80
4, 18336, Note_on_c, 1, 52, 80
4, 18381, Note_on_c, 1, 57, 0
4, 18381, Note_on_c, 1, 52, 0
4, 18384, Note_on_c, 1, 56, 80
4, 18384, Note_on_c, 1, 52, 80
4, 18429, Note_on_c, 1, 56, 0
4, 18429, Note_on_c, 1, 52, 0
4, 18432, Note_on_c, 1, 57, 80
4, 18432, Note_on_c, 1, 45, 80
4, 18521, Note_on_c, 1, 57, 0
4, 18521, Note_on_c, 1, 45, 0
4, 18576, Note_on_c, 1, 72, 75
4, 18576, Note_on_c, 1, 69, 75
4, 18621, Note_on_c, 1, 72, 0
4, 18621, Note_on_c, 1, 69, 0
4, 18624, Note_on_c, 1, 74, 75
4, 18624, Note_on_c, 1, 71, 75
4, 18713, Note_on_c, 1, 74, 0
4, 18713, Note_on_c, 1, 71, 0
4, 18768, Note_on_c, 1, 68, 75
4, 18813, Note_on_c, 1, 68, 0
4, 18816, Note_on_c, 1, 69, 75
4, 18861, Note_on_c, 1, 69, 0
4, 18864, Note_on_c, 1, 64, 75
4, 18909, Note_on_c, 1, 64, 0
4, 19488, Note_on_c, 1, 65, 75
4, 19488, Note_on_c, 1, 53, 75
4, 19533, Note_on_c, 1, 65, 0
4, 19533, Note_on_c, 1, 53, 0
4, 19536, Note_on_c, 1, 62, 75
4, 19536, Note_on_c, 1, 55, 75
4, 19581, Note_on_c, 1, 62, 0
4, 19581, Note_on_c, 1, 55, 0
4, 19584, Note_on_c, 1, 64, 75
4, 19584, Note_on_c, 1, 60, 75
4, 19673, Note_on_c, 1, 64, 0
4, 19673, Note_on_c, 1, 60, 0
4, 19728, Note_on_c, 1, 72, 75
4, 19728, Note_on_c, 1, 69, 75
4, 19773, Note_on_c, 1, 72, 0
4, 19773, Note_on_c, 1, 69, 0
4, 19776, Note_on_c, 1, 74, 75
4, 19776, Note_on_c, 1, 71, 75
4, 19865, Note_on_c, 1, 74, 0
4, 19865, Note_on_c, 1, 71, 0
4, 19920, Note_on_c, 1, 68, 75
4, 19965, Note_on_c, 1, 68, 0
4, 19968, Note_on_c, 1, 69, 75
4, 20013, Note_on_c, 1, 69, 0
4, 20016, Note_on_c, 1, 64, 75
4, 20061, Note_on_c, 1, 64, 0
4, 20640, Note_on_c, 1, 65, 75
4, 20640, Note_on_c, 1, 53, 75
4, 20685, Note_on_c, 1, 65, 0
4, 20685, Note_on_c, 1, 53, 0
4, 20688, Note_on_c, 1, 62, 75
4, 20688, Note_on_c, 1, 55, 75
4, 20733, Note_on_c, 1, 62, 0
4, 20733, Note_on_c, 1, 55, 0
4, 20736, Note_on_c, 1, 64, 75
4, 20736, Note_on_c, 1, 60, 75
4, 20825, Note_on_c, 1, 64, 0
4, 20825, Note_on_c, 1, 60, 0
4, 20832, Note_on_c, 1, 72, 70
4, 20832, Note_on_c, 1, 64, 70
4, 20877, Note_on_c, 1, 72, 0
4, 20877, Note_on_c, 1, 64, 0
4, 20880, Note_on_c, 1, 72, 70
4, 20880, Note_on_c, 1, 64, 70
4, 20925, Note_on_c, 1, 72, 0
4, 20925, Note_on_c, 1, 64, 0
4, 20928, Note_on_c, 1, 71, 70
4, 20928, Note_on_c, 1, 64, 70
4, 20973, Note_on_c, 1, 71, 0
4, 20973, Note_on_c, 1, 64, 0
4, 20976, Note_on_c, 1, 71, 70
4, 20976, Note_on_c, 1, 64, 70
4, 21021, Note_on_c, 1, 71, 0
4, 21021, Note_on_c, 1, 64, 0
4, 21024, Note_on_c, 1, 69, 70
4, 21024, Note_on_c, 1, 64, 70
4, 21069, Note_on_c, 1, 69, 0
4, 21069, Note_on_c, 1, 64, 0
4, 21072, Note_on_c, 1, 69, 70
4, 21072, Note_on_c, 1, 64, 70
4, 21117, Note_on_c, 1, 69, 0
4, 21117, Note_on_c, 1, 64, 0
4, 21120, Note_on_c, 1, 68, 70
4, 21120, Note_on_c, 1, 64, 70
4, 21209, Note_on_c, 1, 68, 0
4, 21209, Note_on_c, 1, 64, 0
4, 21696, Note_on_c, 1, 64, 80
4, 21696, Note_on_c, 1, 60, 80
4, 21785, Note_on_c, 1, 64, 0
4, 21785, Note_on_c, 1, 60, 0
4, 21792, Note_on_c, 1, 67, 80
4, 21792, Note_on_c, 1, 64, 80
4, 21792, Note_on_c, 1, 61, 80
4, 21881, Note_on_c, 1, 67, 0
4, 21881, Note_on_c, 1, 64, 0
4, 21881, Note_on_c, 1, 61, 0
4, 21888, Note_on_c, 1, 65, 81
4, 21888, Note_on_c, 1, 62, 81
4, 21977, Note_on_c, 1, 65, 0
4, 21977, Note_on_c, 1, 62, 0
4, 21984, Note_on_c, 1, 69, 82
4, 21984, Note_on_c, 1, 66, 82
4, 21984, Note_on_c, 1, 63, 82
4, 22073, Note_on_c, 1, 69, 0
4, 22073, Note_on_c, 1, 66, 0
4, 22073, Note_on_c, 1, 63, 0
4, 22080, Note_on_c, 1, 72, 83
4, 22080, Note_on_c, 1, 69, 83
4, 22080, Note_on_c, 1, 64, 83
4, 22169, Note_on_c, 1, 72, 0
4, 22169, Note_on_c, 1, 69, 0
4, 22169, Note_on_c, 1, 64, 0
4, 22176, Note_on_c, 1, 72, 84
4, 22176, Note_on_c, 1, 64, 84
4, 22221, Note_on_c, 1, 72, 0
4, 22221, Note_on_c, 1, 64, 0
4, 22224, Note_on_c, 1, 71, 84
4, 22224, Note_on_c, 1, 64, 84
4, 22269, Note_on_c, 1, 71, 0
4, 22269, Note_on_c, 1, 64, 0
4, 22272, Note_on_c, 1, 69, 85
4, 22272, Note_on_c, 1, 57, 85
4, 22361, Note_on_c, 1, 69, 0
4, 22361, Note_on_c, 1, 57, 0
4, 22368, Note_on_c, 1, 72, 85
4, 22368, Note_on_c, 1, 64, 85
4, 22413, Note_on_c, 1, 72, 0
4, 22413, Note_on_c, 1, 64, 0
4, 22416, Note_on_c, 1, 72, 85
4, 22416, Note_on_c, 1, 64, 85
4, 22461, Note_on_c, 1, 72, 0
4, 22461, Note_on_c, 1, 64, 0
4, 22464, Note_on_c, 1, 71, 70
4, 22464, Note_on_c, 1, 64, 70
4, 22509, Note_on_c, 1, 71, 0
4, 22509, Note_on_c, 1, 64, 0
4, 22512, Note_on_c, 1, 71, 70
4, 22512, Note_on_c, 1, 64, 70
4, 22557, Note_on_c, 1, 71, 0
4, 22557, Note_on_c, 1, 64, 0
4, 22560, Note_on_c, 1, 69, 70
4, 22560, Note_on_c, 1, 64, 70
4, 22605, Note_on_c, 1, 69, 0
4, 22605, Note_on_c, 1, 64, 0
4, 22608, Note_on_c, 1, 69, 70
4, 22608, Note_on_c, 1, 64, 70
4, 22653, Note_on_c, 1, 69, 0
4, 22653, Note_on_c, 1, 64, 0
4, 22656, Note_on_c, 1, 68, 70
4, 22656, Note_on_c, 1, 64, 70
4, 22745, Note_on_c, 1, 68, 0
4, 22745, Note_on_c, 1, 64, 0
4, 23232, Note_on_c, 1, 64, 80
4, 23232, Note_on_c, 1, 60, 80
4, 23321, Note_on_c, 1, 64, 0
4, 23321, Note_on_c, 1, 60, 0
4, 23328, Note_on_c, 1, 67, 80
4, 23328, Note_on_c, 1, 64, 80
4, 23328, Note_on_c, 1, 61, 80
4, 23417, Note_on_c, 1, 67, 0
4, 23417, Note_on_c, 1, 64, 0
4, 23417, Note_on_c, 1, 61, 0
4, 23424, Note_on_c, 1, 65, 81
4, 23424, Note_on_c, 1, 62, 81
4, 23513, Note_on_c, 1, 65, 0
4, 23513, Note_on_c, 1, 62, 0
4, 23520, Note_on_c, 1, 69, 82
4, 23520, Note_on_c, 1, 66, 82
4, 23520, Note_on_c, 1, 63, 82
4, 23609, Note_on_c, 1, 69, 0
4, 23609, Note_on_c, 1, 66, 0
4, 23609, Note_on_c, 1, 63, 0
4, 23616, Note_on_c, 1, 72, 83
4, 23616, Note_on_c, 1, 69, 83
4, 23616, Note_on_c, 1, 64, 83
4, 23705, Note_on_c, 1, 72, 0
4, 23705, Note_on_c, 1, 69, 0
4, 23705, Note_on_c, 1, 64, 0
4, 23712, Note_on_c, 1, 72, 84
4, 23712, Note_on_c, 1, 64, 84
4, 23757, Note_on_c, 1, 72, 0
4, 23757, Note_on_c, 1, 64, 0
4, 23760, Note_on_c, 1, 71, 84
4, 23760, Note_on_c, 1, 64, 84
4, 23805, Note_on_c, 1, 71, 0
4, 23805, Note_on_c, 1, 64, 0
4, 23808, Note_on_c, 1, 69, 85
4, 23808, Note_on_c, 1, 57, 85
4, 23897, Note_on_c, 1, 69, 0
4, 23897, Note_on_c, 1, 57, 0
4, 24000, Note_on_c, 1, 61, 85
4, 24000, Note_on_c, 1, 57, 85
4, 24045, Note_on_c, 1, 61, 0
4, 24045, Note_on_c, 1, 57, 0
4, 24048, Note_on_c, 1, 61, 85
4, 24048, Note_on_c, 1, 57, 85
4, 24093, Note_on_c, 1, 61, 0
4, 24093, Note_on_c, 1, 57, 0
4, 24096, Note_on_c, 1, 62, 85
4, 24096, Note_on_c, 1, 52, 85
4, 24141, Note_on_c, 1, 62, 0
4, 24141, Note_on_c, 1, 52, 0
4, 24144, Note_on_c, 1, 62, 85
4, 24144, Note_on_c, 1, 52, 85
4, 24189, Note_on_c, 1, 62, 0
4, 24189, Note_on_c, 1, 52, 0
4, 24192, Note_on_c, 1, 61, 85
4, 24192, Note_on_c, 1, 57, 85
4, 24237, Note_on_c, 1, 61, 0
4, 24237, Note_on_c, 1, 57, 0
4, 24288, Note_on_c, 1, 57, 85
4, 24288, Note_on_c, 1, 50, 85
4, 24377, Note_on_c, 1, 57, 0
4, 24377, Note_on_c, 1, 50, 0
4, 24384, Note_on_c, 1, 57, 85
4, 24384, Note_on_c, 1, 49, 85
4, 24429, Note_on_c, 1, 57, 0
4, 24429, Note_on_c, 1, 49, 0
4, 24432, Note_on_c, 1, 61, 85
4, 24477, Note_on_c, 1, 61, 0
4, 24480, Note_on_c, 1, 62, 85
4, 24525, Note_on_c, 1, 62, 0
4, 24528, Note_on_c, 1, 63, 85
4, 24573, Note_on_c, 1, 63, 0
4, 24576, Note_on_c, 1, 64, 85
4, 24665, Note_on_c, 1, 64, 0
4, 24768, Note_on_c, 1, 61, 85
4, 24768, Note_on_c, 1, 57, 85
4, 24813, Note_on_c, 1, 61, 0
4, 24813, Note_on_c, 1, 57, 0
4, 24816, Note_on_c, 1, 61, 85
4, 24816, Note_on_c, 1, 57, 85
4, 24861, Note_on_c, 1, 61, 0
4, 24861, Note_on_c, 1, 57, 0
4, 24864, Note_on_c, 1, 62, 85
4, 24864, Note_on_c, 1, 52, 85
4, 24909, Note_on_c, 1, 62, 0
4, 24909, Note_on_c, 1, 52, 0
4, 24912, Note_on_c, 1, 62, 85
4, 24912, Note_on_c, 1, 52, 85
4, 24957, Note_on_c, 1, 62, 0
4, 24957, Note_on_c, 1, 52, 0
4, 24960, Note_on_c, 1, 61, 85
4, 24960, Note_on_c, 1, 57, 85
4, 25049, Note_on_c, 1, 61, 0
4, 25049, Note_on_c, 1, 57, 0
4, 25200, Note_on_c, 1, 61, 85
4, 25245, Note_on_c, 1, 61, 0
4, 25248, Note_on_c, 1, 62, 85
4, 25293, Note_on_c, 1, 62, 0
4, 25296, Note_on_c, 1, 63, 85
4, 25341, Note_on_c, 1, 63, 0
4, 25344, Note_on_c, 1, 69, 85
4, 25392, Note_on_c, 1, 69, 0
4, 25392, Note_on_c, 1, 68, 85
4, 25437, Note_on_c, 1, 68, 0
4, 25440, Note_on_c, 1, 68, 85
4, 25529, Note_on_c, 1, 68, 0
4, 25536, Note_on_c, 1, 69, 85
4, 25625, Note_on_c, 1, 69, 0
4, 25632, Note_on_c, 1, 66, 85
4, 25721, Note_on_c, 1, 66, 0
4, 25728, Note_on_c, 1, 68, 85
4, 25817, Note_on_c, 1, 68, 0
4, 25824, Note_on_c, 1, 64, 85
4, 25824, Note_on_c, 1, 61, 85
4, 25869, Note_on_c, 1, 64, 0
4, 25869, Note_on_c, 1, 61, 0
4, 25872, Note_on_c, 1, 64, 85
4, 25872, Note_on_c, 1, 61, 85
4, 25917, Note_on_c, 1, 64, 0
4, 25917, Note_on_c, 1, 61, 0
4, 25920, Note_on_c, 1, 61, 85
4, 25920, Note_on_c, 1, 57, 85
4, 25965, Note_on_c, 1, 61, 0
4, 25965, Note_on_c, 1, 57, 0
4, 25968, Note_on_c, 1, 61, 85
4, 25968, Note_on_c, 1, 57, 85
4, 26013, Note_on_c, 1, 61, 0
4, 26013, Note_on_c, 1, 57, 0
4, 26016, Note_on_c, 1, 59, 85
4, 26061, Note_on_c, 1, 59, 0
4, 26064, Note_on_c, 1, 59, 85
4, 26109, Note_on_c, 1, 59, 0
4, 26112, Note_on_c, 1, 52, 85
4, 26201, Note_on_c, 1, 52, 0
4, 26304, Note_on_c, 1, 61, 75
4, 26304, Note_on_c, 1, 57, 75
4, 26349, Note_on_c, 1, 61, 0
4, 26349, Note_on_c, 1, 57, 0
4, 26352, Note_on_c, 1, 61, 75
4, 26352, Note_on_c, 1, 57, 75
4, 26397, Note_on_c, 1, 61, 0
4, 26397, Note_on_c, 1, 57, 0
4, 26400, Note_on_c, 1, 62, 75
4, 26400, Note_on_c, 1, 52, 75
4, 26445, Note_on_c, 1, 62, 0
4, 26445, Note_on_c, 1, 52, 0
4, 26448, Note_on_c, 1, 62, 75
4, 26448, Note_on_c, 1, 52, 75
4, 26493, Note_on_c, 1, 62, 0
4, 26493, Note_on_c, 1, 52, 0
4, 26496, Note_on_c, 1, 61, 75
4, 26496, Note_on_c, 1, 57, 75
4, 26585, Note_on_c, 1, 61, 0
4, 26585, Note_on_c, 1, 57, 0
4, 26736, Note_on_c, 1, 61, 75
4, 26781, Note_on_c, 1, 61, 0
4, 26784, Note_on_c, 1, 62, 75
4, 26829, Note_on_c, 1, 62, 0
4, 26832, Note_on_c, 1, 63, 75
4, 26877, Note_on_c, 1, 63, 0
4, 26880, Note_on_c, 1, 69, 75
4, 26928, Note_on_c, 1, 69, 0
4, 26928, Note_on_c, 1, 68, 75
4, 26973, Note_on_c, 1, 68, 0
4, 26976, Note_on_c, 1, 68, 75
4, 27065, Note_on_c, 1, 68, 0
4, 27072, Note_on_c, 1, 69, 75
4, 27161, Note_on_c, 1, 69, 0
4, 27168, Note_on_c, 1, 66, 75
4, 27257, Note_on_c, 1, 66, 0
4, 27264, Note_on_c, 1, 68, 75
4, 27353, Note_on_c, 1, 68, 0
4, 27360, Note_on_c, 1, 64, 75
4, 27360, Note_on_c, 1, 61, 75
4, 27405, Note_on_c, 1, 64, 0
4, 27405, Note_on_c, 1, 61, 0
4, 27408, Note_on_c, 1, 64, 75
4, 27408, Note_on_c, 1, 61, 75
4, 27453, Note_on_c, 1, 64, 0
4, 27453, Note_on_c, 1, 61, 0
4, 27456, Note_on_c, 1, 61, 75
4, 27456, Note_on_c, 1, 57, 75
4, 27501, Note_on_c, 1, 61, 0
4, 27501, Note_on_c, 1, 57, 0
4, 27504, Note_on_c, 1, 61, 75
4, 27504, Note_on_c, 1, 57, 75
4, 27549, Note_on_c, 1, 61, 0
4, 27549, Note_on_c, 1, 57, 0
4, 27552, Note_on_c, 1, 59, 75
4, 27597, Note_on_c, 1, 59, 0
4, 27600, Note_on_c, 1, 59, 75
4, 27645, Note_on_c, 1, 59, 0
4, 27648, Note_on_c, 1, 52, 75
4, 27737, Note_on_c, 1, 52, 0
4, 27840, Note_on_c, 1, 67, 70
4, 27840, Note_on_c, 1, 64, 70
4, 27885, Note_on_c, 1, 67, 0
4, 27885, Note_on_c, 1, 64, 0
4, 27888, Note_on_c, 1, 67, 70
4, 27888, Note_on_c, 1, 64, 70
4, 27933, Note_on_c, 1, 67, 0
4, 27933, Note_on_c, 1, 64, 0
4, 27936, Note_on_c, 1, 66, 70
4, 27936, Note_on_c, 1, 62, 70
4, 27981, Note_on_c, 1, 66, 0
4, 27981, Note_on_c, 1, 62, 0
4, 27984, Note_on_c, 1, 66, 70
4, 27984, Note_on_c, 1, 62, 70
4, 28029, Note_on_c, 1, 66, 0
4, 28029, Note_on_c, 1, 62, 0
4, 28032, Note_on_c, 1, 64, 70
4, 28032, Note_on_c, 1, 61, 70
4, 28077, Note_on_c, 1, 64, 0
4, 28077, Note_on_c, 1, 61, 0
4, 28080, Note_on_c, 1, 64, 70
4, 28080, Note_on_c, 1, 61, 70
4, 28125, Note_on_c, 1, 64, 0
4, 28125, Note_on_c, 1, 61, 0
4, 28128, Note_on_c, 1, 66, 70
4, 28128, Note_on_c, 1, 62, 70
4, 28173, Note_on_c, 1, 66, 0
4, 28173, Note_on_c, 1, 62, 0
4, 28176, Note_on_c, 1, 66, 70
4, 28176, Note_on_c, 1, 62, 70
4, 28221, Note_on_c, 1, 66, 0
4, 28221, Note_on_c, 1, 62, 0
4, 28320, Note_on_c, 1, 61, 75
4, 28365, Note_on_c, 1, 61, 0
4, 28368, Note_on_c, 1, 57, 75
4, 28413, Note_on_c, 1, 57, 0
4, 28416, Note_on_c, 1, 64, 75
4, 28416, Note_on_c, 1, 52, 75
4, 28505, Note_on_c, 1, 64, 0
4, 28505, Note_on_c, 1, 52, 0
4, 28608, Note_on_c, 1, 61, 75
4, 28608, Note_on_c, 1, 57, 75
4, 28653, Note_on_c, 1, 61, 0
4, 28653, Note_on_c, 1, 57, 0
4, 28656, Note_on_c, 1, 61, 75
4, 28656, Note_on_c, 1, 57, 75
4, 28701, Note_on_c, 1, 61, 0
4, 28701, Note_on_c, 1, 57, 0
4, 28704, Note_on_c, 1, 62, 75
4, 28704, Note_on_c, 1, 52, 75
4, 28749, Note_on_c, 1, 62, 0
4, 28749, Note_on_c, 1, 52, 0
4, 28752, Note_on_c, 1, 62, 75
4, 28752, Note_on_c, 1, 52, 75
4, 28797, Note_on_c, 1, 62, 0
4, 28797, Note_on_c, 1, 52, 0
4, 28800, Note_on_c, 1, 61, 75
4, 28800, Note_on_c, 1, 57, 75
4, 28889, Note_on_c, 1, 61, 0
4, 28889, Note_on_c, 1, 57, 0
4, 28944, Note_on_c, 1, 57, 75
4, 28944, Note_on_c, 1, 49, 75
4, 28989, Note_on_c, 1, 57, 0
4, 28989, Note_on_c, 1, 49, 0
4, 28992, Note_on_c, 1, 57, 75
4, 29081, Note_on_c, 1, 57, 0
4, 29088, Note_on_c, 1, 57, 75
4, 29133, Note_on_c, 1, 57, 0
4, 29136, Note_on_c, 1, 56, 75
4, 29181, Note_on_c, 1, 56, 0
4, 29184, Note_on_c, 1, 57, 75
4, 29184, Note_on_c, 1, 45, 75
4, 29273, Note_on_c, 1, 57, 0
4, 29273, Note_on_c, 1, 45, 0
4, 29376, Note_on_c, 1, 67, 70
4, 29376, Note_on_c, 1, 64, 70
4, 29421, Note_on_c, 1, 67, 0
4, 29421, Note_on_c, 1, 64, 0
4, 29424, Note_on_c, 1, 67, 70
4, 29424, Note_on_c, 1, 64, 70
4, 29469, Note_on_c, 1, 67, 0
4, 29469, Note_on_c, 1, 64, 0
4, 29472, Note_on_c, 1, 66, 70
4, 29472, Note_on_c, 1, 62, 70
4, 29517, Note_on_c, 1, 66, 0
4, 29517, Note_on_c, 1, 62, 0
4, 29520, Note_on_c, 1, 66, 70
4, 29520, Note_on_c, 1, 62, 70
4, 29565, Note_on_c, 1, 66, 0
4, 29565, Note_on_c, 1, 62, 0
4, 29568, Note_on_c, 1, 64, 70
4, 29568, Note_on_c, 1, 61, 70
4, 29613, Note_on_c, 1, 64, 0
4, 29613, Note_on_c, 1, 61, 0
4, 29616, Note_on_c, 1, 64, 70
4, 29616, Note_on_c, 1, 61, 70
4, 29661, Note_on_c, 1, 64, 0
4, 29661, Note_on_c, 1, 61, 0
4, 29664, Note_on_c, 1, 66, 70
4, 29664, Note_on_c, 1, 62, 70
4, 29709, Note_on_c, 1, 66, 0
4, 29709, Note_on_c, 1, 62, 0
4, 29712, Note_on_c, 1, 66, 70
4, 29712, Note_on_c, 1, 62, 70
4, 29757, Note_on_c, 1, 66, 0
4, 29757, Note_on_c, 1, 62, 0
4, 29856, Note_on_c, 1, 61, 75
4, 29901, Note_on_c, 1, 61, 0
4, 29904, Note_on_c, 1, 57, 75
4, 29949, Note_on_c, 1, 57, 0
4, 29952, Note_on_c, 1, 64, 75
4, 29952, Note_on_c, 1, 52, 75
4, 30041, Note_on_c, 1, 64, 0
4, 30041, Note_on_c, 1, 52, 0
4, 30144, Note_on_c, 1, 61, 75
4, 30144, Note_on_c, 1, 57, 75
4, 30189, Note_on_c, 1, 61, 0
4, 30189, Note_on_c, 1, 57, 0
4, 30192, Note_on_c, 1, 61, 75
4, 30192, Note_on_c, 1, 57, 75
4, 30237, Note_on_c, 1, 61, 0
4, 30237, Note_on_c, 1, 57, 0
4, 30240, Note_on_c, 1, 62, 75
4, 30240, Note_on_c, 1, 52, 75
4, 30285, Note_on_c, 1, 62, 0
4, 30285, Note_on_c, 1, 52, 0
4, 30288, Note_on_c, 1, 62, 75
4, 30288, Note_on_c, 1, 52, 75
4, 30333, Note_on_c, 1, 62, 0
4, 30333, Note_on_c, 1, 52, 0
4, 30336, Note_on_c, 1, 61, 75
4, 30336, Note_on_c, 1, 57, 75
4, 30425, Note_on_c, 1, 61, 0
4, 30425, Note_on_c, 1, 57, 0
4, 30480, Note_on_c, 1, 57, 75
4, 30480, Note_on_c, 1, 49, 75
4, 30525, Note_on_c, 1, 57, 0
4, 30525, Note_on_c, 1, 49, 0
4, 30528, Note_on_c, 1, 57, 75
4, 30617, Note_on_c, 1, 57, 0
4, 30624, Note_on_c, 1, 57, 75
4, 30669, Note_on_c, 1, 57, 0
4, 30672, Note_on_c, 1, 56, 75
4, 30717, Note_on_c, 1, 56, 0
4, 30720, Note_on_c, 1, 57, 75
4, 30720, Note_on_c, 1, 45, 75
4, 30809, Note_on_c, 1, 57, 0
4, 30809, Note_on_c, 1, 45, 0
4, 30912, Note_on_c, 1, 61, 75
4, 30912, Note_on_c, 1, 57, 75
4, 30957, Note_on_c, 1, 61, 0
4, 30957, Note_on_c, 1, 57, 0
4, 30960, Note_on_c, 1, 61, 75
4, 30960, Note_on_c, 1, 57, 75
4, 31005, Note_on_c, 1, 61, 0
4, 31005, Note_on_c, 1, 57, 0
4, 31008, Note_on_c, 1, 62, 75
4, 31008, Note_on_c, 1, 52, 75
4, 31053, Note_on_c, 1, 62, 0
4, 31053, Note_on_c, 1, 52, 0
4, 31056, Note_on_c, 1, 62, 75
4, 31056, Note_on_c, 1, 52, 75
4, 31101, Note_on_c, 1, 62, 0
4, 31101, Note_on_c, 1, 52, 0
4, 31104, Note_on_c, 1, 61, 75
4, 31104, Note_on_c, 1, 57, 75
4, 31149, Note_on_c, 1, 61, 0
4, 31149, Note_on_c, 1, 57, 0
4, 31200, Note_on_c, 1, 57, 75
4, 31200, Note_on_c, 1, 50, 75
4, 31289, Note_on_c, 1, 57, 0
4, 31289, Note_on_c, 1, 50, 0
4, 31296, Note_on_c, 1, 57, 75
4, 31296, Note_on_c, 1, 49, 75
4, 31341, Note_on_c, 1, 57, 0
4, 31341, Note_on_c, 1, 49, 0
4, 31344, Note_on_c, 1, 61, 75
4, 31389, Note_on_c, 1, 61, 0
4, 31392, Note_on_c, 1, 62, 75
4, 31437, Note_on_c, 1, 62, 0
4, 31440, Note_on_c, 1, 63, 75
4, 31485, Note_on_c, 1, 63, 0
4, 31488, Note_on_c, 1, 64, 75
4, 31577, Note_on_c, 1, 64, 0
4, 31680, Note_on_c, 1, 61, 75
4, 31680, Note_on_c, 1, 57, 75
4, 31725, Note_on_c, 1, 61, 0
4, 31725, Note_on_c, 1, 57, 0
4, 31728, Note_on_c, 1, 61, 75
4, 31728, Note_on_c, 1, 57, 75
4, 31773, Note_on_c, 1, 61, 0
4, 31773, Note_on_c, 1, 57, 0
4, 31776, Note_on_c, 1, 62, 75
4, 31776, Note_on_c, 1, 52, 75
4, 31821, Note_on_c, 1, 62, 0
4, 31821, Note_on_c, 1, 52, 0
4, 31824, Note_on_c, 1, 62, 75
4, 31824, Note_on_c, 1, 52, 75
4, 31869, Note_on_c, 1, 62, 0
4, 31869, Note_on_c, 1, 52, 0
4, 31872, Note_on_c, 1, 57, 85
4, 31917, Note_on_c, 1, 57, 0
4, 31920, Note_on_c, 1, 59, 85
4, 31943, Note_on_c, 1, 59, 0
4, 31944, Note_on_c, 1, 61, 85
4, 31967, Note_on_c, 1, 61, 0
4, 31968, Note_on_c, 1, 62, 85
4, 31991, Note_on_c, 1, 62, 0
4, 31992, Note_on_c, 1, 64, 85
4, 32015, Note_on_c, 1, 64, 0
4, 32016, Note_on_c, 1, 66, 85
4, 32039, Note_on_c, 1, 66, 0
4, 32040, Note_on_c, 1, 68, 85
4, 32063, Note_on_c, 1, 68, 0
4, 32064, Note_on_c, 1, 69, 85
4, 32087, Note_on_c, 1, 69, 0
4, 32088, Note_on_c, 1, 71, 85
4, 32111, Note_on_c, 1, 71, 0
4, 32112, Note_on_c, 1, 73, 85
4, 32135, Note_on_c, 1, 73, 0
4, 32136, Note_on_c, 1, 71, 85
4, 32159, Note_on_c, 1, 71, 0
4, 32160, Note_on_c, 1, 69, 85
4, 32183, Note_on_c, 1, 69, 0
4, 32184, Note_on_c, 1, 68, 85
4, 32207, Note_on_c, 1, 68, 0
4, 32208, Note_on_c, 1, 66, 85
4, 32231, Note_on_c, 1, 66, 0
4, 32232, Note_on_c, 1, 64, 85
4, 32255, Note_on_c, 1, 64, 0
4, 32256, Note_on_c, 1, 62, 85
4, 32345, Note_on_c, 1, 62, 0
4, 32352, Note_on_c, 1, 64, 85
4, 32397, Note_on_c, 1, 64, 0
4, 32400, Note_on_c, 1, 52, 85
4, 32445, Note_on_c, 1, 52, 0
4, 32448, Note_on_c, 1, 57, 85
4, 32537, Note_on_c, 1, 57, 0
4, 32544, Note_on_c, 1, 57, 92
4, 32544, Note_on_c, 1, 45, 92
4, 32633, Note_on_c, 1, 57, 0
4, 32633, Note_on_c, 1, 45, 0
4, 32640, Note_on_c, 1, 57, 92
4, 32640, Note_on_c, 1, 45, 92
4, 32729, Note_on_c, 1, 57, 0
4, 32729, Note_on_c, 1, 45, 0
4, 32832, Note_on_c, 1, 45, 4
4, 32921, Note_on_c, 1, 45, 0
4, 33024, End_track
5, 0, Start_track
5, 0, Program_c, 1, 0
5, 0, Control_c, 1, 7, 127
5, 0, Control_c, 1, 10, 64
5, 7104, Note_on_c, 1, 53, 64
5, 7193, Note_on_c, 1, 53, 0
5, 7200, Note_on_c, 1, 55, 64
5, 7289, Note_on_c, 1, 55, 0
5, 8256, Note_on_c, 1, 53, 64
5, 8345, Note_on_c, 1, 53, 0
5, 8352, Note_on_c, 1, 55, 64
5, 8441, Note_on_c, 1, 55, 0
5, 13056, Note_on_c, 1, 64, 64
5, 13529, Note_on_c, 1, 64, 0
5, 13536, Note_on_c, 1, 56, 64
5, 13625, Note_on_c, 1, 56, 0
5, 13632, Note_on_c, 1, 57, 64
5, 13721, Note_on_c, 1, 57, 0
5, 13728, Note_on_c, 1, 59, 64
5, 13817, Note_on_c, 1, 59, 0
5, 14592, Note_on_c, 1, 64, 64
5, 15065, Note_on_c, 1, 64, 0
5, 15072, Note_on_c, 1, 56, 64
5, 15161, Note_on_c, 1, 56, 0
5, 15168, Note_on_c, 1, 57, 64
5, 15257, Note_on_c, 1, 57, 0
5, 15264, Note_on_c, 1, 59, 64
5, 15353, Note_on_c, 1, 59, 0
5, 15936, Note_on_c, 1, 64, 64
5, 15936, Note_on_c, 1, 62, 64
5, 15981, Note_on_c, 1, 64, 0
5, 15981, Note_on_c, 1, 62, 0
5, 15984, Note_on_c, 1, 64, 64
5, 15984, Note_on_c, 1, 62, 64
5, 16029, Note_on_c, 1, 64, 0
5, 16029, Note_on_c, 1, 62, 0
5, 16032, Note_on_c, 1, 64, 64
5, 16121, Note_on_c, 1, 64, 0
5, 17472, Note_on_c, 1, 64, 64
5, 17472, Note_on_c, 1, 62, 64
5, 17517, Note_on_c, 1, 64, 0
5, 17517, Note_on_c, 1, 62, 0
5, 17520, Note_on_c, 1, 64, 64
5, 17520, Note_on_c, 1, 62, 64
5, 17565, Note_on_c, 1, 64, 0
5, 17565, Note_on_c, 1, 62, 0
5, 17568, Note_on_c, 1, 64, 64
5, 17657, Note_on_c, 1, 64, 0
5, 25344, Note_on_c, 1, 64, 85
5, 25817, Note_on_c, 1, 64, 0
5, 26880, Note_on_c, 1, 64, 85
5, 27353, Note_on_c, 1, 64, 0
5, 28224, Note_on_c, 1, 64, 85
5, 28224, Note_on_c, 1, 62, 85
5, 28269, Note_on_c, 1, 64, 0
5, 28269, Note_on_c, 1, 62, 0
5, 28272, Note_on_c, 1, 64, 85
5, 28272, Note_on_c, 1, 62, 85
5, 28317, Note_on_c, 1, 64, 0
5, 28317, Note_on_c, 1, 62, 0
5, 28320, Note_on_c, 1, 64, 85
5, 28409, Note_on_c, 1, 64, 0
5, 28992, Note_on_c, 1, 50, 85
5, 29081, Note_on_c, 1, 50, 0
5, 29088, Note_on_c, 1, 52, 85
5, 29177, Note_on_c, 1, 52, 0
5, 29760, Note_on_c, 1, 64, 85
5, 29760, Note_on_c, 1, 62, 85
5, 29805, Note_on_c, 1, 64, 0
5, 29805, Note_on_c, 1, 62, 0
5, 29808, Note_on_c, 1, 64, 85
5, 29808, Note_on_c, 1, 62, 85
5, 29853, Note_on_c, 1, 64, 0
5, 29853, Note_on_c, 1, 62, 0
5, 29856, Note_on_c, 1, 64, 85
5, 29945, Note_on_c, 1, 64, 0
5, 30528, Note_on_c, 1, 50, 85
5, 30617, Note_on_c, 1, 50, 0
5, 30624, Note_on_c, 1, 52, 85
5, 30713, Note_on_c, 1, 52, 0
5, 32256, Note_on_c, 1, 62, 85
5, 32345, Note_on_c, 1, 62, 0
5, 33024, End_track
6, 0, Start_track
6, 0, Title_t, "Sonata III   Haydn  "
6, 0, End_track
0, 0, End_of_file
