0, 0, Header, 1, 6, 96
1, 0, Start_track
1, 0, Copyright_t, "Copyright  2000 <copyright holder>"
1, 0, Text_t, "Sonata I\015\012"
1, 0, Text_t, "Haydn\015\012"
1, 0, Sequencer_specific, 16, 68, 87, 77, 90, 86, 82, 83, 78, 32, 55, 46, 49, 46, 50, 46, 48
1, 0, Time_signature, 2, 1, 24, 8
1, 0, Tempo, 100000
1, 0, Key_signature, -4, "major"
1, 288, Tempo, 444444
1, 21408, Tempo, 444444
1, 60288, Tempo, 750000
1, 60576, Tempo, 444444
1, 96768, Tempo, 750000
1, 97056, Tempo, 444444
1, 115584, End_track
2, 0, Start_track
2, 0, Program_c, 0, 0
2, 0, Control_c, 0, 7, 127
2, 0, Control_c, 0, 10, 64
2, 288, Note_on_c, 0, 63, 77
2, 355, Note_on_c, 0, 63, 0
2, 360, Note_on_c, 0, 60, 77
2, 383, Note_on_c, 0, 60, 0
2, 384, Note_on_c, 0, 68, 77
2, 451, Note_on_c, 0, 68, 0
2, 456, Note_on_c, 0, 68, 77
2, 479, Note_on_c, 0, 68, 0
2, 480, Note_on_c, 0, 70, 77
2, 492, Note_on_c, 0, 70, 0
2, 492, Note_on_c, 0, 68, 77
2, 504, Note_on_c, 0, 68, 0
2, 504, Note_on_c, 0, 70, 77
2, 516, Note_on_c, 0, 70, 0
2, 516, Note_on_c, 0, 68, 77
2, 528, Note_on_c, 0, 68, 0
2, 528, Note_on_c, 0, 67, 77
2, 552, Note_on_c, 0, 67, 0
2, 552, Note_on_c, 0, 68, 77
2, 576, Note_on_c, 0, 68, 0
2, 576, Note_on_c, 0, 70, 77
2, 665, Note_on_c, 0, 70, 0
2, 672, Note_on_c, 0, 63, 77
2, 739, Note_on_c, 0, 63, 0
2, 744, Note_on_c, 0, 75, 77
2, 767, Note_on_c, 0, 75, 0
2, 768, Note_on_c, 0, 73, 77
2, 960, Note_on_c, 0, 73, 0
2, 960, Note_on_c, 0, 72, 77
2, 980, Note_on_c, 0, 72, 0
2, 1056, Note_on_c, 0, 68, 77
2, 1123, Note_on_c, 0, 68, 0
2, 1128, Note_on_c, 0, 77, 77
2, 1151, Note_on_c, 0, 77, 0
2, 1152, Note_on_c, 0, 75, 77
2, 1344, Note_on_c, 0, 75, 0
2, 1344, Note_on_c, 0, 73, 77
2, 1364, Note_on_c, 0, 73, 0
2, 1440, Note_on_c, 0, 63, 77
2, 1507, Note_on_c, 0, 63, 0
2, 1512, Note_on_c, 0, 75, 77
2, 1535, Note_on_c, 0, 75, 0
2, 1536, Note_on_c, 0, 73, 77
2, 1728, Note_on_c, 0, 73, 0
2, 1728, Note_on_c, 0, 72, 77
2, 1748, Note_on_c, 0, 72, 0
2, 1824, Note_on_c, 0, 80, 77
2, 1891, Note_on_c, 0, 80, 0
2, 1896, Note_on_c, 0, 72, 77
2, 1919, Note_on_c, 0, 72, 0
2, 1920, Note_on_c, 0, 70, 77
2, 1987, Note_on_c, 0, 70, 0
2, 1992, Note_on_c, 0, 70, 77
2, 2015, Note_on_c, 0, 70, 0
2, 2016, Note_on_c, 0, 72, 77
2, 2028, Note_on_c, 0, 72, 0
2, 2028, Note_on_c, 0, 70, 77
2, 2040, Note_on_c, 0, 70, 0
2, 2040, Note_on_c, 0, 72, 77
2, 2052, Note_on_c, 0, 72, 0
2, 2052, Note_on_c, 0, 70, 77
2, 2064, Note_on_c, 0, 70, 0
2, 2064, Note_on_c, 0, 69, 77
2, 2088, Note_on_c, 0, 69, 0
2, 2088, Note_on_c, 0, 70, 77
2, 2112, Note_on_c, 0, 70, 0
2, 2112, Note_on_c, 0, 73, 77
2, 2179, Note_on_c, 0, 73, 0
2, 2184, Note_on_c, 0, 70, 77
2, 2207, Note_on_c, 0, 70, 0
2, 2208, Note_on_c, 0, 67, 77
2, 2275, Note_on_c, 0, 67, 0
2, 2280, Note_on_c, 0, 63, 77
2, 2303, Note_on_c, 0, 63, 0
2, 2304, Note_on_c, 0, 68, 77
2, 2343, Note_on_c, 0, 68, 0
2, 2592, Note_on_c, 0, 63, 77
2, 2659, Note_on_c, 0, 63, 0
2, 2664, Note_on_c, 0, 60, 77
2, 2687, Note_on_c, 0, 60, 0
2, 2688, Note_on_c, 0, 68, 77
2, 2755, Note_on_c, 0, 68, 0
2, 2760, Note_on_c, 0, 68, 77
2, 2783, Note_on_c, 0, 68, 0
2, 2784, Note_on_c, 0, 70, 77
2, 2796, Note_on_c, 0, 70, 0
2, 2796, Note_on_c, 0, 68, 77
2, 2808, Note_on_c, 0, 68, 0
2, 2808, Note_on_c, 0, 70, 77
2, 2820, Note_on_c, 0, 70, 0
2, 2820, Note_on_c, 0, 68, 77
2, 2832, Note_on_c, 0, 68, 0
2, 2832, Note_on_c, 0, 67, 77
2, 2856, Note_on_c, 0, 67, 0
2, 2856, Note_on_c, 0, 68, 77
2, 2880, Note_on_c, 0, 68, 0
2, 2880, Note_on_c, 0, 70, 77
2, 2969, Note_on_c, 0, 70, 0
2, 2976, Note_on_c, 0, 63, 77
2, 3043, Note_on_c, 0, 63, 0
2, 3048, Note_on_c, 0, 75, 77
2, 3071, Note_on_c, 0, 75, 0
2, 3072, Note_on_c, 0, 73, 77
2, 3264, Note_on_c, 0, 73, 0
2, 3264, Note_on_c, 0, 72, 77
2, 3309, Note_on_c, 0, 72, 0
2, 3360, Note_on_c, 0, 68, 77
2, 3427, Note_on_c, 0, 68, 0
2, 3432, Note_on_c, 0, 80, 77
2, 3455, Note_on_c, 0, 80, 0
2, 3456, Note_on_c, 0, 79, 77
2, 3552, Note_on_c, 0, 79, 0
2, 3552, Note_on_c, 0, 77, 77
2, 3581, Note_on_c, 0, 77, 0
2, 3624, Note_on_c, 0, 80, 77
2, 3647, Note_on_c, 0, 80, 0
2, 3648, Note_on_c, 0, 77, 77
2, 3744, Note_on_c, 0, 77, 0
2, 3744, Note_on_c, 0, 75, 77
2, 3773, Note_on_c, 0, 75, 0
2, 3816, Note_on_c, 0, 80, 77
2, 3839, Note_on_c, 0, 80, 0
2, 3840, Note_on_c, 0, 75, 77
2, 3936, Note_on_c, 0, 75, 0
2, 3936, Note_on_c, 0, 73, 77
2, 3965, Note_on_c, 0, 73, 0
2, 4008, Note_on_c, 0, 80, 77
2, 4031, Note_on_c, 0, 80, 0
2, 4032, Note_on_c, 0, 73, 77
2, 4128, Note_on_c, 0, 73, 0
2, 4128, Note_on_c, 0, 72, 77
2, 4157, Note_on_c, 0, 72, 0
2, 4200, Note_on_c, 0, 80, 77
2, 4223, Note_on_c, 0, 80, 0
2, 4224, Note_on_c, 0, 72, 77
2, 4291, Note_on_c, 0, 72, 0
2, 4296, Note_on_c, 0, 70, 80
2, 4319, Note_on_c, 0, 70, 0
2, 4320, Note_on_c, 0, 73, 81
2, 4387, Note_on_c, 0, 73, 0
2, 4392, Note_on_c, 0, 77, 84
2, 4415, Note_on_c, 0, 77, 0
2, 4416, Note_on_c, 0, 75, 83
2, 4505, Note_on_c, 0, 75, 0
2, 4512, Note_on_c, 0, 67, 80
2, 4601, Note_on_c, 0, 67, 0
2, 4608, Note_on_c, 0, 67, 77
2, 4620, Note_on_c, 0, 67, 0
2, 4620, Note_on_c, 0, 68, 77
2, 4698, Note_on_c, 0, 68, 0
2, 4704, Note_on_c, 0, 67, 77
2, 4716, Note_on_c, 0, 67, 0
2, 4716, Note_on_c, 0, 68, 77
2, 4794, Note_on_c, 0, 68, 0
2, 4800, Note_on_c, 0, 67, 77
2, 4812, Note_on_c, 0, 67, 0
2, 4812, Note_on_c, 0, 68, 77
2, 4890, Note_on_c, 0, 68, 0
2, 4896, Note_on_c, 0, 69, 77
2, 4908, Note_on_c, 0, 69, 0
2, 4908, Note_on_c, 0, 70, 77
2, 4986, Note_on_c, 0, 70, 0
2, 4992, Note_on_c, 0, 71, 77
2, 5004, Note_on_c, 0, 71, 0
2, 5004, Note_on_c, 0, 72, 77
2, 5184, Note_on_c, 0, 72, 0
2, 5184, Note_on_c, 0, 68, 77
2, 5361, Note_on_c, 0, 68, 0
2, 5376, Note_on_c, 0, 71, 77
2, 5388, Note_on_c, 0, 71, 0
2, 5388, Note_on_c, 0, 72, 77
2, 5466, Note_on_c, 0, 72, 0
2, 5472, Note_on_c, 0, 71, 77
2, 5484, Note_on_c, 0, 71, 0
2, 5484, Note_on_c, 0, 72, 77
2, 5562, Note_on_c, 0, 72, 0
2, 5568, Note_on_c, 0, 71, 77
2, 5580, Note_on_c, 0, 71, 0
2, 5580, Note_on_c, 0, 72, 77
2, 5658, Note_on_c, 0, 72, 0
2, 5664, Note_on_c, 0, 75, 77
2, 5687, Note_on_c, 0, 75, 0
2, 5688, Note_on_c, 0, 73, 77
2, 5711, Note_on_c, 0, 73, 0
2, 5712, Note_on_c, 0, 72, 77
2, 5735, Note_on_c, 0, 72, 0
2, 5736, Note_on_c, 0, 73, 77
2, 5759, Note_on_c, 0, 73, 0
2, 5760, Note_on_c, 0, 75, 77
2, 5952, Note_on_c, 0, 75, 0
2, 5952, Note_on_c, 0, 72, 77
2, 6129, Note_on_c, 0, 72, 0
2, 6144, Note_on_c, 0, 80, 77
2, 6233, Note_on_c, 0, 80, 0
2, 6240, Note_on_c, 0, 80, 77
2, 6270, Note_on_c, 0, 80, 0
2, 6272, Note_on_c, 0, 84, 77
2, 6302, Note_on_c, 0, 84, 0
2, 6304, Note_on_c, 0, 87, 77
2, 6334, Note_on_c, 0, 87, 0
2, 6336, Note_on_c, 0, 78, 93
2, 6528, Note_on_c, 0, 78, 0
2, 6528, Note_on_c, 0, 77, 77
2, 6617, Note_on_c, 0, 77, 0
2, 6624, Note_on_c, 0, 77, 77
2, 6654, Note_on_c, 0, 77, 0
2, 6656, Note_on_c, 0, 82, 77
2, 6686, Note_on_c, 0, 82, 0
2, 6688, Note_on_c, 0, 85, 77
2, 6718, Note_on_c, 0, 85, 0
2, 6720, Note_on_c, 0, 75, 93
2, 6864, Note_on_c, 0, 75, 0
2, 6864, Note_on_c, 0, 77, 77
2, 6887, Note_on_c, 0, 77, 0
2, 6888, Note_on_c, 0, 79, 77
2, 6911, Note_on_c, 0, 79, 0
2, 6912, Note_on_c, 0, 80, 77
2, 7001, Note_on_c, 0, 80, 0
2, 7008, Note_on_c, 0, 80, 77
2, 7038, Note_on_c, 0, 80, 0
2, 7040, Note_on_c, 0, 82, 77
2, 7070, Note_on_c, 0, 82, 0
2, 7072, Note_on_c, 0, 84, 77
2, 7102, Note_on_c, 0, 84, 0
2, 7104, Note_on_c, 0, 73, 93
2, 7296, Note_on_c, 0, 73, 0
2, 7296, Note_on_c, 0, 72, 77
2, 7326, Note_on_c, 0, 72, 0
2, 7328, Note_on_c, 0, 75, 77
2, 7358, Note_on_c, 0, 75, 0
2, 7360, Note_on_c, 0, 73, 77
2, 7390, Note_on_c, 0, 73, 0
2, 7392, Note_on_c, 0, 72, 77
2, 7422, Note_on_c, 0, 72, 0
2, 7424, Note_on_c, 0, 84, 77
2, 7454, Note_on_c, 0, 84, 0
2, 7456, Note_on_c, 0, 82, 77
2, 7486, Note_on_c, 0, 82, 0
2, 7488, Note_on_c, 0, 80, 77
2, 7518, Note_on_c, 0, 80, 0
2, 7520, Note_on_c, 0, 79, 77
2, 7550, Note_on_c, 0, 79, 0
2, 7552, Note_on_c, 0, 77, 77
2, 7582, Note_on_c, 0, 77, 0
2, 7584, Note_on_c, 0, 75, 77
2, 7614, Note_on_c, 0, 75, 0
2, 7616, Note_on_c, 0, 73, 77
2, 7646, Note_on_c, 0, 73, 0
2, 7648, Note_on_c, 0, 72, 77
2, 7678, Note_on_c, 0, 72, 0
2, 7680, Note_on_c, 0, 75, 77
2, 7752, Note_on_c, 0, 75, 0
2, 7752, Note_on_c, 0, 72, 77
2, 7775, Note_on_c, 0, 72, 0
2, 7776, Note_on_c, 0, 70, 77
2, 7815, Note_on_c, 0, 70, 0
2, 7968, Note_on_c, 0, 70, 77
2, 8035, Note_on_c, 0, 70, 0
2, 8040, Note_on_c, 0, 67, 77
2, 8063, Note_on_c, 0, 67, 0
2, 8064, Note_on_c, 0, 75, 70
2, 8131, Note_on_c, 0, 75, 0
2, 8136, Note_on_c, 0, 75, 70
2, 8159, Note_on_c, 0, 75, 0
2, 8160, Note_on_c, 0, 77, 70
2, 8172, Note_on_c, 0, 77, 0
2, 8172, Note_on_c, 0, 75, 71
2, 8184, Note_on_c, 0, 75, 0
2, 8184, Note_on_c, 0, 77, 71
2, 8196, Note_on_c, 0, 77, 0
2, 8196, Note_on_c, 0, 75, 71
2, 8208, Note_on_c, 0, 75, 0
2, 8208, Note_on_c, 0, 74, 71
2, 8232, Note_on_c, 0, 74, 0
2, 8232, Note_on_c, 0, 75, 71
2, 8256, Note_on_c, 0, 75, 0
2, 8256, Note_on_c, 0, 77, 71
2, 8276, Note_on_c, 0, 77, 0
2, 8352, Note_on_c, 0, 74, 72
2, 8419, Note_on_c, 0, 74, 0
2, 8424, Note_on_c, 0, 70, 73
2, 8447, Note_on_c, 0, 70, 0
2, 8448, Note_on_c, 0, 77, 73
2, 8515, Note_on_c, 0, 77, 0
2, 8520, Note_on_c, 0, 77, 74
2, 8543, Note_on_c, 0, 77, 0
2, 8544, Note_on_c, 0, 79, 74
2, 8556, Note_on_c, 0, 79, 0
2, 8556, Note_on_c, 0, 77, 74
2, 8568, Note_on_c, 0, 77, 0
2, 8568, Note_on_c, 0, 79, 74
2, 8580, Note_on_c, 0, 79, 0
2, 8580, Note_on_c, 0, 77, 75
2, 8592, Note_on_c, 0, 77, 0
2, 8592, Note_on_c, 0, 75, 75
2, 8616, Note_on_c, 0, 75, 0
2, 8616, Note_on_c, 0, 77, 75
2, 8640, Note_on_c, 0, 77, 0
2, 8640, Note_on_c, 0, 79, 75
2, 8669, Note_on_c, 0, 79, 0
2, 8712, Note_on_c, 0, 79, 76
2, 8735, Note_on_c, 0, 79, 0
2, 8736, Note_on_c, 0, 80, 76
2, 8748, Note_on_c, 0, 80, 0
2, 8748, Note_on_c, 0, 79, 76
2, 8760, Note_on_c, 0, 79, 0
2, 8760, Note_on_c, 0, 80, 76
2, 8772, Note_on_c, 0, 80, 0
2, 8772, Note_on_c, 0, 79, 76
2, 8784, Note_on_c, 0, 79, 0
2, 8784, Note_on_c, 0, 77, 77
2, 8808, Note_on_c, 0, 77, 0
2, 8808, Note_on_c, 0, 79, 77
2, 8832, Note_on_c, 0, 79, 0
2, 8832, Note_on_c, 0, 80, 77
2, 8861, Note_on_c, 0, 80, 0
2, 8904, Note_on_c, 0, 80, 78
2, 8927, Note_on_c, 0, 80, 0
2, 8928, Note_on_c, 0, 82, 78
2, 8940, Note_on_c, 0, 82, 0
2, 8940, Note_on_c, 0, 80, 78
2, 8952, Note_on_c, 0, 80, 0
2, 8952, Note_on_c, 0, 82, 78
2, 8964, Note_on_c, 0, 82, 0
2, 8964, Note_on_c, 0, 80, 78
2, 8976, Note_on_c, 0, 80, 0
2, 8976, Note_on_c, 0, 79, 78
2, 9000, Note_on_c, 0, 79, 0
2, 9000, Note_on_c, 0, 80, 79
2, 9024, Note_on_c, 0, 80, 0
2, 9024, Note_on_c, 0, 82, 79
2, 9053, Note_on_c, 0, 82, 0
2, 9096, Note_on_c, 0, 82, 80
2, 9119, Note_on_c, 0, 82, 0
2, 9120, Note_on_c, 0, 84, 80
2, 9132, Note_on_c, 0, 84, 0
2, 9132, Note_on_c, 0, 82, 80
2, 9144, Note_on_c, 0, 82, 0
2, 9144, Note_on_c, 0, 84, 80
2, 9156, Note_on_c, 0, 84, 0
2, 9156, Note_on_c, 0, 82, 80
2, 9168, Note_on_c, 0, 82, 0
2, 9168, Note_on_c, 0, 80, 80
2, 9192, Note_on_c, 0, 80, 0
2, 9192, Note_on_c, 0, 82, 80
2, 9216, Note_on_c, 0, 82, 0
2, 9216, Note_on_c, 0, 84, 81
2, 9481, Note_on_c, 0, 84, 0
2, 9504, Note_on_c, 0, 76, 84
2, 9600, Note_on_c, 0, 76, 0
2, 9600, Note_on_c, 0, 77, 84
2, 9630, Note_on_c, 0, 77, 0
2, 9632, Note_on_c, 0, 80, 84
2, 9662, Note_on_c, 0, 80, 0
2, 9664, Note_on_c, 0, 79, 84
2, 9694, Note_on_c, 0, 79, 0
2, 9696, Note_on_c, 0, 77, 84
2, 9726, Note_on_c, 0, 77, 0
2, 9728, Note_on_c, 0, 84, 84
2, 9758, Note_on_c, 0, 84, 0
2, 9760, Note_on_c, 0, 82, 84
2, 9790, Note_on_c, 0, 82, 0
2, 9792, Note_on_c, 0, 80, 84
2, 9822, Note_on_c, 0, 80, 0
2, 9824, Note_on_c, 0, 79, 84
2, 9854, Note_on_c, 0, 79, 0
2, 9856, Note_on_c, 0, 77, 84
2, 9886, Note_on_c, 0, 77, 0
2, 9888, Note_on_c, 0, 75, 84
2, 9918, Note_on_c, 0, 75, 0
2, 9920, Note_on_c, 0, 74, 84
2, 9950, Note_on_c, 0, 74, 0
2, 9952, Note_on_c, 0, 72, 84
2, 9982, Note_on_c, 0, 72, 0
2, 9984, Note_on_c, 0, 82, 84
2, 10249, Note_on_c, 0, 82, 0
2, 10272, Note_on_c, 0, 74, 84
2, 10368, Note_on_c, 0, 74, 0
2, 10368, Note_on_c, 0, 75, 84
2, 10398, Note_on_c, 0, 75, 0
2, 10400, Note_on_c, 0, 79, 84
2, 10430, Note_on_c, 0, 79, 0
2, 10432, Note_on_c, 0, 77, 84
2, 10462, Note_on_c, 0, 77, 0
2, 10464, Note_on_c, 0, 75, 84
2, 10494, Note_on_c, 0, 75, 0
2, 10496, Note_on_c, 0, 82, 83
2, 10526, Note_on_c, 0, 82, 0
2, 10528, Note_on_c, 0, 80, 83
2, 10558, Note_on_c, 0, 80, 0
2, 10560, Note_on_c, 0, 79, 82
2, 10590, Note_on_c, 0, 79, 0
2, 10592, Note_on_c, 0, 77, 82
2, 10622, Note_on_c, 0, 77, 0
2, 10624, Note_on_c, 0, 75, 82
2, 10654, Note_on_c, 0, 75, 0
2, 10656, Note_on_c, 0, 74, 81
2, 10686, Note_on_c, 0, 74, 0
2, 10688, Note_on_c, 0, 72, 81
2, 10718, Note_on_c, 0, 72, 0
2, 10720, Note_on_c, 0, 70, 81
2, 10750, Note_on_c, 0, 70, 0
2, 10752, Note_on_c, 0, 80, 80
2, 11017, Note_on_c, 0, 80, 0
2, 11040, Note_on_c, 0, 79, 77
2, 11070, Note_on_c, 0, 79, 0
2, 11072, Note_on_c, 0, 77, 77
2, 11102, Note_on_c, 0, 77, 0
2, 11104, Note_on_c, 0, 75, 77
2, 11134, Note_on_c, 0, 75, 0
2, 11136, Note_on_c, 0, 75, 77
2, 11184, Note_on_c, 0, 75, 0
2, 11184, Note_on_c, 0, 74, 77
2, 11229, Note_on_c, 0, 74, 0
2, 11232, Note_on_c, 0, 74, 93
2, 11424, Note_on_c, 0, 74, 0
2, 11424, Note_on_c, 0, 75, 77
2, 11513, Note_on_c, 0, 75, 0
2, 11520, Note_on_c, 0, 77, 77
2, 11550, Note_on_c, 0, 77, 0
2, 11552, Note_on_c, 0, 79, 77
2, 11582, Note_on_c, 0, 79, 0
2, 11584, Note_on_c, 0, 80, 77
2, 11614, Note_on_c, 0, 80, 0
2, 11616, Note_on_c, 0, 80, 93
2, 11808, Note_on_c, 0, 80, 0
2, 11808, Note_on_c, 0, 79, 77
2, 11838, Note_on_c, 0, 79, 0
2, 11840, Note_on_c, 0, 77, 77
2, 11870, Note_on_c, 0, 77, 0
2, 11872, Note_on_c, 0, 75, 77
2, 11902, Note_on_c, 0, 75, 0
2, 11904, Note_on_c, 0, 75, 77
2, 11952, Note_on_c, 0, 75, 0
2, 11952, Note_on_c, 0, 74, 77
2, 11997, Note_on_c, 0, 74, 0
2, 12000, Note_on_c, 0, 74, 93
2, 12192, Note_on_c, 0, 74, 0
2, 12192, Note_on_c, 0, 75, 77
2, 12281, Note_on_c, 0, 75, 0
2, 12288, Note_on_c, 0, 77, 77
2, 12318, Note_on_c, 0, 77, 0
2, 12320, Note_on_c, 0, 79, 77
2, 12350, Note_on_c, 0, 79, 0
2, 12352, Note_on_c, 0, 80, 78
2, 12382, Note_on_c, 0, 80, 0
2, 12384, Note_on_c, 0, 80, 94
2, 12576, Note_on_c, 0, 80, 0
2, 12576, Note_on_c, 0, 79, 81
2, 12665, Note_on_c, 0, 79, 0
2, 12672, Note_on_c, 0, 77, 83
2, 12702, Note_on_c, 0, 77, 0
2, 12704, Note_on_c, 0, 84, 84
2, 12734, Note_on_c, 0, 84, 0
2, 12736, Note_on_c, 0, 82, 84
2, 12766, Note_on_c, 0, 82, 0
2, 12768, Note_on_c, 0, 80, 84
2, 12798, Note_on_c, 0, 80, 0
2, 12800, Note_on_c, 0, 79, 84
2, 12830, Note_on_c, 0, 79, 0
2, 12832, Note_on_c, 0, 77, 84
2, 12862, Note_on_c, 0, 77, 0
2, 12864, Note_on_c, 0, 75, 84
2, 12960, Note_on_c, 0, 75, 0
2, 12960, Note_on_c, 0, 74, 79
2, 13049, Note_on_c, 0, 74, 0
2, 13056, Note_on_c, 0, 74, 75
2, 13189, Note_on_c, 0, 74, 0
2, 13200, Note_on_c, 0, 75, 69
2, 13223, Note_on_c, 0, 75, 0
2, 13224, Note_on_c, 0, 77, 68
2, 13247, Note_on_c, 0, 77, 0
2, 13248, Note_on_c, 0, 75, 67
2, 13337, Note_on_c, 0, 75, 0
2, 13440, Note_on_c, 0, 56, 100
2, 13662, Note_on_c, 0, 56, 0
2, 13664, Note_on_c, 0, 60, 84
2, 13694, Note_on_c, 0, 60, 0
2, 13696, Note_on_c, 0, 58, 84
2, 13726, Note_on_c, 0, 58, 0
2, 13728, Note_on_c, 0, 56, 84
2, 13741, Note_on_c, 0, 56, 0
2, 13760, Note_on_c, 0, 56, 84
2, 13773, Note_on_c, 0, 56, 0
2, 13792, Note_on_c, 0, 56, 84
2, 13805, Note_on_c, 0, 56, 0
2, 13824, Note_on_c, 0, 56, 100
2, 14046, Note_on_c, 0, 56, 0
2, 14048, Note_on_c, 0, 65, 84
2, 14078, Note_on_c, 0, 65, 0
2, 14080, Note_on_c, 0, 62, 84
2, 14110, Note_on_c, 0, 62, 0
2, 14112, Note_on_c, 0, 56, 84
2, 14125, Note_on_c, 0, 56, 0
2, 14144, Note_on_c, 0, 56, 84
2, 14157, Note_on_c, 0, 56, 0
2, 14176, Note_on_c, 0, 56, 84
2, 14189, Note_on_c, 0, 56, 0
2, 14208, Note_on_c, 0, 55, 84
2, 14238, Note_on_c, 0, 55, 0
2, 14240, Note_on_c, 0, 58, 84
2, 14270, Note_on_c, 0, 58, 0
2, 14272, Note_on_c, 0, 63, 84
2, 14285, Note_on_c, 0, 63, 0
2, 14304, Note_on_c, 0, 63, 84
2, 14317, Note_on_c, 0, 63, 0
2, 14336, Note_on_c, 0, 63, 84
2, 14349, Note_on_c, 0, 63, 0
2, 14368, Note_on_c, 0, 63, 84
2, 14381, Note_on_c, 0, 63, 0
2, 14400, Note_on_c, 0, 62, 84
2, 14430, Note_on_c, 0, 62, 0
2, 14432, Note_on_c, 0, 65, 84
2, 14462, Note_on_c, 0, 65, 0
2, 14464, Note_on_c, 0, 68, 84
2, 14494, Note_on_c, 0, 68, 0
2, 14496, Note_on_c, 0, 68, 84
2, 14509, Note_on_c, 0, 68, 0
2, 14528, Note_on_c, 0, 68, 84
2, 14541, Note_on_c, 0, 68, 0
2, 14560, Note_on_c, 0, 68, 84
2, 14573, Note_on_c, 0, 68, 0
2, 14592, Note_on_c, 0, 67, 84
2, 14622, Note_on_c, 0, 67, 0
2, 14624, Note_on_c, 0, 70, 84
2, 14654, Note_on_c, 0, 70, 0
2, 14656, Note_on_c, 0, 75, 84
2, 14669, Note_on_c, 0, 75, 0
2, 14688, Note_on_c, 0, 75, 84
2, 14701, Note_on_c, 0, 75, 0
2, 14720, Note_on_c, 0, 75, 84
2, 14733, Note_on_c, 0, 75, 0
2, 14752, Note_on_c, 0, 75, 84
2, 14765, Note_on_c, 0, 75, 0
2, 14784, Note_on_c, 0, 74, 84
2, 14814, Note_on_c, 0, 74, 0
2, 14816, Note_on_c, 0, 77, 84
2, 14846, Note_on_c, 0, 77, 0
2, 14848, Note_on_c, 0, 80, 84
2, 14878, Note_on_c, 0, 80, 0
2, 14880, Note_on_c, 0, 80, 84
2, 14893, Note_on_c, 0, 80, 0
2, 14912, Note_on_c, 0, 80, 84
2, 14925, Note_on_c, 0, 80, 0
2, 14944, Note_on_c, 0, 80, 84
2, 14957, Note_on_c, 0, 80, 0
2, 14976, Note_on_c, 0, 79, 84
2, 15006, Note_on_c, 0, 79, 0
2, 15008, Note_on_c, 0, 80, 84
2, 15038, Note_on_c, 0, 80, 0
2, 15040, Note_on_c, 0, 82, 84
2, 15070, Note_on_c, 0, 82, 0
2, 15072, Note_on_c, 0, 80, 84
2, 15102, Note_on_c, 0, 80, 0
2, 15104, Note_on_c, 0, 79, 84
2, 15134, Note_on_c, 0, 79, 0
2, 15136, Note_on_c, 0, 77, 84
2, 15166, Note_on_c, 0, 77, 0
2, 15168, Note_on_c, 0, 75, 84
2, 15198, Note_on_c, 0, 75, 0
2, 15200, Note_on_c, 0, 74, 84
2, 15230, Note_on_c, 0, 74, 0
2, 15232, Note_on_c, 0, 72, 84
2, 15262, Note_on_c, 0, 72, 0
2, 15264, Note_on_c, 0, 70, 84
2, 15294, Note_on_c, 0, 70, 0
2, 15296, Note_on_c, 0, 68, 84
2, 15326, Note_on_c, 0, 68, 0
2, 15328, Note_on_c, 0, 67, 84
2, 15358, Note_on_c, 0, 67, 0
2, 15360, Note_on_c, 0, 65, 84
2, 15493, Note_on_c, 0, 65, 0
2, 15504, Note_on_c, 0, 72, 84
2, 15549, Note_on_c, 0, 72, 0
2, 15552, Note_on_c, 0, 63, 84
2, 15641, Note_on_c, 0, 63, 0
2, 15648, Note_on_c, 0, 62, 84
2, 15737, Note_on_c, 0, 62, 0
2, 15744, Note_on_c, 0, 75, 100
2, 16032, Note_on_c, 0, 75, 0
2, 16032, Note_on_c, 0, 77, 84
2, 16032, Note_on_c, 0, 74, 84
2, 16121, Note_on_c, 0, 77, 0
2, 16121, Note_on_c, 0, 74, 0
2, 16128, Note_on_c, 0, 79, 100
2, 16128, Note_on_c, 0, 75, 100
2, 16416, Note_on_c, 0, 79, 0
2, 16416, Note_on_c, 0, 75, 0
2, 16416, Note_on_c, 0, 80, 84
2, 16416, Note_on_c, 0, 77, 84
2, 16505, Note_on_c, 0, 80, 0
2, 16505, Note_on_c, 0, 77, 0
2, 16512, Note_on_c, 0, 82, 84
2, 16512, Note_on_c, 0, 79, 84
2, 16542, Note_on_c, 0, 82, 0
2, 16542, Note_on_c, 0, 79, 0
2, 16544, Note_on_c, 0, 80, 84
2, 16544, Note_on_c, 0, 77, 84
2, 16574, Note_on_c, 0, 80, 0
2, 16574, Note_on_c, 0, 77, 0
2, 16576, Note_on_c, 0, 82, 84
2, 16576, Note_on_c, 0, 79, 84
2, 16606, Note_on_c, 0, 82, 0
2, 16606, Note_on_c, 0, 79, 0
2, 16608, Note_on_c, 0, 84, 84
2, 16608, Note_on_c, 0, 80, 84
2, 16638, Note_on_c, 0, 84, 0
2, 16638, Note_on_c, 0, 80, 0
2, 16640, Note_on_c, 0, 82, 84
2, 16640, Note_on_c, 0, 79, 84
2, 16670, Note_on_c, 0, 82, 0
2, 16670, Note_on_c, 0, 79, 0
2, 16672, Note_on_c, 0, 80, 84
2, 16672, Note_on_c, 0, 77, 84
2, 16702, Note_on_c, 0, 80, 0
2, 16702, Note_on_c, 0, 77, 0
2, 16704, Note_on_c, 0, 79, 84
2, 16704, Note_on_c, 0, 75, 84
2, 16793, Note_on_c, 0, 79, 0
2, 16793, Note_on_c, 0, 75, 0
2, 16800, Note_on_c, 0, 77, 84
2, 16800, Note_on_c, 0, 74, 84
2, 16889, Note_on_c, 0, 77, 0
2, 16889, Note_on_c, 0, 74, 0
2, 16896, Note_on_c, 0, 75, 100
2, 17184, Note_on_c, 0, 75, 0
2, 17184, Note_on_c, 0, 77, 84
2, 17184, Note_on_c, 0, 74, 84
2, 17273, Note_on_c, 0, 77, 0
2, 17273, Note_on_c, 0, 74, 0
2, 17280, Note_on_c, 0, 79, 100
2, 17280, Note_on_c, 0, 75, 100
2, 17568, Note_on_c, 0, 79, 0
2, 17568, Note_on_c, 0, 75, 0
2, 17568, Note_on_c, 0, 80, 84
2, 17568, Note_on_c, 0, 77, 84
2, 17657, Note_on_c, 0, 80, 0
2, 17657, Note_on_c, 0, 77, 0
2, 17664, Note_on_c, 0, 82, 84
2, 17664, Note_on_c, 0, 79, 84
2, 17694, Note_on_c, 0, 82, 0
2, 17694, Note_on_c, 0, 79, 0
2, 17696, Note_on_c, 0, 80, 83
2, 17696, Note_on_c, 0, 77, 83
2, 17726, Note_on_c, 0, 80, 0
2, 17726, Note_on_c, 0, 77, 0
2, 17728, Note_on_c, 0, 82, 82
2, 17728, Note_on_c, 0, 79, 82
2, 17758, Note_on_c, 0, 82, 0
2, 17758, Note_on_c, 0, 79, 0
2, 17760, Note_on_c, 0, 84, 82
2, 17760, Note_on_c, 0, 80, 82
2, 17790, Note_on_c, 0, 84, 0
2, 17790, Note_on_c, 0, 80, 0
2, 17792, Note_on_c, 0, 82, 81
2, 17792, Note_on_c, 0, 79, 81
2, 17822, Note_on_c, 0, 82, 0
2, 17822, Note_on_c, 0, 79, 0
2, 17824, Note_on_c, 0, 80, 80
2, 17824, Note_on_c, 0, 77, 80
2, 17854, Note_on_c, 0, 80, 0
2, 17854, Note_on_c, 0, 77, 0
2, 17856, Note_on_c, 0, 79, 80
2, 17856, Note_on_c, 0, 75, 80
2, 17945, Note_on_c, 0, 79, 0
2, 17945, Note_on_c, 0, 75, 0
2, 17952, Note_on_c, 0, 77, 78
2, 17952, Note_on_c, 0, 74, 78
2, 18041, Note_on_c, 0, 77, 0
2, 18041, Note_on_c, 0, 74, 0
2, 18048, Note_on_c, 0, 75, 76
2, 18313, Note_on_c, 0, 75, 0
2, 18336, Note_on_c, 0, 79, 70
2, 18348, Note_on_c, 0, 79, 0
2, 18348, Note_on_c, 0, 77, 70
2, 18426, Note_on_c, 0, 77, 0
2, 18432, Note_on_c, 0, 75, 70
2, 18521, Note_on_c, 0, 75, 0
2, 18528, Note_on_c, 0, 75, 71
2, 18617, Note_on_c, 0, 75, 0
2, 18624, Note_on_c, 0, 75, 73
2, 18713, Note_on_c, 0, 75, 0
2, 18720, Note_on_c, 0, 80, 75
2, 18732, Note_on_c, 0, 80, 0
2, 18732, Note_on_c, 0, 77, 75
2, 18810, Note_on_c, 0, 77, 0
2, 18816, Note_on_c, 0, 82, 77
2, 18905, Note_on_c, 0, 82, 0
2, 18912, Note_on_c, 0, 82, 75
2, 19001, Note_on_c, 0, 82, 0
2, 19008, Note_on_c, 0, 82, 73
2, 19097, Note_on_c, 0, 82, 0
2, 19104, Note_on_c, 0, 80, 71
2, 19116, Note_on_c, 0, 80, 0
2, 19116, Note_on_c, 0, 77, 71
2, 19194, Note_on_c, 0, 77, 0
2, 19200, Note_on_c, 0, 75, 70
2, 19465, Note_on_c, 0, 75, 0
2, 19488, Note_on_c, 0, 79, 70
2, 19500, Note_on_c, 0, 79, 0
2, 19500, Note_on_c, 0, 77, 70
2, 19578, Note_on_c, 0, 77, 0
2, 19584, Note_on_c, 0, 75, 70
2, 19673, Note_on_c, 0, 75, 0
2, 19680, Note_on_c, 0, 75, 71
2, 19769, Note_on_c, 0, 75, 0
2, 19776, Note_on_c, 0, 75, 73
2, 19865, Note_on_c, 0, 75, 0
2, 19872, Note_on_c, 0, 80, 75
2, 19884, Note_on_c, 0, 80, 0
2, 19884, Note_on_c, 0, 77, 75
2, 19962, Note_on_c, 0, 77, 0
2, 19968, Note_on_c, 0, 82, 77
2, 20057, Note_on_c, 0, 82, 0
2, 20064, Note_on_c, 0, 82, 75
2, 20153, Note_on_c, 0, 82, 0
2, 20160, Note_on_c, 0, 82, 73
2, 20249, Note_on_c, 0, 82, 0
2, 20256, Note_on_c, 0, 80, 71
2, 20268, Note_on_c, 0, 80, 0
2, 20268, Note_on_c, 0, 77, 71
2, 20346, Note_on_c, 0, 77, 0
2, 20352, Note_on_c, 0, 75, 70
2, 20617, Note_on_c, 0, 75, 0
2, 20640, Note_on_c, 0, 79, 70
2, 20652, Note_on_c, 0, 79, 0
2, 20652, Note_on_c, 0, 77, 70
2, 20730, Note_on_c, 0, 77, 0
2, 20736, Note_on_c, 0, 75, 70
2, 20825, Note_on_c, 0, 75, 0
2, 20832, Note_on_c, 0, 82, 56
2, 20832, Note_on_c, 0, 79, 56
2, 20921, Note_on_c, 0, 82, 0
2, 20921, Note_on_c, 0, 79, 0
2, 20928, Note_on_c, 0, 82, 56
2, 20928, Note_on_c, 0, 79, 56
2, 21017, Note_on_c, 0, 82, 0
2, 21017, Note_on_c, 0, 79, 0
2, 21408, Note_on_c, 0, 63, 77
2, 21475, Note_on_c, 0, 63, 0
2, 21480, Note_on_c, 0, 60, 77
2, 21503, Note_on_c, 0, 60, 0
2, 21504, Note_on_c, 0, 68, 77
2, 21571, Note_on_c, 0, 68, 0
2, 21576, Note_on_c, 0, 68, 77
2, 21599, Note_on_c, 0, 68, 0
2, 21600, Note_on_c, 0, 70, 77
2, 21612, Note_on_c, 0, 70, 0
2, 21612, Note_on_c, 0, 68, 77
2, 21624, Note_on_c, 0, 68, 0
2, 21624, Note_on_c, 0, 70, 77
2, 21636, Note_on_c, 0, 70, 0
2, 21636, Note_on_c, 0, 68, 77
2, 21648, Note_on_c, 0, 68, 0
2, 21648, Note_on_c, 0, 67, 77
2, 21672, Note_on_c, 0, 67, 0
2, 21672, Note_on_c, 0, 68, 77
2, 21696, Note_on_c, 0, 68, 0
2, 21696, Note_on_c, 0, 70, 77
2, 21785, Note_on_c, 0, 70, 0
2, 21792, Note_on_c, 0, 63, 77
2, 21859, Note_on_c, 0, 63, 0
2, 21864, Note_on_c, 0, 75, 77
2, 21887, Note_on_c, 0, 75, 0
2, 21888, Note_on_c, 0, 73, 77
2, 22080, Note_on_c, 0, 73, 0
2, 22080, Note_on_c, 0, 72, 77
2, 22100, Note_on_c, 0, 72, 0
2, 22176, Note_on_c, 0, 68, 77
2, 22243, Note_on_c, 0, 68, 0
2, 22248, Note_on_c, 0, 77, 77
2, 22271, Note_on_c, 0, 77, 0
2, 22272, Note_on_c, 0, 75, 77
2, 22464, Note_on_c, 0, 75, 0
2, 22464, Note_on_c, 0, 73, 77
2, 22484, Note_on_c, 0, 73, 0
2, 22560, Note_on_c, 0, 63, 77
2, 22627, Note_on_c, 0, 63, 0
2, 22632, Note_on_c, 0, 75, 77
2, 22655, Note_on_c, 0, 75, 0
2, 22656, Note_on_c, 0, 73, 77
2, 22848, Note_on_c, 0, 73, 0
2, 22848, Note_on_c, 0, 72, 77
2, 22868, Note_on_c, 0, 72, 0
2, 22944, Note_on_c, 0, 80, 77
2, 23011, Note_on_c, 0, 80, 0
2, 23016, Note_on_c, 0, 72, 77
2, 23039, Note_on_c, 0, 72, 0
2, 23040, Note_on_c, 0, 70, 77
2, 23107, Note_on_c, 0, 70, 0
2, 23112, Note_on_c, 0, 70, 77
2, 23135, Note_on_c, 0, 70, 0
2, 23136, Note_on_c, 0, 72, 77
2, 23148, Note_on_c, 0, 72, 0
2, 23148, Note_on_c, 0, 70, 77
2, 23160, Note_on_c, 0, 70, 0
2, 23160, Note_on_c, 0, 72, 77
2, 23172, Note_on_c, 0, 72, 0
2, 23172, Note_on_c, 0, 70, 77
2, 23184, Note_on_c, 0, 70, 0
2, 23184, Note_on_c, 0, 69, 77
2, 23208, Note_on_c, 0, 69, 0
2, 23208, Note_on_c, 0, 70, 77
2, 23232, Note_on_c, 0, 70, 0
2, 23232, Note_on_c, 0, 73, 77
2, 23299, Note_on_c, 0, 73, 0
2, 23304, Note_on_c, 0, 70, 77
2, 23327, Note_on_c, 0, 70, 0
2, 23328, Note_on_c, 0, 67, 77
2, 23395, Note_on_c, 0, 67, 0
2, 23400, Note_on_c, 0, 63, 77
2, 23423, Note_on_c, 0, 63, 0
2, 23424, Note_on_c, 0, 68, 77
2, 23463, Note_on_c, 0, 68, 0
2, 23712, Note_on_c, 0, 63, 77
2, 23779, Note_on_c, 0, 63, 0
2, 23784, Note_on_c, 0, 60, 77
2, 23807, Note_on_c, 0, 60, 0
2, 23808, Note_on_c, 0, 68, 77
2, 23875, Note_on_c, 0, 68, 0
2, 23880, Note_on_c, 0, 68, 77
2, 23903, Note_on_c, 0, 68, 0
2, 23904, Note_on_c, 0, 70, 77
2, 23916, Note_on_c, 0, 70, 0
2, 23916, Note_on_c, 0, 68, 77
2, 23928, Note_on_c, 0, 68, 0
2, 23928, Note_on_c, 0, 70, 77
2, 23940, Note_on_c, 0, 70, 0
2, 23940, Note_on_c, 0, 68, 77
2, 23952, Note_on_c, 0, 68, 0
2, 23952, Note_on_c, 0, 67, 77
2, 23976, Note_on_c, 0, 67, 0
2, 23976, Note_on_c, 0, 68, 77
2, 24000, Note_on_c, 0, 68, 0
2, 24000, Note_on_c, 0, 70, 77
2, 24089, Note_on_c, 0, 70, 0
2, 24096, Note_on_c, 0, 63, 77
2, 24163, Note_on_c, 0, 63, 0
2, 24168, Note_on_c, 0, 75, 77
2, 24191, Note_on_c, 0, 75, 0
2, 24192, Note_on_c, 0, 73, 77
2, 24384, Note_on_c, 0, 73, 0
2, 24384, Note_on_c, 0, 72, 77
2, 24429, Note_on_c, 0, 72, 0
2, 24480, Note_on_c, 0, 68, 77
2, 24547, Note_on_c, 0, 68, 0
2, 24552, Note_on_c, 0, 80, 77
2, 24575, Note_on_c, 0, 80, 0
2, 24576, Note_on_c, 0, 79, 77
2, 24672, Note_on_c, 0, 79, 0
2, 24672, Note_on_c, 0, 77, 77
2, 24701, Note_on_c, 0, 77, 0
2, 24744, Note_on_c, 0, 80, 77
2, 24767, Note_on_c, 0, 80, 0
2, 24768, Note_on_c, 0, 77, 77
2, 24864, Note_on_c, 0, 77, 0
2, 24864, Note_on_c, 0, 75, 77
2, 24893, Note_on_c, 0, 75, 0
2, 24936, Note_on_c, 0, 80, 77
2, 24959, Note_on_c, 0, 80, 0
2, 24960, Note_on_c, 0, 75, 77
2, 25056, Note_on_c, 0, 75, 0
2, 25056, Note_on_c, 0, 73, 77
2, 25085, Note_on_c, 0, 73, 0
2, 25128, Note_on_c, 0, 80, 77
2, 25151, Note_on_c, 0, 80, 0
2, 25152, Note_on_c, 0, 73, 77
2, 25248, Note_on_c, 0, 73, 0
2, 25248, Note_on_c, 0, 72, 77
2, 25277, Note_on_c, 0, 72, 0
2, 25320, Note_on_c, 0, 80, 77
2, 25343, Note_on_c, 0, 80, 0
2, 25344, Note_on_c, 0, 72, 77
2, 25411, Note_on_c, 0, 72, 0
2, 25416, Note_on_c, 0, 70, 80
2, 25439, Note_on_c, 0, 70, 0
2, 25440, Note_on_c, 0, 73, 81
2, 25507, Note_on_c, 0, 73, 0
2, 25512, Note_on_c, 0, 77, 84
2, 25535, Note_on_c, 0, 77, 0
2, 25536, Note_on_c, 0, 75, 83
2, 25625, Note_on_c, 0, 75, 0
2, 25632, Note_on_c, 0, 67, 80
2, 25721, Note_on_c, 0, 67, 0
2, 25728, Note_on_c, 0, 67, 77
2, 25740, Note_on_c, 0, 67, 0
2, 25740, Note_on_c, 0, 68, 77
2, 25818, Note_on_c, 0, 68, 0
2, 25824, Note_on_c, 0, 67, 77
2, 25836, Note_on_c, 0, 67, 0
2, 25836, Note_on_c, 0, 68, 77
2, 25914, Note_on_c, 0, 68, 0
2, 25920, Note_on_c, 0, 67, 77
2, 25932, Note_on_c, 0, 67, 0
2, 25932, Note_on_c, 0, 68, 77
2, 26010, Note_on_c, 0, 68, 0
2, 26016, Note_on_c, 0, 69, 77
2, 26028, Note_on_c, 0, 69, 0
2, 26028, Note_on_c, 0, 70, 77
2, 26106, Note_on_c, 0, 70, 0
2, 26112, Note_on_c, 0, 71, 77
2, 26124, Note_on_c, 0, 71, 0
2, 26124, Note_on_c, 0, 72, 77
2, 26304, Note_on_c, 0, 72, 0
2, 26304, Note_on_c, 0, 68, 77
2, 26481, Note_on_c, 0, 68, 0
2, 26496, Note_on_c, 0, 71, 77
2, 26508, Note_on_c, 0, 71, 0
2, 26508, Note_on_c, 0, 72, 77
2, 26586, Note_on_c, 0, 72, 0
2, 26592, Note_on_c, 0, 71, 77
2, 26604, Note_on_c, 0, 71, 0
2, 26604, Note_on_c, 0, 72, 77
2, 26682, Note_on_c, 0, 72, 0
2, 26688, Note_on_c, 0, 71, 77
2, 26700, Note_on_c, 0, 71, 0
2, 26700, Note_on_c, 0, 72, 77
2, 26778, Note_on_c, 0, 72, 0
2, 26784, Note_on_c, 0, 75, 77
2, 26807, Note_on_c, 0, 75, 0
2, 26808, Note_on_c, 0, 73, 77
2, 26831, Note_on_c, 0, 73, 0
2, 26832, Note_on_c, 0, 72, 77
2, 26855, Note_on_c, 0, 72, 0
2, 26856, Note_on_c, 0, 73, 77
2, 26879, Note_on_c, 0, 73, 0
2, 26880, Note_on_c, 0, 75, 77
2, 27072, Note_on_c, 0, 75, 0
2, 27072, Note_on_c, 0, 72, 77
2, 27249, Note_on_c, 0, 72, 0
2, 27264, Note_on_c, 0, 80, 77
2, 27353, Note_on_c, 0, 80, 0
2, 27360, Note_on_c, 0, 80, 77
2, 27390, Note_on_c, 0, 80, 0
2, 27392, Note_on_c, 0, 84, 77
2, 27422, Note_on_c, 0, 84, 0
2, 27424, Note_on_c, 0, 87, 77
2, 27454, Note_on_c, 0, 87, 0
2, 27456, Note_on_c, 0, 78, 93
2, 27648, Note_on_c, 0, 78, 0
2, 27648, Note_on_c, 0, 77, 77
2, 27737, Note_on_c, 0, 77, 0
2, 27744, Note_on_c, 0, 77, 77
2, 27774, Note_on_c, 0, 77, 0
2, 27776, Note_on_c, 0, 82, 77
2, 27806, Note_on_c, 0, 82, 0
2, 27808, Note_on_c, 0, 85, 77
2, 27838, Note_on_c, 0, 85, 0
2, 27840, Note_on_c, 0, 75, 93
2, 27984, Note_on_c, 0, 75, 0
2, 27984, Note_on_c, 0, 77, 77
2, 28007, Note_on_c, 0, 77, 0
2, 28008, Note_on_c, 0, 79, 77
2, 28031, Note_on_c, 0, 79, 0
2, 28032, Note_on_c, 0, 80, 77
2, 28121, Note_on_c, 0, 80, 0
2, 28128, Note_on_c, 0, 80, 77
2, 28158, Note_on_c, 0, 80, 0
2, 28160, Note_on_c, 0, 82, 77
2, 28190, Note_on_c, 0, 82, 0
2, 28192, Note_on_c, 0, 84, 77
2, 28222, Note_on_c, 0, 84, 0
2, 28224, Note_on_c, 0, 73, 93
2, 28416, Note_on_c, 0, 73, 0
2, 28416, Note_on_c, 0, 72, 77
2, 28446, Note_on_c, 0, 72, 0
2, 28448, Note_on_c, 0, 75, 77
2, 28478, Note_on_c, 0, 75, 0
2, 28480, Note_on_c, 0, 73, 77
2, 28510, Note_on_c, 0, 73, 0
2, 28512, Note_on_c, 0, 72, 77
2, 28542, Note_on_c, 0, 72, 0
2, 28544, Note_on_c, 0, 84, 77
2, 28574, Note_on_c, 0, 84, 0
2, 28576, Note_on_c, 0, 82, 77
2, 28606, Note_on_c, 0, 82, 0
2, 28608, Note_on_c, 0, 80, 77
2, 28638, Note_on_c, 0, 80, 0
2, 28640, Note_on_c, 0, 79, 77
2, 28670, Note_on_c, 0, 79, 0
2, 28672, Note_on_c, 0, 77, 77
2, 28702, Note_on_c, 0, 77, 0
2, 28704, Note_on_c, 0, 75, 77
2, 28734, Note_on_c, 0, 75, 0
2, 28736, Note_on_c, 0, 73, 77
2, 28766, Note_on_c, 0, 73, 0
2, 28768, Note_on_c, 0, 72, 77
2, 28798, Note_on_c, 0, 72, 0
2, 28800, Note_on_c, 0, 75, 77
2, 28872, Note_on_c, 0, 75, 0
2, 28872, Note_on_c, 0, 72, 77
2, 28895, Note_on_c, 0, 72, 0
2, 28896, Note_on_c, 0, 70, 77
2, 28935, Note_on_c, 0, 70, 0
2, 29088, Note_on_c, 0, 70, 77
2, 29155, Note_on_c, 0, 70, 0
2, 29160, Note_on_c, 0, 67, 77
2, 29183, Note_on_c, 0, 67, 0
2, 29184, Note_on_c, 0, 75, 70
2, 29251, Note_on_c, 0, 75, 0
2, 29256, Note_on_c, 0, 75, 70
2, 29279, Note_on_c, 0, 75, 0
2, 29280, Note_on_c, 0, 77, 70
2, 29292, Note_on_c, 0, 77, 0
2, 29292, Note_on_c, 0, 75, 71
2, 29304, Note_on_c, 0, 75, 0
2, 29304, Note_on_c, 0, 77, 71
2, 29316, Note_on_c, 0, 77, 0
2, 29316, Note_on_c, 0, 75, 71
2, 29328, Note_on_c, 0, 75, 0
2, 29328, Note_on_c, 0, 74, 71
2, 29352, Note_on_c, 0, 74, 0
2, 29352, Note_on_c, 0, 75, 71
2, 29376, Note_on_c, 0, 75, 0
2, 29376, Note_on_c, 0, 77, 71
2, 29396, Note_on_c, 0, 77, 0
2, 29472, Note_on_c, 0, 74, 72
2, 29539, Note_on_c, 0, 74, 0
2, 29544, Note_on_c, 0, 70, 73
2, 29567, Note_on_c, 0, 70, 0
2, 29568, Note_on_c, 0, 77, 73
2, 29635, Note_on_c, 0, 77, 0
2, 29640, Note_on_c, 0, 77, 74
2, 29663, Note_on_c, 0, 77, 0
2, 29664, Note_on_c, 0, 79, 74
2, 29676, Note_on_c, 0, 79, 0
2, 29676, Note_on_c, 0, 77, 74
2, 29688, Note_on_c, 0, 77, 0
2, 29688, Note_on_c, 0, 79, 74
2, 29700, Note_on_c, 0, 79, 0
2, 29700, Note_on_c, 0, 77, 75
2, 29712, Note_on_c, 0, 77, 0
2, 29712, Note_on_c, 0, 75, 75
2, 29736, Note_on_c, 0, 75, 0
2, 29736, Note_on_c, 0, 77, 75
2, 29760, Note_on_c, 0, 77, 0
2, 29760, Note_on_c, 0, 79, 75
2, 29789, Note_on_c, 0, 79, 0
2, 29832, Note_on_c, 0, 79, 76
2, 29855, Note_on_c, 0, 79, 0
2, 29856, Note_on_c, 0, 80, 76
2, 29868, Note_on_c, 0, 80, 0
2, 29868, Note_on_c, 0, 79, 76
2, 29880, Note_on_c, 0, 79, 0
2, 29880, Note_on_c, 0, 80, 76
2, 29892, Note_on_c, 0, 80, 0
2, 29892, Note_on_c, 0, 79, 76
2, 29904, Note_on_c, 0, 79, 0
2, 29904, Note_on_c, 0, 77, 77
2, 29928, Note_on_c, 0, 77, 0
2, 29928, Note_on_c, 0, 79, 77
2, 29952, Note_on_c, 0, 79, 0
2, 29952, Note_on_c, 0, 80, 77
2, 29981, Note_on_c, 0, 80, 0
2, 30024, Note_on_c, 0, 80, 78
2, 30047, Note_on_c, 0, 80, 0
2, 30048, Note_on_c, 0, 82, 78
2, 30060, Note_on_c, 0, 82, 0
2, 30060, Note_on_c, 0, 80, 78
2, 30072, Note_on_c, 0, 80, 0
2, 30072, Note_on_c, 0, 82, 78
2, 30084, Note_on_c, 0, 82, 0
2, 30084, Note_on_c, 0, 80, 78
2, 30096, Note_on_c, 0, 80, 0
2, 30096, Note_on_c, 0, 79, 78
2, 30120, Note_on_c, 0, 79, 0
2, 30120, Note_on_c, 0, 80, 79
2, 30144, Note_on_c, 0, 80, 0
2, 30144, Note_on_c, 0, 82, 79
2, 30173, Note_on_c, 0, 82, 0
2, 30216, Note_on_c, 0, 82, 80
2, 30239, Note_on_c, 0, 82, 0
2, 30240, Note_on_c, 0, 84, 80
2, 30252, Note_on_c, 0, 84, 0
2, 30252, Note_on_c, 0, 82, 80
2, 30264, Note_on_c, 0, 82, 0
2, 30264, Note_on_c, 0, 84, 80
2, 30276, Note_on_c, 0, 84, 0
2, 30276, Note_on_c, 0, 82, 80
2, 30288, Note_on_c, 0, 82, 0
2, 30288, Note_on_c, 0, 80, 80
2, 30312, Note_on_c, 0, 80, 0
2, 30312, Note_on_c, 0, 82, 80
2, 30336, Note_on_c, 0, 82, 0
2, 30336, Note_on_c, 0, 84, 81
2, 30601, Note_on_c, 0, 84, 0
2, 30624, Note_on_c, 0, 76, 84
2, 30720, Note_on_c, 0, 76, 0
2, 30720, Note_on_c, 0, 77, 84
2, 30750, Note_on_c, 0, 77, 0
2, 30752, Note_on_c, 0, 80, 84
2, 30782, Note_on_c, 0, 80, 0
2, 30784, Note_on_c, 0, 79, 84
2, 30814, Note_on_c, 0, 79, 0
2, 30816, Note_on_c, 0, 77, 84
2, 30846, Note_on_c, 0, 77, 0
2, 30848, Note_on_c, 0, 84, 84
2, 30878, Note_on_c, 0, 84, 0
2, 30880, Note_on_c, 0, 82, 84
2, 30910, Note_on_c, 0, 82, 0
2, 30912, Note_on_c, 0, 80, 84
2, 30942, Note_on_c, 0, 80, 0
2, 30944, Note_on_c, 0, 79, 84
2, 30974, Note_on_c, 0, 79, 0
2, 30976, Note_on_c, 0, 77, 84
2, 31006, Note_on_c, 0, 77, 0
2, 31008, Note_on_c, 0, 75, 84
2, 31038, Note_on_c, 0, 75, 0
2, 31040, Note_on_c, 0, 74, 84
2, 31070, Note_on_c, 0, 74, 0
2, 31072, Note_on_c, 0, 72, 84
2, 31102, Note_on_c, 0, 72, 0
2, 31104, Note_on_c, 0, 82, 84
2, 31369, Note_on_c, 0, 82, 0
2, 31392, Note_on_c, 0, 74, 84
2, 31488, Note_on_c, 0, 74, 0
2, 31488, Note_on_c, 0, 75, 84
2, 31518, Note_on_c, 0, 75, 0
2, 31520, Note_on_c, 0, 79, 84
2, 31550, Note_on_c, 0, 79, 0
2, 31552, Note_on_c, 0, 77, 84
2, 31582, Note_on_c, 0, 77, 0
2, 31584, Note_on_c, 0, 75, 84
2, 31614, Note_on_c, 0, 75, 0
2, 31616, Note_on_c, 0, 82, 83
2, 31646, Note_on_c, 0, 82, 0
2, 31648, Note_on_c, 0, 80, 83
2, 31678, Note_on_c, 0, 80, 0
2, 31680, Note_on_c, 0, 79, 82
2, 31710, Note_on_c, 0, 79, 0
2, 31712, Note_on_c, 0, 77, 82
2, 31742, Note_on_c, 0, 77, 0
2, 31744, Note_on_c, 0, 75, 82
2, 31774, Note_on_c, 0, 75, 0
2, 31776, Note_on_c, 0, 74, 81
2, 31806, Note_on_c, 0, 74, 0
2, 31808, Note_on_c, 0, 72, 81
2, 31838, Note_on_c, 0, 72, 0
2, 31840, Note_on_c, 0, 70, 81
2, 31870, Note_on_c, 0, 70, 0
2, 31872, Note_on_c, 0, 80, 80
2, 32137, Note_on_c, 0, 80, 0
2, 32160, Note_on_c, 0, 79, 77
2, 32190, Note_on_c, 0, 79, 0
2, 32192, Note_on_c, 0, 77, 77
2, 32222, Note_on_c, 0, 77, 0
2, 32224, Note_on_c, 0, 75, 77
2, 32254, Note_on_c, 0, 75, 0
2, 32256, Note_on_c, 0, 75, 77
2, 32304, Note_on_c, 0, 75, 0
2, 32304, Note_on_c, 0, 74, 77
2, 32349, Note_on_c, 0, 74, 0
2, 32352, Note_on_c, 0, 74, 93
2, 32544, Note_on_c, 0, 74, 0
2, 32544, Note_on_c, 0, 75, 77
2, 32633, Note_on_c, 0, 75, 0
2, 32640, Note_on_c, 0, 77, 77
2, 32670, Note_on_c, 0, 77, 0
2, 32672, Note_on_c, 0, 79, 77
2, 32702, Note_on_c, 0, 79, 0
2, 32704, Note_on_c, 0, 80, 77
2, 32734, Note_on_c, 0, 80, 0
2, 32736, Note_on_c, 0, 80, 93
2, 32928, Note_on_c, 0, 80, 0
2, 32928, Note_on_c, 0, 79, 77
2, 32958, Note_on_c, 0, 79, 0
2, 32960, Note_on_c, 0, 77, 77
2, 32990, Note_on_c, 0, 77, 0
2, 32992, Note_on_c, 0, 75, 77
2, 33022, Note_on_c, 0, 75, 0
2, 33024, Note_on_c, 0, 75, 77
2, 33072, Note_on_c, 0, 75, 0
2, 33072, Note_on_c, 0, 74, 77
2, 33117, Note_on_c, 0, 74, 0
2, 33120, Note_on_c, 0, 74, 93
2, 33312, Note_on_c, 0, 74, 0
2, 33312, Note_on_c, 0, 75, 77
2, 33401, Note_on_c, 0, 75, 0
2, 33408, Note_on_c, 0, 77, 77
2, 33438, Note_on_c, 0, 77, 0
2, 33440, Note_on_c, 0, 79, 77
2, 33470, Note_on_c, 0, 79, 0
2, 33472, Note_on_c, 0, 80, 78
2, 33502, Note_on_c, 0, 80, 0
2, 33504, Note_on_c, 0, 80, 94
2, 33696, Note_on_c, 0, 80, 0
2, 33696, Note_on_c, 0, 79, 81
2, 33785, Note_on_c, 0, 79, 0
2, 33792, Note_on_c, 0, 77, 83
2, 33822, Note_on_c, 0, 77, 0
2, 33824, Note_on_c, 0, 84, 84
2, 33854, Note_on_c, 0, 84, 0
2, 33856, Note_on_c, 0, 82, 84
2, 33886, Note_on_c, 0, 82, 0
2, 33888, Note_on_c, 0, 80, 84
2, 33918, Note_on_c, 0, 80, 0
2, 33920, Note_on_c, 0, 79, 84
2, 33950, Note_on_c, 0, 79, 0
2, 33952, Note_on_c, 0, 77, 84
2, 33982, Note_on_c, 0, 77, 0
2, 33984, Note_on_c, 0, 75, 84
2, 34080, Note_on_c, 0, 75, 0
2, 34080, Note_on_c, 0, 74, 79
2, 34169, Note_on_c, 0, 74, 0
2, 34176, Note_on_c, 0, 74, 75
2, 34309, Note_on_c, 0, 74, 0
2, 34320, Note_on_c, 0, 75, 69
2, 34343, Note_on_c, 0, 75, 0
2, 34344, Note_on_c, 0, 77, 68
2, 34367, Note_on_c, 0, 77, 0
2, 34368, Note_on_c, 0, 75, 67
2, 34457, Note_on_c, 0, 75, 0
2, 34560, Note_on_c, 0, 56, 100
2, 34782, Note_on_c, 0, 56, 0
2, 34784, Note_on_c, 0, 60, 84
2, 34814, Note_on_c, 0, 60, 0
2, 34816, Note_on_c, 0, 58, 84
2, 34846, Note_on_c, 0, 58, 0
2, 34848, Note_on_c, 0, 56, 84
2, 34861, Note_on_c, 0, 56, 0
2, 34880, Note_on_c, 0, 56, 84
2, 34893, Note_on_c, 0, 56, 0
2, 34912, Note_on_c, 0, 56, 84
2, 34925, Note_on_c, 0, 56, 0
2, 34944, Note_on_c, 0, 56, 100
2, 35166, Note_on_c, 0, 56, 0
2, 35168, Note_on_c, 0, 65, 84
2, 35198, Note_on_c, 0, 65, 0
2, 35200, Note_on_c, 0, 62, 84
2, 35230, Note_on_c, 0, 62, 0
2, 35232, Note_on_c, 0, 56, 84
2, 35245, Note_on_c, 0, 56, 0
2, 35264, Note_on_c, 0, 56, 84
2, 35277, Note_on_c, 0, 56, 0
2, 35296, Note_on_c, 0, 56, 84
2, 35309, Note_on_c, 0, 56, 0
2, 35328, Note_on_c, 0, 55, 84
2, 35358, Note_on_c, 0, 55, 0
2, 35360, Note_on_c, 0, 58, 84
2, 35390, Note_on_c, 0, 58, 0
2, 35392, Note_on_c, 0, 63, 84
2, 35405, Note_on_c, 0, 63, 0
2, 35424, Note_on_c, 0, 63, 84
2, 35437, Note_on_c, 0, 63, 0
2, 35456, Note_on_c, 0, 63, 84
2, 35469, Note_on_c, 0, 63, 0
2, 35488, Note_on_c, 0, 63, 84
2, 35501, Note_on_c, 0, 63, 0
2, 35520, Note_on_c, 0, 62, 84
2, 35550, Note_on_c, 0, 62, 0
2, 35552, Note_on_c, 0, 65, 84
2, 35582, Note_on_c, 0, 65, 0
2, 35584, Note_on_c, 0, 68, 84
2, 35614, Note_on_c, 0, 68, 0
2, 35616, Note_on_c, 0, 68, 84
2, 35629, Note_on_c, 0, 68, 0
2, 35648, Note_on_c, 0, 68, 84
2, 35661, Note_on_c, 0, 68, 0
2, 35680, Note_on_c, 0, 68, 84
2, 35693, Note_on_c, 0, 68, 0
2, 35712, Note_on_c, 0, 67, 84
2, 35742, Note_on_c, 0, 67, 0
2, 35744, Note_on_c, 0, 70, 84
2, 35774, Note_on_c, 0, 70, 0
2, 35776, Note_on_c, 0, 75, 84
2, 35789, Note_on_c, 0, 75, 0
2, 35808, Note_on_c, 0, 75, 84
2, 35821, Note_on_c, 0, 75, 0
2, 35840, Note_on_c, 0, 75, 84
2, 35853, Note_on_c, 0, 75, 0
2, 35872, Note_on_c, 0, 75, 84
2, 35885, Note_on_c, 0, 75, 0
2, 35904, Note_on_c, 0, 74, 84
2, 35934, Note_on_c, 0, 74, 0
2, 35936, Note_on_c, 0, 77, 84
2, 35966, Note_on_c, 0, 77, 0
2, 35968, Note_on_c, 0, 80, 84
2, 35998, Note_on_c, 0, 80, 0
2, 36000, Note_on_c, 0, 80, 84
2, 36013, Note_on_c, 0, 80, 0
2, 36032, Note_on_c, 0, 80, 84
2, 36045, Note_on_c, 0, 80, 0
2, 36064, Note_on_c, 0, 80, 84
2, 36077, Note_on_c, 0, 80, 0
2, 36096, Note_on_c, 0, 79, 84
2, 36126, Note_on_c, 0, 79, 0
2, 36128, Note_on_c, 0, 80, 84
2, 36158, Note_on_c, 0, 80, 0
2, 36160, Note_on_c, 0, 82, 84
2, 36190, Note_on_c, 0, 82, 0
2, 36192, Note_on_c, 0, 80, 84
2, 36222, Note_on_c, 0, 80, 0
2, 36224, Note_on_c, 0, 79, 84
2, 36254, Note_on_c, 0, 79, 0
2, 36256, Note_on_c, 0, 77, 84
2, 36286, Note_on_c, 0, 77, 0
2, 36288, Note_on_c, 0, 75, 84
2, 36318, Note_on_c, 0, 75, 0
2, 36320, Note_on_c, 0, 74, 84
2, 36350, Note_on_c, 0, 74, 0
2, 36352, Note_on_c, 0, 72, 84
2, 36382, Note_on_c, 0, 72, 0
2, 36384, Note_on_c, 0, 70, 84
2, 36414, Note_on_c, 0, 70, 0
2, 36416, Note_on_c, 0, 68, 84
2, 36446, Note_on_c, 0, 68, 0
2, 36448, Note_on_c, 0, 67, 84
2, 36478, Note_on_c, 0, 67, 0
2, 36480, Note_on_c, 0, 65, 84
2, 36613, Note_on_c, 0, 65, 0
2, 36624, Note_on_c, 0, 72, 84
2, 36669, Note_on_c, 0, 72, 0
2, 36672, Note_on_c, 0, 63, 84
2, 36761, Note_on_c, 0, 63, 0
2, 36768, Note_on_c, 0, 62, 84
2, 36857, Note_on_c, 0, 62, 0
2, 36864, Note_on_c, 0, 75, 100
2, 37152, Note_on_c, 0, 75, 0
2, 37152, Note_on_c, 0, 77, 84
2, 37152, Note_on_c, 0, 74, 84
2, 37241, Note_on_c, 0, 77, 0
2, 37241, Note_on_c, 0, 74, 0
2, 37248, Note_on_c, 0, 79, 100
2, 37248, Note_on_c, 0, 75, 100
2, 37536, Note_on_c, 0, 79, 0
2, 37536, Note_on_c, 0, 75, 0
2, 37536, Note_on_c, 0, 80, 84
2, 37536, Note_on_c, 0, 77, 84
2, 37625, Note_on_c, 0, 80, 0
2, 37625, Note_on_c, 0, 77, 0
2, 37632, Note_on_c, 0, 82, 84
2, 37632, Note_on_c, 0, 79, 84
2, 37662, Note_on_c, 0, 82, 0
2, 37662, Note_on_c, 0, 79, 0
2, 37664, Note_on_c, 0, 80, 84
2, 37664, Note_on_c, 0, 77, 84
2, 37694, Note_on_c, 0, 80, 0
2, 37694, Note_on_c, 0, 77, 0
2, 37696, Note_on_c, 0, 82, 84
2, 37696, Note_on_c, 0, 79, 84
2, 37726, Note_on_c, 0, 82, 0
2, 37726, Note_on_c, 0, 79, 0
2, 37728, Note_on_c, 0, 84, 84
2, 37728, Note_on_c, 0, 80, 84
2, 37758, Note_on_c, 0, 84, 0
2, 37758, Note_on_c, 0, 80, 0
2, 37760, Note_on_c, 0, 82, 84
2, 37760, Note_on_c, 0, 79, 84
2, 37790, Note_on_c, 0, 82, 0
2, 37790, Note_on_c, 0, 79, 0
2, 37792, Note_on_c, 0, 80, 84
2, 37792, Note_on_c, 0, 77, 84
2, 37822, Note_on_c, 0, 80, 0
2, 37822, Note_on_c, 0, 77, 0
2, 37824, Note_on_c, 0, 79, 84
2, 37824, Note_on_c, 0, 75, 84
2, 37913, Note_on_c, 0, 79, 0
2, 37913, Note_on_c, 0, 75, 0
2, 37920, Note_on_c, 0, 77, 84
2, 37920, Note_on_c, 0, 74, 84
2, 38009, Note_on_c, 0, 77, 0
2, 38009, Note_on_c, 0, 74, 0
2, 38016, Note_on_c, 0, 75, 100
2, 38304, Note_on_c, 0, 75, 0
2, 38304, Note_on_c, 0, 77, 84
2, 38304, Note_on_c, 0, 74, 84
2, 38393, Note_on_c, 0, 77, 0
2, 38393, Note_on_c, 0, 74, 0
2, 38400, Note_on_c, 0, 79, 100
2, 38400, Note_on_c, 0, 75, 100
2, 38688, Note_on_c, 0, 79, 0
2, 38688, Note_on_c, 0, 75, 0
2, 38688, Note_on_c, 0, 80, 84
2, 38688, Note_on_c, 0, 77, 84
2, 38777, Note_on_c, 0, 80, 0
2, 38777, Note_on_c, 0, 77, 0
2, 38784, Note_on_c, 0, 82, 84
2, 38784, Note_on_c, 0, 79, 84
2, 38814, Note_on_c, 0, 82, 0
2, 38814, Note_on_c, 0, 79, 0
2, 38816, Note_on_c, 0, 80, 83
2, 38816, Note_on_c, 0, 77, 83
2, 38846, Note_on_c, 0, 80, 0
2, 38846, Note_on_c, 0, 77, 0
2, 38848, Note_on_c, 0, 82, 82
2, 38848, Note_on_c, 0, 79, 82
2, 38878, Note_on_c, 0, 82, 0
2, 38878, Note_on_c, 0, 79, 0
2, 38880, Note_on_c, 0, 84, 82
2, 38880, Note_on_c, 0, 80, 82
2, 38910, Note_on_c, 0, 84, 0
2, 38910, Note_on_c, 0, 80, 0
2, 38912, Note_on_c, 0, 82, 81
2, 38912, Note_on_c, 0, 79, 81
2, 38942, Note_on_c, 0, 82, 0
2, 38942, Note_on_c, 0, 79, 0
2, 38944, Note_on_c, 0, 80, 80
2, 38944, Note_on_c, 0, 77, 80
2, 38974, Note_on_c, 0, 80, 0
2, 38974, Note_on_c, 0, 77, 0
2, 38976, Note_on_c, 0, 79, 80
2, 38976, Note_on_c, 0, 75, 80
2, 39065, Note_on_c, 0, 79, 0
2, 39065, Note_on_c, 0, 75, 0
2, 39072, Note_on_c, 0, 77, 78
2, 39072, Note_on_c, 0, 74, 78
2, 39161, Note_on_c, 0, 77, 0
2, 39161, Note_on_c, 0, 74, 0
2, 39168, Note_on_c, 0, 75, 76
2, 39433, Note_on_c, 0, 75, 0
2, 39456, Note_on_c, 0, 79, 70
2, 39468, Note_on_c, 0, 79, 0
2, 39468, Note_on_c, 0, 77, 70
2, 39546, Note_on_c, 0, 77, 0
2, 39552, Note_on_c, 0, 75, 70
2, 39641, Note_on_c, 0, 75, 0
2, 39648, Note_on_c, 0, 75, 71
2, 39737, Note_on_c, 0, 75, 0
2, 39744, Note_on_c, 0, 75, 73
2, 39833, Note_on_c, 0, 75, 0
2, 39840, Note_on_c, 0, 80, 75
2, 39852, Note_on_c, 0, 80, 0
2, 39852, Note_on_c, 0, 77, 75
2, 39930, Note_on_c, 0, 77, 0
2, 39936, Note_on_c, 0, 82, 77
2, 40025, Note_on_c, 0, 82, 0
2, 40032, Note_on_c, 0, 82, 75
2, 40121, Note_on_c, 0, 82, 0
2, 40128, Note_on_c, 0, 82, 73
2, 40217, Note_on_c, 0, 82, 0
2, 40224, Note_on_c, 0, 80, 71
2, 40236, Note_on_c, 0, 80, 0
2, 40236, Note_on_c, 0, 77, 71
2, 40314, Note_on_c, 0, 77, 0
2, 40320, Note_on_c, 0, 75, 70
2, 40585, Note_on_c, 0, 75, 0
2, 40608, Note_on_c, 0, 79, 70
2, 40620, Note_on_c, 0, 79, 0
2, 40620, Note_on_c, 0, 77, 70
2, 40698, Note_on_c, 0, 77, 0
2, 40704, Note_on_c, 0, 75, 70
2, 40793, Note_on_c, 0, 75, 0
2, 40800, Note_on_c, 0, 75, 71
2, 40889, Note_on_c, 0, 75, 0
2, 40896, Note_on_c, 0, 75, 73
2, 40985, Note_on_c, 0, 75, 0
2, 40992, Note_on_c, 0, 80, 75
2, 41004, Note_on_c, 0, 80, 0
2, 41004, Note_on_c, 0, 77, 75
2, 41082, Note_on_c, 0, 77, 0
2, 41088, Note_on_c, 0, 82, 77
2, 41177, Note_on_c, 0, 82, 0
2, 41184, Note_on_c, 0, 82, 75
2, 41273, Note_on_c, 0, 82, 0
2, 41280, Note_on_c, 0, 82, 73
2, 41369, Note_on_c, 0, 82, 0
2, 41376, Note_on_c, 0, 80, 71
2, 41388, Note_on_c, 0, 80, 0
2, 41388, Note_on_c, 0, 77, 71
2, 41466, Note_on_c, 0, 77, 0
2, 41472, Note_on_c, 0, 75, 70
2, 41737, Note_on_c, 0, 75, 0
2, 41760, Note_on_c, 0, 79, 70
2, 41772, Note_on_c, 0, 79, 0
2, 41772, Note_on_c, 0, 77, 70
2, 41850, Note_on_c, 0, 77, 0
2, 41856, Note_on_c, 0, 75, 70
2, 41945, Note_on_c, 0, 75, 0
2, 41952, Note_on_c, 0, 82, 56
2, 41952, Note_on_c, 0, 79, 56
2, 42041, Note_on_c, 0, 82, 0
2, 42041, Note_on_c, 0, 79, 0
2, 42048, Note_on_c, 0, 82, 56
2, 42048, Note_on_c, 0, 79, 56
2, 42137, Note_on_c, 0, 82, 0
2, 42137, Note_on_c, 0, 79, 0
2, 42528, Note_on_c, 0, 58, 77
2, 42595, Note_on_c, 0, 58, 0
2, 42600, Note_on_c, 0, 55, 77
2, 42623, Note_on_c, 0, 55, 0
2, 42624, Note_on_c, 0, 63, 77
2, 42691, Note_on_c, 0, 63, 0
2, 42696, Note_on_c, 0, 63, 77
2, 42719, Note_on_c, 0, 63, 0
2, 42720, Note_on_c, 0, 65, 77
2, 42732, Note_on_c, 0, 65, 0
2, 42732, Note_on_c, 0, 63, 77
2, 42744, Note_on_c, 0, 63, 0
2, 42744, Note_on_c, 0, 65, 77
2, 42756, Note_on_c, 0, 65, 0
2, 42756, Note_on_c, 0, 63, 77
2, 42768, Note_on_c, 0, 63, 0
2, 42768, Note_on_c, 0, 62, 77
2, 42792, Note_on_c, 0, 62, 0
2, 42792, Note_on_c, 0, 63, 77
2, 42816, Note_on_c, 0, 63, 0
2, 42816, Note_on_c, 0, 65, 77
2, 42905, Note_on_c, 0, 65, 0
2, 42912, Note_on_c, 0, 58, 77
2, 42979, Note_on_c, 0, 58, 0
2, 42984, Note_on_c, 0, 70, 77
2, 43007, Note_on_c, 0, 70, 0
2, 43008, Note_on_c, 0, 68, 77
2, 43200, Note_on_c, 0, 68, 0
2, 43200, Note_on_c, 0, 67, 77
2, 43220, Note_on_c, 0, 67, 0
2, 43296, Note_on_c, 0, 63, 77
2, 43363, Note_on_c, 0, 63, 0
2, 43368, Note_on_c, 0, 72, 77
2, 43391, Note_on_c, 0, 72, 0
2, 43392, Note_on_c, 0, 70, 77
2, 43584, Note_on_c, 0, 70, 0
2, 43584, Note_on_c, 0, 68, 77
2, 43604, Note_on_c, 0, 68, 0
2, 43680, Note_on_c, 0, 58, 77
2, 43747, Note_on_c, 0, 58, 0
2, 43752, Note_on_c, 0, 70, 77
2, 43775, Note_on_c, 0, 70, 0
2, 43776, Note_on_c, 0, 68, 77
2, 43968, Note_on_c, 0, 68, 0
2, 43968, Note_on_c, 0, 67, 77
2, 43988, Note_on_c, 0, 67, 0
2, 44064, Note_on_c, 0, 75, 77
2, 44131, Note_on_c, 0, 75, 0
2, 44136, Note_on_c, 0, 67, 77
2, 44159, Note_on_c, 0, 67, 0
2, 44160, Note_on_c, 0, 65, 77
2, 44227, Note_on_c, 0, 65, 0
2, 44232, Note_on_c, 0, 65, 77
2, 44255, Note_on_c, 0, 65, 0
2, 44256, Note_on_c, 0, 67, 77
2, 44268, Note_on_c, 0, 67, 0
2, 44268, Note_on_c, 0, 65, 77
2, 44280, Note_on_c, 0, 65, 0
2, 44280, Note_on_c, 0, 67, 77
2, 44292, Note_on_c, 0, 67, 0
2, 44292, Note_on_c, 0, 65, 77
2, 44304, Note_on_c, 0, 65, 0
2, 44304, Note_on_c, 0, 64, 77
2, 44328, Note_on_c, 0, 64, 0
2, 44328, Note_on_c, 0, 65, 77
2, 44352, Note_on_c, 0, 65, 0
2, 44352, Note_on_c, 0, 68, 77
2, 44419, Note_on_c, 0, 68, 0
2, 44424, Note_on_c, 0, 65, 77
2, 44447, Note_on_c, 0, 65, 0
2, 44448, Note_on_c, 0, 62, 77
2, 44515, Note_on_c, 0, 62, 0
2, 44520, Note_on_c, 0, 58, 77
2, 44543, Note_on_c, 0, 58, 0
2, 44544, Note_on_c, 0, 63, 77
2, 44633, Note_on_c, 0, 63, 0
2, 44808, Note_on_c, 0, 67, 77
2, 44831, Note_on_c, 0, 67, 0
2, 44832, Note_on_c, 0, 70, 77
2, 44899, Note_on_c, 0, 70, 0
2, 44904, Note_on_c, 0, 75, 78
2, 44927, Note_on_c, 0, 75, 0
2, 44928, Note_on_c, 0, 79, 78
2, 44995, Note_on_c, 0, 79, 0
2, 45000, Note_on_c, 0, 70, 79
2, 45023, Note_on_c, 0, 70, 0
2, 45024, Note_on_c, 0, 75, 79
2, 45091, Note_on_c, 0, 75, 0
2, 45096, Note_on_c, 0, 79, 80
2, 45119, Note_on_c, 0, 79, 0
2, 45120, Note_on_c, 0, 82, 81
2, 45187, Note_on_c, 0, 82, 0
2, 45192, Note_on_c, 0, 75, 82
2, 45215, Note_on_c, 0, 75, 0
2, 45216, Note_on_c, 0, 79, 82
2, 45283, Note_on_c, 0, 79, 0
2, 45288, Note_on_c, 0, 82, 83
2, 45311, Note_on_c, 0, 82, 0
2, 45312, Note_on_c, 0, 85, 100
2, 45504, Note_on_c, 0, 85, 0
2, 45504, Note_on_c, 0, 85, 84
2, 45518, Note_on_c, 0, 85, 0
2, 45519, Note_on_c, 0, 84, 83
2, 45533, Note_on_c, 0, 84, 0
2, 45534, Note_on_c, 0, 85, 83
2, 45548, Note_on_c, 0, 85, 0
2, 45549, Note_on_c, 0, 84, 82
2, 45563, Note_on_c, 0, 84, 0
2, 45564, Note_on_c, 0, 85, 82
2, 45578, Note_on_c, 0, 85, 0
2, 45579, Note_on_c, 0, 84, 81
2, 45593, Note_on_c, 0, 84, 0
2, 45594, Note_on_c, 0, 85, 81
2, 45608, Note_on_c, 0, 85, 0
2, 45609, Note_on_c, 0, 84, 80
2, 45623, Note_on_c, 0, 84, 0
2, 45624, Note_on_c, 0, 85, 80
2, 45638, Note_on_c, 0, 85, 0
2, 45639, Note_on_c, 0, 84, 80
2, 45653, Note_on_c, 0, 84, 0
2, 45654, Note_on_c, 0, 82, 79
2, 45695, Note_on_c, 0, 82, 0
2, 45696, Note_on_c, 0, 80, 77
2, 45785, Note_on_c, 0, 80, 0
2, 45792, Note_on_c, 0, 77, 77
2, 45881, Note_on_c, 0, 77, 0
2, 45888, Note_on_c, 0, 77, 77
2, 45977, Note_on_c, 0, 77, 0
2, 45984, Note_on_c, 0, 79, 77
2, 46073, Note_on_c, 0, 79, 0
2, 46080, Note_on_c, 0, 79, 77
2, 46092, Note_on_c, 0, 79, 0
2, 46092, Note_on_c, 0, 80, 77
2, 46272, Note_on_c, 0, 80, 0
2, 46272, Note_on_c, 0, 77, 77
2, 46449, Note_on_c, 0, 77, 0
2, 46464, Note_on_c, 0, 80, 77
2, 46553, Note_on_c, 0, 80, 0
2, 46560, Note_on_c, 0, 80, 79
2, 46649, Note_on_c, 0, 80, 0
2, 46656, Note_on_c, 0, 80, 81
2, 46723, Note_on_c, 0, 80, 0
2, 46728, Note_on_c, 0, 84, 83
2, 46751, Note_on_c, 0, 84, 0
2, 46752, Note_on_c, 0, 85, 84
2, 46764, Note_on_c, 0, 85, 0
2, 46764, Note_on_c, 0, 84, 84
2, 46776, Note_on_c, 0, 84, 0
2, 46776, Note_on_c, 0, 85, 84
2, 46788, Note_on_c, 0, 85, 0
2, 46788, Note_on_c, 0, 84, 84
2, 46800, Note_on_c, 0, 84, 0
2, 46800, Note_on_c, 0, 82, 84
2, 46824, Note_on_c, 0, 82, 0
2, 46824, Note_on_c, 0, 84, 84
2, 46848, Note_on_c, 0, 84, 0
2, 46848, Note_on_c, 0, 85, 84
2, 47040, Note_on_c, 0, 85, 0
2, 47040, Note_on_c, 0, 73, 80
2, 47217, Note_on_c, 0, 73, 0
2, 47232, Note_on_c, 0, 82, 77
2, 47321, Note_on_c, 0, 82, 0
2, 47328, Note_on_c, 0, 82, 77
2, 47417, Note_on_c, 0, 82, 0
2, 47424, Note_on_c, 0, 82, 77
2, 47513, Note_on_c, 0, 82, 0
2, 47520, Note_on_c, 0, 82, 77
2, 47532, Note_on_c, 0, 82, 0
2, 47532, Note_on_c, 0, 80, 77
2, 47544, Note_on_c, 0, 80, 0
2, 47544, Note_on_c, 0, 82, 77
2, 47556, Note_on_c, 0, 82, 0
2, 47556, Note_on_c, 0, 80, 77
2, 47568, Note_on_c, 0, 80, 0
2, 47568, Note_on_c, 0, 79, 77
2, 47592, Note_on_c, 0, 79, 0
2, 47592, Note_on_c, 0, 80, 77
2, 47616, Note_on_c, 0, 80, 0
2, 47616, Note_on_c, 0, 79, 77
2, 47808, Note_on_c, 0, 79, 0
2, 47808, Note_on_c, 0, 75, 77
2, 47985, Note_on_c, 0, 75, 0
2, 48000, Note_on_c, 0, 74, 77
2, 48089, Note_on_c, 0, 74, 0
2, 48096, Note_on_c, 0, 74, 77
2, 48185, Note_on_c, 0, 74, 0
2, 48192, Note_on_c, 0, 74, 77
2, 48259, Note_on_c, 0, 74, 0
2, 48264, Note_on_c, 0, 74, 78
2, 48287, Note_on_c, 0, 74, 0
2, 48288, Note_on_c, 0, 75, 78
2, 48300, Note_on_c, 0, 75, 0
2, 48300, Note_on_c, 0, 74, 78
2, 48312, Note_on_c, 0, 74, 0
2, 48312, Note_on_c, 0, 75, 78
2, 48324, Note_on_c, 0, 75, 0
2, 48324, Note_on_c, 0, 74, 78
2, 48336, Note_on_c, 0, 74, 0
2, 48336, Note_on_c, 0, 72, 78
2, 48360, Note_on_c, 0, 72, 0
2, 48360, Note_on_c, 0, 74, 78
2, 48384, Note_on_c, 0, 74, 0
2, 48384, Note_on_c, 0, 75, 78
2, 48473, Note_on_c, 0, 75, 0
2, 48480, Note_on_c, 0, 75, 79
2, 48569, Note_on_c, 0, 75, 0
2, 48576, Note_on_c, 0, 75, 80
2, 48643, Note_on_c, 0, 75, 0
2, 48648, Note_on_c, 0, 75, 80
2, 48671, Note_on_c, 0, 75, 0
2, 48672, Note_on_c, 0, 77, 80
2, 48684, Note_on_c, 0, 77, 0
2, 48684, Note_on_c, 0, 75, 80
2, 48696, Note_on_c, 0, 75, 0
2, 48696, Note_on_c, 0, 77, 80
2, 48708, Note_on_c, 0, 77, 0
2, 48708, Note_on_c, 0, 75, 81
2, 48720, Note_on_c, 0, 75, 0
2, 48720, Note_on_c, 0, 74, 81
2, 48744, Note_on_c, 0, 74, 0
2, 48744, Note_on_c, 0, 75, 81
2, 48768, Note_on_c, 0, 75, 0
2, 48768, Note_on_c, 0, 77, 81
2, 48857, Note_on_c, 0, 77, 0
2, 48864, Note_on_c, 0, 77, 82
2, 48953, Note_on_c, 0, 77, 0
2, 48960, Note_on_c, 0, 77, 82
2, 49027, Note_on_c, 0, 77, 0
2, 49032, Note_on_c, 0, 77, 83
2, 49055, Note_on_c, 0, 77, 0
2, 49056, Note_on_c, 0, 78, 83
2, 49068, Note_on_c, 0, 78, 0
2, 49068, Note_on_c, 0, 77, 83
2, 49080, Note_on_c, 0, 77, 0
2, 49080, Note_on_c, 0, 78, 83
2, 49092, Note_on_c, 0, 78, 0
2, 49092, Note_on_c, 0, 77, 83
2, 49104, Note_on_c, 0, 77, 0
2, 49104, Note_on_c, 0, 75, 83
2, 49128, Note_on_c, 0, 75, 0
2, 49128, Note_on_c, 0, 77, 83
2, 49152, Note_on_c, 0, 77, 0
2, 49152, Note_on_c, 0, 78, 84
2, 49241, Note_on_c, 0, 78, 0
2, 49248, Note_on_c, 0, 78, 84
2, 49337, Note_on_c, 0, 78, 0
2, 49344, Note_on_c, 0, 78, 84
2, 49411, Note_on_c, 0, 78, 0
2, 49416, Note_on_c, 0, 78, 84
2, 49439, Note_on_c, 0, 78, 0
2, 49440, Note_on_c, 0, 80, 84
2, 49452, Note_on_c, 0, 80, 0
2, 49452, Note_on_c, 0, 78, 84
2, 49464, Note_on_c, 0, 78, 0
2, 49464, Note_on_c, 0, 80, 84
2, 49476, Note_on_c, 0, 80, 0
2, 49476, Note_on_c, 0, 78, 84
2, 49488, Note_on_c, 0, 78, 0
2, 49488, Note_on_c, 0, 77, 84
2, 49512, Note_on_c, 0, 77, 0
2, 49512, Note_on_c, 0, 78, 84
2, 49536, Note_on_c, 0, 78, 0
2, 49536, Note_on_c, 0, 83, 84
2, 49625, Note_on_c, 0, 83, 0
2, 49632, Note_on_c, 0, 83, 84
2, 49721, Note_on_c, 0, 83, 0
2, 49728, Note_on_c, 0, 83, 85
2, 49795, Note_on_c, 0, 83, 0
2, 49800, Note_on_c, 0, 83, 86
2, 49823, Note_on_c, 0, 83, 0
2, 49824, Note_on_c, 0, 85, 86
2, 49836, Note_on_c, 0, 85, 0
2, 49836, Note_on_c, 0, 83, 86
2, 49848, Note_on_c, 0, 83, 0
2, 49848, Note_on_c, 0, 85, 86
2, 49860, Note_on_c, 0, 85, 0
2, 49860, Note_on_c, 0, 83, 86
2, 49872, Note_on_c, 0, 83, 0
2, 49872, Note_on_c, 0, 82, 86
2, 49896, Note_on_c, 0, 82, 0
2, 49896, Note_on_c, 0, 83, 86
2, 49920, Note_on_c, 0, 83, 0
2, 49920, Note_on_c, 0, 82, 87
2, 50009, Note_on_c, 0, 82, 0
2, 50016, Note_on_c, 0, 82, 87
2, 50105, Note_on_c, 0, 82, 0
2, 50112, Note_on_c, 0, 82, 88
2, 50201, Note_on_c, 0, 82, 0
2, 50208, Note_on_c, 0, 82, 89
2, 50220, Note_on_c, 0, 82, 0
2, 50220, Note_on_c, 0, 80, 89
2, 50232, Note_on_c, 0, 80, 0
2, 50232, Note_on_c, 0, 82, 89
2, 50244, Note_on_c, 0, 82, 0
2, 50244, Note_on_c, 0, 80, 89
2, 50256, Note_on_c, 0, 80, 0
2, 50256, Note_on_c, 0, 79, 89
2, 50280, Note_on_c, 0, 79, 0
2, 50280, Note_on_c, 0, 80, 89
2, 50304, Note_on_c, 0, 80, 0
2, 50304, Note_on_c, 0, 79, 90
2, 50496, Note_on_c, 0, 79, 0
2, 50496, Note_on_c, 0, 75, 91
2, 50673, Note_on_c, 0, 75, 0
2, 50688, Note_on_c, 0, 84, 93
2, 50777, Note_on_c, 0, 84, 0
2, 50784, Note_on_c, 0, 84, 93
2, 50873, Note_on_c, 0, 84, 0
2, 50880, Note_on_c, 0, 84, 93
2, 50969, Note_on_c, 0, 84, 0
2, 50976, Note_on_c, 0, 84, 93
2, 50988, Note_on_c, 0, 84, 0
2, 50988, Note_on_c, 0, 82, 93
2, 51000, Note_on_c, 0, 82, 0
2, 51000, Note_on_c, 0, 84, 93
2, 51012, Note_on_c, 0, 84, 0
2, 51012, Note_on_c, 0, 82, 93
2, 51024, Note_on_c, 0, 82, 0
2, 51024, Note_on_c, 0, 80, 93
2, 51048, Note_on_c, 0, 80, 0
2, 51048, Note_on_c, 0, 82, 93
2, 51072, Note_on_c, 0, 82, 0
2, 51072, Note_on_c, 0, 80, 93
2, 51102, Note_on_c, 0, 80, 0
2, 51104, Note_on_c, 0, 84, 92
2, 51134, Note_on_c, 0, 84, 0
2, 51136, Note_on_c, 0, 82, 91
2, 51166, Note_on_c, 0, 82, 0
2, 51168, Note_on_c, 0, 80, 90
2, 51198, Note_on_c, 0, 80, 0
2, 51200, Note_on_c, 0, 79, 90
2, 51230, Note_on_c, 0, 79, 0
2, 51232, Note_on_c, 0, 77, 89
2, 51262, Note_on_c, 0, 77, 0
2, 51264, Note_on_c, 0, 75, 88
2, 51294, Note_on_c, 0, 75, 0
2, 51296, Note_on_c, 0, 73, 88
2, 51326, Note_on_c, 0, 73, 0
2, 51328, Note_on_c, 0, 72, 87
2, 51358, Note_on_c, 0, 72, 0
2, 51360, Note_on_c, 0, 70, 86
2, 51390, Note_on_c, 0, 70, 0
2, 51392, Note_on_c, 0, 68, 85
2, 51422, Note_on_c, 0, 68, 0
2, 51424, Note_on_c, 0, 67, 85
2, 51454, Note_on_c, 0, 67, 0
2, 51456, Note_on_c, 0, 65, 84
2, 51486, Note_on_c, 0, 65, 0
2, 51488, Note_on_c, 0, 72, 84
2, 51518, Note_on_c, 0, 72, 0
2, 51520, Note_on_c, 0, 70, 84
2, 51550, Note_on_c, 0, 70, 0
2, 51552, Note_on_c, 0, 68, 84
2, 51582, Note_on_c, 0, 68, 0
2, 51584, Note_on_c, 0, 67, 84
2, 51614, Note_on_c, 0, 67, 0
2, 51616, Note_on_c, 0, 65, 84
2, 51646, Note_on_c, 0, 65, 0
2, 51648, Note_on_c, 0, 63, 84
2, 51678, Note_on_c, 0, 63, 0
2, 51680, Note_on_c, 0, 61, 84
2, 51710, Note_on_c, 0, 61, 0
2, 51712, Note_on_c, 0, 60, 84
2, 51742, Note_on_c, 0, 60, 0
2, 51744, Note_on_c, 0, 58, 84
2, 51774, Note_on_c, 0, 58, 0
2, 51776, Note_on_c, 0, 56, 84
2, 51806, Note_on_c, 0, 56, 0
2, 51808, Note_on_c, 0, 55, 84
2, 51838, Note_on_c, 0, 55, 0
2, 51840, Note_on_c, 0, 53, 84
2, 51929, Note_on_c, 0, 53, 0
2, 51936, Note_on_c, 0, 53, 84
2, 52025, Note_on_c, 0, 53, 0
2, 52032, Note_on_c, 0, 53, 84
2, 52121, Note_on_c, 0, 53, 0
2, 52128, Note_on_c, 0, 63, 84
2, 52217, Note_on_c, 0, 63, 0
2, 52224, Note_on_c, 0, 63, 84
2, 52239, Note_on_c, 0, 63, 0
2, 52240, Note_on_c, 0, 61, 84
2, 52255, Note_on_c, 0, 61, 0
2, 52256, Note_on_c, 0, 63, 84
2, 52271, Note_on_c, 0, 63, 0
2, 52272, Note_on_c, 0, 61, 84
2, 52287, Note_on_c, 0, 61, 0
2, 52288, Note_on_c, 0, 63, 84
2, 52303, Note_on_c, 0, 63, 0
2, 52304, Note_on_c, 0, 61, 84
2, 52319, Note_on_c, 0, 61, 0
2, 52320, Note_on_c, 0, 63, 84
2, 52335, Note_on_c, 0, 63, 0
2, 52336, Note_on_c, 0, 61, 84
2, 52351, Note_on_c, 0, 61, 0
2, 52352, Note_on_c, 0, 63, 84
2, 52367, Note_on_c, 0, 63, 0
2, 52368, Note_on_c, 0, 61, 84
2, 52383, Note_on_c, 0, 61, 0
2, 52384, Note_on_c, 0, 60, 84
2, 52415, Note_on_c, 0, 60, 0
2, 52416, Note_on_c, 0, 58, 84
2, 52505, Note_on_c, 0, 58, 0
2, 52608, Note_on_c, 0, 55, 84
2, 52697, Note_on_c, 0, 55, 0
2, 52704, Note_on_c, 0, 55, 84
2, 52793, Note_on_c, 0, 55, 0
2, 52800, Note_on_c, 0, 55, 84
2, 52889, Note_on_c, 0, 55, 0
2, 52896, Note_on_c, 0, 65, 84
2, 52985, Note_on_c, 0, 65, 0
2, 52992, Note_on_c, 0, 64, 84
2, 53022, Note_on_c, 0, 64, 0
2, 53024, Note_on_c, 0, 62, 84
2, 53054, Note_on_c, 0, 62, 0
2, 53056, Note_on_c, 0, 60, 84
2, 53086, Note_on_c, 0, 60, 0
2, 53088, Note_on_c, 0, 60, 84
2, 53101, Note_on_c, 0, 60, 0
2, 53120, Note_on_c, 0, 60, 85
2, 53133, Note_on_c, 0, 60, 0
2, 53152, Note_on_c, 0, 60, 85
2, 53165, Note_on_c, 0, 60, 0
2, 53184, Note_on_c, 0, 67, 85
2, 53214, Note_on_c, 0, 67, 0
2, 53216, Note_on_c, 0, 65, 86
2, 53246, Note_on_c, 0, 65, 0
2, 53248, Note_on_c, 0, 64, 86
2, 53278, Note_on_c, 0, 64, 0
2, 53280, Note_on_c, 0, 64, 86
2, 53293, Note_on_c, 0, 64, 0
2, 53312, Note_on_c, 0, 64, 87
2, 53325, Note_on_c, 0, 64, 0
2, 53344, Note_on_c, 0, 64, 87
2, 53357, Note_on_c, 0, 64, 0
2, 53376, Note_on_c, 0, 70, 88
2, 53406, Note_on_c, 0, 70, 0
2, 53408, Note_on_c, 0, 68, 88
2, 53438, Note_on_c, 0, 68, 0
2, 53440, Note_on_c, 0, 67, 88
2, 53470, Note_on_c, 0, 67, 0
2, 53472, Note_on_c, 0, 67, 89
2, 53485, Note_on_c, 0, 67, 0
2, 53504, Note_on_c, 0, 67, 89
2, 53517, Note_on_c, 0, 67, 0
2, 53536, Note_on_c, 0, 67, 89
2, 53549, Note_on_c, 0, 67, 0
2, 53568, Note_on_c, 0, 79, 90
2, 53598, Note_on_c, 0, 79, 0
2, 53600, Note_on_c, 0, 77, 90
2, 53630, Note_on_c, 0, 77, 0
2, 53632, Note_on_c, 0, 76, 90
2, 53662, Note_on_c, 0, 76, 0
2, 53664, Note_on_c, 0, 73, 91
2, 53694, Note_on_c, 0, 73, 0
2, 53696, Note_on_c, 0, 72, 91
2, 53726, Note_on_c, 0, 72, 0
2, 53728, Note_on_c, 0, 70, 92
2, 53758, Note_on_c, 0, 70, 0
2, 53760, Note_on_c, 0, 68, 93
2, 53790, Note_on_c, 0, 68, 0
2, 53792, Note_on_c, 0, 72, 93
2, 53822, Note_on_c, 0, 72, 0
2, 53824, Note_on_c, 0, 77, 93
2, 53837, Note_on_c, 0, 77, 0
2, 53856, Note_on_c, 0, 77, 93
2, 53869, Note_on_c, 0, 77, 0
2, 53888, Note_on_c, 0, 77, 93
2, 53901, Note_on_c, 0, 77, 0
2, 53920, Note_on_c, 0, 77, 93
2, 53933, Note_on_c, 0, 77, 0
2, 53952, Note_on_c, 0, 76, 93
2, 53982, Note_on_c, 0, 76, 0
2, 53984, Note_on_c, 0, 79, 93
2, 54014, Note_on_c, 0, 79, 0
2, 54016, Note_on_c, 0, 82, 93
2, 54029, Note_on_c, 0, 82, 0
2, 54048, Note_on_c, 0, 82, 93
2, 54061, Note_on_c, 0, 82, 0
2, 54080, Note_on_c, 0, 82, 93
2, 54093, Note_on_c, 0, 82, 0
2, 54112, Note_on_c, 0, 82, 93
2, 54125, Note_on_c, 0, 82, 0
2, 54144, Note_on_c, 0, 80, 93
2, 54174, Note_on_c, 0, 80, 0
2, 54176, Note_on_c, 0, 84, 93
2, 54206, Note_on_c, 0, 84, 0
2, 54208, Note_on_c, 0, 89, 93
2, 54221, Note_on_c, 0, 89, 0
2, 54240, Note_on_c, 0, 89, 93
2, 54253, Note_on_c, 0, 89, 0
2, 54272, Note_on_c, 0, 89, 93
2, 54285, Note_on_c, 0, 89, 0
2, 54304, Note_on_c, 0, 89, 93
2, 54317, Note_on_c, 0, 89, 0
2, 54336, Note_on_c, 0, 79, 93
2, 54366, Note_on_c, 0, 79, 0
2, 54368, Note_on_c, 0, 82, 93
2, 54398, Note_on_c, 0, 82, 0
2, 54400, Note_on_c, 0, 85, 93
2, 54413, Note_on_c, 0, 85, 0
2, 54432, Note_on_c, 0, 85, 93
2, 54445, Note_on_c, 0, 85, 0
2, 54464, Note_on_c, 0, 85, 93
2, 54477, Note_on_c, 0, 85, 0
2, 54496, Note_on_c, 0, 85, 93
2, 54509, Note_on_c, 0, 85, 0
2, 54624, Note_on_c, 0, 84, 81
2, 54624, Note_on_c, 0, 80, 81
2, 54713, Note_on_c, 0, 84, 0
2, 54713, Note_on_c, 0, 80, 0
2, 54816, Note_on_c, 0, 76, 75
2, 54816, Note_on_c, 0, 70, 75
2, 54905, Note_on_c, 0, 76, 0
2, 54905, Note_on_c, 0, 70, 0
2, 54912, Note_on_c, 0, 75, 72
2, 55001, Note_on_c, 0, 75, 0
2, 55008, Note_on_c, 0, 75, 70
2, 55097, Note_on_c, 0, 75, 0
2, 55104, Note_on_c, 0, 75, 70
2, 55193, Note_on_c, 0, 75, 0
2, 55200, Note_on_c, 0, 75, 70
2, 55289, Note_on_c, 0, 75, 0
2, 55296, Note_on_c, 0, 74, 70
2, 55488, Note_on_c, 0, 74, 0
2, 55488, Note_on_c, 0, 70, 75
2, 55665, Note_on_c, 0, 70, 0
2, 55680, Note_on_c, 0, 73, 81
2, 55769, Note_on_c, 0, 73, 0
2, 55776, Note_on_c, 0, 73, 84
2, 55865, Note_on_c, 0, 73, 0
2, 55872, Note_on_c, 0, 75, 84
2, 55884, Note_on_c, 0, 75, 0
2, 55884, Note_on_c, 0, 73, 84
2, 55896, Note_on_c, 0, 73, 0
2, 55896, Note_on_c, 0, 75, 84
2, 55908, Note_on_c, 0, 75, 0
2, 55908, Note_on_c, 0, 73, 84
2, 55920, Note_on_c, 0, 73, 0
2, 55920, Note_on_c, 0, 75, 84
2, 55932, Note_on_c, 0, 75, 0
2, 55932, Note_on_c, 0, 73, 84
2, 55944, Note_on_c, 0, 73, 0
2, 55944, Note_on_c, 0, 72, 84
2, 55956, Note_on_c, 0, 72, 0
2, 55956, Note_on_c, 0, 73, 84
2, 55968, Note_on_c, 0, 73, 0
2, 55968, Note_on_c, 0, 82, 84
2, 56013, Note_on_c, 0, 82, 0
2, 56016, Note_on_c, 0, 73, 84
2, 56061, Note_on_c, 0, 73, 0
2, 56064, Note_on_c, 0, 72, 84
2, 56153, Note_on_c, 0, 72, 0
2, 56160, Note_on_c, 0, 72, 84
2, 56249, Note_on_c, 0, 72, 0
2, 56256, Note_on_c, 0, 73, 84
2, 56268, Note_on_c, 0, 73, 0
2, 56268, Note_on_c, 0, 72, 84
2, 56280, Note_on_c, 0, 72, 0
2, 56280, Note_on_c, 0, 73, 84
2, 56292, Note_on_c, 0, 73, 0
2, 56292, Note_on_c, 0, 72, 84
2, 56304, Note_on_c, 0, 72, 0
2, 56304, Note_on_c, 0, 73, 84
2, 56316, Note_on_c, 0, 73, 0
2, 56316, Note_on_c, 0, 72, 84
2, 56328, Note_on_c, 0, 72, 0
2, 56328, Note_on_c, 0, 70, 84
2, 56340, Note_on_c, 0, 70, 0
2, 56340, Note_on_c, 0, 72, 84
2, 56352, Note_on_c, 0, 72, 0
2, 56352, Note_on_c, 0, 75, 84
2, 56397, Note_on_c, 0, 75, 0
2, 56400, Note_on_c, 0, 72, 84
2, 56445, Note_on_c, 0, 72, 0
2, 56448, Note_on_c, 0, 70, 84
2, 56537, Note_on_c, 0, 70, 0
2, 56544, Note_on_c, 0, 70, 84
2, 56633, Note_on_c, 0, 70, 0
2, 56640, Note_on_c, 0, 72, 84
2, 56652, Note_on_c, 0, 72, 0
2, 56652, Note_on_c, 0, 70, 84
2, 56664, Note_on_c, 0, 70, 0
2, 56664, Note_on_c, 0, 72, 84
2, 56676, Note_on_c, 0, 72, 0
2, 56676, Note_on_c, 0, 70, 84
2, 56688, Note_on_c, 0, 70, 0
2, 56688, Note_on_c, 0, 72, 84
2, 56700, Note_on_c, 0, 72, 0
2, 56700, Note_on_c, 0, 70, 84
2, 56712, Note_on_c, 0, 70, 0
2, 56712, Note_on_c, 0, 69, 84
2, 56724, Note_on_c, 0, 69, 0
2, 56724, Note_on_c, 0, 70, 84
2, 56736, Note_on_c, 0, 70, 0
2, 56736, Note_on_c, 0, 77, 84
2, 56781, Note_on_c, 0, 77, 0
2, 56784, Note_on_c, 0, 68, 84
2, 56829, Note_on_c, 0, 68, 0
2, 56832, Note_on_c, 0, 67, 84
2, 56862, Note_on_c, 0, 67, 0
2, 56864, Note_on_c, 0, 70, 84
2, 56894, Note_on_c, 0, 70, 0
2, 56896, Note_on_c, 0, 68, 84
2, 56926, Note_on_c, 0, 68, 0
2, 56928, Note_on_c, 0, 67, 84
2, 56958, Note_on_c, 0, 67, 0
2, 56960, Note_on_c, 0, 79, 84
2, 56990, Note_on_c, 0, 79, 0
2, 56992, Note_on_c, 0, 77, 84
2, 57022, Note_on_c, 0, 77, 0
2, 57024, Note_on_c, 0, 75, 84
2, 57054, Note_on_c, 0, 75, 0
2, 57056, Note_on_c, 0, 82, 84
2, 57086, Note_on_c, 0, 82, 0
2, 57088, Note_on_c, 0, 80, 84
2, 57118, Note_on_c, 0, 80, 0
2, 57120, Note_on_c, 0, 79, 84
2, 57150, Note_on_c, 0, 79, 0
2, 57152, Note_on_c, 0, 77, 84
2, 57182, Note_on_c, 0, 77, 0
2, 57184, Note_on_c, 0, 75, 84
2, 57214, Note_on_c, 0, 75, 0
2, 57216, Note_on_c, 0, 74, 84
2, 57246, Note_on_c, 0, 74, 0
2, 57248, Note_on_c, 0, 77, 84
2, 57278, Note_on_c, 0, 77, 0
2, 57280, Note_on_c, 0, 75, 84
2, 57310, Note_on_c, 0, 75, 0
2, 57312, Note_on_c, 0, 74, 84
2, 57342, Note_on_c, 0, 74, 0
2, 57344, Note_on_c, 0, 80, 84
2, 57374, Note_on_c, 0, 80, 0
2, 57376, Note_on_c, 0, 79, 84
2, 57406, Note_on_c, 0, 79, 0
2, 57408, Note_on_c, 0, 77, 84
2, 57438, Note_on_c, 0, 77, 0
2, 57440, Note_on_c, 0, 84, 84
2, 57470, Note_on_c, 0, 84, 0
2, 57472, Note_on_c, 0, 82, 84
2, 57502, Note_on_c, 0, 82, 0
2, 57504, Note_on_c, 0, 80, 84
2, 57534, Note_on_c, 0, 80, 0
2, 57536, Note_on_c, 0, 79, 84
2, 57566, Note_on_c, 0, 79, 0
2, 57568, Note_on_c, 0, 77, 84
2, 57598, Note_on_c, 0, 77, 0
2, 57600, Note_on_c, 0, 75, 84
2, 57648, Note_on_c, 0, 75, 0
2, 57648, Note_on_c, 0, 74, 82
2, 57693, Note_on_c, 0, 74, 0
2, 57696, Note_on_c, 0, 77, 80
2, 57744, Note_on_c, 0, 77, 0
2, 57744, Note_on_c, 0, 75, 78
2, 57789, Note_on_c, 0, 75, 0
2, 57792, Note_on_c, 0, 79, 77
2, 57840, Note_on_c, 0, 79, 0
2, 57840, Note_on_c, 0, 77, 75
2, 57885, Note_on_c, 0, 77, 0
2, 57888, Note_on_c, 0, 80, 73
2, 57936, Note_on_c, 0, 80, 0
2, 57936, Note_on_c, 0, 79, 71
2, 57981, Note_on_c, 0, 79, 0
2, 57984, Note_on_c, 0, 82, 70
2, 58029, Note_on_c, 0, 82, 0
2, 58032, Note_on_c, 0, 80, 68
2, 58077, Note_on_c, 0, 80, 0
2, 58080, Note_on_c, 0, 84, 66
2, 58169, Note_on_c, 0, 84, 0
2, 58176, Note_on_c, 0, 82, 63
2, 58265, Note_on_c, 0, 82, 0
2, 58272, Note_on_c, 0, 80, 63
2, 58361, Note_on_c, 0, 80, 0
2, 58368, Note_on_c, 0, 79, 63
2, 58457, Note_on_c, 0, 79, 0
2, 58464, Note_on_c, 0, 77, 63
2, 58553, Note_on_c, 0, 77, 0
2, 58560, Note_on_c, 0, 75, 63
2, 58649, Note_on_c, 0, 75, 0
2, 58656, Note_on_c, 0, 74, 63
2, 58745, Note_on_c, 0, 74, 0
2, 58752, Note_on_c, 0, 80, 63
2, 59106, Note_on_c, 0, 80, 0
2, 59136, Note_on_c, 0, 79, 63
2, 59225, Note_on_c, 0, 79, 0
2, 59232, Note_on_c, 0, 80, 63
2, 59321, Note_on_c, 0, 80, 0
2, 59328, Note_on_c, 0, 82, 63
2, 59417, Note_on_c, 0, 82, 0
2, 59424, Note_on_c, 0, 80, 63
2, 59513, Note_on_c, 0, 80, 0
2, 59520, Note_on_c, 0, 80, 63
2, 59785, Note_on_c, 0, 80, 0
2, 59808, Note_on_c, 0, 74, 63
2, 59935, Note_on_c, 0, 74, 0
2, 59936, Note_on_c, 0, 77, 63
2, 59951, Note_on_c, 0, 77, 0
2, 59952, Note_on_c, 0, 75, 63
2, 59967, Note_on_c, 0, 75, 0
2, 59968, Note_on_c, 0, 77, 63
2, 59983, Note_on_c, 0, 77, 0
2, 59984, Note_on_c, 0, 75, 63
2, 59999, Note_on_c, 0, 75, 0
2, 60000, Note_on_c, 0, 77, 63
2, 60015, Note_on_c, 0, 77, 0
2, 60016, Note_on_c, 0, 75, 63
2, 60031, Note_on_c, 0, 75, 0
2, 60032, Note_on_c, 0, 77, 63
2, 60047, Note_on_c, 0, 77, 0
2, 60048, Note_on_c, 0, 75, 63
2, 60063, Note_on_c, 0, 75, 0
2, 60064, Note_on_c, 0, 77, 63
2, 60079, Note_on_c, 0, 77, 0
2, 60080, Note_on_c, 0, 75, 63
2, 60095, Note_on_c, 0, 75, 0
2, 60096, Note_on_c, 0, 77, 63
2, 60111, Note_on_c, 0, 77, 0
2, 60112, Note_on_c, 0, 75, 63
2, 60127, Note_on_c, 0, 75, 0
2, 60128, Note_on_c, 0, 77, 63
2, 60143, Note_on_c, 0, 77, 0
2, 60144, Note_on_c, 0, 75, 63
2, 60159, Note_on_c, 0, 75, 0
2, 60160, Note_on_c, 0, 77, 63
2, 60175, Note_on_c, 0, 77, 0
2, 60176, Note_on_c, 0, 75, 63
2, 60191, Note_on_c, 0, 75, 0
2, 60192, Note_on_c, 0, 74, 63
2, 60239, Note_on_c, 0, 74, 0
2, 60240, Note_on_c, 0, 75, 63
2, 60287, Note_on_c, 0, 75, 0
2, 60576, Note_on_c, 0, 63, 77
2, 60643, Note_on_c, 0, 63, 0
2, 60648, Note_on_c, 0, 60, 77
2, 60671, Note_on_c, 0, 60, 0
2, 60672, Note_on_c, 0, 68, 77
2, 60739, Note_on_c, 0, 68, 0
2, 60744, Note_on_c, 0, 68, 77
2, 60767, Note_on_c, 0, 68, 0
2, 60768, Note_on_c, 0, 70, 77
2, 60780, Note_on_c, 0, 70, 0
2, 60780, Note_on_c, 0, 68, 77
2, 60792, Note_on_c, 0, 68, 0
2, 60792, Note_on_c, 0, 70, 77
2, 60804, Note_on_c, 0, 70, 0
2, 60804, Note_on_c, 0, 68, 77
2, 60816, Note_on_c, 0, 68, 0
2, 60816, Note_on_c, 0, 67, 77
2, 60840, Note_on_c, 0, 67, 0
2, 60840, Note_on_c, 0, 68, 77
2, 60864, Note_on_c, 0, 68, 0
2, 60864, Note_on_c, 0, 70, 77
2, 60953, Note_on_c, 0, 70, 0
2, 60960, Note_on_c, 0, 63, 77
2, 61027, Note_on_c, 0, 63, 0
2, 61032, Note_on_c, 0, 75, 77
2, 61055, Note_on_c, 0, 75, 0
2, 61056, Note_on_c, 0, 73, 77
2, 61248, Note_on_c, 0, 73, 0
2, 61248, Note_on_c, 0, 72, 77
2, 61268, Note_on_c, 0, 72, 0
2, 61344, Note_on_c, 0, 68, 77
2, 61411, Note_on_c, 0, 68, 0
2, 61416, Note_on_c, 0, 77, 77
2, 61439, Note_on_c, 0, 77, 0
2, 61440, Note_on_c, 0, 75, 77
2, 61632, Note_on_c, 0, 75, 0
2, 61632, Note_on_c, 0, 73, 77
2, 61652, Note_on_c, 0, 73, 0
2, 61728, Note_on_c, 0, 63, 77
2, 61795, Note_on_c, 0, 63, 0
2, 61800, Note_on_c, 0, 75, 77
2, 61823, Note_on_c, 0, 75, 0
2, 61824, Note_on_c, 0, 73, 77
2, 62016, Note_on_c, 0, 73, 0
2, 62016, Note_on_c, 0, 72, 77
2, 62036, Note_on_c, 0, 72, 0
2, 62112, Note_on_c, 0, 80, 77
2, 62179, Note_on_c, 0, 80, 0
2, 62184, Note_on_c, 0, 72, 77
2, 62207, Note_on_c, 0, 72, 0
2, 62208, Note_on_c, 0, 70, 77
2, 62275, Note_on_c, 0, 70, 0
2, 62280, Note_on_c, 0, 70, 77
2, 62303, Note_on_c, 0, 70, 0
2, 62304, Note_on_c, 0, 72, 77
2, 62316, Note_on_c, 0, 72, 0
2, 62316, Note_on_c, 0, 70, 77
2, 62328, Note_on_c, 0, 70, 0
2, 62328, Note_on_c, 0, 72, 77
2, 62340, Note_on_c, 0, 72, 0
2, 62340, Note_on_c, 0, 70, 77
2, 62352, Note_on_c, 0, 70, 0
2, 62352, Note_on_c, 0, 69, 77
2, 62376, Note_on_c, 0, 69, 0
2, 62376, Note_on_c, 0, 70, 77
2, 62400, Note_on_c, 0, 70, 0
2, 62400, Note_on_c, 0, 73, 77
2, 62467, Note_on_c, 0, 73, 0
2, 62472, Note_on_c, 0, 70, 77
2, 62495, Note_on_c, 0, 70, 0
2, 62496, Note_on_c, 0, 67, 77
2, 62563, Note_on_c, 0, 67, 0
2, 62568, Note_on_c, 0, 63, 77
2, 62591, Note_on_c, 0, 63, 0
2, 62592, Note_on_c, 0, 68, 77
2, 62631, Note_on_c, 0, 68, 0
2, 62880, Note_on_c, 0, 63, 77
2, 62947, Note_on_c, 0, 63, 0
2, 62952, Note_on_c, 0, 60, 77
2, 62975, Note_on_c, 0, 60, 0
2, 62976, Note_on_c, 0, 68, 77
2, 63043, Note_on_c, 0, 68, 0
2, 63048, Note_on_c, 0, 68, 77
2, 63071, Note_on_c, 0, 68, 0
2, 63072, Note_on_c, 0, 70, 77
2, 63084, Note_on_c, 0, 70, 0
2, 63084, Note_on_c, 0, 68, 77
2, 63096, Note_on_c, 0, 68, 0
2, 63096, Note_on_c, 0, 70, 77
2, 63108, Note_on_c, 0, 70, 0
2, 63108, Note_on_c, 0, 68, 77
2, 63120, Note_on_c, 0, 68, 0
2, 63120, Note_on_c, 0, 67, 77
2, 63144, Note_on_c, 0, 67, 0
2, 63144, Note_on_c, 0, 68, 77
2, 63168, Note_on_c, 0, 68, 0
2, 63168, Note_on_c, 0, 70, 77
2, 63257, Note_on_c, 0, 70, 0
2, 63264, Note_on_c, 0, 63, 77
2, 63331, Note_on_c, 0, 63, 0
2, 63336, Note_on_c, 0, 75, 77
2, 63359, Note_on_c, 0, 75, 0
2, 63360, Note_on_c, 0, 73, 77
2, 63552, Note_on_c, 0, 73, 0
2, 63552, Note_on_c, 0, 72, 77
2, 63572, Note_on_c, 0, 72, 0
2, 63648, Note_on_c, 0, 68, 77
2, 63715, Note_on_c, 0, 68, 0
2, 63720, Note_on_c, 0, 80, 77
2, 63743, Note_on_c, 0, 80, 0
2, 63744, Note_on_c, 0, 79, 77
2, 63840, Note_on_c, 0, 79, 0
2, 63840, Note_on_c, 0, 77, 77
2, 63869, Note_on_c, 0, 77, 0
2, 63912, Note_on_c, 0, 80, 77
2, 63935, Note_on_c, 0, 80, 0
2, 63936, Note_on_c, 0, 77, 77
2, 64032, Note_on_c, 0, 77, 0
2, 64032, Note_on_c, 0, 75, 77
2, 64061, Note_on_c, 0, 75, 0
2, 64104, Note_on_c, 0, 80, 77
2, 64127, Note_on_c, 0, 80, 0
2, 64128, Note_on_c, 0, 75, 77
2, 64224, Note_on_c, 0, 75, 0
2, 64224, Note_on_c, 0, 73, 77
2, 64253, Note_on_c, 0, 73, 0
2, 64296, Note_on_c, 0, 80, 77
2, 64319, Note_on_c, 0, 80, 0
2, 64320, Note_on_c, 0, 73, 77
2, 64416, Note_on_c, 0, 73, 0
2, 64416, Note_on_c, 0, 72, 77
2, 64445, Note_on_c, 0, 72, 0
2, 64488, Note_on_c, 0, 80, 77
2, 64511, Note_on_c, 0, 80, 0
2, 64512, Note_on_c, 0, 72, 77
2, 64579, Note_on_c, 0, 72, 0
2, 64584, Note_on_c, 0, 70, 80
2, 64607, Note_on_c, 0, 70, 0
2, 64608, Note_on_c, 0, 73, 81
2, 64675, Note_on_c, 0, 73, 0
2, 64680, Note_on_c, 0, 77, 84
2, 64703, Note_on_c, 0, 77, 0
2, 64704, Note_on_c, 0, 75, 84
2, 64793, Note_on_c, 0, 75, 0
2, 64800, Note_on_c, 0, 67, 80
2, 64889, Note_on_c, 0, 67, 0
2, 64896, Note_on_c, 0, 67, 77
2, 64908, Note_on_c, 0, 67, 0
2, 64908, Note_on_c, 0, 68, 77
2, 64986, Note_on_c, 0, 68, 0
2, 64992, Note_on_c, 0, 67, 77
2, 65004, Note_on_c, 0, 67, 0
2, 65004, Note_on_c, 0, 68, 77
2, 65082, Note_on_c, 0, 68, 0
2, 65088, Note_on_c, 0, 67, 77
2, 65100, Note_on_c, 0, 67, 0
2, 65100, Note_on_c, 0, 68, 77
2, 65178, Note_on_c, 0, 68, 0
2, 65184, Note_on_c, 0, 69, 77
2, 65196, Note_on_c, 0, 69, 0
2, 65196, Note_on_c, 0, 70, 77
2, 65274, Note_on_c, 0, 70, 0
2, 65280, Note_on_c, 0, 71, 77
2, 65292, Note_on_c, 0, 71, 0
2, 65292, Note_on_c, 0, 72, 77
2, 65472, Note_on_c, 0, 72, 0
2, 65472, Note_on_c, 0, 68, 77
2, 65649, Note_on_c, 0, 68, 0
2, 65664, Note_on_c, 0, 71, 77
2, 65676, Note_on_c, 0, 71, 0
2, 65676, Note_on_c, 0, 72, 77
2, 65754, Note_on_c, 0, 72, 0
2, 65760, Note_on_c, 0, 71, 77
2, 65772, Note_on_c, 0, 71, 0
2, 65772, Note_on_c, 0, 72, 77
2, 65850, Note_on_c, 0, 72, 0
2, 65856, Note_on_c, 0, 71, 77
2, 65868, Note_on_c, 0, 71, 0
2, 65868, Note_on_c, 0, 72, 77
2, 65946, Note_on_c, 0, 72, 0
2, 65952, Note_on_c, 0, 75, 77
2, 65975, Note_on_c, 0, 75, 0
2, 65976, Note_on_c, 0, 73, 77
2, 65999, Note_on_c, 0, 73, 0
2, 66000, Note_on_c, 0, 72, 77
2, 66023, Note_on_c, 0, 72, 0
2, 66024, Note_on_c, 0, 73, 77
2, 66047, Note_on_c, 0, 73, 0
2, 66048, Note_on_c, 0, 75, 77
2, 66240, Note_on_c, 0, 75, 0
2, 66240, Note_on_c, 0, 72, 77
2, 66417, Note_on_c, 0, 72, 0
2, 66432, Note_on_c, 0, 80, 77
2, 66521, Note_on_c, 0, 80, 0
2, 66528, Note_on_c, 0, 80, 77
2, 66558, Note_on_c, 0, 80, 0
2, 66560, Note_on_c, 0, 84, 77
2, 66590, Note_on_c, 0, 84, 0
2, 66592, Note_on_c, 0, 87, 77
2, 66622, Note_on_c, 0, 87, 0
2, 66624, Note_on_c, 0, 78, 93
2, 66816, Note_on_c, 0, 78, 0
2, 66816, Note_on_c, 0, 77, 77
2, 66905, Note_on_c, 0, 77, 0
2, 66912, Note_on_c, 0, 77, 77
2, 66942, Note_on_c, 0, 77, 0
2, 66944, Note_on_c, 0, 82, 77
2, 66974, Note_on_c, 0, 82, 0
2, 66976, Note_on_c, 0, 85, 77
2, 67006, Note_on_c, 0, 85, 0
2, 67008, Note_on_c, 0, 75, 93
2, 67152, Note_on_c, 0, 75, 0
2, 67152, Note_on_c, 0, 77, 77
2, 67175, Note_on_c, 0, 77, 0
2, 67176, Note_on_c, 0, 79, 77
2, 67199, Note_on_c, 0, 79, 0
2, 67200, Note_on_c, 0, 80, 77
2, 67289, Note_on_c, 0, 80, 0
2, 67296, Note_on_c, 0, 80, 77
2, 67326, Note_on_c, 0, 80, 0
2, 67328, Note_on_c, 0, 82, 77
2, 67358, Note_on_c, 0, 82, 0
2, 67360, Note_on_c, 0, 84, 77
2, 67390, Note_on_c, 0, 84, 0
2, 67392, Note_on_c, 0, 73, 93
2, 67584, Note_on_c, 0, 73, 0
2, 67584, Note_on_c, 0, 72, 77
2, 67614, Note_on_c, 0, 72, 0
2, 67616, Note_on_c, 0, 75, 77
2, 67646, Note_on_c, 0, 75, 0
2, 67648, Note_on_c, 0, 73, 77
2, 67678, Note_on_c, 0, 73, 0
2, 67680, Note_on_c, 0, 72, 77
2, 67710, Note_on_c, 0, 72, 0
2, 67712, Note_on_c, 0, 84, 77
2, 67742, Note_on_c, 0, 84, 0
2, 67744, Note_on_c, 0, 82, 77
2, 67774, Note_on_c, 0, 82, 0
2, 67776, Note_on_c, 0, 80, 77
2, 67806, Note_on_c, 0, 80, 0
2, 67808, Note_on_c, 0, 79, 77
2, 67838, Note_on_c, 0, 79, 0
2, 67840, Note_on_c, 0, 77, 77
2, 67870, Note_on_c, 0, 77, 0
2, 67872, Note_on_c, 0, 75, 77
2, 67902, Note_on_c, 0, 75, 0
2, 67904, Note_on_c, 0, 73, 77
2, 67934, Note_on_c, 0, 73, 0
2, 67936, Note_on_c, 0, 72, 77
2, 67966, Note_on_c, 0, 72, 0
2, 67968, Note_on_c, 0, 75, 77
2, 68040, Note_on_c, 0, 75, 0
2, 68040, Note_on_c, 0, 72, 77
2, 68063, Note_on_c, 0, 72, 0
2, 68064, Note_on_c, 0, 70, 77
2, 68205, Note_on_c, 0, 70, 0
2, 68208, Note_on_c, 0, 73, 77
2, 68253, Note_on_c, 0, 73, 0
2, 68256, Note_on_c, 0, 72, 77
2, 68301, Note_on_c, 0, 72, 0
2, 68304, Note_on_c, 0, 75, 77
2, 68349, Note_on_c, 0, 75, 0
2, 68352, Note_on_c, 0, 75, 77
2, 68400, Note_on_c, 0, 75, 0
2, 68400, Note_on_c, 0, 73, 77
2, 68445, Note_on_c, 0, 73, 0
2, 68448, Note_on_c, 0, 73, 93
2, 68640, Note_on_c, 0, 73, 0
2, 68640, Note_on_c, 0, 72, 77
2, 68670, Note_on_c, 0, 72, 0
2, 68672, Note_on_c, 0, 70, 77
2, 68702, Note_on_c, 0, 70, 0
2, 68704, Note_on_c, 0, 68, 77
2, 68734, Note_on_c, 0, 68, 0
2, 68736, Note_on_c, 0, 68, 77
2, 68784, Note_on_c, 0, 68, 0
2, 68784, Note_on_c, 0, 67, 77
2, 68829, Note_on_c, 0, 67, 0
2, 68832, Note_on_c, 0, 67, 93
2, 69024, Note_on_c, 0, 67, 0
2, 69024, Note_on_c, 0, 68, 77
2, 69113, Note_on_c, 0, 68, 0
2, 69120, Note_on_c, 0, 70, 77
2, 69150, Note_on_c, 0, 70, 0
2, 69152, Note_on_c, 0, 72, 77
2, 69182, Note_on_c, 0, 72, 0
2, 69184, Note_on_c, 0, 73, 77
2, 69214, Note_on_c, 0, 73, 0
2, 69216, Note_on_c, 0, 73, 93
2, 69408, Note_on_c, 0, 73, 0
2, 69408, Note_on_c, 0, 72, 77
2, 69438, Note_on_c, 0, 72, 0
2, 69440, Note_on_c, 0, 70, 77
2, 69470, Note_on_c, 0, 70, 0
2, 69472, Note_on_c, 0, 68, 77
2, 69502, Note_on_c, 0, 68, 0
2, 69504, Note_on_c, 0, 68, 77
2, 69552, Note_on_c, 0, 68, 0
2, 69552, Note_on_c, 0, 67, 77
2, 69597, Note_on_c, 0, 67, 0
2, 69600, Note_on_c, 0, 67, 93
2, 69792, Note_on_c, 0, 67, 0
2, 69792, Note_on_c, 0, 68, 77
2, 69881, Note_on_c, 0, 68, 0
2, 69888, Note_on_c, 0, 70, 70
2, 69918, Note_on_c, 0, 70, 0
2, 69920, Note_on_c, 0, 72, 71
2, 69950, Note_on_c, 0, 72, 0
2, 69952, Note_on_c, 0, 73, 72
2, 69982, Note_on_c, 0, 73, 0
2, 69984, Note_on_c, 0, 73, 90
2, 70176, Note_on_c, 0, 73, 0
2, 70176, Note_on_c, 0, 72, 84
2, 70265, Note_on_c, 0, 72, 0
2, 70272, Note_on_c, 0, 70, 84
2, 70302, Note_on_c, 0, 70, 0
2, 70304, Note_on_c, 0, 77, 82
2, 70334, Note_on_c, 0, 77, 0
2, 70336, Note_on_c, 0, 75, 81
2, 70366, Note_on_c, 0, 75, 0
2, 70368, Note_on_c, 0, 73, 80
2, 70398, Note_on_c, 0, 73, 0
2, 70400, Note_on_c, 0, 72, 79
2, 70430, Note_on_c, 0, 72, 0
2, 70432, Note_on_c, 0, 70, 78
2, 70462, Note_on_c, 0, 70, 0
2, 70464, Note_on_c, 0, 68, 77
2, 70553, Note_on_c, 0, 68, 0
2, 70560, Note_on_c, 0, 67, 73
2, 70649, Note_on_c, 0, 67, 0
2, 70656, Note_on_c, 0, 60, 84
2, 70686, Note_on_c, 0, 60, 0
2, 70688, Note_on_c, 0, 63, 84
2, 70718, Note_on_c, 0, 63, 0
2, 70720, Note_on_c, 0, 68, 84
2, 70750, Note_on_c, 0, 68, 0
2, 70752, Note_on_c, 0, 68, 84
2, 70765, Note_on_c, 0, 68, 0
2, 70784, Note_on_c, 0, 68, 84
2, 70797, Note_on_c, 0, 68, 0
2, 70816, Note_on_c, 0, 68, 84
2, 70829, Note_on_c, 0, 68, 0
2, 70848, Note_on_c, 0, 67, 84
2, 70878, Note_on_c, 0, 67, 0
2, 70880, Note_on_c, 0, 70, 84
2, 70910, Note_on_c, 0, 70, 0
2, 70912, Note_on_c, 0, 73, 84
2, 70942, Note_on_c, 0, 73, 0
2, 70944, Note_on_c, 0, 73, 84
2, 70957, Note_on_c, 0, 73, 0
2, 70976, Note_on_c, 0, 73, 84
2, 70989, Note_on_c, 0, 73, 0
2, 71008, Note_on_c, 0, 73, 84
2, 71021, Note_on_c, 0, 73, 0
2, 71040, Note_on_c, 0, 72, 84
2, 71070, Note_on_c, 0, 72, 0
2, 71072, Note_on_c, 0, 75, 84
2, 71102, Note_on_c, 0, 75, 0
2, 71104, Note_on_c, 0, 80, 84
2, 71117, Note_on_c, 0, 80, 0
2, 71136, Note_on_c, 0, 80, 84
2, 71149, Note_on_c, 0, 80, 0
2, 71168, Note_on_c, 0, 80, 84
2, 71181, Note_on_c, 0, 80, 0
2, 71200, Note_on_c, 0, 80, 84
2, 71213, Note_on_c, 0, 80, 0
2, 71232, Note_on_c, 0, 79, 84
2, 71262, Note_on_c, 0, 79, 0
2, 71264, Note_on_c, 0, 82, 84
2, 71294, Note_on_c, 0, 82, 0
2, 71296, Note_on_c, 0, 85, 84
2, 71309, Note_on_c, 0, 85, 0
2, 71328, Note_on_c, 0, 85, 84
2, 71341, Note_on_c, 0, 85, 0
2, 71360, Note_on_c, 0, 85, 84
2, 71373, Note_on_c, 0, 85, 0
2, 71392, Note_on_c, 0, 85, 84
2, 71405, Note_on_c, 0, 85, 0
2, 71424, Note_on_c, 0, 84, 84
2, 71454, Note_on_c, 0, 84, 0
2, 71456, Note_on_c, 0, 87, 84
2, 71486, Note_on_c, 0, 87, 0
2, 71488, Note_on_c, 0, 85, 84
2, 71518, Note_on_c, 0, 85, 0
2, 71520, Note_on_c, 0, 84, 84
2, 71550, Note_on_c, 0, 84, 0
2, 71552, Note_on_c, 0, 82, 84
2, 71582, Note_on_c, 0, 82, 0
2, 71584, Note_on_c, 0, 80, 84
2, 71614, Note_on_c, 0, 80, 0
2, 71616, Note_on_c, 0, 79, 84
2, 71646, Note_on_c, 0, 79, 0
2, 71648, Note_on_c, 0, 77, 84
2, 71678, Note_on_c, 0, 77, 0
2, 71680, Note_on_c, 0, 75, 84
2, 71710, Note_on_c, 0, 75, 0
2, 71712, Note_on_c, 0, 73, 84
2, 71742, Note_on_c, 0, 73, 0
2, 71744, Note_on_c, 0, 72, 84
2, 71774, Note_on_c, 0, 72, 0
2, 71776, Note_on_c, 0, 70, 84
2, 71806, Note_on_c, 0, 70, 0
2, 71808, Note_on_c, 0, 68, 84
2, 71838, Note_on_c, 0, 68, 0
2, 71840, Note_on_c, 0, 84, 84
2, 71870, Note_on_c, 0, 84, 0
2, 71872, Note_on_c, 0, 82, 84
2, 71902, Note_on_c, 0, 82, 0
2, 71904, Note_on_c, 0, 80, 84
2, 71934, Note_on_c, 0, 80, 0
2, 71936, Note_on_c, 0, 79, 84
2, 71966, Note_on_c, 0, 79, 0
2, 71968, Note_on_c, 0, 77, 84
2, 71998, Note_on_c, 0, 77, 0
2, 72000, Note_on_c, 0, 75, 84
2, 72030, Note_on_c, 0, 75, 0
2, 72032, Note_on_c, 0, 73, 84
2, 72062, Note_on_c, 0, 73, 0
2, 72064, Note_on_c, 0, 72, 84
2, 72094, Note_on_c, 0, 72, 0
2, 72096, Note_on_c, 0, 70, 84
2, 72126, Note_on_c, 0, 70, 0
2, 72128, Note_on_c, 0, 68, 84
2, 72158, Note_on_c, 0, 68, 0
2, 72160, Note_on_c, 0, 67, 84
2, 72190, Note_on_c, 0, 67, 0
2, 72192, Note_on_c, 0, 65, 84
2, 72259, Note_on_c, 0, 65, 0
2, 72264, Note_on_c, 0, 77, 84
2, 72287, Note_on_c, 0, 77, 0
2, 72288, Note_on_c, 0, 73, 84
2, 72355, Note_on_c, 0, 73, 0
2, 72360, Note_on_c, 0, 70, 84
2, 72383, Note_on_c, 0, 70, 0
2, 72384, Note_on_c, 0, 68, 84
2, 72473, Note_on_c, 0, 68, 0
2, 72480, Note_on_c, 0, 67, 84
2, 72493, Note_on_c, 0, 67, 0
2, 72494, Note_on_c, 0, 68, 84
2, 72507, Note_on_c, 0, 68, 0
2, 72508, Note_on_c, 0, 67, 84
2, 72521, Note_on_c, 0, 67, 0
2, 72522, Note_on_c, 0, 68, 84
2, 72535, Note_on_c, 0, 68, 0
2, 72536, Note_on_c, 0, 67, 84
2, 72549, Note_on_c, 0, 67, 0
2, 72550, Note_on_c, 0, 65, 84
2, 72562, Note_on_c, 0, 65, 0
2, 72563, Note_on_c, 0, 67, 84
2, 72575, Note_on_c, 0, 67, 0
2, 72576, Note_on_c, 0, 84, 84
2, 72606, Note_on_c, 0, 84, 0
2, 72608, Note_on_c, 0, 87, 84
2, 72638, Note_on_c, 0, 87, 0
2, 72640, Note_on_c, 0, 85, 84
2, 72670, Note_on_c, 0, 85, 0
2, 72672, Note_on_c, 0, 84, 84
2, 72702, Note_on_c, 0, 84, 0
2, 72704, Note_on_c, 0, 82, 84
2, 72734, Note_on_c, 0, 82, 0
2, 72736, Note_on_c, 0, 80, 84
2, 72766, Note_on_c, 0, 80, 0
2, 72768, Note_on_c, 0, 79, 84
2, 72798, Note_on_c, 0, 79, 0
2, 72800, Note_on_c, 0, 77, 84
2, 72830, Note_on_c, 0, 77, 0
2, 72832, Note_on_c, 0, 75, 84
2, 72862, Note_on_c, 0, 75, 0
2, 72864, Note_on_c, 0, 73, 84
2, 72894, Note_on_c, 0, 73, 0
2, 72896, Note_on_c, 0, 72, 84
2, 72926, Note_on_c, 0, 72, 0
2, 72928, Note_on_c, 0, 70, 84
2, 72958, Note_on_c, 0, 70, 0
2, 72960, Note_on_c, 0, 68, 84
2, 72990, Note_on_c, 0, 68, 0
2, 72992, Note_on_c, 0, 84, 84
2, 73022, Note_on_c, 0, 84, 0
2, 73024, Note_on_c, 0, 82, 84
2, 73054, Note_on_c, 0, 82, 0
2, 73056, Note_on_c, 0, 80, 84
2, 73086, Note_on_c, 0, 80, 0
2, 73088, Note_on_c, 0, 79, 84
2, 73118, Note_on_c, 0, 79, 0
2, 73120, Note_on_c, 0, 77, 84
2, 73150, Note_on_c, 0, 77, 0
2, 73152, Note_on_c, 0, 75, 84
2, 73182, Note_on_c, 0, 75, 0
2, 73184, Note_on_c, 0, 73, 84
2, 73214, Note_on_c, 0, 73, 0
2, 73216, Note_on_c, 0, 72, 84
2, 73246, Note_on_c, 0, 72, 0
2, 73248, Note_on_c, 0, 70, 84
2, 73278, Note_on_c, 0, 70, 0
2, 73280, Note_on_c, 0, 68, 84
2, 73310, Note_on_c, 0, 68, 0
2, 73312, Note_on_c, 0, 67, 84
2, 73342, Note_on_c, 0, 67, 0
2, 73344, Note_on_c, 0, 65, 84
2, 73411, Note_on_c, 0, 65, 0
2, 73416, Note_on_c, 0, 77, 84
2, 73439, Note_on_c, 0, 77, 0
2, 73440, Note_on_c, 0, 73, 84
2, 73507, Note_on_c, 0, 73, 0
2, 73512, Note_on_c, 0, 70, 84
2, 73535, Note_on_c, 0, 70, 0
2, 73536, Note_on_c, 0, 68, 84
2, 73625, Note_on_c, 0, 68, 0
2, 73632, Note_on_c, 0, 67, 84
2, 73645, Note_on_c, 0, 67, 0
2, 73646, Note_on_c, 0, 68, 84
2, 73659, Note_on_c, 0, 68, 0
2, 73660, Note_on_c, 0, 67, 84
2, 73673, Note_on_c, 0, 67, 0
2, 73674, Note_on_c, 0, 68, 84
2, 73687, Note_on_c, 0, 68, 0
2, 73688, Note_on_c, 0, 67, 84
2, 73701, Note_on_c, 0, 67, 0
2, 73702, Note_on_c, 0, 65, 84
2, 73714, Note_on_c, 0, 65, 0
2, 73715, Note_on_c, 0, 67, 84
2, 73727, Note_on_c, 0, 67, 0
2, 73728, Note_on_c, 0, 68, 84
2, 73758, Note_on_c, 0, 68, 0
2, 73760, Note_on_c, 0, 72, 84
2, 73790, Note_on_c, 0, 72, 0
2, 73792, Note_on_c, 0, 70, 84
2, 73822, Note_on_c, 0, 70, 0
2, 73824, Note_on_c, 0, 68, 84
2, 73854, Note_on_c, 0, 68, 0
2, 73856, Note_on_c, 0, 67, 84
2, 73886, Note_on_c, 0, 67, 0
2, 73888, Note_on_c, 0, 65, 84
2, 73918, Note_on_c, 0, 65, 0
2, 73920, Note_on_c, 0, 63, 84
2, 73950, Note_on_c, 0, 63, 0
2, 73952, Note_on_c, 0, 61, 84
2, 73982, Note_on_c, 0, 61, 0
2, 73984, Note_on_c, 0, 60, 84
2, 74014, Note_on_c, 0, 60, 0
2, 74016, Note_on_c, 0, 61, 84
2, 74039, Note_on_c, 0, 61, 0
2, 74040, Note_on_c, 0, 63, 84
2, 74063, Note_on_c, 0, 63, 0
2, 74064, Note_on_c, 0, 65, 84
2, 74087, Note_on_c, 0, 65, 0
2, 74088, Note_on_c, 0, 67, 84
2, 74111, Note_on_c, 0, 67, 0
2, 74112, Note_on_c, 0, 68, 84
2, 74142, Note_on_c, 0, 68, 0
2, 74144, Note_on_c, 0, 72, 84
2, 74174, Note_on_c, 0, 72, 0
2, 74176, Note_on_c, 0, 70, 84
2, 74206, Note_on_c, 0, 70, 0
2, 74208, Note_on_c, 0, 68, 84
2, 74238, Note_on_c, 0, 68, 0
2, 74240, Note_on_c, 0, 67, 84
2, 74270, Note_on_c, 0, 67, 0
2, 74272, Note_on_c, 0, 65, 84
2, 74302, Note_on_c, 0, 65, 0
2, 74304, Note_on_c, 0, 63, 84
2, 74334, Note_on_c, 0, 63, 0
2, 74336, Note_on_c, 0, 61, 84
2, 74366, Note_on_c, 0, 61, 0
2, 74368, Note_on_c, 0, 60, 84
2, 74398, Note_on_c, 0, 60, 0
2, 74400, Note_on_c, 0, 61, 84
2, 74423, Note_on_c, 0, 61, 0
2, 74424, Note_on_c, 0, 63, 84
2, 74447, Note_on_c, 0, 63, 0
2, 74448, Note_on_c, 0, 65, 84
2, 74471, Note_on_c, 0, 65, 0
2, 74472, Note_on_c, 0, 67, 84
2, 74495, Note_on_c, 0, 67, 0
2, 74496, Note_on_c, 0, 68, 84
2, 74526, Note_on_c, 0, 68, 0
2, 74528, Note_on_c, 0, 72, 84
2, 74558, Note_on_c, 0, 72, 0
2, 74560, Note_on_c, 0, 70, 84
2, 74590, Note_on_c, 0, 70, 0
2, 74592, Note_on_c, 0, 68, 84
2, 74622, Note_on_c, 0, 68, 0
2, 74624, Note_on_c, 0, 67, 84
2, 74654, Note_on_c, 0, 67, 0
2, 74656, Note_on_c, 0, 65, 84
2, 74686, Note_on_c, 0, 65, 0
2, 74688, Note_on_c, 0, 63, 84
2, 74718, Note_on_c, 0, 63, 0
2, 74720, Note_on_c, 0, 61, 84
2, 74750, Note_on_c, 0, 61, 0
2, 74752, Note_on_c, 0, 60, 84
2, 74782, Note_on_c, 0, 60, 0
2, 74784, Note_on_c, 0, 68, 84
2, 74814, Note_on_c, 0, 68, 0
2, 74816, Note_on_c, 0, 67, 84
2, 74846, Note_on_c, 0, 67, 0
2, 74848, Note_on_c, 0, 65, 84
2, 74878, Note_on_c, 0, 65, 0
2, 74880, Note_on_c, 0, 63, 84
2, 74910, Note_on_c, 0, 63, 0
2, 74912, Note_on_c, 0, 61, 84
2, 74942, Note_on_c, 0, 61, 0
2, 74944, Note_on_c, 0, 60, 84
2, 74974, Note_on_c, 0, 60, 0
2, 74976, Note_on_c, 0, 68, 84
2, 75006, Note_on_c, 0, 68, 0
2, 75008, Note_on_c, 0, 67, 84
2, 75038, Note_on_c, 0, 67, 0
2, 75040, Note_on_c, 0, 65, 84
2, 75070, Note_on_c, 0, 65, 0
2, 75072, Note_on_c, 0, 63, 84
2, 75102, Note_on_c, 0, 63, 0
2, 75104, Note_on_c, 0, 61, 84
2, 75134, Note_on_c, 0, 61, 0
2, 75136, Note_on_c, 0, 60, 84
2, 75166, Note_on_c, 0, 60, 0
2, 75168, Note_on_c, 0, 68, 84
2, 75235, Note_on_c, 0, 68, 0
2, 75240, Note_on_c, 0, 60, 84
2, 75263, Note_on_c, 0, 60, 0
2, 75264, Note_on_c, 0, 63, 84
2, 75277, Note_on_c, 0, 63, 0
2, 75278, Note_on_c, 0, 61, 84
2, 75291, Note_on_c, 0, 61, 0
2, 75292, Note_on_c, 0, 63, 84
2, 75305, Note_on_c, 0, 63, 0
2, 75306, Note_on_c, 0, 61, 84
2, 75319, Note_on_c, 0, 61, 0
2, 75320, Note_on_c, 0, 63, 84
2, 75333, Note_on_c, 0, 63, 0
2, 75334, Note_on_c, 0, 61, 84
2, 75347, Note_on_c, 0, 61, 0
2, 75348, Note_on_c, 0, 63, 84
2, 75361, Note_on_c, 0, 63, 0
2, 75362, Note_on_c, 0, 61, 84
2, 75375, Note_on_c, 0, 61, 0
2, 75376, Note_on_c, 0, 63, 84
2, 75389, Note_on_c, 0, 63, 0
2, 75390, Note_on_c, 0, 61, 84
2, 75403, Note_on_c, 0, 61, 0
2, 75404, Note_on_c, 0, 63, 84
2, 75416, Note_on_c, 0, 63, 0
2, 75417, Note_on_c, 0, 61, 84
2, 75429, Note_on_c, 0, 61, 0
2, 75430, Note_on_c, 0, 60, 84
2, 75442, Note_on_c, 0, 60, 0
2, 75443, Note_on_c, 0, 61, 84
2, 75455, Note_on_c, 0, 61, 0
2, 75456, Note_on_c, 0, 63, 84
2, 75545, Note_on_c, 0, 63, 0
2, 75552, Note_on_c, 0, 63, 84
2, 75591, Note_on_c, 0, 63, 0
2, 75648, Note_on_c, 0, 68, 84
2, 75913, Note_on_c, 0, 68, 0
2, 75936, Note_on_c, 0, 72, 71
2, 75960, Note_on_c, 0, 72, 0
2, 75960, Note_on_c, 0, 70, 70
2, 76027, Note_on_c, 0, 70, 0
2, 76032, Note_on_c, 0, 68, 70
2, 76121, Note_on_c, 0, 68, 0
2, 76128, Note_on_c, 0, 68, 71
2, 76217, Note_on_c, 0, 68, 0
2, 76224, Note_on_c, 0, 68, 73
2, 76313, Note_on_c, 0, 68, 0
2, 76320, Note_on_c, 0, 73, 75
2, 76344, Note_on_c, 0, 73, 0
2, 76344, Note_on_c, 0, 70, 75
2, 76411, Note_on_c, 0, 70, 0
2, 76416, Note_on_c, 0, 75, 77
2, 76505, Note_on_c, 0, 75, 0
2, 76512, Note_on_c, 0, 75, 74
2, 76601, Note_on_c, 0, 75, 0
2, 76608, Note_on_c, 0, 75, 72
2, 76697, Note_on_c, 0, 75, 0
2, 76704, Note_on_c, 0, 73, 70
2, 76728, Note_on_c, 0, 73, 0
2, 76728, Note_on_c, 0, 70, 70
2, 76795, Note_on_c, 0, 70, 0
2, 76800, Note_on_c, 0, 68, 70
2, 77065, Note_on_c, 0, 68, 0
2, 77088, Note_on_c, 0, 72, 70
2, 77112, Note_on_c, 0, 72, 0
2, 77112, Note_on_c, 0, 70, 70
2, 77179, Note_on_c, 0, 70, 0
2, 77184, Note_on_c, 0, 68, 70
2, 77273, Note_on_c, 0, 68, 0
2, 77280, Note_on_c, 0, 68, 71
2, 77369, Note_on_c, 0, 68, 0
2, 77376, Note_on_c, 0, 68, 73
2, 77465, Note_on_c, 0, 68, 0
2, 77472, Note_on_c, 0, 73, 75
2, 77496, Note_on_c, 0, 73, 0
2, 77496, Note_on_c, 0, 70, 75
2, 77563, Note_on_c, 0, 70, 0
2, 77568, Note_on_c, 0, 75, 77
2, 77657, Note_on_c, 0, 75, 0
2, 77664, Note_on_c, 0, 75, 75
2, 77753, Note_on_c, 0, 75, 0
2, 77760, Note_on_c, 0, 75, 73
2, 77849, Note_on_c, 0, 75, 0
2, 77856, Note_on_c, 0, 73, 71
2, 77880, Note_on_c, 0, 73, 0
2, 77880, Note_on_c, 0, 70, 71
2, 77947, Note_on_c, 0, 70, 0
2, 77952, Note_on_c, 0, 68, 70
2, 78217, Note_on_c, 0, 68, 0
2, 78240, Note_on_c, 0, 72, 70
2, 78264, Note_on_c, 0, 72, 0
2, 78264, Note_on_c, 0, 70, 70
2, 78331, Note_on_c, 0, 70, 0
2, 78336, Note_on_c, 0, 68, 70
2, 78425, Note_on_c, 0, 68, 0
2, 78432, Note_on_c, 0, 75, 56
2, 78432, Note_on_c, 0, 72, 56
2, 78521, Note_on_c, 0, 75, 0
2, 78521, Note_on_c, 0, 72, 0
2, 78528, Note_on_c, 0, 75, 56
2, 78528, Note_on_c, 0, 72, 56
2, 78617, Note_on_c, 0, 75, 0
2, 78617, Note_on_c, 0, 72, 0
2, 79008, Note_on_c, 0, 58, 77
2, 79075, Note_on_c, 0, 58, 0
2, 79080, Note_on_c, 0, 55, 77
2, 79103, Note_on_c, 0, 55, 0
2, 79104, Note_on_c, 0, 63, 77
2, 79171, Note_on_c, 0, 63, 0
2, 79176, Note_on_c, 0, 63, 77
2, 79199, Note_on_c, 0, 63, 0
2, 79200, Note_on_c, 0, 65, 77
2, 79212, Note_on_c, 0, 65, 0
2, 79212, Note_on_c, 0, 63, 77
2, 79224, Note_on_c, 0, 63, 0
2, 79224, Note_on_c, 0, 65, 77
2, 79236, Note_on_c, 0, 65, 0
2, 79236, Note_on_c, 0, 63, 77
2, 79248, Note_on_c, 0, 63, 0
2, 79248, Note_on_c, 0, 62, 77
2, 79272, Note_on_c, 0, 62, 0
2, 79272, Note_on_c, 0, 63, 77
2, 79296, Note_on_c, 0, 63, 0
2, 79296, Note_on_c, 0, 65, 77
2, 79385, Note_on_c, 0, 65, 0
2, 79392, Note_on_c, 0, 58, 77
2, 79459, Note_on_c, 0, 58, 0
2, 79464, Note_on_c, 0, 70, 77
2, 79487, Note_on_c, 0, 70, 0
2, 79488, Note_on_c, 0, 68, 77
2, 79680, Note_on_c, 0, 68, 0
2, 79680, Note_on_c, 0, 67, 77
2, 79700, Note_on_c, 0, 67, 0
2, 79776, Note_on_c, 0, 63, 77
2, 79843, Note_on_c, 0, 63, 0
2, 79848, Note_on_c, 0, 72, 77
2, 79871, Note_on_c, 0, 72, 0
2, 79872, Note_on_c, 0, 70, 77
2, 80064, Note_on_c, 0, 70, 0
2, 80064, Note_on_c, 0, 68, 77
2, 80084, Note_on_c, 0, 68, 0
2, 80160, Note_on_c, 0, 58, 77
2, 80227, Note_on_c, 0, 58, 0
2, 80232, Note_on_c, 0, 70, 77
2, 80255, Note_on_c, 0, 70, 0
2, 80256, Note_on_c, 0, 68, 77
2, 80448, Note_on_c, 0, 68, 0
2, 80448, Note_on_c, 0, 67, 77
2, 80468, Note_on_c, 0, 67, 0
2, 80544, Note_on_c, 0, 75, 77
2, 80611, Note_on_c, 0, 75, 0
2, 80616, Note_on_c, 0, 67, 77
2, 80639, Note_on_c, 0, 67, 0
2, 80640, Note_on_c, 0, 65, 77
2, 80707, Note_on_c, 0, 65, 0
2, 80712, Note_on_c, 0, 65, 77
2, 80735, Note_on_c, 0, 65, 0
2, 80736, Note_on_c, 0, 67, 77
2, 80748, Note_on_c, 0, 67, 0
2, 80748, Note_on_c, 0, 65, 77
2, 80760, Note_on_c, 0, 65, 0
2, 80760, Note_on_c, 0, 67, 77
2, 80772, Note_on_c, 0, 67, 0
2, 80772, Note_on_c, 0, 65, 77
2, 80784, Note_on_c, 0, 65, 0
2, 80784, Note_on_c, 0, 64, 77
2, 80808, Note_on_c, 0, 64, 0
2, 80808, Note_on_c, 0, 65, 77
2, 80832, Note_on_c, 0, 65, 0
2, 80832, Note_on_c, 0, 68, 77
2, 80899, Note_on_c, 0, 68, 0
2, 80904, Note_on_c, 0, 65, 77
2, 80927, Note_on_c, 0, 65, 0
2, 80928, Note_on_c, 0, 62, 77
2, 80995, Note_on_c, 0, 62, 0
2, 81000, Note_on_c, 0, 58, 77
2, 81023, Note_on_c, 0, 58, 0
2, 81024, Note_on_c, 0, 63, 77
2, 81113, Note_on_c, 0, 63, 0
2, 81288, Note_on_c, 0, 67, 77
2, 81311, Note_on_c, 0, 67, 0
2, 81312, Note_on_c, 0, 70, 77
2, 81379, Note_on_c, 0, 70, 0
2, 81384, Note_on_c, 0, 75, 78
2, 81407, Note_on_c, 0, 75, 0
2, 81408, Note_on_c, 0, 79, 78
2, 81475, Note_on_c, 0, 79, 0
2, 81480, Note_on_c, 0, 70, 79
2, 81503, Note_on_c, 0, 70, 0
2, 81504, Note_on_c, 0, 75, 79
2, 81571, Note_on_c, 0, 75, 0
2, 81576, Note_on_c, 0, 79, 80
2, 81599, Note_on_c, 0, 79, 0
2, 81600, Note_on_c, 0, 82, 81
2, 81667, Note_on_c, 0, 82, 0
2, 81672, Note_on_c, 0, 75, 82
2, 81695, Note_on_c, 0, 75, 0
2, 81696, Note_on_c, 0, 79, 82
2, 81763, Note_on_c, 0, 79, 0
2, 81768, Note_on_c, 0, 82, 83
2, 81791, Note_on_c, 0, 82, 0
2, 81792, Note_on_c, 0, 85, 100
2, 81984, Note_on_c, 0, 85, 0
2, 81984, Note_on_c, 0, 85, 84
2, 81998, Note_on_c, 0, 85, 0
2, 81999, Note_on_c, 0, 84, 83
2, 82013, Note_on_c, 0, 84, 0
2, 82014, Note_on_c, 0, 85, 83
2, 82028, Note_on_c, 0, 85, 0
2, 82029, Note_on_c, 0, 84, 82
2, 82043, Note_on_c, 0, 84, 0
2, 82044, Note_on_c, 0, 85, 82
2, 82058, Note_on_c, 0, 85, 0
2, 82059, Note_on_c, 0, 84, 81
2, 82073, Note_on_c, 0, 84, 0
2, 82074, Note_on_c, 0, 85, 81
2, 82088, Note_on_c, 0, 85, 0
2, 82089, Note_on_c, 0, 84, 80
2, 82103, Note_on_c, 0, 84, 0
2, 82104, Note_on_c, 0, 85, 80
2, 82118, Note_on_c, 0, 85, 0
2, 82119, Note_on_c, 0, 84, 80
2, 82133, Note_on_c, 0, 84, 0
2, 82134, Note_on_c, 0, 82, 79
2, 82175, Note_on_c, 0, 82, 0
2, 82176, Note_on_c, 0, 80, 77
2, 82265, Note_on_c, 0, 80, 0
2, 82272, Note_on_c, 0, 77, 77
2, 82361, Note_on_c, 0, 77, 0
2, 82368, Note_on_c, 0, 77, 77
2, 82457, Note_on_c, 0, 77, 0
2, 82464, Note_on_c, 0, 79, 77
2, 82553, Note_on_c, 0, 79, 0
2, 82560, Note_on_c, 0, 79, 77
2, 82572, Note_on_c, 0, 79, 0
2, 82572, Note_on_c, 0, 80, 77
2, 82752, Note_on_c, 0, 80, 0
2, 82752, Note_on_c, 0, 77, 77
2, 82929, Note_on_c, 0, 77, 0
2, 82944, Note_on_c, 0, 80, 77
2, 83033, Note_on_c, 0, 80, 0
2, 83040, Note_on_c, 0, 80, 79
2, 83129, Note_on_c, 0, 80, 0
2, 83136, Note_on_c, 0, 80, 81
2, 83203, Note_on_c, 0, 80, 0
2, 83208, Note_on_c, 0, 84, 83
2, 83231, Note_on_c, 0, 84, 0
2, 83232, Note_on_c, 0, 85, 84
2, 83244, Note_on_c, 0, 85, 0
2, 83244, Note_on_c, 0, 84, 84
2, 83256, Note_on_c, 0, 84, 0
2, 83256, Note_on_c, 0, 85, 84
2, 83268, Note_on_c, 0, 85, 0
2, 83268, Note_on_c, 0, 84, 84
2, 83280, Note_on_c, 0, 84, 0
2, 83280, Note_on_c, 0, 82, 84
2, 83304, Note_on_c, 0, 82, 0
2, 83304, Note_on_c, 0, 84, 84
2, 83328, Note_on_c, 0, 84, 0
2, 83328, Note_on_c, 0, 85, 84
2, 83520, Note_on_c, 0, 85, 0
2, 83520, Note_on_c, 0, 73, 80
2, 83697, Note_on_c, 0, 73, 0
2, 83712, Note_on_c, 0, 82, 77
2, 83801, Note_on_c, 0, 82, 0
2, 83808, Note_on_c, 0, 82, 77
2, 83897, Note_on_c, 0, 82, 0
2, 83904, Note_on_c, 0, 82, 77
2, 83993, Note_on_c, 0, 82, 0
2, 84000, Note_on_c, 0, 82, 77
2, 84012, Note_on_c, 0, 82, 0
2, 84012, Note_on_c, 0, 80, 77
2, 84024, Note_on_c, 0, 80, 0
2, 84024, Note_on_c, 0, 82, 77
2, 84036, Note_on_c, 0, 82, 0
2, 84036, Note_on_c, 0, 80, 77
2, 84048, Note_on_c, 0, 80, 0
2, 84048, Note_on_c, 0, 79, 77
2, 84072, Note_on_c, 0, 79, 0
2, 84072, Note_on_c, 0, 80, 77
2, 84096, Note_on_c, 0, 80, 0
2, 84096, Note_on_c, 0, 79, 77
2, 84288, Note_on_c, 0, 79, 0
2, 84288, Note_on_c, 0, 75, 77
2, 84465, Note_on_c, 0, 75, 0
2, 84480, Note_on_c, 0, 74, 77
2, 84569, Note_on_c, 0, 74, 0
2, 84576, Note_on_c, 0, 74, 77
2, 84665, Note_on_c, 0, 74, 0
2, 84672, Note_on_c, 0, 74, 77
2, 84739, Note_on_c, 0, 74, 0
2, 84744, Note_on_c, 0, 74, 78
2, 84767, Note_on_c, 0, 74, 0
2, 84768, Note_on_c, 0, 75, 78
2, 84780, Note_on_c, 0, 75, 0
2, 84780, Note_on_c, 0, 74, 78
2, 84792, Note_on_c, 0, 74, 0
2, 84792, Note_on_c, 0, 75, 78
2, 84804, Note_on_c, 0, 75, 0
2, 84804, Note_on_c, 0, 74, 78
2, 84816, Note_on_c, 0, 74, 0
2, 84816, Note_on_c, 0, 72, 78
2, 84840, Note_on_c, 0, 72, 0
2, 84840, Note_on_c, 0, 74, 78
2, 84864, Note_on_c, 0, 74, 0
2, 84864, Note_on_c, 0, 75, 78
2, 84953, Note_on_c, 0, 75, 0
2, 84960, Note_on_c, 0, 75, 79
2, 85049, Note_on_c, 0, 75, 0
2, 85056, Note_on_c, 0, 75, 80
2, 85123, Note_on_c, 0, 75, 0
2, 85128, Note_on_c, 0, 75, 80
2, 85151, Note_on_c, 0, 75, 0
2, 85152, Note_on_c, 0, 77, 80
2, 85164, Note_on_c, 0, 77, 0
2, 85164, Note_on_c, 0, 75, 80
2, 85176, Note_on_c, 0, 75, 0
2, 85176, Note_on_c, 0, 77, 80
2, 85188, Note_on_c, 0, 77, 0
2, 85188, Note_on_c, 0, 75, 81
2, 85200, Note_on_c, 0, 75, 0
2, 85200, Note_on_c, 0, 74, 81
2, 85224, Note_on_c, 0, 74, 0
2, 85224, Note_on_c, 0, 75, 81
2, 85248, Note_on_c, 0, 75, 0
2, 85248, Note_on_c, 0, 77, 81
2, 85337, Note_on_c, 0, 77, 0
2, 85344, Note_on_c, 0, 77, 82
2, 85433, Note_on_c, 0, 77, 0
2, 85440, Note_on_c, 0, 77, 82
2, 85507, Note_on_c, 0, 77, 0
2, 85512, Note_on_c, 0, 77, 83
2, 85535, Note_on_c, 0, 77, 0
2, 85536, Note_on_c, 0, 78, 83
2, 85548, Note_on_c, 0, 78, 0
2, 85548, Note_on_c, 0, 77, 83
2, 85560, Note_on_c, 0, 77, 0
2, 85560, Note_on_c, 0, 78, 83
2, 85572, Note_on_c, 0, 78, 0
2, 85572, Note_on_c, 0, 77, 83
2, 85584, Note_on_c, 0, 77, 0
2, 85584, Note_on_c, 0, 75, 83
2, 85608, Note_on_c, 0, 75, 0
2, 85608, Note_on_c, 0, 77, 83
2, 85632, Note_on_c, 0, 77, 0
2, 85632, Note_on_c, 0, 78, 84
2, 85721, Note_on_c, 0, 78, 0
2, 85728, Note_on_c, 0, 78, 84
2, 85817, Note_on_c, 0, 78, 0
2, 85824, Note_on_c, 0, 78, 84
2, 85891, Note_on_c, 0, 78, 0
2, 85896, Note_on_c, 0, 78, 84
2, 85919, Note_on_c, 0, 78, 0
2, 85920, Note_on_c, 0, 80, 84
2, 85932, Note_on_c, 0, 80, 0
2, 85932, Note_on_c, 0, 78, 84
2, 85944, Note_on_c, 0, 78, 0
2, 85944, Note_on_c, 0, 80, 84
2, 85956, Note_on_c, 0, 80, 0
2, 85956, Note_on_c, 0, 78, 84
2, 85968, Note_on_c, 0, 78, 0
2, 85968, Note_on_c, 0, 77, 84
2, 85992, Note_on_c, 0, 77, 0
2, 85992, Note_on_c, 0, 78, 84
2, 86016, Note_on_c, 0, 78, 0
2, 86016, Note_on_c, 0, 83, 84
2, 86105, Note_on_c, 0, 83, 0
2, 86112, Note_on_c, 0, 83, 84
2, 86201, Note_on_c, 0, 83, 0
2, 86208, Note_on_c, 0, 83, 85
2, 86275, Note_on_c, 0, 83, 0
2, 86280, Note_on_c, 0, 83, 86
2, 86303, Note_on_c, 0, 83, 0
2, 86304, Note_on_c, 0, 85, 86
2, 86316, Note_on_c, 0, 85, 0
2, 86316, Note_on_c, 0, 83, 86
2, 86328, Note_on_c, 0, 83, 0
2, 86328, Note_on_c, 0, 85, 86
2, 86340, Note_on_c, 0, 85, 0
2, 86340, Note_on_c, 0, 83, 86
2, 86352, Note_on_c, 0, 83, 0
2, 86352, Note_on_c, 0, 82, 86
2, 86376, Note_on_c, 0, 82, 0
2, 86376, Note_on_c, 0, 83, 86
2, 86400, Note_on_c, 0, 83, 0
2, 86400, Note_on_c, 0, 82, 87
2, 86489, Note_on_c, 0, 82, 0
2, 86496, Note_on_c, 0, 82, 87
2, 86585, Note_on_c, 0, 82, 0
2, 86592, Note_on_c, 0, 82, 88
2, 86681, Note_on_c, 0, 82, 0
2, 86688, Note_on_c, 0, 82, 89
2, 86700, Note_on_c, 0, 82, 0
2, 86700, Note_on_c, 0, 80, 89
2, 86712, Note_on_c, 0, 80, 0
2, 86712, Note_on_c, 0, 82, 89
2, 86724, Note_on_c, 0, 82, 0
2, 86724, Note_on_c, 0, 80, 89
2, 86736, Note_on_c, 0, 80, 0
2, 86736, Note_on_c, 0, 79, 89
2, 86760, Note_on_c, 0, 79, 0
2, 86760, Note_on_c, 0, 80, 89
2, 86784, Note_on_c, 0, 80, 0
2, 86784, Note_on_c, 0, 79, 90
2, 86976, Note_on_c, 0, 79, 0
2, 86976, Note_on_c, 0, 75, 91
2, 87153, Note_on_c, 0, 75, 0
2, 87168, Note_on_c, 0, 84, 93
2, 87257, Note_on_c, 0, 84, 0
2, 87264, Note_on_c, 0, 84, 93
2, 87353, Note_on_c, 0, 84, 0
2, 87360, Note_on_c, 0, 84, 93
2, 87449, Note_on_c, 0, 84, 0
2, 87456, Note_on_c, 0, 84, 93
2, 87468, Note_on_c, 0, 84, 0
2, 87468, Note_on_c, 0, 82, 93
2, 87480, Note_on_c, 0, 82, 0
2, 87480, Note_on_c, 0, 84, 93
2, 87492, Note_on_c, 0, 84, 0
2, 87492, Note_on_c, 0, 82, 93
2, 87504, Note_on_c, 0, 82, 0
2, 87504, Note_on_c, 0, 80, 93
2, 87528, Note_on_c, 0, 80, 0
2, 87528, Note_on_c, 0, 82, 93
2, 87552, Note_on_c, 0, 82, 0
2, 87552, Note_on_c, 0, 80, 93
2, 87582, Note_on_c, 0, 80, 0
2, 87584, Note_on_c, 0, 84, 92
2, 87614, Note_on_c, 0, 84, 0
2, 87616, Note_on_c, 0, 82, 91
2, 87646, Note_on_c, 0, 82, 0
2, 87648, Note_on_c, 0, 80, 90
2, 87678, Note_on_c, 0, 80, 0
2, 87680, Note_on_c, 0, 79, 90
2, 87710, Note_on_c, 0, 79, 0
2, 87712, Note_on_c, 0, 77, 89
2, 87742, Note_on_c, 0, 77, 0
2, 87744, Note_on_c, 0, 75, 88
2, 87774, Note_on_c, 0, 75, 0
2, 87776, Note_on_c, 0, 73, 88
2, 87806, Note_on_c, 0, 73, 0
2, 87808, Note_on_c, 0, 72, 87
2, 87838, Note_on_c, 0, 72, 0
2, 87840, Note_on_c, 0, 70, 86
2, 87870, Note_on_c, 0, 70, 0
2, 87872, Note_on_c, 0, 68, 85
2, 87902, Note_on_c, 0, 68, 0
2, 87904, Note_on_c, 0, 67, 85
2, 87934, Note_on_c, 0, 67, 0
2, 87936, Note_on_c, 0, 65, 84
2, 87966, Note_on_c, 0, 65, 0
2, 87968, Note_on_c, 0, 72, 84
2, 87998, Note_on_c, 0, 72, 0
2, 88000, Note_on_c, 0, 70, 84
2, 88030, Note_on_c, 0, 70, 0
2, 88032, Note_on_c, 0, 68, 84
2, 88062, Note_on_c, 0, 68, 0
2, 88064, Note_on_c, 0, 67, 84
2, 88094, Note_on_c, 0, 67, 0
2, 88096, Note_on_c, 0, 65, 84
2, 88126, Note_on_c, 0, 65, 0
2, 88128, Note_on_c, 0, 63, 84
2, 88158, Note_on_c, 0, 63, 0
2, 88160, Note_on_c, 0, 61, 84
2, 88190, Note_on_c, 0, 61, 0
2, 88192, Note_on_c, 0, 60, 84
2, 88222, Note_on_c, 0, 60, 0
2, 88224, Note_on_c, 0, 58, 84
2, 88254, Note_on_c, 0, 58, 0
2, 88256, Note_on_c, 0, 56, 84
2, 88286, Note_on_c, 0, 56, 0
2, 88288, Note_on_c, 0, 55, 84
2, 88318, Note_on_c, 0, 55, 0
2, 88320, Note_on_c, 0, 53, 84
2, 88409, Note_on_c, 0, 53, 0
2, 88416, Note_on_c, 0, 53, 84
2, 88505, Note_on_c, 0, 53, 0
2, 88512, Note_on_c, 0, 53, 84
2, 88601, Note_on_c, 0, 53, 0
2, 88608, Note_on_c, 0, 63, 84
2, 88697, Note_on_c, 0, 63, 0
2, 88704, Note_on_c, 0, 63, 84
2, 88719, Note_on_c, 0, 63, 0
2, 88720, Note_on_c, 0, 61, 84
2, 88735, Note_on_c, 0, 61, 0
2, 88736, Note_on_c, 0, 63, 84
2, 88751, Note_on_c, 0, 63, 0
2, 88752, Note_on_c, 0, 61, 84
2, 88767, Note_on_c, 0, 61, 0
2, 88768, Note_on_c, 0, 63, 84
2, 88783, Note_on_c, 0, 63, 0
2, 88784, Note_on_c, 0, 61, 84
2, 88799, Note_on_c, 0, 61, 0
2, 88800, Note_on_c, 0, 63, 84
2, 88815, Note_on_c, 0, 63, 0
2, 88816, Note_on_c, 0, 61, 84
2, 88831, Note_on_c, 0, 61, 0
2, 88832, Note_on_c, 0, 63, 84
2, 88847, Note_on_c, 0, 63, 0
2, 88848, Note_on_c, 0, 61, 84
2, 88863, Note_on_c, 0, 61, 0
2, 88864, Note_on_c, 0, 60, 84
2, 88895, Note_on_c, 0, 60, 0
2, 88896, Note_on_c, 0, 58, 84
2, 88985, Note_on_c, 0, 58, 0
2, 89088, Note_on_c, 0, 55, 84
2, 89177, Note_on_c, 0, 55, 0
2, 89184, Note_on_c, 0, 55, 84
2, 89273, Note_on_c, 0, 55, 0
2, 89280, Note_on_c, 0, 55, 84
2, 89369, Note_on_c, 0, 55, 0
2, 89376, Note_on_c, 0, 65, 84
2, 89465, Note_on_c, 0, 65, 0
2, 89472, Note_on_c, 0, 64, 84
2, 89502, Note_on_c, 0, 64, 0
2, 89504, Note_on_c, 0, 62, 84
2, 89534, Note_on_c, 0, 62, 0
2, 89536, Note_on_c, 0, 60, 84
2, 89566, Note_on_c, 0, 60, 0
2, 89568, Note_on_c, 0, 60, 84
2, 89581, Note_on_c, 0, 60, 0
2, 89600, Note_on_c, 0, 60, 85
2, 89613, Note_on_c, 0, 60, 0
2, 89632, Note_on_c, 0, 60, 85
2, 89645, Note_on_c, 0, 60, 0
2, 89664, Note_on_c, 0, 67, 85
2, 89694, Note_on_c, 0, 67, 0
2, 89696, Note_on_c, 0, 65, 86
2, 89726, Note_on_c, 0, 65, 0
2, 89728, Note_on_c, 0, 64, 86
2, 89758, Note_on_c, 0, 64, 0
2, 89760, Note_on_c, 0, 64, 86
2, 89773, Note_on_c, 0, 64, 0
2, 89792, Note_on_c, 0, 64, 87
2, 89805, Note_on_c, 0, 64, 0
2, 89824, Note_on_c, 0, 64, 87
2, 89837, Note_on_c, 0, 64, 0
2, 89856, Note_on_c, 0, 70, 88
2, 89886, Note_on_c, 0, 70, 0
2, 89888, Note_on_c, 0, 68, 88
2, 89918, Note_on_c, 0, 68, 0
2, 89920, Note_on_c, 0, 67, 88
2, 89950, Note_on_c, 0, 67, 0
2, 89952, Note_on_c, 0, 67, 89
2, 89965, Note_on_c, 0, 67, 0
2, 89984, Note_on_c, 0, 67, 89
2, 89997, Note_on_c, 0, 67, 0
2, 90016, Note_on_c, 0, 67, 89
2, 90029, Note_on_c, 0, 67, 0
2, 90048, Note_on_c, 0, 79, 90
2, 90078, Note_on_c, 0, 79, 0
2, 90080, Note_on_c, 0, 77, 90
2, 90110, Note_on_c, 0, 77, 0
2, 90112, Note_on_c, 0, 76, 90
2, 90142, Note_on_c, 0, 76, 0
2, 90144, Note_on_c, 0, 73, 91
2, 90174, Note_on_c, 0, 73, 0
2, 90176, Note_on_c, 0, 72, 91
2, 90206, Note_on_c, 0, 72, 0
2, 90208, Note_on_c, 0, 70, 92
2, 90238, Note_on_c, 0, 70, 0
2, 90240, Note_on_c, 0, 68, 93
2, 90270, Note_on_c, 0, 68, 0
2, 90272, Note_on_c, 0, 72, 93
2, 90302, Note_on_c, 0, 72, 0
2, 90304, Note_on_c, 0, 77, 93
2, 90317, Note_on_c, 0, 77, 0
2, 90336, Note_on_c, 0, 77, 93
2, 90349, Note_on_c, 0, 77, 0
2, 90368, Note_on_c, 0, 77, 93
2, 90381, Note_on_c, 0, 77, 0
2, 90400, Note_on_c, 0, 77, 93
2, 90413, Note_on_c, 0, 77, 0
2, 90432, Note_on_c, 0, 76, 93
2, 90462, Note_on_c, 0, 76, 0
2, 90464, Note_on_c, 0, 79, 93
2, 90494, Note_on_c, 0, 79, 0
2, 90496, Note_on_c, 0, 82, 93
2, 90509, Note_on_c, 0, 82, 0
2, 90528, Note_on_c, 0, 82, 93
2, 90541, Note_on_c, 0, 82, 0
2, 90560, Note_on_c, 0, 82, 93
2, 90573, Note_on_c, 0, 82, 0
2, 90592, Note_on_c, 0, 82, 93
2, 90605, Note_on_c, 0, 82, 0
2, 90624, Note_on_c, 0, 80, 93
2, 90654, Note_on_c, 0, 80, 0
2, 90656, Note_on_c, 0, 84, 93
2, 90686, Note_on_c, 0, 84, 0
2, 90688, Note_on_c, 0, 89, 93
2, 90701, Note_on_c, 0, 89, 0
2, 90720, Note_on_c, 0, 89, 93
2, 90733, Note_on_c, 0, 89, 0
2, 90752, Note_on_c, 0, 89, 93
2, 90765, Note_on_c, 0, 89, 0
2, 90784, Note_on_c, 0, 89, 93
2, 90797, Note_on_c, 0, 89, 0
2, 90816, Note_on_c, 0, 79, 93
2, 90846, Note_on_c, 0, 79, 0
2, 90848, Note_on_c, 0, 82, 93
2, 90878, Note_on_c, 0, 82, 0
2, 90880, Note_on_c, 0, 85, 93
2, 90893, Note_on_c, 0, 85, 0
2, 90912, Note_on_c, 0, 85, 93
2, 90925, Note_on_c, 0, 85, 0
2, 90944, Note_on_c, 0, 85, 93
2, 90957, Note_on_c, 0, 85, 0
2, 90976, Note_on_c, 0, 85, 93
2, 90989, Note_on_c, 0, 85, 0
2, 91104, Note_on_c, 0, 84, 81
2, 91104, Note_on_c, 0, 80, 81
2, 91193, Note_on_c, 0, 84, 0
2, 91193, Note_on_c, 0, 80, 0
2, 91296, Note_on_c, 0, 76, 75
2, 91296, Note_on_c, 0, 70, 75
2, 91385, Note_on_c, 0, 76, 0
2, 91385, Note_on_c, 0, 70, 0
2, 91392, Note_on_c, 0, 75, 72
2, 91481, Note_on_c, 0, 75, 0
2, 91488, Note_on_c, 0, 75, 70
2, 91577, Note_on_c, 0, 75, 0
2, 91584, Note_on_c, 0, 75, 70
2, 91673, Note_on_c, 0, 75, 0
2, 91680, Note_on_c, 0, 75, 70
2, 91769, Note_on_c, 0, 75, 0
2, 91776, Note_on_c, 0, 74, 70
2, 91968, Note_on_c, 0, 74, 0
2, 91968, Note_on_c, 0, 70, 75
2, 92145, Note_on_c, 0, 70, 0
2, 92160, Note_on_c, 0, 73, 81
2, 92249, Note_on_c, 0, 73, 0
2, 92256, Note_on_c, 0, 73, 84
2, 92345, Note_on_c, 0, 73, 0
2, 92352, Note_on_c, 0, 75, 84
2, 92364, Note_on_c, 0, 75, 0
2, 92364, Note_on_c, 0, 73, 84
2, 92376, Note_on_c, 0, 73, 0
2, 92376, Note_on_c, 0, 75, 84
2, 92388, Note_on_c, 0, 75, 0
2, 92388, Note_on_c, 0, 73, 84
2, 92400, Note_on_c, 0, 73, 0
2, 92400, Note_on_c, 0, 75, 84
2, 92412, Note_on_c, 0, 75, 0
2, 92412, Note_on_c, 0, 73, 84
2, 92424, Note_on_c, 0, 73, 0
2, 92424, Note_on_c, 0, 72, 84
2, 92436, Note_on_c, 0, 72, 0
2, 92436, Note_on_c, 0, 73, 84
2, 92448, Note_on_c, 0, 73, 0
2, 92448, Note_on_c, 0, 82, 84
2, 92493, Note_on_c, 0, 82, 0
2, 92496, Note_on_c, 0, 73, 84
2, 92541, Note_on_c, 0, 73, 0
2, 92544, Note_on_c, 0, 72, 84
2, 92633, Note_on_c, 0, 72, 0
2, 92640, Note_on_c, 0, 72, 84
2, 92729, Note_on_c, 0, 72, 0
2, 92736, Note_on_c, 0, 73, 84
2, 92748, Note_on_c, 0, 73, 0
2, 92748, Note_on_c, 0, 72, 84
2, 92760, Note_on_c, 0, 72, 0
2, 92760, Note_on_c, 0, 73, 84
2, 92772, Note_on_c, 0, 73, 0
2, 92772, Note_on_c, 0, 72, 84
2, 92784, Note_on_c, 0, 72, 0
2, 92784, Note_on_c, 0, 73, 84
2, 92796, Note_on_c, 0, 73, 0
2, 92796, Note_on_c, 0, 72, 84
2, 92808, Note_on_c, 0, 72, 0
2, 92808, Note_on_c, 0, 70, 84
2, 92820, Note_on_c, 0, 70, 0
2, 92820, Note_on_c, 0, 72, 84
2, 92832, Note_on_c, 0, 72, 0
2, 92832, Note_on_c, 0, 75, 84
2, 92877, Note_on_c, 0, 75, 0
2, 92880, Note_on_c, 0, 72, 84
2, 92925, Note_on_c, 0, 72, 0
2, 92928, Note_on_c, 0, 70, 84
2, 93017, Note_on_c, 0, 70, 0
2, 93024, Note_on_c, 0, 70, 84
2, 93113, Note_on_c, 0, 70, 0
2, 93120, Note_on_c, 0, 72, 84
2, 93132, Note_on_c, 0, 72, 0
2, 93132, Note_on_c, 0, 70, 84
2, 93144, Note_on_c, 0, 70, 0
2, 93144, Note_on_c, 0, 72, 84
2, 93156, Note_on_c, 0, 72, 0
2, 93156, Note_on_c, 0, 70, 84
2, 93168, Note_on_c, 0, 70, 0
2, 93168, Note_on_c, 0, 72, 84
2, 93180, Note_on_c, 0, 72, 0
2, 93180, Note_on_c, 0, 70, 84
2, 93192, Note_on_c, 0, 70, 0
2, 93192, Note_on_c, 0, 69, 84
2, 93204, Note_on_c, 0, 69, 0
2, 93204, Note_on_c, 0, 70, 84
2, 93216, Note_on_c, 0, 70, 0
2, 93216, Note_on_c, 0, 77, 84
2, 93261, Note_on_c, 0, 77, 0
2, 93264, Note_on_c, 0, 68, 84
2, 93309, Note_on_c, 0, 68, 0
2, 93312, Note_on_c, 0, 67, 84
2, 93342, Note_on_c, 0, 67, 0
2, 93344, Note_on_c, 0, 70, 84
2, 93374, Note_on_c, 0, 70, 0
2, 93376, Note_on_c, 0, 68, 84
2, 93406, Note_on_c, 0, 68, 0
2, 93408, Note_on_c, 0, 67, 84
2, 93438, Note_on_c, 0, 67, 0
2, 93440, Note_on_c, 0, 79, 84
2, 93470, Note_on_c, 0, 79, 0
2, 93472, Note_on_c, 0, 77, 84
2, 93502, Note_on_c, 0, 77, 0
2, 93504, Note_on_c, 0, 75, 84
2, 93534, Note_on_c, 0, 75, 0
2, 93536, Note_on_c, 0, 82, 84
2, 93566, Note_on_c, 0, 82, 0
2, 93568, Note_on_c, 0, 80, 84
2, 93598, Note_on_c, 0, 80, 0
2, 93600, Note_on_c, 0, 79, 84
2, 93630, Note_on_c, 0, 79, 0
2, 93632, Note_on_c, 0, 77, 84
2, 93662, Note_on_c, 0, 77, 0
2, 93664, Note_on_c, 0, 75, 84
2, 93694, Note_on_c, 0, 75, 0
2, 93696, Note_on_c, 0, 74, 84
2, 93726, Note_on_c, 0, 74, 0
2, 93728, Note_on_c, 0, 77, 84
2, 93758, Note_on_c, 0, 77, 0
2, 93760, Note_on_c, 0, 75, 84
2, 93790, Note_on_c, 0, 75, 0
2, 93792, Note_on_c, 0, 74, 84
2, 93822, Note_on_c, 0, 74, 0
2, 93824, Note_on_c, 0, 80, 84
2, 93854, Note_on_c, 0, 80, 0
2, 93856, Note_on_c, 0, 79, 84
2, 93886, Note_on_c, 0, 79, 0
2, 93888, Note_on_c, 0, 77, 84
2, 93918, Note_on_c, 0, 77, 0
2, 93920, Note_on_c, 0, 84, 84
2, 93950, Note_on_c, 0, 84, 0
2, 93952, Note_on_c, 0, 82, 84
2, 93982, Note_on_c, 0, 82, 0
2, 93984, Note_on_c, 0, 80, 84
2, 94014, Note_on_c, 0, 80, 0
2, 94016, Note_on_c, 0, 79, 84
2, 94046, Note_on_c, 0, 79, 0
2, 94048, Note_on_c, 0, 77, 84
2, 94078, Note_on_c, 0, 77, 0
2, 94080, Note_on_c, 0, 75, 84
2, 94128, Note_on_c, 0, 75, 0
2, 94128, Note_on_c, 0, 74, 82
2, 94173, Note_on_c, 0, 74, 0
2, 94176, Note_on_c, 0, 77, 80
2, 94224, Note_on_c, 0, 77, 0
2, 94224, Note_on_c, 0, 75, 78
2, 94269, Note_on_c, 0, 75, 0
2, 94272, Note_on_c, 0, 79, 77
2, 94320, Note_on_c, 0, 79, 0
2, 94320, Note_on_c, 0, 77, 75
2, 94365, Note_on_c, 0, 77, 0
2, 94368, Note_on_c, 0, 80, 73
2, 94416, Note_on_c, 0, 80, 0
2, 94416, Note_on_c, 0, 79, 71
2, 94461, Note_on_c, 0, 79, 0
2, 94464, Note_on_c, 0, 82, 70
2, 94509, Note_on_c, 0, 82, 0
2, 94512, Note_on_c, 0, 80, 68
2, 94557, Note_on_c, 0, 80, 0
2, 94560, Note_on_c, 0, 84, 66
2, 94649, Note_on_c, 0, 84, 0
2, 94656, Note_on_c, 0, 82, 63
2, 94745, Note_on_c, 0, 82, 0
2, 94752, Note_on_c, 0, 80, 63
2, 94841, Note_on_c, 0, 80, 0
2, 94848, Note_on_c, 0, 79, 63
2, 94937, Note_on_c, 0, 79, 0
2, 94944, Note_on_c, 0, 77, 63
2, 95033, Note_on_c, 0, 77, 0
2, 95040, Note_on_c, 0, 75, 63
2, 95129, Note_on_c, 0, 75, 0
2, 95136, Note_on_c, 0, 74, 63
2, 95225, Note_on_c, 0, 74, 0
2, 95232, Note_on_c, 0, 80, 63
2, 95586, Note_on_c, 0, 80, 0
2, 95616, Note_on_c, 0, 79, 63
2, 95705, Note_on_c, 0, 79, 0
2, 95712, Note_on_c, 0, 80, 63
2, 95801, Note_on_c, 0, 80, 0
2, 95808, Note_on_c, 0, 82, 63
2, 95897, Note_on_c, 0, 82, 0
2, 95904, Note_on_c, 0, 80, 63
2, 95993, Note_on_c, 0, 80, 0
2, 96000, Note_on_c, 0, 80, 63
2, 96265, Note_on_c, 0, 80, 0
2, 96288, Note_on_c, 0, 74, 63
2, 96415, Note_on_c, 0, 74, 0
2, 96416, Note_on_c, 0, 77, 63
2, 96431, Note_on_c, 0, 77, 0
2, 96432, Note_on_c, 0, 75, 63
2, 96447, Note_on_c, 0, 75, 0
2, 96448, Note_on_c, 0, 77, 63
2, 96463, Note_on_c, 0, 77, 0
2, 96464, Note_on_c, 0, 75, 63
2, 96479, Note_on_c, 0, 75, 0
2, 96480, Note_on_c, 0, 77, 63
2, 96495, Note_on_c, 0, 77, 0
2, 96496, Note_on_c, 0, 75, 63
2, 96511, Note_on_c, 0, 75, 0
2, 96512, Note_on_c, 0, 77, 63
2, 96527, Note_on_c, 0, 77, 0
2, 96528, Note_on_c, 0, 75, 63
2, 96543, Note_on_c, 0, 75, 0
2, 96544, Note_on_c, 0, 77, 63
2, 96559, Note_on_c, 0, 77, 0
2, 96560, Note_on_c, 0, 75, 63
2, 96575, Note_on_c, 0, 75, 0
2, 96576, Note_on_c, 0, 77, 63
2, 96591, Note_on_c, 0, 77, 0
2, 96592, Note_on_c, 0, 75, 63
2, 96607, Note_on_c, 0, 75, 0
2, 96608, Note_on_c, 0, 77, 63
2, 96623, Note_on_c, 0, 77, 0
2, 96624, Note_on_c, 0, 75, 63
2, 96639, Note_on_c, 0, 75, 0
2, 96640, Note_on_c, 0, 77, 63
2, 96655, Note_on_c, 0, 77, 0
2, 96656, Note_on_c, 0, 75, 63
2, 96671, Note_on_c, 0, 75, 0
2, 96672, Note_on_c, 0, 74, 63
2, 96719, Note_on_c, 0, 74, 0
2, 96720, Note_on_c, 0, 75, 63
2, 96767, Note_on_c, 0, 75, 0
2, 97056, Note_on_c, 0, 63, 77
2, 97123, Note_on_c, 0, 63, 0
2, 97128, Note_on_c, 0, 60, 77
2, 97151, Note_on_c, 0, 60, 0
2, 97152, Note_on_c, 0, 68, 77
2, 97219, Note_on_c, 0, 68, 0
2, 97224, Note_on_c, 0, 68, 77
2, 97247, Note_on_c, 0, 68, 0
2, 97248, Note_on_c, 0, 70, 77
2, 97260, Note_on_c, 0, 70, 0
2, 97260, Note_on_c, 0, 68, 77
2, 97272, Note_on_c, 0, 68, 0
2, 97272, Note_on_c, 0, 70, 77
2, 97284, Note_on_c, 0, 70, 0
2, 97284, Note_on_c, 0, 68, 77
2, 97296, Note_on_c, 0, 68, 0
2, 97296, Note_on_c, 0, 67, 77
2, 97320, Note_on_c, 0, 67, 0
2, 97320, Note_on_c, 0, 68, 77
2, 97344, Note_on_c, 0, 68, 0
2, 97344, Note_on_c, 0, 70, 77
2, 97433, Note_on_c, 0, 70, 0
2, 97440, Note_on_c, 0, 63, 77
2, 97507, Note_on_c, 0, 63, 0
2, 97512, Note_on_c, 0, 75, 77
2, 97535, Note_on_c, 0, 75, 0
2, 97536, Note_on_c, 0, 73, 77
2, 97728, Note_on_c, 0, 73, 0
2, 97728, Note_on_c, 0, 72, 77
2, 97748, Note_on_c, 0, 72, 0
2, 97824, Note_on_c, 0, 68, 77
2, 97891, Note_on_c, 0, 68, 0
2, 97896, Note_on_c, 0, 77, 77
2, 97919, Note_on_c, 0, 77, 0
2, 97920, Note_on_c, 0, 75, 77
2, 98112, Note_on_c, 0, 75, 0
2, 98112, Note_on_c, 0, 73, 77
2, 98132, Note_on_c, 0, 73, 0
2, 98208, Note_on_c, 0, 63, 77
2, 98275, Note_on_c, 0, 63, 0
2, 98280, Note_on_c, 0, 75, 77
2, 98303, Note_on_c, 0, 75, 0
2, 98304, Note_on_c, 0, 73, 77
2, 98496, Note_on_c, 0, 73, 0
2, 98496, Note_on_c, 0, 72, 77
2, 98516, Note_on_c, 0, 72, 0
2, 98592, Note_on_c, 0, 80, 77
2, 98659, Note_on_c, 0, 80, 0
2, 98664, Note_on_c, 0, 72, 77
2, 98687, Note_on_c, 0, 72, 0
2, 98688, Note_on_c, 0, 70, 77
2, 98755, Note_on_c, 0, 70, 0
2, 98760, Note_on_c, 0, 70, 77
2, 98783, Note_on_c, 0, 70, 0
2, 98784, Note_on_c, 0, 72, 77
2, 98796, Note_on_c, 0, 72, 0
2, 98796, Note_on_c, 0, 70, 77
2, 98808, Note_on_c, 0, 70, 0
2, 98808, Note_on_c, 0, 72, 77
2, 98820, Note_on_c, 0, 72, 0
2, 98820, Note_on_c, 0, 70, 77
2, 98832, Note_on_c, 0, 70, 0
2, 98832, Note_on_c, 0, 69, 77
2, 98856, Note_on_c, 0, 69, 0
2, 98856, Note_on_c, 0, 70, 77
2, 98880, Note_on_c, 0, 70, 0
2, 98880, Note_on_c, 0, 73, 77
2, 98947, Note_on_c, 0, 73, 0
2, 98952, Note_on_c, 0, 70, 77
2, 98975, Note_on_c, 0, 70, 0
2, 98976, Note_on_c, 0, 67, 77
2, 99043, Note_on_c, 0, 67, 0
2, 99048, Note_on_c, 0, 63, 77
2, 99071, Note_on_c, 0, 63, 0
2, 99072, Note_on_c, 0, 68, 77
2, 99111, Note_on_c, 0, 68, 0
2, 99360, Note_on_c, 0, 63, 77
2, 99427, Note_on_c, 0, 63, 0
2, 99432, Note_on_c, 0, 60, 77
2, 99455, Note_on_c, 0, 60, 0
2, 99456, Note_on_c, 0, 68, 77
2, 99523, Note_on_c, 0, 68, 0
2, 99528, Note_on_c, 0, 68, 77
2, 99551, Note_on_c, 0, 68, 0
2, 99552, Note_on_c, 0, 70, 77
2, 99564, Note_on_c, 0, 70, 0
2, 99564, Note_on_c, 0, 68, 77
2, 99576, Note_on_c, 0, 68, 0
2, 99576, Note_on_c, 0, 70, 77
2, 99588, Note_on_c, 0, 70, 0
2, 99588, Note_on_c, 0, 68, 77
2, 99600, Note_on_c, 0, 68, 0
2, 99600, Note_on_c, 0, 67, 77
2, 99624, Note_on_c, 0, 67, 0
2, 99624, Note_on_c, 0, 68, 77
2, 99648, Note_on_c, 0, 68, 0
2, 99648, Note_on_c, 0, 70, 77
2, 99737, Note_on_c, 0, 70, 0
2, 99744, Note_on_c, 0, 63, 77
2, 99811, Note_on_c, 0, 63, 0
2, 99816, Note_on_c, 0, 75, 77
2, 99839, Note_on_c, 0, 75, 0
2, 99840, Note_on_c, 0, 73, 77
2, 100032, Note_on_c, 0, 73, 0
2, 100032, Note_on_c, 0, 72, 77
2, 100052, Note_on_c, 0, 72, 0
2, 100128, Note_on_c, 0, 68, 77
2, 100195, Note_on_c, 0, 68, 0
2, 100200, Note_on_c, 0, 80, 77
2, 100223, Note_on_c, 0, 80, 0
2, 100224, Note_on_c, 0, 79, 77
2, 100320, Note_on_c, 0, 79, 0
2, 100320, Note_on_c, 0, 77, 77
2, 100349, Note_on_c, 0, 77, 0
2, 100392, Note_on_c, 0, 80, 77
2, 100415, Note_on_c, 0, 80, 0
2, 100416, Note_on_c, 0, 77, 77
2, 100512, Note_on_c, 0, 77, 0
2, 100512, Note_on_c, 0, 75, 77
2, 100541, Note_on_c, 0, 75, 0
2, 100584, Note_on_c, 0, 80, 77
2, 100607, Note_on_c, 0, 80, 0
2, 100608, Note_on_c, 0, 75, 77
2, 100704, Note_on_c, 0, 75, 0
2, 100704, Note_on_c, 0, 73, 77
2, 100733, Note_on_c, 0, 73, 0
2, 100776, Note_on_c, 0, 80, 77
2, 100799, Note_on_c, 0, 80, 0
2, 100800, Note_on_c, 0, 73, 77
2, 100896, Note_on_c, 0, 73, 0
2, 100896, Note_on_c, 0, 72, 77
2, 100925, Note_on_c, 0, 72, 0
2, 100968, Note_on_c, 0, 80, 77
2, 100991, Note_on_c, 0, 80, 0
2, 100992, Note_on_c, 0, 72, 77
2, 101059, Note_on_c, 0, 72, 0
2, 101064, Note_on_c, 0, 70, 80
2, 101087, Note_on_c, 0, 70, 0
2, 101088, Note_on_c, 0, 73, 81
2, 101155, Note_on_c, 0, 73, 0
2, 101160, Note_on_c, 0, 77, 84
2, 101183, Note_on_c, 0, 77, 0
2, 101184, Note_on_c, 0, 75, 84
2, 101273, Note_on_c, 0, 75, 0
2, 101280, Note_on_c, 0, 67, 80
2, 101369, Note_on_c, 0, 67, 0
2, 101376, Note_on_c, 0, 67, 77
2, 101388, Note_on_c, 0, 67, 0
2, 101388, Note_on_c, 0, 68, 77
2, 101466, Note_on_c, 0, 68, 0
2, 101472, Note_on_c, 0, 67, 77
2, 101484, Note_on_c, 0, 67, 0
2, 101484, Note_on_c, 0, 68, 77
2, 101562, Note_on_c, 0, 68, 0
2, 101568, Note_on_c, 0, 67, 77
2, 101580, Note_on_c, 0, 67, 0
2, 101580, Note_on_c, 0, 68, 77
2, 101658, Note_on_c, 0, 68, 0
2, 101664, Note_on_c, 0, 69, 77
2, 101676, Note_on_c, 0, 69, 0
2, 101676, Note_on_c, 0, 70, 77
2, 101754, Note_on_c, 0, 70, 0
2, 101760, Note_on_c, 0, 71, 77
2, 101772, Note_on_c, 0, 71, 0
2, 101772, Note_on_c, 0, 72, 77
2, 101952, Note_on_c, 0, 72, 0
2, 101952, Note_on_c, 0, 68, 77
2, 102129, Note_on_c, 0, 68, 0
2, 102144, Note_on_c, 0, 71, 77
2, 102156, Note_on_c, 0, 71, 0
2, 102156, Note_on_c, 0, 72, 77
2, 102234, Note_on_c, 0, 72, 0
2, 102240, Note_on_c, 0, 71, 77
2, 102252, Note_on_c, 0, 71, 0
2, 102252, Note_on_c, 0, 72, 77
2, 102330, Note_on_c, 0, 72, 0
2, 102336, Note_on_c, 0, 71, 77
2, 102348, Note_on_c, 0, 71, 0
2, 102348, Note_on_c, 0, 72, 77
2, 102426, Note_on_c, 0, 72, 0
2, 102432, Note_on_c, 0, 75, 77
2, 102455, Note_on_c, 0, 75, 0
2, 102456, Note_on_c, 0, 73, 77
2, 102479, Note_on_c, 0, 73, 0
2, 102480, Note_on_c, 0, 72, 77
2, 102503, Note_on_c, 0, 72, 0
2, 102504, Note_on_c, 0, 73, 77
2, 102527, Note_on_c, 0, 73, 0
2, 102528, Note_on_c, 0, 75, 77
2, 102720, Note_on_c, 0, 75, 0
2, 102720, Note_on_c, 0, 72, 77
2, 102897, Note_on_c, 0, 72, 0
2, 102912, Note_on_c, 0, 80, 77
2, 103001, Note_on_c, 0, 80, 0
2, 103008, Note_on_c, 0, 80, 77
2, 103038, Note_on_c, 0, 80, 0
2, 103040, Note_on_c, 0, 84, 77
2, 103070, Note_on_c, 0, 84, 0
2, 103072, Note_on_c, 0, 87, 77
2, 103102, Note_on_c, 0, 87, 0
2, 103104, Note_on_c, 0, 78, 93
2, 103296, Note_on_c, 0, 78, 0
2, 103296, Note_on_c, 0, 77, 77
2, 103385, Note_on_c, 0, 77, 0
2, 103392, Note_on_c, 0, 77, 77
2, 103422, Note_on_c, 0, 77, 0
2, 103424, Note_on_c, 0, 82, 77
2, 103454, Note_on_c, 0, 82, 0
2, 103456, Note_on_c, 0, 85, 77
2, 103486, Note_on_c, 0, 85, 0
2, 103488, Note_on_c, 0, 75, 93
2, 103632, Note_on_c, 0, 75, 0
2, 103632, Note_on_c, 0, 77, 77
2, 103655, Note_on_c, 0, 77, 0
2, 103656, Note_on_c, 0, 79, 77
2, 103679, Note_on_c, 0, 79, 0
2, 103680, Note_on_c, 0, 80, 77
2, 103769, Note_on_c, 0, 80, 0
2, 103776, Note_on_c, 0, 80, 77
2, 103806, Note_on_c, 0, 80, 0
2, 103808, Note_on_c, 0, 82, 77
2, 103838, Note_on_c, 0, 82, 0
2, 103840, Note_on_c, 0, 84, 77
2, 103870, Note_on_c, 0, 84, 0
2, 103872, Note_on_c, 0, 73, 93
2, 104064, Note_on_c, 0, 73, 0
2, 104064, Note_on_c, 0, 72, 77
2, 104094, Note_on_c, 0, 72, 0
2, 104096, Note_on_c, 0, 75, 77
2, 104126, Note_on_c, 0, 75, 0
2, 104128, Note_on_c, 0, 73, 77
2, 104158, Note_on_c, 0, 73, 0
2, 104160, Note_on_c, 0, 72, 77
2, 104190, Note_on_c, 0, 72, 0
2, 104192, Note_on_c, 0, 84, 77
2, 104222, Note_on_c, 0, 84, 0
2, 104224, Note_on_c, 0, 82, 77
2, 104254, Note_on_c, 0, 82, 0
2, 104256, Note_on_c, 0, 80, 77
2, 104286, Note_on_c, 0, 80, 0
2, 104288, Note_on_c, 0, 79, 77
2, 104318, Note_on_c, 0, 79, 0
2, 104320, Note_on_c, 0, 77, 77
2, 104350, Note_on_c, 0, 77, 0
2, 104352, Note_on_c, 0, 75, 77
2, 104382, Note_on_c, 0, 75, 0
2, 104384, Note_on_c, 0, 73, 77
2, 104414, Note_on_c, 0, 73, 0
2, 104416, Note_on_c, 0, 72, 77
2, 104446, Note_on_c, 0, 72, 0
2, 104448, Note_on_c, 0, 75, 77
2, 104520, Note_on_c, 0, 75, 0
2, 104520, Note_on_c, 0, 72, 77
2, 104543, Note_on_c, 0, 72, 0
2, 104544, Note_on_c, 0, 70, 77
2, 104685, Note_on_c, 0, 70, 0
2, 104688, Note_on_c, 0, 73, 77
2, 104733, Note_on_c, 0, 73, 0
2, 104736, Note_on_c, 0, 72, 77
2, 104781, Note_on_c, 0, 72, 0
2, 104784, Note_on_c, 0, 75, 77
2, 104829, Note_on_c, 0, 75, 0
2, 104832, Note_on_c, 0, 75, 77
2, 104880, Note_on_c, 0, 75, 0
2, 104880, Note_on_c, 0, 73, 77
2, 104925, Note_on_c, 0, 73, 0
2, 104928, Note_on_c, 0, 73, 93
2, 105120, Note_on_c, 0, 73, 0
2, 105120, Note_on_c, 0, 72, 77
2, 105150, Note_on_c, 0, 72, 0
2, 105152, Note_on_c, 0, 70, 77
2, 105182, Note_on_c, 0, 70, 0
2, 105184, Note_on_c, 0, 68, 77
2, 105214, Note_on_c, 0, 68, 0
2, 105216, Note_on_c, 0, 68, 77
2, 105264, Note_on_c, 0, 68, 0
2, 105264, Note_on_c, 0, 67, 77
2, 105309, Note_on_c, 0, 67, 0
2, 105312, Note_on_c, 0, 67, 93
2, 105504, Note_on_c, 0, 67, 0
2, 105504, Note_on_c, 0, 68, 77
2, 105593, Note_on_c, 0, 68, 0
2, 105600, Note_on_c, 0, 70, 77
2, 105630, Note_on_c, 0, 70, 0
2, 105632, Note_on_c, 0, 72, 77
2, 105662, Note_on_c, 0, 72, 0
2, 105664, Note_on_c, 0, 73, 77
2, 105694, Note_on_c, 0, 73, 0
2, 105696, Note_on_c, 0, 73, 93
2, 105888, Note_on_c, 0, 73, 0
2, 105888, Note_on_c, 0, 72, 77
2, 105918, Note_on_c, 0, 72, 0
2, 105920, Note_on_c, 0, 70, 77
2, 105950, Note_on_c, 0, 70, 0
2, 105952, Note_on_c, 0, 68, 77
2, 105982, Note_on_c, 0, 68, 0
2, 105984, Note_on_c, 0, 68, 77
2, 106032, Note_on_c, 0, 68, 0
2, 106032, Note_on_c, 0, 67, 77
2, 106077, Note_on_c, 0, 67, 0
2, 106080, Note_on_c, 0, 67, 93
2, 106272, Note_on_c, 0, 67, 0
2, 106272, Note_on_c, 0, 68, 77
2, 106361, Note_on_c, 0, 68, 0
2, 106368, Note_on_c, 0, 70, 70
2, 106398, Note_on_c, 0, 70, 0
2, 106400, Note_on_c, 0, 72, 71
2, 106430, Note_on_c, 0, 72, 0
2, 106432, Note_on_c, 0, 73, 72
2, 106462, Note_on_c, 0, 73, 0
2, 106464, Note_on_c, 0, 73, 90
2, 106656, Note_on_c, 0, 73, 0
2, 106656, Note_on_c, 0, 72, 84
2, 106745, Note_on_c, 0, 72, 0
2, 106752, Note_on_c, 0, 70, 84
2, 106782, Note_on_c, 0, 70, 0
2, 106784, Note_on_c, 0, 77, 82
2, 106814, Note_on_c, 0, 77, 0
2, 106816, Note_on_c, 0, 75, 81
2, 106846, Note_on_c, 0, 75, 0
2, 106848, Note_on_c, 0, 73, 80
2, 106878, Note_on_c, 0, 73, 0
2, 106880, Note_on_c, 0, 72, 79
2, 106910, Note_on_c, 0, 72, 0
2, 106912, Note_on_c, 0, 70, 78
2, 106942, Note_on_c, 0, 70, 0
2, 106944, Note_on_c, 0, 68, 77
2, 107033, Note_on_c, 0, 68, 0
2, 107040, Note_on_c, 0, 67, 73
2, 107129, Note_on_c, 0, 67, 0
2, 107136, Note_on_c, 0, 60, 84
2, 107166, Note_on_c, 0, 60, 0
2, 107168, Note_on_c, 0, 63, 84
2, 107198, Note_on_c, 0, 63, 0
2, 107200, Note_on_c, 0, 68, 84
2, 107230, Note_on_c, 0, 68, 0
2, 107232, Note_on_c, 0, 68, 84
2, 107245, Note_on_c, 0, 68, 0
2, 107264, Note_on_c, 0, 68, 84
2, 107277, Note_on_c, 0, 68, 0
2, 107296, Note_on_c, 0, 68, 84
2, 107309, Note_on_c, 0, 68, 0
2, 107328, Note_on_c, 0, 67, 84
2, 107358, Note_on_c, 0, 67, 0
2, 107360, Note_on_c, 0, 70, 84
2, 107390, Note_on_c, 0, 70, 0
2, 107392, Note_on_c, 0, 73, 84
2, 107422, Note_on_c, 0, 73, 0
2, 107424, Note_on_c, 0, 73, 84
2, 107437, Note_on_c, 0, 73, 0
2, 107456, Note_on_c, 0, 73, 84
2, 107469, Note_on_c, 0, 73, 0
2, 107488, Note_on_c, 0, 73, 84
2, 107501, Note_on_c, 0, 73, 0
2, 107520, Note_on_c, 0, 72, 84
2, 107550, Note_on_c, 0, 72, 0
2, 107552, Note_on_c, 0, 75, 84
2, 107582, Note_on_c, 0, 75, 0
2, 107584, Note_on_c, 0, 80, 84
2, 107597, Note_on_c, 0, 80, 0
2, 107616, Note_on_c, 0, 80, 84
2, 107629, Note_on_c, 0, 80, 0
2, 107648, Note_on_c, 0, 80, 84
2, 107661, Note_on_c, 0, 80, 0
2, 107680, Note_on_c, 0, 80, 84
2, 107693, Note_on_c, 0, 80, 0
2, 107712, Note_on_c, 0, 79, 84
2, 107742, Note_on_c, 0, 79, 0
2, 107744, Note_on_c, 0, 82, 84
2, 107774, Note_on_c, 0, 82, 0
2, 107776, Note_on_c, 0, 85, 84
2, 107789, Note_on_c, 0, 85, 0
2, 107808, Note_on_c, 0, 85, 84
2, 107821, Note_on_c, 0, 85, 0
2, 107840, Note_on_c, 0, 85, 84
2, 107853, Note_on_c, 0, 85, 0
2, 107872, Note_on_c, 0, 85, 84
2, 107885, Note_on_c, 0, 85, 0
2, 107904, Note_on_c, 0, 84, 84
2, 107934, Note_on_c, 0, 84, 0
2, 107936, Note_on_c, 0, 87, 84
2, 107966, Note_on_c, 0, 87, 0
2, 107968, Note_on_c, 0, 85, 84
2, 107998, Note_on_c, 0, 85, 0
2, 108000, Note_on_c, 0, 84, 84
2, 108030, Note_on_c, 0, 84, 0
2, 108032, Note_on_c, 0, 82, 84
2, 108062, Note_on_c, 0, 82, 0
2, 108064, Note_on_c, 0, 80, 84
2, 108094, Note_on_c, 0, 80, 0
2, 108096, Note_on_c, 0, 79, 84
2, 108126, Note_on_c, 0, 79, 0
2, 108128, Note_on_c, 0, 77, 84
2, 108158, Note_on_c, 0, 77, 0
2, 108160, Note_on_c, 0, 75, 84
2, 108190, Note_on_c, 0, 75, 0
2, 108192, Note_on_c, 0, 73, 84
2, 108222, Note_on_c, 0, 73, 0
2, 108224, Note_on_c, 0, 72, 84
2, 108254, Note_on_c, 0, 72, 0
2, 108256, Note_on_c, 0, 70, 84
2, 108286, Note_on_c, 0, 70, 0
2, 108288, Note_on_c, 0, 68, 84
2, 108318, Note_on_c, 0, 68, 0
2, 108320, Note_on_c, 0, 84, 84
2, 108350, Note_on_c, 0, 84, 0
2, 108352, Note_on_c, 0, 82, 84
2, 108382, Note_on_c, 0, 82, 0
2, 108384, Note_on_c, 0, 80, 84
2, 108414, Note_on_c, 0, 80, 0
2, 108416, Note_on_c, 0, 79, 84
2, 108446, Note_on_c, 0, 79, 0
2, 108448, Note_on_c, 0, 77, 84
2, 108478, Note_on_c, 0, 77, 0
2, 108480, Note_on_c, 0, 75, 84
2, 108510, Note_on_c, 0, 75, 0
2, 108512, Note_on_c, 0, 73, 84
2, 108542, Note_on_c, 0, 73, 0
2, 108544, Note_on_c, 0, 72, 84
2, 108574, Note_on_c, 0, 72, 0
2, 108576, Note_on_c, 0, 70, 84
2, 108606, Note_on_c, 0, 70, 0
2, 108608, Note_on_c, 0, 68, 84
2, 108638, Note_on_c, 0, 68, 0
2, 108640, Note_on_c, 0, 67, 84
2, 108670, Note_on_c, 0, 67, 0
2, 108672, Note_on_c, 0, 65, 84
2, 108739, Note_on_c, 0, 65, 0
2, 108744, Note_on_c, 0, 77, 84
2, 108767, Note_on_c, 0, 77, 0
2, 108768, Note_on_c, 0, 73, 84
2, 108835, Note_on_c, 0, 73, 0
2, 108840, Note_on_c, 0, 70, 84
2, 108863, Note_on_c, 0, 70, 0
2, 108864, Note_on_c, 0, 68, 84
2, 108953, Note_on_c, 0, 68, 0
2, 108960, Note_on_c, 0, 67, 84
2, 108973, Note_on_c, 0, 67, 0
2, 108974, Note_on_c, 0, 68, 84
2, 108987, Note_on_c, 0, 68, 0
2, 108988, Note_on_c, 0, 67, 84
2, 109001, Note_on_c, 0, 67, 0
2, 109002, Note_on_c, 0, 68, 84
2, 109015, Note_on_c, 0, 68, 0
2, 109016, Note_on_c, 0, 67, 84
2, 109029, Note_on_c, 0, 67, 0
2, 109030, Note_on_c, 0, 65, 84
2, 109042, Note_on_c, 0, 65, 0
2, 109043, Note_on_c, 0, 67, 84
2, 109055, Note_on_c, 0, 67, 0
2, 109056, Note_on_c, 0, 84, 84
2, 109086, Note_on_c, 0, 84, 0
2, 109088, Note_on_c, 0, 87, 84
2, 109118, Note_on_c, 0, 87, 0
2, 109120, Note_on_c, 0, 85, 84
2, 109150, Note_on_c, 0, 85, 0
2, 109152, Note_on_c, 0, 84, 84
2, 109182, Note_on_c, 0, 84, 0
2, 109184, Note_on_c, 0, 82, 84
2, 109214, Note_on_c, 0, 82, 0
2, 109216, Note_on_c, 0, 80, 84
2, 109246, Note_on_c, 0, 80, 0
2, 109248, Note_on_c, 0, 79, 84
2, 109278, Note_on_c, 0, 79, 0
2, 109280, Note_on_c, 0, 77, 84
2, 109310, Note_on_c, 0, 77, 0
2, 109312, Note_on_c, 0, 75, 84
2, 109342, Note_on_c, 0, 75, 0
2, 109344, Note_on_c, 0, 73, 84
2, 109374, Note_on_c, 0, 73, 0
2, 109376, Note_on_c, 0, 72, 84
2, 109406, Note_on_c, 0, 72, 0
2, 109408, Note_on_c, 0, 70, 84
2, 109438, Note_on_c, 0, 70, 0
2, 109440, Note_on_c, 0, 68, 84
2, 109470, Note_on_c, 0, 68, 0
2, 109472, Note_on_c, 0, 84, 84
2, 109502, Note_on_c, 0, 84, 0
2, 109504, Note_on_c, 0, 82, 84
2, 109534, Note_on_c, 0, 82, 0
2, 109536, Note_on_c, 0, 80, 84
2, 109566, Note_on_c, 0, 80, 0
2, 109568, Note_on_c, 0, 79, 84
2, 109598, Note_on_c, 0, 79, 0
2, 109600, Note_on_c, 0, 77, 84
2, 109630, Note_on_c, 0, 77, 0
2, 109632, Note_on_c, 0, 75, 84
2, 109662, Note_on_c, 0, 75, 0
2, 109664, Note_on_c, 0, 73, 84
2, 109694, Note_on_c, 0, 73, 0
2, 109696, Note_on_c, 0, 72, 84
2, 109726, Note_on_c, 0, 72, 0
2, 109728, Note_on_c, 0, 70, 84
2, 109758, Note_on_c, 0, 70, 0
2, 109760, Note_on_c, 0, 68, 84
2, 109790, Note_on_c, 0, 68, 0
2, 109792, Note_on_c, 0, 67, 84
2, 109822, Note_on_c, 0, 67, 0
2, 109824, Note_on_c, 0, 65, 84
2, 109891, Note_on_c, 0, 65, 0
2, 109896, Note_on_c, 0, 77, 84
2, 109919, Note_on_c, 0, 77, 0
2, 109920, Note_on_c, 0, 73, 84
2, 109987, Note_on_c, 0, 73, 0
2, 109992, Note_on_c, 0, 70, 84
2, 110015, Note_on_c, 0, 70, 0
2, 110016, Note_on_c, 0, 68, 84
2, 110105, Note_on_c, 0, 68, 0
2, 110112, Note_on_c, 0, 67, 84
2, 110125, Note_on_c, 0, 67, 0
2, 110126, Note_on_c, 0, 68, 84
2, 110139, Note_on_c, 0, 68, 0
2, 110140, Note_on_c, 0, 67, 84
2, 110153, Note_on_c, 0, 67, 0
2, 110154, Note_on_c, 0, 68, 84
2, 110167, Note_on_c, 0, 68, 0
2, 110168, Note_on_c, 0, 67, 84
2, 110181, Note_on_c, 0, 67, 0
2, 110182, Note_on_c, 0, 65, 84
2, 110194, Note_on_c, 0, 65, 0
2, 110195, Note_on_c, 0, 67, 84
2, 110207, Note_on_c, 0, 67, 0
2, 110208, Note_on_c, 0, 68, 84
2, 110238, Note_on_c, 0, 68, 0
2, 110240, Note_on_c, 0, 72, 84
2, 110270, Note_on_c, 0, 72, 0
2, 110272, Note_on_c, 0, 70, 84
2, 110302, Note_on_c, 0, 70, 0
2, 110304, Note_on_c, 0, 68, 84
2, 110334, Note_on_c, 0, 68, 0
2, 110336, Note_on_c, 0, 67, 84
2, 110366, Note_on_c, 0, 67, 0
2, 110368, Note_on_c, 0, 65, 84
2, 110398, Note_on_c, 0, 65, 0
2, 110400, Note_on_c, 0, 63, 84
2, 110430, Note_on_c, 0, 63, 0
2, 110432, Note_on_c, 0, 61, 84
2, 110462, Note_on_c, 0, 61, 0
2, 110464, Note_on_c, 0, 60, 84
2, 110494, Note_on_c, 0, 60, 0
2, 110496, Note_on_c, 0, 61, 84
2, 110519, Note_on_c, 0, 61, 0
2, 110520, Note_on_c, 0, 63, 84
2, 110543, Note_on_c, 0, 63, 0
2, 110544, Note_on_c, 0, 65, 84
2, 110567, Note_on_c, 0, 65, 0
2, 110568, Note_on_c, 0, 67, 84
2, 110591, Note_on_c, 0, 67, 0
2, 110592, Note_on_c, 0, 68, 84
2, 110622, Note_on_c, 0, 68, 0
2, 110624, Note_on_c, 0, 72, 84
2, 110654, Note_on_c, 0, 72, 0
2, 110656, Note_on_c, 0, 70, 84
2, 110686, Note_on_c, 0, 70, 0
2, 110688, Note_on_c, 0, 68, 84
2, 110718, Note_on_c, 0, 68, 0
2, 110720, Note_on_c, 0, 67, 84
2, 110750, Note_on_c, 0, 67, 0
2, 110752, Note_on_c, 0, 65, 84
2, 110782, Note_on_c, 0, 65, 0
2, 110784, Note_on_c, 0, 63, 84
2, 110814, Note_on_c, 0, 63, 0
2, 110816, Note_on_c, 0, 61, 84
2, 110846, Note_on_c, 0, 61, 0
2, 110848, Note_on_c, 0, 60, 84
2, 110878, Note_on_c, 0, 60, 0
2, 110880, Note_on_c, 0, 61, 84
2, 110903, Note_on_c, 0, 61, 0
2, 110904, Note_on_c, 0, 63, 84
2, 110927, Note_on_c, 0, 63, 0
2, 110928, Note_on_c, 0, 65, 84
2, 110951, Note_on_c, 0, 65, 0
2, 110952, Note_on_c, 0, 67, 84
2, 110975, Note_on_c, 0, 67, 0
2, 110976, Note_on_c, 0, 68, 84
2, 111006, Note_on_c, 0, 68, 0
2, 111008, Note_on_c, 0, 72, 84
2, 111038, Note_on_c, 0, 72, 0
2, 111040, Note_on_c, 0, 70, 84
2, 111070, Note_on_c, 0, 70, 0
2, 111072, Note_on_c, 0, 68, 84
2, 111102, Note_on_c, 0, 68, 0
2, 111104, Note_on_c, 0, 67, 84
2, 111134, Note_on_c, 0, 67, 0
2, 111136, Note_on_c, 0, 65, 84
2, 111166, Note_on_c, 0, 65, 0
2, 111168, Note_on_c, 0, 63, 84
2, 111198, Note_on_c, 0, 63, 0
2, 111200, Note_on_c, 0, 61, 84
2, 111230, Note_on_c, 0, 61, 0
2, 111232, Note_on_c, 0, 60, 84
2, 111262, Note_on_c, 0, 60, 0
2, 111264, Note_on_c, 0, 68, 84
2, 111294, Note_on_c, 0, 68, 0
2, 111296, Note_on_c, 0, 67, 84
2, 111326, Note_on_c, 0, 67, 0
2, 111328, Note_on_c, 0, 65, 84
2, 111358, Note_on_c, 0, 65, 0
2, 111360, Note_on_c, 0, 63, 84
2, 111390, Note_on_c, 0, 63, 0
2, 111392, Note_on_c, 0, 61, 84
2, 111422, Note_on_c, 0, 61, 0
2, 111424, Note_on_c, 0, 60, 84
2, 111454, Note_on_c, 0, 60, 0
2, 111456, Note_on_c, 0, 68, 84
2, 111486, Note_on_c, 0, 68, 0
2, 111488, Note_on_c, 0, 67, 84
2, 111518, Note_on_c, 0, 67, 0
2, 111520, Note_on_c, 0, 65, 84
2, 111550, Note_on_c, 0, 65, 0
2, 111552, Note_on_c, 0, 63, 84
2, 111582, Note_on_c, 0, 63, 0
2, 111584, Note_on_c, 0, 61, 84
2, 111614, Note_on_c, 0, 61, 0
2, 111616, Note_on_c, 0, 60, 84
2, 111646, Note_on_c, 0, 60, 0
2, 111648, Note_on_c, 0, 68, 84
2, 111715, Note_on_c, 0, 68, 0
2, 111720, Note_on_c, 0, 60, 84
2, 111743, Note_on_c, 0, 60, 0
2, 111744, Note_on_c, 0, 63, 84
2, 111757, Note_on_c, 0, 63, 0
2, 111758, Note_on_c, 0, 61, 84
2, 111771, Note_on_c, 0, 61, 0
2, 111772, Note_on_c, 0, 63, 84
2, 111785, Note_on_c, 0, 63, 0
2, 111786, Note_on_c, 0, 61, 84
2, 111799, Note_on_c, 0, 61, 0
2, 111800, Note_on_c, 0, 63, 84
2, 111813, Note_on_c, 0, 63, 0
2, 111814, Note_on_c, 0, 61, 84
2, 111827, Note_on_c, 0, 61, 0
2, 111828, Note_on_c, 0, 63, 84
2, 111841, Note_on_c, 0, 63, 0
2, 111842, Note_on_c, 0, 61, 84
2, 111855, Note_on_c, 0, 61, 0
2, 111856, Note_on_c, 0, 63, 84
2, 111869, Note_on_c, 0, 63, 0
2, 111870, Note_on_c, 0, 61, 84
2, 111883, Note_on_c, 0, 61, 0
2, 111884, Note_on_c, 0, 63, 84
2, 111896, Note_on_c, 0, 63, 0
2, 111897, Note_on_c, 0, 61, 84
2, 111909, Note_on_c, 0, 61, 0
2, 111910, Note_on_c, 0, 60, 84
2, 111922, Note_on_c, 0, 60, 0
2, 111923, Note_on_c, 0, 61, 84
2, 111935, Note_on_c, 0, 61, 0
2, 111936, Note_on_c, 0, 63, 84
2, 112025, Note_on_c, 0, 63, 0
2, 112032, Note_on_c, 0, 63, 84
2, 112071, Note_on_c, 0, 63, 0
2, 112128, Note_on_c, 0, 68, 84
2, 112393, Note_on_c, 0, 68, 0
2, 112416, Note_on_c, 0, 72, 71
2, 112440, Note_on_c, 0, 72, 0
2, 112440, Note_on_c, 0, 70, 70
2, 112507, Note_on_c, 0, 70, 0
2, 112512, Note_on_c, 0, 68, 70
2, 112601, Note_on_c, 0, 68, 0
2, 112608, Note_on_c, 0, 68, 71
2, 112697, Note_on_c, 0, 68, 0
2, 112704, Note_on_c, 0, 68, 73
2, 112793, Note_on_c, 0, 68, 0
2, 112800, Note_on_c, 0, 73, 75
2, 112824, Note_on_c, 0, 73, 0
2, 112824, Note_on_c, 0, 70, 75
2, 112891, Note_on_c, 0, 70, 0
2, 112896, Note_on_c, 0, 75, 77
2, 112985, Note_on_c, 0, 75, 0
2, 112992, Note_on_c, 0, 75, 74
2, 113081, Note_on_c, 0, 75, 0
2, 113088, Note_on_c, 0, 75, 72
2, 113177, Note_on_c, 0, 75, 0
2, 113184, Note_on_c, 0, 73, 70
2, 113208, Note_on_c, 0, 73, 0
2, 113208, Note_on_c, 0, 70, 70
2, 113275, Note_on_c, 0, 70, 0
2, 113280, Note_on_c, 0, 68, 70
2, 113545, Note_on_c, 0, 68, 0
2, 113568, Note_on_c, 0, 72, 70
2, 113592, Note_on_c, 0, 72, 0
2, 113592, Note_on_c, 0, 70, 70
2, 113659, Note_on_c, 0, 70, 0
2, 113664, Note_on_c, 0, 68, 70
2, 113753, Note_on_c, 0, 68, 0
2, 113760, Note_on_c, 0, 68, 71
2, 113849, Note_on_c, 0, 68, 0
2, 113856, Note_on_c, 0, 68, 73
2, 113945, Note_on_c, 0, 68, 0
2, 113952, Note_on_c, 0, 73, 75
2, 113976, Note_on_c, 0, 73, 0
2, 113976, Note_on_c, 0, 70, 75
2, 114043, Note_on_c, 0, 70, 0
2, 114048, Note_on_c, 0, 75, 77
2, 114137, Note_on_c, 0, 75, 0
2, 114144, Note_on_c, 0, 75, 75
2, 114233, Note_on_c, 0, 75, 0
2, 114240, Note_on_c, 0, 75, 73
2, 114329, Note_on_c, 0, 75, 0
2, 114336, Note_on_c, 0, 73, 71
2, 114360, Note_on_c, 0, 73, 0
2, 114360, Note_on_c, 0, 70, 71
2, 114427, Note_on_c, 0, 70, 0
2, 114432, Note_on_c, 0, 68, 70
2, 114697, Note_on_c, 0, 68, 0
2, 114720, Note_on_c, 0, 72, 70
2, 114744, Note_on_c, 0, 72, 0
2, 114744, Note_on_c, 0, 70, 70
2, 114811, Note_on_c, 0, 70, 0
2, 114816, Note_on_c, 0, 68, 70
2, 114905, Note_on_c, 0, 68, 0
2, 114912, Note_on_c, 0, 75, 56
2, 114912, Note_on_c, 0, 72, 56
2, 115001, Note_on_c, 0, 75, 0
2, 115001, Note_on_c, 0, 72, 0
2, 115008, Note_on_c, 0, 75, 56
2, 115008, Note_on_c, 0, 72, 56
2, 115097, Note_on_c, 0, 75, 0
2, 115097, Note_on_c, 0, 72, 0
2, 115584, End_track
3, 0, Start_track
3, 0, Program_c, 0, 0
3, 0, Control_c, 0, 7, 127
3, 0, Control_c, 0, 10, 64
3, 115584, End_track
4, 0, Start_track
4, 0, Program_c, 1, 0
4, 0, Control_c, 1, 7, 127
4, 0, Control_c, 1, 10, 64
4, 384, Note_on_c, 1, 56, 77
4, 384, Note_on_c, 1, 44, 77
4, 473, Note_on_c, 1, 56, 0
4, 473, Note_on_c, 1, 44, 0
4, 576, Note_on_c, 1, 55, 77
4, 576, Note_on_c, 1, 43, 77
4, 665, Note_on_c, 1, 55, 0
4, 665, Note_on_c, 1, 43, 0
4, 864, Note_on_c, 1, 44, 77
4, 960, Note_on_c, 1, 44, 0
4, 960, Note_on_c, 1, 56, 77
4, 1005, Note_on_c, 1, 56, 0
4, 1248, Note_on_c, 1, 58, 77
4, 1344, Note_on_c, 1, 58, 0
4, 1344, Note_on_c, 1, 55, 77
4, 1389, Note_on_c, 1, 55, 0
4, 1632, Note_on_c, 1, 56, 77
4, 1728, Note_on_c, 1, 56, 0
4, 1728, Note_on_c, 1, 44, 77
4, 1773, Note_on_c, 1, 44, 0
4, 1824, Note_on_c, 1, 48, 77
4, 1913, Note_on_c, 1, 48, 0
4, 1920, Note_on_c, 1, 49, 77
4, 2097, Note_on_c, 1, 49, 0
4, 2208, Note_on_c, 1, 51, 77
4, 2297, Note_on_c, 1, 51, 0
4, 2376, Note_on_c, 1, 44, 77
4, 2399, Note_on_c, 1, 44, 0
4, 2400, Note_on_c, 1, 48, 77
4, 2467, Note_on_c, 1, 48, 0
4, 2472, Note_on_c, 1, 51, 77
4, 2495, Note_on_c, 1, 51, 0
4, 2496, Note_on_c, 1, 56, 77
4, 2535, Note_on_c, 1, 56, 0
4, 2688, Note_on_c, 1, 60, 77
4, 2688, Note_on_c, 1, 56, 77
4, 2777, Note_on_c, 1, 60, 0
4, 2777, Note_on_c, 1, 56, 0
4, 2880, Note_on_c, 1, 58, 77
4, 2880, Note_on_c, 1, 55, 77
4, 2969, Note_on_c, 1, 58, 0
4, 2969, Note_on_c, 1, 55, 0
4, 3168, Note_on_c, 1, 44, 77
4, 3264, Note_on_c, 1, 44, 0
4, 3264, Note_on_c, 1, 56, 77
4, 3353, Note_on_c, 1, 56, 0
4, 3360, Note_on_c, 1, 60, 77
4, 3449, Note_on_c, 1, 60, 0
4, 3552, Note_on_c, 1, 61, 77
4, 3591, Note_on_c, 1, 61, 0
4, 3744, Note_on_c, 1, 60, 77
4, 3783, Note_on_c, 1, 60, 0
4, 3936, Note_on_c, 1, 58, 77
4, 3975, Note_on_c, 1, 58, 0
4, 4128, Note_on_c, 1, 56, 77
4, 4167, Note_on_c, 1, 56, 0
4, 4320, Note_on_c, 1, 49, 77
4, 4409, Note_on_c, 1, 49, 0
4, 4416, Note_on_c, 1, 51, 77
4, 4593, Note_on_c, 1, 51, 0
4, 4608, Note_on_c, 1, 56, 63
4, 4638, Note_on_c, 1, 56, 0
4, 4640, Note_on_c, 1, 60, 63
4, 4670, Note_on_c, 1, 60, 0
4, 4672, Note_on_c, 1, 63, 63
4, 4702, Note_on_c, 1, 63, 0
4, 4704, Note_on_c, 1, 56, 63
4, 4734, Note_on_c, 1, 56, 0
4, 4736, Note_on_c, 1, 60, 63
4, 4766, Note_on_c, 1, 60, 0
4, 4768, Note_on_c, 1, 63, 63
4, 4798, Note_on_c, 1, 63, 0
4, 4800, Note_on_c, 1, 56, 63
4, 4830, Note_on_c, 1, 56, 0
4, 4832, Note_on_c, 1, 60, 63
4, 4862, Note_on_c, 1, 60, 0
4, 4864, Note_on_c, 1, 63, 63
4, 4894, Note_on_c, 1, 63, 0
4, 4896, Note_on_c, 1, 55, 63
4, 4926, Note_on_c, 1, 55, 0
4, 4928, Note_on_c, 1, 58, 63
4, 4958, Note_on_c, 1, 58, 0
4, 4960, Note_on_c, 1, 63, 63
4, 4990, Note_on_c, 1, 63, 0
4, 4992, Note_on_c, 1, 56, 63
4, 5022, Note_on_c, 1, 56, 0
4, 5024, Note_on_c, 1, 60, 63
4, 5054, Note_on_c, 1, 60, 0
4, 5056, Note_on_c, 1, 63, 63
4, 5086, Note_on_c, 1, 63, 0
4, 5088, Note_on_c, 1, 56, 63
4, 5118, Note_on_c, 1, 56, 0
4, 5120, Note_on_c, 1, 60, 63
4, 5150, Note_on_c, 1, 60, 0
4, 5152, Note_on_c, 1, 63, 63
4, 5182, Note_on_c, 1, 63, 0
4, 5184, Note_on_c, 1, 56, 63
4, 5214, Note_on_c, 1, 56, 0
4, 5216, Note_on_c, 1, 60, 63
4, 5246, Note_on_c, 1, 60, 0
4, 5248, Note_on_c, 1, 63, 63
4, 5278, Note_on_c, 1, 63, 0
4, 5280, Note_on_c, 1, 56, 63
4, 5310, Note_on_c, 1, 56, 0
4, 5312, Note_on_c, 1, 60, 63
4, 5342, Note_on_c, 1, 60, 0
4, 5344, Note_on_c, 1, 63, 63
4, 5374, Note_on_c, 1, 63, 0
4, 5376, Note_on_c, 1, 56, 63
4, 5406, Note_on_c, 1, 56, 0
4, 5408, Note_on_c, 1, 60, 63
4, 5438, Note_on_c, 1, 60, 0
4, 5440, Note_on_c, 1, 63, 63
4, 5470, Note_on_c, 1, 63, 0
4, 5472, Note_on_c, 1, 56, 63
4, 5502, Note_on_c, 1, 56, 0
4, 5504, Note_on_c, 1, 60, 63
4, 5534, Note_on_c, 1, 60, 0
4, 5536, Note_on_c, 1, 63, 63
4, 5566, Note_on_c, 1, 63, 0
4, 5568, Note_on_c, 1, 56, 63
4, 5598, Note_on_c, 1, 56, 0
4, 5600, Note_on_c, 1, 60, 63
4, 5630, Note_on_c, 1, 60, 0
4, 5632, Note_on_c, 1, 63, 63
4, 5662, Note_on_c, 1, 63, 0
4, 5664, Note_on_c, 1, 58, 63
4, 5694, Note_on_c, 1, 58, 0
4, 5696, Note_on_c, 1, 61, 63
4, 5726, Note_on_c, 1, 61, 0
4, 5728, Note_on_c, 1, 67, 63
4, 5758, Note_on_c, 1, 67, 0
4, 5760, Note_on_c, 1, 60, 63
4, 5790, Note_on_c, 1, 60, 0
4, 5792, Note_on_c, 1, 63, 63
4, 5822, Note_on_c, 1, 63, 0
4, 5824, Note_on_c, 1, 68, 63
4, 5854, Note_on_c, 1, 68, 0
4, 5856, Note_on_c, 1, 60, 63
4, 5886, Note_on_c, 1, 60, 0
4, 5888, Note_on_c, 1, 63, 63
4, 5918, Note_on_c, 1, 63, 0
4, 5920, Note_on_c, 1, 68, 63
4, 5950, Note_on_c, 1, 68, 0
4, 5952, Note_on_c, 1, 60, 63
4, 5982, Note_on_c, 1, 60, 0
4, 5984, Note_on_c, 1, 63, 63
4, 6014, Note_on_c, 1, 63, 0
4, 6016, Note_on_c, 1, 68, 63
4, 6046, Note_on_c, 1, 68, 0
4, 6048, Note_on_c, 1, 60, 63
4, 6078, Note_on_c, 1, 60, 0
4, 6080, Note_on_c, 1, 63, 63
4, 6110, Note_on_c, 1, 63, 0
4, 6112, Note_on_c, 1, 68, 63
4, 6142, Note_on_c, 1, 68, 0
4, 6144, Note_on_c, 1, 60, 63
4, 6174, Note_on_c, 1, 60, 0
4, 6176, Note_on_c, 1, 63, 63
4, 6206, Note_on_c, 1, 63, 0
4, 6208, Note_on_c, 1, 68, 63
4, 6238, Note_on_c, 1, 68, 0
4, 6240, Note_on_c, 1, 60, 63
4, 6270, Note_on_c, 1, 60, 0
4, 6272, Note_on_c, 1, 63, 63
4, 6302, Note_on_c, 1, 63, 0
4, 6304, Note_on_c, 1, 68, 63
4, 6334, Note_on_c, 1, 68, 0
4, 6336, Note_on_c, 1, 60, 63
4, 6366, Note_on_c, 1, 60, 0
4, 6368, Note_on_c, 1, 63, 63
4, 6398, Note_on_c, 1, 63, 0
4, 6400, Note_on_c, 1, 68, 63
4, 6430, Note_on_c, 1, 68, 0
4, 6432, Note_on_c, 1, 60, 63
4, 6462, Note_on_c, 1, 60, 0
4, 6464, Note_on_c, 1, 63, 63
4, 6494, Note_on_c, 1, 63, 0
4, 6496, Note_on_c, 1, 68, 63
4, 6526, Note_on_c, 1, 68, 0
4, 6528, Note_on_c, 1, 61, 63
4, 6558, Note_on_c, 1, 61, 0
4, 6560, Note_on_c, 1, 65, 63
4, 6590, Note_on_c, 1, 65, 0
4, 6592, Note_on_c, 1, 68, 63
4, 6622, Note_on_c, 1, 68, 0
4, 6624, Note_on_c, 1, 61, 63
4, 6654, Note_on_c, 1, 61, 0
4, 6656, Note_on_c, 1, 65, 63
4, 6686, Note_on_c, 1, 65, 0
4, 6688, Note_on_c, 1, 68, 63
4, 6718, Note_on_c, 1, 68, 0
4, 6720, Note_on_c, 1, 61, 63
4, 6750, Note_on_c, 1, 61, 0
4, 6752, Note_on_c, 1, 63, 63
4, 6782, Note_on_c, 1, 63, 0
4, 6784, Note_on_c, 1, 67, 63
4, 6814, Note_on_c, 1, 67, 0
4, 6816, Note_on_c, 1, 61, 63
4, 6846, Note_on_c, 1, 61, 0
4, 6848, Note_on_c, 1, 63, 63
4, 6878, Note_on_c, 1, 63, 0
4, 6880, Note_on_c, 1, 67, 63
4, 6910, Note_on_c, 1, 67, 0
4, 6912, Note_on_c, 1, 60, 63
4, 6942, Note_on_c, 1, 60, 0
4, 6944, Note_on_c, 1, 63, 63
4, 6974, Note_on_c, 1, 63, 0
4, 6976, Note_on_c, 1, 68, 63
4, 7006, Note_on_c, 1, 68, 0
4, 7008, Note_on_c, 1, 60, 63
4, 7038, Note_on_c, 1, 60, 0
4, 7040, Note_on_c, 1, 63, 63
4, 7070, Note_on_c, 1, 63, 0
4, 7072, Note_on_c, 1, 68, 63
4, 7102, Note_on_c, 1, 68, 0
4, 7104, Note_on_c, 1, 58, 63
4, 7134, Note_on_c, 1, 58, 0
4, 7136, Note_on_c, 1, 61, 63
4, 7166, Note_on_c, 1, 61, 0
4, 7168, Note_on_c, 1, 67, 63
4, 7198, Note_on_c, 1, 67, 0
4, 7200, Note_on_c, 1, 58, 63
4, 7230, Note_on_c, 1, 58, 0
4, 7232, Note_on_c, 1, 61, 63
4, 7262, Note_on_c, 1, 61, 0
4, 7264, Note_on_c, 1, 67, 63
4, 7294, Note_on_c, 1, 67, 0
4, 7296, Note_on_c, 1, 56, 63
4, 7385, Note_on_c, 1, 56, 0
4, 7776, Note_on_c, 1, 67, 63
4, 7776, Note_on_c, 1, 63, 63
4, 7865, Note_on_c, 1, 67, 0
4, 7865, Note_on_c, 1, 63, 0
4, 8064, Note_on_c, 1, 51, 77
4, 8153, Note_on_c, 1, 51, 0
4, 8160, Note_on_c, 1, 55, 77
4, 8249, Note_on_c, 1, 55, 0
4, 8256, Note_on_c, 1, 50, 77
4, 8345, Note_on_c, 1, 50, 0
4, 8448, Note_on_c, 1, 50, 77
4, 8537, Note_on_c, 1, 50, 0
4, 8544, Note_on_c, 1, 58, 77
4, 8633, Note_on_c, 1, 58, 0
4, 8640, Note_on_c, 1, 51, 77
4, 8729, Note_on_c, 1, 51, 0
4, 8736, Note_on_c, 1, 58, 77
4, 8825, Note_on_c, 1, 58, 0
4, 8832, Note_on_c, 1, 53, 77
4, 8921, Note_on_c, 1, 53, 0
4, 8928, Note_on_c, 1, 62, 77
4, 9017, Note_on_c, 1, 62, 0
4, 9024, Note_on_c, 1, 55, 77
4, 9113, Note_on_c, 1, 55, 0
4, 9120, Note_on_c, 1, 63, 77
4, 9209, Note_on_c, 1, 63, 0
4, 9216, Note_on_c, 1, 56, 77
4, 9246, Note_on_c, 1, 56, 0
4, 9248, Note_on_c, 1, 60, 77
4, 9278, Note_on_c, 1, 60, 0
4, 9280, Note_on_c, 1, 63, 77
4, 9310, Note_on_c, 1, 63, 0
4, 9312, Note_on_c, 1, 56, 77
4, 9342, Note_on_c, 1, 56, 0
4, 9344, Note_on_c, 1, 60, 77
4, 9374, Note_on_c, 1, 60, 0
4, 9376, Note_on_c, 1, 63, 77
4, 9406, Note_on_c, 1, 63, 0
4, 9408, Note_on_c, 1, 56, 77
4, 9438, Note_on_c, 1, 56, 0
4, 9440, Note_on_c, 1, 60, 77
4, 9470, Note_on_c, 1, 60, 0
4, 9472, Note_on_c, 1, 63, 77
4, 9502, Note_on_c, 1, 63, 0
4, 9504, Note_on_c, 1, 55, 77
4, 9534, Note_on_c, 1, 55, 0
4, 9536, Note_on_c, 1, 58, 77
4, 9566, Note_on_c, 1, 58, 0
4, 9568, Note_on_c, 1, 61, 77
4, 9598, Note_on_c, 1, 61, 0
4, 9600, Note_on_c, 1, 56, 77
4, 9689, Note_on_c, 1, 56, 0
4, 9984, Note_on_c, 1, 55, 77
4, 10014, Note_on_c, 1, 55, 0
4, 10016, Note_on_c, 1, 58, 77
4, 10046, Note_on_c, 1, 58, 0
4, 10048, Note_on_c, 1, 63, 77
4, 10078, Note_on_c, 1, 63, 0
4, 10080, Note_on_c, 1, 55, 77
4, 10110, Note_on_c, 1, 55, 0
4, 10112, Note_on_c, 1, 58, 77
4, 10142, Note_on_c, 1, 58, 0
4, 10144, Note_on_c, 1, 63, 77
4, 10174, Note_on_c, 1, 63, 0
4, 10176, Note_on_c, 1, 55, 77
4, 10206, Note_on_c, 1, 55, 0
4, 10208, Note_on_c, 1, 58, 77
4, 10238, Note_on_c, 1, 58, 0
4, 10240, Note_on_c, 1, 63, 77
4, 10270, Note_on_c, 1, 63, 0
4, 10272, Note_on_c, 1, 53, 77
4, 10302, Note_on_c, 1, 53, 0
4, 10304, Note_on_c, 1, 56, 77
4, 10334, Note_on_c, 1, 56, 0
4, 10336, Note_on_c, 1, 59, 77
4, 10366, Note_on_c, 1, 59, 0
4, 10368, Note_on_c, 1, 55, 77
4, 10457, Note_on_c, 1, 55, 0
4, 10752, Note_on_c, 1, 58, 63
4, 10782, Note_on_c, 1, 58, 0
4, 10784, Note_on_c, 1, 62, 63
4, 10814, Note_on_c, 1, 62, 0
4, 10816, Note_on_c, 1, 65, 63
4, 10846, Note_on_c, 1, 65, 0
4, 10848, Note_on_c, 1, 58, 63
4, 10878, Note_on_c, 1, 58, 0
4, 10880, Note_on_c, 1, 62, 63
4, 10910, Note_on_c, 1, 62, 0
4, 10912, Note_on_c, 1, 65, 63
4, 10942, Note_on_c, 1, 65, 0
4, 10944, Note_on_c, 1, 58, 63
4, 10974, Note_on_c, 1, 58, 0
4, 10976, Note_on_c, 1, 62, 63
4, 11006, Note_on_c, 1, 62, 0
4, 11008, Note_on_c, 1, 65, 63
4, 11038, Note_on_c, 1, 65, 0
4, 11040, Note_on_c, 1, 58, 63
4, 11070, Note_on_c, 1, 58, 0
4, 11072, Note_on_c, 1, 63, 63
4, 11102, Note_on_c, 1, 63, 0
4, 11104, Note_on_c, 1, 67, 63
4, 11134, Note_on_c, 1, 67, 0
4, 11136, Note_on_c, 1, 58, 63
4, 11166, Note_on_c, 1, 58, 0
4, 11168, Note_on_c, 1, 65, 63
4, 11198, Note_on_c, 1, 65, 0
4, 11200, Note_on_c, 1, 68, 63
4, 11230, Note_on_c, 1, 68, 0
4, 11232, Note_on_c, 1, 58, 63
4, 11262, Note_on_c, 1, 58, 0
4, 11264, Note_on_c, 1, 65, 63
4, 11294, Note_on_c, 1, 65, 0
4, 11296, Note_on_c, 1, 68, 63
4, 11326, Note_on_c, 1, 68, 0
4, 11328, Note_on_c, 1, 58, 63
4, 11358, Note_on_c, 1, 58, 0
4, 11360, Note_on_c, 1, 65, 63
4, 11390, Note_on_c, 1, 65, 0
4, 11392, Note_on_c, 1, 68, 63
4, 11422, Note_on_c, 1, 68, 0
4, 11424, Note_on_c, 1, 58, 63
4, 11454, Note_on_c, 1, 58, 0
4, 11456, Note_on_c, 1, 63, 63
4, 11486, Note_on_c, 1, 63, 0
4, 11488, Note_on_c, 1, 67, 63
4, 11518, Note_on_c, 1, 67, 0
4, 11520, Note_on_c, 1, 58, 63
4, 11550, Note_on_c, 1, 58, 0
4, 11552, Note_on_c, 1, 62, 63
4, 11582, Note_on_c, 1, 62, 0
4, 11584, Note_on_c, 1, 65, 63
4, 11614, Note_on_c, 1, 65, 0
4, 11616, Note_on_c, 1, 58, 63
4, 11646, Note_on_c, 1, 58, 0
4, 11648, Note_on_c, 1, 62, 63
4, 11678, Note_on_c, 1, 62, 0
4, 11680, Note_on_c, 1, 65, 63
4, 11710, Note_on_c, 1, 65, 0
4, 11712, Note_on_c, 1, 58, 63
4, 11742, Note_on_c, 1, 58, 0
4, 11744, Note_on_c, 1, 62, 63
4, 11774, Note_on_c, 1, 62, 0
4, 11776, Note_on_c, 1, 65, 63
4, 11806, Note_on_c, 1, 65, 0
4, 11808, Note_on_c, 1, 58, 63
4, 11838, Note_on_c, 1, 58, 0
4, 11840, Note_on_c, 1, 63, 63
4, 11870, Note_on_c, 1, 63, 0
4, 11872, Note_on_c, 1, 67, 63
4, 11902, Note_on_c, 1, 67, 0
4, 11904, Note_on_c, 1, 58, 63
4, 11934, Note_on_c, 1, 58, 0
4, 11936, Note_on_c, 1, 65, 63
4, 11966, Note_on_c, 1, 65, 0
4, 11968, Note_on_c, 1, 68, 63
4, 11998, Note_on_c, 1, 68, 0
4, 12000, Note_on_c, 1, 58, 63
4, 12030, Note_on_c, 1, 58, 0
4, 12032, Note_on_c, 1, 65, 63
4, 12062, Note_on_c, 1, 65, 0
4, 12064, Note_on_c, 1, 68, 63
4, 12094, Note_on_c, 1, 68, 0
4, 12096, Note_on_c, 1, 58, 63
4, 12126, Note_on_c, 1, 58, 0
4, 12128, Note_on_c, 1, 65, 63
4, 12158, Note_on_c, 1, 65, 0
4, 12160, Note_on_c, 1, 68, 63
4, 12190, Note_on_c, 1, 68, 0
4, 12192, Note_on_c, 1, 58, 63
4, 12222, Note_on_c, 1, 58, 0
4, 12224, Note_on_c, 1, 63, 63
4, 12254, Note_on_c, 1, 63, 0
4, 12256, Note_on_c, 1, 67, 63
4, 12286, Note_on_c, 1, 67, 0
4, 12288, Note_on_c, 1, 58, 63
4, 12318, Note_on_c, 1, 58, 0
4, 12320, Note_on_c, 1, 62, 64
4, 12350, Note_on_c, 1, 62, 0
4, 12352, Note_on_c, 1, 65, 65
4, 12382, Note_on_c, 1, 65, 0
4, 12384, Note_on_c, 1, 58, 66
4, 12414, Note_on_c, 1, 58, 0
4, 12416, Note_on_c, 1, 62, 68
4, 12446, Note_on_c, 1, 62, 0
4, 12448, Note_on_c, 1, 65, 69
4, 12478, Note_on_c, 1, 65, 0
4, 12480, Note_on_c, 1, 59, 70
4, 12510, Note_on_c, 1, 59, 0
4, 12512, Note_on_c, 1, 62, 72
4, 12542, Note_on_c, 1, 62, 0
4, 12544, Note_on_c, 1, 65, 73
4, 12574, Note_on_c, 1, 65, 0
4, 12576, Note_on_c, 1, 60, 74
4, 12606, Note_on_c, 1, 60, 0
4, 12608, Note_on_c, 1, 62, 76
4, 12638, Note_on_c, 1, 62, 0
4, 12640, Note_on_c, 1, 63, 77
4, 12670, Note_on_c, 1, 63, 0
4, 12672, Note_on_c, 1, 56, 78
4, 12761, Note_on_c, 1, 56, 0
4, 12864, Note_on_c, 1, 67, 84
4, 12953, Note_on_c, 1, 67, 0
4, 12960, Note_on_c, 1, 68, 79
4, 13049, Note_on_c, 1, 68, 0
4, 13056, Note_on_c, 1, 68, 75
4, 13248, Note_on_c, 1, 68, 0
4, 13248, Note_on_c, 1, 67, 67
4, 13337, Note_on_c, 1, 67, 0
4, 13536, Note_on_c, 1, 51, 77
4, 13536, Note_on_c, 1, 48, 77
4, 13625, Note_on_c, 1, 51, 0
4, 13625, Note_on_c, 1, 48, 0
4, 13632, Note_on_c, 1, 51, 77
4, 13632, Note_on_c, 1, 48, 77
4, 13721, Note_on_c, 1, 51, 0
4, 13721, Note_on_c, 1, 48, 0
4, 13728, Note_on_c, 1, 51, 77
4, 13728, Note_on_c, 1, 48, 77
4, 13817, Note_on_c, 1, 51, 0
4, 13817, Note_on_c, 1, 48, 0
4, 13920, Note_on_c, 1, 53, 77
4, 13920, Note_on_c, 1, 50, 77
4, 13920, Note_on_c, 1, 46, 77
4, 14009, Note_on_c, 1, 53, 0
4, 14009, Note_on_c, 1, 50, 0
4, 14009, Note_on_c, 1, 46, 0
4, 14016, Note_on_c, 1, 53, 77
4, 14016, Note_on_c, 1, 50, 77
4, 14016, Note_on_c, 1, 46, 77
4, 14105, Note_on_c, 1, 53, 0
4, 14105, Note_on_c, 1, 50, 0
4, 14105, Note_on_c, 1, 46, 0
4, 14112, Note_on_c, 1, 53, 77
4, 14112, Note_on_c, 1, 50, 77
4, 14112, Note_on_c, 1, 46, 77
4, 14201, Note_on_c, 1, 53, 0
4, 14201, Note_on_c, 1, 50, 0
4, 14201, Note_on_c, 1, 46, 0
4, 14208, Note_on_c, 1, 51, 84
4, 14297, Note_on_c, 1, 51, 0
4, 14400, Note_on_c, 1, 53, 84
4, 14400, Note_on_c, 1, 46, 84
4, 14489, Note_on_c, 1, 53, 0
4, 14489, Note_on_c, 1, 46, 0
4, 14592, Note_on_c, 1, 55, 84
4, 14592, Note_on_c, 1, 51, 84
4, 14681, Note_on_c, 1, 55, 0
4, 14681, Note_on_c, 1, 51, 0
4, 14784, Note_on_c, 1, 53, 84
4, 14784, Note_on_c, 1, 46, 84
4, 14873, Note_on_c, 1, 53, 0
4, 14873, Note_on_c, 1, 46, 0
4, 14976, Note_on_c, 1, 55, 84
4, 14976, Note_on_c, 1, 51, 84
4, 15065, Note_on_c, 1, 55, 0
4, 15065, Note_on_c, 1, 51, 0
4, 15456, Note_on_c, 1, 56, 84
4, 15456, Note_on_c, 1, 44, 84
4, 15545, Note_on_c, 1, 56, 0
4, 15545, Note_on_c, 1, 44, 0
4, 15552, Note_on_c, 1, 55, 84
4, 15552, Note_on_c, 1, 46, 84
4, 15641, Note_on_c, 1, 55, 0
4, 15641, Note_on_c, 1, 46, 0
4, 15648, Note_on_c, 1, 53, 84
4, 15648, Note_on_c, 1, 46, 84
4, 15737, Note_on_c, 1, 53, 0
4, 15737, Note_on_c, 1, 46, 0
4, 15744, Note_on_c, 1, 63, 84
4, 15774, Note_on_c, 1, 63, 0
4, 15776, Note_on_c, 1, 67, 84
4, 15806, Note_on_c, 1, 67, 0
4, 15808, Note_on_c, 1, 65, 84
4, 15838, Note_on_c, 1, 65, 0
4, 15840, Note_on_c, 1, 63, 84
4, 15870, Note_on_c, 1, 63, 0
4, 15872, Note_on_c, 1, 62, 84
4, 15902, Note_on_c, 1, 62, 0
4, 15904, Note_on_c, 1, 60, 84
4, 15934, Note_on_c, 1, 60, 0
4, 15936, Note_on_c, 1, 58, 84
4, 15966, Note_on_c, 1, 58, 0
4, 15968, Note_on_c, 1, 56, 84
4, 15998, Note_on_c, 1, 56, 0
4, 16000, Note_on_c, 1, 55, 84
4, 16030, Note_on_c, 1, 55, 0
4, 16032, Note_on_c, 1, 53, 84
4, 16062, Note_on_c, 1, 53, 0
4, 16064, Note_on_c, 1, 51, 84
4, 16094, Note_on_c, 1, 51, 0
4, 16096, Note_on_c, 1, 50, 84
4, 16126, Note_on_c, 1, 50, 0
4, 16128, Note_on_c, 1, 48, 84
4, 16158, Note_on_c, 1, 48, 0
4, 16160, Note_on_c, 1, 63, 84
4, 16190, Note_on_c, 1, 63, 0
4, 16192, Note_on_c, 1, 62, 84
4, 16222, Note_on_c, 1, 62, 0
4, 16224, Note_on_c, 1, 60, 84
4, 16254, Note_on_c, 1, 60, 0
4, 16256, Note_on_c, 1, 58, 84
4, 16286, Note_on_c, 1, 58, 0
4, 16288, Note_on_c, 1, 56, 84
4, 16318, Note_on_c, 1, 56, 0
4, 16320, Note_on_c, 1, 55, 84
4, 16350, Note_on_c, 1, 55, 0
4, 16352, Note_on_c, 1, 53, 84
4, 16382, Note_on_c, 1, 53, 0
4, 16384, Note_on_c, 1, 51, 84
4, 16414, Note_on_c, 1, 51, 0
4, 16416, Note_on_c, 1, 50, 84
4, 16446, Note_on_c, 1, 50, 0
4, 16448, Note_on_c, 1, 48, 84
4, 16478, Note_on_c, 1, 48, 0
4, 16480, Note_on_c, 1, 46, 84
4, 16510, Note_on_c, 1, 46, 0
4, 16512, Note_on_c, 1, 44, 84
4, 16689, Note_on_c, 1, 44, 0
4, 16704, Note_on_c, 1, 46, 84
4, 16793, Note_on_c, 1, 46, 0
4, 16800, Note_on_c, 1, 46, 84
4, 16889, Note_on_c, 1, 46, 0
4, 16896, Note_on_c, 1, 63, 84
4, 16926, Note_on_c, 1, 63, 0
4, 16928, Note_on_c, 1, 67, 84
4, 16958, Note_on_c, 1, 67, 0
4, 16960, Note_on_c, 1, 65, 84
4, 16990, Note_on_c, 1, 65, 0
4, 16992, Note_on_c, 1, 63, 84
4, 17022, Note_on_c, 1, 63, 0
4, 17024, Note_on_c, 1, 62, 84
4, 17054, Note_on_c, 1, 62, 0
4, 17056, Note_on_c, 1, 60, 84
4, 17086, Note_on_c, 1, 60, 0
4, 17088, Note_on_c, 1, 58, 84
4, 17118, Note_on_c, 1, 58, 0
4, 17120, Note_on_c, 1, 56, 84
4, 17150, Note_on_c, 1, 56, 0
4, 17152, Note_on_c, 1, 55, 84
4, 17182, Note_on_c, 1, 55, 0
4, 17184, Note_on_c, 1, 53, 84
4, 17214, Note_on_c, 1, 53, 0
4, 17216, Note_on_c, 1, 51, 84
4, 17246, Note_on_c, 1, 51, 0
4, 17248, Note_on_c, 1, 50, 84
4, 17278, Note_on_c, 1, 50, 0
4, 17280, Note_on_c, 1, 48, 84
4, 17310, Note_on_c, 1, 48, 0
4, 17312, Note_on_c, 1, 63, 84
4, 17342, Note_on_c, 1, 63, 0
4, 17344, Note_on_c, 1, 62, 84
4, 17374, Note_on_c, 1, 62, 0
4, 17376, Note_on_c, 1, 60, 84
4, 17406, Note_on_c, 1, 60, 0
4, 17408, Note_on_c, 1, 58, 84
4, 17438, Note_on_c, 1, 58, 0
4, 17440, Note_on_c, 1, 56, 84
4, 17470, Note_on_c, 1, 56, 0
4, 17472, Note_on_c, 1, 55, 84
4, 17502, Note_on_c, 1, 55, 0
4, 17504, Note_on_c, 1, 53, 84
4, 17534, Note_on_c, 1, 53, 0
4, 17536, Note_on_c, 1, 51, 84
4, 17566, Note_on_c, 1, 51, 0
4, 17568, Note_on_c, 1, 50, 84
4, 17598, Note_on_c, 1, 50, 0
4, 17600, Note_on_c, 1, 48, 84
4, 17630, Note_on_c, 1, 48, 0
4, 17632, Note_on_c, 1, 46, 84
4, 17662, Note_on_c, 1, 46, 0
4, 17664, Note_on_c, 1, 44, 84
4, 17841, Note_on_c, 1, 44, 0
4, 17856, Note_on_c, 1, 46, 84
4, 17945, Note_on_c, 1, 46, 0
4, 17952, Note_on_c, 1, 46, 79
4, 18041, Note_on_c, 1, 46, 0
4, 18048, Note_on_c, 1, 63, 75
4, 18078, Note_on_c, 1, 63, 0
4, 18080, Note_on_c, 1, 67, 74
4, 18110, Note_on_c, 1, 67, 0
4, 18112, Note_on_c, 1, 70, 72
4, 18142, Note_on_c, 1, 70, 0
4, 18144, Note_on_c, 1, 63, 71
4, 18174, Note_on_c, 1, 63, 0
4, 18176, Note_on_c, 1, 67, 70
4, 18206, Note_on_c, 1, 67, 0
4, 18208, Note_on_c, 1, 70, 69
4, 18238, Note_on_c, 1, 70, 0
4, 18240, Note_on_c, 1, 63, 67
4, 18270, Note_on_c, 1, 63, 0
4, 18272, Note_on_c, 1, 67, 66
4, 18302, Note_on_c, 1, 67, 0
4, 18304, Note_on_c, 1, 70, 65
4, 18334, Note_on_c, 1, 70, 0
4, 18336, Note_on_c, 1, 63, 63
4, 18366, Note_on_c, 1, 63, 0
4, 18368, Note_on_c, 1, 68, 63
4, 18398, Note_on_c, 1, 68, 0
4, 18400, Note_on_c, 1, 74, 63
4, 18430, Note_on_c, 1, 74, 0
4, 18432, Note_on_c, 1, 63, 63
4, 18462, Note_on_c, 1, 63, 0
4, 18464, Note_on_c, 1, 67, 63
4, 18494, Note_on_c, 1, 67, 0
4, 18496, Note_on_c, 1, 70, 63
4, 18526, Note_on_c, 1, 70, 0
4, 18528, Note_on_c, 1, 63, 63
4, 18558, Note_on_c, 1, 63, 0
4, 18560, Note_on_c, 1, 67, 63
4, 18590, Note_on_c, 1, 67, 0
4, 18592, Note_on_c, 1, 70, 63
4, 18622, Note_on_c, 1, 70, 0
4, 18624, Note_on_c, 1, 63, 63
4, 18654, Note_on_c, 1, 63, 0
4, 18656, Note_on_c, 1, 67, 63
4, 18686, Note_on_c, 1, 67, 0
4, 18688, Note_on_c, 1, 70, 63
4, 18718, Note_on_c, 1, 70, 0
4, 18720, Note_on_c, 1, 63, 63
4, 18750, Note_on_c, 1, 63, 0
4, 18752, Note_on_c, 1, 68, 63
4, 18782, Note_on_c, 1, 68, 0
4, 18784, Note_on_c, 1, 74, 63
4, 18814, Note_on_c, 1, 74, 0
4, 18816, Note_on_c, 1, 63, 63
4, 18846, Note_on_c, 1, 63, 0
4, 18848, Note_on_c, 1, 67, 63
4, 18878, Note_on_c, 1, 67, 0
4, 18880, Note_on_c, 1, 70, 63
4, 18910, Note_on_c, 1, 70, 0
4, 18912, Note_on_c, 1, 63, 63
4, 18942, Note_on_c, 1, 63, 0
4, 18944, Note_on_c, 1, 67, 63
4, 18974, Note_on_c, 1, 67, 0
4, 18976, Note_on_c, 1, 70, 63
4, 19006, Note_on_c, 1, 70, 0
4, 19008, Note_on_c, 1, 63, 63
4, 19038, Note_on_c, 1, 63, 0
4, 19040, Note_on_c, 1, 67, 63
4, 19070, Note_on_c, 1, 67, 0
4, 19072, Note_on_c, 1, 70, 63
4, 19102, Note_on_c, 1, 70, 0
4, 19104, Note_on_c, 1, 63, 63
4, 19134, Note_on_c, 1, 63, 0
4, 19136, Note_on_c, 1, 68, 63
4, 19166, Note_on_c, 1, 68, 0
4, 19168, Note_on_c, 1, 74, 63
4, 19198, Note_on_c, 1, 74, 0
4, 19200, Note_on_c, 1, 63, 63
4, 19230, Note_on_c, 1, 63, 0
4, 19232, Note_on_c, 1, 67, 63
4, 19262, Note_on_c, 1, 67, 0
4, 19264, Note_on_c, 1, 70, 63
4, 19294, Note_on_c, 1, 70, 0
4, 19296, Note_on_c, 1, 63, 63
4, 19326, Note_on_c, 1, 63, 0
4, 19328, Note_on_c, 1, 67, 63
4, 19358, Note_on_c, 1, 67, 0
4, 19360, Note_on_c, 1, 70, 63
4, 19390, Note_on_c, 1, 70, 0
4, 19392, Note_on_c, 1, 63, 63
4, 19422, Note_on_c, 1, 63, 0
4, 19424, Note_on_c, 1, 67, 63
4, 19454, Note_on_c, 1, 67, 0
4, 19456, Note_on_c, 1, 70, 63
4, 19486, Note_on_c, 1, 70, 0
4, 19488, Note_on_c, 1, 63, 63
4, 19518, Note_on_c, 1, 63, 0
4, 19520, Note_on_c, 1, 68, 63
4, 19550, Note_on_c, 1, 68, 0
4, 19552, Note_on_c, 1, 74, 63
4, 19582, Note_on_c, 1, 74, 0
4, 19584, Note_on_c, 1, 63, 63
4, 19614, Note_on_c, 1, 63, 0
4, 19616, Note_on_c, 1, 67, 63
4, 19646, Note_on_c, 1, 67, 0
4, 19648, Note_on_c, 1, 70, 63
4, 19678, Note_on_c, 1, 70, 0
4, 19680, Note_on_c, 1, 63, 63
4, 19710, Note_on_c, 1, 63, 0
4, 19712, Note_on_c, 1, 67, 63
4, 19742, Note_on_c, 1, 67, 0
4, 19744, Note_on_c, 1, 70, 63
4, 19774, Note_on_c, 1, 70, 0
4, 19776, Note_on_c, 1, 63, 63
4, 19806, Note_on_c, 1, 63, 0
4, 19808, Note_on_c, 1, 67, 63
4, 19838, Note_on_c, 1, 67, 0
4, 19840, Note_on_c, 1, 70, 63
4, 19870, Note_on_c, 1, 70, 0
4, 19872, Note_on_c, 1, 63, 63
4, 19902, Note_on_c, 1, 63, 0
4, 19904, Note_on_c, 1, 68, 63
4, 19934, Note_on_c, 1, 68, 0
4, 19936, Note_on_c, 1, 74, 63
4, 19966, Note_on_c, 1, 74, 0
4, 19968, Note_on_c, 1, 63, 63
4, 19998, Note_on_c, 1, 63, 0
4, 20000, Note_on_c, 1, 67, 63
4, 20030, Note_on_c, 1, 67, 0
4, 20032, Note_on_c, 1, 70, 63
4, 20062, Note_on_c, 1, 70, 0
4, 20064, Note_on_c, 1, 63, 63
4, 20094, Note_on_c, 1, 63, 0
4, 20096, Note_on_c, 1, 67, 63
4, 20126, Note_on_c, 1, 67, 0
4, 20128, Note_on_c, 1, 70, 63
4, 20158, Note_on_c, 1, 70, 0
4, 20160, Note_on_c, 1, 63, 63
4, 20190, Note_on_c, 1, 63, 0
4, 20192, Note_on_c, 1, 67, 63
4, 20222, Note_on_c, 1, 67, 0
4, 20224, Note_on_c, 1, 70, 63
4, 20254, Note_on_c, 1, 70, 0
4, 20256, Note_on_c, 1, 63, 63
4, 20286, Note_on_c, 1, 63, 0
4, 20288, Note_on_c, 1, 68, 63
4, 20318, Note_on_c, 1, 68, 0
4, 20320, Note_on_c, 1, 74, 63
4, 20350, Note_on_c, 1, 74, 0
4, 20352, Note_on_c, 1, 63, 63
4, 20382, Note_on_c, 1, 63, 0
4, 20384, Note_on_c, 1, 67, 63
4, 20414, Note_on_c, 1, 67, 0
4, 20416, Note_on_c, 1, 70, 63
4, 20446, Note_on_c, 1, 70, 0
4, 20448, Note_on_c, 1, 63, 63
4, 20478, Note_on_c, 1, 63, 0
4, 20480, Note_on_c, 1, 67, 63
4, 20510, Note_on_c, 1, 67, 0
4, 20512, Note_on_c, 1, 70, 63
4, 20542, Note_on_c, 1, 70, 0
4, 20544, Note_on_c, 1, 63, 63
4, 20574, Note_on_c, 1, 63, 0
4, 20576, Note_on_c, 1, 67, 63
4, 20606, Note_on_c, 1, 67, 0
4, 20608, Note_on_c, 1, 70, 63
4, 20638, Note_on_c, 1, 70, 0
4, 20640, Note_on_c, 1, 63, 63
4, 20670, Note_on_c, 1, 63, 0
4, 20672, Note_on_c, 1, 68, 63
4, 20702, Note_on_c, 1, 68, 0
4, 20704, Note_on_c, 1, 74, 63
4, 20734, Note_on_c, 1, 74, 0
4, 20736, Note_on_c, 1, 67, 63
4, 20736, Note_on_c, 1, 63, 63
4, 20825, Note_on_c, 1, 67, 0
4, 20825, Note_on_c, 1, 63, 0
4, 21024, Note_on_c, 1, 43, 56
4, 21024, Note_on_c, 1, 39, 56
4, 21113, Note_on_c, 1, 43, 0
4, 21113, Note_on_c, 1, 39, 0
4, 21120, Note_on_c, 1, 43, 56
4, 21120, Note_on_c, 1, 39, 56
4, 21253, Note_on_c, 1, 43, 0
4, 21253, Note_on_c, 1, 39, 0
4, 21504, Note_on_c, 1, 56, 77
4, 21504, Note_on_c, 1, 44, 77
4, 21593, Note_on_c, 1, 56, 0
4, 21593, Note_on_c, 1, 44, 0
4, 21696, Note_on_c, 1, 55, 77
4, 21696, Note_on_c, 1, 43, 77
4, 21785, Note_on_c, 1, 55, 0
4, 21785, Note_on_c, 1, 43, 0
4, 21984, Note_on_c, 1, 44, 77
4, 22080, Note_on_c, 1, 44, 0
4, 22080, Note_on_c, 1, 56, 77
4, 22125, Note_on_c, 1, 56, 0
4, 22368, Note_on_c, 1, 58, 77
4, 22464, Note_on_c, 1, 58, 0
4, 22464, Note_on_c, 1, 55, 77
4, 22509, Note_on_c, 1, 55, 0
4, 22752, Note_on_c, 1, 56, 77
4, 22848, Note_on_c, 1, 56, 0
4, 22848, Note_on_c, 1, 44, 77
4, 22893, Note_on_c, 1, 44, 0
4, 22944, Note_on_c, 1, 48, 77
4, 23033, Note_on_c, 1, 48, 0
4, 23040, Note_on_c, 1, 49, 77
4, 23217, Note_on_c, 1, 49, 0
4, 23328, Note_on_c, 1, 51, 77
4, 23417, Note_on_c, 1, 51, 0
4, 23496, Note_on_c, 1, 44, 77
4, 23519, Note_on_c, 1, 44, 0
4, 23520, Note_on_c, 1, 48, 77
4, 23587, Note_on_c, 1, 48, 0
4, 23592, Note_on_c, 1, 51, 77
4, 23615, Note_on_c, 1, 51, 0
4, 23616, Note_on_c, 1, 56, 77
4, 23655, Note_on_c, 1, 56, 0
4, 23808, Note_on_c, 1, 60, 77
4, 23808, Note_on_c, 1, 56, 77
4, 23897, Note_on_c, 1, 60, 0
4, 23897, Note_on_c, 1, 56, 0
4, 24000, Note_on_c, 1, 58, 77
4, 24000, Note_on_c, 1, 55, 77
4, 24089, Note_on_c, 1, 58, 0
4, 24089, Note_on_c, 1, 55, 0
4, 24288, Note_on_c, 1, 44, 77
4, 24384, Note_on_c, 1, 44, 0
4, 24384, Note_on_c, 1, 56, 77
4, 24473, Note_on_c, 1, 56, 0
4, 24480, Note_on_c, 1, 60, 77
4, 24569, Note_on_c, 1, 60, 0
4, 24672, Note_on_c, 1, 61, 77
4, 24711, Note_on_c, 1, 61, 0
4, 24864, Note_on_c, 1, 60, 77
4, 24903, Note_on_c, 1, 60, 0
4, 25056, Note_on_c, 1, 58, 77
4, 25095, Note_on_c, 1, 58, 0
4, 25248, Note_on_c, 1, 56, 77
4, 25287, Note_on_c, 1, 56, 0
4, 25440, Note_on_c, 1, 49, 77
4, 25529, Note_on_c, 1, 49, 0
4, 25536, Note_on_c, 1, 51, 77
4, 25713, Note_on_c, 1, 51, 0
4, 25728, Note_on_c, 1, 56, 63
4, 25758, Note_on_c, 1, 56, 0
4, 25760, Note_on_c, 1, 60, 63
4, 25790, Note_on_c, 1, 60, 0
4, 25792, Note_on_c, 1, 63, 63
4, 25822, Note_on_c, 1, 63, 0
4, 25824, Note_on_c, 1, 56, 63
4, 25854, Note_on_c, 1, 56, 0
4, 25856, Note_on_c, 1, 60, 63
4, 25886, Note_on_c, 1, 60, 0
4, 25888, Note_on_c, 1, 63, 63
4, 25918, Note_on_c, 1, 63, 0
4, 25920, Note_on_c, 1, 56, 63
4, 25950, Note_on_c, 1, 56, 0
4, 25952, Note_on_c, 1, 60, 63
4, 25982, Note_on_c, 1, 60, 0
4, 25984, Note_on_c, 1, 63, 63
4, 26014, Note_on_c, 1, 63, 0
4, 26016, Note_on_c, 1, 55, 63
4, 26046, Note_on_c, 1, 55, 0
4, 26048, Note_on_c, 1, 58, 63
4, 26078, Note_on_c, 1, 58, 0
4, 26080, Note_on_c, 1, 63, 63
4, 26110, Note_on_c, 1, 63, 0
4, 26112, Note_on_c, 1, 56, 63
4, 26142, Note_on_c, 1, 56, 0
4, 26144, Note_on_c, 1, 60, 63
4, 26174, Note_on_c, 1, 60, 0
4, 26176, Note_on_c, 1, 63, 63
4, 26206, Note_on_c, 1, 63, 0
4, 26208, Note_on_c, 1, 56, 63
4, 26238, Note_on_c, 1, 56, 0
4, 26240, Note_on_c, 1, 60, 63
4, 26270, Note_on_c, 1, 60, 0
4, 26272, Note_on_c, 1, 63, 63
4, 26302, Note_on_c, 1, 63, 0
4, 26304, Note_on_c, 1, 56, 63
4, 26334, Note_on_c, 1, 56, 0
4, 26336, Note_on_c, 1, 60, 63
4, 26366, Note_on_c, 1, 60, 0
4, 26368, Note_on_c, 1, 63, 63
4, 26398, Note_on_c, 1, 63, 0
4, 26400, Note_on_c, 1, 56, 63
4, 26430, Note_on_c, 1, 56, 0
4, 26432, Note_on_c, 1, 60, 63
4, 26462, Note_on_c, 1, 60, 0
4, 26464, Note_on_c, 1, 63, 63
4, 26494, Note_on_c, 1, 63, 0
4, 26496, Note_on_c, 1, 56, 63
4, 26526, Note_on_c, 1, 56, 0
4, 26528, Note_on_c, 1, 60, 63
4, 26558, Note_on_c, 1, 60, 0
4, 26560, Note_on_c, 1, 63, 63
4, 26590, Note_on_c, 1, 63, 0
4, 26592, Note_on_c, 1, 56, 63
4, 26622, Note_on_c, 1, 56, 0
4, 26624, Note_on_c, 1, 60, 63
4, 26654, Note_on_c, 1, 60, 0
4, 26656, Note_on_c, 1, 63, 63
4, 26686, Note_on_c, 1, 63, 0
4, 26688, Note_on_c, 1, 56, 63
4, 26718, Note_on_c, 1, 56, 0
4, 26720, Note_on_c, 1, 60, 63
4, 26750, Note_on_c, 1, 60, 0
4, 26752, Note_on_c, 1, 63, 63
4, 26782, Note_on_c, 1, 63, 0
4, 26784, Note_on_c, 1, 58, 63
4, 26814, Note_on_c, 1, 58, 0
4, 26816, Note_on_c, 1, 61, 63
4, 26846, Note_on_c, 1, 61, 0
4, 26848, Note_on_c, 1, 67, 63
4, 26878, Note_on_c, 1, 67, 0
4, 26880, Note_on_c, 1, 60, 63
4, 26910, Note_on_c, 1, 60, 0
4, 26912, Note_on_c, 1, 63, 63
4, 26942, Note_on_c, 1, 63, 0
4, 26944, Note_on_c, 1, 68, 63
4, 26974, Note_on_c, 1, 68, 0
4, 26976, Note_on_c, 1, 60, 63
4, 27006, Note_on_c, 1, 60, 0
4, 27008, Note_on_c, 1, 63, 63
4, 27038, Note_on_c, 1, 63, 0
4, 27040, Note_on_c, 1, 68, 63
4, 27070, Note_on_c, 1, 68, 0
4, 27072, Note_on_c, 1, 60, 63
4, 27102, Note_on_c, 1, 60, 0
4, 27104, Note_on_c, 1, 63, 63
4, 27134, Note_on_c, 1, 63, 0
4, 27136, Note_on_c, 1, 68, 63
4, 27166, Note_on_c, 1, 68, 0
4, 27168, Note_on_c, 1, 60, 63
4, 27198, Note_on_c, 1, 60, 0
4, 27200, Note_on_c, 1, 63, 63
4, 27230, Note_on_c, 1, 63, 0
4, 27232, Note_on_c, 1, 68, 63
4, 27262, Note_on_c, 1, 68, 0
4, 27264, Note_on_c, 1, 60, 63
4, 27294, Note_on_c, 1, 60, 0
4, 27296, Note_on_c, 1, 63, 63
4, 27326, Note_on_c, 1, 63, 0
4, 27328, Note_on_c, 1, 68, 63
4, 27358, Note_on_c, 1, 68, 0
4, 27360, Note_on_c, 1, 60, 63
4, 27390, Note_on_c, 1, 60, 0
4, 27392, Note_on_c, 1, 63, 63
4, 27422, Note_on_c, 1, 63, 0
4, 27424, Note_on_c, 1, 68, 63
4, 27454, Note_on_c, 1, 68, 0
4, 27456, Note_on_c, 1, 60, 63
4, 27486, Note_on_c, 1, 60, 0
4, 27488, Note_on_c, 1, 63, 63
4, 27518, Note_on_c, 1, 63, 0
4, 27520, Note_on_c, 1, 68, 63
4, 27550, Note_on_c, 1, 68, 0
4, 27552, Note_on_c, 1, 60, 63
4, 27582, Note_on_c, 1, 60, 0
4, 27584, Note_on_c, 1, 63, 63
4, 27614, Note_on_c, 1, 63, 0
4, 27616, Note_on_c, 1, 68, 63
4, 27646, Note_on_c, 1, 68, 0
4, 27648, Note_on_c, 1, 61, 63
4, 27678, Note_on_c, 1, 61, 0
4, 27680, Note_on_c, 1, 65, 63
4, 27710, Note_on_c, 1, 65, 0
4, 27712, Note_on_c, 1, 68, 63
4, 27742, Note_on_c, 1, 68, 0
4, 27744, Note_on_c, 1, 61, 63
4, 27774, Note_on_c, 1, 61, 0
4, 27776, Note_on_c, 1, 65, 63
4, 27806, Note_on_c, 1, 65, 0
4, 27808, Note_on_c, 1, 68, 63
4, 27838, Note_on_c, 1, 68, 0
4, 27840, Note_on_c, 1, 61, 63
4, 27870, Note_on_c, 1, 61, 0
4, 27872, Note_on_c, 1, 63, 63
4, 27902, Note_on_c, 1, 63, 0
4, 27904, Note_on_c, 1, 67, 63
4, 27934, Note_on_c, 1, 67, 0
4, 27936, Note_on_c, 1, 61, 63
4, 27966, Note_on_c, 1, 61, 0
4, 27968, Note_on_c, 1, 63, 63
4, 27998, Note_on_c, 1, 63, 0
4, 28000, Note_on_c, 1, 67, 63
4, 28030, Note_on_c, 1, 67, 0
4, 28032, Note_on_c, 1, 60, 63
4, 28062, Note_on_c, 1, 60, 0
4, 28064, Note_on_c, 1, 63, 63
4, 28094, Note_on_c, 1, 63, 0
4, 28096, Note_on_c, 1, 68, 63
4, 28126, Note_on_c, 1, 68, 0
4, 28128, Note_on_c, 1, 60, 63
4, 28158, Note_on_c, 1, 60, 0
4, 28160, Note_on_c, 1, 63, 63
4, 28190, Note_on_c, 1, 63, 0
4, 28192, Note_on_c, 1, 68, 63
4, 28222, Note_on_c, 1, 68, 0
4, 28224, Note_on_c, 1, 58, 63
4, 28254, Note_on_c, 1, 58, 0
4, 28256, Note_on_c, 1, 61, 63
4, 28286, Note_on_c, 1, 61, 0
4, 28288, Note_on_c, 1, 67, 63
4, 28318, Note_on_c, 1, 67, 0
4, 28320, Note_on_c, 1, 58, 63
4, 28350, Note_on_c, 1, 58, 0
4, 28352, Note_on_c, 1, 61, 63
4, 28382, Note_on_c, 1, 61, 0
4, 28384, Note_on_c, 1, 67, 63
4, 28414, Note_on_c, 1, 67, 0
4, 28416, Note_on_c, 1, 56, 63
4, 28505, Note_on_c, 1, 56, 0
4, 28896, Note_on_c, 1, 67, 63
4, 28896, Note_on_c, 1, 63, 63
4, 28985, Note_on_c, 1, 67, 0
4, 28985, Note_on_c, 1, 63, 0
4, 29184, Note_on_c, 1, 51, 77
4, 29273, Note_on_c, 1, 51, 0
4, 29280, Note_on_c, 1, 55, 77
4, 29369, Note_on_c, 1, 55, 0
4, 29376, Note_on_c, 1, 50, 77
4, 29465, Note_on_c, 1, 50, 0
4, 29568, Note_on_c, 1, 50, 77
4, 29657, Note_on_c, 1, 50, 0
4, 29664, Note_on_c, 1, 58, 77
4, 29753, Note_on_c, 1, 58, 0
4, 29760, Note_on_c, 1, 51, 77
4, 29849, Note_on_c, 1, 51, 0
4, 29856, Note_on_c, 1, 58, 77
4, 29945, Note_on_c, 1, 58, 0
4, 29952, Note_on_c, 1, 53, 77
4, 30041, Note_on_c, 1, 53, 0
4, 30048, Note_on_c, 1, 62, 77
4, 30137, Note_on_c, 1, 62, 0
4, 30144, Note_on_c, 1, 55, 77
4, 30233, Note_on_c, 1, 55, 0
4, 30240, Note_on_c, 1, 63, 77
4, 30329, Note_on_c, 1, 63, 0
4, 30336, Note_on_c, 1, 56, 77
4, 30366, Note_on_c, 1, 56, 0
4, 30368, Note_on_c, 1, 60, 77
4, 30398, Note_on_c, 1, 60, 0
4, 30400, Note_on_c, 1, 63, 77
4, 30430, Note_on_c, 1, 63, 0
4, 30432, Note_on_c, 1, 56, 77
4, 30462, Note_on_c, 1, 56, 0
4, 30464, Note_on_c, 1, 60, 77
4, 30494, Note_on_c, 1, 60, 0
4, 30496, Note_on_c, 1, 63, 77
4, 30526, Note_on_c, 1, 63, 0
4, 30528, Note_on_c, 1, 56, 77
4, 30558, Note_on_c, 1, 56, 0
4, 30560, Note_on_c, 1, 60, 77
4, 30590, Note_on_c, 1, 60, 0
4, 30592, Note_on_c, 1, 63, 77
4, 30622, Note_on_c, 1, 63, 0
4, 30624, Note_on_c, 1, 55, 77
4, 30654, Note_on_c, 1, 55, 0
4, 30656, Note_on_c, 1, 58, 77
4, 30686, Note_on_c, 1, 58, 0
4, 30688, Note_on_c, 1, 61, 77
4, 30718, Note_on_c, 1, 61, 0
4, 30720, Note_on_c, 1, 56, 77
4, 30809, Note_on_c, 1, 56, 0
4, 31104, Note_on_c, 1, 55, 77
4, 31134, Note_on_c, 1, 55, 0
4, 31136, Note_on_c, 1, 58, 77
4, 31166, Note_on_c, 1, 58, 0
4, 31168, Note_on_c, 1, 63, 77
4, 31198, Note_on_c, 1, 63, 0
4, 31200, Note_on_c, 1, 55, 77
4, 31230, Note_on_c, 1, 55, 0
4, 31232, Note_on_c, 1, 58, 77
4, 31262, Note_on_c, 1, 58, 0
4, 31264, Note_on_c, 1, 63, 77
4, 31294, Note_on_c, 1, 63, 0
4, 31296, Note_on_c, 1, 55, 77
4, 31326, Note_on_c, 1, 55, 0
4, 31328, Note_on_c, 1, 58, 77
4, 31358, Note_on_c, 1, 58, 0
4, 31360, Note_on_c, 1, 63, 77
4, 31390, Note_on_c, 1, 63, 0
4, 31392, Note_on_c, 1, 53, 77
4, 31422, Note_on_c, 1, 53, 0
4, 31424, Note_on_c, 1, 56, 77
4, 31454, Note_on_c, 1, 56, 0
4, 31456, Note_on_c, 1, 59, 77
4, 31486, Note_on_c, 1, 59, 0
4, 31488, Note_on_c, 1, 55, 77
4, 31577, Note_on_c, 1, 55, 0
4, 31872, Note_on_c, 1, 58, 63
4, 31902, Note_on_c, 1, 58, 0
4, 31904, Note_on_c, 1, 62, 63
4, 31934, Note_on_c, 1, 62, 0
4, 31936, Note_on_c, 1, 65, 63
4, 31966, Note_on_c, 1, 65, 0
4, 31968, Note_on_c, 1, 58, 63
4, 31998, Note_on_c, 1, 58, 0
4, 32000, Note_on_c, 1, 62, 63
4, 32030, Note_on_c, 1, 62, 0
4, 32032, Note_on_c, 1, 65, 63
4, 32062, Note_on_c, 1, 65, 0
4, 32064, Note_on_c, 1, 58, 63
4, 32094, Note_on_c, 1, 58, 0
4, 32096, Note_on_c, 1, 62, 63
4, 32126, Note_on_c, 1, 62, 0
4, 32128, Note_on_c, 1, 65, 63
4, 32158, Note_on_c, 1, 65, 0
4, 32160, Note_on_c, 1, 58, 63
4, 32190, Note_on_c, 1, 58, 0
4, 32192, Note_on_c, 1, 63, 63
4, 32222, Note_on_c, 1, 63, 0
4, 32224, Note_on_c, 1, 67, 63
4, 32254, Note_on_c, 1, 67, 0
4, 32256, Note_on_c, 1, 58, 63
4, 32286, Note_on_c, 1, 58, 0
4, 32288, Note_on_c, 1, 65, 63
4, 32318, Note_on_c, 1, 65, 0
4, 32320, Note_on_c, 1, 68, 63
4, 32350, Note_on_c, 1, 68, 0
4, 32352, Note_on_c, 1, 58, 63
4, 32382, Note_on_c, 1, 58, 0
4, 32384, Note_on_c, 1, 65, 63
4, 32414, Note_on_c, 1, 65, 0
4, 32416, Note_on_c, 1, 68, 63
4, 32446, Note_on_c, 1, 68, 0
4, 32448, Note_on_c, 1, 58, 63
4, 32478, Note_on_c, 1, 58, 0
4, 32480, Note_on_c, 1, 65, 63
4, 32510, Note_on_c, 1, 65, 0
4, 32512, Note_on_c, 1, 68, 63
4, 32542, Note_on_c, 1, 68, 0
4, 32544, Note_on_c, 1, 58, 63
4, 32574, Note_on_c, 1, 58, 0
4, 32576, Note_on_c, 1, 63, 63
4, 32606, Note_on_c, 1, 63, 0
4, 32608, Note_on_c, 1, 67, 63
4, 32638, Note_on_c, 1, 67, 0
4, 32640, Note_on_c, 1, 58, 63
4, 32670, Note_on_c, 1, 58, 0
4, 32672, Note_on_c, 1, 62, 63
4, 32702, Note_on_c, 1, 62, 0
4, 32704, Note_on_c, 1, 65, 63
4, 32734, Note_on_c, 1, 65, 0
4, 32736, Note_on_c, 1, 58, 63
4, 32766, Note_on_c, 1, 58, 0
4, 32768, Note_on_c, 1, 62, 63
4, 32798, Note_on_c, 1, 62, 0
4, 32800, Note_on_c, 1, 65, 63
4, 32830, Note_on_c, 1, 65, 0
4, 32832, Note_on_c, 1, 58, 63
4, 32862, Note_on_c, 1, 58, 0
4, 32864, Note_on_c, 1, 62, 63
4, 32894, Note_on_c, 1, 62, 0
4, 32896, Note_on_c, 1, 65, 63
4, 32926, Note_on_c, 1, 65, 0
4, 32928, Note_on_c, 1, 58, 63
4, 32958, Note_on_c, 1, 58, 0
4, 32960, Note_on_c, 1, 63, 63
4, 32990, Note_on_c, 1, 63, 0
4, 32992, Note_on_c, 1, 67, 63
4, 33022, Note_on_c, 1, 67, 0
4, 33024, Note_on_c, 1, 58, 63
4, 33054, Note_on_c, 1, 58, 0
4, 33056, Note_on_c, 1, 65, 63
4, 33086, Note_on_c, 1, 65, 0
4, 33088, Note_on_c, 1, 68, 63
4, 33118, Note_on_c, 1, 68, 0
4, 33120, Note_on_c, 1, 58, 63
4, 33150, Note_on_c, 1, 58, 0
4, 33152, Note_on_c, 1, 65, 63
4, 33182, Note_on_c, 1, 65, 0
4, 33184, Note_on_c, 1, 68, 63
4, 33214, Note_on_c, 1, 68, 0
4, 33216, Note_on_c, 1, 58, 63
4, 33246, Note_on_c, 1, 58, 0
4, 33248, Note_on_c, 1, 65, 63
4, 33278, Note_on_c, 1, 65, 0
4, 33280, Note_on_c, 1, 68, 63
4, 33310, Note_on_c, 1, 68, 0
4, 33312, Note_on_c, 1, 58, 63
4, 33342, Note_on_c, 1, 58, 0
4, 33344, Note_on_c, 1, 63, 63
4, 33374, Note_on_c, 1, 63, 0
4, 33376, Note_on_c, 1, 67, 63
4, 33406, Note_on_c, 1, 67, 0
4, 33408, Note_on_c, 1, 58, 63
4, 33438, Note_on_c, 1, 58, 0
4, 33440, Note_on_c, 1, 62, 64
4, 33470, Note_on_c, 1, 62, 0
4, 33472, Note_on_c, 1, 65, 65
4, 33502, Note_on_c, 1, 65, 0
4, 33504, Note_on_c, 1, 58, 66
4, 33534, Note_on_c, 1, 58, 0
4, 33536, Note_on_c, 1, 62, 68
4, 33566, Note_on_c, 1, 62, 0
4, 33568, Note_on_c, 1, 65, 69
4, 33598, Note_on_c, 1, 65, 0
4, 33600, Note_on_c, 1, 59, 70
4, 33630, Note_on_c, 1, 59, 0
4, 33632, Note_on_c, 1, 62, 72
4, 33662, Note_on_c, 1, 62, 0
4, 33664, Note_on_c, 1, 65, 73
4, 33694, Note_on_c, 1, 65, 0
4, 33696, Note_on_c, 1, 60, 74
4, 33726, Note_on_c, 1, 60, 0
4, 33728, Note_on_c, 1, 62, 76
4, 33758, Note_on_c, 1, 62, 0
4, 33760, Note_on_c, 1, 63, 77
4, 33790, Note_on_c, 1, 63, 0
4, 33792, Note_on_c, 1, 56, 78
4, 33881, Note_on_c, 1, 56, 0
4, 33984, Note_on_c, 1, 67, 84
4, 34073, Note_on_c, 1, 67, 0
4, 34080, Note_on_c, 1, 68, 79
4, 34169, Note_on_c, 1, 68, 0
4, 34176, Note_on_c, 1, 68, 75
4, 34368, Note_on_c, 1, 68, 0
4, 34368, Note_on_c, 1, 67, 67
4, 34457, Note_on_c, 1, 67, 0
4, 34656, Note_on_c, 1, 51, 77
4, 34656, Note_on_c, 1, 48, 77
4, 34745, Note_on_c, 1, 51, 0
4, 34745, Note_on_c, 1, 48, 0
4, 34752, Note_on_c, 1, 51, 77
4, 34752, Note_on_c, 1, 48, 77
4, 34841, Note_on_c, 1, 51, 0
4, 34841, Note_on_c, 1, 48, 0
4, 34848, Note_on_c, 1, 51, 77
4, 34848, Note_on_c, 1, 48, 77
4, 34937, Note_on_c, 1, 51, 0
4, 34937, Note_on_c, 1, 48, 0
4, 35040, Note_on_c, 1, 53, 77
4, 35040, Note_on_c, 1, 50, 77
4, 35040, Note_on_c, 1, 46, 77
4, 35129, Note_on_c, 1, 53, 0
4, 35129, Note_on_c, 1, 50, 0
4, 35129, Note_on_c, 1, 46, 0
4, 35136, Note_on_c, 1, 53, 77
4, 35136, Note_on_c, 1, 50, 77
4, 35136, Note_on_c, 1, 46, 77
4, 35225, Note_on_c, 1, 53, 0
4, 35225, Note_on_c, 1, 50, 0
4, 35225, Note_on_c, 1, 46, 0
4, 35232, Note_on_c, 1, 53, 77
4, 35232, Note_on_c, 1, 50, 77
4, 35232, Note_on_c, 1, 46, 77
4, 35321, Note_on_c, 1, 53, 0
4, 35321, Note_on_c, 1, 50, 0
4, 35321, Note_on_c, 1, 46, 0
4, 35328, Note_on_c, 1, 51, 84
4, 35417, Note_on_c, 1, 51, 0
4, 35520, Note_on_c, 1, 53, 84
4, 35520, Note_on_c, 1, 46, 84
4, 35609, Note_on_c, 1, 53, 0
4, 35609, Note_on_c, 1, 46, 0
4, 35712, Note_on_c, 1, 55, 84
4, 35712, Note_on_c, 1, 51, 84
4, 35801, Note_on_c, 1, 55, 0
4, 35801, Note_on_c, 1, 51, 0
4, 35904, Note_on_c, 1, 53, 84
4, 35904, Note_on_c, 1, 46, 84
4, 35993, Note_on_c, 1, 53, 0
4, 35993, Note_on_c, 1, 46, 0
4, 36096, Note_on_c, 1, 55, 84
4, 36096, Note_on_c, 1, 51, 84
4, 36185, Note_on_c, 1, 55, 0
4, 36185, Note_on_c, 1, 51, 0
4, 36576, Note_on_c, 1, 56, 84
4, 36576, Note_on_c, 1, 44, 84
4, 36665, Note_on_c, 1, 56, 0
4, 36665, Note_on_c, 1, 44, 0
4, 36672, Note_on_c, 1, 55, 84
4, 36672, Note_on_c, 1, 46, 84
4, 36761, Note_on_c, 1, 55, 0
4, 36761, Note_on_c, 1, 46, 0
4, 36768, Note_on_c, 1, 53, 84
4, 36768, Note_on_c, 1, 46, 84
4, 36857, Note_on_c, 1, 53, 0
4, 36857, Note_on_c, 1, 46, 0
4, 36864, Note_on_c, 1, 63, 84
4, 36894, Note_on_c, 1, 63, 0
4, 36896, Note_on_c, 1, 67, 84
4, 36926, Note_on_c, 1, 67, 0
4, 36928, Note_on_c, 1, 65, 84
4, 36958, Note_on_c, 1, 65, 0
4, 36960, Note_on_c, 1, 63, 84
4, 36990, Note_on_c, 1, 63, 0
4, 36992, Note_on_c, 1, 62, 84
4, 37022, Note_on_c, 1, 62, 0
4, 37024, Note_on_c, 1, 60, 84
4, 37054, Note_on_c, 1, 60, 0
4, 37056, Note_on_c, 1, 58, 84
4, 37086, Note_on_c, 1, 58, 0
4, 37088, Note_on_c, 1, 56, 84
4, 37118, Note_on_c, 1, 56, 0
4, 37120, Note_on_c, 1, 55, 84
4, 37150, Note_on_c, 1, 55, 0
4, 37152, Note_on_c, 1, 53, 84
4, 37182, Note_on_c, 1, 53, 0
4, 37184, Note_on_c, 1, 51, 84
4, 37214, Note_on_c, 1, 51, 0
4, 37216, Note_on_c, 1, 50, 84
4, 37246, Note_on_c, 1, 50, 0
4, 37248, Note_on_c, 1, 48, 84
4, 37278, Note_on_c, 1, 48, 0
4, 37280, Note_on_c, 1, 63, 84
4, 37310, Note_on_c, 1, 63, 0
4, 37312, Note_on_c, 1, 62, 84
4, 37342, Note_on_c, 1, 62, 0
4, 37344, Note_on_c, 1, 60, 84
4, 37374, Note_on_c, 1, 60, 0
4, 37376, Note_on_c, 1, 58, 84
4, 37406, Note_on_c, 1, 58, 0
4, 37408, Note_on_c, 1, 56, 84
4, 37438, Note_on_c, 1, 56, 0
4, 37440, Note_on_c, 1, 55, 84
4, 37470, Note_on_c, 1, 55, 0
4, 37472, Note_on_c, 1, 53, 84
4, 37502, Note_on_c, 1, 53, 0
4, 37504, Note_on_c, 1, 51, 84
4, 37534, Note_on_c, 1, 51, 0
4, 37536, Note_on_c, 1, 50, 84
4, 37566, Note_on_c, 1, 50, 0
4, 37568, Note_on_c, 1, 48, 84
4, 37598, Note_on_c, 1, 48, 0
4, 37600, Note_on_c, 1, 46, 84
4, 37630, Note_on_c, 1, 46, 0
4, 37632, Note_on_c, 1, 44, 84
4, 37809, Note_on_c, 1, 44, 0
4, 37824, Note_on_c, 1, 46, 84
4, 37913, Note_on_c, 1, 46, 0
4, 37920, Note_on_c, 1, 46, 84
4, 38009, Note_on_c, 1, 46, 0
4, 38016, Note_on_c, 1, 63, 84
4, 38046, Note_on_c, 1, 63, 0
4, 38048, Note_on_c, 1, 67, 84
4, 38078, Note_on_c, 1, 67, 0
4, 38080, Note_on_c, 1, 65, 84
4, 38110, Note_on_c, 1, 65, 0
4, 38112, Note_on_c, 1, 63, 84
4, 38142, Note_on_c, 1, 63, 0
4, 38144, Note_on_c, 1, 62, 84
4, 38174, Note_on_c, 1, 62, 0
4, 38176, Note_on_c, 1, 60, 84
4, 38206, Note_on_c, 1, 60, 0
4, 38208, Note_on_c, 1, 58, 84
4, 38238, Note_on_c, 1, 58, 0
4, 38240, Note_on_c, 1, 56, 84
4, 38270, Note_on_c, 1, 56, 0
4, 38272, Note_on_c, 1, 55, 84
4, 38302, Note_on_c, 1, 55, 0
4, 38304, Note_on_c, 1, 53, 84
4, 38334, Note_on_c, 1, 53, 0
4, 38336, Note_on_c, 1, 51, 84
4, 38366, Note_on_c, 1, 51, 0
4, 38368, Note_on_c, 1, 50, 84
4, 38398, Note_on_c, 1, 50, 0
4, 38400, Note_on_c, 1, 48, 84
4, 38430, Note_on_c, 1, 48, 0
4, 38432, Note_on_c, 1, 63, 84
4, 38462, Note_on_c, 1, 63, 0
4, 38464, Note_on_c, 1, 62, 84
4, 38494, Note_on_c, 1, 62, 0
4, 38496, Note_on_c, 1, 60, 84
4, 38526, Note_on_c, 1, 60, 0
4, 38528, Note_on_c, 1, 58, 84
4, 38558, Note_on_c, 1, 58, 0
4, 38560, Note_on_c, 1, 56, 84
4, 38590, Note_on_c, 1, 56, 0
4, 38592, Note_on_c, 1, 55, 84
4, 38622, Note_on_c, 1, 55, 0
4, 38624, Note_on_c, 1, 53, 84
4, 38654, Note_on_c, 1, 53, 0
4, 38656, Note_on_c, 1, 51, 84
4, 38686, Note_on_c, 1, 51, 0
4, 38688, Note_on_c, 1, 50, 84
4, 38718, Note_on_c, 1, 50, 0
4, 38720, Note_on_c, 1, 48, 84
4, 38750, Note_on_c, 1, 48, 0
4, 38752, Note_on_c, 1, 46, 84
4, 38782, Note_on_c, 1, 46, 0
4, 38784, Note_on_c, 1, 44, 84
4, 38961, Note_on_c, 1, 44, 0
4, 38976, Note_on_c, 1, 46, 84
4, 39065, Note_on_c, 1, 46, 0
4, 39072, Note_on_c, 1, 46, 79
4, 39161, Note_on_c, 1, 46, 0
4, 39168, Note_on_c, 1, 63, 75
4, 39198, Note_on_c, 1, 63, 0
4, 39200, Note_on_c, 1, 67, 74
4, 39230, Note_on_c, 1, 67, 0
4, 39232, Note_on_c, 1, 70, 72
4, 39262, Note_on_c, 1, 70, 0
4, 39264, Note_on_c, 1, 63, 71
4, 39294, Note_on_c, 1, 63, 0
4, 39296, Note_on_c, 1, 67, 70
4, 39326, Note_on_c, 1, 67, 0
4, 39328, Note_on_c, 1, 70, 69
4, 39358, Note_on_c, 1, 70, 0
4, 39360, Note_on_c, 1, 63, 67
4, 39390, Note_on_c, 1, 63, 0
4, 39392, Note_on_c, 1, 67, 66
4, 39422, Note_on_c, 1, 67, 0
4, 39424, Note_on_c, 1, 70, 65
4, 39454, Note_on_c, 1, 70, 0
4, 39456, Note_on_c, 1, 63, 63
4, 39486, Note_on_c, 1, 63, 0
4, 39488, Note_on_c, 1, 68, 63
4, 39518, Note_on_c, 1, 68, 0
4, 39520, Note_on_c, 1, 74, 63
4, 39550, Note_on_c, 1, 74, 0
4, 39552, Note_on_c, 1, 63, 63
4, 39582, Note_on_c, 1, 63, 0
4, 39584, Note_on_c, 1, 67, 63
4, 39614, Note_on_c, 1, 67, 0
4, 39616, Note_on_c, 1, 70, 63
4, 39646, Note_on_c, 1, 70, 0
4, 39648, Note_on_c, 1, 63, 63
4, 39678, Note_on_c, 1, 63, 0
4, 39680, Note_on_c, 1, 67, 63
4, 39710, Note_on_c, 1, 67, 0
4, 39712, Note_on_c, 1, 70, 63
4, 39742, Note_on_c, 1, 70, 0
4, 39744, Note_on_c, 1, 63, 63
4, 39774, Note_on_c, 1, 63, 0
4, 39776, Note_on_c, 1, 67, 63
4, 39806, Note_on_c, 1, 67, 0
4, 39808, Note_on_c, 1, 70, 63
4, 39838, Note_on_c, 1, 70, 0
4, 39840, Note_on_c, 1, 63, 63
4, 39870, Note_on_c, 1, 63, 0
4, 39872, Note_on_c, 1, 68, 63
4, 39902, Note_on_c, 1, 68, 0
4, 39904, Note_on_c, 1, 74, 63
4, 39934, Note_on_c, 1, 74, 0
4, 39936, Note_on_c, 1, 63, 63
4, 39966, Note_on_c, 1, 63, 0
4, 39968, Note_on_c, 1, 67, 63
4, 39998, Note_on_c, 1, 67, 0
4, 40000, Note_on_c, 1, 70, 63
4, 40030, Note_on_c, 1, 70, 0
4, 40032, Note_on_c, 1, 63, 63
4, 40062, Note_on_c, 1, 63, 0
4, 40064, Note_on_c, 1, 67, 63
4, 40094, Note_on_c, 1, 67, 0
4, 40096, Note_on_c, 1, 70, 63
4, 40126, Note_on_c, 1, 70, 0
4, 40128, Note_on_c, 1, 63, 63
4, 40158, Note_on_c, 1, 63, 0
4, 40160, Note_on_c, 1, 67, 63
4, 40190, Note_on_c, 1, 67, 0
4, 40192, Note_on_c, 1, 70, 63
4, 40222, Note_on_c, 1, 70, 0
4, 40224, Note_on_c, 1, 63, 63
4, 40254, Note_on_c, 1, 63, 0
4, 40256, Note_on_c, 1, 68, 63
4, 40286, Note_on_c, 1, 68, 0
4, 40288, Note_on_c, 1, 74, 63
4, 40318, Note_on_c, 1, 74, 0
4, 40320, Note_on_c, 1, 63, 63
4, 40350, Note_on_c, 1, 63, 0
4, 40352, Note_on_c, 1, 67, 63
4, 40382, Note_on_c, 1, 67, 0
4, 40384, Note_on_c, 1, 70, 63
4, 40414, Note_on_c, 1, 70, 0
4, 40416, Note_on_c, 1, 63, 63
4, 40446, Note_on_c, 1, 63, 0
4, 40448, Note_on_c, 1, 67, 63
4, 40478, Note_on_c, 1, 67, 0
4, 40480, Note_on_c, 1, 70, 63
4, 40510, Note_on_c, 1, 70, 0
4, 40512, Note_on_c, 1, 63, 63
4, 40542, Note_on_c, 1, 63, 0
4, 40544, Note_on_c, 1, 67, 63
4, 40574, Note_on_c, 1, 67, 0
4, 40576, Note_on_c, 1, 70, 63
4, 40606, Note_on_c, 1, 70, 0
4, 40608, Note_on_c, 1, 63, 63
4, 40638, Note_on_c, 1, 63, 0
4, 40640, Note_on_c, 1, 68, 63
4, 40670, Note_on_c, 1, 68, 0
4, 40672, Note_on_c, 1, 74, 63
4, 40702, Note_on_c, 1, 74, 0
4, 40704, Note_on_c, 1, 63, 63
4, 40734, Note_on_c, 1, 63, 0
4, 40736, Note_on_c, 1, 67, 63
4, 40766, Note_on_c, 1, 67, 0
4, 40768, Note_on_c, 1, 70, 63
4, 40798, Note_on_c, 1, 70, 0
4, 40800, Note_on_c, 1, 63, 63
4, 40830, Note_on_c, 1, 63, 0
4, 40832, Note_on_c, 1, 67, 63
4, 40862, Note_on_c, 1, 67, 0
4, 40864, Note_on_c, 1, 70, 63
4, 40894, Note_on_c, 1, 70, 0
4, 40896, Note_on_c, 1, 63, 63
4, 40926, Note_on_c, 1, 63, 0
4, 40928, Note_on_c, 1, 67, 63
4, 40958, Note_on_c, 1, 67, 0
4, 40960, Note_on_c, 1, 70, 63
4, 40990, Note_on_c, 1, 70, 0
4, 40992, Note_on_c, 1, 63, 63
4, 41022, Note_on_c, 1, 63, 0
4, 41024, Note_on_c, 1, 68, 63
4, 41054, Note_on_c, 1, 68, 0
4, 41056, Note_on_c, 1, 74, 63
4, 41086, Note_on_c, 1, 74, 0
4, 41088, Note_on_c, 1, 63, 63
4, 41118, Note_on_c, 1, 63, 0
4, 41120, Note_on_c, 1, 67, 63
4, 41150, Note_on_c, 1, 67, 0
4, 41152, Note_on_c, 1, 70, 63
4, 41182, Note_on_c, 1, 70, 0
4, 41184, Note_on_c, 1, 63, 63
4, 41214, Note_on_c, 1, 63, 0
4, 41216, Note_on_c, 1, 67, 63
4, 41246, Note_on_c, 1, 67, 0
4, 41248, Note_on_c, 1, 70, 63
4, 41278, Note_on_c, 1, 70, 0
4, 41280, Note_on_c, 1, 63, 63
4, 41310, Note_on_c, 1, 63, 0
4, 41312, Note_on_c, 1, 67, 63
4, 41342, Note_on_c, 1, 67, 0
4, 41344, Note_on_c, 1, 70, 63
4, 41374, Note_on_c, 1, 70, 0
4, 41376, Note_on_c, 1, 63, 63
4, 41406, Note_on_c, 1, 63, 0
4, 41408, Note_on_c, 1, 68, 63
4, 41438, Note_on_c, 1, 68, 0
4, 41440, Note_on_c, 1, 74, 63
4, 41470, Note_on_c, 1, 74, 0
4, 41472, Note_on_c, 1, 63, 63
4, 41502, Note_on_c, 1, 63, 0
4, 41504, Note_on_c, 1, 67, 63
4, 41534, Note_on_c, 1, 67, 0
4, 41536, Note_on_c, 1, 70, 63
4, 41566, Note_on_c, 1, 70, 0
4, 41568, Note_on_c, 1, 63, 63
4, 41598, Note_on_c, 1, 63, 0
4, 41600, Note_on_c, 1, 67, 63
4, 41630, Note_on_c, 1, 67, 0
4, 41632, Note_on_c, 1, 70, 63
4, 41662, Note_on_c, 1, 70, 0
4, 41664, Note_on_c, 1, 63, 63
4, 41694, Note_on_c, 1, 63, 0
4, 41696, Note_on_c, 1, 67, 63
4, 41726, Note_on_c, 1, 67, 0
4, 41728, Note_on_c, 1, 70, 63
4, 41758, Note_on_c, 1, 70, 0
4, 41760, Note_on_c, 1, 63, 63
4, 41790, Note_on_c, 1, 63, 0
4, 41792, Note_on_c, 1, 68, 63
4, 41822, Note_on_c, 1, 68, 0
4, 41824, Note_on_c, 1, 74, 63
4, 41854, Note_on_c, 1, 74, 0
4, 41856, Note_on_c, 1, 67, 63
4, 41856, Note_on_c, 1, 63, 63
4, 41945, Note_on_c, 1, 67, 0
4, 41945, Note_on_c, 1, 63, 0
4, 42144, Note_on_c, 1, 43, 56
4, 42144, Note_on_c, 1, 39, 56
4, 42233, Note_on_c, 1, 43, 0
4, 42233, Note_on_c, 1, 39, 0
4, 42240, Note_on_c, 1, 43, 56
4, 42240, Note_on_c, 1, 39, 56
4, 42373, Note_on_c, 1, 43, 0
4, 42373, Note_on_c, 1, 39, 0
4, 42624, Note_on_c, 1, 51, 77
4, 42624, Note_on_c, 1, 39, 77
4, 42713, Note_on_c, 1, 51, 0
4, 42713, Note_on_c, 1, 39, 0
4, 42816, Note_on_c, 1, 50, 77
4, 42816, Note_on_c, 1, 38, 77
4, 42905, Note_on_c, 1, 50, 0
4, 42905, Note_on_c, 1, 38, 0
4, 43104, Note_on_c, 1, 39, 77
4, 43193, Note_on_c, 1, 39, 0
4, 43200, Note_on_c, 1, 51, 77
4, 43289, Note_on_c, 1, 51, 0
4, 43488, Note_on_c, 1, 53, 77
4, 43584, Note_on_c, 1, 53, 0
4, 43584, Note_on_c, 1, 50, 77
4, 43629, Note_on_c, 1, 50, 0
4, 43872, Note_on_c, 1, 39, 77
4, 43961, Note_on_c, 1, 39, 0
4, 43968, Note_on_c, 1, 51, 77
4, 44057, Note_on_c, 1, 51, 0
4, 44064, Note_on_c, 1, 43, 77
4, 44153, Note_on_c, 1, 43, 0
4, 44160, Note_on_c, 1, 44, 77
4, 44249, Note_on_c, 1, 44, 0
4, 44448, Note_on_c, 1, 46, 77
4, 44537, Note_on_c, 1, 46, 0
4, 44616, Note_on_c, 1, 51, 77
4, 44639, Note_on_c, 1, 51, 0
4, 44640, Note_on_c, 1, 55, 77
4, 44707, Note_on_c, 1, 55, 0
4, 44712, Note_on_c, 1, 58, 77
4, 44735, Note_on_c, 1, 58, 0
4, 44736, Note_on_c, 1, 63, 77
4, 44825, Note_on_c, 1, 63, 0
4, 45384, Note_on_c, 1, 68, 77
4, 45407, Note_on_c, 1, 68, 0
4, 45408, Note_on_c, 1, 67, 77
4, 45475, Note_on_c, 1, 67, 0
4, 45480, Note_on_c, 1, 65, 75
4, 45503, Note_on_c, 1, 65, 0
4, 45504, Note_on_c, 1, 64, 74
4, 45571, Note_on_c, 1, 64, 0
4, 45576, Note_on_c, 1, 67, 72
4, 45599, Note_on_c, 1, 67, 0
4, 45600, Note_on_c, 1, 60, 72
4, 45667, Note_on_c, 1, 60, 0
4, 45672, Note_on_c, 1, 64, 70
4, 45695, Note_on_c, 1, 64, 0
4, 45696, Note_on_c, 1, 65, 63
4, 45726, Note_on_c, 1, 65, 0
4, 45728, Note_on_c, 1, 68, 63
4, 45758, Note_on_c, 1, 68, 0
4, 45760, Note_on_c, 1, 72, 63
4, 45790, Note_on_c, 1, 72, 0
4, 45792, Note_on_c, 1, 65, 63
4, 45822, Note_on_c, 1, 65, 0
4, 45824, Note_on_c, 1, 68, 63
4, 45854, Note_on_c, 1, 68, 0
4, 45856, Note_on_c, 1, 72, 63
4, 45886, Note_on_c, 1, 72, 0
4, 45888, Note_on_c, 1, 65, 63
4, 45918, Note_on_c, 1, 65, 0
4, 45920, Note_on_c, 1, 68, 63
4, 45950, Note_on_c, 1, 68, 0
4, 45952, Note_on_c, 1, 72, 63
4, 45982, Note_on_c, 1, 72, 0
4, 45984, Note_on_c, 1, 64, 63
4, 46014, Note_on_c, 1, 64, 0
4, 46016, Note_on_c, 1, 67, 63
4, 46046, Note_on_c, 1, 67, 0
4, 46048, Note_on_c, 1, 72, 63
4, 46078, Note_on_c, 1, 72, 0
4, 46080, Note_on_c, 1, 65, 63
4, 46110, Note_on_c, 1, 65, 0
4, 46112, Note_on_c, 1, 68, 63
4, 46142, Note_on_c, 1, 68, 0
4, 46144, Note_on_c, 1, 72, 63
4, 46174, Note_on_c, 1, 72, 0
4, 46176, Note_on_c, 1, 65, 63
4, 46206, Note_on_c, 1, 65, 0
4, 46208, Note_on_c, 1, 68, 63
4, 46238, Note_on_c, 1, 68, 0
4, 46240, Note_on_c, 1, 72, 63
4, 46270, Note_on_c, 1, 72, 0
4, 46272, Note_on_c, 1, 65, 63
4, 46302, Note_on_c, 1, 65, 0
4, 46304, Note_on_c, 1, 68, 63
4, 46334, Note_on_c, 1, 68, 0
4, 46336, Note_on_c, 1, 72, 63
4, 46366, Note_on_c, 1, 72, 0
4, 46368, Note_on_c, 1, 65, 63
4, 46398, Note_on_c, 1, 65, 0
4, 46400, Note_on_c, 1, 68, 63
4, 46430, Note_on_c, 1, 68, 0
4, 46432, Note_on_c, 1, 72, 63
4, 46462, Note_on_c, 1, 72, 0
4, 46464, Note_on_c, 1, 63, 63
4, 46494, Note_on_c, 1, 63, 0
4, 46496, Note_on_c, 1, 66, 63
4, 46526, Note_on_c, 1, 66, 0
4, 46528, Note_on_c, 1, 72, 63
4, 46558, Note_on_c, 1, 72, 0
4, 46560, Note_on_c, 1, 63, 63
4, 46590, Note_on_c, 1, 63, 0
4, 46592, Note_on_c, 1, 66, 63
4, 46622, Note_on_c, 1, 66, 0
4, 46624, Note_on_c, 1, 72, 63
4, 46654, Note_on_c, 1, 72, 0
4, 46656, Note_on_c, 1, 63, 63
4, 46686, Note_on_c, 1, 63, 0
4, 46688, Note_on_c, 1, 66, 63
4, 46718, Note_on_c, 1, 66, 0
4, 46720, Note_on_c, 1, 72, 63
4, 46750, Note_on_c, 1, 72, 0
4, 46752, Note_on_c, 1, 63, 63
4, 46782, Note_on_c, 1, 63, 0
4, 46784, Note_on_c, 1, 66, 63
4, 46814, Note_on_c, 1, 66, 0
4, 46816, Note_on_c, 1, 72, 63
4, 46846, Note_on_c, 1, 72, 0
4, 46848, Note_on_c, 1, 61, 63
4, 46878, Note_on_c, 1, 61, 0
4, 46880, Note_on_c, 1, 65, 63
4, 46910, Note_on_c, 1, 65, 0
4, 46912, Note_on_c, 1, 68, 63
4, 46942, Note_on_c, 1, 68, 0
4, 46944, Note_on_c, 1, 61, 63
4, 46974, Note_on_c, 1, 61, 0
4, 46976, Note_on_c, 1, 65, 63
4, 47006, Note_on_c, 1, 65, 0
4, 47008, Note_on_c, 1, 68, 63
4, 47038, Note_on_c, 1, 68, 0
4, 47040, Note_on_c, 1, 61, 63
4, 47070, Note_on_c, 1, 61, 0
4, 47072, Note_on_c, 1, 65, 63
4, 47102, Note_on_c, 1, 65, 0
4, 47104, Note_on_c, 1, 68, 63
4, 47134, Note_on_c, 1, 68, 0
4, 47136, Note_on_c, 1, 61, 63
4, 47166, Note_on_c, 1, 61, 0
4, 47168, Note_on_c, 1, 65, 63
4, 47198, Note_on_c, 1, 65, 0
4, 47200, Note_on_c, 1, 68, 63
4, 47230, Note_on_c, 1, 68, 0
4, 47232, Note_on_c, 1, 62, 63
4, 47262, Note_on_c, 1, 62, 0
4, 47264, Note_on_c, 1, 65, 63
4, 47294, Note_on_c, 1, 65, 0
4, 47296, Note_on_c, 1, 70, 63
4, 47326, Note_on_c, 1, 70, 0
4, 47328, Note_on_c, 1, 62, 63
4, 47358, Note_on_c, 1, 62, 0
4, 47360, Note_on_c, 1, 65, 63
4, 47390, Note_on_c, 1, 65, 0
4, 47392, Note_on_c, 1, 70, 63
4, 47422, Note_on_c, 1, 70, 0
4, 47424, Note_on_c, 1, 62, 63
4, 47454, Note_on_c, 1, 62, 0
4, 47456, Note_on_c, 1, 65, 63
4, 47486, Note_on_c, 1, 65, 0
4, 47488, Note_on_c, 1, 70, 63
4, 47518, Note_on_c, 1, 70, 0
4, 47520, Note_on_c, 1, 62, 63
4, 47550, Note_on_c, 1, 62, 0
4, 47552, Note_on_c, 1, 65, 63
4, 47582, Note_on_c, 1, 65, 0
4, 47584, Note_on_c, 1, 70, 63
4, 47614, Note_on_c, 1, 70, 0
4, 47616, Note_on_c, 1, 63, 63
4, 47646, Note_on_c, 1, 63, 0
4, 47648, Note_on_c, 1, 67, 63
4, 47678, Note_on_c, 1, 67, 0
4, 47680, Note_on_c, 1, 70, 63
4, 47710, Note_on_c, 1, 70, 0
4, 47712, Note_on_c, 1, 63, 63
4, 47742, Note_on_c, 1, 63, 0
4, 47744, Note_on_c, 1, 67, 63
4, 47774, Note_on_c, 1, 67, 0
4, 47776, Note_on_c, 1, 70, 63
4, 47806, Note_on_c, 1, 70, 0
4, 47808, Note_on_c, 1, 63, 63
4, 47838, Note_on_c, 1, 63, 0
4, 47840, Note_on_c, 1, 67, 63
4, 47870, Note_on_c, 1, 67, 0
4, 47872, Note_on_c, 1, 70, 63
4, 47902, Note_on_c, 1, 70, 0
4, 47904, Note_on_c, 1, 63, 63
4, 47934, Note_on_c, 1, 63, 0
4, 47936, Note_on_c, 1, 67, 63
4, 47966, Note_on_c, 1, 67, 0
4, 47968, Note_on_c, 1, 70, 63
4, 47998, Note_on_c, 1, 70, 0
4, 48000, Note_on_c, 1, 65, 63
4, 48030, Note_on_c, 1, 65, 0
4, 48032, Note_on_c, 1, 68, 63
4, 48062, Note_on_c, 1, 68, 0
4, 48064, Note_on_c, 1, 71, 63
4, 48094, Note_on_c, 1, 71, 0
4, 48096, Note_on_c, 1, 65, 63
4, 48126, Note_on_c, 1, 65, 0
4, 48128, Note_on_c, 1, 68, 63
4, 48158, Note_on_c, 1, 68, 0
4, 48160, Note_on_c, 1, 71, 63
4, 48190, Note_on_c, 1, 71, 0
4, 48192, Note_on_c, 1, 65, 64
4, 48222, Note_on_c, 1, 65, 0
4, 48224, Note_on_c, 1, 68, 64
4, 48254, Note_on_c, 1, 68, 0
4, 48256, Note_on_c, 1, 71, 64
4, 48286, Note_on_c, 1, 71, 0
4, 48288, Note_on_c, 1, 65, 64
4, 48318, Note_on_c, 1, 65, 0
4, 48320, Note_on_c, 1, 68, 64
4, 48350, Note_on_c, 1, 68, 0
4, 48352, Note_on_c, 1, 71, 65
4, 48382, Note_on_c, 1, 71, 0
4, 48384, Note_on_c, 1, 63, 65
4, 48414, Note_on_c, 1, 63, 0
4, 48416, Note_on_c, 1, 68, 65
4, 48446, Note_on_c, 1, 68, 0
4, 48448, Note_on_c, 1, 71, 65
4, 48478, Note_on_c, 1, 71, 0
4, 48480, Note_on_c, 1, 63, 65
4, 48510, Note_on_c, 1, 63, 0
4, 48512, Note_on_c, 1, 68, 65
4, 48542, Note_on_c, 1, 68, 0
4, 48544, Note_on_c, 1, 71, 66
4, 48574, Note_on_c, 1, 71, 0
4, 48576, Note_on_c, 1, 63, 66
4, 48606, Note_on_c, 1, 63, 0
4, 48608, Note_on_c, 1, 68, 66
4, 48638, Note_on_c, 1, 68, 0
4, 48640, Note_on_c, 1, 71, 66
4, 48670, Note_on_c, 1, 71, 0
4, 48672, Note_on_c, 1, 63, 66
4, 48702, Note_on_c, 1, 63, 0
4, 48704, Note_on_c, 1, 68, 67
4, 48734, Note_on_c, 1, 68, 0
4, 48736, Note_on_c, 1, 71, 67
4, 48766, Note_on_c, 1, 71, 0
4, 48768, Note_on_c, 1, 61, 67
4, 48798, Note_on_c, 1, 61, 0
4, 48800, Note_on_c, 1, 65, 67
4, 48830, Note_on_c, 1, 65, 0
4, 48832, Note_on_c, 1, 71, 67
4, 48862, Note_on_c, 1, 71, 0
4, 48864, Note_on_c, 1, 61, 67
4, 48894, Note_on_c, 1, 61, 0
4, 48896, Note_on_c, 1, 65, 68
4, 48926, Note_on_c, 1, 65, 0
4, 48928, Note_on_c, 1, 71, 68
4, 48958, Note_on_c, 1, 71, 0
4, 48960, Note_on_c, 1, 61, 68
4, 48990, Note_on_c, 1, 61, 0
4, 48992, Note_on_c, 1, 65, 68
4, 49022, Note_on_c, 1, 65, 0
4, 49024, Note_on_c, 1, 71, 68
4, 49054, Note_on_c, 1, 71, 0
4, 49056, Note_on_c, 1, 61, 69
4, 49086, Note_on_c, 1, 61, 0
4, 49088, Note_on_c, 1, 65, 69
4, 49118, Note_on_c, 1, 65, 0
4, 49120, Note_on_c, 1, 71, 69
4, 49150, Note_on_c, 1, 71, 0
4, 49152, Note_on_c, 1, 61, 70
4, 49182, Note_on_c, 1, 61, 0
4, 49184, Note_on_c, 1, 66, 70
4, 49214, Note_on_c, 1, 66, 0
4, 49216, Note_on_c, 1, 70, 70
4, 49246, Note_on_c, 1, 70, 0
4, 49248, Note_on_c, 1, 61, 70
4, 49278, Note_on_c, 1, 61, 0
4, 49280, Note_on_c, 1, 66, 70
4, 49310, Note_on_c, 1, 66, 0
4, 49312, Note_on_c, 1, 70, 70
4, 49342, Note_on_c, 1, 70, 0
4, 49344, Note_on_c, 1, 61, 70
4, 49374, Note_on_c, 1, 61, 0
4, 49376, Note_on_c, 1, 66, 70
4, 49406, Note_on_c, 1, 66, 0
4, 49408, Note_on_c, 1, 70, 70
4, 49438, Note_on_c, 1, 70, 0
4, 49440, Note_on_c, 1, 61, 70
4, 49470, Note_on_c, 1, 61, 0
4, 49472, Note_on_c, 1, 66, 70
4, 49502, Note_on_c, 1, 66, 0
4, 49504, Note_on_c, 1, 70, 70
4, 49534, Note_on_c, 1, 70, 0
4, 49536, Note_on_c, 1, 61, 70
4, 49566, Note_on_c, 1, 61, 0
4, 49568, Note_on_c, 1, 65, 70
4, 49598, Note_on_c, 1, 65, 0
4, 49600, Note_on_c, 1, 68, 70
4, 49630, Note_on_c, 1, 68, 0
4, 49632, Note_on_c, 1, 61, 70
4, 49662, Note_on_c, 1, 61, 0
4, 49664, Note_on_c, 1, 65, 70
4, 49694, Note_on_c, 1, 65, 0
4, 49696, Note_on_c, 1, 68, 70
4, 49726, Note_on_c, 1, 68, 0
4, 49728, Note_on_c, 1, 61, 71
4, 49758, Note_on_c, 1, 61, 0
4, 49760, Note_on_c, 1, 65, 71
4, 49790, Note_on_c, 1, 65, 0
4, 49792, Note_on_c, 1, 68, 71
4, 49822, Note_on_c, 1, 68, 0
4, 49824, Note_on_c, 1, 61, 71
4, 49854, Note_on_c, 1, 61, 0
4, 49856, Note_on_c, 1, 65, 71
4, 49886, Note_on_c, 1, 65, 0
4, 49888, Note_on_c, 1, 68, 72
4, 49918, Note_on_c, 1, 68, 0
4, 49920, Note_on_c, 1, 62, 72
4, 49950, Note_on_c, 1, 62, 0
4, 49952, Note_on_c, 1, 65, 72
4, 49982, Note_on_c, 1, 65, 0
4, 49984, Note_on_c, 1, 70, 72
4, 50014, Note_on_c, 1, 70, 0
4, 50016, Note_on_c, 1, 62, 72
4, 50046, Note_on_c, 1, 62, 0
4, 50048, Note_on_c, 1, 65, 72
4, 50078, Note_on_c, 1, 65, 0
4, 50080, Note_on_c, 1, 70, 73
4, 50110, Note_on_c, 1, 70, 0
4, 50112, Note_on_c, 1, 62, 73
4, 50142, Note_on_c, 1, 62, 0
4, 50144, Note_on_c, 1, 65, 73
4, 50174, Note_on_c, 1, 65, 0
4, 50176, Note_on_c, 1, 70, 73
4, 50206, Note_on_c, 1, 70, 0
4, 50208, Note_on_c, 1, 62, 73
4, 50238, Note_on_c, 1, 62, 0
4, 50240, Note_on_c, 1, 65, 74
4, 50270, Note_on_c, 1, 65, 0
4, 50272, Note_on_c, 1, 70, 74
4, 50302, Note_on_c, 1, 70, 0
4, 50304, Note_on_c, 1, 63, 74
4, 50334, Note_on_c, 1, 63, 0
4, 50336, Note_on_c, 1, 67, 74
4, 50366, Note_on_c, 1, 67, 0
4, 50368, Note_on_c, 1, 73, 74
4, 50398, Note_on_c, 1, 73, 0
4, 50400, Note_on_c, 1, 63, 74
4, 50430, Note_on_c, 1, 63, 0
4, 50432, Note_on_c, 1, 67, 75
4, 50462, Note_on_c, 1, 67, 0
4, 50464, Note_on_c, 1, 73, 75
4, 50494, Note_on_c, 1, 73, 0
4, 50496, Note_on_c, 1, 63, 75
4, 50526, Note_on_c, 1, 63, 0
4, 50528, Note_on_c, 1, 67, 75
4, 50558, Note_on_c, 1, 67, 0
4, 50560, Note_on_c, 1, 73, 75
4, 50590, Note_on_c, 1, 73, 0
4, 50592, Note_on_c, 1, 63, 76
4, 50622, Note_on_c, 1, 63, 0
4, 50624, Note_on_c, 1, 67, 76
4, 50654, Note_on_c, 1, 67, 0
4, 50656, Note_on_c, 1, 73, 76
4, 50686, Note_on_c, 1, 73, 0
4, 50688, Note_on_c, 1, 64, 77
4, 50718, Note_on_c, 1, 64, 0
4, 50720, Note_on_c, 1, 67, 77
4, 50750, Note_on_c, 1, 67, 0
4, 50752, Note_on_c, 1, 72, 77
4, 50782, Note_on_c, 1, 72, 0
4, 50784, Note_on_c, 1, 64, 77
4, 50814, Note_on_c, 1, 64, 0
4, 50816, Note_on_c, 1, 67, 77
4, 50846, Note_on_c, 1, 67, 0
4, 50848, Note_on_c, 1, 72, 77
4, 50878, Note_on_c, 1, 72, 0
4, 50880, Note_on_c, 1, 64, 77
4, 50910, Note_on_c, 1, 64, 0
4, 50912, Note_on_c, 1, 67, 77
4, 50942, Note_on_c, 1, 67, 0
4, 50944, Note_on_c, 1, 72, 77
4, 50974, Note_on_c, 1, 72, 0
4, 50976, Note_on_c, 1, 64, 77
4, 51006, Note_on_c, 1, 64, 0
4, 51008, Note_on_c, 1, 67, 77
4, 51038, Note_on_c, 1, 67, 0
4, 51040, Note_on_c, 1, 72, 77
4, 51070, Note_on_c, 1, 72, 0
4, 51072, Note_on_c, 1, 65, 77
4, 51161, Note_on_c, 1, 65, 0
4, 51840, Note_on_c, 1, 45, 77
4, 51870, Note_on_c, 1, 45, 0
4, 51872, Note_on_c, 1, 48, 77
4, 51902, Note_on_c, 1, 48, 0
4, 51904, Note_on_c, 1, 51, 77
4, 51934, Note_on_c, 1, 51, 0
4, 51936, Note_on_c, 1, 45, 77
4, 51966, Note_on_c, 1, 45, 0
4, 51968, Note_on_c, 1, 48, 77
4, 51998, Note_on_c, 1, 48, 0
4, 52000, Note_on_c, 1, 51, 77
4, 52030, Note_on_c, 1, 51, 0
4, 52032, Note_on_c, 1, 45, 77
4, 52062, Note_on_c, 1, 45, 0
4, 52064, Note_on_c, 1, 48, 77
4, 52094, Note_on_c, 1, 48, 0
4, 52096, Note_on_c, 1, 51, 77
4, 52126, Note_on_c, 1, 51, 0
4, 52128, Note_on_c, 1, 45, 77
4, 52158, Note_on_c, 1, 45, 0
4, 52160, Note_on_c, 1, 48, 77
4, 52190, Note_on_c, 1, 48, 0
4, 52192, Note_on_c, 1, 51, 77
4, 52222, Note_on_c, 1, 51, 0
4, 52224, Note_on_c, 1, 46, 77
4, 52254, Note_on_c, 1, 46, 0
4, 52256, Note_on_c, 1, 49, 77
4, 52286, Note_on_c, 1, 49, 0
4, 52288, Note_on_c, 1, 53, 77
4, 52318, Note_on_c, 1, 53, 0
4, 52320, Note_on_c, 1, 46, 77
4, 52350, Note_on_c, 1, 46, 0
4, 52352, Note_on_c, 1, 49, 77
4, 52382, Note_on_c, 1, 49, 0
4, 52384, Note_on_c, 1, 53, 77
4, 52414, Note_on_c, 1, 53, 0
4, 52416, Note_on_c, 1, 46, 77
4, 52446, Note_on_c, 1, 46, 0
4, 52448, Note_on_c, 1, 49, 77
4, 52478, Note_on_c, 1, 49, 0
4, 52480, Note_on_c, 1, 53, 77
4, 52510, Note_on_c, 1, 53, 0
4, 52512, Note_on_c, 1, 46, 77
4, 52542, Note_on_c, 1, 46, 0
4, 52544, Note_on_c, 1, 49, 77
4, 52574, Note_on_c, 1, 49, 0
4, 52576, Note_on_c, 1, 53, 77
4, 52606, Note_on_c, 1, 53, 0
4, 52608, Note_on_c, 1, 47, 77
4, 52638, Note_on_c, 1, 47, 0
4, 52640, Note_on_c, 1, 50, 77
4, 52670, Note_on_c, 1, 50, 0
4, 52672, Note_on_c, 1, 53, 77
4, 52702, Note_on_c, 1, 53, 0
4, 52704, Note_on_c, 1, 47, 77
4, 52734, Note_on_c, 1, 47, 0
4, 52736, Note_on_c, 1, 50, 77
4, 52766, Note_on_c, 1, 50, 0
4, 52768, Note_on_c, 1, 53, 77
4, 52798, Note_on_c, 1, 53, 0
4, 52800, Note_on_c, 1, 47, 77
4, 52830, Note_on_c, 1, 47, 0
4, 52832, Note_on_c, 1, 50, 77
4, 52862, Note_on_c, 1, 50, 0
4, 52864, Note_on_c, 1, 53, 77
4, 52894, Note_on_c, 1, 53, 0
4, 52896, Note_on_c, 1, 47, 77
4, 52926, Note_on_c, 1, 47, 0
4, 52928, Note_on_c, 1, 50, 77
4, 52958, Note_on_c, 1, 50, 0
4, 52960, Note_on_c, 1, 53, 77
4, 52990, Note_on_c, 1, 53, 0
4, 52992, Note_on_c, 1, 48, 77
4, 53081, Note_on_c, 1, 48, 0
4, 53184, Note_on_c, 1, 52, 77
4, 53184, Note_on_c, 1, 48, 77
4, 53273, Note_on_c, 1, 52, 0
4, 53273, Note_on_c, 1, 48, 0
4, 53376, Note_on_c, 1, 52, 77
4, 53376, Note_on_c, 1, 48, 77
4, 53465, Note_on_c, 1, 52, 0
4, 53465, Note_on_c, 1, 48, 0
4, 53568, Note_on_c, 1, 52, 77
4, 53568, Note_on_c, 1, 48, 77
4, 53657, Note_on_c, 1, 52, 0
4, 53657, Note_on_c, 1, 48, 0
4, 53760, Note_on_c, 1, 56, 77
4, 53760, Note_on_c, 1, 53, 77
4, 53849, Note_on_c, 1, 56, 0
4, 53849, Note_on_c, 1, 53, 0
4, 53952, Note_on_c, 1, 55, 77
4, 53952, Note_on_c, 1, 48, 77
4, 54041, Note_on_c, 1, 55, 0
4, 54041, Note_on_c, 1, 48, 0
4, 54144, Note_on_c, 1, 56, 77
4, 54144, Note_on_c, 1, 53, 77
4, 54233, Note_on_c, 1, 56, 0
4, 54233, Note_on_c, 1, 53, 0
4, 54336, Note_on_c, 1, 58, 77
4, 54336, Note_on_c, 1, 46, 77
4, 54425, Note_on_c, 1, 58, 0
4, 54425, Note_on_c, 1, 46, 0
4, 54528, Note_on_c, 1, 60, 77
4, 54617, Note_on_c, 1, 60, 0
4, 54720, Note_on_c, 1, 48, 70
4, 54809, Note_on_c, 1, 48, 0
4, 54912, Note_on_c, 1, 57, 63
4, 54942, Note_on_c, 1, 57, 0
4, 54944, Note_on_c, 1, 60, 63
4, 54974, Note_on_c, 1, 60, 0
4, 54976, Note_on_c, 1, 66, 63
4, 55006, Note_on_c, 1, 66, 0
4, 55008, Note_on_c, 1, 57, 63
4, 55038, Note_on_c, 1, 57, 0
4, 55040, Note_on_c, 1, 60, 63
4, 55070, Note_on_c, 1, 60, 0
4, 55072, Note_on_c, 1, 66, 63
4, 55102, Note_on_c, 1, 66, 0
4, 55104, Note_on_c, 1, 57, 63
4, 55134, Note_on_c, 1, 57, 0
4, 55136, Note_on_c, 1, 60, 63
4, 55166, Note_on_c, 1, 60, 0
4, 55168, Note_on_c, 1, 66, 63
4, 55198, Note_on_c, 1, 66, 0
4, 55200, Note_on_c, 1, 57, 63
4, 55230, Note_on_c, 1, 57, 0
4, 55232, Note_on_c, 1, 60, 63
4, 55262, Note_on_c, 1, 60, 0
4, 55264, Note_on_c, 1, 66, 63
4, 55294, Note_on_c, 1, 66, 0
4, 55296, Note_on_c, 1, 58, 63
4, 55326, Note_on_c, 1, 58, 0
4, 55328, Note_on_c, 1, 65, 64
4, 55358, Note_on_c, 1, 65, 0
4, 55360, Note_on_c, 1, 68, 65
4, 55390, Note_on_c, 1, 68, 0
4, 55392, Note_on_c, 1, 58, 66
4, 55422, Note_on_c, 1, 58, 0
4, 55424, Note_on_c, 1, 65, 67
4, 55454, Note_on_c, 1, 65, 0
4, 55456, Note_on_c, 1, 68, 68
4, 55486, Note_on_c, 1, 68, 0
4, 55488, Note_on_c, 1, 58, 69
4, 55518, Note_on_c, 1, 58, 0
4, 55520, Note_on_c, 1, 65, 70
4, 55550, Note_on_c, 1, 65, 0
4, 55552, Note_on_c, 1, 68, 71
4, 55582, Note_on_c, 1, 68, 0
4, 55584, Note_on_c, 1, 58, 72
4, 55614, Note_on_c, 1, 58, 0
4, 55616, Note_on_c, 1, 65, 73
4, 55646, Note_on_c, 1, 65, 0
4, 55648, Note_on_c, 1, 68, 74
4, 55678, Note_on_c, 1, 68, 0
4, 55680, Note_on_c, 1, 55, 75
4, 55710, Note_on_c, 1, 55, 0
4, 55712, Note_on_c, 1, 58, 77
4, 55742, Note_on_c, 1, 58, 0
4, 55744, Note_on_c, 1, 63, 77
4, 55774, Note_on_c, 1, 63, 0
4, 55776, Note_on_c, 1, 55, 77
4, 55806, Note_on_c, 1, 55, 0
4, 55808, Note_on_c, 1, 58, 77
4, 55838, Note_on_c, 1, 58, 0
4, 55840, Note_on_c, 1, 63, 77
4, 55870, Note_on_c, 1, 63, 0
4, 55872, Note_on_c, 1, 55, 77
4, 55902, Note_on_c, 1, 55, 0
4, 55904, Note_on_c, 1, 58, 77
4, 55934, Note_on_c, 1, 58, 0
4, 55936, Note_on_c, 1, 63, 77
4, 55966, Note_on_c, 1, 63, 0
4, 55968, Note_on_c, 1, 55, 77
4, 55998, Note_on_c, 1, 55, 0
4, 56000, Note_on_c, 1, 58, 77
4, 56030, Note_on_c, 1, 58, 0
4, 56032, Note_on_c, 1, 63, 77
4, 56062, Note_on_c, 1, 63, 0
4, 56064, Note_on_c, 1, 56, 77
4, 56094, Note_on_c, 1, 56, 0
4, 56096, Note_on_c, 1, 60, 77
4, 56126, Note_on_c, 1, 60, 0
4, 56128, Note_on_c, 1, 63, 77
4, 56158, Note_on_c, 1, 63, 0
4, 56160, Note_on_c, 1, 56, 77
4, 56190, Note_on_c, 1, 56, 0
4, 56192, Note_on_c, 1, 60, 77
4, 56222, Note_on_c, 1, 60, 0
4, 56224, Note_on_c, 1, 63, 77
4, 56254, Note_on_c, 1, 63, 0
4, 56256, Note_on_c, 1, 48, 77
4, 56286, Note_on_c, 1, 48, 0
4, 56288, Note_on_c, 1, 51, 77
4, 56318, Note_on_c, 1, 51, 0
4, 56320, Note_on_c, 1, 56, 77
4, 56350, Note_on_c, 1, 56, 0
4, 56352, Note_on_c, 1, 48, 77
4, 56382, Note_on_c, 1, 48, 0
4, 56384, Note_on_c, 1, 51, 77
4, 56414, Note_on_c, 1, 51, 0
4, 56416, Note_on_c, 1, 56, 78
4, 56446, Note_on_c, 1, 56, 0
4, 56448, Note_on_c, 1, 49, 79
4, 56478, Note_on_c, 1, 49, 0
4, 56480, Note_on_c, 1, 53, 79
4, 56510, Note_on_c, 1, 53, 0
4, 56512, Note_on_c, 1, 56, 80
4, 56542, Note_on_c, 1, 56, 0
4, 56544, Note_on_c, 1, 49, 81
4, 56574, Note_on_c, 1, 49, 0
4, 56576, Note_on_c, 1, 53, 82
4, 56606, Note_on_c, 1, 53, 0
4, 56608, Note_on_c, 1, 56, 82
4, 56638, Note_on_c, 1, 56, 0
4, 56640, Note_on_c, 1, 50, 84
4, 56670, Note_on_c, 1, 50, 0
4, 56672, Note_on_c, 1, 53, 84
4, 56702, Note_on_c, 1, 53, 0
4, 56704, Note_on_c, 1, 58, 84
4, 56734, Note_on_c, 1, 58, 0
4, 56736, Note_on_c, 1, 50, 84
4, 56766, Note_on_c, 1, 50, 0
4, 56768, Note_on_c, 1, 53, 84
4, 56798, Note_on_c, 1, 53, 0
4, 56800, Note_on_c, 1, 58, 84
4, 56830, Note_on_c, 1, 58, 0
4, 56832, Note_on_c, 1, 51, 84
4, 57009, Note_on_c, 1, 51, 0
4, 57216, Note_on_c, 1, 56, 84
4, 57216, Note_on_c, 1, 53, 84
4, 57393, Note_on_c, 1, 56, 0
4, 57393, Note_on_c, 1, 53, 0
4, 58656, Note_on_c, 1, 53, 63
4, 58668, Note_on_c, 1, 56, 63
4, 58680, Note_on_c, 1, 58, 63
4, 58692, Note_on_c, 1, 62, 63
4, 59106, Note_on_c, 1, 62, 0
4, 59106, Note_on_c, 1, 58, 0
4, 59106, Note_on_c, 1, 56, 0
4, 59106, Note_on_c, 1, 53, 0
4, 60288, Note_on_c, 1, 39, 77
4, 60465, Note_on_c, 1, 39, 0
4, 60672, Note_on_c, 1, 56, 77
4, 60672, Note_on_c, 1, 44, 77
4, 60761, Note_on_c, 1, 56, 0
4, 60761, Note_on_c, 1, 44, 0
4, 60864, Note_on_c, 1, 55, 77
4, 60864, Note_on_c, 1, 43, 77
4, 60953, Note_on_c, 1, 55, 0
4, 60953, Note_on_c, 1, 43, 0
4, 61152, Note_on_c, 1, 44, 77
4, 61248, Note_on_c, 1, 44, 0
4, 61248, Note_on_c, 1, 56, 77
4, 61293, Note_on_c, 1, 56, 0
4, 61536, Note_on_c, 1, 58, 77
4, 61632, Note_on_c, 1, 58, 0
4, 61632, Note_on_c, 1, 55, 77
4, 61677, Note_on_c, 1, 55, 0
4, 61920, Note_on_c, 1, 56, 77
4, 62016, Note_on_c, 1, 56, 0
4, 62016, Note_on_c, 1, 44, 77
4, 62061, Note_on_c, 1, 44, 0
4, 62112, Note_on_c, 1, 48, 77
4, 62201, Note_on_c, 1, 48, 0
4, 62208, Note_on_c, 1, 49, 77
4, 62385, Note_on_c, 1, 49, 0
4, 62496, Note_on_c, 1, 51, 77
4, 62585, Note_on_c, 1, 51, 0
4, 62664, Note_on_c, 1, 44, 77
4, 62687, Note_on_c, 1, 44, 0
4, 62688, Note_on_c, 1, 48, 77
4, 62755, Note_on_c, 1, 48, 0
4, 62760, Note_on_c, 1, 51, 77
4, 62783, Note_on_c, 1, 51, 0
4, 62784, Note_on_c, 1, 56, 77
4, 62823, Note_on_c, 1, 56, 0
4, 62976, Note_on_c, 1, 60, 77
4, 62976, Note_on_c, 1, 56, 77
4, 63065, Note_on_c, 1, 60, 0
4, 63065, Note_on_c, 1, 56, 0
4, 63168, Note_on_c, 1, 58, 77
4, 63168, Note_on_c, 1, 55, 77
4, 63257, Note_on_c, 1, 58, 0
4, 63257, Note_on_c, 1, 55, 0
4, 63456, Note_on_c, 1, 44, 77
4, 63552, Note_on_c, 1, 44, 0
4, 63552, Note_on_c, 1, 56, 77
4, 63641, Note_on_c, 1, 56, 0
4, 63648, Note_on_c, 1, 60, 77
4, 63737, Note_on_c, 1, 60, 0
4, 63840, Note_on_c, 1, 61, 77
4, 63879, Note_on_c, 1, 61, 0
4, 64032, Note_on_c, 1, 60, 77
4, 64071, Note_on_c, 1, 60, 0
4, 64224, Note_on_c, 1, 58, 77
4, 64263, Note_on_c, 1, 58, 0
4, 64416, Note_on_c, 1, 56, 77
4, 64455, Note_on_c, 1, 56, 0
4, 64608, Note_on_c, 1, 49, 77
4, 64697, Note_on_c, 1, 49, 0
4, 64704, Note_on_c, 1, 51, 77
4, 64881, Note_on_c, 1, 51, 0
4, 64896, Note_on_c, 1, 56, 63
4, 64926, Note_on_c, 1, 56, 0
4, 64928, Note_on_c, 1, 60, 63
4, 64958, Note_on_c, 1, 60, 0
4, 64960, Note_on_c, 1, 63, 63
4, 64990, Note_on_c, 1, 63, 0
4, 64992, Note_on_c, 1, 56, 63
4, 65022, Note_on_c, 1, 56, 0
4, 65024, Note_on_c, 1, 60, 63
4, 65054, Note_on_c, 1, 60, 0
4, 65056, Note_on_c, 1, 63, 63
4, 65086, Note_on_c, 1, 63, 0
4, 65088, Note_on_c, 1, 56, 63
4, 65118, Note_on_c, 1, 56, 0
4, 65120, Note_on_c, 1, 60, 63
4, 65150, Note_on_c, 1, 60, 0
4, 65152, Note_on_c, 1, 63, 63
4, 65182, Note_on_c, 1, 63, 0
4, 65184, Note_on_c, 1, 55, 63
4, 65214, Note_on_c, 1, 55, 0
4, 65216, Note_on_c, 1, 58, 63
4, 65246, Note_on_c, 1, 58, 0
4, 65248, Note_on_c, 1, 63, 63
4, 65278, Note_on_c, 1, 63, 0
4, 65280, Note_on_c, 1, 56, 63
4, 65310, Note_on_c, 1, 56, 0
4, 65312, Note_on_c, 1, 60, 63
4, 65342, Note_on_c, 1, 60, 0
4, 65344, Note_on_c, 1, 63, 63
4, 65374, Note_on_c, 1, 63, 0
4, 65376, Note_on_c, 1, 56, 63
4, 65406, Note_on_c, 1, 56, 0
4, 65408, Note_on_c, 1, 60, 63
4, 65438, Note_on_c, 1, 60, 0
4, 65440, Note_on_c, 1, 63, 63
4, 65470, Note_on_c, 1, 63, 0
4, 65472, Note_on_c, 1, 56, 63
4, 65502, Note_on_c, 1, 56, 0
4, 65504, Note_on_c, 1, 60, 63
4, 65534, Note_on_c, 1, 60, 0
4, 65536, Note_on_c, 1, 63, 63
4, 65566, Note_on_c, 1, 63, 0
4, 65568, Note_on_c, 1, 56, 63
4, 65598, Note_on_c, 1, 56, 0
4, 65600, Note_on_c, 1, 60, 63
4, 65630, Note_on_c, 1, 60, 0
4, 65632, Note_on_c, 1, 63, 63
4, 65662, Note_on_c, 1, 63, 0
4, 65664, Note_on_c, 1, 56, 63
4, 65694, Note_on_c, 1, 56, 0
4, 65696, Note_on_c, 1, 60, 63
4, 65726, Note_on_c, 1, 60, 0
4, 65728, Note_on_c, 1, 63, 63
4, 65758, Note_on_c, 1, 63, 0
4, 65760, Note_on_c, 1, 56, 63
4, 65790, Note_on_c, 1, 56, 0
4, 65792, Note_on_c, 1, 60, 63
4, 65822, Note_on_c, 1, 60, 0
4, 65824, Note_on_c, 1, 63, 63
4, 65854, Note_on_c, 1, 63, 0
4, 65856, Note_on_c, 1, 56, 63
4, 65886, Note_on_c, 1, 56, 0
4, 65888, Note_on_c, 1, 60, 63
4, 65918, Note_on_c, 1, 60, 0
4, 65920, Note_on_c, 1, 63, 63
4, 65950, Note_on_c, 1, 63, 0
4, 65952, Note_on_c, 1, 58, 63
4, 65982, Note_on_c, 1, 58, 0
4, 65984, Note_on_c, 1, 61, 63
4, 66014, Note_on_c, 1, 61, 0
4, 66016, Note_on_c, 1, 67, 63
4, 66046, Note_on_c, 1, 67, 0
4, 66048, Note_on_c, 1, 60, 63
4, 66078, Note_on_c, 1, 60, 0
4, 66080, Note_on_c, 1, 63, 63
4, 66110, Note_on_c, 1, 63, 0
4, 66112, Note_on_c, 1, 68, 63
4, 66142, Note_on_c, 1, 68, 0
4, 66144, Note_on_c, 1, 60, 63
4, 66174, Note_on_c, 1, 60, 0
4, 66176, Note_on_c, 1, 63, 63
4, 66206, Note_on_c, 1, 63, 0
4, 66208, Note_on_c, 1, 68, 63
4, 66238, Note_on_c, 1, 68, 0
4, 66240, Note_on_c, 1, 60, 63
4, 66270, Note_on_c, 1, 60, 0
4, 66272, Note_on_c, 1, 63, 63
4, 66302, Note_on_c, 1, 63, 0
4, 66304, Note_on_c, 1, 68, 63
4, 66334, Note_on_c, 1, 68, 0
4, 66336, Note_on_c, 1, 60, 63
4, 66366, Note_on_c, 1, 60, 0
4, 66368, Note_on_c, 1, 63, 63
4, 66398, Note_on_c, 1, 63, 0
4, 66400, Note_on_c, 1, 68, 63
4, 66430, Note_on_c, 1, 68, 0
4, 66432, Note_on_c, 1, 60, 63
4, 66462, Note_on_c, 1, 60, 0
4, 66464, Note_on_c, 1, 63, 63
4, 66494, Note_on_c, 1, 63, 0
4, 66496, Note_on_c, 1, 68, 63
4, 66526, Note_on_c, 1, 68, 0
4, 66528, Note_on_c, 1, 60, 63
4, 66558, Note_on_c, 1, 60, 0
4, 66560, Note_on_c, 1, 63, 63
4, 66590, Note_on_c, 1, 63, 0
4, 66592, Note_on_c, 1, 68, 63
4, 66622, Note_on_c, 1, 68, 0
4, 66624, Note_on_c, 1, 60, 63
4, 66654, Note_on_c, 1, 60, 0
4, 66656, Note_on_c, 1, 63, 63
4, 66686, Note_on_c, 1, 63, 0
4, 66688, Note_on_c, 1, 68, 63
4, 66718, Note_on_c, 1, 68, 0
4, 66720, Note_on_c, 1, 60, 63
4, 66750, Note_on_c, 1, 60, 0
4, 66752, Note_on_c, 1, 63, 63
4, 66782, Note_on_c, 1, 63, 0
4, 66784, Note_on_c, 1, 68, 63
4, 66814, Note_on_c, 1, 68, 0
4, 66816, Note_on_c, 1, 61, 63
4, 66846, Note_on_c, 1, 61, 0
4, 66848, Note_on_c, 1, 65, 63
4, 66878, Note_on_c, 1, 65, 0
4, 66880, Note_on_c, 1, 68, 63
4, 66910, Note_on_c, 1, 68, 0
4, 66912, Note_on_c, 1, 61, 63
4, 66942, Note_on_c, 1, 61, 0
4, 66944, Note_on_c, 1, 65, 63
4, 66974, Note_on_c, 1, 65, 0
4, 66976, Note_on_c, 1, 68, 63
4, 67006, Note_on_c, 1, 68, 0
4, 67008, Note_on_c, 1, 61, 63
4, 67038, Note_on_c, 1, 61, 0
4, 67040, Note_on_c, 1, 63, 63
4, 67070, Note_on_c, 1, 63, 0
4, 67072, Note_on_c, 1, 67, 63
4, 67102, Note_on_c, 1, 67, 0
4, 67104, Note_on_c, 1, 61, 63
4, 67134, Note_on_c, 1, 61, 0
4, 67136, Note_on_c, 1, 63, 63
4, 67166, Note_on_c, 1, 63, 0
4, 67168, Note_on_c, 1, 67, 63
4, 67198, Note_on_c, 1, 67, 0
4, 67200, Note_on_c, 1, 60, 63
4, 67230, Note_on_c, 1, 60, 0
4, 67232, Note_on_c, 1, 63, 63
4, 67262, Note_on_c, 1, 63, 0
4, 67264, Note_on_c, 1, 68, 63
4, 67294, Note_on_c, 1, 68, 0
4, 67296, Note_on_c, 1, 60, 63
4, 67326, Note_on_c, 1, 60, 0
4, 67328, Note_on_c, 1, 63, 63
4, 67358, Note_on_c, 1, 63, 0
4, 67360, Note_on_c, 1, 68, 63
4, 67390, Note_on_c, 1, 68, 0
4, 67392, Note_on_c, 1, 58, 63
4, 67422, Note_on_c, 1, 58, 0
4, 67424, Note_on_c, 1, 61, 63
4, 67454, Note_on_c, 1, 61, 0
4, 67456, Note_on_c, 1, 67, 63
4, 67486, Note_on_c, 1, 67, 0
4, 67488, Note_on_c, 1, 58, 63
4, 67518, Note_on_c, 1, 58, 0
4, 67520, Note_on_c, 1, 61, 63
4, 67550, Note_on_c, 1, 61, 0
4, 67552, Note_on_c, 1, 67, 63
4, 67582, Note_on_c, 1, 67, 0
4, 67584, Note_on_c, 1, 56, 63
4, 67673, Note_on_c, 1, 56, 0
4, 68064, Note_on_c, 1, 67, 63
4, 68064, Note_on_c, 1, 63, 63
4, 68197, Note_on_c, 1, 67, 0
4, 68197, Note_on_c, 1, 63, 0
4, 68352, Note_on_c, 1, 51, 63
4, 68382, Note_on_c, 1, 51, 0
4, 68384, Note_on_c, 1, 55, 63
4, 68414, Note_on_c, 1, 55, 0
4, 68416, Note_on_c, 1, 58, 63
4, 68446, Note_on_c, 1, 58, 0
4, 68448, Note_on_c, 1, 51, 63
4, 68478, Note_on_c, 1, 51, 0
4, 68480, Note_on_c, 1, 55, 63
4, 68510, Note_on_c, 1, 55, 0
4, 68512, Note_on_c, 1, 58, 63
4, 68542, Note_on_c, 1, 58, 0
4, 68544, Note_on_c, 1, 51, 63
4, 68574, Note_on_c, 1, 51, 0
4, 68576, Note_on_c, 1, 55, 63
4, 68606, Note_on_c, 1, 55, 0
4, 68608, Note_on_c, 1, 58, 63
4, 68638, Note_on_c, 1, 58, 0
4, 68640, Note_on_c, 1, 51, 63
4, 68670, Note_on_c, 1, 51, 0
4, 68672, Note_on_c, 1, 56, 63
4, 68702, Note_on_c, 1, 56, 0
4, 68704, Note_on_c, 1, 60, 63
4, 68734, Note_on_c, 1, 60, 0
4, 68736, Note_on_c, 1, 51, 63
4, 68766, Note_on_c, 1, 51, 0
4, 68768, Note_on_c, 1, 58, 63
4, 68798, Note_on_c, 1, 58, 0
4, 68800, Note_on_c, 1, 61, 63
4, 68830, Note_on_c, 1, 61, 0
4, 68832, Note_on_c, 1, 51, 63
4, 68862, Note_on_c, 1, 51, 0
4, 68864, Note_on_c, 1, 58, 63
4, 68894, Note_on_c, 1, 58, 0
4, 68896, Note_on_c, 1, 61, 63
4, 68926, Note_on_c, 1, 61, 0
4, 68928, Note_on_c, 1, 51, 63
4, 68958, Note_on_c, 1, 51, 0
4, 68960, Note_on_c, 1, 58, 63
4, 68990, Note_on_c, 1, 58, 0
4, 68992, Note_on_c, 1, 61, 63
4, 69022, Note_on_c, 1, 61, 0
4, 69024, Note_on_c, 1, 51, 63
4, 69054, Note_on_c, 1, 51, 0
4, 69056, Note_on_c, 1, 56, 63
4, 69086, Note_on_c, 1, 56, 0
4, 69088, Note_on_c, 1, 60, 63
4, 69118, Note_on_c, 1, 60, 0
4, 69120, Note_on_c, 1, 51, 63
4, 69150, Note_on_c, 1, 51, 0
4, 69152, Note_on_c, 1, 55, 63
4, 69182, Note_on_c, 1, 55, 0
4, 69184, Note_on_c, 1, 58, 63
4, 69214, Note_on_c, 1, 58, 0
4, 69216, Note_on_c, 1, 51, 63
4, 69246, Note_on_c, 1, 51, 0
4, 69248, Note_on_c, 1, 55, 63
4, 69278, Note_on_c, 1, 55, 0
4, 69280, Note_on_c, 1, 58, 63
4, 69310, Note_on_c, 1, 58, 0
4, 69312, Note_on_c, 1, 51, 63
4, 69342, Note_on_c, 1, 51, 0
4, 69344, Note_on_c, 1, 55, 63
4, 69374, Note_on_c, 1, 55, 0
4, 69376, Note_on_c, 1, 58, 63
4, 69406, Note_on_c, 1, 58, 0
4, 69408, Note_on_c, 1, 51, 63
4, 69438, Note_on_c, 1, 51, 0
4, 69440, Note_on_c, 1, 56, 63
4, 69470, Note_on_c, 1, 56, 0
4, 69472, Note_on_c, 1, 60, 63
4, 69502, Note_on_c, 1, 60, 0
4, 69504, Note_on_c, 1, 51, 63
4, 69534, Note_on_c, 1, 51, 0
4, 69536, Note_on_c, 1, 58, 63
4, 69566, Note_on_c, 1, 58, 0
4, 69568, Note_on_c, 1, 61, 63
4, 69598, Note_on_c, 1, 61, 0
4, 69600, Note_on_c, 1, 51, 63
4, 69630, Note_on_c, 1, 51, 0
4, 69632, Note_on_c, 1, 58, 63
4, 69662, Note_on_c, 1, 58, 0
4, 69664, Note_on_c, 1, 61, 63
4, 69694, Note_on_c, 1, 61, 0
4, 69696, Note_on_c, 1, 51, 63
4, 69726, Note_on_c, 1, 51, 0
4, 69728, Note_on_c, 1, 58, 63
4, 69758, Note_on_c, 1, 58, 0
4, 69760, Note_on_c, 1, 61, 63
4, 69790, Note_on_c, 1, 61, 0
4, 69792, Note_on_c, 1, 51, 63
4, 69822, Note_on_c, 1, 51, 0
4, 69824, Note_on_c, 1, 56, 63
4, 69854, Note_on_c, 1, 56, 0
4, 69856, Note_on_c, 1, 60, 63
4, 69886, Note_on_c, 1, 60, 0
4, 69888, Note_on_c, 1, 51, 63
4, 69918, Note_on_c, 1, 51, 0
4, 69920, Note_on_c, 1, 55, 65
4, 69950, Note_on_c, 1, 55, 0
4, 69952, Note_on_c, 1, 58, 68
4, 69982, Note_on_c, 1, 58, 0
4, 69984, Note_on_c, 1, 51, 71
4, 70014, Note_on_c, 1, 51, 0
4, 70016, Note_on_c, 1, 55, 74
4, 70046, Note_on_c, 1, 55, 0
4, 70048, Note_on_c, 1, 58, 77
4, 70078, Note_on_c, 1, 58, 0
4, 70080, Note_on_c, 1, 52, 80
4, 70110, Note_on_c, 1, 52, 0
4, 70112, Note_on_c, 1, 55, 84
4, 70142, Note_on_c, 1, 55, 0
4, 70144, Note_on_c, 1, 58, 84
4, 70174, Note_on_c, 1, 58, 0
4, 70176, Note_on_c, 1, 53, 84
4, 70206, Note_on_c, 1, 53, 0
4, 70208, Note_on_c, 1, 55, 84
4, 70238, Note_on_c, 1, 55, 0
4, 70240, Note_on_c, 1, 56, 84
4, 70270, Note_on_c, 1, 56, 0
4, 70272, Note_on_c, 1, 49, 84
4, 70449, Note_on_c, 1, 49, 0
4, 70464, Note_on_c, 1, 51, 84
4, 70641, Note_on_c, 1, 51, 0
4, 70656, Note_on_c, 1, 56, 77
4, 70745, Note_on_c, 1, 56, 0
4, 70848, Note_on_c, 1, 58, 77
4, 70848, Note_on_c, 1, 51, 77
4, 70937, Note_on_c, 1, 58, 0
4, 70937, Note_on_c, 1, 51, 0
4, 71040, Note_on_c, 1, 60, 77
4, 71040, Note_on_c, 1, 56, 77
4, 71129, Note_on_c, 1, 60, 0
4, 71129, Note_on_c, 1, 56, 0
4, 71232, Note_on_c, 1, 58, 77
4, 71232, Note_on_c, 1, 51, 77
4, 71321, Note_on_c, 1, 58, 0
4, 71321, Note_on_c, 1, 51, 0
4, 71424, Note_on_c, 1, 60, 77
4, 71424, Note_on_c, 1, 56, 77
4, 71689, Note_on_c, 1, 60, 0
4, 71689, Note_on_c, 1, 56, 0
4, 71712, Note_on_c, 1, 61, 77
4, 71712, Note_on_c, 1, 58, 77
4, 71801, Note_on_c, 1, 61, 0
4, 71801, Note_on_c, 1, 58, 0
4, 71808, Note_on_c, 1, 63, 77
4, 71808, Note_on_c, 1, 60, 77
4, 71897, Note_on_c, 1, 63, 0
4, 71897, Note_on_c, 1, 60, 0
4, 72192, Note_on_c, 1, 49, 77
4, 72369, Note_on_c, 1, 49, 0
4, 72384, Note_on_c, 1, 51, 77
4, 72561, Note_on_c, 1, 51, 0
4, 72576, Note_on_c, 1, 60, 77
4, 72576, Note_on_c, 1, 56, 77
4, 72841, Note_on_c, 1, 60, 0
4, 72841, Note_on_c, 1, 56, 0
4, 72864, Note_on_c, 1, 61, 77
4, 72864, Note_on_c, 1, 58, 77
4, 72953, Note_on_c, 1, 61, 0
4, 72953, Note_on_c, 1, 58, 0
4, 72960, Note_on_c, 1, 63, 77
4, 72960, Note_on_c, 1, 60, 77
4, 73049, Note_on_c, 1, 63, 0
4, 73049, Note_on_c, 1, 60, 0
4, 73344, Note_on_c, 1, 49, 77
4, 73521, Note_on_c, 1, 49, 0
4, 73536, Note_on_c, 1, 51, 77
4, 73713, Note_on_c, 1, 51, 0
4, 73728, Note_on_c, 1, 56, 84
4, 73758, Note_on_c, 1, 56, 0
4, 73760, Note_on_c, 1, 60, 84
4, 73790, Note_on_c, 1, 60, 0
4, 73792, Note_on_c, 1, 58, 84
4, 73822, Note_on_c, 1, 58, 0
4, 73824, Note_on_c, 1, 56, 84
4, 73854, Note_on_c, 1, 56, 0
4, 73856, Note_on_c, 1, 55, 84
4, 73886, Note_on_c, 1, 55, 0
4, 73888, Note_on_c, 1, 53, 84
4, 73918, Note_on_c, 1, 53, 0
4, 73920, Note_on_c, 1, 51, 84
4, 73950, Note_on_c, 1, 51, 0
4, 73952, Note_on_c, 1, 49, 84
4, 73982, Note_on_c, 1, 49, 0
4, 73984, Note_on_c, 1, 48, 84
4, 74014, Note_on_c, 1, 48, 0
4, 74016, Note_on_c, 1, 49, 84
4, 74039, Note_on_c, 1, 49, 0
4, 74040, Note_on_c, 1, 51, 84
4, 74063, Note_on_c, 1, 51, 0
4, 74064, Note_on_c, 1, 53, 84
4, 74087, Note_on_c, 1, 53, 0
4, 74088, Note_on_c, 1, 55, 84
4, 74111, Note_on_c, 1, 55, 0
4, 74112, Note_on_c, 1, 56, 84
4, 74142, Note_on_c, 1, 56, 0
4, 74144, Note_on_c, 1, 60, 84
4, 74174, Note_on_c, 1, 60, 0
4, 74176, Note_on_c, 1, 58, 84
4, 74206, Note_on_c, 1, 58, 0
4, 74208, Note_on_c, 1, 56, 84
4, 74238, Note_on_c, 1, 56, 0
4, 74240, Note_on_c, 1, 55, 84
4, 74270, Note_on_c, 1, 55, 0
4, 74272, Note_on_c, 1, 53, 84
4, 74302, Note_on_c, 1, 53, 0
4, 74304, Note_on_c, 1, 51, 84
4, 74334, Note_on_c, 1, 51, 0
4, 74336, Note_on_c, 1, 49, 84
4, 74366, Note_on_c, 1, 49, 0
4, 74368, Note_on_c, 1, 48, 84
4, 74398, Note_on_c, 1, 48, 0
4, 74400, Note_on_c, 1, 49, 84
4, 74423, Note_on_c, 1, 49, 0
4, 74424, Note_on_c, 1, 51, 84
4, 74447, Note_on_c, 1, 51, 0
4, 74448, Note_on_c, 1, 53, 84
4, 74471, Note_on_c, 1, 53, 0
4, 74472, Note_on_c, 1, 55, 84
4, 74495, Note_on_c, 1, 55, 0
4, 74496, Note_on_c, 1, 56, 84
4, 74526, Note_on_c, 1, 56, 0
4, 74528, Note_on_c, 1, 60, 84
4, 74558, Note_on_c, 1, 60, 0
4, 74560, Note_on_c, 1, 58, 84
4, 74590, Note_on_c, 1, 58, 0
4, 74592, Note_on_c, 1, 56, 84
4, 74622, Note_on_c, 1, 56, 0
4, 74624, Note_on_c, 1, 55, 84
4, 74654, Note_on_c, 1, 55, 0
4, 74656, Note_on_c, 1, 53, 84
4, 74686, Note_on_c, 1, 53, 0
4, 74688, Note_on_c, 1, 51, 84
4, 74718, Note_on_c, 1, 51, 0
4, 74720, Note_on_c, 1, 49, 84
4, 74750, Note_on_c, 1, 49, 0
4, 74752, Note_on_c, 1, 48, 84
4, 74782, Note_on_c, 1, 48, 0
4, 74784, Note_on_c, 1, 56, 84
4, 74814, Note_on_c, 1, 56, 0
4, 74816, Note_on_c, 1, 55, 84
4, 74846, Note_on_c, 1, 55, 0
4, 74848, Note_on_c, 1, 53, 84
4, 74878, Note_on_c, 1, 53, 0
4, 74880, Note_on_c, 1, 51, 84
4, 74910, Note_on_c, 1, 51, 0
4, 74912, Note_on_c, 1, 49, 84
4, 74942, Note_on_c, 1, 49, 0
4, 74944, Note_on_c, 1, 48, 84
4, 74974, Note_on_c, 1, 48, 0
4, 74976, Note_on_c, 1, 56, 84
4, 75006, Note_on_c, 1, 56, 0
4, 75008, Note_on_c, 1, 55, 84
4, 75038, Note_on_c, 1, 55, 0
4, 75040, Note_on_c, 1, 53, 84
4, 75070, Note_on_c, 1, 53, 0
4, 75072, Note_on_c, 1, 51, 84
4, 75102, Note_on_c, 1, 51, 0
4, 75104, Note_on_c, 1, 49, 84
4, 75134, Note_on_c, 1, 49, 0
4, 75136, Note_on_c, 1, 48, 84
4, 75166, Note_on_c, 1, 48, 0
4, 75168, Note_on_c, 1, 56, 84
4, 75235, Note_on_c, 1, 56, 0
4, 75240, Note_on_c, 1, 48, 84
4, 75263, Note_on_c, 1, 48, 0
4, 75264, Note_on_c, 1, 51, 84
4, 75279, Note_on_c, 1, 51, 0
4, 75280, Note_on_c, 1, 49, 84
4, 75295, Note_on_c, 1, 49, 0
4, 75296, Note_on_c, 1, 51, 84
4, 75311, Note_on_c, 1, 51, 0
4, 75312, Note_on_c, 1, 49, 84
4, 75327, Note_on_c, 1, 49, 0
4, 75328, Note_on_c, 1, 51, 84
4, 75343, Note_on_c, 1, 51, 0
4, 75344, Note_on_c, 1, 49, 84
4, 75359, Note_on_c, 1, 49, 0
4, 75360, Note_on_c, 1, 51, 84
4, 75375, Note_on_c, 1, 51, 0
4, 75376, Note_on_c, 1, 49, 84
4, 75391, Note_on_c, 1, 49, 0
4, 75392, Note_on_c, 1, 51, 84
4, 75407, Note_on_c, 1, 51, 0
4, 75408, Note_on_c, 1, 49, 84
4, 75423, Note_on_c, 1, 49, 0
4, 75424, Note_on_c, 1, 48, 84
4, 75439, Note_on_c, 1, 48, 0
4, 75440, Note_on_c, 1, 49, 84
4, 75455, Note_on_c, 1, 49, 0
4, 75456, Note_on_c, 1, 51, 84
4, 75545, Note_on_c, 1, 51, 0
4, 75552, Note_on_c, 1, 51, 79
4, 75641, Note_on_c, 1, 51, 0
4, 75648, Note_on_c, 1, 56, 75
4, 75678, Note_on_c, 1, 56, 0
4, 75680, Note_on_c, 1, 60, 74
4, 75710, Note_on_c, 1, 60, 0
4, 75712, Note_on_c, 1, 63, 72
4, 75742, Note_on_c, 1, 63, 0
4, 75744, Note_on_c, 1, 56, 71
4, 75774, Note_on_c, 1, 56, 0
4, 75776, Note_on_c, 1, 60, 70
4, 75806, Note_on_c, 1, 60, 0
4, 75808, Note_on_c, 1, 63, 69
4, 75838, Note_on_c, 1, 63, 0
4, 75840, Note_on_c, 1, 56, 67
4, 75870, Note_on_c, 1, 56, 0
4, 75872, Note_on_c, 1, 60, 66
4, 75902, Note_on_c, 1, 60, 0
4, 75904, Note_on_c, 1, 63, 65
4, 75934, Note_on_c, 1, 63, 0
4, 75936, Note_on_c, 1, 56, 63
4, 75966, Note_on_c, 1, 56, 0
4, 75968, Note_on_c, 1, 61, 63
4, 75998, Note_on_c, 1, 61, 0
4, 76000, Note_on_c, 1, 67, 63
4, 76030, Note_on_c, 1, 67, 0
4, 76032, Note_on_c, 1, 56, 63
4, 76062, Note_on_c, 1, 56, 0
4, 76064, Note_on_c, 1, 60, 63
4, 76094, Note_on_c, 1, 60, 0
4, 76096, Note_on_c, 1, 63, 63
4, 76126, Note_on_c, 1, 63, 0
4, 76128, Note_on_c, 1, 56, 63
4, 76158, Note_on_c, 1, 56, 0
4, 76160, Note_on_c, 1, 60, 63
4, 76190, Note_on_c, 1, 60, 0
4, 76192, Note_on_c, 1, 63, 63
4, 76222, Note_on_c, 1, 63, 0
4, 76224, Note_on_c, 1, 56, 63
4, 76254, Note_on_c, 1, 56, 0
4, 76256, Note_on_c, 1, 60, 63
4, 76286, Note_on_c, 1, 60, 0
4, 76288, Note_on_c, 1, 63, 63
4, 76318, Note_on_c, 1, 63, 0
4, 76320, Note_on_c, 1, 56, 63
4, 76350, Note_on_c, 1, 56, 0
4, 76352, Note_on_c, 1, 61, 63
4, 76382, Note_on_c, 1, 61, 0
4, 76384, Note_on_c, 1, 67, 63
4, 76414, Note_on_c, 1, 67, 0
4, 76416, Note_on_c, 1, 56, 63
4, 76446, Note_on_c, 1, 56, 0
4, 76448, Note_on_c, 1, 60, 63
4, 76478, Note_on_c, 1, 60, 0
4, 76480, Note_on_c, 1, 63, 63
4, 76510, Note_on_c, 1, 63, 0
4, 76512, Note_on_c, 1, 56, 63
4, 76542, Note_on_c, 1, 56, 0
4, 76544, Note_on_c, 1, 60, 63
4, 76574, Note_on_c, 1, 60, 0
4, 76576, Note_on_c, 1, 63, 63
4, 76606, Note_on_c, 1, 63, 0
4, 76608, Note_on_c, 1, 56, 63
4, 76638, Note_on_c, 1, 56, 0
4, 76640, Note_on_c, 1, 60, 63
4, 76670, Note_on_c, 1, 60, 0
4, 76672, Note_on_c, 1, 63, 63
4, 76702, Note_on_c, 1, 63, 0
4, 76704, Note_on_c, 1, 56, 63
4, 76734, Note_on_c, 1, 56, 0
4, 76736, Note_on_c, 1, 61, 63
4, 76766, Note_on_c, 1, 61, 0
4, 76768, Note_on_c, 1, 67, 63
4, 76798, Note_on_c, 1, 67, 0
4, 76800, Note_on_c, 1, 56, 63
4, 76830, Note_on_c, 1, 56, 0
4, 76832, Note_on_c, 1, 60, 63
4, 76862, Note_on_c, 1, 60, 0
4, 76864, Note_on_c, 1, 63, 63
4, 76894, Note_on_c, 1, 63, 0
4, 76896, Note_on_c, 1, 56, 63
4, 76926, Note_on_c, 1, 56, 0
4, 76928, Note_on_c, 1, 60, 63
4, 76958, Note_on_c, 1, 60, 0
4, 76960, Note_on_c, 1, 63, 63
4, 76990, Note_on_c, 1, 63, 0
4, 76992, Note_on_c, 1, 56, 63
4, 77022, Note_on_c, 1, 56, 0
4, 77024, Note_on_c, 1, 60, 63
4, 77054, Note_on_c, 1, 60, 0
4, 77056, Note_on_c, 1, 63, 63
4, 77086, Note_on_c, 1, 63, 0
4, 77088, Note_on_c, 1, 56, 63
4, 77118, Note_on_c, 1, 56, 0
4, 77120, Note_on_c, 1, 61, 63
4, 77150, Note_on_c, 1, 61, 0
4, 77152, Note_on_c, 1, 67, 63
4, 77182, Note_on_c, 1, 67, 0
4, 77184, Note_on_c, 1, 56, 63
4, 77214, Note_on_c, 1, 56, 0
4, 77216, Note_on_c, 1, 60, 63
4, 77246, Note_on_c, 1, 60, 0
4, 77248, Note_on_c, 1, 63, 63
4, 77278, Note_on_c, 1, 63, 0
4, 77280, Note_on_c, 1, 56, 63
4, 77310, Note_on_c, 1, 56, 0
4, 77312, Note_on_c, 1, 60, 63
4, 77342, Note_on_c, 1, 60, 0
4, 77344, Note_on_c, 1, 63, 63
4, 77374, Note_on_c, 1, 63, 0
4, 77376, Note_on_c, 1, 56, 63
4, 77406, Note_on_c, 1, 56, 0
4, 77408, Note_on_c, 1, 60, 63
4, 77438, Note_on_c, 1, 60, 0
4, 77440, Note_on_c, 1, 63, 63
4, 77470, Note_on_c, 1, 63, 0
4, 77472, Note_on_c, 1, 56, 63
4, 77502, Note_on_c, 1, 56, 0
4, 77504, Note_on_c, 1, 61, 63
4, 77534, Note_on_c, 1, 61, 0
4, 77536, Note_on_c, 1, 67, 63
4, 77566, Note_on_c, 1, 67, 0
4, 77568, Note_on_c, 1, 56, 63
4, 77598, Note_on_c, 1, 56, 0
4, 77600, Note_on_c, 1, 60, 63
4, 77630, Note_on_c, 1, 60, 0
4, 77632, Note_on_c, 1, 63, 63
4, 77662, Note_on_c, 1, 63, 0
4, 77664, Note_on_c, 1, 56, 63
4, 77694, Note_on_c, 1, 56, 0
4, 77696, Note_on_c, 1, 60, 63
4, 77726, Note_on_c, 1, 60, 0
4, 77728, Note_on_c, 1, 63, 63
4, 77758, Note_on_c, 1, 63, 0
4, 77760, Note_on_c, 1, 56, 63
4, 77790, Note_on_c, 1, 56, 0
4, 77792, Note_on_c, 1, 60, 63
4, 77822, Note_on_c, 1, 60, 0
4, 77824, Note_on_c, 1, 63, 63
4, 77854, Note_on_c, 1, 63, 0
4, 77856, Note_on_c, 1, 56, 63
4, 77886, Note_on_c, 1, 56, 0
4, 77888, Note_on_c, 1, 61, 63
4, 77918, Note_on_c, 1, 61, 0
4, 77920, Note_on_c, 1, 67, 63
4, 77950, Note_on_c, 1, 67, 0
4, 77952, Note_on_c, 1, 56, 63
4, 77982, Note_on_c, 1, 56, 0
4, 77984, Note_on_c, 1, 60, 63
4, 78014, Note_on_c, 1, 60, 0
4, 78016, Note_on_c, 1, 63, 63
4, 78046, Note_on_c, 1, 63, 0
4, 78048, Note_on_c, 1, 56, 63
4, 78078, Note_on_c, 1, 56, 0
4, 78080, Note_on_c, 1, 60, 63
4, 78110, Note_on_c, 1, 60, 0
4, 78112, Note_on_c, 1, 63, 63
4, 78142, Note_on_c, 1, 63, 0
4, 78144, Note_on_c, 1, 56, 63
4, 78174, Note_on_c, 1, 56, 0
4, 78176, Note_on_c, 1, 60, 63
4, 78206, Note_on_c, 1, 60, 0
4, 78208, Note_on_c, 1, 63, 63
4, 78238, Note_on_c, 1, 63, 0
4, 78240, Note_on_c, 1, 56, 63
4, 78270, Note_on_c, 1, 56, 0
4, 78272, Note_on_c, 1, 61, 63
4, 78302, Note_on_c, 1, 61, 0
4, 78304, Note_on_c, 1, 67, 63
4, 78334, Note_on_c, 1, 67, 0
4, 78336, Note_on_c, 1, 60, 63
4, 78336, Note_on_c, 1, 56, 63
4, 78425, Note_on_c, 1, 60, 0
4, 78425, Note_on_c, 1, 56, 0
4, 78624, Note_on_c, 1, 48, 56
4, 78624, Note_on_c, 1, 44, 56
4, 78713, Note_on_c, 1, 48, 0
4, 78713, Note_on_c, 1, 44, 0
4, 78720, Note_on_c, 1, 48, 56
4, 78720, Note_on_c, 1, 44, 56
4, 78853, Note_on_c, 1, 48, 0
4, 78853, Note_on_c, 1, 44, 0
4, 79104, Note_on_c, 1, 51, 77
4, 79104, Note_on_c, 1, 39, 77
4, 79193, Note_on_c, 1, 51, 0
4, 79193, Note_on_c, 1, 39, 0
4, 79296, Note_on_c, 1, 50, 77
4, 79296, Note_on_c, 1, 38, 77
4, 79385, Note_on_c, 1, 50, 0
4, 79385, Note_on_c, 1, 38, 0
4, 79584, Note_on_c, 1, 39, 77
4, 79673, Note_on_c, 1, 39, 0
4, 79680, Note_on_c, 1, 51, 77
4, 79769, Note_on_c, 1, 51, 0
4, 79968, Note_on_c, 1, 53, 77
4, 80064, Note_on_c, 1, 53, 0
4, 80064, Note_on_c, 1, 50, 77
4, 80109, Note_on_c, 1, 50, 0
4, 80352, Note_on_c, 1, 39, 77
4, 80441, Note_on_c, 1, 39, 0
4, 80448, Note_on_c, 1, 51, 77
4, 80537, Note_on_c, 1, 51, 0
4, 80544, Note_on_c, 1, 43, 77
4, 80633, Note_on_c, 1, 43, 0
4, 80640, Note_on_c, 1, 44, 77
4, 80729, Note_on_c, 1, 44, 0
4, 80928, Note_on_c, 1, 46, 77
4, 81017, Note_on_c, 1, 46, 0
4, 81096, Note_on_c, 1, 51, 77
4, 81119, Note_on_c, 1, 51, 0
4, 81120, Note_on_c, 1, 55, 77
4, 81187, Note_on_c, 1, 55, 0
4, 81192, Note_on_c, 1, 58, 77
4, 81215, Note_on_c, 1, 58, 0
4, 81216, Note_on_c, 1, 63, 77
4, 81305, Note_on_c, 1, 63, 0
4, 81864, Note_on_c, 1, 68, 77
4, 81887, Note_on_c, 1, 68, 0
4, 81888, Note_on_c, 1, 67, 77
4, 81955, Note_on_c, 1, 67, 0
4, 81960, Note_on_c, 1, 65, 75
4, 81983, Note_on_c, 1, 65, 0
4, 81984, Note_on_c, 1, 64, 74
4, 82051, Note_on_c, 1, 64, 0
4, 82056, Note_on_c, 1, 67, 72
4, 82079, Note_on_c, 1, 67, 0
4, 82080, Note_on_c, 1, 60, 72
4, 82147, Note_on_c, 1, 60, 0
4, 82152, Note_on_c, 1, 64, 70
4, 82175, Note_on_c, 1, 64, 0
4, 82176, Note_on_c, 1, 65, 63
4, 82206, Note_on_c, 1, 65, 0
4, 82208, Note_on_c, 1, 68, 63
4, 82238, Note_on_c, 1, 68, 0
4, 82240, Note_on_c, 1, 72, 63
4, 82270, Note_on_c, 1, 72, 0
4, 82272, Note_on_c, 1, 65, 63
4, 82302, Note_on_c, 1, 65, 0
4, 82304, Note_on_c, 1, 68, 63
4, 82334, Note_on_c, 1, 68, 0
4, 82336, Note_on_c, 1, 72, 63
4, 82366, Note_on_c, 1, 72, 0
4, 82368, Note_on_c, 1, 65, 63
4, 82398, Note_on_c, 1, 65, 0
4, 82400, Note_on_c, 1, 68, 63
4, 82430, Note_on_c, 1, 68, 0
4, 82432, Note_on_c, 1, 72, 63
4, 82462, Note_on_c, 1, 72, 0
4, 82464, Note_on_c, 1, 64, 63
4, 82494, Note_on_c, 1, 64, 0
4, 82496, Note_on_c, 1, 67, 63
4, 82526, Note_on_c, 1, 67, 0
4, 82528, Note_on_c, 1, 72, 63
4, 82558, Note_on_c, 1, 72, 0
4, 82560, Note_on_c, 1, 65, 63
4, 82590, Note_on_c, 1, 65, 0
4, 82592, Note_on_c, 1, 68, 63
4, 82622, Note_on_c, 1, 68, 0
4, 82624, Note_on_c, 1, 72, 63
4, 82654, Note_on_c, 1, 72, 0
4, 82656, Note_on_c, 1, 65, 63
4, 82686, Note_on_c, 1, 65, 0
4, 82688, Note_on_c, 1, 68, 63
4, 82718, Note_on_c, 1, 68, 0
4, 82720, Note_on_c, 1, 72, 63
4, 82750, Note_on_c, 1, 72, 0
4, 82752, Note_on_c, 1, 65, 63
4, 82782, Note_on_c, 1, 65, 0
4, 82784, Note_on_c, 1, 68, 63
4, 82814, Note_on_c, 1, 68, 0
4, 82816, Note_on_c, 1, 72, 63
4, 82846, Note_on_c, 1, 72, 0
4, 82848, Note_on_c, 1, 65, 63
4, 82878, Note_on_c, 1, 65, 0
4, 82880, Note_on_c, 1, 68, 63
4, 82910, Note_on_c, 1, 68, 0
4, 82912, Note_on_c, 1, 72, 63
4, 82942, Note_on_c, 1, 72, 0
4, 82944, Note_on_c, 1, 63, 63
4, 82974, Note_on_c, 1, 63, 0
4, 82976, Note_on_c, 1, 66, 63
4, 83006, Note_on_c, 1, 66, 0
4, 83008, Note_on_c, 1, 72, 63
4, 83038, Note_on_c, 1, 72, 0
4, 83040, Note_on_c, 1, 63, 63
4, 83070, Note_on_c, 1, 63, 0
4, 83072, Note_on_c, 1, 66, 63
4, 83102, Note_on_c, 1, 66, 0
4, 83104, Note_on_c, 1, 72, 63
4, 83134, Note_on_c, 1, 72, 0
4, 83136, Note_on_c, 1, 63, 63
4, 83166, Note_on_c, 1, 63, 0
4, 83168, Note_on_c, 1, 66, 63
4, 83198, Note_on_c, 1, 66, 0
4, 83200, Note_on_c, 1, 72, 63
4, 83230, Note_on_c, 1, 72, 0
4, 83232, Note_on_c, 1, 63, 63
4, 83262, Note_on_c, 1, 63, 0
4, 83264, Note_on_c, 1, 66, 63
4, 83294, Note_on_c, 1, 66, 0
4, 83296, Note_on_c, 1, 72, 63
4, 83326, Note_on_c, 1, 72, 0
4, 83328, Note_on_c, 1, 61, 63
4, 83358, Note_on_c, 1, 61, 0
4, 83360, Note_on_c, 1, 65, 63
4, 83390, Note_on_c, 1, 65, 0
4, 83392, Note_on_c, 1, 68, 63
4, 83422, Note_on_c, 1, 68, 0
4, 83424, Note_on_c, 1, 61, 63
4, 83454, Note_on_c, 1, 61, 0
4, 83456, Note_on_c, 1, 65, 63
4, 83486, Note_on_c, 1, 65, 0
4, 83488, Note_on_c, 1, 68, 63
4, 83518, Note_on_c, 1, 68, 0
4, 83520, Note_on_c, 1, 61, 63
4, 83550, Note_on_c, 1, 61, 0
4, 83552, Note_on_c, 1, 65, 63
4, 83582, Note_on_c, 1, 65, 0
4, 83584, Note_on_c, 1, 68, 63
4, 83614, Note_on_c, 1, 68, 0
4, 83616, Note_on_c, 1, 61, 63
4, 83646, Note_on_c, 1, 61, 0
4, 83648, Note_on_c, 1, 65, 63
4, 83678, Note_on_c, 1, 65, 0
4, 83680, Note_on_c, 1, 68, 63
4, 83710, Note_on_c, 1, 68, 0
4, 83712, Note_on_c, 1, 62, 63
4, 83742, Note_on_c, 1, 62, 0
4, 83744, Note_on_c, 1, 65, 63
4, 83774, Note_on_c, 1, 65, 0
4, 83776, Note_on_c, 1, 70, 63
4, 83806, Note_on_c, 1, 70, 0
4, 83808, Note_on_c, 1, 62, 63
4, 83838, Note_on_c, 1, 62, 0
4, 83840, Note_on_c, 1, 65, 63
4, 83870, Note_on_c, 1, 65, 0
4, 83872, Note_on_c, 1, 70, 63
4, 83902, Note_on_c, 1, 70, 0
4, 83904, Note_on_c, 1, 62, 63
4, 83934, Note_on_c, 1, 62, 0
4, 83936, Note_on_c, 1, 65, 63
4, 83966, Note_on_c, 1, 65, 0
4, 83968, Note_on_c, 1, 70, 63
4, 83998, Note_on_c, 1, 70, 0
4, 84000, Note_on_c, 1, 62, 63
4, 84030, Note_on_c, 1, 62, 0
4, 84032, Note_on_c, 1, 65, 63
4, 84062, Note_on_c, 1, 65, 0
4, 84064, Note_on_c, 1, 70, 63
4, 84094, Note_on_c, 1, 70, 0
4, 84096, Note_on_c, 1, 63, 63
4, 84126, Note_on_c, 1, 63, 0
4, 84128, Note_on_c, 1, 67, 63
4, 84158, Note_on_c, 1, 67, 0
4, 84160, Note_on_c, 1, 70, 63
4, 84190, Note_on_c, 1, 70, 0
4, 84192, Note_on_c, 1, 63, 63
4, 84222, Note_on_c, 1, 63, 0
4, 84224, Note_on_c, 1, 67, 63
4, 84254, Note_on_c, 1, 67, 0
4, 84256, Note_on_c, 1, 70, 63
4, 84286, Note_on_c, 1, 70, 0
4, 84288, Note_on_c, 1, 63, 63
4, 84318, Note_on_c, 1, 63, 0
4, 84320, Note_on_c, 1, 67, 63
4, 84350, Note_on_c, 1, 67, 0
4, 84352, Note_on_c, 1, 70, 63
4, 84382, Note_on_c, 1, 70, 0
4, 84384, Note_on_c, 1, 63, 63
4, 84414, Note_on_c, 1, 63, 0
4, 84416, Note_on_c, 1, 67, 63
4, 84446, Note_on_c, 1, 67, 0
4, 84448, Note_on_c, 1, 70, 63
4, 84478, Note_on_c, 1, 70, 0
4, 84480, Note_on_c, 1, 65, 63
4, 84510, Note_on_c, 1, 65, 0
4, 84512, Note_on_c, 1, 68, 63
4, 84542, Note_on_c, 1, 68, 0
4, 84544, Note_on_c, 1, 71, 63
4, 84574, Note_on_c, 1, 71, 0
4, 84576, Note_on_c, 1, 65, 63
4, 84606, Note_on_c, 1, 65, 0
4, 84608, Note_on_c, 1, 68, 63
4, 84638, Note_on_c, 1, 68, 0
4, 84640, Note_on_c, 1, 71, 63
4, 84670, Note_on_c, 1, 71, 0
4, 84672, Note_on_c, 1, 65, 64
4, 84702, Note_on_c, 1, 65, 0
4, 84704, Note_on_c, 1, 68, 64
4, 84734, Note_on_c, 1, 68, 0
4, 84736, Note_on_c, 1, 71, 64
4, 84766, Note_on_c, 1, 71, 0
4, 84768, Note_on_c, 1, 65, 64
4, 84798, Note_on_c, 1, 65, 0
4, 84800, Note_on_c, 1, 68, 64
4, 84830, Note_on_c, 1, 68, 0
4, 84832, Note_on_c, 1, 71, 65
4, 84862, Note_on_c, 1, 71, 0
4, 84864, Note_on_c, 1, 63, 65
4, 84894, Note_on_c, 1, 63, 0
4, 84896, Note_on_c, 1, 68, 65
4, 84926, Note_on_c, 1, 68, 0
4, 84928, Note_on_c, 1, 71, 65
4, 84958, Note_on_c, 1, 71, 0
4, 84960, Note_on_c, 1, 63, 65
4, 84990, Note_on_c, 1, 63, 0
4, 84992, Note_on_c, 1, 68, 65
4, 85022, Note_on_c, 1, 68, 0
4, 85024, Note_on_c, 1, 71, 66
4, 85054, Note_on_c, 1, 71, 0
4, 85056, Note_on_c, 1, 63, 66
4, 85086, Note_on_c, 1, 63, 0
4, 85088, Note_on_c, 1, 68, 66
4, 85118, Note_on_c, 1, 68, 0
4, 85120, Note_on_c, 1, 71, 66
4, 85150, Note_on_c, 1, 71, 0
4, 85152, Note_on_c, 1, 63, 66
4, 85182, Note_on_c, 1, 63, 0
4, 85184, Note_on_c, 1, 68, 67
4, 85214, Note_on_c, 1, 68, 0
4, 85216, Note_on_c, 1, 71, 67
4, 85246, Note_on_c, 1, 71, 0
4, 85248, Note_on_c, 1, 61, 67
4, 85278, Note_on_c, 1, 61, 0
4, 85280, Note_on_c, 1, 65, 67
4, 85310, Note_on_c, 1, 65, 0
4, 85312, Note_on_c, 1, 71, 67
4, 85342, Note_on_c, 1, 71, 0
4, 85344, Note_on_c, 1, 61, 67
4, 85374, Note_on_c, 1, 61, 0
4, 85376, Note_on_c, 1, 65, 68
4, 85406, Note_on_c, 1, 65, 0
4, 85408, Note_on_c, 1, 71, 68
4, 85438, Note_on_c, 1, 71, 0
4, 85440, Note_on_c, 1, 61, 68
4, 85470, Note_on_c, 1, 61, 0
4, 85472, Note_on_c, 1, 65, 68
4, 85502, Note_on_c, 1, 65, 0
4, 85504, Note_on_c, 1, 71, 68
4, 85534, Note_on_c, 1, 71, 0
4, 85536, Note_on_c, 1, 61, 69
4, 85566, Note_on_c, 1, 61, 0
4, 85568, Note_on_c, 1, 65, 69
4, 85598, Note_on_c, 1, 65, 0
4, 85600, Note_on_c, 1, 71, 69
4, 85630, Note_on_c, 1, 71, 0
4, 85632, Note_on_c, 1, 61, 70
4, 85662, Note_on_c, 1, 61, 0
4, 85664, Note_on_c, 1, 66, 70
4, 85694, Note_on_c, 1, 66, 0
4, 85696, Note_on_c, 1, 70, 70
4, 85726, Note_on_c, 1, 70, 0
4, 85728, Note_on_c, 1, 61, 70
4, 85758, Note_on_c, 1, 61, 0
4, 85760, Note_on_c, 1, 66, 70
4, 85790, Note_on_c, 1, 66, 0
4, 85792, Note_on_c, 1, 70, 70
4, 85822, Note_on_c, 1, 70, 0
4, 85824, Note_on_c, 1, 61, 70
4, 85854, Note_on_c, 1, 61, 0
4, 85856, Note_on_c, 1, 66, 70
4, 85886, Note_on_c, 1, 66, 0
4, 85888, Note_on_c, 1, 70, 70
4, 85918, Note_on_c, 1, 70, 0
4, 85920, Note_on_c, 1, 61, 70
4, 85950, Note_on_c, 1, 61, 0
4, 85952, Note_on_c, 1, 66, 70
4, 85982, Note_on_c, 1, 66, 0
4, 85984, Note_on_c, 1, 70, 70
4, 86014, Note_on_c, 1, 70, 0
4, 86016, Note_on_c, 1, 61, 70
4, 86046, Note_on_c, 1, 61, 0
4, 86048, Note_on_c, 1, 65, 70
4, 86078, Note_on_c, 1, 65, 0
4, 86080, Note_on_c, 1, 68, 70
4, 86110, Note_on_c, 1, 68, 0
4, 86112, Note_on_c, 1, 61, 70
4, 86142, Note_on_c, 1, 61, 0
4, 86144, Note_on_c, 1, 65, 70
4, 86174, Note_on_c, 1, 65, 0
4, 86176, Note_on_c, 1, 68, 70
4, 86206, Note_on_c, 1, 68, 0
4, 86208, Note_on_c, 1, 61, 71
4, 86238, Note_on_c, 1, 61, 0
4, 86240, Note_on_c, 1, 65, 71
4, 86270, Note_on_c, 1, 65, 0
4, 86272, Note_on_c, 1, 68, 71
4, 86302, Note_on_c, 1, 68, 0
4, 86304, Note_on_c, 1, 61, 71
4, 86334, Note_on_c, 1, 61, 0
4, 86336, Note_on_c, 1, 65, 71
4, 86366, Note_on_c, 1, 65, 0
4, 86368, Note_on_c, 1, 68, 72
4, 86398, Note_on_c, 1, 68, 0
4, 86400, Note_on_c, 1, 62, 72
4, 86430, Note_on_c, 1, 62, 0
4, 86432, Note_on_c, 1, 65, 72
4, 86462, Note_on_c, 1, 65, 0
4, 86464, Note_on_c, 1, 70, 72
4, 86494, Note_on_c, 1, 70, 0
4, 86496, Note_on_c, 1, 62, 72
4, 86526, Note_on_c, 1, 62, 0
4, 86528, Note_on_c, 1, 65, 72
4, 86558, Note_on_c, 1, 65, 0
4, 86560, Note_on_c, 1, 70, 73
4, 86590, Note_on_c, 1, 70, 0
4, 86592, Note_on_c, 1, 62, 73
4, 86622, Note_on_c, 1, 62, 0
4, 86624, Note_on_c, 1, 65, 73
4, 86654, Note_on_c, 1, 65, 0
4, 86656, Note_on_c, 1, 70, 73
4, 86686, Note_on_c, 1, 70, 0
4, 86688, Note_on_c, 1, 62, 73
4, 86718, Note_on_c, 1, 62, 0
4, 86720, Note_on_c, 1, 65, 74
4, 86750, Note_on_c, 1, 65, 0
4, 86752, Note_on_c, 1, 70, 74
4, 86782, Note_on_c, 1, 70, 0
4, 86784, Note_on_c, 1, 63, 74
4, 86814, Note_on_c, 1, 63, 0
4, 86816, Note_on_c, 1, 67, 74
4, 86846, Note_on_c, 1, 67, 0
4, 86848, Note_on_c, 1, 73, 74
4, 86878, Note_on_c, 1, 73, 0
4, 86880, Note_on_c, 1, 63, 74
4, 86910, Note_on_c, 1, 63, 0
4, 86912, Note_on_c, 1, 67, 75
4, 86942, Note_on_c, 1, 67, 0
4, 86944, Note_on_c, 1, 73, 75
4, 86974, Note_on_c, 1, 73, 0
4, 86976, Note_on_c, 1, 63, 75
4, 87006, Note_on_c, 1, 63, 0
4, 87008, Note_on_c, 1, 67, 75
4, 87038, Note_on_c, 1, 67, 0
4, 87040, Note_on_c, 1, 73, 75
4, 87070, Note_on_c, 1, 73, 0
4, 87072, Note_on_c, 1, 63, 76
4, 87102, Note_on_c, 1, 63, 0
4, 87104, Note_on_c, 1, 67, 76
4, 87134, Note_on_c, 1, 67, 0
4, 87136, Note_on_c, 1, 73, 76
4, 87166, Note_on_c, 1, 73, 0
4, 87168, Note_on_c, 1, 64, 77
4, 87198, Note_on_c, 1, 64, 0
4, 87200, Note_on_c, 1, 67, 77
4, 87230, Note_on_c, 1, 67, 0
4, 87232, Note_on_c, 1, 72, 77
4, 87262, Note_on_c, 1, 72, 0
4, 87264, Note_on_c, 1, 64, 77
4, 87294, Note_on_c, 1, 64, 0
4, 87296, Note_on_c, 1, 67, 77
4, 87326, Note_on_c, 1, 67, 0
4, 87328, Note_on_c, 1, 72, 77
4, 87358, Note_on_c, 1, 72, 0
4, 87360, Note_on_c, 1, 64, 77
4, 87390, Note_on_c, 1, 64, 0
4, 87392, Note_on_c, 1, 67, 77
4, 87422, Note_on_c, 1, 67, 0
4, 87424, Note_on_c, 1, 72, 77
4, 87454, Note_on_c, 1, 72, 0
4, 87456, Note_on_c, 1, 64, 77
4, 87486, Note_on_c, 1, 64, 0
4, 87488, Note_on_c, 1, 67, 77
4, 87518, Note_on_c, 1, 67, 0
4, 87520, Note_on_c, 1, 72, 77
4, 87550, Note_on_c, 1, 72, 0
4, 87552, Note_on_c, 1, 65, 77
4, 87641, Note_on_c, 1, 65, 0
4, 88320, Note_on_c, 1, 45, 77
4, 88350, Note_on_c, 1, 45, 0
4, 88352, Note_on_c, 1, 48, 77
4, 88382, Note_on_c, 1, 48, 0
4, 88384, Note_on_c, 1, 51, 77
4, 88414, Note_on_c, 1, 51, 0
4, 88416, Note_on_c, 1, 45, 77
4, 88446, Note_on_c, 1, 45, 0
4, 88448, Note_on_c, 1, 48, 77
4, 88478, Note_on_c, 1, 48, 0
4, 88480, Note_on_c, 1, 51, 77
4, 88510, Note_on_c, 1, 51, 0
4, 88512, Note_on_c, 1, 45, 77
4, 88542, Note_on_c, 1, 45, 0
4, 88544, Note_on_c, 1, 48, 77
4, 88574, Note_on_c, 1, 48, 0
4, 88576, Note_on_c, 1, 51, 77
4, 88606, Note_on_c, 1, 51, 0
4, 88608, Note_on_c, 1, 45, 77
4, 88638, Note_on_c, 1, 45, 0
4, 88640, Note_on_c, 1, 48, 77
4, 88670, Note_on_c, 1, 48, 0
4, 88672, Note_on_c, 1, 51, 77
4, 88702, Note_on_c, 1, 51, 0
4, 88704, Note_on_c, 1, 46, 77
4, 88734, Note_on_c, 1, 46, 0
4, 88736, Note_on_c, 1, 49, 77
4, 88766, Note_on_c, 1, 49, 0
4, 88768, Note_on_c, 1, 53, 77
4, 88798, Note_on_c, 1, 53, 0
4, 88800, Note_on_c, 1, 46, 77
4, 88830, Note_on_c, 1, 46, 0
4, 88832, Note_on_c, 1, 49, 77
4, 88862, Note_on_c, 1, 49, 0
4, 88864, Note_on_c, 1, 53, 77
4, 88894, Note_on_c, 1, 53, 0
4, 88896, Note_on_c, 1, 46, 77
4, 88926, Note_on_c, 1, 46, 0
4, 88928, Note_on_c, 1, 49, 77
4, 88958, Note_on_c, 1, 49, 0
4, 88960, Note_on_c, 1, 53, 77
4, 88990, Note_on_c, 1, 53, 0
4, 88992, Note_on_c, 1, 46, 77
4, 89022, Note_on_c, 1, 46, 0
4, 89024, Note_on_c, 1, 49, 77
4, 89054, Note_on_c, 1, 49, 0
4, 89056, Note_on_c, 1, 53, 77
4, 89086, Note_on_c, 1, 53, 0
4, 89088, Note_on_c, 1, 47, 77
4, 89118, Note_on_c, 1, 47, 0
4, 89120, Note_on_c, 1, 50, 77
4, 89150, Note_on_c, 1, 50, 0
4, 89152, Note_on_c, 1, 53, 77
4, 89182, Note_on_c, 1, 53, 0
4, 89184, Note_on_c, 1, 47, 77
4, 89214, Note_on_c, 1, 47, 0
4, 89216, Note_on_c, 1, 50, 77
4, 89246, Note_on_c, 1, 50, 0
4, 89248, Note_on_c, 1, 53, 77
4, 89278, Note_on_c, 1, 53, 0
4, 89280, Note_on_c, 1, 47, 77
4, 89310, Note_on_c, 1, 47, 0
4, 89312, Note_on_c, 1, 50, 77
4, 89342, Note_on_c, 1, 50, 0
4, 89344, Note_on_c, 1, 53, 77
4, 89374, Note_on_c, 1, 53, 0
4, 89376, Note_on_c, 1, 47, 77
4, 89406, Note_on_c, 1, 47, 0
4, 89408, Note_on_c, 1, 50, 77
4, 89438, Note_on_c, 1, 50, 0
4, 89440, Note_on_c, 1, 53, 77
4, 89470, Note_on_c, 1, 53, 0
4, 89472, Note_on_c, 1, 48, 77
4, 89561, Note_on_c, 1, 48, 0
4, 89664, Note_on_c, 1, 52, 77
4, 89664, Note_on_c, 1, 48, 77
4, 89753, Note_on_c, 1, 52, 0
4, 89753, Note_on_c, 1, 48, 0
4, 89856, Note_on_c, 1, 52, 77
4, 89856, Note_on_c, 1, 48, 77
4, 89945, Note_on_c, 1, 52, 0
4, 89945, Note_on_c, 1, 48, 0
4, 90048, Note_on_c, 1, 52, 77
4, 90048, Note_on_c, 1, 48, 77
4, 90137, Note_on_c, 1, 52, 0
4, 90137, Note_on_c, 1, 48, 0
4, 90240, Note_on_c, 1, 56, 77
4, 90240, Note_on_c, 1, 53, 77
4, 90329, Note_on_c, 1, 56, 0
4, 90329, Note_on_c, 1, 53, 0
4, 90432, Note_on_c, 1, 55, 77
4, 90432, Note_on_c, 1, 48, 77
4, 90521, Note_on_c, 1, 55, 0
4, 90521, Note_on_c, 1, 48, 0
4, 90624, Note_on_c, 1, 56, 77
4, 90624, Note_on_c, 1, 53, 77
4, 90713, Note_on_c, 1, 56, 0
4, 90713, Note_on_c, 1, 53, 0
4, 90816, Note_on_c, 1, 58, 77
4, 90816, Note_on_c, 1, 46, 77
4, 90905, Note_on_c, 1, 58, 0
4, 90905, Note_on_c, 1, 46, 0
4, 91008, Note_on_c, 1, 60, 77
4, 91097, Note_on_c, 1, 60, 0
4, 91200, Note_on_c, 1, 48, 70
4, 91289, Note_on_c, 1, 48, 0
4, 91392, Note_on_c, 1, 57, 63
4, 91422, Note_on_c, 1, 57, 0
4, 91424, Note_on_c, 1, 60, 63
4, 91454, Note_on_c, 1, 60, 0
4, 91456, Note_on_c, 1, 66, 63
4, 91486, Note_on_c, 1, 66, 0
4, 91488, Note_on_c, 1, 57, 63
4, 91518, Note_on_c, 1, 57, 0
4, 91520, Note_on_c, 1, 60, 63
4, 91550, Note_on_c, 1, 60, 0
4, 91552, Note_on_c, 1, 66, 63
4, 91582, Note_on_c, 1, 66, 0
4, 91584, Note_on_c, 1, 57, 63
4, 91614, Note_on_c, 1, 57, 0
4, 91616, Note_on_c, 1, 60, 63
4, 91646, Note_on_c, 1, 60, 0
4, 91648, Note_on_c, 1, 66, 63
4, 91678, Note_on_c, 1, 66, 0
4, 91680, Note_on_c, 1, 57, 63
4, 91710, Note_on_c, 1, 57, 0
4, 91712, Note_on_c, 1, 60, 63
4, 91742, Note_on_c, 1, 60, 0
4, 91744, Note_on_c, 1, 66, 63
4, 91774, Note_on_c, 1, 66, 0
4, 91776, Note_on_c, 1, 58, 63
4, 91806, Note_on_c, 1, 58, 0
4, 91808, Note_on_c, 1, 65, 64
4, 91838, Note_on_c, 1, 65, 0
4, 91840, Note_on_c, 1, 68, 65
4, 91870, Note_on_c, 1, 68, 0
4, 91872, Note_on_c, 1, 58, 66
4, 91902, Note_on_c, 1, 58, 0
4, 91904, Note_on_c, 1, 65, 67
4, 91934, Note_on_c, 1, 65, 0
4, 91936, Note_on_c, 1, 68, 68
4, 91966, Note_on_c, 1, 68, 0
4, 91968, Note_on_c, 1, 58, 69
4, 91998, Note_on_c, 1, 58, 0
4, 92000, Note_on_c, 1, 65, 70
4, 92030, Note_on_c, 1, 65, 0
4, 92032, Note_on_c, 1, 68, 71
4, 92062, Note_on_c, 1, 68, 0
4, 92064, Note_on_c, 1, 58, 72
4, 92094, Note_on_c, 1, 58, 0
4, 92096, Note_on_c, 1, 65, 73
4, 92126, Note_on_c, 1, 65, 0
4, 92128, Note_on_c, 1, 68, 74
4, 92158, Note_on_c, 1, 68, 0
4, 92160, Note_on_c, 1, 55, 75
4, 92190, Note_on_c, 1, 55, 0
4, 92192, Note_on_c, 1, 58, 77
4, 92222, Note_on_c, 1, 58, 0
4, 92224, Note_on_c, 1, 63, 77
4, 92254, Note_on_c, 1, 63, 0
4, 92256, Note_on_c, 1, 55, 77
4, 92286, Note_on_c, 1, 55, 0
4, 92288, Note_on_c, 1, 58, 77
4, 92318, Note_on_c, 1, 58, 0
4, 92320, Note_on_c, 1, 63, 77
4, 92350, Note_on_c, 1, 63, 0
4, 92352, Note_on_c, 1, 55, 77
4, 92382, Note_on_c, 1, 55, 0
4, 92384, Note_on_c, 1, 58, 77
4, 92414, Note_on_c, 1, 58, 0
4, 92416, Note_on_c, 1, 63, 77
4, 92446, Note_on_c, 1, 63, 0
4, 92448, Note_on_c, 1, 55, 77
4, 92478, Note_on_c, 1, 55, 0
4, 92480, Note_on_c, 1, 58, 77
4, 92510, Note_on_c, 1, 58, 0
4, 92512, Note_on_c, 1, 63, 77
4, 92542, Note_on_c, 1, 63, 0
4, 92544, Note_on_c, 1, 56, 77
4, 92574, Note_on_c, 1, 56, 0
4, 92576, Note_on_c, 1, 60, 77
4, 92606, Note_on_c, 1, 60, 0
4, 92608, Note_on_c, 1, 63, 77
4, 92638, Note_on_c, 1, 63, 0
4, 92640, Note_on_c, 1, 56, 77
4, 92670, Note_on_c, 1, 56, 0
4, 92672, Note_on_c, 1, 60, 77
4, 92702, Note_on_c, 1, 60, 0
4, 92704, Note_on_c, 1, 63, 77
4, 92734, Note_on_c, 1, 63, 0
4, 92736, Note_on_c, 1, 48, 77
4, 92766, Note_on_c, 1, 48, 0
4, 92768, Note_on_c, 1, 51, 77
4, 92798, Note_on_c, 1, 51, 0
4, 92800, Note_on_c, 1, 56, 77
4, 92830, Note_on_c, 1, 56, 0
4, 92832, Note_on_c, 1, 48, 77
4, 92862, Note_on_c, 1, 48, 0
4, 92864, Note_on_c, 1, 51, 77
4, 92894, Note_on_c, 1, 51, 0
4, 92896, Note_on_c, 1, 56, 78
4, 92926, Note_on_c, 1, 56, 0
4, 92928, Note_on_c, 1, 49, 79
4, 92958, Note_on_c, 1, 49, 0
4, 92960, Note_on_c, 1, 53, 79
4, 92990, Note_on_c, 1, 53, 0
4, 92992, Note_on_c, 1, 56, 80
4, 93022, Note_on_c, 1, 56, 0
4, 93024, Note_on_c, 1, 49, 81
4, 93054, Note_on_c, 1, 49, 0
4, 93056, Note_on_c, 1, 53, 82
4, 93086, Note_on_c, 1, 53, 0
4, 93088, Note_on_c, 1, 56, 82
4, 93118, Note_on_c, 1, 56, 0
4, 93120, Note_on_c, 1, 50, 84
4, 93150, Note_on_c, 1, 50, 0
4, 93152, Note_on_c, 1, 53, 84
4, 93182, Note_on_c, 1, 53, 0
4, 93184, Note_on_c, 1, 58, 84
4, 93214, Note_on_c, 1, 58, 0
4, 93216, Note_on_c, 1, 50, 84
4, 93246, Note_on_c, 1, 50, 0
4, 93248, Note_on_c, 1, 53, 84
4, 93278, Note_on_c, 1, 53, 0
4, 93280, Note_on_c, 1, 58, 84
4, 93310, Note_on_c, 1, 58, 0
4, 93312, Note_on_c, 1, 51, 84
4, 93489, Note_on_c, 1, 51, 0
4, 93696, Note_on_c, 1, 56, 84
4, 93696, Note_on_c, 1, 53, 84
4, 93873, Note_on_c, 1, 56, 0
4, 93873, Note_on_c, 1, 53, 0
4, 95136, Note_on_c, 1, 53, 63
4, 95148, Note_on_c, 1, 56, 63
4, 95160, Note_on_c, 1, 58, 63
4, 95172, Note_on_c, 1, 62, 63
4, 95586, Note_on_c, 1, 62, 0
4, 95586, Note_on_c, 1, 58, 0
4, 95586, Note_on_c, 1, 56, 0
4, 95586, Note_on_c, 1, 53, 0
4, 96768, Note_on_c, 1, 39, 77
4, 96945, Note_on_c, 1, 39, 0
4, 97152, Note_on_c, 1, 56, 77
4, 97152, Note_on_c, 1, 44, 77
4, 97241, Note_on_c, 1, 56, 0
4, 97241, Note_on_c, 1, 44, 0
4, 97344, Note_on_c, 1, 55, 77
4, 97344, Note_on_c, 1, 43, 77
4, 97433, Note_on_c, 1, 55, 0
4, 97433, Note_on_c, 1, 43, 0
4, 97632, Note_on_c, 1, 44, 77
4, 97728, Note_on_c, 1, 44, 0
4, 97728, Note_on_c, 1, 56, 77
4, 97773, Note_on_c, 1, 56, 0
4, 98016, Note_on_c, 1, 58, 77
4, 98112, Note_on_c, 1, 58, 0
4, 98112, Note_on_c, 1, 55, 77
4, 98157, Note_on_c, 1, 55, 0
4, 98400, Note_on_c, 1, 56, 77
4, 98496, Note_on_c, 1, 56, 0
4, 98496, Note_on_c, 1, 44, 77
4, 98541, Note_on_c, 1, 44, 0
4, 98592, Note_on_c, 1, 48, 77
4, 98681, Note_on_c, 1, 48, 0
4, 98688, Note_on_c, 1, 49, 77
4, 98865, Note_on_c, 1, 49, 0
4, 98976, Note_on_c, 1, 51, 77
4, 99065, Note_on_c, 1, 51, 0
4, 99144, Note_on_c, 1, 44, 77
4, 99167, Note_on_c, 1, 44, 0
4, 99168, Note_on_c, 1, 48, 77
4, 99235, Note_on_c, 1, 48, 0
4, 99240, Note_on_c, 1, 51, 77
4, 99263, Note_on_c, 1, 51, 0
4, 99264, Note_on_c, 1, 56, 77
4, 99303, Note_on_c, 1, 56, 0
4, 99456, Note_on_c, 1, 60, 77
4, 99456, Note_on_c, 1, 56, 77
4, 99545, Note_on_c, 1, 60, 0
4, 99545, Note_on_c, 1, 56, 0
4, 99648, Note_on_c, 1, 58, 77
4, 99648, Note_on_c, 1, 55, 77
4, 99737, Note_on_c, 1, 58, 0
4, 99737, Note_on_c, 1, 55, 0
4, 99936, Note_on_c, 1, 44, 77
4, 100032, Note_on_c, 1, 44, 0
4, 100032, Note_on_c, 1, 56, 77
4, 100121, Note_on_c, 1, 56, 0
4, 100128, Note_on_c, 1, 60, 77
4, 100217, Note_on_c, 1, 60, 0
4, 100320, Note_on_c, 1, 61, 77
4, 100359, Note_on_c, 1, 61, 0
4, 100512, Note_on_c, 1, 60, 77
4, 100551, Note_on_c, 1, 60, 0
4, 100704, Note_on_c, 1, 58, 77
4, 100743, Note_on_c, 1, 58, 0
4, 100896, Note_on_c, 1, 56, 77
4, 100935, Note_on_c, 1, 56, 0
4, 101088, Note_on_c, 1, 49, 77
4, 101177, Note_on_c, 1, 49, 0
4, 101184, Note_on_c, 1, 51, 77
4, 101361, Note_on_c, 1, 51, 0
4, 101376, Note_on_c, 1, 56, 63
4, 101406, Note_on_c, 1, 56, 0
4, 101408, Note_on_c, 1, 60, 63
4, 101438, Note_on_c, 1, 60, 0
4, 101440, Note_on_c, 1, 63, 63
4, 101470, Note_on_c, 1, 63, 0
4, 101472, Note_on_c, 1, 56, 63
4, 101502, Note_on_c, 1, 56, 0
4, 101504, Note_on_c, 1, 60, 63
4, 101534, Note_on_c, 1, 60, 0
4, 101536, Note_on_c, 1, 63, 63
4, 101566, Note_on_c, 1, 63, 0
4, 101568, Note_on_c, 1, 56, 63
4, 101598, Note_on_c, 1, 56, 0
4, 101600, Note_on_c, 1, 60, 63
4, 101630, Note_on_c, 1, 60, 0
4, 101632, Note_on_c, 1, 63, 63
4, 101662, Note_on_c, 1, 63, 0
4, 101664, Note_on_c, 1, 55, 63
4, 101694, Note_on_c, 1, 55, 0
4, 101696, Note_on_c, 1, 58, 63
4, 101726, Note_on_c, 1, 58, 0
4, 101728, Note_on_c, 1, 63, 63
4, 101758, Note_on_c, 1, 63, 0
4, 101760, Note_on_c, 1, 56, 63
4, 101790, Note_on_c, 1, 56, 0
4, 101792, Note_on_c, 1, 60, 63
4, 101822, Note_on_c, 1, 60, 0
4, 101824, Note_on_c, 1, 63, 63
4, 101854, Note_on_c, 1, 63, 0
4, 101856, Note_on_c, 1, 56, 63
4, 101886, Note_on_c, 1, 56, 0
4, 101888, Note_on_c, 1, 60, 63
4, 101918, Note_on_c, 1, 60, 0
4, 101920, Note_on_c, 1, 63, 63
4, 101950, Note_on_c, 1, 63, 0
4, 101952, Note_on_c, 1, 56, 63
4, 101982, Note_on_c, 1, 56, 0
4, 101984, Note_on_c, 1, 60, 63
4, 102014, Note_on_c, 1, 60, 0
4, 102016, Note_on_c, 1, 63, 63
4, 102046, Note_on_c, 1, 63, 0
4, 102048, Note_on_c, 1, 56, 63
4, 102078, Note_on_c, 1, 56, 0
4, 102080, Note_on_c, 1, 60, 63
4, 102110, Note_on_c, 1, 60, 0
4, 102112, Note_on_c, 1, 63, 63
4, 102142, Note_on_c, 1, 63, 0
4, 102144, Note_on_c, 1, 56, 63
4, 102174, Note_on_c, 1, 56, 0
4, 102176, Note_on_c, 1, 60, 63
4, 102206, Note_on_c, 1, 60, 0
4, 102208, Note_on_c, 1, 63, 63
4, 102238, Note_on_c, 1, 63, 0
4, 102240, Note_on_c, 1, 56, 63
4, 102270, Note_on_c, 1, 56, 0
4, 102272, Note_on_c, 1, 60, 63
4, 102302, Note_on_c, 1, 60, 0
4, 102304, Note_on_c, 1, 63, 63
4, 102334, Note_on_c, 1, 63, 0
4, 102336, Note_on_c, 1, 56, 63
4, 102366, Note_on_c, 1, 56, 0
4, 102368, Note_on_c, 1, 60, 63
4, 102398, Note_on_c, 1, 60, 0
4, 102400, Note_on_c, 1, 63, 63
4, 102430, Note_on_c, 1, 63, 0
4, 102432, Note_on_c, 1, 58, 63
4, 102462, Note_on_c, 1, 58, 0
4, 102464, Note_on_c, 1, 61, 63
4, 102494, Note_on_c, 1, 61, 0
4, 102496, Note_on_c, 1, 67, 63
4, 102526, Note_on_c, 1, 67, 0
4, 102528, Note_on_c, 1, 60, 63
4, 102558, Note_on_c, 1, 60, 0
4, 102560, Note_on_c, 1, 63, 63
4, 102590, Note_on_c, 1, 63, 0
4, 102592, Note_on_c, 1, 68, 63
4, 102622, Note_on_c, 1, 68, 0
4, 102624, Note_on_c, 1, 60, 63
4, 102654, Note_on_c, 1, 60, 0
4, 102656, Note_on_c, 1, 63, 63
4, 102686, Note_on_c, 1, 63, 0
4, 102688, Note_on_c, 1, 68, 63
4, 102718, Note_on_c, 1, 68, 0
4, 102720, Note_on_c, 1, 60, 63
4, 102750, Note_on_c, 1, 60, 0
4, 102752, Note_on_c, 1, 63, 63
4, 102782, Note_on_c, 1, 63, 0
4, 102784, Note_on_c, 1, 68, 63
4, 102814, Note_on_c, 1, 68, 0
4, 102816, Note_on_c, 1, 60, 63
4, 102846, Note_on_c, 1, 60, 0
4, 102848, Note_on_c, 1, 63, 63
4, 102878, Note_on_c, 1, 63, 0
4, 102880, Note_on_c, 1, 68, 63
4, 102910, Note_on_c, 1, 68, 0
4, 102912, Note_on_c, 1, 60, 63
4, 102942, Note_on_c, 1, 60, 0
4, 102944, Note_on_c, 1, 63, 63
4, 102974, Note_on_c, 1, 63, 0
4, 102976, Note_on_c, 1, 68, 63
4, 103006, Note_on_c, 1, 68, 0
4, 103008, Note_on_c, 1, 60, 63
4, 103038, Note_on_c, 1, 60, 0
4, 103040, Note_on_c, 1, 63, 63
4, 103070, Note_on_c, 1, 63, 0
4, 103072, Note_on_c, 1, 68, 63
4, 103102, Note_on_c, 1, 68, 0
4, 103104, Note_on_c, 1, 60, 63
4, 103134, Note_on_c, 1, 60, 0
4, 103136, Note_on_c, 1, 63, 63
4, 103166, Note_on_c, 1, 63, 0
4, 103168, Note_on_c, 1, 68, 63
4, 103198, Note_on_c, 1, 68, 0
4, 103200, Note_on_c, 1, 60, 63
4, 103230, Note_on_c, 1, 60, 0
4, 103232, Note_on_c, 1, 63, 63
4, 103262, Note_on_c, 1, 63, 0
4, 103264, Note_on_c, 1, 68, 63
4, 103294, Note_on_c, 1, 68, 0
4, 103296, Note_on_c, 1, 61, 63
4, 103326, Note_on_c, 1, 61, 0
4, 103328, Note_on_c, 1, 65, 63
4, 103358, Note_on_c, 1, 65, 0
4, 103360, Note_on_c, 1, 68, 63
4, 103390, Note_on_c, 1, 68, 0
4, 103392, Note_on_c, 1, 61, 63
4, 103422, Note_on_c, 1, 61, 0
4, 103424, Note_on_c, 1, 65, 63
4, 103454, Note_on_c, 1, 65, 0
4, 103456, Note_on_c, 1, 68, 63
4, 103486, Note_on_c, 1, 68, 0
4, 103488, Note_on_c, 1, 61, 63
4, 103518, Note_on_c, 1, 61, 0
4, 103520, Note_on_c, 1, 63, 63
4, 103550, Note_on_c, 1, 63, 0
4, 103552, Note_on_c, 1, 67, 63
4, 103582, Note_on_c, 1, 67, 0
4, 103584, Note_on_c, 1, 61, 63
4, 103614, Note_on_c, 1, 61, 0
4, 103616, Note_on_c, 1, 63, 63
4, 103646, Note_on_c, 1, 63, 0
4, 103648, Note_on_c, 1, 67, 63
4, 103678, Note_on_c, 1, 67, 0
4, 103680, Note_on_c, 1, 60, 63
4, 103710, Note_on_c, 1, 60, 0
4, 103712, Note_on_c, 1, 63, 63
4, 103742, Note_on_c, 1, 63, 0
4, 103744, Note_on_c, 1, 68, 63
4, 103774, Note_on_c, 1, 68, 0
4, 103776, Note_on_c, 1, 60, 63
4, 103806, Note_on_c, 1, 60, 0
4, 103808, Note_on_c, 1, 63, 63
4, 103838, Note_on_c, 1, 63, 0
4, 103840, Note_on_c, 1, 68, 63
4, 103870, Note_on_c, 1, 68, 0
4, 103872, Note_on_c, 1, 58, 63
4, 103902, Note_on_c, 1, 58, 0
4, 103904, Note_on_c, 1, 61, 63
4, 103934, Note_on_c, 1, 61, 0
4, 103936, Note_on_c, 1, 67, 63
4, 103966, Note_on_c, 1, 67, 0
4, 103968, Note_on_c, 1, 58, 63
4, 103998, Note_on_c, 1, 58, 0
4, 104000, Note_on_c, 1, 61, 63
4, 104030, Note_on_c, 1, 61, 0
4, 104032, Note_on_c, 1, 67, 63
4, 104062, Note_on_c, 1, 67, 0
4, 104064, Note_on_c, 1, 56, 63
4, 104153, Note_on_c, 1, 56, 0
4, 104544, Note_on_c, 1, 67, 63
4, 104544, Note_on_c, 1, 63, 63
4, 104677, Note_on_c, 1, 67, 0
4, 104677, Note_on_c, 1, 63, 0
4, 104832, Note_on_c, 1, 51, 63
4, 104862, Note_on_c, 1, 51, 0
4, 104864, Note_on_c, 1, 55, 63
4, 104894, Note_on_c, 1, 55, 0
4, 104896, Note_on_c, 1, 58, 63
4, 104926, Note_on_c, 1, 58, 0
4, 104928, Note_on_c, 1, 51, 63
4, 104958, Note_on_c, 1, 51, 0
4, 104960, Note_on_c, 1, 55, 63
4, 104990, Note_on_c, 1, 55, 0
4, 104992, Note_on_c, 1, 58, 63
4, 105022, Note_on_c, 1, 58, 0
4, 105024, Note_on_c, 1, 51, 63
4, 105054, Note_on_c, 1, 51, 0
4, 105056, Note_on_c, 1, 55, 63
4, 105086, Note_on_c, 1, 55, 0
4, 105088, Note_on_c, 1, 58, 63
4, 105118, Note_on_c, 1, 58, 0
4, 105120, Note_on_c, 1, 51, 63
4, 105150, Note_on_c, 1, 51, 0
4, 105152, Note_on_c, 1, 56, 63
4, 105182, Note_on_c, 1, 56, 0
4, 105184, Note_on_c, 1, 60, 63
4, 105214, Note_on_c, 1, 60, 0
4, 105216, Note_on_c, 1, 51, 63
4, 105246, Note_on_c, 1, 51, 0
4, 105248, Note_on_c, 1, 58, 63
4, 105278, Note_on_c, 1, 58, 0
4, 105280, Note_on_c, 1, 61, 63
4, 105310, Note_on_c, 1, 61, 0
4, 105312, Note_on_c, 1, 51, 63
4, 105342, Note_on_c, 1, 51, 0
4, 105344, Note_on_c, 1, 58, 63
4, 105374, Note_on_c, 1, 58, 0
4, 105376, Note_on_c, 1, 61, 63
4, 105406, Note_on_c, 1, 61, 0
4, 105408, Note_on_c, 1, 51, 63
4, 105438, Note_on_c, 1, 51, 0
4, 105440, Note_on_c, 1, 58, 63
4, 105470, Note_on_c, 1, 58, 0
4, 105472, Note_on_c, 1, 61, 63
4, 105502, Note_on_c, 1, 61, 0
4, 105504, Note_on_c, 1, 51, 63
4, 105534, Note_on_c, 1, 51, 0
4, 105536, Note_on_c, 1, 56, 63
4, 105566, Note_on_c, 1, 56, 0
4, 105568, Note_on_c, 1, 60, 63
4, 105598, Note_on_c, 1, 60, 0
4, 105600, Note_on_c, 1, 51, 63
4, 105630, Note_on_c, 1, 51, 0
4, 105632, Note_on_c, 1, 55, 63
4, 105662, Note_on_c, 1, 55, 0
4, 105664, Note_on_c, 1, 58, 63
4, 105694, Note_on_c, 1, 58, 0
4, 105696, Note_on_c, 1, 51, 63
4, 105726, Note_on_c, 1, 51, 0
4, 105728, Note_on_c, 1, 55, 63
4, 105758, Note_on_c, 1, 55, 0
4, 105760, Note_on_c, 1, 58, 63
4, 105790, Note_on_c, 1, 58, 0
4, 105792, Note_on_c, 1, 51, 63
4, 105822, Note_on_c, 1, 51, 0
4, 105824, Note_on_c, 1, 55, 63
4, 105854, Note_on_c, 1, 55, 0
4, 105856, Note_on_c, 1, 58, 63
4, 105886, Note_on_c, 1, 58, 0
4, 105888, Note_on_c, 1, 51, 63
4, 105918, Note_on_c, 1, 51, 0
4, 105920, Note_on_c, 1, 56, 63
4, 105950, Note_on_c, 1, 56, 0
4, 105952, Note_on_c, 1, 60, 63
4, 105982, Note_on_c, 1, 60, 0
4, 105984, Note_on_c, 1, 51, 63
4, 106014, Note_on_c, 1, 51, 0
4, 106016, Note_on_c, 1, 58, 63
4, 106046, Note_on_c, 1, 58, 0
4, 106048, Note_on_c, 1, 61, 63
4, 106078, Note_on_c, 1, 61, 0
4, 106080, Note_on_c, 1, 51, 63
4, 106110, Note_on_c, 1, 51, 0
4, 106112, Note_on_c, 1, 58, 63
4, 106142, Note_on_c, 1, 58, 0
4, 106144, Note_on_c, 1, 61, 63
4, 106174, Note_on_c, 1, 61, 0
4, 106176, Note_on_c, 1, 51, 63
4, 106206, Note_on_c, 1, 51, 0
4, 106208, Note_on_c, 1, 58, 63
4, 106238, Note_on_c, 1, 58, 0
4, 106240, Note_on_c, 1, 61, 63
4, 106270, Note_on_c, 1, 61, 0
4, 106272, Note_on_c, 1, 51, 63
4, 106302, Note_on_c, 1, 51, 0
4, 106304, Note_on_c, 1, 56, 63
4, 106334, Note_on_c, 1, 56, 0
4, 106336, Note_on_c, 1, 60, 63
4, 106366, Note_on_c, 1, 60, 0
4, 106368, Note_on_c, 1, 51, 63
4, 106398, Note_on_c, 1, 51, 0
4, 106400, Note_on_c, 1, 55, 65
4, 106430, Note_on_c, 1, 55, 0
4, 106432, Note_on_c, 1, 58, 68
4, 106462, Note_on_c, 1, 58, 0
4, 106464, Note_on_c, 1, 51, 71
4, 106494, Note_on_c, 1, 51, 0
4, 106496, Note_on_c, 1, 55, 74
4, 106526, Note_on_c, 1, 55, 0
4, 106528, Note_on_c, 1, 58, 77
4, 106558, Note_on_c, 1, 58, 0
4, 106560, Note_on_c, 1, 52, 80
4, 106590, Note_on_c, 1, 52, 0
4, 106592, Note_on_c, 1, 55, 84
4, 106622, Note_on_c, 1, 55, 0
4, 106624, Note_on_c, 1, 58, 84
4, 106654, Note_on_c, 1, 58, 0
4, 106656, Note_on_c, 1, 53, 84
4, 106686, Note_on_c, 1, 53, 0
4, 106688, Note_on_c, 1, 55, 84
4, 106718, Note_on_c, 1, 55, 0
4, 106720, Note_on_c, 1, 56, 84
4, 106750, Note_on_c, 1, 56, 0
4, 106752, Note_on_c, 1, 49, 84
4, 106929, Note_on_c, 1, 49, 0
4, 106944, Note_on_c, 1, 51, 84
4, 107121, Note_on_c, 1, 51, 0
4, 107136, Note_on_c, 1, 56, 77
4, 107225, Note_on_c, 1, 56, 0
4, 107328, Note_on_c, 1, 58, 77
4, 107328, Note_on_c, 1, 51, 77
4, 107417, Note_on_c, 1, 58, 0
4, 107417, Note_on_c, 1, 51, 0
4, 107520, Note_on_c, 1, 60, 77
4, 107520, Note_on_c, 1, 56, 77
4, 107609, Note_on_c, 1, 60, 0
4, 107609, Note_on_c, 1, 56, 0
4, 107712, Note_on_c, 1, 58, 77
4, 107712, Note_on_c, 1, 51, 77
4, 107801, Note_on_c, 1, 58, 0
4, 107801, Note_on_c, 1, 51, 0
4, 107904, Note_on_c, 1, 60, 77
4, 107904, Note_on_c, 1, 56, 77
4, 108169, Note_on_c, 1, 60, 0
4, 108169, Note_on_c, 1, 56, 0
4, 108192, Note_on_c, 1, 61, 77
4, 108192, Note_on_c, 1, 58, 77
4, 108281, Note_on_c, 1, 61, 0
4, 108281, Note_on_c, 1, 58, 0
4, 108288, Note_on_c, 1, 63, 77
4, 108288, Note_on_c, 1, 60, 77
4, 108377, Note_on_c, 1, 63, 0
4, 108377, Note_on_c, 1, 60, 0
4, 108672, Note_on_c, 1, 49, 77
4, 108849, Note_on_c, 1, 49, 0
4, 108864, Note_on_c, 1, 51, 77
4, 109041, Note_on_c, 1, 51, 0
4, 109056, Note_on_c, 1, 60, 77
4, 109056, Note_on_c, 1, 56, 77
4, 109321, Note_on_c, 1, 60, 0
4, 109321, Note_on_c, 1, 56, 0
4, 109344, Note_on_c, 1, 61, 77
4, 109344, Note_on_c, 1, 58, 77
4, 109433, Note_on_c, 1, 61, 0
4, 109433, Note_on_c, 1, 58, 0
4, 109440, Note_on_c, 1, 63, 77
4, 109440, Note_on_c, 1, 60, 77
4, 109529, Note_on_c, 1, 63, 0
4, 109529, Note_on_c, 1, 60, 0
4, 109824, Note_on_c, 1, 49, 77
4, 110001, Note_on_c, 1, 49, 0
4, 110016, Note_on_c, 1, 51, 77
4, 110193, Note_on_c, 1, 51, 0
4, 110208, Note_on_c, 1, 56, 84
4, 110238, Note_on_c, 1, 56, 0
4, 110240, Note_on_c, 1, 60, 84
4, 110270, Note_on_c, 1, 60, 0
4, 110272, Note_on_c, 1, 58, 84
4, 110302, Note_on_c, 1, 58, 0
4, 110304, Note_on_c, 1, 56, 84
4, 110334, Note_on_c, 1, 56, 0
4, 110336, Note_on_c, 1, 55, 84
4, 110366, Note_on_c, 1, 55, 0
4, 110368, Note_on_c, 1, 53, 84
4, 110398, Note_on_c, 1, 53, 0
4, 110400, Note_on_c, 1, 51, 84
4, 110430, Note_on_c, 1, 51, 0
4, 110432, Note_on_c, 1, 49, 84
4, 110462, Note_on_c, 1, 49, 0
4, 110464, Note_on_c, 1, 48, 84
4, 110494, Note_on_c, 1, 48, 0
4, 110496, Note_on_c, 1, 49, 84
4, 110519, Note_on_c, 1, 49, 0
4, 110520, Note_on_c, 1, 51, 84
4, 110543, Note_on_c, 1, 51, 0
4, 110544, Note_on_c, 1, 53, 84
4, 110567, Note_on_c, 1, 53, 0
4, 110568, Note_on_c, 1, 55, 84
4, 110591, Note_on_c, 1, 55, 0
4, 110592, Note_on_c, 1, 56, 84
4, 110622, Note_on_c, 1, 56, 0
4, 110624, Note_on_c, 1, 60, 84
4, 110654, Note_on_c, 1, 60, 0
4, 110656, Note_on_c, 1, 58, 84
4, 110686, Note_on_c, 1, 58, 0
4, 110688, Note_on_c, 1, 56, 84
4, 110718, Note_on_c, 1, 56, 0
4, 110720, Note_on_c, 1, 55, 84
4, 110750, Note_on_c, 1, 55, 0
4, 110752, Note_on_c, 1, 53, 84
4, 110782, Note_on_c, 1, 53, 0
4, 110784, Note_on_c, 1, 51, 84
4, 110814, Note_on_c, 1, 51, 0
4, 110816, Note_on_c, 1, 49, 84
4, 110846, Note_on_c, 1, 49, 0
4, 110848, Note_on_c, 1, 48, 84
4, 110878, Note_on_c, 1, 48, 0
4, 110880, Note_on_c, 1, 49, 84
4, 110903, Note_on_c, 1, 49, 0
4, 110904, Note_on_c, 1, 51, 84
4, 110927, Note_on_c, 1, 51, 0
4, 110928, Note_on_c, 1, 53, 84
4, 110951, Note_on_c, 1, 53, 0
4, 110952, Note_on_c, 1, 55, 84
4, 110975, Note_on_c, 1, 55, 0
4, 110976, Note_on_c, 1, 56, 84
4, 111006, Note_on_c, 1, 56, 0
4, 111008, Note_on_c, 1, 60, 84
4, 111038, Note_on_c, 1, 60, 0
4, 111040, Note_on_c, 1, 58, 84
4, 111070, Note_on_c, 1, 58, 0
4, 111072, Note_on_c, 1, 56, 84
4, 111102, Note_on_c, 1, 56, 0
4, 111104, Note_on_c, 1, 55, 84
4, 111134, Note_on_c, 1, 55, 0
4, 111136, Note_on_c, 1, 53, 84
4, 111166, Note_on_c, 1, 53, 0
4, 111168, Note_on_c, 1, 51, 84
4, 111198, Note_on_c, 1, 51, 0
4, 111200, Note_on_c, 1, 49, 84
4, 111230, Note_on_c, 1, 49, 0
4, 111232, Note_on_c, 1, 48, 84
4, 111262, Note_on_c, 1, 48, 0
4, 111264, Note_on_c, 1, 56, 84
4, 111294, Note_on_c, 1, 56, 0
4, 111296, Note_on_c, 1, 55, 84
4, 111326, Note_on_c, 1, 55, 0
4, 111328, Note_on_c, 1, 53, 84
4, 111358, Note_on_c, 1, 53, 0
4, 111360, Note_on_c, 1, 51, 84
4, 111390, Note_on_c, 1, 51, 0
4, 111392, Note_on_c, 1, 49, 84
4, 111422, Note_on_c, 1, 49, 0
4, 111424, Note_on_c, 1, 48, 84
4, 111454, Note_on_c, 1, 48, 0
4, 111456, Note_on_c, 1, 56, 84
4, 111486, Note_on_c, 1, 56, 0
4, 111488, Note_on_c, 1, 55, 84
4, 111518, Note_on_c, 1, 55, 0
4, 111520, Note_on_c, 1, 53, 84
4, 111550, Note_on_c, 1, 53, 0
4, 111552, Note_on_c, 1, 51, 84
4, 111582, Note_on_c, 1, 51, 0
4, 111584, Note_on_c, 1, 49, 84
4, 111614, Note_on_c, 1, 49, 0
4, 111616, Note_on_c, 1, 48, 84
4, 111646, Note_on_c, 1, 48, 0
4, 111648, Note_on_c, 1, 56, 84
4, 111715, Note_on_c, 1, 56, 0
4, 111720, Note_on_c, 1, 48, 84
4, 111743, Note_on_c, 1, 48, 0
4, 111744, Note_on_c, 1, 51, 84
4, 111759, Note_on_c, 1, 51, 0
4, 111760, Note_on_c, 1, 49, 84
4, 111775, Note_on_c, 1, 49, 0
4, 111776, Note_on_c, 1, 51, 84
4, 111791, Note_on_c, 1, 51, 0
4, 111792, Note_on_c, 1, 49, 84
4, 111807, Note_on_c, 1, 49, 0
4, 111808, Note_on_c, 1, 51, 84
4, 111823, Note_on_c, 1, 51, 0
4, 111824, Note_on_c, 1, 49, 84
4, 111839, Note_on_c, 1, 49, 0
4, 111840, Note_on_c, 1, 51, 84
4, 111855, Note_on_c, 1, 51, 0
4, 111856, Note_on_c, 1, 49, 84
4, 111871, Note_on_c, 1, 49, 0
4, 111872, Note_on_c, 1, 51, 84
4, 111887, Note_on_c, 1, 51, 0
4, 111888, Note_on_c, 1, 49, 84
4, 111903, Note_on_c, 1, 49, 0
4, 111904, Note_on_c, 1, 48, 84
4, 111919, Note_on_c, 1, 48, 0
4, 111920, Note_on_c, 1, 49, 84
4, 111935, Note_on_c, 1, 49, 0
4, 111936, Note_on_c, 1, 51, 84
4, 112025, Note_on_c, 1, 51, 0
4, 112032, Note_on_c, 1, 51, 79
4, 112121, Note_on_c, 1, 51, 0
4, 112128, Note_on_c, 1, 56, 75
4, 112158, Note_on_c, 1, 56, 0
4, 112160, Note_on_c, 1, 60, 74
4, 112190, Note_on_c, 1, 60, 0
4, 112192, Note_on_c, 1, 63, 72
4, 112222, Note_on_c, 1, 63, 0
4, 112224, Note_on_c, 1, 56, 71
4, 112254, Note_on_c, 1, 56, 0
4, 112256, Note_on_c, 1, 60, 70
4, 112286, Note_on_c, 1, 60, 0
4, 112288, Note_on_c, 1, 63, 69
4, 112318, Note_on_c, 1, 63, 0
4, 112320, Note_on_c, 1, 56, 67
4, 112350, Note_on_c, 1, 56, 0
4, 112352, Note_on_c, 1, 60, 66
4, 112382, Note_on_c, 1, 60, 0
4, 112384, Note_on_c, 1, 63, 65
4, 112414, Note_on_c, 1, 63, 0
4, 112416, Note_on_c, 1, 56, 63
4, 112446, Note_on_c, 1, 56, 0
4, 112448, Note_on_c, 1, 61, 63
4, 112478, Note_on_c, 1, 61, 0
4, 112480, Note_on_c, 1, 67, 63
4, 112510, Note_on_c, 1, 67, 0
4, 112512, Note_on_c, 1, 56, 63
4, 112542, Note_on_c, 1, 56, 0
4, 112544, Note_on_c, 1, 60, 63
4, 112574, Note_on_c, 1, 60, 0
4, 112576, Note_on_c, 1, 63, 63
4, 112606, Note_on_c, 1, 63, 0
4, 112608, Note_on_c, 1, 56, 63
4, 112638, Note_on_c, 1, 56, 0
4, 112640, Note_on_c, 1, 60, 63
4, 112670, Note_on_c, 1, 60, 0
4, 112672, Note_on_c, 1, 63, 63
4, 112702, Note_on_c, 1, 63, 0
4, 112704, Note_on_c, 1, 56, 63
4, 112734, Note_on_c, 1, 56, 0
4, 112736, Note_on_c, 1, 60, 63
4, 112766, Note_on_c, 1, 60, 0
4, 112768, Note_on_c, 1, 63, 63
4, 112798, Note_on_c, 1, 63, 0
4, 112800, Note_on_c, 1, 56, 63
4, 112830, Note_on_c, 1, 56, 0
4, 112832, Note_on_c, 1, 61, 63
4, 112862, Note_on_c, 1, 61, 0
4, 112864, Note_on_c, 1, 67, 63
4, 112894, Note_on_c, 1, 67, 0
4, 112896, Note_on_c, 1, 56, 63
4, 112926, Note_on_c, 1, 56, 0
4, 112928, Note_on_c, 1, 60, 63
4, 112958, Note_on_c, 1, 60, 0
4, 112960, Note_on_c, 1, 63, 63
4, 112990, Note_on_c, 1, 63, 0
4, 112992, Note_on_c, 1, 56, 63
4, 113022, Note_on_c, 1, 56, 0
4, 113024, Note_on_c, 1, 60, 63
4, 113054, Note_on_c, 1, 60, 0
4, 113056, Note_on_c, 1, 63, 63
4, 113086, Note_on_c, 1, 63, 0
4, 113088, Note_on_c, 1, 56, 63
4, 113118, Note_on_c, 1, 56, 0
4, 113120, Note_on_c, 1, 60, 63
4, 113150, Note_on_c, 1, 60, 0
4, 113152, Note_on_c, 1, 63, 63
4, 113182, Note_on_c, 1, 63, 0
4, 113184, Note_on_c, 1, 56, 63
4, 113214, Note_on_c, 1, 56, 0
4, 113216, Note_on_c, 1, 61, 63
4, 113246, Note_on_c, 1, 61, 0
4, 113248, Note_on_c, 1, 67, 63
4, 113278, Note_on_c, 1, 67, 0
4, 113280, Note_on_c, 1, 56, 63
4, 113310, Note_on_c, 1, 56, 0
4, 113312, Note_on_c, 1, 60, 63
4, 113342, Note_on_c, 1, 60, 0
4, 113344, Note_on_c, 1, 63, 63
4, 113374, Note_on_c, 1, 63, 0
4, 113376, Note_on_c, 1, 56, 63
4, 113406, Note_on_c, 1, 56, 0
4, 113408, Note_on_c, 1, 60, 63
4, 113438, Note_on_c, 1, 60, 0
4, 113440, Note_on_c, 1, 63, 63
4, 113470, Note_on_c, 1, 63, 0
4, 113472, Note_on_c, 1, 56, 63
4, 113502, Note_on_c, 1, 56, 0
4, 113504, Note_on_c, 1, 60, 63
4, 113534, Note_on_c, 1, 60, 0
4, 113536, Note_on_c, 1, 63, 63
4, 113566, Note_on_c, 1, 63, 0
4, 113568, Note_on_c, 1, 56, 63
4, 113598, Note_on_c, 1, 56, 0
4, 113600, Note_on_c, 1, 61, 63
4, 113630, Note_on_c, 1, 61, 0
4, 113632, Note_on_c, 1, 67, 63
4, 113662, Note_on_c, 1, 67, 0
4, 113664, Note_on_c, 1, 56, 63
4, 113694, Note_on_c, 1, 56, 0
4, 113696, Note_on_c, 1, 60, 63
4, 113726, Note_on_c, 1, 60, 0
4, 113728, Note_on_c, 1, 63, 63
4, 113758, Note_on_c, 1, 63, 0
4, 113760, Note_on_c, 1, 56, 63
4, 113790, Note_on_c, 1, 56, 0
4, 113792, Note_on_c, 1, 60, 63
4, 113822, Note_on_c, 1, 60, 0
4, 113824, Note_on_c, 1, 63, 63
4, 113854, Note_on_c, 1, 63, 0
4, 113856, Note_on_c, 1, 56, 63
4, 113886, Note_on_c, 1, 56, 0
4, 113888, Note_on_c, 1, 60, 63
4, 113918, Note_on_c, 1, 60, 0
4, 113920, Note_on_c, 1, 63, 63
4, 113950, Note_on_c, 1, 63, 0
4, 113952, Note_on_c, 1, 56, 63
4, 113982, Note_on_c, 1, 56, 0
4, 113984, Note_on_c, 1, 61, 63
4, 114014, Note_on_c, 1, 61, 0
4, 114016, Note_on_c, 1, 67, 63
4, 114046, Note_on_c, 1, 67, 0
4, 114048, Note_on_c, 1, 56, 63
4, 114078, Note_on_c, 1, 56, 0
4, 114080, Note_on_c, 1, 60, 63
4, 114110, Note_on_c, 1, 60, 0
4, 114112, Note_on_c, 1, 63, 63
4, 114142, Note_on_c, 1, 63, 0
4, 114144, Note_on_c, 1, 56, 63
4, 114174, Note_on_c, 1, 56, 0
4, 114176, Note_on_c, 1, 60, 63
4, 114206, Note_on_c, 1, 60, 0
4, 114208, Note_on_c, 1, 63, 63
4, 114238, Note_on_c, 1, 63, 0
4, 114240, Note_on_c, 1, 56, 63
4, 114270, Note_on_c, 1, 56, 0
4, 114272, Note_on_c, 1, 60, 63
4, 114302, Note_on_c, 1, 60, 0
4, 114304, Note_on_c, 1, 63, 63
4, 114334, Note_on_c, 1, 63, 0
4, 114336, Note_on_c, 1, 56, 63
4, 114366, Note_on_c, 1, 56, 0
4, 114368, Note_on_c, 1, 61, 63
4, 114398, Note_on_c, 1, 61, 0
4, 114400, Note_on_c, 1, 67, 63
4, 114430, Note_on_c, 1, 67, 0
4, 114432, Note_on_c, 1, 56, 63
4, 114462, Note_on_c, 1, 56, 0
4, 114464, Note_on_c, 1, 60, 63
4, 114494, Note_on_c, 1, 60, 0
4, 114496, Note_on_c, 1, 63, 63
4, 114526, Note_on_c, 1, 63, 0
4, 114528, Note_on_c, 1, 56, 63
4, 114558, Note_on_c, 1, 56, 0
4, 114560, Note_on_c, 1, 60, 63
4, 114590, Note_on_c, 1, 60, 0
4, 114592, Note_on_c, 1, 63, 63
4, 114622, Note_on_c, 1, 63, 0
4, 114624, Note_on_c, 1, 56, 63
4, 114654, Note_on_c, 1, 56, 0
4, 114656, Note_on_c, 1, 60, 63
4, 114686, Note_on_c, 1, 60, 0
4, 114688, Note_on_c, 1, 63, 63
4, 114718, Note_on_c, 1, 63, 0
4, 114720, Note_on_c, 1, 56, 63
4, 114750, Note_on_c, 1, 56, 0
4, 114752, Note_on_c, 1, 61, 63
4, 114782, Note_on_c, 1, 61, 0
4, 114784, Note_on_c, 1, 67, 63
4, 114814, Note_on_c, 1, 67, 0
4, 114816, Note_on_c, 1, 60, 63
4, 114816, Note_on_c, 1, 56, 63
4, 114905, Note_on_c, 1, 60, 0
4, 114905, Note_on_c, 1, 56, 0
4, 115104, Note_on_c, 1, 48, 56
4, 115104, Note_on_c, 1, 44, 56
4, 115193, Note_on_c, 1, 48, 0
4, 115193, Note_on_c, 1, 44, 0
4, 115200, Note_on_c, 1, 48, 56
4, 115200, Note_on_c, 1, 44, 56
4, 115333, Note_on_c, 1, 48, 0
4, 115333, Note_on_c, 1, 44, 0
4, 115488, Note_on_c, 1, 48, 4
4, 115488, Note_on_c, 1, 44, 4
4, 115577, Note_on_c, 1, 48, 0
4, 115577, Note_on_c, 1, 44, 0
4, 115584, End_track
5, 0, Start_track
5, 0, Program_c, 1, 0
5, 0, Control_c, 1, 7, 127
5, 0, Control_c, 1, 10, 64
5, 4320, Note_on_c, 1, 61, 64
5, 4409, Note_on_c, 1, 61, 0
5, 4416, Note_on_c, 1, 60, 64
5, 4505, Note_on_c, 1, 60, 0
5, 4512, Note_on_c, 1, 58, 64
5, 4601, Note_on_c, 1, 58, 0
5, 12864, Note_on_c, 1, 58, 77
5, 13041, Note_on_c, 1, 58, 0
5, 13056, Note_on_c, 1, 60, 71
5, 13337, Note_on_c, 1, 60, 0
5, 25440, Note_on_c, 1, 61, 64
5, 25529, Note_on_c, 1, 61, 0
5, 25536, Note_on_c, 1, 60, 64
5, 25625, Note_on_c, 1, 60, 0
5, 25632, Note_on_c, 1, 58, 64
5, 25721, Note_on_c, 1, 58, 0
5, 33984, Note_on_c, 1, 58, 77
5, 34161, Note_on_c, 1, 58, 0
5, 34176, Note_on_c, 1, 60, 71
5, 34457, Note_on_c, 1, 60, 0
5, 64608, Note_on_c, 1, 61, 63
5, 64697, Note_on_c, 1, 61, 0
5, 64704, Note_on_c, 1, 60, 63
5, 64793, Note_on_c, 1, 60, 0
5, 64800, Note_on_c, 1, 58, 63
5, 64889, Note_on_c, 1, 58, 0
5, 70368, Note_on_c, 1, 61, 63
5, 70457, Note_on_c, 1, 61, 0
5, 70464, Note_on_c, 1, 60, 63
5, 70553, Note_on_c, 1, 60, 0
5, 70560, Note_on_c, 1, 58, 63
5, 70649, Note_on_c, 1, 58, 0
5, 72288, Note_on_c, 1, 61, 63
5, 72377, Note_on_c, 1, 61, 0
5, 72384, Note_on_c, 1, 60, 63
5, 72473, Note_on_c, 1, 60, 0
5, 72480, Note_on_c, 1, 58, 63
5, 72569, Note_on_c, 1, 58, 0
5, 73440, Note_on_c, 1, 61, 63
5, 73529, Note_on_c, 1, 61, 0
5, 73536, Note_on_c, 1, 60, 63
5, 73625, Note_on_c, 1, 60, 0
5, 73632, Note_on_c, 1, 58, 63
5, 73721, Note_on_c, 1, 58, 0
5, 101088, Note_on_c, 1, 61, 63
5, 101177, Note_on_c, 1, 61, 0
5, 101184, Note_on_c, 1, 60, 63
5, 101273, Note_on_c, 1, 60, 0
5, 101280, Note_on_c, 1, 58, 63
5, 101369, Note_on_c, 1, 58, 0
5, 106848, Note_on_c, 1, 61, 63
5, 106937, Note_on_c, 1, 61, 0
5, 106944, Note_on_c, 1, 60, 63
5, 107033, Note_on_c, 1, 60, 0
5, 107040, Note_on_c, 1, 58, 63
5, 107129, Note_on_c, 1, 58, 0
5, 108768, Note_on_c, 1, 61, 63
5, 108857, Note_on_c, 1, 61, 0
5, 108864, Note_on_c, 1, 60, 63
5, 108953, Note_on_c, 1, 60, 0
5, 108960, Note_on_c, 1, 58, 63
5, 109049, Note_on_c, 1, 58, 0
5, 109920, Note_on_c, 1, 61, 63
5, 110009, Note_on_c, 1, 61, 0
5, 110016, Note_on_c, 1, 60, 63
5, 110105, Note_on_c, 1, 60, 0
5, 110112, Note_on_c, 1, 58, 63
5, 110201, Note_on_c, 1, 58, 0
5, 115584, End_track
6, 0, Start_track
6, 0, Title_t, "Sonata I   Haydn  "
6, 0, End_track
0, 0, End_of_file
