0, 0, Header, 1, 3, 256
1, 0, Start_track
1, 0, Time_signature, 3, 2, 24, 8
1, 0, Key_signature, -1, "major"
1, 0, Tempo, 1034482
1, 0, Key_signature, -1, "major"
1, 0, Tempo, 1034482
1, 1664, Tempo, 1200000
1, 1984, Tempo, 1016949
1, 3328, Tempo, 1090909
1, 3424, Tempo, 1224489
1, 3808, Tempo, 1034482
1, 4693, Tempo, 1200000
1, 5376, Tempo, 1016949
1, 6656, Tempo, 1000000
1, 6912, Tempo, 967741
1, 12736, Tempo, 1000000
1, 13056, Tempo, 1034482
1, 13888, Tempo, 967741
1, 18432, Tempo, 1052631
1, 22272, Tempo, 1034482
1, 22528, Tempo, 1016949
1, 22784, Tempo, 1000000
1, 23296, Tempo, 983606
1, 23552, Tempo, 967741
1, 25344, Tempo, 1016949
1, 27008, Tempo, 1111111
1, 27392, Tempo, 1016949
1, 31872, Tempo, 1000000
1, 40768, Tempo, 967741
1, 46848, Tempo, 1052631
1, 47104, Tempo, 1090909
1, 47616, Tempo, 1153846
1, 48064, Tempo, 1250000
1, 48065, End_track
2, 0, Start_track
2, 0, Control_c, 1, 121, 0
2, 0, Control_c, 1, 64, 0
2, 0, Control_c, 1, 91, 48
2, 0, Control_c, 1, 10, 51
2, 0, Control_c, 1, 7, 100
2, 0, Program_c, 1, 0
2, 0, Control_c, 1, 121, 0
2, 0, Control_c, 1, 64, 0
2, 0, Control_c, 1, 91, 48
2, 0, Control_c, 1, 10, 51
2, 0, Control_c, 1, 7, 100
2, 0, Title_t, "Piano"
2, 704, Note_on_c, 1, 57, 66
2, 736, Note_on_c, 1, 57, 0
2, 736, Note_on_c, 1, 60, 82
2, 768, Note_on_c, 1, 60, 0
2, 768, Note_on_c, 1, 65, 115
2, 768, Note_on_c, 1, 41, 78
2, 787, Note_on_c, 1, 45, 78
2, 806, Note_on_c, 1, 48, 78
2, 825, Note_on_c, 1, 53, 78
2, 1024, Note_on_c, 1, 53, 0
2, 1024, Note_on_c, 1, 48, 0
2, 1024, Note_on_c, 1, 45, 0
2, 1024, Note_on_c, 1, 41, 0
2, 1024, Note_on_c, 1, 53, 62
2, 1024, Note_on_c, 1, 57, 62
2, 1056, Note_on_c, 1, 65, 0
2, 1056, Note_on_c, 1, 60, 65
2, 1088, Note_on_c, 1, 60, 0
2, 1088, Note_on_c, 1, 65, 85
2, 1120, Note_on_c, 1, 65, 0
2, 1120, Note_on_c, 1, 69, 89
2, 1152, Note_on_c, 1, 69, 0
2, 1152, Note_on_c, 1, 72, 87
2, 1248, Note_on_c, 1, 72, 0
2, 1248, Note_on_c, 1, 69, 70
2, 1280, Note_on_c, 1, 57, 0
2, 1280, Note_on_c, 1, 53, 0
2, 1280, Note_on_c, 1, 69, 0
2, 1280, Note_on_c, 1, 72, 80
2, 1280, Note_on_c, 1, 53, 70
2, 1280, Note_on_c, 1, 58, 70
2, 1280, Note_on_c, 1, 64, 70
2, 1344, Note_on_c, 1, 72, 0
2, 1344, Note_on_c, 1, 70, 75
2, 1408, Note_on_c, 1, 70, 0
2, 1408, Note_on_c, 1, 67, 69
2, 1472, Note_on_c, 1, 67, 0
2, 1472, Note_on_c, 1, 64, 67
2, 1536, Note_on_c, 1, 64, 0
2, 1536, Note_on_c, 1, 58, 0
2, 1536, Note_on_c, 1, 53, 0
2, 1536, Note_on_c, 1, 64, 0
2, 1536, Note_on_c, 1, 65, 75
2, 1536, Note_on_c, 1, 53, 56
2, 1536, Note_on_c, 1, 57, 56
2, 1536, Note_on_c, 1, 60, 56
2, 1600, Note_on_c, 1, 65, 0
2, 1600, Note_on_c, 1, 67, 81
2, 1621, Note_on_c, 1, 67, 0
2, 1621, Note_on_c, 1, 65, 73
2, 1642, Note_on_c, 1, 65, 0
2, 1642, Note_on_c, 1, 64, 70
2, 1664, Note_on_c, 1, 64, 0
2, 1664, Note_on_c, 1, 65, 80
2, 1740, Note_on_c, 1, 65, 0
2, 1760, Note_on_c, 1, 69, 88
2, 1792, Note_on_c, 1, 60, 0
2, 1792, Note_on_c, 1, 57, 0
2, 1792, Note_on_c, 1, 53, 0
2, 1792, Note_on_c, 1, 69, 0
2, 1792, Note_on_c, 1, 60, 61
2, 1984, Note_on_c, 1, 60, 0
2, 2048, Note_on_c, 1, 57, 69
2, 2080, Note_on_c, 1, 57, 0
2, 2080, Note_on_c, 1, 60, 81
2, 2112, Note_on_c, 1, 60, 0
2, 2112, Note_on_c, 1, 64, 89
2, 2144, Note_on_c, 1, 64, 0
2, 2144, Note_on_c, 1, 65, 81
2, 2176, Note_on_c, 1, 65, 0
2, 2176, Note_on_c, 1, 69, 86
2, 2208, Note_on_c, 1, 69, 0
2, 2208, Note_on_c, 1, 72, 82
2, 2240, Note_on_c, 1, 72, 0
2, 2240, Note_on_c, 1, 76, 84
2, 2272, Note_on_c, 1, 76, 0
2, 2272, Note_on_c, 1, 77, 79
2, 2304, Note_on_c, 1, 77, 0
2, 2304, Note_on_c, 1, 77, 98
2, 2304, Note_on_c, 1, 58, 55
2, 2304, Note_on_c, 1, 62, 55
2, 2368, Note_on_c, 1, 62, 0
2, 2368, Note_on_c, 1, 58, 0
2, 2560, Note_on_c, 1, 70, 54
2, 2560, Note_on_c, 1, 74, 54
2, 2624, Note_on_c, 1, 74, 0
2, 2624, Note_on_c, 1, 70, 0
2, 2624, Note_on_c, 1, 77, 0
2, 2624, Note_on_c, 1, 76, 79
2, 2688, Note_on_c, 1, 76, 0
2, 2688, Note_on_c, 1, 79, 77
2, 2752, Note_on_c, 1, 79, 0
2, 2752, Note_on_c, 1, 77, 72
2, 2816, Note_on_c, 1, 77, 0
2, 2816, Note_on_c, 1, 76, 69
2, 2880, Note_on_c, 1, 76, 0
2, 2880, Note_on_c, 1, 74, 73
2, 2944, Note_on_c, 1, 74, 0
2, 2944, Note_on_c, 1, 72, 73
2, 3008, Note_on_c, 1, 72, 0
2, 3008, Note_on_c, 1, 70, 69
2, 3072, Note_on_c, 1, 70, 0
2, 3072, Note_on_c, 1, 69, 75
2, 3072, Note_on_c, 1, 60, 52
2, 3072, Note_on_c, 1, 65, 52
2, 3136, Note_on_c, 1, 69, 0
2, 3136, Note_on_c, 1, 70, 80
2, 3200, Note_on_c, 1, 70, 0
2, 3200, Note_on_c, 1, 71, 78
2, 3264, Note_on_c, 1, 71, 0
2, 3264, Note_on_c, 1, 72, 78
2, 3285, Note_on_c, 1, 72, 0
2, 3285, Note_on_c, 1, 71, 77
2, 3306, Note_on_c, 1, 71, 0
2, 3306, Note_on_c, 1, 69, 74
2, 3328, Note_on_c, 1, 65, 0
2, 3328, Note_on_c, 1, 60, 0
2, 3328, Note_on_c, 1, 69, 0
2, 3328, Note_on_c, 1, 74, 83
2, 3328, Note_on_c, 1, 60, 58
2, 3328, Note_on_c, 1, 64, 58
2, 3360, Note_on_c, 1, 74, 0
2, 3360, Note_on_c, 1, 72, 74
2, 3392, Note_on_c, 1, 72, 0
2, 3392, Note_on_c, 1, 70, 68
2, 3424, Note_on_c, 1, 70, 0
2, 3424, Note_on_c, 1, 69, 68
2, 3456, Note_on_c, 1, 69, 0
2, 3456, Note_on_c, 1, 67, 75
2, 3456, Note_on_c, 1, 70, 75
2, 3552, Note_on_c, 1, 70, 0
2, 3552, Note_on_c, 1, 67, 0
2, 3552, Note_on_c, 1, 69, 71
2, 3584, Note_on_c, 1, 64, 0
2, 3584, Note_on_c, 1, 60, 0
2, 3584, Note_on_c, 1, 69, 0
2, 3584, Note_on_c, 1, 67, 67
2, 3712, Note_on_c, 1, 67, 0
2, 3808, Note_on_c, 1, 57, 68
2, 3824, Note_on_c, 1, 57, 0
2, 3824, Note_on_c, 1, 60, 84
2, 3840, Note_on_c, 1, 60, 0
2, 3840, Note_on_c, 1, 65, 109
2, 3840, Note_on_c, 1, 41, 80
2, 3859, Note_on_c, 1, 45, 80
2, 3878, Note_on_c, 1, 48, 80
2, 3897, Note_on_c, 1, 53, 80
2, 4096, Note_on_c, 1, 53, 0
2, 4096, Note_on_c, 1, 48, 0
2, 4096, Note_on_c, 1, 45, 0
2, 4096, Note_on_c, 1, 41, 0
2, 4096, Note_on_c, 1, 53, 63
2, 4096, Note_on_c, 1, 57, 63
2, 4128, Note_on_c, 1, 65, 0
2, 4128, Note_on_c, 1, 60, 69
2, 4160, Note_on_c, 1, 60, 0
2, 4160, Note_on_c, 1, 65, 85
2, 4192, Note_on_c, 1, 65, 0
2, 4192, Note_on_c, 1, 69, 91
2, 4224, Note_on_c, 1, 69, 0
2, 4224, Note_on_c, 1, 72, 84
2, 4256, Note_on_c, 1, 72, 0
2, 4256, Note_on_c, 1, 69, 68
2, 4288, Note_on_c, 1, 69, 0
2, 4288, Note_on_c, 1, 77, 88
2, 4320, Note_on_c, 1, 77, 0
2, 4320, Note_on_c, 1, 69, 62
2, 4352, Note_on_c, 1, 57, 0
2, 4352, Note_on_c, 1, 53, 0
2, 4352, Note_on_c, 1, 69, 0
2, 4352, Note_on_c, 1, 72, 82
2, 4352, Note_on_c, 1, 53, 75
2, 4352, Note_on_c, 1, 58, 75
2, 4352, Note_on_c, 1, 64, 75
2, 4384, Note_on_c, 1, 72, 0
2, 4384, Note_on_c, 1, 71, 74
2, 4416, Note_on_c, 1, 71, 0
2, 4416, Note_on_c, 1, 74, 81
2, 4448, Note_on_c, 1, 74, 0
2, 4448, Note_on_c, 1, 72, 69
2, 4480, Note_on_c, 1, 72, 0
2, 4480, Note_on_c, 1, 70, 68
2, 4512, Note_on_c, 1, 70, 0
2, 4512, Note_on_c, 1, 69, 75
2, 4544, Note_on_c, 1, 69, 0
2, 4544, Note_on_c, 1, 70, 75
2, 4576, Note_on_c, 1, 70, 0
2, 4576, Note_on_c, 1, 67, 72
2, 4608, Note_on_c, 1, 64, 0
2, 4608, Note_on_c, 1, 58, 0
2, 4608, Note_on_c, 1, 53, 0
2, 4608, Note_on_c, 1, 67, 0
2, 4608, Note_on_c, 1, 65, 75
2, 4608, Note_on_c, 1, 53, 60
2, 4608, Note_on_c, 1, 57, 60
2, 4672, Note_on_c, 1, 65, 0
2, 4672, Note_on_c, 1, 67, 81
2, 4693, Note_on_c, 1, 67, 0
2, 4693, Note_on_c, 1, 65, 68
2, 4714, Note_on_c, 1, 65, 0
2, 4714, Note_on_c, 1, 64, 75
2, 4736, Note_on_c, 1, 64, 0
2, 4736, Note_on_c, 1, 65, 77
2, 4812, Note_on_c, 1, 65, 0
2, 4832, Note_on_c, 1, 69, 86
2, 4864, Note_on_c, 1, 57, 0
2, 4864, Note_on_c, 1, 53, 0
2, 4864, Note_on_c, 1, 69, 0
2, 4864, Note_on_c, 1, 61, 64
2, 4864, Note_on_c, 1, 33, 64
2, 4864, Note_on_c, 1, 45, 64
2, 5376, Note_on_c, 1, 45, 0
2, 5376, Note_on_c, 1, 33, 0
2, 5376, Note_on_c, 1, 61, 0
2, 5376, Note_on_c, 1, 62, 78
2, 5376, Note_on_c, 1, 34, 73
2, 5376, Note_on_c, 1, 46, 73
2, 5513, Note_on_c, 1, 62, 0
2, 5513, Note_on_c, 1, 64, 82
2, 5522, Note_on_c, 1, 64, 0
2, 5522, Note_on_c, 1, 66, 82
2, 5531, Note_on_c, 1, 66, 0
2, 5531, Note_on_c, 1, 67, 76
2, 5540, Note_on_c, 1, 67, 0
2, 5540, Note_on_c, 1, 69, 80
2, 5549, Note_on_c, 1, 69, 0
2, 5549, Note_on_c, 1, 70, 80
2, 5558, Note_on_c, 1, 70, 0
2, 5558, Note_on_c, 1, 72, 79
2, 5568, Note_on_c, 1, 72, 0
2, 5568, Note_on_c, 1, 74, 78
2, 5577, Note_on_c, 1, 74, 0
2, 5577, Note_on_c, 1, 76, 83
2, 5586, Note_on_c, 1, 76, 0
2, 5586, Note_on_c, 1, 78, 81
2, 5595, Note_on_c, 1, 78, 0
2, 5595, Note_on_c, 1, 79, 82
2, 5604, Note_on_c, 1, 79, 0
2, 5604, Note_on_c, 1, 81, 81
2, 5613, Note_on_c, 1, 81, 0
2, 5613, Note_on_c, 1, 82, 80
2, 5622, Note_on_c, 1, 82, 0
2, 5622, Note_on_c, 1, 84, 81
2, 5632, Note_on_c, 1, 84, 0
2, 5632, Note_on_c, 1, 86, 80
2, 5683, Note_on_c, 1, 86, 0
2, 5760, Note_on_c, 1, 72, 49
2, 5792, Note_on_c, 1, 72, 0
2, 5792, Note_on_c, 1, 70, 67
2, 5888, Note_on_c, 1, 46, 0
2, 5888, Note_on_c, 1, 34, 0
2, 5888, Note_on_c, 1, 70, 0
2, 5888, Note_on_c, 1, 69, 75
2, 5888, Note_on_c, 1, 48, 70
2, 5888, Note_on_c, 1, 58, 70
2, 5920, Note_on_c, 1, 69, 0
2, 5920, Note_on_c, 1, 67, 69
2, 6016, Note_on_c, 1, 67, 0
2, 6016, Note_on_c, 1, 65, 68
2, 6048, Note_on_c, 1, 65, 0
2, 6048, Note_on_c, 1, 64, 70
2, 6144, Note_on_c, 1, 58, 0
2, 6144, Note_on_c, 1, 48, 0
2, 6144, Note_on_c, 1, 64, 0
2, 6144, Note_on_c, 1, 67, 79
2, 6144, Note_on_c, 1, 53, 61
2, 6144, Note_on_c, 1, 58, 61
2, 6400, Note_on_c, 1, 58, 0
2, 6400, Note_on_c, 1, 53, 0
2, 6400, Note_on_c, 1, 67, 0
2, 6400, Note_on_c, 1, 65, 75
2, 6400, Note_on_c, 1, 53, 57
2, 6400, Note_on_c, 1, 57, 57
2, 6451, Note_on_c, 1, 57, 0
2, 6451, Note_on_c, 1, 53, 0
2, 6451, Note_on_c, 1, 65, 0
2, 6592, Note_on_c, 1, 72, 67
2, 6656, Note_on_c, 1, 72, 0
2, 6656, Note_on_c, 1, 74, 79
2, 6720, Note_on_c, 1, 74, 0
2, 6720, Note_on_c, 1, 76, 87
2, 6784, Note_on_c, 1, 76, 0
2, 6784, Note_on_c, 1, 77, 82
2, 6848, Note_on_c, 1, 77, 0
2, 6848, Note_on_c, 1, 79, 85
2, 6912, Note_on_c, 1, 79, 0
2, 6912, Note_on_c, 1, 81, 84
2, 6976, Note_on_c, 1, 71, 49
2, 7040, Note_on_c, 1, 71, 0
2, 7040, Note_on_c, 1, 72, 64
2, 7104, Note_on_c, 1, 72, 0
2, 7104, Note_on_c, 1, 74, 64
2, 7168, Note_on_c, 1, 74, 0
2, 7168, Note_on_c, 1, 72, 54
2, 7232, Note_on_c, 1, 81, 0
2, 7232, Note_on_c, 1, 80, 73
2, 7296, Note_on_c, 1, 80, 0
2, 7296, Note_on_c, 1, 81, 74
2, 7360, Note_on_c, 1, 81, 0
2, 7360, Note_on_c, 1, 82, 80
2, 7424, Note_on_c, 1, 82, 0
2, 7424, Note_on_c, 1, 81, 77
2, 7488, Note_on_c, 1, 81, 0
2, 7488, Note_on_c, 1, 84, 85
2, 7552, Note_on_c, 1, 84, 0
2, 7552, Note_on_c, 1, 83, 80
2, 7616, Note_on_c, 1, 83, 0
2, 7616, Note_on_c, 1, 81, 76
2, 7680, Note_on_c, 1, 81, 0
2, 7680, Note_on_c, 1, 79, 70
2, 7744, Note_on_c, 1, 72, 0
2, 7744, Note_on_c, 1, 71, 56
2, 7808, Note_on_c, 1, 71, 0
2, 7808, Note_on_c, 1, 72, 62
2, 7872, Note_on_c, 1, 72, 0
2, 7872, Note_on_c, 1, 74, 68
2, 7936, Note_on_c, 1, 74, 0
2, 7936, Note_on_c, 1, 72, 58
2, 8000, Note_on_c, 1, 79, 0
2, 8000, Note_on_c, 1, 78, 70
2, 8064, Note_on_c, 1, 78, 0
2, 8064, Note_on_c, 1, 79, 79
2, 8128, Note_on_c, 1, 79, 0
2, 8128, Note_on_c, 1, 81, 83
2, 8192, Note_on_c, 1, 81, 0
2, 8192, Note_on_c, 1, 79, 68
2, 8224, Note_on_c, 1, 79, 0
2, 8224, Note_on_c, 1, 84, 88
2, 8256, Note_on_c, 1, 84, 0
2, 8256, Note_on_c, 1, 88, 84
2, 8288, Note_on_c, 1, 88, 0
2, 8288, Note_on_c, 1, 86, 76
2, 8320, Note_on_c, 1, 86, 0
2, 8320, Note_on_c, 1, 84, 75
2, 8352, Note_on_c, 1, 84, 0
2, 8352, Note_on_c, 1, 83, 69
2, 8384, Note_on_c, 1, 83, 0
2, 8384, Note_on_c, 1, 81, 74
2, 8416, Note_on_c, 1, 81, 0
2, 8416, Note_on_c, 1, 79, 67
2, 8448, Note_on_c, 1, 72, 0
2, 8448, Note_on_c, 1, 79, 0
2, 8448, Note_on_c, 1, 79, 77
2, 8448, Note_on_c, 1, 69, 61
2, 8448, Note_on_c, 1, 72, 61
2, 8512, Note_on_c, 1, 72, 0
2, 8512, Note_on_c, 1, 69, 0
2, 8512, Note_on_c, 1, 68, 56
2, 8512, Note_on_c, 1, 71, 56
2, 8576, Note_on_c, 1, 71, 0
2, 8576, Note_on_c, 1, 68, 0
2, 8576, Note_on_c, 1, 69, 57
2, 8576, Note_on_c, 1, 72, 57
2, 8640, Note_on_c, 1, 72, 0
2, 8640, Note_on_c, 1, 69, 0
2, 8640, Note_on_c, 1, 71, 69
2, 8640, Note_on_c, 1, 74, 69
2, 8704, Note_on_c, 1, 74, 0
2, 8704, Note_on_c, 1, 71, 0
2, 8704, Note_on_c, 1, 79, 0
2, 8704, Note_on_c, 1, 69, 69
2, 8704, Note_on_c, 1, 72, 69
2, 8704, Note_on_c, 1, 78, 69
2, 8704, Note_on_c, 1, 62, 48
2, 8768, Note_on_c, 1, 62, 0
2, 8768, Note_on_c, 1, 63, 59
2, 8832, Note_on_c, 1, 63, 0
2, 8832, Note_on_c, 1, 62, 63
2, 8896, Note_on_c, 1, 62, 0
2, 8896, Note_on_c, 1, 60, 58
2, 8960, Note_on_c, 1, 60, 0
2, 8960, Note_on_c, 1, 78, 0
2, 8960, Note_on_c, 1, 72, 0
2, 8960, Note_on_c, 1, 69, 0
2, 8960, Note_on_c, 1, 67, 70
2, 8960, Note_on_c, 1, 74, 70
2, 8960, Note_on_c, 1, 77, 70
2, 8960, Note_on_c, 1, 59, 57
2, 9024, Note_on_c, 1, 59, 0
2, 9024, Note_on_c, 1, 55, 58
2, 9088, Note_on_c, 1, 55, 0
2, 9088, Note_on_c, 1, 60, 64
2, 9152, Note_on_c, 1, 60, 0
2, 9152, Note_on_c, 1, 77, 0
2, 9152, Note_on_c, 1, 74, 0
2, 9152, Note_on_c, 1, 67, 0
2, 9152, Note_on_c, 1, 72, 71
2, 9152, Note_on_c, 1, 76, 71
2, 9152, Note_on_c, 1, 54, 62
2, 9216, Note_on_c, 1, 54, 0
2, 9216, Note_on_c, 1, 76, 0
2, 9216, Note_on_c, 1, 72, 0
2, 9216, Note_on_c, 1, 72, 73
2, 9216, Note_on_c, 1, 76, 73
2, 9216, Note_on_c, 1, 55, 60
2, 9280, Note_on_c, 1, 76, 0
2, 9280, Note_on_c, 1, 72, 0
2, 9280, Note_on_c, 1, 70, 68
2, 9280, Note_on_c, 1, 73, 68
2, 9344, Note_on_c, 1, 73, 0
2, 9344, Note_on_c, 1, 70, 0
2, 9344, Note_on_c, 1, 71, 80
2, 9344, Note_on_c, 1, 74, 80
2, 9408, Note_on_c, 1, 74, 0
2, 9408, Note_on_c, 1, 71, 0
2, 9408, Note_on_c, 1, 72, 77
2, 9408, Note_on_c, 1, 76, 77
2, 9472, Note_on_c, 1, 55, 0
2, 9472, Note_on_c, 1, 76, 0
2, 9472, Note_on_c, 1, 72, 0
2, 9472, Note_on_c, 1, 71, 71
2, 9472, Note_on_c, 1, 74, 71
2, 9536, Note_on_c, 1, 42, 54
2, 9600, Note_on_c, 1, 42, 0
2, 9600, Note_on_c, 1, 74, 0
2, 9600, Note_on_c, 1, 71, 0
2, 9600, Note_on_c, 1, 43, 62
2, 9664, Note_on_c, 1, 43, 0
2, 9664, Note_on_c, 1, 45, 57
2, 9728, Note_on_c, 1, 45, 0
2, 9728, Note_on_c, 1, 43, 58
2, 9792, Note_on_c, 1, 55, 70
2, 9856, Note_on_c, 1, 43, 0
2, 9856, Note_on_c, 1, 55, 0
2, 9856, Note_on_c, 1, 59, 79
2, 9920, Note_on_c, 1, 59, 0
2, 9920, Note_on_c, 1, 62, 78
2, 9984, Note_on_c, 1, 62, 0
2, 9984, Note_on_c, 1, 65, 86
2, 10048, Note_on_c, 1, 43, 57
2, 10112, Note_on_c, 1, 43, 0
2, 10112, Note_on_c, 1, 38, 56
2, 10176, Note_on_c, 1, 38, 0
2, 10176, Note_on_c, 1, 35, 60
2, 10240, Note_on_c, 1, 35, 0
2, 10240, Note_on_c, 1, 31, 58
2, 10272, Note_on_c, 1, 65, 0
2, 10272, Note_on_c, 1, 55, 69
2, 10304, Note_on_c, 1, 55, 0
2, 10304, Note_on_c, 1, 59, 77
2, 10336, Note_on_c, 1, 59, 0
2, 10336, Note_on_c, 1, 62, 85
2, 10368, Note_on_c, 1, 62, 0
2, 10368, Note_on_c, 1, 65, 86
2, 10400, Note_on_c, 1, 65, 0
2, 10400, Note_on_c, 1, 59, 73
2, 10432, Note_on_c, 1, 59, 0
2, 10432, Note_on_c, 1, 62, 85
2, 10464, Note_on_c, 1, 62, 0
2, 10464, Note_on_c, 1, 65, 80
2, 10496, Note_on_c, 1, 31, 0
2, 10496, Note_on_c, 1, 65, 0
2, 10496, Note_on_c, 1, 69, 85
2, 10560, Note_on_c, 1, 69, 0
2, 10560, Note_on_c, 1, 65, 70
2, 10624, Note_on_c, 1, 65, 0
2, 10624, Note_on_c, 1, 64, 73
2, 10624, Note_on_c, 1, 53, 58
2, 10624, Note_on_c, 1, 59, 58
2, 10688, Note_on_c, 1, 64, 0
2, 10688, Note_on_c, 1, 62, 68
2, 10752, Note_on_c, 1, 59, 0
2, 10752, Note_on_c, 1, 53, 0
2, 10752, Note_on_c, 1, 62, 0
2, 10752, Note_on_c, 1, 69, 83
2, 10752, Note_on_c, 1, 52, 61
2, 10752, Note_on_c, 1, 60, 61
2, 10784, Note_on_c, 1, 69, 0
2, 10784, Note_on_c, 1, 67, 73
2, 10816, Note_on_c, 1, 67, 0
2, 10816, Note_on_c, 1, 71, 83
2, 10848, Note_on_c, 1, 71, 0
2, 10848, Note_on_c, 1, 69, 70
2, 10880, Note_on_c, 1, 69, 0
2, 10880, Note_on_c, 1, 72, 84
2, 10912, Note_on_c, 1, 72, 0
2, 10912, Note_on_c, 1, 71, 69
2, 10944, Note_on_c, 1, 71, 0
2, 10944, Note_on_c, 1, 74, 83
2, 10976, Note_on_c, 1, 74, 0
2, 10976, Note_on_c, 1, 72, 71
2, 11008, Note_on_c, 1, 60, 0
2, 11008, Note_on_c, 1, 52, 0
2, 11008, Note_on_c, 1, 72, 0
2, 11008, Note_on_c, 1, 67, 68
2, 11136, Note_on_c, 1, 67, 0
2, 11200, Note_on_c, 1, 55, 53
2, 11264, Note_on_c, 1, 55, 0
2, 11264, Note_on_c, 1, 54, 60
2, 11296, Note_on_c, 1, 54, 0
2, 11296, Note_on_c, 1, 55, 58
2, 11328, Note_on_c, 1, 55, 0
2, 11328, Note_on_c, 1, 57, 62
2, 11360, Note_on_c, 1, 57, 0
2, 11360, Note_on_c, 1, 55, 61
2, 11392, Note_on_c, 1, 55, 0
2, 11392, Note_on_c, 1, 53, 56
2, 11424, Note_on_c, 1, 53, 0
2, 11424, Note_on_c, 1, 52, 59
2, 11456, Note_on_c, 1, 52, 0
2, 11456, Note_on_c, 1, 50, 60
2, 11488, Note_on_c, 1, 50, 0
2, 11488, Note_on_c, 1, 48, 59
2, 11520, Note_on_c, 1, 48, 0
2, 11520, Note_on_c, 1, 47, 57
2, 11552, Note_on_c, 1, 67, 67
2, 11584, Note_on_c, 1, 67, 0
2, 11584, Note_on_c, 1, 71, 80
2, 11616, Note_on_c, 1, 71, 0
2, 11616, Note_on_c, 1, 74, 84
2, 11648, Note_on_c, 1, 47, 0
2, 11648, Note_on_c, 1, 74, 0
2, 11648, Note_on_c, 1, 77, 82
2, 11680, Note_on_c, 1, 55, 59
2, 11712, Note_on_c, 1, 55, 0
2, 11712, Note_on_c, 1, 59, 68
2, 11744, Note_on_c, 1, 59, 0
2, 11744, Note_on_c, 1, 62, 63
2, 11776, Note_on_c, 1, 62, 0
2, 11776, Note_on_c, 1, 65, 66
2, 11801, Note_on_c, 1, 77, 0
2, 11808, Note_on_c, 1, 67, 57
2, 11840, Note_on_c, 1, 67, 0
2, 11840, Note_on_c, 1, 71, 80
2, 11872, Note_on_c, 1, 71, 0
2, 11872, Note_on_c, 1, 74, 80
2, 11904, Note_on_c, 1, 74, 0
2, 11904, Note_on_c, 1, 77, 79
2, 11936, Note_on_c, 1, 77, 0
2, 11936, Note_on_c, 1, 71, 67
2, 11968, Note_on_c, 1, 71, 0
2, 11968, Note_on_c, 1, 74, 77
2, 12000, Note_on_c, 1, 74, 0
2, 12000, Note_on_c, 1, 77, 82
2, 12032, Note_on_c, 1, 65, 0
2, 12032, Note_on_c, 1, 77, 0
2, 12032, Note_on_c, 1, 81, 83
2, 12064, Note_on_c, 1, 81, 0
2, 12064, Note_on_c, 1, 80, 74
2, 12096, Note_on_c, 1, 80, 0
2, 12096, Note_on_c, 1, 83, 80
2, 12128, Note_on_c, 1, 83, 0
2, 12128, Note_on_c, 1, 81, 70
2, 12160, Note_on_c, 1, 81, 0
2, 12160, Note_on_c, 1, 79, 70
2, 12160, Note_on_c, 1, 65, 55
2, 12160, Note_on_c, 1, 71, 55
2, 12192, Note_on_c, 1, 79, 0
2, 12192, Note_on_c, 1, 77, 69
2, 12224, Note_on_c, 1, 77, 0
2, 12224, Note_on_c, 1, 76, 72
2, 12256, Note_on_c, 1, 76, 0
2, 12256, Note_on_c, 1, 74, 68
2, 12288, Note_on_c, 1, 71, 0
2, 12288, Note_on_c, 1, 65, 0
2, 12288, Note_on_c, 1, 74, 0
2, 12288, Note_on_c, 1, 81, 96
2, 12288, Note_on_c, 1, 64, 59
2, 12288, Note_on_c, 1, 72, 59
2, 12320, Note_on_c, 1, 81, 0
2, 12320, Note_on_c, 1, 79, 76
2, 12352, Note_on_c, 1, 79, 0
2, 12352, Note_on_c, 1, 83, 85
2, 12384, Note_on_c, 1, 83, 0
2, 12384, Note_on_c, 1, 81, 72
2, 12416, Note_on_c, 1, 81, 0
2, 12416, Note_on_c, 1, 84, 85
2, 12448, Note_on_c, 1, 84, 0
2, 12448, Note_on_c, 1, 83, 73
2, 12480, Note_on_c, 1, 83, 0
2, 12480, Note_on_c, 1, 86, 82
2, 12512, Note_on_c, 1, 86, 0
2, 12512, Note_on_c, 1, 84, 72
2, 12544, Note_on_c, 1, 84, 0
2, 12544, Note_on_c, 1, 79, 69
2, 12595, Note_on_c, 1, 79, 0
2, 12672, Note_on_c, 1, 72, 0
2, 12672, Note_on_c, 1, 64, 0
2, 12736, Note_on_c, 1, 79, 68
2, 12768, Note_on_c, 1, 79, 0
2, 12800, Note_on_c, 1, 84, 86
2, 12800, Note_on_c, 1, 52, 60
2, 12800, Note_on_c, 1, 55, 60
2, 12800, Note_on_c, 1, 60, 60
2, 12832, Note_on_c, 1, 84, 0
2, 12832, Note_on_c, 1, 83, 73
2, 12864, Note_on_c, 1, 83, 0
2, 12864, Note_on_c, 1, 86, 82
2, 12896, Note_on_c, 1, 86, 0
2, 12896, Note_on_c, 1, 84, 71
2, 12928, Note_on_c, 1, 84, 0
2, 12928, Note_on_c, 1, 88, 83
2, 12960, Note_on_c, 1, 88, 0
2, 12960, Note_on_c, 1, 84, 67
2, 12992, Note_on_c, 1, 84, 0
2, 12992, Note_on_c, 1, 79, 66
2, 13024, Note_on_c, 1, 79, 0
2, 13024, Note_on_c, 1, 88, 87
2, 13056, Note_on_c, 1, 60, 0
2, 13056, Note_on_c, 1, 55, 0
2, 13056, Note_on_c, 1, 52, 0
2, 13056, Note_on_c, 1, 88, 0
2, 13056, Note_on_c, 1, 84, 67
2, 13056, Note_on_c, 1, 53, 65
2, 13056, Note_on_c, 1, 57, 65
2, 13056, Note_on_c, 1, 60, 65
2, 13088, Note_on_c, 1, 84, 0
2, 13088, Note_on_c, 1, 81, 70
2, 13120, Note_on_c, 1, 81, 0
2, 13120, Note_on_c, 1, 89, 89
2, 13160, Note_on_c, 1, 60, 0
2, 13160, Note_on_c, 1, 57, 0
2, 13160, Note_on_c, 1, 53, 0
2, 13280, Note_on_c, 1, 89, 0
2, 13280, Note_on_c, 1, 72, 56
2, 13291, Note_on_c, 1, 72, 0
2, 13291, Note_on_c, 1, 74, 80
2, 13302, Note_on_c, 1, 74, 0
2, 13302, Note_on_c, 1, 76, 84
2, 13312, Note_on_c, 1, 76, 0
2, 13312, Note_on_c, 1, 74, 69
2, 13344, Note_on_c, 1, 74, 0
2, 13344, Note_on_c, 1, 76, 77
2, 13376, Note_on_c, 1, 76, 0
2, 13376, Note_on_c, 1, 74, 72
2, 13408, Note_on_c, 1, 74, 0
2, 13408, Note_on_c, 1, 76, 76
2, 13440, Note_on_c, 1, 76, 0
2, 13440, Note_on_c, 1, 74, 71
2, 13461, Note_on_c, 1, 74, 0
2, 13461, Note_on_c, 1, 76, 80
2, 13482, Note_on_c, 1, 76, 0
2, 13482, Note_on_c, 1, 74, 68
2, 13504, Note_on_c, 1, 74, 0
2, 13504, Note_on_c, 1, 76, 83
2, 13525, Note_on_c, 1, 76, 0
2, 13525, Note_on_c, 1, 74, 74
2, 13546, Note_on_c, 1, 74, 0
2, 13546, Note_on_c, 1, 76, 79
2, 13568, Note_on_c, 1, 76, 0
2, 13568, Note_on_c, 1, 74, 72
2, 13568, Note_on_c, 1, 59, 68
2, 13568, Note_on_c, 1, 65, 68
2, 13589, Note_on_c, 1, 74, 0
2, 13589, Note_on_c, 1, 76, 81
2, 13610, Note_on_c, 1, 76, 0
2, 13610, Note_on_c, 1, 74, 74
2, 13632, Note_on_c, 1, 74, 0
2, 13632, Note_on_c, 1, 76, 84
2, 13653, Note_on_c, 1, 76, 0
2, 13653, Note_on_c, 1, 74, 72
2, 13674, Note_on_c, 1, 74, 0
2, 13674, Note_on_c, 1, 76, 85
2, 13696, Note_on_c, 1, 76, 0
2, 13696, Note_on_c, 1, 74, 69
2, 13728, Note_on_c, 1, 74, 0
2, 13728, Note_on_c, 1, 76, 78
2, 13760, Note_on_c, 1, 76, 0
2, 13760, Note_on_c, 1, 72, 69
2, 13792, Note_on_c, 1, 72, 0
2, 13792, Note_on_c, 1, 74, 82
2, 13824, Note_on_c, 1, 65, 0
2, 13824, Note_on_c, 1, 59, 0
2, 13824, Note_on_c, 1, 74, 0
2, 13824, Note_on_c, 1, 72, 71
2, 13824, Note_on_c, 1, 64, 56
2, 13888, Note_on_c, 1, 64, 0
2, 13888, Note_on_c, 1, 67, 62
2, 13952, Note_on_c, 1, 67, 0
2, 13952, Note_on_c, 1, 64, 55
2, 14016, Note_on_c, 1, 64, 0
2, 14016, Note_on_c, 1, 67, 67
2, 14080, Note_on_c, 1, 67, 0
2, 14080, Note_on_c, 1, 72, 0
2, 14080, Note_on_c, 1, 64, 53
2, 14112, Note_on_c, 1, 88, 69
2, 14128, Note_on_c, 1, 88, 0
2, 14144, Note_on_c, 1, 64, 0
2, 14144, Note_on_c, 1, 86, 69
2, 14144, Note_on_c, 1, 67, 61
2, 14160, Note_on_c, 1, 86, 0
2, 14176, Note_on_c, 1, 84, 68
2, 14192, Note_on_c, 1, 84, 0
2, 14208, Note_on_c, 1, 67, 0
2, 14208, Note_on_c, 1, 83, 72
2, 14208, Note_on_c, 1, 64, 59
2, 14224, Note_on_c, 1, 83, 0
2, 14240, Note_on_c, 1, 81, 70
2, 14256, Note_on_c, 1, 81, 0
2, 14272, Note_on_c, 1, 64, 0
2, 14272, Note_on_c, 1, 79, 71
2, 14272, Note_on_c, 1, 67, 64
2, 14288, Note_on_c, 1, 79, 0
2, 14304, Note_on_c, 1, 77, 69
2, 14320, Note_on_c, 1, 77, 0
2, 14336, Note_on_c, 1, 67, 0
2, 14336, Note_on_c, 1, 76, 71
2, 14336, Note_on_c, 1, 64, 55
2, 14400, Note_on_c, 1, 64, 0
2, 14400, Note_on_c, 1, 76, 0
2, 14400, Note_on_c, 1, 74, 73
2, 14400, Note_on_c, 1, 67, 65
2, 14464, Note_on_c, 1, 67, 0
2, 14464, Note_on_c, 1, 74, 0
2, 14464, Note_on_c, 1, 76, 76
2, 14464, Note_on_c, 1, 64, 57
2, 14528, Note_on_c, 1, 64, 0
2, 14528, Note_on_c, 1, 76, 0
2, 14528, Note_on_c, 1, 77, 80
2, 14528, Note_on_c, 1, 67, 67
2, 14592, Note_on_c, 1, 67, 0
2, 14592, Note_on_c, 1, 77, 0
2, 14592, Note_on_c, 1, 78, 82
2, 14592, Note_on_c, 1, 62, 55
2, 14656, Note_on_c, 1, 62, 0
2, 14656, Note_on_c, 1, 78, 0
2, 14656, Note_on_c, 1, 79, 78
2, 14656, Note_on_c, 1, 67, 70
2, 14720, Note_on_c, 1, 67, 0
2, 14720, Note_on_c, 1, 65, 58
2, 14784, Note_on_c, 1, 65, 0
2, 14784, Note_on_c, 1, 67, 64
2, 14848, Note_on_c, 1, 67, 0
2, 14848, Note_on_c, 1, 79, 0
2, 14848, Note_on_c, 1, 65, 60
2, 14880, Note_on_c, 1, 89, 64
2, 14896, Note_on_c, 1, 89, 0
2, 14912, Note_on_c, 1, 65, 0
2, 14912, Note_on_c, 1, 88, 71
2, 14912, Note_on_c, 1, 67, 62
2, 14928, Note_on_c, 1, 88, 0
2, 14944, Note_on_c, 1, 86, 68
2, 14960, Note_on_c, 1, 86, 0
2, 14976, Note_on_c, 1, 67, 0
2, 14976, Note_on_c, 1, 84, 75
2, 14976, Note_on_c, 1, 65, 59
2, 14992, Note_on_c, 1, 84, 0
2, 15008, Note_on_c, 1, 83, 71
2, 15024, Note_on_c, 1, 83, 0
2, 15040, Note_on_c, 1, 65, 0
2, 15040, Note_on_c, 1, 81, 74
2, 15040, Note_on_c, 1, 67, 66
2, 15056, Note_on_c, 1, 81, 0
2, 15072, Note_on_c, 1, 79, 75
2, 15088, Note_on_c, 1, 79, 0
2, 15104, Note_on_c, 1, 67, 0
2, 15104, Note_on_c, 1, 78, 74
2, 15104, Note_on_c, 1, 65, 56
2, 15168, Note_on_c, 1, 65, 0
2, 15168, Note_on_c, 1, 78, 0
2, 15168, Note_on_c, 1, 79, 78
2, 15168, Note_on_c, 1, 67, 66
2, 15232, Note_on_c, 1, 67, 0
2, 15232, Note_on_c, 1, 79, 0
2, 15232, Note_on_c, 1, 81, 79
2, 15232, Note_on_c, 1, 65, 58
2, 15296, Note_on_c, 1, 65, 0
2, 15296, Note_on_c, 1, 81, 0
2, 15296, Note_on_c, 1, 77, 70
2, 15296, Note_on_c, 1, 67, 66
2, 15360, Note_on_c, 1, 67, 0
2, 15360, Note_on_c, 1, 77, 0
2, 15360, Note_on_c, 1, 75, 71
2, 15360, Note_on_c, 1, 64, 57
2, 15424, Note_on_c, 1, 64, 0
2, 15424, Note_on_c, 1, 75, 0
2, 15424, Note_on_c, 1, 76, 79
2, 15424, Note_on_c, 1, 67, 66
2, 15488, Note_on_c, 1, 67, 0
2, 15488, Note_on_c, 1, 64, 57
2, 15552, Note_on_c, 1, 64, 0
2, 15552, Note_on_c, 1, 67, 66
2, 15616, Note_on_c, 1, 67, 0
2, 15616, Note_on_c, 1, 76, 0
2, 15616, Note_on_c, 1, 52, 60
2, 15648, Note_on_c, 1, 76, 68
2, 15648, Note_on_c, 1, 88, 68
2, 15664, Note_on_c, 1, 88, 0
2, 15664, Note_on_c, 1, 76, 0
2, 15680, Note_on_c, 1, 52, 0
2, 15680, Note_on_c, 1, 74, 71
2, 15680, Note_on_c, 1, 86, 71
2, 15680, Note_on_c, 1, 55, 61
2, 15696, Note_on_c, 1, 86, 0
2, 15696, Note_on_c, 1, 74, 0
2, 15712, Note_on_c, 1, 72, 72
2, 15712, Note_on_c, 1, 84, 72
2, 15728, Note_on_c, 1, 84, 0
2, 15728, Note_on_c, 1, 72, 0
2, 15744, Note_on_c, 1, 55, 0
2, 15744, Note_on_c, 1, 71, 67
2, 15744, Note_on_c, 1, 83, 67
2, 15744, Note_on_c, 1, 52, 62
2, 15760, Note_on_c, 1, 83, 0
2, 15760, Note_on_c, 1, 71, 0
2, 15776, Note_on_c, 1, 69, 69
2, 15776, Note_on_c, 1, 81, 69
2, 15792, Note_on_c, 1, 81, 0
2, 15792, Note_on_c, 1, 69, 0
2, 15808, Note_on_c, 1, 52, 0
2, 15808, Note_on_c, 1, 67, 68
2, 15808, Note_on_c, 1, 79, 68
2, 15808, Note_on_c, 1, 55, 62
2, 15824, Note_on_c, 1, 79, 0
2, 15824, Note_on_c, 1, 67, 0
2, 15840, Note_on_c, 1, 65, 67
2, 15840, Note_on_c, 1, 77, 67
2, 15856, Note_on_c, 1, 77, 0
2, 15856, Note_on_c, 1, 65, 0
2, 15872, Note_on_c, 1, 55, 0
2, 15872, Note_on_c, 1, 64, 69
2, 15872, Note_on_c, 1, 76, 69
2, 15872, Note_on_c, 1, 52, 63
2, 15936, Note_on_c, 1, 52, 0
2, 15936, Note_on_c, 1, 76, 0
2, 15936, Note_on_c, 1, 64, 0
2, 15936, Note_on_c, 1, 62, 70
2, 15936, Note_on_c, 1, 74, 70
2, 15936, Note_on_c, 1, 55, 64
2, 16000, Note_on_c, 1, 55, 0
2, 16000, Note_on_c, 1, 74, 0
2, 16000, Note_on_c, 1, 62, 0
2, 16000, Note_on_c, 1, 64, 84
2, 16000, Note_on_c, 1, 76, 84
2, 16000, Note_on_c, 1, 52, 64
2, 16064, Note_on_c, 1, 52, 0
2, 16064, Note_on_c, 1, 76, 0
2, 16064, Note_on_c, 1, 64, 0
2, 16064, Note_on_c, 1, 65, 81
2, 16064, Note_on_c, 1, 77, 81
2, 16064, Note_on_c, 1, 55, 65
2, 16128, Note_on_c, 1, 55, 0
2, 16128, Note_on_c, 1, 77, 0
2, 16128, Note_on_c, 1, 65, 0
2, 16128, Note_on_c, 1, 66, 82
2, 16128, Note_on_c, 1, 78, 82
2, 16128, Note_on_c, 1, 50, 66
2, 16192, Note_on_c, 1, 50, 0
2, 16192, Note_on_c, 1, 78, 0
2, 16192, Note_on_c, 1, 66, 0
2, 16192, Note_on_c, 1, 67, 82
2, 16192, Note_on_c, 1, 79, 82
2, 16192, Note_on_c, 1, 55, 66
2, 16256, Note_on_c, 1, 55, 0
2, 16256, Note_on_c, 1, 53, 67
2, 16320, Note_on_c, 1, 53, 0
2, 16320, Note_on_c, 1, 55, 68
2, 16384, Note_on_c, 1, 55, 0
2, 16384, Note_on_c, 1, 79, 0
2, 16384, Note_on_c, 1, 67, 0
2, 16384, Note_on_c, 1, 53, 68
2, 16416, Note_on_c, 1, 77, 67
2, 16416, Note_on_c, 1, 89, 67
2, 16432, Note_on_c, 1, 89, 0
2, 16432, Note_on_c, 1, 77, 0
2, 16448, Note_on_c, 1, 53, 0
2, 16448, Note_on_c, 1, 76, 71
2, 16448, Note_on_c, 1, 88, 71
2, 16448, Note_on_c, 1, 55, 69
2, 16464, Note_on_c, 1, 88, 0
2, 16464, Note_on_c, 1, 76, 0
2, 16480, Note_on_c, 1, 74, 73
2, 16480, Note_on_c, 1, 86, 73
2, 16496, Note_on_c, 1, 86, 0
2, 16496, Note_on_c, 1, 74, 0
2, 16512, Note_on_c, 1, 55, 0
2, 16512, Note_on_c, 1, 72, 73
2, 16512, Note_on_c, 1, 84, 73
2, 16512, Note_on_c, 1, 53, 70
2, 16528, Note_on_c, 1, 84, 0
2, 16528, Note_on_c, 1, 72, 0
2, 16544, Note_on_c, 1, 71, 72
2, 16544, Note_on_c, 1, 83, 72
2, 16560, Note_on_c, 1, 83, 0
2, 16560, Note_on_c, 1, 71, 0
2, 16576, Note_on_c, 1, 53, 0
2, 16576, Note_on_c, 1, 69, 69
2, 16576, Note_on_c, 1, 81, 69
2, 16576, Note_on_c, 1, 55, 70
2, 16592, Note_on_c, 1, 81, 0
2, 16592, Note_on_c, 1, 69, 0
2, 16608, Note_on_c, 1, 67, 68
2, 16608, Note_on_c, 1, 79, 68
2, 16624, Note_on_c, 1, 79, 0
2, 16624, Note_on_c, 1, 67, 0
2, 16640, Note_on_c, 1, 55, 0
2, 16640, Note_on_c, 1, 66, 67
2, 16640, Note_on_c, 1, 78, 67
2, 16640, Note_on_c, 1, 53, 71
2, 16672, Note_on_c, 1, 78, 0
2, 16672, Note_on_c, 1, 66, 0
2, 16704, Note_on_c, 1, 53, 0
2, 16704, Note_on_c, 1, 67, 77
2, 16704, Note_on_c, 1, 79, 77
2, 16704, Note_on_c, 1, 55, 72
2, 16768, Note_on_c, 1, 55, 0
2, 16768, Note_on_c, 1, 79, 0
2, 16768, Note_on_c, 1, 67, 0
2, 16768, Note_on_c, 1, 69, 82
2, 16768, Note_on_c, 1, 81, 82
2, 16768, Note_on_c, 1, 53, 72
2, 16832, Note_on_c, 1, 53, 0
2, 16832, Note_on_c, 1, 81, 0
2, 16832, Note_on_c, 1, 69, 0
2, 16832, Note_on_c, 1, 65, 72
2, 16832, Note_on_c, 1, 77, 72
2, 16832, Note_on_c, 1, 55, 76
2, 16896, Note_on_c, 1, 55, 0
2, 16896, Note_on_c, 1, 77, 0
2, 16896, Note_on_c, 1, 65, 0
2, 16896, Note_on_c, 1, 64, 76
2, 16896, Note_on_c, 1, 76, 76
2, 17024, Note_on_c, 1, 76, 0
2, 17024, Note_on_c, 1, 64, 0
2, 17024, Note_on_c, 1, 72, 80
2, 17024, Note_on_c, 1, 84, 80
2, 17136, Note_on_c, 1, 84, 0
2, 17136, Note_on_c, 1, 72, 0
2, 17152, Note_on_c, 1, 57, 84
2, 17177, Note_on_c, 1, 57, 0
2, 17177, Note_on_c, 1, 60, 84
2, 17203, Note_on_c, 1, 60, 0
2, 17203, Note_on_c, 1, 63, 85
2, 17228, Note_on_c, 1, 63, 0
2, 17228, Note_on_c, 1, 66, 86
2, 17254, Note_on_c, 1, 66, 0
2, 17254, Note_on_c, 1, 69, 87
2, 17280, Note_on_c, 1, 69, 0
2, 17280, Note_on_c, 1, 72, 87
2, 17312, Note_on_c, 1, 72, 0
2, 17312, Note_on_c, 1, 75, 94
2, 17344, Note_on_c, 1, 75, 0
2, 17344, Note_on_c, 1, 78, 97
2, 17376, Note_on_c, 1, 78, 0
2, 17376, Note_on_c, 1, 81, 97
2, 17408, Note_on_c, 1, 81, 0
2, 17536, Note_on_c, 1, 59, 49
2, 17536, Note_on_c, 1, 53, 53
2, 17632, Note_on_c, 1, 59, 0
2, 17632, Note_on_c, 1, 59, 60
2, 17648, Note_on_c, 1, 59, 0
2, 17664, Note_on_c, 1, 53, 0
2, 17664, Note_on_c, 1, 62, 92
2, 17664, Note_on_c, 1, 53, 83
2, 17920, Note_on_c, 1, 53, 0
2, 17920, Note_on_c, 1, 62, 0
2, 17920, Note_on_c, 1, 60, 61
2, 17920, Note_on_c, 1, 52, 55
2, 18022, Note_on_c, 1, 52, 0
2, 18022, Note_on_c, 1, 60, 0
2, 18496, Note_on_c, 1, 67, 56
2, 18560, Note_on_c, 1, 67, 0
2, 18560, Note_on_c, 1, 69, 60
2, 18624, Note_on_c, 1, 69, 0
2, 18624, Note_on_c, 1, 71, 61
2, 18688, Note_on_c, 1, 71, 0
2, 18688, Note_on_c, 1, 72, 68
2, 18752, Note_on_c, 1, 72, 0
2, 18752, Note_on_c, 1, 74, 67
2, 18816, Note_on_c, 1, 74, 0
2, 18816, Note_on_c, 1, 75, 65
2, 18880, Note_on_c, 1, 75, 0
2, 18880, Note_on_c, 1, 71, 56
2, 18944, Note_on_c, 1, 71, 0
2, 18944, Note_on_c, 1, 72, 65
2, 19008, Note_on_c, 1, 72, 0
2, 19008, Note_on_c, 1, 67, 50
2, 19072, Note_on_c, 1, 67, 0
2, 19072, Note_on_c, 1, 84, 74
2, 19136, Note_on_c, 1, 84, 0
2, 19136, Note_on_c, 1, 81, 59
2, 19200, Note_on_c, 1, 81, 0
2, 19200, Note_on_c, 1, 79, 80
2, 19264, Note_on_c, 1, 72, 56
2, 19328, Note_on_c, 1, 72, 0
2, 19328, Note_on_c, 1, 74, 61
2, 19392, Note_on_c, 1, 74, 0
2, 19392, Note_on_c, 1, 75, 60
2, 19456, Note_on_c, 1, 75, 0
2, 19456, Note_on_c, 1, 79, 0
2, 19456, Note_on_c, 1, 78, 53
2, 19456, Note_on_c, 1, 74, 59
2, 19520, Note_on_c, 1, 74, 0
2, 19520, Note_on_c, 1, 54, 60
2, 19520, Note_on_c, 1, 72, 60
2, 19560, Note_on_c, 1, 78, 0
2, 19584, Note_on_c, 1, 72, 0
2, 19584, Note_on_c, 1, 54, 0
2, 19584, Note_on_c, 1, 55, 58
2, 19584, Note_on_c, 1, 70, 58
2, 19648, Note_on_c, 1, 70, 0
2, 19648, Note_on_c, 1, 55, 0
2, 19648, Note_on_c, 1, 57, 62
2, 19648, Note_on_c, 1, 69, 62
2, 19712, Note_on_c, 1, 69, 0
2, 19712, Note_on_c, 1, 57, 0
2, 19712, Note_on_c, 1, 79, 63
2, 19712, Note_on_c, 1, 58, 57
2, 19712, Note_on_c, 1, 67, 57
2, 19776, Note_on_c, 1, 79, 0
2, 19776, Note_on_c, 1, 78, 57
2, 19840, Note_on_c, 1, 78, 0
2, 19840, Note_on_c, 1, 79, 64
2, 19904, Note_on_c, 1, 79, 0
2, 19904, Note_on_c, 1, 76, 57
2, 19968, Note_on_c, 1, 67, 0
2, 19968, Note_on_c, 1, 58, 0
2, 19968, Note_on_c, 1, 76, 0
2, 19968, Note_on_c, 1, 74, 51
2, 20032, Note_on_c, 1, 58, 60
2, 20032, Note_on_c, 1, 67, 60
2, 20096, Note_on_c, 1, 67, 0
2, 20096, Note_on_c, 1, 58, 0
2, 20096, Note_on_c, 1, 57, 62
2, 20096, Note_on_c, 1, 69, 62
2, 20160, Note_on_c, 1, 69, 0
2, 20160, Note_on_c, 1, 57, 0
2, 20160, Note_on_c, 1, 55, 63
2, 20160, Note_on_c, 1, 70, 63
2, 20224, Note_on_c, 1, 70, 0
2, 20224, Note_on_c, 1, 55, 0
2, 20224, Note_on_c, 1, 74, 0
2, 20224, Note_on_c, 1, 73, 55
2, 20224, Note_on_c, 1, 57, 64
2, 20224, Note_on_c, 1, 69, 64
2, 20288, Note_on_c, 1, 69, 0
2, 20288, Note_on_c, 1, 57, 0
2, 20288, Note_on_c, 1, 58, 66
2, 20288, Note_on_c, 1, 67, 66
2, 20352, Note_on_c, 1, 67, 0
2, 20352, Note_on_c, 1, 58, 0
2, 20352, Note_on_c, 1, 57, 67
2, 20352, Note_on_c, 1, 69, 67
2, 20416, Note_on_c, 1, 69, 0
2, 20416, Note_on_c, 1, 57, 0
2, 20416, Note_on_c, 1, 55, 68
2, 20416, Note_on_c, 1, 70, 68
2, 20480, Note_on_c, 1, 70, 0
2, 20480, Note_on_c, 1, 55, 0
2, 20480, Note_on_c, 1, 57, 69
2, 20480, Note_on_c, 1, 69, 69
2, 20544, Note_on_c, 1, 69, 0
2, 20544, Note_on_c, 1, 57, 0
2, 20544, Note_on_c, 1, 58, 71
2, 20544, Note_on_c, 1, 67, 71
2, 20608, Note_on_c, 1, 67, 0
2, 20608, Note_on_c, 1, 58, 0
2, 20608, Note_on_c, 1, 57, 72
2, 20608, Note_on_c, 1, 69, 72
2, 20672, Note_on_c, 1, 69, 0
2, 20672, Note_on_c, 1, 57, 0
2, 20672, Note_on_c, 1, 73, 0
2, 20672, Note_on_c, 1, 76, 64
2, 20672, Note_on_c, 1, 55, 82
2, 20672, Note_on_c, 1, 70, 82
2, 20736, Note_on_c, 1, 70, 0
2, 20736, Note_on_c, 1, 55, 0
2, 20736, Note_on_c, 1, 76, 0
2, 20736, Note_on_c, 1, 76, 60
2, 20736, Note_on_c, 1, 57, 68
2, 20800, Note_on_c, 1, 76, 0
2, 20800, Note_on_c, 1, 74, 56
2, 20864, Note_on_c, 1, 74, 0
2, 20864, Note_on_c, 1, 76, 65
2, 20928, Note_on_c, 1, 76, 0
2, 20928, Note_on_c, 1, 77, 65
2, 20992, Note_on_c, 1, 57, 0
2, 20992, Note_on_c, 1, 77, 0
2, 20992, Note_on_c, 1, 76, 62
2, 20992, Note_on_c, 1, 62, 80
2, 21056, Note_on_c, 1, 76, 0
2, 21056, Note_on_c, 1, 74, 58
2, 21120, Note_on_c, 1, 74, 0
2, 21120, Note_on_c, 1, 76, 63
2, 21184, Note_on_c, 1, 76, 0
2, 21184, Note_on_c, 1, 77, 64
2, 21248, Note_on_c, 1, 77, 0
2, 21248, Note_on_c, 1, 76, 60
2, 21312, Note_on_c, 1, 76, 0
2, 21312, Note_on_c, 1, 74, 58
2, 21376, Note_on_c, 1, 74, 0
2, 21376, Note_on_c, 1, 76, 66
2, 21440, Note_on_c, 1, 76, 0
2, 21440, Note_on_c, 1, 72, 55
2, 21504, Note_on_c, 1, 62, 0
2, 21504, Note_on_c, 1, 72, 0
2, 21504, Note_on_c, 1, 72, 58
2, 21504, Note_on_c, 1, 62, 84
2, 21504, Note_on_c, 1, 65, 84
2, 21568, Note_on_c, 1, 65, 0
2, 21568, Note_on_c, 1, 62, 0
2, 21568, Note_on_c, 1, 61, 73
2, 21568, Note_on_c, 1, 64, 73
2, 21632, Note_on_c, 1, 64, 0
2, 21632, Note_on_c, 1, 61, 0
2, 21632, Note_on_c, 1, 62, 74
2, 21632, Note_on_c, 1, 65, 74
2, 21696, Note_on_c, 1, 65, 0
2, 21696, Note_on_c, 1, 62, 0
2, 21696, Note_on_c, 1, 64, 76
2, 21696, Note_on_c, 1, 67, 76
2, 21760, Note_on_c, 1, 67, 0
2, 21760, Note_on_c, 1, 64, 0
2, 21760, Note_on_c, 1, 62, 77
2, 21760, Note_on_c, 1, 65, 77
2, 21824, Note_on_c, 1, 65, 0
2, 21824, Note_on_c, 1, 62, 0
2, 21824, Note_on_c, 1, 61, 78
2, 21824, Note_on_c, 1, 64, 78
2, 21888, Note_on_c, 1, 64, 0
2, 21888, Note_on_c, 1, 61, 0
2, 21888, Note_on_c, 1, 62, 80
2, 21888, Note_on_c, 1, 65, 80
2, 21952, Note_on_c, 1, 65, 0
2, 21952, Note_on_c, 1, 62, 0
2, 21952, Note_on_c, 1, 64, 81
2, 21952, Note_on_c, 1, 67, 81
2, 22016, Note_on_c, 1, 67, 0
2, 22016, Note_on_c, 1, 64, 0
2, 22016, Note_on_c, 1, 72, 0
2, 22016, Note_on_c, 1, 71, 59
2, 22016, Note_on_c, 1, 62, 82
2, 22016, Note_on_c, 1, 65, 82
2, 22080, Note_on_c, 1, 65, 0
2, 22080, Note_on_c, 1, 62, 0
2, 22080, Note_on_c, 1, 65, 83
2, 22080, Note_on_c, 1, 69, 83
2, 22144, Note_on_c, 1, 69, 0
2, 22144, Note_on_c, 1, 65, 0
2, 22144, Note_on_c, 1, 64, 85
2, 22144, Note_on_c, 1, 67, 85
2, 22208, Note_on_c, 1, 67, 0
2, 22208, Note_on_c, 1, 64, 0
2, 22208, Note_on_c, 1, 62, 76
2, 22208, Note_on_c, 1, 65, 76
2, 22272, Note_on_c, 1, 65, 0
2, 22272, Note_on_c, 1, 62, 0
2, 22272, Note_on_c, 1, 71, 0
2, 22272, Note_on_c, 1, 70, 60
2, 22336, Note_on_c, 1, 70, 0
2, 22336, Note_on_c, 1, 69, 63
2, 22400, Note_on_c, 1, 69, 0
2, 22400, Note_on_c, 1, 70, 66
2, 22464, Note_on_c, 1, 70, 0
2, 22464, Note_on_c, 1, 72, 68
2, 22528, Note_on_c, 1, 72, 0
2, 22528, Note_on_c, 1, 70, 71
2, 22592, Note_on_c, 1, 70, 0
2, 22592, Note_on_c, 1, 69, 70
2, 22656, Note_on_c, 1, 69, 0
2, 22656, Note_on_c, 1, 70, 73
2, 22720, Note_on_c, 1, 70, 0
2, 22720, Note_on_c, 1, 72, 76
2, 22784, Note_on_c, 1, 72, 0
2, 22784, Note_on_c, 1, 70, 78
2, 22848, Note_on_c, 1, 70, 0
2, 22848, Note_on_c, 1, 69, 81
2, 22912, Note_on_c, 1, 69, 0
2, 22912, Note_on_c, 1, 70, 83
2, 22976, Note_on_c, 1, 70, 0
2, 22976, Note_on_c, 1, 72, 93
2, 23040, Note_on_c, 1, 72, 0
2, 23040, Note_on_c, 1, 70, 86
2, 23104, Note_on_c, 1, 70, 0
2, 23104, Note_on_c, 1, 69, 88
2, 23168, Note_on_c, 1, 69, 0
2, 23168, Note_on_c, 1, 70, 91
2, 23232, Note_on_c, 1, 70, 0
2, 23232, Note_on_c, 1, 72, 93
2, 23296, Note_on_c, 1, 72, 0
2, 23296, Note_on_c, 1, 70, 96
2, 23360, Note_on_c, 1, 70, 0
2, 23360, Note_on_c, 1, 69, 88
2, 23424, Note_on_c, 1, 69, 0
2, 23424, Note_on_c, 1, 70, 99
2, 23488, Note_on_c, 1, 70, 0
2, 23488, Note_on_c, 1, 72, 101
2, 23552, Note_on_c, 1, 72, 0
2, 23552, Note_on_c, 1, 70, 104
2, 23616, Note_on_c, 1, 70, 0
2, 23616, Note_on_c, 1, 69, 106
2, 23680, Note_on_c, 1, 69, 0
2, 23680, Note_on_c, 1, 70, 109
2, 23744, Note_on_c, 1, 70, 0
2, 23744, Note_on_c, 1, 72, 120
2, 23808, Note_on_c, 1, 72, 0
2, 23808, Note_on_c, 1, 70, 102
2, 23840, Note_on_c, 1, 70, 0
2, 23840, Note_on_c, 1, 69, 107
2, 23872, Note_on_c, 1, 69, 0
2, 23872, Note_on_c, 1, 70, 114
2, 23904, Note_on_c, 1, 70, 0
2, 23904, Note_on_c, 1, 72, 116
2, 23936, Note_on_c, 1, 72, 0
2, 23936, Note_on_c, 1, 70, 103
2, 23968, Note_on_c, 1, 70, 0
2, 23968, Note_on_c, 1, 69, 105
2, 24000, Note_on_c, 1, 69, 0
2, 24000, Note_on_c, 1, 70, 121
2, 24032, Note_on_c, 1, 70, 0
2, 24032, Note_on_c, 1, 72, 115
2, 24064, Note_on_c, 1, 72, 0
2, 24064, Note_on_c, 1, 70, 107
2, 24096, Note_on_c, 1, 70, 0
2, 24096, Note_on_c, 1, 74, 123
2, 24128, Note_on_c, 1, 74, 0
2, 24128, Note_on_c, 1, 72, 102
2, 24160, Note_on_c, 1, 72, 0
2, 24160, Note_on_c, 1, 77, 124
2, 24192, Note_on_c, 1, 77, 0
2, 24192, Note_on_c, 1, 76, 108
2, 24224, Note_on_c, 1, 76, 0
2, 24224, Note_on_c, 1, 79, 121
2, 24256, Note_on_c, 1, 79, 0
2, 24256, Note_on_c, 1, 77, 105
2, 24288, Note_on_c, 1, 77, 0
2, 24288, Note_on_c, 1, 81, 117
2, 24320, Note_on_c, 1, 81, 0
2, 24320, Note_on_c, 1, 79, 107
2, 24352, Note_on_c, 1, 79, 0
2, 24352, Note_on_c, 1, 82, 119
2, 24384, Note_on_c, 1, 82, 0
2, 24384, Note_on_c, 1, 86, 126
2, 24416, Note_on_c, 1, 86, 0
2, 24416, Note_on_c, 1, 84, 109
2, 24448, Note_on_c, 1, 84, 0
2, 24448, Note_on_c, 1, 82, 106
2, 24480, Note_on_c, 1, 82, 0
2, 24480, Note_on_c, 1, 81, 106
2, 24512, Note_on_c, 1, 81, 0
2, 24512, Note_on_c, 1, 79, 106
2, 24544, Note_on_c, 1, 79, 0
2, 24544, Note_on_c, 1, 77, 103
2, 24576, Note_on_c, 1, 77, 0
2, 24576, Note_on_c, 1, 76, 106
2, 24608, Note_on_c, 1, 76, 0
2, 24608, Note_on_c, 1, 84, 127
2, 24640, Note_on_c, 1, 84, 0
2, 24640, Note_on_c, 1, 82, 108
2, 24672, Note_on_c, 1, 82, 0
2, 24672, Note_on_c, 1, 79, 104
2, 24704, Note_on_c, 1, 79, 0
2, 24704, Note_on_c, 1, 76, 97
2, 24736, Note_on_c, 1, 76, 0
2, 24736, Note_on_c, 1, 72, 98
2, 24768, Note_on_c, 1, 72, 0
2, 24768, Note_on_c, 1, 70, 102
2, 24800, Note_on_c, 1, 70, 0
2, 24800, Note_on_c, 1, 67, 99
2, 24832, Note_on_c, 1, 67, 0
2, 24832, Note_on_c, 1, 64, 95
2, 24864, Note_on_c, 1, 64, 0
2, 24864, Note_on_c, 1, 60, 98
2, 24896, Note_on_c, 1, 60, 0
2, 24896, Note_on_c, 1, 58, 108
2, 24928, Note_on_c, 1, 58, 0
2, 24928, Note_on_c, 1, 55, 107
2, 24960, Note_on_c, 1, 55, 0
2, 24960, Note_on_c, 1, 52, 106
2, 24992, Note_on_c, 1, 52, 0
2, 24992, Note_on_c, 1, 48, 105
2, 25024, Note_on_c, 1, 48, 0
2, 25024, Note_on_c, 1, 52, 118
2, 25056, Note_on_c, 1, 52, 0
2, 25056, Note_on_c, 1, 55, 116
2, 25088, Note_on_c, 1, 55, 0
2, 25088, Note_on_c, 1, 58, 117
2, 25109, Note_on_c, 1, 58, 0
2, 25109, Note_on_c, 1, 60, 118
2, 25130, Note_on_c, 1, 60, 0
2, 25130, Note_on_c, 1, 61, 111
2, 25152, Note_on_c, 1, 61, 0
2, 25152, Note_on_c, 1, 62, 113
2, 25173, Note_on_c, 1, 62, 0
2, 25173, Note_on_c, 1, 63, 115
2, 25194, Note_on_c, 1, 63, 0
2, 25194, Note_on_c, 1, 64, 121
2, 25216, Note_on_c, 1, 64, 0
2, 25216, Note_on_c, 1, 65, 121
2, 25237, Note_on_c, 1, 65, 0
2, 25237, Note_on_c, 1, 66, 116
2, 25258, Note_on_c, 1, 66, 0
2, 25258, Note_on_c, 1, 67, 117
2, 25280, Note_on_c, 1, 67, 0
2, 25280, Note_on_c, 1, 68, 120
2, 25312, Note_on_c, 1, 68, 0
2, 25312, Note_on_c, 1, 69, 117
2, 25344, Note_on_c, 1, 69, 0
2, 25344, Note_on_c, 1, 70, 111
2, 25472, Note_on_c, 1, 70, 0
2, 25472, Note_on_c, 1, 67, 105
2, 25600, Note_on_c, 1, 67, 0
2, 25600, Note_on_c, 1, 64, 91
2, 26062, Note_on_c, 1, 64, 0
2, 26087, Note_on_c, 1, 57, 90
2, 26100, Note_on_c, 1, 57, 0
2, 26100, Note_on_c, 1, 60, 106
2, 26112, Note_on_c, 1, 60, 0
2, 26112, Note_on_c, 1, 65, 127
2, 26400, Note_on_c, 1, 65, 0
2, 26400, Note_on_c, 1, 60, 82
2, 26432, Note_on_c, 1, 60, 0
2, 26432, Note_on_c, 1, 65, 109
2, 26464, Note_on_c, 1, 65, 0
2, 26464, Note_on_c, 1, 69, 111
2, 26496, Note_on_c, 1, 69, 0
2, 26496, Note_on_c, 1, 72, 111
2, 26592, Note_on_c, 1, 72, 0
2, 26592, Note_on_c, 1, 69, 93
2, 26624, Note_on_c, 1, 69, 0
2, 26624, Note_on_c, 1, 72, 106
2, 26688, Note_on_c, 1, 72, 0
2, 26688, Note_on_c, 1, 70, 91
2, 26752, Note_on_c, 1, 70, 0
2, 26752, Note_on_c, 1, 67, 90
2, 26816, Note_on_c, 1, 67, 0
2, 26816, Note_on_c, 1, 64, 91
2, 26880, Note_on_c, 1, 64, 0
2, 26880, Note_on_c, 1, 65, 108
2, 26936, Note_on_c, 1, 65, 0
2, 26944, Note_on_c, 1, 67, 103
2, 26965, Note_on_c, 1, 67, 0
2, 26965, Note_on_c, 1, 65, 95
2, 26986, Note_on_c, 1, 65, 0
2, 26986, Note_on_c, 1, 64, 96
2, 27008, Note_on_c, 1, 64, 0
2, 27008, Note_on_c, 1, 65, 99
2, 27104, Note_on_c, 1, 65, 0
2, 27104, Note_on_c, 1, 69, 108
2, 27136, Note_on_c, 1, 69, 0
2, 27136, Note_on_c, 1, 60, 79
2, 27264, Note_on_c, 1, 60, 0
2, 27392, Note_on_c, 1, 53, 89
2, 27424, Note_on_c, 1, 53, 0
2, 27424, Note_on_c, 1, 55, 101
2, 27440, Note_on_c, 1, 55, 0
2, 27440, Note_on_c, 1, 57, 107
2, 27456, Note_on_c, 1, 57, 0
2, 27456, Note_on_c, 1, 58, 101
2, 27472, Note_on_c, 1, 58, 0
2, 27472, Note_on_c, 1, 60, 107
2, 27488, Note_on_c, 1, 60, 0
2, 27488, Note_on_c, 1, 62, 104
2, 27504, Note_on_c, 1, 62, 0
2, 27504, Note_on_c, 1, 64, 107
2, 27520, Note_on_c, 1, 64, 0
2, 27520, Note_on_c, 1, 65, 103
2, 27536, Note_on_c, 1, 65, 0
2, 27536, Note_on_c, 1, 67, 106
2, 27552, Note_on_c, 1, 67, 0
2, 27552, Note_on_c, 1, 69, 105
2, 27568, Note_on_c, 1, 69, 0
2, 27568, Note_on_c, 1, 70, 110
2, 27584, Note_on_c, 1, 70, 0
2, 27584, Note_on_c, 1, 72, 103
2, 27600, Note_on_c, 1, 72, 0
2, 27600, Note_on_c, 1, 74, 106
2, 27616, Note_on_c, 1, 74, 0
2, 27616, Note_on_c, 1, 76, 97
2, 27627, Note_on_c, 1, 76, 0
2, 27627, Note_on_c, 1, 77, 104
2, 27637, Note_on_c, 1, 77, 0
2, 27637, Note_on_c, 1, 79, 101
2, 27648, Note_on_c, 1, 79, 0
2, 27648, Note_on_c, 1, 77, 118
2, 27904, Note_on_c, 1, 70, 115
2, 27904, Note_on_c, 1, 74, 115
2, 27936, Note_on_c, 1, 77, 0
2, 27936, Note_on_c, 1, 76, 91
2, 27968, Note_on_c, 1, 74, 0
2, 27968, Note_on_c, 1, 70, 0
2, 27968, Note_on_c, 1, 76, 0
2, 27968, Note_on_c, 1, 79, 107
2, 28000, Note_on_c, 1, 79, 0
2, 28000, Note_on_c, 1, 77, 93
2, 28032, Note_on_c, 1, 77, 0
2, 28032, Note_on_c, 1, 76, 92
2, 28064, Note_on_c, 1, 76, 0
2, 28064, Note_on_c, 1, 74, 89
2, 28096, Note_on_c, 1, 74, 0
2, 28096, Note_on_c, 1, 79, 109
2, 28128, Note_on_c, 1, 79, 0
2, 28128, Note_on_c, 1, 77, 96
2, 28160, Note_on_c, 1, 77, 0
2, 28160, Note_on_c, 1, 76, 94
2, 28192, Note_on_c, 1, 76, 0
2, 28192, Note_on_c, 1, 74, 94
2, 28224, Note_on_c, 1, 74, 0
2, 28224, Note_on_c, 1, 79, 111
2, 28256, Note_on_c, 1, 79, 0
2, 28256, Note_on_c, 1, 77, 97
2, 28288, Note_on_c, 1, 77, 0
2, 28288, Note_on_c, 1, 76, 94
2, 28320, Note_on_c, 1, 76, 0
2, 28320, Note_on_c, 1, 74, 89
2, 28352, Note_on_c, 1, 74, 0
2, 28352, Note_on_c, 1, 72, 94
2, 28384, Note_on_c, 1, 72, 0
2, 28384, Note_on_c, 1, 70, 95
2, 28416, Note_on_c, 1, 70, 0
2, 28416, Note_on_c, 1, 69, 88
2, 28416, Note_on_c, 1, 60, 84
2, 28416, Note_on_c, 1, 65, 84
2, 28448, Note_on_c, 1, 69, 0
2, 28448, Note_on_c, 1, 81, 127
2, 28480, Note_on_c, 1, 81, 0
2, 28480, Note_on_c, 1, 70, 77
2, 28512, Note_on_c, 1, 70, 0
2, 28512, Note_on_c, 1, 82, 121
2, 28544, Note_on_c, 1, 82, 0
2, 28544, Note_on_c, 1, 71, 78
2, 28576, Note_on_c, 1, 71, 0
2, 28576, Note_on_c, 1, 83, 120
2, 28608, Note_on_c, 1, 83, 0
2, 28608, Note_on_c, 1, 72, 76
2, 28640, Note_on_c, 1, 72, 0
2, 28640, Note_on_c, 1, 84, 120
2, 28672, Note_on_c, 1, 65, 0
2, 28672, Note_on_c, 1, 60, 0
2, 28672, Note_on_c, 1, 84, 0
2, 28672, Note_on_c, 1, 67, 77
2, 28672, Note_on_c, 1, 60, 93
2, 28672, Note_on_c, 1, 64, 93
2, 28723, Note_on_c, 1, 64, 0
2, 28723, Note_on_c, 1, 60, 0
2, 28800, Note_on_c, 1, 67, 0
2, 29159, Note_on_c, 1, 57, 88
2, 29172, Note_on_c, 1, 57, 0
2, 29172, Note_on_c, 1, 60, 105
2, 29184, Note_on_c, 1, 60, 0
2, 29184, Note_on_c, 1, 65, 114
2, 29472, Note_on_c, 1, 65, 0
2, 29472, Note_on_c, 1, 60, 85
2, 29504, Note_on_c, 1, 60, 0
2, 29504, Note_on_c, 1, 65, 109
2, 29536, Note_on_c, 1, 65, 0
2, 29536, Note_on_c, 1, 69, 109
2, 29568, Note_on_c, 1, 69, 0
2, 29568, Note_on_c, 1, 72, 112
2, 29600, Note_on_c, 1, 72, 0
2, 29600, Note_on_c, 1, 69, 90
2, 29632, Note_on_c, 1, 69, 0
2, 29632, Note_on_c, 1, 77, 117
2, 29664, Note_on_c, 1, 77, 0
2, 29664, Note_on_c, 1, 69, 84
2, 29696, Note_on_c, 1, 69, 0
2, 29696, Note_on_c, 1, 72, 106
2, 29728, Note_on_c, 1, 72, 0
2, 29728, Note_on_c, 1, 71, 92
2, 29760, Note_on_c, 1, 71, 0
2, 29760, Note_on_c, 1, 74, 103
2, 29792, Note_on_c, 1, 74, 0
2, 29792, Note_on_c, 1, 72, 90
2, 29824, Note_on_c, 1, 72, 0
2, 29824, Note_on_c, 1, 70, 96
2, 29856, Note_on_c, 1, 70, 0
2, 29856, Note_on_c, 1, 69, 94
2, 29888, Note_on_c, 1, 69, 0
2, 29888, Note_on_c, 1, 70, 107
2, 29920, Note_on_c, 1, 70, 0
2, 29920, Note_on_c, 1, 67, 88
2, 29952, Note_on_c, 1, 67, 0
2, 29952, Note_on_c, 1, 65, 98
2, 30008, Note_on_c, 1, 65, 0
2, 30016, Note_on_c, 1, 67, 105
2, 30037, Note_on_c, 1, 67, 0
2, 30037, Note_on_c, 1, 65, 90
2, 30058, Note_on_c, 1, 65, 0
2, 30058, Note_on_c, 1, 64, 99
2, 30080, Note_on_c, 1, 64, 0
2, 30080, Note_on_c, 1, 65, 100
2, 30176, Note_on_c, 1, 65, 0
2, 30176, Note_on_c, 1, 69, 112
2, 30208, Note_on_c, 1, 69, 0
2, 30208, Note_on_c, 1, 61, 84
2, 30400, Note_on_c, 1, 61, 0
2, 30400, Note_on_c, 1, 61, 95
2, 30432, Note_on_c, 1, 61, 0
2, 30432, Note_on_c, 1, 61, 99
2, 30464, Note_on_c, 1, 61, 0
2, 30464, Note_on_c, 1, 61, 97
2, 30528, Note_on_c, 1, 61, 0
2, 30528, Note_on_c, 1, 61, 102
2, 30560, Note_on_c, 1, 61, 0
2, 30560, Note_on_c, 1, 61, 101
2, 30592, Note_on_c, 1, 61, 0
2, 30592, Note_on_c, 1, 61, 98
2, 30688, Note_on_c, 1, 61, 0
2, 30688, Note_on_c, 1, 61, 98
2, 30720, Note_on_c, 1, 61, 0
2, 30720, Note_on_c, 1, 62, 103
2, 30856, Note_on_c, 1, 62, 0
2, 30856, Note_on_c, 1, 64, 107
2, 30864, Note_on_c, 1, 64, 0
2, 30864, Note_on_c, 1, 66, 109
2, 30872, Note_on_c, 1, 66, 0
2, 30872, Note_on_c, 1, 67, 106
2, 30880, Note_on_c, 1, 67, 0
2, 30880, Note_on_c, 1, 69, 109
2, 30888, Note_on_c, 1, 69, 0
2, 30888, Note_on_c, 1, 70, 103
2, 30896, Note_on_c, 1, 70, 0
2, 30896, Note_on_c, 1, 72, 98
2, 30904, Note_on_c, 1, 72, 0
2, 30904, Note_on_c, 1, 74, 106
2, 30912, Note_on_c, 1, 74, 0
2, 30912, Note_on_c, 1, 76, 109
2, 30920, Note_on_c, 1, 76, 0
2, 30920, Note_on_c, 1, 78, 111
2, 30928, Note_on_c, 1, 78, 0
2, 30928, Note_on_c, 1, 79, 100
2, 30936, Note_on_c, 1, 79, 0
2, 30936, Note_on_c, 1, 81, 107
2, 30944, Note_on_c, 1, 81, 0
2, 30944, Note_on_c, 1, 82, 100
2, 30952, Note_on_c, 1, 82, 0
2, 30952, Note_on_c, 1, 83, 103
2, 30960, Note_on_c, 1, 83, 0
2, 30960, Note_on_c, 1, 84, 104
2, 30968, Note_on_c, 1, 84, 0
2, 30968, Note_on_c, 1, 85, 107
2, 30976, Note_on_c, 1, 85, 0
2, 30976, Note_on_c, 1, 86, 108
2, 31104, Note_on_c, 1, 86, 0
2, 31284, Note_on_c, 1, 72, 88
2, 31296, Note_on_c, 1, 72, 0
2, 31296, Note_on_c, 1, 70, 92
2, 31349, Note_on_c, 1, 70, 0
2, 31349, Note_on_c, 1, 69, 93
2, 31360, Note_on_c, 1, 69, 0
2, 31360, Note_on_c, 1, 67, 89
2, 31413, Note_on_c, 1, 67, 0
2, 31413, Note_on_c, 1, 65, 91
2, 31424, Note_on_c, 1, 65, 0
2, 31424, Note_on_c, 1, 64, 95
2, 31488, Note_on_c, 1, 64, 0
2, 31488, Note_on_c, 1, 67, 102
2, 31744, Note_on_c, 1, 67, 0
2, 31744, Note_on_c, 1, 65, 91
2, 31795, Note_on_c, 1, 65, 0
2, 31936, Note_on_c, 1, 60, 87
2, 32000, Note_on_c, 1, 60, 0
2, 32000, Note_on_c, 1, 62, 103
2, 32064, Note_on_c, 1, 62, 0
2, 32064, Note_on_c, 1, 64, 106
2, 32128, Note_on_c, 1, 64, 0
2, 32128, Note_on_c, 1, 65, 107
2, 32192, Note_on_c, 1, 65, 0
2, 32192, Note_on_c, 1, 67, 107
2, 32256, Note_on_c, 1, 67, 0
2, 32256, Note_on_c, 1, 68, 99
2, 32512, Note_on_c, 1, 68, 0
2, 32512, Note_on_c, 1, 67, 93
2, 32640, Note_on_c, 1, 67, 0
2, 32640, Note_on_c, 1, 65, 91
2, 32768, Note_on_c, 1, 65, 0
2, 32768, Note_on_c, 1, 64, 91
2, 32896, Note_on_c, 1, 64, 0
2, 32896, Note_on_c, 1, 67, 106
2, 33024, Note_on_c, 1, 67, 0
2, 33024, Note_on_c, 1, 68, 99
2, 33024, Note_on_c, 1, 72, 99
2, 33280, Note_on_c, 1, 72, 0
2, 33280, Note_on_c, 1, 68, 0
2, 33280, Note_on_c, 1, 67, 105
2, 33280, Note_on_c, 1, 70, 105
2, 33408, Note_on_c, 1, 70, 0
2, 33408, Note_on_c, 1, 67, 0
2, 33408, Note_on_c, 1, 65, 108
2, 33408, Note_on_c, 1, 68, 108
2, 33536, Note_on_c, 1, 68, 0
2, 33536, Note_on_c, 1, 65, 0
2, 33536, Note_on_c, 1, 64, 104
2, 33536, Note_on_c, 1, 67, 104
2, 33664, Note_on_c, 1, 67, 0
2, 33664, Note_on_c, 1, 64, 0
2, 33664, Note_on_c, 1, 67, 127
2, 33664, Note_on_c, 1, 76, 127
2, 33792, Note_on_c, 1, 76, 0
2, 33792, Note_on_c, 1, 67, 0
2, 33792, Note_on_c, 1, 77, 122
2, 33856, Note_on_c, 1, 77, 0
2, 33856, Note_on_c, 1, 84, 127
2, 33920, Note_on_c, 1, 84, 0
2, 33920, Note_on_c, 1, 82, 106
2, 33984, Note_on_c, 1, 82, 0
2, 33984, Note_on_c, 1, 80, 109
2, 34048, Note_on_c, 1, 80, 0
2, 34048, Note_on_c, 1, 79, 107
2, 34112, Note_on_c, 1, 79, 0
2, 34112, Note_on_c, 1, 85, 127
2, 34176, Note_on_c, 1, 85, 0
2, 34176, Note_on_c, 1, 84, 110
2, 34240, Note_on_c, 1, 84, 0
2, 34240, Note_on_c, 1, 82, 103
2, 34304, Note_on_c, 1, 82, 0
2, 34304, Note_on_c, 1, 80, 102
2, 34368, Note_on_c, 1, 80, 0
2, 34368, Note_on_c, 1, 79, 108
2, 34432, Note_on_c, 1, 79, 0
2, 34432, Note_on_c, 1, 80, 113
2, 34496, Note_on_c, 1, 80, 0
2, 34496, Note_on_c, 1, 77, 98
2, 34560, Note_on_c, 1, 77, 0
2, 34560, Note_on_c, 1, 77, 111
2, 34816, Note_on_c, 1, 77, 0
2, 34816, Note_on_c, 1, 76, 103
2, 35072, Note_on_c, 1, 76, 0
2, 35072, Note_on_c, 1, 77, 117
2, 35097, Note_on_c, 1, 77, 0
2, 35136, Note_on_c, 1, 68, 97
2, 35136, Note_on_c, 1, 72, 97
2, 35200, Note_on_c, 1, 72, 0
2, 35200, Note_on_c, 1, 68, 0
2, 35200, Note_on_c, 1, 67, 99
2, 35200, Note_on_c, 1, 70, 99
2, 35264, Note_on_c, 1, 70, 0
2, 35264, Note_on_c, 1, 67, 0
2, 35264, Note_on_c, 1, 65, 103
2, 35264, Note_on_c, 1, 68, 103
2, 35328, Note_on_c, 1, 68, 0
2, 35328, Note_on_c, 1, 65, 0
2, 35328, Note_on_c, 1, 65, 107
2, 35328, Note_on_c, 1, 68, 107
2, 35584, Note_on_c, 1, 68, 0
2, 35584, Note_on_c, 1, 65, 0
2, 35584, Note_on_c, 1, 64, 104
2, 35584, Note_on_c, 1, 67, 104
2, 35840, Note_on_c, 1, 67, 0
2, 35840, Note_on_c, 1, 64, 0
2, 35968, Note_on_c, 1, 53, 104
2, 35968, Note_on_c, 1, 56, 104
2, 36096, Note_on_c, 1, 56, 0
2, 36096, Note_on_c, 1, 53, 0
2, 36096, Note_on_c, 1, 53, 111
2, 36096, Note_on_c, 1, 56, 111
2, 36352, Note_on_c, 1, 56, 0
2, 36352, Note_on_c, 1, 53, 0
2, 36352, Note_on_c, 1, 52, 114
2, 36352, Note_on_c, 1, 55, 114
2, 36608, Note_on_c, 1, 55, 0
2, 36608, Note_on_c, 1, 52, 0
2, 36672, Note_on_c, 1, 60, 118
2, 36736, Note_on_c, 1, 60, 0
2, 36736, Note_on_c, 1, 64, 119
2, 36800, Note_on_c, 1, 64, 0
2, 36800, Note_on_c, 1, 67, 119
2, 36851, Note_on_c, 1, 67, 0
2, 36864, Note_on_c, 1, 70, 120
2, 37152, Note_on_c, 1, 70, 0
2, 37152, Note_on_c, 1, 60, 123
2, 37184, Note_on_c, 1, 60, 0
2, 37184, Note_on_c, 1, 64, 124
2, 37216, Note_on_c, 1, 64, 0
2, 37216, Note_on_c, 1, 67, 127
2, 37248, Note_on_c, 1, 67, 0
2, 37248, Note_on_c, 1, 70, 127
2, 37280, Note_on_c, 1, 70, 0
2, 37280, Note_on_c, 1, 64, 108
2, 37312, Note_on_c, 1, 64, 0
2, 37312, Note_on_c, 1, 67, 127
2, 37344, Note_on_c, 1, 67, 0
2, 37344, Note_on_c, 1, 70, 127
2, 37376, Note_on_c, 1, 70, 0
2, 37376, Note_on_c, 1, 74, 127
2, 37440, Note_on_c, 1, 74, 0
2, 37440, Note_on_c, 1, 70, 115
2, 37504, Note_on_c, 1, 70, 0
2, 37504, Note_on_c, 1, 69, 121
2, 37568, Note_on_c, 1, 69, 0
2, 37568, Note_on_c, 1, 67, 109
2, 37632, Note_on_c, 1, 67, 0
2, 37632, Note_on_c, 1, 74, 127
2, 37664, Note_on_c, 1, 74, 0
2, 37664, Note_on_c, 1, 72, 121
2, 37696, Note_on_c, 1, 72, 0
2, 37696, Note_on_c, 1, 76, 127
2, 37728, Note_on_c, 1, 76, 0
2, 37728, Note_on_c, 1, 74, 117
2, 37760, Note_on_c, 1, 74, 0
2, 37760, Note_on_c, 1, 77, 127
2, 37792, Note_on_c, 1, 77, 0
2, 37792, Note_on_c, 1, 76, 119
2, 37824, Note_on_c, 1, 76, 0
2, 37824, Note_on_c, 1, 79, 127
2, 37856, Note_on_c, 1, 79, 0
2, 37856, Note_on_c, 1, 77, 116
2, 37888, Note_on_c, 1, 77, 0
2, 37888, Note_on_c, 1, 72, 107
2, 38016, Note_on_c, 1, 72, 0
2, 38432, Note_on_c, 1, 84, 108
2, 38464, Note_on_c, 1, 84, 0
2, 38464, Note_on_c, 1, 82, 114
2, 38496, Note_on_c, 1, 82, 0
2, 38496, Note_on_c, 1, 79, 110
2, 38528, Note_on_c, 1, 79, 0
2, 38528, Note_on_c, 1, 76, 110
2, 38560, Note_on_c, 1, 76, 0
2, 38560, Note_on_c, 1, 72, 109
2, 38592, Note_on_c, 1, 72, 0
2, 38592, Note_on_c, 1, 70, 110
2, 38624, Note_on_c, 1, 70, 0
2, 38624, Note_on_c, 1, 67, 108
2, 38656, Note_on_c, 1, 67, 0
2, 38656, Note_on_c, 1, 64, 111
2, 38688, Note_on_c, 1, 64, 0
2, 38688, Note_on_c, 1, 60, 105
2, 38720, Note_on_c, 1, 60, 0
2, 38720, Note_on_c, 1, 58, 118
2, 38752, Note_on_c, 1, 58, 0
2, 38752, Note_on_c, 1, 55, 119
2, 38784, Note_on_c, 1, 55, 0
2, 39072, Note_on_c, 1, 52, 113
2, 39104, Note_on_c, 1, 52, 0
2, 39104, Note_on_c, 1, 55, 126
2, 39136, Note_on_c, 1, 55, 0
2, 39136, Note_on_c, 1, 58, 127
2, 39168, Note_on_c, 1, 58, 0
2, 39168, Note_on_c, 1, 62, 127
2, 39200, Note_on_c, 1, 62, 0
2, 39200, Note_on_c, 1, 60, 117
2, 39232, Note_on_c, 1, 60, 0
2, 39232, Note_on_c, 1, 64, 127
2, 39264, Note_on_c, 1, 64, 0
2, 39264, Note_on_c, 1, 62, 117
2, 39296, Note_on_c, 1, 62, 0
2, 39296, Note_on_c, 1, 65, 127
2, 39328, Note_on_c, 1, 65, 0
2, 39328, Note_on_c, 1, 64, 118
2, 39360, Note_on_c, 1, 64, 0
2, 39360, Note_on_c, 1, 67, 127
2, 39392, Note_on_c, 1, 67, 0
2, 39392, Note_on_c, 1, 65, 122
2, 39424, Note_on_c, 1, 65, 0
2, 39424, Note_on_c, 1, 60, 104
2, 39552, Note_on_c, 1, 60, 0
2, 39616, Note_on_c, 1, 60, 113
2, 39680, Note_on_c, 1, 60, 0
2, 39680, Note_on_c, 1, 65, 127
2, 39712, Note_on_c, 1, 65, 0
2, 39712, Note_on_c, 1, 64, 118
2, 39744, Note_on_c, 1, 64, 0
2, 39744, Note_on_c, 1, 67, 127
2, 39776, Note_on_c, 1, 67, 0
2, 39776, Note_on_c, 1, 65, 120
2, 39808, Note_on_c, 1, 65, 0
2, 39808, Note_on_c, 1, 69, 127
2, 39840, Note_on_c, 1, 69, 0
2, 39840, Note_on_c, 1, 65, 110
2, 39872, Note_on_c, 1, 65, 0
2, 39872, Note_on_c, 1, 60, 107
2, 39904, Note_on_c, 1, 60, 0
2, 39904, Note_on_c, 1, 69, 127
2, 39936, Note_on_c, 1, 69, 0
2, 39936, Note_on_c, 1, 65, 115
2, 39968, Note_on_c, 1, 65, 0
2, 39968, Note_on_c, 1, 62, 113
2, 40000, Note_on_c, 1, 62, 0
2, 40000, Note_on_c, 1, 89, 127
2, 40192, Note_on_c, 1, 89, 0
2, 40192, Note_on_c, 1, 67, 97
2, 40224, Note_on_c, 1, 67, 0
2, 40224, Note_on_c, 1, 69, 127
2, 40256, Note_on_c, 1, 69, 0
2, 40256, Note_on_c, 1, 67, 114
2, 40288, Note_on_c, 1, 67, 0
2, 40288, Note_on_c, 1, 69, 127
2, 40320, Note_on_c, 1, 69, 0
2, 40320, Note_on_c, 1, 67, 116
2, 40341, Note_on_c, 1, 67, 0
2, 40341, Note_on_c, 1, 69, 127
2, 40362, Note_on_c, 1, 69, 0
2, 40362, Note_on_c, 1, 67, 120
2, 40384, Note_on_c, 1, 67, 0
2, 40384, Note_on_c, 1, 69, 127
2, 40405, Note_on_c, 1, 69, 0
2, 40405, Note_on_c, 1, 67, 117
2, 40426, Note_on_c, 1, 67, 0
2, 40426, Note_on_c, 1, 69, 127
2, 40448, Note_on_c, 1, 69, 0
2, 40448, Note_on_c, 1, 67, 117
2, 40469, Note_on_c, 1, 67, 0
2, 40469, Note_on_c, 1, 69, 127
2, 40490, Note_on_c, 1, 69, 0
2, 40490, Note_on_c, 1, 67, 118
2, 40512, Note_on_c, 1, 67, 0
2, 40512, Note_on_c, 1, 69, 127
2, 40533, Note_on_c, 1, 69, 0
2, 40533, Note_on_c, 1, 67, 117
2, 40554, Note_on_c, 1, 67, 0
2, 40554, Note_on_c, 1, 69, 127
2, 40576, Note_on_c, 1, 69, 0
2, 40576, Note_on_c, 1, 67, 117
2, 40608, Note_on_c, 1, 67, 0
2, 40608, Note_on_c, 1, 69, 127
2, 40640, Note_on_c, 1, 69, 0
2, 40640, Note_on_c, 1, 65, 113
2, 40672, Note_on_c, 1, 65, 0
2, 40672, Note_on_c, 1, 67, 127
2, 40704, Note_on_c, 1, 67, 0
2, 40704, Note_on_c, 1, 65, 116
2, 40704, Note_on_c, 1, 57, 58
2, 40768, Note_on_c, 1, 57, 0
2, 40768, Note_on_c, 1, 60, 62
2, 40832, Note_on_c, 1, 60, 0
2, 40832, Note_on_c, 1, 57, 55
2, 40896, Note_on_c, 1, 57, 0
2, 40896, Note_on_c, 1, 60, 68
2, 40960, Note_on_c, 1, 60, 0
2, 40960, Note_on_c, 1, 65, 0
2, 40960, Note_on_c, 1, 57, 59
2, 40992, Note_on_c, 1, 81, 124
2, 41008, Note_on_c, 1, 81, 0
2, 41024, Note_on_c, 1, 57, 0
2, 41024, Note_on_c, 1, 79, 126
2, 41024, Note_on_c, 1, 60, 63
2, 41040, Note_on_c, 1, 79, 0
2, 41056, Note_on_c, 1, 77, 127
2, 41072, Note_on_c, 1, 77, 0
2, 41088, Note_on_c, 1, 60, 0
2, 41088, Note_on_c, 1, 76, 127
2, 41088, Note_on_c, 1, 57, 67
2, 41104, Note_on_c, 1, 76, 0
2, 41120, Note_on_c, 1, 74, 127
2, 41136, Note_on_c, 1, 74, 0
2, 41152, Note_on_c, 1, 57, 0
2, 41152, Note_on_c, 1, 72, 127
2, 41152, Note_on_c, 1, 60, 71
2, 41168, Note_on_c, 1, 72, 0
2, 41184, Note_on_c, 1, 70, 119
2, 41200, Note_on_c, 1, 70, 0
2, 41216, Note_on_c, 1, 60, 0
2, 41216, Note_on_c, 1, 69, 115
2, 41216, Note_on_c, 1, 57, 74
2, 41280, Note_on_c, 1, 57, 0
2, 41280, Note_on_c, 1, 69, 0
2, 41280, Note_on_c, 1, 67, 118
2, 41280, Note_on_c, 1, 60, 82
2, 41344, Note_on_c, 1, 60, 0
2, 41344, Note_on_c, 1, 67, 0
2, 41344, Note_on_c, 1, 69, 127
2, 41344, Note_on_c, 1, 57, 72
2, 41408, Note_on_c, 1, 57, 0
2, 41408, Note_on_c, 1, 69, 0
2, 41408, Note_on_c, 1, 70, 127
2, 41408, Note_on_c, 1, 60, 74
2, 41472, Note_on_c, 1, 60, 0
2, 41472, Note_on_c, 1, 70, 0
2, 41472, Note_on_c, 1, 71, 127
2, 41472, Note_on_c, 1, 55, 68
2, 41536, Note_on_c, 1, 55, 0
2, 41536, Note_on_c, 1, 71, 0
2, 41536, Note_on_c, 1, 72, 127
2, 41536, Note_on_c, 1, 60, 83
2, 41600, Note_on_c, 1, 60, 0
2, 41600, Note_on_c, 1, 58, 73
2, 41664, Note_on_c, 1, 58, 0
2, 41664, Note_on_c, 1, 60, 76
2, 41728, Note_on_c, 1, 60, 0
2, 41728, Note_on_c, 1, 72, 0
2, 41728, Note_on_c, 1, 58, 70
2, 41760, Note_on_c, 1, 82, 121
2, 41776, Note_on_c, 1, 82, 0
2, 41792, Note_on_c, 1, 58, 0
2, 41792, Note_on_c, 1, 81, 120
2, 41792, Note_on_c, 1, 60, 78
2, 41808, Note_on_c, 1, 81, 0
2, 41824, Note_on_c, 1, 79, 114
2, 41840, Note_on_c, 1, 79, 0
2, 41856, Note_on_c, 1, 60, 0
2, 41856, Note_on_c, 1, 77, 119
2, 41856, Note_on_c, 1, 58, 74
2, 41872, Note_on_c, 1, 77, 0
2, 41888, Note_on_c, 1, 76, 116
2, 41904, Note_on_c, 1, 76, 0
2, 41920, Note_on_c, 1, 58, 0
2, 41920, Note_on_c, 1, 74, 114
2, 41920, Note_on_c, 1, 60, 77
2, 41936, Note_on_c, 1, 74, 0
2, 41952, Note_on_c, 1, 72, 121
2, 41968, Note_on_c, 1, 72, 0
2, 41984, Note_on_c, 1, 60, 0
2, 41984, Note_on_c, 1, 71, 119
2, 41984, Note_on_c, 1, 55, 71
2, 42048, Note_on_c, 1, 55, 0
2, 42048, Note_on_c, 1, 71, 0
2, 42048, Note_on_c, 1, 72, 127
2, 42048, Note_on_c, 1, 60, 81
2, 42112, Note_on_c, 1, 60, 0
2, 42112, Note_on_c, 1, 72, 0
2, 42112, Note_on_c, 1, 74, 127
2, 42112, Note_on_c, 1, 58, 70
2, 42176, Note_on_c, 1, 58, 0
2, 42176, Note_on_c, 1, 74, 0
2, 42176, Note_on_c, 1, 70, 114
2, 42176, Note_on_c, 1, 60, 80
2, 42240, Note_on_c, 1, 60, 0
2, 42240, Note_on_c, 1, 70, 0
2, 42240, Note_on_c, 1, 68, 115
2, 42240, Note_on_c, 1, 57, 70
2, 42304, Note_on_c, 1, 57, 0
2, 42304, Note_on_c, 1, 68, 0
2, 42304, Note_on_c, 1, 69, 127
2, 42304, Note_on_c, 1, 60, 78
2, 42368, Note_on_c, 1, 60, 0
2, 42368, Note_on_c, 1, 57, 69
2, 42432, Note_on_c, 1, 57, 0
2, 42432, Note_on_c, 1, 60, 75
2, 42496, Note_on_c, 1, 60, 0
2, 42496, Note_on_c, 1, 69, 0
2, 42496, Note_on_c, 1, 45, 60
2, 42528, Note_on_c, 1, 60, 114
2, 42528, Note_on_c, 1, 72, 114
2, 42544, Note_on_c, 1, 72, 0
2, 42544, Note_on_c, 1, 60, 0
2, 42560, Note_on_c, 1, 45, 0
2, 42560, Note_on_c, 1, 62, 127
2, 42560, Note_on_c, 1, 74, 127
2, 42560, Note_on_c, 1, 48, 76
2, 42576, Note_on_c, 1, 74, 0
2, 42576, Note_on_c, 1, 62, 0
2, 42592, Note_on_c, 1, 64, 127
2, 42592, Note_on_c, 1, 76, 127
2, 42608, Note_on_c, 1, 76, 0
2, 42608, Note_on_c, 1, 64, 0
2, 42624, Note_on_c, 1, 48, 0
2, 42624, Note_on_c, 1, 65, 127
2, 42624, Note_on_c, 1, 77, 127
2, 42624, Note_on_c, 1, 45, 68
2, 42640, Note_on_c, 1, 77, 0
2, 42640, Note_on_c, 1, 65, 0
2, 42656, Note_on_c, 1, 67, 127
2, 42656, Note_on_c, 1, 79, 127
2, 42672, Note_on_c, 1, 79, 0
2, 42672, Note_on_c, 1, 67, 0
2, 42688, Note_on_c, 1, 45, 0
2, 42688, Note_on_c, 1, 69, 127
2, 42688, Note_on_c, 1, 81, 127
2, 42688, Note_on_c, 1, 48, 76
2, 42704, Note_on_c, 1, 81, 0
2, 42704, Note_on_c, 1, 69, 0
2, 42720, Note_on_c, 1, 70, 127
2, 42720, Note_on_c, 1, 82, 127
2, 42736, Note_on_c, 1, 82, 0
2, 42736, Note_on_c, 1, 70, 0
2, 42752, Note_on_c, 1, 48, 0
2, 42752, Note_on_c, 1, 72, 127
2, 42752, Note_on_c, 1, 84, 127
2, 42752, Note_on_c, 1, 45, 71
2, 42816, Note_on_c, 1, 45, 0
2, 42816, Note_on_c, 1, 84, 0
2, 42816, Note_on_c, 1, 72, 0
2, 42816, Note_on_c, 1, 74, 127
2, 42816, Note_on_c, 1, 86, 127
2, 42816, Note_on_c, 1, 48, 85
2, 42880, Note_on_c, 1, 48, 0
2, 42880, Note_on_c, 1, 86, 0
2, 42880, Note_on_c, 1, 74, 0
2, 42880, Note_on_c, 1, 76, 127
2, 42880, Note_on_c, 1, 88, 127
2, 42880, Note_on_c, 1, 45, 69
2, 42944, Note_on_c, 1, 45, 0
2, 42944, Note_on_c, 1, 88, 0
2, 42944, Note_on_c, 1, 76, 0
2, 42944, Note_on_c, 1, 77, 127
2, 42944, Note_on_c, 1, 89, 127
2, 42944, Note_on_c, 1, 48, 75
2, 43008, Note_on_c, 1, 48, 0
2, 43008, Note_on_c, 1, 89, 0
2, 43008, Note_on_c, 1, 77, 0
2, 43008, Note_on_c, 1, 77, 127
2, 43008, Note_on_c, 1, 89, 127
2, 43008, Note_on_c, 1, 46, 72
2, 43072, Note_on_c, 1, 46, 0
2, 43072, Note_on_c, 1, 48, 73
2, 43136, Note_on_c, 1, 48, 0
2, 43136, Note_on_c, 1, 46, 68
2, 43200, Note_on_c, 1, 46, 0
2, 43200, Note_on_c, 1, 89, 0
2, 43200, Note_on_c, 1, 77, 0
2, 43200, Note_on_c, 1, 76, 123
2, 43200, Note_on_c, 1, 88, 123
2, 43200, Note_on_c, 1, 48, 74
2, 43264, Note_on_c, 1, 48, 0
2, 43264, Note_on_c, 1, 48, 79
2, 43328, Note_on_c, 1, 48, 0
2, 43328, Note_on_c, 1, 88, 0
2, 43328, Note_on_c, 1, 76, 0
2, 43328, Note_on_c, 1, 74, 117
2, 43328, Note_on_c, 1, 86, 117
2, 43328, Note_on_c, 1, 52, 81
2, 43392, Note_on_c, 1, 52, 0
2, 43392, Note_on_c, 1, 48, 71
2, 43456, Note_on_c, 1, 48, 0
2, 43456, Note_on_c, 1, 86, 0
2, 43456, Note_on_c, 1, 74, 0
2, 43456, Note_on_c, 1, 72, 116
2, 43456, Note_on_c, 1, 84, 116
2, 43456, Note_on_c, 1, 52, 76
2, 43520, Note_on_c, 1, 52, 0
2, 43520, Note_on_c, 1, 48, 69
2, 43584, Note_on_c, 1, 48, 0
2, 43584, Note_on_c, 1, 84, 0
2, 43584, Note_on_c, 1, 72, 0
2, 43584, Note_on_c, 1, 70, 118
2, 43584, Note_on_c, 1, 82, 118
2, 43584, Note_on_c, 1, 52, 76
2, 43648, Note_on_c, 1, 52, 0
2, 43648, Note_on_c, 1, 48, 67
2, 43712, Note_on_c, 1, 48, 0
2, 43712, Note_on_c, 1, 82, 0
2, 43712, Note_on_c, 1, 70, 0
2, 43712, Note_on_c, 1, 69, 120
2, 43712, Note_on_c, 1, 81, 120
2, 43712, Note_on_c, 1, 53, 76
2, 43776, Note_on_c, 1, 53, 0
2, 43776, Note_on_c, 1, 50, 68
2, 43840, Note_on_c, 1, 50, 0
2, 43840, Note_on_c, 1, 81, 0
2, 43840, Note_on_c, 1, 69, 0
2, 43840, Note_on_c, 1, 67, 122
2, 43840, Note_on_c, 1, 79, 122
2, 43840, Note_on_c, 1, 55, 79
2, 43904, Note_on_c, 1, 55, 0
2, 43904, Note_on_c, 1, 51, 72
2, 43968, Note_on_c, 1, 51, 0
2, 43968, Note_on_c, 1, 79, 0
2, 43968, Note_on_c, 1, 67, 0
2, 43968, Note_on_c, 1, 66, 119
2, 43968, Note_on_c, 1, 78, 119
2, 43968, Note_on_c, 1, 55, 75
2, 44032, Note_on_c, 1, 55, 0
2, 44032, Note_on_c, 1, 50, 71
2, 44096, Note_on_c, 1, 50, 0
2, 44096, Note_on_c, 1, 78, 0
2, 44096, Note_on_c, 1, 66, 0
2, 44096, Note_on_c, 1, 67, 127
2, 44096, Note_on_c, 1, 79, 127
2, 44096, Note_on_c, 1, 55, 78
2, 44160, Note_on_c, 1, 55, 0
2, 44160, Note_on_c, 1, 50, 73
2, 44224, Note_on_c, 1, 50, 0
2, 44224, Note_on_c, 1, 79, 0
2, 44224, Note_on_c, 1, 67, 0
2, 44224, Note_on_c, 1, 65, 118
2, 44224, Note_on_c, 1, 77, 118
2, 44224, Note_on_c, 1, 56, 80
2, 44288, Note_on_c, 1, 56, 0
2, 44288, Note_on_c, 1, 52, 69
2, 44352, Note_on_c, 1, 52, 0
2, 44352, Note_on_c, 1, 77, 0
2, 44352, Note_on_c, 1, 65, 0
2, 44352, Note_on_c, 1, 64, 120
2, 44352, Note_on_c, 1, 76, 120
2, 44352, Note_on_c, 1, 55, 73
2, 44416, Note_on_c, 1, 55, 0
2, 44416, Note_on_c, 1, 55, 71
2, 44480, Note_on_c, 1, 55, 0
2, 44480, Note_on_c, 1, 76, 0
2, 44480, Note_on_c, 1, 64, 0
2, 44480, Note_on_c, 1, 70, 127
2, 44480, Note_on_c, 1, 82, 127
2, 44480, Note_on_c, 1, 60, 85
2, 44544, Note_on_c, 1, 60, 0
2, 44544, Note_on_c, 1, 57, 74
2, 44608, Note_on_c, 1, 57, 0
2, 44608, Note_on_c, 1, 82, 0
2, 44608, Note_on_c, 1, 70, 0
2, 44608, Note_on_c, 1, 69, 120
2, 44608, Note_on_c, 1, 81, 120
2, 44608, Note_on_c, 1, 60, 83
2, 44672, Note_on_c, 1, 60, 0
2, 44672, Note_on_c, 1, 60, 75
2, 44736, Note_on_c, 1, 60, 0
2, 44736, Note_on_c, 1, 81, 0
2, 44736, Note_on_c, 1, 69, 0
2, 44736, Note_on_c, 1, 73, 127
2, 44736, Note_on_c, 1, 85, 127
2, 44736, Note_on_c, 1, 65, 80
2, 44800, Note_on_c, 1, 65, 0
2, 44800, Note_on_c, 1, 62, 67
2, 44864, Note_on_c, 1, 62, 0
2, 44864, Note_on_c, 1, 85, 0
2, 44864, Note_on_c, 1, 73, 0
2, 44864, Note_on_c, 1, 74, 127
2, 44864, Note_on_c, 1, 86, 127
2, 44864, Note_on_c, 1, 65, 76
2, 45248, Note_on_c, 1, 65, 0
2, 45248, Note_on_c, 1, 86, 0
2, 45248, Note_on_c, 1, 74, 0
2, 45312, Note_on_c, 1, 71, 67
2, 45312, Note_on_c, 1, 74, 67
2, 45376, Note_on_c, 1, 74, 0
2, 45376, Note_on_c, 1, 71, 0
2, 45568, Note_on_c, 1, 80, 112
2, 45568, Note_on_c, 1, 89, 112
2, 45952, Note_on_c, 1, 89, 0
2, 45952, Note_on_c, 1, 80, 0
2, 46080, Note_on_c, 1, 60, 61
2, 46250, Note_on_c, 1, 60, 0
2, 46250, Note_on_c, 1, 65, 84
2, 46293, Note_on_c, 1, 65, 0
2, 46293, Note_on_c, 1, 69, 84
2, 46336, Note_on_c, 1, 69, 0
2, 46336, Note_on_c, 1, 72, 81
2, 46378, Note_on_c, 1, 72, 0
2, 46378, Note_on_c, 1, 77, 84
2, 46421, Note_on_c, 1, 77, 0
2, 46421, Note_on_c, 1, 81, 84
2, 46464, Note_on_c, 1, 81, 0
2, 46464, Note_on_c, 1, 84, 82
2, 46515, Note_on_c, 1, 84, 0
2, 46720, Note_on_c, 1, 58, 55
2, 46720, Note_on_c, 1, 64, 55
2, 46848, Note_on_c, 1, 64, 0
2, 46848, Note_on_c, 1, 58, 0
2, 46848, Note_on_c, 1, 58, 64
2, 46848, Note_on_c, 1, 67, 64
2, 46912, Note_on_c, 1, 49, 60
2, 46976, Note_on_c, 1, 49, 0
2, 46976, Note_on_c, 1, 48, 59
2, 47040, Note_on_c, 1, 48, 0
2, 47040, Note_on_c, 1, 52, 59
2, 47104, Note_on_c, 1, 52, 0
2, 47104, Note_on_c, 1, 67, 0
2, 47104, Note_on_c, 1, 58, 0
2, 47104, Note_on_c, 1, 57, 57
2, 47104, Note_on_c, 1, 65, 57
2, 47104, Note_on_c, 1, 53, 58
2, 47168, Note_on_c, 1, 65, 0
2, 47168, Note_on_c, 1, 57, 0
2, 47168, Note_on_c, 1, 60, 55
2, 47232, Note_on_c, 1, 60, 0
2, 47232, Note_on_c, 1, 69, 70
2, 47296, Note_on_c, 1, 69, 0
2, 47296, Note_on_c, 1, 65, 57
2, 47360, Note_on_c, 1, 53, 0
2, 47360, Note_on_c, 1, 65, 0
2, 47360, Note_on_c, 1, 72, 70
2, 47552, Note_on_c, 1, 72, 0
2, 47552, Note_on_c, 1, 58, 50
2, 47552, Note_on_c, 1, 64, 50
2, 47616, Note_on_c, 1, 64, 0
2, 47616, Note_on_c, 1, 58, 0
2, 47616, Note_on_c, 1, 58, 65
2, 47616, Note_on_c, 1, 67, 65
2, 47680, Note_on_c, 1, 49, 49
2, 47744, Note_on_c, 1, 49, 0
2, 47744, Note_on_c, 1, 48, 47
2, 47808, Note_on_c, 1, 48, 0
2, 47808, Note_on_c, 1, 52, 48
2, 47872, Note_on_c, 1, 52, 0
2, 47872, Note_on_c, 1, 67, 0
2, 47872, Note_on_c, 1, 58, 0
2, 47872, Note_on_c, 1, 57, 56
2, 47872, Note_on_c, 1, 65, 56
2, 47872, Note_on_c, 1, 53, 46
2, 47936, Note_on_c, 1, 65, 0
2, 47936, Note_on_c, 1, 57, 0
2, 47936, Note_on_c, 1, 60, 53
2, 48000, Note_on_c, 1, 60, 0
2, 48000, Note_on_c, 1, 69, 75
2, 48064, Note_on_c, 1, 69, 0
2, 48064, Note_on_c, 1, 65, 60
2, 48128, Note_on_c, 1, 53, 0
2, 48128, Note_on_c, 1, 65, 0
2, 48128, Note_on_c, 1, 74, 60
2, 48192, Note_on_c, 1, 74, 0
2, 48192, Note_on_c, 1, 72, 59
2, 48320, Note_on_c, 1, 72, 0
2, 48320, Note_on_c, 1, 58, 58
2, 48320, Note_on_c, 1, 64, 58
2, 48384, Note_on_c, 1, 64, 0
2, 48384, Note_on_c, 1, 58, 0
2, 48384, Note_on_c, 1, 58, 57
2, 48384, Note_on_c, 1, 67, 57
2, 48448, Note_on_c, 1, 49, 44
2, 48512, Note_on_c, 1, 49, 0
2, 48512, Note_on_c, 1, 48, 44
2, 48576, Note_on_c, 1, 48, 0
2, 48576, Note_on_c, 1, 52, 43
2, 48640, Note_on_c, 1, 52, 0
2, 48640, Note_on_c, 1, 67, 0
2, 48640, Note_on_c, 1, 58, 0
2, 48640, Note_on_c, 1, 57, 55
2, 48640, Note_on_c, 1, 65, 55
2, 48640, Note_on_c, 1, 53, 42
2, 48886, Note_on_c, 1, 65, 0
2, 48886, Note_on_c, 1, 57, 0
2, 48886, Note_on_c, 1, 60, 53
2, 48896, Note_on_c, 1, 60, 0
2, 48896, Note_on_c, 1, 69, 53
2, 49152, Note_on_c, 1, 53, 0
2, 49152, Note_on_c, 1, 69, 0
2, 49152, Note_on_c, 1, 45, 50
2, 49408, Note_on_c, 1, 45, 0
2, 49408, Note_on_c, 1, 53, 50
2, 50688, Note_on_c, 1, 53, 0
2, 50689, End_track
3, 0, Start_track
3, 0, Control_c, 0, 121, 0
3, 0, Control_c, 0, 64, 0
3, 0, Control_c, 0, 91, 48
3, 0, Control_c, 0, 10, 51
3, 0, Control_c, 0, 7, 100
3, 0, Program_c, 0, 0
3, 0, Title_t, "Piano"
3, 6912, Note_on_c, 0, 65, 66
3, 7424, Note_on_c, 0, 65, 0
3, 7424, Note_on_c, 0, 65, 76
3, 7680, Note_on_c, 0, 65, 0
3, 7680, Note_on_c, 0, 64, 72
3, 8192, Note_on_c, 0, 64, 0
3, 8192, Note_on_c, 0, 64, 80
3, 8448, Note_on_c, 0, 64, 0
3, 8448, Note_on_c, 0, 62, 67
3, 8704, Note_on_c, 0, 62, 0
3, 13312, Note_on_c, 0, 55, 69
3, 13824, Note_on_c, 0, 55, 0
3, 13824, Note_on_c, 0, 60, 72
3, 13952, Note_on_c, 0, 60, 0
3, 13952, Note_on_c, 0, 60, 66
3, 14080, Note_on_c, 0, 60, 0
3, 14080, Note_on_c, 0, 60, 64
3, 14208, Note_on_c, 0, 60, 0
3, 14208, Note_on_c, 0, 60, 56
3, 14336, Note_on_c, 0, 60, 0
3, 14336, Note_on_c, 0, 60, 56
3, 14464, Note_on_c, 0, 60, 0
3, 14464, Note_on_c, 0, 60, 61
3, 14592, Note_on_c, 0, 60, 0
3, 14592, Note_on_c, 0, 59, 57
3, 14720, Note_on_c, 0, 59, 0
3, 14720, Note_on_c, 0, 59, 70
3, 14720, Note_on_c, 0, 62, 70
3, 14848, Note_on_c, 0, 62, 0
3, 14848, Note_on_c, 0, 59, 0
3, 14848, Note_on_c, 0, 59, 66
3, 14848, Note_on_c, 0, 62, 66
3, 14976, Note_on_c, 0, 62, 0
3, 14976, Note_on_c, 0, 59, 0
3, 14976, Note_on_c, 0, 59, 60
3, 14976, Note_on_c, 0, 62, 60
3, 15104, Note_on_c, 0, 62, 0
3, 15104, Note_on_c, 0, 59, 0
3, 15104, Note_on_c, 0, 59, 63
3, 15104, Note_on_c, 0, 62, 63
3, 15232, Note_on_c, 0, 62, 0
3, 15232, Note_on_c, 0, 59, 0
3, 15232, Note_on_c, 0, 59, 64
3, 15232, Note_on_c, 0, 62, 64
3, 15360, Note_on_c, 0, 62, 0
3, 15360, Note_on_c, 0, 59, 0
3, 15360, Note_on_c, 0, 60, 53
3, 15488, Note_on_c, 0, 60, 0
3, 15488, Note_on_c, 0, 60, 63
3, 15616, Note_on_c, 0, 60, 0
3, 15616, Note_on_c, 0, 48, 60
3, 15744, Note_on_c, 0, 48, 0
3, 15744, Note_on_c, 0, 48, 62
3, 15872, Note_on_c, 0, 48, 0
3, 15872, Note_on_c, 0, 48, 63
3, 16000, Note_on_c, 0, 48, 0
3, 16000, Note_on_c, 0, 48, 65
3, 16128, Note_on_c, 0, 48, 0
3, 16128, Note_on_c, 0, 47, 66
3, 16256, Note_on_c, 0, 47, 0
3, 16256, Note_on_c, 0, 47, 68
3, 16256, Note_on_c, 0, 50, 68
3, 16384, Note_on_c, 0, 50, 0
3, 16384, Note_on_c, 0, 47, 0
3, 16384, Note_on_c, 0, 47, 69
3, 16384, Note_on_c, 0, 50, 69
3, 16512, Note_on_c, 0, 50, 0
3, 16512, Note_on_c, 0, 47, 0
3, 16512, Note_on_c, 0, 47, 70
3, 16512, Note_on_c, 0, 50, 70
3, 16640, Note_on_c, 0, 50, 0
3, 16640, Note_on_c, 0, 47, 0
3, 16640, Note_on_c, 0, 47, 72
3, 16640, Note_on_c, 0, 50, 72
3, 16768, Note_on_c, 0, 50, 0
3, 16768, Note_on_c, 0, 47, 0
3, 16768, Note_on_c, 0, 47, 76
3, 16768, Note_on_c, 0, 50, 76
3, 16896, Note_on_c, 0, 50, 0
3, 16896, Note_on_c, 0, 47, 0
3, 16896, Note_on_c, 0, 48, 99
3, 16896, Note_on_c, 0, 52, 99
3, 17152, Note_on_c, 0, 52, 0
3, 17152, Note_on_c, 0, 48, 0
3, 17408, Note_on_c, 0, 43, 94
3, 17664, Note_on_c, 0, 43, 0
3, 17664, Note_on_c, 0, 48, 61
3, 18150, Note_on_c, 0, 48, 0
3, 18432, Note_on_c, 0, 39, 57
3, 18944, Note_on_c, 0, 39, 0
3, 18944, Note_on_c, 0, 51, 70
3, 19200, Note_on_c, 0, 51, 0
3, 19200, Note_on_c, 0, 50, 62
3, 19968, Note_on_c, 0, 50, 0
3, 19968, Note_on_c, 0, 52, 60
3, 20736, Note_on_c, 0, 52, 0
3, 20736, Note_on_c, 0, 53, 68
3, 21248, Note_on_c, 0, 53, 0
3, 21248, Note_on_c, 0, 54, 77
3, 21504, Note_on_c, 0, 54, 0
3, 21504, Note_on_c, 0, 55, 74
3, 22272, Note_on_c, 0, 55, 0
3, 22272, Note_on_c, 0, 60, 97
3, 22272, Note_on_c, 0, 64, 97
3, 22528, Note_on_c, 0, 64, 0
3, 22528, Note_on_c, 0, 60, 0
3, 22528, Note_on_c, 0, 61, 72
3, 22528, Note_on_c, 0, 65, 72
3, 23040, Note_on_c, 0, 65, 0
3, 23040, Note_on_c, 0, 61, 0
3, 23040, Note_on_c, 0, 62, 77
3, 23040, Note_on_c, 0, 65, 77
3, 23296, Note_on_c, 0, 65, 0
3, 23296, Note_on_c, 0, 62, 0
3, 23296, Note_on_c, 0, 63, 73
3, 23296, Note_on_c, 0, 66, 73
3, 23808, Note_on_c, 0, 66, 0
3, 23808, Note_on_c, 0, 63, 0
3, 23808, Note_on_c, 0, 64, 76
3, 23808, Note_on_c, 0, 67, 76
3, 24576, Note_on_c, 0, 67, 0
3, 24576, Note_on_c, 0, 64, 0
3, 25600, Note_on_c, 0, 55, 42
3, 25600, Note_on_c, 0, 58, 42
3, 25600, Note_on_c, 0, 60, 42
3, 26112, Note_on_c, 0, 60, 0
3, 26112, Note_on_c, 0, 58, 0
3, 26112, Note_on_c, 0, 55, 0
3, 26112, Note_on_c, 0, 41, 64
3, 26132, Note_on_c, 0, 45, 64
3, 26152, Note_on_c, 0, 48, 64
3, 26172, Note_on_c, 0, 53, 64
3, 26368, Note_on_c, 0, 53, 0
3, 26368, Note_on_c, 0, 48, 0
3, 26368, Note_on_c, 0, 45, 0
3, 26368, Note_on_c, 0, 41, 0
3, 26368, Note_on_c, 0, 53, 44
3, 26368, Note_on_c, 0, 57, 44
3, 26624, Note_on_c, 0, 57, 0
3, 26624, Note_on_c, 0, 53, 0
3, 26624, Note_on_c, 0, 53, 47
3, 26624, Note_on_c, 0, 58, 47
3, 26624, Note_on_c, 0, 64, 47
3, 26880, Note_on_c, 0, 64, 0
3, 26880, Note_on_c, 0, 58, 0
3, 26880, Note_on_c, 0, 53, 0
3, 26880, Note_on_c, 0, 53, 39
3, 26880, Note_on_c, 0, 57, 39
3, 27136, Note_on_c, 0, 57, 0
3, 27136, Note_on_c, 0, 53, 0
3, 27648, Note_on_c, 0, 58, 66
3, 27648, Note_on_c, 0, 62, 66
3, 27712, Note_on_c, 0, 62, 0
3, 27712, Note_on_c, 0, 58, 0
3, 28864, Note_on_c, 0, 48, 41
3, 28896, Note_on_c, 0, 48, 0
3, 28896, Note_on_c, 0, 36, 37
3, 28928, Note_on_c, 0, 36, 0
3, 28928, Note_on_c, 0, 47, 47
3, 28960, Note_on_c, 0, 47, 0
3, 28960, Note_on_c, 0, 35, 39
3, 28992, Note_on_c, 0, 35, 0
3, 28992, Note_on_c, 0, 46, 49
3, 29024, Note_on_c, 0, 46, 0
3, 29024, Note_on_c, 0, 34, 36
3, 29056, Note_on_c, 0, 34, 0
3, 29056, Note_on_c, 0, 45, 47
3, 29088, Note_on_c, 0, 45, 0
3, 29088, Note_on_c, 0, 33, 40
3, 29120, Note_on_c, 0, 33, 0
3, 29120, Note_on_c, 0, 43, 43
3, 29152, Note_on_c, 0, 43, 0
3, 29152, Note_on_c, 0, 31, 39
3, 29184, Note_on_c, 0, 31, 0
3, 29184, Note_on_c, 0, 29, 44
3, 29184, Note_on_c, 0, 41, 44
3, 29440, Note_on_c, 0, 41, 0
3, 29440, Note_on_c, 0, 29, 0
3, 29440, Note_on_c, 0, 53, 50
3, 29440, Note_on_c, 0, 57, 50
3, 29696, Note_on_c, 0, 57, 0
3, 29696, Note_on_c, 0, 53, 0
3, 29696, Note_on_c, 0, 53, 52
3, 29696, Note_on_c, 0, 58, 52
3, 29696, Note_on_c, 0, 64, 52
3, 29952, Note_on_c, 0, 64, 0
3, 29952, Note_on_c, 0, 58, 0
3, 29952, Note_on_c, 0, 53, 0
3, 29952, Note_on_c, 0, 53, 39
3, 29952, Note_on_c, 0, 57, 39
3, 29952, Note_on_c, 0, 60, 39
3, 30208, Note_on_c, 0, 60, 0
3, 30208, Note_on_c, 0, 57, 0
3, 30208, Note_on_c, 0, 53, 0
3, 30208, Note_on_c, 0, 33, 40
3, 30208, Note_on_c, 0, 45, 40
3, 30720, Note_on_c, 0, 45, 0
3, 30720, Note_on_c, 0, 33, 0
3, 30720, Note_on_c, 0, 34, 42
3, 30720, Note_on_c, 0, 46, 42
3, 31232, Note_on_c, 0, 46, 0
3, 31232, Note_on_c, 0, 34, 0
3, 31232, Note_on_c, 0, 48, 49
3, 31232, Note_on_c, 0, 58, 49
3, 31488, Note_on_c, 0, 58, 0
3, 31488, Note_on_c, 0, 48, 0
3, 31488, Note_on_c, 0, 53, 42
3, 31488, Note_on_c, 0, 58, 42
3, 31744, Note_on_c, 0, 58, 0
3, 31744, Note_on_c, 0, 53, 0
3, 31744, Note_on_c, 0, 53, 43
3, 31744, Note_on_c, 0, 57, 43
3, 31795, Note_on_c, 0, 57, 0
3, 31795, Note_on_c, 0, 53, 0
3, 32320, Note_on_c, 0, 41, 42
3, 32352, Note_on_c, 0, 41, 0
3, 32384, Note_on_c, 0, 43, 43
3, 32416, Note_on_c, 0, 43, 0
3, 32448, Note_on_c, 0, 44, 41
3, 32480, Note_on_c, 0, 44, 0
3, 32512, Note_on_c, 0, 46, 48
3, 32544, Note_on_c, 0, 46, 0
3, 32576, Note_on_c, 0, 48, 47
3, 32608, Note_on_c, 0, 48, 0
3, 32640, Note_on_c, 0, 49, 47
3, 32672, Note_on_c, 0, 49, 0
3, 32704, Note_on_c, 0, 47, 43
3, 32736, Note_on_c, 0, 47, 0
3, 32768, Note_on_c, 0, 48, 45
3, 32800, Note_on_c, 0, 48, 0
3, 32832, Note_on_c, 0, 61, 49
3, 32864, Note_on_c, 0, 61, 0
3, 32896, Note_on_c, 0, 60, 39
3, 32928, Note_on_c, 0, 60, 0
3, 32960, Note_on_c, 0, 58, 39
3, 32992, Note_on_c, 0, 58, 0
3, 33088, Note_on_c, 0, 41, 43
3, 33152, Note_on_c, 0, 41, 0
3, 33152, Note_on_c, 0, 43, 44
3, 33216, Note_on_c, 0, 43, 0
3, 33216, Note_on_c, 0, 45, 46
3, 33280, Note_on_c, 0, 45, 0
3, 33280, Note_on_c, 0, 46, 47
3, 33344, Note_on_c, 0, 46, 0
3, 33344, Note_on_c, 0, 48, 48
3, 33408, Note_on_c, 0, 48, 0
3, 33408, Note_on_c, 0, 49, 50
3, 33472, Note_on_c, 0, 49, 0
3, 33472, Note_on_c, 0, 47, 51
3, 33536, Note_on_c, 0, 47, 0
3, 33536, Note_on_c, 0, 48, 53
3, 33587, Note_on_c, 0, 48, 0
3, 33600, Note_on_c, 0, 61, 54
3, 33664, Note_on_c, 0, 61, 0
3, 33664, Note_on_c, 0, 60, 57
3, 33728, Note_on_c, 0, 60, 0
3, 33728, Note_on_c, 0, 58, 54
3, 33760, Note_on_c, 0, 58, 0
3, 33792, Note_on_c, 0, 56, 56
3, 33792, Note_on_c, 0, 60, 56
3, 34048, Note_on_c, 0, 60, 0
3, 34048, Note_on_c, 0, 56, 0
3, 34048, Note_on_c, 0, 58, 62
3, 34048, Note_on_c, 0, 61, 62
3, 34432, Note_on_c, 0, 61, 0
3, 34432, Note_on_c, 0, 58, 0
3, 34432, Note_on_c, 0, 59, 59
3, 34432, Note_on_c, 0, 62, 59
3, 34560, Note_on_c, 0, 62, 0
3, 34560, Note_on_c, 0, 59, 0
3, 34560, Note_on_c, 0, 60, 53
3, 35328, Note_on_c, 0, 60, 0
3, 35328, Note_on_c, 0, 60, 55
3, 35392, Note_on_c, 0, 60, 0
3, 35392, Note_on_c, 0, 61, 57
3, 35456, Note_on_c, 0, 61, 0
3, 35456, Note_on_c, 0, 60, 58
3, 35520, Note_on_c, 0, 60, 0
3, 35520, Note_on_c, 0, 59, 59
3, 35584, Note_on_c, 0, 59, 0
3, 35584, Note_on_c, 0, 60, 60
3, 35648, Note_on_c, 0, 60, 0
3, 35648, Note_on_c, 0, 61, 61
3, 35712, Note_on_c, 0, 61, 0
3, 35712, Note_on_c, 0, 60, 62
3, 35776, Note_on_c, 0, 60, 0
3, 35776, Note_on_c, 0, 59, 63
3, 35840, Note_on_c, 0, 59, 0
3, 35840, Note_on_c, 0, 60, 65
3, 35904, Note_on_c, 0, 60, 0
3, 35904, Note_on_c, 0, 61, 66
3, 35968, Note_on_c, 0, 61, 0
3, 35968, Note_on_c, 0, 60, 67
3, 36032, Note_on_c, 0, 60, 0
3, 36032, Note_on_c, 0, 59, 62
3, 36096, Note_on_c, 0, 59, 0
3, 36096, Note_on_c, 0, 60, 68
3, 36160, Note_on_c, 0, 60, 0
3, 36160, Note_on_c, 0, 61, 69
3, 36224, Note_on_c, 0, 61, 0
3, 36224, Note_on_c, 0, 60, 70
3, 36288, Note_on_c, 0, 60, 0
3, 36288, Note_on_c, 0, 59, 71
3, 36352, Note_on_c, 0, 59, 0
3, 36352, Note_on_c, 0, 60, 72
3, 36416, Note_on_c, 0, 60, 0
3, 36416, Note_on_c, 0, 61, 73
3, 36480, Note_on_c, 0, 61, 0
3, 36480, Note_on_c, 0, 60, 74
3, 36544, Note_on_c, 0, 60, 0
3, 36544, Note_on_c, 0, 59, 75
3, 36608, Note_on_c, 0, 59, 0
3, 36608, Note_on_c, 0, 60, 77
3, 36633, Note_on_c, 0, 60, 0
3, 36928, Note_on_c, 0, 48, 71
3, 36992, Note_on_c, 0, 48, 0
3, 36992, Note_on_c, 0, 43, 73
3, 37056, Note_on_c, 0, 43, 0
3, 37056, Note_on_c, 0, 40, 79
3, 37120, Note_on_c, 0, 40, 0
3, 37120, Note_on_c, 0, 36, 73
3, 37376, Note_on_c, 0, 36, 0
3, 37504, Note_on_c, 0, 58, 75
3, 37504, Note_on_c, 0, 64, 75
3, 37632, Note_on_c, 0, 64, 0
3, 37632, Note_on_c, 0, 58, 0
3, 37632, Note_on_c, 0, 57, 88
3, 37632, Note_on_c, 0, 65, 88
3, 37888, Note_on_c, 0, 65, 0
3, 37888, Note_on_c, 0, 57, 0
3, 38080, Note_on_c, 0, 60, 74
3, 38144, Note_on_c, 0, 60, 0
3, 38144, Note_on_c, 0, 59, 76
3, 38176, Note_on_c, 0, 59, 0
3, 38176, Note_on_c, 0, 60, 84
3, 38208, Note_on_c, 0, 60, 0
3, 38208, Note_on_c, 0, 62, 84
3, 38240, Note_on_c, 0, 62, 0
3, 38240, Note_on_c, 0, 60, 77
3, 38272, Note_on_c, 0, 60, 0
3, 38272, Note_on_c, 0, 58, 76
3, 38304, Note_on_c, 0, 58, 0
3, 38304, Note_on_c, 0, 57, 84
3, 38336, Note_on_c, 0, 57, 0
3, 38336, Note_on_c, 0, 55, 76
3, 38368, Note_on_c, 0, 55, 0
3, 38368, Note_on_c, 0, 53, 79
3, 38400, Note_on_c, 0, 53, 0
3, 38400, Note_on_c, 0, 52, 76
3, 38448, Note_on_c, 0, 52, 0
3, 38784, Note_on_c, 0, 52, 71
3, 38816, Note_on_c, 0, 52, 0
3, 38816, Note_on_c, 0, 48, 73
3, 38848, Note_on_c, 0, 48, 0
3, 38848, Note_on_c, 0, 46, 77
3, 38880, Note_on_c, 0, 46, 0
3, 38880, Note_on_c, 0, 43, 81
3, 38912, Note_on_c, 0, 43, 0
3, 38912, Note_on_c, 0, 40, 84
3, 38944, Note_on_c, 0, 40, 0
3, 38944, Note_on_c, 0, 43, 84
3, 38976, Note_on_c, 0, 43, 0
3, 38976, Note_on_c, 0, 40, 76
3, 39008, Note_on_c, 0, 40, 0
3, 39008, Note_on_c, 0, 36, 77
3, 39040, Note_on_c, 0, 36, 0
3, 39040, Note_on_c, 0, 34, 76
3, 39168, Note_on_c, 0, 34, 0
3, 39168, Note_on_c, 0, 33, 83
3, 39552, Note_on_c, 0, 33, 0
3, 39680, Note_on_c, 0, 45, 71
3, 39680, Note_on_c, 0, 48, 71
3, 39680, Note_on_c, 0, 53, 71
3, 39936, Note_on_c, 0, 53, 0
3, 39936, Note_on_c, 0, 48, 0
3, 39936, Note_on_c, 0, 45, 0
3, 39936, Note_on_c, 0, 46, 74
3, 39936, Note_on_c, 0, 50, 74
3, 39936, Note_on_c, 0, 53, 74
3, 40192, Note_on_c, 0, 53, 0
3, 40192, Note_on_c, 0, 50, 0
3, 40192, Note_on_c, 0, 46, 0
3, 40192, Note_on_c, 0, 48, 77
3, 40448, Note_on_c, 0, 52, 86
3, 40448, Note_on_c, 0, 58, 86
3, 40704, Note_on_c, 0, 58, 0
3, 40704, Note_on_c, 0, 52, 0
3, 40704, Note_on_c, 0, 48, 0
3, 40704, Note_on_c, 0, 53, 56
3, 40832, Note_on_c, 0, 53, 0
3, 40832, Note_on_c, 0, 53, 56
3, 40960, Note_on_c, 0, 53, 0
3, 40960, Note_on_c, 0, 53, 58
3, 41088, Note_on_c, 0, 53, 0
3, 41088, Note_on_c, 0, 53, 63
3, 41216, Note_on_c, 0, 53, 0
3, 41216, Note_on_c, 0, 53, 64
3, 41344, Note_on_c, 0, 53, 0
3, 41344, Note_on_c, 0, 53, 62
3, 41472, Note_on_c, 0, 53, 0
3, 41472, Note_on_c, 0, 52, 60
3, 41600, Note_on_c, 0, 52, 0
3, 41600, Note_on_c, 0, 52, 61
3, 41600, Note_on_c, 0, 55, 61
3, 41728, Note_on_c, 0, 55, 0
3, 41728, Note_on_c, 0, 52, 0
3, 41728, Note_on_c, 0, 52, 57
3, 41728, Note_on_c, 0, 55, 57
3, 41856, Note_on_c, 0, 55, 0
3, 41856, Note_on_c, 0, 52, 0
3, 41856, Note_on_c, 0, 52, 64
3, 41856, Note_on_c, 0, 55, 64
3, 41984, Note_on_c, 0, 55, 0
3, 41984, Note_on_c, 0, 52, 0
3, 41984, Note_on_c, 0, 52, 56
3, 42112, Note_on_c, 0, 52, 0
3, 42112, Note_on_c, 0, 52, 60
3, 42240, Note_on_c, 0, 52, 0
3, 42240, Note_on_c, 0, 53, 62
3, 42368, Note_on_c, 0, 53, 0
3, 42368, Note_on_c, 0, 53, 59
3, 42496, Note_on_c, 0, 53, 0
3, 42496, Note_on_c, 0, 41, 51
3, 42624, Note_on_c, 0, 41, 0
3, 42624, Note_on_c, 0, 41, 61
3, 42752, Note_on_c, 0, 41, 0
3, 42752, Note_on_c, 0, 41, 62
3, 42880, Note_on_c, 0, 41, 0
3, 42880, Note_on_c, 0, 41, 59
3, 43008, Note_on_c, 0, 41, 0
3, 43008, Note_on_c, 0, 43, 61
3, 43136, Note_on_c, 0, 43, 0
3, 43136, Note_on_c, 0, 43, 62
3, 43264, Note_on_c, 0, 43, 0
3, 43264, Note_on_c, 0, 43, 65
3, 43264, Note_on_c, 0, 46, 65
3, 43392, Note_on_c, 0, 46, 0
3, 43392, Note_on_c, 0, 43, 0
3, 43392, Note_on_c, 0, 43, 58
3, 43392, Note_on_c, 0, 46, 58
3, 43520, Note_on_c, 0, 46, 0
3, 43520, Note_on_c, 0, 43, 0
3, 43520, Note_on_c, 0, 43, 60
3, 43520, Note_on_c, 0, 46, 60
3, 43648, Note_on_c, 0, 46, 0
3, 43648, Note_on_c, 0, 43, 0
3, 43648, Note_on_c, 0, 45, 58
3, 43776, Note_on_c, 0, 45, 0
3, 43776, Note_on_c, 0, 46, 62
3, 43904, Note_on_c, 0, 46, 0
3, 43904, Note_on_c, 0, 48, 60
3, 44032, Note_on_c, 0, 48, 0
3, 44032, Note_on_c, 0, 46, 57
3, 44160, Note_on_c, 0, 46, 0
3, 44160, Note_on_c, 0, 47, 64
3, 44288, Note_on_c, 0, 47, 0
3, 44288, Note_on_c, 0, 48, 61
3, 44416, Note_on_c, 0, 48, 0
3, 44416, Note_on_c, 0, 52, 64
3, 44544, Note_on_c, 0, 52, 0
3, 44544, Note_on_c, 0, 53, 65
3, 44672, Note_on_c, 0, 53, 0
3, 44672, Note_on_c, 0, 57, 63
3, 44800, Note_on_c, 0, 57, 0
3, 44800, Note_on_c, 0, 58, 63
3, 44928, Note_on_c, 0, 58, 0
3, 46592, Note_on_c, 0, 36, 60
3, 46848, Note_on_c, 0, 36, 0
3, 46848, Note_on_c, 0, 41, 64
3, 47360, Note_on_c, 0, 41, 0
3, 47488, Note_on_c, 0, 36, 57
3, 47616, Note_on_c, 0, 36, 0
3, 47616, Note_on_c, 0, 41, 65
3, 48128, Note_on_c, 0, 41, 0
3, 48256, Note_on_c, 0, 36, 53
3, 48384, Note_on_c, 0, 36, 0
3, 48384, Note_on_c, 0, 41, 66
3, 49152, Note_on_c, 0, 41, 0
3, 49152, Control_c, 0, 64, 127
3, 49152, Note_on_c, 0, 29, 60
3, 49152, Note_on_c, 0, 41, 60
3, 50944, Note_on_c, 0, 41, 0
3, 50944, Note_on_c, 0, 29, 0
3, 50944, Control_c, 0, 64, 0
3, 51424, Note_on_c, 0, 5, 32
3, 51456, Note_on_c, 0, 5, 0
3, 51457, End_track
0, 0, End_of_file
