0, 0, Header, 1, 6, 96
1, 0, Start_track
1, 0, Copyright_t, "Copyright  2000 <copyright holder>"
1, 0, Text_t, "Sonata I\015\012"
1, 0, Text_t, "Haydn\015\012"
1, 0, Sequencer_specific, 16, 68, 87, 77, 90, 86, 82, 83, 78, 32, 55, 46, 49, 46, 50, 46, 48
1, 0, Time_signature, 3, 2, 24, 8
1, 0, Tempo, 500000
1, 0, Key_signature, -4, "major"
1, 192, Tempo, 428571
1, 2496, Tempo, 428571
1, 6912, Tempo, 750000
1, 7104, Tempo, 428571
1, 10944, Tempo, 750000
1, 11136, Tempo, 428571
1, 29952, Tempo, 750000
1, 30144, Tempo, 428571
1, 33984, Tempo, 750000
1, 34176, Tempo, 428571
1, 36000, End_track
2, 0, Start_track
2, 0, Program_c, 0, 0
2, 0, Control_c, 0, 7, 127
2, 0, Control_c, 0, 10, 64
2, 192, Note_on_c, 0, 75, 79
2, 259, Note_on_c, 0, 75, 0
2, 264, Note_on_c, 0, 75, 79
2, 287, Note_on_c, 0, 75, 0
2, 288, Note_on_c, 0, 75, 95
2, 384, Note_on_c, 0, 75, 0
2, 480, Note_on_c, 0, 80, 79
2, 547, Note_on_c, 0, 80, 0
2, 552, Note_on_c, 0, 80, 79
2, 575, Note_on_c, 0, 80, 0
2, 576, Note_on_c, 0, 80, 95
2, 672, Note_on_c, 0, 80, 0
2, 768, Note_on_c, 0, 72, 79
2, 768, Note_on_c, 0, 68, 79
2, 835, Note_on_c, 0, 72, 0
2, 835, Note_on_c, 0, 68, 0
2, 840, Note_on_c, 0, 72, 79
2, 840, Note_on_c, 0, 68, 79
2, 863, Note_on_c, 0, 72, 0
2, 863, Note_on_c, 0, 68, 0
2, 864, Note_on_c, 0, 72, 95
2, 864, Note_on_c, 0, 68, 95
2, 960, Note_on_c, 0, 72, 0
2, 960, Note_on_c, 0, 68, 0
2, 960, Note_on_c, 0, 73, 79
2, 960, Note_on_c, 0, 70, 79
2, 999, Note_on_c, 0, 73, 0
2, 999, Note_on_c, 0, 70, 0
2, 1056, Note_on_c, 0, 77, 79
2, 1056, Note_on_c, 0, 73, 79
2, 1095, Note_on_c, 0, 77, 0
2, 1095, Note_on_c, 0, 73, 0
2, 1152, Note_on_c, 0, 70, 79
2, 1152, Note_on_c, 0, 67, 79
2, 1329, Note_on_c, 0, 70, 0
2, 1329, Note_on_c, 0, 67, 0
2, 1344, Note_on_c, 0, 63, 79
2, 1411, Note_on_c, 0, 63, 0
2, 1416, Note_on_c, 0, 63, 79
2, 1439, Note_on_c, 0, 63, 0
2, 1440, Note_on_c, 0, 68, 79
2, 1479, Note_on_c, 0, 68, 0
2, 1536, Note_on_c, 0, 68, 79
2, 1575, Note_on_c, 0, 68, 0
2, 1632, Note_on_c, 0, 68, 79
2, 1671, Note_on_c, 0, 68, 0
2, 1728, Note_on_c, 0, 70, 79
2, 1817, Note_on_c, 0, 70, 0
2, 1920, Note_on_c, 0, 70, 79
2, 1987, Note_on_c, 0, 70, 0
2, 1992, Note_on_c, 0, 70, 79
2, 2015, Note_on_c, 0, 70, 0
2, 2016, Note_on_c, 0, 72, 79
2, 2055, Note_on_c, 0, 72, 0
2, 2112, Note_on_c, 0, 72, 81
2, 2151, Note_on_c, 0, 72, 0
2, 2208, Note_on_c, 0, 74, 84
2, 2208, Note_on_c, 0, 68, 84
2, 2297, Note_on_c, 0, 74, 0
2, 2297, Note_on_c, 0, 68, 0
2, 2304, Note_on_c, 0, 75, 87
2, 2304, Note_on_c, 0, 67, 87
2, 2393, Note_on_c, 0, 75, 0
2, 2393, Note_on_c, 0, 67, 0
2, 2496, Note_on_c, 0, 75, 79
2, 2563, Note_on_c, 0, 75, 0
2, 2568, Note_on_c, 0, 75, 79
2, 2591, Note_on_c, 0, 75, 0
2, 2592, Note_on_c, 0, 75, 95
2, 2688, Note_on_c, 0, 75, 0
2, 2784, Note_on_c, 0, 80, 79
2, 2851, Note_on_c, 0, 80, 0
2, 2856, Note_on_c, 0, 80, 79
2, 2879, Note_on_c, 0, 80, 0
2, 2880, Note_on_c, 0, 80, 95
2, 2976, Note_on_c, 0, 80, 0
2, 3072, Note_on_c, 0, 72, 79
2, 3072, Note_on_c, 0, 68, 79
2, 3139, Note_on_c, 0, 72, 0
2, 3139, Note_on_c, 0, 68, 0
2, 3144, Note_on_c, 0, 72, 79
2, 3144, Note_on_c, 0, 68, 79
2, 3167, Note_on_c, 0, 72, 0
2, 3167, Note_on_c, 0, 68, 0
2, 3168, Note_on_c, 0, 72, 95
2, 3168, Note_on_c, 0, 68, 95
2, 3264, Note_on_c, 0, 72, 0
2, 3264, Note_on_c, 0, 68, 0
2, 3264, Note_on_c, 0, 73, 79
2, 3264, Note_on_c, 0, 70, 79
2, 3303, Note_on_c, 0, 73, 0
2, 3303, Note_on_c, 0, 70, 0
2, 3360, Note_on_c, 0, 77, 79
2, 3360, Note_on_c, 0, 73, 79
2, 3399, Note_on_c, 0, 77, 0
2, 3399, Note_on_c, 0, 73, 0
2, 3456, Note_on_c, 0, 70, 79
2, 3456, Note_on_c, 0, 67, 79
2, 3633, Note_on_c, 0, 70, 0
2, 3633, Note_on_c, 0, 67, 0
2, 3648, Note_on_c, 0, 63, 79
2, 3715, Note_on_c, 0, 63, 0
2, 3720, Note_on_c, 0, 63, 79
2, 3743, Note_on_c, 0, 63, 0
2, 3744, Note_on_c, 0, 68, 79
2, 3783, Note_on_c, 0, 68, 0
2, 3840, Note_on_c, 0, 68, 79
2, 3879, Note_on_c, 0, 68, 0
2, 3936, Note_on_c, 0, 68, 79
2, 3975, Note_on_c, 0, 68, 0
2, 4032, Note_on_c, 0, 70, 79
2, 4121, Note_on_c, 0, 70, 0
2, 4224, Note_on_c, 0, 70, 79
2, 4291, Note_on_c, 0, 70, 0
2, 4296, Note_on_c, 0, 70, 79
2, 4319, Note_on_c, 0, 70, 0
2, 4320, Note_on_c, 0, 72, 79
2, 4359, Note_on_c, 0, 72, 0
2, 4416, Note_on_c, 0, 72, 81
2, 4455, Note_on_c, 0, 72, 0
2, 4512, Note_on_c, 0, 74, 84
2, 4512, Note_on_c, 0, 68, 84
2, 4601, Note_on_c, 0, 74, 0
2, 4601, Note_on_c, 0, 68, 0
2, 4608, Note_on_c, 0, 75, 87
2, 4608, Note_on_c, 0, 67, 87
2, 4697, Note_on_c, 0, 75, 0
2, 4697, Note_on_c, 0, 67, 0
2, 4800, Note_on_c, 0, 75, 79
2, 4867, Note_on_c, 0, 75, 0
2, 4872, Note_on_c, 0, 75, 79
2, 4895, Note_on_c, 0, 75, 0
2, 4896, Note_on_c, 0, 75, 95
2, 4992, Note_on_c, 0, 75, 0
2, 4992, Note_on_c, 0, 75, 79
2, 5081, Note_on_c, 0, 75, 0
2, 5088, Note_on_c, 0, 77, 79
2, 5155, Note_on_c, 0, 77, 0
2, 5160, Note_on_c, 0, 77, 79
2, 5183, Note_on_c, 0, 77, 0
2, 5184, Note_on_c, 0, 77, 95
2, 5280, Note_on_c, 0, 77, 0
2, 5280, Note_on_c, 0, 82, 79
2, 5369, Note_on_c, 0, 82, 0
2, 5376, Note_on_c, 0, 75, 79
2, 5443, Note_on_c, 0, 75, 0
2, 5448, Note_on_c, 0, 75, 79
2, 5471, Note_on_c, 0, 75, 0
2, 5472, Note_on_c, 0, 75, 95
2, 5568, Note_on_c, 0, 75, 0
2, 5568, Note_on_c, 0, 80, 79
2, 5657, Note_on_c, 0, 80, 0
2, 5664, Note_on_c, 0, 72, 79
2, 5731, Note_on_c, 0, 72, 0
2, 5736, Note_on_c, 0, 72, 79
2, 5759, Note_on_c, 0, 72, 0
2, 5760, Note_on_c, 0, 72, 95
2, 5856, Note_on_c, 0, 72, 0
2, 5856, Note_on_c, 0, 73, 81
2, 5945, Note_on_c, 0, 73, 0
2, 5952, Note_on_c, 0, 74, 84
2, 6041, Note_on_c, 0, 74, 0
2, 6048, Note_on_c, 0, 75, 87
2, 6137, Note_on_c, 0, 75, 0
2, 6144, Note_on_c, 0, 75, 87
2, 6233, Note_on_c, 0, 75, 0
2, 6240, Note_on_c, 0, 77, 87
2, 6307, Note_on_c, 0, 77, 0
2, 6312, Note_on_c, 0, 79, 87
2, 6335, Note_on_c, 0, 79, 0
2, 6336, Note_on_c, 0, 75, 87
2, 6425, Note_on_c, 0, 75, 0
2, 6432, Note_on_c, 0, 75, 87
2, 6521, Note_on_c, 0, 75, 0
2, 6528, Note_on_c, 0, 82, 87
2, 6595, Note_on_c, 0, 82, 0
2, 6600, Note_on_c, 0, 82, 87
2, 6624, Note_on_c, 0, 82, 0
2, 6624, Note_on_c, 0, 75, 87
2, 6713, Note_on_c, 0, 75, 0
2, 6720, Note_on_c, 0, 75, 87
2, 6809, Note_on_c, 0, 75, 0
2, 6816, Note_on_c, 0, 82, 87
2, 6883, Note_on_c, 0, 82, 0
2, 6888, Note_on_c, 0, 82, 87
2, 6912, Note_on_c, 0, 82, 0
2, 6912, Note_on_c, 0, 75, 87
2, 7001, Note_on_c, 0, 75, 0
2, 7104, Note_on_c, 0, 63, 87
2, 7104, Note_on_c, 0, 60, 87
2, 7171, Note_on_c, 0, 63, 0
2, 7171, Note_on_c, 0, 60, 0
2, 7176, Note_on_c, 0, 63, 87
2, 7176, Note_on_c, 0, 60, 87
2, 7199, Note_on_c, 0, 63, 0
2, 7199, Note_on_c, 0, 60, 0
2, 7200, Note_on_c, 0, 63, 103
2, 7200, Note_on_c, 0, 60, 103
2, 7296, Note_on_c, 0, 63, 0
2, 7296, Note_on_c, 0, 60, 0
2, 7392, Note_on_c, 0, 84, 87
2, 7392, Note_on_c, 0, 80, 87
2, 7459, Note_on_c, 0, 84, 0
2, 7459, Note_on_c, 0, 80, 0
2, 7464, Note_on_c, 0, 84, 87
2, 7464, Note_on_c, 0, 80, 87
2, 7487, Note_on_c, 0, 84, 0
2, 7487, Note_on_c, 0, 80, 0
2, 7488, Note_on_c, 0, 84, 103
2, 7488, Note_on_c, 0, 80, 103
2, 7584, Note_on_c, 0, 84, 0
2, 7584, Note_on_c, 0, 80, 0
2, 7680, Note_on_c, 0, 72, 87
2, 7680, Note_on_c, 0, 69, 87
2, 7747, Note_on_c, 0, 72, 0
2, 7747, Note_on_c, 0, 69, 0
2, 7752, Note_on_c, 0, 72, 87
2, 7752, Note_on_c, 0, 69, 87
2, 7775, Note_on_c, 0, 72, 0
2, 7775, Note_on_c, 0, 69, 0
2, 7776, Note_on_c, 0, 72, 103
2, 7776, Note_on_c, 0, 69, 103
2, 7872, Note_on_c, 0, 72, 0
2, 7872, Note_on_c, 0, 69, 0
2, 7872, Note_on_c, 0, 73, 87
2, 7872, Note_on_c, 0, 70, 87
2, 7961, Note_on_c, 0, 73, 0
2, 7961, Note_on_c, 0, 70, 0
2, 7968, Note_on_c, 0, 70, 87
2, 7968, Note_on_c, 0, 67, 87
2, 8035, Note_on_c, 0, 70, 0
2, 8035, Note_on_c, 0, 67, 0
2, 8040, Note_on_c, 0, 70, 87
2, 8040, Note_on_c, 0, 67, 87
2, 8063, Note_on_c, 0, 70, 0
2, 8063, Note_on_c, 0, 67, 0
2, 8064, Note_on_c, 0, 70, 103
2, 8064, Note_on_c, 0, 67, 103
2, 8160, Note_on_c, 0, 70, 0
2, 8160, Note_on_c, 0, 67, 0
2, 8160, Note_on_c, 0, 72, 87
2, 8160, Note_on_c, 0, 68, 87
2, 8249, Note_on_c, 0, 72, 0
2, 8249, Note_on_c, 0, 68, 0
2, 8256, Note_on_c, 0, 75, 87
2, 8256, Note_on_c, 0, 72, 87
2, 8323, Note_on_c, 0, 75, 0
2, 8323, Note_on_c, 0, 72, 0
2, 8328, Note_on_c, 0, 75, 87
2, 8328, Note_on_c, 0, 72, 87
2, 8351, Note_on_c, 0, 75, 0
2, 8351, Note_on_c, 0, 72, 0
2, 8352, Note_on_c, 0, 75, 87
2, 8352, Note_on_c, 0, 72, 87
2, 8448, Note_on_c, 0, 75, 0
2, 8448, Note_on_c, 0, 72, 0
2, 8448, Note_on_c, 0, 77, 87
2, 8448, Note_on_c, 0, 73, 87
2, 8537, Note_on_c, 0, 77, 0
2, 8537, Note_on_c, 0, 73, 0
2, 8544, Note_on_c, 0, 67, 87
2, 8544, Note_on_c, 0, 61, 87
2, 8583, Note_on_c, 0, 67, 0
2, 8583, Note_on_c, 0, 61, 0
2, 8640, Note_on_c, 0, 68, 87
2, 8640, Note_on_c, 0, 60, 87
2, 8729, Note_on_c, 0, 68, 0
2, 8729, Note_on_c, 0, 60, 0
2, 8832, Note_on_c, 0, 75, 79
2, 8899, Note_on_c, 0, 75, 0
2, 8904, Note_on_c, 0, 75, 79
2, 8927, Note_on_c, 0, 75, 0
2, 8928, Note_on_c, 0, 75, 95
2, 9024, Note_on_c, 0, 75, 0
2, 9024, Note_on_c, 0, 75, 79
2, 9113, Note_on_c, 0, 75, 0
2, 9120, Note_on_c, 0, 77, 79
2, 9187, Note_on_c, 0, 77, 0
2, 9192, Note_on_c, 0, 77, 79
2, 9215, Note_on_c, 0, 77, 0
2, 9216, Note_on_c, 0, 77, 95
2, 9312, Note_on_c, 0, 77, 0
2, 9312, Note_on_c, 0, 82, 79
2, 9401, Note_on_c, 0, 82, 0
2, 9408, Note_on_c, 0, 75, 79
2, 9475, Note_on_c, 0, 75, 0
2, 9480, Note_on_c, 0, 75, 79
2, 9503, Note_on_c, 0, 75, 0
2, 9504, Note_on_c, 0, 75, 95
2, 9600, Note_on_c, 0, 75, 0
2, 9600, Note_on_c, 0, 80, 79
2, 9689, Note_on_c, 0, 80, 0
2, 9696, Note_on_c, 0, 72, 79
2, 9763, Note_on_c, 0, 72, 0
2, 9768, Note_on_c, 0, 72, 79
2, 9791, Note_on_c, 0, 72, 0
2, 9792, Note_on_c, 0, 72, 95
2, 9888, Note_on_c, 0, 72, 0
2, 9888, Note_on_c, 0, 73, 81
2, 9977, Note_on_c, 0, 73, 0
2, 9984, Note_on_c, 0, 74, 84
2, 10073, Note_on_c, 0, 74, 0
2, 10080, Note_on_c, 0, 75, 87
2, 10169, Note_on_c, 0, 75, 0
2, 10176, Note_on_c, 0, 75, 87
2, 10265, Note_on_c, 0, 75, 0
2, 10272, Note_on_c, 0, 77, 87
2, 10339, Note_on_c, 0, 77, 0
2, 10344, Note_on_c, 0, 79, 87
2, 10367, Note_on_c, 0, 79, 0
2, 10368, Note_on_c, 0, 75, 87
2, 10457, Note_on_c, 0, 75, 0
2, 10464, Note_on_c, 0, 75, 87
2, 10553, Note_on_c, 0, 75, 0
2, 10560, Note_on_c, 0, 82, 87
2, 10627, Note_on_c, 0, 82, 0
2, 10632, Note_on_c, 0, 82, 87
2, 10656, Note_on_c, 0, 82, 0
2, 10656, Note_on_c, 0, 75, 87
2, 10745, Note_on_c, 0, 75, 0
2, 10752, Note_on_c, 0, 75, 87
2, 10841, Note_on_c, 0, 75, 0
2, 10848, Note_on_c, 0, 82, 87
2, 10915, Note_on_c, 0, 82, 0
2, 10920, Note_on_c, 0, 82, 87
2, 10944, Note_on_c, 0, 82, 0
2, 10944, Note_on_c, 0, 75, 87
2, 11033, Note_on_c, 0, 75, 0
2, 11136, Note_on_c, 0, 63, 87
2, 11136, Note_on_c, 0, 60, 87
2, 11203, Note_on_c, 0, 63, 0
2, 11203, Note_on_c, 0, 60, 0
2, 11208, Note_on_c, 0, 63, 87
2, 11208, Note_on_c, 0, 60, 87
2, 11231, Note_on_c, 0, 63, 0
2, 11231, Note_on_c, 0, 60, 0
2, 11232, Note_on_c, 0, 63, 103
2, 11232, Note_on_c, 0, 60, 103
2, 11328, Note_on_c, 0, 63, 0
2, 11328, Note_on_c, 0, 60, 0
2, 11424, Note_on_c, 0, 84, 87
2, 11424, Note_on_c, 0, 80, 87
2, 11491, Note_on_c, 0, 84, 0
2, 11491, Note_on_c, 0, 80, 0
2, 11496, Note_on_c, 0, 84, 87
2, 11496, Note_on_c, 0, 80, 87
2, 11519, Note_on_c, 0, 84, 0
2, 11519, Note_on_c, 0, 80, 0
2, 11520, Note_on_c, 0, 84, 103
2, 11520, Note_on_c, 0, 80, 103
2, 11616, Note_on_c, 0, 84, 0
2, 11616, Note_on_c, 0, 80, 0
2, 11712, Note_on_c, 0, 72, 87
2, 11712, Note_on_c, 0, 69, 87
2, 11779, Note_on_c, 0, 72, 0
2, 11779, Note_on_c, 0, 69, 0
2, 11784, Note_on_c, 0, 72, 87
2, 11784, Note_on_c, 0, 69, 87
2, 11807, Note_on_c, 0, 72, 0
2, 11807, Note_on_c, 0, 69, 0
2, 11808, Note_on_c, 0, 72, 103
2, 11808, Note_on_c, 0, 69, 103
2, 11904, Note_on_c, 0, 72, 0
2, 11904, Note_on_c, 0, 69, 0
2, 11904, Note_on_c, 0, 73, 87
2, 11904, Note_on_c, 0, 70, 87
2, 11993, Note_on_c, 0, 73, 0
2, 11993, Note_on_c, 0, 70, 0
2, 12000, Note_on_c, 0, 70, 87
2, 12000, Note_on_c, 0, 67, 87
2, 12067, Note_on_c, 0, 70, 0
2, 12067, Note_on_c, 0, 67, 0
2, 12072, Note_on_c, 0, 70, 87
2, 12072, Note_on_c, 0, 67, 87
2, 12095, Note_on_c, 0, 70, 0
2, 12095, Note_on_c, 0, 67, 0
2, 12096, Note_on_c, 0, 70, 103
2, 12096, Note_on_c, 0, 67, 103
2, 12192, Note_on_c, 0, 70, 0
2, 12192, Note_on_c, 0, 67, 0
2, 12192, Note_on_c, 0, 72, 87
2, 12192, Note_on_c, 0, 68, 87
2, 12281, Note_on_c, 0, 72, 0
2, 12281, Note_on_c, 0, 68, 0
2, 12288, Note_on_c, 0, 75, 87
2, 12288, Note_on_c, 0, 72, 87
2, 12355, Note_on_c, 0, 75, 0
2, 12355, Note_on_c, 0, 72, 0
2, 12360, Note_on_c, 0, 75, 87
2, 12360, Note_on_c, 0, 72, 87
2, 12383, Note_on_c, 0, 75, 0
2, 12383, Note_on_c, 0, 72, 0
2, 12384, Note_on_c, 0, 75, 87
2, 12384, Note_on_c, 0, 72, 87
2, 12480, Note_on_c, 0, 75, 0
2, 12480, Note_on_c, 0, 72, 0
2, 12480, Note_on_c, 0, 77, 87
2, 12480, Note_on_c, 0, 73, 87
2, 12569, Note_on_c, 0, 77, 0
2, 12569, Note_on_c, 0, 73, 0
2, 12576, Note_on_c, 0, 67, 87
2, 12576, Note_on_c, 0, 61, 87
2, 12615, Note_on_c, 0, 67, 0
2, 12615, Note_on_c, 0, 61, 0
2, 12672, Note_on_c, 0, 68, 87
2, 12672, Note_on_c, 0, 60, 87
2, 12761, Note_on_c, 0, 68, 0
2, 12761, Note_on_c, 0, 60, 0
2, 12864, Note_on_c, 0, 72, 87
2, 12912, Note_on_c, 0, 72, 0
2, 12912, Note_on_c, 0, 73, 87
2, 12957, Note_on_c, 0, 73, 0
2, 12960, Note_on_c, 0, 77, 87
2, 13005, Note_on_c, 0, 77, 0
2, 13008, Note_on_c, 0, 75, 87
2, 13053, Note_on_c, 0, 75, 0
2, 13056, Note_on_c, 0, 73, 87
2, 13101, Note_on_c, 0, 73, 0
2, 13104, Note_on_c, 0, 72, 87
2, 13149, Note_on_c, 0, 72, 0
2, 13152, Note_on_c, 0, 72, 87
2, 13241, Note_on_c, 0, 72, 0
2, 13248, Note_on_c, 0, 72, 103
2, 13440, Note_on_c, 0, 72, 0
2, 13440, Note_on_c, 0, 79, 87
2, 13485, Note_on_c, 0, 79, 0
2, 13488, Note_on_c, 0, 80, 87
2, 13533, Note_on_c, 0, 80, 0
2, 13536, Note_on_c, 0, 84, 87
2, 13581, Note_on_c, 0, 84, 0
2, 13584, Note_on_c, 0, 80, 87
2, 13629, Note_on_c, 0, 80, 0
2, 13632, Note_on_c, 0, 79, 87
2, 13677, Note_on_c, 0, 79, 0
2, 13680, Note_on_c, 0, 77, 87
2, 13725, Note_on_c, 0, 77, 0
2, 13728, Note_on_c, 0, 75, 87
2, 13817, Note_on_c, 0, 75, 0
2, 13824, Note_on_c, 0, 75, 95
2, 14016, Note_on_c, 0, 75, 0
2, 14016, Note_on_c, 0, 79, 84
2, 14061, Note_on_c, 0, 79, 0
2, 14064, Note_on_c, 0, 80, 85
2, 14109, Note_on_c, 0, 80, 0
2, 14112, Note_on_c, 0, 84, 87
2, 14157, Note_on_c, 0, 84, 0
2, 14160, Note_on_c, 0, 80, 87
2, 14205, Note_on_c, 0, 80, 0
2, 14208, Note_on_c, 0, 79, 87
2, 14253, Note_on_c, 0, 79, 0
2, 14256, Note_on_c, 0, 77, 87
2, 14301, Note_on_c, 0, 77, 0
2, 14304, Note_on_c, 0, 75, 87
2, 14349, Note_on_c, 0, 75, 0
2, 14352, Note_on_c, 0, 74, 87
2, 14397, Note_on_c, 0, 74, 0
2, 14400, Note_on_c, 0, 82, 87
2, 14577, Note_on_c, 0, 82, 0
2, 14592, Note_on_c, 0, 80, 87
2, 14637, Note_on_c, 0, 80, 0
2, 14640, Note_on_c, 0, 79, 87
2, 14685, Note_on_c, 0, 79, 0
2, 14688, Note_on_c, 0, 79, 87
2, 14736, Note_on_c, 0, 79, 0
2, 14736, Note_on_c, 0, 77, 87
2, 14781, Note_on_c, 0, 77, 0
2, 14784, Note_on_c, 0, 75, 87
2, 14832, Note_on_c, 0, 75, 0
2, 14832, Note_on_c, 0, 77, 87
2, 14877, Note_on_c, 0, 77, 0
2, 14880, Note_on_c, 0, 74, 87
2, 14928, Note_on_c, 0, 74, 0
2, 14928, Note_on_c, 0, 77, 87
2, 14973, Note_on_c, 0, 77, 0
2, 14976, Note_on_c, 0, 75, 87
2, 15065, Note_on_c, 0, 75, 0
2, 15168, Note_on_c, 0, 72, 87
2, 15216, Note_on_c, 0, 72, 0
2, 15216, Note_on_c, 0, 73, 87
2, 15261, Note_on_c, 0, 73, 0
2, 15264, Note_on_c, 0, 77, 87
2, 15309, Note_on_c, 0, 77, 0
2, 15312, Note_on_c, 0, 75, 87
2, 15357, Note_on_c, 0, 75, 0
2, 15360, Note_on_c, 0, 73, 87
2, 15405, Note_on_c, 0, 73, 0
2, 15408, Note_on_c, 0, 72, 87
2, 15453, Note_on_c, 0, 72, 0
2, 15456, Note_on_c, 0, 72, 87
2, 15545, Note_on_c, 0, 72, 0
2, 15552, Note_on_c, 0, 72, 103
2, 15744, Note_on_c, 0, 72, 0
2, 15744, Note_on_c, 0, 79, 87
2, 15789, Note_on_c, 0, 79, 0
2, 15792, Note_on_c, 0, 80, 87
2, 15837, Note_on_c, 0, 80, 0
2, 15840, Note_on_c, 0, 84, 87
2, 15885, Note_on_c, 0, 84, 0
2, 15888, Note_on_c, 0, 80, 87
2, 15933, Note_on_c, 0, 80, 0
2, 15936, Note_on_c, 0, 79, 87
2, 15981, Note_on_c, 0, 79, 0
2, 15984, Note_on_c, 0, 77, 87
2, 16029, Note_on_c, 0, 77, 0
2, 16032, Note_on_c, 0, 75, 87
2, 16121, Note_on_c, 0, 75, 0
2, 16128, Note_on_c, 0, 75, 95
2, 16320, Note_on_c, 0, 75, 0
2, 16320, Note_on_c, 0, 79, 84
2, 16365, Note_on_c, 0, 79, 0
2, 16368, Note_on_c, 0, 80, 85
2, 16413, Note_on_c, 0, 80, 0
2, 16416, Note_on_c, 0, 84, 87
2, 16461, Note_on_c, 0, 84, 0
2, 16464, Note_on_c, 0, 80, 87
2, 16509, Note_on_c, 0, 80, 0
2, 16512, Note_on_c, 0, 79, 87
2, 16557, Note_on_c, 0, 79, 0
2, 16560, Note_on_c, 0, 77, 87
2, 16605, Note_on_c, 0, 77, 0
2, 16608, Note_on_c, 0, 75, 87
2, 16653, Note_on_c, 0, 75, 0
2, 16656, Note_on_c, 0, 74, 87
2, 16701, Note_on_c, 0, 74, 0
2, 16704, Note_on_c, 0, 82, 87
2, 16881, Note_on_c, 0, 82, 0
2, 16896, Note_on_c, 0, 80, 87
2, 16941, Note_on_c, 0, 80, 0
2, 16944, Note_on_c, 0, 79, 87
2, 16989, Note_on_c, 0, 79, 0
2, 16992, Note_on_c, 0, 79, 87
2, 17040, Note_on_c, 0, 79, 0
2, 17040, Note_on_c, 0, 77, 87
2, 17085, Note_on_c, 0, 77, 0
2, 17088, Note_on_c, 0, 75, 87
2, 17136, Note_on_c, 0, 75, 0
2, 17136, Note_on_c, 0, 77, 87
2, 17181, Note_on_c, 0, 77, 0
2, 17184, Note_on_c, 0, 74, 87
2, 17232, Note_on_c, 0, 74, 0
2, 17232, Note_on_c, 0, 77, 87
2, 17277, Note_on_c, 0, 77, 0
2, 17280, Note_on_c, 0, 75, 87
2, 17369, Note_on_c, 0, 75, 0
2, 17472, Note_on_c, 0, 77, 79
2, 17520, Note_on_c, 0, 77, 0
2, 17520, Note_on_c, 0, 75, 79
2, 17565, Note_on_c, 0, 75, 0
2, 17568, Note_on_c, 0, 75, 79
2, 17616, Note_on_c, 0, 75, 0
2, 17616, Note_on_c, 0, 73, 79
2, 17661, Note_on_c, 0, 73, 0
2, 17664, Note_on_c, 0, 73, 79
2, 17712, Note_on_c, 0, 73, 0
2, 17712, Note_on_c, 0, 75, 79
2, 17757, Note_on_c, 0, 75, 0
2, 17760, Note_on_c, 0, 72, 79
2, 17808, Note_on_c, 0, 72, 0
2, 17808, Note_on_c, 0, 73, 79
2, 17853, Note_on_c, 0, 73, 0
2, 17856, Note_on_c, 0, 70, 79
2, 18033, Note_on_c, 0, 70, 0
2, 18048, Note_on_c, 0, 72, 79
2, 18096, Note_on_c, 0, 72, 0
2, 18096, Note_on_c, 0, 70, 79
2, 18141, Note_on_c, 0, 70, 0
2, 18144, Note_on_c, 0, 70, 79
2, 18192, Note_on_c, 0, 70, 0
2, 18192, Note_on_c, 0, 68, 80
2, 18237, Note_on_c, 0, 68, 0
2, 18240, Note_on_c, 0, 67, 81
2, 18288, Note_on_c, 0, 67, 0
2, 18288, Note_on_c, 0, 68, 83
2, 18333, Note_on_c, 0, 68, 0
2, 18336, Note_on_c, 0, 67, 84
2, 18384, Note_on_c, 0, 67, 0
2, 18384, Note_on_c, 0, 68, 85
2, 18432, Note_on_c, 0, 72, 87
2, 18528, Note_on_c, 0, 72, 0
2, 18528, Note_on_c, 0, 68, 0
2, 18528, Note_on_c, 0, 70, 83
2, 18528, Note_on_c, 0, 67, 83
2, 18617, Note_on_c, 0, 70, 0
2, 18617, Note_on_c, 0, 67, 0
2, 18624, Note_on_c, 0, 72, 79
2, 18672, Note_on_c, 0, 72, 0
2, 18672, Note_on_c, 0, 73, 79
2, 18717, Note_on_c, 0, 73, 0
2, 18720, Note_on_c, 0, 77, 79
2, 18765, Note_on_c, 0, 77, 0
2, 18768, Note_on_c, 0, 75, 79
2, 18813, Note_on_c, 0, 75, 0
2, 18816, Note_on_c, 0, 73, 79
2, 18861, Note_on_c, 0, 73, 0
2, 18864, Note_on_c, 0, 72, 79
2, 18909, Note_on_c, 0, 72, 0
2, 18912, Note_on_c, 0, 72, 79
2, 19001, Note_on_c, 0, 72, 0
2, 19008, Note_on_c, 0, 72, 95
2, 19200, Note_on_c, 0, 72, 0
2, 19200, Note_on_c, 0, 79, 79
2, 19248, Note_on_c, 0, 79, 0
2, 19248, Note_on_c, 0, 80, 79
2, 19293, Note_on_c, 0, 80, 0
2, 19296, Note_on_c, 0, 84, 79
2, 19341, Note_on_c, 0, 84, 0
2, 19344, Note_on_c, 0, 80, 79
2, 19389, Note_on_c, 0, 80, 0
2, 19392, Note_on_c, 0, 79, 79
2, 19437, Note_on_c, 0, 79, 0
2, 19440, Note_on_c, 0, 77, 79
2, 19485, Note_on_c, 0, 77, 0
2, 19488, Note_on_c, 0, 75, 79
2, 19577, Note_on_c, 0, 75, 0
2, 19584, Note_on_c, 0, 75, 95
2, 19776, Note_on_c, 0, 75, 0
2, 19776, Note_on_c, 0, 73, 79
2, 19824, Note_on_c, 0, 73, 0
2, 19824, Note_on_c, 0, 72, 79
2, 19869, Note_on_c, 0, 72, 0
2, 19872, Note_on_c, 0, 72, 79
2, 19920, Note_on_c, 0, 72, 0
2, 19920, Note_on_c, 0, 70, 79
2, 19965, Note_on_c, 0, 70, 0
2, 19968, Note_on_c, 0, 68, 79
2, 20016, Note_on_c, 0, 68, 0
2, 20016, Note_on_c, 0, 70, 79
2, 20061, Note_on_c, 0, 70, 0
2, 20064, Note_on_c, 0, 67, 79
2, 20112, Note_on_c, 0, 67, 0
2, 20112, Note_on_c, 0, 70, 79
2, 20157, Note_on_c, 0, 70, 0
2, 20160, Note_on_c, 0, 68, 79
2, 20249, Note_on_c, 0, 68, 0
2, 20352, Note_on_c, 0, 77, 79
2, 20400, Note_on_c, 0, 77, 0
2, 20400, Note_on_c, 0, 75, 79
2, 20445, Note_on_c, 0, 75, 0
2, 20448, Note_on_c, 0, 75, 79
2, 20496, Note_on_c, 0, 75, 0
2, 20496, Note_on_c, 0, 73, 79
2, 20541, Note_on_c, 0, 73, 0
2, 20544, Note_on_c, 0, 73, 79
2, 20592, Note_on_c, 0, 73, 0
2, 20592, Note_on_c, 0, 75, 79
2, 20637, Note_on_c, 0, 75, 0
2, 20640, Note_on_c, 0, 72, 79
2, 20688, Note_on_c, 0, 72, 0
2, 20688, Note_on_c, 0, 73, 79
2, 20733, Note_on_c, 0, 73, 0
2, 20736, Note_on_c, 0, 70, 79
2, 20913, Note_on_c, 0, 70, 0
2, 20928, Note_on_c, 0, 72, 79
2, 20976, Note_on_c, 0, 72, 0
2, 20976, Note_on_c, 0, 70, 79
2, 21021, Note_on_c, 0, 70, 0
2, 21024, Note_on_c, 0, 70, 79
2, 21072, Note_on_c, 0, 70, 0
2, 21072, Note_on_c, 0, 68, 80
2, 21117, Note_on_c, 0, 68, 0
2, 21120, Note_on_c, 0, 67, 81
2, 21168, Note_on_c, 0, 67, 0
2, 21168, Note_on_c, 0, 68, 83
2, 21213, Note_on_c, 0, 68, 0
2, 21216, Note_on_c, 0, 67, 84
2, 21264, Note_on_c, 0, 67, 0
2, 21264, Note_on_c, 0, 68, 85
2, 21312, Note_on_c, 0, 72, 87
2, 21408, Note_on_c, 0, 72, 0
2, 21408, Note_on_c, 0, 68, 0
2, 21408, Note_on_c, 0, 70, 83
2, 21408, Note_on_c, 0, 67, 83
2, 21497, Note_on_c, 0, 70, 0
2, 21497, Note_on_c, 0, 67, 0
2, 21504, Note_on_c, 0, 72, 79
2, 21552, Note_on_c, 0, 72, 0
2, 21552, Note_on_c, 0, 73, 79
2, 21597, Note_on_c, 0, 73, 0
2, 21600, Note_on_c, 0, 77, 79
2, 21645, Note_on_c, 0, 77, 0
2, 21648, Note_on_c, 0, 75, 79
2, 21693, Note_on_c, 0, 75, 0
2, 21696, Note_on_c, 0, 73, 79
2, 21741, Note_on_c, 0, 73, 0
2, 21744, Note_on_c, 0, 72, 79
2, 21789, Note_on_c, 0, 72, 0
2, 21792, Note_on_c, 0, 72, 79
2, 21881, Note_on_c, 0, 72, 0
2, 21888, Note_on_c, 0, 72, 95
2, 22080, Note_on_c, 0, 72, 0
2, 22080, Note_on_c, 0, 79, 79
2, 22128, Note_on_c, 0, 79, 0
2, 22128, Note_on_c, 0, 80, 79
2, 22173, Note_on_c, 0, 80, 0
2, 22176, Note_on_c, 0, 84, 79
2, 22221, Note_on_c, 0, 84, 0
2, 22224, Note_on_c, 0, 80, 79
2, 22269, Note_on_c, 0, 80, 0
2, 22272, Note_on_c, 0, 79, 79
2, 22317, Note_on_c, 0, 79, 0
2, 22320, Note_on_c, 0, 77, 79
2, 22365, Note_on_c, 0, 77, 0
2, 22368, Note_on_c, 0, 75, 79
2, 22457, Note_on_c, 0, 75, 0
2, 22464, Note_on_c, 0, 75, 95
2, 22656, Note_on_c, 0, 75, 0
2, 22656, Note_on_c, 0, 73, 79
2, 22704, Note_on_c, 0, 73, 0
2, 22704, Note_on_c, 0, 72, 79
2, 22749, Note_on_c, 0, 72, 0
2, 22752, Note_on_c, 0, 72, 79
2, 22800, Note_on_c, 0, 72, 0
2, 22800, Note_on_c, 0, 70, 79
2, 22845, Note_on_c, 0, 70, 0
2, 22848, Note_on_c, 0, 68, 79
2, 22896, Note_on_c, 0, 68, 0
2, 22896, Note_on_c, 0, 70, 79
2, 22941, Note_on_c, 0, 70, 0
2, 22944, Note_on_c, 0, 67, 79
2, 22992, Note_on_c, 0, 67, 0
2, 22992, Note_on_c, 0, 70, 79
2, 23037, Note_on_c, 0, 70, 0
2, 23040, Note_on_c, 0, 68, 79
2, 23129, Note_on_c, 0, 68, 0
2, 23232, Note_on_c, 0, 75, 79
2, 23299, Note_on_c, 0, 75, 0
2, 23304, Note_on_c, 0, 75, 79
2, 23327, Note_on_c, 0, 75, 0
2, 23328, Note_on_c, 0, 75, 95
2, 23424, Note_on_c, 0, 75, 0
2, 23520, Note_on_c, 0, 80, 79
2, 23587, Note_on_c, 0, 80, 0
2, 23592, Note_on_c, 0, 80, 79
2, 23615, Note_on_c, 0, 80, 0
2, 23616, Note_on_c, 0, 80, 95
2, 23712, Note_on_c, 0, 80, 0
2, 23808, Note_on_c, 0, 72, 79
2, 23808, Note_on_c, 0, 68, 79
2, 23875, Note_on_c, 0, 72, 0
2, 23875, Note_on_c, 0, 68, 0
2, 23880, Note_on_c, 0, 72, 79
2, 23880, Note_on_c, 0, 68, 79
2, 23903, Note_on_c, 0, 72, 0
2, 23903, Note_on_c, 0, 68, 0
2, 23904, Note_on_c, 0, 72, 95
2, 23904, Note_on_c, 0, 68, 95
2, 24000, Note_on_c, 0, 72, 0
2, 24000, Note_on_c, 0, 68, 0
2, 24000, Note_on_c, 0, 73, 79
2, 24000, Note_on_c, 0, 70, 79
2, 24039, Note_on_c, 0, 73, 0
2, 24039, Note_on_c, 0, 70, 0
2, 24096, Note_on_c, 0, 77, 79
2, 24096, Note_on_c, 0, 73, 79
2, 24135, Note_on_c, 0, 77, 0
2, 24135, Note_on_c, 0, 73, 0
2, 24192, Note_on_c, 0, 70, 79
2, 24192, Note_on_c, 0, 67, 79
2, 24369, Note_on_c, 0, 70, 0
2, 24369, Note_on_c, 0, 67, 0
2, 24384, Note_on_c, 0, 63, 79
2, 24451, Note_on_c, 0, 63, 0
2, 24456, Note_on_c, 0, 63, 79
2, 24479, Note_on_c, 0, 63, 0
2, 24480, Note_on_c, 0, 68, 79
2, 24519, Note_on_c, 0, 68, 0
2, 24576, Note_on_c, 0, 68, 79
2, 24615, Note_on_c, 0, 68, 0
2, 24672, Note_on_c, 0, 68, 79
2, 24711, Note_on_c, 0, 68, 0
2, 24768, Note_on_c, 0, 70, 79
2, 24857, Note_on_c, 0, 70, 0
2, 24960, Note_on_c, 0, 70, 79
2, 25027, Note_on_c, 0, 70, 0
2, 25032, Note_on_c, 0, 70, 79
2, 25055, Note_on_c, 0, 70, 0
2, 25056, Note_on_c, 0, 72, 79
2, 25095, Note_on_c, 0, 72, 0
2, 25152, Note_on_c, 0, 72, 81
2, 25191, Note_on_c, 0, 72, 0
2, 25248, Note_on_c, 0, 74, 84
2, 25248, Note_on_c, 0, 68, 84
2, 25337, Note_on_c, 0, 74, 0
2, 25337, Note_on_c, 0, 68, 0
2, 25344, Note_on_c, 0, 75, 87
2, 25344, Note_on_c, 0, 67, 87
2, 25433, Note_on_c, 0, 75, 0
2, 25433, Note_on_c, 0, 67, 0
2, 25536, Note_on_c, 0, 75, 79
2, 25603, Note_on_c, 0, 75, 0
2, 25608, Note_on_c, 0, 75, 79
2, 25631, Note_on_c, 0, 75, 0
2, 25632, Note_on_c, 0, 75, 95
2, 25728, Note_on_c, 0, 75, 0
2, 25824, Note_on_c, 0, 80, 79
2, 25891, Note_on_c, 0, 80, 0
2, 25896, Note_on_c, 0, 80, 79
2, 25919, Note_on_c, 0, 80, 0
2, 25920, Note_on_c, 0, 80, 95
2, 26016, Note_on_c, 0, 80, 0
2, 26112, Note_on_c, 0, 72, 79
2, 26112, Note_on_c, 0, 68, 79
2, 26179, Note_on_c, 0, 72, 0
2, 26179, Note_on_c, 0, 68, 0
2, 26184, Note_on_c, 0, 72, 79
2, 26184, Note_on_c, 0, 68, 79
2, 26207, Note_on_c, 0, 72, 0
2, 26207, Note_on_c, 0, 68, 0
2, 26208, Note_on_c, 0, 72, 95
2, 26208, Note_on_c, 0, 68, 95
2, 26304, Note_on_c, 0, 72, 0
2, 26304, Note_on_c, 0, 68, 0
2, 26304, Note_on_c, 0, 73, 79
2, 26304, Note_on_c, 0, 70, 79
2, 26343, Note_on_c, 0, 73, 0
2, 26343, Note_on_c, 0, 70, 0
2, 26400, Note_on_c, 0, 77, 79
2, 26400, Note_on_c, 0, 73, 79
2, 26439, Note_on_c, 0, 77, 0
2, 26439, Note_on_c, 0, 73, 0
2, 26496, Note_on_c, 0, 70, 79
2, 26496, Note_on_c, 0, 67, 79
2, 26673, Note_on_c, 0, 70, 0
2, 26673, Note_on_c, 0, 67, 0
2, 26688, Note_on_c, 0, 63, 79
2, 26755, Note_on_c, 0, 63, 0
2, 26760, Note_on_c, 0, 63, 79
2, 26783, Note_on_c, 0, 63, 0
2, 26784, Note_on_c, 0, 68, 79
2, 26823, Note_on_c, 0, 68, 0
2, 26880, Note_on_c, 0, 68, 79
2, 26919, Note_on_c, 0, 68, 0
2, 26976, Note_on_c, 0, 68, 79
2, 27015, Note_on_c, 0, 68, 0
2, 27072, Note_on_c, 0, 70, 79
2, 27161, Note_on_c, 0, 70, 0
2, 27264, Note_on_c, 0, 70, 79
2, 27331, Note_on_c, 0, 70, 0
2, 27336, Note_on_c, 0, 70, 79
2, 27359, Note_on_c, 0, 70, 0
2, 27360, Note_on_c, 0, 72, 79
2, 27399, Note_on_c, 0, 72, 0
2, 27456, Note_on_c, 0, 72, 81
2, 27495, Note_on_c, 0, 72, 0
2, 27552, Note_on_c, 0, 74, 84
2, 27552, Note_on_c, 0, 68, 84
2, 27641, Note_on_c, 0, 74, 0
2, 27641, Note_on_c, 0, 68, 0
2, 27648, Note_on_c, 0, 75, 87
2, 27648, Note_on_c, 0, 67, 87
2, 27737, Note_on_c, 0, 75, 0
2, 27737, Note_on_c, 0, 67, 0
2, 27840, Note_on_c, 0, 75, 87
2, 27907, Note_on_c, 0, 75, 0
2, 27912, Note_on_c, 0, 75, 79
2, 27935, Note_on_c, 0, 75, 0
2, 27936, Note_on_c, 0, 75, 95
2, 28032, Note_on_c, 0, 75, 0
2, 28032, Note_on_c, 0, 75, 79
2, 28121, Note_on_c, 0, 75, 0
2, 28128, Note_on_c, 0, 77, 79
2, 28195, Note_on_c, 0, 77, 0
2, 28200, Note_on_c, 0, 77, 79
2, 28223, Note_on_c, 0, 77, 0
2, 28224, Note_on_c, 0, 77, 95
2, 28320, Note_on_c, 0, 77, 0
2, 28320, Note_on_c, 0, 82, 79
2, 28409, Note_on_c, 0, 82, 0
2, 28416, Note_on_c, 0, 75, 79
2, 28483, Note_on_c, 0, 75, 0
2, 28488, Note_on_c, 0, 75, 79
2, 28511, Note_on_c, 0, 75, 0
2, 28512, Note_on_c, 0, 75, 79
2, 28608, Note_on_c, 0, 75, 0
2, 28608, Note_on_c, 0, 80, 79
2, 28697, Note_on_c, 0, 80, 0
2, 28704, Note_on_c, 0, 72, 79
2, 28771, Note_on_c, 0, 72, 0
2, 28776, Note_on_c, 0, 72, 79
2, 28799, Note_on_c, 0, 72, 0
2, 28800, Note_on_c, 0, 72, 95
2, 28896, Note_on_c, 0, 72, 0
2, 28896, Note_on_c, 0, 73, 81
2, 28985, Note_on_c, 0, 73, 0
2, 28992, Note_on_c, 0, 74, 84
2, 29081, Note_on_c, 0, 74, 0
2, 29088, Note_on_c, 0, 75, 87
2, 29177, Note_on_c, 0, 75, 0
2, 29184, Note_on_c, 0, 75, 87
2, 29273, Note_on_c, 0, 75, 0
2, 29280, Note_on_c, 0, 77, 87
2, 29347, Note_on_c, 0, 77, 0
2, 29352, Note_on_c, 0, 79, 87
2, 29375, Note_on_c, 0, 79, 0
2, 29376, Note_on_c, 0, 75, 87
2, 29465, Note_on_c, 0, 75, 0
2, 29472, Note_on_c, 0, 75, 87
2, 29561, Note_on_c, 0, 75, 0
2, 29568, Note_on_c, 0, 82, 87
2, 29635, Note_on_c, 0, 82, 0
2, 29640, Note_on_c, 0, 82, 87
2, 29664, Note_on_c, 0, 82, 0
2, 29664, Note_on_c, 0, 75, 87
2, 29753, Note_on_c, 0, 75, 0
2, 29760, Note_on_c, 0, 75, 87
2, 29849, Note_on_c, 0, 75, 0
2, 29856, Note_on_c, 0, 82, 87
2, 29923, Note_on_c, 0, 82, 0
2, 29928, Note_on_c, 0, 82, 87
2, 29951, Note_on_c, 0, 82, 0
2, 29952, Note_on_c, 0, 75, 87
2, 30041, Note_on_c, 0, 75, 0
2, 30144, Note_on_c, 0, 63, 79
2, 30144, Note_on_c, 0, 60, 79
2, 30211, Note_on_c, 0, 63, 0
2, 30211, Note_on_c, 0, 60, 0
2, 30216, Note_on_c, 0, 63, 79
2, 30216, Note_on_c, 0, 60, 79
2, 30239, Note_on_c, 0, 63, 0
2, 30239, Note_on_c, 0, 60, 0
2, 30240, Note_on_c, 0, 63, 95
2, 30240, Note_on_c, 0, 60, 95
2, 30336, Note_on_c, 0, 63, 0
2, 30336, Note_on_c, 0, 60, 0
2, 30432, Note_on_c, 0, 84, 79
2, 30432, Note_on_c, 0, 80, 79
2, 30499, Note_on_c, 0, 84, 0
2, 30499, Note_on_c, 0, 80, 0
2, 30504, Note_on_c, 0, 84, 79
2, 30504, Note_on_c, 0, 80, 79
2, 30527, Note_on_c, 0, 84, 0
2, 30527, Note_on_c, 0, 80, 0
2, 30528, Note_on_c, 0, 84, 95
2, 30528, Note_on_c, 0, 80, 95
2, 30624, Note_on_c, 0, 84, 0
2, 30624, Note_on_c, 0, 80, 0
2, 30720, Note_on_c, 0, 72, 79
2, 30720, Note_on_c, 0, 69, 79
2, 30787, Note_on_c, 0, 72, 0
2, 30787, Note_on_c, 0, 69, 0
2, 30792, Note_on_c, 0, 72, 79
2, 30792, Note_on_c, 0, 69, 79
2, 30815, Note_on_c, 0, 72, 0
2, 30815, Note_on_c, 0, 69, 0
2, 30816, Note_on_c, 0, 72, 95
2, 30816, Note_on_c, 0, 69, 95
2, 30912, Note_on_c, 0, 72, 0
2, 30912, Note_on_c, 0, 69, 0
2, 30912, Note_on_c, 0, 73, 79
2, 30912, Note_on_c, 0, 70, 79
2, 31001, Note_on_c, 0, 73, 0
2, 31001, Note_on_c, 0, 70, 0
2, 31008, Note_on_c, 0, 70, 79
2, 31008, Note_on_c, 0, 67, 79
2, 31075, Note_on_c, 0, 70, 0
2, 31075, Note_on_c, 0, 67, 0
2, 31080, Note_on_c, 0, 70, 79
2, 31080, Note_on_c, 0, 67, 79
2, 31103, Note_on_c, 0, 70, 0
2, 31103, Note_on_c, 0, 67, 0
2, 31104, Note_on_c, 0, 70, 95
2, 31104, Note_on_c, 0, 67, 95
2, 31200, Note_on_c, 0, 70, 0
2, 31200, Note_on_c, 0, 67, 0
2, 31200, Note_on_c, 0, 72, 79
2, 31200, Note_on_c, 0, 68, 79
2, 31289, Note_on_c, 0, 72, 0
2, 31289, Note_on_c, 0, 68, 0
2, 31296, Note_on_c, 0, 75, 79
2, 31296, Note_on_c, 0, 72, 79
2, 31363, Note_on_c, 0, 75, 0
2, 31363, Note_on_c, 0, 72, 0
2, 31368, Note_on_c, 0, 75, 79
2, 31368, Note_on_c, 0, 72, 79
2, 31391, Note_on_c, 0, 75, 0
2, 31391, Note_on_c, 0, 72, 0
2, 31392, Note_on_c, 0, 75, 95
2, 31392, Note_on_c, 0, 72, 95
2, 31488, Note_on_c, 0, 75, 0
2, 31488, Note_on_c, 0, 72, 0
2, 31488, Note_on_c, 0, 77, 79
2, 31488, Note_on_c, 0, 73, 79
2, 31577, Note_on_c, 0, 77, 0
2, 31577, Note_on_c, 0, 73, 0
2, 31584, Note_on_c, 0, 67, 79
2, 31584, Note_on_c, 0, 61, 79
2, 31623, Note_on_c, 0, 67, 0
2, 31623, Note_on_c, 0, 61, 0
2, 31680, Note_on_c, 0, 68, 79
2, 31680, Note_on_c, 0, 60, 79
2, 31769, Note_on_c, 0, 68, 0
2, 31769, Note_on_c, 0, 60, 0
2, 31872, Note_on_c, 0, 75, 87
2, 31939, Note_on_c, 0, 75, 0
2, 31944, Note_on_c, 0, 75, 79
2, 31967, Note_on_c, 0, 75, 0
2, 31968, Note_on_c, 0, 75, 95
2, 32064, Note_on_c, 0, 75, 0
2, 32064, Note_on_c, 0, 75, 79
2, 32153, Note_on_c, 0, 75, 0
2, 32160, Note_on_c, 0, 77, 79
2, 32227, Note_on_c, 0, 77, 0
2, 32232, Note_on_c, 0, 77, 79
2, 32255, Note_on_c, 0, 77, 0
2, 32256, Note_on_c, 0, 77, 95
2, 32352, Note_on_c, 0, 77, 0
2, 32352, Note_on_c, 0, 82, 79
2, 32441, Note_on_c, 0, 82, 0
2, 32448, Note_on_c, 0, 75, 79
2, 32515, Note_on_c, 0, 75, 0
2, 32520, Note_on_c, 0, 75, 79
2, 32543, Note_on_c, 0, 75, 0
2, 32544, Note_on_c, 0, 75, 79
2, 32640, Note_on_c, 0, 75, 0
2, 32640, Note_on_c, 0, 80, 79
2, 32729, Note_on_c, 0, 80, 0
2, 32736, Note_on_c, 0, 72, 79
2, 32803, Note_on_c, 0, 72, 0
2, 32808, Note_on_c, 0, 72, 79
2, 32831, Note_on_c, 0, 72, 0
2, 32832, Note_on_c, 0, 72, 95
2, 32928, Note_on_c, 0, 72, 0
2, 32928, Note_on_c, 0, 73, 81
2, 33017, Note_on_c, 0, 73, 0
2, 33024, Note_on_c, 0, 74, 84
2, 33113, Note_on_c, 0, 74, 0
2, 33120, Note_on_c, 0, 75, 87
2, 33209, Note_on_c, 0, 75, 0
2, 33216, Note_on_c, 0, 75, 87
2, 33305, Note_on_c, 0, 75, 0
2, 33312, Note_on_c, 0, 77, 87
2, 33379, Note_on_c, 0, 77, 0
2, 33384, Note_on_c, 0, 79, 87
2, 33407, Note_on_c, 0, 79, 0
2, 33408, Note_on_c, 0, 75, 87
2, 33497, Note_on_c, 0, 75, 0
2, 33504, Note_on_c, 0, 75, 87
2, 33593, Note_on_c, 0, 75, 0
2, 33600, Note_on_c, 0, 82, 87
2, 33667, Note_on_c, 0, 82, 0
2, 33672, Note_on_c, 0, 82, 87
2, 33696, Note_on_c, 0, 82, 0
2, 33696, Note_on_c, 0, 75, 87
2, 33785, Note_on_c, 0, 75, 0
2, 33792, Note_on_c, 0, 75, 87
2, 33881, Note_on_c, 0, 75, 0
2, 33888, Note_on_c, 0, 82, 87
2, 33955, Note_on_c, 0, 82, 0
2, 33960, Note_on_c, 0, 82, 87
2, 33983, Note_on_c, 0, 82, 0
2, 33984, Note_on_c, 0, 75, 87
2, 34073, Note_on_c, 0, 75, 0
2, 34176, Note_on_c, 0, 63, 79
2, 34176, Note_on_c, 0, 60, 79
2, 34243, Note_on_c, 0, 63, 0
2, 34243, Note_on_c, 0, 60, 0
2, 34248, Note_on_c, 0, 63, 79
2, 34248, Note_on_c, 0, 60, 79
2, 34271, Note_on_c, 0, 63, 0
2, 34271, Note_on_c, 0, 60, 0
2, 34272, Note_on_c, 0, 63, 95
2, 34272, Note_on_c, 0, 60, 95
2, 34368, Note_on_c, 0, 63, 0
2, 34368, Note_on_c, 0, 60, 0
2, 34464, Note_on_c, 0, 84, 79
2, 34464, Note_on_c, 0, 80, 79
2, 34531, Note_on_c, 0, 84, 0
2, 34531, Note_on_c, 0, 80, 0
2, 34536, Note_on_c, 0, 84, 79
2, 34536, Note_on_c, 0, 80, 79
2, 34559, Note_on_c, 0, 84, 0
2, 34559, Note_on_c, 0, 80, 0
2, 34560, Note_on_c, 0, 84, 95
2, 34560, Note_on_c, 0, 80, 95
2, 34656, Note_on_c, 0, 84, 0
2, 34656, Note_on_c, 0, 80, 0
2, 34752, Note_on_c, 0, 72, 79
2, 34752, Note_on_c, 0, 69, 79
2, 34819, Note_on_c, 0, 72, 0
2, 34819, Note_on_c, 0, 69, 0
2, 34824, Note_on_c, 0, 72, 79
2, 34824, Note_on_c, 0, 69, 79
2, 34847, Note_on_c, 0, 72, 0
2, 34847, Note_on_c, 0, 69, 0
2, 34848, Note_on_c, 0, 72, 95
2, 34848, Note_on_c, 0, 69, 95
2, 34944, Note_on_c, 0, 72, 0
2, 34944, Note_on_c, 0, 69, 0
2, 34944, Note_on_c, 0, 73, 79
2, 34944, Note_on_c, 0, 70, 79
2, 35033, Note_on_c, 0, 73, 0
2, 35033, Note_on_c, 0, 70, 0
2, 35040, Note_on_c, 0, 70, 79
2, 35040, Note_on_c, 0, 67, 79
2, 35107, Note_on_c, 0, 70, 0
2, 35107, Note_on_c, 0, 67, 0
2, 35112, Note_on_c, 0, 70, 79
2, 35112, Note_on_c, 0, 67, 79
2, 35135, Note_on_c, 0, 70, 0
2, 35135, Note_on_c, 0, 67, 0
2, 35136, Note_on_c, 0, 70, 95
2, 35136, Note_on_c, 0, 67, 95
2, 35232, Note_on_c, 0, 70, 0
2, 35232, Note_on_c, 0, 67, 0
2, 35232, Note_on_c, 0, 72, 79
2, 35232, Note_on_c, 0, 68, 79
2, 35321, Note_on_c, 0, 72, 0
2, 35321, Note_on_c, 0, 68, 0
2, 35328, Note_on_c, 0, 75, 79
2, 35328, Note_on_c, 0, 72, 79
2, 35395, Note_on_c, 0, 75, 0
2, 35395, Note_on_c, 0, 72, 0
2, 35400, Note_on_c, 0, 75, 79
2, 35400, Note_on_c, 0, 72, 79
2, 35423, Note_on_c, 0, 75, 0
2, 35423, Note_on_c, 0, 72, 0
2, 35424, Note_on_c, 0, 75, 95
2, 35424, Note_on_c, 0, 72, 95
2, 35520, Note_on_c, 0, 75, 0
2, 35520, Note_on_c, 0, 72, 0
2, 35520, Note_on_c, 0, 77, 79
2, 35520, Note_on_c, 0, 73, 79
2, 35609, Note_on_c, 0, 77, 0
2, 35609, Note_on_c, 0, 73, 0
2, 35616, Note_on_c, 0, 67, 79
2, 35616, Note_on_c, 0, 61, 79
2, 35655, Note_on_c, 0, 67, 0
2, 35655, Note_on_c, 0, 61, 0
2, 35712, Note_on_c, 0, 68, 79
2, 35712, Note_on_c, 0, 60, 79
2, 35801, Note_on_c, 0, 68, 0
2, 35801, Note_on_c, 0, 60, 0
2, 36000, End_track
3, 0, Start_track
3, 0, Program_c, 0, 0
3, 0, Control_c, 0, 7, 127
3, 0, Control_c, 0, 10, 64
3, 36000, End_track
4, 0, Start_track
4, 0, Program_c, 1, 0
4, 0, Control_c, 1, 7, 127
4, 0, Control_c, 1, 10, 64
4, 384, Note_on_c, 1, 60, 79
4, 384, Note_on_c, 1, 56, 79
4, 473, Note_on_c, 1, 60, 0
4, 473, Note_on_c, 1, 56, 0
4, 672, Note_on_c, 1, 63, 79
4, 672, Note_on_c, 1, 60, 79
4, 761, Note_on_c, 1, 63, 0
4, 761, Note_on_c, 1, 60, 0
4, 768, Note_on_c, 1, 65, 79
4, 835, Note_on_c, 1, 65, 0
4, 840, Note_on_c, 1, 65, 79
4, 863, Note_on_c, 1, 65, 0
4, 864, Note_on_c, 1, 65, 79
4, 953, Note_on_c, 1, 65, 0
4, 960, Note_on_c, 1, 61, 79
4, 1049, Note_on_c, 1, 61, 0
4, 1056, Note_on_c, 1, 58, 79
4, 1145, Note_on_c, 1, 58, 0
4, 1152, Note_on_c, 1, 63, 79
4, 1329, Note_on_c, 1, 63, 0
4, 1344, Note_on_c, 1, 61, 79
4, 1433, Note_on_c, 1, 61, 0
4, 1440, Note_on_c, 1, 63, 79
4, 1440, Note_on_c, 1, 60, 79
4, 1529, Note_on_c, 1, 63, 0
4, 1529, Note_on_c, 1, 60, 0
4, 1536, Note_on_c, 1, 61, 79
4, 1536, Note_on_c, 1, 58, 79
4, 1625, Note_on_c, 1, 61, 0
4, 1625, Note_on_c, 1, 58, 0
4, 1632, Note_on_c, 1, 60, 79
4, 1632, Note_on_c, 1, 56, 79
4, 1721, Note_on_c, 1, 60, 0
4, 1721, Note_on_c, 1, 56, 0
4, 1728, Note_on_c, 1, 58, 79
4, 1728, Note_on_c, 1, 55, 79
4, 1817, Note_on_c, 1, 58, 0
4, 1817, Note_on_c, 1, 55, 0
4, 1824, Note_on_c, 1, 56, 79
4, 1824, Note_on_c, 1, 53, 79
4, 1913, Note_on_c, 1, 56, 0
4, 1913, Note_on_c, 1, 53, 0
4, 1920, Note_on_c, 1, 55, 79
4, 1920, Note_on_c, 1, 51, 79
4, 2009, Note_on_c, 1, 55, 0
4, 2009, Note_on_c, 1, 51, 0
4, 2016, Note_on_c, 1, 56, 79
4, 2105, Note_on_c, 1, 56, 0
4, 2112, Note_on_c, 1, 53, 79
4, 2201, Note_on_c, 1, 53, 0
4, 2208, Note_on_c, 1, 58, 79
4, 2297, Note_on_c, 1, 58, 0
4, 2304, Note_on_c, 1, 51, 79
4, 2393, Note_on_c, 1, 51, 0
4, 2688, Note_on_c, 1, 60, 79
4, 2688, Note_on_c, 1, 56, 79
4, 2777, Note_on_c, 1, 60, 0
4, 2777, Note_on_c, 1, 56, 0
4, 2976, Note_on_c, 1, 63, 79
4, 2976, Note_on_c, 1, 60, 79
4, 3065, Note_on_c, 1, 63, 0
4, 3065, Note_on_c, 1, 60, 0
4, 3072, Note_on_c, 1, 65, 79
4, 3139, Note_on_c, 1, 65, 0
4, 3144, Note_on_c, 1, 65, 79
4, 3167, Note_on_c, 1, 65, 0
4, 3168, Note_on_c, 1, 65, 79
4, 3257, Note_on_c, 1, 65, 0
4, 3264, Note_on_c, 1, 61, 79
4, 3353, Note_on_c, 1, 61, 0
4, 3360, Note_on_c, 1, 58, 79
4, 3449, Note_on_c, 1, 58, 0
4, 3456, Note_on_c, 1, 63, 79
4, 3633, Note_on_c, 1, 63, 0
4, 3648, Note_on_c, 1, 61, 79
4, 3737, Note_on_c, 1, 61, 0
4, 3744, Note_on_c, 1, 63, 79
4, 3744, Note_on_c, 1, 60, 79
4, 3833, Note_on_c, 1, 63, 0
4, 3833, Note_on_c, 1, 60, 0
4, 3840, Note_on_c, 1, 61, 79
4, 3840, Note_on_c, 1, 58, 79
4, 3929, Note_on_c, 1, 61, 0
4, 3929, Note_on_c, 1, 58, 0
4, 3936, Note_on_c, 1, 60, 79
4, 3936, Note_on_c, 1, 56, 79
4, 4025, Note_on_c, 1, 60, 0
4, 4025, Note_on_c, 1, 56, 0
4, 4032, Note_on_c, 1, 58, 79
4, 4032, Note_on_c, 1, 55, 79
4, 4121, Note_on_c, 1, 58, 0
4, 4121, Note_on_c, 1, 55, 0
4, 4128, Note_on_c, 1, 56, 79
4, 4128, Note_on_c, 1, 53, 79
4, 4217, Note_on_c, 1, 56, 0
4, 4217, Note_on_c, 1, 53, 0
4, 4224, Note_on_c, 1, 55, 79
4, 4224, Note_on_c, 1, 51, 79
4, 4313, Note_on_c, 1, 55, 0
4, 4313, Note_on_c, 1, 51, 0
4, 4320, Note_on_c, 1, 56, 79
4, 4409, Note_on_c, 1, 56, 0
4, 4416, Note_on_c, 1, 53, 79
4, 4505, Note_on_c, 1, 53, 0
4, 4512, Note_on_c, 1, 58, 79
4, 4601, Note_on_c, 1, 58, 0
4, 4608, Note_on_c, 1, 51, 79
4, 4697, Note_on_c, 1, 51, 0
4, 5088, Note_on_c, 1, 75, 79
4, 5273, Note_on_c, 1, 75, 0
4, 5280, Note_on_c, 1, 74, 79
4, 5369, Note_on_c, 1, 74, 0
4, 5376, Note_on_c, 1, 73, 79
4, 5561, Note_on_c, 1, 73, 0
4, 5568, Note_on_c, 1, 72, 79
4, 5657, Note_on_c, 1, 72, 0
4, 5760, Note_on_c, 1, 68, 79
4, 5760, Note_on_c, 1, 65, 79
4, 6025, Note_on_c, 1, 68, 0
4, 6025, Note_on_c, 1, 65, 0
4, 6048, Note_on_c, 1, 67, 79
4, 6048, Note_on_c, 1, 63, 79
4, 6137, Note_on_c, 1, 67, 0
4, 6137, Note_on_c, 1, 63, 0
4, 6240, Note_on_c, 1, 68, 79
4, 6240, Note_on_c, 1, 62, 79
4, 6240, Note_on_c, 1, 58, 79
4, 6336, Note_on_c, 1, 68, 0
4, 6336, Note_on_c, 1, 62, 0
4, 6336, Note_on_c, 1, 58, 0
4, 6336, Note_on_c, 1, 67, 79
4, 6336, Note_on_c, 1, 63, 79
4, 6425, Note_on_c, 1, 67, 0
4, 6425, Note_on_c, 1, 63, 0
4, 6528, Note_on_c, 1, 68, 79
4, 6528, Note_on_c, 1, 62, 79
4, 6528, Note_on_c, 1, 58, 79
4, 6624, Note_on_c, 1, 68, 0
4, 6624, Note_on_c, 1, 62, 0
4, 6624, Note_on_c, 1, 58, 0
4, 6624, Note_on_c, 1, 67, 79
4, 6624, Note_on_c, 1, 63, 79
4, 6713, Note_on_c, 1, 67, 0
4, 6713, Note_on_c, 1, 63, 0
4, 6816, Note_on_c, 1, 68, 79
4, 6816, Note_on_c, 1, 62, 79
4, 6816, Note_on_c, 1, 58, 79
4, 6912, Note_on_c, 1, 68, 0
4, 6912, Note_on_c, 1, 62, 0
4, 6912, Note_on_c, 1, 58, 0
4, 6912, Note_on_c, 1, 67, 79
4, 6912, Note_on_c, 1, 63, 79
4, 7001, Note_on_c, 1, 67, 0
4, 7001, Note_on_c, 1, 63, 0
4, 7296, Note_on_c, 1, 56, 79
4, 7296, Note_on_c, 1, 44, 79
4, 7385, Note_on_c, 1, 56, 0
4, 7385, Note_on_c, 1, 44, 0
4, 7680, Note_on_c, 1, 66, 79
4, 7680, Note_on_c, 1, 63, 79
4, 7747, Note_on_c, 1, 66, 0
4, 7747, Note_on_c, 1, 63, 0
4, 7752, Note_on_c, 1, 66, 79
4, 7752, Note_on_c, 1, 63, 79
4, 7775, Note_on_c, 1, 66, 0
4, 7775, Note_on_c, 1, 63, 0
4, 7776, Note_on_c, 1, 66, 79
4, 7776, Note_on_c, 1, 63, 79
4, 7872, Note_on_c, 1, 66, 0
4, 7872, Note_on_c, 1, 63, 0
4, 7872, Note_on_c, 1, 65, 79
4, 7872, Note_on_c, 1, 61, 79
4, 7961, Note_on_c, 1, 65, 0
4, 7961, Note_on_c, 1, 61, 0
4, 7968, Note_on_c, 1, 63, 79
4, 7968, Note_on_c, 1, 61, 79
4, 8035, Note_on_c, 1, 63, 0
4, 8035, Note_on_c, 1, 61, 0
4, 8040, Note_on_c, 1, 63, 79
4, 8040, Note_on_c, 1, 61, 79
4, 8063, Note_on_c, 1, 63, 0
4, 8063, Note_on_c, 1, 61, 0
4, 8064, Note_on_c, 1, 63, 79
4, 8241, Note_on_c, 1, 63, 0
4, 8544, Note_on_c, 1, 58, 79
4, 8544, Note_on_c, 1, 51, 79
4, 8633, Note_on_c, 1, 58, 0
4, 8633, Note_on_c, 1, 51, 0
4, 8640, Note_on_c, 1, 56, 79
4, 8640, Note_on_c, 1, 44, 79
4, 8729, Note_on_c, 1, 56, 0
4, 8729, Note_on_c, 1, 44, 0
4, 9120, Note_on_c, 1, 75, 79
4, 9305, Note_on_c, 1, 75, 0
4, 9312, Note_on_c, 1, 74, 79
4, 9401, Note_on_c, 1, 74, 0
4, 9408, Note_on_c, 1, 73, 79
4, 9593, Note_on_c, 1, 73, 0
4, 9600, Note_on_c, 1, 72, 79
4, 9689, Note_on_c, 1, 72, 0
4, 9792, Note_on_c, 1, 68, 79
4, 9792, Note_on_c, 1, 65, 79
4, 10057, Note_on_c, 1, 68, 0
4, 10057, Note_on_c, 1, 65, 0
4, 10080, Note_on_c, 1, 67, 79
4, 10080, Note_on_c, 1, 63, 79
4, 10169, Note_on_c, 1, 67, 0
4, 10169, Note_on_c, 1, 63, 0
4, 10272, Note_on_c, 1, 68, 79
4, 10272, Note_on_c, 1, 62, 79
4, 10272, Note_on_c, 1, 58, 79
4, 10368, Note_on_c, 1, 68, 0
4, 10368, Note_on_c, 1, 62, 0
4, 10368, Note_on_c, 1, 58, 0
4, 10368, Note_on_c, 1, 67, 79
4, 10368, Note_on_c, 1, 63, 79
4, 10457, Note_on_c, 1, 67, 0
4, 10457, Note_on_c, 1, 63, 0
4, 10560, Note_on_c, 1, 68, 79
4, 10560, Note_on_c, 1, 62, 79
4, 10560, Note_on_c, 1, 58, 79
4, 10656, Note_on_c, 1, 68, 0
4, 10656, Note_on_c, 1, 62, 0
4, 10656, Note_on_c, 1, 58, 0
4, 10656, Note_on_c, 1, 67, 79
4, 10656, Note_on_c, 1, 63, 79
4, 10745, Note_on_c, 1, 67, 0
4, 10745, Note_on_c, 1, 63, 0
4, 10848, Note_on_c, 1, 68, 79
4, 10848, Note_on_c, 1, 62, 79
4, 10848, Note_on_c, 1, 58, 79
4, 10944, Note_on_c, 1, 68, 0
4, 10944, Note_on_c, 1, 62, 0
4, 10944, Note_on_c, 1, 58, 0
4, 10944, Note_on_c, 1, 67, 79
4, 10944, Note_on_c, 1, 63, 79
4, 11033, Note_on_c, 1, 67, 0
4, 11033, Note_on_c, 1, 63, 0
4, 11328, Note_on_c, 1, 56, 79
4, 11328, Note_on_c, 1, 44, 79
4, 11417, Note_on_c, 1, 56, 0
4, 11417, Note_on_c, 1, 44, 0
4, 11712, Note_on_c, 1, 66, 79
4, 11712, Note_on_c, 1, 63, 79
4, 11779, Note_on_c, 1, 66, 0
4, 11779, Note_on_c, 1, 63, 0
4, 11784, Note_on_c, 1, 66, 79
4, 11784, Note_on_c, 1, 63, 79
4, 11807, Note_on_c, 1, 66, 0
4, 11807, Note_on_c, 1, 63, 0
4, 11808, Note_on_c, 1, 66, 79
4, 11808, Note_on_c, 1, 63, 79
4, 11904, Note_on_c, 1, 66, 0
4, 11904, Note_on_c, 1, 63, 0
4, 11904, Note_on_c, 1, 65, 79
4, 11904, Note_on_c, 1, 61, 79
4, 11993, Note_on_c, 1, 65, 0
4, 11993, Note_on_c, 1, 61, 0
4, 12000, Note_on_c, 1, 63, 79
4, 12000, Note_on_c, 1, 61, 79
4, 12067, Note_on_c, 1, 63, 0
4, 12067, Note_on_c, 1, 61, 0
4, 12072, Note_on_c, 1, 63, 79
4, 12072, Note_on_c, 1, 61, 79
4, 12095, Note_on_c, 1, 63, 0
4, 12095, Note_on_c, 1, 61, 0
4, 12096, Note_on_c, 1, 63, 79
4, 12273, Note_on_c, 1, 63, 0
4, 12576, Note_on_c, 1, 58, 79
4, 12576, Note_on_c, 1, 51, 79
4, 12665, Note_on_c, 1, 58, 0
4, 12665, Note_on_c, 1, 51, 0
4, 12672, Note_on_c, 1, 56, 79
4, 12672, Note_on_c, 1, 44, 79
4, 12761, Note_on_c, 1, 56, 0
4, 12761, Note_on_c, 1, 44, 0
4, 12960, Note_on_c, 1, 56, 68
4, 13005, Note_on_c, 1, 56, 0
4, 13008, Note_on_c, 1, 63, 68
4, 13053, Note_on_c, 1, 63, 0
4, 13056, Note_on_c, 1, 60, 68
4, 13101, Note_on_c, 1, 60, 0
4, 13104, Note_on_c, 1, 63, 68
4, 13149, Note_on_c, 1, 63, 0
4, 13152, Note_on_c, 1, 56, 68
4, 13197, Note_on_c, 1, 56, 0
4, 13200, Note_on_c, 1, 63, 68
4, 13245, Note_on_c, 1, 63, 0
4, 13248, Note_on_c, 1, 56, 68
4, 13293, Note_on_c, 1, 56, 0
4, 13296, Note_on_c, 1, 63, 68
4, 13341, Note_on_c, 1, 63, 0
4, 13344, Note_on_c, 1, 60, 68
4, 13389, Note_on_c, 1, 60, 0
4, 13392, Note_on_c, 1, 63, 68
4, 13437, Note_on_c, 1, 63, 0
4, 13440, Note_on_c, 1, 56, 68
4, 13485, Note_on_c, 1, 56, 0
4, 13488, Note_on_c, 1, 63, 68
4, 13533, Note_on_c, 1, 63, 0
4, 13536, Note_on_c, 1, 56, 68
4, 13581, Note_on_c, 1, 56, 0
4, 13584, Note_on_c, 1, 63, 68
4, 13629, Note_on_c, 1, 63, 0
4, 13632, Note_on_c, 1, 60, 68
4, 13677, Note_on_c, 1, 60, 0
4, 13680, Note_on_c, 1, 63, 68
4, 13725, Note_on_c, 1, 63, 0
4, 13728, Note_on_c, 1, 56, 68
4, 13773, Note_on_c, 1, 56, 0
4, 13776, Note_on_c, 1, 63, 68
4, 13821, Note_on_c, 1, 63, 0
4, 13824, Note_on_c, 1, 56, 68
4, 13869, Note_on_c, 1, 56, 0
4, 13872, Note_on_c, 1, 63, 68
4, 13917, Note_on_c, 1, 63, 0
4, 13920, Note_on_c, 1, 60, 68
4, 13965, Note_on_c, 1, 60, 0
4, 13968, Note_on_c, 1, 63, 68
4, 14013, Note_on_c, 1, 63, 0
4, 14016, Note_on_c, 1, 56, 68
4, 14061, Note_on_c, 1, 56, 0
4, 14064, Note_on_c, 1, 63, 68
4, 14109, Note_on_c, 1, 63, 0
4, 14112, Note_on_c, 1, 56, 68
4, 14157, Note_on_c, 1, 56, 0
4, 14160, Note_on_c, 1, 62, 68
4, 14205, Note_on_c, 1, 62, 0
4, 14208, Note_on_c, 1, 58, 68
4, 14253, Note_on_c, 1, 58, 0
4, 14256, Note_on_c, 1, 62, 68
4, 14301, Note_on_c, 1, 62, 0
4, 14304, Note_on_c, 1, 56, 68
4, 14349, Note_on_c, 1, 56, 0
4, 14352, Note_on_c, 1, 62, 68
4, 14397, Note_on_c, 1, 62, 0
4, 14400, Note_on_c, 1, 55, 68
4, 14445, Note_on_c, 1, 55, 0
4, 14448, Note_on_c, 1, 63, 68
4, 14493, Note_on_c, 1, 63, 0
4, 14496, Note_on_c, 1, 58, 68
4, 14541, Note_on_c, 1, 58, 0
4, 14544, Note_on_c, 1, 63, 68
4, 14589, Note_on_c, 1, 63, 0
4, 14592, Note_on_c, 1, 55, 68
4, 14637, Note_on_c, 1, 55, 0
4, 14640, Note_on_c, 1, 63, 68
4, 14685, Note_on_c, 1, 63, 0
4, 14688, Note_on_c, 1, 56, 68
4, 14777, Note_on_c, 1, 56, 0
4, 14880, Note_on_c, 1, 58, 68
4, 14969, Note_on_c, 1, 58, 0
4, 14976, Note_on_c, 1, 51, 73
4, 15065, Note_on_c, 1, 51, 0
4, 15264, Note_on_c, 1, 56, 68
4, 15309, Note_on_c, 1, 56, 0
4, 15312, Note_on_c, 1, 63, 68
4, 15357, Note_on_c, 1, 63, 0
4, 15360, Note_on_c, 1, 60, 68
4, 15405, Note_on_c, 1, 60, 0
4, 15408, Note_on_c, 1, 63, 68
4, 15453, Note_on_c, 1, 63, 0
4, 15456, Note_on_c, 1, 56, 68
4, 15501, Note_on_c, 1, 56, 0
4, 15504, Note_on_c, 1, 63, 68
4, 15549, Note_on_c, 1, 63, 0
4, 15552, Note_on_c, 1, 56, 68
4, 15597, Note_on_c, 1, 56, 0
4, 15600, Note_on_c, 1, 63, 68
4, 15645, Note_on_c, 1, 63, 0
4, 15648, Note_on_c, 1, 60, 68
4, 15693, Note_on_c, 1, 60, 0
4, 15696, Note_on_c, 1, 63, 68
4, 15741, Note_on_c, 1, 63, 0
4, 15744, Note_on_c, 1, 56, 68
4, 15789, Note_on_c, 1, 56, 0
4, 15792, Note_on_c, 1, 63, 68
4, 15837, Note_on_c, 1, 63, 0
4, 15840, Note_on_c, 1, 56, 68
4, 15885, Note_on_c, 1, 56, 0
4, 15888, Note_on_c, 1, 63, 68
4, 15933, Note_on_c, 1, 63, 0
4, 15936, Note_on_c, 1, 60, 68
4, 15981, Note_on_c, 1, 60, 0
4, 15984, Note_on_c, 1, 63, 68
4, 16029, Note_on_c, 1, 63, 0
4, 16032, Note_on_c, 1, 56, 68
4, 16077, Note_on_c, 1, 56, 0
4, 16080, Note_on_c, 1, 63, 68
4, 16125, Note_on_c, 1, 63, 0
4, 16128, Note_on_c, 1, 56, 68
4, 16173, Note_on_c, 1, 56, 0
4, 16176, Note_on_c, 1, 63, 68
4, 16221, Note_on_c, 1, 63, 0
4, 16224, Note_on_c, 1, 60, 68
4, 16269, Note_on_c, 1, 60, 0
4, 16272, Note_on_c, 1, 63, 68
4, 16317, Note_on_c, 1, 63, 0
4, 16320, Note_on_c, 1, 56, 68
4, 16365, Note_on_c, 1, 56, 0
4, 16368, Note_on_c, 1, 63, 68
4, 16413, Note_on_c, 1, 63, 0
4, 16416, Note_on_c, 1, 56, 68
4, 16461, Note_on_c, 1, 56, 0
4, 16464, Note_on_c, 1, 62, 68
4, 16509, Note_on_c, 1, 62, 0
4, 16512, Note_on_c, 1, 58, 68
4, 16557, Note_on_c, 1, 58, 0
4, 16560, Note_on_c, 1, 62, 68
4, 16605, Note_on_c, 1, 62, 0
4, 16608, Note_on_c, 1, 56, 68
4, 16653, Note_on_c, 1, 56, 0
4, 16656, Note_on_c, 1, 62, 68
4, 16701, Note_on_c, 1, 62, 0
4, 16704, Note_on_c, 1, 55, 68
4, 16749, Note_on_c, 1, 55, 0
4, 16752, Note_on_c, 1, 63, 68
4, 16797, Note_on_c, 1, 63, 0
4, 16800, Note_on_c, 1, 58, 68
4, 16845, Note_on_c, 1, 58, 0
4, 16848, Note_on_c, 1, 63, 68
4, 16893, Note_on_c, 1, 63, 0
4, 16896, Note_on_c, 1, 55, 68
4, 16941, Note_on_c, 1, 55, 0
4, 16944, Note_on_c, 1, 63, 68
4, 16989, Note_on_c, 1, 63, 0
4, 16992, Note_on_c, 1, 56, 68
4, 17081, Note_on_c, 1, 56, 0
4, 17184, Note_on_c, 1, 58, 68
4, 17273, Note_on_c, 1, 58, 0
4, 17280, Note_on_c, 1, 51, 73
4, 17369, Note_on_c, 1, 51, 0
4, 17568, Note_on_c, 1, 63, 79
4, 17657, Note_on_c, 1, 63, 0
4, 17664, Note_on_c, 1, 67, 79
4, 17753, Note_on_c, 1, 67, 0
4, 17760, Note_on_c, 1, 68, 79
4, 17849, Note_on_c, 1, 68, 0
4, 17856, Note_on_c, 1, 67, 79
4, 17945, Note_on_c, 1, 67, 0
4, 17952, Note_on_c, 1, 63, 79
4, 18041, Note_on_c, 1, 63, 0
4, 18240, Note_on_c, 1, 62, 79
4, 18329, Note_on_c, 1, 62, 0
4, 18336, Note_on_c, 1, 62, 79
4, 18521, Note_on_c, 1, 62, 0
4, 18528, Note_on_c, 1, 63, 79
4, 18617, Note_on_c, 1, 63, 0
4, 20448, Note_on_c, 1, 63, 79
4, 20537, Note_on_c, 1, 63, 0
4, 20544, Note_on_c, 1, 67, 79
4, 20633, Note_on_c, 1, 67, 0
4, 20640, Note_on_c, 1, 68, 79
4, 20729, Note_on_c, 1, 68, 0
4, 20736, Note_on_c, 1, 67, 79
4, 20825, Note_on_c, 1, 67, 0
4, 20832, Note_on_c, 1, 63, 79
4, 20921, Note_on_c, 1, 63, 0
4, 21120, Note_on_c, 1, 62, 79
4, 21209, Note_on_c, 1, 62, 0
4, 21216, Note_on_c, 1, 62, 79
4, 21401, Note_on_c, 1, 62, 0
4, 21408, Note_on_c, 1, 63, 79
4, 21497, Note_on_c, 1, 63, 0
4, 23424, Note_on_c, 1, 60, 79
4, 23424, Note_on_c, 1, 56, 79
4, 23513, Note_on_c, 1, 60, 0
4, 23513, Note_on_c, 1, 56, 0
4, 23712, Note_on_c, 1, 63, 79
4, 23712, Note_on_c, 1, 60, 79
4, 23801, Note_on_c, 1, 63, 0
4, 23801, Note_on_c, 1, 60, 0
4, 23808, Note_on_c, 1, 65, 79
4, 23875, Note_on_c, 1, 65, 0
4, 23880, Note_on_c, 1, 65, 79
4, 23903, Note_on_c, 1, 65, 0
4, 23904, Note_on_c, 1, 65, 79
4, 23993, Note_on_c, 1, 65, 0
4, 24000, Note_on_c, 1, 61, 79
4, 24089, Note_on_c, 1, 61, 0
4, 24096, Note_on_c, 1, 58, 79
4, 24185, Note_on_c, 1, 58, 0
4, 24192, Note_on_c, 1, 63, 79
4, 24369, Note_on_c, 1, 63, 0
4, 24384, Note_on_c, 1, 61, 79
4, 24473, Note_on_c, 1, 61, 0
4, 24480, Note_on_c, 1, 63, 79
4, 24480, Note_on_c, 1, 60, 79
4, 24569, Note_on_c, 1, 63, 0
4, 24569, Note_on_c, 1, 60, 0
4, 24576, Note_on_c, 1, 61, 79
4, 24576, Note_on_c, 1, 58, 79
4, 24665, Note_on_c, 1, 61, 0
4, 24665, Note_on_c, 1, 58, 0
4, 24672, Note_on_c, 1, 60, 79
4, 24672, Note_on_c, 1, 56, 79
4, 24761, Note_on_c, 1, 60, 0
4, 24761, Note_on_c, 1, 56, 0
4, 24768, Note_on_c, 1, 58, 79
4, 24768, Note_on_c, 1, 55, 79
4, 24857, Note_on_c, 1, 58, 0
4, 24857, Note_on_c, 1, 55, 0
4, 24864, Note_on_c, 1, 56, 79
4, 24864, Note_on_c, 1, 53, 79
4, 24953, Note_on_c, 1, 56, 0
4, 24953, Note_on_c, 1, 53, 0
4, 24960, Note_on_c, 1, 55, 79
4, 24960, Note_on_c, 1, 51, 79
4, 25049, Note_on_c, 1, 55, 0
4, 25049, Note_on_c, 1, 51, 0
4, 25056, Note_on_c, 1, 56, 79
4, 25145, Note_on_c, 1, 56, 0
4, 25152, Note_on_c, 1, 53, 79
4, 25241, Note_on_c, 1, 53, 0
4, 25248, Note_on_c, 1, 58, 79
4, 25337, Note_on_c, 1, 58, 0
4, 25344, Note_on_c, 1, 51, 79
4, 25433, Note_on_c, 1, 51, 0
4, 25728, Note_on_c, 1, 60, 79
4, 25728, Note_on_c, 1, 56, 79
4, 25817, Note_on_c, 1, 60, 0
4, 25817, Note_on_c, 1, 56, 0
4, 26016, Note_on_c, 1, 63, 79
4, 26016, Note_on_c, 1, 60, 79
4, 26105, Note_on_c, 1, 63, 0
4, 26105, Note_on_c, 1, 60, 0
4, 26112, Note_on_c, 1, 65, 79
4, 26179, Note_on_c, 1, 65, 0
4, 26184, Note_on_c, 1, 65, 79
4, 26207, Note_on_c, 1, 65, 0
4, 26208, Note_on_c, 1, 65, 79
4, 26297, Note_on_c, 1, 65, 0
4, 26304, Note_on_c, 1, 61, 79
4, 26393, Note_on_c, 1, 61, 0
4, 26400, Note_on_c, 1, 58, 79
4, 26489, Note_on_c, 1, 58, 0
4, 26496, Note_on_c, 1, 63, 79
4, 26673, Note_on_c, 1, 63, 0
4, 26688, Note_on_c, 1, 61, 79
4, 26777, Note_on_c, 1, 61, 0
4, 26784, Note_on_c, 1, 63, 79
4, 26784, Note_on_c, 1, 60, 79
4, 26873, Note_on_c, 1, 63, 0
4, 26873, Note_on_c, 1, 60, 0
4, 26880, Note_on_c, 1, 61, 79
4, 26880, Note_on_c, 1, 58, 79
4, 26969, Note_on_c, 1, 61, 0
4, 26969, Note_on_c, 1, 58, 0
4, 26976, Note_on_c, 1, 60, 79
4, 26976, Note_on_c, 1, 56, 79
4, 27065, Note_on_c, 1, 60, 0
4, 27065, Note_on_c, 1, 56, 0
4, 27072, Note_on_c, 1, 58, 79
4, 27072, Note_on_c, 1, 55, 79
4, 27161, Note_on_c, 1, 58, 0
4, 27161, Note_on_c, 1, 55, 0
4, 27168, Note_on_c, 1, 56, 79
4, 27168, Note_on_c, 1, 53, 79
4, 27257, Note_on_c, 1, 56, 0
4, 27257, Note_on_c, 1, 53, 0
4, 27264, Note_on_c, 1, 55, 79
4, 27264, Note_on_c, 1, 51, 79
4, 27353, Note_on_c, 1, 55, 0
4, 27353, Note_on_c, 1, 51, 0
4, 27360, Note_on_c, 1, 56, 79
4, 27449, Note_on_c, 1, 56, 0
4, 27456, Note_on_c, 1, 53, 79
4, 27545, Note_on_c, 1, 53, 0
4, 27552, Note_on_c, 1, 58, 79
4, 27641, Note_on_c, 1, 58, 0
4, 27648, Note_on_c, 1, 51, 79
4, 27737, Note_on_c, 1, 51, 0
4, 28128, Note_on_c, 1, 75, 79
4, 28313, Note_on_c, 1, 75, 0
4, 28320, Note_on_c, 1, 74, 79
4, 28409, Note_on_c, 1, 74, 0
4, 28416, Note_on_c, 1, 73, 79
4, 28601, Note_on_c, 1, 73, 0
4, 28608, Note_on_c, 1, 72, 79
4, 28697, Note_on_c, 1, 72, 0
4, 28800, Note_on_c, 1, 68, 79
4, 28800, Note_on_c, 1, 65, 79
4, 29065, Note_on_c, 1, 68, 0
4, 29065, Note_on_c, 1, 65, 0
4, 29088, Note_on_c, 1, 67, 79
4, 29088, Note_on_c, 1, 63, 79
4, 29177, Note_on_c, 1, 67, 0
4, 29177, Note_on_c, 1, 63, 0
4, 29280, Note_on_c, 1, 68, 79
4, 29280, Note_on_c, 1, 62, 79
4, 29280, Note_on_c, 1, 58, 79
4, 29376, Note_on_c, 1, 68, 0
4, 29376, Note_on_c, 1, 62, 0
4, 29376, Note_on_c, 1, 58, 0
4, 29376, Note_on_c, 1, 67, 79
4, 29376, Note_on_c, 1, 63, 79
4, 29465, Note_on_c, 1, 67, 0
4, 29465, Note_on_c, 1, 63, 0
4, 29568, Note_on_c, 1, 68, 79
4, 29568, Note_on_c, 1, 62, 79
4, 29568, Note_on_c, 1, 58, 79
4, 29664, Note_on_c, 1, 68, 0
4, 29664, Note_on_c, 1, 62, 0
4, 29664, Note_on_c, 1, 58, 0
4, 29664, Note_on_c, 1, 67, 79
4, 29664, Note_on_c, 1, 63, 79
4, 29753, Note_on_c, 1, 67, 0
4, 29753, Note_on_c, 1, 63, 0
4, 29856, Note_on_c, 1, 68, 79
4, 29856, Note_on_c, 1, 62, 79
4, 29856, Note_on_c, 1, 58, 79
4, 29945, Note_on_c, 1, 68, 0
4, 29945, Note_on_c, 1, 62, 0
4, 29945, Note_on_c, 1, 58, 0
4, 29952, Note_on_c, 1, 67, 79
4, 29952, Note_on_c, 1, 63, 79
4, 30041, Note_on_c, 1, 67, 0
4, 30041, Note_on_c, 1, 63, 0
4, 30336, Note_on_c, 1, 56, 79
4, 30336, Note_on_c, 1, 44, 79
4, 30425, Note_on_c, 1, 56, 0
4, 30425, Note_on_c, 1, 44, 0
4, 30720, Note_on_c, 1, 66, 79
4, 30720, Note_on_c, 1, 63, 79
4, 30787, Note_on_c, 1, 66, 0
4, 30787, Note_on_c, 1, 63, 0
4, 30792, Note_on_c, 1, 66, 79
4, 30792, Note_on_c, 1, 63, 79
4, 30815, Note_on_c, 1, 66, 0
4, 30815, Note_on_c, 1, 63, 0
4, 30816, Note_on_c, 1, 66, 79
4, 30816, Note_on_c, 1, 63, 79
4, 30912, Note_on_c, 1, 66, 0
4, 30912, Note_on_c, 1, 63, 0
4, 30912, Note_on_c, 1, 65, 79
4, 30912, Note_on_c, 1, 61, 79
4, 31001, Note_on_c, 1, 65, 0
4, 31001, Note_on_c, 1, 61, 0
4, 31008, Note_on_c, 1, 63, 79
4, 31008, Note_on_c, 1, 61, 79
4, 31075, Note_on_c, 1, 63, 0
4, 31075, Note_on_c, 1, 61, 0
4, 31080, Note_on_c, 1, 63, 79
4, 31080, Note_on_c, 1, 61, 79
4, 31103, Note_on_c, 1, 63, 0
4, 31103, Note_on_c, 1, 61, 0
4, 31104, Note_on_c, 1, 63, 79
4, 31281, Note_on_c, 1, 63, 0
4, 31584, Note_on_c, 1, 58, 79
4, 31584, Note_on_c, 1, 51, 79
4, 31673, Note_on_c, 1, 58, 0
4, 31673, Note_on_c, 1, 51, 0
4, 31680, Note_on_c, 1, 56, 79
4, 31680, Note_on_c, 1, 44, 79
4, 31769, Note_on_c, 1, 56, 0
4, 31769, Note_on_c, 1, 44, 0
4, 32160, Note_on_c, 1, 75, 79
4, 32345, Note_on_c, 1, 75, 0
4, 32352, Note_on_c, 1, 74, 79
4, 32441, Note_on_c, 1, 74, 0
4, 32448, Note_on_c, 1, 73, 79
4, 32633, Note_on_c, 1, 73, 0
4, 32640, Note_on_c, 1, 72, 79
4, 32729, Note_on_c, 1, 72, 0
4, 32832, Note_on_c, 1, 68, 79
4, 32832, Note_on_c, 1, 65, 79
4, 33097, Note_on_c, 1, 68, 0
4, 33097, Note_on_c, 1, 65, 0
4, 33120, Note_on_c, 1, 67, 79
4, 33120, Note_on_c, 1, 63, 79
4, 33209, Note_on_c, 1, 67, 0
4, 33209, Note_on_c, 1, 63, 0
4, 33312, Note_on_c, 1, 68, 79
4, 33312, Note_on_c, 1, 62, 79
4, 33312, Note_on_c, 1, 58, 79
4, 33408, Note_on_c, 1, 68, 0
4, 33408, Note_on_c, 1, 62, 0
4, 33408, Note_on_c, 1, 58, 0
4, 33408, Note_on_c, 1, 67, 79
4, 33408, Note_on_c, 1, 63, 79
4, 33497, Note_on_c, 1, 67, 0
4, 33497, Note_on_c, 1, 63, 0
4, 33600, Note_on_c, 1, 68, 79
4, 33600, Note_on_c, 1, 62, 79
4, 33600, Note_on_c, 1, 58, 79
4, 33696, Note_on_c, 1, 68, 0
4, 33696, Note_on_c, 1, 62, 0
4, 33696, Note_on_c, 1, 58, 0
4, 33696, Note_on_c, 1, 67, 79
4, 33696, Note_on_c, 1, 63, 79
4, 33785, Note_on_c, 1, 67, 0
4, 33785, Note_on_c, 1, 63, 0
4, 33888, Note_on_c, 1, 68, 79
4, 33888, Note_on_c, 1, 62, 79
4, 33888, Note_on_c, 1, 58, 79
4, 33977, Note_on_c, 1, 68, 0
4, 33977, Note_on_c, 1, 62, 0
4, 33977, Note_on_c, 1, 58, 0
4, 33984, Note_on_c, 1, 67, 79
4, 33984, Note_on_c, 1, 63, 79
4, 34073, Note_on_c, 1, 67, 0
4, 34073, Note_on_c, 1, 63, 0
4, 34368, Note_on_c, 1, 56, 79
4, 34368, Note_on_c, 1, 44, 79
4, 34457, Note_on_c, 1, 56, 0
4, 34457, Note_on_c, 1, 44, 0
4, 34752, Note_on_c, 1, 66, 79
4, 34752, Note_on_c, 1, 63, 79
4, 34819, Note_on_c, 1, 66, 0
4, 34819, Note_on_c, 1, 63, 0
4, 34824, Note_on_c, 1, 66, 79
4, 34824, Note_on_c, 1, 63, 79
4, 34847, Note_on_c, 1, 66, 0
4, 34847, Note_on_c, 1, 63, 0
4, 34848, Note_on_c, 1, 66, 79
4, 34848, Note_on_c, 1, 63, 79
4, 34944, Note_on_c, 1, 66, 0
4, 34944, Note_on_c, 1, 63, 0
4, 34944, Note_on_c, 1, 65, 79
4, 34944, Note_on_c, 1, 61, 79
4, 35033, Note_on_c, 1, 65, 0
4, 35033, Note_on_c, 1, 61, 0
4, 35040, Note_on_c, 1, 63, 79
4, 35040, Note_on_c, 1, 61, 79
4, 35107, Note_on_c, 1, 63, 0
4, 35107, Note_on_c, 1, 61, 0
4, 35112, Note_on_c, 1, 63, 79
4, 35112, Note_on_c, 1, 61, 79
4, 35135, Note_on_c, 1, 63, 0
4, 35135, Note_on_c, 1, 61, 0
4, 35136, Note_on_c, 1, 63, 79
4, 35313, Note_on_c, 1, 63, 0
4, 35616, Note_on_c, 1, 58, 79
4, 35616, Note_on_c, 1, 51, 79
4, 35705, Note_on_c, 1, 58, 0
4, 35705, Note_on_c, 1, 51, 0
4, 35712, Note_on_c, 1, 56, 79
4, 35712, Note_on_c, 1, 44, 79
4, 35801, Note_on_c, 1, 56, 0
4, 35801, Note_on_c, 1, 44, 0
4, 35904, Note_on_c, 1, 56, 4
4, 35904, Note_on_c, 1, 44, 4
4, 35993, Note_on_c, 1, 56, 0
4, 35993, Note_on_c, 1, 44, 0
4, 36000, End_track
5, 0, Start_track
5, 0, Program_c, 1, 0
5, 0, Control_c, 1, 7, 127
5, 0, Control_c, 1, 10, 64
5, 5088, Note_on_c, 1, 69, 64
5, 5177, Note_on_c, 1, 69, 0
5, 5184, Note_on_c, 1, 70, 64
5, 5361, Note_on_c, 1, 70, 0
5, 5376, Note_on_c, 1, 67, 64
5, 5465, Note_on_c, 1, 67, 0
5, 5472, Note_on_c, 1, 68, 64
5, 5649, Note_on_c, 1, 68, 0
5, 8064, Note_on_c, 1, 61, 64
5, 8160, Note_on_c, 1, 61, 0
5, 8160, Note_on_c, 1, 60, 64
5, 8249, Note_on_c, 1, 60, 0
5, 9120, Note_on_c, 1, 69, 64
5, 9209, Note_on_c, 1, 69, 0
5, 9216, Note_on_c, 1, 70, 64
5, 9393, Note_on_c, 1, 70, 0
5, 9408, Note_on_c, 1, 67, 64
5, 9497, Note_on_c, 1, 67, 0
5, 9504, Note_on_c, 1, 68, 64
5, 9681, Note_on_c, 1, 68, 0
5, 12096, Note_on_c, 1, 61, 64
5, 12192, Note_on_c, 1, 61, 0
5, 12192, Note_on_c, 1, 60, 64
5, 12281, Note_on_c, 1, 60, 0
5, 18144, Note_on_c, 1, 53, 64
5, 18409, Note_on_c, 1, 53, 0
5, 18432, Note_on_c, 1, 51, 64
5, 18609, Note_on_c, 1, 51, 0
5, 18720, Note_on_c, 1, 56, 68
5, 18765, Note_on_c, 1, 56, 0
5, 18768, Note_on_c, 1, 63, 68
5, 18813, Note_on_c, 1, 63, 0
5, 18816, Note_on_c, 1, 60, 68
5, 18861, Note_on_c, 1, 60, 0
5, 18864, Note_on_c, 1, 63, 68
5, 18909, Note_on_c, 1, 63, 0
5, 18912, Note_on_c, 1, 56, 68
5, 18957, Note_on_c, 1, 56, 0
5, 18960, Note_on_c, 1, 63, 68
5, 19005, Note_on_c, 1, 63, 0
5, 19008, Note_on_c, 1, 56, 68
5, 19053, Note_on_c, 1, 56, 0
5, 19056, Note_on_c, 1, 63, 68
5, 19101, Note_on_c, 1, 63, 0
5, 19104, Note_on_c, 1, 60, 68
5, 19149, Note_on_c, 1, 60, 0
5, 19152, Note_on_c, 1, 63, 68
5, 19197, Note_on_c, 1, 63, 0
5, 19200, Note_on_c, 1, 56, 68
5, 19245, Note_on_c, 1, 56, 0
5, 19248, Note_on_c, 1, 63, 68
5, 19293, Note_on_c, 1, 63, 0
5, 19296, Note_on_c, 1, 48, 68
5, 19341, Note_on_c, 1, 48, 0
5, 19344, Note_on_c, 1, 56, 68
5, 19389, Note_on_c, 1, 56, 0
5, 19392, Note_on_c, 1, 51, 68
5, 19437, Note_on_c, 1, 51, 0
5, 19440, Note_on_c, 1, 56, 68
5, 19485, Note_on_c, 1, 56, 0
5, 19488, Note_on_c, 1, 48, 68
5, 19533, Note_on_c, 1, 48, 0
5, 19536, Note_on_c, 1, 56, 68
5, 19581, Note_on_c, 1, 56, 0
5, 19584, Note_on_c, 1, 48, 68
5, 19629, Note_on_c, 1, 48, 0
5, 19632, Note_on_c, 1, 56, 68
5, 19677, Note_on_c, 1, 56, 0
5, 19680, Note_on_c, 1, 51, 68
5, 19725, Note_on_c, 1, 51, 0
5, 19728, Note_on_c, 1, 56, 68
5, 19773, Note_on_c, 1, 56, 0
5, 19776, Note_on_c, 1, 48, 68
5, 19821, Note_on_c, 1, 48, 0
5, 19824, Note_on_c, 1, 56, 68
5, 19869, Note_on_c, 1, 56, 0
5, 19872, Note_on_c, 1, 49, 68
5, 19961, Note_on_c, 1, 49, 0
5, 20064, Note_on_c, 1, 51, 68
5, 20153, Note_on_c, 1, 51, 0
5, 20160, Note_on_c, 1, 56, 68
5, 20160, Note_on_c, 1, 44, 68
5, 20249, Note_on_c, 1, 56, 0
5, 20249, Note_on_c, 1, 44, 0
5, 21024, Note_on_c, 1, 53, 64
5, 21289, Note_on_c, 1, 53, 0
5, 21312, Note_on_c, 1, 51, 64
5, 21489, Note_on_c, 1, 51, 0
5, 21600, Note_on_c, 1, 56, 68
5, 21645, Note_on_c, 1, 56, 0
5, 21648, Note_on_c, 1, 63, 68
5, 21693, Note_on_c, 1, 63, 0
5, 21696, Note_on_c, 1, 60, 68
5, 21741, Note_on_c, 1, 60, 0
5, 21744, Note_on_c, 1, 63, 68
5, 21789, Note_on_c, 1, 63, 0
5, 21792, Note_on_c, 1, 56, 68
5, 21837, Note_on_c, 1, 56, 0
5, 21840, Note_on_c, 1, 63, 68
5, 21885, Note_on_c, 1, 63, 0
5, 21888, Note_on_c, 1, 56, 68
5, 21933, Note_on_c, 1, 56, 0
5, 21936, Note_on_c, 1, 63, 68
5, 21981, Note_on_c, 1, 63, 0
5, 21984, Note_on_c, 1, 60, 68
5, 22029, Note_on_c, 1, 60, 0
5, 22032, Note_on_c, 1, 63, 68
5, 22077, Note_on_c, 1, 63, 0
5, 22080, Note_on_c, 1, 56, 68
5, 22125, Note_on_c, 1, 56, 0
5, 22128, Note_on_c, 1, 63, 68
5, 22173, Note_on_c, 1, 63, 0
5, 22176, Note_on_c, 1, 48, 68
5, 22221, Note_on_c, 1, 48, 0
5, 22224, Note_on_c, 1, 56, 68
5, 22269, Note_on_c, 1, 56, 0
5, 22272, Note_on_c, 1, 51, 68
5, 22317, Note_on_c, 1, 51, 0
5, 22320, Note_on_c, 1, 56, 68
5, 22365, Note_on_c, 1, 56, 0
5, 22368, Note_on_c, 1, 48, 68
5, 22413, Note_on_c, 1, 48, 0
5, 22416, Note_on_c, 1, 56, 68
5, 22461, Note_on_c, 1, 56, 0
5, 22464, Note_on_c, 1, 48, 68
5, 22509, Note_on_c, 1, 48, 0
5, 22512, Note_on_c, 1, 56, 68
5, 22557, Note_on_c, 1, 56, 0
5, 22560, Note_on_c, 1, 51, 68
5, 22605, Note_on_c, 1, 51, 0
5, 22608, Note_on_c, 1, 56, 68
5, 22653, Note_on_c, 1, 56, 0
5, 22656, Note_on_c, 1, 48, 68
5, 22701, Note_on_c, 1, 48, 0
5, 22704, Note_on_c, 1, 56, 68
5, 22749, Note_on_c, 1, 56, 0
5, 22752, Note_on_c, 1, 49, 68
5, 22841, Note_on_c, 1, 49, 0
5, 22944, Note_on_c, 1, 51, 68
5, 23033, Note_on_c, 1, 51, 0
5, 23040, Note_on_c, 1, 56, 68
5, 23040, Note_on_c, 1, 44, 68
5, 23129, Note_on_c, 1, 56, 0
5, 23129, Note_on_c, 1, 44, 0
5, 28128, Note_on_c, 1, 69, 79
5, 28217, Note_on_c, 1, 69, 0
5, 28224, Note_on_c, 1, 70, 79
5, 28401, Note_on_c, 1, 70, 0
5, 28416, Note_on_c, 1, 67, 79
5, 28505, Note_on_c, 1, 67, 0
5, 28512, Note_on_c, 1, 68, 79
5, 28689, Note_on_c, 1, 68, 0
5, 31104, Note_on_c, 1, 61, 79
5, 31200, Note_on_c, 1, 61, 0
5, 31200, Note_on_c, 1, 60, 79
5, 31289, Note_on_c, 1, 60, 0
5, 32160, Note_on_c, 1, 69, 79
5, 32249, Note_on_c, 1, 69, 0
5, 32256, Note_on_c, 1, 70, 79
5, 32433, Note_on_c, 1, 70, 0
5, 32448, Note_on_c, 1, 67, 79
5, 32537, Note_on_c, 1, 67, 0
5, 32544, Note_on_c, 1, 68, 79
5, 32721, Note_on_c, 1, 68, 0
5, 35136, Note_on_c, 1, 61, 79
5, 35232, Note_on_c, 1, 61, 0
5, 35232, Note_on_c, 1, 60, 79
5, 35321, Note_on_c, 1, 60, 0
5, 36000, End_track
6, 0, Start_track
6, 0, Title_t, "Sonata I   Haydn  "
6, 0, End_track
0, 0, End_of_file
