0, 0, Header, 1, 6, 96
1, 0, Start_track
1, 0, Copyright_t, "Copyright  2000 <copyright holder>"
1, 0, Text_t, "Sonata I\015\012"
1, 0, Text_t, "Haydn\015\012"
1, 0, Sequencer_specific, 16, 68, 87, 77, 90, 86, 82, 83, 78, 32, 55, 46, 49, 46, 49, 46, 48
1, 0, Time_signature, 3, 2, 24, 8
1, 0, Tempo, 1000000
1, 0, Key_signature, 1, "major"
1, 19872, Time_signature, 2, 2, 24, 8
1, 20064, Tempo, 300000
1, 20208, Tempo, 480000
1, 21744, Tempo, 480000
1, 27120, Key_signature, 4, "major"
1, 27936, Tempo, 500000
1, 28032, Tempo, 480000
1, 28128, Tempo, 500000
1, 28224, Tempo, 480000
1, 28656, Key_signature, 4, "major"
1, 29472, Tempo, 500000
1, 29568, Tempo, 480000
1, 29664, Tempo, 500000
1, 29760, Tempo, 480000
1, 35568, Key_signature, 1, "major"
1, 40800, Tempo, 500000
1, 40944, Tempo, 480000
1, 42480, Key_signature, 4, "major"
1, 44016, Key_signature, 4, "major"
1, 46944, Tempo, 1000000
1, 47088, Tempo, 480000
1, 50016, Tempo, 1000000
1, 50160, Tempo, 480000
1, 51696, Key_signature, 1, "major"
1, 58272, Tempo, 500000
1, 58656, End_track
2, 0, Start_track
2, 0, Program_c, 0, 0
2, 0, Control_c, 0, 7, 127
2, 0, Control_c, 0, 10, 64
2, 0, Note_on_c, 0, 67, 64
2, 67, Note_on_c, 0, 67, 0
2, 72, Note_on_c, 0, 69, 64
2, 80, Note_on_c, 0, 69, 0
2, 80, Note_on_c, 0, 67, 64
2, 88, Note_on_c, 0, 67, 0
2, 88, Note_on_c, 0, 66, 64
2, 96, Note_on_c, 0, 66, 0
2, 96, Note_on_c, 0, 67, 64
2, 116, Note_on_c, 0, 67, 0
2, 144, Note_on_c, 0, 71, 64
2, 164, Note_on_c, 0, 71, 0
2, 192, Note_on_c, 0, 74, 64
2, 212, Note_on_c, 0, 74, 0
2, 240, Note_on_c, 0, 67, 64
2, 260, Note_on_c, 0, 67, 0
2, 288, Note_on_c, 0, 66, 80
2, 360, Note_on_c, 0, 66, 0
2, 360, Note_on_c, 0, 67, 64
2, 368, Note_on_c, 0, 67, 0
2, 368, Note_on_c, 0, 66, 64
2, 376, Note_on_c, 0, 66, 0
2, 376, Note_on_c, 0, 64, 64
2, 384, Note_on_c, 0, 64, 0
2, 384, Note_on_c, 0, 66, 64
2, 396, Note_on_c, 0, 66, 0
2, 396, Note_on_c, 0, 69, 64
2, 408, Note_on_c, 0, 69, 0
2, 408, Note_on_c, 0, 67, 64
2, 420, Note_on_c, 0, 67, 0
2, 420, Note_on_c, 0, 71, 64
2, 432, Note_on_c, 0, 71, 0
2, 432, Note_on_c, 0, 69, 64
2, 444, Note_on_c, 0, 69, 0
2, 444, Note_on_c, 0, 72, 64
2, 456, Note_on_c, 0, 72, 0
2, 456, Note_on_c, 0, 71, 64
2, 468, Note_on_c, 0, 71, 0
2, 468, Note_on_c, 0, 74, 64
2, 480, Note_on_c, 0, 74, 0
2, 480, Note_on_c, 0, 72, 64
2, 500, Note_on_c, 0, 72, 0
2, 576, Note_on_c, 0, 69, 64
2, 643, Note_on_c, 0, 69, 0
2, 648, Note_on_c, 0, 71, 64
2, 656, Note_on_c, 0, 71, 0
2, 656, Note_on_c, 0, 69, 64
2, 664, Note_on_c, 0, 69, 0
2, 664, Note_on_c, 0, 68, 64
2, 672, Note_on_c, 0, 68, 0
2, 672, Note_on_c, 0, 69, 75
2, 682, Note_on_c, 0, 69, 0
2, 696, Note_on_c, 0, 71, 76
2, 706, Note_on_c, 0, 71, 0
2, 720, Note_on_c, 0, 72, 77
2, 730, Note_on_c, 0, 72, 0
2, 744, Note_on_c, 0, 74, 78
2, 754, Note_on_c, 0, 74, 0
2, 768, Note_on_c, 0, 76, 80
2, 778, Note_on_c, 0, 76, 0
2, 792, Note_on_c, 0, 72, 78
2, 815, Note_on_c, 0, 72, 0
2, 816, Note_on_c, 0, 71, 77
2, 839, Note_on_c, 0, 71, 0
2, 840, Note_on_c, 0, 69, 76
2, 863, Note_on_c, 0, 69, 0
2, 864, Note_on_c, 0, 71, 75
2, 931, Note_on_c, 0, 71, 0
2, 936, Note_on_c, 0, 72, 75
2, 944, Note_on_c, 0, 72, 0
2, 944, Note_on_c, 0, 71, 75
2, 952, Note_on_c, 0, 71, 0
2, 952, Note_on_c, 0, 69, 75
2, 960, Note_on_c, 0, 69, 0
2, 960, Note_on_c, 0, 71, 75
2, 972, Note_on_c, 0, 71, 0
2, 972, Note_on_c, 0, 67, 75
2, 984, Note_on_c, 0, 67, 0
2, 984, Note_on_c, 0, 72, 75
2, 996, Note_on_c, 0, 72, 0
2, 996, Note_on_c, 0, 69, 75
2, 1008, Note_on_c, 0, 69, 0
2, 1008, Note_on_c, 0, 74, 75
2, 1020, Note_on_c, 0, 74, 0
2, 1020, Note_on_c, 0, 71, 75
2, 1032, Note_on_c, 0, 71, 0
2, 1032, Note_on_c, 0, 76, 75
2, 1044, Note_on_c, 0, 76, 0
2, 1044, Note_on_c, 0, 72, 75
2, 1056, Note_on_c, 0, 72, 0
2, 1056, Note_on_c, 0, 74, 75
2, 1076, Note_on_c, 0, 74, 0
2, 1152, Note_on_c, 0, 79, 75
2, 1219, Note_on_c, 0, 79, 0
2, 1224, Note_on_c, 0, 81, 75
2, 1232, Note_on_c, 0, 81, 0
2, 1232, Note_on_c, 0, 79, 75
2, 1240, Note_on_c, 0, 79, 0
2, 1240, Note_on_c, 0, 78, 75
2, 1248, Note_on_c, 0, 78, 0
2, 1248, Note_on_c, 0, 79, 75
2, 1258, Note_on_c, 0, 79, 0
2, 1272, Note_on_c, 0, 83, 76
2, 1282, Note_on_c, 0, 83, 0
2, 1296, Note_on_c, 0, 86, 77
2, 1306, Note_on_c, 0, 86, 0
2, 1320, Note_on_c, 0, 83, 78
2, 1330, Note_on_c, 0, 83, 0
2, 1344, Note_on_c, 0, 79, 80
2, 1354, Note_on_c, 0, 79, 0
2, 1368, Note_on_c, 0, 74, 78
2, 1391, Note_on_c, 0, 74, 0
2, 1392, Note_on_c, 0, 72, 77
2, 1415, Note_on_c, 0, 72, 0
2, 1416, Note_on_c, 0, 71, 76
2, 1439, Note_on_c, 0, 71, 0
2, 1440, Note_on_c, 0, 69, 75
2, 1507, Note_on_c, 0, 69, 0
2, 1512, Note_on_c, 0, 71, 75
2, 1520, Note_on_c, 0, 71, 0
2, 1520, Note_on_c, 0, 69, 75
2, 1528, Note_on_c, 0, 69, 0
2, 1528, Note_on_c, 0, 68, 75
2, 1536, Note_on_c, 0, 68, 0
2, 1536, Note_on_c, 0, 69, 75
2, 1559, Note_on_c, 0, 69, 0
2, 1560, Note_on_c, 0, 71, 75
2, 1583, Note_on_c, 0, 71, 0
2, 1584, Note_on_c, 0, 72, 76
2, 1607, Note_on_c, 0, 72, 0
2, 1608, Note_on_c, 0, 74, 76
2, 1631, Note_on_c, 0, 74, 0
2, 1632, Note_on_c, 0, 75, 77
2, 1656, Note_on_c, 0, 75, 0
2, 1656, Note_on_c, 0, 76, 78
2, 1679, Note_on_c, 0, 76, 0
2, 1680, Note_on_c, 0, 72, 78
2, 1703, Note_on_c, 0, 72, 0
2, 1704, Note_on_c, 0, 69, 79
2, 1727, Note_on_c, 0, 69, 0
2, 1728, Note_on_c, 0, 74, 80
2, 1935, Note_on_c, 0, 74, 0
2, 1936, Note_on_c, 0, 73, 77
2, 1951, Note_on_c, 0, 73, 0
2, 1952, Note_on_c, 0, 72, 74
2, 1967, Note_on_c, 0, 72, 0
2, 1968, Note_on_c, 0, 71, 71
2, 1983, Note_on_c, 0, 71, 0
2, 1984, Note_on_c, 0, 70, 69
2, 1999, Note_on_c, 0, 70, 0
2, 2000, Note_on_c, 0, 69, 66
2, 2015, Note_on_c, 0, 69, 0
2, 2016, Note_on_c, 0, 67, 58
2, 2105, Note_on_c, 0, 67, 0
2, 2256, Control_c, 0, 64, 127
2, 2256, Note_on_c, 0, 71, 75
2, 2268, Note_on_c, 0, 71, 0
2, 2268, Note_on_c, 0, 74, 75
2, 2280, Note_on_c, 0, 74, 0
2, 2280, Note_on_c, 0, 79, 75
2, 2292, Note_on_c, 0, 79, 0
2, 2292, Note_on_c, 0, 83, 75
2, 2304, Note_on_c, 0, 83, 0
2, 2304, Note_on_c, 0, 86, 91
2, 2400, Control_c, 0, 64, 0
2, 2423, Note_on_c, 0, 86, 0
2, 2424, Note_on_c, 0, 84, 75
2, 2436, Note_on_c, 0, 84, 0
2, 2436, Note_on_c, 0, 83, 75
2, 2448, Note_on_c, 0, 83, 0
2, 2448, Note_on_c, 0, 81, 75
2, 2460, Note_on_c, 0, 81, 0
2, 2460, Note_on_c, 0, 79, 75
2, 2472, Note_on_c, 0, 79, 0
2, 2472, Note_on_c, 0, 78, 76
2, 2484, Note_on_c, 0, 78, 0
2, 2484, Note_on_c, 0, 79, 77
2, 2496, Note_on_c, 0, 79, 0
2, 2496, Note_on_c, 0, 81, 77
2, 2508, Note_on_c, 0, 81, 0
2, 2508, Note_on_c, 0, 79, 78
2, 2520, Note_on_c, 0, 79, 0
2, 2520, Note_on_c, 0, 83, 79
2, 2532, Note_on_c, 0, 83, 0
2, 2532, Note_on_c, 0, 81, 80
2, 2544, Note_on_c, 0, 81, 0
2, 2544, Note_on_c, 0, 84, 79
2, 2556, Note_on_c, 0, 84, 0
2, 2556, Note_on_c, 0, 83, 79
2, 2568, Note_on_c, 0, 83, 0
2, 2568, Note_on_c, 0, 81, 78
2, 2580, Note_on_c, 0, 81, 0
2, 2580, Note_on_c, 0, 79, 78
2, 2592, Note_on_c, 0, 79, 0
2, 2592, Note_on_c, 0, 80, 93
2, 2664, Note_on_c, 0, 80, 0
2, 2664, Note_on_c, 0, 83, 75
2, 2687, Note_on_c, 0, 83, 0
2, 2688, Note_on_c, 0, 81, 75
2, 2733, Note_on_c, 0, 81, 0
2, 2796, Note_on_c, 0, 74, 75
2, 2808, Note_on_c, 0, 74, 0
2, 2808, Note_on_c, 0, 76, 75
2, 2820, Note_on_c, 0, 76, 0
2, 2820, Note_on_c, 0, 78, 75
2, 2832, Note_on_c, 0, 78, 0
2, 2832, Note_on_c, 0, 80, 75
2, 2844, Note_on_c, 0, 80, 0
2, 2844, Note_on_c, 0, 81, 75
2, 2856, Note_on_c, 0, 81, 0
2, 2856, Note_on_c, 0, 83, 75
2, 2868, Note_on_c, 0, 83, 0
2, 2868, Note_on_c, 0, 85, 75
2, 2880, Note_on_c, 0, 85, 0
2, 2880, Note_on_c, 0, 86, 91
2, 2988, Note_on_c, 0, 86, 0
2, 2988, Note_on_c, 0, 81, 75
2, 3000, Note_on_c, 0, 81, 0
2, 3000, Note_on_c, 0, 79, 75
2, 3012, Note_on_c, 0, 79, 0
2, 3012, Note_on_c, 0, 81, 75
2, 3024, Note_on_c, 0, 81, 0
2, 3024, Note_on_c, 0, 78, 75
2, 3036, Note_on_c, 0, 78, 0
2, 3036, Note_on_c, 0, 79, 75
2, 3048, Note_on_c, 0, 79, 0
2, 3048, Note_on_c, 0, 76, 75
2, 3060, Note_on_c, 0, 76, 0
2, 3060, Note_on_c, 0, 78, 75
2, 3072, Note_on_c, 0, 78, 0
2, 3072, Note_on_c, 0, 74, 75
2, 3084, Note_on_c, 0, 74, 0
2, 3084, Note_on_c, 0, 76, 75
2, 3096, Note_on_c, 0, 76, 0
2, 3096, Note_on_c, 0, 73, 75
2, 3108, Note_on_c, 0, 73, 0
2, 3108, Note_on_c, 0, 76, 75
2, 3120, Note_on_c, 0, 76, 0
2, 3120, Note_on_c, 0, 74, 75
2, 3143, Note_on_c, 0, 74, 0
2, 3156, Note_on_c, 0, 81, 75
2, 3168, Note_on_c, 0, 81, 0
2, 3168, Note_on_c, 0, 81, 75
2, 3213, Note_on_c, 0, 81, 0
2, 3216, Note_on_c, 0, 80, 74
2, 3255, Note_on_c, 0, 80, 0
2, 3312, Note_on_c, 0, 80, 72
2, 3351, Note_on_c, 0, 80, 0
2, 3408, Note_on_c, 0, 79, 70
2, 3468, Note_on_c, 0, 79, 0
2, 3468, Note_on_c, 0, 76, 70
2, 3480, Note_on_c, 0, 76, 0
2, 3480, Note_on_c, 0, 78, 70
2, 3492, Note_on_c, 0, 78, 0
2, 3492, Note_on_c, 0, 79, 71
2, 3504, Note_on_c, 0, 79, 0
2, 3504, Note_on_c, 0, 81, 71
2, 3516, Note_on_c, 0, 81, 0
2, 3516, Note_on_c, 0, 83, 72
2, 3528, Note_on_c, 0, 83, 0
2, 3528, Note_on_c, 0, 85, 73
2, 3540, Note_on_c, 0, 85, 0
2, 3540, Note_on_c, 0, 86, 73
2, 3552, Note_on_c, 0, 86, 0
2, 3552, Note_on_c, 0, 88, 74
2, 3564, Note_on_c, 0, 88, 0
2, 3564, Note_on_c, 0, 86, 75
2, 3576, Note_on_c, 0, 86, 0
2, 3576, Note_on_c, 0, 85, 75
2, 3588, Note_on_c, 0, 85, 0
2, 3588, Note_on_c, 0, 83, 75
2, 3600, Note_on_c, 0, 83, 0
2, 3600, Note_on_c, 0, 81, 75
2, 3612, Note_on_c, 0, 81, 0
2, 3612, Note_on_c, 0, 80, 75
2, 3624, Note_on_c, 0, 80, 0
2, 3624, Note_on_c, 0, 81, 75
2, 3636, Note_on_c, 0, 81, 0
2, 3636, Note_on_c, 0, 80, 75
2, 3648, Note_on_c, 0, 80, 0
2, 3648, Note_on_c, 0, 81, 75
2, 3660, Note_on_c, 0, 81, 0
2, 3660, Note_on_c, 0, 82, 75
2, 3672, Note_on_c, 0, 82, 0
2, 3672, Note_on_c, 0, 83, 75
2, 3684, Note_on_c, 0, 83, 0
2, 3684, Note_on_c, 0, 82, 75
2, 3696, Note_on_c, 0, 82, 0
2, 3696, Note_on_c, 0, 83, 75
2, 3708, Note_on_c, 0, 83, 0
2, 3708, Note_on_c, 0, 79, 75
2, 3720, Note_on_c, 0, 79, 0
2, 3720, Note_on_c, 0, 78, 75
2, 3732, Note_on_c, 0, 78, 0
2, 3732, Note_on_c, 0, 76, 75
2, 3744, Note_on_c, 0, 76, 0
2, 3744, Note_on_c, 0, 78, 75
2, 3756, Note_on_c, 0, 78, 0
2, 3756, Note_on_c, 0, 74, 75
2, 3768, Note_on_c, 0, 74, 0
2, 3768, Note_on_c, 0, 76, 75
2, 3780, Note_on_c, 0, 76, 0
2, 3780, Note_on_c, 0, 78, 75
2, 3792, Note_on_c, 0, 78, 0
2, 3792, Note_on_c, 0, 79, 75
2, 3804, Note_on_c, 0, 79, 0
2, 3804, Note_on_c, 0, 81, 76
2, 3816, Note_on_c, 0, 81, 0
2, 3816, Note_on_c, 0, 83, 77
2, 3828, Note_on_c, 0, 83, 0
2, 3828, Note_on_c, 0, 85, 78
2, 3840, Note_on_c, 0, 85, 0
2, 3840, Note_on_c, 0, 86, 79
2, 3852, Note_on_c, 0, 86, 0
2, 3852, Note_on_c, 0, 85, 80
2, 3864, Note_on_c, 0, 85, 0
2, 3864, Note_on_c, 0, 86, 80
2, 3876, Note_on_c, 0, 86, 0
2, 3876, Note_on_c, 0, 85, 80
2, 3888, Note_on_c, 0, 85, 0
2, 3888, Note_on_c, 0, 86, 80
2, 3900, Note_on_c, 0, 86, 0
2, 3900, Note_on_c, 0, 85, 80
2, 3912, Note_on_c, 0, 85, 0
2, 3912, Note_on_c, 0, 86, 80
2, 3924, Note_on_c, 0, 86, 0
2, 3924, Note_on_c, 0, 85, 80
2, 3936, Note_on_c, 0, 85, 0
2, 3936, Note_on_c, 0, 86, 80
2, 3948, Note_on_c, 0, 86, 0
2, 3948, Note_on_c, 0, 85, 79
2, 3960, Note_on_c, 0, 85, 0
2, 3960, Note_on_c, 0, 83, 78
2, 3972, Note_on_c, 0, 83, 0
2, 3972, Note_on_c, 0, 81, 78
2, 3984, Note_on_c, 0, 81, 0
2, 3984, Note_on_c, 0, 79, 77
2, 3996, Note_on_c, 0, 79, 0
2, 3996, Note_on_c, 0, 78, 76
2, 4008, Note_on_c, 0, 78, 0
2, 4008, Note_on_c, 0, 76, 76
2, 4020, Note_on_c, 0, 76, 0
2, 4020, Note_on_c, 0, 74, 75
2, 4032, Note_on_c, 0, 74, 0
2, 4032, Note_on_c, 0, 76, 75
2, 4044, Note_on_c, 0, 76, 0
2, 4044, Note_on_c, 0, 75, 75
2, 4056, Note_on_c, 0, 75, 0
2, 4056, Note_on_c, 0, 78, 76
2, 4068, Note_on_c, 0, 78, 0
2, 4068, Note_on_c, 0, 76, 76
2, 4080, Note_on_c, 0, 76, 0
2, 4080, Note_on_c, 0, 79, 77
2, 4092, Note_on_c, 0, 79, 0
2, 4092, Note_on_c, 0, 78, 78
2, 4104, Note_on_c, 0, 78, 0
2, 4104, Note_on_c, 0, 81, 78
2, 4116, Note_on_c, 0, 81, 0
2, 4116, Note_on_c, 0, 79, 79
2, 4128, Note_on_c, 0, 79, 0
2, 4128, Note_on_c, 0, 83, 80
2, 4140, Note_on_c, 0, 83, 0
2, 4140, Note_on_c, 0, 79, 80
2, 4152, Note_on_c, 0, 79, 0
2, 4152, Note_on_c, 0, 78, 80
2, 4164, Note_on_c, 0, 78, 0
2, 4164, Note_on_c, 0, 76, 80
2, 4176, Note_on_c, 0, 76, 0
2, 4176, Note_on_c, 0, 75, 80
2, 4188, Note_on_c, 0, 75, 0
2, 4188, Note_on_c, 0, 76, 80
2, 4200, Note_on_c, 0, 76, 0
2, 4200, Note_on_c, 0, 78, 80
2, 4212, Note_on_c, 0, 78, 0
2, 4212, Note_on_c, 0, 76, 80
2, 4224, Note_on_c, 0, 76, 0
2, 4224, Note_on_c, 0, 79, 80
2, 4236, Note_on_c, 0, 79, 0
2, 4236, Note_on_c, 0, 78, 80
2, 4248, Note_on_c, 0, 78, 0
2, 4248, Note_on_c, 0, 81, 80
2, 4260, Note_on_c, 0, 81, 0
2, 4260, Note_on_c, 0, 79, 79
2, 4272, Note_on_c, 0, 79, 0
2, 4272, Note_on_c, 0, 83, 78
2, 4284, Note_on_c, 0, 83, 0
2, 4284, Note_on_c, 0, 79, 77
2, 4296, Note_on_c, 0, 79, 0
2, 4296, Note_on_c, 0, 78, 76
2, 4308, Note_on_c, 0, 78, 0
2, 4308, Note_on_c, 0, 76, 75
2, 4320, Note_on_c, 0, 76, 0
2, 4320, Note_on_c, 0, 81, 75
2, 4332, Note_on_c, 0, 81, 0
2, 4332, Note_on_c, 0, 83, 75
2, 4344, Note_on_c, 0, 83, 0
2, 4344, Note_on_c, 0, 80, 75
2, 4356, Note_on_c, 0, 80, 0
2, 4356, Note_on_c, 0, 83, 75
2, 4368, Note_on_c, 0, 83, 0
2, 4368, Note_on_c, 0, 81, 75
2, 4380, Note_on_c, 0, 81, 0
2, 4380, Note_on_c, 0, 83, 75
2, 4392, Note_on_c, 0, 83, 0
2, 4392, Note_on_c, 0, 80, 75
2, 4404, Note_on_c, 0, 80, 0
2, 4404, Note_on_c, 0, 83, 75
2, 4416, Note_on_c, 0, 83, 0
2, 4416, Note_on_c, 0, 81, 75
2, 4428, Note_on_c, 0, 81, 0
2, 4428, Note_on_c, 0, 83, 75
2, 4440, Note_on_c, 0, 83, 0
2, 4440, Note_on_c, 0, 80, 75
2, 4452, Note_on_c, 0, 80, 0
2, 4452, Note_on_c, 0, 83, 75
2, 4464, Note_on_c, 0, 83, 0
2, 4464, Note_on_c, 0, 81, 75
2, 4476, Note_on_c, 0, 81, 0
2, 4476, Note_on_c, 0, 83, 75
2, 4488, Note_on_c, 0, 83, 0
2, 4488, Note_on_c, 0, 80, 75
2, 4500, Note_on_c, 0, 80, 0
2, 4500, Note_on_c, 0, 83, 75
2, 4512, Note_on_c, 0, 83, 0
2, 4512, Note_on_c, 0, 81, 75
2, 4522, Note_on_c, 0, 81, 0
2, 4536, Note_on_c, 0, 82, 76
2, 4546, Note_on_c, 0, 82, 0
2, 4560, Note_on_c, 0, 83, 78
2, 4570, Note_on_c, 0, 83, 0
2, 4584, Note_on_c, 0, 86, 80
2, 4594, Note_on_c, 0, 86, 0
2, 4608, Note_on_c, 0, 74, 80
2, 4626, Note_on_c, 0, 74, 0
2, 4626, Note_on_c, 0, 76, 80
2, 4635, Note_on_c, 0, 76, 0
2, 4635, Note_on_c, 0, 78, 80
2, 4644, Note_on_c, 0, 78, 0
2, 4644, Note_on_c, 0, 76, 80
2, 4653, Note_on_c, 0, 76, 0
2, 4653, Note_on_c, 0, 78, 80
2, 4662, Note_on_c, 0, 78, 0
2, 4662, Note_on_c, 0, 76, 80
2, 4671, Note_on_c, 0, 76, 0
2, 4671, Note_on_c, 0, 78, 80
2, 4680, Note_on_c, 0, 78, 0
2, 4680, Note_on_c, 0, 76, 80
2, 4688, Note_on_c, 0, 76, 0
2, 4688, Note_on_c, 0, 78, 80
2, 4696, Note_on_c, 0, 78, 0
2, 4696, Note_on_c, 0, 76, 80
2, 4704, Note_on_c, 0, 76, 0
2, 4704, Note_on_c, 0, 78, 80
2, 4712, Note_on_c, 0, 78, 0
2, 4712, Note_on_c, 0, 76, 80
2, 4720, Note_on_c, 0, 76, 0
2, 4720, Note_on_c, 0, 78, 80
2, 4728, Note_on_c, 0, 78, 0
2, 4728, Note_on_c, 0, 76, 80
2, 4736, Note_on_c, 0, 76, 0
2, 4736, Note_on_c, 0, 78, 80
2, 4744, Note_on_c, 0, 78, 0
2, 4744, Note_on_c, 0, 76, 80
2, 4752, Note_on_c, 0, 76, 0
2, 4752, Note_on_c, 0, 78, 80
2, 4760, Note_on_c, 0, 78, 0
2, 4760, Note_on_c, 0, 76, 80
2, 4768, Note_on_c, 0, 76, 0
2, 4768, Note_on_c, 0, 78, 80
2, 4776, Note_on_c, 0, 78, 0
2, 4776, Note_on_c, 0, 76, 80
2, 4784, Note_on_c, 0, 76, 0
2, 4784, Note_on_c, 0, 78, 80
2, 4792, Note_on_c, 0, 78, 0
2, 4792, Note_on_c, 0, 76, 80
2, 4800, Note_on_c, 0, 76, 0
2, 4800, Note_on_c, 0, 78, 80
2, 4808, Note_on_c, 0, 78, 0
2, 4808, Note_on_c, 0, 76, 80
2, 4816, Note_on_c, 0, 76, 0
2, 4816, Note_on_c, 0, 78, 80
2, 4824, Note_on_c, 0, 78, 0
2, 4824, Note_on_c, 0, 76, 80
2, 4832, Note_on_c, 0, 76, 0
2, 4832, Note_on_c, 0, 78, 80
2, 4840, Note_on_c, 0, 78, 0
2, 4840, Note_on_c, 0, 76, 80
2, 4848, Note_on_c, 0, 76, 0
2, 4848, Note_on_c, 0, 78, 80
2, 4856, Note_on_c, 0, 78, 0
2, 4856, Note_on_c, 0, 76, 80
2, 4864, Note_on_c, 0, 76, 0
2, 4864, Note_on_c, 0, 78, 80
2, 4872, Note_on_c, 0, 78, 0
2, 4872, Note_on_c, 0, 76, 80
2, 4880, Note_on_c, 0, 76, 0
2, 4880, Note_on_c, 0, 74, 80
2, 4888, Note_on_c, 0, 74, 0
2, 4888, Note_on_c, 0, 76, 80
2, 4896, Note_on_c, 0, 76, 0
2, 4896, Note_on_c, 0, 74, 80
2, 4985, Note_on_c, 0, 74, 0
2, 5004, Note_on_c, 0, 81, 80
2, 5016, Note_on_c, 0, 81, 0
2, 5016, Note_on_c, 0, 79, 79
2, 5028, Note_on_c, 0, 79, 0
2, 5028, Note_on_c, 0, 78, 79
2, 5040, Note_on_c, 0, 78, 0
2, 5040, Note_on_c, 0, 76, 79
2, 5052, Note_on_c, 0, 76, 0
2, 5052, Note_on_c, 0, 74, 78
2, 5064, Note_on_c, 0, 74, 0
2, 5064, Note_on_c, 0, 73, 78
2, 5076, Note_on_c, 0, 73, 0
2, 5076, Note_on_c, 0, 71, 78
2, 5088, Note_on_c, 0, 71, 0
2, 5088, Note_on_c, 0, 69, 77
2, 5100, Note_on_c, 0, 69, 0
2, 5100, Note_on_c, 0, 67, 77
2, 5112, Note_on_c, 0, 67, 0
2, 5112, Note_on_c, 0, 66, 77
2, 5124, Note_on_c, 0, 66, 0
2, 5124, Note_on_c, 0, 64, 76
2, 5136, Note_on_c, 0, 64, 0
2, 5136, Note_on_c, 0, 62, 76
2, 5148, Note_on_c, 0, 62, 0
2, 5148, Note_on_c, 0, 61, 76
2, 5160, Note_on_c, 0, 61, 0
2, 5160, Note_on_c, 0, 59, 75
2, 5172, Note_on_c, 0, 59, 0
2, 5172, Note_on_c, 0, 57, 75
2, 5184, Note_on_c, 0, 57, 0
2, 5760, Note_on_c, 0, 67, 64
2, 5827, Note_on_c, 0, 67, 0
2, 5832, Note_on_c, 0, 69, 64
2, 5840, Note_on_c, 0, 69, 0
2, 5840, Note_on_c, 0, 67, 64
2, 5848, Note_on_c, 0, 67, 0
2, 5848, Note_on_c, 0, 66, 64
2, 5856, Note_on_c, 0, 66, 0
2, 5856, Note_on_c, 0, 67, 64
2, 5876, Note_on_c, 0, 67, 0
2, 5904, Note_on_c, 0, 71, 64
2, 5924, Note_on_c, 0, 71, 0
2, 5952, Note_on_c, 0, 74, 64
2, 5972, Note_on_c, 0, 74, 0
2, 6000, Note_on_c, 0, 67, 64
2, 6020, Note_on_c, 0, 67, 0
2, 6048, Note_on_c, 0, 66, 80
2, 6120, Note_on_c, 0, 66, 0
2, 6120, Note_on_c, 0, 67, 64
2, 6128, Note_on_c, 0, 67, 0
2, 6128, Note_on_c, 0, 66, 64
2, 6136, Note_on_c, 0, 66, 0
2, 6136, Note_on_c, 0, 64, 64
2, 6144, Note_on_c, 0, 64, 0
2, 6144, Note_on_c, 0, 66, 64
2, 6156, Note_on_c, 0, 66, 0
2, 6156, Note_on_c, 0, 69, 64
2, 6168, Note_on_c, 0, 69, 0
2, 6168, Note_on_c, 0, 67, 64
2, 6180, Note_on_c, 0, 67, 0
2, 6180, Note_on_c, 0, 71, 64
2, 6192, Note_on_c, 0, 71, 0
2, 6192, Note_on_c, 0, 69, 64
2, 6204, Note_on_c, 0, 69, 0
2, 6204, Note_on_c, 0, 72, 64
2, 6216, Note_on_c, 0, 72, 0
2, 6216, Note_on_c, 0, 71, 64
2, 6228, Note_on_c, 0, 71, 0
2, 6228, Note_on_c, 0, 74, 64
2, 6240, Note_on_c, 0, 74, 0
2, 6240, Note_on_c, 0, 72, 64
2, 6260, Note_on_c, 0, 72, 0
2, 6336, Note_on_c, 0, 69, 64
2, 6403, Note_on_c, 0, 69, 0
2, 6408, Note_on_c, 0, 71, 64
2, 6416, Note_on_c, 0, 71, 0
2, 6416, Note_on_c, 0, 69, 64
2, 6424, Note_on_c, 0, 69, 0
2, 6424, Note_on_c, 0, 68, 64
2, 6432, Note_on_c, 0, 68, 0
2, 6432, Note_on_c, 0, 69, 75
2, 6442, Note_on_c, 0, 69, 0
2, 6456, Note_on_c, 0, 71, 76
2, 6466, Note_on_c, 0, 71, 0
2, 6480, Note_on_c, 0, 72, 77
2, 6490, Note_on_c, 0, 72, 0
2, 6504, Note_on_c, 0, 74, 78
2, 6514, Note_on_c, 0, 74, 0
2, 6528, Note_on_c, 0, 76, 80
2, 6538, Note_on_c, 0, 76, 0
2, 6552, Note_on_c, 0, 72, 78
2, 6575, Note_on_c, 0, 72, 0
2, 6576, Note_on_c, 0, 71, 77
2, 6599, Note_on_c, 0, 71, 0
2, 6600, Note_on_c, 0, 69, 76
2, 6623, Note_on_c, 0, 69, 0
2, 6624, Note_on_c, 0, 71, 75
2, 6691, Note_on_c, 0, 71, 0
2, 6696, Note_on_c, 0, 72, 75
2, 6704, Note_on_c, 0, 72, 0
2, 6704, Note_on_c, 0, 71, 75
2, 6712, Note_on_c, 0, 71, 0
2, 6712, Note_on_c, 0, 69, 75
2, 6720, Note_on_c, 0, 69, 0
2, 6720, Note_on_c, 0, 71, 75
2, 6732, Note_on_c, 0, 71, 0
2, 6732, Note_on_c, 0, 67, 75
2, 6744, Note_on_c, 0, 67, 0
2, 6744, Note_on_c, 0, 72, 75
2, 6756, Note_on_c, 0, 72, 0
2, 6756, Note_on_c, 0, 69, 75
2, 6768, Note_on_c, 0, 69, 0
2, 6768, Note_on_c, 0, 74, 75
2, 6780, Note_on_c, 0, 74, 0
2, 6780, Note_on_c, 0, 71, 75
2, 6792, Note_on_c, 0, 71, 0
2, 6792, Note_on_c, 0, 76, 75
2, 6804, Note_on_c, 0, 76, 0
2, 6804, Note_on_c, 0, 72, 75
2, 6816, Note_on_c, 0, 72, 0
2, 6816, Note_on_c, 0, 74, 75
2, 6836, Note_on_c, 0, 74, 0
2, 6912, Note_on_c, 0, 79, 75
2, 6979, Note_on_c, 0, 79, 0
2, 6984, Note_on_c, 0, 81, 75
2, 6992, Note_on_c, 0, 81, 0
2, 6992, Note_on_c, 0, 79, 75
2, 7000, Note_on_c, 0, 79, 0
2, 7000, Note_on_c, 0, 78, 75
2, 7008, Note_on_c, 0, 78, 0
2, 7008, Note_on_c, 0, 79, 75
2, 7018, Note_on_c, 0, 79, 0
2, 7032, Note_on_c, 0, 83, 76
2, 7042, Note_on_c, 0, 83, 0
2, 7056, Note_on_c, 0, 86, 77
2, 7066, Note_on_c, 0, 86, 0
2, 7080, Note_on_c, 0, 83, 78
2, 7090, Note_on_c, 0, 83, 0
2, 7104, Note_on_c, 0, 79, 80
2, 7114, Note_on_c, 0, 79, 0
2, 7128, Note_on_c, 0, 74, 78
2, 7151, Note_on_c, 0, 74, 0
2, 7152, Note_on_c, 0, 72, 77
2, 7175, Note_on_c, 0, 72, 0
2, 7176, Note_on_c, 0, 71, 76
2, 7199, Note_on_c, 0, 71, 0
2, 7200, Note_on_c, 0, 69, 75
2, 7267, Note_on_c, 0, 69, 0
2, 7272, Note_on_c, 0, 71, 75
2, 7280, Note_on_c, 0, 71, 0
2, 7280, Note_on_c, 0, 69, 75
2, 7288, Note_on_c, 0, 69, 0
2, 7288, Note_on_c, 0, 68, 75
2, 7296, Note_on_c, 0, 68, 0
2, 7296, Note_on_c, 0, 69, 75
2, 7319, Note_on_c, 0, 69, 0
2, 7320, Note_on_c, 0, 71, 75
2, 7343, Note_on_c, 0, 71, 0
2, 7344, Note_on_c, 0, 72, 76
2, 7367, Note_on_c, 0, 72, 0
2, 7368, Note_on_c, 0, 74, 76
2, 7391, Note_on_c, 0, 74, 0
2, 7392, Note_on_c, 0, 75, 77
2, 7416, Note_on_c, 0, 75, 0
2, 7416, Note_on_c, 0, 76, 78
2, 7439, Note_on_c, 0, 76, 0
2, 7440, Note_on_c, 0, 72, 78
2, 7463, Note_on_c, 0, 72, 0
2, 7464, Note_on_c, 0, 69, 79
2, 7487, Note_on_c, 0, 69, 0
2, 7488, Note_on_c, 0, 74, 80
2, 7695, Note_on_c, 0, 74, 0
2, 7696, Note_on_c, 0, 73, 77
2, 7711, Note_on_c, 0, 73, 0
2, 7712, Note_on_c, 0, 72, 74
2, 7727, Note_on_c, 0, 72, 0
2, 7728, Note_on_c, 0, 71, 71
2, 7743, Note_on_c, 0, 71, 0
2, 7744, Note_on_c, 0, 70, 69
2, 7759, Note_on_c, 0, 70, 0
2, 7760, Note_on_c, 0, 69, 66
2, 7775, Note_on_c, 0, 69, 0
2, 7776, Note_on_c, 0, 67, 58
2, 7865, Note_on_c, 0, 67, 0
2, 8016, Control_c, 0, 64, 127
2, 8016, Note_on_c, 0, 71, 75
2, 8028, Note_on_c, 0, 71, 0
2, 8028, Note_on_c, 0, 74, 75
2, 8040, Note_on_c, 0, 74, 0
2, 8040, Note_on_c, 0, 79, 75
2, 8052, Note_on_c, 0, 79, 0
2, 8052, Note_on_c, 0, 83, 75
2, 8064, Note_on_c, 0, 83, 0
2, 8064, Note_on_c, 0, 86, 91
2, 8160, Control_c, 0, 64, 0
2, 8183, Note_on_c, 0, 86, 0
2, 8184, Note_on_c, 0, 84, 75
2, 8196, Note_on_c, 0, 84, 0
2, 8196, Note_on_c, 0, 83, 75
2, 8208, Note_on_c, 0, 83, 0
2, 8208, Note_on_c, 0, 81, 75
2, 8220, Note_on_c, 0, 81, 0
2, 8220, Note_on_c, 0, 79, 75
2, 8232, Note_on_c, 0, 79, 0
2, 8232, Note_on_c, 0, 78, 76
2, 8244, Note_on_c, 0, 78, 0
2, 8244, Note_on_c, 0, 79, 77
2, 8256, Note_on_c, 0, 79, 0
2, 8256, Note_on_c, 0, 81, 77
2, 8268, Note_on_c, 0, 81, 0
2, 8268, Note_on_c, 0, 79, 78
2, 8280, Note_on_c, 0, 79, 0
2, 8280, Note_on_c, 0, 83, 79
2, 8292, Note_on_c, 0, 83, 0
2, 8292, Note_on_c, 0, 81, 80
2, 8304, Note_on_c, 0, 81, 0
2, 8304, Note_on_c, 0, 84, 79
2, 8316, Note_on_c, 0, 84, 0
2, 8316, Note_on_c, 0, 83, 79
2, 8328, Note_on_c, 0, 83, 0
2, 8328, Note_on_c, 0, 81, 78
2, 8340, Note_on_c, 0, 81, 0
2, 8340, Note_on_c, 0, 79, 78
2, 8352, Note_on_c, 0, 79, 0
2, 8352, Note_on_c, 0, 80, 93
2, 8424, Note_on_c, 0, 80, 0
2, 8424, Note_on_c, 0, 83, 75
2, 8447, Note_on_c, 0, 83, 0
2, 8448, Note_on_c, 0, 81, 75
2, 8493, Note_on_c, 0, 81, 0
2, 8556, Note_on_c, 0, 74, 75
2, 8568, Note_on_c, 0, 74, 0
2, 8568, Note_on_c, 0, 76, 75
2, 8580, Note_on_c, 0, 76, 0
2, 8580, Note_on_c, 0, 78, 75
2, 8592, Note_on_c, 0, 78, 0
2, 8592, Note_on_c, 0, 80, 75
2, 8604, Note_on_c, 0, 80, 0
2, 8604, Note_on_c, 0, 81, 75
2, 8616, Note_on_c, 0, 81, 0
2, 8616, Note_on_c, 0, 83, 75
2, 8628, Note_on_c, 0, 83, 0
2, 8628, Note_on_c, 0, 85, 75
2, 8640, Note_on_c, 0, 85, 0
2, 8640, Note_on_c, 0, 86, 91
2, 8748, Note_on_c, 0, 86, 0
2, 8748, Note_on_c, 0, 81, 75
2, 8760, Note_on_c, 0, 81, 0
2, 8760, Note_on_c, 0, 79, 75
2, 8772, Note_on_c, 0, 79, 0
2, 8772, Note_on_c, 0, 81, 75
2, 8784, Note_on_c, 0, 81, 0
2, 8784, Note_on_c, 0, 78, 75
2, 8796, Note_on_c, 0, 78, 0
2, 8796, Note_on_c, 0, 79, 75
2, 8808, Note_on_c, 0, 79, 0
2, 8808, Note_on_c, 0, 76, 75
2, 8820, Note_on_c, 0, 76, 0
2, 8820, Note_on_c, 0, 78, 75
2, 8832, Note_on_c, 0, 78, 0
2, 8832, Note_on_c, 0, 74, 75
2, 8844, Note_on_c, 0, 74, 0
2, 8844, Note_on_c, 0, 76, 75
2, 8856, Note_on_c, 0, 76, 0
2, 8856, Note_on_c, 0, 73, 75
2, 8868, Note_on_c, 0, 73, 0
2, 8868, Note_on_c, 0, 76, 75
2, 8880, Note_on_c, 0, 76, 0
2, 8880, Note_on_c, 0, 74, 75
2, 8903, Note_on_c, 0, 74, 0
2, 8916, Note_on_c, 0, 81, 75
2, 8928, Note_on_c, 0, 81, 0
2, 8928, Note_on_c, 0, 81, 75
2, 8973, Note_on_c, 0, 81, 0
2, 8976, Note_on_c, 0, 80, 74
2, 9015, Note_on_c, 0, 80, 0
2, 9072, Note_on_c, 0, 80, 72
2, 9111, Note_on_c, 0, 80, 0
2, 9168, Note_on_c, 0, 79, 70
2, 9228, Note_on_c, 0, 79, 0
2, 9228, Note_on_c, 0, 76, 70
2, 9240, Note_on_c, 0, 76, 0
2, 9240, Note_on_c, 0, 78, 70
2, 9252, Note_on_c, 0, 78, 0
2, 9252, Note_on_c, 0, 79, 71
2, 9264, Note_on_c, 0, 79, 0
2, 9264, Note_on_c, 0, 81, 71
2, 9276, Note_on_c, 0, 81, 0
2, 9276, Note_on_c, 0, 83, 72
2, 9288, Note_on_c, 0, 83, 0
2, 9288, Note_on_c, 0, 85, 73
2, 9300, Note_on_c, 0, 85, 0
2, 9300, Note_on_c, 0, 86, 73
2, 9312, Note_on_c, 0, 86, 0
2, 9312, Note_on_c, 0, 88, 74
2, 9324, Note_on_c, 0, 88, 0
2, 9324, Note_on_c, 0, 86, 75
2, 9336, Note_on_c, 0, 86, 0
2, 9336, Note_on_c, 0, 85, 75
2, 9348, Note_on_c, 0, 85, 0
2, 9348, Note_on_c, 0, 83, 75
2, 9360, Note_on_c, 0, 83, 0
2, 9360, Note_on_c, 0, 81, 75
2, 9372, Note_on_c, 0, 81, 0
2, 9372, Note_on_c, 0, 80, 75
2, 9384, Note_on_c, 0, 80, 0
2, 9384, Note_on_c, 0, 81, 75
2, 9396, Note_on_c, 0, 81, 0
2, 9396, Note_on_c, 0, 80, 75
2, 9408, Note_on_c, 0, 80, 0
2, 9408, Note_on_c, 0, 81, 75
2, 9420, Note_on_c, 0, 81, 0
2, 9420, Note_on_c, 0, 82, 75
2, 9432, Note_on_c, 0, 82, 0
2, 9432, Note_on_c, 0, 83, 75
2, 9444, Note_on_c, 0, 83, 0
2, 9444, Note_on_c, 0, 82, 75
2, 9456, Note_on_c, 0, 82, 0
2, 9456, Note_on_c, 0, 83, 75
2, 9468, Note_on_c, 0, 83, 0
2, 9468, Note_on_c, 0, 79, 75
2, 9480, Note_on_c, 0, 79, 0
2, 9480, Note_on_c, 0, 78, 75
2, 9492, Note_on_c, 0, 78, 0
2, 9492, Note_on_c, 0, 76, 75
2, 9504, Note_on_c, 0, 76, 0
2, 9504, Note_on_c, 0, 78, 75
2, 9516, Note_on_c, 0, 78, 0
2, 9516, Note_on_c, 0, 74, 75
2, 9528, Note_on_c, 0, 74, 0
2, 9528, Note_on_c, 0, 76, 75
2, 9540, Note_on_c, 0, 76, 0
2, 9540, Note_on_c, 0, 78, 75
2, 9552, Note_on_c, 0, 78, 0
2, 9552, Note_on_c, 0, 79, 75
2, 9564, Note_on_c, 0, 79, 0
2, 9564, Note_on_c, 0, 81, 76
2, 9576, Note_on_c, 0, 81, 0
2, 9576, Note_on_c, 0, 83, 77
2, 9588, Note_on_c, 0, 83, 0
2, 9588, Note_on_c, 0, 85, 78
2, 9600, Note_on_c, 0, 85, 0
2, 9600, Note_on_c, 0, 86, 79
2, 9612, Note_on_c, 0, 86, 0
2, 9612, Note_on_c, 0, 85, 80
2, 9624, Note_on_c, 0, 85, 0
2, 9624, Note_on_c, 0, 86, 80
2, 9636, Note_on_c, 0, 86, 0
2, 9636, Note_on_c, 0, 85, 80
2, 9648, Note_on_c, 0, 85, 0
2, 9648, Note_on_c, 0, 86, 80
2, 9660, Note_on_c, 0, 86, 0
2, 9660, Note_on_c, 0, 85, 80
2, 9672, Note_on_c, 0, 85, 0
2, 9672, Note_on_c, 0, 86, 80
2, 9684, Note_on_c, 0, 86, 0
2, 9684, Note_on_c, 0, 85, 80
2, 9696, Note_on_c, 0, 85, 0
2, 9696, Note_on_c, 0, 86, 80
2, 9708, Note_on_c, 0, 86, 0
2, 9708, Note_on_c, 0, 85, 79
2, 9720, Note_on_c, 0, 85, 0
2, 9720, Note_on_c, 0, 83, 78
2, 9732, Note_on_c, 0, 83, 0
2, 9732, Note_on_c, 0, 81, 78
2, 9744, Note_on_c, 0, 81, 0
2, 9744, Note_on_c, 0, 79, 77
2, 9756, Note_on_c, 0, 79, 0
2, 9756, Note_on_c, 0, 78, 76
2, 9768, Note_on_c, 0, 78, 0
2, 9768, Note_on_c, 0, 76, 76
2, 9780, Note_on_c, 0, 76, 0
2, 9780, Note_on_c, 0, 74, 75
2, 9792, Note_on_c, 0, 74, 0
2, 9792, Note_on_c, 0, 76, 75
2, 9804, Note_on_c, 0, 76, 0
2, 9804, Note_on_c, 0, 75, 75
2, 9816, Note_on_c, 0, 75, 0
2, 9816, Note_on_c, 0, 78, 76
2, 9828, Note_on_c, 0, 78, 0
2, 9828, Note_on_c, 0, 76, 76
2, 9840, Note_on_c, 0, 76, 0
2, 9840, Note_on_c, 0, 79, 77
2, 9852, Note_on_c, 0, 79, 0
2, 9852, Note_on_c, 0, 78, 78
2, 9864, Note_on_c, 0, 78, 0
2, 9864, Note_on_c, 0, 81, 78
2, 9876, Note_on_c, 0, 81, 0
2, 9876, Note_on_c, 0, 79, 79
2, 9888, Note_on_c, 0, 79, 0
2, 9888, Note_on_c, 0, 83, 80
2, 9900, Note_on_c, 0, 83, 0
2, 9900, Note_on_c, 0, 79, 80
2, 9912, Note_on_c, 0, 79, 0
2, 9912, Note_on_c, 0, 78, 80
2, 9924, Note_on_c, 0, 78, 0
2, 9924, Note_on_c, 0, 76, 80
2, 9936, Note_on_c, 0, 76, 0
2, 9936, Note_on_c, 0, 75, 80
2, 9948, Note_on_c, 0, 75, 0
2, 9948, Note_on_c, 0, 76, 80
2, 9960, Note_on_c, 0, 76, 0
2, 9960, Note_on_c, 0, 78, 80
2, 9972, Note_on_c, 0, 78, 0
2, 9972, Note_on_c, 0, 76, 80
2, 9984, Note_on_c, 0, 76, 0
2, 9984, Note_on_c, 0, 79, 80
2, 9996, Note_on_c, 0, 79, 0
2, 9996, Note_on_c, 0, 78, 80
2, 10008, Note_on_c, 0, 78, 0
2, 10008, Note_on_c, 0, 81, 80
2, 10020, Note_on_c, 0, 81, 0
2, 10020, Note_on_c, 0, 79, 79
2, 10032, Note_on_c, 0, 79, 0
2, 10032, Note_on_c, 0, 83, 78
2, 10044, Note_on_c, 0, 83, 0
2, 10044, Note_on_c, 0, 79, 77
2, 10056, Note_on_c, 0, 79, 0
2, 10056, Note_on_c, 0, 78, 76
2, 10068, Note_on_c, 0, 78, 0
2, 10068, Note_on_c, 0, 76, 75
2, 10080, Note_on_c, 0, 76, 0
2, 10080, Note_on_c, 0, 81, 75
2, 10092, Note_on_c, 0, 81, 0
2, 10092, Note_on_c, 0, 83, 75
2, 10104, Note_on_c, 0, 83, 0
2, 10104, Note_on_c, 0, 80, 75
2, 10116, Note_on_c, 0, 80, 0
2, 10116, Note_on_c, 0, 83, 75
2, 10128, Note_on_c, 0, 83, 0
2, 10128, Note_on_c, 0, 81, 75
2, 10140, Note_on_c, 0, 81, 0
2, 10140, Note_on_c, 0, 83, 75
2, 10152, Note_on_c, 0, 83, 0
2, 10152, Note_on_c, 0, 80, 75
2, 10164, Note_on_c, 0, 80, 0
2, 10164, Note_on_c, 0, 83, 75
2, 10176, Note_on_c, 0, 83, 0
2, 10176, Note_on_c, 0, 81, 75
2, 10188, Note_on_c, 0, 81, 0
2, 10188, Note_on_c, 0, 83, 75
2, 10200, Note_on_c, 0, 83, 0
2, 10200, Note_on_c, 0, 80, 75
2, 10212, Note_on_c, 0, 80, 0
2, 10212, Note_on_c, 0, 83, 75
2, 10224, Note_on_c, 0, 83, 0
2, 10224, Note_on_c, 0, 81, 75
2, 10236, Note_on_c, 0, 81, 0
2, 10236, Note_on_c, 0, 83, 75
2, 10248, Note_on_c, 0, 83, 0
2, 10248, Note_on_c, 0, 80, 75
2, 10260, Note_on_c, 0, 80, 0
2, 10260, Note_on_c, 0, 83, 75
2, 10272, Note_on_c, 0, 83, 0
2, 10272, Note_on_c, 0, 81, 75
2, 10282, Note_on_c, 0, 81, 0
2, 10296, Note_on_c, 0, 82, 76
2, 10306, Note_on_c, 0, 82, 0
2, 10320, Note_on_c, 0, 83, 78
2, 10330, Note_on_c, 0, 83, 0
2, 10344, Note_on_c, 0, 86, 80
2, 10354, Note_on_c, 0, 86, 0
2, 10368, Note_on_c, 0, 74, 80
2, 10386, Note_on_c, 0, 74, 0
2, 10386, Note_on_c, 0, 76, 80
2, 10395, Note_on_c, 0, 76, 0
2, 10395, Note_on_c, 0, 78, 80
2, 10404, Note_on_c, 0, 78, 0
2, 10404, Note_on_c, 0, 76, 80
2, 10413, Note_on_c, 0, 76, 0
2, 10413, Note_on_c, 0, 78, 80
2, 10422, Note_on_c, 0, 78, 0
2, 10422, Note_on_c, 0, 76, 80
2, 10431, Note_on_c, 0, 76, 0
2, 10431, Note_on_c, 0, 78, 80
2, 10440, Note_on_c, 0, 78, 0
2, 10440, Note_on_c, 0, 76, 80
2, 10448, Note_on_c, 0, 76, 0
2, 10448, Note_on_c, 0, 78, 80
2, 10456, Note_on_c, 0, 78, 0
2, 10456, Note_on_c, 0, 76, 80
2, 10464, Note_on_c, 0, 76, 0
2, 10464, Note_on_c, 0, 78, 80
2, 10472, Note_on_c, 0, 78, 0
2, 10472, Note_on_c, 0, 76, 80
2, 10480, Note_on_c, 0, 76, 0
2, 10480, Note_on_c, 0, 78, 80
2, 10488, Note_on_c, 0, 78, 0
2, 10488, Note_on_c, 0, 76, 80
2, 10496, Note_on_c, 0, 76, 0
2, 10496, Note_on_c, 0, 78, 80
2, 10504, Note_on_c, 0, 78, 0
2, 10504, Note_on_c, 0, 76, 80
2, 10512, Note_on_c, 0, 76, 0
2, 10512, Note_on_c, 0, 78, 80
2, 10520, Note_on_c, 0, 78, 0
2, 10520, Note_on_c, 0, 76, 80
2, 10528, Note_on_c, 0, 76, 0
2, 10528, Note_on_c, 0, 78, 80
2, 10536, Note_on_c, 0, 78, 0
2, 10536, Note_on_c, 0, 76, 80
2, 10544, Note_on_c, 0, 76, 0
2, 10544, Note_on_c, 0, 78, 80
2, 10552, Note_on_c, 0, 78, 0
2, 10552, Note_on_c, 0, 76, 80
2, 10560, Note_on_c, 0, 76, 0
2, 10560, Note_on_c, 0, 78, 80
2, 10568, Note_on_c, 0, 78, 0
2, 10568, Note_on_c, 0, 76, 80
2, 10576, Note_on_c, 0, 76, 0
2, 10576, Note_on_c, 0, 78, 80
2, 10584, Note_on_c, 0, 78, 0
2, 10584, Note_on_c, 0, 76, 80
2, 10592, Note_on_c, 0, 76, 0
2, 10592, Note_on_c, 0, 78, 80
2, 10600, Note_on_c, 0, 78, 0
2, 10600, Note_on_c, 0, 76, 80
2, 10608, Note_on_c, 0, 76, 0
2, 10608, Note_on_c, 0, 78, 80
2, 10616, Note_on_c, 0, 78, 0
2, 10616, Note_on_c, 0, 76, 80
2, 10624, Note_on_c, 0, 76, 0
2, 10624, Note_on_c, 0, 78, 80
2, 10632, Note_on_c, 0, 78, 0
2, 10632, Note_on_c, 0, 76, 80
2, 10640, Note_on_c, 0, 76, 0
2, 10640, Note_on_c, 0, 74, 80
2, 10648, Note_on_c, 0, 74, 0
2, 10648, Note_on_c, 0, 76, 80
2, 10656, Note_on_c, 0, 76, 0
2, 10656, Note_on_c, 0, 74, 80
2, 10745, Note_on_c, 0, 74, 0
2, 10764, Note_on_c, 0, 81, 80
2, 10776, Note_on_c, 0, 81, 0
2, 10776, Note_on_c, 0, 79, 79
2, 10788, Note_on_c, 0, 79, 0
2, 10788, Note_on_c, 0, 78, 79
2, 10800, Note_on_c, 0, 78, 0
2, 10800, Note_on_c, 0, 76, 79
2, 10812, Note_on_c, 0, 76, 0
2, 10812, Note_on_c, 0, 74, 78
2, 10824, Note_on_c, 0, 74, 0
2, 10824, Note_on_c, 0, 73, 78
2, 10836, Note_on_c, 0, 73, 0
2, 10836, Note_on_c, 0, 71, 78
2, 10848, Note_on_c, 0, 71, 0
2, 10848, Note_on_c, 0, 69, 77
2, 10860, Note_on_c, 0, 69, 0
2, 10860, Note_on_c, 0, 67, 77
2, 10872, Note_on_c, 0, 67, 0
2, 10872, Note_on_c, 0, 66, 77
2, 10884, Note_on_c, 0, 66, 0
2, 10884, Note_on_c, 0, 64, 76
2, 10896, Note_on_c, 0, 64, 0
2, 10896, Note_on_c, 0, 62, 76
2, 10908, Note_on_c, 0, 62, 0
2, 10908, Note_on_c, 0, 61, 76
2, 10920, Note_on_c, 0, 61, 0
2, 10920, Note_on_c, 0, 59, 75
2, 10932, Note_on_c, 0, 59, 0
2, 10932, Note_on_c, 0, 57, 75
2, 10944, Note_on_c, 0, 57, 0
2, 11520, Note_on_c, 0, 71, 75
2, 11587, Note_on_c, 0, 71, 0
2, 11592, Note_on_c, 0, 73, 75
2, 11600, Note_on_c, 0, 73, 0
2, 11600, Note_on_c, 0, 71, 75
2, 11608, Note_on_c, 0, 71, 0
2, 11608, Note_on_c, 0, 70, 75
2, 11616, Note_on_c, 0, 70, 0
2, 11616, Note_on_c, 0, 71, 75
2, 11636, Note_on_c, 0, 71, 0
2, 11664, Note_on_c, 0, 75, 75
2, 11684, Note_on_c, 0, 75, 0
2, 11712, Note_on_c, 0, 78, 75
2, 11732, Note_on_c, 0, 78, 0
2, 11760, Note_on_c, 0, 69, 75
2, 11760, Note_on_c, 0, 66, 75
2, 11805, Note_on_c, 0, 69, 0
2, 11805, Note_on_c, 0, 66, 0
2, 11808, Note_on_c, 0, 69, 75
2, 11853, Note_on_c, 0, 69, 0
2, 11856, Note_on_c, 0, 67, 72
2, 11863, Note_on_c, 0, 67, 0
2, 11863, Note_on_c, 0, 69, 72
2, 11870, Note_on_c, 0, 69, 0
2, 11870, Note_on_c, 0, 67, 71
2, 11877, Note_on_c, 0, 67, 0
2, 11877, Note_on_c, 0, 69, 71
2, 11884, Note_on_c, 0, 69, 0
2, 11884, Note_on_c, 0, 67, 71
2, 11891, Note_on_c, 0, 67, 0
2, 11891, Note_on_c, 0, 66, 70
2, 11898, Note_on_c, 0, 66, 0
2, 11898, Note_on_c, 0, 67, 70
2, 11904, Note_on_c, 0, 67, 0
2, 11904, Note_on_c, 0, 66, 70
2, 11971, Note_on_c, 0, 66, 0
2, 12096, Note_on_c, 0, 76, 75
2, 12163, Note_on_c, 0, 76, 0
2, 12168, Note_on_c, 0, 78, 75
2, 12176, Note_on_c, 0, 78, 0
2, 12176, Note_on_c, 0, 76, 75
2, 12184, Note_on_c, 0, 76, 0
2, 12184, Note_on_c, 0, 75, 75
2, 12192, Note_on_c, 0, 75, 0
2, 12192, Note_on_c, 0, 76, 75
2, 12212, Note_on_c, 0, 76, 0
2, 12240, Note_on_c, 0, 79, 75
2, 12260, Note_on_c, 0, 79, 0
2, 12288, Note_on_c, 0, 83, 75
2, 12308, Note_on_c, 0, 83, 0
2, 12336, Note_on_c, 0, 76, 75
2, 12356, Note_on_c, 0, 76, 0
2, 12384, Note_on_c, 0, 75, 75
2, 12396, Note_on_c, 0, 75, 0
2, 12396, Note_on_c, 0, 76, 75
2, 12408, Note_on_c, 0, 76, 0
2, 12408, Note_on_c, 0, 78, 76
2, 12420, Note_on_c, 0, 78, 0
2, 12420, Note_on_c, 0, 76, 76
2, 12432, Note_on_c, 0, 76, 0
2, 12432, Note_on_c, 0, 79, 77
2, 12444, Note_on_c, 0, 79, 0
2, 12444, Note_on_c, 0, 78, 77
2, 12456, Note_on_c, 0, 78, 0
2, 12456, Note_on_c, 0, 81, 78
2, 12468, Note_on_c, 0, 81, 0
2, 12468, Note_on_c, 0, 79, 78
2, 12480, Note_on_c, 0, 79, 0
2, 12480, Note_on_c, 0, 83, 79
2, 12492, Note_on_c, 0, 83, 0
2, 12492, Note_on_c, 0, 81, 79
2, 12504, Note_on_c, 0, 81, 0
2, 12504, Note_on_c, 0, 84, 80
2, 12516, Note_on_c, 0, 84, 0
2, 12516, Note_on_c, 0, 83, 79
2, 12528, Note_on_c, 0, 83, 0
2, 12528, Note_on_c, 0, 81, 78
2, 12540, Note_on_c, 0, 81, 0
2, 12540, Note_on_c, 0, 79, 77
2, 12552, Note_on_c, 0, 79, 0
2, 12552, Note_on_c, 0, 78, 76
2, 12564, Note_on_c, 0, 78, 0
2, 12564, Note_on_c, 0, 76, 75
2, 12576, Note_on_c, 0, 76, 0
2, 12576, Note_on_c, 0, 75, 75
2, 12596, Note_on_c, 0, 75, 0
2, 12720, Control_c, 0, 64, 127
2, 12720, Note_on_c, 0, 64, 75
2, 12732, Note_on_c, 0, 64, 0
2, 12732, Note_on_c, 0, 68, 75
2, 12744, Note_on_c, 0, 68, 0
2, 12744, Note_on_c, 0, 71, 75
2, 12756, Note_on_c, 0, 71, 0
2, 12756, Note_on_c, 0, 74, 75
2, 12768, Note_on_c, 0, 74, 0
2, 12816, Note_on_c, 0, 76, 75
2, 12828, Note_on_c, 0, 76, 0
2, 12828, Control_c, 0, 64, 0
2, 12828, Note_on_c, 0, 80, 75
2, 12840, Note_on_c, 0, 80, 0
2, 12840, Note_on_c, 0, 83, 75
2, 12852, Note_on_c, 0, 83, 0
2, 12852, Note_on_c, 0, 84, 75
2, 12864, Note_on_c, 0, 84, 0
2, 12864, Note_on_c, 0, 86, 75
2, 12876, Note_on_c, 0, 86, 0
2, 12876, Note_on_c, 0, 84, 75
2, 12888, Note_on_c, 0, 84, 0
2, 12888, Note_on_c, 0, 83, 75
2, 12900, Note_on_c, 0, 83, 0
2, 12900, Note_on_c, 0, 81, 75
2, 12912, Note_on_c, 0, 81, 0
2, 12912, Note_on_c, 0, 80, 75
2, 12924, Note_on_c, 0, 80, 0
2, 12972, Note_on_c, 0, 76, 75
2, 12984, Note_on_c, 0, 76, 0
2, 12984, Note_on_c, 0, 78, 75
2, 12996, Note_on_c, 0, 78, 0
2, 12996, Note_on_c, 0, 80, 75
2, 13008, Note_on_c, 0, 80, 0
2, 13008, Note_on_c, 0, 81, 76
2, 13020, Note_on_c, 0, 81, 0
2, 13020, Note_on_c, 0, 76, 76
2, 13032, Note_on_c, 0, 76, 0
2, 13032, Note_on_c, 0, 78, 77
2, 13044, Note_on_c, 0, 78, 0
2, 13044, Note_on_c, 0, 80, 77
2, 13056, Note_on_c, 0, 80, 0
2, 13056, Note_on_c, 0, 81, 78
2, 13068, Note_on_c, 0, 81, 0
2, 13068, Note_on_c, 0, 83, 78
2, 13080, Note_on_c, 0, 83, 0
2, 13080, Note_on_c, 0, 84, 79
2, 13092, Note_on_c, 0, 84, 0
2, 13092, Note_on_c, 0, 86, 79
2, 13104, Note_on_c, 0, 86, 0
2, 13104, Note_on_c, 0, 88, 80
2, 13116, Note_on_c, 0, 88, 0
2, 13116, Note_on_c, 0, 86, 79
2, 13128, Note_on_c, 0, 86, 0
2, 13128, Note_on_c, 0, 84, 79
2, 13140, Note_on_c, 0, 84, 0
2, 13140, Note_on_c, 0, 83, 78
2, 13152, Note_on_c, 0, 83, 0
2, 13152, Note_on_c, 0, 81, 78
2, 13164, Note_on_c, 0, 81, 0
2, 13164, Note_on_c, 0, 83, 77
2, 13176, Note_on_c, 0, 83, 0
2, 13176, Note_on_c, 0, 84, 77
2, 13188, Note_on_c, 0, 84, 0
2, 13188, Note_on_c, 0, 83, 77
2, 13200, Note_on_c, 0, 83, 0
2, 13200, Note_on_c, 0, 81, 76
2, 13212, Note_on_c, 0, 81, 0
2, 13212, Note_on_c, 0, 79, 76
2, 13224, Note_on_c, 0, 79, 0
2, 13224, Note_on_c, 0, 78, 75
2, 13236, Note_on_c, 0, 78, 0
2, 13236, Note_on_c, 0, 76, 75
2, 13248, Note_on_c, 0, 76, 0
2, 13248, Control_c, 0, 64, 127
2, 13248, Note_on_c, 0, 74, 75
2, 13260, Note_on_c, 0, 74, 0
2, 13356, Note_on_c, 0, 74, 75
2, 13368, Note_on_c, 0, 74, 0
2, 13368, Control_c, 0, 64, 0
2, 13368, Note_on_c, 0, 78, 75
2, 13380, Note_on_c, 0, 78, 0
2, 13380, Control_c, 0, 64, 0
2, 13380, Note_on_c, 0, 81, 75
2, 13392, Note_on_c, 0, 81, 0
2, 13392, Note_on_c, 0, 84, 75
2, 13404, Note_on_c, 0, 84, 0
2, 13404, Note_on_c, 0, 83, 75
2, 13416, Note_on_c, 0, 83, 0
2, 13416, Note_on_c, 0, 81, 75
2, 13428, Note_on_c, 0, 81, 0
2, 13428, Note_on_c, 0, 79, 75
2, 13440, Note_on_c, 0, 79, 0
2, 13440, Note_on_c, 0, 78, 75
2, 13452, Note_on_c, 0, 78, 0
2, 13452, Note_on_c, 0, 79, 75
2, 13464, Note_on_c, 0, 79, 0
2, 13464, Note_on_c, 0, 81, 75
2, 13476, Note_on_c, 0, 81, 0
2, 13476, Note_on_c, 0, 79, 75
2, 13488, Note_on_c, 0, 79, 0
2, 13488, Note_on_c, 0, 78, 75
2, 13500, Note_on_c, 0, 78, 0
2, 13500, Note_on_c, 0, 76, 75
2, 13512, Note_on_c, 0, 76, 0
2, 13512, Note_on_c, 0, 74, 75
2, 13524, Note_on_c, 0, 74, 0
2, 13524, Note_on_c, 0, 72, 75
2, 13536, Note_on_c, 0, 72, 0
2, 13536, Control_c, 0, 64, 127
2, 13536, Note_on_c, 0, 71, 75
2, 13548, Note_on_c, 0, 71, 0
2, 13596, Note_on_c, 0, 71, 75
2, 13608, Note_on_c, 0, 71, 0
2, 13608, Note_on_c, 0, 74, 75
2, 13620, Note_on_c, 0, 74, 0
2, 13620, Note_on_c, 0, 79, 75
2, 13632, Note_on_c, 0, 79, 0
2, 13632, Note_on_c, 0, 83, 75
2, 13644, Note_on_c, 0, 83, 0
2, 13644, Note_on_c, 0, 74, 75
2, 13656, Note_on_c, 0, 74, 0
2, 13656, Note_on_c, 0, 79, 75
2, 13668, Note_on_c, 0, 79, 0
2, 13668, Control_c, 0, 64, 0
2, 13668, Note_on_c, 0, 83, 75
2, 13680, Note_on_c, 0, 83, 0
2, 13680, Note_on_c, 0, 86, 75
2, 13692, Note_on_c, 0, 86, 0
2, 13692, Note_on_c, 0, 83, 75
2, 13704, Note_on_c, 0, 83, 0
2, 13704, Note_on_c, 0, 81, 75
2, 13716, Note_on_c, 0, 81, 0
2, 13716, Note_on_c, 0, 79, 75
2, 13728, Note_on_c, 0, 79, 0
2, 13728, Note_on_c, 0, 78, 75
2, 13740, Note_on_c, 0, 78, 0
2, 13740, Note_on_c, 0, 79, 75
2, 13752, Note_on_c, 0, 79, 0
2, 13752, Note_on_c, 0, 81, 75
2, 13764, Note_on_c, 0, 81, 0
2, 13764, Note_on_c, 0, 79, 75
2, 13776, Note_on_c, 0, 79, 0
2, 13776, Note_on_c, 0, 83, 75
2, 13788, Note_on_c, 0, 83, 0
2, 13836, Note_on_c, 0, 74, 75
2, 13848, Note_on_c, 0, 74, 0
2, 13848, Note_on_c, 0, 78, 75
2, 13860, Note_on_c, 0, 78, 0
2, 13860, Note_on_c, 0, 81, 75
2, 13872, Note_on_c, 0, 81, 0
2, 13872, Note_on_c, 0, 86, 75
2, 13884, Note_on_c, 0, 86, 0
2, 13884, Note_on_c, 0, 85, 75
2, 13896, Note_on_c, 0, 85, 0
2, 13896, Note_on_c, 0, 83, 75
2, 13908, Note_on_c, 0, 83, 0
2, 13908, Note_on_c, 0, 81, 75
2, 13920, Note_on_c, 0, 81, 0
2, 13920, Note_on_c, 0, 79, 75
2, 13932, Note_on_c, 0, 79, 0
2, 13932, Note_on_c, 0, 78, 75
2, 13944, Note_on_c, 0, 78, 0
2, 13944, Note_on_c, 0, 76, 75
2, 13956, Note_on_c, 0, 76, 0
2, 13956, Note_on_c, 0, 74, 75
2, 13968, Note_on_c, 0, 74, 0
2, 13968, Note_on_c, 0, 73, 75
2, 13980, Note_on_c, 0, 73, 0
2, 13980, Note_on_c, 0, 74, 75
2, 13992, Note_on_c, 0, 74, 0
2, 13992, Note_on_c, 0, 76, 75
2, 14004, Note_on_c, 0, 76, 0
2, 14004, Note_on_c, 0, 74, 75
2, 14016, Note_on_c, 0, 74, 0
2, 14016, Note_on_c, 0, 79, 75
2, 14028, Note_on_c, 0, 79, 0
2, 14028, Note_on_c, 0, 78, 75
2, 14040, Note_on_c, 0, 78, 0
2, 14040, Note_on_c, 0, 76, 75
2, 14052, Note_on_c, 0, 76, 0
2, 14052, Note_on_c, 0, 74, 75
2, 14064, Note_on_c, 0, 74, 0
2, 14064, Note_on_c, 0, 73, 75
2, 14076, Note_on_c, 0, 73, 0
2, 14076, Note_on_c, 0, 71, 75
2, 14088, Note_on_c, 0, 71, 0
2, 14088, Note_on_c, 0, 69, 75
2, 14100, Note_on_c, 0, 69, 0
2, 14100, Note_on_c, 0, 67, 75
2, 14112, Note_on_c, 0, 67, 0
2, 14112, Note_on_c, 0, 66, 75
2, 14124, Note_on_c, 0, 66, 0
2, 14124, Note_on_c, 0, 69, 75
2, 14136, Note_on_c, 0, 69, 0
2, 14136, Note_on_c, 0, 67, 75
2, 14148, Note_on_c, 0, 67, 0
2, 14148, Note_on_c, 0, 66, 75
2, 14160, Note_on_c, 0, 66, 0
2, 14160, Note_on_c, 0, 64, 75
2, 14172, Note_on_c, 0, 64, 0
2, 14172, Note_on_c, 0, 62, 75
2, 14184, Note_on_c, 0, 62, 0
2, 14184, Note_on_c, 0, 61, 75
2, 14196, Note_on_c, 0, 61, 0
2, 14196, Note_on_c, 0, 62, 75
2, 14208, Note_on_c, 0, 62, 0
2, 14208, Note_on_c, 0, 61, 75
2, 14220, Note_on_c, 0, 61, 0
2, 14220, Note_on_c, 0, 62, 75
2, 14232, Note_on_c, 0, 62, 0
2, 14232, Note_on_c, 0, 64, 75
2, 14244, Note_on_c, 0, 64, 0
2, 14244, Note_on_c, 0, 62, 75
2, 14256, Note_on_c, 0, 62, 0
2, 14256, Note_on_c, 0, 66, 75
2, 14268, Note_on_c, 0, 66, 0
2, 14268, Note_on_c, 0, 64, 75
2, 14280, Note_on_c, 0, 64, 0
2, 14280, Note_on_c, 0, 67, 75
2, 14292, Note_on_c, 0, 67, 0
2, 14292, Note_on_c, 0, 66, 75
2, 14304, Note_on_c, 0, 66, 0
2, 14304, Note_on_c, 0, 69, 91
2, 14519, Note_on_c, 0, 69, 0
2, 14520, Note_on_c, 0, 67, 75
2, 14543, Note_on_c, 0, 67, 0
2, 14544, Note_on_c, 0, 71, 75
2, 14578, Note_on_c, 0, 71, 0
2, 14580, Note_on_c, 0, 61, 75
2, 14592, Note_on_c, 0, 61, 0
2, 14592, Note_on_c, 0, 61, 75
2, 14711, Note_on_c, 0, 61, 0
2, 14712, Note_on_c, 0, 64, 75
2, 14746, Note_on_c, 0, 64, 0
2, 14748, Note_on_c, 0, 62, 75
2, 14760, Note_on_c, 0, 62, 0
2, 14976, Note_on_c, 0, 67, 75
2, 15043, Note_on_c, 0, 67, 0
2, 15048, Note_on_c, 0, 69, 75
2, 15056, Note_on_c, 0, 69, 0
2, 15056, Note_on_c, 0, 67, 75
2, 15064, Note_on_c, 0, 67, 0
2, 15064, Note_on_c, 0, 66, 75
2, 15072, Note_on_c, 0, 66, 0
2, 15072, Note_on_c, 0, 67, 75
2, 15092, Note_on_c, 0, 67, 0
2, 15120, Note_on_c, 0, 71, 75
2, 15140, Note_on_c, 0, 71, 0
2, 15168, Note_on_c, 0, 74, 75
2, 15188, Note_on_c, 0, 74, 0
2, 15216, Note_on_c, 0, 67, 75
2, 15236, Note_on_c, 0, 67, 0
2, 15264, Note_on_c, 0, 66, 91
2, 15336, Note_on_c, 0, 66, 0
2, 15336, Note_on_c, 0, 67, 75
2, 15344, Note_on_c, 0, 67, 0
2, 15344, Note_on_c, 0, 66, 75
2, 15352, Note_on_c, 0, 66, 0
2, 15352, Note_on_c, 0, 64, 75
2, 15360, Note_on_c, 0, 64, 0
2, 15360, Note_on_c, 0, 66, 75
2, 15375, Note_on_c, 0, 66, 0
2, 15376, Note_on_c, 0, 67, 75
2, 15391, Note_on_c, 0, 67, 0
2, 15392, Note_on_c, 0, 68, 75
2, 15407, Note_on_c, 0, 68, 0
2, 15408, Note_on_c, 0, 69, 75
2, 15423, Note_on_c, 0, 69, 0
2, 15424, Note_on_c, 0, 70, 75
2, 15439, Note_on_c, 0, 70, 0
2, 15440, Note_on_c, 0, 71, 75
2, 15455, Note_on_c, 0, 71, 0
2, 15456, Note_on_c, 0, 72, 75
2, 15476, Note_on_c, 0, 72, 0
2, 15552, Note_on_c, 0, 69, 75
2, 15619, Note_on_c, 0, 69, 0
2, 15624, Note_on_c, 0, 71, 75
2, 15632, Note_on_c, 0, 71, 0
2, 15632, Note_on_c, 0, 69, 75
2, 15640, Note_on_c, 0, 69, 0
2, 15640, Note_on_c, 0, 68, 75
2, 15648, Note_on_c, 0, 68, 0
2, 15648, Note_on_c, 0, 69, 75
2, 15658, Note_on_c, 0, 69, 0
2, 15672, Note_on_c, 0, 71, 76
2, 15682, Note_on_c, 0, 71, 0
2, 15696, Note_on_c, 0, 72, 77
2, 15706, Note_on_c, 0, 72, 0
2, 15720, Note_on_c, 0, 74, 78
2, 15730, Note_on_c, 0, 74, 0
2, 15744, Note_on_c, 0, 75, 80
2, 15768, Note_on_c, 0, 75, 0
2, 15768, Note_on_c, 0, 76, 78
2, 15791, Note_on_c, 0, 76, 0
2, 15792, Note_on_c, 0, 72, 77
2, 15815, Note_on_c, 0, 72, 0
2, 15816, Note_on_c, 0, 69, 76
2, 15839, Note_on_c, 0, 69, 0
2, 15840, Note_on_c, 0, 71, 75
2, 15840, Note_on_c, 0, 67, 75
2, 15907, Note_on_c, 0, 71, 0
2, 15907, Note_on_c, 0, 67, 0
2, 15912, Note_on_c, 0, 72, 75
2, 15920, Note_on_c, 0, 72, 0
2, 15920, Note_on_c, 0, 71, 75
2, 15928, Note_on_c, 0, 71, 0
2, 15928, Note_on_c, 0, 69, 75
2, 15936, Note_on_c, 0, 69, 0
2, 15936, Note_on_c, 0, 71, 75
2, 15948, Note_on_c, 0, 71, 0
2, 15948, Note_on_c, 0, 67, 75
2, 15960, Note_on_c, 0, 67, 0
2, 15960, Note_on_c, 0, 72, 75
2, 15972, Note_on_c, 0, 72, 0
2, 15972, Note_on_c, 0, 69, 75
2, 15984, Note_on_c, 0, 69, 0
2, 15984, Note_on_c, 0, 74, 75
2, 15996, Note_on_c, 0, 74, 0
2, 15996, Note_on_c, 0, 71, 75
2, 16008, Note_on_c, 0, 71, 0
2, 16008, Note_on_c, 0, 76, 75
2, 16020, Note_on_c, 0, 76, 0
2, 16020, Note_on_c, 0, 72, 75
2, 16032, Note_on_c, 0, 72, 0
2, 16032, Note_on_c, 0, 74, 75
2, 16052, Note_on_c, 0, 74, 0
2, 16128, Note_on_c, 0, 79, 75
2, 16195, Note_on_c, 0, 79, 0
2, 16200, Note_on_c, 0, 81, 75
2, 16208, Note_on_c, 0, 81, 0
2, 16208, Note_on_c, 0, 79, 75
2, 16216, Note_on_c, 0, 79, 0
2, 16216, Note_on_c, 0, 78, 75
2, 16224, Note_on_c, 0, 78, 0
2, 16224, Note_on_c, 0, 79, 75
2, 16234, Note_on_c, 0, 79, 0
2, 16248, Note_on_c, 0, 83, 76
2, 16258, Note_on_c, 0, 83, 0
2, 16272, Note_on_c, 0, 86, 77
2, 16282, Note_on_c, 0, 86, 0
2, 16296, Note_on_c, 0, 83, 78
2, 16306, Note_on_c, 0, 83, 0
2, 16320, Note_on_c, 0, 79, 80
2, 16330, Note_on_c, 0, 79, 0
2, 16344, Note_on_c, 0, 74, 78
2, 16367, Note_on_c, 0, 74, 0
2, 16368, Note_on_c, 0, 72, 77
2, 16391, Note_on_c, 0, 72, 0
2, 16392, Note_on_c, 0, 71, 76
2, 16415, Note_on_c, 0, 71, 0
2, 16416, Note_on_c, 0, 69, 75
2, 16483, Note_on_c, 0, 69, 0
2, 16488, Note_on_c, 0, 71, 75
2, 16496, Note_on_c, 0, 71, 0
2, 16496, Note_on_c, 0, 69, 75
2, 16504, Note_on_c, 0, 69, 0
2, 16504, Note_on_c, 0, 67, 75
2, 16512, Note_on_c, 0, 67, 0
2, 16512, Note_on_c, 0, 69, 75
2, 16522, Note_on_c, 0, 69, 0
2, 16536, Note_on_c, 0, 71, 76
2, 16546, Note_on_c, 0, 71, 0
2, 16560, Note_on_c, 0, 72, 77
2, 16570, Note_on_c, 0, 72, 0
2, 16584, Note_on_c, 0, 74, 78
2, 16594, Note_on_c, 0, 74, 0
2, 16608, Note_on_c, 0, 76, 80
2, 16618, Note_on_c, 0, 76, 0
2, 16632, Note_on_c, 0, 72, 78
2, 16655, Note_on_c, 0, 72, 0
2, 16656, Note_on_c, 0, 69, 77
2, 16679, Note_on_c, 0, 69, 0
2, 16680, Note_on_c, 0, 67, 76
2, 16703, Note_on_c, 0, 67, 0
2, 16704, Note_on_c, 0, 66, 75
2, 16716, Note_on_c, 0, 66, 0
2, 16716, Note_on_c, 0, 64, 75
2, 16728, Note_on_c, 0, 64, 0
2, 16728, Note_on_c, 0, 62, 75
2, 16740, Note_on_c, 0, 62, 0
2, 16740, Note_on_c, 0, 61, 75
2, 16752, Note_on_c, 0, 61, 0
2, 16752, Note_on_c, 0, 62, 75
2, 16764, Note_on_c, 0, 62, 0
2, 16764, Note_on_c, 0, 64, 75
2, 16776, Note_on_c, 0, 64, 0
2, 16776, Note_on_c, 0, 66, 76
2, 16788, Note_on_c, 0, 66, 0
2, 16788, Note_on_c, 0, 67, 76
2, 16800, Note_on_c, 0, 67, 0
2, 16800, Note_on_c, 0, 69, 76
2, 16812, Note_on_c, 0, 69, 0
2, 16812, Note_on_c, 0, 67, 77
2, 16824, Note_on_c, 0, 67, 0
2, 16824, Note_on_c, 0, 66, 77
2, 16836, Note_on_c, 0, 66, 0
2, 16836, Note_on_c, 0, 64, 78
2, 16848, Note_on_c, 0, 64, 0
2, 16848, Note_on_c, 0, 66, 78
2, 16860, Note_on_c, 0, 66, 0
2, 16860, Note_on_c, 0, 67, 78
2, 16872, Note_on_c, 0, 67, 0
2, 16872, Note_on_c, 0, 69, 79
2, 16884, Note_on_c, 0, 69, 0
2, 16884, Note_on_c, 0, 71, 79
2, 16896, Note_on_c, 0, 71, 0
2, 16896, Note_on_c, 0, 72, 80
2, 16908, Note_on_c, 0, 72, 0
2, 16908, Note_on_c, 0, 69, 79
2, 16920, Note_on_c, 0, 69, 0
2, 16920, Note_on_c, 0, 74, 78
2, 16932, Note_on_c, 0, 74, 0
2, 16932, Note_on_c, 0, 71, 77
2, 16944, Note_on_c, 0, 71, 0
2, 16944, Note_on_c, 0, 76, 77
2, 16956, Note_on_c, 0, 76, 0
2, 16956, Note_on_c, 0, 72, 76
2, 16968, Note_on_c, 0, 72, 0
2, 16968, Note_on_c, 0, 71, 75
2, 16980, Note_on_c, 0, 71, 0
2, 16980, Note_on_c, 0, 69, 75
2, 16992, Note_on_c, 0, 69, 0
2, 16992, Note_on_c, 0, 71, 75
2, 17004, Note_on_c, 0, 71, 0
2, 17004, Note_on_c, 0, 67, 75
2, 17016, Note_on_c, 0, 67, 0
2, 17016, Note_on_c, 0, 69, 75
2, 17028, Note_on_c, 0, 69, 0
2, 17028, Note_on_c, 0, 71, 76
2, 17040, Note_on_c, 0, 71, 0
2, 17040, Note_on_c, 0, 72, 77
2, 17052, Note_on_c, 0, 72, 0
2, 17052, Note_on_c, 0, 74, 77
2, 17064, Note_on_c, 0, 74, 0
2, 17064, Note_on_c, 0, 76, 78
2, 17076, Note_on_c, 0, 76, 0
2, 17076, Note_on_c, 0, 78, 79
2, 17088, Note_on_c, 0, 78, 0
2, 17088, Note_on_c, 0, 79, 80
2, 17100, Note_on_c, 0, 79, 0
2, 17100, Note_on_c, 0, 78, 80
2, 17112, Note_on_c, 0, 78, 0
2, 17112, Note_on_c, 0, 79, 80
2, 17124, Note_on_c, 0, 79, 0
2, 17124, Note_on_c, 0, 78, 80
2, 17136, Note_on_c, 0, 78, 0
2, 17136, Note_on_c, 0, 79, 80
2, 17148, Note_on_c, 0, 79, 0
2, 17148, Note_on_c, 0, 78, 80
2, 17160, Note_on_c, 0, 78, 0
2, 17160, Note_on_c, 0, 79, 80
2, 17172, Note_on_c, 0, 79, 0
2, 17172, Note_on_c, 0, 78, 80
2, 17184, Note_on_c, 0, 78, 0
2, 17184, Note_on_c, 0, 79, 80
2, 17196, Note_on_c, 0, 79, 0
2, 17196, Note_on_c, 0, 78, 79
2, 17208, Note_on_c, 0, 78, 0
2, 17208, Note_on_c, 0, 76, 78
2, 17220, Note_on_c, 0, 76, 0
2, 17220, Note_on_c, 0, 74, 78
2, 17232, Note_on_c, 0, 74, 0
2, 17232, Note_on_c, 0, 72, 77
2, 17244, Note_on_c, 0, 72, 0
2, 17244, Note_on_c, 0, 71, 76
2, 17256, Note_on_c, 0, 71, 0
2, 17256, Note_on_c, 0, 69, 76
2, 17268, Note_on_c, 0, 69, 0
2, 17268, Note_on_c, 0, 67, 75
2, 17280, Note_on_c, 0, 67, 0
2, 17280, Note_on_c, 0, 69, 75
2, 17292, Note_on_c, 0, 69, 0
2, 17292, Note_on_c, 0, 68, 75
2, 17304, Note_on_c, 0, 68, 0
2, 17304, Note_on_c, 0, 71, 75
2, 17316, Note_on_c, 0, 71, 0
2, 17316, Note_on_c, 0, 69, 76
2, 17328, Note_on_c, 0, 69, 0
2, 17328, Note_on_c, 0, 72, 77
2, 17340, Note_on_c, 0, 72, 0
2, 17340, Note_on_c, 0, 71, 77
2, 17352, Note_on_c, 0, 71, 0
2, 17352, Note_on_c, 0, 74, 78
2, 17364, Note_on_c, 0, 74, 0
2, 17364, Note_on_c, 0, 72, 79
2, 17376, Note_on_c, 0, 72, 0
2, 17376, Note_on_c, 0, 76, 80
2, 17388, Note_on_c, 0, 76, 0
2, 17388, Note_on_c, 0, 72, 80
2, 17400, Note_on_c, 0, 72, 0
2, 17400, Note_on_c, 0, 71, 80
2, 17412, Note_on_c, 0, 71, 0
2, 17412, Note_on_c, 0, 69, 80
2, 17424, Note_on_c, 0, 69, 0
2, 17424, Note_on_c, 0, 68, 80
2, 17436, Note_on_c, 0, 68, 0
2, 17436, Note_on_c, 0, 69, 80
2, 17448, Note_on_c, 0, 69, 0
2, 17448, Note_on_c, 0, 71, 80
2, 17460, Note_on_c, 0, 71, 0
2, 17460, Note_on_c, 0, 69, 80
2, 17472, Note_on_c, 0, 69, 0
2, 17472, Note_on_c, 0, 72, 80
2, 17484, Note_on_c, 0, 72, 0
2, 17484, Note_on_c, 0, 71, 80
2, 17496, Note_on_c, 0, 71, 0
2, 17496, Note_on_c, 0, 74, 80
2, 17508, Note_on_c, 0, 74, 0
2, 17508, Note_on_c, 0, 72, 79
2, 17520, Note_on_c, 0, 72, 0
2, 17520, Note_on_c, 0, 76, 78
2, 17532, Note_on_c, 0, 76, 0
2, 17532, Note_on_c, 0, 72, 77
2, 17544, Note_on_c, 0, 72, 0
2, 17544, Note_on_c, 0, 71, 76
2, 17556, Note_on_c, 0, 71, 0
2, 17556, Note_on_c, 0, 69, 75
2, 17568, Note_on_c, 0, 69, 0
2, 17568, Note_on_c, 0, 74, 75
2, 17580, Note_on_c, 0, 74, 0
2, 17580, Note_on_c, 0, 76, 75
2, 17592, Note_on_c, 0, 76, 0
2, 17592, Note_on_c, 0, 73, 75
2, 17604, Note_on_c, 0, 73, 0
2, 17604, Note_on_c, 0, 76, 75
2, 17616, Note_on_c, 0, 76, 0
2, 17616, Note_on_c, 0, 74, 76
2, 17628, Note_on_c, 0, 74, 0
2, 17628, Note_on_c, 0, 76, 76
2, 17640, Note_on_c, 0, 76, 0
2, 17640, Note_on_c, 0, 73, 76
2, 17652, Note_on_c, 0, 73, 0
2, 17652, Note_on_c, 0, 76, 77
2, 17664, Note_on_c, 0, 76, 0
2, 17664, Note_on_c, 0, 74, 77
2, 17676, Note_on_c, 0, 74, 0
2, 17676, Note_on_c, 0, 79, 77
2, 17688, Note_on_c, 0, 79, 0
2, 17688, Note_on_c, 0, 78, 78
2, 17700, Note_on_c, 0, 78, 0
2, 17700, Note_on_c, 0, 81, 78
2, 17712, Note_on_c, 0, 81, 0
2, 17712, Note_on_c, 0, 79, 78
2, 17724, Note_on_c, 0, 79, 0
2, 17724, Note_on_c, 0, 81, 79
2, 17736, Note_on_c, 0, 81, 0
2, 17736, Note_on_c, 0, 78, 79
2, 17748, Note_on_c, 0, 78, 0
2, 17748, Note_on_c, 0, 81, 79
2, 17760, Note_on_c, 0, 81, 0
2, 17760, Note_on_c, 0, 79, 80
2, 17772, Note_on_c, 0, 79, 0
2, 17772, Note_on_c, 0, 83, 80
2, 17784, Note_on_c, 0, 83, 0
2, 17784, Note_on_c, 0, 81, 80
2, 17796, Note_on_c, 0, 81, 0
2, 17796, Note_on_c, 0, 84, 80
2, 17808, Note_on_c, 0, 84, 0
2, 17808, Note_on_c, 0, 83, 80
2, 17820, Note_on_c, 0, 83, 0
2, 17820, Note_on_c, 0, 86, 80
2, 17832, Note_on_c, 0, 86, 0
2, 17832, Note_on_c, 0, 78, 80
2, 17844, Note_on_c, 0, 78, 0
2, 17844, Note_on_c, 0, 81, 80
2, 17856, Note_on_c, 0, 81, 0
2, 17856, Note_on_c, 0, 79, 80
2, 17868, Note_on_c, 0, 79, 0
2, 17868, Note_on_c, 0, 83, 79
2, 17880, Note_on_c, 0, 83, 0
2, 17880, Note_on_c, 0, 75, 79
2, 17892, Note_on_c, 0, 75, 0
2, 17892, Note_on_c, 0, 78, 79
2, 17904, Note_on_c, 0, 78, 0
2, 17904, Note_on_c, 0, 76, 79
2, 17916, Note_on_c, 0, 76, 0
2, 17916, Note_on_c, 0, 79, 78
2, 17928, Note_on_c, 0, 79, 0
2, 17928, Note_on_c, 0, 71, 78
2, 17940, Note_on_c, 0, 71, 0
2, 17940, Note_on_c, 0, 74, 78
2, 17952, Note_on_c, 0, 74, 0
2, 17952, Note_on_c, 0, 72, 78
2, 17964, Note_on_c, 0, 72, 0
2, 17964, Note_on_c, 0, 76, 77
2, 17976, Note_on_c, 0, 76, 0
2, 17976, Note_on_c, 0, 69, 77
2, 17988, Note_on_c, 0, 69, 0
2, 17988, Note_on_c, 0, 72, 77
2, 18000, Note_on_c, 0, 72, 0
2, 18000, Note_on_c, 0, 71, 77
2, 18012, Note_on_c, 0, 71, 0
2, 18012, Note_on_c, 0, 74, 77
2, 18024, Note_on_c, 0, 74, 0
2, 18024, Note_on_c, 0, 67, 76
2, 18036, Note_on_c, 0, 67, 0
2, 18036, Note_on_c, 0, 71, 76
2, 18048, Note_on_c, 0, 71, 0
2, 18048, Note_on_c, 0, 69, 76
2, 18060, Note_on_c, 0, 69, 0
2, 18060, Note_on_c, 0, 72, 76
2, 18072, Note_on_c, 0, 72, 0
2, 18072, Note_on_c, 0, 66, 75
2, 18084, Note_on_c, 0, 66, 0
2, 18084, Note_on_c, 0, 69, 75
2, 18096, Note_on_c, 0, 69, 0
2, 18096, Note_on_c, 0, 67, 75
2, 18108, Note_on_c, 0, 67, 0
2, 18108, Note_on_c, 0, 71, 75
2, 18120, Note_on_c, 0, 71, 0
2, 18120, Note_on_c, 0, 59, 75
2, 18132, Note_on_c, 0, 59, 0
2, 18132, Note_on_c, 0, 71, 75
2, 18144, Note_on_c, 0, 71, 0
2, 18144, Note_on_c, 0, 60, 75
2, 18156, Note_on_c, 0, 60, 0
2, 18156, Note_on_c, 0, 71, 75
2, 18168, Note_on_c, 0, 71, 0
2, 18168, Note_on_c, 0, 61, 75
2, 18180, Note_on_c, 0, 61, 0
2, 18180, Note_on_c, 0, 71, 76
2, 18192, Note_on_c, 0, 71, 0
2, 18192, Note_on_c, 0, 62, 76
2, 18204, Note_on_c, 0, 62, 0
2, 18204, Note_on_c, 0, 71, 77
2, 18216, Note_on_c, 0, 71, 0
2, 18216, Note_on_c, 0, 63, 77
2, 18228, Note_on_c, 0, 63, 0
2, 18228, Note_on_c, 0, 71, 77
2, 18240, Note_on_c, 0, 71, 0
2, 18240, Note_on_c, 0, 64, 78
2, 18252, Note_on_c, 0, 64, 0
2, 18252, Note_on_c, 0, 71, 78
2, 18264, Note_on_c, 0, 71, 0
2, 18264, Note_on_c, 0, 66, 79
2, 18276, Note_on_c, 0, 66, 0
2, 18276, Note_on_c, 0, 71, 79
2, 18288, Note_on_c, 0, 71, 0
2, 18288, Note_on_c, 0, 67, 80
2, 18300, Note_on_c, 0, 67, 0
2, 18300, Note_on_c, 0, 71, 79
2, 18312, Note_on_c, 0, 71, 0
2, 18312, Note_on_c, 0, 66, 79
2, 18324, Note_on_c, 0, 66, 0
2, 18324, Note_on_c, 0, 71, 78
2, 18336, Note_on_c, 0, 71, 0
2, 18336, Note_on_c, 0, 64, 78
2, 18348, Note_on_c, 0, 64, 0
2, 18348, Note_on_c, 0, 71, 77
2, 18360, Note_on_c, 0, 71, 0
2, 18360, Note_on_c, 0, 62, 77
2, 18372, Note_on_c, 0, 62, 0
2, 18372, Note_on_c, 0, 71, 77
2, 18384, Note_on_c, 0, 71, 0
2, 18384, Note_on_c, 0, 60, 76
2, 18396, Note_on_c, 0, 60, 0
2, 18396, Note_on_c, 0, 71, 76
2, 18408, Note_on_c, 0, 71, 0
2, 18408, Note_on_c, 0, 61, 75
2, 18420, Note_on_c, 0, 61, 0
2, 18420, Note_on_c, 0, 71, 75
2, 18432, Note_on_c, 0, 71, 0
2, 18468, Control_c, 0, 64, 127
2, 18468, Note_on_c, 0, 62, 75
2, 18480, Note_on_c, 0, 62, 0
2, 18480, Note_on_c, 0, 67, 75
2, 18488, Note_on_c, 0, 67, 0
2, 18488, Note_on_c, 0, 71, 75
2, 18496, Note_on_c, 0, 71, 0
2, 18496, Note_on_c, 0, 74, 75
2, 18504, Note_on_c, 0, 74, 0
2, 18504, Note_on_c, 0, 71, 75
2, 18512, Note_on_c, 0, 71, 0
2, 18512, Note_on_c, 0, 67, 75
2, 18520, Note_on_c, 0, 67, 0
2, 18520, Note_on_c, 0, 62, 75
2, 18528, Note_on_c, 0, 62, 0
2, 18528, Control_c, 0, 64, 0
2, 18528, Note_on_c, 0, 79, 75
2, 18544, Note_on_c, 0, 79, 0
2, 18544, Note_on_c, 0, 83, 75
2, 18552, Note_on_c, 0, 83, 0
2, 18552, Note_on_c, 0, 81, 75
2, 18560, Note_on_c, 0, 81, 0
2, 18560, Note_on_c, 0, 83, 75
2, 18568, Note_on_c, 0, 83, 0
2, 18568, Note_on_c, 0, 81, 75
2, 18576, Note_on_c, 0, 81, 0
2, 18576, Note_on_c, 0, 83, 75
2, 18584, Note_on_c, 0, 83, 0
2, 18584, Note_on_c, 0, 81, 75
2, 18592, Note_on_c, 0, 81, 0
2, 18592, Note_on_c, 0, 83, 75
2, 18600, Note_on_c, 0, 83, 0
2, 18600, Note_on_c, 0, 81, 75
2, 18608, Note_on_c, 0, 81, 0
2, 18608, Note_on_c, 0, 83, 75
2, 18616, Note_on_c, 0, 83, 0
2, 18616, Note_on_c, 0, 81, 75
2, 18624, Note_on_c, 0, 81, 0
2, 18624, Note_on_c, 0, 83, 75
2, 18632, Note_on_c, 0, 83, 0
2, 18632, Note_on_c, 0, 81, 75
2, 18640, Note_on_c, 0, 81, 0
2, 18640, Note_on_c, 0, 83, 75
2, 18648, Note_on_c, 0, 83, 0
2, 18648, Note_on_c, 0, 81, 75
2, 18656, Note_on_c, 0, 81, 0
2, 18656, Note_on_c, 0, 83, 75
2, 18664, Note_on_c, 0, 83, 0
2, 18664, Note_on_c, 0, 81, 75
2, 18672, Note_on_c, 0, 81, 0
2, 18672, Note_on_c, 0, 83, 75
2, 18680, Note_on_c, 0, 83, 0
2, 18680, Note_on_c, 0, 81, 75
2, 18688, Note_on_c, 0, 81, 0
2, 18688, Note_on_c, 0, 83, 75
2, 18696, Note_on_c, 0, 83, 0
2, 18696, Note_on_c, 0, 81, 75
2, 18704, Note_on_c, 0, 81, 0
2, 18704, Note_on_c, 0, 79, 75
2, 18712, Note_on_c, 0, 79, 0
2, 18712, Note_on_c, 0, 81, 75
2, 18720, Note_on_c, 0, 81, 0
2, 18720, Note_on_c, 0, 79, 75
2, 18765, Note_on_c, 0, 79, 0
2, 18816, Note_on_c, 0, 72, 80
2, 18822, Note_on_c, 0, 76, 80
2, 18828, Note_on_c, 0, 79, 80
2, 18834, Note_on_c, 0, 84, 80
2, 18861, Note_on_c, 0, 84, 0
2, 18861, Note_on_c, 0, 79, 0
2, 18861, Note_on_c, 0, 76, 0
2, 18861, Note_on_c, 0, 72, 0
2, 18984, Note_on_c, 0, 72, 80
2, 18984, Note_on_c, 0, 67, 80
2, 19007, Note_on_c, 0, 72, 0
2, 19007, Note_on_c, 0, 67, 0
2, 19008, Note_on_c, 0, 71, 80
2, 19008, Note_on_c, 0, 66, 80
2, 19053, Note_on_c, 0, 71, 0
2, 19053, Note_on_c, 0, 66, 0
2, 19104, Note_on_c, 0, 71, 80
2, 19110, Note_on_c, 0, 75, 80
2, 19116, Note_on_c, 0, 78, 80
2, 19122, Note_on_c, 0, 83, 80
2, 19175, Note_on_c, 0, 83, 0
2, 19175, Note_on_c, 0, 78, 0
2, 19175, Note_on_c, 0, 75, 0
2, 19175, Note_on_c, 0, 71, 0
2, 19272, Note_on_c, 0, 69, 64
2, 19272, Note_on_c, 0, 66, 64
2, 19295, Note_on_c, 0, 69, 0
2, 19295, Note_on_c, 0, 66, 0
2, 19296, Note_on_c, 0, 69, 80
2, 19296, Note_on_c, 0, 66, 80
2, 19488, Note_on_c, 0, 69, 0
2, 19488, Note_on_c, 0, 66, 0
2, 19488, Note_on_c, 0, 69, 64
2, 19488, Note_on_c, 0, 66, 64
2, 19511, Note_on_c, 0, 69, 0
2, 19511, Note_on_c, 0, 66, 0
2, 19512, Note_on_c, 0, 67, 64
2, 19512, Note_on_c, 0, 64, 64
2, 19535, Note_on_c, 0, 67, 0
2, 19535, Note_on_c, 0, 64, 0
2, 19536, Note_on_c, 0, 66, 64
2, 19536, Note_on_c, 0, 63, 64
2, 19559, Note_on_c, 0, 66, 0
2, 19559, Note_on_c, 0, 63, 0
2, 19560, Note_on_c, 0, 67, 64
2, 19560, Note_on_c, 0, 64, 64
2, 19583, Note_on_c, 0, 67, 0
2, 19583, Note_on_c, 0, 64, 0
2, 19584, Note_on_c, 0, 66, 64
2, 19584, Note_on_c, 0, 63, 64
2, 19629, Note_on_c, 0, 66, 0
2, 19629, Note_on_c, 0, 63, 0
2, 19680, Note_on_c, 0, 59, 64
2, 19680, Note_on_c, 0, 51, 64
2, 19725, Note_on_c, 0, 59, 0
2, 19725, Note_on_c, 0, 51, 0
2, 19776, Note_on_c, 0, 59, 61
2, 19776, Note_on_c, 0, 51, 61
2, 19821, Note_on_c, 0, 59, 0
2, 19821, Note_on_c, 0, 51, 0
2, 19872, Note_on_c, 0, 59, 58
2, 19872, Note_on_c, 0, 51, 58
2, 19961, Note_on_c, 0, 59, 0
2, 19961, Note_on_c, 0, 51, 0
2, 20208, Note_on_c, 0, 67, 75
2, 20253, Note_on_c, 0, 67, 0
2, 20256, Note_on_c, 0, 67, 75
2, 20323, Note_on_c, 0, 67, 0
2, 20328, Note_on_c, 0, 69, 75
2, 20351, Note_on_c, 0, 69, 0
2, 20352, Note_on_c, 0, 71, 75
2, 20397, Note_on_c, 0, 71, 0
2, 20400, Note_on_c, 0, 76, 75
2, 20420, Note_on_c, 0, 76, 0
2, 20448, Note_on_c, 0, 75, 75
2, 20496, Note_on_c, 0, 75, 0
2, 20496, Note_on_c, 0, 78, 75
2, 20541, Note_on_c, 0, 78, 0
2, 20592, Note_on_c, 0, 71, 75
2, 20640, Note_on_c, 0, 71, 0
2, 20640, Note_on_c, 0, 76, 75
2, 20660, Note_on_c, 0, 76, 0
2, 20688, Note_on_c, 0, 76, 75
2, 20736, Note_on_c, 0, 76, 0
2, 20736, Note_on_c, 0, 78, 76
2, 20781, Note_on_c, 0, 78, 0
2, 20784, Note_on_c, 0, 78, 78
2, 20804, Note_on_c, 0, 78, 0
2, 20832, Note_on_c, 0, 81, 80
2, 20877, Note_on_c, 0, 81, 0
2, 20880, Note_on_c, 0, 79, 78
2, 20892, Note_on_c, 0, 79, 0
2, 20892, Note_on_c, 0, 81, 78
2, 20904, Note_on_c, 0, 81, 0
2, 20904, Note_on_c, 0, 79, 78
2, 20916, Note_on_c, 0, 79, 0
2, 20916, Note_on_c, 0, 81, 78
2, 20925, Note_on_c, 0, 81, 0
2, 20928, Note_on_c, 0, 78, 76
2, 20973, Note_on_c, 0, 78, 0
2, 20976, Note_on_c, 0, 78, 75
2, 21021, Note_on_c, 0, 78, 0
2, 21024, Note_on_c, 0, 79, 75
2, 21091, Note_on_c, 0, 79, 0
2, 21096, Note_on_c, 0, 81, 76
2, 21119, Note_on_c, 0, 81, 0
2, 21120, Note_on_c, 0, 83, 77
2, 21165, Note_on_c, 0, 83, 0
2, 21168, Note_on_c, 0, 83, 78
2, 21188, Note_on_c, 0, 83, 0
2, 21216, Note_on_c, 0, 81, 80
2, 21264, Note_on_c, 0, 81, 0
2, 21264, Note_on_c, 0, 84, 80
2, 21309, Note_on_c, 0, 84, 0
2, 21360, Note_on_c, 0, 81, 80
2, 21408, Note_on_c, 0, 81, 0
2, 21408, Note_on_c, 0, 78, 80
2, 21453, Note_on_c, 0, 78, 0
2, 21456, Note_on_c, 0, 78, 80
2, 21476, Note_on_c, 0, 78, 0
2, 21504, Note_on_c, 0, 79, 80
2, 21527, Note_on_c, 0, 79, 0
2, 21528, Note_on_c, 0, 78, 80
2, 21551, Note_on_c, 0, 78, 0
2, 21552, Note_on_c, 0, 76, 80
2, 21575, Note_on_c, 0, 76, 0
2, 21576, Note_on_c, 0, 74, 80
2, 21599, Note_on_c, 0, 74, 0
2, 21600, Note_on_c, 0, 79, 80
2, 21689, Note_on_c, 0, 79, 0
2, 21744, Note_on_c, 0, 67, 75
2, 21789, Note_on_c, 0, 67, 0
2, 21792, Note_on_c, 0, 67, 75
2, 21859, Note_on_c, 0, 67, 0
2, 21864, Note_on_c, 0, 69, 75
2, 21887, Note_on_c, 0, 69, 0
2, 21888, Note_on_c, 0, 71, 75
2, 21933, Note_on_c, 0, 71, 0
2, 21936, Note_on_c, 0, 76, 75
2, 21956, Note_on_c, 0, 76, 0
2, 21984, Note_on_c, 0, 75, 75
2, 22032, Note_on_c, 0, 75, 0
2, 22032, Note_on_c, 0, 78, 75
2, 22077, Note_on_c, 0, 78, 0
2, 22128, Note_on_c, 0, 71, 75
2, 22176, Note_on_c, 0, 71, 0
2, 22176, Note_on_c, 0, 76, 75
2, 22196, Note_on_c, 0, 76, 0
2, 22224, Note_on_c, 0, 76, 75
2, 22272, Note_on_c, 0, 76, 0
2, 22272, Note_on_c, 0, 78, 76
2, 22317, Note_on_c, 0, 78, 0
2, 22320, Note_on_c, 0, 78, 78
2, 22340, Note_on_c, 0, 78, 0
2, 22368, Note_on_c, 0, 81, 80
2, 22413, Note_on_c, 0, 81, 0
2, 22416, Note_on_c, 0, 79, 78
2, 22428, Note_on_c, 0, 79, 0
2, 22428, Note_on_c, 0, 81, 78
2, 22440, Note_on_c, 0, 81, 0
2, 22440, Note_on_c, 0, 79, 78
2, 22452, Note_on_c, 0, 79, 0
2, 22452, Note_on_c, 0, 81, 78
2, 22461, Note_on_c, 0, 81, 0
2, 22464, Note_on_c, 0, 78, 76
2, 22509, Note_on_c, 0, 78, 0
2, 22512, Note_on_c, 0, 78, 75
2, 22557, Note_on_c, 0, 78, 0
2, 22560, Note_on_c, 0, 79, 75
2, 22627, Note_on_c, 0, 79, 0
2, 22632, Note_on_c, 0, 81, 76
2, 22655, Note_on_c, 0, 81, 0
2, 22656, Note_on_c, 0, 83, 77
2, 22701, Note_on_c, 0, 83, 0
2, 22704, Note_on_c, 0, 83, 78
2, 22724, Note_on_c, 0, 83, 0
2, 22752, Note_on_c, 0, 81, 80
2, 22800, Note_on_c, 0, 81, 0
2, 22800, Note_on_c, 0, 84, 80
2, 22845, Note_on_c, 0, 84, 0
2, 22896, Note_on_c, 0, 81, 80
2, 22944, Note_on_c, 0, 81, 0
2, 22944, Note_on_c, 0, 78, 80
2, 22989, Note_on_c, 0, 78, 0
2, 22992, Note_on_c, 0, 78, 80
2, 23012, Note_on_c, 0, 78, 0
2, 23040, Note_on_c, 0, 79, 80
2, 23063, Note_on_c, 0, 79, 0
2, 23064, Note_on_c, 0, 78, 80
2, 23087, Note_on_c, 0, 78, 0
2, 23088, Note_on_c, 0, 76, 80
2, 23111, Note_on_c, 0, 76, 0
2, 23112, Note_on_c, 0, 74, 80
2, 23135, Note_on_c, 0, 74, 0
2, 23136, Note_on_c, 0, 79, 80
2, 23225, Note_on_c, 0, 79, 0
2, 23280, Note_on_c, 0, 83, 80
2, 23325, Note_on_c, 0, 83, 0
2, 23328, Note_on_c, 0, 83, 80
2, 23395, Note_on_c, 0, 83, 0
2, 23400, Note_on_c, 0, 84, 80
2, 23423, Note_on_c, 0, 84, 0
2, 23424, Note_on_c, 0, 86, 80
2, 23469, Note_on_c, 0, 86, 0
2, 23472, Note_on_c, 0, 86, 80
2, 23492, Note_on_c, 0, 86, 0
2, 23520, Note_on_c, 0, 86, 80
2, 23568, Note_on_c, 0, 86, 0
2, 23568, Note_on_c, 0, 76, 80
2, 23613, Note_on_c, 0, 76, 0
2, 23664, Note_on_c, 0, 76, 80
2, 23709, Note_on_c, 0, 76, 0
2, 23712, Note_on_c, 0, 81, 80
2, 23779, Note_on_c, 0, 81, 0
2, 23784, Note_on_c, 0, 83, 80
2, 23807, Note_on_c, 0, 83, 0
2, 23808, Note_on_c, 0, 84, 80
2, 23853, Note_on_c, 0, 84, 0
2, 23856, Note_on_c, 0, 84, 80
2, 23876, Note_on_c, 0, 84, 0
2, 23904, Note_on_c, 0, 84, 80
2, 23952, Note_on_c, 0, 84, 0
2, 23952, Note_on_c, 0, 75, 80
2, 23997, Note_on_c, 0, 75, 0
2, 24048, Note_on_c, 0, 71, 75
2, 24096, Note_on_c, 0, 71, 0
2, 24096, Note_on_c, 0, 76, 75
2, 24141, Note_on_c, 0, 76, 0
2, 24144, Note_on_c, 0, 76, 75
2, 24192, Note_on_c, 0, 76, 0
2, 24192, Note_on_c, 0, 78, 75
2, 24212, Note_on_c, 0, 78, 0
2, 24240, Note_on_c, 0, 78, 75
2, 24285, Note_on_c, 0, 78, 0
2, 24288, Note_on_c, 0, 81, 75
2, 24333, Note_on_c, 0, 81, 0
2, 24336, Note_on_c, 0, 79, 75
2, 24348, Note_on_c, 0, 79, 0
2, 24348, Note_on_c, 0, 81, 75
2, 24360, Note_on_c, 0, 81, 0
2, 24360, Note_on_c, 0, 79, 75
2, 24372, Note_on_c, 0, 79, 0
2, 24372, Note_on_c, 0, 81, 75
2, 24381, Note_on_c, 0, 81, 0
2, 24384, Note_on_c, 0, 78, 75
2, 24429, Note_on_c, 0, 78, 0
2, 24432, Note_on_c, 0, 83, 75
2, 24480, Note_on_c, 0, 83, 0
2, 24480, Note_on_c, 0, 76, 75
2, 24500, Note_on_c, 0, 76, 0
2, 24528, Note_on_c, 0, 76, 75
2, 24576, Note_on_c, 0, 76, 0
2, 24576, Note_on_c, 0, 84, 75
2, 24596, Note_on_c, 0, 84, 0
2, 24624, Note_on_c, 0, 84, 75
2, 24672, Note_on_c, 0, 84, 0
2, 24672, Note_on_c, 0, 75, 75
2, 24768, Note_on_c, 0, 75, 0
2, 24768, Note_on_c, 0, 76, 75
2, 24813, Note_on_c, 0, 76, 0
2, 24816, Note_on_c, 0, 76, 75
2, 24864, Note_on_c, 0, 76, 0
2, 24864, Note_on_c, 0, 78, 75
2, 24909, Note_on_c, 0, 78, 0
2, 24912, Note_on_c, 0, 78, 75
2, 24932, Note_on_c, 0, 78, 0
2, 24960, Note_on_c, 0, 76, 75
2, 24983, Note_on_c, 0, 76, 0
2, 24984, Note_on_c, 0, 75, 75
2, 25007, Note_on_c, 0, 75, 0
2, 25008, Note_on_c, 0, 73, 75
2, 25031, Note_on_c, 0, 73, 0
2, 25032, Note_on_c, 0, 71, 75
2, 25055, Note_on_c, 0, 71, 0
2, 25056, Note_on_c, 0, 76, 75
2, 25145, Note_on_c, 0, 76, 0
2, 25200, Note_on_c, 0, 83, 80
2, 25245, Note_on_c, 0, 83, 0
2, 25248, Note_on_c, 0, 83, 80
2, 25315, Note_on_c, 0, 83, 0
2, 25320, Note_on_c, 0, 84, 80
2, 25343, Note_on_c, 0, 84, 0
2, 25344, Note_on_c, 0, 86, 80
2, 25389, Note_on_c, 0, 86, 0
2, 25392, Note_on_c, 0, 86, 80
2, 25412, Note_on_c, 0, 86, 0
2, 25440, Note_on_c, 0, 86, 80
2, 25488, Note_on_c, 0, 86, 0
2, 25488, Note_on_c, 0, 76, 80
2, 25533, Note_on_c, 0, 76, 0
2, 25584, Note_on_c, 0, 76, 80
2, 25629, Note_on_c, 0, 76, 0
2, 25632, Note_on_c, 0, 81, 80
2, 25699, Note_on_c, 0, 81, 0
2, 25704, Note_on_c, 0, 83, 80
2, 25727, Note_on_c, 0, 83, 0
2, 25728, Note_on_c, 0, 84, 80
2, 25773, Note_on_c, 0, 84, 0
2, 25776, Note_on_c, 0, 84, 80
2, 25796, Note_on_c, 0, 84, 0
2, 25824, Note_on_c, 0, 84, 80
2, 25872, Note_on_c, 0, 84, 0
2, 25872, Note_on_c, 0, 75, 80
2, 25917, Note_on_c, 0, 75, 0
2, 25968, Note_on_c, 0, 71, 75
2, 26016, Note_on_c, 0, 71, 0
2, 26016, Note_on_c, 0, 76, 75
2, 26061, Note_on_c, 0, 76, 0
2, 26064, Note_on_c, 0, 76, 75
2, 26112, Note_on_c, 0, 76, 0
2, 26112, Note_on_c, 0, 78, 75
2, 26132, Note_on_c, 0, 78, 0
2, 26160, Note_on_c, 0, 78, 75
2, 26205, Note_on_c, 0, 78, 0
2, 26208, Note_on_c, 0, 81, 75
2, 26253, Note_on_c, 0, 81, 0
2, 26256, Note_on_c, 0, 79, 75
2, 26268, Note_on_c, 0, 79, 0
2, 26268, Note_on_c, 0, 81, 75
2, 26280, Note_on_c, 0, 81, 0
2, 26280, Note_on_c, 0, 79, 75
2, 26292, Note_on_c, 0, 79, 0
2, 26292, Note_on_c, 0, 81, 75
2, 26301, Note_on_c, 0, 81, 0
2, 26304, Note_on_c, 0, 78, 75
2, 26349, Note_on_c, 0, 78, 0
2, 26352, Note_on_c, 0, 83, 75
2, 26400, Note_on_c, 0, 83, 0
2, 26400, Note_on_c, 0, 76, 75
2, 26420, Note_on_c, 0, 76, 0
2, 26448, Note_on_c, 0, 76, 75
2, 26496, Note_on_c, 0, 76, 0
2, 26496, Note_on_c, 0, 84, 75
2, 26516, Note_on_c, 0, 84, 0
2, 26544, Note_on_c, 0, 84, 75
2, 26592, Note_on_c, 0, 84, 0
2, 26592, Note_on_c, 0, 75, 75
2, 26688, Note_on_c, 0, 75, 0
2, 26688, Note_on_c, 0, 76, 75
2, 26733, Note_on_c, 0, 76, 0
2, 26736, Note_on_c, 0, 76, 75
2, 26784, Note_on_c, 0, 76, 0
2, 26784, Note_on_c, 0, 78, 75
2, 26829, Note_on_c, 0, 78, 0
2, 26832, Note_on_c, 0, 78, 75
2, 26852, Note_on_c, 0, 78, 0
2, 26880, Note_on_c, 0, 76, 75
2, 26903, Note_on_c, 0, 76, 0
2, 26904, Note_on_c, 0, 75, 75
2, 26927, Note_on_c, 0, 75, 0
2, 26928, Note_on_c, 0, 73, 75
2, 26951, Note_on_c, 0, 73, 0
2, 26952, Note_on_c, 0, 71, 75
2, 26975, Note_on_c, 0, 71, 0
2, 26976, Note_on_c, 0, 76, 75
2, 27065, Note_on_c, 0, 76, 0
2, 27120, Note_on_c, 0, 80, 75
2, 27165, Note_on_c, 0, 80, 0
2, 27168, Note_on_c, 0, 80, 75
2, 27235, Note_on_c, 0, 80, 0
2, 27240, Note_on_c, 0, 81, 75
2, 27263, Note_on_c, 0, 81, 0
2, 27264, Note_on_c, 0, 83, 75
2, 27309, Note_on_c, 0, 83, 0
2, 27312, Note_on_c, 0, 76, 75
2, 27332, Note_on_c, 0, 76, 0
2, 27360, Note_on_c, 0, 75, 75
2, 27405, Note_on_c, 0, 75, 0
2, 27408, Note_on_c, 0, 78, 75
2, 27453, Note_on_c, 0, 78, 0
2, 27480, Note_on_c, 0, 59, 75
2, 27503, Note_on_c, 0, 59, 0
2, 27504, Note_on_c, 0, 61, 75
2, 27527, Note_on_c, 0, 61, 0
2, 27528, Note_on_c, 0, 63, 75
2, 27551, Note_on_c, 0, 63, 0
2, 27552, Note_on_c, 0, 64, 75
2, 27575, Note_on_c, 0, 64, 0
2, 27576, Note_on_c, 0, 66, 75
2, 27599, Note_on_c, 0, 66, 0
2, 27600, Note_on_c, 0, 68, 76
2, 27623, Note_on_c, 0, 68, 0
2, 27624, Note_on_c, 0, 69, 76
2, 27647, Note_on_c, 0, 69, 0
2, 27648, Note_on_c, 0, 71, 77
2, 27671, Note_on_c, 0, 71, 0
2, 27672, Note_on_c, 0, 73, 78
2, 27695, Note_on_c, 0, 73, 0
2, 27696, Note_on_c, 0, 75, 78
2, 27719, Note_on_c, 0, 75, 0
2, 27720, Note_on_c, 0, 76, 79
2, 27743, Note_on_c, 0, 76, 0
2, 27744, Note_on_c, 0, 71, 80
2, 27789, Note_on_c, 0, 71, 0
2, 27792, Note_on_c, 0, 69, 78
2, 27804, Note_on_c, 0, 69, 0
2, 27804, Note_on_c, 0, 71, 78
2, 27816, Note_on_c, 0, 71, 0
2, 27816, Note_on_c, 0, 69, 78
2, 27828, Note_on_c, 0, 69, 0
2, 27828, Note_on_c, 0, 71, 78
2, 27837, Note_on_c, 0, 71, 0
2, 27840, Note_on_c, 0, 68, 76
2, 27885, Note_on_c, 0, 68, 0
2, 27888, Note_on_c, 0, 80, 75
2, 27933, Note_on_c, 0, 80, 0
2, 27936, Note_on_c, 0, 81, 75
2, 27948, Note_on_c, 0, 81, 0
2, 27948, Note_on_c, 0, 80, 75
2, 27960, Note_on_c, 0, 80, 0
2, 27960, Note_on_c, 0, 78, 75
2, 27972, Note_on_c, 0, 78, 0
2, 27972, Note_on_c, 0, 80, 75
2, 28003, Note_on_c, 0, 80, 0
2, 28008, Note_on_c, 0, 82, 75
2, 28031, Note_on_c, 0, 82, 0
2, 28032, Note_on_c, 0, 83, 75
2, 28077, Note_on_c, 0, 83, 0
2, 28080, Note_on_c, 0, 72, 75
2, 28125, Note_on_c, 0, 72, 0
2, 28128, Note_on_c, 0, 75, 75
2, 28140, Note_on_c, 0, 75, 0
2, 28140, Note_on_c, 0, 73, 75
2, 28152, Note_on_c, 0, 73, 0
2, 28152, Note_on_c, 0, 72, 75
2, 28164, Note_on_c, 0, 72, 0
2, 28164, Note_on_c, 0, 73, 75
2, 28195, Note_on_c, 0, 73, 0
2, 28200, Note_on_c, 0, 76, 75
2, 28223, Note_on_c, 0, 76, 0
2, 28224, Note_on_c, 0, 80, 75
2, 28269, Note_on_c, 0, 80, 0
2, 28272, Note_on_c, 0, 70, 75
2, 28317, Note_on_c, 0, 70, 0
2, 28320, Note_on_c, 0, 71, 75
2, 28365, Note_on_c, 0, 71, 0
2, 28368, Note_on_c, 0, 76, 75
2, 28391, Note_on_c, 0, 76, 0
2, 28392, Note_on_c, 0, 73, 75
2, 28415, Note_on_c, 0, 73, 0
2, 28416, Note_on_c, 0, 75, 75
2, 28439, Note_on_c, 0, 75, 0
2, 28440, Note_on_c, 0, 71, 75
2, 28463, Note_on_c, 0, 71, 0
2, 28464, Note_on_c, 0, 73, 75
2, 28487, Note_on_c, 0, 73, 0
2, 28488, Note_on_c, 0, 70, 75
2, 28511, Note_on_c, 0, 70, 0
2, 28512, Note_on_c, 0, 71, 75
2, 28601, Note_on_c, 0, 71, 0
2, 28656, Note_on_c, 0, 80, 75
2, 28701, Note_on_c, 0, 80, 0
2, 28704, Note_on_c, 0, 80, 75
2, 28771, Note_on_c, 0, 80, 0
2, 28776, Note_on_c, 0, 81, 75
2, 28799, Note_on_c, 0, 81, 0
2, 28800, Note_on_c, 0, 83, 75
2, 28845, Note_on_c, 0, 83, 0
2, 28848, Note_on_c, 0, 76, 75
2, 28868, Note_on_c, 0, 76, 0
2, 28896, Note_on_c, 0, 75, 75
2, 28941, Note_on_c, 0, 75, 0
2, 28944, Note_on_c, 0, 78, 75
2, 28989, Note_on_c, 0, 78, 0
2, 29016, Note_on_c, 0, 59, 75
2, 29039, Note_on_c, 0, 59, 0
2, 29040, Note_on_c, 0, 61, 75
2, 29063, Note_on_c, 0, 61, 0
2, 29064, Note_on_c, 0, 63, 75
2, 29087, Note_on_c, 0, 63, 0
2, 29088, Note_on_c, 0, 64, 75
2, 29111, Note_on_c, 0, 64, 0
2, 29112, Note_on_c, 0, 66, 75
2, 29135, Note_on_c, 0, 66, 0
2, 29136, Note_on_c, 0, 68, 76
2, 29159, Note_on_c, 0, 68, 0
2, 29160, Note_on_c, 0, 69, 76
2, 29183, Note_on_c, 0, 69, 0
2, 29184, Note_on_c, 0, 71, 77
2, 29207, Note_on_c, 0, 71, 0
2, 29208, Note_on_c, 0, 73, 78
2, 29231, Note_on_c, 0, 73, 0
2, 29232, Note_on_c, 0, 75, 78
2, 29255, Note_on_c, 0, 75, 0
2, 29256, Note_on_c, 0, 76, 79
2, 29279, Note_on_c, 0, 76, 0
2, 29280, Note_on_c, 0, 71, 80
2, 29325, Note_on_c, 0, 71, 0
2, 29328, Note_on_c, 0, 69, 78
2, 29340, Note_on_c, 0, 69, 0
2, 29340, Note_on_c, 0, 71, 78
2, 29352, Note_on_c, 0, 71, 0
2, 29352, Note_on_c, 0, 69, 78
2, 29364, Note_on_c, 0, 69, 0
2, 29364, Note_on_c, 0, 71, 78
2, 29373, Note_on_c, 0, 71, 0
2, 29376, Note_on_c, 0, 68, 76
2, 29421, Note_on_c, 0, 68, 0
2, 29424, Note_on_c, 0, 80, 75
2, 29469, Note_on_c, 0, 80, 0
2, 29472, Note_on_c, 0, 81, 75
2, 29484, Note_on_c, 0, 81, 0
2, 29484, Note_on_c, 0, 80, 75
2, 29496, Note_on_c, 0, 80, 0
2, 29496, Note_on_c, 0, 78, 75
2, 29508, Note_on_c, 0, 78, 0
2, 29508, Note_on_c, 0, 80, 75
2, 29539, Note_on_c, 0, 80, 0
2, 29544, Note_on_c, 0, 82, 75
2, 29567, Note_on_c, 0, 82, 0
2, 29568, Note_on_c, 0, 83, 75
2, 29613, Note_on_c, 0, 83, 0
2, 29616, Note_on_c, 0, 72, 75
2, 29661, Note_on_c, 0, 72, 0
2, 29664, Note_on_c, 0, 75, 75
2, 29676, Note_on_c, 0, 75, 0
2, 29676, Note_on_c, 0, 73, 75
2, 29688, Note_on_c, 0, 73, 0
2, 29688, Note_on_c, 0, 72, 75
2, 29700, Note_on_c, 0, 72, 0
2, 29700, Note_on_c, 0, 73, 75
2, 29731, Note_on_c, 0, 73, 0
2, 29736, Note_on_c, 0, 76, 75
2, 29759, Note_on_c, 0, 76, 0
2, 29760, Note_on_c, 0, 80, 75
2, 29805, Note_on_c, 0, 80, 0
2, 29808, Note_on_c, 0, 70, 75
2, 29853, Note_on_c, 0, 70, 0
2, 29856, Note_on_c, 0, 71, 75
2, 29901, Note_on_c, 0, 71, 0
2, 29904, Note_on_c, 0, 76, 75
2, 29927, Note_on_c, 0, 76, 0
2, 29928, Note_on_c, 0, 73, 75
2, 29951, Note_on_c, 0, 73, 0
2, 29952, Note_on_c, 0, 75, 75
2, 29975, Note_on_c, 0, 75, 0
2, 29976, Note_on_c, 0, 71, 75
2, 29999, Note_on_c, 0, 71, 0
2, 30000, Note_on_c, 0, 73, 75
2, 30023, Note_on_c, 0, 73, 0
2, 30024, Note_on_c, 0, 70, 75
2, 30047, Note_on_c, 0, 70, 0
2, 30048, Note_on_c, 0, 71, 75
2, 30137, Note_on_c, 0, 71, 0
2, 30192, Note_on_c, 0, 78, 75
2, 30237, Note_on_c, 0, 78, 0
2, 30240, Note_on_c, 0, 78, 75
2, 30307, Note_on_c, 0, 78, 0
2, 30312, Note_on_c, 0, 80, 75
2, 30335, Note_on_c, 0, 80, 0
2, 30336, Note_on_c, 0, 81, 75
2, 30359, Note_on_c, 0, 81, 0
2, 30360, Note_on_c, 0, 78, 75
2, 30383, Note_on_c, 0, 78, 0
2, 30384, Note_on_c, 0, 76, 75
2, 30407, Note_on_c, 0, 76, 0
2, 30408, Note_on_c, 0, 75, 75
2, 30431, Note_on_c, 0, 75, 0
2, 30432, Note_on_c, 0, 76, 75
2, 30455, Note_on_c, 0, 76, 0
2, 30456, Note_on_c, 0, 75, 75
2, 30479, Note_on_c, 0, 75, 0
2, 30480, Note_on_c, 0, 76, 75
2, 30503, Note_on_c, 0, 76, 0
2, 30504, Note_on_c, 0, 75, 75
2, 30527, Note_on_c, 0, 75, 0
2, 30528, Note_on_c, 0, 76, 75
2, 30551, Note_on_c, 0, 76, 0
2, 30552, Note_on_c, 0, 83, 75
2, 30575, Note_on_c, 0, 83, 0
2, 30576, Note_on_c, 0, 81, 75
2, 30599, Note_on_c, 0, 81, 0
2, 30600, Note_on_c, 0, 80, 75
2, 30623, Note_on_c, 0, 80, 0
2, 30624, Note_on_c, 0, 78, 75
2, 30691, Note_on_c, 0, 78, 0
2, 30696, Note_on_c, 0, 80, 75
2, 30719, Note_on_c, 0, 80, 0
2, 30720, Note_on_c, 0, 81, 75
2, 30743, Note_on_c, 0, 81, 0
2, 30744, Note_on_c, 0, 78, 75
2, 30767, Note_on_c, 0, 78, 0
2, 30768, Note_on_c, 0, 76, 75
2, 30791, Note_on_c, 0, 76, 0
2, 30792, Note_on_c, 0, 75, 75
2, 30815, Note_on_c, 0, 75, 0
2, 30816, Note_on_c, 0, 76, 75
2, 30839, Note_on_c, 0, 76, 0
2, 30840, Note_on_c, 0, 75, 75
2, 30863, Note_on_c, 0, 75, 0
2, 30864, Note_on_c, 0, 76, 75
2, 30887, Note_on_c, 0, 76, 0
2, 30888, Note_on_c, 0, 75, 75
2, 30911, Note_on_c, 0, 75, 0
2, 30912, Note_on_c, 0, 76, 75
2, 30935, Note_on_c, 0, 76, 0
2, 30936, Note_on_c, 0, 83, 75
2, 30959, Note_on_c, 0, 83, 0
2, 30960, Note_on_c, 0, 81, 75
2, 30983, Note_on_c, 0, 81, 0
2, 30984, Note_on_c, 0, 80, 75
2, 31007, Note_on_c, 0, 80, 0
2, 31008, Note_on_c, 0, 78, 75
2, 31031, Note_on_c, 0, 78, 0
2, 31032, Note_on_c, 0, 80, 75
2, 31055, Note_on_c, 0, 80, 0
2, 31056, Note_on_c, 0, 81, 75
2, 31079, Note_on_c, 0, 81, 0
2, 31080, Note_on_c, 0, 80, 75
2, 31103, Note_on_c, 0, 80, 0
2, 31104, Note_on_c, 0, 78, 75
2, 31127, Note_on_c, 0, 78, 0
2, 31128, Note_on_c, 0, 76, 75
2, 31151, Note_on_c, 0, 76, 0
2, 31152, Note_on_c, 0, 75, 75
2, 31175, Note_on_c, 0, 75, 0
2, 31176, Note_on_c, 0, 73, 75
2, 31199, Note_on_c, 0, 73, 0
2, 31200, Note_on_c, 0, 71, 75
2, 31223, Note_on_c, 0, 71, 0
2, 31224, Note_on_c, 0, 70, 75
2, 31247, Note_on_c, 0, 70, 0
2, 31248, Note_on_c, 0, 71, 75
2, 31271, Note_on_c, 0, 71, 0
2, 31272, Note_on_c, 0, 73, 75
2, 31295, Note_on_c, 0, 73, 0
2, 31296, Note_on_c, 0, 71, 75
2, 31319, Note_on_c, 0, 71, 0
2, 31320, Note_on_c, 0, 69, 75
2, 31343, Note_on_c, 0, 69, 0
2, 31344, Note_on_c, 0, 68, 75
2, 31367, Note_on_c, 0, 68, 0
2, 31368, Note_on_c, 0, 66, 75
2, 31391, Note_on_c, 0, 66, 0
2, 31392, Note_on_c, 0, 69, 75
2, 31404, Note_on_c, 0, 69, 0
2, 31404, Note_on_c, 0, 68, 75
2, 31416, Note_on_c, 0, 68, 0
2, 31416, Note_on_c, 0, 66, 75
2, 31428, Note_on_c, 0, 66, 0
2, 31428, Note_on_c, 0, 68, 75
2, 31459, Note_on_c, 0, 68, 0
2, 31464, Note_on_c, 0, 69, 75
2, 31487, Note_on_c, 0, 69, 0
2, 31488, Note_on_c, 0, 71, 75
2, 31533, Note_on_c, 0, 71, 0
2, 31536, Note_on_c, 0, 64, 75
2, 31581, Note_on_c, 0, 64, 0
2, 31584, Note_on_c, 0, 63, 75
2, 31629, Note_on_c, 0, 63, 0
2, 31632, Note_on_c, 0, 66, 75
2, 31677, Note_on_c, 0, 66, 0
2, 31704, Note_on_c, 0, 59, 75
2, 31727, Note_on_c, 0, 59, 0
2, 31728, Note_on_c, 0, 61, 75
2, 31751, Note_on_c, 0, 61, 0
2, 31752, Note_on_c, 0, 63, 75
2, 31775, Note_on_c, 0, 63, 0
2, 31776, Note_on_c, 0, 64, 76
2, 31799, Note_on_c, 0, 64, 0
2, 31800, Note_on_c, 0, 66, 76
2, 31823, Note_on_c, 0, 66, 0
2, 31824, Note_on_c, 0, 68, 77
2, 31847, Note_on_c, 0, 68, 0
2, 31848, Note_on_c, 0, 69, 77
2, 31871, Note_on_c, 0, 69, 0
2, 31872, Note_on_c, 0, 71, 78
2, 31895, Note_on_c, 0, 71, 0
2, 31896, Note_on_c, 0, 73, 78
2, 31919, Note_on_c, 0, 73, 0
2, 31920, Note_on_c, 0, 75, 79
2, 31943, Note_on_c, 0, 75, 0
2, 31944, Note_on_c, 0, 76, 79
2, 31967, Note_on_c, 0, 76, 0
2, 31968, Note_on_c, 0, 71, 80
2, 32013, Note_on_c, 0, 71, 0
2, 32016, Note_on_c, 0, 69, 78
2, 32028, Note_on_c, 0, 69, 0
2, 32028, Note_on_c, 0, 71, 78
2, 32040, Note_on_c, 0, 71, 0
2, 32040, Note_on_c, 0, 69, 78
2, 32052, Note_on_c, 0, 69, 0
2, 32052, Note_on_c, 0, 71, 78
2, 32061, Note_on_c, 0, 71, 0
2, 32064, Note_on_c, 0, 68, 76
2, 32087, Note_on_c, 0, 68, 0
2, 32088, Note_on_c, 0, 71, 75
2, 32111, Note_on_c, 0, 71, 0
2, 32112, Note_on_c, 0, 73, 75
2, 32135, Note_on_c, 0, 73, 0
2, 32136, Note_on_c, 0, 75, 75
2, 32159, Note_on_c, 0, 75, 0
2, 32160, Note_on_c, 0, 76, 75
2, 32183, Note_on_c, 0, 76, 0
2, 32184, Note_on_c, 0, 78, 75
2, 32207, Note_on_c, 0, 78, 0
2, 32208, Note_on_c, 0, 80, 75
2, 32231, Note_on_c, 0, 80, 0
2, 32232, Note_on_c, 0, 81, 75
2, 32255, Note_on_c, 0, 81, 0
2, 32256, Note_on_c, 0, 83, 75
2, 32279, Note_on_c, 0, 83, 0
2, 32280, Note_on_c, 0, 80, 75
2, 32303, Note_on_c, 0, 80, 0
2, 32304, Note_on_c, 0, 78, 75
2, 32327, Note_on_c, 0, 78, 0
2, 32328, Note_on_c, 0, 76, 75
2, 32351, Note_on_c, 0, 76, 0
2, 32400, Note_on_c, 0, 85, 75
2, 32445, Note_on_c, 0, 85, 0
2, 32496, Note_on_c, 0, 87, 75
2, 32541, Note_on_c, 0, 87, 0
2, 32544, Note_on_c, 0, 88, 75
2, 32567, Note_on_c, 0, 88, 0
2, 32568, Note_on_c, 0, 83, 75
2, 32591, Note_on_c, 0, 83, 0
2, 32592, Note_on_c, 0, 85, 75
2, 32615, Note_on_c, 0, 85, 0
2, 32616, Note_on_c, 0, 81, 75
2, 32639, Note_on_c, 0, 81, 0
2, 32640, Note_on_c, 0, 80, 75
2, 32663, Note_on_c, 0, 80, 0
2, 32664, Note_on_c, 0, 76, 75
2, 32687, Note_on_c, 0, 76, 0
2, 32688, Note_on_c, 0, 78, 75
2, 32711, Note_on_c, 0, 78, 0
2, 32712, Note_on_c, 0, 75, 75
2, 32735, Note_on_c, 0, 75, 0
2, 32736, Note_on_c, 0, 76, 75
2, 32825, Note_on_c, 0, 76, 0
2, 32880, Note_on_c, 0, 78, 75
2, 32925, Note_on_c, 0, 78, 0
2, 32928, Note_on_c, 0, 78, 75
2, 32995, Note_on_c, 0, 78, 0
2, 33000, Note_on_c, 0, 80, 75
2, 33023, Note_on_c, 0, 80, 0
2, 33024, Note_on_c, 0, 81, 75
2, 33047, Note_on_c, 0, 81, 0
2, 33048, Note_on_c, 0, 78, 75
2, 33071, Note_on_c, 0, 78, 0
2, 33072, Note_on_c, 0, 76, 75
2, 33095, Note_on_c, 0, 76, 0
2, 33096, Note_on_c, 0, 75, 75
2, 33119, Note_on_c, 0, 75, 0
2, 33120, Note_on_c, 0, 76, 75
2, 33143, Note_on_c, 0, 76, 0
2, 33144, Note_on_c, 0, 75, 75
2, 33167, Note_on_c, 0, 75, 0
2, 33168, Note_on_c, 0, 76, 75
2, 33191, Note_on_c, 0, 76, 0
2, 33192, Note_on_c, 0, 75, 75
2, 33215, Note_on_c, 0, 75, 0
2, 33216, Note_on_c, 0, 76, 75
2, 33239, Note_on_c, 0, 76, 0
2, 33240, Note_on_c, 0, 83, 75
2, 33263, Note_on_c, 0, 83, 0
2, 33264, Note_on_c, 0, 81, 75
2, 33287, Note_on_c, 0, 81, 0
2, 33288, Note_on_c, 0, 80, 75
2, 33311, Note_on_c, 0, 80, 0
2, 33312, Note_on_c, 0, 78, 75
2, 33379, Note_on_c, 0, 78, 0
2, 33384, Note_on_c, 0, 80, 75
2, 33407, Note_on_c, 0, 80, 0
2, 33408, Note_on_c, 0, 81, 75
2, 33431, Note_on_c, 0, 81, 0
2, 33432, Note_on_c, 0, 78, 75
2, 33455, Note_on_c, 0, 78, 0
2, 33456, Note_on_c, 0, 76, 75
2, 33479, Note_on_c, 0, 76, 0
2, 33480, Note_on_c, 0, 75, 75
2, 33503, Note_on_c, 0, 75, 0
2, 33504, Note_on_c, 0, 76, 75
2, 33527, Note_on_c, 0, 76, 0
2, 33528, Note_on_c, 0, 75, 75
2, 33551, Note_on_c, 0, 75, 0
2, 33552, Note_on_c, 0, 76, 75
2, 33575, Note_on_c, 0, 76, 0
2, 33576, Note_on_c, 0, 75, 75
2, 33599, Note_on_c, 0, 75, 0
2, 33600, Note_on_c, 0, 76, 75
2, 33623, Note_on_c, 0, 76, 0
2, 33624, Note_on_c, 0, 83, 75
2, 33647, Note_on_c, 0, 83, 0
2, 33648, Note_on_c, 0, 81, 75
2, 33671, Note_on_c, 0, 81, 0
2, 33672, Note_on_c, 0, 80, 75
2, 33695, Note_on_c, 0, 80, 0
2, 33696, Note_on_c, 0, 78, 75
2, 33719, Note_on_c, 0, 78, 0
2, 33720, Note_on_c, 0, 80, 75
2, 33743, Note_on_c, 0, 80, 0
2, 33744, Note_on_c, 0, 81, 75
2, 33767, Note_on_c, 0, 81, 0
2, 33768, Note_on_c, 0, 80, 75
2, 33791, Note_on_c, 0, 80, 0
2, 33792, Note_on_c, 0, 78, 75
2, 33815, Note_on_c, 0, 78, 0
2, 33816, Note_on_c, 0, 76, 75
2, 33839, Note_on_c, 0, 76, 0
2, 33840, Note_on_c, 0, 75, 75
2, 33863, Note_on_c, 0, 75, 0
2, 33864, Note_on_c, 0, 73, 75
2, 33887, Note_on_c, 0, 73, 0
2, 33888, Note_on_c, 0, 71, 75
2, 33911, Note_on_c, 0, 71, 0
2, 33912, Note_on_c, 0, 70, 75
2, 33935, Note_on_c, 0, 70, 0
2, 33936, Note_on_c, 0, 71, 75
2, 33959, Note_on_c, 0, 71, 0
2, 33960, Note_on_c, 0, 73, 75
2, 33983, Note_on_c, 0, 73, 0
2, 33984, Note_on_c, 0, 71, 75
2, 34007, Note_on_c, 0, 71, 0
2, 34008, Note_on_c, 0, 69, 75
2, 34031, Note_on_c, 0, 69, 0
2, 34032, Note_on_c, 0, 68, 75
2, 34055, Note_on_c, 0, 68, 0
2, 34056, Note_on_c, 0, 66, 75
2, 34079, Note_on_c, 0, 66, 0
2, 34080, Note_on_c, 0, 69, 75
2, 34092, Note_on_c, 0, 69, 0
2, 34092, Note_on_c, 0, 68, 75
2, 34104, Note_on_c, 0, 68, 0
2, 34104, Note_on_c, 0, 66, 75
2, 34116, Note_on_c, 0, 66, 0
2, 34116, Note_on_c, 0, 68, 75
2, 34147, Note_on_c, 0, 68, 0
2, 34152, Note_on_c, 0, 69, 75
2, 34175, Note_on_c, 0, 69, 0
2, 34176, Note_on_c, 0, 71, 75
2, 34221, Note_on_c, 0, 71, 0
2, 34224, Note_on_c, 0, 64, 75
2, 34269, Note_on_c, 0, 64, 0
2, 34272, Note_on_c, 0, 63, 75
2, 34317, Note_on_c, 0, 63, 0
2, 34320, Note_on_c, 0, 66, 75
2, 34365, Note_on_c, 0, 66, 0
2, 34392, Note_on_c, 0, 59, 75
2, 34415, Note_on_c, 0, 59, 0
2, 34416, Note_on_c, 0, 61, 75
2, 34439, Note_on_c, 0, 61, 0
2, 34440, Note_on_c, 0, 63, 75
2, 34463, Note_on_c, 0, 63, 0
2, 34464, Note_on_c, 0, 64, 76
2, 34487, Note_on_c, 0, 64, 0
2, 34488, Note_on_c, 0, 66, 76
2, 34511, Note_on_c, 0, 66, 0
2, 34512, Note_on_c, 0, 68, 77
2, 34535, Note_on_c, 0, 68, 0
2, 34536, Note_on_c, 0, 69, 77
2, 34559, Note_on_c, 0, 69, 0
2, 34560, Note_on_c, 0, 71, 78
2, 34583, Note_on_c, 0, 71, 0
2, 34584, Note_on_c, 0, 73, 78
2, 34607, Note_on_c, 0, 73, 0
2, 34608, Note_on_c, 0, 75, 79
2, 34631, Note_on_c, 0, 75, 0
2, 34632, Note_on_c, 0, 76, 79
2, 34655, Note_on_c, 0, 76, 0
2, 34656, Note_on_c, 0, 71, 80
2, 34701, Note_on_c, 0, 71, 0
2, 34704, Note_on_c, 0, 69, 78
2, 34716, Note_on_c, 0, 69, 0
2, 34716, Note_on_c, 0, 71, 78
2, 34728, Note_on_c, 0, 71, 0
2, 34728, Note_on_c, 0, 69, 78
2, 34740, Note_on_c, 0, 69, 0
2, 34740, Note_on_c, 0, 71, 78
2, 34749, Note_on_c, 0, 71, 0
2, 34752, Note_on_c, 0, 68, 76
2, 34775, Note_on_c, 0, 68, 0
2, 34776, Note_on_c, 0, 71, 75
2, 34799, Note_on_c, 0, 71, 0
2, 34800, Note_on_c, 0, 73, 75
2, 34823, Note_on_c, 0, 73, 0
2, 34824, Note_on_c, 0, 75, 75
2, 34847, Note_on_c, 0, 75, 0
2, 34848, Note_on_c, 0, 76, 75
2, 34871, Note_on_c, 0, 76, 0
2, 34872, Note_on_c, 0, 78, 75
2, 34895, Note_on_c, 0, 78, 0
2, 34896, Note_on_c, 0, 80, 75
2, 34919, Note_on_c, 0, 80, 0
2, 34920, Note_on_c, 0, 81, 75
2, 34943, Note_on_c, 0, 81, 0
2, 34944, Note_on_c, 0, 83, 75
2, 34967, Note_on_c, 0, 83, 0
2, 34968, Note_on_c, 0, 80, 75
2, 34991, Note_on_c, 0, 80, 0
2, 34992, Note_on_c, 0, 78, 75
2, 35015, Note_on_c, 0, 78, 0
2, 35016, Note_on_c, 0, 76, 75
2, 35039, Note_on_c, 0, 76, 0
2, 35088, Note_on_c, 0, 85, 75
2, 35133, Note_on_c, 0, 85, 0
2, 35184, Note_on_c, 0, 87, 75
2, 35229, Note_on_c, 0, 87, 0
2, 35232, Note_on_c, 0, 88, 75
2, 35255, Note_on_c, 0, 88, 0
2, 35256, Note_on_c, 0, 83, 75
2, 35279, Note_on_c, 0, 83, 0
2, 35280, Note_on_c, 0, 85, 75
2, 35303, Note_on_c, 0, 85, 0
2, 35304, Note_on_c, 0, 81, 75
2, 35327, Note_on_c, 0, 81, 0
2, 35328, Note_on_c, 0, 80, 75
2, 35351, Note_on_c, 0, 80, 0
2, 35352, Note_on_c, 0, 76, 75
2, 35375, Note_on_c, 0, 76, 0
2, 35376, Note_on_c, 0, 78, 75
2, 35399, Note_on_c, 0, 78, 0
2, 35400, Note_on_c, 0, 75, 75
2, 35423, Note_on_c, 0, 75, 0
2, 35424, Note_on_c, 0, 76, 75
2, 35513, Note_on_c, 0, 76, 0
2, 35568, Note_on_c, 0, 67, 75
2, 35613, Note_on_c, 0, 67, 0
2, 35616, Note_on_c, 0, 67, 75
2, 35683, Note_on_c, 0, 67, 0
2, 35688, Note_on_c, 0, 69, 75
2, 35711, Note_on_c, 0, 69, 0
2, 35712, Note_on_c, 0, 71, 75
2, 35757, Note_on_c, 0, 71, 0
2, 35760, Note_on_c, 0, 76, 75
2, 35780, Note_on_c, 0, 76, 0
2, 35808, Note_on_c, 0, 75, 75
2, 35856, Note_on_c, 0, 75, 0
2, 35856, Note_on_c, 0, 78, 75
2, 35901, Note_on_c, 0, 78, 0
2, 35952, Note_on_c, 0, 71, 75
2, 36000, Note_on_c, 0, 71, 0
2, 36000, Note_on_c, 0, 76, 75
2, 36020, Note_on_c, 0, 76, 0
2, 36048, Note_on_c, 0, 76, 76
2, 36096, Note_on_c, 0, 76, 0
2, 36096, Note_on_c, 0, 78, 77
2, 36141, Note_on_c, 0, 78, 0
2, 36144, Note_on_c, 0, 78, 78
2, 36164, Note_on_c, 0, 78, 0
2, 36192, Note_on_c, 0, 81, 80
2, 36237, Note_on_c, 0, 81, 0
2, 36240, Note_on_c, 0, 79, 78
2, 36252, Note_on_c, 0, 79, 0
2, 36252, Note_on_c, 0, 81, 78
2, 36264, Note_on_c, 0, 81, 0
2, 36264, Note_on_c, 0, 79, 78
2, 36276, Note_on_c, 0, 79, 0
2, 36276, Note_on_c, 0, 81, 78
2, 36285, Note_on_c, 0, 81, 0
2, 36288, Note_on_c, 0, 78, 76
2, 36333, Note_on_c, 0, 78, 0
2, 36336, Note_on_c, 0, 78, 75
2, 36381, Note_on_c, 0, 78, 0
2, 36384, Note_on_c, 0, 79, 75
2, 36451, Note_on_c, 0, 79, 0
2, 36456, Note_on_c, 0, 81, 76
2, 36479, Note_on_c, 0, 81, 0
2, 36480, Note_on_c, 0, 83, 77
2, 36525, Note_on_c, 0, 83, 0
2, 36528, Note_on_c, 0, 83, 78
2, 36548, Note_on_c, 0, 83, 0
2, 36576, Note_on_c, 0, 81, 79
2, 36624, Note_on_c, 0, 81, 0
2, 36624, Note_on_c, 0, 84, 127
2, 36720, Note_on_c, 0, 84, 0
2, 36720, Note_on_c, 0, 81, 80
2, 36768, Note_on_c, 0, 81, 0
2, 36768, Note_on_c, 0, 78, 80
2, 36813, Note_on_c, 0, 78, 0
2, 36816, Note_on_c, 0, 78, 80
2, 36836, Note_on_c, 0, 78, 0
2, 36864, Note_on_c, 0, 79, 80
2, 36887, Note_on_c, 0, 79, 0
2, 36888, Note_on_c, 0, 78, 80
2, 36911, Note_on_c, 0, 78, 0
2, 36912, Note_on_c, 0, 76, 80
2, 36935, Note_on_c, 0, 76, 0
2, 36936, Note_on_c, 0, 74, 80
2, 36959, Note_on_c, 0, 74, 0
2, 36960, Note_on_c, 0, 79, 80
2, 37049, Note_on_c, 0, 79, 0
2, 37104, Note_on_c, 0, 83, 80
2, 37149, Note_on_c, 0, 83, 0
2, 37152, Note_on_c, 0, 83, 80
2, 37219, Note_on_c, 0, 83, 0
2, 37224, Note_on_c, 0, 84, 80
2, 37247, Note_on_c, 0, 84, 0
2, 37248, Note_on_c, 0, 86, 80
2, 37293, Note_on_c, 0, 86, 0
2, 37296, Note_on_c, 0, 86, 80
2, 37316, Note_on_c, 0, 86, 0
2, 37344, Note_on_c, 0, 86, 80
2, 37392, Note_on_c, 0, 86, 0
2, 37392, Note_on_c, 0, 76, 80
2, 37437, Note_on_c, 0, 76, 0
2, 37488, Note_on_c, 0, 76, 80
2, 37533, Note_on_c, 0, 76, 0
2, 37536, Note_on_c, 0, 81, 80
2, 37603, Note_on_c, 0, 81, 0
2, 37608, Note_on_c, 0, 83, 80
2, 37631, Note_on_c, 0, 83, 0
2, 37632, Note_on_c, 0, 84, 80
2, 37677, Note_on_c, 0, 84, 0
2, 37680, Note_on_c, 0, 84, 80
2, 37700, Note_on_c, 0, 84, 0
2, 37728, Note_on_c, 0, 84, 80
2, 37776, Note_on_c, 0, 84, 0
2, 37776, Note_on_c, 0, 75, 80
2, 37821, Note_on_c, 0, 75, 0
2, 37872, Note_on_c, 0, 71, 75
2, 37920, Note_on_c, 0, 71, 0
2, 37920, Note_on_c, 0, 76, 75
2, 37965, Note_on_c, 0, 76, 0
2, 37968, Note_on_c, 0, 76, 75
2, 38016, Note_on_c, 0, 76, 0
2, 38016, Note_on_c, 0, 78, 75
2, 38036, Note_on_c, 0, 78, 0
2, 38064, Note_on_c, 0, 78, 75
2, 38109, Note_on_c, 0, 78, 0
2, 38112, Note_on_c, 0, 81, 75
2, 38157, Note_on_c, 0, 81, 0
2, 38160, Note_on_c, 0, 79, 75
2, 38172, Note_on_c, 0, 79, 0
2, 38172, Note_on_c, 0, 81, 75
2, 38184, Note_on_c, 0, 81, 0
2, 38184, Note_on_c, 0, 79, 75
2, 38196, Note_on_c, 0, 79, 0
2, 38196, Note_on_c, 0, 81, 75
2, 38205, Note_on_c, 0, 81, 0
2, 38208, Note_on_c, 0, 78, 75
2, 38253, Note_on_c, 0, 78, 0
2, 38256, Note_on_c, 0, 83, 75
2, 38304, Note_on_c, 0, 83, 0
2, 38304, Note_on_c, 0, 76, 75
2, 38324, Note_on_c, 0, 76, 0
2, 38352, Note_on_c, 0, 76, 75
2, 38400, Note_on_c, 0, 76, 0
2, 38400, Note_on_c, 0, 84, 75
2, 38420, Note_on_c, 0, 84, 0
2, 38448, Note_on_c, 0, 84, 75
2, 38496, Note_on_c, 0, 84, 0
2, 38496, Note_on_c, 0, 75, 75
2, 38592, Note_on_c, 0, 75, 0
2, 38592, Note_on_c, 0, 76, 75
2, 38637, Note_on_c, 0, 76, 0
2, 38640, Note_on_c, 0, 76, 75
2, 38688, Note_on_c, 0, 76, 0
2, 38688, Note_on_c, 0, 78, 75
2, 38733, Note_on_c, 0, 78, 0
2, 38736, Note_on_c, 0, 78, 75
2, 38756, Note_on_c, 0, 78, 0
2, 38784, Note_on_c, 0, 76, 75
2, 38807, Note_on_c, 0, 76, 0
2, 38808, Note_on_c, 0, 75, 75
2, 38831, Note_on_c, 0, 75, 0
2, 38832, Note_on_c, 0, 73, 75
2, 38855, Note_on_c, 0, 73, 0
2, 38856, Note_on_c, 0, 71, 75
2, 38879, Note_on_c, 0, 71, 0
2, 38880, Note_on_c, 0, 76, 75
2, 38969, Note_on_c, 0, 76, 0
2, 39024, Note_on_c, 0, 83, 80
2, 39069, Note_on_c, 0, 83, 0
2, 39072, Note_on_c, 0, 83, 80
2, 39095, Note_on_c, 0, 83, 0
2, 39096, Note_on_c, 0, 86, 80
2, 39119, Note_on_c, 0, 86, 0
2, 39120, Note_on_c, 0, 84, 80
2, 39143, Note_on_c, 0, 84, 0
2, 39144, Note_on_c, 0, 88, 80
2, 39167, Note_on_c, 0, 88, 0
2, 39168, Note_on_c, 0, 86, 80
2, 39213, Note_on_c, 0, 86, 0
2, 39216, Note_on_c, 0, 86, 80
2, 39261, Note_on_c, 0, 86, 0
2, 39264, Note_on_c, 0, 86, 80
2, 39287, Note_on_c, 0, 86, 0
2, 39288, Note_on_c, 0, 76, 80
2, 39311, Note_on_c, 0, 76, 0
2, 39312, Note_on_c, 0, 75, 80
2, 39335, Note_on_c, 0, 75, 0
2, 39336, Note_on_c, 0, 76, 80
2, 39359, Note_on_c, 0, 76, 0
2, 39360, Note_on_c, 0, 75, 80
2, 39383, Note_on_c, 0, 75, 0
2, 39384, Note_on_c, 0, 76, 80
2, 39407, Note_on_c, 0, 76, 0
2, 39408, Note_on_c, 0, 75, 80
2, 39431, Note_on_c, 0, 75, 0
2, 39432, Note_on_c, 0, 76, 80
2, 39455, Note_on_c, 0, 76, 0
2, 39456, Note_on_c, 0, 83, 80
2, 39468, Note_on_c, 0, 83, 0
2, 39468, Note_on_c, 0, 81, 80
2, 39480, Note_on_c, 0, 81, 0
2, 39480, Note_on_c, 0, 79, 80
2, 39492, Note_on_c, 0, 79, 0
2, 39492, Note_on_c, 0, 81, 80
2, 39523, Note_on_c, 0, 81, 0
2, 39528, Note_on_c, 0, 83, 80
2, 39551, Note_on_c, 0, 83, 0
2, 39552, Note_on_c, 0, 84, 80
2, 39597, Note_on_c, 0, 84, 0
2, 39600, Note_on_c, 0, 84, 80
2, 39645, Note_on_c, 0, 84, 0
2, 39648, Note_on_c, 0, 84, 80
2, 39744, Note_on_c, 0, 84, 0
2, 39744, Note_on_c, 0, 74, 80
2, 39789, Note_on_c, 0, 74, 0
2, 39792, Note_on_c, 0, 74, 75
2, 39812, Note_on_c, 0, 74, 0
2, 39840, Note_on_c, 0, 79, 75
2, 39863, Note_on_c, 0, 79, 0
2, 39864, Note_on_c, 0, 78, 75
2, 39887, Note_on_c, 0, 78, 0
2, 39888, Note_on_c, 0, 81, 75
2, 39911, Note_on_c, 0, 81, 0
2, 39912, Note_on_c, 0, 79, 75
2, 39935, Note_on_c, 0, 79, 0
2, 39936, Note_on_c, 0, 83, 75
2, 39981, Note_on_c, 0, 83, 0
2, 39984, Note_on_c, 0, 83, 75
2, 40029, Note_on_c, 0, 83, 0
2, 40032, Note_on_c, 0, 83, 75
2, 40055, Note_on_c, 0, 83, 0
2, 40056, Note_on_c, 0, 72, 75
2, 40079, Note_on_c, 0, 72, 0
2, 40080, Note_on_c, 0, 71, 75
2, 40103, Note_on_c, 0, 71, 0
2, 40104, Note_on_c, 0, 72, 75
2, 40127, Note_on_c, 0, 72, 0
2, 40128, Note_on_c, 0, 74, 75
2, 40151, Note_on_c, 0, 74, 0
2, 40152, Note_on_c, 0, 72, 75
2, 40175, Note_on_c, 0, 72, 0
2, 40176, Note_on_c, 0, 71, 75
2, 40199, Note_on_c, 0, 71, 0
2, 40200, Note_on_c, 0, 72, 75
2, 40223, Note_on_c, 0, 72, 0
2, 40224, Note_on_c, 0, 78, 75
2, 40291, Note_on_c, 0, 78, 0
2, 40296, Note_on_c, 0, 79, 75
2, 40319, Note_on_c, 0, 79, 0
2, 40320, Note_on_c, 0, 81, 75
2, 40365, Note_on_c, 0, 81, 0
2, 40368, Note_on_c, 0, 81, 75
2, 40413, Note_on_c, 0, 81, 0
2, 40416, Note_on_c, 0, 81, 75
2, 40461, Note_on_c, 0, 81, 0
2, 40464, Note_on_c, 0, 71, 75
2, 40509, Note_on_c, 0, 71, 0
2, 40512, Note_on_c, 0, 79, 75
2, 40557, Note_on_c, 0, 79, 0
2, 40560, Note_on_c, 0, 74, 75
2, 40605, Note_on_c, 0, 74, 0
2, 40608, Note_on_c, 0, 76, 75
2, 40653, Note_on_c, 0, 76, 0
2, 40656, Note_on_c, 0, 69, 75
2, 40701, Note_on_c, 0, 69, 0
2, 40704, Note_on_c, 0, 72, 75
2, 40749, Note_on_c, 0, 72, 0
2, 40752, Note_on_c, 0, 66, 75
2, 40797, Note_on_c, 0, 66, 0
2, 40800, Note_on_c, 0, 69, 75
2, 40896, Note_on_c, 0, 69, 0
2, 40896, Note_on_c, 0, 67, 75
2, 40941, Note_on_c, 0, 67, 0
2, 40944, Note_on_c, 0, 67, 75
2, 40989, Note_on_c, 0, 67, 0
2, 40992, Note_on_c, 0, 67, 75
2, 41059, Note_on_c, 0, 67, 0
2, 41064, Note_on_c, 0, 69, 75
2, 41087, Note_on_c, 0, 69, 0
2, 41088, Note_on_c, 0, 71, 75
2, 41133, Note_on_c, 0, 71, 0
2, 41136, Note_on_c, 0, 76, 75
2, 41156, Note_on_c, 0, 76, 0
2, 41184, Note_on_c, 0, 75, 75
2, 41232, Note_on_c, 0, 75, 0
2, 41232, Note_on_c, 0, 78, 75
2, 41277, Note_on_c, 0, 78, 0
2, 41328, Note_on_c, 0, 71, 75
2, 41373, Note_on_c, 0, 71, 0
2, 41424, Note_on_c, 0, 76, 75
2, 41469, Note_on_c, 0, 76, 0
2, 41520, Note_on_c, 0, 78, 75
2, 41540, Note_on_c, 0, 78, 0
2, 41568, Note_on_c, 0, 81, 75
2, 41613, Note_on_c, 0, 81, 0
2, 41616, Note_on_c, 0, 79, 75
2, 41628, Note_on_c, 0, 79, 0
2, 41628, Note_on_c, 0, 81, 75
2, 41640, Note_on_c, 0, 81, 0
2, 41640, Note_on_c, 0, 79, 75
2, 41652, Note_on_c, 0, 79, 0
2, 41652, Note_on_c, 0, 81, 75
2, 41661, Note_on_c, 0, 81, 0
2, 41664, Note_on_c, 0, 78, 75
2, 41709, Note_on_c, 0, 78, 0
2, 41712, Note_on_c, 0, 83, 75
2, 41760, Note_on_c, 0, 83, 0
2, 41760, Note_on_c, 0, 76, 75
2, 41780, Note_on_c, 0, 76, 0
2, 41808, Note_on_c, 0, 76, 75
2, 41856, Note_on_c, 0, 76, 0
2, 41856, Note_on_c, 0, 84, 75
2, 41876, Note_on_c, 0, 84, 0
2, 41904, Note_on_c, 0, 84, 75
2, 41952, Note_on_c, 0, 84, 0
2, 41952, Note_on_c, 0, 75, 75
2, 42048, Note_on_c, 0, 75, 0
2, 42048, Note_on_c, 0, 76, 75
2, 42093, Note_on_c, 0, 76, 0
2, 42096, Note_on_c, 0, 76, 75
2, 42144, Note_on_c, 0, 76, 0
2, 42144, Note_on_c, 0, 78, 75
2, 42189, Note_on_c, 0, 78, 0
2, 42192, Note_on_c, 0, 78, 75
2, 42212, Note_on_c, 0, 78, 0
2, 42240, Note_on_c, 0, 76, 75
2, 42263, Note_on_c, 0, 76, 0
2, 42264, Note_on_c, 0, 75, 75
2, 42287, Note_on_c, 0, 75, 0
2, 42288, Note_on_c, 0, 73, 75
2, 42311, Note_on_c, 0, 73, 0
2, 42312, Note_on_c, 0, 71, 75
2, 42335, Note_on_c, 0, 71, 0
2, 42336, Note_on_c, 0, 76, 75
2, 42425, Note_on_c, 0, 76, 0
2, 42480, Note_on_c, 0, 80, 75
2, 42525, Note_on_c, 0, 80, 0
2, 42528, Note_on_c, 0, 80, 75
2, 42595, Note_on_c, 0, 80, 0
2, 42600, Note_on_c, 0, 81, 75
2, 42623, Note_on_c, 0, 81, 0
2, 42624, Note_on_c, 0, 83, 75
2, 42669, Note_on_c, 0, 83, 0
2, 42672, Note_on_c, 0, 76, 75
2, 42692, Note_on_c, 0, 76, 0
2, 42720, Note_on_c, 0, 75, 75
2, 42768, Note_on_c, 0, 75, 0
2, 42768, Note_on_c, 0, 78, 75
2, 42813, Note_on_c, 0, 78, 0
2, 42864, Note_on_c, 0, 71, 75
2, 42909, Note_on_c, 0, 71, 0
2, 42912, Note_on_c, 0, 75, 75
2, 42935, Note_on_c, 0, 75, 0
2, 42936, Note_on_c, 0, 76, 75
2, 42959, Note_on_c, 0, 76, 0
2, 42960, Note_on_c, 0, 75, 76
2, 42983, Note_on_c, 0, 75, 0
2, 42984, Note_on_c, 0, 76, 76
2, 43007, Note_on_c, 0, 76, 0
2, 43008, Note_on_c, 0, 77, 77
2, 43031, Note_on_c, 0, 77, 0
2, 43032, Note_on_c, 0, 78, 78
2, 43055, Note_on_c, 0, 78, 0
2, 43056, Note_on_c, 0, 77, 78
2, 43079, Note_on_c, 0, 77, 0
2, 43080, Note_on_c, 0, 78, 79
2, 43103, Note_on_c, 0, 78, 0
2, 43104, Note_on_c, 0, 81, 80
2, 43149, Note_on_c, 0, 81, 0
2, 43152, Note_on_c, 0, 80, 78
2, 43164, Note_on_c, 0, 80, 0
2, 43164, Note_on_c, 0, 81, 78
2, 43176, Note_on_c, 0, 81, 0
2, 43176, Note_on_c, 0, 80, 78
2, 43188, Note_on_c, 0, 80, 0
2, 43188, Note_on_c, 0, 81, 78
2, 43197, Note_on_c, 0, 81, 0
2, 43200, Note_on_c, 0, 78, 76
2, 43245, Note_on_c, 0, 78, 0
2, 43248, Note_on_c, 0, 78, 75
2, 43293, Note_on_c, 0, 78, 0
2, 43296, Note_on_c, 0, 79, 75
2, 43319, Note_on_c, 0, 79, 0
2, 43320, Note_on_c, 0, 80, 75
2, 43343, Note_on_c, 0, 80, 0
2, 43344, Note_on_c, 0, 79, 76
2, 43367, Note_on_c, 0, 79, 0
2, 43368, Note_on_c, 0, 80, 76
2, 43391, Note_on_c, 0, 80, 0
2, 43392, Note_on_c, 0, 82, 77
2, 43437, Note_on_c, 0, 82, 0
2, 43440, Note_on_c, 0, 82, 78
2, 43485, Note_on_c, 0, 82, 0
2, 43488, Note_on_c, 0, 83, 80
2, 43621, Note_on_c, 0, 83, 0
2, 43632, Note_on_c, 0, 78, 80
2, 43677, Note_on_c, 0, 78, 0
2, 43680, Note_on_c, 0, 78, 80
2, 43703, Note_on_c, 0, 78, 0
2, 43704, Note_on_c, 0, 76, 79
2, 43727, Note_on_c, 0, 76, 0
2, 43728, Note_on_c, 0, 80, 78
2, 43751, Note_on_c, 0, 80, 0
2, 43752, Note_on_c, 0, 76, 78
2, 43775, Note_on_c, 0, 76, 0
2, 43776, Note_on_c, 0, 75, 77
2, 43799, Note_on_c, 0, 75, 0
2, 43800, Note_on_c, 0, 73, 76
2, 43823, Note_on_c, 0, 73, 0
2, 43824, Note_on_c, 0, 71, 76
2, 43847, Note_on_c, 0, 71, 0
2, 43848, Note_on_c, 0, 70, 75
2, 43871, Note_on_c, 0, 70, 0
2, 43872, Note_on_c, 0, 71, 75
2, 43961, Note_on_c, 0, 71, 0
2, 44016, Note_on_c, 0, 80, 75
2, 44061, Note_on_c, 0, 80, 0
2, 44064, Note_on_c, 0, 80, 75
2, 44131, Note_on_c, 0, 80, 0
2, 44136, Note_on_c, 0, 81, 75
2, 44159, Note_on_c, 0, 81, 0
2, 44160, Note_on_c, 0, 83, 75
2, 44205, Note_on_c, 0, 83, 0
2, 44208, Note_on_c, 0, 76, 75
2, 44228, Note_on_c, 0, 76, 0
2, 44256, Note_on_c, 0, 75, 75
2, 44304, Note_on_c, 0, 75, 0
2, 44304, Note_on_c, 0, 78, 75
2, 44349, Note_on_c, 0, 78, 0
2, 44400, Note_on_c, 0, 71, 75
2, 44445, Note_on_c, 0, 71, 0
2, 44448, Note_on_c, 0, 75, 75
2, 44471, Note_on_c, 0, 75, 0
2, 44472, Note_on_c, 0, 76, 75
2, 44495, Note_on_c, 0, 76, 0
2, 44496, Note_on_c, 0, 75, 76
2, 44519, Note_on_c, 0, 75, 0
2, 44520, Note_on_c, 0, 76, 76
2, 44543, Note_on_c, 0, 76, 0
2, 44544, Note_on_c, 0, 77, 77
2, 44567, Note_on_c, 0, 77, 0
2, 44568, Note_on_c, 0, 78, 78
2, 44591, Note_on_c, 0, 78, 0
2, 44592, Note_on_c, 0, 77, 78
2, 44615, Note_on_c, 0, 77, 0
2, 44616, Note_on_c, 0, 78, 79
2, 44639, Note_on_c, 0, 78, 0
2, 44640, Note_on_c, 0, 81, 80
2, 44685, Note_on_c, 0, 81, 0
2, 44688, Note_on_c, 0, 80, 78
2, 44700, Note_on_c, 0, 80, 0
2, 44700, Note_on_c, 0, 81, 78
2, 44712, Note_on_c, 0, 81, 0
2, 44712, Note_on_c, 0, 80, 78
2, 44724, Note_on_c, 0, 80, 0
2, 44724, Note_on_c, 0, 81, 78
2, 44733, Note_on_c, 0, 81, 0
2, 44736, Note_on_c, 0, 78, 76
2, 44781, Note_on_c, 0, 78, 0
2, 44784, Note_on_c, 0, 78, 75
2, 44829, Note_on_c, 0, 78, 0
2, 44832, Note_on_c, 0, 79, 75
2, 44855, Note_on_c, 0, 79, 0
2, 44856, Note_on_c, 0, 80, 75
2, 44879, Note_on_c, 0, 80, 0
2, 44880, Note_on_c, 0, 79, 76
2, 44903, Note_on_c, 0, 79, 0
2, 44904, Note_on_c, 0, 80, 76
2, 44927, Note_on_c, 0, 80, 0
2, 44928, Note_on_c, 0, 82, 77
2, 44973, Note_on_c, 0, 82, 0
2, 44976, Note_on_c, 0, 82, 78
2, 45021, Note_on_c, 0, 82, 0
2, 45024, Note_on_c, 0, 83, 80
2, 45157, Note_on_c, 0, 83, 0
2, 45168, Note_on_c, 0, 78, 80
2, 45213, Note_on_c, 0, 78, 0
2, 45216, Note_on_c, 0, 78, 80
2, 45239, Note_on_c, 0, 78, 0
2, 45240, Note_on_c, 0, 76, 79
2, 45263, Note_on_c, 0, 76, 0
2, 45264, Note_on_c, 0, 80, 78
2, 45287, Note_on_c, 0, 80, 0
2, 45288, Note_on_c, 0, 76, 78
2, 45311, Note_on_c, 0, 76, 0
2, 45312, Note_on_c, 0, 75, 77
2, 45335, Note_on_c, 0, 75, 0
2, 45336, Note_on_c, 0, 73, 76
2, 45359, Note_on_c, 0, 73, 0
2, 45360, Note_on_c, 0, 71, 76
2, 45383, Note_on_c, 0, 71, 0
2, 45384, Note_on_c, 0, 70, 75
2, 45407, Note_on_c, 0, 70, 0
2, 45408, Note_on_c, 0, 71, 75
2, 45497, Note_on_c, 0, 71, 0
2, 45552, Note_on_c, 0, 78, 75
2, 45597, Note_on_c, 0, 78, 0
2, 45600, Note_on_c, 0, 77, 75
2, 45623, Note_on_c, 0, 77, 0
2, 45624, Note_on_c, 0, 78, 75
2, 45647, Note_on_c, 0, 78, 0
2, 45648, Note_on_c, 0, 77, 75
2, 45671, Note_on_c, 0, 77, 0
2, 45672, Note_on_c, 0, 78, 75
2, 45695, Note_on_c, 0, 78, 0
2, 45696, Note_on_c, 0, 81, 75
2, 45716, Note_on_c, 0, 81, 0
2, 45744, Note_on_c, 0, 75, 75
2, 45764, Note_on_c, 0, 75, 0
2, 45792, Note_on_c, 0, 76, 75
2, 45859, Note_on_c, 0, 76, 0
2, 45864, Note_on_c, 0, 80, 75
2, 45887, Note_on_c, 0, 80, 0
2, 45888, Note_on_c, 0, 83, 75
2, 45933, Note_on_c, 0, 83, 0
2, 45936, Note_on_c, 0, 83, 75
2, 45956, Note_on_c, 0, 83, 0
2, 45984, Note_on_c, 0, 77, 75
2, 46007, Note_on_c, 0, 77, 0
2, 46008, Note_on_c, 0, 78, 75
2, 46031, Note_on_c, 0, 78, 0
2, 46032, Note_on_c, 0, 77, 75
2, 46055, Note_on_c, 0, 77, 0
2, 46056, Note_on_c, 0, 78, 75
2, 46079, Note_on_c, 0, 78, 0
2, 46080, Note_on_c, 0, 81, 75
2, 46100, Note_on_c, 0, 81, 0
2, 46128, Note_on_c, 0, 75, 75
2, 46148, Note_on_c, 0, 75, 0
2, 46176, Note_on_c, 0, 76, 75
2, 46243, Note_on_c, 0, 76, 0
2, 46248, Note_on_c, 0, 80, 75
2, 46271, Note_on_c, 0, 80, 0
2, 46272, Note_on_c, 0, 83, 75
2, 46292, Note_on_c, 0, 83, 0
2, 46320, Note_on_c, 0, 83, 75
2, 46368, Note_on_c, 0, 83, 0
2, 46368, Note_on_c, 0, 81, 75
2, 46388, Note_on_c, 0, 81, 0
2, 46416, Note_on_c, 0, 81, 75
2, 46464, Note_on_c, 0, 81, 0
2, 46464, Note_on_c, 0, 80, 75
2, 46484, Note_on_c, 0, 80, 0
2, 46512, Note_on_c, 0, 80, 75
2, 46560, Note_on_c, 0, 80, 0
2, 46560, Note_on_c, 0, 78, 75
2, 46583, Note_on_c, 0, 78, 0
2, 46584, Note_on_c, 0, 83, 75
2, 46607, Note_on_c, 0, 83, 0
2, 46608, Note_on_c, 0, 82, 75
2, 46631, Note_on_c, 0, 82, 0
2, 46632, Note_on_c, 0, 80, 75
2, 46655, Note_on_c, 0, 80, 0
2, 46656, Note_on_c, 0, 78, 75
2, 46679, Note_on_c, 0, 78, 0
2, 46680, Note_on_c, 0, 76, 75
2, 46703, Note_on_c, 0, 76, 0
2, 46704, Note_on_c, 0, 75, 75
2, 46727, Note_on_c, 0, 75, 0
2, 46728, Note_on_c, 0, 73, 75
2, 46751, Note_on_c, 0, 73, 0
2, 46752, Note_on_c, 0, 71, 75
2, 46775, Note_on_c, 0, 71, 0
2, 46776, Note_on_c, 0, 71, 75
2, 46799, Note_on_c, 0, 71, 0
2, 46800, Note_on_c, 0, 70, 75
2, 46823, Note_on_c, 0, 70, 0
2, 46824, Note_on_c, 0, 68, 75
2, 46847, Note_on_c, 0, 68, 0
2, 46848, Note_on_c, 0, 66, 75
2, 46871, Note_on_c, 0, 66, 0
2, 46872, Note_on_c, 0, 64, 75
2, 46895, Note_on_c, 0, 64, 0
2, 46896, Note_on_c, 0, 63, 75
2, 46919, Note_on_c, 0, 63, 0
2, 46920, Note_on_c, 0, 61, 75
2, 46943, Note_on_c, 0, 61, 0
2, 46944, Note_on_c, 0, 59, 75
2, 47077, Note_on_c, 0, 59, 0
2, 47088, Note_on_c, 0, 80, 75
2, 47133, Note_on_c, 0, 80, 0
2, 47136, Note_on_c, 0, 80, 75
2, 47203, Note_on_c, 0, 80, 0
2, 47208, Note_on_c, 0, 81, 75
2, 47231, Note_on_c, 0, 81, 0
2, 47232, Note_on_c, 0, 83, 75
2, 47277, Note_on_c, 0, 83, 0
2, 47280, Note_on_c, 0, 76, 75
2, 47300, Note_on_c, 0, 76, 0
2, 47328, Note_on_c, 0, 75, 75
2, 47376, Note_on_c, 0, 75, 0
2, 47376, Note_on_c, 0, 78, 75
2, 47421, Note_on_c, 0, 78, 0
2, 47472, Note_on_c, 0, 71, 75
2, 47517, Note_on_c, 0, 71, 0
2, 47520, Note_on_c, 0, 75, 75
2, 47543, Note_on_c, 0, 75, 0
2, 47544, Note_on_c, 0, 76, 75
2, 47567, Note_on_c, 0, 76, 0
2, 47568, Note_on_c, 0, 75, 76
2, 47591, Note_on_c, 0, 75, 0
2, 47592, Note_on_c, 0, 76, 76
2, 47615, Note_on_c, 0, 76, 0
2, 47616, Note_on_c, 0, 77, 77
2, 47639, Note_on_c, 0, 77, 0
2, 47640, Note_on_c, 0, 78, 78
2, 47663, Note_on_c, 0, 78, 0
2, 47664, Note_on_c, 0, 77, 78
2, 47687, Note_on_c, 0, 77, 0
2, 47688, Note_on_c, 0, 78, 79
2, 47711, Note_on_c, 0, 78, 0
2, 47712, Note_on_c, 0, 81, 80
2, 47757, Note_on_c, 0, 81, 0
2, 47760, Note_on_c, 0, 80, 78
2, 47772, Note_on_c, 0, 80, 0
2, 47772, Note_on_c, 0, 81, 78
2, 47784, Note_on_c, 0, 81, 0
2, 47784, Note_on_c, 0, 80, 78
2, 47796, Note_on_c, 0, 80, 0
2, 47796, Note_on_c, 0, 81, 78
2, 47805, Note_on_c, 0, 81, 0
2, 47808, Note_on_c, 0, 78, 76
2, 47853, Note_on_c, 0, 78, 0
2, 47856, Note_on_c, 0, 78, 75
2, 47904, Note_on_c, 0, 78, 0
2, 47904, Note_on_c, 0, 80, 76
2, 47924, Note_on_c, 0, 80, 0
2, 47952, Note_on_c, 0, 80, 77
2, 48000, Note_on_c, 0, 80, 0
2, 48000, Note_on_c, 0, 81, 78
2, 48020, Note_on_c, 0, 81, 0
2, 48048, Note_on_c, 0, 81, 79
2, 48096, Note_on_c, 0, 81, 0
2, 48096, Note_on_c, 0, 83, 80
2, 48185, Note_on_c, 0, 83, 0
2, 48192, Note_on_c, 0, 85, 80
2, 48215, Note_on_c, 0, 85, 0
2, 48216, Note_on_c, 0, 83, 80
2, 48239, Note_on_c, 0, 83, 0
2, 48240, Note_on_c, 0, 81, 80
2, 48263, Note_on_c, 0, 81, 0
2, 48264, Note_on_c, 0, 80, 80
2, 48287, Note_on_c, 0, 80, 0
2, 48288, Note_on_c, 0, 78, 80
2, 48333, Note_on_c, 0, 78, 0
2, 48336, Note_on_c, 0, 78, 80
2, 48381, Note_on_c, 0, 78, 0
2, 48384, Note_on_c, 0, 76, 78
2, 48407, Note_on_c, 0, 76, 0
2, 48408, Note_on_c, 0, 75, 77
2, 48431, Note_on_c, 0, 75, 0
2, 48432, Note_on_c, 0, 73, 76
2, 48455, Note_on_c, 0, 73, 0
2, 48456, Note_on_c, 0, 71, 75
2, 48479, Note_on_c, 0, 71, 0
2, 48480, Note_on_c, 0, 76, 75
2, 48569, Note_on_c, 0, 76, 0
2, 48624, Note_on_c, 0, 78, 75
2, 48669, Note_on_c, 0, 78, 0
2, 48672, Note_on_c, 0, 77, 75
2, 48695, Note_on_c, 0, 77, 0
2, 48696, Note_on_c, 0, 78, 75
2, 48719, Note_on_c, 0, 78, 0
2, 48720, Note_on_c, 0, 77, 75
2, 48743, Note_on_c, 0, 77, 0
2, 48744, Note_on_c, 0, 78, 75
2, 48767, Note_on_c, 0, 78, 0
2, 48768, Note_on_c, 0, 81, 75
2, 48788, Note_on_c, 0, 81, 0
2, 48816, Note_on_c, 0, 75, 75
2, 48836, Note_on_c, 0, 75, 0
2, 48864, Note_on_c, 0, 76, 75
2, 48931, Note_on_c, 0, 76, 0
2, 48936, Note_on_c, 0, 80, 75
2, 48959, Note_on_c, 0, 80, 0
2, 48960, Note_on_c, 0, 83, 75
2, 49005, Note_on_c, 0, 83, 0
2, 49008, Note_on_c, 0, 83, 75
2, 49028, Note_on_c, 0, 83, 0
2, 49056, Note_on_c, 0, 77, 75
2, 49079, Note_on_c, 0, 77, 0
2, 49080, Note_on_c, 0, 78, 75
2, 49103, Note_on_c, 0, 78, 0
2, 49104, Note_on_c, 0, 77, 75
2, 49127, Note_on_c, 0, 77, 0
2, 49128, Note_on_c, 0, 78, 75
2, 49151, Note_on_c, 0, 78, 0
2, 49152, Note_on_c, 0, 81, 75
2, 49172, Note_on_c, 0, 81, 0
2, 49200, Note_on_c, 0, 75, 75
2, 49220, Note_on_c, 0, 75, 0
2, 49248, Note_on_c, 0, 76, 75
2, 49315, Note_on_c, 0, 76, 0
2, 49320, Note_on_c, 0, 80, 75
2, 49343, Note_on_c, 0, 80, 0
2, 49344, Note_on_c, 0, 83, 75
2, 49364, Note_on_c, 0, 83, 0
2, 49392, Note_on_c, 0, 83, 75
2, 49440, Note_on_c, 0, 83, 0
2, 49440, Note_on_c, 0, 81, 75
2, 49460, Note_on_c, 0, 81, 0
2, 49488, Note_on_c, 0, 81, 75
2, 49536, Note_on_c, 0, 81, 0
2, 49536, Note_on_c, 0, 80, 75
2, 49556, Note_on_c, 0, 80, 0
2, 49584, Note_on_c, 0, 80, 75
2, 49632, Note_on_c, 0, 80, 0
2, 49632, Note_on_c, 0, 78, 75
2, 49655, Note_on_c, 0, 78, 0
2, 49656, Note_on_c, 0, 83, 75
2, 49679, Note_on_c, 0, 83, 0
2, 49680, Note_on_c, 0, 82, 75
2, 49703, Note_on_c, 0, 82, 0
2, 49704, Note_on_c, 0, 80, 75
2, 49727, Note_on_c, 0, 80, 0
2, 49728, Note_on_c, 0, 78, 75
2, 49751, Note_on_c, 0, 78, 0
2, 49752, Note_on_c, 0, 76, 75
2, 49775, Note_on_c, 0, 76, 0
2, 49776, Note_on_c, 0, 75, 75
2, 49799, Note_on_c, 0, 75, 0
2, 49800, Note_on_c, 0, 73, 75
2, 49823, Note_on_c, 0, 73, 0
2, 49824, Note_on_c, 0, 71, 75
2, 49847, Note_on_c, 0, 71, 0
2, 49848, Note_on_c, 0, 71, 75
2, 49871, Note_on_c, 0, 71, 0
2, 49872, Note_on_c, 0, 70, 75
2, 49895, Note_on_c, 0, 70, 0
2, 49896, Note_on_c, 0, 68, 75
2, 49919, Note_on_c, 0, 68, 0
2, 49920, Note_on_c, 0, 66, 75
2, 49943, Note_on_c, 0, 66, 0
2, 49944, Note_on_c, 0, 64, 75
2, 49967, Note_on_c, 0, 64, 0
2, 49968, Note_on_c, 0, 63, 75
2, 49991, Note_on_c, 0, 63, 0
2, 49992, Note_on_c, 0, 61, 75
2, 50015, Note_on_c, 0, 61, 0
2, 50016, Note_on_c, 0, 59, 75
2, 50149, Note_on_c, 0, 59, 0
2, 50160, Note_on_c, 0, 80, 75
2, 50205, Note_on_c, 0, 80, 0
2, 50208, Note_on_c, 0, 80, 75
2, 50275, Note_on_c, 0, 80, 0
2, 50280, Note_on_c, 0, 81, 75
2, 50303, Note_on_c, 0, 81, 0
2, 50304, Note_on_c, 0, 83, 75
2, 50349, Note_on_c, 0, 83, 0
2, 50352, Note_on_c, 0, 76, 75
2, 50372, Note_on_c, 0, 76, 0
2, 50400, Note_on_c, 0, 75, 75
2, 50448, Note_on_c, 0, 75, 0
2, 50448, Note_on_c, 0, 78, 75
2, 50493, Note_on_c, 0, 78, 0
2, 50544, Note_on_c, 0, 71, 75
2, 50589, Note_on_c, 0, 71, 0
2, 50592, Note_on_c, 0, 75, 75
2, 50615, Note_on_c, 0, 75, 0
2, 50616, Note_on_c, 0, 76, 75
2, 50639, Note_on_c, 0, 76, 0
2, 50640, Note_on_c, 0, 75, 76
2, 50663, Note_on_c, 0, 75, 0
2, 50664, Note_on_c, 0, 76, 76
2, 50687, Note_on_c, 0, 76, 0
2, 50688, Note_on_c, 0, 77, 77
2, 50711, Note_on_c, 0, 77, 0
2, 50712, Note_on_c, 0, 78, 78
2, 50735, Note_on_c, 0, 78, 0
2, 50736, Note_on_c, 0, 77, 78
2, 50759, Note_on_c, 0, 77, 0
2, 50760, Note_on_c, 0, 78, 79
2, 50783, Note_on_c, 0, 78, 0
2, 50784, Note_on_c, 0, 81, 80
2, 50829, Note_on_c, 0, 81, 0
2, 50832, Note_on_c, 0, 80, 78
2, 50844, Note_on_c, 0, 80, 0
2, 50844, Note_on_c, 0, 81, 78
2, 50856, Note_on_c, 0, 81, 0
2, 50856, Note_on_c, 0, 80, 78
2, 50868, Note_on_c, 0, 80, 0
2, 50868, Note_on_c, 0, 81, 78
2, 50877, Note_on_c, 0, 81, 0
2, 50880, Note_on_c, 0, 78, 76
2, 50925, Note_on_c, 0, 78, 0
2, 50928, Note_on_c, 0, 78, 75
2, 50976, Note_on_c, 0, 78, 0
2, 50976, Note_on_c, 0, 80, 76
2, 50996, Note_on_c, 0, 80, 0
2, 51024, Note_on_c, 0, 80, 77
2, 51072, Note_on_c, 0, 80, 0
2, 51072, Note_on_c, 0, 81, 78
2, 51092, Note_on_c, 0, 81, 0
2, 51120, Note_on_c, 0, 81, 79
2, 51168, Note_on_c, 0, 81, 0
2, 51168, Note_on_c, 0, 83, 80
2, 51257, Note_on_c, 0, 83, 0
2, 51264, Note_on_c, 0, 85, 80
2, 51287, Note_on_c, 0, 85, 0
2, 51288, Note_on_c, 0, 83, 80
2, 51311, Note_on_c, 0, 83, 0
2, 51312, Note_on_c, 0, 81, 80
2, 51335, Note_on_c, 0, 81, 0
2, 51336, Note_on_c, 0, 80, 80
2, 51359, Note_on_c, 0, 80, 0
2, 51360, Note_on_c, 0, 78, 80
2, 51405, Note_on_c, 0, 78, 0
2, 51408, Note_on_c, 0, 78, 80
2, 51453, Note_on_c, 0, 78, 0
2, 51456, Note_on_c, 0, 76, 78
2, 51479, Note_on_c, 0, 76, 0
2, 51480, Note_on_c, 0, 75, 77
2, 51503, Note_on_c, 0, 75, 0
2, 51504, Note_on_c, 0, 73, 76
2, 51527, Note_on_c, 0, 73, 0
2, 51528, Note_on_c, 0, 71, 75
2, 51551, Note_on_c, 0, 71, 0
2, 51552, Note_on_c, 0, 76, 75
2, 51641, Note_on_c, 0, 76, 0
2, 51696, Note_on_c, 0, 67, 75
2, 51741, Note_on_c, 0, 67, 0
2, 51744, Note_on_c, 0, 67, 75
2, 51811, Note_on_c, 0, 67, 0
2, 51816, Note_on_c, 0, 69, 75
2, 51839, Note_on_c, 0, 69, 0
2, 51840, Note_on_c, 0, 71, 75
2, 51885, Note_on_c, 0, 71, 0
2, 51888, Note_on_c, 0, 76, 75
2, 51908, Note_on_c, 0, 76, 0
2, 51936, Note_on_c, 0, 75, 75
2, 51984, Note_on_c, 0, 75, 0
2, 51984, Note_on_c, 0, 78, 75
2, 52029, Note_on_c, 0, 78, 0
2, 52080, Note_on_c, 0, 71, 75
2, 52128, Note_on_c, 0, 71, 0
2, 52128, Note_on_c, 0, 76, 76
2, 52148, Note_on_c, 0, 76, 0
2, 52176, Note_on_c, 0, 76, 77
2, 52224, Note_on_c, 0, 76, 0
2, 52224, Note_on_c, 0, 78, 78
2, 52269, Note_on_c, 0, 78, 0
2, 52272, Note_on_c, 0, 78, 79
2, 52292, Note_on_c, 0, 78, 0
2, 52320, Note_on_c, 0, 81, 80
2, 52365, Note_on_c, 0, 81, 0
2, 52368, Note_on_c, 0, 79, 78
2, 52380, Note_on_c, 0, 79, 0
2, 52380, Note_on_c, 0, 81, 78
2, 52392, Note_on_c, 0, 81, 0
2, 52392, Note_on_c, 0, 79, 78
2, 52404, Note_on_c, 0, 79, 0
2, 52404, Note_on_c, 0, 81, 78
2, 52413, Note_on_c, 0, 81, 0
2, 52416, Note_on_c, 0, 78, 76
2, 52461, Note_on_c, 0, 78, 0
2, 52464, Note_on_c, 0, 78, 75
2, 52509, Note_on_c, 0, 78, 0
2, 52512, Note_on_c, 0, 79, 80
2, 52579, Note_on_c, 0, 79, 0
2, 52584, Note_on_c, 0, 81, 80
2, 52607, Note_on_c, 0, 81, 0
2, 52608, Note_on_c, 0, 83, 80
2, 52653, Note_on_c, 0, 83, 0
2, 52656, Note_on_c, 0, 83, 80
2, 52676, Note_on_c, 0, 83, 0
2, 52704, Note_on_c, 0, 81, 80
2, 52752, Note_on_c, 0, 81, 0
2, 52752, Note_on_c, 0, 84, 80
2, 52797, Note_on_c, 0, 84, 0
2, 52848, Note_on_c, 0, 81, 80
2, 52896, Note_on_c, 0, 81, 0
2, 52896, Note_on_c, 0, 78, 80
2, 52941, Note_on_c, 0, 78, 0
2, 52944, Note_on_c, 0, 78, 80
2, 52964, Note_on_c, 0, 78, 0
2, 52992, Note_on_c, 0, 79, 80
2, 53015, Note_on_c, 0, 79, 0
2, 53016, Note_on_c, 0, 78, 80
2, 53039, Note_on_c, 0, 78, 0
2, 53040, Note_on_c, 0, 76, 80
2, 53063, Note_on_c, 0, 76, 0
2, 53064, Note_on_c, 0, 74, 80
2, 53087, Note_on_c, 0, 74, 0
2, 53088, Note_on_c, 0, 79, 80
2, 53177, Note_on_c, 0, 79, 0
2, 53232, Note_on_c, 0, 67, 75
2, 53277, Note_on_c, 0, 67, 0
2, 53280, Note_on_c, 0, 69, 75
2, 53292, Note_on_c, 0, 69, 0
2, 53292, Note_on_c, 0, 67, 75
2, 53304, Note_on_c, 0, 67, 0
2, 53304, Note_on_c, 0, 66, 75
2, 53316, Note_on_c, 0, 66, 0
2, 53316, Note_on_c, 0, 67, 75
2, 53347, Note_on_c, 0, 67, 0
2, 53352, Note_on_c, 0, 69, 75
2, 53375, Note_on_c, 0, 69, 0
2, 53376, Note_on_c, 0, 71, 75
2, 53421, Note_on_c, 0, 71, 0
2, 53424, Note_on_c, 0, 76, 75
2, 53444, Note_on_c, 0, 76, 0
2, 53472, Note_on_c, 0, 75, 75
2, 53517, Note_on_c, 0, 75, 0
2, 53520, Note_on_c, 0, 83, 127
2, 53616, Note_on_c, 0, 83, 0
2, 53616, Note_on_c, 0, 78, 75
2, 53639, Note_on_c, 0, 78, 0
2, 53640, Note_on_c, 0, 75, 75
2, 53663, Note_on_c, 0, 75, 0
2, 53664, Note_on_c, 0, 83, 127
2, 53712, Note_on_c, 0, 83, 0
2, 53712, Note_on_c, 0, 79, 78
2, 53735, Note_on_c, 0, 79, 0
2, 53736, Note_on_c, 0, 76, 79
2, 53759, Note_on_c, 0, 76, 0
2, 53760, Note_on_c, 0, 84, 80
2, 53805, Note_on_c, 0, 84, 0
2, 53808, Note_on_c, 0, 81, 80
2, 53831, Note_on_c, 0, 81, 0
2, 53832, Note_on_c, 0, 78, 79
2, 53855, Note_on_c, 0, 78, 0
2, 53856, Note_on_c, 0, 81, 78
2, 53901, Note_on_c, 0, 81, 0
2, 53904, Note_on_c, 0, 79, 76
2, 53916, Note_on_c, 0, 79, 0
2, 53916, Note_on_c, 0, 81, 76
2, 53928, Note_on_c, 0, 81, 0
2, 53928, Note_on_c, 0, 79, 76
2, 53940, Note_on_c, 0, 79, 0
2, 53940, Note_on_c, 0, 81, 76
2, 53949, Note_on_c, 0, 81, 0
2, 53952, Note_on_c, 0, 78, 75
2, 53997, Note_on_c, 0, 78, 0
2, 54000, Note_on_c, 0, 78, 75
2, 54045, Note_on_c, 0, 78, 0
2, 54048, Note_on_c, 0, 81, 75
2, 54060, Note_on_c, 0, 81, 0
2, 54060, Note_on_c, 0, 79, 75
2, 54072, Note_on_c, 0, 79, 0
2, 54072, Note_on_c, 0, 78, 75
2, 54084, Note_on_c, 0, 78, 0
2, 54084, Note_on_c, 0, 79, 75
2, 54115, Note_on_c, 0, 79, 0
2, 54120, Note_on_c, 0, 81, 75
2, 54143, Note_on_c, 0, 81, 0
2, 54144, Note_on_c, 0, 83, 75
2, 54189, Note_on_c, 0, 83, 0
2, 54192, Note_on_c, 0, 83, 75
2, 54212, Note_on_c, 0, 83, 0
2, 54240, Note_on_c, 0, 81, 75
2, 54263, Note_on_c, 0, 81, 0
2, 54264, Note_on_c, 0, 84, 75
2, 54287, Note_on_c, 0, 84, 0
2, 54288, Note_on_c, 0, 88, 75
2, 54311, Note_on_c, 0, 88, 0
2, 54312, Note_on_c, 0, 86, 75
2, 54335, Note_on_c, 0, 86, 0
2, 54336, Note_on_c, 0, 84, 75
2, 54359, Note_on_c, 0, 84, 0
2, 54360, Note_on_c, 0, 83, 75
2, 54383, Note_on_c, 0, 83, 0
2, 54384, Note_on_c, 0, 81, 75
2, 54407, Note_on_c, 0, 81, 0
2, 54408, Note_on_c, 0, 79, 75
2, 54431, Note_on_c, 0, 79, 0
2, 54432, Note_on_c, 0, 78, 75
2, 54452, Note_on_c, 0, 78, 0
2, 54480, Note_on_c, 0, 81, 75
2, 54500, Note_on_c, 0, 81, 0
2, 54528, Note_on_c, 0, 84, 75
2, 54573, Note_on_c, 0, 84, 0
2, 54576, Note_on_c, 0, 81, 75
2, 54599, Note_on_c, 0, 81, 0
2, 54600, Note_on_c, 0, 78, 75
2, 54623, Note_on_c, 0, 78, 0
2, 54624, Note_on_c, 0, 79, 75
2, 54713, Note_on_c, 0, 79, 0
2, 54768, Note_on_c, 0, 83, 75
2, 54813, Note_on_c, 0, 83, 0
2, 54816, Note_on_c, 0, 83, 75
2, 54861, Note_on_c, 0, 83, 0
2, 54864, Note_on_c, 0, 84, 75
2, 54909, Note_on_c, 0, 84, 0
2, 54912, Note_on_c, 0, 85, 75
2, 54957, Note_on_c, 0, 85, 0
2, 54960, Note_on_c, 0, 86, 75
2, 55005, Note_on_c, 0, 86, 0
2, 55008, Note_on_c, 0, 86, 75
2, 55056, Note_on_c, 0, 86, 0
2, 55056, Note_on_c, 0, 76, 75
2, 55101, Note_on_c, 0, 76, 0
2, 55104, Note_on_c, 0, 77, 75
2, 55127, Note_on_c, 0, 77, 0
2, 55128, Note_on_c, 0, 78, 76
2, 55151, Note_on_c, 0, 78, 0
2, 55152, Note_on_c, 0, 79, 77
2, 55175, Note_on_c, 0, 79, 0
2, 55176, Note_on_c, 0, 80, 78
2, 55199, Note_on_c, 0, 80, 0
2, 55200, Note_on_c, 0, 83, 80
2, 55212, Note_on_c, 0, 83, 0
2, 55212, Note_on_c, 0, 81, 80
2, 55224, Note_on_c, 0, 81, 0
2, 55224, Note_on_c, 0, 79, 80
2, 55236, Note_on_c, 0, 79, 0
2, 55236, Note_on_c, 0, 81, 80
2, 55267, Note_on_c, 0, 81, 0
2, 55272, Note_on_c, 0, 83, 80
2, 55295, Note_on_c, 0, 83, 0
2, 55296, Note_on_c, 0, 84, 80
2, 55341, Note_on_c, 0, 84, 0
2, 55344, Note_on_c, 0, 84, 80
2, 55389, Note_on_c, 0, 84, 0
2, 55392, Note_on_c, 0, 84, 78
2, 55488, Note_on_c, 0, 84, 0
2, 55488, Note_on_c, 0, 75, 76
2, 55533, Note_on_c, 0, 75, 0
2, 55536, Note_on_c, 0, 71, 75
2, 55584, Note_on_c, 0, 71, 0
2, 55584, Note_on_c, 0, 76, 75
2, 55604, Note_on_c, 0, 76, 0
2, 55632, Note_on_c, 0, 76, 75
2, 55680, Note_on_c, 0, 76, 0
2, 55680, Note_on_c, 0, 78, 75
2, 55700, Note_on_c, 0, 78, 0
2, 55728, Note_on_c, 0, 78, 75
2, 55773, Note_on_c, 0, 78, 0
2, 55776, Note_on_c, 0, 81, 75
2, 55821, Note_on_c, 0, 81, 0
2, 55824, Note_on_c, 0, 79, 75
2, 55836, Note_on_c, 0, 79, 0
2, 55836, Note_on_c, 0, 81, 75
2, 55848, Note_on_c, 0, 81, 0
2, 55848, Note_on_c, 0, 79, 75
2, 55860, Note_on_c, 0, 79, 0
2, 55860, Note_on_c, 0, 81, 75
2, 55869, Note_on_c, 0, 81, 0
2, 55872, Note_on_c, 0, 78, 75
2, 55917, Note_on_c, 0, 78, 0
2, 55920, Note_on_c, 0, 83, 75
2, 55968, Note_on_c, 0, 83, 0
2, 55968, Note_on_c, 0, 76, 75
2, 55988, Note_on_c, 0, 76, 0
2, 56016, Note_on_c, 0, 76, 75
2, 56064, Note_on_c, 0, 76, 0
2, 56064, Note_on_c, 0, 84, 75
2, 56084, Note_on_c, 0, 84, 0
2, 56112, Note_on_c, 0, 84, 75
2, 56160, Note_on_c, 0, 84, 0
2, 56160, Note_on_c, 0, 75, 75
2, 56256, Note_on_c, 0, 75, 0
2, 56256, Note_on_c, 0, 76, 75
2, 56301, Note_on_c, 0, 76, 0
2, 56304, Note_on_c, 0, 76, 75
2, 56352, Note_on_c, 0, 76, 0
2, 56352, Note_on_c, 0, 78, 75
2, 56397, Note_on_c, 0, 78, 0
2, 56400, Note_on_c, 0, 78, 75
2, 56420, Note_on_c, 0, 78, 0
2, 56448, Note_on_c, 0, 76, 75
2, 56471, Note_on_c, 0, 76, 0
2, 56472, Note_on_c, 0, 75, 75
2, 56495, Note_on_c, 0, 75, 0
2, 56496, Note_on_c, 0, 73, 75
2, 56519, Note_on_c, 0, 73, 0
2, 56520, Note_on_c, 0, 71, 75
2, 56543, Note_on_c, 0, 71, 0
2, 56544, Note_on_c, 0, 76, 75
2, 56633, Note_on_c, 0, 76, 0
2, 56688, Note_on_c, 0, 83, 80
2, 56733, Note_on_c, 0, 83, 0
2, 56736, Note_on_c, 0, 83, 80
2, 56759, Note_on_c, 0, 83, 0
2, 56760, Note_on_c, 0, 84, 80
2, 56783, Note_on_c, 0, 84, 0
2, 56784, Note_on_c, 0, 86, 80
2, 56794, Note_on_c, 0, 86, 0
2, 56808, Note_on_c, 0, 86, 80
2, 56818, Note_on_c, 0, 86, 0
2, 56832, Note_on_c, 0, 86, 80
2, 56842, Note_on_c, 0, 86, 0
2, 56856, Note_on_c, 0, 86, 80
2, 56866, Note_on_c, 0, 86, 0
2, 56880, Note_on_c, 0, 86, 80
2, 56890, Note_on_c, 0, 86, 0
2, 56904, Note_on_c, 0, 86, 80
2, 56914, Note_on_c, 0, 86, 0
2, 56928, Note_on_c, 0, 86, 80
2, 56976, Note_on_c, 0, 86, 0
2, 56976, Note_on_c, 0, 76, 80
2, 57021, Note_on_c, 0, 76, 0
2, 57072, Note_on_c, 0, 76, 80
2, 57117, Note_on_c, 0, 76, 0
2, 57120, Note_on_c, 0, 81, 80
2, 57143, Note_on_c, 0, 81, 0
2, 57144, Note_on_c, 0, 83, 80
2, 57167, Note_on_c, 0, 83, 0
2, 57168, Note_on_c, 0, 84, 80
2, 57178, Note_on_c, 0, 84, 0
2, 57192, Note_on_c, 0, 84, 80
2, 57202, Note_on_c, 0, 84, 0
2, 57216, Note_on_c, 0, 84, 80
2, 57226, Note_on_c, 0, 84, 0
2, 57240, Note_on_c, 0, 84, 80
2, 57250, Note_on_c, 0, 84, 0
2, 57264, Note_on_c, 0, 84, 80
2, 57274, Note_on_c, 0, 84, 0
2, 57288, Note_on_c, 0, 84, 80
2, 57298, Note_on_c, 0, 84, 0
2, 57312, Note_on_c, 0, 84, 80
2, 57360, Note_on_c, 0, 84, 0
2, 57360, Note_on_c, 0, 75, 80
2, 57405, Note_on_c, 0, 75, 0
2, 57456, Note_on_c, 0, 71, 75
2, 57501, Note_on_c, 0, 71, 0
2, 57504, Note_on_c, 0, 75, 75
2, 57527, Note_on_c, 0, 75, 0
2, 57528, Note_on_c, 0, 76, 75
2, 57551, Note_on_c, 0, 76, 0
2, 57552, Note_on_c, 0, 75, 75
2, 57575, Note_on_c, 0, 75, 0
2, 57576, Note_on_c, 0, 76, 75
2, 57599, Note_on_c, 0, 76, 0
2, 57600, Note_on_c, 0, 78, 75
2, 57645, Note_on_c, 0, 78, 0
2, 57648, Note_on_c, 0, 78, 75
2, 57693, Note_on_c, 0, 78, 0
2, 57696, Note_on_c, 0, 81, 75
2, 57741, Note_on_c, 0, 81, 0
2, 57744, Note_on_c, 0, 79, 75
2, 57756, Note_on_c, 0, 79, 0
2, 57756, Note_on_c, 0, 81, 75
2, 57768, Note_on_c, 0, 81, 0
2, 57768, Note_on_c, 0, 79, 75
2, 57780, Note_on_c, 0, 79, 0
2, 57780, Note_on_c, 0, 81, 75
2, 57789, Note_on_c, 0, 81, 0
2, 57792, Note_on_c, 0, 78, 75
2, 57837, Note_on_c, 0, 78, 0
2, 57840, Note_on_c, 0, 83, 75
2, 57933, Note_on_c, 0, 83, 0
2, 57936, Note_on_c, 0, 76, 75
2, 58025, Note_on_c, 0, 76, 0
2, 58032, Note_on_c, 0, 84, 75
2, 58077, Note_on_c, 0, 84, 0
2, 58080, Note_on_c, 0, 75, 75
2, 58125, Note_on_c, 0, 75, 0
2, 58128, Note_on_c, 0, 75, 75
2, 58173, Note_on_c, 0, 75, 0
2, 58176, Note_on_c, 0, 76, 75
2, 58221, Note_on_c, 0, 76, 0
2, 58224, Note_on_c, 0, 76, 75
2, 58269, Note_on_c, 0, 76, 0
2, 58320, Note_on_c, 0, 78, 75
2, 58320, Note_on_c, 0, 69, 75
2, 58365, Note_on_c, 0, 78, 0
2, 58365, Note_on_c, 0, 69, 0
2, 58416, Note_on_c, 0, 75, 75
2, 58416, Note_on_c, 0, 66, 75
2, 58461, Note_on_c, 0, 75, 0
2, 58461, Note_on_c, 0, 66, 0
2, 58464, Note_on_c, 0, 76, 75
2, 58464, Note_on_c, 0, 64, 75
2, 58597, Note_on_c, 0, 76, 0
2, 58597, Note_on_c, 0, 64, 0
2, 58656, End_track
3, 0, Start_track
3, 0, Program_c, 0, 0
3, 0, Control_c, 0, 7, 127
3, 0, Control_c, 0, 10, 64
3, 11808, Note_on_c, 0, 66, 64
3, 11853, Note_on_c, 0, 66, 0
3, 11856, Note_on_c, 0, 64, 64
3, 11901, Note_on_c, 0, 64, 0
3, 11904, Note_on_c, 0, 63, 64
3, 11949, Note_on_c, 0, 63, 0
3, 58656, End_track
4, 0, Start_track
4, 0, Program_c, 1, 0
4, 0, Control_c, 1, 7, 127
4, 0, Control_c, 1, 10, 64
4, 0, Note_on_c, 1, 59, 64
4, 0, Note_on_c, 1, 55, 64
4, 265, Note_on_c, 1, 59, 0
4, 265, Note_on_c, 1, 55, 0
4, 288, Note_on_c, 1, 60, 64
4, 288, Note_on_c, 1, 57, 64
4, 288, Note_on_c, 1, 50, 64
4, 525, Note_on_c, 1, 60, 0
4, 525, Note_on_c, 1, 57, 0
4, 525, Note_on_c, 1, 50, 0
4, 576, Note_on_c, 1, 60, 64
4, 576, Note_on_c, 1, 57, 64
4, 576, Note_on_c, 1, 50, 64
4, 841, Note_on_c, 1, 60, 0
4, 841, Note_on_c, 1, 57, 0
4, 841, Note_on_c, 1, 50, 0
4, 864, Note_on_c, 1, 59, 64
4, 864, Note_on_c, 1, 55, 64
4, 958, Note_on_c, 1, 59, 0
4, 958, Note_on_c, 1, 55, 0
4, 960, Note_on_c, 1, 47, 64
4, 960, Note_on_c, 1, 43, 64
4, 1054, Note_on_c, 1, 47, 0
4, 1054, Note_on_c, 1, 43, 0
4, 1152, Note_on_c, 1, 67, 64
4, 1152, Note_on_c, 1, 62, 64
4, 1152, Note_on_c, 1, 59, 64
4, 1417, Note_on_c, 1, 67, 0
4, 1417, Note_on_c, 1, 62, 0
4, 1417, Note_on_c, 1, 59, 0
4, 1440, Note_on_c, 1, 64, 64
4, 1440, Note_on_c, 1, 60, 64
4, 1529, Note_on_c, 1, 64, 0
4, 1529, Note_on_c, 1, 60, 0
4, 1536, Note_on_c, 1, 52, 64
4, 1536, Note_on_c, 1, 48, 64
4, 1630, Note_on_c, 1, 52, 0
4, 1630, Note_on_c, 1, 48, 0
4, 1824, Note_on_c, 1, 59, 70
4, 1824, Note_on_c, 1, 55, 70
4, 1920, Note_on_c, 1, 59, 0
4, 1920, Note_on_c, 1, 55, 0
4, 1920, Note_on_c, 1, 60, 64
4, 1920, Note_on_c, 1, 57, 64
4, 1965, Note_on_c, 1, 60, 0
4, 1965, Note_on_c, 1, 57, 0
4, 2016, Note_on_c, 1, 55, 64
4, 2055, Note_on_c, 1, 55, 0
4, 2112, Note_on_c, 1, 43, 64
4, 2201, Note_on_c, 1, 43, 0
4, 2208, Control_c, 1, 64, 127
4, 2208, Note_on_c, 1, 55, 75
4, 2220, Note_on_c, 1, 55, 0
4, 2220, Note_on_c, 1, 59, 75
4, 2232, Note_on_c, 1, 59, 0
4, 2232, Note_on_c, 1, 62, 75
4, 2244, Note_on_c, 1, 62, 0
4, 2244, Note_on_c, 1, 67, 75
4, 2256, Note_on_c, 1, 67, 0
4, 2304, Control_c, 1, 64, 0
4, 2400, Note_on_c, 1, 59, 64
4, 2400, Note_on_c, 1, 55, 64
4, 2447, Note_on_c, 1, 59, 0
4, 2447, Note_on_c, 1, 55, 0
4, 2496, Note_on_c, 1, 71, 64
4, 2496, Note_on_c, 1, 67, 64
4, 2543, Note_on_c, 1, 71, 0
4, 2543, Note_on_c, 1, 67, 0
4, 2688, Note_on_c, 1, 62, 64
4, 2688, Note_on_c, 1, 54, 64
4, 2735, Note_on_c, 1, 62, 0
4, 2735, Note_on_c, 1, 54, 0
4, 2784, Note_on_c, 1, 62, 64
4, 2784, Note_on_c, 1, 54, 64
4, 2831, Note_on_c, 1, 62, 0
4, 2831, Note_on_c, 1, 54, 0
4, 2976, Note_on_c, 1, 62, 64
4, 2976, Note_on_c, 1, 54, 64
4, 3023, Note_on_c, 1, 62, 0
4, 3023, Note_on_c, 1, 54, 0
4, 3072, Note_on_c, 1, 62, 64
4, 3072, Note_on_c, 1, 54, 64
4, 3119, Note_on_c, 1, 62, 0
4, 3119, Note_on_c, 1, 54, 0
4, 3264, Note_on_c, 1, 64, 64
4, 3360, Note_on_c, 1, 64, 0
4, 3360, Note_on_c, 1, 62, 64
4, 3454, Note_on_c, 1, 62, 0
4, 3456, Note_on_c, 1, 69, 64
4, 3456, Note_on_c, 1, 61, 64
4, 3736, Note_on_c, 1, 69, 0
4, 3736, Note_on_c, 1, 61, 0
4, 3744, Note_on_c, 1, 69, 64
4, 3744, Note_on_c, 1, 62, 64
4, 3838, Note_on_c, 1, 69, 0
4, 3838, Note_on_c, 1, 62, 0
4, 3936, Note_on_c, 1, 62, 64
4, 3936, Note_on_c, 1, 54, 64
4, 4030, Note_on_c, 1, 62, 0
4, 4030, Note_on_c, 1, 54, 0
4, 4032, Note_on_c, 1, 59, 64
4, 4032, Note_on_c, 1, 55, 64
4, 4126, Note_on_c, 1, 59, 0
4, 4126, Note_on_c, 1, 55, 0
4, 4320, Note_on_c, 1, 66, 64
4, 4320, Note_on_c, 1, 62, 64
4, 4320, Note_on_c, 1, 57, 64
4, 4507, Note_on_c, 1, 66, 0
4, 4507, Note_on_c, 1, 62, 0
4, 4507, Note_on_c, 1, 57, 0
4, 4704, Note_on_c, 1, 45, 75
4, 4704, Note_on_c, 1, 33, 75
4, 4798, Note_on_c, 1, 45, 0
4, 4798, Note_on_c, 1, 33, 0
4, 4800, Note_on_c, 1, 67, 64
4, 4800, Note_on_c, 1, 61, 64
4, 4800, Note_on_c, 1, 57, 64
4, 4894, Note_on_c, 1, 67, 0
4, 4894, Note_on_c, 1, 61, 0
4, 4894, Note_on_c, 1, 57, 0
4, 4896, Note_on_c, 1, 66, 64
4, 4896, Note_on_c, 1, 62, 64
4, 4943, Note_on_c, 1, 66, 0
4, 4943, Note_on_c, 1, 62, 0
4, 4992, Note_on_c, 1, 42, 70
4, 5039, Note_on_c, 1, 42, 0
4, 5184, Note_on_c, 1, 58, 91
4, 5303, Note_on_c, 1, 58, 0
4, 5304, Note_on_c, 1, 59, 75
4, 5327, Note_on_c, 1, 59, 0
4, 5328, Note_on_c, 1, 61, 75
4, 5351, Note_on_c, 1, 61, 0
4, 5352, Note_on_c, 1, 62, 75
4, 5375, Note_on_c, 1, 62, 0
4, 5376, Note_on_c, 1, 52, 75
4, 5399, Note_on_c, 1, 52, 0
4, 5400, Note_on_c, 1, 54, 75
4, 5423, Note_on_c, 1, 54, 0
4, 5424, Note_on_c, 1, 55, 75
4, 5447, Note_on_c, 1, 55, 0
4, 5448, Note_on_c, 1, 49, 75
4, 5471, Note_on_c, 1, 49, 0
4, 5472, Note_on_c, 1, 49, 91
4, 5544, Note_on_c, 1, 49, 0
4, 5544, Note_on_c, 1, 50, 75
4, 5567, Note_on_c, 1, 50, 0
4, 5760, Note_on_c, 1, 59, 64
4, 5760, Note_on_c, 1, 55, 64
4, 6025, Note_on_c, 1, 59, 0
4, 6025, Note_on_c, 1, 55, 0
4, 6048, Note_on_c, 1, 60, 64
4, 6048, Note_on_c, 1, 57, 64
4, 6048, Note_on_c, 1, 50, 64
4, 6285, Note_on_c, 1, 60, 0
4, 6285, Note_on_c, 1, 57, 0
4, 6285, Note_on_c, 1, 50, 0
4, 6336, Note_on_c, 1, 60, 64
4, 6336, Note_on_c, 1, 57, 64
4, 6336, Note_on_c, 1, 50, 64
4, 6601, Note_on_c, 1, 60, 0
4, 6601, Note_on_c, 1, 57, 0
4, 6601, Note_on_c, 1, 50, 0
4, 6624, Note_on_c, 1, 59, 64
4, 6624, Note_on_c, 1, 55, 64
4, 6718, Note_on_c, 1, 59, 0
4, 6718, Note_on_c, 1, 55, 0
4, 6720, Note_on_c, 1, 47, 64
4, 6720, Note_on_c, 1, 43, 64
4, 6814, Note_on_c, 1, 47, 0
4, 6814, Note_on_c, 1, 43, 0
4, 6912, Note_on_c, 1, 67, 64
4, 6912, Note_on_c, 1, 62, 64
4, 6912, Note_on_c, 1, 59, 64
4, 7177, Note_on_c, 1, 67, 0
4, 7177, Note_on_c, 1, 62, 0
4, 7177, Note_on_c, 1, 59, 0
4, 7200, Note_on_c, 1, 64, 64
4, 7200, Note_on_c, 1, 60, 64
4, 7289, Note_on_c, 1, 64, 0
4, 7289, Note_on_c, 1, 60, 0
4, 7296, Note_on_c, 1, 52, 64
4, 7296, Note_on_c, 1, 48, 64
4, 7390, Note_on_c, 1, 52, 0
4, 7390, Note_on_c, 1, 48, 0
4, 7584, Note_on_c, 1, 59, 70
4, 7584, Note_on_c, 1, 55, 70
4, 7680, Note_on_c, 1, 59, 0
4, 7680, Note_on_c, 1, 55, 0
4, 7680, Note_on_c, 1, 60, 64
4, 7680, Note_on_c, 1, 57, 64
4, 7725, Note_on_c, 1, 60, 0
4, 7725, Note_on_c, 1, 57, 0
4, 7776, Note_on_c, 1, 55, 64
4, 7815, Note_on_c, 1, 55, 0
4, 7872, Note_on_c, 1, 43, 64
4, 7961, Note_on_c, 1, 43, 0
4, 7968, Control_c, 1, 64, 127
4, 7968, Note_on_c, 1, 55, 75
4, 7980, Note_on_c, 1, 55, 0
4, 7980, Note_on_c, 1, 59, 75
4, 7992, Note_on_c, 1, 59, 0
4, 7992, Note_on_c, 1, 62, 75
4, 8004, Note_on_c, 1, 62, 0
4, 8004, Note_on_c, 1, 67, 75
4, 8016, Note_on_c, 1, 67, 0
4, 8064, Control_c, 1, 64, 0
4, 8160, Note_on_c, 1, 59, 64
4, 8160, Note_on_c, 1, 55, 64
4, 8207, Note_on_c, 1, 59, 0
4, 8207, Note_on_c, 1, 55, 0
4, 8256, Note_on_c, 1, 71, 64
4, 8256, Note_on_c, 1, 67, 64
4, 8303, Note_on_c, 1, 71, 0
4, 8303, Note_on_c, 1, 67, 0
4, 8448, Note_on_c, 1, 62, 64
4, 8448, Note_on_c, 1, 54, 64
4, 8495, Note_on_c, 1, 62, 0
4, 8495, Note_on_c, 1, 54, 0
4, 8544, Note_on_c, 1, 62, 64
4, 8544, Note_on_c, 1, 54, 64
4, 8591, Note_on_c, 1, 62, 0
4, 8591, Note_on_c, 1, 54, 0
4, 8736, Note_on_c, 1, 62, 64
4, 8736, Note_on_c, 1, 54, 64
4, 8783, Note_on_c, 1, 62, 0
4, 8783, Note_on_c, 1, 54, 0
4, 8832, Note_on_c, 1, 62, 64
4, 8832, Note_on_c, 1, 54, 64
4, 8879, Note_on_c, 1, 62, 0
4, 8879, Note_on_c, 1, 54, 0
4, 9024, Note_on_c, 1, 64, 64
4, 9120, Note_on_c, 1, 64, 0
4, 9120, Note_on_c, 1, 62, 64
4, 9214, Note_on_c, 1, 62, 0
4, 9216, Note_on_c, 1, 69, 64
4, 9216, Note_on_c, 1, 61, 64
4, 9496, Note_on_c, 1, 69, 0
4, 9496, Note_on_c, 1, 61, 0
4, 9504, Note_on_c, 1, 69, 64
4, 9504, Note_on_c, 1, 62, 64
4, 9598, Note_on_c, 1, 69, 0
4, 9598, Note_on_c, 1, 62, 0
4, 9696, Note_on_c, 1, 62, 64
4, 9696, Note_on_c, 1, 54, 64
4, 9790, Note_on_c, 1, 62, 0
4, 9790, Note_on_c, 1, 54, 0
4, 9792, Note_on_c, 1, 59, 64
4, 9792, Note_on_c, 1, 55, 64
4, 9886, Note_on_c, 1, 59, 0
4, 9886, Note_on_c, 1, 55, 0
4, 10080, Note_on_c, 1, 66, 64
4, 10080, Note_on_c, 1, 62, 64
4, 10080, Note_on_c, 1, 57, 64
4, 10267, Note_on_c, 1, 66, 0
4, 10267, Note_on_c, 1, 62, 0
4, 10267, Note_on_c, 1, 57, 0
4, 10464, Note_on_c, 1, 45, 75
4, 10464, Note_on_c, 1, 33, 75
4, 10558, Note_on_c, 1, 45, 0
4, 10558, Note_on_c, 1, 33, 0
4, 10560, Note_on_c, 1, 67, 64
4, 10560, Note_on_c, 1, 61, 64
4, 10560, Note_on_c, 1, 57, 64
4, 10654, Note_on_c, 1, 67, 0
4, 10654, Note_on_c, 1, 61, 0
4, 10654, Note_on_c, 1, 57, 0
4, 10656, Note_on_c, 1, 66, 64
4, 10656, Note_on_c, 1, 62, 64
4, 10703, Note_on_c, 1, 66, 0
4, 10703, Note_on_c, 1, 62, 0
4, 10752, Note_on_c, 1, 42, 70
4, 10799, Note_on_c, 1, 42, 0
4, 10944, Note_on_c, 1, 58, 91
4, 11063, Note_on_c, 1, 58, 0
4, 11064, Note_on_c, 1, 59, 75
4, 11087, Note_on_c, 1, 59, 0
4, 11088, Note_on_c, 1, 61, 75
4, 11111, Note_on_c, 1, 61, 0
4, 11112, Note_on_c, 1, 62, 75
4, 11135, Note_on_c, 1, 62, 0
4, 11136, Note_on_c, 1, 52, 75
4, 11159, Note_on_c, 1, 52, 0
4, 11160, Note_on_c, 1, 54, 75
4, 11183, Note_on_c, 1, 54, 0
4, 11184, Note_on_c, 1, 55, 75
4, 11207, Note_on_c, 1, 55, 0
4, 11208, Note_on_c, 1, 49, 75
4, 11231, Note_on_c, 1, 49, 0
4, 11232, Note_on_c, 1, 49, 91
4, 11304, Note_on_c, 1, 49, 0
4, 11304, Note_on_c, 1, 50, 75
4, 11327, Note_on_c, 1, 50, 0
4, 11520, Note_on_c, 1, 59, 75
4, 11520, Note_on_c, 1, 54, 75
4, 11520, Note_on_c, 1, 51, 75
4, 11785, Note_on_c, 1, 59, 0
4, 11785, Note_on_c, 1, 54, 0
4, 11785, Note_on_c, 1, 51, 0
4, 11856, Note_on_c, 1, 61, 70
4, 11856, Note_on_c, 1, 58, 70
4, 11901, Note_on_c, 1, 61, 0
4, 11901, Note_on_c, 1, 58, 0
4, 11904, Note_on_c, 1, 59, 70
4, 11971, Note_on_c, 1, 59, 0
4, 12096, Note_on_c, 1, 67, 75
4, 12096, Note_on_c, 1, 64, 75
4, 12361, Note_on_c, 1, 67, 0
4, 12361, Note_on_c, 1, 64, 0
4, 12384, Note_on_c, 1, 69, 75
4, 12384, Note_on_c, 1, 66, 75
4, 12384, Note_on_c, 1, 59, 75
4, 12621, Note_on_c, 1, 69, 0
4, 12621, Note_on_c, 1, 66, 0
4, 12621, Note_on_c, 1, 59, 0
4, 12672, Control_c, 1, 64, 127
4, 12672, Note_on_c, 1, 52, 75
4, 12684, Note_on_c, 1, 52, 0
4, 12684, Note_on_c, 1, 56, 75
4, 12696, Note_on_c, 1, 56, 0
4, 12696, Note_on_c, 1, 59, 75
4, 12708, Note_on_c, 1, 59, 0
4, 12708, Note_on_c, 1, 62, 75
4, 12720, Note_on_c, 1, 62, 0
4, 12768, Note_on_c, 1, 64, 75
4, 12780, Note_on_c, 1, 64, 0
4, 12780, Note_on_c, 1, 68, 75
4, 12792, Note_on_c, 1, 68, 0
4, 12792, Note_on_c, 1, 71, 75
4, 12804, Note_on_c, 1, 71, 0
4, 12804, Note_on_c, 1, 74, 75
4, 12816, Note_on_c, 1, 74, 0
4, 12864, Control_c, 1, 64, 0
4, 12924, Note_on_c, 1, 77, 75
4, 12936, Note_on_c, 1, 77, 0
4, 12936, Note_on_c, 1, 76, 75
4, 12948, Note_on_c, 1, 76, 0
4, 12948, Note_on_c, 1, 74, 75
4, 12960, Note_on_c, 1, 74, 0
4, 12960, Note_on_c, 1, 72, 75
4, 12972, Note_on_c, 1, 72, 0
4, 13260, Control_c, 1, 64, 127
4, 13260, Note_on_c, 1, 50, 75
4, 13272, Note_on_c, 1, 50, 0
4, 13272, Note_on_c, 1, 54, 75
4, 13284, Note_on_c, 1, 54, 0
4, 13284, Note_on_c, 1, 57, 75
4, 13296, Note_on_c, 1, 57, 0
4, 13296, Note_on_c, 1, 60, 75
4, 13308, Note_on_c, 1, 60, 0
4, 13308, Note_on_c, 1, 62, 75
4, 13320, Note_on_c, 1, 62, 0
4, 13320, Note_on_c, 1, 66, 75
4, 13332, Note_on_c, 1, 66, 0
4, 13332, Note_on_c, 1, 69, 75
4, 13344, Note_on_c, 1, 69, 0
4, 13344, Note_on_c, 1, 72, 75
4, 13356, Note_on_c, 1, 72, 0
4, 13440, Control_c, 1, 64, 0
4, 13548, Control_c, 1, 64, 127
4, 13548, Note_on_c, 1, 55, 75
4, 13560, Note_on_c, 1, 55, 0
4, 13560, Note_on_c, 1, 59, 75
4, 13572, Note_on_c, 1, 59, 0
4, 13572, Note_on_c, 1, 62, 75
4, 13584, Note_on_c, 1, 62, 0
4, 13584, Note_on_c, 1, 67, 75
4, 13596, Note_on_c, 1, 67, 0
4, 13728, Control_c, 1, 64, 0
4, 13788, Note_on_c, 1, 67, 75
4, 13800, Note_on_c, 1, 67, 0
4, 13800, Note_on_c, 1, 71, 75
4, 13812, Note_on_c, 1, 71, 0
4, 13812, Note_on_c, 1, 74, 75
4, 13824, Note_on_c, 1, 74, 0
4, 13824, Note_on_c, 1, 66, 75
4, 13836, Note_on_c, 1, 66, 0
4, 14016, Note_on_c, 1, 64, 75
4, 14061, Note_on_c, 1, 64, 0
4, 14112, Note_on_c, 1, 62, 75
4, 14157, Note_on_c, 1, 62, 0
4, 14760, Note_on_c, 1, 38, 75
4, 14893, Note_on_c, 1, 38, 0
4, 14976, Note_on_c, 1, 59, 75
4, 14976, Note_on_c, 1, 55, 75
4, 15241, Note_on_c, 1, 59, 0
4, 15241, Note_on_c, 1, 55, 0
4, 15264, Note_on_c, 1, 60, 75
4, 15264, Note_on_c, 1, 57, 75
4, 15264, Note_on_c, 1, 50, 75
4, 15501, Note_on_c, 1, 60, 0
4, 15501, Note_on_c, 1, 57, 0
4, 15501, Note_on_c, 1, 50, 0
4, 15552, Note_on_c, 1, 60, 75
4, 15552, Note_on_c, 1, 57, 75
4, 15552, Note_on_c, 1, 50, 75
4, 15817, Note_on_c, 1, 60, 0
4, 15817, Note_on_c, 1, 57, 0
4, 15817, Note_on_c, 1, 50, 0
4, 15840, Note_on_c, 1, 59, 64
4, 15840, Note_on_c, 1, 55, 64
4, 15934, Note_on_c, 1, 59, 0
4, 15934, Note_on_c, 1, 55, 0
4, 15936, Note_on_c, 1, 47, 64
4, 15936, Note_on_c, 1, 43, 64
4, 16030, Note_on_c, 1, 47, 0
4, 16030, Note_on_c, 1, 43, 0
4, 16128, Note_on_c, 1, 67, 75
4, 16128, Note_on_c, 1, 62, 75
4, 16128, Note_on_c, 1, 59, 75
4, 16393, Note_on_c, 1, 67, 0
4, 16393, Note_on_c, 1, 62, 0
4, 16393, Note_on_c, 1, 59, 0
4, 16416, Note_on_c, 1, 64, 75
4, 16416, Note_on_c, 1, 60, 75
4, 16608, Note_on_c, 1, 64, 0
4, 16655, Note_on_c, 1, 60, 0
4, 16656, Note_on_c, 1, 61, 75
4, 16701, Note_on_c, 1, 61, 0
4, 16704, Note_on_c, 1, 62, 75
4, 16749, Note_on_c, 1, 62, 0
4, 16896, Note_on_c, 1, 62, 70
4, 16896, Note_on_c, 1, 54, 70
4, 16941, Note_on_c, 1, 62, 0
4, 16941, Note_on_c, 1, 54, 0
4, 16992, Note_on_c, 1, 62, 64
4, 16992, Note_on_c, 1, 55, 64
4, 17081, Note_on_c, 1, 62, 0
4, 17081, Note_on_c, 1, 55, 0
4, 17184, Note_on_c, 1, 55, 70
4, 17184, Note_on_c, 1, 47, 70
4, 17273, Note_on_c, 1, 55, 0
4, 17273, Note_on_c, 1, 47, 0
4, 17280, Note_on_c, 1, 52, 70
4, 17280, Note_on_c, 1, 48, 70
4, 17369, Note_on_c, 1, 52, 0
4, 17369, Note_on_c, 1, 48, 0
4, 17568, Note_on_c, 1, 59, 75
4, 17568, Note_on_c, 1, 55, 75
4, 17568, Note_on_c, 1, 50, 75
4, 17657, Note_on_c, 1, 59, 0
4, 17657, Note_on_c, 1, 55, 0
4, 17657, Note_on_c, 1, 50, 0
4, 18120, Note_on_c, 1, 47, 75
4, 18143, Note_on_c, 1, 47, 0
4, 18144, Note_on_c, 1, 48, 75
4, 18167, Note_on_c, 1, 48, 0
4, 18168, Note_on_c, 1, 49, 75
4, 18191, Note_on_c, 1, 49, 0
4, 18192, Note_on_c, 1, 50, 75
4, 18215, Note_on_c, 1, 50, 0
4, 18216, Note_on_c, 1, 51, 75
4, 18239, Note_on_c, 1, 51, 0
4, 18240, Note_on_c, 1, 52, 75
4, 18263, Note_on_c, 1, 52, 0
4, 18264, Note_on_c, 1, 54, 75
4, 18287, Note_on_c, 1, 54, 0
4, 18288, Note_on_c, 1, 55, 75
4, 18311, Note_on_c, 1, 55, 0
4, 18312, Note_on_c, 1, 54, 75
4, 18335, Note_on_c, 1, 54, 0
4, 18336, Note_on_c, 1, 52, 75
4, 18359, Note_on_c, 1, 52, 0
4, 18360, Note_on_c, 1, 50, 75
4, 18383, Note_on_c, 1, 50, 0
4, 18384, Note_on_c, 1, 48, 75
4, 18407, Note_on_c, 1, 48, 0
4, 18408, Note_on_c, 1, 49, 75
4, 18431, Note_on_c, 1, 49, 0
4, 18432, Control_c, 1, 64, 127
4, 18432, Note_on_c, 1, 50, 75
4, 18444, Note_on_c, 1, 50, 0
4, 18444, Note_on_c, 1, 55, 75
4, 18456, Note_on_c, 1, 55, 0
4, 18456, Note_on_c, 1, 59, 75
4, 18468, Note_on_c, 1, 59, 0
4, 18528, Control_c, 1, 64, 0
4, 18528, Note_on_c, 1, 38, 75
4, 18573, Note_on_c, 1, 38, 0
4, 18624, Note_on_c, 1, 72, 70
4, 18624, Note_on_c, 1, 66, 70
4, 18624, Note_on_c, 1, 62, 70
4, 18713, Note_on_c, 1, 72, 0
4, 18713, Note_on_c, 1, 66, 0
4, 18713, Note_on_c, 1, 62, 0
4, 18720, Note_on_c, 1, 71, 64
4, 18720, Note_on_c, 1, 67, 64
4, 18720, Note_on_c, 1, 64, 64
4, 18767, Note_on_c, 1, 71, 0
4, 18767, Note_on_c, 1, 67, 0
4, 18767, Note_on_c, 1, 64, 0
4, 18816, Note_on_c, 1, 64, 80
4, 18816, Note_on_c, 1, 52, 80
4, 18861, Note_on_c, 1, 64, 0
4, 18861, Note_on_c, 1, 52, 0
4, 18984, Note_on_c, 1, 64, 80
4, 18984, Note_on_c, 1, 52, 80
4, 19007, Note_on_c, 1, 64, 0
4, 19007, Note_on_c, 1, 52, 0
4, 19008, Note_on_c, 1, 63, 80
4, 19008, Note_on_c, 1, 51, 80
4, 19053, Note_on_c, 1, 63, 0
4, 19053, Note_on_c, 1, 51, 0
4, 19104, Note_on_c, 1, 51, 80
4, 19104, Note_on_c, 1, 54, 80
4, 19104, Note_on_c, 1, 59, 80
4, 19175, Note_on_c, 1, 59, 0
4, 19175, Note_on_c, 1, 54, 0
4, 19175, Note_on_c, 1, 51, 0
4, 19392, Note_on_c, 1, 52, 64
4, 19481, Note_on_c, 1, 52, 0
4, 19488, Note_on_c, 1, 46, 64
4, 19577, Note_on_c, 1, 46, 0
4, 19584, Note_on_c, 1, 47, 64
4, 19629, Note_on_c, 1, 47, 0
4, 19680, Note_on_c, 1, 47, 64
4, 19680, Note_on_c, 1, 35, 64
4, 19725, Note_on_c, 1, 47, 0
4, 19725, Note_on_c, 1, 35, 0
4, 19776, Note_on_c, 1, 47, 61
4, 19776, Note_on_c, 1, 35, 61
4, 19821, Note_on_c, 1, 47, 0
4, 19821, Note_on_c, 1, 35, 0
4, 19872, Note_on_c, 1, 47, 58
4, 19872, Note_on_c, 1, 35, 58
4, 19961, Note_on_c, 1, 47, 0
4, 19961, Note_on_c, 1, 35, 0
4, 20256, Note_on_c, 1, 52, 70
4, 20279, Note_on_c, 1, 52, 0
4, 20280, Note_on_c, 1, 59, 70
4, 20303, Note_on_c, 1, 59, 0
4, 20304, Note_on_c, 1, 55, 70
4, 20327, Note_on_c, 1, 55, 0
4, 20328, Note_on_c, 1, 59, 70
4, 20351, Note_on_c, 1, 59, 0
4, 20352, Note_on_c, 1, 52, 70
4, 20375, Note_on_c, 1, 52, 0
4, 20376, Note_on_c, 1, 59, 70
4, 20399, Note_on_c, 1, 59, 0
4, 20400, Note_on_c, 1, 55, 70
4, 20423, Note_on_c, 1, 55, 0
4, 20424, Note_on_c, 1, 59, 70
4, 20447, Note_on_c, 1, 59, 0
4, 20448, Note_on_c, 1, 54, 70
4, 20471, Note_on_c, 1, 54, 0
4, 20472, Note_on_c, 1, 59, 70
4, 20495, Note_on_c, 1, 59, 0
4, 20496, Note_on_c, 1, 57, 70
4, 20519, Note_on_c, 1, 57, 0
4, 20520, Note_on_c, 1, 59, 70
4, 20543, Note_on_c, 1, 59, 0
4, 20544, Note_on_c, 1, 54, 70
4, 20567, Note_on_c, 1, 54, 0
4, 20568, Note_on_c, 1, 59, 70
4, 20591, Note_on_c, 1, 59, 0
4, 20592, Note_on_c, 1, 57, 70
4, 20615, Note_on_c, 1, 57, 0
4, 20616, Note_on_c, 1, 59, 70
4, 20639, Note_on_c, 1, 59, 0
4, 20640, Note_on_c, 1, 52, 70
4, 20663, Note_on_c, 1, 52, 0
4, 20664, Note_on_c, 1, 59, 70
4, 20687, Note_on_c, 1, 59, 0
4, 20688, Note_on_c, 1, 55, 70
4, 20711, Note_on_c, 1, 55, 0
4, 20712, Note_on_c, 1, 59, 70
4, 20735, Note_on_c, 1, 59, 0
4, 20736, Note_on_c, 1, 51, 70
4, 20759, Note_on_c, 1, 51, 0
4, 20760, Note_on_c, 1, 59, 70
4, 20783, Note_on_c, 1, 59, 0
4, 20784, Note_on_c, 1, 54, 70
4, 20807, Note_on_c, 1, 54, 0
4, 20808, Note_on_c, 1, 59, 70
4, 20831, Note_on_c, 1, 59, 0
4, 20832, Note_on_c, 1, 52, 70
4, 20855, Note_on_c, 1, 52, 0
4, 20856, Note_on_c, 1, 59, 70
4, 20879, Note_on_c, 1, 59, 0
4, 20880, Note_on_c, 1, 55, 70
4, 20903, Note_on_c, 1, 55, 0
4, 20904, Note_on_c, 1, 59, 70
4, 20927, Note_on_c, 1, 59, 0
4, 20928, Note_on_c, 1, 47, 70
4, 20951, Note_on_c, 1, 47, 0
4, 20952, Note_on_c, 1, 59, 70
4, 20975, Note_on_c, 1, 59, 0
4, 20976, Note_on_c, 1, 51, 70
4, 20999, Note_on_c, 1, 51, 0
4, 21000, Note_on_c, 1, 59, 70
4, 21023, Note_on_c, 1, 59, 0
4, 21024, Note_on_c, 1, 52, 70
4, 21047, Note_on_c, 1, 52, 0
4, 21048, Note_on_c, 1, 59, 70
4, 21071, Note_on_c, 1, 59, 0
4, 21072, Note_on_c, 1, 55, 70
4, 21095, Note_on_c, 1, 55, 0
4, 21096, Note_on_c, 1, 59, 70
4, 21119, Note_on_c, 1, 59, 0
4, 21120, Note_on_c, 1, 52, 70
4, 21143, Note_on_c, 1, 52, 0
4, 21144, Note_on_c, 1, 59, 70
4, 21167, Note_on_c, 1, 59, 0
4, 21168, Note_on_c, 1, 55, 70
4, 21191, Note_on_c, 1, 55, 0
4, 21192, Note_on_c, 1, 59, 70
4, 21215, Note_on_c, 1, 59, 0
4, 21216, Note_on_c, 1, 48, 70
4, 21239, Note_on_c, 1, 48, 0
4, 21240, Note_on_c, 1, 57, 70
4, 21263, Note_on_c, 1, 57, 0
4, 21264, Note_on_c, 1, 52, 70
4, 21287, Note_on_c, 1, 52, 0
4, 21288, Note_on_c, 1, 57, 70
4, 21311, Note_on_c, 1, 57, 0
4, 21312, Note_on_c, 1, 48, 70
4, 21335, Note_on_c, 1, 48, 0
4, 21336, Note_on_c, 1, 57, 70
4, 21359, Note_on_c, 1, 57, 0
4, 21360, Note_on_c, 1, 52, 70
4, 21383, Note_on_c, 1, 52, 0
4, 21384, Note_on_c, 1, 57, 70
4, 21407, Note_on_c, 1, 57, 0
4, 21408, Note_on_c, 1, 50, 70
4, 21431, Note_on_c, 1, 50, 0
4, 21432, Note_on_c, 1, 60, 70
4, 21455, Note_on_c, 1, 60, 0
4, 21456, Note_on_c, 1, 57, 70
4, 21479, Note_on_c, 1, 57, 0
4, 21480, Note_on_c, 1, 60, 70
4, 21503, Note_on_c, 1, 60, 0
4, 21504, Note_on_c, 1, 50, 70
4, 21527, Note_on_c, 1, 50, 0
4, 21528, Note_on_c, 1, 60, 70
4, 21551, Note_on_c, 1, 60, 0
4, 21552, Note_on_c, 1, 57, 70
4, 21575, Note_on_c, 1, 57, 0
4, 21576, Note_on_c, 1, 60, 70
4, 21599, Note_on_c, 1, 60, 0
4, 21600, Note_on_c, 1, 59, 70
4, 21600, Note_on_c, 1, 55, 70
4, 21689, Note_on_c, 1, 59, 0
4, 21689, Note_on_c, 1, 55, 0
4, 21696, Note_on_c, 1, 43, 70
4, 21741, Note_on_c, 1, 43, 0
4, 21792, Note_on_c, 1, 52, 70
4, 21815, Note_on_c, 1, 52, 0
4, 21816, Note_on_c, 1, 59, 70
4, 21839, Note_on_c, 1, 59, 0
4, 21840, Note_on_c, 1, 55, 70
4, 21863, Note_on_c, 1, 55, 0
4, 21864, Note_on_c, 1, 59, 70
4, 21887, Note_on_c, 1, 59, 0
4, 21888, Note_on_c, 1, 52, 70
4, 21911, Note_on_c, 1, 52, 0
4, 21912, Note_on_c, 1, 59, 70
4, 21935, Note_on_c, 1, 59, 0
4, 21936, Note_on_c, 1, 55, 70
4, 21959, Note_on_c, 1, 55, 0
4, 21960, Note_on_c, 1, 59, 70
4, 21983, Note_on_c, 1, 59, 0
4, 21984, Note_on_c, 1, 54, 70
4, 22007, Note_on_c, 1, 54, 0
4, 22008, Note_on_c, 1, 59, 70
4, 22031, Note_on_c, 1, 59, 0
4, 22032, Note_on_c, 1, 57, 70
4, 22055, Note_on_c, 1, 57, 0
4, 22056, Note_on_c, 1, 59, 70
4, 22079, Note_on_c, 1, 59, 0
4, 22080, Note_on_c, 1, 54, 70
4, 22103, Note_on_c, 1, 54, 0
4, 22104, Note_on_c, 1, 59, 70
4, 22127, Note_on_c, 1, 59, 0
4, 22128, Note_on_c, 1, 57, 70
4, 22151, Note_on_c, 1, 57, 0
4, 22152, Note_on_c, 1, 59, 70
4, 22175, Note_on_c, 1, 59, 0
4, 22176, Note_on_c, 1, 52, 70
4, 22199, Note_on_c, 1, 52, 0
4, 22200, Note_on_c, 1, 59, 70
4, 22223, Note_on_c, 1, 59, 0
4, 22224, Note_on_c, 1, 55, 70
4, 22247, Note_on_c, 1, 55, 0
4, 22248, Note_on_c, 1, 59, 70
4, 22271, Note_on_c, 1, 59, 0
4, 22272, Note_on_c, 1, 51, 70
4, 22295, Note_on_c, 1, 51, 0
4, 22296, Note_on_c, 1, 59, 70
4, 22319, Note_on_c, 1, 59, 0
4, 22320, Note_on_c, 1, 54, 70
4, 22343, Note_on_c, 1, 54, 0
4, 22344, Note_on_c, 1, 59, 70
4, 22367, Note_on_c, 1, 59, 0
4, 22368, Note_on_c, 1, 52, 70
4, 22391, Note_on_c, 1, 52, 0
4, 22392, Note_on_c, 1, 59, 70
4, 22415, Note_on_c, 1, 59, 0
4, 22416, Note_on_c, 1, 55, 70
4, 22439, Note_on_c, 1, 55, 0
4, 22440, Note_on_c, 1, 59, 70
4, 22463, Note_on_c, 1, 59, 0
4, 22464, Note_on_c, 1, 47, 70
4, 22487, Note_on_c, 1, 47, 0
4, 22488, Note_on_c, 1, 59, 70
4, 22511, Note_on_c, 1, 59, 0
4, 22512, Note_on_c, 1, 51, 70
4, 22535, Note_on_c, 1, 51, 0
4, 22536, Note_on_c, 1, 59, 70
4, 22559, Note_on_c, 1, 59, 0
4, 22560, Note_on_c, 1, 52, 70
4, 22583, Note_on_c, 1, 52, 0
4, 22584, Note_on_c, 1, 59, 70
4, 22607, Note_on_c, 1, 59, 0
4, 22608, Note_on_c, 1, 55, 70
4, 22631, Note_on_c, 1, 55, 0
4, 22632, Note_on_c, 1, 59, 70
4, 22655, Note_on_c, 1, 59, 0
4, 22656, Note_on_c, 1, 52, 70
4, 22679, Note_on_c, 1, 52, 0
4, 22680, Note_on_c, 1, 59, 70
4, 22703, Note_on_c, 1, 59, 0
4, 22704, Note_on_c, 1, 55, 70
4, 22727, Note_on_c, 1, 55, 0
4, 22728, Note_on_c, 1, 59, 70
4, 22751, Note_on_c, 1, 59, 0
4, 22752, Note_on_c, 1, 48, 70
4, 22775, Note_on_c, 1, 48, 0
4, 22776, Note_on_c, 1, 57, 70
4, 22799, Note_on_c, 1, 57, 0
4, 22800, Note_on_c, 1, 52, 70
4, 22823, Note_on_c, 1, 52, 0
4, 22824, Note_on_c, 1, 57, 70
4, 22847, Note_on_c, 1, 57, 0
4, 22848, Note_on_c, 1, 48, 70
4, 22871, Note_on_c, 1, 48, 0
4, 22872, Note_on_c, 1, 57, 70
4, 22895, Note_on_c, 1, 57, 0
4, 22896, Note_on_c, 1, 52, 70
4, 22919, Note_on_c, 1, 52, 0
4, 22920, Note_on_c, 1, 57, 70
4, 22943, Note_on_c, 1, 57, 0
4, 22944, Note_on_c, 1, 50, 70
4, 22967, Note_on_c, 1, 50, 0
4, 22968, Note_on_c, 1, 60, 70
4, 22991, Note_on_c, 1, 60, 0
4, 22992, Note_on_c, 1, 57, 70
4, 23015, Note_on_c, 1, 57, 0
4, 23016, Note_on_c, 1, 60, 70
4, 23039, Note_on_c, 1, 60, 0
4, 23040, Note_on_c, 1, 50, 70
4, 23063, Note_on_c, 1, 50, 0
4, 23064, Note_on_c, 1, 60, 70
4, 23087, Note_on_c, 1, 60, 0
4, 23088, Note_on_c, 1, 57, 70
4, 23111, Note_on_c, 1, 57, 0
4, 23112, Note_on_c, 1, 60, 70
4, 23135, Note_on_c, 1, 60, 0
4, 23136, Note_on_c, 1, 59, 70
4, 23136, Note_on_c, 1, 55, 70
4, 23225, Note_on_c, 1, 59, 0
4, 23225, Note_on_c, 1, 55, 0
4, 23232, Note_on_c, 1, 43, 70
4, 23277, Note_on_c, 1, 43, 0
4, 23328, Note_on_c, 1, 59, 70
4, 23351, Note_on_c, 1, 59, 0
4, 23352, Note_on_c, 1, 67, 70
4, 23375, Note_on_c, 1, 67, 0
4, 23376, Note_on_c, 1, 62, 70
4, 23399, Note_on_c, 1, 62, 0
4, 23400, Note_on_c, 1, 67, 70
4, 23423, Note_on_c, 1, 67, 0
4, 23424, Note_on_c, 1, 59, 70
4, 23447, Note_on_c, 1, 59, 0
4, 23448, Note_on_c, 1, 67, 70
4, 23471, Note_on_c, 1, 67, 0
4, 23472, Note_on_c, 1, 62, 70
4, 23495, Note_on_c, 1, 62, 0
4, 23496, Note_on_c, 1, 67, 70
4, 23519, Note_on_c, 1, 67, 0
4, 23520, Note_on_c, 1, 60, 70
4, 23543, Note_on_c, 1, 60, 0
4, 23544, Note_on_c, 1, 67, 70
4, 23567, Note_on_c, 1, 67, 0
4, 23568, Note_on_c, 1, 64, 70
4, 23591, Note_on_c, 1, 64, 0
4, 23592, Note_on_c, 1, 67, 70
4, 23615, Note_on_c, 1, 67, 0
4, 23616, Note_on_c, 1, 60, 70
4, 23639, Note_on_c, 1, 60, 0
4, 23640, Note_on_c, 1, 67, 70
4, 23663, Note_on_c, 1, 67, 0
4, 23664, Note_on_c, 1, 64, 70
4, 23687, Note_on_c, 1, 64, 0
4, 23688, Note_on_c, 1, 67, 70
4, 23711, Note_on_c, 1, 67, 0
4, 23712, Note_on_c, 1, 57, 70
4, 23735, Note_on_c, 1, 57, 0
4, 23736, Note_on_c, 1, 66, 70
4, 23759, Note_on_c, 1, 66, 0
4, 23760, Note_on_c, 1, 60, 70
4, 23783, Note_on_c, 1, 60, 0
4, 23784, Note_on_c, 1, 66, 70
4, 23807, Note_on_c, 1, 66, 0
4, 23808, Note_on_c, 1, 57, 70
4, 23831, Note_on_c, 1, 57, 0
4, 23832, Note_on_c, 1, 66, 70
4, 23855, Note_on_c, 1, 66, 0
4, 23856, Note_on_c, 1, 60, 70
4, 23879, Note_on_c, 1, 60, 0
4, 23880, Note_on_c, 1, 66, 70
4, 23903, Note_on_c, 1, 66, 0
4, 23904, Note_on_c, 1, 59, 70
4, 23927, Note_on_c, 1, 59, 0
4, 23928, Note_on_c, 1, 66, 70
4, 23951, Note_on_c, 1, 66, 0
4, 23952, Note_on_c, 1, 63, 70
4, 23975, Note_on_c, 1, 63, 0
4, 23976, Note_on_c, 1, 66, 70
4, 23999, Note_on_c, 1, 66, 0
4, 24000, Note_on_c, 1, 57, 70
4, 24023, Note_on_c, 1, 57, 0
4, 24024, Note_on_c, 1, 63, 70
4, 24047, Note_on_c, 1, 63, 0
4, 24048, Note_on_c, 1, 59, 70
4, 24071, Note_on_c, 1, 59, 0
4, 24072, Note_on_c, 1, 63, 70
4, 24095, Note_on_c, 1, 63, 0
4, 24096, Note_on_c, 1, 55, 70
4, 24119, Note_on_c, 1, 55, 0
4, 24120, Note_on_c, 1, 64, 70
4, 24143, Note_on_c, 1, 64, 0
4, 24144, Note_on_c, 1, 59, 70
4, 24167, Note_on_c, 1, 59, 0
4, 24168, Note_on_c, 1, 64, 70
4, 24191, Note_on_c, 1, 64, 0
4, 24192, Note_on_c, 1, 51, 70
4, 24215, Note_on_c, 1, 51, 0
4, 24216, Note_on_c, 1, 59, 70
4, 24239, Note_on_c, 1, 59, 0
4, 24240, Note_on_c, 1, 54, 70
4, 24263, Note_on_c, 1, 54, 0
4, 24264, Note_on_c, 1, 59, 70
4, 24287, Note_on_c, 1, 59, 0
4, 24288, Note_on_c, 1, 52, 70
4, 24311, Note_on_c, 1, 52, 0
4, 24312, Note_on_c, 1, 59, 70
4, 24335, Note_on_c, 1, 59, 0
4, 24336, Note_on_c, 1, 55, 70
4, 24359, Note_on_c, 1, 55, 0
4, 24360, Note_on_c, 1, 59, 70
4, 24383, Note_on_c, 1, 59, 0
4, 24384, Note_on_c, 1, 47, 70
4, 24407, Note_on_c, 1, 47, 0
4, 24408, Note_on_c, 1, 59, 70
4, 24431, Note_on_c, 1, 59, 0
4, 24432, Note_on_c, 1, 51, 70
4, 24455, Note_on_c, 1, 51, 0
4, 24456, Note_on_c, 1, 59, 70
4, 24479, Note_on_c, 1, 59, 0
4, 24480, Note_on_c, 1, 48, 70
4, 24503, Note_on_c, 1, 48, 0
4, 24504, Note_on_c, 1, 59, 70
4, 24527, Note_on_c, 1, 59, 0
4, 24528, Note_on_c, 1, 55, 70
4, 24551, Note_on_c, 1, 55, 0
4, 24552, Note_on_c, 1, 59, 70
4, 24575, Note_on_c, 1, 59, 0
4, 24576, Note_on_c, 1, 48, 70
4, 24599, Note_on_c, 1, 48, 0
4, 24600, Note_on_c, 1, 57, 70
4, 24623, Note_on_c, 1, 57, 0
4, 24624, Note_on_c, 1, 55, 70
4, 24647, Note_on_c, 1, 55, 0
4, 24648, Note_on_c, 1, 57, 70
4, 24671, Note_on_c, 1, 57, 0
4, 24672, Note_on_c, 1, 47, 70
4, 24695, Note_on_c, 1, 47, 0
4, 24696, Note_on_c, 1, 57, 70
4, 24719, Note_on_c, 1, 57, 0
4, 24720, Note_on_c, 1, 54, 70
4, 24743, Note_on_c, 1, 54, 0
4, 24744, Note_on_c, 1, 57, 70
4, 24767, Note_on_c, 1, 57, 0
4, 24768, Note_on_c, 1, 48, 70
4, 24791, Note_on_c, 1, 48, 0
4, 24792, Note_on_c, 1, 55, 70
4, 24815, Note_on_c, 1, 55, 0
4, 24816, Note_on_c, 1, 52, 70
4, 24839, Note_on_c, 1, 52, 0
4, 24840, Note_on_c, 1, 55, 70
4, 24863, Note_on_c, 1, 55, 0
4, 24864, Note_on_c, 1, 45, 70
4, 24887, Note_on_c, 1, 45, 0
4, 24888, Note_on_c, 1, 54, 70
4, 24911, Note_on_c, 1, 54, 0
4, 24912, Note_on_c, 1, 48, 70
4, 24935, Note_on_c, 1, 48, 0
4, 24936, Note_on_c, 1, 54, 70
4, 24959, Note_on_c, 1, 54, 0
4, 24960, Note_on_c, 1, 47, 70
4, 24983, Note_on_c, 1, 47, 0
4, 24984, Note_on_c, 1, 57, 70
4, 25007, Note_on_c, 1, 57, 0
4, 25008, Note_on_c, 1, 54, 70
4, 25031, Note_on_c, 1, 54, 0
4, 25032, Note_on_c, 1, 57, 70
4, 25055, Note_on_c, 1, 57, 0
4, 25056, Note_on_c, 1, 55, 70
4, 25056, Note_on_c, 1, 52, 70
4, 25145, Note_on_c, 1, 55, 0
4, 25145, Note_on_c, 1, 52, 0
4, 25152, Note_on_c, 1, 40, 70
4, 25197, Note_on_c, 1, 40, 0
4, 25248, Note_on_c, 1, 59, 70
4, 25271, Note_on_c, 1, 59, 0
4, 25272, Note_on_c, 1, 67, 70
4, 25295, Note_on_c, 1, 67, 0
4, 25296, Note_on_c, 1, 62, 70
4, 25319, Note_on_c, 1, 62, 0
4, 25320, Note_on_c, 1, 67, 70
4, 25343, Note_on_c, 1, 67, 0
4, 25344, Note_on_c, 1, 59, 70
4, 25367, Note_on_c, 1, 59, 0
4, 25368, Note_on_c, 1, 67, 70
4, 25391, Note_on_c, 1, 67, 0
4, 25392, Note_on_c, 1, 62, 70
4, 25415, Note_on_c, 1, 62, 0
4, 25416, Note_on_c, 1, 67, 70
4, 25439, Note_on_c, 1, 67, 0
4, 25440, Note_on_c, 1, 60, 70
4, 25463, Note_on_c, 1, 60, 0
4, 25464, Note_on_c, 1, 67, 70
4, 25487, Note_on_c, 1, 67, 0
4, 25488, Note_on_c, 1, 64, 70
4, 25511, Note_on_c, 1, 64, 0
4, 25512, Note_on_c, 1, 67, 70
4, 25535, Note_on_c, 1, 67, 0
4, 25536, Note_on_c, 1, 60, 70
4, 25559, Note_on_c, 1, 60, 0
4, 25560, Note_on_c, 1, 67, 70
4, 25583, Note_on_c, 1, 67, 0
4, 25584, Note_on_c, 1, 64, 70
4, 25607, Note_on_c, 1, 64, 0
4, 25608, Note_on_c, 1, 67, 70
4, 25631, Note_on_c, 1, 67, 0
4, 25632, Note_on_c, 1, 57, 70
4, 25655, Note_on_c, 1, 57, 0
4, 25656, Note_on_c, 1, 66, 70
4, 25679, Note_on_c, 1, 66, 0
4, 25680, Note_on_c, 1, 60, 70
4, 25703, Note_on_c, 1, 60, 0
4, 25704, Note_on_c, 1, 66, 70
4, 25727, Note_on_c, 1, 66, 0
4, 25728, Note_on_c, 1, 57, 70
4, 25751, Note_on_c, 1, 57, 0
4, 25752, Note_on_c, 1, 66, 70
4, 25775, Note_on_c, 1, 66, 0
4, 25776, Note_on_c, 1, 60, 70
4, 25799, Note_on_c, 1, 60, 0
4, 25800, Note_on_c, 1, 66, 70
4, 25823, Note_on_c, 1, 66, 0
4, 25824, Note_on_c, 1, 59, 70
4, 25847, Note_on_c, 1, 59, 0
4, 25848, Note_on_c, 1, 66, 70
4, 25871, Note_on_c, 1, 66, 0
4, 25872, Note_on_c, 1, 63, 70
4, 25895, Note_on_c, 1, 63, 0
4, 25896, Note_on_c, 1, 66, 70
4, 25919, Note_on_c, 1, 66, 0
4, 25920, Note_on_c, 1, 57, 70
4, 25943, Note_on_c, 1, 57, 0
4, 25944, Note_on_c, 1, 63, 70
4, 25967, Note_on_c, 1, 63, 0
4, 25968, Note_on_c, 1, 59, 70
4, 25991, Note_on_c, 1, 59, 0
4, 25992, Note_on_c, 1, 63, 70
4, 26015, Note_on_c, 1, 63, 0
4, 26016, Note_on_c, 1, 55, 70
4, 26039, Note_on_c, 1, 55, 0
4, 26040, Note_on_c, 1, 64, 70
4, 26063, Note_on_c, 1, 64, 0
4, 26064, Note_on_c, 1, 59, 70
4, 26087, Note_on_c, 1, 59, 0
4, 26088, Note_on_c, 1, 64, 70
4, 26111, Note_on_c, 1, 64, 0
4, 26112, Note_on_c, 1, 51, 70
4, 26135, Note_on_c, 1, 51, 0
4, 26136, Note_on_c, 1, 59, 70
4, 26159, Note_on_c, 1, 59, 0
4, 26160, Note_on_c, 1, 54, 70
4, 26183, Note_on_c, 1, 54, 0
4, 26184, Note_on_c, 1, 59, 70
4, 26207, Note_on_c, 1, 59, 0
4, 26208, Note_on_c, 1, 52, 70
4, 26231, Note_on_c, 1, 52, 0
4, 26232, Note_on_c, 1, 59, 70
4, 26255, Note_on_c, 1, 59, 0
4, 26256, Note_on_c, 1, 55, 70
4, 26279, Note_on_c, 1, 55, 0
4, 26280, Note_on_c, 1, 59, 70
4, 26303, Note_on_c, 1, 59, 0
4, 26304, Note_on_c, 1, 47, 70
4, 26327, Note_on_c, 1, 47, 0
4, 26328, Note_on_c, 1, 59, 70
4, 26351, Note_on_c, 1, 59, 0
4, 26352, Note_on_c, 1, 51, 70
4, 26375, Note_on_c, 1, 51, 0
4, 26376, Note_on_c, 1, 59, 70
4, 26399, Note_on_c, 1, 59, 0
4, 26400, Note_on_c, 1, 48, 70
4, 26423, Note_on_c, 1, 48, 0
4, 26424, Note_on_c, 1, 59, 70
4, 26447, Note_on_c, 1, 59, 0
4, 26448, Note_on_c, 1, 55, 70
4, 26471, Note_on_c, 1, 55, 0
4, 26472, Note_on_c, 1, 59, 70
4, 26495, Note_on_c, 1, 59, 0
4, 26496, Note_on_c, 1, 48, 70
4, 26519, Note_on_c, 1, 48, 0
4, 26520, Note_on_c, 1, 57, 70
4, 26543, Note_on_c, 1, 57, 0
4, 26544, Note_on_c, 1, 55, 70
4, 26567, Note_on_c, 1, 55, 0
4, 26568, Note_on_c, 1, 57, 70
4, 26591, Note_on_c, 1, 57, 0
4, 26592, Note_on_c, 1, 47, 70
4, 26615, Note_on_c, 1, 47, 0
4, 26616, Note_on_c, 1, 57, 70
4, 26639, Note_on_c, 1, 57, 0
4, 26640, Note_on_c, 1, 54, 70
4, 26663, Note_on_c, 1, 54, 0
4, 26664, Note_on_c, 1, 57, 70
4, 26687, Note_on_c, 1, 57, 0
4, 26688, Note_on_c, 1, 48, 70
4, 26711, Note_on_c, 1, 48, 0
4, 26712, Note_on_c, 1, 55, 70
4, 26735, Note_on_c, 1, 55, 0
4, 26736, Note_on_c, 1, 52, 70
4, 26759, Note_on_c, 1, 52, 0
4, 26760, Note_on_c, 1, 55, 70
4, 26783, Note_on_c, 1, 55, 0
4, 26784, Note_on_c, 1, 45, 70
4, 26807, Note_on_c, 1, 45, 0
4, 26808, Note_on_c, 1, 54, 70
4, 26831, Note_on_c, 1, 54, 0
4, 26832, Note_on_c, 1, 48, 70
4, 26855, Note_on_c, 1, 48, 0
4, 26856, Note_on_c, 1, 54, 70
4, 26879, Note_on_c, 1, 54, 0
4, 26880, Note_on_c, 1, 47, 70
4, 26903, Note_on_c, 1, 47, 0
4, 26904, Note_on_c, 1, 57, 70
4, 26927, Note_on_c, 1, 57, 0
4, 26928, Note_on_c, 1, 54, 70
4, 26951, Note_on_c, 1, 54, 0
4, 26952, Note_on_c, 1, 57, 70
4, 26975, Note_on_c, 1, 57, 0
4, 26976, Note_on_c, 1, 55, 70
4, 26976, Note_on_c, 1, 52, 70
4, 27065, Note_on_c, 1, 55, 0
4, 27065, Note_on_c, 1, 52, 0
4, 27072, Note_on_c, 1, 40, 70
4, 27117, Note_on_c, 1, 40, 0
4, 27168, Note_on_c, 1, 68, 70
4, 27168, Note_on_c, 1, 64, 70
4, 27257, Note_on_c, 1, 68, 0
4, 27257, Note_on_c, 1, 64, 0
4, 27312, Note_on_c, 1, 71, 70
4, 27312, Note_on_c, 1, 68, 70
4, 27357, Note_on_c, 1, 71, 0
4, 27357, Note_on_c, 1, 68, 0
4, 27360, Note_on_c, 1, 69, 70
4, 27360, Note_on_c, 1, 66, 70
4, 27405, Note_on_c, 1, 69, 0
4, 27405, Note_on_c, 1, 66, 0
4, 27456, Note_on_c, 1, 57, 70
4, 27501, Note_on_c, 1, 57, 0
4, 27552, Note_on_c, 1, 56, 70
4, 27641, Note_on_c, 1, 56, 0
4, 27696, Note_on_c, 1, 68, 70
4, 27741, Note_on_c, 1, 68, 0
4, 27744, Note_on_c, 1, 66, 70
4, 27789, Note_on_c, 1, 66, 0
4, 27792, Note_on_c, 1, 59, 70
4, 27837, Note_on_c, 1, 59, 0
4, 27840, Note_on_c, 1, 64, 70
4, 27885, Note_on_c, 1, 64, 0
4, 27936, Note_on_c, 1, 68, 70
4, 27936, Note_on_c, 1, 64, 70
4, 28025, Note_on_c, 1, 68, 0
4, 28025, Note_on_c, 1, 64, 0
4, 28080, Note_on_c, 1, 66, 70
4, 28080, Note_on_c, 1, 63, 70
4, 28125, Note_on_c, 1, 66, 0
4, 28125, Note_on_c, 1, 63, 0
4, 28128, Note_on_c, 1, 68, 70
4, 28128, Note_on_c, 1, 64, 70
4, 28217, Note_on_c, 1, 68, 0
4, 28217, Note_on_c, 1, 64, 0
4, 28272, Note_on_c, 1, 66, 70
4, 28272, Note_on_c, 1, 64, 70
4, 28317, Note_on_c, 1, 66, 0
4, 28317, Note_on_c, 1, 64, 0
4, 28320, Note_on_c, 1, 66, 70
4, 28320, Note_on_c, 1, 63, 70
4, 28365, Note_on_c, 1, 66, 0
4, 28365, Note_on_c, 1, 63, 0
4, 28368, Note_on_c, 1, 64, 70
4, 28413, Note_on_c, 1, 64, 0
4, 28416, Note_on_c, 1, 66, 70
4, 28461, Note_on_c, 1, 66, 0
4, 28464, Note_on_c, 1, 54, 70
4, 28509, Note_on_c, 1, 54, 0
4, 28512, Note_on_c, 1, 59, 70
4, 28601, Note_on_c, 1, 59, 0
4, 28608, Note_on_c, 1, 47, 70
4, 28653, Note_on_c, 1, 47, 0
4, 28704, Note_on_c, 1, 68, 70
4, 28704, Note_on_c, 1, 64, 70
4, 28793, Note_on_c, 1, 68, 0
4, 28793, Note_on_c, 1, 64, 0
4, 28848, Note_on_c, 1, 71, 70
4, 28848, Note_on_c, 1, 68, 70
4, 28893, Note_on_c, 1, 71, 0
4, 28893, Note_on_c, 1, 68, 0
4, 28896, Note_on_c, 1, 69, 70
4, 28896, Note_on_c, 1, 66, 70
4, 28941, Note_on_c, 1, 69, 0
4, 28941, Note_on_c, 1, 66, 0
4, 28992, Note_on_c, 1, 57, 70
4, 29037, Note_on_c, 1, 57, 0
4, 29088, Note_on_c, 1, 56, 70
4, 29177, Note_on_c, 1, 56, 0
4, 29232, Note_on_c, 1, 68, 70
4, 29277, Note_on_c, 1, 68, 0
4, 29280, Note_on_c, 1, 66, 70
4, 29325, Note_on_c, 1, 66, 0
4, 29328, Note_on_c, 1, 59, 70
4, 29373, Note_on_c, 1, 59, 0
4, 29376, Note_on_c, 1, 64, 70
4, 29421, Note_on_c, 1, 64, 0
4, 29472, Note_on_c, 1, 68, 70
4, 29472, Note_on_c, 1, 64, 70
4, 29561, Note_on_c, 1, 68, 0
4, 29561, Note_on_c, 1, 64, 0
4, 29616, Note_on_c, 1, 66, 70
4, 29616, Note_on_c, 1, 63, 70
4, 29661, Note_on_c, 1, 66, 0
4, 29661, Note_on_c, 1, 63, 0
4, 29664, Note_on_c, 1, 68, 70
4, 29664, Note_on_c, 1, 64, 70
4, 29753, Note_on_c, 1, 68, 0
4, 29753, Note_on_c, 1, 64, 0
4, 29808, Note_on_c, 1, 66, 70
4, 29808, Note_on_c, 1, 64, 70
4, 29853, Note_on_c, 1, 66, 0
4, 29853, Note_on_c, 1, 64, 0
4, 29856, Note_on_c, 1, 66, 70
4, 29856, Note_on_c, 1, 63, 70
4, 29901, Note_on_c, 1, 66, 0
4, 29901, Note_on_c, 1, 63, 0
4, 29904, Note_on_c, 1, 64, 70
4, 29949, Note_on_c, 1, 64, 0
4, 29952, Note_on_c, 1, 66, 70
4, 29997, Note_on_c, 1, 66, 0
4, 30000, Note_on_c, 1, 54, 70
4, 30045, Note_on_c, 1, 54, 0
4, 30048, Note_on_c, 1, 59, 70
4, 30137, Note_on_c, 1, 59, 0
4, 30144, Note_on_c, 1, 47, 70
4, 30189, Note_on_c, 1, 47, 0
4, 30240, Note_on_c, 1, 63, 70
4, 30240, Note_on_c, 1, 59, 70
4, 30329, Note_on_c, 1, 63, 0
4, 30329, Note_on_c, 1, 59, 0
4, 30384, Note_on_c, 1, 59, 70
4, 30384, Note_on_c, 1, 57, 70
4, 30429, Note_on_c, 1, 59, 0
4, 30429, Note_on_c, 1, 57, 0
4, 30432, Note_on_c, 1, 59, 70
4, 30432, Note_on_c, 1, 56, 70
4, 30521, Note_on_c, 1, 59, 0
4, 30521, Note_on_c, 1, 56, 0
4, 30576, Note_on_c, 1, 71, 70
4, 30576, Note_on_c, 1, 68, 70
4, 30621, Note_on_c, 1, 71, 0
4, 30621, Note_on_c, 1, 68, 0
4, 30624, Note_on_c, 1, 73, 70
4, 30624, Note_on_c, 1, 69, 70
4, 30713, Note_on_c, 1, 73, 0
4, 30713, Note_on_c, 1, 69, 0
4, 30768, Note_on_c, 1, 59, 70
4, 30768, Note_on_c, 1, 57, 70
4, 30813, Note_on_c, 1, 59, 0
4, 30813, Note_on_c, 1, 57, 0
4, 30816, Note_on_c, 1, 59, 70
4, 30816, Note_on_c, 1, 56, 70
4, 30905, Note_on_c, 1, 59, 0
4, 30905, Note_on_c, 1, 56, 0
4, 30960, Note_on_c, 1, 71, 70
4, 30960, Note_on_c, 1, 68, 70
4, 31005, Note_on_c, 1, 71, 0
4, 31005, Note_on_c, 1, 68, 0
4, 31008, Note_on_c, 1, 73, 70
4, 31008, Note_on_c, 1, 69, 70
4, 31097, Note_on_c, 1, 73, 0
4, 31097, Note_on_c, 1, 69, 0
4, 31152, Note_on_c, 1, 61, 70
4, 31152, Note_on_c, 1, 58, 70
4, 31197, Note_on_c, 1, 61, 0
4, 31197, Note_on_c, 1, 58, 0
4, 31200, Note_on_c, 1, 59, 70
4, 31289, Note_on_c, 1, 59, 0
4, 31392, Note_on_c, 1, 59, 70
4, 31392, Note_on_c, 1, 52, 70
4, 31481, Note_on_c, 1, 59, 0
4, 31481, Note_on_c, 1, 52, 0
4, 31536, Note_on_c, 1, 59, 70
4, 31536, Note_on_c, 1, 56, 70
4, 31581, Note_on_c, 1, 59, 0
4, 31581, Note_on_c, 1, 56, 0
4, 31584, Note_on_c, 1, 57, 70
4, 31584, Note_on_c, 1, 54, 70
4, 31629, Note_on_c, 1, 57, 0
4, 31629, Note_on_c, 1, 54, 0
4, 31680, Note_on_c, 1, 45, 70
4, 31725, Note_on_c, 1, 45, 0
4, 31776, Note_on_c, 1, 44, 70
4, 31865, Note_on_c, 1, 44, 0
4, 31920, Note_on_c, 1, 68, 70
4, 31965, Note_on_c, 1, 68, 0
4, 31968, Note_on_c, 1, 66, 70
4, 32013, Note_on_c, 1, 66, 0
4, 32016, Note_on_c, 1, 59, 70
4, 32061, Note_on_c, 1, 59, 0
4, 32064, Note_on_c, 1, 64, 70
4, 32109, Note_on_c, 1, 64, 0
4, 32352, Note_on_c, 1, 57, 70
4, 32397, Note_on_c, 1, 57, 0
4, 32448, Note_on_c, 1, 69, 70
4, 32493, Note_on_c, 1, 69, 0
4, 32544, Note_on_c, 1, 68, 70
4, 32589, Note_on_c, 1, 68, 0
4, 32592, Note_on_c, 1, 69, 70
4, 32637, Note_on_c, 1, 69, 0
4, 32640, Note_on_c, 1, 71, 70
4, 32685, Note_on_c, 1, 71, 0
4, 32688, Note_on_c, 1, 59, 70
4, 32733, Note_on_c, 1, 59, 0
4, 32736, Note_on_c, 1, 64, 70
4, 32825, Note_on_c, 1, 64, 0
4, 32832, Note_on_c, 1, 52, 70
4, 32877, Note_on_c, 1, 52, 0
4, 32928, Note_on_c, 1, 63, 70
4, 32928, Note_on_c, 1, 59, 70
4, 33017, Note_on_c, 1, 63, 0
4, 33017, Note_on_c, 1, 59, 0
4, 33072, Note_on_c, 1, 59, 70
4, 33072, Note_on_c, 1, 57, 70
4, 33117, Note_on_c, 1, 59, 0
4, 33117, Note_on_c, 1, 57, 0
4, 33120, Note_on_c, 1, 59, 70
4, 33120, Note_on_c, 1, 56, 70
4, 33209, Note_on_c, 1, 59, 0
4, 33209, Note_on_c, 1, 56, 0
4, 33264, Note_on_c, 1, 71, 70
4, 33264, Note_on_c, 1, 68, 70
4, 33309, Note_on_c, 1, 71, 0
4, 33309, Note_on_c, 1, 68, 0
4, 33312, Note_on_c, 1, 73, 70
4, 33312, Note_on_c, 1, 69, 70
4, 33401, Note_on_c, 1, 73, 0
4, 33401, Note_on_c, 1, 69, 0
4, 33456, Note_on_c, 1, 59, 70
4, 33456, Note_on_c, 1, 57, 70
4, 33501, Note_on_c, 1, 59, 0
4, 33501, Note_on_c, 1, 57, 0
4, 33504, Note_on_c, 1, 59, 70
4, 33504, Note_on_c, 1, 56, 70
4, 33593, Note_on_c, 1, 59, 0
4, 33593, Note_on_c, 1, 56, 0
4, 33648, Note_on_c, 1, 71, 70
4, 33648, Note_on_c, 1, 68, 70
4, 33693, Note_on_c, 1, 71, 0
4, 33693, Note_on_c, 1, 68, 0
4, 33696, Note_on_c, 1, 73, 70
4, 33696, Note_on_c, 1, 69, 70
4, 33785, Note_on_c, 1, 73, 0
4, 33785, Note_on_c, 1, 69, 0
4, 33840, Note_on_c, 1, 61, 70
4, 33840, Note_on_c, 1, 58, 70
4, 33885, Note_on_c, 1, 61, 0
4, 33885, Note_on_c, 1, 58, 0
4, 33888, Note_on_c, 1, 59, 70
4, 33977, Note_on_c, 1, 59, 0
4, 34080, Note_on_c, 1, 59, 70
4, 34080, Note_on_c, 1, 52, 70
4, 34169, Note_on_c, 1, 59, 0
4, 34169, Note_on_c, 1, 52, 0
4, 34224, Note_on_c, 1, 59, 70
4, 34224, Note_on_c, 1, 56, 70
4, 34269, Note_on_c, 1, 59, 0
4, 34269, Note_on_c, 1, 56, 0
4, 34272, Note_on_c, 1, 57, 70
4, 34272, Note_on_c, 1, 54, 70
4, 34317, Note_on_c, 1, 57, 0
4, 34317, Note_on_c, 1, 54, 0
4, 34368, Note_on_c, 1, 45, 70
4, 34413, Note_on_c, 1, 45, 0
4, 34464, Note_on_c, 1, 44, 70
4, 34553, Note_on_c, 1, 44, 0
4, 34608, Note_on_c, 1, 68, 70
4, 34653, Note_on_c, 1, 68, 0
4, 34656, Note_on_c, 1, 66, 70
4, 34701, Note_on_c, 1, 66, 0
4, 34704, Note_on_c, 1, 59, 70
4, 34749, Note_on_c, 1, 59, 0
4, 34752, Note_on_c, 1, 64, 70
4, 34797, Note_on_c, 1, 64, 0
4, 35040, Note_on_c, 1, 57, 70
4, 35085, Note_on_c, 1, 57, 0
4, 35136, Note_on_c, 1, 69, 70
4, 35181, Note_on_c, 1, 69, 0
4, 35232, Note_on_c, 1, 68, 70
4, 35277, Note_on_c, 1, 68, 0
4, 35280, Note_on_c, 1, 69, 70
4, 35325, Note_on_c, 1, 69, 0
4, 35328, Note_on_c, 1, 71, 70
4, 35373, Note_on_c, 1, 71, 0
4, 35376, Note_on_c, 1, 59, 70
4, 35421, Note_on_c, 1, 59, 0
4, 35424, Note_on_c, 1, 64, 70
4, 35513, Note_on_c, 1, 64, 0
4, 35520, Note_on_c, 1, 52, 70
4, 35565, Note_on_c, 1, 52, 0
4, 35616, Note_on_c, 1, 52, 70
4, 35639, Note_on_c, 1, 52, 0
4, 35640, Note_on_c, 1, 59, 70
4, 35663, Note_on_c, 1, 59, 0
4, 35664, Note_on_c, 1, 55, 70
4, 35687, Note_on_c, 1, 55, 0
4, 35688, Note_on_c, 1, 59, 70
4, 35711, Note_on_c, 1, 59, 0
4, 35712, Note_on_c, 1, 52, 70
4, 35735, Note_on_c, 1, 52, 0
4, 35736, Note_on_c, 1, 59, 70
4, 35759, Note_on_c, 1, 59, 0
4, 35760, Note_on_c, 1, 55, 70
4, 35783, Note_on_c, 1, 55, 0
4, 35784, Note_on_c, 1, 59, 70
4, 35807, Note_on_c, 1, 59, 0
4, 35808, Note_on_c, 1, 54, 70
4, 35831, Note_on_c, 1, 54, 0
4, 35832, Note_on_c, 1, 59, 70
4, 35855, Note_on_c, 1, 59, 0
4, 35856, Note_on_c, 1, 57, 70
4, 35879, Note_on_c, 1, 57, 0
4, 35880, Note_on_c, 1, 59, 70
4, 35903, Note_on_c, 1, 59, 0
4, 35904, Note_on_c, 1, 54, 70
4, 35927, Note_on_c, 1, 54, 0
4, 35928, Note_on_c, 1, 59, 70
4, 35951, Note_on_c, 1, 59, 0
4, 35952, Note_on_c, 1, 57, 70
4, 35975, Note_on_c, 1, 57, 0
4, 35976, Note_on_c, 1, 59, 70
4, 35999, Note_on_c, 1, 59, 0
4, 36000, Note_on_c, 1, 52, 70
4, 36023, Note_on_c, 1, 52, 0
4, 36024, Note_on_c, 1, 59, 70
4, 36047, Note_on_c, 1, 59, 0
4, 36048, Note_on_c, 1, 55, 70
4, 36071, Note_on_c, 1, 55, 0
4, 36072, Note_on_c, 1, 59, 70
4, 36095, Note_on_c, 1, 59, 0
4, 36096, Note_on_c, 1, 51, 70
4, 36119, Note_on_c, 1, 51, 0
4, 36120, Note_on_c, 1, 59, 70
4, 36143, Note_on_c, 1, 59, 0
4, 36144, Note_on_c, 1, 54, 70
4, 36167, Note_on_c, 1, 54, 0
4, 36168, Note_on_c, 1, 59, 70
4, 36191, Note_on_c, 1, 59, 0
4, 36192, Note_on_c, 1, 52, 70
4, 36215, Note_on_c, 1, 52, 0
4, 36216, Note_on_c, 1, 59, 70
4, 36239, Note_on_c, 1, 59, 0
4, 36240, Note_on_c, 1, 55, 70
4, 36263, Note_on_c, 1, 55, 0
4, 36264, Note_on_c, 1, 59, 70
4, 36287, Note_on_c, 1, 59, 0
4, 36288, Note_on_c, 1, 47, 70
4, 36311, Note_on_c, 1, 47, 0
4, 36312, Note_on_c, 1, 59, 70
4, 36335, Note_on_c, 1, 59, 0
4, 36336, Note_on_c, 1, 51, 70
4, 36359, Note_on_c, 1, 51, 0
4, 36360, Note_on_c, 1, 59, 70
4, 36383, Note_on_c, 1, 59, 0
4, 36384, Note_on_c, 1, 52, 70
4, 36407, Note_on_c, 1, 52, 0
4, 36408, Note_on_c, 1, 59, 70
4, 36431, Note_on_c, 1, 59, 0
4, 36432, Note_on_c, 1, 55, 70
4, 36455, Note_on_c, 1, 55, 0
4, 36456, Note_on_c, 1, 59, 70
4, 36479, Note_on_c, 1, 59, 0
4, 36480, Note_on_c, 1, 52, 70
4, 36503, Note_on_c, 1, 52, 0
4, 36504, Note_on_c, 1, 59, 70
4, 36527, Note_on_c, 1, 59, 0
4, 36528, Note_on_c, 1, 55, 70
4, 36551, Note_on_c, 1, 55, 0
4, 36552, Note_on_c, 1, 59, 70
4, 36575, Note_on_c, 1, 59, 0
4, 36576, Note_on_c, 1, 48, 70
4, 36599, Note_on_c, 1, 48, 0
4, 36600, Note_on_c, 1, 57, 70
4, 36623, Note_on_c, 1, 57, 0
4, 36624, Note_on_c, 1, 52, 70
4, 36647, Note_on_c, 1, 52, 0
4, 36648, Note_on_c, 1, 57, 70
4, 36671, Note_on_c, 1, 57, 0
4, 36672, Note_on_c, 1, 48, 70
4, 36695, Note_on_c, 1, 48, 0
4, 36696, Note_on_c, 1, 57, 70
4, 36719, Note_on_c, 1, 57, 0
4, 36720, Note_on_c, 1, 52, 70
4, 36743, Note_on_c, 1, 52, 0
4, 36744, Note_on_c, 1, 57, 70
4, 36767, Note_on_c, 1, 57, 0
4, 36768, Note_on_c, 1, 50, 70
4, 36791, Note_on_c, 1, 50, 0
4, 36792, Note_on_c, 1, 60, 70
4, 36815, Note_on_c, 1, 60, 0
4, 36816, Note_on_c, 1, 57, 70
4, 36839, Note_on_c, 1, 57, 0
4, 36840, Note_on_c, 1, 60, 70
4, 36863, Note_on_c, 1, 60, 0
4, 36864, Note_on_c, 1, 50, 70
4, 36887, Note_on_c, 1, 50, 0
4, 36888, Note_on_c, 1, 60, 70
4, 36911, Note_on_c, 1, 60, 0
4, 36912, Note_on_c, 1, 57, 70
4, 36935, Note_on_c, 1, 57, 0
4, 36936, Note_on_c, 1, 60, 70
4, 36959, Note_on_c, 1, 60, 0
4, 36960, Note_on_c, 1, 59, 70
4, 36960, Note_on_c, 1, 55, 70
4, 37049, Note_on_c, 1, 59, 0
4, 37049, Note_on_c, 1, 55, 0
4, 37056, Note_on_c, 1, 43, 70
4, 37101, Note_on_c, 1, 43, 0
4, 37152, Note_on_c, 1, 59, 70
4, 37175, Note_on_c, 1, 59, 0
4, 37176, Note_on_c, 1, 67, 70
4, 37199, Note_on_c, 1, 67, 0
4, 37200, Note_on_c, 1, 62, 70
4, 37223, Note_on_c, 1, 62, 0
4, 37224, Note_on_c, 1, 67, 70
4, 37247, Note_on_c, 1, 67, 0
4, 37248, Note_on_c, 1, 59, 70
4, 37271, Note_on_c, 1, 59, 0
4, 37272, Note_on_c, 1, 67, 70
4, 37295, Note_on_c, 1, 67, 0
4, 37296, Note_on_c, 1, 62, 70
4, 37319, Note_on_c, 1, 62, 0
4, 37320, Note_on_c, 1, 67, 70
4, 37343, Note_on_c, 1, 67, 0
4, 37344, Note_on_c, 1, 60, 70
4, 37367, Note_on_c, 1, 60, 0
4, 37368, Note_on_c, 1, 67, 70
4, 37391, Note_on_c, 1, 67, 0
4, 37392, Note_on_c, 1, 64, 70
4, 37415, Note_on_c, 1, 64, 0
4, 37416, Note_on_c, 1, 67, 70
4, 37439, Note_on_c, 1, 67, 0
4, 37440, Note_on_c, 1, 60, 70
4, 37463, Note_on_c, 1, 60, 0
4, 37464, Note_on_c, 1, 67, 70
4, 37487, Note_on_c, 1, 67, 0
4, 37488, Note_on_c, 1, 64, 70
4, 37511, Note_on_c, 1, 64, 0
4, 37512, Note_on_c, 1, 67, 70
4, 37535, Note_on_c, 1, 67, 0
4, 37536, Note_on_c, 1, 57, 70
4, 37559, Note_on_c, 1, 57, 0
4, 37560, Note_on_c, 1, 66, 70
4, 37583, Note_on_c, 1, 66, 0
4, 37584, Note_on_c, 1, 60, 70
4, 37607, Note_on_c, 1, 60, 0
4, 37608, Note_on_c, 1, 66, 70
4, 37631, Note_on_c, 1, 66, 0
4, 37632, Note_on_c, 1, 57, 70
4, 37655, Note_on_c, 1, 57, 0
4, 37656, Note_on_c, 1, 66, 70
4, 37679, Note_on_c, 1, 66, 0
4, 37680, Note_on_c, 1, 60, 70
4, 37703, Note_on_c, 1, 60, 0
4, 37704, Note_on_c, 1, 66, 70
4, 37727, Note_on_c, 1, 66, 0
4, 37728, Note_on_c, 1, 59, 70
4, 37751, Note_on_c, 1, 59, 0
4, 37752, Note_on_c, 1, 66, 70
4, 37775, Note_on_c, 1, 66, 0
4, 37776, Note_on_c, 1, 63, 70
4, 37799, Note_on_c, 1, 63, 0
4, 37800, Note_on_c, 1, 66, 70
4, 37823, Note_on_c, 1, 66, 0
4, 37824, Note_on_c, 1, 57, 70
4, 37847, Note_on_c, 1, 57, 0
4, 37848, Note_on_c, 1, 63, 70
4, 37871, Note_on_c, 1, 63, 0
4, 37872, Note_on_c, 1, 59, 70
4, 37895, Note_on_c, 1, 59, 0
4, 37896, Note_on_c, 1, 63, 70
4, 37919, Note_on_c, 1, 63, 0
4, 37920, Note_on_c, 1, 55, 70
4, 37943, Note_on_c, 1, 55, 0
4, 37944, Note_on_c, 1, 64, 70
4, 37967, Note_on_c, 1, 64, 0
4, 37968, Note_on_c, 1, 59, 70
4, 37991, Note_on_c, 1, 59, 0
4, 37992, Note_on_c, 1, 64, 70
4, 38015, Note_on_c, 1, 64, 0
4, 38016, Note_on_c, 1, 51, 70
4, 38039, Note_on_c, 1, 51, 0
4, 38040, Note_on_c, 1, 59, 70
4, 38063, Note_on_c, 1, 59, 0
4, 38064, Note_on_c, 1, 54, 70
4, 38087, Note_on_c, 1, 54, 0
4, 38088, Note_on_c, 1, 59, 70
4, 38111, Note_on_c, 1, 59, 0
4, 38112, Note_on_c, 1, 52, 70
4, 38135, Note_on_c, 1, 52, 0
4, 38136, Note_on_c, 1, 59, 70
4, 38159, Note_on_c, 1, 59, 0
4, 38160, Note_on_c, 1, 55, 70
4, 38183, Note_on_c, 1, 55, 0
4, 38184, Note_on_c, 1, 59, 70
4, 38207, Note_on_c, 1, 59, 0
4, 38208, Note_on_c, 1, 47, 70
4, 38231, Note_on_c, 1, 47, 0
4, 38232, Note_on_c, 1, 59, 70
4, 38255, Note_on_c, 1, 59, 0
4, 38256, Note_on_c, 1, 51, 70
4, 38279, Note_on_c, 1, 51, 0
4, 38280, Note_on_c, 1, 59, 70
4, 38303, Note_on_c, 1, 59, 0
4, 38304, Note_on_c, 1, 48, 70
4, 38327, Note_on_c, 1, 48, 0
4, 38328, Note_on_c, 1, 59, 70
4, 38351, Note_on_c, 1, 59, 0
4, 38352, Note_on_c, 1, 55, 70
4, 38375, Note_on_c, 1, 55, 0
4, 38376, Note_on_c, 1, 59, 70
4, 38399, Note_on_c, 1, 59, 0
4, 38400, Note_on_c, 1, 48, 70
4, 38423, Note_on_c, 1, 48, 0
4, 38424, Note_on_c, 1, 57, 70
4, 38447, Note_on_c, 1, 57, 0
4, 38448, Note_on_c, 1, 55, 70
4, 38471, Note_on_c, 1, 55, 0
4, 38472, Note_on_c, 1, 57, 70
4, 38495, Note_on_c, 1, 57, 0
4, 38496, Note_on_c, 1, 47, 70
4, 38519, Note_on_c, 1, 47, 0
4, 38520, Note_on_c, 1, 57, 70
4, 38543, Note_on_c, 1, 57, 0
4, 38544, Note_on_c, 1, 54, 70
4, 38567, Note_on_c, 1, 54, 0
4, 38568, Note_on_c, 1, 57, 70
4, 38591, Note_on_c, 1, 57, 0
4, 38592, Note_on_c, 1, 48, 70
4, 38615, Note_on_c, 1, 48, 0
4, 38616, Note_on_c, 1, 55, 70
4, 38639, Note_on_c, 1, 55, 0
4, 38640, Note_on_c, 1, 52, 70
4, 38663, Note_on_c, 1, 52, 0
4, 38664, Note_on_c, 1, 55, 70
4, 38687, Note_on_c, 1, 55, 0
4, 38688, Note_on_c, 1, 45, 70
4, 38711, Note_on_c, 1, 45, 0
4, 38712, Note_on_c, 1, 54, 70
4, 38735, Note_on_c, 1, 54, 0
4, 38736, Note_on_c, 1, 48, 70
4, 38759, Note_on_c, 1, 48, 0
4, 38760, Note_on_c, 1, 54, 70
4, 38783, Note_on_c, 1, 54, 0
4, 38784, Note_on_c, 1, 47, 70
4, 38807, Note_on_c, 1, 47, 0
4, 38808, Note_on_c, 1, 57, 70
4, 38831, Note_on_c, 1, 57, 0
4, 38832, Note_on_c, 1, 54, 70
4, 38855, Note_on_c, 1, 54, 0
4, 38856, Note_on_c, 1, 57, 70
4, 38879, Note_on_c, 1, 57, 0
4, 38880, Note_on_c, 1, 55, 70
4, 38880, Note_on_c, 1, 52, 70
4, 38969, Note_on_c, 1, 55, 0
4, 38969, Note_on_c, 1, 52, 0
4, 38976, Note_on_c, 1, 40, 70
4, 39021, Note_on_c, 1, 40, 0
4, 39072, Note_on_c, 1, 59, 70
4, 39095, Note_on_c, 1, 59, 0
4, 39096, Note_on_c, 1, 67, 70
4, 39119, Note_on_c, 1, 67, 0
4, 39120, Note_on_c, 1, 62, 70
4, 39143, Note_on_c, 1, 62, 0
4, 39144, Note_on_c, 1, 67, 70
4, 39167, Note_on_c, 1, 67, 0
4, 39168, Note_on_c, 1, 59, 70
4, 39191, Note_on_c, 1, 59, 0
4, 39192, Note_on_c, 1, 67, 70
4, 39215, Note_on_c, 1, 67, 0
4, 39216, Note_on_c, 1, 62, 70
4, 39239, Note_on_c, 1, 62, 0
4, 39240, Note_on_c, 1, 67, 70
4, 39263, Note_on_c, 1, 67, 0
4, 39264, Note_on_c, 1, 60, 70
4, 39287, Note_on_c, 1, 60, 0
4, 39288, Note_on_c, 1, 67, 70
4, 39311, Note_on_c, 1, 67, 0
4, 39312, Note_on_c, 1, 64, 70
4, 39335, Note_on_c, 1, 64, 0
4, 39336, Note_on_c, 1, 67, 70
4, 39359, Note_on_c, 1, 67, 0
4, 39360, Note_on_c, 1, 60, 70
4, 39383, Note_on_c, 1, 60, 0
4, 39384, Note_on_c, 1, 67, 70
4, 39407, Note_on_c, 1, 67, 0
4, 39408, Note_on_c, 1, 64, 70
4, 39431, Note_on_c, 1, 64, 0
4, 39432, Note_on_c, 1, 67, 70
4, 39455, Note_on_c, 1, 67, 0
4, 39456, Note_on_c, 1, 57, 70
4, 39479, Note_on_c, 1, 57, 0
4, 39480, Note_on_c, 1, 66, 70
4, 39503, Note_on_c, 1, 66, 0
4, 39504, Note_on_c, 1, 60, 70
4, 39527, Note_on_c, 1, 60, 0
4, 39528, Note_on_c, 1, 66, 70
4, 39551, Note_on_c, 1, 66, 0
4, 39552, Note_on_c, 1, 57, 70
4, 39575, Note_on_c, 1, 57, 0
4, 39576, Note_on_c, 1, 66, 70
4, 39599, Note_on_c, 1, 66, 0
4, 39600, Note_on_c, 1, 60, 70
4, 39623, Note_on_c, 1, 60, 0
4, 39624, Note_on_c, 1, 66, 70
4, 39647, Note_on_c, 1, 66, 0
4, 39648, Note_on_c, 1, 59, 70
4, 39671, Note_on_c, 1, 59, 0
4, 39672, Note_on_c, 1, 66, 70
4, 39695, Note_on_c, 1, 66, 0
4, 39696, Note_on_c, 1, 62, 70
4, 39719, Note_on_c, 1, 62, 0
4, 39720, Note_on_c, 1, 66, 70
4, 39743, Note_on_c, 1, 66, 0
4, 39744, Note_on_c, 1, 59, 70
4, 39767, Note_on_c, 1, 59, 0
4, 39768, Note_on_c, 1, 66, 70
4, 39791, Note_on_c, 1, 66, 0
4, 39792, Note_on_c, 1, 62, 70
4, 39815, Note_on_c, 1, 62, 0
4, 39816, Note_on_c, 1, 66, 70
4, 39839, Note_on_c, 1, 66, 0
4, 39840, Note_on_c, 1, 55, 70
4, 39863, Note_on_c, 1, 55, 0
4, 39864, Note_on_c, 1, 64, 70
4, 39887, Note_on_c, 1, 64, 0
4, 39888, Note_on_c, 1, 59, 70
4, 39911, Note_on_c, 1, 59, 0
4, 39912, Note_on_c, 1, 64, 70
4, 39935, Note_on_c, 1, 64, 0
4, 39936, Note_on_c, 1, 55, 70
4, 39959, Note_on_c, 1, 55, 0
4, 39960, Note_on_c, 1, 64, 70
4, 39983, Note_on_c, 1, 64, 0
4, 39984, Note_on_c, 1, 59, 70
4, 40007, Note_on_c, 1, 59, 0
4, 40008, Note_on_c, 1, 64, 70
4, 40031, Note_on_c, 1, 64, 0
4, 40032, Note_on_c, 1, 57, 70
4, 40055, Note_on_c, 1, 57, 0
4, 40056, Note_on_c, 1, 64, 70
4, 40079, Note_on_c, 1, 64, 0
4, 40080, Note_on_c, 1, 60, 70
4, 40103, Note_on_c, 1, 60, 0
4, 40104, Note_on_c, 1, 64, 70
4, 40127, Note_on_c, 1, 64, 0
4, 40128, Note_on_c, 1, 57, 70
4, 40151, Note_on_c, 1, 57, 0
4, 40152, Note_on_c, 1, 64, 70
4, 40175, Note_on_c, 1, 64, 0
4, 40176, Note_on_c, 1, 60, 70
4, 40199, Note_on_c, 1, 60, 0
4, 40200, Note_on_c, 1, 64, 70
4, 40223, Note_on_c, 1, 64, 0
4, 40224, Note_on_c, 1, 54, 70
4, 40247, Note_on_c, 1, 54, 0
4, 40248, Note_on_c, 1, 62, 70
4, 40271, Note_on_c, 1, 62, 0
4, 40272, Note_on_c, 1, 57, 70
4, 40295, Note_on_c, 1, 57, 0
4, 40296, Note_on_c, 1, 62, 70
4, 40319, Note_on_c, 1, 62, 0
4, 40320, Note_on_c, 1, 54, 70
4, 40343, Note_on_c, 1, 54, 0
4, 40344, Note_on_c, 1, 62, 70
4, 40367, Note_on_c, 1, 62, 0
4, 40368, Note_on_c, 1, 57, 70
4, 40391, Note_on_c, 1, 57, 0
4, 40392, Note_on_c, 1, 62, 70
4, 40415, Note_on_c, 1, 62, 0
4, 40416, Note_on_c, 1, 55, 70
4, 40439, Note_on_c, 1, 55, 0
4, 40440, Note_on_c, 1, 62, 70
4, 40463, Note_on_c, 1, 62, 0
4, 40464, Note_on_c, 1, 59, 70
4, 40487, Note_on_c, 1, 59, 0
4, 40488, Note_on_c, 1, 62, 70
4, 40511, Note_on_c, 1, 62, 0
4, 40512, Note_on_c, 1, 47, 70
4, 40535, Note_on_c, 1, 47, 0
4, 40536, Note_on_c, 1, 55, 70
4, 40559, Note_on_c, 1, 55, 0
4, 40560, Note_on_c, 1, 50, 70
4, 40583, Note_on_c, 1, 50, 0
4, 40584, Note_on_c, 1, 55, 70
4, 40607, Note_on_c, 1, 55, 0
4, 40608, Note_on_c, 1, 48, 70
4, 40631, Note_on_c, 1, 48, 0
4, 40632, Note_on_c, 1, 55, 70
4, 40655, Note_on_c, 1, 55, 0
4, 40656, Note_on_c, 1, 52, 70
4, 40679, Note_on_c, 1, 52, 0
4, 40680, Note_on_c, 1, 55, 70
4, 40703, Note_on_c, 1, 55, 0
4, 40704, Note_on_c, 1, 50, 70
4, 40727, Note_on_c, 1, 50, 0
4, 40728, Note_on_c, 1, 60, 70
4, 40751, Note_on_c, 1, 60, 0
4, 40752, Note_on_c, 1, 57, 70
4, 40775, Note_on_c, 1, 57, 0
4, 40776, Note_on_c, 1, 60, 70
4, 40799, Note_on_c, 1, 60, 0
4, 40800, Note_on_c, 1, 60, 70
4, 40800, Note_on_c, 1, 55, 70
4, 40896, Note_on_c, 1, 60, 0
4, 40896, Note_on_c, 1, 59, 70
4, 40941, Note_on_c, 1, 59, 0
4, 40941, Note_on_c, 1, 55, 0
4, 40992, Note_on_c, 1, 52, 70
4, 41015, Note_on_c, 1, 52, 0
4, 41016, Note_on_c, 1, 59, 70
4, 41039, Note_on_c, 1, 59, 0
4, 41040, Note_on_c, 1, 55, 70
4, 41063, Note_on_c, 1, 55, 0
4, 41064, Note_on_c, 1, 59, 70
4, 41087, Note_on_c, 1, 59, 0
4, 41088, Note_on_c, 1, 52, 70
4, 41111, Note_on_c, 1, 52, 0
4, 41112, Note_on_c, 1, 59, 70
4, 41135, Note_on_c, 1, 59, 0
4, 41136, Note_on_c, 1, 55, 70
4, 41159, Note_on_c, 1, 55, 0
4, 41160, Note_on_c, 1, 59, 70
4, 41183, Note_on_c, 1, 59, 0
4, 41184, Note_on_c, 1, 54, 70
4, 41207, Note_on_c, 1, 54, 0
4, 41208, Note_on_c, 1, 59, 70
4, 41231, Note_on_c, 1, 59, 0
4, 41232, Note_on_c, 1, 57, 70
4, 41255, Note_on_c, 1, 57, 0
4, 41256, Note_on_c, 1, 59, 70
4, 41279, Note_on_c, 1, 59, 0
4, 41280, Note_on_c, 1, 54, 70
4, 41303, Note_on_c, 1, 54, 0
4, 41304, Note_on_c, 1, 59, 70
4, 41327, Note_on_c, 1, 59, 0
4, 41328, Note_on_c, 1, 57, 70
4, 41351, Note_on_c, 1, 57, 0
4, 41352, Note_on_c, 1, 59, 70
4, 41375, Note_on_c, 1, 59, 0
4, 41376, Note_on_c, 1, 52, 70
4, 41399, Note_on_c, 1, 52, 0
4, 41400, Note_on_c, 1, 59, 70
4, 41423, Note_on_c, 1, 59, 0
4, 41424, Note_on_c, 1, 55, 70
4, 41447, Note_on_c, 1, 55, 0
4, 41448, Note_on_c, 1, 59, 70
4, 41471, Note_on_c, 1, 59, 0
4, 41472, Note_on_c, 1, 51, 70
4, 41495, Note_on_c, 1, 51, 0
4, 41496, Note_on_c, 1, 59, 70
4, 41519, Note_on_c, 1, 59, 0
4, 41520, Note_on_c, 1, 54, 70
4, 41543, Note_on_c, 1, 54, 0
4, 41544, Note_on_c, 1, 59, 70
4, 41567, Note_on_c, 1, 59, 0
4, 41568, Note_on_c, 1, 52, 70
4, 41591, Note_on_c, 1, 52, 0
4, 41592, Note_on_c, 1, 59, 70
4, 41615, Note_on_c, 1, 59, 0
4, 41616, Note_on_c, 1, 55, 70
4, 41639, Note_on_c, 1, 55, 0
4, 41640, Note_on_c, 1, 59, 70
4, 41663, Note_on_c, 1, 59, 0
4, 41664, Note_on_c, 1, 47, 70
4, 41687, Note_on_c, 1, 47, 0
4, 41688, Note_on_c, 1, 59, 70
4, 41711, Note_on_c, 1, 59, 0
4, 41712, Note_on_c, 1, 51, 70
4, 41735, Note_on_c, 1, 51, 0
4, 41736, Note_on_c, 1, 59, 70
4, 41759, Note_on_c, 1, 59, 0
4, 41760, Note_on_c, 1, 48, 70
4, 41783, Note_on_c, 1, 48, 0
4, 41784, Note_on_c, 1, 59, 70
4, 41807, Note_on_c, 1, 59, 0
4, 41808, Note_on_c, 1, 55, 70
4, 41831, Note_on_c, 1, 55, 0
4, 41832, Note_on_c, 1, 59, 70
4, 41855, Note_on_c, 1, 59, 0
4, 41856, Note_on_c, 1, 48, 70
4, 41879, Note_on_c, 1, 48, 0
4, 41880, Note_on_c, 1, 57, 70
4, 41903, Note_on_c, 1, 57, 0
4, 41904, Note_on_c, 1, 55, 70
4, 41927, Note_on_c, 1, 55, 0
4, 41928, Note_on_c, 1, 57, 70
4, 41951, Note_on_c, 1, 57, 0
4, 41952, Note_on_c, 1, 47, 70
4, 41975, Note_on_c, 1, 47, 0
4, 41976, Note_on_c, 1, 57, 70
4, 41999, Note_on_c, 1, 57, 0
4, 42000, Note_on_c, 1, 54, 70
4, 42023, Note_on_c, 1, 54, 0
4, 42024, Note_on_c, 1, 57, 70
4, 42047, Note_on_c, 1, 57, 0
4, 42048, Note_on_c, 1, 48, 70
4, 42071, Note_on_c, 1, 48, 0
4, 42072, Note_on_c, 1, 55, 70
4, 42095, Note_on_c, 1, 55, 0
4, 42096, Note_on_c, 1, 52, 70
4, 42119, Note_on_c, 1, 52, 0
4, 42120, Note_on_c, 1, 55, 70
4, 42143, Note_on_c, 1, 55, 0
4, 42144, Note_on_c, 1, 45, 70
4, 42167, Note_on_c, 1, 45, 0
4, 42168, Note_on_c, 1, 54, 70
4, 42191, Note_on_c, 1, 54, 0
4, 42192, Note_on_c, 1, 48, 70
4, 42215, Note_on_c, 1, 48, 0
4, 42216, Note_on_c, 1, 54, 70
4, 42239, Note_on_c, 1, 54, 0
4, 42240, Note_on_c, 1, 47, 70
4, 42263, Note_on_c, 1, 47, 0
4, 42264, Note_on_c, 1, 57, 70
4, 42287, Note_on_c, 1, 57, 0
4, 42288, Note_on_c, 1, 54, 70
4, 42311, Note_on_c, 1, 54, 0
4, 42312, Note_on_c, 1, 57, 70
4, 42335, Note_on_c, 1, 57, 0
4, 42336, Note_on_c, 1, 55, 70
4, 42336, Note_on_c, 1, 52, 70
4, 42425, Note_on_c, 1, 55, 0
4, 42425, Note_on_c, 1, 52, 0
4, 42432, Note_on_c, 1, 40, 70
4, 42477, Note_on_c, 1, 40, 0
4, 42528, Note_on_c, 1, 64, 70
4, 42551, Note_on_c, 1, 64, 0
4, 42552, Note_on_c, 1, 71, 70
4, 42575, Note_on_c, 1, 71, 0
4, 42576, Note_on_c, 1, 68, 70
4, 42599, Note_on_c, 1, 68, 0
4, 42600, Note_on_c, 1, 71, 70
4, 42623, Note_on_c, 1, 71, 0
4, 42624, Note_on_c, 1, 64, 70
4, 42647, Note_on_c, 1, 64, 0
4, 42648, Note_on_c, 1, 71, 70
4, 42671, Note_on_c, 1, 71, 0
4, 42672, Note_on_c, 1, 68, 70
4, 42695, Note_on_c, 1, 68, 0
4, 42696, Note_on_c, 1, 71, 70
4, 42719, Note_on_c, 1, 71, 0
4, 42720, Note_on_c, 1, 59, 70
4, 42743, Note_on_c, 1, 59, 0
4, 42744, Note_on_c, 1, 69, 70
4, 42767, Note_on_c, 1, 69, 0
4, 42768, Note_on_c, 1, 66, 70
4, 42791, Note_on_c, 1, 66, 0
4, 42792, Note_on_c, 1, 69, 70
4, 42815, Note_on_c, 1, 69, 0
4, 42816, Note_on_c, 1, 59, 70
4, 42839, Note_on_c, 1, 59, 0
4, 42840, Note_on_c, 1, 69, 70
4, 42863, Note_on_c, 1, 69, 0
4, 42864, Note_on_c, 1, 66, 70
4, 42887, Note_on_c, 1, 66, 0
4, 42888, Note_on_c, 1, 69, 70
4, 42911, Note_on_c, 1, 69, 0
4, 42912, Note_on_c, 1, 64, 70
4, 42935, Note_on_c, 1, 64, 0
4, 42936, Note_on_c, 1, 71, 70
4, 42959, Note_on_c, 1, 71, 0
4, 42960, Note_on_c, 1, 68, 70
4, 42983, Note_on_c, 1, 68, 0
4, 42984, Note_on_c, 1, 71, 70
4, 43007, Note_on_c, 1, 71, 0
4, 43008, Note_on_c, 1, 63, 70
4, 43031, Note_on_c, 1, 63, 0
4, 43032, Note_on_c, 1, 71, 70
4, 43055, Note_on_c, 1, 71, 0
4, 43056, Note_on_c, 1, 66, 70
4, 43079, Note_on_c, 1, 66, 0
4, 43080, Note_on_c, 1, 71, 70
4, 43103, Note_on_c, 1, 71, 0
4, 43104, Note_on_c, 1, 64, 70
4, 43127, Note_on_c, 1, 64, 0
4, 43128, Note_on_c, 1, 71, 70
4, 43151, Note_on_c, 1, 71, 0
4, 43152, Note_on_c, 1, 68, 70
4, 43175, Note_on_c, 1, 68, 0
4, 43176, Note_on_c, 1, 71, 70
4, 43199, Note_on_c, 1, 71, 0
4, 43200, Note_on_c, 1, 59, 70
4, 43223, Note_on_c, 1, 59, 0
4, 43224, Note_on_c, 1, 71, 70
4, 43247, Note_on_c, 1, 71, 0
4, 43248, Note_on_c, 1, 63, 70
4, 43271, Note_on_c, 1, 63, 0
4, 43272, Note_on_c, 1, 71, 70
4, 43295, Note_on_c, 1, 71, 0
4, 43296, Note_on_c, 1, 64, 70
4, 43319, Note_on_c, 1, 64, 0
4, 43320, Note_on_c, 1, 71, 70
4, 43343, Note_on_c, 1, 71, 0
4, 43344, Note_on_c, 1, 68, 70
4, 43367, Note_on_c, 1, 68, 0
4, 43368, Note_on_c, 1, 71, 70
4, 43391, Note_on_c, 1, 71, 0
4, 43392, Note_on_c, 1, 64, 70
4, 43415, Note_on_c, 1, 64, 0
4, 43416, Note_on_c, 1, 70, 70
4, 43439, Note_on_c, 1, 70, 0
4, 43440, Note_on_c, 1, 66, 70
4, 43463, Note_on_c, 1, 66, 0
4, 43464, Note_on_c, 1, 70, 70
4, 43487, Note_on_c, 1, 70, 0
4, 43488, Note_on_c, 1, 63, 70
4, 43511, Note_on_c, 1, 63, 0
4, 43512, Note_on_c, 1, 71, 70
4, 43535, Note_on_c, 1, 71, 0
4, 43536, Note_on_c, 1, 66, 70
4, 43559, Note_on_c, 1, 66, 0
4, 43560, Note_on_c, 1, 71, 70
4, 43583, Note_on_c, 1, 71, 0
4, 43584, Note_on_c, 1, 63, 70
4, 43607, Note_on_c, 1, 63, 0
4, 43608, Note_on_c, 1, 71, 70
4, 43631, Note_on_c, 1, 71, 0
4, 43632, Note_on_c, 1, 66, 70
4, 43655, Note_on_c, 1, 66, 0
4, 43656, Note_on_c, 1, 71, 70
4, 43679, Note_on_c, 1, 71, 0
4, 43680, Note_on_c, 1, 64, 70
4, 43769, Note_on_c, 1, 64, 0
4, 43824, Note_on_c, 1, 66, 70
4, 43869, Note_on_c, 1, 66, 0
4, 43872, Note_on_c, 1, 59, 70
4, 43961, Note_on_c, 1, 59, 0
4, 43968, Note_on_c, 1, 47, 70
4, 44013, Note_on_c, 1, 47, 0
4, 44064, Note_on_c, 1, 64, 70
4, 44087, Note_on_c, 1, 64, 0
4, 44088, Note_on_c, 1, 71, 70
4, 44111, Note_on_c, 1, 71, 0
4, 44112, Note_on_c, 1, 68, 70
4, 44135, Note_on_c, 1, 68, 0
4, 44136, Note_on_c, 1, 71, 70
4, 44159, Note_on_c, 1, 71, 0
4, 44160, Note_on_c, 1, 64, 70
4, 44183, Note_on_c, 1, 64, 0
4, 44184, Note_on_c, 1, 71, 70
4, 44207, Note_on_c, 1, 71, 0
4, 44208, Note_on_c, 1, 68, 70
4, 44231, Note_on_c, 1, 68, 0
4, 44232, Note_on_c, 1, 71, 70
4, 44255, Note_on_c, 1, 71, 0
4, 44256, Note_on_c, 1, 59, 70
4, 44279, Note_on_c, 1, 59, 0
4, 44280, Note_on_c, 1, 69, 70
4, 44303, Note_on_c, 1, 69, 0
4, 44304, Note_on_c, 1, 66, 70
4, 44327, Note_on_c, 1, 66, 0
4, 44328, Note_on_c, 1, 69, 70
4, 44351, Note_on_c, 1, 69, 0
4, 44352, Note_on_c, 1, 59, 70
4, 44375, Note_on_c, 1, 59, 0
4, 44376, Note_on_c, 1, 69, 70
4, 44399, Note_on_c, 1, 69, 0
4, 44400, Note_on_c, 1, 66, 70
4, 44423, Note_on_c, 1, 66, 0
4, 44424, Note_on_c, 1, 69, 70
4, 44447, Note_on_c, 1, 69, 0
4, 44448, Note_on_c, 1, 64, 70
4, 44471, Note_on_c, 1, 64, 0
4, 44472, Note_on_c, 1, 71, 70
4, 44495, Note_on_c, 1, 71, 0
4, 44496, Note_on_c, 1, 68, 70
4, 44519, Note_on_c, 1, 68, 0
4, 44520, Note_on_c, 1, 71, 70
4, 44543, Note_on_c, 1, 71, 0
4, 44544, Note_on_c, 1, 63, 70
4, 44567, Note_on_c, 1, 63, 0
4, 44568, Note_on_c, 1, 71, 70
4, 44591, Note_on_c, 1, 71, 0
4, 44592, Note_on_c, 1, 66, 70
4, 44615, Note_on_c, 1, 66, 0
4, 44616, Note_on_c, 1, 71, 70
4, 44639, Note_on_c, 1, 71, 0
4, 44640, Note_on_c, 1, 64, 70
4, 44663, Note_on_c, 1, 64, 0
4, 44664, Note_on_c, 1, 71, 70
4, 44687, Note_on_c, 1, 71, 0
4, 44688, Note_on_c, 1, 68, 70
4, 44711, Note_on_c, 1, 68, 0
4, 44712, Note_on_c, 1, 71, 70
4, 44735, Note_on_c, 1, 71, 0
4, 44736, Note_on_c, 1, 59, 70
4, 44759, Note_on_c, 1, 59, 0
4, 44760, Note_on_c, 1, 71, 70
4, 44783, Note_on_c, 1, 71, 0
4, 44784, Note_on_c, 1, 63, 70
4, 44807, Note_on_c, 1, 63, 0
4, 44808, Note_on_c, 1, 71, 70
4, 44831, Note_on_c, 1, 71, 0
4, 44832, Note_on_c, 1, 64, 70
4, 44855, Note_on_c, 1, 64, 0
4, 44856, Note_on_c, 1, 71, 70
4, 44879, Note_on_c, 1, 71, 0
4, 44880, Note_on_c, 1, 68, 70
4, 44903, Note_on_c, 1, 68, 0
4, 44904, Note_on_c, 1, 71, 70
4, 44927, Note_on_c, 1, 71, 0
4, 44928, Note_on_c, 1, 64, 70
4, 44951, Note_on_c, 1, 64, 0
4, 44952, Note_on_c, 1, 70, 70
4, 44975, Note_on_c, 1, 70, 0
4, 44976, Note_on_c, 1, 66, 70
4, 44999, Note_on_c, 1, 66, 0
4, 45000, Note_on_c, 1, 70, 70
4, 45023, Note_on_c, 1, 70, 0
4, 45024, Note_on_c, 1, 63, 70
4, 45047, Note_on_c, 1, 63, 0
4, 45048, Note_on_c, 1, 71, 70
4, 45071, Note_on_c, 1, 71, 0
4, 45072, Note_on_c, 1, 66, 70
4, 45095, Note_on_c, 1, 66, 0
4, 45096, Note_on_c, 1, 71, 70
4, 45119, Note_on_c, 1, 71, 0
4, 45120, Note_on_c, 1, 63, 70
4, 45143, Note_on_c, 1, 63, 0
4, 45144, Note_on_c, 1, 71, 70
4, 45167, Note_on_c, 1, 71, 0
4, 45168, Note_on_c, 1, 66, 70
4, 45191, Note_on_c, 1, 66, 0
4, 45192, Note_on_c, 1, 71, 70
4, 45215, Note_on_c, 1, 71, 0
4, 45216, Note_on_c, 1, 64, 70
4, 45305, Note_on_c, 1, 64, 0
4, 45360, Note_on_c, 1, 66, 70
4, 45405, Note_on_c, 1, 66, 0
4, 45408, Note_on_c, 1, 59, 70
4, 45497, Note_on_c, 1, 59, 0
4, 45504, Note_on_c, 1, 47, 70
4, 45549, Note_on_c, 1, 47, 0
4, 45600, Note_on_c, 1, 59, 70
4, 45623, Note_on_c, 1, 59, 0
4, 45624, Note_on_c, 1, 69, 70
4, 45647, Note_on_c, 1, 69, 0
4, 45648, Note_on_c, 1, 66, 70
4, 45671, Note_on_c, 1, 66, 0
4, 45672, Note_on_c, 1, 69, 70
4, 45695, Note_on_c, 1, 69, 0
4, 45696, Note_on_c, 1, 59, 70
4, 45719, Note_on_c, 1, 59, 0
4, 45720, Note_on_c, 1, 69, 70
4, 45743, Note_on_c, 1, 69, 0
4, 45744, Note_on_c, 1, 66, 70
4, 45767, Note_on_c, 1, 66, 0
4, 45768, Note_on_c, 1, 69, 70
4, 45791, Note_on_c, 1, 69, 0
4, 45792, Note_on_c, 1, 59, 70
4, 45815, Note_on_c, 1, 59, 0
4, 45816, Note_on_c, 1, 68, 70
4, 45839, Note_on_c, 1, 68, 0
4, 45840, Note_on_c, 1, 64, 70
4, 45863, Note_on_c, 1, 64, 0
4, 45864, Note_on_c, 1, 68, 70
4, 45887, Note_on_c, 1, 68, 0
4, 45888, Note_on_c, 1, 59, 70
4, 45911, Note_on_c, 1, 59, 0
4, 45912, Note_on_c, 1, 68, 70
4, 45935, Note_on_c, 1, 68, 0
4, 45936, Note_on_c, 1, 64, 70
4, 45959, Note_on_c, 1, 64, 0
4, 45960, Note_on_c, 1, 68, 70
4, 45983, Note_on_c, 1, 68, 0
4, 45984, Note_on_c, 1, 59, 70
4, 46007, Note_on_c, 1, 59, 0
4, 46008, Note_on_c, 1, 69, 70
4, 46031, Note_on_c, 1, 69, 0
4, 46032, Note_on_c, 1, 66, 70
4, 46055, Note_on_c, 1, 66, 0
4, 46056, Note_on_c, 1, 69, 70
4, 46079, Note_on_c, 1, 69, 0
4, 46080, Note_on_c, 1, 59, 70
4, 46103, Note_on_c, 1, 59, 0
4, 46104, Note_on_c, 1, 69, 70
4, 46127, Note_on_c, 1, 69, 0
4, 46128, Note_on_c, 1, 66, 70
4, 46151, Note_on_c, 1, 66, 0
4, 46152, Note_on_c, 1, 69, 70
4, 46175, Note_on_c, 1, 69, 0
4, 46176, Note_on_c, 1, 59, 70
4, 46199, Note_on_c, 1, 59, 0
4, 46200, Note_on_c, 1, 68, 70
4, 46223, Note_on_c, 1, 68, 0
4, 46224, Note_on_c, 1, 64, 70
4, 46247, Note_on_c, 1, 64, 0
4, 46248, Note_on_c, 1, 68, 70
4, 46271, Note_on_c, 1, 68, 0
4, 46272, Note_on_c, 1, 59, 70
4, 46295, Note_on_c, 1, 59, 0
4, 46296, Note_on_c, 1, 68, 70
4, 46319, Note_on_c, 1, 68, 0
4, 46320, Note_on_c, 1, 64, 70
4, 46343, Note_on_c, 1, 64, 0
4, 46344, Note_on_c, 1, 68, 70
4, 46367, Note_on_c, 1, 68, 0
4, 46368, Note_on_c, 1, 59, 70
4, 46391, Note_on_c, 1, 59, 0
4, 46392, Note_on_c, 1, 66, 70
4, 46415, Note_on_c, 1, 66, 0
4, 46416, Note_on_c, 1, 63, 70
4, 46439, Note_on_c, 1, 63, 0
4, 46440, Note_on_c, 1, 66, 70
4, 46463, Note_on_c, 1, 66, 0
4, 46464, Note_on_c, 1, 59, 70
4, 46487, Note_on_c, 1, 59, 0
4, 46488, Note_on_c, 1, 68, 70
4, 46511, Note_on_c, 1, 68, 0
4, 46512, Note_on_c, 1, 64, 70
4, 46535, Note_on_c, 1, 64, 0
4, 46536, Note_on_c, 1, 68, 70
4, 46559, Note_on_c, 1, 68, 0
4, 46560, Note_on_c, 1, 59, 70
4, 46649, Note_on_c, 1, 59, 0
4, 46752, Note_on_c, 1, 47, 70
4, 46841, Note_on_c, 1, 47, 0
4, 46944, Note_on_c, 1, 35, 70
4, 47077, Note_on_c, 1, 35, 0
4, 47136, Note_on_c, 1, 64, 70
4, 47159, Note_on_c, 1, 64, 0
4, 47160, Note_on_c, 1, 71, 70
4, 47183, Note_on_c, 1, 71, 0
4, 47184, Note_on_c, 1, 68, 70
4, 47207, Note_on_c, 1, 68, 0
4, 47208, Note_on_c, 1, 71, 70
4, 47231, Note_on_c, 1, 71, 0
4, 47232, Note_on_c, 1, 64, 70
4, 47255, Note_on_c, 1, 64, 0
4, 47256, Note_on_c, 1, 71, 70
4, 47279, Note_on_c, 1, 71, 0
4, 47280, Note_on_c, 1, 68, 70
4, 47303, Note_on_c, 1, 68, 0
4, 47304, Note_on_c, 1, 71, 70
4, 47327, Note_on_c, 1, 71, 0
4, 47328, Note_on_c, 1, 59, 70
4, 47351, Note_on_c, 1, 59, 0
4, 47352, Note_on_c, 1, 69, 70
4, 47375, Note_on_c, 1, 69, 0
4, 47376, Note_on_c, 1, 66, 70
4, 47399, Note_on_c, 1, 66, 0
4, 47400, Note_on_c, 1, 69, 70
4, 47423, Note_on_c, 1, 69, 0
4, 47424, Note_on_c, 1, 59, 70
4, 47447, Note_on_c, 1, 59, 0
4, 47448, Note_on_c, 1, 69, 70
4, 47471, Note_on_c, 1, 69, 0
4, 47472, Note_on_c, 1, 66, 70
4, 47495, Note_on_c, 1, 66, 0
4, 47496, Note_on_c, 1, 69, 70
4, 47519, Note_on_c, 1, 69, 0
4, 47520, Note_on_c, 1, 64, 70
4, 47543, Note_on_c, 1, 64, 0
4, 47544, Note_on_c, 1, 71, 70
4, 47567, Note_on_c, 1, 71, 0
4, 47568, Note_on_c, 1, 68, 70
4, 47591, Note_on_c, 1, 68, 0
4, 47592, Note_on_c, 1, 71, 70
4, 47615, Note_on_c, 1, 71, 0
4, 47616, Note_on_c, 1, 63, 70
4, 47639, Note_on_c, 1, 63, 0
4, 47640, Note_on_c, 1, 71, 70
4, 47663, Note_on_c, 1, 71, 0
4, 47664, Note_on_c, 1, 66, 70
4, 47687, Note_on_c, 1, 66, 0
4, 47688, Note_on_c, 1, 71, 70
4, 47711, Note_on_c, 1, 71, 0
4, 47712, Note_on_c, 1, 64, 70
4, 47735, Note_on_c, 1, 64, 0
4, 47736, Note_on_c, 1, 71, 70
4, 47759, Note_on_c, 1, 71, 0
4, 47760, Note_on_c, 1, 68, 70
4, 47783, Note_on_c, 1, 68, 0
4, 47784, Note_on_c, 1, 71, 70
4, 47807, Note_on_c, 1, 71, 0
4, 47808, Note_on_c, 1, 59, 70
4, 47831, Note_on_c, 1, 59, 0
4, 47832, Note_on_c, 1, 71, 70
4, 47855, Note_on_c, 1, 71, 0
4, 47856, Note_on_c, 1, 63, 70
4, 47879, Note_on_c, 1, 63, 0
4, 47880, Note_on_c, 1, 71, 70
4, 47903, Note_on_c, 1, 71, 0
4, 47904, Note_on_c, 1, 64, 70
4, 47927, Note_on_c, 1, 64, 0
4, 47928, Note_on_c, 1, 71, 70
4, 47951, Note_on_c, 1, 71, 0
4, 47952, Note_on_c, 1, 68, 70
4, 47975, Note_on_c, 1, 68, 0
4, 47976, Note_on_c, 1, 71, 70
4, 47999, Note_on_c, 1, 71, 0
4, 48000, Note_on_c, 1, 61, 70
4, 48023, Note_on_c, 1, 61, 0
4, 48024, Note_on_c, 1, 69, 70
4, 48047, Note_on_c, 1, 69, 0
4, 48048, Note_on_c, 1, 64, 70
4, 48071, Note_on_c, 1, 64, 0
4, 48072, Note_on_c, 1, 69, 70
4, 48095, Note_on_c, 1, 69, 0
4, 48096, Note_on_c, 1, 56, 70
4, 48119, Note_on_c, 1, 56, 0
4, 48120, Note_on_c, 1, 64, 70
4, 48143, Note_on_c, 1, 64, 0
4, 48144, Note_on_c, 1, 59, 70
4, 48167, Note_on_c, 1, 59, 0
4, 48168, Note_on_c, 1, 64, 70
4, 48191, Note_on_c, 1, 64, 0
4, 48192, Note_on_c, 1, 56, 70
4, 48215, Note_on_c, 1, 56, 0
4, 48216, Note_on_c, 1, 64, 70
4, 48239, Note_on_c, 1, 64, 0
4, 48240, Note_on_c, 1, 59, 70
4, 48263, Note_on_c, 1, 59, 0
4, 48264, Note_on_c, 1, 64, 70
4, 48287, Note_on_c, 1, 64, 0
4, 48288, Note_on_c, 1, 57, 70
4, 48311, Note_on_c, 1, 57, 0
4, 48312, Note_on_c, 1, 66, 70
4, 48335, Note_on_c, 1, 66, 0
4, 48336, Note_on_c, 1, 61, 70
4, 48359, Note_on_c, 1, 61, 0
4, 48360, Note_on_c, 1, 66, 70
4, 48383, Note_on_c, 1, 66, 0
4, 48384, Note_on_c, 1, 59, 70
4, 48407, Note_on_c, 1, 59, 0
4, 48408, Note_on_c, 1, 69, 70
4, 48431, Note_on_c, 1, 69, 0
4, 48432, Note_on_c, 1, 66, 70
4, 48455, Note_on_c, 1, 66, 0
4, 48456, Note_on_c, 1, 69, 70
4, 48479, Note_on_c, 1, 69, 0
4, 48480, Note_on_c, 1, 68, 70
4, 48480, Note_on_c, 1, 64, 70
4, 48569, Note_on_c, 1, 68, 0
4, 48569, Note_on_c, 1, 64, 0
4, 48576, Note_on_c, 1, 52, 70
4, 48621, Note_on_c, 1, 52, 0
4, 48672, Note_on_c, 1, 59, 70
4, 48695, Note_on_c, 1, 59, 0
4, 48696, Note_on_c, 1, 69, 70
4, 48719, Note_on_c, 1, 69, 0
4, 48720, Note_on_c, 1, 66, 70
4, 48743, Note_on_c, 1, 66, 0
4, 48744, Note_on_c, 1, 69, 70
4, 48767, Note_on_c, 1, 69, 0
4, 48768, Note_on_c, 1, 59, 70
4, 48791, Note_on_c, 1, 59, 0
4, 48792, Note_on_c, 1, 69, 70
4, 48815, Note_on_c, 1, 69, 0
4, 48816, Note_on_c, 1, 66, 70
4, 48839, Note_on_c, 1, 66, 0
4, 48840, Note_on_c, 1, 69, 70
4, 48863, Note_on_c, 1, 69, 0
4, 48864, Note_on_c, 1, 59, 70
4, 48887, Note_on_c, 1, 59, 0
4, 48888, Note_on_c, 1, 68, 70
4, 48911, Note_on_c, 1, 68, 0
4, 48912, Note_on_c, 1, 64, 70
4, 48935, Note_on_c, 1, 64, 0
4, 48936, Note_on_c, 1, 68, 70
4, 48959, Note_on_c, 1, 68, 0
4, 48960, Note_on_c, 1, 59, 70
4, 48983, Note_on_c, 1, 59, 0
4, 48984, Note_on_c, 1, 68, 70
4, 49007, Note_on_c, 1, 68, 0
4, 49008, Note_on_c, 1, 64, 70
4, 49031, Note_on_c, 1, 64, 0
4, 49032, Note_on_c, 1, 68, 70
4, 49055, Note_on_c, 1, 68, 0
4, 49056, Note_on_c, 1, 59, 70
4, 49079, Note_on_c, 1, 59, 0
4, 49080, Note_on_c, 1, 69, 70
4, 49103, Note_on_c, 1, 69, 0
4, 49104, Note_on_c, 1, 66, 70
4, 49127, Note_on_c, 1, 66, 0
4, 49128, Note_on_c, 1, 69, 70
4, 49151, Note_on_c, 1, 69, 0
4, 49152, Note_on_c, 1, 59, 70
4, 49175, Note_on_c, 1, 59, 0
4, 49176, Note_on_c, 1, 69, 70
4, 49199, Note_on_c, 1, 69, 0
4, 49200, Note_on_c, 1, 66, 70
4, 49223, Note_on_c, 1, 66, 0
4, 49224, Note_on_c, 1, 69, 70
4, 49247, Note_on_c, 1, 69, 0
4, 49248, Note_on_c, 1, 59, 70
4, 49271, Note_on_c, 1, 59, 0
4, 49272, Note_on_c, 1, 68, 70
4, 49295, Note_on_c, 1, 68, 0
4, 49296, Note_on_c, 1, 64, 70
4, 49319, Note_on_c, 1, 64, 0
4, 49320, Note_on_c, 1, 68, 70
4, 49343, Note_on_c, 1, 68, 0
4, 49344, Note_on_c, 1, 59, 70
4, 49367, Note_on_c, 1, 59, 0
4, 49368, Note_on_c, 1, 68, 70
4, 49391, Note_on_c, 1, 68, 0
4, 49392, Note_on_c, 1, 64, 70
4, 49415, Note_on_c, 1, 64, 0
4, 49416, Note_on_c, 1, 68, 70
4, 49439, Note_on_c, 1, 68, 0
4, 49440, Note_on_c, 1, 59, 70
4, 49463, Note_on_c, 1, 59, 0
4, 49464, Note_on_c, 1, 66, 70
4, 49487, Note_on_c, 1, 66, 0
4, 49488, Note_on_c, 1, 63, 70
4, 49511, Note_on_c, 1, 63, 0
4, 49512, Note_on_c, 1, 66, 70
4, 49535, Note_on_c, 1, 66, 0
4, 49536, Note_on_c, 1, 59, 70
4, 49559, Note_on_c, 1, 59, 0
4, 49560, Note_on_c, 1, 68, 70
4, 49583, Note_on_c, 1, 68, 0
4, 49584, Note_on_c, 1, 64, 70
4, 49607, Note_on_c, 1, 64, 0
4, 49608, Note_on_c, 1, 68, 70
4, 49631, Note_on_c, 1, 68, 0
4, 49632, Note_on_c, 1, 59, 70
4, 49721, Note_on_c, 1, 59, 0
4, 49824, Note_on_c, 1, 47, 70
4, 49913, Note_on_c, 1, 47, 0
4, 50016, Note_on_c, 1, 35, 70
4, 50149, Note_on_c, 1, 35, 0
4, 50208, Note_on_c, 1, 64, 70
4, 50231, Note_on_c, 1, 64, 0
4, 50232, Note_on_c, 1, 71, 70
4, 50255, Note_on_c, 1, 71, 0
4, 50256, Note_on_c, 1, 68, 70
4, 50279, Note_on_c, 1, 68, 0
4, 50280, Note_on_c, 1, 71, 70
4, 50303, Note_on_c, 1, 71, 0
4, 50304, Note_on_c, 1, 64, 70
4, 50327, Note_on_c, 1, 64, 0
4, 50328, Note_on_c, 1, 71, 70
4, 50351, Note_on_c, 1, 71, 0
4, 50352, Note_on_c, 1, 68, 70
4, 50375, Note_on_c, 1, 68, 0
4, 50376, Note_on_c, 1, 71, 70
4, 50399, Note_on_c, 1, 71, 0
4, 50400, Note_on_c, 1, 59, 70
4, 50423, Note_on_c, 1, 59, 0
4, 50424, Note_on_c, 1, 69, 70
4, 50447, Note_on_c, 1, 69, 0
4, 50448, Note_on_c, 1, 66, 70
4, 50471, Note_on_c, 1, 66, 0
4, 50472, Note_on_c, 1, 69, 70
4, 50495, Note_on_c, 1, 69, 0
4, 50496, Note_on_c, 1, 59, 70
4, 50519, Note_on_c, 1, 59, 0
4, 50520, Note_on_c, 1, 69, 70
4, 50543, Note_on_c, 1, 69, 0
4, 50544, Note_on_c, 1, 66, 70
4, 50567, Note_on_c, 1, 66, 0
4, 50568, Note_on_c, 1, 69, 70
4, 50591, Note_on_c, 1, 69, 0
4, 50592, Note_on_c, 1, 64, 70
4, 50615, Note_on_c, 1, 64, 0
4, 50616, Note_on_c, 1, 71, 70
4, 50639, Note_on_c, 1, 71, 0
4, 50640, Note_on_c, 1, 68, 70
4, 50663, Note_on_c, 1, 68, 0
4, 50664, Note_on_c, 1, 71, 70
4, 50687, Note_on_c, 1, 71, 0
4, 50688, Note_on_c, 1, 63, 70
4, 50711, Note_on_c, 1, 63, 0
4, 50712, Note_on_c, 1, 71, 70
4, 50735, Note_on_c, 1, 71, 0
4, 50736, Note_on_c, 1, 66, 70
4, 50759, Note_on_c, 1, 66, 0
4, 50760, Note_on_c, 1, 71, 70
4, 50783, Note_on_c, 1, 71, 0
4, 50784, Note_on_c, 1, 64, 70
4, 50807, Note_on_c, 1, 64, 0
4, 50808, Note_on_c, 1, 71, 70
4, 50831, Note_on_c, 1, 71, 0
4, 50832, Note_on_c, 1, 68, 70
4, 50855, Note_on_c, 1, 68, 0
4, 50856, Note_on_c, 1, 71, 70
4, 50879, Note_on_c, 1, 71, 0
4, 50880, Note_on_c, 1, 59, 70
4, 50903, Note_on_c, 1, 59, 0
4, 50904, Note_on_c, 1, 71, 70
4, 50927, Note_on_c, 1, 71, 0
4, 50928, Note_on_c, 1, 63, 70
4, 50951, Note_on_c, 1, 63, 0
4, 50952, Note_on_c, 1, 71, 70
4, 50975, Note_on_c, 1, 71, 0
4, 50976, Note_on_c, 1, 64, 70
4, 50999, Note_on_c, 1, 64, 0
4, 51000, Note_on_c, 1, 71, 70
4, 51023, Note_on_c, 1, 71, 0
4, 51024, Note_on_c, 1, 68, 70
4, 51047, Note_on_c, 1, 68, 0
4, 51048, Note_on_c, 1, 71, 70
4, 51071, Note_on_c, 1, 71, 0
4, 51072, Note_on_c, 1, 61, 70
4, 51095, Note_on_c, 1, 61, 0
4, 51096, Note_on_c, 1, 69, 70
4, 51119, Note_on_c, 1, 69, 0
4, 51120, Note_on_c, 1, 64, 70
4, 51143, Note_on_c, 1, 64, 0
4, 51144, Note_on_c, 1, 69, 70
4, 51167, Note_on_c, 1, 69, 0
4, 51168, Note_on_c, 1, 56, 70
4, 51191, Note_on_c, 1, 56, 0
4, 51192, Note_on_c, 1, 64, 70
4, 51215, Note_on_c, 1, 64, 0
4, 51216, Note_on_c, 1, 59, 70
4, 51239, Note_on_c, 1, 59, 0
4, 51240, Note_on_c, 1, 64, 70
4, 51263, Note_on_c, 1, 64, 0
4, 51264, Note_on_c, 1, 56, 70
4, 51287, Note_on_c, 1, 56, 0
4, 51288, Note_on_c, 1, 64, 70
4, 51311, Note_on_c, 1, 64, 0
4, 51312, Note_on_c, 1, 59, 70
4, 51335, Note_on_c, 1, 59, 0
4, 51336, Note_on_c, 1, 64, 70
4, 51359, Note_on_c, 1, 64, 0
4, 51360, Note_on_c, 1, 57, 70
4, 51383, Note_on_c, 1, 57, 0
4, 51384, Note_on_c, 1, 66, 70
4, 51407, Note_on_c, 1, 66, 0
4, 51408, Note_on_c, 1, 61, 70
4, 51431, Note_on_c, 1, 61, 0
4, 51432, Note_on_c, 1, 66, 70
4, 51455, Note_on_c, 1, 66, 0
4, 51456, Note_on_c, 1, 59, 70
4, 51479, Note_on_c, 1, 59, 0
4, 51480, Note_on_c, 1, 69, 70
4, 51503, Note_on_c, 1, 69, 0
4, 51504, Note_on_c, 1, 66, 70
4, 51527, Note_on_c, 1, 66, 0
4, 51528, Note_on_c, 1, 69, 70
4, 51551, Note_on_c, 1, 69, 0
4, 51552, Note_on_c, 1, 68, 70
4, 51552, Note_on_c, 1, 64, 70
4, 51641, Note_on_c, 1, 68, 0
4, 51641, Note_on_c, 1, 64, 0
4, 51648, Note_on_c, 1, 52, 70
4, 51693, Note_on_c, 1, 52, 0
4, 51744, Note_on_c, 1, 52, 70
4, 51767, Note_on_c, 1, 52, 0
4, 51768, Note_on_c, 1, 59, 70
4, 51791, Note_on_c, 1, 59, 0
4, 51792, Note_on_c, 1, 55, 70
4, 51815, Note_on_c, 1, 55, 0
4, 51816, Note_on_c, 1, 59, 70
4, 51839, Note_on_c, 1, 59, 0
4, 51840, Note_on_c, 1, 52, 70
4, 51863, Note_on_c, 1, 52, 0
4, 51864, Note_on_c, 1, 59, 70
4, 51887, Note_on_c, 1, 59, 0
4, 51888, Note_on_c, 1, 55, 70
4, 51911, Note_on_c, 1, 55, 0
4, 51912, Note_on_c, 1, 59, 70
4, 51935, Note_on_c, 1, 59, 0
4, 51936, Note_on_c, 1, 54, 70
4, 51959, Note_on_c, 1, 54, 0
4, 51960, Note_on_c, 1, 59, 70
4, 51983, Note_on_c, 1, 59, 0
4, 51984, Note_on_c, 1, 57, 70
4, 52007, Note_on_c, 1, 57, 0
4, 52008, Note_on_c, 1, 59, 70
4, 52031, Note_on_c, 1, 59, 0
4, 52032, Note_on_c, 1, 54, 70
4, 52055, Note_on_c, 1, 54, 0
4, 52056, Note_on_c, 1, 59, 70
4, 52079, Note_on_c, 1, 59, 0
4, 52080, Note_on_c, 1, 57, 70
4, 52103, Note_on_c, 1, 57, 0
4, 52104, Note_on_c, 1, 59, 70
4, 52127, Note_on_c, 1, 59, 0
4, 52128, Note_on_c, 1, 52, 70
4, 52151, Note_on_c, 1, 52, 0
4, 52152, Note_on_c, 1, 59, 70
4, 52175, Note_on_c, 1, 59, 0
4, 52176, Note_on_c, 1, 55, 70
4, 52199, Note_on_c, 1, 55, 0
4, 52200, Note_on_c, 1, 59, 70
4, 52223, Note_on_c, 1, 59, 0
4, 52224, Note_on_c, 1, 51, 70
4, 52247, Note_on_c, 1, 51, 0
4, 52248, Note_on_c, 1, 59, 70
4, 52271, Note_on_c, 1, 59, 0
4, 52272, Note_on_c, 1, 54, 70
4, 52295, Note_on_c, 1, 54, 0
4, 52296, Note_on_c, 1, 59, 70
4, 52319, Note_on_c, 1, 59, 0
4, 52320, Note_on_c, 1, 52, 70
4, 52343, Note_on_c, 1, 52, 0
4, 52344, Note_on_c, 1, 59, 70
4, 52367, Note_on_c, 1, 59, 0
4, 52368, Note_on_c, 1, 55, 70
4, 52391, Note_on_c, 1, 55, 0
4, 52392, Note_on_c, 1, 59, 70
4, 52415, Note_on_c, 1, 59, 0
4, 52416, Note_on_c, 1, 47, 70
4, 52439, Note_on_c, 1, 47, 0
4, 52440, Note_on_c, 1, 59, 70
4, 52463, Note_on_c, 1, 59, 0
4, 52464, Note_on_c, 1, 51, 70
4, 52487, Note_on_c, 1, 51, 0
4, 52488, Note_on_c, 1, 59, 70
4, 52511, Note_on_c, 1, 59, 0
4, 52512, Note_on_c, 1, 52, 70
4, 52535, Note_on_c, 1, 52, 0
4, 52536, Note_on_c, 1, 59, 70
4, 52559, Note_on_c, 1, 59, 0
4, 52560, Note_on_c, 1, 55, 70
4, 52583, Note_on_c, 1, 55, 0
4, 52584, Note_on_c, 1, 59, 70
4, 52607, Note_on_c, 1, 59, 0
4, 52608, Note_on_c, 1, 52, 70
4, 52631, Note_on_c, 1, 52, 0
4, 52632, Note_on_c, 1, 59, 70
4, 52655, Note_on_c, 1, 59, 0
4, 52656, Note_on_c, 1, 55, 70
4, 52679, Note_on_c, 1, 55, 0
4, 52680, Note_on_c, 1, 59, 70
4, 52703, Note_on_c, 1, 59, 0
4, 52704, Note_on_c, 1, 48, 70
4, 52727, Note_on_c, 1, 48, 0
4, 52728, Note_on_c, 1, 57, 70
4, 52751, Note_on_c, 1, 57, 0
4, 52752, Note_on_c, 1, 52, 70
4, 52775, Note_on_c, 1, 52, 0
4, 52776, Note_on_c, 1, 57, 70
4, 52799, Note_on_c, 1, 57, 0
4, 52800, Note_on_c, 1, 48, 70
4, 52823, Note_on_c, 1, 48, 0
4, 52824, Note_on_c, 1, 57, 70
4, 52847, Note_on_c, 1, 57, 0
4, 52848, Note_on_c, 1, 52, 70
4, 52871, Note_on_c, 1, 52, 0
4, 52872, Note_on_c, 1, 57, 70
4, 52895, Note_on_c, 1, 57, 0
4, 52896, Note_on_c, 1, 50, 70
4, 52919, Note_on_c, 1, 50, 0
4, 52920, Note_on_c, 1, 60, 70
4, 52943, Note_on_c, 1, 60, 0
4, 52944, Note_on_c, 1, 57, 70
4, 52967, Note_on_c, 1, 57, 0
4, 52968, Note_on_c, 1, 60, 70
4, 52991, Note_on_c, 1, 60, 0
4, 52992, Note_on_c, 1, 50, 70
4, 53015, Note_on_c, 1, 50, 0
4, 53016, Note_on_c, 1, 60, 70
4, 53039, Note_on_c, 1, 60, 0
4, 53040, Note_on_c, 1, 57, 70
4, 53063, Note_on_c, 1, 57, 0
4, 53064, Note_on_c, 1, 60, 70
4, 53087, Note_on_c, 1, 60, 0
4, 53088, Note_on_c, 1, 59, 70
4, 53088, Note_on_c, 1, 55, 70
4, 53177, Note_on_c, 1, 59, 0
4, 53177, Note_on_c, 1, 55, 0
4, 53184, Note_on_c, 1, 43, 70
4, 53229, Note_on_c, 1, 43, 0
4, 53280, Note_on_c, 1, 52, 70
4, 53303, Note_on_c, 1, 52, 0
4, 53304, Note_on_c, 1, 59, 70
4, 53327, Note_on_c, 1, 59, 0
4, 53328, Note_on_c, 1, 55, 70
4, 53351, Note_on_c, 1, 55, 0
4, 53352, Note_on_c, 1, 59, 70
4, 53375, Note_on_c, 1, 59, 0
4, 53376, Note_on_c, 1, 52, 70
4, 53399, Note_on_c, 1, 52, 0
4, 53400, Note_on_c, 1, 59, 70
4, 53423, Note_on_c, 1, 59, 0
4, 53424, Note_on_c, 1, 55, 70
4, 53447, Note_on_c, 1, 55, 0
4, 53448, Note_on_c, 1, 59, 70
4, 53471, Note_on_c, 1, 59, 0
4, 53472, Note_on_c, 1, 54, 70
4, 53495, Note_on_c, 1, 54, 0
4, 53496, Note_on_c, 1, 59, 70
4, 53519, Note_on_c, 1, 59, 0
4, 53520, Note_on_c, 1, 57, 70
4, 53543, Note_on_c, 1, 57, 0
4, 53544, Note_on_c, 1, 59, 70
4, 53567, Note_on_c, 1, 59, 0
4, 53568, Note_on_c, 1, 54, 70
4, 53591, Note_on_c, 1, 54, 0
4, 53592, Note_on_c, 1, 59, 70
4, 53615, Note_on_c, 1, 59, 0
4, 53616, Note_on_c, 1, 57, 70
4, 53639, Note_on_c, 1, 57, 0
4, 53640, Note_on_c, 1, 59, 70
4, 53663, Note_on_c, 1, 59, 0
4, 53664, Note_on_c, 1, 52, 70
4, 53687, Note_on_c, 1, 52, 0
4, 53688, Note_on_c, 1, 59, 70
4, 53711, Note_on_c, 1, 59, 0
4, 53712, Note_on_c, 1, 55, 70
4, 53735, Note_on_c, 1, 55, 0
4, 53736, Note_on_c, 1, 59, 70
4, 53759, Note_on_c, 1, 59, 0
4, 53760, Note_on_c, 1, 51, 70
4, 53783, Note_on_c, 1, 51, 0
4, 53784, Note_on_c, 1, 59, 70
4, 53807, Note_on_c, 1, 59, 0
4, 53808, Note_on_c, 1, 54, 70
4, 53831, Note_on_c, 1, 54, 0
4, 53832, Note_on_c, 1, 59, 70
4, 53855, Note_on_c, 1, 59, 0
4, 53856, Note_on_c, 1, 52, 70
4, 53879, Note_on_c, 1, 52, 0
4, 53880, Note_on_c, 1, 59, 70
4, 53903, Note_on_c, 1, 59, 0
4, 53904, Note_on_c, 1, 55, 70
4, 53927, Note_on_c, 1, 55, 0
4, 53928, Note_on_c, 1, 59, 70
4, 53951, Note_on_c, 1, 59, 0
4, 53952, Note_on_c, 1, 47, 70
4, 53975, Note_on_c, 1, 47, 0
4, 53976, Note_on_c, 1, 59, 70
4, 53999, Note_on_c, 1, 59, 0
4, 54000, Note_on_c, 1, 51, 70
4, 54023, Note_on_c, 1, 51, 0
4, 54024, Note_on_c, 1, 59, 70
4, 54047, Note_on_c, 1, 59, 0
4, 54048, Note_on_c, 1, 52, 70
4, 54071, Note_on_c, 1, 52, 0
4, 54072, Note_on_c, 1, 59, 70
4, 54095, Note_on_c, 1, 59, 0
4, 54096, Note_on_c, 1, 55, 70
4, 54119, Note_on_c, 1, 55, 0
4, 54120, Note_on_c, 1, 59, 70
4, 54143, Note_on_c, 1, 59, 0
4, 54144, Note_on_c, 1, 52, 70
4, 54167, Note_on_c, 1, 52, 0
4, 54168, Note_on_c, 1, 59, 70
4, 54191, Note_on_c, 1, 59, 0
4, 54192, Note_on_c, 1, 55, 70
4, 54215, Note_on_c, 1, 55, 0
4, 54216, Note_on_c, 1, 59, 70
4, 54239, Note_on_c, 1, 59, 0
4, 54240, Note_on_c, 1, 48, 70
4, 54263, Note_on_c, 1, 48, 0
4, 54264, Note_on_c, 1, 57, 70
4, 54287, Note_on_c, 1, 57, 0
4, 54288, Note_on_c, 1, 52, 70
4, 54311, Note_on_c, 1, 52, 0
4, 54312, Note_on_c, 1, 57, 70
4, 54335, Note_on_c, 1, 57, 0
4, 54336, Note_on_c, 1, 48, 70
4, 54359, Note_on_c, 1, 48, 0
4, 54360, Note_on_c, 1, 57, 70
4, 54383, Note_on_c, 1, 57, 0
4, 54384, Note_on_c, 1, 52, 70
4, 54407, Note_on_c, 1, 52, 0
4, 54408, Note_on_c, 1, 57, 70
4, 54431, Note_on_c, 1, 57, 0
4, 54432, Note_on_c, 1, 50, 70
4, 54455, Note_on_c, 1, 50, 0
4, 54456, Note_on_c, 1, 60, 70
4, 54479, Note_on_c, 1, 60, 0
4, 54480, Note_on_c, 1, 57, 70
4, 54503, Note_on_c, 1, 57, 0
4, 54504, Note_on_c, 1, 60, 70
4, 54527, Note_on_c, 1, 60, 0
4, 54528, Note_on_c, 1, 50, 70
4, 54551, Note_on_c, 1, 50, 0
4, 54552, Note_on_c, 1, 60, 70
4, 54575, Note_on_c, 1, 60, 0
4, 54576, Note_on_c, 1, 57, 70
4, 54599, Note_on_c, 1, 57, 0
4, 54600, Note_on_c, 1, 60, 70
4, 54623, Note_on_c, 1, 60, 0
4, 54624, Note_on_c, 1, 59, 70
4, 54624, Note_on_c, 1, 55, 70
4, 54713, Note_on_c, 1, 59, 0
4, 54713, Note_on_c, 1, 55, 0
4, 54720, Note_on_c, 1, 43, 70
4, 54765, Note_on_c, 1, 43, 0
4, 54816, Note_on_c, 1, 59, 70
4, 54839, Note_on_c, 1, 59, 0
4, 54840, Note_on_c, 1, 67, 70
4, 54863, Note_on_c, 1, 67, 0
4, 54864, Note_on_c, 1, 62, 70
4, 54887, Note_on_c, 1, 62, 0
4, 54888, Note_on_c, 1, 67, 70
4, 54911, Note_on_c, 1, 67, 0
4, 54912, Note_on_c, 1, 59, 70
4, 54935, Note_on_c, 1, 59, 0
4, 54936, Note_on_c, 1, 67, 70
4, 54959, Note_on_c, 1, 67, 0
4, 54960, Note_on_c, 1, 62, 70
4, 54983, Note_on_c, 1, 62, 0
4, 54984, Note_on_c, 1, 67, 70
4, 55007, Note_on_c, 1, 67, 0
4, 55008, Note_on_c, 1, 60, 70
4, 55031, Note_on_c, 1, 60, 0
4, 55032, Note_on_c, 1, 67, 70
4, 55055, Note_on_c, 1, 67, 0
4, 55056, Note_on_c, 1, 64, 70
4, 55079, Note_on_c, 1, 64, 0
4, 55080, Note_on_c, 1, 67, 70
4, 55103, Note_on_c, 1, 67, 0
4, 55104, Note_on_c, 1, 60, 70
4, 55127, Note_on_c, 1, 60, 0
4, 55128, Note_on_c, 1, 67, 70
4, 55151, Note_on_c, 1, 67, 0
4, 55152, Note_on_c, 1, 64, 70
4, 55175, Note_on_c, 1, 64, 0
4, 55176, Note_on_c, 1, 67, 70
4, 55199, Note_on_c, 1, 67, 0
4, 55200, Note_on_c, 1, 57, 70
4, 55223, Note_on_c, 1, 57, 0
4, 55224, Note_on_c, 1, 66, 70
4, 55247, Note_on_c, 1, 66, 0
4, 55248, Note_on_c, 1, 60, 70
4, 55271, Note_on_c, 1, 60, 0
4, 55272, Note_on_c, 1, 66, 70
4, 55295, Note_on_c, 1, 66, 0
4, 55296, Note_on_c, 1, 57, 70
4, 55319, Note_on_c, 1, 57, 0
4, 55320, Note_on_c, 1, 66, 70
4, 55343, Note_on_c, 1, 66, 0
4, 55344, Note_on_c, 1, 60, 70
4, 55367, Note_on_c, 1, 60, 0
4, 55368, Note_on_c, 1, 66, 70
4, 55391, Note_on_c, 1, 66, 0
4, 55392, Note_on_c, 1, 59, 70
4, 55415, Note_on_c, 1, 59, 0
4, 55416, Note_on_c, 1, 66, 70
4, 55439, Note_on_c, 1, 66, 0
4, 55440, Note_on_c, 1, 63, 70
4, 55463, Note_on_c, 1, 63, 0
4, 55464, Note_on_c, 1, 66, 70
4, 55487, Note_on_c, 1, 66, 0
4, 55488, Note_on_c, 1, 57, 70
4, 55511, Note_on_c, 1, 57, 0
4, 55512, Note_on_c, 1, 63, 70
4, 55535, Note_on_c, 1, 63, 0
4, 55536, Note_on_c, 1, 59, 70
4, 55559, Note_on_c, 1, 59, 0
4, 55560, Note_on_c, 1, 63, 70
4, 55583, Note_on_c, 1, 63, 0
4, 55584, Note_on_c, 1, 55, 70
4, 55607, Note_on_c, 1, 55, 0
4, 55608, Note_on_c, 1, 64, 70
4, 55631, Note_on_c, 1, 64, 0
4, 55632, Note_on_c, 1, 59, 70
4, 55655, Note_on_c, 1, 59, 0
4, 55656, Note_on_c, 1, 64, 70
4, 55679, Note_on_c, 1, 64, 0
4, 55680, Note_on_c, 1, 51, 70
4, 55703, Note_on_c, 1, 51, 0
4, 55704, Note_on_c, 1, 59, 70
4, 55727, Note_on_c, 1, 59, 0
4, 55728, Note_on_c, 1, 54, 70
4, 55751, Note_on_c, 1, 54, 0
4, 55752, Note_on_c, 1, 59, 70
4, 55775, Note_on_c, 1, 59, 0
4, 55776, Note_on_c, 1, 52, 70
4, 55799, Note_on_c, 1, 52, 0
4, 55800, Note_on_c, 1, 59, 70
4, 55823, Note_on_c, 1, 59, 0
4, 55824, Note_on_c, 1, 55, 70
4, 55847, Note_on_c, 1, 55, 0
4, 55848, Note_on_c, 1, 59, 70
4, 55871, Note_on_c, 1, 59, 0
4, 55872, Note_on_c, 1, 47, 70
4, 55895, Note_on_c, 1, 47, 0
4, 55896, Note_on_c, 1, 59, 70
4, 55919, Note_on_c, 1, 59, 0
4, 55920, Note_on_c, 1, 51, 70
4, 55943, Note_on_c, 1, 51, 0
4, 55944, Note_on_c, 1, 59, 70
4, 55967, Note_on_c, 1, 59, 0
4, 55968, Note_on_c, 1, 48, 70
4, 55991, Note_on_c, 1, 48, 0
4, 55992, Note_on_c, 1, 59, 70
4, 56015, Note_on_c, 1, 59, 0
4, 56016, Note_on_c, 1, 55, 70
4, 56039, Note_on_c, 1, 55, 0
4, 56040, Note_on_c, 1, 59, 70
4, 56063, Note_on_c, 1, 59, 0
4, 56064, Note_on_c, 1, 48, 70
4, 56087, Note_on_c, 1, 48, 0
4, 56088, Note_on_c, 1, 57, 70
4, 56111, Note_on_c, 1, 57, 0
4, 56112, Note_on_c, 1, 55, 70
4, 56135, Note_on_c, 1, 55, 0
4, 56136, Note_on_c, 1, 57, 70
4, 56159, Note_on_c, 1, 57, 0
4, 56160, Note_on_c, 1, 47, 70
4, 56183, Note_on_c, 1, 47, 0
4, 56184, Note_on_c, 1, 57, 70
4, 56207, Note_on_c, 1, 57, 0
4, 56208, Note_on_c, 1, 54, 70
4, 56231, Note_on_c, 1, 54, 0
4, 56232, Note_on_c, 1, 57, 70
4, 56255, Note_on_c, 1, 57, 0
4, 56256, Note_on_c, 1, 48, 70
4, 56279, Note_on_c, 1, 48, 0
4, 56280, Note_on_c, 1, 55, 70
4, 56303, Note_on_c, 1, 55, 0
4, 56304, Note_on_c, 1, 52, 70
4, 56327, Note_on_c, 1, 52, 0
4, 56328, Note_on_c, 1, 55, 70
4, 56351, Note_on_c, 1, 55, 0
4, 56352, Note_on_c, 1, 45, 70
4, 56375, Note_on_c, 1, 45, 0
4, 56376, Note_on_c, 1, 54, 70
4, 56399, Note_on_c, 1, 54, 0
4, 56400, Note_on_c, 1, 48, 70
4, 56423, Note_on_c, 1, 48, 0
4, 56424, Note_on_c, 1, 54, 70
4, 56447, Note_on_c, 1, 54, 0
4, 56448, Note_on_c, 1, 47, 70
4, 56471, Note_on_c, 1, 47, 0
4, 56472, Note_on_c, 1, 57, 70
4, 56495, Note_on_c, 1, 57, 0
4, 56496, Note_on_c, 1, 54, 70
4, 56519, Note_on_c, 1, 54, 0
4, 56520, Note_on_c, 1, 57, 70
4, 56543, Note_on_c, 1, 57, 0
4, 56544, Note_on_c, 1, 55, 70
4, 56544, Note_on_c, 1, 52, 70
4, 56633, Note_on_c, 1, 55, 0
4, 56633, Note_on_c, 1, 52, 0
4, 56640, Note_on_c, 1, 40, 70
4, 56685, Note_on_c, 1, 40, 0
4, 56736, Note_on_c, 1, 59, 70
4, 56759, Note_on_c, 1, 59, 0
4, 56760, Note_on_c, 1, 67, 70
4, 56783, Note_on_c, 1, 67, 0
4, 56784, Note_on_c, 1, 62, 70
4, 56807, Note_on_c, 1, 62, 0
4, 56808, Note_on_c, 1, 67, 70
4, 56831, Note_on_c, 1, 67, 0
4, 56832, Note_on_c, 1, 59, 70
4, 56855, Note_on_c, 1, 59, 0
4, 56856, Note_on_c, 1, 67, 70
4, 56879, Note_on_c, 1, 67, 0
4, 56880, Note_on_c, 1, 62, 70
4, 56903, Note_on_c, 1, 62, 0
4, 56904, Note_on_c, 1, 67, 70
4, 56927, Note_on_c, 1, 67, 0
4, 56928, Note_on_c, 1, 60, 70
4, 56951, Note_on_c, 1, 60, 0
4, 56952, Note_on_c, 1, 67, 70
4, 56975, Note_on_c, 1, 67, 0
4, 56976, Note_on_c, 1, 64, 70
4, 56999, Note_on_c, 1, 64, 0
4, 57000, Note_on_c, 1, 67, 70
4, 57023, Note_on_c, 1, 67, 0
4, 57024, Note_on_c, 1, 60, 70
4, 57047, Note_on_c, 1, 60, 0
4, 57048, Note_on_c, 1, 67, 70
4, 57071, Note_on_c, 1, 67, 0
4, 57072, Note_on_c, 1, 64, 70
4, 57095, Note_on_c, 1, 64, 0
4, 57096, Note_on_c, 1, 67, 70
4, 57119, Note_on_c, 1, 67, 0
4, 57120, Note_on_c, 1, 57, 70
4, 57143, Note_on_c, 1, 57, 0
4, 57144, Note_on_c, 1, 66, 70
4, 57167, Note_on_c, 1, 66, 0
4, 57168, Note_on_c, 1, 60, 70
4, 57191, Note_on_c, 1, 60, 0
4, 57192, Note_on_c, 1, 66, 70
4, 57215, Note_on_c, 1, 66, 0
4, 57216, Note_on_c, 1, 57, 70
4, 57239, Note_on_c, 1, 57, 0
4, 57240, Note_on_c, 1, 66, 70
4, 57263, Note_on_c, 1, 66, 0
4, 57264, Note_on_c, 1, 60, 70
4, 57287, Note_on_c, 1, 60, 0
4, 57288, Note_on_c, 1, 66, 70
4, 57311, Note_on_c, 1, 66, 0
4, 57312, Note_on_c, 1, 59, 70
4, 57335, Note_on_c, 1, 59, 0
4, 57336, Note_on_c, 1, 66, 70
4, 57359, Note_on_c, 1, 66, 0
4, 57360, Note_on_c, 1, 63, 70
4, 57383, Note_on_c, 1, 63, 0
4, 57384, Note_on_c, 1, 66, 70
4, 57407, Note_on_c, 1, 66, 0
4, 57408, Note_on_c, 1, 57, 70
4, 57431, Note_on_c, 1, 57, 0
4, 57432, Note_on_c, 1, 63, 70
4, 57455, Note_on_c, 1, 63, 0
4, 57456, Note_on_c, 1, 59, 70
4, 57479, Note_on_c, 1, 59, 0
4, 57480, Note_on_c, 1, 63, 70
4, 57503, Note_on_c, 1, 63, 0
4, 57504, Note_on_c, 1, 55, 70
4, 57527, Note_on_c, 1, 55, 0
4, 57528, Note_on_c, 1, 64, 70
4, 57551, Note_on_c, 1, 64, 0
4, 57552, Note_on_c, 1, 59, 70
4, 57575, Note_on_c, 1, 59, 0
4, 57576, Note_on_c, 1, 64, 70
4, 57599, Note_on_c, 1, 64, 0
4, 57600, Note_on_c, 1, 51, 70
4, 57623, Note_on_c, 1, 51, 0
4, 57624, Note_on_c, 1, 59, 70
4, 57647, Note_on_c, 1, 59, 0
4, 57648, Note_on_c, 1, 54, 70
4, 57671, Note_on_c, 1, 54, 0
4, 57672, Note_on_c, 1, 59, 70
4, 57695, Note_on_c, 1, 59, 0
4, 57696, Note_on_c, 1, 52, 70
4, 57719, Note_on_c, 1, 52, 0
4, 57720, Note_on_c, 1, 59, 70
4, 57743, Note_on_c, 1, 59, 0
4, 57744, Note_on_c, 1, 55, 70
4, 57767, Note_on_c, 1, 55, 0
4, 57768, Note_on_c, 1, 59, 70
4, 57791, Note_on_c, 1, 59, 0
4, 57792, Note_on_c, 1, 47, 70
4, 57815, Note_on_c, 1, 47, 0
4, 57816, Note_on_c, 1, 59, 70
4, 57839, Note_on_c, 1, 59, 0
4, 57840, Note_on_c, 1, 51, 70
4, 57863, Note_on_c, 1, 51, 0
4, 57864, Note_on_c, 1, 59, 70
4, 57887, Note_on_c, 1, 59, 0
4, 57888, Note_on_c, 1, 48, 70
4, 57911, Note_on_c, 1, 48, 0
4, 57912, Note_on_c, 1, 59, 70
4, 57935, Note_on_c, 1, 59, 0
4, 57936, Note_on_c, 1, 55, 70
4, 57959, Note_on_c, 1, 55, 0
4, 57960, Note_on_c, 1, 59, 70
4, 57983, Note_on_c, 1, 59, 0
4, 57984, Note_on_c, 1, 48, 70
4, 58007, Note_on_c, 1, 48, 0
4, 58008, Note_on_c, 1, 57, 70
4, 58031, Note_on_c, 1, 57, 0
4, 58032, Note_on_c, 1, 55, 70
4, 58055, Note_on_c, 1, 55, 0
4, 58056, Note_on_c, 1, 57, 70
4, 58079, Note_on_c, 1, 57, 0
4, 58080, Note_on_c, 1, 47, 70
4, 58103, Note_on_c, 1, 47, 0
4, 58104, Note_on_c, 1, 57, 70
4, 58127, Note_on_c, 1, 57, 0
4, 58128, Note_on_c, 1, 54, 70
4, 58151, Note_on_c, 1, 54, 0
4, 58152, Note_on_c, 1, 57, 70
4, 58175, Note_on_c, 1, 57, 0
4, 58176, Note_on_c, 1, 48, 70
4, 58199, Note_on_c, 1, 48, 0
4, 58200, Note_on_c, 1, 55, 70
4, 58223, Note_on_c, 1, 55, 0
4, 58224, Note_on_c, 1, 52, 70
4, 58247, Note_on_c, 1, 52, 0
4, 58248, Note_on_c, 1, 55, 70
4, 58271, Note_on_c, 1, 55, 0
4, 58272, Note_on_c, 1, 57, 70
4, 58272, Note_on_c, 1, 45, 70
4, 58317, Note_on_c, 1, 57, 0
4, 58317, Note_on_c, 1, 45, 0
4, 58368, Note_on_c, 1, 59, 70
4, 58368, Note_on_c, 1, 47, 70
4, 58413, Note_on_c, 1, 59, 0
4, 58413, Note_on_c, 1, 47, 0
4, 58464, Note_on_c, 1, 52, 70
4, 58464, Note_on_c, 1, 40, 70
4, 58597, Note_on_c, 1, 52, 0
4, 58597, Note_on_c, 1, 40, 0
4, 58656, Note_on_c, 1, 52, 4
4, 58656, Note_on_c, 1, 40, 4
4, 58745, Note_on_c, 1, 52, 0
4, 58745, Note_on_c, 1, 40, 0
4, 58752, End_track
5, 0, Start_track
5, 0, Program_c, 1, 0
5, 0, Control_c, 1, 7, 127
5, 0, Control_c, 1, 10, 64
5, 1728, Note_on_c, 1, 50, 80
5, 1905, Note_on_c, 1, 50, 0
5, 3264, Note_on_c, 1, 71, 64
5, 3358, Note_on_c, 1, 71, 0
5, 3360, Note_on_c, 1, 71, 64
5, 3454, Note_on_c, 1, 71, 0
5, 5280, Note_on_c, 1, 31, 64
5, 5325, Note_on_c, 1, 31, 0
5, 5376, Note_on_c, 1, 34, 64
5, 5421, Note_on_c, 1, 34, 0
5, 5568, Note_on_c, 1, 38, 64
5, 5657, Note_on_c, 1, 38, 0
5, 7488, Note_on_c, 1, 50, 80
5, 7665, Note_on_c, 1, 50, 0
5, 9024, Note_on_c, 1, 71, 64
5, 9118, Note_on_c, 1, 71, 0
5, 9120, Note_on_c, 1, 71, 64
5, 9214, Note_on_c, 1, 71, 0
5, 11040, Note_on_c, 1, 31, 64
5, 11085, Note_on_c, 1, 31, 0
5, 11136, Note_on_c, 1, 34, 64
5, 11181, Note_on_c, 1, 34, 0
5, 11328, Note_on_c, 1, 38, 64
5, 11417, Note_on_c, 1, 38, 0
5, 11808, Note_on_c, 1, 52, 64
5, 11897, Note_on_c, 1, 52, 0
5, 11904, Note_on_c, 1, 59, 64
5, 11949, Note_on_c, 1, 59, 0
5, 58656, End_track
6, 0, Start_track
6, 0, Title_t, "Sonata I   Haydn  "
6, 0, End_track
0, 0, End_of_file
