0, 0, Header, 1, 6, 96
1, 0, Start_track
1, 0, Copyright_t, "Copyright  2000 <copyright holder>"
1, 0, Text_t, "Piano Solo\015\012"
1, 0, Text_t, "<composer>\015\012"
1, 0, Sequencer_specific, 16, 68, 87, 77, 90, 86, 82, 83, 78, 32, 55, 46, 49, 46, 50, 46, 48
1, 0, Time_signature, 3, 2, 24, 8
1, 0, Tempo, 1578947
1, 0, Key_signature, -1, "major"
1, 8064, Key_signature, 2, "major"
1, 8064, Time_signature, 2, 2, 24, 8
1, 8208, Tempo, 400000
1, 15936, Key_signature, -1, "major"
1, 17472, Key_signature, -1, "major"
1, 23616, Key_signature, 2, "major"
1, 25152, Key_signature, 2, "major"
1, 31296, Key_signature, 1, "major"
1, 32832, Key_signature, 1, "major"
1, 41472, Key_signature, 2, "major"
1, 49344, End_track
2, 0, Start_track
2, 0, Program_c, 0, 0
2, 0, Control_c, 0, 7, 127
2, 0, Control_c, 0, 10, 64
2, 96, Note_on_c, 0, 65, 76
2, 236, Note_on_c, 0, 65, 0
2, 240, Note_on_c, 0, 64, 76
2, 285, Note_on_c, 0, 64, 0
2, 288, Note_on_c, 0, 62, 76
2, 407, Note_on_c, 0, 62, 0
2, 408, Note_on_c, 0, 62, 76
2, 416, Note_on_c, 0, 62, 0
2, 416, Note_on_c, 0, 64, 76
2, 424, Note_on_c, 0, 64, 0
2, 424, Note_on_c, 0, 66, 76
2, 432, Note_on_c, 0, 66, 0
2, 432, Note_on_c, 0, 67, 76
2, 466, Note_on_c, 0, 67, 0
2, 468, Note_on_c, 0, 69, 76
2, 480, Note_on_c, 0, 69, 0
2, 480, Note_on_c, 0, 70, 76
2, 665, Note_on_c, 0, 70, 0
2, 672, Note_on_c, 0, 69, 76
2, 739, Note_on_c, 0, 69, 0
2, 744, Note_on_c, 0, 67, 76
2, 752, Note_on_c, 0, 67, 0
2, 752, Note_on_c, 0, 65, 76
2, 760, Note_on_c, 0, 65, 0
2, 760, Note_on_c, 0, 64, 76
2, 768, Note_on_c, 0, 64, 0
2, 768, Note_on_c, 0, 65, 76
2, 846, Note_on_c, 0, 65, 0
2, 852, Note_on_c, 0, 64, 76
2, 856, Note_on_c, 0, 64, 0
2, 856, Note_on_c, 0, 65, 76
2, 860, Note_on_c, 0, 65, 0
2, 860, Note_on_c, 0, 67, 76
2, 864, Note_on_c, 0, 67, 0
2, 864, Note_on_c, 0, 65, 76
2, 960, Note_on_c, 0, 65, 0
2, 960, Note_on_c, 0, 64, 74
2, 1147, Note_on_c, 0, 64, 0
2, 1152, Note_on_c, 0, 65, 76
2, 1241, Note_on_c, 0, 65, 0
2, 1248, Note_on_c, 0, 67, 76
2, 1381, Note_on_c, 0, 67, 0
2, 1392, Note_on_c, 0, 67, 76
2, 1437, Note_on_c, 0, 67, 0
2, 1440, Note_on_c, 0, 67, 76
2, 1507, Note_on_c, 0, 67, 0
2, 1512, Note_on_c, 0, 60, 76
2, 1520, Note_on_c, 0, 60, 0
2, 1520, Note_on_c, 0, 62, 76
2, 1528, Note_on_c, 0, 62, 0
2, 1528, Note_on_c, 0, 64, 76
2, 1536, Note_on_c, 0, 64, 0
2, 1536, Note_on_c, 0, 65, 76
2, 1570, Note_on_c, 0, 65, 0
2, 1572, Note_on_c, 0, 64, 76
2, 1584, Note_on_c, 0, 64, 0
2, 1584, Note_on_c, 0, 65, 76
2, 1618, Note_on_c, 0, 65, 0
2, 1620, Note_on_c, 0, 67, 76
2, 1632, Note_on_c, 0, 67, 0
2, 1632, Note_on_c, 0, 69, 76
2, 1721, Note_on_c, 0, 69, 0
2, 1728, Note_on_c, 0, 69, 76
2, 1776, Note_on_c, 0, 69, 0
2, 1776, Note_on_c, 0, 67, 79
2, 1821, Note_on_c, 0, 67, 0
2, 1824, Note_on_c, 0, 64, 82
2, 1829, Note_on_c, 0, 67, 82
2, 1834, Note_on_c, 0, 70, 82
2, 1839, Note_on_c, 0, 74, 82
2, 1917, Note_on_c, 0, 74, 0
2, 1917, Note_on_c, 0, 70, 0
2, 1917, Note_on_c, 0, 67, 0
2, 1917, Note_on_c, 0, 64, 0
2, 1920, Note_on_c, 0, 65, 82
2, 1924, Note_on_c, 0, 70, 82
2, 1928, Note_on_c, 0, 74, 82
2, 1968, Note_on_c, 0, 74, 0
2, 1968, Note_on_c, 0, 70, 0
2, 1968, Note_on_c, 0, 65, 0
2, 1968, Note_on_c, 0, 72, 82
2, 1968, Note_on_c, 0, 69, 82
2, 2015, Note_on_c, 0, 72, 0
2, 2015, Note_on_c, 0, 69, 0
2, 2016, Note_on_c, 0, 62, 82
2, 2020, Note_on_c, 0, 69, 82
2, 2024, Note_on_c, 0, 72, 82
2, 2064, Note_on_c, 0, 72, 0
2, 2064, Note_on_c, 0, 69, 0
2, 2064, Note_on_c, 0, 62, 0
2, 2064, Note_on_c, 0, 70, 80
2, 2064, Note_on_c, 0, 67, 80
2, 2111, Note_on_c, 0, 70, 0
2, 2111, Note_on_c, 0, 67, 0
2, 2112, Note_on_c, 0, 60, 78
2, 2116, Note_on_c, 0, 67, 78
2, 2120, Note_on_c, 0, 70, 78
2, 2160, Note_on_c, 0, 70, 0
2, 2160, Note_on_c, 0, 67, 0
2, 2160, Note_on_c, 0, 60, 0
2, 2160, Note_on_c, 0, 69, 76
2, 2160, Note_on_c, 0, 65, 76
2, 2207, Note_on_c, 0, 69, 0
2, 2207, Note_on_c, 0, 65, 0
2, 2208, Note_on_c, 0, 60, 74
2, 2212, Note_on_c, 0, 65, 74
2, 2216, Note_on_c, 0, 69, 74
2, 2256, Note_on_c, 0, 69, 0
2, 2256, Note_on_c, 0, 65, 0
2, 2256, Note_on_c, 0, 60, 0
2, 2256, Note_on_c, 0, 67, 72
2, 2256, Note_on_c, 0, 64, 72
2, 2303, Note_on_c, 0, 67, 0
2, 2303, Note_on_c, 0, 64, 0
2, 2304, Note_on_c, 0, 58, 70
2, 2311, Note_on_c, 0, 64, 70
2, 2318, Note_on_c, 0, 67, 70
2, 2400, Note_on_c, 0, 67, 0
2, 2400, Note_on_c, 0, 64, 0
2, 2400, Note_on_c, 0, 58, 0
2, 2400, Note_on_c, 0, 69, 66
2, 2400, Note_on_c, 0, 65, 66
2, 2400, Note_on_c, 0, 57, 66
2, 2587, Note_on_c, 0, 69, 0
2, 2587, Note_on_c, 0, 65, 0
2, 2587, Note_on_c, 0, 57, 0
2, 2688, Note_on_c, 0, 65, 76
2, 2828, Note_on_c, 0, 65, 0
2, 2832, Note_on_c, 0, 64, 76
2, 2877, Note_on_c, 0, 64, 0
2, 2880, Note_on_c, 0, 62, 76
2, 2999, Note_on_c, 0, 62, 0
2, 3000, Note_on_c, 0, 62, 76
2, 3008, Note_on_c, 0, 62, 0
2, 3008, Note_on_c, 0, 64, 76
2, 3016, Note_on_c, 0, 64, 0
2, 3016, Note_on_c, 0, 66, 76
2, 3024, Note_on_c, 0, 66, 0
2, 3024, Note_on_c, 0, 67, 76
2, 3058, Note_on_c, 0, 67, 0
2, 3060, Note_on_c, 0, 69, 76
2, 3072, Note_on_c, 0, 69, 0
2, 3072, Note_on_c, 0, 70, 76
2, 3257, Note_on_c, 0, 70, 0
2, 3264, Note_on_c, 0, 69, 76
2, 3331, Note_on_c, 0, 69, 0
2, 3336, Note_on_c, 0, 67, 76
2, 3344, Note_on_c, 0, 67, 0
2, 3344, Note_on_c, 0, 65, 76
2, 3352, Note_on_c, 0, 65, 0
2, 3352, Note_on_c, 0, 64, 76
2, 3360, Note_on_c, 0, 64, 0
2, 3360, Note_on_c, 0, 65, 76
2, 3438, Note_on_c, 0, 65, 0
2, 3444, Note_on_c, 0, 64, 76
2, 3448, Note_on_c, 0, 64, 0
2, 3448, Note_on_c, 0, 65, 76
2, 3452, Note_on_c, 0, 65, 0
2, 3452, Note_on_c, 0, 67, 76
2, 3456, Note_on_c, 0, 67, 0
2, 3456, Note_on_c, 0, 65, 76
2, 3552, Note_on_c, 0, 65, 0
2, 3552, Note_on_c, 0, 64, 74
2, 3739, Note_on_c, 0, 64, 0
2, 3744, Note_on_c, 0, 65, 76
2, 3833, Note_on_c, 0, 65, 0
2, 3840, Note_on_c, 0, 67, 76
2, 3973, Note_on_c, 0, 67, 0
2, 3984, Note_on_c, 0, 67, 76
2, 4029, Note_on_c, 0, 67, 0
2, 4032, Note_on_c, 0, 67, 76
2, 4099, Note_on_c, 0, 67, 0
2, 4104, Note_on_c, 0, 60, 76
2, 4112, Note_on_c, 0, 60, 0
2, 4112, Note_on_c, 0, 62, 76
2, 4120, Note_on_c, 0, 62, 0
2, 4120, Note_on_c, 0, 64, 76
2, 4128, Note_on_c, 0, 64, 0
2, 4128, Note_on_c, 0, 65, 76
2, 4162, Note_on_c, 0, 65, 0
2, 4164, Note_on_c, 0, 64, 76
2, 4176, Note_on_c, 0, 64, 0
2, 4176, Note_on_c, 0, 65, 76
2, 4210, Note_on_c, 0, 65, 0
2, 4212, Note_on_c, 0, 67, 76
2, 4224, Note_on_c, 0, 67, 0
2, 4224, Note_on_c, 0, 69, 76
2, 4313, Note_on_c, 0, 69, 0
2, 4320, Note_on_c, 0, 69, 76
2, 4368, Note_on_c, 0, 69, 0
2, 4368, Note_on_c, 0, 67, 79
2, 4413, Note_on_c, 0, 67, 0
2, 4416, Note_on_c, 0, 64, 82
2, 4421, Note_on_c, 0, 67, 82
2, 4426, Note_on_c, 0, 70, 82
2, 4431, Note_on_c, 0, 74, 82
2, 4509, Note_on_c, 0, 74, 0
2, 4509, Note_on_c, 0, 70, 0
2, 4509, Note_on_c, 0, 67, 0
2, 4509, Note_on_c, 0, 64, 0
2, 4512, Note_on_c, 0, 65, 82
2, 4516, Note_on_c, 0, 70, 82
2, 4520, Note_on_c, 0, 74, 82
2, 4560, Note_on_c, 0, 74, 0
2, 4560, Note_on_c, 0, 70, 0
2, 4560, Note_on_c, 0, 65, 0
2, 4560, Note_on_c, 0, 72, 82
2, 4560, Note_on_c, 0, 69, 82
2, 4607, Note_on_c, 0, 72, 0
2, 4607, Note_on_c, 0, 69, 0
2, 4608, Note_on_c, 0, 62, 82
2, 4612, Note_on_c, 0, 69, 82
2, 4616, Note_on_c, 0, 72, 82
2, 4656, Note_on_c, 0, 72, 0
2, 4656, Note_on_c, 0, 69, 0
2, 4656, Note_on_c, 0, 62, 0
2, 4656, Note_on_c, 0, 70, 80
2, 4656, Note_on_c, 0, 67, 80
2, 4703, Note_on_c, 0, 70, 0
2, 4703, Note_on_c, 0, 67, 0
2, 4704, Note_on_c, 0, 60, 78
2, 4708, Note_on_c, 0, 67, 78
2, 4712, Note_on_c, 0, 70, 78
2, 4752, Note_on_c, 0, 70, 0
2, 4752, Note_on_c, 0, 67, 0
2, 4752, Note_on_c, 0, 60, 0
2, 4752, Note_on_c, 0, 69, 76
2, 4752, Note_on_c, 0, 65, 76
2, 4799, Note_on_c, 0, 69, 0
2, 4799, Note_on_c, 0, 65, 0
2, 4800, Note_on_c, 0, 60, 74
2, 4804, Note_on_c, 0, 65, 74
2, 4808, Note_on_c, 0, 69, 74
2, 4848, Note_on_c, 0, 69, 0
2, 4848, Note_on_c, 0, 65, 0
2, 4848, Note_on_c, 0, 60, 0
2, 4848, Note_on_c, 0, 67, 72
2, 4848, Note_on_c, 0, 64, 72
2, 4895, Note_on_c, 0, 67, 0
2, 4895, Note_on_c, 0, 64, 0
2, 4896, Note_on_c, 0, 58, 70
2, 4903, Note_on_c, 0, 64, 70
2, 4910, Note_on_c, 0, 67, 70
2, 4992, Note_on_c, 0, 67, 0
2, 4992, Note_on_c, 0, 64, 0
2, 4992, Note_on_c, 0, 58, 0
2, 4992, Note_on_c, 0, 69, 66
2, 4992, Note_on_c, 0, 65, 66
2, 4992, Note_on_c, 0, 57, 66
2, 5179, Note_on_c, 0, 69, 0
2, 5179, Note_on_c, 0, 65, 0
2, 5179, Note_on_c, 0, 57, 0
2, 5352, Note_on_c, 0, 69, 76
2, 5364, Note_on_c, 0, 69, 0
2, 5364, Note_on_c, 0, 67, 76
2, 5376, Note_on_c, 0, 67, 0
2, 5376, Note_on_c, 0, 66, 76
2, 5421, Note_on_c, 0, 66, 0
2, 5424, Note_on_c, 0, 69, 76
2, 5469, Note_on_c, 0, 69, 0
2, 5472, Note_on_c, 0, 69, 76
2, 5539, Note_on_c, 0, 69, 0
2, 5544, Note_on_c, 0, 62, 76
2, 5552, Note_on_c, 0, 62, 0
2, 5552, Note_on_c, 0, 64, 76
2, 5560, Note_on_c, 0, 64, 0
2, 5560, Note_on_c, 0, 66, 76
2, 5568, Note_on_c, 0, 66, 0
2, 5568, Note_on_c, 0, 67, 76
2, 5602, Note_on_c, 0, 67, 0
2, 5604, Note_on_c, 0, 66, 76
2, 5616, Note_on_c, 0, 66, 0
2, 5616, Note_on_c, 0, 67, 76
2, 5650, Note_on_c, 0, 67, 0
2, 5652, Note_on_c, 0, 69, 76
2, 5664, Note_on_c, 0, 69, 0
2, 5664, Note_on_c, 0, 70, 76
2, 5753, Note_on_c, 0, 70, 0
2, 5760, Note_on_c, 0, 70, 76
2, 5808, Note_on_c, 0, 70, 0
2, 5808, Note_on_c, 0, 69, 76
2, 5853, Note_on_c, 0, 69, 0
2, 5856, Note_on_c, 0, 69, 76
2, 5945, Note_on_c, 0, 69, 0
2, 5952, Note_on_c, 0, 67, 76
2, 6041, Note_on_c, 0, 67, 0
2, 6048, Note_on_c, 0, 69, 76
2, 6225, Note_on_c, 0, 69, 0
2, 6288, Note_on_c, 0, 70, 76
2, 6333, Note_on_c, 0, 70, 0
2, 6336, Note_on_c, 0, 70, 76
2, 6403, Note_on_c, 0, 70, 0
2, 6408, Note_on_c, 0, 69, 76
2, 6431, Note_on_c, 0, 69, 0
2, 6432, Note_on_c, 0, 69, 76
2, 6521, Note_on_c, 0, 69, 0
2, 6576, Note_on_c, 0, 70, 66
2, 6621, Note_on_c, 0, 70, 0
2, 6624, Note_on_c, 0, 70, 66
2, 6691, Note_on_c, 0, 70, 0
2, 6696, Note_on_c, 0, 69, 66
2, 6719, Note_on_c, 0, 69, 0
2, 6720, Note_on_c, 0, 69, 66
2, 6809, Note_on_c, 0, 69, 0
2, 6816, Note_on_c, 0, 69, 76
2, 6816, Note_on_c, 0, 66, 76
2, 6816, Note_on_c, 0, 62, 76
2, 6905, Note_on_c, 0, 69, 0
2, 6905, Note_on_c, 0, 66, 0
2, 6905, Note_on_c, 0, 62, 0
2, 6912, Note_on_c, 0, 58, 89
2, 6917, Note_on_c, 0, 63, 89
2, 6922, Note_on_c, 0, 67, 89
2, 6927, Note_on_c, 0, 70, 89
2, 7075, Note_on_c, 0, 70, 0
2, 7075, Note_on_c, 0, 67, 0
2, 7075, Note_on_c, 0, 63, 0
2, 7075, Note_on_c, 0, 58, 0
2, 7080, Note_on_c, 0, 69, 76
2, 7088, Note_on_c, 0, 69, 0
2, 7088, Note_on_c, 0, 67, 76
2, 7096, Note_on_c, 0, 67, 0
2, 7096, Note_on_c, 0, 65, 76
2, 7104, Note_on_c, 0, 65, 0
2, 7104, Note_on_c, 0, 63, 76
2, 7149, Note_on_c, 0, 63, 0
2, 7152, Note_on_c, 0, 62, 76
2, 7197, Note_on_c, 0, 62, 0
2, 7200, Note_on_c, 0, 62, 76
2, 7296, Note_on_c, 0, 62, 0
2, 7296, Note_on_c, 0, 61, 76
2, 7341, Note_on_c, 0, 61, 0
2, 8208, Note_on_c, 0, 69, 70
2, 8228, Note_on_c, 0, 69, 0
2, 8256, Note_on_c, 0, 69, 86
2, 8352, Note_on_c, 0, 69, 0
2, 8352, Note_on_c, 0, 66, 70
2, 8372, Note_on_c, 0, 66, 0
2, 8400, Note_on_c, 0, 74, 70
2, 8420, Note_on_c, 0, 74, 0
2, 8448, Note_on_c, 0, 74, 86
2, 8544, Note_on_c, 0, 74, 0
2, 8544, Note_on_c, 0, 73, 70
2, 8564, Note_on_c, 0, 73, 0
2, 8592, Note_on_c, 0, 76, 70
2, 8612, Note_on_c, 0, 76, 0
2, 8640, Note_on_c, 0, 76, 86
2, 8712, Note_on_c, 0, 76, 0
2, 8712, Note_on_c, 0, 78, 73
2, 8735, Note_on_c, 0, 78, 0
2, 8736, Note_on_c, 0, 79, 74
2, 8781, Note_on_c, 0, 79, 0
2, 8784, Note_on_c, 0, 79, 76
2, 8804, Note_on_c, 0, 79, 0
2, 8832, Note_on_c, 0, 79, 92
2, 8928, Note_on_c, 0, 79, 0
2, 8928, Note_on_c, 0, 78, 72
2, 8973, Note_on_c, 0, 78, 0
2, 8976, Note_on_c, 0, 81, 70
2, 8996, Note_on_c, 0, 81, 0
2, 9024, Note_on_c, 0, 81, 86
2, 9168, Note_on_c, 0, 81, 0
2, 9168, Note_on_c, 0, 82, 70
2, 9213, Note_on_c, 0, 82, 0
2, 9216, Note_on_c, 0, 83, 86
2, 9288, Note_on_c, 0, 83, 0
2, 9288, Note_on_c, 0, 85, 72
2, 9311, Note_on_c, 0, 85, 0
2, 9312, Note_on_c, 0, 88, 73
2, 9335, Note_on_c, 0, 88, 0
2, 9336, Note_on_c, 0, 86, 73
2, 9359, Note_on_c, 0, 86, 0
2, 9360, Note_on_c, 0, 85, 74
2, 9383, Note_on_c, 0, 85, 0
2, 9384, Note_on_c, 0, 83, 75
2, 9407, Note_on_c, 0, 83, 0
2, 9408, Note_on_c, 0, 81, 76
2, 9497, Note_on_c, 0, 81, 0
2, 9504, Note_on_c, 0, 80, 76
2, 9516, Note_on_c, 0, 80, 0
2, 9516, Note_on_c, 0, 81, 76
2, 9528, Note_on_c, 0, 81, 0
2, 9528, Note_on_c, 0, 80, 76
2, 9571, Note_on_c, 0, 80, 0
2, 9576, Note_on_c, 0, 81, 76
2, 9599, Note_on_c, 0, 81, 0
2, 9600, Note_on_c, 0, 81, 92
2, 9696, Note_on_c, 0, 81, 0
2, 9744, Note_on_c, 0, 69, 70
2, 9789, Note_on_c, 0, 69, 0
2, 9792, Note_on_c, 0, 69, 86
2, 9888, Note_on_c, 0, 69, 0
2, 9888, Note_on_c, 0, 66, 70
2, 9908, Note_on_c, 0, 66, 0
2, 9936, Note_on_c, 0, 74, 70
2, 9956, Note_on_c, 0, 74, 0
2, 9984, Note_on_c, 0, 74, 86
2, 10080, Note_on_c, 0, 74, 0
2, 10080, Note_on_c, 0, 73, 70
2, 10100, Note_on_c, 0, 73, 0
2, 10128, Note_on_c, 0, 76, 70
2, 10148, Note_on_c, 0, 76, 0
2, 10176, Note_on_c, 0, 76, 86
2, 10248, Note_on_c, 0, 76, 0
2, 10248, Note_on_c, 0, 78, 73
2, 10271, Note_on_c, 0, 78, 0
2, 10272, Note_on_c, 0, 79, 74
2, 10317, Note_on_c, 0, 79, 0
2, 10320, Note_on_c, 0, 79, 76
2, 10340, Note_on_c, 0, 79, 0
2, 10368, Note_on_c, 0, 79, 92
2, 10464, Note_on_c, 0, 79, 0
2, 10464, Note_on_c, 0, 78, 72
2, 10509, Note_on_c, 0, 78, 0
2, 10512, Note_on_c, 0, 81, 70
2, 10532, Note_on_c, 0, 81, 0
2, 10560, Note_on_c, 0, 81, 86
2, 10704, Note_on_c, 0, 81, 0
2, 10704, Note_on_c, 0, 82, 70
2, 10749, Note_on_c, 0, 82, 0
2, 10752, Note_on_c, 0, 83, 86
2, 10824, Note_on_c, 0, 83, 0
2, 10824, Note_on_c, 0, 85, 72
2, 10847, Note_on_c, 0, 85, 0
2, 10848, Note_on_c, 0, 88, 73
2, 10871, Note_on_c, 0, 88, 0
2, 10872, Note_on_c, 0, 86, 73
2, 10895, Note_on_c, 0, 86, 0
2, 10896, Note_on_c, 0, 85, 74
2, 10919, Note_on_c, 0, 85, 0
2, 10920, Note_on_c, 0, 83, 75
2, 10943, Note_on_c, 0, 83, 0
2, 10944, Note_on_c, 0, 81, 76
2, 11033, Note_on_c, 0, 81, 0
2, 11040, Note_on_c, 0, 80, 76
2, 11052, Note_on_c, 0, 80, 0
2, 11052, Note_on_c, 0, 81, 76
2, 11064, Note_on_c, 0, 81, 0
2, 11064, Note_on_c, 0, 80, 76
2, 11107, Note_on_c, 0, 80, 0
2, 11112, Note_on_c, 0, 81, 76
2, 11135, Note_on_c, 0, 81, 0
2, 11136, Note_on_c, 0, 81, 92
2, 11232, Note_on_c, 0, 81, 0
2, 11280, Note_on_c, 0, 81, 76
2, 11325, Note_on_c, 0, 81, 0
2, 11328, Note_on_c, 0, 81, 92
2, 11424, Note_on_c, 0, 81, 0
2, 11424, Note_on_c, 0, 75, 76
2, 11444, Note_on_c, 0, 75, 0
2, 11472, Note_on_c, 0, 83, 76
2, 11492, Note_on_c, 0, 83, 0
2, 11520, Note_on_c, 0, 83, 92
2, 11616, Note_on_c, 0, 83, 0
2, 11616, Note_on_c, 0, 76, 76
2, 11636, Note_on_c, 0, 76, 0
2, 11664, Note_on_c, 0, 79, 76
2, 11684, Note_on_c, 0, 79, 0
2, 11712, Note_on_c, 0, 79, 86
2, 11784, Note_on_c, 0, 79, 0
2, 11784, Note_on_c, 0, 81, 73
2, 11796, Note_on_c, 0, 81, 0
2, 11796, Note_on_c, 0, 79, 73
2, 11808, Note_on_c, 0, 79, 0
2, 11808, Note_on_c, 0, 78, 74
2, 11853, Note_on_c, 0, 78, 0
2, 11856, Note_on_c, 0, 78, 76
2, 11901, Note_on_c, 0, 78, 0
2, 11904, Note_on_c, 0, 76, 76
2, 11949, Note_on_c, 0, 76, 0
2, 11952, Note_on_c, 0, 73, 74
2, 11997, Note_on_c, 0, 73, 0
2, 12000, Note_on_c, 0, 69, 72
2, 12045, Note_on_c, 0, 69, 0
2, 12048, Note_on_c, 0, 69, 70
2, 12048, Note_on_c, 0, 66, 70
2, 12093, Note_on_c, 0, 69, 0
2, 12093, Note_on_c, 0, 66, 0
2, 12096, Note_on_c, 0, 69, 86
2, 12096, Note_on_c, 0, 66, 86
2, 12192, Note_on_c, 0, 69, 0
2, 12192, Note_on_c, 0, 62, 70
2, 12212, Note_on_c, 0, 66, 0
2, 12212, Note_on_c, 0, 62, 0
2, 12240, Note_on_c, 0, 74, 70
2, 12240, Note_on_c, 0, 66, 70
2, 12260, Note_on_c, 0, 74, 0
2, 12260, Note_on_c, 0, 66, 0
2, 12288, Note_on_c, 0, 74, 86
2, 12288, Note_on_c, 0, 66, 86
2, 12384, Note_on_c, 0, 74, 0
2, 12384, Note_on_c, 0, 66, 0
2, 12384, Note_on_c, 0, 73, 70
2, 12384, Note_on_c, 0, 64, 70
2, 12404, Note_on_c, 0, 73, 0
2, 12404, Note_on_c, 0, 64, 0
2, 12432, Note_on_c, 0, 76, 70
2, 12432, Note_on_c, 0, 73, 70
2, 12452, Note_on_c, 0, 76, 0
2, 12452, Note_on_c, 0, 73, 0
2, 12480, Note_on_c, 0, 76, 86
2, 12480, Note_on_c, 0, 73, 86
2, 12552, Note_on_c, 0, 76, 0
2, 12552, Note_on_c, 0, 73, 0
2, 12552, Note_on_c, 0, 78, 70
2, 12552, Note_on_c, 0, 74, 70
2, 12575, Note_on_c, 0, 78, 0
2, 12575, Note_on_c, 0, 74, 0
2, 12576, Note_on_c, 0, 79, 70
2, 12576, Note_on_c, 0, 76, 70
2, 12621, Note_on_c, 0, 79, 0
2, 12621, Note_on_c, 0, 76, 0
2, 12624, Note_on_c, 0, 79, 70
2, 12624, Note_on_c, 0, 76, 70
2, 12644, Note_on_c, 0, 79, 0
2, 12644, Note_on_c, 0, 76, 0
2, 12672, Note_on_c, 0, 79, 86
2, 12672, Note_on_c, 0, 76, 86
2, 12768, Note_on_c, 0, 79, 0
2, 12768, Note_on_c, 0, 76, 0
2, 12768, Note_on_c, 0, 78, 70
2, 12768, Note_on_c, 0, 74, 70
2, 12813, Note_on_c, 0, 78, 0
2, 12813, Note_on_c, 0, 74, 0
2, 12816, Note_on_c, 0, 81, 76
2, 12836, Note_on_c, 0, 81, 0
2, 12864, Note_on_c, 0, 81, 92
2, 12960, Note_on_c, 0, 81, 0
2, 12960, Note_on_c, 0, 74, 76
2, 12980, Note_on_c, 0, 74, 0
2, 13008, Note_on_c, 0, 86, 76
2, 13028, Note_on_c, 0, 86, 0
2, 13056, Note_on_c, 0, 86, 92
2, 13128, Note_on_c, 0, 86, 0
2, 13128, Note_on_c, 0, 83, 76
2, 13151, Note_on_c, 0, 83, 0
2, 13152, Note_on_c, 0, 79, 76
2, 13197, Note_on_c, 0, 79, 0
2, 13200, Note_on_c, 0, 83, 76
2, 13220, Note_on_c, 0, 83, 0
2, 13248, Note_on_c, 0, 81, 92
2, 13320, Note_on_c, 0, 81, 0
2, 13320, Note_on_c, 0, 78, 76
2, 13343, Note_on_c, 0, 78, 0
2, 13344, Note_on_c, 0, 74, 76
2, 13389, Note_on_c, 0, 74, 0
2, 13392, Note_on_c, 0, 73, 76
2, 13437, Note_on_c, 0, 73, 0
2, 13440, Note_on_c, 0, 74, 76
2, 13529, Note_on_c, 0, 74, 0
2, 13584, Note_on_c, 0, 81, 70
2, 13604, Note_on_c, 0, 81, 0
2, 13632, Note_on_c, 0, 81, 86
2, 13728, Note_on_c, 0, 81, 0
2, 13728, Note_on_c, 0, 75, 70
2, 13748, Note_on_c, 0, 75, 0
2, 13776, Note_on_c, 0, 83, 70
2, 13796, Note_on_c, 0, 83, 0
2, 13824, Note_on_c, 0, 83, 86
2, 13920, Note_on_c, 0, 83, 0
2, 13920, Note_on_c, 0, 76, 70
2, 13940, Note_on_c, 0, 76, 0
2, 13968, Note_on_c, 0, 79, 70
2, 13988, Note_on_c, 0, 79, 0
2, 14016, Note_on_c, 0, 79, 86
2, 14088, Note_on_c, 0, 79, 0
2, 14088, Note_on_c, 0, 81, 73
2, 14100, Note_on_c, 0, 81, 0
2, 14100, Note_on_c, 0, 79, 73
2, 14112, Note_on_c, 0, 79, 0
2, 14112, Note_on_c, 0, 78, 74
2, 14157, Note_on_c, 0, 78, 0
2, 14160, Note_on_c, 0, 78, 76
2, 14205, Note_on_c, 0, 78, 0
2, 14208, Note_on_c, 0, 76, 76
2, 14253, Note_on_c, 0, 76, 0
2, 14256, Note_on_c, 0, 73, 74
2, 14301, Note_on_c, 0, 73, 0
2, 14304, Note_on_c, 0, 69, 72
2, 14349, Note_on_c, 0, 69, 0
2, 14352, Note_on_c, 0, 69, 70
2, 14352, Note_on_c, 0, 66, 70
2, 14397, Note_on_c, 0, 69, 0
2, 14397, Note_on_c, 0, 66, 0
2, 14400, Note_on_c, 0, 69, 86
2, 14400, Note_on_c, 0, 66, 86
2, 14496, Note_on_c, 0, 69, 0
2, 14496, Note_on_c, 0, 62, 70
2, 14516, Note_on_c, 0, 66, 0
2, 14516, Note_on_c, 0, 62, 0
2, 14544, Note_on_c, 0, 74, 70
2, 14544, Note_on_c, 0, 66, 70
2, 14564, Note_on_c, 0, 74, 0
2, 14564, Note_on_c, 0, 66, 0
2, 14592, Note_on_c, 0, 74, 86
2, 14592, Note_on_c, 0, 66, 86
2, 14688, Note_on_c, 0, 74, 0
2, 14688, Note_on_c, 0, 66, 0
2, 14688, Note_on_c, 0, 73, 70
2, 14688, Note_on_c, 0, 64, 70
2, 14708, Note_on_c, 0, 73, 0
2, 14708, Note_on_c, 0, 64, 0
2, 14736, Note_on_c, 0, 76, 70
2, 14736, Note_on_c, 0, 73, 70
2, 14756, Note_on_c, 0, 76, 0
2, 14756, Note_on_c, 0, 73, 0
2, 14784, Note_on_c, 0, 76, 86
2, 14784, Note_on_c, 0, 73, 86
2, 14856, Note_on_c, 0, 76, 0
2, 14856, Note_on_c, 0, 73, 0
2, 14856, Note_on_c, 0, 78, 70
2, 14856, Note_on_c, 0, 74, 70
2, 14879, Note_on_c, 0, 78, 0
2, 14879, Note_on_c, 0, 74, 0
2, 14880, Note_on_c, 0, 79, 70
2, 14880, Note_on_c, 0, 76, 70
2, 14925, Note_on_c, 0, 79, 0
2, 14925, Note_on_c, 0, 76, 0
2, 14928, Note_on_c, 0, 79, 70
2, 14928, Note_on_c, 0, 76, 70
2, 14948, Note_on_c, 0, 79, 0
2, 14948, Note_on_c, 0, 76, 0
2, 14976, Note_on_c, 0, 79, 86
2, 14976, Note_on_c, 0, 76, 86
2, 15072, Note_on_c, 0, 79, 0
2, 15072, Note_on_c, 0, 76, 0
2, 15072, Note_on_c, 0, 78, 70
2, 15072, Note_on_c, 0, 74, 70
2, 15117, Note_on_c, 0, 78, 0
2, 15117, Note_on_c, 0, 74, 0
2, 15120, Note_on_c, 0, 81, 76
2, 15140, Note_on_c, 0, 81, 0
2, 15168, Note_on_c, 0, 81, 92
2, 15264, Note_on_c, 0, 81, 0
2, 15264, Note_on_c, 0, 74, 76
2, 15284, Note_on_c, 0, 74, 0
2, 15312, Note_on_c, 0, 86, 76
2, 15332, Note_on_c, 0, 86, 0
2, 15360, Note_on_c, 0, 86, 92
2, 15432, Note_on_c, 0, 86, 0
2, 15432, Note_on_c, 0, 83, 76
2, 15455, Note_on_c, 0, 83, 0
2, 15456, Note_on_c, 0, 79, 76
2, 15501, Note_on_c, 0, 79, 0
2, 15504, Note_on_c, 0, 83, 76
2, 15524, Note_on_c, 0, 83, 0
2, 15552, Note_on_c, 0, 81, 92
2, 15624, Note_on_c, 0, 81, 0
2, 15624, Note_on_c, 0, 78, 76
2, 15647, Note_on_c, 0, 78, 0
2, 15648, Note_on_c, 0, 74, 76
2, 15693, Note_on_c, 0, 74, 0
2, 15696, Note_on_c, 0, 73, 76
2, 15741, Note_on_c, 0, 73, 0
2, 15744, Note_on_c, 0, 74, 76
2, 15833, Note_on_c, 0, 74, 0
2, 15888, Note_on_c, 0, 69, 82
2, 15911, Note_on_c, 0, 69, 0
2, 15912, Note_on_c, 0, 67, 82
2, 15935, Note_on_c, 0, 67, 0
2, 15936, Note_on_c, 0, 65, 82
2, 15975, Note_on_c, 0, 65, 0
2, 16032, Note_on_c, 0, 64, 82
2, 16032, Note_on_c, 0, 61, 82
2, 16032, Note_on_c, 0, 55, 82
2, 16071, Note_on_c, 0, 64, 0
2, 16071, Note_on_c, 0, 61, 0
2, 16071, Note_on_c, 0, 55, 0
2, 16128, Note_on_c, 0, 62, 82
2, 16128, Note_on_c, 0, 58, 82
2, 16167, Note_on_c, 0, 62, 0
2, 16167, Note_on_c, 0, 58, 0
2, 16272, Note_on_c, 0, 74, 70
2, 16317, Note_on_c, 0, 74, 0
2, 16320, Note_on_c, 0, 76, 70
2, 16365, Note_on_c, 0, 76, 0
2, 16368, Note_on_c, 0, 79, 70
2, 16391, Note_on_c, 0, 79, 0
2, 16392, Note_on_c, 0, 77, 70
2, 16415, Note_on_c, 0, 77, 0
2, 16416, Note_on_c, 0, 76, 70
2, 16461, Note_on_c, 0, 76, 0
2, 16464, Note_on_c, 0, 74, 70
2, 16509, Note_on_c, 0, 74, 0
2, 16512, Note_on_c, 0, 73, 70
2, 16557, Note_on_c, 0, 73, 0
2, 16560, Note_on_c, 0, 81, 70
2, 16605, Note_on_c, 0, 81, 0
2, 16608, Note_on_c, 0, 69, 82
2, 16653, Note_on_c, 0, 69, 0
2, 16656, Note_on_c, 0, 72, 82
2, 16679, Note_on_c, 0, 72, 0
2, 16680, Note_on_c, 0, 70, 82
2, 16703, Note_on_c, 0, 70, 0
2, 16704, Note_on_c, 0, 69, 82
2, 16743, Note_on_c, 0, 69, 0
2, 16800, Note_on_c, 0, 67, 82
2, 16800, Note_on_c, 0, 64, 82
2, 16800, Note_on_c, 0, 58, 82
2, 16839, Note_on_c, 0, 67, 0
2, 16839, Note_on_c, 0, 64, 0
2, 16839, Note_on_c, 0, 58, 0
2, 16896, Note_on_c, 0, 65, 82
2, 16896, Note_on_c, 0, 62, 82
2, 16896, Note_on_c, 0, 57, 82
2, 16935, Note_on_c, 0, 65, 0
2, 16935, Note_on_c, 0, 62, 0
2, 16935, Note_on_c, 0, 57, 0
2, 17040, Note_on_c, 0, 77, 70
2, 17085, Note_on_c, 0, 77, 0
2, 17088, Note_on_c, 0, 67, 70
2, 17136, Note_on_c, 0, 67, 0
2, 17136, Note_on_c, 0, 74, 70
2, 17181, Note_on_c, 0, 74, 0
2, 17184, Note_on_c, 0, 72, 70
2, 17232, Note_on_c, 0, 72, 0
2, 17232, Note_on_c, 0, 64, 70
2, 17277, Note_on_c, 0, 64, 0
2, 17280, Note_on_c, 0, 65, 70
2, 17369, Note_on_c, 0, 65, 0
2, 17424, Note_on_c, 0, 69, 82
2, 17447, Note_on_c, 0, 69, 0
2, 17448, Note_on_c, 0, 67, 82
2, 17471, Note_on_c, 0, 67, 0
2, 17472, Note_on_c, 0, 65, 82
2, 17511, Note_on_c, 0, 65, 0
2, 17568, Note_on_c, 0, 64, 82
2, 17568, Note_on_c, 0, 61, 82
2, 17568, Note_on_c, 0, 55, 82
2, 17607, Note_on_c, 0, 64, 0
2, 17607, Note_on_c, 0, 61, 0
2, 17607, Note_on_c, 0, 55, 0
2, 17664, Note_on_c, 0, 62, 82
2, 17664, Note_on_c, 0, 58, 82
2, 17703, Note_on_c, 0, 62, 0
2, 17703, Note_on_c, 0, 58, 0
2, 17808, Note_on_c, 0, 74, 70
2, 17853, Note_on_c, 0, 74, 0
2, 17856, Note_on_c, 0, 76, 70
2, 17901, Note_on_c, 0, 76, 0
2, 17904, Note_on_c, 0, 79, 70
2, 17927, Note_on_c, 0, 79, 0
2, 17928, Note_on_c, 0, 77, 70
2, 17951, Note_on_c, 0, 77, 0
2, 17952, Note_on_c, 0, 76, 70
2, 17997, Note_on_c, 0, 76, 0
2, 18000, Note_on_c, 0, 74, 70
2, 18045, Note_on_c, 0, 74, 0
2, 18048, Note_on_c, 0, 73, 70
2, 18093, Note_on_c, 0, 73, 0
2, 18096, Note_on_c, 0, 81, 70
2, 18141, Note_on_c, 0, 81, 0
2, 18144, Note_on_c, 0, 69, 82
2, 18189, Note_on_c, 0, 69, 0
2, 18192, Note_on_c, 0, 72, 82
2, 18215, Note_on_c, 0, 72, 0
2, 18216, Note_on_c, 0, 70, 82
2, 18239, Note_on_c, 0, 70, 0
2, 18240, Note_on_c, 0, 69, 82
2, 18279, Note_on_c, 0, 69, 0
2, 18336, Note_on_c, 0, 67, 82
2, 18336, Note_on_c, 0, 64, 82
2, 18336, Note_on_c, 0, 58, 82
2, 18375, Note_on_c, 0, 67, 0
2, 18375, Note_on_c, 0, 64, 0
2, 18375, Note_on_c, 0, 58, 0
2, 18432, Note_on_c, 0, 65, 82
2, 18432, Note_on_c, 0, 62, 82
2, 18432, Note_on_c, 0, 57, 82
2, 18471, Note_on_c, 0, 65, 0
2, 18471, Note_on_c, 0, 62, 0
2, 18471, Note_on_c, 0, 57, 0
2, 18576, Note_on_c, 0, 77, 70
2, 18621, Note_on_c, 0, 77, 0
2, 18624, Note_on_c, 0, 67, 70
2, 18672, Note_on_c, 0, 67, 0
2, 18672, Note_on_c, 0, 74, 70
2, 18717, Note_on_c, 0, 74, 0
2, 18720, Note_on_c, 0, 72, 70
2, 18768, Note_on_c, 0, 72, 0
2, 18768, Note_on_c, 0, 64, 70
2, 18813, Note_on_c, 0, 64, 0
2, 18816, Note_on_c, 0, 65, 70
2, 18905, Note_on_c, 0, 65, 0
2, 18960, Note_on_c, 0, 81, 82
2, 18983, Note_on_c, 0, 81, 0
2, 18984, Note_on_c, 0, 82, 82
2, 19007, Note_on_c, 0, 82, 0
2, 19008, Note_on_c, 0, 84, 82
2, 19047, Note_on_c, 0, 84, 0
2, 19104, Note_on_c, 0, 75, 82
2, 19104, Note_on_c, 0, 70, 82
2, 19104, Note_on_c, 0, 67, 82
2, 19143, Note_on_c, 0, 75, 0
2, 19143, Note_on_c, 0, 70, 0
2, 19143, Note_on_c, 0, 67, 0
2, 19200, Note_on_c, 0, 74, 82
2, 19200, Note_on_c, 0, 69, 82
2, 19200, Note_on_c, 0, 66, 82
2, 19239, Note_on_c, 0, 74, 0
2, 19239, Note_on_c, 0, 69, 0
2, 19239, Note_on_c, 0, 66, 0
2, 19344, Note_on_c, 0, 84, 70
2, 19392, Note_on_c, 0, 84, 0
2, 19392, Note_on_c, 0, 82, 70
2, 19437, Note_on_c, 0, 82, 0
2, 19440, Note_on_c, 0, 78, 71
2, 19488, Note_on_c, 0, 78, 0
2, 19488, Note_on_c, 0, 79, 72
2, 19533, Note_on_c, 0, 79, 0
2, 19536, Note_on_c, 0, 82, 73
2, 19584, Note_on_c, 0, 82, 0
2, 19584, Note_on_c, 0, 81, 74
2, 19629, Note_on_c, 0, 81, 0
2, 19632, Note_on_c, 0, 76, 75
2, 19680, Note_on_c, 0, 76, 0
2, 19680, Note_on_c, 0, 77, 76
2, 19725, Note_on_c, 0, 77, 0
2, 19728, Note_on_c, 0, 81, 77
2, 19776, Note_on_c, 0, 81, 0
2, 19776, Note_on_c, 0, 79, 78
2, 19821, Note_on_c, 0, 79, 0
2, 19824, Note_on_c, 0, 77, 79
2, 19872, Note_on_c, 0, 77, 0
2, 19872, Note_on_c, 0, 76, 80
2, 19917, Note_on_c, 0, 76, 0
2, 19920, Note_on_c, 0, 74, 81
2, 20064, Note_on_c, 0, 74, 0
2, 20064, Note_on_c, 0, 73, 82
2, 20109, Note_on_c, 0, 73, 0
2, 20112, Note_on_c, 0, 69, 82
2, 20112, Note_on_c, 0, 65, 82
2, 20135, Note_on_c, 0, 69, 0
2, 20135, Note_on_c, 0, 65, 0
2, 20136, Note_on_c, 0, 67, 82
2, 20136, Note_on_c, 0, 64, 82
2, 20159, Note_on_c, 0, 67, 0
2, 20159, Note_on_c, 0, 64, 0
2, 20160, Note_on_c, 0, 65, 82
2, 20160, Note_on_c, 0, 62, 82
2, 20205, Note_on_c, 0, 65, 0
2, 20205, Note_on_c, 0, 62, 0
2, 20256, Note_on_c, 0, 64, 82
2, 20256, Note_on_c, 0, 61, 82
2, 20301, Note_on_c, 0, 64, 0
2, 20301, Note_on_c, 0, 61, 0
2, 20352, Note_on_c, 0, 65, 82
2, 20352, Note_on_c, 0, 62, 82
2, 20397, Note_on_c, 0, 65, 0
2, 20397, Note_on_c, 0, 62, 0
2, 20448, Note_on_c, 0, 74, 82
2, 20448, Note_on_c, 0, 65, 82
2, 20493, Note_on_c, 0, 74, 0
2, 20493, Note_on_c, 0, 65, 0
2, 20544, Note_on_c, 0, 77, 82
2, 20544, Note_on_c, 0, 74, 82
2, 20589, Note_on_c, 0, 77, 0
2, 20589, Note_on_c, 0, 74, 0
2, 20592, Note_on_c, 0, 86, 82
2, 20616, Note_on_c, 0, 86, 0
2, 20616, Note_on_c, 0, 88, 82
2, 20639, Note_on_c, 0, 88, 0
2, 20640, Note_on_c, 0, 89, 82
2, 20660, Note_on_c, 0, 89, 0
2, 20688, Note_on_c, 0, 86, 82
2, 20712, Note_on_c, 0, 86, 0
2, 20712, Note_on_c, 0, 88, 82
2, 20735, Note_on_c, 0, 88, 0
2, 20736, Note_on_c, 0, 89, 82
2, 20781, Note_on_c, 0, 89, 0
2, 20976, Note_on_c, 0, 77, 82
2, 20976, Note_on_c, 0, 74, 82
2, 20996, Note_on_c, 0, 77, 0
2, 20996, Note_on_c, 0, 74, 0
2, 21024, Note_on_c, 0, 79, 82
2, 21024, Note_on_c, 0, 76, 82
2, 21069, Note_on_c, 0, 79, 0
2, 21069, Note_on_c, 0, 76, 0
2, 21072, Note_on_c, 0, 76, 82
2, 21072, Note_on_c, 0, 73, 82
2, 21117, Note_on_c, 0, 76, 0
2, 21117, Note_on_c, 0, 73, 0
2, 21120, Note_on_c, 0, 74, 82
2, 21209, Note_on_c, 0, 74, 0
2, 21264, Note_on_c, 0, 81, 82
2, 21287, Note_on_c, 0, 81, 0
2, 21288, Note_on_c, 0, 82, 82
2, 21311, Note_on_c, 0, 82, 0
2, 21312, Note_on_c, 0, 84, 82
2, 21351, Note_on_c, 0, 84, 0
2, 21408, Note_on_c, 0, 75, 82
2, 21408, Note_on_c, 0, 70, 82
2, 21408, Note_on_c, 0, 67, 82
2, 21447, Note_on_c, 0, 75, 0
2, 21447, Note_on_c, 0, 70, 0
2, 21447, Note_on_c, 0, 67, 0
2, 21504, Note_on_c, 0, 74, 82
2, 21504, Note_on_c, 0, 69, 82
2, 21504, Note_on_c, 0, 66, 82
2, 21543, Note_on_c, 0, 74, 0
2, 21543, Note_on_c, 0, 69, 0
2, 21543, Note_on_c, 0, 66, 0
2, 21648, Note_on_c, 0, 84, 70
2, 21696, Note_on_c, 0, 84, 0
2, 21696, Note_on_c, 0, 82, 70
2, 21741, Note_on_c, 0, 82, 0
2, 21744, Note_on_c, 0, 78, 71
2, 21792, Note_on_c, 0, 78, 0
2, 21792, Note_on_c, 0, 79, 72
2, 21837, Note_on_c, 0, 79, 0
2, 21840, Note_on_c, 0, 82, 73
2, 21888, Note_on_c, 0, 82, 0
2, 21888, Note_on_c, 0, 81, 74
2, 21933, Note_on_c, 0, 81, 0
2, 21936, Note_on_c, 0, 76, 75
2, 21984, Note_on_c, 0, 76, 0
2, 21984, Note_on_c, 0, 77, 76
2, 22029, Note_on_c, 0, 77, 0
2, 22032, Note_on_c, 0, 81, 77
2, 22080, Note_on_c, 0, 81, 0
2, 22080, Note_on_c, 0, 79, 78
2, 22125, Note_on_c, 0, 79, 0
2, 22128, Note_on_c, 0, 77, 79
2, 22176, Note_on_c, 0, 77, 0
2, 22176, Note_on_c, 0, 76, 80
2, 22221, Note_on_c, 0, 76, 0
2, 22224, Note_on_c, 0, 74, 81
2, 22368, Note_on_c, 0, 74, 0
2, 22368, Note_on_c, 0, 73, 82
2, 22413, Note_on_c, 0, 73, 0
2, 22416, Note_on_c, 0, 69, 82
2, 22416, Note_on_c, 0, 65, 82
2, 22439, Note_on_c, 0, 69, 0
2, 22439, Note_on_c, 0, 65, 0
2, 22440, Note_on_c, 0, 67, 82
2, 22440, Note_on_c, 0, 64, 82
2, 22463, Note_on_c, 0, 67, 0
2, 22463, Note_on_c, 0, 64, 0
2, 22464, Note_on_c, 0, 65, 82
2, 22464, Note_on_c, 0, 62, 82
2, 22509, Note_on_c, 0, 65, 0
2, 22509, Note_on_c, 0, 62, 0
2, 22560, Note_on_c, 0, 64, 82
2, 22560, Note_on_c, 0, 61, 82
2, 22605, Note_on_c, 0, 64, 0
2, 22605, Note_on_c, 0, 61, 0
2, 22656, Note_on_c, 0, 65, 82
2, 22656, Note_on_c, 0, 62, 82
2, 22701, Note_on_c, 0, 65, 0
2, 22701, Note_on_c, 0, 62, 0
2, 22752, Note_on_c, 0, 74, 82
2, 22752, Note_on_c, 0, 65, 82
2, 22797, Note_on_c, 0, 74, 0
2, 22797, Note_on_c, 0, 65, 0
2, 22848, Note_on_c, 0, 77, 82
2, 22848, Note_on_c, 0, 74, 82
2, 22893, Note_on_c, 0, 77, 0
2, 22893, Note_on_c, 0, 74, 0
2, 22896, Note_on_c, 0, 86, 82
2, 22920, Note_on_c, 0, 86, 0
2, 22920, Note_on_c, 0, 88, 82
2, 22943, Note_on_c, 0, 88, 0
2, 22944, Note_on_c, 0, 89, 82
2, 22964, Note_on_c, 0, 89, 0
2, 22992, Note_on_c, 0, 86, 82
2, 23016, Note_on_c, 0, 86, 0
2, 23016, Note_on_c, 0, 88, 82
2, 23039, Note_on_c, 0, 88, 0
2, 23040, Note_on_c, 0, 89, 82
2, 23085, Note_on_c, 0, 89, 0
2, 23280, Note_on_c, 0, 77, 82
2, 23280, Note_on_c, 0, 74, 82
2, 23300, Note_on_c, 0, 77, 0
2, 23300, Note_on_c, 0, 74, 0
2, 23328, Note_on_c, 0, 79, 82
2, 23328, Note_on_c, 0, 76, 82
2, 23373, Note_on_c, 0, 79, 0
2, 23373, Note_on_c, 0, 76, 0
2, 23376, Note_on_c, 0, 76, 82
2, 23376, Note_on_c, 0, 73, 82
2, 23421, Note_on_c, 0, 76, 0
2, 23421, Note_on_c, 0, 73, 0
2, 23424, Note_on_c, 0, 74, 82
2, 23513, Note_on_c, 0, 74, 0
2, 23568, Note_on_c, 0, 69, 76
2, 23588, Note_on_c, 0, 69, 0
2, 23616, Note_on_c, 0, 69, 92
2, 23712, Note_on_c, 0, 69, 0
2, 23712, Note_on_c, 0, 66, 76
2, 23732, Note_on_c, 0, 66, 0
2, 23760, Note_on_c, 0, 74, 76
2, 23780, Note_on_c, 0, 74, 0
2, 23808, Note_on_c, 0, 74, 92
2, 23904, Note_on_c, 0, 74, 0
2, 23904, Note_on_c, 0, 73, 76
2, 23924, Note_on_c, 0, 73, 0
2, 23952, Note_on_c, 0, 76, 76
2, 23972, Note_on_c, 0, 76, 0
2, 24000, Note_on_c, 0, 76, 92
2, 24072, Note_on_c, 0, 76, 0
2, 24072, Note_on_c, 0, 78, 79
2, 24095, Note_on_c, 0, 78, 0
2, 24096, Note_on_c, 0, 79, 80
2, 24141, Note_on_c, 0, 79, 0
2, 24144, Note_on_c, 0, 79, 82
2, 24164, Note_on_c, 0, 79, 0
2, 24192, Note_on_c, 0, 79, 98
2, 24288, Note_on_c, 0, 79, 0
2, 24288, Note_on_c, 0, 78, 78
2, 24333, Note_on_c, 0, 78, 0
2, 24336, Note_on_c, 0, 81, 76
2, 24356, Note_on_c, 0, 81, 0
2, 24384, Note_on_c, 0, 81, 92
2, 24528, Note_on_c, 0, 81, 0
2, 24528, Note_on_c, 0, 82, 76
2, 24573, Note_on_c, 0, 82, 0
2, 24576, Note_on_c, 0, 83, 76
2, 24643, Note_on_c, 0, 83, 0
2, 24648, Note_on_c, 0, 85, 78
2, 24671, Note_on_c, 0, 85, 0
2, 24672, Note_on_c, 0, 88, 79
2, 24695, Note_on_c, 0, 88, 0
2, 24696, Note_on_c, 0, 86, 79
2, 24719, Note_on_c, 0, 86, 0
2, 24720, Note_on_c, 0, 85, 80
2, 24743, Note_on_c, 0, 85, 0
2, 24744, Note_on_c, 0, 83, 81
2, 24767, Note_on_c, 0, 83, 0
2, 24768, Note_on_c, 0, 81, 82
2, 24857, Note_on_c, 0, 81, 0
2, 24864, Note_on_c, 0, 80, 82
2, 24876, Note_on_c, 0, 80, 0
2, 24876, Note_on_c, 0, 81, 82
2, 24888, Note_on_c, 0, 81, 0
2, 24888, Note_on_c, 0, 80, 82
2, 24931, Note_on_c, 0, 80, 0
2, 24936, Note_on_c, 0, 81, 82
2, 24959, Note_on_c, 0, 81, 0
2, 24960, Note_on_c, 0, 81, 98
2, 25056, Note_on_c, 0, 81, 0
2, 25104, Note_on_c, 0, 69, 76
2, 25124, Note_on_c, 0, 69, 0
2, 25152, Note_on_c, 0, 69, 92
2, 25248, Note_on_c, 0, 69, 0
2, 25248, Note_on_c, 0, 66, 76
2, 25268, Note_on_c, 0, 66, 0
2, 25296, Note_on_c, 0, 74, 76
2, 25316, Note_on_c, 0, 74, 0
2, 25344, Note_on_c, 0, 74, 92
2, 25440, Note_on_c, 0, 74, 0
2, 25440, Note_on_c, 0, 73, 76
2, 25460, Note_on_c, 0, 73, 0
2, 25488, Note_on_c, 0, 76, 76
2, 25508, Note_on_c, 0, 76, 0
2, 25536, Note_on_c, 0, 76, 92
2, 25608, Note_on_c, 0, 76, 0
2, 25608, Note_on_c, 0, 78, 79
2, 25631, Note_on_c, 0, 78, 0
2, 25632, Note_on_c, 0, 79, 80
2, 25677, Note_on_c, 0, 79, 0
2, 25680, Note_on_c, 0, 79, 82
2, 25700, Note_on_c, 0, 79, 0
2, 25728, Note_on_c, 0, 79, 98
2, 25824, Note_on_c, 0, 79, 0
2, 25824, Note_on_c, 0, 78, 78
2, 25869, Note_on_c, 0, 78, 0
2, 25872, Note_on_c, 0, 81, 76
2, 25892, Note_on_c, 0, 81, 0
2, 25920, Note_on_c, 0, 81, 92
2, 26064, Note_on_c, 0, 81, 0
2, 26064, Note_on_c, 0, 82, 76
2, 26109, Note_on_c, 0, 82, 0
2, 26112, Note_on_c, 0, 83, 76
2, 26179, Note_on_c, 0, 83, 0
2, 26184, Note_on_c, 0, 85, 78
2, 26207, Note_on_c, 0, 85, 0
2, 26208, Note_on_c, 0, 88, 79
2, 26231, Note_on_c, 0, 88, 0
2, 26232, Note_on_c, 0, 86, 79
2, 26255, Note_on_c, 0, 86, 0
2, 26256, Note_on_c, 0, 85, 80
2, 26279, Note_on_c, 0, 85, 0
2, 26280, Note_on_c, 0, 83, 81
2, 26303, Note_on_c, 0, 83, 0
2, 26304, Note_on_c, 0, 81, 82
2, 26393, Note_on_c, 0, 81, 0
2, 26400, Note_on_c, 0, 80, 82
2, 26412, Note_on_c, 0, 80, 0
2, 26412, Note_on_c, 0, 81, 82
2, 26424, Note_on_c, 0, 81, 0
2, 26424, Note_on_c, 0, 80, 82
2, 26467, Note_on_c, 0, 80, 0
2, 26472, Note_on_c, 0, 81, 82
2, 26495, Note_on_c, 0, 81, 0
2, 26496, Note_on_c, 0, 81, 98
2, 26592, Note_on_c, 0, 81, 0
2, 26640, Note_on_c, 0, 81, 76
2, 26660, Note_on_c, 0, 81, 0
2, 26688, Note_on_c, 0, 81, 92
2, 26784, Note_on_c, 0, 81, 0
2, 26784, Note_on_c, 0, 75, 76
2, 26832, Note_on_c, 0, 75, 0
2, 26832, Note_on_c, 0, 83, 76
2, 26852, Note_on_c, 0, 83, 0
2, 26880, Note_on_c, 0, 83, 92
2, 26976, Note_on_c, 0, 83, 0
2, 26976, Note_on_c, 0, 76, 76
2, 26996, Note_on_c, 0, 76, 0
2, 27024, Note_on_c, 0, 79, 76
2, 27044, Note_on_c, 0, 79, 0
2, 27072, Note_on_c, 0, 79, 92
2, 27144, Note_on_c, 0, 79, 0
2, 27144, Note_on_c, 0, 81, 79
2, 27156, Note_on_c, 0, 81, 0
2, 27156, Note_on_c, 0, 79, 79
2, 27168, Note_on_c, 0, 79, 0
2, 27168, Note_on_c, 0, 78, 80
2, 27213, Note_on_c, 0, 78, 0
2, 27216, Note_on_c, 0, 78, 82
2, 27236, Note_on_c, 0, 78, 0
2, 27264, Note_on_c, 0, 76, 82
2, 27309, Note_on_c, 0, 76, 0
2, 27312, Note_on_c, 0, 73, 80
2, 27357, Note_on_c, 0, 73, 0
2, 27360, Note_on_c, 0, 69, 78
2, 27405, Note_on_c, 0, 69, 0
2, 27408, Note_on_c, 0, 69, 76
2, 27408, Note_on_c, 0, 66, 76
2, 27428, Note_on_c, 0, 69, 0
2, 27428, Note_on_c, 0, 66, 0
2, 27456, Note_on_c, 0, 69, 92
2, 27456, Note_on_c, 0, 66, 92
2, 27552, Note_on_c, 0, 69, 0
2, 27552, Note_on_c, 0, 62, 76
2, 27572, Note_on_c, 0, 66, 0
2, 27572, Note_on_c, 0, 62, 0
2, 27600, Note_on_c, 0, 74, 76
2, 27600, Note_on_c, 0, 66, 76
2, 27620, Note_on_c, 0, 74, 0
2, 27620, Note_on_c, 0, 66, 0
2, 27648, Note_on_c, 0, 74, 92
2, 27648, Note_on_c, 0, 66, 92
2, 27744, Note_on_c, 0, 74, 0
2, 27744, Note_on_c, 0, 66, 0
2, 27744, Note_on_c, 0, 73, 76
2, 27744, Note_on_c, 0, 64, 76
2, 27764, Note_on_c, 0, 73, 0
2, 27764, Note_on_c, 0, 64, 0
2, 27792, Note_on_c, 0, 76, 76
2, 27792, Note_on_c, 0, 73, 76
2, 27812, Note_on_c, 0, 76, 0
2, 27812, Note_on_c, 0, 73, 0
2, 27840, Note_on_c, 0, 76, 92
2, 27840, Note_on_c, 0, 73, 92
2, 27912, Note_on_c, 0, 76, 0
2, 27912, Note_on_c, 0, 73, 0
2, 27912, Note_on_c, 0, 78, 76
2, 27912, Note_on_c, 0, 74, 76
2, 27935, Note_on_c, 0, 78, 0
2, 27935, Note_on_c, 0, 74, 0
2, 27936, Note_on_c, 0, 79, 76
2, 27936, Note_on_c, 0, 76, 76
2, 27981, Note_on_c, 0, 79, 0
2, 27981, Note_on_c, 0, 76, 0
2, 27984, Note_on_c, 0, 79, 76
2, 27984, Note_on_c, 0, 76, 76
2, 28004, Note_on_c, 0, 79, 0
2, 28004, Note_on_c, 0, 76, 0
2, 28032, Note_on_c, 0, 79, 92
2, 28032, Note_on_c, 0, 76, 92
2, 28128, Note_on_c, 0, 79, 0
2, 28128, Note_on_c, 0, 76, 0
2, 28128, Note_on_c, 0, 78, 76
2, 28128, Note_on_c, 0, 74, 76
2, 28148, Note_on_c, 0, 78, 0
2, 28148, Note_on_c, 0, 74, 0
2, 28176, Note_on_c, 0, 81, 76
2, 28196, Note_on_c, 0, 81, 0
2, 28224, Note_on_c, 0, 81, 92
2, 28320, Note_on_c, 0, 81, 0
2, 28320, Note_on_c, 0, 74, 76
2, 28340, Note_on_c, 0, 74, 0
2, 28368, Note_on_c, 0, 86, 76
2, 28388, Note_on_c, 0, 86, 0
2, 28416, Note_on_c, 0, 86, 92
2, 28488, Note_on_c, 0, 86, 0
2, 28488, Note_on_c, 0, 83, 76
2, 28511, Note_on_c, 0, 83, 0
2, 28512, Note_on_c, 0, 79, 76
2, 28557, Note_on_c, 0, 79, 0
2, 28560, Note_on_c, 0, 83, 76
2, 28605, Note_on_c, 0, 83, 0
2, 28608, Note_on_c, 0, 81, 76
2, 28675, Note_on_c, 0, 81, 0
2, 28680, Note_on_c, 0, 78, 76
2, 28703, Note_on_c, 0, 78, 0
2, 28704, Note_on_c, 0, 74, 76
2, 28749, Note_on_c, 0, 74, 0
2, 28752, Note_on_c, 0, 73, 76
2, 28797, Note_on_c, 0, 73, 0
2, 28800, Note_on_c, 0, 74, 76
2, 28889, Note_on_c, 0, 74, 0
2, 28944, Note_on_c, 0, 81, 76
2, 28989, Note_on_c, 0, 81, 0
2, 28992, Note_on_c, 0, 81, 92
2, 29088, Note_on_c, 0, 81, 0
2, 29088, Note_on_c, 0, 75, 76
2, 29136, Note_on_c, 0, 75, 0
2, 29136, Note_on_c, 0, 83, 76
2, 29156, Note_on_c, 0, 83, 0
2, 29184, Note_on_c, 0, 83, 92
2, 29280, Note_on_c, 0, 83, 0
2, 29280, Note_on_c, 0, 76, 76
2, 29300, Note_on_c, 0, 76, 0
2, 29328, Note_on_c, 0, 79, 76
2, 29348, Note_on_c, 0, 79, 0
2, 29376, Note_on_c, 0, 79, 92
2, 29448, Note_on_c, 0, 79, 0
2, 29448, Note_on_c, 0, 81, 79
2, 29460, Note_on_c, 0, 81, 0
2, 29460, Note_on_c, 0, 79, 79
2, 29472, Note_on_c, 0, 79, 0
2, 29472, Note_on_c, 0, 78, 80
2, 29517, Note_on_c, 0, 78, 0
2, 29520, Note_on_c, 0, 78, 82
2, 29540, Note_on_c, 0, 78, 0
2, 29568, Note_on_c, 0, 76, 82
2, 29613, Note_on_c, 0, 76, 0
2, 29616, Note_on_c, 0, 73, 80
2, 29661, Note_on_c, 0, 73, 0
2, 29664, Note_on_c, 0, 69, 78
2, 29709, Note_on_c, 0, 69, 0
2, 29712, Note_on_c, 0, 69, 76
2, 29712, Note_on_c, 0, 66, 76
2, 29732, Note_on_c, 0, 69, 0
2, 29732, Note_on_c, 0, 66, 0
2, 29760, Note_on_c, 0, 69, 92
2, 29760, Note_on_c, 0, 66, 92
2, 29856, Note_on_c, 0, 69, 0
2, 29856, Note_on_c, 0, 62, 76
2, 29876, Note_on_c, 0, 66, 0
2, 29876, Note_on_c, 0, 62, 0
2, 29904, Note_on_c, 0, 74, 76
2, 29904, Note_on_c, 0, 66, 76
2, 29924, Note_on_c, 0, 74, 0
2, 29924, Note_on_c, 0, 66, 0
2, 29952, Note_on_c, 0, 74, 92
2, 29952, Note_on_c, 0, 66, 92
2, 30048, Note_on_c, 0, 74, 0
2, 30048, Note_on_c, 0, 66, 0
2, 30048, Note_on_c, 0, 73, 76
2, 30048, Note_on_c, 0, 64, 76
2, 30068, Note_on_c, 0, 73, 0
2, 30068, Note_on_c, 0, 64, 0
2, 30096, Note_on_c, 0, 76, 76
2, 30096, Note_on_c, 0, 73, 76
2, 30116, Note_on_c, 0, 76, 0
2, 30116, Note_on_c, 0, 73, 0
2, 30144, Note_on_c, 0, 76, 92
2, 30144, Note_on_c, 0, 73, 92
2, 30216, Note_on_c, 0, 76, 0
2, 30216, Note_on_c, 0, 73, 0
2, 30216, Note_on_c, 0, 78, 76
2, 30216, Note_on_c, 0, 74, 76
2, 30239, Note_on_c, 0, 78, 0
2, 30239, Note_on_c, 0, 74, 0
2, 30240, Note_on_c, 0, 79, 76
2, 30240, Note_on_c, 0, 76, 76
2, 30285, Note_on_c, 0, 79, 0
2, 30285, Note_on_c, 0, 76, 0
2, 30288, Note_on_c, 0, 79, 76
2, 30288, Note_on_c, 0, 76, 76
2, 30308, Note_on_c, 0, 79, 0
2, 30308, Note_on_c, 0, 76, 0
2, 30336, Note_on_c, 0, 79, 92
2, 30336, Note_on_c, 0, 76, 92
2, 30432, Note_on_c, 0, 79, 0
2, 30432, Note_on_c, 0, 76, 0
2, 30432, Note_on_c, 0, 78, 76
2, 30432, Note_on_c, 0, 74, 76
2, 30452, Note_on_c, 0, 78, 0
2, 30452, Note_on_c, 0, 74, 0
2, 30480, Note_on_c, 0, 81, 76
2, 30500, Note_on_c, 0, 81, 0
2, 30528, Note_on_c, 0, 81, 92
2, 30624, Note_on_c, 0, 81, 0
2, 30624, Note_on_c, 0, 74, 76
2, 30644, Note_on_c, 0, 74, 0
2, 30672, Note_on_c, 0, 86, 76
2, 30692, Note_on_c, 0, 86, 0
2, 30720, Note_on_c, 0, 86, 92
2, 30792, Note_on_c, 0, 86, 0
2, 30792, Note_on_c, 0, 83, 76
2, 30815, Note_on_c, 0, 83, 0
2, 30816, Note_on_c, 0, 79, 76
2, 30861, Note_on_c, 0, 79, 0
2, 30864, Note_on_c, 0, 83, 76
2, 30909, Note_on_c, 0, 83, 0
2, 30912, Note_on_c, 0, 81, 76
2, 30979, Note_on_c, 0, 81, 0
2, 30984, Note_on_c, 0, 78, 76
2, 31007, Note_on_c, 0, 78, 0
2, 31008, Note_on_c, 0, 74, 76
2, 31053, Note_on_c, 0, 74, 0
2, 31056, Note_on_c, 0, 73, 76
2, 31101, Note_on_c, 0, 73, 0
2, 31104, Note_on_c, 0, 74, 76
2, 31193, Note_on_c, 0, 74, 0
2, 31248, Note_on_c, 0, 74, 76
2, 31293, Note_on_c, 0, 74, 0
2, 31296, Note_on_c, 0, 79, 76
2, 31319, Note_on_c, 0, 79, 0
2, 31320, Note_on_c, 0, 78, 76
2, 31343, Note_on_c, 0, 78, 0
2, 31344, Note_on_c, 0, 81, 76
2, 31367, Note_on_c, 0, 81, 0
2, 31368, Note_on_c, 0, 79, 76
2, 31391, Note_on_c, 0, 79, 0
2, 31392, Note_on_c, 0, 83, 76
2, 31437, Note_on_c, 0, 83, 0
2, 31440, Note_on_c, 0, 79, 76
2, 31485, Note_on_c, 0, 79, 0
2, 31488, Note_on_c, 0, 78, 76
2, 31533, Note_on_c, 0, 78, 0
2, 31536, Note_on_c, 0, 81, 76
2, 31581, Note_on_c, 0, 81, 0
2, 31584, Note_on_c, 0, 74, 76
2, 31629, Note_on_c, 0, 74, 0
2, 31632, Note_on_c, 0, 86, 76
2, 31677, Note_on_c, 0, 86, 0
2, 31728, Note_on_c, 0, 83, 76
2, 31728, Note_on_c, 0, 79, 76
2, 31773, Note_on_c, 0, 83, 0
2, 31773, Note_on_c, 0, 79, 0
2, 31824, Note_on_c, 0, 84, 80
2, 31824, Note_on_c, 0, 81, 80
2, 31869, Note_on_c, 0, 84, 0
2, 31869, Note_on_c, 0, 81, 0
2, 31920, Note_on_c, 0, 83, 82
2, 31920, Note_on_c, 0, 79, 82
2, 31968, Note_on_c, 0, 83, 0
2, 31968, Note_on_c, 0, 79, 0
2, 31968, Note_on_c, 0, 81, 80
2, 31968, Note_on_c, 0, 78, 80
2, 32013, Note_on_c, 0, 81, 0
2, 32013, Note_on_c, 0, 78, 0
2, 32016, Note_on_c, 0, 74, 78
2, 32061, Note_on_c, 0, 74, 0
2, 32064, Note_on_c, 0, 79, 76
2, 32087, Note_on_c, 0, 79, 0
2, 32088, Note_on_c, 0, 78, 76
2, 32111, Note_on_c, 0, 78, 0
2, 32112, Note_on_c, 0, 81, 76
2, 32135, Note_on_c, 0, 81, 0
2, 32136, Note_on_c, 0, 79, 76
2, 32159, Note_on_c, 0, 79, 0
2, 32160, Note_on_c, 0, 83, 76
2, 32205, Note_on_c, 0, 83, 0
2, 32208, Note_on_c, 0, 79, 76
2, 32253, Note_on_c, 0, 79, 0
2, 32256, Note_on_c, 0, 78, 76
2, 32301, Note_on_c, 0, 78, 0
2, 32304, Note_on_c, 0, 81, 76
2, 32349, Note_on_c, 0, 81, 0
2, 32352, Note_on_c, 0, 74, 76
2, 32397, Note_on_c, 0, 74, 0
2, 32400, Note_on_c, 0, 86, 76
2, 32445, Note_on_c, 0, 86, 0
2, 32496, Note_on_c, 0, 83, 76
2, 32496, Note_on_c, 0, 79, 76
2, 32541, Note_on_c, 0, 83, 0
2, 32541, Note_on_c, 0, 79, 0
2, 32592, Note_on_c, 0, 81, 76
2, 32592, Note_on_c, 0, 72, 76
2, 32637, Note_on_c, 0, 81, 0
2, 32637, Note_on_c, 0, 72, 0
2, 32688, Note_on_c, 0, 79, 76
2, 32688, Note_on_c, 0, 71, 76
2, 32733, Note_on_c, 0, 79, 0
2, 32733, Note_on_c, 0, 71, 0
2, 32784, Note_on_c, 0, 74, 76
2, 32829, Note_on_c, 0, 74, 0
2, 32832, Note_on_c, 0, 79, 76
2, 32855, Note_on_c, 0, 79, 0
2, 32856, Note_on_c, 0, 78, 76
2, 32879, Note_on_c, 0, 78, 0
2, 32880, Note_on_c, 0, 81, 76
2, 32903, Note_on_c, 0, 81, 0
2, 32904, Note_on_c, 0, 79, 76
2, 32927, Note_on_c, 0, 79, 0
2, 32928, Note_on_c, 0, 83, 76
2, 32973, Note_on_c, 0, 83, 0
2, 32976, Note_on_c, 0, 79, 76
2, 33021, Note_on_c, 0, 79, 0
2, 33024, Note_on_c, 0, 78, 76
2, 33069, Note_on_c, 0, 78, 0
2, 33072, Note_on_c, 0, 81, 76
2, 33117, Note_on_c, 0, 81, 0
2, 33120, Note_on_c, 0, 74, 76
2, 33165, Note_on_c, 0, 74, 0
2, 33168, Note_on_c, 0, 86, 76
2, 33213, Note_on_c, 0, 86, 0
2, 33264, Note_on_c, 0, 83, 76
2, 33264, Note_on_c, 0, 79, 76
2, 33309, Note_on_c, 0, 83, 0
2, 33309, Note_on_c, 0, 79, 0
2, 33360, Note_on_c, 0, 84, 80
2, 33360, Note_on_c, 0, 81, 80
2, 33405, Note_on_c, 0, 84, 0
2, 33405, Note_on_c, 0, 81, 0
2, 33456, Note_on_c, 0, 83, 82
2, 33456, Note_on_c, 0, 79, 82
2, 33504, Note_on_c, 0, 83, 0
2, 33504, Note_on_c, 0, 79, 0
2, 33504, Note_on_c, 0, 81, 80
2, 33504, Note_on_c, 0, 78, 80
2, 33549, Note_on_c, 0, 81, 0
2, 33549, Note_on_c, 0, 78, 0
2, 33552, Note_on_c, 0, 74, 78
2, 33597, Note_on_c, 0, 74, 0
2, 33600, Note_on_c, 0, 79, 76
2, 33623, Note_on_c, 0, 79, 0
2, 33624, Note_on_c, 0, 78, 76
2, 33647, Note_on_c, 0, 78, 0
2, 33648, Note_on_c, 0, 81, 76
2, 33671, Note_on_c, 0, 81, 0
2, 33672, Note_on_c, 0, 79, 76
2, 33695, Note_on_c, 0, 79, 0
2, 33696, Note_on_c, 0, 83, 76
2, 33741, Note_on_c, 0, 83, 0
2, 33744, Note_on_c, 0, 79, 76
2, 33789, Note_on_c, 0, 79, 0
2, 33792, Note_on_c, 0, 78, 76
2, 33837, Note_on_c, 0, 78, 0
2, 33840, Note_on_c, 0, 81, 76
2, 33885, Note_on_c, 0, 81, 0
2, 33888, Note_on_c, 0, 74, 76
2, 33933, Note_on_c, 0, 74, 0
2, 33936, Note_on_c, 0, 86, 76
2, 33981, Note_on_c, 0, 86, 0
2, 34032, Note_on_c, 0, 83, 76
2, 34032, Note_on_c, 0, 79, 76
2, 34077, Note_on_c, 0, 83, 0
2, 34077, Note_on_c, 0, 79, 0
2, 34128, Note_on_c, 0, 81, 76
2, 34128, Note_on_c, 0, 72, 76
2, 34173, Note_on_c, 0, 81, 0
2, 34173, Note_on_c, 0, 72, 0
2, 34224, Note_on_c, 0, 79, 76
2, 34224, Note_on_c, 0, 71, 76
2, 34269, Note_on_c, 0, 79, 0
2, 34269, Note_on_c, 0, 71, 0
2, 34320, Note_on_c, 0, 83, 76
2, 34365, Note_on_c, 0, 83, 0
2, 34368, Note_on_c, 0, 84, 76
2, 34391, Note_on_c, 0, 84, 0
2, 34392, Note_on_c, 0, 86, 76
2, 34415, Note_on_c, 0, 86, 0
2, 34416, Note_on_c, 0, 83, 76
2, 34439, Note_on_c, 0, 83, 0
2, 34440, Note_on_c, 0, 84, 76
2, 34463, Note_on_c, 0, 84, 0
2, 34464, Note_on_c, 0, 81, 76
2, 34509, Note_on_c, 0, 81, 0
2, 34512, Note_on_c, 0, 84, 76
2, 34557, Note_on_c, 0, 84, 0
2, 34560, Note_on_c, 0, 83, 76
2, 34583, Note_on_c, 0, 83, 0
2, 34584, Note_on_c, 0, 84, 76
2, 34607, Note_on_c, 0, 84, 0
2, 34608, Note_on_c, 0, 81, 76
2, 34631, Note_on_c, 0, 81, 0
2, 34632, Note_on_c, 0, 83, 76
2, 34655, Note_on_c, 0, 83, 0
2, 34656, Note_on_c, 0, 79, 76
2, 34701, Note_on_c, 0, 79, 0
2, 34704, Note_on_c, 0, 83, 76
2, 34749, Note_on_c, 0, 83, 0
2, 34752, Note_on_c, 0, 81, 76
2, 34775, Note_on_c, 0, 81, 0
2, 34776, Note_on_c, 0, 83, 76
2, 34799, Note_on_c, 0, 83, 0
2, 34800, Note_on_c, 0, 81, 77
2, 34823, Note_on_c, 0, 81, 0
2, 34824, Note_on_c, 0, 83, 78
2, 34847, Note_on_c, 0, 83, 0
2, 34848, Note_on_c, 0, 79, 79
2, 34871, Note_on_c, 0, 79, 0
2, 34872, Note_on_c, 0, 81, 79
2, 34895, Note_on_c, 0, 81, 0
2, 34896, Note_on_c, 0, 79, 80
2, 34919, Note_on_c, 0, 79, 0
2, 34920, Note_on_c, 0, 81, 81
2, 34943, Note_on_c, 0, 81, 0
2, 34944, Note_on_c, 0, 78, 82
2, 34967, Note_on_c, 0, 78, 0
2, 34968, Note_on_c, 0, 79, 82
2, 34991, Note_on_c, 0, 79, 0
2, 34992, Note_on_c, 0, 76, 82
2, 35015, Note_on_c, 0, 76, 0
2, 35016, Note_on_c, 0, 78, 82
2, 35039, Note_on_c, 0, 78, 0
2, 35040, Note_on_c, 0, 74, 82
2, 35085, Note_on_c, 0, 74, 0
2, 35088, Note_on_c, 0, 74, 76
2, 35133, Note_on_c, 0, 74, 0
2, 35136, Note_on_c, 0, 79, 76
2, 35159, Note_on_c, 0, 79, 0
2, 35160, Note_on_c, 0, 78, 76
2, 35183, Note_on_c, 0, 78, 0
2, 35184, Note_on_c, 0, 81, 76
2, 35207, Note_on_c, 0, 81, 0
2, 35208, Note_on_c, 0, 79, 76
2, 35231, Note_on_c, 0, 79, 0
2, 35232, Note_on_c, 0, 83, 76
2, 35277, Note_on_c, 0, 83, 0
2, 35280, Note_on_c, 0, 79, 76
2, 35325, Note_on_c, 0, 79, 0
2, 35328, Note_on_c, 0, 78, 76
2, 35373, Note_on_c, 0, 78, 0
2, 35376, Note_on_c, 0, 81, 76
2, 35421, Note_on_c, 0, 81, 0
2, 35424, Note_on_c, 0, 74, 76
2, 35469, Note_on_c, 0, 74, 0
2, 35472, Note_on_c, 0, 86, 76
2, 35517, Note_on_c, 0, 86, 0
2, 35568, Note_on_c, 0, 83, 76
2, 35568, Note_on_c, 0, 79, 76
2, 35613, Note_on_c, 0, 83, 0
2, 35613, Note_on_c, 0, 79, 0
2, 35664, Note_on_c, 0, 84, 80
2, 35664, Note_on_c, 0, 81, 80
2, 35709, Note_on_c, 0, 84, 0
2, 35709, Note_on_c, 0, 81, 0
2, 35760, Note_on_c, 0, 83, 82
2, 35760, Note_on_c, 0, 79, 82
2, 35808, Note_on_c, 0, 83, 0
2, 35808, Note_on_c, 0, 79, 0
2, 35808, Note_on_c, 0, 81, 80
2, 35808, Note_on_c, 0, 78, 80
2, 35853, Note_on_c, 0, 81, 0
2, 35853, Note_on_c, 0, 78, 0
2, 35856, Note_on_c, 0, 74, 78
2, 35901, Note_on_c, 0, 74, 0
2, 35904, Note_on_c, 0, 79, 76
2, 35927, Note_on_c, 0, 79, 0
2, 35928, Note_on_c, 0, 78, 76
2, 35951, Note_on_c, 0, 78, 0
2, 35952, Note_on_c, 0, 81, 76
2, 35975, Note_on_c, 0, 81, 0
2, 35976, Note_on_c, 0, 79, 76
2, 35999, Note_on_c, 0, 79, 0
2, 36000, Note_on_c, 0, 83, 76
2, 36045, Note_on_c, 0, 83, 0
2, 36048, Note_on_c, 0, 79, 76
2, 36093, Note_on_c, 0, 79, 0
2, 36096, Note_on_c, 0, 78, 76
2, 36141, Note_on_c, 0, 78, 0
2, 36144, Note_on_c, 0, 81, 76
2, 36189, Note_on_c, 0, 81, 0
2, 36192, Note_on_c, 0, 74, 76
2, 36237, Note_on_c, 0, 74, 0
2, 36240, Note_on_c, 0, 86, 76
2, 36285, Note_on_c, 0, 86, 0
2, 36336, Note_on_c, 0, 83, 76
2, 36336, Note_on_c, 0, 79, 76
2, 36381, Note_on_c, 0, 83, 0
2, 36381, Note_on_c, 0, 79, 0
2, 36432, Note_on_c, 0, 81, 76
2, 36432, Note_on_c, 0, 72, 76
2, 36477, Note_on_c, 0, 81, 0
2, 36477, Note_on_c, 0, 72, 0
2, 36528, Note_on_c, 0, 79, 76
2, 36528, Note_on_c, 0, 71, 76
2, 36573, Note_on_c, 0, 79, 0
2, 36573, Note_on_c, 0, 71, 0
2, 36624, Note_on_c, 0, 83, 76
2, 36669, Note_on_c, 0, 83, 0
2, 36672, Note_on_c, 0, 84, 76
2, 36695, Note_on_c, 0, 84, 0
2, 36696, Note_on_c, 0, 86, 76
2, 36719, Note_on_c, 0, 86, 0
2, 36720, Note_on_c, 0, 83, 76
2, 36743, Note_on_c, 0, 83, 0
2, 36744, Note_on_c, 0, 84, 76
2, 36767, Note_on_c, 0, 84, 0
2, 36768, Note_on_c, 0, 81, 76
2, 36813, Note_on_c, 0, 81, 0
2, 36816, Note_on_c, 0, 84, 76
2, 36861, Note_on_c, 0, 84, 0
2, 36864, Note_on_c, 0, 83, 76
2, 36887, Note_on_c, 0, 83, 0
2, 36888, Note_on_c, 0, 84, 76
2, 36911, Note_on_c, 0, 84, 0
2, 36912, Note_on_c, 0, 81, 76
2, 36935, Note_on_c, 0, 81, 0
2, 36936, Note_on_c, 0, 83, 76
2, 36959, Note_on_c, 0, 83, 0
2, 36960, Note_on_c, 0, 79, 76
2, 37005, Note_on_c, 0, 79, 0
2, 37008, Note_on_c, 0, 83, 76
2, 37053, Note_on_c, 0, 83, 0
2, 37056, Note_on_c, 0, 81, 76
2, 37079, Note_on_c, 0, 81, 0
2, 37080, Note_on_c, 0, 83, 76
2, 37103, Note_on_c, 0, 83, 0
2, 37104, Note_on_c, 0, 81, 77
2, 37127, Note_on_c, 0, 81, 0
2, 37128, Note_on_c, 0, 83, 78
2, 37151, Note_on_c, 0, 83, 0
2, 37152, Note_on_c, 0, 79, 79
2, 37175, Note_on_c, 0, 79, 0
2, 37176, Note_on_c, 0, 81, 79
2, 37199, Note_on_c, 0, 81, 0
2, 37200, Note_on_c, 0, 79, 80
2, 37223, Note_on_c, 0, 79, 0
2, 37224, Note_on_c, 0, 81, 81
2, 37247, Note_on_c, 0, 81, 0
2, 37248, Note_on_c, 0, 78, 82
2, 37271, Note_on_c, 0, 78, 0
2, 37272, Note_on_c, 0, 79, 82
2, 37295, Note_on_c, 0, 79, 0
2, 37296, Note_on_c, 0, 76, 82
2, 37319, Note_on_c, 0, 76, 0
2, 37320, Note_on_c, 0, 78, 82
2, 37343, Note_on_c, 0, 78, 0
2, 37344, Note_on_c, 0, 74, 82
2, 37389, Note_on_c, 0, 74, 0
2, 37392, Note_on_c, 0, 74, 76
2, 37437, Note_on_c, 0, 74, 0
2, 37440, Note_on_c, 0, 79, 76
2, 37463, Note_on_c, 0, 79, 0
2, 37464, Note_on_c, 0, 78, 76
2, 37487, Note_on_c, 0, 78, 0
2, 37488, Note_on_c, 0, 81, 76
2, 37511, Note_on_c, 0, 81, 0
2, 37512, Note_on_c, 0, 79, 76
2, 37535, Note_on_c, 0, 79, 0
2, 37536, Note_on_c, 0, 83, 76
2, 37581, Note_on_c, 0, 83, 0
2, 37584, Note_on_c, 0, 79, 76
2, 37629, Note_on_c, 0, 79, 0
2, 37632, Note_on_c, 0, 78, 76
2, 37677, Note_on_c, 0, 78, 0
2, 37680, Note_on_c, 0, 81, 76
2, 37725, Note_on_c, 0, 81, 0
2, 37728, Note_on_c, 0, 74, 76
2, 37773, Note_on_c, 0, 74, 0
2, 37776, Note_on_c, 0, 86, 76
2, 37821, Note_on_c, 0, 86, 0
2, 37872, Note_on_c, 0, 83, 76
2, 37872, Note_on_c, 0, 79, 76
2, 37917, Note_on_c, 0, 83, 0
2, 37917, Note_on_c, 0, 79, 0
2, 37968, Note_on_c, 0, 84, 80
2, 37968, Note_on_c, 0, 81, 80
2, 38013, Note_on_c, 0, 84, 0
2, 38013, Note_on_c, 0, 81, 0
2, 38064, Note_on_c, 0, 83, 82
2, 38064, Note_on_c, 0, 79, 82
2, 38112, Note_on_c, 0, 83, 0
2, 38112, Note_on_c, 0, 79, 0
2, 38112, Note_on_c, 0, 81, 80
2, 38112, Note_on_c, 0, 78, 80
2, 38157, Note_on_c, 0, 81, 0
2, 38157, Note_on_c, 0, 78, 0
2, 38160, Note_on_c, 0, 74, 78
2, 38205, Note_on_c, 0, 74, 0
2, 38208, Note_on_c, 0, 79, 76
2, 38231, Note_on_c, 0, 79, 0
2, 38232, Note_on_c, 0, 78, 76
2, 38255, Note_on_c, 0, 78, 0
2, 38256, Note_on_c, 0, 81, 76
2, 38279, Note_on_c, 0, 81, 0
2, 38280, Note_on_c, 0, 79, 76
2, 38303, Note_on_c, 0, 79, 0
2, 38304, Note_on_c, 0, 83, 76
2, 38349, Note_on_c, 0, 83, 0
2, 38352, Note_on_c, 0, 79, 76
2, 38397, Note_on_c, 0, 79, 0
2, 38400, Note_on_c, 0, 78, 76
2, 38445, Note_on_c, 0, 78, 0
2, 38448, Note_on_c, 0, 81, 76
2, 38493, Note_on_c, 0, 81, 0
2, 38496, Note_on_c, 0, 74, 76
2, 38541, Note_on_c, 0, 74, 0
2, 38544, Note_on_c, 0, 86, 76
2, 38589, Note_on_c, 0, 86, 0
2, 38640, Note_on_c, 0, 83, 76
2, 38640, Note_on_c, 0, 79, 76
2, 38685, Note_on_c, 0, 83, 0
2, 38685, Note_on_c, 0, 79, 0
2, 38736, Note_on_c, 0, 81, 76
2, 38736, Note_on_c, 0, 72, 76
2, 38781, Note_on_c, 0, 81, 0
2, 38781, Note_on_c, 0, 72, 0
2, 38832, Note_on_c, 0, 79, 76
2, 38877, Note_on_c, 0, 79, 0
2, 38928, Note_on_c, 0, 86, 76
2, 38928, Note_on_c, 0, 83, 76
2, 38948, Note_on_c, 0, 86, 0
2, 38948, Note_on_c, 0, 83, 0
2, 38976, Note_on_c, 0, 83, 76
2, 38976, Note_on_c, 0, 79, 76
2, 38996, Note_on_c, 0, 83, 0
2, 38996, Note_on_c, 0, 79, 0
2, 39072, Note_on_c, 0, 81, 76
2, 39072, Note_on_c, 0, 78, 76
2, 39092, Note_on_c, 0, 81, 0
2, 39092, Note_on_c, 0, 78, 0
2, 39168, Note_on_c, 0, 81, 76
2, 39168, Note_on_c, 0, 78, 76
2, 39216, Note_on_c, 0, 81, 0
2, 39216, Note_on_c, 0, 78, 0
2, 39216, Note_on_c, 0, 79, 76
2, 39216, Note_on_c, 0, 76, 76
2, 39261, Note_on_c, 0, 79, 0
2, 39261, Note_on_c, 0, 76, 0
2, 39312, Note_on_c, 0, 83, 76
2, 39312, Note_on_c, 0, 79, 76
2, 39332, Note_on_c, 0, 83, 0
2, 39332, Note_on_c, 0, 79, 0
2, 39360, Note_on_c, 0, 81, 76
2, 39360, Note_on_c, 0, 78, 76
2, 39380, Note_on_c, 0, 81, 0
2, 39380, Note_on_c, 0, 78, 0
2, 39456, Note_on_c, 0, 79, 76
2, 39456, Note_on_c, 0, 76, 76
2, 39476, Note_on_c, 0, 79, 0
2, 39476, Note_on_c, 0, 76, 0
2, 39552, Note_on_c, 0, 79, 76
2, 39552, Note_on_c, 0, 76, 76
2, 39600, Note_on_c, 0, 79, 0
2, 39600, Note_on_c, 0, 76, 0
2, 39600, Note_on_c, 0, 78, 76
2, 39600, Note_on_c, 0, 74, 76
2, 39645, Note_on_c, 0, 78, 0
2, 39645, Note_on_c, 0, 74, 0
2, 39696, Note_on_c, 0, 81, 76
2, 39716, Note_on_c, 0, 81, 0
2, 39744, Note_on_c, 0, 86, 76
2, 39764, Note_on_c, 0, 86, 0
2, 39840, Note_on_c, 0, 83, 76
2, 39860, Note_on_c, 0, 83, 0
2, 39936, Note_on_c, 0, 80, 76
2, 39956, Note_on_c, 0, 80, 0
2, 40032, Note_on_c, 0, 74, 76
2, 40052, Note_on_c, 0, 74, 0
2, 40128, Note_on_c, 0, 73, 76
2, 40148, Note_on_c, 0, 73, 0
2, 40224, Note_on_c, 0, 69, 76
2, 40269, Note_on_c, 0, 69, 0
2, 40320, Note_on_c, 0, 69, 75
2, 40365, Note_on_c, 0, 69, 0
2, 40416, Note_on_c, 0, 69, 74
2, 40461, Note_on_c, 0, 69, 0
2, 40512, Note_on_c, 0, 69, 73
2, 40557, Note_on_c, 0, 69, 0
2, 40608, Note_on_c, 0, 69, 72
2, 40653, Note_on_c, 0, 69, 0
2, 40704, Note_on_c, 0, 69, 71
2, 40749, Note_on_c, 0, 69, 0
2, 40800, Note_on_c, 0, 69, 71
2, 40845, Note_on_c, 0, 69, 0
2, 40896, Note_on_c, 0, 69, 70
2, 40985, Note_on_c, 0, 69, 0
2, 41088, Note_on_c, 0, 69, 68
2, 41177, Note_on_c, 0, 69, 0
2, 41280, Note_on_c, 0, 69, 66
2, 41369, Note_on_c, 0, 69, 0
2, 41424, Note_on_c, 0, 69, 66
2, 41444, Note_on_c, 0, 69, 0
2, 41472, Note_on_c, 0, 69, 92
2, 41568, Note_on_c, 0, 69, 0
2, 41568, Note_on_c, 0, 66, 76
2, 41588, Note_on_c, 0, 66, 0
2, 41616, Note_on_c, 0, 74, 76
2, 41636, Note_on_c, 0, 74, 0
2, 41664, Note_on_c, 0, 74, 92
2, 41760, Note_on_c, 0, 74, 0
2, 41760, Note_on_c, 0, 73, 76
2, 41780, Note_on_c, 0, 73, 0
2, 41808, Note_on_c, 0, 76, 76
2, 41828, Note_on_c, 0, 76, 0
2, 41856, Note_on_c, 0, 76, 92
2, 41928, Note_on_c, 0, 76, 0
2, 41928, Note_on_c, 0, 78, 76
2, 41951, Note_on_c, 0, 78, 0
2, 41952, Note_on_c, 0, 79, 76
2, 41997, Note_on_c, 0, 79, 0
2, 42000, Note_on_c, 0, 79, 76
2, 42020, Note_on_c, 0, 79, 0
2, 42048, Note_on_c, 0, 79, 92
2, 42144, Note_on_c, 0, 79, 0
2, 42144, Note_on_c, 0, 78, 72
2, 42189, Note_on_c, 0, 78, 0
2, 42192, Note_on_c, 0, 81, 70
2, 42212, Note_on_c, 0, 81, 0
2, 42240, Note_on_c, 0, 81, 86
2, 42384, Note_on_c, 0, 81, 0
2, 42384, Note_on_c, 0, 82, 73
2, 42429, Note_on_c, 0, 82, 0
2, 42432, Note_on_c, 0, 83, 90
2, 42504, Note_on_c, 0, 83, 0
2, 42504, Note_on_c, 0, 85, 76
2, 42527, Note_on_c, 0, 85, 0
2, 42528, Note_on_c, 0, 88, 76
2, 42551, Note_on_c, 0, 88, 0
2, 42552, Note_on_c, 0, 86, 76
2, 42575, Note_on_c, 0, 86, 0
2, 42576, Note_on_c, 0, 85, 76
2, 42599, Note_on_c, 0, 85, 0
2, 42600, Note_on_c, 0, 83, 76
2, 42623, Note_on_c, 0, 83, 0
2, 42624, Note_on_c, 0, 81, 76
2, 42713, Note_on_c, 0, 81, 0
2, 42720, Note_on_c, 0, 80, 73
2, 42732, Note_on_c, 0, 80, 0
2, 42732, Note_on_c, 0, 81, 73
2, 42744, Note_on_c, 0, 81, 0
2, 42744, Note_on_c, 0, 80, 73
2, 42787, Note_on_c, 0, 80, 0
2, 42792, Note_on_c, 0, 81, 70
2, 42815, Note_on_c, 0, 81, 0
2, 42816, Note_on_c, 0, 81, 86
2, 42912, Note_on_c, 0, 81, 0
2, 42960, Note_on_c, 0, 69, 82
2, 43005, Note_on_c, 0, 69, 0
2, 43008, Note_on_c, 0, 69, 98
2, 43104, Note_on_c, 0, 69, 0
2, 43104, Note_on_c, 0, 66, 82
2, 43124, Note_on_c, 0, 66, 0
2, 43152, Note_on_c, 0, 74, 82
2, 43172, Note_on_c, 0, 74, 0
2, 43200, Note_on_c, 0, 74, 98
2, 43296, Note_on_c, 0, 74, 0
2, 43296, Note_on_c, 0, 73, 82
2, 43316, Note_on_c, 0, 73, 0
2, 43344, Note_on_c, 0, 76, 82
2, 43364, Note_on_c, 0, 76, 0
2, 43392, Note_on_c, 0, 76, 98
2, 43464, Note_on_c, 0, 76, 0
2, 43464, Note_on_c, 0, 78, 85
2, 43487, Note_on_c, 0, 78, 0
2, 43488, Note_on_c, 0, 79, 86
2, 43533, Note_on_c, 0, 79, 0
2, 43536, Note_on_c, 0, 79, 89
2, 43556, Note_on_c, 0, 79, 0
2, 43584, Note_on_c, 0, 79, 103
2, 43680, Note_on_c, 0, 79, 0
2, 43680, Note_on_c, 0, 78, 83
2, 43725, Note_on_c, 0, 78, 0
2, 43728, Note_on_c, 0, 81, 82
2, 43748, Note_on_c, 0, 81, 0
2, 43776, Note_on_c, 0, 81, 98
2, 43920, Note_on_c, 0, 81, 0
2, 43920, Note_on_c, 0, 82, 85
2, 43965, Note_on_c, 0, 82, 0
2, 43968, Note_on_c, 0, 83, 87
2, 44035, Note_on_c, 0, 83, 0
2, 44040, Note_on_c, 0, 85, 89
2, 44063, Note_on_c, 0, 85, 0
2, 44064, Note_on_c, 0, 88, 89
2, 44087, Note_on_c, 0, 88, 0
2, 44088, Note_on_c, 0, 86, 89
2, 44111, Note_on_c, 0, 86, 0
2, 44112, Note_on_c, 0, 85, 89
2, 44135, Note_on_c, 0, 85, 0
2, 44136, Note_on_c, 0, 83, 89
2, 44159, Note_on_c, 0, 83, 0
2, 44160, Note_on_c, 0, 81, 89
2, 44249, Note_on_c, 0, 81, 0
2, 44256, Note_on_c, 0, 80, 85
2, 44268, Note_on_c, 0, 80, 0
2, 44268, Note_on_c, 0, 81, 85
2, 44280, Note_on_c, 0, 81, 0
2, 44280, Note_on_c, 0, 80, 85
2, 44323, Note_on_c, 0, 80, 0
2, 44328, Note_on_c, 0, 81, 82
2, 44351, Note_on_c, 0, 81, 0
2, 44352, Note_on_c, 0, 81, 98
2, 44448, Note_on_c, 0, 81, 0
2, 44496, Note_on_c, 0, 81, 82
2, 44516, Note_on_c, 0, 81, 0
2, 44544, Note_on_c, 0, 81, 98
2, 44640, Note_on_c, 0, 81, 0
2, 44640, Note_on_c, 0, 75, 82
2, 44688, Note_on_c, 0, 75, 0
2, 44688, Note_on_c, 0, 83, 82
2, 44708, Note_on_c, 0, 83, 0
2, 44736, Note_on_c, 0, 83, 98
2, 44832, Note_on_c, 0, 83, 0
2, 44832, Note_on_c, 0, 76, 82
2, 44852, Note_on_c, 0, 76, 0
2, 44880, Note_on_c, 0, 79, 82
2, 44900, Note_on_c, 0, 79, 0
2, 44928, Note_on_c, 0, 79, 98
2, 45000, Note_on_c, 0, 79, 0
2, 45000, Note_on_c, 0, 81, 85
2, 45012, Note_on_c, 0, 81, 0
2, 45012, Note_on_c, 0, 79, 86
2, 45024, Note_on_c, 0, 79, 0
2, 45024, Note_on_c, 0, 78, 86
2, 45069, Note_on_c, 0, 78, 0
2, 45072, Note_on_c, 0, 78, 89
2, 45092, Note_on_c, 0, 78, 0
2, 45120, Note_on_c, 0, 76, 89
2, 45165, Note_on_c, 0, 76, 0
2, 45168, Note_on_c, 0, 73, 86
2, 45213, Note_on_c, 0, 73, 0
2, 45216, Note_on_c, 0, 69, 84
2, 45261, Note_on_c, 0, 69, 0
2, 45264, Note_on_c, 0, 69, 82
2, 45264, Note_on_c, 0, 66, 82
2, 45309, Note_on_c, 0, 69, 0
2, 45309, Note_on_c, 0, 66, 0
2, 45312, Note_on_c, 0, 69, 98
2, 45312, Note_on_c, 0, 66, 98
2, 45408, Note_on_c, 0, 69, 0
2, 45408, Note_on_c, 0, 62, 82
2, 45428, Note_on_c, 0, 66, 0
2, 45428, Note_on_c, 0, 62, 0
2, 45456, Note_on_c, 0, 74, 82
2, 45456, Note_on_c, 0, 66, 82
2, 45476, Note_on_c, 0, 74, 0
2, 45476, Note_on_c, 0, 66, 0
2, 45504, Note_on_c, 0, 74, 98
2, 45504, Note_on_c, 0, 66, 98
2, 45600, Note_on_c, 0, 74, 0
2, 45600, Note_on_c, 0, 66, 0
2, 45600, Note_on_c, 0, 73, 82
2, 45600, Note_on_c, 0, 64, 82
2, 45620, Note_on_c, 0, 73, 0
2, 45620, Note_on_c, 0, 64, 0
2, 45648, Note_on_c, 0, 76, 82
2, 45648, Note_on_c, 0, 73, 82
2, 45668, Note_on_c, 0, 76, 0
2, 45668, Note_on_c, 0, 73, 0
2, 45696, Note_on_c, 0, 76, 98
2, 45696, Note_on_c, 0, 73, 98
2, 45768, Note_on_c, 0, 76, 0
2, 45768, Note_on_c, 0, 73, 0
2, 45768, Note_on_c, 0, 78, 82
2, 45768, Note_on_c, 0, 74, 82
2, 45791, Note_on_c, 0, 78, 0
2, 45791, Note_on_c, 0, 74, 0
2, 45792, Note_on_c, 0, 79, 82
2, 45792, Note_on_c, 0, 76, 82
2, 45837, Note_on_c, 0, 79, 0
2, 45837, Note_on_c, 0, 76, 0
2, 45840, Note_on_c, 0, 79, 82
2, 45840, Note_on_c, 0, 76, 82
2, 45860, Note_on_c, 0, 79, 0
2, 45860, Note_on_c, 0, 76, 0
2, 45888, Note_on_c, 0, 79, 98
2, 45888, Note_on_c, 0, 76, 98
2, 45984, Note_on_c, 0, 79, 0
2, 45984, Note_on_c, 0, 76, 0
2, 45984, Note_on_c, 0, 78, 82
2, 45984, Note_on_c, 0, 74, 82
2, 46029, Note_on_c, 0, 78, 0
2, 46029, Note_on_c, 0, 74, 0
2, 46032, Note_on_c, 0, 81, 82
2, 46052, Note_on_c, 0, 81, 0
2, 46080, Note_on_c, 0, 81, 98
2, 46176, Note_on_c, 0, 81, 0
2, 46176, Note_on_c, 0, 74, 82
2, 46196, Note_on_c, 0, 74, 0
2, 46224, Note_on_c, 0, 86, 82
2, 46244, Note_on_c, 0, 86, 0
2, 46272, Note_on_c, 0, 86, 98
2, 46344, Note_on_c, 0, 86, 0
2, 46344, Note_on_c, 0, 83, 82
2, 46367, Note_on_c, 0, 83, 0
2, 46368, Note_on_c, 0, 79, 82
2, 46413, Note_on_c, 0, 79, 0
2, 46416, Note_on_c, 0, 83, 82
2, 46436, Note_on_c, 0, 83, 0
2, 46464, Note_on_c, 0, 81, 98
2, 46536, Note_on_c, 0, 81, 0
2, 46536, Note_on_c, 0, 78, 82
2, 46559, Note_on_c, 0, 78, 0
2, 46560, Note_on_c, 0, 74, 82
2, 46605, Note_on_c, 0, 74, 0
2, 46608, Note_on_c, 0, 73, 82
2, 46653, Note_on_c, 0, 73, 0
2, 46656, Note_on_c, 0, 74, 82
2, 46745, Note_on_c, 0, 74, 0
2, 46800, Note_on_c, 0, 81, 82
2, 46820, Note_on_c, 0, 81, 0
2, 46848, Note_on_c, 0, 81, 98
2, 46944, Note_on_c, 0, 81, 0
2, 46944, Note_on_c, 0, 75, 82
2, 46992, Note_on_c, 0, 75, 0
2, 46992, Note_on_c, 0, 83, 82
2, 47012, Note_on_c, 0, 83, 0
2, 47040, Note_on_c, 0, 83, 98
2, 47136, Note_on_c, 0, 83, 0
2, 47136, Note_on_c, 0, 76, 82
2, 47156, Note_on_c, 0, 76, 0
2, 47184, Note_on_c, 0, 79, 82
2, 47204, Note_on_c, 0, 79, 0
2, 47232, Note_on_c, 0, 79, 98
2, 47304, Note_on_c, 0, 79, 0
2, 47304, Note_on_c, 0, 81, 85
2, 47316, Note_on_c, 0, 81, 0
2, 47316, Note_on_c, 0, 79, 86
2, 47328, Note_on_c, 0, 79, 0
2, 47328, Note_on_c, 0, 78, 86
2, 47373, Note_on_c, 0, 78, 0
2, 47376, Note_on_c, 0, 78, 89
2, 47396, Note_on_c, 0, 78, 0
2, 47424, Note_on_c, 0, 76, 89
2, 47469, Note_on_c, 0, 76, 0
2, 47472, Note_on_c, 0, 73, 86
2, 47517, Note_on_c, 0, 73, 0
2, 47520, Note_on_c, 0, 69, 84
2, 47565, Note_on_c, 0, 69, 0
2, 47568, Note_on_c, 0, 69, 82
2, 47568, Note_on_c, 0, 66, 82
2, 47613, Note_on_c, 0, 69, 0
2, 47613, Note_on_c, 0, 66, 0
2, 47616, Note_on_c, 0, 69, 98
2, 47616, Note_on_c, 0, 66, 98
2, 47712, Note_on_c, 0, 69, 0
2, 47712, Note_on_c, 0, 62, 82
2, 47732, Note_on_c, 0, 66, 0
2, 47732, Note_on_c, 0, 62, 0
2, 47760, Note_on_c, 0, 74, 82
2, 47760, Note_on_c, 0, 66, 82
2, 47780, Note_on_c, 0, 74, 0
2, 47780, Note_on_c, 0, 66, 0
2, 47808, Note_on_c, 0, 74, 98
2, 47808, Note_on_c, 0, 66, 98
2, 47904, Note_on_c, 0, 74, 0
2, 47904, Note_on_c, 0, 66, 0
2, 47904, Note_on_c, 0, 73, 82
2, 47904, Note_on_c, 0, 64, 82
2, 47924, Note_on_c, 0, 73, 0
2, 47924, Note_on_c, 0, 64, 0
2, 47952, Note_on_c, 0, 76, 82
2, 47952, Note_on_c, 0, 73, 82
2, 47972, Note_on_c, 0, 76, 0
2, 47972, Note_on_c, 0, 73, 0
2, 48000, Note_on_c, 0, 76, 98
2, 48000, Note_on_c, 0, 73, 98
2, 48072, Note_on_c, 0, 76, 0
2, 48072, Note_on_c, 0, 73, 0
2, 48072, Note_on_c, 0, 78, 82
2, 48072, Note_on_c, 0, 74, 82
2, 48095, Note_on_c, 0, 78, 0
2, 48095, Note_on_c, 0, 74, 0
2, 48096, Note_on_c, 0, 79, 82
2, 48096, Note_on_c, 0, 76, 82
2, 48141, Note_on_c, 0, 79, 0
2, 48141, Note_on_c, 0, 76, 0
2, 48144, Note_on_c, 0, 79, 82
2, 48144, Note_on_c, 0, 76, 82
2, 48164, Note_on_c, 0, 79, 0
2, 48164, Note_on_c, 0, 76, 0
2, 48192, Note_on_c, 0, 79, 98
2, 48192, Note_on_c, 0, 76, 98
2, 48288, Note_on_c, 0, 79, 0
2, 48288, Note_on_c, 0, 76, 0
2, 48288, Note_on_c, 0, 78, 82
2, 48288, Note_on_c, 0, 74, 82
2, 48333, Note_on_c, 0, 78, 0
2, 48333, Note_on_c, 0, 74, 0
2, 48336, Note_on_c, 0, 81, 82
2, 48356, Note_on_c, 0, 81, 0
2, 48384, Note_on_c, 0, 81, 98
2, 48480, Note_on_c, 0, 81, 0
2, 48480, Note_on_c, 0, 74, 82
2, 48500, Note_on_c, 0, 74, 0
2, 48528, Note_on_c, 0, 86, 82
2, 48548, Note_on_c, 0, 86, 0
2, 48576, Note_on_c, 0, 86, 98
2, 48648, Note_on_c, 0, 86, 0
2, 48648, Note_on_c, 0, 83, 82
2, 48671, Note_on_c, 0, 83, 0
2, 48672, Note_on_c, 0, 79, 82
2, 48717, Note_on_c, 0, 79, 0
2, 48720, Note_on_c, 0, 83, 82
2, 48740, Note_on_c, 0, 83, 0
2, 48768, Note_on_c, 0, 81, 98
2, 48840, Note_on_c, 0, 81, 0
2, 48840, Note_on_c, 0, 78, 82
2, 48863, Note_on_c, 0, 78, 0
2, 48864, Note_on_c, 0, 74, 82
2, 48909, Note_on_c, 0, 74, 0
2, 48912, Note_on_c, 0, 73, 82
2, 48957, Note_on_c, 0, 73, 0
2, 48960, Note_on_c, 0, 74, 82
2, 49049, Note_on_c, 0, 74, 0
2, 49056, Note_on_c, 0, 86, 82
2, 49056, Note_on_c, 0, 78, 82
2, 49056, Note_on_c, 0, 74, 82
2, 49145, Note_on_c, 0, 86, 0
2, 49145, Note_on_c, 0, 78, 0
2, 49145, Note_on_c, 0, 74, 0
2, 49152, Note_on_c, 0, 86, 82
2, 49152, Note_on_c, 0, 78, 82
2, 49152, Note_on_c, 0, 74, 82
2, 49285, Note_on_c, 0, 86, 0
2, 49285, Note_on_c, 0, 78, 0
2, 49285, Note_on_c, 0, 74, 0
2, 49344, End_track
3, 0, Start_track
3, 0, Program_c, 0, 0
3, 0, Control_c, 0, 7, 127
3, 0, Control_c, 0, 10, 64
3, 96, Note_on_c, 0, 57, 76
3, 163, Note_on_c, 0, 57, 0
3, 168, Note_on_c, 0, 59, 76
3, 191, Note_on_c, 0, 59, 0
3, 192, Note_on_c, 0, 61, 76
3, 281, Note_on_c, 0, 61, 0
3, 288, Note_on_c, 0, 62, 76
3, 503, Note_on_c, 0, 62, 0
3, 504, Note_on_c, 0, 64, 76
3, 516, Note_on_c, 0, 64, 0
3, 516, Note_on_c, 0, 65, 76
3, 528, Note_on_c, 0, 65, 0
3, 528, Note_on_c, 0, 64, 76
3, 551, Note_on_c, 0, 64, 0
3, 552, Note_on_c, 0, 62, 76
3, 575, Note_on_c, 0, 62, 0
3, 576, Note_on_c, 0, 61, 76
3, 665, Note_on_c, 0, 61, 0
3, 672, Note_on_c, 0, 62, 76
3, 717, Note_on_c, 0, 62, 0
3, 720, Note_on_c, 0, 64, 76
3, 813, Note_on_c, 0, 64, 0
3, 816, Note_on_c, 0, 62, 76
3, 861, Note_on_c, 0, 62, 0
3, 864, Note_on_c, 0, 62, 76
3, 960, Note_on_c, 0, 62, 0
3, 960, Note_on_c, 0, 61, 74
3, 1147, Note_on_c, 0, 61, 0
3, 1152, Note_on_c, 0, 62, 76
3, 1241, Note_on_c, 0, 62, 0
3, 1248, Note_on_c, 0, 64, 76
3, 1315, Note_on_c, 0, 64, 0
3, 1320, Note_on_c, 0, 65, 76
3, 1328, Note_on_c, 0, 65, 0
3, 1328, Note_on_c, 0, 64, 76
3, 1336, Note_on_c, 0, 64, 0
3, 1336, Note_on_c, 0, 62, 76
3, 1344, Note_on_c, 0, 62, 0
3, 1344, Note_on_c, 0, 60, 76
3, 1433, Note_on_c, 0, 60, 0
3, 1440, Note_on_c, 0, 60, 76
3, 1617, Note_on_c, 0, 60, 0
3, 1632, Note_on_c, 0, 65, 76
3, 1721, Note_on_c, 0, 65, 0
3, 1728, Note_on_c, 0, 65, 76
3, 1817, Note_on_c, 0, 65, 0
3, 1920, Note_on_c, 0, 65, 76
3, 2009, Note_on_c, 0, 65, 0
3, 2016, Note_on_c, 0, 62, 76
3, 2105, Note_on_c, 0, 62, 0
3, 2112, Note_on_c, 0, 60, 76
3, 2201, Note_on_c, 0, 60, 0
3, 2208, Note_on_c, 0, 60, 76
3, 2297, Note_on_c, 0, 60, 0
3, 2688, Note_on_c, 0, 57, 76
3, 2755, Note_on_c, 0, 57, 0
3, 2760, Note_on_c, 0, 59, 76
3, 2783, Note_on_c, 0, 59, 0
3, 2784, Note_on_c, 0, 61, 76
3, 2873, Note_on_c, 0, 61, 0
3, 2880, Note_on_c, 0, 62, 76
3, 3095, Note_on_c, 0, 62, 0
3, 3096, Note_on_c, 0, 64, 76
3, 3108, Note_on_c, 0, 64, 0
3, 3108, Note_on_c, 0, 65, 76
3, 3120, Note_on_c, 0, 65, 0
3, 3120, Note_on_c, 0, 64, 76
3, 3143, Note_on_c, 0, 64, 0
3, 3144, Note_on_c, 0, 62, 76
3, 3167, Note_on_c, 0, 62, 0
3, 3168, Note_on_c, 0, 61, 76
3, 3257, Note_on_c, 0, 61, 0
3, 3264, Note_on_c, 0, 62, 76
3, 3309, Note_on_c, 0, 62, 0
3, 3312, Note_on_c, 0, 64, 76
3, 3405, Note_on_c, 0, 64, 0
3, 3408, Note_on_c, 0, 62, 76
3, 3453, Note_on_c, 0, 62, 0
3, 3456, Note_on_c, 0, 62, 76
3, 3552, Note_on_c, 0, 62, 0
3, 3552, Note_on_c, 0, 61, 74
3, 3739, Note_on_c, 0, 61, 0
3, 3744, Note_on_c, 0, 62, 76
3, 3833, Note_on_c, 0, 62, 0
3, 3840, Note_on_c, 0, 64, 76
3, 3907, Note_on_c, 0, 64, 0
3, 3912, Note_on_c, 0, 65, 76
3, 3920, Note_on_c, 0, 65, 0
3, 3920, Note_on_c, 0, 64, 76
3, 3928, Note_on_c, 0, 64, 0
3, 3928, Note_on_c, 0, 62, 76
3, 3936, Note_on_c, 0, 62, 0
3, 3936, Note_on_c, 0, 60, 76
3, 4025, Note_on_c, 0, 60, 0
3, 4032, Note_on_c, 0, 60, 76
3, 4209, Note_on_c, 0, 60, 0
3, 4224, Note_on_c, 0, 65, 76
3, 4313, Note_on_c, 0, 65, 0
3, 4320, Note_on_c, 0, 65, 76
3, 4409, Note_on_c, 0, 65, 0
3, 4512, Note_on_c, 0, 65, 76
3, 4601, Note_on_c, 0, 65, 0
3, 4608, Note_on_c, 0, 62, 76
3, 4697, Note_on_c, 0, 62, 0
3, 4704, Note_on_c, 0, 60, 76
3, 4793, Note_on_c, 0, 60, 0
3, 4800, Note_on_c, 0, 60, 76
3, 4889, Note_on_c, 0, 60, 0
3, 5376, Note_on_c, 0, 62, 76
3, 5465, Note_on_c, 0, 62, 0
3, 5472, Note_on_c, 0, 62, 76
3, 5649, Note_on_c, 0, 62, 0
3, 5664, Note_on_c, 0, 67, 76
3, 5753, Note_on_c, 0, 67, 0
3, 5760, Note_on_c, 0, 67, 76
3, 5849, Note_on_c, 0, 67, 0
3, 5856, Note_on_c, 0, 67, 78
3, 5904, Note_on_c, 0, 67, 0
3, 5904, Note_on_c, 0, 65, 79
3, 5949, Note_on_c, 0, 65, 0
3, 5952, Note_on_c, 0, 65, 80
3, 6000, Note_on_c, 0, 65, 0
3, 6000, Note_on_c, 0, 64, 81
3, 6045, Note_on_c, 0, 64, 0
3, 6048, Note_on_c, 0, 64, 82
3, 6115, Note_on_c, 0, 64, 0
3, 6120, Note_on_c, 0, 65, 82
3, 6143, Note_on_c, 0, 65, 0
3, 6144, Note_on_c, 0, 65, 82
3, 6233, Note_on_c, 0, 65, 0
3, 6288, Note_on_c, 0, 67, 70
3, 6333, Note_on_c, 0, 67, 0
3, 6336, Note_on_c, 0, 67, 70
3, 6403, Note_on_c, 0, 67, 0
3, 6408, Note_on_c, 0, 65, 70
3, 6431, Note_on_c, 0, 65, 0
3, 6432, Note_on_c, 0, 65, 70
3, 6521, Note_on_c, 0, 65, 0
3, 6576, Note_on_c, 0, 67, 58
3, 6621, Note_on_c, 0, 67, 0
3, 6624, Note_on_c, 0, 67, 58
3, 6691, Note_on_c, 0, 67, 0
3, 6696, Note_on_c, 0, 65, 58
3, 6719, Note_on_c, 0, 65, 0
3, 6720, Note_on_c, 0, 65, 58
3, 6809, Note_on_c, 0, 65, 0
3, 49344, End_track
4, 0, Start_track
4, 0, Program_c, 1, 0
4, 0, Control_c, 1, 7, 127
4, 0, Control_c, 1, 10, 64
4, 0, Control_c, 1, 64, 127
4, 0, Note_on_c, 1, 38, 76
4, 5, Note_on_c, 1, 41, 76
4, 10, Note_on_c, 1, 45, 76
4, 15, Note_on_c, 1, 50, 76
4, 20, Note_on_c, 1, 53, 76
4, 25, Note_on_c, 1, 57, 76
4, 30, Note_on_c, 1, 62, 76
4, 95, Note_on_c, 1, 62, 0
4, 95, Note_on_c, 1, 57, 0
4, 95, Note_on_c, 1, 53, 0
4, 95, Note_on_c, 1, 50, 0
4, 95, Note_on_c, 1, 45, 0
4, 95, Note_on_c, 1, 41, 0
4, 95, Note_on_c, 1, 38, 0
4, 96, Note_on_c, 1, 53, 76
4, 163, Note_on_c, 1, 53, 0
4, 168, Control_c, 1, 64, 0
4, 168, Note_on_c, 1, 55, 76
4, 191, Note_on_c, 1, 55, 0
4, 192, Note_on_c, 1, 57, 76
4, 355, Note_on_c, 1, 57, 0
4, 360, Note_on_c, 1, 50, 76
4, 368, Note_on_c, 1, 50, 0
4, 368, Note_on_c, 1, 52, 76
4, 376, Note_on_c, 1, 52, 0
4, 376, Note_on_c, 1, 54, 76
4, 384, Note_on_c, 1, 54, 0
4, 384, Note_on_c, 1, 55, 76
4, 643, Note_on_c, 1, 55, 0
4, 648, Note_on_c, 1, 52, 76
4, 656, Note_on_c, 1, 52, 0
4, 656, Note_on_c, 1, 53, 76
4, 664, Note_on_c, 1, 53, 0
4, 664, Note_on_c, 1, 55, 76
4, 672, Note_on_c, 1, 55, 0
4, 672, Note_on_c, 1, 53, 76
4, 717, Note_on_c, 1, 53, 0
4, 720, Note_on_c, 1, 49, 76
4, 765, Note_on_c, 1, 49, 0
4, 768, Note_on_c, 1, 50, 76
4, 857, Note_on_c, 1, 50, 0
4, 864, Note_on_c, 1, 45, 76
4, 953, Note_on_c, 1, 45, 0
4, 960, Note_on_c, 1, 33, 74
4, 1147, Note_on_c, 1, 33, 0
4, 1152, Note_on_c, 1, 57, 76
4, 1241, Note_on_c, 1, 57, 0
4, 1248, Note_on_c, 1, 58, 76
4, 1425, Note_on_c, 1, 58, 0
4, 1440, Note_on_c, 1, 58, 76
4, 1529, Note_on_c, 1, 58, 0
4, 1536, Note_on_c, 1, 57, 76
4, 1570, Note_on_c, 1, 57, 0
4, 1572, Note_on_c, 1, 55, 76
4, 1584, Note_on_c, 1, 55, 0
4, 1584, Note_on_c, 1, 57, 76
4, 1618, Note_on_c, 1, 57, 0
4, 1620, Note_on_c, 1, 58, 76
4, 1632, Note_on_c, 1, 58, 0
4, 1632, Note_on_c, 1, 57, 76
4, 1666, Note_on_c, 1, 57, 0
4, 1668, Note_on_c, 1, 55, 78
4, 1680, Note_on_c, 1, 55, 0
4, 1680, Note_on_c, 1, 53, 79
4, 1714, Note_on_c, 1, 53, 0
4, 1716, Note_on_c, 1, 52, 81
4, 1728, Note_on_c, 1, 52, 0
4, 1728, Note_on_c, 1, 50, 82
4, 1728, Note_on_c, 1, 46, 82
4, 1817, Note_on_c, 1, 50, 0
4, 1817, Note_on_c, 1, 46, 0
4, 1824, Note_on_c, 1, 46, 82
4, 1830, Note_on_c, 1, 48, 82
4, 1836, Note_on_c, 1, 52, 82
4, 1842, Note_on_c, 1, 55, 82
4, 1917, Note_on_c, 1, 55, 0
4, 1917, Note_on_c, 1, 52, 0
4, 1917, Note_on_c, 1, 48, 0
4, 1917, Note_on_c, 1, 46, 0
4, 1920, Note_on_c, 1, 45, 82
4, 1923, Note_on_c, 1, 48, 82
4, 1926, Note_on_c, 1, 53, 82
4, 1929, Note_on_c, 1, 57, 82
4, 2011, Note_on_c, 1, 57, 0
4, 2011, Note_on_c, 1, 53, 0
4, 2011, Note_on_c, 1, 48, 0
4, 2011, Note_on_c, 1, 45, 0
4, 2016, Note_on_c, 1, 46, 82
4, 2019, Note_on_c, 1, 50, 82
4, 2022, Note_on_c, 1, 55, 82
4, 2025, Note_on_c, 1, 58, 82
4, 2107, Note_on_c, 1, 58, 0
4, 2107, Note_on_c, 1, 55, 0
4, 2107, Note_on_c, 1, 50, 0
4, 2107, Note_on_c, 1, 46, 0
4, 2112, Note_on_c, 1, 48, 78
4, 2115, Note_on_c, 1, 53, 78
4, 2118, Note_on_c, 1, 57, 78
4, 2121, Note_on_c, 1, 60, 78
4, 2203, Note_on_c, 1, 60, 0
4, 2203, Note_on_c, 1, 57, 0
4, 2203, Note_on_c, 1, 53, 0
4, 2203, Note_on_c, 1, 48, 0
4, 2208, Note_on_c, 1, 48, 74
4, 2211, Note_on_c, 1, 52, 74
4, 2214, Note_on_c, 1, 55, 74
4, 2217, Note_on_c, 1, 58, 74
4, 2299, Note_on_c, 1, 58, 0
4, 2299, Note_on_c, 1, 55, 0
4, 2299, Note_on_c, 1, 52, 0
4, 2299, Note_on_c, 1, 48, 0
4, 2304, Note_on_c, 1, 60, 70
4, 2304, Note_on_c, 1, 53, 70
4, 2569, Note_on_c, 1, 60, 0
4, 2569, Note_on_c, 1, 53, 0
4, 2592, Control_c, 1, 64, 127
4, 2592, Note_on_c, 1, 38, 76
4, 2597, Note_on_c, 1, 41, 76
4, 2602, Note_on_c, 1, 45, 76
4, 2607, Note_on_c, 1, 50, 76
4, 2612, Note_on_c, 1, 53, 76
4, 2617, Note_on_c, 1, 57, 76
4, 2622, Note_on_c, 1, 62, 76
4, 2687, Note_on_c, 1, 62, 0
4, 2687, Note_on_c, 1, 57, 0
4, 2687, Note_on_c, 1, 53, 0
4, 2687, Note_on_c, 1, 50, 0
4, 2687, Note_on_c, 1, 45, 0
4, 2687, Note_on_c, 1, 41, 0
4, 2687, Note_on_c, 1, 38, 0
4, 2688, Note_on_c, 1, 53, 76
4, 2755, Note_on_c, 1, 53, 0
4, 2760, Control_c, 1, 64, 0
4, 2760, Note_on_c, 1, 55, 76
4, 2783, Note_on_c, 1, 55, 0
4, 2784, Note_on_c, 1, 57, 76
4, 2947, Note_on_c, 1, 57, 0
4, 2952, Note_on_c, 1, 50, 76
4, 2960, Note_on_c, 1, 50, 0
4, 2960, Note_on_c, 1, 52, 76
4, 2968, Note_on_c, 1, 52, 0
4, 2968, Note_on_c, 1, 54, 76
4, 2976, Note_on_c, 1, 54, 0
4, 2976, Note_on_c, 1, 55, 76
4, 3235, Note_on_c, 1, 55, 0
4, 3240, Note_on_c, 1, 52, 76
4, 3248, Note_on_c, 1, 52, 0
4, 3248, Note_on_c, 1, 53, 76
4, 3256, Note_on_c, 1, 53, 0
4, 3256, Note_on_c, 1, 55, 76
4, 3264, Note_on_c, 1, 55, 0
4, 3264, Note_on_c, 1, 53, 76
4, 3309, Note_on_c, 1, 53, 0
4, 3312, Note_on_c, 1, 49, 76
4, 3357, Note_on_c, 1, 49, 0
4, 3360, Note_on_c, 1, 50, 76
4, 3449, Note_on_c, 1, 50, 0
4, 3456, Note_on_c, 1, 45, 76
4, 3545, Note_on_c, 1, 45, 0
4, 3552, Note_on_c, 1, 33, 74
4, 3739, Note_on_c, 1, 33, 0
4, 3744, Note_on_c, 1, 57, 76
4, 3833, Note_on_c, 1, 57, 0
4, 3840, Note_on_c, 1, 58, 76
4, 4017, Note_on_c, 1, 58, 0
4, 4032, Note_on_c, 1, 58, 76
4, 4121, Note_on_c, 1, 58, 0
4, 4128, Note_on_c, 1, 57, 76
4, 4162, Note_on_c, 1, 57, 0
4, 4164, Note_on_c, 1, 55, 76
4, 4176, Note_on_c, 1, 55, 0
4, 4176, Note_on_c, 1, 57, 76
4, 4210, Note_on_c, 1, 57, 0
4, 4212, Note_on_c, 1, 58, 76
4, 4224, Note_on_c, 1, 58, 0
4, 4224, Note_on_c, 1, 57, 76
4, 4258, Note_on_c, 1, 57, 0
4, 4260, Note_on_c, 1, 55, 78
4, 4272, Note_on_c, 1, 55, 0
4, 4272, Note_on_c, 1, 53, 79
4, 4306, Note_on_c, 1, 53, 0
4, 4308, Note_on_c, 1, 52, 81
4, 4320, Note_on_c, 1, 52, 0
4, 4320, Note_on_c, 1, 50, 82
4, 4320, Note_on_c, 1, 46, 82
4, 4409, Note_on_c, 1, 50, 0
4, 4409, Note_on_c, 1, 46, 0
4, 4416, Note_on_c, 1, 46, 82
4, 4422, Note_on_c, 1, 48, 82
4, 4428, Note_on_c, 1, 52, 82
4, 4434, Note_on_c, 1, 55, 82
4, 4509, Note_on_c, 1, 55, 0
4, 4509, Note_on_c, 1, 52, 0
4, 4509, Note_on_c, 1, 48, 0
4, 4509, Note_on_c, 1, 46, 0
4, 4512, Note_on_c, 1, 45, 82
4, 4515, Note_on_c, 1, 48, 82
4, 4518, Note_on_c, 1, 53, 82
4, 4521, Note_on_c, 1, 57, 82
4, 4603, Note_on_c, 1, 57, 0
4, 4603, Note_on_c, 1, 53, 0
4, 4603, Note_on_c, 1, 48, 0
4, 4603, Note_on_c, 1, 45, 0
4, 4608, Note_on_c, 1, 46, 82
4, 4611, Note_on_c, 1, 50, 82
4, 4614, Note_on_c, 1, 55, 82
4, 4617, Note_on_c, 1, 58, 82
4, 4699, Note_on_c, 1, 58, 0
4, 4699, Note_on_c, 1, 55, 0
4, 4699, Note_on_c, 1, 50, 0
4, 4699, Note_on_c, 1, 46, 0
4, 4704, Note_on_c, 1, 48, 78
4, 4707, Note_on_c, 1, 53, 78
4, 4710, Note_on_c, 1, 57, 78
4, 4713, Note_on_c, 1, 60, 78
4, 4795, Note_on_c, 1, 60, 0
4, 4795, Note_on_c, 1, 57, 0
4, 4795, Note_on_c, 1, 53, 0
4, 4795, Note_on_c, 1, 48, 0
4, 4800, Note_on_c, 1, 48, 74
4, 4803, Note_on_c, 1, 52, 74
4, 4806, Note_on_c, 1, 55, 74
4, 4809, Note_on_c, 1, 58, 74
4, 4891, Note_on_c, 1, 58, 0
4, 4891, Note_on_c, 1, 55, 0
4, 4891, Note_on_c, 1, 52, 0
4, 4891, Note_on_c, 1, 48, 0
4, 4896, Note_on_c, 1, 60, 70
4, 4896, Note_on_c, 1, 53, 70
4, 5161, Note_on_c, 1, 60, 0
4, 5161, Note_on_c, 1, 53, 0
4, 5184, Note_on_c, 1, 50, 70
4, 5187, Note_on_c, 1, 54, 70
4, 5190, Note_on_c, 1, 57, 70
4, 5193, Note_on_c, 1, 62, 70
4, 5196, Note_on_c, 1, 66, 70
4, 5199, Note_on_c, 1, 69, 70
4, 5277, Note_on_c, 1, 69, 0
4, 5277, Note_on_c, 1, 66, 0
4, 5277, Note_on_c, 1, 62, 0
4, 5277, Note_on_c, 1, 57, 0
4, 5277, Note_on_c, 1, 54, 0
4, 5277, Note_on_c, 1, 50, 0
4, 5280, Note_on_c, 1, 43, 76
4, 5283, Note_on_c, 1, 46, 76
4, 5286, Note_on_c, 1, 50, 76
4, 5289, Note_on_c, 1, 55, 76
4, 5292, Note_on_c, 1, 62, 76
4, 5295, Note_on_c, 1, 67, 76
4, 5298, Note_on_c, 1, 70, 76
4, 5373, Note_on_c, 1, 70, 0
4, 5373, Note_on_c, 1, 67, 0
4, 5373, Note_on_c, 1, 62, 0
4, 5373, Note_on_c, 1, 55, 0
4, 5373, Note_on_c, 1, 50, 0
4, 5373, Note_on_c, 1, 46, 0
4, 5373, Note_on_c, 1, 43, 0
4, 5376, Note_on_c, 1, 60, 76
4, 5443, Note_on_c, 1, 60, 0
4, 5448, Note_on_c, 1, 57, 76
4, 5456, Note_on_c, 1, 57, 0
4, 5456, Note_on_c, 1, 58, 76
4, 5464, Note_on_c, 1, 58, 0
4, 5464, Note_on_c, 1, 60, 76
4, 5472, Note_on_c, 1, 60, 0
4, 5472, Note_on_c, 1, 60, 76
4, 5561, Note_on_c, 1, 60, 0
4, 5568, Note_on_c, 1, 58, 76
4, 5602, Note_on_c, 1, 58, 0
4, 5604, Note_on_c, 1, 57, 76
4, 5616, Note_on_c, 1, 57, 0
4, 5616, Note_on_c, 1, 58, 76
4, 5650, Note_on_c, 1, 58, 0
4, 5652, Note_on_c, 1, 60, 76
4, 5664, Note_on_c, 1, 60, 0
4, 5664, Note_on_c, 1, 58, 76
4, 5698, Note_on_c, 1, 58, 0
4, 5700, Note_on_c, 1, 57, 76
4, 5712, Note_on_c, 1, 57, 0
4, 5712, Note_on_c, 1, 55, 76
4, 5746, Note_on_c, 1, 55, 0
4, 5748, Note_on_c, 1, 53, 76
4, 5760, Note_on_c, 1, 53, 0
4, 5760, Note_on_c, 1, 52, 76
4, 5808, Note_on_c, 1, 52, 0
4, 5808, Note_on_c, 1, 57, 77
4, 5853, Note_on_c, 1, 57, 0
4, 5856, Note_on_c, 1, 57, 78
4, 5904, Note_on_c, 1, 57, 0
4, 5904, Note_on_c, 1, 59, 79
4, 5949, Note_on_c, 1, 59, 0
4, 5952, Note_on_c, 1, 59, 80
4, 6000, Note_on_c, 1, 59, 0
4, 6000, Note_on_c, 1, 61, 81
4, 6045, Note_on_c, 1, 61, 0
4, 6048, Note_on_c, 1, 61, 82
4, 6115, Note_on_c, 1, 61, 0
4, 6120, Note_on_c, 1, 62, 82
4, 6143, Note_on_c, 1, 62, 0
4, 6144, Note_on_c, 1, 62, 82
4, 6233, Note_on_c, 1, 62, 0
4, 6288, Note_on_c, 1, 61, 70
4, 6333, Note_on_c, 1, 61, 0
4, 6336, Note_on_c, 1, 61, 70
4, 6403, Note_on_c, 1, 61, 0
4, 6408, Note_on_c, 1, 62, 70
4, 6431, Note_on_c, 1, 62, 0
4, 6432, Note_on_c, 1, 62, 70
4, 6521, Note_on_c, 1, 62, 0
4, 6576, Note_on_c, 1, 61, 70
4, 6621, Note_on_c, 1, 61, 0
4, 6624, Note_on_c, 1, 61, 70
4, 6691, Note_on_c, 1, 61, 0
4, 6696, Note_on_c, 1, 62, 70
4, 6719, Note_on_c, 1, 62, 0
4, 6720, Note_on_c, 1, 62, 70
4, 6809, Note_on_c, 1, 62, 0
4, 6816, Note_on_c, 1, 60, 76
4, 6905, Note_on_c, 1, 60, 0
4, 6912, Note_on_c, 1, 43, 89
4, 6918, Note_on_c, 1, 46, 89
4, 6924, Note_on_c, 1, 51, 89
4, 6930, Note_on_c, 1, 55, 89
4, 7149, Note_on_c, 1, 55, 0
4, 7149, Note_on_c, 1, 51, 0
4, 7149, Note_on_c, 1, 46, 0
4, 7149, Note_on_c, 1, 43, 0
4, 7152, Note_on_c, 1, 53, 76
4, 7152, Note_on_c, 1, 44, 76
4, 7197, Note_on_c, 1, 53, 0
4, 7197, Note_on_c, 1, 44, 0
4, 7200, Note_on_c, 1, 53, 74
4, 7296, Note_on_c, 1, 53, 0
4, 7296, Note_on_c, 1, 52, 71
4, 7341, Note_on_c, 1, 52, 0
4, 7344, Note_on_c, 1, 57, 70
4, 7344, Note_on_c, 1, 53, 70
4, 7389, Note_on_c, 1, 57, 0
4, 7389, Note_on_c, 1, 53, 0
4, 7392, Note_on_c, 1, 57, 72
4, 7392, Note_on_c, 1, 55, 72
4, 7392, Note_on_c, 1, 52, 72
4, 7437, Note_on_c, 1, 57, 0
4, 7437, Note_on_c, 1, 55, 0
4, 7437, Note_on_c, 1, 52, 0
4, 7440, Note_on_c, 1, 57, 74
4, 7440, Note_on_c, 1, 53, 74
4, 7440, Note_on_c, 1, 50, 74
4, 7485, Note_on_c, 1, 57, 0
4, 7485, Note_on_c, 1, 53, 0
4, 7485, Note_on_c, 1, 50, 0
4, 7488, Control_c, 1, 64, 127
4, 7488, Note_on_c, 1, 57, 76
4, 7488, Note_on_c, 1, 52, 76
4, 7488, Note_on_c, 1, 49, 76
4, 7488, Note_on_c, 1, 45, 76
4, 7488, Note_on_c, 1, 33, 76
4, 7577, Note_on_c, 1, 57, 0
4, 7577, Note_on_c, 1, 52, 0
4, 7577, Note_on_c, 1, 49, 0
4, 7577, Note_on_c, 1, 45, 0
4, 7577, Note_on_c, 1, 33, 0
4, 7584, Note_on_c, 1, 57, 76
4, 7584, Note_on_c, 1, 52, 76
4, 7584, Note_on_c, 1, 49, 76
4, 7584, Note_on_c, 1, 45, 76
4, 7584, Note_on_c, 1, 33, 76
4, 7673, Note_on_c, 1, 57, 0
4, 7673, Note_on_c, 1, 52, 0
4, 7673, Note_on_c, 1, 49, 0
4, 7673, Note_on_c, 1, 45, 0
4, 7673, Note_on_c, 1, 33, 0
4, 7680, Note_on_c, 1, 57, 76
4, 7680, Note_on_c, 1, 52, 76
4, 7680, Note_on_c, 1, 49, 76
4, 7680, Note_on_c, 1, 45, 76
4, 7680, Note_on_c, 1, 33, 76
4, 7769, Note_on_c, 1, 57, 0
4, 7769, Note_on_c, 1, 52, 0
4, 7769, Note_on_c, 1, 49, 0
4, 7769, Note_on_c, 1, 45, 0
4, 7769, Note_on_c, 1, 33, 0
4, 7776, Note_on_c, 1, 57, 76
4, 7776, Note_on_c, 1, 52, 76
4, 7776, Note_on_c, 1, 49, 76
4, 7776, Note_on_c, 1, 45, 76
4, 7776, Note_on_c, 1, 33, 76
4, 8041, Note_on_c, 1, 57, 0
4, 8041, Note_on_c, 1, 52, 0
4, 8041, Note_on_c, 1, 49, 0
4, 8041, Note_on_c, 1, 45, 0
4, 8041, Note_on_c, 1, 33, 0
4, 8064, Control_c, 1, 64, 0
4, 8304, Note_on_c, 1, 54, 66
4, 8304, Note_on_c, 1, 50, 66
4, 8324, Note_on_c, 1, 54, 0
4, 8324, Note_on_c, 1, 50, 0
4, 8352, Note_on_c, 1, 54, 66
4, 8352, Note_on_c, 1, 50, 66
4, 8397, Note_on_c, 1, 54, 0
4, 8397, Note_on_c, 1, 50, 0
4, 8496, Note_on_c, 1, 55, 66
4, 8496, Note_on_c, 1, 52, 66
4, 8516, Note_on_c, 1, 55, 0
4, 8516, Note_on_c, 1, 52, 0
4, 8544, Note_on_c, 1, 55, 66
4, 8544, Note_on_c, 1, 52, 66
4, 8589, Note_on_c, 1, 55, 0
4, 8589, Note_on_c, 1, 52, 0
4, 8688, Note_on_c, 1, 61, 66
4, 8688, Note_on_c, 1, 57, 66
4, 8708, Note_on_c, 1, 61, 0
4, 8708, Note_on_c, 1, 57, 0
4, 8736, Note_on_c, 1, 61, 66
4, 8736, Note_on_c, 1, 57, 66
4, 8781, Note_on_c, 1, 61, 0
4, 8781, Note_on_c, 1, 57, 0
4, 8880, Note_on_c, 1, 66, 66
4, 8880, Note_on_c, 1, 62, 66
4, 8900, Note_on_c, 1, 66, 0
4, 8900, Note_on_c, 1, 62, 0
4, 8928, Note_on_c, 1, 66, 66
4, 8928, Note_on_c, 1, 62, 66
4, 8973, Note_on_c, 1, 66, 0
4, 8973, Note_on_c, 1, 62, 0
4, 9072, Note_on_c, 1, 64, 66
4, 9072, Note_on_c, 1, 61, 66
4, 9092, Note_on_c, 1, 64, 0
4, 9092, Note_on_c, 1, 61, 0
4, 9120, Note_on_c, 1, 64, 66
4, 9120, Note_on_c, 1, 61, 66
4, 9165, Note_on_c, 1, 64, 0
4, 9165, Note_on_c, 1, 61, 0
4, 9264, Note_on_c, 1, 66, 66
4, 9264, Note_on_c, 1, 62, 66
4, 9284, Note_on_c, 1, 66, 0
4, 9284, Note_on_c, 1, 62, 0
4, 9312, Note_on_c, 1, 66, 66
4, 9312, Note_on_c, 1, 62, 66
4, 9357, Note_on_c, 1, 66, 0
4, 9357, Note_on_c, 1, 62, 0
4, 9360, Note_on_c, 1, 66, 66
4, 9360, Note_on_c, 1, 62, 66
4, 9405, Note_on_c, 1, 66, 0
4, 9405, Note_on_c, 1, 62, 0
4, 9408, Note_on_c, 1, 61, 66
4, 9408, Note_on_c, 1, 52, 66
4, 9453, Note_on_c, 1, 61, 0
4, 9453, Note_on_c, 1, 52, 0
4, 9456, Note_on_c, 1, 61, 66
4, 9456, Note_on_c, 1, 52, 66
4, 9501, Note_on_c, 1, 61, 0
4, 9501, Note_on_c, 1, 52, 0
4, 9504, Note_on_c, 1, 59, 66
4, 9504, Note_on_c, 1, 52, 66
4, 9549, Note_on_c, 1, 59, 0
4, 9549, Note_on_c, 1, 52, 0
4, 9552, Note_on_c, 1, 59, 66
4, 9552, Note_on_c, 1, 52, 66
4, 9597, Note_on_c, 1, 59, 0
4, 9597, Note_on_c, 1, 52, 0
4, 9600, Note_on_c, 1, 57, 66
4, 9600, Note_on_c, 1, 45, 66
4, 9689, Note_on_c, 1, 57, 0
4, 9689, Note_on_c, 1, 45, 0
4, 9840, Note_on_c, 1, 54, 66
4, 9840, Note_on_c, 1, 50, 66
4, 9860, Note_on_c, 1, 54, 0
4, 9860, Note_on_c, 1, 50, 0
4, 9888, Note_on_c, 1, 54, 66
4, 9888, Note_on_c, 1, 50, 66
4, 9933, Note_on_c, 1, 54, 0
4, 9933, Note_on_c, 1, 50, 0
4, 10032, Note_on_c, 1, 55, 66
4, 10032, Note_on_c, 1, 52, 66
4, 10052, Note_on_c, 1, 55, 0
4, 10052, Note_on_c, 1, 52, 0
4, 10080, Note_on_c, 1, 55, 66
4, 10080, Note_on_c, 1, 52, 66
4, 10125, Note_on_c, 1, 55, 0
4, 10125, Note_on_c, 1, 52, 0
4, 10224, Note_on_c, 1, 61, 66
4, 10224, Note_on_c, 1, 57, 66
4, 10244, Note_on_c, 1, 61, 0
4, 10244, Note_on_c, 1, 57, 0
4, 10272, Note_on_c, 1, 61, 66
4, 10272, Note_on_c, 1, 57, 66
4, 10317, Note_on_c, 1, 61, 0
4, 10317, Note_on_c, 1, 57, 0
4, 10416, Note_on_c, 1, 66, 66
4, 10416, Note_on_c, 1, 62, 66
4, 10436, Note_on_c, 1, 66, 0
4, 10436, Note_on_c, 1, 62, 0
4, 10464, Note_on_c, 1, 66, 66
4, 10464, Note_on_c, 1, 62, 66
4, 10509, Note_on_c, 1, 66, 0
4, 10509, Note_on_c, 1, 62, 0
4, 10608, Note_on_c, 1, 64, 66
4, 10608, Note_on_c, 1, 61, 66
4, 10628, Note_on_c, 1, 64, 0
4, 10628, Note_on_c, 1, 61, 0
4, 10656, Note_on_c, 1, 64, 66
4, 10656, Note_on_c, 1, 61, 66
4, 10701, Note_on_c, 1, 64, 0
4, 10701, Note_on_c, 1, 61, 0
4, 10800, Note_on_c, 1, 66, 66
4, 10800, Note_on_c, 1, 62, 66
4, 10820, Note_on_c, 1, 66, 0
4, 10820, Note_on_c, 1, 62, 0
4, 10848, Note_on_c, 1, 66, 66
4, 10848, Note_on_c, 1, 62, 66
4, 10893, Note_on_c, 1, 66, 0
4, 10893, Note_on_c, 1, 62, 0
4, 10896, Note_on_c, 1, 66, 66
4, 10896, Note_on_c, 1, 62, 66
4, 10941, Note_on_c, 1, 66, 0
4, 10941, Note_on_c, 1, 62, 0
4, 10944, Note_on_c, 1, 61, 66
4, 10944, Note_on_c, 1, 52, 66
4, 10989, Note_on_c, 1, 61, 0
4, 10989, Note_on_c, 1, 52, 0
4, 10992, Note_on_c, 1, 61, 66
4, 10992, Note_on_c, 1, 52, 66
4, 11037, Note_on_c, 1, 61, 0
4, 11037, Note_on_c, 1, 52, 0
4, 11040, Note_on_c, 1, 59, 66
4, 11040, Note_on_c, 1, 52, 66
4, 11085, Note_on_c, 1, 59, 0
4, 11085, Note_on_c, 1, 52, 0
4, 11088, Note_on_c, 1, 59, 66
4, 11088, Note_on_c, 1, 52, 66
4, 11133, Note_on_c, 1, 59, 0
4, 11133, Note_on_c, 1, 52, 0
4, 11136, Note_on_c, 1, 57, 66
4, 11136, Note_on_c, 1, 45, 66
4, 11225, Note_on_c, 1, 57, 0
4, 11225, Note_on_c, 1, 45, 0
4, 11376, Note_on_c, 1, 69, 66
4, 11376, Note_on_c, 1, 66, 66
4, 11396, Note_on_c, 1, 69, 0
4, 11396, Note_on_c, 1, 66, 0
4, 11424, Note_on_c, 1, 69, 66
4, 11424, Note_on_c, 1, 66, 66
4, 11469, Note_on_c, 1, 69, 0
4, 11469, Note_on_c, 1, 66, 0
4, 11568, Note_on_c, 1, 71, 66
4, 11568, Note_on_c, 1, 67, 66
4, 11588, Note_on_c, 1, 71, 0
4, 11588, Note_on_c, 1, 67, 0
4, 11616, Note_on_c, 1, 71, 66
4, 11616, Note_on_c, 1, 67, 66
4, 11661, Note_on_c, 1, 71, 0
4, 11661, Note_on_c, 1, 67, 0
4, 11712, Note_on_c, 1, 69, 66
4, 11712, Note_on_c, 1, 61, 66
4, 11757, Note_on_c, 1, 69, 0
4, 11757, Note_on_c, 1, 61, 0
4, 11760, Note_on_c, 1, 69, 66
4, 11760, Note_on_c, 1, 61, 66
4, 11805, Note_on_c, 1, 69, 0
4, 11805, Note_on_c, 1, 61, 0
4, 11808, Note_on_c, 1, 69, 66
4, 11808, Note_on_c, 1, 62, 66
4, 11853, Note_on_c, 1, 69, 0
4, 11853, Note_on_c, 1, 62, 0
4, 11856, Note_on_c, 1, 69, 66
4, 11856, Note_on_c, 1, 62, 66
4, 11901, Note_on_c, 1, 69, 0
4, 11901, Note_on_c, 1, 62, 0
4, 11904, Note_on_c, 1, 69, 66
4, 11993, Note_on_c, 1, 69, 0
4, 12144, Note_on_c, 1, 50, 82
4, 12144, Note_on_c, 1, 38, 82
4, 12164, Note_on_c, 1, 50, 0
4, 12164, Note_on_c, 1, 38, 0
4, 12192, Note_on_c, 1, 50, 82
4, 12192, Note_on_c, 1, 38, 82
4, 12237, Note_on_c, 1, 50, 0
4, 12237, Note_on_c, 1, 38, 0
4, 12336, Note_on_c, 1, 57, 82
4, 12336, Note_on_c, 1, 45, 82
4, 12356, Note_on_c, 1, 57, 0
4, 12356, Note_on_c, 1, 45, 0
4, 12384, Note_on_c, 1, 57, 82
4, 12384, Note_on_c, 1, 45, 82
4, 12429, Note_on_c, 1, 57, 0
4, 12429, Note_on_c, 1, 45, 0
4, 12528, Note_on_c, 1, 57, 82
4, 12528, Note_on_c, 1, 45, 82
4, 12548, Note_on_c, 1, 57, 0
4, 12548, Note_on_c, 1, 45, 0
4, 12576, Note_on_c, 1, 57, 82
4, 12576, Note_on_c, 1, 45, 82
4, 12621, Note_on_c, 1, 57, 0
4, 12621, Note_on_c, 1, 45, 0
4, 12720, Note_on_c, 1, 62, 82
4, 12720, Note_on_c, 1, 50, 82
4, 12740, Note_on_c, 1, 62, 0
4, 12740, Note_on_c, 1, 50, 0
4, 12768, Note_on_c, 1, 62, 82
4, 12768, Note_on_c, 1, 50, 82
4, 12813, Note_on_c, 1, 62, 0
4, 12813, Note_on_c, 1, 50, 0
4, 12912, Note_on_c, 1, 66, 76
4, 12912, Note_on_c, 1, 62, 76
4, 12912, Note_on_c, 1, 60, 76
4, 12932, Note_on_c, 1, 66, 0
4, 12932, Note_on_c, 1, 62, 0
4, 12932, Note_on_c, 1, 60, 0
4, 12960, Note_on_c, 1, 66, 76
4, 12960, Note_on_c, 1, 62, 76
4, 12960, Note_on_c, 1, 60, 76
4, 13005, Note_on_c, 1, 66, 0
4, 13005, Note_on_c, 1, 62, 0
4, 13005, Note_on_c, 1, 60, 0
4, 13104, Note_on_c, 1, 67, 76
4, 13104, Note_on_c, 1, 62, 76
4, 13104, Note_on_c, 1, 59, 76
4, 13149, Note_on_c, 1, 67, 0
4, 13149, Note_on_c, 1, 62, 0
4, 13149, Note_on_c, 1, 59, 0
4, 13152, Note_on_c, 1, 67, 76
4, 13152, Note_on_c, 1, 62, 76
4, 13152, Note_on_c, 1, 59, 76
4, 13197, Note_on_c, 1, 67, 0
4, 13197, Note_on_c, 1, 62, 0
4, 13197, Note_on_c, 1, 59, 0
4, 13296, Note_on_c, 1, 66, 76
4, 13296, Note_on_c, 1, 57, 76
4, 13341, Note_on_c, 1, 66, 0
4, 13341, Note_on_c, 1, 57, 0
4, 13344, Note_on_c, 1, 66, 74
4, 13344, Note_on_c, 1, 57, 74
4, 13389, Note_on_c, 1, 66, 0
4, 13389, Note_on_c, 1, 57, 0
4, 13392, Note_on_c, 1, 64, 72
4, 13392, Note_on_c, 1, 57, 72
4, 13437, Note_on_c, 1, 64, 0
4, 13437, Note_on_c, 1, 57, 0
4, 13440, Note_on_c, 1, 62, 70
4, 13440, Note_on_c, 1, 50, 70
4, 13529, Note_on_c, 1, 62, 0
4, 13529, Note_on_c, 1, 50, 0
4, 13680, Note_on_c, 1, 69, 66
4, 13680, Note_on_c, 1, 66, 66
4, 13700, Note_on_c, 1, 69, 0
4, 13700, Note_on_c, 1, 66, 0
4, 13728, Note_on_c, 1, 69, 66
4, 13728, Note_on_c, 1, 66, 66
4, 13773, Note_on_c, 1, 69, 0
4, 13773, Note_on_c, 1, 66, 0
4, 13872, Note_on_c, 1, 71, 66
4, 13872, Note_on_c, 1, 67, 66
4, 13892, Note_on_c, 1, 71, 0
4, 13892, Note_on_c, 1, 67, 0
4, 13920, Note_on_c, 1, 71, 66
4, 13920, Note_on_c, 1, 67, 66
4, 13965, Note_on_c, 1, 71, 0
4, 13965, Note_on_c, 1, 67, 0
4, 14016, Note_on_c, 1, 69, 66
4, 14016, Note_on_c, 1, 61, 66
4, 14061, Note_on_c, 1, 69, 0
4, 14061, Note_on_c, 1, 61, 0
4, 14064, Note_on_c, 1, 69, 66
4, 14064, Note_on_c, 1, 61, 66
4, 14109, Note_on_c, 1, 69, 0
4, 14109, Note_on_c, 1, 61, 0
4, 14112, Note_on_c, 1, 69, 66
4, 14112, Note_on_c, 1, 62, 66
4, 14157, Note_on_c, 1, 69, 0
4, 14157, Note_on_c, 1, 62, 0
4, 14160, Note_on_c, 1, 69, 66
4, 14160, Note_on_c, 1, 62, 66
4, 14205, Note_on_c, 1, 69, 0
4, 14205, Note_on_c, 1, 62, 0
4, 14208, Note_on_c, 1, 69, 66
4, 14297, Note_on_c, 1, 69, 0
4, 14448, Note_on_c, 1, 50, 82
4, 14448, Note_on_c, 1, 38, 82
4, 14468, Note_on_c, 1, 50, 0
4, 14468, Note_on_c, 1, 38, 0
4, 14496, Note_on_c, 1, 50, 82
4, 14496, Note_on_c, 1, 38, 82
4, 14541, Note_on_c, 1, 50, 0
4, 14541, Note_on_c, 1, 38, 0
4, 14640, Note_on_c, 1, 57, 82
4, 14640, Note_on_c, 1, 45, 82
4, 14660, Note_on_c, 1, 57, 0
4, 14660, Note_on_c, 1, 45, 0
4, 14688, Note_on_c, 1, 57, 82
4, 14688, Note_on_c, 1, 45, 82
4, 14733, Note_on_c, 1, 57, 0
4, 14733, Note_on_c, 1, 45, 0
4, 14832, Note_on_c, 1, 57, 82
4, 14832, Note_on_c, 1, 45, 82
4, 14852, Note_on_c, 1, 57, 0
4, 14852, Note_on_c, 1, 45, 0
4, 14880, Note_on_c, 1, 57, 82
4, 14880, Note_on_c, 1, 45, 82
4, 14925, Note_on_c, 1, 57, 0
4, 14925, Note_on_c, 1, 45, 0
4, 15024, Note_on_c, 1, 62, 82
4, 15024, Note_on_c, 1, 50, 82
4, 15044, Note_on_c, 1, 62, 0
4, 15044, Note_on_c, 1, 50, 0
4, 15072, Note_on_c, 1, 62, 82
4, 15072, Note_on_c, 1, 50, 82
4, 15117, Note_on_c, 1, 62, 0
4, 15117, Note_on_c, 1, 50, 0
4, 15216, Note_on_c, 1, 66, 76
4, 15216, Note_on_c, 1, 62, 76
4, 15216, Note_on_c, 1, 60, 76
4, 15236, Note_on_c, 1, 66, 0
4, 15236, Note_on_c, 1, 62, 0
4, 15236, Note_on_c, 1, 60, 0
4, 15264, Note_on_c, 1, 66, 76
4, 15264, Note_on_c, 1, 62, 76
4, 15264, Note_on_c, 1, 60, 76
4, 15309, Note_on_c, 1, 66, 0
4, 15309, Note_on_c, 1, 62, 0
4, 15309, Note_on_c, 1, 60, 0
4, 15408, Note_on_c, 1, 67, 76
4, 15408, Note_on_c, 1, 62, 76
4, 15408, Note_on_c, 1, 59, 76
4, 15453, Note_on_c, 1, 67, 0
4, 15453, Note_on_c, 1, 62, 0
4, 15453, Note_on_c, 1, 59, 0
4, 15456, Note_on_c, 1, 67, 76
4, 15456, Note_on_c, 1, 62, 76
4, 15456, Note_on_c, 1, 59, 76
4, 15501, Note_on_c, 1, 67, 0
4, 15501, Note_on_c, 1, 62, 0
4, 15501, Note_on_c, 1, 59, 0
4, 15600, Note_on_c, 1, 66, 76
4, 15600, Note_on_c, 1, 57, 76
4, 15645, Note_on_c, 1, 66, 0
4, 15645, Note_on_c, 1, 57, 0
4, 15648, Note_on_c, 1, 66, 74
4, 15648, Note_on_c, 1, 57, 74
4, 15693, Note_on_c, 1, 66, 0
4, 15693, Note_on_c, 1, 57, 0
4, 15696, Note_on_c, 1, 64, 72
4, 15696, Note_on_c, 1, 57, 72
4, 15741, Note_on_c, 1, 64, 0
4, 15741, Note_on_c, 1, 57, 0
4, 15744, Note_on_c, 1, 62, 70
4, 15744, Note_on_c, 1, 50, 70
4, 15833, Note_on_c, 1, 62, 0
4, 15833, Note_on_c, 1, 50, 0
4, 15936, Note_on_c, 1, 57, 70
4, 15936, Note_on_c, 1, 53, 70
4, 15936, Note_on_c, 1, 50, 70
4, 15975, Note_on_c, 1, 57, 0
4, 15975, Note_on_c, 1, 53, 0
4, 15975, Note_on_c, 1, 50, 0
4, 16032, Note_on_c, 1, 49, 70
4, 16032, Note_on_c, 1, 45, 70
4, 16071, Note_on_c, 1, 49, 0
4, 16071, Note_on_c, 1, 45, 0
4, 16128, Note_on_c, 1, 53, 70
4, 16128, Note_on_c, 1, 50, 70
4, 16128, Note_on_c, 1, 46, 70
4, 16167, Note_on_c, 1, 53, 0
4, 16167, Note_on_c, 1, 50, 0
4, 16167, Note_on_c, 1, 46, 0
4, 16272, Note_on_c, 1, 65, 70
4, 16317, Note_on_c, 1, 65, 0
4, 16320, Note_on_c, 1, 67, 70
4, 16464, Note_on_c, 1, 67, 0
4, 16464, Note_on_c, 1, 68, 70
4, 16509, Note_on_c, 1, 68, 0
4, 16512, Note_on_c, 1, 69, 70
4, 16601, Note_on_c, 1, 69, 0
4, 16704, Note_on_c, 1, 60, 70
4, 16704, Note_on_c, 1, 57, 70
4, 16704, Note_on_c, 1, 53, 70
4, 16743, Note_on_c, 1, 60, 0
4, 16743, Note_on_c, 1, 57, 0
4, 16743, Note_on_c, 1, 53, 0
4, 16800, Note_on_c, 1, 52, 70
4, 16800, Note_on_c, 1, 48, 70
4, 16839, Note_on_c, 1, 52, 0
4, 16839, Note_on_c, 1, 48, 0
4, 16896, Note_on_c, 1, 53, 70
4, 16896, Note_on_c, 1, 50, 70
4, 16935, Note_on_c, 1, 53, 0
4, 16935, Note_on_c, 1, 50, 0
4, 17040, Note_on_c, 1, 57, 70
4, 17085, Note_on_c, 1, 57, 0
4, 17088, Note_on_c, 1, 58, 70
4, 17177, Note_on_c, 1, 58, 0
4, 17232, Note_on_c, 1, 60, 70
4, 17277, Note_on_c, 1, 60, 0
4, 17280, Note_on_c, 1, 53, 70
4, 17369, Note_on_c, 1, 53, 0
4, 17472, Note_on_c, 1, 57, 76
4, 17472, Note_on_c, 1, 53, 76
4, 17472, Note_on_c, 1, 50, 76
4, 17511, Note_on_c, 1, 57, 0
4, 17511, Note_on_c, 1, 53, 0
4, 17511, Note_on_c, 1, 50, 0
4, 17568, Note_on_c, 1, 49, 76
4, 17568, Note_on_c, 1, 45, 76
4, 17607, Note_on_c, 1, 49, 0
4, 17607, Note_on_c, 1, 45, 0
4, 17664, Note_on_c, 1, 53, 76
4, 17664, Note_on_c, 1, 50, 76
4, 17664, Note_on_c, 1, 46, 76
4, 17703, Note_on_c, 1, 53, 0
4, 17703, Note_on_c, 1, 50, 0
4, 17703, Note_on_c, 1, 46, 0
4, 17808, Note_on_c, 1, 65, 66
4, 17853, Note_on_c, 1, 65, 0
4, 17856, Note_on_c, 1, 67, 66
4, 18000, Note_on_c, 1, 67, 0
4, 18000, Note_on_c, 1, 68, 66
4, 18045, Note_on_c, 1, 68, 0
4, 18048, Note_on_c, 1, 69, 66
4, 18137, Note_on_c, 1, 69, 0
4, 18240, Note_on_c, 1, 60, 76
4, 18240, Note_on_c, 1, 57, 76
4, 18240, Note_on_c, 1, 53, 76
4, 18279, Note_on_c, 1, 60, 0
4, 18279, Note_on_c, 1, 57, 0
4, 18279, Note_on_c, 1, 53, 0
4, 18336, Note_on_c, 1, 52, 76
4, 18336, Note_on_c, 1, 48, 76
4, 18375, Note_on_c, 1, 52, 0
4, 18375, Note_on_c, 1, 48, 0
4, 18432, Note_on_c, 1, 53, 76
4, 18432, Note_on_c, 1, 50, 76
4, 18471, Note_on_c, 1, 53, 0
4, 18471, Note_on_c, 1, 50, 0
4, 18576, Note_on_c, 1, 57, 66
4, 18621, Note_on_c, 1, 57, 0
4, 18624, Note_on_c, 1, 58, 66
4, 18713, Note_on_c, 1, 58, 0
4, 18768, Note_on_c, 1, 60, 66
4, 18813, Note_on_c, 1, 60, 0
4, 18816, Note_on_c, 1, 53, 66
4, 18905, Note_on_c, 1, 53, 0
4, 19008, Note_on_c, 1, 65, 76
4, 19008, Note_on_c, 1, 60, 76
4, 19008, Note_on_c, 1, 57, 76
4, 19047, Note_on_c, 1, 65, 0
4, 19047, Note_on_c, 1, 60, 0
4, 19047, Note_on_c, 1, 57, 0
4, 19104, Note_on_c, 1, 63, 76
4, 19104, Note_on_c, 1, 58, 76
4, 19104, Note_on_c, 1, 55, 76
4, 19143, Note_on_c, 1, 63, 0
4, 19143, Note_on_c, 1, 58, 0
4, 19143, Note_on_c, 1, 55, 0
4, 19200, Note_on_c, 1, 62, 76
4, 19200, Note_on_c, 1, 57, 76
4, 19200, Note_on_c, 1, 54, 76
4, 19239, Note_on_c, 1, 62, 0
4, 19239, Note_on_c, 1, 57, 0
4, 19239, Note_on_c, 1, 54, 0
4, 19344, Note_on_c, 1, 66, 66
4, 19392, Note_on_c, 1, 66, 0
4, 19392, Note_on_c, 1, 67, 66
4, 19437, Note_on_c, 1, 67, 0
4, 19440, Note_on_c, 1, 69, 67
4, 19488, Note_on_c, 1, 69, 0
4, 19488, Note_on_c, 1, 70, 68
4, 19533, Note_on_c, 1, 70, 0
4, 19536, Note_on_c, 1, 64, 70
4, 19584, Note_on_c, 1, 64, 0
4, 19584, Note_on_c, 1, 65, 71
4, 19629, Note_on_c, 1, 65, 0
4, 19632, Note_on_c, 1, 67, 72
4, 19680, Note_on_c, 1, 67, 0
4, 19680, Note_on_c, 1, 69, 74
4, 19725, Note_on_c, 1, 69, 0
4, 19728, Note_on_c, 1, 65, 75
4, 19776, Note_on_c, 1, 65, 0
4, 19776, Note_on_c, 1, 70, 76
4, 19821, Note_on_c, 1, 70, 0
4, 19824, Note_on_c, 1, 69, 78
4, 19872, Note_on_c, 1, 69, 0
4, 19872, Note_on_c, 1, 67, 79
4, 19917, Note_on_c, 1, 67, 0
4, 19920, Note_on_c, 1, 68, 80
4, 19968, Note_on_c, 1, 68, 0
4, 19968, Note_on_c, 1, 69, 82
4, 20057, Note_on_c, 1, 69, 0
4, 20304, Note_on_c, 1, 57, 82
4, 20328, Note_on_c, 1, 57, 0
4, 20328, Note_on_c, 1, 55, 82
4, 20351, Note_on_c, 1, 55, 0
4, 20352, Note_on_c, 1, 53, 82
4, 20372, Note_on_c, 1, 53, 0
4, 20400, Note_on_c, 1, 53, 82
4, 20424, Note_on_c, 1, 53, 0
4, 20424, Note_on_c, 1, 52, 82
4, 20447, Note_on_c, 1, 52, 0
4, 20448, Note_on_c, 1, 50, 82
4, 20468, Note_on_c, 1, 50, 0
4, 20496, Note_on_c, 1, 50, 82
4, 20520, Note_on_c, 1, 50, 0
4, 20520, Note_on_c, 1, 48, 82
4, 20543, Note_on_c, 1, 48, 0
4, 20544, Note_on_c, 1, 46, 82
4, 20583, Note_on_c, 1, 46, 0
4, 20928, Note_on_c, 1, 45, 82
4, 21017, Note_on_c, 1, 45, 0
4, 21120, Note_on_c, 1, 38, 82
4, 21209, Note_on_c, 1, 38, 0
4, 21312, Note_on_c, 1, 65, 76
4, 21312, Note_on_c, 1, 60, 76
4, 21312, Note_on_c, 1, 57, 76
4, 21351, Note_on_c, 1, 65, 0
4, 21351, Note_on_c, 1, 60, 0
4, 21351, Note_on_c, 1, 57, 0
4, 21408, Note_on_c, 1, 63, 76
4, 21408, Note_on_c, 1, 58, 76
4, 21408, Note_on_c, 1, 55, 76
4, 21447, Note_on_c, 1, 63, 0
4, 21447, Note_on_c, 1, 58, 0
4, 21447, Note_on_c, 1, 55, 0
4, 21504, Note_on_c, 1, 62, 76
4, 21504, Note_on_c, 1, 57, 76
4, 21504, Note_on_c, 1, 54, 76
4, 21543, Note_on_c, 1, 62, 0
4, 21543, Note_on_c, 1, 57, 0
4, 21543, Note_on_c, 1, 54, 0
4, 21648, Note_on_c, 1, 66, 66
4, 21696, Note_on_c, 1, 66, 0
4, 21696, Note_on_c, 1, 67, 66
4, 21741, Note_on_c, 1, 67, 0
4, 21744, Note_on_c, 1, 69, 67
4, 21792, Note_on_c, 1, 69, 0
4, 21792, Note_on_c, 1, 70, 68
4, 21837, Note_on_c, 1, 70, 0
4, 21840, Note_on_c, 1, 64, 70
4, 21888, Note_on_c, 1, 64, 0
4, 21888, Note_on_c, 1, 65, 71
4, 21933, Note_on_c, 1, 65, 0
4, 21936, Note_on_c, 1, 67, 72
4, 21984, Note_on_c, 1, 67, 0
4, 21984, Note_on_c, 1, 69, 74
4, 22029, Note_on_c, 1, 69, 0
4, 22032, Note_on_c, 1, 65, 75
4, 22080, Note_on_c, 1, 65, 0
4, 22080, Note_on_c, 1, 70, 76
4, 22125, Note_on_c, 1, 70, 0
4, 22128, Note_on_c, 1, 69, 78
4, 22176, Note_on_c, 1, 69, 0
4, 22176, Note_on_c, 1, 67, 79
4, 22221, Note_on_c, 1, 67, 0
4, 22224, Note_on_c, 1, 68, 80
4, 22272, Note_on_c, 1, 68, 0
4, 22272, Note_on_c, 1, 69, 82
4, 22361, Note_on_c, 1, 69, 0
4, 22608, Note_on_c, 1, 57, 82
4, 22632, Note_on_c, 1, 57, 0
4, 22632, Note_on_c, 1, 55, 82
4, 22655, Note_on_c, 1, 55, 0
4, 22656, Note_on_c, 1, 53, 82
4, 22676, Note_on_c, 1, 53, 0
4, 22704, Note_on_c, 1, 53, 82
4, 22728, Note_on_c, 1, 53, 0
4, 22728, Note_on_c, 1, 52, 82
4, 22751, Note_on_c, 1, 52, 0
4, 22752, Note_on_c, 1, 50, 82
4, 22772, Note_on_c, 1, 50, 0
4, 22800, Note_on_c, 1, 50, 82
4, 22824, Note_on_c, 1, 50, 0
4, 22824, Note_on_c, 1, 48, 82
4, 22847, Note_on_c, 1, 48, 0
4, 22848, Note_on_c, 1, 46, 82
4, 22887, Note_on_c, 1, 46, 0
4, 23232, Note_on_c, 1, 45, 82
4, 23321, Note_on_c, 1, 45, 0
4, 23424, Note_on_c, 1, 38, 82
4, 23513, Note_on_c, 1, 38, 0
4, 23664, Note_on_c, 1, 54, 66
4, 23664, Note_on_c, 1, 50, 66
4, 23684, Note_on_c, 1, 54, 0
4, 23684, Note_on_c, 1, 50, 0
4, 23712, Note_on_c, 1, 54, 66
4, 23712, Note_on_c, 1, 50, 66
4, 23757, Note_on_c, 1, 54, 0
4, 23757, Note_on_c, 1, 50, 0
4, 23856, Note_on_c, 1, 55, 66
4, 23856, Note_on_c, 1, 52, 66
4, 23876, Note_on_c, 1, 55, 0
4, 23876, Note_on_c, 1, 52, 0
4, 23904, Note_on_c, 1, 55, 66
4, 23904, Note_on_c, 1, 52, 66
4, 23949, Note_on_c, 1, 55, 0
4, 23949, Note_on_c, 1, 52, 0
4, 24048, Note_on_c, 1, 61, 66
4, 24048, Note_on_c, 1, 57, 66
4, 24068, Note_on_c, 1, 61, 0
4, 24068, Note_on_c, 1, 57, 0
4, 24096, Note_on_c, 1, 61, 66
4, 24096, Note_on_c, 1, 57, 66
4, 24141, Note_on_c, 1, 61, 0
4, 24141, Note_on_c, 1, 57, 0
4, 24240, Note_on_c, 1, 66, 66
4, 24240, Note_on_c, 1, 62, 66
4, 24260, Note_on_c, 1, 66, 0
4, 24260, Note_on_c, 1, 62, 0
4, 24288, Note_on_c, 1, 66, 66
4, 24288, Note_on_c, 1, 62, 66
4, 24333, Note_on_c, 1, 66, 0
4, 24333, Note_on_c, 1, 62, 0
4, 24432, Note_on_c, 1, 64, 66
4, 24432, Note_on_c, 1, 61, 66
4, 24452, Note_on_c, 1, 64, 0
4, 24452, Note_on_c, 1, 61, 0
4, 24480, Note_on_c, 1, 64, 66
4, 24480, Note_on_c, 1, 61, 66
4, 24525, Note_on_c, 1, 64, 0
4, 24525, Note_on_c, 1, 61, 0
4, 24624, Note_on_c, 1, 66, 66
4, 24624, Note_on_c, 1, 62, 66
4, 24669, Note_on_c, 1, 66, 0
4, 24669, Note_on_c, 1, 62, 0
4, 24672, Note_on_c, 1, 66, 66
4, 24672, Note_on_c, 1, 62, 66
4, 24717, Note_on_c, 1, 66, 0
4, 24717, Note_on_c, 1, 62, 0
4, 24720, Note_on_c, 1, 66, 66
4, 24720, Note_on_c, 1, 62, 66
4, 24765, Note_on_c, 1, 66, 0
4, 24765, Note_on_c, 1, 62, 0
4, 24768, Note_on_c, 1, 61, 66
4, 24768, Note_on_c, 1, 52, 66
4, 24813, Note_on_c, 1, 61, 0
4, 24813, Note_on_c, 1, 52, 0
4, 24816, Note_on_c, 1, 61, 66
4, 24816, Note_on_c, 1, 52, 66
4, 24861, Note_on_c, 1, 61, 0
4, 24861, Note_on_c, 1, 52, 0
4, 24864, Note_on_c, 1, 59, 66
4, 24864, Note_on_c, 1, 52, 66
4, 24909, Note_on_c, 1, 59, 0
4, 24909, Note_on_c, 1, 52, 0
4, 24912, Note_on_c, 1, 59, 66
4, 24912, Note_on_c, 1, 52, 66
4, 24957, Note_on_c, 1, 59, 0
4, 24957, Note_on_c, 1, 52, 0
4, 24960, Note_on_c, 1, 57, 66
4, 24960, Note_on_c, 1, 45, 66
4, 25049, Note_on_c, 1, 57, 0
4, 25049, Note_on_c, 1, 45, 0
4, 25200, Note_on_c, 1, 54, 66
4, 25200, Note_on_c, 1, 50, 66
4, 25220, Note_on_c, 1, 54, 0
4, 25220, Note_on_c, 1, 50, 0
4, 25248, Note_on_c, 1, 54, 66
4, 25248, Note_on_c, 1, 50, 66
4, 25293, Note_on_c, 1, 54, 0
4, 25293, Note_on_c, 1, 50, 0
4, 25392, Note_on_c, 1, 55, 66
4, 25392, Note_on_c, 1, 52, 66
4, 25412, Note_on_c, 1, 55, 0
4, 25412, Note_on_c, 1, 52, 0
4, 25440, Note_on_c, 1, 55, 66
4, 25440, Note_on_c, 1, 52, 66
4, 25485, Note_on_c, 1, 55, 0
4, 25485, Note_on_c, 1, 52, 0
4, 25584, Note_on_c, 1, 61, 66
4, 25584, Note_on_c, 1, 57, 66
4, 25604, Note_on_c, 1, 61, 0
4, 25604, Note_on_c, 1, 57, 0
4, 25632, Note_on_c, 1, 61, 66
4, 25632, Note_on_c, 1, 57, 66
4, 25677, Note_on_c, 1, 61, 0
4, 25677, Note_on_c, 1, 57, 0
4, 25776, Note_on_c, 1, 66, 66
4, 25776, Note_on_c, 1, 62, 66
4, 25796, Note_on_c, 1, 66, 0
4, 25796, Note_on_c, 1, 62, 0
4, 25824, Note_on_c, 1, 66, 66
4, 25824, Note_on_c, 1, 62, 66
4, 25869, Note_on_c, 1, 66, 0
4, 25869, Note_on_c, 1, 62, 0
4, 25968, Note_on_c, 1, 64, 66
4, 25968, Note_on_c, 1, 61, 66
4, 25988, Note_on_c, 1, 64, 0
4, 25988, Note_on_c, 1, 61, 0
4, 26016, Note_on_c, 1, 64, 66
4, 26016, Note_on_c, 1, 61, 66
4, 26061, Note_on_c, 1, 64, 0
4, 26061, Note_on_c, 1, 61, 0
4, 26160, Note_on_c, 1, 66, 66
4, 26160, Note_on_c, 1, 62, 66
4, 26205, Note_on_c, 1, 66, 0
4, 26205, Note_on_c, 1, 62, 0
4, 26208, Note_on_c, 1, 66, 66
4, 26208, Note_on_c, 1, 62, 66
4, 26253, Note_on_c, 1, 66, 0
4, 26253, Note_on_c, 1, 62, 0
4, 26256, Note_on_c, 1, 66, 66
4, 26256, Note_on_c, 1, 62, 66
4, 26301, Note_on_c, 1, 66, 0
4, 26301, Note_on_c, 1, 62, 0
4, 26304, Note_on_c, 1, 61, 66
4, 26304, Note_on_c, 1, 52, 66
4, 26349, Note_on_c, 1, 61, 0
4, 26349, Note_on_c, 1, 52, 0
4, 26352, Note_on_c, 1, 61, 66
4, 26352, Note_on_c, 1, 52, 66
4, 26397, Note_on_c, 1, 61, 0
4, 26397, Note_on_c, 1, 52, 0
4, 26400, Note_on_c, 1, 59, 66
4, 26400, Note_on_c, 1, 52, 66
4, 26445, Note_on_c, 1, 59, 0
4, 26445, Note_on_c, 1, 52, 0
4, 26448, Note_on_c, 1, 59, 66
4, 26448, Note_on_c, 1, 52, 66
4, 26493, Note_on_c, 1, 59, 0
4, 26493, Note_on_c, 1, 52, 0
4, 26496, Note_on_c, 1, 57, 66
4, 26496, Note_on_c, 1, 45, 66
4, 26585, Note_on_c, 1, 57, 0
4, 26585, Note_on_c, 1, 45, 0
4, 26736, Note_on_c, 1, 69, 66
4, 26736, Note_on_c, 1, 66, 66
4, 26756, Note_on_c, 1, 69, 0
4, 26756, Note_on_c, 1, 66, 0
4, 26784, Note_on_c, 1, 69, 66
4, 26784, Note_on_c, 1, 66, 66
4, 26829, Note_on_c, 1, 69, 0
4, 26829, Note_on_c, 1, 66, 0
4, 26928, Note_on_c, 1, 71, 66
4, 26928, Note_on_c, 1, 67, 66
4, 26948, Note_on_c, 1, 71, 0
4, 26948, Note_on_c, 1, 67, 0
4, 26976, Note_on_c, 1, 71, 66
4, 26976, Note_on_c, 1, 67, 66
4, 27021, Note_on_c, 1, 71, 0
4, 27021, Note_on_c, 1, 67, 0
4, 27072, Note_on_c, 1, 69, 66
4, 27072, Note_on_c, 1, 61, 66
4, 27117, Note_on_c, 1, 69, 0
4, 27117, Note_on_c, 1, 61, 0
4, 27120, Note_on_c, 1, 69, 66
4, 27120, Note_on_c, 1, 61, 66
4, 27165, Note_on_c, 1, 69, 0
4, 27165, Note_on_c, 1, 61, 0
4, 27168, Note_on_c, 1, 69, 66
4, 27168, Note_on_c, 1, 62, 66
4, 27213, Note_on_c, 1, 69, 0
4, 27213, Note_on_c, 1, 62, 0
4, 27216, Note_on_c, 1, 69, 66
4, 27216, Note_on_c, 1, 62, 66
4, 27261, Note_on_c, 1, 69, 0
4, 27261, Note_on_c, 1, 62, 0
4, 27264, Note_on_c, 1, 69, 66
4, 27353, Note_on_c, 1, 69, 0
4, 27504, Note_on_c, 1, 50, 82
4, 27504, Note_on_c, 1, 38, 82
4, 27524, Note_on_c, 1, 50, 0
4, 27524, Note_on_c, 1, 38, 0
4, 27552, Note_on_c, 1, 50, 82
4, 27552, Note_on_c, 1, 38, 82
4, 27597, Note_on_c, 1, 50, 0
4, 27597, Note_on_c, 1, 38, 0
4, 27696, Note_on_c, 1, 57, 82
4, 27696, Note_on_c, 1, 45, 82
4, 27716, Note_on_c, 1, 57, 0
4, 27716, Note_on_c, 1, 45, 0
4, 27744, Note_on_c, 1, 57, 82
4, 27744, Note_on_c, 1, 45, 82
4, 27789, Note_on_c, 1, 57, 0
4, 27789, Note_on_c, 1, 45, 0
4, 27888, Note_on_c, 1, 57, 82
4, 27888, Note_on_c, 1, 45, 82
4, 27908, Note_on_c, 1, 57, 0
4, 27908, Note_on_c, 1, 45, 0
4, 27936, Note_on_c, 1, 57, 82
4, 27936, Note_on_c, 1, 45, 82
4, 27981, Note_on_c, 1, 57, 0
4, 27981, Note_on_c, 1, 45, 0
4, 28080, Note_on_c, 1, 62, 82
4, 28080, Note_on_c, 1, 50, 82
4, 28100, Note_on_c, 1, 62, 0
4, 28100, Note_on_c, 1, 50, 0
4, 28128, Note_on_c, 1, 62, 82
4, 28128, Note_on_c, 1, 50, 82
4, 28173, Note_on_c, 1, 62, 0
4, 28173, Note_on_c, 1, 50, 0
4, 28272, Note_on_c, 1, 66, 76
4, 28272, Note_on_c, 1, 62, 76
4, 28272, Note_on_c, 1, 60, 76
4, 28292, Note_on_c, 1, 66, 0
4, 28292, Note_on_c, 1, 62, 0
4, 28292, Note_on_c, 1, 60, 0
4, 28320, Note_on_c, 1, 66, 76
4, 28320, Note_on_c, 1, 62, 76
4, 28320, Note_on_c, 1, 60, 76
4, 28365, Note_on_c, 1, 66, 0
4, 28365, Note_on_c, 1, 62, 0
4, 28365, Note_on_c, 1, 60, 0
4, 28464, Note_on_c, 1, 67, 76
4, 28464, Note_on_c, 1, 62, 76
4, 28464, Note_on_c, 1, 59, 76
4, 28509, Note_on_c, 1, 67, 0
4, 28509, Note_on_c, 1, 62, 0
4, 28509, Note_on_c, 1, 59, 0
4, 28512, Note_on_c, 1, 67, 76
4, 28512, Note_on_c, 1, 62, 76
4, 28512, Note_on_c, 1, 59, 76
4, 28557, Note_on_c, 1, 67, 0
4, 28557, Note_on_c, 1, 62, 0
4, 28557, Note_on_c, 1, 59, 0
4, 28656, Note_on_c, 1, 66, 76
4, 28656, Note_on_c, 1, 57, 76
4, 28701, Note_on_c, 1, 66, 0
4, 28701, Note_on_c, 1, 57, 0
4, 28704, Note_on_c, 1, 66, 76
4, 28704, Note_on_c, 1, 57, 76
4, 28749, Note_on_c, 1, 66, 0
4, 28749, Note_on_c, 1, 57, 0
4, 28752, Note_on_c, 1, 64, 76
4, 28752, Note_on_c, 1, 57, 76
4, 28797, Note_on_c, 1, 64, 0
4, 28797, Note_on_c, 1, 57, 0
4, 28800, Note_on_c, 1, 62, 76
4, 28800, Note_on_c, 1, 50, 76
4, 28889, Note_on_c, 1, 62, 0
4, 28889, Note_on_c, 1, 50, 0
4, 29040, Note_on_c, 1, 69, 66
4, 29040, Note_on_c, 1, 66, 66
4, 29060, Note_on_c, 1, 69, 0
4, 29060, Note_on_c, 1, 66, 0
4, 29088, Note_on_c, 1, 69, 66
4, 29088, Note_on_c, 1, 66, 66
4, 29133, Note_on_c, 1, 69, 0
4, 29133, Note_on_c, 1, 66, 0
4, 29232, Note_on_c, 1, 71, 66
4, 29232, Note_on_c, 1, 67, 66
4, 29252, Note_on_c, 1, 71, 0
4, 29252, Note_on_c, 1, 67, 0
4, 29280, Note_on_c, 1, 71, 66
4, 29280, Note_on_c, 1, 67, 66
4, 29325, Note_on_c, 1, 71, 0
4, 29325, Note_on_c, 1, 67, 0
4, 29376, Note_on_c, 1, 69, 66
4, 29376, Note_on_c, 1, 61, 66
4, 29421, Note_on_c, 1, 69, 0
4, 29421, Note_on_c, 1, 61, 0
4, 29424, Note_on_c, 1, 69, 66
4, 29424, Note_on_c, 1, 61, 66
4, 29469, Note_on_c, 1, 69, 0
4, 29469, Note_on_c, 1, 61, 0
4, 29472, Note_on_c, 1, 69, 66
4, 29472, Note_on_c, 1, 62, 66
4, 29517, Note_on_c, 1, 69, 0
4, 29517, Note_on_c, 1, 62, 0
4, 29520, Note_on_c, 1, 69, 66
4, 29520, Note_on_c, 1, 62, 66
4, 29565, Note_on_c, 1, 69, 0
4, 29565, Note_on_c, 1, 62, 0
4, 29568, Note_on_c, 1, 69, 66
4, 29657, Note_on_c, 1, 69, 0
4, 29808, Note_on_c, 1, 50, 82
4, 29808, Note_on_c, 1, 38, 82
4, 29828, Note_on_c, 1, 50, 0
4, 29828, Note_on_c, 1, 38, 0
4, 29856, Note_on_c, 1, 50, 82
4, 29856, Note_on_c, 1, 38, 82
4, 29901, Note_on_c, 1, 50, 0
4, 29901, Note_on_c, 1, 38, 0
4, 30000, Note_on_c, 1, 57, 82
4, 30000, Note_on_c, 1, 45, 82
4, 30020, Note_on_c, 1, 57, 0
4, 30020, Note_on_c, 1, 45, 0
4, 30048, Note_on_c, 1, 57, 82
4, 30048, Note_on_c, 1, 45, 82
4, 30093, Note_on_c, 1, 57, 0
4, 30093, Note_on_c, 1, 45, 0
4, 30192, Note_on_c, 1, 57, 82
4, 30192, Note_on_c, 1, 45, 82
4, 30212, Note_on_c, 1, 57, 0
4, 30212, Note_on_c, 1, 45, 0
4, 30240, Note_on_c, 1, 57, 82
4, 30240, Note_on_c, 1, 45, 82
4, 30285, Note_on_c, 1, 57, 0
4, 30285, Note_on_c, 1, 45, 0
4, 30384, Note_on_c, 1, 62, 82
4, 30384, Note_on_c, 1, 50, 82
4, 30404, Note_on_c, 1, 62, 0
4, 30404, Note_on_c, 1, 50, 0
4, 30432, Note_on_c, 1, 62, 82
4, 30432, Note_on_c, 1, 50, 82
4, 30477, Note_on_c, 1, 62, 0
4, 30477, Note_on_c, 1, 50, 0
4, 30576, Note_on_c, 1, 66, 76
4, 30576, Note_on_c, 1, 62, 76
4, 30576, Note_on_c, 1, 60, 76
4, 30596, Note_on_c, 1, 66, 0
4, 30596, Note_on_c, 1, 62, 0
4, 30596, Note_on_c, 1, 60, 0
4, 30624, Note_on_c, 1, 66, 76
4, 30624, Note_on_c, 1, 62, 76
4, 30624, Note_on_c, 1, 60, 76
4, 30669, Note_on_c, 1, 66, 0
4, 30669, Note_on_c, 1, 62, 0
4, 30669, Note_on_c, 1, 60, 0
4, 30768, Note_on_c, 1, 67, 76
4, 30768, Note_on_c, 1, 62, 76
4, 30768, Note_on_c, 1, 59, 76
4, 30813, Note_on_c, 1, 67, 0
4, 30813, Note_on_c, 1, 62, 0
4, 30813, Note_on_c, 1, 59, 0
4, 30816, Note_on_c, 1, 67, 76
4, 30816, Note_on_c, 1, 62, 76
4, 30816, Note_on_c, 1, 59, 76
4, 30861, Note_on_c, 1, 67, 0
4, 30861, Note_on_c, 1, 62, 0
4, 30861, Note_on_c, 1, 59, 0
4, 30960, Note_on_c, 1, 66, 76
4, 30960, Note_on_c, 1, 57, 76
4, 31005, Note_on_c, 1, 66, 0
4, 31005, Note_on_c, 1, 57, 0
4, 31008, Note_on_c, 1, 66, 76
4, 31008, Note_on_c, 1, 57, 76
4, 31053, Note_on_c, 1, 66, 0
4, 31053, Note_on_c, 1, 57, 0
4, 31056, Note_on_c, 1, 64, 76
4, 31056, Note_on_c, 1, 57, 76
4, 31101, Note_on_c, 1, 64, 0
4, 31101, Note_on_c, 1, 57, 0
4, 31104, Note_on_c, 1, 62, 76
4, 31104, Note_on_c, 1, 50, 76
4, 31193, Note_on_c, 1, 62, 0
4, 31193, Note_on_c, 1, 50, 0
4, 31296, Note_on_c, 1, 71, 70
4, 31296, Note_on_c, 1, 67, 70
4, 31385, Note_on_c, 1, 71, 0
4, 31385, Note_on_c, 1, 67, 0
4, 31440, Note_on_c, 1, 71, 70
4, 31440, Note_on_c, 1, 67, 70
4, 31485, Note_on_c, 1, 71, 0
4, 31485, Note_on_c, 1, 67, 0
4, 31488, Note_on_c, 1, 69, 70
4, 31488, Note_on_c, 1, 62, 70
4, 31577, Note_on_c, 1, 69, 0
4, 31577, Note_on_c, 1, 62, 0
4, 31632, Note_on_c, 1, 69, 70
4, 31632, Note_on_c, 1, 62, 70
4, 31677, Note_on_c, 1, 69, 0
4, 31677, Note_on_c, 1, 62, 0
4, 31680, Note_on_c, 1, 71, 70
4, 31680, Note_on_c, 1, 67, 70
4, 31725, Note_on_c, 1, 71, 0
4, 31725, Note_on_c, 1, 67, 0
4, 31776, Note_on_c, 1, 60, 70
4, 31821, Note_on_c, 1, 60, 0
4, 31872, Note_on_c, 1, 62, 70
4, 31961, Note_on_c, 1, 62, 0
4, 32064, Note_on_c, 1, 71, 70
4, 32064, Note_on_c, 1, 67, 70
4, 32153, Note_on_c, 1, 71, 0
4, 32153, Note_on_c, 1, 67, 0
4, 32208, Note_on_c, 1, 71, 70
4, 32208, Note_on_c, 1, 67, 70
4, 32253, Note_on_c, 1, 71, 0
4, 32253, Note_on_c, 1, 67, 0
4, 32256, Note_on_c, 1, 69, 70
4, 32256, Note_on_c, 1, 62, 70
4, 32345, Note_on_c, 1, 69, 0
4, 32345, Note_on_c, 1, 62, 0
4, 32400, Note_on_c, 1, 69, 70
4, 32400, Note_on_c, 1, 62, 70
4, 32445, Note_on_c, 1, 69, 0
4, 32445, Note_on_c, 1, 62, 0
4, 32448, Note_on_c, 1, 71, 70
4, 32448, Note_on_c, 1, 67, 70
4, 32493, Note_on_c, 1, 71, 0
4, 32493, Note_on_c, 1, 67, 0
4, 32544, Note_on_c, 1, 62, 70
4, 32589, Note_on_c, 1, 62, 0
4, 32640, Note_on_c, 1, 55, 70
4, 32729, Note_on_c, 1, 55, 0
4, 32832, Note_on_c, 1, 71, 70
4, 32832, Note_on_c, 1, 67, 70
4, 32921, Note_on_c, 1, 71, 0
4, 32921, Note_on_c, 1, 67, 0
4, 32976, Note_on_c, 1, 71, 70
4, 32976, Note_on_c, 1, 67, 70
4, 33021, Note_on_c, 1, 71, 0
4, 33021, Note_on_c, 1, 67, 0
4, 33024, Note_on_c, 1, 69, 70
4, 33024, Note_on_c, 1, 62, 70
4, 33113, Note_on_c, 1, 69, 0
4, 33113, Note_on_c, 1, 62, 0
4, 33168, Note_on_c, 1, 69, 70
4, 33168, Note_on_c, 1, 62, 70
4, 33213, Note_on_c, 1, 69, 0
4, 33213, Note_on_c, 1, 62, 0
4, 33216, Note_on_c, 1, 71, 70
4, 33216, Note_on_c, 1, 67, 70
4, 33261, Note_on_c, 1, 71, 0
4, 33261, Note_on_c, 1, 67, 0
4, 33312, Note_on_c, 1, 60, 70
4, 33357, Note_on_c, 1, 60, 0
4, 33408, Note_on_c, 1, 62, 70
4, 33497, Note_on_c, 1, 62, 0
4, 33600, Note_on_c, 1, 71, 70
4, 33600, Note_on_c, 1, 67, 70
4, 33689, Note_on_c, 1, 71, 0
4, 33689, Note_on_c, 1, 67, 0
4, 33744, Note_on_c, 1, 71, 70
4, 33744, Note_on_c, 1, 67, 70
4, 33789, Note_on_c, 1, 71, 0
4, 33789, Note_on_c, 1, 67, 0
4, 33792, Note_on_c, 1, 69, 70
4, 33792, Note_on_c, 1, 62, 70
4, 33881, Note_on_c, 1, 69, 0
4, 33881, Note_on_c, 1, 62, 0
4, 33936, Note_on_c, 1, 69, 70
4, 33936, Note_on_c, 1, 62, 70
4, 33981, Note_on_c, 1, 69, 0
4, 33981, Note_on_c, 1, 62, 0
4, 33984, Note_on_c, 1, 71, 70
4, 33984, Note_on_c, 1, 67, 70
4, 34029, Note_on_c, 1, 71, 0
4, 34029, Note_on_c, 1, 67, 0
4, 34080, Note_on_c, 1, 62, 70
4, 34125, Note_on_c, 1, 62, 0
4, 34176, Note_on_c, 1, 55, 70
4, 34265, Note_on_c, 1, 55, 0
4, 34320, Note_on_c, 1, 74, 70
4, 34320, Note_on_c, 1, 67, 70
4, 34365, Note_on_c, 1, 74, 0
4, 34365, Note_on_c, 1, 67, 0
4, 34368, Note_on_c, 1, 74, 70
4, 34368, Note_on_c, 1, 66, 70
4, 34457, Note_on_c, 1, 74, 0
4, 34457, Note_on_c, 1, 66, 0
4, 34512, Note_on_c, 1, 74, 70
4, 34512, Note_on_c, 1, 66, 70
4, 34557, Note_on_c, 1, 74, 0
4, 34557, Note_on_c, 1, 66, 0
4, 34560, Note_on_c, 1, 74, 70
4, 34560, Note_on_c, 1, 67, 70
4, 34649, Note_on_c, 1, 74, 0
4, 34649, Note_on_c, 1, 67, 0
4, 34704, Note_on_c, 1, 67, 70
4, 34749, Note_on_c, 1, 67, 0
4, 34752, Note_on_c, 1, 64, 70
4, 34752, Note_on_c, 1, 60, 70
4, 34797, Note_on_c, 1, 64, 0
4, 34797, Note_on_c, 1, 60, 0
4, 34800, Note_on_c, 1, 64, 71
4, 34800, Note_on_c, 1, 60, 71
4, 34845, Note_on_c, 1, 64, 0
4, 34845, Note_on_c, 1, 60, 0
4, 34848, Note_on_c, 1, 64, 73
4, 34848, Note_on_c, 1, 61, 73
4, 34893, Note_on_c, 1, 64, 0
4, 34893, Note_on_c, 1, 61, 0
4, 34896, Note_on_c, 1, 64, 74
4, 34896, Note_on_c, 1, 61, 74
4, 34941, Note_on_c, 1, 64, 0
4, 34941, Note_on_c, 1, 61, 0
4, 34944, Note_on_c, 1, 62, 76
4, 35033, Note_on_c, 1, 62, 0
4, 35136, Note_on_c, 1, 71, 70
4, 35136, Note_on_c, 1, 67, 70
4, 35225, Note_on_c, 1, 71, 0
4, 35225, Note_on_c, 1, 67, 0
4, 35280, Note_on_c, 1, 71, 70
4, 35280, Note_on_c, 1, 67, 70
4, 35325, Note_on_c, 1, 71, 0
4, 35325, Note_on_c, 1, 67, 0
4, 35328, Note_on_c, 1, 69, 70
4, 35328, Note_on_c, 1, 62, 70
4, 35417, Note_on_c, 1, 69, 0
4, 35417, Note_on_c, 1, 62, 0
4, 35472, Note_on_c, 1, 69, 70
4, 35472, Note_on_c, 1, 62, 70
4, 35517, Note_on_c, 1, 69, 0
4, 35517, Note_on_c, 1, 62, 0
4, 35520, Note_on_c, 1, 71, 70
4, 35520, Note_on_c, 1, 67, 70
4, 35565, Note_on_c, 1, 71, 0
4, 35565, Note_on_c, 1, 67, 0
4, 35616, Note_on_c, 1, 60, 70
4, 35661, Note_on_c, 1, 60, 0
4, 35712, Note_on_c, 1, 62, 70
4, 35801, Note_on_c, 1, 62, 0
4, 35904, Note_on_c, 1, 71, 70
4, 35904, Note_on_c, 1, 67, 70
4, 35993, Note_on_c, 1, 71, 0
4, 35993, Note_on_c, 1, 67, 0
4, 36048, Note_on_c, 1, 71, 70
4, 36048, Note_on_c, 1, 67, 70
4, 36093, Note_on_c, 1, 71, 0
4, 36093, Note_on_c, 1, 67, 0
4, 36096, Note_on_c, 1, 69, 70
4, 36096, Note_on_c, 1, 62, 70
4, 36185, Note_on_c, 1, 69, 0
4, 36185, Note_on_c, 1, 62, 0
4, 36240, Note_on_c, 1, 69, 70
4, 36240, Note_on_c, 1, 62, 70
4, 36285, Note_on_c, 1, 69, 0
4, 36285, Note_on_c, 1, 62, 0
4, 36288, Note_on_c, 1, 71, 70
4, 36288, Note_on_c, 1, 67, 70
4, 36333, Note_on_c, 1, 71, 0
4, 36333, Note_on_c, 1, 67, 0
4, 36384, Note_on_c, 1, 62, 70
4, 36429, Note_on_c, 1, 62, 0
4, 36480, Note_on_c, 1, 55, 70
4, 36569, Note_on_c, 1, 55, 0
4, 36624, Note_on_c, 1, 74, 70
4, 36624, Note_on_c, 1, 67, 70
4, 36669, Note_on_c, 1, 74, 0
4, 36669, Note_on_c, 1, 67, 0
4, 36672, Note_on_c, 1, 74, 70
4, 36672, Note_on_c, 1, 66, 70
4, 36761, Note_on_c, 1, 74, 0
4, 36761, Note_on_c, 1, 66, 0
4, 36816, Note_on_c, 1, 74, 70
4, 36816, Note_on_c, 1, 66, 70
4, 36861, Note_on_c, 1, 74, 0
4, 36861, Note_on_c, 1, 66, 0
4, 36864, Note_on_c, 1, 74, 70
4, 36864, Note_on_c, 1, 67, 70
4, 36953, Note_on_c, 1, 74, 0
4, 36953, Note_on_c, 1, 67, 0
4, 37008, Note_on_c, 1, 67, 70
4, 37053, Note_on_c, 1, 67, 0
4, 37056, Note_on_c, 1, 64, 70
4, 37056, Note_on_c, 1, 60, 70
4, 37101, Note_on_c, 1, 64, 0
4, 37101, Note_on_c, 1, 60, 0
4, 37104, Note_on_c, 1, 64, 71
4, 37104, Note_on_c, 1, 60, 71
4, 37149, Note_on_c, 1, 64, 0
4, 37149, Note_on_c, 1, 60, 0
4, 37152, Note_on_c, 1, 64, 73
4, 37152, Note_on_c, 1, 61, 73
4, 37197, Note_on_c, 1, 64, 0
4, 37197, Note_on_c, 1, 61, 0
4, 37200, Note_on_c, 1, 64, 74
4, 37200, Note_on_c, 1, 61, 74
4, 37245, Note_on_c, 1, 64, 0
4, 37245, Note_on_c, 1, 61, 0
4, 37248, Note_on_c, 1, 62, 76
4, 37337, Note_on_c, 1, 62, 0
4, 37440, Note_on_c, 1, 71, 70
4, 37440, Note_on_c, 1, 67, 70
4, 37529, Note_on_c, 1, 71, 0
4, 37529, Note_on_c, 1, 67, 0
4, 37584, Note_on_c, 1, 71, 70
4, 37584, Note_on_c, 1, 67, 70
4, 37629, Note_on_c, 1, 71, 0
4, 37629, Note_on_c, 1, 67, 0
4, 37632, Note_on_c, 1, 69, 70
4, 37632, Note_on_c, 1, 62, 70
4, 37721, Note_on_c, 1, 69, 0
4, 37721, Note_on_c, 1, 62, 0
4, 37776, Note_on_c, 1, 69, 70
4, 37776, Note_on_c, 1, 62, 70
4, 37821, Note_on_c, 1, 69, 0
4, 37821, Note_on_c, 1, 62, 0
4, 37824, Note_on_c, 1, 71, 70
4, 37824, Note_on_c, 1, 67, 70
4, 37869, Note_on_c, 1, 71, 0
4, 37869, Note_on_c, 1, 67, 0
4, 37920, Note_on_c, 1, 60, 70
4, 37965, Note_on_c, 1, 60, 0
4, 38016, Note_on_c, 1, 62, 70
4, 38105, Note_on_c, 1, 62, 0
4, 38208, Note_on_c, 1, 71, 70
4, 38208, Note_on_c, 1, 67, 70
4, 38297, Note_on_c, 1, 71, 0
4, 38297, Note_on_c, 1, 67, 0
4, 38352, Note_on_c, 1, 71, 70
4, 38352, Note_on_c, 1, 67, 70
4, 38397, Note_on_c, 1, 71, 0
4, 38397, Note_on_c, 1, 67, 0
4, 38400, Note_on_c, 1, 69, 70
4, 38400, Note_on_c, 1, 62, 70
4, 38489, Note_on_c, 1, 69, 0
4, 38489, Note_on_c, 1, 62, 0
4, 38544, Note_on_c, 1, 69, 70
4, 38544, Note_on_c, 1, 62, 70
4, 38589, Note_on_c, 1, 69, 0
4, 38589, Note_on_c, 1, 62, 0
4, 38592, Note_on_c, 1, 71, 70
4, 38592, Note_on_c, 1, 67, 70
4, 38637, Note_on_c, 1, 71, 0
4, 38637, Note_on_c, 1, 67, 0
4, 38688, Note_on_c, 1, 62, 70
4, 38733, Note_on_c, 1, 62, 0
4, 38784, Note_on_c, 1, 55, 70
4, 38873, Note_on_c, 1, 55, 0
4, 39024, Note_on_c, 1, 67, 70
4, 39044, Note_on_c, 1, 67, 0
4, 39120, Note_on_c, 1, 63, 70
4, 39140, Note_on_c, 1, 63, 0
4, 39216, Note_on_c, 1, 64, 70
4, 39261, Note_on_c, 1, 64, 0
4, 39264, Note_on_c, 1, 52, 70
4, 39309, Note_on_c, 1, 52, 0
4, 39408, Note_on_c, 1, 57, 70
4, 39428, Note_on_c, 1, 57, 0
4, 39504, Note_on_c, 1, 61, 70
4, 39524, Note_on_c, 1, 61, 0
4, 39600, Note_on_c, 1, 62, 70
4, 39645, Note_on_c, 1, 62, 0
4, 39648, Note_on_c, 1, 50, 70
4, 39693, Note_on_c, 1, 50, 0
4, 39792, Note_on_c, 1, 68, 70
4, 39792, Note_on_c, 1, 62, 70
4, 39792, Note_on_c, 1, 59, 70
4, 39812, Note_on_c, 1, 68, 0
4, 39812, Note_on_c, 1, 62, 0
4, 39812, Note_on_c, 1, 59, 0
4, 39888, Note_on_c, 1, 68, 70
4, 39888, Note_on_c, 1, 62, 70
4, 39888, Note_on_c, 1, 59, 70
4, 39908, Note_on_c, 1, 68, 0
4, 39908, Note_on_c, 1, 62, 0
4, 39908, Note_on_c, 1, 59, 0
4, 39984, Note_on_c, 1, 68, 70
4, 39984, Note_on_c, 1, 62, 70
4, 39984, Note_on_c, 1, 59, 70
4, 40004, Note_on_c, 1, 68, 0
4, 40004, Note_on_c, 1, 62, 0
4, 40004, Note_on_c, 1, 59, 0
4, 40080, Note_on_c, 1, 68, 70
4, 40080, Note_on_c, 1, 62, 70
4, 40080, Note_on_c, 1, 59, 70
4, 40100, Note_on_c, 1, 68, 0
4, 40100, Note_on_c, 1, 62, 0
4, 40100, Note_on_c, 1, 59, 0
4, 40176, Note_on_c, 1, 69, 70
4, 40176, Note_on_c, 1, 64, 70
4, 40176, Note_on_c, 1, 61, 70
4, 40176, Note_on_c, 1, 57, 70
4, 40196, Note_on_c, 1, 69, 0
4, 40196, Note_on_c, 1, 64, 0
4, 40196, Note_on_c, 1, 61, 0
4, 40196, Note_on_c, 1, 57, 0
4, 40272, Note_on_c, 1, 69, 75
4, 40317, Note_on_c, 1, 69, 0
4, 40368, Note_on_c, 1, 69, 74
4, 40413, Note_on_c, 1, 69, 0
4, 40464, Note_on_c, 1, 69, 74
4, 40509, Note_on_c, 1, 69, 0
4, 40560, Note_on_c, 1, 69, 73
4, 40605, Note_on_c, 1, 69, 0
4, 40656, Note_on_c, 1, 69, 72
4, 40701, Note_on_c, 1, 69, 0
4, 40752, Note_on_c, 1, 69, 71
4, 40797, Note_on_c, 1, 69, 0
4, 40848, Note_on_c, 1, 69, 71
4, 40893, Note_on_c, 1, 69, 0
4, 41040, Note_on_c, 1, 69, 69
4, 41085, Note_on_c, 1, 69, 0
4, 41232, Note_on_c, 1, 69, 67
4, 41277, Note_on_c, 1, 69, 0
4, 41520, Note_on_c, 1, 54, 66
4, 41520, Note_on_c, 1, 50, 66
4, 41540, Note_on_c, 1, 54, 0
4, 41540, Note_on_c, 1, 50, 0
4, 41568, Note_on_c, 1, 54, 66
4, 41568, Note_on_c, 1, 50, 66
4, 41613, Note_on_c, 1, 54, 0
4, 41613, Note_on_c, 1, 50, 0
4, 41712, Note_on_c, 1, 55, 66
4, 41712, Note_on_c, 1, 52, 66
4, 41732, Note_on_c, 1, 55, 0
4, 41732, Note_on_c, 1, 52, 0
4, 41760, Note_on_c, 1, 55, 66
4, 41760, Note_on_c, 1, 52, 66
4, 41805, Note_on_c, 1, 55, 0
4, 41805, Note_on_c, 1, 52, 0
4, 41904, Note_on_c, 1, 61, 66
4, 41904, Note_on_c, 1, 57, 66
4, 41924, Note_on_c, 1, 61, 0
4, 41924, Note_on_c, 1, 57, 0
4, 41952, Note_on_c, 1, 61, 66
4, 41952, Note_on_c, 1, 57, 66
4, 41997, Note_on_c, 1, 61, 0
4, 41997, Note_on_c, 1, 57, 0
4, 42096, Note_on_c, 1, 66, 66
4, 42096, Note_on_c, 1, 62, 66
4, 42116, Note_on_c, 1, 66, 0
4, 42116, Note_on_c, 1, 62, 0
4, 42144, Note_on_c, 1, 66, 66
4, 42144, Note_on_c, 1, 62, 66
4, 42189, Note_on_c, 1, 66, 0
4, 42189, Note_on_c, 1, 62, 0
4, 42288, Note_on_c, 1, 64, 66
4, 42288, Note_on_c, 1, 61, 66
4, 42308, Note_on_c, 1, 64, 0
4, 42308, Note_on_c, 1, 61, 0
4, 42336, Note_on_c, 1, 64, 66
4, 42336, Note_on_c, 1, 61, 66
4, 42381, Note_on_c, 1, 64, 0
4, 42381, Note_on_c, 1, 61, 0
4, 42480, Note_on_c, 1, 66, 66
4, 42480, Note_on_c, 1, 62, 66
4, 42525, Note_on_c, 1, 66, 0
4, 42525, Note_on_c, 1, 62, 0
4, 42528, Note_on_c, 1, 66, 66
4, 42528, Note_on_c, 1, 62, 66
4, 42573, Note_on_c, 1, 66, 0
4, 42573, Note_on_c, 1, 62, 0
4, 42576, Note_on_c, 1, 66, 66
4, 42576, Note_on_c, 1, 62, 66
4, 42621, Note_on_c, 1, 66, 0
4, 42621, Note_on_c, 1, 62, 0
4, 42624, Note_on_c, 1, 61, 66
4, 42624, Note_on_c, 1, 52, 66
4, 42669, Note_on_c, 1, 61, 0
4, 42669, Note_on_c, 1, 52, 0
4, 42672, Note_on_c, 1, 61, 66
4, 42672, Note_on_c, 1, 52, 66
4, 42717, Note_on_c, 1, 61, 0
4, 42717, Note_on_c, 1, 52, 0
4, 42720, Note_on_c, 1, 59, 66
4, 42720, Note_on_c, 1, 52, 66
4, 42765, Note_on_c, 1, 59, 0
4, 42765, Note_on_c, 1, 52, 0
4, 42768, Note_on_c, 1, 59, 66
4, 42768, Note_on_c, 1, 52, 66
4, 42813, Note_on_c, 1, 59, 0
4, 42813, Note_on_c, 1, 52, 0
4, 42816, Note_on_c, 1, 57, 66
4, 42816, Note_on_c, 1, 45, 66
4, 42905, Note_on_c, 1, 57, 0
4, 42905, Note_on_c, 1, 45, 0
4, 43008, Note_on_c, 1, 50, 70
4, 43031, Note_on_c, 1, 50, 0
4, 43032, Note_on_c, 1, 57, 70
4, 43055, Note_on_c, 1, 57, 0
4, 43056, Note_on_c, 1, 54, 70
4, 43079, Note_on_c, 1, 54, 0
4, 43080, Note_on_c, 1, 57, 70
4, 43103, Note_on_c, 1, 57, 0
4, 43104, Note_on_c, 1, 50, 70
4, 43127, Note_on_c, 1, 50, 0
4, 43128, Note_on_c, 1, 57, 70
4, 43151, Note_on_c, 1, 57, 0
4, 43152, Note_on_c, 1, 54, 70
4, 43175, Note_on_c, 1, 54, 0
4, 43176, Note_on_c, 1, 57, 70
4, 43199, Note_on_c, 1, 57, 0
4, 43200, Note_on_c, 1, 52, 70
4, 43223, Note_on_c, 1, 52, 0
4, 43224, Note_on_c, 1, 57, 70
4, 43247, Note_on_c, 1, 57, 0
4, 43248, Note_on_c, 1, 55, 70
4, 43271, Note_on_c, 1, 55, 0
4, 43272, Note_on_c, 1, 57, 70
4, 43295, Note_on_c, 1, 57, 0
4, 43296, Note_on_c, 1, 52, 70
4, 43319, Note_on_c, 1, 52, 0
4, 43320, Note_on_c, 1, 57, 70
4, 43343, Note_on_c, 1, 57, 0
4, 43344, Note_on_c, 1, 55, 70
4, 43367, Note_on_c, 1, 55, 0
4, 43368, Note_on_c, 1, 57, 70
4, 43391, Note_on_c, 1, 57, 0
4, 43392, Note_on_c, 1, 49, 70
4, 43415, Note_on_c, 1, 49, 0
4, 43416, Note_on_c, 1, 57, 70
4, 43439, Note_on_c, 1, 57, 0
4, 43440, Note_on_c, 1, 52, 70
4, 43463, Note_on_c, 1, 52, 0
4, 43464, Note_on_c, 1, 57, 70
4, 43487, Note_on_c, 1, 57, 0
4, 43488, Note_on_c, 1, 49, 70
4, 43511, Note_on_c, 1, 49, 0
4, 43512, Note_on_c, 1, 57, 70
4, 43535, Note_on_c, 1, 57, 0
4, 43536, Note_on_c, 1, 52, 70
4, 43559, Note_on_c, 1, 52, 0
4, 43560, Note_on_c, 1, 57, 70
4, 43583, Note_on_c, 1, 57, 0
4, 43584, Note_on_c, 1, 50, 70
4, 43607, Note_on_c, 1, 50, 0
4, 43608, Note_on_c, 1, 57, 70
4, 43631, Note_on_c, 1, 57, 0
4, 43632, Note_on_c, 1, 54, 70
4, 43655, Note_on_c, 1, 54, 0
4, 43656, Note_on_c, 1, 57, 70
4, 43679, Note_on_c, 1, 57, 0
4, 43680, Note_on_c, 1, 50, 70
4, 43703, Note_on_c, 1, 50, 0
4, 43704, Note_on_c, 1, 57, 70
4, 43727, Note_on_c, 1, 57, 0
4, 43728, Note_on_c, 1, 54, 70
4, 43751, Note_on_c, 1, 54, 0
4, 43752, Note_on_c, 1, 57, 70
4, 43775, Note_on_c, 1, 57, 0
4, 43776, Note_on_c, 1, 49, 70
4, 43799, Note_on_c, 1, 49, 0
4, 43800, Note_on_c, 1, 57, 70
4, 43823, Note_on_c, 1, 57, 0
4, 43824, Note_on_c, 1, 52, 70
4, 43847, Note_on_c, 1, 52, 0
4, 43848, Note_on_c, 1, 57, 70
4, 43871, Note_on_c, 1, 57, 0
4, 43872, Note_on_c, 1, 49, 70
4, 43895, Note_on_c, 1, 49, 0
4, 43896, Note_on_c, 1, 58, 70
4, 43919, Note_on_c, 1, 58, 0
4, 43920, Note_on_c, 1, 52, 70
4, 43943, Note_on_c, 1, 52, 0
4, 43944, Note_on_c, 1, 58, 70
4, 43967, Note_on_c, 1, 58, 0
4, 43968, Note_on_c, 1, 50, 70
4, 43991, Note_on_c, 1, 50, 0
4, 43992, Note_on_c, 1, 59, 70
4, 44015, Note_on_c, 1, 59, 0
4, 44016, Note_on_c, 1, 54, 70
4, 44039, Note_on_c, 1, 54, 0
4, 44040, Note_on_c, 1, 59, 70
4, 44063, Note_on_c, 1, 59, 0
4, 44064, Note_on_c, 1, 50, 70
4, 44087, Note_on_c, 1, 50, 0
4, 44088, Note_on_c, 1, 59, 70
4, 44111, Note_on_c, 1, 59, 0
4, 44112, Note_on_c, 1, 54, 70
4, 44135, Note_on_c, 1, 54, 0
4, 44136, Note_on_c, 1, 59, 70
4, 44159, Note_on_c, 1, 59, 0
4, 44160, Note_on_c, 1, 52, 70
4, 44183, Note_on_c, 1, 52, 0
4, 44184, Note_on_c, 1, 61, 70
4, 44207, Note_on_c, 1, 61, 0
4, 44208, Note_on_c, 1, 57, 70
4, 44231, Note_on_c, 1, 57, 0
4, 44232, Note_on_c, 1, 61, 70
4, 44255, Note_on_c, 1, 61, 0
4, 44256, Note_on_c, 1, 52, 70
4, 44279, Note_on_c, 1, 52, 0
4, 44280, Note_on_c, 1, 62, 70
4, 44303, Note_on_c, 1, 62, 0
4, 44304, Note_on_c, 1, 59, 70
4, 44327, Note_on_c, 1, 59, 0
4, 44328, Note_on_c, 1, 62, 70
4, 44351, Note_on_c, 1, 62, 0
4, 44352, Note_on_c, 1, 61, 70
4, 44352, Note_on_c, 1, 57, 70
4, 44441, Note_on_c, 1, 61, 0
4, 44441, Note_on_c, 1, 57, 0
4, 44544, Note_on_c, 1, 66, 70
4, 44567, Note_on_c, 1, 66, 0
4, 44568, Note_on_c, 1, 72, 70
4, 44591, Note_on_c, 1, 72, 0
4, 44592, Note_on_c, 1, 66, 70
4, 44615, Note_on_c, 1, 66, 0
4, 44616, Note_on_c, 1, 72, 70
4, 44639, Note_on_c, 1, 72, 0
4, 44640, Note_on_c, 1, 66, 70
4, 44685, Note_on_c, 1, 66, 0
4, 44736, Note_on_c, 1, 67, 70
4, 44759, Note_on_c, 1, 67, 0
4, 44760, Note_on_c, 1, 71, 70
4, 44783, Note_on_c, 1, 71, 0
4, 44784, Note_on_c, 1, 67, 70
4, 44807, Note_on_c, 1, 67, 0
4, 44808, Note_on_c, 1, 71, 70
4, 44831, Note_on_c, 1, 71, 0
4, 44832, Note_on_c, 1, 67, 70
4, 44877, Note_on_c, 1, 67, 0
4, 44928, Note_on_c, 1, 69, 70
4, 44928, Note_on_c, 1, 61, 70
4, 44973, Note_on_c, 1, 69, 0
4, 44973, Note_on_c, 1, 61, 0
4, 44976, Note_on_c, 1, 69, 70
4, 44976, Note_on_c, 1, 61, 70
4, 45021, Note_on_c, 1, 69, 0
4, 45021, Note_on_c, 1, 61, 0
4, 45024, Note_on_c, 1, 69, 70
4, 45024, Note_on_c, 1, 62, 70
4, 45069, Note_on_c, 1, 69, 0
4, 45069, Note_on_c, 1, 62, 0
4, 45072, Note_on_c, 1, 69, 70
4, 45072, Note_on_c, 1, 62, 70
4, 45117, Note_on_c, 1, 69, 0
4, 45117, Note_on_c, 1, 62, 0
4, 45120, Note_on_c, 1, 69, 70
4, 45209, Note_on_c, 1, 69, 0
4, 45312, Note_on_c, 1, 38, 76
4, 45335, Note_on_c, 1, 38, 0
4, 45336, Note_on_c, 1, 50, 76
4, 45359, Note_on_c, 1, 50, 0
4, 45360, Note_on_c, 1, 49, 76
4, 45383, Note_on_c, 1, 49, 0
4, 45384, Note_on_c, 1, 50, 76
4, 45407, Note_on_c, 1, 50, 0
4, 45408, Note_on_c, 1, 49, 76
4, 45431, Note_on_c, 1, 49, 0
4, 45432, Note_on_c, 1, 50, 76
4, 45455, Note_on_c, 1, 50, 0
4, 45456, Note_on_c, 1, 49, 76
4, 45479, Note_on_c, 1, 49, 0
4, 45480, Note_on_c, 1, 50, 76
4, 45503, Note_on_c, 1, 50, 0
4, 45504, Note_on_c, 1, 45, 76
4, 45527, Note_on_c, 1, 45, 0
4, 45528, Note_on_c, 1, 57, 76
4, 45551, Note_on_c, 1, 57, 0
4, 45552, Note_on_c, 1, 56, 76
4, 45575, Note_on_c, 1, 56, 0
4, 45576, Note_on_c, 1, 57, 76
4, 45599, Note_on_c, 1, 57, 0
4, 45600, Note_on_c, 1, 56, 76
4, 45623, Note_on_c, 1, 56, 0
4, 45624, Note_on_c, 1, 57, 76
4, 45647, Note_on_c, 1, 57, 0
4, 45648, Note_on_c, 1, 56, 76
4, 45671, Note_on_c, 1, 56, 0
4, 45672, Note_on_c, 1, 57, 76
4, 45695, Note_on_c, 1, 57, 0
4, 45696, Note_on_c, 1, 45, 76
4, 45719, Note_on_c, 1, 45, 0
4, 45720, Note_on_c, 1, 57, 76
4, 45743, Note_on_c, 1, 57, 0
4, 45744, Note_on_c, 1, 56, 76
4, 45767, Note_on_c, 1, 56, 0
4, 45768, Note_on_c, 1, 57, 76
4, 45791, Note_on_c, 1, 57, 0
4, 45792, Note_on_c, 1, 56, 76
4, 45815, Note_on_c, 1, 56, 0
4, 45816, Note_on_c, 1, 57, 76
4, 45839, Note_on_c, 1, 57, 0
4, 45840, Note_on_c, 1, 56, 76
4, 45863, Note_on_c, 1, 56, 0
4, 45864, Note_on_c, 1, 57, 76
4, 45887, Note_on_c, 1, 57, 0
4, 45888, Note_on_c, 1, 50, 76
4, 45911, Note_on_c, 1, 50, 0
4, 45912, Note_on_c, 1, 62, 76
4, 45935, Note_on_c, 1, 62, 0
4, 45936, Note_on_c, 1, 61, 76
4, 45959, Note_on_c, 1, 61, 0
4, 45960, Note_on_c, 1, 62, 76
4, 45983, Note_on_c, 1, 62, 0
4, 45984, Note_on_c, 1, 61, 76
4, 46007, Note_on_c, 1, 61, 0
4, 46008, Note_on_c, 1, 62, 76
4, 46031, Note_on_c, 1, 62, 0
4, 46032, Note_on_c, 1, 61, 76
4, 46055, Note_on_c, 1, 61, 0
4, 46056, Note_on_c, 1, 62, 76
4, 46079, Note_on_c, 1, 62, 0
4, 46080, Note_on_c, 1, 54, 76
4, 46103, Note_on_c, 1, 54, 0
4, 46104, Note_on_c, 1, 62, 76
4, 46127, Note_on_c, 1, 62, 0
4, 46128, Note_on_c, 1, 61, 76
4, 46151, Note_on_c, 1, 61, 0
4, 46152, Note_on_c, 1, 62, 76
4, 46175, Note_on_c, 1, 62, 0
4, 46176, Note_on_c, 1, 61, 76
4, 46199, Note_on_c, 1, 61, 0
4, 46200, Note_on_c, 1, 62, 76
4, 46223, Note_on_c, 1, 62, 0
4, 46224, Note_on_c, 1, 61, 76
4, 46247, Note_on_c, 1, 61, 0
4, 46248, Note_on_c, 1, 62, 76
4, 46271, Note_on_c, 1, 62, 0
4, 46272, Note_on_c, 1, 55, 76
4, 46295, Note_on_c, 1, 55, 0
4, 46296, Note_on_c, 1, 62, 76
4, 46319, Note_on_c, 1, 62, 0
4, 46320, Note_on_c, 1, 61, 76
4, 46343, Note_on_c, 1, 61, 0
4, 46344, Note_on_c, 1, 62, 76
4, 46367, Note_on_c, 1, 62, 0
4, 46368, Note_on_c, 1, 61, 76
4, 46391, Note_on_c, 1, 61, 0
4, 46392, Note_on_c, 1, 62, 76
4, 46415, Note_on_c, 1, 62, 0
4, 46416, Note_on_c, 1, 61, 76
4, 46439, Note_on_c, 1, 61, 0
4, 46440, Note_on_c, 1, 62, 76
4, 46463, Note_on_c, 1, 62, 0
4, 46560, Note_on_c, 1, 66, 76
4, 46605, Note_on_c, 1, 66, 0
4, 46608, Note_on_c, 1, 64, 76
4, 46653, Note_on_c, 1, 64, 0
4, 46656, Note_on_c, 1, 62, 82
4, 46656, Note_on_c, 1, 50, 82
4, 46745, Note_on_c, 1, 62, 0
4, 46745, Note_on_c, 1, 50, 0
4, 46848, Note_on_c, 1, 66, 70
4, 46871, Note_on_c, 1, 66, 0
4, 46872, Note_on_c, 1, 72, 70
4, 46895, Note_on_c, 1, 72, 0
4, 46896, Note_on_c, 1, 66, 70
4, 46919, Note_on_c, 1, 66, 0
4, 46920, Note_on_c, 1, 72, 70
4, 46943, Note_on_c, 1, 72, 0
4, 46944, Note_on_c, 1, 66, 70
4, 46989, Note_on_c, 1, 66, 0
4, 47040, Note_on_c, 1, 67, 70
4, 47063, Note_on_c, 1, 67, 0
4, 47064, Note_on_c, 1, 71, 70
4, 47087, Note_on_c, 1, 71, 0
4, 47088, Note_on_c, 1, 67, 70
4, 47111, Note_on_c, 1, 67, 0
4, 47112, Note_on_c, 1, 71, 70
4, 47135, Note_on_c, 1, 71, 0
4, 47136, Note_on_c, 1, 67, 70
4, 47181, Note_on_c, 1, 67, 0
4, 47232, Note_on_c, 1, 69, 70
4, 47232, Note_on_c, 1, 61, 70
4, 47277, Note_on_c, 1, 69, 0
4, 47277, Note_on_c, 1, 61, 0
4, 47280, Note_on_c, 1, 69, 70
4, 47280, Note_on_c, 1, 61, 70
4, 47325, Note_on_c, 1, 69, 0
4, 47325, Note_on_c, 1, 61, 0
4, 47328, Note_on_c, 1, 69, 70
4, 47328, Note_on_c, 1, 62, 70
4, 47373, Note_on_c, 1, 69, 0
4, 47373, Note_on_c, 1, 62, 0
4, 47376, Note_on_c, 1, 69, 70
4, 47376, Note_on_c, 1, 62, 70
4, 47421, Note_on_c, 1, 69, 0
4, 47421, Note_on_c, 1, 62, 0
4, 47424, Note_on_c, 1, 69, 70
4, 47513, Note_on_c, 1, 69, 0
4, 47616, Note_on_c, 1, 38, 76
4, 47639, Note_on_c, 1, 38, 0
4, 47640, Note_on_c, 1, 50, 76
4, 47663, Note_on_c, 1, 50, 0
4, 47664, Note_on_c, 1, 49, 76
4, 47687, Note_on_c, 1, 49, 0
4, 47688, Note_on_c, 1, 50, 76
4, 47711, Note_on_c, 1, 50, 0
4, 47712, Note_on_c, 1, 49, 76
4, 47735, Note_on_c, 1, 49, 0
4, 47736, Note_on_c, 1, 50, 76
4, 47759, Note_on_c, 1, 50, 0
4, 47760, Note_on_c, 1, 49, 76
4, 47783, Note_on_c, 1, 49, 0
4, 47784, Note_on_c, 1, 50, 76
4, 47807, Note_on_c, 1, 50, 0
4, 47808, Note_on_c, 1, 45, 76
4, 47831, Note_on_c, 1, 45, 0
4, 47832, Note_on_c, 1, 57, 76
4, 47855, Note_on_c, 1, 57, 0
4, 47856, Note_on_c, 1, 56, 76
4, 47879, Note_on_c, 1, 56, 0
4, 47880, Note_on_c, 1, 57, 76
4, 47903, Note_on_c, 1, 57, 0
4, 47904, Note_on_c, 1, 56, 76
4, 47927, Note_on_c, 1, 56, 0
4, 47928, Note_on_c, 1, 57, 76
4, 47951, Note_on_c, 1, 57, 0
4, 47952, Note_on_c, 1, 56, 76
4, 47975, Note_on_c, 1, 56, 0
4, 47976, Note_on_c, 1, 57, 76
4, 47999, Note_on_c, 1, 57, 0
4, 48000, Note_on_c, 1, 45, 76
4, 48023, Note_on_c, 1, 45, 0
4, 48024, Note_on_c, 1, 57, 76
4, 48047, Note_on_c, 1, 57, 0
4, 48048, Note_on_c, 1, 56, 76
4, 48071, Note_on_c, 1, 56, 0
4, 48072, Note_on_c, 1, 57, 76
4, 48095, Note_on_c, 1, 57, 0
4, 48096, Note_on_c, 1, 56, 76
4, 48119, Note_on_c, 1, 56, 0
4, 48120, Note_on_c, 1, 57, 76
4, 48143, Note_on_c, 1, 57, 0
4, 48144, Note_on_c, 1, 56, 76
4, 48167, Note_on_c, 1, 56, 0
4, 48168, Note_on_c, 1, 57, 76
4, 48191, Note_on_c, 1, 57, 0
4, 48192, Note_on_c, 1, 50, 76
4, 48215, Note_on_c, 1, 50, 0
4, 48216, Note_on_c, 1, 62, 76
4, 48239, Note_on_c, 1, 62, 0
4, 48240, Note_on_c, 1, 61, 76
4, 48263, Note_on_c, 1, 61, 0
4, 48264, Note_on_c, 1, 62, 76
4, 48287, Note_on_c, 1, 62, 0
4, 48288, Note_on_c, 1, 61, 76
4, 48311, Note_on_c, 1, 61, 0
4, 48312, Note_on_c, 1, 62, 76
4, 48335, Note_on_c, 1, 62, 0
4, 48336, Note_on_c, 1, 61, 76
4, 48359, Note_on_c, 1, 61, 0
4, 48360, Note_on_c, 1, 62, 76
4, 48383, Note_on_c, 1, 62, 0
4, 48384, Note_on_c, 1, 54, 76
4, 48407, Note_on_c, 1, 54, 0
4, 48408, Note_on_c, 1, 62, 76
4, 48431, Note_on_c, 1, 62, 0
4, 48432, Note_on_c, 1, 61, 76
4, 48455, Note_on_c, 1, 61, 0
4, 48456, Note_on_c, 1, 62, 76
4, 48479, Note_on_c, 1, 62, 0
4, 48480, Note_on_c, 1, 61, 76
4, 48503, Note_on_c, 1, 61, 0
4, 48504, Note_on_c, 1, 62, 76
4, 48527, Note_on_c, 1, 62, 0
4, 48528, Note_on_c, 1, 61, 76
4, 48551, Note_on_c, 1, 61, 0
4, 48552, Note_on_c, 1, 62, 76
4, 48575, Note_on_c, 1, 62, 0
4, 48576, Note_on_c, 1, 55, 76
4, 48599, Note_on_c, 1, 55, 0
4, 48600, Note_on_c, 1, 62, 76
4, 48623, Note_on_c, 1, 62, 0
4, 48624, Note_on_c, 1, 61, 76
4, 48647, Note_on_c, 1, 61, 0
4, 48648, Note_on_c, 1, 62, 76
4, 48671, Note_on_c, 1, 62, 0
4, 48672, Note_on_c, 1, 61, 76
4, 48695, Note_on_c, 1, 61, 0
4, 48696, Note_on_c, 1, 62, 76
4, 48719, Note_on_c, 1, 62, 0
4, 48720, Note_on_c, 1, 61, 76
4, 48743, Note_on_c, 1, 61, 0
4, 48744, Note_on_c, 1, 62, 76
4, 48767, Note_on_c, 1, 62, 0
4, 48864, Note_on_c, 1, 66, 76
4, 48909, Note_on_c, 1, 66, 0
4, 48912, Note_on_c, 1, 64, 76
4, 48957, Note_on_c, 1, 64, 0
4, 48960, Note_on_c, 1, 62, 82
4, 48960, Note_on_c, 1, 50, 82
4, 49049, Note_on_c, 1, 62, 0
4, 49049, Note_on_c, 1, 50, 0
4, 49056, Note_on_c, 1, 62, 82
4, 49056, Note_on_c, 1, 57, 82
4, 49056, Note_on_c, 1, 54, 82
4, 49056, Note_on_c, 1, 50, 82
4, 49145, Note_on_c, 1, 62, 0
4, 49145, Note_on_c, 1, 57, 0
4, 49145, Note_on_c, 1, 54, 0
4, 49145, Note_on_c, 1, 50, 0
4, 49152, Note_on_c, 1, 62, 82
4, 49152, Note_on_c, 1, 57, 82
4, 49152, Note_on_c, 1, 54, 82
4, 49152, Note_on_c, 1, 50, 82
4, 49285, Note_on_c, 1, 62, 0
4, 49285, Note_on_c, 1, 57, 0
4, 49285, Note_on_c, 1, 54, 0
4, 49285, Note_on_c, 1, 50, 0
4, 49344, Note_on_c, 1, 50, 0
4, 49433, Note_on_c, 1, 50, 0
4, 49440, End_track
5, 0, Start_track
5, 0, Program_c, 1, 0
5, 0, Control_c, 1, 7, 127
5, 0, Control_c, 1, 10, 64
5, 96, Note_on_c, 1, 50, 76
5, 185, Note_on_c, 1, 50, 0
5, 192, Note_on_c, 1, 45, 76
5, 281, Note_on_c, 1, 45, 0
5, 288, Note_on_c, 1, 46, 76
5, 465, Note_on_c, 1, 46, 0
5, 480, Note_on_c, 1, 43, 76
5, 569, Note_on_c, 1, 43, 0
5, 576, Note_on_c, 1, 45, 76
5, 813, Note_on_c, 1, 45, 0
5, 816, Note_on_c, 1, 46, 76
5, 850, Note_on_c, 1, 46, 0
5, 852, Note_on_c, 1, 44, 76
5, 864, Note_on_c, 1, 44, 0
5, 1152, Note_on_c, 1, 50, 76
5, 1241, Note_on_c, 1, 50, 0
5, 1248, Note_on_c, 1, 48, 76
5, 1337, Note_on_c, 1, 48, 0
5, 1344, Note_on_c, 1, 52, 76
5, 1433, Note_on_c, 1, 52, 0
5, 1440, Note_on_c, 1, 53, 76
5, 1617, Note_on_c, 1, 53, 0
5, 1632, Note_on_c, 1, 53, 76
5, 1666, Note_on_c, 1, 53, 0
5, 1668, Note_on_c, 1, 52, 76
5, 1680, Note_on_c, 1, 52, 0
5, 1680, Note_on_c, 1, 50, 76
5, 1714, Note_on_c, 1, 50, 0
5, 1716, Note_on_c, 1, 48, 76
5, 1728, Note_on_c, 1, 48, 0
5, 2688, Note_on_c, 1, 50, 76
5, 2777, Note_on_c, 1, 50, 0
5, 2784, Note_on_c, 1, 45, 76
5, 2873, Note_on_c, 1, 45, 0
5, 2880, Note_on_c, 1, 46, 76
5, 3057, Note_on_c, 1, 46, 0
5, 3072, Note_on_c, 1, 43, 76
5, 3161, Note_on_c, 1, 43, 0
5, 3168, Note_on_c, 1, 45, 76
5, 3405, Note_on_c, 1, 45, 0
5, 3408, Note_on_c, 1, 46, 76
5, 3442, Note_on_c, 1, 46, 0
5, 3444, Note_on_c, 1, 44, 76
5, 3456, Note_on_c, 1, 44, 0
5, 3744, Note_on_c, 1, 50, 76
5, 3833, Note_on_c, 1, 50, 0
5, 3840, Note_on_c, 1, 48, 76
5, 3929, Note_on_c, 1, 48, 0
5, 3936, Note_on_c, 1, 52, 76
5, 4025, Note_on_c, 1, 52, 0
5, 4032, Note_on_c, 1, 53, 76
5, 4209, Note_on_c, 1, 53, 0
5, 4224, Note_on_c, 1, 53, 76
5, 4258, Note_on_c, 1, 53, 0
5, 4260, Note_on_c, 1, 52, 76
5, 4272, Note_on_c, 1, 52, 0
5, 4272, Note_on_c, 1, 50, 76
5, 4306, Note_on_c, 1, 50, 0
5, 4308, Note_on_c, 1, 48, 76
5, 4320, Note_on_c, 1, 48, 0
5, 5376, Note_on_c, 1, 50, 76
5, 5465, Note_on_c, 1, 50, 0
5, 5472, Note_on_c, 1, 55, 76
5, 5649, Note_on_c, 1, 55, 0
5, 5664, Note_on_c, 1, 55, 76
5, 5698, Note_on_c, 1, 55, 0
5, 5700, Note_on_c, 1, 53, 76
5, 5712, Note_on_c, 1, 53, 0
5, 5712, Note_on_c, 1, 52, 76
5, 5746, Note_on_c, 1, 52, 0
5, 5748, Note_on_c, 1, 50, 76
5, 5760, Note_on_c, 1, 50, 0
5, 5760, Note_on_c, 1, 49, 76
5, 5849, Note_on_c, 1, 49, 0
5, 5856, Note_on_c, 1, 50, 78
5, 5945, Note_on_c, 1, 50, 0
5, 5952, Note_on_c, 1, 52, 80
5, 6041, Note_on_c, 1, 52, 0
5, 6048, Note_on_c, 1, 53, 82
5, 6225, Note_on_c, 1, 53, 0
5, 6288, Note_on_c, 1, 52, 70
5, 6333, Note_on_c, 1, 52, 0
5, 6336, Note_on_c, 1, 53, 70
5, 6513, Note_on_c, 1, 53, 0
5, 6576, Note_on_c, 1, 52, 58
5, 6621, Note_on_c, 1, 52, 0
5, 6624, Note_on_c, 1, 53, 58
5, 6801, Note_on_c, 1, 53, 0
5, 6816, Note_on_c, 1, 57, 58
5, 6816, Note_on_c, 1, 54, 58
5, 6905, Note_on_c, 1, 57, 0
5, 6905, Note_on_c, 1, 54, 0
5, 7200, Note_on_c, 1, 45, 76
5, 7200, Note_on_c, 1, 33, 76
5, 7465, Note_on_c, 1, 45, 0
5, 7465, Note_on_c, 1, 33, 0
5, 7488, Control_c, 1, 64, 127
5, 7872, Note_on_c, 1, 45, 58
5, 7902, Note_on_c, 1, 45, 0
5, 7904, Note_on_c, 1, 49, 58
5, 7934, Note_on_c, 1, 49, 0
5, 7936, Note_on_c, 1, 52, 58
5, 7966, Note_on_c, 1, 52, 0
5, 7968, Note_on_c, 1, 57, 58
5, 7998, Note_on_c, 1, 57, 0
5, 8000, Note_on_c, 1, 52, 58
5, 8030, Note_on_c, 1, 52, 0
5, 8032, Note_on_c, 1, 49, 58
5, 8062, Note_on_c, 1, 49, 0
5, 8064, Control_c, 1, 64, 0
5, 8064, Note_on_c, 1, 45, 58
5, 8153, Note_on_c, 1, 45, 0
5, 46080, Note_on_c, 1, 54, 58
5, 46257, Note_on_c, 1, 54, 0
5, 46272, Note_on_c, 1, 55, 58
5, 46449, Note_on_c, 1, 55, 0
5, 46464, Note_on_c, 1, 57, 58
5, 46641, Note_on_c, 1, 57, 0
5, 48384, Note_on_c, 1, 54, 58
5, 48561, Note_on_c, 1, 54, 0
5, 48576, Note_on_c, 1, 55, 58
5, 48753, Note_on_c, 1, 55, 0
5, 48768, Note_on_c, 1, 57, 58
5, 48945, Note_on_c, 1, 57, 0
5, 49344, End_track
6, 0, Start_track
6, 0, Title_t, "Piano Solo   <composer>  "
6, 0, End_track
0, 0, End_of_file
