0, 0, Header, 1, 6, 96
1, 0, Start_track
1, 0, Copyright_t, "Copyright  2000 <copyright holder>"
1, 0, Text_t, "Sonata II\015\012"
1, 0, Text_t, "Haydn\015\012"
1, 0, Sequencer_specific, 16, 68, 87, 77, 90, 86, 82, 83, 78, 32, 55, 46, 49, 46, 50, 46, 48
1, 0, Time_signature, 3, 2, 24, 8
1, 0, Tempo, 428571
1, 0, Key_signature, 4, "major"
1, 17856, Key_signature, 7, "major"
1, 21312, Key_signature, 7, "major"
1, 31680, Key_signature, 4, "major"
1, 33984, Key_signature, 4, "major"
1, 49536, End_track
2, 0, Start_track
2, 0, Program_c, 0, 0
2, 0, Control_c, 0, 7, 127
2, 0, Control_c, 0, 10, 64
2, 0, Note_on_c, 0, 73, 78
2, 119, Note_on_c, 0, 73, 0
2, 120, Note_on_c, 0, 75, 78
2, 143, Note_on_c, 0, 75, 0
2, 144, Note_on_c, 0, 73, 78
2, 167, Note_on_c, 0, 73, 0
2, 168, Note_on_c, 0, 72, 78
2, 191, Note_on_c, 0, 72, 0
2, 192, Note_on_c, 0, 73, 78
2, 215, Note_on_c, 0, 73, 0
2, 216, Note_on_c, 0, 75, 78
2, 239, Note_on_c, 0, 75, 0
2, 240, Note_on_c, 0, 76, 78
2, 263, Note_on_c, 0, 76, 0
2, 264, Note_on_c, 0, 78, 78
2, 287, Note_on_c, 0, 78, 0
2, 288, Note_on_c, 0, 80, 94
2, 327, Note_on_c, 0, 80, 0
2, 384, Note_on_c, 0, 80, 78
2, 423, Note_on_c, 0, 80, 0
2, 480, Note_on_c, 0, 80, 78
2, 519, Note_on_c, 0, 80, 0
2, 576, Note_on_c, 0, 79, 78
2, 768, Note_on_c, 0, 79, 0
2, 768, Note_on_c, 0, 80, 78
2, 857, Note_on_c, 0, 80, 0
2, 864, Note_on_c, 0, 75, 78
2, 1144, Note_on_c, 0, 75, 0
2, 1152, Note_on_c, 0, 78, 78
2, 1293, Note_on_c, 0, 78, 0
2, 1296, Note_on_c, 0, 81, 78
2, 1319, Note_on_c, 0, 81, 0
2, 1320, Note_on_c, 0, 80, 78
2, 1343, Note_on_c, 0, 80, 0
2, 1344, Note_on_c, 0, 78, 78
2, 1367, Note_on_c, 0, 78, 0
2, 1368, Note_on_c, 0, 76, 78
2, 1391, Note_on_c, 0, 76, 0
2, 1392, Note_on_c, 0, 75, 78
2, 1415, Note_on_c, 0, 75, 0
2, 1416, Note_on_c, 0, 78, 78
2, 1439, Note_on_c, 0, 78, 0
2, 1440, Note_on_c, 0, 76, 78
2, 1529, Note_on_c, 0, 76, 0
2, 1536, Note_on_c, 0, 73, 78
2, 1625, Note_on_c, 0, 73, 0
2, 1632, Note_on_c, 0, 73, 78
2, 1721, Note_on_c, 0, 73, 0
2, 1728, Note_on_c, 0, 80, 78
2, 1746, Note_on_c, 0, 80, 0
2, 1746, Note_on_c, 0, 78, 78
2, 1764, Note_on_c, 0, 78, 0
2, 1764, Note_on_c, 0, 77, 78
2, 1782, Note_on_c, 0, 77, 0
2, 1782, Note_on_c, 0, 78, 78
2, 1920, Note_on_c, 0, 78, 0
2, 1920, Note_on_c, 0, 80, 78
2, 1959, Note_on_c, 0, 80, 0
2, 2016, Note_on_c, 0, 73, 78
2, 2149, Note_on_c, 0, 73, 0
2, 2304, Note_on_c, 0, 73, 78
2, 2423, Note_on_c, 0, 73, 0
2, 2424, Note_on_c, 0, 75, 78
2, 2447, Note_on_c, 0, 75, 0
2, 2448, Note_on_c, 0, 73, 78
2, 2471, Note_on_c, 0, 73, 0
2, 2472, Note_on_c, 0, 72, 78
2, 2495, Note_on_c, 0, 72, 0
2, 2496, Note_on_c, 0, 73, 78
2, 2519, Note_on_c, 0, 73, 0
2, 2520, Note_on_c, 0, 75, 78
2, 2543, Note_on_c, 0, 75, 0
2, 2544, Note_on_c, 0, 76, 78
2, 2567, Note_on_c, 0, 76, 0
2, 2568, Note_on_c, 0, 78, 78
2, 2591, Note_on_c, 0, 78, 0
2, 2592, Note_on_c, 0, 80, 94
2, 2631, Note_on_c, 0, 80, 0
2, 2688, Note_on_c, 0, 80, 78
2, 2727, Note_on_c, 0, 80, 0
2, 2784, Note_on_c, 0, 80, 78
2, 2823, Note_on_c, 0, 80, 0
2, 2880, Note_on_c, 0, 79, 78
2, 3072, Note_on_c, 0, 79, 0
2, 3072, Note_on_c, 0, 80, 78
2, 3161, Note_on_c, 0, 80, 0
2, 3168, Note_on_c, 0, 75, 78
2, 3448, Note_on_c, 0, 75, 0
2, 3456, Note_on_c, 0, 78, 78
2, 3597, Note_on_c, 0, 78, 0
2, 3600, Note_on_c, 0, 81, 78
2, 3623, Note_on_c, 0, 81, 0
2, 3624, Note_on_c, 0, 80, 78
2, 3647, Note_on_c, 0, 80, 0
2, 3648, Note_on_c, 0, 78, 78
2, 3671, Note_on_c, 0, 78, 0
2, 3672, Note_on_c, 0, 76, 78
2, 3695, Note_on_c, 0, 76, 0
2, 3696, Note_on_c, 0, 75, 78
2, 3719, Note_on_c, 0, 75, 0
2, 3720, Note_on_c, 0, 78, 78
2, 3743, Note_on_c, 0, 78, 0
2, 3744, Note_on_c, 0, 76, 78
2, 3833, Note_on_c, 0, 76, 0
2, 3840, Note_on_c, 0, 73, 78
2, 3929, Note_on_c, 0, 73, 0
2, 3936, Note_on_c, 0, 73, 78
2, 4025, Note_on_c, 0, 73, 0
2, 4032, Note_on_c, 0, 80, 78
2, 4050, Note_on_c, 0, 80, 0
2, 4050, Note_on_c, 0, 78, 78
2, 4068, Note_on_c, 0, 78, 0
2, 4068, Note_on_c, 0, 77, 78
2, 4086, Note_on_c, 0, 77, 0
2, 4086, Note_on_c, 0, 78, 78
2, 4224, Note_on_c, 0, 78, 0
2, 4224, Note_on_c, 0, 80, 78
2, 4263, Note_on_c, 0, 80, 0
2, 4320, Note_on_c, 0, 73, 78
2, 4453, Note_on_c, 0, 73, 0
2, 4608, Note_on_c, 0, 76, 78
2, 4727, Note_on_c, 0, 76, 0
2, 4728, Note_on_c, 0, 78, 78
2, 4751, Note_on_c, 0, 78, 0
2, 4752, Note_on_c, 0, 76, 78
2, 4775, Note_on_c, 0, 76, 0
2, 4776, Note_on_c, 0, 75, 78
2, 4799, Note_on_c, 0, 75, 0
2, 4800, Note_on_c, 0, 76, 78
2, 4823, Note_on_c, 0, 76, 0
2, 4824, Note_on_c, 0, 78, 78
2, 4847, Note_on_c, 0, 78, 0
2, 4848, Note_on_c, 0, 80, 78
2, 4871, Note_on_c, 0, 80, 0
2, 4872, Note_on_c, 0, 81, 78
2, 4895, Note_on_c, 0, 81, 0
2, 4896, Note_on_c, 0, 83, 94
2, 4935, Note_on_c, 0, 83, 0
2, 4992, Note_on_c, 0, 83, 78
2, 5031, Note_on_c, 0, 83, 0
2, 5088, Note_on_c, 0, 83, 78
2, 5127, Note_on_c, 0, 83, 0
2, 5184, Note_on_c, 0, 76, 78
2, 5303, Note_on_c, 0, 76, 0
2, 5304, Note_on_c, 0, 78, 80
2, 5327, Note_on_c, 0, 78, 0
2, 5328, Note_on_c, 0, 76, 80
2, 5351, Note_on_c, 0, 76, 0
2, 5352, Note_on_c, 0, 75, 80
2, 5375, Note_on_c, 0, 75, 0
2, 5376, Note_on_c, 0, 76, 81
2, 5399, Note_on_c, 0, 76, 0
2, 5400, Note_on_c, 0, 78, 81
2, 5423, Note_on_c, 0, 78, 0
2, 5424, Note_on_c, 0, 80, 82
2, 5447, Note_on_c, 0, 80, 0
2, 5448, Note_on_c, 0, 81, 82
2, 5460, Note_on_c, 0, 81, 0
2, 5460, Note_on_c, 0, 83, 82
2, 5472, Note_on_c, 0, 83, 0
2, 5472, Note_on_c, 0, 85, 99
2, 5511, Note_on_c, 0, 85, 0
2, 5568, Note_on_c, 0, 85, 83
2, 5607, Note_on_c, 0, 85, 0
2, 5664, Note_on_c, 0, 85, 83
2, 5703, Note_on_c, 0, 85, 0
2, 5760, Note_on_c, 0, 83, 83
2, 5879, Note_on_c, 0, 83, 0
2, 5880, Note_on_c, 0, 85, 83
2, 5903, Note_on_c, 0, 85, 0
2, 5904, Note_on_c, 0, 83, 83
2, 5927, Note_on_c, 0, 83, 0
2, 5928, Note_on_c, 0, 82, 83
2, 5951, Note_on_c, 0, 82, 0
2, 5952, Note_on_c, 0, 83, 83
2, 5975, Note_on_c, 0, 83, 0
2, 5976, Note_on_c, 0, 85, 83
2, 5999, Note_on_c, 0, 85, 0
2, 6000, Note_on_c, 0, 83, 83
2, 6023, Note_on_c, 0, 83, 0
2, 6024, Note_on_c, 0, 81, 83
2, 6047, Note_on_c, 0, 81, 0
2, 6048, Note_on_c, 0, 80, 83
2, 6093, Note_on_c, 0, 80, 0
2, 6144, Note_on_c, 0, 78, 81
2, 6189, Note_on_c, 0, 78, 0
2, 6240, Note_on_c, 0, 76, 79
2, 6285, Note_on_c, 0, 76, 0
2, 6336, Note_on_c, 0, 83, 71
2, 6455, Note_on_c, 0, 83, 0
2, 6456, Note_on_c, 0, 85, 71
2, 6479, Note_on_c, 0, 85, 0
2, 6480, Note_on_c, 0, 83, 71
2, 6503, Note_on_c, 0, 83, 0
2, 6504, Note_on_c, 0, 82, 71
2, 6527, Note_on_c, 0, 82, 0
2, 6528, Note_on_c, 0, 83, 71
2, 6551, Note_on_c, 0, 83, 0
2, 6552, Note_on_c, 0, 85, 71
2, 6575, Note_on_c, 0, 85, 0
2, 6576, Note_on_c, 0, 83, 71
2, 6599, Note_on_c, 0, 83, 0
2, 6600, Note_on_c, 0, 81, 71
2, 6623, Note_on_c, 0, 81, 0
2, 6624, Note_on_c, 0, 80, 71
2, 6647, Note_on_c, 0, 80, 0
2, 6648, Note_on_c, 0, 83, 71
2, 6671, Note_on_c, 0, 83, 0
2, 6672, Note_on_c, 0, 81, 71
2, 6695, Note_on_c, 0, 81, 0
2, 6696, Note_on_c, 0, 80, 71
2, 6719, Note_on_c, 0, 80, 0
2, 6720, Note_on_c, 0, 78, 71
2, 6743, Note_on_c, 0, 78, 0
2, 6744, Note_on_c, 0, 81, 71
2, 6767, Note_on_c, 0, 81, 0
2, 6768, Note_on_c, 0, 80, 71
2, 6791, Note_on_c, 0, 80, 0
2, 6792, Note_on_c, 0, 78, 71
2, 6815, Note_on_c, 0, 78, 0
2, 6816, Note_on_c, 0, 76, 71
2, 6839, Note_on_c, 0, 76, 0
2, 6840, Note_on_c, 0, 80, 71
2, 6863, Note_on_c, 0, 80, 0
2, 6864, Note_on_c, 0, 78, 71
2, 6887, Note_on_c, 0, 78, 0
2, 6888, Note_on_c, 0, 76, 71
2, 6911, Note_on_c, 0, 76, 0
2, 6912, Note_on_c, 0, 75, 71
2, 7001, Note_on_c, 0, 75, 0
2, 7008, Note_on_c, 0, 73, 71
2, 7097, Note_on_c, 0, 73, 0
2, 7104, Note_on_c, 0, 85, 71
2, 7193, Note_on_c, 0, 85, 0
2, 7200, Note_on_c, 0, 76, 71
2, 7377, Note_on_c, 0, 76, 0
2, 7392, Note_on_c, 0, 80, 71
2, 7415, Note_on_c, 0, 80, 0
2, 7416, Note_on_c, 0, 78, 71
2, 7461, Note_on_c, 0, 78, 0
2, 7464, Note_on_c, 0, 76, 71
2, 7487, Note_on_c, 0, 76, 0
2, 7488, Note_on_c, 0, 76, 71
2, 7577, Note_on_c, 0, 76, 0
2, 7680, Note_on_c, 0, 84, 71
2, 7703, Note_on_c, 0, 84, 0
2, 7704, Note_on_c, 0, 85, 71
2, 7727, Note_on_c, 0, 85, 0
2, 7728, Note_on_c, 0, 84, 71
2, 7751, Note_on_c, 0, 84, 0
2, 7752, Note_on_c, 0, 85, 71
2, 7775, Note_on_c, 0, 85, 0
2, 7776, Note_on_c, 0, 76, 71
2, 7953, Note_on_c, 0, 76, 0
2, 7968, Note_on_c, 0, 80, 83
2, 7991, Note_on_c, 0, 80, 0
2, 7992, Note_on_c, 0, 78, 82
2, 8037, Note_on_c, 0, 78, 0
2, 8040, Note_on_c, 0, 76, 82
2, 8063, Note_on_c, 0, 76, 0
2, 8064, Note_on_c, 0, 76, 81
2, 8064, Note_on_c, 0, 73, 81
2, 8153, Note_on_c, 0, 76, 0
2, 8153, Note_on_c, 0, 73, 0
2, 8160, Note_on_c, 0, 75, 80
2, 8160, Note_on_c, 0, 72, 80
2, 8249, Note_on_c, 0, 75, 0
2, 8249, Note_on_c, 0, 72, 0
2, 8256, Note_on_c, 0, 73, 79
2, 8345, Note_on_c, 0, 73, 0
2, 8352, Note_on_c, 0, 76, 78
2, 8364, Note_on_c, 0, 76, 0
2, 8364, Note_on_c, 0, 75, 78
2, 8376, Note_on_c, 0, 75, 0
2, 8376, Note_on_c, 0, 73, 78
2, 8388, Note_on_c, 0, 73, 0
2, 8388, Note_on_c, 0, 75, 78
2, 8441, Note_on_c, 0, 75, 0
2, 8448, Note_on_c, 0, 78, 77
2, 8537, Note_on_c, 0, 78, 0
2, 8544, Note_on_c, 0, 81, 75
2, 8633, Note_on_c, 0, 81, 0
2, 8640, Note_on_c, 0, 73, 74
2, 8817, Note_on_c, 0, 73, 0
2, 8832, Note_on_c, 0, 72, 72
2, 8921, Note_on_c, 0, 72, 0
2, 8928, Note_on_c, 0, 73, 78
2, 9047, Note_on_c, 0, 73, 0
2, 9048, Note_on_c, 0, 75, 78
2, 9071, Note_on_c, 0, 75, 0
2, 9072, Note_on_c, 0, 73, 78
2, 9095, Note_on_c, 0, 73, 0
2, 9096, Note_on_c, 0, 72, 78
2, 9119, Note_on_c, 0, 72, 0
2, 9120, Note_on_c, 0, 73, 78
2, 9143, Note_on_c, 0, 73, 0
2, 9144, Note_on_c, 0, 75, 78
2, 9167, Note_on_c, 0, 75, 0
2, 9168, Note_on_c, 0, 76, 78
2, 9191, Note_on_c, 0, 76, 0
2, 9192, Note_on_c, 0, 78, 78
2, 9215, Note_on_c, 0, 78, 0
2, 9216, Note_on_c, 0, 80, 94
2, 9255, Note_on_c, 0, 80, 0
2, 9312, Note_on_c, 0, 80, 78
2, 9351, Note_on_c, 0, 80, 0
2, 9408, Note_on_c, 0, 80, 78
2, 9447, Note_on_c, 0, 80, 0
2, 9504, Note_on_c, 0, 79, 78
2, 9696, Note_on_c, 0, 79, 0
2, 9696, Note_on_c, 0, 80, 78
2, 9785, Note_on_c, 0, 80, 0
2, 9792, Note_on_c, 0, 75, 78
2, 10072, Note_on_c, 0, 75, 0
2, 10080, Note_on_c, 0, 78, 78
2, 10221, Note_on_c, 0, 78, 0
2, 10224, Note_on_c, 0, 81, 78
2, 10247, Note_on_c, 0, 81, 0
2, 10248, Note_on_c, 0, 80, 78
2, 10271, Note_on_c, 0, 80, 0
2, 10272, Note_on_c, 0, 78, 78
2, 10295, Note_on_c, 0, 78, 0
2, 10296, Note_on_c, 0, 76, 78
2, 10319, Note_on_c, 0, 76, 0
2, 10320, Note_on_c, 0, 75, 78
2, 10343, Note_on_c, 0, 75, 0
2, 10344, Note_on_c, 0, 78, 78
2, 10367, Note_on_c, 0, 78, 0
2, 10368, Note_on_c, 0, 76, 78
2, 10457, Note_on_c, 0, 76, 0
2, 10464, Note_on_c, 0, 73, 78
2, 10553, Note_on_c, 0, 73, 0
2, 10560, Note_on_c, 0, 73, 78
2, 10649, Note_on_c, 0, 73, 0
2, 10656, Note_on_c, 0, 80, 78
2, 10674, Note_on_c, 0, 80, 0
2, 10674, Note_on_c, 0, 78, 78
2, 10692, Note_on_c, 0, 78, 0
2, 10692, Note_on_c, 0, 77, 78
2, 10710, Note_on_c, 0, 77, 0
2, 10710, Note_on_c, 0, 78, 78
2, 10848, Note_on_c, 0, 78, 0
2, 10848, Note_on_c, 0, 80, 78
2, 10937, Note_on_c, 0, 80, 0
2, 10944, Note_on_c, 0, 73, 78
2, 11077, Note_on_c, 0, 73, 0
2, 11232, Note_on_c, 0, 76, 78
2, 11351, Note_on_c, 0, 76, 0
2, 11352, Note_on_c, 0, 78, 78
2, 11375, Note_on_c, 0, 78, 0
2, 11376, Note_on_c, 0, 76, 78
2, 11399, Note_on_c, 0, 76, 0
2, 11400, Note_on_c, 0, 75, 78
2, 11423, Note_on_c, 0, 75, 0
2, 11424, Note_on_c, 0, 76, 78
2, 11447, Note_on_c, 0, 76, 0
2, 11448, Note_on_c, 0, 78, 78
2, 11471, Note_on_c, 0, 78, 0
2, 11472, Note_on_c, 0, 80, 78
2, 11495, Note_on_c, 0, 80, 0
2, 11496, Note_on_c, 0, 81, 78
2, 11519, Note_on_c, 0, 81, 0
2, 11520, Note_on_c, 0, 83, 94
2, 11559, Note_on_c, 0, 83, 0
2, 11616, Note_on_c, 0, 83, 78
2, 11655, Note_on_c, 0, 83, 0
2, 11712, Note_on_c, 0, 83, 78
2, 11751, Note_on_c, 0, 83, 0
2, 11808, Note_on_c, 0, 76, 78
2, 11927, Note_on_c, 0, 76, 0
2, 11928, Note_on_c, 0, 78, 80
2, 11951, Note_on_c, 0, 78, 0
2, 11952, Note_on_c, 0, 76, 80
2, 11975, Note_on_c, 0, 76, 0
2, 11976, Note_on_c, 0, 75, 80
2, 11999, Note_on_c, 0, 75, 0
2, 12000, Note_on_c, 0, 76, 81
2, 12023, Note_on_c, 0, 76, 0
2, 12024, Note_on_c, 0, 78, 81
2, 12047, Note_on_c, 0, 78, 0
2, 12048, Note_on_c, 0, 80, 82
2, 12071, Note_on_c, 0, 80, 0
2, 12072, Note_on_c, 0, 81, 82
2, 12084, Note_on_c, 0, 81, 0
2, 12084, Note_on_c, 0, 83, 82
2, 12096, Note_on_c, 0, 83, 0
2, 12096, Note_on_c, 0, 85, 99
2, 12135, Note_on_c, 0, 85, 0
2, 12192, Note_on_c, 0, 85, 83
2, 12231, Note_on_c, 0, 85, 0
2, 12288, Note_on_c, 0, 85, 83
2, 12327, Note_on_c, 0, 85, 0
2, 12384, Note_on_c, 0, 83, 83
2, 12503, Note_on_c, 0, 83, 0
2, 12504, Note_on_c, 0, 85, 83
2, 12527, Note_on_c, 0, 85, 0
2, 12528, Note_on_c, 0, 83, 83
2, 12551, Note_on_c, 0, 83, 0
2, 12552, Note_on_c, 0, 82, 83
2, 12575, Note_on_c, 0, 82, 0
2, 12576, Note_on_c, 0, 83, 83
2, 12599, Note_on_c, 0, 83, 0
2, 12600, Note_on_c, 0, 85, 83
2, 12623, Note_on_c, 0, 85, 0
2, 12624, Note_on_c, 0, 83, 83
2, 12647, Note_on_c, 0, 83, 0
2, 12648, Note_on_c, 0, 81, 83
2, 12671, Note_on_c, 0, 81, 0
2, 12672, Note_on_c, 0, 80, 83
2, 12717, Note_on_c, 0, 80, 0
2, 12768, Note_on_c, 0, 78, 81
2, 12813, Note_on_c, 0, 78, 0
2, 12864, Note_on_c, 0, 76, 79
2, 12909, Note_on_c, 0, 76, 0
2, 12960, Note_on_c, 0, 83, 71
2, 13079, Note_on_c, 0, 83, 0
2, 13080, Note_on_c, 0, 85, 71
2, 13103, Note_on_c, 0, 85, 0
2, 13104, Note_on_c, 0, 83, 71
2, 13127, Note_on_c, 0, 83, 0
2, 13128, Note_on_c, 0, 82, 71
2, 13151, Note_on_c, 0, 82, 0
2, 13152, Note_on_c, 0, 83, 71
2, 13175, Note_on_c, 0, 83, 0
2, 13176, Note_on_c, 0, 85, 71
2, 13199, Note_on_c, 0, 85, 0
2, 13200, Note_on_c, 0, 83, 71
2, 13223, Note_on_c, 0, 83, 0
2, 13224, Note_on_c, 0, 81, 71
2, 13247, Note_on_c, 0, 81, 0
2, 13248, Note_on_c, 0, 80, 71
2, 13271, Note_on_c, 0, 80, 0
2, 13272, Note_on_c, 0, 83, 71
2, 13295, Note_on_c, 0, 83, 0
2, 13296, Note_on_c, 0, 81, 71
2, 13319, Note_on_c, 0, 81, 0
2, 13320, Note_on_c, 0, 80, 71
2, 13343, Note_on_c, 0, 80, 0
2, 13344, Note_on_c, 0, 78, 71
2, 13367, Note_on_c, 0, 78, 0
2, 13368, Note_on_c, 0, 81, 71
2, 13391, Note_on_c, 0, 81, 0
2, 13392, Note_on_c, 0, 80, 71
2, 13415, Note_on_c, 0, 80, 0
2, 13416, Note_on_c, 0, 78, 71
2, 13439, Note_on_c, 0, 78, 0
2, 13440, Note_on_c, 0, 76, 71
2, 13463, Note_on_c, 0, 76, 0
2, 13464, Note_on_c, 0, 80, 71
2, 13487, Note_on_c, 0, 80, 0
2, 13488, Note_on_c, 0, 78, 71
2, 13511, Note_on_c, 0, 78, 0
2, 13512, Note_on_c, 0, 76, 71
2, 13535, Note_on_c, 0, 76, 0
2, 13536, Note_on_c, 0, 75, 71
2, 13625, Note_on_c, 0, 75, 0
2, 13632, Note_on_c, 0, 73, 71
2, 13721, Note_on_c, 0, 73, 0
2, 13728, Note_on_c, 0, 85, 71
2, 13817, Note_on_c, 0, 85, 0
2, 13824, Note_on_c, 0, 76, 71
2, 14001, Note_on_c, 0, 76, 0
2, 14016, Note_on_c, 0, 80, 71
2, 14039, Note_on_c, 0, 80, 0
2, 14040, Note_on_c, 0, 78, 71
2, 14085, Note_on_c, 0, 78, 0
2, 14088, Note_on_c, 0, 76, 71
2, 14111, Note_on_c, 0, 76, 0
2, 14112, Note_on_c, 0, 76, 71
2, 14201, Note_on_c, 0, 76, 0
2, 14304, Note_on_c, 0, 84, 71
2, 14327, Note_on_c, 0, 84, 0
2, 14328, Note_on_c, 0, 85, 71
2, 14351, Note_on_c, 0, 85, 0
2, 14352, Note_on_c, 0, 84, 71
2, 14375, Note_on_c, 0, 84, 0
2, 14376, Note_on_c, 0, 85, 71
2, 14399, Note_on_c, 0, 85, 0
2, 14400, Note_on_c, 0, 76, 71
2, 14577, Note_on_c, 0, 76, 0
2, 14592, Note_on_c, 0, 80, 83
2, 14615, Note_on_c, 0, 80, 0
2, 14616, Note_on_c, 0, 78, 82
2, 14661, Note_on_c, 0, 78, 0
2, 14664, Note_on_c, 0, 76, 82
2, 14687, Note_on_c, 0, 76, 0
2, 14688, Note_on_c, 0, 76, 81
2, 14688, Note_on_c, 0, 73, 81
2, 14777, Note_on_c, 0, 76, 0
2, 14777, Note_on_c, 0, 73, 0
2, 14784, Note_on_c, 0, 75, 80
2, 14784, Note_on_c, 0, 72, 80
2, 14873, Note_on_c, 0, 75, 0
2, 14873, Note_on_c, 0, 72, 0
2, 14880, Note_on_c, 0, 73, 79
2, 14969, Note_on_c, 0, 73, 0
2, 14976, Note_on_c, 0, 76, 78
2, 14988, Note_on_c, 0, 76, 0
2, 14988, Note_on_c, 0, 75, 78
2, 15000, Note_on_c, 0, 75, 0
2, 15000, Note_on_c, 0, 73, 78
2, 15012, Note_on_c, 0, 73, 0
2, 15012, Note_on_c, 0, 75, 78
2, 15065, Note_on_c, 0, 75, 0
2, 15072, Note_on_c, 0, 78, 77
2, 15161, Note_on_c, 0, 78, 0
2, 15168, Note_on_c, 0, 81, 75
2, 15257, Note_on_c, 0, 81, 0
2, 15264, Note_on_c, 0, 73, 74
2, 15441, Note_on_c, 0, 73, 0
2, 15456, Note_on_c, 0, 72, 72
2, 15545, Note_on_c, 0, 72, 0
2, 15552, Note_on_c, 0, 73, 78
2, 15671, Note_on_c, 0, 73, 0
2, 15672, Note_on_c, 0, 75, 78
2, 15695, Note_on_c, 0, 75, 0
2, 15696, Note_on_c, 0, 73, 78
2, 15719, Note_on_c, 0, 73, 0
2, 15720, Note_on_c, 0, 72, 78
2, 15743, Note_on_c, 0, 72, 0
2, 15744, Note_on_c, 0, 73, 78
2, 15767, Note_on_c, 0, 73, 0
2, 15768, Note_on_c, 0, 75, 78
2, 15791, Note_on_c, 0, 75, 0
2, 15792, Note_on_c, 0, 76, 78
2, 15815, Note_on_c, 0, 76, 0
2, 15816, Note_on_c, 0, 78, 78
2, 15839, Note_on_c, 0, 78, 0
2, 15840, Note_on_c, 0, 80, 94
2, 15879, Note_on_c, 0, 80, 0
2, 15936, Note_on_c, 0, 80, 78
2, 15975, Note_on_c, 0, 80, 0
2, 16032, Note_on_c, 0, 80, 78
2, 16071, Note_on_c, 0, 80, 0
2, 16128, Note_on_c, 0, 79, 78
2, 16320, Note_on_c, 0, 79, 0
2, 16320, Note_on_c, 0, 80, 78
2, 16409, Note_on_c, 0, 80, 0
2, 16416, Note_on_c, 0, 75, 78
2, 16696, Note_on_c, 0, 75, 0
2, 16704, Note_on_c, 0, 78, 78
2, 16845, Note_on_c, 0, 78, 0
2, 16848, Note_on_c, 0, 81, 78
2, 16871, Note_on_c, 0, 81, 0
2, 16872, Note_on_c, 0, 80, 78
2, 16895, Note_on_c, 0, 80, 0
2, 16896, Note_on_c, 0, 78, 78
2, 16919, Note_on_c, 0, 78, 0
2, 16920, Note_on_c, 0, 76, 78
2, 16943, Note_on_c, 0, 76, 0
2, 16944, Note_on_c, 0, 75, 78
2, 16967, Note_on_c, 0, 75, 0
2, 16968, Note_on_c, 0, 78, 78
2, 16991, Note_on_c, 0, 78, 0
2, 16992, Note_on_c, 0, 76, 78
2, 17081, Note_on_c, 0, 76, 0
2, 17088, Note_on_c, 0, 73, 78
2, 17177, Note_on_c, 0, 73, 0
2, 17184, Note_on_c, 0, 73, 78
2, 17273, Note_on_c, 0, 73, 0
2, 17280, Note_on_c, 0, 80, 78
2, 17298, Note_on_c, 0, 80, 0
2, 17298, Note_on_c, 0, 78, 78
2, 17316, Note_on_c, 0, 78, 0
2, 17316, Note_on_c, 0, 77, 78
2, 17334, Note_on_c, 0, 77, 0
2, 17334, Note_on_c, 0, 78, 78
2, 17472, Note_on_c, 0, 78, 0
2, 17472, Note_on_c, 0, 80, 78
2, 17561, Note_on_c, 0, 80, 0
2, 17568, Note_on_c, 0, 73, 78
2, 17701, Note_on_c, 0, 73, 0
2, 17856, Note_on_c, 0, 68, 71
2, 17856, Note_on_c, 0, 65, 71
2, 18048, Note_on_c, 0, 68, 0
2, 18048, Note_on_c, 0, 65, 0
2, 18048, Note_on_c, 0, 70, 71
2, 18048, Note_on_c, 0, 66, 71
2, 18137, Note_on_c, 0, 70, 0
2, 18137, Note_on_c, 0, 66, 0
2, 18144, Note_on_c, 0, 68, 71
2, 18144, Note_on_c, 0, 65, 71
2, 18233, Note_on_c, 0, 68, 0
2, 18233, Note_on_c, 0, 65, 0
2, 18240, Note_on_c, 0, 66, 71
2, 18240, Note_on_c, 0, 63, 71
2, 18329, Note_on_c, 0, 66, 0
2, 18329, Note_on_c, 0, 63, 0
2, 18336, Note_on_c, 0, 65, 71
2, 18336, Note_on_c, 0, 61, 71
2, 18425, Note_on_c, 0, 65, 0
2, 18425, Note_on_c, 0, 61, 0
2, 18432, Note_on_c, 0, 63, 71
2, 18471, Note_on_c, 0, 63, 0
2, 18528, Note_on_c, 0, 63, 71
2, 18624, Note_on_c, 0, 63, 0
2, 18624, Note_on_c, 0, 65, 71
2, 18713, Note_on_c, 0, 65, 0
2, 18720, Note_on_c, 0, 68, 71
2, 18809, Note_on_c, 0, 68, 0
2, 18816, Note_on_c, 0, 66, 71
2, 18828, Note_on_c, 0, 66, 0
2, 18828, Note_on_c, 0, 68, 71
2, 18840, Note_on_c, 0, 68, 0
2, 18840, Note_on_c, 0, 66, 71
2, 18905, Note_on_c, 0, 66, 0
2, 18912, Note_on_c, 0, 65, 71
2, 19001, Note_on_c, 0, 65, 0
2, 19008, Note_on_c, 0, 63, 71
2, 19185, Note_on_c, 0, 63, 0
2, 19200, Note_on_c, 0, 66, 71
2, 19223, Note_on_c, 0, 66, 0
2, 19224, Note_on_c, 0, 65, 71
2, 19291, Note_on_c, 0, 65, 0
2, 19296, Note_on_c, 0, 63, 71
2, 19385, Note_on_c, 0, 63, 0
2, 19392, Note_on_c, 0, 68, 71
2, 19481, Note_on_c, 0, 68, 0
2, 19488, Note_on_c, 0, 68, 71
2, 19577, Note_on_c, 0, 68, 0
2, 19584, Note_on_c, 0, 63, 58
2, 19761, Note_on_c, 0, 63, 0
2, 19776, Note_on_c, 0, 66, 58
2, 19799, Note_on_c, 0, 66, 0
2, 19800, Note_on_c, 0, 65, 58
2, 19867, Note_on_c, 0, 65, 0
2, 19872, Note_on_c, 0, 63, 58
2, 19961, Note_on_c, 0, 63, 0
2, 19968, Note_on_c, 0, 68, 71
2, 20057, Note_on_c, 0, 68, 0
2, 20064, Note_on_c, 0, 66, 71
2, 20153, Note_on_c, 0, 66, 0
2, 20160, Note_on_c, 0, 64, 71
2, 20256, Note_on_c, 0, 64, 0
2, 20256, Note_on_c, 0, 65, 71
2, 20345, Note_on_c, 0, 65, 0
2, 20352, Note_on_c, 0, 73, 71
2, 20397, Note_on_c, 0, 73, 0
2, 20400, Note_on_c, 0, 70, 71
2, 20445, Note_on_c, 0, 70, 0
2, 20448, Note_on_c, 0, 68, 71
2, 20537, Note_on_c, 0, 68, 0
2, 20544, Note_on_c, 0, 75, 71
2, 20633, Note_on_c, 0, 75, 0
2, 20640, Note_on_c, 0, 72, 71
2, 20729, Note_on_c, 0, 72, 0
2, 20736, Note_on_c, 0, 73, 71
2, 20825, Note_on_c, 0, 73, 0
2, 20832, Note_on_c, 0, 70, 71
2, 20921, Note_on_c, 0, 70, 0
2, 20928, Note_on_c, 0, 67, 71
2, 21017, Note_on_c, 0, 67, 0
2, 21024, Note_on_c, 0, 67, 71
2, 21216, Note_on_c, 0, 67, 0
2, 21216, Note_on_c, 0, 68, 71
2, 21305, Note_on_c, 0, 68, 0
2, 21312, Note_on_c, 0, 68, 71
2, 21312, Note_on_c, 0, 65, 71
2, 21504, Note_on_c, 0, 68, 0
2, 21504, Note_on_c, 0, 65, 0
2, 21504, Note_on_c, 0, 70, 71
2, 21504, Note_on_c, 0, 66, 71
2, 21593, Note_on_c, 0, 70, 0
2, 21593, Note_on_c, 0, 66, 0
2, 21600, Note_on_c, 0, 68, 71
2, 21600, Note_on_c, 0, 65, 71
2, 21689, Note_on_c, 0, 68, 0
2, 21689, Note_on_c, 0, 65, 0
2, 21696, Note_on_c, 0, 66, 71
2, 21696, Note_on_c, 0, 63, 71
2, 21785, Note_on_c, 0, 66, 0
2, 21785, Note_on_c, 0, 63, 0
2, 21792, Note_on_c, 0, 65, 71
2, 21792, Note_on_c, 0, 61, 71
2, 21881, Note_on_c, 0, 65, 0
2, 21881, Note_on_c, 0, 61, 0
2, 21888, Note_on_c, 0, 63, 71
2, 21927, Note_on_c, 0, 63, 0
2, 21984, Note_on_c, 0, 63, 71
2, 22080, Note_on_c, 0, 63, 0
2, 22080, Note_on_c, 0, 65, 71
2, 22169, Note_on_c, 0, 65, 0
2, 22176, Note_on_c, 0, 68, 71
2, 22265, Note_on_c, 0, 68, 0
2, 22272, Note_on_c, 0, 66, 71
2, 22284, Note_on_c, 0, 66, 0
2, 22284, Note_on_c, 0, 68, 71
2, 22296, Note_on_c, 0, 68, 0
2, 22296, Note_on_c, 0, 66, 71
2, 22361, Note_on_c, 0, 66, 0
2, 22368, Note_on_c, 0, 65, 71
2, 22457, Note_on_c, 0, 65, 0
2, 22464, Note_on_c, 0, 63, 71
2, 22641, Note_on_c, 0, 63, 0
2, 22656, Note_on_c, 0, 66, 71
2, 22679, Note_on_c, 0, 66, 0
2, 22680, Note_on_c, 0, 65, 71
2, 22747, Note_on_c, 0, 65, 0
2, 22752, Note_on_c, 0, 63, 71
2, 22841, Note_on_c, 0, 63, 0
2, 22848, Note_on_c, 0, 68, 71
2, 22937, Note_on_c, 0, 68, 0
2, 22944, Note_on_c, 0, 68, 71
2, 23033, Note_on_c, 0, 68, 0
2, 23040, Note_on_c, 0, 63, 58
2, 23217, Note_on_c, 0, 63, 0
2, 23232, Note_on_c, 0, 66, 58
2, 23255, Note_on_c, 0, 66, 0
2, 23256, Note_on_c, 0, 65, 58
2, 23323, Note_on_c, 0, 65, 0
2, 23328, Note_on_c, 0, 63, 58
2, 23417, Note_on_c, 0, 63, 0
2, 23424, Note_on_c, 0, 68, 71
2, 23513, Note_on_c, 0, 68, 0
2, 23520, Note_on_c, 0, 66, 71
2, 23609, Note_on_c, 0, 66, 0
2, 23616, Note_on_c, 0, 64, 71
2, 23712, Note_on_c, 0, 64, 0
2, 23712, Note_on_c, 0, 65, 71
2, 23801, Note_on_c, 0, 65, 0
2, 23808, Note_on_c, 0, 73, 71
2, 23853, Note_on_c, 0, 73, 0
2, 23856, Note_on_c, 0, 70, 71
2, 23901, Note_on_c, 0, 70, 0
2, 23904, Note_on_c, 0, 68, 71
2, 23993, Note_on_c, 0, 68, 0
2, 24000, Note_on_c, 0, 75, 71
2, 24089, Note_on_c, 0, 75, 0
2, 24096, Note_on_c, 0, 72, 71
2, 24185, Note_on_c, 0, 72, 0
2, 24192, Note_on_c, 0, 73, 71
2, 24281, Note_on_c, 0, 73, 0
2, 24288, Note_on_c, 0, 70, 71
2, 24377, Note_on_c, 0, 70, 0
2, 24384, Note_on_c, 0, 67, 71
2, 24473, Note_on_c, 0, 67, 0
2, 24480, Note_on_c, 0, 67, 71
2, 24672, Note_on_c, 0, 67, 0
2, 24672, Note_on_c, 0, 68, 71
2, 24761, Note_on_c, 0, 68, 0
2, 24768, Note_on_c, 0, 68, 71
2, 24945, Note_on_c, 0, 68, 0
2, 24960, Note_on_c, 0, 73, 71
2, 24972, Note_on_c, 0, 73, 0
2, 24972, Note_on_c, 0, 71, 71
2, 24984, Note_on_c, 0, 71, 0
2, 24984, Note_on_c, 0, 70, 71
2, 24996, Note_on_c, 0, 70, 0
2, 24996, Note_on_c, 0, 71, 71
2, 25049, Note_on_c, 0, 71, 0
2, 25056, Note_on_c, 0, 62, 71
2, 25233, Note_on_c, 0, 62, 0
2, 25248, Note_on_c, 0, 63, 71
2, 25293, Note_on_c, 0, 63, 0
2, 25296, Note_on_c, 0, 64, 71
2, 25341, Note_on_c, 0, 64, 0
2, 25344, Note_on_c, 0, 65, 71
2, 25389, Note_on_c, 0, 65, 0
2, 25392, Note_on_c, 0, 66, 71
2, 25437, Note_on_c, 0, 66, 0
2, 25440, Note_on_c, 0, 67, 71
2, 25485, Note_on_c, 0, 67, 0
2, 25488, Note_on_c, 0, 68, 71
2, 25533, Note_on_c, 0, 68, 0
2, 25536, Note_on_c, 0, 69, 71
2, 25581, Note_on_c, 0, 69, 0
2, 25584, Note_on_c, 0, 70, 71
2, 25629, Note_on_c, 0, 70, 0
2, 25632, Note_on_c, 0, 61, 71
2, 25721, Note_on_c, 0, 61, 0
2, 25728, Note_on_c, 0, 60, 71
2, 25740, Note_on_c, 0, 60, 0
2, 25740, Note_on_c, 0, 61, 71
2, 25752, Note_on_c, 0, 61, 0
2, 25752, Note_on_c, 0, 60, 71
2, 25817, Note_on_c, 0, 60, 0
2, 25824, Note_on_c, 0, 61, 71
2, 25854, Note_on_c, 0, 61, 0
2, 25856, Note_on_c, 0, 65, 71
2, 25886, Note_on_c, 0, 65, 0
2, 25888, Note_on_c, 0, 68, 71
2, 25918, Note_on_c, 0, 68, 0
2, 25920, Note_on_c, 0, 68, 71
2, 26009, Note_on_c, 0, 68, 0
2, 26016, Note_on_c, 0, 66, 71
2, 26016, Note_on_c, 0, 63, 71
2, 26105, Note_on_c, 0, 66, 0
2, 26105, Note_on_c, 0, 63, 0
2, 26112, Note_on_c, 0, 65, 71
2, 26112, Note_on_c, 0, 61, 71
2, 26201, Note_on_c, 0, 65, 0
2, 26201, Note_on_c, 0, 61, 0
2, 26208, Note_on_c, 0, 65, 71
2, 26208, Note_on_c, 0, 61, 71
2, 26400, Note_on_c, 0, 65, 0
2, 26400, Note_on_c, 0, 61, 0
2, 26400, Note_on_c, 0, 63, 71
2, 26400, Note_on_c, 0, 60, 71
2, 26489, Note_on_c, 0, 63, 0
2, 26489, Note_on_c, 0, 60, 0
2, 26496, Note_on_c, 0, 68, 71
2, 26496, Note_on_c, 0, 65, 71
2, 26673, Note_on_c, 0, 68, 0
2, 26673, Note_on_c, 0, 65, 0
2, 26688, Note_on_c, 0, 70, 71
2, 26688, Note_on_c, 0, 66, 71
2, 26777, Note_on_c, 0, 70, 0
2, 26777, Note_on_c, 0, 66, 0
2, 26784, Note_on_c, 0, 67, 71
2, 26961, Note_on_c, 0, 67, 0
2, 26976, Note_on_c, 0, 68, 71
2, 27065, Note_on_c, 0, 68, 0
2, 27072, Note_on_c, 0, 65, 71
2, 27249, Note_on_c, 0, 65, 0
2, 27264, Note_on_c, 0, 66, 71
2, 27353, Note_on_c, 0, 66, 0
2, 27360, Note_on_c, 0, 66, 71
2, 27449, Note_on_c, 0, 66, 0
2, 27456, Note_on_c, 0, 65, 71
2, 27468, Note_on_c, 0, 65, 0
2, 27468, Note_on_c, 0, 63, 71
2, 27480, Note_on_c, 0, 63, 0
2, 27480, Note_on_c, 0, 62, 71
2, 27492, Note_on_c, 0, 62, 0
2, 27492, Note_on_c, 0, 63, 71
2, 27545, Note_on_c, 0, 63, 0
2, 27552, Note_on_c, 0, 65, 71
2, 27641, Note_on_c, 0, 65, 0
2, 27648, Note_on_c, 0, 63, 71
2, 27744, Note_on_c, 0, 63, 0
2, 27744, Note_on_c, 0, 66, 71
2, 27783, Note_on_c, 0, 66, 0
2, 27840, Note_on_c, 0, 60, 71
2, 27879, Note_on_c, 0, 60, 0
2, 27936, Note_on_c, 0, 61, 71
2, 28113, Note_on_c, 0, 61, 0
2, 28224, Note_on_c, 0, 68, 71
2, 28401, Note_on_c, 0, 68, 0
2, 28416, Note_on_c, 0, 73, 71
2, 28428, Note_on_c, 0, 73, 0
2, 28428, Note_on_c, 0, 71, 71
2, 28440, Note_on_c, 0, 71, 0
2, 28440, Note_on_c, 0, 70, 71
2, 28452, Note_on_c, 0, 70, 0
2, 28452, Note_on_c, 0, 71, 71
2, 28505, Note_on_c, 0, 71, 0
2, 28512, Note_on_c, 0, 62, 71
2, 28689, Note_on_c, 0, 62, 0
2, 28704, Note_on_c, 0, 63, 71
2, 28749, Note_on_c, 0, 63, 0
2, 28752, Note_on_c, 0, 64, 71
2, 28797, Note_on_c, 0, 64, 0
2, 28800, Note_on_c, 0, 65, 71
2, 28845, Note_on_c, 0, 65, 0
2, 28848, Note_on_c, 0, 66, 71
2, 28893, Note_on_c, 0, 66, 0
2, 28896, Note_on_c, 0, 67, 71
2, 28941, Note_on_c, 0, 67, 0
2, 28944, Note_on_c, 0, 68, 71
2, 28989, Note_on_c, 0, 68, 0
2, 28992, Note_on_c, 0, 69, 71
2, 29037, Note_on_c, 0, 69, 0
2, 29040, Note_on_c, 0, 70, 71
2, 29085, Note_on_c, 0, 70, 0
2, 29088, Note_on_c, 0, 61, 71
2, 29177, Note_on_c, 0, 61, 0
2, 29184, Note_on_c, 0, 60, 71
2, 29196, Note_on_c, 0, 60, 0
2, 29196, Note_on_c, 0, 61, 71
2, 29208, Note_on_c, 0, 61, 0
2, 29208, Note_on_c, 0, 60, 71
2, 29273, Note_on_c, 0, 60, 0
2, 29280, Note_on_c, 0, 61, 71
2, 29310, Note_on_c, 0, 61, 0
2, 29312, Note_on_c, 0, 65, 71
2, 29342, Note_on_c, 0, 65, 0
2, 29344, Note_on_c, 0, 68, 71
2, 29374, Note_on_c, 0, 68, 0
2, 29376, Note_on_c, 0, 68, 71
2, 29465, Note_on_c, 0, 68, 0
2, 29472, Note_on_c, 0, 66, 71
2, 29472, Note_on_c, 0, 63, 71
2, 29561, Note_on_c, 0, 66, 0
2, 29561, Note_on_c, 0, 63, 0
2, 29568, Note_on_c, 0, 65, 71
2, 29568, Note_on_c, 0, 61, 71
2, 29657, Note_on_c, 0, 65, 0
2, 29657, Note_on_c, 0, 61, 0
2, 29664, Note_on_c, 0, 65, 71
2, 29664, Note_on_c, 0, 61, 71
2, 29856, Note_on_c, 0, 65, 0
2, 29856, Note_on_c, 0, 61, 0
2, 29856, Note_on_c, 0, 63, 71
2, 29856, Note_on_c, 0, 60, 71
2, 29945, Note_on_c, 0, 63, 0
2, 29945, Note_on_c, 0, 60, 0
2, 29952, Note_on_c, 0, 68, 71
2, 29952, Note_on_c, 0, 65, 71
2, 30129, Note_on_c, 0, 68, 0
2, 30129, Note_on_c, 0, 65, 0
2, 30144, Note_on_c, 0, 70, 71
2, 30144, Note_on_c, 0, 66, 71
2, 30233, Note_on_c, 0, 70, 0
2, 30233, Note_on_c, 0, 66, 0
2, 30240, Note_on_c, 0, 67, 71
2, 30417, Note_on_c, 0, 67, 0
2, 30432, Note_on_c, 0, 68, 71
2, 30521, Note_on_c, 0, 68, 0
2, 30528, Note_on_c, 0, 65, 71
2, 30705, Note_on_c, 0, 65, 0
2, 30720, Note_on_c, 0, 66, 71
2, 30809, Note_on_c, 0, 66, 0
2, 30816, Note_on_c, 0, 66, 71
2, 30905, Note_on_c, 0, 66, 0
2, 30912, Note_on_c, 0, 65, 71
2, 30924, Note_on_c, 0, 65, 0
2, 30924, Note_on_c, 0, 63, 71
2, 30936, Note_on_c, 0, 63, 0
2, 30936, Note_on_c, 0, 62, 71
2, 30948, Note_on_c, 0, 62, 0
2, 30948, Note_on_c, 0, 63, 71
2, 31001, Note_on_c, 0, 63, 0
2, 31008, Note_on_c, 0, 65, 71
2, 31097, Note_on_c, 0, 65, 0
2, 31104, Note_on_c, 0, 63, 71
2, 31200, Note_on_c, 0, 63, 0
2, 31200, Note_on_c, 0, 66, 71
2, 31239, Note_on_c, 0, 66, 0
2, 31296, Note_on_c, 0, 60, 71
2, 31335, Note_on_c, 0, 60, 0
2, 31392, Note_on_c, 0, 61, 71
2, 31569, Note_on_c, 0, 61, 0
2, 31680, Note_on_c, 0, 73, 78
2, 31799, Note_on_c, 0, 73, 0
2, 31800, Note_on_c, 0, 75, 78
2, 31823, Note_on_c, 0, 75, 0
2, 31824, Note_on_c, 0, 73, 78
2, 31847, Note_on_c, 0, 73, 0
2, 31848, Note_on_c, 0, 72, 78
2, 31871, Note_on_c, 0, 72, 0
2, 31872, Note_on_c, 0, 73, 78
2, 31895, Note_on_c, 0, 73, 0
2, 31896, Note_on_c, 0, 75, 78
2, 31919, Note_on_c, 0, 75, 0
2, 31920, Note_on_c, 0, 76, 78
2, 31943, Note_on_c, 0, 76, 0
2, 31944, Note_on_c, 0, 78, 78
2, 31967, Note_on_c, 0, 78, 0
2, 31968, Note_on_c, 0, 80, 94
2, 32007, Note_on_c, 0, 80, 0
2, 32064, Note_on_c, 0, 80, 78
2, 32103, Note_on_c, 0, 80, 0
2, 32160, Note_on_c, 0, 80, 78
2, 32199, Note_on_c, 0, 80, 0
2, 32256, Note_on_c, 0, 79, 78
2, 32448, Note_on_c, 0, 79, 0
2, 32448, Note_on_c, 0, 80, 78
2, 32537, Note_on_c, 0, 80, 0
2, 32544, Note_on_c, 0, 75, 78
2, 32824, Note_on_c, 0, 75, 0
2, 32832, Note_on_c, 0, 78, 78
2, 32973, Note_on_c, 0, 78, 0
2, 32976, Note_on_c, 0, 81, 78
2, 32999, Note_on_c, 0, 81, 0
2, 33000, Note_on_c, 0, 80, 78
2, 33023, Note_on_c, 0, 80, 0
2, 33024, Note_on_c, 0, 78, 78
2, 33047, Note_on_c, 0, 78, 0
2, 33048, Note_on_c, 0, 76, 78
2, 33071, Note_on_c, 0, 76, 0
2, 33072, Note_on_c, 0, 75, 78
2, 33095, Note_on_c, 0, 75, 0
2, 33096, Note_on_c, 0, 78, 78
2, 33119, Note_on_c, 0, 78, 0
2, 33120, Note_on_c, 0, 76, 78
2, 33209, Note_on_c, 0, 76, 0
2, 33216, Note_on_c, 0, 73, 78
2, 33305, Note_on_c, 0, 73, 0
2, 33312, Note_on_c, 0, 73, 78
2, 33401, Note_on_c, 0, 73, 0
2, 33408, Note_on_c, 0, 80, 78
2, 33426, Note_on_c, 0, 80, 0
2, 33426, Note_on_c, 0, 78, 78
2, 33444, Note_on_c, 0, 78, 0
2, 33444, Note_on_c, 0, 77, 78
2, 33462, Note_on_c, 0, 77, 0
2, 33462, Note_on_c, 0, 78, 78
2, 33600, Note_on_c, 0, 78, 0
2, 33600, Note_on_c, 0, 80, 78
2, 33639, Note_on_c, 0, 80, 0
2, 33696, Note_on_c, 0, 73, 78
2, 33829, Note_on_c, 0, 73, 0
2, 33984, Note_on_c, 0, 73, 78
2, 34103, Note_on_c, 0, 73, 0
2, 34104, Note_on_c, 0, 75, 78
2, 34127, Note_on_c, 0, 75, 0
2, 34128, Note_on_c, 0, 73, 78
2, 34151, Note_on_c, 0, 73, 0
2, 34152, Note_on_c, 0, 72, 78
2, 34175, Note_on_c, 0, 72, 0
2, 34176, Note_on_c, 0, 73, 78
2, 34199, Note_on_c, 0, 73, 0
2, 34200, Note_on_c, 0, 75, 78
2, 34223, Note_on_c, 0, 75, 0
2, 34224, Note_on_c, 0, 76, 78
2, 34247, Note_on_c, 0, 76, 0
2, 34248, Note_on_c, 0, 78, 78
2, 34271, Note_on_c, 0, 78, 0
2, 34272, Note_on_c, 0, 80, 94
2, 34311, Note_on_c, 0, 80, 0
2, 34368, Note_on_c, 0, 80, 78
2, 34407, Note_on_c, 0, 80, 0
2, 34464, Note_on_c, 0, 80, 78
2, 34503, Note_on_c, 0, 80, 0
2, 34560, Note_on_c, 0, 79, 78
2, 34752, Note_on_c, 0, 79, 0
2, 34752, Note_on_c, 0, 80, 78
2, 34841, Note_on_c, 0, 80, 0
2, 34848, Note_on_c, 0, 75, 78
2, 35128, Note_on_c, 0, 75, 0
2, 35136, Note_on_c, 0, 78, 78
2, 35277, Note_on_c, 0, 78, 0
2, 35280, Note_on_c, 0, 81, 78
2, 35303, Note_on_c, 0, 81, 0
2, 35304, Note_on_c, 0, 80, 78
2, 35327, Note_on_c, 0, 80, 0
2, 35328, Note_on_c, 0, 78, 78
2, 35351, Note_on_c, 0, 78, 0
2, 35352, Note_on_c, 0, 76, 78
2, 35375, Note_on_c, 0, 76, 0
2, 35376, Note_on_c, 0, 75, 78
2, 35399, Note_on_c, 0, 75, 0
2, 35400, Note_on_c, 0, 78, 78
2, 35423, Note_on_c, 0, 78, 0
2, 35424, Note_on_c, 0, 76, 78
2, 35513, Note_on_c, 0, 76, 0
2, 35520, Note_on_c, 0, 73, 78
2, 35609, Note_on_c, 0, 73, 0
2, 35616, Note_on_c, 0, 73, 78
2, 35705, Note_on_c, 0, 73, 0
2, 35712, Note_on_c, 0, 80, 78
2, 35730, Note_on_c, 0, 80, 0
2, 35730, Note_on_c, 0, 78, 78
2, 35748, Note_on_c, 0, 78, 0
2, 35748, Note_on_c, 0, 77, 78
2, 35766, Note_on_c, 0, 77, 0
2, 35766, Note_on_c, 0, 78, 78
2, 35904, Note_on_c, 0, 78, 0
2, 35904, Note_on_c, 0, 80, 78
2, 35943, Note_on_c, 0, 80, 0
2, 36000, Note_on_c, 0, 73, 78
2, 36133, Note_on_c, 0, 73, 0
2, 36288, Note_on_c, 0, 76, 78
2, 36407, Note_on_c, 0, 76, 0
2, 36408, Note_on_c, 0, 78, 78
2, 36431, Note_on_c, 0, 78, 0
2, 36432, Note_on_c, 0, 76, 78
2, 36455, Note_on_c, 0, 76, 0
2, 36456, Note_on_c, 0, 75, 78
2, 36479, Note_on_c, 0, 75, 0
2, 36480, Note_on_c, 0, 76, 78
2, 36503, Note_on_c, 0, 76, 0
2, 36504, Note_on_c, 0, 78, 78
2, 36527, Note_on_c, 0, 78, 0
2, 36528, Note_on_c, 0, 80, 78
2, 36551, Note_on_c, 0, 80, 0
2, 36552, Note_on_c, 0, 81, 78
2, 36575, Note_on_c, 0, 81, 0
2, 36576, Note_on_c, 0, 83, 94
2, 36615, Note_on_c, 0, 83, 0
2, 36672, Note_on_c, 0, 83, 78
2, 36711, Note_on_c, 0, 83, 0
2, 36768, Note_on_c, 0, 83, 78
2, 36807, Note_on_c, 0, 83, 0
2, 36864, Note_on_c, 0, 76, 78
2, 36983, Note_on_c, 0, 76, 0
2, 36984, Note_on_c, 0, 78, 80
2, 37007, Note_on_c, 0, 78, 0
2, 37008, Note_on_c, 0, 76, 80
2, 37031, Note_on_c, 0, 76, 0
2, 37032, Note_on_c, 0, 75, 80
2, 37055, Note_on_c, 0, 75, 0
2, 37056, Note_on_c, 0, 76, 81
2, 37079, Note_on_c, 0, 76, 0
2, 37080, Note_on_c, 0, 78, 81
2, 37103, Note_on_c, 0, 78, 0
2, 37104, Note_on_c, 0, 80, 82
2, 37127, Note_on_c, 0, 80, 0
2, 37128, Note_on_c, 0, 81, 82
2, 37140, Note_on_c, 0, 81, 0
2, 37140, Note_on_c, 0, 83, 82
2, 37152, Note_on_c, 0, 83, 0
2, 37152, Note_on_c, 0, 85, 99
2, 37191, Note_on_c, 0, 85, 0
2, 37248, Note_on_c, 0, 85, 83
2, 37287, Note_on_c, 0, 85, 0
2, 37344, Note_on_c, 0, 85, 83
2, 37383, Note_on_c, 0, 85, 0
2, 37440, Note_on_c, 0, 83, 83
2, 37559, Note_on_c, 0, 83, 0
2, 37560, Note_on_c, 0, 85, 83
2, 37583, Note_on_c, 0, 85, 0
2, 37584, Note_on_c, 0, 83, 83
2, 37607, Note_on_c, 0, 83, 0
2, 37608, Note_on_c, 0, 82, 83
2, 37631, Note_on_c, 0, 82, 0
2, 37632, Note_on_c, 0, 83, 83
2, 37655, Note_on_c, 0, 83, 0
2, 37656, Note_on_c, 0, 85, 83
2, 37679, Note_on_c, 0, 85, 0
2, 37680, Note_on_c, 0, 83, 83
2, 37703, Note_on_c, 0, 83, 0
2, 37704, Note_on_c, 0, 81, 83
2, 37727, Note_on_c, 0, 81, 0
2, 37728, Note_on_c, 0, 80, 83
2, 37773, Note_on_c, 0, 80, 0
2, 37824, Note_on_c, 0, 78, 81
2, 37869, Note_on_c, 0, 78, 0
2, 37920, Note_on_c, 0, 76, 79
2, 37965, Note_on_c, 0, 76, 0
2, 38016, Note_on_c, 0, 83, 71
2, 38135, Note_on_c, 0, 83, 0
2, 38136, Note_on_c, 0, 85, 71
2, 38159, Note_on_c, 0, 85, 0
2, 38160, Note_on_c, 0, 83, 71
2, 38183, Note_on_c, 0, 83, 0
2, 38184, Note_on_c, 0, 82, 71
2, 38207, Note_on_c, 0, 82, 0
2, 38208, Note_on_c, 0, 83, 71
2, 38231, Note_on_c, 0, 83, 0
2, 38232, Note_on_c, 0, 85, 71
2, 38255, Note_on_c, 0, 85, 0
2, 38256, Note_on_c, 0, 83, 71
2, 38279, Note_on_c, 0, 83, 0
2, 38280, Note_on_c, 0, 81, 71
2, 38303, Note_on_c, 0, 81, 0
2, 38304, Note_on_c, 0, 80, 71
2, 38327, Note_on_c, 0, 80, 0
2, 38328, Note_on_c, 0, 83, 71
2, 38351, Note_on_c, 0, 83, 0
2, 38352, Note_on_c, 0, 81, 71
2, 38375, Note_on_c, 0, 81, 0
2, 38376, Note_on_c, 0, 80, 71
2, 38399, Note_on_c, 0, 80, 0
2, 38400, Note_on_c, 0, 78, 71
2, 38423, Note_on_c, 0, 78, 0
2, 38424, Note_on_c, 0, 81, 71
2, 38447, Note_on_c, 0, 81, 0
2, 38448, Note_on_c, 0, 80, 71
2, 38471, Note_on_c, 0, 80, 0
2, 38472, Note_on_c, 0, 78, 71
2, 38495, Note_on_c, 0, 78, 0
2, 38496, Note_on_c, 0, 76, 71
2, 38519, Note_on_c, 0, 76, 0
2, 38520, Note_on_c, 0, 80, 71
2, 38543, Note_on_c, 0, 80, 0
2, 38544, Note_on_c, 0, 78, 71
2, 38567, Note_on_c, 0, 78, 0
2, 38568, Note_on_c, 0, 76, 71
2, 38591, Note_on_c, 0, 76, 0
2, 38592, Note_on_c, 0, 75, 71
2, 38681, Note_on_c, 0, 75, 0
2, 38688, Note_on_c, 0, 73, 71
2, 38777, Note_on_c, 0, 73, 0
2, 38784, Note_on_c, 0, 85, 71
2, 38873, Note_on_c, 0, 85, 0
2, 38880, Note_on_c, 0, 76, 71
2, 39057, Note_on_c, 0, 76, 0
2, 39072, Note_on_c, 0, 80, 71
2, 39095, Note_on_c, 0, 80, 0
2, 39096, Note_on_c, 0, 78, 71
2, 39141, Note_on_c, 0, 78, 0
2, 39144, Note_on_c, 0, 76, 71
2, 39167, Note_on_c, 0, 76, 0
2, 39168, Note_on_c, 0, 76, 71
2, 39257, Note_on_c, 0, 76, 0
2, 39360, Note_on_c, 0, 84, 71
2, 39383, Note_on_c, 0, 84, 0
2, 39384, Note_on_c, 0, 85, 71
2, 39407, Note_on_c, 0, 85, 0
2, 39408, Note_on_c, 0, 84, 71
2, 39431, Note_on_c, 0, 84, 0
2, 39432, Note_on_c, 0, 85, 71
2, 39455, Note_on_c, 0, 85, 0
2, 39456, Note_on_c, 0, 76, 71
2, 39633, Note_on_c, 0, 76, 0
2, 39648, Note_on_c, 0, 80, 83
2, 39671, Note_on_c, 0, 80, 0
2, 39672, Note_on_c, 0, 78, 82
2, 39717, Note_on_c, 0, 78, 0
2, 39720, Note_on_c, 0, 76, 82
2, 39743, Note_on_c, 0, 76, 0
2, 39744, Note_on_c, 0, 76, 81
2, 39744, Note_on_c, 0, 73, 81
2, 39833, Note_on_c, 0, 76, 0
2, 39833, Note_on_c, 0, 73, 0
2, 39840, Note_on_c, 0, 75, 80
2, 39840, Note_on_c, 0, 72, 80
2, 39929, Note_on_c, 0, 75, 0
2, 39929, Note_on_c, 0, 72, 0
2, 39936, Note_on_c, 0, 73, 79
2, 40025, Note_on_c, 0, 73, 0
2, 40032, Note_on_c, 0, 76, 78
2, 40044, Note_on_c, 0, 76, 0
2, 40044, Note_on_c, 0, 75, 78
2, 40056, Note_on_c, 0, 75, 0
2, 40056, Note_on_c, 0, 73, 78
2, 40068, Note_on_c, 0, 73, 0
2, 40068, Note_on_c, 0, 75, 78
2, 40121, Note_on_c, 0, 75, 0
2, 40128, Note_on_c, 0, 78, 77
2, 40217, Note_on_c, 0, 78, 0
2, 40224, Note_on_c, 0, 81, 75
2, 40313, Note_on_c, 0, 81, 0
2, 40320, Note_on_c, 0, 73, 74
2, 40497, Note_on_c, 0, 73, 0
2, 40512, Note_on_c, 0, 72, 72
2, 40601, Note_on_c, 0, 72, 0
2, 40608, Note_on_c, 0, 73, 78
2, 40727, Note_on_c, 0, 73, 0
2, 40728, Note_on_c, 0, 75, 78
2, 40751, Note_on_c, 0, 75, 0
2, 40752, Note_on_c, 0, 73, 78
2, 40775, Note_on_c, 0, 73, 0
2, 40776, Note_on_c, 0, 72, 78
2, 40799, Note_on_c, 0, 72, 0
2, 40800, Note_on_c, 0, 73, 78
2, 40823, Note_on_c, 0, 73, 0
2, 40824, Note_on_c, 0, 75, 78
2, 40847, Note_on_c, 0, 75, 0
2, 40848, Note_on_c, 0, 76, 78
2, 40871, Note_on_c, 0, 76, 0
2, 40872, Note_on_c, 0, 78, 78
2, 40895, Note_on_c, 0, 78, 0
2, 40896, Note_on_c, 0, 80, 94
2, 40935, Note_on_c, 0, 80, 0
2, 40992, Note_on_c, 0, 80, 78
2, 41031, Note_on_c, 0, 80, 0
2, 41088, Note_on_c, 0, 80, 78
2, 41127, Note_on_c, 0, 80, 0
2, 41184, Note_on_c, 0, 79, 78
2, 41376, Note_on_c, 0, 79, 0
2, 41376, Note_on_c, 0, 80, 78
2, 41465, Note_on_c, 0, 80, 0
2, 41472, Note_on_c, 0, 75, 78
2, 41752, Note_on_c, 0, 75, 0
2, 41760, Note_on_c, 0, 78, 78
2, 41901, Note_on_c, 0, 78, 0
2, 41904, Note_on_c, 0, 81, 78
2, 41927, Note_on_c, 0, 81, 0
2, 41928, Note_on_c, 0, 80, 78
2, 41951, Note_on_c, 0, 80, 0
2, 41952, Note_on_c, 0, 78, 78
2, 41975, Note_on_c, 0, 78, 0
2, 41976, Note_on_c, 0, 76, 78
2, 41999, Note_on_c, 0, 76, 0
2, 42000, Note_on_c, 0, 75, 78
2, 42023, Note_on_c, 0, 75, 0
2, 42024, Note_on_c, 0, 78, 78
2, 42047, Note_on_c, 0, 78, 0
2, 42048, Note_on_c, 0, 76, 78
2, 42137, Note_on_c, 0, 76, 0
2, 42144, Note_on_c, 0, 73, 78
2, 42233, Note_on_c, 0, 73, 0
2, 42240, Note_on_c, 0, 73, 78
2, 42329, Note_on_c, 0, 73, 0
2, 42336, Note_on_c, 0, 80, 78
2, 42354, Note_on_c, 0, 80, 0
2, 42354, Note_on_c, 0, 78, 78
2, 42372, Note_on_c, 0, 78, 0
2, 42372, Note_on_c, 0, 77, 78
2, 42390, Note_on_c, 0, 77, 0
2, 42390, Note_on_c, 0, 78, 78
2, 42528, Note_on_c, 0, 78, 0
2, 42528, Note_on_c, 0, 80, 78
2, 42617, Note_on_c, 0, 80, 0
2, 42624, Note_on_c, 0, 73, 78
2, 42757, Note_on_c, 0, 73, 0
2, 42912, Note_on_c, 0, 76, 78
2, 43031, Note_on_c, 0, 76, 0
2, 43032, Note_on_c, 0, 78, 78
2, 43055, Note_on_c, 0, 78, 0
2, 43056, Note_on_c, 0, 76, 78
2, 43079, Note_on_c, 0, 76, 0
2, 43080, Note_on_c, 0, 75, 78
2, 43103, Note_on_c, 0, 75, 0
2, 43104, Note_on_c, 0, 76, 78
2, 43127, Note_on_c, 0, 76, 0
2, 43128, Note_on_c, 0, 78, 78
2, 43151, Note_on_c, 0, 78, 0
2, 43152, Note_on_c, 0, 80, 78
2, 43175, Note_on_c, 0, 80, 0
2, 43176, Note_on_c, 0, 81, 78
2, 43199, Note_on_c, 0, 81, 0
2, 43200, Note_on_c, 0, 83, 94
2, 43239, Note_on_c, 0, 83, 0
2, 43296, Note_on_c, 0, 83, 78
2, 43335, Note_on_c, 0, 83, 0
2, 43392, Note_on_c, 0, 83, 78
2, 43431, Note_on_c, 0, 83, 0
2, 43488, Note_on_c, 0, 76, 78
2, 43607, Note_on_c, 0, 76, 0
2, 43608, Note_on_c, 0, 78, 80
2, 43631, Note_on_c, 0, 78, 0
2, 43632, Note_on_c, 0, 76, 80
2, 43655, Note_on_c, 0, 76, 0
2, 43656, Note_on_c, 0, 75, 80
2, 43679, Note_on_c, 0, 75, 0
2, 43680, Note_on_c, 0, 76, 81
2, 43703, Note_on_c, 0, 76, 0
2, 43704, Note_on_c, 0, 78, 81
2, 43727, Note_on_c, 0, 78, 0
2, 43728, Note_on_c, 0, 80, 82
2, 43751, Note_on_c, 0, 80, 0
2, 43752, Note_on_c, 0, 81, 82
2, 43764, Note_on_c, 0, 81, 0
2, 43764, Note_on_c, 0, 83, 82
2, 43776, Note_on_c, 0, 83, 0
2, 43776, Note_on_c, 0, 85, 99
2, 43815, Note_on_c, 0, 85, 0
2, 43872, Note_on_c, 0, 85, 83
2, 43911, Note_on_c, 0, 85, 0
2, 43968, Note_on_c, 0, 85, 83
2, 44007, Note_on_c, 0, 85, 0
2, 44064, Note_on_c, 0, 83, 83
2, 44183, Note_on_c, 0, 83, 0
2, 44184, Note_on_c, 0, 85, 83
2, 44207, Note_on_c, 0, 85, 0
2, 44208, Note_on_c, 0, 83, 83
2, 44231, Note_on_c, 0, 83, 0
2, 44232, Note_on_c, 0, 82, 83
2, 44255, Note_on_c, 0, 82, 0
2, 44256, Note_on_c, 0, 83, 83
2, 44279, Note_on_c, 0, 83, 0
2, 44280, Note_on_c, 0, 85, 83
2, 44303, Note_on_c, 0, 85, 0
2, 44304, Note_on_c, 0, 83, 83
2, 44327, Note_on_c, 0, 83, 0
2, 44328, Note_on_c, 0, 81, 83
2, 44351, Note_on_c, 0, 81, 0
2, 44352, Note_on_c, 0, 80, 83
2, 44397, Note_on_c, 0, 80, 0
2, 44448, Note_on_c, 0, 78, 81
2, 44493, Note_on_c, 0, 78, 0
2, 44544, Note_on_c, 0, 76, 79
2, 44589, Note_on_c, 0, 76, 0
2, 44640, Note_on_c, 0, 83, 71
2, 44759, Note_on_c, 0, 83, 0
2, 44760, Note_on_c, 0, 85, 71
2, 44783, Note_on_c, 0, 85, 0
2, 44784, Note_on_c, 0, 83, 71
2, 44807, Note_on_c, 0, 83, 0
2, 44808, Note_on_c, 0, 82, 71
2, 44831, Note_on_c, 0, 82, 0
2, 44832, Note_on_c, 0, 83, 71
2, 44855, Note_on_c, 0, 83, 0
2, 44856, Note_on_c, 0, 85, 71
2, 44879, Note_on_c, 0, 85, 0
2, 44880, Note_on_c, 0, 83, 71
2, 44903, Note_on_c, 0, 83, 0
2, 44904, Note_on_c, 0, 81, 71
2, 44927, Note_on_c, 0, 81, 0
2, 44928, Note_on_c, 0, 80, 71
2, 44951, Note_on_c, 0, 80, 0
2, 44952, Note_on_c, 0, 83, 71
2, 44975, Note_on_c, 0, 83, 0
2, 44976, Note_on_c, 0, 81, 71
2, 44999, Note_on_c, 0, 81, 0
2, 45000, Note_on_c, 0, 80, 71
2, 45023, Note_on_c, 0, 80, 0
2, 45024, Note_on_c, 0, 78, 71
2, 45047, Note_on_c, 0, 78, 0
2, 45048, Note_on_c, 0, 81, 71
2, 45071, Note_on_c, 0, 81, 0
2, 45072, Note_on_c, 0, 80, 71
2, 45095, Note_on_c, 0, 80, 0
2, 45096, Note_on_c, 0, 78, 71
2, 45119, Note_on_c, 0, 78, 0
2, 45120, Note_on_c, 0, 76, 71
2, 45143, Note_on_c, 0, 76, 0
2, 45144, Note_on_c, 0, 80, 71
2, 45167, Note_on_c, 0, 80, 0
2, 45168, Note_on_c, 0, 78, 71
2, 45191, Note_on_c, 0, 78, 0
2, 45192, Note_on_c, 0, 76, 71
2, 45215, Note_on_c, 0, 76, 0
2, 45216, Note_on_c, 0, 75, 71
2, 45305, Note_on_c, 0, 75, 0
2, 45312, Note_on_c, 0, 73, 71
2, 45401, Note_on_c, 0, 73, 0
2, 45408, Note_on_c, 0, 85, 71
2, 45497, Note_on_c, 0, 85, 0
2, 45504, Note_on_c, 0, 76, 71
2, 45681, Note_on_c, 0, 76, 0
2, 45696, Note_on_c, 0, 80, 71
2, 45719, Note_on_c, 0, 80, 0
2, 45720, Note_on_c, 0, 78, 71
2, 45765, Note_on_c, 0, 78, 0
2, 45768, Note_on_c, 0, 76, 71
2, 45791, Note_on_c, 0, 76, 0
2, 45792, Note_on_c, 0, 76, 71
2, 45881, Note_on_c, 0, 76, 0
2, 45984, Note_on_c, 0, 84, 71
2, 46007, Note_on_c, 0, 84, 0
2, 46008, Note_on_c, 0, 85, 71
2, 46031, Note_on_c, 0, 85, 0
2, 46032, Note_on_c, 0, 84, 71
2, 46055, Note_on_c, 0, 84, 0
2, 46056, Note_on_c, 0, 85, 71
2, 46079, Note_on_c, 0, 85, 0
2, 46080, Note_on_c, 0, 76, 71
2, 46257, Note_on_c, 0, 76, 0
2, 46272, Note_on_c, 0, 80, 83
2, 46295, Note_on_c, 0, 80, 0
2, 46296, Note_on_c, 0, 78, 82
2, 46341, Note_on_c, 0, 78, 0
2, 46344, Note_on_c, 0, 76, 82
2, 46367, Note_on_c, 0, 76, 0
2, 46368, Note_on_c, 0, 76, 81
2, 46368, Note_on_c, 0, 73, 81
2, 46457, Note_on_c, 0, 76, 0
2, 46457, Note_on_c, 0, 73, 0
2, 46464, Note_on_c, 0, 75, 80
2, 46464, Note_on_c, 0, 72, 80
2, 46553, Note_on_c, 0, 75, 0
2, 46553, Note_on_c, 0, 72, 0
2, 46560, Note_on_c, 0, 73, 79
2, 46649, Note_on_c, 0, 73, 0
2, 46656, Note_on_c, 0, 76, 78
2, 46668, Note_on_c, 0, 76, 0
2, 46668, Note_on_c, 0, 75, 78
2, 46680, Note_on_c, 0, 75, 0
2, 46680, Note_on_c, 0, 73, 78
2, 46692, Note_on_c, 0, 73, 0
2, 46692, Note_on_c, 0, 75, 78
2, 46745, Note_on_c, 0, 75, 0
2, 46752, Note_on_c, 0, 78, 77
2, 46841, Note_on_c, 0, 78, 0
2, 46848, Note_on_c, 0, 81, 75
2, 46937, Note_on_c, 0, 81, 0
2, 46944, Note_on_c, 0, 73, 74
2, 47121, Note_on_c, 0, 73, 0
2, 47136, Note_on_c, 0, 72, 72
2, 47225, Note_on_c, 0, 72, 0
2, 47232, Note_on_c, 0, 73, 78
2, 47351, Note_on_c, 0, 73, 0
2, 47352, Note_on_c, 0, 75, 78
2, 47375, Note_on_c, 0, 75, 0
2, 47376, Note_on_c, 0, 73, 78
2, 47399, Note_on_c, 0, 73, 0
2, 47400, Note_on_c, 0, 72, 78
2, 47423, Note_on_c, 0, 72, 0
2, 47424, Note_on_c, 0, 73, 78
2, 47447, Note_on_c, 0, 73, 0
2, 47448, Note_on_c, 0, 75, 78
2, 47471, Note_on_c, 0, 75, 0
2, 47472, Note_on_c, 0, 76, 78
2, 47495, Note_on_c, 0, 76, 0
2, 47496, Note_on_c, 0, 78, 78
2, 47519, Note_on_c, 0, 78, 0
2, 47520, Note_on_c, 0, 80, 94
2, 47559, Note_on_c, 0, 80, 0
2, 47616, Note_on_c, 0, 80, 78
2, 47655, Note_on_c, 0, 80, 0
2, 47712, Note_on_c, 0, 80, 78
2, 47751, Note_on_c, 0, 80, 0
2, 47808, Note_on_c, 0, 79, 78
2, 48000, Note_on_c, 0, 79, 0
2, 48000, Note_on_c, 0, 80, 78
2, 48089, Note_on_c, 0, 80, 0
2, 48096, Note_on_c, 0, 75, 78
2, 48376, Note_on_c, 0, 75, 0
2, 48384, Note_on_c, 0, 78, 78
2, 48525, Note_on_c, 0, 78, 0
2, 48528, Note_on_c, 0, 81, 78
2, 48551, Note_on_c, 0, 81, 0
2, 48552, Note_on_c, 0, 80, 78
2, 48575, Note_on_c, 0, 80, 0
2, 48576, Note_on_c, 0, 78, 78
2, 48599, Note_on_c, 0, 78, 0
2, 48600, Note_on_c, 0, 76, 78
2, 48623, Note_on_c, 0, 76, 0
2, 48624, Note_on_c, 0, 75, 78
2, 48647, Note_on_c, 0, 75, 0
2, 48648, Note_on_c, 0, 78, 78
2, 48671, Note_on_c, 0, 78, 0
2, 48672, Note_on_c, 0, 76, 78
2, 48761, Note_on_c, 0, 76, 0
2, 48768, Note_on_c, 0, 73, 78
2, 48857, Note_on_c, 0, 73, 0
2, 48864, Note_on_c, 0, 73, 78
2, 48953, Note_on_c, 0, 73, 0
2, 48960, Note_on_c, 0, 80, 78
2, 48978, Note_on_c, 0, 80, 0
2, 48978, Note_on_c, 0, 78, 78
2, 48996, Note_on_c, 0, 78, 0
2, 48996, Note_on_c, 0, 77, 78
2, 49014, Note_on_c, 0, 77, 0
2, 49014, Note_on_c, 0, 78, 78
2, 49152, Note_on_c, 0, 78, 0
2, 49152, Note_on_c, 0, 80, 78
2, 49241, Note_on_c, 0, 80, 0
2, 49248, Note_on_c, 0, 73, 78
2, 49425, Note_on_c, 0, 73, 0
2, 49536, End_track
3, 0, Start_track
3, 0, Program_c, 0, 0
3, 0, Control_c, 0, 7, 127
3, 0, Control_c, 0, 10, 64
3, 7392, Note_on_c, 0, 75, 64
3, 7481, Note_on_c, 0, 75, 0
3, 7968, Note_on_c, 0, 75, 83
3, 8062, Note_on_c, 0, 75, 0
3, 14016, Note_on_c, 0, 75, 64
3, 14105, Note_on_c, 0, 75, 0
3, 14592, Note_on_c, 0, 75, 83
3, 14686, Note_on_c, 0, 75, 0
3, 18432, Note_on_c, 0, 61, 71
3, 18471, Note_on_c, 0, 61, 0
3, 18528, Note_on_c, 0, 61, 71
3, 18809, Note_on_c, 0, 61, 0
3, 18816, Note_on_c, 0, 60, 71
3, 18905, Note_on_c, 0, 60, 0
3, 18912, Note_on_c, 0, 61, 71
3, 19001, Note_on_c, 0, 61, 0
3, 19008, Note_on_c, 0, 60, 71
3, 19185, Note_on_c, 0, 60, 0
3, 19200, Note_on_c, 0, 61, 71
3, 19289, Note_on_c, 0, 61, 0
3, 19296, Note_on_c, 0, 60, 71
3, 19385, Note_on_c, 0, 60, 0
3, 19584, Note_on_c, 0, 60, 58
3, 19761, Note_on_c, 0, 60, 0
3, 19776, Note_on_c, 0, 61, 58
3, 19865, Note_on_c, 0, 61, 0
3, 19872, Note_on_c, 0, 60, 58
3, 19961, Note_on_c, 0, 60, 0
3, 21888, Note_on_c, 0, 61, 71
3, 21927, Note_on_c, 0, 61, 0
3, 21984, Note_on_c, 0, 61, 71
3, 22265, Note_on_c, 0, 61, 0
3, 22272, Note_on_c, 0, 60, 71
3, 22361, Note_on_c, 0, 60, 0
3, 22368, Note_on_c, 0, 61, 71
3, 22457, Note_on_c, 0, 61, 0
3, 22464, Note_on_c, 0, 60, 71
3, 22641, Note_on_c, 0, 60, 0
3, 22656, Note_on_c, 0, 61, 71
3, 22745, Note_on_c, 0, 61, 0
3, 22752, Note_on_c, 0, 60, 71
3, 22841, Note_on_c, 0, 60, 0
3, 23040, Note_on_c, 0, 60, 58
3, 23217, Note_on_c, 0, 60, 0
3, 23232, Note_on_c, 0, 61, 58
3, 23321, Note_on_c, 0, 61, 0
3, 23328, Note_on_c, 0, 60, 58
3, 23417, Note_on_c, 0, 60, 0
3, 26784, Note_on_c, 0, 63, 58
3, 27049, Note_on_c, 0, 63, 0
3, 27072, Note_on_c, 0, 61, 58
3, 27337, Note_on_c, 0, 61, 0
3, 27360, Note_on_c, 0, 60, 58
3, 27537, Note_on_c, 0, 60, 0
3, 27648, Note_on_c, 0, 58, 58
3, 27825, Note_on_c, 0, 58, 0
3, 30240, Note_on_c, 0, 63, 58
3, 30505, Note_on_c, 0, 63, 0
3, 30528, Note_on_c, 0, 61, 58
3, 30793, Note_on_c, 0, 61, 0
3, 30816, Note_on_c, 0, 60, 58
3, 30993, Note_on_c, 0, 60, 0
3, 31104, Note_on_c, 0, 58, 58
3, 31281, Note_on_c, 0, 58, 0
3, 39072, Note_on_c, 0, 75, 58
3, 39161, Note_on_c, 0, 75, 0
3, 39648, Note_on_c, 0, 75, 83
3, 39742, Note_on_c, 0, 75, 0
3, 45696, Note_on_c, 0, 75, 58
3, 45785, Note_on_c, 0, 75, 0
3, 46272, Note_on_c, 0, 75, 83
3, 46366, Note_on_c, 0, 75, 0
3, 49536, End_track
4, 0, Start_track
4, 0, Program_c, 1, 0
4, 0, Control_c, 1, 7, 127
4, 0, Control_c, 1, 10, 64
4, 0, Note_on_c, 1, 64, 78
4, 0, Note_on_c, 1, 61, 78
4, 89, Note_on_c, 1, 64, 0
4, 89, Note_on_c, 1, 61, 0
4, 96, Note_on_c, 1, 52, 78
4, 96, Note_on_c, 1, 49, 78
4, 185, Note_on_c, 1, 52, 0
4, 185, Note_on_c, 1, 49, 0
4, 288, Note_on_c, 1, 64, 78
4, 288, Note_on_c, 1, 61, 78
4, 377, Note_on_c, 1, 64, 0
4, 377, Note_on_c, 1, 61, 0
4, 576, Note_on_c, 1, 63, 78
4, 841, Note_on_c, 1, 63, 0
4, 2304, Note_on_c, 1, 64, 78
4, 2304, Note_on_c, 1, 61, 78
4, 2393, Note_on_c, 1, 64, 0
4, 2393, Note_on_c, 1, 61, 0
4, 2400, Note_on_c, 1, 52, 78
4, 2400, Note_on_c, 1, 49, 78
4, 2489, Note_on_c, 1, 52, 0
4, 2489, Note_on_c, 1, 49, 0
4, 2592, Note_on_c, 1, 64, 78
4, 2592, Note_on_c, 1, 61, 78
4, 2681, Note_on_c, 1, 64, 0
4, 2681, Note_on_c, 1, 61, 0
4, 2880, Note_on_c, 1, 63, 78
4, 3145, Note_on_c, 1, 63, 0
4, 4608, Note_on_c, 1, 68, 78
4, 4608, Note_on_c, 1, 64, 78
4, 4697, Note_on_c, 1, 68, 0
4, 4697, Note_on_c, 1, 64, 0
4, 4704, Note_on_c, 1, 56, 78
4, 4704, Note_on_c, 1, 52, 78
4, 4793, Note_on_c, 1, 56, 0
4, 4793, Note_on_c, 1, 52, 0
4, 4896, Note_on_c, 1, 62, 78
4, 5273, Note_on_c, 1, 62, 0
4, 5280, Note_on_c, 1, 61, 78
4, 5457, Note_on_c, 1, 61, 0
4, 5568, Note_on_c, 1, 57, 78
4, 5568, Note_on_c, 1, 54, 78
4, 5657, Note_on_c, 1, 57, 0
4, 5657, Note_on_c, 1, 54, 0
4, 5664, Note_on_c, 1, 56, 80
4, 5664, Note_on_c, 1, 52, 80
4, 5753, Note_on_c, 1, 56, 0
4, 5753, Note_on_c, 1, 52, 0
4, 5760, Note_on_c, 1, 54, 83
4, 5760, Note_on_c, 1, 51, 83
4, 5849, Note_on_c, 1, 54, 0
4, 5849, Note_on_c, 1, 51, 0
4, 5856, Note_on_c, 1, 66, 83
4, 5856, Note_on_c, 1, 63, 83
4, 5945, Note_on_c, 1, 66, 0
4, 5945, Note_on_c, 1, 63, 0
4, 6048, Note_on_c, 1, 56, 83
4, 6048, Note_on_c, 1, 52, 83
4, 6093, Note_on_c, 1, 56, 0
4, 6093, Note_on_c, 1, 52, 0
4, 6144, Note_on_c, 1, 57, 81
4, 6144, Note_on_c, 1, 54, 81
4, 6189, Note_on_c, 1, 57, 0
4, 6189, Note_on_c, 1, 54, 0
4, 6240, Note_on_c, 1, 59, 79
4, 6240, Note_on_c, 1, 56, 79
4, 6285, Note_on_c, 1, 59, 0
4, 6285, Note_on_c, 1, 56, 0
4, 6336, Note_on_c, 1, 54, 80
4, 6336, Note_on_c, 1, 51, 80
4, 6432, Note_on_c, 1, 54, 0
4, 6432, Note_on_c, 1, 51, 0
4, 6432, Note_on_c, 1, 66, 64
4, 6432, Note_on_c, 1, 63, 64
4, 6521, Note_on_c, 1, 66, 0
4, 6521, Note_on_c, 1, 63, 0
4, 6624, Note_on_c, 1, 56, 64
4, 6624, Note_on_c, 1, 52, 64
4, 6669, Note_on_c, 1, 56, 0
4, 6669, Note_on_c, 1, 52, 0
4, 6720, Note_on_c, 1, 57, 64
4, 6720, Note_on_c, 1, 54, 64
4, 6765, Note_on_c, 1, 57, 0
4, 6765, Note_on_c, 1, 54, 0
4, 6816, Note_on_c, 1, 59, 64
4, 6816, Note_on_c, 1, 56, 64
4, 6861, Note_on_c, 1, 59, 0
4, 6861, Note_on_c, 1, 56, 0
4, 7104, Note_on_c, 1, 69, 64
4, 7193, Note_on_c, 1, 69, 0
4, 7200, Note_on_c, 1, 68, 64
4, 7377, Note_on_c, 1, 68, 0
4, 7392, Note_on_c, 1, 69, 64
4, 7481, Note_on_c, 1, 69, 0
4, 7488, Note_on_c, 1, 68, 64
4, 7577, Note_on_c, 1, 68, 0
4, 7776, Note_on_c, 1, 68, 64
4, 7776, Note_on_c, 1, 59, 64
4, 7953, Note_on_c, 1, 68, 0
4, 7953, Note_on_c, 1, 59, 0
4, 7968, Note_on_c, 1, 69, 83
4, 7968, Note_on_c, 1, 66, 83
4, 7968, Note_on_c, 1, 63, 83
4, 7968, Note_on_c, 1, 60, 83
4, 8062, Note_on_c, 1, 69, 0
4, 8062, Note_on_c, 1, 66, 0
4, 8062, Note_on_c, 1, 63, 0
4, 8062, Note_on_c, 1, 60, 0
4, 8064, Note_on_c, 1, 68, 81
4, 8064, Note_on_c, 1, 64, 81
4, 8064, Note_on_c, 1, 61, 81
4, 8153, Note_on_c, 1, 68, 0
4, 8153, Note_on_c, 1, 64, 0
4, 8153, Note_on_c, 1, 61, 0
4, 8160, Note_on_c, 1, 66, 80
4, 8160, Note_on_c, 1, 63, 80
4, 8249, Note_on_c, 1, 66, 0
4, 8249, Note_on_c, 1, 63, 0
4, 8256, Note_on_c, 1, 68, 79
4, 8256, Note_on_c, 1, 64, 79
4, 8345, Note_on_c, 1, 68, 0
4, 8345, Note_on_c, 1, 64, 0
4, 8352, Note_on_c, 1, 69, 78
4, 8352, Note_on_c, 1, 66, 78
4, 8617, Note_on_c, 1, 69, 0
4, 8617, Note_on_c, 1, 66, 0
4, 8640, Note_on_c, 1, 64, 74
4, 8817, Note_on_c, 1, 64, 0
4, 8832, Note_on_c, 1, 63, 72
4, 8921, Note_on_c, 1, 63, 0
4, 8928, Note_on_c, 1, 64, 78
4, 8928, Note_on_c, 1, 61, 78
4, 9017, Note_on_c, 1, 64, 0
4, 9017, Note_on_c, 1, 61, 0
4, 9024, Note_on_c, 1, 52, 78
4, 9024, Note_on_c, 1, 49, 78
4, 9113, Note_on_c, 1, 52, 0
4, 9113, Note_on_c, 1, 49, 0
4, 9216, Note_on_c, 1, 64, 78
4, 9216, Note_on_c, 1, 61, 78
4, 9305, Note_on_c, 1, 64, 0
4, 9305, Note_on_c, 1, 61, 0
4, 9504, Note_on_c, 1, 63, 78
4, 9769, Note_on_c, 1, 63, 0
4, 10944, Note_on_c, 1, 61, 78
4, 10944, Note_on_c, 1, 49, 78
4, 11077, Note_on_c, 1, 61, 0
4, 11077, Note_on_c, 1, 49, 0
4, 11232, Note_on_c, 1, 68, 78
4, 11232, Note_on_c, 1, 64, 78
4, 11321, Note_on_c, 1, 68, 0
4, 11321, Note_on_c, 1, 64, 0
4, 11328, Note_on_c, 1, 56, 78
4, 11328, Note_on_c, 1, 52, 78
4, 11417, Note_on_c, 1, 56, 0
4, 11417, Note_on_c, 1, 52, 0
4, 11520, Note_on_c, 1, 62, 78
4, 11897, Note_on_c, 1, 62, 0
4, 11904, Note_on_c, 1, 61, 78
4, 12081, Note_on_c, 1, 61, 0
4, 12192, Note_on_c, 1, 57, 78
4, 12192, Note_on_c, 1, 54, 78
4, 12281, Note_on_c, 1, 57, 0
4, 12281, Note_on_c, 1, 54, 0
4, 12288, Note_on_c, 1, 56, 80
4, 12288, Note_on_c, 1, 52, 80
4, 12377, Note_on_c, 1, 56, 0
4, 12377, Note_on_c, 1, 52, 0
4, 12384, Note_on_c, 1, 54, 83
4, 12384, Note_on_c, 1, 51, 83
4, 12473, Note_on_c, 1, 54, 0
4, 12473, Note_on_c, 1, 51, 0
4, 12480, Note_on_c, 1, 66, 83
4, 12480, Note_on_c, 1, 63, 83
4, 12569, Note_on_c, 1, 66, 0
4, 12569, Note_on_c, 1, 63, 0
4, 12672, Note_on_c, 1, 56, 83
4, 12672, Note_on_c, 1, 52, 83
4, 12717, Note_on_c, 1, 56, 0
4, 12717, Note_on_c, 1, 52, 0
4, 12768, Note_on_c, 1, 57, 81
4, 12768, Note_on_c, 1, 54, 81
4, 12813, Note_on_c, 1, 57, 0
4, 12813, Note_on_c, 1, 54, 0
4, 12864, Note_on_c, 1, 59, 79
4, 12864, Note_on_c, 1, 56, 79
4, 12909, Note_on_c, 1, 59, 0
4, 12909, Note_on_c, 1, 56, 0
4, 12960, Note_on_c, 1, 54, 80
4, 12960, Note_on_c, 1, 51, 80
4, 13056, Note_on_c, 1, 54, 0
4, 13056, Note_on_c, 1, 51, 0
4, 13056, Note_on_c, 1, 66, 64
4, 13056, Note_on_c, 1, 63, 64
4, 13145, Note_on_c, 1, 66, 0
4, 13145, Note_on_c, 1, 63, 0
4, 13248, Note_on_c, 1, 56, 64
4, 13248, Note_on_c, 1, 52, 64
4, 13293, Note_on_c, 1, 56, 0
4, 13293, Note_on_c, 1, 52, 0
4, 13344, Note_on_c, 1, 57, 64
4, 13344, Note_on_c, 1, 54, 64
4, 13389, Note_on_c, 1, 57, 0
4, 13389, Note_on_c, 1, 54, 0
4, 13440, Note_on_c, 1, 59, 64
4, 13440, Note_on_c, 1, 56, 64
4, 13485, Note_on_c, 1, 59, 0
4, 13485, Note_on_c, 1, 56, 0
4, 13728, Note_on_c, 1, 69, 64
4, 13817, Note_on_c, 1, 69, 0
4, 13824, Note_on_c, 1, 68, 64
4, 14001, Note_on_c, 1, 68, 0
4, 14016, Note_on_c, 1, 69, 64
4, 14105, Note_on_c, 1, 69, 0
4, 14112, Note_on_c, 1, 68, 64
4, 14201, Note_on_c, 1, 68, 0
4, 14400, Note_on_c, 1, 68, 64
4, 14400, Note_on_c, 1, 59, 64
4, 14577, Note_on_c, 1, 68, 0
4, 14577, Note_on_c, 1, 59, 0
4, 14592, Note_on_c, 1, 69, 83
4, 14592, Note_on_c, 1, 66, 83
4, 14592, Note_on_c, 1, 63, 83
4, 14592, Note_on_c, 1, 60, 83
4, 14686, Note_on_c, 1, 69, 0
4, 14686, Note_on_c, 1, 66, 0
4, 14686, Note_on_c, 1, 63, 0
4, 14686, Note_on_c, 1, 60, 0
4, 14688, Note_on_c, 1, 68, 81
4, 14688, Note_on_c, 1, 64, 81
4, 14688, Note_on_c, 1, 61, 81
4, 14777, Note_on_c, 1, 68, 0
4, 14777, Note_on_c, 1, 64, 0
4, 14777, Note_on_c, 1, 61, 0
4, 14784, Note_on_c, 1, 66, 80
4, 14784, Note_on_c, 1, 63, 80
4, 14873, Note_on_c, 1, 66, 0
4, 14873, Note_on_c, 1, 63, 0
4, 14880, Note_on_c, 1, 68, 79
4, 14880, Note_on_c, 1, 64, 79
4, 14969, Note_on_c, 1, 68, 0
4, 14969, Note_on_c, 1, 64, 0
4, 14976, Note_on_c, 1, 69, 78
4, 14976, Note_on_c, 1, 66, 78
4, 15241, Note_on_c, 1, 69, 0
4, 15241, Note_on_c, 1, 66, 0
4, 15264, Note_on_c, 1, 64, 74
4, 15441, Note_on_c, 1, 64, 0
4, 15456, Note_on_c, 1, 63, 72
4, 15545, Note_on_c, 1, 63, 0
4, 15552, Note_on_c, 1, 64, 78
4, 15552, Note_on_c, 1, 61, 78
4, 15641, Note_on_c, 1, 64, 0
4, 15641, Note_on_c, 1, 61, 0
4, 15648, Note_on_c, 1, 52, 78
4, 15648, Note_on_c, 1, 49, 78
4, 15737, Note_on_c, 1, 52, 0
4, 15737, Note_on_c, 1, 49, 0
4, 15840, Note_on_c, 1, 64, 78
4, 15840, Note_on_c, 1, 61, 78
4, 15929, Note_on_c, 1, 64, 0
4, 15929, Note_on_c, 1, 61, 0
4, 16128, Note_on_c, 1, 63, 78
4, 16393, Note_on_c, 1, 63, 0
4, 17568, Note_on_c, 1, 61, 78
4, 17568, Note_on_c, 1, 49, 78
4, 17701, Note_on_c, 1, 61, 0
4, 17701, Note_on_c, 1, 49, 0
4, 18144, Note_on_c, 1, 56, 64
4, 18336, Note_on_c, 1, 56, 0
4, 18336, Note_on_c, 1, 58, 64
4, 18425, Note_on_c, 1, 58, 0
4, 18432, Note_on_c, 1, 54, 64
4, 18471, Note_on_c, 1, 54, 0
4, 18528, Note_on_c, 1, 54, 64
4, 18624, Note_on_c, 1, 54, 0
4, 18624, Note_on_c, 1, 53, 64
4, 18713, Note_on_c, 1, 53, 0
4, 18720, Note_on_c, 1, 51, 64
4, 18809, Note_on_c, 1, 51, 0
4, 18816, Note_on_c, 1, 56, 64
4, 18905, Note_on_c, 1, 56, 0
4, 18912, Note_on_c, 1, 49, 64
4, 19001, Note_on_c, 1, 49, 0
4, 19104, Note_on_c, 1, 44, 64
4, 19104, Note_on_c, 1, 32, 64
4, 19200, Note_on_c, 1, 44, 0
4, 19200, Note_on_c, 1, 32, 0
4, 19200, Note_on_c, 1, 43, 64
4, 19200, Note_on_c, 1, 31, 64
4, 19289, Note_on_c, 1, 43, 0
4, 19289, Note_on_c, 1, 31, 0
4, 19296, Note_on_c, 1, 44, 64
4, 19296, Note_on_c, 1, 32, 64
4, 19385, Note_on_c, 1, 44, 0
4, 19385, Note_on_c, 1, 32, 0
4, 19680, Note_on_c, 1, 44, 58
4, 19680, Note_on_c, 1, 32, 58
4, 19776, Note_on_c, 1, 44, 0
4, 19776, Note_on_c, 1, 32, 0
4, 19776, Note_on_c, 1, 43, 58
4, 19776, Note_on_c, 1, 31, 58
4, 19865, Note_on_c, 1, 43, 0
4, 19865, Note_on_c, 1, 31, 0
4, 19872, Note_on_c, 1, 44, 58
4, 19872, Note_on_c, 1, 32, 58
4, 19961, Note_on_c, 1, 44, 0
4, 19961, Note_on_c, 1, 32, 0
4, 20064, Note_on_c, 1, 56, 64
4, 20064, Note_on_c, 1, 48, 64
4, 20153, Note_on_c, 1, 56, 0
4, 20153, Note_on_c, 1, 48, 0
4, 20160, Note_on_c, 1, 56, 64
4, 20337, Note_on_c, 1, 56, 0
4, 20352, Note_on_c, 1, 58, 64
4, 20441, Note_on_c, 1, 58, 0
4, 20448, Note_on_c, 1, 60, 64
4, 20713, Note_on_c, 1, 60, 0
4, 20736, Note_on_c, 1, 58, 64
4, 20913, Note_on_c, 1, 58, 0
4, 20928, Note_on_c, 1, 61, 64
4, 21017, Note_on_c, 1, 61, 0
4, 21024, Note_on_c, 1, 61, 64
4, 21201, Note_on_c, 1, 61, 0
4, 21216, Note_on_c, 1, 60, 64
4, 21305, Note_on_c, 1, 60, 0
4, 21600, Note_on_c, 1, 56, 64
4, 21792, Note_on_c, 1, 56, 0
4, 21792, Note_on_c, 1, 58, 64
4, 21881, Note_on_c, 1, 58, 0
4, 21888, Note_on_c, 1, 54, 64
4, 21927, Note_on_c, 1, 54, 0
4, 21984, Note_on_c, 1, 54, 64
4, 22080, Note_on_c, 1, 54, 0
4, 22080, Note_on_c, 1, 53, 64
4, 22169, Note_on_c, 1, 53, 0
4, 22176, Note_on_c, 1, 51, 64
4, 22265, Note_on_c, 1, 51, 0
4, 22272, Note_on_c, 1, 56, 64
4, 22361, Note_on_c, 1, 56, 0
4, 22368, Note_on_c, 1, 49, 64
4, 22457, Note_on_c, 1, 49, 0
4, 22560, Note_on_c, 1, 44, 64
4, 22560, Note_on_c, 1, 32, 64
4, 22656, Note_on_c, 1, 44, 0
4, 22656, Note_on_c, 1, 32, 0
4, 22656, Note_on_c, 1, 43, 64
4, 22656, Note_on_c, 1, 31, 64
4, 22745, Note_on_c, 1, 43, 0
4, 22745, Note_on_c, 1, 31, 0
4, 22752, Note_on_c, 1, 44, 64
4, 22752, Note_on_c, 1, 32, 64
4, 22841, Note_on_c, 1, 44, 0
4, 22841, Note_on_c, 1, 32, 0
4, 23136, Note_on_c, 1, 44, 58
4, 23136, Note_on_c, 1, 32, 58
4, 23232, Note_on_c, 1, 44, 0
4, 23232, Note_on_c, 1, 32, 0
4, 23232, Note_on_c, 1, 43, 58
4, 23232, Note_on_c, 1, 31, 58
4, 23321, Note_on_c, 1, 43, 0
4, 23321, Note_on_c, 1, 31, 0
4, 23328, Note_on_c, 1, 44, 58
4, 23328, Note_on_c, 1, 32, 58
4, 23417, Note_on_c, 1, 44, 0
4, 23417, Note_on_c, 1, 32, 0
4, 23520, Note_on_c, 1, 56, 64
4, 23520, Note_on_c, 1, 48, 64
4, 23609, Note_on_c, 1, 56, 0
4, 23609, Note_on_c, 1, 48, 0
4, 23616, Note_on_c, 1, 56, 64
4, 23793, Note_on_c, 1, 56, 0
4, 23808, Note_on_c, 1, 58, 64
4, 23897, Note_on_c, 1, 58, 0
4, 23904, Note_on_c, 1, 60, 64
4, 24169, Note_on_c, 1, 60, 0
4, 24192, Note_on_c, 1, 58, 64
4, 24369, Note_on_c, 1, 58, 0
4, 24384, Note_on_c, 1, 61, 64
4, 24473, Note_on_c, 1, 61, 0
4, 24480, Note_on_c, 1, 61, 64
4, 24657, Note_on_c, 1, 61, 0
4, 24672, Note_on_c, 1, 60, 64
4, 24761, Note_on_c, 1, 60, 0
4, 25056, Note_on_c, 1, 59, 64
4, 25056, Note_on_c, 1, 56, 64
4, 25233, Note_on_c, 1, 59, 0
4, 25233, Note_on_c, 1, 56, 0
4, 25248, Note_on_c, 1, 58, 64
4, 25248, Note_on_c, 1, 54, 64
4, 25337, Note_on_c, 1, 58, 0
4, 25337, Note_on_c, 1, 54, 0
4, 25728, Note_on_c, 1, 56, 64
4, 25905, Note_on_c, 1, 56, 0
4, 25920, Note_on_c, 1, 56, 64
4, 26185, Note_on_c, 1, 56, 0
4, 26208, Note_on_c, 1, 56, 64
4, 26473, Note_on_c, 1, 56, 0
4, 26784, Note_on_c, 1, 61, 64
4, 26961, Note_on_c, 1, 61, 0
4, 26976, Note_on_c, 1, 60, 64
4, 27065, Note_on_c, 1, 60, 0
4, 27072, Note_on_c, 1, 59, 64
4, 27249, Note_on_c, 1, 59, 0
4, 27264, Note_on_c, 1, 58, 64
4, 27353, Note_on_c, 1, 58, 0
4, 27360, Note_on_c, 1, 56, 64
4, 27537, Note_on_c, 1, 56, 0
4, 27552, Note_on_c, 1, 56, 64
4, 27641, Note_on_c, 1, 56, 0
4, 27648, Note_on_c, 1, 54, 64
4, 27648, Note_on_c, 1, 42, 64
4, 27825, Note_on_c, 1, 54, 0
4, 27825, Note_on_c, 1, 42, 0
4, 27840, Note_on_c, 1, 54, 64
4, 27840, Note_on_c, 1, 51, 64
4, 27840, Note_on_c, 1, 44, 64
4, 27929, Note_on_c, 1, 54, 0
4, 27929, Note_on_c, 1, 51, 0
4, 27929, Note_on_c, 1, 44, 0
4, 27936, Note_on_c, 1, 53, 64
4, 27936, Note_on_c, 1, 49, 64
4, 27936, Note_on_c, 1, 37, 64
4, 28113, Note_on_c, 1, 53, 0
4, 28113, Note_on_c, 1, 49, 0
4, 28113, Note_on_c, 1, 37, 0
4, 28512, Note_on_c, 1, 59, 64
4, 28512, Note_on_c, 1, 56, 64
4, 28689, Note_on_c, 1, 59, 0
4, 28689, Note_on_c, 1, 56, 0
4, 28704, Note_on_c, 1, 58, 64
4, 28704, Note_on_c, 1, 54, 64
4, 28793, Note_on_c, 1, 58, 0
4, 28793, Note_on_c, 1, 54, 0
4, 29184, Note_on_c, 1, 56, 64
4, 29361, Note_on_c, 1, 56, 0
4, 29376, Note_on_c, 1, 56, 64
4, 29641, Note_on_c, 1, 56, 0
4, 29664, Note_on_c, 1, 56, 64
4, 29929, Note_on_c, 1, 56, 0
4, 30240, Note_on_c, 1, 61, 64
4, 30417, Note_on_c, 1, 61, 0
4, 30432, Note_on_c, 1, 60, 64
4, 30521, Note_on_c, 1, 60, 0
4, 30528, Note_on_c, 1, 59, 64
4, 30705, Note_on_c, 1, 59, 0
4, 30720, Note_on_c, 1, 58, 64
4, 30809, Note_on_c, 1, 58, 0
4, 30816, Note_on_c, 1, 56, 64
4, 30993, Note_on_c, 1, 56, 0
4, 31008, Note_on_c, 1, 56, 64
4, 31097, Note_on_c, 1, 56, 0
4, 31104, Note_on_c, 1, 54, 64
4, 31104, Note_on_c, 1, 42, 64
4, 31281, Note_on_c, 1, 54, 0
4, 31281, Note_on_c, 1, 42, 0
4, 31296, Note_on_c, 1, 54, 64
4, 31296, Note_on_c, 1, 51, 64
4, 31296, Note_on_c, 1, 44, 64
4, 31385, Note_on_c, 1, 54, 0
4, 31385, Note_on_c, 1, 51, 0
4, 31385, Note_on_c, 1, 44, 0
4, 31392, Note_on_c, 1, 53, 64
4, 31392, Note_on_c, 1, 49, 64
4, 31392, Note_on_c, 1, 37, 64
4, 31569, Note_on_c, 1, 53, 0
4, 31569, Note_on_c, 1, 49, 0
4, 31569, Note_on_c, 1, 37, 0
4, 31680, Note_on_c, 1, 64, 78
4, 31680, Note_on_c, 1, 61, 78
4, 31769, Note_on_c, 1, 64, 0
4, 31769, Note_on_c, 1, 61, 0
4, 31776, Note_on_c, 1, 52, 78
4, 31776, Note_on_c, 1, 49, 78
4, 31865, Note_on_c, 1, 52, 0
4, 31865, Note_on_c, 1, 49, 0
4, 31968, Note_on_c, 1, 64, 78
4, 31968, Note_on_c, 1, 61, 78
4, 32057, Note_on_c, 1, 64, 0
4, 32057, Note_on_c, 1, 61, 0
4, 32256, Note_on_c, 1, 63, 78
4, 32521, Note_on_c, 1, 63, 0
4, 33984, Note_on_c, 1, 64, 78
4, 33984, Note_on_c, 1, 61, 78
4, 34073, Note_on_c, 1, 64, 0
4, 34073, Note_on_c, 1, 61, 0
4, 34080, Note_on_c, 1, 52, 78
4, 34080, Note_on_c, 1, 49, 78
4, 34169, Note_on_c, 1, 52, 0
4, 34169, Note_on_c, 1, 49, 0
4, 34272, Note_on_c, 1, 64, 78
4, 34272, Note_on_c, 1, 61, 78
4, 34361, Note_on_c, 1, 64, 0
4, 34361, Note_on_c, 1, 61, 0
4, 34560, Note_on_c, 1, 63, 78
4, 34825, Note_on_c, 1, 63, 0
4, 36288, Note_on_c, 1, 68, 78
4, 36288, Note_on_c, 1, 64, 78
4, 36377, Note_on_c, 1, 68, 0
4, 36377, Note_on_c, 1, 64, 0
4, 36384, Note_on_c, 1, 56, 78
4, 36384, Note_on_c, 1, 52, 78
4, 36473, Note_on_c, 1, 56, 0
4, 36473, Note_on_c, 1, 52, 0
4, 36576, Note_on_c, 1, 62, 78
4, 36953, Note_on_c, 1, 62, 0
4, 36960, Note_on_c, 1, 61, 78
4, 37137, Note_on_c, 1, 61, 0
4, 37248, Note_on_c, 1, 57, 78
4, 37248, Note_on_c, 1, 54, 78
4, 37337, Note_on_c, 1, 57, 0
4, 37337, Note_on_c, 1, 54, 0
4, 37344, Note_on_c, 1, 56, 80
4, 37344, Note_on_c, 1, 52, 80
4, 37433, Note_on_c, 1, 56, 0
4, 37433, Note_on_c, 1, 52, 0
4, 37440, Note_on_c, 1, 54, 83
4, 37440, Note_on_c, 1, 51, 83
4, 37529, Note_on_c, 1, 54, 0
4, 37529, Note_on_c, 1, 51, 0
4, 37536, Note_on_c, 1, 66, 83
4, 37536, Note_on_c, 1, 63, 83
4, 37625, Note_on_c, 1, 66, 0
4, 37625, Note_on_c, 1, 63, 0
4, 37728, Note_on_c, 1, 56, 83
4, 37728, Note_on_c, 1, 52, 83
4, 37773, Note_on_c, 1, 56, 0
4, 37773, Note_on_c, 1, 52, 0
4, 37824, Note_on_c, 1, 57, 81
4, 37824, Note_on_c, 1, 54, 81
4, 37869, Note_on_c, 1, 57, 0
4, 37869, Note_on_c, 1, 54, 0
4, 37920, Note_on_c, 1, 59, 79
4, 37920, Note_on_c, 1, 56, 79
4, 37965, Note_on_c, 1, 59, 0
4, 37965, Note_on_c, 1, 56, 0
4, 38016, Note_on_c, 1, 54, 80
4, 38016, Note_on_c, 1, 51, 80
4, 38112, Note_on_c, 1, 54, 0
4, 38112, Note_on_c, 1, 51, 0
4, 38112, Note_on_c, 1, 66, 64
4, 38112, Note_on_c, 1, 63, 64
4, 38201, Note_on_c, 1, 66, 0
4, 38201, Note_on_c, 1, 63, 0
4, 38304, Note_on_c, 1, 56, 64
4, 38304, Note_on_c, 1, 52, 64
4, 38349, Note_on_c, 1, 56, 0
4, 38349, Note_on_c, 1, 52, 0
4, 38400, Note_on_c, 1, 57, 64
4, 38400, Note_on_c, 1, 54, 64
4, 38445, Note_on_c, 1, 57, 0
4, 38445, Note_on_c, 1, 54, 0
4, 38496, Note_on_c, 1, 59, 64
4, 38496, Note_on_c, 1, 56, 64
4, 38541, Note_on_c, 1, 59, 0
4, 38541, Note_on_c, 1, 56, 0
4, 38784, Note_on_c, 1, 69, 64
4, 38873, Note_on_c, 1, 69, 0
4, 38880, Note_on_c, 1, 68, 64
4, 39057, Note_on_c, 1, 68, 0
4, 39072, Note_on_c, 1, 69, 64
4, 39161, Note_on_c, 1, 69, 0
4, 39168, Note_on_c, 1, 68, 64
4, 39257, Note_on_c, 1, 68, 0
4, 39456, Note_on_c, 1, 68, 64
4, 39456, Note_on_c, 1, 59, 64
4, 39633, Note_on_c, 1, 68, 0
4, 39633, Note_on_c, 1, 59, 0
4, 39648, Note_on_c, 1, 69, 83
4, 39648, Note_on_c, 1, 66, 83
4, 39648, Note_on_c, 1, 63, 83
4, 39648, Note_on_c, 1, 60, 83
4, 39742, Note_on_c, 1, 69, 0
4, 39742, Note_on_c, 1, 66, 0
4, 39742, Note_on_c, 1, 63, 0
4, 39742, Note_on_c, 1, 60, 0
4, 39744, Note_on_c, 1, 68, 81
4, 39744, Note_on_c, 1, 64, 81
4, 39744, Note_on_c, 1, 61, 81
4, 39833, Note_on_c, 1, 68, 0
4, 39833, Note_on_c, 1, 64, 0
4, 39833, Note_on_c, 1, 61, 0
4, 39840, Note_on_c, 1, 66, 80
4, 39840, Note_on_c, 1, 63, 80
4, 39929, Note_on_c, 1, 66, 0
4, 39929, Note_on_c, 1, 63, 0
4, 39936, Note_on_c, 1, 68, 79
4, 39936, Note_on_c, 1, 64, 79
4, 40025, Note_on_c, 1, 68, 0
4, 40025, Note_on_c, 1, 64, 0
4, 40032, Note_on_c, 1, 69, 78
4, 40032, Note_on_c, 1, 66, 78
4, 40297, Note_on_c, 1, 69, 0
4, 40297, Note_on_c, 1, 66, 0
4, 40320, Note_on_c, 1, 64, 74
4, 40497, Note_on_c, 1, 64, 0
4, 40512, Note_on_c, 1, 63, 72
4, 40601, Note_on_c, 1, 63, 0
4, 40608, Note_on_c, 1, 64, 78
4, 40608, Note_on_c, 1, 61, 78
4, 40697, Note_on_c, 1, 64, 0
4, 40697, Note_on_c, 1, 61, 0
4, 40704, Note_on_c, 1, 52, 78
4, 40704, Note_on_c, 1, 49, 78
4, 40793, Note_on_c, 1, 52, 0
4, 40793, Note_on_c, 1, 49, 0
4, 40896, Note_on_c, 1, 64, 78
4, 40896, Note_on_c, 1, 61, 78
4, 40985, Note_on_c, 1, 64, 0
4, 40985, Note_on_c, 1, 61, 0
4, 41184, Note_on_c, 1, 63, 78
4, 41449, Note_on_c, 1, 63, 0
4, 42624, Note_on_c, 1, 61, 78
4, 42624, Note_on_c, 1, 49, 78
4, 42757, Note_on_c, 1, 61, 0
4, 42757, Note_on_c, 1, 49, 0
4, 42912, Note_on_c, 1, 68, 78
4, 42912, Note_on_c, 1, 64, 78
4, 43001, Note_on_c, 1, 68, 0
4, 43001, Note_on_c, 1, 64, 0
4, 43008, Note_on_c, 1, 56, 78
4, 43008, Note_on_c, 1, 52, 78
4, 43097, Note_on_c, 1, 56, 0
4, 43097, Note_on_c, 1, 52, 0
4, 43200, Note_on_c, 1, 62, 78
4, 43577, Note_on_c, 1, 62, 0
4, 43584, Note_on_c, 1, 61, 78
4, 43761, Note_on_c, 1, 61, 0
4, 43872, Note_on_c, 1, 57, 78
4, 43872, Note_on_c, 1, 54, 78
4, 43961, Note_on_c, 1, 57, 0
4, 43961, Note_on_c, 1, 54, 0
4, 43968, Note_on_c, 1, 56, 80
4, 43968, Note_on_c, 1, 52, 80
4, 44057, Note_on_c, 1, 56, 0
4, 44057, Note_on_c, 1, 52, 0
4, 44064, Note_on_c, 1, 54, 83
4, 44064, Note_on_c, 1, 51, 83
4, 44153, Note_on_c, 1, 54, 0
4, 44153, Note_on_c, 1, 51, 0
4, 44160, Note_on_c, 1, 66, 83
4, 44160, Note_on_c, 1, 63, 83
4, 44249, Note_on_c, 1, 66, 0
4, 44249, Note_on_c, 1, 63, 0
4, 44352, Note_on_c, 1, 56, 83
4, 44352, Note_on_c, 1, 52, 83
4, 44397, Note_on_c, 1, 56, 0
4, 44397, Note_on_c, 1, 52, 0
4, 44448, Note_on_c, 1, 57, 81
4, 44448, Note_on_c, 1, 54, 81
4, 44493, Note_on_c, 1, 57, 0
4, 44493, Note_on_c, 1, 54, 0
4, 44544, Note_on_c, 1, 59, 79
4, 44544, Note_on_c, 1, 56, 79
4, 44589, Note_on_c, 1, 59, 0
4, 44589, Note_on_c, 1, 56, 0
4, 44640, Note_on_c, 1, 54, 80
4, 44640, Note_on_c, 1, 51, 80
4, 44736, Note_on_c, 1, 54, 0
4, 44736, Note_on_c, 1, 51, 0
4, 44736, Note_on_c, 1, 66, 64
4, 44736, Note_on_c, 1, 63, 64
4, 44825, Note_on_c, 1, 66, 0
4, 44825, Note_on_c, 1, 63, 0
4, 44928, Note_on_c, 1, 56, 64
4, 44928, Note_on_c, 1, 52, 64
4, 44973, Note_on_c, 1, 56, 0
4, 44973, Note_on_c, 1, 52, 0
4, 45024, Note_on_c, 1, 57, 64
4, 45024, Note_on_c, 1, 54, 64
4, 45069, Note_on_c, 1, 57, 0
4, 45069, Note_on_c, 1, 54, 0
4, 45120, Note_on_c, 1, 59, 64
4, 45120, Note_on_c, 1, 56, 64
4, 45165, Note_on_c, 1, 59, 0
4, 45165, Note_on_c, 1, 56, 0
4, 45408, Note_on_c, 1, 69, 64
4, 45497, Note_on_c, 1, 69, 0
4, 45504, Note_on_c, 1, 68, 64
4, 45681, Note_on_c, 1, 68, 0
4, 45696, Note_on_c, 1, 69, 64
4, 45785, Note_on_c, 1, 69, 0
4, 45792, Note_on_c, 1, 68, 64
4, 45881, Note_on_c, 1, 68, 0
4, 46080, Note_on_c, 1, 68, 64
4, 46080, Note_on_c, 1, 59, 64
4, 46257, Note_on_c, 1, 68, 0
4, 46257, Note_on_c, 1, 59, 0
4, 46272, Note_on_c, 1, 69, 83
4, 46272, Note_on_c, 1, 66, 83
4, 46272, Note_on_c, 1, 63, 83
4, 46272, Note_on_c, 1, 60, 83
4, 46366, Note_on_c, 1, 69, 0
4, 46366, Note_on_c, 1, 66, 0
4, 46366, Note_on_c, 1, 63, 0
4, 46366, Note_on_c, 1, 60, 0
4, 46368, Note_on_c, 1, 68, 81
4, 46368, Note_on_c, 1, 64, 81
4, 46368, Note_on_c, 1, 61, 81
4, 46457, Note_on_c, 1, 68, 0
4, 46457, Note_on_c, 1, 64, 0
4, 46457, Note_on_c, 1, 61, 0
4, 46464, Note_on_c, 1, 66, 80
4, 46464, Note_on_c, 1, 63, 80
4, 46553, Note_on_c, 1, 66, 0
4, 46553, Note_on_c, 1, 63, 0
4, 46560, Note_on_c, 1, 68, 79
4, 46560, Note_on_c, 1, 64, 79
4, 46649, Note_on_c, 1, 68, 0
4, 46649, Note_on_c, 1, 64, 0
4, 46656, Note_on_c, 1, 69, 78
4, 46656, Note_on_c, 1, 66, 78
4, 46921, Note_on_c, 1, 69, 0
4, 46921, Note_on_c, 1, 66, 0
4, 46944, Note_on_c, 1, 64, 74
4, 47121, Note_on_c, 1, 64, 0
4, 47136, Note_on_c, 1, 63, 72
4, 47225, Note_on_c, 1, 63, 0
4, 47232, Note_on_c, 1, 64, 78
4, 47232, Note_on_c, 1, 61, 78
4, 47321, Note_on_c, 1, 64, 0
4, 47321, Note_on_c, 1, 61, 0
4, 47328, Note_on_c, 1, 52, 78
4, 47328, Note_on_c, 1, 49, 78
4, 47417, Note_on_c, 1, 52, 0
4, 47417, Note_on_c, 1, 49, 0
4, 47520, Note_on_c, 1, 64, 78
4, 47520, Note_on_c, 1, 61, 78
4, 47609, Note_on_c, 1, 64, 0
4, 47609, Note_on_c, 1, 61, 0
4, 47808, Note_on_c, 1, 63, 78
4, 48073, Note_on_c, 1, 63, 0
4, 49248, Note_on_c, 1, 61, 78
4, 49248, Note_on_c, 1, 49, 78
4, 49425, Note_on_c, 1, 61, 0
4, 49425, Note_on_c, 1, 49, 0
4, 49536, Note_on_c, 1, 49, 4
4, 49713, Note_on_c, 1, 49, 0
4, 49728, End_track
5, 0, Start_track
5, 0, Program_c, 1, 0
5, 0, Control_c, 1, 7, 127
5, 0, Control_c, 1, 10, 64
5, 576, Note_on_c, 1, 61, 64
5, 753, Note_on_c, 1, 61, 0
5, 768, Note_on_c, 1, 60, 64
5, 857, Note_on_c, 1, 60, 0
5, 864, Note_on_c, 1, 69, 64
5, 864, Note_on_c, 1, 66, 64
5, 1144, Note_on_c, 1, 69, 0
5, 1144, Note_on_c, 1, 66, 0
5, 1152, Note_on_c, 1, 63, 78
5, 1152, Note_on_c, 1, 60, 78
5, 1241, Note_on_c, 1, 63, 0
5, 1241, Note_on_c, 1, 60, 0
5, 1248, Note_on_c, 1, 51, 78
5, 1248, Note_on_c, 1, 48, 78
5, 1337, Note_on_c, 1, 51, 0
5, 1337, Note_on_c, 1, 48, 0
5, 1440, Note_on_c, 1, 52, 78
5, 1440, Note_on_c, 1, 49, 78
5, 1529, Note_on_c, 1, 52, 0
5, 1529, Note_on_c, 1, 49, 0
5, 1632, Note_on_c, 1, 61, 78
5, 1632, Note_on_c, 1, 57, 78
5, 1721, Note_on_c, 1, 61, 0
5, 1721, Note_on_c, 1, 57, 0
5, 1728, Note_on_c, 1, 63, 78
5, 1728, Note_on_c, 1, 54, 78
5, 1905, Note_on_c, 1, 63, 0
5, 1905, Note_on_c, 1, 54, 0
5, 1920, Note_on_c, 1, 60, 78
5, 1920, Note_on_c, 1, 56, 78
5, 2009, Note_on_c, 1, 60, 0
5, 2009, Note_on_c, 1, 56, 0
5, 2016, Note_on_c, 1, 61, 78
5, 2016, Note_on_c, 1, 49, 78
5, 2149, Note_on_c, 1, 61, 0
5, 2149, Note_on_c, 1, 49, 0
5, 2880, Note_on_c, 1, 61, 64
5, 3057, Note_on_c, 1, 61, 0
5, 3072, Note_on_c, 1, 60, 64
5, 3161, Note_on_c, 1, 60, 0
5, 3168, Note_on_c, 1, 69, 64
5, 3168, Note_on_c, 1, 66, 64
5, 3448, Note_on_c, 1, 69, 0
5, 3448, Note_on_c, 1, 66, 0
5, 3456, Note_on_c, 1, 63, 78
5, 3456, Note_on_c, 1, 60, 78
5, 3545, Note_on_c, 1, 63, 0
5, 3545, Note_on_c, 1, 60, 0
5, 3552, Note_on_c, 1, 51, 78
5, 3552, Note_on_c, 1, 48, 78
5, 3641, Note_on_c, 1, 51, 0
5, 3641, Note_on_c, 1, 48, 0
5, 3744, Note_on_c, 1, 52, 78
5, 3744, Note_on_c, 1, 49, 78
5, 3833, Note_on_c, 1, 52, 0
5, 3833, Note_on_c, 1, 49, 0
5, 3936, Note_on_c, 1, 61, 78
5, 3936, Note_on_c, 1, 57, 78
5, 4025, Note_on_c, 1, 61, 0
5, 4025, Note_on_c, 1, 57, 0
5, 4032, Note_on_c, 1, 63, 78
5, 4032, Note_on_c, 1, 54, 78
5, 4209, Note_on_c, 1, 63, 0
5, 4209, Note_on_c, 1, 54, 0
5, 4224, Note_on_c, 1, 60, 78
5, 4224, Note_on_c, 1, 56, 78
5, 4313, Note_on_c, 1, 60, 0
5, 4313, Note_on_c, 1, 56, 0
5, 4320, Note_on_c, 1, 61, 78
5, 4320, Note_on_c, 1, 49, 78
5, 4453, Note_on_c, 1, 61, 0
5, 4453, Note_on_c, 1, 49, 0
5, 4896, Note_on_c, 1, 56, 78
5, 5184, Note_on_c, 1, 56, 0
5, 5184, Note_on_c, 1, 57, 78
5, 5449, Note_on_c, 1, 57, 0
5, 6912, Note_on_c, 1, 57, 64
5, 7177, Note_on_c, 1, 57, 0
5, 7200, Note_on_c, 1, 59, 64
5, 7465, Note_on_c, 1, 59, 0
5, 7488, Note_on_c, 1, 64, 64
5, 7577, Note_on_c, 1, 64, 0
5, 8640, Note_on_c, 1, 56, 64
5, 8905, Note_on_c, 1, 56, 0
5, 9504, Note_on_c, 1, 61, 64
5, 9681, Note_on_c, 1, 61, 0
5, 9696, Note_on_c, 1, 60, 64
5, 9785, Note_on_c, 1, 60, 0
5, 9792, Note_on_c, 1, 69, 64
5, 9792, Note_on_c, 1, 66, 64
5, 10072, Note_on_c, 1, 69, 0
5, 10072, Note_on_c, 1, 66, 0
5, 10080, Note_on_c, 1, 63, 78
5, 10080, Note_on_c, 1, 60, 78
5, 10169, Note_on_c, 1, 63, 0
5, 10169, Note_on_c, 1, 60, 0
5, 10176, Note_on_c, 1, 51, 78
5, 10176, Note_on_c, 1, 48, 78
5, 10265, Note_on_c, 1, 51, 0
5, 10265, Note_on_c, 1, 48, 0
5, 10368, Note_on_c, 1, 52, 78
5, 10368, Note_on_c, 1, 49, 78
5, 10457, Note_on_c, 1, 52, 0
5, 10457, Note_on_c, 1, 49, 0
5, 10560, Note_on_c, 1, 61, 78
5, 10560, Note_on_c, 1, 57, 78
5, 10649, Note_on_c, 1, 61, 0
5, 10649, Note_on_c, 1, 57, 0
5, 10656, Note_on_c, 1, 63, 78
5, 10656, Note_on_c, 1, 54, 78
5, 10833, Note_on_c, 1, 63, 0
5, 10833, Note_on_c, 1, 54, 0
5, 10848, Note_on_c, 1, 60, 78
5, 10848, Note_on_c, 1, 56, 78
5, 10937, Note_on_c, 1, 60, 0
5, 10937, Note_on_c, 1, 56, 0
5, 11520, Note_on_c, 1, 56, 78
5, 11808, Note_on_c, 1, 56, 0
5, 11808, Note_on_c, 1, 57, 78
5, 12073, Note_on_c, 1, 57, 0
5, 13536, Note_on_c, 1, 57, 64
5, 13801, Note_on_c, 1, 57, 0
5, 13824, Note_on_c, 1, 59, 64
5, 14089, Note_on_c, 1, 59, 0
5, 14112, Note_on_c, 1, 64, 64
5, 14201, Note_on_c, 1, 64, 0
5, 15264, Note_on_c, 1, 56, 64
5, 15529, Note_on_c, 1, 56, 0
5, 16128, Note_on_c, 1, 61, 64
5, 16305, Note_on_c, 1, 61, 0
5, 16320, Note_on_c, 1, 60, 64
5, 16409, Note_on_c, 1, 60, 0
5, 16416, Note_on_c, 1, 69, 64
5, 16416, Note_on_c, 1, 66, 64
5, 16696, Note_on_c, 1, 69, 0
5, 16696, Note_on_c, 1, 66, 0
5, 16704, Note_on_c, 1, 63, 78
5, 16704, Note_on_c, 1, 60, 78
5, 16793, Note_on_c, 1, 63, 0
5, 16793, Note_on_c, 1, 60, 0
5, 16800, Note_on_c, 1, 51, 78
5, 16800, Note_on_c, 1, 48, 78
5, 16889, Note_on_c, 1, 51, 0
5, 16889, Note_on_c, 1, 48, 0
5, 16992, Note_on_c, 1, 52, 78
5, 16992, Note_on_c, 1, 49, 78
5, 17081, Note_on_c, 1, 52, 0
5, 17081, Note_on_c, 1, 49, 0
5, 17184, Note_on_c, 1, 61, 78
5, 17184, Note_on_c, 1, 57, 78
5, 17273, Note_on_c, 1, 61, 0
5, 17273, Note_on_c, 1, 57, 0
5, 17280, Note_on_c, 1, 63, 78
5, 17280, Note_on_c, 1, 54, 78
5, 17457, Note_on_c, 1, 63, 0
5, 17457, Note_on_c, 1, 54, 0
5, 17472, Note_on_c, 1, 60, 78
5, 17472, Note_on_c, 1, 56, 78
5, 17561, Note_on_c, 1, 60, 0
5, 17561, Note_on_c, 1, 56, 0
5, 20160, Note_on_c, 1, 49, 64
5, 20425, Note_on_c, 1, 49, 0
5, 20448, Note_on_c, 1, 51, 64
5, 21001, Note_on_c, 1, 51, 0
5, 21024, Note_on_c, 1, 56, 64
5, 21289, Note_on_c, 1, 56, 0
5, 23616, Note_on_c, 1, 49, 64
5, 23881, Note_on_c, 1, 49, 0
5, 23904, Note_on_c, 1, 51, 64
5, 24457, Note_on_c, 1, 51, 0
5, 24480, Note_on_c, 1, 56, 64
5, 24745, Note_on_c, 1, 56, 0
5, 25728, Note_on_c, 1, 54, 64
5, 25817, Note_on_c, 1, 54, 0
5, 25824, Note_on_c, 1, 53, 64
5, 25913, Note_on_c, 1, 53, 0
5, 25920, Note_on_c, 1, 48, 64
5, 26097, Note_on_c, 1, 48, 0
5, 26112, Note_on_c, 1, 49, 64
5, 26201, Note_on_c, 1, 49, 0
5, 26208, Note_on_c, 1, 44, 64
5, 26473, Note_on_c, 1, 44, 0
5, 27456, Note_on_c, 1, 48, 64
5, 27545, Note_on_c, 1, 48, 0
5, 27552, Note_on_c, 1, 49, 64
5, 27641, Note_on_c, 1, 49, 0
5, 29184, Note_on_c, 1, 54, 64
5, 29273, Note_on_c, 1, 54, 0
5, 29280, Note_on_c, 1, 53, 64
5, 29369, Note_on_c, 1, 53, 0
5, 29376, Note_on_c, 1, 48, 64
5, 29553, Note_on_c, 1, 48, 0
5, 29568, Note_on_c, 1, 49, 64
5, 29657, Note_on_c, 1, 49, 0
5, 29664, Note_on_c, 1, 44, 64
5, 29929, Note_on_c, 1, 44, 0
5, 30912, Note_on_c, 1, 48, 64
5, 31001, Note_on_c, 1, 48, 0
5, 31008, Note_on_c, 1, 49, 64
5, 31097, Note_on_c, 1, 49, 0
5, 32256, Note_on_c, 1, 61, 64
5, 32433, Note_on_c, 1, 61, 0
5, 32448, Note_on_c, 1, 60, 64
5, 32537, Note_on_c, 1, 60, 0
5, 32544, Note_on_c, 1, 69, 64
5, 32544, Note_on_c, 1, 66, 64
5, 32824, Note_on_c, 1, 69, 0
5, 32824, Note_on_c, 1, 66, 0
5, 32832, Note_on_c, 1, 63, 78
5, 32832, Note_on_c, 1, 60, 78
5, 32921, Note_on_c, 1, 63, 0
5, 32921, Note_on_c, 1, 60, 0
5, 32928, Note_on_c, 1, 51, 78
5, 32928, Note_on_c, 1, 48, 78
5, 33017, Note_on_c, 1, 51, 0
5, 33017, Note_on_c, 1, 48, 0
5, 33120, Note_on_c, 1, 52, 78
5, 33120, Note_on_c, 1, 49, 78
5, 33209, Note_on_c, 1, 52, 0
5, 33209, Note_on_c, 1, 49, 0
5, 33312, Note_on_c, 1, 61, 78
5, 33312, Note_on_c, 1, 57, 78
5, 33401, Note_on_c, 1, 61, 0
5, 33401, Note_on_c, 1, 57, 0
5, 33408, Note_on_c, 1, 63, 78
5, 33408, Note_on_c, 1, 54, 78
5, 33585, Note_on_c, 1, 63, 0
5, 33585, Note_on_c, 1, 54, 0
5, 33600, Note_on_c, 1, 60, 78
5, 33600, Note_on_c, 1, 56, 78
5, 33689, Note_on_c, 1, 60, 0
5, 33689, Note_on_c, 1, 56, 0
5, 33696, Note_on_c, 1, 61, 78
5, 33696, Note_on_c, 1, 49, 78
5, 33829, Note_on_c, 1, 61, 0
5, 33829, Note_on_c, 1, 49, 0
5, 34560, Note_on_c, 1, 61, 64
5, 34737, Note_on_c, 1, 61, 0
5, 34752, Note_on_c, 1, 60, 64
5, 34841, Note_on_c, 1, 60, 0
5, 34848, Note_on_c, 1, 69, 64
5, 34848, Note_on_c, 1, 66, 64
5, 35128, Note_on_c, 1, 69, 0
5, 35128, Note_on_c, 1, 66, 0
5, 35136, Note_on_c, 1, 63, 78
5, 35136, Note_on_c, 1, 60, 78
5, 35225, Note_on_c, 1, 63, 0
5, 35225, Note_on_c, 1, 60, 0
5, 35232, Note_on_c, 1, 51, 78
5, 35232, Note_on_c, 1, 48, 78
5, 35321, Note_on_c, 1, 51, 0
5, 35321, Note_on_c, 1, 48, 0
5, 35424, Note_on_c, 1, 52, 78
5, 35424, Note_on_c, 1, 49, 78
5, 35513, Note_on_c, 1, 52, 0
5, 35513, Note_on_c, 1, 49, 0
5, 35616, Note_on_c, 1, 61, 78
5, 35616, Note_on_c, 1, 57, 78
5, 35705, Note_on_c, 1, 61, 0
5, 35705, Note_on_c, 1, 57, 0
5, 35712, Note_on_c, 1, 63, 78
5, 35712, Note_on_c, 1, 54, 78
5, 35889, Note_on_c, 1, 63, 0
5, 35889, Note_on_c, 1, 54, 0
5, 35904, Note_on_c, 1, 60, 78
5, 35904, Note_on_c, 1, 56, 78
5, 35993, Note_on_c, 1, 60, 0
5, 35993, Note_on_c, 1, 56, 0
5, 36000, Note_on_c, 1, 61, 78
5, 36000, Note_on_c, 1, 49, 78
5, 36133, Note_on_c, 1, 61, 0
5, 36133, Note_on_c, 1, 49, 0
5, 36576, Note_on_c, 1, 56, 78
5, 36864, Note_on_c, 1, 56, 0
5, 36864, Note_on_c, 1, 57, 78
5, 37129, Note_on_c, 1, 57, 0
5, 38592, Note_on_c, 1, 57, 64
5, 38857, Note_on_c, 1, 57, 0
5, 38880, Note_on_c, 1, 59, 64
5, 39145, Note_on_c, 1, 59, 0
5, 39168, Note_on_c, 1, 64, 64
5, 39257, Note_on_c, 1, 64, 0
5, 40320, Note_on_c, 1, 56, 64
5, 40585, Note_on_c, 1, 56, 0
5, 41184, Note_on_c, 1, 61, 64
5, 41361, Note_on_c, 1, 61, 0
5, 41376, Note_on_c, 1, 60, 64
5, 41465, Note_on_c, 1, 60, 0
5, 41472, Note_on_c, 1, 69, 64
5, 41472, Note_on_c, 1, 66, 64
5, 41752, Note_on_c, 1, 69, 0
5, 41752, Note_on_c, 1, 66, 0
5, 41760, Note_on_c, 1, 63, 78
5, 41760, Note_on_c, 1, 60, 78
5, 41849, Note_on_c, 1, 63, 0
5, 41849, Note_on_c, 1, 60, 0
5, 41856, Note_on_c, 1, 51, 78
5, 41856, Note_on_c, 1, 48, 78
5, 41945, Note_on_c, 1, 51, 0
5, 41945, Note_on_c, 1, 48, 0
5, 42048, Note_on_c, 1, 52, 78
5, 42048, Note_on_c, 1, 49, 78
5, 42137, Note_on_c, 1, 52, 0
5, 42137, Note_on_c, 1, 49, 0
5, 42240, Note_on_c, 1, 61, 78
5, 42240, Note_on_c, 1, 57, 78
5, 42329, Note_on_c, 1, 61, 0
5, 42329, Note_on_c, 1, 57, 0
5, 42336, Note_on_c, 1, 63, 78
5, 42336, Note_on_c, 1, 54, 78
5, 42513, Note_on_c, 1, 63, 0
5, 42513, Note_on_c, 1, 54, 0
5, 42528, Note_on_c, 1, 60, 78
5, 42528, Note_on_c, 1, 56, 78
5, 42617, Note_on_c, 1, 60, 0
5, 42617, Note_on_c, 1, 56, 0
5, 43200, Note_on_c, 1, 56, 78
5, 43488, Note_on_c, 1, 56, 0
5, 43488, Note_on_c, 1, 57, 78
5, 43753, Note_on_c, 1, 57, 0
5, 45216, Note_on_c, 1, 57, 64
5, 45481, Note_on_c, 1, 57, 0
5, 45504, Note_on_c, 1, 59, 64
5, 45769, Note_on_c, 1, 59, 0
5, 45792, Note_on_c, 1, 64, 64
5, 45881, Note_on_c, 1, 64, 0
5, 46944, Note_on_c, 1, 56, 64
5, 47209, Note_on_c, 1, 56, 0
5, 47808, Note_on_c, 1, 61, 64
5, 47985, Note_on_c, 1, 61, 0
5, 48000, Note_on_c, 1, 60, 64
5, 48089, Note_on_c, 1, 60, 0
5, 48096, Note_on_c, 1, 69, 64
5, 48096, Note_on_c, 1, 66, 64
5, 48376, Note_on_c, 1, 69, 0
5, 48376, Note_on_c, 1, 66, 0
5, 48384, Note_on_c, 1, 63, 78
5, 48384, Note_on_c, 1, 60, 78
5, 48473, Note_on_c, 1, 63, 0
5, 48473, Note_on_c, 1, 60, 0
5, 48480, Note_on_c, 1, 51, 78
5, 48480, Note_on_c, 1, 48, 78
5, 48569, Note_on_c, 1, 51, 0
5, 48569, Note_on_c, 1, 48, 0
5, 48672, Note_on_c, 1, 52, 78
5, 48672, Note_on_c, 1, 49, 78
5, 48761, Note_on_c, 1, 52, 0
5, 48761, Note_on_c, 1, 49, 0
5, 48864, Note_on_c, 1, 61, 78
5, 48864, Note_on_c, 1, 57, 78
5, 48953, Note_on_c, 1, 61, 0
5, 48953, Note_on_c, 1, 57, 0
5, 48960, Note_on_c, 1, 63, 78
5, 48960, Note_on_c, 1, 54, 78
5, 49137, Note_on_c, 1, 63, 0
5, 49137, Note_on_c, 1, 54, 0
5, 49152, Note_on_c, 1, 60, 78
5, 49152, Note_on_c, 1, 56, 78
5, 49241, Note_on_c, 1, 60, 0
5, 49241, Note_on_c, 1, 56, 0
5, 49536, End_track
6, 0, Start_track
6, 0, Title_t, "Sonata II   Haydn  "
6, 0, End_track
0, 0, End_of_file
