0, 0, Header, 1, 3, 384
1, 0, Start_track
1, 0, Time_signature, 2, 2, 96, 8
1, 0, Sequencer_specific, 3, 0, 0, 65
1, 0, Sequencer_specific, 5, 0, 0, 119, 14, 0
1, 0, Tempo, 441176
1, 0, End_track
2, 0, Start_track
2, 0, Control_c, 0, 7, 100
2, 0, Key_signature, 1, "major"
2, 576, Note_on_c, 0, 62, 100
2, 704, Note_off_c, 0, 62, 100
2, 768, Note_on_c, 0, 67, 100
2, 896, Note_off_c, 0, 67, 100
2, 960, Note_on_c, 0, 71, 100
2, 1088, Note_off_c, 0, 71, 100
2, 1152, Note_on_c, 0, 74, 100
2, 1280, Note_off_c, 0, 74, 100
2, 1344, Note_on_c, 0, 67, 100
2, 1472, Note_off_c, 0, 67, 100
2, 1536, Note_on_c, 0, 67, 100
2, 1792, Note_off_c, 0, 67, 100
2, 1920, Note_on_c, 0, 66, 100
2, 2048, Note_off_c, 0, 66, 100
2, 2112, Note_on_c, 0, 62, 100
2, 2240, Note_off_c, 0, 62, 100
2, 2304, Note_on_c, 0, 69, 100
2, 2432, Note_off_c, 0, 69, 100
2, 2496, Note_on_c, 0, 72, 100
2, 2624, Note_off_c, 0, 72, 100
2, 2688, Note_on_c, 0, 76, 100
2, 2816, Note_off_c, 0, 76, 100
2, 2880, Note_on_c, 0, 72, 100
2, 2880, Note_on_c, 0, 69, 100
2, 3008, Note_off_c, 0, 72, 100
2, 3008, Note_off_c, 0, 69, 100
2, 3072, Note_on_c, 0, 72, 100
2, 3072, Note_on_c, 0, 69, 100
2, 3328, Note_off_c, 0, 72, 100
2, 3328, Note_off_c, 0, 69, 100
2, 3456, Note_on_c, 0, 71, 100
2, 3456, Note_on_c, 0, 67, 100
2, 3584, Note_off_c, 0, 71, 100
2, 3584, Note_off_c, 0, 67, 100
2, 3648, Note_on_c, 0, 71, 100
2, 3776, Note_off_c, 0, 71, 100
2, 3840, Note_on_c, 0, 83, 100
2, 3968, Note_off_c, 0, 83, 100
2, 4032, Note_on_c, 0, 79, 100
2, 4160, Note_off_c, 0, 79, 100
2, 4224, Note_on_c, 0, 75, 100
2, 4352, Note_off_c, 0, 75, 100
2, 4416, Note_on_c, 0, 76, 100
2, 4544, Note_off_c, 0, 76, 100
2, 4608, Note_on_c, 0, 81, 100
2, 4736, Note_off_c, 0, 81, 100
2, 4800, Note_on_c, 0, 78, 100
2, 4928, Note_off_c, 0, 78, 100
2, 4992, Note_on_c, 0, 73, 100
2, 5120, Note_off_c, 0, 73, 100
2, 5184, Note_on_c, 0, 74, 100
2, 5312, Note_off_c, 0, 74, 100
2, 5376, Note_on_c, 0, 76, 100
2, 5504, Note_off_c, 0, 76, 100
2, 5568, Note_on_c, 0, 79, 100
2, 5824, Note_off_c, 0, 79, 100
2, 5952, Note_on_c, 0, 73, 100
2, 6080, Note_off_c, 0, 73, 100
2, 6144, Note_on_c, 0, 74, 100
2, 6176, Note_off_c, 0, 74, 100
2, 6192, Note_on_c, 0, 73, 100
2, 6224, Note_off_c, 0, 73, 100
2, 6240, Note_on_c, 0, 74, 100
2, 6496, Note_off_c, 0, 74, 100
2, 6720, Note_on_c, 0, 62, 100
2, 6848, Note_off_c, 0, 62, 100
2, 6912, Note_on_c, 0, 67, 100
2, 7040, Note_off_c, 0, 67, 100
2, 7104, Note_on_c, 0, 71, 100
2, 7232, Note_off_c, 0, 71, 100
2, 7296, Note_on_c, 0, 74, 100
2, 7424, Note_off_c, 0, 74, 100
2, 7488, Note_on_c, 0, 67, 100
2, 7616, Note_off_c, 0, 67, 100
2, 7680, Note_on_c, 0, 67, 100
2, 7936, Note_off_c, 0, 67, 100
2, 8064, Note_on_c, 0, 66, 100
2, 8192, Note_off_c, 0, 66, 100
2, 8256, Note_on_c, 0, 62, 100
2, 8384, Note_off_c, 0, 62, 100
2, 8448, Note_on_c, 0, 69, 100
2, 8576, Note_off_c, 0, 69, 100
2, 8640, Note_on_c, 0, 72, 100
2, 8768, Note_off_c, 0, 72, 100
2, 8832, Note_on_c, 0, 76, 100
2, 8960, Note_off_c, 0, 76, 100
2, 9024, Note_on_c, 0, 72, 100
2, 9024, Note_on_c, 0, 69, 100
2, 9152, Note_off_c, 0, 72, 100
2, 9152, Note_off_c, 0, 69, 100
2, 9216, Note_on_c, 0, 72, 100
2, 9216, Note_on_c, 0, 69, 100
2, 9472, Note_off_c, 0, 72, 100
2, 9472, Note_off_c, 0, 69, 100
2, 9600, Note_on_c, 0, 71, 100
2, 9600, Note_on_c, 0, 67, 100
2, 9728, Note_off_c, 0, 71, 100
2, 9728, Note_off_c, 0, 67, 100
2, 9792, Note_on_c, 0, 71, 100
2, 9920, Note_off_c, 0, 71, 100
2, 9984, Note_on_c, 0, 83, 100
2, 10112, Note_off_c, 0, 83, 100
2, 10176, Note_on_c, 0, 79, 100
2, 10304, Note_off_c, 0, 79, 100
2, 10368, Note_on_c, 0, 75, 100
2, 10496, Note_off_c, 0, 75, 100
2, 10560, Note_on_c, 0, 76, 100
2, 10688, Note_off_c, 0, 76, 100
2, 10752, Note_on_c, 0, 81, 100
2, 10880, Note_off_c, 0, 81, 100
2, 10944, Note_on_c, 0, 78, 100
2, 11072, Note_off_c, 0, 78, 100
2, 11136, Note_on_c, 0, 73, 100
2, 11264, Note_off_c, 0, 73, 100
2, 11328, Note_on_c, 0, 74, 100
2, 11456, Note_off_c, 0, 74, 100
2, 11520, Note_on_c, 0, 76, 100
2, 11648, Note_off_c, 0, 76, 100
2, 11712, Note_on_c, 0, 79, 100
2, 11968, Note_off_c, 0, 79, 100
2, 12096, Note_on_c, 0, 73, 100
2, 12224, Note_off_c, 0, 73, 100
2, 12288, Note_on_c, 0, 74, 100
2, 12320, Note_off_c, 0, 74, 100
2, 12336, Note_on_c, 0, 73, 100
2, 12368, Note_off_c, 0, 73, 100
2, 12384, Note_on_c, 0, 74, 100
2, 12640, Note_off_c, 0, 74, 100
2, 12864, Note_on_c, 0, 62, 100
2, 12992, Note_off_c, 0, 62, 100
2, 13056, Note_on_c, 0, 74, 100
2, 13184, Note_off_c, 0, 74, 100
2, 13248, Note_on_c, 0, 71, 100
2, 13376, Note_off_c, 0, 71, 100
2, 13440, Note_on_c, 0, 67, 100
2, 13568, Note_off_c, 0, 67, 100
2, 13632, Note_on_c, 0, 64, 100
2, 13760, Note_off_c, 0, 64, 100
2, 13824, Note_on_c, 0, 62, 100
2, 14080, Note_off_c, 0, 62, 100
2, 14208, Note_on_c, 0, 61, 100
2, 14336, Note_off_c, 0, 61, 100
2, 14400, Note_on_c, 0, 60, 100
2, 14528, Note_off_c, 0, 60, 100
2, 14592, Note_on_c, 0, 72, 100
2, 14720, Note_off_c, 0, 72, 100
2, 14784, Note_on_c, 0, 69, 100
2, 14912, Note_off_c, 0, 69, 100
2, 14976, Note_on_c, 0, 66, 100
2, 15104, Note_off_c, 0, 66, 100
2, 15168, Note_on_c, 0, 62, 100
2, 15296, Note_off_c, 0, 62, 100
2, 15360, Note_on_c, 0, 60, 100
2, 15616, Note_off_c, 0, 60, 100
2, 15744, Note_on_c, 0, 59, 100
2, 15872, Note_off_c, 0, 59, 100
2, 15936, Note_on_c, 0, 62, 100
2, 16064, Note_off_c, 0, 62, 100
2, 16128, Note_on_c, 0, 64, 100
2, 16256, Note_off_c, 0, 64, 100
2, 16320, Note_on_c, 0, 68, 100
2, 16448, Note_off_c, 0, 68, 100
2, 16512, Note_on_c, 0, 69, 100
2, 16640, Note_off_c, 0, 69, 100
2, 16704, Note_on_c, 0, 67, 100
2, 16832, Note_off_c, 0, 67, 100
2, 16896, Note_on_c, 0, 66, 100
2, 17024, Note_off_c, 0, 66, 100
2, 17088, Note_on_c, 0, 70, 100
2, 17216, Note_off_c, 0, 70, 100
2, 17280, Note_on_c, 0, 71, 100
2, 17408, Note_off_c, 0, 71, 100
2, 17472, Note_on_c, 0, 69, 100
2, 17600, Note_off_c, 0, 69, 100
2, 17664, Note_on_c, 0, 67, 100
2, 17792, Note_off_c, 0, 67, 100
2, 17856, Note_on_c, 0, 74, 100
2, 17984, Note_off_c, 0, 74, 100
2, 18048, Note_on_c, 0, 72, 100
2, 18176, Note_off_c, 0, 72, 100
2, 18240, Note_on_c, 0, 71, 100
2, 18368, Note_off_c, 0, 71, 100
2, 18432, Note_on_c, 0, 71, 100
2, 18688, Note_off_c, 0, 71, 100
2, 18816, Note_on_c, 0, 69, 100
2, 18944, Note_off_c, 0, 69, 100
2, 19008, Note_on_c, 0, 62, 100
2, 19136, Note_off_c, 0, 62, 100
2, 19200, Note_on_c, 0, 67, 100
2, 19328, Note_off_c, 0, 67, 100
2, 19392, Note_on_c, 0, 71, 100
2, 19520, Note_off_c, 0, 71, 100
2, 19584, Note_on_c, 0, 74, 100
2, 19712, Note_off_c, 0, 74, 100
2, 19776, Note_on_c, 0, 67, 100
2, 19904, Note_off_c, 0, 67, 100
2, 19968, Note_on_c, 0, 67, 100
2, 20224, Note_off_c, 0, 67, 100
2, 20352, Note_on_c, 0, 66, 100
2, 20480, Note_off_c, 0, 66, 100
2, 20544, Note_on_c, 0, 62, 100
2, 20672, Note_off_c, 0, 62, 100
2, 20736, Note_on_c, 0, 69, 100
2, 20864, Note_off_c, 0, 69, 100
2, 20928, Note_on_c, 0, 72, 100
2, 21056, Note_off_c, 0, 72, 100
2, 21120, Note_on_c, 0, 76, 100
2, 21248, Note_off_c, 0, 76, 100
2, 21312, Note_on_c, 0, 72, 100
2, 21312, Note_on_c, 0, 69, 100
2, 21440, Note_off_c, 0, 72, 100
2, 21440, Note_off_c, 0, 69, 100
2, 21504, Note_on_c, 0, 72, 100
2, 21504, Note_on_c, 0, 69, 100
2, 21760, Note_off_c, 0, 72, 100
2, 21760, Note_off_c, 0, 69, 100
2, 21888, Note_on_c, 0, 71, 100
2, 21888, Note_on_c, 0, 67, 100
2, 22016, Note_off_c, 0, 71, 100
2, 22016, Note_off_c, 0, 67, 100
2, 22080, Note_on_c, 0, 67, 100
2, 22208, Note_off_c, 0, 67, 100
2, 22272, Note_on_c, 0, 72, 100
2, 22400, Note_off_c, 0, 72, 100
2, 22464, Note_on_c, 0, 76, 100
2, 22592, Note_off_c, 0, 76, 100
2, 22656, Note_on_c, 0, 79, 100
2, 22784, Note_off_c, 0, 79, 100
2, 22848, Note_on_c, 0, 76, 100
2, 22976, Note_off_c, 0, 76, 100
2, 23040, Note_on_c, 0, 73, 100
2, 23168, Note_off_c, 0, 73, 100
2, 23232, Note_on_c, 0, 74, 100
2, 23360, Note_off_c, 0, 74, 100
2, 23424, Note_on_c, 0, 79, 100
2, 23552, Note_off_c, 0, 79, 100
2, 23616, Note_on_c, 0, 83, 100
2, 23744, Note_off_c, 0, 83, 100
2, 23808, Note_on_c, 0, 75, 100
2, 23936, Note_off_c, 0, 75, 100
2, 24000, Note_on_c, 0, 76, 100
2, 24128, Note_off_c, 0, 76, 100
2, 24192, Note_on_c, 0, 84, 100
2, 24320, Note_off_c, 0, 84, 100
2, 24384, Note_on_c, 0, 72, 100
2, 24384, Note_on_c, 0, 78, 100
2, 24512, Note_off_c, 0, 72, 100
2, 24512, Note_off_c, 0, 78, 100
2, 24576, Note_on_c, 0, 79, 100
2, 24576, Note_on_c, 0, 71, 100
2, 24832, Note_off_c, 0, 79, 100
2, 24832, Note_off_c, 0, 71, 100
2, 25152, Note_on_c, 0, 62, 100
2, 25280, Note_off_c, 0, 62, 100
2, 25344, Note_on_c, 0, 74, 100
2, 25472, Note_off_c, 0, 74, 100
2, 25536, Note_on_c, 0, 71, 100
2, 25664, Note_off_c, 0, 71, 100
2, 25728, Note_on_c, 0, 67, 100
2, 25856, Note_off_c, 0, 67, 100
2, 25920, Note_on_c, 0, 64, 100
2, 26048, Note_off_c, 0, 64, 100
2, 26112, Note_on_c, 0, 62, 100
2, 26368, Note_off_c, 0, 62, 100
2, 26496, Note_on_c, 0, 61, 100
2, 26624, Note_off_c, 0, 61, 100
2, 26688, Note_on_c, 0, 60, 100
2, 26816, Note_off_c, 0, 60, 100
2, 26880, Note_on_c, 0, 72, 100
2, 27008, Note_off_c, 0, 72, 100
2, 27072, Note_on_c, 0, 69, 100
2, 27200, Note_off_c, 0, 69, 100
2, 27264, Note_on_c, 0, 66, 100
2, 27392, Note_off_c, 0, 66, 100
2, 27456, Note_on_c, 0, 62, 100
2, 27584, Note_off_c, 0, 62, 100
2, 27648, Note_on_c, 0, 60, 100
2, 27904, Note_off_c, 0, 60, 100
2, 28032, Note_on_c, 0, 59, 100
2, 28160, Note_off_c, 0, 59, 100
2, 28224, Note_on_c, 0, 62, 100
2, 28352, Note_off_c, 0, 62, 100
2, 28416, Note_on_c, 0, 64, 100
2, 28544, Note_off_c, 0, 64, 100
2, 28608, Note_on_c, 0, 68, 100
2, 28736, Note_off_c, 0, 68, 100
2, 28800, Note_on_c, 0, 69, 100
2, 28928, Note_off_c, 0, 69, 100
2, 28992, Note_on_c, 0, 67, 100
2, 29120, Note_off_c, 0, 67, 100
2, 29184, Note_on_c, 0, 66, 100
2, 29312, Note_off_c, 0, 66, 100
2, 29376, Note_on_c, 0, 70, 100
2, 29504, Note_off_c, 0, 70, 100
2, 29568, Note_on_c, 0, 71, 100
2, 29696, Note_off_c, 0, 71, 100
2, 29760, Note_on_c, 0, 69, 100
2, 29888, Note_off_c, 0, 69, 100
2, 29952, Note_on_c, 0, 67, 100
2, 30080, Note_off_c, 0, 67, 100
2, 30144, Note_on_c, 0, 74, 100
2, 30272, Note_off_c, 0, 74, 100
2, 30336, Note_on_c, 0, 72, 100
2, 30464, Note_off_c, 0, 72, 100
2, 30528, Note_on_c, 0, 71, 100
2, 30656, Note_off_c, 0, 71, 100
2, 30720, Note_on_c, 0, 71, 100
2, 30976, Note_off_c, 0, 71, 100
2, 31104, Note_on_c, 0, 69, 100
2, 31232, Note_off_c, 0, 69, 100
2, 31296, Note_on_c, 0, 62, 100
2, 31424, Note_off_c, 0, 62, 100
2, 31488, Note_on_c, 0, 67, 100
2, 31616, Note_off_c, 0, 67, 100
2, 31680, Note_on_c, 0, 71, 100
2, 31808, Note_off_c, 0, 71, 100
2, 31872, Note_on_c, 0, 74, 100
2, 32000, Note_off_c, 0, 74, 100
2, 32064, Note_on_c, 0, 67, 100
2, 32192, Note_off_c, 0, 67, 100
2, 32256, Note_on_c, 0, 67, 100
2, 32512, Note_off_c, 0, 67, 100
2, 32640, Note_on_c, 0, 66, 100
2, 32768, Note_off_c, 0, 66, 100
2, 32832, Note_on_c, 0, 62, 100
2, 32960, Note_off_c, 0, 62, 100
2, 33024, Note_on_c, 0, 69, 100
2, 33152, Note_off_c, 0, 69, 100
2, 33216, Note_on_c, 0, 72, 100
2, 33344, Note_off_c, 0, 72, 100
2, 33408, Note_on_c, 0, 76, 100
2, 33536, Note_off_c, 0, 76, 100
2, 33600, Note_on_c, 0, 72, 100
2, 33600, Note_on_c, 0, 69, 100
2, 33728, Note_off_c, 0, 72, 100
2, 33728, Note_off_c, 0, 69, 100
2, 33792, Note_on_c, 0, 72, 100
2, 33792, Note_on_c, 0, 69, 100
2, 34048, Note_off_c, 0, 72, 100
2, 34048, Note_off_c, 0, 69, 100
2, 34176, Note_on_c, 0, 71, 100
2, 34176, Note_on_c, 0, 67, 100
2, 34304, Note_off_c, 0, 71, 100
2, 34304, Note_off_c, 0, 67, 100
2, 34368, Note_on_c, 0, 67, 100
2, 34496, Note_off_c, 0, 67, 100
2, 34560, Note_on_c, 0, 72, 100
2, 34688, Note_off_c, 0, 72, 100
2, 34752, Note_on_c, 0, 76, 100
2, 34880, Note_off_c, 0, 76, 100
2, 34944, Note_on_c, 0, 79, 100
2, 35072, Note_off_c, 0, 79, 100
2, 35136, Note_on_c, 0, 76, 100
2, 35264, Note_off_c, 0, 76, 100
2, 35328, Note_on_c, 0, 73, 100
2, 35456, Note_off_c, 0, 73, 100
2, 35520, Note_on_c, 0, 74, 100
2, 35648, Note_off_c, 0, 74, 100
2, 35712, Note_on_c, 0, 79, 100
2, 35840, Note_off_c, 0, 79, 100
2, 35904, Note_on_c, 0, 83, 100
2, 36032, Note_off_c, 0, 83, 100
2, 36096, Note_on_c, 0, 75, 100
2, 36224, Note_off_c, 0, 75, 100
2, 36288, Note_on_c, 0, 76, 100
2, 36416, Note_off_c, 0, 76, 100
2, 36480, Note_on_c, 0, 84, 100
2, 36608, Note_off_c, 0, 84, 100
2, 36672, Note_on_c, 0, 72, 100
2, 36672, Note_on_c, 0, 78, 100
2, 36800, Note_off_c, 0, 72, 100
2, 36800, Note_off_c, 0, 78, 100
2, 36864, Note_on_c, 0, 79, 100
2, 36864, Note_on_c, 0, 71, 100
2, 37120, Note_off_c, 0, 79, 100
2, 37120, Note_off_c, 0, 71, 100
2, 37440, Note_on_c, 0, 62, 100
2, 37568, Note_off_c, 0, 62, 100
2, 37632, Note_on_c, 0, 67, 100
2, 37696, Note_off_c, 0, 67, 100
2, 37728, Note_on_c, 0, 62, 100
2, 37792, Note_off_c, 0, 62, 100
2, 37824, Note_on_c, 0, 71, 100
2, 37888, Note_off_c, 0, 71, 100
2, 37920, Note_on_c, 0, 67, 100
2, 37984, Note_off_c, 0, 67, 100
2, 38016, Note_on_c, 0, 74, 100
2, 38144, Note_off_c, 0, 74, 100
2, 38208, Note_on_c, 0, 67, 100
2, 38336, Note_off_c, 0, 67, 100
2, 38400, Note_on_c, 0, 67, 100
2, 38656, Note_off_c, 0, 67, 100
2, 38784, Note_on_c, 0, 66, 100
2, 38912, Note_off_c, 0, 66, 100
2, 38976, Note_on_c, 0, 69, 100
2, 39104, Note_off_c, 0, 69, 100
2, 39168, Note_on_c, 0, 72, 100
2, 39296, Note_off_c, 0, 72, 100
2, 39360, Note_on_c, 0, 76, 100
2, 39360, Note_on_c, 0, 72, 100
2, 39488, Note_off_c, 0, 76, 100
2, 39488, Note_off_c, 0, 72, 100
2, 39552, Note_on_c, 0, 74, 100
2, 39552, Note_on_c, 0, 71, 100
2, 39680, Note_off_c, 0, 74, 100
2, 39680, Note_off_c, 0, 71, 100
2, 39744, Note_on_c, 0, 72, 100
2, 39744, Note_on_c, 0, 69, 100
2, 39872, Note_off_c, 0, 72, 100
2, 39872, Note_off_c, 0, 69, 100
2, 39936, Note_on_c, 0, 72, 100
2, 39936, Note_on_c, 0, 69, 100
2, 40192, Note_off_c, 0, 72, 100
2, 40192, Note_off_c, 0, 69, 100
2, 40320, Note_on_c, 0, 71, 100
2, 40320, Note_on_c, 0, 67, 100
2, 40448, Note_off_c, 0, 71, 100
2, 40448, Note_off_c, 0, 67, 100
2, 40512, Note_on_c, 0, 71, 100
2, 40640, Note_off_c, 0, 71, 100
2, 40704, Note_on_c, 0, 83, 100
2, 40768, Note_off_c, 0, 83, 100
2, 40800, Note_on_c, 0, 79, 100
2, 40864, Note_off_c, 0, 79, 100
2, 40896, Note_on_c, 0, 78, 100
2, 40960, Note_off_c, 0, 78, 100
2, 40992, Note_on_c, 0, 76, 100
2, 41056, Note_off_c, 0, 76, 100
2, 41088, Note_on_c, 0, 75, 100
2, 41152, Note_off_c, 0, 75, 100
2, 41184, Note_on_c, 0, 76, 100
2, 41248, Note_off_c, 0, 76, 100
2, 41280, Note_on_c, 0, 75, 100
2, 41344, Note_off_c, 0, 75, 100
2, 41376, Note_on_c, 0, 76, 100
2, 41440, Note_off_c, 0, 76, 100
2, 41472, Note_on_c, 0, 81, 100
2, 41536, Note_off_c, 0, 81, 100
2, 41568, Note_on_c, 0, 78, 100
2, 41632, Note_off_c, 0, 78, 100
2, 41664, Note_on_c, 0, 76, 100
2, 41728, Note_off_c, 0, 76, 100
2, 41760, Note_on_c, 0, 74, 100
2, 41824, Note_off_c, 0, 74, 100
2, 41856, Note_on_c, 0, 73, 100
2, 41920, Note_off_c, 0, 73, 100
2, 41952, Note_on_c, 0, 74, 100
2, 42016, Note_off_c, 0, 74, 100
2, 42048, Note_on_c, 0, 73, 100
2, 42112, Note_off_c, 0, 73, 100
2, 42144, Note_on_c, 0, 74, 100
2, 42208, Note_off_c, 0, 74, 100
2, 42240, Note_on_c, 0, 71, 100
2, 42368, Note_off_c, 0, 71, 100
2, 42432, Note_on_c, 0, 79, 100
2, 42560, Note_off_c, 0, 79, 100
2, 42816, Note_on_c, 0, 73, 100
2, 42816, Note_on_c, 0, 67, 100
2, 42944, Note_off_c, 0, 73, 100
2, 42944, Note_off_c, 0, 67, 100
2, 43008, Note_on_c, 0, 74, 100
2, 43008, Note_on_c, 0, 66, 100
2, 43264, Note_off_c, 0, 74, 100
2, 43264, Note_off_c, 0, 66, 100
2, 43584, Note_on_c, 0, 62, 100
2, 43712, Note_off_c, 0, 62, 100
2, 43776, Note_on_c, 0, 67, 100
2, 43840, Note_off_c, 0, 67, 100
2, 43872, Note_on_c, 0, 62, 100
2, 43936, Note_off_c, 0, 62, 100
2, 43968, Note_on_c, 0, 71, 100
2, 44032, Note_off_c, 0, 71, 100
2, 44064, Note_on_c, 0, 67, 100
2, 44128, Note_off_c, 0, 67, 100
2, 44160, Note_on_c, 0, 74, 100
2, 44288, Note_off_c, 0, 74, 100
2, 44352, Note_on_c, 0, 67, 100
2, 44480, Note_off_c, 0, 67, 100
2, 44544, Note_on_c, 0, 67, 100
2, 44800, Note_off_c, 0, 67, 100
2, 44928, Note_on_c, 0, 66, 100
2, 45056, Note_off_c, 0, 66, 100
2, 45120, Note_on_c, 0, 69, 100
2, 45248, Note_off_c, 0, 69, 100
2, 45312, Note_on_c, 0, 72, 100
2, 45440, Note_off_c, 0, 72, 100
2, 45504, Note_on_c, 0, 76, 100
2, 45504, Note_on_c, 0, 72, 100
2, 45632, Note_off_c, 0, 76, 100
2, 45632, Note_off_c, 0, 72, 100
2, 45696, Note_on_c, 0, 74, 100
2, 45696, Note_on_c, 0, 71, 100
2, 45824, Note_off_c, 0, 74, 100
2, 45824, Note_off_c, 0, 71, 100
2, 45888, Note_on_c, 0, 72, 100
2, 45888, Note_on_c, 0, 69, 100
2, 46016, Note_off_c, 0, 72, 100
2, 46016, Note_off_c, 0, 69, 100
2, 46080, Note_on_c, 0, 72, 100
2, 46080, Note_on_c, 0, 69, 100
2, 46336, Note_off_c, 0, 72, 100
2, 46336, Note_off_c, 0, 69, 100
2, 46464, Note_on_c, 0, 71, 100
2, 46464, Note_on_c, 0, 67, 100
2, 46592, Note_off_c, 0, 71, 100
2, 46592, Note_off_c, 0, 67, 100
2, 46656, Note_on_c, 0, 71, 100
2, 46784, Note_off_c, 0, 71, 100
2, 46848, Note_on_c, 0, 83, 100
2, 46912, Note_off_c, 0, 83, 100
2, 46944, Note_on_c, 0, 79, 100
2, 47008, Note_off_c, 0, 79, 100
2, 47040, Note_on_c, 0, 78, 100
2, 47104, Note_off_c, 0, 78, 100
2, 47136, Note_on_c, 0, 76, 100
2, 47200, Note_off_c, 0, 76, 100
2, 47232, Note_on_c, 0, 75, 100
2, 47296, Note_off_c, 0, 75, 100
2, 47328, Note_on_c, 0, 76, 100
2, 47392, Note_off_c, 0, 76, 100
2, 47424, Note_on_c, 0, 75, 100
2, 47488, Note_off_c, 0, 75, 100
2, 47520, Note_on_c, 0, 76, 100
2, 47584, Note_off_c, 0, 76, 100
2, 47616, Note_on_c, 0, 81, 100
2, 47680, Note_off_c, 0, 81, 100
2, 47712, Note_on_c, 0, 78, 100
2, 47776, Note_off_c, 0, 78, 100
2, 47808, Note_on_c, 0, 76, 100
2, 47872, Note_off_c, 0, 76, 100
2, 47904, Note_on_c, 0, 74, 100
2, 47968, Note_off_c, 0, 74, 100
2, 48000, Note_on_c, 0, 73, 100
2, 48064, Note_off_c, 0, 73, 100
2, 48096, Note_on_c, 0, 74, 100
2, 48160, Note_off_c, 0, 74, 100
2, 48192, Note_on_c, 0, 73, 100
2, 48256, Note_off_c, 0, 73, 100
2, 48288, Note_on_c, 0, 74, 100
2, 48352, Note_off_c, 0, 74, 100
2, 48384, Note_on_c, 0, 71, 100
2, 48512, Note_off_c, 0, 71, 100
2, 48576, Note_on_c, 0, 79, 100
2, 48704, Note_off_c, 0, 79, 100
2, 48960, Note_on_c, 0, 73, 100
2, 48960, Note_on_c, 0, 67, 100
2, 49088, Note_off_c, 0, 73, 100
2, 49088, Note_off_c, 0, 67, 100
2, 49152, Note_on_c, 0, 74, 100
2, 49152, Note_on_c, 0, 66, 100
2, 49408, Note_off_c, 0, 74, 100
2, 49408, Note_off_c, 0, 66, 100
2, 49728, Note_on_c, 0, 62, 100
2, 49856, Note_off_c, 0, 62, 100
2, 49920, Note_on_c, 0, 74, 100
2, 49984, Note_off_c, 0, 74, 100
2, 50016, Note_on_c, 0, 71, 100
2, 50080, Note_off_c, 0, 71, 100
2, 50112, Note_on_c, 0, 69, 100
2, 50176, Note_off_c, 0, 69, 100
2, 50208, Note_on_c, 0, 71, 100
2, 50272, Note_off_c, 0, 71, 100
2, 50304, Note_on_c, 0, 64, 100
2, 50432, Note_off_c, 0, 64, 100
2, 50496, Note_on_c, 0, 71, 100
2, 50624, Note_off_c, 0, 71, 100
2, 50688, Note_on_c, 0, 71, 100
2, 50944, Note_off_c, 0, 71, 100
2, 51072, Note_on_c, 0, 72, 100
2, 51200, Note_off_c, 0, 72, 100
2, 51264, Note_on_c, 0, 60, 100
2, 51392, Note_off_c, 0, 60, 100
2, 51456, Note_on_c, 0, 72, 100
2, 51520, Note_off_c, 0, 72, 100
2, 51552, Note_on_c, 0, 69, 100
2, 51616, Note_off_c, 0, 69, 100
2, 51648, Note_on_c, 0, 67, 100
2, 51712, Note_off_c, 0, 67, 100
2, 51744, Note_on_c, 0, 69, 100
2, 51808, Note_off_c, 0, 69, 100
2, 51840, Note_on_c, 0, 62, 100
2, 51968, Note_off_c, 0, 62, 100
2, 52032, Note_on_c, 0, 69, 100
2, 52160, Note_off_c, 0, 69, 100
2, 52224, Note_on_c, 0, 69, 100
2, 52480, Note_off_c, 0, 69, 100
2, 52608, Note_on_c, 0, 71, 100
2, 52736, Note_off_c, 0, 71, 100
2, 52800, Note_on_c, 0, 67, 100
2, 52928, Note_off_c, 0, 67, 100
2, 52992, Note_on_c, 0, 66, 100
2, 53056, Note_off_c, 0, 66, 100
2, 53088, Note_on_c, 0, 64, 100
2, 53152, Note_off_c, 0, 64, 100
2, 53184, Note_on_c, 0, 63, 100
2, 53248, Note_off_c, 0, 63, 100
2, 53280, Note_on_c, 0, 64, 100
2, 53344, Note_off_c, 0, 64, 100
2, 53376, Note_on_c, 0, 69, 100
2, 53632, Note_off_c, 0, 69, 100
2, 53760, Note_on_c, 0, 67, 100
2, 53824, Note_off_c, 0, 67, 100
2, 53856, Note_on_c, 0, 66, 100
2, 53920, Note_off_c, 0, 66, 100
2, 53952, Note_on_c, 0, 65, 100
2, 54016, Note_off_c, 0, 65, 100
2, 54048, Note_on_c, 0, 66, 100
2, 54112, Note_off_c, 0, 66, 100
2, 54144, Note_on_c, 0, 71, 100
2, 54400, Note_off_c, 0, 71, 100
2, 54528, Note_on_c, 0, 67, 100
2, 54656, Note_off_c, 0, 67, 100
2, 54720, Note_on_c, 0, 74, 100
2, 54848, Note_off_c, 0, 74, 100
2, 54912, Note_on_c, 0, 72, 100
2, 55040, Note_off_c, 0, 72, 100
2, 55104, Note_on_c, 0, 71, 100
2, 55232, Note_off_c, 0, 71, 100
2, 55296, Note_on_c, 0, 71, 100
2, 55552, Note_off_c, 0, 71, 100
2, 55680, Note_on_c, 0, 69, 100
2, 55808, Note_off_c, 0, 69, 100
2, 55872, Note_on_c, 0, 62, 100
2, 56000, Note_off_c, 0, 62, 100
2, 56064, Note_on_c, 0, 67, 100
2, 56128, Note_off_c, 0, 67, 100
2, 56160, Note_on_c, 0, 62, 100
2, 56224, Note_off_c, 0, 62, 100
2, 56256, Note_on_c, 0, 71, 100
2, 56320, Note_off_c, 0, 71, 100
2, 56352, Note_on_c, 0, 67, 100
2, 56416, Note_off_c, 0, 67, 100
2, 56448, Note_on_c, 0, 74, 100
2, 56576, Note_off_c, 0, 74, 100
2, 56640, Note_on_c, 0, 67, 100
2, 56768, Note_off_c, 0, 67, 100
2, 56832, Note_on_c, 0, 67, 100
2, 57088, Note_off_c, 0, 67, 100
2, 57216, Note_on_c, 0, 66, 100
2, 57344, Note_off_c, 0, 66, 100
2, 57408, Note_on_c, 0, 69, 100
2, 57536, Note_off_c, 0, 69, 100
2, 57600, Note_on_c, 0, 72, 100
2, 57728, Note_off_c, 0, 72, 100
2, 57792, Note_on_c, 0, 76, 100
2, 57792, Note_on_c, 0, 72, 100
2, 57920, Note_off_c, 0, 76, 100
2, 57920, Note_off_c, 0, 72, 100
2, 57984, Note_on_c, 0, 74, 100
2, 57984, Note_on_c, 0, 71, 100
2, 58112, Note_off_c, 0, 74, 100
2, 58112, Note_off_c, 0, 71, 100
2, 58176, Note_on_c, 0, 72, 100
2, 58176, Note_on_c, 0, 69, 100
2, 58304, Note_off_c, 0, 72, 100
2, 58304, Note_off_c, 0, 69, 100
2, 58368, Note_on_c, 0, 72, 100
2, 58368, Note_on_c, 0, 69, 100
2, 58624, Note_off_c, 0, 72, 100
2, 58624, Note_off_c, 0, 69, 100
2, 58752, Note_on_c, 0, 71, 100
2, 58752, Note_on_c, 0, 67, 100
2, 58880, Note_off_c, 0, 71, 100
2, 58880, Note_off_c, 0, 67, 100
2, 58944, Note_on_c, 0, 67, 100
2, 59072, Note_off_c, 0, 67, 100
2, 59136, Note_on_c, 0, 76, 100
2, 59200, Note_off_c, 0, 76, 100
2, 59232, Note_on_c, 0, 75, 100
2, 59296, Note_off_c, 0, 75, 100
2, 59328, Note_on_c, 0, 76, 100
2, 59392, Note_off_c, 0, 76, 100
2, 59424, Note_on_c, 0, 78, 100
2, 59488, Note_off_c, 0, 78, 100
2, 59520, Note_on_c, 0, 79, 100
2, 59584, Note_off_c, 0, 79, 100
2, 59616, Note_on_c, 0, 76, 100
2, 59680, Note_off_c, 0, 76, 100
2, 59712, Note_on_c, 0, 74, 100
2, 59776, Note_off_c, 0, 74, 100
2, 59808, Note_on_c, 0, 72, 100
2, 59872, Note_off_c, 0, 72, 100
2, 59904, Note_on_c, 0, 74, 100
2, 60032, Note_off_c, 0, 74, 100
2, 60096, Note_on_c, 0, 79, 100
2, 60160, Note_off_c, 0, 79, 100
2, 60192, Note_on_c, 0, 83, 100
2, 60256, Note_off_c, 0, 83, 100
2, 60288, Note_on_c, 0, 86, 100
2, 60416, Note_off_c, 0, 86, 100
2, 60480, Note_on_c, 0, 74, 100
2, 60480, Note_on_c, 0, 71, 100
2, 60608, Note_off_c, 0, 74, 100
2, 60608, Note_off_c, 0, 71, 100
2, 60648, Note_on_c, 0, 74, 100
2, 60648, Note_on_c, 0, 71, 100
2, 60664, Note_off_c, 0, 74, 100
2, 60664, Note_off_c, 0, 71, 100
2, 60672, Note_on_c, 0, 72, 100
2, 60672, Note_on_c, 0, 69, 100
2, 60800, Note_off_c, 0, 72, 100
2, 60800, Note_off_c, 0, 69, 100
2, 60864, Note_on_c, 0, 71, 100
2, 60864, Note_on_c, 0, 67, 100
2, 61120, Note_off_c, 0, 71, 100
2, 61120, Note_off_c, 0, 67, 100
2, 61248, Note_on_c, 0, 69, 100
2, 61248, Note_on_c, 0, 66, 100
2, 61376, Note_off_c, 0, 69, 100
2, 61376, Note_off_c, 0, 66, 100
2, 61440, Note_on_c, 0, 67, 100
2, 61696, Note_off_c, 0, 67, 100
2, 62016, Note_on_c, 0, 62, 100
2, 62144, Note_off_c, 0, 62, 100
2, 62208, Note_on_c, 0, 74, 100
2, 62272, Note_off_c, 0, 74, 100
2, 62304, Note_on_c, 0, 71, 100
2, 62368, Note_off_c, 0, 71, 100
2, 62400, Note_on_c, 0, 69, 100
2, 62464, Note_off_c, 0, 69, 100
2, 62496, Note_on_c, 0, 71, 100
2, 62560, Note_off_c, 0, 71, 100
2, 62592, Note_on_c, 0, 64, 100
2, 62720, Note_off_c, 0, 64, 100
2, 62784, Note_on_c, 0, 71, 100
2, 62912, Note_off_c, 0, 71, 100
2, 62976, Note_on_c, 0, 71, 100
2, 63232, Note_off_c, 0, 71, 100
2, 63360, Note_on_c, 0, 72, 100
2, 63488, Note_off_c, 0, 72, 100
2, 63552, Note_on_c, 0, 60, 100
2, 63680, Note_off_c, 0, 60, 100
2, 63744, Note_on_c, 0, 72, 100
2, 63808, Note_off_c, 0, 72, 100
2, 63840, Note_on_c, 0, 69, 100
2, 63904, Note_off_c, 0, 69, 100
2, 63936, Note_on_c, 0, 67, 100
2, 64000, Note_off_c, 0, 67, 100
2, 64032, Note_on_c, 0, 69, 100
2, 64096, Note_off_c, 0, 69, 100
2, 64128, Note_on_c, 0, 62, 100
2, 64256, Note_off_c, 0, 62, 100
2, 64320, Note_on_c, 0, 69, 100
2, 64448, Note_off_c, 0, 69, 100
2, 64512, Note_on_c, 0, 69, 100
2, 64768, Note_off_c, 0, 69, 100
2, 64896, Note_on_c, 0, 71, 100
2, 65024, Note_off_c, 0, 71, 100
2, 65088, Note_on_c, 0, 67, 100
2, 65216, Note_off_c, 0, 67, 100
2, 65280, Note_on_c, 0, 66, 100
2, 65344, Note_off_c, 0, 66, 100
2, 65376, Note_on_c, 0, 64, 100
2, 65440, Note_off_c, 0, 64, 100
2, 65472, Note_on_c, 0, 63, 100
2, 65536, Note_off_c, 0, 63, 100
2, 65568, Note_on_c, 0, 64, 100
2, 65632, Note_off_c, 0, 64, 100
2, 65664, Note_on_c, 0, 69, 100
2, 65920, Note_off_c, 0, 69, 100
2, 66048, Note_on_c, 0, 67, 100
2, 66112, Note_off_c, 0, 67, 100
2, 66144, Note_on_c, 0, 66, 100
2, 66208, Note_off_c, 0, 66, 100
2, 66240, Note_on_c, 0, 65, 100
2, 66304, Note_off_c, 0, 65, 100
2, 66336, Note_on_c, 0, 66, 100
2, 66400, Note_off_c, 0, 66, 100
2, 66432, Note_on_c, 0, 71, 100
2, 66688, Note_off_c, 0, 71, 100
2, 66816, Note_on_c, 0, 67, 100
2, 66944, Note_off_c, 0, 67, 100
2, 67008, Note_on_c, 0, 74, 100
2, 67136, Note_off_c, 0, 74, 100
2, 67200, Note_on_c, 0, 72, 100
2, 67328, Note_off_c, 0, 72, 100
2, 67392, Note_on_c, 0, 71, 100
2, 67520, Note_off_c, 0, 71, 100
2, 67584, Note_on_c, 0, 71, 100
2, 67840, Note_off_c, 0, 71, 100
2, 67968, Note_on_c, 0, 69, 100
2, 68096, Note_off_c, 0, 69, 100
2, 68160, Note_on_c, 0, 62, 100
2, 68288, Note_off_c, 0, 62, 100
2, 68352, Note_on_c, 0, 67, 100
2, 68416, Note_off_c, 0, 67, 100
2, 68448, Note_on_c, 0, 62, 100
2, 68512, Note_off_c, 0, 62, 100
2, 68544, Note_on_c, 0, 71, 100
2, 68608, Note_off_c, 0, 71, 100
2, 68640, Note_on_c, 0, 67, 100
2, 68704, Note_off_c, 0, 67, 100
2, 68736, Note_on_c, 0, 74, 100
2, 68864, Note_off_c, 0, 74, 100
2, 68928, Note_on_c, 0, 67, 100
2, 69056, Note_off_c, 0, 67, 100
2, 69120, Note_on_c, 0, 67, 100
2, 69376, Note_off_c, 0, 67, 100
2, 69504, Note_on_c, 0, 66, 100
2, 69632, Note_off_c, 0, 66, 100
2, 69696, Note_on_c, 0, 69, 100
2, 69824, Note_off_c, 0, 69, 100
2, 69888, Note_on_c, 0, 72, 100
2, 70016, Note_off_c, 0, 72, 100
2, 70080, Note_on_c, 0, 76, 100
2, 70080, Note_on_c, 0, 72, 100
2, 70208, Note_off_c, 0, 76, 100
2, 70208, Note_off_c, 0, 72, 100
2, 70272, Note_on_c, 0, 74, 100
2, 70272, Note_on_c, 0, 71, 100
2, 70400, Note_off_c, 0, 74, 100
2, 70400, Note_off_c, 0, 71, 100
2, 70464, Note_on_c, 0, 72, 100
2, 70464, Note_on_c, 0, 69, 100
2, 70592, Note_off_c, 0, 72, 100
2, 70592, Note_off_c, 0, 69, 100
2, 70656, Note_on_c, 0, 72, 100
2, 70656, Note_on_c, 0, 69, 100
2, 70912, Note_off_c, 0, 72, 100
2, 70912, Note_off_c, 0, 69, 100
2, 71040, Note_on_c, 0, 71, 100
2, 71040, Note_on_c, 0, 67, 100
2, 71168, Note_off_c, 0, 71, 100
2, 71168, Note_off_c, 0, 67, 100
2, 71232, Note_on_c, 0, 67, 100
2, 71360, Note_off_c, 0, 67, 100
2, 71424, Note_on_c, 0, 76, 100
2, 71488, Note_off_c, 0, 76, 100
2, 71520, Note_on_c, 0, 75, 100
2, 71584, Note_off_c, 0, 75, 100
2, 71616, Note_on_c, 0, 76, 100
2, 71680, Note_off_c, 0, 76, 100
2, 71712, Note_on_c, 0, 78, 100
2, 71776, Note_off_c, 0, 78, 100
2, 71808, Note_on_c, 0, 79, 100
2, 71872, Note_off_c, 0, 79, 100
2, 71904, Note_on_c, 0, 76, 100
2, 71968, Note_off_c, 0, 76, 100
2, 72000, Note_on_c, 0, 74, 100
2, 72064, Note_off_c, 0, 74, 100
2, 72096, Note_on_c, 0, 72, 100
2, 72160, Note_off_c, 0, 72, 100
2, 72192, Note_on_c, 0, 74, 100
2, 72320, Note_off_c, 0, 74, 100
2, 72384, Note_on_c, 0, 79, 100
2, 72448, Note_off_c, 0, 79, 100
2, 72480, Note_on_c, 0, 83, 100
2, 72544, Note_off_c, 0, 83, 100
2, 72576, Note_on_c, 0, 86, 100
2, 72704, Note_off_c, 0, 86, 100
2, 72768, Note_on_c, 0, 74, 100
2, 72768, Note_on_c, 0, 71, 100
2, 72896, Note_off_c, 0, 74, 100
2, 72896, Note_off_c, 0, 71, 100
2, 72936, Note_on_c, 0, 74, 100
2, 72936, Note_on_c, 0, 71, 100
2, 72952, Note_off_c, 0, 74, 100
2, 72952, Note_off_c, 0, 71, 100
2, 72960, Note_on_c, 0, 72, 100
2, 72960, Note_on_c, 0, 69, 100
2, 73088, Note_off_c, 0, 72, 100
2, 73088, Note_off_c, 0, 69, 100
2, 73152, Note_on_c, 0, 71, 100
2, 73152, Note_on_c, 0, 67, 100
2, 73408, Note_off_c, 0, 71, 100
2, 73408, Note_off_c, 0, 67, 100
2, 73536, Note_on_c, 0, 69, 100
2, 73536, Note_on_c, 0, 66, 100
2, 73664, Note_off_c, 0, 69, 100
2, 73664, Note_off_c, 0, 66, 100
2, 73728, Note_on_c, 0, 67, 100
2, 73984, Note_off_c, 0, 67, 100
2, 74304, Note_on_c, 0, 74, 100
2, 74432, Note_off_c, 0, 74, 100
2, 74496, Note_on_c, 0, 79, 100
2, 74560, Note_off_c, 0, 79, 100
2, 74592, Note_on_c, 0, 78, 100
2, 74656, Note_off_c, 0, 78, 100
2, 74688, Note_on_c, 0, 76, 100
2, 74752, Note_off_c, 0, 76, 100
2, 74784, Note_on_c, 0, 74, 100
2, 74848, Note_off_c, 0, 74, 100
2, 74880, Note_on_c, 0, 72, 100
2, 74944, Note_off_c, 0, 72, 100
2, 74976, Note_on_c, 0, 71, 100
2, 75040, Note_off_c, 0, 71, 100
2, 75072, Note_on_c, 0, 69, 100
2, 75136, Note_off_c, 0, 69, 100
2, 75168, Note_on_c, 0, 67, 100
2, 75232, Note_off_c, 0, 67, 100
2, 75264, Note_on_c, 0, 66, 100
2, 75328, Note_off_c, 0, 66, 100
2, 75360, Note_on_c, 0, 62, 100
2, 75424, Note_off_c, 0, 62, 100
2, 75456, Note_on_c, 0, 67, 100
2, 75520, Note_off_c, 0, 67, 100
2, 75552, Note_on_c, 0, 62, 100
2, 75616, Note_off_c, 0, 62, 100
2, 75648, Note_on_c, 0, 69, 100
2, 75712, Note_off_c, 0, 69, 100
2, 75744, Note_on_c, 0, 62, 100
2, 75808, Note_off_c, 0, 62, 100
2, 75840, Note_on_c, 0, 71, 100
2, 75904, Note_off_c, 0, 71, 100
2, 75936, Note_on_c, 0, 62, 100
2, 76000, Note_off_c, 0, 62, 100
2, 76032, Note_on_c, 0, 72, 100
2, 76096, Note_off_c, 0, 72, 100
2, 76128, Note_on_c, 0, 71, 100
2, 76192, Note_off_c, 0, 71, 100
2, 76224, Note_on_c, 0, 69, 100
2, 76288, Note_off_c, 0, 69, 100
2, 76320, Note_on_c, 0, 67, 100
2, 76384, Note_off_c, 0, 67, 100
2, 76416, Note_on_c, 0, 66, 100
2, 76480, Note_off_c, 0, 66, 100
2, 76512, Note_on_c, 0, 64, 100
2, 76576, Note_off_c, 0, 64, 100
2, 76608, Note_on_c, 0, 62, 100
2, 76672, Note_off_c, 0, 62, 100
2, 76704, Note_on_c, 0, 60, 100
2, 76768, Note_off_c, 0, 60, 100
2, 76800, Note_on_c, 0, 59, 100
2, 77056, Note_off_c, 0, 59, 100
2, 77376, Note_on_c, 0, 71, 100
2, 77504, Note_off_c, 0, 71, 100
2, 77568, Note_on_c, 0, 83, 100
2, 77632, Note_off_c, 0, 83, 100
2, 77664, Note_on_c, 0, 71, 100
2, 77728, Note_off_c, 0, 71, 100
2, 77760, Note_on_c, 0, 81, 100
2, 77824, Note_off_c, 0, 81, 100
2, 77856, Note_on_c, 0, 71, 100
2, 77920, Note_off_c, 0, 71, 100
2, 77952, Note_on_c, 0, 79, 100
2, 78016, Note_off_c, 0, 79, 100
2, 78048, Note_on_c, 0, 71, 100
2, 78112, Note_off_c, 0, 71, 100
2, 78144, Note_on_c, 0, 78, 100
2, 78208, Note_off_c, 0, 78, 100
2, 78240, Note_on_c, 0, 71, 100
2, 78304, Note_off_c, 0, 71, 100
2, 78336, Note_on_c, 0, 71, 100
2, 78400, Note_off_c, 0, 71, 100
2, 78432, Note_on_c, 0, 79, 100
2, 78496, Note_off_c, 0, 79, 100
2, 78528, Note_on_c, 0, 71, 100
2, 78592, Note_off_c, 0, 71, 100
2, 78624, Note_on_c, 0, 80, 100
2, 78688, Note_off_c, 0, 80, 100
2, 78720, Note_on_c, 0, 71, 100
2, 78784, Note_off_c, 0, 71, 100
2, 78816, Note_on_c, 0, 81, 100
2, 78880, Note_off_c, 0, 81, 100
2, 78912, Note_on_c, 0, 71, 100
2, 78976, Note_off_c, 0, 71, 100
2, 79008, Note_on_c, 0, 79, 100
2, 79072, Note_off_c, 0, 79, 100
2, 79104, Note_on_c, 0, 78, 100
2, 79168, Note_off_c, 0, 78, 100
2, 79200, Note_on_c, 0, 69, 100
2, 79264, Note_off_c, 0, 69, 100
2, 79296, Note_on_c, 0, 79, 100
2, 79360, Note_off_c, 0, 79, 100
2, 79392, Note_on_c, 0, 76, 100
2, 79456, Note_off_c, 0, 76, 100
2, 79488, Note_on_c, 0, 78, 100
2, 79552, Note_off_c, 0, 78, 100
2, 79584, Note_on_c, 0, 74, 100
2, 79648, Note_off_c, 0, 74, 100
2, 79680, Note_on_c, 0, 76, 100
2, 79744, Note_off_c, 0, 76, 100
2, 79776, Note_on_c, 0, 73, 100
2, 79840, Note_off_c, 0, 73, 100
2, 79872, Note_on_c, 0, 74, 100
2, 80128, Note_off_c, 0, 74, 100
2, 80448, Note_on_c, 0, 74, 100
2, 80576, Note_off_c, 0, 74, 100
2, 80640, Note_on_c, 0, 79, 100
2, 80704, Note_off_c, 0, 79, 100
2, 80736, Note_on_c, 0, 78, 100
2, 80800, Note_off_c, 0, 78, 100
2, 80832, Note_on_c, 0, 76, 100
2, 80896, Note_off_c, 0, 76, 100
2, 80928, Note_on_c, 0, 74, 100
2, 80992, Note_off_c, 0, 74, 100
2, 81024, Note_on_c, 0, 72, 100
2, 81088, Note_off_c, 0, 72, 100
2, 81120, Note_on_c, 0, 71, 100
2, 81184, Note_off_c, 0, 71, 100
2, 81216, Note_on_c, 0, 69, 100
2, 81280, Note_off_c, 0, 69, 100
2, 81312, Note_on_c, 0, 67, 100
2, 81376, Note_off_c, 0, 67, 100
2, 81408, Note_on_c, 0, 66, 100
2, 81472, Note_off_c, 0, 66, 100
2, 81504, Note_on_c, 0, 62, 100
2, 81568, Note_off_c, 0, 62, 100
2, 81600, Note_on_c, 0, 67, 100
2, 81664, Note_off_c, 0, 67, 100
2, 81696, Note_on_c, 0, 62, 100
2, 81760, Note_off_c, 0, 62, 100
2, 81792, Note_on_c, 0, 69, 100
2, 81856, Note_off_c, 0, 69, 100
2, 81888, Note_on_c, 0, 62, 100
2, 81952, Note_off_c, 0, 62, 100
2, 81984, Note_on_c, 0, 71, 100
2, 82048, Note_off_c, 0, 71, 100
2, 82080, Note_on_c, 0, 62, 100
2, 82144, Note_off_c, 0, 62, 100
2, 82176, Note_on_c, 0, 72, 100
2, 82240, Note_off_c, 0, 72, 100
2, 82272, Note_on_c, 0, 71, 100
2, 82336, Note_off_c, 0, 71, 100
2, 82368, Note_on_c, 0, 69, 100
2, 82432, Note_off_c, 0, 69, 100
2, 82464, Note_on_c, 0, 67, 100
2, 82528, Note_off_c, 0, 67, 100
2, 82560, Note_on_c, 0, 66, 100
2, 82624, Note_off_c, 0, 66, 100
2, 82656, Note_on_c, 0, 64, 100
2, 82720, Note_off_c, 0, 64, 100
2, 82752, Note_on_c, 0, 62, 100
2, 82816, Note_off_c, 0, 62, 100
2, 82848, Note_on_c, 0, 60, 100
2, 82912, Note_off_c, 0, 60, 100
2, 82944, Note_on_c, 0, 59, 100
2, 83200, Note_off_c, 0, 59, 100
2, 83520, Note_on_c, 0, 71, 100
2, 83648, Note_off_c, 0, 71, 100
2, 83712, Note_on_c, 0, 83, 100
2, 83776, Note_off_c, 0, 83, 100
2, 83808, Note_on_c, 0, 71, 100
2, 83872, Note_off_c, 0, 71, 100
2, 83904, Note_on_c, 0, 81, 100
2, 83968, Note_off_c, 0, 81, 100
2, 84000, Note_on_c, 0, 71, 100
2, 84064, Note_off_c, 0, 71, 100
2, 84096, Note_on_c, 0, 79, 100
2, 84160, Note_off_c, 0, 79, 100
2, 84192, Note_on_c, 0, 71, 100
2, 84256, Note_off_c, 0, 71, 100
2, 84288, Note_on_c, 0, 78, 100
2, 84352, Note_off_c, 0, 78, 100
2, 84384, Note_on_c, 0, 71, 100
2, 84448, Note_off_c, 0, 71, 100
2, 84480, Note_on_c, 0, 71, 100
2, 84544, Note_off_c, 0, 71, 100
2, 84576, Note_on_c, 0, 79, 100
2, 84640, Note_off_c, 0, 79, 100
2, 84672, Note_on_c, 0, 71, 100
2, 84736, Note_off_c, 0, 71, 100
2, 84768, Note_on_c, 0, 80, 100
2, 84832, Note_off_c, 0, 80, 100
2, 84864, Note_on_c, 0, 71, 100
2, 84928, Note_off_c, 0, 71, 100
2, 84960, Note_on_c, 0, 81, 100
2, 85024, Note_off_c, 0, 81, 100
2, 85056, Note_on_c, 0, 71, 100
2, 85120, Note_off_c, 0, 71, 100
2, 85152, Note_on_c, 0, 79, 100
2, 85216, Note_off_c, 0, 79, 100
2, 85248, Note_on_c, 0, 78, 100
2, 85312, Note_off_c, 0, 78, 100
2, 85344, Note_on_c, 0, 69, 100
2, 85408, Note_off_c, 0, 69, 100
2, 85440, Note_on_c, 0, 79, 100
2, 85504, Note_off_c, 0, 79, 100
2, 85536, Note_on_c, 0, 76, 100
2, 85600, Note_off_c, 0, 76, 100
2, 85632, Note_on_c, 0, 78, 100
2, 85696, Note_off_c, 0, 78, 100
2, 85728, Note_on_c, 0, 74, 100
2, 85792, Note_off_c, 0, 74, 100
2, 85824, Note_on_c, 0, 76, 100
2, 85888, Note_off_c, 0, 76, 100
2, 85920, Note_on_c, 0, 73, 100
2, 85984, Note_off_c, 0, 73, 100
2, 86016, Note_on_c, 0, 74, 100
2, 86272, Note_off_c, 0, 74, 100
2, 86592, Note_on_c, 0, 74, 100
2, 86720, Note_off_c, 0, 74, 100
2, 86784, Note_on_c, 0, 86, 100
2, 86848, Note_off_c, 0, 86, 100
2, 86880, Note_on_c, 0, 74, 100
2, 86944, Note_off_c, 0, 74, 100
2, 86976, Note_on_c, 0, 84, 100
2, 87040, Note_off_c, 0, 84, 100
2, 87072, Note_on_c, 0, 74, 100
2, 87136, Note_off_c, 0, 74, 100
2, 87168, Note_on_c, 0, 83, 100
2, 87296, Note_off_c, 0, 83, 100
2, 87360, Note_on_c, 0, 80, 100
2, 87424, Note_off_c, 0, 80, 100
2, 87456, Note_on_c, 0, 76, 100
2, 87520, Note_off_c, 0, 76, 100
2, 87552, Note_on_c, 0, 81, 100
2, 87616, Note_off_c, 0, 81, 100
2, 87648, Note_on_c, 0, 76, 100
2, 87712, Note_off_c, 0, 76, 100
2, 87744, Note_on_c, 0, 83, 100
2, 87808, Note_off_c, 0, 83, 100
2, 87840, Note_on_c, 0, 76, 100
2, 87904, Note_off_c, 0, 76, 100
2, 87936, Note_on_c, 0, 84, 100
2, 88064, Note_off_c, 0, 84, 100
2, 88128, Note_on_c, 0, 72, 100
2, 88256, Note_off_c, 0, 72, 100
2, 88320, Note_on_c, 0, 84, 100
2, 88384, Note_off_c, 0, 84, 100
2, 88416, Note_on_c, 0, 72, 100
2, 88480, Note_off_c, 0, 72, 100
2, 88512, Note_on_c, 0, 83, 100
2, 88576, Note_off_c, 0, 83, 100
2, 88608, Note_on_c, 0, 72, 100
2, 88672, Note_off_c, 0, 72, 100
2, 88704, Note_on_c, 0, 81, 100
2, 88832, Note_off_c, 0, 81, 100
2, 88896, Note_on_c, 0, 78, 100
2, 88960, Note_off_c, 0, 78, 100
2, 88992, Note_on_c, 0, 74, 100
2, 89056, Note_off_c, 0, 74, 100
2, 89088, Note_on_c, 0, 79, 100
2, 89152, Note_off_c, 0, 79, 100
2, 89184, Note_on_c, 0, 74, 100
2, 89248, Note_off_c, 0, 74, 100
2, 89280, Note_on_c, 0, 81, 100
2, 89344, Note_off_c, 0, 81, 100
2, 89376, Note_on_c, 0, 74, 100
2, 89440, Note_off_c, 0, 74, 100
2, 89472, Note_on_c, 0, 83, 100
2, 89600, Note_off_c, 0, 83, 100
2, 89664, Note_on_c, 0, 74, 100
2, 89728, Note_off_c, 0, 74, 100
2, 89760, Note_on_c, 0, 67, 100
2, 89824, Note_off_c, 0, 67, 100
2, 89856, Note_on_c, 0, 76, 100
2, 89920, Note_off_c, 0, 76, 100
2, 89952, Note_on_c, 0, 67, 100
2, 90016, Note_off_c, 0, 67, 100
2, 90048, Note_on_c, 0, 77, 100
2, 90112, Note_off_c, 0, 77, 100
2, 90144, Note_on_c, 0, 67, 100
2, 90208, Note_off_c, 0, 67, 100
2, 90240, Note_on_c, 0, 76, 100
2, 90368, Note_off_c, 0, 76, 100
2, 90432, Note_on_c, 0, 76, 100
2, 90496, Note_off_c, 0, 76, 100
2, 90528, Note_on_c, 0, 69, 100
2, 90592, Note_off_c, 0, 69, 100
2, 90624, Note_on_c, 0, 78, 100
2, 90688, Note_off_c, 0, 78, 100
2, 90720, Note_on_c, 0, 69, 100
2, 90784, Note_off_c, 0, 69, 100
2, 90816, Note_on_c, 0, 79, 100
2, 90880, Note_off_c, 0, 79, 100
2, 90912, Note_on_c, 0, 69, 100
2, 90976, Note_off_c, 0, 69, 100
2, 91008, Note_on_c, 0, 78, 100
2, 91136, Note_off_c, 0, 78, 100
2, 91200, Note_on_c, 0, 78, 100
2, 91264, Note_off_c, 0, 78, 100
2, 91296, Note_on_c, 0, 71, 100
2, 91360, Note_off_c, 0, 71, 100
2, 91392, Note_on_c, 0, 79, 100
2, 91456, Note_off_c, 0, 79, 100
2, 91488, Note_on_c, 0, 71, 100
2, 91552, Note_off_c, 0, 71, 100
2, 91584, Note_on_c, 0, 72, 100
2, 91648, Note_off_c, 0, 72, 100
2, 91680, Note_on_c, 0, 81, 100
2, 91744, Note_off_c, 0, 81, 100
2, 91776, Note_on_c, 0, 72, 100
2, 91904, Note_off_c, 0, 72, 100
2, 91968, Note_on_c, 0, 71, 100
2, 92096, Note_off_c, 0, 71, 100
2, 92160, Note_on_c, 0, 71, 100
2, 92176, Note_off_c, 0, 71, 100
2, 92184, Note_on_c, 0, 72, 100
2, 92200, Note_off_c, 0, 72, 100
2, 92208, Note_on_c, 0, 71, 100
2, 92224, Note_off_c, 0, 71, 100
2, 92232, Note_on_c, 0, 72, 100
2, 92248, Note_off_c, 0, 72, 100
2, 92256, Note_on_c, 0, 71, 100
2, 92272, Note_off_c, 0, 71, 100
2, 92280, Note_on_c, 0, 72, 100
2, 92296, Note_off_c, 0, 72, 100
2, 92304, Note_on_c, 0, 71, 100
2, 92320, Note_off_c, 0, 71, 100
2, 92328, Note_on_c, 0, 72, 100
2, 92344, Note_off_c, 0, 72, 100
2, 92352, Note_on_c, 0, 71, 100
2, 92368, Note_off_c, 0, 71, 100
2, 92376, Note_on_c, 0, 72, 100
2, 92392, Note_off_c, 0, 72, 100
2, 92400, Note_on_c, 0, 71, 100
2, 92416, Note_off_c, 0, 71, 100
2, 92424, Note_on_c, 0, 72, 100
2, 92440, Note_off_c, 0, 72, 100
2, 92448, Note_on_c, 0, 71, 100
2, 92464, Note_off_c, 0, 71, 100
2, 92472, Note_on_c, 0, 72, 100
2, 92488, Note_off_c, 0, 72, 100
2, 92496, Note_on_c, 0, 71, 100
2, 92512, Note_off_c, 0, 71, 100
2, 92520, Note_on_c, 0, 72, 100
2, 92536, Note_off_c, 0, 72, 100
2, 92544, Note_on_c, 0, 69, 100
2, 92672, Note_off_c, 0, 69, 100
2, 92736, Note_on_c, 0, 74, 100
2, 92864, Note_off_c, 0, 74, 100
2, 92928, Note_on_c, 0, 79, 100
2, 92992, Note_off_c, 0, 79, 100
2, 93024, Note_on_c, 0, 78, 100
2, 93088, Note_off_c, 0, 78, 100
2, 93120, Note_on_c, 0, 76, 100
2, 93184, Note_off_c, 0, 76, 100
2, 93216, Note_on_c, 0, 74, 100
2, 93280, Note_off_c, 0, 74, 100
2, 93312, Note_on_c, 0, 72, 100
2, 93376, Note_off_c, 0, 72, 100
2, 93408, Note_on_c, 0, 71, 100
2, 93472, Note_off_c, 0, 71, 100
2, 93504, Note_on_c, 0, 69, 100
2, 93568, Note_off_c, 0, 69, 100
2, 93600, Note_on_c, 0, 67, 100
2, 93664, Note_off_c, 0, 67, 100
2, 93696, Note_on_c, 0, 66, 100
2, 93760, Note_off_c, 0, 66, 100
2, 93792, Note_on_c, 0, 62, 100
2, 93856, Note_off_c, 0, 62, 100
2, 93888, Note_on_c, 0, 67, 100
2, 93952, Note_off_c, 0, 67, 100
2, 93984, Note_on_c, 0, 62, 100
2, 94048, Note_off_c, 0, 62, 100
2, 94080, Note_on_c, 0, 69, 100
2, 94144, Note_off_c, 0, 69, 100
2, 94176, Note_on_c, 0, 62, 100
2, 94240, Note_off_c, 0, 62, 100
2, 94272, Note_on_c, 0, 71, 100
2, 94336, Note_off_c, 0, 71, 100
2, 94368, Note_on_c, 0, 62, 100
2, 94432, Note_off_c, 0, 62, 100
2, 94464, Note_on_c, 0, 72, 100
2, 94528, Note_off_c, 0, 72, 100
2, 94560, Note_on_c, 0, 71, 100
2, 94624, Note_off_c, 0, 71, 100
2, 94656, Note_on_c, 0, 69, 100
2, 94720, Note_off_c, 0, 69, 100
2, 94752, Note_on_c, 0, 67, 100
2, 94816, Note_off_c, 0, 67, 100
2, 94848, Note_on_c, 0, 66, 100
2, 94912, Note_off_c, 0, 66, 100
2, 94944, Note_on_c, 0, 64, 100
2, 95008, Note_off_c, 0, 64, 100
2, 95040, Note_on_c, 0, 62, 100
2, 95104, Note_off_c, 0, 62, 100
2, 95136, Note_on_c, 0, 60, 100
2, 95200, Note_off_c, 0, 60, 100
2, 95232, Note_on_c, 0, 59, 100
2, 95296, Note_off_c, 0, 59, 100
2, 95328, Note_on_c, 0, 55, 100
2, 95392, Note_off_c, 0, 55, 100
2, 95424, Note_on_c, 0, 60, 100
2, 95488, Note_off_c, 0, 60, 100
2, 95520, Note_on_c, 0, 55, 100
2, 95584, Note_off_c, 0, 55, 100
2, 95616, Note_on_c, 0, 62, 100
2, 95680, Note_off_c, 0, 62, 100
2, 95712, Note_on_c, 0, 55, 100
2, 95776, Note_off_c, 0, 55, 100
2, 95808, Note_on_c, 0, 59, 100
2, 95872, Note_off_c, 0, 59, 100
2, 95904, Note_on_c, 0, 55, 100
2, 95968, Note_off_c, 0, 55, 100
2, 96000, Note_on_c, 0, 64, 100
2, 96064, Note_off_c, 0, 64, 100
2, 96096, Note_on_c, 0, 55, 100
2, 96160, Note_off_c, 0, 55, 100
2, 96192, Note_on_c, 0, 63, 100
2, 96256, Note_off_c, 0, 63, 100
2, 96288, Note_on_c, 0, 55, 100
2, 96352, Note_off_c, 0, 55, 100
2, 96384, Note_on_c, 0, 64, 100
2, 96448, Note_off_c, 0, 64, 100
2, 96480, Note_on_c, 0, 55, 100
2, 96544, Note_off_c, 0, 55, 100
2, 96576, Note_on_c, 0, 66, 100
2, 96640, Note_off_c, 0, 66, 100
2, 96672, Note_on_c, 0, 55, 100
2, 96736, Note_off_c, 0, 55, 100
2, 96768, Note_on_c, 0, 67, 100
2, 96832, Note_off_c, 0, 67, 100
2, 96864, Note_on_c, 0, 66, 100
2, 96928, Note_off_c, 0, 66, 100
2, 96960, Note_on_c, 0, 64, 100
2, 97024, Note_off_c, 0, 64, 100
2, 97056, Note_on_c, 0, 62, 100
2, 97120, Note_off_c, 0, 62, 100
2, 97152, Note_on_c, 0, 60, 100
2, 97216, Note_off_c, 0, 60, 100
2, 97248, Note_on_c, 0, 59, 100
2, 97312, Note_off_c, 0, 59, 100
2, 97344, Note_on_c, 0, 57, 100
2, 97408, Note_off_c, 0, 57, 100
2, 97440, Note_on_c, 0, 55, 100
2, 97504, Note_off_c, 0, 55, 100
2, 97536, Note_on_c, 0, 57, 100
2, 97664, Note_off_c, 0, 57, 100
2, 97728, Note_on_c, 0, 60, 100
2, 97792, Note_off_c, 0, 60, 100
2, 97824, Note_on_c, 0, 57, 100
2, 97888, Note_off_c, 0, 57, 100
2, 97920, Note_on_c, 0, 59, 100
2, 97984, Note_off_c, 0, 59, 100
2, 98016, Note_on_c, 0, 55, 100
2, 98080, Note_off_c, 0, 55, 100
2, 98112, Note_on_c, 0, 57, 100
2, 98176, Note_off_c, 0, 57, 100
2, 98208, Note_on_c, 0, 54, 100
2, 98272, Note_off_c, 0, 54, 100
2, 98304, Note_on_c, 0, 55, 100
2, 98560, Note_off_c, 0, 55, 100
2, 98880, Note_on_c, 0, 74, 100
2, 99008, Note_off_c, 0, 74, 100
2, 99072, Note_on_c, 0, 86, 100
2, 99136, Note_off_c, 0, 86, 100
2, 99168, Note_on_c, 0, 74, 100
2, 99232, Note_off_c, 0, 74, 100
2, 99264, Note_on_c, 0, 84, 100
2, 99328, Note_off_c, 0, 84, 100
2, 99360, Note_on_c, 0, 74, 100
2, 99424, Note_off_c, 0, 74, 100
2, 99456, Note_on_c, 0, 83, 100
2, 99584, Note_off_c, 0, 83, 100
2, 99648, Note_on_c, 0, 80, 100
2, 99712, Note_off_c, 0, 80, 100
2, 99744, Note_on_c, 0, 76, 100
2, 99808, Note_off_c, 0, 76, 100
2, 99840, Note_on_c, 0, 81, 100
2, 99904, Note_off_c, 0, 81, 100
2, 99936, Note_on_c, 0, 76, 100
2, 100000, Note_off_c, 0, 76, 100
2, 100032, Note_on_c, 0, 83, 100
2, 100096, Note_off_c, 0, 83, 100
2, 100128, Note_on_c, 0, 76, 100
2, 100192, Note_off_c, 0, 76, 100
2, 100224, Note_on_c, 0, 84, 100
2, 100352, Note_off_c, 0, 84, 100
2, 100416, Note_on_c, 0, 72, 100
2, 100544, Note_off_c, 0, 72, 100
2, 100608, Note_on_c, 0, 84, 100
2, 100672, Note_off_c, 0, 84, 100
2, 100704, Note_on_c, 0, 72, 100
2, 100768, Note_off_c, 0, 72, 100
2, 100800, Note_on_c, 0, 83, 100
2, 100864, Note_off_c, 0, 83, 100
2, 100896, Note_on_c, 0, 72, 100
2, 100960, Note_off_c, 0, 72, 100
2, 100992, Note_on_c, 0, 81, 100
2, 101120, Note_off_c, 0, 81, 100
2, 101184, Note_on_c, 0, 78, 100
2, 101248, Note_off_c, 0, 78, 100
2, 101280, Note_on_c, 0, 74, 100
2, 101344, Note_off_c, 0, 74, 100
2, 101376, Note_on_c, 0, 79, 100
2, 101440, Note_off_c, 0, 79, 100
2, 101472, Note_on_c, 0, 74, 100
2, 101536, Note_off_c, 0, 74, 100
2, 101568, Note_on_c, 0, 81, 100
2, 101632, Note_off_c, 0, 81, 100
2, 101664, Note_on_c, 0, 74, 100
2, 101728, Note_off_c, 0, 74, 100
2, 101760, Note_on_c, 0, 83, 100
2, 101888, Note_off_c, 0, 83, 100
2, 101952, Note_on_c, 0, 74, 100
2, 102016, Note_off_c, 0, 74, 100
2, 102048, Note_on_c, 0, 67, 100
2, 102112, Note_off_c, 0, 67, 100
2, 102144, Note_on_c, 0, 76, 100
2, 102208, Note_off_c, 0, 76, 100
2, 102240, Note_on_c, 0, 67, 100
2, 102304, Note_off_c, 0, 67, 100
2, 102336, Note_on_c, 0, 77, 100
2, 102400, Note_off_c, 0, 77, 100
2, 102432, Note_on_c, 0, 67, 100
2, 102496, Note_off_c, 0, 67, 100
2, 102528, Note_on_c, 0, 76, 100
2, 102656, Note_off_c, 0, 76, 100
2, 102720, Note_on_c, 0, 76, 100
2, 102784, Note_off_c, 0, 76, 100
2, 102816, Note_on_c, 0, 69, 100
2, 102880, Note_off_c, 0, 69, 100
2, 102912, Note_on_c, 0, 78, 100
2, 102976, Note_off_c, 0, 78, 100
2, 103008, Note_on_c, 0, 69, 100
2, 103072, Note_off_c, 0, 69, 100
2, 103104, Note_on_c, 0, 79, 100
2, 103168, Note_off_c, 0, 79, 100
2, 103200, Note_on_c, 0, 69, 100
2, 103264, Note_off_c, 0, 69, 100
2, 103296, Note_on_c, 0, 78, 100
2, 103424, Note_off_c, 0, 78, 100
2, 103488, Note_on_c, 0, 78, 100
2, 103552, Note_off_c, 0, 78, 100
2, 103584, Note_on_c, 0, 71, 100
2, 103648, Note_off_c, 0, 71, 100
2, 103680, Note_on_c, 0, 79, 100
2, 103744, Note_off_c, 0, 79, 100
2, 103776, Note_on_c, 0, 71, 100
2, 103840, Note_off_c, 0, 71, 100
2, 103872, Note_on_c, 0, 72, 100
2, 103936, Note_off_c, 0, 72, 100
2, 103968, Note_on_c, 0, 81, 100
2, 104032, Note_off_c, 0, 81, 100
2, 104064, Note_on_c, 0, 72, 100
2, 104192, Note_off_c, 0, 72, 100
2, 104256, Note_on_c, 0, 71, 100
2, 104384, Note_off_c, 0, 71, 100
2, 104448, Note_on_c, 0, 71, 100
2, 104464, Note_off_c, 0, 71, 100
2, 104472, Note_on_c, 0, 72, 100
2, 104488, Note_off_c, 0, 72, 100
2, 104496, Note_on_c, 0, 71, 100
2, 104512, Note_off_c, 0, 71, 100
2, 104520, Note_on_c, 0, 72, 100
2, 104536, Note_off_c, 0, 72, 100
2, 104544, Note_on_c, 0, 71, 100
2, 104560, Note_off_c, 0, 71, 100
2, 104568, Note_on_c, 0, 72, 100
2, 104584, Note_off_c, 0, 72, 100
2, 104592, Note_on_c, 0, 71, 100
2, 104608, Note_off_c, 0, 71, 100
2, 104616, Note_on_c, 0, 72, 100
2, 104632, Note_off_c, 0, 72, 100
2, 104640, Note_on_c, 0, 71, 100
2, 104656, Note_off_c, 0, 71, 100
2, 104664, Note_on_c, 0, 72, 100
2, 104680, Note_off_c, 0, 72, 100
2, 104688, Note_on_c, 0, 71, 100
2, 104704, Note_off_c, 0, 71, 100
2, 104712, Note_on_c, 0, 72, 100
2, 104728, Note_off_c, 0, 72, 100
2, 104736, Note_on_c, 0, 71, 100
2, 104752, Note_off_c, 0, 71, 100
2, 104760, Note_on_c, 0, 72, 100
2, 104776, Note_off_c, 0, 72, 100
2, 104784, Note_on_c, 0, 71, 100
2, 104800, Note_off_c, 0, 71, 100
2, 104808, Note_on_c, 0, 72, 100
2, 104824, Note_off_c, 0, 72, 100
2, 104832, Note_on_c, 0, 69, 100
2, 104960, Note_off_c, 0, 69, 100
2, 105024, Note_on_c, 0, 74, 100
2, 105152, Note_off_c, 0, 74, 100
2, 105216, Note_on_c, 0, 79, 100
2, 105280, Note_off_c, 0, 79, 100
2, 105312, Note_on_c, 0, 78, 100
2, 105376, Note_off_c, 0, 78, 100
2, 105408, Note_on_c, 0, 76, 100
2, 105472, Note_off_c, 0, 76, 100
2, 105504, Note_on_c, 0, 74, 100
2, 105568, Note_off_c, 0, 74, 100
2, 105600, Note_on_c, 0, 72, 100
2, 105664, Note_off_c, 0, 72, 100
2, 105696, Note_on_c, 0, 71, 100
2, 105760, Note_off_c, 0, 71, 100
2, 105792, Note_on_c, 0, 69, 100
2, 105856, Note_off_c, 0, 69, 100
2, 105888, Note_on_c, 0, 67, 100
2, 105952, Note_off_c, 0, 67, 100
2, 105984, Note_on_c, 0, 66, 100
2, 106048, Note_off_c, 0, 66, 100
2, 106080, Note_on_c, 0, 62, 100
2, 106144, Note_off_c, 0, 62, 100
2, 106176, Note_on_c, 0, 67, 100
2, 106240, Note_off_c, 0, 67, 100
2, 106272, Note_on_c, 0, 62, 100
2, 106336, Note_off_c, 0, 62, 100
2, 106368, Note_on_c, 0, 69, 100
2, 106432, Note_off_c, 0, 69, 100
2, 106464, Note_on_c, 0, 62, 100
2, 106528, Note_off_c, 0, 62, 100
2, 106560, Note_on_c, 0, 71, 100
2, 106624, Note_off_c, 0, 71, 100
2, 106656, Note_on_c, 0, 62, 100
2, 106720, Note_off_c, 0, 62, 100
2, 106752, Note_on_c, 0, 72, 100
2, 106816, Note_off_c, 0, 72, 100
2, 106848, Note_on_c, 0, 71, 100
2, 106912, Note_off_c, 0, 71, 100
2, 106944, Note_on_c, 0, 69, 100
2, 107008, Note_off_c, 0, 69, 100
2, 107040, Note_on_c, 0, 67, 100
2, 107104, Note_off_c, 0, 67, 100
2, 107136, Note_on_c, 0, 66, 100
2, 107200, Note_off_c, 0, 66, 100
2, 107232, Note_on_c, 0, 64, 100
2, 107296, Note_off_c, 0, 64, 100
2, 107328, Note_on_c, 0, 62, 100
2, 107392, Note_off_c, 0, 62, 100
2, 107424, Note_on_c, 0, 60, 100
2, 107488, Note_off_c, 0, 60, 100
2, 107520, Note_on_c, 0, 59, 100
2, 107584, Note_off_c, 0, 59, 100
2, 107616, Note_on_c, 0, 55, 100
2, 107680, Note_off_c, 0, 55, 100
2, 107712, Note_on_c, 0, 60, 100
2, 107776, Note_off_c, 0, 60, 100
2, 107808, Note_on_c, 0, 55, 100
2, 107872, Note_off_c, 0, 55, 100
2, 107904, Note_on_c, 0, 62, 100
2, 107968, Note_off_c, 0, 62, 100
2, 108000, Note_on_c, 0, 55, 100
2, 108064, Note_off_c, 0, 55, 100
2, 108096, Note_on_c, 0, 59, 100
2, 108160, Note_off_c, 0, 59, 100
2, 108192, Note_on_c, 0, 55, 100
2, 108256, Note_off_c, 0, 55, 100
2, 108288, Note_on_c, 0, 64, 100
2, 108352, Note_off_c, 0, 64, 100
2, 108384, Note_on_c, 0, 55, 100
2, 108448, Note_off_c, 0, 55, 100
2, 108480, Note_on_c, 0, 63, 100
2, 108544, Note_off_c, 0, 63, 100
2, 108576, Note_on_c, 0, 55, 100
2, 108640, Note_off_c, 0, 55, 100
2, 108672, Note_on_c, 0, 64, 100
2, 108736, Note_off_c, 0, 64, 100
2, 108768, Note_on_c, 0, 55, 100
2, 108832, Note_off_c, 0, 55, 100
2, 108864, Note_on_c, 0, 66, 100
2, 108928, Note_off_c, 0, 66, 100
2, 108960, Note_on_c, 0, 55, 100
2, 109024, Note_off_c, 0, 55, 100
2, 109056, Note_on_c, 0, 67, 100
2, 109120, Note_off_c, 0, 67, 100
2, 109152, Note_on_c, 0, 66, 100
2, 109216, Note_off_c, 0, 66, 100
2, 109248, Note_on_c, 0, 64, 100
2, 109312, Note_off_c, 0, 64, 100
2, 109344, Note_on_c, 0, 62, 100
2, 109408, Note_off_c, 0, 62, 100
2, 109440, Note_on_c, 0, 60, 100
2, 109504, Note_off_c, 0, 60, 100
2, 109536, Note_on_c, 0, 59, 100
2, 109600, Note_off_c, 0, 59, 100
2, 109632, Note_on_c, 0, 57, 100
2, 109696, Note_off_c, 0, 57, 100
2, 109728, Note_on_c, 0, 55, 100
2, 109792, Note_off_c, 0, 55, 100
2, 109824, Note_on_c, 0, 57, 100
2, 109952, Note_off_c, 0, 57, 100
2, 110016, Note_on_c, 0, 60, 100
2, 110080, Note_off_c, 0, 60, 100
2, 110112, Note_on_c, 0, 57, 100
2, 110176, Note_off_c, 0, 57, 100
2, 110208, Note_on_c, 0, 59, 100
2, 110272, Note_off_c, 0, 59, 100
2, 110304, Note_on_c, 0, 55, 100
2, 110368, Note_off_c, 0, 55, 100
2, 110400, Note_on_c, 0, 57, 100
2, 110464, Note_off_c, 0, 57, 100
2, 110496, Note_on_c, 0, 54, 100
2, 110560, Note_off_c, 0, 54, 100
2, 110592, Note_on_c, 0, 55, 100
2, 110848, Note_off_c, 0, 55, 100
2, 111168, Note_on_c, 0, 62, 100
2, 111296, Note_off_c, 0, 62, 100
2, 111360, Note_on_c, 0, 67, 100
2, 111488, Note_off_c, 0, 67, 100
2, 111552, Note_on_c, 0, 71, 100
2, 111680, Note_off_c, 0, 71, 100
2, 111744, Note_on_c, 0, 74, 100
2, 111872, Note_off_c, 0, 74, 100
2, 111936, Note_on_c, 0, 67, 100
2, 112064, Note_off_c, 0, 67, 100
2, 112128, Note_on_c, 0, 67, 100
2, 112384, Note_off_c, 0, 67, 100
2, 112512, Note_on_c, 0, 66, 100
2, 112640, Note_off_c, 0, 66, 100
2, 112704, Note_on_c, 0, 62, 100
2, 112832, Note_off_c, 0, 62, 100
2, 112896, Note_on_c, 0, 69, 100
2, 113024, Note_off_c, 0, 69, 100
2, 113088, Note_on_c, 0, 72, 100
2, 113216, Note_off_c, 0, 72, 100
2, 113280, Note_on_c, 0, 76, 100
2, 113408, Note_off_c, 0, 76, 100
2, 113472, Note_on_c, 0, 72, 100
2, 113472, Note_on_c, 0, 69, 100
2, 113600, Note_off_c, 0, 72, 100
2, 113600, Note_off_c, 0, 69, 100
2, 113664, Note_on_c, 0, 72, 100
2, 113664, Note_on_c, 0, 69, 100
2, 113920, Note_off_c, 0, 72, 100
2, 113920, Note_off_c, 0, 69, 100
2, 114048, Note_on_c, 0, 71, 100
2, 114048, Note_on_c, 0, 67, 100
2, 114176, Note_off_c, 0, 71, 100
2, 114176, Note_off_c, 0, 67, 100
2, 114240, Note_on_c, 0, 71, 100
2, 114368, Note_off_c, 0, 71, 100
2, 114432, Note_on_c, 0, 83, 100
2, 114560, Note_off_c, 0, 83, 100
2, 114624, Note_on_c, 0, 79, 100
2, 114752, Note_off_c, 0, 79, 100
2, 114816, Note_on_c, 0, 75, 100
2, 114944, Note_off_c, 0, 75, 100
2, 115008, Note_on_c, 0, 76, 100
2, 115136, Note_off_c, 0, 76, 100
2, 115200, Note_on_c, 0, 81, 100
2, 115328, Note_off_c, 0, 81, 100
2, 115392, Note_on_c, 0, 78, 100
2, 115520, Note_off_c, 0, 78, 100
2, 115584, Note_on_c, 0, 73, 100
2, 115712, Note_off_c, 0, 73, 100
2, 115776, Note_on_c, 0, 74, 100
2, 115904, Note_off_c, 0, 74, 100
2, 115968, Note_on_c, 0, 76, 100
2, 116096, Note_off_c, 0, 76, 100
2, 116160, Note_on_c, 0, 79, 100
2, 116416, Note_off_c, 0, 79, 100
2, 116544, Note_on_c, 0, 73, 100
2, 116672, Note_off_c, 0, 73, 100
2, 116736, Note_on_c, 0, 74, 100
2, 116992, Note_off_c, 0, 74, 100
2, 117312, Note_on_c, 0, 62, 100
2, 117440, Note_off_c, 0, 62, 100
2, 117504, Note_on_c, 0, 67, 100
2, 117632, Note_off_c, 0, 67, 100
2, 117696, Note_on_c, 0, 70, 100
2, 117824, Note_off_c, 0, 70, 100
2, 117888, Note_on_c, 0, 74, 100
2, 118016, Note_off_c, 0, 74, 100
2, 118080, Note_on_c, 0, 67, 100
2, 118208, Note_off_c, 0, 67, 100
2, 118272, Note_on_c, 0, 67, 100
2, 118528, Note_off_c, 0, 67, 100
2, 118656, Note_on_c, 0, 66, 100
2, 118784, Note_off_c, 0, 66, 100
2, 118848, Note_on_c, 0, 62, 100
2, 118976, Note_off_c, 0, 62, 100
2, 119040, Note_on_c, 0, 69, 100
2, 119168, Note_off_c, 0, 69, 100
2, 119232, Note_on_c, 0, 72, 100
2, 119360, Note_off_c, 0, 72, 100
2, 119424, Note_on_c, 0, 75, 100
2, 119552, Note_off_c, 0, 75, 100
2, 119616, Note_on_c, 0, 72, 100
2, 119616, Note_on_c, 0, 69, 100
2, 119744, Note_off_c, 0, 72, 100
2, 119744, Note_off_c, 0, 69, 100
2, 119808, Note_on_c, 0, 72, 100
2, 119808, Note_on_c, 0, 69, 100
2, 120064, Note_off_c, 0, 72, 100
2, 120064, Note_off_c, 0, 69, 100
2, 120192, Note_on_c, 0, 70, 100
2, 120192, Note_on_c, 0, 67, 100
2, 120320, Note_off_c, 0, 70, 100
2, 120320, Note_off_c, 0, 67, 100
2, 120384, Note_on_c, 0, 67, 100
2, 120512, Note_off_c, 0, 67, 100
2, 120576, Note_on_c, 0, 70, 100
2, 120704, Note_off_c, 0, 70, 100
2, 120768, Note_on_c, 0, 74, 100
2, 120896, Note_off_c, 0, 74, 100
2, 120960, Note_on_c, 0, 75, 100
2, 121088, Note_off_c, 0, 75, 100
2, 121152, Note_on_c, 0, 82, 100
2, 121280, Note_off_c, 0, 82, 100
2, 121344, Note_on_c, 0, 81, 100
2, 121472, Note_off_c, 0, 81, 100
2, 121536, Note_on_c, 0, 73, 100
2, 121664, Note_off_c, 0, 73, 100
2, 121728, Note_on_c, 0, 74, 100
2, 121856, Note_off_c, 0, 74, 100
2, 121920, Note_on_c, 0, 81, 100
2, 121920, Note_on_c, 0, 77, 100
2, 122048, Note_off_c, 0, 81, 100
2, 122048, Note_off_c, 0, 77, 100
2, 122112, Note_on_c, 0, 79, 100
2, 122112, Note_on_c, 0, 76, 100
2, 122240, Note_off_c, 0, 79, 100
2, 122240, Note_off_c, 0, 76, 100
2, 122304, Note_on_c, 0, 77, 100
2, 122304, Note_on_c, 0, 74, 100
2, 122560, Note_off_c, 0, 77, 100
2, 122560, Note_off_c, 0, 74, 100
2, 122688, Note_on_c, 0, 76, 100
2, 122688, Note_on_c, 0, 73, 100
2, 122816, Note_off_c, 0, 76, 100
2, 122816, Note_off_c, 0, 73, 100
2, 122880, Note_on_c, 0, 74, 100
2, 123136, Note_off_c, 0, 74, 100
2, 123456, Note_on_c, 0, 74, 100
2, 123584, Note_off_c, 0, 74, 100
2, 123648, Note_on_c, 0, 77, 100
2, 123776, Note_off_c, 0, 77, 100
2, 123840, Note_on_c, 0, 68, 100
2, 123968, Note_off_c, 0, 68, 100
2, 124032, Note_on_c, 0, 67, 100
2, 124160, Note_off_c, 0, 67, 100
2, 124224, Note_on_c, 0, 74, 100
2, 124352, Note_off_c, 0, 74, 100
2, 124416, Note_on_c, 0, 65, 100
2, 124672, Note_off_c, 0, 65, 100
2, 124800, Note_on_c, 0, 63, 100
2, 124928, Note_off_c, 0, 63, 100
2, 124992, Note_on_c, 0, 75, 100
2, 125120, Note_off_c, 0, 75, 100
2, 125184, Note_on_c, 0, 67, 100
2, 125440, Note_off_c, 0, 67, 100
2, 125568, Note_on_c, 0, 66, 100
2, 125696, Note_off_c, 0, 66, 100
2, 125760, Note_on_c, 0, 81, 100
2, 125888, Note_off_c, 0, 81, 100
2, 125952, Note_on_c, 0, 72, 100
2, 126208, Note_off_c, 0, 72, 100
2, 126336, Note_on_c, 0, 70, 100
2, 126464, Note_off_c, 0, 70, 100
2, 126528, Note_on_c, 0, 74, 100
2, 126656, Note_off_c, 0, 74, 100
2, 126720, Note_on_c, 0, 76, 100
2, 126848, Note_off_c, 0, 76, 100
2, 126912, Note_on_c, 0, 79, 100
2, 127040, Note_off_c, 0, 79, 100
2, 127104, Note_on_c, 0, 82, 100
2, 127232, Note_off_c, 0, 82, 100
2, 127296, Note_on_c, 0, 74, 100
2, 127424, Note_off_c, 0, 74, 100
2, 127488, Note_on_c, 0, 73, 100
2, 127744, Note_off_c, 0, 73, 100
2, 127872, Note_on_c, 0, 74, 100
2, 128000, Note_off_c, 0, 74, 100
2, 128064, Note_on_c, 0, 72, 100
2, 128192, Note_off_c, 0, 72, 100
2, 128256, Note_on_c, 0, 70, 100
2, 128384, Note_off_c, 0, 70, 100
2, 128448, Note_on_c, 0, 67, 100
2, 128576, Note_off_c, 0, 67, 100
2, 128640, Note_on_c, 0, 69, 100
2, 128768, Note_off_c, 0, 69, 100
2, 128832, Note_on_c, 0, 66, 100
2, 128960, Note_off_c, 0, 66, 100
2, 129024, Note_on_c, 0, 67, 100
2, 129280, Note_off_c, 0, 67, 100
2, 129600, Note_on_c, 0, 74, 100
2, 129728, Note_off_c, 0, 74, 100
2, 129792, Note_on_c, 0, 77, 100
2, 129920, Note_off_c, 0, 77, 100
2, 129984, Note_on_c, 0, 68, 100
2, 130112, Note_off_c, 0, 68, 100
2, 130176, Note_on_c, 0, 67, 100
2, 130304, Note_off_c, 0, 67, 100
2, 130368, Note_on_c, 0, 74, 100
2, 130496, Note_off_c, 0, 74, 100
2, 130560, Note_on_c, 0, 65, 100
2, 130816, Note_off_c, 0, 65, 100
2, 130944, Note_on_c, 0, 63, 100
2, 131072, Note_off_c, 0, 63, 100
2, 131136, Note_on_c, 0, 75, 100
2, 131264, Note_off_c, 0, 75, 100
2, 131328, Note_on_c, 0, 67, 100
2, 131584, Note_off_c, 0, 67, 100
2, 131712, Note_on_c, 0, 66, 100
2, 131840, Note_off_c, 0, 66, 100
2, 131904, Note_on_c, 0, 81, 100
2, 132032, Note_off_c, 0, 81, 100
2, 132096, Note_on_c, 0, 72, 100
2, 132352, Note_off_c, 0, 72, 100
2, 132480, Note_on_c, 0, 70, 100
2, 132608, Note_off_c, 0, 70, 100
2, 132672, Note_on_c, 0, 74, 100
2, 132800, Note_off_c, 0, 74, 100
2, 132864, Note_on_c, 0, 76, 100
2, 132992, Note_off_c, 0, 76, 100
2, 133056, Note_on_c, 0, 79, 100
2, 133184, Note_off_c, 0, 79, 100
2, 133248, Note_on_c, 0, 82, 100
2, 133376, Note_off_c, 0, 82, 100
2, 133440, Note_on_c, 0, 74, 100
2, 133568, Note_off_c, 0, 74, 100
2, 133632, Note_on_c, 0, 73, 100
2, 133888, Note_off_c, 0, 73, 100
2, 134016, Note_on_c, 0, 74, 100
2, 134144, Note_off_c, 0, 74, 100
2, 134208, Note_on_c, 0, 72, 100
2, 134336, Note_off_c, 0, 72, 100
2, 134400, Note_on_c, 0, 70, 100
2, 134528, Note_off_c, 0, 70, 100
2, 134592, Note_on_c, 0, 67, 100
2, 134720, Note_off_c, 0, 67, 100
2, 134784, Note_on_c, 0, 69, 100
2, 134912, Note_off_c, 0, 69, 100
2, 134976, Note_on_c, 0, 66, 100
2, 135104, Note_off_c, 0, 66, 100
2, 135168, Note_on_c, 0, 67, 100
2, 135424, Note_off_c, 0, 67, 100
2, 135744, Note_on_c, 0, 62, 100
2, 135872, Note_off_c, 0, 62, 100
2, 135936, Note_on_c, 0, 67, 100
2, 136064, Note_off_c, 0, 67, 100
2, 136128, Note_on_c, 0, 71, 100
2, 136256, Note_off_c, 0, 71, 100
2, 136320, Note_on_c, 0, 74, 100
2, 136448, Note_off_c, 0, 74, 100
2, 136512, Note_on_c, 0, 67, 100
2, 136640, Note_off_c, 0, 67, 100
2, 136704, Note_on_c, 0, 67, 100
2, 136960, Note_off_c, 0, 67, 100
2, 137088, Note_on_c, 0, 66, 100
2, 137216, Note_off_c, 0, 66, 100
2, 137280, Note_on_c, 0, 69, 100
2, 137408, Note_off_c, 0, 69, 100
2, 137472, Note_on_c, 0, 72, 100
2, 137600, Note_off_c, 0, 72, 100
2, 137664, Note_on_c, 0, 78, 100
2, 137792, Note_off_c, 0, 78, 100
2, 137856, Note_on_c, 0, 81, 100
2, 137984, Note_off_c, 0, 81, 100
2, 138048, Note_on_c, 0, 72, 100
2, 138176, Note_off_c, 0, 72, 100
2, 138240, Note_on_c, 0, 72, 100
2, 138496, Note_off_c, 0, 72, 100
2, 138624, Note_on_c, 0, 71, 100
2, 138752, Note_off_c, 0, 71, 100
2, 138816, Note_on_c, 0, 71, 100
2, 138944, Note_off_c, 0, 71, 100
2, 139008, Note_on_c, 0, 83, 100
2, 139136, Note_off_c, 0, 83, 100
2, 139200, Note_on_c, 0, 79, 100
2, 139328, Note_off_c, 0, 79, 100
2, 139392, Note_on_c, 0, 75, 100
2, 139520, Note_off_c, 0, 75, 100
2, 139584, Note_on_c, 0, 76, 100
2, 139712, Note_off_c, 0, 76, 100
2, 139776, Note_on_c, 0, 81, 100
2, 139904, Note_off_c, 0, 81, 100
2, 139968, Note_on_c, 0, 78, 100
2, 140096, Note_off_c, 0, 78, 100
2, 140160, Note_on_c, 0, 73, 100
2, 140288, Note_off_c, 0, 73, 100
2, 140352, Note_on_c, 0, 74, 100
2, 140480, Note_off_c, 0, 74, 100
2, 140544, Note_on_c, 0, 76, 100
2, 140576, Note_off_c, 0, 76, 100
2, 140592, Note_on_c, 0, 78, 100
2, 140624, Note_off_c, 0, 78, 100
2, 140640, Note_on_c, 0, 76, 100
2, 140672, Note_off_c, 0, 76, 100
2, 140688, Note_on_c, 0, 74, 100
2, 140720, Note_off_c, 0, 74, 100
2, 140736, Note_on_c, 0, 79, 100
2, 140864, Note_off_c, 0, 79, 100
2, 141120, Note_on_c, 0, 73, 100
2, 141120, Note_on_c, 0, 67, 100
2, 141248, Note_off_c, 0, 73, 100
2, 141248, Note_off_c, 0, 67, 100
2, 141312, Note_on_c, 0, 74, 100
2, 141312, Note_on_c, 0, 66, 100
2, 141568, Note_off_c, 0, 74, 100
2, 141568, Note_off_c, 0, 66, 100
2, 141888, Note_on_c, 0, 67, 100
2, 141952, Note_off_c, 0, 67, 100
2, 141984, Note_on_c, 0, 71, 100
2, 142048, Note_off_c, 0, 71, 100
2, 142080, Note_on_c, 0, 74, 100
2, 142144, Note_off_c, 0, 74, 100
2, 142176, Note_on_c, 0, 79, 100
2, 142240, Note_off_c, 0, 79, 100
2, 142272, Note_on_c, 0, 83, 100
2, 142336, Note_off_c, 0, 83, 100
2, 142368, Note_on_c, 0, 86, 100
2, 142432, Note_off_c, 0, 86, 100
2, 142464, Note_on_c, 0, 84, 100
2, 142528, Note_off_c, 0, 84, 100
2, 142560, Note_on_c, 0, 83, 100
2, 142624, Note_off_c, 0, 83, 100
2, 142656, Note_on_c, 0, 81, 100
2, 142720, Note_off_c, 0, 81, 100
2, 142752, Note_on_c, 0, 79, 100
2, 142816, Note_off_c, 0, 79, 100
2, 142848, Note_on_c, 0, 71, 100
2, 142848, Note_on_c, 0, 62, 100
2, 142848, Note_on_c, 0, 79, 100
2, 143104, Note_off_c, 0, 71, 100
2, 143104, Note_off_c, 0, 62, 100
2, 143104, Note_off_c, 0, 79, 100
2, 143232, Note_on_c, 0, 69, 100
2, 143232, Note_on_c, 0, 62, 100
2, 143232, Note_on_c, 0, 78, 100
2, 143360, Note_off_c, 0, 69, 100
2, 143360, Note_off_c, 0, 62, 100
2, 143360, Note_off_c, 0, 78, 100
2, 143424, Note_on_c, 0, 84, 100
2, 143488, Note_off_c, 0, 84, 100
2, 143520, Note_on_c, 0, 81, 100
2, 143584, Note_off_c, 0, 81, 100
2, 143616, Note_on_c, 0, 78, 100
2, 143680, Note_off_c, 0, 78, 100
2, 143712, Note_on_c, 0, 72, 100
2, 143776, Note_off_c, 0, 72, 100
2, 143808, Note_on_c, 0, 69, 100
2, 143872, Note_off_c, 0, 69, 100
2, 143904, Note_on_c, 0, 66, 100
2, 143968, Note_off_c, 0, 66, 100
2, 144000, Note_on_c, 0, 62, 100
2, 144128, Note_off_c, 0, 62, 100
2, 144192, Note_on_c, 0, 72, 100
2, 144192, Note_on_c, 0, 69, 100
2, 144192, Note_on_c, 0, 66, 100
2, 144320, Note_off_c, 0, 72, 100
2, 144320, Note_off_c, 0, 69, 100
2, 144320, Note_off_c, 0, 66, 100
2, 144384, Note_on_c, 0, 72, 100
2, 144384, Note_on_c, 0, 69, 100
2, 144384, Note_on_c, 0, 67, 100
2, 144640, Note_off_c, 0, 72, 100
2, 144640, Note_off_c, 0, 69, 100
2, 144640, Note_off_c, 0, 67, 100
2, 144768, Note_on_c, 0, 71, 100
2, 144768, Note_on_c, 0, 67, 100
2, 144896, Note_off_c, 0, 71, 100
2, 144896, Note_off_c, 0, 67, 100
2, 144960, Note_on_c, 0, 71, 100
2, 145088, Note_off_c, 0, 71, 100
2, 145152, Note_on_c, 0, 83, 100
2, 145216, Note_off_c, 0, 83, 100
2, 145248, Note_on_c, 0, 79, 100
2, 145312, Note_off_c, 0, 79, 100
2, 145344, Note_on_c, 0, 78, 100
2, 145408, Note_off_c, 0, 78, 100
2, 145440, Note_on_c, 0, 76, 100
2, 145504, Note_off_c, 0, 76, 100
2, 145536, Note_on_c, 0, 75, 100
2, 145600, Note_off_c, 0, 75, 100
2, 145632, Note_on_c, 0, 76, 100
2, 145696, Note_off_c, 0, 76, 100
2, 145728, Note_on_c, 0, 83, 100
2, 145792, Note_off_c, 0, 83, 100
2, 145824, Note_on_c, 0, 79, 100
2, 145888, Note_off_c, 0, 79, 100
2, 145920, Note_on_c, 0, 81, 100
2, 145984, Note_off_c, 0, 81, 100
2, 146016, Note_on_c, 0, 79, 100
2, 146080, Note_off_c, 0, 79, 100
2, 146112, Note_on_c, 0, 78, 100
2, 146176, Note_off_c, 0, 78, 100
2, 146208, Note_on_c, 0, 76, 100
2, 146272, Note_off_c, 0, 76, 100
2, 146304, Note_on_c, 0, 74, 100
2, 146368, Note_off_c, 0, 74, 100
2, 146400, Note_on_c, 0, 73, 100
2, 146464, Note_off_c, 0, 73, 100
2, 146496, Note_on_c, 0, 71, 100
2, 146560, Note_off_c, 0, 71, 100
2, 146592, Note_on_c, 0, 69, 100
2, 146656, Note_off_c, 0, 69, 100
2, 146688, Note_on_c, 0, 67, 100
2, 146752, Note_off_c, 0, 67, 100
2, 146784, Note_on_c, 0, 66, 100
2, 146848, Note_off_c, 0, 66, 100
2, 146880, Note_on_c, 0, 64, 100
2, 146944, Note_off_c, 0, 64, 100
2, 146976, Note_on_c, 0, 62, 100
2, 147040, Note_off_c, 0, 62, 100
2, 147072, Note_on_c, 0, 61, 100
2, 147136, Note_off_c, 0, 61, 100
2, 147168, Note_on_c, 0, 59, 100
2, 147232, Note_off_c, 0, 59, 100
2, 147264, Note_on_c, 0, 57, 100
2, 147328, Note_off_c, 0, 57, 100
2, 147360, Note_on_c, 0, 55, 100
2, 147424, Note_off_c, 0, 55, 100
2, 147456, Note_on_c, 0, 54, 100
2, 147712, Note_off_c, 0, 54, 100
2, 148032, Note_on_c, 0, 74, 100
2, 148160, Note_off_c, 0, 74, 100
2, 148224, Note_on_c, 0, 86, 100
2, 148352, Note_off_c, 0, 86, 100
2, 148416, Note_on_c, 0, 83, 100
2, 148544, Note_off_c, 0, 83, 100
2, 148608, Note_on_c, 0, 80, 100
2, 148736, Note_off_c, 0, 80, 100
2, 148800, Note_on_c, 0, 76, 100
2, 148928, Note_off_c, 0, 76, 100
2, 148992, Note_on_c, 0, 74, 100
2, 149248, Note_off_c, 0, 74, 100
2, 149376, Note_on_c, 0, 73, 100
2, 149504, Note_off_c, 0, 73, 100
2, 149568, Note_on_c, 0, 72, 100
2, 149696, Note_off_c, 0, 72, 100
2, 149760, Note_on_c, 0, 84, 100
2, 149888, Note_off_c, 0, 84, 100
2, 149952, Note_on_c, 0, 81, 100
2, 150080, Note_off_c, 0, 81, 100
2, 150144, Note_on_c, 0, 78, 100
2, 150272, Note_off_c, 0, 78, 100
2, 150336, Note_on_c, 0, 74, 100
2, 150464, Note_off_c, 0, 74, 100
2, 150528, Note_on_c, 0, 72, 100
2, 150784, Note_off_c, 0, 72, 100
2, 150912, Note_on_c, 0, 71, 100
2, 151040, Note_off_c, 0, 71, 100
2, 151104, Note_on_c, 0, 74, 100
2, 151232, Note_off_c, 0, 74, 100
2, 151296, Note_on_c, 0, 76, 100
2, 151360, Note_off_c, 0, 76, 100
2, 151392, Note_on_c, 0, 72, 100
2, 151456, Note_off_c, 0, 72, 100
2, 151488, Note_on_c, 0, 71, 100
2, 151552, Note_off_c, 0, 71, 100
2, 151584, Note_on_c, 0, 69, 100
2, 151648, Note_off_c, 0, 69, 100
2, 151680, Note_on_c, 0, 68, 100
2, 151744, Note_off_c, 0, 68, 100
2, 151776, Note_on_c, 0, 69, 100
2, 151840, Note_off_c, 0, 69, 100
2, 151872, Note_on_c, 0, 76, 100
2, 151936, Note_off_c, 0, 76, 100
2, 151968, Note_on_c, 0, 69, 100
2, 152032, Note_off_c, 0, 69, 100
2, 152064, Note_on_c, 0, 78, 100
2, 152128, Note_off_c, 0, 78, 100
2, 152160, Note_on_c, 0, 74, 100
2, 152224, Note_off_c, 0, 74, 100
2, 152256, Note_on_c, 0, 72, 100
2, 152320, Note_off_c, 0, 72, 100
2, 152352, Note_on_c, 0, 71, 100
2, 152416, Note_off_c, 0, 71, 100
2, 152448, Note_on_c, 0, 70, 100
2, 152512, Note_off_c, 0, 70, 100
2, 152544, Note_on_c, 0, 71, 100
2, 152608, Note_off_c, 0, 71, 100
2, 152640, Note_on_c, 0, 78, 100
2, 152704, Note_off_c, 0, 78, 100
2, 152736, Note_on_c, 0, 71, 100
2, 152800, Note_off_c, 0, 71, 100
2, 152832, Note_on_c, 0, 79, 100
2, 152896, Note_off_c, 0, 79, 100
2, 152928, Note_on_c, 0, 76, 100
2, 152992, Note_off_c, 0, 76, 100
2, 153024, Note_on_c, 0, 74, 100
2, 153088, Note_off_c, 0, 74, 100
2, 153120, Note_on_c, 0, 72, 100
2, 153184, Note_off_c, 0, 72, 100
2, 153216, Note_on_c, 0, 81, 100
2, 153280, Note_off_c, 0, 81, 100
2, 153312, Note_on_c, 0, 72, 100
2, 153376, Note_off_c, 0, 72, 100
2, 153408, Note_on_c, 0, 79, 100
2, 153472, Note_off_c, 0, 79, 100
2, 153504, Note_on_c, 0, 71, 100
2, 153568, Note_off_c, 0, 71, 100
2, 153600, Note_on_c, 0, 71, 100
2, 153616, Note_off_c, 0, 71, 100
2, 153624, Note_on_c, 0, 72, 100
2, 153640, Note_off_c, 0, 72, 100
2, 153648, Note_on_c, 0, 71, 100
2, 153664, Note_off_c, 0, 71, 100
2, 153672, Note_on_c, 0, 72, 100
2, 153688, Note_off_c, 0, 72, 100
2, 153696, Note_on_c, 0, 71, 100
2, 153712, Note_off_c, 0, 71, 100
2, 153720, Note_on_c, 0, 72, 100
2, 153736, Note_off_c, 0, 72, 100
2, 153744, Note_on_c, 0, 71, 100
2, 153760, Note_off_c, 0, 71, 100
2, 153768, Note_on_c, 0, 72, 100
2, 153784, Note_off_c, 0, 72, 100
2, 153792, Note_on_c, 0, 71, 100
2, 153808, Note_off_c, 0, 71, 100
2, 153816, Note_on_c, 0, 72, 100
2, 153832, Note_off_c, 0, 72, 100
2, 153840, Note_on_c, 0, 71, 100
2, 153856, Note_off_c, 0, 71, 100
2, 153864, Note_on_c, 0, 72, 100
2, 153880, Note_off_c, 0, 72, 100
2, 153888, Note_on_c, 0, 71, 100
2, 153904, Note_off_c, 0, 71, 100
2, 153912, Note_on_c, 0, 72, 100
2, 153928, Note_off_c, 0, 72, 100
2, 153936, Note_on_c, 0, 71, 100
2, 153952, Note_off_c, 0, 71, 100
2, 153960, Note_on_c, 0, 72, 100
2, 153976, Note_off_c, 0, 72, 100
2, 153984, Note_on_c, 0, 69, 100
2, 154112, Note_off_c, 0, 69, 100
2, 154176, Note_on_c, 0, 62, 100
2, 154304, Note_off_c, 0, 62, 100
2, 154368, Note_on_c, 0, 67, 100
2, 154496, Note_off_c, 0, 67, 100
2, 154560, Note_on_c, 0, 71, 100
2, 154688, Note_off_c, 0, 71, 100
2, 154752, Note_on_c, 0, 74, 100
2, 154880, Note_off_c, 0, 74, 100
2, 154944, Note_on_c, 0, 67, 100
2, 155072, Note_off_c, 0, 67, 100
2, 155136, Note_on_c, 0, 67, 100
2, 155392, Note_off_c, 0, 67, 100
2, 155520, Note_on_c, 0, 66, 100
2, 155648, Note_off_c, 0, 66, 100
2, 155712, Note_on_c, 0, 69, 100
2, 155840, Note_off_c, 0, 69, 100
2, 155904, Note_on_c, 0, 72, 100
2, 156032, Note_off_c, 0, 72, 100
2, 156096, Note_on_c, 0, 78, 100
2, 156224, Note_off_c, 0, 78, 100
2, 156288, Note_on_c, 0, 81, 100
2, 156416, Note_off_c, 0, 81, 100
2, 156480, Note_on_c, 0, 72, 100
2, 156608, Note_off_c, 0, 72, 100
2, 156672, Note_on_c, 0, 72, 100
2, 156928, Note_off_c, 0, 72, 100
2, 157056, Note_on_c, 0, 71, 100
2, 157184, Note_off_c, 0, 71, 100
2, 157248, Note_on_c, 0, 67, 100
2, 157376, Note_off_c, 0, 67, 100
2, 157440, Note_on_c, 0, 72, 100
2, 157568, Note_off_c, 0, 72, 100
2, 157632, Note_on_c, 0, 76, 100
2, 157760, Note_off_c, 0, 76, 100
2, 157824, Note_on_c, 0, 79, 100
2, 157952, Note_off_c, 0, 79, 100
2, 158016, Note_on_c, 0, 72, 100
2, 158144, Note_off_c, 0, 72, 100
2, 158208, Note_on_c, 0, 74, 100
2, 158336, Note_off_c, 0, 74, 100
2, 158400, Note_on_c, 0, 79, 100
2, 158464, Note_off_c, 0, 79, 100
2, 158496, Note_on_c, 0, 83, 100
2, 158560, Note_off_c, 0, 83, 100
2, 158592, Note_on_c, 0, 86, 100
2, 158720, Note_off_c, 0, 86, 100
2, 158784, Note_on_c, 0, 74, 100
2, 158784, Note_on_c, 0, 71, 100
2, 158912, Note_off_c, 0, 74, 100
2, 158912, Note_off_c, 0, 71, 100
2, 158952, Note_on_c, 0, 74, 100
2, 158952, Note_on_c, 0, 71, 100
2, 158968, Note_off_c, 0, 74, 100
2, 158968, Note_off_c, 0, 71, 100
2, 158976, Note_on_c, 0, 72, 100
2, 158976, Note_on_c, 0, 69, 100
2, 159104, Note_off_c, 0, 72, 100
2, 159104, Note_off_c, 0, 69, 100
2, 159168, Note_on_c, 0, 71, 100
2, 159168, Note_on_c, 0, 67, 100
2, 159424, Note_off_c, 0, 71, 100
2, 159424, Note_off_c, 0, 67, 100
2, 159552, Note_on_c, 0, 69, 100
2, 159552, Note_on_c, 0, 66, 100
2, 159680, Note_off_c, 0, 69, 100
2, 159680, Note_off_c, 0, 66, 100
2, 159744, Note_on_c, 0, 67, 100
2, 160000, Note_off_c, 0, 67, 100
2, 160320, Note_on_c, 0, 64, 100
2, 160384, Note_off_c, 0, 64, 100
2, 160416, Note_on_c, 0, 68, 100
2, 160480, Note_off_c, 0, 68, 100
2, 160512, Note_on_c, 0, 71, 100
2, 160576, Note_off_c, 0, 71, 100
2, 160608, Note_on_c, 0, 74, 100
2, 160672, Note_off_c, 0, 74, 100
2, 160704, Note_on_c, 0, 80, 100
2, 160768, Note_off_c, 0, 80, 100
2, 160800, Note_on_c, 0, 83, 100
2, 160864, Note_off_c, 0, 83, 100
2, 160896, Note_on_c, 0, 86, 100
2, 161024, Note_off_c, 0, 86, 100
2, 161088, Note_on_c, 0, 71, 100
2, 161088, Note_on_c, 0, 68, 100
2, 161088, Note_on_c, 0, 74, 100
2, 161216, Note_off_c, 0, 71, 100
2, 161216, Note_off_c, 0, 68, 100
2, 161216, Note_off_c, 0, 74, 100
2, 161280, Note_on_c, 0, 74, 100
2, 161280, Note_on_c, 0, 71, 100
2, 161280, Note_on_c, 0, 69, 100
2, 161536, Note_off_c, 0, 74, 100
2, 161536, Note_off_c, 0, 71, 100
2, 161536, Note_off_c, 0, 69, 100
2, 161664, Note_on_c, 0, 72, 100
2, 161664, Note_on_c, 0, 69, 100
2, 161792, Note_off_c, 0, 72, 100
2, 161792, Note_off_c, 0, 69, 100
2, 161856, Note_on_c, 0, 84, 100
2, 161920, Note_off_c, 0, 84, 100
2, 161952, Note_on_c, 0, 81, 100
2, 162016, Note_off_c, 0, 81, 100
2, 162048, Note_on_c, 0, 78, 100
2, 162112, Note_off_c, 0, 78, 100
2, 162144, Note_on_c, 0, 72, 100
2, 162208, Note_off_c, 0, 72, 100
2, 162240, Note_on_c, 0, 69, 100
2, 162304, Note_off_c, 0, 69, 100
2, 162336, Note_on_c, 0, 66, 100
2, 162400, Note_off_c, 0, 66, 100
2, 162432, Note_on_c, 0, 62, 100
2, 162560, Note_off_c, 0, 62, 100
2, 162624, Note_on_c, 0, 72, 100
2, 162624, Note_on_c, 0, 69, 100
2, 162624, Note_on_c, 0, 66, 100
2, 162752, Note_off_c, 0, 72, 100
2, 162752, Note_off_c, 0, 69, 100
2, 162752, Note_off_c, 0, 66, 100
2, 162816, Note_on_c, 0, 72, 100
2, 162816, Note_on_c, 0, 69, 100
2, 162816, Note_on_c, 0, 67, 100
2, 163072, Note_off_c, 0, 72, 100
2, 163072, Note_off_c, 0, 69, 100
2, 163072, Note_off_c, 0, 67, 100
2, 163200, Note_on_c, 0, 71, 100
2, 163200, Note_on_c, 0, 67, 100
2, 163328, Note_off_c, 0, 71, 100
2, 163328, Note_off_c, 0, 67, 100
2, 163392, Note_on_c, 0, 74, 100
2, 163520, Note_off_c, 0, 74, 100
2, 163584, Note_on_c, 0, 76, 100
2, 163648, Note_off_c, 0, 76, 100
2, 163680, Note_on_c, 0, 72, 100
2, 163744, Note_off_c, 0, 72, 100
2, 163776, Note_on_c, 0, 71, 100
2, 163840, Note_off_c, 0, 71, 100
2, 163872, Note_on_c, 0, 69, 100
2, 163936, Note_off_c, 0, 69, 100
2, 163968, Note_on_c, 0, 68, 100
2, 164032, Note_off_c, 0, 68, 100
2, 164064, Note_on_c, 0, 69, 100
2, 164128, Note_off_c, 0, 69, 100
2, 164160, Note_on_c, 0, 76, 100
2, 164224, Note_off_c, 0, 76, 100
2, 164256, Note_on_c, 0, 69, 100
2, 164320, Note_off_c, 0, 69, 100
2, 164352, Note_on_c, 0, 78, 100
2, 164416, Note_off_c, 0, 78, 100
2, 164448, Note_on_c, 0, 74, 100
2, 164512, Note_off_c, 0, 74, 100
2, 164544, Note_on_c, 0, 72, 100
2, 164608, Note_off_c, 0, 72, 100
2, 164640, Note_on_c, 0, 71, 100
2, 164704, Note_off_c, 0, 71, 100
2, 164736, Note_on_c, 0, 70, 100
2, 164800, Note_off_c, 0, 70, 100
2, 164832, Note_on_c, 0, 71, 100
2, 164896, Note_off_c, 0, 71, 100
2, 164928, Note_on_c, 0, 78, 100
2, 164992, Note_off_c, 0, 78, 100
2, 165024, Note_on_c, 0, 71, 100
2, 165088, Note_off_c, 0, 71, 100
2, 165120, Note_on_c, 0, 79, 100
2, 165184, Note_off_c, 0, 79, 100
2, 165216, Note_on_c, 0, 76, 100
2, 165280, Note_off_c, 0, 76, 100
2, 165312, Note_on_c, 0, 74, 100
2, 165376, Note_off_c, 0, 74, 100
2, 165408, Note_on_c, 0, 72, 100
2, 165472, Note_off_c, 0, 72, 100
2, 165504, Note_on_c, 0, 81, 100
2, 165568, Note_off_c, 0, 81, 100
2, 165600, Note_on_c, 0, 72, 100
2, 165664, Note_off_c, 0, 72, 100
2, 165696, Note_on_c, 0, 79, 100
2, 165760, Note_off_c, 0, 79, 100
2, 165792, Note_on_c, 0, 71, 100
2, 165856, Note_off_c, 0, 71, 100
2, 165888, Note_on_c, 0, 71, 100
2, 165904, Note_off_c, 0, 71, 100
2, 165912, Note_on_c, 0, 72, 100
2, 165928, Note_off_c, 0, 72, 100
2, 165936, Note_on_c, 0, 71, 100
2, 165952, Note_off_c, 0, 71, 100
2, 165960, Note_on_c, 0, 72, 100
2, 165976, Note_off_c, 0, 72, 100
2, 165984, Note_on_c, 0, 71, 100
2, 166000, Note_off_c, 0, 71, 100
2, 166008, Note_on_c, 0, 72, 100
2, 166024, Note_off_c, 0, 72, 100
2, 166032, Note_on_c, 0, 71, 100
2, 166048, Note_off_c, 0, 71, 100
2, 166056, Note_on_c, 0, 72, 100
2, 166072, Note_off_c, 0, 72, 100
2, 166080, Note_on_c, 0, 71, 100
2, 166096, Note_off_c, 0, 71, 100
2, 166104, Note_on_c, 0, 72, 100
2, 166120, Note_off_c, 0, 72, 100
2, 166128, Note_on_c, 0, 71, 100
2, 166144, Note_off_c, 0, 71, 100
2, 166152, Note_on_c, 0, 72, 100
2, 166168, Note_off_c, 0, 72, 100
2, 166176, Note_on_c, 0, 71, 100
2, 166192, Note_off_c, 0, 71, 100
2, 166200, Note_on_c, 0, 72, 100
2, 166216, Note_off_c, 0, 72, 100
2, 166224, Note_on_c, 0, 71, 100
2, 166240, Note_off_c, 0, 71, 100
2, 166248, Note_on_c, 0, 72, 100
2, 166264, Note_off_c, 0, 72, 100
2, 166272, Note_on_c, 0, 69, 100
2, 166400, Note_off_c, 0, 69, 100
2, 166464, Note_on_c, 0, 62, 100
2, 166592, Note_off_c, 0, 62, 100
2, 166656, Note_on_c, 0, 67, 100
2, 166784, Note_off_c, 0, 67, 100
2, 166848, Note_on_c, 0, 71, 100
2, 166976, Note_off_c, 0, 71, 100
2, 167040, Note_on_c, 0, 74, 100
2, 167168, Note_off_c, 0, 74, 100
2, 167232, Note_on_c, 0, 67, 100
2, 167360, Note_off_c, 0, 67, 100
2, 167424, Note_on_c, 0, 67, 100
2, 167680, Note_off_c, 0, 67, 100
2, 167808, Note_on_c, 0, 66, 100
2, 167936, Note_off_c, 0, 66, 100
2, 168000, Note_on_c, 0, 69, 100
2, 168128, Note_off_c, 0, 69, 100
2, 168192, Note_on_c, 0, 72, 100
2, 168320, Note_off_c, 0, 72, 100
2, 168384, Note_on_c, 0, 78, 100
2, 168512, Note_off_c, 0, 78, 100
2, 168576, Note_on_c, 0, 81, 100
2, 168704, Note_off_c, 0, 81, 100
2, 168768, Note_on_c, 0, 72, 100
2, 168896, Note_off_c, 0, 72, 100
2, 168960, Note_on_c, 0, 72, 100
2, 169216, Note_off_c, 0, 72, 100
2, 169344, Note_on_c, 0, 71, 100
2, 169472, Note_off_c, 0, 71, 100
2, 169536, Note_on_c, 0, 67, 100
2, 169664, Note_off_c, 0, 67, 100
2, 169728, Note_on_c, 0, 72, 100
2, 169856, Note_off_c, 0, 72, 100
2, 169920, Note_on_c, 0, 76, 100
2, 170048, Note_off_c, 0, 76, 100
2, 170112, Note_on_c, 0, 79, 100
2, 170240, Note_off_c, 0, 79, 100
2, 170304, Note_on_c, 0, 72, 100
2, 170432, Note_off_c, 0, 72, 100
2, 170496, Note_on_c, 0, 74, 100
2, 170624, Note_off_c, 0, 74, 100
2, 170688, Note_on_c, 0, 79, 100
2, 170752, Note_off_c, 0, 79, 100
2, 170784, Note_on_c, 0, 83, 100
2, 170848, Note_off_c, 0, 83, 100
2, 170880, Note_on_c, 0, 86, 100
2, 171008, Note_off_c, 0, 86, 100
2, 171072, Note_on_c, 0, 74, 100
2, 171072, Note_on_c, 0, 71, 100
2, 171200, Note_off_c, 0, 74, 100
2, 171200, Note_off_c, 0, 71, 100
2, 171240, Note_on_c, 0, 74, 100
2, 171240, Note_on_c, 0, 71, 100
2, 171256, Note_off_c, 0, 74, 100
2, 171256, Note_off_c, 0, 71, 100
2, 171264, Note_on_c, 0, 72, 100
2, 171264, Note_on_c, 0, 69, 100
2, 171392, Note_off_c, 0, 72, 100
2, 171392, Note_off_c, 0, 69, 100
2, 171456, Note_on_c, 0, 71, 100
2, 171456, Note_on_c, 0, 67, 100
2, 171712, Note_off_c, 0, 71, 100
2, 171712, Note_off_c, 0, 67, 100
2, 171840, Note_on_c, 0, 60, 100
2, 171840, Note_on_c, 0, 69, 100
2, 171840, Note_on_c, 0, 66, 100
2, 171968, Note_off_c, 0, 60, 100
2, 171968, Note_off_c, 0, 69, 100
2, 171968, Note_off_c, 0, 66, 100
2, 172032, Note_on_c, 0, 67, 100
2, 172032, Note_on_c, 0, 62, 100
2, 172032, Note_on_c, 0, 59, 100
2, 172288, Note_off_c, 0, 67, 100
2, 172288, Note_off_c, 0, 62, 100
2, 172288, Note_off_c, 0, 59, 100
2, 172288, End_track
3, 0, Start_track
3, 0, Control_c, 1, 7, 100
3, 0, Key_signature, 1, "major"
3, 768, Note_on_c, 1, 59, 100
3, 768, Note_on_c, 1, 55, 100
3, 1024, Note_off_c, 1, 59, 100
3, 1024, Note_off_c, 1, 55, 100
3, 1344, Note_on_c, 1, 62, 100
3, 1344, Note_on_c, 1, 59, 100
3, 1472, Note_off_c, 1, 62, 100
3, 1472, Note_off_c, 1, 59, 100
3, 1536, Note_on_c, 1, 60, 100
3, 1536, Note_on_c, 1, 57, 100
3, 1792, Note_off_c, 1, 60, 100
3, 1792, Note_off_c, 1, 57, 100
3, 2880, Note_on_c, 1, 54, 100
3, 3008, Note_off_c, 1, 54, 100
3, 3072, Note_on_c, 1, 55, 100
3, 3328, Note_off_c, 1, 55, 100
3, 3456, Note_on_c, 1, 43, 100
3, 3584, Note_off_c, 1, 43, 100
3, 3648, Note_on_c, 1, 66, 100
3, 3776, Note_off_c, 1, 66, 100
3, 3840, Note_on_c, 1, 67, 100
3, 4096, Note_off_c, 1, 67, 100
3, 4416, Note_on_c, 1, 67, 100
3, 4544, Note_off_c, 1, 67, 100
3, 4608, Note_on_c, 1, 66, 100
3, 4864, Note_off_c, 1, 66, 100
3, 5184, Note_on_c, 1, 66, 100
3, 5312, Note_off_c, 1, 66, 100
3, 5376, Note_on_c, 1, 67, 100
3, 5632, Note_off_c, 1, 67, 100
3, 5760, Note_on_c, 1, 69, 100
3, 6016, Note_off_c, 1, 69, 100
3, 6144, Note_on_c, 1, 62, 100
3, 6400, Note_off_c, 1, 62, 100
3, 6528, Note_on_c, 1, 50, 100
3, 6656, Note_off_c, 1, 50, 100
3, 6912, Note_on_c, 1, 59, 100
3, 6912, Note_on_c, 1, 55, 100
3, 7168, Note_off_c, 1, 59, 100
3, 7168, Note_off_c, 1, 55, 100
3, 7488, Note_on_c, 1, 62, 100
3, 7488, Note_on_c, 1, 59, 100
3, 7616, Note_off_c, 1, 62, 100
3, 7616, Note_off_c, 1, 59, 100
3, 7680, Note_on_c, 1, 60, 100
3, 7680, Note_on_c, 1, 57, 100
3, 7936, Note_off_c, 1, 60, 100
3, 7936, Note_off_c, 1, 57, 100
3, 9024, Note_on_c, 1, 54, 100
3, 9152, Note_off_c, 1, 54, 100
3, 9216, Note_on_c, 1, 55, 100
3, 9472, Note_off_c, 1, 55, 100
3, 9600, Note_on_c, 1, 43, 100
3, 9728, Note_off_c, 1, 43, 100
3, 9792, Note_on_c, 1, 66, 100
3, 9920, Note_off_c, 1, 66, 100
3, 9984, Note_on_c, 1, 67, 100
3, 10240, Note_off_c, 1, 67, 100
3, 10560, Note_on_c, 1, 67, 100
3, 10688, Note_off_c, 1, 67, 100
3, 10752, Note_on_c, 1, 66, 100
3, 11008, Note_off_c, 1, 66, 100
3, 11328, Note_on_c, 1, 66, 100
3, 11456, Note_off_c, 1, 66, 100
3, 11520, Note_on_c, 1, 67, 100
3, 11776, Note_off_c, 1, 67, 100
3, 11904, Note_on_c, 1, 69, 100
3, 12160, Note_off_c, 1, 69, 100
3, 12288, Note_on_c, 1, 62, 100
3, 12544, Note_off_c, 1, 62, 100
3, 12672, Note_on_c, 1, 50, 100
3, 12800, Note_off_c, 1, 50, 100
3, 14016, Note_on_c, 1, 56, 100
3, 14144, Note_off_c, 1, 56, 100
3, 14208, Note_on_c, 1, 57, 100
3, 14336, Note_off_c, 1, 57, 100
3, 14400, Note_on_c, 1, 45, 100
3, 14528, Note_off_c, 1, 45, 100
3, 15552, Note_on_c, 1, 54, 100
3, 15680, Note_off_c, 1, 54, 100
3, 15744, Note_on_c, 1, 55, 100
3, 15872, Note_off_c, 1, 55, 100
3, 15936, Note_on_c, 1, 47, 100
3, 16064, Note_off_c, 1, 47, 100
3, 16128, Note_on_c, 1, 48, 100
3, 16384, Note_off_c, 1, 48, 100
3, 16704, Note_on_c, 1, 61, 100
3, 16832, Note_off_c, 1, 61, 100
3, 16896, Note_on_c, 1, 62, 100
3, 17152, Note_off_c, 1, 62, 100
3, 17472, Note_on_c, 1, 63, 100
3, 17600, Note_off_c, 1, 63, 100
3, 17664, Note_on_c, 1, 64, 100
3, 17792, Note_off_c, 1, 64, 100
3, 17856, Note_on_c, 1, 66, 100
3, 17984, Note_off_c, 1, 66, 100
3, 18048, Note_on_c, 1, 67, 100
3, 18240, Note_on_c, 1, 61, 100
3, 18368, Note_off_c, 1, 61, 100
3, 18432, Note_on_c, 1, 62, 100
3, 18560, Note_off_c, 1, 67, 100
3, 18688, Note_off_c, 1, 62, 100
3, 18816, Note_on_c, 1, 66, 100
3, 18816, Note_on_c, 1, 62, 100
3, 18944, Note_off_c, 1, 66, 100
3, 18944, Note_off_c, 1, 62, 100
3, 19200, Note_on_c, 1, 59, 100
3, 19200, Note_on_c, 1, 55, 100
3, 19456, Note_off_c, 1, 59, 100
3, 19456, Note_off_c, 1, 55, 100
3, 19776, Note_on_c, 1, 62, 100
3, 19776, Note_on_c, 1, 59, 100
3, 19904, Note_off_c, 1, 62, 100
3, 19904, Note_off_c, 1, 59, 100
3, 19968, Note_on_c, 1, 60, 100
3, 19968, Note_on_c, 1, 57, 100
3, 20224, Note_off_c, 1, 60, 100
3, 20224, Note_off_c, 1, 57, 100
3, 21312, Note_on_c, 1, 54, 100
3, 21440, Note_off_c, 1, 54, 100
3, 21504, Note_on_c, 1, 55, 100
3, 21760, Note_off_c, 1, 55, 100
3, 21888, Note_on_c, 1, 43, 100
3, 22016, Note_off_c, 1, 43, 100
3, 22848, Note_on_c, 1, 60, 100
3, 22976, Note_off_c, 1, 60, 100
3, 23040, Note_on_c, 1, 59, 100
3, 23296, Note_off_c, 1, 59, 100
3, 23616, Note_on_c, 1, 55, 100
3, 23744, Note_off_c, 1, 55, 100
3, 23808, Note_on_c, 1, 62, 100
3, 24064, Note_off_c, 1, 62, 100
3, 24384, Note_on_c, 1, 50, 100
3, 24512, Note_off_c, 1, 50, 100
3, 24576, Note_on_c, 1, 55, 100
3, 24832, Note_off_c, 1, 55, 100
3, 24960, Note_on_c, 1, 43, 100
3, 25088, Note_off_c, 1, 43, 100
3, 26304, Note_on_c, 1, 56, 100
3, 26432, Note_off_c, 1, 56, 100
3, 26496, Note_on_c, 1, 57, 100
3, 26624, Note_off_c, 1, 57, 100
3, 26688, Note_on_c, 1, 45, 100
3, 26816, Note_off_c, 1, 45, 100
3, 27840, Note_on_c, 1, 54, 100
3, 27968, Note_off_c, 1, 54, 100
3, 28032, Note_on_c, 1, 55, 100
3, 28160, Note_off_c, 1, 55, 100
3, 28224, Note_on_c, 1, 47, 100
3, 28352, Note_off_c, 1, 47, 100
3, 28416, Note_on_c, 1, 48, 100
3, 28672, Note_off_c, 1, 48, 100
3, 28992, Note_on_c, 1, 61, 100
3, 29120, Note_off_c, 1, 61, 100
3, 29184, Note_on_c, 1, 62, 100
3, 29440, Note_off_c, 1, 62, 100
3, 29760, Note_on_c, 1, 63, 100
3, 29888, Note_off_c, 1, 63, 100
3, 29952, Note_on_c, 1, 64, 100
3, 30080, Note_off_c, 1, 64, 100
3, 30144, Note_on_c, 1, 66, 100
3, 30272, Note_off_c, 1, 66, 100
3, 30336, Note_on_c, 1, 67, 100
3, 30528, Note_on_c, 1, 61, 100
3, 30656, Note_off_c, 1, 61, 100
3, 30720, Note_on_c, 1, 62, 100
3, 30848, Note_off_c, 1, 67, 100
3, 30976, Note_off_c, 1, 62, 100
3, 31104, Note_on_c, 1, 66, 100
3, 31104, Note_on_c, 1, 62, 100
3, 31232, Note_off_c, 1, 66, 100
3, 31232, Note_off_c, 1, 62, 100
3, 31488, Note_on_c, 1, 59, 100
3, 31488, Note_on_c, 1, 55, 100
3, 31744, Note_off_c, 1, 59, 100
3, 31744, Note_off_c, 1, 55, 100
3, 32064, Note_on_c, 1, 62, 100
3, 32064, Note_on_c, 1, 59, 100
3, 32192, Note_off_c, 1, 62, 100
3, 32192, Note_off_c, 1, 59, 100
3, 32256, Note_on_c, 1, 60, 100
3, 32256, Note_on_c, 1, 57, 100
3, 32512, Note_off_c, 1, 60, 100
3, 32512, Note_off_c, 1, 57, 100
3, 33600, Note_on_c, 1, 54, 100
3, 33728, Note_off_c, 1, 54, 100
3, 33792, Note_on_c, 1, 55, 100
3, 34048, Note_off_c, 1, 55, 100
3, 34176, Note_on_c, 1, 43, 100
3, 34304, Note_off_c, 1, 43, 100
3, 35136, Note_on_c, 1, 60, 100
3, 35264, Note_off_c, 1, 60, 100
3, 35328, Note_on_c, 1, 59, 100
3, 35584, Note_off_c, 1, 59, 100
3, 35904, Note_on_c, 1, 55, 100
3, 36032, Note_off_c, 1, 55, 100
3, 36096, Note_on_c, 1, 62, 100
3, 36352, Note_off_c, 1, 62, 100
3, 36672, Note_on_c, 1, 50, 100
3, 36800, Note_off_c, 1, 50, 100
3, 36864, Note_on_c, 1, 55, 100
3, 37120, Note_off_c, 1, 55, 100
3, 37248, Note_on_c, 1, 43, 100
3, 37376, Note_off_c, 1, 43, 100
3, 37632, Note_on_c, 1, 59, 100
3, 37632, Note_on_c, 1, 55, 100
3, 37888, Note_off_c, 1, 59, 100
3, 37888, Note_off_c, 1, 55, 100
3, 38208, Note_on_c, 1, 62, 100
3, 38208, Note_on_c, 1, 59, 100
3, 38336, Note_off_c, 1, 62, 100
3, 38336, Note_off_c, 1, 59, 100
3, 38400, Note_on_c, 1, 60, 100
3, 38400, Note_on_c, 1, 57, 100
3, 38656, Note_off_c, 1, 60, 100
3, 38656, Note_off_c, 1, 57, 100
3, 39744, Note_on_c, 1, 54, 100
3, 39872, Note_off_c, 1, 54, 100
3, 39936, Note_on_c, 1, 55, 100
3, 40192, Note_off_c, 1, 55, 100
3, 40320, Note_on_c, 1, 43, 100
3, 40448, Note_off_c, 1, 43, 100
3, 40704, Note_on_c, 1, 67, 100
3, 40960, Note_off_c, 1, 67, 100
3, 41472, Note_on_c, 1, 66, 100
3, 41728, Note_off_c, 1, 66, 100
3, 42240, Note_on_c, 1, 67, 100
3, 42368, Note_off_c, 1, 67, 100
3, 42624, Note_on_c, 1, 57, 100
3, 42752, Note_off_c, 1, 57, 100
3, 43008, Note_on_c, 1, 50, 100
3, 43072, Note_off_c, 1, 50, 100
3, 43104, Note_on_c, 1, 54, 100
3, 43168, Note_off_c, 1, 54, 100
3, 43200, Note_on_c, 1, 57, 100
3, 43264, Note_off_c, 1, 57, 100
3, 43296, Note_on_c, 1, 62, 100
3, 43360, Note_off_c, 1, 62, 100
3, 43392, Note_on_c, 1, 50, 100
3, 43520, Note_off_c, 1, 50, 100
3, 43776, Note_on_c, 1, 59, 100
3, 43776, Note_on_c, 1, 55, 100
3, 44032, Note_off_c, 1, 59, 100
3, 44032, Note_off_c, 1, 55, 100
3, 44352, Note_on_c, 1, 62, 100
3, 44352, Note_on_c, 1, 59, 100
3, 44480, Note_off_c, 1, 62, 100
3, 44480, Note_off_c, 1, 59, 100
3, 44544, Note_on_c, 1, 60, 100
3, 44544, Note_on_c, 1, 57, 100
3, 44800, Note_off_c, 1, 60, 100
3, 44800, Note_off_c, 1, 57, 100
3, 45888, Note_on_c, 1, 54, 100
3, 46016, Note_off_c, 1, 54, 100
3, 46080, Note_on_c, 1, 55, 100
3, 46336, Note_off_c, 1, 55, 100
3, 46464, Note_on_c, 1, 43, 100
3, 46592, Note_off_c, 1, 43, 100
3, 46848, Note_on_c, 1, 67, 100
3, 47104, Note_off_c, 1, 67, 100
3, 47616, Note_on_c, 1, 66, 100
3, 47872, Note_off_c, 1, 66, 100
3, 48384, Note_on_c, 1, 67, 100
3, 48512, Note_off_c, 1, 67, 100
3, 48768, Note_on_c, 1, 57, 100
3, 48896, Note_off_c, 1, 57, 100
3, 49152, Note_on_c, 1, 50, 100
3, 49216, Note_off_c, 1, 50, 100
3, 49248, Note_on_c, 1, 54, 100
3, 49312, Note_off_c, 1, 54, 100
3, 49344, Note_on_c, 1, 57, 100
3, 49408, Note_off_c, 1, 57, 100
3, 49440, Note_on_c, 1, 62, 100
3, 49504, Note_off_c, 1, 62, 100
3, 49536, Note_on_c, 1, 50, 100
3, 49664, Note_off_c, 1, 50, 100
3, 50496, Note_on_c, 1, 62, 100
3, 50496, Note_on_c, 1, 56, 100
3, 50624, Note_off_c, 1, 62, 100
3, 50624, Note_off_c, 1, 56, 100
3, 50688, Note_on_c, 1, 62, 100
3, 50688, Note_on_c, 1, 57, 100
3, 50944, Note_off_c, 1, 62, 100
3, 50944, Note_off_c, 1, 57, 100
3, 51072, Note_on_c, 1, 60, 100
3, 51072, Note_on_c, 1, 57, 100
3, 51200, Note_off_c, 1, 60, 100
3, 51200, Note_off_c, 1, 57, 100
3, 52032, Note_on_c, 1, 60, 100
3, 52032, Note_on_c, 1, 54, 100
3, 52160, Note_off_c, 1, 60, 100
3, 52160, Note_off_c, 1, 54, 100
3, 52224, Note_on_c, 1, 60, 100
3, 52224, Note_on_c, 1, 55, 100
3, 52480, Note_off_c, 1, 60, 100
3, 52480, Note_off_c, 1, 55, 100
3, 52608, Note_on_c, 1, 59, 100
3, 52608, Note_on_c, 1, 55, 100
3, 52736, Note_off_c, 1, 59, 100
3, 52736, Note_off_c, 1, 55, 100
3, 52800, Note_on_c, 1, 59, 100
3, 52928, Note_off_c, 1, 59, 100
3, 52992, Note_on_c, 1, 60, 100
3, 53248, Note_off_c, 1, 60, 100
3, 53568, Note_on_c, 1, 61, 100
3, 53696, Note_off_c, 1, 61, 100
3, 53760, Note_on_c, 1, 62, 100
3, 54016, Note_off_c, 1, 62, 100
3, 54336, Note_on_c, 1, 63, 100
3, 54464, Note_off_c, 1, 63, 100
3, 54528, Note_on_c, 1, 64, 100
3, 54656, Note_off_c, 1, 64, 100
3, 54720, Note_on_c, 1, 66, 100
3, 54848, Note_off_c, 1, 66, 100
3, 54912, Note_on_c, 1, 67, 100
3, 55104, Note_on_c, 1, 61, 100
3, 55232, Note_off_c, 1, 61, 100
3, 55296, Note_on_c, 1, 62, 100
3, 55424, Note_off_c, 1, 67, 100
3, 55552, Note_off_c, 1, 62, 100
3, 55680, Note_on_c, 1, 66, 100
3, 55680, Note_on_c, 1, 62, 100
3, 55808, Note_off_c, 1, 66, 100
3, 55808, Note_off_c, 1, 62, 100
3, 56064, Note_on_c, 1, 59, 100
3, 56064, Note_on_c, 1, 55, 100
3, 56320, Note_off_c, 1, 59, 100
3, 56320, Note_off_c, 1, 55, 100
3, 56640, Note_on_c, 1, 62, 100
3, 56640, Note_on_c, 1, 59, 100
3, 56768, Note_off_c, 1, 62, 100
3, 56768, Note_off_c, 1, 59, 100
3, 56832, Note_on_c, 1, 60, 100
3, 56832, Note_on_c, 1, 57, 100
3, 57088, Note_off_c, 1, 60, 100
3, 57088, Note_off_c, 1, 57, 100
3, 58176, Note_on_c, 1, 54, 100
3, 58304, Note_off_c, 1, 54, 100
3, 58368, Note_on_c, 1, 55, 100
3, 58624, Note_off_c, 1, 55, 100
3, 58752, Note_on_c, 1, 43, 100
3, 58880, Note_off_c, 1, 43, 100
3, 59136, Note_on_c, 1, 60, 100
3, 59136, Note_on_c, 1, 48, 100
3, 59392, Note_off_c, 1, 60, 100
3, 59392, Note_off_c, 1, 48, 100
3, 59904, Note_on_c, 1, 59, 100
3, 59904, Note_on_c, 1, 47, 100
3, 60160, Note_off_c, 1, 59, 100
3, 60160, Note_off_c, 1, 47, 100
3, 60672, Note_on_c, 1, 60, 100
3, 60928, Note_off_c, 1, 60, 100
3, 61056, Note_on_c, 1, 62, 100
3, 61312, Note_off_c, 1, 62, 100
3, 61440, Note_on_c, 1, 55, 100
3, 61696, Note_off_c, 1, 55, 100
3, 62784, Note_on_c, 1, 62, 100
3, 62784, Note_on_c, 1, 56, 100
3, 62912, Note_off_c, 1, 62, 100
3, 62912, Note_off_c, 1, 56, 100
3, 62976, Note_on_c, 1, 62, 100
3, 62976, Note_on_c, 1, 57, 100
3, 63232, Note_off_c, 1, 62, 100
3, 63232, Note_off_c, 1, 57, 100
3, 63360, Note_on_c, 1, 60, 100
3, 63360, Note_on_c, 1, 57, 100
3, 63488, Note_off_c, 1, 60, 100
3, 63488, Note_off_c, 1, 57, 100
3, 64320, Note_on_c, 1, 60, 100
3, 64320, Note_on_c, 1, 54, 100
3, 64448, Note_off_c, 1, 60, 100
3, 64448, Note_off_c, 1, 54, 100
3, 64512, Note_on_c, 1, 60, 100
3, 64512, Note_on_c, 1, 55, 100
3, 64768, Note_off_c, 1, 60, 100
3, 64768, Note_off_c, 1, 55, 100
3, 64896, Note_on_c, 1, 59, 100
3, 64896, Note_on_c, 1, 55, 100
3, 65024, Note_off_c, 1, 59, 100
3, 65024, Note_off_c, 1, 55, 100
3, 65088, Note_on_c, 1, 59, 100
3, 65216, Note_off_c, 1, 59, 100
3, 65280, Note_on_c, 1, 60, 100
3, 65536, Note_off_c, 1, 60, 100
3, 65856, Note_on_c, 1, 61, 100
3, 65984, Note_off_c, 1, 61, 100
3, 66048, Note_on_c, 1, 62, 100
3, 66304, Note_off_c, 1, 62, 100
3, 66624, Note_on_c, 1, 63, 100
3, 66752, Note_off_c, 1, 63, 100
3, 66816, Note_on_c, 1, 64, 100
3, 66944, Note_off_c, 1, 64, 100
3, 67008, Note_on_c, 1, 66, 100
3, 67136, Note_off_c, 1, 66, 100
3, 67200, Note_on_c, 1, 67, 100
3, 67392, Note_on_c, 1, 61, 100
3, 67520, Note_off_c, 1, 61, 100
3, 67584, Note_on_c, 1, 62, 100
3, 67712, Note_off_c, 1, 67, 100
3, 67840, Note_off_c, 1, 62, 100
3, 67968, Note_on_c, 1, 66, 100
3, 67968, Note_on_c, 1, 62, 100
3, 68096, Note_off_c, 1, 66, 100
3, 68096, Note_off_c, 1, 62, 100
3, 68352, Note_on_c, 1, 59, 100
3, 68352, Note_on_c, 1, 55, 100
3, 68608, Note_off_c, 1, 59, 100
3, 68608, Note_off_c, 1, 55, 100
3, 68928, Note_on_c, 1, 62, 100
3, 68928, Note_on_c, 1, 59, 100
3, 69056, Note_off_c, 1, 62, 100
3, 69056, Note_off_c, 1, 59, 100
3, 69120, Note_on_c, 1, 60, 100
3, 69120, Note_on_c, 1, 57, 100
3, 69376, Note_off_c, 1, 60, 100
3, 69376, Note_off_c, 1, 57, 100
3, 70464, Note_on_c, 1, 54, 100
3, 70592, Note_off_c, 1, 54, 100
3, 70656, Note_on_c, 1, 55, 100
3, 70912, Note_off_c, 1, 55, 100
3, 71040, Note_on_c, 1, 43, 100
3, 71168, Note_off_c, 1, 43, 100
3, 71424, Note_on_c, 1, 60, 100
3, 71424, Note_on_c, 1, 48, 100
3, 71680, Note_off_c, 1, 60, 100
3, 71680, Note_off_c, 1, 48, 100
3, 72192, Note_on_c, 1, 59, 100
3, 72192, Note_on_c, 1, 47, 100
3, 72448, Note_off_c, 1, 59, 100
3, 72448, Note_off_c, 1, 47, 100
3, 72960, Note_on_c, 1, 60, 100
3, 73216, Note_off_c, 1, 60, 100
3, 73344, Note_on_c, 1, 62, 100
3, 73600, Note_off_c, 1, 62, 100
3, 73728, Note_on_c, 1, 55, 100
3, 73984, Note_off_c, 1, 55, 100
3, 74496, Note_on_c, 1, 59, 100
3, 74496, Note_on_c, 1, 55, 100
3, 74752, Note_off_c, 1, 59, 100
3, 74752, Note_off_c, 1, 55, 100
3, 75264, Note_on_c, 1, 60, 100
3, 75264, Note_on_c, 1, 57, 100
3, 75392, Note_off_c, 1, 60, 100
3, 75392, Note_off_c, 1, 57, 100
3, 75456, Note_on_c, 1, 59, 100
3, 75456, Note_on_c, 1, 55, 100
3, 75584, Note_off_c, 1, 59, 100
3, 75584, Note_off_c, 1, 55, 100
3, 75648, Note_on_c, 1, 57, 100
3, 75648, Note_on_c, 1, 54, 100
3, 75776, Note_off_c, 1, 57, 100
3, 75776, Note_off_c, 1, 54, 100
3, 75840, Note_on_c, 1, 55, 100
3, 75840, Note_on_c, 1, 52, 100
3, 75968, Note_off_c, 1, 55, 100
3, 75968, Note_off_c, 1, 52, 100
3, 76032, Note_on_c, 1, 54, 100
3, 76032, Note_on_c, 1, 50, 100
3, 76288, Note_off_c, 1, 54, 100
3, 76288, Note_off_c, 1, 50, 100
3, 76896, Note_on_c, 1, 43, 100
3, 76960, Note_off_c, 1, 43, 100
3, 76992, Note_on_c, 1, 47, 100
3, 77056, Note_off_c, 1, 47, 100
3, 77088, Note_on_c, 1, 50, 100
3, 77152, Note_off_c, 1, 50, 100
3, 77184, Note_on_c, 1, 55, 100
3, 77440, Note_off_c, 1, 55, 100
3, 77568, Note_on_c, 1, 67, 100
3, 77696, Note_off_c, 1, 67, 100
3, 77760, Note_on_c, 1, 66, 100
3, 77888, Note_off_c, 1, 66, 100
3, 77952, Note_on_c, 1, 64, 100
3, 78080, Note_off_c, 1, 64, 100
3, 78144, Note_on_c, 1, 63, 100
3, 78272, Note_off_c, 1, 63, 100
3, 78336, Note_on_c, 1, 64, 100
3, 78464, Note_off_c, 1, 64, 100
3, 78528, Note_on_c, 1, 62, 100
3, 78656, Note_off_c, 1, 62, 100
3, 78720, Note_on_c, 1, 61, 100
3, 78848, Note_off_c, 1, 61, 100
3, 78912, Note_on_c, 1, 64, 100
3, 79040, Note_off_c, 1, 64, 100
3, 79104, Note_on_c, 1, 62, 100
3, 79232, Note_off_c, 1, 62, 100
3, 79296, Note_on_c, 1, 55, 100
3, 79424, Note_off_c, 1, 55, 100
3, 79488, Note_on_c, 1, 57, 100
3, 79616, Note_off_c, 1, 57, 100
3, 79680, Note_on_c, 1, 45, 100
3, 79808, Note_off_c, 1, 45, 100
3, 79872, Note_on_c, 1, 50, 100
3, 80000, Note_off_c, 1, 50, 100
3, 80064, Note_on_c, 1, 45, 100
3, 80192, Note_off_c, 1, 45, 100
3, 80256, Note_on_c, 1, 38, 100
3, 80384, Note_off_c, 1, 38, 100
3, 80640, Note_on_c, 1, 59, 100
3, 80640, Note_on_c, 1, 55, 100
3, 80896, Note_off_c, 1, 59, 100
3, 80896, Note_off_c, 1, 55, 100
3, 81408, Note_on_c, 1, 60, 100
3, 81408, Note_on_c, 1, 57, 100
3, 81536, Note_off_c, 1, 60, 100
3, 81536, Note_off_c, 1, 57, 100
3, 81600, Note_on_c, 1, 59, 100
3, 81600, Note_on_c, 1, 55, 100
3, 81728, Note_off_c, 1, 59, 100
3, 81728, Note_off_c, 1, 55, 100
3, 81792, Note_on_c, 1, 57, 100
3, 81792, Note_on_c, 1, 54, 100
3, 81920, Note_off_c, 1, 57, 100
3, 81920, Note_off_c, 1, 54, 100
3, 81984, Note_on_c, 1, 55, 100
3, 81984, Note_on_c, 1, 52, 100
3, 82112, Note_off_c, 1, 55, 100
3, 82112, Note_off_c, 1, 52, 100
3, 82176, Note_on_c, 1, 54, 100
3, 82176, Note_on_c, 1, 50, 100
3, 82432, Note_off_c, 1, 54, 100
3, 82432, Note_off_c, 1, 50, 100
3, 83040, Note_on_c, 1, 43, 100
3, 83104, Note_off_c, 1, 43, 100
3, 83136, Note_on_c, 1, 47, 100
3, 83200, Note_off_c, 1, 47, 100
3, 83232, Note_on_c, 1, 50, 100
3, 83296, Note_off_c, 1, 50, 100
3, 83328, Note_on_c, 1, 55, 100
3, 83584, Note_off_c, 1, 55, 100
3, 83712, Note_on_c, 1, 67, 100
3, 83840, Note_off_c, 1, 67, 100
3, 83904, Note_on_c, 1, 66, 100
3, 84032, Note_off_c, 1, 66, 100
3, 84096, Note_on_c, 1, 64, 100
3, 84224, Note_off_c, 1, 64, 100
3, 84288, Note_on_c, 1, 63, 100
3, 84416, Note_off_c, 1, 63, 100
3, 84480, Note_on_c, 1, 64, 100
3, 84608, Note_off_c, 1, 64, 100
3, 84672, Note_on_c, 1, 62, 100
3, 84800, Note_off_c, 1, 62, 100
3, 84864, Note_on_c, 1, 61, 100
3, 84992, Note_off_c, 1, 61, 100
3, 85056, Note_on_c, 1, 64, 100
3, 85184, Note_off_c, 1, 64, 100
3, 85248, Note_on_c, 1, 62, 100
3, 85376, Note_off_c, 1, 62, 100
3, 85440, Note_on_c, 1, 55, 100
3, 85568, Note_off_c, 1, 55, 100
3, 85632, Note_on_c, 1, 57, 100
3, 85760, Note_off_c, 1, 57, 100
3, 85824, Note_on_c, 1, 45, 100
3, 85952, Note_off_c, 1, 45, 100
3, 86016, Note_on_c, 1, 50, 100
3, 86144, Note_off_c, 1, 50, 100
3, 86208, Note_on_c, 1, 45, 100
3, 86336, Note_off_c, 1, 45, 100
3, 86400, Note_on_c, 1, 38, 100
3, 86528, Note_off_c, 1, 38, 100
3, 86784, Note_on_c, 1, 71, 100
3, 86912, Note_off_c, 1, 71, 100
3, 86976, Note_on_c, 1, 69, 100
3, 87104, Note_off_c, 1, 69, 100
3, 87168, Note_on_c, 1, 68, 100
3, 87296, Note_off_c, 1, 68, 100
3, 87360, Note_on_c, 1, 74, 100
3, 87488, Note_off_c, 1, 74, 100
3, 87552, Note_on_c, 1, 72, 100
3, 87680, Note_off_c, 1, 72, 100
3, 87744, Note_on_c, 1, 71, 100
3, 87872, Note_off_c, 1, 71, 100
3, 87936, Note_on_c, 1, 69, 100
3, 88064, Note_off_c, 1, 69, 100
3, 88320, Note_on_c, 1, 69, 100
3, 88448, Note_off_c, 1, 69, 100
3, 88512, Note_on_c, 1, 67, 100
3, 88640, Note_off_c, 1, 67, 100
3, 88704, Note_on_c, 1, 66, 100
3, 88832, Note_off_c, 1, 66, 100
3, 88896, Note_on_c, 1, 72, 100
3, 89024, Note_off_c, 1, 72, 100
3, 89088, Note_on_c, 1, 71, 100
3, 89216, Note_off_c, 1, 71, 100
3, 89280, Note_on_c, 1, 69, 100
3, 89408, Note_off_c, 1, 69, 100
3, 89472, Note_on_c, 1, 67, 100
3, 89600, Note_off_c, 1, 67, 100
3, 89664, Note_on_c, 1, 59, 100
3, 89792, Note_off_c, 1, 59, 100
3, 89856, Note_on_c, 1, 60, 100
3, 89984, Note_off_c, 1, 60, 100
3, 90048, Note_on_c, 1, 62, 100
3, 90176, Note_off_c, 1, 62, 100
3, 90240, Note_on_c, 1, 60, 100
3, 90368, Note_off_c, 1, 60, 100
3, 90432, Note_on_c, 1, 61, 100
3, 90560, Note_off_c, 1, 61, 100
3, 90624, Note_on_c, 1, 62, 100
3, 90752, Note_off_c, 1, 62, 100
3, 90816, Note_on_c, 1, 64, 100
3, 90944, Note_off_c, 1, 64, 100
3, 91008, Note_on_c, 1, 62, 100
3, 91136, Note_off_c, 1, 62, 100
3, 91200, Note_on_c, 1, 63, 100
3, 91328, Note_off_c, 1, 63, 100
3, 91392, Note_on_c, 1, 64, 100
3, 91904, Note_off_c, 1, 64, 100
3, 91968, Note_on_c, 1, 67, 100
3, 92096, Note_off_c, 1, 67, 100
3, 92160, Note_on_c, 1, 59, 100
3, 92160, Note_on_c, 1, 67, 100
3, 92416, Note_off_c, 1, 59, 100
3, 92416, Note_off_c, 1, 67, 100
3, 92544, Note_on_c, 1, 62, 100
3, 92544, Note_on_c, 1, 66, 100
3, 92672, Note_off_c, 1, 62, 100
3, 92672, Note_off_c, 1, 66, 100
3, 92928, Note_on_c, 1, 59, 100
3, 92928, Note_on_c, 1, 55, 100
3, 93184, Note_off_c, 1, 59, 100
3, 93184, Note_off_c, 1, 55, 100
3, 93696, Note_on_c, 1, 60, 100
3, 93696, Note_on_c, 1, 57, 100
3, 93824, Note_off_c, 1, 60, 100
3, 93824, Note_off_c, 1, 57, 100
3, 93888, Note_on_c, 1, 59, 100
3, 93888, Note_on_c, 1, 55, 100
3, 94016, Note_off_c, 1, 59, 100
3, 94016, Note_off_c, 1, 55, 100
3, 94080, Note_on_c, 1, 57, 100
3, 94080, Note_on_c, 1, 54, 100
3, 94208, Note_off_c, 1, 57, 100
3, 94208, Note_off_c, 1, 54, 100
3, 94272, Note_on_c, 1, 55, 100
3, 94272, Note_on_c, 1, 52, 100
3, 94400, Note_off_c, 1, 55, 100
3, 94400, Note_off_c, 1, 52, 100
3, 94464, Note_on_c, 1, 54, 100
3, 94464, Note_on_c, 1, 50, 100
3, 94720, Note_off_c, 1, 54, 100
3, 94720, Note_off_c, 1, 50, 100
3, 95232, Note_on_c, 1, 43, 100
3, 95360, Note_off_c, 1, 43, 100
3, 95424, Note_on_c, 1, 45, 100
3, 95552, Note_off_c, 1, 45, 100
3, 95616, Note_on_c, 1, 47, 100
3, 95744, Note_off_c, 1, 47, 100
3, 95808, Note_on_c, 1, 43, 100
3, 95936, Note_off_c, 1, 43, 100
3, 96000, Note_on_c, 1, 48, 100
3, 96128, Note_off_c, 1, 48, 100
3, 96192, Note_on_c, 1, 47, 100
3, 96320, Note_off_c, 1, 47, 100
3, 96384, Note_on_c, 1, 48, 100
3, 96512, Note_off_c, 1, 48, 100
3, 96576, Note_on_c, 1, 45, 100
3, 96704, Note_off_c, 1, 45, 100
3, 96768, Note_on_c, 1, 47, 100
3, 97024, Note_off_c, 1, 47, 100
3, 97728, Note_on_c, 1, 48, 100
3, 97856, Note_off_c, 1, 48, 100
3, 97920, Note_on_c, 1, 50, 100
3, 98048, Note_off_c, 1, 50, 100
3, 98112, Note_on_c, 1, 38, 100
3, 98240, Note_off_c, 1, 38, 100
3, 98304, Note_on_c, 1, 43, 100
3, 98432, Note_off_c, 1, 43, 100
3, 98496, Note_on_c, 1, 38, 100
3, 98624, Note_off_c, 1, 38, 100
3, 98688, Note_on_c, 1, 31, 100
3, 98816, Note_off_c, 1, 31, 100
3, 99072, Note_on_c, 1, 71, 100
3, 99200, Note_off_c, 1, 71, 100
3, 99264, Note_on_c, 1, 69, 100
3, 99392, Note_off_c, 1, 69, 100
3, 99456, Note_on_c, 1, 68, 100
3, 99584, Note_off_c, 1, 68, 100
3, 99648, Note_on_c, 1, 74, 100
3, 99776, Note_off_c, 1, 74, 100
3, 99840, Note_on_c, 1, 72, 100
3, 99968, Note_off_c, 1, 72, 100
3, 100032, Note_on_c, 1, 71, 100
3, 100160, Note_off_c, 1, 71, 100
3, 100224, Note_on_c, 1, 69, 100
3, 100352, Note_off_c, 1, 69, 100
3, 100608, Note_on_c, 1, 69, 100
3, 100736, Note_off_c, 1, 69, 100
3, 100800, Note_on_c, 1, 67, 100
3, 100928, Note_off_c, 1, 67, 100
3, 100992, Note_on_c, 1, 66, 100
3, 101120, Note_off_c, 1, 66, 100
3, 101184, Note_on_c, 1, 72, 100
3, 101312, Note_off_c, 1, 72, 100
3, 101376, Note_on_c, 1, 71, 100
3, 101504, Note_off_c, 1, 71, 100
3, 101568, Note_on_c, 1, 69, 100
3, 101696, Note_off_c, 1, 69, 100
3, 101760, Note_on_c, 1, 67, 100
3, 101888, Note_off_c, 1, 67, 100
3, 101952, Note_on_c, 1, 59, 100
3, 102080, Note_off_c, 1, 59, 100
3, 102144, Note_on_c, 1, 60, 100
3, 102272, Note_off_c, 1, 60, 100
3, 102336, Note_on_c, 1, 62, 100
3, 102464, Note_off_c, 1, 62, 100
3, 102528, Note_on_c, 1, 60, 100
3, 102656, Note_off_c, 1, 60, 100
3, 102720, Note_on_c, 1, 61, 100
3, 102848, Note_off_c, 1, 61, 100
3, 102912, Note_on_c, 1, 62, 100
3, 103040, Note_off_c, 1, 62, 100
3, 103104, Note_on_c, 1, 64, 100
3, 103232, Note_off_c, 1, 64, 100
3, 103296, Note_on_c, 1, 62, 100
3, 103424, Note_off_c, 1, 62, 100
3, 103488, Note_on_c, 1, 63, 100
3, 103616, Note_off_c, 1, 63, 100
3, 103680, Note_on_c, 1, 64, 100
3, 104192, Note_off_c, 1, 64, 100
3, 104256, Note_on_c, 1, 67, 100
3, 104384, Note_off_c, 1, 67, 100
3, 104448, Note_on_c, 1, 59, 100
3, 104448, Note_on_c, 1, 67, 100
3, 104704, Note_off_c, 1, 59, 100
3, 104704, Note_off_c, 1, 67, 100
3, 104832, Note_on_c, 1, 62, 100
3, 104832, Note_on_c, 1, 66, 100
3, 104960, Note_off_c, 1, 62, 100
3, 104960, Note_off_c, 1, 66, 100
3, 105216, Note_on_c, 1, 59, 100
3, 105216, Note_on_c, 1, 55, 100
3, 105472, Note_off_c, 1, 59, 100
3, 105472, Note_off_c, 1, 55, 100
3, 105984, Note_on_c, 1, 60, 100
3, 105984, Note_on_c, 1, 57, 100
3, 106112, Note_off_c, 1, 60, 100
3, 106112, Note_off_c, 1, 57, 100
3, 106176, Note_on_c, 1, 59, 100
3, 106176, Note_on_c, 1, 55, 100
3, 106304, Note_off_c, 1, 59, 100
3, 106304, Note_off_c, 1, 55, 100
3, 106368, Note_on_c, 1, 57, 100
3, 106368, Note_on_c, 1, 54, 100
3, 106496, Note_off_c, 1, 57, 100
3, 106496, Note_off_c, 1, 54, 100
3, 106560, Note_on_c, 1, 55, 100
3, 106560, Note_on_c, 1, 52, 100
3, 106688, Note_off_c, 1, 55, 100
3, 106688, Note_off_c, 1, 52, 100
3, 106752, Note_on_c, 1, 54, 100
3, 106752, Note_on_c, 1, 50, 100
3, 107008, Note_off_c, 1, 54, 100
3, 107008, Note_off_c, 1, 50, 100
3, 107520, Note_on_c, 1, 43, 100
3, 107648, Note_off_c, 1, 43, 100
3, 107712, Note_on_c, 1, 45, 100
3, 107840, Note_off_c, 1, 45, 100
3, 107904, Note_on_c, 1, 47, 100
3, 108032, Note_off_c, 1, 47, 100
3, 108096, Note_on_c, 1, 43, 100
3, 108224, Note_off_c, 1, 43, 100
3, 108288, Note_on_c, 1, 48, 100
3, 108416, Note_off_c, 1, 48, 100
3, 108480, Note_on_c, 1, 47, 100
3, 108608, Note_off_c, 1, 47, 100
3, 108672, Note_on_c, 1, 48, 100
3, 108800, Note_off_c, 1, 48, 100
3, 108864, Note_on_c, 1, 45, 100
3, 108992, Note_off_c, 1, 45, 100
3, 109056, Note_on_c, 1, 47, 100
3, 109312, Note_off_c, 1, 47, 100
3, 110016, Note_on_c, 1, 48, 100
3, 110144, Note_off_c, 1, 48, 100
3, 110208, Note_on_c, 1, 50, 100
3, 110336, Note_off_c, 1, 50, 100
3, 110400, Note_on_c, 1, 38, 100
3, 110528, Note_off_c, 1, 38, 100
3, 110592, Note_on_c, 1, 43, 100
3, 110720, Note_off_c, 1, 43, 100
3, 110784, Note_on_c, 1, 38, 100
3, 110912, Note_off_c, 1, 38, 100
3, 110976, Note_on_c, 1, 31, 100
3, 111104, Note_off_c, 1, 31, 100
3, 111936, Note_on_c, 1, 62, 100
3, 111936, Note_on_c, 1, 59, 100
3, 112064, Note_off_c, 1, 62, 100
3, 112064, Note_off_c, 1, 59, 100
3, 112128, Note_on_c, 1, 60, 100
3, 112128, Note_on_c, 1, 57, 100
3, 112384, Note_off_c, 1, 60, 100
3, 112384, Note_off_c, 1, 57, 100
3, 113472, Note_on_c, 1, 54, 100
3, 113600, Note_off_c, 1, 54, 100
3, 113664, Note_on_c, 1, 55, 100
3, 113920, Note_off_c, 1, 55, 100
3, 114048, Note_on_c, 1, 43, 100
3, 114176, Note_off_c, 1, 43, 100
3, 114432, Note_on_c, 1, 67, 100
3, 114688, Note_off_c, 1, 67, 100
3, 115008, Note_on_c, 1, 67, 100
3, 115136, Note_off_c, 1, 67, 100
3, 115200, Note_on_c, 1, 66, 100
3, 115456, Note_off_c, 1, 66, 100
3, 115776, Note_on_c, 1, 66, 100
3, 115904, Note_off_c, 1, 66, 100
3, 115968, Note_on_c, 1, 67, 100
3, 116224, Note_off_c, 1, 67, 100
3, 116352, Note_on_c, 1, 69, 100
3, 116608, Note_off_c, 1, 69, 100
3, 116736, Note_on_c, 1, 62, 100
3, 116992, Note_off_c, 1, 62, 100
3, 117120, Note_on_c, 1, 50, 100
3, 117248, Note_off_c, 1, 50, 100
3, 118080, Note_on_c, 1, 62, 100
3, 118080, Note_on_c, 1, 58, 100
3, 118208, Note_off_c, 1, 62, 100
3, 118208, Note_off_c, 1, 58, 100
3, 118272, Note_on_c, 1, 60, 100
3, 118272, Note_on_c, 1, 57, 100
3, 118528, Note_off_c, 1, 60, 100
3, 118528, Note_off_c, 1, 57, 100
3, 120000, Note_on_c, 1, 54, 100
3, 120128, Note_off_c, 1, 54, 100
3, 120192, Note_on_c, 1, 55, 100
3, 120448, Note_off_c, 1, 55, 100
3, 120576, Note_on_c, 1, 67, 100
3, 120832, Note_off_c, 1, 67, 100
3, 121152, Note_on_c, 1, 67, 100
3, 121280, Note_off_c, 1, 67, 100
3, 121344, Note_on_c, 1, 65, 100
3, 121600, Note_off_c, 1, 65, 100
3, 121920, Note_on_c, 1, 65, 100
3, 122048, Note_off_c, 1, 65, 100
3, 122112, Note_on_c, 1, 67, 100
3, 122368, Note_off_c, 1, 67, 100
3, 122496, Note_on_c, 1, 69, 100
3, 122752, Note_off_c, 1, 69, 100
3, 122880, Note_on_c, 1, 62, 100
3, 123136, Note_off_c, 1, 62, 100
3, 123264, Note_on_c, 1, 50, 100
3, 123392, Note_off_c, 1, 50, 100
3, 124608, Note_on_c, 1, 59, 100
3, 124736, Note_off_c, 1, 59, 100
3, 124800, Note_on_c, 1, 60, 100
3, 124928, Note_off_c, 1, 60, 100
3, 125376, Note_on_c, 1, 61, 100
3, 125504, Note_off_c, 1, 61, 100
3, 125568, Note_on_c, 1, 62, 100
3, 125696, Note_off_c, 1, 62, 100
3, 126144, Note_on_c, 1, 66, 100
3, 126272, Note_off_c, 1, 66, 100
3, 126336, Note_on_c, 1, 67, 100
3, 126464, Note_off_c, 1, 67, 100
3, 127680, Note_on_c, 1, 55, 100
3, 127808, Note_off_c, 1, 55, 100
3, 127872, Note_on_c, 1, 54, 100
3, 128000, Note_off_c, 1, 54, 100
3, 128064, Note_on_c, 1, 66, 100
3, 128192, Note_off_c, 1, 66, 100
3, 128256, Note_on_c, 1, 67, 100
3, 128384, Note_off_c, 1, 67, 100
3, 128448, Note_on_c, 1, 58, 100
3, 128576, Note_off_c, 1, 58, 100
3, 128640, Note_on_c, 1, 60, 100
3, 128768, Note_off_c, 1, 60, 100
3, 128832, Note_on_c, 1, 62, 100
3, 128960, Note_off_c, 1, 62, 100
3, 129024, Note_on_c, 1, 55, 100
3, 129152, Note_off_c, 1, 55, 100
3, 129216, Note_on_c, 1, 50, 100
3, 129344, Note_off_c, 1, 50, 100
3, 129408, Note_on_c, 1, 43, 100
3, 129536, Note_off_c, 1, 43, 100
3, 130752, Note_on_c, 1, 59, 100
3, 130880, Note_off_c, 1, 59, 100
3, 130944, Note_on_c, 1, 60, 100
3, 131072, Note_off_c, 1, 60, 100
3, 131520, Note_on_c, 1, 61, 100
3, 131648, Note_off_c, 1, 61, 100
3, 131712, Note_on_c, 1, 62, 100
3, 131840, Note_off_c, 1, 62, 100
3, 132288, Note_on_c, 1, 66, 100
3, 132416, Note_off_c, 1, 66, 100
3, 132480, Note_on_c, 1, 67, 100
3, 132608, Note_off_c, 1, 67, 100
3, 133824, Note_on_c, 1, 55, 100
3, 133952, Note_off_c, 1, 55, 100
3, 134016, Note_on_c, 1, 54, 100
3, 134144, Note_off_c, 1, 54, 100
3, 134208, Note_on_c, 1, 66, 100
3, 134336, Note_off_c, 1, 66, 100
3, 134400, Note_on_c, 1, 67, 100
3, 134528, Note_off_c, 1, 67, 100
3, 134592, Note_on_c, 1, 58, 100
3, 134720, Note_off_c, 1, 58, 100
3, 134784, Note_on_c, 1, 60, 100
3, 134912, Note_off_c, 1, 60, 100
3, 134976, Note_on_c, 1, 62, 100
3, 135104, Note_off_c, 1, 62, 100
3, 135168, Note_on_c, 1, 55, 100
3, 135296, Note_off_c, 1, 55, 100
3, 135360, Note_on_c, 1, 50, 100
3, 135488, Note_off_c, 1, 50, 100
3, 135552, Note_on_c, 1, 43, 100
3, 135680, Note_off_c, 1, 43, 100
3, 135936, Note_on_c, 1, 55, 100
3, 136000, Note_off_c, 1, 55, 100
3, 136032, Note_on_c, 1, 62, 100
3, 136096, Note_off_c, 1, 62, 100
3, 136128, Note_on_c, 1, 59, 100
3, 136192, Note_off_c, 1, 59, 100
3, 136224, Note_on_c, 1, 62, 100
3, 136288, Note_off_c, 1, 62, 100
3, 136320, Note_on_c, 1, 55, 100
3, 136384, Note_off_c, 1, 55, 100
3, 136416, Note_on_c, 1, 62, 100
3, 136480, Note_off_c, 1, 62, 100
3, 136512, Note_on_c, 1, 59, 100
3, 136576, Note_off_c, 1, 59, 100
3, 136608, Note_on_c, 1, 62, 100
3, 136672, Note_off_c, 1, 62, 100
3, 136704, Note_on_c, 1, 57, 100
3, 136768, Note_off_c, 1, 57, 100
3, 136800, Note_on_c, 1, 62, 100
3, 136864, Note_off_c, 1, 62, 100
3, 136896, Note_on_c, 1, 60, 100
3, 136960, Note_off_c, 1, 60, 100
3, 136992, Note_on_c, 1, 62, 100
3, 137056, Note_off_c, 1, 62, 100
3, 137088, Note_on_c, 1, 57, 100
3, 137152, Note_off_c, 1, 57, 100
3, 137184, Note_on_c, 1, 62, 100
3, 137248, Note_off_c, 1, 62, 100
3, 137280, Note_on_c, 1, 60, 100
3, 137344, Note_off_c, 1, 60, 100
3, 137376, Note_on_c, 1, 62, 100
3, 137440, Note_off_c, 1, 62, 100
3, 137472, Note_on_c, 1, 54, 100
3, 137536, Note_off_c, 1, 54, 100
3, 137568, Note_on_c, 1, 62, 100
3, 137632, Note_off_c, 1, 62, 100
3, 137664, Note_on_c, 1, 57, 100
3, 137728, Note_off_c, 1, 57, 100
3, 137760, Note_on_c, 1, 62, 100
3, 137824, Note_off_c, 1, 62, 100
3, 137856, Note_on_c, 1, 54, 100
3, 137920, Note_off_c, 1, 54, 100
3, 137952, Note_on_c, 1, 62, 100
3, 138016, Note_off_c, 1, 62, 100
3, 138048, Note_on_c, 1, 57, 100
3, 138112, Note_off_c, 1, 57, 100
3, 138144, Note_on_c, 1, 62, 100
3, 138208, Note_off_c, 1, 62, 100
3, 138240, Note_on_c, 1, 55, 100
3, 138304, Note_off_c, 1, 55, 100
3, 138336, Note_on_c, 1, 62, 100
3, 138400, Note_off_c, 1, 62, 100
3, 138432, Note_on_c, 1, 59, 100
3, 138496, Note_off_c, 1, 59, 100
3, 138528, Note_on_c, 1, 62, 100
3, 138592, Note_off_c, 1, 62, 100
3, 138624, Note_on_c, 1, 55, 100
3, 138688, Note_off_c, 1, 55, 100
3, 138720, Note_on_c, 1, 62, 100
3, 138784, Note_off_c, 1, 62, 100
3, 138816, Note_on_c, 1, 59, 100
3, 138880, Note_off_c, 1, 59, 100
3, 138912, Note_on_c, 1, 62, 100
3, 138976, Note_off_c, 1, 62, 100
3, 139008, Note_on_c, 1, 55, 100
3, 139072, Note_off_c, 1, 55, 100
3, 139104, Note_on_c, 1, 64, 100
3, 139168, Note_off_c, 1, 64, 100
3, 139200, Note_on_c, 1, 59, 100
3, 139264, Note_off_c, 1, 59, 100
3, 139296, Note_on_c, 1, 64, 100
3, 139360, Note_off_c, 1, 64, 100
3, 139392, Note_on_c, 1, 55, 100
3, 139456, Note_off_c, 1, 55, 100
3, 139488, Note_on_c, 1, 64, 100
3, 139552, Note_off_c, 1, 64, 100
3, 139584, Note_on_c, 1, 59, 100
3, 139648, Note_off_c, 1, 59, 100
3, 139680, Note_on_c, 1, 64, 100
3, 139744, Note_off_c, 1, 64, 100
3, 139776, Note_on_c, 1, 54, 100
3, 139840, Note_off_c, 1, 54, 100
3, 139872, Note_on_c, 1, 62, 100
3, 139936, Note_off_c, 1, 62, 100
3, 139968, Note_on_c, 1, 57, 100
3, 140032, Note_off_c, 1, 57, 100
3, 140064, Note_on_c, 1, 62, 100
3, 140128, Note_off_c, 1, 62, 100
3, 140160, Note_on_c, 1, 54, 100
3, 140224, Note_off_c, 1, 54, 100
3, 140256, Note_on_c, 1, 62, 100
3, 140320, Note_off_c, 1, 62, 100
3, 140352, Note_on_c, 1, 57, 100
3, 140416, Note_off_c, 1, 57, 100
3, 140448, Note_on_c, 1, 62, 100
3, 140512, Note_off_c, 1, 62, 100
3, 140544, Note_on_c, 1, 55, 100
3, 140800, Note_off_c, 1, 55, 100
3, 140928, Note_on_c, 1, 57, 100
3, 141184, Note_off_c, 1, 57, 100
3, 141312, Note_on_c, 1, 50, 100
3, 141376, Note_off_c, 1, 50, 100
3, 141408, Note_on_c, 1, 54, 100
3, 141472, Note_off_c, 1, 54, 100
3, 141504, Note_on_c, 1, 57, 100
3, 141568, Note_off_c, 1, 57, 100
3, 141600, Note_on_c, 1, 62, 100
3, 141664, Note_off_c, 1, 62, 100
3, 141696, Note_on_c, 1, 50, 100
3, 141824, Note_off_c, 1, 50, 100
3, 144768, Note_on_c, 1, 55, 100
3, 144896, Note_off_c, 1, 55, 100
3, 145152, Note_on_c, 1, 55, 100
3, 145152, Note_on_c, 1, 43, 100
3, 145408, Note_off_c, 1, 55, 100
3, 145408, Note_off_c, 1, 43, 100
3, 145728, Note_on_c, 1, 55, 100
3, 145856, Note_off_c, 1, 55, 100
3, 145920, Note_on_c, 1, 54, 100
3, 146176, Note_off_c, 1, 54, 100
3, 146304, Note_on_c, 1, 55, 100
3, 146560, Note_off_c, 1, 55, 100
3, 146688, Note_on_c, 1, 57, 100
3, 146944, Note_off_c, 1, 57, 100
3, 147072, Note_on_c, 1, 45, 100
3, 147328, Note_off_c, 1, 45, 100
3, 147456, Note_on_c, 1, 50, 100
3, 147712, Note_off_c, 1, 50, 100
3, 147840, Note_on_c, 1, 38, 100
3, 147968, Note_off_c, 1, 38, 100
3, 148224, Note_on_c, 1, 56, 100
3, 148288, Note_off_c, 1, 56, 100
3, 148320, Note_on_c, 1, 64, 100
3, 148384, Note_off_c, 1, 64, 100
3, 148416, Note_on_c, 1, 59, 100
3, 148480, Note_off_c, 1, 59, 100
3, 148512, Note_on_c, 1, 64, 100
3, 148576, Note_off_c, 1, 64, 100
3, 148608, Note_on_c, 1, 56, 100
3, 148672, Note_off_c, 1, 56, 100
3, 148704, Note_on_c, 1, 64, 100
3, 148768, Note_off_c, 1, 64, 100
3, 148800, Note_on_c, 1, 59, 100
3, 148864, Note_off_c, 1, 59, 100
3, 148896, Note_on_c, 1, 64, 100
3, 148960, Note_off_c, 1, 64, 100
3, 148992, Note_on_c, 1, 57, 100
3, 149056, Note_off_c, 1, 57, 100
3, 149088, Note_on_c, 1, 64, 100
3, 149152, Note_off_c, 1, 64, 100
3, 149184, Note_on_c, 1, 61, 100
3, 149248, Note_off_c, 1, 61, 100
3, 149280, Note_on_c, 1, 64, 100
3, 149344, Note_off_c, 1, 64, 100
3, 149376, Note_on_c, 1, 57, 100
3, 149440, Note_off_c, 1, 57, 100
3, 149472, Note_on_c, 1, 64, 100
3, 149536, Note_off_c, 1, 64, 100
3, 149568, Note_on_c, 1, 60, 100
3, 149632, Note_off_c, 1, 60, 100
3, 149664, Note_on_c, 1, 64, 100
3, 149728, Note_off_c, 1, 64, 100
3, 149760, Note_on_c, 1, 54, 100
3, 149824, Note_off_c, 1, 54, 100
3, 149856, Note_on_c, 1, 62, 100
3, 149920, Note_off_c, 1, 62, 100
3, 149952, Note_on_c, 1, 57, 100
3, 150016, Note_off_c, 1, 57, 100
3, 150048, Note_on_c, 1, 62, 100
3, 150112, Note_off_c, 1, 62, 100
3, 150144, Note_on_c, 1, 54, 100
3, 150208, Note_off_c, 1, 54, 100
3, 150240, Note_on_c, 1, 62, 100
3, 150304, Note_off_c, 1, 62, 100
3, 150336, Note_on_c, 1, 57, 100
3, 150400, Note_off_c, 1, 57, 100
3, 150432, Note_on_c, 1, 62, 100
3, 150496, Note_off_c, 1, 62, 100
3, 150528, Note_on_c, 1, 55, 100
3, 150592, Note_off_c, 1, 55, 100
3, 150624, Note_on_c, 1, 62, 100
3, 150688, Note_off_c, 1, 62, 100
3, 150720, Note_on_c, 1, 59, 100
3, 150784, Note_off_c, 1, 59, 100
3, 150816, Note_on_c, 1, 62, 100
3, 150880, Note_off_c, 1, 62, 100
3, 150912, Note_on_c, 1, 55, 100
3, 150976, Note_off_c, 1, 55, 100
3, 151008, Note_on_c, 1, 62, 100
3, 151072, Note_off_c, 1, 62, 100
3, 151104, Note_on_c, 1, 59, 100
3, 151168, Note_off_c, 1, 59, 100
3, 151200, Note_on_c, 1, 62, 100
3, 151264, Note_off_c, 1, 62, 100
3, 151296, Note_on_c, 1, 60, 100
3, 151552, Note_off_c, 1, 60, 100
3, 151872, Note_on_c, 1, 60, 100
3, 152000, Note_off_c, 1, 60, 100
3, 152064, Note_on_c, 1, 62, 100
3, 152320, Note_off_c, 1, 62, 100
3, 152640, Note_on_c, 1, 62, 100
3, 152768, Note_off_c, 1, 62, 100
3, 152832, Note_on_c, 1, 64, 100
3, 153088, Note_off_c, 1, 64, 100
3, 153216, Note_on_c, 1, 66, 100
3, 153344, Note_off_c, 1, 66, 100
3, 153408, Note_on_c, 1, 67, 100
3, 153600, Note_on_c, 1, 62, 100
3, 153856, Note_off_c, 1, 62, 100
3, 153920, Note_off_c, 1, 67, 100
3, 153984, Note_on_c, 1, 66, 100
3, 154112, Note_off_c, 1, 66, 100
3, 154368, Note_on_c, 1, 55, 100
3, 154432, Note_off_c, 1, 55, 100
3, 154464, Note_on_c, 1, 62, 100
3, 154528, Note_off_c, 1, 62, 100
3, 154560, Note_on_c, 1, 59, 100
3, 154624, Note_off_c, 1, 59, 100
3, 154656, Note_on_c, 1, 62, 100
3, 154720, Note_off_c, 1, 62, 100
3, 154752, Note_on_c, 1, 55, 100
3, 154816, Note_off_c, 1, 55, 100
3, 154848, Note_on_c, 1, 62, 100
3, 154912, Note_off_c, 1, 62, 100
3, 154944, Note_on_c, 1, 59, 100
3, 155008, Note_off_c, 1, 59, 100
3, 155040, Note_on_c, 1, 62, 100
3, 155104, Note_off_c, 1, 62, 100
3, 155136, Note_on_c, 1, 57, 100
3, 155200, Note_off_c, 1, 57, 100
3, 155232, Note_on_c, 1, 62, 100
3, 155296, Note_off_c, 1, 62, 100
3, 155328, Note_on_c, 1, 60, 100
3, 155392, Note_off_c, 1, 60, 100
3, 155424, Note_on_c, 1, 62, 100
3, 155488, Note_off_c, 1, 62, 100
3, 155520, Note_on_c, 1, 57, 100
3, 155584, Note_off_c, 1, 57, 100
3, 155616, Note_on_c, 1, 62, 100
3, 155680, Note_off_c, 1, 62, 100
3, 155712, Note_on_c, 1, 60, 100
3, 155776, Note_off_c, 1, 60, 100
3, 155808, Note_on_c, 1, 62, 100
3, 155872, Note_off_c, 1, 62, 100
3, 155904, Note_on_c, 1, 54, 100
3, 155968, Note_off_c, 1, 54, 100
3, 156000, Note_on_c, 1, 62, 100
3, 156064, Note_off_c, 1, 62, 100
3, 156096, Note_on_c, 1, 57, 100
3, 156160, Note_off_c, 1, 57, 100
3, 156192, Note_on_c, 1, 62, 100
3, 156256, Note_off_c, 1, 62, 100
3, 156288, Note_on_c, 1, 54, 100
3, 156352, Note_off_c, 1, 54, 100
3, 156384, Note_on_c, 1, 62, 100
3, 156448, Note_off_c, 1, 62, 100
3, 156480, Note_on_c, 1, 57, 100
3, 156544, Note_off_c, 1, 57, 100
3, 156576, Note_on_c, 1, 62, 100
3, 156640, Note_off_c, 1, 62, 100
3, 156672, Note_on_c, 1, 55, 100
3, 156736, Note_off_c, 1, 55, 100
3, 156768, Note_on_c, 1, 62, 100
3, 156832, Note_off_c, 1, 62, 100
3, 156864, Note_on_c, 1, 59, 100
3, 156928, Note_off_c, 1, 59, 100
3, 156960, Note_on_c, 1, 62, 100
3, 157024, Note_off_c, 1, 62, 100
3, 157056, Note_on_c, 1, 55, 100
3, 157120, Note_off_c, 1, 55, 100
3, 157152, Note_on_c, 1, 62, 100
3, 157216, Note_off_c, 1, 62, 100
3, 157248, Note_on_c, 1, 59, 100
3, 157312, Note_off_c, 1, 59, 100
3, 157344, Note_on_c, 1, 62, 100
3, 157408, Note_off_c, 1, 62, 100
3, 157440, Note_on_c, 1, 48, 100
3, 157504, Note_off_c, 1, 48, 100
3, 157536, Note_on_c, 1, 55, 100
3, 157600, Note_off_c, 1, 55, 100
3, 157632, Note_on_c, 1, 52, 100
3, 157696, Note_off_c, 1, 52, 100
3, 157728, Note_on_c, 1, 55, 100
3, 157792, Note_off_c, 1, 55, 100
3, 157824, Note_on_c, 1, 48, 100
3, 157888, Note_off_c, 1, 48, 100
3, 157920, Note_on_c, 1, 55, 100
3, 157984, Note_off_c, 1, 55, 100
3, 158016, Note_on_c, 1, 52, 100
3, 158080, Note_off_c, 1, 52, 100
3, 158112, Note_on_c, 1, 55, 100
3, 158176, Note_off_c, 1, 55, 100
3, 158208, Note_on_c, 1, 47, 100
3, 158464, Note_off_c, 1, 47, 100
3, 158784, Note_on_c, 1, 47, 100
3, 158912, Note_off_c, 1, 47, 100
3, 158976, Note_on_c, 1, 48, 100
3, 159232, Note_off_c, 1, 48, 100
3, 159360, Note_on_c, 1, 50, 100
3, 159616, Note_off_c, 1, 50, 100
3, 159744, Note_on_c, 1, 55, 100
3, 160000, Note_off_c, 1, 55, 100
3, 160128, Note_on_c, 1, 43, 100
3, 160256, Note_off_c, 1, 43, 100
3, 161664, Note_on_c, 1, 57, 100
3, 161792, Note_off_c, 1, 57, 100
3, 163200, Note_on_c, 1, 55, 100
3, 163328, Note_off_c, 1, 55, 100
3, 163392, Note_on_c, 1, 59, 100
3, 163520, Note_off_c, 1, 59, 100
3, 163584, Note_on_c, 1, 60, 100
3, 163840, Note_off_c, 1, 60, 100
3, 164160, Note_on_c, 1, 60, 100
3, 164288, Note_off_c, 1, 60, 100
3, 164352, Note_on_c, 1, 62, 100
3, 164608, Note_off_c, 1, 62, 100
3, 164928, Note_on_c, 1, 62, 100
3, 165056, Note_off_c, 1, 62, 100
3, 165120, Note_on_c, 1, 64, 100
3, 165376, Note_off_c, 1, 64, 100
3, 165504, Note_on_c, 1, 66, 100
3, 165632, Note_off_c, 1, 66, 100
3, 165696, Note_on_c, 1, 67, 100
3, 165888, Note_on_c, 1, 62, 100
3, 166144, Note_off_c, 1, 62, 100
3, 166208, Note_off_c, 1, 67, 100
3, 166272, Note_on_c, 1, 66, 100
3, 166400, Note_off_c, 1, 66, 100
3, 166656, Note_on_c, 1, 55, 100
3, 166720, Note_off_c, 1, 55, 100
3, 166752, Note_on_c, 1, 62, 100
3, 166816, Note_off_c, 1, 62, 100
3, 166848, Note_on_c, 1, 59, 100
3, 166912, Note_off_c, 1, 59, 100
3, 166944, Note_on_c, 1, 62, 100
3, 167008, Note_off_c, 1, 62, 100
3, 167040, Note_on_c, 1, 55, 100
3, 167104, Note_off_c, 1, 55, 100
3, 167136, Note_on_c, 1, 62, 100
3, 167200, Note_off_c, 1, 62, 100
3, 167232, Note_on_c, 1, 59, 100
3, 167296, Note_off_c, 1, 59, 100
3, 167328, Note_on_c, 1, 62, 100
3, 167392, Note_off_c, 1, 62, 100
3, 167424, Note_on_c, 1, 57, 100
3, 167488, Note_off_c, 1, 57, 100
3, 167520, Note_on_c, 1, 62, 100
3, 167584, Note_off_c, 1, 62, 100
3, 167616, Note_on_c, 1, 60, 100
3, 167680, Note_off_c, 1, 60, 100
3, 167712, Note_on_c, 1, 62, 100
3, 167776, Note_off_c, 1, 62, 100
3, 167808, Note_on_c, 1, 57, 100
3, 167872, Note_off_c, 1, 57, 100
3, 167904, Note_on_c, 1, 62, 100
3, 167968, Note_off_c, 1, 62, 100
3, 168000, Note_on_c, 1, 60, 100
3, 168064, Note_off_c, 1, 60, 100
3, 168096, Note_on_c, 1, 62, 100
3, 168160, Note_off_c, 1, 62, 100
3, 168192, Note_on_c, 1, 54, 100
3, 168256, Note_off_c, 1, 54, 100
3, 168288, Note_on_c, 1, 62, 100
3, 168352, Note_off_c, 1, 62, 100
3, 168384, Note_on_c, 1, 57, 100
3, 168448, Note_off_c, 1, 57, 100
3, 168480, Note_on_c, 1, 62, 100
3, 168544, Note_off_c, 1, 62, 100
3, 168576, Note_on_c, 1, 54, 100
3, 168640, Note_off_c, 1, 54, 100
3, 168672, Note_on_c, 1, 62, 100
3, 168736, Note_off_c, 1, 62, 100
3, 168768, Note_on_c, 1, 57, 100
3, 168832, Note_off_c, 1, 57, 100
3, 168864, Note_on_c, 1, 62, 100
3, 168928, Note_off_c, 1, 62, 100
3, 168960, Note_on_c, 1, 55, 100
3, 169024, Note_off_c, 1, 55, 100
3, 169056, Note_on_c, 1, 62, 100
3, 169120, Note_off_c, 1, 62, 100
3, 169152, Note_on_c, 1, 59, 100
3, 169216, Note_off_c, 1, 59, 100
3, 169248, Note_on_c, 1, 62, 100
3, 169312, Note_off_c, 1, 62, 100
3, 169344, Note_on_c, 1, 55, 100
3, 169408, Note_off_c, 1, 55, 100
3, 169440, Note_on_c, 1, 62, 100
3, 169504, Note_off_c, 1, 62, 100
3, 169536, Note_on_c, 1, 59, 100
3, 169600, Note_off_c, 1, 59, 100
3, 169632, Note_on_c, 1, 62, 100
3, 169696, Note_off_c, 1, 62, 100
3, 169728, Note_on_c, 1, 48, 100
3, 169792, Note_off_c, 1, 48, 100
3, 169824, Note_on_c, 1, 55, 100
3, 169888, Note_off_c, 1, 55, 100
3, 169920, Note_on_c, 1, 52, 100
3, 169984, Note_off_c, 1, 52, 100
3, 170016, Note_on_c, 1, 55, 100
3, 170080, Note_off_c, 1, 55, 100
3, 170112, Note_on_c, 1, 48, 100
3, 170176, Note_off_c, 1, 48, 100
3, 170208, Note_on_c, 1, 55, 100
3, 170272, Note_off_c, 1, 55, 100
3, 170304, Note_on_c, 1, 52, 100
3, 170368, Note_off_c, 1, 52, 100
3, 170400, Note_on_c, 1, 55, 100
3, 170464, Note_off_c, 1, 55, 100
3, 170496, Note_on_c, 1, 47, 100
3, 170752, Note_off_c, 1, 47, 100
3, 171072, Note_on_c, 1, 47, 100
3, 171200, Note_off_c, 1, 47, 100
3, 171264, Note_on_c, 1, 48, 100
3, 171520, Note_off_c, 1, 48, 100
3, 171648, Note_on_c, 1, 50, 100
3, 171904, Note_off_c, 1, 50, 100
3, 172032, Note_on_c, 1, 43, 100
3, 172032, Note_on_c, 1, 55, 100
3, 172288, Note_off_c, 1, 43, 100
3, 172288, Note_off_c, 1, 55, 100
3, 172288, End_track
0, 0, End_of_file
