0, 0, Header, 1, 6, 96
1, 0, Start_track
1, 0, Copyright_t, "Copyright  2000 <copyright holder>"
1, 0, Text_t, "Piano Solo\015\012"
1, 0, Text_t, "<composer>\015\012"
1, 0, Sequencer_specific, 16, 68, 87, 77, 90, 86, 82, 83, 78, 32, 54, 46, 48, 46, 57, 46, 48
1, 0, Time_signature, 6, 3, 24, 8
1, 0, Tempo, 400000
1, 0, Key_signature, 1, "major"
1, 69696, End_track
2, 0, Start_track
2, 0, Program_c, 0, 0
2, 0, Control_c, 0, 7, 127
2, 0, Control_c, 0, 10, 64
2, 48, Note_on_c, 0, 79, 77
2, 96, Note_on_c, 0, 79, 0
2, 96, Note_on_c, 0, 67, 77
2, 141, Note_on_c, 0, 67, 0
2, 192, Note_on_c, 0, 79, 77
2, 215, Note_on_c, 0, 79, 0
2, 216, Note_on_c, 0, 81, 77
2, 239, Note_on_c, 0, 81, 0
2, 240, Note_on_c, 0, 79, 77
2, 260, Note_on_c, 0, 79, 0
2, 336, Note_on_c, 0, 79, 77
2, 384, Note_on_c, 0, 79, 0
2, 384, Note_on_c, 0, 67, 77
2, 429, Note_on_c, 0, 67, 0
2, 480, Note_on_c, 0, 79, 77
2, 503, Note_on_c, 0, 79, 0
2, 504, Note_on_c, 0, 81, 77
2, 527, Note_on_c, 0, 81, 0
2, 528, Note_on_c, 0, 79, 77
2, 548, Note_on_c, 0, 79, 0
2, 624, Note_on_c, 0, 79, 77
2, 672, Note_on_c, 0, 79, 0
2, 672, Note_on_c, 0, 67, 77
2, 717, Note_on_c, 0, 67, 0
2, 768, Note_on_c, 0, 78, 77
2, 791, Note_on_c, 0, 78, 0
2, 792, Note_on_c, 0, 79, 77
2, 815, Note_on_c, 0, 79, 0
2, 816, Note_on_c, 0, 83, 77
2, 839, Note_on_c, 0, 83, 0
2, 840, Note_on_c, 0, 79, 77
2, 863, Note_on_c, 0, 79, 0
2, 864, Note_on_c, 0, 76, 77
2, 884, Note_on_c, 0, 76, 0
2, 912, Note_on_c, 0, 80, 77
2, 935, Note_on_c, 0, 80, 0
2, 936, Note_on_c, 0, 81, 77
2, 959, Note_on_c, 0, 81, 0
2, 960, Note_on_c, 0, 84, 77
2, 983, Note_on_c, 0, 84, 0
2, 984, Note_on_c, 0, 81, 77
2, 1007, Note_on_c, 0, 81, 0
2, 1008, Note_on_c, 0, 74, 77
2, 1053, Note_on_c, 0, 74, 0
2, 1056, Note_on_c, 0, 86, 77
2, 1056, Note_on_c, 0, 74, 77
2, 1101, Note_on_c, 0, 86, 0
2, 1101, Note_on_c, 0, 74, 0
2, 1104, Note_on_c, 0, 84, 77
2, 1104, Note_on_c, 0, 72, 77
2, 1149, Note_on_c, 0, 84, 0
2, 1149, Note_on_c, 0, 72, 0
2, 1152, Note_on_c, 0, 84, 77
2, 1152, Note_on_c, 0, 72, 77
2, 1197, Note_on_c, 0, 84, 0
2, 1197, Note_on_c, 0, 72, 0
2, 1200, Note_on_c, 0, 83, 77
2, 1200, Note_on_c, 0, 71, 77
2, 1245, Note_on_c, 0, 83, 0
2, 1245, Note_on_c, 0, 71, 0
2, 1248, Note_on_c, 0, 81, 77
2, 1248, Note_on_c, 0, 69, 77
2, 1293, Note_on_c, 0, 81, 0
2, 1293, Note_on_c, 0, 69, 0
2, 1296, Note_on_c, 0, 67, 77
2, 1316, Note_on_c, 0, 67, 0
2, 1344, Note_on_c, 0, 78, 77
2, 1367, Note_on_c, 0, 78, 0
2, 1368, Note_on_c, 0, 79, 77
2, 1391, Note_on_c, 0, 79, 0
2, 1392, Note_on_c, 0, 83, 77
2, 1415, Note_on_c, 0, 83, 0
2, 1416, Note_on_c, 0, 79, 77
2, 1439, Note_on_c, 0, 79, 0
2, 1440, Note_on_c, 0, 76, 77
2, 1460, Note_on_c, 0, 76, 0
2, 1488, Note_on_c, 0, 80, 77
2, 1511, Note_on_c, 0, 80, 0
2, 1512, Note_on_c, 0, 81, 77
2, 1535, Note_on_c, 0, 81, 0
2, 1536, Note_on_c, 0, 84, 77
2, 1559, Note_on_c, 0, 84, 0
2, 1560, Note_on_c, 0, 81, 77
2, 1583, Note_on_c, 0, 81, 0
2, 1584, Note_on_c, 0, 74, 77
2, 1629, Note_on_c, 0, 74, 0
2, 1632, Note_on_c, 0, 86, 77
2, 1632, Note_on_c, 0, 74, 77
2, 1677, Note_on_c, 0, 86, 0
2, 1677, Note_on_c, 0, 74, 0
2, 1680, Note_on_c, 0, 84, 77
2, 1680, Note_on_c, 0, 72, 77
2, 1725, Note_on_c, 0, 84, 0
2, 1725, Note_on_c, 0, 72, 0
2, 1728, Note_on_c, 0, 83, 77
2, 1728, Note_on_c, 0, 71, 77
2, 1861, Note_on_c, 0, 83, 0
2, 1861, Note_on_c, 0, 71, 0
2, 1920, Note_on_c, 0, 78, 77
2, 1943, Note_on_c, 0, 78, 0
2, 1944, Note_on_c, 0, 79, 77
2, 1967, Note_on_c, 0, 79, 0
2, 1968, Note_on_c, 0, 83, 77
2, 1991, Note_on_c, 0, 83, 0
2, 1992, Note_on_c, 0, 79, 77
2, 2015, Note_on_c, 0, 79, 0
2, 2016, Note_on_c, 0, 76, 77
2, 2036, Note_on_c, 0, 76, 0
2, 2064, Note_on_c, 0, 80, 77
2, 2087, Note_on_c, 0, 80, 0
2, 2088, Note_on_c, 0, 81, 77
2, 2111, Note_on_c, 0, 81, 0
2, 2112, Note_on_c, 0, 84, 77
2, 2135, Note_on_c, 0, 84, 0
2, 2136, Note_on_c, 0, 81, 77
2, 2159, Note_on_c, 0, 81, 0
2, 2160, Note_on_c, 0, 74, 77
2, 2205, Note_on_c, 0, 74, 0
2, 2208, Note_on_c, 0, 86, 77
2, 2253, Note_on_c, 0, 86, 0
2, 2256, Note_on_c, 0, 84, 77
2, 2256, Note_on_c, 0, 81, 77
2, 2301, Note_on_c, 0, 84, 0
2, 2301, Note_on_c, 0, 81, 0
2, 2304, Note_on_c, 0, 84, 77
2, 2304, Note_on_c, 0, 81, 77
2, 2349, Note_on_c, 0, 84, 0
2, 2349, Note_on_c, 0, 81, 0
2, 2352, Note_on_c, 0, 83, 77
2, 2352, Note_on_c, 0, 79, 77
2, 2397, Note_on_c, 0, 83, 0
2, 2397, Note_on_c, 0, 79, 0
2, 2400, Note_on_c, 0, 81, 77
2, 2400, Note_on_c, 0, 78, 77
2, 2445, Note_on_c, 0, 81, 0
2, 2445, Note_on_c, 0, 78, 0
2, 2448, Note_on_c, 0, 74, 77
2, 2493, Note_on_c, 0, 74, 0
2, 2496, Note_on_c, 0, 84, 77
2, 2541, Note_on_c, 0, 84, 0
2, 2544, Note_on_c, 0, 83, 77
2, 2589, Note_on_c, 0, 83, 0
2, 2592, Note_on_c, 0, 83, 77
2, 2637, Note_on_c, 0, 83, 0
2, 2640, Note_on_c, 0, 81, 77
2, 2685, Note_on_c, 0, 81, 0
2, 2688, Note_on_c, 0, 79, 77
2, 2733, Note_on_c, 0, 79, 0
2, 2736, Note_on_c, 0, 74, 77
2, 2781, Note_on_c, 0, 74, 0
2, 2784, Note_on_c, 0, 86, 77
2, 2829, Note_on_c, 0, 86, 0
2, 2832, Note_on_c, 0, 84, 77
2, 2832, Note_on_c, 0, 81, 77
2, 2877, Note_on_c, 0, 84, 0
2, 2877, Note_on_c, 0, 81, 0
2, 2880, Note_on_c, 0, 84, 77
2, 2880, Note_on_c, 0, 81, 77
2, 2925, Note_on_c, 0, 84, 0
2, 2925, Note_on_c, 0, 81, 0
2, 2928, Note_on_c, 0, 83, 77
2, 2928, Note_on_c, 0, 79, 77
2, 2973, Note_on_c, 0, 83, 0
2, 2973, Note_on_c, 0, 79, 0
2, 2976, Note_on_c, 0, 81, 77
2, 2976, Note_on_c, 0, 78, 77
2, 3021, Note_on_c, 0, 81, 0
2, 3021, Note_on_c, 0, 78, 0
2, 3024, Note_on_c, 0, 74, 77
2, 3069, Note_on_c, 0, 74, 0
2, 3072, Note_on_c, 0, 84, 77
2, 3117, Note_on_c, 0, 84, 0
2, 3120, Note_on_c, 0, 83, 77
2, 3165, Note_on_c, 0, 83, 0
2, 3168, Note_on_c, 0, 83, 77
2, 3213, Note_on_c, 0, 83, 0
2, 3216, Note_on_c, 0, 81, 77
2, 3261, Note_on_c, 0, 81, 0
2, 3264, Note_on_c, 0, 79, 77
2, 3309, Note_on_c, 0, 79, 0
2, 3312, Note_on_c, 0, 78, 77
2, 3335, Note_on_c, 0, 78, 0
2, 3336, Note_on_c, 0, 74, 77
2, 3359, Note_on_c, 0, 74, 0
2, 3360, Note_on_c, 0, 78, 77
2, 3383, Note_on_c, 0, 78, 0
2, 3384, Note_on_c, 0, 74, 77
2, 3407, Note_on_c, 0, 74, 0
2, 3408, Note_on_c, 0, 79, 77
2, 3453, Note_on_c, 0, 79, 0
2, 3456, Note_on_c, 0, 84, 77
2, 3501, Note_on_c, 0, 84, 0
2, 3504, Note_on_c, 0, 84, 77
2, 3549, Note_on_c, 0, 84, 0
2, 3552, Note_on_c, 0, 83, 77
2, 3597, Note_on_c, 0, 83, 0
2, 3744, Note_on_c, 0, 84, 77
2, 3789, Note_on_c, 0, 84, 0
2, 3792, Note_on_c, 0, 84, 77
2, 3837, Note_on_c, 0, 84, 0
2, 3840, Note_on_c, 0, 83, 77
2, 3885, Note_on_c, 0, 83, 0
2, 4032, Note_on_c, 0, 84, 77
2, 4077, Note_on_c, 0, 84, 0
2, 4080, Note_on_c, 0, 84, 77
2, 4125, Note_on_c, 0, 84, 0
2, 4128, Note_on_c, 0, 83, 77
2, 4173, Note_on_c, 0, 83, 0
2, 4176, Note_on_c, 0, 84, 77
2, 4221, Note_on_c, 0, 84, 0
2, 4224, Note_on_c, 0, 84, 77
2, 4269, Note_on_c, 0, 84, 0
2, 4272, Note_on_c, 0, 83, 77
2, 4317, Note_on_c, 0, 83, 0
2, 4320, Note_on_c, 0, 81, 77
2, 4365, Note_on_c, 0, 81, 0
2, 4368, Note_on_c, 0, 86, 77
2, 4413, Note_on_c, 0, 86, 0
2, 4416, Note_on_c, 0, 86, 77
2, 4461, Note_on_c, 0, 86, 0
2, 4464, Note_on_c, 0, 86, 77
2, 4553, Note_on_c, 0, 86, 0
2, 4608, Note_on_c, 0, 81, 77
2, 4608, Note_on_c, 0, 78, 77
2, 4647, Note_on_c, 0, 81, 0
2, 4647, Note_on_c, 0, 78, 0
2, 4752, Note_on_c, 0, 86, 77
2, 4752, Note_on_c, 0, 78, 77
2, 4791, Note_on_c, 0, 86, 0
2, 4791, Note_on_c, 0, 78, 0
2, 4896, Note_on_c, 0, 83, 77
2, 4896, Note_on_c, 0, 79, 77
2, 4935, Note_on_c, 0, 83, 0
2, 4935, Note_on_c, 0, 79, 0
2, 5040, Note_on_c, 0, 79, 77
2, 5040, Note_on_c, 0, 73, 77
2, 5079, Note_on_c, 0, 79, 0
2, 5079, Note_on_c, 0, 73, 0
2, 5184, Note_on_c, 0, 81, 77
2, 5184, Note_on_c, 0, 78, 77
2, 5223, Note_on_c, 0, 81, 0
2, 5223, Note_on_c, 0, 78, 0
2, 5328, Note_on_c, 0, 86, 77
2, 5328, Note_on_c, 0, 78, 77
2, 5367, Note_on_c, 0, 86, 0
2, 5367, Note_on_c, 0, 78, 0
2, 5472, Note_on_c, 0, 83, 77
2, 5472, Note_on_c, 0, 79, 77
2, 5511, Note_on_c, 0, 83, 0
2, 5511, Note_on_c, 0, 79, 0
2, 5616, Note_on_c, 0, 79, 77
2, 5616, Note_on_c, 0, 73, 77
2, 5655, Note_on_c, 0, 79, 0
2, 5655, Note_on_c, 0, 73, 0
2, 5760, Note_on_c, 0, 78, 77
2, 5760, Note_on_c, 0, 74, 77
2, 5799, Note_on_c, 0, 78, 0
2, 5799, Note_on_c, 0, 74, 0
2, 5904, Note_on_c, 0, 86, 77
2, 5904, Note_on_c, 0, 78, 77
2, 5943, Note_on_c, 0, 86, 0
2, 5943, Note_on_c, 0, 78, 0
2, 6048, Note_on_c, 0, 76, 77
2, 6048, Note_on_c, 0, 74, 77
2, 6087, Note_on_c, 0, 76, 0
2, 6087, Note_on_c, 0, 74, 0
2, 6192, Note_on_c, 0, 83, 77
2, 6192, Note_on_c, 0, 74, 77
2, 6231, Note_on_c, 0, 83, 0
2, 6231, Note_on_c, 0, 74, 0
2, 6336, Note_on_c, 0, 73, 77
2, 6359, Note_on_c, 0, 73, 0
2, 6360, Note_on_c, 0, 69, 77
2, 6383, Note_on_c, 0, 69, 0
2, 6384, Note_on_c, 0, 74, 77
2, 6407, Note_on_c, 0, 74, 0
2, 6408, Note_on_c, 0, 69, 77
2, 6431, Note_on_c, 0, 69, 0
2, 6432, Note_on_c, 0, 76, 77
2, 6455, Note_on_c, 0, 76, 0
2, 6456, Note_on_c, 0, 69, 77
2, 6479, Note_on_c, 0, 69, 0
2, 6480, Note_on_c, 0, 78, 77
2, 6503, Note_on_c, 0, 78, 0
2, 6504, Note_on_c, 0, 69, 77
2, 6527, Note_on_c, 0, 69, 0
2, 6528, Note_on_c, 0, 76, 77
2, 6551, Note_on_c, 0, 76, 0
2, 6552, Note_on_c, 0, 69, 77
2, 6575, Note_on_c, 0, 69, 0
2, 6576, Note_on_c, 0, 81, 77
2, 6599, Note_on_c, 0, 81, 0
2, 6600, Note_on_c, 0, 69, 77
2, 6623, Note_on_c, 0, 69, 0
2, 6624, Note_on_c, 0, 73, 77
2, 6647, Note_on_c, 0, 73, 0
2, 6648, Note_on_c, 0, 69, 77
2, 6671, Note_on_c, 0, 69, 0
2, 6672, Note_on_c, 0, 74, 77
2, 6695, Note_on_c, 0, 74, 0
2, 6696, Note_on_c, 0, 69, 77
2, 6719, Note_on_c, 0, 69, 0
2, 6720, Note_on_c, 0, 76, 77
2, 6743, Note_on_c, 0, 76, 0
2, 6744, Note_on_c, 0, 69, 77
2, 6767, Note_on_c, 0, 69, 0
2, 6768, Note_on_c, 0, 78, 77
2, 6791, Note_on_c, 0, 78, 0
2, 6792, Note_on_c, 0, 69, 77
2, 6815, Note_on_c, 0, 69, 0
2, 6816, Note_on_c, 0, 76, 77
2, 6839, Note_on_c, 0, 76, 0
2, 6840, Note_on_c, 0, 69, 77
2, 6863, Note_on_c, 0, 69, 0
2, 6864, Note_on_c, 0, 81, 77
2, 6887, Note_on_c, 0, 81, 0
2, 6888, Note_on_c, 0, 69, 77
2, 6911, Note_on_c, 0, 69, 0
2, 6912, Note_on_c, 0, 73, 77
2, 6935, Note_on_c, 0, 73, 0
2, 6936, Note_on_c, 0, 69, 77
2, 6959, Note_on_c, 0, 69, 0
2, 6960, Note_on_c, 0, 74, 77
2, 6983, Note_on_c, 0, 74, 0
2, 6984, Note_on_c, 0, 69, 77
2, 7007, Note_on_c, 0, 69, 0
2, 7008, Note_on_c, 0, 76, 77
2, 7031, Note_on_c, 0, 76, 0
2, 7032, Note_on_c, 0, 69, 77
2, 7055, Note_on_c, 0, 69, 0
2, 7056, Note_on_c, 0, 78, 77
2, 7079, Note_on_c, 0, 78, 0
2, 7080, Note_on_c, 0, 69, 77
2, 7103, Note_on_c, 0, 69, 0
2, 7104, Note_on_c, 0, 79, 77
2, 7127, Note_on_c, 0, 79, 0
2, 7128, Note_on_c, 0, 69, 77
2, 7151, Note_on_c, 0, 69, 0
2, 7152, Note_on_c, 0, 81, 77
2, 7175, Note_on_c, 0, 81, 0
2, 7176, Note_on_c, 0, 69, 77
2, 7199, Note_on_c, 0, 69, 0
2, 7200, Note_on_c, 0, 83, 77
2, 7223, Note_on_c, 0, 83, 0
2, 7224, Note_on_c, 0, 79, 77
2, 7247, Note_on_c, 0, 79, 0
2, 7248, Note_on_c, 0, 78, 77
2, 7271, Note_on_c, 0, 78, 0
2, 7272, Note_on_c, 0, 76, 77
2, 7295, Note_on_c, 0, 76, 0
2, 7296, Note_on_c, 0, 75, 77
2, 7319, Note_on_c, 0, 75, 0
2, 7320, Note_on_c, 0, 76, 77
2, 7343, Note_on_c, 0, 76, 0
2, 7344, Note_on_c, 0, 81, 77
2, 7367, Note_on_c, 0, 81, 0
2, 7368, Note_on_c, 0, 78, 77
2, 7391, Note_on_c, 0, 78, 0
2, 7392, Note_on_c, 0, 76, 77
2, 7415, Note_on_c, 0, 76, 0
2, 7416, Note_on_c, 0, 74, 77
2, 7439, Note_on_c, 0, 74, 0
2, 7440, Note_on_c, 0, 73, 77
2, 7463, Note_on_c, 0, 73, 0
2, 7464, Note_on_c, 0, 74, 77
2, 7487, Note_on_c, 0, 74, 0
2, 7488, Note_on_c, 0, 86, 77
2, 7511, Note_on_c, 0, 86, 0
2, 7512, Note_on_c, 0, 88, 77
2, 7535, Note_on_c, 0, 88, 0
2, 7536, Note_on_c, 0, 86, 77
2, 7559, Note_on_c, 0, 86, 0
2, 7560, Note_on_c, 0, 85, 77
2, 7583, Note_on_c, 0, 85, 0
2, 7584, Note_on_c, 0, 83, 77
2, 7607, Note_on_c, 0, 83, 0
2, 7608, Note_on_c, 0, 81, 77
2, 7631, Note_on_c, 0, 81, 0
2, 7632, Note_on_c, 0, 80, 77
2, 7655, Note_on_c, 0, 80, 0
2, 7656, Note_on_c, 0, 78, 77
2, 7679, Note_on_c, 0, 78, 0
2, 7680, Note_on_c, 0, 76, 77
2, 7703, Note_on_c, 0, 76, 0
2, 7704, Note_on_c, 0, 74, 77
2, 7727, Note_on_c, 0, 74, 0
2, 7728, Note_on_c, 0, 73, 77
2, 7751, Note_on_c, 0, 73, 0
2, 7752, Note_on_c, 0, 71, 77
2, 7775, Note_on_c, 0, 71, 0
2, 7776, Note_on_c, 0, 79, 77
2, 7799, Note_on_c, 0, 79, 0
2, 7800, Note_on_c, 0, 81, 77
2, 7823, Note_on_c, 0, 81, 0
2, 7824, Note_on_c, 0, 79, 77
2, 7847, Note_on_c, 0, 79, 0
2, 7848, Note_on_c, 0, 78, 77
2, 7871, Note_on_c, 0, 78, 0
2, 7872, Note_on_c, 0, 76, 77
2, 7895, Note_on_c, 0, 76, 0
2, 7896, Note_on_c, 0, 74, 77
2, 7919, Note_on_c, 0, 74, 0
2, 7920, Note_on_c, 0, 73, 77
2, 7943, Note_on_c, 0, 73, 0
2, 7944, Note_on_c, 0, 71, 77
2, 7967, Note_on_c, 0, 71, 0
2, 7968, Note_on_c, 0, 69, 77
2, 7991, Note_on_c, 0, 69, 0
2, 7992, Note_on_c, 0, 67, 77
2, 8015, Note_on_c, 0, 67, 0
2, 8016, Note_on_c, 0, 66, 77
2, 8039, Note_on_c, 0, 66, 0
2, 8040, Note_on_c, 0, 64, 77
2, 8063, Note_on_c, 0, 64, 0
2, 8064, Note_on_c, 0, 66, 77
2, 8087, Note_on_c, 0, 66, 0
2, 8088, Note_on_c, 0, 62, 77
2, 8111, Note_on_c, 0, 62, 0
2, 8112, Note_on_c, 0, 67, 77
2, 8135, Note_on_c, 0, 67, 0
2, 8136, Note_on_c, 0, 62, 77
2, 8159, Note_on_c, 0, 62, 0
2, 8160, Note_on_c, 0, 69, 77
2, 8183, Note_on_c, 0, 69, 0
2, 8184, Note_on_c, 0, 62, 77
2, 8207, Note_on_c, 0, 62, 0
2, 8208, Note_on_c, 0, 71, 77
2, 8231, Note_on_c, 0, 71, 0
2, 8232, Note_on_c, 0, 62, 77
2, 8255, Note_on_c, 0, 62, 0
2, 8256, Note_on_c, 0, 73, 77
2, 8279, Note_on_c, 0, 73, 0
2, 8280, Note_on_c, 0, 62, 77
2, 8303, Note_on_c, 0, 62, 0
2, 8304, Note_on_c, 0, 74, 77
2, 8349, Note_on_c, 0, 74, 0
2, 8352, Note_on_c, 0, 66, 77
2, 8352, Note_on_c, 0, 62, 77
2, 8541, Note_on_c, 0, 66, 0
2, 8541, Note_on_c, 0, 62, 0
2, 8544, Note_on_c, 0, 67, 77
2, 8544, Note_on_c, 0, 64, 77
2, 8589, Note_on_c, 0, 67, 0
2, 8589, Note_on_c, 0, 64, 0
2, 8592, Note_on_c, 0, 64, 77
2, 8592, Note_on_c, 0, 61, 77
2, 8637, Note_on_c, 0, 64, 0
2, 8637, Note_on_c, 0, 61, 0
2, 8640, Note_on_c, 0, 62, 77
2, 8729, Note_on_c, 0, 62, 0
2, 8736, Note_on_c, 0, 74, 77
2, 8781, Note_on_c, 0, 74, 0
2, 8784, Note_on_c, 0, 64, 77
2, 8829, Note_on_c, 0, 64, 0
2, 8832, Note_on_c, 0, 67, 77
2, 8877, Note_on_c, 0, 67, 0
2, 8880, Note_on_c, 0, 66, 77
2, 8925, Note_on_c, 0, 66, 0
2, 8928, Note_on_c, 0, 69, 77
2, 8973, Note_on_c, 0, 69, 0
2, 8976, Note_on_c, 0, 67, 77
2, 9021, Note_on_c, 0, 67, 0
2, 9024, Note_on_c, 0, 66, 77
2, 9069, Note_on_c, 0, 66, 0
2, 9072, Note_on_c, 0, 64, 77
2, 9117, Note_on_c, 0, 64, 0
2, 9120, Note_on_c, 0, 71, 77
2, 9165, Note_on_c, 0, 71, 0
2, 9168, Note_on_c, 0, 66, 77
2, 9213, Note_on_c, 0, 66, 0
2, 9216, Note_on_c, 0, 69, 77
2, 9261, Note_on_c, 0, 69, 0
2, 9264, Note_on_c, 0, 67, 77
2, 9309, Note_on_c, 0, 67, 0
2, 9312, Note_on_c, 0, 66, 77
2, 9357, Note_on_c, 0, 66, 0
2, 9360, Note_on_c, 0, 64, 77
2, 9405, Note_on_c, 0, 64, 0
2, 9408, Note_on_c, 0, 71, 77
2, 9453, Note_on_c, 0, 71, 0
2, 9456, Note_on_c, 0, 66, 77
2, 9501, Note_on_c, 0, 66, 0
2, 9504, Note_on_c, 0, 69, 77
2, 9549, Note_on_c, 0, 69, 0
2, 9552, Note_on_c, 0, 68, 77
2, 9597, Note_on_c, 0, 68, 0
2, 9600, Note_on_c, 0, 71, 77
2, 9693, Note_on_c, 0, 71, 0
2, 9696, Note_on_c, 0, 69, 77
2, 9741, Note_on_c, 0, 69, 0
2, 9744, Note_on_c, 0, 79, 77
2, 9815, Note_on_c, 0, 79, 0
2, 9816, Note_on_c, 0, 78, 77
2, 9839, Note_on_c, 0, 78, 0
2, 9840, Note_on_c, 0, 81, 77
2, 9863, Note_on_c, 0, 81, 0
2, 9864, Note_on_c, 0, 79, 77
2, 9887, Note_on_c, 0, 79, 0
2, 9888, Note_on_c, 0, 78, 77
2, 9911, Note_on_c, 0, 78, 0
2, 9912, Note_on_c, 0, 76, 77
2, 9935, Note_on_c, 0, 76, 0
2, 9936, Note_on_c, 0, 74, 77
2, 9959, Note_on_c, 0, 74, 0
2, 9960, Note_on_c, 0, 73, 77
2, 9983, Note_on_c, 0, 73, 0
2, 9984, Note_on_c, 0, 71, 77
2, 10007, Note_on_c, 0, 71, 0
2, 10008, Note_on_c, 0, 69, 77
2, 10031, Note_on_c, 0, 69, 0
2, 10032, Note_on_c, 0, 67, 77
2, 10055, Note_on_c, 0, 67, 0
2, 10056, Note_on_c, 0, 66, 77
2, 10079, Note_on_c, 0, 66, 0
2, 10080, Note_on_c, 0, 64, 77
2, 10125, Note_on_c, 0, 64, 0
2, 10128, Note_on_c, 0, 86, 77
2, 10128, Note_on_c, 0, 83, 77
2, 10148, Note_on_c, 0, 86, 0
2, 10148, Note_on_c, 0, 83, 0
2, 10176, Note_on_c, 0, 85, 77
2, 10176, Note_on_c, 0, 81, 77
2, 10196, Note_on_c, 0, 85, 0
2, 10196, Note_on_c, 0, 81, 0
2, 10224, Note_on_c, 0, 83, 77
2, 10224, Note_on_c, 0, 79, 77
2, 10244, Note_on_c, 0, 83, 0
2, 10244, Note_on_c, 0, 79, 0
2, 10272, Note_on_c, 0, 81, 77
2, 10272, Note_on_c, 0, 78, 77
2, 10292, Note_on_c, 0, 81, 0
2, 10292, Note_on_c, 0, 78, 0
2, 10320, Note_on_c, 0, 79, 77
2, 10320, Note_on_c, 0, 76, 77
2, 10340, Note_on_c, 0, 79, 0
2, 10340, Note_on_c, 0, 76, 0
2, 10368, Note_on_c, 0, 78, 77
2, 10380, Note_on_c, 0, 78, 0
2, 10380, Note_on_c, 0, 76, 77
2, 10392, Note_on_c, 0, 76, 0
2, 10392, Note_on_c, 0, 78, 77
2, 10413, Note_on_c, 0, 78, 0
2, 10416, Note_on_c, 0, 81, 77
2, 10461, Note_on_c, 0, 81, 0
2, 10464, Note_on_c, 0, 74, 77
2, 10509, Note_on_c, 0, 74, 0
2, 10512, Note_on_c, 0, 76, 77
2, 10524, Note_on_c, 0, 76, 0
2, 10524, Note_on_c, 0, 74, 77
2, 10536, Note_on_c, 0, 74, 0
2, 10536, Note_on_c, 0, 76, 77
2, 10557, Note_on_c, 0, 76, 0
2, 10560, Note_on_c, 0, 79, 77
2, 10605, Note_on_c, 0, 79, 0
2, 10608, Note_on_c, 0, 73, 77
2, 10653, Note_on_c, 0, 73, 0
2, 10656, Note_on_c, 0, 74, 77
2, 10679, Note_on_c, 0, 74, 0
2, 10680, Note_on_c, 0, 76, 77
2, 10703, Note_on_c, 0, 76, 0
2, 10704, Note_on_c, 0, 73, 77
2, 10727, Note_on_c, 0, 73, 0
2, 10728, Note_on_c, 0, 74, 77
2, 10751, Note_on_c, 0, 74, 0
2, 10752, Note_on_c, 0, 71, 77
2, 10772, Note_on_c, 0, 71, 0
2, 10800, Note_on_c, 0, 69, 77
2, 10823, Note_on_c, 0, 69, 0
2, 10824, Note_on_c, 0, 71, 77
2, 10847, Note_on_c, 0, 71, 0
2, 10848, Note_on_c, 0, 67, 77
2, 10871, Note_on_c, 0, 67, 0
2, 10872, Note_on_c, 0, 69, 77
2, 10895, Note_on_c, 0, 69, 0
2, 10896, Note_on_c, 0, 66, 77
2, 10916, Note_on_c, 0, 66, 0
2, 10944, Note_on_c, 0, 64, 77
2, 10989, Note_on_c, 0, 64, 0
2, 10992, Note_on_c, 0, 67, 77
2, 11037, Note_on_c, 0, 67, 0
2, 11040, Note_on_c, 0, 71, 77
2, 11085, Note_on_c, 0, 71, 0
2, 11088, Note_on_c, 0, 76, 77
2, 11133, Note_on_c, 0, 76, 0
2, 11136, Note_on_c, 0, 79, 77
2, 11148, Note_on_c, 0, 79, 0
2, 11148, Note_on_c, 0, 78, 77
2, 11160, Note_on_c, 0, 78, 0
2, 11160, Note_on_c, 0, 79, 77
2, 11181, Note_on_c, 0, 79, 0
2, 11184, Note_on_c, 0, 83, 77
2, 11229, Note_on_c, 0, 83, 0
2, 11232, Note_on_c, 0, 81, 77
2, 11277, Note_on_c, 0, 81, 0
2, 11280, Note_on_c, 0, 78, 77
2, 11325, Note_on_c, 0, 78, 0
2, 11328, Note_on_c, 0, 74, 77
2, 11373, Note_on_c, 0, 74, 0
2, 11376, Note_on_c, 0, 79, 77
2, 11421, Note_on_c, 0, 79, 0
2, 11424, Note_on_c, 0, 76, 77
2, 11469, Note_on_c, 0, 76, 0
2, 11472, Note_on_c, 0, 73, 77
2, 11517, Note_on_c, 0, 73, 0
2, 11520, Note_on_c, 0, 74, 63
2, 11565, Note_on_c, 0, 74, 0
2, 11568, Note_on_c, 0, 69, 63
2, 11613, Note_on_c, 0, 69, 0
2, 11616, Note_on_c, 0, 66, 63
2, 11661, Note_on_c, 0, 66, 0
2, 11664, Note_on_c, 0, 71, 63
2, 11709, Note_on_c, 0, 71, 0
2, 11712, Note_on_c, 0, 67, 63
2, 11757, Note_on_c, 0, 67, 0
2, 11760, Note_on_c, 0, 64, 63
2, 11805, Note_on_c, 0, 64, 0
2, 11808, Note_on_c, 0, 69, 63
2, 11853, Note_on_c, 0, 69, 0
2, 11856, Note_on_c, 0, 66, 63
2, 11901, Note_on_c, 0, 66, 0
2, 11904, Note_on_c, 0, 62, 63
2, 11949, Note_on_c, 0, 62, 0
2, 11952, Note_on_c, 0, 57, 63
2, 11997, Note_on_c, 0, 57, 0
2, 12000, Note_on_c, 0, 59, 63
2, 12045, Note_on_c, 0, 59, 0
2, 12048, Note_on_c, 0, 61, 63
2, 12093, Note_on_c, 0, 61, 0
2, 12432, Note_on_c, 0, 79, 77
2, 12480, Note_on_c, 0, 79, 0
2, 12480, Note_on_c, 0, 67, 77
2, 12525, Note_on_c, 0, 67, 0
2, 12576, Note_on_c, 0, 79, 77
2, 12599, Note_on_c, 0, 79, 0
2, 12600, Note_on_c, 0, 81, 77
2, 12623, Note_on_c, 0, 81, 0
2, 12624, Note_on_c, 0, 79, 77
2, 12644, Note_on_c, 0, 79, 0
2, 12720, Note_on_c, 0, 79, 77
2, 12768, Note_on_c, 0, 79, 0
2, 12768, Note_on_c, 0, 67, 77
2, 12813, Note_on_c, 0, 67, 0
2, 12864, Note_on_c, 0, 79, 77
2, 12887, Note_on_c, 0, 79, 0
2, 12888, Note_on_c, 0, 81, 77
2, 12911, Note_on_c, 0, 81, 0
2, 12912, Note_on_c, 0, 79, 77
2, 12932, Note_on_c, 0, 79, 0
2, 13008, Note_on_c, 0, 79, 77
2, 13056, Note_on_c, 0, 79, 0
2, 13056, Note_on_c, 0, 67, 77
2, 13101, Note_on_c, 0, 67, 0
2, 13152, Note_on_c, 0, 78, 77
2, 13175, Note_on_c, 0, 78, 0
2, 13176, Note_on_c, 0, 79, 77
2, 13199, Note_on_c, 0, 79, 0
2, 13200, Note_on_c, 0, 83, 77
2, 13223, Note_on_c, 0, 83, 0
2, 13224, Note_on_c, 0, 79, 77
2, 13247, Note_on_c, 0, 79, 0
2, 13248, Note_on_c, 0, 76, 77
2, 13268, Note_on_c, 0, 76, 0
2, 13296, Note_on_c, 0, 80, 77
2, 13319, Note_on_c, 0, 80, 0
2, 13320, Note_on_c, 0, 81, 77
2, 13343, Note_on_c, 0, 81, 0
2, 13344, Note_on_c, 0, 84, 77
2, 13367, Note_on_c, 0, 84, 0
2, 13368, Note_on_c, 0, 81, 77
2, 13391, Note_on_c, 0, 81, 0
2, 13392, Note_on_c, 0, 74, 77
2, 13437, Note_on_c, 0, 74, 0
2, 13440, Note_on_c, 0, 86, 77
2, 13440, Note_on_c, 0, 74, 77
2, 13485, Note_on_c, 0, 86, 0
2, 13485, Note_on_c, 0, 74, 0
2, 13488, Note_on_c, 0, 84, 77
2, 13488, Note_on_c, 0, 72, 77
2, 13533, Note_on_c, 0, 84, 0
2, 13533, Note_on_c, 0, 72, 0
2, 13536, Note_on_c, 0, 84, 77
2, 13536, Note_on_c, 0, 72, 77
2, 13581, Note_on_c, 0, 84, 0
2, 13581, Note_on_c, 0, 72, 0
2, 13584, Note_on_c, 0, 83, 77
2, 13584, Note_on_c, 0, 71, 77
2, 13629, Note_on_c, 0, 83, 0
2, 13629, Note_on_c, 0, 71, 0
2, 13632, Note_on_c, 0, 81, 77
2, 13632, Note_on_c, 0, 69, 77
2, 13677, Note_on_c, 0, 81, 0
2, 13677, Note_on_c, 0, 69, 0
2, 13680, Note_on_c, 0, 67, 77
2, 13700, Note_on_c, 0, 67, 0
2, 13728, Note_on_c, 0, 78, 77
2, 13751, Note_on_c, 0, 78, 0
2, 13752, Note_on_c, 0, 79, 77
2, 13775, Note_on_c, 0, 79, 0
2, 13776, Note_on_c, 0, 83, 77
2, 13799, Note_on_c, 0, 83, 0
2, 13800, Note_on_c, 0, 79, 77
2, 13823, Note_on_c, 0, 79, 0
2, 13824, Note_on_c, 0, 76, 77
2, 13844, Note_on_c, 0, 76, 0
2, 13872, Note_on_c, 0, 80, 77
2, 13895, Note_on_c, 0, 80, 0
2, 13896, Note_on_c, 0, 81, 77
2, 13919, Note_on_c, 0, 81, 0
2, 13920, Note_on_c, 0, 84, 77
2, 13943, Note_on_c, 0, 84, 0
2, 13944, Note_on_c, 0, 81, 77
2, 13967, Note_on_c, 0, 81, 0
2, 13968, Note_on_c, 0, 74, 77
2, 14013, Note_on_c, 0, 74, 0
2, 14016, Note_on_c, 0, 86, 77
2, 14016, Note_on_c, 0, 74, 77
2, 14061, Note_on_c, 0, 86, 0
2, 14061, Note_on_c, 0, 74, 0
2, 14064, Note_on_c, 0, 84, 77
2, 14064, Note_on_c, 0, 72, 77
2, 14109, Note_on_c, 0, 84, 0
2, 14109, Note_on_c, 0, 72, 0
2, 14112, Note_on_c, 0, 83, 77
2, 14112, Note_on_c, 0, 71, 77
2, 14245, Note_on_c, 0, 83, 0
2, 14245, Note_on_c, 0, 71, 0
2, 14304, Note_on_c, 0, 78, 77
2, 14327, Note_on_c, 0, 78, 0
2, 14328, Note_on_c, 0, 79, 77
2, 14351, Note_on_c, 0, 79, 0
2, 14352, Note_on_c, 0, 83, 77
2, 14375, Note_on_c, 0, 83, 0
2, 14376, Note_on_c, 0, 79, 77
2, 14399, Note_on_c, 0, 79, 0
2, 14400, Note_on_c, 0, 76, 77
2, 14420, Note_on_c, 0, 76, 0
2, 14448, Note_on_c, 0, 80, 77
2, 14471, Note_on_c, 0, 80, 0
2, 14472, Note_on_c, 0, 81, 77
2, 14495, Note_on_c, 0, 81, 0
2, 14496, Note_on_c, 0, 84, 77
2, 14519, Note_on_c, 0, 84, 0
2, 14520, Note_on_c, 0, 81, 77
2, 14543, Note_on_c, 0, 81, 0
2, 14544, Note_on_c, 0, 74, 77
2, 14589, Note_on_c, 0, 74, 0
2, 14592, Note_on_c, 0, 86, 77
2, 14637, Note_on_c, 0, 86, 0
2, 14640, Note_on_c, 0, 84, 77
2, 14640, Note_on_c, 0, 81, 77
2, 14685, Note_on_c, 0, 84, 0
2, 14685, Note_on_c, 0, 81, 0
2, 14688, Note_on_c, 0, 84, 77
2, 14688, Note_on_c, 0, 81, 77
2, 14733, Note_on_c, 0, 84, 0
2, 14733, Note_on_c, 0, 81, 0
2, 14736, Note_on_c, 0, 83, 77
2, 14736, Note_on_c, 0, 79, 77
2, 14781, Note_on_c, 0, 83, 0
2, 14781, Note_on_c, 0, 79, 0
2, 14784, Note_on_c, 0, 81, 77
2, 14784, Note_on_c, 0, 78, 77
2, 14829, Note_on_c, 0, 81, 0
2, 14829, Note_on_c, 0, 78, 0
2, 14832, Note_on_c, 0, 74, 77
2, 14877, Note_on_c, 0, 74, 0
2, 14880, Note_on_c, 0, 84, 77
2, 14925, Note_on_c, 0, 84, 0
2, 14928, Note_on_c, 0, 83, 77
2, 14973, Note_on_c, 0, 83, 0
2, 14976, Note_on_c, 0, 83, 77
2, 15021, Note_on_c, 0, 83, 0
2, 15024, Note_on_c, 0, 81, 77
2, 15069, Note_on_c, 0, 81, 0
2, 15072, Note_on_c, 0, 79, 77
2, 15117, Note_on_c, 0, 79, 0
2, 15120, Note_on_c, 0, 74, 77
2, 15165, Note_on_c, 0, 74, 0
2, 15168, Note_on_c, 0, 86, 77
2, 15213, Note_on_c, 0, 86, 0
2, 15216, Note_on_c, 0, 84, 77
2, 15216, Note_on_c, 0, 81, 77
2, 15261, Note_on_c, 0, 84, 0
2, 15261, Note_on_c, 0, 81, 0
2, 15264, Note_on_c, 0, 84, 77
2, 15264, Note_on_c, 0, 81, 77
2, 15309, Note_on_c, 0, 84, 0
2, 15309, Note_on_c, 0, 81, 0
2, 15312, Note_on_c, 0, 83, 77
2, 15312, Note_on_c, 0, 79, 77
2, 15357, Note_on_c, 0, 83, 0
2, 15357, Note_on_c, 0, 79, 0
2, 15360, Note_on_c, 0, 81, 77
2, 15360, Note_on_c, 0, 78, 77
2, 15405, Note_on_c, 0, 81, 0
2, 15405, Note_on_c, 0, 78, 0
2, 15408, Note_on_c, 0, 74, 77
2, 15453, Note_on_c, 0, 74, 0
2, 15456, Note_on_c, 0, 84, 77
2, 15501, Note_on_c, 0, 84, 0
2, 15504, Note_on_c, 0, 83, 77
2, 15549, Note_on_c, 0, 83, 0
2, 15552, Note_on_c, 0, 83, 77
2, 15597, Note_on_c, 0, 83, 0
2, 15600, Note_on_c, 0, 81, 77
2, 15645, Note_on_c, 0, 81, 0
2, 15648, Note_on_c, 0, 79, 77
2, 15693, Note_on_c, 0, 79, 0
2, 15696, Note_on_c, 0, 78, 77
2, 15719, Note_on_c, 0, 78, 0
2, 15720, Note_on_c, 0, 74, 77
2, 15743, Note_on_c, 0, 74, 0
2, 15744, Note_on_c, 0, 78, 77
2, 15767, Note_on_c, 0, 78, 0
2, 15768, Note_on_c, 0, 74, 77
2, 15791, Note_on_c, 0, 74, 0
2, 15792, Note_on_c, 0, 79, 77
2, 15837, Note_on_c, 0, 79, 0
2, 15840, Note_on_c, 0, 84, 77
2, 15885, Note_on_c, 0, 84, 0
2, 15888, Note_on_c, 0, 84, 77
2, 15933, Note_on_c, 0, 84, 0
2, 15936, Note_on_c, 0, 83, 77
2, 15981, Note_on_c, 0, 83, 0
2, 16128, Note_on_c, 0, 84, 77
2, 16173, Note_on_c, 0, 84, 0
2, 16176, Note_on_c, 0, 84, 77
2, 16221, Note_on_c, 0, 84, 0
2, 16224, Note_on_c, 0, 83, 77
2, 16269, Note_on_c, 0, 83, 0
2, 16416, Note_on_c, 0, 84, 77
2, 16461, Note_on_c, 0, 84, 0
2, 16464, Note_on_c, 0, 84, 77
2, 16509, Note_on_c, 0, 84, 0
2, 16512, Note_on_c, 0, 83, 77
2, 16557, Note_on_c, 0, 83, 0
2, 16560, Note_on_c, 0, 84, 77
2, 16605, Note_on_c, 0, 84, 0
2, 16608, Note_on_c, 0, 84, 77
2, 16653, Note_on_c, 0, 84, 0
2, 16656, Note_on_c, 0, 83, 77
2, 16701, Note_on_c, 0, 83, 0
2, 16704, Note_on_c, 0, 81, 77
2, 16749, Note_on_c, 0, 81, 0
2, 16752, Note_on_c, 0, 86, 77
2, 16797, Note_on_c, 0, 86, 0
2, 16800, Note_on_c, 0, 86, 77
2, 16845, Note_on_c, 0, 86, 0
2, 16848, Note_on_c, 0, 86, 77
2, 16937, Note_on_c, 0, 86, 0
2, 16992, Note_on_c, 0, 81, 77
2, 16992, Note_on_c, 0, 78, 77
2, 17031, Note_on_c, 0, 81, 0
2, 17031, Note_on_c, 0, 78, 0
2, 17136, Note_on_c, 0, 86, 77
2, 17136, Note_on_c, 0, 78, 77
2, 17175, Note_on_c, 0, 86, 0
2, 17175, Note_on_c, 0, 78, 0
2, 17280, Note_on_c, 0, 83, 77
2, 17280, Note_on_c, 0, 79, 77
2, 17319, Note_on_c, 0, 83, 0
2, 17319, Note_on_c, 0, 79, 0
2, 17424, Note_on_c, 0, 79, 77
2, 17424, Note_on_c, 0, 73, 77
2, 17463, Note_on_c, 0, 79, 0
2, 17463, Note_on_c, 0, 73, 0
2, 17568, Note_on_c, 0, 81, 77
2, 17568, Note_on_c, 0, 78, 77
2, 17607, Note_on_c, 0, 81, 0
2, 17607, Note_on_c, 0, 78, 0
2, 17712, Note_on_c, 0, 86, 77
2, 17712, Note_on_c, 0, 78, 77
2, 17751, Note_on_c, 0, 86, 0
2, 17751, Note_on_c, 0, 78, 0
2, 17856, Note_on_c, 0, 83, 77
2, 17856, Note_on_c, 0, 79, 77
2, 17895, Note_on_c, 0, 83, 0
2, 17895, Note_on_c, 0, 79, 0
2, 18000, Note_on_c, 0, 79, 77
2, 18000, Note_on_c, 0, 73, 77
2, 18039, Note_on_c, 0, 79, 0
2, 18039, Note_on_c, 0, 73, 0
2, 18144, Note_on_c, 0, 78, 77
2, 18144, Note_on_c, 0, 74, 77
2, 18183, Note_on_c, 0, 78, 0
2, 18183, Note_on_c, 0, 74, 0
2, 18288, Note_on_c, 0, 86, 77
2, 18288, Note_on_c, 0, 78, 77
2, 18327, Note_on_c, 0, 86, 0
2, 18327, Note_on_c, 0, 78, 0
2, 18432, Note_on_c, 0, 76, 77
2, 18432, Note_on_c, 0, 74, 77
2, 18471, Note_on_c, 0, 76, 0
2, 18471, Note_on_c, 0, 74, 0
2, 18576, Note_on_c, 0, 83, 77
2, 18576, Note_on_c, 0, 74, 77
2, 18615, Note_on_c, 0, 83, 0
2, 18615, Note_on_c, 0, 74, 0
2, 18720, Note_on_c, 0, 73, 77
2, 18743, Note_on_c, 0, 73, 0
2, 18744, Note_on_c, 0, 69, 77
2, 18767, Note_on_c, 0, 69, 0
2, 18768, Note_on_c, 0, 74, 77
2, 18791, Note_on_c, 0, 74, 0
2, 18792, Note_on_c, 0, 69, 77
2, 18815, Note_on_c, 0, 69, 0
2, 18816, Note_on_c, 0, 76, 77
2, 18839, Note_on_c, 0, 76, 0
2, 18840, Note_on_c, 0, 69, 77
2, 18863, Note_on_c, 0, 69, 0
2, 18864, Note_on_c, 0, 78, 77
2, 18887, Note_on_c, 0, 78, 0
2, 18888, Note_on_c, 0, 69, 77
2, 18911, Note_on_c, 0, 69, 0
2, 18912, Note_on_c, 0, 76, 77
2, 18935, Note_on_c, 0, 76, 0
2, 18936, Note_on_c, 0, 69, 77
2, 18959, Note_on_c, 0, 69, 0
2, 18960, Note_on_c, 0, 81, 77
2, 18983, Note_on_c, 0, 81, 0
2, 18984, Note_on_c, 0, 69, 77
2, 19007, Note_on_c, 0, 69, 0
2, 19008, Note_on_c, 0, 73, 77
2, 19031, Note_on_c, 0, 73, 0
2, 19032, Note_on_c, 0, 69, 77
2, 19055, Note_on_c, 0, 69, 0
2, 19056, Note_on_c, 0, 74, 77
2, 19079, Note_on_c, 0, 74, 0
2, 19080, Note_on_c, 0, 69, 77
2, 19103, Note_on_c, 0, 69, 0
2, 19104, Note_on_c, 0, 76, 77
2, 19127, Note_on_c, 0, 76, 0
2, 19128, Note_on_c, 0, 69, 77
2, 19151, Note_on_c, 0, 69, 0
2, 19152, Note_on_c, 0, 78, 77
2, 19175, Note_on_c, 0, 78, 0
2, 19176, Note_on_c, 0, 69, 77
2, 19199, Note_on_c, 0, 69, 0
2, 19200, Note_on_c, 0, 76, 77
2, 19223, Note_on_c, 0, 76, 0
2, 19224, Note_on_c, 0, 69, 77
2, 19247, Note_on_c, 0, 69, 0
2, 19248, Note_on_c, 0, 81, 77
2, 19271, Note_on_c, 0, 81, 0
2, 19272, Note_on_c, 0, 69, 77
2, 19295, Note_on_c, 0, 69, 0
2, 19296, Note_on_c, 0, 73, 77
2, 19319, Note_on_c, 0, 73, 0
2, 19320, Note_on_c, 0, 69, 77
2, 19343, Note_on_c, 0, 69, 0
2, 19344, Note_on_c, 0, 74, 77
2, 19367, Note_on_c, 0, 74, 0
2, 19368, Note_on_c, 0, 69, 77
2, 19391, Note_on_c, 0, 69, 0
2, 19392, Note_on_c, 0, 76, 77
2, 19415, Note_on_c, 0, 76, 0
2, 19416, Note_on_c, 0, 69, 77
2, 19439, Note_on_c, 0, 69, 0
2, 19440, Note_on_c, 0, 78, 77
2, 19463, Note_on_c, 0, 78, 0
2, 19464, Note_on_c, 0, 69, 77
2, 19487, Note_on_c, 0, 69, 0
2, 19488, Note_on_c, 0, 79, 77
2, 19511, Note_on_c, 0, 79, 0
2, 19512, Note_on_c, 0, 69, 77
2, 19535, Note_on_c, 0, 69, 0
2, 19536, Note_on_c, 0, 81, 77
2, 19559, Note_on_c, 0, 81, 0
2, 19560, Note_on_c, 0, 69, 77
2, 19583, Note_on_c, 0, 69, 0
2, 19584, Note_on_c, 0, 83, 77
2, 19607, Note_on_c, 0, 83, 0
2, 19608, Note_on_c, 0, 79, 77
2, 19631, Note_on_c, 0, 79, 0
2, 19632, Note_on_c, 0, 78, 77
2, 19655, Note_on_c, 0, 78, 0
2, 19656, Note_on_c, 0, 76, 77
2, 19679, Note_on_c, 0, 76, 0
2, 19680, Note_on_c, 0, 75, 77
2, 19703, Note_on_c, 0, 75, 0
2, 19704, Note_on_c, 0, 76, 77
2, 19727, Note_on_c, 0, 76, 0
2, 19728, Note_on_c, 0, 81, 77
2, 19751, Note_on_c, 0, 81, 0
2, 19752, Note_on_c, 0, 78, 77
2, 19775, Note_on_c, 0, 78, 0
2, 19776, Note_on_c, 0, 76, 77
2, 19799, Note_on_c, 0, 76, 0
2, 19800, Note_on_c, 0, 74, 77
2, 19823, Note_on_c, 0, 74, 0
2, 19824, Note_on_c, 0, 73, 77
2, 19847, Note_on_c, 0, 73, 0
2, 19848, Note_on_c, 0, 74, 77
2, 19871, Note_on_c, 0, 74, 0
2, 19872, Note_on_c, 0, 86, 77
2, 19895, Note_on_c, 0, 86, 0
2, 19896, Note_on_c, 0, 88, 77
2, 19919, Note_on_c, 0, 88, 0
2, 19920, Note_on_c, 0, 86, 77
2, 19943, Note_on_c, 0, 86, 0
2, 19944, Note_on_c, 0, 85, 77
2, 19967, Note_on_c, 0, 85, 0
2, 19968, Note_on_c, 0, 83, 77
2, 19991, Note_on_c, 0, 83, 0
2, 19992, Note_on_c, 0, 81, 77
2, 20015, Note_on_c, 0, 81, 0
2, 20016, Note_on_c, 0, 80, 77
2, 20039, Note_on_c, 0, 80, 0
2, 20040, Note_on_c, 0, 78, 77
2, 20063, Note_on_c, 0, 78, 0
2, 20064, Note_on_c, 0, 76, 77
2, 20087, Note_on_c, 0, 76, 0
2, 20088, Note_on_c, 0, 74, 77
2, 20111, Note_on_c, 0, 74, 0
2, 20112, Note_on_c, 0, 73, 77
2, 20135, Note_on_c, 0, 73, 0
2, 20136, Note_on_c, 0, 71, 77
2, 20159, Note_on_c, 0, 71, 0
2, 20160, Note_on_c, 0, 79, 77
2, 20183, Note_on_c, 0, 79, 0
2, 20184, Note_on_c, 0, 81, 77
2, 20207, Note_on_c, 0, 81, 0
2, 20208, Note_on_c, 0, 79, 77
2, 20231, Note_on_c, 0, 79, 0
2, 20232, Note_on_c, 0, 78, 77
2, 20255, Note_on_c, 0, 78, 0
2, 20256, Note_on_c, 0, 76, 77
2, 20279, Note_on_c, 0, 76, 0
2, 20280, Note_on_c, 0, 74, 77
2, 20303, Note_on_c, 0, 74, 0
2, 20304, Note_on_c, 0, 73, 77
2, 20327, Note_on_c, 0, 73, 0
2, 20328, Note_on_c, 0, 71, 77
2, 20351, Note_on_c, 0, 71, 0
2, 20352, Note_on_c, 0, 69, 77
2, 20375, Note_on_c, 0, 69, 0
2, 20376, Note_on_c, 0, 67, 77
2, 20399, Note_on_c, 0, 67, 0
2, 20400, Note_on_c, 0, 66, 77
2, 20423, Note_on_c, 0, 66, 0
2, 20424, Note_on_c, 0, 64, 77
2, 20447, Note_on_c, 0, 64, 0
2, 20448, Note_on_c, 0, 66, 77
2, 20471, Note_on_c, 0, 66, 0
2, 20472, Note_on_c, 0, 62, 77
2, 20495, Note_on_c, 0, 62, 0
2, 20496, Note_on_c, 0, 67, 77
2, 20519, Note_on_c, 0, 67, 0
2, 20520, Note_on_c, 0, 62, 77
2, 20543, Note_on_c, 0, 62, 0
2, 20544, Note_on_c, 0, 69, 77
2, 20567, Note_on_c, 0, 69, 0
2, 20568, Note_on_c, 0, 62, 77
2, 20591, Note_on_c, 0, 62, 0
2, 20592, Note_on_c, 0, 71, 77
2, 20615, Note_on_c, 0, 71, 0
2, 20616, Note_on_c, 0, 62, 77
2, 20639, Note_on_c, 0, 62, 0
2, 20640, Note_on_c, 0, 73, 77
2, 20663, Note_on_c, 0, 73, 0
2, 20664, Note_on_c, 0, 62, 77
2, 20687, Note_on_c, 0, 62, 0
2, 20688, Note_on_c, 0, 74, 77
2, 20733, Note_on_c, 0, 74, 0
2, 20736, Note_on_c, 0, 66, 77
2, 20736, Note_on_c, 0, 62, 77
2, 20925, Note_on_c, 0, 66, 0
2, 20925, Note_on_c, 0, 62, 0
2, 20928, Note_on_c, 0, 67, 77
2, 20928, Note_on_c, 0, 64, 77
2, 20973, Note_on_c, 0, 67, 0
2, 20973, Note_on_c, 0, 64, 0
2, 20976, Note_on_c, 0, 64, 77
2, 20976, Note_on_c, 0, 61, 77
2, 21021, Note_on_c, 0, 64, 0
2, 21021, Note_on_c, 0, 61, 0
2, 21024, Note_on_c, 0, 62, 77
2, 21113, Note_on_c, 0, 62, 0
2, 21120, Note_on_c, 0, 74, 77
2, 21165, Note_on_c, 0, 74, 0
2, 21168, Note_on_c, 0, 64, 77
2, 21213, Note_on_c, 0, 64, 0
2, 21216, Note_on_c, 0, 67, 77
2, 21261, Note_on_c, 0, 67, 0
2, 21264, Note_on_c, 0, 66, 77
2, 21309, Note_on_c, 0, 66, 0
2, 21312, Note_on_c, 0, 69, 77
2, 21357, Note_on_c, 0, 69, 0
2, 21360, Note_on_c, 0, 67, 77
2, 21405, Note_on_c, 0, 67, 0
2, 21408, Note_on_c, 0, 66, 77
2, 21453, Note_on_c, 0, 66, 0
2, 21456, Note_on_c, 0, 64, 77
2, 21501, Note_on_c, 0, 64, 0
2, 21504, Note_on_c, 0, 71, 77
2, 21549, Note_on_c, 0, 71, 0
2, 21552, Note_on_c, 0, 66, 77
2, 21597, Note_on_c, 0, 66, 0
2, 21600, Note_on_c, 0, 69, 77
2, 21645, Note_on_c, 0, 69, 0
2, 21648, Note_on_c, 0, 67, 77
2, 21693, Note_on_c, 0, 67, 0
2, 21696, Note_on_c, 0, 66, 77
2, 21741, Note_on_c, 0, 66, 0
2, 21744, Note_on_c, 0, 64, 77
2, 21789, Note_on_c, 0, 64, 0
2, 21792, Note_on_c, 0, 71, 77
2, 21837, Note_on_c, 0, 71, 0
2, 21840, Note_on_c, 0, 66, 77
2, 21885, Note_on_c, 0, 66, 0
2, 21888, Note_on_c, 0, 69, 77
2, 21933, Note_on_c, 0, 69, 0
2, 21936, Note_on_c, 0, 68, 77
2, 21981, Note_on_c, 0, 68, 0
2, 21984, Note_on_c, 0, 71, 77
2, 22077, Note_on_c, 0, 71, 0
2, 22080, Note_on_c, 0, 69, 77
2, 22125, Note_on_c, 0, 69, 0
2, 22128, Note_on_c, 0, 79, 77
2, 22199, Note_on_c, 0, 79, 0
2, 22200, Note_on_c, 0, 78, 77
2, 22223, Note_on_c, 0, 78, 0
2, 22224, Note_on_c, 0, 81, 77
2, 22247, Note_on_c, 0, 81, 0
2, 22248, Note_on_c, 0, 79, 77
2, 22271, Note_on_c, 0, 79, 0
2, 22272, Note_on_c, 0, 78, 77
2, 22295, Note_on_c, 0, 78, 0
2, 22296, Note_on_c, 0, 76, 77
2, 22319, Note_on_c, 0, 76, 0
2, 22320, Note_on_c, 0, 74, 77
2, 22343, Note_on_c, 0, 74, 0
2, 22344, Note_on_c, 0, 73, 77
2, 22367, Note_on_c, 0, 73, 0
2, 22368, Note_on_c, 0, 71, 77
2, 22391, Note_on_c, 0, 71, 0
2, 22392, Note_on_c, 0, 69, 77
2, 22415, Note_on_c, 0, 69, 0
2, 22416, Note_on_c, 0, 67, 77
2, 22439, Note_on_c, 0, 67, 0
2, 22440, Note_on_c, 0, 66, 77
2, 22463, Note_on_c, 0, 66, 0
2, 22464, Note_on_c, 0, 64, 77
2, 22509, Note_on_c, 0, 64, 0
2, 22512, Note_on_c, 0, 86, 77
2, 22512, Note_on_c, 0, 83, 77
2, 22532, Note_on_c, 0, 86, 0
2, 22532, Note_on_c, 0, 83, 0
2, 22560, Note_on_c, 0, 85, 77
2, 22560, Note_on_c, 0, 81, 77
2, 22580, Note_on_c, 0, 85, 0
2, 22580, Note_on_c, 0, 81, 0
2, 22608, Note_on_c, 0, 83, 77
2, 22608, Note_on_c, 0, 79, 77
2, 22628, Note_on_c, 0, 83, 0
2, 22628, Note_on_c, 0, 79, 0
2, 22656, Note_on_c, 0, 81, 77
2, 22656, Note_on_c, 0, 78, 77
2, 22676, Note_on_c, 0, 81, 0
2, 22676, Note_on_c, 0, 78, 0
2, 22704, Note_on_c, 0, 79, 77
2, 22704, Note_on_c, 0, 76, 77
2, 22724, Note_on_c, 0, 79, 0
2, 22724, Note_on_c, 0, 76, 0
2, 22752, Note_on_c, 0, 78, 77
2, 22764, Note_on_c, 0, 78, 0
2, 22764, Note_on_c, 0, 76, 77
2, 22776, Note_on_c, 0, 76, 0
2, 22776, Note_on_c, 0, 78, 77
2, 22797, Note_on_c, 0, 78, 0
2, 22800, Note_on_c, 0, 81, 77
2, 22845, Note_on_c, 0, 81, 0
2, 22848, Note_on_c, 0, 74, 77
2, 22893, Note_on_c, 0, 74, 0
2, 22896, Note_on_c, 0, 76, 77
2, 22908, Note_on_c, 0, 76, 0
2, 22908, Note_on_c, 0, 74, 77
2, 22920, Note_on_c, 0, 74, 0
2, 22920, Note_on_c, 0, 76, 77
2, 22941, Note_on_c, 0, 76, 0
2, 22944, Note_on_c, 0, 79, 77
2, 22989, Note_on_c, 0, 79, 0
2, 22992, Note_on_c, 0, 73, 77
2, 23037, Note_on_c, 0, 73, 0
2, 23040, Note_on_c, 0, 74, 77
2, 23063, Note_on_c, 0, 74, 0
2, 23064, Note_on_c, 0, 76, 77
2, 23087, Note_on_c, 0, 76, 0
2, 23088, Note_on_c, 0, 73, 77
2, 23111, Note_on_c, 0, 73, 0
2, 23112, Note_on_c, 0, 74, 77
2, 23135, Note_on_c, 0, 74, 0
2, 23136, Note_on_c, 0, 71, 77
2, 23156, Note_on_c, 0, 71, 0
2, 23184, Note_on_c, 0, 69, 77
2, 23207, Note_on_c, 0, 69, 0
2, 23208, Note_on_c, 0, 71, 77
2, 23231, Note_on_c, 0, 71, 0
2, 23232, Note_on_c, 0, 67, 77
2, 23255, Note_on_c, 0, 67, 0
2, 23256, Note_on_c, 0, 69, 77
2, 23279, Note_on_c, 0, 69, 0
2, 23280, Note_on_c, 0, 66, 77
2, 23300, Note_on_c, 0, 66, 0
2, 23328, Note_on_c, 0, 64, 77
2, 23373, Note_on_c, 0, 64, 0
2, 23376, Note_on_c, 0, 67, 77
2, 23421, Note_on_c, 0, 67, 0
2, 23424, Note_on_c, 0, 71, 77
2, 23469, Note_on_c, 0, 71, 0
2, 23472, Note_on_c, 0, 76, 77
2, 23517, Note_on_c, 0, 76, 0
2, 23520, Note_on_c, 0, 79, 77
2, 23532, Note_on_c, 0, 79, 0
2, 23532, Note_on_c, 0, 78, 77
2, 23544, Note_on_c, 0, 78, 0
2, 23544, Note_on_c, 0, 79, 77
2, 23565, Note_on_c, 0, 79, 0
2, 23568, Note_on_c, 0, 83, 77
2, 23613, Note_on_c, 0, 83, 0
2, 23616, Note_on_c, 0, 81, 77
2, 23661, Note_on_c, 0, 81, 0
2, 23664, Note_on_c, 0, 78, 77
2, 23709, Note_on_c, 0, 78, 0
2, 23712, Note_on_c, 0, 74, 77
2, 23757, Note_on_c, 0, 74, 0
2, 23760, Note_on_c, 0, 79, 77
2, 23805, Note_on_c, 0, 79, 0
2, 23808, Note_on_c, 0, 76, 77
2, 23853, Note_on_c, 0, 76, 0
2, 23856, Note_on_c, 0, 73, 77
2, 23901, Note_on_c, 0, 73, 0
2, 23904, Note_on_c, 0, 74, 63
2, 23949, Note_on_c, 0, 74, 0
2, 23952, Note_on_c, 0, 69, 63
2, 23997, Note_on_c, 0, 69, 0
2, 24000, Note_on_c, 0, 66, 63
2, 24045, Note_on_c, 0, 66, 0
2, 24048, Note_on_c, 0, 71, 63
2, 24093, Note_on_c, 0, 71, 0
2, 24096, Note_on_c, 0, 67, 63
2, 24141, Note_on_c, 0, 67, 0
2, 24144, Note_on_c, 0, 64, 63
2, 24189, Note_on_c, 0, 64, 0
2, 24192, Note_on_c, 0, 69, 63
2, 24237, Note_on_c, 0, 69, 0
2, 24240, Note_on_c, 0, 66, 63
2, 24285, Note_on_c, 0, 66, 0
2, 24288, Note_on_c, 0, 62, 63
2, 24333, Note_on_c, 0, 62, 0
2, 24336, Note_on_c, 0, 57, 63
2, 24381, Note_on_c, 0, 57, 0
2, 24384, Note_on_c, 0, 59, 63
2, 24429, Note_on_c, 0, 59, 0
2, 24432, Note_on_c, 0, 61, 63
2, 24477, Note_on_c, 0, 61, 0
2, 24816, Note_on_c, 0, 86, 77
2, 24864, Note_on_c, 0, 86, 0
2, 24864, Note_on_c, 0, 74, 77
2, 24909, Note_on_c, 0, 74, 0
2, 24960, Note_on_c, 0, 86, 77
2, 24983, Note_on_c, 0, 86, 0
2, 24984, Note_on_c, 0, 88, 77
2, 25007, Note_on_c, 0, 88, 0
2, 25008, Note_on_c, 0, 86, 77
2, 25028, Note_on_c, 0, 86, 0
2, 25104, Note_on_c, 0, 86, 77
2, 25152, Note_on_c, 0, 86, 0
2, 25152, Note_on_c, 0, 74, 77
2, 25197, Note_on_c, 0, 74, 0
2, 25248, Note_on_c, 0, 84, 77
2, 25271, Note_on_c, 0, 84, 0
2, 25272, Note_on_c, 0, 86, 77
2, 25295, Note_on_c, 0, 86, 0
2, 25296, Note_on_c, 0, 84, 77
2, 25316, Note_on_c, 0, 84, 0
2, 25392, Note_on_c, 0, 83, 77
2, 25440, Note_on_c, 0, 83, 0
2, 25440, Note_on_c, 0, 71, 77
2, 25485, Note_on_c, 0, 71, 0
2, 25536, Note_on_c, 0, 81, 77
2, 25559, Note_on_c, 0, 81, 0
2, 25560, Note_on_c, 0, 83, 77
2, 25583, Note_on_c, 0, 83, 0
2, 25584, Note_on_c, 0, 81, 77
2, 25604, Note_on_c, 0, 81, 0
2, 25632, Note_on_c, 0, 79, 77
2, 25632, Note_on_c, 0, 76, 77
2, 25671, Note_on_c, 0, 79, 0
2, 25671, Note_on_c, 0, 76, 0
2, 25776, Note_on_c, 0, 84, 77
2, 25776, Note_on_c, 0, 81, 77
2, 25815, Note_on_c, 0, 84, 0
2, 25815, Note_on_c, 0, 81, 0
2, 25920, Note_on_c, 0, 83, 77
2, 25920, Note_on_c, 0, 79, 77
2, 25959, Note_on_c, 0, 83, 0
2, 25959, Note_on_c, 0, 79, 0
2, 26064, Note_on_c, 0, 81, 77
2, 26064, Note_on_c, 0, 78, 77
2, 26103, Note_on_c, 0, 81, 0
2, 26103, Note_on_c, 0, 78, 0
2, 26208, Note_on_c, 0, 79, 77
2, 26208, Note_on_c, 0, 76, 77
2, 26247, Note_on_c, 0, 79, 0
2, 26247, Note_on_c, 0, 76, 0
2, 26352, Note_on_c, 0, 84, 77
2, 26352, Note_on_c, 0, 81, 77
2, 26391, Note_on_c, 0, 84, 0
2, 26391, Note_on_c, 0, 81, 0
2, 26496, Note_on_c, 0, 83, 77
2, 26496, Note_on_c, 0, 79, 77
2, 26535, Note_on_c, 0, 83, 0
2, 26535, Note_on_c, 0, 79, 0
2, 26640, Note_on_c, 0, 81, 77
2, 26640, Note_on_c, 0, 78, 77
2, 26679, Note_on_c, 0, 81, 0
2, 26679, Note_on_c, 0, 78, 0
2, 26784, Note_on_c, 0, 79, 77
2, 26784, Note_on_c, 0, 76, 77
2, 26823, Note_on_c, 0, 79, 0
2, 26823, Note_on_c, 0, 76, 0
2, 26928, Note_on_c, 0, 79, 77
2, 27061, Note_on_c, 0, 79, 0
2, 27072, Note_on_c, 0, 77, 77
2, 27205, Note_on_c, 0, 77, 0
2, 27216, Note_on_c, 0, 76, 77
2, 27349, Note_on_c, 0, 76, 0
2, 27360, Note_on_c, 0, 74, 77
2, 27493, Note_on_c, 0, 74, 0
2, 27696, Note_on_c, 0, 64, 77
2, 27741, Note_on_c, 0, 64, 0
2, 27744, Note_on_c, 0, 76, 77
2, 27789, Note_on_c, 0, 76, 0
2, 27840, Note_on_c, 0, 64, 77
2, 27863, Note_on_c, 0, 64, 0
2, 27864, Note_on_c, 0, 66, 77
2, 27887, Note_on_c, 0, 66, 0
2, 27888, Note_on_c, 0, 64, 77
2, 27933, Note_on_c, 0, 64, 0
2, 27984, Note_on_c, 0, 63, 77
2, 28029, Note_on_c, 0, 63, 0
2, 28032, Note_on_c, 0, 75, 77
2, 28077, Note_on_c, 0, 75, 0
2, 28128, Note_on_c, 0, 60, 77
2, 28151, Note_on_c, 0, 60, 0
2, 28152, Note_on_c, 0, 62, 77
2, 28175, Note_on_c, 0, 62, 0
2, 28176, Note_on_c, 0, 60, 77
2, 28196, Note_on_c, 0, 60, 0
2, 28272, Note_on_c, 0, 59, 77
2, 28317, Note_on_c, 0, 59, 0
2, 28320, Note_on_c, 0, 71, 77
2, 28365, Note_on_c, 0, 71, 0
2, 28416, Note_on_c, 0, 69, 77
2, 28439, Note_on_c, 0, 69, 0
2, 28440, Note_on_c, 0, 71, 77
2, 28463, Note_on_c, 0, 71, 0
2, 28464, Note_on_c, 0, 69, 77
2, 28484, Note_on_c, 0, 69, 0
2, 28512, Note_on_c, 0, 67, 77
2, 28535, Note_on_c, 0, 67, 0
2, 28536, Note_on_c, 0, 64, 77
2, 28559, Note_on_c, 0, 64, 0
2, 28560, Note_on_c, 0, 69, 77
2, 28583, Note_on_c, 0, 69, 0
2, 28584, Note_on_c, 0, 64, 77
2, 28607, Note_on_c, 0, 64, 0
2, 28608, Note_on_c, 0, 71, 77
2, 28631, Note_on_c, 0, 71, 0
2, 28632, Note_on_c, 0, 64, 77
2, 28655, Note_on_c, 0, 64, 0
2, 28656, Note_on_c, 0, 72, 77
2, 28679, Note_on_c, 0, 72, 0
2, 28680, Note_on_c, 0, 64, 77
2, 28703, Note_on_c, 0, 64, 0
2, 28704, Note_on_c, 0, 71, 77
2, 28727, Note_on_c, 0, 71, 0
2, 28728, Note_on_c, 0, 64, 77
2, 28751, Note_on_c, 0, 64, 0
2, 28752, Note_on_c, 0, 76, 77
2, 28775, Note_on_c, 0, 76, 0
2, 28776, Note_on_c, 0, 64, 77
2, 28799, Note_on_c, 0, 64, 0
2, 28800, Note_on_c, 0, 67, 77
2, 28823, Note_on_c, 0, 67, 0
2, 28824, Note_on_c, 0, 64, 77
2, 28847, Note_on_c, 0, 64, 0
2, 28848, Note_on_c, 0, 69, 77
2, 28871, Note_on_c, 0, 69, 0
2, 28872, Note_on_c, 0, 64, 77
2, 28895, Note_on_c, 0, 64, 0
2, 28896, Note_on_c, 0, 71, 77
2, 28919, Note_on_c, 0, 71, 0
2, 28920, Note_on_c, 0, 64, 77
2, 28943, Note_on_c, 0, 64, 0
2, 28944, Note_on_c, 0, 72, 77
2, 28967, Note_on_c, 0, 72, 0
2, 28968, Note_on_c, 0, 64, 77
2, 28991, Note_on_c, 0, 64, 0
2, 28992, Note_on_c, 0, 71, 77
2, 29015, Note_on_c, 0, 71, 0
2, 29016, Note_on_c, 0, 64, 77
2, 29039, Note_on_c, 0, 64, 0
2, 29040, Note_on_c, 0, 76, 77
2, 29060, Note_on_c, 0, 76, 0
2, 29088, Note_on_c, 0, 75, 77
2, 29111, Note_on_c, 0, 75, 0
2, 29112, Note_on_c, 0, 71, 77
2, 29135, Note_on_c, 0, 71, 0
2, 29136, Note_on_c, 0, 76, 77
2, 29159, Note_on_c, 0, 76, 0
2, 29160, Note_on_c, 0, 71, 77
2, 29183, Note_on_c, 0, 71, 0
2, 29184, Note_on_c, 0, 78, 77
2, 29207, Note_on_c, 0, 78, 0
2, 29208, Note_on_c, 0, 71, 77
2, 29231, Note_on_c, 0, 71, 0
2, 29232, Note_on_c, 0, 79, 77
2, 29255, Note_on_c, 0, 79, 0
2, 29256, Note_on_c, 0, 71, 77
2, 29279, Note_on_c, 0, 71, 0
2, 29280, Note_on_c, 0, 78, 77
2, 29303, Note_on_c, 0, 78, 0
2, 29304, Note_on_c, 0, 71, 77
2, 29327, Note_on_c, 0, 71, 0
2, 29328, Note_on_c, 0, 83, 77
2, 29351, Note_on_c, 0, 83, 0
2, 29352, Note_on_c, 0, 71, 77
2, 29375, Note_on_c, 0, 71, 0
2, 29376, Note_on_c, 0, 75, 77
2, 29399, Note_on_c, 0, 75, 0
2, 29400, Note_on_c, 0, 71, 77
2, 29423, Note_on_c, 0, 71, 0
2, 29424, Note_on_c, 0, 76, 77
2, 29447, Note_on_c, 0, 76, 0
2, 29448, Note_on_c, 0, 71, 77
2, 29471, Note_on_c, 0, 71, 0
2, 29472, Note_on_c, 0, 78, 77
2, 29495, Note_on_c, 0, 78, 0
2, 29496, Note_on_c, 0, 71, 77
2, 29519, Note_on_c, 0, 71, 0
2, 29520, Note_on_c, 0, 79, 77
2, 29543, Note_on_c, 0, 79, 0
2, 29544, Note_on_c, 0, 71, 77
2, 29567, Note_on_c, 0, 71, 0
2, 29568, Note_on_c, 0, 78, 77
2, 29591, Note_on_c, 0, 78, 0
2, 29592, Note_on_c, 0, 71, 77
2, 29615, Note_on_c, 0, 71, 0
2, 29616, Note_on_c, 0, 83, 77
2, 29636, Note_on_c, 0, 83, 0
2, 29664, Note_on_c, 0, 83, 77
2, 29664, Note_on_c, 0, 72, 77
2, 29709, Note_on_c, 0, 83, 0
2, 29709, Note_on_c, 0, 72, 0
2, 29712, Note_on_c, 0, 81, 77
2, 29712, Note_on_c, 0, 74, 77
2, 29757, Note_on_c, 0, 81, 0
2, 29757, Note_on_c, 0, 74, 0
2, 29760, Note_on_c, 0, 79, 77
2, 29760, Note_on_c, 0, 76, 77
2, 29805, Note_on_c, 0, 79, 0
2, 29805, Note_on_c, 0, 76, 0
2, 29808, Note_on_c, 0, 78, 77
2, 29808, Note_on_c, 0, 76, 77
2, 29853, Note_on_c, 0, 78, 0
2, 29853, Note_on_c, 0, 76, 0
2, 29856, Note_on_c, 0, 79, 77
2, 29856, Note_on_c, 0, 74, 77
2, 29901, Note_on_c, 0, 79, 0
2, 29901, Note_on_c, 0, 74, 0
2, 29904, Note_on_c, 0, 81, 77
2, 29904, Note_on_c, 0, 72, 77
2, 29949, Note_on_c, 0, 81, 0
2, 29949, Note_on_c, 0, 72, 0
2, 29952, Note_on_c, 0, 81, 77
2, 29952, Note_on_c, 0, 71, 77
2, 29997, Note_on_c, 0, 81, 0
2, 29997, Note_on_c, 0, 71, 0
2, 30000, Note_on_c, 0, 79, 77
2, 30000, Note_on_c, 0, 72, 77
2, 30045, Note_on_c, 0, 79, 0
2, 30045, Note_on_c, 0, 72, 0
2, 30048, Note_on_c, 0, 78, 77
2, 30048, Note_on_c, 0, 74, 77
2, 30093, Note_on_c, 0, 78, 0
2, 30093, Note_on_c, 0, 74, 0
2, 30096, Note_on_c, 0, 76, 77
2, 30096, Note_on_c, 0, 74, 77
2, 30141, Note_on_c, 0, 76, 0
2, 30141, Note_on_c, 0, 74, 0
2, 30144, Note_on_c, 0, 78, 77
2, 30144, Note_on_c, 0, 72, 77
2, 30189, Note_on_c, 0, 78, 0
2, 30189, Note_on_c, 0, 72, 0
2, 30192, Note_on_c, 0, 79, 77
2, 30192, Note_on_c, 0, 71, 77
2, 30237, Note_on_c, 0, 79, 0
2, 30237, Note_on_c, 0, 71, 0
2, 30240, Note_on_c, 0, 79, 77
2, 30240, Note_on_c, 0, 69, 77
2, 30285, Note_on_c, 0, 79, 0
2, 30285, Note_on_c, 0, 69, 0
2, 30288, Note_on_c, 0, 78, 77
2, 30288, Note_on_c, 0, 71, 77
2, 30333, Note_on_c, 0, 78, 0
2, 30333, Note_on_c, 0, 71, 0
2, 30336, Note_on_c, 0, 76, 77
2, 30336, Note_on_c, 0, 72, 77
2, 30381, Note_on_c, 0, 76, 0
2, 30381, Note_on_c, 0, 72, 0
2, 30384, Note_on_c, 0, 75, 77
2, 30384, Note_on_c, 0, 72, 77
2, 30429, Note_on_c, 0, 75, 0
2, 30429, Note_on_c, 0, 72, 0
2, 30432, Note_on_c, 0, 76, 77
2, 30432, Note_on_c, 0, 71, 77
2, 30477, Note_on_c, 0, 76, 0
2, 30477, Note_on_c, 0, 71, 0
2, 30480, Note_on_c, 0, 78, 77
2, 30480, Note_on_c, 0, 69, 77
2, 30525, Note_on_c, 0, 78, 0
2, 30525, Note_on_c, 0, 69, 0
2, 30528, Note_on_c, 0, 78, 77
2, 30528, Note_on_c, 0, 67, 77
2, 30661, Note_on_c, 0, 78, 0
2, 30661, Note_on_c, 0, 67, 0
2, 30672, Note_on_c, 0, 76, 77
2, 30672, Note_on_c, 0, 67, 77
2, 30805, Note_on_c, 0, 76, 0
2, 30805, Note_on_c, 0, 67, 0
2, 30816, Note_on_c, 0, 76, 77
2, 30816, Note_on_c, 0, 65, 77
2, 30949, Note_on_c, 0, 76, 0
2, 30949, Note_on_c, 0, 65, 0
2, 30960, Note_on_c, 0, 74, 77
2, 30960, Note_on_c, 0, 65, 77
2, 31093, Note_on_c, 0, 74, 0
2, 31093, Note_on_c, 0, 65, 0
2, 31104, Note_on_c, 0, 64, 77
2, 31127, Note_on_c, 0, 64, 0
2, 31128, Note_on_c, 0, 71, 77
2, 31151, Note_on_c, 0, 71, 0
2, 31152, Note_on_c, 0, 74, 77
2, 31175, Note_on_c, 0, 74, 0
2, 31176, Note_on_c, 0, 71, 77
2, 31199, Note_on_c, 0, 71, 0
2, 31200, Note_on_c, 0, 74, 77
2, 31223, Note_on_c, 0, 74, 0
2, 31224, Note_on_c, 0, 71, 77
2, 31247, Note_on_c, 0, 71, 0
2, 31248, Note_on_c, 0, 64, 77
2, 31271, Note_on_c, 0, 64, 0
2, 31272, Note_on_c, 0, 69, 77
2, 31295, Note_on_c, 0, 69, 0
2, 31296, Note_on_c, 0, 72, 77
2, 31319, Note_on_c, 0, 72, 0
2, 31320, Note_on_c, 0, 69, 77
2, 31343, Note_on_c, 0, 69, 0
2, 31344, Note_on_c, 0, 72, 77
2, 31367, Note_on_c, 0, 72, 0
2, 31368, Note_on_c, 0, 69, 77
2, 31391, Note_on_c, 0, 69, 0
2, 31392, Note_on_c, 0, 62, 77
2, 31415, Note_on_c, 0, 62, 0
2, 31416, Note_on_c, 0, 69, 77
2, 31439, Note_on_c, 0, 69, 0
2, 31440, Note_on_c, 0, 72, 77
2, 31463, Note_on_c, 0, 72, 0
2, 31464, Note_on_c, 0, 69, 77
2, 31487, Note_on_c, 0, 69, 0
2, 31488, Note_on_c, 0, 72, 77
2, 31511, Note_on_c, 0, 72, 0
2, 31512, Note_on_c, 0, 69, 77
2, 31535, Note_on_c, 0, 69, 0
2, 31536, Note_on_c, 0, 62, 77
2, 31559, Note_on_c, 0, 62, 0
2, 31560, Note_on_c, 0, 67, 77
2, 31583, Note_on_c, 0, 67, 0
2, 31584, Note_on_c, 0, 71, 77
2, 31607, Note_on_c, 0, 71, 0
2, 31608, Note_on_c, 0, 67, 77
2, 31631, Note_on_c, 0, 67, 0
2, 31632, Note_on_c, 0, 71, 77
2, 31655, Note_on_c, 0, 71, 0
2, 31656, Note_on_c, 0, 67, 77
2, 31679, Note_on_c, 0, 67, 0
2, 31680, Note_on_c, 0, 69, 77
2, 31680, Note_on_c, 0, 66, 77
2, 31725, Note_on_c, 0, 69, 0
2, 31725, Note_on_c, 0, 66, 0
2, 31728, Note_on_c, 0, 74, 77
2, 31728, Note_on_c, 0, 66, 77
2, 31773, Note_on_c, 0, 74, 0
2, 31773, Note_on_c, 0, 66, 0
2, 31776, Note_on_c, 0, 74, 77
2, 31776, Note_on_c, 0, 66, 77
2, 31821, Note_on_c, 0, 74, 0
2, 31821, Note_on_c, 0, 66, 0
2, 31824, Note_on_c, 0, 74, 77
2, 31824, Note_on_c, 0, 66, 77
2, 31913, Note_on_c, 0, 74, 0
2, 31913, Note_on_c, 0, 66, 0
2, 32016, Note_on_c, 0, 79, 77
2, 32064, Note_on_c, 0, 79, 0
2, 32064, Note_on_c, 0, 67, 77
2, 32109, Note_on_c, 0, 67, 0
2, 32160, Note_on_c, 0, 79, 77
2, 32183, Note_on_c, 0, 79, 0
2, 32184, Note_on_c, 0, 81, 77
2, 32207, Note_on_c, 0, 81, 0
2, 32208, Note_on_c, 0, 79, 77
2, 32228, Note_on_c, 0, 79, 0
2, 32304, Note_on_c, 0, 81, 77
2, 32304, Note_on_c, 0, 79, 77
2, 32352, Note_on_c, 0, 81, 0
2, 32352, Note_on_c, 0, 79, 0
2, 32352, Note_on_c, 0, 69, 77
2, 32352, Note_on_c, 0, 67, 77
2, 32397, Note_on_c, 0, 69, 0
2, 32397, Note_on_c, 0, 67, 0
2, 32448, Note_on_c, 0, 81, 77
2, 32471, Note_on_c, 0, 81, 0
2, 32472, Note_on_c, 0, 82, 77
2, 32495, Note_on_c, 0, 82, 0
2, 32496, Note_on_c, 0, 81, 77
2, 32541, Note_on_c, 0, 81, 0
2, 32592, Note_on_c, 0, 82, 77
2, 32592, Note_on_c, 0, 79, 77
2, 32637, Note_on_c, 0, 82, 0
2, 32637, Note_on_c, 0, 79, 0
2, 32640, Note_on_c, 0, 82, 77
2, 32640, Note_on_c, 0, 79, 77
2, 32685, Note_on_c, 0, 82, 0
2, 32685, Note_on_c, 0, 79, 0
2, 32736, Note_on_c, 0, 86, 77
2, 32736, Note_on_c, 0, 82, 77
2, 32784, Note_on_c, 0, 86, 0
2, 32784, Note_on_c, 0, 82, 0
2, 32784, Note_on_c, 0, 74, 77
2, 32784, Note_on_c, 0, 70, 77
2, 32829, Note_on_c, 0, 74, 0
2, 32829, Note_on_c, 0, 70, 0
2, 32880, Note_on_c, 0, 87, 77
2, 32880, Note_on_c, 0, 84, 77
2, 32903, Note_on_c, 0, 87, 0
2, 32903, Note_on_c, 0, 84, 0
2, 32904, Note_on_c, 0, 86, 77
2, 32904, Note_on_c, 0, 83, 77
2, 32927, Note_on_c, 0, 86, 0
2, 32927, Note_on_c, 0, 83, 0
2, 32928, Note_on_c, 0, 87, 77
2, 32928, Note_on_c, 0, 84, 77
2, 32973, Note_on_c, 0, 87, 0
2, 32973, Note_on_c, 0, 84, 0
2, 33024, Note_on_c, 0, 84, 77
2, 33024, Note_on_c, 0, 81, 77
2, 33072, Note_on_c, 0, 84, 0
2, 33072, Note_on_c, 0, 81, 0
2, 33072, Note_on_c, 0, 72, 77
2, 33072, Note_on_c, 0, 69, 77
2, 33117, Note_on_c, 0, 72, 0
2, 33117, Note_on_c, 0, 69, 0
2, 33168, Note_on_c, 0, 86, 77
2, 33168, Note_on_c, 0, 82, 77
2, 33191, Note_on_c, 0, 86, 0
2, 33191, Note_on_c, 0, 82, 0
2, 33192, Note_on_c, 0, 85, 77
2, 33192, Note_on_c, 0, 81, 77
2, 33215, Note_on_c, 0, 85, 0
2, 33215, Note_on_c, 0, 81, 0
2, 33216, Note_on_c, 0, 86, 77
2, 33216, Note_on_c, 0, 82, 77
2, 33236, Note_on_c, 0, 86, 0
2, 33236, Note_on_c, 0, 82, 0
2, 33312, Note_on_c, 0, 82, 77
2, 33312, Note_on_c, 0, 79, 77
2, 33360, Note_on_c, 0, 82, 0
2, 33360, Note_on_c, 0, 79, 0
2, 33360, Note_on_c, 0, 70, 77
2, 33360, Note_on_c, 0, 67, 77
2, 33405, Note_on_c, 0, 70, 0
2, 33405, Note_on_c, 0, 67, 0
2, 33456, Note_on_c, 0, 84, 77
2, 33456, Note_on_c, 0, 81, 77
2, 33479, Note_on_c, 0, 84, 0
2, 33479, Note_on_c, 0, 81, 0
2, 33480, Note_on_c, 0, 82, 77
2, 33480, Note_on_c, 0, 79, 77
2, 33503, Note_on_c, 0, 82, 0
2, 33503, Note_on_c, 0, 79, 0
2, 33504, Note_on_c, 0, 84, 77
2, 33504, Note_on_c, 0, 81, 77
2, 33524, Note_on_c, 0, 84, 0
2, 33524, Note_on_c, 0, 81, 0
2, 33600, Note_on_c, 0, 81, 77
2, 33600, Note_on_c, 0, 78, 77
2, 33648, Note_on_c, 0, 81, 0
2, 33648, Note_on_c, 0, 78, 0
2, 33648, Note_on_c, 0, 69, 77
2, 33648, Note_on_c, 0, 66, 77
2, 33693, Note_on_c, 0, 69, 0
2, 33693, Note_on_c, 0, 66, 0
2, 33744, Note_on_c, 0, 82, 77
2, 33789, Note_on_c, 0, 82, 0
2, 33792, Note_on_c, 0, 82, 77
2, 33837, Note_on_c, 0, 82, 0
2, 33888, Note_on_c, 0, 83, 77
2, 33933, Note_on_c, 0, 83, 0
2, 33936, Note_on_c, 0, 83, 77
2, 33981, Note_on_c, 0, 83, 0
2, 34032, Note_on_c, 0, 84, 77
2, 34077, Note_on_c, 0, 84, 0
2, 34080, Note_on_c, 0, 84, 77
2, 34125, Note_on_c, 0, 84, 0
2, 34176, Note_on_c, 0, 85, 77
2, 34221, Note_on_c, 0, 85, 0
2, 34224, Note_on_c, 0, 85, 77
2, 34269, Note_on_c, 0, 85, 0
2, 34320, Note_on_c, 0, 86, 77
2, 34365, Note_on_c, 0, 86, 0
2, 34368, Note_on_c, 0, 86, 77
2, 34413, Note_on_c, 0, 86, 0
2, 34416, Note_on_c, 0, 74, 77
2, 34439, Note_on_c, 0, 74, 0
2, 34440, Note_on_c, 0, 78, 77
2, 34463, Note_on_c, 0, 78, 0
2, 34464, Note_on_c, 0, 86, 77
2, 34487, Note_on_c, 0, 86, 0
2, 34488, Note_on_c, 0, 78, 77
2, 34511, Note_on_c, 0, 78, 0
2, 34512, Note_on_c, 0, 86, 77
2, 34535, Note_on_c, 0, 86, 0
2, 34536, Note_on_c, 0, 78, 77
2, 34559, Note_on_c, 0, 78, 0
2, 34560, Note_on_c, 0, 76, 77
2, 34583, Note_on_c, 0, 76, 0
2, 34584, Note_on_c, 0, 79, 77
2, 34607, Note_on_c, 0, 79, 0
2, 34608, Note_on_c, 0, 85, 77
2, 34631, Note_on_c, 0, 85, 0
2, 34632, Note_on_c, 0, 79, 77
2, 34655, Note_on_c, 0, 79, 0
2, 34656, Note_on_c, 0, 85, 77
2, 34679, Note_on_c, 0, 85, 0
2, 34680, Note_on_c, 0, 79, 77
2, 34703, Note_on_c, 0, 79, 0
2, 34704, Note_on_c, 0, 74, 77
2, 34727, Note_on_c, 0, 74, 0
2, 34728, Note_on_c, 0, 78, 77
2, 34751, Note_on_c, 0, 78, 0
2, 34752, Note_on_c, 0, 84, 77
2, 34775, Note_on_c, 0, 84, 0
2, 34776, Note_on_c, 0, 78, 77
2, 34799, Note_on_c, 0, 78, 0
2, 34800, Note_on_c, 0, 84, 77
2, 34823, Note_on_c, 0, 84, 0
2, 34824, Note_on_c, 0, 78, 77
2, 34847, Note_on_c, 0, 78, 0
2, 34848, Note_on_c, 0, 79, 77
2, 34893, Note_on_c, 0, 79, 0
2, 34896, Note_on_c, 0, 79, 77
2, 34944, Note_on_c, 0, 79, 0
2, 34944, Note_on_c, 0, 67, 77
2, 34989, Note_on_c, 0, 67, 0
2, 35040, Note_on_c, 0, 79, 77
2, 35063, Note_on_c, 0, 79, 0
2, 35064, Note_on_c, 0, 81, 77
2, 35087, Note_on_c, 0, 81, 0
2, 35088, Note_on_c, 0, 79, 77
2, 35108, Note_on_c, 0, 79, 0
2, 35184, Note_on_c, 0, 79, 77
2, 35232, Note_on_c, 0, 79, 0
2, 35232, Note_on_c, 0, 67, 77
2, 35277, Note_on_c, 0, 67, 0
2, 35328, Note_on_c, 0, 79, 77
2, 35351, Note_on_c, 0, 79, 0
2, 35352, Note_on_c, 0, 81, 77
2, 35375, Note_on_c, 0, 81, 0
2, 35376, Note_on_c, 0, 79, 77
2, 35396, Note_on_c, 0, 79, 0
2, 35472, Note_on_c, 0, 79, 77
2, 35520, Note_on_c, 0, 79, 0
2, 35520, Note_on_c, 0, 67, 77
2, 35565, Note_on_c, 0, 67, 0
2, 35616, Note_on_c, 0, 78, 77
2, 35639, Note_on_c, 0, 78, 0
2, 35640, Note_on_c, 0, 79, 77
2, 35663, Note_on_c, 0, 79, 0
2, 35664, Note_on_c, 0, 83, 77
2, 35687, Note_on_c, 0, 83, 0
2, 35688, Note_on_c, 0, 79, 77
2, 35711, Note_on_c, 0, 79, 0
2, 35712, Note_on_c, 0, 76, 77
2, 35732, Note_on_c, 0, 76, 0
2, 35760, Note_on_c, 0, 80, 77
2, 35783, Note_on_c, 0, 80, 0
2, 35784, Note_on_c, 0, 81, 77
2, 35807, Note_on_c, 0, 81, 0
2, 35808, Note_on_c, 0, 84, 77
2, 35831, Note_on_c, 0, 84, 0
2, 35832, Note_on_c, 0, 81, 77
2, 35855, Note_on_c, 0, 81, 0
2, 35856, Note_on_c, 0, 74, 77
2, 35901, Note_on_c, 0, 74, 0
2, 35904, Note_on_c, 0, 86, 77
2, 35904, Note_on_c, 0, 74, 77
2, 35949, Note_on_c, 0, 86, 0
2, 35949, Note_on_c, 0, 74, 0
2, 35952, Note_on_c, 0, 84, 77
2, 35952, Note_on_c, 0, 72, 77
2, 35997, Note_on_c, 0, 84, 0
2, 35997, Note_on_c, 0, 72, 0
2, 36000, Note_on_c, 0, 84, 77
2, 36000, Note_on_c, 0, 72, 77
2, 36045, Note_on_c, 0, 84, 0
2, 36045, Note_on_c, 0, 72, 0
2, 36048, Note_on_c, 0, 83, 77
2, 36048, Note_on_c, 0, 71, 77
2, 36093, Note_on_c, 0, 83, 0
2, 36093, Note_on_c, 0, 71, 0
2, 36096, Note_on_c, 0, 81, 77
2, 36096, Note_on_c, 0, 69, 77
2, 36141, Note_on_c, 0, 81, 0
2, 36141, Note_on_c, 0, 69, 0
2, 36144, Note_on_c, 0, 67, 77
2, 36164, Note_on_c, 0, 67, 0
2, 36192, Note_on_c, 0, 78, 77
2, 36215, Note_on_c, 0, 78, 0
2, 36216, Note_on_c, 0, 79, 77
2, 36239, Note_on_c, 0, 79, 0
2, 36240, Note_on_c, 0, 83, 77
2, 36263, Note_on_c, 0, 83, 0
2, 36264, Note_on_c, 0, 79, 77
2, 36287, Note_on_c, 0, 79, 0
2, 36288, Note_on_c, 0, 76, 77
2, 36308, Note_on_c, 0, 76, 0
2, 36336, Note_on_c, 0, 80, 77
2, 36359, Note_on_c, 0, 80, 0
2, 36360, Note_on_c, 0, 81, 77
2, 36383, Note_on_c, 0, 81, 0
2, 36384, Note_on_c, 0, 84, 77
2, 36407, Note_on_c, 0, 84, 0
2, 36408, Note_on_c, 0, 81, 77
2, 36431, Note_on_c, 0, 81, 0
2, 36432, Note_on_c, 0, 74, 77
2, 36477, Note_on_c, 0, 74, 0
2, 36480, Note_on_c, 0, 86, 77
2, 36480, Note_on_c, 0, 74, 77
2, 36525, Note_on_c, 0, 86, 0
2, 36525, Note_on_c, 0, 74, 0
2, 36528, Note_on_c, 0, 84, 77
2, 36528, Note_on_c, 0, 72, 77
2, 36573, Note_on_c, 0, 84, 0
2, 36573, Note_on_c, 0, 72, 0
2, 36576, Note_on_c, 0, 83, 77
2, 36576, Note_on_c, 0, 71, 77
2, 36709, Note_on_c, 0, 83, 0
2, 36709, Note_on_c, 0, 71, 0
2, 36768, Note_on_c, 0, 78, 77
2, 36791, Note_on_c, 0, 78, 0
2, 36792, Note_on_c, 0, 79, 77
2, 36815, Note_on_c, 0, 79, 0
2, 36816, Note_on_c, 0, 83, 77
2, 36839, Note_on_c, 0, 83, 0
2, 36840, Note_on_c, 0, 79, 77
2, 36863, Note_on_c, 0, 79, 0
2, 36864, Note_on_c, 0, 76, 77
2, 36884, Note_on_c, 0, 76, 0
2, 36912, Note_on_c, 0, 80, 77
2, 36935, Note_on_c, 0, 80, 0
2, 36936, Note_on_c, 0, 81, 77
2, 36959, Note_on_c, 0, 81, 0
2, 36960, Note_on_c, 0, 84, 77
2, 36983, Note_on_c, 0, 84, 0
2, 36984, Note_on_c, 0, 81, 77
2, 37007, Note_on_c, 0, 81, 0
2, 37008, Note_on_c, 0, 74, 77
2, 37053, Note_on_c, 0, 74, 0
2, 37056, Note_on_c, 0, 86, 77
2, 37101, Note_on_c, 0, 86, 0
2, 37104, Note_on_c, 0, 84, 77
2, 37104, Note_on_c, 0, 81, 77
2, 37149, Note_on_c, 0, 84, 0
2, 37149, Note_on_c, 0, 81, 0
2, 37152, Note_on_c, 0, 84, 77
2, 37152, Note_on_c, 0, 81, 77
2, 37197, Note_on_c, 0, 84, 0
2, 37197, Note_on_c, 0, 81, 0
2, 37200, Note_on_c, 0, 83, 77
2, 37200, Note_on_c, 0, 79, 77
2, 37245, Note_on_c, 0, 83, 0
2, 37245, Note_on_c, 0, 79, 0
2, 37248, Note_on_c, 0, 81, 77
2, 37248, Note_on_c, 0, 78, 77
2, 37293, Note_on_c, 0, 81, 0
2, 37293, Note_on_c, 0, 78, 0
2, 37296, Note_on_c, 0, 74, 77
2, 37341, Note_on_c, 0, 74, 0
2, 37344, Note_on_c, 0, 84, 77
2, 37389, Note_on_c, 0, 84, 0
2, 37392, Note_on_c, 0, 83, 77
2, 37437, Note_on_c, 0, 83, 0
2, 37440, Note_on_c, 0, 83, 77
2, 37485, Note_on_c, 0, 83, 0
2, 37488, Note_on_c, 0, 81, 77
2, 37533, Note_on_c, 0, 81, 0
2, 37536, Note_on_c, 0, 79, 77
2, 37581, Note_on_c, 0, 79, 0
2, 37584, Note_on_c, 0, 74, 77
2, 37629, Note_on_c, 0, 74, 0
2, 37632, Note_on_c, 0, 86, 77
2, 37677, Note_on_c, 0, 86, 0
2, 37680, Note_on_c, 0, 84, 77
2, 37680, Note_on_c, 0, 81, 77
2, 37725, Note_on_c, 0, 84, 0
2, 37725, Note_on_c, 0, 81, 0
2, 37728, Note_on_c, 0, 84, 77
2, 37728, Note_on_c, 0, 81, 77
2, 37773, Note_on_c, 0, 84, 0
2, 37773, Note_on_c, 0, 81, 0
2, 37776, Note_on_c, 0, 83, 77
2, 37776, Note_on_c, 0, 79, 77
2, 37821, Note_on_c, 0, 83, 0
2, 37821, Note_on_c, 0, 79, 0
2, 37824, Note_on_c, 0, 81, 77
2, 37824, Note_on_c, 0, 78, 77
2, 37869, Note_on_c, 0, 81, 0
2, 37869, Note_on_c, 0, 78, 0
2, 37872, Note_on_c, 0, 74, 77
2, 37917, Note_on_c, 0, 74, 0
2, 37920, Note_on_c, 0, 84, 77
2, 37965, Note_on_c, 0, 84, 0
2, 37968, Note_on_c, 0, 83, 77
2, 38013, Note_on_c, 0, 83, 0
2, 38016, Note_on_c, 0, 83, 77
2, 38061, Note_on_c, 0, 83, 0
2, 38064, Note_on_c, 0, 81, 77
2, 38109, Note_on_c, 0, 81, 0
2, 38112, Note_on_c, 0, 79, 77
2, 38157, Note_on_c, 0, 79, 0
2, 38160, Note_on_c, 0, 78, 77
2, 38183, Note_on_c, 0, 78, 0
2, 38184, Note_on_c, 0, 74, 77
2, 38207, Note_on_c, 0, 74, 0
2, 38208, Note_on_c, 0, 78, 77
2, 38231, Note_on_c, 0, 78, 0
2, 38232, Note_on_c, 0, 74, 77
2, 38255, Note_on_c, 0, 74, 0
2, 38256, Note_on_c, 0, 79, 77
2, 38301, Note_on_c, 0, 79, 0
2, 38304, Note_on_c, 0, 84, 77
2, 38349, Note_on_c, 0, 84, 0
2, 38352, Note_on_c, 0, 84, 77
2, 38397, Note_on_c, 0, 84, 0
2, 38400, Note_on_c, 0, 83, 77
2, 38445, Note_on_c, 0, 83, 0
2, 38592, Note_on_c, 0, 84, 77
2, 38637, Note_on_c, 0, 84, 0
2, 38640, Note_on_c, 0, 84, 77
2, 38685, Note_on_c, 0, 84, 0
2, 38688, Note_on_c, 0, 83, 77
2, 38733, Note_on_c, 0, 83, 0
2, 38880, Note_on_c, 0, 84, 77
2, 38925, Note_on_c, 0, 84, 0
2, 38928, Note_on_c, 0, 84, 77
2, 38973, Note_on_c, 0, 84, 0
2, 38976, Note_on_c, 0, 83, 77
2, 39021, Note_on_c, 0, 83, 0
2, 39024, Note_on_c, 0, 84, 77
2, 39069, Note_on_c, 0, 84, 0
2, 39072, Note_on_c, 0, 84, 77
2, 39117, Note_on_c, 0, 84, 0
2, 39120, Note_on_c, 0, 83, 77
2, 39165, Note_on_c, 0, 83, 0
2, 39168, Note_on_c, 0, 81, 77
2, 39213, Note_on_c, 0, 81, 0
2, 39216, Note_on_c, 0, 86, 77
2, 39261, Note_on_c, 0, 86, 0
2, 39264, Note_on_c, 0, 86, 77
2, 39309, Note_on_c, 0, 86, 0
2, 39312, Note_on_c, 0, 86, 77
2, 39401, Note_on_c, 0, 86, 0
2, 39456, Note_on_c, 0, 67, 77
2, 39456, Note_on_c, 0, 59, 77
2, 39495, Note_on_c, 0, 67, 0
2, 39495, Note_on_c, 0, 59, 0
2, 39600, Note_on_c, 0, 72, 77
2, 39600, Note_on_c, 0, 64, 77
2, 39639, Note_on_c, 0, 72, 0
2, 39639, Note_on_c, 0, 64, 0
2, 39744, Note_on_c, 0, 71, 77
2, 39744, Note_on_c, 0, 62, 77
2, 39783, Note_on_c, 0, 71, 0
2, 39783, Note_on_c, 0, 62, 0
2, 39888, Note_on_c, 0, 66, 77
2, 39888, Note_on_c, 0, 60, 77
2, 39927, Note_on_c, 0, 66, 0
2, 39927, Note_on_c, 0, 60, 0
2, 40032, Note_on_c, 0, 67, 77
2, 40032, Note_on_c, 0, 59, 77
2, 40071, Note_on_c, 0, 67, 0
2, 40071, Note_on_c, 0, 59, 0
2, 40176, Note_on_c, 0, 72, 77
2, 40176, Note_on_c, 0, 64, 77
2, 40215, Note_on_c, 0, 72, 0
2, 40215, Note_on_c, 0, 64, 0
2, 40320, Note_on_c, 0, 71, 77
2, 40320, Note_on_c, 0, 62, 77
2, 40359, Note_on_c, 0, 71, 0
2, 40359, Note_on_c, 0, 62, 0
2, 40464, Note_on_c, 0, 66, 77
2, 40464, Note_on_c, 0, 60, 77
2, 40503, Note_on_c, 0, 66, 0
2, 40503, Note_on_c, 0, 60, 0
2, 40608, Note_on_c, 0, 67, 77
2, 40608, Note_on_c, 0, 59, 77
2, 40647, Note_on_c, 0, 67, 0
2, 40647, Note_on_c, 0, 59, 0
2, 40752, Note_on_c, 0, 71, 77
2, 40752, Note_on_c, 0, 67, 77
2, 40791, Note_on_c, 0, 71, 0
2, 40791, Note_on_c, 0, 67, 0
2, 40896, Note_on_c, 0, 69, 77
2, 40896, Note_on_c, 0, 67, 77
2, 40935, Note_on_c, 0, 69, 0
2, 40935, Note_on_c, 0, 67, 0
2, 41040, Note_on_c, 0, 76, 77
2, 41040, Note_on_c, 0, 67, 77
2, 41079, Note_on_c, 0, 76, 0
2, 41079, Note_on_c, 0, 67, 0
2, 41184, Note_on_c, 0, 66, 77
2, 41207, Note_on_c, 0, 66, 0
2, 41208, Note_on_c, 0, 62, 77
2, 41231, Note_on_c, 0, 62, 0
2, 41232, Note_on_c, 0, 67, 77
2, 41255, Note_on_c, 0, 67, 0
2, 41256, Note_on_c, 0, 62, 77
2, 41279, Note_on_c, 0, 62, 0
2, 41280, Note_on_c, 0, 69, 77
2, 41303, Note_on_c, 0, 69, 0
2, 41304, Note_on_c, 0, 62, 77
2, 41327, Note_on_c, 0, 62, 0
2, 41328, Note_on_c, 0, 71, 77
2, 41351, Note_on_c, 0, 71, 0
2, 41352, Note_on_c, 0, 62, 77
2, 41375, Note_on_c, 0, 62, 0
2, 41376, Note_on_c, 0, 69, 77
2, 41399, Note_on_c, 0, 69, 0
2, 41400, Note_on_c, 0, 62, 77
2, 41423, Note_on_c, 0, 62, 0
2, 41424, Note_on_c, 0, 74, 77
2, 41447, Note_on_c, 0, 74, 0
2, 41448, Note_on_c, 0, 62, 77
2, 41471, Note_on_c, 0, 62, 0
2, 41472, Note_on_c, 0, 66, 77
2, 41495, Note_on_c, 0, 66, 0
2, 41496, Note_on_c, 0, 62, 77
2, 41519, Note_on_c, 0, 62, 0
2, 41520, Note_on_c, 0, 67, 77
2, 41543, Note_on_c, 0, 67, 0
2, 41544, Note_on_c, 0, 62, 77
2, 41567, Note_on_c, 0, 62, 0
2, 41568, Note_on_c, 0, 69, 77
2, 41591, Note_on_c, 0, 69, 0
2, 41592, Note_on_c, 0, 62, 77
2, 41615, Note_on_c, 0, 62, 0
2, 41616, Note_on_c, 0, 71, 77
2, 41639, Note_on_c, 0, 71, 0
2, 41640, Note_on_c, 0, 62, 77
2, 41663, Note_on_c, 0, 62, 0
2, 41664, Note_on_c, 0, 69, 77
2, 41687, Note_on_c, 0, 69, 0
2, 41688, Note_on_c, 0, 62, 77
2, 41711, Note_on_c, 0, 62, 0
2, 41712, Note_on_c, 0, 74, 77
2, 41735, Note_on_c, 0, 74, 0
2, 41736, Note_on_c, 0, 62, 77
2, 41759, Note_on_c, 0, 62, 0
2, 41760, Note_on_c, 0, 66, 77
2, 41783, Note_on_c, 0, 66, 0
2, 41784, Note_on_c, 0, 62, 77
2, 41807, Note_on_c, 0, 62, 0
2, 41808, Note_on_c, 0, 67, 77
2, 41831, Note_on_c, 0, 67, 0
2, 41832, Note_on_c, 0, 62, 77
2, 41855, Note_on_c, 0, 62, 0
2, 41856, Note_on_c, 0, 69, 77
2, 41879, Note_on_c, 0, 69, 0
2, 41880, Note_on_c, 0, 62, 77
2, 41903, Note_on_c, 0, 62, 0
2, 41904, Note_on_c, 0, 71, 77
2, 41927, Note_on_c, 0, 71, 0
2, 41928, Note_on_c, 0, 62, 77
2, 41951, Note_on_c, 0, 62, 0
2, 41952, Note_on_c, 0, 72, 77
2, 41975, Note_on_c, 0, 72, 0
2, 41976, Note_on_c, 0, 62, 77
2, 41999, Note_on_c, 0, 62, 0
2, 42000, Note_on_c, 0, 74, 77
2, 42023, Note_on_c, 0, 74, 0
2, 42024, Note_on_c, 0, 62, 77
2, 42047, Note_on_c, 0, 62, 0
2, 42048, Note_on_c, 0, 76, 77
2, 42071, Note_on_c, 0, 76, 0
2, 42072, Note_on_c, 0, 72, 77
2, 42095, Note_on_c, 0, 72, 0
2, 42096, Note_on_c, 0, 71, 77
2, 42119, Note_on_c, 0, 71, 0
2, 42120, Note_on_c, 0, 69, 77
2, 42143, Note_on_c, 0, 69, 0
2, 42144, Note_on_c, 0, 68, 77
2, 42167, Note_on_c, 0, 68, 0
2, 42168, Note_on_c, 0, 69, 77
2, 42191, Note_on_c, 0, 69, 0
2, 42192, Note_on_c, 0, 74, 77
2, 42215, Note_on_c, 0, 74, 0
2, 42216, Note_on_c, 0, 71, 77
2, 42239, Note_on_c, 0, 71, 0
2, 42240, Note_on_c, 0, 69, 77
2, 42263, Note_on_c, 0, 69, 0
2, 42264, Note_on_c, 0, 67, 77
2, 42287, Note_on_c, 0, 67, 0
2, 42288, Note_on_c, 0, 66, 77
2, 42311, Note_on_c, 0, 66, 0
2, 42312, Note_on_c, 0, 67, 77
2, 42335, Note_on_c, 0, 67, 0
2, 42336, Note_on_c, 0, 79, 77
2, 42359, Note_on_c, 0, 79, 0
2, 42360, Note_on_c, 0, 81, 77
2, 42383, Note_on_c, 0, 81, 0
2, 42384, Note_on_c, 0, 79, 77
2, 42407, Note_on_c, 0, 79, 0
2, 42408, Note_on_c, 0, 78, 77
2, 42431, Note_on_c, 0, 78, 0
2, 42432, Note_on_c, 0, 76, 77
2, 42455, Note_on_c, 0, 76, 0
2, 42456, Note_on_c, 0, 74, 77
2, 42479, Note_on_c, 0, 74, 0
2, 42480, Note_on_c, 0, 73, 77
2, 42503, Note_on_c, 0, 73, 0
2, 42504, Note_on_c, 0, 71, 77
2, 42527, Note_on_c, 0, 71, 0
2, 42528, Note_on_c, 0, 69, 77
2, 42551, Note_on_c, 0, 69, 0
2, 42624, Note_on_c, 0, 84, 77
2, 42647, Note_on_c, 0, 84, 0
2, 42648, Note_on_c, 0, 86, 77
2, 42671, Note_on_c, 0, 86, 0
2, 42672, Note_on_c, 0, 84, 77
2, 42695, Note_on_c, 0, 84, 0
2, 42696, Note_on_c, 0, 83, 77
2, 42719, Note_on_c, 0, 83, 0
2, 42720, Note_on_c, 0, 81, 77
2, 42743, Note_on_c, 0, 81, 0
2, 42744, Note_on_c, 0, 79, 77
2, 42767, Note_on_c, 0, 79, 0
2, 42768, Note_on_c, 0, 78, 77
2, 42791, Note_on_c, 0, 78, 0
2, 42792, Note_on_c, 0, 76, 77
2, 42815, Note_on_c, 0, 76, 0
2, 42816, Note_on_c, 0, 74, 77
2, 42839, Note_on_c, 0, 74, 0
2, 42840, Note_on_c, 0, 72, 77
2, 42863, Note_on_c, 0, 72, 0
2, 42864, Note_on_c, 0, 71, 77
2, 42887, Note_on_c, 0, 71, 0
2, 42888, Note_on_c, 0, 69, 77
2, 42911, Note_on_c, 0, 69, 0
2, 42912, Note_on_c, 0, 71, 77
2, 42935, Note_on_c, 0, 71, 0
2, 42936, Note_on_c, 0, 67, 77
2, 42959, Note_on_c, 0, 67, 0
2, 42960, Note_on_c, 0, 72, 77
2, 42983, Note_on_c, 0, 72, 0
2, 42984, Note_on_c, 0, 67, 77
2, 43007, Note_on_c, 0, 67, 0
2, 43008, Note_on_c, 0, 74, 77
2, 43031, Note_on_c, 0, 74, 0
2, 43032, Note_on_c, 0, 67, 77
2, 43055, Note_on_c, 0, 67, 0
2, 43056, Note_on_c, 0, 76, 77
2, 43079, Note_on_c, 0, 76, 0
2, 43080, Note_on_c, 0, 67, 77
2, 43103, Note_on_c, 0, 67, 0
2, 43104, Note_on_c, 0, 78, 77
2, 43127, Note_on_c, 0, 78, 0
2, 43128, Note_on_c, 0, 67, 77
2, 43151, Note_on_c, 0, 67, 0
2, 43152, Note_on_c, 0, 79, 77
2, 43172, Note_on_c, 0, 79, 0
2, 43200, Note_on_c, 0, 71, 77
2, 43200, Note_on_c, 0, 67, 77
2, 43389, Note_on_c, 0, 71, 0
2, 43389, Note_on_c, 0, 67, 0
2, 43392, Note_on_c, 0, 72, 77
2, 43392, Note_on_c, 0, 69, 77
2, 43437, Note_on_c, 0, 72, 0
2, 43437, Note_on_c, 0, 69, 0
2, 43440, Note_on_c, 0, 69, 77
2, 43440, Note_on_c, 0, 66, 77
2, 43485, Note_on_c, 0, 69, 0
2, 43485, Note_on_c, 0, 66, 0
2, 43488, Note_on_c, 0, 67, 77
2, 43577, Note_on_c, 0, 67, 0
2, 43584, Note_on_c, 0, 79, 77
2, 43629, Note_on_c, 0, 79, 0
2, 43632, Note_on_c, 0, 69, 77
2, 43677, Note_on_c, 0, 69, 0
2, 43680, Note_on_c, 0, 72, 77
2, 43725, Note_on_c, 0, 72, 0
2, 43728, Note_on_c, 0, 71, 77
2, 43773, Note_on_c, 0, 71, 0
2, 43776, Note_on_c, 0, 74, 77
2, 43821, Note_on_c, 0, 74, 0
2, 43824, Note_on_c, 0, 72, 77
2, 43869, Note_on_c, 0, 72, 0
2, 43872, Note_on_c, 0, 71, 77
2, 43917, Note_on_c, 0, 71, 0
2, 43920, Note_on_c, 0, 69, 77
2, 43965, Note_on_c, 0, 69, 0
2, 43968, Note_on_c, 0, 76, 77
2, 44013, Note_on_c, 0, 76, 0
2, 44016, Note_on_c, 0, 71, 77
2, 44061, Note_on_c, 0, 71, 0
2, 44064, Note_on_c, 0, 74, 77
2, 44109, Note_on_c, 0, 74, 0
2, 44112, Note_on_c, 0, 72, 77
2, 44157, Note_on_c, 0, 72, 0
2, 44160, Note_on_c, 0, 71, 77
2, 44205, Note_on_c, 0, 71, 0
2, 44208, Note_on_c, 0, 69, 77
2, 44253, Note_on_c, 0, 69, 0
2, 44256, Note_on_c, 0, 79, 77
2, 44301, Note_on_c, 0, 79, 0
2, 44304, Note_on_c, 0, 71, 77
2, 44349, Note_on_c, 0, 71, 0
2, 44352, Note_on_c, 0, 74, 77
2, 44397, Note_on_c, 0, 74, 0
2, 44400, Note_on_c, 0, 73, 77
2, 44445, Note_on_c, 0, 73, 0
2, 44448, Note_on_c, 0, 76, 77
2, 44541, Note_on_c, 0, 76, 0
2, 44544, Note_on_c, 0, 74, 77
2, 44589, Note_on_c, 0, 74, 0
2, 44592, Note_on_c, 0, 84, 77
2, 44663, Note_on_c, 0, 84, 0
2, 44664, Note_on_c, 0, 83, 77
2, 44687, Note_on_c, 0, 83, 0
2, 44688, Note_on_c, 0, 86, 77
2, 44711, Note_on_c, 0, 86, 0
2, 44712, Note_on_c, 0, 84, 77
2, 44735, Note_on_c, 0, 84, 0
2, 44736, Note_on_c, 0, 83, 77
2, 44759, Note_on_c, 0, 83, 0
2, 44760, Note_on_c, 0, 81, 77
2, 44783, Note_on_c, 0, 81, 0
2, 44784, Note_on_c, 0, 79, 77
2, 44807, Note_on_c, 0, 79, 0
2, 44808, Note_on_c, 0, 78, 77
2, 44831, Note_on_c, 0, 78, 0
2, 44832, Note_on_c, 0, 76, 77
2, 44855, Note_on_c, 0, 76, 0
2, 44856, Note_on_c, 0, 74, 77
2, 44879, Note_on_c, 0, 74, 0
2, 44880, Note_on_c, 0, 72, 77
2, 44903, Note_on_c, 0, 72, 0
2, 44904, Note_on_c, 0, 71, 77
2, 44927, Note_on_c, 0, 71, 0
2, 44928, Note_on_c, 0, 69, 77
2, 44973, Note_on_c, 0, 69, 0
2, 44976, Note_on_c, 0, 87, 77
2, 44976, Note_on_c, 0, 83, 77
2, 45024, Note_on_c, 0, 87, 0
2, 45024, Note_on_c, 0, 83, 0
2, 45024, Note_on_c, 0, 88, 77
2, 45024, Note_on_c, 0, 84, 77
2, 45069, Note_on_c, 0, 88, 0
2, 45069, Note_on_c, 0, 84, 0
2, 45072, Note_on_c, 0, 88, 77
2, 45072, Note_on_c, 0, 84, 77
2, 45117, Note_on_c, 0, 88, 0
2, 45117, Note_on_c, 0, 84, 0
2, 45120, Note_on_c, 0, 86, 77
2, 45120, Note_on_c, 0, 83, 77
2, 45165, Note_on_c, 0, 86, 0
2, 45165, Note_on_c, 0, 83, 0
2, 45168, Note_on_c, 0, 84, 77
2, 45168, Note_on_c, 0, 81, 77
2, 45213, Note_on_c, 0, 84, 0
2, 45213, Note_on_c, 0, 81, 0
2, 45216, Note_on_c, 0, 83, 77
2, 45228, Note_on_c, 0, 83, 0
2, 45228, Note_on_c, 0, 81, 77
2, 45240, Note_on_c, 0, 81, 0
2, 45240, Note_on_c, 0, 83, 77
2, 45261, Note_on_c, 0, 83, 0
2, 45264, Note_on_c, 0, 86, 77
2, 45309, Note_on_c, 0, 86, 0
2, 45312, Note_on_c, 0, 79, 77
2, 45357, Note_on_c, 0, 79, 0
2, 45360, Note_on_c, 0, 81, 77
2, 45372, Note_on_c, 0, 81, 0
2, 45372, Note_on_c, 0, 79, 77
2, 45384, Note_on_c, 0, 79, 0
2, 45384, Note_on_c, 0, 81, 77
2, 45405, Note_on_c, 0, 81, 0
2, 45408, Note_on_c, 0, 84, 77
2, 45453, Note_on_c, 0, 84, 0
2, 45456, Note_on_c, 0, 78, 77
2, 45501, Note_on_c, 0, 78, 0
2, 45504, Note_on_c, 0, 79, 77
2, 45527, Note_on_c, 0, 79, 0
2, 45528, Note_on_c, 0, 81, 77
2, 45551, Note_on_c, 0, 81, 0
2, 45552, Note_on_c, 0, 78, 77
2, 45575, Note_on_c, 0, 78, 0
2, 45576, Note_on_c, 0, 79, 77
2, 45599, Note_on_c, 0, 79, 0
2, 45600, Note_on_c, 0, 76, 77
2, 45620, Note_on_c, 0, 76, 0
2, 45648, Note_on_c, 0, 74, 77
2, 45671, Note_on_c, 0, 74, 0
2, 45672, Note_on_c, 0, 76, 77
2, 45695, Note_on_c, 0, 76, 0
2, 45696, Note_on_c, 0, 72, 77
2, 45719, Note_on_c, 0, 72, 0
2, 45720, Note_on_c, 0, 74, 77
2, 45743, Note_on_c, 0, 74, 0
2, 45744, Note_on_c, 0, 71, 77
2, 45764, Note_on_c, 0, 71, 0
2, 45792, Note_on_c, 0, 69, 77
2, 45837, Note_on_c, 0, 69, 0
2, 45840, Note_on_c, 0, 72, 77
2, 45885, Note_on_c, 0, 72, 0
2, 45888, Note_on_c, 0, 76, 77
2, 45933, Note_on_c, 0, 76, 0
2, 45936, Note_on_c, 0, 81, 77
2, 45981, Note_on_c, 0, 81, 0
2, 45984, Note_on_c, 0, 84, 77
2, 45996, Note_on_c, 0, 84, 0
2, 45996, Note_on_c, 0, 83, 77
2, 46008, Note_on_c, 0, 83, 0
2, 46008, Note_on_c, 0, 84, 77
2, 46029, Note_on_c, 0, 84, 0
2, 46032, Note_on_c, 0, 88, 77
2, 46077, Note_on_c, 0, 88, 0
2, 46080, Note_on_c, 0, 86, 77
2, 46125, Note_on_c, 0, 86, 0
2, 46128, Note_on_c, 0, 83, 77
2, 46173, Note_on_c, 0, 83, 0
2, 46176, Note_on_c, 0, 79, 77
2, 46221, Note_on_c, 0, 79, 0
2, 46224, Note_on_c, 0, 84, 77
2, 46269, Note_on_c, 0, 84, 0
2, 46272, Note_on_c, 0, 81, 77
2, 46317, Note_on_c, 0, 81, 0
2, 46320, Note_on_c, 0, 78, 77
2, 46365, Note_on_c, 0, 78, 0
2, 46368, Note_on_c, 0, 79, 63
2, 46413, Note_on_c, 0, 79, 0
2, 46416, Note_on_c, 0, 74, 63
2, 46461, Note_on_c, 0, 74, 0
2, 46464, Note_on_c, 0, 71, 63
2, 46509, Note_on_c, 0, 71, 0
2, 46512, Note_on_c, 0, 76, 63
2, 46557, Note_on_c, 0, 76, 0
2, 46560, Note_on_c, 0, 72, 63
2, 46605, Note_on_c, 0, 72, 0
2, 46608, Note_on_c, 0, 69, 63
2, 46653, Note_on_c, 0, 69, 0
2, 46656, Note_on_c, 0, 74, 63
2, 46701, Note_on_c, 0, 74, 0
2, 46704, Note_on_c, 0, 71, 63
2, 46749, Note_on_c, 0, 71, 0
2, 46752, Note_on_c, 0, 67, 63
2, 46797, Note_on_c, 0, 67, 0
2, 46800, Note_on_c, 0, 62, 63
2, 46845, Note_on_c, 0, 62, 0
2, 46848, Note_on_c, 0, 64, 63
2, 46893, Note_on_c, 0, 64, 0
2, 46896, Note_on_c, 0, 66, 63
2, 46941, Note_on_c, 0, 66, 0
2, 46944, Note_on_c, 0, 55, 63
2, 47033, Note_on_c, 0, 55, 0
2, 47280, Note_on_c, 0, 86, 77
2, 47328, Note_on_c, 0, 86, 0
2, 47328, Note_on_c, 0, 74, 77
2, 47373, Note_on_c, 0, 74, 0
2, 47424, Note_on_c, 0, 86, 77
2, 47447, Note_on_c, 0, 86, 0
2, 47448, Note_on_c, 0, 88, 77
2, 47471, Note_on_c, 0, 88, 0
2, 47472, Note_on_c, 0, 86, 77
2, 47492, Note_on_c, 0, 86, 0
2, 47568, Note_on_c, 0, 86, 77
2, 47616, Note_on_c, 0, 86, 0
2, 47616, Note_on_c, 0, 74, 77
2, 47661, Note_on_c, 0, 74, 0
2, 47712, Note_on_c, 0, 84, 77
2, 47735, Note_on_c, 0, 84, 0
2, 47736, Note_on_c, 0, 86, 77
2, 47759, Note_on_c, 0, 86, 0
2, 47760, Note_on_c, 0, 84, 77
2, 47780, Note_on_c, 0, 84, 0
2, 47856, Note_on_c, 0, 83, 77
2, 47904, Note_on_c, 0, 83, 0
2, 47904, Note_on_c, 0, 71, 77
2, 47949, Note_on_c, 0, 71, 0
2, 48000, Note_on_c, 0, 81, 77
2, 48023, Note_on_c, 0, 81, 0
2, 48024, Note_on_c, 0, 83, 77
2, 48047, Note_on_c, 0, 83, 0
2, 48048, Note_on_c, 0, 81, 77
2, 48068, Note_on_c, 0, 81, 0
2, 48096, Note_on_c, 0, 79, 77
2, 48096, Note_on_c, 0, 76, 77
2, 48135, Note_on_c, 0, 79, 0
2, 48135, Note_on_c, 0, 76, 0
2, 48240, Note_on_c, 0, 84, 77
2, 48240, Note_on_c, 0, 81, 77
2, 48279, Note_on_c, 0, 84, 0
2, 48279, Note_on_c, 0, 81, 0
2, 48384, Note_on_c, 0, 83, 77
2, 48384, Note_on_c, 0, 79, 77
2, 48423, Note_on_c, 0, 83, 0
2, 48423, Note_on_c, 0, 79, 0
2, 48528, Note_on_c, 0, 81, 77
2, 48528, Note_on_c, 0, 78, 77
2, 48567, Note_on_c, 0, 81, 0
2, 48567, Note_on_c, 0, 78, 0
2, 48672, Note_on_c, 0, 79, 77
2, 48672, Note_on_c, 0, 76, 77
2, 48711, Note_on_c, 0, 79, 0
2, 48711, Note_on_c, 0, 76, 0
2, 48816, Note_on_c, 0, 84, 77
2, 48816, Note_on_c, 0, 81, 77
2, 48855, Note_on_c, 0, 84, 0
2, 48855, Note_on_c, 0, 81, 0
2, 48960, Note_on_c, 0, 83, 77
2, 48960, Note_on_c, 0, 79, 77
2, 48999, Note_on_c, 0, 83, 0
2, 48999, Note_on_c, 0, 79, 0
2, 49104, Note_on_c, 0, 81, 77
2, 49104, Note_on_c, 0, 78, 77
2, 49143, Note_on_c, 0, 81, 0
2, 49143, Note_on_c, 0, 78, 0
2, 49248, Note_on_c, 0, 79, 77
2, 49248, Note_on_c, 0, 76, 77
2, 49287, Note_on_c, 0, 79, 0
2, 49287, Note_on_c, 0, 76, 0
2, 49392, Note_on_c, 0, 79, 77
2, 49525, Note_on_c, 0, 79, 0
2, 49536, Note_on_c, 0, 77, 77
2, 49669, Note_on_c, 0, 77, 0
2, 49680, Note_on_c, 0, 76, 77
2, 49813, Note_on_c, 0, 76, 0
2, 49824, Note_on_c, 0, 74, 77
2, 49957, Note_on_c, 0, 74, 0
2, 50160, Note_on_c, 0, 64, 77
2, 50205, Note_on_c, 0, 64, 0
2, 50208, Note_on_c, 0, 76, 77
2, 50253, Note_on_c, 0, 76, 0
2, 50304, Note_on_c, 0, 64, 77
2, 50327, Note_on_c, 0, 64, 0
2, 50328, Note_on_c, 0, 66, 77
2, 50351, Note_on_c, 0, 66, 0
2, 50352, Note_on_c, 0, 64, 77
2, 50397, Note_on_c, 0, 64, 0
2, 50448, Note_on_c, 0, 63, 77
2, 50493, Note_on_c, 0, 63, 0
2, 50496, Note_on_c, 0, 75, 77
2, 50541, Note_on_c, 0, 75, 0
2, 50592, Note_on_c, 0, 60, 77
2, 50615, Note_on_c, 0, 60, 0
2, 50616, Note_on_c, 0, 62, 77
2, 50639, Note_on_c, 0, 62, 0
2, 50640, Note_on_c, 0, 60, 77
2, 50660, Note_on_c, 0, 60, 0
2, 50736, Note_on_c, 0, 59, 77
2, 50781, Note_on_c, 0, 59, 0
2, 50784, Note_on_c, 0, 71, 77
2, 50829, Note_on_c, 0, 71, 0
2, 50880, Note_on_c, 0, 69, 77
2, 50903, Note_on_c, 0, 69, 0
2, 50904, Note_on_c, 0, 71, 77
2, 50927, Note_on_c, 0, 71, 0
2, 50928, Note_on_c, 0, 69, 77
2, 50948, Note_on_c, 0, 69, 0
2, 50976, Note_on_c, 0, 67, 77
2, 50999, Note_on_c, 0, 67, 0
2, 51000, Note_on_c, 0, 64, 77
2, 51023, Note_on_c, 0, 64, 0
2, 51024, Note_on_c, 0, 69, 77
2, 51047, Note_on_c, 0, 69, 0
2, 51048, Note_on_c, 0, 64, 77
2, 51071, Note_on_c, 0, 64, 0
2, 51072, Note_on_c, 0, 71, 77
2, 51095, Note_on_c, 0, 71, 0
2, 51096, Note_on_c, 0, 64, 77
2, 51119, Note_on_c, 0, 64, 0
2, 51120, Note_on_c, 0, 72, 77
2, 51143, Note_on_c, 0, 72, 0
2, 51144, Note_on_c, 0, 64, 77
2, 51167, Note_on_c, 0, 64, 0
2, 51168, Note_on_c, 0, 71, 77
2, 51191, Note_on_c, 0, 71, 0
2, 51192, Note_on_c, 0, 64, 77
2, 51215, Note_on_c, 0, 64, 0
2, 51216, Note_on_c, 0, 76, 77
2, 51239, Note_on_c, 0, 76, 0
2, 51240, Note_on_c, 0, 64, 77
2, 51263, Note_on_c, 0, 64, 0
2, 51264, Note_on_c, 0, 67, 77
2, 51287, Note_on_c, 0, 67, 0
2, 51288, Note_on_c, 0, 64, 77
2, 51311, Note_on_c, 0, 64, 0
2, 51312, Note_on_c, 0, 69, 77
2, 51335, Note_on_c, 0, 69, 0
2, 51336, Note_on_c, 0, 64, 77
2, 51359, Note_on_c, 0, 64, 0
2, 51360, Note_on_c, 0, 71, 77
2, 51383, Note_on_c, 0, 71, 0
2, 51384, Note_on_c, 0, 64, 77
2, 51407, Note_on_c, 0, 64, 0
2, 51408, Note_on_c, 0, 72, 77
2, 51431, Note_on_c, 0, 72, 0
2, 51432, Note_on_c, 0, 64, 77
2, 51455, Note_on_c, 0, 64, 0
2, 51456, Note_on_c, 0, 71, 77
2, 51479, Note_on_c, 0, 71, 0
2, 51480, Note_on_c, 0, 64, 77
2, 51503, Note_on_c, 0, 64, 0
2, 51504, Note_on_c, 0, 76, 77
2, 51524, Note_on_c, 0, 76, 0
2, 51552, Note_on_c, 0, 75, 77
2, 51575, Note_on_c, 0, 75, 0
2, 51576, Note_on_c, 0, 71, 77
2, 51599, Note_on_c, 0, 71, 0
2, 51600, Note_on_c, 0, 76, 77
2, 51623, Note_on_c, 0, 76, 0
2, 51624, Note_on_c, 0, 71, 77
2, 51647, Note_on_c, 0, 71, 0
2, 51648, Note_on_c, 0, 78, 77
2, 51671, Note_on_c, 0, 78, 0
2, 51672, Note_on_c, 0, 71, 77
2, 51695, Note_on_c, 0, 71, 0
2, 51696, Note_on_c, 0, 79, 77
2, 51719, Note_on_c, 0, 79, 0
2, 51720, Note_on_c, 0, 71, 77
2, 51743, Note_on_c, 0, 71, 0
2, 51744, Note_on_c, 0, 78, 77
2, 51767, Note_on_c, 0, 78, 0
2, 51768, Note_on_c, 0, 71, 77
2, 51791, Note_on_c, 0, 71, 0
2, 51792, Note_on_c, 0, 83, 77
2, 51815, Note_on_c, 0, 83, 0
2, 51816, Note_on_c, 0, 71, 77
2, 51839, Note_on_c, 0, 71, 0
2, 51840, Note_on_c, 0, 75, 77
2, 51863, Note_on_c, 0, 75, 0
2, 51864, Note_on_c, 0, 71, 77
2, 51887, Note_on_c, 0, 71, 0
2, 51888, Note_on_c, 0, 76, 77
2, 51911, Note_on_c, 0, 76, 0
2, 51912, Note_on_c, 0, 71, 77
2, 51935, Note_on_c, 0, 71, 0
2, 51936, Note_on_c, 0, 78, 77
2, 51959, Note_on_c, 0, 78, 0
2, 51960, Note_on_c, 0, 71, 77
2, 51983, Note_on_c, 0, 71, 0
2, 51984, Note_on_c, 0, 79, 77
2, 52007, Note_on_c, 0, 79, 0
2, 52008, Note_on_c, 0, 71, 77
2, 52031, Note_on_c, 0, 71, 0
2, 52032, Note_on_c, 0, 78, 77
2, 52055, Note_on_c, 0, 78, 0
2, 52056, Note_on_c, 0, 71, 77
2, 52079, Note_on_c, 0, 71, 0
2, 52080, Note_on_c, 0, 83, 77
2, 52100, Note_on_c, 0, 83, 0
2, 52128, Note_on_c, 0, 83, 77
2, 52128, Note_on_c, 0, 72, 77
2, 52173, Note_on_c, 0, 83, 0
2, 52173, Note_on_c, 0, 72, 0
2, 52176, Note_on_c, 0, 81, 77
2, 52176, Note_on_c, 0, 74, 77
2, 52221, Note_on_c, 0, 81, 0
2, 52221, Note_on_c, 0, 74, 0
2, 52224, Note_on_c, 0, 79, 77
2, 52224, Note_on_c, 0, 76, 77
2, 52269, Note_on_c, 0, 79, 0
2, 52269, Note_on_c, 0, 76, 0
2, 52272, Note_on_c, 0, 78, 77
2, 52272, Note_on_c, 0, 76, 77
2, 52317, Note_on_c, 0, 78, 0
2, 52317, Note_on_c, 0, 76, 0
2, 52320, Note_on_c, 0, 79, 77
2, 52320, Note_on_c, 0, 74, 77
2, 52365, Note_on_c, 0, 79, 0
2, 52365, Note_on_c, 0, 74, 0
2, 52368, Note_on_c, 0, 81, 77
2, 52368, Note_on_c, 0, 72, 77
2, 52413, Note_on_c, 0, 81, 0
2, 52413, Note_on_c, 0, 72, 0
2, 52416, Note_on_c, 0, 81, 77
2, 52416, Note_on_c, 0, 71, 77
2, 52461, Note_on_c, 0, 81, 0
2, 52461, Note_on_c, 0, 71, 0
2, 52464, Note_on_c, 0, 79, 77
2, 52464, Note_on_c, 0, 72, 77
2, 52509, Note_on_c, 0, 79, 0
2, 52509, Note_on_c, 0, 72, 0
2, 52512, Note_on_c, 0, 78, 77
2, 52512, Note_on_c, 0, 74, 77
2, 52557, Note_on_c, 0, 78, 0
2, 52557, Note_on_c, 0, 74, 0
2, 52560, Note_on_c, 0, 76, 77
2, 52560, Note_on_c, 0, 74, 77
2, 52605, Note_on_c, 0, 76, 0
2, 52605, Note_on_c, 0, 74, 0
2, 52608, Note_on_c, 0, 78, 77
2, 52608, Note_on_c, 0, 72, 77
2, 52653, Note_on_c, 0, 78, 0
2, 52653, Note_on_c, 0, 72, 0
2, 52656, Note_on_c, 0, 79, 77
2, 52656, Note_on_c, 0, 71, 77
2, 52701, Note_on_c, 0, 79, 0
2, 52701, Note_on_c, 0, 71, 0
2, 52704, Note_on_c, 0, 79, 77
2, 52704, Note_on_c, 0, 69, 77
2, 52749, Note_on_c, 0, 79, 0
2, 52749, Note_on_c, 0, 69, 0
2, 52752, Note_on_c, 0, 78, 77
2, 52752, Note_on_c, 0, 71, 77
2, 52797, Note_on_c, 0, 78, 0
2, 52797, Note_on_c, 0, 71, 0
2, 52800, Note_on_c, 0, 76, 77
2, 52800, Note_on_c, 0, 72, 77
2, 52845, Note_on_c, 0, 76, 0
2, 52845, Note_on_c, 0, 72, 0
2, 52848, Note_on_c, 0, 75, 77
2, 52848, Note_on_c, 0, 72, 77
2, 52893, Note_on_c, 0, 75, 0
2, 52893, Note_on_c, 0, 72, 0
2, 52896, Note_on_c, 0, 76, 77
2, 52896, Note_on_c, 0, 71, 77
2, 52941, Note_on_c, 0, 76, 0
2, 52941, Note_on_c, 0, 71, 0
2, 52944, Note_on_c, 0, 78, 77
2, 52944, Note_on_c, 0, 69, 77
2, 52989, Note_on_c, 0, 78, 0
2, 52989, Note_on_c, 0, 69, 0
2, 52992, Note_on_c, 0, 78, 77
2, 52992, Note_on_c, 0, 67, 77
2, 53125, Note_on_c, 0, 78, 0
2, 53125, Note_on_c, 0, 67, 0
2, 53136, Note_on_c, 0, 76, 77
2, 53136, Note_on_c, 0, 67, 77
2, 53269, Note_on_c, 0, 76, 0
2, 53269, Note_on_c, 0, 67, 0
2, 53280, Note_on_c, 0, 76, 77
2, 53280, Note_on_c, 0, 65, 77
2, 53413, Note_on_c, 0, 76, 0
2, 53413, Note_on_c, 0, 65, 0
2, 53424, Note_on_c, 0, 74, 77
2, 53424, Note_on_c, 0, 65, 77
2, 53557, Note_on_c, 0, 74, 0
2, 53557, Note_on_c, 0, 65, 0
2, 53568, Note_on_c, 0, 64, 77
2, 53591, Note_on_c, 0, 64, 0
2, 53592, Note_on_c, 0, 71, 77
2, 53615, Note_on_c, 0, 71, 0
2, 53616, Note_on_c, 0, 74, 77
2, 53639, Note_on_c, 0, 74, 0
2, 53640, Note_on_c, 0, 71, 77
2, 53663, Note_on_c, 0, 71, 0
2, 53664, Note_on_c, 0, 74, 77
2, 53687, Note_on_c, 0, 74, 0
2, 53688, Note_on_c, 0, 71, 77
2, 53711, Note_on_c, 0, 71, 0
2, 53712, Note_on_c, 0, 64, 77
2, 53735, Note_on_c, 0, 64, 0
2, 53736, Note_on_c, 0, 69, 77
2, 53759, Note_on_c, 0, 69, 0
2, 53760, Note_on_c, 0, 72, 77
2, 53783, Note_on_c, 0, 72, 0
2, 53784, Note_on_c, 0, 69, 77
2, 53807, Note_on_c, 0, 69, 0
2, 53808, Note_on_c, 0, 72, 77
2, 53831, Note_on_c, 0, 72, 0
2, 53832, Note_on_c, 0, 69, 77
2, 53855, Note_on_c, 0, 69, 0
2, 53856, Note_on_c, 0, 62, 77
2, 53879, Note_on_c, 0, 62, 0
2, 53880, Note_on_c, 0, 69, 77
2, 53903, Note_on_c, 0, 69, 0
2, 53904, Note_on_c, 0, 72, 77
2, 53927, Note_on_c, 0, 72, 0
2, 53928, Note_on_c, 0, 69, 77
2, 53951, Note_on_c, 0, 69, 0
2, 53952, Note_on_c, 0, 72, 77
2, 53975, Note_on_c, 0, 72, 0
2, 53976, Note_on_c, 0, 69, 77
2, 53999, Note_on_c, 0, 69, 0
2, 54000, Note_on_c, 0, 62, 77
2, 54023, Note_on_c, 0, 62, 0
2, 54024, Note_on_c, 0, 67, 77
2, 54047, Note_on_c, 0, 67, 0
2, 54048, Note_on_c, 0, 71, 77
2, 54071, Note_on_c, 0, 71, 0
2, 54072, Note_on_c, 0, 67, 77
2, 54095, Note_on_c, 0, 67, 0
2, 54096, Note_on_c, 0, 71, 77
2, 54119, Note_on_c, 0, 71, 0
2, 54120, Note_on_c, 0, 67, 77
2, 54143, Note_on_c, 0, 67, 0
2, 54144, Note_on_c, 0, 69, 77
2, 54144, Note_on_c, 0, 66, 77
2, 54189, Note_on_c, 0, 69, 0
2, 54189, Note_on_c, 0, 66, 0
2, 54192, Note_on_c, 0, 74, 77
2, 54192, Note_on_c, 0, 66, 77
2, 54237, Note_on_c, 0, 74, 0
2, 54237, Note_on_c, 0, 66, 0
2, 54240, Note_on_c, 0, 74, 77
2, 54240, Note_on_c, 0, 66, 77
2, 54285, Note_on_c, 0, 74, 0
2, 54285, Note_on_c, 0, 66, 0
2, 54288, Note_on_c, 0, 74, 77
2, 54288, Note_on_c, 0, 66, 77
2, 54377, Note_on_c, 0, 74, 0
2, 54377, Note_on_c, 0, 66, 0
2, 54480, Note_on_c, 0, 79, 77
2, 54528, Note_on_c, 0, 79, 0
2, 54528, Note_on_c, 0, 67, 77
2, 54573, Note_on_c, 0, 67, 0
2, 54624, Note_on_c, 0, 79, 77
2, 54647, Note_on_c, 0, 79, 0
2, 54648, Note_on_c, 0, 81, 77
2, 54671, Note_on_c, 0, 81, 0
2, 54672, Note_on_c, 0, 79, 77
2, 54692, Note_on_c, 0, 79, 0
2, 54768, Note_on_c, 0, 81, 77
2, 54768, Note_on_c, 0, 79, 77
2, 54816, Note_on_c, 0, 81, 0
2, 54816, Note_on_c, 0, 79, 0
2, 54816, Note_on_c, 0, 69, 77
2, 54816, Note_on_c, 0, 67, 77
2, 54861, Note_on_c, 0, 69, 0
2, 54861, Note_on_c, 0, 67, 0
2, 54912, Note_on_c, 0, 81, 77
2, 54935, Note_on_c, 0, 81, 0
2, 54936, Note_on_c, 0, 82, 77
2, 54959, Note_on_c, 0, 82, 0
2, 54960, Note_on_c, 0, 81, 77
2, 55005, Note_on_c, 0, 81, 0
2, 55056, Note_on_c, 0, 82, 77
2, 55056, Note_on_c, 0, 79, 77
2, 55101, Note_on_c, 0, 82, 0
2, 55101, Note_on_c, 0, 79, 0
2, 55104, Note_on_c, 0, 82, 77
2, 55104, Note_on_c, 0, 79, 77
2, 55149, Note_on_c, 0, 82, 0
2, 55149, Note_on_c, 0, 79, 0
2, 55200, Note_on_c, 0, 86, 77
2, 55200, Note_on_c, 0, 82, 77
2, 55248, Note_on_c, 0, 86, 0
2, 55248, Note_on_c, 0, 82, 0
2, 55248, Note_on_c, 0, 74, 77
2, 55248, Note_on_c, 0, 70, 77
2, 55293, Note_on_c, 0, 74, 0
2, 55293, Note_on_c, 0, 70, 0
2, 55344, Note_on_c, 0, 87, 77
2, 55344, Note_on_c, 0, 84, 77
2, 55367, Note_on_c, 0, 87, 0
2, 55367, Note_on_c, 0, 84, 0
2, 55368, Note_on_c, 0, 86, 77
2, 55368, Note_on_c, 0, 83, 77
2, 55391, Note_on_c, 0, 86, 0
2, 55391, Note_on_c, 0, 83, 0
2, 55392, Note_on_c, 0, 87, 77
2, 55392, Note_on_c, 0, 84, 77
2, 55437, Note_on_c, 0, 87, 0
2, 55437, Note_on_c, 0, 84, 0
2, 55488, Note_on_c, 0, 84, 77
2, 55488, Note_on_c, 0, 81, 77
2, 55536, Note_on_c, 0, 84, 0
2, 55536, Note_on_c, 0, 81, 0
2, 55536, Note_on_c, 0, 72, 77
2, 55536, Note_on_c, 0, 69, 77
2, 55581, Note_on_c, 0, 72, 0
2, 55581, Note_on_c, 0, 69, 0
2, 55632, Note_on_c, 0, 86, 77
2, 55632, Note_on_c, 0, 82, 77
2, 55655, Note_on_c, 0, 86, 0
2, 55655, Note_on_c, 0, 82, 0
2, 55656, Note_on_c, 0, 85, 77
2, 55656, Note_on_c, 0, 81, 77
2, 55679, Note_on_c, 0, 85, 0
2, 55679, Note_on_c, 0, 81, 0
2, 55680, Note_on_c, 0, 86, 77
2, 55680, Note_on_c, 0, 82, 77
2, 55700, Note_on_c, 0, 86, 0
2, 55700, Note_on_c, 0, 82, 0
2, 55776, Note_on_c, 0, 82, 77
2, 55776, Note_on_c, 0, 79, 77
2, 55824, Note_on_c, 0, 82, 0
2, 55824, Note_on_c, 0, 79, 0
2, 55824, Note_on_c, 0, 70, 77
2, 55824, Note_on_c, 0, 67, 77
2, 55869, Note_on_c, 0, 70, 0
2, 55869, Note_on_c, 0, 67, 0
2, 55920, Note_on_c, 0, 84, 77
2, 55920, Note_on_c, 0, 81, 77
2, 55943, Note_on_c, 0, 84, 0
2, 55943, Note_on_c, 0, 81, 0
2, 55944, Note_on_c, 0, 82, 77
2, 55944, Note_on_c, 0, 79, 77
2, 55967, Note_on_c, 0, 82, 0
2, 55967, Note_on_c, 0, 79, 0
2, 55968, Note_on_c, 0, 84, 77
2, 55968, Note_on_c, 0, 81, 77
2, 55988, Note_on_c, 0, 84, 0
2, 55988, Note_on_c, 0, 81, 0
2, 56064, Note_on_c, 0, 81, 77
2, 56064, Note_on_c, 0, 78, 77
2, 56112, Note_on_c, 0, 81, 0
2, 56112, Note_on_c, 0, 78, 0
2, 56112, Note_on_c, 0, 69, 77
2, 56112, Note_on_c, 0, 66, 77
2, 56157, Note_on_c, 0, 69, 0
2, 56157, Note_on_c, 0, 66, 0
2, 56208, Note_on_c, 0, 82, 77
2, 56253, Note_on_c, 0, 82, 0
2, 56256, Note_on_c, 0, 82, 77
2, 56301, Note_on_c, 0, 82, 0
2, 56352, Note_on_c, 0, 83, 77
2, 56397, Note_on_c, 0, 83, 0
2, 56400, Note_on_c, 0, 83, 77
2, 56445, Note_on_c, 0, 83, 0
2, 56496, Note_on_c, 0, 84, 77
2, 56541, Note_on_c, 0, 84, 0
2, 56544, Note_on_c, 0, 84, 77
2, 56589, Note_on_c, 0, 84, 0
2, 56640, Note_on_c, 0, 85, 77
2, 56685, Note_on_c, 0, 85, 0
2, 56688, Note_on_c, 0, 85, 77
2, 56733, Note_on_c, 0, 85, 0
2, 56784, Note_on_c, 0, 86, 77
2, 56829, Note_on_c, 0, 86, 0
2, 56832, Note_on_c, 0, 86, 77
2, 56877, Note_on_c, 0, 86, 0
2, 56880, Note_on_c, 0, 74, 77
2, 56903, Note_on_c, 0, 74, 0
2, 56904, Note_on_c, 0, 78, 77
2, 56927, Note_on_c, 0, 78, 0
2, 56928, Note_on_c, 0, 86, 77
2, 56951, Note_on_c, 0, 86, 0
2, 56952, Note_on_c, 0, 78, 77
2, 56975, Note_on_c, 0, 78, 0
2, 56976, Note_on_c, 0, 86, 77
2, 56999, Note_on_c, 0, 86, 0
2, 57000, Note_on_c, 0, 78, 77
2, 57023, Note_on_c, 0, 78, 0
2, 57024, Note_on_c, 0, 76, 77
2, 57047, Note_on_c, 0, 76, 0
2, 57048, Note_on_c, 0, 79, 77
2, 57071, Note_on_c, 0, 79, 0
2, 57072, Note_on_c, 0, 85, 77
2, 57095, Note_on_c, 0, 85, 0
2, 57096, Note_on_c, 0, 79, 77
2, 57119, Note_on_c, 0, 79, 0
2, 57120, Note_on_c, 0, 85, 77
2, 57143, Note_on_c, 0, 85, 0
2, 57144, Note_on_c, 0, 79, 77
2, 57167, Note_on_c, 0, 79, 0
2, 57168, Note_on_c, 0, 74, 77
2, 57191, Note_on_c, 0, 74, 0
2, 57192, Note_on_c, 0, 78, 77
2, 57215, Note_on_c, 0, 78, 0
2, 57216, Note_on_c, 0, 84, 77
2, 57239, Note_on_c, 0, 84, 0
2, 57240, Note_on_c, 0, 78, 77
2, 57263, Note_on_c, 0, 78, 0
2, 57264, Note_on_c, 0, 84, 77
2, 57287, Note_on_c, 0, 84, 0
2, 57288, Note_on_c, 0, 78, 77
2, 57311, Note_on_c, 0, 78, 0
2, 57312, Note_on_c, 0, 79, 77
2, 57357, Note_on_c, 0, 79, 0
2, 57360, Note_on_c, 0, 79, 77
2, 57408, Note_on_c, 0, 79, 0
2, 57408, Note_on_c, 0, 67, 77
2, 57453, Note_on_c, 0, 67, 0
2, 57504, Note_on_c, 0, 79, 77
2, 57527, Note_on_c, 0, 79, 0
2, 57528, Note_on_c, 0, 81, 77
2, 57551, Note_on_c, 0, 81, 0
2, 57552, Note_on_c, 0, 79, 77
2, 57572, Note_on_c, 0, 79, 0
2, 57648, Note_on_c, 0, 79, 77
2, 57696, Note_on_c, 0, 79, 0
2, 57696, Note_on_c, 0, 67, 77
2, 57741, Note_on_c, 0, 67, 0
2, 57792, Note_on_c, 0, 79, 77
2, 57815, Note_on_c, 0, 79, 0
2, 57816, Note_on_c, 0, 81, 77
2, 57839, Note_on_c, 0, 81, 0
2, 57840, Note_on_c, 0, 79, 77
2, 57860, Note_on_c, 0, 79, 0
2, 57936, Note_on_c, 0, 79, 77
2, 57984, Note_on_c, 0, 79, 0
2, 57984, Note_on_c, 0, 67, 77
2, 58029, Note_on_c, 0, 67, 0
2, 58080, Note_on_c, 0, 78, 77
2, 58103, Note_on_c, 0, 78, 0
2, 58104, Note_on_c, 0, 79, 77
2, 58127, Note_on_c, 0, 79, 0
2, 58128, Note_on_c, 0, 83, 77
2, 58151, Note_on_c, 0, 83, 0
2, 58152, Note_on_c, 0, 79, 77
2, 58175, Note_on_c, 0, 79, 0
2, 58176, Note_on_c, 0, 76, 77
2, 58196, Note_on_c, 0, 76, 0
2, 58224, Note_on_c, 0, 80, 77
2, 58247, Note_on_c, 0, 80, 0
2, 58248, Note_on_c, 0, 81, 77
2, 58271, Note_on_c, 0, 81, 0
2, 58272, Note_on_c, 0, 84, 77
2, 58295, Note_on_c, 0, 84, 0
2, 58296, Note_on_c, 0, 81, 77
2, 58319, Note_on_c, 0, 81, 0
2, 58320, Note_on_c, 0, 74, 77
2, 58365, Note_on_c, 0, 74, 0
2, 58368, Note_on_c, 0, 86, 77
2, 58368, Note_on_c, 0, 74, 77
2, 58413, Note_on_c, 0, 86, 0
2, 58413, Note_on_c, 0, 74, 0
2, 58416, Note_on_c, 0, 84, 77
2, 58416, Note_on_c, 0, 72, 77
2, 58461, Note_on_c, 0, 84, 0
2, 58461, Note_on_c, 0, 72, 0
2, 58464, Note_on_c, 0, 84, 77
2, 58464, Note_on_c, 0, 72, 77
2, 58509, Note_on_c, 0, 84, 0
2, 58509, Note_on_c, 0, 72, 0
2, 58512, Note_on_c, 0, 83, 77
2, 58512, Note_on_c, 0, 71, 77
2, 58557, Note_on_c, 0, 83, 0
2, 58557, Note_on_c, 0, 71, 0
2, 58560, Note_on_c, 0, 81, 77
2, 58560, Note_on_c, 0, 69, 77
2, 58605, Note_on_c, 0, 81, 0
2, 58605, Note_on_c, 0, 69, 0
2, 58608, Note_on_c, 0, 67, 77
2, 58628, Note_on_c, 0, 67, 0
2, 58656, Note_on_c, 0, 78, 77
2, 58679, Note_on_c, 0, 78, 0
2, 58680, Note_on_c, 0, 79, 77
2, 58703, Note_on_c, 0, 79, 0
2, 58704, Note_on_c, 0, 83, 77
2, 58727, Note_on_c, 0, 83, 0
2, 58728, Note_on_c, 0, 79, 77
2, 58751, Note_on_c, 0, 79, 0
2, 58752, Note_on_c, 0, 76, 77
2, 58772, Note_on_c, 0, 76, 0
2, 58800, Note_on_c, 0, 80, 77
2, 58823, Note_on_c, 0, 80, 0
2, 58824, Note_on_c, 0, 81, 77
2, 58847, Note_on_c, 0, 81, 0
2, 58848, Note_on_c, 0, 84, 77
2, 58871, Note_on_c, 0, 84, 0
2, 58872, Note_on_c, 0, 81, 77
2, 58895, Note_on_c, 0, 81, 0
2, 58896, Note_on_c, 0, 74, 77
2, 58941, Note_on_c, 0, 74, 0
2, 58944, Note_on_c, 0, 86, 77
2, 58944, Note_on_c, 0, 74, 77
2, 58989, Note_on_c, 0, 86, 0
2, 58989, Note_on_c, 0, 74, 0
2, 58992, Note_on_c, 0, 84, 77
2, 58992, Note_on_c, 0, 72, 77
2, 59037, Note_on_c, 0, 84, 0
2, 59037, Note_on_c, 0, 72, 0
2, 59040, Note_on_c, 0, 83, 77
2, 59040, Note_on_c, 0, 71, 77
2, 59173, Note_on_c, 0, 83, 0
2, 59173, Note_on_c, 0, 71, 0
2, 59232, Note_on_c, 0, 78, 77
2, 59255, Note_on_c, 0, 78, 0
2, 59256, Note_on_c, 0, 79, 77
2, 59279, Note_on_c, 0, 79, 0
2, 59280, Note_on_c, 0, 83, 77
2, 59303, Note_on_c, 0, 83, 0
2, 59304, Note_on_c, 0, 79, 77
2, 59327, Note_on_c, 0, 79, 0
2, 59328, Note_on_c, 0, 76, 77
2, 59348, Note_on_c, 0, 76, 0
2, 59376, Note_on_c, 0, 80, 77
2, 59399, Note_on_c, 0, 80, 0
2, 59400, Note_on_c, 0, 81, 77
2, 59423, Note_on_c, 0, 81, 0
2, 59424, Note_on_c, 0, 84, 77
2, 59447, Note_on_c, 0, 84, 0
2, 59448, Note_on_c, 0, 81, 77
2, 59471, Note_on_c, 0, 81, 0
2, 59472, Note_on_c, 0, 74, 77
2, 59517, Note_on_c, 0, 74, 0
2, 59520, Note_on_c, 0, 86, 77
2, 59565, Note_on_c, 0, 86, 0
2, 59568, Note_on_c, 0, 84, 77
2, 59568, Note_on_c, 0, 81, 77
2, 59613, Note_on_c, 0, 84, 0
2, 59613, Note_on_c, 0, 81, 0
2, 59616, Note_on_c, 0, 84, 77
2, 59616, Note_on_c, 0, 81, 77
2, 59661, Note_on_c, 0, 84, 0
2, 59661, Note_on_c, 0, 81, 0
2, 59664, Note_on_c, 0, 83, 77
2, 59664, Note_on_c, 0, 79, 77
2, 59709, Note_on_c, 0, 83, 0
2, 59709, Note_on_c, 0, 79, 0
2, 59712, Note_on_c, 0, 81, 77
2, 59712, Note_on_c, 0, 78, 77
2, 59757, Note_on_c, 0, 81, 0
2, 59757, Note_on_c, 0, 78, 0
2, 59760, Note_on_c, 0, 74, 77
2, 59805, Note_on_c, 0, 74, 0
2, 59808, Note_on_c, 0, 84, 77
2, 59853, Note_on_c, 0, 84, 0
2, 59856, Note_on_c, 0, 83, 77
2, 59901, Note_on_c, 0, 83, 0
2, 59904, Note_on_c, 0, 83, 77
2, 59949, Note_on_c, 0, 83, 0
2, 59952, Note_on_c, 0, 81, 77
2, 59997, Note_on_c, 0, 81, 0
2, 60000, Note_on_c, 0, 79, 77
2, 60045, Note_on_c, 0, 79, 0
2, 60048, Note_on_c, 0, 74, 77
2, 60093, Note_on_c, 0, 74, 0
2, 60096, Note_on_c, 0, 86, 77
2, 60141, Note_on_c, 0, 86, 0
2, 60144, Note_on_c, 0, 84, 77
2, 60144, Note_on_c, 0, 81, 77
2, 60189, Note_on_c, 0, 84, 0
2, 60189, Note_on_c, 0, 81, 0
2, 60192, Note_on_c, 0, 84, 77
2, 60192, Note_on_c, 0, 81, 77
2, 60237, Note_on_c, 0, 84, 0
2, 60237, Note_on_c, 0, 81, 0
2, 60240, Note_on_c, 0, 83, 77
2, 60240, Note_on_c, 0, 79, 77
2, 60285, Note_on_c, 0, 83, 0
2, 60285, Note_on_c, 0, 79, 0
2, 60288, Note_on_c, 0, 81, 77
2, 60288, Note_on_c, 0, 78, 77
2, 60333, Note_on_c, 0, 81, 0
2, 60333, Note_on_c, 0, 78, 0
2, 60336, Note_on_c, 0, 74, 77
2, 60381, Note_on_c, 0, 74, 0
2, 60384, Note_on_c, 0, 84, 77
2, 60429, Note_on_c, 0, 84, 0
2, 60432, Note_on_c, 0, 83, 77
2, 60477, Note_on_c, 0, 83, 0
2, 60480, Note_on_c, 0, 83, 77
2, 60525, Note_on_c, 0, 83, 0
2, 60528, Note_on_c, 0, 81, 77
2, 60573, Note_on_c, 0, 81, 0
2, 60576, Note_on_c, 0, 79, 77
2, 60621, Note_on_c, 0, 79, 0
2, 60624, Note_on_c, 0, 78, 77
2, 60647, Note_on_c, 0, 78, 0
2, 60648, Note_on_c, 0, 74, 77
2, 60671, Note_on_c, 0, 74, 0
2, 60672, Note_on_c, 0, 78, 77
2, 60695, Note_on_c, 0, 78, 0
2, 60696, Note_on_c, 0, 74, 77
2, 60719, Note_on_c, 0, 74, 0
2, 60720, Note_on_c, 0, 79, 77
2, 60765, Note_on_c, 0, 79, 0
2, 60768, Note_on_c, 0, 84, 77
2, 60813, Note_on_c, 0, 84, 0
2, 60816, Note_on_c, 0, 84, 77
2, 60861, Note_on_c, 0, 84, 0
2, 60864, Note_on_c, 0, 83, 77
2, 60909, Note_on_c, 0, 83, 0
2, 61056, Note_on_c, 0, 84, 77
2, 61101, Note_on_c, 0, 84, 0
2, 61104, Note_on_c, 0, 84, 77
2, 61149, Note_on_c, 0, 84, 0
2, 61152, Note_on_c, 0, 83, 77
2, 61197, Note_on_c, 0, 83, 0
2, 61344, Note_on_c, 0, 84, 77
2, 61389, Note_on_c, 0, 84, 0
2, 61392, Note_on_c, 0, 84, 77
2, 61437, Note_on_c, 0, 84, 0
2, 61440, Note_on_c, 0, 83, 77
2, 61485, Note_on_c, 0, 83, 0
2, 61488, Note_on_c, 0, 84, 77
2, 61533, Note_on_c, 0, 84, 0
2, 61536, Note_on_c, 0, 84, 77
2, 61581, Note_on_c, 0, 84, 0
2, 61584, Note_on_c, 0, 83, 77
2, 61629, Note_on_c, 0, 83, 0
2, 61632, Note_on_c, 0, 81, 77
2, 61677, Note_on_c, 0, 81, 0
2, 61680, Note_on_c, 0, 86, 77
2, 61725, Note_on_c, 0, 86, 0
2, 61728, Note_on_c, 0, 86, 77
2, 61773, Note_on_c, 0, 86, 0
2, 61776, Note_on_c, 0, 86, 77
2, 61865, Note_on_c, 0, 86, 0
2, 61920, Note_on_c, 0, 67, 77
2, 61920, Note_on_c, 0, 59, 77
2, 61959, Note_on_c, 0, 67, 0
2, 61959, Note_on_c, 0, 59, 0
2, 62064, Note_on_c, 0, 72, 77
2, 62064, Note_on_c, 0, 64, 77
2, 62103, Note_on_c, 0, 72, 0
2, 62103, Note_on_c, 0, 64, 0
2, 62208, Note_on_c, 0, 71, 77
2, 62208, Note_on_c, 0, 62, 77
2, 62247, Note_on_c, 0, 71, 0
2, 62247, Note_on_c, 0, 62, 0
2, 62352, Note_on_c, 0, 66, 77
2, 62352, Note_on_c, 0, 60, 77
2, 62391, Note_on_c, 0, 66, 0
2, 62391, Note_on_c, 0, 60, 0
2, 62496, Note_on_c, 0, 67, 77
2, 62496, Note_on_c, 0, 59, 77
2, 62535, Note_on_c, 0, 67, 0
2, 62535, Note_on_c, 0, 59, 0
2, 62640, Note_on_c, 0, 72, 77
2, 62640, Note_on_c, 0, 64, 77
2, 62679, Note_on_c, 0, 72, 0
2, 62679, Note_on_c, 0, 64, 0
2, 62784, Note_on_c, 0, 71, 77
2, 62784, Note_on_c, 0, 62, 77
2, 62823, Note_on_c, 0, 71, 0
2, 62823, Note_on_c, 0, 62, 0
2, 62928, Note_on_c, 0, 66, 77
2, 62928, Note_on_c, 0, 60, 77
2, 62967, Note_on_c, 0, 66, 0
2, 62967, Note_on_c, 0, 60, 0
2, 63072, Note_on_c, 0, 67, 77
2, 63072, Note_on_c, 0, 59, 77
2, 63111, Note_on_c, 0, 67, 0
2, 63111, Note_on_c, 0, 59, 0
2, 63216, Note_on_c, 0, 71, 77
2, 63216, Note_on_c, 0, 67, 77
2, 63255, Note_on_c, 0, 71, 0
2, 63255, Note_on_c, 0, 67, 0
2, 63360, Note_on_c, 0, 69, 77
2, 63360, Note_on_c, 0, 67, 77
2, 63399, Note_on_c, 0, 69, 0
2, 63399, Note_on_c, 0, 67, 0
2, 63504, Note_on_c, 0, 76, 77
2, 63504, Note_on_c, 0, 67, 77
2, 63543, Note_on_c, 0, 76, 0
2, 63543, Note_on_c, 0, 67, 0
2, 63648, Note_on_c, 0, 66, 77
2, 63671, Note_on_c, 0, 66, 0
2, 63672, Note_on_c, 0, 62, 77
2, 63695, Note_on_c, 0, 62, 0
2, 63696, Note_on_c, 0, 67, 77
2, 63719, Note_on_c, 0, 67, 0
2, 63720, Note_on_c, 0, 62, 77
2, 63743, Note_on_c, 0, 62, 0
2, 63744, Note_on_c, 0, 69, 77
2, 63767, Note_on_c, 0, 69, 0
2, 63768, Note_on_c, 0, 62, 77
2, 63791, Note_on_c, 0, 62, 0
2, 63792, Note_on_c, 0, 71, 77
2, 63815, Note_on_c, 0, 71, 0
2, 63816, Note_on_c, 0, 62, 77
2, 63839, Note_on_c, 0, 62, 0
2, 63840, Note_on_c, 0, 69, 77
2, 63863, Note_on_c, 0, 69, 0
2, 63864, Note_on_c, 0, 62, 77
2, 63887, Note_on_c, 0, 62, 0
2, 63888, Note_on_c, 0, 74, 77
2, 63911, Note_on_c, 0, 74, 0
2, 63912, Note_on_c, 0, 62, 77
2, 63935, Note_on_c, 0, 62, 0
2, 63936, Note_on_c, 0, 66, 77
2, 63959, Note_on_c, 0, 66, 0
2, 63960, Note_on_c, 0, 62, 77
2, 63983, Note_on_c, 0, 62, 0
2, 63984, Note_on_c, 0, 67, 77
2, 64007, Note_on_c, 0, 67, 0
2, 64008, Note_on_c, 0, 62, 77
2, 64031, Note_on_c, 0, 62, 0
2, 64032, Note_on_c, 0, 69, 77
2, 64055, Note_on_c, 0, 69, 0
2, 64056, Note_on_c, 0, 62, 77
2, 64079, Note_on_c, 0, 62, 0
2, 64080, Note_on_c, 0, 71, 77
2, 64103, Note_on_c, 0, 71, 0
2, 64104, Note_on_c, 0, 62, 77
2, 64127, Note_on_c, 0, 62, 0
2, 64128, Note_on_c, 0, 69, 77
2, 64151, Note_on_c, 0, 69, 0
2, 64152, Note_on_c, 0, 62, 77
2, 64175, Note_on_c, 0, 62, 0
2, 64176, Note_on_c, 0, 74, 77
2, 64199, Note_on_c, 0, 74, 0
2, 64200, Note_on_c, 0, 62, 77
2, 64223, Note_on_c, 0, 62, 0
2, 64224, Note_on_c, 0, 66, 77
2, 64247, Note_on_c, 0, 66, 0
2, 64248, Note_on_c, 0, 62, 77
2, 64271, Note_on_c, 0, 62, 0
2, 64272, Note_on_c, 0, 67, 77
2, 64295, Note_on_c, 0, 67, 0
2, 64296, Note_on_c, 0, 62, 77
2, 64319, Note_on_c, 0, 62, 0
2, 64320, Note_on_c, 0, 69, 77
2, 64343, Note_on_c, 0, 69, 0
2, 64344, Note_on_c, 0, 62, 77
2, 64367, Note_on_c, 0, 62, 0
2, 64368, Note_on_c, 0, 71, 77
2, 64391, Note_on_c, 0, 71, 0
2, 64392, Note_on_c, 0, 62, 77
2, 64415, Note_on_c, 0, 62, 0
2, 64416, Note_on_c, 0, 72, 77
2, 64439, Note_on_c, 0, 72, 0
2, 64440, Note_on_c, 0, 62, 77
2, 64463, Note_on_c, 0, 62, 0
2, 64464, Note_on_c, 0, 74, 77
2, 64487, Note_on_c, 0, 74, 0
2, 64488, Note_on_c, 0, 62, 77
2, 64511, Note_on_c, 0, 62, 0
2, 64512, Note_on_c, 0, 76, 77
2, 64535, Note_on_c, 0, 76, 0
2, 64536, Note_on_c, 0, 72, 77
2, 64559, Note_on_c, 0, 72, 0
2, 64560, Note_on_c, 0, 71, 77
2, 64583, Note_on_c, 0, 71, 0
2, 64584, Note_on_c, 0, 69, 77
2, 64607, Note_on_c, 0, 69, 0
2, 64608, Note_on_c, 0, 68, 77
2, 64631, Note_on_c, 0, 68, 0
2, 64632, Note_on_c, 0, 69, 77
2, 64655, Note_on_c, 0, 69, 0
2, 64656, Note_on_c, 0, 74, 77
2, 64679, Note_on_c, 0, 74, 0
2, 64680, Note_on_c, 0, 71, 77
2, 64703, Note_on_c, 0, 71, 0
2, 64704, Note_on_c, 0, 69, 77
2, 64727, Note_on_c, 0, 69, 0
2, 64728, Note_on_c, 0, 67, 77
2, 64751, Note_on_c, 0, 67, 0
2, 64752, Note_on_c, 0, 66, 77
2, 64775, Note_on_c, 0, 66, 0
2, 64776, Note_on_c, 0, 67, 77
2, 64799, Note_on_c, 0, 67, 0
2, 64800, Note_on_c, 0, 79, 77
2, 64823, Note_on_c, 0, 79, 0
2, 64824, Note_on_c, 0, 81, 77
2, 64847, Note_on_c, 0, 81, 0
2, 64848, Note_on_c, 0, 79, 77
2, 64871, Note_on_c, 0, 79, 0
2, 64872, Note_on_c, 0, 78, 77
2, 64895, Note_on_c, 0, 78, 0
2, 64896, Note_on_c, 0, 76, 77
2, 64919, Note_on_c, 0, 76, 0
2, 64920, Note_on_c, 0, 74, 77
2, 64943, Note_on_c, 0, 74, 0
2, 64944, Note_on_c, 0, 73, 77
2, 64967, Note_on_c, 0, 73, 0
2, 64968, Note_on_c, 0, 71, 77
2, 64991, Note_on_c, 0, 71, 0
2, 64992, Note_on_c, 0, 69, 77
2, 65015, Note_on_c, 0, 69, 0
2, 65088, Note_on_c, 0, 84, 77
2, 65111, Note_on_c, 0, 84, 0
2, 65112, Note_on_c, 0, 86, 77
2, 65135, Note_on_c, 0, 86, 0
2, 65136, Note_on_c, 0, 84, 77
2, 65159, Note_on_c, 0, 84, 0
2, 65160, Note_on_c, 0, 83, 77
2, 65183, Note_on_c, 0, 83, 0
2, 65184, Note_on_c, 0, 81, 77
2, 65207, Note_on_c, 0, 81, 0
2, 65208, Note_on_c, 0, 79, 77
2, 65231, Note_on_c, 0, 79, 0
2, 65232, Note_on_c, 0, 78, 77
2, 65255, Note_on_c, 0, 78, 0
2, 65256, Note_on_c, 0, 76, 77
2, 65279, Note_on_c, 0, 76, 0
2, 65280, Note_on_c, 0, 74, 77
2, 65303, Note_on_c, 0, 74, 0
2, 65304, Note_on_c, 0, 72, 77
2, 65327, Note_on_c, 0, 72, 0
2, 65328, Note_on_c, 0, 71, 77
2, 65351, Note_on_c, 0, 71, 0
2, 65352, Note_on_c, 0, 69, 77
2, 65375, Note_on_c, 0, 69, 0
2, 65376, Note_on_c, 0, 71, 77
2, 65399, Note_on_c, 0, 71, 0
2, 65400, Note_on_c, 0, 67, 77
2, 65423, Note_on_c, 0, 67, 0
2, 65424, Note_on_c, 0, 72, 77
2, 65447, Note_on_c, 0, 72, 0
2, 65448, Note_on_c, 0, 67, 77
2, 65471, Note_on_c, 0, 67, 0
2, 65472, Note_on_c, 0, 74, 77
2, 65495, Note_on_c, 0, 74, 0
2, 65496, Note_on_c, 0, 67, 77
2, 65519, Note_on_c, 0, 67, 0
2, 65520, Note_on_c, 0, 76, 77
2, 65543, Note_on_c, 0, 76, 0
2, 65544, Note_on_c, 0, 67, 77
2, 65567, Note_on_c, 0, 67, 0
2, 65568, Note_on_c, 0, 78, 77
2, 65591, Note_on_c, 0, 78, 0
2, 65592, Note_on_c, 0, 67, 77
2, 65615, Note_on_c, 0, 67, 0
2, 65616, Note_on_c, 0, 79, 77
2, 65636, Note_on_c, 0, 79, 0
2, 65664, Note_on_c, 0, 71, 77
2, 65664, Note_on_c, 0, 67, 77
2, 65853, Note_on_c, 0, 71, 0
2, 65853, Note_on_c, 0, 67, 0
2, 65856, Note_on_c, 0, 72, 77
2, 65856, Note_on_c, 0, 69, 77
2, 65901, Note_on_c, 0, 72, 0
2, 65901, Note_on_c, 0, 69, 0
2, 65904, Note_on_c, 0, 69, 77
2, 65904, Note_on_c, 0, 66, 77
2, 65949, Note_on_c, 0, 69, 0
2, 65949, Note_on_c, 0, 66, 0
2, 65952, Note_on_c, 0, 67, 77
2, 66041, Note_on_c, 0, 67, 0
2, 66048, Note_on_c, 0, 79, 77
2, 66093, Note_on_c, 0, 79, 0
2, 66096, Note_on_c, 0, 69, 77
2, 66141, Note_on_c, 0, 69, 0
2, 66144, Note_on_c, 0, 72, 77
2, 66189, Note_on_c, 0, 72, 0
2, 66192, Note_on_c, 0, 71, 77
2, 66237, Note_on_c, 0, 71, 0
2, 66240, Note_on_c, 0, 74, 77
2, 66285, Note_on_c, 0, 74, 0
2, 66288, Note_on_c, 0, 72, 77
2, 66333, Note_on_c, 0, 72, 0
2, 66336, Note_on_c, 0, 71, 77
2, 66381, Note_on_c, 0, 71, 0
2, 66384, Note_on_c, 0, 69, 77
2, 66429, Note_on_c, 0, 69, 0
2, 66432, Note_on_c, 0, 76, 77
2, 66477, Note_on_c, 0, 76, 0
2, 66480, Note_on_c, 0, 71, 77
2, 66525, Note_on_c, 0, 71, 0
2, 66528, Note_on_c, 0, 74, 77
2, 66573, Note_on_c, 0, 74, 0
2, 66576, Note_on_c, 0, 72, 77
2, 66621, Note_on_c, 0, 72, 0
2, 66624, Note_on_c, 0, 71, 77
2, 66669, Note_on_c, 0, 71, 0
2, 66672, Note_on_c, 0, 69, 77
2, 66717, Note_on_c, 0, 69, 0
2, 66720, Note_on_c, 0, 79, 77
2, 66765, Note_on_c, 0, 79, 0
2, 66768, Note_on_c, 0, 71, 77
2, 66813, Note_on_c, 0, 71, 0
2, 66816, Note_on_c, 0, 74, 77
2, 66861, Note_on_c, 0, 74, 0
2, 66864, Note_on_c, 0, 73, 77
2, 66909, Note_on_c, 0, 73, 0
2, 66912, Note_on_c, 0, 76, 77
2, 67005, Note_on_c, 0, 76, 0
2, 67008, Note_on_c, 0, 74, 77
2, 67053, Note_on_c, 0, 74, 0
2, 67056, Note_on_c, 0, 84, 77
2, 67127, Note_on_c, 0, 84, 0
2, 67128, Note_on_c, 0, 83, 77
2, 67151, Note_on_c, 0, 83, 0
2, 67152, Note_on_c, 0, 86, 77
2, 67175, Note_on_c, 0, 86, 0
2, 67176, Note_on_c, 0, 84, 77
2, 67199, Note_on_c, 0, 84, 0
2, 67200, Note_on_c, 0, 83, 77
2, 67223, Note_on_c, 0, 83, 0
2, 67224, Note_on_c, 0, 81, 77
2, 67247, Note_on_c, 0, 81, 0
2, 67248, Note_on_c, 0, 79, 77
2, 67271, Note_on_c, 0, 79, 0
2, 67272, Note_on_c, 0, 78, 77
2, 67295, Note_on_c, 0, 78, 0
2, 67296, Note_on_c, 0, 76, 77
2, 67319, Note_on_c, 0, 76, 0
2, 67320, Note_on_c, 0, 74, 77
2, 67343, Note_on_c, 0, 74, 0
2, 67344, Note_on_c, 0, 72, 77
2, 67367, Note_on_c, 0, 72, 0
2, 67368, Note_on_c, 0, 71, 77
2, 67391, Note_on_c, 0, 71, 0
2, 67392, Note_on_c, 0, 69, 77
2, 67437, Note_on_c, 0, 69, 0
2, 67440, Note_on_c, 0, 87, 77
2, 67440, Note_on_c, 0, 83, 77
2, 67488, Note_on_c, 0, 87, 0
2, 67488, Note_on_c, 0, 83, 0
2, 67488, Note_on_c, 0, 88, 77
2, 67488, Note_on_c, 0, 84, 77
2, 67533, Note_on_c, 0, 88, 0
2, 67533, Note_on_c, 0, 84, 0
2, 67536, Note_on_c, 0, 88, 77
2, 67536, Note_on_c, 0, 84, 77
2, 67581, Note_on_c, 0, 88, 0
2, 67581, Note_on_c, 0, 84, 0
2, 67584, Note_on_c, 0, 86, 77
2, 67584, Note_on_c, 0, 83, 77
2, 67629, Note_on_c, 0, 86, 0
2, 67629, Note_on_c, 0, 83, 0
2, 67632, Note_on_c, 0, 84, 77
2, 67632, Note_on_c, 0, 81, 77
2, 67677, Note_on_c, 0, 84, 0
2, 67677, Note_on_c, 0, 81, 0
2, 67680, Note_on_c, 0, 83, 77
2, 67692, Note_on_c, 0, 83, 0
2, 67692, Note_on_c, 0, 81, 77
2, 67704, Note_on_c, 0, 81, 0
2, 67704, Note_on_c, 0, 83, 77
2, 67725, Note_on_c, 0, 83, 0
2, 67728, Note_on_c, 0, 86, 77
2, 67773, Note_on_c, 0, 86, 0
2, 67776, Note_on_c, 0, 79, 77
2, 67821, Note_on_c, 0, 79, 0
2, 67824, Note_on_c, 0, 81, 77
2, 67836, Note_on_c, 0, 81, 0
2, 67836, Note_on_c, 0, 79, 77
2, 67848, Note_on_c, 0, 79, 0
2, 67848, Note_on_c, 0, 81, 77
2, 67869, Note_on_c, 0, 81, 0
2, 67872, Note_on_c, 0, 84, 77
2, 67917, Note_on_c, 0, 84, 0
2, 67920, Note_on_c, 0, 78, 77
2, 67965, Note_on_c, 0, 78, 0
2, 67968, Note_on_c, 0, 79, 77
2, 67991, Note_on_c, 0, 79, 0
2, 67992, Note_on_c, 0, 81, 77
2, 68015, Note_on_c, 0, 81, 0
2, 68016, Note_on_c, 0, 78, 77
2, 68039, Note_on_c, 0, 78, 0
2, 68040, Note_on_c, 0, 79, 77
2, 68063, Note_on_c, 0, 79, 0
2, 68064, Note_on_c, 0, 76, 77
2, 68084, Note_on_c, 0, 76, 0
2, 68112, Note_on_c, 0, 74, 77
2, 68135, Note_on_c, 0, 74, 0
2, 68136, Note_on_c, 0, 76, 77
2, 68159, Note_on_c, 0, 76, 0
2, 68160, Note_on_c, 0, 72, 77
2, 68183, Note_on_c, 0, 72, 0
2, 68184, Note_on_c, 0, 74, 77
2, 68207, Note_on_c, 0, 74, 0
2, 68208, Note_on_c, 0, 71, 77
2, 68228, Note_on_c, 0, 71, 0
2, 68256, Note_on_c, 0, 69, 77
2, 68301, Note_on_c, 0, 69, 0
2, 68304, Note_on_c, 0, 72, 77
2, 68349, Note_on_c, 0, 72, 0
2, 68352, Note_on_c, 0, 76, 77
2, 68397, Note_on_c, 0, 76, 0
2, 68400, Note_on_c, 0, 81, 77
2, 68445, Note_on_c, 0, 81, 0
2, 68448, Note_on_c, 0, 84, 77
2, 68460, Note_on_c, 0, 84, 0
2, 68460, Note_on_c, 0, 83, 77
2, 68472, Note_on_c, 0, 83, 0
2, 68472, Note_on_c, 0, 84, 77
2, 68493, Note_on_c, 0, 84, 0
2, 68496, Note_on_c, 0, 88, 77
2, 68541, Note_on_c, 0, 88, 0
2, 68544, Note_on_c, 0, 86, 77
2, 68589, Note_on_c, 0, 86, 0
2, 68592, Note_on_c, 0, 83, 77
2, 68637, Note_on_c, 0, 83, 0
2, 68640, Note_on_c, 0, 79, 77
2, 68685, Note_on_c, 0, 79, 0
2, 68688, Note_on_c, 0, 84, 77
2, 68733, Note_on_c, 0, 84, 0
2, 68736, Note_on_c, 0, 81, 77
2, 68781, Note_on_c, 0, 81, 0
2, 68784, Note_on_c, 0, 78, 77
2, 68829, Note_on_c, 0, 78, 0
2, 68832, Note_on_c, 0, 79, 63
2, 68877, Note_on_c, 0, 79, 0
2, 68880, Note_on_c, 0, 74, 63
2, 68925, Note_on_c, 0, 74, 0
2, 68928, Note_on_c, 0, 71, 63
2, 68973, Note_on_c, 0, 71, 0
2, 68976, Note_on_c, 0, 76, 63
2, 69021, Note_on_c, 0, 76, 0
2, 69024, Note_on_c, 0, 72, 63
2, 69069, Note_on_c, 0, 72, 0
2, 69072, Note_on_c, 0, 69, 63
2, 69117, Note_on_c, 0, 69, 0
2, 69120, Note_on_c, 0, 74, 63
2, 69165, Note_on_c, 0, 74, 0
2, 69168, Note_on_c, 0, 71, 63
2, 69213, Note_on_c, 0, 71, 0
2, 69216, Note_on_c, 0, 67, 63
2, 69261, Note_on_c, 0, 67, 0
2, 69264, Note_on_c, 0, 62, 63
2, 69309, Note_on_c, 0, 62, 0
2, 69312, Note_on_c, 0, 64, 63
2, 69357, Note_on_c, 0, 64, 0
2, 69360, Note_on_c, 0, 66, 63
2, 69405, Note_on_c, 0, 66, 0
2, 69408, Note_on_c, 0, 55, 63
2, 69497, Note_on_c, 0, 55, 0
2, 69696, End_track
3, 0, Start_track
3, 0, Program_c, 0, 0
3, 0, Control_c, 0, 7, 127
3, 0, Control_c, 0, 10, 64
3, 3456, Note_on_c, 0, 81, 64
3, 3479, Note_on_c, 0, 81, 0
3, 3480, Note_on_c, 0, 74, 64
3, 3503, Note_on_c, 0, 74, 0
3, 3504, Note_on_c, 0, 81, 64
3, 3527, Note_on_c, 0, 81, 0
3, 3528, Note_on_c, 0, 74, 64
3, 3551, Note_on_c, 0, 74, 0
3, 3552, Note_on_c, 0, 79, 64
3, 3597, Note_on_c, 0, 79, 0
3, 3600, Note_on_c, 0, 78, 64
3, 3623, Note_on_c, 0, 78, 0
3, 3624, Note_on_c, 0, 74, 64
3, 3647, Note_on_c, 0, 74, 0
3, 3648, Note_on_c, 0, 78, 64
3, 3671, Note_on_c, 0, 78, 0
3, 3672, Note_on_c, 0, 74, 64
3, 3695, Note_on_c, 0, 74, 0
3, 3696, Note_on_c, 0, 79, 64
3, 3741, Note_on_c, 0, 79, 0
3, 3744, Note_on_c, 0, 81, 64
3, 3767, Note_on_c, 0, 81, 0
3, 3768, Note_on_c, 0, 74, 64
3, 3791, Note_on_c, 0, 74, 0
3, 3792, Note_on_c, 0, 81, 64
3, 3815, Note_on_c, 0, 81, 0
3, 3816, Note_on_c, 0, 74, 64
3, 3839, Note_on_c, 0, 74, 0
3, 3840, Note_on_c, 0, 79, 64
3, 3885, Note_on_c, 0, 79, 0
3, 3888, Note_on_c, 0, 78, 64
3, 3911, Note_on_c, 0, 78, 0
3, 3912, Note_on_c, 0, 74, 64
3, 3935, Note_on_c, 0, 74, 0
3, 3936, Note_on_c, 0, 78, 64
3, 3959, Note_on_c, 0, 78, 0
3, 3960, Note_on_c, 0, 74, 64
3, 3983, Note_on_c, 0, 74, 0
3, 3984, Note_on_c, 0, 79, 64
3, 4029, Note_on_c, 0, 79, 0
3, 4032, Note_on_c, 0, 81, 64
3, 4055, Note_on_c, 0, 81, 0
3, 4056, Note_on_c, 0, 74, 64
3, 4079, Note_on_c, 0, 74, 0
3, 4080, Note_on_c, 0, 81, 64
3, 4103, Note_on_c, 0, 81, 0
3, 4104, Note_on_c, 0, 74, 64
3, 4127, Note_on_c, 0, 74, 0
3, 4128, Note_on_c, 0, 79, 64
3, 4173, Note_on_c, 0, 79, 0
3, 4176, Note_on_c, 0, 81, 64
3, 4199, Note_on_c, 0, 81, 0
3, 4200, Note_on_c, 0, 74, 64
3, 4223, Note_on_c, 0, 74, 0
3, 4224, Note_on_c, 0, 81, 64
3, 4247, Note_on_c, 0, 81, 0
3, 4248, Note_on_c, 0, 74, 64
3, 4271, Note_on_c, 0, 74, 0
3, 4272, Note_on_c, 0, 79, 64
3, 4317, Note_on_c, 0, 79, 0
3, 4320, Note_on_c, 0, 78, 64
3, 4365, Note_on_c, 0, 78, 0
3, 4368, Note_on_c, 0, 78, 64
3, 4413, Note_on_c, 0, 78, 0
3, 4416, Note_on_c, 0, 78, 64
3, 4461, Note_on_c, 0, 78, 0
3, 4464, Note_on_c, 0, 78, 64
3, 4553, Note_on_c, 0, 78, 0
3, 15840, Note_on_c, 0, 81, 64
3, 15863, Note_on_c, 0, 81, 0
3, 15864, Note_on_c, 0, 74, 64
3, 15887, Note_on_c, 0, 74, 0
3, 15888, Note_on_c, 0, 81, 64
3, 15911, Note_on_c, 0, 81, 0
3, 15912, Note_on_c, 0, 74, 64
3, 15935, Note_on_c, 0, 74, 0
3, 15936, Note_on_c, 0, 79, 64
3, 15981, Note_on_c, 0, 79, 0
3, 15984, Note_on_c, 0, 78, 64
3, 16007, Note_on_c, 0, 78, 0
3, 16008, Note_on_c, 0, 74, 64
3, 16031, Note_on_c, 0, 74, 0
3, 16032, Note_on_c, 0, 78, 64
3, 16055, Note_on_c, 0, 78, 0
3, 16056, Note_on_c, 0, 74, 64
3, 16079, Note_on_c, 0, 74, 0
3, 16080, Note_on_c, 0, 79, 64
3, 16125, Note_on_c, 0, 79, 0
3, 16128, Note_on_c, 0, 81, 64
3, 16151, Note_on_c, 0, 81, 0
3, 16152, Note_on_c, 0, 74, 64
3, 16175, Note_on_c, 0, 74, 0
3, 16176, Note_on_c, 0, 81, 64
3, 16199, Note_on_c, 0, 81, 0
3, 16200, Note_on_c, 0, 74, 64
3, 16223, Note_on_c, 0, 74, 0
3, 16224, Note_on_c, 0, 79, 64
3, 16269, Note_on_c, 0, 79, 0
3, 16272, Note_on_c, 0, 78, 64
3, 16295, Note_on_c, 0, 78, 0
3, 16296, Note_on_c, 0, 74, 64
3, 16319, Note_on_c, 0, 74, 0
3, 16320, Note_on_c, 0, 78, 64
3, 16343, Note_on_c, 0, 78, 0
3, 16344, Note_on_c, 0, 74, 64
3, 16367, Note_on_c, 0, 74, 0
3, 16368, Note_on_c, 0, 79, 64
3, 16413, Note_on_c, 0, 79, 0
3, 16416, Note_on_c, 0, 81, 64
3, 16439, Note_on_c, 0, 81, 0
3, 16440, Note_on_c, 0, 74, 64
3, 16463, Note_on_c, 0, 74, 0
3, 16464, Note_on_c, 0, 81, 64
3, 16487, Note_on_c, 0, 81, 0
3, 16488, Note_on_c, 0, 74, 64
3, 16511, Note_on_c, 0, 74, 0
3, 16512, Note_on_c, 0, 79, 64
3, 16557, Note_on_c, 0, 79, 0
3, 16560, Note_on_c, 0, 81, 64
3, 16583, Note_on_c, 0, 81, 0
3, 16584, Note_on_c, 0, 74, 64
3, 16607, Note_on_c, 0, 74, 0
3, 16608, Note_on_c, 0, 81, 64
3, 16631, Note_on_c, 0, 81, 0
3, 16632, Note_on_c, 0, 74, 64
3, 16655, Note_on_c, 0, 74, 0
3, 16656, Note_on_c, 0, 79, 64
3, 16701, Note_on_c, 0, 79, 0
3, 16704, Note_on_c, 0, 78, 64
3, 16749, Note_on_c, 0, 78, 0
3, 16752, Note_on_c, 0, 78, 64
3, 16797, Note_on_c, 0, 78, 0
3, 16800, Note_on_c, 0, 78, 64
3, 16845, Note_on_c, 0, 78, 0
3, 16848, Note_on_c, 0, 78, 64
3, 16937, Note_on_c, 0, 78, 0
3, 26976, Note_on_c, 0, 72, 64
3, 26999, Note_on_c, 0, 72, 0
3, 27000, Note_on_c, 0, 74, 64
3, 27023, Note_on_c, 0, 74, 0
3, 27024, Note_on_c, 0, 72, 64
3, 27044, Note_on_c, 0, 72, 0
3, 27072, Note_on_c, 0, 72, 64
3, 27117, Note_on_c, 0, 72, 0
3, 27120, Note_on_c, 0, 71, 64
3, 27165, Note_on_c, 0, 71, 0
3, 27168, Note_on_c, 0, 71, 64
3, 27213, Note_on_c, 0, 71, 0
3, 27264, Note_on_c, 0, 69, 64
3, 27287, Note_on_c, 0, 69, 0
3, 27288, Note_on_c, 0, 71, 64
3, 27311, Note_on_c, 0, 71, 0
3, 27312, Note_on_c, 0, 69, 64
3, 27332, Note_on_c, 0, 69, 0
3, 27360, Note_on_c, 0, 69, 64
3, 27405, Note_on_c, 0, 69, 0
3, 27408, Note_on_c, 0, 68, 64
3, 27453, Note_on_c, 0, 68, 0
3, 27456, Note_on_c, 0, 68, 64
3, 27501, Note_on_c, 0, 68, 0
3, 27504, Note_on_c, 0, 72, 64
3, 27549, Note_on_c, 0, 72, 0
3, 27552, Note_on_c, 0, 65, 64
3, 27575, Note_on_c, 0, 65, 0
3, 27576, Note_on_c, 0, 67, 64
3, 27599, Note_on_c, 0, 67, 0
3, 27600, Note_on_c, 0, 65, 64
3, 27620, Note_on_c, 0, 65, 0
3, 32448, Note_on_c, 0, 78, 64
3, 32493, Note_on_c, 0, 78, 0
3, 32496, Note_on_c, 0, 78, 64
3, 32541, Note_on_c, 0, 78, 0
3, 33744, Note_on_c, 0, 79, 64
3, 33767, Note_on_c, 0, 79, 0
3, 33768, Note_on_c, 0, 74, 64
3, 33791, Note_on_c, 0, 74, 0
3, 33792, Note_on_c, 0, 79, 64
3, 33837, Note_on_c, 0, 79, 0
3, 33888, Note_on_c, 0, 80, 64
3, 33911, Note_on_c, 0, 80, 0
3, 33912, Note_on_c, 0, 74, 64
3, 33935, Note_on_c, 0, 74, 0
3, 33936, Note_on_c, 0, 80, 64
3, 33981, Note_on_c, 0, 80, 0
3, 34032, Note_on_c, 0, 79, 64
3, 34055, Note_on_c, 0, 79, 0
3, 34056, Note_on_c, 0, 72, 64
3, 34079, Note_on_c, 0, 72, 0
3, 34080, Note_on_c, 0, 79, 64
3, 34125, Note_on_c, 0, 79, 0
3, 34176, Note_on_c, 0, 82, 64
3, 34199, Note_on_c, 0, 82, 0
3, 34200, Note_on_c, 0, 79, 64
3, 34223, Note_on_c, 0, 79, 0
3, 34224, Note_on_c, 0, 82, 64
3, 34269, Note_on_c, 0, 82, 0
3, 34320, Note_on_c, 0, 78, 64
3, 34343, Note_on_c, 0, 78, 0
3, 34344, Note_on_c, 0, 74, 64
3, 34367, Note_on_c, 0, 74, 0
3, 34368, Note_on_c, 0, 78, 64
3, 34413, Note_on_c, 0, 78, 0
3, 38304, Note_on_c, 0, 81, 64
3, 38327, Note_on_c, 0, 81, 0
3, 38328, Note_on_c, 0, 74, 64
3, 38351, Note_on_c, 0, 74, 0
3, 38352, Note_on_c, 0, 81, 64
3, 38375, Note_on_c, 0, 81, 0
3, 38376, Note_on_c, 0, 74, 64
3, 38399, Note_on_c, 0, 74, 0
3, 38400, Note_on_c, 0, 79, 64
3, 38445, Note_on_c, 0, 79, 0
3, 38448, Note_on_c, 0, 78, 64
3, 38471, Note_on_c, 0, 78, 0
3, 38472, Note_on_c, 0, 74, 64
3, 38495, Note_on_c, 0, 74, 0
3, 38496, Note_on_c, 0, 78, 64
3, 38519, Note_on_c, 0, 78, 0
3, 38520, Note_on_c, 0, 74, 64
3, 38543, Note_on_c, 0, 74, 0
3, 38544, Note_on_c, 0, 79, 64
3, 38589, Note_on_c, 0, 79, 0
3, 38592, Note_on_c, 0, 81, 64
3, 38615, Note_on_c, 0, 81, 0
3, 38616, Note_on_c, 0, 74, 64
3, 38639, Note_on_c, 0, 74, 0
3, 38640, Note_on_c, 0, 81, 64
3, 38663, Note_on_c, 0, 81, 0
3, 38664, Note_on_c, 0, 74, 64
3, 38687, Note_on_c, 0, 74, 0
3, 38688, Note_on_c, 0, 79, 64
3, 38733, Note_on_c, 0, 79, 0
3, 38736, Note_on_c, 0, 78, 64
3, 38759, Note_on_c, 0, 78, 0
3, 38760, Note_on_c, 0, 74, 64
3, 38783, Note_on_c, 0, 74, 0
3, 38784, Note_on_c, 0, 78, 64
3, 38807, Note_on_c, 0, 78, 0
3, 38808, Note_on_c, 0, 74, 64
3, 38831, Note_on_c, 0, 74, 0
3, 38832, Note_on_c, 0, 79, 64
3, 38877, Note_on_c, 0, 79, 0
3, 38880, Note_on_c, 0, 81, 64
3, 38903, Note_on_c, 0, 81, 0
3, 38904, Note_on_c, 0, 74, 64
3, 38927, Note_on_c, 0, 74, 0
3, 38928, Note_on_c, 0, 81, 64
3, 38951, Note_on_c, 0, 81, 0
3, 38952, Note_on_c, 0, 74, 64
3, 38975, Note_on_c, 0, 74, 0
3, 38976, Note_on_c, 0, 79, 64
3, 39021, Note_on_c, 0, 79, 0
3, 39024, Note_on_c, 0, 81, 64
3, 39047, Note_on_c, 0, 81, 0
3, 39048, Note_on_c, 0, 74, 64
3, 39071, Note_on_c, 0, 74, 0
3, 39072, Note_on_c, 0, 81, 64
3, 39095, Note_on_c, 0, 81, 0
3, 39096, Note_on_c, 0, 74, 64
3, 39119, Note_on_c, 0, 74, 0
3, 39120, Note_on_c, 0, 79, 64
3, 39165, Note_on_c, 0, 79, 0
3, 39168, Note_on_c, 0, 78, 64
3, 39213, Note_on_c, 0, 78, 0
3, 39216, Note_on_c, 0, 78, 64
3, 39261, Note_on_c, 0, 78, 0
3, 39264, Note_on_c, 0, 78, 64
3, 39309, Note_on_c, 0, 78, 0
3, 39312, Note_on_c, 0, 78, 64
3, 39401, Note_on_c, 0, 78, 0
3, 49440, Note_on_c, 0, 72, 64
3, 49463, Note_on_c, 0, 72, 0
3, 49464, Note_on_c, 0, 74, 64
3, 49487, Note_on_c, 0, 74, 0
3, 49488, Note_on_c, 0, 72, 64
3, 49508, Note_on_c, 0, 72, 0
3, 49536, Note_on_c, 0, 72, 64
3, 49581, Note_on_c, 0, 72, 0
3, 49584, Note_on_c, 0, 71, 64
3, 49629, Note_on_c, 0, 71, 0
3, 49632, Note_on_c, 0, 71, 64
3, 49677, Note_on_c, 0, 71, 0
3, 49728, Note_on_c, 0, 69, 64
3, 49751, Note_on_c, 0, 69, 0
3, 49752, Note_on_c, 0, 71, 64
3, 49775, Note_on_c, 0, 71, 0
3, 49776, Note_on_c, 0, 69, 64
3, 49796, Note_on_c, 0, 69, 0
3, 49824, Note_on_c, 0, 69, 64
3, 49869, Note_on_c, 0, 69, 0
3, 49872, Note_on_c, 0, 68, 64
3, 49917, Note_on_c, 0, 68, 0
3, 49920, Note_on_c, 0, 68, 64
3, 49965, Note_on_c, 0, 68, 0
3, 49968, Note_on_c, 0, 72, 64
3, 50013, Note_on_c, 0, 72, 0
3, 50016, Note_on_c, 0, 65, 64
3, 50039, Note_on_c, 0, 65, 0
3, 50040, Note_on_c, 0, 67, 64
3, 50063, Note_on_c, 0, 67, 0
3, 50064, Note_on_c, 0, 65, 64
3, 50084, Note_on_c, 0, 65, 0
3, 54912, Note_on_c, 0, 78, 64
3, 54957, Note_on_c, 0, 78, 0
3, 54960, Note_on_c, 0, 78, 64
3, 55005, Note_on_c, 0, 78, 0
3, 56208, Note_on_c, 0, 79, 64
3, 56231, Note_on_c, 0, 79, 0
3, 56232, Note_on_c, 0, 74, 64
3, 56255, Note_on_c, 0, 74, 0
3, 56256, Note_on_c, 0, 79, 64
3, 56301, Note_on_c, 0, 79, 0
3, 56352, Note_on_c, 0, 80, 64
3, 56375, Note_on_c, 0, 80, 0
3, 56376, Note_on_c, 0, 74, 64
3, 56399, Note_on_c, 0, 74, 0
3, 56400, Note_on_c, 0, 80, 64
3, 56445, Note_on_c, 0, 80, 0
3, 56496, Note_on_c, 0, 79, 64
3, 56519, Note_on_c, 0, 79, 0
3, 56520, Note_on_c, 0, 72, 64
3, 56543, Note_on_c, 0, 72, 0
3, 56544, Note_on_c, 0, 79, 64
3, 56589, Note_on_c, 0, 79, 0
3, 56640, Note_on_c, 0, 82, 64
3, 56663, Note_on_c, 0, 82, 0
3, 56664, Note_on_c, 0, 79, 64
3, 56687, Note_on_c, 0, 79, 0
3, 56688, Note_on_c, 0, 82, 64
3, 56733, Note_on_c, 0, 82, 0
3, 56784, Note_on_c, 0, 78, 64
3, 56807, Note_on_c, 0, 78, 0
3, 56808, Note_on_c, 0, 74, 64
3, 56831, Note_on_c, 0, 74, 0
3, 56832, Note_on_c, 0, 78, 64
3, 56877, Note_on_c, 0, 78, 0
3, 60768, Note_on_c, 0, 81, 64
3, 60791, Note_on_c, 0, 81, 0
3, 60792, Note_on_c, 0, 74, 64
3, 60815, Note_on_c, 0, 74, 0
3, 60816, Note_on_c, 0, 81, 64
3, 60839, Note_on_c, 0, 81, 0
3, 60840, Note_on_c, 0, 74, 64
3, 60863, Note_on_c, 0, 74, 0
3, 60864, Note_on_c, 0, 79, 64
3, 60909, Note_on_c, 0, 79, 0
3, 60912, Note_on_c, 0, 78, 64
3, 60935, Note_on_c, 0, 78, 0
3, 60936, Note_on_c, 0, 74, 64
3, 60959, Note_on_c, 0, 74, 0
3, 60960, Note_on_c, 0, 78, 64
3, 60983, Note_on_c, 0, 78, 0
3, 60984, Note_on_c, 0, 74, 64
3, 61007, Note_on_c, 0, 74, 0
3, 61008, Note_on_c, 0, 79, 64
3, 61053, Note_on_c, 0, 79, 0
3, 61056, Note_on_c, 0, 81, 64
3, 61079, Note_on_c, 0, 81, 0
3, 61080, Note_on_c, 0, 74, 64
3, 61103, Note_on_c, 0, 74, 0
3, 61104, Note_on_c, 0, 81, 64
3, 61127, Note_on_c, 0, 81, 0
3, 61128, Note_on_c, 0, 74, 64
3, 61151, Note_on_c, 0, 74, 0
3, 61152, Note_on_c, 0, 79, 64
3, 61197, Note_on_c, 0, 79, 0
3, 61200, Note_on_c, 0, 78, 64
3, 61223, Note_on_c, 0, 78, 0
3, 61224, Note_on_c, 0, 74, 64
3, 61247, Note_on_c, 0, 74, 0
3, 61248, Note_on_c, 0, 78, 64
3, 61271, Note_on_c, 0, 78, 0
3, 61272, Note_on_c, 0, 74, 64
3, 61295, Note_on_c, 0, 74, 0
3, 61296, Note_on_c, 0, 79, 64
3, 61341, Note_on_c, 0, 79, 0
3, 61344, Note_on_c, 0, 81, 64
3, 61367, Note_on_c, 0, 81, 0
3, 61368, Note_on_c, 0, 74, 64
3, 61391, Note_on_c, 0, 74, 0
3, 61392, Note_on_c, 0, 81, 64
3, 61415, Note_on_c, 0, 81, 0
3, 61416, Note_on_c, 0, 74, 64
3, 61439, Note_on_c, 0, 74, 0
3, 61440, Note_on_c, 0, 79, 64
3, 61485, Note_on_c, 0, 79, 0
3, 61488, Note_on_c, 0, 81, 64
3, 61511, Note_on_c, 0, 81, 0
3, 61512, Note_on_c, 0, 74, 64
3, 61535, Note_on_c, 0, 74, 0
3, 61536, Note_on_c, 0, 81, 64
3, 61559, Note_on_c, 0, 81, 0
3, 61560, Note_on_c, 0, 74, 64
3, 61583, Note_on_c, 0, 74, 0
3, 61584, Note_on_c, 0, 79, 64
3, 61629, Note_on_c, 0, 79, 0
3, 61632, Note_on_c, 0, 78, 64
3, 61677, Note_on_c, 0, 78, 0
3, 61680, Note_on_c, 0, 78, 64
3, 61725, Note_on_c, 0, 78, 0
3, 61728, Note_on_c, 0, 78, 64
3, 61773, Note_on_c, 0, 78, 0
3, 61776, Note_on_c, 0, 78, 64
3, 61865, Note_on_c, 0, 78, 0
3, 69696, End_track
4, 0, Start_track
4, 0, Program_c, 1, 0
4, 0, Control_c, 1, 7, 127
4, 0, Control_c, 1, 10, 64
4, 0, Note_on_c, 1, 59, 77
4, 0, Note_on_c, 1, 55, 77
4, 39, Note_on_c, 1, 59, 0
4, 39, Note_on_c, 1, 55, 0
4, 144, Note_on_c, 1, 64, 77
4, 144, Note_on_c, 1, 60, 77
4, 183, Note_on_c, 1, 64, 0
4, 183, Note_on_c, 1, 60, 0
4, 288, Note_on_c, 1, 62, 77
4, 288, Note_on_c, 1, 59, 77
4, 327, Note_on_c, 1, 62, 0
4, 327, Note_on_c, 1, 59, 0
4, 432, Note_on_c, 1, 60, 77
4, 432, Note_on_c, 1, 57, 77
4, 471, Note_on_c, 1, 60, 0
4, 471, Note_on_c, 1, 57, 0
4, 576, Note_on_c, 1, 59, 77
4, 576, Note_on_c, 1, 55, 77
4, 615, Note_on_c, 1, 59, 0
4, 615, Note_on_c, 1, 55, 0
4, 720, Note_on_c, 1, 59, 77
4, 720, Note_on_c, 1, 47, 77
4, 853, Note_on_c, 1, 59, 0
4, 853, Note_on_c, 1, 47, 0
4, 864, Note_on_c, 1, 60, 77
4, 864, Note_on_c, 1, 48, 77
4, 997, Note_on_c, 1, 60, 0
4, 997, Note_on_c, 1, 48, 0
4, 1008, Note_on_c, 1, 62, 77
4, 1008, Note_on_c, 1, 50, 77
4, 1141, Note_on_c, 1, 62, 0
4, 1141, Note_on_c, 1, 50, 0
4, 1152, Note_on_c, 1, 55, 77
4, 1152, Note_on_c, 1, 43, 77
4, 1285, Note_on_c, 1, 55, 0
4, 1285, Note_on_c, 1, 43, 0
4, 1296, Note_on_c, 1, 59, 77
4, 1296, Note_on_c, 1, 47, 77
4, 1429, Note_on_c, 1, 59, 0
4, 1429, Note_on_c, 1, 47, 0
4, 1440, Note_on_c, 1, 60, 77
4, 1440, Note_on_c, 1, 48, 77
4, 1573, Note_on_c, 1, 60, 0
4, 1573, Note_on_c, 1, 48, 0
4, 1584, Note_on_c, 1, 62, 77
4, 1584, Note_on_c, 1, 50, 77
4, 1717, Note_on_c, 1, 62, 0
4, 1717, Note_on_c, 1, 50, 0
4, 1728, Note_on_c, 1, 55, 77
4, 1728, Note_on_c, 1, 43, 77
4, 1817, Note_on_c, 1, 55, 0
4, 1817, Note_on_c, 1, 43, 0
4, 1872, Note_on_c, 1, 62, 77
4, 1872, Note_on_c, 1, 59, 77
4, 1961, Note_on_c, 1, 62, 0
4, 1961, Note_on_c, 1, 59, 0
4, 2016, Note_on_c, 1, 64, 77
4, 2016, Note_on_c, 1, 60, 77
4, 2105, Note_on_c, 1, 64, 0
4, 2105, Note_on_c, 1, 60, 0
4, 2160, Note_on_c, 1, 62, 77
4, 2249, Note_on_c, 1, 62, 0
4, 2256, Note_on_c, 1, 66, 77
4, 2301, Note_on_c, 1, 66, 0
4, 2304, Note_on_c, 1, 67, 77
4, 2349, Note_on_c, 1, 67, 0
4, 2352, Note_on_c, 1, 71, 77
4, 2397, Note_on_c, 1, 71, 0
4, 2400, Note_on_c, 1, 74, 77
4, 2445, Note_on_c, 1, 74, 0
4, 2544, Note_on_c, 1, 67, 77
4, 2589, Note_on_c, 1, 67, 0
4, 2592, Note_on_c, 1, 76, 77
4, 2592, Note_on_c, 1, 72, 77
4, 2688, Note_on_c, 1, 76, 0
4, 2688, Note_on_c, 1, 72, 0
4, 2688, Note_on_c, 1, 74, 77
4, 2688, Note_on_c, 1, 71, 77
4, 2733, Note_on_c, 1, 74, 0
4, 2733, Note_on_c, 1, 71, 0
4, 2832, Note_on_c, 1, 66, 77
4, 2877, Note_on_c, 1, 66, 0
4, 2880, Note_on_c, 1, 67, 77
4, 2925, Note_on_c, 1, 67, 0
4, 2928, Note_on_c, 1, 71, 77
4, 2973, Note_on_c, 1, 71, 0
4, 2976, Note_on_c, 1, 74, 77
4, 3021, Note_on_c, 1, 74, 0
4, 3120, Note_on_c, 1, 67, 77
4, 3165, Note_on_c, 1, 67, 0
4, 3168, Note_on_c, 1, 76, 77
4, 3168, Note_on_c, 1, 72, 77
4, 3264, Note_on_c, 1, 76, 0
4, 3264, Note_on_c, 1, 72, 0
4, 3264, Note_on_c, 1, 74, 77
4, 3264, Note_on_c, 1, 71, 77
4, 3309, Note_on_c, 1, 74, 0
4, 3309, Note_on_c, 1, 71, 0
4, 3312, Note_on_c, 1, 72, 77
4, 3312, Note_on_c, 1, 69, 77
4, 3401, Note_on_c, 1, 72, 0
4, 3401, Note_on_c, 1, 69, 0
4, 3408, Note_on_c, 1, 71, 77
4, 3408, Note_on_c, 1, 67, 77
4, 3453, Note_on_c, 1, 71, 0
4, 3453, Note_on_c, 1, 67, 0
4, 3456, Note_on_c, 1, 69, 77
4, 3456, Note_on_c, 1, 66, 77
4, 3545, Note_on_c, 1, 69, 0
4, 3545, Note_on_c, 1, 66, 0
4, 3552, Note_on_c, 1, 71, 77
4, 3552, Note_on_c, 1, 67, 77
4, 3597, Note_on_c, 1, 71, 0
4, 3597, Note_on_c, 1, 67, 0
4, 3600, Note_on_c, 1, 72, 77
4, 3600, Note_on_c, 1, 69, 77
4, 3689, Note_on_c, 1, 72, 0
4, 3689, Note_on_c, 1, 69, 0
4, 3696, Note_on_c, 1, 71, 77
4, 3696, Note_on_c, 1, 67, 77
4, 3741, Note_on_c, 1, 71, 0
4, 3741, Note_on_c, 1, 67, 0
4, 3744, Note_on_c, 1, 69, 77
4, 3744, Note_on_c, 1, 66, 77
4, 3833, Note_on_c, 1, 69, 0
4, 3833, Note_on_c, 1, 66, 0
4, 3840, Note_on_c, 1, 71, 77
4, 3840, Note_on_c, 1, 67, 77
4, 3885, Note_on_c, 1, 71, 0
4, 3885, Note_on_c, 1, 67, 0
4, 3888, Note_on_c, 1, 72, 77
4, 3888, Note_on_c, 1, 69, 77
4, 3977, Note_on_c, 1, 72, 0
4, 3977, Note_on_c, 1, 69, 0
4, 3984, Note_on_c, 1, 71, 77
4, 3984, Note_on_c, 1, 67, 77
4, 4029, Note_on_c, 1, 71, 0
4, 4029, Note_on_c, 1, 67, 0
4, 4032, Note_on_c, 1, 69, 77
4, 4032, Note_on_c, 1, 66, 77
4, 4121, Note_on_c, 1, 69, 0
4, 4121, Note_on_c, 1, 66, 0
4, 4128, Note_on_c, 1, 67, 77
4, 4173, Note_on_c, 1, 67, 0
4, 4176, Note_on_c, 1, 69, 77
4, 4176, Note_on_c, 1, 66, 77
4, 4265, Note_on_c, 1, 69, 0
4, 4265, Note_on_c, 1, 66, 0
4, 4272, Note_on_c, 1, 67, 77
4, 4317, Note_on_c, 1, 67, 0
4, 4320, Note_on_c, 1, 69, 77
4, 4320, Note_on_c, 1, 66, 77
4, 4320, Note_on_c, 1, 62, 77
4, 4365, Note_on_c, 1, 69, 0
4, 4365, Note_on_c, 1, 66, 0
4, 4365, Note_on_c, 1, 62, 0
4, 4368, Note_on_c, 1, 69, 77
4, 4368, Note_on_c, 1, 66, 77
4, 4368, Note_on_c, 1, 62, 77
4, 4413, Note_on_c, 1, 69, 0
4, 4413, Note_on_c, 1, 66, 0
4, 4413, Note_on_c, 1, 62, 0
4, 4416, Note_on_c, 1, 69, 77
4, 4416, Note_on_c, 1, 66, 77
4, 4416, Note_on_c, 1, 62, 77
4, 4461, Note_on_c, 1, 69, 0
4, 4461, Note_on_c, 1, 66, 0
4, 4461, Note_on_c, 1, 62, 0
4, 4464, Note_on_c, 1, 69, 77
4, 4464, Note_on_c, 1, 66, 77
4, 4464, Note_on_c, 1, 62, 77
4, 4553, Note_on_c, 1, 69, 0
4, 4553, Note_on_c, 1, 66, 0
4, 4553, Note_on_c, 1, 62, 0
4, 4656, Note_on_c, 1, 50, 77
4, 4701, Note_on_c, 1, 50, 0
4, 4704, Note_on_c, 1, 38, 77
4, 4749, Note_on_c, 1, 38, 0
4, 4800, Note_on_c, 1, 62, 77
4, 4824, Note_on_c, 1, 62, 0
4, 4824, Note_on_c, 1, 61, 77
4, 4847, Note_on_c, 1, 61, 0
4, 4848, Note_on_c, 1, 62, 77
4, 4868, Note_on_c, 1, 62, 0
4, 4944, Note_on_c, 1, 50, 77
4, 4989, Note_on_c, 1, 50, 0
4, 4992, Note_on_c, 1, 38, 77
4, 5037, Note_on_c, 1, 38, 0
4, 5088, Note_on_c, 1, 62, 77
4, 5112, Note_on_c, 1, 62, 0
4, 5112, Note_on_c, 1, 61, 77
4, 5135, Note_on_c, 1, 61, 0
4, 5136, Note_on_c, 1, 62, 77
4, 5156, Note_on_c, 1, 62, 0
4, 5232, Note_on_c, 1, 50, 77
4, 5277, Note_on_c, 1, 50, 0
4, 5280, Note_on_c, 1, 38, 77
4, 5325, Note_on_c, 1, 38, 0
4, 5376, Note_on_c, 1, 62, 77
4, 5400, Note_on_c, 1, 62, 0
4, 5400, Note_on_c, 1, 61, 77
4, 5423, Note_on_c, 1, 61, 0
4, 5424, Note_on_c, 1, 62, 77
4, 5444, Note_on_c, 1, 62, 0
4, 5520, Note_on_c, 1, 50, 77
4, 5565, Note_on_c, 1, 50, 0
4, 5568, Note_on_c, 1, 38, 77
4, 5613, Note_on_c, 1, 38, 0
4, 5664, Note_on_c, 1, 62, 77
4, 5688, Note_on_c, 1, 62, 0
4, 5688, Note_on_c, 1, 61, 77
4, 5711, Note_on_c, 1, 61, 0
4, 5712, Note_on_c, 1, 62, 77
4, 5732, Note_on_c, 1, 62, 0
4, 5808, Note_on_c, 1, 50, 77
4, 5853, Note_on_c, 1, 50, 0
4, 5856, Note_on_c, 1, 38, 77
4, 5901, Note_on_c, 1, 38, 0
4, 5952, Note_on_c, 1, 59, 77
4, 5976, Note_on_c, 1, 59, 0
4, 5976, Note_on_c, 1, 58, 77
4, 5999, Note_on_c, 1, 58, 0
4, 6000, Note_on_c, 1, 59, 77
4, 6020, Note_on_c, 1, 59, 0
4, 6096, Note_on_c, 1, 55, 77
4, 6119, Note_on_c, 1, 55, 0
4, 6120, Note_on_c, 1, 54, 77
4, 6143, Note_on_c, 1, 54, 0
4, 6144, Note_on_c, 1, 55, 77
4, 6189, Note_on_c, 1, 55, 0
4, 6240, Note_on_c, 1, 56, 77
4, 6264, Note_on_c, 1, 56, 0
4, 6264, Note_on_c, 1, 54, 77
4, 6287, Note_on_c, 1, 54, 0
4, 6288, Note_on_c, 1, 56, 77
4, 6308, Note_on_c, 1, 56, 0
4, 6336, Note_on_c, 1, 57, 77
4, 6381, Note_on_c, 1, 57, 0
4, 6384, Note_on_c, 1, 59, 77
4, 6429, Note_on_c, 1, 59, 0
4, 6432, Note_on_c, 1, 61, 77
4, 6477, Note_on_c, 1, 61, 0
4, 6480, Note_on_c, 1, 62, 77
4, 6528, Note_on_c, 1, 62, 0
4, 6528, Note_on_c, 1, 61, 77
4, 6573, Note_on_c, 1, 61, 0
4, 6624, Note_on_c, 1, 57, 77
4, 6669, Note_on_c, 1, 57, 0
4, 6672, Note_on_c, 1, 59, 77
4, 6717, Note_on_c, 1, 59, 0
4, 6720, Note_on_c, 1, 61, 77
4, 6765, Note_on_c, 1, 61, 0
4, 6768, Note_on_c, 1, 62, 77
4, 6816, Note_on_c, 1, 62, 0
4, 6816, Note_on_c, 1, 61, 77
4, 6861, Note_on_c, 1, 61, 0
4, 6912, Note_on_c, 1, 57, 77
4, 6957, Note_on_c, 1, 57, 0
4, 6960, Note_on_c, 1, 59, 77
4, 7005, Note_on_c, 1, 59, 0
4, 7008, Note_on_c, 1, 61, 77
4, 7053, Note_on_c, 1, 61, 0
4, 7056, Note_on_c, 1, 62, 77
4, 7101, Note_on_c, 1, 62, 0
4, 7104, Note_on_c, 1, 64, 77
4, 7149, Note_on_c, 1, 64, 0
4, 7152, Note_on_c, 1, 66, 77
4, 7197, Note_on_c, 1, 66, 0
4, 7200, Note_on_c, 1, 67, 77
4, 7333, Note_on_c, 1, 67, 0
4, 7344, Note_on_c, 1, 66, 77
4, 7477, Note_on_c, 1, 66, 0
4, 7488, Note_on_c, 1, 71, 77
4, 7488, Note_on_c, 1, 68, 77
4, 7488, Note_on_c, 1, 64, 77
4, 7621, Note_on_c, 1, 71, 0
4, 7621, Note_on_c, 1, 68, 0
4, 7621, Note_on_c, 1, 64, 0
4, 7776, Note_on_c, 1, 67, 77
4, 7776, Note_on_c, 1, 64, 77
4, 7776, Note_on_c, 1, 61, 77
4, 7776, Note_on_c, 1, 57, 77
4, 7865, Note_on_c, 1, 67, 0
4, 7865, Note_on_c, 1, 64, 0
4, 7865, Note_on_c, 1, 61, 0
4, 7865, Note_on_c, 1, 57, 0
4, 8064, Note_on_c, 1, 50, 77
4, 8109, Note_on_c, 1, 50, 0
4, 8112, Note_on_c, 1, 52, 77
4, 8157, Note_on_c, 1, 52, 0
4, 8160, Note_on_c, 1, 54, 77
4, 8205, Note_on_c, 1, 54, 0
4, 8208, Note_on_c, 1, 55, 77
4, 8253, Note_on_c, 1, 55, 0
4, 8256, Note_on_c, 1, 57, 77
4, 8301, Note_on_c, 1, 57, 0
4, 8304, Note_on_c, 1, 59, 77
4, 8349, Note_on_c, 1, 59, 0
4, 8352, Note_on_c, 1, 57, 77
4, 8485, Note_on_c, 1, 57, 0
4, 8496, Note_on_c, 1, 45, 77
4, 8629, Note_on_c, 1, 45, 0
4, 8640, Note_on_c, 1, 50, 77
4, 8729, Note_on_c, 1, 50, 0
4, 8784, Note_on_c, 1, 62, 77
4, 9061, Note_on_c, 1, 62, 0
4, 9072, Note_on_c, 1, 62, 77
4, 9349, Note_on_c, 1, 62, 0
4, 9360, Note_on_c, 1, 62, 77
4, 9637, Note_on_c, 1, 62, 0
4, 9648, Note_on_c, 1, 64, 77
4, 9781, Note_on_c, 1, 64, 0
4, 9792, Note_on_c, 1, 62, 77
4, 9925, Note_on_c, 1, 62, 0
4, 9936, Note_on_c, 1, 57, 77
4, 9936, Note_on_c, 1, 54, 77
4, 10069, Note_on_c, 1, 57, 0
4, 10069, Note_on_c, 1, 54, 0
4, 10080, Note_on_c, 1, 59, 77
4, 10080, Note_on_c, 1, 55, 77
4, 10169, Note_on_c, 1, 59, 0
4, 10169, Note_on_c, 1, 55, 0
4, 10368, Note_on_c, 1, 62, 77
4, 10368, Note_on_c, 1, 57, 77
4, 10501, Note_on_c, 1, 62, 0
4, 10501, Note_on_c, 1, 57, 0
4, 10512, Note_on_c, 1, 61, 77
4, 10512, Note_on_c, 1, 57, 77
4, 10645, Note_on_c, 1, 61, 0
4, 10645, Note_on_c, 1, 57, 0
4, 10656, Note_on_c, 1, 59, 77
4, 10656, Note_on_c, 1, 47, 77
4, 10701, Note_on_c, 1, 59, 0
4, 10701, Note_on_c, 1, 47, 0
4, 10704, Note_on_c, 1, 57, 77
4, 10704, Note_on_c, 1, 45, 77
4, 10749, Note_on_c, 1, 57, 0
4, 10749, Note_on_c, 1, 45, 0
4, 10752, Note_on_c, 1, 55, 77
4, 10752, Note_on_c, 1, 43, 77
4, 10797, Note_on_c, 1, 55, 0
4, 10797, Note_on_c, 1, 43, 0
4, 10800, Note_on_c, 1, 54, 77
4, 10800, Note_on_c, 1, 42, 77
4, 10845, Note_on_c, 1, 54, 0
4, 10845, Note_on_c, 1, 42, 0
4, 10848, Note_on_c, 1, 52, 77
4, 10848, Note_on_c, 1, 40, 77
4, 10893, Note_on_c, 1, 52, 0
4, 10893, Note_on_c, 1, 40, 0
4, 10896, Note_on_c, 1, 50, 77
4, 10896, Note_on_c, 1, 38, 77
4, 10941, Note_on_c, 1, 50, 0
4, 10941, Note_on_c, 1, 38, 0
4, 10944, Note_on_c, 1, 55, 77
4, 10944, Note_on_c, 1, 43, 77
4, 11209, Note_on_c, 1, 55, 0
4, 11209, Note_on_c, 1, 43, 0
4, 11232, Note_on_c, 1, 66, 77
4, 11232, Note_on_c, 1, 57, 77
4, 11365, Note_on_c, 1, 66, 0
4, 11365, Note_on_c, 1, 57, 0
4, 11376, Note_on_c, 1, 64, 77
4, 11376, Note_on_c, 1, 57, 77
4, 11509, Note_on_c, 1, 64, 0
4, 11509, Note_on_c, 1, 57, 0
4, 11520, Note_on_c, 1, 62, 63
4, 11565, Note_on_c, 1, 62, 0
4, 11568, Note_on_c, 1, 57, 63
4, 11613, Note_on_c, 1, 57, 0
4, 11616, Note_on_c, 1, 54, 63
4, 11661, Note_on_c, 1, 54, 0
4, 11664, Note_on_c, 1, 59, 63
4, 11709, Note_on_c, 1, 59, 0
4, 11712, Note_on_c, 1, 55, 63
4, 11757, Note_on_c, 1, 55, 0
4, 11760, Note_on_c, 1, 52, 63
4, 11805, Note_on_c, 1, 52, 0
4, 11808, Note_on_c, 1, 57, 63
4, 11853, Note_on_c, 1, 57, 0
4, 11856, Note_on_c, 1, 54, 63
4, 11901, Note_on_c, 1, 54, 0
4, 11904, Note_on_c, 1, 50, 63
4, 11949, Note_on_c, 1, 50, 0
4, 11952, Note_on_c, 1, 45, 63
4, 11997, Note_on_c, 1, 45, 0
4, 12000, Note_on_c, 1, 47, 63
4, 12045, Note_on_c, 1, 47, 0
4, 12048, Note_on_c, 1, 49, 63
4, 12093, Note_on_c, 1, 49, 0
4, 12096, Note_on_c, 1, 50, 63
4, 12096, Note_on_c, 1, 38, 63
4, 12185, Note_on_c, 1, 50, 0
4, 12185, Note_on_c, 1, 38, 0
4, 12384, Note_on_c, 1, 59, 77
4, 12384, Note_on_c, 1, 55, 77
4, 12423, Note_on_c, 1, 59, 0
4, 12423, Note_on_c, 1, 55, 0
4, 12528, Note_on_c, 1, 64, 77
4, 12528, Note_on_c, 1, 60, 77
4, 12567, Note_on_c, 1, 64, 0
4, 12567, Note_on_c, 1, 60, 0
4, 12672, Note_on_c, 1, 62, 77
4, 12672, Note_on_c, 1, 59, 77
4, 12711, Note_on_c, 1, 62, 0
4, 12711, Note_on_c, 1, 59, 0
4, 12816, Note_on_c, 1, 60, 77
4, 12816, Note_on_c, 1, 57, 77
4, 12855, Note_on_c, 1, 60, 0
4, 12855, Note_on_c, 1, 57, 0
4, 12960, Note_on_c, 1, 59, 77
4, 12960, Note_on_c, 1, 55, 77
4, 12999, Note_on_c, 1, 59, 0
4, 12999, Note_on_c, 1, 55, 0
4, 13104, Note_on_c, 1, 59, 77
4, 13104, Note_on_c, 1, 47, 77
4, 13237, Note_on_c, 1, 59, 0
4, 13237, Note_on_c, 1, 47, 0
4, 13248, Note_on_c, 1, 60, 77
4, 13248, Note_on_c, 1, 48, 77
4, 13381, Note_on_c, 1, 60, 0
4, 13381, Note_on_c, 1, 48, 0
4, 13392, Note_on_c, 1, 62, 77
4, 13392, Note_on_c, 1, 50, 77
4, 13525, Note_on_c, 1, 62, 0
4, 13525, Note_on_c, 1, 50, 0
4, 13536, Note_on_c, 1, 55, 77
4, 13536, Note_on_c, 1, 43, 77
4, 13669, Note_on_c, 1, 55, 0
4, 13669, Note_on_c, 1, 43, 0
4, 13680, Note_on_c, 1, 59, 77
4, 13680, Note_on_c, 1, 47, 77
4, 13813, Note_on_c, 1, 59, 0
4, 13813, Note_on_c, 1, 47, 0
4, 13824, Note_on_c, 1, 60, 77
4, 13824, Note_on_c, 1, 48, 77
4, 13957, Note_on_c, 1, 60, 0
4, 13957, Note_on_c, 1, 48, 0
4, 13968, Note_on_c, 1, 62, 77
4, 13968, Note_on_c, 1, 50, 77
4, 14101, Note_on_c, 1, 62, 0
4, 14101, Note_on_c, 1, 50, 0
4, 14112, Note_on_c, 1, 55, 77
4, 14112, Note_on_c, 1, 43, 77
4, 14201, Note_on_c, 1, 55, 0
4, 14201, Note_on_c, 1, 43, 0
4, 14256, Note_on_c, 1, 62, 77
4, 14256, Note_on_c, 1, 59, 77
4, 14345, Note_on_c, 1, 62, 0
4, 14345, Note_on_c, 1, 59, 0
4, 14400, Note_on_c, 1, 64, 77
4, 14400, Note_on_c, 1, 60, 77
4, 14489, Note_on_c, 1, 64, 0
4, 14489, Note_on_c, 1, 60, 0
4, 14544, Note_on_c, 1, 62, 77
4, 14633, Note_on_c, 1, 62, 0
4, 14640, Note_on_c, 1, 66, 77
4, 14685, Note_on_c, 1, 66, 0
4, 14688, Note_on_c, 1, 67, 77
4, 14733, Note_on_c, 1, 67, 0
4, 14736, Note_on_c, 1, 71, 77
4, 14781, Note_on_c, 1, 71, 0
4, 14784, Note_on_c, 1, 74, 77
4, 14829, Note_on_c, 1, 74, 0
4, 14928, Note_on_c, 1, 67, 77
4, 14973, Note_on_c, 1, 67, 0
4, 14976, Note_on_c, 1, 76, 77
4, 14976, Note_on_c, 1, 72, 77
4, 15072, Note_on_c, 1, 76, 0
4, 15072, Note_on_c, 1, 72, 0
4, 15072, Note_on_c, 1, 74, 77
4, 15072, Note_on_c, 1, 71, 77
4, 15117, Note_on_c, 1, 74, 0
4, 15117, Note_on_c, 1, 71, 0
4, 15216, Note_on_c, 1, 66, 77
4, 15261, Note_on_c, 1, 66, 0
4, 15264, Note_on_c, 1, 67, 77
4, 15309, Note_on_c, 1, 67, 0
4, 15312, Note_on_c, 1, 71, 77
4, 15357, Note_on_c, 1, 71, 0
4, 15360, Note_on_c, 1, 74, 77
4, 15405, Note_on_c, 1, 74, 0
4, 15504, Note_on_c, 1, 67, 77
4, 15549, Note_on_c, 1, 67, 0
4, 15552, Note_on_c, 1, 76, 77
4, 15552, Note_on_c, 1, 72, 77
4, 15648, Note_on_c, 1, 76, 0
4, 15648, Note_on_c, 1, 72, 0
4, 15648, Note_on_c, 1, 74, 77
4, 15648, Note_on_c, 1, 71, 77
4, 15693, Note_on_c, 1, 74, 0
4, 15693, Note_on_c, 1, 71, 0
4, 15696, Note_on_c, 1, 72, 77
4, 15696, Note_on_c, 1, 69, 77
4, 15785, Note_on_c, 1, 72, 0
4, 15785, Note_on_c, 1, 69, 0
4, 15792, Note_on_c, 1, 71, 77
4, 15792, Note_on_c, 1, 67, 77
4, 15837, Note_on_c, 1, 71, 0
4, 15837, Note_on_c, 1, 67, 0
4, 15840, Note_on_c, 1, 69, 77
4, 15840, Note_on_c, 1, 66, 77
4, 15929, Note_on_c, 1, 69, 0
4, 15929, Note_on_c, 1, 66, 0
4, 15936, Note_on_c, 1, 71, 77
4, 15936, Note_on_c, 1, 67, 77
4, 15981, Note_on_c, 1, 71, 0
4, 15981, Note_on_c, 1, 67, 0
4, 15984, Note_on_c, 1, 72, 77
4, 15984, Note_on_c, 1, 69, 77
4, 16073, Note_on_c, 1, 72, 0
4, 16073, Note_on_c, 1, 69, 0
4, 16080, Note_on_c, 1, 71, 77
4, 16080, Note_on_c, 1, 67, 77
4, 16125, Note_on_c, 1, 71, 0
4, 16125, Note_on_c, 1, 67, 0
4, 16128, Note_on_c, 1, 69, 77
4, 16128, Note_on_c, 1, 66, 77
4, 16217, Note_on_c, 1, 69, 0
4, 16217, Note_on_c, 1, 66, 0
4, 16224, Note_on_c, 1, 71, 77
4, 16224, Note_on_c, 1, 67, 77
4, 16269, Note_on_c, 1, 71, 0
4, 16269, Note_on_c, 1, 67, 0
4, 16272, Note_on_c, 1, 72, 77
4, 16272, Note_on_c, 1, 69, 77
4, 16361, Note_on_c, 1, 72, 0
4, 16361, Note_on_c, 1, 69, 0
4, 16368, Note_on_c, 1, 71, 77
4, 16368, Note_on_c, 1, 67, 77
4, 16413, Note_on_c, 1, 71, 0
4, 16413, Note_on_c, 1, 67, 0
4, 16416, Note_on_c, 1, 69, 77
4, 16416, Note_on_c, 1, 66, 77
4, 16505, Note_on_c, 1, 69, 0
4, 16505, Note_on_c, 1, 66, 0
4, 16512, Note_on_c, 1, 67, 77
4, 16557, Note_on_c, 1, 67, 0
4, 16560, Note_on_c, 1, 69, 77
4, 16560, Note_on_c, 1, 66, 77
4, 16649, Note_on_c, 1, 69, 0
4, 16649, Note_on_c, 1, 66, 0
4, 16656, Note_on_c, 1, 67, 77
4, 16701, Note_on_c, 1, 67, 0
4, 16704, Note_on_c, 1, 69, 77
4, 16704, Note_on_c, 1, 66, 77
4, 16704, Note_on_c, 1, 62, 77
4, 16749, Note_on_c, 1, 69, 0
4, 16749, Note_on_c, 1, 66, 0
4, 16749, Note_on_c, 1, 62, 0
4, 16752, Note_on_c, 1, 69, 77
4, 16752, Note_on_c, 1, 66, 77
4, 16752, Note_on_c, 1, 62, 77
4, 16797, Note_on_c, 1, 69, 0
4, 16797, Note_on_c, 1, 66, 0
4, 16797, Note_on_c, 1, 62, 0
4, 16800, Note_on_c, 1, 69, 77
4, 16800, Note_on_c, 1, 66, 77
4, 16800, Note_on_c, 1, 62, 77
4, 16845, Note_on_c, 1, 69, 0
4, 16845, Note_on_c, 1, 66, 0
4, 16845, Note_on_c, 1, 62, 0
4, 16848, Note_on_c, 1, 69, 77
4, 16848, Note_on_c, 1, 66, 77
4, 16848, Note_on_c, 1, 62, 77
4, 16937, Note_on_c, 1, 69, 0
4, 16937, Note_on_c, 1, 66, 0
4, 16937, Note_on_c, 1, 62, 0
4, 17040, Note_on_c, 1, 50, 77
4, 17085, Note_on_c, 1, 50, 0
4, 17088, Note_on_c, 1, 38, 77
4, 17133, Note_on_c, 1, 38, 0
4, 17184, Note_on_c, 1, 62, 77
4, 17208, Note_on_c, 1, 62, 0
4, 17208, Note_on_c, 1, 61, 77
4, 17231, Note_on_c, 1, 61, 0
4, 17232, Note_on_c, 1, 62, 77
4, 17252, Note_on_c, 1, 62, 0
4, 17328, Note_on_c, 1, 50, 77
4, 17373, Note_on_c, 1, 50, 0
4, 17376, Note_on_c, 1, 38, 77
4, 17421, Note_on_c, 1, 38, 0
4, 17472, Note_on_c, 1, 62, 77
4, 17496, Note_on_c, 1, 62, 0
4, 17496, Note_on_c, 1, 61, 77
4, 17519, Note_on_c, 1, 61, 0
4, 17520, Note_on_c, 1, 62, 77
4, 17540, Note_on_c, 1, 62, 0
4, 17616, Note_on_c, 1, 50, 77
4, 17661, Note_on_c, 1, 50, 0
4, 17664, Note_on_c, 1, 38, 77
4, 17709, Note_on_c, 1, 38, 0
4, 17760, Note_on_c, 1, 62, 77
4, 17784, Note_on_c, 1, 62, 0
4, 17784, Note_on_c, 1, 61, 77
4, 17807, Note_on_c, 1, 61, 0
4, 17808, Note_on_c, 1, 62, 77
4, 17828, Note_on_c, 1, 62, 0
4, 17904, Note_on_c, 1, 50, 77
4, 17949, Note_on_c, 1, 50, 0
4, 17952, Note_on_c, 1, 38, 77
4, 17997, Note_on_c, 1, 38, 0
4, 18048, Note_on_c, 1, 62, 77
4, 18072, Note_on_c, 1, 62, 0
4, 18072, Note_on_c, 1, 61, 77
4, 18095, Note_on_c, 1, 61, 0
4, 18096, Note_on_c, 1, 62, 77
4, 18116, Note_on_c, 1, 62, 0
4, 18192, Note_on_c, 1, 50, 77
4, 18237, Note_on_c, 1, 50, 0
4, 18240, Note_on_c, 1, 38, 77
4, 18285, Note_on_c, 1, 38, 0
4, 18336, Note_on_c, 1, 59, 77
4, 18360, Note_on_c, 1, 59, 0
4, 18360, Note_on_c, 1, 58, 77
4, 18383, Note_on_c, 1, 58, 0
4, 18384, Note_on_c, 1, 59, 77
4, 18404, Note_on_c, 1, 59, 0
4, 18480, Note_on_c, 1, 55, 77
4, 18503, Note_on_c, 1, 55, 0
4, 18504, Note_on_c, 1, 54, 77
4, 18527, Note_on_c, 1, 54, 0
4, 18528, Note_on_c, 1, 55, 77
4, 18573, Note_on_c, 1, 55, 0
4, 18624, Note_on_c, 1, 56, 77
4, 18648, Note_on_c, 1, 56, 0
4, 18648, Note_on_c, 1, 54, 77
4, 18671, Note_on_c, 1, 54, 0
4, 18672, Note_on_c, 1, 56, 77
4, 18692, Note_on_c, 1, 56, 0
4, 18720, Note_on_c, 1, 57, 77
4, 18765, Note_on_c, 1, 57, 0
4, 18768, Note_on_c, 1, 59, 77
4, 18813, Note_on_c, 1, 59, 0
4, 18816, Note_on_c, 1, 61, 77
4, 18861, Note_on_c, 1, 61, 0
4, 18864, Note_on_c, 1, 62, 77
4, 18912, Note_on_c, 1, 62, 0
4, 18912, Note_on_c, 1, 61, 77
4, 18957, Note_on_c, 1, 61, 0
4, 19008, Note_on_c, 1, 57, 77
4, 19053, Note_on_c, 1, 57, 0
4, 19056, Note_on_c, 1, 59, 77
4, 19101, Note_on_c, 1, 59, 0
4, 19104, Note_on_c, 1, 61, 77
4, 19149, Note_on_c, 1, 61, 0
4, 19152, Note_on_c, 1, 62, 77
4, 19200, Note_on_c, 1, 62, 0
4, 19200, Note_on_c, 1, 61, 77
4, 19245, Note_on_c, 1, 61, 0
4, 19296, Note_on_c, 1, 57, 77
4, 19341, Note_on_c, 1, 57, 0
4, 19344, Note_on_c, 1, 59, 77
4, 19389, Note_on_c, 1, 59, 0
4, 19392, Note_on_c, 1, 61, 77
4, 19437, Note_on_c, 1, 61, 0
4, 19440, Note_on_c, 1, 62, 77
4, 19485, Note_on_c, 1, 62, 0
4, 19488, Note_on_c, 1, 64, 77
4, 19533, Note_on_c, 1, 64, 0
4, 19536, Note_on_c, 1, 66, 77
4, 19581, Note_on_c, 1, 66, 0
4, 19584, Note_on_c, 1, 67, 77
4, 19717, Note_on_c, 1, 67, 0
4, 19728, Note_on_c, 1, 66, 77
4, 19861, Note_on_c, 1, 66, 0
4, 19872, Note_on_c, 1, 71, 77
4, 19872, Note_on_c, 1, 68, 77
4, 19872, Note_on_c, 1, 64, 77
4, 20005, Note_on_c, 1, 71, 0
4, 20005, Note_on_c, 1, 68, 0
4, 20005, Note_on_c, 1, 64, 0
4, 20160, Note_on_c, 1, 67, 77
4, 20160, Note_on_c, 1, 64, 77
4, 20160, Note_on_c, 1, 61, 77
4, 20160, Note_on_c, 1, 57, 77
4, 20249, Note_on_c, 1, 67, 0
4, 20249, Note_on_c, 1, 64, 0
4, 20249, Note_on_c, 1, 61, 0
4, 20249, Note_on_c, 1, 57, 0
4, 20448, Note_on_c, 1, 50, 77
4, 20493, Note_on_c, 1, 50, 0
4, 20496, Note_on_c, 1, 52, 77
4, 20541, Note_on_c, 1, 52, 0
4, 20544, Note_on_c, 1, 54, 77
4, 20589, Note_on_c, 1, 54, 0
4, 20592, Note_on_c, 1, 55, 77
4, 20637, Note_on_c, 1, 55, 0
4, 20640, Note_on_c, 1, 57, 77
4, 20685, Note_on_c, 1, 57, 0
4, 20688, Note_on_c, 1, 59, 77
4, 20733, Note_on_c, 1, 59, 0
4, 20736, Note_on_c, 1, 57, 77
4, 20869, Note_on_c, 1, 57, 0
4, 20880, Note_on_c, 1, 45, 77
4, 21013, Note_on_c, 1, 45, 0
4, 21024, Note_on_c, 1, 50, 77
4, 21113, Note_on_c, 1, 50, 0
4, 21168, Note_on_c, 1, 62, 77
4, 21445, Note_on_c, 1, 62, 0
4, 21456, Note_on_c, 1, 62, 77
4, 21733, Note_on_c, 1, 62, 0
4, 21744, Note_on_c, 1, 62, 77
4, 22021, Note_on_c, 1, 62, 0
4, 22032, Note_on_c, 1, 64, 77
4, 22165, Note_on_c, 1, 64, 0
4, 22176, Note_on_c, 1, 62, 77
4, 22309, Note_on_c, 1, 62, 0
4, 22320, Note_on_c, 1, 57, 77
4, 22320, Note_on_c, 1, 54, 77
4, 22453, Note_on_c, 1, 57, 0
4, 22453, Note_on_c, 1, 54, 0
4, 22464, Note_on_c, 1, 59, 77
4, 22464, Note_on_c, 1, 55, 77
4, 22553, Note_on_c, 1, 59, 0
4, 22553, Note_on_c, 1, 55, 0
4, 22752, Note_on_c, 1, 62, 77
4, 22752, Note_on_c, 1, 57, 77
4, 22885, Note_on_c, 1, 62, 0
4, 22885, Note_on_c, 1, 57, 0
4, 22896, Note_on_c, 1, 61, 77
4, 22896, Note_on_c, 1, 57, 77
4, 23029, Note_on_c, 1, 61, 0
4, 23029, Note_on_c, 1, 57, 0
4, 23040, Note_on_c, 1, 59, 77
4, 23040, Note_on_c, 1, 47, 77
4, 23085, Note_on_c, 1, 59, 0
4, 23085, Note_on_c, 1, 47, 0
4, 23088, Note_on_c, 1, 57, 77
4, 23088, Note_on_c, 1, 45, 77
4, 23133, Note_on_c, 1, 57, 0
4, 23133, Note_on_c, 1, 45, 0
4, 23136, Note_on_c, 1, 55, 77
4, 23136, Note_on_c, 1, 43, 77
4, 23181, Note_on_c, 1, 55, 0
4, 23181, Note_on_c, 1, 43, 0
4, 23184, Note_on_c, 1, 54, 77
4, 23184, Note_on_c, 1, 42, 77
4, 23229, Note_on_c, 1, 54, 0
4, 23229, Note_on_c, 1, 42, 0
4, 23232, Note_on_c, 1, 52, 77
4, 23232, Note_on_c, 1, 40, 77
4, 23277, Note_on_c, 1, 52, 0
4, 23277, Note_on_c, 1, 40, 0
4, 23280, Note_on_c, 1, 50, 77
4, 23280, Note_on_c, 1, 38, 77
4, 23325, Note_on_c, 1, 50, 0
4, 23325, Note_on_c, 1, 38, 0
4, 23328, Note_on_c, 1, 55, 77
4, 23328, Note_on_c, 1, 43, 77
4, 23593, Note_on_c, 1, 55, 0
4, 23593, Note_on_c, 1, 43, 0
4, 23616, Note_on_c, 1, 66, 77
4, 23616, Note_on_c, 1, 57, 77
4, 23749, Note_on_c, 1, 66, 0
4, 23749, Note_on_c, 1, 57, 0
4, 23760, Note_on_c, 1, 64, 77
4, 23760, Note_on_c, 1, 57, 77
4, 23893, Note_on_c, 1, 64, 0
4, 23893, Note_on_c, 1, 57, 0
4, 23904, Note_on_c, 1, 62, 63
4, 23949, Note_on_c, 1, 62, 0
4, 23952, Note_on_c, 1, 57, 63
4, 23997, Note_on_c, 1, 57, 0
4, 24000, Note_on_c, 1, 54, 63
4, 24045, Note_on_c, 1, 54, 0
4, 24048, Note_on_c, 1, 59, 63
4, 24093, Note_on_c, 1, 59, 0
4, 24096, Note_on_c, 1, 55, 63
4, 24141, Note_on_c, 1, 55, 0
4, 24144, Note_on_c, 1, 52, 63
4, 24189, Note_on_c, 1, 52, 0
4, 24192, Note_on_c, 1, 57, 63
4, 24237, Note_on_c, 1, 57, 0
4, 24240, Note_on_c, 1, 54, 63
4, 24285, Note_on_c, 1, 54, 0
4, 24288, Note_on_c, 1, 50, 63
4, 24333, Note_on_c, 1, 50, 0
4, 24336, Note_on_c, 1, 45, 63
4, 24381, Note_on_c, 1, 45, 0
4, 24384, Note_on_c, 1, 47, 63
4, 24429, Note_on_c, 1, 47, 0
4, 24432, Note_on_c, 1, 49, 63
4, 24477, Note_on_c, 1, 49, 0
4, 24480, Note_on_c, 1, 50, 63
4, 24480, Note_on_c, 1, 38, 63
4, 24569, Note_on_c, 1, 50, 0
4, 24569, Note_on_c, 1, 38, 0
4, 24768, Note_on_c, 1, 66, 77
4, 24768, Note_on_c, 1, 62, 77
4, 24807, Note_on_c, 1, 66, 0
4, 24807, Note_on_c, 1, 62, 0
4, 24912, Note_on_c, 1, 71, 77
4, 24912, Note_on_c, 1, 67, 77
4, 24951, Note_on_c, 1, 71, 0
4, 24951, Note_on_c, 1, 67, 0
4, 25056, Note_on_c, 1, 69, 77
4, 25056, Note_on_c, 1, 66, 77
4, 25095, Note_on_c, 1, 69, 0
4, 25095, Note_on_c, 1, 66, 0
4, 25200, Note_on_c, 1, 67, 77
4, 25200, Note_on_c, 1, 64, 77
4, 25239, Note_on_c, 1, 67, 0
4, 25239, Note_on_c, 1, 64, 0
4, 25344, Note_on_c, 1, 66, 77
4, 25344, Note_on_c, 1, 63, 77
4, 25383, Note_on_c, 1, 66, 0
4, 25383, Note_on_c, 1, 63, 0
4, 25488, Note_on_c, 1, 63, 77
4, 25488, Note_on_c, 1, 59, 77
4, 25527, Note_on_c, 1, 63, 0
4, 25527, Note_on_c, 1, 59, 0
4, 25680, Note_on_c, 1, 52, 77
4, 25728, Note_on_c, 1, 52, 0
4, 25728, Note_on_c, 1, 40, 77
4, 25773, Note_on_c, 1, 40, 0
4, 25824, Note_on_c, 1, 64, 77
4, 25847, Note_on_c, 1, 64, 0
4, 25848, Note_on_c, 1, 66, 77
4, 25871, Note_on_c, 1, 66, 0
4, 25872, Note_on_c, 1, 64, 77
4, 25892, Note_on_c, 1, 64, 0
4, 25968, Note_on_c, 1, 52, 77
4, 26016, Note_on_c, 1, 52, 0
4, 26016, Note_on_c, 1, 40, 77
4, 26061, Note_on_c, 1, 40, 0
4, 26112, Note_on_c, 1, 64, 77
4, 26135, Note_on_c, 1, 64, 0
4, 26136, Note_on_c, 1, 66, 77
4, 26159, Note_on_c, 1, 66, 0
4, 26160, Note_on_c, 1, 64, 77
4, 26180, Note_on_c, 1, 64, 0
4, 26256, Note_on_c, 1, 52, 77
4, 26304, Note_on_c, 1, 52, 0
4, 26304, Note_on_c, 1, 40, 77
4, 26349, Note_on_c, 1, 40, 0
4, 26400, Note_on_c, 1, 64, 77
4, 26423, Note_on_c, 1, 64, 0
4, 26424, Note_on_c, 1, 66, 77
4, 26447, Note_on_c, 1, 66, 0
4, 26448, Note_on_c, 1, 64, 77
4, 26468, Note_on_c, 1, 64, 0
4, 26544, Note_on_c, 1, 52, 77
4, 26592, Note_on_c, 1, 52, 0
4, 26592, Note_on_c, 1, 40, 77
4, 26637, Note_on_c, 1, 40, 0
4, 26688, Note_on_c, 1, 64, 77
4, 26711, Note_on_c, 1, 64, 0
4, 26712, Note_on_c, 1, 66, 77
4, 26735, Note_on_c, 1, 66, 0
4, 26736, Note_on_c, 1, 64, 77
4, 26756, Note_on_c, 1, 64, 0
4, 26832, Note_on_c, 1, 52, 77
4, 26877, Note_on_c, 1, 52, 0
4, 26880, Note_on_c, 1, 40, 77
4, 26925, Note_on_c, 1, 40, 0
4, 26976, Note_on_c, 1, 64, 77
4, 27021, Note_on_c, 1, 64, 0
4, 27024, Note_on_c, 1, 52, 77
4, 27069, Note_on_c, 1, 52, 0
4, 27120, Note_on_c, 1, 62, 77
4, 27165, Note_on_c, 1, 62, 0
4, 27168, Note_on_c, 1, 50, 77
4, 27213, Note_on_c, 1, 50, 0
4, 27264, Note_on_c, 1, 60, 77
4, 27309, Note_on_c, 1, 60, 0
4, 27312, Note_on_c, 1, 48, 77
4, 27357, Note_on_c, 1, 48, 0
4, 27408, Note_on_c, 1, 59, 77
4, 27453, Note_on_c, 1, 59, 0
4, 27456, Note_on_c, 1, 47, 77
4, 27501, Note_on_c, 1, 47, 0
4, 27504, Note_on_c, 1, 60, 77
4, 27504, Note_on_c, 1, 57, 77
4, 27637, Note_on_c, 1, 60, 0
4, 27637, Note_on_c, 1, 57, 0
4, 27648, Note_on_c, 1, 59, 77
4, 27648, Note_on_c, 1, 56, 77
4, 27781, Note_on_c, 1, 59, 0
4, 27781, Note_on_c, 1, 56, 0
4, 27792, Note_on_c, 1, 59, 77
4, 27792, Note_on_c, 1, 55, 77
4, 27925, Note_on_c, 1, 59, 0
4, 27925, Note_on_c, 1, 55, 0
4, 27936, Note_on_c, 1, 57, 77
4, 27936, Note_on_c, 1, 54, 77
4, 28069, Note_on_c, 1, 57, 0
4, 28069, Note_on_c, 1, 54, 0
4, 28080, Note_on_c, 1, 55, 77
4, 28080, Note_on_c, 1, 52, 77
4, 28213, Note_on_c, 1, 55, 0
4, 28213, Note_on_c, 1, 52, 0
4, 28224, Note_on_c, 1, 54, 77
4, 28224, Note_on_c, 1, 51, 77
4, 28357, Note_on_c, 1, 54, 0
4, 28357, Note_on_c, 1, 51, 0
4, 28368, Note_on_c, 1, 52, 77
4, 28368, Note_on_c, 1, 48, 77
4, 28501, Note_on_c, 1, 52, 0
4, 28501, Note_on_c, 1, 48, 0
4, 28512, Note_on_c, 1, 52, 77
4, 28557, Note_on_c, 1, 52, 0
4, 28560, Note_on_c, 1, 54, 77
4, 28605, Note_on_c, 1, 54, 0
4, 28608, Note_on_c, 1, 55, 77
4, 28653, Note_on_c, 1, 55, 0
4, 28656, Note_on_c, 1, 57, 77
4, 28704, Note_on_c, 1, 57, 0
4, 28704, Note_on_c, 1, 55, 77
4, 28749, Note_on_c, 1, 55, 0
4, 28800, Note_on_c, 1, 52, 77
4, 28845, Note_on_c, 1, 52, 0
4, 28848, Note_on_c, 1, 54, 77
4, 28893, Note_on_c, 1, 54, 0
4, 28896, Note_on_c, 1, 55, 77
4, 28941, Note_on_c, 1, 55, 0
4, 28944, Note_on_c, 1, 57, 77
4, 28992, Note_on_c, 1, 57, 0
4, 28992, Note_on_c, 1, 55, 77
4, 29037, Note_on_c, 1, 55, 0
4, 29088, Note_on_c, 1, 59, 77
4, 29133, Note_on_c, 1, 59, 0
4, 29136, Note_on_c, 1, 61, 77
4, 29181, Note_on_c, 1, 61, 0
4, 29184, Note_on_c, 1, 63, 77
4, 29229, Note_on_c, 1, 63, 0
4, 29232, Note_on_c, 1, 64, 77
4, 29280, Note_on_c, 1, 64, 0
4, 29280, Note_on_c, 1, 63, 77
4, 29325, Note_on_c, 1, 63, 0
4, 29376, Note_on_c, 1, 47, 77
4, 29421, Note_on_c, 1, 47, 0
4, 29424, Note_on_c, 1, 49, 77
4, 29469, Note_on_c, 1, 49, 0
4, 29472, Note_on_c, 1, 51, 77
4, 29517, Note_on_c, 1, 51, 0
4, 29520, Note_on_c, 1, 52, 77
4, 29565, Note_on_c, 1, 52, 0
4, 29568, Note_on_c, 1, 54, 77
4, 29613, Note_on_c, 1, 54, 0
4, 29616, Note_on_c, 1, 55, 77
4, 29661, Note_on_c, 1, 55, 0
4, 29664, Note_on_c, 1, 57, 77
4, 29709, Note_on_c, 1, 57, 0
4, 29712, Note_on_c, 1, 59, 77
4, 29757, Note_on_c, 1, 59, 0
4, 29760, Note_on_c, 1, 60, 77
4, 29805, Note_on_c, 1, 60, 0
4, 29808, Note_on_c, 1, 50, 77
4, 29853, Note_on_c, 1, 50, 0
4, 29856, Note_on_c, 1, 52, 77
4, 29901, Note_on_c, 1, 52, 0
4, 29904, Note_on_c, 1, 54, 77
4, 29949, Note_on_c, 1, 54, 0
4, 29952, Note_on_c, 1, 55, 77
4, 29997, Note_on_c, 1, 55, 0
4, 30000, Note_on_c, 1, 57, 77
4, 30045, Note_on_c, 1, 57, 0
4, 30048, Note_on_c, 1, 59, 77
4, 30093, Note_on_c, 1, 59, 0
4, 30096, Note_on_c, 1, 48, 77
4, 30141, Note_on_c, 1, 48, 0
4, 30144, Note_on_c, 1, 50, 77
4, 30189, Note_on_c, 1, 50, 0
4, 30192, Note_on_c, 1, 52, 77
4, 30237, Note_on_c, 1, 52, 0
4, 30240, Note_on_c, 1, 54, 77
4, 30285, Note_on_c, 1, 54, 0
4, 30288, Note_on_c, 1, 55, 77
4, 30333, Note_on_c, 1, 55, 0
4, 30336, Note_on_c, 1, 57, 77
4, 30381, Note_on_c, 1, 57, 0
4, 30384, Note_on_c, 1, 47, 77
4, 30429, Note_on_c, 1, 47, 0
4, 30432, Note_on_c, 1, 49, 77
4, 30477, Note_on_c, 1, 49, 0
4, 30480, Note_on_c, 1, 51, 77
4, 30525, Note_on_c, 1, 51, 0
4, 30528, Note_on_c, 1, 40, 77
4, 30551, Note_on_c, 1, 40, 0
4, 30552, Note_on_c, 1, 52, 77
4, 30575, Note_on_c, 1, 52, 0
4, 30576, Note_on_c, 1, 51, 77
4, 30599, Note_on_c, 1, 51, 0
4, 30600, Note_on_c, 1, 52, 77
4, 30623, Note_on_c, 1, 52, 0
4, 30624, Note_on_c, 1, 51, 77
4, 30647, Note_on_c, 1, 51, 0
4, 30648, Note_on_c, 1, 52, 77
4, 30671, Note_on_c, 1, 52, 0
4, 30672, Note_on_c, 1, 48, 77
4, 30695, Note_on_c, 1, 48, 0
4, 30696, Note_on_c, 1, 60, 77
4, 30719, Note_on_c, 1, 60, 0
4, 30720, Note_on_c, 1, 59, 77
4, 30743, Note_on_c, 1, 59, 0
4, 30744, Note_on_c, 1, 60, 77
4, 30767, Note_on_c, 1, 60, 0
4, 30768, Note_on_c, 1, 59, 77
4, 30791, Note_on_c, 1, 59, 0
4, 30792, Note_on_c, 1, 60, 77
4, 30815, Note_on_c, 1, 60, 0
4, 30816, Note_on_c, 1, 45, 77
4, 30839, Note_on_c, 1, 45, 0
4, 30840, Note_on_c, 1, 57, 77
4, 30863, Note_on_c, 1, 57, 0
4, 30864, Note_on_c, 1, 56, 77
4, 30887, Note_on_c, 1, 56, 0
4, 30888, Note_on_c, 1, 57, 77
4, 30911, Note_on_c, 1, 57, 0
4, 30912, Note_on_c, 1, 56, 77
4, 30935, Note_on_c, 1, 56, 0
4, 30936, Note_on_c, 1, 57, 77
4, 30959, Note_on_c, 1, 57, 0
4, 30960, Note_on_c, 1, 47, 77
4, 30983, Note_on_c, 1, 47, 0
4, 30984, Note_on_c, 1, 59, 77
4, 31007, Note_on_c, 1, 59, 0
4, 31008, Note_on_c, 1, 58, 77
4, 31031, Note_on_c, 1, 58, 0
4, 31032, Note_on_c, 1, 59, 77
4, 31055, Note_on_c, 1, 59, 0
4, 31056, Note_on_c, 1, 58, 77
4, 31079, Note_on_c, 1, 58, 0
4, 31080, Note_on_c, 1, 59, 77
4, 31103, Note_on_c, 1, 59, 0
4, 31152, Note_on_c, 1, 56, 77
4, 31197, Note_on_c, 1, 56, 0
4, 31200, Note_on_c, 1, 56, 77
4, 31245, Note_on_c, 1, 56, 0
4, 31296, Note_on_c, 1, 57, 77
4, 31341, Note_on_c, 1, 57, 0
4, 31344, Note_on_c, 1, 57, 77
4, 31389, Note_on_c, 1, 57, 0
4, 31440, Note_on_c, 1, 54, 77
4, 31485, Note_on_c, 1, 54, 0
4, 31488, Note_on_c, 1, 54, 77
4, 31533, Note_on_c, 1, 54, 0
4, 31584, Note_on_c, 1, 55, 77
4, 31629, Note_on_c, 1, 55, 0
4, 31632, Note_on_c, 1, 55, 77
4, 31677, Note_on_c, 1, 55, 0
4, 31680, Note_on_c, 1, 50, 77
4, 31680, Note_on_c, 1, 38, 77
4, 31725, Note_on_c, 1, 50, 0
4, 31725, Note_on_c, 1, 38, 0
4, 31728, Note_on_c, 1, 50, 77
4, 31728, Note_on_c, 1, 38, 77
4, 31773, Note_on_c, 1, 50, 0
4, 31773, Note_on_c, 1, 38, 0
4, 31776, Note_on_c, 1, 50, 77
4, 31776, Note_on_c, 1, 38, 77
4, 31821, Note_on_c, 1, 50, 0
4, 31821, Note_on_c, 1, 38, 0
4, 31824, Note_on_c, 1, 50, 77
4, 31824, Note_on_c, 1, 38, 77
4, 31913, Note_on_c, 1, 50, 0
4, 31913, Note_on_c, 1, 38, 0
4, 31968, Note_on_c, 1, 58, 77
4, 31968, Note_on_c, 1, 55, 77
4, 32057, Note_on_c, 1, 58, 0
4, 32057, Note_on_c, 1, 55, 0
4, 32112, Note_on_c, 1, 62, 77
4, 32112, Note_on_c, 1, 58, 77
4, 32201, Note_on_c, 1, 62, 0
4, 32201, Note_on_c, 1, 58, 0
4, 32256, Note_on_c, 1, 63, 77
4, 32256, Note_on_c, 1, 60, 77
4, 32345, Note_on_c, 1, 63, 0
4, 32345, Note_on_c, 1, 60, 0
4, 32400, Note_on_c, 1, 62, 77
4, 32489, Note_on_c, 1, 62, 0
4, 32544, Note_on_c, 1, 55, 77
4, 32633, Note_on_c, 1, 55, 0
4, 32688, Note_on_c, 1, 67, 77
4, 32733, Note_on_c, 1, 67, 0
4, 32736, Note_on_c, 1, 55, 77
4, 32781, Note_on_c, 1, 55, 0
4, 32832, Note_on_c, 1, 60, 77
4, 32921, Note_on_c, 1, 60, 0
4, 32976, Note_on_c, 1, 65, 77
4, 33021, Note_on_c, 1, 65, 0
4, 33024, Note_on_c, 1, 53, 77
4, 33069, Note_on_c, 1, 53, 0
4, 33120, Note_on_c, 1, 58, 77
4, 33209, Note_on_c, 1, 58, 0
4, 33264, Note_on_c, 1, 63, 77
4, 33309, Note_on_c, 1, 63, 0
4, 33312, Note_on_c, 1, 51, 77
4, 33357, Note_on_c, 1, 51, 0
4, 33408, Note_on_c, 1, 57, 77
4, 33497, Note_on_c, 1, 57, 0
4, 33552, Note_on_c, 1, 62, 77
4, 33597, Note_on_c, 1, 62, 0
4, 33600, Note_on_c, 1, 50, 77
4, 33645, Note_on_c, 1, 50, 0
4, 33696, Note_on_c, 1, 55, 77
4, 33785, Note_on_c, 1, 55, 0
4, 33840, Note_on_c, 1, 65, 77
4, 33929, Note_on_c, 1, 65, 0
4, 33984, Note_on_c, 1, 64, 77
4, 34073, Note_on_c, 1, 64, 0
4, 34128, Note_on_c, 1, 63, 77
4, 34217, Note_on_c, 1, 63, 0
4, 34272, Note_on_c, 1, 62, 77
4, 34361, Note_on_c, 1, 62, 0
4, 34416, Note_on_c, 1, 54, 77
4, 34549, Note_on_c, 1, 54, 0
4, 34560, Note_on_c, 1, 55, 77
4, 34693, Note_on_c, 1, 55, 0
4, 34704, Note_on_c, 1, 57, 77
4, 34837, Note_on_c, 1, 57, 0
4, 34848, Note_on_c, 1, 59, 77
4, 34848, Note_on_c, 1, 55, 77
4, 34887, Note_on_c, 1, 59, 0
4, 34887, Note_on_c, 1, 55, 0
4, 34992, Note_on_c, 1, 64, 77
4, 34992, Note_on_c, 1, 60, 77
4, 35031, Note_on_c, 1, 64, 0
4, 35031, Note_on_c, 1, 60, 0
4, 35136, Note_on_c, 1, 62, 77
4, 35136, Note_on_c, 1, 59, 77
4, 35175, Note_on_c, 1, 62, 0
4, 35175, Note_on_c, 1, 59, 0
4, 35280, Note_on_c, 1, 60, 77
4, 35280, Note_on_c, 1, 57, 77
4, 35319, Note_on_c, 1, 60, 0
4, 35319, Note_on_c, 1, 57, 0
4, 35424, Note_on_c, 1, 59, 77
4, 35424, Note_on_c, 1, 55, 77
4, 35463, Note_on_c, 1, 59, 0
4, 35463, Note_on_c, 1, 55, 0
4, 35568, Note_on_c, 1, 59, 77
4, 35568, Note_on_c, 1, 47, 77
4, 35701, Note_on_c, 1, 59, 0
4, 35701, Note_on_c, 1, 47, 0
4, 35712, Note_on_c, 1, 60, 77
4, 35712, Note_on_c, 1, 48, 77
4, 35845, Note_on_c, 1, 60, 0
4, 35845, Note_on_c, 1, 48, 0
4, 35856, Note_on_c, 1, 62, 77
4, 35856, Note_on_c, 1, 50, 77
4, 35989, Note_on_c, 1, 62, 0
4, 35989, Note_on_c, 1, 50, 0
4, 36000, Note_on_c, 1, 55, 77
4, 36000, Note_on_c, 1, 43, 77
4, 36133, Note_on_c, 1, 55, 0
4, 36133, Note_on_c, 1, 43, 0
4, 36144, Note_on_c, 1, 59, 77
4, 36144, Note_on_c, 1, 47, 77
4, 36277, Note_on_c, 1, 59, 0
4, 36277, Note_on_c, 1, 47, 0
4, 36288, Note_on_c, 1, 60, 77
4, 36288, Note_on_c, 1, 48, 77
4, 36421, Note_on_c, 1, 60, 0
4, 36421, Note_on_c, 1, 48, 0
4, 36432, Note_on_c, 1, 62, 77
4, 36432, Note_on_c, 1, 50, 77
4, 36565, Note_on_c, 1, 62, 0
4, 36565, Note_on_c, 1, 50, 0
4, 36576, Note_on_c, 1, 55, 77
4, 36576, Note_on_c, 1, 43, 77
4, 36709, Note_on_c, 1, 55, 0
4, 36709, Note_on_c, 1, 43, 0
4, 36720, Note_on_c, 1, 62, 77
4, 36720, Note_on_c, 1, 59, 77
4, 36809, Note_on_c, 1, 62, 0
4, 36809, Note_on_c, 1, 59, 0
4, 36864, Note_on_c, 1, 64, 77
4, 36864, Note_on_c, 1, 60, 77
4, 36953, Note_on_c, 1, 64, 0
4, 36953, Note_on_c, 1, 60, 0
4, 37008, Note_on_c, 1, 62, 77
4, 37097, Note_on_c, 1, 62, 0
4, 37104, Note_on_c, 1, 66, 77
4, 37149, Note_on_c, 1, 66, 0
4, 37152, Note_on_c, 1, 67, 77
4, 37197, Note_on_c, 1, 67, 0
4, 37200, Note_on_c, 1, 71, 77
4, 37245, Note_on_c, 1, 71, 0
4, 37248, Note_on_c, 1, 74, 77
4, 37293, Note_on_c, 1, 74, 0
4, 37392, Note_on_c, 1, 67, 77
4, 37437, Note_on_c, 1, 67, 0
4, 37440, Note_on_c, 1, 76, 77
4, 37440, Note_on_c, 1, 72, 77
4, 37536, Note_on_c, 1, 76, 0
4, 37536, Note_on_c, 1, 72, 0
4, 37536, Note_on_c, 1, 74, 77
4, 37536, Note_on_c, 1, 71, 77
4, 37581, Note_on_c, 1, 74, 0
4, 37581, Note_on_c, 1, 71, 0
4, 37680, Note_on_c, 1, 66, 77
4, 37725, Note_on_c, 1, 66, 0
4, 37728, Note_on_c, 1, 67, 77
4, 37773, Note_on_c, 1, 67, 0
4, 37776, Note_on_c, 1, 71, 77
4, 37821, Note_on_c, 1, 71, 0
4, 37824, Note_on_c, 1, 74, 77
4, 37869, Note_on_c, 1, 74, 0
4, 37968, Note_on_c, 1, 67, 77
4, 38013, Note_on_c, 1, 67, 0
4, 38016, Note_on_c, 1, 76, 77
4, 38016, Note_on_c, 1, 72, 77
4, 38112, Note_on_c, 1, 76, 0
4, 38112, Note_on_c, 1, 72, 0
4, 38112, Note_on_c, 1, 74, 77
4, 38112, Note_on_c, 1, 71, 77
4, 38157, Note_on_c, 1, 74, 0
4, 38157, Note_on_c, 1, 71, 0
4, 38160, Note_on_c, 1, 72, 77
4, 38160, Note_on_c, 1, 69, 77
4, 38249, Note_on_c, 1, 72, 0
4, 38249, Note_on_c, 1, 69, 0
4, 38256, Note_on_c, 1, 71, 77
4, 38256, Note_on_c, 1, 67, 77
4, 38301, Note_on_c, 1, 71, 0
4, 38301, Note_on_c, 1, 67, 0
4, 38304, Note_on_c, 1, 69, 77
4, 38304, Note_on_c, 1, 66, 77
4, 38393, Note_on_c, 1, 69, 0
4, 38393, Note_on_c, 1, 66, 0
4, 38400, Note_on_c, 1, 71, 77
4, 38400, Note_on_c, 1, 67, 77
4, 38445, Note_on_c, 1, 71, 0
4, 38445, Note_on_c, 1, 67, 0
4, 38448, Note_on_c, 1, 72, 77
4, 38448, Note_on_c, 1, 69, 77
4, 38537, Note_on_c, 1, 72, 0
4, 38537, Note_on_c, 1, 69, 0
4, 38544, Note_on_c, 1, 71, 77
4, 38544, Note_on_c, 1, 67, 77
4, 38589, Note_on_c, 1, 71, 0
4, 38589, Note_on_c, 1, 67, 0
4, 38592, Note_on_c, 1, 69, 77
4, 38592, Note_on_c, 1, 66, 77
4, 38681, Note_on_c, 1, 69, 0
4, 38681, Note_on_c, 1, 66, 0
4, 38688, Note_on_c, 1, 71, 77
4, 38688, Note_on_c, 1, 67, 77
4, 38733, Note_on_c, 1, 71, 0
4, 38733, Note_on_c, 1, 67, 0
4, 38736, Note_on_c, 1, 72, 77
4, 38736, Note_on_c, 1, 69, 77
4, 38825, Note_on_c, 1, 72, 0
4, 38825, Note_on_c, 1, 69, 0
4, 38832, Note_on_c, 1, 71, 77
4, 38832, Note_on_c, 1, 67, 77
4, 38877, Note_on_c, 1, 71, 0
4, 38877, Note_on_c, 1, 67, 0
4, 38880, Note_on_c, 1, 69, 77
4, 38880, Note_on_c, 1, 66, 77
4, 38969, Note_on_c, 1, 69, 0
4, 38969, Note_on_c, 1, 66, 0
4, 38976, Note_on_c, 1, 67, 77
4, 39021, Note_on_c, 1, 67, 0
4, 39024, Note_on_c, 1, 69, 77
4, 39024, Note_on_c, 1, 66, 77
4, 39113, Note_on_c, 1, 69, 0
4, 39113, Note_on_c, 1, 66, 0
4, 39120, Note_on_c, 1, 67, 77
4, 39165, Note_on_c, 1, 67, 0
4, 39168, Note_on_c, 1, 69, 77
4, 39168, Note_on_c, 1, 66, 77
4, 39168, Note_on_c, 1, 62, 77
4, 39213, Note_on_c, 1, 69, 0
4, 39213, Note_on_c, 1, 66, 0
4, 39213, Note_on_c, 1, 62, 0
4, 39216, Note_on_c, 1, 69, 77
4, 39216, Note_on_c, 1, 66, 77
4, 39216, Note_on_c, 1, 62, 77
4, 39261, Note_on_c, 1, 69, 0
4, 39261, Note_on_c, 1, 66, 0
4, 39261, Note_on_c, 1, 62, 0
4, 39264, Note_on_c, 1, 69, 77
4, 39264, Note_on_c, 1, 66, 77
4, 39264, Note_on_c, 1, 62, 77
4, 39309, Note_on_c, 1, 69, 0
4, 39309, Note_on_c, 1, 66, 0
4, 39309, Note_on_c, 1, 62, 0
4, 39312, Note_on_c, 1, 69, 77
4, 39312, Note_on_c, 1, 66, 77
4, 39312, Note_on_c, 1, 62, 77
4, 39401, Note_on_c, 1, 69, 0
4, 39401, Note_on_c, 1, 66, 0
4, 39401, Note_on_c, 1, 62, 0
4, 39504, Note_on_c, 1, 43, 77
4, 39549, Note_on_c, 1, 43, 0
4, 39552, Note_on_c, 1, 31, 77
4, 39597, Note_on_c, 1, 31, 0
4, 39648, Note_on_c, 1, 55, 77
4, 39672, Note_on_c, 1, 55, 0
4, 39672, Note_on_c, 1, 54, 77
4, 39695, Note_on_c, 1, 54, 0
4, 39696, Note_on_c, 1, 55, 77
4, 39716, Note_on_c, 1, 55, 0
4, 39792, Note_on_c, 1, 43, 77
4, 39837, Note_on_c, 1, 43, 0
4, 39840, Note_on_c, 1, 31, 77
4, 39885, Note_on_c, 1, 31, 0
4, 39936, Note_on_c, 1, 55, 77
4, 39960, Note_on_c, 1, 55, 0
4, 39960, Note_on_c, 1, 54, 77
4, 39983, Note_on_c, 1, 54, 0
4, 39984, Note_on_c, 1, 55, 77
4, 40004, Note_on_c, 1, 55, 0
4, 40080, Note_on_c, 1, 43, 77
4, 40125, Note_on_c, 1, 43, 0
4, 40128, Note_on_c, 1, 31, 77
4, 40173, Note_on_c, 1, 31, 0
4, 40224, Note_on_c, 1, 55, 77
4, 40248, Note_on_c, 1, 55, 0
4, 40248, Note_on_c, 1, 54, 77
4, 40271, Note_on_c, 1, 54, 0
4, 40272, Note_on_c, 1, 55, 77
4, 40292, Note_on_c, 1, 55, 0
4, 40368, Note_on_c, 1, 43, 77
4, 40413, Note_on_c, 1, 43, 0
4, 40416, Note_on_c, 1, 31, 77
4, 40461, Note_on_c, 1, 31, 0
4, 40512, Note_on_c, 1, 55, 77
4, 40536, Note_on_c, 1, 55, 0
4, 40536, Note_on_c, 1, 54, 77
4, 40559, Note_on_c, 1, 54, 0
4, 40560, Note_on_c, 1, 55, 77
4, 40580, Note_on_c, 1, 55, 0
4, 40656, Note_on_c, 1, 43, 77
4, 40701, Note_on_c, 1, 43, 0
4, 40704, Note_on_c, 1, 31, 77
4, 40749, Note_on_c, 1, 31, 0
4, 40800, Note_on_c, 1, 52, 77
4, 40824, Note_on_c, 1, 52, 0
4, 40824, Note_on_c, 1, 51, 77
4, 40847, Note_on_c, 1, 51, 0
4, 40848, Note_on_c, 1, 52, 77
4, 40868, Note_on_c, 1, 52, 0
4, 40944, Note_on_c, 1, 48, 77
4, 40967, Note_on_c, 1, 48, 0
4, 40968, Note_on_c, 1, 47, 77
4, 40991, Note_on_c, 1, 47, 0
4, 40992, Note_on_c, 1, 48, 77
4, 41012, Note_on_c, 1, 48, 0
4, 41088, Note_on_c, 1, 49, 77
4, 41112, Note_on_c, 1, 49, 0
4, 41112, Note_on_c, 1, 47, 77
4, 41135, Note_on_c, 1, 47, 0
4, 41136, Note_on_c, 1, 49, 77
4, 41156, Note_on_c, 1, 49, 0
4, 41184, Note_on_c, 1, 50, 77
4, 41229, Note_on_c, 1, 50, 0
4, 41232, Note_on_c, 1, 52, 77
4, 41277, Note_on_c, 1, 52, 0
4, 41280, Note_on_c, 1, 54, 77
4, 41325, Note_on_c, 1, 54, 0
4, 41328, Note_on_c, 1, 55, 77
4, 41376, Note_on_c, 1, 55, 0
4, 41376, Note_on_c, 1, 54, 77
4, 41421, Note_on_c, 1, 54, 0
4, 41472, Note_on_c, 1, 50, 77
4, 41517, Note_on_c, 1, 50, 0
4, 41520, Note_on_c, 1, 52, 77
4, 41565, Note_on_c, 1, 52, 0
4, 41568, Note_on_c, 1, 54, 77
4, 41613, Note_on_c, 1, 54, 0
4, 41616, Note_on_c, 1, 55, 77
4, 41664, Note_on_c, 1, 55, 0
4, 41664, Note_on_c, 1, 54, 77
4, 41709, Note_on_c, 1, 54, 0
4, 41760, Note_on_c, 1, 50, 77
4, 41805, Note_on_c, 1, 50, 0
4, 41808, Note_on_c, 1, 52, 77
4, 41853, Note_on_c, 1, 52, 0
4, 41856, Note_on_c, 1, 54, 77
4, 41901, Note_on_c, 1, 54, 0
4, 41904, Note_on_c, 1, 55, 77
4, 41949, Note_on_c, 1, 55, 0
4, 41952, Note_on_c, 1, 57, 77
4, 41997, Note_on_c, 1, 57, 0
4, 42000, Note_on_c, 1, 59, 77
4, 42045, Note_on_c, 1, 59, 0
4, 42048, Note_on_c, 1, 60, 77
4, 42181, Note_on_c, 1, 60, 0
4, 42192, Note_on_c, 1, 59, 77
4, 42325, Note_on_c, 1, 59, 0
4, 42336, Note_on_c, 1, 64, 77
4, 42336, Note_on_c, 1, 61, 77
4, 42336, Note_on_c, 1, 57, 77
4, 42425, Note_on_c, 1, 64, 0
4, 42425, Note_on_c, 1, 61, 0
4, 42425, Note_on_c, 1, 57, 0
4, 42552, Note_on_c, 1, 67, 77
4, 42575, Note_on_c, 1, 67, 0
4, 42576, Note_on_c, 1, 66, 77
4, 42599, Note_on_c, 1, 66, 0
4, 42600, Note_on_c, 1, 64, 77
4, 42623, Note_on_c, 1, 64, 0
4, 42624, Note_on_c, 1, 69, 77
4, 42624, Note_on_c, 1, 66, 77
4, 42624, Note_on_c, 1, 62, 77
4, 42757, Note_on_c, 1, 69, 0
4, 42757, Note_on_c, 1, 66, 0
4, 42757, Note_on_c, 1, 62, 0
4, 42912, Note_on_c, 1, 55, 77
4, 42957, Note_on_c, 1, 55, 0
4, 42960, Note_on_c, 1, 57, 77
4, 43005, Note_on_c, 1, 57, 0
4, 43008, Note_on_c, 1, 59, 77
4, 43053, Note_on_c, 1, 59, 0
4, 43056, Note_on_c, 1, 60, 77
4, 43101, Note_on_c, 1, 60, 0
4, 43104, Note_on_c, 1, 62, 77
4, 43149, Note_on_c, 1, 62, 0
4, 43152, Note_on_c, 1, 64, 77
4, 43197, Note_on_c, 1, 64, 0
4, 43200, Note_on_c, 1, 62, 77
4, 43333, Note_on_c, 1, 62, 0
4, 43344, Note_on_c, 1, 50, 77
4, 43477, Note_on_c, 1, 50, 0
4, 43488, Note_on_c, 1, 55, 77
4, 43577, Note_on_c, 1, 55, 0
4, 43632, Note_on_c, 1, 67, 77
4, 43909, Note_on_c, 1, 67, 0
4, 43920, Note_on_c, 1, 67, 77
4, 44197, Note_on_c, 1, 67, 0
4, 44208, Note_on_c, 1, 67, 77
4, 44485, Note_on_c, 1, 67, 0
4, 44496, Note_on_c, 1, 69, 77
4, 44629, Note_on_c, 1, 69, 0
4, 44640, Note_on_c, 1, 67, 77
4, 44773, Note_on_c, 1, 67, 0
4, 44784, Note_on_c, 1, 62, 77
4, 44784, Note_on_c, 1, 59, 77
4, 44917, Note_on_c, 1, 62, 0
4, 44917, Note_on_c, 1, 59, 0
4, 44928, Note_on_c, 1, 64, 77
4, 44928, Note_on_c, 1, 60, 77
4, 45017, Note_on_c, 1, 64, 0
4, 45017, Note_on_c, 1, 60, 0
4, 45216, Note_on_c, 1, 67, 77
4, 45216, Note_on_c, 1, 62, 77
4, 45349, Note_on_c, 1, 67, 0
4, 45349, Note_on_c, 1, 62, 0
4, 45360, Note_on_c, 1, 66, 77
4, 45360, Note_on_c, 1, 62, 77
4, 45493, Note_on_c, 1, 66, 0
4, 45493, Note_on_c, 1, 62, 0
4, 45504, Note_on_c, 1, 64, 77
4, 45504, Note_on_c, 1, 52, 77
4, 45549, Note_on_c, 1, 64, 0
4, 45549, Note_on_c, 1, 52, 0
4, 45552, Note_on_c, 1, 62, 77
4, 45552, Note_on_c, 1, 50, 77
4, 45597, Note_on_c, 1, 62, 0
4, 45597, Note_on_c, 1, 50, 0
4, 45600, Note_on_c, 1, 60, 77
4, 45600, Note_on_c, 1, 48, 77
4, 45645, Note_on_c, 1, 60, 0
4, 45645, Note_on_c, 1, 48, 0
4, 45648, Note_on_c, 1, 59, 77
4, 45648, Note_on_c, 1, 47, 77
4, 45693, Note_on_c, 1, 59, 0
4, 45693, Note_on_c, 1, 47, 0
4, 45696, Note_on_c, 1, 57, 77
4, 45696, Note_on_c, 1, 45, 77
4, 45741, Note_on_c, 1, 57, 0
4, 45741, Note_on_c, 1, 45, 0
4, 45744, Note_on_c, 1, 55, 77
4, 45744, Note_on_c, 1, 43, 77
4, 45789, Note_on_c, 1, 55, 0
4, 45789, Note_on_c, 1, 43, 0
4, 45792, Note_on_c, 1, 60, 77
4, 45792, Note_on_c, 1, 48, 77
4, 46057, Note_on_c, 1, 60, 0
4, 46057, Note_on_c, 1, 48, 0
4, 46080, Note_on_c, 1, 62, 77
4, 46213, Note_on_c, 1, 62, 0
4, 46224, Note_on_c, 1, 62, 77
4, 46357, Note_on_c, 1, 62, 0
4, 46368, Note_on_c, 1, 67, 63
4, 46413, Note_on_c, 1, 67, 0
4, 46416, Note_on_c, 1, 62, 63
4, 46461, Note_on_c, 1, 62, 0
4, 46464, Note_on_c, 1, 59, 63
4, 46509, Note_on_c, 1, 59, 0
4, 46512, Note_on_c, 1, 64, 63
4, 46557, Note_on_c, 1, 64, 0
4, 46560, Note_on_c, 1, 60, 63
4, 46605, Note_on_c, 1, 60, 0
4, 46608, Note_on_c, 1, 57, 63
4, 46653, Note_on_c, 1, 57, 0
4, 46656, Note_on_c, 1, 62, 63
4, 46701, Note_on_c, 1, 62, 0
4, 46704, Note_on_c, 1, 59, 63
4, 46749, Note_on_c, 1, 59, 0
4, 46752, Note_on_c, 1, 55, 63
4, 46797, Note_on_c, 1, 55, 0
4, 46800, Note_on_c, 1, 50, 63
4, 46845, Note_on_c, 1, 50, 0
4, 46848, Note_on_c, 1, 52, 63
4, 46893, Note_on_c, 1, 52, 0
4, 46896, Note_on_c, 1, 54, 63
4, 46941, Note_on_c, 1, 54, 0
4, 46944, Note_on_c, 1, 43, 63
4, 47033, Note_on_c, 1, 43, 0
4, 47232, Note_on_c, 1, 66, 77
4, 47232, Note_on_c, 1, 62, 77
4, 47271, Note_on_c, 1, 66, 0
4, 47271, Note_on_c, 1, 62, 0
4, 47376, Note_on_c, 1, 71, 77
4, 47376, Note_on_c, 1, 67, 77
4, 47415, Note_on_c, 1, 71, 0
4, 47415, Note_on_c, 1, 67, 0
4, 47520, Note_on_c, 1, 69, 77
4, 47520, Note_on_c, 1, 66, 77
4, 47559, Note_on_c, 1, 69, 0
4, 47559, Note_on_c, 1, 66, 0
4, 47664, Note_on_c, 1, 67, 77
4, 47664, Note_on_c, 1, 64, 77
4, 47703, Note_on_c, 1, 67, 0
4, 47703, Note_on_c, 1, 64, 0
4, 47808, Note_on_c, 1, 66, 77
4, 47808, Note_on_c, 1, 63, 77
4, 47847, Note_on_c, 1, 66, 0
4, 47847, Note_on_c, 1, 63, 0
4, 47952, Note_on_c, 1, 63, 77
4, 47952, Note_on_c, 1, 59, 77
4, 47991, Note_on_c, 1, 63, 0
4, 47991, Note_on_c, 1, 59, 0
4, 48144, Note_on_c, 1, 52, 77
4, 48192, Note_on_c, 1, 52, 0
4, 48192, Note_on_c, 1, 40, 77
4, 48237, Note_on_c, 1, 40, 0
4, 48288, Note_on_c, 1, 64, 77
4, 48311, Note_on_c, 1, 64, 0
4, 48312, Note_on_c, 1, 66, 77
4, 48335, Note_on_c, 1, 66, 0
4, 48336, Note_on_c, 1, 64, 77
4, 48356, Note_on_c, 1, 64, 0
4, 48432, Note_on_c, 1, 52, 77
4, 48480, Note_on_c, 1, 52, 0
4, 48480, Note_on_c, 1, 40, 77
4, 48525, Note_on_c, 1, 40, 0
4, 48576, Note_on_c, 1, 64, 77
4, 48599, Note_on_c, 1, 64, 0
4, 48600, Note_on_c, 1, 66, 77
4, 48623, Note_on_c, 1, 66, 0
4, 48624, Note_on_c, 1, 64, 77
4, 48644, Note_on_c, 1, 64, 0
4, 48720, Note_on_c, 1, 52, 77
4, 48768, Note_on_c, 1, 52, 0
4, 48768, Note_on_c, 1, 40, 77
4, 48813, Note_on_c, 1, 40, 0
4, 48864, Note_on_c, 1, 64, 77
4, 48887, Note_on_c, 1, 64, 0
4, 48888, Note_on_c, 1, 66, 77
4, 48911, Note_on_c, 1, 66, 0
4, 48912, Note_on_c, 1, 64, 77
4, 48932, Note_on_c, 1, 64, 0
4, 49008, Note_on_c, 1, 52, 77
4, 49056, Note_on_c, 1, 52, 0
4, 49056, Note_on_c, 1, 40, 77
4, 49101, Note_on_c, 1, 40, 0
4, 49152, Note_on_c, 1, 64, 77
4, 49175, Note_on_c, 1, 64, 0
4, 49176, Note_on_c, 1, 66, 77
4, 49199, Note_on_c, 1, 66, 0
4, 49200, Note_on_c, 1, 64, 77
4, 49220, Note_on_c, 1, 64, 0
4, 49296, Note_on_c, 1, 52, 77
4, 49341, Note_on_c, 1, 52, 0
4, 49344, Note_on_c, 1, 40, 77
4, 49389, Note_on_c, 1, 40, 0
4, 49440, Note_on_c, 1, 64, 77
4, 49485, Note_on_c, 1, 64, 0
4, 49488, Note_on_c, 1, 52, 77
4, 49533, Note_on_c, 1, 52, 0
4, 49584, Note_on_c, 1, 62, 77
4, 49629, Note_on_c, 1, 62, 0
4, 49632, Note_on_c, 1, 50, 77
4, 49677, Note_on_c, 1, 50, 0
4, 49728, Note_on_c, 1, 60, 77
4, 49773, Note_on_c, 1, 60, 0
4, 49776, Note_on_c, 1, 48, 77
4, 49821, Note_on_c, 1, 48, 0
4, 49872, Note_on_c, 1, 59, 77
4, 49917, Note_on_c, 1, 59, 0
4, 49920, Note_on_c, 1, 47, 77
4, 49965, Note_on_c, 1, 47, 0
4, 49968, Note_on_c, 1, 60, 77
4, 49968, Note_on_c, 1, 57, 77
4, 50101, Note_on_c, 1, 60, 0
4, 50101, Note_on_c, 1, 57, 0
4, 50112, Note_on_c, 1, 59, 77
4, 50112, Note_on_c, 1, 56, 77
4, 50245, Note_on_c, 1, 59, 0
4, 50245, Note_on_c, 1, 56, 0
4, 50256, Note_on_c, 1, 59, 77
4, 50256, Note_on_c, 1, 55, 77
4, 50389, Note_on_c, 1, 59, 0
4, 50389, Note_on_c, 1, 55, 0
4, 50400, Note_on_c, 1, 57, 77
4, 50400, Note_on_c, 1, 54, 77
4, 50533, Note_on_c, 1, 57, 0
4, 50533, Note_on_c, 1, 54, 0
4, 50544, Note_on_c, 1, 55, 77
4, 50544, Note_on_c, 1, 52, 77
4, 50677, Note_on_c, 1, 55, 0
4, 50677, Note_on_c, 1, 52, 0
4, 50688, Note_on_c, 1, 54, 77
4, 50688, Note_on_c, 1, 51, 77
4, 50821, Note_on_c, 1, 54, 0
4, 50821, Note_on_c, 1, 51, 0
4, 50832, Note_on_c, 1, 52, 77
4, 50832, Note_on_c, 1, 48, 77
4, 50965, Note_on_c, 1, 52, 0
4, 50965, Note_on_c, 1, 48, 0
4, 50976, Note_on_c, 1, 52, 77
4, 51021, Note_on_c, 1, 52, 0
4, 51024, Note_on_c, 1, 54, 77
4, 51069, Note_on_c, 1, 54, 0
4, 51072, Note_on_c, 1, 55, 77
4, 51117, Note_on_c, 1, 55, 0
4, 51120, Note_on_c, 1, 57, 77
4, 51168, Note_on_c, 1, 57, 0
4, 51168, Note_on_c, 1, 55, 77
4, 51213, Note_on_c, 1, 55, 0
4, 51264, Note_on_c, 1, 52, 77
4, 51309, Note_on_c, 1, 52, 0
4, 51312, Note_on_c, 1, 54, 77
4, 51357, Note_on_c, 1, 54, 0
4, 51360, Note_on_c, 1, 55, 77
4, 51405, Note_on_c, 1, 55, 0
4, 51408, Note_on_c, 1, 57, 77
4, 51456, Note_on_c, 1, 57, 0
4, 51456, Note_on_c, 1, 55, 77
4, 51501, Note_on_c, 1, 55, 0
4, 51552, Note_on_c, 1, 59, 77
4, 51597, Note_on_c, 1, 59, 0
4, 51600, Note_on_c, 1, 61, 77
4, 51645, Note_on_c, 1, 61, 0
4, 51648, Note_on_c, 1, 63, 77
4, 51693, Note_on_c, 1, 63, 0
4, 51696, Note_on_c, 1, 64, 77
4, 51744, Note_on_c, 1, 64, 0
4, 51744, Note_on_c, 1, 63, 77
4, 51789, Note_on_c, 1, 63, 0
4, 51840, Note_on_c, 1, 47, 77
4, 51885, Note_on_c, 1, 47, 0
4, 51888, Note_on_c, 1, 49, 77
4, 51933, Note_on_c, 1, 49, 0
4, 51936, Note_on_c, 1, 51, 77
4, 51981, Note_on_c, 1, 51, 0
4, 51984, Note_on_c, 1, 52, 77
4, 52029, Note_on_c, 1, 52, 0
4, 52032, Note_on_c, 1, 54, 77
4, 52077, Note_on_c, 1, 54, 0
4, 52080, Note_on_c, 1, 55, 77
4, 52125, Note_on_c, 1, 55, 0
4, 52128, Note_on_c, 1, 57, 77
4, 52173, Note_on_c, 1, 57, 0
4, 52176, Note_on_c, 1, 59, 77
4, 52221, Note_on_c, 1, 59, 0
4, 52224, Note_on_c, 1, 60, 77
4, 52269, Note_on_c, 1, 60, 0
4, 52272, Note_on_c, 1, 50, 77
4, 52317, Note_on_c, 1, 50, 0
4, 52320, Note_on_c, 1, 52, 77
4, 52365, Note_on_c, 1, 52, 0
4, 52368, Note_on_c, 1, 54, 77
4, 52413, Note_on_c, 1, 54, 0
4, 52416, Note_on_c, 1, 55, 77
4, 52461, Note_on_c, 1, 55, 0
4, 52464, Note_on_c, 1, 57, 77
4, 52509, Note_on_c, 1, 57, 0
4, 52512, Note_on_c, 1, 59, 77
4, 52557, Note_on_c, 1, 59, 0
4, 52560, Note_on_c, 1, 48, 77
4, 52605, Note_on_c, 1, 48, 0
4, 52608, Note_on_c, 1, 50, 77
4, 52653, Note_on_c, 1, 50, 0
4, 52656, Note_on_c, 1, 52, 77
4, 52701, Note_on_c, 1, 52, 0
4, 52704, Note_on_c, 1, 54, 77
4, 52749, Note_on_c, 1, 54, 0
4, 52752, Note_on_c, 1, 55, 77
4, 52797, Note_on_c, 1, 55, 0
4, 52800, Note_on_c, 1, 57, 77
4, 52845, Note_on_c, 1, 57, 0
4, 52848, Note_on_c, 1, 47, 77
4, 52893, Note_on_c, 1, 47, 0
4, 52896, Note_on_c, 1, 49, 77
4, 52941, Note_on_c, 1, 49, 0
4, 52944, Note_on_c, 1, 51, 77
4, 52989, Note_on_c, 1, 51, 0
4, 52992, Note_on_c, 1, 40, 77
4, 53015, Note_on_c, 1, 40, 0
4, 53016, Note_on_c, 1, 52, 77
4, 53039, Note_on_c, 1, 52, 0
4, 53040, Note_on_c, 1, 51, 77
4, 53063, Note_on_c, 1, 51, 0
4, 53064, Note_on_c, 1, 52, 77
4, 53087, Note_on_c, 1, 52, 0
4, 53088, Note_on_c, 1, 51, 77
4, 53111, Note_on_c, 1, 51, 0
4, 53112, Note_on_c, 1, 52, 77
4, 53135, Note_on_c, 1, 52, 0
4, 53136, Note_on_c, 1, 48, 77
4, 53159, Note_on_c, 1, 48, 0
4, 53160, Note_on_c, 1, 60, 77
4, 53183, Note_on_c, 1, 60, 0
4, 53184, Note_on_c, 1, 59, 77
4, 53207, Note_on_c, 1, 59, 0
4, 53208, Note_on_c, 1, 60, 77
4, 53231, Note_on_c, 1, 60, 0
4, 53232, Note_on_c, 1, 59, 77
4, 53255, Note_on_c, 1, 59, 0
4, 53256, Note_on_c, 1, 60, 77
4, 53279, Note_on_c, 1, 60, 0
4, 53280, Note_on_c, 1, 45, 77
4, 53303, Note_on_c, 1, 45, 0
4, 53304, Note_on_c, 1, 57, 77
4, 53327, Note_on_c, 1, 57, 0
4, 53328, Note_on_c, 1, 56, 77
4, 53351, Note_on_c, 1, 56, 0
4, 53352, Note_on_c, 1, 57, 77
4, 53375, Note_on_c, 1, 57, 0
4, 53376, Note_on_c, 1, 56, 77
4, 53399, Note_on_c, 1, 56, 0
4, 53400, Note_on_c, 1, 57, 77
4, 53423, Note_on_c, 1, 57, 0
4, 53424, Note_on_c, 1, 47, 77
4, 53447, Note_on_c, 1, 47, 0
4, 53448, Note_on_c, 1, 59, 77
4, 53471, Note_on_c, 1, 59, 0
4, 53472, Note_on_c, 1, 58, 77
4, 53495, Note_on_c, 1, 58, 0
4, 53496, Note_on_c, 1, 59, 77
4, 53519, Note_on_c, 1, 59, 0
4, 53520, Note_on_c, 1, 58, 77
4, 53543, Note_on_c, 1, 58, 0
4, 53544, Note_on_c, 1, 59, 77
4, 53567, Note_on_c, 1, 59, 0
4, 53616, Note_on_c, 1, 56, 77
4, 53661, Note_on_c, 1, 56, 0
4, 53664, Note_on_c, 1, 56, 77
4, 53709, Note_on_c, 1, 56, 0
4, 53760, Note_on_c, 1, 57, 77
4, 53805, Note_on_c, 1, 57, 0
4, 53808, Note_on_c, 1, 57, 77
4, 53853, Note_on_c, 1, 57, 0
4, 53904, Note_on_c, 1, 54, 77
4, 53949, Note_on_c, 1, 54, 0
4, 53952, Note_on_c, 1, 54, 77
4, 53997, Note_on_c, 1, 54, 0
4, 54048, Note_on_c, 1, 55, 77
4, 54093, Note_on_c, 1, 55, 0
4, 54096, Note_on_c, 1, 55, 77
4, 54141, Note_on_c, 1, 55, 0
4, 54144, Note_on_c, 1, 50, 77
4, 54144, Note_on_c, 1, 38, 77
4, 54189, Note_on_c, 1, 50, 0
4, 54189, Note_on_c, 1, 38, 0
4, 54192, Note_on_c, 1, 50, 77
4, 54192, Note_on_c, 1, 38, 77
4, 54237, Note_on_c, 1, 50, 0
4, 54237, Note_on_c, 1, 38, 0
4, 54240, Note_on_c, 1, 50, 77
4, 54240, Note_on_c, 1, 38, 77
4, 54285, Note_on_c, 1, 50, 0
4, 54285, Note_on_c, 1, 38, 0
4, 54288, Note_on_c, 1, 50, 77
4, 54288, Note_on_c, 1, 38, 77
4, 54377, Note_on_c, 1, 50, 0
4, 54377, Note_on_c, 1, 38, 0
4, 54432, Note_on_c, 1, 58, 77
4, 54432, Note_on_c, 1, 55, 77
4, 54521, Note_on_c, 1, 58, 0
4, 54521, Note_on_c, 1, 55, 0
4, 54576, Note_on_c, 1, 62, 77
4, 54576, Note_on_c, 1, 58, 77
4, 54665, Note_on_c, 1, 62, 0
4, 54665, Note_on_c, 1, 58, 0
4, 54720, Note_on_c, 1, 63, 77
4, 54720, Note_on_c, 1, 60, 77
4, 54809, Note_on_c, 1, 63, 0
4, 54809, Note_on_c, 1, 60, 0
4, 54864, Note_on_c, 1, 62, 77
4, 54953, Note_on_c, 1, 62, 0
4, 55008, Note_on_c, 1, 55, 77
4, 55097, Note_on_c, 1, 55, 0
4, 55152, Note_on_c, 1, 67, 77
4, 55197, Note_on_c, 1, 67, 0
4, 55200, Note_on_c, 1, 55, 77
4, 55245, Note_on_c, 1, 55, 0
4, 55296, Note_on_c, 1, 60, 77
4, 55385, Note_on_c, 1, 60, 0
4, 55440, Note_on_c, 1, 65, 77
4, 55485, Note_on_c, 1, 65, 0
4, 55488, Note_on_c, 1, 53, 77
4, 55533, Note_on_c, 1, 53, 0
4, 55584, Note_on_c, 1, 58, 77
4, 55673, Note_on_c, 1, 58, 0
4, 55728, Note_on_c, 1, 63, 77
4, 55773, Note_on_c, 1, 63, 0
4, 55776, Note_on_c, 1, 51, 77
4, 55821, Note_on_c, 1, 51, 0
4, 55872, Note_on_c, 1, 57, 77
4, 55961, Note_on_c, 1, 57, 0
4, 56016, Note_on_c, 1, 62, 77
4, 56061, Note_on_c, 1, 62, 0
4, 56064, Note_on_c, 1, 50, 77
4, 56109, Note_on_c, 1, 50, 0
4, 56160, Note_on_c, 1, 55, 77
4, 56249, Note_on_c, 1, 55, 0
4, 56304, Note_on_c, 1, 65, 77
4, 56393, Note_on_c, 1, 65, 0
4, 56448, Note_on_c, 1, 64, 77
4, 56537, Note_on_c, 1, 64, 0
4, 56592, Note_on_c, 1, 63, 77
4, 56681, Note_on_c, 1, 63, 0
4, 56736, Note_on_c, 1, 62, 77
4, 56825, Note_on_c, 1, 62, 0
4, 56880, Note_on_c, 1, 54, 77
4, 57013, Note_on_c, 1, 54, 0
4, 57024, Note_on_c, 1, 55, 77
4, 57157, Note_on_c, 1, 55, 0
4, 57168, Note_on_c, 1, 57, 77
4, 57301, Note_on_c, 1, 57, 0
4, 57312, Note_on_c, 1, 59, 77
4, 57312, Note_on_c, 1, 55, 77
4, 57351, Note_on_c, 1, 59, 0
4, 57351, Note_on_c, 1, 55, 0
4, 57456, Note_on_c, 1, 64, 77
4, 57456, Note_on_c, 1, 60, 77
4, 57495, Note_on_c, 1, 64, 0
4, 57495, Note_on_c, 1, 60, 0
4, 57600, Note_on_c, 1, 62, 77
4, 57600, Note_on_c, 1, 59, 77
4, 57639, Note_on_c, 1, 62, 0
4, 57639, Note_on_c, 1, 59, 0
4, 57744, Note_on_c, 1, 60, 77
4, 57744, Note_on_c, 1, 57, 77
4, 57783, Note_on_c, 1, 60, 0
4, 57783, Note_on_c, 1, 57, 0
4, 57888, Note_on_c, 1, 59, 77
4, 57888, Note_on_c, 1, 55, 77
4, 57927, Note_on_c, 1, 59, 0
4, 57927, Note_on_c, 1, 55, 0
4, 58032, Note_on_c, 1, 59, 77
4, 58032, Note_on_c, 1, 47, 77
4, 58165, Note_on_c, 1, 59, 0
4, 58165, Note_on_c, 1, 47, 0
4, 58176, Note_on_c, 1, 60, 77
4, 58176, Note_on_c, 1, 48, 77
4, 58309, Note_on_c, 1, 60, 0
4, 58309, Note_on_c, 1, 48, 0
4, 58320, Note_on_c, 1, 62, 77
4, 58320, Note_on_c, 1, 50, 77
4, 58453, Note_on_c, 1, 62, 0
4, 58453, Note_on_c, 1, 50, 0
4, 58464, Note_on_c, 1, 55, 77
4, 58464, Note_on_c, 1, 43, 77
4, 58597, Note_on_c, 1, 55, 0
4, 58597, Note_on_c, 1, 43, 0
4, 58608, Note_on_c, 1, 59, 77
4, 58608, Note_on_c, 1, 47, 77
4, 58741, Note_on_c, 1, 59, 0
4, 58741, Note_on_c, 1, 47, 0
4, 58752, Note_on_c, 1, 60, 77
4, 58752, Note_on_c, 1, 48, 77
4, 58885, Note_on_c, 1, 60, 0
4, 58885, Note_on_c, 1, 48, 0
4, 58896, Note_on_c, 1, 62, 77
4, 58896, Note_on_c, 1, 50, 77
4, 59029, Note_on_c, 1, 62, 0
4, 59029, Note_on_c, 1, 50, 0
4, 59040, Note_on_c, 1, 55, 77
4, 59040, Note_on_c, 1, 43, 77
4, 59173, Note_on_c, 1, 55, 0
4, 59173, Note_on_c, 1, 43, 0
4, 59184, Note_on_c, 1, 62, 77
4, 59184, Note_on_c, 1, 59, 77
4, 59273, Note_on_c, 1, 62, 0
4, 59273, Note_on_c, 1, 59, 0
4, 59328, Note_on_c, 1, 64, 77
4, 59328, Note_on_c, 1, 60, 77
4, 59417, Note_on_c, 1, 64, 0
4, 59417, Note_on_c, 1, 60, 0
4, 59472, Note_on_c, 1, 62, 77
4, 59561, Note_on_c, 1, 62, 0
4, 59568, Note_on_c, 1, 66, 77
4, 59613, Note_on_c, 1, 66, 0
4, 59616, Note_on_c, 1, 67, 77
4, 59661, Note_on_c, 1, 67, 0
4, 59664, Note_on_c, 1, 71, 77
4, 59709, Note_on_c, 1, 71, 0
4, 59712, Note_on_c, 1, 74, 77
4, 59757, Note_on_c, 1, 74, 0
4, 59856, Note_on_c, 1, 67, 77
4, 59901, Note_on_c, 1, 67, 0
4, 59904, Note_on_c, 1, 76, 77
4, 59904, Note_on_c, 1, 72, 77
4, 60000, Note_on_c, 1, 76, 0
4, 60000, Note_on_c, 1, 72, 0
4, 60000, Note_on_c, 1, 74, 77
4, 60000, Note_on_c, 1, 71, 77
4, 60045, Note_on_c, 1, 74, 0
4, 60045, Note_on_c, 1, 71, 0
4, 60144, Note_on_c, 1, 66, 77
4, 60189, Note_on_c, 1, 66, 0
4, 60192, Note_on_c, 1, 67, 77
4, 60237, Note_on_c, 1, 67, 0
4, 60240, Note_on_c, 1, 71, 77
4, 60285, Note_on_c, 1, 71, 0
4, 60288, Note_on_c, 1, 74, 77
4, 60333, Note_on_c, 1, 74, 0
4, 60432, Note_on_c, 1, 67, 77
4, 60477, Note_on_c, 1, 67, 0
4, 60480, Note_on_c, 1, 76, 77
4, 60480, Note_on_c, 1, 72, 77
4, 60576, Note_on_c, 1, 76, 0
4, 60576, Note_on_c, 1, 72, 0
4, 60576, Note_on_c, 1, 74, 77
4, 60576, Note_on_c, 1, 71, 77
4, 60621, Note_on_c, 1, 74, 0
4, 60621, Note_on_c, 1, 71, 0
4, 60624, Note_on_c, 1, 72, 77
4, 60624, Note_on_c, 1, 69, 77
4, 60713, Note_on_c, 1, 72, 0
4, 60713, Note_on_c, 1, 69, 0
4, 60720, Note_on_c, 1, 71, 77
4, 60720, Note_on_c, 1, 67, 77
4, 60765, Note_on_c, 1, 71, 0
4, 60765, Note_on_c, 1, 67, 0
4, 60768, Note_on_c, 1, 69, 77
4, 60768, Note_on_c, 1, 66, 77
4, 60857, Note_on_c, 1, 69, 0
4, 60857, Note_on_c, 1, 66, 0
4, 60864, Note_on_c, 1, 71, 77
4, 60864, Note_on_c, 1, 67, 77
4, 60909, Note_on_c, 1, 71, 0
4, 60909, Note_on_c, 1, 67, 0
4, 60912, Note_on_c, 1, 72, 77
4, 60912, Note_on_c, 1, 69, 77
4, 61001, Note_on_c, 1, 72, 0
4, 61001, Note_on_c, 1, 69, 0
4, 61008, Note_on_c, 1, 71, 77
4, 61008, Note_on_c, 1, 67, 77
4, 61053, Note_on_c, 1, 71, 0
4, 61053, Note_on_c, 1, 67, 0
4, 61056, Note_on_c, 1, 69, 77
4, 61056, Note_on_c, 1, 66, 77
4, 61145, Note_on_c, 1, 69, 0
4, 61145, Note_on_c, 1, 66, 0
4, 61152, Note_on_c, 1, 71, 77
4, 61152, Note_on_c, 1, 67, 77
4, 61197, Note_on_c, 1, 71, 0
4, 61197, Note_on_c, 1, 67, 0
4, 61200, Note_on_c, 1, 72, 77
4, 61200, Note_on_c, 1, 69, 77
4, 61289, Note_on_c, 1, 72, 0
4, 61289, Note_on_c, 1, 69, 0
4, 61296, Note_on_c, 1, 71, 77
4, 61296, Note_on_c, 1, 67, 77
4, 61341, Note_on_c, 1, 71, 0
4, 61341, Note_on_c, 1, 67, 0
4, 61344, Note_on_c, 1, 69, 77
4, 61344, Note_on_c, 1, 66, 77
4, 61433, Note_on_c, 1, 69, 0
4, 61433, Note_on_c, 1, 66, 0
4, 61440, Note_on_c, 1, 67, 77
4, 61485, Note_on_c, 1, 67, 0
4, 61488, Note_on_c, 1, 69, 77
4, 61488, Note_on_c, 1, 66, 77
4, 61577, Note_on_c, 1, 69, 0
4, 61577, Note_on_c, 1, 66, 0
4, 61584, Note_on_c, 1, 67, 77
4, 61629, Note_on_c, 1, 67, 0
4, 61632, Note_on_c, 1, 69, 77
4, 61632, Note_on_c, 1, 66, 77
4, 61632, Note_on_c, 1, 62, 77
4, 61677, Note_on_c, 1, 69, 0
4, 61677, Note_on_c, 1, 66, 0
4, 61677, Note_on_c, 1, 62, 0
4, 61680, Note_on_c, 1, 69, 77
4, 61680, Note_on_c, 1, 66, 77
4, 61680, Note_on_c, 1, 62, 77
4, 61725, Note_on_c, 1, 69, 0
4, 61725, Note_on_c, 1, 66, 0
4, 61725, Note_on_c, 1, 62, 0
4, 61728, Note_on_c, 1, 69, 77
4, 61728, Note_on_c, 1, 66, 77
4, 61728, Note_on_c, 1, 62, 77
4, 61773, Note_on_c, 1, 69, 0
4, 61773, Note_on_c, 1, 66, 0
4, 61773, Note_on_c, 1, 62, 0
4, 61776, Note_on_c, 1, 69, 77
4, 61776, Note_on_c, 1, 66, 77
4, 61776, Note_on_c, 1, 62, 77
4, 61865, Note_on_c, 1, 69, 0
4, 61865, Note_on_c, 1, 66, 0
4, 61865, Note_on_c, 1, 62, 0
4, 61968, Note_on_c, 1, 43, 77
4, 62013, Note_on_c, 1, 43, 0
4, 62016, Note_on_c, 1, 31, 77
4, 62061, Note_on_c, 1, 31, 0
4, 62112, Note_on_c, 1, 55, 77
4, 62136, Note_on_c, 1, 55, 0
4, 62136, Note_on_c, 1, 54, 77
4, 62159, Note_on_c, 1, 54, 0
4, 62160, Note_on_c, 1, 55, 77
4, 62180, Note_on_c, 1, 55, 0
4, 62256, Note_on_c, 1, 43, 77
4, 62301, Note_on_c, 1, 43, 0
4, 62304, Note_on_c, 1, 31, 77
4, 62349, Note_on_c, 1, 31, 0
4, 62400, Note_on_c, 1, 55, 77
4, 62424, Note_on_c, 1, 55, 0
4, 62424, Note_on_c, 1, 54, 77
4, 62447, Note_on_c, 1, 54, 0
4, 62448, Note_on_c, 1, 55, 77
4, 62468, Note_on_c, 1, 55, 0
4, 62544, Note_on_c, 1, 43, 77
4, 62589, Note_on_c, 1, 43, 0
4, 62592, Note_on_c, 1, 31, 77
4, 62637, Note_on_c, 1, 31, 0
4, 62688, Note_on_c, 1, 55, 77
4, 62712, Note_on_c, 1, 55, 0
4, 62712, Note_on_c, 1, 54, 77
4, 62735, Note_on_c, 1, 54, 0
4, 62736, Note_on_c, 1, 55, 77
4, 62756, Note_on_c, 1, 55, 0
4, 62832, Note_on_c, 1, 43, 77
4, 62877, Note_on_c, 1, 43, 0
4, 62880, Note_on_c, 1, 31, 77
4, 62925, Note_on_c, 1, 31, 0
4, 62976, Note_on_c, 1, 55, 77
4, 63000, Note_on_c, 1, 55, 0
4, 63000, Note_on_c, 1, 54, 77
4, 63023, Note_on_c, 1, 54, 0
4, 63024, Note_on_c, 1, 55, 77
4, 63044, Note_on_c, 1, 55, 0
4, 63120, Note_on_c, 1, 43, 77
4, 63165, Note_on_c, 1, 43, 0
4, 63168, Note_on_c, 1, 31, 77
4, 63213, Note_on_c, 1, 31, 0
4, 63264, Note_on_c, 1, 52, 77
4, 63288, Note_on_c, 1, 52, 0
4, 63288, Note_on_c, 1, 51, 77
4, 63311, Note_on_c, 1, 51, 0
4, 63312, Note_on_c, 1, 52, 77
4, 63332, Note_on_c, 1, 52, 0
4, 63408, Note_on_c, 1, 48, 77
4, 63431, Note_on_c, 1, 48, 0
4, 63432, Note_on_c, 1, 47, 77
4, 63455, Note_on_c, 1, 47, 0
4, 63456, Note_on_c, 1, 48, 77
4, 63476, Note_on_c, 1, 48, 0
4, 63552, Note_on_c, 1, 49, 77
4, 63576, Note_on_c, 1, 49, 0
4, 63576, Note_on_c, 1, 47, 77
4, 63599, Note_on_c, 1, 47, 0
4, 63600, Note_on_c, 1, 49, 77
4, 63620, Note_on_c, 1, 49, 0
4, 63648, Note_on_c, 1, 50, 77
4, 63693, Note_on_c, 1, 50, 0
4, 63696, Note_on_c, 1, 52, 77
4, 63741, Note_on_c, 1, 52, 0
4, 63744, Note_on_c, 1, 54, 77
4, 63789, Note_on_c, 1, 54, 0
4, 63792, Note_on_c, 1, 55, 77
4, 63840, Note_on_c, 1, 55, 0
4, 63840, Note_on_c, 1, 54, 77
4, 63885, Note_on_c, 1, 54, 0
4, 63936, Note_on_c, 1, 50, 77
4, 63981, Note_on_c, 1, 50, 0
4, 63984, Note_on_c, 1, 52, 77
4, 64029, Note_on_c, 1, 52, 0
4, 64032, Note_on_c, 1, 54, 77
4, 64077, Note_on_c, 1, 54, 0
4, 64080, Note_on_c, 1, 55, 77
4, 64128, Note_on_c, 1, 55, 0
4, 64128, Note_on_c, 1, 54, 77
4, 64173, Note_on_c, 1, 54, 0
4, 64224, Note_on_c, 1, 50, 77
4, 64269, Note_on_c, 1, 50, 0
4, 64272, Note_on_c, 1, 52, 77
4, 64317, Note_on_c, 1, 52, 0
4, 64320, Note_on_c, 1, 54, 77
4, 64365, Note_on_c, 1, 54, 0
4, 64368, Note_on_c, 1, 55, 77
4, 64413, Note_on_c, 1, 55, 0
4, 64416, Note_on_c, 1, 57, 77
4, 64461, Note_on_c, 1, 57, 0
4, 64464, Note_on_c, 1, 59, 77
4, 64509, Note_on_c, 1, 59, 0
4, 64512, Note_on_c, 1, 60, 77
4, 64645, Note_on_c, 1, 60, 0
4, 64656, Note_on_c, 1, 59, 77
4, 64789, Note_on_c, 1, 59, 0
4, 64800, Note_on_c, 1, 64, 77
4, 64800, Note_on_c, 1, 61, 77
4, 64800, Note_on_c, 1, 57, 77
4, 64889, Note_on_c, 1, 64, 0
4, 64889, Note_on_c, 1, 61, 0
4, 64889, Note_on_c, 1, 57, 0
4, 65016, Note_on_c, 1, 67, 77
4, 65039, Note_on_c, 1, 67, 0
4, 65040, Note_on_c, 1, 66, 77
4, 65063, Note_on_c, 1, 66, 0
4, 65064, Note_on_c, 1, 64, 77
4, 65087, Note_on_c, 1, 64, 0
4, 65088, Note_on_c, 1, 69, 77
4, 65088, Note_on_c, 1, 66, 77
4, 65088, Note_on_c, 1, 62, 77
4, 65221, Note_on_c, 1, 69, 0
4, 65221, Note_on_c, 1, 66, 0
4, 65221, Note_on_c, 1, 62, 0
4, 65376, Note_on_c, 1, 55, 77
4, 65421, Note_on_c, 1, 55, 0
4, 65424, Note_on_c, 1, 57, 77
4, 65469, Note_on_c, 1, 57, 0
4, 65472, Note_on_c, 1, 59, 77
4, 65517, Note_on_c, 1, 59, 0
4, 65520, Note_on_c, 1, 60, 77
4, 65565, Note_on_c, 1, 60, 0
4, 65568, Note_on_c, 1, 62, 77
4, 65613, Note_on_c, 1, 62, 0
4, 65616, Note_on_c, 1, 64, 77
4, 65661, Note_on_c, 1, 64, 0
4, 65664, Note_on_c, 1, 62, 77
4, 65797, Note_on_c, 1, 62, 0
4, 65808, Note_on_c, 1, 50, 77
4, 65941, Note_on_c, 1, 50, 0
4, 65952, Note_on_c, 1, 55, 77
4, 66041, Note_on_c, 1, 55, 0
4, 66096, Note_on_c, 1, 67, 77
4, 66373, Note_on_c, 1, 67, 0
4, 66384, Note_on_c, 1, 67, 77
4, 66661, Note_on_c, 1, 67, 0
4, 66672, Note_on_c, 1, 67, 77
4, 66949, Note_on_c, 1, 67, 0
4, 66960, Note_on_c, 1, 69, 77
4, 67093, Note_on_c, 1, 69, 0
4, 67104, Note_on_c, 1, 67, 77
4, 67237, Note_on_c, 1, 67, 0
4, 67248, Note_on_c, 1, 62, 77
4, 67248, Note_on_c, 1, 59, 77
4, 67381, Note_on_c, 1, 62, 0
4, 67381, Note_on_c, 1, 59, 0
4, 67392, Note_on_c, 1, 64, 77
4, 67392, Note_on_c, 1, 60, 77
4, 67481, Note_on_c, 1, 64, 0
4, 67481, Note_on_c, 1, 60, 0
4, 67680, Note_on_c, 1, 67, 77
4, 67680, Note_on_c, 1, 62, 77
4, 67813, Note_on_c, 1, 67, 0
4, 67813, Note_on_c, 1, 62, 0
4, 67824, Note_on_c, 1, 66, 77
4, 67824, Note_on_c, 1, 62, 77
4, 67957, Note_on_c, 1, 66, 0
4, 67957, Note_on_c, 1, 62, 0
4, 67968, Note_on_c, 1, 64, 77
4, 67968, Note_on_c, 1, 52, 77
4, 68013, Note_on_c, 1, 64, 0
4, 68013, Note_on_c, 1, 52, 0
4, 68016, Note_on_c, 1, 62, 77
4, 68016, Note_on_c, 1, 50, 77
4, 68061, Note_on_c, 1, 62, 0
4, 68061, Note_on_c, 1, 50, 0
4, 68064, Note_on_c, 1, 60, 77
4, 68064, Note_on_c, 1, 48, 77
4, 68109, Note_on_c, 1, 60, 0
4, 68109, Note_on_c, 1, 48, 0
4, 68112, Note_on_c, 1, 59, 77
4, 68112, Note_on_c, 1, 47, 77
4, 68157, Note_on_c, 1, 59, 0
4, 68157, Note_on_c, 1, 47, 0
4, 68160, Note_on_c, 1, 57, 77
4, 68160, Note_on_c, 1, 45, 77
4, 68205, Note_on_c, 1, 57, 0
4, 68205, Note_on_c, 1, 45, 0
4, 68208, Note_on_c, 1, 55, 77
4, 68208, Note_on_c, 1, 43, 77
4, 68253, Note_on_c, 1, 55, 0
4, 68253, Note_on_c, 1, 43, 0
4, 68256, Note_on_c, 1, 60, 77
4, 68256, Note_on_c, 1, 48, 77
4, 68521, Note_on_c, 1, 60, 0
4, 68521, Note_on_c, 1, 48, 0
4, 68544, Note_on_c, 1, 62, 77
4, 68677, Note_on_c, 1, 62, 0
4, 68688, Note_on_c, 1, 62, 77
4, 68821, Note_on_c, 1, 62, 0
4, 68832, Note_on_c, 1, 67, 63
4, 68877, Note_on_c, 1, 67, 0
4, 68880, Note_on_c, 1, 62, 63
4, 68925, Note_on_c, 1, 62, 0
4, 68928, Note_on_c, 1, 59, 63
4, 68973, Note_on_c, 1, 59, 0
4, 68976, Note_on_c, 1, 64, 63
4, 69021, Note_on_c, 1, 64, 0
4, 69024, Note_on_c, 1, 60, 63
4, 69069, Note_on_c, 1, 60, 0
4, 69072, Note_on_c, 1, 57, 63
4, 69117, Note_on_c, 1, 57, 0
4, 69120, Note_on_c, 1, 62, 63
4, 69165, Note_on_c, 1, 62, 0
4, 69168, Note_on_c, 1, 59, 63
4, 69213, Note_on_c, 1, 59, 0
4, 69216, Note_on_c, 1, 55, 63
4, 69261, Note_on_c, 1, 55, 0
4, 69264, Note_on_c, 1, 50, 63
4, 69309, Note_on_c, 1, 50, 0
4, 69312, Note_on_c, 1, 52, 63
4, 69357, Note_on_c, 1, 52, 0
4, 69360, Note_on_c, 1, 54, 63
4, 69405, Note_on_c, 1, 54, 0
4, 69408, Note_on_c, 1, 43, 63
4, 69497, Note_on_c, 1, 43, 0
4, 69696, End_track
5, 0, Start_track
5, 0, Program_c, 1, 0
5, 0, Control_c, 1, 7, 127
5, 0, Control_c, 1, 10, 64
5, 3312, Note_on_c, 1, 62, 64
5, 3445, Note_on_c, 1, 62, 0
5, 3456, Note_on_c, 1, 62, 64
5, 3589, Note_on_c, 1, 62, 0
5, 3600, Note_on_c, 1, 62, 64
5, 3733, Note_on_c, 1, 62, 0
5, 3744, Note_on_c, 1, 62, 64
5, 3877, Note_on_c, 1, 62, 0
5, 3888, Note_on_c, 1, 62, 64
5, 4021, Note_on_c, 1, 62, 0
5, 4032, Note_on_c, 1, 62, 64
5, 4165, Note_on_c, 1, 62, 0
5, 4176, Note_on_c, 1, 62, 64
5, 4309, Note_on_c, 1, 62, 0
5, 8640, Note_on_c, 1, 50, 64
5, 8729, Note_on_c, 1, 50, 0
5, 8784, Note_on_c, 1, 55, 64
5, 8873, Note_on_c, 1, 55, 0
5, 8880, Note_on_c, 1, 57, 64
5, 8925, Note_on_c, 1, 57, 0
5, 8928, Note_on_c, 1, 59, 64
5, 9017, Note_on_c, 1, 59, 0
5, 9024, Note_on_c, 1, 57, 64
5, 9069, Note_on_c, 1, 57, 0
5, 9072, Note_on_c, 1, 55, 64
5, 9161, Note_on_c, 1, 55, 0
5, 9168, Note_on_c, 1, 57, 64
5, 9213, Note_on_c, 1, 57, 0
5, 9216, Note_on_c, 1, 59, 64
5, 9305, Note_on_c, 1, 59, 0
5, 9312, Note_on_c, 1, 57, 64
5, 9357, Note_on_c, 1, 57, 0
5, 9360, Note_on_c, 1, 56, 64
5, 9449, Note_on_c, 1, 56, 0
5, 9456, Note_on_c, 1, 57, 64
5, 9501, Note_on_c, 1, 57, 0
5, 9504, Note_on_c, 1, 59, 64
5, 9637, Note_on_c, 1, 59, 0
5, 9648, Note_on_c, 1, 61, 64
5, 9781, Note_on_c, 1, 61, 0
5, 15696, Note_on_c, 1, 62, 64
5, 15829, Note_on_c, 1, 62, 0
5, 15840, Note_on_c, 1, 62, 64
5, 15973, Note_on_c, 1, 62, 0
5, 15984, Note_on_c, 1, 62, 64
5, 16117, Note_on_c, 1, 62, 0
5, 16128, Note_on_c, 1, 62, 64
5, 16261, Note_on_c, 1, 62, 0
5, 16272, Note_on_c, 1, 62, 64
5, 16405, Note_on_c, 1, 62, 0
5, 16416, Note_on_c, 1, 62, 64
5, 16549, Note_on_c, 1, 62, 0
5, 16560, Note_on_c, 1, 62, 64
5, 16693, Note_on_c, 1, 62, 0
5, 21024, Note_on_c, 1, 50, 64
5, 21113, Note_on_c, 1, 50, 0
5, 21168, Note_on_c, 1, 55, 64
5, 21257, Note_on_c, 1, 55, 0
5, 21264, Note_on_c, 1, 57, 64
5, 21309, Note_on_c, 1, 57, 0
5, 21312, Note_on_c, 1, 59, 64
5, 21401, Note_on_c, 1, 59, 0
5, 21408, Note_on_c, 1, 57, 64
5, 21453, Note_on_c, 1, 57, 0
5, 21456, Note_on_c, 1, 55, 64
5, 21545, Note_on_c, 1, 55, 0
5, 21552, Note_on_c, 1, 57, 64
5, 21597, Note_on_c, 1, 57, 0
5, 21600, Note_on_c, 1, 59, 64
5, 21689, Note_on_c, 1, 59, 0
5, 21696, Note_on_c, 1, 57, 64
5, 21741, Note_on_c, 1, 57, 0
5, 21744, Note_on_c, 1, 56, 64
5, 21833, Note_on_c, 1, 56, 0
5, 21840, Note_on_c, 1, 57, 64
5, 21885, Note_on_c, 1, 57, 0
5, 21888, Note_on_c, 1, 59, 64
5, 22021, Note_on_c, 1, 59, 0
5, 22032, Note_on_c, 1, 61, 64
5, 22165, Note_on_c, 1, 61, 0
5, 31104, Note_on_c, 1, 44, 64
5, 31237, Note_on_c, 1, 44, 0
5, 31248, Note_on_c, 1, 45, 64
5, 31381, Note_on_c, 1, 45, 0
5, 31392, Note_on_c, 1, 42, 64
5, 31525, Note_on_c, 1, 42, 0
5, 31536, Note_on_c, 1, 43, 64
5, 31669, Note_on_c, 1, 43, 0
5, 34416, Note_on_c, 1, 50, 64
5, 34825, Note_on_c, 1, 50, 0
5, 38160, Note_on_c, 1, 62, 64
5, 38293, Note_on_c, 1, 62, 0
5, 38304, Note_on_c, 1, 62, 64
5, 38437, Note_on_c, 1, 62, 0
5, 38448, Note_on_c, 1, 62, 64
5, 38581, Note_on_c, 1, 62, 0
5, 38592, Note_on_c, 1, 62, 64
5, 38725, Note_on_c, 1, 62, 0
5, 38736, Note_on_c, 1, 62, 64
5, 38869, Note_on_c, 1, 62, 0
5, 38880, Note_on_c, 1, 62, 64
5, 39013, Note_on_c, 1, 62, 0
5, 39024, Note_on_c, 1, 62, 64
5, 39157, Note_on_c, 1, 62, 0
5, 43488, Note_on_c, 1, 55, 64
5, 43577, Note_on_c, 1, 55, 0
5, 43632, Note_on_c, 1, 60, 64
5, 43721, Note_on_c, 1, 60, 0
5, 43728, Note_on_c, 1, 62, 64
5, 43773, Note_on_c, 1, 62, 0
5, 43776, Note_on_c, 1, 64, 64
5, 43865, Note_on_c, 1, 64, 0
5, 43872, Note_on_c, 1, 62, 64
5, 43917, Note_on_c, 1, 62, 0
5, 43920, Note_on_c, 1, 60, 64
5, 44009, Note_on_c, 1, 60, 0
5, 44016, Note_on_c, 1, 62, 64
5, 44061, Note_on_c, 1, 62, 0
5, 44064, Note_on_c, 1, 64, 64
5, 44153, Note_on_c, 1, 64, 0
5, 44160, Note_on_c, 1, 62, 64
5, 44205, Note_on_c, 1, 62, 0
5, 44208, Note_on_c, 1, 61, 64
5, 44297, Note_on_c, 1, 61, 0
5, 44304, Note_on_c, 1, 62, 64
5, 44349, Note_on_c, 1, 62, 0
5, 44352, Note_on_c, 1, 64, 64
5, 44485, Note_on_c, 1, 64, 0
5, 44496, Note_on_c, 1, 66, 64
5, 44629, Note_on_c, 1, 66, 0
5, 44640, Note_on_c, 1, 67, 64
5, 44773, Note_on_c, 1, 67, 0
5, 53568, Note_on_c, 1, 44, 64
5, 53701, Note_on_c, 1, 44, 0
5, 53712, Note_on_c, 1, 45, 64
5, 53845, Note_on_c, 1, 45, 0
5, 53856, Note_on_c, 1, 42, 64
5, 53989, Note_on_c, 1, 42, 0
5, 54000, Note_on_c, 1, 43, 64
5, 54133, Note_on_c, 1, 43, 0
5, 56880, Note_on_c, 1, 50, 64
5, 57289, Note_on_c, 1, 50, 0
5, 60624, Note_on_c, 1, 62, 64
5, 60757, Note_on_c, 1, 62, 0
5, 60768, Note_on_c, 1, 62, 64
5, 60901, Note_on_c, 1, 62, 0
5, 60912, Note_on_c, 1, 62, 64
5, 61045, Note_on_c, 1, 62, 0
5, 61056, Note_on_c, 1, 62, 64
5, 61189, Note_on_c, 1, 62, 0
5, 61200, Note_on_c, 1, 62, 64
5, 61333, Note_on_c, 1, 62, 0
5, 61344, Note_on_c, 1, 62, 64
5, 61477, Note_on_c, 1, 62, 0
5, 61488, Note_on_c, 1, 62, 64
5, 61621, Note_on_c, 1, 62, 0
5, 65952, Note_on_c, 1, 55, 64
5, 66041, Note_on_c, 1, 55, 0
5, 66096, Note_on_c, 1, 60, 64
5, 66185, Note_on_c, 1, 60, 0
5, 66192, Note_on_c, 1, 62, 64
5, 66237, Note_on_c, 1, 62, 0
5, 66240, Note_on_c, 1, 64, 64
5, 66329, Note_on_c, 1, 64, 0
5, 66336, Note_on_c, 1, 62, 64
5, 66381, Note_on_c, 1, 62, 0
5, 66384, Note_on_c, 1, 60, 64
5, 66473, Note_on_c, 1, 60, 0
5, 66480, Note_on_c, 1, 62, 64
5, 66525, Note_on_c, 1, 62, 0
5, 66528, Note_on_c, 1, 64, 64
5, 66617, Note_on_c, 1, 64, 0
5, 66624, Note_on_c, 1, 62, 64
5, 66669, Note_on_c, 1, 62, 0
5, 66672, Note_on_c, 1, 61, 64
5, 66761, Note_on_c, 1, 61, 0
5, 66768, Note_on_c, 1, 62, 64
5, 66813, Note_on_c, 1, 62, 0
5, 66816, Note_on_c, 1, 64, 64
5, 66949, Note_on_c, 1, 64, 0
5, 66960, Note_on_c, 1, 66, 64
5, 67093, Note_on_c, 1, 66, 0
5, 67104, Note_on_c, 1, 67, 64
5, 67237, Note_on_c, 1, 67, 0
5, 69696, End_track
6, 0, Start_track
6, 0, Title_t, "Piano Solo   <composer>  "
6, 0, End_track
0, 0, End_of_file
