0, 0, Header, 1, 6, 96
1, 0, Start_track
1, 0, Copyright_t, "Copyright  2000 <copyright holder>"
1, 0, Text_t, "Sonata I\015\012"
1, 0, Text_t, "Haydn\015\012"
1, 0, Sequencer_specific, 16, 68, 87, 77, 90, 86, 82, 83, 78, 32, 55, 46, 49, 46, 50, 46, 48
1, 0, Time_signature, 2, 2, 24, 8
1, 0, Tempo, 400000
1, 0, Key_signature, -4, "major"
1, 66624, End_track
2, 0, Start_track
2, 0, Program_c, 0, 0
2, 0, Control_c, 0, 7, 127
2, 0, Control_c, 0, 10, 64
2, 144, Note_on_c, 0, 72, 64
2, 167, Note_on_c, 0, 72, 0
2, 168, Note_on_c, 0, 73, 64
2, 191, Note_on_c, 0, 73, 0
2, 192, Note_on_c, 0, 75, 75
2, 212, Note_on_c, 0, 75, 0
2, 240, Note_on_c, 0, 75, 76
2, 260, Note_on_c, 0, 75, 0
2, 288, Note_on_c, 0, 75, 77
2, 308, Note_on_c, 0, 75, 0
2, 336, Note_on_c, 0, 80, 78
2, 356, Note_on_c, 0, 80, 0
2, 384, Note_on_c, 0, 75, 80
2, 517, Note_on_c, 0, 75, 0
2, 528, Note_on_c, 0, 73, 75
2, 551, Note_on_c, 0, 73, 0
2, 552, Note_on_c, 0, 72, 75
2, 575, Note_on_c, 0, 72, 0
2, 576, Note_on_c, 0, 70, 75
2, 665, Note_on_c, 0, 70, 0
2, 672, Note_on_c, 0, 72, 75
2, 761, Note_on_c, 0, 72, 0
2, 768, Note_on_c, 0, 75, 75
2, 813, Note_on_c, 0, 75, 0
2, 816, Note_on_c, 0, 73, 75
2, 828, Note_on_c, 0, 73, 0
2, 828, Note_on_c, 0, 72, 75
2, 840, Note_on_c, 0, 72, 0
2, 840, Note_on_c, 0, 73, 75
2, 861, Note_on_c, 0, 73, 0
2, 864, Note_on_c, 0, 72, 75
2, 884, Note_on_c, 0, 72, 0
2, 912, Note_on_c, 0, 72, 75
2, 935, Note_on_c, 0, 72, 0
2, 936, Note_on_c, 0, 73, 75
2, 959, Note_on_c, 0, 73, 0
2, 960, Note_on_c, 0, 75, 75
2, 980, Note_on_c, 0, 75, 0
2, 1008, Note_on_c, 0, 75, 76
2, 1028, Note_on_c, 0, 75, 0
2, 1056, Note_on_c, 0, 75, 77
2, 1076, Note_on_c, 0, 75, 0
2, 1104, Note_on_c, 0, 80, 78
2, 1124, Note_on_c, 0, 80, 0
2, 1152, Note_on_c, 0, 75, 80
2, 1285, Note_on_c, 0, 75, 0
2, 1296, Note_on_c, 0, 73, 76
2, 1319, Note_on_c, 0, 73, 0
2, 1320, Note_on_c, 0, 72, 75
2, 1343, Note_on_c, 0, 72, 0
2, 1344, Note_on_c, 0, 70, 75
2, 1389, Note_on_c, 0, 70, 0
2, 1392, Note_on_c, 0, 73, 75
2, 1437, Note_on_c, 0, 73, 0
2, 1440, Note_on_c, 0, 67, 75
2, 1485, Note_on_c, 0, 67, 0
2, 1488, Note_on_c, 0, 70, 75
2, 1533, Note_on_c, 0, 70, 0
2, 1536, Note_on_c, 0, 68, 75
2, 1625, Note_on_c, 0, 68, 0
2, 1680, Note_on_c, 0, 72, 64
2, 1703, Note_on_c, 0, 72, 0
2, 1704, Note_on_c, 0, 73, 64
2, 1727, Note_on_c, 0, 73, 0
2, 1728, Note_on_c, 0, 75, 75
2, 1748, Note_on_c, 0, 75, 0
2, 1776, Note_on_c, 0, 75, 76
2, 1796, Note_on_c, 0, 75, 0
2, 1824, Note_on_c, 0, 75, 77
2, 1844, Note_on_c, 0, 75, 0
2, 1872, Note_on_c, 0, 80, 78
2, 1892, Note_on_c, 0, 80, 0
2, 1920, Note_on_c, 0, 75, 80
2, 2053, Note_on_c, 0, 75, 0
2, 2064, Note_on_c, 0, 73, 75
2, 2087, Note_on_c, 0, 73, 0
2, 2088, Note_on_c, 0, 72, 75
2, 2111, Note_on_c, 0, 72, 0
2, 2112, Note_on_c, 0, 70, 75
2, 2201, Note_on_c, 0, 70, 0
2, 2208, Note_on_c, 0, 72, 75
2, 2297, Note_on_c, 0, 72, 0
2, 2304, Note_on_c, 0, 75, 75
2, 2349, Note_on_c, 0, 75, 0
2, 2352, Note_on_c, 0, 73, 75
2, 2364, Note_on_c, 0, 73, 0
2, 2364, Note_on_c, 0, 72, 75
2, 2376, Note_on_c, 0, 72, 0
2, 2376, Note_on_c, 0, 73, 75
2, 2397, Note_on_c, 0, 73, 0
2, 2400, Note_on_c, 0, 72, 75
2, 2420, Note_on_c, 0, 72, 0
2, 2448, Note_on_c, 0, 72, 75
2, 2471, Note_on_c, 0, 72, 0
2, 2472, Note_on_c, 0, 73, 75
2, 2495, Note_on_c, 0, 73, 0
2, 2496, Note_on_c, 0, 75, 75
2, 2516, Note_on_c, 0, 75, 0
2, 2544, Note_on_c, 0, 75, 76
2, 2564, Note_on_c, 0, 75, 0
2, 2592, Note_on_c, 0, 75, 77
2, 2612, Note_on_c, 0, 75, 0
2, 2640, Note_on_c, 0, 80, 78
2, 2660, Note_on_c, 0, 80, 0
2, 2688, Note_on_c, 0, 75, 80
2, 2821, Note_on_c, 0, 75, 0
2, 2832, Note_on_c, 0, 73, 76
2, 2855, Note_on_c, 0, 73, 0
2, 2856, Note_on_c, 0, 72, 75
2, 2879, Note_on_c, 0, 72, 0
2, 2880, Note_on_c, 0, 70, 75
2, 2925, Note_on_c, 0, 70, 0
2, 2928, Note_on_c, 0, 73, 75
2, 2973, Note_on_c, 0, 73, 0
2, 2976, Note_on_c, 0, 67, 75
2, 3021, Note_on_c, 0, 67, 0
2, 3024, Note_on_c, 0, 70, 75
2, 3069, Note_on_c, 0, 70, 0
2, 3072, Note_on_c, 0, 68, 75
2, 3161, Note_on_c, 0, 68, 0
2, 3216, Note_on_c, 0, 75, 75
2, 3261, Note_on_c, 0, 75, 0
2, 3264, Note_on_c, 0, 77, 75
2, 3309, Note_on_c, 0, 77, 0
2, 3312, Note_on_c, 0, 75, 75
2, 3357, Note_on_c, 0, 75, 0
2, 3360, Note_on_c, 0, 74, 75
2, 3405, Note_on_c, 0, 74, 0
2, 3408, Note_on_c, 0, 83, 75
2, 3453, Note_on_c, 0, 83, 0
2, 3456, Note_on_c, 0, 82, 75
2, 3476, Note_on_c, 0, 82, 0
2, 3504, Note_on_c, 0, 79, 75
2, 3549, Note_on_c, 0, 79, 0
2, 3552, Note_on_c, 0, 75, 75
2, 3597, Note_on_c, 0, 75, 0
2, 3600, Note_on_c, 0, 72, 75
2, 3645, Note_on_c, 0, 72, 0
2, 3648, Note_on_c, 0, 75, 75
2, 3654, Note_on_c, 0, 75, 0
2, 3654, Note_on_c, 0, 73, 75
2, 3693, Note_on_c, 0, 73, 0
2, 3696, Note_on_c, 0, 72, 75
2, 3741, Note_on_c, 0, 72, 0
2, 3744, Note_on_c, 0, 71, 75
2, 3789, Note_on_c, 0, 71, 0
2, 3792, Note_on_c, 0, 80, 75
2, 3837, Note_on_c, 0, 80, 0
2, 3840, Note_on_c, 0, 79, 75
2, 3860, Note_on_c, 0, 79, 0
2, 3888, Note_on_c, 0, 75, 75
2, 3933, Note_on_c, 0, 75, 0
2, 3936, Note_on_c, 0, 72, 75
2, 3981, Note_on_c, 0, 72, 0
2, 3984, Note_on_c, 0, 68, 75
2, 4029, Note_on_c, 0, 68, 0
2, 4032, Note_on_c, 0, 72, 75
2, 4038, Note_on_c, 0, 72, 0
2, 4038, Note_on_c, 0, 70, 75
2, 4077, Note_on_c, 0, 70, 0
2, 4080, Note_on_c, 0, 68, 75
2, 4125, Note_on_c, 0, 68, 0
2, 4128, Note_on_c, 0, 67, 75
2, 4173, Note_on_c, 0, 67, 0
2, 4176, Note_on_c, 0, 77, 75
2, 4221, Note_on_c, 0, 77, 0
2, 4224, Note_on_c, 0, 75, 75
2, 4244, Note_on_c, 0, 75, 0
2, 4272, Note_on_c, 0, 72, 75
2, 4317, Note_on_c, 0, 72, 0
2, 4320, Note_on_c, 0, 68, 75
2, 4365, Note_on_c, 0, 68, 0
2, 4368, Note_on_c, 0, 75, 75
2, 4413, Note_on_c, 0, 75, 0
2, 4416, Note_on_c, 0, 74, 75
2, 4461, Note_on_c, 0, 74, 0
2, 4464, Note_on_c, 0, 77, 75
2, 4509, Note_on_c, 0, 77, 0
2, 4512, Note_on_c, 0, 80, 76
2, 4557, Note_on_c, 0, 80, 0
2, 4560, Note_on_c, 0, 74, 76
2, 4605, Note_on_c, 0, 74, 0
2, 4608, Note_on_c, 0, 75, 77
2, 4653, Note_on_c, 0, 75, 0
2, 4656, Note_on_c, 0, 77, 78
2, 4671, Note_on_c, 0, 77, 0
2, 4672, Note_on_c, 0, 75, 78
2, 4687, Note_on_c, 0, 75, 0
2, 4688, Note_on_c, 0, 74, 78
2, 4703, Note_on_c, 0, 74, 0
2, 4704, Note_on_c, 0, 75, 78
2, 4749, Note_on_c, 0, 75, 0
2, 4752, Note_on_c, 0, 75, 79
2, 4797, Note_on_c, 0, 75, 0
2, 4800, Note_on_c, 0, 74, 80
2, 4845, Note_on_c, 0, 74, 0
2, 4848, Note_on_c, 0, 77, 80
2, 4893, Note_on_c, 0, 77, 0
2, 4896, Note_on_c, 0, 80, 80
2, 4941, Note_on_c, 0, 80, 0
2, 4944, Note_on_c, 0, 74, 80
2, 4989, Note_on_c, 0, 74, 0
2, 4992, Note_on_c, 0, 77, 80
2, 5184, Note_on_c, 0, 77, 0
2, 5184, Note_on_c, 0, 75, 80
2, 5421, Note_on_c, 0, 75, 0
2, 5520, Note_on_c, 0, 72, 75
2, 5543, Note_on_c, 0, 72, 0
2, 5544, Note_on_c, 0, 73, 75
2, 5567, Note_on_c, 0, 73, 0
2, 5568, Note_on_c, 0, 75, 75
2, 5588, Note_on_c, 0, 75, 0
2, 5616, Note_on_c, 0, 75, 76
2, 5636, Note_on_c, 0, 75, 0
2, 5664, Note_on_c, 0, 75, 77
2, 5684, Note_on_c, 0, 75, 0
2, 5712, Note_on_c, 0, 80, 78
2, 5732, Note_on_c, 0, 80, 0
2, 5760, Note_on_c, 0, 75, 80
2, 5893, Note_on_c, 0, 75, 0
2, 5904, Note_on_c, 0, 73, 80
2, 5927, Note_on_c, 0, 73, 0
2, 5928, Note_on_c, 0, 72, 80
2, 5951, Note_on_c, 0, 72, 0
2, 5952, Note_on_c, 0, 70, 80
2, 5972, Note_on_c, 0, 70, 0
2, 6000, Note_on_c, 0, 70, 80
2, 6048, Note_on_c, 0, 70, 0
2, 6048, Note_on_c, 0, 72, 80
2, 6093, Note_on_c, 0, 72, 0
2, 6096, Note_on_c, 0, 72, 80
2, 6116, Note_on_c, 0, 72, 0
2, 6144, Note_on_c, 0, 75, 80
2, 6189, Note_on_c, 0, 75, 0
2, 6192, Note_on_c, 0, 73, 80
2, 6204, Note_on_c, 0, 73, 0
2, 6204, Note_on_c, 0, 72, 80
2, 6216, Note_on_c, 0, 72, 0
2, 6216, Note_on_c, 0, 73, 80
2, 6237, Note_on_c, 0, 73, 0
2, 6240, Note_on_c, 0, 72, 80
2, 6260, Note_on_c, 0, 72, 0
2, 6288, Note_on_c, 0, 72, 80
2, 6311, Note_on_c, 0, 72, 0
2, 6312, Note_on_c, 0, 73, 80
2, 6335, Note_on_c, 0, 73, 0
2, 6336, Note_on_c, 0, 75, 80
2, 6356, Note_on_c, 0, 75, 0
2, 6384, Note_on_c, 0, 75, 81
2, 6404, Note_on_c, 0, 75, 0
2, 6432, Note_on_c, 0, 75, 83
2, 6452, Note_on_c, 0, 75, 0
2, 6480, Note_on_c, 0, 80, 84
2, 6500, Note_on_c, 0, 80, 0
2, 6528, Note_on_c, 0, 75, 86
2, 6661, Note_on_c, 0, 75, 0
2, 6672, Note_on_c, 0, 73, 81
2, 6695, Note_on_c, 0, 73, 0
2, 6696, Note_on_c, 0, 72, 80
2, 6719, Note_on_c, 0, 72, 0
2, 6720, Note_on_c, 0, 70, 80
2, 6743, Note_on_c, 0, 70, 0
2, 6744, Note_on_c, 0, 73, 80
2, 6767, Note_on_c, 0, 73, 0
2, 6768, Note_on_c, 0, 70, 80
2, 6791, Note_on_c, 0, 70, 0
2, 6792, Note_on_c, 0, 73, 80
2, 6815, Note_on_c, 0, 73, 0
2, 6816, Note_on_c, 0, 67, 80
2, 6861, Note_on_c, 0, 67, 0
2, 6864, Note_on_c, 0, 70, 80
2, 6909, Note_on_c, 0, 70, 0
2, 6912, Note_on_c, 0, 68, 80
2, 7001, Note_on_c, 0, 68, 0
2, 7056, Note_on_c, 0, 75, 75
2, 7101, Note_on_c, 0, 75, 0
2, 7104, Note_on_c, 0, 77, 75
2, 7149, Note_on_c, 0, 77, 0
2, 7152, Note_on_c, 0, 75, 75
2, 7197, Note_on_c, 0, 75, 0
2, 7200, Note_on_c, 0, 74, 75
2, 7245, Note_on_c, 0, 74, 0
2, 7248, Note_on_c, 0, 83, 75
2, 7293, Note_on_c, 0, 83, 0
2, 7296, Note_on_c, 0, 82, 75
2, 7316, Note_on_c, 0, 82, 0
2, 7344, Note_on_c, 0, 79, 75
2, 7389, Note_on_c, 0, 79, 0
2, 7392, Note_on_c, 0, 75, 75
2, 7437, Note_on_c, 0, 75, 0
2, 7440, Note_on_c, 0, 72, 75
2, 7485, Note_on_c, 0, 72, 0
2, 7488, Note_on_c, 0, 75, 75
2, 7494, Note_on_c, 0, 75, 0
2, 7494, Note_on_c, 0, 73, 75
2, 7533, Note_on_c, 0, 73, 0
2, 7536, Note_on_c, 0, 72, 75
2, 7581, Note_on_c, 0, 72, 0
2, 7584, Note_on_c, 0, 71, 75
2, 7629, Note_on_c, 0, 71, 0
2, 7632, Note_on_c, 0, 80, 75
2, 7677, Note_on_c, 0, 80, 0
2, 7680, Note_on_c, 0, 79, 75
2, 7700, Note_on_c, 0, 79, 0
2, 7728, Note_on_c, 0, 75, 75
2, 7773, Note_on_c, 0, 75, 0
2, 7776, Note_on_c, 0, 72, 75
2, 7821, Note_on_c, 0, 72, 0
2, 7824, Note_on_c, 0, 68, 75
2, 7869, Note_on_c, 0, 68, 0
2, 7872, Note_on_c, 0, 72, 75
2, 7878, Note_on_c, 0, 72, 0
2, 7878, Note_on_c, 0, 70, 75
2, 7917, Note_on_c, 0, 70, 0
2, 7920, Note_on_c, 0, 68, 75
2, 7965, Note_on_c, 0, 68, 0
2, 7968, Note_on_c, 0, 67, 75
2, 8013, Note_on_c, 0, 67, 0
2, 8016, Note_on_c, 0, 77, 75
2, 8061, Note_on_c, 0, 77, 0
2, 8064, Note_on_c, 0, 75, 75
2, 8084, Note_on_c, 0, 75, 0
2, 8112, Note_on_c, 0, 72, 75
2, 8157, Note_on_c, 0, 72, 0
2, 8160, Note_on_c, 0, 68, 75
2, 8205, Note_on_c, 0, 68, 0
2, 8208, Note_on_c, 0, 75, 75
2, 8253, Note_on_c, 0, 75, 0
2, 8256, Note_on_c, 0, 74, 75
2, 8301, Note_on_c, 0, 74, 0
2, 8304, Note_on_c, 0, 77, 75
2, 8349, Note_on_c, 0, 77, 0
2, 8352, Note_on_c, 0, 80, 76
2, 8397, Note_on_c, 0, 80, 0
2, 8400, Note_on_c, 0, 74, 76
2, 8445, Note_on_c, 0, 74, 0
2, 8448, Note_on_c, 0, 75, 77
2, 8493, Note_on_c, 0, 75, 0
2, 8496, Note_on_c, 0, 77, 78
2, 8511, Note_on_c, 0, 77, 0
2, 8512, Note_on_c, 0, 75, 78
2, 8527, Note_on_c, 0, 75, 0
2, 8528, Note_on_c, 0, 74, 78
2, 8543, Note_on_c, 0, 74, 0
2, 8544, Note_on_c, 0, 75, 78
2, 8589, Note_on_c, 0, 75, 0
2, 8592, Note_on_c, 0, 75, 79
2, 8637, Note_on_c, 0, 75, 0
2, 8640, Note_on_c, 0, 74, 80
2, 8685, Note_on_c, 0, 74, 0
2, 8688, Note_on_c, 0, 77, 80
2, 8733, Note_on_c, 0, 77, 0
2, 8736, Note_on_c, 0, 80, 80
2, 8781, Note_on_c, 0, 80, 0
2, 8784, Note_on_c, 0, 74, 80
2, 8829, Note_on_c, 0, 74, 0
2, 8832, Note_on_c, 0, 77, 80
2, 9024, Note_on_c, 0, 77, 0
2, 9024, Note_on_c, 0, 75, 80
2, 9261, Note_on_c, 0, 75, 0
2, 9360, Note_on_c, 0, 72, 75
2, 9383, Note_on_c, 0, 72, 0
2, 9384, Note_on_c, 0, 73, 75
2, 9407, Note_on_c, 0, 73, 0
2, 9408, Note_on_c, 0, 75, 75
2, 9428, Note_on_c, 0, 75, 0
2, 9456, Note_on_c, 0, 75, 76
2, 9476, Note_on_c, 0, 75, 0
2, 9504, Note_on_c, 0, 75, 77
2, 9524, Note_on_c, 0, 75, 0
2, 9552, Note_on_c, 0, 80, 78
2, 9572, Note_on_c, 0, 80, 0
2, 9600, Note_on_c, 0, 75, 80
2, 9733, Note_on_c, 0, 75, 0
2, 9744, Note_on_c, 0, 73, 80
2, 9767, Note_on_c, 0, 73, 0
2, 9768, Note_on_c, 0, 72, 80
2, 9791, Note_on_c, 0, 72, 0
2, 9792, Note_on_c, 0, 70, 80
2, 9812, Note_on_c, 0, 70, 0
2, 9840, Note_on_c, 0, 70, 80
2, 9888, Note_on_c, 0, 70, 0
2, 9888, Note_on_c, 0, 72, 80
2, 9933, Note_on_c, 0, 72, 0
2, 9936, Note_on_c, 0, 72, 80
2, 9956, Note_on_c, 0, 72, 0
2, 9984, Note_on_c, 0, 75, 80
2, 10029, Note_on_c, 0, 75, 0
2, 10032, Note_on_c, 0, 73, 80
2, 10044, Note_on_c, 0, 73, 0
2, 10044, Note_on_c, 0, 72, 80
2, 10056, Note_on_c, 0, 72, 0
2, 10056, Note_on_c, 0, 73, 80
2, 10077, Note_on_c, 0, 73, 0
2, 10080, Note_on_c, 0, 72, 80
2, 10100, Note_on_c, 0, 72, 0
2, 10128, Note_on_c, 0, 72, 80
2, 10151, Note_on_c, 0, 72, 0
2, 10152, Note_on_c, 0, 73, 80
2, 10175, Note_on_c, 0, 73, 0
2, 10176, Note_on_c, 0, 75, 80
2, 10196, Note_on_c, 0, 75, 0
2, 10224, Note_on_c, 0, 75, 81
2, 10244, Note_on_c, 0, 75, 0
2, 10272, Note_on_c, 0, 75, 83
2, 10292, Note_on_c, 0, 75, 0
2, 10320, Note_on_c, 0, 80, 84
2, 10340, Note_on_c, 0, 80, 0
2, 10368, Note_on_c, 0, 75, 86
2, 10501, Note_on_c, 0, 75, 0
2, 10512, Note_on_c, 0, 73, 81
2, 10535, Note_on_c, 0, 73, 0
2, 10536, Note_on_c, 0, 72, 80
2, 10559, Note_on_c, 0, 72, 0
2, 10560, Note_on_c, 0, 70, 80
2, 10583, Note_on_c, 0, 70, 0
2, 10584, Note_on_c, 0, 73, 80
2, 10607, Note_on_c, 0, 73, 0
2, 10608, Note_on_c, 0, 70, 80
2, 10631, Note_on_c, 0, 70, 0
2, 10632, Note_on_c, 0, 73, 80
2, 10655, Note_on_c, 0, 73, 0
2, 10656, Note_on_c, 0, 67, 80
2, 10701, Note_on_c, 0, 67, 0
2, 10704, Note_on_c, 0, 70, 80
2, 10749, Note_on_c, 0, 70, 0
2, 10752, Note_on_c, 0, 68, 80
2, 10841, Note_on_c, 0, 68, 0
2, 10896, Note_on_c, 0, 60, 80
2, 10919, Note_on_c, 0, 60, 0
2, 10920, Note_on_c, 0, 61, 80
2, 10943, Note_on_c, 0, 61, 0
2, 10944, Note_on_c, 0, 63, 80
2, 10964, Note_on_c, 0, 63, 0
2, 10992, Note_on_c, 0, 63, 81
2, 11012, Note_on_c, 0, 63, 0
2, 11040, Note_on_c, 0, 63, 83
2, 11060, Note_on_c, 0, 63, 0
2, 11088, Note_on_c, 0, 68, 84
2, 11108, Note_on_c, 0, 68, 0
2, 11136, Note_on_c, 0, 63, 86
2, 11225, Note_on_c, 0, 63, 0
2, 11280, Note_on_c, 0, 72, 80
2, 11325, Note_on_c, 0, 72, 0
2, 11328, Note_on_c, 0, 70, 80
2, 11373, Note_on_c, 0, 70, 0
2, 11376, Note_on_c, 0, 75, 80
2, 11421, Note_on_c, 0, 75, 0
2, 11424, Note_on_c, 0, 79, 80
2, 11469, Note_on_c, 0, 79, 0
2, 11472, Note_on_c, 0, 67, 80
2, 11517, Note_on_c, 0, 67, 0
2, 11520, Note_on_c, 0, 70, 80
2, 11568, Note_on_c, 0, 70, 0
2, 11568, Note_on_c, 0, 68, 80
2, 11613, Note_on_c, 0, 68, 0
2, 11664, Note_on_c, 0, 65, 80
2, 11709, Note_on_c, 0, 65, 0
2, 11712, Note_on_c, 0, 67, 80
2, 11757, Note_on_c, 0, 67, 0
2, 11760, Note_on_c, 0, 70, 80
2, 11805, Note_on_c, 0, 70, 0
2, 11808, Note_on_c, 0, 72, 80
2, 11853, Note_on_c, 0, 72, 0
2, 11856, Note_on_c, 0, 63, 80
2, 11901, Note_on_c, 0, 63, 0
2, 11904, Note_on_c, 0, 63, 80
2, 11952, Note_on_c, 0, 63, 0
2, 11952, Note_on_c, 0, 62, 80
2, 11997, Note_on_c, 0, 62, 0
2, 12048, Note_on_c, 0, 70, 80
2, 12093, Note_on_c, 0, 70, 0
2, 12096, Note_on_c, 0, 68, 80
2, 12119, Note_on_c, 0, 68, 0
2, 12120, Note_on_c, 0, 70, 80
2, 12143, Note_on_c, 0, 70, 0
2, 12144, Note_on_c, 0, 67, 80
2, 12167, Note_on_c, 0, 67, 0
2, 12168, Note_on_c, 0, 70, 80
2, 12191, Note_on_c, 0, 70, 0
2, 12192, Note_on_c, 0, 65, 80
2, 12237, Note_on_c, 0, 65, 0
2, 12240, Note_on_c, 0, 74, 80
2, 12285, Note_on_c, 0, 74, 0
2, 12288, Note_on_c, 0, 75, 80
2, 12333, Note_on_c, 0, 75, 0
2, 12336, Note_on_c, 0, 77, 80
2, 12381, Note_on_c, 0, 77, 0
2, 12384, Note_on_c, 0, 79, 80
2, 12429, Note_on_c, 0, 79, 0
2, 12432, Note_on_c, 0, 70, 80
2, 12477, Note_on_c, 0, 70, 0
2, 12480, Note_on_c, 0, 68, 80
2, 12503, Note_on_c, 0, 68, 0
2, 12504, Note_on_c, 0, 70, 80
2, 12527, Note_on_c, 0, 70, 0
2, 12528, Note_on_c, 0, 67, 80
2, 12551, Note_on_c, 0, 67, 0
2, 12552, Note_on_c, 0, 70, 80
2, 12575, Note_on_c, 0, 70, 0
2, 12576, Note_on_c, 0, 65, 80
2, 12621, Note_on_c, 0, 65, 0
2, 12624, Note_on_c, 0, 74, 80
2, 12669, Note_on_c, 0, 74, 0
2, 12672, Note_on_c, 0, 75, 80
2, 12717, Note_on_c, 0, 75, 0
2, 12720, Note_on_c, 0, 77, 80
2, 12765, Note_on_c, 0, 77, 0
2, 12768, Note_on_c, 0, 79, 80
2, 12813, Note_on_c, 0, 79, 0
2, 12816, Note_on_c, 0, 79, 80
2, 12839, Note_on_c, 0, 79, 0
2, 12840, Note_on_c, 0, 80, 80
2, 12863, Note_on_c, 0, 80, 0
2, 12864, Note_on_c, 0, 82, 80
2, 12884, Note_on_c, 0, 82, 0
2, 12912, Note_on_c, 0, 79, 80
2, 12935, Note_on_c, 0, 79, 0
2, 12936, Note_on_c, 0, 80, 80
2, 12959, Note_on_c, 0, 80, 0
2, 12960, Note_on_c, 0, 82, 80
2, 12980, Note_on_c, 0, 82, 0
2, 13008, Note_on_c, 0, 79, 80
2, 13031, Note_on_c, 0, 79, 0
2, 13032, Note_on_c, 0, 80, 80
2, 13055, Note_on_c, 0, 80, 0
2, 13056, Note_on_c, 0, 82, 80
2, 13095, Note_on_c, 0, 82, 0
2, 13200, Note_on_c, 0, 75, 80
2, 13223, Note_on_c, 0, 75, 0
2, 13224, Note_on_c, 0, 77, 80
2, 13247, Note_on_c, 0, 77, 0
2, 13248, Note_on_c, 0, 79, 80
2, 13268, Note_on_c, 0, 79, 0
2, 13296, Note_on_c, 0, 75, 80
2, 13319, Note_on_c, 0, 75, 0
2, 13320, Note_on_c, 0, 77, 80
2, 13343, Note_on_c, 0, 77, 0
2, 13344, Note_on_c, 0, 79, 80
2, 13364, Note_on_c, 0, 79, 0
2, 13392, Note_on_c, 0, 75, 80
2, 13415, Note_on_c, 0, 75, 0
2, 13416, Note_on_c, 0, 77, 80
2, 13439, Note_on_c, 0, 77, 0
2, 13440, Note_on_c, 0, 79, 80
2, 13479, Note_on_c, 0, 79, 0
2, 13584, Note_on_c, 0, 79, 80
2, 13607, Note_on_c, 0, 79, 0
2, 13608, Note_on_c, 0, 80, 80
2, 13631, Note_on_c, 0, 80, 0
2, 13632, Note_on_c, 0, 82, 80
2, 13652, Note_on_c, 0, 82, 0
2, 13680, Note_on_c, 0, 79, 80
2, 13703, Note_on_c, 0, 79, 0
2, 13704, Note_on_c, 0, 80, 80
2, 13727, Note_on_c, 0, 80, 0
2, 13728, Note_on_c, 0, 82, 80
2, 13748, Note_on_c, 0, 82, 0
2, 13776, Note_on_c, 0, 79, 75
2, 13799, Note_on_c, 0, 79, 0
2, 13800, Note_on_c, 0, 80, 76
2, 13823, Note_on_c, 0, 80, 0
2, 13824, Note_on_c, 0, 82, 77
2, 13869, Note_on_c, 0, 82, 0
2, 13872, Note_on_c, 0, 84, 80
2, 13895, Note_on_c, 0, 84, 0
2, 13896, Note_on_c, 0, 82, 80
2, 13919, Note_on_c, 0, 82, 0
2, 13920, Note_on_c, 0, 80, 80
2, 13943, Note_on_c, 0, 80, 0
2, 13944, Note_on_c, 0, 79, 80
2, 13967, Note_on_c, 0, 79, 0
2, 13968, Note_on_c, 0, 77, 80
2, 13991, Note_on_c, 0, 77, 0
2, 13992, Note_on_c, 0, 75, 80
2, 14015, Note_on_c, 0, 75, 0
2, 14016, Note_on_c, 0, 77, 80
2, 14061, Note_on_c, 0, 77, 0
2, 14064, Note_on_c, 0, 82, 80
2, 14087, Note_on_c, 0, 82, 0
2, 14088, Note_on_c, 0, 80, 80
2, 14111, Note_on_c, 0, 80, 0
2, 14112, Note_on_c, 0, 79, 80
2, 14135, Note_on_c, 0, 79, 0
2, 14136, Note_on_c, 0, 77, 80
2, 14159, Note_on_c, 0, 77, 0
2, 14160, Note_on_c, 0, 75, 80
2, 14183, Note_on_c, 0, 75, 0
2, 14184, Note_on_c, 0, 74, 80
2, 14207, Note_on_c, 0, 74, 0
2, 14208, Note_on_c, 0, 75, 80
2, 14253, Note_on_c, 0, 75, 0
2, 14256, Note_on_c, 0, 84, 80
2, 14279, Note_on_c, 0, 84, 0
2, 14280, Note_on_c, 0, 82, 80
2, 14303, Note_on_c, 0, 82, 0
2, 14304, Note_on_c, 0, 80, 80
2, 14327, Note_on_c, 0, 80, 0
2, 14328, Note_on_c, 0, 79, 80
2, 14351, Note_on_c, 0, 79, 0
2, 14352, Note_on_c, 0, 77, 80
2, 14375, Note_on_c, 0, 77, 0
2, 14376, Note_on_c, 0, 76, 80
2, 14399, Note_on_c, 0, 76, 0
2, 14400, Note_on_c, 0, 77, 80
2, 14445, Note_on_c, 0, 77, 0
2, 14448, Note_on_c, 0, 82, 80
2, 14471, Note_on_c, 0, 82, 0
2, 14472, Note_on_c, 0, 80, 80
2, 14495, Note_on_c, 0, 80, 0
2, 14496, Note_on_c, 0, 79, 80
2, 14519, Note_on_c, 0, 79, 0
2, 14520, Note_on_c, 0, 77, 80
2, 14543, Note_on_c, 0, 77, 0
2, 14544, Note_on_c, 0, 75, 80
2, 14567, Note_on_c, 0, 75, 0
2, 14568, Note_on_c, 0, 74, 80
2, 14591, Note_on_c, 0, 74, 0
2, 14592, Note_on_c, 0, 75, 80
2, 14829, Note_on_c, 0, 75, 0
2, 14832, Note_on_c, 0, 79, 80
2, 14877, Note_on_c, 0, 79, 0
2, 14880, Note_on_c, 0, 82, 80
2, 14925, Note_on_c, 0, 82, 0
2, 14928, Note_on_c, 0, 75, 80
2, 14973, Note_on_c, 0, 75, 0
2, 14976, Note_on_c, 0, 74, 80
2, 15213, Note_on_c, 0, 74, 0
2, 15216, Note_on_c, 0, 77, 80
2, 15261, Note_on_c, 0, 77, 0
2, 15264, Note_on_c, 0, 80, 80
2, 15309, Note_on_c, 0, 80, 0
2, 15312, Note_on_c, 0, 74, 80
2, 15357, Note_on_c, 0, 74, 0
2, 15360, Note_on_c, 0, 75, 80
2, 15597, Note_on_c, 0, 75, 0
2, 15600, Note_on_c, 0, 79, 80
2, 15645, Note_on_c, 0, 79, 0
2, 15648, Note_on_c, 0, 82, 80
2, 15693, Note_on_c, 0, 82, 0
2, 15696, Note_on_c, 0, 75, 80
2, 15741, Note_on_c, 0, 75, 0
2, 15744, Note_on_c, 0, 74, 80
2, 15981, Note_on_c, 0, 74, 0
2, 15984, Note_on_c, 0, 77, 80
2, 16029, Note_on_c, 0, 77, 0
2, 16032, Note_on_c, 0, 80, 80
2, 16077, Note_on_c, 0, 80, 0
2, 16080, Note_on_c, 0, 74, 80
2, 16125, Note_on_c, 0, 74, 0
2, 16128, Note_on_c, 0, 73, 80
2, 16365, Note_on_c, 0, 73, 0
2, 16368, Note_on_c, 0, 79, 80
2, 16413, Note_on_c, 0, 79, 0
2, 16416, Note_on_c, 0, 82, 80
2, 16461, Note_on_c, 0, 82, 0
2, 16464, Note_on_c, 0, 79, 80
2, 16509, Note_on_c, 0, 79, 0
2, 16512, Note_on_c, 0, 85, 80
2, 16793, Note_on_c, 0, 85, 0
2, 16848, Note_on_c, 0, 72, 75
2, 16871, Note_on_c, 0, 72, 0
2, 16872, Note_on_c, 0, 73, 75
2, 16895, Note_on_c, 0, 73, 0
2, 16896, Note_on_c, 0, 75, 75
2, 16916, Note_on_c, 0, 75, 0
2, 16944, Note_on_c, 0, 75, 76
2, 16964, Note_on_c, 0, 75, 0
2, 16992, Note_on_c, 0, 75, 77
2, 17012, Note_on_c, 0, 75, 0
2, 17040, Note_on_c, 0, 80, 78
2, 17060, Note_on_c, 0, 80, 0
2, 17088, Note_on_c, 0, 75, 80
2, 17221, Note_on_c, 0, 75, 0
2, 17232, Note_on_c, 0, 73, 76
2, 17255, Note_on_c, 0, 73, 0
2, 17256, Note_on_c, 0, 72, 75
2, 17279, Note_on_c, 0, 72, 0
2, 17280, Note_on_c, 0, 70, 75
2, 17300, Note_on_c, 0, 70, 0
2, 17328, Note_on_c, 0, 70, 75
2, 17376, Note_on_c, 0, 70, 0
2, 17376, Note_on_c, 0, 72, 75
2, 17396, Note_on_c, 0, 72, 0
2, 17424, Note_on_c, 0, 72, 75
2, 17469, Note_on_c, 0, 72, 0
2, 17472, Note_on_c, 0, 75, 75
2, 17517, Note_on_c, 0, 75, 0
2, 17520, Note_on_c, 0, 73, 75
2, 17532, Note_on_c, 0, 73, 0
2, 17532, Note_on_c, 0, 72, 75
2, 17544, Note_on_c, 0, 72, 0
2, 17544, Note_on_c, 0, 73, 75
2, 17565, Note_on_c, 0, 73, 0
2, 17568, Note_on_c, 0, 72, 75
2, 17588, Note_on_c, 0, 72, 0
2, 17616, Note_on_c, 0, 72, 75
2, 17639, Note_on_c, 0, 72, 0
2, 17640, Note_on_c, 0, 73, 75
2, 17663, Note_on_c, 0, 73, 0
2, 17664, Note_on_c, 0, 75, 75
2, 17684, Note_on_c, 0, 75, 0
2, 17712, Note_on_c, 0, 75, 76
2, 17732, Note_on_c, 0, 75, 0
2, 17760, Note_on_c, 0, 75, 77
2, 17780, Note_on_c, 0, 75, 0
2, 17808, Note_on_c, 0, 80, 78
2, 17828, Note_on_c, 0, 80, 0
2, 17856, Note_on_c, 0, 75, 80
2, 17989, Note_on_c, 0, 75, 0
2, 18000, Note_on_c, 0, 73, 76
2, 18023, Note_on_c, 0, 73, 0
2, 18024, Note_on_c, 0, 72, 75
2, 18047, Note_on_c, 0, 72, 0
2, 18048, Note_on_c, 0, 70, 75
2, 18093, Note_on_c, 0, 70, 0
2, 18096, Note_on_c, 0, 73, 75
2, 18141, Note_on_c, 0, 73, 0
2, 18144, Note_on_c, 0, 67, 75
2, 18189, Note_on_c, 0, 67, 0
2, 18192, Note_on_c, 0, 70, 75
2, 18237, Note_on_c, 0, 70, 0
2, 18240, Note_on_c, 0, 68, 75
2, 18329, Note_on_c, 0, 68, 0
2, 18384, Note_on_c, 0, 72, 75
2, 18407, Note_on_c, 0, 72, 0
2, 18408, Note_on_c, 0, 73, 75
2, 18431, Note_on_c, 0, 73, 0
2, 18432, Note_on_c, 0, 75, 75
2, 18452, Note_on_c, 0, 75, 0
2, 18480, Note_on_c, 0, 80, 77
2, 18503, Note_on_c, 0, 80, 0
2, 18504, Note_on_c, 0, 84, 78
2, 18527, Note_on_c, 0, 84, 0
2, 18528, Note_on_c, 0, 82, 80
2, 18551, Note_on_c, 0, 82, 0
2, 18552, Note_on_c, 0, 80, 78
2, 18575, Note_on_c, 0, 80, 0
2, 18576, Note_on_c, 0, 79, 77
2, 18599, Note_on_c, 0, 79, 0
2, 18600, Note_on_c, 0, 77, 76
2, 18623, Note_on_c, 0, 77, 0
2, 18624, Note_on_c, 0, 75, 75
2, 18757, Note_on_c, 0, 75, 0
2, 18768, Note_on_c, 0, 73, 75
2, 18791, Note_on_c, 0, 73, 0
2, 18792, Note_on_c, 0, 72, 75
2, 18815, Note_on_c, 0, 72, 0
2, 18816, Note_on_c, 0, 70, 75
2, 18839, Note_on_c, 0, 70, 0
2, 18840, Note_on_c, 0, 75, 75
2, 18863, Note_on_c, 0, 75, 0
2, 18864, Note_on_c, 0, 70, 75
2, 18887, Note_on_c, 0, 70, 0
2, 18888, Note_on_c, 0, 75, 75
2, 18911, Note_on_c, 0, 75, 0
2, 18912, Note_on_c, 0, 72, 75
2, 18935, Note_on_c, 0, 72, 0
2, 18936, Note_on_c, 0, 75, 75
2, 18959, Note_on_c, 0, 75, 0
2, 18960, Note_on_c, 0, 72, 75
2, 18983, Note_on_c, 0, 72, 0
2, 18984, Note_on_c, 0, 75, 75
2, 19007, Note_on_c, 0, 75, 0
2, 19008, Note_on_c, 0, 75, 75
2, 19053, Note_on_c, 0, 75, 0
2, 19056, Note_on_c, 0, 73, 75
2, 19068, Note_on_c, 0, 73, 0
2, 19068, Note_on_c, 0, 72, 75
2, 19080, Note_on_c, 0, 72, 0
2, 19080, Note_on_c, 0, 73, 75
2, 19101, Note_on_c, 0, 73, 0
2, 19104, Note_on_c, 0, 72, 75
2, 19124, Note_on_c, 0, 72, 0
2, 19152, Note_on_c, 0, 72, 75
2, 19175, Note_on_c, 0, 72, 0
2, 19176, Note_on_c, 0, 73, 75
2, 19199, Note_on_c, 0, 73, 0
2, 19200, Note_on_c, 0, 75, 75
2, 19220, Note_on_c, 0, 75, 0
2, 19248, Note_on_c, 0, 80, 77
2, 19271, Note_on_c, 0, 80, 0
2, 19272, Note_on_c, 0, 84, 78
2, 19295, Note_on_c, 0, 84, 0
2, 19296, Note_on_c, 0, 82, 80
2, 19319, Note_on_c, 0, 82, 0
2, 19320, Note_on_c, 0, 80, 78
2, 19343, Note_on_c, 0, 80, 0
2, 19344, Note_on_c, 0, 79, 77
2, 19367, Note_on_c, 0, 79, 0
2, 19368, Note_on_c, 0, 77, 76
2, 19391, Note_on_c, 0, 77, 0
2, 19392, Note_on_c, 0, 75, 75
2, 19525, Note_on_c, 0, 75, 0
2, 19536, Note_on_c, 0, 73, 75
2, 19559, Note_on_c, 0, 73, 0
2, 19560, Note_on_c, 0, 72, 75
2, 19583, Note_on_c, 0, 72, 0
2, 19584, Note_on_c, 0, 70, 75
2, 19607, Note_on_c, 0, 70, 0
2, 19608, Note_on_c, 0, 73, 75
2, 19631, Note_on_c, 0, 73, 0
2, 19632, Note_on_c, 0, 70, 75
2, 19655, Note_on_c, 0, 70, 0
2, 19656, Note_on_c, 0, 73, 75
2, 19679, Note_on_c, 0, 73, 0
2, 19680, Note_on_c, 0, 67, 75
2, 19725, Note_on_c, 0, 67, 0
2, 19728, Note_on_c, 0, 70, 75
2, 19773, Note_on_c, 0, 70, 0
2, 19776, Note_on_c, 0, 68, 75
2, 19865, Note_on_c, 0, 68, 0
2, 19920, Note_on_c, 0, 75, 75
2, 19965, Note_on_c, 0, 75, 0
2, 19968, Note_on_c, 0, 77, 75
2, 19991, Note_on_c, 0, 77, 0
2, 19992, Note_on_c, 0, 80, 75
2, 20015, Note_on_c, 0, 80, 0
2, 20016, Note_on_c, 0, 77, 75
2, 20039, Note_on_c, 0, 77, 0
2, 20040, Note_on_c, 0, 75, 75
2, 20063, Note_on_c, 0, 75, 0
2, 20064, Note_on_c, 0, 74, 75
2, 20109, Note_on_c, 0, 74, 0
2, 20112, Note_on_c, 0, 83, 75
2, 20132, Note_on_c, 0, 83, 0
2, 20208, Note_on_c, 0, 82, 75
2, 20231, Note_on_c, 0, 82, 0
2, 20232, Note_on_c, 0, 79, 75
2, 20255, Note_on_c, 0, 79, 0
2, 20256, Note_on_c, 0, 75, 75
2, 20276, Note_on_c, 0, 75, 0
2, 20304, Note_on_c, 0, 72, 75
2, 20352, Note_on_c, 0, 72, 0
2, 20352, Note_on_c, 0, 73, 75
2, 20375, Note_on_c, 0, 73, 0
2, 20376, Note_on_c, 0, 77, 75
2, 20399, Note_on_c, 0, 77, 0
2, 20400, Note_on_c, 0, 73, 75
2, 20423, Note_on_c, 0, 73, 0
2, 20424, Note_on_c, 0, 72, 75
2, 20447, Note_on_c, 0, 72, 0
2, 20448, Note_on_c, 0, 71, 75
2, 20493, Note_on_c, 0, 71, 0
2, 20496, Note_on_c, 0, 80, 75
2, 20516, Note_on_c, 0, 80, 0
2, 20592, Note_on_c, 0, 79, 75
2, 20615, Note_on_c, 0, 79, 0
2, 20616, Note_on_c, 0, 75, 75
2, 20639, Note_on_c, 0, 75, 0
2, 20640, Note_on_c, 0, 72, 75
2, 20660, Note_on_c, 0, 72, 0
2, 20688, Note_on_c, 0, 68, 75
2, 20736, Note_on_c, 0, 68, 0
2, 20736, Note_on_c, 0, 70, 75
2, 20759, Note_on_c, 0, 70, 0
2, 20760, Note_on_c, 0, 73, 75
2, 20783, Note_on_c, 0, 73, 0
2, 20784, Note_on_c, 0, 70, 75
2, 20807, Note_on_c, 0, 70, 0
2, 20808, Note_on_c, 0, 68, 75
2, 20831, Note_on_c, 0, 68, 0
2, 20832, Note_on_c, 0, 67, 75
2, 20877, Note_on_c, 0, 67, 0
2, 20880, Note_on_c, 0, 77, 75
2, 20900, Note_on_c, 0, 77, 0
2, 20976, Note_on_c, 0, 75, 75
2, 20999, Note_on_c, 0, 75, 0
2, 21000, Note_on_c, 0, 72, 75
2, 21023, Note_on_c, 0, 72, 0
2, 21024, Note_on_c, 0, 68, 75
2, 21069, Note_on_c, 0, 68, 0
2, 21072, Note_on_c, 0, 75, 75
2, 21117, Note_on_c, 0, 75, 0
2, 21168, Note_on_c, 0, 74, 75
2, 21191, Note_on_c, 0, 74, 0
2, 21192, Note_on_c, 0, 77, 75
2, 21215, Note_on_c, 0, 77, 0
2, 21216, Note_on_c, 0, 80, 75
2, 21261, Note_on_c, 0, 80, 0
2, 21264, Note_on_c, 0, 74, 75
2, 21309, Note_on_c, 0, 74, 0
2, 21360, Note_on_c, 0, 75, 76
2, 21383, Note_on_c, 0, 75, 0
2, 21384, Note_on_c, 0, 79, 77
2, 21407, Note_on_c, 0, 79, 0
2, 21408, Note_on_c, 0, 82, 77
2, 21453, Note_on_c, 0, 82, 0
2, 21456, Note_on_c, 0, 75, 77
2, 21501, Note_on_c, 0, 75, 0
2, 21552, Note_on_c, 0, 74, 78
2, 21575, Note_on_c, 0, 74, 0
2, 21576, Note_on_c, 0, 77, 78
2, 21599, Note_on_c, 0, 77, 0
2, 21600, Note_on_c, 0, 80, 79
2, 21645, Note_on_c, 0, 80, 0
2, 21648, Note_on_c, 0, 74, 79
2, 21693, Note_on_c, 0, 74, 0
2, 21696, Note_on_c, 0, 77, 80
2, 21888, Note_on_c, 0, 77, 0
2, 21888, Note_on_c, 0, 75, 80
2, 22125, Note_on_c, 0, 75, 0
2, 22224, Note_on_c, 0, 72, 75
2, 22247, Note_on_c, 0, 72, 0
2, 22248, Note_on_c, 0, 73, 75
2, 22271, Note_on_c, 0, 73, 0
2, 22272, Note_on_c, 0, 75, 75
2, 22292, Note_on_c, 0, 75, 0
2, 22320, Note_on_c, 0, 80, 77
2, 22343, Note_on_c, 0, 80, 0
2, 22344, Note_on_c, 0, 84, 78
2, 22367, Note_on_c, 0, 84, 0
2, 22368, Note_on_c, 0, 82, 80
2, 22391, Note_on_c, 0, 82, 0
2, 22392, Note_on_c, 0, 80, 78
2, 22415, Note_on_c, 0, 80, 0
2, 22416, Note_on_c, 0, 79, 77
2, 22439, Note_on_c, 0, 79, 0
2, 22440, Note_on_c, 0, 77, 76
2, 22463, Note_on_c, 0, 77, 0
2, 22464, Note_on_c, 0, 75, 75
2, 22597, Note_on_c, 0, 75, 0
2, 22608, Note_on_c, 0, 73, 75
2, 22631, Note_on_c, 0, 73, 0
2, 22632, Note_on_c, 0, 72, 75
2, 22655, Note_on_c, 0, 72, 0
2, 22656, Note_on_c, 0, 70, 75
2, 22679, Note_on_c, 0, 70, 0
2, 22680, Note_on_c, 0, 75, 75
2, 22703, Note_on_c, 0, 75, 0
2, 22704, Note_on_c, 0, 70, 75
2, 22727, Note_on_c, 0, 70, 0
2, 22728, Note_on_c, 0, 75, 75
2, 22751, Note_on_c, 0, 75, 0
2, 22752, Note_on_c, 0, 72, 75
2, 22775, Note_on_c, 0, 72, 0
2, 22776, Note_on_c, 0, 75, 75
2, 22799, Note_on_c, 0, 75, 0
2, 22800, Note_on_c, 0, 72, 75
2, 22823, Note_on_c, 0, 72, 0
2, 22824, Note_on_c, 0, 75, 75
2, 22847, Note_on_c, 0, 75, 0
2, 22848, Note_on_c, 0, 75, 75
2, 22893, Note_on_c, 0, 75, 0
2, 22896, Note_on_c, 0, 73, 75
2, 22908, Note_on_c, 0, 73, 0
2, 22908, Note_on_c, 0, 72, 75
2, 22920, Note_on_c, 0, 72, 0
2, 22920, Note_on_c, 0, 73, 75
2, 22941, Note_on_c, 0, 73, 0
2, 22944, Note_on_c, 0, 72, 75
2, 22964, Note_on_c, 0, 72, 0
2, 22992, Note_on_c, 0, 72, 75
2, 23015, Note_on_c, 0, 72, 0
2, 23016, Note_on_c, 0, 73, 75
2, 23039, Note_on_c, 0, 73, 0
2, 23040, Note_on_c, 0, 75, 75
2, 23060, Note_on_c, 0, 75, 0
2, 23088, Note_on_c, 0, 80, 77
2, 23111, Note_on_c, 0, 80, 0
2, 23112, Note_on_c, 0, 84, 78
2, 23135, Note_on_c, 0, 84, 0
2, 23136, Note_on_c, 0, 82, 80
2, 23159, Note_on_c, 0, 82, 0
2, 23160, Note_on_c, 0, 80, 78
2, 23183, Note_on_c, 0, 80, 0
2, 23184, Note_on_c, 0, 79, 77
2, 23207, Note_on_c, 0, 79, 0
2, 23208, Note_on_c, 0, 77, 76
2, 23231, Note_on_c, 0, 77, 0
2, 23232, Note_on_c, 0, 75, 75
2, 23365, Note_on_c, 0, 75, 0
2, 23376, Note_on_c, 0, 73, 75
2, 23399, Note_on_c, 0, 73, 0
2, 23400, Note_on_c, 0, 72, 75
2, 23423, Note_on_c, 0, 72, 0
2, 23424, Note_on_c, 0, 70, 75
2, 23447, Note_on_c, 0, 70, 0
2, 23448, Note_on_c, 0, 73, 75
2, 23471, Note_on_c, 0, 73, 0
2, 23472, Note_on_c, 0, 70, 75
2, 23495, Note_on_c, 0, 70, 0
2, 23496, Note_on_c, 0, 73, 75
2, 23519, Note_on_c, 0, 73, 0
2, 23520, Note_on_c, 0, 67, 75
2, 23565, Note_on_c, 0, 67, 0
2, 23568, Note_on_c, 0, 70, 75
2, 23613, Note_on_c, 0, 70, 0
2, 23616, Note_on_c, 0, 68, 75
2, 23705, Note_on_c, 0, 68, 0
2, 23760, Note_on_c, 0, 75, 75
2, 23805, Note_on_c, 0, 75, 0
2, 23808, Note_on_c, 0, 77, 75
2, 23831, Note_on_c, 0, 77, 0
2, 23832, Note_on_c, 0, 80, 75
2, 23855, Note_on_c, 0, 80, 0
2, 23856, Note_on_c, 0, 77, 75
2, 23879, Note_on_c, 0, 77, 0
2, 23880, Note_on_c, 0, 75, 75
2, 23903, Note_on_c, 0, 75, 0
2, 23904, Note_on_c, 0, 74, 75
2, 23949, Note_on_c, 0, 74, 0
2, 23952, Note_on_c, 0, 83, 75
2, 23972, Note_on_c, 0, 83, 0
2, 24048, Note_on_c, 0, 82, 75
2, 24071, Note_on_c, 0, 82, 0
2, 24072, Note_on_c, 0, 79, 75
2, 24095, Note_on_c, 0, 79, 0
2, 24096, Note_on_c, 0, 75, 75
2, 24116, Note_on_c, 0, 75, 0
2, 24144, Note_on_c, 0, 72, 75
2, 24192, Note_on_c, 0, 72, 0
2, 24192, Note_on_c, 0, 73, 75
2, 24215, Note_on_c, 0, 73, 0
2, 24216, Note_on_c, 0, 77, 75
2, 24239, Note_on_c, 0, 77, 0
2, 24240, Note_on_c, 0, 73, 75
2, 24263, Note_on_c, 0, 73, 0
2, 24264, Note_on_c, 0, 72, 75
2, 24287, Note_on_c, 0, 72, 0
2, 24288, Note_on_c, 0, 71, 75
2, 24333, Note_on_c, 0, 71, 0
2, 24336, Note_on_c, 0, 80, 75
2, 24356, Note_on_c, 0, 80, 0
2, 24432, Note_on_c, 0, 79, 75
2, 24455, Note_on_c, 0, 79, 0
2, 24456, Note_on_c, 0, 75, 75
2, 24479, Note_on_c, 0, 75, 0
2, 24480, Note_on_c, 0, 72, 75
2, 24500, Note_on_c, 0, 72, 0
2, 24528, Note_on_c, 0, 68, 75
2, 24576, Note_on_c, 0, 68, 0
2, 24576, Note_on_c, 0, 70, 75
2, 24599, Note_on_c, 0, 70, 0
2, 24600, Note_on_c, 0, 73, 75
2, 24623, Note_on_c, 0, 73, 0
2, 24624, Note_on_c, 0, 70, 75
2, 24647, Note_on_c, 0, 70, 0
2, 24648, Note_on_c, 0, 68, 75
2, 24671, Note_on_c, 0, 68, 0
2, 24672, Note_on_c, 0, 67, 75
2, 24717, Note_on_c, 0, 67, 0
2, 24720, Note_on_c, 0, 77, 75
2, 24740, Note_on_c, 0, 77, 0
2, 24816, Note_on_c, 0, 75, 75
2, 24839, Note_on_c, 0, 75, 0
2, 24840, Note_on_c, 0, 72, 75
2, 24863, Note_on_c, 0, 72, 0
2, 24864, Note_on_c, 0, 68, 75
2, 24909, Note_on_c, 0, 68, 0
2, 24912, Note_on_c, 0, 75, 75
2, 24957, Note_on_c, 0, 75, 0
2, 25008, Note_on_c, 0, 74, 75
2, 25031, Note_on_c, 0, 74, 0
2, 25032, Note_on_c, 0, 77, 75
2, 25055, Note_on_c, 0, 77, 0
2, 25056, Note_on_c, 0, 80, 75
2, 25101, Note_on_c, 0, 80, 0
2, 25104, Note_on_c, 0, 74, 75
2, 25149, Note_on_c, 0, 74, 0
2, 25200, Note_on_c, 0, 75, 76
2, 25223, Note_on_c, 0, 75, 0
2, 25224, Note_on_c, 0, 79, 77
2, 25247, Note_on_c, 0, 79, 0
2, 25248, Note_on_c, 0, 82, 77
2, 25293, Note_on_c, 0, 82, 0
2, 25296, Note_on_c, 0, 75, 77
2, 25341, Note_on_c, 0, 75, 0
2, 25392, Note_on_c, 0, 74, 78
2, 25415, Note_on_c, 0, 74, 0
2, 25416, Note_on_c, 0, 77, 78
2, 25439, Note_on_c, 0, 77, 0
2, 25440, Note_on_c, 0, 80, 79
2, 25485, Note_on_c, 0, 80, 0
2, 25488, Note_on_c, 0, 74, 79
2, 25533, Note_on_c, 0, 74, 0
2, 25536, Note_on_c, 0, 77, 80
2, 25728, Note_on_c, 0, 77, 0
2, 25728, Note_on_c, 0, 75, 80
2, 25965, Note_on_c, 0, 75, 0
2, 26064, Note_on_c, 0, 72, 75
2, 26087, Note_on_c, 0, 72, 0
2, 26088, Note_on_c, 0, 73, 75
2, 26111, Note_on_c, 0, 73, 0
2, 26112, Note_on_c, 0, 75, 75
2, 26132, Note_on_c, 0, 75, 0
2, 26160, Note_on_c, 0, 80, 77
2, 26183, Note_on_c, 0, 80, 0
2, 26184, Note_on_c, 0, 84, 78
2, 26207, Note_on_c, 0, 84, 0
2, 26208, Note_on_c, 0, 82, 80
2, 26231, Note_on_c, 0, 82, 0
2, 26232, Note_on_c, 0, 80, 78
2, 26255, Note_on_c, 0, 80, 0
2, 26256, Note_on_c, 0, 79, 77
2, 26279, Note_on_c, 0, 79, 0
2, 26280, Note_on_c, 0, 77, 76
2, 26303, Note_on_c, 0, 77, 0
2, 26304, Note_on_c, 0, 75, 75
2, 26437, Note_on_c, 0, 75, 0
2, 26448, Note_on_c, 0, 73, 75
2, 26471, Note_on_c, 0, 73, 0
2, 26472, Note_on_c, 0, 72, 75
2, 26495, Note_on_c, 0, 72, 0
2, 26496, Note_on_c, 0, 70, 75
2, 26519, Note_on_c, 0, 70, 0
2, 26520, Note_on_c, 0, 75, 75
2, 26543, Note_on_c, 0, 75, 0
2, 26544, Note_on_c, 0, 70, 75
2, 26567, Note_on_c, 0, 70, 0
2, 26568, Note_on_c, 0, 75, 75
2, 26591, Note_on_c, 0, 75, 0
2, 26592, Note_on_c, 0, 72, 75
2, 26615, Note_on_c, 0, 72, 0
2, 26616, Note_on_c, 0, 75, 75
2, 26639, Note_on_c, 0, 75, 0
2, 26640, Note_on_c, 0, 72, 75
2, 26663, Note_on_c, 0, 72, 0
2, 26664, Note_on_c, 0, 75, 75
2, 26687, Note_on_c, 0, 75, 0
2, 26688, Note_on_c, 0, 75, 75
2, 26733, Note_on_c, 0, 75, 0
2, 26736, Note_on_c, 0, 73, 75
2, 26748, Note_on_c, 0, 73, 0
2, 26748, Note_on_c, 0, 72, 75
2, 26760, Note_on_c, 0, 72, 0
2, 26760, Note_on_c, 0, 73, 75
2, 26781, Note_on_c, 0, 73, 0
2, 26784, Note_on_c, 0, 72, 75
2, 26804, Note_on_c, 0, 72, 0
2, 26832, Note_on_c, 0, 72, 75
2, 26855, Note_on_c, 0, 72, 0
2, 26856, Note_on_c, 0, 73, 75
2, 26879, Note_on_c, 0, 73, 0
2, 26880, Note_on_c, 0, 75, 75
2, 26900, Note_on_c, 0, 75, 0
2, 26928, Note_on_c, 0, 80, 77
2, 26951, Note_on_c, 0, 80, 0
2, 26952, Note_on_c, 0, 84, 78
2, 26975, Note_on_c, 0, 84, 0
2, 26976, Note_on_c, 0, 82, 80
2, 26999, Note_on_c, 0, 82, 0
2, 27000, Note_on_c, 0, 80, 78
2, 27023, Note_on_c, 0, 80, 0
2, 27024, Note_on_c, 0, 79, 77
2, 27047, Note_on_c, 0, 79, 0
2, 27048, Note_on_c, 0, 77, 76
2, 27071, Note_on_c, 0, 77, 0
2, 27072, Note_on_c, 0, 75, 75
2, 27205, Note_on_c, 0, 75, 0
2, 27216, Note_on_c, 0, 73, 75
2, 27239, Note_on_c, 0, 73, 0
2, 27240, Note_on_c, 0, 72, 75
2, 27263, Note_on_c, 0, 72, 0
2, 27264, Note_on_c, 0, 70, 75
2, 27287, Note_on_c, 0, 70, 0
2, 27288, Note_on_c, 0, 73, 75
2, 27311, Note_on_c, 0, 73, 0
2, 27312, Note_on_c, 0, 70, 75
2, 27335, Note_on_c, 0, 70, 0
2, 27336, Note_on_c, 0, 73, 75
2, 27359, Note_on_c, 0, 73, 0
2, 27360, Note_on_c, 0, 67, 75
2, 27405, Note_on_c, 0, 67, 0
2, 27408, Note_on_c, 0, 70, 75
2, 27453, Note_on_c, 0, 70, 0
2, 27456, Note_on_c, 0, 68, 75
2, 27545, Note_on_c, 0, 68, 0
2, 27600, Note_on_c, 0, 72, 75
2, 27645, Note_on_c, 0, 72, 0
2, 27648, Note_on_c, 0, 77, 75
2, 27671, Note_on_c, 0, 77, 0
2, 27672, Note_on_c, 0, 72, 75
2, 27695, Note_on_c, 0, 72, 0
2, 27696, Note_on_c, 0, 76, 75
2, 27719, Note_on_c, 0, 76, 0
2, 27720, Note_on_c, 0, 72, 75
2, 27743, Note_on_c, 0, 72, 0
2, 27744, Note_on_c, 0, 77, 75
2, 27767, Note_on_c, 0, 77, 0
2, 27768, Note_on_c, 0, 72, 75
2, 27791, Note_on_c, 0, 72, 0
2, 27792, Note_on_c, 0, 80, 75
2, 27815, Note_on_c, 0, 80, 0
2, 27816, Note_on_c, 0, 72, 75
2, 27839, Note_on_c, 0, 72, 0
2, 27840, Note_on_c, 0, 79, 75
2, 27863, Note_on_c, 0, 79, 0
2, 27864, Note_on_c, 0, 72, 75
2, 27887, Note_on_c, 0, 72, 0
2, 27888, Note_on_c, 0, 83, 75
2, 27911, Note_on_c, 0, 83, 0
2, 27912, Note_on_c, 0, 72, 75
2, 27935, Note_on_c, 0, 72, 0
2, 27936, Note_on_c, 0, 84, 75
2, 27959, Note_on_c, 0, 84, 0
2, 27960, Note_on_c, 0, 72, 75
2, 27983, Note_on_c, 0, 72, 0
2, 27984, Note_on_c, 0, 82, 75
2, 28007, Note_on_c, 0, 82, 0
2, 28008, Note_on_c, 0, 72, 75
2, 28031, Note_on_c, 0, 72, 0
2, 28032, Note_on_c, 0, 80, 75
2, 28055, Note_on_c, 0, 80, 0
2, 28056, Note_on_c, 0, 72, 75
2, 28079, Note_on_c, 0, 72, 0
2, 28080, Note_on_c, 0, 79, 75
2, 28103, Note_on_c, 0, 79, 0
2, 28104, Note_on_c, 0, 72, 75
2, 28127, Note_on_c, 0, 72, 0
2, 28128, Note_on_c, 0, 77, 75
2, 28151, Note_on_c, 0, 77, 0
2, 28152, Note_on_c, 0, 72, 75
2, 28175, Note_on_c, 0, 72, 0
2, 28176, Note_on_c, 0, 79, 75
2, 28199, Note_on_c, 0, 79, 0
2, 28200, Note_on_c, 0, 72, 75
2, 28223, Note_on_c, 0, 72, 0
2, 28224, Note_on_c, 0, 76, 75
2, 28247, Note_on_c, 0, 76, 0
2, 28248, Note_on_c, 0, 72, 75
2, 28271, Note_on_c, 0, 72, 0
2, 28272, Note_on_c, 0, 77, 75
2, 28295, Note_on_c, 0, 77, 0
2, 28296, Note_on_c, 0, 72, 75
2, 28319, Note_on_c, 0, 72, 0
2, 28320, Note_on_c, 0, 79, 75
2, 28365, Note_on_c, 0, 79, 0
2, 28368, Note_on_c, 0, 72, 75
2, 28391, Note_on_c, 0, 72, 0
2, 28392, Note_on_c, 0, 84, 75
2, 28415, Note_on_c, 0, 84, 0
2, 28416, Note_on_c, 0, 85, 75
2, 28439, Note_on_c, 0, 85, 0
2, 28440, Note_on_c, 0, 73, 75
2, 28463, Note_on_c, 0, 73, 0
2, 28464, Note_on_c, 0, 84, 75
2, 28487, Note_on_c, 0, 84, 0
2, 28488, Note_on_c, 0, 72, 75
2, 28511, Note_on_c, 0, 72, 0
2, 28512, Note_on_c, 0, 82, 75
2, 28535, Note_on_c, 0, 82, 0
2, 28536, Note_on_c, 0, 70, 75
2, 28559, Note_on_c, 0, 70, 0
2, 28560, Note_on_c, 0, 80, 75
2, 28583, Note_on_c, 0, 80, 0
2, 28584, Note_on_c, 0, 68, 75
2, 28607, Note_on_c, 0, 68, 0
2, 28608, Note_on_c, 0, 79, 75
2, 28631, Note_on_c, 0, 79, 0
2, 28632, Note_on_c, 0, 67, 75
2, 28655, Note_on_c, 0, 67, 0
2, 28656, Note_on_c, 0, 83, 75
2, 28679, Note_on_c, 0, 83, 0
2, 28680, Note_on_c, 0, 71, 75
2, 28703, Note_on_c, 0, 71, 0
2, 28704, Note_on_c, 0, 84, 75
2, 28727, Note_on_c, 0, 84, 0
2, 28728, Note_on_c, 0, 72, 75
2, 28751, Note_on_c, 0, 72, 0
2, 28752, Note_on_c, 0, 82, 75
2, 28775, Note_on_c, 0, 82, 0
2, 28776, Note_on_c, 0, 70, 75
2, 28799, Note_on_c, 0, 70, 0
2, 28800, Note_on_c, 0, 80, 75
2, 28823, Note_on_c, 0, 80, 0
2, 28824, Note_on_c, 0, 68, 75
2, 28847, Note_on_c, 0, 68, 0
2, 28848, Note_on_c, 0, 77, 75
2, 28871, Note_on_c, 0, 77, 0
2, 28872, Note_on_c, 0, 65, 75
2, 28895, Note_on_c, 0, 65, 0
2, 28896, Note_on_c, 0, 79, 75
2, 28919, Note_on_c, 0, 79, 0
2, 28920, Note_on_c, 0, 67, 75
2, 28943, Note_on_c, 0, 67, 0
2, 28944, Note_on_c, 0, 76, 75
2, 28967, Note_on_c, 0, 76, 0
2, 28968, Note_on_c, 0, 64, 75
2, 28991, Note_on_c, 0, 64, 0
2, 28992, Note_on_c, 0, 65, 75
2, 29015, Note_on_c, 0, 65, 0
2, 29016, Note_on_c, 0, 77, 75
2, 29083, Note_on_c, 0, 77, 0
2, 29136, Note_on_c, 0, 72, 75
2, 29181, Note_on_c, 0, 72, 0
2, 29184, Note_on_c, 0, 77, 75
2, 29207, Note_on_c, 0, 77, 0
2, 29208, Note_on_c, 0, 72, 75
2, 29231, Note_on_c, 0, 72, 0
2, 29232, Note_on_c, 0, 76, 75
2, 29255, Note_on_c, 0, 76, 0
2, 29256, Note_on_c, 0, 72, 75
2, 29279, Note_on_c, 0, 72, 0
2, 29280, Note_on_c, 0, 77, 75
2, 29303, Note_on_c, 0, 77, 0
2, 29304, Note_on_c, 0, 72, 75
2, 29327, Note_on_c, 0, 72, 0
2, 29328, Note_on_c, 0, 80, 75
2, 29351, Note_on_c, 0, 80, 0
2, 29352, Note_on_c, 0, 72, 75
2, 29375, Note_on_c, 0, 72, 0
2, 29376, Note_on_c, 0, 79, 75
2, 29399, Note_on_c, 0, 79, 0
2, 29400, Note_on_c, 0, 72, 75
2, 29423, Note_on_c, 0, 72, 0
2, 29424, Note_on_c, 0, 83, 75
2, 29447, Note_on_c, 0, 83, 0
2, 29448, Note_on_c, 0, 72, 75
2, 29471, Note_on_c, 0, 72, 0
2, 29472, Note_on_c, 0, 84, 75
2, 29495, Note_on_c, 0, 84, 0
2, 29496, Note_on_c, 0, 72, 75
2, 29519, Note_on_c, 0, 72, 0
2, 29520, Note_on_c, 0, 82, 75
2, 29543, Note_on_c, 0, 82, 0
2, 29544, Note_on_c, 0, 72, 75
2, 29567, Note_on_c, 0, 72, 0
2, 29568, Note_on_c, 0, 80, 75
2, 29591, Note_on_c, 0, 80, 0
2, 29592, Note_on_c, 0, 72, 75
2, 29615, Note_on_c, 0, 72, 0
2, 29616, Note_on_c, 0, 79, 75
2, 29639, Note_on_c, 0, 79, 0
2, 29640, Note_on_c, 0, 72, 75
2, 29663, Note_on_c, 0, 72, 0
2, 29664, Note_on_c, 0, 77, 75
2, 29687, Note_on_c, 0, 77, 0
2, 29688, Note_on_c, 0, 72, 75
2, 29711, Note_on_c, 0, 72, 0
2, 29712, Note_on_c, 0, 79, 75
2, 29735, Note_on_c, 0, 79, 0
2, 29736, Note_on_c, 0, 72, 75
2, 29759, Note_on_c, 0, 72, 0
2, 29760, Note_on_c, 0, 76, 75
2, 29783, Note_on_c, 0, 76, 0
2, 29784, Note_on_c, 0, 72, 75
2, 29807, Note_on_c, 0, 72, 0
2, 29808, Note_on_c, 0, 77, 75
2, 29831, Note_on_c, 0, 77, 0
2, 29832, Note_on_c, 0, 72, 75
2, 29855, Note_on_c, 0, 72, 0
2, 29856, Note_on_c, 0, 79, 75
2, 29901, Note_on_c, 0, 79, 0
2, 29904, Note_on_c, 0, 72, 75
2, 29927, Note_on_c, 0, 72, 0
2, 29928, Note_on_c, 0, 84, 75
2, 29951, Note_on_c, 0, 84, 0
2, 29952, Note_on_c, 0, 85, 75
2, 29975, Note_on_c, 0, 85, 0
2, 29976, Note_on_c, 0, 73, 75
2, 29999, Note_on_c, 0, 73, 0
2, 30000, Note_on_c, 0, 84, 75
2, 30023, Note_on_c, 0, 84, 0
2, 30024, Note_on_c, 0, 72, 75
2, 30047, Note_on_c, 0, 72, 0
2, 30048, Note_on_c, 0, 82, 75
2, 30071, Note_on_c, 0, 82, 0
2, 30072, Note_on_c, 0, 70, 75
2, 30095, Note_on_c, 0, 70, 0
2, 30096, Note_on_c, 0, 80, 75
2, 30119, Note_on_c, 0, 80, 0
2, 30120, Note_on_c, 0, 68, 75
2, 30143, Note_on_c, 0, 68, 0
2, 30144, Note_on_c, 0, 79, 75
2, 30167, Note_on_c, 0, 79, 0
2, 30168, Note_on_c, 0, 67, 75
2, 30191, Note_on_c, 0, 67, 0
2, 30192, Note_on_c, 0, 83, 75
2, 30215, Note_on_c, 0, 83, 0
2, 30216, Note_on_c, 0, 71, 75
2, 30239, Note_on_c, 0, 71, 0
2, 30240, Note_on_c, 0, 84, 75
2, 30263, Note_on_c, 0, 84, 0
2, 30264, Note_on_c, 0, 72, 75
2, 30287, Note_on_c, 0, 72, 0
2, 30288, Note_on_c, 0, 82, 75
2, 30311, Note_on_c, 0, 82, 0
2, 30312, Note_on_c, 0, 70, 75
2, 30335, Note_on_c, 0, 70, 0
2, 30336, Note_on_c, 0, 80, 75
2, 30359, Note_on_c, 0, 80, 0
2, 30360, Note_on_c, 0, 68, 75
2, 30383, Note_on_c, 0, 68, 0
2, 30384, Note_on_c, 0, 77, 75
2, 30407, Note_on_c, 0, 77, 0
2, 30408, Note_on_c, 0, 65, 75
2, 30431, Note_on_c, 0, 65, 0
2, 30432, Note_on_c, 0, 79, 75
2, 30455, Note_on_c, 0, 79, 0
2, 30456, Note_on_c, 0, 67, 75
2, 30479, Note_on_c, 0, 67, 0
2, 30480, Note_on_c, 0, 76, 75
2, 30503, Note_on_c, 0, 76, 0
2, 30504, Note_on_c, 0, 64, 75
2, 30527, Note_on_c, 0, 64, 0
2, 30528, Note_on_c, 0, 65, 75
2, 30551, Note_on_c, 0, 65, 0
2, 30552, Note_on_c, 0, 77, 75
2, 30619, Note_on_c, 0, 77, 0
2, 30672, Note_on_c, 0, 84, 75
2, 30717, Note_on_c, 0, 84, 0
2, 30720, Note_on_c, 0, 82, 75
2, 30765, Note_on_c, 0, 82, 0
2, 30768, Note_on_c, 0, 79, 75
2, 30813, Note_on_c, 0, 79, 0
2, 30816, Note_on_c, 0, 80, 75
2, 30861, Note_on_c, 0, 80, 0
2, 30864, Note_on_c, 0, 77, 75
2, 30909, Note_on_c, 0, 77, 0
2, 30912, Note_on_c, 0, 76, 75
2, 30957, Note_on_c, 0, 76, 0
2, 30960, Note_on_c, 0, 80, 75
2, 30966, Note_on_c, 0, 80, 0
2, 30966, Note_on_c, 0, 79, 75
2, 30972, Note_on_c, 0, 79, 0
2, 30972, Note_on_c, 0, 77, 75
2, 30978, Note_on_c, 0, 77, 0
2, 30978, Note_on_c, 0, 77, 75
2, 31005, Note_on_c, 0, 77, 0
2, 31008, Note_on_c, 0, 79, 75
2, 31053, Note_on_c, 0, 79, 0
2, 31056, Note_on_c, 0, 84, 75
2, 31101, Note_on_c, 0, 84, 0
2, 31104, Note_on_c, 0, 82, 75
2, 31149, Note_on_c, 0, 82, 0
2, 31152, Note_on_c, 0, 79, 75
2, 31197, Note_on_c, 0, 79, 0
2, 31200, Note_on_c, 0, 80, 75
2, 31245, Note_on_c, 0, 80, 0
2, 31248, Note_on_c, 0, 77, 75
2, 31293, Note_on_c, 0, 77, 0
2, 31296, Note_on_c, 0, 84, 91
2, 31392, Note_on_c, 0, 84, 0
2, 31440, Note_on_c, 0, 84, 75
2, 31485, Note_on_c, 0, 84, 0
2, 31488, Note_on_c, 0, 82, 75
2, 31533, Note_on_c, 0, 82, 0
2, 31536, Note_on_c, 0, 79, 75
2, 31581, Note_on_c, 0, 79, 0
2, 31584, Note_on_c, 0, 80, 75
2, 31629, Note_on_c, 0, 80, 0
2, 31632, Note_on_c, 0, 77, 75
2, 31677, Note_on_c, 0, 77, 0
2, 31680, Note_on_c, 0, 76, 75
2, 31725, Note_on_c, 0, 76, 0
2, 31728, Note_on_c, 0, 80, 75
2, 31734, Note_on_c, 0, 80, 0
2, 31734, Note_on_c, 0, 79, 75
2, 31740, Note_on_c, 0, 79, 0
2, 31740, Note_on_c, 0, 77, 75
2, 31746, Note_on_c, 0, 77, 0
2, 31746, Note_on_c, 0, 77, 75
2, 31773, Note_on_c, 0, 77, 0
2, 31776, Note_on_c, 0, 79, 75
2, 31821, Note_on_c, 0, 79, 0
2, 31824, Note_on_c, 0, 84, 75
2, 31869, Note_on_c, 0, 84, 0
2, 31872, Note_on_c, 0, 82, 75
2, 31917, Note_on_c, 0, 82, 0
2, 31920, Note_on_c, 0, 79, 75
2, 31965, Note_on_c, 0, 79, 0
2, 31968, Note_on_c, 0, 80, 75
2, 32013, Note_on_c, 0, 80, 0
2, 32016, Note_on_c, 0, 77, 75
2, 32061, Note_on_c, 0, 77, 0
2, 32064, Note_on_c, 0, 84, 91
2, 32160, Note_on_c, 0, 84, 0
2, 32208, Note_on_c, 0, 84, 75
2, 32253, Note_on_c, 0, 84, 0
2, 32256, Note_on_c, 0, 85, 75
2, 32301, Note_on_c, 0, 85, 0
2, 32304, Note_on_c, 0, 84, 75
2, 32349, Note_on_c, 0, 84, 0
2, 32352, Note_on_c, 0, 82, 75
2, 32397, Note_on_c, 0, 82, 0
2, 32400, Note_on_c, 0, 80, 75
2, 32445, Note_on_c, 0, 80, 0
2, 32448, Note_on_c, 0, 79, 75
2, 32493, Note_on_c, 0, 79, 0
2, 32496, Note_on_c, 0, 83, 75
2, 32541, Note_on_c, 0, 83, 0
2, 32544, Note_on_c, 0, 84, 75
2, 32589, Note_on_c, 0, 84, 0
2, 32616, Note_on_c, 0, 72, 75
2, 32639, Note_on_c, 0, 72, 0
2, 32664, Note_on_c, 0, 73, 75
2, 32687, Note_on_c, 0, 73, 0
2, 32712, Note_on_c, 0, 72, 75
2, 32735, Note_on_c, 0, 72, 0
2, 32760, Note_on_c, 0, 70, 75
2, 32783, Note_on_c, 0, 70, 0
2, 32808, Note_on_c, 0, 68, 75
2, 32831, Note_on_c, 0, 68, 0
2, 32856, Note_on_c, 0, 67, 75
2, 32879, Note_on_c, 0, 67, 0
2, 32880, Note_on_c, 0, 68, 75
2, 32903, Note_on_c, 0, 68, 0
2, 32904, Note_on_c, 0, 67, 75
2, 32927, Note_on_c, 0, 67, 0
2, 32928, Note_on_c, 0, 72, 75
2, 32951, Note_on_c, 0, 72, 0
2, 32952, Note_on_c, 0, 70, 75
2, 32975, Note_on_c, 0, 70, 0
2, 32976, Note_on_c, 0, 68, 75
2, 32999, Note_on_c, 0, 68, 0
2, 33000, Note_on_c, 0, 67, 75
2, 33023, Note_on_c, 0, 67, 0
2, 33048, Note_on_c, 0, 68, 75
2, 33071, Note_on_c, 0, 68, 0
2, 33072, Note_on_c, 0, 70, 75
2, 33095, Note_on_c, 0, 70, 0
2, 33096, Note_on_c, 0, 68, 75
2, 33119, Note_on_c, 0, 68, 0
2, 33120, Note_on_c, 0, 73, 75
2, 33143, Note_on_c, 0, 73, 0
2, 33144, Note_on_c, 0, 72, 75
2, 33167, Note_on_c, 0, 72, 0
2, 33168, Note_on_c, 0, 70, 75
2, 33191, Note_on_c, 0, 70, 0
2, 33192, Note_on_c, 0, 68, 75
2, 33215, Note_on_c, 0, 68, 0
2, 33240, Note_on_c, 0, 67, 75
2, 33263, Note_on_c, 0, 67, 0
2, 33264, Note_on_c, 0, 68, 75
2, 33287, Note_on_c, 0, 68, 0
2, 33288, Note_on_c, 0, 67, 75
2, 33311, Note_on_c, 0, 67, 0
2, 33312, Note_on_c, 0, 72, 75
2, 33335, Note_on_c, 0, 72, 0
2, 33336, Note_on_c, 0, 70, 75
2, 33359, Note_on_c, 0, 70, 0
2, 33360, Note_on_c, 0, 68, 75
2, 33383, Note_on_c, 0, 68, 0
2, 33384, Note_on_c, 0, 67, 75
2, 33407, Note_on_c, 0, 67, 0
2, 33432, Note_on_c, 0, 68, 75
2, 33455, Note_on_c, 0, 68, 0
2, 33456, Note_on_c, 0, 70, 75
2, 33479, Note_on_c, 0, 70, 0
2, 33480, Note_on_c, 0, 68, 75
2, 33503, Note_on_c, 0, 68, 0
2, 33504, Note_on_c, 0, 73, 75
2, 33527, Note_on_c, 0, 73, 0
2, 33528, Note_on_c, 0, 72, 75
2, 33551, Note_on_c, 0, 72, 0
2, 33552, Note_on_c, 0, 70, 75
2, 33575, Note_on_c, 0, 70, 0
2, 33576, Note_on_c, 0, 68, 75
2, 33599, Note_on_c, 0, 68, 0
2, 33624, Note_on_c, 0, 67, 75
2, 33647, Note_on_c, 0, 67, 0
2, 33648, Note_on_c, 0, 68, 75
2, 33671, Note_on_c, 0, 68, 0
2, 33672, Note_on_c, 0, 67, 75
2, 33695, Note_on_c, 0, 67, 0
2, 33696, Note_on_c, 0, 72, 75
2, 33719, Note_on_c, 0, 72, 0
2, 33720, Note_on_c, 0, 70, 75
2, 33743, Note_on_c, 0, 70, 0
2, 33744, Note_on_c, 0, 68, 75
2, 33767, Note_on_c, 0, 68, 0
2, 33768, Note_on_c, 0, 67, 75
2, 33791, Note_on_c, 0, 67, 0
2, 33792, Control_c, 0, 64, 127
2, 33792, Note_on_c, 0, 68, 80
2, 33815, Note_on_c, 0, 68, 0
2, 33816, Note_on_c, 0, 65, 80
2, 33839, Note_on_c, 0, 65, 0
2, 33840, Note_on_c, 0, 68, 80
2, 33863, Note_on_c, 0, 68, 0
2, 33864, Note_on_c, 0, 71, 80
2, 33887, Note_on_c, 0, 71, 0
2, 33888, Note_on_c, 0, 74, 80
2, 33911, Note_on_c, 0, 74, 0
2, 33912, Note_on_c, 0, 71, 80
2, 33935, Note_on_c, 0, 71, 0
2, 33936, Note_on_c, 0, 74, 80
2, 33959, Note_on_c, 0, 74, 0
2, 33960, Note_on_c, 0, 77, 80
2, 33983, Note_on_c, 0, 77, 0
2, 33984, Note_on_c, 0, 80, 80
2, 34007, Note_on_c, 0, 80, 0
2, 34008, Note_on_c, 0, 74, 80
2, 34031, Note_on_c, 0, 74, 0
2, 34032, Note_on_c, 0, 77, 80
2, 34055, Note_on_c, 0, 77, 0
2, 34056, Note_on_c, 0, 80, 80
2, 34079, Note_on_c, 0, 80, 0
2, 34080, Note_on_c, 0, 83, 80
2, 34103, Note_on_c, 0, 83, 0
2, 34104, Note_on_c, 0, 77, 80
2, 34127, Note_on_c, 0, 77, 0
2, 34128, Note_on_c, 0, 80, 80
2, 34151, Note_on_c, 0, 80, 0
2, 34152, Note_on_c, 0, 83, 80
2, 34175, Note_on_c, 0, 83, 0
2, 34176, Note_on_c, 0, 86, 80
2, 34265, Note_on_c, 0, 86, 0
2, 34368, Control_c, 0, 64, 0
2, 34584, Control_c, 0, 64, 127
2, 34584, Note_on_c, 0, 64, 80
2, 34607, Note_on_c, 0, 64, 0
2, 34608, Note_on_c, 0, 67, 80
2, 34631, Note_on_c, 0, 67, 0
2, 34632, Note_on_c, 0, 70, 80
2, 34655, Note_on_c, 0, 70, 0
2, 34656, Note_on_c, 0, 73, 80
2, 34679, Note_on_c, 0, 73, 0
2, 34680, Note_on_c, 0, 64, 80
2, 34703, Note_on_c, 0, 64, 0
2, 34704, Note_on_c, 0, 67, 80
2, 34727, Note_on_c, 0, 67, 0
2, 34728, Note_on_c, 0, 70, 80
2, 34751, Note_on_c, 0, 70, 0
2, 34752, Note_on_c, 0, 73, 80
2, 34775, Note_on_c, 0, 73, 0
2, 34776, Note_on_c, 0, 64, 80
2, 34799, Note_on_c, 0, 64, 0
2, 34800, Note_on_c, 0, 67, 80
2, 34823, Note_on_c, 0, 67, 0
2, 34824, Note_on_c, 0, 70, 80
2, 34847, Note_on_c, 0, 70, 0
2, 34848, Note_on_c, 0, 73, 80
2, 34871, Note_on_c, 0, 73, 0
2, 34872, Note_on_c, 0, 64, 80
2, 34895, Note_on_c, 0, 64, 0
2, 34896, Note_on_c, 0, 67, 80
2, 34919, Note_on_c, 0, 67, 0
2, 34920, Control_c, 0, 64, 0
2, 34920, Note_on_c, 0, 70, 80
2, 34943, Note_on_c, 0, 70, 0
2, 34944, Note_on_c, 0, 73, 80
2, 34967, Note_on_c, 0, 73, 0
2, 34968, Control_c, 0, 64, 127
2, 34968, Note_on_c, 0, 63, 80
2, 34991, Note_on_c, 0, 63, 0
2, 34992, Note_on_c, 0, 67, 80
2, 35015, Note_on_c, 0, 67, 0
2, 35016, Note_on_c, 0, 70, 80
2, 35039, Note_on_c, 0, 70, 0
2, 35040, Note_on_c, 0, 73, 80
2, 35063, Note_on_c, 0, 73, 0
2, 35064, Note_on_c, 0, 63, 80
2, 35087, Note_on_c, 0, 63, 0
2, 35088, Note_on_c, 0, 67, 80
2, 35111, Note_on_c, 0, 67, 0
2, 35112, Note_on_c, 0, 70, 80
2, 35135, Note_on_c, 0, 70, 0
2, 35136, Note_on_c, 0, 73, 80
2, 35159, Note_on_c, 0, 73, 0
2, 35160, Note_on_c, 0, 63, 80
2, 35183, Note_on_c, 0, 63, 0
2, 35184, Note_on_c, 0, 67, 80
2, 35207, Note_on_c, 0, 67, 0
2, 35208, Note_on_c, 0, 70, 80
2, 35231, Note_on_c, 0, 70, 0
2, 35232, Note_on_c, 0, 73, 80
2, 35255, Note_on_c, 0, 73, 0
2, 35256, Note_on_c, 0, 63, 80
2, 35279, Note_on_c, 0, 63, 0
2, 35280, Note_on_c, 0, 67, 80
2, 35303, Note_on_c, 0, 67, 0
2, 35304, Note_on_c, 0, 70, 80
2, 35327, Note_on_c, 0, 70, 0
2, 35328, Note_on_c, 0, 73, 80
2, 35417, Note_on_c, 0, 73, 0
2, 35520, Control_c, 0, 64, 0
2, 35664, Note_on_c, 0, 72, 80
2, 35687, Note_on_c, 0, 72, 0
2, 35688, Note_on_c, 0, 73, 80
2, 35711, Note_on_c, 0, 73, 0
2, 35712, Note_on_c, 0, 75, 75
2, 35732, Note_on_c, 0, 75, 0
2, 35760, Note_on_c, 0, 75, 76
2, 35780, Note_on_c, 0, 75, 0
2, 35808, Note_on_c, 0, 75, 77
2, 35828, Note_on_c, 0, 75, 0
2, 35856, Note_on_c, 0, 80, 78
2, 35876, Note_on_c, 0, 80, 0
2, 35904, Note_on_c, 0, 75, 80
2, 36037, Note_on_c, 0, 75, 0
2, 36048, Note_on_c, 0, 73, 76
2, 36071, Note_on_c, 0, 73, 0
2, 36072, Note_on_c, 0, 72, 75
2, 36095, Note_on_c, 0, 72, 0
2, 36144, Note_on_c, 0, 70, 75
2, 36189, Note_on_c, 0, 70, 0
2, 36240, Note_on_c, 0, 72, 75
2, 36285, Note_on_c, 0, 72, 0
2, 36288, Note_on_c, 0, 75, 75
2, 36333, Note_on_c, 0, 75, 0
2, 36336, Note_on_c, 0, 73, 75
2, 36348, Note_on_c, 0, 73, 0
2, 36348, Note_on_c, 0, 72, 75
2, 36360, Note_on_c, 0, 72, 0
2, 36360, Note_on_c, 0, 73, 75
2, 36381, Note_on_c, 0, 73, 0
2, 36384, Note_on_c, 0, 72, 75
2, 36404, Note_on_c, 0, 72, 0
2, 36432, Note_on_c, 0, 72, 75
2, 36455, Note_on_c, 0, 72, 0
2, 36456, Note_on_c, 0, 73, 75
2, 36479, Note_on_c, 0, 73, 0
2, 36480, Note_on_c, 0, 75, 75
2, 36500, Note_on_c, 0, 75, 0
2, 36528, Note_on_c, 0, 77, 75
2, 36548, Note_on_c, 0, 77, 0
2, 36576, Note_on_c, 0, 79, 75
2, 36596, Note_on_c, 0, 79, 0
2, 36624, Note_on_c, 0, 80, 75
2, 36644, Note_on_c, 0, 80, 0
2, 36672, Note_on_c, 0, 75, 75
2, 36805, Note_on_c, 0, 75, 0
2, 36816, Note_on_c, 0, 73, 71
2, 36839, Note_on_c, 0, 73, 0
2, 36840, Note_on_c, 0, 72, 70
2, 36863, Note_on_c, 0, 72, 0
2, 36912, Note_on_c, 0, 70, 70
2, 36957, Note_on_c, 0, 70, 0
2, 37008, Note_on_c, 0, 67, 70
2, 37053, Note_on_c, 0, 67, 0
2, 37104, Note_on_c, 0, 68, 70
2, 37149, Note_on_c, 0, 68, 0
2, 37200, Note_on_c, 0, 75, 70
2, 37245, Note_on_c, 0, 75, 0
2, 37248, Note_on_c, 0, 77, 70
2, 37271, Note_on_c, 0, 77, 0
2, 37272, Note_on_c, 0, 75, 70
2, 37295, Note_on_c, 0, 75, 0
2, 37296, Note_on_c, 0, 74, 70
2, 37319, Note_on_c, 0, 74, 0
2, 37320, Note_on_c, 0, 75, 70
2, 37343, Note_on_c, 0, 75, 0
2, 37344, Note_on_c, 0, 74, 70
2, 37367, Note_on_c, 0, 74, 0
2, 37368, Note_on_c, 0, 77, 70
2, 37391, Note_on_c, 0, 77, 0
2, 37392, Note_on_c, 0, 80, 70
2, 37415, Note_on_c, 0, 80, 0
2, 37416, Note_on_c, 0, 83, 70
2, 37439, Note_on_c, 0, 83, 0
2, 37440, Note_on_c, 0, 82, 70
2, 37485, Note_on_c, 0, 82, 0
2, 37488, Note_on_c, 0, 75, 70
2, 37533, Note_on_c, 0, 75, 0
2, 37536, Note_on_c, 0, 75, 70
2, 37581, Note_on_c, 0, 75, 0
2, 37584, Note_on_c, 0, 72, 70
2, 37629, Note_on_c, 0, 72, 0
2, 37632, Note_on_c, 0, 73, 70
2, 37655, Note_on_c, 0, 73, 0
2, 37656, Note_on_c, 0, 72, 70
2, 37679, Note_on_c, 0, 72, 0
2, 37680, Note_on_c, 0, 71, 70
2, 37703, Note_on_c, 0, 71, 0
2, 37704, Note_on_c, 0, 72, 70
2, 37727, Note_on_c, 0, 72, 0
2, 37728, Note_on_c, 0, 71, 70
2, 37751, Note_on_c, 0, 71, 0
2, 37752, Note_on_c, 0, 74, 70
2, 37775, Note_on_c, 0, 74, 0
2, 37776, Note_on_c, 0, 77, 70
2, 37799, Note_on_c, 0, 77, 0
2, 37800, Note_on_c, 0, 80, 70
2, 37823, Note_on_c, 0, 80, 0
2, 37824, Note_on_c, 0, 79, 70
2, 37869, Note_on_c, 0, 79, 0
2, 37872, Note_on_c, 0, 72, 70
2, 37917, Note_on_c, 0, 72, 0
2, 37920, Note_on_c, 0, 72, 70
2, 37965, Note_on_c, 0, 72, 0
2, 37968, Note_on_c, 0, 68, 70
2, 38013, Note_on_c, 0, 68, 0
2, 38016, Note_on_c, 0, 70, 70
2, 38039, Note_on_c, 0, 70, 0
2, 38040, Note_on_c, 0, 68, 70
2, 38063, Note_on_c, 0, 68, 0
2, 38064, Note_on_c, 0, 67, 70
2, 38087, Note_on_c, 0, 67, 0
2, 38088, Note_on_c, 0, 68, 70
2, 38111, Note_on_c, 0, 68, 0
2, 38112, Note_on_c, 0, 67, 70
2, 38135, Note_on_c, 0, 67, 0
2, 38136, Note_on_c, 0, 70, 70
2, 38159, Note_on_c, 0, 70, 0
2, 38160, Note_on_c, 0, 73, 70
2, 38183, Note_on_c, 0, 73, 0
2, 38184, Note_on_c, 0, 77, 70
2, 38207, Note_on_c, 0, 77, 0
2, 38208, Note_on_c, 0, 75, 70
2, 38253, Note_on_c, 0, 75, 0
2, 38256, Note_on_c, 0, 68, 71
2, 38301, Note_on_c, 0, 68, 0
2, 38304, Note_on_c, 0, 68, 73
2, 38349, Note_on_c, 0, 68, 0
2, 38352, Note_on_c, 0, 75, 75
2, 38397, Note_on_c, 0, 75, 0
2, 38400, Note_on_c, 0, 74, 75
2, 38423, Note_on_c, 0, 74, 0
2, 38424, Note_on_c, 0, 77, 75
2, 38447, Note_on_c, 0, 77, 0
2, 38448, Note_on_c, 0, 80, 75
2, 38471, Note_on_c, 0, 80, 0
2, 38472, Note_on_c, 0, 84, 75
2, 38495, Note_on_c, 0, 84, 0
2, 38496, Note_on_c, 0, 82, 75
2, 38519, Note_on_c, 0, 82, 0
2, 38520, Note_on_c, 0, 80, 75
2, 38543, Note_on_c, 0, 80, 0
2, 38544, Note_on_c, 0, 79, 75
2, 38567, Note_on_c, 0, 79, 0
2, 38568, Note_on_c, 0, 77, 75
2, 38591, Note_on_c, 0, 77, 0
2, 38592, Note_on_c, 0, 75, 75
2, 38615, Note_on_c, 0, 75, 0
2, 38616, Note_on_c, 0, 77, 75
2, 38639, Note_on_c, 0, 77, 0
2, 38640, Note_on_c, 0, 75, 75
2, 38663, Note_on_c, 0, 75, 0
2, 38664, Note_on_c, 0, 74, 75
2, 38687, Note_on_c, 0, 74, 0
2, 38688, Note_on_c, 0, 75, 75
2, 38711, Note_on_c, 0, 75, 0
2, 38712, Note_on_c, 0, 79, 75
2, 38735, Note_on_c, 0, 79, 0
2, 38736, Note_on_c, 0, 77, 75
2, 38759, Note_on_c, 0, 77, 0
2, 38760, Note_on_c, 0, 75, 75
2, 38783, Note_on_c, 0, 75, 0
2, 38784, Note_on_c, 0, 74, 75
2, 38807, Note_on_c, 0, 74, 0
2, 38808, Note_on_c, 0, 77, 75
2, 38831, Note_on_c, 0, 77, 0
2, 38832, Note_on_c, 0, 80, 75
2, 38855, Note_on_c, 0, 80, 0
2, 38856, Note_on_c, 0, 84, 75
2, 38879, Note_on_c, 0, 84, 0
2, 38880, Note_on_c, 0, 82, 75
2, 38903, Note_on_c, 0, 82, 0
2, 38904, Note_on_c, 0, 80, 75
2, 38927, Note_on_c, 0, 80, 0
2, 38928, Note_on_c, 0, 79, 75
2, 38951, Note_on_c, 0, 79, 0
2, 38952, Note_on_c, 0, 77, 75
2, 38975, Note_on_c, 0, 77, 0
2, 38976, Note_on_c, 0, 75, 75
2, 38999, Note_on_c, 0, 75, 0
2, 39000, Note_on_c, 0, 77, 75
2, 39023, Note_on_c, 0, 77, 0
2, 39024, Note_on_c, 0, 75, 75
2, 39047, Note_on_c, 0, 75, 0
2, 39048, Note_on_c, 0, 74, 75
2, 39071, Note_on_c, 0, 74, 0
2, 39072, Note_on_c, 0, 75, 75
2, 39095, Note_on_c, 0, 75, 0
2, 39096, Note_on_c, 0, 79, 75
2, 39119, Note_on_c, 0, 79, 0
2, 39120, Note_on_c, 0, 77, 75
2, 39143, Note_on_c, 0, 77, 0
2, 39144, Note_on_c, 0, 75, 75
2, 39167, Note_on_c, 0, 75, 0
2, 39168, Note_on_c, 0, 74, 75
2, 39191, Note_on_c, 0, 74, 0
2, 39192, Note_on_c, 0, 77, 75
2, 39215, Note_on_c, 0, 77, 0
2, 39216, Note_on_c, 0, 80, 75
2, 39239, Note_on_c, 0, 80, 0
2, 39240, Note_on_c, 0, 84, 75
2, 39263, Note_on_c, 0, 84, 0
2, 39264, Note_on_c, 0, 82, 75
2, 39287, Note_on_c, 0, 82, 0
2, 39288, Note_on_c, 0, 80, 75
2, 39311, Note_on_c, 0, 80, 0
2, 39312, Note_on_c, 0, 79, 75
2, 39335, Note_on_c, 0, 79, 0
2, 39336, Note_on_c, 0, 77, 75
2, 39359, Note_on_c, 0, 77, 0
2, 39360, Note_on_c, 0, 75, 75
2, 39383, Note_on_c, 0, 75, 0
2, 39384, Note_on_c, 0, 77, 75
2, 39407, Note_on_c, 0, 77, 0
2, 39408, Note_on_c, 0, 74, 75
2, 39431, Note_on_c, 0, 74, 0
2, 39432, Note_on_c, 0, 77, 75
2, 39455, Note_on_c, 0, 77, 0
2, 39456, Note_on_c, 0, 75, 75
2, 39479, Note_on_c, 0, 75, 0
2, 39480, Note_on_c, 0, 77, 75
2, 39503, Note_on_c, 0, 77, 0
2, 39504, Note_on_c, 0, 74, 75
2, 39527, Note_on_c, 0, 74, 0
2, 39528, Note_on_c, 0, 77, 75
2, 39551, Note_on_c, 0, 77, 0
2, 39552, Note_on_c, 0, 75, 75
2, 39729, Note_on_c, 0, 75, 0
2, 39744, Note_on_c, 0, 73, 75
2, 39767, Note_on_c, 0, 73, 0
2, 39768, Note_on_c, 0, 75, 75
2, 39791, Note_on_c, 0, 75, 0
2, 39792, Note_on_c, 0, 72, 75
2, 39815, Note_on_c, 0, 72, 0
2, 39816, Note_on_c, 0, 75, 75
2, 39839, Note_on_c, 0, 75, 0
2, 39840, Note_on_c, 0, 73, 75
2, 39863, Note_on_c, 0, 73, 0
2, 39864, Note_on_c, 0, 75, 75
2, 39887, Note_on_c, 0, 75, 0
2, 39888, Note_on_c, 0, 72, 75
2, 39911, Note_on_c, 0, 72, 0
2, 39912, Note_on_c, 0, 75, 75
2, 39935, Note_on_c, 0, 75, 0
2, 39936, Note_on_c, 0, 73, 75
2, 40261, Note_on_c, 0, 73, 0
2, 40272, Note_on_c, 0, 72, 75
2, 40295, Note_on_c, 0, 72, 0
2, 40296, Note_on_c, 0, 73, 75
2, 40319, Note_on_c, 0, 73, 0
2, 40320, Note_on_c, 0, 75, 75
2, 40340, Note_on_c, 0, 75, 0
2, 40368, Note_on_c, 0, 75, 75
2, 40388, Note_on_c, 0, 75, 0
2, 40416, Note_on_c, 0, 75, 75
2, 40439, Note_on_c, 0, 75, 0
2, 40440, Note_on_c, 0, 80, 76
2, 40463, Note_on_c, 0, 80, 0
2, 40464, Note_on_c, 0, 84, 77
2, 40487, Note_on_c, 0, 84, 0
2, 40488, Note_on_c, 0, 80, 78
2, 40511, Note_on_c, 0, 80, 0
2, 40512, Note_on_c, 0, 75, 80
2, 40645, Note_on_c, 0, 75, 0
2, 40656, Note_on_c, 0, 73, 76
2, 40679, Note_on_c, 0, 73, 0
2, 40680, Note_on_c, 0, 72, 75
2, 40703, Note_on_c, 0, 72, 0
2, 40752, Note_on_c, 0, 70, 75
2, 40797, Note_on_c, 0, 70, 0
2, 40848, Note_on_c, 0, 72, 75
2, 40893, Note_on_c, 0, 72, 0
2, 40896, Note_on_c, 0, 75, 75
2, 40941, Note_on_c, 0, 75, 0
2, 40944, Note_on_c, 0, 73, 75
2, 40956, Note_on_c, 0, 73, 0
2, 40956, Note_on_c, 0, 72, 75
2, 40968, Note_on_c, 0, 72, 0
2, 40968, Note_on_c, 0, 73, 75
2, 40989, Note_on_c, 0, 73, 0
2, 40992, Note_on_c, 0, 72, 75
2, 41012, Note_on_c, 0, 72, 0
2, 41040, Note_on_c, 0, 72, 75
2, 41063, Note_on_c, 0, 72, 0
2, 41064, Note_on_c, 0, 73, 75
2, 41087, Note_on_c, 0, 73, 0
2, 41088, Note_on_c, 0, 75, 75
2, 41108, Note_on_c, 0, 75, 0
2, 41136, Note_on_c, 0, 77, 76
2, 41156, Note_on_c, 0, 77, 0
2, 41184, Note_on_c, 0, 79, 77
2, 41204, Note_on_c, 0, 79, 0
2, 41232, Note_on_c, 0, 80, 78
2, 41252, Note_on_c, 0, 80, 0
2, 41280, Note_on_c, 0, 75, 80
2, 41413, Note_on_c, 0, 75, 0
2, 41424, Note_on_c, 0, 73, 76
2, 41447, Note_on_c, 0, 73, 0
2, 41448, Note_on_c, 0, 72, 75
2, 41471, Note_on_c, 0, 72, 0
2, 41520, Note_on_c, 0, 70, 75
2, 41565, Note_on_c, 0, 70, 0
2, 41616, Note_on_c, 0, 67, 75
2, 41661, Note_on_c, 0, 67, 0
2, 41712, Note_on_c, 0, 68, 75
2, 41757, Note_on_c, 0, 68, 0
2, 41808, Note_on_c, 0, 75, 75
2, 41853, Note_on_c, 0, 75, 0
2, 41856, Note_on_c, 0, 77, 70
2, 41879, Note_on_c, 0, 77, 0
2, 41880, Note_on_c, 0, 75, 70
2, 41903, Note_on_c, 0, 75, 0
2, 41904, Note_on_c, 0, 74, 70
2, 41927, Note_on_c, 0, 74, 0
2, 41928, Note_on_c, 0, 75, 70
2, 41951, Note_on_c, 0, 75, 0
2, 41952, Note_on_c, 0, 74, 70
2, 41975, Note_on_c, 0, 74, 0
2, 41976, Note_on_c, 0, 77, 70
2, 41999, Note_on_c, 0, 77, 0
2, 42000, Note_on_c, 0, 80, 70
2, 42023, Note_on_c, 0, 80, 0
2, 42024, Note_on_c, 0, 83, 70
2, 42047, Note_on_c, 0, 83, 0
2, 42048, Note_on_c, 0, 82, 70
2, 42093, Note_on_c, 0, 82, 0
2, 42096, Note_on_c, 0, 75, 70
2, 42141, Note_on_c, 0, 75, 0
2, 42144, Note_on_c, 0, 75, 70
2, 42189, Note_on_c, 0, 75, 0
2, 42192, Note_on_c, 0, 72, 70
2, 42237, Note_on_c, 0, 72, 0
2, 42240, Note_on_c, 0, 73, 70
2, 42263, Note_on_c, 0, 73, 0
2, 42264, Note_on_c, 0, 72, 70
2, 42287, Note_on_c, 0, 72, 0
2, 42288, Note_on_c, 0, 71, 70
2, 42311, Note_on_c, 0, 71, 0
2, 42312, Note_on_c, 0, 72, 70
2, 42335, Note_on_c, 0, 72, 0
2, 42336, Note_on_c, 0, 71, 70
2, 42359, Note_on_c, 0, 71, 0
2, 42360, Note_on_c, 0, 74, 70
2, 42383, Note_on_c, 0, 74, 0
2, 42384, Note_on_c, 0, 77, 70
2, 42407, Note_on_c, 0, 77, 0
2, 42408, Note_on_c, 0, 80, 70
2, 42431, Note_on_c, 0, 80, 0
2, 42432, Note_on_c, 0, 79, 70
2, 42477, Note_on_c, 0, 79, 0
2, 42480, Note_on_c, 0, 72, 70
2, 42525, Note_on_c, 0, 72, 0
2, 42528, Note_on_c, 0, 72, 70
2, 42573, Note_on_c, 0, 72, 0
2, 42576, Note_on_c, 0, 68, 70
2, 42621, Note_on_c, 0, 68, 0
2, 42624, Note_on_c, 0, 70, 70
2, 42647, Note_on_c, 0, 70, 0
2, 42648, Note_on_c, 0, 68, 70
2, 42671, Note_on_c, 0, 68, 0
2, 42672, Note_on_c, 0, 67, 70
2, 42695, Note_on_c, 0, 67, 0
2, 42696, Note_on_c, 0, 68, 70
2, 42719, Note_on_c, 0, 68, 0
2, 42720, Note_on_c, 0, 67, 70
2, 42743, Note_on_c, 0, 67, 0
2, 42744, Note_on_c, 0, 70, 70
2, 42767, Note_on_c, 0, 70, 0
2, 42768, Note_on_c, 0, 73, 70
2, 42791, Note_on_c, 0, 73, 0
2, 42792, Note_on_c, 0, 77, 70
2, 42815, Note_on_c, 0, 77, 0
2, 42816, Note_on_c, 0, 75, 70
2, 42861, Note_on_c, 0, 75, 0
2, 42864, Note_on_c, 0, 68, 71
2, 42909, Note_on_c, 0, 68, 0
2, 42912, Note_on_c, 0, 68, 73
2, 42957, Note_on_c, 0, 68, 0
2, 42960, Note_on_c, 0, 75, 75
2, 43005, Note_on_c, 0, 75, 0
2, 43008, Note_on_c, 0, 74, 75
2, 43031, Note_on_c, 0, 74, 0
2, 43032, Note_on_c, 0, 77, 75
2, 43055, Note_on_c, 0, 77, 0
2, 43056, Note_on_c, 0, 80, 75
2, 43079, Note_on_c, 0, 80, 0
2, 43080, Note_on_c, 0, 84, 75
2, 43103, Note_on_c, 0, 84, 0
2, 43104, Note_on_c, 0, 82, 75
2, 43127, Note_on_c, 0, 82, 0
2, 43128, Note_on_c, 0, 80, 75
2, 43151, Note_on_c, 0, 80, 0
2, 43152, Note_on_c, 0, 79, 75
2, 43175, Note_on_c, 0, 79, 0
2, 43176, Note_on_c, 0, 77, 75
2, 43199, Note_on_c, 0, 77, 0
2, 43200, Note_on_c, 0, 75, 75
2, 43223, Note_on_c, 0, 75, 0
2, 43224, Note_on_c, 0, 77, 75
2, 43247, Note_on_c, 0, 77, 0
2, 43248, Note_on_c, 0, 75, 75
2, 43271, Note_on_c, 0, 75, 0
2, 43272, Note_on_c, 0, 74, 75
2, 43295, Note_on_c, 0, 74, 0
2, 43296, Note_on_c, 0, 75, 75
2, 43319, Note_on_c, 0, 75, 0
2, 43320, Note_on_c, 0, 79, 75
2, 43343, Note_on_c, 0, 79, 0
2, 43344, Note_on_c, 0, 77, 75
2, 43367, Note_on_c, 0, 77, 0
2, 43368, Note_on_c, 0, 75, 75
2, 43391, Note_on_c, 0, 75, 0
2, 43392, Note_on_c, 0, 74, 75
2, 43415, Note_on_c, 0, 74, 0
2, 43416, Note_on_c, 0, 77, 75
2, 43439, Note_on_c, 0, 77, 0
2, 43440, Note_on_c, 0, 80, 75
2, 43463, Note_on_c, 0, 80, 0
2, 43464, Note_on_c, 0, 84, 75
2, 43487, Note_on_c, 0, 84, 0
2, 43488, Note_on_c, 0, 82, 75
2, 43511, Note_on_c, 0, 82, 0
2, 43512, Note_on_c, 0, 80, 75
2, 43535, Note_on_c, 0, 80, 0
2, 43536, Note_on_c, 0, 79, 75
2, 43559, Note_on_c, 0, 79, 0
2, 43560, Note_on_c, 0, 77, 75
2, 43583, Note_on_c, 0, 77, 0
2, 43584, Note_on_c, 0, 75, 75
2, 43607, Note_on_c, 0, 75, 0
2, 43608, Note_on_c, 0, 77, 75
2, 43631, Note_on_c, 0, 77, 0
2, 43632, Note_on_c, 0, 75, 75
2, 43655, Note_on_c, 0, 75, 0
2, 43656, Note_on_c, 0, 74, 75
2, 43679, Note_on_c, 0, 74, 0
2, 43680, Note_on_c, 0, 75, 75
2, 43703, Note_on_c, 0, 75, 0
2, 43704, Note_on_c, 0, 79, 75
2, 43727, Note_on_c, 0, 79, 0
2, 43728, Note_on_c, 0, 77, 75
2, 43751, Note_on_c, 0, 77, 0
2, 43752, Note_on_c, 0, 75, 75
2, 43775, Note_on_c, 0, 75, 0
2, 43776, Note_on_c, 0, 74, 75
2, 43799, Note_on_c, 0, 74, 0
2, 43800, Note_on_c, 0, 77, 75
2, 43823, Note_on_c, 0, 77, 0
2, 43824, Note_on_c, 0, 80, 75
2, 43847, Note_on_c, 0, 80, 0
2, 43848, Note_on_c, 0, 84, 75
2, 43871, Note_on_c, 0, 84, 0
2, 43872, Note_on_c, 0, 82, 75
2, 43895, Note_on_c, 0, 82, 0
2, 43896, Note_on_c, 0, 80, 75
2, 43919, Note_on_c, 0, 80, 0
2, 43920, Note_on_c, 0, 79, 75
2, 43943, Note_on_c, 0, 79, 0
2, 43944, Note_on_c, 0, 77, 75
2, 43967, Note_on_c, 0, 77, 0
2, 43968, Note_on_c, 0, 75, 75
2, 43991, Note_on_c, 0, 75, 0
2, 43992, Note_on_c, 0, 77, 75
2, 44015, Note_on_c, 0, 77, 0
2, 44016, Note_on_c, 0, 74, 75
2, 44039, Note_on_c, 0, 74, 0
2, 44040, Note_on_c, 0, 77, 75
2, 44063, Note_on_c, 0, 77, 0
2, 44064, Note_on_c, 0, 75, 75
2, 44087, Note_on_c, 0, 75, 0
2, 44088, Note_on_c, 0, 77, 75
2, 44111, Note_on_c, 0, 77, 0
2, 44112, Note_on_c, 0, 74, 75
2, 44135, Note_on_c, 0, 74, 0
2, 44136, Note_on_c, 0, 77, 75
2, 44159, Note_on_c, 0, 77, 0
2, 44160, Note_on_c, 0, 75, 75
2, 44337, Note_on_c, 0, 75, 0
2, 44352, Note_on_c, 0, 73, 75
2, 44375, Note_on_c, 0, 73, 0
2, 44376, Note_on_c, 0, 75, 75
2, 44399, Note_on_c, 0, 75, 0
2, 44400, Note_on_c, 0, 72, 75
2, 44423, Note_on_c, 0, 72, 0
2, 44424, Note_on_c, 0, 75, 75
2, 44447, Note_on_c, 0, 75, 0
2, 44448, Note_on_c, 0, 73, 75
2, 44471, Note_on_c, 0, 73, 0
2, 44472, Note_on_c, 0, 75, 75
2, 44495, Note_on_c, 0, 75, 0
2, 44496, Note_on_c, 0, 72, 75
2, 44519, Note_on_c, 0, 72, 0
2, 44520, Note_on_c, 0, 75, 75
2, 44543, Note_on_c, 0, 75, 0
2, 44544, Note_on_c, 0, 73, 75
2, 44869, Note_on_c, 0, 73, 0
2, 44880, Note_on_c, 0, 72, 75
2, 44903, Note_on_c, 0, 72, 0
2, 44904, Note_on_c, 0, 73, 75
2, 44927, Note_on_c, 0, 73, 0
2, 44928, Note_on_c, 0, 75, 75
2, 44948, Note_on_c, 0, 75, 0
2, 44976, Note_on_c, 0, 75, 75
2, 44996, Note_on_c, 0, 75, 0
2, 45024, Note_on_c, 0, 75, 75
2, 45047, Note_on_c, 0, 75, 0
2, 45048, Note_on_c, 0, 80, 76
2, 45071, Note_on_c, 0, 80, 0
2, 45072, Note_on_c, 0, 84, 77
2, 45095, Note_on_c, 0, 84, 0
2, 45096, Note_on_c, 0, 80, 78
2, 45119, Note_on_c, 0, 80, 0
2, 45120, Note_on_c, 0, 75, 80
2, 45253, Note_on_c, 0, 75, 0
2, 45264, Note_on_c, 0, 73, 76
2, 45287, Note_on_c, 0, 73, 0
2, 45288, Note_on_c, 0, 72, 75
2, 45311, Note_on_c, 0, 72, 0
2, 45360, Note_on_c, 0, 70, 75
2, 45405, Note_on_c, 0, 70, 0
2, 45456, Note_on_c, 0, 72, 75
2, 45501, Note_on_c, 0, 72, 0
2, 45504, Note_on_c, 0, 75, 75
2, 45549, Note_on_c, 0, 75, 0
2, 45552, Note_on_c, 0, 73, 75
2, 45564, Note_on_c, 0, 73, 0
2, 45564, Note_on_c, 0, 72, 75
2, 45576, Note_on_c, 0, 72, 0
2, 45576, Note_on_c, 0, 73, 75
2, 45597, Note_on_c, 0, 73, 0
2, 45600, Note_on_c, 0, 72, 75
2, 45620, Note_on_c, 0, 72, 0
2, 45648, Note_on_c, 0, 72, 75
2, 45671, Note_on_c, 0, 72, 0
2, 45672, Note_on_c, 0, 73, 75
2, 45695, Note_on_c, 0, 73, 0
2, 45696, Note_on_c, 0, 75, 75
2, 45716, Note_on_c, 0, 75, 0
2, 45744, Note_on_c, 0, 77, 76
2, 45764, Note_on_c, 0, 77, 0
2, 45792, Note_on_c, 0, 79, 77
2, 45812, Note_on_c, 0, 79, 0
2, 45840, Note_on_c, 0, 80, 78
2, 45860, Note_on_c, 0, 80, 0
2, 45888, Note_on_c, 0, 75, 80
2, 46021, Note_on_c, 0, 75, 0
2, 46032, Note_on_c, 0, 73, 76
2, 46055, Note_on_c, 0, 73, 0
2, 46056, Note_on_c, 0, 72, 75
2, 46079, Note_on_c, 0, 72, 0
2, 46128, Note_on_c, 0, 70, 75
2, 46173, Note_on_c, 0, 70, 0
2, 46224, Note_on_c, 0, 67, 75
2, 46269, Note_on_c, 0, 67, 0
2, 46320, Note_on_c, 0, 68, 75
2, 46365, Note_on_c, 0, 68, 0
2, 46368, Note_on_c, 0, 77, 80
2, 46391, Note_on_c, 0, 77, 0
2, 46392, Note_on_c, 0, 80, 80
2, 46415, Note_on_c, 0, 80, 0
2, 46416, Note_on_c, 0, 77, 80
2, 46439, Note_on_c, 0, 77, 0
2, 46440, Note_on_c, 0, 80, 80
2, 46463, Note_on_c, 0, 80, 0
2, 46464, Note_on_c, 0, 75, 80
2, 46509, Note_on_c, 0, 75, 0
2, 46560, Note_on_c, 0, 73, 80
2, 46583, Note_on_c, 0, 73, 0
2, 46584, Note_on_c, 0, 80, 80
2, 46607, Note_on_c, 0, 80, 0
2, 46608, Note_on_c, 0, 73, 80
2, 46631, Note_on_c, 0, 73, 0
2, 46632, Note_on_c, 0, 80, 80
2, 46655, Note_on_c, 0, 80, 0
2, 46656, Note_on_c, 0, 72, 80
2, 46701, Note_on_c, 0, 72, 0
2, 46752, Note_on_c, 0, 77, 80
2, 46775, Note_on_c, 0, 77, 0
2, 46776, Note_on_c, 0, 80, 80
2, 46799, Note_on_c, 0, 80, 0
2, 46800, Note_on_c, 0, 77, 80
2, 46823, Note_on_c, 0, 77, 0
2, 46824, Note_on_c, 0, 80, 80
2, 46847, Note_on_c, 0, 80, 0
2, 46848, Note_on_c, 0, 75, 80
2, 46893, Note_on_c, 0, 75, 0
2, 47064, Note_on_c, 0, 70, 75
2, 47087, Note_on_c, 0, 70, 0
2, 47088, Note_on_c, 0, 69, 75
2, 47111, Note_on_c, 0, 69, 0
2, 47112, Note_on_c, 0, 70, 75
2, 47135, Note_on_c, 0, 70, 0
2, 47136, Note_on_c, 0, 77, 75
2, 47181, Note_on_c, 0, 77, 0
2, 47184, Note_on_c, 0, 70, 75
2, 47229, Note_on_c, 0, 70, 0
2, 47256, Note_on_c, 0, 68, 75
2, 47279, Note_on_c, 0, 68, 0
2, 47280, Note_on_c, 0, 67, 75
2, 47303, Note_on_c, 0, 67, 0
2, 47304, Note_on_c, 0, 68, 75
2, 47327, Note_on_c, 0, 68, 0
2, 47328, Note_on_c, 0, 77, 75
2, 47373, Note_on_c, 0, 77, 0
2, 47376, Note_on_c, 0, 68, 75
2, 47421, Note_on_c, 0, 68, 0
2, 47424, Note_on_c, 0, 67, 75
2, 47447, Note_on_c, 0, 67, 0
2, 47448, Note_on_c, 0, 75, 75
2, 47471, Note_on_c, 0, 75, 0
2, 47472, Note_on_c, 0, 68, 75
2, 47495, Note_on_c, 0, 68, 0
2, 47496, Note_on_c, 0, 75, 75
2, 47519, Note_on_c, 0, 75, 0
2, 47520, Note_on_c, 0, 70, 75
2, 47543, Note_on_c, 0, 70, 0
2, 47544, Note_on_c, 0, 75, 75
2, 47567, Note_on_c, 0, 75, 0
2, 47568, Note_on_c, 0, 72, 75
2, 47591, Note_on_c, 0, 72, 0
2, 47592, Note_on_c, 0, 75, 75
2, 47615, Note_on_c, 0, 75, 0
2, 47616, Note_on_c, 0, 73, 75
2, 47639, Note_on_c, 0, 73, 0
2, 47640, Note_on_c, 0, 75, 75
2, 47663, Note_on_c, 0, 75, 0
2, 47664, Note_on_c, 0, 72, 75
2, 47687, Note_on_c, 0, 72, 0
2, 47688, Note_on_c, 0, 75, 75
2, 47711, Note_on_c, 0, 75, 0
2, 47712, Note_on_c, 0, 73, 75
2, 47735, Note_on_c, 0, 73, 0
2, 47736, Note_on_c, 0, 75, 75
2, 47759, Note_on_c, 0, 75, 0
2, 47760, Note_on_c, 0, 70, 75
2, 47783, Note_on_c, 0, 70, 0
2, 47784, Note_on_c, 0, 75, 75
2, 47807, Note_on_c, 0, 75, 0
2, 47808, Note_on_c, 0, 72, 75
2, 47831, Note_on_c, 0, 72, 0
2, 47832, Note_on_c, 0, 80, 75
2, 47855, Note_on_c, 0, 80, 0
2, 47856, Note_on_c, 0, 73, 75
2, 47879, Note_on_c, 0, 73, 0
2, 47880, Note_on_c, 0, 80, 75
2, 47903, Note_on_c, 0, 80, 0
2, 47904, Note_on_c, 0, 75, 76
2, 47927, Note_on_c, 0, 75, 0
2, 47928, Note_on_c, 0, 80, 76
2, 47951, Note_on_c, 0, 80, 0
2, 47952, Note_on_c, 0, 77, 76
2, 47975, Note_on_c, 0, 77, 0
2, 47976, Note_on_c, 0, 80, 77
2, 47999, Note_on_c, 0, 80, 0
2, 48000, Note_on_c, 0, 78, 77
2, 48023, Note_on_c, 0, 78, 0
2, 48024, Note_on_c, 0, 80, 77
2, 48047, Note_on_c, 0, 80, 0
2, 48048, Note_on_c, 0, 77, 78
2, 48071, Note_on_c, 0, 77, 0
2, 48072, Note_on_c, 0, 80, 78
2, 48095, Note_on_c, 0, 80, 0
2, 48096, Note_on_c, 0, 78, 78
2, 48119, Note_on_c, 0, 78, 0
2, 48120, Note_on_c, 0, 80, 79
2, 48143, Note_on_c, 0, 80, 0
2, 48144, Note_on_c, 0, 75, 79
2, 48167, Note_on_c, 0, 75, 0
2, 48168, Note_on_c, 0, 80, 79
2, 48191, Note_on_c, 0, 80, 0
2, 48216, Note_on_c, 0, 77, 80
2, 48239, Note_on_c, 0, 77, 0
2, 48240, Note_on_c, 0, 80, 80
2, 48263, Note_on_c, 0, 80, 0
2, 48264, Note_on_c, 0, 77, 80
2, 48287, Note_on_c, 0, 77, 0
2, 48288, Note_on_c, 0, 85, 80
2, 48311, Note_on_c, 0, 85, 0
2, 48312, Note_on_c, 0, 77, 80
2, 48335, Note_on_c, 0, 77, 0
2, 48336, Note_on_c, 0, 80, 80
2, 48359, Note_on_c, 0, 80, 0
2, 48360, Note_on_c, 0, 77, 80
2, 48383, Note_on_c, 0, 77, 0
2, 48408, Note_on_c, 0, 75, 80
2, 48431, Note_on_c, 0, 75, 0
2, 48432, Note_on_c, 0, 85, 80
2, 48455, Note_on_c, 0, 85, 0
2, 48456, Note_on_c, 0, 75, 80
2, 48479, Note_on_c, 0, 75, 0
2, 48504, Note_on_c, 0, 75, 80
2, 48527, Note_on_c, 0, 75, 0
2, 48528, Note_on_c, 0, 84, 80
2, 48551, Note_on_c, 0, 84, 0
2, 48552, Note_on_c, 0, 75, 80
2, 48575, Note_on_c, 0, 75, 0
2, 48600, Note_on_c, 0, 73, 80
2, 48623, Note_on_c, 0, 73, 0
2, 48624, Note_on_c, 0, 77, 80
2, 48647, Note_on_c, 0, 77, 0
2, 48648, Note_on_c, 0, 73, 80
2, 48671, Note_on_c, 0, 73, 0
2, 48672, Note_on_c, 0, 82, 80
2, 48695, Note_on_c, 0, 82, 0
2, 48696, Note_on_c, 0, 73, 80
2, 48719, Note_on_c, 0, 73, 0
2, 48720, Note_on_c, 0, 77, 80
2, 48743, Note_on_c, 0, 77, 0
2, 48744, Note_on_c, 0, 73, 80
2, 48767, Note_on_c, 0, 73, 0
2, 48792, Note_on_c, 0, 72, 80
2, 48815, Note_on_c, 0, 72, 0
2, 48816, Note_on_c, 0, 82, 80
2, 48839, Note_on_c, 0, 82, 0
2, 48840, Note_on_c, 0, 72, 80
2, 48863, Note_on_c, 0, 72, 0
2, 48888, Note_on_c, 0, 71, 80
2, 48911, Note_on_c, 0, 71, 0
2, 48912, Note_on_c, 0, 80, 80
2, 48935, Note_on_c, 0, 80, 0
2, 48936, Note_on_c, 0, 71, 80
2, 48959, Note_on_c, 0, 71, 0
2, 48984, Note_on_c, 0, 70, 80
2, 49007, Note_on_c, 0, 70, 0
2, 49008, Note_on_c, 0, 80, 80
2, 49031, Note_on_c, 0, 80, 0
2, 49032, Note_on_c, 0, 70, 80
2, 49055, Note_on_c, 0, 70, 0
2, 49080, Note_on_c, 0, 70, 80
2, 49103, Note_on_c, 0, 70, 0
2, 49104, Note_on_c, 0, 78, 80
2, 49127, Note_on_c, 0, 78, 0
2, 49128, Note_on_c, 0, 70, 80
2, 49151, Note_on_c, 0, 70, 0
2, 49176, Note_on_c, 0, 68, 80
2, 49199, Note_on_c, 0, 68, 0
2, 49200, Note_on_c, 0, 78, 80
2, 49223, Note_on_c, 0, 78, 0
2, 49224, Note_on_c, 0, 68, 80
2, 49247, Note_on_c, 0, 68, 0
2, 49272, Note_on_c, 0, 68, 80
2, 49295, Note_on_c, 0, 68, 0
2, 49296, Note_on_c, 0, 77, 80
2, 49319, Note_on_c, 0, 77, 0
2, 49320, Note_on_c, 0, 68, 80
2, 49343, Note_on_c, 0, 68, 0
2, 49368, Note_on_c, 0, 66, 80
2, 49391, Note_on_c, 0, 66, 0
2, 49392, Note_on_c, 0, 77, 80
2, 49415, Note_on_c, 0, 77, 0
2, 49416, Note_on_c, 0, 66, 80
2, 49439, Note_on_c, 0, 66, 0
2, 49464, Note_on_c, 0, 66, 80
2, 49487, Note_on_c, 0, 66, 0
2, 49488, Note_on_c, 0, 75, 80
2, 49511, Note_on_c, 0, 75, 0
2, 49512, Note_on_c, 0, 66, 80
2, 49535, Note_on_c, 0, 66, 0
2, 49560, Note_on_c, 0, 65, 80
2, 49583, Note_on_c, 0, 65, 0
2, 49584, Note_on_c, 0, 75, 80
2, 49607, Note_on_c, 0, 75, 0
2, 49608, Note_on_c, 0, 65, 80
2, 49631, Note_on_c, 0, 65, 0
2, 49656, Note_on_c, 0, 65, 80
2, 49679, Note_on_c, 0, 65, 0
2, 49680, Note_on_c, 0, 73, 80
2, 49703, Note_on_c, 0, 73, 0
2, 49704, Note_on_c, 0, 65, 80
2, 49727, Note_on_c, 0, 65, 0
2, 49752, Note_on_c, 0, 63, 80
2, 49775, Note_on_c, 0, 63, 0
2, 49776, Note_on_c, 0, 73, 80
2, 49799, Note_on_c, 0, 73, 0
2, 49800, Note_on_c, 0, 63, 80
2, 49823, Note_on_c, 0, 63, 0
2, 49848, Note_on_c, 0, 63, 80
2, 49871, Note_on_c, 0, 63, 0
2, 49872, Note_on_c, 0, 72, 80
2, 49895, Note_on_c, 0, 72, 0
2, 49896, Note_on_c, 0, 63, 80
2, 49919, Note_on_c, 0, 63, 0
2, 49944, Note_on_c, 0, 62, 80
2, 49967, Note_on_c, 0, 62, 0
2, 49968, Note_on_c, 0, 71, 80
2, 49991, Note_on_c, 0, 71, 0
2, 49992, Note_on_c, 0, 62, 80
2, 50015, Note_on_c, 0, 62, 0
2, 50040, Note_on_c, 0, 62, 80
2, 50063, Note_on_c, 0, 62, 0
2, 50064, Note_on_c, 0, 71, 80
2, 50087, Note_on_c, 0, 71, 0
2, 50088, Note_on_c, 0, 62, 80
2, 50111, Note_on_c, 0, 62, 0
2, 50136, Note_on_c, 0, 62, 80
2, 50159, Note_on_c, 0, 62, 0
2, 50160, Note_on_c, 0, 71, 80
2, 50183, Note_on_c, 0, 71, 0
2, 50184, Note_on_c, 0, 62, 80
2, 50207, Note_on_c, 0, 62, 0
2, 50232, Note_on_c, 0, 62, 80
2, 50255, Note_on_c, 0, 62, 0
2, 50256, Note_on_c, 0, 71, 80
2, 50279, Note_on_c, 0, 71, 0
2, 50280, Note_on_c, 0, 62, 80
2, 50303, Note_on_c, 0, 62, 0
2, 50328, Note_on_c, 0, 62, 80
2, 50351, Note_on_c, 0, 62, 0
2, 50352, Note_on_c, 0, 71, 80
2, 50375, Note_on_c, 0, 71, 0
2, 50376, Note_on_c, 0, 62, 80
2, 50399, Note_on_c, 0, 62, 0
2, 50424, Note_on_c, 0, 62, 80
2, 50447, Note_on_c, 0, 62, 0
2, 50448, Note_on_c, 0, 71, 80
2, 50471, Note_on_c, 0, 71, 0
2, 50472, Note_on_c, 0, 62, 80
2, 50495, Note_on_c, 0, 62, 0
2, 50520, Note_on_c, 0, 62, 80
2, 50543, Note_on_c, 0, 62, 0
2, 50544, Note_on_c, 0, 71, 80
2, 50567, Note_on_c, 0, 71, 0
2, 50568, Note_on_c, 0, 62, 80
2, 50591, Note_on_c, 0, 62, 0
2, 50616, Note_on_c, 0, 62, 80
2, 50639, Note_on_c, 0, 62, 0
2, 50640, Note_on_c, 0, 71, 80
2, 50663, Note_on_c, 0, 71, 0
2, 50664, Note_on_c, 0, 62, 80
2, 50687, Note_on_c, 0, 62, 0
2, 50712, Note_on_c, 0, 61, 80
2, 50735, Note_on_c, 0, 61, 0
2, 50736, Note_on_c, 0, 70, 80
2, 50759, Note_on_c, 0, 70, 0
2, 50760, Note_on_c, 0, 61, 80
2, 50783, Note_on_c, 0, 61, 0
2, 50808, Note_on_c, 0, 61, 80
2, 50831, Note_on_c, 0, 61, 0
2, 50832, Note_on_c, 0, 70, 80
2, 50855, Note_on_c, 0, 70, 0
2, 50856, Note_on_c, 0, 61, 80
2, 50879, Note_on_c, 0, 61, 0
2, 50904, Note_on_c, 0, 61, 80
2, 50927, Note_on_c, 0, 61, 0
2, 50928, Note_on_c, 0, 70, 80
2, 50951, Note_on_c, 0, 70, 0
2, 50952, Note_on_c, 0, 61, 80
2, 50975, Note_on_c, 0, 61, 0
2, 51000, Note_on_c, 0, 61, 80
2, 51023, Note_on_c, 0, 61, 0
2, 51024, Note_on_c, 0, 70, 80
2, 51047, Note_on_c, 0, 70, 0
2, 51048, Note_on_c, 0, 61, 80
2, 51071, Note_on_c, 0, 61, 0
2, 51096, Note_on_c, 0, 61, 80
2, 51119, Note_on_c, 0, 61, 0
2, 51120, Note_on_c, 0, 70, 80
2, 51143, Note_on_c, 0, 70, 0
2, 51144, Note_on_c, 0, 61, 80
2, 51167, Note_on_c, 0, 61, 0
2, 51192, Note_on_c, 0, 61, 80
2, 51215, Note_on_c, 0, 61, 0
2, 51216, Note_on_c, 0, 70, 80
2, 51239, Note_on_c, 0, 70, 0
2, 51240, Note_on_c, 0, 61, 80
2, 51263, Note_on_c, 0, 61, 0
2, 51288, Note_on_c, 0, 61, 80
2, 51311, Note_on_c, 0, 61, 0
2, 51312, Note_on_c, 0, 70, 80
2, 51335, Note_on_c, 0, 70, 0
2, 51336, Note_on_c, 0, 61, 80
2, 51359, Note_on_c, 0, 61, 0
2, 51384, Control_c, 0, 64, 127
2, 51384, Note_on_c, 0, 61, 80
2, 51407, Note_on_c, 0, 61, 0
2, 51408, Note_on_c, 0, 70, 80
2, 51431, Note_on_c, 0, 70, 0
2, 51432, Note_on_c, 0, 61, 80
2, 51455, Note_on_c, 0, 61, 0
2, 51744, Control_c, 0, 64, 0
2, 51792, Note_on_c, 0, 60, 80
2, 51815, Note_on_c, 0, 60, 0
2, 51816, Note_on_c, 0, 61, 80
2, 51839, Note_on_c, 0, 61, 0
2, 51840, Note_on_c, 0, 63, 75
2, 51860, Note_on_c, 0, 63, 0
2, 51888, Note_on_c, 0, 63, 76
2, 51908, Note_on_c, 0, 63, 0
2, 51936, Note_on_c, 0, 63, 77
2, 51956, Note_on_c, 0, 63, 0
2, 51984, Note_on_c, 0, 68, 78
2, 52004, Note_on_c, 0, 68, 0
2, 52032, Note_on_c, 0, 63, 80
2, 52165, Note_on_c, 0, 63, 0
2, 52176, Note_on_c, 0, 61, 76
2, 52199, Note_on_c, 0, 61, 0
2, 52200, Note_on_c, 0, 60, 75
2, 52223, Note_on_c, 0, 60, 0
2, 52224, Note_on_c, 0, 58, 75
2, 52313, Note_on_c, 0, 58, 0
2, 52320, Note_on_c, 0, 60, 75
2, 52409, Note_on_c, 0, 60, 0
2, 52416, Note_on_c, 0, 63, 75
2, 52461, Note_on_c, 0, 63, 0
2, 52464, Note_on_c, 0, 61, 75
2, 52476, Note_on_c, 0, 61, 0
2, 52476, Note_on_c, 0, 60, 75
2, 52488, Note_on_c, 0, 60, 0
2, 52488, Note_on_c, 0, 61, 75
2, 52509, Note_on_c, 0, 61, 0
2, 52512, Note_on_c, 0, 60, 75
2, 52532, Note_on_c, 0, 60, 0
2, 52560, Note_on_c, 0, 60, 75
2, 52583, Note_on_c, 0, 60, 0
2, 52584, Note_on_c, 0, 61, 75
2, 52607, Note_on_c, 0, 61, 0
2, 52608, Note_on_c, 0, 63, 75
2, 52628, Note_on_c, 0, 63, 0
2, 52656, Note_on_c, 0, 63, 76
2, 52676, Note_on_c, 0, 63, 0
2, 52704, Note_on_c, 0, 63, 77
2, 52724, Note_on_c, 0, 63, 0
2, 52752, Note_on_c, 0, 68, 78
2, 52772, Note_on_c, 0, 68, 0
2, 52800, Note_on_c, 0, 63, 80
2, 52933, Note_on_c, 0, 63, 0
2, 52944, Note_on_c, 0, 61, 76
2, 52967, Note_on_c, 0, 61, 0
2, 52968, Note_on_c, 0, 60, 75
2, 52991, Note_on_c, 0, 60, 0
2, 52992, Note_on_c, 0, 58, 75
2, 53037, Note_on_c, 0, 58, 0
2, 53040, Note_on_c, 0, 61, 75
2, 53085, Note_on_c, 0, 61, 0
2, 53088, Note_on_c, 0, 55, 75
2, 53133, Note_on_c, 0, 55, 0
2, 53136, Note_on_c, 0, 58, 75
2, 53181, Note_on_c, 0, 58, 0
2, 53184, Note_on_c, 0, 56, 75
2, 53273, Note_on_c, 0, 56, 0
2, 53328, Note_on_c, 0, 72, 75
2, 53351, Note_on_c, 0, 72, 0
2, 53352, Note_on_c, 0, 73, 75
2, 53375, Note_on_c, 0, 73, 0
2, 53376, Note_on_c, 0, 75, 75
2, 53396, Note_on_c, 0, 75, 0
2, 53424, Note_on_c, 0, 75, 76
2, 53444, Note_on_c, 0, 75, 0
2, 53472, Note_on_c, 0, 75, 77
2, 53492, Note_on_c, 0, 75, 0
2, 53520, Note_on_c, 0, 87, 94
2, 53540, Note_on_c, 0, 87, 0
2, 53568, Note_on_c, 0, 75, 80
2, 53701, Note_on_c, 0, 75, 0
2, 53712, Note_on_c, 0, 73, 76
2, 53735, Note_on_c, 0, 73, 0
2, 53736, Note_on_c, 0, 72, 75
2, 53759, Note_on_c, 0, 72, 0
2, 53760, Note_on_c, 0, 70, 75
2, 53780, Note_on_c, 0, 70, 0
2, 53808, Note_on_c, 0, 87, 91
2, 53828, Note_on_c, 0, 87, 0
2, 53856, Note_on_c, 0, 72, 75
2, 53876, Note_on_c, 0, 72, 0
2, 53904, Note_on_c, 0, 87, 91
2, 53924, Note_on_c, 0, 87, 0
2, 53952, Note_on_c, 0, 75, 75
2, 53997, Note_on_c, 0, 75, 0
2, 54000, Note_on_c, 0, 73, 75
2, 54012, Note_on_c, 0, 73, 0
2, 54012, Note_on_c, 0, 72, 75
2, 54024, Note_on_c, 0, 72, 0
2, 54024, Note_on_c, 0, 73, 75
2, 54045, Note_on_c, 0, 73, 0
2, 54048, Note_on_c, 0, 72, 75
2, 54068, Note_on_c, 0, 72, 0
2, 54096, Note_on_c, 0, 72, 75
2, 54119, Note_on_c, 0, 72, 0
2, 54120, Note_on_c, 0, 73, 75
2, 54143, Note_on_c, 0, 73, 0
2, 54144, Note_on_c, 0, 75, 75
2, 54164, Note_on_c, 0, 75, 0
2, 54192, Note_on_c, 0, 75, 76
2, 54212, Note_on_c, 0, 75, 0
2, 54240, Note_on_c, 0, 75, 77
2, 54260, Note_on_c, 0, 75, 0
2, 54288, Note_on_c, 0, 87, 94
2, 54308, Note_on_c, 0, 87, 0
2, 54336, Note_on_c, 0, 75, 80
2, 54469, Note_on_c, 0, 75, 0
2, 54480, Note_on_c, 0, 73, 76
2, 54503, Note_on_c, 0, 73, 0
2, 54504, Note_on_c, 0, 72, 75
2, 54527, Note_on_c, 0, 72, 0
2, 54528, Note_on_c, 0, 70, 75
2, 54573, Note_on_c, 0, 70, 0
2, 54576, Note_on_c, 0, 85, 75
2, 54621, Note_on_c, 0, 85, 0
2, 54624, Note_on_c, 0, 67, 75
2, 54669, Note_on_c, 0, 67, 0
2, 54672, Note_on_c, 0, 70, 75
2, 54717, Note_on_c, 0, 70, 0
2, 54720, Note_on_c, 0, 68, 75
2, 54809, Note_on_c, 0, 68, 0
2, 54864, Note_on_c, 0, 75, 75
2, 54909, Note_on_c, 0, 75, 0
2, 54912, Note_on_c, 0, 77, 75
2, 54957, Note_on_c, 0, 77, 0
2, 54960, Note_on_c, 0, 75, 75
2, 55005, Note_on_c, 0, 75, 0
2, 55008, Note_on_c, 0, 74, 75
2, 55053, Note_on_c, 0, 74, 0
2, 55056, Note_on_c, 0, 83, 91
2, 55149, Note_on_c, 0, 83, 0
2, 55152, Note_on_c, 0, 81, 75
2, 55197, Note_on_c, 0, 81, 0
2, 55200, Note_on_c, 0, 82, 75
2, 55245, Note_on_c, 0, 82, 0
2, 55248, Note_on_c, 0, 72, 75
2, 55293, Note_on_c, 0, 72, 0
2, 55296, Note_on_c, 0, 73, 75
2, 55341, Note_on_c, 0, 73, 0
2, 55344, Note_on_c, 0, 72, 75
2, 55389, Note_on_c, 0, 72, 0
2, 55392, Note_on_c, 0, 71, 75
2, 55437, Note_on_c, 0, 71, 0
2, 55440, Note_on_c, 0, 80, 91
2, 55533, Note_on_c, 0, 80, 0
2, 55536, Note_on_c, 0, 78, 75
2, 55581, Note_on_c, 0, 78, 0
2, 55584, Note_on_c, 0, 79, 75
2, 55629, Note_on_c, 0, 79, 0
2, 55632, Note_on_c, 0, 68, 75
2, 55677, Note_on_c, 0, 68, 0
2, 55680, Note_on_c, 0, 70, 75
2, 55725, Note_on_c, 0, 70, 0
2, 55728, Note_on_c, 0, 68, 75
2, 55773, Note_on_c, 0, 68, 0
2, 55776, Note_on_c, 0, 67, 75
2, 55821, Note_on_c, 0, 67, 0
2, 55824, Note_on_c, 0, 77, 91
2, 55917, Note_on_c, 0, 77, 0
2, 55920, Note_on_c, 0, 74, 75
2, 55965, Note_on_c, 0, 74, 0
2, 55968, Note_on_c, 0, 75, 75
2, 56013, Note_on_c, 0, 75, 0
2, 56016, Note_on_c, 0, 75, 75
2, 56109, Note_on_c, 0, 75, 0
2, 56112, Note_on_c, 0, 74, 75
2, 56157, Note_on_c, 0, 74, 0
2, 56160, Note_on_c, 0, 80, 75
2, 56205, Note_on_c, 0, 80, 0
2, 56208, Note_on_c, 0, 80, 75
2, 56301, Note_on_c, 0, 80, 0
2, 56304, Note_on_c, 0, 79, 75
2, 56349, Note_on_c, 0, 79, 0
2, 56352, Note_on_c, 0, 82, 75
2, 56397, Note_on_c, 0, 82, 0
2, 56400, Note_on_c, 0, 75, 75
2, 56493, Note_on_c, 0, 75, 0
2, 56496, Note_on_c, 0, 74, 75
2, 56541, Note_on_c, 0, 74, 0
2, 56544, Note_on_c, 0, 80, 75
2, 56564, Note_on_c, 0, 80, 0
2, 56592, Note_on_c, 0, 80, 75
2, 56637, Note_on_c, 0, 80, 0
2, 56640, Note_on_c, 0, 80, 75
2, 57201, Note_on_c, 0, 80, 0
2, 57216, Note_on_c, 0, 78, 75
2, 57349, Note_on_c, 0, 78, 0
2, 57360, Note_on_c, 0, 79, 75
2, 57497, Note_on_c, 0, 79, 0
2, 57504, Note_on_c, 0, 74, 75
2, 57645, Note_on_c, 0, 74, 0
2, 57648, Note_on_c, 0, 77, 75
2, 57837, Note_on_c, 0, 77, 0
2, 57840, Note_on_c, 0, 75, 75
2, 57973, Note_on_c, 0, 75, 0
2, 57984, Note_on_c, 0, 75, 75
2, 58309, Note_on_c, 0, 75, 0
2, 58320, Note_on_c, 0, 72, 75
2, 58343, Note_on_c, 0, 72, 0
2, 58344, Note_on_c, 0, 73, 75
2, 58367, Note_on_c, 0, 73, 0
2, 58368, Note_on_c, 0, 75, 75
2, 58388, Note_on_c, 0, 75, 0
2, 58416, Note_on_c, 0, 75, 76
2, 58436, Note_on_c, 0, 75, 0
2, 58464, Note_on_c, 0, 75, 77
2, 58484, Note_on_c, 0, 75, 0
2, 58512, Note_on_c, 0, 87, 94
2, 58532, Note_on_c, 0, 87, 0
2, 58560, Note_on_c, 0, 75, 80
2, 58693, Note_on_c, 0, 75, 0
2, 58704, Note_on_c, 0, 73, 76
2, 58727, Note_on_c, 0, 73, 0
2, 58728, Note_on_c, 0, 72, 75
2, 58751, Note_on_c, 0, 72, 0
2, 58752, Note_on_c, 0, 70, 75
2, 58772, Note_on_c, 0, 70, 0
2, 58800, Note_on_c, 0, 87, 91
2, 58820, Note_on_c, 0, 87, 0
2, 58848, Note_on_c, 0, 72, 75
2, 58868, Note_on_c, 0, 72, 0
2, 58896, Note_on_c, 0, 87, 91
2, 58916, Note_on_c, 0, 87, 0
2, 58944, Note_on_c, 0, 75, 75
2, 58989, Note_on_c, 0, 75, 0
2, 58992, Note_on_c, 0, 73, 75
2, 59004, Note_on_c, 0, 73, 0
2, 59004, Note_on_c, 0, 72, 75
2, 59016, Note_on_c, 0, 72, 0
2, 59016, Note_on_c, 0, 73, 75
2, 59037, Note_on_c, 0, 73, 0
2, 59040, Note_on_c, 0, 72, 75
2, 59060, Note_on_c, 0, 72, 0
2, 59088, Note_on_c, 0, 72, 75
2, 59111, Note_on_c, 0, 72, 0
2, 59112, Note_on_c, 0, 73, 75
2, 59135, Note_on_c, 0, 73, 0
2, 59136, Note_on_c, 0, 75, 75
2, 59156, Note_on_c, 0, 75, 0
2, 59184, Note_on_c, 0, 75, 76
2, 59204, Note_on_c, 0, 75, 0
2, 59232, Note_on_c, 0, 75, 77
2, 59252, Note_on_c, 0, 75, 0
2, 59280, Note_on_c, 0, 87, 94
2, 59300, Note_on_c, 0, 87, 0
2, 59328, Note_on_c, 0, 75, 80
2, 59461, Note_on_c, 0, 75, 0
2, 59472, Note_on_c, 0, 73, 76
2, 59495, Note_on_c, 0, 73, 0
2, 59496, Note_on_c, 0, 72, 75
2, 59519, Note_on_c, 0, 72, 0
2, 59520, Note_on_c, 0, 70, 75
2, 59565, Note_on_c, 0, 70, 0
2, 59568, Note_on_c, 0, 85, 91
2, 59616, Note_on_c, 0, 85, 0
2, 59616, Note_on_c, 0, 67, 75
2, 59661, Note_on_c, 0, 67, 0
2, 59664, Note_on_c, 0, 70, 75
2, 59709, Note_on_c, 0, 70, 0
2, 59712, Note_on_c, 0, 68, 75
2, 59801, Note_on_c, 0, 68, 0
2, 59856, Note_on_c, 0, 75, 75
2, 59901, Note_on_c, 0, 75, 0
2, 59904, Note_on_c, 0, 77, 75
2, 59949, Note_on_c, 0, 77, 0
2, 59952, Note_on_c, 0, 75, 75
2, 59997, Note_on_c, 0, 75, 0
2, 60000, Note_on_c, 0, 74, 75
2, 60045, Note_on_c, 0, 74, 0
2, 60048, Note_on_c, 0, 83, 91
2, 60141, Note_on_c, 0, 83, 0
2, 60144, Note_on_c, 0, 81, 75
2, 60189, Note_on_c, 0, 81, 0
2, 60192, Note_on_c, 0, 82, 75
2, 60237, Note_on_c, 0, 82, 0
2, 60240, Note_on_c, 0, 72, 75
2, 60285, Note_on_c, 0, 72, 0
2, 60288, Note_on_c, 0, 73, 75
2, 60333, Note_on_c, 0, 73, 0
2, 60336, Note_on_c, 0, 72, 75
2, 60381, Note_on_c, 0, 72, 0
2, 60384, Note_on_c, 0, 71, 75
2, 60429, Note_on_c, 0, 71, 0
2, 60432, Note_on_c, 0, 80, 91
2, 60525, Note_on_c, 0, 80, 0
2, 60528, Note_on_c, 0, 78, 75
2, 60573, Note_on_c, 0, 78, 0
2, 60576, Note_on_c, 0, 79, 75
2, 60621, Note_on_c, 0, 79, 0
2, 60624, Note_on_c, 0, 68, 75
2, 60669, Note_on_c, 0, 68, 0
2, 60672, Note_on_c, 0, 70, 75
2, 60717, Note_on_c, 0, 70, 0
2, 60720, Note_on_c, 0, 68, 75
2, 60765, Note_on_c, 0, 68, 0
2, 60768, Note_on_c, 0, 67, 75
2, 60813, Note_on_c, 0, 67, 0
2, 60816, Note_on_c, 0, 77, 91
2, 60909, Note_on_c, 0, 77, 0
2, 60912, Note_on_c, 0, 74, 75
2, 60957, Note_on_c, 0, 74, 0
2, 60960, Note_on_c, 0, 75, 75
2, 61005, Note_on_c, 0, 75, 0
2, 61008, Note_on_c, 0, 75, 75
2, 61101, Note_on_c, 0, 75, 0
2, 61104, Note_on_c, 0, 74, 75
2, 61149, Note_on_c, 0, 74, 0
2, 61152, Note_on_c, 0, 80, 75
2, 61197, Note_on_c, 0, 80, 0
2, 61200, Note_on_c, 0, 80, 75
2, 61293, Note_on_c, 0, 80, 0
2, 61296, Note_on_c, 0, 79, 75
2, 61341, Note_on_c, 0, 79, 0
2, 61344, Note_on_c, 0, 82, 75
2, 61389, Note_on_c, 0, 82, 0
2, 61392, Note_on_c, 0, 75, 75
2, 61485, Note_on_c, 0, 75, 0
2, 61488, Note_on_c, 0, 74, 75
2, 61533, Note_on_c, 0, 74, 0
2, 61536, Note_on_c, 0, 80, 75
2, 61556, Note_on_c, 0, 80, 0
2, 61584, Note_on_c, 0, 80, 75
2, 61629, Note_on_c, 0, 80, 0
2, 61632, Note_on_c, 0, 80, 75
2, 62193, Note_on_c, 0, 80, 0
2, 62208, Note_on_c, 0, 78, 75
2, 62341, Note_on_c, 0, 78, 0
2, 62352, Note_on_c, 0, 79, 75
2, 62489, Note_on_c, 0, 79, 0
2, 62496, Note_on_c, 0, 74, 75
2, 62637, Note_on_c, 0, 74, 0
2, 62640, Note_on_c, 0, 77, 75
2, 62829, Note_on_c, 0, 77, 0
2, 62832, Note_on_c, 0, 75, 75
2, 62965, Note_on_c, 0, 75, 0
2, 62976, Note_on_c, 0, 75, 75
2, 63301, Note_on_c, 0, 75, 0
2, 63312, Note_on_c, 0, 72, 75
2, 63335, Note_on_c, 0, 72, 0
2, 63336, Note_on_c, 0, 73, 75
2, 63359, Note_on_c, 0, 73, 0
2, 63360, Note_on_c, 0, 75, 75
2, 63380, Note_on_c, 0, 75, 0
2, 63408, Note_on_c, 0, 75, 76
2, 63428, Note_on_c, 0, 75, 0
2, 63456, Note_on_c, 0, 75, 77
2, 63476, Note_on_c, 0, 75, 0
2, 63504, Note_on_c, 0, 87, 94
2, 63524, Note_on_c, 0, 87, 0
2, 63552, Note_on_c, 0, 75, 80
2, 63685, Note_on_c, 0, 75, 0
2, 63696, Note_on_c, 0, 73, 76
2, 63719, Note_on_c, 0, 73, 0
2, 63720, Note_on_c, 0, 72, 75
2, 63743, Note_on_c, 0, 72, 0
2, 63744, Note_on_c, 0, 70, 75
2, 63764, Note_on_c, 0, 70, 0
2, 63792, Note_on_c, 0, 87, 91
2, 63812, Note_on_c, 0, 87, 0
2, 63840, Note_on_c, 0, 72, 75
2, 63860, Note_on_c, 0, 72, 0
2, 63888, Note_on_c, 0, 87, 91
2, 63908, Note_on_c, 0, 87, 0
2, 63936, Note_on_c, 0, 75, 75
2, 63981, Note_on_c, 0, 75, 0
2, 63984, Note_on_c, 0, 73, 75
2, 63996, Note_on_c, 0, 73, 0
2, 63996, Note_on_c, 0, 72, 75
2, 64008, Note_on_c, 0, 72, 0
2, 64008, Note_on_c, 0, 73, 75
2, 64029, Note_on_c, 0, 73, 0
2, 64032, Note_on_c, 0, 72, 75
2, 64052, Note_on_c, 0, 72, 0
2, 64080, Note_on_c, 0, 72, 75
2, 64103, Note_on_c, 0, 72, 0
2, 64104, Note_on_c, 0, 73, 75
2, 64127, Note_on_c, 0, 73, 0
2, 64128, Note_on_c, 0, 75, 75
2, 64148, Note_on_c, 0, 75, 0
2, 64176, Note_on_c, 0, 75, 76
2, 64196, Note_on_c, 0, 75, 0
2, 64224, Note_on_c, 0, 75, 77
2, 64244, Note_on_c, 0, 75, 0
2, 64272, Note_on_c, 0, 87, 94
2, 64292, Note_on_c, 0, 87, 0
2, 64320, Note_on_c, 0, 75, 80
2, 64453, Note_on_c, 0, 75, 0
2, 64464, Note_on_c, 0, 73, 76
2, 64487, Note_on_c, 0, 73, 0
2, 64488, Note_on_c, 0, 72, 75
2, 64511, Note_on_c, 0, 72, 0
2, 64512, Note_on_c, 0, 70, 75
2, 64557, Note_on_c, 0, 70, 0
2, 64560, Note_on_c, 0, 85, 91
2, 64608, Note_on_c, 0, 85, 0
2, 64608, Note_on_c, 0, 67, 75
2, 64653, Note_on_c, 0, 67, 0
2, 64656, Note_on_c, 0, 70, 75
2, 64701, Note_on_c, 0, 70, 0
2, 64704, Note_on_c, 0, 68, 75
2, 64749, Note_on_c, 0, 68, 0
2, 64800, Note_on_c, 0, 77, 80
2, 64823, Note_on_c, 0, 77, 0
2, 64824, Note_on_c, 0, 80, 80
2, 64847, Note_on_c, 0, 80, 0
2, 64848, Note_on_c, 0, 77, 80
2, 64871, Note_on_c, 0, 77, 0
2, 64872, Note_on_c, 0, 80, 80
2, 64895, Note_on_c, 0, 80, 0
2, 64896, Note_on_c, 0, 75, 80
2, 64941, Note_on_c, 0, 75, 0
2, 64992, Note_on_c, 0, 73, 80
2, 65015, Note_on_c, 0, 73, 0
2, 65016, Note_on_c, 0, 80, 80
2, 65039, Note_on_c, 0, 80, 0
2, 65040, Note_on_c, 0, 73, 80
2, 65063, Note_on_c, 0, 73, 0
2, 65064, Note_on_c, 0, 80, 80
2, 65087, Note_on_c, 0, 80, 0
2, 65088, Note_on_c, 0, 72, 80
2, 65133, Note_on_c, 0, 72, 0
2, 65184, Note_on_c, 0, 77, 80
2, 65207, Note_on_c, 0, 77, 0
2, 65208, Note_on_c, 0, 80, 80
2, 65231, Note_on_c, 0, 80, 0
2, 65232, Note_on_c, 0, 77, 80
2, 65255, Note_on_c, 0, 77, 0
2, 65256, Note_on_c, 0, 80, 80
2, 65279, Note_on_c, 0, 80, 0
2, 65280, Note_on_c, 0, 75, 80
2, 65325, Note_on_c, 0, 75, 0
2, 65408, Note_on_c, 0, 84, 64
2, 65438, Note_on_c, 0, 84, 0
2, 65440, Note_on_c, 0, 82, 64
2, 65470, Note_on_c, 0, 82, 0
2, 65472, Note_on_c, 0, 80, 64
2, 65502, Note_on_c, 0, 80, 0
2, 65504, Note_on_c, 0, 79, 64
2, 65534, Note_on_c, 0, 79, 0
2, 65536, Note_on_c, 0, 77, 64
2, 65566, Note_on_c, 0, 77, 0
2, 65568, Note_on_c, 0, 75, 64
2, 65598, Note_on_c, 0, 75, 0
2, 65600, Note_on_c, 0, 73, 64
2, 65630, Note_on_c, 0, 73, 0
2, 65632, Note_on_c, 0, 72, 64
2, 65662, Note_on_c, 0, 72, 0
2, 65664, Note_on_c, 0, 70, 64
2, 65709, Note_on_c, 0, 70, 0
2, 65792, Note_on_c, 0, 70, 64
2, 65822, Note_on_c, 0, 70, 0
2, 65824, Note_on_c, 0, 68, 64
2, 65854, Note_on_c, 0, 68, 0
2, 65856, Note_on_c, 0, 67, 64
2, 65886, Note_on_c, 0, 67, 0
2, 65888, Note_on_c, 0, 65, 64
2, 65918, Note_on_c, 0, 65, 0
2, 65920, Note_on_c, 0, 63, 64
2, 65950, Note_on_c, 0, 63, 0
2, 65952, Note_on_c, 0, 61, 64
2, 65982, Note_on_c, 0, 61, 0
2, 65984, Note_on_c, 0, 60, 64
2, 66014, Note_on_c, 0, 60, 0
2, 66016, Note_on_c, 0, 58, 64
2, 66046, Note_on_c, 0, 58, 0
2, 66048, Note_on_c, 0, 56, 64
2, 66093, Note_on_c, 0, 56, 0
2, 66096, Note_on_c, 0, 56, 64
2, 66141, Note_on_c, 0, 56, 0
2, 66144, Note_on_c, 0, 56, 64
2, 66167, Note_on_c, 0, 56, 0
2, 66168, Note_on_c, 0, 60, 64
2, 66191, Note_on_c, 0, 60, 0
2, 66192, Note_on_c, 0, 63, 64
2, 66215, Note_on_c, 0, 63, 0
2, 66216, Note_on_c, 0, 60, 64
2, 66239, Note_on_c, 0, 60, 0
2, 66240, Note_on_c, 0, 56, 64
2, 66285, Note_on_c, 0, 56, 0
2, 66288, Note_on_c, 0, 56, 64
2, 66333, Note_on_c, 0, 56, 0
2, 66336, Note_on_c, 0, 56, 64
2, 66359, Note_on_c, 0, 56, 0
2, 66360, Note_on_c, 0, 60, 64
2, 66383, Note_on_c, 0, 60, 0
2, 66384, Note_on_c, 0, 63, 64
2, 66407, Note_on_c, 0, 63, 0
2, 66408, Note_on_c, 0, 60, 64
2, 66431, Note_on_c, 0, 60, 0
2, 66432, Note_on_c, 0, 56, 64
2, 66521, Note_on_c, 0, 56, 0
2, 66528, Note_on_c, 0, 60, 86
2, 66540, Note_on_c, 0, 63, 86
2, 66552, Note_on_c, 0, 68, 86
2, 66623, Note_on_c, 0, 68, 0
2, 66623, Note_on_c, 0, 63, 0
2, 66623, Note_on_c, 0, 60, 0
2, 66624, End_track
3, 0, Start_track
3, 0, Program_c, 0, 0
3, 0, Control_c, 0, 7, 127
3, 0, Control_c, 0, 10, 64
3, 66624, End_track
4, 0, Start_track
4, 0, Program_c, 1, 0
4, 0, Control_c, 1, 7, 127
4, 0, Control_c, 1, 10, 64
4, 432, Note_on_c, 1, 60, 64
4, 477, Note_on_c, 1, 60, 0
4, 480, Note_on_c, 1, 58, 64
4, 525, Note_on_c, 1, 58, 0
4, 528, Note_on_c, 1, 56, 64
4, 573, Note_on_c, 1, 56, 0
4, 576, Note_on_c, 1, 55, 64
4, 621, Note_on_c, 1, 55, 0
4, 624, Note_on_c, 1, 51, 64
4, 669, Note_on_c, 1, 51, 0
4, 672, Note_on_c, 1, 56, 64
4, 717, Note_on_c, 1, 56, 0
4, 720, Note_on_c, 1, 51, 64
4, 765, Note_on_c, 1, 51, 0
4, 768, Note_on_c, 1, 58, 64
4, 813, Note_on_c, 1, 58, 0
4, 816, Note_on_c, 1, 51, 64
4, 861, Note_on_c, 1, 51, 0
4, 864, Note_on_c, 1, 56, 64
4, 909, Note_on_c, 1, 56, 0
4, 1200, Note_on_c, 1, 60, 64
4, 1245, Note_on_c, 1, 60, 0
4, 1248, Note_on_c, 1, 58, 64
4, 1293, Note_on_c, 1, 58, 0
4, 1296, Note_on_c, 1, 56, 64
4, 1341, Note_on_c, 1, 56, 0
4, 1344, Note_on_c, 1, 61, 64
4, 1389, Note_on_c, 1, 61, 0
4, 1392, Note_on_c, 1, 58, 64
4, 1437, Note_on_c, 1, 58, 0
4, 1440, Note_on_c, 1, 63, 64
4, 1485, Note_on_c, 1, 63, 0
4, 1488, Note_on_c, 1, 51, 64
4, 1533, Note_on_c, 1, 51, 0
4, 1536, Note_on_c, 1, 56, 64
4, 1581, Note_on_c, 1, 56, 0
4, 1584, Note_on_c, 1, 51, 64
4, 1629, Note_on_c, 1, 51, 0
4, 1632, Note_on_c, 1, 44, 64
4, 1677, Note_on_c, 1, 44, 0
4, 1968, Note_on_c, 1, 60, 64
4, 2013, Note_on_c, 1, 60, 0
4, 2016, Note_on_c, 1, 58, 64
4, 2061, Note_on_c, 1, 58, 0
4, 2064, Note_on_c, 1, 56, 64
4, 2109, Note_on_c, 1, 56, 0
4, 2112, Note_on_c, 1, 55, 64
4, 2157, Note_on_c, 1, 55, 0
4, 2160, Note_on_c, 1, 51, 64
4, 2205, Note_on_c, 1, 51, 0
4, 2208, Note_on_c, 1, 56, 64
4, 2253, Note_on_c, 1, 56, 0
4, 2256, Note_on_c, 1, 51, 64
4, 2301, Note_on_c, 1, 51, 0
4, 2304, Note_on_c, 1, 58, 64
4, 2349, Note_on_c, 1, 58, 0
4, 2352, Note_on_c, 1, 51, 64
4, 2397, Note_on_c, 1, 51, 0
4, 2400, Note_on_c, 1, 56, 64
4, 2445, Note_on_c, 1, 56, 0
4, 2736, Note_on_c, 1, 60, 64
4, 2781, Note_on_c, 1, 60, 0
4, 2784, Note_on_c, 1, 58, 64
4, 2829, Note_on_c, 1, 58, 0
4, 2832, Note_on_c, 1, 56, 64
4, 2877, Note_on_c, 1, 56, 0
4, 2880, Note_on_c, 1, 61, 64
4, 2925, Note_on_c, 1, 61, 0
4, 2928, Note_on_c, 1, 58, 64
4, 2973, Note_on_c, 1, 58, 0
4, 2976, Note_on_c, 1, 63, 64
4, 3021, Note_on_c, 1, 63, 0
4, 3024, Note_on_c, 1, 51, 64
4, 3069, Note_on_c, 1, 51, 0
4, 3072, Note_on_c, 1, 56, 64
4, 3117, Note_on_c, 1, 56, 0
4, 3120, Note_on_c, 1, 51, 64
4, 3165, Note_on_c, 1, 51, 0
4, 3168, Note_on_c, 1, 44, 64
4, 3213, Note_on_c, 1, 44, 0
4, 3408, Note_on_c, 1, 74, 64
4, 3408, Note_on_c, 1, 68, 64
4, 3456, Note_on_c, 1, 74, 0
4, 3456, Note_on_c, 1, 68, 0
4, 3456, Note_on_c, 1, 75, 64
4, 3456, Note_on_c, 1, 67, 64
4, 3545, Note_on_c, 1, 75, 0
4, 3545, Note_on_c, 1, 67, 0
4, 3792, Note_on_c, 1, 71, 64
4, 3792, Note_on_c, 1, 65, 64
4, 3840, Note_on_c, 1, 71, 0
4, 3840, Note_on_c, 1, 65, 0
4, 3840, Note_on_c, 1, 72, 64
4, 3840, Note_on_c, 1, 63, 64
4, 3929, Note_on_c, 1, 72, 0
4, 3929, Note_on_c, 1, 63, 0
4, 4176, Note_on_c, 1, 67, 64
4, 4176, Note_on_c, 1, 61, 64
4, 4224, Note_on_c, 1, 67, 0
4, 4224, Note_on_c, 1, 61, 0
4, 4224, Note_on_c, 1, 68, 64
4, 4224, Note_on_c, 1, 60, 64
4, 4313, Note_on_c, 1, 68, 0
4, 4313, Note_on_c, 1, 60, 0
4, 4416, Note_on_c, 1, 68, 64
4, 4416, Note_on_c, 1, 58, 64
4, 4505, Note_on_c, 1, 68, 0
4, 4505, Note_on_c, 1, 58, 0
4, 4608, Note_on_c, 1, 67, 64
4, 4608, Note_on_c, 1, 63, 64
4, 4697, Note_on_c, 1, 67, 0
4, 4697, Note_on_c, 1, 63, 0
4, 4800, Note_on_c, 1, 68, 64
4, 4800, Note_on_c, 1, 58, 64
4, 4889, Note_on_c, 1, 68, 0
4, 4889, Note_on_c, 1, 58, 0
4, 5184, Note_on_c, 1, 39, 64
4, 5421, Note_on_c, 1, 39, 0
4, 5808, Note_on_c, 1, 60, 64
4, 5853, Note_on_c, 1, 60, 0
4, 5856, Note_on_c, 1, 58, 64
4, 5901, Note_on_c, 1, 58, 0
4, 5904, Note_on_c, 1, 56, 64
4, 5949, Note_on_c, 1, 56, 0
4, 5952, Note_on_c, 1, 55, 64
4, 5997, Note_on_c, 1, 55, 0
4, 6000, Note_on_c, 1, 51, 64
4, 6045, Note_on_c, 1, 51, 0
4, 6048, Note_on_c, 1, 56, 64
4, 6093, Note_on_c, 1, 56, 0
4, 6096, Note_on_c, 1, 51, 64
4, 6141, Note_on_c, 1, 51, 0
4, 6144, Note_on_c, 1, 58, 64
4, 6189, Note_on_c, 1, 58, 0
4, 6192, Note_on_c, 1, 51, 64
4, 6237, Note_on_c, 1, 51, 0
4, 6240, Note_on_c, 1, 56, 64
4, 6285, Note_on_c, 1, 56, 0
4, 6576, Note_on_c, 1, 60, 64
4, 6621, Note_on_c, 1, 60, 0
4, 6624, Note_on_c, 1, 58, 64
4, 6669, Note_on_c, 1, 58, 0
4, 6672, Note_on_c, 1, 56, 64
4, 6717, Note_on_c, 1, 56, 0
4, 6720, Note_on_c, 1, 61, 64
4, 6765, Note_on_c, 1, 61, 0
4, 6768, Note_on_c, 1, 58, 64
4, 6813, Note_on_c, 1, 58, 0
4, 6816, Note_on_c, 1, 63, 64
4, 6861, Note_on_c, 1, 63, 0
4, 6864, Note_on_c, 1, 51, 64
4, 6909, Note_on_c, 1, 51, 0
4, 6912, Note_on_c, 1, 56, 64
4, 6957, Note_on_c, 1, 56, 0
4, 6960, Note_on_c, 1, 51, 64
4, 7005, Note_on_c, 1, 51, 0
4, 7008, Note_on_c, 1, 44, 64
4, 7053, Note_on_c, 1, 44, 0
4, 7248, Note_on_c, 1, 74, 64
4, 7248, Note_on_c, 1, 68, 64
4, 7296, Note_on_c, 1, 74, 0
4, 7296, Note_on_c, 1, 68, 0
4, 7296, Note_on_c, 1, 75, 64
4, 7296, Note_on_c, 1, 67, 64
4, 7385, Note_on_c, 1, 75, 0
4, 7385, Note_on_c, 1, 67, 0
4, 7632, Note_on_c, 1, 71, 64
4, 7632, Note_on_c, 1, 65, 64
4, 7680, Note_on_c, 1, 71, 0
4, 7680, Note_on_c, 1, 65, 0
4, 7680, Note_on_c, 1, 72, 64
4, 7680, Note_on_c, 1, 63, 64
4, 7769, Note_on_c, 1, 72, 0
4, 7769, Note_on_c, 1, 63, 0
4, 8016, Note_on_c, 1, 67, 64
4, 8016, Note_on_c, 1, 61, 64
4, 8064, Note_on_c, 1, 67, 0
4, 8064, Note_on_c, 1, 61, 0
4, 8064, Note_on_c, 1, 68, 64
4, 8064, Note_on_c, 1, 60, 64
4, 8153, Note_on_c, 1, 68, 0
4, 8153, Note_on_c, 1, 60, 0
4, 8256, Note_on_c, 1, 68, 64
4, 8256, Note_on_c, 1, 58, 64
4, 8345, Note_on_c, 1, 68, 0
4, 8345, Note_on_c, 1, 58, 0
4, 8448, Note_on_c, 1, 67, 64
4, 8448, Note_on_c, 1, 63, 64
4, 8537, Note_on_c, 1, 67, 0
4, 8537, Note_on_c, 1, 63, 0
4, 8640, Note_on_c, 1, 68, 64
4, 8640, Note_on_c, 1, 58, 64
4, 8729, Note_on_c, 1, 68, 0
4, 8729, Note_on_c, 1, 58, 0
4, 9024, Note_on_c, 1, 39, 64
4, 9261, Note_on_c, 1, 39, 0
4, 9648, Note_on_c, 1, 60, 64
4, 9693, Note_on_c, 1, 60, 0
4, 9696, Note_on_c, 1, 58, 64
4, 9741, Note_on_c, 1, 58, 0
4, 9744, Note_on_c, 1, 56, 64
4, 9789, Note_on_c, 1, 56, 0
4, 9792, Note_on_c, 1, 55, 64
4, 9837, Note_on_c, 1, 55, 0
4, 9840, Note_on_c, 1, 51, 64
4, 9885, Note_on_c, 1, 51, 0
4, 9888, Note_on_c, 1, 56, 64
4, 9933, Note_on_c, 1, 56, 0
4, 9936, Note_on_c, 1, 51, 64
4, 9981, Note_on_c, 1, 51, 0
4, 9984, Note_on_c, 1, 58, 64
4, 10029, Note_on_c, 1, 58, 0
4, 10032, Note_on_c, 1, 51, 64
4, 10077, Note_on_c, 1, 51, 0
4, 10080, Note_on_c, 1, 56, 64
4, 10125, Note_on_c, 1, 56, 0
4, 10416, Note_on_c, 1, 60, 64
4, 10461, Note_on_c, 1, 60, 0
4, 10464, Note_on_c, 1, 58, 64
4, 10509, Note_on_c, 1, 58, 0
4, 10512, Note_on_c, 1, 56, 64
4, 10557, Note_on_c, 1, 56, 0
4, 10560, Note_on_c, 1, 61, 64
4, 10605, Note_on_c, 1, 61, 0
4, 10608, Note_on_c, 1, 58, 64
4, 10653, Note_on_c, 1, 58, 0
4, 10656, Note_on_c, 1, 63, 64
4, 10701, Note_on_c, 1, 63, 0
4, 10704, Note_on_c, 1, 51, 64
4, 10749, Note_on_c, 1, 51, 0
4, 10752, Note_on_c, 1, 56, 64
4, 10797, Note_on_c, 1, 56, 0
4, 10800, Note_on_c, 1, 51, 64
4, 10845, Note_on_c, 1, 51, 0
4, 10848, Note_on_c, 1, 44, 64
4, 10893, Note_on_c, 1, 44, 0
4, 11184, Note_on_c, 1, 60, 64
4, 11229, Note_on_c, 1, 60, 0
4, 11232, Note_on_c, 1, 58, 64
4, 11277, Note_on_c, 1, 58, 0
4, 11280, Note_on_c, 1, 56, 64
4, 11325, Note_on_c, 1, 56, 0
4, 11328, Note_on_c, 1, 55, 64
4, 11417, Note_on_c, 1, 55, 0
4, 11472, Note_on_c, 1, 51, 64
4, 11517, Note_on_c, 1, 51, 0
4, 11520, Note_on_c, 1, 53, 64
4, 11565, Note_on_c, 1, 53, 0
4, 11568, Note_on_c, 1, 56, 64
4, 11613, Note_on_c, 1, 56, 0
4, 11616, Note_on_c, 1, 62, 64
4, 11661, Note_on_c, 1, 62, 0
4, 11664, Note_on_c, 1, 50, 64
4, 11709, Note_on_c, 1, 50, 0
4, 11712, Note_on_c, 1, 51, 64
4, 11757, Note_on_c, 1, 51, 0
4, 11760, Note_on_c, 1, 43, 64
4, 11805, Note_on_c, 1, 43, 0
4, 11808, Note_on_c, 1, 44, 64
4, 11853, Note_on_c, 1, 44, 0
4, 11856, Note_on_c, 1, 45, 64
4, 11901, Note_on_c, 1, 45, 0
4, 11904, Note_on_c, 1, 46, 64
4, 11993, Note_on_c, 1, 46, 0
4, 12048, Note_on_c, 1, 67, 64
4, 12093, Note_on_c, 1, 67, 0
4, 12096, Note_on_c, 1, 65, 64
4, 12141, Note_on_c, 1, 65, 0
4, 12144, Note_on_c, 1, 63, 64
4, 12189, Note_on_c, 1, 63, 0
4, 12192, Note_on_c, 1, 62, 64
4, 12237, Note_on_c, 1, 62, 0
4, 12240, Note_on_c, 1, 56, 64
4, 12263, Note_on_c, 1, 56, 0
4, 12264, Note_on_c, 1, 58, 64
4, 12287, Note_on_c, 1, 58, 0
4, 12288, Note_on_c, 1, 55, 64
4, 12311, Note_on_c, 1, 55, 0
4, 12312, Note_on_c, 1, 58, 64
4, 12335, Note_on_c, 1, 58, 0
4, 12336, Note_on_c, 1, 53, 64
4, 12359, Note_on_c, 1, 53, 0
4, 12360, Note_on_c, 1, 58, 64
4, 12383, Note_on_c, 1, 58, 0
4, 12384, Note_on_c, 1, 51, 64
4, 12429, Note_on_c, 1, 51, 0
4, 12432, Note_on_c, 1, 67, 64
4, 12477, Note_on_c, 1, 67, 0
4, 12480, Note_on_c, 1, 65, 64
4, 12525, Note_on_c, 1, 65, 0
4, 12528, Note_on_c, 1, 63, 64
4, 12573, Note_on_c, 1, 63, 0
4, 12576, Note_on_c, 1, 62, 64
4, 12621, Note_on_c, 1, 62, 0
4, 12624, Note_on_c, 1, 56, 64
4, 12647, Note_on_c, 1, 56, 0
4, 12648, Note_on_c, 1, 58, 64
4, 12671, Note_on_c, 1, 58, 0
4, 12672, Note_on_c, 1, 55, 64
4, 12695, Note_on_c, 1, 55, 0
4, 12696, Note_on_c, 1, 58, 64
4, 12719, Note_on_c, 1, 58, 0
4, 12720, Note_on_c, 1, 53, 64
4, 12743, Note_on_c, 1, 53, 0
4, 12744, Note_on_c, 1, 58, 64
4, 12767, Note_on_c, 1, 58, 0
4, 12768, Note_on_c, 1, 51, 64
4, 12813, Note_on_c, 1, 51, 0
4, 12816, Note_on_c, 1, 63, 64
4, 12839, Note_on_c, 1, 63, 0
4, 12840, Note_on_c, 1, 65, 64
4, 12863, Note_on_c, 1, 65, 0
4, 12864, Note_on_c, 1, 67, 64
4, 12884, Note_on_c, 1, 67, 0
4, 12912, Note_on_c, 1, 63, 64
4, 12935, Note_on_c, 1, 63, 0
4, 12936, Note_on_c, 1, 65, 64
4, 12959, Note_on_c, 1, 65, 0
4, 12960, Note_on_c, 1, 67, 64
4, 12980, Note_on_c, 1, 67, 0
4, 13008, Note_on_c, 1, 63, 64
4, 13031, Note_on_c, 1, 63, 0
4, 13032, Note_on_c, 1, 65, 64
4, 13055, Note_on_c, 1, 65, 0
4, 13056, Note_on_c, 1, 67, 64
4, 13095, Note_on_c, 1, 67, 0
4, 13200, Note_on_c, 1, 67, 64
4, 13223, Note_on_c, 1, 67, 0
4, 13224, Note_on_c, 1, 68, 64
4, 13247, Note_on_c, 1, 68, 0
4, 13248, Note_on_c, 1, 70, 64
4, 13268, Note_on_c, 1, 70, 0
4, 13296, Note_on_c, 1, 67, 64
4, 13319, Note_on_c, 1, 67, 0
4, 13320, Note_on_c, 1, 68, 64
4, 13343, Note_on_c, 1, 68, 0
4, 13344, Note_on_c, 1, 70, 64
4, 13364, Note_on_c, 1, 70, 0
4, 13392, Note_on_c, 1, 67, 64
4, 13415, Note_on_c, 1, 67, 0
4, 13416, Note_on_c, 1, 68, 64
4, 13439, Note_on_c, 1, 68, 0
4, 13440, Note_on_c, 1, 70, 64
4, 13479, Note_on_c, 1, 70, 0
4, 13584, Note_on_c, 1, 63, 64
4, 13607, Note_on_c, 1, 63, 0
4, 13608, Note_on_c, 1, 65, 64
4, 13631, Note_on_c, 1, 65, 0
4, 13632, Note_on_c, 1, 67, 64
4, 13652, Note_on_c, 1, 67, 0
4, 13680, Note_on_c, 1, 63, 64
4, 13703, Note_on_c, 1, 63, 0
4, 13704, Note_on_c, 1, 65, 64
4, 13727, Note_on_c, 1, 65, 0
4, 13728, Note_on_c, 1, 67, 64
4, 13748, Note_on_c, 1, 67, 0
4, 13776, Note_on_c, 1, 63, 64
4, 13799, Note_on_c, 1, 63, 0
4, 13800, Note_on_c, 1, 65, 64
4, 13823, Note_on_c, 1, 65, 0
4, 13824, Note_on_c, 1, 67, 64
4, 13913, Note_on_c, 1, 67, 0
4, 13968, Note_on_c, 1, 55, 64
4, 14013, Note_on_c, 1, 55, 0
4, 14016, Note_on_c, 1, 56, 64
4, 14105, Note_on_c, 1, 56, 0
4, 14160, Note_on_c, 1, 58, 64
4, 14205, Note_on_c, 1, 58, 0
4, 14208, Note_on_c, 1, 60, 64
4, 14297, Note_on_c, 1, 60, 0
4, 14352, Note_on_c, 1, 55, 64
4, 14397, Note_on_c, 1, 55, 0
4, 14400, Note_on_c, 1, 56, 64
4, 14489, Note_on_c, 1, 56, 0
4, 14544, Note_on_c, 1, 58, 64
4, 14589, Note_on_c, 1, 58, 0
4, 14592, Note_on_c, 1, 63, 64
4, 14637, Note_on_c, 1, 63, 0
4, 14640, Note_on_c, 1, 67, 64
4, 14685, Note_on_c, 1, 67, 0
4, 14688, Note_on_c, 1, 70, 64
4, 14733, Note_on_c, 1, 70, 0
4, 14736, Note_on_c, 1, 67, 64
4, 14781, Note_on_c, 1, 67, 0
4, 14784, Note_on_c, 1, 63, 64
4, 15405, Note_on_c, 1, 63, 0
4, 15552, Note_on_c, 1, 63, 64
4, 16320, Note_on_c, 1, 73, 64
4, 16793, Note_on_c, 1, 73, 0
4, 16793, Note_on_c, 1, 63, 0
4, 17136, Note_on_c, 1, 60, 64
4, 17181, Note_on_c, 1, 60, 0
4, 17184, Note_on_c, 1, 58, 64
4, 17229, Note_on_c, 1, 58, 0
4, 17232, Note_on_c, 1, 56, 64
4, 17277, Note_on_c, 1, 56, 0
4, 17280, Note_on_c, 1, 55, 64
4, 17325, Note_on_c, 1, 55, 0
4, 17328, Note_on_c, 1, 51, 64
4, 17373, Note_on_c, 1, 51, 0
4, 17376, Note_on_c, 1, 56, 64
4, 17421, Note_on_c, 1, 56, 0
4, 17424, Note_on_c, 1, 51, 64
4, 17469, Note_on_c, 1, 51, 0
4, 17472, Note_on_c, 1, 58, 64
4, 17517, Note_on_c, 1, 58, 0
4, 17520, Note_on_c, 1, 51, 64
4, 17565, Note_on_c, 1, 51, 0
4, 17568, Note_on_c, 1, 56, 64
4, 17613, Note_on_c, 1, 56, 0
4, 17904, Note_on_c, 1, 60, 64
4, 17949, Note_on_c, 1, 60, 0
4, 17952, Note_on_c, 1, 58, 64
4, 17997, Note_on_c, 1, 58, 0
4, 18000, Note_on_c, 1, 56, 64
4, 18045, Note_on_c, 1, 56, 0
4, 18048, Note_on_c, 1, 61, 64
4, 18093, Note_on_c, 1, 61, 0
4, 18096, Note_on_c, 1, 58, 64
4, 18141, Note_on_c, 1, 58, 0
4, 18144, Note_on_c, 1, 63, 64
4, 18189, Note_on_c, 1, 63, 0
4, 18192, Note_on_c, 1, 51, 64
4, 18237, Note_on_c, 1, 51, 0
4, 18240, Note_on_c, 1, 56, 64
4, 18285, Note_on_c, 1, 56, 0
4, 18288, Note_on_c, 1, 51, 64
4, 18333, Note_on_c, 1, 51, 0
4, 18336, Note_on_c, 1, 44, 64
4, 18381, Note_on_c, 1, 44, 0
4, 18672, Note_on_c, 1, 60, 64
4, 18717, Note_on_c, 1, 60, 0
4, 18720, Note_on_c, 1, 58, 64
4, 18765, Note_on_c, 1, 58, 0
4, 18768, Note_on_c, 1, 56, 64
4, 18813, Note_on_c, 1, 56, 0
4, 18816, Note_on_c, 1, 55, 64
4, 18861, Note_on_c, 1, 55, 0
4, 18864, Note_on_c, 1, 51, 64
4, 18909, Note_on_c, 1, 51, 0
4, 18912, Note_on_c, 1, 56, 64
4, 18957, Note_on_c, 1, 56, 0
4, 18960, Note_on_c, 1, 51, 64
4, 19005, Note_on_c, 1, 51, 0
4, 19008, Note_on_c, 1, 58, 64
4, 19053, Note_on_c, 1, 58, 0
4, 19056, Note_on_c, 1, 51, 64
4, 19101, Note_on_c, 1, 51, 0
4, 19104, Note_on_c, 1, 56, 64
4, 19149, Note_on_c, 1, 56, 0
4, 19440, Note_on_c, 1, 60, 64
4, 19485, Note_on_c, 1, 60, 0
4, 19488, Note_on_c, 1, 58, 64
4, 19533, Note_on_c, 1, 58, 0
4, 19536, Note_on_c, 1, 56, 64
4, 19581, Note_on_c, 1, 56, 0
4, 19584, Note_on_c, 1, 61, 64
4, 19629, Note_on_c, 1, 61, 0
4, 19632, Note_on_c, 1, 58, 64
4, 19677, Note_on_c, 1, 58, 0
4, 19680, Note_on_c, 1, 63, 64
4, 19725, Note_on_c, 1, 63, 0
4, 19728, Note_on_c, 1, 51, 64
4, 19773, Note_on_c, 1, 51, 0
4, 19776, Note_on_c, 1, 56, 64
4, 19821, Note_on_c, 1, 56, 0
4, 19824, Note_on_c, 1, 51, 64
4, 19869, Note_on_c, 1, 51, 0
4, 19872, Note_on_c, 1, 44, 64
4, 19917, Note_on_c, 1, 44, 0
4, 20112, Note_on_c, 1, 74, 64
4, 20112, Note_on_c, 1, 68, 64
4, 20160, Note_on_c, 1, 74, 0
4, 20160, Note_on_c, 1, 68, 0
4, 20160, Note_on_c, 1, 75, 64
4, 20160, Note_on_c, 1, 67, 64
4, 20205, Note_on_c, 1, 75, 0
4, 20205, Note_on_c, 1, 67, 0
4, 20496, Note_on_c, 1, 71, 64
4, 20496, Note_on_c, 1, 65, 64
4, 20544, Note_on_c, 1, 71, 0
4, 20544, Note_on_c, 1, 65, 0
4, 20544, Note_on_c, 1, 72, 64
4, 20544, Note_on_c, 1, 63, 64
4, 20589, Note_on_c, 1, 72, 0
4, 20589, Note_on_c, 1, 63, 0
4, 20880, Note_on_c, 1, 67, 64
4, 20880, Note_on_c, 1, 61, 64
4, 20928, Note_on_c, 1, 67, 0
4, 20928, Note_on_c, 1, 61, 0
4, 20928, Note_on_c, 1, 68, 64
4, 20928, Note_on_c, 1, 60, 64
4, 20973, Note_on_c, 1, 68, 0
4, 20973, Note_on_c, 1, 60, 0
4, 21120, Note_on_c, 1, 68, 64
4, 21120, Note_on_c, 1, 58, 64
4, 21209, Note_on_c, 1, 68, 0
4, 21209, Note_on_c, 1, 58, 0
4, 21312, Note_on_c, 1, 67, 64
4, 21312, Note_on_c, 1, 63, 64
4, 21401, Note_on_c, 1, 67, 0
4, 21401, Note_on_c, 1, 63, 0
4, 21504, Note_on_c, 1, 68, 64
4, 21504, Note_on_c, 1, 58, 64
4, 21593, Note_on_c, 1, 68, 0
4, 21593, Note_on_c, 1, 58, 0
4, 21888, Note_on_c, 1, 39, 64
4, 22125, Note_on_c, 1, 39, 0
4, 22512, Note_on_c, 1, 60, 64
4, 22557, Note_on_c, 1, 60, 0
4, 22560, Note_on_c, 1, 58, 64
4, 22605, Note_on_c, 1, 58, 0
4, 22608, Note_on_c, 1, 56, 64
4, 22653, Note_on_c, 1, 56, 0
4, 22656, Note_on_c, 1, 55, 64
4, 22701, Note_on_c, 1, 55, 0
4, 22704, Note_on_c, 1, 51, 64
4, 22749, Note_on_c, 1, 51, 0
4, 22752, Note_on_c, 1, 56, 64
4, 22797, Note_on_c, 1, 56, 0
4, 22800, Note_on_c, 1, 51, 64
4, 22845, Note_on_c, 1, 51, 0
4, 22848, Note_on_c, 1, 58, 64
4, 22893, Note_on_c, 1, 58, 0
4, 22896, Note_on_c, 1, 51, 64
4, 22941, Note_on_c, 1, 51, 0
4, 22944, Note_on_c, 1, 56, 64
4, 22989, Note_on_c, 1, 56, 0
4, 23280, Note_on_c, 1, 60, 64
4, 23325, Note_on_c, 1, 60, 0
4, 23328, Note_on_c, 1, 58, 64
4, 23373, Note_on_c, 1, 58, 0
4, 23376, Note_on_c, 1, 56, 64
4, 23421, Note_on_c, 1, 56, 0
4, 23424, Note_on_c, 1, 61, 64
4, 23469, Note_on_c, 1, 61, 0
4, 23472, Note_on_c, 1, 58, 64
4, 23517, Note_on_c, 1, 58, 0
4, 23520, Note_on_c, 1, 63, 64
4, 23565, Note_on_c, 1, 63, 0
4, 23568, Note_on_c, 1, 51, 64
4, 23613, Note_on_c, 1, 51, 0
4, 23616, Note_on_c, 1, 56, 64
4, 23661, Note_on_c, 1, 56, 0
4, 23664, Note_on_c, 1, 51, 64
4, 23709, Note_on_c, 1, 51, 0
4, 23712, Note_on_c, 1, 44, 64
4, 23757, Note_on_c, 1, 44, 0
4, 23952, Note_on_c, 1, 74, 64
4, 23952, Note_on_c, 1, 68, 64
4, 24000, Note_on_c, 1, 74, 0
4, 24000, Note_on_c, 1, 68, 0
4, 24000, Note_on_c, 1, 75, 64
4, 24000, Note_on_c, 1, 67, 64
4, 24045, Note_on_c, 1, 75, 0
4, 24045, Note_on_c, 1, 67, 0
4, 24336, Note_on_c, 1, 71, 64
4, 24336, Note_on_c, 1, 65, 64
4, 24384, Note_on_c, 1, 71, 0
4, 24384, Note_on_c, 1, 65, 0
4, 24384, Note_on_c, 1, 72, 64
4, 24384, Note_on_c, 1, 63, 64
4, 24429, Note_on_c, 1, 72, 0
4, 24429, Note_on_c, 1, 63, 0
4, 24720, Note_on_c, 1, 67, 64
4, 24720, Note_on_c, 1, 61, 64
4, 24768, Note_on_c, 1, 67, 0
4, 24768, Note_on_c, 1, 61, 0
4, 24768, Note_on_c, 1, 68, 64
4, 24768, Note_on_c, 1, 60, 64
4, 24813, Note_on_c, 1, 68, 0
4, 24813, Note_on_c, 1, 60, 0
4, 24960, Note_on_c, 1, 68, 64
4, 24960, Note_on_c, 1, 58, 64
4, 25049, Note_on_c, 1, 68, 0
4, 25049, Note_on_c, 1, 58, 0
4, 25152, Note_on_c, 1, 67, 64
4, 25152, Note_on_c, 1, 63, 64
4, 25241, Note_on_c, 1, 67, 0
4, 25241, Note_on_c, 1, 63, 0
4, 25344, Note_on_c, 1, 68, 64
4, 25344, Note_on_c, 1, 58, 64
4, 25433, Note_on_c, 1, 68, 0
4, 25433, Note_on_c, 1, 58, 0
4, 25728, Note_on_c, 1, 39, 64
4, 25965, Note_on_c, 1, 39, 0
4, 26352, Note_on_c, 1, 60, 64
4, 26397, Note_on_c, 1, 60, 0
4, 26400, Note_on_c, 1, 58, 64
4, 26445, Note_on_c, 1, 58, 0
4, 26448, Note_on_c, 1, 56, 64
4, 26493, Note_on_c, 1, 56, 0
4, 26496, Note_on_c, 1, 55, 64
4, 26541, Note_on_c, 1, 55, 0
4, 26544, Note_on_c, 1, 51, 64
4, 26589, Note_on_c, 1, 51, 0
4, 26592, Note_on_c, 1, 56, 64
4, 26637, Note_on_c, 1, 56, 0
4, 26640, Note_on_c, 1, 51, 64
4, 26685, Note_on_c, 1, 51, 0
4, 26688, Note_on_c, 1, 58, 64
4, 26733, Note_on_c, 1, 58, 0
4, 26736, Note_on_c, 1, 51, 64
4, 26781, Note_on_c, 1, 51, 0
4, 26784, Note_on_c, 1, 56, 64
4, 26829, Note_on_c, 1, 56, 0
4, 27120, Note_on_c, 1, 60, 64
4, 27165, Note_on_c, 1, 60, 0
4, 27168, Note_on_c, 1, 58, 64
4, 27213, Note_on_c, 1, 58, 0
4, 27216, Note_on_c, 1, 56, 64
4, 27261, Note_on_c, 1, 56, 0
4, 27264, Note_on_c, 1, 61, 64
4, 27309, Note_on_c, 1, 61, 0
4, 27312, Note_on_c, 1, 58, 64
4, 27357, Note_on_c, 1, 58, 0
4, 27360, Note_on_c, 1, 63, 64
4, 27405, Note_on_c, 1, 63, 0
4, 27408, Note_on_c, 1, 51, 64
4, 27453, Note_on_c, 1, 51, 0
4, 27456, Note_on_c, 1, 56, 64
4, 27501, Note_on_c, 1, 56, 0
4, 27504, Note_on_c, 1, 51, 64
4, 27549, Note_on_c, 1, 51, 0
4, 27552, Note_on_c, 1, 44, 64
4, 27597, Note_on_c, 1, 44, 0
4, 27648, Note_on_c, 1, 68, 64
4, 27693, Note_on_c, 1, 68, 0
4, 27696, Note_on_c, 1, 67, 64
4, 27741, Note_on_c, 1, 67, 0
4, 27744, Note_on_c, 1, 68, 64
4, 27789, Note_on_c, 1, 68, 0
4, 27792, Note_on_c, 1, 65, 64
4, 27837, Note_on_c, 1, 65, 0
4, 27840, Note_on_c, 1, 64, 64
4, 27929, Note_on_c, 1, 64, 0
4, 28032, Note_on_c, 1, 65, 64
4, 28077, Note_on_c, 1, 65, 0
4, 28080, Note_on_c, 1, 67, 64
4, 28125, Note_on_c, 1, 67, 0
4, 28128, Note_on_c, 1, 68, 64
4, 28173, Note_on_c, 1, 68, 0
4, 28224, Note_on_c, 1, 60, 64
4, 28269, Note_on_c, 1, 60, 0
4, 28272, Note_on_c, 1, 62, 64
4, 28317, Note_on_c, 1, 62, 0
4, 28320, Note_on_c, 1, 64, 64
4, 28365, Note_on_c, 1, 64, 0
4, 28608, Note_on_c, 1, 60, 64
4, 28608, Note_on_c, 1, 55, 64
4, 28608, Note_on_c, 1, 52, 64
4, 28785, Note_on_c, 1, 60, 0
4, 28785, Note_on_c, 1, 55, 0
4, 28785, Note_on_c, 1, 52, 0
4, 28800, Note_on_c, 1, 60, 64
4, 28800, Note_on_c, 1, 53, 64
4, 28889, Note_on_c, 1, 60, 0
4, 28889, Note_on_c, 1, 53, 0
4, 28896, Note_on_c, 1, 60, 64
4, 28896, Note_on_c, 1, 48, 64
4, 28985, Note_on_c, 1, 60, 0
4, 28985, Note_on_c, 1, 48, 0
4, 28992, Note_on_c, 1, 53, 64
4, 28992, Note_on_c, 1, 41, 64
4, 29081, Note_on_c, 1, 53, 0
4, 29081, Note_on_c, 1, 41, 0
4, 29184, Note_on_c, 1, 68, 64
4, 29229, Note_on_c, 1, 68, 0
4, 29232, Note_on_c, 1, 67, 64
4, 29277, Note_on_c, 1, 67, 0
4, 29280, Note_on_c, 1, 68, 64
4, 29325, Note_on_c, 1, 68, 0
4, 29328, Note_on_c, 1, 65, 64
4, 29373, Note_on_c, 1, 65, 0
4, 29376, Note_on_c, 1, 64, 64
4, 29465, Note_on_c, 1, 64, 0
4, 29568, Note_on_c, 1, 65, 64
4, 29613, Note_on_c, 1, 65, 0
4, 29616, Note_on_c, 1, 67, 64
4, 29661, Note_on_c, 1, 67, 0
4, 29664, Note_on_c, 1, 68, 64
4, 29709, Note_on_c, 1, 68, 0
4, 29760, Note_on_c, 1, 60, 64
4, 29805, Note_on_c, 1, 60, 0
4, 29808, Note_on_c, 1, 62, 64
4, 29853, Note_on_c, 1, 62, 0
4, 29856, Note_on_c, 1, 64, 64
4, 29901, Note_on_c, 1, 64, 0
4, 30144, Note_on_c, 1, 60, 64
4, 30144, Note_on_c, 1, 55, 64
4, 30144, Note_on_c, 1, 52, 64
4, 30321, Note_on_c, 1, 60, 0
4, 30321, Note_on_c, 1, 55, 0
4, 30321, Note_on_c, 1, 52, 0
4, 30336, Note_on_c, 1, 60, 64
4, 30336, Note_on_c, 1, 53, 64
4, 30425, Note_on_c, 1, 60, 0
4, 30425, Note_on_c, 1, 53, 0
4, 30432, Note_on_c, 1, 60, 64
4, 30432, Note_on_c, 1, 48, 64
4, 30521, Note_on_c, 1, 60, 0
4, 30521, Note_on_c, 1, 48, 0
4, 30528, Note_on_c, 1, 53, 64
4, 30528, Note_on_c, 1, 41, 64
4, 30617, Note_on_c, 1, 53, 0
4, 30617, Note_on_c, 1, 41, 0
4, 30720, Note_on_c, 1, 64, 64
4, 30743, Note_on_c, 1, 64, 0
4, 30744, Note_on_c, 1, 72, 64
4, 30767, Note_on_c, 1, 72, 0
4, 30768, Note_on_c, 1, 64, 64
4, 30791, Note_on_c, 1, 64, 0
4, 30792, Note_on_c, 1, 72, 64
4, 30815, Note_on_c, 1, 72, 0
4, 30816, Note_on_c, 1, 65, 64
4, 30839, Note_on_c, 1, 65, 0
4, 30840, Note_on_c, 1, 72, 64
4, 30863, Note_on_c, 1, 72, 0
4, 30864, Note_on_c, 1, 65, 64
4, 30887, Note_on_c, 1, 65, 0
4, 30888, Note_on_c, 1, 72, 64
4, 30911, Note_on_c, 1, 72, 0
4, 30912, Note_on_c, 1, 60, 64
4, 30935, Note_on_c, 1, 60, 0
4, 30936, Note_on_c, 1, 72, 64
4, 30959, Note_on_c, 1, 72, 0
4, 30960, Note_on_c, 1, 62, 64
4, 30983, Note_on_c, 1, 62, 0
4, 30984, Note_on_c, 1, 72, 64
4, 31007, Note_on_c, 1, 72, 0
4, 31008, Note_on_c, 1, 64, 64
4, 31053, Note_on_c, 1, 64, 0
4, 31104, Note_on_c, 1, 64, 64
4, 31127, Note_on_c, 1, 64, 0
4, 31128, Note_on_c, 1, 72, 64
4, 31151, Note_on_c, 1, 72, 0
4, 31152, Note_on_c, 1, 64, 64
4, 31175, Note_on_c, 1, 64, 0
4, 31176, Note_on_c, 1, 72, 64
4, 31199, Note_on_c, 1, 72, 0
4, 31200, Note_on_c, 1, 65, 64
4, 31223, Note_on_c, 1, 65, 0
4, 31224, Note_on_c, 1, 72, 64
4, 31247, Note_on_c, 1, 72, 0
4, 31248, Note_on_c, 1, 65, 64
4, 31271, Note_on_c, 1, 65, 0
4, 31272, Note_on_c, 1, 72, 64
4, 31295, Note_on_c, 1, 72, 0
4, 31296, Note_on_c, 1, 60, 64
4, 31319, Note_on_c, 1, 60, 0
4, 31320, Note_on_c, 1, 64, 64
4, 31343, Note_on_c, 1, 64, 0
4, 31344, Note_on_c, 1, 67, 64
4, 31367, Note_on_c, 1, 67, 0
4, 31368, Note_on_c, 1, 72, 64
4, 31391, Note_on_c, 1, 72, 0
4, 31392, Note_on_c, 1, 60, 64
4, 31437, Note_on_c, 1, 60, 0
4, 31488, Note_on_c, 1, 64, 64
4, 31511, Note_on_c, 1, 64, 0
4, 31512, Note_on_c, 1, 72, 64
4, 31535, Note_on_c, 1, 72, 0
4, 31536, Note_on_c, 1, 64, 64
4, 31559, Note_on_c, 1, 64, 0
4, 31560, Note_on_c, 1, 72, 64
4, 31583, Note_on_c, 1, 72, 0
4, 31584, Note_on_c, 1, 65, 64
4, 31607, Note_on_c, 1, 65, 0
4, 31608, Note_on_c, 1, 72, 64
4, 31631, Note_on_c, 1, 72, 0
4, 31632, Note_on_c, 1, 65, 64
4, 31655, Note_on_c, 1, 65, 0
4, 31656, Note_on_c, 1, 72, 64
4, 31679, Note_on_c, 1, 72, 0
4, 31680, Note_on_c, 1, 60, 64
4, 31703, Note_on_c, 1, 60, 0
4, 31704, Note_on_c, 1, 72, 64
4, 31727, Note_on_c, 1, 72, 0
4, 31728, Note_on_c, 1, 62, 64
4, 31751, Note_on_c, 1, 62, 0
4, 31752, Note_on_c, 1, 72, 64
4, 31775, Note_on_c, 1, 72, 0
4, 31776, Note_on_c, 1, 64, 64
4, 31821, Note_on_c, 1, 64, 0
4, 31872, Note_on_c, 1, 64, 64
4, 31895, Note_on_c, 1, 64, 0
4, 31896, Note_on_c, 1, 72, 64
4, 31919, Note_on_c, 1, 72, 0
4, 31920, Note_on_c, 1, 64, 64
4, 31943, Note_on_c, 1, 64, 0
4, 31944, Note_on_c, 1, 72, 64
4, 31967, Note_on_c, 1, 72, 0
4, 31968, Note_on_c, 1, 65, 64
4, 31991, Note_on_c, 1, 65, 0
4, 31992, Note_on_c, 1, 72, 64
4, 32015, Note_on_c, 1, 72, 0
4, 32016, Note_on_c, 1, 65, 64
4, 32039, Note_on_c, 1, 65, 0
4, 32040, Note_on_c, 1, 72, 64
4, 32063, Note_on_c, 1, 72, 0
4, 32064, Note_on_c, 1, 60, 64
4, 32153, Note_on_c, 1, 60, 0
4, 32208, Note_on_c, 1, 80, 64
4, 32253, Note_on_c, 1, 80, 0
4, 32256, Note_on_c, 1, 82, 64
4, 32301, Note_on_c, 1, 82, 0
4, 32304, Note_on_c, 1, 80, 64
4, 32349, Note_on_c, 1, 80, 0
4, 32352, Note_on_c, 1, 79, 64
4, 32397, Note_on_c, 1, 79, 0
4, 32400, Note_on_c, 1, 77, 64
4, 32445, Note_on_c, 1, 77, 0
4, 32448, Note_on_c, 1, 76, 64
4, 32537, Note_on_c, 1, 76, 0
4, 32592, Note_on_c, 1, 68, 64
4, 32615, Note_on_c, 1, 68, 0
4, 32640, Note_on_c, 1, 70, 64
4, 32663, Note_on_c, 1, 70, 0
4, 32688, Note_on_c, 1, 68, 64
4, 32711, Note_on_c, 1, 68, 0
4, 32736, Note_on_c, 1, 67, 64
4, 32759, Note_on_c, 1, 67, 0
4, 32784, Note_on_c, 1, 65, 64
4, 32807, Note_on_c, 1, 65, 0
4, 32832, Note_on_c, 1, 64, 64
4, 32832, Note_on_c, 1, 60, 64
4, 32921, Note_on_c, 1, 64, 0
4, 32921, Note_on_c, 1, 60, 0
4, 33024, Note_on_c, 1, 65, 64
4, 33024, Note_on_c, 1, 60, 64
4, 33113, Note_on_c, 1, 65, 0
4, 33113, Note_on_c, 1, 60, 0
4, 33216, Note_on_c, 1, 64, 64
4, 33216, Note_on_c, 1, 60, 64
4, 33305, Note_on_c, 1, 64, 0
4, 33305, Note_on_c, 1, 60, 0
4, 33408, Note_on_c, 1, 65, 64
4, 33408, Note_on_c, 1, 60, 64
4, 33497, Note_on_c, 1, 65, 0
4, 33497, Note_on_c, 1, 60, 0
4, 33600, Note_on_c, 1, 64, 64
4, 33600, Note_on_c, 1, 60, 64
4, 33689, Note_on_c, 1, 64, 0
4, 33689, Note_on_c, 1, 60, 0
4, 33792, Control_c, 1, 64, 127
4, 33792, Note_on_c, 1, 62, 80
4, 33792, Note_on_c, 1, 59, 80
4, 33881, Note_on_c, 1, 62, 0
4, 33881, Note_on_c, 1, 59, 0
4, 34368, Control_c, 1, 64, 0
4, 34560, Control_c, 1, 64, 127
4, 34560, Note_on_c, 1, 46, 96
4, 34560, Note_on_c, 1, 34, 96
4, 34656, Note_on_c, 1, 46, 0
4, 34656, Note_on_c, 1, 34, 0
4, 34944, Control_c, 1, 64, 0
4, 34944, Note_on_c, 1, 43, 96
4, 34944, Note_on_c, 1, 31, 96
4, 35040, Note_on_c, 1, 43, 0
4, 35040, Note_on_c, 1, 31, 0
4, 35040, Control_c, 1, 64, 127
4, 35520, Control_c, 1, 64, 0
4, 35952, Note_on_c, 1, 60, 75
4, 35997, Note_on_c, 1, 60, 0
4, 36000, Note_on_c, 1, 58, 75
4, 36045, Note_on_c, 1, 58, 0
4, 36048, Note_on_c, 1, 56, 75
4, 36093, Note_on_c, 1, 56, 0
4, 36096, Note_on_c, 1, 55, 75
4, 36141, Note_on_c, 1, 55, 0
4, 36144, Note_on_c, 1, 51, 75
4, 36189, Note_on_c, 1, 51, 0
4, 36192, Note_on_c, 1, 56, 75
4, 36237, Note_on_c, 1, 56, 0
4, 36240, Note_on_c, 1, 51, 75
4, 36285, Note_on_c, 1, 51, 0
4, 36288, Note_on_c, 1, 58, 75
4, 36333, Note_on_c, 1, 58, 0
4, 36336, Note_on_c, 1, 51, 75
4, 36381, Note_on_c, 1, 51, 0
4, 36384, Note_on_c, 1, 56, 75
4, 36429, Note_on_c, 1, 56, 0
4, 36720, Note_on_c, 1, 60, 75
4, 36765, Note_on_c, 1, 60, 0
4, 36768, Note_on_c, 1, 58, 75
4, 36813, Note_on_c, 1, 58, 0
4, 36816, Note_on_c, 1, 56, 75
4, 36861, Note_on_c, 1, 56, 0
4, 36864, Note_on_c, 1, 61, 75
4, 36909, Note_on_c, 1, 61, 0
4, 36912, Note_on_c, 1, 58, 75
4, 36957, Note_on_c, 1, 58, 0
4, 36960, Note_on_c, 1, 63, 75
4, 37005, Note_on_c, 1, 63, 0
4, 37008, Note_on_c, 1, 51, 75
4, 37053, Note_on_c, 1, 51, 0
4, 37056, Note_on_c, 1, 56, 75
4, 37101, Note_on_c, 1, 56, 0
4, 37104, Note_on_c, 1, 51, 75
4, 37149, Note_on_c, 1, 51, 0
4, 37152, Note_on_c, 1, 44, 75
4, 37197, Note_on_c, 1, 44, 0
4, 37392, Note_on_c, 1, 68, 75
4, 37440, Note_on_c, 1, 68, 0
4, 37440, Note_on_c, 1, 67, 75
4, 37529, Note_on_c, 1, 67, 0
4, 37776, Note_on_c, 1, 65, 75
4, 37824, Note_on_c, 1, 65, 0
4, 37824, Note_on_c, 1, 63, 75
4, 37913, Note_on_c, 1, 63, 0
4, 38160, Note_on_c, 1, 61, 75
4, 38208, Note_on_c, 1, 61, 0
4, 38208, Note_on_c, 1, 60, 75
4, 38297, Note_on_c, 1, 60, 0
4, 38400, Note_on_c, 1, 68, 75
4, 38400, Note_on_c, 1, 58, 75
4, 38489, Note_on_c, 1, 68, 0
4, 38489, Note_on_c, 1, 58, 0
4, 38592, Note_on_c, 1, 67, 75
4, 38592, Note_on_c, 1, 63, 75
4, 38681, Note_on_c, 1, 67, 0
4, 38681, Note_on_c, 1, 63, 0
4, 38784, Note_on_c, 1, 68, 75
4, 38784, Note_on_c, 1, 58, 75
4, 38873, Note_on_c, 1, 68, 0
4, 38873, Note_on_c, 1, 58, 0
4, 38976, Note_on_c, 1, 67, 75
4, 38976, Note_on_c, 1, 63, 75
4, 39065, Note_on_c, 1, 67, 0
4, 39065, Note_on_c, 1, 63, 0
4, 39168, Note_on_c, 1, 68, 75
4, 39168, Note_on_c, 1, 58, 75
4, 39257, Note_on_c, 1, 68, 0
4, 39257, Note_on_c, 1, 58, 0
4, 39360, Note_on_c, 1, 67, 75
4, 39360, Note_on_c, 1, 63, 75
4, 39449, Note_on_c, 1, 67, 0
4, 39449, Note_on_c, 1, 63, 0
4, 39600, Note_on_c, 1, 51, 75
4, 39645, Note_on_c, 1, 51, 0
4, 39648, Note_on_c, 1, 55, 75
4, 39693, Note_on_c, 1, 55, 0
4, 39696, Note_on_c, 1, 58, 75
4, 39741, Note_on_c, 1, 58, 0
4, 39744, Note_on_c, 1, 63, 75
4, 39833, Note_on_c, 1, 63, 0
4, 40560, Note_on_c, 1, 60, 75
4, 40605, Note_on_c, 1, 60, 0
4, 40608, Note_on_c, 1, 58, 75
4, 40653, Note_on_c, 1, 58, 0
4, 40656, Note_on_c, 1, 56, 75
4, 40701, Note_on_c, 1, 56, 0
4, 40704, Note_on_c, 1, 55, 75
4, 40749, Note_on_c, 1, 55, 0
4, 40752, Note_on_c, 1, 51, 75
4, 40797, Note_on_c, 1, 51, 0
4, 40800, Note_on_c, 1, 56, 75
4, 40845, Note_on_c, 1, 56, 0
4, 40848, Note_on_c, 1, 51, 75
4, 40893, Note_on_c, 1, 51, 0
4, 40896, Note_on_c, 1, 58, 75
4, 40941, Note_on_c, 1, 58, 0
4, 40944, Note_on_c, 1, 51, 75
4, 40989, Note_on_c, 1, 51, 0
4, 40992, Note_on_c, 1, 56, 75
4, 41037, Note_on_c, 1, 56, 0
4, 41328, Note_on_c, 1, 60, 75
4, 41373, Note_on_c, 1, 60, 0
4, 41376, Note_on_c, 1, 58, 75
4, 41421, Note_on_c, 1, 58, 0
4, 41424, Note_on_c, 1, 56, 75
4, 41469, Note_on_c, 1, 56, 0
4, 41472, Note_on_c, 1, 61, 75
4, 41517, Note_on_c, 1, 61, 0
4, 41520, Note_on_c, 1, 58, 75
4, 41565, Note_on_c, 1, 58, 0
4, 41568, Note_on_c, 1, 63, 75
4, 41613, Note_on_c, 1, 63, 0
4, 41616, Note_on_c, 1, 51, 75
4, 41661, Note_on_c, 1, 51, 0
4, 41664, Note_on_c, 1, 56, 75
4, 41709, Note_on_c, 1, 56, 0
4, 41712, Note_on_c, 1, 51, 75
4, 41757, Note_on_c, 1, 51, 0
4, 41760, Note_on_c, 1, 44, 75
4, 41805, Note_on_c, 1, 44, 0
4, 42000, Note_on_c, 1, 68, 75
4, 42048, Note_on_c, 1, 68, 0
4, 42048, Note_on_c, 1, 67, 75
4, 42137, Note_on_c, 1, 67, 0
4, 42384, Note_on_c, 1, 65, 75
4, 42432, Note_on_c, 1, 65, 0
4, 42432, Note_on_c, 1, 63, 75
4, 42521, Note_on_c, 1, 63, 0
4, 42768, Note_on_c, 1, 61, 75
4, 42816, Note_on_c, 1, 61, 0
4, 42816, Note_on_c, 1, 60, 75
4, 42905, Note_on_c, 1, 60, 0
4, 43008, Note_on_c, 1, 68, 75
4, 43008, Note_on_c, 1, 58, 75
4, 43097, Note_on_c, 1, 68, 0
4, 43097, Note_on_c, 1, 58, 0
4, 43200, Note_on_c, 1, 67, 75
4, 43200, Note_on_c, 1, 63, 75
4, 43289, Note_on_c, 1, 67, 0
4, 43289, Note_on_c, 1, 63, 0
4, 43392, Note_on_c, 1, 68, 75
4, 43392, Note_on_c, 1, 58, 75
4, 43481, Note_on_c, 1, 68, 0
4, 43481, Note_on_c, 1, 58, 0
4, 43584, Note_on_c, 1, 67, 75
4, 43584, Note_on_c, 1, 63, 75
4, 43673, Note_on_c, 1, 67, 0
4, 43673, Note_on_c, 1, 63, 0
4, 43776, Note_on_c, 1, 68, 75
4, 43776, Note_on_c, 1, 58, 75
4, 43865, Note_on_c, 1, 68, 0
4, 43865, Note_on_c, 1, 58, 0
4, 43968, Note_on_c, 1, 67, 75
4, 43968, Note_on_c, 1, 63, 75
4, 44057, Note_on_c, 1, 67, 0
4, 44057, Note_on_c, 1, 63, 0
4, 44208, Note_on_c, 1, 51, 75
4, 44253, Note_on_c, 1, 51, 0
4, 44256, Note_on_c, 1, 55, 75
4, 44301, Note_on_c, 1, 55, 0
4, 44304, Note_on_c, 1, 58, 75
4, 44349, Note_on_c, 1, 58, 0
4, 44352, Note_on_c, 1, 63, 75
4, 44441, Note_on_c, 1, 63, 0
4, 45168, Note_on_c, 1, 60, 75
4, 45213, Note_on_c, 1, 60, 0
4, 45216, Note_on_c, 1, 58, 75
4, 45261, Note_on_c, 1, 58, 0
4, 45264, Note_on_c, 1, 56, 75
4, 45309, Note_on_c, 1, 56, 0
4, 45312, Note_on_c, 1, 55, 75
4, 45357, Note_on_c, 1, 55, 0
4, 45360, Note_on_c, 1, 51, 75
4, 45405, Note_on_c, 1, 51, 0
4, 45408, Note_on_c, 1, 56, 75
4, 45453, Note_on_c, 1, 56, 0
4, 45456, Note_on_c, 1, 51, 75
4, 45501, Note_on_c, 1, 51, 0
4, 45504, Note_on_c, 1, 58, 75
4, 45549, Note_on_c, 1, 58, 0
4, 45552, Note_on_c, 1, 51, 75
4, 45597, Note_on_c, 1, 51, 0
4, 45600, Note_on_c, 1, 56, 75
4, 45645, Note_on_c, 1, 56, 0
4, 45936, Note_on_c, 1, 60, 75
4, 45981, Note_on_c, 1, 60, 0
4, 45984, Note_on_c, 1, 58, 75
4, 46029, Note_on_c, 1, 58, 0
4, 46032, Note_on_c, 1, 56, 75
4, 46077, Note_on_c, 1, 56, 0
4, 46080, Note_on_c, 1, 61, 75
4, 46125, Note_on_c, 1, 61, 0
4, 46128, Note_on_c, 1, 58, 75
4, 46173, Note_on_c, 1, 58, 0
4, 46176, Note_on_c, 1, 63, 75
4, 46221, Note_on_c, 1, 63, 0
4, 46224, Note_on_c, 1, 51, 75
4, 46269, Note_on_c, 1, 51, 0
4, 46272, Note_on_c, 1, 56, 75
4, 46317, Note_on_c, 1, 56, 0
4, 46320, Note_on_c, 1, 44, 75
4, 46365, Note_on_c, 1, 44, 0
4, 46368, Note_on_c, 1, 61, 64
4, 46368, Note_on_c, 1, 56, 64
4, 46413, Note_on_c, 1, 61, 0
4, 46413, Note_on_c, 1, 56, 0
4, 46416, Note_on_c, 1, 61, 64
4, 46416, Note_on_c, 1, 56, 64
4, 46461, Note_on_c, 1, 61, 0
4, 46461, Note_on_c, 1, 56, 0
4, 46464, Note_on_c, 1, 60, 64
4, 46464, Note_on_c, 1, 56, 64
4, 46509, Note_on_c, 1, 60, 0
4, 46509, Note_on_c, 1, 56, 0
4, 46512, Note_on_c, 1, 60, 64
4, 46512, Note_on_c, 1, 56, 64
4, 46557, Note_on_c, 1, 60, 0
4, 46557, Note_on_c, 1, 56, 0
4, 46560, Note_on_c, 1, 65, 64
4, 46560, Note_on_c, 1, 56, 64
4, 46605, Note_on_c, 1, 65, 0
4, 46605, Note_on_c, 1, 56, 0
4, 46608, Note_on_c, 1, 65, 64
4, 46608, Note_on_c, 1, 56, 64
4, 46653, Note_on_c, 1, 65, 0
4, 46653, Note_on_c, 1, 56, 0
4, 46656, Note_on_c, 1, 63, 64
4, 46656, Note_on_c, 1, 56, 64
4, 46701, Note_on_c, 1, 63, 0
4, 46701, Note_on_c, 1, 56, 0
4, 46704, Note_on_c, 1, 63, 64
4, 46704, Note_on_c, 1, 56, 64
4, 46749, Note_on_c, 1, 63, 0
4, 46749, Note_on_c, 1, 56, 0
4, 46752, Note_on_c, 1, 61, 64
4, 46752, Note_on_c, 1, 56, 64
4, 46797, Note_on_c, 1, 61, 0
4, 46797, Note_on_c, 1, 56, 0
4, 46800, Note_on_c, 1, 61, 64
4, 46800, Note_on_c, 1, 56, 64
4, 46845, Note_on_c, 1, 61, 0
4, 46845, Note_on_c, 1, 56, 0
4, 46848, Note_on_c, 1, 60, 64
4, 46848, Note_on_c, 1, 56, 64
4, 46893, Note_on_c, 1, 60, 0
4, 46893, Note_on_c, 1, 56, 0
4, 47040, Note_on_c, 1, 58, 75
4, 47040, Note_on_c, 1, 50, 75
4, 47129, Note_on_c, 1, 58, 0
4, 47129, Note_on_c, 1, 50, 0
4, 47232, Note_on_c, 1, 58, 75
4, 47232, Note_on_c, 1, 50, 75
4, 47321, Note_on_c, 1, 58, 0
4, 47321, Note_on_c, 1, 50, 0
4, 47424, Note_on_c, 1, 51, 75
4, 47469, Note_on_c, 1, 51, 0
4, 47472, Note_on_c, 1, 53, 75
4, 47517, Note_on_c, 1, 53, 0
4, 47520, Note_on_c, 1, 55, 75
4, 47565, Note_on_c, 1, 55, 0
4, 47568, Note_on_c, 1, 56, 75
4, 47613, Note_on_c, 1, 56, 0
4, 47616, Note_on_c, 1, 58, 75
4, 47661, Note_on_c, 1, 58, 0
4, 47664, Note_on_c, 1, 56, 75
4, 47709, Note_on_c, 1, 56, 0
4, 47712, Note_on_c, 1, 58, 75
4, 47757, Note_on_c, 1, 58, 0
4, 47760, Note_on_c, 1, 55, 75
4, 47805, Note_on_c, 1, 55, 0
4, 47808, Note_on_c, 1, 56, 75
4, 47853, Note_on_c, 1, 56, 0
4, 47856, Note_on_c, 1, 58, 75
4, 47901, Note_on_c, 1, 58, 0
4, 47904, Note_on_c, 1, 60, 76
4, 47949, Note_on_c, 1, 60, 0
4, 47952, Note_on_c, 1, 61, 76
4, 47997, Note_on_c, 1, 61, 0
4, 48000, Note_on_c, 1, 63, 77
4, 48045, Note_on_c, 1, 63, 0
4, 48048, Note_on_c, 1, 61, 78
4, 48093, Note_on_c, 1, 61, 0
4, 48096, Note_on_c, 1, 63, 78
4, 48141, Note_on_c, 1, 63, 0
4, 48144, Note_on_c, 1, 60, 79
4, 48189, Note_on_c, 1, 60, 0
4, 48192, Note_on_c, 1, 61, 80
4, 48281, Note_on_c, 1, 61, 0
4, 48384, Note_on_c, 1, 68, 80
4, 48429, Note_on_c, 1, 68, 0
4, 48480, Note_on_c, 1, 69, 80
4, 48525, Note_on_c, 1, 69, 0
4, 48576, Note_on_c, 1, 70, 80
4, 48665, Note_on_c, 1, 70, 0
4, 48768, Note_on_c, 1, 65, 80
4, 48813, Note_on_c, 1, 65, 0
4, 48864, Note_on_c, 1, 65, 80
4, 48909, Note_on_c, 1, 65, 0
4, 48960, Note_on_c, 1, 66, 80
4, 49005, Note_on_c, 1, 66, 0
4, 49056, Note_on_c, 1, 63, 80
4, 49101, Note_on_c, 1, 63, 0
4, 49152, Note_on_c, 1, 60, 80
4, 49197, Note_on_c, 1, 60, 0
4, 49248, Note_on_c, 1, 61, 80
4, 49293, Note_on_c, 1, 61, 0
4, 49344, Note_on_c, 1, 58, 80
4, 49389, Note_on_c, 1, 58, 0
4, 49440, Note_on_c, 1, 60, 80
4, 49485, Note_on_c, 1, 60, 0
4, 49536, Note_on_c, 1, 57, 80
4, 49581, Note_on_c, 1, 57, 0
4, 49632, Note_on_c, 1, 58, 80
4, 49677, Note_on_c, 1, 58, 0
4, 49728, Note_on_c, 1, 55, 80
4, 49773, Note_on_c, 1, 55, 0
4, 49824, Note_on_c, 1, 56, 80
4, 49869, Note_on_c, 1, 56, 0
4, 49920, Note_on_c, 1, 53, 80
4, 49965, Note_on_c, 1, 53, 0
4, 50016, Note_on_c, 1, 56, 80
4, 50061, Note_on_c, 1, 56, 0
4, 50112, Note_on_c, 1, 59, 80
4, 50157, Note_on_c, 1, 59, 0
4, 50208, Note_on_c, 1, 56, 80
4, 50253, Note_on_c, 1, 56, 0
4, 50304, Note_on_c, 1, 53, 80
4, 50349, Note_on_c, 1, 53, 0
4, 50400, Note_on_c, 1, 56, 80
4, 50445, Note_on_c, 1, 56, 0
4, 50496, Note_on_c, 1, 59, 80
4, 50541, Note_on_c, 1, 59, 0
4, 50592, Note_on_c, 1, 56, 80
4, 50637, Note_on_c, 1, 56, 0
4, 50688, Note_on_c, 1, 51, 80
4, 50688, Note_on_c, 1, 39, 80
4, 50733, Note_on_c, 1, 51, 0
4, 50733, Note_on_c, 1, 39, 0
4, 50784, Note_on_c, 1, 55, 80
4, 50829, Note_on_c, 1, 55, 0
4, 50880, Note_on_c, 1, 58, 80
4, 50925, Note_on_c, 1, 58, 0
4, 50976, Note_on_c, 1, 55, 80
4, 51021, Note_on_c, 1, 55, 0
4, 51072, Note_on_c, 1, 51, 80
4, 51072, Note_on_c, 1, 39, 80
4, 51117, Note_on_c, 1, 51, 0
4, 51117, Note_on_c, 1, 39, 0
4, 51168, Note_on_c, 1, 55, 80
4, 51213, Note_on_c, 1, 55, 0
4, 51264, Note_on_c, 1, 58, 80
4, 51309, Note_on_c, 1, 58, 0
4, 51360, Note_on_c, 1, 55, 80
4, 51405, Note_on_c, 1, 55, 0
4, 51456, Note_on_c, 1, 51, 80
4, 51456, Note_on_c, 1, 39, 80
4, 51693, Note_on_c, 1, 51, 0
4, 51693, Note_on_c, 1, 39, 0
4, 51696, Control_c, 1, 64, 0
4, 52080, Note_on_c, 1, 48, 80
4, 52125, Note_on_c, 1, 48, 0
4, 52128, Note_on_c, 1, 46, 80
4, 52173, Note_on_c, 1, 46, 0
4, 52176, Note_on_c, 1, 44, 80
4, 52221, Note_on_c, 1, 44, 0
4, 52224, Note_on_c, 1, 43, 80
4, 52269, Note_on_c, 1, 43, 0
4, 52272, Note_on_c, 1, 39, 80
4, 52317, Note_on_c, 1, 39, 0
4, 52320, Note_on_c, 1, 44, 80
4, 52365, Note_on_c, 1, 44, 0
4, 52368, Note_on_c, 1, 39, 80
4, 52413, Note_on_c, 1, 39, 0
4, 52416, Note_on_c, 1, 46, 80
4, 52461, Note_on_c, 1, 46, 0
4, 52464, Note_on_c, 1, 39, 80
4, 52509, Note_on_c, 1, 39, 0
4, 52512, Note_on_c, 1, 44, 80
4, 52557, Note_on_c, 1, 44, 0
4, 52848, Note_on_c, 1, 48, 80
4, 52893, Note_on_c, 1, 48, 0
4, 52896, Note_on_c, 1, 46, 80
4, 52941, Note_on_c, 1, 46, 0
4, 52944, Note_on_c, 1, 44, 80
4, 52989, Note_on_c, 1, 44, 0
4, 52992, Note_on_c, 1, 49, 80
4, 53037, Note_on_c, 1, 49, 0
4, 53040, Note_on_c, 1, 46, 80
4, 53085, Note_on_c, 1, 46, 0
4, 53088, Note_on_c, 1, 51, 80
4, 53133, Note_on_c, 1, 51, 0
4, 53136, Note_on_c, 1, 39, 80
4, 53181, Note_on_c, 1, 39, 0
4, 53184, Note_on_c, 1, 44, 80
4, 53229, Note_on_c, 1, 44, 0
4, 53232, Note_on_c, 1, 39, 80
4, 53277, Note_on_c, 1, 39, 0
4, 53280, Note_on_c, 1, 32, 80
4, 53325, Note_on_c, 1, 32, 0
4, 53616, Note_on_c, 1, 60, 80
4, 53661, Note_on_c, 1, 60, 0
4, 53664, Note_on_c, 1, 58, 80
4, 53709, Note_on_c, 1, 58, 0
4, 53712, Note_on_c, 1, 56, 80
4, 53757, Note_on_c, 1, 56, 0
4, 53760, Note_on_c, 1, 55, 80
4, 53805, Note_on_c, 1, 55, 0
4, 53808, Note_on_c, 1, 51, 80
4, 53853, Note_on_c, 1, 51, 0
4, 53856, Note_on_c, 1, 56, 80
4, 53901, Note_on_c, 1, 56, 0
4, 53904, Note_on_c, 1, 51, 80
4, 53949, Note_on_c, 1, 51, 0
4, 53952, Note_on_c, 1, 58, 80
4, 53997, Note_on_c, 1, 58, 0
4, 54000, Note_on_c, 1, 51, 80
4, 54045, Note_on_c, 1, 51, 0
4, 54048, Note_on_c, 1, 56, 80
4, 54093, Note_on_c, 1, 56, 0
4, 54384, Note_on_c, 1, 60, 80
4, 54429, Note_on_c, 1, 60, 0
4, 54432, Note_on_c, 1, 58, 80
4, 54477, Note_on_c, 1, 58, 0
4, 54480, Note_on_c, 1, 56, 80
4, 54525, Note_on_c, 1, 56, 0
4, 54528, Note_on_c, 1, 61, 80
4, 54573, Note_on_c, 1, 61, 0
4, 54576, Note_on_c, 1, 58, 80
4, 54621, Note_on_c, 1, 58, 0
4, 54624, Note_on_c, 1, 63, 80
4, 54669, Note_on_c, 1, 63, 0
4, 54672, Note_on_c, 1, 51, 80
4, 54717, Note_on_c, 1, 51, 0
4, 54720, Note_on_c, 1, 56, 80
4, 54765, Note_on_c, 1, 56, 0
4, 54768, Note_on_c, 1, 51, 80
4, 54813, Note_on_c, 1, 51, 0
4, 54816, Note_on_c, 1, 44, 80
4, 54861, Note_on_c, 1, 44, 0
4, 55056, Note_on_c, 1, 74, 80
4, 55056, Note_on_c, 1, 68, 80
4, 55104, Note_on_c, 1, 74, 0
4, 55104, Note_on_c, 1, 68, 0
4, 55104, Note_on_c, 1, 75, 80
4, 55104, Note_on_c, 1, 67, 80
4, 55193, Note_on_c, 1, 75, 0
4, 55193, Note_on_c, 1, 67, 0
4, 55440, Note_on_c, 1, 71, 80
4, 55440, Note_on_c, 1, 65, 80
4, 55488, Note_on_c, 1, 71, 0
4, 55488, Note_on_c, 1, 65, 0
4, 55488, Note_on_c, 1, 72, 80
4, 55488, Note_on_c, 1, 63, 80
4, 55577, Note_on_c, 1, 72, 0
4, 55577, Note_on_c, 1, 63, 0
4, 55824, Note_on_c, 1, 67, 80
4, 55824, Note_on_c, 1, 61, 80
4, 55872, Note_on_c, 1, 67, 0
4, 55872, Note_on_c, 1, 61, 0
4, 55872, Note_on_c, 1, 68, 80
4, 55872, Note_on_c, 1, 60, 80
4, 55961, Note_on_c, 1, 68, 0
4, 55961, Note_on_c, 1, 60, 0
4, 56064, Note_on_c, 1, 65, 80
4, 56064, Note_on_c, 1, 58, 80
4, 56153, Note_on_c, 1, 65, 0
4, 56153, Note_on_c, 1, 58, 0
4, 56256, Note_on_c, 1, 67, 82
4, 56256, Note_on_c, 1, 63, 82
4, 56345, Note_on_c, 1, 67, 0
4, 56345, Note_on_c, 1, 63, 0
4, 56448, Note_on_c, 1, 65, 84
4, 56448, Note_on_c, 1, 58, 84
4, 56537, Note_on_c, 1, 65, 0
4, 56537, Note_on_c, 1, 58, 0
4, 56784, Note_on_c, 1, 63, 86
4, 56921, Note_on_c, 1, 63, 0
4, 56928, Note_on_c, 1, 51, 86
4, 57069, Note_on_c, 1, 51, 0
4, 57072, Note_on_c, 1, 39, 86
4, 57130, Note_on_c, 1, 39, 0
4, 58608, Note_on_c, 1, 60, 86
4, 58653, Note_on_c, 1, 60, 0
4, 58656, Note_on_c, 1, 58, 86
4, 58701, Note_on_c, 1, 58, 0
4, 58704, Note_on_c, 1, 56, 86
4, 58749, Note_on_c, 1, 56, 0
4, 58752, Note_on_c, 1, 55, 86
4, 58797, Note_on_c, 1, 55, 0
4, 58800, Note_on_c, 1, 51, 86
4, 58845, Note_on_c, 1, 51, 0
4, 58848, Note_on_c, 1, 56, 86
4, 58893, Note_on_c, 1, 56, 0
4, 58896, Note_on_c, 1, 51, 86
4, 58941, Note_on_c, 1, 51, 0
4, 58944, Note_on_c, 1, 58, 86
4, 58989, Note_on_c, 1, 58, 0
4, 58992, Note_on_c, 1, 51, 86
4, 59037, Note_on_c, 1, 51, 0
4, 59040, Note_on_c, 1, 56, 86
4, 59085, Note_on_c, 1, 56, 0
4, 59376, Note_on_c, 1, 60, 86
4, 59421, Note_on_c, 1, 60, 0
4, 59424, Note_on_c, 1, 58, 86
4, 59469, Note_on_c, 1, 58, 0
4, 59472, Note_on_c, 1, 56, 86
4, 59517, Note_on_c, 1, 56, 0
4, 59520, Note_on_c, 1, 61, 86
4, 59565, Note_on_c, 1, 61, 0
4, 59568, Note_on_c, 1, 58, 86
4, 59613, Note_on_c, 1, 58, 0
4, 59616, Note_on_c, 1, 63, 86
4, 59661, Note_on_c, 1, 63, 0
4, 59664, Note_on_c, 1, 51, 86
4, 59709, Note_on_c, 1, 51, 0
4, 59712, Note_on_c, 1, 56, 86
4, 59757, Note_on_c, 1, 56, 0
4, 59760, Note_on_c, 1, 51, 86
4, 59805, Note_on_c, 1, 51, 0
4, 59808, Note_on_c, 1, 44, 86
4, 59853, Note_on_c, 1, 44, 0
4, 60048, Note_on_c, 1, 74, 80
4, 60048, Note_on_c, 1, 68, 80
4, 60096, Note_on_c, 1, 74, 0
4, 60096, Note_on_c, 1, 68, 0
4, 60096, Note_on_c, 1, 75, 80
4, 60096, Note_on_c, 1, 67, 80
4, 60185, Note_on_c, 1, 75, 0
4, 60185, Note_on_c, 1, 67, 0
4, 60432, Note_on_c, 1, 71, 80
4, 60432, Note_on_c, 1, 65, 80
4, 60480, Note_on_c, 1, 71, 0
4, 60480, Note_on_c, 1, 65, 0
4, 60480, Note_on_c, 1, 72, 80
4, 60480, Note_on_c, 1, 63, 80
4, 60569, Note_on_c, 1, 72, 0
4, 60569, Note_on_c, 1, 63, 0
4, 60816, Note_on_c, 1, 67, 80
4, 60816, Note_on_c, 1, 61, 80
4, 60864, Note_on_c, 1, 67, 0
4, 60864, Note_on_c, 1, 61, 0
4, 60864, Note_on_c, 1, 68, 80
4, 60864, Note_on_c, 1, 60, 80
4, 60953, Note_on_c, 1, 68, 0
4, 60953, Note_on_c, 1, 60, 0
4, 61056, Note_on_c, 1, 65, 80
4, 61056, Note_on_c, 1, 58, 80
4, 61145, Note_on_c, 1, 65, 0
4, 61145, Note_on_c, 1, 58, 0
4, 61248, Note_on_c, 1, 67, 82
4, 61248, Note_on_c, 1, 63, 82
4, 61337, Note_on_c, 1, 67, 0
4, 61337, Note_on_c, 1, 63, 0
4, 61440, Note_on_c, 1, 65, 84
4, 61440, Note_on_c, 1, 58, 84
4, 61529, Note_on_c, 1, 65, 0
4, 61529, Note_on_c, 1, 58, 0
4, 61776, Note_on_c, 1, 63, 86
4, 61913, Note_on_c, 1, 63, 0
4, 61920, Note_on_c, 1, 51, 86
4, 62061, Note_on_c, 1, 51, 0
4, 62064, Note_on_c, 1, 39, 86
4, 62122, Note_on_c, 1, 39, 0
4, 63600, Note_on_c, 1, 60, 86
4, 63645, Note_on_c, 1, 60, 0
4, 63648, Note_on_c, 1, 58, 86
4, 63693, Note_on_c, 1, 58, 0
4, 63696, Note_on_c, 1, 56, 86
4, 63741, Note_on_c, 1, 56, 0
4, 63744, Note_on_c, 1, 55, 86
4, 63789, Note_on_c, 1, 55, 0
4, 63792, Note_on_c, 1, 51, 86
4, 63837, Note_on_c, 1, 51, 0
4, 63840, Note_on_c, 1, 56, 86
4, 63885, Note_on_c, 1, 56, 0
4, 63888, Note_on_c, 1, 51, 86
4, 63933, Note_on_c, 1, 51, 0
4, 63936, Note_on_c, 1, 58, 86
4, 63981, Note_on_c, 1, 58, 0
4, 63984, Note_on_c, 1, 51, 86
4, 64029, Note_on_c, 1, 51, 0
4, 64032, Note_on_c, 1, 56, 86
4, 64077, Note_on_c, 1, 56, 0
4, 64368, Note_on_c, 1, 60, 86
4, 64413, Note_on_c, 1, 60, 0
4, 64416, Note_on_c, 1, 58, 86
4, 64461, Note_on_c, 1, 58, 0
4, 64464, Note_on_c, 1, 56, 86
4, 64509, Note_on_c, 1, 56, 0
4, 64512, Note_on_c, 1, 61, 86
4, 64557, Note_on_c, 1, 61, 0
4, 64560, Note_on_c, 1, 58, 86
4, 64605, Note_on_c, 1, 58, 0
4, 64608, Note_on_c, 1, 63, 86
4, 64653, Note_on_c, 1, 63, 0
4, 64656, Note_on_c, 1, 51, 86
4, 64701, Note_on_c, 1, 51, 0
4, 64704, Note_on_c, 1, 56, 86
4, 64749, Note_on_c, 1, 56, 0
4, 64752, Note_on_c, 1, 44, 86
4, 64797, Note_on_c, 1, 44, 0
4, 64800, Note_on_c, 1, 61, 64
4, 64800, Note_on_c, 1, 56, 64
4, 64845, Note_on_c, 1, 61, 0
4, 64845, Note_on_c, 1, 56, 0
4, 64848, Note_on_c, 1, 61, 64
4, 64848, Note_on_c, 1, 56, 64
4, 64893, Note_on_c, 1, 61, 0
4, 64893, Note_on_c, 1, 56, 0
4, 64896, Note_on_c, 1, 60, 64
4, 64896, Note_on_c, 1, 56, 64
4, 64941, Note_on_c, 1, 60, 0
4, 64941, Note_on_c, 1, 56, 0
4, 64944, Note_on_c, 1, 60, 64
4, 64944, Note_on_c, 1, 56, 64
4, 64989, Note_on_c, 1, 60, 0
4, 64989, Note_on_c, 1, 56, 0
4, 64992, Note_on_c, 1, 65, 64
4, 64992, Note_on_c, 1, 56, 64
4, 65037, Note_on_c, 1, 65, 0
4, 65037, Note_on_c, 1, 56, 0
4, 65040, Note_on_c, 1, 65, 64
4, 65040, Note_on_c, 1, 56, 64
4, 65085, Note_on_c, 1, 65, 0
4, 65085, Note_on_c, 1, 56, 0
4, 65088, Note_on_c, 1, 63, 64
4, 65088, Note_on_c, 1, 56, 64
4, 65133, Note_on_c, 1, 63, 0
4, 65133, Note_on_c, 1, 56, 0
4, 65136, Note_on_c, 1, 63, 64
4, 65136, Note_on_c, 1, 56, 64
4, 65181, Note_on_c, 1, 63, 0
4, 65181, Note_on_c, 1, 56, 0
4, 65184, Note_on_c, 1, 61, 64
4, 65184, Note_on_c, 1, 56, 64
4, 65229, Note_on_c, 1, 61, 0
4, 65229, Note_on_c, 1, 56, 0
4, 65232, Note_on_c, 1, 61, 64
4, 65232, Note_on_c, 1, 56, 64
4, 65277, Note_on_c, 1, 61, 0
4, 65277, Note_on_c, 1, 56, 0
4, 65280, Note_on_c, 1, 60, 64
4, 65280, Note_on_c, 1, 56, 64
4, 65325, Note_on_c, 1, 60, 0
4, 65325, Note_on_c, 1, 56, 0
4, 65472, Note_on_c, 1, 48, 58
4, 65472, Note_on_c, 1, 36, 58
4, 65561, Note_on_c, 1, 48, 0
4, 65561, Note_on_c, 1, 36, 0
4, 65664, Note_on_c, 1, 49, 58
4, 65664, Note_on_c, 1, 37, 58
4, 65753, Note_on_c, 1, 49, 0
4, 65753, Note_on_c, 1, 37, 0
4, 65856, Note_on_c, 1, 51, 58
4, 65856, Note_on_c, 1, 39, 58
4, 65945, Note_on_c, 1, 51, 0
4, 65945, Note_on_c, 1, 39, 0
4, 66048, Note_on_c, 1, 44, 58
4, 66048, Note_on_c, 1, 32, 58
4, 66137, Note_on_c, 1, 44, 0
4, 66137, Note_on_c, 1, 32, 0
4, 66528, Note_on_c, 1, 44, 86
4, 66528, Note_on_c, 1, 32, 86
4, 66617, Note_on_c, 1, 44, 0
4, 66617, Note_on_c, 1, 32, 0
4, 66624, Note_on_c, 1, 44, 4
4, 66624, Note_on_c, 1, 32, 4
4, 66713, Note_on_c, 1, 44, 0
4, 66713, Note_on_c, 1, 32, 0
4, 66720, End_track
5, 0, Start_track
5, 0, Program_c, 1, 0
5, 0, Control_c, 1, 7, 127
5, 0, Control_c, 1, 10, 64
5, 14976, Note_on_c, 1, 65, 64
5, 15021, Note_on_c, 1, 65, 0
5, 15024, Note_on_c, 1, 68, 64
5, 15069, Note_on_c, 1, 68, 0
5, 15072, Note_on_c, 1, 70, 64
5, 15117, Note_on_c, 1, 70, 0
5, 15120, Note_on_c, 1, 68, 64
5, 15165, Note_on_c, 1, 68, 0
5, 15168, Note_on_c, 1, 65, 64
5, 15345, Note_on_c, 1, 65, 0
5, 15360, Note_on_c, 1, 63, 64
5, 15405, Note_on_c, 1, 63, 0
5, 15408, Note_on_c, 1, 67, 64
5, 15453, Note_on_c, 1, 67, 0
5, 15456, Note_on_c, 1, 70, 64
5, 15501, Note_on_c, 1, 70, 0
5, 15504, Note_on_c, 1, 67, 64
5, 15549, Note_on_c, 1, 67, 0
5, 15744, Note_on_c, 1, 65, 64
5, 15789, Note_on_c, 1, 65, 0
5, 15792, Note_on_c, 1, 68, 64
5, 15837, Note_on_c, 1, 68, 0
5, 15840, Note_on_c, 1, 70, 64
5, 15885, Note_on_c, 1, 70, 0
5, 15888, Note_on_c, 1, 68, 64
5, 15933, Note_on_c, 1, 68, 0
5, 15936, Note_on_c, 1, 65, 64
5, 16113, Note_on_c, 1, 65, 0
5, 16176, Note_on_c, 1, 67, 64
5, 16221, Note_on_c, 1, 67, 0
5, 16224, Note_on_c, 1, 70, 64
5, 16272, Note_on_c, 1, 67, 64
5, 16793, Note_on_c, 1, 70, 0
5, 16793, Note_on_c, 1, 67, 0
5, 66624, End_track
6, 0, Start_track
6, 0, Title_t, "Sonata I   Haydn  "
6, 0, End_track
0, 0, End_of_file
