0, 0, Header, 1, 6, 96
1, 0, Start_track
1, 0, Copyright_t, "Copyright  2000 <copyright holder>"
1, 0, Text_t, "Piano Solo\015\012"
1, 0, Text_t, "<composer>\015\012"
1, 0, Sequencer_specific, 16, 68, 87, 77, 90, 86, 82, 83, 78, 32, 55, 46, 49, 46, 50, 46, 48
1, 0, Time_signature, 3, 2, 24, 8
1, 0, Tempo, 100000
1, 0, Key_signature, -3, "major"
1, 192, Tempo, 428571
1, 87840, End_track
2, 0, Start_track
2, 0, Program_c, 0, 0
2, 0, Control_c, 0, 7, 127
2, 0, Control_c, 0, 10, 64
2, 192, Note_on_c, 0, 72, 87
2, 288, Note_on_c, 0, 72, 0
2, 288, Note_on_c, 0, 77, 71
2, 311, Note_on_c, 0, 77, 0
2, 312, Note_on_c, 0, 75, 71
2, 335, Note_on_c, 0, 75, 0
2, 336, Note_on_c, 0, 74, 71
2, 359, Note_on_c, 0, 74, 0
2, 360, Note_on_c, 0, 72, 71
2, 383, Note_on_c, 0, 72, 0
2, 384, Note_on_c, 0, 71, 71
2, 423, Note_on_c, 0, 71, 0
2, 480, Note_on_c, 0, 74, 71
2, 569, Note_on_c, 0, 74, 0
2, 576, Note_on_c, 0, 79, 71
2, 599, Note_on_c, 0, 79, 0
2, 600, Note_on_c, 0, 77, 71
2, 623, Note_on_c, 0, 77, 0
2, 624, Note_on_c, 0, 75, 71
2, 647, Note_on_c, 0, 75, 0
2, 648, Note_on_c, 0, 74, 71
2, 671, Note_on_c, 0, 74, 0
2, 672, Note_on_c, 0, 72, 71
2, 711, Note_on_c, 0, 72, 0
2, 768, Note_on_c, 0, 79, 71
2, 835, Note_on_c, 0, 79, 0
2, 840, Note_on_c, 0, 84, 71
2, 863, Note_on_c, 0, 84, 0
2, 864, Note_on_c, 0, 84, 87
2, 936, Note_on_c, 0, 84, 0
2, 936, Note_on_c, 0, 83, 72
2, 959, Note_on_c, 0, 83, 0
2, 960, Note_on_c, 0, 83, 89
2, 1032, Note_on_c, 0, 83, 0
2, 1032, Note_on_c, 0, 80, 75
2, 1055, Note_on_c, 0, 80, 0
2, 1056, Note_on_c, 0, 80, 91
2, 1128, Note_on_c, 0, 80, 0
2, 1128, Note_on_c, 0, 79, 77
2, 1151, Note_on_c, 0, 79, 0
2, 1152, Note_on_c, 0, 79, 94
2, 1344, Note_on_c, 0, 79, 0
2, 1344, Note_on_c, 0, 79, 78
2, 1367, Note_on_c, 0, 79, 0
2, 1368, Note_on_c, 0, 77, 78
2, 1391, Note_on_c, 0, 77, 0
2, 1392, Note_on_c, 0, 75, 78
2, 1415, Note_on_c, 0, 75, 0
2, 1416, Note_on_c, 0, 74, 78
2, 1439, Note_on_c, 0, 74, 0
2, 1440, Note_on_c, 0, 77, 78
2, 1463, Note_on_c, 0, 77, 0
2, 1464, Note_on_c, 0, 75, 78
2, 1487, Note_on_c, 0, 75, 0
2, 1488, Note_on_c, 0, 74, 78
2, 1511, Note_on_c, 0, 74, 0
2, 1512, Note_on_c, 0, 72, 78
2, 1535, Note_on_c, 0, 72, 0
2, 1536, Note_on_c, 0, 71, 78
2, 1603, Note_on_c, 0, 71, 0
2, 1608, Note_on_c, 0, 72, 78
2, 1631, Note_on_c, 0, 72, 0
2, 1632, Note_on_c, 0, 74, 78
2, 1647, Note_on_c, 0, 74, 0
2, 1648, Note_on_c, 0, 72, 77
2, 1663, Note_on_c, 0, 72, 0
2, 1664, Note_on_c, 0, 74, 77
2, 1679, Note_on_c, 0, 74, 0
2, 1680, Note_on_c, 0, 72, 76
2, 1695, Note_on_c, 0, 72, 0
2, 1696, Note_on_c, 0, 71, 76
2, 1711, Note_on_c, 0, 71, 0
2, 1712, Note_on_c, 0, 72, 75
2, 1727, Note_on_c, 0, 72, 0
2, 1728, Note_on_c, 0, 72, 75
2, 1824, Note_on_c, 0, 72, 0
2, 1824, Note_on_c, 0, 74, 71
2, 1863, Note_on_c, 0, 74, 0
2, 1920, Note_on_c, 0, 60, 71
2, 2009, Note_on_c, 0, 60, 0
2, 2016, Note_on_c, 0, 65, 71
2, 2039, Note_on_c, 0, 65, 0
2, 2040, Note_on_c, 0, 63, 71
2, 2063, Note_on_c, 0, 63, 0
2, 2064, Note_on_c, 0, 62, 71
2, 2087, Note_on_c, 0, 62, 0
2, 2088, Note_on_c, 0, 60, 71
2, 2111, Note_on_c, 0, 60, 0
2, 2112, Note_on_c, 0, 59, 71
2, 2151, Note_on_c, 0, 59, 0
2, 2208, Note_on_c, 0, 62, 71
2, 2297, Note_on_c, 0, 62, 0
2, 2304, Note_on_c, 0, 67, 71
2, 2327, Note_on_c, 0, 67, 0
2, 2328, Note_on_c, 0, 65, 71
2, 2351, Note_on_c, 0, 65, 0
2, 2352, Note_on_c, 0, 63, 71
2, 2375, Note_on_c, 0, 63, 0
2, 2376, Note_on_c, 0, 62, 71
2, 2399, Note_on_c, 0, 62, 0
2, 2400, Note_on_c, 0, 60, 71
2, 2439, Note_on_c, 0, 60, 0
2, 2496, Note_on_c, 0, 72, 71
2, 2519, Note_on_c, 0, 72, 0
2, 2520, Note_on_c, 0, 71, 71
2, 2543, Note_on_c, 0, 71, 0
2, 2544, Note_on_c, 0, 74, 71
2, 2567, Note_on_c, 0, 74, 0
2, 2568, Note_on_c, 0, 72, 71
2, 2591, Note_on_c, 0, 72, 0
2, 2592, Note_on_c, 0, 75, 71
2, 2612, Note_on_c, 0, 75, 0
2, 2640, Note_on_c, 0, 74, 71
2, 2660, Note_on_c, 0, 74, 0
2, 2688, Note_on_c, 0, 72, 71
2, 2708, Note_on_c, 0, 72, 0
2, 2736, Note_on_c, 0, 70, 71
2, 2756, Note_on_c, 0, 70, 0
2, 2784, Note_on_c, 0, 68, 71
2, 2804, Note_on_c, 0, 68, 0
2, 2832, Note_on_c, 0, 67, 71
2, 2852, Note_on_c, 0, 67, 0
2, 2880, Note_on_c, 0, 67, 71
2, 2928, Note_on_c, 0, 67, 0
2, 2928, Note_on_c, 0, 66, 71
2, 2973, Note_on_c, 0, 66, 0
2, 2976, Note_on_c, 0, 74, 72
2, 2996, Note_on_c, 0, 74, 0
2, 3024, Note_on_c, 0, 65, 73
2, 3044, Note_on_c, 0, 65, 0
2, 3072, Note_on_c, 0, 65, 75
2, 3120, Note_on_c, 0, 65, 0
2, 3120, Note_on_c, 0, 63, 76
2, 3165, Note_on_c, 0, 63, 0
2, 3216, Note_on_c, 0, 62, 76
2, 3261, Note_on_c, 0, 62, 0
2, 3264, Note_on_c, 0, 65, 75
2, 3309, Note_on_c, 0, 65, 0
2, 3312, Note_on_c, 0, 68, 74
2, 3357, Note_on_c, 0, 68, 0
2, 3360, Note_on_c, 0, 67, 73
2, 3405, Note_on_c, 0, 67, 0
2, 3408, Note_on_c, 0, 59, 72
2, 3453, Note_on_c, 0, 59, 0
2, 3456, Note_on_c, 0, 60, 71
2, 3545, Note_on_c, 0, 60, 0
2, 3792, Note_on_c, 0, 75, 78
2, 3837, Note_on_c, 0, 75, 0
2, 3840, Note_on_c, 0, 74, 78
2, 3885, Note_on_c, 0, 74, 0
2, 3888, Note_on_c, 0, 72, 78
2, 3933, Note_on_c, 0, 72, 0
2, 3936, Note_on_c, 0, 70, 78
2, 3981, Note_on_c, 0, 70, 0
2, 3984, Note_on_c, 0, 68, 78
2, 4029, Note_on_c, 0, 68, 0
2, 4032, Note_on_c, 0, 67, 78
2, 4269, Note_on_c, 0, 67, 0
2, 4272, Note_on_c, 0, 68, 78
2, 4284, Note_on_c, 0, 68, 0
2, 4284, Note_on_c, 0, 67, 78
2, 4296, Note_on_c, 0, 67, 0
2, 4296, Note_on_c, 0, 68, 78
2, 4317, Note_on_c, 0, 68, 0
2, 4320, Note_on_c, 0, 70, 78
2, 4365, Note_on_c, 0, 70, 0
2, 4368, Note_on_c, 0, 67, 78
2, 4391, Note_on_c, 0, 67, 0
2, 4392, Note_on_c, 0, 70, 78
2, 4415, Note_on_c, 0, 70, 0
2, 4416, Note_on_c, 0, 65, 78
2, 4439, Note_on_c, 0, 65, 0
2, 4440, Note_on_c, 0, 70, 78
2, 4463, Note_on_c, 0, 70, 0
2, 4464, Note_on_c, 0, 63, 78
2, 4487, Note_on_c, 0, 63, 0
2, 4488, Note_on_c, 0, 70, 78
2, 4511, Note_on_c, 0, 70, 0
2, 4512, Note_on_c, 0, 62, 78
2, 4535, Note_on_c, 0, 62, 0
2, 4536, Note_on_c, 0, 70, 78
2, 4559, Note_on_c, 0, 70, 0
2, 4560, Note_on_c, 0, 60, 78
2, 4583, Note_on_c, 0, 60, 0
2, 4584, Note_on_c, 0, 70, 78
2, 4607, Note_on_c, 0, 70, 0
2, 4608, Note_on_c, 0, 58, 78
2, 4653, Note_on_c, 0, 58, 0
2, 4656, Note_on_c, 0, 75, 79
2, 4701, Note_on_c, 0, 75, 0
2, 4704, Note_on_c, 0, 79, 80
2, 4749, Note_on_c, 0, 79, 0
2, 4752, Note_on_c, 0, 75, 82
2, 4797, Note_on_c, 0, 75, 0
2, 4800, Note_on_c, 0, 74, 83
2, 4845, Note_on_c, 0, 74, 0
2, 4848, Note_on_c, 0, 72, 84
2, 4893, Note_on_c, 0, 72, 0
2, 4896, Note_on_c, 0, 70, 86
2, 4992, Note_on_c, 0, 70, 0
2, 4992, Note_on_c, 0, 69, 83
2, 5169, Note_on_c, 0, 69, 0
2, 5232, Note_on_c, 0, 68, 78
2, 5277, Note_on_c, 0, 68, 0
2, 5280, Note_on_c, 0, 77, 79
2, 5325, Note_on_c, 0, 77, 0
2, 5328, Note_on_c, 0, 74, 81
2, 5373, Note_on_c, 0, 74, 0
2, 5376, Note_on_c, 0, 70, 82
2, 5421, Note_on_c, 0, 70, 0
2, 5424, Note_on_c, 0, 68, 84
2, 5469, Note_on_c, 0, 68, 0
2, 5472, Note_on_c, 0, 68, 86
2, 5568, Note_on_c, 0, 68, 0
2, 5568, Note_on_c, 0, 67, 83
2, 5805, Note_on_c, 0, 67, 0
2, 5808, Note_on_c, 0, 65, 79
2, 5853, Note_on_c, 0, 65, 0
2, 5856, Note_on_c, 0, 72, 80
2, 5901, Note_on_c, 0, 72, 0
2, 5904, Note_on_c, 0, 68, 82
2, 5949, Note_on_c, 0, 68, 0
2, 5952, Note_on_c, 0, 65, 83
2, 5997, Note_on_c, 0, 65, 0
2, 6000, Note_on_c, 0, 63, 84
2, 6045, Note_on_c, 0, 63, 0
2, 6048, Note_on_c, 0, 62, 86
2, 6071, Note_on_c, 0, 62, 0
2, 6072, Note_on_c, 0, 65, 86
2, 6095, Note_on_c, 0, 65, 0
2, 6096, Note_on_c, 0, 63, 86
2, 6119, Note_on_c, 0, 63, 0
2, 6120, Note_on_c, 0, 67, 86
2, 6143, Note_on_c, 0, 67, 0
2, 6144, Note_on_c, 0, 65, 86
2, 6167, Note_on_c, 0, 65, 0
2, 6168, Note_on_c, 0, 68, 86
2, 6191, Note_on_c, 0, 68, 0
2, 6192, Note_on_c, 0, 67, 86
2, 6215, Note_on_c, 0, 67, 0
2, 6216, Note_on_c, 0, 70, 86
2, 6239, Note_on_c, 0, 70, 0
2, 6240, Note_on_c, 0, 68, 86
2, 6285, Note_on_c, 0, 68, 0
2, 6336, Note_on_c, 0, 63, 86
2, 6359, Note_on_c, 0, 63, 0
2, 6360, Note_on_c, 0, 67, 86
2, 6383, Note_on_c, 0, 67, 0
2, 6384, Note_on_c, 0, 65, 86
2, 6407, Note_on_c, 0, 65, 0
2, 6408, Note_on_c, 0, 68, 86
2, 6431, Note_on_c, 0, 68, 0
2, 6432, Note_on_c, 0, 67, 86
2, 6455, Note_on_c, 0, 67, 0
2, 6456, Note_on_c, 0, 70, 86
2, 6479, Note_on_c, 0, 70, 0
2, 6480, Note_on_c, 0, 68, 86
2, 6503, Note_on_c, 0, 68, 0
2, 6504, Note_on_c, 0, 72, 86
2, 6527, Note_on_c, 0, 72, 0
2, 6528, Note_on_c, 0, 70, 86
2, 6573, Note_on_c, 0, 70, 0
2, 6624, Note_on_c, 0, 70, 86
2, 6647, Note_on_c, 0, 70, 0
2, 6648, Note_on_c, 0, 74, 86
2, 6671, Note_on_c, 0, 74, 0
2, 6672, Note_on_c, 0, 72, 86
2, 6695, Note_on_c, 0, 72, 0
2, 6696, Note_on_c, 0, 75, 86
2, 6719, Note_on_c, 0, 75, 0
2, 6720, Note_on_c, 0, 74, 86
2, 6743, Note_on_c, 0, 74, 0
2, 6744, Note_on_c, 0, 77, 86
2, 6767, Note_on_c, 0, 77, 0
2, 6768, Note_on_c, 0, 75, 86
2, 6791, Note_on_c, 0, 75, 0
2, 6792, Note_on_c, 0, 79, 86
2, 6815, Note_on_c, 0, 79, 0
2, 6816, Note_on_c, 0, 77, 86
2, 6839, Note_on_c, 0, 77, 0
2, 6840, Note_on_c, 0, 80, 86
2, 6863, Note_on_c, 0, 80, 0
2, 6864, Note_on_c, 0, 79, 86
2, 6887, Note_on_c, 0, 79, 0
2, 6888, Note_on_c, 0, 82, 86
2, 6911, Note_on_c, 0, 82, 0
2, 6912, Note_on_c, 0, 80, 86
2, 6935, Note_on_c, 0, 80, 0
2, 6936, Note_on_c, 0, 82, 86
2, 6959, Note_on_c, 0, 82, 0
2, 6960, Note_on_c, 0, 84, 86
2, 6983, Note_on_c, 0, 84, 0
2, 6984, Note_on_c, 0, 82, 86
2, 7007, Note_on_c, 0, 82, 0
2, 7008, Note_on_c, 0, 80, 86
2, 7031, Note_on_c, 0, 80, 0
2, 7032, Note_on_c, 0, 79, 86
2, 7055, Note_on_c, 0, 79, 0
2, 7056, Note_on_c, 0, 77, 86
2, 7079, Note_on_c, 0, 77, 0
2, 7080, Note_on_c, 0, 75, 86
2, 7103, Note_on_c, 0, 75, 0
2, 7104, Note_on_c, 0, 74, 86
2, 7127, Note_on_c, 0, 74, 0
2, 7128, Note_on_c, 0, 72, 86
2, 7151, Note_on_c, 0, 72, 0
2, 7152, Note_on_c, 0, 70, 86
2, 7175, Note_on_c, 0, 70, 0
2, 7176, Note_on_c, 0, 68, 86
2, 7199, Note_on_c, 0, 68, 0
2, 7200, Note_on_c, 0, 67, 86
2, 7223, Note_on_c, 0, 67, 0
2, 7224, Note_on_c, 0, 70, 86
2, 7247, Note_on_c, 0, 70, 0
2, 7248, Note_on_c, 0, 68, 86
2, 7271, Note_on_c, 0, 68, 0
2, 7272, Note_on_c, 0, 72, 86
2, 7295, Note_on_c, 0, 72, 0
2, 7296, Note_on_c, 0, 70, 86
2, 7319, Note_on_c, 0, 70, 0
2, 7320, Note_on_c, 0, 74, 86
2, 7343, Note_on_c, 0, 74, 0
2, 7344, Note_on_c, 0, 72, 86
2, 7367, Note_on_c, 0, 72, 0
2, 7368, Note_on_c, 0, 75, 86
2, 7391, Note_on_c, 0, 75, 0
2, 7392, Note_on_c, 0, 74, 86
2, 7415, Note_on_c, 0, 74, 0
2, 7416, Note_on_c, 0, 77, 86
2, 7439, Note_on_c, 0, 77, 0
2, 7440, Note_on_c, 0, 75, 86
2, 7463, Note_on_c, 0, 75, 0
2, 7464, Note_on_c, 0, 79, 86
2, 7487, Note_on_c, 0, 79, 0
2, 7488, Note_on_c, 0, 77, 86
2, 7511, Note_on_c, 0, 77, 0
2, 7512, Note_on_c, 0, 79, 86
2, 7535, Note_on_c, 0, 79, 0
2, 7536, Note_on_c, 0, 80, 86
2, 7559, Note_on_c, 0, 80, 0
2, 7560, Note_on_c, 0, 79, 86
2, 7583, Note_on_c, 0, 79, 0
2, 7584, Note_on_c, 0, 77, 86
2, 7607, Note_on_c, 0, 77, 0
2, 7608, Note_on_c, 0, 75, 86
2, 7631, Note_on_c, 0, 75, 0
2, 7632, Note_on_c, 0, 74, 86
2, 7655, Note_on_c, 0, 74, 0
2, 7656, Note_on_c, 0, 72, 86
2, 7679, Note_on_c, 0, 72, 0
2, 7680, Note_on_c, 0, 70, 86
2, 7703, Note_on_c, 0, 70, 0
2, 7704, Note_on_c, 0, 68, 86
2, 7727, Note_on_c, 0, 68, 0
2, 7728, Note_on_c, 0, 67, 86
2, 7751, Note_on_c, 0, 67, 0
2, 7752, Note_on_c, 0, 65, 86
2, 7775, Note_on_c, 0, 65, 0
2, 7776, Note_on_c, 0, 63, 86
2, 7799, Note_on_c, 0, 63, 0
2, 7800, Note_on_c, 0, 62, 86
2, 7823, Note_on_c, 0, 62, 0
2, 7824, Note_on_c, 0, 63, 86
2, 7847, Note_on_c, 0, 63, 0
2, 7848, Note_on_c, 0, 68, 86
2, 7871, Note_on_c, 0, 68, 0
2, 7872, Note_on_c, 0, 63, 86
2, 7895, Note_on_c, 0, 63, 0
2, 7896, Note_on_c, 0, 62, 86
2, 7919, Note_on_c, 0, 62, 0
2, 7920, Note_on_c, 0, 63, 86
2, 7943, Note_on_c, 0, 63, 0
2, 7944, Note_on_c, 0, 67, 86
2, 7967, Note_on_c, 0, 67, 0
2, 7968, Note_on_c, 0, 63, 86
2, 7991, Note_on_c, 0, 63, 0
2, 7992, Note_on_c, 0, 62, 86
2, 8015, Note_on_c, 0, 62, 0
2, 8016, Note_on_c, 0, 63, 86
2, 8039, Note_on_c, 0, 63, 0
2, 8040, Note_on_c, 0, 72, 86
2, 8063, Note_on_c, 0, 72, 0
2, 8064, Note_on_c, 0, 63, 86
2, 8087, Note_on_c, 0, 63, 0
2, 8088, Note_on_c, 0, 62, 86
2, 8111, Note_on_c, 0, 62, 0
2, 8112, Note_on_c, 0, 63, 86
2, 8135, Note_on_c, 0, 63, 0
2, 8136, Note_on_c, 0, 70, 86
2, 8159, Note_on_c, 0, 70, 0
2, 8160, Note_on_c, 0, 63, 86
2, 8183, Note_on_c, 0, 63, 0
2, 8184, Note_on_c, 0, 62, 86
2, 8207, Note_on_c, 0, 62, 0
2, 8208, Note_on_c, 0, 63, 86
2, 8231, Note_on_c, 0, 63, 0
2, 8232, Note_on_c, 0, 68, 86
2, 8255, Note_on_c, 0, 68, 0
2, 8256, Note_on_c, 0, 63, 86
2, 8279, Note_on_c, 0, 63, 0
2, 8280, Note_on_c, 0, 62, 86
2, 8303, Note_on_c, 0, 62, 0
2, 8304, Note_on_c, 0, 63, 86
2, 8327, Note_on_c, 0, 63, 0
2, 8328, Note_on_c, 0, 67, 86
2, 8351, Note_on_c, 0, 67, 0
2, 8352, Note_on_c, 0, 63, 86
2, 8375, Note_on_c, 0, 63, 0
2, 8376, Note_on_c, 0, 62, 86
2, 8399, Note_on_c, 0, 62, 0
2, 8400, Note_on_c, 0, 63, 86
2, 8423, Note_on_c, 0, 63, 0
2, 8424, Note_on_c, 0, 68, 86
2, 8447, Note_on_c, 0, 68, 0
2, 8448, Note_on_c, 0, 63, 86
2, 8471, Note_on_c, 0, 63, 0
2, 8472, Note_on_c, 0, 62, 86
2, 8495, Note_on_c, 0, 62, 0
2, 8496, Note_on_c, 0, 63, 86
2, 8519, Note_on_c, 0, 63, 0
2, 8520, Note_on_c, 0, 67, 86
2, 8543, Note_on_c, 0, 67, 0
2, 8544, Note_on_c, 0, 63, 86
2, 8567, Note_on_c, 0, 63, 0
2, 8568, Note_on_c, 0, 62, 86
2, 8591, Note_on_c, 0, 62, 0
2, 8592, Note_on_c, 0, 63, 86
2, 8615, Note_on_c, 0, 63, 0
2, 8616, Note_on_c, 0, 72, 86
2, 8639, Note_on_c, 0, 72, 0
2, 8640, Note_on_c, 0, 63, 86
2, 8663, Note_on_c, 0, 63, 0
2, 8664, Note_on_c, 0, 62, 86
2, 8687, Note_on_c, 0, 62, 0
2, 8688, Note_on_c, 0, 63, 86
2, 8711, Note_on_c, 0, 63, 0
2, 8712, Note_on_c, 0, 70, 86
2, 8735, Note_on_c, 0, 70, 0
2, 8736, Note_on_c, 0, 63, 86
2, 8759, Note_on_c, 0, 63, 0
2, 8760, Note_on_c, 0, 62, 86
2, 8783, Note_on_c, 0, 62, 0
2, 8784, Note_on_c, 0, 63, 86
2, 8807, Note_on_c, 0, 63, 0
2, 8808, Note_on_c, 0, 68, 86
2, 8831, Note_on_c, 0, 68, 0
2, 8832, Note_on_c, 0, 63, 86
2, 8855, Note_on_c, 0, 63, 0
2, 8856, Note_on_c, 0, 62, 86
2, 8879, Note_on_c, 0, 62, 0
2, 8880, Note_on_c, 0, 63, 86
2, 8903, Note_on_c, 0, 63, 0
2, 8904, Note_on_c, 0, 67, 86
2, 8927, Note_on_c, 0, 67, 0
2, 8928, Note_on_c, 0, 63, 86
2, 8951, Note_on_c, 0, 63, 0
2, 8952, Note_on_c, 0, 62, 86
2, 8975, Note_on_c, 0, 62, 0
2, 8976, Note_on_c, 0, 63, 86
2, 8999, Note_on_c, 0, 63, 0
2, 9000, Note_on_c, 0, 66, 86
2, 9023, Note_on_c, 0, 66, 0
2, 9024, Note_on_c, 0, 63, 86
2, 9047, Note_on_c, 0, 63, 0
2, 9048, Note_on_c, 0, 62, 86
2, 9071, Note_on_c, 0, 62, 0
2, 9072, Note_on_c, 0, 63, 86
2, 9095, Note_on_c, 0, 63, 0
2, 9096, Note_on_c, 0, 66, 86
2, 9119, Note_on_c, 0, 66, 0
2, 9120, Note_on_c, 0, 63, 86
2, 9143, Note_on_c, 0, 63, 0
2, 9144, Note_on_c, 0, 62, 86
2, 9167, Note_on_c, 0, 62, 0
2, 9168, Note_on_c, 0, 63, 86
2, 9191, Note_on_c, 0, 63, 0
2, 9192, Note_on_c, 0, 66, 86
2, 9215, Note_on_c, 0, 66, 0
2, 9216, Note_on_c, 0, 62, 86
2, 9239, Note_on_c, 0, 62, 0
2, 9240, Note_on_c, 0, 65, 86
2, 9263, Note_on_c, 0, 65, 0
2, 9264, Note_on_c, 0, 68, 86
2, 9287, Note_on_c, 0, 68, 0
2, 9288, Note_on_c, 0, 72, 86
2, 9311, Note_on_c, 0, 72, 0
2, 9312, Note_on_c, 0, 70, 86
2, 9335, Note_on_c, 0, 70, 0
2, 9336, Note_on_c, 0, 68, 86
2, 9359, Note_on_c, 0, 68, 0
2, 9360, Note_on_c, 0, 67, 86
2, 9383, Note_on_c, 0, 67, 0
2, 9384, Note_on_c, 0, 65, 86
2, 9407, Note_on_c, 0, 65, 0
2, 9408, Note_on_c, 0, 63, 86
2, 9431, Note_on_c, 0, 63, 0
2, 9432, Note_on_c, 0, 62, 86
2, 9455, Note_on_c, 0, 62, 0
2, 9456, Note_on_c, 0, 60, 86
2, 9479, Note_on_c, 0, 60, 0
2, 9480, Note_on_c, 0, 58, 86
2, 9503, Note_on_c, 0, 58, 0
2, 9744, Note_on_c, 0, 82, 86
2, 9837, Note_on_c, 0, 82, 0
2, 9840, Note_on_c, 0, 80, 86
2, 9929, Note_on_c, 0, 80, 0
2, 9936, Note_on_c, 0, 79, 82
2, 10025, Note_on_c, 0, 79, 0
2, 10032, Note_on_c, 0, 77, 79
2, 10077, Note_on_c, 0, 77, 0
2, 10080, Note_on_c, 0, 75, 78
2, 10103, Note_on_c, 0, 75, 0
2, 10104, Note_on_c, 0, 68, 78
2, 10127, Note_on_c, 0, 68, 0
2, 10128, Note_on_c, 0, 67, 78
2, 10151, Note_on_c, 0, 67, 0
2, 10152, Note_on_c, 0, 68, 78
2, 10175, Note_on_c, 0, 68, 0
2, 10176, Note_on_c, 0, 74, 78
2, 10199, Note_on_c, 0, 74, 0
2, 10200, Note_on_c, 0, 67, 78
2, 10223, Note_on_c, 0, 67, 0
2, 10224, Note_on_c, 0, 66, 78
2, 10247, Note_on_c, 0, 66, 0
2, 10248, Note_on_c, 0, 67, 78
2, 10271, Note_on_c, 0, 67, 0
2, 10272, Note_on_c, 0, 72, 78
2, 10295, Note_on_c, 0, 72, 0
2, 10296, Note_on_c, 0, 65, 78
2, 10319, Note_on_c, 0, 65, 0
2, 10320, Note_on_c, 0, 64, 78
2, 10343, Note_on_c, 0, 64, 0
2, 10344, Note_on_c, 0, 65, 78
2, 10367, Note_on_c, 0, 65, 0
2, 10368, Note_on_c, 0, 70, 78
2, 10391, Note_on_c, 0, 70, 0
2, 10392, Note_on_c, 0, 63, 78
2, 10415, Note_on_c, 0, 63, 0
2, 10416, Note_on_c, 0, 62, 78
2, 10439, Note_on_c, 0, 62, 0
2, 10440, Note_on_c, 0, 63, 78
2, 10463, Note_on_c, 0, 63, 0
2, 10464, Note_on_c, 0, 68, 78
2, 10487, Note_on_c, 0, 68, 0
2, 10488, Note_on_c, 0, 62, 78
2, 10511, Note_on_c, 0, 62, 0
2, 10512, Note_on_c, 0, 61, 78
2, 10535, Note_on_c, 0, 61, 0
2, 10536, Note_on_c, 0, 62, 78
2, 10559, Note_on_c, 0, 62, 0
2, 10560, Note_on_c, 0, 67, 78
2, 10583, Note_on_c, 0, 67, 0
2, 10584, Note_on_c, 0, 63, 78
2, 10607, Note_on_c, 0, 63, 0
2, 10608, Note_on_c, 0, 62, 78
2, 10631, Note_on_c, 0, 62, 0
2, 10632, Note_on_c, 0, 63, 78
2, 10655, Note_on_c, 0, 63, 0
2, 10704, Note_on_c, 0, 59, 78
2, 10724, Note_on_c, 0, 59, 0
2, 10752, Note_on_c, 0, 60, 79
2, 10772, Note_on_c, 0, 60, 0
2, 10800, Note_on_c, 0, 62, 81
2, 10820, Note_on_c, 0, 62, 0
2, 10848, Note_on_c, 0, 63, 82
2, 10868, Note_on_c, 0, 63, 0
2, 10896, Note_on_c, 0, 64, 84
2, 10916, Note_on_c, 0, 64, 0
2, 10944, Note_on_c, 0, 65, 86
2, 10964, Note_on_c, 0, 65, 0
2, 10992, Note_on_c, 0, 67, 84
2, 11037, Note_on_c, 0, 67, 0
2, 11040, Note_on_c, 0, 70, 83
2, 11085, Note_on_c, 0, 70, 0
2, 11088, Note_on_c, 0, 68, 82
2, 11133, Note_on_c, 0, 68, 0
2, 11136, Note_on_c, 0, 67, 80
2, 11181, Note_on_c, 0, 67, 0
2, 11184, Note_on_c, 0, 65, 79
2, 11229, Note_on_c, 0, 65, 0
2, 11232, Note_on_c, 0, 67, 78
2, 11565, Note_on_c, 0, 67, 0
2, 11568, Note_on_c, 0, 70, 78
2, 11613, Note_on_c, 0, 70, 0
2, 11616, Note_on_c, 0, 70, 78
2, 11661, Note_on_c, 0, 70, 0
2, 11664, Note_on_c, 0, 68, 78
2, 11709, Note_on_c, 0, 68, 0
2, 11712, Note_on_c, 0, 67, 78
2, 11757, Note_on_c, 0, 67, 0
2, 11760, Note_on_c, 0, 65, 78
2, 11805, Note_on_c, 0, 65, 0
2, 11808, Note_on_c, 0, 63, 78
2, 12717, Note_on_c, 0, 63, 0
2, 12720, Note_on_c, 0, 72, 78
2, 12765, Note_on_c, 0, 72, 0
2, 12768, Note_on_c, 0, 70, 78
2, 12813, Note_on_c, 0, 70, 0
2, 12816, Note_on_c, 0, 68, 78
2, 12861, Note_on_c, 0, 68, 0
2, 12864, Note_on_c, 0, 67, 78
2, 12909, Note_on_c, 0, 67, 0
2, 12912, Note_on_c, 0, 65, 78
2, 12957, Note_on_c, 0, 65, 0
2, 12960, Note_on_c, 0, 65, 78
2, 13248, Note_on_c, 0, 65, 0
2, 13248, Note_on_c, 0, 67, 72
2, 13342, Note_on_c, 0, 67, 0
2, 13440, Note_on_c, 0, 72, 87
2, 13536, Note_on_c, 0, 72, 0
2, 13536, Note_on_c, 0, 77, 71
2, 13559, Note_on_c, 0, 77, 0
2, 13560, Note_on_c, 0, 75, 71
2, 13583, Note_on_c, 0, 75, 0
2, 13584, Note_on_c, 0, 74, 71
2, 13607, Note_on_c, 0, 74, 0
2, 13608, Note_on_c, 0, 72, 71
2, 13631, Note_on_c, 0, 72, 0
2, 13632, Note_on_c, 0, 71, 71
2, 13671, Note_on_c, 0, 71, 0
2, 13728, Note_on_c, 0, 74, 71
2, 13817, Note_on_c, 0, 74, 0
2, 13824, Note_on_c, 0, 79, 71
2, 13847, Note_on_c, 0, 79, 0
2, 13848, Note_on_c, 0, 77, 71
2, 13871, Note_on_c, 0, 77, 0
2, 13872, Note_on_c, 0, 75, 71
2, 13895, Note_on_c, 0, 75, 0
2, 13896, Note_on_c, 0, 74, 71
2, 13919, Note_on_c, 0, 74, 0
2, 13920, Note_on_c, 0, 72, 71
2, 13959, Note_on_c, 0, 72, 0
2, 14016, Note_on_c, 0, 79, 71
2, 14083, Note_on_c, 0, 79, 0
2, 14088, Note_on_c, 0, 84, 71
2, 14111, Note_on_c, 0, 84, 0
2, 14112, Note_on_c, 0, 84, 87
2, 14184, Note_on_c, 0, 84, 0
2, 14184, Note_on_c, 0, 83, 72
2, 14207, Note_on_c, 0, 83, 0
2, 14208, Note_on_c, 0, 83, 89
2, 14280, Note_on_c, 0, 83, 0
2, 14280, Note_on_c, 0, 80, 75
2, 14303, Note_on_c, 0, 80, 0
2, 14304, Note_on_c, 0, 80, 91
2, 14376, Note_on_c, 0, 80, 0
2, 14376, Note_on_c, 0, 79, 77
2, 14399, Note_on_c, 0, 79, 0
2, 14400, Note_on_c, 0, 79, 94
2, 14592, Note_on_c, 0, 79, 0
2, 14592, Note_on_c, 0, 79, 78
2, 14615, Note_on_c, 0, 79, 0
2, 14616, Note_on_c, 0, 77, 78
2, 14639, Note_on_c, 0, 77, 0
2, 14640, Note_on_c, 0, 75, 78
2, 14663, Note_on_c, 0, 75, 0
2, 14664, Note_on_c, 0, 74, 78
2, 14687, Note_on_c, 0, 74, 0
2, 14688, Note_on_c, 0, 77, 78
2, 14711, Note_on_c, 0, 77, 0
2, 14712, Note_on_c, 0, 75, 78
2, 14735, Note_on_c, 0, 75, 0
2, 14736, Note_on_c, 0, 74, 78
2, 14759, Note_on_c, 0, 74, 0
2, 14760, Note_on_c, 0, 72, 78
2, 14783, Note_on_c, 0, 72, 0
2, 14784, Note_on_c, 0, 71, 78
2, 14851, Note_on_c, 0, 71, 0
2, 14856, Note_on_c, 0, 72, 78
2, 14879, Note_on_c, 0, 72, 0
2, 14880, Note_on_c, 0, 74, 78
2, 14895, Note_on_c, 0, 74, 0
2, 14896, Note_on_c, 0, 72, 77
2, 14911, Note_on_c, 0, 72, 0
2, 14912, Note_on_c, 0, 74, 77
2, 14927, Note_on_c, 0, 74, 0
2, 14928, Note_on_c, 0, 72, 76
2, 14943, Note_on_c, 0, 72, 0
2, 14944, Note_on_c, 0, 71, 76
2, 14959, Note_on_c, 0, 71, 0
2, 14960, Note_on_c, 0, 72, 75
2, 14975, Note_on_c, 0, 72, 0
2, 14976, Note_on_c, 0, 72, 75
2, 15072, Note_on_c, 0, 72, 0
2, 15072, Note_on_c, 0, 74, 71
2, 15111, Note_on_c, 0, 74, 0
2, 15168, Note_on_c, 0, 60, 71
2, 15257, Note_on_c, 0, 60, 0
2, 15264, Note_on_c, 0, 65, 71
2, 15287, Note_on_c, 0, 65, 0
2, 15288, Note_on_c, 0, 63, 71
2, 15311, Note_on_c, 0, 63, 0
2, 15312, Note_on_c, 0, 62, 71
2, 15335, Note_on_c, 0, 62, 0
2, 15336, Note_on_c, 0, 60, 71
2, 15359, Note_on_c, 0, 60, 0
2, 15360, Note_on_c, 0, 59, 71
2, 15399, Note_on_c, 0, 59, 0
2, 15456, Note_on_c, 0, 62, 71
2, 15545, Note_on_c, 0, 62, 0
2, 15552, Note_on_c, 0, 67, 71
2, 15575, Note_on_c, 0, 67, 0
2, 15576, Note_on_c, 0, 65, 71
2, 15599, Note_on_c, 0, 65, 0
2, 15600, Note_on_c, 0, 63, 71
2, 15623, Note_on_c, 0, 63, 0
2, 15624, Note_on_c, 0, 62, 71
2, 15647, Note_on_c, 0, 62, 0
2, 15648, Note_on_c, 0, 60, 71
2, 15687, Note_on_c, 0, 60, 0
2, 15744, Note_on_c, 0, 72, 71
2, 15767, Note_on_c, 0, 72, 0
2, 15768, Note_on_c, 0, 71, 71
2, 15791, Note_on_c, 0, 71, 0
2, 15792, Note_on_c, 0, 74, 71
2, 15815, Note_on_c, 0, 74, 0
2, 15816, Note_on_c, 0, 72, 71
2, 15839, Note_on_c, 0, 72, 0
2, 15840, Note_on_c, 0, 75, 71
2, 15860, Note_on_c, 0, 75, 0
2, 15888, Note_on_c, 0, 74, 71
2, 15908, Note_on_c, 0, 74, 0
2, 15936, Note_on_c, 0, 72, 71
2, 15956, Note_on_c, 0, 72, 0
2, 15984, Note_on_c, 0, 70, 71
2, 16004, Note_on_c, 0, 70, 0
2, 16032, Note_on_c, 0, 68, 71
2, 16052, Note_on_c, 0, 68, 0
2, 16080, Note_on_c, 0, 67, 71
2, 16100, Note_on_c, 0, 67, 0
2, 16128, Note_on_c, 0, 67, 71
2, 16176, Note_on_c, 0, 67, 0
2, 16176, Note_on_c, 0, 66, 71
2, 16221, Note_on_c, 0, 66, 0
2, 16224, Note_on_c, 0, 74, 72
2, 16244, Note_on_c, 0, 74, 0
2, 16272, Note_on_c, 0, 65, 73
2, 16292, Note_on_c, 0, 65, 0
2, 16320, Note_on_c, 0, 65, 75
2, 16368, Note_on_c, 0, 65, 0
2, 16368, Note_on_c, 0, 63, 76
2, 16413, Note_on_c, 0, 63, 0
2, 16464, Note_on_c, 0, 62, 76
2, 16509, Note_on_c, 0, 62, 0
2, 16512, Note_on_c, 0, 65, 75
2, 16557, Note_on_c, 0, 65, 0
2, 16560, Note_on_c, 0, 68, 74
2, 16605, Note_on_c, 0, 68, 0
2, 16608, Note_on_c, 0, 67, 73
2, 16653, Note_on_c, 0, 67, 0
2, 16656, Note_on_c, 0, 59, 72
2, 16701, Note_on_c, 0, 59, 0
2, 16704, Note_on_c, 0, 60, 71
2, 16793, Note_on_c, 0, 60, 0
2, 17040, Note_on_c, 0, 75, 78
2, 17085, Note_on_c, 0, 75, 0
2, 17088, Note_on_c, 0, 74, 78
2, 17133, Note_on_c, 0, 74, 0
2, 17136, Note_on_c, 0, 72, 78
2, 17181, Note_on_c, 0, 72, 0
2, 17184, Note_on_c, 0, 70, 78
2, 17229, Note_on_c, 0, 70, 0
2, 17232, Note_on_c, 0, 68, 78
2, 17277, Note_on_c, 0, 68, 0
2, 17280, Note_on_c, 0, 67, 78
2, 17517, Note_on_c, 0, 67, 0
2, 17520, Note_on_c, 0, 68, 78
2, 17532, Note_on_c, 0, 68, 0
2, 17532, Note_on_c, 0, 67, 78
2, 17544, Note_on_c, 0, 67, 0
2, 17544, Note_on_c, 0, 68, 78
2, 17565, Note_on_c, 0, 68, 0
2, 17568, Note_on_c, 0, 70, 78
2, 17613, Note_on_c, 0, 70, 0
2, 17616, Note_on_c, 0, 67, 78
2, 17639, Note_on_c, 0, 67, 0
2, 17640, Note_on_c, 0, 70, 78
2, 17663, Note_on_c, 0, 70, 0
2, 17664, Note_on_c, 0, 65, 78
2, 17687, Note_on_c, 0, 65, 0
2, 17688, Note_on_c, 0, 70, 78
2, 17711, Note_on_c, 0, 70, 0
2, 17712, Note_on_c, 0, 63, 78
2, 17735, Note_on_c, 0, 63, 0
2, 17736, Note_on_c, 0, 70, 78
2, 17759, Note_on_c, 0, 70, 0
2, 17760, Note_on_c, 0, 62, 78
2, 17783, Note_on_c, 0, 62, 0
2, 17784, Note_on_c, 0, 70, 78
2, 17807, Note_on_c, 0, 70, 0
2, 17808, Note_on_c, 0, 60, 78
2, 17831, Note_on_c, 0, 60, 0
2, 17832, Note_on_c, 0, 70, 78
2, 17855, Note_on_c, 0, 70, 0
2, 17856, Note_on_c, 0, 58, 78
2, 17901, Note_on_c, 0, 58, 0
2, 17904, Note_on_c, 0, 75, 79
2, 17949, Note_on_c, 0, 75, 0
2, 17952, Note_on_c, 0, 79, 80
2, 17997, Note_on_c, 0, 79, 0
2, 18000, Note_on_c, 0, 75, 82
2, 18045, Note_on_c, 0, 75, 0
2, 18048, Note_on_c, 0, 74, 83
2, 18093, Note_on_c, 0, 74, 0
2, 18096, Note_on_c, 0, 72, 84
2, 18141, Note_on_c, 0, 72, 0
2, 18144, Note_on_c, 0, 70, 86
2, 18240, Note_on_c, 0, 70, 0
2, 18240, Note_on_c, 0, 69, 83
2, 18417, Note_on_c, 0, 69, 0
2, 18480, Note_on_c, 0, 68, 78
2, 18525, Note_on_c, 0, 68, 0
2, 18528, Note_on_c, 0, 77, 79
2, 18573, Note_on_c, 0, 77, 0
2, 18576, Note_on_c, 0, 74, 81
2, 18621, Note_on_c, 0, 74, 0
2, 18624, Note_on_c, 0, 70, 82
2, 18669, Note_on_c, 0, 70, 0
2, 18672, Note_on_c, 0, 68, 84
2, 18717, Note_on_c, 0, 68, 0
2, 18720, Note_on_c, 0, 68, 86
2, 18816, Note_on_c, 0, 68, 0
2, 18816, Note_on_c, 0, 67, 83
2, 19053, Note_on_c, 0, 67, 0
2, 19056, Note_on_c, 0, 65, 79
2, 19101, Note_on_c, 0, 65, 0
2, 19104, Note_on_c, 0, 72, 80
2, 19149, Note_on_c, 0, 72, 0
2, 19152, Note_on_c, 0, 68, 82
2, 19197, Note_on_c, 0, 68, 0
2, 19200, Note_on_c, 0, 65, 83
2, 19245, Note_on_c, 0, 65, 0
2, 19248, Note_on_c, 0, 63, 84
2, 19293, Note_on_c, 0, 63, 0
2, 19296, Note_on_c, 0, 62, 86
2, 19319, Note_on_c, 0, 62, 0
2, 19320, Note_on_c, 0, 65, 86
2, 19343, Note_on_c, 0, 65, 0
2, 19344, Note_on_c, 0, 63, 86
2, 19367, Note_on_c, 0, 63, 0
2, 19368, Note_on_c, 0, 67, 86
2, 19391, Note_on_c, 0, 67, 0
2, 19392, Note_on_c, 0, 65, 86
2, 19415, Note_on_c, 0, 65, 0
2, 19416, Note_on_c, 0, 68, 86
2, 19439, Note_on_c, 0, 68, 0
2, 19440, Note_on_c, 0, 67, 86
2, 19463, Note_on_c, 0, 67, 0
2, 19464, Note_on_c, 0, 70, 86
2, 19487, Note_on_c, 0, 70, 0
2, 19488, Note_on_c, 0, 68, 86
2, 19533, Note_on_c, 0, 68, 0
2, 19584, Note_on_c, 0, 63, 86
2, 19607, Note_on_c, 0, 63, 0
2, 19608, Note_on_c, 0, 67, 86
2, 19631, Note_on_c, 0, 67, 0
2, 19632, Note_on_c, 0, 65, 86
2, 19655, Note_on_c, 0, 65, 0
2, 19656, Note_on_c, 0, 68, 86
2, 19679, Note_on_c, 0, 68, 0
2, 19680, Note_on_c, 0, 67, 86
2, 19703, Note_on_c, 0, 67, 0
2, 19704, Note_on_c, 0, 70, 86
2, 19727, Note_on_c, 0, 70, 0
2, 19728, Note_on_c, 0, 68, 86
2, 19751, Note_on_c, 0, 68, 0
2, 19752, Note_on_c, 0, 72, 86
2, 19775, Note_on_c, 0, 72, 0
2, 19776, Note_on_c, 0, 70, 86
2, 19821, Note_on_c, 0, 70, 0
2, 19872, Note_on_c, 0, 70, 86
2, 19895, Note_on_c, 0, 70, 0
2, 19896, Note_on_c, 0, 74, 86
2, 19919, Note_on_c, 0, 74, 0
2, 19920, Note_on_c, 0, 72, 86
2, 19943, Note_on_c, 0, 72, 0
2, 19944, Note_on_c, 0, 75, 86
2, 19967, Note_on_c, 0, 75, 0
2, 19968, Note_on_c, 0, 74, 86
2, 19991, Note_on_c, 0, 74, 0
2, 19992, Note_on_c, 0, 77, 86
2, 20015, Note_on_c, 0, 77, 0
2, 20016, Note_on_c, 0, 75, 86
2, 20039, Note_on_c, 0, 75, 0
2, 20040, Note_on_c, 0, 79, 86
2, 20063, Note_on_c, 0, 79, 0
2, 20064, Note_on_c, 0, 77, 86
2, 20087, Note_on_c, 0, 77, 0
2, 20088, Note_on_c, 0, 80, 86
2, 20111, Note_on_c, 0, 80, 0
2, 20112, Note_on_c, 0, 79, 86
2, 20135, Note_on_c, 0, 79, 0
2, 20136, Note_on_c, 0, 82, 86
2, 20159, Note_on_c, 0, 82, 0
2, 20160, Note_on_c, 0, 80, 86
2, 20183, Note_on_c, 0, 80, 0
2, 20184, Note_on_c, 0, 82, 86
2, 20207, Note_on_c, 0, 82, 0
2, 20208, Note_on_c, 0, 84, 86
2, 20231, Note_on_c, 0, 84, 0
2, 20232, Note_on_c, 0, 82, 86
2, 20255, Note_on_c, 0, 82, 0
2, 20256, Note_on_c, 0, 80, 86
2, 20279, Note_on_c, 0, 80, 0
2, 20280, Note_on_c, 0, 79, 86
2, 20303, Note_on_c, 0, 79, 0
2, 20304, Note_on_c, 0, 77, 86
2, 20327, Note_on_c, 0, 77, 0
2, 20328, Note_on_c, 0, 75, 86
2, 20351, Note_on_c, 0, 75, 0
2, 20352, Note_on_c, 0, 74, 86
2, 20375, Note_on_c, 0, 74, 0
2, 20376, Note_on_c, 0, 72, 86
2, 20399, Note_on_c, 0, 72, 0
2, 20400, Note_on_c, 0, 70, 86
2, 20423, Note_on_c, 0, 70, 0
2, 20424, Note_on_c, 0, 68, 86
2, 20447, Note_on_c, 0, 68, 0
2, 20448, Note_on_c, 0, 67, 86
2, 20471, Note_on_c, 0, 67, 0
2, 20472, Note_on_c, 0, 70, 86
2, 20495, Note_on_c, 0, 70, 0
2, 20496, Note_on_c, 0, 68, 86
2, 20519, Note_on_c, 0, 68, 0
2, 20520, Note_on_c, 0, 72, 86
2, 20543, Note_on_c, 0, 72, 0
2, 20544, Note_on_c, 0, 70, 86
2, 20567, Note_on_c, 0, 70, 0
2, 20568, Note_on_c, 0, 74, 86
2, 20591, Note_on_c, 0, 74, 0
2, 20592, Note_on_c, 0, 72, 86
2, 20615, Note_on_c, 0, 72, 0
2, 20616, Note_on_c, 0, 75, 86
2, 20639, Note_on_c, 0, 75, 0
2, 20640, Note_on_c, 0, 74, 86
2, 20663, Note_on_c, 0, 74, 0
2, 20664, Note_on_c, 0, 77, 86
2, 20687, Note_on_c, 0, 77, 0
2, 20688, Note_on_c, 0, 75, 86
2, 20711, Note_on_c, 0, 75, 0
2, 20712, Note_on_c, 0, 79, 86
2, 20735, Note_on_c, 0, 79, 0
2, 20736, Note_on_c, 0, 77, 86
2, 20759, Note_on_c, 0, 77, 0
2, 20760, Note_on_c, 0, 79, 86
2, 20783, Note_on_c, 0, 79, 0
2, 20784, Note_on_c, 0, 80, 86
2, 20807, Note_on_c, 0, 80, 0
2, 20808, Note_on_c, 0, 79, 86
2, 20831, Note_on_c, 0, 79, 0
2, 20832, Note_on_c, 0, 77, 86
2, 20855, Note_on_c, 0, 77, 0
2, 20856, Note_on_c, 0, 75, 86
2, 20879, Note_on_c, 0, 75, 0
2, 20880, Note_on_c, 0, 74, 86
2, 20903, Note_on_c, 0, 74, 0
2, 20904, Note_on_c, 0, 72, 86
2, 20927, Note_on_c, 0, 72, 0
2, 20928, Note_on_c, 0, 70, 86
2, 20951, Note_on_c, 0, 70, 0
2, 20952, Note_on_c, 0, 68, 86
2, 20975, Note_on_c, 0, 68, 0
2, 20976, Note_on_c, 0, 67, 86
2, 20999, Note_on_c, 0, 67, 0
2, 21000, Note_on_c, 0, 65, 86
2, 21023, Note_on_c, 0, 65, 0
2, 21024, Note_on_c, 0, 63, 86
2, 21047, Note_on_c, 0, 63, 0
2, 21048, Note_on_c, 0, 62, 86
2, 21071, Note_on_c, 0, 62, 0
2, 21072, Note_on_c, 0, 63, 86
2, 21095, Note_on_c, 0, 63, 0
2, 21096, Note_on_c, 0, 68, 86
2, 21119, Note_on_c, 0, 68, 0
2, 21120, Note_on_c, 0, 63, 86
2, 21143, Note_on_c, 0, 63, 0
2, 21144, Note_on_c, 0, 62, 86
2, 21167, Note_on_c, 0, 62, 0
2, 21168, Note_on_c, 0, 63, 86
2, 21191, Note_on_c, 0, 63, 0
2, 21192, Note_on_c, 0, 67, 86
2, 21215, Note_on_c, 0, 67, 0
2, 21216, Note_on_c, 0, 63, 86
2, 21239, Note_on_c, 0, 63, 0
2, 21240, Note_on_c, 0, 62, 86
2, 21263, Note_on_c, 0, 62, 0
2, 21264, Note_on_c, 0, 63, 86
2, 21287, Note_on_c, 0, 63, 0
2, 21288, Note_on_c, 0, 72, 86
2, 21311, Note_on_c, 0, 72, 0
2, 21312, Note_on_c, 0, 63, 86
2, 21335, Note_on_c, 0, 63, 0
2, 21336, Note_on_c, 0, 62, 86
2, 21359, Note_on_c, 0, 62, 0
2, 21360, Note_on_c, 0, 63, 86
2, 21383, Note_on_c, 0, 63, 0
2, 21384, Note_on_c, 0, 70, 86
2, 21407, Note_on_c, 0, 70, 0
2, 21408, Note_on_c, 0, 63, 86
2, 21431, Note_on_c, 0, 63, 0
2, 21432, Note_on_c, 0, 62, 86
2, 21455, Note_on_c, 0, 62, 0
2, 21456, Note_on_c, 0, 63, 86
2, 21479, Note_on_c, 0, 63, 0
2, 21480, Note_on_c, 0, 68, 86
2, 21503, Note_on_c, 0, 68, 0
2, 21504, Note_on_c, 0, 63, 86
2, 21527, Note_on_c, 0, 63, 0
2, 21528, Note_on_c, 0, 62, 86
2, 21551, Note_on_c, 0, 62, 0
2, 21552, Note_on_c, 0, 63, 86
2, 21575, Note_on_c, 0, 63, 0
2, 21576, Note_on_c, 0, 67, 86
2, 21599, Note_on_c, 0, 67, 0
2, 21600, Note_on_c, 0, 63, 86
2, 21623, Note_on_c, 0, 63, 0
2, 21624, Note_on_c, 0, 62, 86
2, 21647, Note_on_c, 0, 62, 0
2, 21648, Note_on_c, 0, 63, 86
2, 21671, Note_on_c, 0, 63, 0
2, 21672, Note_on_c, 0, 68, 86
2, 21695, Note_on_c, 0, 68, 0
2, 21696, Note_on_c, 0, 63, 86
2, 21719, Note_on_c, 0, 63, 0
2, 21720, Note_on_c, 0, 62, 86
2, 21743, Note_on_c, 0, 62, 0
2, 21744, Note_on_c, 0, 63, 86
2, 21767, Note_on_c, 0, 63, 0
2, 21768, Note_on_c, 0, 67, 86
2, 21791, Note_on_c, 0, 67, 0
2, 21792, Note_on_c, 0, 63, 86
2, 21815, Note_on_c, 0, 63, 0
2, 21816, Note_on_c, 0, 62, 86
2, 21839, Note_on_c, 0, 62, 0
2, 21840, Note_on_c, 0, 63, 86
2, 21863, Note_on_c, 0, 63, 0
2, 21864, Note_on_c, 0, 72, 86
2, 21887, Note_on_c, 0, 72, 0
2, 21888, Note_on_c, 0, 63, 86
2, 21911, Note_on_c, 0, 63, 0
2, 21912, Note_on_c, 0, 62, 86
2, 21935, Note_on_c, 0, 62, 0
2, 21936, Note_on_c, 0, 63, 86
2, 21959, Note_on_c, 0, 63, 0
2, 21960, Note_on_c, 0, 70, 86
2, 21983, Note_on_c, 0, 70, 0
2, 21984, Note_on_c, 0, 63, 86
2, 22007, Note_on_c, 0, 63, 0
2, 22008, Note_on_c, 0, 62, 86
2, 22031, Note_on_c, 0, 62, 0
2, 22032, Note_on_c, 0, 63, 86
2, 22055, Note_on_c, 0, 63, 0
2, 22056, Note_on_c, 0, 68, 86
2, 22079, Note_on_c, 0, 68, 0
2, 22080, Note_on_c, 0, 63, 86
2, 22103, Note_on_c, 0, 63, 0
2, 22104, Note_on_c, 0, 62, 86
2, 22127, Note_on_c, 0, 62, 0
2, 22128, Note_on_c, 0, 63, 86
2, 22151, Note_on_c, 0, 63, 0
2, 22152, Note_on_c, 0, 67, 86
2, 22175, Note_on_c, 0, 67, 0
2, 22176, Note_on_c, 0, 63, 86
2, 22199, Note_on_c, 0, 63, 0
2, 22200, Note_on_c, 0, 62, 86
2, 22223, Note_on_c, 0, 62, 0
2, 22224, Note_on_c, 0, 63, 86
2, 22247, Note_on_c, 0, 63, 0
2, 22248, Note_on_c, 0, 66, 86
2, 22271, Note_on_c, 0, 66, 0
2, 22272, Note_on_c, 0, 63, 86
2, 22295, Note_on_c, 0, 63, 0
2, 22296, Note_on_c, 0, 62, 86
2, 22319, Note_on_c, 0, 62, 0
2, 22320, Note_on_c, 0, 63, 86
2, 22343, Note_on_c, 0, 63, 0
2, 22344, Note_on_c, 0, 66, 86
2, 22367, Note_on_c, 0, 66, 0
2, 22368, Note_on_c, 0, 63, 86
2, 22391, Note_on_c, 0, 63, 0
2, 22392, Note_on_c, 0, 62, 86
2, 22415, Note_on_c, 0, 62, 0
2, 22416, Note_on_c, 0, 63, 86
2, 22439, Note_on_c, 0, 63, 0
2, 22440, Note_on_c, 0, 66, 86
2, 22463, Note_on_c, 0, 66, 0
2, 22464, Note_on_c, 0, 62, 86
2, 22487, Note_on_c, 0, 62, 0
2, 22488, Note_on_c, 0, 65, 86
2, 22511, Note_on_c, 0, 65, 0
2, 22512, Note_on_c, 0, 68, 86
2, 22535, Note_on_c, 0, 68, 0
2, 22536, Note_on_c, 0, 72, 86
2, 22559, Note_on_c, 0, 72, 0
2, 22560, Note_on_c, 0, 70, 86
2, 22583, Note_on_c, 0, 70, 0
2, 22584, Note_on_c, 0, 68, 86
2, 22607, Note_on_c, 0, 68, 0
2, 22608, Note_on_c, 0, 67, 86
2, 22631, Note_on_c, 0, 67, 0
2, 22632, Note_on_c, 0, 65, 86
2, 22655, Note_on_c, 0, 65, 0
2, 22656, Note_on_c, 0, 63, 86
2, 22679, Note_on_c, 0, 63, 0
2, 22680, Note_on_c, 0, 62, 86
2, 22703, Note_on_c, 0, 62, 0
2, 22704, Note_on_c, 0, 60, 86
2, 22727, Note_on_c, 0, 60, 0
2, 22728, Note_on_c, 0, 58, 86
2, 22751, Note_on_c, 0, 58, 0
2, 22992, Note_on_c, 0, 82, 86
2, 23085, Note_on_c, 0, 82, 0
2, 23088, Note_on_c, 0, 80, 86
2, 23177, Note_on_c, 0, 80, 0
2, 23184, Note_on_c, 0, 79, 82
2, 23273, Note_on_c, 0, 79, 0
2, 23280, Note_on_c, 0, 77, 79
2, 23325, Note_on_c, 0, 77, 0
2, 23328, Note_on_c, 0, 75, 78
2, 23351, Note_on_c, 0, 75, 0
2, 23352, Note_on_c, 0, 68, 78
2, 23375, Note_on_c, 0, 68, 0
2, 23376, Note_on_c, 0, 67, 78
2, 23399, Note_on_c, 0, 67, 0
2, 23400, Note_on_c, 0, 68, 78
2, 23423, Note_on_c, 0, 68, 0
2, 23424, Note_on_c, 0, 74, 78
2, 23447, Note_on_c, 0, 74, 0
2, 23448, Note_on_c, 0, 67, 78
2, 23471, Note_on_c, 0, 67, 0
2, 23472, Note_on_c, 0, 66, 78
2, 23495, Note_on_c, 0, 66, 0
2, 23496, Note_on_c, 0, 67, 78
2, 23519, Note_on_c, 0, 67, 0
2, 23520, Note_on_c, 0, 72, 78
2, 23543, Note_on_c, 0, 72, 0
2, 23544, Note_on_c, 0, 65, 78
2, 23567, Note_on_c, 0, 65, 0
2, 23568, Note_on_c, 0, 64, 78
2, 23591, Note_on_c, 0, 64, 0
2, 23592, Note_on_c, 0, 65, 78
2, 23615, Note_on_c, 0, 65, 0
2, 23616, Note_on_c, 0, 70, 78
2, 23639, Note_on_c, 0, 70, 0
2, 23640, Note_on_c, 0, 63, 78
2, 23663, Note_on_c, 0, 63, 0
2, 23664, Note_on_c, 0, 62, 78
2, 23687, Note_on_c, 0, 62, 0
2, 23688, Note_on_c, 0, 63, 78
2, 23711, Note_on_c, 0, 63, 0
2, 23712, Note_on_c, 0, 68, 78
2, 23735, Note_on_c, 0, 68, 0
2, 23736, Note_on_c, 0, 62, 78
2, 23759, Note_on_c, 0, 62, 0
2, 23760, Note_on_c, 0, 61, 78
2, 23783, Note_on_c, 0, 61, 0
2, 23784, Note_on_c, 0, 62, 78
2, 23807, Note_on_c, 0, 62, 0
2, 23808, Note_on_c, 0, 67, 78
2, 23831, Note_on_c, 0, 67, 0
2, 23832, Note_on_c, 0, 63, 78
2, 23855, Note_on_c, 0, 63, 0
2, 23856, Note_on_c, 0, 62, 78
2, 23879, Note_on_c, 0, 62, 0
2, 23880, Note_on_c, 0, 63, 78
2, 23903, Note_on_c, 0, 63, 0
2, 23952, Note_on_c, 0, 59, 78
2, 23972, Note_on_c, 0, 59, 0
2, 24000, Note_on_c, 0, 60, 79
2, 24020, Note_on_c, 0, 60, 0
2, 24048, Note_on_c, 0, 62, 81
2, 24068, Note_on_c, 0, 62, 0
2, 24096, Note_on_c, 0, 63, 82
2, 24116, Note_on_c, 0, 63, 0
2, 24144, Note_on_c, 0, 64, 84
2, 24164, Note_on_c, 0, 64, 0
2, 24192, Note_on_c, 0, 65, 86
2, 24212, Note_on_c, 0, 65, 0
2, 24240, Note_on_c, 0, 67, 84
2, 24285, Note_on_c, 0, 67, 0
2, 24288, Note_on_c, 0, 70, 83
2, 24333, Note_on_c, 0, 70, 0
2, 24336, Note_on_c, 0, 68, 82
2, 24381, Note_on_c, 0, 68, 0
2, 24384, Note_on_c, 0, 67, 80
2, 24429, Note_on_c, 0, 67, 0
2, 24432, Note_on_c, 0, 65, 79
2, 24477, Note_on_c, 0, 65, 0
2, 24480, Note_on_c, 0, 67, 78
2, 24813, Note_on_c, 0, 67, 0
2, 24816, Note_on_c, 0, 70, 78
2, 24861, Note_on_c, 0, 70, 0
2, 24864, Note_on_c, 0, 70, 78
2, 24909, Note_on_c, 0, 70, 0
2, 24912, Note_on_c, 0, 68, 78
2, 24957, Note_on_c, 0, 68, 0
2, 24960, Note_on_c, 0, 67, 78
2, 25005, Note_on_c, 0, 67, 0
2, 25008, Note_on_c, 0, 65, 78
2, 25053, Note_on_c, 0, 65, 0
2, 25056, Note_on_c, 0, 63, 78
2, 25965, Note_on_c, 0, 63, 0
2, 25968, Note_on_c, 0, 72, 78
2, 26013, Note_on_c, 0, 72, 0
2, 26016, Note_on_c, 0, 70, 78
2, 26061, Note_on_c, 0, 70, 0
2, 26064, Note_on_c, 0, 68, 78
2, 26109, Note_on_c, 0, 68, 0
2, 26112, Note_on_c, 0, 67, 78
2, 26157, Note_on_c, 0, 67, 0
2, 26160, Note_on_c, 0, 65, 78
2, 26205, Note_on_c, 0, 65, 0
2, 26208, Note_on_c, 0, 65, 78
2, 26496, Note_on_c, 0, 65, 0
2, 26496, Note_on_c, 0, 67, 72
2, 26590, Note_on_c, 0, 67, 0
2, 26688, Note_on_c, 0, 75, 87
2, 26784, Note_on_c, 0, 75, 0
2, 26784, Note_on_c, 0, 80, 78
2, 26807, Note_on_c, 0, 80, 0
2, 26808, Note_on_c, 0, 79, 78
2, 26831, Note_on_c, 0, 79, 0
2, 26832, Note_on_c, 0, 77, 78
2, 26855, Note_on_c, 0, 77, 0
2, 26856, Note_on_c, 0, 75, 78
2, 26879, Note_on_c, 0, 75, 0
2, 26880, Note_on_c, 0, 74, 78
2, 26919, Note_on_c, 0, 74, 0
2, 26976, Note_on_c, 0, 77, 78
2, 27065, Note_on_c, 0, 77, 0
2, 27072, Note_on_c, 0, 82, 78
2, 27095, Note_on_c, 0, 82, 0
2, 27096, Note_on_c, 0, 80, 78
2, 27119, Note_on_c, 0, 80, 0
2, 27120, Note_on_c, 0, 79, 78
2, 27143, Note_on_c, 0, 79, 0
2, 27144, Note_on_c, 0, 77, 78
2, 27167, Note_on_c, 0, 77, 0
2, 27168, Note_on_c, 0, 75, 78
2, 27207, Note_on_c, 0, 75, 0
2, 27264, Note_on_c, 0, 82, 78
2, 27331, Note_on_c, 0, 82, 0
2, 27336, Note_on_c, 0, 87, 79
2, 27359, Note_on_c, 0, 87, 0
2, 27360, Note_on_c, 0, 87, 96
2, 27432, Note_on_c, 0, 87, 0
2, 27432, Note_on_c, 0, 86, 81
2, 27455, Note_on_c, 0, 86, 0
2, 27456, Note_on_c, 0, 86, 98
2, 27528, Note_on_c, 0, 86, 0
2, 27528, Note_on_c, 0, 84, 83
2, 27551, Note_on_c, 0, 84, 0
2, 27552, Note_on_c, 0, 84, 100
2, 27624, Note_on_c, 0, 84, 0
2, 27624, Note_on_c, 0, 82, 85
2, 27647, Note_on_c, 0, 82, 0
2, 27648, Note_on_c, 0, 82, 102
2, 27840, Note_on_c, 0, 82, 0
2, 27840, Note_on_c, 0, 82, 86
2, 27863, Note_on_c, 0, 82, 0
2, 27864, Note_on_c, 0, 80, 86
2, 27887, Note_on_c, 0, 80, 0
2, 27888, Note_on_c, 0, 79, 86
2, 27911, Note_on_c, 0, 79, 0
2, 27912, Note_on_c, 0, 77, 86
2, 27935, Note_on_c, 0, 77, 0
2, 27936, Note_on_c, 0, 80, 86
2, 27959, Note_on_c, 0, 80, 0
2, 27960, Note_on_c, 0, 79, 86
2, 27983, Note_on_c, 0, 79, 0
2, 27984, Note_on_c, 0, 77, 86
2, 28007, Note_on_c, 0, 77, 0
2, 28008, Note_on_c, 0, 75, 86
2, 28031, Note_on_c, 0, 75, 0
2, 28032, Note_on_c, 0, 74, 86
2, 28099, Note_on_c, 0, 74, 0
2, 28104, Note_on_c, 0, 75, 86
2, 28127, Note_on_c, 0, 75, 0
2, 28128, Note_on_c, 0, 77, 86
2, 28143, Note_on_c, 0, 77, 0
2, 28144, Note_on_c, 0, 75, 85
2, 28159, Note_on_c, 0, 75, 0
2, 28160, Note_on_c, 0, 77, 84
2, 28175, Note_on_c, 0, 77, 0
2, 28176, Note_on_c, 0, 75, 83
2, 28191, Note_on_c, 0, 75, 0
2, 28192, Note_on_c, 0, 74, 82
2, 28207, Note_on_c, 0, 74, 0
2, 28208, Note_on_c, 0, 75, 81
2, 28223, Note_on_c, 0, 75, 0
2, 28224, Note_on_c, 0, 75, 78
2, 28320, Note_on_c, 0, 75, 0
2, 28320, Note_on_c, 0, 77, 78
2, 28359, Note_on_c, 0, 77, 0
2, 28704, Note_on_c, 0, 65, 94
2, 28800, Note_on_c, 0, 65, 0
2, 28800, Note_on_c, 0, 70, 78
2, 28823, Note_on_c, 0, 70, 0
2, 28824, Note_on_c, 0, 68, 78
2, 28847, Note_on_c, 0, 68, 0
2, 28848, Note_on_c, 0, 67, 78
2, 28871, Note_on_c, 0, 67, 0
2, 28872, Note_on_c, 0, 65, 78
2, 28895, Note_on_c, 0, 65, 0
2, 28896, Note_on_c, 0, 64, 78
2, 28935, Note_on_c, 0, 64, 0
2, 28992, Note_on_c, 0, 64, 78
2, 29015, Note_on_c, 0, 64, 0
2, 29016, Note_on_c, 0, 65, 80
2, 29039, Note_on_c, 0, 65, 0
2, 29040, Note_on_c, 0, 67, 82
2, 29063, Note_on_c, 0, 67, 0
2, 29064, Note_on_c, 0, 68, 84
2, 29087, Note_on_c, 0, 68, 0
2, 29088, Note_on_c, 0, 72, 86
2, 29111, Note_on_c, 0, 72, 0
2, 29112, Note_on_c, 0, 70, 84
2, 29135, Note_on_c, 0, 70, 0
2, 29136, Note_on_c, 0, 68, 82
2, 29159, Note_on_c, 0, 68, 0
2, 29160, Note_on_c, 0, 67, 80
2, 29183, Note_on_c, 0, 67, 0
2, 29184, Note_on_c, 0, 65, 78
2, 29223, Note_on_c, 0, 65, 0
2, 29280, Note_on_c, 0, 77, 78
2, 29303, Note_on_c, 0, 77, 0
2, 29304, Note_on_c, 0, 76, 80
2, 29327, Note_on_c, 0, 76, 0
2, 29328, Note_on_c, 0, 79, 82
2, 29351, Note_on_c, 0, 79, 0
2, 29352, Note_on_c, 0, 77, 84
2, 29375, Note_on_c, 0, 77, 0
2, 29376, Note_on_c, 0, 80, 86
2, 29396, Note_on_c, 0, 80, 0
2, 29424, Note_on_c, 0, 79, 84
2, 29444, Note_on_c, 0, 79, 0
2, 29472, Note_on_c, 0, 77, 82
2, 29492, Note_on_c, 0, 77, 0
2, 29520, Note_on_c, 0, 75, 81
2, 29540, Note_on_c, 0, 75, 0
2, 29568, Note_on_c, 0, 74, 79
2, 29588, Note_on_c, 0, 74, 0
2, 29616, Note_on_c, 0, 72, 78
2, 29636, Note_on_c, 0, 72, 0
2, 29664, Note_on_c, 0, 72, 94
2, 29760, Note_on_c, 0, 72, 0
2, 29760, Note_on_c, 0, 71, 78
2, 29780, Note_on_c, 0, 71, 0
2, 29808, Note_on_c, 0, 80, 78
2, 29828, Note_on_c, 0, 80, 0
2, 29856, Note_on_c, 0, 79, 74
2, 29876, Note_on_c, 0, 79, 0
2, 29904, Note_on_c, 0, 77, 71
2, 29924, Note_on_c, 0, 77, 0
2, 29952, Note_on_c, 0, 77, 89
2, 30048, Note_on_c, 0, 77, 0
2, 30048, Note_on_c, 0, 75, 78
2, 30068, Note_on_c, 0, 75, 0
2, 30096, Note_on_c, 0, 74, 75
2, 30116, Note_on_c, 0, 74, 0
2, 30144, Note_on_c, 0, 72, 73
2, 30164, Note_on_c, 0, 72, 0
2, 30192, Note_on_c, 0, 70, 71
2, 30212, Note_on_c, 0, 70, 0
2, 30240, Note_on_c, 0, 70, 88
2, 30336, Note_on_c, 0, 70, 0
2, 30336, Note_on_c, 0, 69, 76
2, 30356, Note_on_c, 0, 69, 0
2, 30384, Note_on_c, 0, 79, 78
2, 30404, Note_on_c, 0, 79, 0
2, 30432, Note_on_c, 0, 77, 77
2, 30452, Note_on_c, 0, 77, 0
2, 30480, Note_on_c, 0, 75, 76
2, 30500, Note_on_c, 0, 75, 0
2, 30528, Note_on_c, 0, 75, 91
2, 30624, Note_on_c, 0, 75, 0
2, 30624, Note_on_c, 0, 74, 74
2, 30644, Note_on_c, 0, 74, 0
2, 30672, Note_on_c, 0, 72, 78
2, 30692, Note_on_c, 0, 72, 0
2, 30720, Note_on_c, 0, 70, 77
2, 30740, Note_on_c, 0, 70, 0
2, 30768, Note_on_c, 0, 69, 76
2, 30788, Note_on_c, 0, 69, 0
2, 30816, Note_on_c, 0, 69, 91
2, 30912, Note_on_c, 0, 69, 0
2, 30912, Note_on_c, 0, 67, 78
2, 30932, Note_on_c, 0, 67, 0
2, 30960, Note_on_c, 0, 77, 78
2, 30980, Note_on_c, 0, 77, 0
2, 31008, Note_on_c, 0, 75, 75
2, 31028, Note_on_c, 0, 75, 0
2, 31056, Note_on_c, 0, 74, 73
2, 31076, Note_on_c, 0, 74, 0
2, 31104, Note_on_c, 0, 74, 87
2, 31200, Note_on_c, 0, 74, 0
2, 31200, Note_on_c, 0, 72, 75
2, 31220, Note_on_c, 0, 72, 0
2, 31248, Note_on_c, 0, 70, 78
2, 31268, Note_on_c, 0, 70, 0
2, 31296, Note_on_c, 0, 69, 74
2, 31316, Note_on_c, 0, 69, 0
2, 31344, Note_on_c, 0, 67, 71
2, 31364, Note_on_c, 0, 67, 0
2, 31392, Note_on_c, 0, 67, 89
2, 31488, Note_on_c, 0, 67, 0
2, 31488, Note_on_c, 0, 66, 78
2, 31508, Note_on_c, 0, 66, 0
2, 31536, Note_on_c, 0, 75, 78
2, 31556, Note_on_c, 0, 75, 0
2, 31584, Note_on_c, 0, 74, 79
2, 31604, Note_on_c, 0, 74, 0
2, 31632, Note_on_c, 0, 72, 81
2, 31652, Note_on_c, 0, 72, 0
2, 31680, Note_on_c, 0, 72, 98
2, 31728, Note_on_c, 0, 72, 0
2, 31728, Note_on_c, 0, 70, 84
2, 31773, Note_on_c, 0, 70, 0
2, 31776, Note_on_c, 0, 79, 86
2, 31815, Note_on_c, 0, 79, 0
2, 31920, Note_on_c, 0, 55, 86
2, 31965, Note_on_c, 0, 55, 0
2, 31968, Note_on_c, 0, 54, 86
2, 31991, Note_on_c, 0, 54, 0
2, 31992, Note_on_c, 0, 57, 86
2, 32015, Note_on_c, 0, 57, 0
2, 32016, Note_on_c, 0, 55, 86
2, 32039, Note_on_c, 0, 55, 0
2, 32040, Note_on_c, 0, 58, 86
2, 32063, Note_on_c, 0, 58, 0
2, 32064, Note_on_c, 0, 57, 86
2, 32087, Note_on_c, 0, 57, 0
2, 32088, Note_on_c, 0, 60, 86
2, 32111, Note_on_c, 0, 60, 0
2, 32112, Note_on_c, 0, 58, 86
2, 32135, Note_on_c, 0, 58, 0
2, 32136, Note_on_c, 0, 62, 86
2, 32159, Note_on_c, 0, 62, 0
2, 32160, Note_on_c, 0, 60, 86
2, 32180, Note_on_c, 0, 60, 0
2, 32256, Note_on_c, 0, 55, 86
2, 32279, Note_on_c, 0, 55, 0
2, 32280, Note_on_c, 0, 58, 86
2, 32303, Note_on_c, 0, 58, 0
2, 32304, Note_on_c, 0, 57, 86
2, 32327, Note_on_c, 0, 57, 0
2, 32328, Note_on_c, 0, 60, 86
2, 32351, Note_on_c, 0, 60, 0
2, 32352, Note_on_c, 0, 58, 86
2, 32375, Note_on_c, 0, 58, 0
2, 32376, Note_on_c, 0, 62, 86
2, 32399, Note_on_c, 0, 62, 0
2, 32400, Note_on_c, 0, 60, 86
2, 32423, Note_on_c, 0, 60, 0
2, 32424, Note_on_c, 0, 63, 86
2, 32447, Note_on_c, 0, 63, 0
2, 32448, Note_on_c, 0, 62, 86
2, 32468, Note_on_c, 0, 62, 0
2, 32544, Note_on_c, 0, 54, 86
2, 32567, Note_on_c, 0, 54, 0
2, 32568, Note_on_c, 0, 57, 86
2, 32591, Note_on_c, 0, 57, 0
2, 32592, Note_on_c, 0, 55, 86
2, 32615, Note_on_c, 0, 55, 0
2, 32616, Note_on_c, 0, 58, 86
2, 32639, Note_on_c, 0, 58, 0
2, 32640, Note_on_c, 0, 57, 86
2, 32663, Note_on_c, 0, 57, 0
2, 32664, Note_on_c, 0, 60, 86
2, 32687, Note_on_c, 0, 60, 0
2, 32688, Note_on_c, 0, 58, 86
2, 32711, Note_on_c, 0, 58, 0
2, 32712, Note_on_c, 0, 62, 86
2, 32735, Note_on_c, 0, 62, 0
2, 32736, Note_on_c, 0, 60, 86
2, 32759, Note_on_c, 0, 60, 0
2, 32760, Note_on_c, 0, 63, 86
2, 32783, Note_on_c, 0, 63, 0
2, 32784, Note_on_c, 0, 62, 86
2, 32807, Note_on_c, 0, 62, 0
2, 32808, Note_on_c, 0, 60, 86
2, 32831, Note_on_c, 0, 60, 0
2, 32832, Note_on_c, 0, 58, 86
2, 32855, Note_on_c, 0, 58, 0
2, 32856, Note_on_c, 0, 62, 86
2, 32879, Note_on_c, 0, 62, 0
2, 32880, Note_on_c, 0, 60, 86
2, 32903, Note_on_c, 0, 60, 0
2, 32904, Note_on_c, 0, 63, 86
2, 32927, Note_on_c, 0, 63, 0
2, 32928, Note_on_c, 0, 62, 86
2, 32951, Note_on_c, 0, 62, 0
2, 32952, Note_on_c, 0, 67, 86
2, 32975, Note_on_c, 0, 67, 0
2, 32976, Note_on_c, 0, 66, 86
2, 32999, Note_on_c, 0, 66, 0
2, 33000, Note_on_c, 0, 69, 86
2, 33023, Note_on_c, 0, 69, 0
2, 33024, Note_on_c, 0, 67, 86
2, 33047, Note_on_c, 0, 67, 0
2, 33048, Note_on_c, 0, 70, 86
2, 33071, Note_on_c, 0, 70, 0
2, 33072, Note_on_c, 0, 69, 86
2, 33095, Note_on_c, 0, 69, 0
2, 33096, Note_on_c, 0, 67, 86
2, 33119, Note_on_c, 0, 67, 0
2, 33120, Note_on_c, 0, 66, 86
2, 33143, Note_on_c, 0, 66, 0
2, 33144, Note_on_c, 0, 69, 86
2, 33167, Note_on_c, 0, 69, 0
2, 33168, Note_on_c, 0, 67, 86
2, 33191, Note_on_c, 0, 67, 0
2, 33192, Note_on_c, 0, 70, 86
2, 33215, Note_on_c, 0, 70, 0
2, 33216, Note_on_c, 0, 69, 86
2, 33239, Note_on_c, 0, 69, 0
2, 33240, Note_on_c, 0, 72, 86
2, 33263, Note_on_c, 0, 72, 0
2, 33264, Note_on_c, 0, 70, 86
2, 33287, Note_on_c, 0, 70, 0
2, 33288, Note_on_c, 0, 74, 86
2, 33311, Note_on_c, 0, 74, 0
2, 33312, Note_on_c, 0, 72, 86
2, 33335, Note_on_c, 0, 72, 0
2, 33336, Note_on_c, 0, 75, 86
2, 33359, Note_on_c, 0, 75, 0
2, 33360, Note_on_c, 0, 74, 86
2, 33383, Note_on_c, 0, 74, 0
2, 33384, Note_on_c, 0, 72, 86
2, 33407, Note_on_c, 0, 72, 0
2, 33408, Note_on_c, 0, 70, 86
2, 33431, Note_on_c, 0, 70, 0
2, 33432, Note_on_c, 0, 74, 86
2, 33455, Note_on_c, 0, 74, 0
2, 33456, Note_on_c, 0, 72, 86
2, 33479, Note_on_c, 0, 72, 0
2, 33480, Note_on_c, 0, 75, 86
2, 33503, Note_on_c, 0, 75, 0
2, 33504, Note_on_c, 0, 74, 86
2, 33527, Note_on_c, 0, 74, 0
2, 33528, Note_on_c, 0, 79, 86
2, 33551, Note_on_c, 0, 79, 0
2, 33552, Note_on_c, 0, 78, 86
2, 33575, Note_on_c, 0, 78, 0
2, 33576, Note_on_c, 0, 81, 86
2, 33599, Note_on_c, 0, 81, 0
2, 33600, Note_on_c, 0, 79, 86
2, 33623, Note_on_c, 0, 79, 0
2, 33624, Note_on_c, 0, 82, 86
2, 33647, Note_on_c, 0, 82, 0
2, 33648, Note_on_c, 0, 81, 86
2, 33671, Note_on_c, 0, 81, 0
2, 33672, Note_on_c, 0, 79, 86
2, 33695, Note_on_c, 0, 79, 0
2, 33696, Note_on_c, 0, 78, 86
2, 33719, Note_on_c, 0, 78, 0
2, 33720, Note_on_c, 0, 81, 86
2, 33743, Note_on_c, 0, 81, 0
2, 33744, Note_on_c, 0, 79, 86
2, 33767, Note_on_c, 0, 79, 0
2, 33768, Note_on_c, 0, 82, 86
2, 33791, Note_on_c, 0, 82, 0
2, 33792, Note_on_c, 0, 81, 86
2, 33815, Note_on_c, 0, 81, 0
2, 33816, Note_on_c, 0, 84, 86
2, 33839, Note_on_c, 0, 84, 0
2, 33840, Note_on_c, 0, 82, 86
2, 33863, Note_on_c, 0, 82, 0
2, 33864, Note_on_c, 0, 86, 86
2, 33887, Note_on_c, 0, 86, 0
2, 33888, Note_on_c, 0, 84, 86
2, 33911, Note_on_c, 0, 84, 0
2, 33912, Note_on_c, 0, 87, 86
2, 33935, Note_on_c, 0, 87, 0
2, 33936, Note_on_c, 0, 86, 86
2, 33959, Note_on_c, 0, 86, 0
2, 33960, Note_on_c, 0, 84, 86
2, 33983, Note_on_c, 0, 84, 0
2, 33984, Note_on_c, 0, 82, 86
2, 34007, Note_on_c, 0, 82, 0
2, 34008, Note_on_c, 0, 84, 86
2, 34031, Note_on_c, 0, 84, 0
2, 34032, Note_on_c, 0, 86, 86
2, 34055, Note_on_c, 0, 86, 0
2, 34056, Note_on_c, 0, 84, 86
2, 34079, Note_on_c, 0, 84, 0
2, 34080, Note_on_c, 0, 82, 86
2, 34103, Note_on_c, 0, 82, 0
2, 34104, Note_on_c, 0, 81, 86
2, 34127, Note_on_c, 0, 81, 0
2, 34128, Note_on_c, 0, 79, 86
2, 34151, Note_on_c, 0, 79, 0
2, 34152, Note_on_c, 0, 78, 86
2, 34175, Note_on_c, 0, 78, 0
2, 34176, Note_on_c, 0, 79, 86
2, 34199, Note_on_c, 0, 79, 0
2, 34200, Note_on_c, 0, 77, 86
2, 34223, Note_on_c, 0, 77, 0
2, 34224, Note_on_c, 0, 75, 86
2, 34247, Note_on_c, 0, 75, 0
2, 34248, Note_on_c, 0, 74, 86
2, 34271, Note_on_c, 0, 74, 0
2, 34272, Note_on_c, 0, 77, 86
2, 34295, Note_on_c, 0, 77, 0
2, 34296, Note_on_c, 0, 75, 86
2, 34319, Note_on_c, 0, 75, 0
2, 34320, Note_on_c, 0, 74, 86
2, 34343, Note_on_c, 0, 74, 0
2, 34344, Note_on_c, 0, 72, 86
2, 34367, Note_on_c, 0, 72, 0
2, 34368, Note_on_c, 0, 70, 86
2, 34457, Note_on_c, 0, 70, 0
2, 34464, Note_on_c, 0, 70, 86
2, 34479, Note_on_c, 0, 70, 0
2, 34480, Note_on_c, 0, 69, 86
2, 34495, Note_on_c, 0, 69, 0
2, 34496, Note_on_c, 0, 70, 86
2, 34511, Note_on_c, 0, 70, 0
2, 34512, Note_on_c, 0, 69, 86
2, 34527, Note_on_c, 0, 69, 0
2, 34528, Note_on_c, 0, 67, 86
2, 34543, Note_on_c, 0, 67, 0
2, 34544, Note_on_c, 0, 69, 86
2, 34559, Note_on_c, 0, 69, 0
2, 34560, Note_on_c, 0, 67, 86
2, 34649, Note_on_c, 0, 67, 0
2, 34704, Note_on_c, 0, 79, 86
2, 34704, Note_on_c, 0, 75, 86
2, 34749, Note_on_c, 0, 79, 0
2, 34749, Note_on_c, 0, 75, 0
2, 34752, Note_on_c, 0, 77, 86
2, 34752, Note_on_c, 0, 74, 86
2, 34797, Note_on_c, 0, 77, 0
2, 34797, Note_on_c, 0, 74, 0
2, 34800, Note_on_c, 0, 75, 86
2, 34800, Note_on_c, 0, 72, 86
2, 34845, Note_on_c, 0, 75, 0
2, 34845, Note_on_c, 0, 72, 0
2, 34848, Note_on_c, 0, 74, 86
2, 34848, Note_on_c, 0, 71, 86
2, 34937, Note_on_c, 0, 74, 0
2, 34937, Note_on_c, 0, 71, 0
2, 34992, Note_on_c, 0, 75, 86
2, 34992, Note_on_c, 0, 72, 86
2, 35037, Note_on_c, 0, 75, 0
2, 35037, Note_on_c, 0, 72, 0
2, 35040, Note_on_c, 0, 74, 86
2, 35040, Note_on_c, 0, 71, 86
2, 35085, Note_on_c, 0, 74, 0
2, 35085, Note_on_c, 0, 71, 0
2, 35088, Note_on_c, 0, 72, 86
2, 35088, Note_on_c, 0, 69, 86
2, 35133, Note_on_c, 0, 72, 0
2, 35133, Note_on_c, 0, 69, 0
2, 35136, Note_on_c, 0, 71, 86
2, 35136, Note_on_c, 0, 67, 86
2, 35225, Note_on_c, 0, 71, 0
2, 35225, Note_on_c, 0, 67, 0
2, 35280, Note_on_c, 0, 67, 86
2, 35280, Note_on_c, 0, 63, 86
2, 35325, Note_on_c, 0, 67, 0
2, 35325, Note_on_c, 0, 63, 0
2, 35328, Note_on_c, 0, 65, 86
2, 35328, Note_on_c, 0, 62, 86
2, 35373, Note_on_c, 0, 65, 0
2, 35373, Note_on_c, 0, 62, 0
2, 35376, Note_on_c, 0, 63, 86
2, 35376, Note_on_c, 0, 60, 86
2, 35421, Note_on_c, 0, 63, 0
2, 35421, Note_on_c, 0, 60, 0
2, 35424, Note_on_c, 0, 62, 86
2, 35424, Note_on_c, 0, 59, 86
2, 35513, Note_on_c, 0, 62, 0
2, 35513, Note_on_c, 0, 59, 0
2, 35568, Note_on_c, 0, 51, 86
2, 35568, Note_on_c, 0, 48, 86
2, 35613, Note_on_c, 0, 51, 0
2, 35613, Note_on_c, 0, 48, 0
2, 35616, Note_on_c, 0, 50, 86
2, 35616, Note_on_c, 0, 47, 86
2, 35661, Note_on_c, 0, 50, 0
2, 35661, Note_on_c, 0, 47, 0
2, 35664, Note_on_c, 0, 48, 86
2, 35664, Note_on_c, 0, 45, 86
2, 35709, Note_on_c, 0, 48, 0
2, 35709, Note_on_c, 0, 45, 0
2, 35712, Note_on_c, 0, 47, 86
2, 35712, Note_on_c, 0, 43, 86
2, 35801, Note_on_c, 0, 47, 0
2, 35801, Note_on_c, 0, 43, 0
2, 35856, Note_on_c, 0, 71, 86
2, 35901, Note_on_c, 0, 71, 0
2, 35904, Note_on_c, 0, 72, 86
2, 35949, Note_on_c, 0, 72, 0
2, 35952, Note_on_c, 0, 74, 86
2, 35997, Note_on_c, 0, 74, 0
2, 36000, Note_on_c, 0, 77, 86
2, 36023, Note_on_c, 0, 77, 0
2, 36024, Note_on_c, 0, 75, 86
2, 36047, Note_on_c, 0, 75, 0
2, 36048, Note_on_c, 0, 74, 86
2, 36071, Note_on_c, 0, 74, 0
2, 36072, Note_on_c, 0, 72, 86
2, 36095, Note_on_c, 0, 72, 0
2, 36096, Note_on_c, 0, 71, 86
2, 36144, Note_on_c, 0, 71, 0
2, 36144, Note_on_c, 0, 72, 86
2, 36189, Note_on_c, 0, 72, 0
2, 36192, Note_on_c, 0, 73, 87
2, 36240, Note_on_c, 0, 73, 0
2, 36240, Note_on_c, 0, 74, 88
2, 36285, Note_on_c, 0, 74, 0
2, 36288, Note_on_c, 0, 79, 88
2, 36311, Note_on_c, 0, 79, 0
2, 36312, Note_on_c, 0, 77, 89
2, 36335, Note_on_c, 0, 77, 0
2, 36336, Note_on_c, 0, 75, 89
2, 36359, Note_on_c, 0, 75, 0
2, 36360, Note_on_c, 0, 74, 89
2, 36383, Note_on_c, 0, 74, 0
2, 36384, Note_on_c, 0, 72, 86
2, 36429, Note_on_c, 0, 72, 0
2, 36432, Note_on_c, 0, 75, 87
2, 36477, Note_on_c, 0, 75, 0
2, 36480, Note_on_c, 0, 79, 89
2, 36525, Note_on_c, 0, 79, 0
2, 36528, Note_on_c, 0, 84, 91
2, 36573, Note_on_c, 0, 84, 0
2, 36576, Note_on_c, 0, 84, 109
2, 36624, Note_on_c, 0, 84, 0
2, 36624, Note_on_c, 0, 83, 93
2, 36647, Note_on_c, 0, 83, 0
2, 36672, Note_on_c, 0, 83, 109
2, 36720, Note_on_c, 0, 83, 0
2, 36720, Note_on_c, 0, 80, 93
2, 36743, Note_on_c, 0, 80, 0
2, 36768, Note_on_c, 0, 80, 109
2, 36816, Note_on_c, 0, 80, 0
2, 36816, Note_on_c, 0, 79, 93
2, 36839, Note_on_c, 0, 79, 0
2, 36864, Note_on_c, 0, 79, 109
2, 37008, Note_on_c, 0, 79, 0
2, 37008, Note_on_c, 0, 74, 93
2, 37031, Note_on_c, 0, 74, 0
2, 37032, Note_on_c, 0, 75, 93
2, 37055, Note_on_c, 0, 75, 0
2, 37056, Note_on_c, 0, 79, 93
2, 37079, Note_on_c, 0, 79, 0
2, 37080, Note_on_c, 0, 77, 93
2, 37103, Note_on_c, 0, 77, 0
2, 37104, Note_on_c, 0, 75, 93
2, 37127, Note_on_c, 0, 75, 0
2, 37128, Note_on_c, 0, 74, 93
2, 37151, Note_on_c, 0, 74, 0
2, 37152, Note_on_c, 0, 77, 93
2, 37175, Note_on_c, 0, 77, 0
2, 37176, Note_on_c, 0, 75, 93
2, 37199, Note_on_c, 0, 75, 0
2, 37200, Note_on_c, 0, 74, 93
2, 37223, Note_on_c, 0, 74, 0
2, 37224, Note_on_c, 0, 72, 93
2, 37247, Note_on_c, 0, 72, 0
2, 37248, Note_on_c, 0, 71, 93
2, 37315, Note_on_c, 0, 71, 0
2, 37320, Note_on_c, 0, 72, 93
2, 37343, Note_on_c, 0, 72, 0
2, 37344, Note_on_c, 0, 74, 86
2, 37359, Note_on_c, 0, 74, 0
2, 37360, Note_on_c, 0, 72, 85
2, 37375, Note_on_c, 0, 72, 0
2, 37376, Note_on_c, 0, 74, 85
2, 37391, Note_on_c, 0, 74, 0
2, 37392, Note_on_c, 0, 72, 85
2, 37407, Note_on_c, 0, 72, 0
2, 37408, Note_on_c, 0, 71, 84
2, 37423, Note_on_c, 0, 71, 0
2, 37424, Note_on_c, 0, 72, 84
2, 37439, Note_on_c, 0, 72, 0
2, 37440, Note_on_c, 0, 72, 84
2, 37536, Note_on_c, 0, 72, 0
2, 37536, Note_on_c, 0, 74, 81
2, 37575, Note_on_c, 0, 74, 0
2, 37776, Note_on_c, 0, 72, 78
2, 37821, Note_on_c, 0, 72, 0
2, 37824, Note_on_c, 0, 75, 79
2, 37869, Note_on_c, 0, 75, 0
2, 37872, Note_on_c, 0, 72, 81
2, 37917, Note_on_c, 0, 72, 0
2, 37920, Note_on_c, 0, 68, 82
2, 37965, Note_on_c, 0, 68, 0
2, 37968, Note_on_c, 0, 67, 84
2, 38013, Note_on_c, 0, 67, 0
2, 38016, Note_on_c, 0, 67, 102
2, 38112, Note_on_c, 0, 67, 0
2, 38112, Note_on_c, 0, 66, 83
2, 38289, Note_on_c, 0, 66, 0
2, 38352, Note_on_c, 0, 65, 78
2, 38397, Note_on_c, 0, 65, 0
2, 38400, Note_on_c, 0, 74, 79
2, 38445, Note_on_c, 0, 74, 0
2, 38448, Note_on_c, 0, 71, 81
2, 38493, Note_on_c, 0, 71, 0
2, 38496, Note_on_c, 0, 67, 82
2, 38541, Note_on_c, 0, 67, 0
2, 38544, Note_on_c, 0, 65, 84
2, 38589, Note_on_c, 0, 65, 0
2, 38592, Note_on_c, 0, 65, 86
2, 38688, Note_on_c, 0, 65, 0
2, 38688, Note_on_c, 0, 63, 83
2, 38925, Note_on_c, 0, 63, 0
2, 38928, Note_on_c, 0, 62, 78
2, 38973, Note_on_c, 0, 62, 0
2, 38976, Note_on_c, 0, 68, 79
2, 39021, Note_on_c, 0, 68, 0
2, 39024, Note_on_c, 0, 65, 81
2, 39069, Note_on_c, 0, 65, 0
2, 39072, Note_on_c, 0, 62, 82
2, 39117, Note_on_c, 0, 62, 0
2, 39120, Note_on_c, 0, 60, 84
2, 39165, Note_on_c, 0, 60, 0
2, 39168, Note_on_c, 0, 59, 86
2, 39191, Note_on_c, 0, 59, 0
2, 39192, Note_on_c, 0, 62, 86
2, 39215, Note_on_c, 0, 62, 0
2, 39216, Note_on_c, 0, 60, 86
2, 39239, Note_on_c, 0, 60, 0
2, 39240, Note_on_c, 0, 63, 86
2, 39263, Note_on_c, 0, 63, 0
2, 39264, Note_on_c, 0, 62, 86
2, 39287, Note_on_c, 0, 62, 0
2, 39288, Note_on_c, 0, 65, 86
2, 39311, Note_on_c, 0, 65, 0
2, 39312, Note_on_c, 0, 63, 86
2, 39335, Note_on_c, 0, 63, 0
2, 39336, Note_on_c, 0, 67, 86
2, 39359, Note_on_c, 0, 67, 0
2, 39360, Note_on_c, 0, 65, 86
2, 39405, Note_on_c, 0, 65, 0
2, 39456, Note_on_c, 0, 60, 86
2, 39479, Note_on_c, 0, 60, 0
2, 39480, Note_on_c, 0, 63, 86
2, 39503, Note_on_c, 0, 63, 0
2, 39504, Note_on_c, 0, 62, 86
2, 39527, Note_on_c, 0, 62, 0
2, 39528, Note_on_c, 0, 65, 86
2, 39551, Note_on_c, 0, 65, 0
2, 39552, Note_on_c, 0, 63, 86
2, 39575, Note_on_c, 0, 63, 0
2, 39576, Note_on_c, 0, 67, 86
2, 39599, Note_on_c, 0, 67, 0
2, 39600, Note_on_c, 0, 65, 86
2, 39623, Note_on_c, 0, 65, 0
2, 39624, Note_on_c, 0, 68, 86
2, 39647, Note_on_c, 0, 68, 0
2, 39648, Note_on_c, 0, 67, 86
2, 39693, Note_on_c, 0, 67, 0
2, 39744, Note_on_c, 0, 59, 86
2, 39767, Note_on_c, 0, 59, 0
2, 39768, Note_on_c, 0, 62, 86
2, 39791, Note_on_c, 0, 62, 0
2, 39792, Note_on_c, 0, 60, 86
2, 39815, Note_on_c, 0, 60, 0
2, 39816, Note_on_c, 0, 63, 86
2, 39839, Note_on_c, 0, 63, 0
2, 39840, Note_on_c, 0, 62, 86
2, 39863, Note_on_c, 0, 62, 0
2, 39864, Note_on_c, 0, 65, 86
2, 39887, Note_on_c, 0, 65, 0
2, 39888, Note_on_c, 0, 63, 86
2, 39911, Note_on_c, 0, 63, 0
2, 39912, Note_on_c, 0, 67, 86
2, 39935, Note_on_c, 0, 67, 0
2, 39936, Note_on_c, 0, 65, 86
2, 39959, Note_on_c, 0, 65, 0
2, 39960, Note_on_c, 0, 68, 86
2, 39983, Note_on_c, 0, 68, 0
2, 39984, Note_on_c, 0, 67, 86
2, 40007, Note_on_c, 0, 67, 0
2, 40008, Note_on_c, 0, 65, 86
2, 40031, Note_on_c, 0, 65, 0
2, 40032, Note_on_c, 0, 63, 86
2, 40055, Note_on_c, 0, 63, 0
2, 40056, Note_on_c, 0, 67, 86
2, 40079, Note_on_c, 0, 67, 0
2, 40080, Note_on_c, 0, 65, 86
2, 40103, Note_on_c, 0, 65, 0
2, 40104, Note_on_c, 0, 68, 86
2, 40127, Note_on_c, 0, 68, 0
2, 40128, Note_on_c, 0, 67, 86
2, 40151, Note_on_c, 0, 67, 0
2, 40152, Note_on_c, 0, 72, 86
2, 40175, Note_on_c, 0, 72, 0
2, 40176, Note_on_c, 0, 71, 86
2, 40199, Note_on_c, 0, 71, 0
2, 40200, Note_on_c, 0, 74, 86
2, 40223, Note_on_c, 0, 74, 0
2, 40224, Note_on_c, 0, 72, 86
2, 40247, Note_on_c, 0, 72, 0
2, 40248, Note_on_c, 0, 75, 86
2, 40271, Note_on_c, 0, 75, 0
2, 40272, Note_on_c, 0, 74, 86
2, 40295, Note_on_c, 0, 74, 0
2, 40296, Note_on_c, 0, 72, 86
2, 40319, Note_on_c, 0, 72, 0
2, 40320, Note_on_c, 0, 71, 86
2, 40343, Note_on_c, 0, 71, 0
2, 40344, Note_on_c, 0, 74, 86
2, 40367, Note_on_c, 0, 74, 0
2, 40368, Note_on_c, 0, 72, 86
2, 40391, Note_on_c, 0, 72, 0
2, 40392, Note_on_c, 0, 75, 86
2, 40415, Note_on_c, 0, 75, 0
2, 40416, Note_on_c, 0, 74, 86
2, 40439, Note_on_c, 0, 74, 0
2, 40440, Note_on_c, 0, 77, 86
2, 40463, Note_on_c, 0, 77, 0
2, 40464, Note_on_c, 0, 75, 86
2, 40487, Note_on_c, 0, 75, 0
2, 40488, Note_on_c, 0, 79, 86
2, 40511, Note_on_c, 0, 79, 0
2, 40512, Note_on_c, 0, 77, 86
2, 40535, Note_on_c, 0, 77, 0
2, 40536, Note_on_c, 0, 80, 86
2, 40559, Note_on_c, 0, 80, 0
2, 40560, Note_on_c, 0, 79, 86
2, 40583, Note_on_c, 0, 79, 0
2, 40584, Note_on_c, 0, 77, 86
2, 40607, Note_on_c, 0, 77, 0
2, 40608, Note_on_c, 0, 75, 86
2, 40631, Note_on_c, 0, 75, 0
2, 40632, Note_on_c, 0, 79, 86
2, 40655, Note_on_c, 0, 79, 0
2, 40656, Note_on_c, 0, 77, 86
2, 40679, Note_on_c, 0, 77, 0
2, 40680, Note_on_c, 0, 80, 86
2, 40703, Note_on_c, 0, 80, 0
2, 40704, Note_on_c, 0, 79, 86
2, 40727, Note_on_c, 0, 79, 0
2, 40728, Note_on_c, 0, 84, 86
2, 40751, Note_on_c, 0, 84, 0
2, 40752, Note_on_c, 0, 83, 86
2, 40775, Note_on_c, 0, 83, 0
2, 40776, Note_on_c, 0, 86, 86
2, 40799, Note_on_c, 0, 86, 0
2, 40800, Note_on_c, 0, 84, 86
2, 40823, Note_on_c, 0, 84, 0
2, 40824, Note_on_c, 0, 87, 86
2, 40847, Note_on_c, 0, 87, 0
2, 40848, Note_on_c, 0, 86, 86
2, 40871, Note_on_c, 0, 86, 0
2, 40872, Note_on_c, 0, 84, 86
2, 40895, Note_on_c, 0, 84, 0
2, 40896, Note_on_c, 0, 83, 86
2, 40919, Note_on_c, 0, 83, 0
2, 40920, Note_on_c, 0, 84, 86
2, 40943, Note_on_c, 0, 84, 0
2, 40944, Note_on_c, 0, 86, 86
2, 40967, Note_on_c, 0, 86, 0
2, 40968, Note_on_c, 0, 83, 86
2, 40991, Note_on_c, 0, 83, 0
2, 40992, Note_on_c, 0, 79, 86
2, 41037, Note_on_c, 0, 79, 0
2, 41184, Note_on_c, 0, 87, 86
2, 41207, Note_on_c, 0, 87, 0
2, 41208, Note_on_c, 0, 79, 86
2, 41231, Note_on_c, 0, 79, 0
2, 41232, Note_on_c, 0, 78, 86
2, 41255, Note_on_c, 0, 78, 0
2, 41256, Note_on_c, 0, 79, 86
2, 41279, Note_on_c, 0, 79, 0
2, 41280, Note_on_c, 0, 86, 86
2, 41303, Note_on_c, 0, 86, 0
2, 41304, Note_on_c, 0, 79, 86
2, 41327, Note_on_c, 0, 79, 0
2, 41328, Note_on_c, 0, 78, 86
2, 41351, Note_on_c, 0, 78, 0
2, 41352, Note_on_c, 0, 79, 86
2, 41375, Note_on_c, 0, 79, 0
2, 41376, Note_on_c, 0, 84, 86
2, 41399, Note_on_c, 0, 84, 0
2, 41400, Note_on_c, 0, 79, 86
2, 41423, Note_on_c, 0, 79, 0
2, 41424, Note_on_c, 0, 78, 86
2, 41447, Note_on_c, 0, 78, 0
2, 41448, Note_on_c, 0, 79, 86
2, 41471, Note_on_c, 0, 79, 0
2, 41472, Note_on_c, 0, 83, 86
2, 41495, Note_on_c, 0, 83, 0
2, 41496, Note_on_c, 0, 84, 86
2, 41519, Note_on_c, 0, 84, 0
2, 41520, Note_on_c, 0, 86, 86
2, 41543, Note_on_c, 0, 86, 0
2, 41544, Note_on_c, 0, 83, 86
2, 41567, Note_on_c, 0, 83, 0
2, 41568, Note_on_c, 0, 79, 86
2, 41613, Note_on_c, 0, 79, 0
2, 41760, Note_on_c, 0, 87, 86
2, 41783, Note_on_c, 0, 87, 0
2, 41784, Note_on_c, 0, 79, 86
2, 41807, Note_on_c, 0, 79, 0
2, 41808, Note_on_c, 0, 78, 86
2, 41831, Note_on_c, 0, 78, 0
2, 41832, Note_on_c, 0, 79, 86
2, 41855, Note_on_c, 0, 79, 0
2, 41856, Note_on_c, 0, 86, 86
2, 41879, Note_on_c, 0, 86, 0
2, 41880, Note_on_c, 0, 79, 86
2, 41903, Note_on_c, 0, 79, 0
2, 41904, Note_on_c, 0, 78, 86
2, 41927, Note_on_c, 0, 78, 0
2, 41928, Note_on_c, 0, 79, 86
2, 41951, Note_on_c, 0, 79, 0
2, 41952, Note_on_c, 0, 84, 86
2, 41975, Note_on_c, 0, 84, 0
2, 41976, Note_on_c, 0, 79, 86
2, 41999, Note_on_c, 0, 79, 0
2, 42000, Note_on_c, 0, 78, 86
2, 42023, Note_on_c, 0, 78, 0
2, 42024, Note_on_c, 0, 79, 86
2, 42047, Note_on_c, 0, 79, 0
2, 42048, Note_on_c, 0, 83, 86
2, 42071, Note_on_c, 0, 83, 0
2, 42072, Note_on_c, 0, 84, 86
2, 42095, Note_on_c, 0, 84, 0
2, 42096, Note_on_c, 0, 86, 86
2, 42119, Note_on_c, 0, 86, 0
2, 42120, Note_on_c, 0, 83, 86
2, 42143, Note_on_c, 0, 83, 0
2, 42144, Note_on_c, 0, 79, 86
2, 42189, Note_on_c, 0, 79, 0
2, 42336, Note_on_c, 0, 75, 86
2, 42359, Note_on_c, 0, 75, 0
2, 42360, Note_on_c, 0, 77, 86
2, 42383, Note_on_c, 0, 77, 0
2, 42384, Note_on_c, 0, 79, 86
2, 42407, Note_on_c, 0, 79, 0
2, 42408, Note_on_c, 0, 75, 86
2, 42431, Note_on_c, 0, 75, 0
2, 42432, Note_on_c, 0, 72, 86
2, 42477, Note_on_c, 0, 72, 0
2, 42624, Note_on_c, 0, 80, 86
2, 42647, Note_on_c, 0, 80, 0
2, 42648, Note_on_c, 0, 72, 86
2, 42671, Note_on_c, 0, 72, 0
2, 42672, Note_on_c, 0, 71, 86
2, 42695, Note_on_c, 0, 71, 0
2, 42696, Note_on_c, 0, 72, 86
2, 42719, Note_on_c, 0, 72, 0
2, 42720, Note_on_c, 0, 79, 86
2, 42743, Note_on_c, 0, 79, 0
2, 42744, Note_on_c, 0, 72, 86
2, 42767, Note_on_c, 0, 72, 0
2, 42768, Note_on_c, 0, 71, 86
2, 42791, Note_on_c, 0, 71, 0
2, 42792, Note_on_c, 0, 72, 86
2, 42815, Note_on_c, 0, 72, 0
2, 42816, Note_on_c, 0, 77, 86
2, 42839, Note_on_c, 0, 77, 0
2, 42840, Note_on_c, 0, 72, 86
2, 42863, Note_on_c, 0, 72, 0
2, 42864, Note_on_c, 0, 71, 86
2, 42887, Note_on_c, 0, 71, 0
2, 42888, Note_on_c, 0, 72, 86
2, 42911, Note_on_c, 0, 72, 0
2, 42912, Note_on_c, 0, 75, 86
2, 42935, Note_on_c, 0, 75, 0
2, 42936, Note_on_c, 0, 77, 86
2, 42959, Note_on_c, 0, 77, 0
2, 42960, Note_on_c, 0, 79, 86
2, 42983, Note_on_c, 0, 79, 0
2, 42984, Note_on_c, 0, 75, 86
2, 43007, Note_on_c, 0, 75, 0
2, 43008, Note_on_c, 0, 72, 86
2, 43053, Note_on_c, 0, 72, 0
2, 43200, Note_on_c, 0, 80, 86
2, 43223, Note_on_c, 0, 80, 0
2, 43224, Note_on_c, 0, 72, 86
2, 43247, Note_on_c, 0, 72, 0
2, 43248, Note_on_c, 0, 71, 86
2, 43271, Note_on_c, 0, 71, 0
2, 43272, Note_on_c, 0, 72, 86
2, 43295, Note_on_c, 0, 72, 0
2, 43296, Note_on_c, 0, 79, 86
2, 43319, Note_on_c, 0, 79, 0
2, 43320, Note_on_c, 0, 72, 86
2, 43343, Note_on_c, 0, 72, 0
2, 43344, Note_on_c, 0, 71, 86
2, 43367, Note_on_c, 0, 71, 0
2, 43368, Note_on_c, 0, 72, 86
2, 43391, Note_on_c, 0, 72, 0
2, 43392, Note_on_c, 0, 79, 86
2, 43415, Note_on_c, 0, 79, 0
2, 43416, Note_on_c, 0, 72, 86
2, 43439, Note_on_c, 0, 72, 0
2, 43440, Note_on_c, 0, 71, 86
2, 43463, Note_on_c, 0, 71, 0
2, 43464, Note_on_c, 0, 72, 86
2, 43487, Note_on_c, 0, 72, 0
2, 43488, Note_on_c, 0, 77, 86
2, 43511, Note_on_c, 0, 77, 0
2, 43512, Note_on_c, 0, 72, 86
2, 43535, Note_on_c, 0, 72, 0
2, 43536, Note_on_c, 0, 71, 86
2, 43559, Note_on_c, 0, 71, 0
2, 43560, Note_on_c, 0, 72, 86
2, 43583, Note_on_c, 0, 72, 0
2, 43584, Note_on_c, 0, 75, 86
2, 43607, Note_on_c, 0, 75, 0
2, 43608, Note_on_c, 0, 72, 86
2, 43631, Note_on_c, 0, 72, 0
2, 43632, Note_on_c, 0, 71, 86
2, 43655, Note_on_c, 0, 71, 0
2, 43656, Note_on_c, 0, 72, 86
2, 43679, Note_on_c, 0, 72, 0
2, 43680, Note_on_c, 0, 75, 86
2, 43703, Note_on_c, 0, 75, 0
2, 43704, Note_on_c, 0, 72, 86
2, 43727, Note_on_c, 0, 72, 0
2, 43728, Note_on_c, 0, 71, 86
2, 43751, Note_on_c, 0, 71, 0
2, 43752, Note_on_c, 0, 72, 86
2, 43775, Note_on_c, 0, 72, 0
2, 43776, Note_on_c, 0, 80, 86
2, 43799, Note_on_c, 0, 80, 0
2, 43800, Note_on_c, 0, 72, 86
2, 43823, Note_on_c, 0, 72, 0
2, 43824, Note_on_c, 0, 71, 86
2, 43847, Note_on_c, 0, 71, 0
2, 43848, Note_on_c, 0, 72, 86
2, 43871, Note_on_c, 0, 72, 0
2, 43872, Note_on_c, 0, 79, 86
2, 43895, Note_on_c, 0, 79, 0
2, 43896, Note_on_c, 0, 72, 86
2, 43919, Note_on_c, 0, 72, 0
2, 43920, Note_on_c, 0, 71, 86
2, 43943, Note_on_c, 0, 71, 0
2, 43944, Note_on_c, 0, 72, 86
2, 43967, Note_on_c, 0, 72, 0
2, 43968, Note_on_c, 0, 79, 86
2, 43991, Note_on_c, 0, 79, 0
2, 43992, Note_on_c, 0, 72, 86
2, 44015, Note_on_c, 0, 72, 0
2, 44016, Note_on_c, 0, 71, 86
2, 44039, Note_on_c, 0, 71, 0
2, 44040, Note_on_c, 0, 72, 86
2, 44063, Note_on_c, 0, 72, 0
2, 44064, Note_on_c, 0, 78, 86
2, 44087, Note_on_c, 0, 78, 0
2, 44088, Note_on_c, 0, 72, 86
2, 44111, Note_on_c, 0, 72, 0
2, 44112, Note_on_c, 0, 71, 86
2, 44135, Note_on_c, 0, 71, 0
2, 44136, Note_on_c, 0, 72, 86
2, 44159, Note_on_c, 0, 72, 0
2, 44160, Note_on_c, 0, 78, 86
2, 44183, Note_on_c, 0, 78, 0
2, 44184, Note_on_c, 0, 72, 86
2, 44207, Note_on_c, 0, 72, 0
2, 44208, Note_on_c, 0, 71, 86
2, 44231, Note_on_c, 0, 71, 0
2, 44232, Note_on_c, 0, 72, 86
2, 44255, Note_on_c, 0, 72, 0
2, 44256, Note_on_c, 0, 78, 86
2, 44279, Note_on_c, 0, 78, 0
2, 44280, Note_on_c, 0, 72, 86
2, 44303, Note_on_c, 0, 72, 0
2, 44304, Note_on_c, 0, 71, 86
2, 44327, Note_on_c, 0, 71, 0
2, 44328, Note_on_c, 0, 78, 86
2, 44351, Note_on_c, 0, 78, 0
2, 44352, Note_on_c, 0, 77, 86
2, 44375, Note_on_c, 0, 77, 0
2, 44376, Note_on_c, 0, 71, 86
2, 44399, Note_on_c, 0, 71, 0
2, 44400, Note_on_c, 0, 69, 86
2, 44423, Note_on_c, 0, 69, 0
2, 44424, Note_on_c, 0, 71, 86
2, 44447, Note_on_c, 0, 71, 0
2, 44448, Note_on_c, 0, 77, 86
2, 44471, Note_on_c, 0, 77, 0
2, 44472, Note_on_c, 0, 71, 86
2, 44495, Note_on_c, 0, 71, 0
2, 44496, Note_on_c, 0, 69, 86
2, 44519, Note_on_c, 0, 69, 0
2, 44520, Note_on_c, 0, 71, 86
2, 44543, Note_on_c, 0, 71, 0
2, 44544, Note_on_c, 0, 77, 86
2, 44567, Note_on_c, 0, 77, 0
2, 44568, Note_on_c, 0, 71, 86
2, 44591, Note_on_c, 0, 71, 0
2, 44592, Note_on_c, 0, 69, 86
2, 44615, Note_on_c, 0, 69, 0
2, 44616, Note_on_c, 0, 71, 86
2, 44639, Note_on_c, 0, 71, 0
2, 44640, Note_on_c, 0, 76, 86
2, 44663, Note_on_c, 0, 76, 0
2, 44664, Note_on_c, 0, 70, 86
2, 44687, Note_on_c, 0, 70, 0
2, 44688, Note_on_c, 0, 69, 86
2, 44711, Note_on_c, 0, 69, 0
2, 44712, Note_on_c, 0, 70, 86
2, 44735, Note_on_c, 0, 70, 0
2, 44736, Note_on_c, 0, 76, 86
2, 44759, Note_on_c, 0, 76, 0
2, 44760, Note_on_c, 0, 70, 86
2, 44783, Note_on_c, 0, 70, 0
2, 44784, Note_on_c, 0, 69, 86
2, 44807, Note_on_c, 0, 69, 0
2, 44808, Note_on_c, 0, 70, 86
2, 44831, Note_on_c, 0, 70, 0
2, 44832, Note_on_c, 0, 76, 86
2, 44855, Note_on_c, 0, 76, 0
2, 44856, Note_on_c, 0, 70, 86
2, 44879, Note_on_c, 0, 70, 0
2, 44880, Note_on_c, 0, 69, 86
2, 44903, Note_on_c, 0, 69, 0
2, 44904, Note_on_c, 0, 70, 86
2, 44927, Note_on_c, 0, 70, 0
2, 44928, Note_on_c, 0, 75, 86
2, 44951, Note_on_c, 0, 75, 0
2, 44952, Note_on_c, 0, 69, 86
2, 44975, Note_on_c, 0, 69, 0
2, 44976, Note_on_c, 0, 67, 86
2, 44999, Note_on_c, 0, 67, 0
2, 45000, Note_on_c, 0, 69, 86
2, 45023, Note_on_c, 0, 69, 0
2, 45024, Note_on_c, 0, 75, 86
2, 45047, Note_on_c, 0, 75, 0
2, 45048, Note_on_c, 0, 69, 86
2, 45071, Note_on_c, 0, 69, 0
2, 45072, Note_on_c, 0, 67, 86
2, 45095, Note_on_c, 0, 67, 0
2, 45096, Note_on_c, 0, 69, 86
2, 45119, Note_on_c, 0, 69, 0
2, 45120, Note_on_c, 0, 75, 86
2, 45143, Note_on_c, 0, 75, 0
2, 45144, Note_on_c, 0, 69, 86
2, 45167, Note_on_c, 0, 69, 0
2, 45168, Note_on_c, 0, 67, 86
2, 45191, Note_on_c, 0, 67, 0
2, 45192, Note_on_c, 0, 75, 86
2, 45215, Note_on_c, 0, 75, 0
2, 45216, Note_on_c, 0, 74, 86
2, 45239, Note_on_c, 0, 74, 0
2, 45240, Note_on_c, 0, 68, 86
2, 45263, Note_on_c, 0, 68, 0
2, 45264, Note_on_c, 0, 67, 86
2, 45287, Note_on_c, 0, 67, 0
2, 45288, Note_on_c, 0, 68, 86
2, 45311, Note_on_c, 0, 68, 0
2, 45312, Note_on_c, 0, 74, 86
2, 45335, Note_on_c, 0, 74, 0
2, 45336, Note_on_c, 0, 68, 86
2, 45359, Note_on_c, 0, 68, 0
2, 45360, Note_on_c, 0, 67, 86
2, 45383, Note_on_c, 0, 67, 0
2, 45384, Note_on_c, 0, 68, 86
2, 45407, Note_on_c, 0, 68, 0
2, 45408, Note_on_c, 0, 74, 86
2, 45431, Note_on_c, 0, 74, 0
2, 45432, Note_on_c, 0, 68, 86
2, 45455, Note_on_c, 0, 68, 0
2, 45456, Note_on_c, 0, 67, 86
2, 45479, Note_on_c, 0, 67, 0
2, 45480, Note_on_c, 0, 68, 86
2, 45503, Note_on_c, 0, 68, 0
2, 45504, Note_on_c, 0, 74, 86
2, 45527, Note_on_c, 0, 74, 0
2, 45528, Note_on_c, 0, 67, 86
2, 45551, Note_on_c, 0, 67, 0
2, 45552, Note_on_c, 0, 66, 86
2, 45575, Note_on_c, 0, 66, 0
2, 45576, Note_on_c, 0, 67, 86
2, 45599, Note_on_c, 0, 67, 0
2, 45600, Note_on_c, 0, 74, 86
2, 45623, Note_on_c, 0, 74, 0
2, 45624, Note_on_c, 0, 67, 86
2, 45647, Note_on_c, 0, 67, 0
2, 45648, Note_on_c, 0, 66, 86
2, 45671, Note_on_c, 0, 66, 0
2, 45672, Note_on_c, 0, 67, 86
2, 45695, Note_on_c, 0, 67, 0
2, 45696, Note_on_c, 0, 74, 86
2, 45719, Note_on_c, 0, 74, 0
2, 45720, Note_on_c, 0, 67, 86
2, 45743, Note_on_c, 0, 67, 0
2, 45744, Note_on_c, 0, 66, 86
2, 45767, Note_on_c, 0, 66, 0
2, 45768, Note_on_c, 0, 67, 86
2, 45791, Note_on_c, 0, 67, 0
2, 45792, Note_on_c, 0, 72, 86
2, 45815, Note_on_c, 0, 72, 0
2, 45816, Note_on_c, 0, 67, 86
2, 45839, Note_on_c, 0, 67, 0
2, 45840, Note_on_c, 0, 66, 86
2, 45863, Note_on_c, 0, 66, 0
2, 45864, Note_on_c, 0, 67, 86
2, 45887, Note_on_c, 0, 67, 0
2, 45888, Note_on_c, 0, 72, 86
2, 45911, Note_on_c, 0, 72, 0
2, 45912, Note_on_c, 0, 67, 86
2, 45935, Note_on_c, 0, 67, 0
2, 45936, Note_on_c, 0, 66, 86
2, 45959, Note_on_c, 0, 66, 0
2, 45960, Note_on_c, 0, 67, 86
2, 45983, Note_on_c, 0, 67, 0
2, 45984, Note_on_c, 0, 72, 86
2, 46007, Note_on_c, 0, 72, 0
2, 46008, Note_on_c, 0, 67, 86
2, 46031, Note_on_c, 0, 67, 0
2, 46032, Note_on_c, 0, 66, 86
2, 46055, Note_on_c, 0, 66, 0
2, 46056, Note_on_c, 0, 67, 86
2, 46079, Note_on_c, 0, 67, 0
2, 46080, Note_on_c, 0, 72, 86
2, 46103, Note_on_c, 0, 72, 0
2, 46104, Note_on_c, 0, 65, 86
2, 46127, Note_on_c, 0, 65, 0
2, 46128, Note_on_c, 0, 64, 86
2, 46151, Note_on_c, 0, 64, 0
2, 46152, Note_on_c, 0, 65, 86
2, 46175, Note_on_c, 0, 65, 0
2, 46176, Note_on_c, 0, 72, 86
2, 46199, Note_on_c, 0, 72, 0
2, 46200, Note_on_c, 0, 65, 86
2, 46223, Note_on_c, 0, 65, 0
2, 46224, Note_on_c, 0, 64, 86
2, 46247, Note_on_c, 0, 64, 0
2, 46248, Note_on_c, 0, 65, 86
2, 46271, Note_on_c, 0, 65, 0
2, 46272, Note_on_c, 0, 72, 86
2, 46295, Note_on_c, 0, 72, 0
2, 46296, Note_on_c, 0, 65, 86
2, 46319, Note_on_c, 0, 65, 0
2, 46320, Note_on_c, 0, 64, 86
2, 46343, Note_on_c, 0, 64, 0
2, 46344, Note_on_c, 0, 65, 86
2, 46367, Note_on_c, 0, 65, 0
2, 46368, Note_on_c, 0, 71, 86
2, 46391, Note_on_c, 0, 71, 0
2, 46392, Note_on_c, 0, 65, 86
2, 46415, Note_on_c, 0, 65, 0
2, 46416, Note_on_c, 0, 64, 86
2, 46439, Note_on_c, 0, 64, 0
2, 46440, Note_on_c, 0, 65, 86
2, 46463, Note_on_c, 0, 65, 0
2, 46464, Note_on_c, 0, 71, 86
2, 46487, Note_on_c, 0, 71, 0
2, 46488, Note_on_c, 0, 65, 86
2, 46511, Note_on_c, 0, 65, 0
2, 46512, Note_on_c, 0, 64, 86
2, 46535, Note_on_c, 0, 64, 0
2, 46536, Note_on_c, 0, 65, 86
2, 46559, Note_on_c, 0, 65, 0
2, 46560, Note_on_c, 0, 71, 86
2, 46583, Note_on_c, 0, 71, 0
2, 46584, Note_on_c, 0, 65, 86
2, 46607, Note_on_c, 0, 65, 0
2, 46608, Note_on_c, 0, 64, 86
2, 46631, Note_on_c, 0, 64, 0
2, 46632, Note_on_c, 0, 65, 86
2, 46655, Note_on_c, 0, 65, 0
2, 46656, Note_on_c, 0, 72, 86
2, 46679, Note_on_c, 0, 72, 0
2, 46680, Note_on_c, 0, 63, 86
2, 46703, Note_on_c, 0, 63, 0
2, 46704, Note_on_c, 0, 62, 86
2, 46727, Note_on_c, 0, 62, 0
2, 46728, Note_on_c, 0, 63, 86
2, 46751, Note_on_c, 0, 63, 0
2, 46752, Note_on_c, 0, 72, 86
2, 46775, Note_on_c, 0, 72, 0
2, 46776, Note_on_c, 0, 63, 86
2, 46799, Note_on_c, 0, 63, 0
2, 46800, Note_on_c, 0, 62, 86
2, 46823, Note_on_c, 0, 62, 0
2, 46824, Note_on_c, 0, 63, 86
2, 46847, Note_on_c, 0, 63, 0
2, 46848, Note_on_c, 0, 72, 86
2, 46871, Note_on_c, 0, 72, 0
2, 46872, Note_on_c, 0, 63, 86
2, 46895, Note_on_c, 0, 63, 0
2, 46896, Note_on_c, 0, 62, 86
2, 46919, Note_on_c, 0, 62, 0
2, 46920, Note_on_c, 0, 63, 86
2, 46943, Note_on_c, 0, 63, 0
2, 46944, Note_on_c, 0, 72, 86
2, 46967, Note_on_c, 0, 72, 0
2, 46968, Note_on_c, 0, 66, 86
2, 46991, Note_on_c, 0, 66, 0
2, 46992, Note_on_c, 0, 60, 86
2, 47015, Note_on_c, 0, 60, 0
2, 47016, Note_on_c, 0, 66, 86
2, 47039, Note_on_c, 0, 66, 0
2, 47040, Note_on_c, 0, 72, 86
2, 47063, Note_on_c, 0, 72, 0
2, 47064, Note_on_c, 0, 66, 86
2, 47087, Note_on_c, 0, 66, 0
2, 47088, Note_on_c, 0, 60, 86
2, 47111, Note_on_c, 0, 60, 0
2, 47112, Note_on_c, 0, 66, 86
2, 47135, Note_on_c, 0, 66, 0
2, 47136, Note_on_c, 0, 72, 86
2, 47159, Note_on_c, 0, 72, 0
2, 47160, Note_on_c, 0, 66, 86
2, 47183, Note_on_c, 0, 66, 0
2, 47184, Note_on_c, 0, 60, 86
2, 47207, Note_on_c, 0, 60, 0
2, 47208, Note_on_c, 0, 66, 86
2, 47231, Note_on_c, 0, 66, 0
2, 47232, Note_on_c, 0, 72, 86
2, 47255, Note_on_c, 0, 72, 0
2, 47256, Note_on_c, 0, 66, 86
2, 47279, Note_on_c, 0, 66, 0
2, 47280, Note_on_c, 0, 60, 86
2, 47303, Note_on_c, 0, 60, 0
2, 47304, Note_on_c, 0, 66, 86
2, 47327, Note_on_c, 0, 66, 0
2, 47328, Note_on_c, 0, 72, 86
2, 47351, Note_on_c, 0, 72, 0
2, 47352, Note_on_c, 0, 66, 86
2, 47375, Note_on_c, 0, 66, 0
2, 47376, Note_on_c, 0, 60, 86
2, 47399, Note_on_c, 0, 60, 0
2, 47400, Note_on_c, 0, 66, 86
2, 47423, Note_on_c, 0, 66, 0
2, 47424, Note_on_c, 0, 72, 86
2, 47447, Note_on_c, 0, 72, 0
2, 47448, Note_on_c, 0, 66, 86
2, 47471, Note_on_c, 0, 66, 0
2, 47472, Note_on_c, 0, 60, 86
2, 47495, Note_on_c, 0, 60, 0
2, 47496, Note_on_c, 0, 66, 86
2, 47519, Note_on_c, 0, 66, 0
2, 47520, Note_on_c, 0, 67, 86
2, 47543, Note_on_c, 0, 67, 0
2, 47544, Note_on_c, 0, 71, 86
2, 47567, Note_on_c, 0, 71, 0
2, 47568, Note_on_c, 0, 67, 86
2, 47591, Note_on_c, 0, 67, 0
2, 47592, Note_on_c, 0, 62, 86
2, 47615, Note_on_c, 0, 62, 0
2, 47616, Note_on_c, 0, 59, 86
2, 47639, Note_on_c, 0, 59, 0
2, 48000, Note_on_c, 0, 60, 87
2, 48096, Note_on_c, 0, 60, 0
2, 48096, Note_on_c, 0, 65, 71
2, 48119, Note_on_c, 0, 65, 0
2, 48120, Note_on_c, 0, 63, 71
2, 48143, Note_on_c, 0, 63, 0
2, 48144, Note_on_c, 0, 62, 71
2, 48167, Note_on_c, 0, 62, 0
2, 48168, Note_on_c, 0, 60, 71
2, 48191, Note_on_c, 0, 60, 0
2, 48192, Note_on_c, 0, 59, 71
2, 48231, Note_on_c, 0, 59, 0
2, 48288, Note_on_c, 0, 62, 71
2, 48377, Note_on_c, 0, 62, 0
2, 48384, Note_on_c, 0, 67, 71
2, 48407, Note_on_c, 0, 67, 0
2, 48408, Note_on_c, 0, 65, 71
2, 48431, Note_on_c, 0, 65, 0
2, 48432, Note_on_c, 0, 63, 71
2, 48455, Note_on_c, 0, 63, 0
2, 48456, Note_on_c, 0, 62, 71
2, 48479, Note_on_c, 0, 62, 0
2, 48480, Note_on_c, 0, 60, 71
2, 48519, Note_on_c, 0, 60, 0
2, 48576, Note_on_c, 0, 72, 71
2, 48599, Note_on_c, 0, 72, 0
2, 48600, Note_on_c, 0, 73, 71
2, 48623, Note_on_c, 0, 73, 0
2, 48624, Note_on_c, 0, 74, 71
2, 48647, Note_on_c, 0, 74, 0
2, 48648, Note_on_c, 0, 75, 71
2, 48671, Note_on_c, 0, 75, 0
2, 48672, Note_on_c, 0, 72, 71
2, 48768, Note_on_c, 0, 72, 0
2, 48768, Note_on_c, 0, 71, 71
2, 48857, Note_on_c, 0, 71, 0
2, 48864, Note_on_c, 0, 74, 71
2, 48887, Note_on_c, 0, 74, 0
2, 48888, Note_on_c, 0, 75, 71
2, 48911, Note_on_c, 0, 75, 0
2, 48912, Note_on_c, 0, 76, 71
2, 48935, Note_on_c, 0, 76, 0
2, 48936, Note_on_c, 0, 77, 71
2, 48959, Note_on_c, 0, 77, 0
2, 48960, Note_on_c, 0, 74, 71
2, 49056, Note_on_c, 0, 74, 0
2, 49056, Note_on_c, 0, 72, 71
2, 49145, Note_on_c, 0, 72, 0
2, 49152, Note_on_c, 0, 79, 71
2, 49197, Note_on_c, 0, 79, 0
2, 49200, Note_on_c, 0, 84, 71
2, 49293, Note_on_c, 0, 84, 0
2, 49296, Note_on_c, 0, 82, 71
2, 49385, Note_on_c, 0, 82, 0
2, 49392, Note_on_c, 0, 80, 71
2, 49481, Note_on_c, 0, 80, 0
2, 49488, Note_on_c, 0, 79, 71
2, 49581, Note_on_c, 0, 79, 0
2, 49584, Note_on_c, 0, 77, 71
2, 49673, Note_on_c, 0, 77, 0
2, 49680, Note_on_c, 0, 75, 72
2, 49769, Note_on_c, 0, 75, 0
2, 49776, Note_on_c, 0, 74, 73
2, 49869, Note_on_c, 0, 74, 0
2, 49872, Note_on_c, 0, 72, 74
2, 49961, Note_on_c, 0, 72, 0
2, 49968, Note_on_c, 0, 71, 75
2, 50057, Note_on_c, 0, 71, 0
2, 50064, Note_on_c, 0, 68, 76
2, 50157, Note_on_c, 0, 68, 0
2, 50160, Note_on_c, 0, 67, 77
2, 50249, Note_on_c, 0, 67, 0
2, 50256, Note_on_c, 0, 65, 78
2, 50301, Note_on_c, 0, 65, 0
2, 50304, Note_on_c, 0, 63, 78
2, 50349, Note_on_c, 0, 63, 0
2, 50352, Note_on_c, 0, 62, 78
2, 50397, Note_on_c, 0, 62, 0
2, 50400, Note_on_c, 0, 60, 78
2, 50423, Note_on_c, 0, 60, 0
2, 50424, Note_on_c, 0, 59, 78
2, 50447, Note_on_c, 0, 59, 0
2, 50448, Note_on_c, 0, 60, 78
2, 50471, Note_on_c, 0, 60, 0
2, 50472, Note_on_c, 0, 65, 78
2, 50495, Note_on_c, 0, 65, 0
2, 50496, Note_on_c, 0, 60, 78
2, 50519, Note_on_c, 0, 60, 0
2, 50520, Note_on_c, 0, 59, 78
2, 50543, Note_on_c, 0, 59, 0
2, 50544, Note_on_c, 0, 60, 78
2, 50567, Note_on_c, 0, 60, 0
2, 50568, Note_on_c, 0, 63, 78
2, 50591, Note_on_c, 0, 63, 0
2, 50592, Note_on_c, 0, 60, 78
2, 50615, Note_on_c, 0, 60, 0
2, 50616, Note_on_c, 0, 59, 78
2, 50639, Note_on_c, 0, 59, 0
2, 50640, Note_on_c, 0, 60, 78
2, 50663, Note_on_c, 0, 60, 0
2, 50664, Note_on_c, 0, 68, 78
2, 50687, Note_on_c, 0, 68, 0
2, 50688, Note_on_c, 0, 60, 78
2, 50711, Note_on_c, 0, 60, 0
2, 50712, Note_on_c, 0, 59, 78
2, 50735, Note_on_c, 0, 59, 0
2, 50736, Note_on_c, 0, 60, 78
2, 50759, Note_on_c, 0, 60, 0
2, 50760, Note_on_c, 0, 67, 78
2, 50783, Note_on_c, 0, 67, 0
2, 50784, Note_on_c, 0, 60, 78
2, 50807, Note_on_c, 0, 60, 0
2, 50808, Note_on_c, 0, 59, 78
2, 50831, Note_on_c, 0, 59, 0
2, 50832, Note_on_c, 0, 60, 78
2, 50855, Note_on_c, 0, 60, 0
2, 50856, Note_on_c, 0, 65, 78
2, 50879, Note_on_c, 0, 65, 0
2, 50880, Note_on_c, 0, 60, 78
2, 50903, Note_on_c, 0, 60, 0
2, 50904, Note_on_c, 0, 59, 78
2, 50927, Note_on_c, 0, 59, 0
2, 50928, Note_on_c, 0, 60, 78
2, 50951, Note_on_c, 0, 60, 0
2, 50952, Note_on_c, 0, 63, 78
2, 50975, Note_on_c, 0, 63, 0
2, 50976, Note_on_c, 0, 60, 78
2, 50999, Note_on_c, 0, 60, 0
2, 51000, Note_on_c, 0, 59, 78
2, 51023, Note_on_c, 0, 59, 0
2, 51024, Note_on_c, 0, 60, 78
2, 51047, Note_on_c, 0, 60, 0
2, 51048, Note_on_c, 0, 65, 78
2, 51071, Note_on_c, 0, 65, 0
2, 51072, Note_on_c, 0, 60, 78
2, 51095, Note_on_c, 0, 60, 0
2, 51096, Note_on_c, 0, 59, 78
2, 51119, Note_on_c, 0, 59, 0
2, 51120, Note_on_c, 0, 60, 78
2, 51143, Note_on_c, 0, 60, 0
2, 51144, Note_on_c, 0, 63, 78
2, 51167, Note_on_c, 0, 63, 0
2, 51168, Note_on_c, 0, 60, 78
2, 51191, Note_on_c, 0, 60, 0
2, 51192, Note_on_c, 0, 59, 78
2, 51215, Note_on_c, 0, 59, 0
2, 51216, Note_on_c, 0, 60, 78
2, 51239, Note_on_c, 0, 60, 0
2, 51240, Note_on_c, 0, 68, 78
2, 51263, Note_on_c, 0, 68, 0
2, 51264, Note_on_c, 0, 60, 78
2, 51287, Note_on_c, 0, 60, 0
2, 51288, Note_on_c, 0, 59, 78
2, 51311, Note_on_c, 0, 59, 0
2, 51312, Note_on_c, 0, 60, 79
2, 51335, Note_on_c, 0, 60, 0
2, 51336, Note_on_c, 0, 67, 80
2, 51359, Note_on_c, 0, 67, 0
2, 51360, Note_on_c, 0, 60, 80
2, 51383, Note_on_c, 0, 60, 0
2, 51384, Note_on_c, 0, 59, 81
2, 51407, Note_on_c, 0, 59, 0
2, 51408, Note_on_c, 0, 60, 82
2, 51431, Note_on_c, 0, 60, 0
2, 51432, Note_on_c, 0, 65, 82
2, 51455, Note_on_c, 0, 65, 0
2, 51456, Note_on_c, 0, 60, 83
2, 51479, Note_on_c, 0, 60, 0
2, 51480, Note_on_c, 0, 59, 84
2, 51503, Note_on_c, 0, 59, 0
2, 51504, Note_on_c, 0, 60, 84
2, 51527, Note_on_c, 0, 60, 0
2, 51528, Note_on_c, 0, 63, 85
2, 51551, Note_on_c, 0, 63, 0
2, 51552, Note_on_c, 0, 60, 86
2, 51575, Note_on_c, 0, 60, 0
2, 51576, Note_on_c, 0, 59, 86
2, 51599, Note_on_c, 0, 59, 0
2, 51600, Note_on_c, 0, 60, 86
2, 51623, Note_on_c, 0, 60, 0
2, 51624, Note_on_c, 0, 63, 86
2, 51647, Note_on_c, 0, 63, 0
2, 51648, Note_on_c, 0, 60, 86
2, 51671, Note_on_c, 0, 60, 0
2, 51672, Note_on_c, 0, 59, 86
2, 51695, Note_on_c, 0, 59, 0
2, 51696, Note_on_c, 0, 60, 86
2, 51719, Note_on_c, 0, 60, 0
2, 51720, Note_on_c, 0, 63, 86
2, 51743, Note_on_c, 0, 63, 0
2, 51744, Note_on_c, 0, 60, 86
2, 51767, Note_on_c, 0, 60, 0
2, 51768, Note_on_c, 0, 59, 86
2, 51791, Note_on_c, 0, 59, 0
2, 51792, Note_on_c, 0, 60, 86
2, 51815, Note_on_c, 0, 60, 0
2, 51816, Note_on_c, 0, 63, 86
2, 51839, Note_on_c, 0, 63, 0
2, 51840, Note_on_c, 0, 59, 86
2, 51863, Note_on_c, 0, 59, 0
2, 51864, Note_on_c, 0, 62, 87
2, 51887, Note_on_c, 0, 62, 0
2, 51888, Note_on_c, 0, 65, 89
2, 51911, Note_on_c, 0, 65, 0
2, 51912, Note_on_c, 0, 68, 91
2, 51935, Note_on_c, 0, 68, 0
2, 51936, Note_on_c, 0, 67, 93
2, 51959, Note_on_c, 0, 67, 0
2, 51960, Note_on_c, 0, 65, 92
2, 51983, Note_on_c, 0, 65, 0
2, 51984, Note_on_c, 0, 63, 91
2, 52007, Note_on_c, 0, 63, 0
2, 52008, Note_on_c, 0, 62, 90
2, 52031, Note_on_c, 0, 62, 0
2, 52032, Note_on_c, 0, 60, 89
2, 52055, Note_on_c, 0, 60, 0
2, 52056, Note_on_c, 0, 59, 88
2, 52079, Note_on_c, 0, 59, 0
2, 52080, Note_on_c, 0, 57, 87
2, 52103, Note_on_c, 0, 57, 0
2, 52104, Note_on_c, 0, 55, 86
2, 52127, Note_on_c, 0, 55, 0
2, 52368, Note_on_c, 0, 79, 83
2, 52461, Note_on_c, 0, 79, 0
2, 52464, Note_on_c, 0, 77, 84
2, 52553, Note_on_c, 0, 77, 0
2, 52560, Note_on_c, 0, 75, 82
2, 52649, Note_on_c, 0, 75, 0
2, 52656, Note_on_c, 0, 74, 79
2, 52701, Note_on_c, 0, 74, 0
2, 52704, Note_on_c, 0, 72, 78
2, 52727, Note_on_c, 0, 72, 0
2, 52728, Note_on_c, 0, 65, 78
2, 52751, Note_on_c, 0, 65, 0
2, 52752, Note_on_c, 0, 64, 78
2, 52775, Note_on_c, 0, 64, 0
2, 52776, Note_on_c, 0, 65, 78
2, 52799, Note_on_c, 0, 65, 0
2, 52800, Note_on_c, 0, 70, 78
2, 52823, Note_on_c, 0, 70, 0
2, 52824, Note_on_c, 0, 63, 78
2, 52847, Note_on_c, 0, 63, 0
2, 52848, Note_on_c, 0, 62, 78
2, 52871, Note_on_c, 0, 62, 0
2, 52872, Note_on_c, 0, 63, 78
2, 52895, Note_on_c, 0, 63, 0
2, 52896, Note_on_c, 0, 68, 78
2, 52919, Note_on_c, 0, 68, 0
2, 52920, Note_on_c, 0, 62, 78
2, 52943, Note_on_c, 0, 62, 0
2, 52944, Note_on_c, 0, 61, 78
2, 52967, Note_on_c, 0, 61, 0
2, 52968, Note_on_c, 0, 62, 78
2, 52991, Note_on_c, 0, 62, 0
2, 52992, Note_on_c, 0, 67, 78
2, 53015, Note_on_c, 0, 67, 0
2, 53016, Note_on_c, 0, 60, 78
2, 53039, Note_on_c, 0, 60, 0
2, 53040, Note_on_c, 0, 59, 78
2, 53063, Note_on_c, 0, 59, 0
2, 53064, Note_on_c, 0, 60, 78
2, 53087, Note_on_c, 0, 60, 0
2, 53088, Note_on_c, 0, 65, 78
2, 53111, Note_on_c, 0, 65, 0
2, 53112, Note_on_c, 0, 59, 78
2, 53135, Note_on_c, 0, 59, 0
2, 53136, Note_on_c, 0, 57, 78
2, 53159, Note_on_c, 0, 57, 0
2, 53160, Note_on_c, 0, 59, 78
2, 53183, Note_on_c, 0, 59, 0
2, 53184, Note_on_c, 0, 63, 78
2, 53207, Note_on_c, 0, 63, 0
2, 53208, Note_on_c, 0, 60, 78
2, 53231, Note_on_c, 0, 60, 0
2, 53232, Note_on_c, 0, 59, 78
2, 53255, Note_on_c, 0, 59, 0
2, 53256, Note_on_c, 0, 60, 78
2, 53279, Note_on_c, 0, 60, 0
2, 53328, Note_on_c, 0, 61, 78
2, 53348, Note_on_c, 0, 61, 0
2, 53376, Note_on_c, 0, 56, 79
2, 53396, Note_on_c, 0, 56, 0
2, 53424, Note_on_c, 0, 65, 80
2, 53444, Note_on_c, 0, 65, 0
2, 53472, Note_on_c, 0, 61, 81
2, 53492, Note_on_c, 0, 61, 0
2, 53520, Note_on_c, 0, 68, 82
2, 53540, Note_on_c, 0, 68, 0
2, 53568, Note_on_c, 0, 65, 83
2, 53588, Note_on_c, 0, 65, 0
2, 53616, Note_on_c, 0, 73, 84
2, 53636, Note_on_c, 0, 73, 0
2, 53664, Note_on_c, 0, 68, 85
2, 53684, Note_on_c, 0, 68, 0
2, 53712, Note_on_c, 0, 77, 86
2, 53732, Note_on_c, 0, 77, 0
2, 53760, Note_on_c, 0, 75, 85
2, 53780, Note_on_c, 0, 75, 0
2, 53808, Note_on_c, 0, 73, 84
2, 53828, Note_on_c, 0, 73, 0
2, 53856, Note_on_c, 0, 72, 83
2, 53876, Note_on_c, 0, 72, 0
2, 53904, Note_on_c, 0, 73, 82
2, 53924, Note_on_c, 0, 73, 0
2, 53952, Note_on_c, 0, 68, 81
2, 53972, Note_on_c, 0, 68, 0
2, 54000, Note_on_c, 0, 66, 80
2, 54020, Note_on_c, 0, 66, 0
2, 54048, Note_on_c, 0, 65, 79
2, 54068, Note_on_c, 0, 65, 0
2, 54096, Note_on_c, 0, 63, 78
2, 54116, Note_on_c, 0, 63, 0
2, 54144, Note_on_c, 0, 61, 78
2, 54189, Note_on_c, 0, 61, 0
2, 54192, Note_on_c, 0, 60, 80
2, 54237, Note_on_c, 0, 60, 0
2, 54240, Note_on_c, 0, 61, 82
2, 54285, Note_on_c, 0, 61, 0
2, 54288, Note_on_c, 0, 65, 84
2, 54333, Note_on_c, 0, 65, 0
2, 54336, Note_on_c, 0, 63, 86
2, 54381, Note_on_c, 0, 63, 0
2, 54384, Note_on_c, 0, 61, 85
2, 54429, Note_on_c, 0, 61, 0
2, 54432, Note_on_c, 0, 60, 84
2, 54624, Note_on_c, 0, 60, 0
2, 54624, Note_on_c, 0, 59, 80
2, 54713, Note_on_c, 0, 59, 0
2, 54720, Note_on_c, 0, 63, 78
2, 55053, Note_on_c, 0, 63, 0
2, 55056, Note_on_c, 0, 67, 78
2, 55101, Note_on_c, 0, 67, 0
2, 55104, Note_on_c, 0, 67, 78
2, 55149, Note_on_c, 0, 67, 0
2, 55152, Note_on_c, 0, 65, 78
2, 55197, Note_on_c, 0, 65, 0
2, 55200, Note_on_c, 0, 63, 78
2, 55245, Note_on_c, 0, 63, 0
2, 55248, Note_on_c, 0, 62, 78
2, 55293, Note_on_c, 0, 62, 0
2, 55296, Note_on_c, 0, 60, 78
2, 56493, Note_on_c, 0, 60, 0
2, 56496, Note_on_c, 0, 65, 86
2, 56541, Note_on_c, 0, 65, 0
2, 56544, Note_on_c, 0, 63, 86
2, 56589, Note_on_c, 0, 63, 0
2, 56592, Note_on_c, 0, 62, 86
2, 56637, Note_on_c, 0, 62, 0
2, 56640, Note_on_c, 0, 60, 86
2, 56685, Note_on_c, 0, 60, 0
2, 56688, Note_on_c, 0, 59, 86
2, 56733, Note_on_c, 0, 59, 0
2, 56736, Note_on_c, 0, 59, 86
2, 57024, Note_on_c, 0, 59, 0
2, 57024, Note_on_c, 0, 60, 86
2, 57113, Note_on_c, 0, 60, 0
2, 57216, Note_on_c, 0, 75, 94
2, 57312, Note_on_c, 0, 75, 0
2, 57312, Note_on_c, 0, 80, 78
2, 57335, Note_on_c, 0, 80, 0
2, 57336, Note_on_c, 0, 79, 78
2, 57359, Note_on_c, 0, 79, 0
2, 57360, Note_on_c, 0, 77, 78
2, 57383, Note_on_c, 0, 77, 0
2, 57384, Note_on_c, 0, 75, 78
2, 57407, Note_on_c, 0, 75, 0
2, 57408, Note_on_c, 0, 74, 78
2, 57447, Note_on_c, 0, 74, 0
2, 57504, Note_on_c, 0, 77, 78
2, 57593, Note_on_c, 0, 77, 0
2, 57600, Note_on_c, 0, 82, 78
2, 57623, Note_on_c, 0, 82, 0
2, 57624, Note_on_c, 0, 80, 78
2, 57647, Note_on_c, 0, 80, 0
2, 57648, Note_on_c, 0, 79, 78
2, 57671, Note_on_c, 0, 79, 0
2, 57672, Note_on_c, 0, 77, 78
2, 57695, Note_on_c, 0, 77, 0
2, 57696, Note_on_c, 0, 75, 78
2, 57735, Note_on_c, 0, 75, 0
2, 57792, Note_on_c, 0, 82, 78
2, 57859, Note_on_c, 0, 82, 0
2, 57864, Note_on_c, 0, 87, 79
2, 57887, Note_on_c, 0, 87, 0
2, 57888, Note_on_c, 0, 87, 96
2, 57960, Note_on_c, 0, 87, 0
2, 57960, Note_on_c, 0, 86, 81
2, 57983, Note_on_c, 0, 86, 0
2, 57984, Note_on_c, 0, 86, 98
2, 58056, Note_on_c, 0, 86, 0
2, 58056, Note_on_c, 0, 84, 83
2, 58079, Note_on_c, 0, 84, 0
2, 58080, Note_on_c, 0, 84, 100
2, 58152, Note_on_c, 0, 84, 0
2, 58152, Note_on_c, 0, 82, 85
2, 58175, Note_on_c, 0, 82, 0
2, 58176, Note_on_c, 0, 82, 102
2, 58368, Note_on_c, 0, 82, 0
2, 58368, Note_on_c, 0, 82, 86
2, 58391, Note_on_c, 0, 82, 0
2, 58392, Note_on_c, 0, 80, 86
2, 58415, Note_on_c, 0, 80, 0
2, 58416, Note_on_c, 0, 79, 86
2, 58439, Note_on_c, 0, 79, 0
2, 58440, Note_on_c, 0, 77, 86
2, 58463, Note_on_c, 0, 77, 0
2, 58464, Note_on_c, 0, 80, 86
2, 58487, Note_on_c, 0, 80, 0
2, 58488, Note_on_c, 0, 79, 86
2, 58511, Note_on_c, 0, 79, 0
2, 58512, Note_on_c, 0, 77, 86
2, 58535, Note_on_c, 0, 77, 0
2, 58536, Note_on_c, 0, 75, 86
2, 58559, Note_on_c, 0, 75, 0
2, 58560, Note_on_c, 0, 74, 86
2, 58627, Note_on_c, 0, 74, 0
2, 58632, Note_on_c, 0, 75, 86
2, 58655, Note_on_c, 0, 75, 0
2, 58656, Note_on_c, 0, 77, 86
2, 58671, Note_on_c, 0, 77, 0
2, 58672, Note_on_c, 0, 75, 85
2, 58687, Note_on_c, 0, 75, 0
2, 58688, Note_on_c, 0, 77, 84
2, 58703, Note_on_c, 0, 77, 0
2, 58704, Note_on_c, 0, 75, 83
2, 58719, Note_on_c, 0, 75, 0
2, 58720, Note_on_c, 0, 74, 82
2, 58735, Note_on_c, 0, 74, 0
2, 58736, Note_on_c, 0, 75, 81
2, 58751, Note_on_c, 0, 75, 0
2, 58752, Note_on_c, 0, 75, 78
2, 58848, Note_on_c, 0, 75, 0
2, 58848, Note_on_c, 0, 77, 78
2, 58887, Note_on_c, 0, 77, 0
2, 59232, Note_on_c, 0, 65, 94
2, 59328, Note_on_c, 0, 65, 0
2, 59328, Note_on_c, 0, 70, 78
2, 59351, Note_on_c, 0, 70, 0
2, 59352, Note_on_c, 0, 68, 78
2, 59375, Note_on_c, 0, 68, 0
2, 59376, Note_on_c, 0, 67, 78
2, 59399, Note_on_c, 0, 67, 0
2, 59400, Note_on_c, 0, 65, 78
2, 59423, Note_on_c, 0, 65, 0
2, 59424, Note_on_c, 0, 64, 78
2, 59463, Note_on_c, 0, 64, 0
2, 59520, Note_on_c, 0, 64, 78
2, 59543, Note_on_c, 0, 64, 0
2, 59544, Note_on_c, 0, 65, 80
2, 59567, Note_on_c, 0, 65, 0
2, 59568, Note_on_c, 0, 67, 82
2, 59591, Note_on_c, 0, 67, 0
2, 59592, Note_on_c, 0, 68, 84
2, 59615, Note_on_c, 0, 68, 0
2, 59616, Note_on_c, 0, 72, 86
2, 59639, Note_on_c, 0, 72, 0
2, 59640, Note_on_c, 0, 70, 84
2, 59663, Note_on_c, 0, 70, 0
2, 59664, Note_on_c, 0, 68, 82
2, 59687, Note_on_c, 0, 68, 0
2, 59688, Note_on_c, 0, 67, 80
2, 59711, Note_on_c, 0, 67, 0
2, 59712, Note_on_c, 0, 65, 78
2, 59751, Note_on_c, 0, 65, 0
2, 59808, Note_on_c, 0, 77, 78
2, 59831, Note_on_c, 0, 77, 0
2, 59832, Note_on_c, 0, 76, 80
2, 59855, Note_on_c, 0, 76, 0
2, 59856, Note_on_c, 0, 79, 82
2, 59879, Note_on_c, 0, 79, 0
2, 59880, Note_on_c, 0, 77, 84
2, 59903, Note_on_c, 0, 77, 0
2, 59904, Note_on_c, 0, 80, 86
2, 59924, Note_on_c, 0, 80, 0
2, 59952, Note_on_c, 0, 79, 84
2, 59972, Note_on_c, 0, 79, 0
2, 60000, Note_on_c, 0, 77, 82
2, 60020, Note_on_c, 0, 77, 0
2, 60048, Note_on_c, 0, 75, 81
2, 60068, Note_on_c, 0, 75, 0
2, 60096, Note_on_c, 0, 74, 79
2, 60116, Note_on_c, 0, 74, 0
2, 60144, Note_on_c, 0, 72, 78
2, 60164, Note_on_c, 0, 72, 0
2, 60192, Note_on_c, 0, 72, 94
2, 60288, Note_on_c, 0, 72, 0
2, 60288, Note_on_c, 0, 71, 78
2, 60308, Note_on_c, 0, 71, 0
2, 60336, Note_on_c, 0, 80, 78
2, 60356, Note_on_c, 0, 80, 0
2, 60384, Note_on_c, 0, 79, 74
2, 60404, Note_on_c, 0, 79, 0
2, 60432, Note_on_c, 0, 77, 71
2, 60452, Note_on_c, 0, 77, 0
2, 60480, Note_on_c, 0, 77, 89
2, 60576, Note_on_c, 0, 77, 0
2, 60576, Note_on_c, 0, 75, 78
2, 60596, Note_on_c, 0, 75, 0
2, 60624, Note_on_c, 0, 74, 75
2, 60644, Note_on_c, 0, 74, 0
2, 60672, Note_on_c, 0, 72, 73
2, 60692, Note_on_c, 0, 72, 0
2, 60720, Note_on_c, 0, 70, 71
2, 60740, Note_on_c, 0, 70, 0
2, 60768, Note_on_c, 0, 70, 88
2, 60864, Note_on_c, 0, 70, 0
2, 60864, Note_on_c, 0, 69, 76
2, 60884, Note_on_c, 0, 69, 0
2, 60912, Note_on_c, 0, 79, 78
2, 60932, Note_on_c, 0, 79, 0
2, 60960, Note_on_c, 0, 77, 77
2, 60980, Note_on_c, 0, 77, 0
2, 61008, Note_on_c, 0, 75, 76
2, 61028, Note_on_c, 0, 75, 0
2, 61056, Note_on_c, 0, 75, 91
2, 61152, Note_on_c, 0, 75, 0
2, 61152, Note_on_c, 0, 74, 74
2, 61172, Note_on_c, 0, 74, 0
2, 61200, Note_on_c, 0, 72, 78
2, 61220, Note_on_c, 0, 72, 0
2, 61248, Note_on_c, 0, 70, 77
2, 61268, Note_on_c, 0, 70, 0
2, 61296, Note_on_c, 0, 69, 76
2, 61316, Note_on_c, 0, 69, 0
2, 61344, Note_on_c, 0, 69, 91
2, 61440, Note_on_c, 0, 69, 0
2, 61440, Note_on_c, 0, 67, 78
2, 61460, Note_on_c, 0, 67, 0
2, 61488, Note_on_c, 0, 77, 78
2, 61508, Note_on_c, 0, 77, 0
2, 61536, Note_on_c, 0, 75, 75
2, 61556, Note_on_c, 0, 75, 0
2, 61584, Note_on_c, 0, 74, 73
2, 61604, Note_on_c, 0, 74, 0
2, 61632, Note_on_c, 0, 74, 87
2, 61728, Note_on_c, 0, 74, 0
2, 61728, Note_on_c, 0, 72, 75
2, 61748, Note_on_c, 0, 72, 0
2, 61776, Note_on_c, 0, 70, 78
2, 61796, Note_on_c, 0, 70, 0
2, 61824, Note_on_c, 0, 69, 74
2, 61844, Note_on_c, 0, 69, 0
2, 61872, Note_on_c, 0, 67, 71
2, 61892, Note_on_c, 0, 67, 0
2, 61920, Note_on_c, 0, 67, 89
2, 62016, Note_on_c, 0, 67, 0
2, 62016, Note_on_c, 0, 66, 78
2, 62036, Note_on_c, 0, 66, 0
2, 62064, Note_on_c, 0, 75, 78
2, 62084, Note_on_c, 0, 75, 0
2, 62112, Note_on_c, 0, 74, 79
2, 62132, Note_on_c, 0, 74, 0
2, 62160, Note_on_c, 0, 72, 81
2, 62180, Note_on_c, 0, 72, 0
2, 62208, Note_on_c, 0, 72, 98
2, 62256, Note_on_c, 0, 72, 0
2, 62256, Note_on_c, 0, 70, 84
2, 62301, Note_on_c, 0, 70, 0
2, 62304, Note_on_c, 0, 79, 86
2, 62343, Note_on_c, 0, 79, 0
2, 62448, Note_on_c, 0, 55, 86
2, 62493, Note_on_c, 0, 55, 0
2, 62496, Note_on_c, 0, 54, 86
2, 62519, Note_on_c, 0, 54, 0
2, 62520, Note_on_c, 0, 57, 86
2, 62543, Note_on_c, 0, 57, 0
2, 62544, Note_on_c, 0, 55, 86
2, 62567, Note_on_c, 0, 55, 0
2, 62568, Note_on_c, 0, 58, 86
2, 62591, Note_on_c, 0, 58, 0
2, 62592, Note_on_c, 0, 57, 86
2, 62615, Note_on_c, 0, 57, 0
2, 62616, Note_on_c, 0, 60, 86
2, 62639, Note_on_c, 0, 60, 0
2, 62640, Note_on_c, 0, 58, 86
2, 62663, Note_on_c, 0, 58, 0
2, 62664, Note_on_c, 0, 62, 86
2, 62687, Note_on_c, 0, 62, 0
2, 62688, Note_on_c, 0, 60, 86
2, 62708, Note_on_c, 0, 60, 0
2, 62784, Note_on_c, 0, 55, 86
2, 62807, Note_on_c, 0, 55, 0
2, 62808, Note_on_c, 0, 58, 86
2, 62831, Note_on_c, 0, 58, 0
2, 62832, Note_on_c, 0, 57, 86
2, 62855, Note_on_c, 0, 57, 0
2, 62856, Note_on_c, 0, 60, 86
2, 62879, Note_on_c, 0, 60, 0
2, 62880, Note_on_c, 0, 58, 86
2, 62903, Note_on_c, 0, 58, 0
2, 62904, Note_on_c, 0, 62, 86
2, 62927, Note_on_c, 0, 62, 0
2, 62928, Note_on_c, 0, 60, 86
2, 62951, Note_on_c, 0, 60, 0
2, 62952, Note_on_c, 0, 63, 86
2, 62975, Note_on_c, 0, 63, 0
2, 62976, Note_on_c, 0, 62, 86
2, 62996, Note_on_c, 0, 62, 0
2, 63072, Note_on_c, 0, 54, 86
2, 63095, Note_on_c, 0, 54, 0
2, 63096, Note_on_c, 0, 57, 86
2, 63119, Note_on_c, 0, 57, 0
2, 63120, Note_on_c, 0, 55, 86
2, 63143, Note_on_c, 0, 55, 0
2, 63144, Note_on_c, 0, 58, 86
2, 63167, Note_on_c, 0, 58, 0
2, 63168, Note_on_c, 0, 57, 86
2, 63191, Note_on_c, 0, 57, 0
2, 63192, Note_on_c, 0, 60, 86
2, 63215, Note_on_c, 0, 60, 0
2, 63216, Note_on_c, 0, 58, 86
2, 63239, Note_on_c, 0, 58, 0
2, 63240, Note_on_c, 0, 62, 86
2, 63263, Note_on_c, 0, 62, 0
2, 63264, Note_on_c, 0, 60, 86
2, 63287, Note_on_c, 0, 60, 0
2, 63288, Note_on_c, 0, 63, 86
2, 63311, Note_on_c, 0, 63, 0
2, 63312, Note_on_c, 0, 62, 86
2, 63335, Note_on_c, 0, 62, 0
2, 63336, Note_on_c, 0, 60, 86
2, 63359, Note_on_c, 0, 60, 0
2, 63360, Note_on_c, 0, 58, 86
2, 63383, Note_on_c, 0, 58, 0
2, 63384, Note_on_c, 0, 62, 86
2, 63407, Note_on_c, 0, 62, 0
2, 63408, Note_on_c, 0, 60, 86
2, 63431, Note_on_c, 0, 60, 0
2, 63432, Note_on_c, 0, 63, 86
2, 63455, Note_on_c, 0, 63, 0
2, 63456, Note_on_c, 0, 62, 86
2, 63479, Note_on_c, 0, 62, 0
2, 63480, Note_on_c, 0, 67, 86
2, 63503, Note_on_c, 0, 67, 0
2, 63504, Note_on_c, 0, 66, 86
2, 63527, Note_on_c, 0, 66, 0
2, 63528, Note_on_c, 0, 69, 86
2, 63551, Note_on_c, 0, 69, 0
2, 63552, Note_on_c, 0, 67, 86
2, 63575, Note_on_c, 0, 67, 0
2, 63576, Note_on_c, 0, 70, 86
2, 63599, Note_on_c, 0, 70, 0
2, 63600, Note_on_c, 0, 69, 86
2, 63623, Note_on_c, 0, 69, 0
2, 63624, Note_on_c, 0, 67, 86
2, 63647, Note_on_c, 0, 67, 0
2, 63648, Note_on_c, 0, 66, 86
2, 63671, Note_on_c, 0, 66, 0
2, 63672, Note_on_c, 0, 69, 86
2, 63695, Note_on_c, 0, 69, 0
2, 63696, Note_on_c, 0, 67, 86
2, 63719, Note_on_c, 0, 67, 0
2, 63720, Note_on_c, 0, 70, 86
2, 63743, Note_on_c, 0, 70, 0
2, 63744, Note_on_c, 0, 69, 86
2, 63767, Note_on_c, 0, 69, 0
2, 63768, Note_on_c, 0, 72, 86
2, 63791, Note_on_c, 0, 72, 0
2, 63792, Note_on_c, 0, 70, 86
2, 63815, Note_on_c, 0, 70, 0
2, 63816, Note_on_c, 0, 74, 86
2, 63839, Note_on_c, 0, 74, 0
2, 63840, Note_on_c, 0, 72, 86
2, 63863, Note_on_c, 0, 72, 0
2, 63864, Note_on_c, 0, 75, 86
2, 63887, Note_on_c, 0, 75, 0
2, 63888, Note_on_c, 0, 74, 86
2, 63911, Note_on_c, 0, 74, 0
2, 63912, Note_on_c, 0, 72, 86
2, 63935, Note_on_c, 0, 72, 0
2, 63936, Note_on_c, 0, 70, 86
2, 63959, Note_on_c, 0, 70, 0
2, 63960, Note_on_c, 0, 74, 86
2, 63983, Note_on_c, 0, 74, 0
2, 63984, Note_on_c, 0, 72, 86
2, 64007, Note_on_c, 0, 72, 0
2, 64008, Note_on_c, 0, 75, 86
2, 64031, Note_on_c, 0, 75, 0
2, 64032, Note_on_c, 0, 74, 86
2, 64055, Note_on_c, 0, 74, 0
2, 64056, Note_on_c, 0, 79, 86
2, 64079, Note_on_c, 0, 79, 0
2, 64080, Note_on_c, 0, 78, 86
2, 64103, Note_on_c, 0, 78, 0
2, 64104, Note_on_c, 0, 81, 86
2, 64127, Note_on_c, 0, 81, 0
2, 64128, Note_on_c, 0, 79, 86
2, 64151, Note_on_c, 0, 79, 0
2, 64152, Note_on_c, 0, 82, 86
2, 64175, Note_on_c, 0, 82, 0
2, 64176, Note_on_c, 0, 81, 86
2, 64199, Note_on_c, 0, 81, 0
2, 64200, Note_on_c, 0, 79, 86
2, 64223, Note_on_c, 0, 79, 0
2, 64224, Note_on_c, 0, 78, 86
2, 64247, Note_on_c, 0, 78, 0
2, 64248, Note_on_c, 0, 81, 86
2, 64271, Note_on_c, 0, 81, 0
2, 64272, Note_on_c, 0, 79, 86
2, 64295, Note_on_c, 0, 79, 0
2, 64296, Note_on_c, 0, 82, 86
2, 64319, Note_on_c, 0, 82, 0
2, 64320, Note_on_c, 0, 81, 86
2, 64343, Note_on_c, 0, 81, 0
2, 64344, Note_on_c, 0, 84, 86
2, 64367, Note_on_c, 0, 84, 0
2, 64368, Note_on_c, 0, 82, 86
2, 64391, Note_on_c, 0, 82, 0
2, 64392, Note_on_c, 0, 86, 86
2, 64415, Note_on_c, 0, 86, 0
2, 64416, Note_on_c, 0, 84, 86
2, 64439, Note_on_c, 0, 84, 0
2, 64440, Note_on_c, 0, 87, 86
2, 64463, Note_on_c, 0, 87, 0
2, 64464, Note_on_c, 0, 86, 86
2, 64487, Note_on_c, 0, 86, 0
2, 64488, Note_on_c, 0, 84, 86
2, 64511, Note_on_c, 0, 84, 0
2, 64512, Note_on_c, 0, 82, 86
2, 64535, Note_on_c, 0, 82, 0
2, 64536, Note_on_c, 0, 84, 86
2, 64559, Note_on_c, 0, 84, 0
2, 64560, Note_on_c, 0, 86, 86
2, 64583, Note_on_c, 0, 86, 0
2, 64584, Note_on_c, 0, 84, 86
2, 64607, Note_on_c, 0, 84, 0
2, 64608, Note_on_c, 0, 82, 86
2, 64631, Note_on_c, 0, 82, 0
2, 64632, Note_on_c, 0, 81, 86
2, 64655, Note_on_c, 0, 81, 0
2, 64656, Note_on_c, 0, 79, 86
2, 64679, Note_on_c, 0, 79, 0
2, 64680, Note_on_c, 0, 78, 86
2, 64703, Note_on_c, 0, 78, 0
2, 64704, Note_on_c, 0, 79, 86
2, 64727, Note_on_c, 0, 79, 0
2, 64728, Note_on_c, 0, 77, 86
2, 64751, Note_on_c, 0, 77, 0
2, 64752, Note_on_c, 0, 75, 86
2, 64775, Note_on_c, 0, 75, 0
2, 64776, Note_on_c, 0, 74, 86
2, 64799, Note_on_c, 0, 74, 0
2, 64800, Note_on_c, 0, 77, 86
2, 64823, Note_on_c, 0, 77, 0
2, 64824, Note_on_c, 0, 75, 86
2, 64847, Note_on_c, 0, 75, 0
2, 64848, Note_on_c, 0, 74, 86
2, 64871, Note_on_c, 0, 74, 0
2, 64872, Note_on_c, 0, 72, 86
2, 64895, Note_on_c, 0, 72, 0
2, 64896, Note_on_c, 0, 70, 86
2, 64985, Note_on_c, 0, 70, 0
2, 64992, Note_on_c, 0, 70, 86
2, 65007, Note_on_c, 0, 70, 0
2, 65008, Note_on_c, 0, 69, 86
2, 65023, Note_on_c, 0, 69, 0
2, 65024, Note_on_c, 0, 70, 86
2, 65039, Note_on_c, 0, 70, 0
2, 65040, Note_on_c, 0, 69, 86
2, 65055, Note_on_c, 0, 69, 0
2, 65056, Note_on_c, 0, 67, 86
2, 65071, Note_on_c, 0, 67, 0
2, 65072, Note_on_c, 0, 69, 86
2, 65087, Note_on_c, 0, 69, 0
2, 65088, Note_on_c, 0, 67, 86
2, 65177, Note_on_c, 0, 67, 0
2, 65232, Note_on_c, 0, 79, 86
2, 65232, Note_on_c, 0, 75, 86
2, 65277, Note_on_c, 0, 79, 0
2, 65277, Note_on_c, 0, 75, 0
2, 65280, Note_on_c, 0, 77, 86
2, 65280, Note_on_c, 0, 74, 86
2, 65325, Note_on_c, 0, 77, 0
2, 65325, Note_on_c, 0, 74, 0
2, 65328, Note_on_c, 0, 75, 86
2, 65328, Note_on_c, 0, 72, 86
2, 65373, Note_on_c, 0, 75, 0
2, 65373, Note_on_c, 0, 72, 0
2, 65376, Note_on_c, 0, 74, 86
2, 65376, Note_on_c, 0, 71, 86
2, 65465, Note_on_c, 0, 74, 0
2, 65465, Note_on_c, 0, 71, 0
2, 65520, Note_on_c, 0, 75, 86
2, 65520, Note_on_c, 0, 72, 86
2, 65565, Note_on_c, 0, 75, 0
2, 65565, Note_on_c, 0, 72, 0
2, 65568, Note_on_c, 0, 74, 86
2, 65568, Note_on_c, 0, 71, 86
2, 65613, Note_on_c, 0, 74, 0
2, 65613, Note_on_c, 0, 71, 0
2, 65616, Note_on_c, 0, 72, 86
2, 65616, Note_on_c, 0, 69, 86
2, 65661, Note_on_c, 0, 72, 0
2, 65661, Note_on_c, 0, 69, 0
2, 65664, Note_on_c, 0, 71, 86
2, 65664, Note_on_c, 0, 67, 86
2, 65753, Note_on_c, 0, 71, 0
2, 65753, Note_on_c, 0, 67, 0
2, 65808, Note_on_c, 0, 67, 86
2, 65808, Note_on_c, 0, 63, 86
2, 65853, Note_on_c, 0, 67, 0
2, 65853, Note_on_c, 0, 63, 0
2, 65856, Note_on_c, 0, 65, 86
2, 65856, Note_on_c, 0, 62, 86
2, 65901, Note_on_c, 0, 65, 0
2, 65901, Note_on_c, 0, 62, 0
2, 65904, Note_on_c, 0, 63, 86
2, 65904, Note_on_c, 0, 60, 86
2, 65949, Note_on_c, 0, 63, 0
2, 65949, Note_on_c, 0, 60, 0
2, 65952, Note_on_c, 0, 62, 86
2, 65952, Note_on_c, 0, 59, 86
2, 66041, Note_on_c, 0, 62, 0
2, 66041, Note_on_c, 0, 59, 0
2, 66096, Note_on_c, 0, 51, 86
2, 66096, Note_on_c, 0, 48, 86
2, 66141, Note_on_c, 0, 51, 0
2, 66141, Note_on_c, 0, 48, 0
2, 66144, Note_on_c, 0, 50, 86
2, 66144, Note_on_c, 0, 47, 86
2, 66189, Note_on_c, 0, 50, 0
2, 66189, Note_on_c, 0, 47, 0
2, 66192, Note_on_c, 0, 48, 86
2, 66192, Note_on_c, 0, 45, 86
2, 66237, Note_on_c, 0, 48, 0
2, 66237, Note_on_c, 0, 45, 0
2, 66240, Note_on_c, 0, 47, 86
2, 66240, Note_on_c, 0, 43, 86
2, 66329, Note_on_c, 0, 47, 0
2, 66329, Note_on_c, 0, 43, 0
2, 66384, Note_on_c, 0, 71, 86
2, 66429, Note_on_c, 0, 71, 0
2, 66432, Note_on_c, 0, 72, 86
2, 66477, Note_on_c, 0, 72, 0
2, 66480, Note_on_c, 0, 74, 86
2, 66525, Note_on_c, 0, 74, 0
2, 66528, Note_on_c, 0, 77, 86
2, 66551, Note_on_c, 0, 77, 0
2, 66552, Note_on_c, 0, 75, 86
2, 66575, Note_on_c, 0, 75, 0
2, 66576, Note_on_c, 0, 74, 86
2, 66599, Note_on_c, 0, 74, 0
2, 66600, Note_on_c, 0, 72, 86
2, 66623, Note_on_c, 0, 72, 0
2, 66624, Note_on_c, 0, 71, 86
2, 66672, Note_on_c, 0, 71, 0
2, 66672, Note_on_c, 0, 72, 86
2, 66717, Note_on_c, 0, 72, 0
2, 66720, Note_on_c, 0, 73, 87
2, 66768, Note_on_c, 0, 73, 0
2, 66768, Note_on_c, 0, 74, 88
2, 66813, Note_on_c, 0, 74, 0
2, 66816, Note_on_c, 0, 79, 88
2, 66839, Note_on_c, 0, 79, 0
2, 66840, Note_on_c, 0, 77, 89
2, 66863, Note_on_c, 0, 77, 0
2, 66864, Note_on_c, 0, 75, 89
2, 66887, Note_on_c, 0, 75, 0
2, 66888, Note_on_c, 0, 74, 89
2, 66911, Note_on_c, 0, 74, 0
2, 66912, Note_on_c, 0, 72, 86
2, 66957, Note_on_c, 0, 72, 0
2, 66960, Note_on_c, 0, 75, 87
2, 67005, Note_on_c, 0, 75, 0
2, 67008, Note_on_c, 0, 79, 89
2, 67053, Note_on_c, 0, 79, 0
2, 67056, Note_on_c, 0, 84, 91
2, 67101, Note_on_c, 0, 84, 0
2, 67104, Note_on_c, 0, 84, 109
2, 67152, Note_on_c, 0, 84, 0
2, 67152, Note_on_c, 0, 83, 93
2, 67175, Note_on_c, 0, 83, 0
2, 67200, Note_on_c, 0, 83, 109
2, 67248, Note_on_c, 0, 83, 0
2, 67248, Note_on_c, 0, 80, 93
2, 67271, Note_on_c, 0, 80, 0
2, 67296, Note_on_c, 0, 80, 109
2, 67344, Note_on_c, 0, 80, 0
2, 67344, Note_on_c, 0, 79, 93
2, 67367, Note_on_c, 0, 79, 0
2, 67392, Note_on_c, 0, 79, 109
2, 67536, Note_on_c, 0, 79, 0
2, 67536, Note_on_c, 0, 74, 93
2, 67559, Note_on_c, 0, 74, 0
2, 67560, Note_on_c, 0, 75, 93
2, 67583, Note_on_c, 0, 75, 0
2, 67584, Note_on_c, 0, 79, 93
2, 67607, Note_on_c, 0, 79, 0
2, 67608, Note_on_c, 0, 77, 93
2, 67631, Note_on_c, 0, 77, 0
2, 67632, Note_on_c, 0, 75, 93
2, 67655, Note_on_c, 0, 75, 0
2, 67656, Note_on_c, 0, 74, 93
2, 67679, Note_on_c, 0, 74, 0
2, 67680, Note_on_c, 0, 77, 93
2, 67703, Note_on_c, 0, 77, 0
2, 67704, Note_on_c, 0, 75, 93
2, 67727, Note_on_c, 0, 75, 0
2, 67728, Note_on_c, 0, 74, 93
2, 67751, Note_on_c, 0, 74, 0
2, 67752, Note_on_c, 0, 72, 93
2, 67775, Note_on_c, 0, 72, 0
2, 67776, Note_on_c, 0, 71, 93
2, 67843, Note_on_c, 0, 71, 0
2, 67848, Note_on_c, 0, 72, 93
2, 67871, Note_on_c, 0, 72, 0
2, 67872, Note_on_c, 0, 74, 86
2, 67887, Note_on_c, 0, 74, 0
2, 67888, Note_on_c, 0, 72, 85
2, 67903, Note_on_c, 0, 72, 0
2, 67904, Note_on_c, 0, 74, 85
2, 67919, Note_on_c, 0, 74, 0
2, 67920, Note_on_c, 0, 72, 85
2, 67935, Note_on_c, 0, 72, 0
2, 67936, Note_on_c, 0, 71, 84
2, 67951, Note_on_c, 0, 71, 0
2, 67952, Note_on_c, 0, 72, 84
2, 67967, Note_on_c, 0, 72, 0
2, 67968, Note_on_c, 0, 72, 84
2, 68064, Note_on_c, 0, 72, 0
2, 68064, Note_on_c, 0, 74, 81
2, 68103, Note_on_c, 0, 74, 0
2, 68304, Note_on_c, 0, 72, 78
2, 68349, Note_on_c, 0, 72, 0
2, 68352, Note_on_c, 0, 75, 79
2, 68397, Note_on_c, 0, 75, 0
2, 68400, Note_on_c, 0, 72, 81
2, 68445, Note_on_c, 0, 72, 0
2, 68448, Note_on_c, 0, 68, 82
2, 68493, Note_on_c, 0, 68, 0
2, 68496, Note_on_c, 0, 67, 84
2, 68541, Note_on_c, 0, 67, 0
2, 68544, Note_on_c, 0, 67, 102
2, 68640, Note_on_c, 0, 67, 0
2, 68640, Note_on_c, 0, 66, 83
2, 68817, Note_on_c, 0, 66, 0
2, 68880, Note_on_c, 0, 65, 78
2, 68925, Note_on_c, 0, 65, 0
2, 68928, Note_on_c, 0, 74, 79
2, 68973, Note_on_c, 0, 74, 0
2, 68976, Note_on_c, 0, 71, 81
2, 69021, Note_on_c, 0, 71, 0
2, 69024, Note_on_c, 0, 67, 82
2, 69069, Note_on_c, 0, 67, 0
2, 69072, Note_on_c, 0, 65, 84
2, 69117, Note_on_c, 0, 65, 0
2, 69120, Note_on_c, 0, 65, 86
2, 69216, Note_on_c, 0, 65, 0
2, 69216, Note_on_c, 0, 63, 83
2, 69453, Note_on_c, 0, 63, 0
2, 69456, Note_on_c, 0, 62, 78
2, 69501, Note_on_c, 0, 62, 0
2, 69504, Note_on_c, 0, 68, 79
2, 69549, Note_on_c, 0, 68, 0
2, 69552, Note_on_c, 0, 65, 81
2, 69597, Note_on_c, 0, 65, 0
2, 69600, Note_on_c, 0, 62, 82
2, 69645, Note_on_c, 0, 62, 0
2, 69648, Note_on_c, 0, 60, 84
2, 69693, Note_on_c, 0, 60, 0
2, 69696, Note_on_c, 0, 59, 86
2, 69719, Note_on_c, 0, 59, 0
2, 69720, Note_on_c, 0, 62, 86
2, 69743, Note_on_c, 0, 62, 0
2, 69744, Note_on_c, 0, 60, 86
2, 69767, Note_on_c, 0, 60, 0
2, 69768, Note_on_c, 0, 63, 86
2, 69791, Note_on_c, 0, 63, 0
2, 69792, Note_on_c, 0, 62, 86
2, 69815, Note_on_c, 0, 62, 0
2, 69816, Note_on_c, 0, 65, 86
2, 69839, Note_on_c, 0, 65, 0
2, 69840, Note_on_c, 0, 63, 86
2, 69863, Note_on_c, 0, 63, 0
2, 69864, Note_on_c, 0, 67, 86
2, 69887, Note_on_c, 0, 67, 0
2, 69888, Note_on_c, 0, 65, 86
2, 69933, Note_on_c, 0, 65, 0
2, 69984, Note_on_c, 0, 60, 86
2, 70007, Note_on_c, 0, 60, 0
2, 70008, Note_on_c, 0, 63, 86
2, 70031, Note_on_c, 0, 63, 0
2, 70032, Note_on_c, 0, 62, 86
2, 70055, Note_on_c, 0, 62, 0
2, 70056, Note_on_c, 0, 65, 86
2, 70079, Note_on_c, 0, 65, 0
2, 70080, Note_on_c, 0, 63, 86
2, 70103, Note_on_c, 0, 63, 0
2, 70104, Note_on_c, 0, 67, 86
2, 70127, Note_on_c, 0, 67, 0
2, 70128, Note_on_c, 0, 65, 86
2, 70151, Note_on_c, 0, 65, 0
2, 70152, Note_on_c, 0, 68, 86
2, 70175, Note_on_c, 0, 68, 0
2, 70176, Note_on_c, 0, 67, 86
2, 70221, Note_on_c, 0, 67, 0
2, 70272, Note_on_c, 0, 59, 86
2, 70295, Note_on_c, 0, 59, 0
2, 70296, Note_on_c, 0, 62, 86
2, 70319, Note_on_c, 0, 62, 0
2, 70320, Note_on_c, 0, 60, 86
2, 70343, Note_on_c, 0, 60, 0
2, 70344, Note_on_c, 0, 63, 86
2, 70367, Note_on_c, 0, 63, 0
2, 70368, Note_on_c, 0, 62, 86
2, 70391, Note_on_c, 0, 62, 0
2, 70392, Note_on_c, 0, 65, 86
2, 70415, Note_on_c, 0, 65, 0
2, 70416, Note_on_c, 0, 63, 86
2, 70439, Note_on_c, 0, 63, 0
2, 70440, Note_on_c, 0, 67, 86
2, 70463, Note_on_c, 0, 67, 0
2, 70464, Note_on_c, 0, 65, 86
2, 70487, Note_on_c, 0, 65, 0
2, 70488, Note_on_c, 0, 68, 86
2, 70511, Note_on_c, 0, 68, 0
2, 70512, Note_on_c, 0, 67, 86
2, 70535, Note_on_c, 0, 67, 0
2, 70536, Note_on_c, 0, 65, 86
2, 70559, Note_on_c, 0, 65, 0
2, 70560, Note_on_c, 0, 63, 86
2, 70583, Note_on_c, 0, 63, 0
2, 70584, Note_on_c, 0, 67, 86
2, 70607, Note_on_c, 0, 67, 0
2, 70608, Note_on_c, 0, 65, 86
2, 70631, Note_on_c, 0, 65, 0
2, 70632, Note_on_c, 0, 68, 86
2, 70655, Note_on_c, 0, 68, 0
2, 70656, Note_on_c, 0, 67, 86
2, 70679, Note_on_c, 0, 67, 0
2, 70680, Note_on_c, 0, 72, 86
2, 70703, Note_on_c, 0, 72, 0
2, 70704, Note_on_c, 0, 71, 86
2, 70727, Note_on_c, 0, 71, 0
2, 70728, Note_on_c, 0, 74, 86
2, 70751, Note_on_c, 0, 74, 0
2, 70752, Note_on_c, 0, 72, 86
2, 70775, Note_on_c, 0, 72, 0
2, 70776, Note_on_c, 0, 75, 86
2, 70799, Note_on_c, 0, 75, 0
2, 70800, Note_on_c, 0, 74, 86
2, 70823, Note_on_c, 0, 74, 0
2, 70824, Note_on_c, 0, 72, 86
2, 70847, Note_on_c, 0, 72, 0
2, 70848, Note_on_c, 0, 71, 86
2, 70871, Note_on_c, 0, 71, 0
2, 70872, Note_on_c, 0, 74, 86
2, 70895, Note_on_c, 0, 74, 0
2, 70896, Note_on_c, 0, 72, 86
2, 70919, Note_on_c, 0, 72, 0
2, 70920, Note_on_c, 0, 75, 86
2, 70943, Note_on_c, 0, 75, 0
2, 70944, Note_on_c, 0, 74, 86
2, 70967, Note_on_c, 0, 74, 0
2, 70968, Note_on_c, 0, 77, 86
2, 70991, Note_on_c, 0, 77, 0
2, 70992, Note_on_c, 0, 75, 86
2, 71015, Note_on_c, 0, 75, 0
2, 71016, Note_on_c, 0, 79, 86
2, 71039, Note_on_c, 0, 79, 0
2, 71040, Note_on_c, 0, 77, 86
2, 71063, Note_on_c, 0, 77, 0
2, 71064, Note_on_c, 0, 80, 86
2, 71087, Note_on_c, 0, 80, 0
2, 71088, Note_on_c, 0, 79, 86
2, 71111, Note_on_c, 0, 79, 0
2, 71112, Note_on_c, 0, 77, 86
2, 71135, Note_on_c, 0, 77, 0
2, 71136, Note_on_c, 0, 75, 86
2, 71159, Note_on_c, 0, 75, 0
2, 71160, Note_on_c, 0, 79, 86
2, 71183, Note_on_c, 0, 79, 0
2, 71184, Note_on_c, 0, 77, 86
2, 71207, Note_on_c, 0, 77, 0
2, 71208, Note_on_c, 0, 80, 86
2, 71231, Note_on_c, 0, 80, 0
2, 71232, Note_on_c, 0, 79, 86
2, 71255, Note_on_c, 0, 79, 0
2, 71256, Note_on_c, 0, 84, 86
2, 71279, Note_on_c, 0, 84, 0
2, 71280, Note_on_c, 0, 83, 86
2, 71303, Note_on_c, 0, 83, 0
2, 71304, Note_on_c, 0, 86, 86
2, 71327, Note_on_c, 0, 86, 0
2, 71328, Note_on_c, 0, 84, 86
2, 71351, Note_on_c, 0, 84, 0
2, 71352, Note_on_c, 0, 87, 86
2, 71375, Note_on_c, 0, 87, 0
2, 71376, Note_on_c, 0, 86, 86
2, 71399, Note_on_c, 0, 86, 0
2, 71400, Note_on_c, 0, 84, 86
2, 71423, Note_on_c, 0, 84, 0
2, 71424, Note_on_c, 0, 83, 86
2, 71447, Note_on_c, 0, 83, 0
2, 71448, Note_on_c, 0, 84, 86
2, 71471, Note_on_c, 0, 84, 0
2, 71472, Note_on_c, 0, 86, 86
2, 71495, Note_on_c, 0, 86, 0
2, 71496, Note_on_c, 0, 83, 86
2, 71519, Note_on_c, 0, 83, 0
2, 71520, Note_on_c, 0, 79, 86
2, 71565, Note_on_c, 0, 79, 0
2, 71712, Note_on_c, 0, 87, 86
2, 71735, Note_on_c, 0, 87, 0
2, 71736, Note_on_c, 0, 79, 86
2, 71759, Note_on_c, 0, 79, 0
2, 71760, Note_on_c, 0, 78, 86
2, 71783, Note_on_c, 0, 78, 0
2, 71784, Note_on_c, 0, 79, 86
2, 71807, Note_on_c, 0, 79, 0
2, 71808, Note_on_c, 0, 86, 86
2, 71831, Note_on_c, 0, 86, 0
2, 71832, Note_on_c, 0, 79, 86
2, 71855, Note_on_c, 0, 79, 0
2, 71856, Note_on_c, 0, 78, 86
2, 71879, Note_on_c, 0, 78, 0
2, 71880, Note_on_c, 0, 79, 86
2, 71903, Note_on_c, 0, 79, 0
2, 71904, Note_on_c, 0, 84, 86
2, 71927, Note_on_c, 0, 84, 0
2, 71928, Note_on_c, 0, 79, 86
2, 71951, Note_on_c, 0, 79, 0
2, 71952, Note_on_c, 0, 78, 86
2, 71975, Note_on_c, 0, 78, 0
2, 71976, Note_on_c, 0, 79, 86
2, 71999, Note_on_c, 0, 79, 0
2, 72000, Note_on_c, 0, 83, 86
2, 72023, Note_on_c, 0, 83, 0
2, 72024, Note_on_c, 0, 84, 86
2, 72047, Note_on_c, 0, 84, 0
2, 72048, Note_on_c, 0, 86, 86
2, 72071, Note_on_c, 0, 86, 0
2, 72072, Note_on_c, 0, 83, 86
2, 72095, Note_on_c, 0, 83, 0
2, 72096, Note_on_c, 0, 79, 86
2, 72141, Note_on_c, 0, 79, 0
2, 72288, Note_on_c, 0, 87, 86
2, 72311, Note_on_c, 0, 87, 0
2, 72312, Note_on_c, 0, 79, 86
2, 72335, Note_on_c, 0, 79, 0
2, 72336, Note_on_c, 0, 78, 86
2, 72359, Note_on_c, 0, 78, 0
2, 72360, Note_on_c, 0, 79, 86
2, 72383, Note_on_c, 0, 79, 0
2, 72384, Note_on_c, 0, 86, 86
2, 72407, Note_on_c, 0, 86, 0
2, 72408, Note_on_c, 0, 79, 86
2, 72431, Note_on_c, 0, 79, 0
2, 72432, Note_on_c, 0, 78, 86
2, 72455, Note_on_c, 0, 78, 0
2, 72456, Note_on_c, 0, 79, 86
2, 72479, Note_on_c, 0, 79, 0
2, 72480, Note_on_c, 0, 84, 86
2, 72503, Note_on_c, 0, 84, 0
2, 72504, Note_on_c, 0, 79, 86
2, 72527, Note_on_c, 0, 79, 0
2, 72528, Note_on_c, 0, 78, 86
2, 72551, Note_on_c, 0, 78, 0
2, 72552, Note_on_c, 0, 79, 86
2, 72575, Note_on_c, 0, 79, 0
2, 72576, Note_on_c, 0, 83, 86
2, 72599, Note_on_c, 0, 83, 0
2, 72600, Note_on_c, 0, 84, 86
2, 72623, Note_on_c, 0, 84, 0
2, 72624, Note_on_c, 0, 86, 86
2, 72647, Note_on_c, 0, 86, 0
2, 72648, Note_on_c, 0, 83, 86
2, 72671, Note_on_c, 0, 83, 0
2, 72672, Note_on_c, 0, 79, 86
2, 72717, Note_on_c, 0, 79, 0
2, 72864, Note_on_c, 0, 75, 86
2, 72887, Note_on_c, 0, 75, 0
2, 72888, Note_on_c, 0, 77, 86
2, 72911, Note_on_c, 0, 77, 0
2, 72912, Note_on_c, 0, 79, 86
2, 72935, Note_on_c, 0, 79, 0
2, 72936, Note_on_c, 0, 75, 86
2, 72959, Note_on_c, 0, 75, 0
2, 72960, Note_on_c, 0, 72, 86
2, 73005, Note_on_c, 0, 72, 0
2, 73152, Note_on_c, 0, 80, 86
2, 73175, Note_on_c, 0, 80, 0
2, 73176, Note_on_c, 0, 72, 86
2, 73199, Note_on_c, 0, 72, 0
2, 73200, Note_on_c, 0, 71, 86
2, 73223, Note_on_c, 0, 71, 0
2, 73224, Note_on_c, 0, 72, 86
2, 73247, Note_on_c, 0, 72, 0
2, 73248, Note_on_c, 0, 79, 86
2, 73271, Note_on_c, 0, 79, 0
2, 73272, Note_on_c, 0, 72, 86
2, 73295, Note_on_c, 0, 72, 0
2, 73296, Note_on_c, 0, 71, 86
2, 73319, Note_on_c, 0, 71, 0
2, 73320, Note_on_c, 0, 72, 86
2, 73343, Note_on_c, 0, 72, 0
2, 73344, Note_on_c, 0, 77, 86
2, 73367, Note_on_c, 0, 77, 0
2, 73368, Note_on_c, 0, 72, 86
2, 73391, Note_on_c, 0, 72, 0
2, 73392, Note_on_c, 0, 71, 86
2, 73415, Note_on_c, 0, 71, 0
2, 73416, Note_on_c, 0, 72, 86
2, 73439, Note_on_c, 0, 72, 0
2, 73440, Note_on_c, 0, 75, 86
2, 73463, Note_on_c, 0, 75, 0
2, 73464, Note_on_c, 0, 77, 86
2, 73487, Note_on_c, 0, 77, 0
2, 73488, Note_on_c, 0, 79, 86
2, 73511, Note_on_c, 0, 79, 0
2, 73512, Note_on_c, 0, 75, 86
2, 73535, Note_on_c, 0, 75, 0
2, 73536, Note_on_c, 0, 72, 86
2, 73581, Note_on_c, 0, 72, 0
2, 73728, Note_on_c, 0, 80, 86
2, 73751, Note_on_c, 0, 80, 0
2, 73752, Note_on_c, 0, 72, 86
2, 73775, Note_on_c, 0, 72, 0
2, 73776, Note_on_c, 0, 71, 86
2, 73799, Note_on_c, 0, 71, 0
2, 73800, Note_on_c, 0, 72, 86
2, 73823, Note_on_c, 0, 72, 0
2, 73824, Note_on_c, 0, 79, 86
2, 73847, Note_on_c, 0, 79, 0
2, 73848, Note_on_c, 0, 72, 86
2, 73871, Note_on_c, 0, 72, 0
2, 73872, Note_on_c, 0, 71, 86
2, 73895, Note_on_c, 0, 71, 0
2, 73896, Note_on_c, 0, 72, 86
2, 73919, Note_on_c, 0, 72, 0
2, 73920, Note_on_c, 0, 79, 86
2, 73943, Note_on_c, 0, 79, 0
2, 73944, Note_on_c, 0, 72, 86
2, 73967, Note_on_c, 0, 72, 0
2, 73968, Note_on_c, 0, 71, 86
2, 73991, Note_on_c, 0, 71, 0
2, 73992, Note_on_c, 0, 72, 86
2, 74015, Note_on_c, 0, 72, 0
2, 74016, Note_on_c, 0, 77, 86
2, 74039, Note_on_c, 0, 77, 0
2, 74040, Note_on_c, 0, 72, 86
2, 74063, Note_on_c, 0, 72, 0
2, 74064, Note_on_c, 0, 71, 86
2, 74087, Note_on_c, 0, 71, 0
2, 74088, Note_on_c, 0, 72, 86
2, 74111, Note_on_c, 0, 72, 0
2, 74112, Note_on_c, 0, 75, 86
2, 74135, Note_on_c, 0, 75, 0
2, 74136, Note_on_c, 0, 72, 86
2, 74159, Note_on_c, 0, 72, 0
2, 74160, Note_on_c, 0, 71, 86
2, 74183, Note_on_c, 0, 71, 0
2, 74184, Note_on_c, 0, 72, 86
2, 74207, Note_on_c, 0, 72, 0
2, 74208, Note_on_c, 0, 75, 86
2, 74231, Note_on_c, 0, 75, 0
2, 74232, Note_on_c, 0, 72, 86
2, 74255, Note_on_c, 0, 72, 0
2, 74256, Note_on_c, 0, 71, 86
2, 74279, Note_on_c, 0, 71, 0
2, 74280, Note_on_c, 0, 72, 86
2, 74303, Note_on_c, 0, 72, 0
2, 74304, Note_on_c, 0, 80, 86
2, 74327, Note_on_c, 0, 80, 0
2, 74328, Note_on_c, 0, 72, 86
2, 74351, Note_on_c, 0, 72, 0
2, 74352, Note_on_c, 0, 71, 86
2, 74375, Note_on_c, 0, 71, 0
2, 74376, Note_on_c, 0, 72, 86
2, 74399, Note_on_c, 0, 72, 0
2, 74400, Note_on_c, 0, 79, 86
2, 74423, Note_on_c, 0, 79, 0
2, 74424, Note_on_c, 0, 72, 86
2, 74447, Note_on_c, 0, 72, 0
2, 74448, Note_on_c, 0, 71, 86
2, 74471, Note_on_c, 0, 71, 0
2, 74472, Note_on_c, 0, 72, 86
2, 74495, Note_on_c, 0, 72, 0
2, 74496, Note_on_c, 0, 79, 86
2, 74519, Note_on_c, 0, 79, 0
2, 74520, Note_on_c, 0, 72, 86
2, 74543, Note_on_c, 0, 72, 0
2, 74544, Note_on_c, 0, 71, 86
2, 74567, Note_on_c, 0, 71, 0
2, 74568, Note_on_c, 0, 72, 86
2, 74591, Note_on_c, 0, 72, 0
2, 74592, Note_on_c, 0, 78, 86
2, 74615, Note_on_c, 0, 78, 0
2, 74616, Note_on_c, 0, 72, 86
2, 74639, Note_on_c, 0, 72, 0
2, 74640, Note_on_c, 0, 71, 86
2, 74663, Note_on_c, 0, 71, 0
2, 74664, Note_on_c, 0, 72, 86
2, 74687, Note_on_c, 0, 72, 0
2, 74688, Note_on_c, 0, 78, 86
2, 74711, Note_on_c, 0, 78, 0
2, 74712, Note_on_c, 0, 72, 86
2, 74735, Note_on_c, 0, 72, 0
2, 74736, Note_on_c, 0, 71, 86
2, 74759, Note_on_c, 0, 71, 0
2, 74760, Note_on_c, 0, 72, 86
2, 74783, Note_on_c, 0, 72, 0
2, 74784, Note_on_c, 0, 78, 86
2, 74807, Note_on_c, 0, 78, 0
2, 74808, Note_on_c, 0, 72, 86
2, 74831, Note_on_c, 0, 72, 0
2, 74832, Note_on_c, 0, 71, 86
2, 74855, Note_on_c, 0, 71, 0
2, 74856, Note_on_c, 0, 78, 86
2, 74879, Note_on_c, 0, 78, 0
2, 74880, Note_on_c, 0, 77, 86
2, 74903, Note_on_c, 0, 77, 0
2, 74904, Note_on_c, 0, 71, 86
2, 74927, Note_on_c, 0, 71, 0
2, 74928, Note_on_c, 0, 69, 86
2, 74951, Note_on_c, 0, 69, 0
2, 74952, Note_on_c, 0, 71, 86
2, 74975, Note_on_c, 0, 71, 0
2, 74976, Note_on_c, 0, 77, 86
2, 74999, Note_on_c, 0, 77, 0
2, 75000, Note_on_c, 0, 71, 86
2, 75023, Note_on_c, 0, 71, 0
2, 75024, Note_on_c, 0, 69, 86
2, 75047, Note_on_c, 0, 69, 0
2, 75048, Note_on_c, 0, 71, 86
2, 75071, Note_on_c, 0, 71, 0
2, 75072, Note_on_c, 0, 77, 86
2, 75095, Note_on_c, 0, 77, 0
2, 75096, Note_on_c, 0, 71, 86
2, 75119, Note_on_c, 0, 71, 0
2, 75120, Note_on_c, 0, 69, 86
2, 75143, Note_on_c, 0, 69, 0
2, 75144, Note_on_c, 0, 71, 86
2, 75167, Note_on_c, 0, 71, 0
2, 75168, Note_on_c, 0, 76, 86
2, 75191, Note_on_c, 0, 76, 0
2, 75192, Note_on_c, 0, 70, 86
2, 75215, Note_on_c, 0, 70, 0
2, 75216, Note_on_c, 0, 69, 86
2, 75239, Note_on_c, 0, 69, 0
2, 75240, Note_on_c, 0, 70, 86
2, 75263, Note_on_c, 0, 70, 0
2, 75264, Note_on_c, 0, 76, 86
2, 75287, Note_on_c, 0, 76, 0
2, 75288, Note_on_c, 0, 70, 86
2, 75311, Note_on_c, 0, 70, 0
2, 75312, Note_on_c, 0, 69, 86
2, 75335, Note_on_c, 0, 69, 0
2, 75336, Note_on_c, 0, 70, 86
2, 75359, Note_on_c, 0, 70, 0
2, 75360, Note_on_c, 0, 76, 86
2, 75383, Note_on_c, 0, 76, 0
2, 75384, Note_on_c, 0, 70, 86
2, 75407, Note_on_c, 0, 70, 0
2, 75408, Note_on_c, 0, 69, 86
2, 75431, Note_on_c, 0, 69, 0
2, 75432, Note_on_c, 0, 70, 86
2, 75455, Note_on_c, 0, 70, 0
2, 75456, Note_on_c, 0, 75, 86
2, 75479, Note_on_c, 0, 75, 0
2, 75480, Note_on_c, 0, 69, 86
2, 75503, Note_on_c, 0, 69, 0
2, 75504, Note_on_c, 0, 67, 86
2, 75527, Note_on_c, 0, 67, 0
2, 75528, Note_on_c, 0, 69, 86
2, 75551, Note_on_c, 0, 69, 0
2, 75552, Note_on_c, 0, 75, 86
2, 75575, Note_on_c, 0, 75, 0
2, 75576, Note_on_c, 0, 69, 86
2, 75599, Note_on_c, 0, 69, 0
2, 75600, Note_on_c, 0, 67, 86
2, 75623, Note_on_c, 0, 67, 0
2, 75624, Note_on_c, 0, 69, 86
2, 75647, Note_on_c, 0, 69, 0
2, 75648, Note_on_c, 0, 75, 86
2, 75671, Note_on_c, 0, 75, 0
2, 75672, Note_on_c, 0, 69, 86
2, 75695, Note_on_c, 0, 69, 0
2, 75696, Note_on_c, 0, 67, 86
2, 75719, Note_on_c, 0, 67, 0
2, 75720, Note_on_c, 0, 75, 86
2, 75743, Note_on_c, 0, 75, 0
2, 75744, Note_on_c, 0, 74, 86
2, 75767, Note_on_c, 0, 74, 0
2, 75768, Note_on_c, 0, 68, 86
2, 75791, Note_on_c, 0, 68, 0
2, 75792, Note_on_c, 0, 67, 86
2, 75815, Note_on_c, 0, 67, 0
2, 75816, Note_on_c, 0, 68, 86
2, 75839, Note_on_c, 0, 68, 0
2, 75840, Note_on_c, 0, 74, 86
2, 75863, Note_on_c, 0, 74, 0
2, 75864, Note_on_c, 0, 68, 86
2, 75887, Note_on_c, 0, 68, 0
2, 75888, Note_on_c, 0, 67, 86
2, 75911, Note_on_c, 0, 67, 0
2, 75912, Note_on_c, 0, 68, 86
2, 75935, Note_on_c, 0, 68, 0
2, 75936, Note_on_c, 0, 74, 86
2, 75959, Note_on_c, 0, 74, 0
2, 75960, Note_on_c, 0, 68, 86
2, 75983, Note_on_c, 0, 68, 0
2, 75984, Note_on_c, 0, 67, 86
2, 76007, Note_on_c, 0, 67, 0
2, 76008, Note_on_c, 0, 68, 86
2, 76031, Note_on_c, 0, 68, 0
2, 76032, Note_on_c, 0, 74, 86
2, 76055, Note_on_c, 0, 74, 0
2, 76056, Note_on_c, 0, 67, 86
2, 76079, Note_on_c, 0, 67, 0
2, 76080, Note_on_c, 0, 66, 86
2, 76103, Note_on_c, 0, 66, 0
2, 76104, Note_on_c, 0, 67, 86
2, 76127, Note_on_c, 0, 67, 0
2, 76128, Note_on_c, 0, 74, 86
2, 76151, Note_on_c, 0, 74, 0
2, 76152, Note_on_c, 0, 67, 86
2, 76175, Note_on_c, 0, 67, 0
2, 76176, Note_on_c, 0, 66, 86
2, 76199, Note_on_c, 0, 66, 0
2, 76200, Note_on_c, 0, 67, 86
2, 76223, Note_on_c, 0, 67, 0
2, 76224, Note_on_c, 0, 74, 86
2, 76247, Note_on_c, 0, 74, 0
2, 76248, Note_on_c, 0, 67, 86
2, 76271, Note_on_c, 0, 67, 0
2, 76272, Note_on_c, 0, 66, 86
2, 76295, Note_on_c, 0, 66, 0
2, 76296, Note_on_c, 0, 67, 86
2, 76319, Note_on_c, 0, 67, 0
2, 76320, Note_on_c, 0, 72, 86
2, 76343, Note_on_c, 0, 72, 0
2, 76344, Note_on_c, 0, 67, 86
2, 76367, Note_on_c, 0, 67, 0
2, 76368, Note_on_c, 0, 66, 86
2, 76391, Note_on_c, 0, 66, 0
2, 76392, Note_on_c, 0, 67, 86
2, 76415, Note_on_c, 0, 67, 0
2, 76416, Note_on_c, 0, 72, 86
2, 76439, Note_on_c, 0, 72, 0
2, 76440, Note_on_c, 0, 67, 86
2, 76463, Note_on_c, 0, 67, 0
2, 76464, Note_on_c, 0, 66, 86
2, 76487, Note_on_c, 0, 66, 0
2, 76488, Note_on_c, 0, 67, 86
2, 76511, Note_on_c, 0, 67, 0
2, 76512, Note_on_c, 0, 72, 86
2, 76535, Note_on_c, 0, 72, 0
2, 76536, Note_on_c, 0, 67, 86
2, 76559, Note_on_c, 0, 67, 0
2, 76560, Note_on_c, 0, 66, 86
2, 76583, Note_on_c, 0, 66, 0
2, 76584, Note_on_c, 0, 67, 86
2, 76607, Note_on_c, 0, 67, 0
2, 76608, Note_on_c, 0, 72, 86
2, 76631, Note_on_c, 0, 72, 0
2, 76632, Note_on_c, 0, 65, 86
2, 76655, Note_on_c, 0, 65, 0
2, 76656, Note_on_c, 0, 64, 86
2, 76679, Note_on_c, 0, 64, 0
2, 76680, Note_on_c, 0, 65, 86
2, 76703, Note_on_c, 0, 65, 0
2, 76704, Note_on_c, 0, 72, 86
2, 76727, Note_on_c, 0, 72, 0
2, 76728, Note_on_c, 0, 65, 86
2, 76751, Note_on_c, 0, 65, 0
2, 76752, Note_on_c, 0, 64, 86
2, 76775, Note_on_c, 0, 64, 0
2, 76776, Note_on_c, 0, 65, 86
2, 76799, Note_on_c, 0, 65, 0
2, 76800, Note_on_c, 0, 72, 86
2, 76823, Note_on_c, 0, 72, 0
2, 76824, Note_on_c, 0, 65, 86
2, 76847, Note_on_c, 0, 65, 0
2, 76848, Note_on_c, 0, 64, 86
2, 76871, Note_on_c, 0, 64, 0
2, 76872, Note_on_c, 0, 65, 86
2, 76895, Note_on_c, 0, 65, 0
2, 76896, Note_on_c, 0, 71, 86
2, 76919, Note_on_c, 0, 71, 0
2, 76920, Note_on_c, 0, 65, 86
2, 76943, Note_on_c, 0, 65, 0
2, 76944, Note_on_c, 0, 64, 86
2, 76967, Note_on_c, 0, 64, 0
2, 76968, Note_on_c, 0, 65, 86
2, 76991, Note_on_c, 0, 65, 0
2, 76992, Note_on_c, 0, 71, 86
2, 77015, Note_on_c, 0, 71, 0
2, 77016, Note_on_c, 0, 65, 86
2, 77039, Note_on_c, 0, 65, 0
2, 77040, Note_on_c, 0, 64, 86
2, 77063, Note_on_c, 0, 64, 0
2, 77064, Note_on_c, 0, 65, 86
2, 77087, Note_on_c, 0, 65, 0
2, 77088, Note_on_c, 0, 71, 86
2, 77111, Note_on_c, 0, 71, 0
2, 77112, Note_on_c, 0, 65, 86
2, 77135, Note_on_c, 0, 65, 0
2, 77136, Note_on_c, 0, 64, 86
2, 77159, Note_on_c, 0, 64, 0
2, 77160, Note_on_c, 0, 65, 86
2, 77183, Note_on_c, 0, 65, 0
2, 77184, Note_on_c, 0, 72, 86
2, 77207, Note_on_c, 0, 72, 0
2, 77208, Note_on_c, 0, 63, 86
2, 77231, Note_on_c, 0, 63, 0
2, 77232, Note_on_c, 0, 62, 86
2, 77255, Note_on_c, 0, 62, 0
2, 77256, Note_on_c, 0, 63, 86
2, 77279, Note_on_c, 0, 63, 0
2, 77280, Note_on_c, 0, 72, 86
2, 77303, Note_on_c, 0, 72, 0
2, 77304, Note_on_c, 0, 63, 86
2, 77327, Note_on_c, 0, 63, 0
2, 77328, Note_on_c, 0, 62, 86
2, 77351, Note_on_c, 0, 62, 0
2, 77352, Note_on_c, 0, 63, 86
2, 77375, Note_on_c, 0, 63, 0
2, 77376, Note_on_c, 0, 72, 86
2, 77399, Note_on_c, 0, 72, 0
2, 77400, Note_on_c, 0, 63, 86
2, 77423, Note_on_c, 0, 63, 0
2, 77424, Note_on_c, 0, 62, 86
2, 77447, Note_on_c, 0, 62, 0
2, 77448, Note_on_c, 0, 63, 86
2, 77471, Note_on_c, 0, 63, 0
2, 77472, Note_on_c, 0, 72, 86
2, 77495, Note_on_c, 0, 72, 0
2, 77496, Note_on_c, 0, 66, 86
2, 77519, Note_on_c, 0, 66, 0
2, 77520, Note_on_c, 0, 60, 86
2, 77543, Note_on_c, 0, 60, 0
2, 77544, Note_on_c, 0, 66, 86
2, 77567, Note_on_c, 0, 66, 0
2, 77568, Note_on_c, 0, 72, 86
2, 77591, Note_on_c, 0, 72, 0
2, 77592, Note_on_c, 0, 66, 86
2, 77615, Note_on_c, 0, 66, 0
2, 77616, Note_on_c, 0, 60, 86
2, 77639, Note_on_c, 0, 60, 0
2, 77640, Note_on_c, 0, 66, 86
2, 77663, Note_on_c, 0, 66, 0
2, 77664, Note_on_c, 0, 72, 86
2, 77687, Note_on_c, 0, 72, 0
2, 77688, Note_on_c, 0, 66, 86
2, 77711, Note_on_c, 0, 66, 0
2, 77712, Note_on_c, 0, 60, 86
2, 77735, Note_on_c, 0, 60, 0
2, 77736, Note_on_c, 0, 66, 86
2, 77759, Note_on_c, 0, 66, 0
2, 77760, Note_on_c, 0, 72, 86
2, 77783, Note_on_c, 0, 72, 0
2, 77784, Note_on_c, 0, 66, 86
2, 77807, Note_on_c, 0, 66, 0
2, 77808, Note_on_c, 0, 60, 86
2, 77831, Note_on_c, 0, 60, 0
2, 77832, Note_on_c, 0, 66, 86
2, 77855, Note_on_c, 0, 66, 0
2, 77856, Note_on_c, 0, 72, 86
2, 77879, Note_on_c, 0, 72, 0
2, 77880, Note_on_c, 0, 66, 86
2, 77903, Note_on_c, 0, 66, 0
2, 77904, Note_on_c, 0, 60, 86
2, 77927, Note_on_c, 0, 60, 0
2, 77928, Note_on_c, 0, 66, 86
2, 77951, Note_on_c, 0, 66, 0
2, 77952, Note_on_c, 0, 72, 86
2, 77975, Note_on_c, 0, 72, 0
2, 77976, Note_on_c, 0, 66, 86
2, 77999, Note_on_c, 0, 66, 0
2, 78000, Note_on_c, 0, 60, 86
2, 78023, Note_on_c, 0, 60, 0
2, 78024, Note_on_c, 0, 66, 86
2, 78047, Note_on_c, 0, 66, 0
2, 78048, Note_on_c, 0, 67, 86
2, 78071, Note_on_c, 0, 67, 0
2, 78072, Note_on_c, 0, 71, 86
2, 78095, Note_on_c, 0, 71, 0
2, 78096, Note_on_c, 0, 67, 86
2, 78119, Note_on_c, 0, 67, 0
2, 78120, Note_on_c, 0, 62, 86
2, 78143, Note_on_c, 0, 62, 0
2, 78144, Note_on_c, 0, 59, 86
2, 78167, Note_on_c, 0, 59, 0
2, 78528, Note_on_c, 0, 60, 87
2, 78624, Note_on_c, 0, 60, 0
2, 78624, Note_on_c, 0, 65, 71
2, 78647, Note_on_c, 0, 65, 0
2, 78648, Note_on_c, 0, 63, 71
2, 78671, Note_on_c, 0, 63, 0
2, 78672, Note_on_c, 0, 62, 71
2, 78695, Note_on_c, 0, 62, 0
2, 78696, Note_on_c, 0, 60, 71
2, 78719, Note_on_c, 0, 60, 0
2, 78720, Note_on_c, 0, 59, 71
2, 78759, Note_on_c, 0, 59, 0
2, 78816, Note_on_c, 0, 62, 71
2, 78905, Note_on_c, 0, 62, 0
2, 78912, Note_on_c, 0, 67, 71
2, 78935, Note_on_c, 0, 67, 0
2, 78936, Note_on_c, 0, 65, 71
2, 78959, Note_on_c, 0, 65, 0
2, 78960, Note_on_c, 0, 63, 71
2, 78983, Note_on_c, 0, 63, 0
2, 78984, Note_on_c, 0, 62, 71
2, 79007, Note_on_c, 0, 62, 0
2, 79008, Note_on_c, 0, 60, 71
2, 79047, Note_on_c, 0, 60, 0
2, 79104, Note_on_c, 0, 72, 71
2, 79127, Note_on_c, 0, 72, 0
2, 79128, Note_on_c, 0, 73, 71
2, 79151, Note_on_c, 0, 73, 0
2, 79152, Note_on_c, 0, 74, 71
2, 79175, Note_on_c, 0, 74, 0
2, 79176, Note_on_c, 0, 75, 71
2, 79199, Note_on_c, 0, 75, 0
2, 79200, Note_on_c, 0, 72, 71
2, 79296, Note_on_c, 0, 72, 0
2, 79296, Note_on_c, 0, 71, 71
2, 79385, Note_on_c, 0, 71, 0
2, 79392, Note_on_c, 0, 74, 71
2, 79415, Note_on_c, 0, 74, 0
2, 79416, Note_on_c, 0, 75, 71
2, 79439, Note_on_c, 0, 75, 0
2, 79440, Note_on_c, 0, 76, 71
2, 79463, Note_on_c, 0, 76, 0
2, 79464, Note_on_c, 0, 77, 71
2, 79487, Note_on_c, 0, 77, 0
2, 79488, Note_on_c, 0, 74, 71
2, 79584, Note_on_c, 0, 74, 0
2, 79584, Note_on_c, 0, 72, 71
2, 79673, Note_on_c, 0, 72, 0
2, 79680, Note_on_c, 0, 79, 71
2, 79725, Note_on_c, 0, 79, 0
2, 79728, Note_on_c, 0, 84, 71
2, 79821, Note_on_c, 0, 84, 0
2, 79824, Note_on_c, 0, 82, 71
2, 79913, Note_on_c, 0, 82, 0
2, 79920, Note_on_c, 0, 80, 71
2, 80009, Note_on_c, 0, 80, 0
2, 80016, Note_on_c, 0, 79, 71
2, 80109, Note_on_c, 0, 79, 0
2, 80112, Note_on_c, 0, 77, 71
2, 80201, Note_on_c, 0, 77, 0
2, 80208, Note_on_c, 0, 75, 72
2, 80297, Note_on_c, 0, 75, 0
2, 80304, Note_on_c, 0, 74, 73
2, 80397, Note_on_c, 0, 74, 0
2, 80400, Note_on_c, 0, 72, 74
2, 80489, Note_on_c, 0, 72, 0
2, 80496, Note_on_c, 0, 71, 75
2, 80585, Note_on_c, 0, 71, 0
2, 80592, Note_on_c, 0, 68, 76
2, 80685, Note_on_c, 0, 68, 0
2, 80688, Note_on_c, 0, 67, 77
2, 80777, Note_on_c, 0, 67, 0
2, 80784, Note_on_c, 0, 65, 78
2, 80829, Note_on_c, 0, 65, 0
2, 80832, Note_on_c, 0, 63, 78
2, 80877, Note_on_c, 0, 63, 0
2, 80880, Note_on_c, 0, 62, 78
2, 80925, Note_on_c, 0, 62, 0
2, 80928, Note_on_c, 0, 60, 78
2, 80951, Note_on_c, 0, 60, 0
2, 80952, Note_on_c, 0, 59, 78
2, 80975, Note_on_c, 0, 59, 0
2, 80976, Note_on_c, 0, 60, 78
2, 80999, Note_on_c, 0, 60, 0
2, 81000, Note_on_c, 0, 65, 78
2, 81023, Note_on_c, 0, 65, 0
2, 81024, Note_on_c, 0, 60, 78
2, 81047, Note_on_c, 0, 60, 0
2, 81048, Note_on_c, 0, 59, 78
2, 81071, Note_on_c, 0, 59, 0
2, 81072, Note_on_c, 0, 60, 78
2, 81095, Note_on_c, 0, 60, 0
2, 81096, Note_on_c, 0, 63, 78
2, 81119, Note_on_c, 0, 63, 0
2, 81120, Note_on_c, 0, 60, 78
2, 81143, Note_on_c, 0, 60, 0
2, 81144, Note_on_c, 0, 59, 78
2, 81167, Note_on_c, 0, 59, 0
2, 81168, Note_on_c, 0, 60, 78
2, 81191, Note_on_c, 0, 60, 0
2, 81192, Note_on_c, 0, 68, 78
2, 81215, Note_on_c, 0, 68, 0
2, 81216, Note_on_c, 0, 60, 78
2, 81239, Note_on_c, 0, 60, 0
2, 81240, Note_on_c, 0, 59, 78
2, 81263, Note_on_c, 0, 59, 0
2, 81264, Note_on_c, 0, 60, 78
2, 81287, Note_on_c, 0, 60, 0
2, 81288, Note_on_c, 0, 67, 78
2, 81311, Note_on_c, 0, 67, 0
2, 81312, Note_on_c, 0, 60, 78
2, 81335, Note_on_c, 0, 60, 0
2, 81336, Note_on_c, 0, 59, 78
2, 81359, Note_on_c, 0, 59, 0
2, 81360, Note_on_c, 0, 60, 78
2, 81383, Note_on_c, 0, 60, 0
2, 81384, Note_on_c, 0, 65, 78
2, 81407, Note_on_c, 0, 65, 0
2, 81408, Note_on_c, 0, 60, 78
2, 81431, Note_on_c, 0, 60, 0
2, 81432, Note_on_c, 0, 59, 78
2, 81455, Note_on_c, 0, 59, 0
2, 81456, Note_on_c, 0, 60, 78
2, 81479, Note_on_c, 0, 60, 0
2, 81480, Note_on_c, 0, 63, 78
2, 81503, Note_on_c, 0, 63, 0
2, 81504, Note_on_c, 0, 60, 78
2, 81527, Note_on_c, 0, 60, 0
2, 81528, Note_on_c, 0, 59, 78
2, 81551, Note_on_c, 0, 59, 0
2, 81552, Note_on_c, 0, 60, 78
2, 81575, Note_on_c, 0, 60, 0
2, 81576, Note_on_c, 0, 65, 78
2, 81599, Note_on_c, 0, 65, 0
2, 81600, Note_on_c, 0, 60, 78
2, 81623, Note_on_c, 0, 60, 0
2, 81624, Note_on_c, 0, 59, 78
2, 81647, Note_on_c, 0, 59, 0
2, 81648, Note_on_c, 0, 60, 78
2, 81671, Note_on_c, 0, 60, 0
2, 81672, Note_on_c, 0, 63, 78
2, 81695, Note_on_c, 0, 63, 0
2, 81696, Note_on_c, 0, 60, 78
2, 81719, Note_on_c, 0, 60, 0
2, 81720, Note_on_c, 0, 59, 78
2, 81743, Note_on_c, 0, 59, 0
2, 81744, Note_on_c, 0, 60, 78
2, 81767, Note_on_c, 0, 60, 0
2, 81768, Note_on_c, 0, 68, 78
2, 81791, Note_on_c, 0, 68, 0
2, 81792, Note_on_c, 0, 60, 78
2, 81815, Note_on_c, 0, 60, 0
2, 81816, Note_on_c, 0, 59, 78
2, 81839, Note_on_c, 0, 59, 0
2, 81840, Note_on_c, 0, 60, 79
2, 81863, Note_on_c, 0, 60, 0
2, 81864, Note_on_c, 0, 67, 80
2, 81887, Note_on_c, 0, 67, 0
2, 81888, Note_on_c, 0, 60, 80
2, 81911, Note_on_c, 0, 60, 0
2, 81912, Note_on_c, 0, 59, 81
2, 81935, Note_on_c, 0, 59, 0
2, 81936, Note_on_c, 0, 60, 82
2, 81959, Note_on_c, 0, 60, 0
2, 81960, Note_on_c, 0, 65, 82
2, 81983, Note_on_c, 0, 65, 0
2, 81984, Note_on_c, 0, 60, 83
2, 82007, Note_on_c, 0, 60, 0
2, 82008, Note_on_c, 0, 59, 84
2, 82031, Note_on_c, 0, 59, 0
2, 82032, Note_on_c, 0, 60, 84
2, 82055, Note_on_c, 0, 60, 0
2, 82056, Note_on_c, 0, 63, 85
2, 82079, Note_on_c, 0, 63, 0
2, 82080, Note_on_c, 0, 60, 86
2, 82103, Note_on_c, 0, 60, 0
2, 82104, Note_on_c, 0, 59, 86
2, 82127, Note_on_c, 0, 59, 0
2, 82128, Note_on_c, 0, 60, 86
2, 82151, Note_on_c, 0, 60, 0
2, 82152, Note_on_c, 0, 63, 86
2, 82175, Note_on_c, 0, 63, 0
2, 82176, Note_on_c, 0, 60, 86
2, 82199, Note_on_c, 0, 60, 0
2, 82200, Note_on_c, 0, 59, 86
2, 82223, Note_on_c, 0, 59, 0
2, 82224, Note_on_c, 0, 60, 86
2, 82247, Note_on_c, 0, 60, 0
2, 82248, Note_on_c, 0, 63, 86
2, 82271, Note_on_c, 0, 63, 0
2, 82272, Note_on_c, 0, 60, 86
2, 82295, Note_on_c, 0, 60, 0
2, 82296, Note_on_c, 0, 59, 86
2, 82319, Note_on_c, 0, 59, 0
2, 82320, Note_on_c, 0, 60, 86
2, 82343, Note_on_c, 0, 60, 0
2, 82344, Note_on_c, 0, 63, 86
2, 82367, Note_on_c, 0, 63, 0
2, 82368, Note_on_c, 0, 59, 86
2, 82391, Note_on_c, 0, 59, 0
2, 82392, Note_on_c, 0, 62, 87
2, 82415, Note_on_c, 0, 62, 0
2, 82416, Note_on_c, 0, 65, 89
2, 82439, Note_on_c, 0, 65, 0
2, 82440, Note_on_c, 0, 68, 91
2, 82463, Note_on_c, 0, 68, 0
2, 82464, Note_on_c, 0, 67, 93
2, 82487, Note_on_c, 0, 67, 0
2, 82488, Note_on_c, 0, 65, 92
2, 82511, Note_on_c, 0, 65, 0
2, 82512, Note_on_c, 0, 63, 91
2, 82535, Note_on_c, 0, 63, 0
2, 82536, Note_on_c, 0, 62, 90
2, 82559, Note_on_c, 0, 62, 0
2, 82560, Note_on_c, 0, 60, 89
2, 82583, Note_on_c, 0, 60, 0
2, 82584, Note_on_c, 0, 59, 88
2, 82607, Note_on_c, 0, 59, 0
2, 82608, Note_on_c, 0, 57, 87
2, 82631, Note_on_c, 0, 57, 0
2, 82632, Note_on_c, 0, 55, 86
2, 82655, Note_on_c, 0, 55, 0
2, 82896, Note_on_c, 0, 79, 83
2, 82989, Note_on_c, 0, 79, 0
2, 82992, Note_on_c, 0, 77, 84
2, 83081, Note_on_c, 0, 77, 0
2, 83088, Note_on_c, 0, 75, 82
2, 83177, Note_on_c, 0, 75, 0
2, 83184, Note_on_c, 0, 74, 79
2, 83229, Note_on_c, 0, 74, 0
2, 83232, Note_on_c, 0, 72, 78
2, 83255, Note_on_c, 0, 72, 0
2, 83256, Note_on_c, 0, 65, 78
2, 83279, Note_on_c, 0, 65, 0
2, 83280, Note_on_c, 0, 64, 78
2, 83303, Note_on_c, 0, 64, 0
2, 83304, Note_on_c, 0, 65, 78
2, 83327, Note_on_c, 0, 65, 0
2, 83328, Note_on_c, 0, 70, 78
2, 83351, Note_on_c, 0, 70, 0
2, 83352, Note_on_c, 0, 63, 78
2, 83375, Note_on_c, 0, 63, 0
2, 83376, Note_on_c, 0, 62, 78
2, 83399, Note_on_c, 0, 62, 0
2, 83400, Note_on_c, 0, 63, 78
2, 83423, Note_on_c, 0, 63, 0
2, 83424, Note_on_c, 0, 68, 78
2, 83447, Note_on_c, 0, 68, 0
2, 83448, Note_on_c, 0, 62, 78
2, 83471, Note_on_c, 0, 62, 0
2, 83472, Note_on_c, 0, 61, 78
2, 83495, Note_on_c, 0, 61, 0
2, 83496, Note_on_c, 0, 62, 78
2, 83519, Note_on_c, 0, 62, 0
2, 83520, Note_on_c, 0, 67, 78
2, 83543, Note_on_c, 0, 67, 0
2, 83544, Note_on_c, 0, 60, 78
2, 83567, Note_on_c, 0, 60, 0
2, 83568, Note_on_c, 0, 59, 78
2, 83591, Note_on_c, 0, 59, 0
2, 83592, Note_on_c, 0, 60, 78
2, 83615, Note_on_c, 0, 60, 0
2, 83616, Note_on_c, 0, 65, 78
2, 83639, Note_on_c, 0, 65, 0
2, 83640, Note_on_c, 0, 59, 78
2, 83663, Note_on_c, 0, 59, 0
2, 83664, Note_on_c, 0, 57, 78
2, 83687, Note_on_c, 0, 57, 0
2, 83688, Note_on_c, 0, 59, 78
2, 83711, Note_on_c, 0, 59, 0
2, 83712, Note_on_c, 0, 63, 78
2, 83735, Note_on_c, 0, 63, 0
2, 83736, Note_on_c, 0, 60, 78
2, 83759, Note_on_c, 0, 60, 0
2, 83760, Note_on_c, 0, 59, 78
2, 83783, Note_on_c, 0, 59, 0
2, 83784, Note_on_c, 0, 60, 78
2, 83807, Note_on_c, 0, 60, 0
2, 83856, Note_on_c, 0, 61, 78
2, 83876, Note_on_c, 0, 61, 0
2, 83904, Note_on_c, 0, 56, 79
2, 83924, Note_on_c, 0, 56, 0
2, 83952, Note_on_c, 0, 65, 80
2, 83972, Note_on_c, 0, 65, 0
2, 84000, Note_on_c, 0, 61, 81
2, 84020, Note_on_c, 0, 61, 0
2, 84048, Note_on_c, 0, 68, 82
2, 84068, Note_on_c, 0, 68, 0
2, 84096, Note_on_c, 0, 65, 83
2, 84116, Note_on_c, 0, 65, 0
2, 84144, Note_on_c, 0, 73, 84
2, 84164, Note_on_c, 0, 73, 0
2, 84192, Note_on_c, 0, 68, 85
2, 84212, Note_on_c, 0, 68, 0
2, 84240, Note_on_c, 0, 77, 86
2, 84260, Note_on_c, 0, 77, 0
2, 84288, Note_on_c, 0, 75, 85
2, 84308, Note_on_c, 0, 75, 0
2, 84336, Note_on_c, 0, 73, 84
2, 84356, Note_on_c, 0, 73, 0
2, 84384, Note_on_c, 0, 72, 83
2, 84404, Note_on_c, 0, 72, 0
2, 84432, Note_on_c, 0, 73, 82
2, 84452, Note_on_c, 0, 73, 0
2, 84480, Note_on_c, 0, 68, 81
2, 84500, Note_on_c, 0, 68, 0
2, 84528, Note_on_c, 0, 66, 80
2, 84548, Note_on_c, 0, 66, 0
2, 84576, Note_on_c, 0, 65, 79
2, 84596, Note_on_c, 0, 65, 0
2, 84624, Note_on_c, 0, 63, 78
2, 84644, Note_on_c, 0, 63, 0
2, 84672, Note_on_c, 0, 61, 78
2, 84717, Note_on_c, 0, 61, 0
2, 84720, Note_on_c, 0, 60, 80
2, 84765, Note_on_c, 0, 60, 0
2, 84768, Note_on_c, 0, 61, 82
2, 84813, Note_on_c, 0, 61, 0
2, 84816, Note_on_c, 0, 65, 84
2, 84861, Note_on_c, 0, 65, 0
2, 84864, Note_on_c, 0, 63, 86
2, 84909, Note_on_c, 0, 63, 0
2, 84912, Note_on_c, 0, 61, 85
2, 84957, Note_on_c, 0, 61, 0
2, 84960, Note_on_c, 0, 60, 84
2, 85152, Note_on_c, 0, 60, 0
2, 85152, Note_on_c, 0, 59, 80
2, 85241, Note_on_c, 0, 59, 0
2, 85248, Note_on_c, 0, 63, 78
2, 85581, Note_on_c, 0, 63, 0
2, 85584, Note_on_c, 0, 67, 78
2, 85629, Note_on_c, 0, 67, 0
2, 85632, Note_on_c, 0, 67, 78
2, 85677, Note_on_c, 0, 67, 0
2, 85680, Note_on_c, 0, 65, 78
2, 85725, Note_on_c, 0, 65, 0
2, 85728, Note_on_c, 0, 63, 78
2, 85773, Note_on_c, 0, 63, 0
2, 85776, Note_on_c, 0, 62, 78
2, 85821, Note_on_c, 0, 62, 0
2, 85824, Note_on_c, 0, 60, 78
2, 87021, Note_on_c, 0, 60, 0
2, 87024, Note_on_c, 0, 65, 86
2, 87069, Note_on_c, 0, 65, 0
2, 87072, Note_on_c, 0, 63, 86
2, 87117, Note_on_c, 0, 63, 0
2, 87120, Note_on_c, 0, 62, 86
2, 87165, Note_on_c, 0, 62, 0
2, 87168, Note_on_c, 0, 60, 86
2, 87213, Note_on_c, 0, 60, 0
2, 87216, Note_on_c, 0, 59, 86
2, 87261, Note_on_c, 0, 59, 0
2, 87264, Note_on_c, 0, 59, 86
2, 87552, Note_on_c, 0, 59, 0
2, 87552, Note_on_c, 0, 60, 86
2, 87641, Note_on_c, 0, 60, 0
2, 87840, End_track
3, 0, Start_track
3, 0, Program_c, 0, 0
3, 0, Control_c, 0, 7, 127
3, 0, Control_c, 0, 10, 64
3, 1728, Note_on_c, 0, 72, 64
3, 1824, Note_on_c, 0, 72, 0
3, 1824, Note_on_c, 0, 71, 64
3, 1863, Note_on_c, 0, 71, 0
3, 4944, Note_on_c, 0, 60, 78
3, 4989, Note_on_c, 0, 60, 0
3, 4992, Note_on_c, 0, 63, 79
3, 5037, Note_on_c, 0, 63, 0
3, 5040, Note_on_c, 0, 67, 81
3, 5085, Note_on_c, 0, 67, 0
3, 5088, Note_on_c, 0, 65, 82
3, 5133, Note_on_c, 0, 65, 0
3, 5136, Note_on_c, 0, 63, 84
3, 5181, Note_on_c, 0, 63, 0
3, 5184, Note_on_c, 0, 63, 86
3, 5280, Note_on_c, 0, 63, 0
3, 5280, Note_on_c, 0, 62, 83
3, 5457, Note_on_c, 0, 62, 0
3, 5520, Note_on_c, 0, 58, 78
3, 5565, Note_on_c, 0, 58, 0
3, 5568, Note_on_c, 0, 63, 79
3, 5613, Note_on_c, 0, 63, 0
3, 5616, Note_on_c, 0, 65, 81
3, 5661, Note_on_c, 0, 65, 0
3, 5664, Note_on_c, 0, 63, 82
3, 5709, Note_on_c, 0, 63, 0
3, 5712, Note_on_c, 0, 62, 84
3, 5757, Note_on_c, 0, 62, 0
3, 5760, Note_on_c, 0, 60, 86
3, 6025, Note_on_c, 0, 60, 0
3, 9552, Note_on_c, 0, 63, 78
3, 9597, Note_on_c, 0, 63, 0
3, 9600, Note_on_c, 0, 67, 78
3, 9645, Note_on_c, 0, 67, 0
3, 9648, Note_on_c, 0, 70, 80
3, 9693, Note_on_c, 0, 70, 0
3, 9696, Note_on_c, 0, 75, 82
3, 9741, Note_on_c, 0, 75, 0
3, 9744, Note_on_c, 0, 79, 84
3, 9837, Note_on_c, 0, 79, 0
3, 9840, Note_on_c, 0, 77, 86
3, 9929, Note_on_c, 0, 77, 0
3, 9936, Note_on_c, 0, 75, 82
3, 10025, Note_on_c, 0, 75, 0
3, 10032, Note_on_c, 0, 74, 79
3, 10077, Note_on_c, 0, 74, 0
3, 11232, Note_on_c, 0, 63, 78
3, 11565, Note_on_c, 0, 63, 0
3, 11568, Note_on_c, 0, 67, 78
3, 11613, Note_on_c, 0, 67, 0
3, 11616, Note_on_c, 0, 67, 78
3, 11661, Note_on_c, 0, 67, 0
3, 11664, Note_on_c, 0, 65, 78
3, 11709, Note_on_c, 0, 65, 0
3, 11712, Note_on_c, 0, 63, 78
3, 11757, Note_on_c, 0, 63, 0
3, 11760, Note_on_c, 0, 62, 78
3, 11805, Note_on_c, 0, 62, 0
3, 11856, Note_on_c, 0, 57, 78
3, 11901, Note_on_c, 0, 57, 0
3, 11904, Note_on_c, 0, 58, 79
3, 11949, Note_on_c, 0, 58, 0
3, 11952, Note_on_c, 0, 57, 80
3, 11997, Note_on_c, 0, 57, 0
3, 12000, Note_on_c, 0, 58, 81
3, 12045, Note_on_c, 0, 58, 0
3, 12048, Note_on_c, 0, 57, 82
3, 12093, Note_on_c, 0, 57, 0
3, 12096, Note_on_c, 0, 58, 83
3, 12141, Note_on_c, 0, 58, 0
3, 12144, Note_on_c, 0, 60, 84
3, 12189, Note_on_c, 0, 60, 0
3, 12192, Note_on_c, 0, 61, 85
3, 12237, Note_on_c, 0, 61, 0
3, 12240, Note_on_c, 0, 60, 86
3, 12285, Note_on_c, 0, 60, 0
3, 12288, Note_on_c, 0, 61, 85
3, 12333, Note_on_c, 0, 61, 0
3, 12336, Note_on_c, 0, 60, 84
3, 12381, Note_on_c, 0, 60, 0
3, 12384, Note_on_c, 0, 61, 83
3, 12429, Note_on_c, 0, 61, 0
3, 12432, Note_on_c, 0, 59, 82
3, 12477, Note_on_c, 0, 59, 0
3, 12480, Note_on_c, 0, 60, 81
3, 12525, Note_on_c, 0, 60, 0
3, 12528, Note_on_c, 0, 59, 80
3, 12573, Note_on_c, 0, 59, 0
3, 12576, Note_on_c, 0, 60, 79
3, 12621, Note_on_c, 0, 60, 0
3, 12624, Note_on_c, 0, 59, 78
3, 12669, Note_on_c, 0, 59, 0
3, 12672, Note_on_c, 0, 60, 78
3, 12717, Note_on_c, 0, 60, 0
3, 12720, Note_on_c, 0, 68, 78
3, 12765, Note_on_c, 0, 68, 0
3, 12768, Note_on_c, 0, 67, 78
3, 12813, Note_on_c, 0, 67, 0
3, 12816, Note_on_c, 0, 65, 78
3, 12861, Note_on_c, 0, 65, 0
3, 12864, Note_on_c, 0, 63, 78
3, 12909, Note_on_c, 0, 63, 0
3, 12912, Note_on_c, 0, 62, 78
3, 12957, Note_on_c, 0, 62, 0
3, 12960, Note_on_c, 0, 62, 78
3, 13248, Note_on_c, 0, 62, 0
3, 13248, Note_on_c, 0, 63, 72
3, 13342, Note_on_c, 0, 63, 0
3, 14976, Note_on_c, 0, 72, 64
3, 15072, Note_on_c, 0, 72, 0
3, 15072, Note_on_c, 0, 71, 64
3, 15111, Note_on_c, 0, 71, 0
3, 18192, Note_on_c, 0, 60, 78
3, 18237, Note_on_c, 0, 60, 0
3, 18240, Note_on_c, 0, 63, 79
3, 18285, Note_on_c, 0, 63, 0
3, 18288, Note_on_c, 0, 67, 81
3, 18333, Note_on_c, 0, 67, 0
3, 18336, Note_on_c, 0, 65, 82
3, 18381, Note_on_c, 0, 65, 0
3, 18384, Note_on_c, 0, 63, 84
3, 18429, Note_on_c, 0, 63, 0
3, 18432, Note_on_c, 0, 63, 86
3, 18528, Note_on_c, 0, 63, 0
3, 18528, Note_on_c, 0, 62, 83
3, 18705, Note_on_c, 0, 62, 0
3, 18768, Note_on_c, 0, 58, 78
3, 18813, Note_on_c, 0, 58, 0
3, 18816, Note_on_c, 0, 63, 79
3, 18861, Note_on_c, 0, 63, 0
3, 18864, Note_on_c, 0, 65, 81
3, 18909, Note_on_c, 0, 65, 0
3, 18912, Note_on_c, 0, 63, 82
3, 18957, Note_on_c, 0, 63, 0
3, 18960, Note_on_c, 0, 62, 84
3, 19005, Note_on_c, 0, 62, 0
3, 19008, Note_on_c, 0, 60, 86
3, 19273, Note_on_c, 0, 60, 0
3, 22800, Note_on_c, 0, 63, 78
3, 22845, Note_on_c, 0, 63, 0
3, 22848, Note_on_c, 0, 67, 78
3, 22893, Note_on_c, 0, 67, 0
3, 22896, Note_on_c, 0, 70, 80
3, 22941, Note_on_c, 0, 70, 0
3, 22944, Note_on_c, 0, 75, 82
3, 22989, Note_on_c, 0, 75, 0
3, 22992, Note_on_c, 0, 79, 84
3, 23085, Note_on_c, 0, 79, 0
3, 23088, Note_on_c, 0, 77, 86
3, 23177, Note_on_c, 0, 77, 0
3, 23184, Note_on_c, 0, 75, 82
3, 23273, Note_on_c, 0, 75, 0
3, 23280, Note_on_c, 0, 74, 79
3, 23325, Note_on_c, 0, 74, 0
3, 24480, Note_on_c, 0, 63, 78
3, 24813, Note_on_c, 0, 63, 0
3, 24816, Note_on_c, 0, 67, 78
3, 24861, Note_on_c, 0, 67, 0
3, 24864, Note_on_c, 0, 67, 78
3, 24909, Note_on_c, 0, 67, 0
3, 24912, Note_on_c, 0, 65, 78
3, 24957, Note_on_c, 0, 65, 0
3, 24960, Note_on_c, 0, 63, 78
3, 25005, Note_on_c, 0, 63, 0
3, 25008, Note_on_c, 0, 62, 78
3, 25053, Note_on_c, 0, 62, 0
3, 25104, Note_on_c, 0, 57, 78
3, 25149, Note_on_c, 0, 57, 0
3, 25152, Note_on_c, 0, 58, 79
3, 25197, Note_on_c, 0, 58, 0
3, 25200, Note_on_c, 0, 57, 80
3, 25245, Note_on_c, 0, 57, 0
3, 25248, Note_on_c, 0, 58, 81
3, 25293, Note_on_c, 0, 58, 0
3, 25296, Note_on_c, 0, 57, 82
3, 25341, Note_on_c, 0, 57, 0
3, 25344, Note_on_c, 0, 58, 83
3, 25389, Note_on_c, 0, 58, 0
3, 25392, Note_on_c, 0, 60, 84
3, 25437, Note_on_c, 0, 60, 0
3, 25440, Note_on_c, 0, 61, 85
3, 25485, Note_on_c, 0, 61, 0
3, 25488, Note_on_c, 0, 60, 86
3, 25533, Note_on_c, 0, 60, 0
3, 25536, Note_on_c, 0, 61, 85
3, 25581, Note_on_c, 0, 61, 0
3, 25584, Note_on_c, 0, 60, 84
3, 25629, Note_on_c, 0, 60, 0
3, 25632, Note_on_c, 0, 61, 83
3, 25677, Note_on_c, 0, 61, 0
3, 25680, Note_on_c, 0, 59, 82
3, 25725, Note_on_c, 0, 59, 0
3, 25728, Note_on_c, 0, 60, 81
3, 25773, Note_on_c, 0, 60, 0
3, 25776, Note_on_c, 0, 59, 80
3, 25821, Note_on_c, 0, 59, 0
3, 25824, Note_on_c, 0, 60, 79
3, 25869, Note_on_c, 0, 60, 0
3, 25872, Note_on_c, 0, 59, 78
3, 25917, Note_on_c, 0, 59, 0
3, 25920, Note_on_c, 0, 60, 78
3, 25965, Note_on_c, 0, 60, 0
3, 25968, Note_on_c, 0, 68, 78
3, 26013, Note_on_c, 0, 68, 0
3, 26016, Note_on_c, 0, 67, 78
3, 26061, Note_on_c, 0, 67, 0
3, 26064, Note_on_c, 0, 65, 78
3, 26109, Note_on_c, 0, 65, 0
3, 26112, Note_on_c, 0, 63, 78
3, 26157, Note_on_c, 0, 63, 0
3, 26160, Note_on_c, 0, 62, 78
3, 26205, Note_on_c, 0, 62, 0
3, 26208, Note_on_c, 0, 62, 78
3, 26496, Note_on_c, 0, 62, 0
3, 26496, Note_on_c, 0, 63, 72
3, 26590, Note_on_c, 0, 63, 0
3, 28224, Note_on_c, 0, 75, 71
3, 28320, Note_on_c, 0, 75, 0
3, 28320, Note_on_c, 0, 74, 71
3, 28359, Note_on_c, 0, 74, 0
3, 37440, Note_on_c, 0, 72, 71
3, 37536, Note_on_c, 0, 72, 0
3, 37536, Note_on_c, 0, 71, 71
3, 37575, Note_on_c, 0, 71, 0
3, 38064, Note_on_c, 0, 57, 78
3, 38109, Note_on_c, 0, 57, 0
3, 38112, Note_on_c, 0, 60, 79
3, 38157, Note_on_c, 0, 60, 0
3, 38160, Note_on_c, 0, 63, 81
3, 38205, Note_on_c, 0, 63, 0
3, 38208, Note_on_c, 0, 62, 82
3, 38253, Note_on_c, 0, 62, 0
3, 38256, Note_on_c, 0, 60, 84
3, 38301, Note_on_c, 0, 60, 0
3, 38304, Note_on_c, 0, 60, 102
3, 38400, Note_on_c, 0, 60, 0
3, 38400, Note_on_c, 0, 59, 83
3, 38577, Note_on_c, 0, 59, 0
3, 38640, Note_on_c, 0, 55, 78
3, 38685, Note_on_c, 0, 55, 0
3, 38688, Note_on_c, 0, 60, 79
3, 38733, Note_on_c, 0, 60, 0
3, 38736, Note_on_c, 0, 58, 81
3, 38781, Note_on_c, 0, 58, 0
3, 38784, Note_on_c, 0, 56, 82
3, 38829, Note_on_c, 0, 56, 0
3, 38832, Note_on_c, 0, 55, 84
3, 38877, Note_on_c, 0, 55, 0
3, 38880, Note_on_c, 0, 56, 86
3, 39057, Note_on_c, 0, 56, 0
3, 52176, Note_on_c, 0, 60, 93
3, 52221, Note_on_c, 0, 60, 0
3, 52224, Note_on_c, 0, 63, 93
3, 52269, Note_on_c, 0, 63, 0
3, 52272, Note_on_c, 0, 67, 93
3, 52317, Note_on_c, 0, 67, 0
3, 52320, Note_on_c, 0, 72, 93
3, 52365, Note_on_c, 0, 72, 0
3, 52368, Note_on_c, 0, 75, 93
3, 52461, Note_on_c, 0, 75, 0
3, 52464, Note_on_c, 0, 74, 91
3, 52553, Note_on_c, 0, 74, 0
3, 52560, Note_on_c, 0, 72, 89
3, 52649, Note_on_c, 0, 72, 0
3, 52656, Note_on_c, 0, 71, 87
3, 52701, Note_on_c, 0, 71, 0
3, 54720, Note_on_c, 0, 60, 86
3, 55053, Note_on_c, 0, 60, 0
3, 55056, Note_on_c, 0, 63, 86
3, 55101, Note_on_c, 0, 63, 0
3, 55104, Note_on_c, 0, 63, 86
3, 55149, Note_on_c, 0, 63, 0
3, 55152, Note_on_c, 0, 62, 86
3, 55197, Note_on_c, 0, 62, 0
3, 55200, Note_on_c, 0, 60, 86
3, 55245, Note_on_c, 0, 60, 0
3, 55248, Note_on_c, 0, 59, 86
3, 55293, Note_on_c, 0, 59, 0
3, 55344, Note_on_c, 0, 55, 86
3, 55389, Note_on_c, 0, 55, 0
3, 55392, Note_on_c, 0, 56, 86
3, 55437, Note_on_c, 0, 56, 0
3, 55440, Note_on_c, 0, 55, 87
3, 55485, Note_on_c, 0, 55, 0
3, 55488, Note_on_c, 0, 56, 87
3, 55533, Note_on_c, 0, 56, 0
3, 55536, Note_on_c, 0, 55, 88
3, 55581, Note_on_c, 0, 55, 0
3, 55584, Note_on_c, 0, 56, 89
3, 55629, Note_on_c, 0, 56, 0
3, 55632, Note_on_c, 0, 59, 89
3, 55677, Note_on_c, 0, 59, 0
3, 55680, Note_on_c, 0, 60, 90
3, 55725, Note_on_c, 0, 60, 0
3, 55728, Note_on_c, 0, 59, 91
3, 55773, Note_on_c, 0, 59, 0
3, 55776, Note_on_c, 0, 60, 91
3, 55821, Note_on_c, 0, 60, 0
3, 55824, Note_on_c, 0, 59, 92
3, 55869, Note_on_c, 0, 59, 0
3, 55872, Note_on_c, 0, 60, 93
3, 55917, Note_on_c, 0, 60, 0
3, 55920, Note_on_c, 0, 57, 92
3, 55965, Note_on_c, 0, 57, 0
3, 55968, Note_on_c, 0, 58, 91
3, 56013, Note_on_c, 0, 58, 0
3, 56016, Note_on_c, 0, 57, 91
3, 56061, Note_on_c, 0, 57, 0
3, 56064, Note_on_c, 0, 58, 90
3, 56109, Note_on_c, 0, 58, 0
3, 56112, Note_on_c, 0, 57, 90
3, 56157, Note_on_c, 0, 57, 0
3, 56160, Note_on_c, 0, 58, 89
3, 56205, Note_on_c, 0, 58, 0
3, 56208, Note_on_c, 0, 55, 88
3, 56253, Note_on_c, 0, 55, 0
3, 56256, Note_on_c, 0, 56, 88
3, 56301, Note_on_c, 0, 56, 0
3, 56304, Note_on_c, 0, 55, 87
3, 56349, Note_on_c, 0, 55, 0
3, 56352, Note_on_c, 0, 56, 87
3, 56397, Note_on_c, 0, 56, 0
3, 56400, Note_on_c, 0, 55, 86
3, 56445, Note_on_c, 0, 55, 0
3, 56448, Note_on_c, 0, 56, 86
3, 56493, Note_on_c, 0, 56, 0
3, 56496, Note_on_c, 0, 56, 86
3, 56541, Note_on_c, 0, 56, 0
3, 58752, Note_on_c, 0, 75, 71
3, 58848, Note_on_c, 0, 75, 0
3, 58848, Note_on_c, 0, 74, 71
3, 58887, Note_on_c, 0, 74, 0
3, 67968, Note_on_c, 0, 72, 71
3, 68064, Note_on_c, 0, 72, 0
3, 68064, Note_on_c, 0, 71, 71
3, 68103, Note_on_c, 0, 71, 0
3, 68592, Note_on_c, 0, 57, 78
3, 68637, Note_on_c, 0, 57, 0
3, 68640, Note_on_c, 0, 60, 79
3, 68685, Note_on_c, 0, 60, 0
3, 68688, Note_on_c, 0, 63, 81
3, 68733, Note_on_c, 0, 63, 0
3, 68736, Note_on_c, 0, 62, 82
3, 68781, Note_on_c, 0, 62, 0
3, 68784, Note_on_c, 0, 60, 84
3, 68829, Note_on_c, 0, 60, 0
3, 68832, Note_on_c, 0, 60, 102
3, 68928, Note_on_c, 0, 60, 0
3, 68928, Note_on_c, 0, 59, 83
3, 69105, Note_on_c, 0, 59, 0
3, 69168, Note_on_c, 0, 55, 78
3, 69213, Note_on_c, 0, 55, 0
3, 69216, Note_on_c, 0, 60, 79
3, 69261, Note_on_c, 0, 60, 0
3, 69264, Note_on_c, 0, 58, 81
3, 69309, Note_on_c, 0, 58, 0
3, 69312, Note_on_c, 0, 56, 82
3, 69357, Note_on_c, 0, 56, 0
3, 69360, Note_on_c, 0, 55, 84
3, 69405, Note_on_c, 0, 55, 0
3, 69408, Note_on_c, 0, 56, 86
3, 69585, Note_on_c, 0, 56, 0
3, 82704, Note_on_c, 0, 60, 93
3, 82749, Note_on_c, 0, 60, 0
3, 82752, Note_on_c, 0, 63, 93
3, 82797, Note_on_c, 0, 63, 0
3, 82800, Note_on_c, 0, 67, 93
3, 82845, Note_on_c, 0, 67, 0
3, 82848, Note_on_c, 0, 72, 93
3, 82893, Note_on_c, 0, 72, 0
3, 82896, Note_on_c, 0, 75, 93
3, 82989, Note_on_c, 0, 75, 0
3, 82992, Note_on_c, 0, 74, 91
3, 83081, Note_on_c, 0, 74, 0
3, 83088, Note_on_c, 0, 72, 89
3, 83177, Note_on_c, 0, 72, 0
3, 83184, Note_on_c, 0, 71, 87
3, 83229, Note_on_c, 0, 71, 0
3, 85248, Note_on_c, 0, 60, 86
3, 85581, Note_on_c, 0, 60, 0
3, 85584, Note_on_c, 0, 63, 86
3, 85629, Note_on_c, 0, 63, 0
3, 85632, Note_on_c, 0, 63, 86
3, 85677, Note_on_c, 0, 63, 0
3, 85680, Note_on_c, 0, 62, 86
3, 85725, Note_on_c, 0, 62, 0
3, 85728, Note_on_c, 0, 60, 86
3, 85773, Note_on_c, 0, 60, 0
3, 85776, Note_on_c, 0, 59, 86
3, 85821, Note_on_c, 0, 59, 0
3, 85872, Note_on_c, 0, 55, 86
3, 85917, Note_on_c, 0, 55, 0
3, 85920, Note_on_c, 0, 56, 86
3, 85965, Note_on_c, 0, 56, 0
3, 85968, Note_on_c, 0, 55, 87
3, 86013, Note_on_c, 0, 55, 0
3, 86016, Note_on_c, 0, 56, 87
3, 86061, Note_on_c, 0, 56, 0
3, 86064, Note_on_c, 0, 55, 88
3, 86109, Note_on_c, 0, 55, 0
3, 86112, Note_on_c, 0, 56, 89
3, 86157, Note_on_c, 0, 56, 0
3, 86160, Note_on_c, 0, 59, 89
3, 86205, Note_on_c, 0, 59, 0
3, 86208, Note_on_c, 0, 60, 90
3, 86253, Note_on_c, 0, 60, 0
3, 86256, Note_on_c, 0, 59, 91
3, 86301, Note_on_c, 0, 59, 0
3, 86304, Note_on_c, 0, 60, 91
3, 86349, Note_on_c, 0, 60, 0
3, 86352, Note_on_c, 0, 59, 92
3, 86397, Note_on_c, 0, 59, 0
3, 86400, Note_on_c, 0, 60, 93
3, 86445, Note_on_c, 0, 60, 0
3, 86448, Note_on_c, 0, 57, 92
3, 86493, Note_on_c, 0, 57, 0
3, 86496, Note_on_c, 0, 58, 91
3, 86541, Note_on_c, 0, 58, 0
3, 86544, Note_on_c, 0, 57, 91
3, 86589, Note_on_c, 0, 57, 0
3, 86592, Note_on_c, 0, 58, 90
3, 86637, Note_on_c, 0, 58, 0
3, 86640, Note_on_c, 0, 57, 90
3, 86685, Note_on_c, 0, 57, 0
3, 86688, Note_on_c, 0, 58, 89
3, 86733, Note_on_c, 0, 58, 0
3, 86736, Note_on_c, 0, 55, 88
3, 86781, Note_on_c, 0, 55, 0
3, 86784, Note_on_c, 0, 56, 88
3, 86829, Note_on_c, 0, 56, 0
3, 86832, Note_on_c, 0, 55, 87
3, 86877, Note_on_c, 0, 55, 0
3, 86880, Note_on_c, 0, 56, 87
3, 86925, Note_on_c, 0, 56, 0
3, 86928, Note_on_c, 0, 55, 86
3, 86973, Note_on_c, 0, 55, 0
3, 86976, Note_on_c, 0, 56, 86
3, 87021, Note_on_c, 0, 56, 0
3, 87024, Note_on_c, 0, 56, 86
3, 87069, Note_on_c, 0, 56, 0
3, 87840, End_track
4, 0, Start_track
4, 0, Program_c, 1, 1
4, 0, Control_c, 1, 7, 127
4, 0, Control_c, 1, 10, 64
4, 288, Note_on_c, 1, 63, 71
4, 288, Note_on_c, 1, 60, 71
4, 327, Note_on_c, 1, 63, 0
4, 327, Note_on_c, 1, 60, 0
4, 384, Note_on_c, 1, 65, 71
4, 384, Note_on_c, 1, 62, 71
4, 423, Note_on_c, 1, 65, 0
4, 423, Note_on_c, 1, 62, 0
4, 576, Note_on_c, 1, 65, 71
4, 576, Note_on_c, 1, 62, 71
4, 615, Note_on_c, 1, 65, 0
4, 615, Note_on_c, 1, 62, 0
4, 672, Note_on_c, 1, 67, 71
4, 672, Note_on_c, 1, 63, 71
4, 711, Note_on_c, 1, 67, 0
4, 711, Note_on_c, 1, 63, 0
4, 864, Note_on_c, 1, 67, 71
4, 864, Note_on_c, 1, 63, 71
4, 953, Note_on_c, 1, 67, 0
4, 953, Note_on_c, 1, 63, 0
4, 960, Note_on_c, 1, 65, 71
4, 960, Note_on_c, 1, 62, 71
4, 1049, Note_on_c, 1, 65, 0
4, 1049, Note_on_c, 1, 62, 0
4, 1056, Note_on_c, 1, 63, 71
4, 1056, Note_on_c, 1, 60, 71
4, 1145, Note_on_c, 1, 63, 0
4, 1145, Note_on_c, 1, 60, 0
4, 1152, Note_on_c, 1, 62, 71
4, 1152, Note_on_c, 1, 59, 71
4, 1248, Note_on_c, 1, 62, 0
4, 1248, Note_on_c, 1, 55, 71
4, 1337, Note_on_c, 1, 59, 0
4, 1337, Note_on_c, 1, 55, 0
4, 1344, Note_on_c, 1, 67, 71
4, 1344, Note_on_c, 1, 59, 71
4, 1383, Note_on_c, 1, 67, 0
4, 1383, Note_on_c, 1, 59, 0
4, 1440, Note_on_c, 1, 67, 71
4, 1440, Note_on_c, 1, 60, 71
4, 1479, Note_on_c, 1, 67, 0
4, 1479, Note_on_c, 1, 60, 0
4, 1632, Note_on_c, 1, 66, 71
4, 1632, Note_on_c, 1, 56, 71
4, 1726, Note_on_c, 1, 66, 0
4, 1726, Note_on_c, 1, 56, 0
4, 1728, Note_on_c, 1, 67, 71
4, 1728, Note_on_c, 1, 55, 71
4, 1817, Note_on_c, 1, 67, 0
4, 1817, Note_on_c, 1, 55, 0
4, 2112, Note_on_c, 1, 53, 71
4, 2112, Note_on_c, 1, 50, 71
4, 2151, Note_on_c, 1, 53, 0
4, 2151, Note_on_c, 1, 50, 0
4, 2400, Note_on_c, 1, 55, 71
4, 2400, Note_on_c, 1, 51, 71
4, 2439, Note_on_c, 1, 55, 0
4, 2439, Note_on_c, 1, 51, 0
4, 2976, Note_on_c, 1, 59, 71
4, 3015, Note_on_c, 1, 59, 0
4, 3072, Note_on_c, 1, 60, 71
4, 3111, Note_on_c, 1, 60, 0
4, 3168, Note_on_c, 1, 53, 71
4, 3257, Note_on_c, 1, 53, 0
4, 3360, Note_on_c, 1, 55, 71
4, 3449, Note_on_c, 1, 55, 0
4, 3552, Note_on_c, 1, 36, 71
4, 3641, Note_on_c, 1, 36, 0
4, 3648, Note_on_c, 1, 48, 78
4, 3671, Note_on_c, 1, 48, 0
4, 3672, Note_on_c, 1, 47, 78
4, 3695, Note_on_c, 1, 47, 0
4, 3696, Note_on_c, 1, 50, 78
4, 3719, Note_on_c, 1, 50, 0
4, 3720, Note_on_c, 1, 48, 78
4, 3743, Note_on_c, 1, 48, 0
4, 3744, Note_on_c, 1, 51, 78
4, 3833, Note_on_c, 1, 51, 0
4, 4080, Note_on_c, 1, 63, 78
4, 4125, Note_on_c, 1, 63, 0
4, 4128, Note_on_c, 1, 62, 78
4, 4173, Note_on_c, 1, 62, 0
4, 4176, Note_on_c, 1, 60, 78
4, 4221, Note_on_c, 1, 60, 0
4, 4224, Note_on_c, 1, 58, 78
4, 4269, Note_on_c, 1, 58, 0
4, 4272, Note_on_c, 1, 56, 78
4, 4317, Note_on_c, 1, 56, 0
4, 4320, Note_on_c, 1, 55, 78
4, 4365, Note_on_c, 1, 55, 0
4, 4368, Note_on_c, 1, 51, 78
4, 4413, Note_on_c, 1, 51, 0
4, 4416, Note_on_c, 1, 50, 78
4, 4461, Note_on_c, 1, 50, 0
4, 4464, Note_on_c, 1, 48, 78
4, 4509, Note_on_c, 1, 48, 0
4, 4512, Note_on_c, 1, 46, 78
4, 4557, Note_on_c, 1, 46, 0
4, 4560, Note_on_c, 1, 44, 78
4, 4605, Note_on_c, 1, 44, 0
4, 4608, Note_on_c, 1, 43, 78
4, 4697, Note_on_c, 1, 43, 0
4, 4896, Note_on_c, 1, 53, 78
4, 5161, Note_on_c, 1, 53, 0
4, 5184, Note_on_c, 1, 58, 78
4, 5449, Note_on_c, 1, 58, 0
4, 5472, Note_on_c, 1, 51, 78
4, 5737, Note_on_c, 1, 51, 0
4, 5760, Note_on_c, 1, 44, 78
4, 5937, Note_on_c, 1, 44, 0
4, 5952, Note_on_c, 1, 45, 78
4, 6041, Note_on_c, 1, 45, 0
4, 6048, Note_on_c, 1, 46, 86
4, 6048, Note_on_c, 1, 34, 86
4, 6137, Note_on_c, 1, 46, 0
4, 6137, Note_on_c, 1, 34, 0
4, 6144, Note_on_c, 1, 62, 86
4, 6164, Note_on_c, 1, 62, 0
4, 6192, Note_on_c, 1, 63, 86
4, 6212, Note_on_c, 1, 63, 0
4, 6240, Note_on_c, 1, 65, 86
4, 6260, Note_on_c, 1, 65, 0
4, 6336, Note_on_c, 1, 46, 86
4, 6336, Note_on_c, 1, 34, 86
4, 6425, Note_on_c, 1, 46, 0
4, 6425, Note_on_c, 1, 34, 0
4, 6432, Note_on_c, 1, 63, 86
4, 6452, Note_on_c, 1, 63, 0
4, 6480, Note_on_c, 1, 65, 86
4, 6500, Note_on_c, 1, 65, 0
4, 6528, Note_on_c, 1, 67, 86
4, 6548, Note_on_c, 1, 67, 0
4, 6624, Note_on_c, 1, 46, 86
4, 6624, Note_on_c, 1, 34, 86
4, 6713, Note_on_c, 1, 46, 0
4, 6713, Note_on_c, 1, 34, 0
4, 6720, Note_on_c, 1, 58, 86
4, 6740, Note_on_c, 1, 58, 0
4, 6768, Note_on_c, 1, 60, 86
4, 6788, Note_on_c, 1, 60, 0
4, 6816, Note_on_c, 1, 62, 86
4, 6836, Note_on_c, 1, 62, 0
4, 6864, Note_on_c, 1, 63, 86
4, 6884, Note_on_c, 1, 63, 0
4, 6912, Note_on_c, 1, 65, 86
4, 7001, Note_on_c, 1, 65, 0
4, 7200, Note_on_c, 1, 63, 86
4, 7220, Note_on_c, 1, 63, 0
4, 7248, Note_on_c, 1, 65, 86
4, 7268, Note_on_c, 1, 65, 0
4, 7296, Note_on_c, 1, 67, 86
4, 7316, Note_on_c, 1, 67, 0
4, 7344, Note_on_c, 1, 68, 86
4, 7364, Note_on_c, 1, 68, 0
4, 7392, Note_on_c, 1, 70, 86
4, 7412, Note_on_c, 1, 70, 0
4, 7440, Note_on_c, 1, 72, 86
4, 7460, Note_on_c, 1, 72, 0
4, 7488, Note_on_c, 1, 74, 86
4, 7577, Note_on_c, 1, 74, 0
4, 7776, Note_on_c, 1, 60, 86
4, 7815, Note_on_c, 1, 60, 0
4, 7872, Note_on_c, 1, 58, 86
4, 7911, Note_on_c, 1, 58, 0
4, 7968, Note_on_c, 1, 56, 86
4, 8007, Note_on_c, 1, 56, 0
4, 8064, Note_on_c, 1, 55, 86
4, 8103, Note_on_c, 1, 55, 0
4, 8160, Note_on_c, 1, 53, 86
4, 8199, Note_on_c, 1, 53, 0
4, 8256, Note_on_c, 1, 51, 86
4, 8295, Note_on_c, 1, 51, 0
4, 8352, Note_on_c, 1, 72, 86
4, 8441, Note_on_c, 1, 72, 0
4, 8448, Note_on_c, 1, 70, 86
4, 8537, Note_on_c, 1, 70, 0
4, 8544, Note_on_c, 1, 75, 86
4, 8633, Note_on_c, 1, 75, 0
4, 8640, Note_on_c, 1, 74, 86
4, 8729, Note_on_c, 1, 74, 0
4, 8736, Note_on_c, 1, 72, 86
4, 8825, Note_on_c, 1, 72, 0
4, 8832, Note_on_c, 1, 70, 86
4, 8921, Note_on_c, 1, 70, 0
4, 8928, Note_on_c, 1, 45, 86
4, 8967, Note_on_c, 1, 45, 0
4, 9024, Note_on_c, 1, 57, 86
4, 9063, Note_on_c, 1, 57, 0
4, 9216, Note_on_c, 1, 44, 86
4, 9255, Note_on_c, 1, 44, 0
4, 9312, Note_on_c, 1, 56, 86
4, 9351, Note_on_c, 1, 56, 0
4, 9504, Note_on_c, 1, 55, 86
4, 9593, Note_on_c, 1, 55, 0
4, 9744, Note_on_c, 1, 51, 78
4, 9789, Note_on_c, 1, 51, 0
4, 9792, Note_on_c, 1, 56, 78
4, 9881, Note_on_c, 1, 56, 0
4, 9888, Note_on_c, 1, 58, 78
4, 9977, Note_on_c, 1, 58, 0
4, 9984, Note_on_c, 1, 46, 78
4, 10073, Note_on_c, 1, 46, 0
4, 10080, Note_on_c, 1, 48, 78
4, 10125, Note_on_c, 1, 48, 0
4, 10128, Note_on_c, 1, 60, 78
4, 10173, Note_on_c, 1, 60, 0
4, 10176, Note_on_c, 1, 46, 78
4, 10221, Note_on_c, 1, 46, 0
4, 10224, Note_on_c, 1, 58, 78
4, 10269, Note_on_c, 1, 58, 0
4, 10272, Note_on_c, 1, 44, 78
4, 10317, Note_on_c, 1, 44, 0
4, 10320, Note_on_c, 1, 56, 78
4, 10365, Note_on_c, 1, 56, 0
4, 10368, Note_on_c, 1, 43, 78
4, 10413, Note_on_c, 1, 43, 0
4, 10416, Note_on_c, 1, 55, 78
4, 10461, Note_on_c, 1, 55, 0
4, 10464, Note_on_c, 1, 41, 78
4, 10509, Note_on_c, 1, 41, 0
4, 10512, Note_on_c, 1, 53, 78
4, 10557, Note_on_c, 1, 53, 0
4, 10560, Note_on_c, 1, 39, 78
4, 10605, Note_on_c, 1, 39, 0
4, 10608, Note_on_c, 1, 51, 78
4, 10653, Note_on_c, 1, 51, 0
4, 10656, Note_on_c, 1, 44, 78
4, 10745, Note_on_c, 1, 44, 0
4, 11280, Note_on_c, 1, 45, 78
4, 11325, Note_on_c, 1, 45, 0
4, 11328, Note_on_c, 1, 46, 78
4, 11373, Note_on_c, 1, 46, 0
4, 11376, Note_on_c, 1, 45, 78
4, 11421, Note_on_c, 1, 45, 0
4, 11424, Note_on_c, 1, 46, 78
4, 11469, Note_on_c, 1, 46, 0
4, 11472, Note_on_c, 1, 45, 78
4, 11517, Note_on_c, 1, 45, 0
4, 11520, Note_on_c, 1, 46, 78
4, 11785, Note_on_c, 1, 46, 0
4, 11856, Note_on_c, 1, 54, 78
4, 11901, Note_on_c, 1, 54, 0
4, 11904, Note_on_c, 1, 55, 79
4, 11949, Note_on_c, 1, 55, 0
4, 11952, Note_on_c, 1, 54, 80
4, 11997, Note_on_c, 1, 54, 0
4, 12000, Note_on_c, 1, 55, 81
4, 12045, Note_on_c, 1, 55, 0
4, 12048, Note_on_c, 1, 54, 82
4, 12093, Note_on_c, 1, 54, 0
4, 12096, Note_on_c, 1, 55, 83
4, 12141, Note_on_c, 1, 55, 0
4, 12144, Note_on_c, 1, 57, 84
4, 12189, Note_on_c, 1, 57, 0
4, 12192, Note_on_c, 1, 58, 85
4, 12237, Note_on_c, 1, 58, 0
4, 12240, Note_on_c, 1, 57, 86
4, 12285, Note_on_c, 1, 57, 0
4, 12288, Note_on_c, 1, 58, 85
4, 12333, Note_on_c, 1, 58, 0
4, 12336, Note_on_c, 1, 57, 84
4, 12381, Note_on_c, 1, 57, 0
4, 12384, Note_on_c, 1, 58, 83
4, 12429, Note_on_c, 1, 58, 0
4, 12432, Note_on_c, 1, 55, 82
4, 12477, Note_on_c, 1, 55, 0
4, 12480, Note_on_c, 1, 56, 81
4, 12525, Note_on_c, 1, 56, 0
4, 12528, Note_on_c, 1, 55, 80
4, 12573, Note_on_c, 1, 55, 0
4, 12576, Note_on_c, 1, 56, 79
4, 12621, Note_on_c, 1, 56, 0
4, 12624, Note_on_c, 1, 55, 78
4, 12669, Note_on_c, 1, 55, 0
4, 12672, Note_on_c, 1, 56, 78
4, 12937, Note_on_c, 1, 56, 0
4, 12960, Note_on_c, 1, 56, 78
4, 13248, Note_on_c, 1, 56, 0
4, 13248, Note_on_c, 1, 55, 72
4, 13342, Note_on_c, 1, 55, 0
4, 13536, Note_on_c, 1, 63, 71
4, 13536, Note_on_c, 1, 60, 71
4, 13575, Note_on_c, 1, 63, 0
4, 13575, Note_on_c, 1, 60, 0
4, 13632, Note_on_c, 1, 65, 71
4, 13632, Note_on_c, 1, 62, 71
4, 13671, Note_on_c, 1, 65, 0
4, 13671, Note_on_c, 1, 62, 0
4, 13824, Note_on_c, 1, 65, 71
4, 13824, Note_on_c, 1, 62, 71
4, 13863, Note_on_c, 1, 65, 0
4, 13863, Note_on_c, 1, 62, 0
4, 13920, Note_on_c, 1, 67, 71
4, 13920, Note_on_c, 1, 63, 71
4, 13959, Note_on_c, 1, 67, 0
4, 13959, Note_on_c, 1, 63, 0
4, 14112, Note_on_c, 1, 67, 71
4, 14112, Note_on_c, 1, 63, 71
4, 14201, Note_on_c, 1, 67, 0
4, 14201, Note_on_c, 1, 63, 0
4, 14208, Note_on_c, 1, 65, 71
4, 14208, Note_on_c, 1, 62, 71
4, 14297, Note_on_c, 1, 65, 0
4, 14297, Note_on_c, 1, 62, 0
4, 14304, Note_on_c, 1, 63, 71
4, 14304, Note_on_c, 1, 60, 71
4, 14393, Note_on_c, 1, 63, 0
4, 14393, Note_on_c, 1, 60, 0
4, 14400, Note_on_c, 1, 62, 71
4, 14400, Note_on_c, 1, 59, 71
4, 14496, Note_on_c, 1, 62, 0
4, 14496, Note_on_c, 1, 55, 71
4, 14585, Note_on_c, 1, 59, 0
4, 14585, Note_on_c, 1, 55, 0
4, 14592, Note_on_c, 1, 67, 71
4, 14592, Note_on_c, 1, 59, 71
4, 14631, Note_on_c, 1, 67, 0
4, 14631, Note_on_c, 1, 59, 0
4, 14688, Note_on_c, 1, 67, 71
4, 14688, Note_on_c, 1, 60, 71
4, 14727, Note_on_c, 1, 67, 0
4, 14727, Note_on_c, 1, 60, 0
4, 14880, Note_on_c, 1, 66, 71
4, 14880, Note_on_c, 1, 56, 71
4, 14974, Note_on_c, 1, 66, 0
4, 14974, Note_on_c, 1, 56, 0
4, 14976, Note_on_c, 1, 67, 71
4, 14976, Note_on_c, 1, 55, 71
4, 15065, Note_on_c, 1, 67, 0
4, 15065, Note_on_c, 1, 55, 0
4, 15360, Note_on_c, 1, 53, 71
4, 15360, Note_on_c, 1, 50, 71
4, 15399, Note_on_c, 1, 53, 0
4, 15399, Note_on_c, 1, 50, 0
4, 15648, Note_on_c, 1, 55, 71
4, 15648, Note_on_c, 1, 51, 71
4, 15687, Note_on_c, 1, 55, 0
4, 15687, Note_on_c, 1, 51, 0
4, 16224, Note_on_c, 1, 59, 71
4, 16263, Note_on_c, 1, 59, 0
4, 16320, Note_on_c, 1, 60, 71
4, 16359, Note_on_c, 1, 60, 0
4, 16416, Note_on_c, 1, 53, 71
4, 16505, Note_on_c, 1, 53, 0
4, 16608, Note_on_c, 1, 55, 71
4, 16697, Note_on_c, 1, 55, 0
4, 16800, Note_on_c, 1, 36, 71
4, 16889, Note_on_c, 1, 36, 0
4, 16896, Note_on_c, 1, 48, 78
4, 16919, Note_on_c, 1, 48, 0
4, 16920, Note_on_c, 1, 47, 78
4, 16943, Note_on_c, 1, 47, 0
4, 16944, Note_on_c, 1, 50, 78
4, 16967, Note_on_c, 1, 50, 0
4, 16968, Note_on_c, 1, 48, 78
4, 16991, Note_on_c, 1, 48, 0
4, 16992, Note_on_c, 1, 51, 78
4, 17081, Note_on_c, 1, 51, 0
4, 17328, Note_on_c, 1, 63, 78
4, 17373, Note_on_c, 1, 63, 0
4, 17376, Note_on_c, 1, 62, 78
4, 17421, Note_on_c, 1, 62, 0
4, 17424, Note_on_c, 1, 60, 78
4, 17469, Note_on_c, 1, 60, 0
4, 17472, Note_on_c, 1, 58, 78
4, 17517, Note_on_c, 1, 58, 0
4, 17520, Note_on_c, 1, 56, 78
4, 17565, Note_on_c, 1, 56, 0
4, 17568, Note_on_c, 1, 55, 78
4, 17613, Note_on_c, 1, 55, 0
4, 17616, Note_on_c, 1, 51, 78
4, 17661, Note_on_c, 1, 51, 0
4, 17664, Note_on_c, 1, 50, 78
4, 17709, Note_on_c, 1, 50, 0
4, 17712, Note_on_c, 1, 48, 78
4, 17757, Note_on_c, 1, 48, 0
4, 17760, Note_on_c, 1, 46, 78
4, 17805, Note_on_c, 1, 46, 0
4, 17808, Note_on_c, 1, 44, 78
4, 17853, Note_on_c, 1, 44, 0
4, 17856, Note_on_c, 1, 43, 78
4, 17945, Note_on_c, 1, 43, 0
4, 18144, Note_on_c, 1, 53, 78
4, 18409, Note_on_c, 1, 53, 0
4, 18432, Note_on_c, 1, 58, 78
4, 18697, Note_on_c, 1, 58, 0
4, 18720, Note_on_c, 1, 51, 78
4, 18985, Note_on_c, 1, 51, 0
4, 19008, Note_on_c, 1, 44, 78
4, 19185, Note_on_c, 1, 44, 0
4, 19200, Note_on_c, 1, 45, 78
4, 19289, Note_on_c, 1, 45, 0
4, 19296, Note_on_c, 1, 46, 86
4, 19296, Note_on_c, 1, 34, 86
4, 19385, Note_on_c, 1, 46, 0
4, 19385, Note_on_c, 1, 34, 0
4, 19392, Note_on_c, 1, 62, 86
4, 19412, Note_on_c, 1, 62, 0
4, 19440, Note_on_c, 1, 63, 86
4, 19460, Note_on_c, 1, 63, 0
4, 19488, Note_on_c, 1, 65, 86
4, 19508, Note_on_c, 1, 65, 0
4, 19584, Note_on_c, 1, 46, 86
4, 19584, Note_on_c, 1, 34, 86
4, 19673, Note_on_c, 1, 46, 0
4, 19673, Note_on_c, 1, 34, 0
4, 19680, Note_on_c, 1, 63, 86
4, 19700, Note_on_c, 1, 63, 0
4, 19728, Note_on_c, 1, 65, 86
4, 19748, Note_on_c, 1, 65, 0
4, 19776, Note_on_c, 1, 67, 86
4, 19796, Note_on_c, 1, 67, 0
4, 19872, Note_on_c, 1, 46, 86
4, 19872, Note_on_c, 1, 34, 86
4, 19961, Note_on_c, 1, 46, 0
4, 19961, Note_on_c, 1, 34, 0
4, 19968, Note_on_c, 1, 58, 86
4, 19988, Note_on_c, 1, 58, 0
4, 20016, Note_on_c, 1, 60, 86
4, 20036, Note_on_c, 1, 60, 0
4, 20064, Note_on_c, 1, 62, 86
4, 20084, Note_on_c, 1, 62, 0
4, 20112, Note_on_c, 1, 63, 86
4, 20132, Note_on_c, 1, 63, 0
4, 20160, Note_on_c, 1, 65, 86
4, 20249, Note_on_c, 1, 65, 0
4, 20448, Note_on_c, 1, 63, 86
4, 20468, Note_on_c, 1, 63, 0
4, 20496, Note_on_c, 1, 65, 86
4, 20516, Note_on_c, 1, 65, 0
4, 20544, Note_on_c, 1, 67, 86
4, 20564, Note_on_c, 1, 67, 0
4, 20592, Note_on_c, 1, 68, 86
4, 20612, Note_on_c, 1, 68, 0
4, 20640, Note_on_c, 1, 70, 86
4, 20660, Note_on_c, 1, 70, 0
4, 20688, Note_on_c, 1, 72, 86
4, 20708, Note_on_c, 1, 72, 0
4, 20736, Note_on_c, 1, 74, 86
4, 20825, Note_on_c, 1, 74, 0
4, 21024, Note_on_c, 1, 60, 86
4, 21063, Note_on_c, 1, 60, 0
4, 21120, Note_on_c, 1, 58, 86
4, 21159, Note_on_c, 1, 58, 0
4, 21216, Note_on_c, 1, 56, 86
4, 21255, Note_on_c, 1, 56, 0
4, 21312, Note_on_c, 1, 55, 86
4, 21351, Note_on_c, 1, 55, 0
4, 21408, Note_on_c, 1, 53, 86
4, 21447, Note_on_c, 1, 53, 0
4, 21504, Note_on_c, 1, 51, 86
4, 21543, Note_on_c, 1, 51, 0
4, 21600, Note_on_c, 1, 72, 86
4, 21689, Note_on_c, 1, 72, 0
4, 21696, Note_on_c, 1, 70, 86
4, 21785, Note_on_c, 1, 70, 0
4, 21792, Note_on_c, 1, 75, 86
4, 21881, Note_on_c, 1, 75, 0
4, 21888, Note_on_c, 1, 74, 86
4, 21977, Note_on_c, 1, 74, 0
4, 21984, Note_on_c, 1, 72, 86
4, 22073, Note_on_c, 1, 72, 0
4, 22080, Note_on_c, 1, 70, 86
4, 22169, Note_on_c, 1, 70, 0
4, 22176, Note_on_c, 1, 45, 86
4, 22215, Note_on_c, 1, 45, 0
4, 22272, Note_on_c, 1, 57, 86
4, 22311, Note_on_c, 1, 57, 0
4, 22464, Note_on_c, 1, 44, 86
4, 22503, Note_on_c, 1, 44, 0
4, 22560, Note_on_c, 1, 56, 86
4, 22599, Note_on_c, 1, 56, 0
4, 22752, Note_on_c, 1, 55, 86
4, 22841, Note_on_c, 1, 55, 0
4, 22992, Note_on_c, 1, 51, 78
4, 23037, Note_on_c, 1, 51, 0
4, 23040, Note_on_c, 1, 56, 78
4, 23129, Note_on_c, 1, 56, 0
4, 23136, Note_on_c, 1, 58, 78
4, 23225, Note_on_c, 1, 58, 0
4, 23232, Note_on_c, 1, 46, 78
4, 23321, Note_on_c, 1, 46, 0
4, 23328, Note_on_c, 1, 48, 78
4, 23373, Note_on_c, 1, 48, 0
4, 23376, Note_on_c, 1, 60, 78
4, 23421, Note_on_c, 1, 60, 0
4, 23424, Note_on_c, 1, 46, 78
4, 23469, Note_on_c, 1, 46, 0
4, 23472, Note_on_c, 1, 58, 78
4, 23517, Note_on_c, 1, 58, 0
4, 23520, Note_on_c, 1, 44, 78
4, 23565, Note_on_c, 1, 44, 0
4, 23568, Note_on_c, 1, 56, 78
4, 23613, Note_on_c, 1, 56, 0
4, 23616, Note_on_c, 1, 43, 78
4, 23661, Note_on_c, 1, 43, 0
4, 23664, Note_on_c, 1, 55, 78
4, 23709, Note_on_c, 1, 55, 0
4, 23712, Note_on_c, 1, 41, 78
4, 23757, Note_on_c, 1, 41, 0
4, 23760, Note_on_c, 1, 53, 78
4, 23805, Note_on_c, 1, 53, 0
4, 23808, Note_on_c, 1, 39, 78
4, 23853, Note_on_c, 1, 39, 0
4, 23856, Note_on_c, 1, 51, 78
4, 23901, Note_on_c, 1, 51, 0
4, 23904, Note_on_c, 1, 44, 78
4, 23993, Note_on_c, 1, 44, 0
4, 24528, Note_on_c, 1, 45, 78
4, 24573, Note_on_c, 1, 45, 0
4, 24576, Note_on_c, 1, 46, 78
4, 24621, Note_on_c, 1, 46, 0
4, 24624, Note_on_c, 1, 45, 78
4, 24669, Note_on_c, 1, 45, 0
4, 24672, Note_on_c, 1, 46, 78
4, 24717, Note_on_c, 1, 46, 0
4, 24720, Note_on_c, 1, 45, 78
4, 24765, Note_on_c, 1, 45, 0
4, 24768, Note_on_c, 1, 46, 78
4, 25033, Note_on_c, 1, 46, 0
4, 25104, Note_on_c, 1, 54, 78
4, 25149, Note_on_c, 1, 54, 0
4, 25152, Note_on_c, 1, 55, 79
4, 25197, Note_on_c, 1, 55, 0
4, 25200, Note_on_c, 1, 54, 80
4, 25245, Note_on_c, 1, 54, 0
4, 25248, Note_on_c, 1, 55, 81
4, 25293, Note_on_c, 1, 55, 0
4, 25296, Note_on_c, 1, 54, 82
4, 25341, Note_on_c, 1, 54, 0
4, 25344, Note_on_c, 1, 55, 83
4, 25389, Note_on_c, 1, 55, 0
4, 25392, Note_on_c, 1, 57, 84
4, 25437, Note_on_c, 1, 57, 0
4, 25440, Note_on_c, 1, 58, 85
4, 25485, Note_on_c, 1, 58, 0
4, 25488, Note_on_c, 1, 57, 86
4, 25533, Note_on_c, 1, 57, 0
4, 25536, Note_on_c, 1, 58, 85
4, 25581, Note_on_c, 1, 58, 0
4, 25584, Note_on_c, 1, 57, 84
4, 25629, Note_on_c, 1, 57, 0
4, 25632, Note_on_c, 1, 58, 83
4, 25677, Note_on_c, 1, 58, 0
4, 25680, Note_on_c, 1, 55, 82
4, 25725, Note_on_c, 1, 55, 0
4, 25728, Note_on_c, 1, 56, 81
4, 25773, Note_on_c, 1, 56, 0
4, 25776, Note_on_c, 1, 55, 80
4, 25821, Note_on_c, 1, 55, 0
4, 25824, Note_on_c, 1, 56, 79
4, 25869, Note_on_c, 1, 56, 0
4, 25872, Note_on_c, 1, 55, 78
4, 25917, Note_on_c, 1, 55, 0
4, 25920, Note_on_c, 1, 56, 78
4, 26185, Note_on_c, 1, 56, 0
4, 26208, Note_on_c, 1, 56, 78
4, 26496, Note_on_c, 1, 56, 0
4, 26496, Note_on_c, 1, 55, 72
4, 26590, Note_on_c, 1, 55, 0
4, 26784, Note_on_c, 1, 67, 78
4, 26784, Note_on_c, 1, 63, 78
4, 26823, Note_on_c, 1, 67, 0
4, 26823, Note_on_c, 1, 63, 0
4, 26880, Note_on_c, 1, 68, 78
4, 26880, Note_on_c, 1, 65, 78
4, 26919, Note_on_c, 1, 68, 0
4, 26919, Note_on_c, 1, 65, 0
4, 27072, Note_on_c, 1, 68, 78
4, 27072, Note_on_c, 1, 65, 78
4, 27111, Note_on_c, 1, 68, 0
4, 27111, Note_on_c, 1, 65, 0
4, 27168, Note_on_c, 1, 70, 78
4, 27168, Note_on_c, 1, 67, 78
4, 27207, Note_on_c, 1, 70, 0
4, 27207, Note_on_c, 1, 67, 0
4, 27360, Note_on_c, 1, 70, 78
4, 27360, Note_on_c, 1, 67, 78
4, 27449, Note_on_c, 1, 70, 0
4, 27449, Note_on_c, 1, 67, 0
4, 27456, Note_on_c, 1, 68, 78
4, 27456, Note_on_c, 1, 65, 78
4, 27545, Note_on_c, 1, 68, 0
4, 27545, Note_on_c, 1, 65, 0
4, 27552, Note_on_c, 1, 67, 78
4, 27552, Note_on_c, 1, 63, 78
4, 27641, Note_on_c, 1, 67, 0
4, 27641, Note_on_c, 1, 63, 0
4, 27648, Note_on_c, 1, 65, 78
4, 27648, Note_on_c, 1, 62, 78
4, 27744, Note_on_c, 1, 65, 0
4, 27744, Note_on_c, 1, 58, 78
4, 27833, Note_on_c, 1, 62, 0
4, 27833, Note_on_c, 1, 58, 0
4, 27840, Note_on_c, 1, 70, 78
4, 27840, Note_on_c, 1, 62, 78
4, 27879, Note_on_c, 1, 70, 0
4, 27879, Note_on_c, 1, 62, 0
4, 27936, Note_on_c, 1, 70, 78
4, 27936, Note_on_c, 1, 63, 78
4, 27975, Note_on_c, 1, 70, 0
4, 27975, Note_on_c, 1, 63, 0
4, 28128, Note_on_c, 1, 69, 78
4, 28128, Note_on_c, 1, 60, 78
4, 28217, Note_on_c, 1, 69, 0
4, 28217, Note_on_c, 1, 60, 0
4, 28224, Note_on_c, 1, 72, 78
4, 28224, Note_on_c, 1, 58, 78
4, 28313, Note_on_c, 1, 72, 0
4, 28313, Note_on_c, 1, 58, 0
4, 28896, Note_on_c, 1, 58, 78
4, 28896, Note_on_c, 1, 55, 78
4, 28935, Note_on_c, 1, 58, 0
4, 28935, Note_on_c, 1, 55, 0
4, 29184, Note_on_c, 1, 60, 78
4, 29184, Note_on_c, 1, 56, 78
4, 29273, Note_on_c, 1, 60, 0
4, 29273, Note_on_c, 1, 56, 0
4, 29712, Note_on_c, 1, 68, 78
4, 29760, Note_on_c, 1, 68, 0
4, 29760, Note_on_c, 1, 67, 76
4, 29805, Note_on_c, 1, 67, 0
4, 29808, Note_on_c, 1, 65, 74
4, 29828, Note_on_c, 1, 65, 0
4, 29856, Note_on_c, 1, 63, 72
4, 29876, Note_on_c, 1, 63, 0
4, 29904, Note_on_c, 1, 62, 71
4, 29924, Note_on_c, 1, 62, 0
4, 29952, Note_on_c, 1, 60, 72
4, 30000, Note_on_c, 1, 60, 0
4, 30000, Note_on_c, 1, 62, 74
4, 30045, Note_on_c, 1, 62, 0
4, 30048, Note_on_c, 1, 63, 76
4, 30068, Note_on_c, 1, 63, 0
4, 30288, Note_on_c, 1, 67, 78
4, 30336, Note_on_c, 1, 67, 0
4, 30336, Note_on_c, 1, 65, 76
4, 30381, Note_on_c, 1, 65, 0
4, 30384, Note_on_c, 1, 63, 74
4, 30404, Note_on_c, 1, 63, 0
4, 30432, Note_on_c, 1, 62, 72
4, 30452, Note_on_c, 1, 62, 0
4, 30480, Note_on_c, 1, 60, 71
4, 30500, Note_on_c, 1, 60, 0
4, 30528, Note_on_c, 1, 58, 72
4, 30576, Note_on_c, 1, 58, 0
4, 30576, Note_on_c, 1, 60, 74
4, 30621, Note_on_c, 1, 60, 0
4, 30624, Note_on_c, 1, 62, 76
4, 30644, Note_on_c, 1, 62, 0
4, 30864, Note_on_c, 1, 65, 78
4, 30912, Note_on_c, 1, 65, 0
4, 30912, Note_on_c, 1, 63, 76
4, 30957, Note_on_c, 1, 63, 0
4, 30960, Note_on_c, 1, 62, 74
4, 30980, Note_on_c, 1, 62, 0
4, 31008, Note_on_c, 1, 60, 72
4, 31028, Note_on_c, 1, 60, 0
4, 31056, Note_on_c, 1, 58, 71
4, 31076, Note_on_c, 1, 58, 0
4, 31104, Note_on_c, 1, 57, 72
4, 31152, Note_on_c, 1, 57, 0
4, 31152, Note_on_c, 1, 58, 74
4, 31197, Note_on_c, 1, 58, 0
4, 31200, Note_on_c, 1, 60, 76
4, 31220, Note_on_c, 1, 60, 0
4, 31440, Note_on_c, 1, 63, 78
4, 31488, Note_on_c, 1, 63, 0
4, 31488, Note_on_c, 1, 62, 78
4, 31533, Note_on_c, 1, 62, 0
4, 31536, Note_on_c, 1, 60, 79
4, 31556, Note_on_c, 1, 60, 0
4, 31584, Note_on_c, 1, 58, 80
4, 31604, Note_on_c, 1, 58, 0
4, 31632, Note_on_c, 1, 57, 80
4, 31652, Note_on_c, 1, 57, 0
4, 31680, Note_on_c, 1, 55, 81
4, 31700, Note_on_c, 1, 55, 0
4, 31728, Note_on_c, 1, 53, 82
4, 31748, Note_on_c, 1, 53, 0
4, 31776, Note_on_c, 1, 51, 83
4, 31796, Note_on_c, 1, 51, 0
4, 31824, Note_on_c, 1, 50, 83
4, 31844, Note_on_c, 1, 50, 0
4, 31872, Note_on_c, 1, 49, 84
4, 31961, Note_on_c, 1, 49, 0
4, 31968, Note_on_c, 1, 50, 86
4, 31968, Note_on_c, 1, 38, 86
4, 32057, Note_on_c, 1, 50, 0
4, 32057, Note_on_c, 1, 38, 0
4, 32064, Note_on_c, 1, 54, 86
4, 32084, Note_on_c, 1, 54, 0
4, 32112, Note_on_c, 1, 55, 86
4, 32132, Note_on_c, 1, 55, 0
4, 32160, Note_on_c, 1, 57, 86
4, 32180, Note_on_c, 1, 57, 0
4, 32256, Note_on_c, 1, 50, 86
4, 32256, Note_on_c, 1, 38, 86
4, 32345, Note_on_c, 1, 50, 0
4, 32345, Note_on_c, 1, 38, 0
4, 32352, Note_on_c, 1, 55, 86
4, 32372, Note_on_c, 1, 55, 0
4, 32400, Note_on_c, 1, 57, 86
4, 32420, Note_on_c, 1, 57, 0
4, 32448, Note_on_c, 1, 58, 86
4, 32468, Note_on_c, 1, 58, 0
4, 32544, Note_on_c, 1, 38, 86
4, 32564, Note_on_c, 1, 38, 0
4, 32592, Note_on_c, 1, 40, 86
4, 32612, Note_on_c, 1, 40, 0
4, 32640, Note_on_c, 1, 42, 86
4, 32679, Note_on_c, 1, 42, 0
4, 32832, Note_on_c, 1, 43, 86
4, 32852, Note_on_c, 1, 43, 0
4, 32880, Note_on_c, 1, 45, 86
4, 32900, Note_on_c, 1, 45, 0
4, 32928, Note_on_c, 1, 46, 86
4, 32967, Note_on_c, 1, 46, 0
4, 33120, Note_on_c, 1, 50, 86
4, 33140, Note_on_c, 1, 50, 0
4, 33168, Note_on_c, 1, 52, 86
4, 33188, Note_on_c, 1, 52, 0
4, 33216, Note_on_c, 1, 54, 86
4, 33255, Note_on_c, 1, 54, 0
4, 33408, Note_on_c, 1, 55, 86
4, 33428, Note_on_c, 1, 55, 0
4, 33456, Note_on_c, 1, 57, 86
4, 33476, Note_on_c, 1, 57, 0
4, 33504, Note_on_c, 1, 58, 86
4, 33543, Note_on_c, 1, 58, 0
4, 33696, Note_on_c, 1, 62, 86
4, 33716, Note_on_c, 1, 62, 0
4, 33744, Note_on_c, 1, 64, 86
4, 33764, Note_on_c, 1, 64, 0
4, 33792, Note_on_c, 1, 66, 86
4, 33831, Note_on_c, 1, 66, 0
4, 33984, Note_on_c, 1, 67, 86
4, 34023, Note_on_c, 1, 67, 0
4, 34080, Note_on_c, 1, 69, 86
4, 34119, Note_on_c, 1, 69, 0
4, 34176, Note_on_c, 1, 70, 86
4, 34215, Note_on_c, 1, 70, 0
4, 34272, Note_on_c, 1, 67, 86
4, 34361, Note_on_c, 1, 67, 0
4, 34368, Note_on_c, 1, 67, 86
4, 34457, Note_on_c, 1, 67, 0
4, 34464, Note_on_c, 1, 66, 86
4, 34553, Note_on_c, 1, 66, 0
4, 34896, Note_on_c, 1, 66, 86
4, 34944, Note_on_c, 1, 66, 0
4, 34944, Note_on_c, 1, 67, 86
4, 34983, Note_on_c, 1, 67, 0
4, 35184, Note_on_c, 1, 54, 86
4, 35232, Note_on_c, 1, 54, 0
4, 35232, Note_on_c, 1, 55, 86
4, 35271, Note_on_c, 1, 55, 0
4, 35472, Note_on_c, 1, 42, 86
4, 35520, Note_on_c, 1, 42, 0
4, 35520, Note_on_c, 1, 43, 86
4, 35559, Note_on_c, 1, 43, 0
4, 35760, Note_on_c, 1, 30, 86
4, 35808, Note_on_c, 1, 30, 0
4, 35808, Note_on_c, 1, 31, 86
4, 35847, Note_on_c, 1, 31, 0
4, 36000, Note_on_c, 1, 63, 86
4, 36000, Note_on_c, 1, 60, 86
4, 36039, Note_on_c, 1, 63, 0
4, 36039, Note_on_c, 1, 60, 0
4, 36096, Note_on_c, 1, 65, 86
4, 36096, Note_on_c, 1, 62, 86
4, 36135, Note_on_c, 1, 65, 0
4, 36135, Note_on_c, 1, 62, 0
4, 36288, Note_on_c, 1, 65, 86
4, 36288, Note_on_c, 1, 62, 86
4, 36327, Note_on_c, 1, 65, 0
4, 36327, Note_on_c, 1, 62, 0
4, 36384, Note_on_c, 1, 67, 86
4, 36384, Note_on_c, 1, 63, 86
4, 36423, Note_on_c, 1, 67, 0
4, 36423, Note_on_c, 1, 63, 0
4, 36576, Note_on_c, 1, 67, 86
4, 36576, Note_on_c, 1, 63, 86
4, 36665, Note_on_c, 1, 67, 0
4, 36665, Note_on_c, 1, 63, 0
4, 36672, Note_on_c, 1, 65, 86
4, 36672, Note_on_c, 1, 62, 86
4, 36761, Note_on_c, 1, 65, 0
4, 36761, Note_on_c, 1, 62, 0
4, 36768, Note_on_c, 1, 63, 86
4, 36768, Note_on_c, 1, 60, 86
4, 36857, Note_on_c, 1, 63, 0
4, 36857, Note_on_c, 1, 60, 0
4, 36864, Note_on_c, 1, 62, 86
4, 36864, Note_on_c, 1, 59, 86
4, 36960, Note_on_c, 1, 62, 0
4, 36960, Note_on_c, 1, 55, 86
4, 37049, Note_on_c, 1, 59, 0
4, 37049, Note_on_c, 1, 55, 0
4, 37056, Note_on_c, 1, 67, 86
4, 37056, Note_on_c, 1, 59, 86
4, 37095, Note_on_c, 1, 67, 0
4, 37095, Note_on_c, 1, 59, 0
4, 37152, Note_on_c, 1, 67, 86
4, 37152, Note_on_c, 1, 60, 86
4, 37191, Note_on_c, 1, 67, 0
4, 37191, Note_on_c, 1, 60, 0
4, 37344, Note_on_c, 1, 66, 86
4, 37344, Note_on_c, 1, 56, 86
4, 37433, Note_on_c, 1, 66, 0
4, 37433, Note_on_c, 1, 56, 0
4, 37440, Note_on_c, 1, 67, 86
4, 37440, Note_on_c, 1, 55, 86
4, 37529, Note_on_c, 1, 67, 0
4, 37529, Note_on_c, 1, 55, 0
4, 37584, Note_on_c, 1, 53, 86
4, 37629, Note_on_c, 1, 53, 0
4, 37632, Note_on_c, 1, 51, 86
4, 37677, Note_on_c, 1, 51, 0
4, 37680, Note_on_c, 1, 50, 86
4, 37725, Note_on_c, 1, 50, 0
4, 37728, Note_on_c, 1, 48, 86
4, 37817, Note_on_c, 1, 48, 0
4, 38016, Note_on_c, 1, 50, 71
4, 38281, Note_on_c, 1, 50, 0
4, 38304, Note_on_c, 1, 55, 71
4, 38569, Note_on_c, 1, 55, 0
4, 38592, Note_on_c, 1, 48, 71
4, 38857, Note_on_c, 1, 48, 0
4, 38880, Note_on_c, 1, 41, 78
4, 39057, Note_on_c, 1, 41, 0
4, 39072, Note_on_c, 1, 42, 83
4, 39161, Note_on_c, 1, 42, 0
4, 39168, Note_on_c, 1, 43, 86
4, 39168, Note_on_c, 1, 31, 86
4, 39257, Note_on_c, 1, 43, 0
4, 39257, Note_on_c, 1, 31, 0
4, 39264, Note_on_c, 1, 59, 86
4, 39284, Note_on_c, 1, 59, 0
4, 39312, Note_on_c, 1, 60, 86
4, 39332, Note_on_c, 1, 60, 0
4, 39360, Note_on_c, 1, 62, 86
4, 39380, Note_on_c, 1, 62, 0
4, 39456, Note_on_c, 1, 43, 86
4, 39456, Note_on_c, 1, 31, 86
4, 39545, Note_on_c, 1, 43, 0
4, 39545, Note_on_c, 1, 31, 0
4, 39552, Note_on_c, 1, 60, 86
4, 39572, Note_on_c, 1, 60, 0
4, 39600, Note_on_c, 1, 62, 86
4, 39620, Note_on_c, 1, 62, 0
4, 39648, Note_on_c, 1, 63, 86
4, 39668, Note_on_c, 1, 63, 0
4, 39744, Note_on_c, 1, 55, 86
4, 39764, Note_on_c, 1, 55, 0
4, 39792, Note_on_c, 1, 57, 86
4, 39812, Note_on_c, 1, 57, 0
4, 39840, Note_on_c, 1, 59, 86
4, 39879, Note_on_c, 1, 59, 0
4, 40032, Note_on_c, 1, 60, 86
4, 40052, Note_on_c, 1, 60, 0
4, 40080, Note_on_c, 1, 62, 86
4, 40100, Note_on_c, 1, 62, 0
4, 40128, Note_on_c, 1, 63, 86
4, 40167, Note_on_c, 1, 63, 0
4, 40320, Note_on_c, 1, 67, 86
4, 40340, Note_on_c, 1, 67, 0
4, 40368, Note_on_c, 1, 69, 86
4, 40388, Note_on_c, 1, 69, 0
4, 40416, Note_on_c, 1, 71, 86
4, 40455, Note_on_c, 1, 71, 0
4, 40608, Note_on_c, 1, 72, 86
4, 40628, Note_on_c, 1, 72, 0
4, 40656, Note_on_c, 1, 74, 86
4, 40676, Note_on_c, 1, 74, 0
4, 40704, Note_on_c, 1, 75, 86
4, 40743, Note_on_c, 1, 75, 0
4, 41016, Note_on_c, 1, 77, 86
4, 41039, Note_on_c, 1, 77, 0
4, 41040, Note_on_c, 1, 75, 86
4, 41063, Note_on_c, 1, 75, 0
4, 41064, Note_on_c, 1, 74, 86
4, 41087, Note_on_c, 1, 74, 0
4, 41088, Note_on_c, 1, 72, 86
4, 41111, Note_on_c, 1, 72, 0
4, 41112, Note_on_c, 1, 71, 86
4, 41135, Note_on_c, 1, 71, 0
4, 41136, Note_on_c, 1, 69, 86
4, 41159, Note_on_c, 1, 69, 0
4, 41160, Note_on_c, 1, 67, 86
4, 41183, Note_on_c, 1, 67, 0
4, 41184, Note_on_c, 1, 72, 86
4, 41273, Note_on_c, 1, 72, 0
4, 41280, Note_on_c, 1, 70, 86
4, 41369, Note_on_c, 1, 70, 0
4, 41376, Note_on_c, 1, 68, 86
4, 41465, Note_on_c, 1, 68, 0
4, 41472, Note_on_c, 1, 67, 86
4, 41561, Note_on_c, 1, 67, 0
4, 41592, Note_on_c, 1, 77, 86
4, 41615, Note_on_c, 1, 77, 0
4, 41616, Note_on_c, 1, 75, 86
4, 41639, Note_on_c, 1, 75, 0
4, 41640, Note_on_c, 1, 74, 86
4, 41663, Note_on_c, 1, 74, 0
4, 41664, Note_on_c, 1, 72, 86
4, 41687, Note_on_c, 1, 72, 0
4, 41688, Note_on_c, 1, 71, 86
4, 41711, Note_on_c, 1, 71, 0
4, 41712, Note_on_c, 1, 69, 86
4, 41735, Note_on_c, 1, 69, 0
4, 41736, Note_on_c, 1, 67, 86
4, 41759, Note_on_c, 1, 67, 0
4, 41760, Note_on_c, 1, 72, 86
4, 41849, Note_on_c, 1, 72, 0
4, 41856, Note_on_c, 1, 70, 86
4, 41945, Note_on_c, 1, 70, 0
4, 41952, Note_on_c, 1, 68, 86
4, 42041, Note_on_c, 1, 68, 0
4, 42048, Note_on_c, 1, 67, 86
4, 42137, Note_on_c, 1, 67, 0
4, 42168, Note_on_c, 1, 77, 86
4, 42191, Note_on_c, 1, 77, 0
4, 42192, Note_on_c, 1, 75, 86
4, 42215, Note_on_c, 1, 75, 0
4, 42216, Note_on_c, 1, 74, 86
4, 42239, Note_on_c, 1, 74, 0
4, 42240, Note_on_c, 1, 72, 86
4, 42263, Note_on_c, 1, 72, 0
4, 42264, Note_on_c, 1, 71, 86
4, 42287, Note_on_c, 1, 71, 0
4, 42288, Note_on_c, 1, 69, 86
4, 42311, Note_on_c, 1, 69, 0
4, 42312, Note_on_c, 1, 67, 86
4, 42335, Note_on_c, 1, 67, 0
4, 42336, Note_on_c, 1, 72, 86
4, 42425, Note_on_c, 1, 72, 0
4, 42456, Note_on_c, 1, 70, 86
4, 42479, Note_on_c, 1, 70, 0
4, 42480, Note_on_c, 1, 68, 86
4, 42503, Note_on_c, 1, 68, 0
4, 42504, Note_on_c, 1, 67, 86
4, 42527, Note_on_c, 1, 67, 0
4, 42528, Note_on_c, 1, 65, 86
4, 42551, Note_on_c, 1, 65, 0
4, 42552, Note_on_c, 1, 63, 86
4, 42575, Note_on_c, 1, 63, 0
4, 42576, Note_on_c, 1, 62, 86
4, 42599, Note_on_c, 1, 62, 0
4, 42600, Note_on_c, 1, 60, 86
4, 42623, Note_on_c, 1, 60, 0
4, 42624, Note_on_c, 1, 65, 86
4, 42713, Note_on_c, 1, 65, 0
4, 42720, Note_on_c, 1, 63, 86
4, 42809, Note_on_c, 1, 63, 0
4, 42816, Note_on_c, 1, 62, 86
4, 42905, Note_on_c, 1, 62, 0
4, 42912, Note_on_c, 1, 60, 86
4, 43001, Note_on_c, 1, 60, 0
4, 43032, Note_on_c, 1, 70, 86
4, 43055, Note_on_c, 1, 70, 0
4, 43056, Note_on_c, 1, 68, 86
4, 43079, Note_on_c, 1, 68, 0
4, 43080, Note_on_c, 1, 67, 86
4, 43103, Note_on_c, 1, 67, 0
4, 43104, Note_on_c, 1, 65, 86
4, 43127, Note_on_c, 1, 65, 0
4, 43128, Note_on_c, 1, 63, 86
4, 43151, Note_on_c, 1, 63, 0
4, 43152, Note_on_c, 1, 62, 86
4, 43175, Note_on_c, 1, 62, 0
4, 43176, Note_on_c, 1, 60, 86
4, 43199, Note_on_c, 1, 60, 0
4, 43200, Note_on_c, 1, 65, 86
4, 43289, Note_on_c, 1, 65, 0
4, 43296, Note_on_c, 1, 63, 86
4, 43385, Note_on_c, 1, 63, 0
4, 43488, Note_on_c, 1, 68, 86
4, 43577, Note_on_c, 1, 68, 0
4, 43584, Note_on_c, 1, 67, 86
4, 43673, Note_on_c, 1, 67, 0
4, 43776, Note_on_c, 1, 65, 86
4, 43865, Note_on_c, 1, 65, 0
4, 43872, Note_on_c, 1, 63, 86
4, 43961, Note_on_c, 1, 63, 0
4, 44064, Note_on_c, 1, 62, 97
4, 44064, Note_on_c, 1, 50, 97
4, 44153, Note_on_c, 1, 62, 0
4, 44153, Note_on_c, 1, 50, 0
4, 44160, Note_on_c, 1, 87, 102
4, 44256, Note_on_c, 1, 87, 0
4, 44256, Note_on_c, 1, 81, 86
4, 44295, Note_on_c, 1, 81, 0
4, 44352, Note_on_c, 1, 67, 97
4, 44352, Note_on_c, 1, 55, 97
4, 44441, Note_on_c, 1, 67, 0
4, 44441, Note_on_c, 1, 55, 0
4, 44448, Note_on_c, 1, 86, 102
4, 44544, Note_on_c, 1, 86, 0
4, 44544, Note_on_c, 1, 79, 86
4, 44583, Note_on_c, 1, 79, 0
4, 44640, Note_on_c, 1, 60, 97
4, 44640, Note_on_c, 1, 48, 97
4, 44729, Note_on_c, 1, 60, 0
4, 44729, Note_on_c, 1, 48, 0
4, 44736, Note_on_c, 1, 85, 102
4, 44832, Note_on_c, 1, 85, 0
4, 44832, Note_on_c, 1, 79, 86
4, 44871, Note_on_c, 1, 79, 0
4, 44928, Note_on_c, 1, 65, 97
4, 44928, Note_on_c, 1, 53, 97
4, 45017, Note_on_c, 1, 65, 0
4, 45017, Note_on_c, 1, 53, 0
4, 45024, Note_on_c, 1, 84, 102
4, 45120, Note_on_c, 1, 84, 0
4, 45120, Note_on_c, 1, 77, 86
4, 45159, Note_on_c, 1, 77, 0
4, 45216, Note_on_c, 1, 58, 97
4, 45216, Note_on_c, 1, 46, 97
4, 45305, Note_on_c, 1, 58, 0
4, 45305, Note_on_c, 1, 46, 0
4, 45312, Note_on_c, 1, 89, 102
4, 45408, Note_on_c, 1, 89, 0
4, 45408, Note_on_c, 1, 82, 86
4, 45447, Note_on_c, 1, 82, 0
4, 45504, Note_on_c, 1, 63, 97
4, 45504, Note_on_c, 1, 51, 97
4, 45593, Note_on_c, 1, 63, 0
4, 45593, Note_on_c, 1, 51, 0
4, 45600, Note_on_c, 1, 82, 102
4, 45696, Note_on_c, 1, 82, 0
4, 45696, Note_on_c, 1, 75, 86
4, 45735, Note_on_c, 1, 75, 0
4, 45792, Note_on_c, 1, 56, 86
4, 45792, Note_on_c, 1, 44, 86
4, 45881, Note_on_c, 1, 56, 0
4, 45881, Note_on_c, 1, 44, 0
4, 45888, Note_on_c, 1, 87, 102
4, 45984, Note_on_c, 1, 87, 0
4, 45984, Note_on_c, 1, 80, 86
4, 46023, Note_on_c, 1, 80, 0
4, 46080, Note_on_c, 1, 62, 97
4, 46080, Note_on_c, 1, 50, 97
4, 46169, Note_on_c, 1, 62, 0
4, 46169, Note_on_c, 1, 50, 0
4, 46176, Note_on_c, 1, 80, 102
4, 46272, Note_on_c, 1, 80, 0
4, 46272, Note_on_c, 1, 74, 86
4, 46311, Note_on_c, 1, 74, 0
4, 46368, Note_on_c, 1, 55, 97
4, 46368, Note_on_c, 1, 43, 97
4, 46457, Note_on_c, 1, 55, 0
4, 46457, Note_on_c, 1, 43, 0
4, 46464, Note_on_c, 1, 86, 102
4, 46560, Note_on_c, 1, 86, 0
4, 46560, Note_on_c, 1, 79, 86
4, 46599, Note_on_c, 1, 79, 0
4, 46656, Note_on_c, 1, 55, 97
4, 46656, Note_on_c, 1, 43, 97
4, 46745, Note_on_c, 1, 55, 0
4, 46745, Note_on_c, 1, 43, 0
4, 46752, Note_on_c, 1, 79, 102
4, 46848, Note_on_c, 1, 79, 0
4, 46848, Note_on_c, 1, 75, 86
4, 46887, Note_on_c, 1, 75, 0
4, 46944, Note_on_c, 1, 56, 97
4, 46944, Note_on_c, 1, 44, 97
4, 47033, Note_on_c, 1, 56, 0
4, 47033, Note_on_c, 1, 44, 0
4, 47040, Note_on_c, 1, 84, 102
4, 47136, Note_on_c, 1, 84, 0
4, 47136, Note_on_c, 1, 87, 86
4, 47225, Note_on_c, 1, 87, 0
4, 47232, Note_on_c, 1, 87, 102
4, 47328, Note_on_c, 1, 87, 0
4, 47328, Note_on_c, 1, 86, 86
4, 47417, Note_on_c, 1, 86, 0
4, 47424, Note_on_c, 1, 84, 86
4, 47513, Note_on_c, 1, 84, 0
4, 47520, Note_on_c, 1, 83, 86
4, 47609, Note_on_c, 1, 83, 0
4, 47640, Note_on_c, 1, 55, 86
4, 47663, Note_on_c, 1, 55, 0
4, 47664, Note_on_c, 1, 50, 86
4, 47687, Note_on_c, 1, 50, 0
4, 47688, Note_on_c, 1, 47, 86
4, 47711, Note_on_c, 1, 47, 0
4, 47712, Note_on_c, 1, 43, 86
4, 47801, Note_on_c, 1, 43, 0
4, 48096, Note_on_c, 1, 51, 71
4, 48096, Note_on_c, 1, 48, 71
4, 48135, Note_on_c, 1, 51, 0
4, 48135, Note_on_c, 1, 48, 0
4, 48192, Note_on_c, 1, 53, 71
4, 48192, Note_on_c, 1, 50, 71
4, 48231, Note_on_c, 1, 53, 0
4, 48231, Note_on_c, 1, 50, 0
4, 48384, Note_on_c, 1, 53, 71
4, 48384, Note_on_c, 1, 50, 71
4, 48423, Note_on_c, 1, 53, 0
4, 48423, Note_on_c, 1, 50, 0
4, 48480, Note_on_c, 1, 55, 71
4, 48480, Note_on_c, 1, 51, 71
4, 48519, Note_on_c, 1, 55, 0
4, 48519, Note_on_c, 1, 51, 0
4, 48768, Note_on_c, 1, 65, 71
4, 48768, Note_on_c, 1, 62, 71
4, 48857, Note_on_c, 1, 65, 0
4, 48857, Note_on_c, 1, 62, 0
4, 49056, Note_on_c, 1, 67, 71
4, 49056, Note_on_c, 1, 63, 71
4, 49145, Note_on_c, 1, 67, 0
4, 49145, Note_on_c, 1, 63, 0
4, 49152, Note_on_c, 1, 67, 71
4, 49152, Note_on_c, 1, 63, 71
4, 49241, Note_on_c, 1, 67, 0
4, 49241, Note_on_c, 1, 63, 0
4, 49248, Note_on_c, 1, 65, 71
4, 49248, Note_on_c, 1, 62, 71
4, 49337, Note_on_c, 1, 65, 0
4, 49337, Note_on_c, 1, 62, 0
4, 49344, Note_on_c, 1, 63, 71
4, 49344, Note_on_c, 1, 60, 71
4, 49433, Note_on_c, 1, 63, 0
4, 49433, Note_on_c, 1, 60, 0
4, 49440, Note_on_c, 1, 62, 71
4, 49440, Note_on_c, 1, 58, 71
4, 49529, Note_on_c, 1, 62, 0
4, 49529, Note_on_c, 1, 58, 0
4, 49536, Note_on_c, 1, 60, 71
4, 49536, Note_on_c, 1, 56, 71
4, 49625, Note_on_c, 1, 60, 0
4, 49625, Note_on_c, 1, 56, 0
4, 49632, Note_on_c, 1, 58, 71
4, 49632, Note_on_c, 1, 55, 71
4, 49721, Note_on_c, 1, 58, 0
4, 49721, Note_on_c, 1, 55, 0
4, 49728, Note_on_c, 1, 56, 72
4, 49728, Note_on_c, 1, 53, 72
4, 49817, Note_on_c, 1, 56, 0
4, 49817, Note_on_c, 1, 53, 0
4, 49824, Note_on_c, 1, 55, 73
4, 49824, Note_on_c, 1, 51, 73
4, 49913, Note_on_c, 1, 55, 0
4, 49913, Note_on_c, 1, 51, 0
4, 49920, Note_on_c, 1, 53, 74
4, 49920, Note_on_c, 1, 50, 74
4, 50009, Note_on_c, 1, 53, 0
4, 50009, Note_on_c, 1, 50, 0
4, 50016, Note_on_c, 1, 51, 75
4, 50016, Note_on_c, 1, 48, 75
4, 50105, Note_on_c, 1, 51, 0
4, 50105, Note_on_c, 1, 48, 0
4, 50112, Note_on_c, 1, 50, 76
4, 50112, Note_on_c, 1, 47, 76
4, 50201, Note_on_c, 1, 50, 0
4, 50201, Note_on_c, 1, 47, 0
4, 50208, Note_on_c, 1, 62, 77
4, 50208, Note_on_c, 1, 59, 77
4, 50297, Note_on_c, 1, 62, 0
4, 50297, Note_on_c, 1, 59, 0
4, 50400, Note_on_c, 1, 56, 78
4, 50439, Note_on_c, 1, 56, 0
4, 50496, Note_on_c, 1, 55, 78
4, 50535, Note_on_c, 1, 55, 0
4, 50592, Note_on_c, 1, 53, 78
4, 50631, Note_on_c, 1, 53, 0
4, 50688, Note_on_c, 1, 51, 78
4, 50727, Note_on_c, 1, 51, 0
4, 50784, Note_on_c, 1, 50, 78
4, 50823, Note_on_c, 1, 50, 0
4, 50880, Note_on_c, 1, 48, 78
4, 50919, Note_on_c, 1, 48, 0
4, 50976, Note_on_c, 1, 68, 78
4, 51065, Note_on_c, 1, 68, 0
4, 51072, Note_on_c, 1, 67, 78
4, 51161, Note_on_c, 1, 67, 0
4, 51168, Note_on_c, 1, 72, 78
4, 51257, Note_on_c, 1, 72, 0
4, 51264, Note_on_c, 1, 70, 78
4, 51353, Note_on_c, 1, 70, 0
4, 51360, Note_on_c, 1, 68, 80
4, 51449, Note_on_c, 1, 68, 0
4, 51456, Note_on_c, 1, 67, 83
4, 51545, Note_on_c, 1, 67, 0
4, 51552, Note_on_c, 1, 42, 86
4, 51591, Note_on_c, 1, 42, 0
4, 51648, Note_on_c, 1, 54, 86
4, 51687, Note_on_c, 1, 54, 0
4, 51840, Note_on_c, 1, 41, 86
4, 51879, Note_on_c, 1, 41, 0
4, 51936, Note_on_c, 1, 53, 86
4, 51975, Note_on_c, 1, 53, 0
4, 52128, Note_on_c, 1, 51, 86
4, 52217, Note_on_c, 1, 51, 0
4, 52368, Note_on_c, 1, 48, 86
4, 52413, Note_on_c, 1, 48, 0
4, 52416, Note_on_c, 1, 53, 86
4, 52505, Note_on_c, 1, 53, 0
4, 52512, Note_on_c, 1, 55, 83
4, 52601, Note_on_c, 1, 55, 0
4, 52608, Note_on_c, 1, 43, 80
4, 52697, Note_on_c, 1, 43, 0
4, 52704, Note_on_c, 1, 44, 78
4, 52749, Note_on_c, 1, 44, 0
4, 52752, Note_on_c, 1, 56, 78
4, 52797, Note_on_c, 1, 56, 0
4, 52800, Note_on_c, 1, 43, 78
4, 52845, Note_on_c, 1, 43, 0
4, 52848, Note_on_c, 1, 55, 78
4, 52893, Note_on_c, 1, 55, 0
4, 52896, Note_on_c, 1, 41, 78
4, 52941, Note_on_c, 1, 41, 0
4, 52944, Note_on_c, 1, 53, 78
4, 52989, Note_on_c, 1, 53, 0
4, 52992, Note_on_c, 1, 39, 78
4, 53037, Note_on_c, 1, 39, 0
4, 53040, Note_on_c, 1, 51, 78
4, 53085, Note_on_c, 1, 51, 0
4, 53088, Note_on_c, 1, 38, 78
4, 53133, Note_on_c, 1, 38, 0
4, 53136, Note_on_c, 1, 50, 78
4, 53181, Note_on_c, 1, 50, 0
4, 53184, Note_on_c, 1, 36, 78
4, 53229, Note_on_c, 1, 36, 0
4, 53232, Note_on_c, 1, 48, 78
4, 53277, Note_on_c, 1, 48, 0
4, 53280, Note_on_c, 1, 41, 78
4, 53369, Note_on_c, 1, 41, 0
4, 54480, Note_on_c, 1, 56, 78
4, 54480, Note_on_c, 1, 53, 78
4, 54527, Note_on_c, 1, 56, 0
4, 54527, Note_on_c, 1, 53, 0
4, 54528, Note_on_c, 1, 56, 78
4, 54528, Note_on_c, 1, 53, 78
4, 54575, Note_on_c, 1, 56, 0
4, 54575, Note_on_c, 1, 53, 0
4, 54576, Note_on_c, 1, 56, 78
4, 54576, Note_on_c, 1, 53, 78
4, 54623, Note_on_c, 1, 56, 0
4, 54623, Note_on_c, 1, 53, 0
4, 54624, Note_on_c, 1, 56, 78
4, 54624, Note_on_c, 1, 53, 78
4, 54671, Note_on_c, 1, 56, 0
4, 54671, Note_on_c, 1, 53, 0
4, 54672, Note_on_c, 1, 56, 78
4, 54672, Note_on_c, 1, 53, 78
4, 54719, Note_on_c, 1, 56, 0
4, 54719, Note_on_c, 1, 53, 0
4, 54768, Note_on_c, 1, 42, 78
4, 54813, Note_on_c, 1, 42, 0
4, 54816, Note_on_c, 1, 43, 78
4, 54861, Note_on_c, 1, 43, 0
4, 54864, Note_on_c, 1, 42, 78
4, 54909, Note_on_c, 1, 42, 0
4, 54912, Note_on_c, 1, 43, 78
4, 54957, Note_on_c, 1, 43, 0
4, 54960, Note_on_c, 1, 42, 78
4, 55005, Note_on_c, 1, 42, 0
4, 55008, Note_on_c, 1, 43, 78
4, 55273, Note_on_c, 1, 43, 0
4, 55344, Note_on_c, 1, 51, 78
4, 55389, Note_on_c, 1, 51, 0
4, 55392, Note_on_c, 1, 53, 78
4, 55437, Note_on_c, 1, 53, 0
4, 55440, Note_on_c, 1, 51, 79
4, 55485, Note_on_c, 1, 51, 0
4, 55488, Note_on_c, 1, 53, 80
4, 55533, Note_on_c, 1, 53, 0
4, 55536, Note_on_c, 1, 51, 80
4, 55581, Note_on_c, 1, 51, 0
4, 55584, Note_on_c, 1, 53, 81
4, 55629, Note_on_c, 1, 53, 0
4, 55632, Note_on_c, 1, 55, 82
4, 55677, Note_on_c, 1, 55, 0
4, 55680, Note_on_c, 1, 56, 83
4, 55725, Note_on_c, 1, 56, 0
4, 55728, Note_on_c, 1, 55, 83
4, 55773, Note_on_c, 1, 55, 0
4, 55776, Note_on_c, 1, 56, 84
4, 55821, Note_on_c, 1, 56, 0
4, 55824, Note_on_c, 1, 55, 85
4, 55869, Note_on_c, 1, 55, 0
4, 55872, Note_on_c, 1, 56, 86
4, 55917, Note_on_c, 1, 56, 0
4, 55920, Note_on_c, 1, 54, 85
4, 55965, Note_on_c, 1, 54, 0
4, 55968, Note_on_c, 1, 55, 84
4, 56013, Note_on_c, 1, 55, 0
4, 56016, Note_on_c, 1, 54, 84
4, 56061, Note_on_c, 1, 54, 0
4, 56064, Note_on_c, 1, 55, 83
4, 56109, Note_on_c, 1, 55, 0
4, 56112, Note_on_c, 1, 54, 82
4, 56157, Note_on_c, 1, 54, 0
4, 56160, Note_on_c, 1, 55, 82
4, 56205, Note_on_c, 1, 55, 0
4, 56208, Note_on_c, 1, 52, 81
4, 56253, Note_on_c, 1, 52, 0
4, 56256, Note_on_c, 1, 53, 80
4, 56301, Note_on_c, 1, 53, 0
4, 56304, Note_on_c, 1, 52, 80
4, 56349, Note_on_c, 1, 52, 0
4, 56352, Note_on_c, 1, 53, 79
4, 56397, Note_on_c, 1, 53, 0
4, 56400, Note_on_c, 1, 52, 78
4, 56445, Note_on_c, 1, 52, 0
4, 56448, Note_on_c, 1, 53, 78
4, 56537, Note_on_c, 1, 53, 0
4, 56544, Note_on_c, 1, 55, 86
4, 56589, Note_on_c, 1, 55, 0
4, 56592, Note_on_c, 1, 53, 86
4, 56637, Note_on_c, 1, 53, 0
4, 56640, Note_on_c, 1, 51, 86
4, 56685, Note_on_c, 1, 51, 0
4, 56688, Note_on_c, 1, 50, 86
4, 56733, Note_on_c, 1, 50, 0
4, 56736, Note_on_c, 1, 53, 86
4, 56736, Note_on_c, 1, 50, 86
4, 57024, Note_on_c, 1, 53, 0
4, 57024, Note_on_c, 1, 50, 0
4, 57024, Note_on_c, 1, 55, 86
4, 57024, Note_on_c, 1, 51, 86
4, 57113, Note_on_c, 1, 55, 0
4, 57113, Note_on_c, 1, 51, 0
4, 57312, Note_on_c, 1, 67, 78
4, 57312, Note_on_c, 1, 63, 78
4, 57351, Note_on_c, 1, 67, 0
4, 57351, Note_on_c, 1, 63, 0
4, 57408, Note_on_c, 1, 68, 78
4, 57408, Note_on_c, 1, 65, 78
4, 57447, Note_on_c, 1, 68, 0
4, 57447, Note_on_c, 1, 65, 0
4, 57600, Note_on_c, 1, 68, 78
4, 57600, Note_on_c, 1, 65, 78
4, 57639, Note_on_c, 1, 68, 0
4, 57639, Note_on_c, 1, 65, 0
4, 57696, Note_on_c, 1, 70, 78
4, 57696, Note_on_c, 1, 67, 78
4, 57735, Note_on_c, 1, 70, 0
4, 57735, Note_on_c, 1, 67, 0
4, 57888, Note_on_c, 1, 70, 78
4, 57888, Note_on_c, 1, 67, 78
4, 57977, Note_on_c, 1, 70, 0
4, 57977, Note_on_c, 1, 67, 0
4, 57984, Note_on_c, 1, 68, 78
4, 57984, Note_on_c, 1, 65, 78
4, 58073, Note_on_c, 1, 68, 0
4, 58073, Note_on_c, 1, 65, 0
4, 58080, Note_on_c, 1, 67, 78
4, 58080, Note_on_c, 1, 63, 78
4, 58169, Note_on_c, 1, 67, 0
4, 58169, Note_on_c, 1, 63, 0
4, 58176, Note_on_c, 1, 65, 78
4, 58176, Note_on_c, 1, 62, 78
4, 58272, Note_on_c, 1, 65, 0
4, 58272, Note_on_c, 1, 58, 78
4, 58361, Note_on_c, 1, 62, 0
4, 58361, Note_on_c, 1, 58, 0
4, 58368, Note_on_c, 1, 70, 78
4, 58368, Note_on_c, 1, 62, 78
4, 58407, Note_on_c, 1, 70, 0
4, 58407, Note_on_c, 1, 62, 0
4, 58464, Note_on_c, 1, 70, 78
4, 58464, Note_on_c, 1, 63, 78
4, 58503, Note_on_c, 1, 70, 0
4, 58503, Note_on_c, 1, 63, 0
4, 58656, Note_on_c, 1, 69, 78
4, 58656, Note_on_c, 1, 60, 78
4, 58745, Note_on_c, 1, 69, 0
4, 58745, Note_on_c, 1, 60, 0
4, 58752, Note_on_c, 1, 72, 78
4, 58752, Note_on_c, 1, 58, 78
4, 58841, Note_on_c, 1, 72, 0
4, 58841, Note_on_c, 1, 58, 0
4, 59424, Note_on_c, 1, 58, 78
4, 59424, Note_on_c, 1, 55, 78
4, 59463, Note_on_c, 1, 58, 0
4, 59463, Note_on_c, 1, 55, 0
4, 59712, Note_on_c, 1, 60, 78
4, 59712, Note_on_c, 1, 56, 78
4, 59801, Note_on_c, 1, 60, 0
4, 59801, Note_on_c, 1, 56, 0
4, 60240, Note_on_c, 1, 68, 78
4, 60288, Note_on_c, 1, 68, 0
4, 60288, Note_on_c, 1, 67, 76
4, 60333, Note_on_c, 1, 67, 0
4, 60336, Note_on_c, 1, 65, 74
4, 60356, Note_on_c, 1, 65, 0
4, 60384, Note_on_c, 1, 63, 72
4, 60404, Note_on_c, 1, 63, 0
4, 60432, Note_on_c, 1, 62, 71
4, 60452, Note_on_c, 1, 62, 0
4, 60480, Note_on_c, 1, 60, 72
4, 60528, Note_on_c, 1, 60, 0
4, 60528, Note_on_c, 1, 62, 74
4, 60573, Note_on_c, 1, 62, 0
4, 60576, Note_on_c, 1, 63, 76
4, 60596, Note_on_c, 1, 63, 0
4, 60816, Note_on_c, 1, 67, 78
4, 60864, Note_on_c, 1, 67, 0
4, 60864, Note_on_c, 1, 65, 76
4, 60909, Note_on_c, 1, 65, 0
4, 60912, Note_on_c, 1, 63, 74
4, 60932, Note_on_c, 1, 63, 0
4, 60960, Note_on_c, 1, 62, 72
4, 60980, Note_on_c, 1, 62, 0
4, 61008, Note_on_c, 1, 60, 71
4, 61028, Note_on_c, 1, 60, 0
4, 61056, Note_on_c, 1, 58, 72
4, 61104, Note_on_c, 1, 58, 0
4, 61104, Note_on_c, 1, 60, 74
4, 61149, Note_on_c, 1, 60, 0
4, 61152, Note_on_c, 1, 62, 76
4, 61172, Note_on_c, 1, 62, 0
4, 61392, Note_on_c, 1, 65, 78
4, 61440, Note_on_c, 1, 65, 0
4, 61440, Note_on_c, 1, 63, 76
4, 61485, Note_on_c, 1, 63, 0
4, 61488, Note_on_c, 1, 62, 74
4, 61508, Note_on_c, 1, 62, 0
4, 61536, Note_on_c, 1, 60, 72
4, 61556, Note_on_c, 1, 60, 0
4, 61584, Note_on_c, 1, 58, 71
4, 61604, Note_on_c, 1, 58, 0
4, 61632, Note_on_c, 1, 57, 72
4, 61680, Note_on_c, 1, 57, 0
4, 61680, Note_on_c, 1, 58, 74
4, 61725, Note_on_c, 1, 58, 0
4, 61728, Note_on_c, 1, 60, 76
4, 61748, Note_on_c, 1, 60, 0
4, 61968, Note_on_c, 1, 63, 78
4, 62016, Note_on_c, 1, 63, 0
4, 62016, Note_on_c, 1, 62, 78
4, 62061, Note_on_c, 1, 62, 0
4, 62064, Note_on_c, 1, 60, 79
4, 62084, Note_on_c, 1, 60, 0
4, 62112, Note_on_c, 1, 58, 80
4, 62132, Note_on_c, 1, 58, 0
4, 62160, Note_on_c, 1, 57, 80
4, 62180, Note_on_c, 1, 57, 0
4, 62208, Note_on_c, 1, 55, 81
4, 62228, Note_on_c, 1, 55, 0
4, 62256, Note_on_c, 1, 53, 82
4, 62276, Note_on_c, 1, 53, 0
4, 62304, Note_on_c, 1, 51, 83
4, 62324, Note_on_c, 1, 51, 0
4, 62352, Note_on_c, 1, 50, 83
4, 62372, Note_on_c, 1, 50, 0
4, 62400, Note_on_c, 1, 49, 84
4, 62489, Note_on_c, 1, 49, 0
4, 62496, Note_on_c, 1, 50, 86
4, 62496, Note_on_c, 1, 38, 86
4, 62585, Note_on_c, 1, 50, 0
4, 62585, Note_on_c, 1, 38, 0
4, 62592, Note_on_c, 1, 54, 86
4, 62612, Note_on_c, 1, 54, 0
4, 62640, Note_on_c, 1, 55, 86
4, 62660, Note_on_c, 1, 55, 0
4, 62688, Note_on_c, 1, 57, 86
4, 62708, Note_on_c, 1, 57, 0
4, 62784, Note_on_c, 1, 50, 86
4, 62784, Note_on_c, 1, 38, 86
4, 62873, Note_on_c, 1, 50, 0
4, 62873, Note_on_c, 1, 38, 0
4, 62880, Note_on_c, 1, 55, 86
4, 62900, Note_on_c, 1, 55, 0
4, 62928, Note_on_c, 1, 57, 86
4, 62948, Note_on_c, 1, 57, 0
4, 62976, Note_on_c, 1, 58, 86
4, 62996, Note_on_c, 1, 58, 0
4, 63072, Note_on_c, 1, 38, 86
4, 63092, Note_on_c, 1, 38, 0
4, 63120, Note_on_c, 1, 40, 86
4, 63140, Note_on_c, 1, 40, 0
4, 63168, Note_on_c, 1, 42, 86
4, 63207, Note_on_c, 1, 42, 0
4, 63360, Note_on_c, 1, 43, 86
4, 63380, Note_on_c, 1, 43, 0
4, 63408, Note_on_c, 1, 45, 86
4, 63428, Note_on_c, 1, 45, 0
4, 63456, Note_on_c, 1, 46, 86
4, 63495, Note_on_c, 1, 46, 0
4, 63648, Note_on_c, 1, 50, 86
4, 63668, Note_on_c, 1, 50, 0
4, 63696, Note_on_c, 1, 52, 86
4, 63716, Note_on_c, 1, 52, 0
4, 63744, Note_on_c, 1, 54, 86
4, 63783, Note_on_c, 1, 54, 0
4, 63936, Note_on_c, 1, 55, 86
4, 63956, Note_on_c, 1, 55, 0
4, 63984, Note_on_c, 1, 57, 86
4, 64004, Note_on_c, 1, 57, 0
4, 64032, Note_on_c, 1, 58, 86
4, 64071, Note_on_c, 1, 58, 0
4, 64224, Note_on_c, 1, 62, 86
4, 64244, Note_on_c, 1, 62, 0
4, 64272, Note_on_c, 1, 64, 86
4, 64292, Note_on_c, 1, 64, 0
4, 64320, Note_on_c, 1, 66, 86
4, 64359, Note_on_c, 1, 66, 0
4, 64512, Note_on_c, 1, 67, 86
4, 64551, Note_on_c, 1, 67, 0
4, 64608, Note_on_c, 1, 69, 86
4, 64647, Note_on_c, 1, 69, 0
4, 64704, Note_on_c, 1, 70, 86
4, 64743, Note_on_c, 1, 70, 0
4, 64800, Note_on_c, 1, 67, 86
4, 64889, Note_on_c, 1, 67, 0
4, 64896, Note_on_c, 1, 67, 86
4, 64985, Note_on_c, 1, 67, 0
4, 64992, Note_on_c, 1, 66, 86
4, 65081, Note_on_c, 1, 66, 0
4, 65424, Note_on_c, 1, 66, 86
4, 65472, Note_on_c, 1, 66, 0
4, 65472, Note_on_c, 1, 67, 86
4, 65511, Note_on_c, 1, 67, 0
4, 65712, Note_on_c, 1, 54, 86
4, 65760, Note_on_c, 1, 54, 0
4, 65760, Note_on_c, 1, 55, 86
4, 65799, Note_on_c, 1, 55, 0
4, 66000, Note_on_c, 1, 42, 86
4, 66048, Note_on_c, 1, 42, 0
4, 66048, Note_on_c, 1, 43, 86
4, 66087, Note_on_c, 1, 43, 0
4, 66288, Note_on_c, 1, 30, 86
4, 66336, Note_on_c, 1, 30, 0
4, 66336, Note_on_c, 1, 31, 86
4, 66375, Note_on_c, 1, 31, 0
4, 66528, Note_on_c, 1, 63, 86
4, 66528, Note_on_c, 1, 60, 86
4, 66567, Note_on_c, 1, 63, 0
4, 66567, Note_on_c, 1, 60, 0
4, 66624, Note_on_c, 1, 65, 86
4, 66624, Note_on_c, 1, 62, 86
4, 66663, Note_on_c, 1, 65, 0
4, 66663, Note_on_c, 1, 62, 0
4, 66816, Note_on_c, 1, 65, 86
4, 66816, Note_on_c, 1, 62, 86
4, 66855, Note_on_c, 1, 65, 0
4, 66855, Note_on_c, 1, 62, 0
4, 66912, Note_on_c, 1, 67, 86
4, 66912, Note_on_c, 1, 63, 86
4, 66951, Note_on_c, 1, 67, 0
4, 66951, Note_on_c, 1, 63, 0
4, 67104, Note_on_c, 1, 67, 86
4, 67104, Note_on_c, 1, 63, 86
4, 67193, Note_on_c, 1, 67, 0
4, 67193, Note_on_c, 1, 63, 0
4, 67200, Note_on_c, 1, 65, 86
4, 67200, Note_on_c, 1, 62, 86
4, 67289, Note_on_c, 1, 65, 0
4, 67289, Note_on_c, 1, 62, 0
4, 67296, Note_on_c, 1, 63, 86
4, 67296, Note_on_c, 1, 60, 86
4, 67385, Note_on_c, 1, 63, 0
4, 67385, Note_on_c, 1, 60, 0
4, 67392, Note_on_c, 1, 62, 86
4, 67392, Note_on_c, 1, 59, 86
4, 67488, Note_on_c, 1, 62, 0
4, 67488, Note_on_c, 1, 55, 86
4, 67577, Note_on_c, 1, 59, 0
4, 67577, Note_on_c, 1, 55, 0
4, 67584, Note_on_c, 1, 67, 86
4, 67584, Note_on_c, 1, 59, 86
4, 67623, Note_on_c, 1, 67, 0
4, 67623, Note_on_c, 1, 59, 0
4, 67680, Note_on_c, 1, 67, 86
4, 67680, Note_on_c, 1, 60, 86
4, 67719, Note_on_c, 1, 67, 0
4, 67719, Note_on_c, 1, 60, 0
4, 67872, Note_on_c, 1, 66, 86
4, 67872, Note_on_c, 1, 56, 86
4, 67961, Note_on_c, 1, 66, 0
4, 67961, Note_on_c, 1, 56, 0
4, 67968, Note_on_c, 1, 67, 86
4, 67968, Note_on_c, 1, 55, 86
4, 68057, Note_on_c, 1, 67, 0
4, 68057, Note_on_c, 1, 55, 0
4, 68112, Note_on_c, 1, 53, 86
4, 68157, Note_on_c, 1, 53, 0
4, 68160, Note_on_c, 1, 51, 86
4, 68205, Note_on_c, 1, 51, 0
4, 68208, Note_on_c, 1, 50, 86
4, 68253, Note_on_c, 1, 50, 0
4, 68256, Note_on_c, 1, 48, 86
4, 68345, Note_on_c, 1, 48, 0
4, 68544, Note_on_c, 1, 50, 71
4, 68809, Note_on_c, 1, 50, 0
4, 68832, Note_on_c, 1, 55, 71
4, 69097, Note_on_c, 1, 55, 0
4, 69120, Note_on_c, 1, 48, 71
4, 69385, Note_on_c, 1, 48, 0
4, 69408, Note_on_c, 1, 41, 78
4, 69585, Note_on_c, 1, 41, 0
4, 69600, Note_on_c, 1, 42, 83
4, 69689, Note_on_c, 1, 42, 0
4, 69696, Note_on_c, 1, 43, 86
4, 69696, Note_on_c, 1, 31, 86
4, 69785, Note_on_c, 1, 43, 0
4, 69785, Note_on_c, 1, 31, 0
4, 69792, Note_on_c, 1, 59, 86
4, 69812, Note_on_c, 1, 59, 0
4, 69840, Note_on_c, 1, 60, 86
4, 69860, Note_on_c, 1, 60, 0
4, 69888, Note_on_c, 1, 62, 86
4, 69908, Note_on_c, 1, 62, 0
4, 69984, Note_on_c, 1, 43, 86
4, 69984, Note_on_c, 1, 31, 86
4, 70073, Note_on_c, 1, 43, 0
4, 70073, Note_on_c, 1, 31, 0
4, 70080, Note_on_c, 1, 60, 86
4, 70100, Note_on_c, 1, 60, 0
4, 70128, Note_on_c, 1, 62, 86
4, 70148, Note_on_c, 1, 62, 0
4, 70176, Note_on_c, 1, 63, 86
4, 70196, Note_on_c, 1, 63, 0
4, 70272, Note_on_c, 1, 55, 86
4, 70292, Note_on_c, 1, 55, 0
4, 70320, Note_on_c, 1, 57, 86
4, 70340, Note_on_c, 1, 57, 0
4, 70368, Note_on_c, 1, 59, 86
4, 70407, Note_on_c, 1, 59, 0
4, 70560, Note_on_c, 1, 60, 86
4, 70580, Note_on_c, 1, 60, 0
4, 70608, Note_on_c, 1, 62, 86
4, 70628, Note_on_c, 1, 62, 0
4, 70656, Note_on_c, 1, 63, 86
4, 70695, Note_on_c, 1, 63, 0
4, 70848, Note_on_c, 1, 67, 86
4, 70868, Note_on_c, 1, 67, 0
4, 70896, Note_on_c, 1, 69, 86
4, 70916, Note_on_c, 1, 69, 0
4, 70944, Note_on_c, 1, 71, 86
4, 70983, Note_on_c, 1, 71, 0
4, 71136, Note_on_c, 1, 72, 86
4, 71156, Note_on_c, 1, 72, 0
4, 71184, Note_on_c, 1, 74, 86
4, 71204, Note_on_c, 1, 74, 0
4, 71232, Note_on_c, 1, 75, 86
4, 71271, Note_on_c, 1, 75, 0
4, 71544, Note_on_c, 1, 77, 86
4, 71567, Note_on_c, 1, 77, 0
4, 71568, Note_on_c, 1, 75, 86
4, 71591, Note_on_c, 1, 75, 0
4, 71592, Note_on_c, 1, 74, 86
4, 71615, Note_on_c, 1, 74, 0
4, 71616, Note_on_c, 1, 72, 86
4, 71639, Note_on_c, 1, 72, 0
4, 71640, Note_on_c, 1, 71, 86
4, 71663, Note_on_c, 1, 71, 0
4, 71664, Note_on_c, 1, 69, 86
4, 71687, Note_on_c, 1, 69, 0
4, 71688, Note_on_c, 1, 67, 86
4, 71711, Note_on_c, 1, 67, 0
4, 71712, Note_on_c, 1, 72, 86
4, 71801, Note_on_c, 1, 72, 0
4, 71808, Note_on_c, 1, 70, 86
4, 71897, Note_on_c, 1, 70, 0
4, 71904, Note_on_c, 1, 68, 86
4, 71993, Note_on_c, 1, 68, 0
4, 72000, Note_on_c, 1, 67, 86
4, 72089, Note_on_c, 1, 67, 0
4, 72120, Note_on_c, 1, 77, 86
4, 72143, Note_on_c, 1, 77, 0
4, 72144, Note_on_c, 1, 75, 86
4, 72167, Note_on_c, 1, 75, 0
4, 72168, Note_on_c, 1, 74, 86
4, 72191, Note_on_c, 1, 74, 0
4, 72192, Note_on_c, 1, 72, 86
4, 72215, Note_on_c, 1, 72, 0
4, 72216, Note_on_c, 1, 71, 86
4, 72239, Note_on_c, 1, 71, 0
4, 72240, Note_on_c, 1, 69, 86
4, 72263, Note_on_c, 1, 69, 0
4, 72264, Note_on_c, 1, 67, 86
4, 72287, Note_on_c, 1, 67, 0
4, 72288, Note_on_c, 1, 72, 86
4, 72377, Note_on_c, 1, 72, 0
4, 72384, Note_on_c, 1, 70, 86
4, 72473, Note_on_c, 1, 70, 0
4, 72480, Note_on_c, 1, 68, 86
4, 72569, Note_on_c, 1, 68, 0
4, 72576, Note_on_c, 1, 67, 86
4, 72665, Note_on_c, 1, 67, 0
4, 72696, Note_on_c, 1, 77, 86
4, 72719, Note_on_c, 1, 77, 0
4, 72720, Note_on_c, 1, 75, 86
4, 72743, Note_on_c, 1, 75, 0
4, 72744, Note_on_c, 1, 74, 86
4, 72767, Note_on_c, 1, 74, 0
4, 72768, Note_on_c, 1, 72, 86
4, 72791, Note_on_c, 1, 72, 0
4, 72792, Note_on_c, 1, 71, 86
4, 72815, Note_on_c, 1, 71, 0
4, 72816, Note_on_c, 1, 69, 86
4, 72839, Note_on_c, 1, 69, 0
4, 72840, Note_on_c, 1, 67, 86
4, 72863, Note_on_c, 1, 67, 0
4, 72864, Note_on_c, 1, 72, 86
4, 72953, Note_on_c, 1, 72, 0
4, 72984, Note_on_c, 1, 70, 86
4, 73007, Note_on_c, 1, 70, 0
4, 73008, Note_on_c, 1, 68, 86
4, 73031, Note_on_c, 1, 68, 0
4, 73032, Note_on_c, 1, 67, 86
4, 73055, Note_on_c, 1, 67, 0
4, 73056, Note_on_c, 1, 65, 86
4, 73079, Note_on_c, 1, 65, 0
4, 73080, Note_on_c, 1, 63, 86
4, 73103, Note_on_c, 1, 63, 0
4, 73104, Note_on_c, 1, 62, 86
4, 73127, Note_on_c, 1, 62, 0
4, 73128, Note_on_c, 1, 60, 86
4, 73151, Note_on_c, 1, 60, 0
4, 73152, Note_on_c, 1, 65, 86
4, 73241, Note_on_c, 1, 65, 0
4, 73248, Note_on_c, 1, 63, 86
4, 73337, Note_on_c, 1, 63, 0
4, 73344, Note_on_c, 1, 62, 86
4, 73433, Note_on_c, 1, 62, 0
4, 73440, Note_on_c, 1, 60, 86
4, 73529, Note_on_c, 1, 60, 0
4, 73560, Note_on_c, 1, 70, 86
4, 73583, Note_on_c, 1, 70, 0
4, 73584, Note_on_c, 1, 68, 86
4, 73607, Note_on_c, 1, 68, 0
4, 73608, Note_on_c, 1, 67, 86
4, 73631, Note_on_c, 1, 67, 0
4, 73632, Note_on_c, 1, 65, 86
4, 73655, Note_on_c, 1, 65, 0
4, 73656, Note_on_c, 1, 63, 86
4, 73679, Note_on_c, 1, 63, 0
4, 73680, Note_on_c, 1, 62, 86
4, 73703, Note_on_c, 1, 62, 0
4, 73704, Note_on_c, 1, 60, 86
4, 73727, Note_on_c, 1, 60, 0
4, 73728, Note_on_c, 1, 65, 86
4, 73817, Note_on_c, 1, 65, 0
4, 73824, Note_on_c, 1, 63, 86
4, 73913, Note_on_c, 1, 63, 0
4, 74016, Note_on_c, 1, 68, 86
4, 74105, Note_on_c, 1, 68, 0
4, 74112, Note_on_c, 1, 67, 86
4, 74201, Note_on_c, 1, 67, 0
4, 74304, Note_on_c, 1, 65, 86
4, 74393, Note_on_c, 1, 65, 0
4, 74400, Note_on_c, 1, 63, 86
4, 74489, Note_on_c, 1, 63, 0
4, 74592, Note_on_c, 1, 62, 97
4, 74592, Note_on_c, 1, 50, 97
4, 74681, Note_on_c, 1, 62, 0
4, 74681, Note_on_c, 1, 50, 0
4, 74688, Note_on_c, 1, 87, 102
4, 74784, Note_on_c, 1, 87, 0
4, 74784, Note_on_c, 1, 81, 86
4, 74823, Note_on_c, 1, 81, 0
4, 74880, Note_on_c, 1, 67, 97
4, 74880, Note_on_c, 1, 55, 97
4, 74969, Note_on_c, 1, 67, 0
4, 74969, Note_on_c, 1, 55, 0
4, 74976, Note_on_c, 1, 86, 102
4, 75072, Note_on_c, 1, 86, 0
4, 75072, Note_on_c, 1, 79, 86
4, 75111, Note_on_c, 1, 79, 0
4, 75168, Note_on_c, 1, 60, 97
4, 75168, Note_on_c, 1, 48, 97
4, 75257, Note_on_c, 1, 60, 0
4, 75257, Note_on_c, 1, 48, 0
4, 75264, Note_on_c, 1, 85, 102
4, 75360, Note_on_c, 1, 85, 0
4, 75360, Note_on_c, 1, 79, 86
4, 75399, Note_on_c, 1, 79, 0
4, 75456, Note_on_c, 1, 65, 97
4, 75456, Note_on_c, 1, 53, 97
4, 75545, Note_on_c, 1, 65, 0
4, 75545, Note_on_c, 1, 53, 0
4, 75552, Note_on_c, 1, 84, 102
4, 75648, Note_on_c, 1, 84, 0
4, 75648, Note_on_c, 1, 77, 86
4, 75687, Note_on_c, 1, 77, 0
4, 75744, Note_on_c, 1, 58, 97
4, 75744, Note_on_c, 1, 46, 97
4, 75833, Note_on_c, 1, 58, 0
4, 75833, Note_on_c, 1, 46, 0
4, 75840, Note_on_c, 1, 89, 102
4, 75936, Note_on_c, 1, 89, 0
4, 75936, Note_on_c, 1, 82, 86
4, 75975, Note_on_c, 1, 82, 0
4, 76032, Note_on_c, 1, 63, 97
4, 76032, Note_on_c, 1, 51, 97
4, 76121, Note_on_c, 1, 63, 0
4, 76121, Note_on_c, 1, 51, 0
4, 76128, Note_on_c, 1, 82, 102
4, 76224, Note_on_c, 1, 82, 0
4, 76224, Note_on_c, 1, 75, 86
4, 76263, Note_on_c, 1, 75, 0
4, 76320, Note_on_c, 1, 56, 86
4, 76320, Note_on_c, 1, 44, 86
4, 76409, Note_on_c, 1, 56, 0
4, 76409, Note_on_c, 1, 44, 0
4, 76416, Note_on_c, 1, 87, 102
4, 76512, Note_on_c, 1, 87, 0
4, 76512, Note_on_c, 1, 80, 86
4, 76551, Note_on_c, 1, 80, 0
4, 76608, Note_on_c, 1, 62, 97
4, 76608, Note_on_c, 1, 50, 97
4, 76697, Note_on_c, 1, 62, 0
4, 76697, Note_on_c, 1, 50, 0
4, 76704, Note_on_c, 1, 80, 102
4, 76800, Note_on_c, 1, 80, 0
4, 76800, Note_on_c, 1, 74, 86
4, 76839, Note_on_c, 1, 74, 0
4, 76896, Note_on_c, 1, 55, 97
4, 76896, Note_on_c, 1, 43, 97
4, 76985, Note_on_c, 1, 55, 0
4, 76985, Note_on_c, 1, 43, 0
4, 76992, Note_on_c, 1, 86, 102
4, 77088, Note_on_c, 1, 86, 0
4, 77088, Note_on_c, 1, 79, 86
4, 77127, Note_on_c, 1, 79, 0
4, 77184, Note_on_c, 1, 55, 97
4, 77184, Note_on_c, 1, 43, 97
4, 77273, Note_on_c, 1, 55, 0
4, 77273, Note_on_c, 1, 43, 0
4, 77280, Note_on_c, 1, 79, 102
4, 77376, Note_on_c, 1, 79, 0
4, 77376, Note_on_c, 1, 75, 86
4, 77415, Note_on_c, 1, 75, 0
4, 77472, Note_on_c, 1, 56, 97
4, 77472, Note_on_c, 1, 44, 97
4, 77561, Note_on_c, 1, 56, 0
4, 77561, Note_on_c, 1, 44, 0
4, 77568, Note_on_c, 1, 84, 102
4, 77664, Note_on_c, 1, 84, 0
4, 77664, Note_on_c, 1, 87, 86
4, 77753, Note_on_c, 1, 87, 0
4, 77760, Note_on_c, 1, 87, 102
4, 77856, Note_on_c, 1, 87, 0
4, 77856, Note_on_c, 1, 86, 86
4, 77945, Note_on_c, 1, 86, 0
4, 77952, Note_on_c, 1, 84, 86
4, 78041, Note_on_c, 1, 84, 0
4, 78048, Note_on_c, 1, 83, 86
4, 78137, Note_on_c, 1, 83, 0
4, 78168, Note_on_c, 1, 55, 86
4, 78191, Note_on_c, 1, 55, 0
4, 78192, Note_on_c, 1, 50, 86
4, 78215, Note_on_c, 1, 50, 0
4, 78216, Note_on_c, 1, 47, 86
4, 78239, Note_on_c, 1, 47, 0
4, 78240, Note_on_c, 1, 43, 86
4, 78329, Note_on_c, 1, 43, 0
4, 78624, Note_on_c, 1, 51, 71
4, 78624, Note_on_c, 1, 48, 71
4, 78663, Note_on_c, 1, 51, 0
4, 78663, Note_on_c, 1, 48, 0
4, 78720, Note_on_c, 1, 53, 71
4, 78720, Note_on_c, 1, 50, 71
4, 78759, Note_on_c, 1, 53, 0
4, 78759, Note_on_c, 1, 50, 0
4, 78912, Note_on_c, 1, 53, 71
4, 78912, Note_on_c, 1, 50, 71
4, 78951, Note_on_c, 1, 53, 0
4, 78951, Note_on_c, 1, 50, 0
4, 79008, Note_on_c, 1, 55, 71
4, 79008, Note_on_c, 1, 51, 71
4, 79047, Note_on_c, 1, 55, 0
4, 79047, Note_on_c, 1, 51, 0
4, 79296, Note_on_c, 1, 65, 71
4, 79296, Note_on_c, 1, 62, 71
4, 79385, Note_on_c, 1, 65, 0
4, 79385, Note_on_c, 1, 62, 0
4, 79584, Note_on_c, 1, 67, 71
4, 79584, Note_on_c, 1, 63, 71
4, 79673, Note_on_c, 1, 67, 0
4, 79673, Note_on_c, 1, 63, 0
4, 79680, Note_on_c, 1, 67, 71
4, 79680, Note_on_c, 1, 63, 71
4, 79769, Note_on_c, 1, 67, 0
4, 79769, Note_on_c, 1, 63, 0
4, 79776, Note_on_c, 1, 65, 71
4, 79776, Note_on_c, 1, 62, 71
4, 79865, Note_on_c, 1, 65, 0
4, 79865, Note_on_c, 1, 62, 0
4, 79872, Note_on_c, 1, 63, 71
4, 79872, Note_on_c, 1, 60, 71
4, 79961, Note_on_c, 1, 63, 0
4, 79961, Note_on_c, 1, 60, 0
4, 79968, Note_on_c, 1, 62, 71
4, 79968, Note_on_c, 1, 58, 71
4, 80057, Note_on_c, 1, 62, 0
4, 80057, Note_on_c, 1, 58, 0
4, 80064, Note_on_c, 1, 60, 71
4, 80064, Note_on_c, 1, 56, 71
4, 80153, Note_on_c, 1, 60, 0
4, 80153, Note_on_c, 1, 56, 0
4, 80160, Note_on_c, 1, 58, 71
4, 80160, Note_on_c, 1, 55, 71
4, 80249, Note_on_c, 1, 58, 0
4, 80249, Note_on_c, 1, 55, 0
4, 80256, Note_on_c, 1, 56, 72
4, 80256, Note_on_c, 1, 53, 72
4, 80345, Note_on_c, 1, 56, 0
4, 80345, Note_on_c, 1, 53, 0
4, 80352, Note_on_c, 1, 55, 73
4, 80352, Note_on_c, 1, 51, 73
4, 80441, Note_on_c, 1, 55, 0
4, 80441, Note_on_c, 1, 51, 0
4, 80448, Note_on_c, 1, 53, 74
4, 80448, Note_on_c, 1, 50, 74
4, 80537, Note_on_c, 1, 53, 0
4, 80537, Note_on_c, 1, 50, 0
4, 80544, Note_on_c, 1, 51, 75
4, 80544, Note_on_c, 1, 48, 75
4, 80633, Note_on_c, 1, 51, 0
4, 80633, Note_on_c, 1, 48, 0
4, 80640, Note_on_c, 1, 50, 76
4, 80640, Note_on_c, 1, 47, 76
4, 80729, Note_on_c, 1, 50, 0
4, 80729, Note_on_c, 1, 47, 0
4, 80736, Note_on_c, 1, 62, 77
4, 80736, Note_on_c, 1, 59, 77
4, 80825, Note_on_c, 1, 62, 0
4, 80825, Note_on_c, 1, 59, 0
4, 80928, Note_on_c, 1, 56, 78
4, 80967, Note_on_c, 1, 56, 0
4, 81024, Note_on_c, 1, 55, 78
4, 81063, Note_on_c, 1, 55, 0
4, 81120, Note_on_c, 1, 53, 78
4, 81159, Note_on_c, 1, 53, 0
4, 81216, Note_on_c, 1, 51, 78
4, 81255, Note_on_c, 1, 51, 0
4, 81312, Note_on_c, 1, 50, 78
4, 81351, Note_on_c, 1, 50, 0
4, 81408, Note_on_c, 1, 48, 78
4, 81447, Note_on_c, 1, 48, 0
4, 81504, Note_on_c, 1, 68, 78
4, 81593, Note_on_c, 1, 68, 0
4, 81600, Note_on_c, 1, 67, 78
4, 81689, Note_on_c, 1, 67, 0
4, 81696, Note_on_c, 1, 72, 78
4, 81785, Note_on_c, 1, 72, 0
4, 81792, Note_on_c, 1, 70, 78
4, 81881, Note_on_c, 1, 70, 0
4, 81888, Note_on_c, 1, 68, 80
4, 81977, Note_on_c, 1, 68, 0
4, 81984, Note_on_c, 1, 67, 83
4, 82073, Note_on_c, 1, 67, 0
4, 82080, Note_on_c, 1, 42, 86
4, 82119, Note_on_c, 1, 42, 0
4, 82176, Note_on_c, 1, 54, 86
4, 82215, Note_on_c, 1, 54, 0
4, 82368, Note_on_c, 1, 41, 86
4, 82407, Note_on_c, 1, 41, 0
4, 82464, Note_on_c, 1, 53, 86
4, 82503, Note_on_c, 1, 53, 0
4, 82656, Note_on_c, 1, 51, 86
4, 82745, Note_on_c, 1, 51, 0
4, 82896, Note_on_c, 1, 48, 86
4, 82941, Note_on_c, 1, 48, 0
4, 82944, Note_on_c, 1, 53, 86
4, 83033, Note_on_c, 1, 53, 0
4, 83040, Note_on_c, 1, 55, 83
4, 83129, Note_on_c, 1, 55, 0
4, 83136, Note_on_c, 1, 43, 80
4, 83225, Note_on_c, 1, 43, 0
4, 83232, Note_on_c, 1, 44, 78
4, 83277, Note_on_c, 1, 44, 0
4, 83280, Note_on_c, 1, 56, 78
4, 83325, Note_on_c, 1, 56, 0
4, 83328, Note_on_c, 1, 43, 78
4, 83373, Note_on_c, 1, 43, 0
4, 83376, Note_on_c, 1, 55, 78
4, 83421, Note_on_c, 1, 55, 0
4, 83424, Note_on_c, 1, 41, 78
4, 83469, Note_on_c, 1, 41, 0
4, 83472, Note_on_c, 1, 53, 78
4, 83517, Note_on_c, 1, 53, 0
4, 83520, Note_on_c, 1, 39, 78
4, 83565, Note_on_c, 1, 39, 0
4, 83568, Note_on_c, 1, 51, 78
4, 83613, Note_on_c, 1, 51, 0
4, 83616, Note_on_c, 1, 38, 78
4, 83661, Note_on_c, 1, 38, 0
4, 83664, Note_on_c, 1, 50, 78
4, 83709, Note_on_c, 1, 50, 0
4, 83712, Note_on_c, 1, 36, 78
4, 83757, Note_on_c, 1, 36, 0
4, 83760, Note_on_c, 1, 48, 78
4, 83805, Note_on_c, 1, 48, 0
4, 83808, Note_on_c, 1, 41, 78
4, 83897, Note_on_c, 1, 41, 0
4, 85008, Note_on_c, 1, 56, 78
4, 85008, Note_on_c, 1, 53, 78
4, 85055, Note_on_c, 1, 56, 0
4, 85055, Note_on_c, 1, 53, 0
4, 85056, Note_on_c, 1, 56, 78
4, 85056, Note_on_c, 1, 53, 78
4, 85103, Note_on_c, 1, 56, 0
4, 85103, Note_on_c, 1, 53, 0
4, 85104, Note_on_c, 1, 56, 78
4, 85104, Note_on_c, 1, 53, 78
4, 85151, Note_on_c, 1, 56, 0
4, 85151, Note_on_c, 1, 53, 0
4, 85152, Note_on_c, 1, 56, 78
4, 85152, Note_on_c, 1, 53, 78
4, 85199, Note_on_c, 1, 56, 0
4, 85199, Note_on_c, 1, 53, 0
4, 85200, Note_on_c, 1, 56, 78
4, 85200, Note_on_c, 1, 53, 78
4, 85247, Note_on_c, 1, 56, 0
4, 85247, Note_on_c, 1, 53, 0
4, 85296, Note_on_c, 1, 42, 78
4, 85341, Note_on_c, 1, 42, 0
4, 85344, Note_on_c, 1, 43, 78
4, 85389, Note_on_c, 1, 43, 0
4, 85392, Note_on_c, 1, 42, 78
4, 85437, Note_on_c, 1, 42, 0
4, 85440, Note_on_c, 1, 43, 78
4, 85485, Note_on_c, 1, 43, 0
4, 85488, Note_on_c, 1, 42, 78
4, 85533, Note_on_c, 1, 42, 0
4, 85536, Note_on_c, 1, 43, 78
4, 85801, Note_on_c, 1, 43, 0
4, 85872, Note_on_c, 1, 51, 78
4, 85917, Note_on_c, 1, 51, 0
4, 85920, Note_on_c, 1, 53, 78
4, 85965, Note_on_c, 1, 53, 0
4, 85968, Note_on_c, 1, 51, 79
4, 86013, Note_on_c, 1, 51, 0
4, 86016, Note_on_c, 1, 53, 80
4, 86061, Note_on_c, 1, 53, 0
4, 86064, Note_on_c, 1, 51, 80
4, 86109, Note_on_c, 1, 51, 0
4, 86112, Note_on_c, 1, 53, 81
4, 86157, Note_on_c, 1, 53, 0
4, 86160, Note_on_c, 1, 55, 82
4, 86205, Note_on_c, 1, 55, 0
4, 86208, Note_on_c, 1, 56, 83
4, 86253, Note_on_c, 1, 56, 0
4, 86256, Note_on_c, 1, 55, 83
4, 86301, Note_on_c, 1, 55, 0
4, 86304, Note_on_c, 1, 56, 84
4, 86349, Note_on_c, 1, 56, 0
4, 86352, Note_on_c, 1, 55, 85
4, 86397, Note_on_c, 1, 55, 0
4, 86400, Note_on_c, 1, 56, 86
4, 86445, Note_on_c, 1, 56, 0
4, 86448, Note_on_c, 1, 54, 85
4, 86493, Note_on_c, 1, 54, 0
4, 86496, Note_on_c, 1, 55, 84
4, 86541, Note_on_c, 1, 55, 0
4, 86544, Note_on_c, 1, 54, 84
4, 86589, Note_on_c, 1, 54, 0
4, 86592, Note_on_c, 1, 55, 83
4, 86637, Note_on_c, 1, 55, 0
4, 86640, Note_on_c, 1, 54, 82
4, 86685, Note_on_c, 1, 54, 0
4, 86688, Note_on_c, 1, 55, 82
4, 86733, Note_on_c, 1, 55, 0
4, 86736, Note_on_c, 1, 52, 81
4, 86781, Note_on_c, 1, 52, 0
4, 86784, Note_on_c, 1, 53, 80
4, 86829, Note_on_c, 1, 53, 0
4, 86832, Note_on_c, 1, 52, 80
4, 86877, Note_on_c, 1, 52, 0
4, 86880, Note_on_c, 1, 53, 79
4, 86925, Note_on_c, 1, 53, 0
4, 86928, Note_on_c, 1, 52, 78
4, 86973, Note_on_c, 1, 52, 0
4, 86976, Note_on_c, 1, 53, 78
4, 87065, Note_on_c, 1, 53, 0
4, 87072, Note_on_c, 1, 55, 86
4, 87117, Note_on_c, 1, 55, 0
4, 87120, Note_on_c, 1, 53, 86
4, 87165, Note_on_c, 1, 53, 0
4, 87168, Note_on_c, 1, 51, 86
4, 87213, Note_on_c, 1, 51, 0
4, 87216, Note_on_c, 1, 50, 86
4, 87261, Note_on_c, 1, 50, 0
4, 87264, Note_on_c, 1, 53, 86
4, 87264, Note_on_c, 1, 50, 86
4, 87552, Note_on_c, 1, 53, 0
4, 87552, Note_on_c, 1, 50, 0
4, 87552, Note_on_c, 1, 55, 86
4, 87552, Note_on_c, 1, 51, 86
4, 87641, Note_on_c, 1, 55, 0
4, 87641, Note_on_c, 1, 51, 0
4, 87840, Note_on_c, 1, 36, 0
4, 87929, Note_on_c, 1, 36, 0
4, 87936, End_track
5, 0, Start_track
5, 0, Program_c, 1, 1
5, 0, Control_c, 1, 7, 127
5, 0, Control_c, 1, 10, 64
5, 11808, Note_on_c, 1, 51, 64
5, 12937, Note_on_c, 1, 51, 0
5, 12960, Note_on_c, 1, 51, 78
5, 13342, Note_on_c, 1, 51, 0
5, 25056, Note_on_c, 1, 51, 64
5, 26185, Note_on_c, 1, 51, 0
5, 26208, Note_on_c, 1, 51, 78
5, 26590, Note_on_c, 1, 51, 0
5, 34272, Note_on_c, 1, 60, 71
5, 34361, Note_on_c, 1, 60, 0
5, 34368, Note_on_c, 1, 62, 71
5, 34545, Note_on_c, 1, 62, 0
5, 34608, Note_on_c, 1, 54, 71
5, 34656, Note_on_c, 1, 54, 0
5, 34656, Note_on_c, 1, 55, 71
5, 34695, Note_on_c, 1, 55, 0
5, 55296, Note_on_c, 1, 48, 71
5, 56537, Note_on_c, 1, 48, 0
5, 56736, Note_on_c, 1, 48, 71
5, 56736, Note_on_c, 1, 36, 71
5, 57113, Note_on_c, 1, 48, 0
5, 57113, Note_on_c, 1, 36, 0
5, 64800, Note_on_c, 1, 60, 71
5, 64889, Note_on_c, 1, 60, 0
5, 64896, Note_on_c, 1, 62, 71
5, 65073, Note_on_c, 1, 62, 0
5, 65136, Note_on_c, 1, 54, 71
5, 65184, Note_on_c, 1, 54, 0
5, 65184, Note_on_c, 1, 55, 71
5, 65223, Note_on_c, 1, 55, 0
5, 85824, Note_on_c, 1, 48, 71
5, 87065, Note_on_c, 1, 48, 0
5, 87264, Note_on_c, 1, 48, 86
5, 87264, Note_on_c, 1, 36, 86
5, 87641, Note_on_c, 1, 48, 0
5, 87641, Note_on_c, 1, 36, 0
5, 87936, End_track
6, 0, Start_track
6, 0, Title_t, "Piano Solo   <composer>  "
6, 0, End_track
0, 0, End_of_file
