0, 0, Header, 1, 3, 384
1, 0, Start_track
1, 0, Time_signature, 3, 2, 96, 8
1, 0, Sequencer_specific, 3, 0, 0, 65
1, 0, Sequencer_specific, 5, 0, 0, 119, 14, 0
1, 0, Tempo, 500000
1, 51072, Tempo, 500000
1, 51840, Tempo, 500000
1, 52224, Tempo, 1000000
1, 52992, Tempo, 500000
1, 84480, Tempo, 1000000
1, 85248, Tempo, 500000
1, 96768, Tempo, 600000
1, 96768, End_track
2, 0, Start_track
2, 0, Control_c, 0, 7, 100
2, 0, Key_signature, 1, "major"
2, 0, Note_on_c, 0, 74, 100
2, 256, Note_off_c, 0, 74, 100
2, 384, Note_on_c, 0, 79, 100
2, 468, Note_off_c, 0, 79, 100
2, 512, Note_on_c, 0, 74, 100
2, 596, Note_off_c, 0, 74, 100
2, 640, Note_on_c, 0, 71, 100
2, 724, Note_off_c, 0, 71, 100
2, 768, Note_on_c, 0, 74, 100
2, 852, Note_off_c, 0, 74, 100
2, 896, Note_on_c, 0, 71, 100
2, 980, Note_off_c, 0, 71, 100
2, 1024, Note_on_c, 0, 67, 100
2, 1108, Note_off_c, 0, 67, 100
2, 1152, Note_on_c, 0, 67, 100
2, 1236, Note_off_c, 0, 67, 100
2, 1280, Note_on_c, 0, 66, 100
2, 1364, Note_off_c, 0, 66, 100
2, 1408, Note_on_c, 0, 62, 100
2, 1492, Note_off_c, 0, 62, 100
2, 1536, Note_on_c, 0, 72, 100
2, 1536, Note_on_c, 0, 69, 100
2, 1792, Note_off_c, 0, 72, 100
2, 1792, Note_off_c, 0, 69, 100
2, 1920, Note_on_c, 0, 71, 100
2, 1920, Note_on_c, 0, 67, 100
2, 2176, Note_off_c, 0, 71, 100
2, 2176, Note_off_c, 0, 67, 100
2, 2304, Note_on_c, 0, 64, 100
2, 2388, Note_off_c, 0, 64, 100
2, 2432, Note_on_c, 0, 68, 100
2, 2516, Note_off_c, 0, 68, 100
2, 2560, Note_on_c, 0, 69, 100
2, 2644, Note_off_c, 0, 69, 100
2, 2688, Note_on_c, 0, 71, 100
2, 2772, Note_off_c, 0, 71, 100
2, 2816, Note_on_c, 0, 72, 100
2, 2900, Note_off_c, 0, 72, 100
2, 2944, Note_on_c, 0, 74, 100
2, 3028, Note_off_c, 0, 74, 100
2, 3072, Note_on_c, 0, 76, 100
2, 3156, Note_off_c, 0, 76, 100
2, 3200, Note_on_c, 0, 72, 100
2, 3284, Note_off_c, 0, 72, 100
2, 3328, Note_on_c, 0, 69, 100
2, 3412, Note_off_c, 0, 69, 100
2, 3456, Note_on_c, 0, 67, 100
2, 3968, Note_off_c, 0, 67, 100
2, 4224, Note_on_c, 0, 66, 100
2, 4480, Note_off_c, 0, 66, 100
2, 4608, Note_on_c, 0, 74, 100
2, 4864, Note_off_c, 0, 74, 100
2, 4992, Note_on_c, 0, 79, 100
2, 5076, Note_off_c, 0, 79, 100
2, 5120, Note_on_c, 0, 74, 100
2, 5204, Note_off_c, 0, 74, 100
2, 5248, Note_on_c, 0, 71, 100
2, 5332, Note_off_c, 0, 71, 100
2, 5376, Note_on_c, 0, 74, 100
2, 5460, Note_off_c, 0, 74, 100
2, 5504, Note_on_c, 0, 71, 100
2, 5588, Note_off_c, 0, 71, 100
2, 5632, Note_on_c, 0, 67, 100
2, 5716, Note_off_c, 0, 67, 100
2, 5760, Note_on_c, 0, 67, 100
2, 5844, Note_off_c, 0, 67, 100
2, 5888, Note_on_c, 0, 66, 100
2, 5972, Note_off_c, 0, 66, 100
2, 6016, Note_on_c, 0, 62, 100
2, 6100, Note_off_c, 0, 62, 100
2, 6144, Note_on_c, 0, 72, 100
2, 6144, Note_on_c, 0, 69, 100
2, 6400, Note_off_c, 0, 72, 100
2, 6400, Note_off_c, 0, 69, 100
2, 6528, Note_on_c, 0, 71, 100
2, 6528, Note_on_c, 0, 67, 100
2, 6784, Note_off_c, 0, 71, 100
2, 6784, Note_off_c, 0, 67, 100
2, 6912, Note_on_c, 0, 72, 100
2, 6996, Note_off_c, 0, 72, 100
2, 7040, Note_on_c, 0, 71, 100
2, 7124, Note_off_c, 0, 71, 100
2, 7168, Note_on_c, 0, 67, 100
2, 7252, Note_off_c, 0, 67, 100
2, 7296, Note_on_c, 0, 79, 100
2, 7296, Note_on_c, 0, 73, 100
2, 7552, Note_off_c, 0, 79, 100
2, 7552, Note_off_c, 0, 73, 100
2, 7680, Note_on_c, 0, 78, 100
2, 7680, Note_on_c, 0, 74, 100
2, 7936, Note_off_c, 0, 78, 100
2, 7936, Note_off_c, 0, 74, 100
2, 8064, Note_on_c, 0, 71, 100
2, 8148, Note_off_c, 0, 71, 100
2, 8192, Note_on_c, 0, 76, 100
2, 8276, Note_off_c, 0, 76, 100
2, 8320, Note_on_c, 0, 75, 100
2, 8404, Note_off_c, 0, 75, 100
2, 8448, Note_on_c, 0, 78, 100
2, 8532, Note_off_c, 0, 78, 100
2, 8576, Note_on_c, 0, 76, 100
2, 8660, Note_off_c, 0, 76, 100
2, 8704, Note_on_c, 0, 79, 100
2, 8788, Note_off_c, 0, 79, 100
2, 8832, Note_on_c, 0, 83, 100
2, 8916, Note_off_c, 0, 83, 100
2, 8960, Note_on_c, 0, 79, 100
2, 9044, Note_off_c, 0, 79, 100
2, 9088, Note_on_c, 0, 76, 100
2, 9172, Note_off_c, 0, 76, 100
2, 9216, Note_on_c, 0, 74, 100
2, 9300, Note_off_c, 0, 74, 100
2, 9344, Note_on_c, 0, 73, 100
2, 9428, Note_off_c, 0, 73, 100
2, 9472, Note_on_c, 0, 76, 100
2, 9556, Note_off_c, 0, 76, 100
2, 9600, Note_on_c, 0, 81, 100
2, 9856, Note_off_c, 0, 81, 100
2, 10112, Note_on_c, 0, 78, 100
2, 10196, Note_off_c, 0, 78, 100
2, 10240, Note_on_c, 0, 74, 100
2, 10324, Note_off_c, 0, 74, 100
2, 10368, Note_on_c, 0, 73, 100
2, 10452, Note_off_c, 0, 73, 100
2, 10496, Note_on_c, 0, 69, 100
2, 10580, Note_off_c, 0, 69, 100
2, 10624, Note_on_c, 0, 76, 100
2, 10708, Note_off_c, 0, 76, 100
2, 10752, Note_on_c, 0, 81, 100
2, 11008, Note_off_c, 0, 81, 100
2, 11264, Note_on_c, 0, 78, 100
2, 11348, Note_off_c, 0, 78, 100
2, 11392, Note_on_c, 0, 74, 100
2, 11476, Note_off_c, 0, 74, 100
2, 11520, Note_on_c, 0, 74, 100
2, 11604, Note_off_c, 0, 74, 100
2, 11648, Note_on_c, 0, 73, 100
2, 11732, Note_off_c, 0, 73, 100
2, 11776, Note_on_c, 0, 76, 100
2, 11860, Note_off_c, 0, 76, 100
2, 11904, Note_on_c, 0, 81, 100
2, 12160, Note_off_c, 0, 81, 100
2, 12416, Note_on_c, 0, 78, 100
2, 12500, Note_off_c, 0, 78, 100
2, 12544, Note_on_c, 0, 74, 100
2, 12628, Note_off_c, 0, 74, 100
2, 12672, Note_on_c, 0, 73, 100
2, 12756, Note_off_c, 0, 73, 100
2, 12800, Note_on_c, 0, 69, 100
2, 12884, Note_off_c, 0, 69, 100
2, 12928, Note_on_c, 0, 76, 100
2, 13012, Note_off_c, 0, 76, 100
2, 13056, Note_on_c, 0, 81, 100
2, 13312, Note_off_c, 0, 81, 100
2, 13568, Note_on_c, 0, 78, 100
2, 13652, Note_off_c, 0, 78, 100
2, 13696, Note_on_c, 0, 74, 100
2, 13780, Note_off_c, 0, 74, 100
2, 13824, Note_on_c, 0, 72, 100
2, 13908, Note_off_c, 0, 72, 100
2, 13952, Note_on_c, 0, 71, 100
2, 14036, Note_off_c, 0, 71, 100
2, 14080, Note_on_c, 0, 82, 100
2, 14164, Note_off_c, 0, 82, 100
2, 14208, Note_on_c, 0, 83, 100
2, 14292, Note_off_c, 0, 83, 100
2, 14336, Note_on_c, 0, 79, 100
2, 14420, Note_off_c, 0, 79, 100
2, 14464, Note_on_c, 0, 76, 100
2, 14548, Note_off_c, 0, 76, 100
2, 14592, Note_on_c, 0, 79, 100
2, 14676, Note_off_c, 0, 79, 100
2, 14720, Note_on_c, 0, 76, 100
2, 14804, Note_off_c, 0, 76, 100
2, 14848, Note_on_c, 0, 73, 100
2, 14932, Note_off_c, 0, 73, 100
2, 14976, Note_on_c, 0, 73, 100
2, 15488, Note_off_c, 0, 73, 100
2, 15744, Note_on_c, 0, 74, 100
2, 16000, Note_off_c, 0, 74, 100
2, 16128, Note_on_c, 0, 74, 100
2, 16384, Note_off_c, 0, 74, 100
2, 16512, Note_on_c, 0, 79, 100
2, 16596, Note_off_c, 0, 79, 100
2, 16640, Note_on_c, 0, 74, 100
2, 16724, Note_off_c, 0, 74, 100
2, 16768, Note_on_c, 0, 71, 100
2, 16852, Note_off_c, 0, 71, 100
2, 16896, Note_on_c, 0, 74, 100
2, 16980, Note_off_c, 0, 74, 100
2, 17024, Note_on_c, 0, 71, 100
2, 17108, Note_off_c, 0, 71, 100
2, 17152, Note_on_c, 0, 67, 100
2, 17236, Note_off_c, 0, 67, 100
2, 17280, Note_on_c, 0, 67, 100
2, 17364, Note_off_c, 0, 67, 100
2, 17408, Note_on_c, 0, 66, 100
2, 17492, Note_off_c, 0, 66, 100
2, 17536, Note_on_c, 0, 62, 100
2, 17620, Note_off_c, 0, 62, 100
2, 17664, Note_on_c, 0, 72, 100
2, 17664, Note_on_c, 0, 69, 100
2, 17920, Note_off_c, 0, 72, 100
2, 17920, Note_off_c, 0, 69, 100
2, 18048, Note_on_c, 0, 71, 100
2, 18048, Note_on_c, 0, 67, 100
2, 18304, Note_off_c, 0, 71, 100
2, 18304, Note_off_c, 0, 67, 100
2, 18432, Note_on_c, 0, 64, 100
2, 18516, Note_off_c, 0, 64, 100
2, 18560, Note_on_c, 0, 68, 100
2, 18644, Note_off_c, 0, 68, 100
2, 18688, Note_on_c, 0, 69, 100
2, 18772, Note_off_c, 0, 69, 100
2, 18816, Note_on_c, 0, 71, 100
2, 18900, Note_off_c, 0, 71, 100
2, 18944, Note_on_c, 0, 72, 100
2, 19028, Note_off_c, 0, 72, 100
2, 19072, Note_on_c, 0, 74, 100
2, 19156, Note_off_c, 0, 74, 100
2, 19200, Note_on_c, 0, 76, 100
2, 19284, Note_off_c, 0, 76, 100
2, 19328, Note_on_c, 0, 72, 100
2, 19412, Note_off_c, 0, 72, 100
2, 19456, Note_on_c, 0, 69, 100
2, 19540, Note_off_c, 0, 69, 100
2, 19584, Note_on_c, 0, 67, 100
2, 20096, Note_off_c, 0, 67, 100
2, 20352, Note_on_c, 0, 66, 100
2, 20608, Note_off_c, 0, 66, 100
2, 20736, Note_on_c, 0, 74, 100
2, 20992, Note_off_c, 0, 74, 100
2, 21120, Note_on_c, 0, 79, 100
2, 21204, Note_off_c, 0, 79, 100
2, 21248, Note_on_c, 0, 74, 100
2, 21332, Note_off_c, 0, 74, 100
2, 21376, Note_on_c, 0, 71, 100
2, 21460, Note_off_c, 0, 71, 100
2, 21504, Note_on_c, 0, 74, 100
2, 21588, Note_off_c, 0, 74, 100
2, 21632, Note_on_c, 0, 71, 100
2, 21716, Note_off_c, 0, 71, 100
2, 21760, Note_on_c, 0, 67, 100
2, 21844, Note_off_c, 0, 67, 100
2, 21888, Note_on_c, 0, 67, 100
2, 21972, Note_off_c, 0, 67, 100
2, 22016, Note_on_c, 0, 66, 100
2, 22100, Note_off_c, 0, 66, 100
2, 22144, Note_on_c, 0, 62, 100
2, 22228, Note_off_c, 0, 62, 100
2, 22272, Note_on_c, 0, 72, 100
2, 22272, Note_on_c, 0, 69, 100
2, 22528, Note_off_c, 0, 72, 100
2, 22528, Note_off_c, 0, 69, 100
2, 22656, Note_on_c, 0, 71, 100
2, 22656, Note_on_c, 0, 67, 100
2, 22912, Note_off_c, 0, 71, 100
2, 22912, Note_off_c, 0, 67, 100
2, 23040, Note_on_c, 0, 72, 100
2, 23124, Note_off_c, 0, 72, 100
2, 23168, Note_on_c, 0, 71, 100
2, 23252, Note_off_c, 0, 71, 100
2, 23296, Note_on_c, 0, 67, 100
2, 23380, Note_off_c, 0, 67, 100
2, 23424, Note_on_c, 0, 79, 100
2, 23424, Note_on_c, 0, 73, 100
2, 23680, Note_off_c, 0, 79, 100
2, 23680, Note_off_c, 0, 73, 100
2, 23808, Note_on_c, 0, 78, 100
2, 23808, Note_on_c, 0, 74, 100
2, 24064, Note_off_c, 0, 78, 100
2, 24064, Note_off_c, 0, 74, 100
2, 24192, Note_on_c, 0, 71, 100
2, 24276, Note_off_c, 0, 71, 100
2, 24320, Note_on_c, 0, 76, 100
2, 24404, Note_off_c, 0, 76, 100
2, 24448, Note_on_c, 0, 75, 100
2, 24532, Note_off_c, 0, 75, 100
2, 24576, Note_on_c, 0, 78, 100
2, 24660, Note_off_c, 0, 78, 100
2, 24704, Note_on_c, 0, 76, 100
2, 24788, Note_off_c, 0, 76, 100
2, 24832, Note_on_c, 0, 79, 100
2, 24916, Note_off_c, 0, 79, 100
2, 24960, Note_on_c, 0, 83, 100
2, 25044, Note_off_c, 0, 83, 100
2, 25088, Note_on_c, 0, 79, 100
2, 25172, Note_off_c, 0, 79, 100
2, 25216, Note_on_c, 0, 76, 100
2, 25300, Note_off_c, 0, 76, 100
2, 25344, Note_on_c, 0, 74, 100
2, 25428, Note_off_c, 0, 74, 100
2, 25472, Note_on_c, 0, 73, 100
2, 25556, Note_off_c, 0, 73, 100
2, 25600, Note_on_c, 0, 76, 100
2, 25684, Note_off_c, 0, 76, 100
2, 25728, Note_on_c, 0, 81, 100
2, 25984, Note_off_c, 0, 81, 100
2, 26240, Note_on_c, 0, 78, 100
2, 26324, Note_off_c, 0, 78, 100
2, 26368, Note_on_c, 0, 74, 100
2, 26452, Note_off_c, 0, 74, 100
2, 26496, Note_on_c, 0, 73, 100
2, 26580, Note_off_c, 0, 73, 100
2, 26624, Note_on_c, 0, 69, 100
2, 26708, Note_off_c, 0, 69, 100
2, 26752, Note_on_c, 0, 76, 100
2, 26836, Note_off_c, 0, 76, 100
2, 26880, Note_on_c, 0, 81, 100
2, 27136, Note_off_c, 0, 81, 100
2, 27392, Note_on_c, 0, 78, 100
2, 27476, Note_off_c, 0, 78, 100
2, 27520, Note_on_c, 0, 74, 100
2, 27604, Note_off_c, 0, 74, 100
2, 27648, Note_on_c, 0, 74, 100
2, 27732, Note_off_c, 0, 74, 100
2, 27776, Note_on_c, 0, 73, 100
2, 27860, Note_off_c, 0, 73, 100
2, 27904, Note_on_c, 0, 76, 100
2, 27988, Note_off_c, 0, 76, 100
2, 28032, Note_on_c, 0, 81, 100
2, 28288, Note_off_c, 0, 81, 100
2, 28544, Note_on_c, 0, 78, 100
2, 28628, Note_off_c, 0, 78, 100
2, 28672, Note_on_c, 0, 74, 100
2, 28756, Note_off_c, 0, 74, 100
2, 28800, Note_on_c, 0, 73, 100
2, 28884, Note_off_c, 0, 73, 100
2, 28928, Note_on_c, 0, 69, 100
2, 29012, Note_off_c, 0, 69, 100
2, 29056, Note_on_c, 0, 76, 100
2, 29140, Note_off_c, 0, 76, 100
2, 29184, Note_on_c, 0, 81, 100
2, 29440, Note_off_c, 0, 81, 100
2, 29696, Note_on_c, 0, 78, 100
2, 29780, Note_off_c, 0, 78, 100
2, 29824, Note_on_c, 0, 74, 100
2, 29908, Note_off_c, 0, 74, 100
2, 29952, Note_on_c, 0, 72, 100
2, 30036, Note_off_c, 0, 72, 100
2, 30080, Note_on_c, 0, 71, 100
2, 30164, Note_off_c, 0, 71, 100
2, 30208, Note_on_c, 0, 82, 100
2, 30292, Note_off_c, 0, 82, 100
2, 30336, Note_on_c, 0, 83, 100
2, 30420, Note_off_c, 0, 83, 100
2, 30464, Note_on_c, 0, 79, 100
2, 30548, Note_off_c, 0, 79, 100
2, 30592, Note_on_c, 0, 76, 100
2, 30676, Note_off_c, 0, 76, 100
2, 30720, Note_on_c, 0, 79, 100
2, 30804, Note_off_c, 0, 79, 100
2, 30848, Note_on_c, 0, 76, 100
2, 30932, Note_off_c, 0, 76, 100
2, 30976, Note_on_c, 0, 73, 100
2, 31060, Note_off_c, 0, 73, 100
2, 31104, Note_on_c, 0, 73, 100
2, 31616, Note_off_c, 0, 73, 100
2, 31872, Note_on_c, 0, 74, 100
2, 32128, Note_off_c, 0, 74, 100
2, 32256, Note_on_c, 0, 74, 100
2, 32288, Note_off_c, 0, 74, 100
2, 32304, Note_on_c, 0, 76, 100
2, 32336, Note_off_c, 0, 76, 100
2, 32352, Note_on_c, 0, 74, 100
2, 32384, Note_off_c, 0, 74, 100
2, 32400, Note_on_c, 0, 72, 100
2, 32432, Note_off_c, 0, 72, 100
2, 32448, Note_on_c, 0, 74, 100
2, 32576, Note_off_c, 0, 74, 100
2, 32640, Note_on_c, 0, 86, 100
2, 32724, Note_off_c, 0, 86, 100
2, 32768, Note_on_c, 0, 81, 100
2, 32852, Note_off_c, 0, 81, 100
2, 32896, Note_on_c, 0, 78, 100
2, 32980, Note_off_c, 0, 78, 100
2, 33024, Note_on_c, 0, 81, 100
2, 33108, Note_off_c, 0, 81, 100
2, 33152, Note_on_c, 0, 78, 100
2, 33236, Note_off_c, 0, 78, 100
2, 33280, Note_on_c, 0, 74, 100
2, 33364, Note_off_c, 0, 74, 100
2, 33408, Note_on_c, 0, 74, 100
2, 33920, Note_off_c, 0, 74, 100
2, 34176, Note_on_c, 0, 73, 100
2, 34192, Note_off_c, 0, 73, 100
2, 34200, Note_on_c, 0, 74, 100
2, 34216, Note_off_c, 0, 74, 100
2, 34224, Note_on_c, 0, 73, 100
2, 34240, Note_off_c, 0, 73, 100
2, 34248, Note_on_c, 0, 74, 100
2, 34264, Note_off_c, 0, 74, 100
2, 34272, Note_on_c, 0, 73, 100
2, 34288, Note_off_c, 0, 73, 100
2, 34296, Note_on_c, 0, 74, 100
2, 34312, Note_off_c, 0, 74, 100
2, 34320, Note_on_c, 0, 73, 100
2, 34336, Note_off_c, 0, 73, 100
2, 34344, Note_on_c, 0, 74, 100
2, 34360, Note_off_c, 0, 74, 100
2, 34368, Note_on_c, 0, 73, 100
2, 34384, Note_off_c, 0, 73, 100
2, 34392, Note_on_c, 0, 74, 100
2, 34408, Note_off_c, 0, 74, 100
2, 34416, Note_on_c, 0, 73, 100
2, 34432, Note_off_c, 0, 73, 100
2, 34440, Note_on_c, 0, 74, 100
2, 34456, Note_off_c, 0, 74, 100
2, 34464, Note_on_c, 0, 73, 100
2, 34480, Note_off_c, 0, 73, 100
2, 34488, Note_on_c, 0, 74, 100
2, 34504, Note_off_c, 0, 74, 100
2, 34512, Note_on_c, 0, 73, 100
2, 34528, Note_off_c, 0, 73, 100
2, 34536, Note_on_c, 0, 74, 100
2, 34552, Note_off_c, 0, 74, 100
2, 34944, Note_on_c, 0, 74, 100
2, 35028, Note_off_c, 0, 74, 100
2, 35072, Note_on_c, 0, 78, 100
2, 35156, Note_off_c, 0, 78, 100
2, 35200, Note_on_c, 0, 81, 100
2, 35284, Note_off_c, 0, 81, 100
2, 35328, Note_on_c, 0, 84, 100
2, 35412, Note_off_c, 0, 84, 100
2, 35456, Note_on_c, 0, 81, 100
2, 35540, Note_off_c, 0, 81, 100
2, 35584, Note_on_c, 0, 78, 100
2, 35668, Note_off_c, 0, 78, 100
2, 35712, Note_on_c, 0, 72, 100
2, 35968, Note_off_c, 0, 72, 100
2, 36096, Note_on_c, 0, 71, 100
2, 36128, Note_off_c, 0, 71, 100
2, 36144, Note_on_c, 0, 72, 100
2, 36176, Note_off_c, 0, 72, 100
2, 36192, Note_on_c, 0, 71, 100
2, 36224, Note_off_c, 0, 71, 100
2, 36240, Note_on_c, 0, 69, 100
2, 36272, Note_off_c, 0, 69, 100
2, 36288, Note_on_c, 0, 71, 100
2, 36416, Note_off_c, 0, 71, 100
2, 36480, Note_on_c, 0, 79, 100
2, 36736, Note_off_c, 0, 79, 100
2, 36864, Note_on_c, 0, 75, 100
2, 36992, Note_off_c, 0, 75, 100
2, 37056, Note_on_c, 0, 76, 100
2, 37184, Note_off_c, 0, 76, 100
2, 37248, Note_on_c, 0, 76, 100
2, 37504, Note_off_c, 0, 76, 100
2, 37632, Note_on_c, 0, 79, 100
2, 37888, Note_off_c, 0, 79, 100
2, 38016, Note_on_c, 0, 73, 100
2, 38144, Note_off_c, 0, 73, 100
2, 38208, Note_on_c, 0, 74, 100
2, 38336, Note_off_c, 0, 74, 100
2, 38400, Note_on_c, 0, 74, 100
2, 38656, Note_off_c, 0, 74, 100
2, 38784, Note_on_c, 0, 86, 100
2, 38868, Note_off_c, 0, 86, 100
2, 38912, Note_on_c, 0, 83, 100
2, 38996, Note_off_c, 0, 83, 100
2, 39040, Note_on_c, 0, 79, 100
2, 39124, Note_off_c, 0, 79, 100
2, 39144, Note_on_c, 0, 78, 100
2, 39160, Note_off_c, 0, 78, 100
2, 39168, Note_on_c, 0, 76, 100
2, 39200, Note_off_c, 0, 76, 100
2, 39216, Note_on_c, 0, 78, 100
2, 39248, Note_off_c, 0, 78, 100
2, 39264, Note_on_c, 0, 76, 100
2, 39296, Note_off_c, 0, 76, 100
2, 39312, Note_on_c, 0, 74, 100
2, 39344, Note_off_c, 0, 74, 100
2, 39360, Note_on_c, 0, 76, 100
2, 39872, Note_off_c, 0, 76, 100
2, 39936, Note_on_c, 0, 79, 100
2, 40020, Note_off_c, 0, 79, 100
2, 40064, Note_on_c, 0, 78, 100
2, 40148, Note_off_c, 0, 78, 100
2, 40192, Note_on_c, 0, 76, 100
2, 40276, Note_off_c, 0, 76, 100
2, 40296, Note_on_c, 0, 76, 100
2, 40312, Note_off_c, 0, 76, 100
2, 40320, Note_on_c, 0, 74, 100
2, 40832, Note_off_c, 0, 74, 100
2, 41088, Note_on_c, 0, 78, 100
2, 41172, Note_off_c, 0, 78, 100
2, 41216, Note_on_c, 0, 79, 100
2, 41300, Note_off_c, 0, 79, 100
2, 41344, Note_on_c, 0, 83, 100
2, 41428, Note_off_c, 0, 83, 100
2, 41472, Note_on_c, 0, 75, 100
2, 41556, Note_off_c, 0, 75, 100
2, 41600, Note_on_c, 0, 76, 100
2, 41684, Note_off_c, 0, 76, 100
2, 41728, Note_on_c, 0, 79, 100
2, 41812, Note_off_c, 0, 79, 100
2, 41856, Note_on_c, 0, 71, 100
2, 41940, Note_off_c, 0, 71, 100
2, 41984, Note_on_c, 0, 72, 100
2, 42068, Note_off_c, 0, 72, 100
2, 42112, Note_on_c, 0, 76, 100
2, 42196, Note_off_c, 0, 76, 100
2, 42240, Note_on_c, 0, 68, 100
2, 42324, Note_off_c, 0, 68, 100
2, 42368, Note_on_c, 0, 69, 100
2, 42452, Note_off_c, 0, 69, 100
2, 42496, Note_on_c, 0, 72, 100
2, 42580, Note_off_c, 0, 72, 100
2, 42624, Note_on_c, 0, 67, 100
2, 43136, Note_off_c, 0, 67, 100
2, 43392, Note_on_c, 0, 66, 100
2, 43408, Note_off_c, 0, 66, 100
2, 43416, Note_on_c, 0, 69, 100
2, 43432, Note_off_c, 0, 69, 100
2, 43440, Note_on_c, 0, 66, 100
2, 43456, Note_off_c, 0, 66, 100
2, 43464, Note_on_c, 0, 67, 100
2, 43480, Note_off_c, 0, 67, 100
2, 43488, Note_on_c, 0, 66, 100
2, 43504, Note_off_c, 0, 66, 100
2, 43512, Note_on_c, 0, 67, 100
2, 43528, Note_off_c, 0, 67, 100
2, 43536, Note_on_c, 0, 66, 100
2, 43552, Note_off_c, 0, 66, 100
2, 43560, Note_on_c, 0, 67, 100
2, 43576, Note_off_c, 0, 67, 100
2, 43584, Note_on_c, 0, 66, 100
2, 43600, Note_off_c, 0, 66, 100
2, 43608, Note_on_c, 0, 67, 100
2, 43624, Note_off_c, 0, 67, 100
2, 43632, Note_on_c, 0, 66, 100
2, 43648, Note_off_c, 0, 66, 100
2, 43656, Note_on_c, 0, 67, 100
2, 43672, Note_off_c, 0, 67, 100
2, 43680, Note_on_c, 0, 66, 100
2, 43696, Note_off_c, 0, 66, 100
2, 43704, Note_on_c, 0, 67, 100
2, 43720, Note_off_c, 0, 67, 100
2, 43728, Note_on_c, 0, 66, 100
2, 43744, Note_off_c, 0, 66, 100
2, 43752, Note_on_c, 0, 67, 100
2, 43768, Note_off_c, 0, 67, 100
2, 43776, Note_on_c, 0, 74, 100
2, 44032, Note_off_c, 0, 74, 100
2, 44160, Note_on_c, 0, 79, 100
2, 44244, Note_off_c, 0, 79, 100
2, 44288, Note_on_c, 0, 74, 100
2, 44372, Note_off_c, 0, 74, 100
2, 44416, Note_on_c, 0, 71, 100
2, 44500, Note_off_c, 0, 71, 100
2, 44544, Note_on_c, 0, 74, 100
2, 44628, Note_off_c, 0, 74, 100
2, 44672, Note_on_c, 0, 71, 100
2, 44756, Note_off_c, 0, 71, 100
2, 44800, Note_on_c, 0, 67, 100
2, 44884, Note_off_c, 0, 67, 100
2, 44928, Note_on_c, 0, 67, 100
2, 45012, Note_off_c, 0, 67, 100
2, 45056, Note_on_c, 0, 66, 100
2, 45140, Note_off_c, 0, 66, 100
2, 45184, Note_on_c, 0, 62, 100
2, 45268, Note_off_c, 0, 62, 100
2, 45312, Note_on_c, 0, 72, 100
2, 45312, Note_on_c, 0, 69, 100
2, 45568, Note_off_c, 0, 72, 100
2, 45568, Note_off_c, 0, 69, 100
2, 45696, Note_on_c, 0, 71, 100
2, 45696, Note_on_c, 0, 67, 100
2, 45952, Note_off_c, 0, 71, 100
2, 45952, Note_off_c, 0, 67, 100
2, 46080, Note_on_c, 0, 64, 100
2, 46164, Note_off_c, 0, 64, 100
2, 46208, Note_on_c, 0, 68, 100
2, 46292, Note_off_c, 0, 68, 100
2, 46336, Note_on_c, 0, 69, 100
2, 46420, Note_off_c, 0, 69, 100
2, 46464, Note_on_c, 0, 71, 100
2, 46548, Note_off_c, 0, 71, 100
2, 46592, Note_on_c, 0, 72, 100
2, 46676, Note_off_c, 0, 72, 100
2, 46720, Note_on_c, 0, 74, 100
2, 46804, Note_off_c, 0, 74, 100
2, 46848, Note_on_c, 0, 76, 100
2, 46932, Note_off_c, 0, 76, 100
2, 46976, Note_on_c, 0, 72, 100
2, 47060, Note_off_c, 0, 72, 100
2, 47104, Note_on_c, 0, 69, 100
2, 47188, Note_off_c, 0, 69, 100
2, 47232, Note_on_c, 0, 67, 100
2, 47744, Note_off_c, 0, 67, 100
2, 48000, Note_on_c, 0, 66, 100
2, 48256, Note_off_c, 0, 66, 100
2, 49536, Note_on_c, 0, 67, 100
2, 49620, Note_off_c, 0, 67, 100
2, 49664, Note_on_c, 0, 66, 100
2, 49748, Note_off_c, 0, 66, 100
2, 49792, Note_on_c, 0, 62, 100
2, 49876, Note_off_c, 0, 62, 100
2, 49920, Note_on_c, 0, 72, 100
2, 49920, Note_on_c, 0, 66, 100
2, 50176, Note_off_c, 0, 72, 100
2, 50176, Note_off_c, 0, 66, 100
2, 50304, Note_on_c, 0, 71, 100
2, 50304, Note_on_c, 0, 67, 100
2, 50560, Note_off_c, 0, 71, 100
2, 50560, Note_off_c, 0, 67, 100
2, 50688, Note_on_c, 0, 79, 100
2, 50772, Note_off_c, 0, 79, 100
2, 50816, Note_on_c, 0, 78, 100
2, 50900, Note_off_c, 0, 78, 100
2, 50944, Note_on_c, 0, 74, 100
2, 51028, Note_off_c, 0, 74, 100
2, 51072, Note_on_c, 0, 69, 100
2, 51072, Note_on_c, 0, 84, 100
2, 51072, Note_on_c, 0, 78, 100
2, 51328, Note_off_c, 0, 69, 100
2, 51328, Note_off_c, 0, 84, 100
2, 51328, Note_off_c, 0, 78, 100
2, 51456, Note_on_c, 0, 67, 100
2, 51456, Note_on_c, 0, 83, 100
2, 51456, Note_on_c, 0, 79, 100
2, 51712, Note_off_c, 0, 67, 100
2, 51712, Note_off_c, 0, 83, 100
2, 51712, Note_off_c, 0, 79, 100
2, 51840, Note_on_c, 0, 67, 100
2, 51924, Note_off_c, 0, 67, 100
2, 51968, Note_on_c, 0, 66, 100
2, 52052, Note_off_c, 0, 66, 100
2, 52096, Note_on_c, 0, 62, 100
2, 52180, Note_off_c, 0, 62, 100
2, 52224, Note_on_c, 0, 76, 100
2, 52224, Note_on_c, 0, 72, 100
2, 52480, Note_off_c, 0, 76, 100
2, 52480, Note_off_c, 0, 72, 100
2, 52608, Note_on_c, 0, 74, 100
2, 52608, Note_on_c, 0, 71, 100
2, 52864, Note_off_c, 0, 74, 100
2, 52864, Note_off_c, 0, 71, 100
2, 52992, Note_on_c, 0, 68, 100
2, 53076, Note_off_c, 0, 68, 100
2, 53120, Note_on_c, 0, 69, 100
2, 53204, Note_off_c, 0, 69, 100
2, 53248, Note_on_c, 0, 72, 100
2, 53332, Note_off_c, 0, 72, 100
2, 53376, Note_on_c, 0, 76, 100
2, 53460, Note_off_c, 0, 76, 100
2, 53504, Note_on_c, 0, 72, 100
2, 53588, Note_off_c, 0, 72, 100
2, 53632, Note_on_c, 0, 69, 100
2, 53716, Note_off_c, 0, 69, 100
2, 53760, Note_on_c, 0, 72, 100
2, 53844, Note_off_c, 0, 72, 100
2, 53888, Note_on_c, 0, 69, 100
2, 53972, Note_off_c, 0, 69, 100
2, 54016, Note_on_c, 0, 66, 100
2, 54100, Note_off_c, 0, 66, 100
2, 54144, Note_on_c, 0, 66, 100
2, 54144, Note_on_c, 0, 60, 100
2, 54656, Note_off_c, 0, 66, 100
2, 54656, Note_off_c, 0, 60, 100
2, 54912, Note_on_c, 0, 67, 100
2, 54912, Note_on_c, 0, 59, 100
2, 55168, Note_off_c, 0, 67, 100
2, 55168, Note_off_c, 0, 59, 100
2, 55296, Note_on_c, 0, 79, 100
2, 55380, Note_off_c, 0, 79, 100
2, 55424, Note_on_c, 0, 78, 100
2, 55508, Note_off_c, 0, 78, 100
2, 55552, Note_on_c, 0, 81, 100
2, 55636, Note_off_c, 0, 81, 100
2, 55680, Note_on_c, 0, 86, 100
2, 55936, Note_off_c, 0, 86, 100
2, 56192, Note_on_c, 0, 83, 100
2, 56276, Note_off_c, 0, 83, 100
2, 56320, Note_on_c, 0, 79, 100
2, 56404, Note_off_c, 0, 79, 100
2, 56448, Note_on_c, 0, 78, 100
2, 56532, Note_off_c, 0, 78, 100
2, 56576, Note_on_c, 0, 74, 100
2, 56660, Note_off_c, 0, 74, 100
2, 56704, Note_on_c, 0, 81, 100
2, 56788, Note_off_c, 0, 81, 100
2, 56832, Note_on_c, 0, 86, 100
2, 57088, Note_off_c, 0, 86, 100
2, 57344, Note_on_c, 0, 83, 100
2, 57428, Note_off_c, 0, 83, 100
2, 57472, Note_on_c, 0, 79, 100
2, 57556, Note_off_c, 0, 79, 100
2, 57600, Note_on_c, 0, 79, 100
2, 57684, Note_off_c, 0, 79, 100
2, 57728, Note_on_c, 0, 78, 100
2, 57812, Note_off_c, 0, 78, 100
2, 57856, Note_on_c, 0, 81, 100
2, 57940, Note_off_c, 0, 81, 100
2, 57984, Note_on_c, 0, 86, 100
2, 58240, Note_off_c, 0, 86, 100
2, 58496, Note_on_c, 0, 83, 100
2, 58580, Note_off_c, 0, 83, 100
2, 58624, Note_on_c, 0, 79, 100
2, 58708, Note_off_c, 0, 79, 100
2, 58752, Note_on_c, 0, 78, 100
2, 58836, Note_off_c, 0, 78, 100
2, 58880, Note_on_c, 0, 74, 100
2, 58964, Note_off_c, 0, 74, 100
2, 59008, Note_on_c, 0, 81, 100
2, 59092, Note_off_c, 0, 81, 100
2, 59136, Note_on_c, 0, 86, 100
2, 59392, Note_off_c, 0, 86, 100
2, 59648, Note_on_c, 0, 83, 100
2, 59732, Note_off_c, 0, 83, 100
2, 59776, Note_on_c, 0, 79, 100
2, 59860, Note_off_c, 0, 79, 100
2, 59904, Note_on_c, 0, 76, 100
2, 59988, Note_off_c, 0, 76, 100
2, 60032, Note_on_c, 0, 78, 100
2, 60116, Note_off_c, 0, 78, 100
2, 60160, Note_on_c, 0, 79, 100
2, 60244, Note_off_c, 0, 79, 100
2, 60288, Note_on_c, 0, 74, 100
2, 60372, Note_off_c, 0, 74, 100
2, 60416, Note_on_c, 0, 78, 100
2, 60500, Note_off_c, 0, 78, 100
2, 60544, Note_on_c, 0, 79, 100
2, 60628, Note_off_c, 0, 79, 100
2, 60672, Note_on_c, 0, 72, 100
2, 60756, Note_off_c, 0, 72, 100
2, 60800, Note_on_c, 0, 79, 100
2, 60884, Note_off_c, 0, 79, 100
2, 60928, Note_on_c, 0, 81, 100
2, 61012, Note_off_c, 0, 81, 100
2, 61056, Note_on_c, 0, 71, 100
2, 61140, Note_off_c, 0, 71, 100
2, 61184, Note_on_c, 0, 83, 100
2, 61268, Note_off_c, 0, 83, 100
2, 61312, Note_on_c, 0, 81, 100
2, 61396, Note_off_c, 0, 81, 100
2, 61440, Note_on_c, 0, 79, 100
2, 61524, Note_off_c, 0, 79, 100
2, 61568, Note_on_c, 0, 78, 100
2, 61652, Note_off_c, 0, 78, 100
2, 61696, Note_on_c, 0, 76, 100
2, 61780, Note_off_c, 0, 76, 100
2, 61824, Note_on_c, 0, 74, 100
2, 61908, Note_off_c, 0, 74, 100
2, 61952, Note_on_c, 0, 72, 100
2, 62036, Note_off_c, 0, 72, 100
2, 62080, Note_on_c, 0, 71, 100
2, 62164, Note_off_c, 0, 71, 100
2, 62208, Note_on_c, 0, 69, 100
2, 62292, Note_off_c, 0, 69, 100
2, 62336, Note_on_c, 0, 72, 100
2, 62420, Note_off_c, 0, 72, 100
2, 62464, Note_on_c, 0, 76, 100
2, 62548, Note_off_c, 0, 76, 100
2, 62592, Note_on_c, 0, 67, 100
2, 62848, Note_off_c, 0, 67, 100
2, 62976, Note_on_c, 0, 66, 100
2, 63232, Note_off_c, 0, 66, 100
2, 63360, Note_on_c, 0, 66, 100
2, 63360, Note_on_c, 0, 60, 100
2, 63872, Note_off_c, 0, 66, 100
2, 63872, Note_off_c, 0, 60, 100
2, 64128, Note_on_c, 0, 67, 100
2, 64128, Note_on_c, 0, 59, 100
2, 64384, Note_off_c, 0, 67, 100
2, 64384, Note_off_c, 0, 59, 100
2, 64512, Note_on_c, 0, 74, 100
2, 64544, Note_off_c, 0, 74, 100
2, 64560, Note_on_c, 0, 76, 100
2, 64592, Note_off_c, 0, 76, 100
2, 64608, Note_on_c, 0, 74, 100
2, 64640, Note_off_c, 0, 74, 100
2, 64656, Note_on_c, 0, 72, 100
2, 64688, Note_off_c, 0, 72, 100
2, 64704, Note_on_c, 0, 74, 100
2, 64832, Note_off_c, 0, 74, 100
2, 64896, Note_on_c, 0, 86, 100
2, 64980, Note_off_c, 0, 86, 100
2, 65024, Note_on_c, 0, 81, 100
2, 65108, Note_off_c, 0, 81, 100
2, 65152, Note_on_c, 0, 78, 100
2, 65236, Note_off_c, 0, 78, 100
2, 65280, Note_on_c, 0, 81, 100
2, 65364, Note_off_c, 0, 81, 100
2, 65408, Note_on_c, 0, 78, 100
2, 65492, Note_off_c, 0, 78, 100
2, 65536, Note_on_c, 0, 74, 100
2, 65620, Note_off_c, 0, 74, 100
2, 65664, Note_on_c, 0, 74, 100
2, 66176, Note_off_c, 0, 74, 100
2, 66432, Note_on_c, 0, 73, 100
2, 66448, Note_off_c, 0, 73, 100
2, 66456, Note_on_c, 0, 74, 100
2, 66472, Note_off_c, 0, 74, 100
2, 66480, Note_on_c, 0, 73, 100
2, 66496, Note_off_c, 0, 73, 100
2, 66504, Note_on_c, 0, 74, 100
2, 66520, Note_off_c, 0, 74, 100
2, 66528, Note_on_c, 0, 73, 100
2, 66544, Note_off_c, 0, 73, 100
2, 66552, Note_on_c, 0, 74, 100
2, 66568, Note_off_c, 0, 74, 100
2, 66576, Note_on_c, 0, 73, 100
2, 66592, Note_off_c, 0, 73, 100
2, 66600, Note_on_c, 0, 74, 100
2, 66616, Note_off_c, 0, 74, 100
2, 66624, Note_on_c, 0, 73, 100
2, 66640, Note_off_c, 0, 73, 100
2, 66648, Note_on_c, 0, 74, 100
2, 66664, Note_off_c, 0, 74, 100
2, 66672, Note_on_c, 0, 73, 100
2, 66688, Note_off_c, 0, 73, 100
2, 66696, Note_on_c, 0, 74, 100
2, 66712, Note_off_c, 0, 74, 100
2, 66720, Note_on_c, 0, 73, 100
2, 66736, Note_off_c, 0, 73, 100
2, 66744, Note_on_c, 0, 74, 100
2, 66760, Note_off_c, 0, 74, 100
2, 66768, Note_on_c, 0, 73, 100
2, 66784, Note_off_c, 0, 73, 100
2, 66792, Note_on_c, 0, 74, 100
2, 66808, Note_off_c, 0, 74, 100
2, 67200, Note_on_c, 0, 74, 100
2, 67284, Note_off_c, 0, 74, 100
2, 67328, Note_on_c, 0, 78, 100
2, 67412, Note_off_c, 0, 78, 100
2, 67456, Note_on_c, 0, 81, 100
2, 67540, Note_off_c, 0, 81, 100
2, 67584, Note_on_c, 0, 84, 100
2, 67668, Note_off_c, 0, 84, 100
2, 67712, Note_on_c, 0, 81, 100
2, 67796, Note_off_c, 0, 81, 100
2, 67840, Note_on_c, 0, 78, 100
2, 67924, Note_off_c, 0, 78, 100
2, 67968, Note_on_c, 0, 72, 100
2, 68224, Note_off_c, 0, 72, 100
2, 68352, Note_on_c, 0, 71, 100
2, 68384, Note_off_c, 0, 71, 100
2, 68400, Note_on_c, 0, 72, 100
2, 68432, Note_off_c, 0, 72, 100
2, 68448, Note_on_c, 0, 71, 100
2, 68480, Note_off_c, 0, 71, 100
2, 68496, Note_on_c, 0, 69, 100
2, 68528, Note_off_c, 0, 69, 100
2, 68544, Note_on_c, 0, 71, 100
2, 68672, Note_off_c, 0, 71, 100
2, 68736, Note_on_c, 0, 79, 100
2, 68992, Note_off_c, 0, 79, 100
2, 69120, Note_on_c, 0, 75, 100
2, 69248, Note_off_c, 0, 75, 100
2, 69312, Note_on_c, 0, 76, 100
2, 69440, Note_off_c, 0, 76, 100
2, 69504, Note_on_c, 0, 76, 100
2, 69760, Note_off_c, 0, 76, 100
2, 69888, Note_on_c, 0, 79, 100
2, 70144, Note_off_c, 0, 79, 100
2, 70272, Note_on_c, 0, 73, 100
2, 70400, Note_off_c, 0, 73, 100
2, 70464, Note_on_c, 0, 74, 100
2, 70592, Note_off_c, 0, 74, 100
2, 70656, Note_on_c, 0, 74, 100
2, 70912, Note_off_c, 0, 74, 100
2, 71040, Note_on_c, 0, 86, 100
2, 71124, Note_off_c, 0, 86, 100
2, 71168, Note_on_c, 0, 83, 100
2, 71252, Note_off_c, 0, 83, 100
2, 71296, Note_on_c, 0, 79, 100
2, 71380, Note_off_c, 0, 79, 100
2, 71400, Note_on_c, 0, 78, 100
2, 71416, Note_off_c, 0, 78, 100
2, 71424, Note_on_c, 0, 76, 100
2, 71456, Note_off_c, 0, 76, 100
2, 71472, Note_on_c, 0, 78, 100
2, 71504, Note_off_c, 0, 78, 100
2, 71520, Note_on_c, 0, 76, 100
2, 71552, Note_off_c, 0, 76, 100
2, 71568, Note_on_c, 0, 74, 100
2, 71600, Note_off_c, 0, 74, 100
2, 71616, Note_on_c, 0, 76, 100
2, 72128, Note_off_c, 0, 76, 100
2, 72192, Note_on_c, 0, 79, 100
2, 72276, Note_off_c, 0, 79, 100
2, 72320, Note_on_c, 0, 78, 100
2, 72404, Note_off_c, 0, 78, 100
2, 72448, Note_on_c, 0, 76, 100
2, 72532, Note_off_c, 0, 76, 100
2, 72552, Note_on_c, 0, 76, 100
2, 72568, Note_off_c, 0, 76, 100
2, 72576, Note_on_c, 0, 74, 100
2, 73088, Note_off_c, 0, 74, 100
2, 73344, Note_on_c, 0, 78, 100
2, 73428, Note_off_c, 0, 78, 100
2, 73472, Note_on_c, 0, 79, 100
2, 73556, Note_off_c, 0, 79, 100
2, 73600, Note_on_c, 0, 83, 100
2, 73684, Note_off_c, 0, 83, 100
2, 73728, Note_on_c, 0, 75, 100
2, 73812, Note_off_c, 0, 75, 100
2, 73856, Note_on_c, 0, 76, 100
2, 73940, Note_off_c, 0, 76, 100
2, 73984, Note_on_c, 0, 79, 100
2, 74068, Note_off_c, 0, 79, 100
2, 74112, Note_on_c, 0, 71, 100
2, 74196, Note_off_c, 0, 71, 100
2, 74240, Note_on_c, 0, 72, 100
2, 74324, Note_off_c, 0, 72, 100
2, 74368, Note_on_c, 0, 76, 100
2, 74452, Note_off_c, 0, 76, 100
2, 74496, Note_on_c, 0, 68, 100
2, 74580, Note_off_c, 0, 68, 100
2, 74624, Note_on_c, 0, 69, 100
2, 74708, Note_off_c, 0, 69, 100
2, 74752, Note_on_c, 0, 72, 100
2, 74836, Note_off_c, 0, 72, 100
2, 74880, Note_on_c, 0, 67, 100
2, 75392, Note_off_c, 0, 67, 100
2, 75648, Note_on_c, 0, 66, 100
2, 75664, Note_off_c, 0, 66, 100
2, 75672, Note_on_c, 0, 69, 100
2, 75688, Note_off_c, 0, 69, 100
2, 75696, Note_on_c, 0, 66, 100
2, 75712, Note_off_c, 0, 66, 100
2, 75720, Note_on_c, 0, 67, 100
2, 75736, Note_off_c, 0, 67, 100
2, 75744, Note_on_c, 0, 66, 100
2, 75760, Note_off_c, 0, 66, 100
2, 75768, Note_on_c, 0, 67, 100
2, 75784, Note_off_c, 0, 67, 100
2, 75792, Note_on_c, 0, 66, 100
2, 75808, Note_off_c, 0, 66, 100
2, 75816, Note_on_c, 0, 67, 100
2, 75832, Note_off_c, 0, 67, 100
2, 75840, Note_on_c, 0, 66, 100
2, 75856, Note_off_c, 0, 66, 100
2, 75864, Note_on_c, 0, 67, 100
2, 75880, Note_off_c, 0, 67, 100
2, 75888, Note_on_c, 0, 66, 100
2, 75904, Note_off_c, 0, 66, 100
2, 75912, Note_on_c, 0, 67, 100
2, 75928, Note_off_c, 0, 67, 100
2, 75936, Note_on_c, 0, 66, 100
2, 75952, Note_off_c, 0, 66, 100
2, 75960, Note_on_c, 0, 67, 100
2, 75976, Note_off_c, 0, 67, 100
2, 75984, Note_on_c, 0, 66, 100
2, 76000, Note_off_c, 0, 66, 100
2, 76008, Note_on_c, 0, 67, 100
2, 76024, Note_off_c, 0, 67, 100
2, 76032, Note_on_c, 0, 74, 100
2, 76288, Note_off_c, 0, 74, 100
2, 76416, Note_on_c, 0, 79, 100
2, 76500, Note_off_c, 0, 79, 100
2, 76544, Note_on_c, 0, 74, 100
2, 76628, Note_off_c, 0, 74, 100
2, 76672, Note_on_c, 0, 71, 100
2, 76756, Note_off_c, 0, 71, 100
2, 76800, Note_on_c, 0, 74, 100
2, 76884, Note_off_c, 0, 74, 100
2, 76928, Note_on_c, 0, 71, 100
2, 77012, Note_off_c, 0, 71, 100
2, 77056, Note_on_c, 0, 67, 100
2, 77140, Note_off_c, 0, 67, 100
2, 77184, Note_on_c, 0, 67, 100
2, 77268, Note_off_c, 0, 67, 100
2, 77312, Note_on_c, 0, 66, 100
2, 77396, Note_off_c, 0, 66, 100
2, 77440, Note_on_c, 0, 62, 100
2, 77524, Note_off_c, 0, 62, 100
2, 77568, Note_on_c, 0, 72, 100
2, 77568, Note_on_c, 0, 69, 100
2, 77824, Note_off_c, 0, 72, 100
2, 77824, Note_off_c, 0, 69, 100
2, 77952, Note_on_c, 0, 71, 100
2, 77952, Note_on_c, 0, 67, 100
2, 78208, Note_off_c, 0, 71, 100
2, 78208, Note_off_c, 0, 67, 100
2, 78336, Note_on_c, 0, 64, 100
2, 78420, Note_off_c, 0, 64, 100
2, 78464, Note_on_c, 0, 68, 100
2, 78548, Note_off_c, 0, 68, 100
2, 78592, Note_on_c, 0, 69, 100
2, 78676, Note_off_c, 0, 69, 100
2, 78720, Note_on_c, 0, 71, 100
2, 78804, Note_off_c, 0, 71, 100
2, 78848, Note_on_c, 0, 72, 100
2, 78932, Note_off_c, 0, 72, 100
2, 78976, Note_on_c, 0, 74, 100
2, 79060, Note_off_c, 0, 74, 100
2, 79104, Note_on_c, 0, 76, 100
2, 79188, Note_off_c, 0, 76, 100
2, 79232, Note_on_c, 0, 72, 100
2, 79316, Note_off_c, 0, 72, 100
2, 79360, Note_on_c, 0, 69, 100
2, 79444, Note_off_c, 0, 69, 100
2, 79488, Note_on_c, 0, 67, 100
2, 80000, Note_off_c, 0, 67, 100
2, 80256, Note_on_c, 0, 66, 100
2, 80512, Note_off_c, 0, 66, 100
2, 81792, Note_on_c, 0, 67, 100
2, 81876, Note_off_c, 0, 67, 100
2, 81920, Note_on_c, 0, 66, 100
2, 82004, Note_off_c, 0, 66, 100
2, 82048, Note_on_c, 0, 62, 100
2, 82132, Note_off_c, 0, 62, 100
2, 82176, Note_on_c, 0, 72, 100
2, 82176, Note_on_c, 0, 66, 100
2, 82432, Note_off_c, 0, 72, 100
2, 82432, Note_off_c, 0, 66, 100
2, 82560, Note_on_c, 0, 71, 100
2, 82560, Note_on_c, 0, 67, 100
2, 82816, Note_off_c, 0, 71, 100
2, 82816, Note_off_c, 0, 67, 100
2, 82944, Note_on_c, 0, 79, 100
2, 83028, Note_off_c, 0, 79, 100
2, 83072, Note_on_c, 0, 78, 100
2, 83156, Note_off_c, 0, 78, 100
2, 83200, Note_on_c, 0, 74, 100
2, 83284, Note_off_c, 0, 74, 100
2, 83328, Note_on_c, 0, 69, 100
2, 83328, Note_on_c, 0, 84, 100
2, 83328, Note_on_c, 0, 78, 100
2, 83584, Note_off_c, 0, 69, 100
2, 83584, Note_off_c, 0, 84, 100
2, 83584, Note_off_c, 0, 78, 100
2, 83712, Note_on_c, 0, 67, 100
2, 83712, Note_on_c, 0, 83, 100
2, 83712, Note_on_c, 0, 79, 100
2, 83968, Note_off_c, 0, 67, 100
2, 83968, Note_off_c, 0, 83, 100
2, 83968, Note_off_c, 0, 79, 100
2, 84096, Note_on_c, 0, 67, 100
2, 84180, Note_off_c, 0, 67, 100
2, 84224, Note_on_c, 0, 66, 100
2, 84308, Note_off_c, 0, 66, 100
2, 84352, Note_on_c, 0, 62, 100
2, 84436, Note_off_c, 0, 62, 100
2, 84480, Note_on_c, 0, 76, 100
2, 84480, Note_on_c, 0, 72, 100
2, 84736, Note_off_c, 0, 76, 100
2, 84736, Note_off_c, 0, 72, 100
2, 84864, Note_on_c, 0, 74, 100
2, 84864, Note_on_c, 0, 71, 100
2, 85120, Note_off_c, 0, 74, 100
2, 85120, Note_off_c, 0, 71, 100
2, 85248, Note_on_c, 0, 68, 100
2, 85332, Note_off_c, 0, 68, 100
2, 85376, Note_on_c, 0, 69, 100
2, 85460, Note_off_c, 0, 69, 100
2, 85504, Note_on_c, 0, 72, 100
2, 85588, Note_off_c, 0, 72, 100
2, 85632, Note_on_c, 0, 76, 100
2, 85716, Note_off_c, 0, 76, 100
2, 85760, Note_on_c, 0, 72, 100
2, 85844, Note_off_c, 0, 72, 100
2, 85888, Note_on_c, 0, 69, 100
2, 85972, Note_off_c, 0, 69, 100
2, 86016, Note_on_c, 0, 72, 100
2, 86100, Note_off_c, 0, 72, 100
2, 86144, Note_on_c, 0, 69, 100
2, 86228, Note_off_c, 0, 69, 100
2, 86272, Note_on_c, 0, 66, 100
2, 86356, Note_off_c, 0, 66, 100
2, 86400, Note_on_c, 0, 66, 100
2, 86400, Note_on_c, 0, 60, 100
2, 86912, Note_off_c, 0, 66, 100
2, 86912, Note_off_c, 0, 60, 100
2, 87168, Note_on_c, 0, 67, 100
2, 87168, Note_on_c, 0, 59, 100
2, 87424, Note_off_c, 0, 67, 100
2, 87424, Note_off_c, 0, 59, 100
2, 87552, Note_on_c, 0, 79, 100
2, 87636, Note_off_c, 0, 79, 100
2, 87680, Note_on_c, 0, 78, 100
2, 87764, Note_off_c, 0, 78, 100
2, 87808, Note_on_c, 0, 81, 100
2, 87892, Note_off_c, 0, 81, 100
2, 87936, Note_on_c, 0, 86, 100
2, 88192, Note_off_c, 0, 86, 100
2, 88448, Note_on_c, 0, 83, 100
2, 88532, Note_off_c, 0, 83, 100
2, 88576, Note_on_c, 0, 79, 100
2, 88660, Note_off_c, 0, 79, 100
2, 88704, Note_on_c, 0, 78, 100
2, 88788, Note_off_c, 0, 78, 100
2, 88832, Note_on_c, 0, 74, 100
2, 88916, Note_off_c, 0, 74, 100
2, 88960, Note_on_c, 0, 81, 100
2, 89044, Note_off_c, 0, 81, 100
2, 89088, Note_on_c, 0, 86, 100
2, 89344, Note_off_c, 0, 86, 100
2, 89600, Note_on_c, 0, 83, 100
2, 89684, Note_off_c, 0, 83, 100
2, 89728, Note_on_c, 0, 79, 100
2, 89812, Note_off_c, 0, 79, 100
2, 89856, Note_on_c, 0, 79, 100
2, 89940, Note_off_c, 0, 79, 100
2, 89984, Note_on_c, 0, 78, 100
2, 90068, Note_off_c, 0, 78, 100
2, 90112, Note_on_c, 0, 81, 100
2, 90196, Note_off_c, 0, 81, 100
2, 90240, Note_on_c, 0, 86, 100
2, 90496, Note_off_c, 0, 86, 100
2, 90752, Note_on_c, 0, 83, 100
2, 90836, Note_off_c, 0, 83, 100
2, 90880, Note_on_c, 0, 79, 100
2, 90964, Note_off_c, 0, 79, 100
2, 91008, Note_on_c, 0, 78, 100
2, 91092, Note_off_c, 0, 78, 100
2, 91136, Note_on_c, 0, 74, 100
2, 91220, Note_off_c, 0, 74, 100
2, 91264, Note_on_c, 0, 81, 100
2, 91348, Note_off_c, 0, 81, 100
2, 91392, Note_on_c, 0, 86, 100
2, 91648, Note_off_c, 0, 86, 100
2, 91904, Note_on_c, 0, 83, 100
2, 91988, Note_off_c, 0, 83, 100
2, 92032, Note_on_c, 0, 79, 100
2, 92116, Note_off_c, 0, 79, 100
2, 92160, Note_on_c, 0, 76, 100
2, 92244, Note_off_c, 0, 76, 100
2, 92288, Note_on_c, 0, 78, 100
2, 92372, Note_off_c, 0, 78, 100
2, 92416, Note_on_c, 0, 79, 100
2, 92500, Note_off_c, 0, 79, 100
2, 92544, Note_on_c, 0, 74, 100
2, 92628, Note_off_c, 0, 74, 100
2, 92672, Note_on_c, 0, 78, 100
2, 92756, Note_off_c, 0, 78, 100
2, 92800, Note_on_c, 0, 79, 100
2, 92884, Note_off_c, 0, 79, 100
2, 92928, Note_on_c, 0, 72, 100
2, 93012, Note_off_c, 0, 72, 100
2, 93056, Note_on_c, 0, 79, 100
2, 93140, Note_off_c, 0, 79, 100
2, 93184, Note_on_c, 0, 81, 100
2, 93268, Note_off_c, 0, 81, 100
2, 93312, Note_on_c, 0, 71, 100
2, 93396, Note_off_c, 0, 71, 100
2, 93440, Note_on_c, 0, 83, 100
2, 93524, Note_off_c, 0, 83, 100
2, 93568, Note_on_c, 0, 81, 100
2, 93652, Note_off_c, 0, 81, 100
2, 93696, Note_on_c, 0, 79, 100
2, 93780, Note_off_c, 0, 79, 100
2, 93824, Note_on_c, 0, 78, 100
2, 93908, Note_off_c, 0, 78, 100
2, 93952, Note_on_c, 0, 76, 100
2, 94036, Note_off_c, 0, 76, 100
2, 94080, Note_on_c, 0, 74, 100
2, 94164, Note_off_c, 0, 74, 100
2, 94208, Note_on_c, 0, 72, 100
2, 94292, Note_off_c, 0, 72, 100
2, 94336, Note_on_c, 0, 71, 100
2, 94420, Note_off_c, 0, 71, 100
2, 94464, Note_on_c, 0, 69, 100
2, 94548, Note_off_c, 0, 69, 100
2, 94592, Note_on_c, 0, 72, 100
2, 94676, Note_off_c, 0, 72, 100
2, 94720, Note_on_c, 0, 76, 100
2, 94804, Note_off_c, 0, 76, 100
2, 94848, Note_on_c, 0, 67, 100
2, 95104, Note_off_c, 0, 67, 100
2, 95232, Note_on_c, 0, 66, 100
2, 95488, Note_off_c, 0, 66, 100
2, 95616, Note_on_c, 0, 66, 100
2, 95616, Note_on_c, 0, 60, 100
2, 96128, Note_off_c, 0, 66, 100
2, 96128, Note_off_c, 0, 60, 100
2, 96384, Note_on_c, 0, 67, 100
2, 96384, Note_on_c, 0, 59, 100
2, 96640, Note_off_c, 0, 67, 100
2, 96640, Note_off_c, 0, 59, 100
2, 97920, Key_signature, -2, "minor"
2, 97920, Note_on_c, 0, 74, 100
2, 98432, Note_off_c, 0, 74, 100
2, 98664, Note_on_c, 0, 77, 100
2, 98680, Note_off_c, 0, 77, 100
2, 98688, Note_on_c, 0, 75, 100
2, 98944, Note_off_c, 0, 75, 100
2, 99072, Note_on_c, 0, 74, 100
2, 99200, Note_off_c, 0, 74, 100
2, 99264, Note_on_c, 0, 82, 100
2, 99392, Note_off_c, 0, 82, 100
2, 99456, Note_on_c, 0, 81, 100
2, 99584, Note_off_c, 0, 81, 100
2, 99648, Note_on_c, 0, 79, 100
2, 99776, Note_off_c, 0, 79, 100
2, 99840, Note_on_c, 0, 78, 100
2, 99968, Note_off_c, 0, 78, 100
2, 100032, Note_on_c, 0, 79, 100
2, 100160, Note_off_c, 0, 79, 100
2, 100224, Note_on_c, 0, 74, 100
2, 100736, Note_off_c, 0, 74, 100
2, 100968, Note_on_c, 0, 77, 100
2, 100984, Note_off_c, 0, 77, 100
2, 100992, Note_on_c, 0, 75, 100
2, 101248, Note_off_c, 0, 75, 100
2, 101376, Note_on_c, 0, 74, 100
2, 101504, Note_off_c, 0, 74, 100
2, 101568, Note_on_c, 0, 84, 100
2, 101696, Note_off_c, 0, 84, 100
2, 101760, Note_on_c, 0, 81, 100
2, 101888, Note_off_c, 0, 81, 100
2, 101952, Note_on_c, 0, 78, 100
2, 102080, Note_off_c, 0, 78, 100
2, 102144, Note_on_c, 0, 74, 100
2, 102272, Note_off_c, 0, 74, 100
2, 102336, Note_on_c, 0, 72, 100
2, 102464, Note_off_c, 0, 72, 100
2, 102528, Note_on_c, 0, 70, 100
2, 102544, Note_off_c, 0, 70, 100
2, 102552, Note_on_c, 0, 72, 100
2, 102568, Note_off_c, 0, 72, 100
2, 102576, Note_on_c, 0, 70, 100
2, 102592, Note_off_c, 0, 70, 100
2, 102600, Note_on_c, 0, 72, 100
2, 102616, Note_off_c, 0, 72, 100
2, 102624, Note_on_c, 0, 70, 100
2, 102640, Note_off_c, 0, 70, 100
2, 102648, Note_on_c, 0, 72, 100
2, 102664, Note_off_c, 0, 72, 100
2, 102672, Note_on_c, 0, 70, 100
2, 102688, Note_off_c, 0, 70, 100
2, 102696, Note_on_c, 0, 72, 100
2, 102712, Note_off_c, 0, 72, 100
2, 102720, Note_on_c, 0, 70, 100
2, 102736, Note_off_c, 0, 70, 100
2, 102744, Note_on_c, 0, 72, 100
2, 102760, Note_off_c, 0, 72, 100
2, 102768, Note_on_c, 0, 70, 100
2, 102784, Note_off_c, 0, 70, 100
2, 102792, Note_on_c, 0, 72, 100
2, 102808, Note_off_c, 0, 72, 100
2, 102816, Note_on_c, 0, 70, 100
2, 102832, Note_off_c, 0, 70, 100
2, 102840, Note_on_c, 0, 72, 100
2, 102856, Note_off_c, 0, 72, 100
2, 102864, Note_on_c, 0, 70, 100
2, 102880, Note_off_c, 0, 70, 100
2, 102888, Note_on_c, 0, 72, 100
2, 102904, Note_off_c, 0, 72, 100
2, 102912, Note_on_c, 0, 70, 100
2, 102928, Note_off_c, 0, 70, 100
2, 102936, Note_on_c, 0, 72, 100
2, 102952, Note_off_c, 0, 72, 100
2, 102960, Note_on_c, 0, 70, 100
2, 102976, Note_off_c, 0, 70, 100
2, 102984, Note_on_c, 0, 72, 100
2, 103000, Note_off_c, 0, 72, 100
2, 103008, Note_on_c, 0, 70, 100
2, 103024, Note_off_c, 0, 70, 100
2, 103032, Note_on_c, 0, 72, 100
2, 103048, Note_off_c, 0, 72, 100
2, 103056, Note_on_c, 0, 70, 100
2, 103072, Note_off_c, 0, 70, 100
2, 103080, Note_on_c, 0, 72, 100
2, 103096, Note_off_c, 0, 72, 100
2, 103104, Note_on_c, 0, 70, 100
2, 103120, Note_off_c, 0, 70, 100
2, 103128, Note_on_c, 0, 72, 100
2, 103144, Note_off_c, 0, 72, 100
2, 103152, Note_on_c, 0, 70, 100
2, 103168, Note_off_c, 0, 70, 100
2, 103176, Note_on_c, 0, 72, 100
2, 103192, Note_off_c, 0, 72, 100
2, 103200, Note_on_c, 0, 69, 100
2, 103232, Note_off_c, 0, 69, 100
2, 103248, Note_on_c, 0, 70, 100
2, 103280, Note_off_c, 0, 70, 100
2, 103296, Note_on_c, 0, 69, 100
2, 103552, Note_off_c, 0, 69, 100
2, 103680, Note_on_c, 0, 72, 100
2, 103696, Note_off_c, 0, 72, 100
2, 103704, Note_on_c, 0, 74, 100
2, 103720, Note_off_c, 0, 74, 100
2, 103728, Note_on_c, 0, 72, 100
2, 103744, Note_off_c, 0, 72, 100
2, 103752, Note_on_c, 0, 74, 100
2, 103768, Note_off_c, 0, 74, 100
2, 103776, Note_on_c, 0, 72, 100
2, 103792, Note_off_c, 0, 72, 100
2, 103800, Note_on_c, 0, 74, 100
2, 103816, Note_off_c, 0, 74, 100
2, 103824, Note_on_c, 0, 72, 100
2, 103840, Note_off_c, 0, 72, 100
2, 103848, Note_on_c, 0, 74, 100
2, 103864, Note_off_c, 0, 74, 100
2, 103872, Note_on_c, 0, 72, 100
2, 103888, Note_off_c, 0, 72, 100
2, 103896, Note_on_c, 0, 74, 100
2, 103912, Note_off_c, 0, 74, 100
2, 103920, Note_on_c, 0, 72, 100
2, 103936, Note_off_c, 0, 72, 100
2, 103944, Note_on_c, 0, 74, 100
2, 103960, Note_off_c, 0, 74, 100
2, 103968, Note_on_c, 0, 72, 100
2, 103984, Note_off_c, 0, 72, 100
2, 103992, Note_on_c, 0, 74, 100
2, 104008, Note_off_c, 0, 74, 100
2, 104016, Note_on_c, 0, 72, 100
2, 104032, Note_off_c, 0, 72, 100
2, 104040, Note_on_c, 0, 74, 100
2, 104056, Note_off_c, 0, 74, 100
2, 104064, Note_on_c, 0, 72, 100
2, 104080, Note_off_c, 0, 72, 100
2, 104088, Note_on_c, 0, 74, 100
2, 104104, Note_off_c, 0, 74, 100
2, 104112, Note_on_c, 0, 72, 100
2, 104128, Note_off_c, 0, 72, 100
2, 104136, Note_on_c, 0, 74, 100
2, 104152, Note_off_c, 0, 74, 100
2, 104160, Note_on_c, 0, 72, 100
2, 104176, Note_off_c, 0, 72, 100
2, 104184, Note_on_c, 0, 74, 100
2, 104200, Note_off_c, 0, 74, 100
2, 104208, Note_on_c, 0, 72, 100
2, 104224, Note_off_c, 0, 72, 100
2, 104232, Note_on_c, 0, 74, 100
2, 104248, Note_off_c, 0, 74, 100
2, 104256, Note_on_c, 0, 72, 100
2, 104272, Note_off_c, 0, 72, 100
2, 104280, Note_on_c, 0, 74, 100
2, 104296, Note_off_c, 0, 74, 100
2, 104304, Note_on_c, 0, 72, 100
2, 104320, Note_off_c, 0, 72, 100
2, 104328, Note_on_c, 0, 74, 100
2, 104344, Note_off_c, 0, 74, 100
2, 104352, Note_on_c, 0, 70, 100
2, 104384, Note_off_c, 0, 70, 100
2, 104400, Note_on_c, 0, 72, 100
2, 104432, Note_off_c, 0, 72, 100
2, 104448, Note_on_c, 0, 70, 100
2, 104704, Note_off_c, 0, 70, 100
2, 104832, Note_on_c, 0, 67, 100
2, 104960, Note_off_c, 0, 67, 100
2, 105024, Note_on_c, 0, 79, 100
2, 105152, Note_off_c, 0, 79, 100
2, 105216, Note_on_c, 0, 77, 100
2, 105344, Note_off_c, 0, 77, 100
2, 105408, Note_on_c, 0, 75, 100
2, 105536, Note_off_c, 0, 75, 100
2, 105600, Note_on_c, 0, 74, 100
2, 105728, Note_off_c, 0, 74, 100
2, 105792, Note_on_c, 0, 73, 100
2, 105920, Note_off_c, 0, 73, 100
2, 105984, Note_on_c, 0, 73, 100
2, 106496, Note_off_c, 0, 73, 100
2, 106752, Note_on_c, 0, 74, 100
2, 107008, Note_off_c, 0, 74, 100
2, 107136, Note_on_c, 0, 74, 100
2, 107648, Note_off_c, 0, 74, 100
2, 107880, Note_on_c, 0, 77, 100
2, 107896, Note_off_c, 0, 77, 100
2, 107904, Note_on_c, 0, 75, 100
2, 108160, Note_off_c, 0, 75, 100
2, 108288, Note_on_c, 0, 74, 100
2, 108416, Note_off_c, 0, 74, 100
2, 108480, Note_on_c, 0, 82, 100
2, 108608, Note_off_c, 0, 82, 100
2, 108672, Note_on_c, 0, 81, 100
2, 108800, Note_off_c, 0, 81, 100
2, 108864, Note_on_c, 0, 79, 100
2, 108992, Note_off_c, 0, 79, 100
2, 109056, Note_on_c, 0, 78, 100
2, 109184, Note_off_c, 0, 78, 100
2, 109248, Note_on_c, 0, 79, 100
2, 109376, Note_off_c, 0, 79, 100
2, 109440, Note_on_c, 0, 74, 100
2, 109952, Note_off_c, 0, 74, 100
2, 110184, Note_on_c, 0, 77, 100
2, 110200, Note_off_c, 0, 77, 100
2, 110208, Note_on_c, 0, 75, 100
2, 110464, Note_off_c, 0, 75, 100
2, 110592, Note_on_c, 0, 74, 100
2, 110720, Note_off_c, 0, 74, 100
2, 110784, Note_on_c, 0, 84, 100
2, 110912, Note_off_c, 0, 84, 100
2, 110976, Note_on_c, 0, 81, 100
2, 111104, Note_off_c, 0, 81, 100
2, 111168, Note_on_c, 0, 78, 100
2, 111296, Note_off_c, 0, 78, 100
2, 111360, Note_on_c, 0, 74, 100
2, 111488, Note_off_c, 0, 74, 100
2, 111552, Note_on_c, 0, 72, 100
2, 111680, Note_off_c, 0, 72, 100
2, 111744, Note_on_c, 0, 70, 100
2, 111760, Note_off_c, 0, 70, 100
2, 111768, Note_on_c, 0, 72, 100
2, 111784, Note_off_c, 0, 72, 100
2, 111792, Note_on_c, 0, 70, 100
2, 111808, Note_off_c, 0, 70, 100
2, 111816, Note_on_c, 0, 72, 100
2, 111832, Note_off_c, 0, 72, 100
2, 111840, Note_on_c, 0, 70, 100
2, 111856, Note_off_c, 0, 70, 100
2, 111864, Note_on_c, 0, 72, 100
2, 111880, Note_off_c, 0, 72, 100
2, 111888, Note_on_c, 0, 70, 100
2, 111904, Note_off_c, 0, 70, 100
2, 111912, Note_on_c, 0, 72, 100
2, 111928, Note_off_c, 0, 72, 100
2, 111936, Note_on_c, 0, 70, 100
2, 111952, Note_off_c, 0, 70, 100
2, 111960, Note_on_c, 0, 72, 100
2, 111976, Note_off_c, 0, 72, 100
2, 111984, Note_on_c, 0, 70, 100
2, 112000, Note_off_c, 0, 70, 100
2, 112008, Note_on_c, 0, 72, 100
2, 112024, Note_off_c, 0, 72, 100
2, 112032, Note_on_c, 0, 70, 100
2, 112048, Note_off_c, 0, 70, 100
2, 112056, Note_on_c, 0, 72, 100
2, 112072, Note_off_c, 0, 72, 100
2, 112080, Note_on_c, 0, 70, 100
2, 112096, Note_off_c, 0, 70, 100
2, 112104, Note_on_c, 0, 72, 100
2, 112120, Note_off_c, 0, 72, 100
2, 112128, Note_on_c, 0, 70, 100
2, 112144, Note_off_c, 0, 70, 100
2, 112152, Note_on_c, 0, 72, 100
2, 112168, Note_off_c, 0, 72, 100
2, 112176, Note_on_c, 0, 70, 100
2, 112192, Note_off_c, 0, 70, 100
2, 112200, Note_on_c, 0, 72, 100
2, 112216, Note_off_c, 0, 72, 100
2, 112224, Note_on_c, 0, 70, 100
2, 112240, Note_off_c, 0, 70, 100
2, 112248, Note_on_c, 0, 72, 100
2, 112264, Note_off_c, 0, 72, 100
2, 112272, Note_on_c, 0, 70, 100
2, 112288, Note_off_c, 0, 70, 100
2, 112296, Note_on_c, 0, 72, 100
2, 112312, Note_off_c, 0, 72, 100
2, 112320, Note_on_c, 0, 70, 100
2, 112336, Note_off_c, 0, 70, 100
2, 112344, Note_on_c, 0, 72, 100
2, 112360, Note_off_c, 0, 72, 100
2, 112368, Note_on_c, 0, 70, 100
2, 112384, Note_off_c, 0, 70, 100
2, 112392, Note_on_c, 0, 72, 100
2, 112408, Note_off_c, 0, 72, 100
2, 112416, Note_on_c, 0, 69, 100
2, 112448, Note_off_c, 0, 69, 100
2, 112464, Note_on_c, 0, 70, 100
2, 112496, Note_off_c, 0, 70, 100
2, 112512, Note_on_c, 0, 69, 100
2, 112768, Note_off_c, 0, 69, 100
2, 112896, Note_on_c, 0, 72, 100
2, 112912, Note_off_c, 0, 72, 100
2, 112920, Note_on_c, 0, 74, 100
2, 112936, Note_off_c, 0, 74, 100
2, 112944, Note_on_c, 0, 72, 100
2, 112960, Note_off_c, 0, 72, 100
2, 112968, Note_on_c, 0, 74, 100
2, 112984, Note_off_c, 0, 74, 100
2, 112992, Note_on_c, 0, 72, 100
2, 113008, Note_off_c, 0, 72, 100
2, 113016, Note_on_c, 0, 74, 100
2, 113032, Note_off_c, 0, 74, 100
2, 113040, Note_on_c, 0, 72, 100
2, 113056, Note_off_c, 0, 72, 100
2, 113064, Note_on_c, 0, 74, 100
2, 113080, Note_off_c, 0, 74, 100
2, 113088, Note_on_c, 0, 72, 100
2, 113104, Note_off_c, 0, 72, 100
2, 113112, Note_on_c, 0, 74, 100
2, 113128, Note_off_c, 0, 74, 100
2, 113136, Note_on_c, 0, 72, 100
2, 113152, Note_off_c, 0, 72, 100
2, 113160, Note_on_c, 0, 74, 100
2, 113176, Note_off_c, 0, 74, 100
2, 113184, Note_on_c, 0, 72, 100
2, 113200, Note_off_c, 0, 72, 100
2, 113208, Note_on_c, 0, 74, 100
2, 113224, Note_off_c, 0, 74, 100
2, 113232, Note_on_c, 0, 72, 100
2, 113248, Note_off_c, 0, 72, 100
2, 113256, Note_on_c, 0, 74, 100
2, 113272, Note_off_c, 0, 74, 100
2, 113280, Note_on_c, 0, 72, 100
2, 113296, Note_off_c, 0, 72, 100
2, 113304, Note_on_c, 0, 74, 100
2, 113320, Note_off_c, 0, 74, 100
2, 113328, Note_on_c, 0, 72, 100
2, 113344, Note_off_c, 0, 72, 100
2, 113352, Note_on_c, 0, 74, 100
2, 113368, Note_off_c, 0, 74, 100
2, 113376, Note_on_c, 0, 72, 100
2, 113392, Note_off_c, 0, 72, 100
2, 113400, Note_on_c, 0, 74, 100
2, 113416, Note_off_c, 0, 74, 100
2, 113424, Note_on_c, 0, 72, 100
2, 113440, Note_off_c, 0, 72, 100
2, 113448, Note_on_c, 0, 74, 100
2, 113464, Note_off_c, 0, 74, 100
2, 113472, Note_on_c, 0, 72, 100
2, 113488, Note_off_c, 0, 72, 100
2, 113496, Note_on_c, 0, 74, 100
2, 113512, Note_off_c, 0, 74, 100
2, 113520, Note_on_c, 0, 72, 100
2, 113536, Note_off_c, 0, 72, 100
2, 113544, Note_on_c, 0, 74, 100
2, 113560, Note_off_c, 0, 74, 100
2, 113568, Note_on_c, 0, 70, 100
2, 113600, Note_off_c, 0, 70, 100
2, 113616, Note_on_c, 0, 72, 100
2, 113648, Note_off_c, 0, 72, 100
2, 113664, Note_on_c, 0, 70, 100
2, 113920, Note_off_c, 0, 70, 100
2, 114048, Note_on_c, 0, 67, 100
2, 114176, Note_off_c, 0, 67, 100
2, 114240, Note_on_c, 0, 79, 100
2, 114368, Note_off_c, 0, 79, 100
2, 114432, Note_on_c, 0, 77, 100
2, 114560, Note_off_c, 0, 77, 100
2, 114624, Note_on_c, 0, 75, 100
2, 114752, Note_off_c, 0, 75, 100
2, 114816, Note_on_c, 0, 74, 100
2, 114944, Note_off_c, 0, 74, 100
2, 115008, Note_on_c, 0, 73, 100
2, 115136, Note_off_c, 0, 73, 100
2, 115200, Note_on_c, 0, 73, 100
2, 115712, Note_off_c, 0, 73, 100
2, 115968, Note_on_c, 0, 74, 100
2, 116224, Note_off_c, 0, 74, 100
2, 116352, Note_on_c, 0, 62, 100
2, 116352, Note_on_c, 0, 65, 100
2, 116864, Note_off_c, 0, 62, 100
2, 116864, Note_off_c, 0, 65, 100
2, 117096, Note_on_c, 0, 69, 100
2, 117112, Note_off_c, 0, 69, 100
2, 117120, Note_on_c, 0, 67, 100
2, 117120, Note_on_c, 0, 63, 100
2, 117376, Note_off_c, 0, 67, 100
2, 117376, Note_off_c, 0, 63, 100
2, 117504, Note_on_c, 0, 65, 100
2, 117504, Note_on_c, 0, 62, 100
2, 117760, Note_off_c, 0, 65, 100
2, 117760, Note_off_c, 0, 62, 100
2, 118248, Note_on_c, 0, 77, 100
2, 118264, Note_off_c, 0, 77, 100
2, 118272, Note_on_c, 0, 75, 100
2, 118272, Note_on_c, 0, 69, 100
2, 118528, Note_off_c, 0, 75, 100
2, 118528, Note_off_c, 0, 69, 100
2, 118656, Note_on_c, 0, 74, 100
2, 118656, Note_on_c, 0, 70, 100
2, 118912, Note_off_c, 0, 74, 100
2, 118912, Note_off_c, 0, 70, 100
2, 119400, Note_on_c, 0, 81, 100
2, 119416, Note_off_c, 0, 81, 100
2, 119424, Note_on_c, 0, 79, 100
2, 119424, Note_on_c, 0, 75, 100
2, 119680, Note_off_c, 0, 79, 100
2, 119680, Note_off_c, 0, 75, 100
2, 119808, Note_on_c, 0, 77, 100
2, 119808, Note_on_c, 0, 74, 100
2, 120064, Note_off_c, 0, 77, 100
2, 120064, Note_off_c, 0, 74, 100
2, 120576, Note_on_c, 0, 82, 100
2, 120704, Note_off_c, 0, 82, 100
2, 120768, Note_on_c, 0, 81, 100
2, 120896, Note_off_c, 0, 81, 100
2, 120960, Note_on_c, 0, 81, 100
2, 121088, Note_off_c, 0, 81, 100
2, 121152, Note_on_c, 0, 79, 100
2, 121280, Note_off_c, 0, 79, 100
2, 121344, Note_on_c, 0, 79, 100
2, 121472, Note_off_c, 0, 79, 100
2, 121536, Note_on_c, 0, 77, 100
2, 121664, Note_off_c, 0, 77, 100
2, 121728, Note_on_c, 0, 77, 100
2, 121856, Note_off_c, 0, 77, 100
2, 121920, Note_on_c, 0, 75, 100
2, 122048, Note_off_c, 0, 75, 100
2, 122112, Note_on_c, 0, 75, 100
2, 122144, Note_off_c, 0, 75, 100
2, 122160, Note_on_c, 0, 77, 100
2, 122192, Note_off_c, 0, 77, 100
2, 122208, Note_on_c, 0, 75, 100
2, 122240, Note_off_c, 0, 75, 100
2, 122256, Note_on_c, 0, 74, 100
2, 122288, Note_off_c, 0, 74, 100
2, 122304, Note_on_c, 0, 75, 100
2, 122816, Note_off_c, 0, 75, 100
2, 122856, Note_on_c, 0, 77, 100
2, 122872, Note_off_c, 0, 77, 100
2, 122880, Note_on_c, 0, 75, 100
2, 123008, Note_off_c, 0, 75, 100
2, 123072, Note_on_c, 0, 74, 100
2, 123200, Note_off_c, 0, 74, 100
2, 123240, Note_on_c, 0, 75, 100
2, 123256, Note_off_c, 0, 75, 100
2, 123264, Note_on_c, 0, 74, 100
2, 123392, Note_off_c, 0, 74, 100
2, 123456, Note_on_c, 0, 72, 100
2, 123584, Note_off_c, 0, 72, 100
2, 123624, Note_on_c, 0, 74, 100
2, 123640, Note_off_c, 0, 74, 100
2, 123648, Note_on_c, 0, 72, 100
2, 123776, Note_off_c, 0, 72, 100
2, 123840, Note_on_c, 0, 70, 100
2, 123968, Note_off_c, 0, 70, 100
2, 124008, Note_on_c, 0, 72, 100
2, 124024, Note_off_c, 0, 72, 100
2, 124032, Note_on_c, 0, 70, 100
2, 124160, Note_off_c, 0, 70, 100
2, 124224, Note_on_c, 0, 69, 100
2, 124352, Note_off_c, 0, 69, 100
2, 124392, Note_on_c, 0, 69, 100
2, 124408, Note_off_c, 0, 69, 100
2, 124416, Note_on_c, 0, 70, 100
2, 124928, Note_off_c, 0, 70, 100
2, 125568, Note_on_c, 0, 74, 100
2, 126080, Note_off_c, 0, 74, 100
2, 126312, Note_on_c, 0, 77, 100
2, 126328, Note_off_c, 0, 77, 100
2, 126336, Note_on_c, 0, 75, 100
2, 126592, Note_off_c, 0, 75, 100
2, 126720, Note_on_c, 0, 74, 100
2, 126848, Note_off_c, 0, 74, 100
2, 126912, Note_on_c, 0, 82, 100
2, 127040, Note_off_c, 0, 82, 100
2, 127104, Note_on_c, 0, 81, 100
2, 127232, Note_off_c, 0, 81, 100
2, 127296, Note_on_c, 0, 79, 100
2, 127424, Note_off_c, 0, 79, 100
2, 127488, Note_on_c, 0, 78, 100
2, 127616, Note_off_c, 0, 78, 100
2, 127680, Note_on_c, 0, 79, 100
2, 127808, Note_off_c, 0, 79, 100
2, 127872, Note_on_c, 0, 74, 100
2, 128384, Note_off_c, 0, 74, 100
2, 128616, Note_on_c, 0, 77, 100
2, 128632, Note_off_c, 0, 77, 100
2, 128640, Note_on_c, 0, 75, 100
2, 128896, Note_off_c, 0, 75, 100
2, 129024, Note_on_c, 0, 74, 100
2, 129152, Note_off_c, 0, 74, 100
2, 129216, Note_on_c, 0, 84, 100
2, 129344, Note_off_c, 0, 84, 100
2, 129408, Note_on_c, 0, 81, 100
2, 129536, Note_off_c, 0, 81, 100
2, 129600, Note_on_c, 0, 78, 100
2, 129728, Note_off_c, 0, 78, 100
2, 129792, Note_on_c, 0, 74, 100
2, 129920, Note_off_c, 0, 74, 100
2, 129984, Note_on_c, 0, 72, 100
2, 130112, Note_off_c, 0, 72, 100
2, 130176, Note_on_c, 0, 70, 100
2, 130192, Note_off_c, 0, 70, 100
2, 130200, Note_on_c, 0, 72, 100
2, 130216, Note_off_c, 0, 72, 100
2, 130224, Note_on_c, 0, 70, 100
2, 130240, Note_off_c, 0, 70, 100
2, 130248, Note_on_c, 0, 72, 100
2, 130264, Note_off_c, 0, 72, 100
2, 130272, Note_on_c, 0, 70, 100
2, 130288, Note_off_c, 0, 70, 100
2, 130296, Note_on_c, 0, 72, 100
2, 130312, Note_off_c, 0, 72, 100
2, 130320, Note_on_c, 0, 70, 100
2, 130336, Note_off_c, 0, 70, 100
2, 130344, Note_on_c, 0, 72, 100
2, 130360, Note_off_c, 0, 72, 100
2, 130368, Note_on_c, 0, 70, 100
2, 130384, Note_off_c, 0, 70, 100
2, 130392, Note_on_c, 0, 72, 100
2, 130408, Note_off_c, 0, 72, 100
2, 130416, Note_on_c, 0, 70, 100
2, 130432, Note_off_c, 0, 70, 100
2, 130440, Note_on_c, 0, 72, 100
2, 130456, Note_off_c, 0, 72, 100
2, 130464, Note_on_c, 0, 70, 100
2, 130480, Note_off_c, 0, 70, 100
2, 130488, Note_on_c, 0, 72, 100
2, 130504, Note_off_c, 0, 72, 100
2, 130512, Note_on_c, 0, 70, 100
2, 130528, Note_off_c, 0, 70, 100
2, 130536, Note_on_c, 0, 72, 100
2, 130552, Note_off_c, 0, 72, 100
2, 130560, Note_on_c, 0, 70, 100
2, 130576, Note_off_c, 0, 70, 100
2, 130584, Note_on_c, 0, 72, 100
2, 130600, Note_off_c, 0, 72, 100
2, 130608, Note_on_c, 0, 70, 100
2, 130624, Note_off_c, 0, 70, 100
2, 130632, Note_on_c, 0, 72, 100
2, 130648, Note_off_c, 0, 72, 100
2, 130656, Note_on_c, 0, 70, 100
2, 130672, Note_off_c, 0, 70, 100
2, 130680, Note_on_c, 0, 72, 100
2, 130696, Note_off_c, 0, 72, 100
2, 130704, Note_on_c, 0, 70, 100
2, 130720, Note_off_c, 0, 70, 100
2, 130728, Note_on_c, 0, 72, 100
2, 130744, Note_off_c, 0, 72, 100
2, 130752, Note_on_c, 0, 70, 100
2, 130768, Note_off_c, 0, 70, 100
2, 130776, Note_on_c, 0, 72, 100
2, 130792, Note_off_c, 0, 72, 100
2, 130800, Note_on_c, 0, 70, 100
2, 130816, Note_off_c, 0, 70, 100
2, 130824, Note_on_c, 0, 72, 100
2, 130840, Note_off_c, 0, 72, 100
2, 130848, Note_on_c, 0, 69, 100
2, 130880, Note_off_c, 0, 69, 100
2, 130896, Note_on_c, 0, 70, 100
2, 130928, Note_off_c, 0, 70, 100
2, 130944, Note_on_c, 0, 69, 100
2, 131200, Note_off_c, 0, 69, 100
2, 131328, Note_on_c, 0, 72, 100
2, 131344, Note_off_c, 0, 72, 100
2, 131352, Note_on_c, 0, 74, 100
2, 131368, Note_off_c, 0, 74, 100
2, 131376, Note_on_c, 0, 72, 100
2, 131392, Note_off_c, 0, 72, 100
2, 131400, Note_on_c, 0, 74, 100
2, 131416, Note_off_c, 0, 74, 100
2, 131424, Note_on_c, 0, 72, 100
2, 131440, Note_off_c, 0, 72, 100
2, 131448, Note_on_c, 0, 74, 100
2, 131464, Note_off_c, 0, 74, 100
2, 131472, Note_on_c, 0, 72, 100
2, 131488, Note_off_c, 0, 72, 100
2, 131496, Note_on_c, 0, 74, 100
2, 131512, Note_off_c, 0, 74, 100
2, 131520, Note_on_c, 0, 72, 100
2, 131536, Note_off_c, 0, 72, 100
2, 131544, Note_on_c, 0, 74, 100
2, 131560, Note_off_c, 0, 74, 100
2, 131568, Note_on_c, 0, 72, 100
2, 131584, Note_off_c, 0, 72, 100
2, 131592, Note_on_c, 0, 74, 100
2, 131608, Note_off_c, 0, 74, 100
2, 131616, Note_on_c, 0, 72, 100
2, 131632, Note_off_c, 0, 72, 100
2, 131640, Note_on_c, 0, 74, 100
2, 131656, Note_off_c, 0, 74, 100
2, 131664, Note_on_c, 0, 72, 100
2, 131680, Note_off_c, 0, 72, 100
2, 131688, Note_on_c, 0, 74, 100
2, 131704, Note_off_c, 0, 74, 100
2, 131712, Note_on_c, 0, 72, 100
2, 131728, Note_off_c, 0, 72, 100
2, 131736, Note_on_c, 0, 74, 100
2, 131752, Note_off_c, 0, 74, 100
2, 131760, Note_on_c, 0, 72, 100
2, 131776, Note_off_c, 0, 72, 100
2, 131784, Note_on_c, 0, 74, 100
2, 131800, Note_off_c, 0, 74, 100
2, 131808, Note_on_c, 0, 72, 100
2, 131824, Note_off_c, 0, 72, 100
2, 131832, Note_on_c, 0, 74, 100
2, 131848, Note_off_c, 0, 74, 100
2, 131856, Note_on_c, 0, 72, 100
2, 131872, Note_off_c, 0, 72, 100
2, 131880, Note_on_c, 0, 74, 100
2, 131896, Note_off_c, 0, 74, 100
2, 131904, Note_on_c, 0, 72, 100
2, 131920, Note_off_c, 0, 72, 100
2, 131928, Note_on_c, 0, 74, 100
2, 131944, Note_off_c, 0, 74, 100
2, 131952, Note_on_c, 0, 72, 100
2, 131968, Note_off_c, 0, 72, 100
2, 131976, Note_on_c, 0, 74, 100
2, 131992, Note_off_c, 0, 74, 100
2, 132000, Note_on_c, 0, 70, 100
2, 132032, Note_off_c, 0, 70, 100
2, 132048, Note_on_c, 0, 72, 100
2, 132080, Note_off_c, 0, 72, 100
2, 132096, Note_on_c, 0, 70, 100
2, 132352, Note_off_c, 0, 70, 100
2, 132480, Note_on_c, 0, 70, 100
2, 132496, Note_off_c, 0, 70, 100
2, 132504, Note_on_c, 0, 72, 100
2, 132520, Note_off_c, 0, 72, 100
2, 132528, Note_on_c, 0, 70, 100
2, 132544, Note_off_c, 0, 70, 100
2, 132552, Note_on_c, 0, 72, 100
2, 132568, Note_off_c, 0, 72, 100
2, 132576, Note_on_c, 0, 70, 100
2, 132592, Note_off_c, 0, 70, 100
2, 132600, Note_on_c, 0, 72, 100
2, 132616, Note_off_c, 0, 72, 100
2, 132624, Note_on_c, 0, 70, 100
2, 132640, Note_off_c, 0, 70, 100
2, 132648, Note_on_c, 0, 72, 100
2, 132664, Note_off_c, 0, 72, 100
2, 132672, Note_on_c, 0, 69, 100
2, 132800, Note_off_c, 0, 69, 100
2, 132864, Note_on_c, 0, 69, 100
2, 132880, Note_off_c, 0, 69, 100
2, 132888, Note_on_c, 0, 70, 100
2, 132904, Note_off_c, 0, 70, 100
2, 132912, Note_on_c, 0, 69, 100
2, 132928, Note_off_c, 0, 69, 100
2, 132936, Note_on_c, 0, 70, 100
2, 132952, Note_off_c, 0, 70, 100
2, 132960, Note_on_c, 0, 69, 100
2, 132976, Note_off_c, 0, 69, 100
2, 132984, Note_on_c, 0, 70, 100
2, 133000, Note_off_c, 0, 70, 100
2, 133008, Note_on_c, 0, 69, 100
2, 133024, Note_off_c, 0, 69, 100
2, 133032, Note_on_c, 0, 70, 100
2, 133048, Note_off_c, 0, 70, 100
2, 133056, Note_on_c, 0, 67, 100
2, 133184, Note_off_c, 0, 67, 100
2, 133248, Note_on_c, 0, 67, 100
2, 133264, Note_off_c, 0, 67, 100
2, 133272, Note_on_c, 0, 69, 100
2, 133288, Note_off_c, 0, 69, 100
2, 133296, Note_on_c, 0, 67, 100
2, 133312, Note_off_c, 0, 67, 100
2, 133320, Note_on_c, 0, 69, 100
2, 133336, Note_off_c, 0, 69, 100
2, 133344, Note_on_c, 0, 67, 100
2, 133360, Note_off_c, 0, 67, 100
2, 133368, Note_on_c, 0, 69, 100
2, 133384, Note_off_c, 0, 69, 100
2, 133392, Note_on_c, 0, 67, 100
2, 133408, Note_off_c, 0, 67, 100
2, 133416, Note_on_c, 0, 69, 100
2, 133432, Note_off_c, 0, 69, 100
2, 133440, Note_on_c, 0, 66, 100
2, 133568, Note_off_c, 0, 66, 100
2, 133608, Note_on_c, 0, 66, 100
2, 133624, Note_off_c, 0, 66, 100
2, 133632, Note_on_c, 0, 67, 100
2, 134144, Note_off_c, 0, 67, 100
2, 134784, Note_on_c, 0, 62, 100
2, 134784, Note_on_c, 0, 65, 100
2, 135296, Note_off_c, 0, 62, 100
2, 135296, Note_off_c, 0, 65, 100
2, 135528, Note_on_c, 0, 69, 100
2, 135544, Note_off_c, 0, 69, 100
2, 135552, Note_on_c, 0, 67, 100
2, 135552, Note_on_c, 0, 63, 100
2, 135808, Note_off_c, 0, 67, 100
2, 135808, Note_off_c, 0, 63, 100
2, 135936, Note_on_c, 0, 65, 100
2, 135936, Note_on_c, 0, 62, 100
2, 136192, Note_off_c, 0, 65, 100
2, 136192, Note_off_c, 0, 62, 100
2, 136680, Note_on_c, 0, 77, 100
2, 136696, Note_off_c, 0, 77, 100
2, 136704, Note_on_c, 0, 75, 100
2, 136704, Note_on_c, 0, 69, 100
2, 136960, Note_off_c, 0, 75, 100
2, 136960, Note_off_c, 0, 69, 100
2, 137088, Note_on_c, 0, 74, 100
2, 137088, Note_on_c, 0, 70, 100
2, 137344, Note_off_c, 0, 74, 100
2, 137344, Note_off_c, 0, 70, 100
2, 137832, Note_on_c, 0, 81, 100
2, 137848, Note_off_c, 0, 81, 100
2, 137856, Note_on_c, 0, 79, 100
2, 137856, Note_on_c, 0, 75, 100
2, 138112, Note_off_c, 0, 79, 100
2, 138112, Note_off_c, 0, 75, 100
2, 138240, Note_on_c, 0, 77, 100
2, 138240, Note_on_c, 0, 74, 100
2, 138496, Note_off_c, 0, 77, 100
2, 138496, Note_off_c, 0, 74, 100
2, 139008, Note_on_c, 0, 82, 100
2, 139136, Note_off_c, 0, 82, 100
2, 139200, Note_on_c, 0, 81, 100
2, 139328, Note_off_c, 0, 81, 100
2, 139392, Note_on_c, 0, 81, 100
2, 139520, Note_off_c, 0, 81, 100
2, 139584, Note_on_c, 0, 79, 100
2, 139712, Note_off_c, 0, 79, 100
2, 139776, Note_on_c, 0, 79, 100
2, 139904, Note_off_c, 0, 79, 100
2, 139968, Note_on_c, 0, 77, 100
2, 140096, Note_off_c, 0, 77, 100
2, 140160, Note_on_c, 0, 77, 100
2, 140288, Note_off_c, 0, 77, 100
2, 140352, Note_on_c, 0, 75, 100
2, 140480, Note_off_c, 0, 75, 100
2, 140544, Note_on_c, 0, 75, 100
2, 140576, Note_off_c, 0, 75, 100
2, 140592, Note_on_c, 0, 77, 100
2, 140624, Note_off_c, 0, 77, 100
2, 140640, Note_on_c, 0, 75, 100
2, 140672, Note_off_c, 0, 75, 100
2, 140688, Note_on_c, 0, 74, 100
2, 140720, Note_off_c, 0, 74, 100
2, 140736, Note_on_c, 0, 75, 100
2, 141248, Note_off_c, 0, 75, 100
2, 141288, Note_on_c, 0, 77, 100
2, 141304, Note_off_c, 0, 77, 100
2, 141312, Note_on_c, 0, 75, 100
2, 141440, Note_off_c, 0, 75, 100
2, 141504, Note_on_c, 0, 74, 100
2, 141632, Note_off_c, 0, 74, 100
2, 141672, Note_on_c, 0, 75, 100
2, 141688, Note_off_c, 0, 75, 100
2, 141696, Note_on_c, 0, 74, 100
2, 141824, Note_off_c, 0, 74, 100
2, 141888, Note_on_c, 0, 72, 100
2, 142016, Note_off_c, 0, 72, 100
2, 142056, Note_on_c, 0, 74, 100
2, 142072, Note_off_c, 0, 74, 100
2, 142080, Note_on_c, 0, 72, 100
2, 142208, Note_off_c, 0, 72, 100
2, 142272, Note_on_c, 0, 70, 100
2, 142400, Note_off_c, 0, 70, 100
2, 142440, Note_on_c, 0, 72, 100
2, 142456, Note_off_c, 0, 72, 100
2, 142464, Note_on_c, 0, 70, 100
2, 142592, Note_off_c, 0, 70, 100
2, 142656, Note_on_c, 0, 69, 100
2, 142784, Note_off_c, 0, 69, 100
2, 142824, Note_on_c, 0, 69, 100
2, 142840, Note_off_c, 0, 69, 100
2, 142848, Note_on_c, 0, 70, 100
2, 143360, Note_off_c, 0, 70, 100
2, 144000, Note_on_c, 0, 74, 100
2, 144512, Note_off_c, 0, 74, 100
2, 144744, Note_on_c, 0, 77, 100
2, 144760, Note_off_c, 0, 77, 100
2, 144768, Note_on_c, 0, 75, 100
2, 145024, Note_off_c, 0, 75, 100
2, 145152, Note_on_c, 0, 74, 100
2, 145280, Note_off_c, 0, 74, 100
2, 145344, Note_on_c, 0, 82, 100
2, 145472, Note_off_c, 0, 82, 100
2, 145536, Note_on_c, 0, 81, 100
2, 145664, Note_off_c, 0, 81, 100
2, 145728, Note_on_c, 0, 79, 100
2, 145856, Note_off_c, 0, 79, 100
2, 145920, Note_on_c, 0, 78, 100
2, 146048, Note_off_c, 0, 78, 100
2, 146112, Note_on_c, 0, 79, 100
2, 146240, Note_off_c, 0, 79, 100
2, 146304, Note_on_c, 0, 74, 100
2, 146816, Note_off_c, 0, 74, 100
2, 147048, Note_on_c, 0, 77, 100
2, 147064, Note_off_c, 0, 77, 100
2, 147072, Note_on_c, 0, 75, 100
2, 147328, Note_off_c, 0, 75, 100
2, 147456, Note_on_c, 0, 74, 100
2, 147584, Note_off_c, 0, 74, 100
2, 147648, Note_on_c, 0, 84, 100
2, 147776, Note_off_c, 0, 84, 100
2, 147840, Note_on_c, 0, 81, 100
2, 147968, Note_off_c, 0, 81, 100
2, 148032, Note_on_c, 0, 78, 100
2, 148160, Note_off_c, 0, 78, 100
2, 148224, Note_on_c, 0, 74, 100
2, 148352, Note_off_c, 0, 74, 100
2, 148416, Note_on_c, 0, 72, 100
2, 148544, Note_off_c, 0, 72, 100
2, 148608, Note_on_c, 0, 70, 100
2, 148624, Note_off_c, 0, 70, 100
2, 148632, Note_on_c, 0, 72, 100
2, 148648, Note_off_c, 0, 72, 100
2, 148656, Note_on_c, 0, 70, 100
2, 148672, Note_off_c, 0, 70, 100
2, 148680, Note_on_c, 0, 72, 100
2, 148696, Note_off_c, 0, 72, 100
2, 148704, Note_on_c, 0, 70, 100
2, 148720, Note_off_c, 0, 70, 100
2, 148728, Note_on_c, 0, 72, 100
2, 148744, Note_off_c, 0, 72, 100
2, 148752, Note_on_c, 0, 70, 100
2, 148768, Note_off_c, 0, 70, 100
2, 148776, Note_on_c, 0, 72, 100
2, 148792, Note_off_c, 0, 72, 100
2, 148800, Note_on_c, 0, 70, 100
2, 148816, Note_off_c, 0, 70, 100
2, 148824, Note_on_c, 0, 72, 100
2, 148840, Note_off_c, 0, 72, 100
2, 148848, Note_on_c, 0, 70, 100
2, 148864, Note_off_c, 0, 70, 100
2, 148872, Note_on_c, 0, 72, 100
2, 148888, Note_off_c, 0, 72, 100
2, 148896, Note_on_c, 0, 70, 100
2, 148912, Note_off_c, 0, 70, 100
2, 148920, Note_on_c, 0, 72, 100
2, 148936, Note_off_c, 0, 72, 100
2, 148944, Note_on_c, 0, 70, 100
2, 148960, Note_off_c, 0, 70, 100
2, 148968, Note_on_c, 0, 72, 100
2, 148984, Note_off_c, 0, 72, 100
2, 148992, Note_on_c, 0, 70, 100
2, 149008, Note_off_c, 0, 70, 100
2, 149016, Note_on_c, 0, 72, 100
2, 149032, Note_off_c, 0, 72, 100
2, 149040, Note_on_c, 0, 70, 100
2, 149056, Note_off_c, 0, 70, 100
2, 149064, Note_on_c, 0, 72, 100
2, 149080, Note_off_c, 0, 72, 100
2, 149088, Note_on_c, 0, 70, 100
2, 149104, Note_off_c, 0, 70, 100
2, 149112, Note_on_c, 0, 72, 100
2, 149128, Note_off_c, 0, 72, 100
2, 149136, Note_on_c, 0, 70, 100
2, 149152, Note_off_c, 0, 70, 100
2, 149160, Note_on_c, 0, 72, 100
2, 149176, Note_off_c, 0, 72, 100
2, 149184, Note_on_c, 0, 70, 100
2, 149200, Note_off_c, 0, 70, 100
2, 149208, Note_on_c, 0, 72, 100
2, 149224, Note_off_c, 0, 72, 100
2, 149232, Note_on_c, 0, 70, 100
2, 149248, Note_off_c, 0, 70, 100
2, 149256, Note_on_c, 0, 72, 100
2, 149272, Note_off_c, 0, 72, 100
2, 149280, Note_on_c, 0, 69, 100
2, 149312, Note_off_c, 0, 69, 100
2, 149328, Note_on_c, 0, 70, 100
2, 149360, Note_off_c, 0, 70, 100
2, 149376, Note_on_c, 0, 69, 100
2, 149632, Note_off_c, 0, 69, 100
2, 149760, Note_on_c, 0, 72, 100
2, 149776, Note_off_c, 0, 72, 100
2, 149784, Note_on_c, 0, 74, 100
2, 149800, Note_off_c, 0, 74, 100
2, 149808, Note_on_c, 0, 72, 100
2, 149824, Note_off_c, 0, 72, 100
2, 149832, Note_on_c, 0, 74, 100
2, 149848, Note_off_c, 0, 74, 100
2, 149856, Note_on_c, 0, 72, 100
2, 149872, Note_off_c, 0, 72, 100
2, 149880, Note_on_c, 0, 74, 100
2, 149896, Note_off_c, 0, 74, 100
2, 149904, Note_on_c, 0, 72, 100
2, 149920, Note_off_c, 0, 72, 100
2, 149928, Note_on_c, 0, 74, 100
2, 149944, Note_off_c, 0, 74, 100
2, 149952, Note_on_c, 0, 72, 100
2, 149968, Note_off_c, 0, 72, 100
2, 149976, Note_on_c, 0, 74, 100
2, 149992, Note_off_c, 0, 74, 100
2, 150000, Note_on_c, 0, 72, 100
2, 150016, Note_off_c, 0, 72, 100
2, 150024, Note_on_c, 0, 74, 100
2, 150040, Note_off_c, 0, 74, 100
2, 150048, Note_on_c, 0, 72, 100
2, 150064, Note_off_c, 0, 72, 100
2, 150072, Note_on_c, 0, 74, 100
2, 150088, Note_off_c, 0, 74, 100
2, 150096, Note_on_c, 0, 72, 100
2, 150112, Note_off_c, 0, 72, 100
2, 150120, Note_on_c, 0, 74, 100
2, 150136, Note_off_c, 0, 74, 100
2, 150144, Note_on_c, 0, 72, 100
2, 150160, Note_off_c, 0, 72, 100
2, 150168, Note_on_c, 0, 74, 100
2, 150184, Note_off_c, 0, 74, 100
2, 150192, Note_on_c, 0, 72, 100
2, 150208, Note_off_c, 0, 72, 100
2, 150216, Note_on_c, 0, 74, 100
2, 150232, Note_off_c, 0, 74, 100
2, 150240, Note_on_c, 0, 72, 100
2, 150256, Note_off_c, 0, 72, 100
2, 150264, Note_on_c, 0, 74, 100
2, 150280, Note_off_c, 0, 74, 100
2, 150288, Note_on_c, 0, 72, 100
2, 150304, Note_off_c, 0, 72, 100
2, 150312, Note_on_c, 0, 74, 100
2, 150328, Note_off_c, 0, 74, 100
2, 150336, Note_on_c, 0, 72, 100
2, 150352, Note_off_c, 0, 72, 100
2, 150360, Note_on_c, 0, 74, 100
2, 150376, Note_off_c, 0, 74, 100
2, 150384, Note_on_c, 0, 72, 100
2, 150400, Note_off_c, 0, 72, 100
2, 150408, Note_on_c, 0, 74, 100
2, 150424, Note_off_c, 0, 74, 100
2, 150432, Note_on_c, 0, 70, 100
2, 150464, Note_off_c, 0, 70, 100
2, 150480, Note_on_c, 0, 72, 100
2, 150512, Note_off_c, 0, 72, 100
2, 150528, Note_on_c, 0, 70, 100
2, 150784, Note_off_c, 0, 70, 100
2, 150912, Note_on_c, 0, 70, 100
2, 150928, Note_off_c, 0, 70, 100
2, 150936, Note_on_c, 0, 72, 100
2, 150952, Note_off_c, 0, 72, 100
2, 150960, Note_on_c, 0, 70, 100
2, 150976, Note_off_c, 0, 70, 100
2, 150984, Note_on_c, 0, 72, 100
2, 151000, Note_off_c, 0, 72, 100
2, 151008, Note_on_c, 0, 70, 100
2, 151024, Note_off_c, 0, 70, 100
2, 151032, Note_on_c, 0, 72, 100
2, 151048, Note_off_c, 0, 72, 100
2, 151056, Note_on_c, 0, 70, 100
2, 151072, Note_off_c, 0, 70, 100
2, 151080, Note_on_c, 0, 72, 100
2, 151096, Note_off_c, 0, 72, 100
2, 151104, Note_on_c, 0, 69, 100
2, 151232, Note_off_c, 0, 69, 100
2, 151296, Note_on_c, 0, 69, 100
2, 151312, Note_off_c, 0, 69, 100
2, 151320, Note_on_c, 0, 70, 100
2, 151336, Note_off_c, 0, 70, 100
2, 151344, Note_on_c, 0, 69, 100
2, 151360, Note_off_c, 0, 69, 100
2, 151368, Note_on_c, 0, 70, 100
2, 151384, Note_off_c, 0, 70, 100
2, 151392, Note_on_c, 0, 69, 100
2, 151408, Note_off_c, 0, 69, 100
2, 151416, Note_on_c, 0, 70, 100
2, 151432, Note_off_c, 0, 70, 100
2, 151440, Note_on_c, 0, 69, 100
2, 151456, Note_off_c, 0, 69, 100
2, 151464, Note_on_c, 0, 70, 100
2, 151480, Note_off_c, 0, 70, 100
2, 151488, Note_on_c, 0, 67, 100
2, 151616, Note_off_c, 0, 67, 100
2, 151680, Note_on_c, 0, 67, 100
2, 151696, Note_off_c, 0, 67, 100
2, 151704, Note_on_c, 0, 69, 100
2, 151720, Note_off_c, 0, 69, 100
2, 151728, Note_on_c, 0, 67, 100
2, 151744, Note_off_c, 0, 67, 100
2, 151752, Note_on_c, 0, 69, 100
2, 151768, Note_off_c, 0, 69, 100
2, 151776, Note_on_c, 0, 67, 100
2, 151792, Note_off_c, 0, 67, 100
2, 151800, Note_on_c, 0, 69, 100
2, 151816, Note_off_c, 0, 69, 100
2, 151824, Note_on_c, 0, 67, 100
2, 151840, Note_off_c, 0, 67, 100
2, 151848, Note_on_c, 0, 69, 100
2, 151864, Note_off_c, 0, 69, 100
2, 151872, Note_on_c, 0, 66, 100
2, 152000, Note_off_c, 0, 66, 100
2, 152040, Note_on_c, 0, 66, 100
2, 152056, Note_off_c, 0, 66, 100
2, 152064, Note_on_c, 0, 67, 100
2, 152576, Note_off_c, 0, 67, 100
2, 152576, End_track
3, 0, Start_track
3, 0, Control_c, 1, 7, 100
3, 0, Key_signature, 1, "major"
3, 0, Note_on_c, 1, 59, 100
3, 0, Note_on_c, 1, 55, 100
3, 256, Note_off_c, 1, 59, 100
3, 256, Note_off_c, 1, 55, 100
3, 768, Note_on_c, 1, 62, 100
3, 768, Note_on_c, 1, 59, 100
3, 1024, Note_off_c, 1, 62, 100
3, 1024, Note_off_c, 1, 59, 100
3, 1152, Note_on_c, 1, 60, 100
3, 1152, Note_on_c, 1, 57, 100
3, 1408, Note_off_c, 1, 60, 100
3, 1408, Note_off_c, 1, 57, 100
3, 1536, Note_on_c, 1, 54, 100
3, 1792, Note_off_c, 1, 54, 100
3, 1920, Note_on_c, 1, 55, 100
3, 2176, Note_off_c, 1, 55, 100
3, 2304, Note_on_c, 1, 48, 100
3, 3332, Note_off_c, 1, 48, 100
3, 3456, Note_on_c, 1, 50, 100
3, 3712, Note_off_c, 1, 50, 100
3, 3840, Note_on_c, 1, 62, 100
3, 3924, Note_off_c, 1, 62, 100
3, 3968, Note_on_c, 1, 64, 100
3, 4052, Note_off_c, 1, 64, 100
3, 4096, Note_on_c, 1, 62, 100
3, 4180, Note_off_c, 1, 62, 100
3, 4224, Note_on_c, 1, 60, 100
3, 4308, Note_off_c, 1, 60, 100
3, 4352, Note_on_c, 1, 59, 100
3, 4436, Note_off_c, 1, 59, 100
3, 4480, Note_on_c, 1, 57, 100
3, 4564, Note_off_c, 1, 57, 100
3, 4608, Note_on_c, 1, 59, 100
3, 4608, Note_on_c, 1, 55, 100
3, 4864, Note_off_c, 1, 59, 100
3, 4864, Note_off_c, 1, 55, 100
3, 5376, Note_on_c, 1, 62, 100
3, 5376, Note_on_c, 1, 59, 100
3, 5632, Note_off_c, 1, 62, 100
3, 5632, Note_off_c, 1, 59, 100
3, 5760, Note_on_c, 1, 60, 100
3, 5760, Note_on_c, 1, 57, 100
3, 6016, Note_off_c, 1, 60, 100
3, 6016, Note_off_c, 1, 57, 100
3, 6144, Note_on_c, 1, 54, 100
3, 6400, Note_off_c, 1, 54, 100
3, 6528, Note_on_c, 1, 55, 100
3, 6784, Note_off_c, 1, 55, 100
3, 7296, Note_on_c, 1, 64, 100
3, 7552, Note_off_c, 1, 64, 100
3, 7680, Note_on_c, 1, 62, 100
3, 7936, Note_off_c, 1, 62, 100
3, 8064, Note_on_c, 1, 67, 100
3, 9092, Note_off_c, 1, 67, 100
3, 9600, Note_on_c, 1, 67, 100
3, 9600, Note_on_c, 1, 61, 100
3, 9856, Note_off_c, 1, 67, 100
3, 9856, Note_off_c, 1, 61, 100
3, 9984, Note_on_c, 1, 66, 100
3, 9984, Note_on_c, 1, 62, 100
3, 10240, Note_off_c, 1, 66, 100
3, 10240, Note_off_c, 1, 62, 100
3, 10752, Note_on_c, 1, 67, 100
3, 10752, Note_on_c, 1, 61, 100
3, 11008, Note_off_c, 1, 67, 100
3, 11008, Note_off_c, 1, 61, 100
3, 11136, Note_on_c, 1, 66, 100
3, 11136, Note_on_c, 1, 62, 100
3, 11392, Note_off_c, 1, 66, 100
3, 11392, Note_off_c, 1, 62, 100
3, 11904, Note_on_c, 1, 61, 100
3, 11904, Note_on_c, 1, 55, 100
3, 12160, Note_off_c, 1, 61, 100
3, 12160, Note_off_c, 1, 55, 100
3, 12288, Note_on_c, 1, 62, 100
3, 12288, Note_on_c, 1, 54, 100
3, 12544, Note_off_c, 1, 62, 100
3, 12544, Note_off_c, 1, 54, 100
3, 13056, Note_on_c, 1, 61, 100
3, 13056, Note_on_c, 1, 55, 100
3, 13312, Note_off_c, 1, 61, 100
3, 13312, Note_off_c, 1, 55, 100
3, 13440, Note_on_c, 1, 62, 100
3, 13440, Note_on_c, 1, 54, 100
3, 13696, Note_off_c, 1, 62, 100
3, 13696, Note_off_c, 1, 54, 100
3, 13824, Note_on_c, 1, 55, 100
3, 14080, Note_off_c, 1, 55, 100
3, 14592, Note_on_c, 1, 67, 100
3, 14592, Note_on_c, 1, 57, 100
3, 14848, Note_off_c, 1, 67, 100
3, 14848, Note_off_c, 1, 57, 100
3, 14976, Note_on_c, 1, 60, 100
3, 14976, Note_on_c, 1, 67, 100
3, 15488, Note_off_c, 1, 60, 100
3, 15488, Note_off_c, 1, 67, 100
3, 15744, Note_on_c, 1, 66, 100
3, 16000, Note_off_c, 1, 66, 100
3, 16128, Note_on_c, 1, 59, 100
3, 16128, Note_on_c, 1, 55, 100
3, 16384, Note_off_c, 1, 59, 100
3, 16384, Note_off_c, 1, 55, 100
3, 16896, Note_on_c, 1, 62, 100
3, 16896, Note_on_c, 1, 59, 100
3, 17152, Note_off_c, 1, 62, 100
3, 17152, Note_off_c, 1, 59, 100
3, 17280, Note_on_c, 1, 60, 100
3, 17280, Note_on_c, 1, 57, 100
3, 17536, Note_off_c, 1, 60, 100
3, 17536, Note_off_c, 1, 57, 100
3, 17664, Note_on_c, 1, 54, 100
3, 17920, Note_off_c, 1, 54, 100
3, 18048, Note_on_c, 1, 55, 100
3, 18304, Note_off_c, 1, 55, 100
3, 18432, Note_on_c, 1, 48, 100
3, 19460, Note_off_c, 1, 48, 100
3, 19584, Note_on_c, 1, 50, 100
3, 19840, Note_off_c, 1, 50, 100
3, 19968, Note_on_c, 1, 62, 100
3, 20052, Note_off_c, 1, 62, 100
3, 20096, Note_on_c, 1, 64, 100
3, 20180, Note_off_c, 1, 64, 100
3, 20224, Note_on_c, 1, 62, 100
3, 20308, Note_off_c, 1, 62, 100
3, 20352, Note_on_c, 1, 60, 100
3, 20436, Note_off_c, 1, 60, 100
3, 20480, Note_on_c, 1, 59, 100
3, 20564, Note_off_c, 1, 59, 100
3, 20608, Note_on_c, 1, 57, 100
3, 20692, Note_off_c, 1, 57, 100
3, 20736, Note_on_c, 1, 59, 100
3, 20736, Note_on_c, 1, 55, 100
3, 20992, Note_off_c, 1, 59, 100
3, 20992, Note_off_c, 1, 55, 100
3, 21504, Note_on_c, 1, 62, 100
3, 21504, Note_on_c, 1, 59, 100
3, 21760, Note_off_c, 1, 62, 100
3, 21760, Note_off_c, 1, 59, 100
3, 21888, Note_on_c, 1, 60, 100
3, 21888, Note_on_c, 1, 57, 100
3, 22144, Note_off_c, 1, 60, 100
3, 22144, Note_off_c, 1, 57, 100
3, 22272, Note_on_c, 1, 54, 100
3, 22528, Note_off_c, 1, 54, 100
3, 22656, Note_on_c, 1, 55, 100
3, 22912, Note_off_c, 1, 55, 100
3, 23424, Note_on_c, 1, 64, 100
3, 23680, Note_off_c, 1, 64, 100
3, 23808, Note_on_c, 1, 62, 100
3, 24064, Note_off_c, 1, 62, 100
3, 24192, Note_on_c, 1, 67, 100
3, 25220, Note_off_c, 1, 67, 100
3, 25728, Note_on_c, 1, 67, 100
3, 25728, Note_on_c, 1, 61, 100
3, 25984, Note_off_c, 1, 67, 100
3, 25984, Note_off_c, 1, 61, 100
3, 26112, Note_on_c, 1, 66, 100
3, 26112, Note_on_c, 1, 62, 100
3, 26368, Note_off_c, 1, 66, 100
3, 26368, Note_off_c, 1, 62, 100
3, 26880, Note_on_c, 1, 67, 100
3, 26880, Note_on_c, 1, 61, 100
3, 27136, Note_off_c, 1, 67, 100
3, 27136, Note_off_c, 1, 61, 100
3, 27264, Note_on_c, 1, 66, 100
3, 27264, Note_on_c, 1, 62, 100
3, 27520, Note_off_c, 1, 66, 100
3, 27520, Note_off_c, 1, 62, 100
3, 28032, Note_on_c, 1, 61, 100
3, 28032, Note_on_c, 1, 55, 100
3, 28288, Note_off_c, 1, 61, 100
3, 28288, Note_off_c, 1, 55, 100
3, 28416, Note_on_c, 1, 62, 100
3, 28416, Note_on_c, 1, 54, 100
3, 28672, Note_off_c, 1, 62, 100
3, 28672, Note_off_c, 1, 54, 100
3, 29184, Note_on_c, 1, 61, 100
3, 29184, Note_on_c, 1, 55, 100
3, 29440, Note_off_c, 1, 61, 100
3, 29440, Note_off_c, 1, 55, 100
3, 29568, Note_on_c, 1, 62, 100
3, 29568, Note_on_c, 1, 54, 100
3, 29824, Note_off_c, 1, 62, 100
3, 29824, Note_off_c, 1, 54, 100
3, 29952, Note_on_c, 1, 55, 100
3, 30208, Note_off_c, 1, 55, 100
3, 30720, Note_on_c, 1, 67, 100
3, 30720, Note_on_c, 1, 57, 100
3, 30976, Note_off_c, 1, 67, 100
3, 30976, Note_off_c, 1, 57, 100
3, 31104, Note_on_c, 1, 60, 100
3, 31104, Note_on_c, 1, 67, 100
3, 31616, Note_off_c, 1, 60, 100
3, 31616, Note_off_c, 1, 67, 100
3, 31872, Note_on_c, 1, 66, 100
3, 32128, Note_off_c, 1, 66, 100
3, 32256, Note_on_c, 1, 62, 100
3, 32340, Note_off_c, 1, 62, 100
3, 32384, Note_on_c, 1, 66, 100
3, 32468, Note_off_c, 1, 66, 100
3, 32512, Note_on_c, 1, 69, 100
3, 32596, Note_off_c, 1, 69, 100
3, 32640, Note_on_c, 1, 62, 100
3, 32724, Note_off_c, 1, 62, 100
3, 32768, Note_on_c, 1, 66, 100
3, 32852, Note_off_c, 1, 66, 100
3, 32896, Note_on_c, 1, 69, 100
3, 32980, Note_off_c, 1, 69, 100
3, 33024, Note_on_c, 1, 62, 100
3, 33108, Note_off_c, 1, 62, 100
3, 33152, Note_on_c, 1, 66, 100
3, 33236, Note_off_c, 1, 66, 100
3, 33280, Note_on_c, 1, 69, 100
3, 33364, Note_off_c, 1, 69, 100
3, 33408, Note_on_c, 1, 64, 100
3, 33492, Note_off_c, 1, 64, 100
3, 33536, Note_on_c, 1, 67, 100
3, 33620, Note_off_c, 1, 67, 100
3, 33664, Note_on_c, 1, 69, 100
3, 33748, Note_off_c, 1, 69, 100
3, 33792, Note_on_c, 1, 64, 100
3, 33876, Note_off_c, 1, 64, 100
3, 33920, Note_on_c, 1, 67, 100
3, 34004, Note_off_c, 1, 67, 100
3, 34048, Note_on_c, 1, 69, 100
3, 34132, Note_off_c, 1, 69, 100
3, 34176, Note_on_c, 1, 64, 100
3, 34260, Note_off_c, 1, 64, 100
3, 34304, Note_on_c, 1, 67, 100
3, 34388, Note_off_c, 1, 67, 100
3, 34432, Note_on_c, 1, 69, 100
3, 34516, Note_off_c, 1, 69, 100
3, 34560, Note_on_c, 1, 66, 100
3, 34644, Note_off_c, 1, 66, 100
3, 34688, Note_on_c, 1, 69, 100
3, 34772, Note_off_c, 1, 69, 100
3, 34816, Note_on_c, 1, 72, 100
3, 34900, Note_off_c, 1, 72, 100
3, 35712, Note_on_c, 1, 55, 100
3, 35796, Note_off_c, 1, 55, 100
3, 35840, Note_on_c, 1, 62, 100
3, 35924, Note_off_c, 1, 62, 100
3, 35968, Note_on_c, 1, 67, 100
3, 36052, Note_off_c, 1, 67, 100
3, 36096, Note_on_c, 1, 55, 100
3, 36180, Note_off_c, 1, 55, 100
3, 36224, Note_on_c, 1, 62, 100
3, 36308, Note_off_c, 1, 62, 100
3, 36352, Note_on_c, 1, 67, 100
3, 36436, Note_off_c, 1, 67, 100
3, 36480, Note_on_c, 1, 59, 100
3, 36564, Note_off_c, 1, 59, 100
3, 36608, Note_on_c, 1, 62, 100
3, 36692, Note_off_c, 1, 62, 100
3, 36736, Note_on_c, 1, 67, 100
3, 36820, Note_off_c, 1, 67, 100
3, 36864, Note_on_c, 1, 60, 100
3, 36948, Note_off_c, 1, 60, 100
3, 36992, Note_on_c, 1, 64, 100
3, 37076, Note_off_c, 1, 64, 100
3, 37120, Note_on_c, 1, 67, 100
3, 37204, Note_off_c, 1, 67, 100
3, 37248, Note_on_c, 1, 60, 100
3, 37332, Note_off_c, 1, 60, 100
3, 37376, Note_on_c, 1, 64, 100
3, 37460, Note_off_c, 1, 64, 100
3, 37504, Note_on_c, 1, 67, 100
3, 37588, Note_off_c, 1, 67, 100
3, 37632, Note_on_c, 1, 60, 100
3, 37716, Note_off_c, 1, 60, 100
3, 37760, Note_on_c, 1, 64, 100
3, 37844, Note_off_c, 1, 64, 100
3, 37888, Note_on_c, 1, 67, 100
3, 37972, Note_off_c, 1, 67, 100
3, 38016, Note_on_c, 1, 59, 100
3, 38100, Note_off_c, 1, 59, 100
3, 38144, Note_on_c, 1, 62, 100
3, 38228, Note_off_c, 1, 62, 100
3, 38272, Note_on_c, 1, 67, 100
3, 38356, Note_off_c, 1, 67, 100
3, 38400, Note_on_c, 1, 59, 100
3, 38484, Note_off_c, 1, 59, 100
3, 38528, Note_on_c, 1, 62, 100
3, 38612, Note_off_c, 1, 62, 100
3, 38656, Note_on_c, 1, 67, 100
3, 38740, Note_off_c, 1, 67, 100
3, 38784, Note_on_c, 1, 59, 100
3, 38868, Note_off_c, 1, 59, 100
3, 38912, Note_on_c, 1, 62, 100
3, 38996, Note_off_c, 1, 62, 100
3, 39040, Note_on_c, 1, 67, 100
3, 39124, Note_off_c, 1, 67, 100
3, 39168, Note_on_c, 1, 60, 100
3, 39252, Note_off_c, 1, 60, 100
3, 39296, Note_on_c, 1, 64, 100
3, 39380, Note_off_c, 1, 64, 100
3, 39424, Note_on_c, 1, 67, 100
3, 39508, Note_off_c, 1, 67, 100
3, 39552, Note_on_c, 1, 60, 100
3, 39636, Note_off_c, 1, 60, 100
3, 39680, Note_on_c, 1, 64, 100
3, 39764, Note_off_c, 1, 64, 100
3, 39808, Note_on_c, 1, 67, 100
3, 39892, Note_off_c, 1, 67, 100
3, 39936, Note_on_c, 1, 60, 100
3, 40020, Note_off_c, 1, 60, 100
3, 40064, Note_on_c, 1, 64, 100
3, 40148, Note_off_c, 1, 64, 100
3, 40192, Note_on_c, 1, 67, 100
3, 40276, Note_off_c, 1, 67, 100
3, 40320, Note_on_c, 1, 59, 100
3, 40404, Note_off_c, 1, 59, 100
3, 40448, Note_on_c, 1, 62, 100
3, 40532, Note_off_c, 1, 62, 100
3, 40576, Note_on_c, 1, 67, 100
3, 40660, Note_off_c, 1, 67, 100
3, 40704, Note_on_c, 1, 59, 100
3, 40788, Note_off_c, 1, 59, 100
3, 40832, Note_on_c, 1, 62, 100
3, 40916, Note_off_c, 1, 62, 100
3, 40960, Note_on_c, 1, 67, 100
3, 41044, Note_off_c, 1, 67, 100
3, 41088, Note_on_c, 1, 59, 100
3, 41172, Note_off_c, 1, 59, 100
3, 41216, Note_on_c, 1, 62, 100
3, 41300, Note_off_c, 1, 62, 100
3, 41344, Note_on_c, 1, 67, 100
3, 41428, Note_off_c, 1, 67, 100
3, 41472, Note_on_c, 1, 60, 100
3, 41728, Note_off_c, 1, 60, 100
3, 42624, Note_on_c, 1, 50, 100
3, 42880, Note_off_c, 1, 50, 100
3, 43008, Note_on_c, 1, 62, 100
3, 43092, Note_off_c, 1, 62, 100
3, 43136, Note_on_c, 1, 64, 100
3, 43220, Note_off_c, 1, 64, 100
3, 43264, Note_on_c, 1, 62, 100
3, 43348, Note_off_c, 1, 62, 100
3, 43392, Note_on_c, 1, 60, 100
3, 43476, Note_off_c, 1, 60, 100
3, 43520, Note_on_c, 1, 59, 100
3, 43604, Note_off_c, 1, 59, 100
3, 43648, Note_on_c, 1, 57, 100
3, 43732, Note_off_c, 1, 57, 100
3, 43776, Note_on_c, 1, 59, 100
3, 43776, Note_on_c, 1, 55, 100
3, 44032, Note_off_c, 1, 59, 100
3, 44032, Note_off_c, 1, 55, 100
3, 44544, Note_on_c, 1, 62, 100
3, 44544, Note_on_c, 1, 59, 100
3, 44800, Note_off_c, 1, 62, 100
3, 44800, Note_off_c, 1, 59, 100
3, 44928, Note_on_c, 1, 60, 100
3, 44928, Note_on_c, 1, 57, 100
3, 45184, Note_off_c, 1, 60, 100
3, 45184, Note_off_c, 1, 57, 100
3, 45312, Note_on_c, 1, 54, 100
3, 45568, Note_off_c, 1, 54, 100
3, 45696, Note_on_c, 1, 55, 100
3, 45952, Note_off_c, 1, 55, 100
3, 46080, Note_on_c, 1, 48, 100
3, 47108, Note_off_c, 1, 48, 100
3, 47232, Note_on_c, 1, 50, 100
3, 47488, Note_off_c, 1, 50, 100
3, 47616, Note_on_c, 1, 45, 100
3, 47872, Note_off_c, 1, 45, 100
3, 48000, Note_on_c, 1, 38, 100
3, 48256, Note_off_c, 1, 38, 100
3, 48384, Note_on_c, 1, 55, 100
3, 48468, Note_off_c, 1, 55, 100
3, 48512, Note_on_c, 1, 54, 100
3, 48596, Note_off_c, 1, 54, 100
3, 48640, Note_on_c, 1, 50, 100
3, 48724, Note_off_c, 1, 50, 100
3, 48768, Note_on_c, 1, 60, 100
3, 48768, Note_on_c, 1, 54, 100
3, 48768, Note_on_c, 1, 45, 100
3, 49024, Note_off_c, 1, 60, 100
3, 49024, Note_off_c, 1, 54, 100
3, 49024, Note_off_c, 1, 45, 100
3, 49152, Note_on_c, 1, 59, 100
3, 49152, Note_on_c, 1, 55, 100
3, 49152, Note_on_c, 1, 43, 100
3, 49408, Note_off_c, 1, 59, 100
3, 49408, Note_off_c, 1, 55, 100
3, 49408, Note_off_c, 1, 43, 100
3, 49920, Note_on_c, 1, 57, 100
3, 50176, Note_off_c, 1, 57, 100
3, 50304, Note_on_c, 1, 55, 100
3, 50560, Note_off_c, 1, 55, 100
3, 52224, Note_on_c, 1, 54, 100
3, 52480, Note_off_c, 1, 54, 100
3, 52608, Note_on_c, 1, 55, 100
3, 52864, Note_off_c, 1, 55, 100
3, 52992, Note_on_c, 1, 48, 100
3, 53248, Note_off_c, 1, 48, 100
3, 53760, Note_on_c, 1, 50, 100
3, 54016, Note_off_c, 1, 50, 100
3, 54144, Note_on_c, 1, 52, 100
3, 54656, Note_off_c, 1, 52, 100
3, 55680, Note_on_c, 1, 72, 100
3, 55680, Note_on_c, 1, 66, 100
3, 55936, Note_off_c, 1, 72, 100
3, 55936, Note_off_c, 1, 66, 100
3, 56064, Note_on_c, 1, 71, 100
3, 56064, Note_on_c, 1, 67, 100
3, 56320, Note_off_c, 1, 71, 100
3, 56320, Note_off_c, 1, 67, 100
3, 56832, Note_on_c, 1, 72, 100
3, 56832, Note_on_c, 1, 66, 100
3, 57088, Note_off_c, 1, 72, 100
3, 57088, Note_off_c, 1, 66, 100
3, 57216, Note_on_c, 1, 71, 100
3, 57216, Note_on_c, 1, 67, 100
3, 57472, Note_off_c, 1, 71, 100
3, 57472, Note_off_c, 1, 67, 100
3, 57984, Note_on_c, 1, 66, 100
3, 57984, Note_on_c, 1, 60, 100
3, 58240, Note_off_c, 1, 66, 100
3, 58240, Note_off_c, 1, 60, 100
3, 58368, Note_on_c, 1, 67, 100
3, 58368, Note_on_c, 1, 59, 100
3, 58624, Note_off_c, 1, 67, 100
3, 58624, Note_off_c, 1, 59, 100
3, 59136, Note_on_c, 1, 66, 100
3, 59136, Note_on_c, 1, 60, 100
3, 59392, Note_off_c, 1, 66, 100
3, 59392, Note_off_c, 1, 60, 100
3, 59520, Note_on_c, 1, 59, 100
3, 59520, Note_on_c, 1, 67, 100
3, 59776, Note_off_c, 1, 59, 100
3, 59776, Note_off_c, 1, 67, 100
3, 59904, Note_on_c, 1, 60, 100
3, 59904, Note_on_c, 1, 67, 100
3, 60160, Note_off_c, 1, 60, 100
3, 60288, Note_on_c, 1, 59, 100
3, 60416, Note_off_c, 1, 67, 100
3, 60544, Note_off_c, 1, 59, 100
3, 60672, Note_on_c, 1, 66, 100
3, 60672, Note_on_c, 1, 57, 100
3, 60928, Note_off_c, 1, 66, 100
3, 60928, Note_off_c, 1, 57, 100
3, 61056, Note_on_c, 1, 55, 100
3, 61056, Note_on_c, 1, 67, 100
3, 61312, Note_off_c, 1, 55, 100
3, 61312, Note_off_c, 1, 67, 100
3, 62208, Note_on_c, 1, 60, 100
3, 62208, Note_on_c, 1, 48, 100
3, 62464, Note_off_c, 1, 60, 100
3, 62464, Note_off_c, 1, 48, 100
3, 62592, Note_on_c, 1, 59, 100
3, 62592, Note_on_c, 1, 50, 100
3, 62848, Note_off_c, 1, 59, 100
3, 62848, Note_off_c, 1, 50, 100
3, 62976, Note_on_c, 1, 57, 100
3, 62976, Note_on_c, 1, 50, 100
3, 63232, Note_off_c, 1, 57, 100
3, 63232, Note_off_c, 1, 50, 100
3, 63360, Note_on_c, 1, 55, 100
3, 63616, Note_off_c, 1, 55, 100
3, 63744, Note_on_c, 1, 50, 100
3, 64000, Note_off_c, 1, 50, 100
3, 64128, Note_on_c, 1, 47, 100
3, 64384, Note_off_c, 1, 47, 100
3, 64512, Note_on_c, 1, 62, 100
3, 64596, Note_off_c, 1, 62, 100
3, 64640, Note_on_c, 1, 66, 100
3, 64724, Note_off_c, 1, 66, 100
3, 64768, Note_on_c, 1, 69, 100
3, 64852, Note_off_c, 1, 69, 100
3, 64896, Note_on_c, 1, 62, 100
3, 64980, Note_off_c, 1, 62, 100
3, 65024, Note_on_c, 1, 66, 100
3, 65108, Note_off_c, 1, 66, 100
3, 65152, Note_on_c, 1, 69, 100
3, 65236, Note_off_c, 1, 69, 100
3, 65280, Note_on_c, 1, 62, 100
3, 65364, Note_off_c, 1, 62, 100
3, 65408, Note_on_c, 1, 66, 100
3, 65492, Note_off_c, 1, 66, 100
3, 65536, Note_on_c, 1, 69, 100
3, 65620, Note_off_c, 1, 69, 100
3, 65664, Note_on_c, 1, 64, 100
3, 65748, Note_off_c, 1, 64, 100
3, 65792, Note_on_c, 1, 67, 100
3, 65876, Note_off_c, 1, 67, 100
3, 65920, Note_on_c, 1, 69, 100
3, 66004, Note_off_c, 1, 69, 100
3, 66048, Note_on_c, 1, 64, 100
3, 66132, Note_off_c, 1, 64, 100
3, 66176, Note_on_c, 1, 67, 100
3, 66260, Note_off_c, 1, 67, 100
3, 66304, Note_on_c, 1, 69, 100
3, 66388, Note_off_c, 1, 69, 100
3, 66432, Note_on_c, 1, 64, 100
3, 66516, Note_off_c, 1, 64, 100
3, 66560, Note_on_c, 1, 67, 100
3, 66644, Note_off_c, 1, 67, 100
3, 66688, Note_on_c, 1, 69, 100
3, 66772, Note_off_c, 1, 69, 100
3, 66816, Note_on_c, 1, 66, 100
3, 66900, Note_off_c, 1, 66, 100
3, 66944, Note_on_c, 1, 69, 100
3, 67028, Note_off_c, 1, 69, 100
3, 67072, Note_on_c, 1, 72, 100
3, 67156, Note_off_c, 1, 72, 100
3, 67968, Note_on_c, 1, 55, 100
3, 68052, Note_off_c, 1, 55, 100
3, 68096, Note_on_c, 1, 62, 100
3, 68180, Note_off_c, 1, 62, 100
3, 68224, Note_on_c, 1, 67, 100
3, 68308, Note_off_c, 1, 67, 100
3, 68352, Note_on_c, 1, 55, 100
3, 68436, Note_off_c, 1, 55, 100
3, 68480, Note_on_c, 1, 62, 100
3, 68564, Note_off_c, 1, 62, 100
3, 68608, Note_on_c, 1, 67, 100
3, 68692, Note_off_c, 1, 67, 100
3, 68736, Note_on_c, 1, 59, 100
3, 68820, Note_off_c, 1, 59, 100
3, 68864, Note_on_c, 1, 62, 100
3, 68948, Note_off_c, 1, 62, 100
3, 68992, Note_on_c, 1, 67, 100
3, 69076, Note_off_c, 1, 67, 100
3, 69120, Note_on_c, 1, 60, 100
3, 69204, Note_off_c, 1, 60, 100
3, 69248, Note_on_c, 1, 64, 100
3, 69332, Note_off_c, 1, 64, 100
3, 69376, Note_on_c, 1, 67, 100
3, 69460, Note_off_c, 1, 67, 100
3, 69504, Note_on_c, 1, 60, 100
3, 69588, Note_off_c, 1, 60, 100
3, 69632, Note_on_c, 1, 64, 100
3, 69716, Note_off_c, 1, 64, 100
3, 69760, Note_on_c, 1, 67, 100
3, 69844, Note_off_c, 1, 67, 100
3, 69888, Note_on_c, 1, 60, 100
3, 69972, Note_off_c, 1, 60, 100
3, 70016, Note_on_c, 1, 64, 100
3, 70100, Note_off_c, 1, 64, 100
3, 70144, Note_on_c, 1, 67, 100
3, 70228, Note_off_c, 1, 67, 100
3, 70272, Note_on_c, 1, 59, 100
3, 70356, Note_off_c, 1, 59, 100
3, 70400, Note_on_c, 1, 62, 100
3, 70484, Note_off_c, 1, 62, 100
3, 70528, Note_on_c, 1, 67, 100
3, 70612, Note_off_c, 1, 67, 100
3, 70656, Note_on_c, 1, 59, 100
3, 70740, Note_off_c, 1, 59, 100
3, 70784, Note_on_c, 1, 62, 100
3, 70868, Note_off_c, 1, 62, 100
3, 70912, Note_on_c, 1, 67, 100
3, 70996, Note_off_c, 1, 67, 100
3, 71040, Note_on_c, 1, 59, 100
3, 71124, Note_off_c, 1, 59, 100
3, 71168, Note_on_c, 1, 62, 100
3, 71252, Note_off_c, 1, 62, 100
3, 71296, Note_on_c, 1, 67, 100
3, 71380, Note_off_c, 1, 67, 100
3, 71424, Note_on_c, 1, 60, 100
3, 71508, Note_off_c, 1, 60, 100
3, 71552, Note_on_c, 1, 64, 100
3, 71636, Note_off_c, 1, 64, 100
3, 71680, Note_on_c, 1, 67, 100
3, 71764, Note_off_c, 1, 67, 100
3, 71808, Note_on_c, 1, 60, 100
3, 71892, Note_off_c, 1, 60, 100
3, 71936, Note_on_c, 1, 64, 100
3, 72020, Note_off_c, 1, 64, 100
3, 72064, Note_on_c, 1, 67, 100
3, 72148, Note_off_c, 1, 67, 100
3, 72192, Note_on_c, 1, 60, 100
3, 72276, Note_off_c, 1, 60, 100
3, 72320, Note_on_c, 1, 64, 100
3, 72404, Note_off_c, 1, 64, 100
3, 72448, Note_on_c, 1, 67, 100
3, 72532, Note_off_c, 1, 67, 100
3, 72576, Note_on_c, 1, 59, 100
3, 72660, Note_off_c, 1, 59, 100
3, 72704, Note_on_c, 1, 62, 100
3, 72788, Note_off_c, 1, 62, 100
3, 72832, Note_on_c, 1, 67, 100
3, 72916, Note_off_c, 1, 67, 100
3, 72960, Note_on_c, 1, 59, 100
3, 73044, Note_off_c, 1, 59, 100
3, 73088, Note_on_c, 1, 62, 100
3, 73172, Note_off_c, 1, 62, 100
3, 73216, Note_on_c, 1, 67, 100
3, 73300, Note_off_c, 1, 67, 100
3, 73344, Note_on_c, 1, 59, 100
3, 73428, Note_off_c, 1, 59, 100
3, 73472, Note_on_c, 1, 62, 100
3, 73556, Note_off_c, 1, 62, 100
3, 73600, Note_on_c, 1, 67, 100
3, 73684, Note_off_c, 1, 67, 100
3, 73728, Note_on_c, 1, 60, 100
3, 73984, Note_off_c, 1, 60, 100
3, 74880, Note_on_c, 1, 50, 100
3, 75136, Note_off_c, 1, 50, 100
3, 75264, Note_on_c, 1, 62, 100
3, 75348, Note_off_c, 1, 62, 100
3, 75392, Note_on_c, 1, 64, 100
3, 75476, Note_off_c, 1, 64, 100
3, 75520, Note_on_c, 1, 62, 100
3, 75604, Note_off_c, 1, 62, 100
3, 75648, Note_on_c, 1, 60, 100
3, 75732, Note_off_c, 1, 60, 100
3, 75776, Note_on_c, 1, 59, 100
3, 75860, Note_off_c, 1, 59, 100
3, 75904, Note_on_c, 1, 57, 100
3, 75988, Note_off_c, 1, 57, 100
3, 76032, Note_on_c, 1, 59, 100
3, 76032, Note_on_c, 1, 55, 100
3, 76288, Note_off_c, 1, 59, 100
3, 76288, Note_off_c, 1, 55, 100
3, 76800, Note_on_c, 1, 62, 100
3, 76800, Note_on_c, 1, 59, 100
3, 77056, Note_off_c, 1, 62, 100
3, 77056, Note_off_c, 1, 59, 100
3, 77184, Note_on_c, 1, 60, 100
3, 77184, Note_on_c, 1, 57, 100
3, 77440, Note_off_c, 1, 60, 100
3, 77440, Note_off_c, 1, 57, 100
3, 77568, Note_on_c, 1, 54, 100
3, 77824, Note_off_c, 1, 54, 100
3, 77952, Note_on_c, 1, 55, 100
3, 78208, Note_off_c, 1, 55, 100
3, 78336, Note_on_c, 1, 48, 100
3, 79364, Note_off_c, 1, 48, 100
3, 79488, Note_on_c, 1, 50, 100
3, 79744, Note_off_c, 1, 50, 100
3, 79872, Note_on_c, 1, 45, 100
3, 80128, Note_off_c, 1, 45, 100
3, 80256, Note_on_c, 1, 38, 100
3, 80512, Note_off_c, 1, 38, 100
3, 80640, Note_on_c, 1, 55, 100
3, 80724, Note_off_c, 1, 55, 100
3, 80768, Note_on_c, 1, 54, 100
3, 80852, Note_off_c, 1, 54, 100
3, 80896, Note_on_c, 1, 50, 100
3, 80980, Note_off_c, 1, 50, 100
3, 81024, Note_on_c, 1, 60, 100
3, 81024, Note_on_c, 1, 54, 100
3, 81024, Note_on_c, 1, 45, 100
3, 81280, Note_off_c, 1, 60, 100
3, 81280, Note_off_c, 1, 54, 100
3, 81280, Note_off_c, 1, 45, 100
3, 81408, Note_on_c, 1, 59, 100
3, 81408, Note_on_c, 1, 55, 100
3, 81408, Note_on_c, 1, 43, 100
3, 81664, Note_off_c, 1, 59, 100
3, 81664, Note_off_c, 1, 55, 100
3, 81664, Note_off_c, 1, 43, 100
3, 82176, Note_on_c, 1, 57, 100
3, 82432, Note_off_c, 1, 57, 100
3, 82560, Note_on_c, 1, 55, 100
3, 82816, Note_off_c, 1, 55, 100
3, 84480, Note_on_c, 1, 54, 100
3, 84736, Note_off_c, 1, 54, 100
3, 84864, Note_on_c, 1, 55, 100
3, 85120, Note_off_c, 1, 55, 100
3, 85248, Note_on_c, 1, 48, 100
3, 85504, Note_off_c, 1, 48, 100
3, 86016, Note_on_c, 1, 50, 100
3, 86272, Note_off_c, 1, 50, 100
3, 86400, Note_on_c, 1, 52, 100
3, 86912, Note_off_c, 1, 52, 100
3, 87936, Note_on_c, 1, 72, 100
3, 87936, Note_on_c, 1, 66, 100
3, 88192, Note_off_c, 1, 72, 100
3, 88192, Note_off_c, 1, 66, 100
3, 88320, Note_on_c, 1, 71, 100
3, 88320, Note_on_c, 1, 67, 100
3, 88576, Note_off_c, 1, 71, 100
3, 88576, Note_off_c, 1, 67, 100
3, 89088, Note_on_c, 1, 72, 100
3, 89088, Note_on_c, 1, 66, 100
3, 89344, Note_off_c, 1, 72, 100
3, 89344, Note_off_c, 1, 66, 100
3, 89472, Note_on_c, 1, 71, 100
3, 89472, Note_on_c, 1, 67, 100
3, 89728, Note_off_c, 1, 71, 100
3, 89728, Note_off_c, 1, 67, 100
3, 90240, Note_on_c, 1, 66, 100
3, 90240, Note_on_c, 1, 60, 100
3, 90496, Note_off_c, 1, 66, 100
3, 90496, Note_off_c, 1, 60, 100
3, 90624, Note_on_c, 1, 67, 100
3, 90624, Note_on_c, 1, 59, 100
3, 90880, Note_off_c, 1, 67, 100
3, 90880, Note_off_c, 1, 59, 100
3, 91392, Note_on_c, 1, 66, 100
3, 91392, Note_on_c, 1, 60, 100
3, 91648, Note_off_c, 1, 66, 100
3, 91648, Note_off_c, 1, 60, 100
3, 91776, Note_on_c, 1, 59, 100
3, 91776, Note_on_c, 1, 67, 100
3, 92032, Note_off_c, 1, 59, 100
3, 92032, Note_off_c, 1, 67, 100
3, 92160, Note_on_c, 1, 60, 100
3, 92160, Note_on_c, 1, 67, 100
3, 92416, Note_off_c, 1, 60, 100
3, 92544, Note_on_c, 1, 59, 100
3, 92672, Note_off_c, 1, 67, 100
3, 92800, Note_off_c, 1, 59, 100
3, 92928, Note_on_c, 1, 66, 100
3, 92928, Note_on_c, 1, 57, 100
3, 93184, Note_off_c, 1, 66, 100
3, 93184, Note_off_c, 1, 57, 100
3, 93312, Note_on_c, 1, 55, 100
3, 93312, Note_on_c, 1, 67, 100
3, 93568, Note_off_c, 1, 55, 100
3, 93568, Note_off_c, 1, 67, 100
3, 94464, Note_on_c, 1, 60, 100
3, 94464, Note_on_c, 1, 48, 100
3, 94720, Note_off_c, 1, 60, 100
3, 94720, Note_off_c, 1, 48, 100
3, 94848, Note_on_c, 1, 59, 100
3, 94848, Note_on_c, 1, 50, 100
3, 95104, Note_off_c, 1, 59, 100
3, 95104, Note_off_c, 1, 50, 100
3, 95232, Note_on_c, 1, 57, 100
3, 95232, Note_on_c, 1, 50, 100
3, 95488, Note_off_c, 1, 57, 100
3, 95488, Note_off_c, 1, 50, 100
3, 95616, Note_on_c, 1, 55, 100
3, 95872, Note_off_c, 1, 55, 100
3, 96000, Note_on_c, 1, 50, 100
3, 96256, Note_off_c, 1, 50, 100
3, 96384, Note_on_c, 1, 47, 100
3, 96640, Note_off_c, 1, 47, 100
3, 97920, Key_signature, -2, "minor"
3, 97920, Note_on_c, 1, 58, 100
3, 97920, Note_on_c, 1, 55, 100
3, 98176, Note_off_c, 1, 58, 100
3, 98176, Note_off_c, 1, 55, 100
3, 98304, Note_on_c, 1, 70, 100
3, 98304, Note_on_c, 1, 67, 100
3, 98560, Note_off_c, 1, 70, 100
3, 98560, Note_off_c, 1, 67, 100
3, 98688, Note_on_c, 1, 69, 100
3, 98688, Note_on_c, 1, 66, 100
3, 98944, Note_off_c, 1, 69, 100
3, 98944, Note_off_c, 1, 66, 100
3, 99072, Note_on_c, 1, 70, 100
3, 99072, Note_on_c, 1, 67, 100
3, 99328, Note_off_c, 1, 70, 100
3, 99328, Note_off_c, 1, 67, 100
3, 100224, Note_on_c, 1, 57, 100
3, 100224, Note_on_c, 1, 54, 100
3, 100480, Note_off_c, 1, 57, 100
3, 100480, Note_off_c, 1, 54, 100
3, 100608, Note_on_c, 1, 69, 100
3, 100608, Note_on_c, 1, 66, 100
3, 100864, Note_off_c, 1, 69, 100
3, 100864, Note_off_c, 1, 66, 100
3, 100992, Note_on_c, 1, 70, 100
3, 100992, Note_on_c, 1, 67, 100
3, 101248, Note_off_c, 1, 70, 100
3, 101248, Note_off_c, 1, 67, 100
3, 101376, Note_on_c, 1, 69, 100
3, 101376, Note_on_c, 1, 66, 100
3, 101632, Note_off_c, 1, 69, 100
3, 101632, Note_off_c, 1, 66, 100
3, 102912, Note_on_c, 1, 62, 100
3, 102912, Note_on_c, 1, 55, 100
3, 103168, Note_off_c, 1, 62, 100
3, 103168, Note_off_c, 1, 55, 100
3, 103296, Note_on_c, 1, 62, 100
3, 103296, Note_on_c, 1, 54, 100
3, 103552, Note_off_c, 1, 62, 100
3, 103552, Note_off_c, 1, 54, 100
3, 104064, Note_on_c, 1, 62, 100
3, 104064, Note_on_c, 1, 54, 100
3, 104320, Note_off_c, 1, 62, 100
3, 104320, Note_off_c, 1, 54, 100
3, 104448, Note_on_c, 1, 62, 100
3, 104448, Note_on_c, 1, 55, 100
3, 104704, Note_off_c, 1, 62, 100
3, 104704, Note_off_c, 1, 55, 100
3, 104832, Note_on_c, 1, 51, 100
3, 105088, Note_off_c, 1, 51, 100
3, 105600, Note_on_c, 1, 67, 100
3, 105600, Note_on_c, 1, 63, 100
3, 105856, Note_off_c, 1, 67, 100
3, 105856, Note_off_c, 1, 63, 100
3, 105984, Note_on_c, 1, 67, 100
3, 105984, Note_on_c, 1, 62, 100
3, 106496, Note_off_c, 1, 67, 100
3, 106496, Note_off_c, 1, 62, 100
3, 106752, Note_on_c, 1, 66, 100
3, 107008, Note_off_c, 1, 66, 100
3, 107136, Note_on_c, 1, 58, 100
3, 107136, Note_on_c, 1, 55, 100
3, 107392, Note_off_c, 1, 58, 100
3, 107392, Note_off_c, 1, 55, 100
3, 107520, Note_on_c, 1, 70, 100
3, 107520, Note_on_c, 1, 67, 100
3, 107776, Note_off_c, 1, 70, 100
3, 107776, Note_off_c, 1, 67, 100
3, 107904, Note_on_c, 1, 69, 100
3, 107904, Note_on_c, 1, 66, 100
3, 108160, Note_off_c, 1, 69, 100
3, 108160, Note_off_c, 1, 66, 100
3, 108288, Note_on_c, 1, 70, 100
3, 108288, Note_on_c, 1, 67, 100
3, 108544, Note_off_c, 1, 70, 100
3, 108544, Note_off_c, 1, 67, 100
3, 109440, Note_on_c, 1, 57, 100
3, 109440, Note_on_c, 1, 54, 100
3, 109696, Note_off_c, 1, 57, 100
3, 109696, Note_off_c, 1, 54, 100
3, 109824, Note_on_c, 1, 69, 100
3, 109824, Note_on_c, 1, 66, 100
3, 110080, Note_off_c, 1, 69, 100
3, 110080, Note_off_c, 1, 66, 100
3, 110208, Note_on_c, 1, 70, 100
3, 110208, Note_on_c, 1, 67, 100
3, 110464, Note_off_c, 1, 70, 100
3, 110464, Note_off_c, 1, 67, 100
3, 110592, Note_on_c, 1, 69, 100
3, 110592, Note_on_c, 1, 66, 100
3, 110848, Note_off_c, 1, 69, 100
3, 110848, Note_off_c, 1, 66, 100
3, 112128, Note_on_c, 1, 62, 100
3, 112128, Note_on_c, 1, 55, 100
3, 112384, Note_off_c, 1, 62, 100
3, 112384, Note_off_c, 1, 55, 100
3, 112512, Note_on_c, 1, 62, 100
3, 112512, Note_on_c, 1, 54, 100
3, 112768, Note_off_c, 1, 62, 100
3, 112768, Note_off_c, 1, 54, 100
3, 113280, Note_on_c, 1, 62, 100
3, 113280, Note_on_c, 1, 54, 100
3, 113536, Note_off_c, 1, 62, 100
3, 113536, Note_off_c, 1, 54, 100
3, 113664, Note_on_c, 1, 62, 100
3, 113664, Note_on_c, 1, 55, 100
3, 113920, Note_off_c, 1, 62, 100
3, 113920, Note_off_c, 1, 55, 100
3, 114048, Note_on_c, 1, 51, 100
3, 114304, Note_off_c, 1, 51, 100
3, 114816, Note_on_c, 1, 67, 100
3, 114816, Note_on_c, 1, 63, 100
3, 115072, Note_off_c, 1, 67, 100
3, 115072, Note_off_c, 1, 63, 100
3, 115200, Note_on_c, 1, 67, 100
3, 115200, Note_on_c, 1, 62, 100
3, 115712, Note_off_c, 1, 67, 100
3, 115712, Note_off_c, 1, 62, 100
3, 115968, Note_on_c, 1, 66, 100
3, 116224, Note_off_c, 1, 66, 100
3, 116352, Note_on_c, 1, 46, 100
3, 116480, Note_off_c, 1, 46, 100
3, 116544, Note_on_c, 1, 58, 100
3, 116672, Note_off_c, 1, 58, 100
3, 116736, Note_on_c, 1, 46, 100
3, 116864, Note_off_c, 1, 46, 100
3, 116928, Note_on_c, 1, 58, 100
3, 117056, Note_off_c, 1, 58, 100
3, 117120, Note_on_c, 1, 46, 100
3, 117248, Note_off_c, 1, 46, 100
3, 117312, Note_on_c, 1, 58, 100
3, 117440, Note_off_c, 1, 58, 100
3, 117504, Note_on_c, 1, 46, 100
3, 117632, Note_off_c, 1, 46, 100
3, 117696, Note_on_c, 1, 58, 100
3, 117824, Note_off_c, 1, 58, 100
3, 117888, Note_on_c, 1, 46, 100
3, 118016, Note_off_c, 1, 46, 100
3, 118080, Note_on_c, 1, 58, 100
3, 118208, Note_off_c, 1, 58, 100
3, 118272, Note_on_c, 1, 46, 100
3, 118400, Note_off_c, 1, 46, 100
3, 118464, Note_on_c, 1, 58, 100
3, 118592, Note_off_c, 1, 58, 100
3, 118656, Note_on_c, 1, 46, 100
3, 118784, Note_off_c, 1, 46, 100
3, 118848, Note_on_c, 1, 58, 100
3, 118976, Note_off_c, 1, 58, 100
3, 119040, Note_on_c, 1, 46, 100
3, 119168, Note_off_c, 1, 46, 100
3, 119232, Note_on_c, 1, 58, 100
3, 119360, Note_off_c, 1, 58, 100
3, 119424, Note_on_c, 1, 46, 100
3, 119552, Note_off_c, 1, 46, 100
3, 119616, Note_on_c, 1, 58, 100
3, 119744, Note_off_c, 1, 58, 100
3, 119808, Note_on_c, 1, 46, 100
3, 119936, Note_off_c, 1, 46, 100
3, 120000, Note_on_c, 1, 58, 100
3, 120128, Note_off_c, 1, 58, 100
3, 120192, Note_on_c, 1, 46, 100
3, 120320, Note_off_c, 1, 46, 100
3, 120384, Note_on_c, 1, 58, 100
3, 120512, Note_off_c, 1, 58, 100
3, 120576, Note_on_c, 1, 58, 100
3, 120576, Note_on_c, 1, 50, 100
3, 120832, Note_off_c, 1, 58, 100
3, 120832, Note_off_c, 1, 50, 100
3, 120960, Note_on_c, 1, 51, 100
3, 120960, Note_on_c, 1, 58, 100
3, 121216, Note_off_c, 1, 51, 100
3, 121344, Note_on_c, 1, 55, 100
3, 121600, Note_off_c, 1, 55, 100
3, 121728, Note_on_c, 1, 58, 100
3, 121984, Note_off_c, 1, 58, 100
3, 121988, Note_off_c, 1, 58, 100
3, 122112, Note_on_c, 1, 57, 100
3, 122496, Note_on_c, 1, 65, 100
3, 122880, Note_on_c, 1, 58, 100
3, 123008, Note_off_c, 1, 65, 100
3, 123136, Note_off_c, 1, 58, 100
3, 123140, Note_off_c, 1, 57, 100
3, 123264, Note_on_c, 1, 63, 100
3, 123264, Note_on_c, 1, 51, 100
3, 123520, Note_off_c, 1, 63, 100
3, 123520, Note_off_c, 1, 51, 100
3, 123648, Note_on_c, 1, 62, 100
3, 123648, Note_on_c, 1, 53, 100
3, 123904, Note_off_c, 1, 62, 100
3, 123904, Note_off_c, 1, 53, 100
3, 124032, Note_on_c, 1, 60, 100
3, 124032, Note_on_c, 1, 53, 100
3, 124288, Note_off_c, 1, 60, 100
3, 124288, Note_off_c, 1, 53, 100
3, 124416, Note_on_c, 1, 58, 100
3, 124672, Note_off_c, 1, 58, 100
3, 124800, Note_on_c, 1, 62, 100
3, 124928, Note_off_c, 1, 62, 100
3, 124992, Note_on_c, 1, 60, 100
3, 125120, Note_off_c, 1, 60, 100
3, 125184, Note_on_c, 1, 58, 100
3, 125312, Note_off_c, 1, 58, 100
3, 125376, Note_on_c, 1, 57, 100
3, 125504, Note_off_c, 1, 57, 100
3, 125568, Note_on_c, 1, 58, 100
3, 125568, Note_on_c, 1, 55, 100
3, 125824, Note_off_c, 1, 58, 100
3, 125824, Note_off_c, 1, 55, 100
3, 125952, Note_on_c, 1, 70, 100
3, 125952, Note_on_c, 1, 67, 100
3, 126208, Note_off_c, 1, 70, 100
3, 126208, Note_off_c, 1, 67, 100
3, 126336, Note_on_c, 1, 69, 100
3, 126336, Note_on_c, 1, 66, 100
3, 126592, Note_off_c, 1, 69, 100
3, 126592, Note_off_c, 1, 66, 100
3, 126720, Note_on_c, 1, 70, 100
3, 126720, Note_on_c, 1, 67, 100
3, 126976, Note_off_c, 1, 70, 100
3, 126976, Note_off_c, 1, 67, 100
3, 127872, Note_on_c, 1, 57, 100
3, 127872, Note_on_c, 1, 54, 100
3, 128128, Note_off_c, 1, 57, 100
3, 128128, Note_off_c, 1, 54, 100
3, 128256, Note_on_c, 1, 69, 100
3, 128256, Note_on_c, 1, 66, 100
3, 128512, Note_off_c, 1, 69, 100
3, 128512, Note_off_c, 1, 66, 100
3, 128640, Note_on_c, 1, 70, 100
3, 128640, Note_on_c, 1, 67, 100
3, 128896, Note_off_c, 1, 70, 100
3, 128896, Note_off_c, 1, 67, 100
3, 129024, Note_on_c, 1, 69, 100
3, 129024, Note_on_c, 1, 66, 100
3, 129280, Note_off_c, 1, 69, 100
3, 129280, Note_off_c, 1, 66, 100
3, 130560, Note_on_c, 1, 62, 100
3, 130560, Note_on_c, 1, 55, 100
3, 130816, Note_off_c, 1, 62, 100
3, 130816, Note_off_c, 1, 55, 100
3, 130944, Note_on_c, 1, 62, 100
3, 130944, Note_on_c, 1, 54, 100
3, 131200, Note_off_c, 1, 62, 100
3, 131200, Note_off_c, 1, 54, 100
3, 131712, Note_on_c, 1, 62, 100
3, 131712, Note_on_c, 1, 54, 100
3, 131968, Note_off_c, 1, 62, 100
3, 131968, Note_off_c, 1, 54, 100
3, 132096, Note_on_c, 1, 62, 100
3, 132096, Note_on_c, 1, 55, 100
3, 132352, Note_off_c, 1, 62, 100
3, 132352, Note_off_c, 1, 55, 100
3, 132480, Note_on_c, 1, 60, 100
3, 132480, Note_on_c, 1, 48, 100
3, 132736, Note_off_c, 1, 60, 100
3, 132736, Note_off_c, 1, 48, 100
3, 132864, Note_on_c, 1, 58, 100
3, 132864, Note_on_c, 1, 50, 100
3, 133120, Note_off_c, 1, 58, 100
3, 133120, Note_off_c, 1, 50, 100
3, 133248, Note_on_c, 1, 57, 100
3, 133248, Note_on_c, 1, 50, 100
3, 133504, Note_off_c, 1, 57, 100
3, 133504, Note_off_c, 1, 50, 100
3, 133632, Note_on_c, 1, 55, 100
3, 133888, Note_off_c, 1, 55, 100
3, 134016, Note_on_c, 1, 50, 100
3, 134272, Note_off_c, 1, 50, 100
3, 134400, Note_on_c, 1, 43, 100
3, 134656, Note_off_c, 1, 43, 100
3, 134784, Note_on_c, 1, 46, 100
3, 134912, Note_off_c, 1, 46, 100
3, 134976, Note_on_c, 1, 58, 100
3, 135104, Note_off_c, 1, 58, 100
3, 135168, Note_on_c, 1, 46, 100
3, 135296, Note_off_c, 1, 46, 100
3, 135360, Note_on_c, 1, 58, 100
3, 135488, Note_off_c, 1, 58, 100
3, 135552, Note_on_c, 1, 46, 100
3, 135680, Note_off_c, 1, 46, 100
3, 135744, Note_on_c, 1, 58, 100
3, 135872, Note_off_c, 1, 58, 100
3, 135936, Note_on_c, 1, 46, 100
3, 136064, Note_off_c, 1, 46, 100
3, 136128, Note_on_c, 1, 58, 100
3, 136256, Note_off_c, 1, 58, 100
3, 136320, Note_on_c, 1, 46, 100
3, 136448, Note_off_c, 1, 46, 100
3, 136512, Note_on_c, 1, 58, 100
3, 136640, Note_off_c, 1, 58, 100
3, 136704, Note_on_c, 1, 46, 100
3, 136832, Note_off_c, 1, 46, 100
3, 136896, Note_on_c, 1, 58, 100
3, 137024, Note_off_c, 1, 58, 100
3, 137088, Note_on_c, 1, 46, 100
3, 137216, Note_off_c, 1, 46, 100
3, 137280, Note_on_c, 1, 58, 100
3, 137408, Note_off_c, 1, 58, 100
3, 137472, Note_on_c, 1, 46, 100
3, 137600, Note_off_c, 1, 46, 100
3, 137664, Note_on_c, 1, 58, 100
3, 137792, Note_off_c, 1, 58, 100
3, 137856, Note_on_c, 1, 46, 100
3, 137984, Note_off_c, 1, 46, 100
3, 138048, Note_on_c, 1, 58, 100
3, 138176, Note_off_c, 1, 58, 100
3, 138240, Note_on_c, 1, 46, 100
3, 138368, Note_off_c, 1, 46, 100
3, 138432, Note_on_c, 1, 58, 100
3, 138560, Note_off_c, 1, 58, 100
3, 138624, Note_on_c, 1, 46, 100
3, 138752, Note_off_c, 1, 46, 100
3, 138816, Note_on_c, 1, 58, 100
3, 138944, Note_off_c, 1, 58, 100
3, 139008, Note_on_c, 1, 58, 100
3, 139008, Note_on_c, 1, 50, 100
3, 139264, Note_off_c, 1, 58, 100
3, 139264, Note_off_c, 1, 50, 100
3, 139392, Note_on_c, 1, 51, 100
3, 139392, Note_on_c, 1, 58, 100
3, 139648, Note_off_c, 1, 51, 100
3, 139776, Note_on_c, 1, 55, 100
3, 140032, Note_off_c, 1, 55, 100
3, 140160, Note_on_c, 1, 58, 100
3, 140416, Note_off_c, 1, 58, 100
3, 140420, Note_off_c, 1, 58, 100
3, 140544, Note_on_c, 1, 57, 100
3, 140928, Note_on_c, 1, 65, 100
3, 141312, Note_on_c, 1, 58, 100
3, 141440, Note_off_c, 1, 65, 100
3, 141568, Note_off_c, 1, 58, 100
3, 141572, Note_off_c, 1, 57, 100
3, 141696, Note_on_c, 1, 63, 100
3, 141696, Note_on_c, 1, 51, 100
3, 141952, Note_off_c, 1, 63, 100
3, 141952, Note_off_c, 1, 51, 100
3, 142080, Note_on_c, 1, 62, 100
3, 142080, Note_on_c, 1, 53, 100
3, 142336, Note_off_c, 1, 62, 100
3, 142336, Note_off_c, 1, 53, 100
3, 142464, Note_on_c, 1, 60, 100
3, 142464, Note_on_c, 1, 53, 100
3, 142720, Note_off_c, 1, 60, 100
3, 142720, Note_off_c, 1, 53, 100
3, 142848, Note_on_c, 1, 58, 100
3, 143104, Note_off_c, 1, 58, 100
3, 143232, Note_on_c, 1, 62, 100
3, 143360, Note_off_c, 1, 62, 100
3, 143424, Note_on_c, 1, 60, 100
3, 143552, Note_off_c, 1, 60, 100
3, 143616, Note_on_c, 1, 58, 100
3, 143744, Note_off_c, 1, 58, 100
3, 143808, Note_on_c, 1, 57, 100
3, 143936, Note_off_c, 1, 57, 100
3, 144000, Note_on_c, 1, 58, 100
3, 144000, Note_on_c, 1, 55, 100
3, 144256, Note_off_c, 1, 58, 100
3, 144256, Note_off_c, 1, 55, 100
3, 144384, Note_on_c, 1, 70, 100
3, 144384, Note_on_c, 1, 67, 100
3, 144640, Note_off_c, 1, 70, 100
3, 144640, Note_off_c, 1, 67, 100
3, 144768, Note_on_c, 1, 69, 100
3, 144768, Note_on_c, 1, 66, 100
3, 145024, Note_off_c, 1, 69, 100
3, 145024, Note_off_c, 1, 66, 100
3, 145152, Note_on_c, 1, 70, 100
3, 145152, Note_on_c, 1, 67, 100
3, 145408, Note_off_c, 1, 70, 100
3, 145408, Note_off_c, 1, 67, 100
3, 146304, Note_on_c, 1, 57, 100
3, 146304, Note_on_c, 1, 54, 100
3, 146560, Note_off_c, 1, 57, 100
3, 146560, Note_off_c, 1, 54, 100
3, 146688, Note_on_c, 1, 69, 100
3, 146688, Note_on_c, 1, 66, 100
3, 146944, Note_off_c, 1, 69, 100
3, 146944, Note_off_c, 1, 66, 100
3, 147072, Note_on_c, 1, 70, 100
3, 147072, Note_on_c, 1, 67, 100
3, 147328, Note_off_c, 1, 70, 100
3, 147328, Note_off_c, 1, 67, 100
3, 147456, Note_on_c, 1, 69, 100
3, 147456, Note_on_c, 1, 66, 100
3, 147712, Note_off_c, 1, 69, 100
3, 147712, Note_off_c, 1, 66, 100
3, 148992, Note_on_c, 1, 62, 100
3, 148992, Note_on_c, 1, 55, 100
3, 149248, Note_off_c, 1, 62, 100
3, 149248, Note_off_c, 1, 55, 100
3, 149376, Note_on_c, 1, 62, 100
3, 149376, Note_on_c, 1, 54, 100
3, 149632, Note_off_c, 1, 62, 100
3, 149632, Note_off_c, 1, 54, 100
3, 150144, Note_on_c, 1, 62, 100
3, 150144, Note_on_c, 1, 54, 100
3, 150400, Note_off_c, 1, 62, 100
3, 150400, Note_off_c, 1, 54, 100
3, 150528, Note_on_c, 1, 62, 100
3, 150528, Note_on_c, 1, 55, 100
3, 150784, Note_off_c, 1, 62, 100
3, 150784, Note_off_c, 1, 55, 100
3, 150912, Note_on_c, 1, 60, 100
3, 150912, Note_on_c, 1, 48, 100
3, 151168, Note_off_c, 1, 60, 100
3, 151168, Note_off_c, 1, 48, 100
3, 151296, Note_on_c, 1, 58, 100
3, 151296, Note_on_c, 1, 50, 100
3, 151552, Note_off_c, 1, 58, 100
3, 151552, Note_off_c, 1, 50, 100
3, 151680, Note_on_c, 1, 57, 100
3, 151680, Note_on_c, 1, 50, 100
3, 151936, Note_off_c, 1, 57, 100
3, 151936, Note_off_c, 1, 50, 100
3, 152064, Note_on_c, 1, 55, 100
3, 152320, Note_off_c, 1, 55, 100
3, 152448, Note_on_c, 1, 50, 100
3, 152704, Note_off_c, 1, 50, 100
3, 152832, Note_on_c, 1, 43, 100
3, 153088, Note_off_c, 1, 43, 100
3, 153088, End_track
0, 0, End_of_file
