0, 0, Header, 1, 4, 384
1, 0, Start_track
1, 0, Time_signature, 2, 2, 96, 8
1, 0, Sequencer_specific, 3, 0, 0, 65
1, 0, Sequencer_specific, 5, 0, 0, 119, 14, 0
1, 0, Tempo, 600000
1, 0, End_track
2, 0, Start_track
2, 0, Control_c, 0, 7, 100
2, 0, Key_signature, 1, "major"
2, 576, Note_on_c, 0, 62, 100
2, 704, Note_off_c, 0, 62, 100
2, 768, Note_on_c, 0, 67, 100
2, 800, Note_off_c, 0, 67, 100
2, 816, Note_on_c, 0, 69, 100
2, 848, Note_off_c, 0, 69, 100
2, 864, Note_on_c, 0, 67, 100
2, 896, Note_off_c, 0, 67, 100
2, 912, Note_on_c, 0, 66, 100
2, 944, Note_off_c, 0, 66, 100
2, 960, Note_on_c, 0, 67, 100
2, 1024, Note_off_c, 0, 67, 100
2, 1056, Note_on_c, 0, 69, 100
2, 1120, Note_off_c, 0, 69, 100
2, 1152, Note_on_c, 0, 71, 100
2, 1184, Note_off_c, 0, 71, 100
2, 1200, Note_on_c, 0, 72, 100
2, 1232, Note_off_c, 0, 72, 100
2, 1248, Note_on_c, 0, 71, 100
2, 1280, Note_off_c, 0, 71, 100
2, 1296, Note_on_c, 0, 69, 100
2, 1328, Note_off_c, 0, 69, 100
2, 1344, Note_on_c, 0, 71, 100
2, 1408, Note_off_c, 0, 71, 100
2, 1440, Note_on_c, 0, 72, 100
2, 1504, Note_off_c, 0, 72, 100
2, 1536, Note_on_c, 0, 74, 100
2, 1664, Note_off_c, 0, 74, 100
2, 1728, Note_on_c, 0, 74, 100
2, 1856, Note_off_c, 0, 74, 100
2, 1920, Note_on_c, 0, 74, 100
2, 2048, Note_off_c, 0, 74, 100
2, 2112, Note_on_c, 0, 74, 100
2, 2240, Note_off_c, 0, 74, 100
2, 2304, Note_on_c, 0, 74, 100
2, 2432, Note_off_c, 0, 74, 100
2, 2496, Note_on_c, 0, 76, 100
2, 2560, Note_off_c, 0, 76, 100
2, 2592, Note_on_c, 0, 78, 100
2, 2656, Note_off_c, 0, 78, 100
2, 2664, Note_on_c, 0, 81, 100
2, 2680, Note_off_c, 0, 81, 100
2, 2688, Note_on_c, 0, 79, 100
2, 2816, Note_off_c, 0, 79, 100
2, 2880, Note_on_c, 0, 78, 100
2, 2944, Note_off_c, 0, 78, 100
2, 2976, Note_on_c, 0, 76, 100
2, 3040, Note_off_c, 0, 76, 100
2, 3072, Note_on_c, 0, 74, 100
2, 3200, Note_off_c, 0, 74, 100
2, 3264, Note_on_c, 0, 74, 100
2, 3392, Note_off_c, 0, 74, 100
2, 3456, Note_on_c, 0, 74, 100
2, 3584, Note_off_c, 0, 74, 100
2, 3648, Note_on_c, 0, 74, 100
2, 3776, Note_off_c, 0, 74, 100
2, 3840, Note_on_c, 0, 74, 100
2, 3968, Note_off_c, 0, 74, 100
2, 4032, Note_on_c, 0, 76, 100
2, 4096, Note_off_c, 0, 76, 100
2, 4128, Note_on_c, 0, 78, 100
2, 4192, Note_off_c, 0, 78, 100
2, 4200, Note_on_c, 0, 81, 100
2, 4216, Note_off_c, 0, 81, 100
2, 4224, Note_on_c, 0, 79, 100
2, 4352, Note_off_c, 0, 79, 100
2, 4416, Note_on_c, 0, 78, 100
2, 4480, Note_off_c, 0, 78, 100
2, 4512, Note_on_c, 0, 76, 100
2, 4576, Note_off_c, 0, 76, 100
2, 4608, Note_on_c, 0, 74, 100
2, 4736, Note_off_c, 0, 74, 100
2, 4800, Note_on_c, 0, 79, 100
2, 4864, Note_off_c, 0, 79, 100
2, 4896, Note_on_c, 0, 83, 100
2, 4960, Note_off_c, 0, 83, 100
2, 4992, Note_on_c, 0, 81, 100
2, 5056, Note_off_c, 0, 81, 100
2, 5088, Note_on_c, 0, 79, 100
2, 5152, Note_off_c, 0, 79, 100
2, 5184, Note_on_c, 0, 78, 100
2, 5248, Note_off_c, 0, 78, 100
2, 5280, Note_on_c, 0, 76, 100
2, 5344, Note_off_c, 0, 76, 100
2, 5376, Note_on_c, 0, 74, 100
2, 5632, Note_off_c, 0, 74, 100
2, 5760, Note_on_c, 0, 72, 100
2, 5776, Note_off_c, 0, 72, 100
2, 5784, Note_on_c, 0, 74, 100
2, 5800, Note_off_c, 0, 74, 100
2, 5808, Note_on_c, 0, 72, 100
2, 5824, Note_off_c, 0, 72, 100
2, 5832, Note_on_c, 0, 74, 100
2, 5848, Note_off_c, 0, 74, 100
2, 5856, Note_on_c, 0, 72, 100
2, 5872, Note_off_c, 0, 72, 100
2, 5880, Note_on_c, 0, 74, 100
2, 5896, Note_off_c, 0, 74, 100
2, 5904, Note_on_c, 0, 72, 100
2, 5920, Note_off_c, 0, 72, 100
2, 5928, Note_on_c, 0, 74, 100
2, 5944, Note_off_c, 0, 74, 100
2, 5952, Note_on_c, 0, 72, 100
2, 5968, Note_off_c, 0, 72, 100
2, 5976, Note_on_c, 0, 74, 100
2, 5992, Note_off_c, 0, 74, 100
2, 6000, Note_on_c, 0, 72, 100
2, 6016, Note_off_c, 0, 72, 100
2, 6024, Note_on_c, 0, 74, 100
2, 6040, Note_off_c, 0, 74, 100
2, 6048, Note_on_c, 0, 72, 100
2, 6064, Note_off_c, 0, 72, 100
2, 6072, Note_on_c, 0, 74, 100
2, 6088, Note_off_c, 0, 74, 100
2, 6096, Note_on_c, 0, 72, 100
2, 6112, Note_off_c, 0, 72, 100
2, 6120, Note_on_c, 0, 74, 100
2, 6136, Note_off_c, 0, 74, 100
2, 6144, Note_on_c, 0, 71, 100
2, 6400, Note_off_c, 0, 71, 100
2, 6720, Note_on_c, 0, 67, 100
2, 6848, Note_off_c, 0, 67, 100
2, 6912, Note_on_c, 0, 66, 100
2, 6928, Note_off_c, 0, 66, 100
2, 6936, Note_on_c, 0, 67, 100
2, 6952, Note_off_c, 0, 67, 100
2, 6960, Note_on_c, 0, 66, 100
2, 6976, Note_off_c, 0, 66, 100
2, 6984, Note_on_c, 0, 67, 100
2, 7000, Note_off_c, 0, 67, 100
2, 7008, Note_on_c, 0, 66, 100
2, 7024, Note_off_c, 0, 66, 100
2, 7032, Note_on_c, 0, 67, 100
2, 7048, Note_off_c, 0, 67, 100
2, 7056, Note_on_c, 0, 66, 100
2, 7072, Note_off_c, 0, 66, 100
2, 7080, Note_on_c, 0, 67, 100
2, 7096, Note_off_c, 0, 67, 100
2, 7104, Note_on_c, 0, 64, 100
2, 7232, Note_off_c, 0, 64, 100
2, 7296, Note_on_c, 0, 62, 100
2, 7312, Note_off_c, 0, 62, 100
2, 7320, Note_on_c, 0, 64, 100
2, 7336, Note_off_c, 0, 64, 100
2, 7344, Note_on_c, 0, 62, 100
2, 7360, Note_off_c, 0, 62, 100
2, 7368, Note_on_c, 0, 64, 100
2, 7384, Note_off_c, 0, 64, 100
2, 7392, Note_on_c, 0, 62, 100
2, 7408, Note_off_c, 0, 62, 100
2, 7416, Note_on_c, 0, 64, 100
2, 7432, Note_off_c, 0, 64, 100
2, 7440, Note_on_c, 0, 62, 100
2, 7456, Note_off_c, 0, 62, 100
2, 7464, Note_on_c, 0, 64, 100
2, 7480, Note_off_c, 0, 64, 100
2, 7488, Note_on_c, 0, 60, 100
2, 7616, Note_off_c, 0, 60, 100
2, 7680, Note_on_c, 0, 59, 100
2, 7936, Note_off_c, 0, 59, 100
2, 8256, Note_on_c, 0, 64, 100
2, 8296, Note_off_c, 0, 64, 100
2, 8320, Note_on_c, 0, 66, 100
2, 8360, Note_off_c, 0, 66, 100
2, 8384, Note_on_c, 0, 64, 100
2, 8424, Note_off_c, 0, 64, 100
2, 8448, Note_on_c, 0, 62, 100
2, 8576, Note_off_c, 0, 62, 100
2, 8640, Note_on_c, 0, 60, 100
2, 8680, Note_off_c, 0, 60, 100
2, 8704, Note_on_c, 0, 62, 100
2, 8744, Note_off_c, 0, 62, 100
2, 8768, Note_on_c, 0, 60, 100
2, 8808, Note_off_c, 0, 60, 100
2, 8832, Note_on_c, 0, 59, 100
2, 8960, Note_off_c, 0, 59, 100
2, 9024, Note_on_c, 0, 57, 100
2, 9064, Note_off_c, 0, 57, 100
2, 9088, Note_on_c, 0, 59, 100
2, 9128, Note_off_c, 0, 59, 100
2, 9152, Note_on_c, 0, 57, 100
2, 9192, Note_off_c, 0, 57, 100
2, 9216, Note_on_c, 0, 55, 100
2, 9472, Note_off_c, 0, 55, 100
2, 9792, Note_on_c, 0, 62, 100
2, 9920, Note_off_c, 0, 62, 100
2, 9984, Note_on_c, 0, 67, 100
2, 10048, Note_off_c, 0, 67, 100
2, 10080, Note_on_c, 0, 66, 100
2, 10144, Note_off_c, 0, 66, 100
2, 10176, Note_on_c, 0, 69, 100
2, 10240, Note_off_c, 0, 69, 100
2, 10272, Note_on_c, 0, 67, 100
2, 10336, Note_off_c, 0, 67, 100
2, 10368, Note_on_c, 0, 71, 100
2, 10432, Note_off_c, 0, 71, 100
2, 10464, Note_on_c, 0, 69, 100
2, 10528, Note_off_c, 0, 69, 100
2, 10560, Note_on_c, 0, 72, 100
2, 10624, Note_off_c, 0, 72, 100
2, 10656, Note_on_c, 0, 71, 100
2, 10720, Note_off_c, 0, 71, 100
2, 10752, Note_on_c, 0, 74, 100
2, 10880, Note_off_c, 0, 74, 100
2, 10944, Note_on_c, 0, 74, 100
2, 11072, Note_off_c, 0, 74, 100
2, 11136, Note_on_c, 0, 74, 100
2, 11264, Note_off_c, 0, 74, 100
2, 11328, Note_on_c, 0, 74, 100
2, 11456, Note_off_c, 0, 74, 100
2, 11520, Note_on_c, 0, 74, 100
2, 11648, Note_off_c, 0, 74, 100
2, 11712, Note_on_c, 0, 76, 100
2, 11776, Note_off_c, 0, 76, 100
2, 11808, Note_on_c, 0, 78, 100
2, 11872, Note_off_c, 0, 78, 100
2, 11880, Note_on_c, 0, 81, 100
2, 11896, Note_off_c, 0, 81, 100
2, 11904, Note_on_c, 0, 79, 100
2, 12032, Note_off_c, 0, 79, 100
2, 12096, Note_on_c, 0, 78, 100
2, 12160, Note_off_c, 0, 78, 100
2, 12192, Note_on_c, 0, 76, 100
2, 12256, Note_off_c, 0, 76, 100
2, 12288, Note_on_c, 0, 74, 100
2, 12416, Note_off_c, 0, 74, 100
2, 12480, Note_on_c, 0, 74, 100
2, 12608, Note_off_c, 0, 74, 100
2, 12672, Note_on_c, 0, 74, 100
2, 12800, Note_off_c, 0, 74, 100
2, 12864, Note_on_c, 0, 74, 100
2, 12992, Note_off_c, 0, 74, 100
2, 13056, Note_on_c, 0, 74, 100
2, 13184, Note_off_c, 0, 74, 100
2, 13248, Note_on_c, 0, 79, 100
2, 13376, Note_off_c, 0, 79, 100
2, 13440, Note_on_c, 0, 78, 100
2, 13568, Note_off_c, 0, 78, 100
2, 13632, Note_on_c, 0, 74, 100
2, 13760, Note_off_c, 0, 74, 100
2, 13824, Note_on_c, 0, 75, 100
2, 14080, Note_off_c, 0, 75, 100
2, 14208, Note_on_c, 0, 76, 100
2, 14464, Note_off_c, 0, 76, 100
2, 14592, Note_on_c, 0, 76, 100
2, 14720, Note_off_c, 0, 76, 100
2, 14784, Note_on_c, 0, 79, 100
2, 14912, Note_off_c, 0, 79, 100
2, 14976, Note_on_c, 0, 76, 100
2, 15104, Note_off_c, 0, 76, 100
2, 15168, Note_on_c, 0, 72, 100
2, 15296, Note_off_c, 0, 72, 100
2, 15360, Note_on_c, 0, 73, 100
2, 15616, Note_off_c, 0, 73, 100
2, 15744, Note_on_c, 0, 74, 100
2, 16000, Note_off_c, 0, 74, 100
2, 16128, Note_on_c, 0, 74, 100
2, 16256, Note_off_c, 0, 74, 100
2, 16272, Note_on_c, 0, 79, 100
2, 16304, Note_off_c, 0, 79, 100
2, 16320, Note_on_c, 0, 83, 100
2, 16448, Note_off_c, 0, 83, 100
2, 16464, Note_on_c, 0, 81, 100
2, 16496, Note_off_c, 0, 81, 100
2, 16512, Note_on_c, 0, 79, 100
2, 16576, Note_off_c, 0, 79, 100
2, 16656, Note_on_c, 0, 78, 100
2, 16688, Note_off_c, 0, 78, 100
2, 16704, Note_on_c, 0, 76, 100
2, 16768, Note_off_c, 0, 76, 100
2, 16896, Note_on_c, 0, 74, 100
2, 17152, Note_off_c, 0, 74, 100
2, 17280, Note_on_c, 0, 72, 100
2, 17312, Note_off_c, 0, 72, 100
2, 17328, Note_on_c, 0, 74, 100
2, 17360, Note_off_c, 0, 74, 100
2, 17376, Note_on_c, 0, 72, 100
2, 17408, Note_off_c, 0, 72, 100
2, 17424, Note_on_c, 0, 74, 100
2, 17456, Note_off_c, 0, 74, 100
2, 17472, Note_on_c, 0, 71, 100
2, 17600, Note_off_c, 0, 71, 100
2, 17664, Note_on_c, 0, 71, 100
2, 17728, Note_off_c, 0, 71, 100
2, 17760, Note_on_c, 0, 69, 100
2, 17824, Note_off_c, 0, 69, 100
2, 17856, Note_on_c, 0, 75, 100
2, 17920, Note_off_c, 0, 75, 100
2, 17952, Note_on_c, 0, 76, 100
2, 18016, Note_off_c, 0, 76, 100
2, 18048, Note_on_c, 0, 74, 100
2, 18112, Note_off_c, 0, 74, 100
2, 18144, Note_on_c, 0, 72, 100
2, 18208, Note_off_c, 0, 72, 100
2, 18240, Note_on_c, 0, 71, 100
2, 18304, Note_off_c, 0, 71, 100
2, 18336, Note_on_c, 0, 69, 100
2, 18400, Note_off_c, 0, 69, 100
2, 18432, Note_on_c, 0, 67, 100
2, 18688, Note_off_c, 0, 67, 100
2, 18816, Note_on_c, 0, 66, 100
2, 18944, Note_off_c, 0, 66, 100
2, 19008, Note_on_c, 0, 69, 100
2, 19136, Note_off_c, 0, 69, 100
2, 19200, Note_on_c, 0, 74, 100
2, 19456, Note_off_c, 0, 74, 100
2, 19560, Note_on_c, 0, 79, 100
2, 19576, Note_off_c, 0, 79, 100
2, 19584, Note_on_c, 0, 78, 100
2, 19712, Note_off_c, 0, 78, 100
2, 19776, Note_on_c, 0, 76, 100
2, 19840, Note_off_c, 0, 76, 100
2, 19872, Note_on_c, 0, 74, 100
2, 19936, Note_off_c, 0, 74, 100
2, 19944, Note_on_c, 0, 74, 100
2, 19960, Note_off_c, 0, 74, 100
2, 19968, Note_on_c, 0, 73, 100
2, 20224, Note_off_c, 0, 73, 100
2, 20544, Note_on_c, 0, 69, 100
2, 20672, Note_off_c, 0, 69, 100
2, 20736, Note_on_c, 0, 76, 100
2, 20992, Note_off_c, 0, 76, 100
2, 21096, Note_on_c, 0, 81, 100
2, 21112, Note_off_c, 0, 81, 100
2, 21120, Note_on_c, 0, 79, 100
2, 21248, Note_off_c, 0, 79, 100
2, 21312, Note_on_c, 0, 78, 100
2, 21376, Note_off_c, 0, 78, 100
2, 21408, Note_on_c, 0, 76, 100
2, 21472, Note_off_c, 0, 76, 100
2, 21480, Note_on_c, 0, 76, 100
2, 21496, Note_off_c, 0, 76, 100
2, 21504, Note_on_c, 0, 78, 100
2, 21760, Note_off_c, 0, 78, 100
2, 22080, Note_on_c, 0, 69, 100
2, 22208, Note_off_c, 0, 69, 100
2, 22272, Note_on_c, 0, 69, 100
2, 22336, Note_off_c, 0, 69, 100
2, 22368, Note_on_c, 0, 81, 100
2, 22432, Note_off_c, 0, 81, 100
2, 22464, Note_on_c, 0, 79, 100
2, 22528, Note_off_c, 0, 79, 100
2, 22560, Note_on_c, 0, 78, 100
2, 22624, Note_off_c, 0, 78, 100
2, 22656, Note_on_c, 0, 76, 100
2, 22720, Note_off_c, 0, 76, 100
2, 22752, Note_on_c, 0, 74, 100
2, 22816, Note_off_c, 0, 74, 100
2, 22848, Note_on_c, 0, 73, 100
2, 22912, Note_off_c, 0, 73, 100
2, 22944, Note_on_c, 0, 74, 100
2, 23008, Note_off_c, 0, 74, 100
2, 23040, Note_on_c, 0, 71, 100
2, 23168, Note_off_c, 0, 71, 100
2, 23232, Note_on_c, 0, 75, 100
2, 23360, Note_off_c, 0, 75, 100
2, 23424, Note_on_c, 0, 76, 100
2, 23552, Note_off_c, 0, 76, 100
2, 23616, Note_on_c, 0, 78, 100
2, 23744, Note_off_c, 0, 78, 100
2, 23904, Note_on_c, 0, 79, 100
2, 23968, Note_off_c, 0, 79, 100
2, 24000, Note_on_c, 0, 78, 100
2, 24064, Note_off_c, 0, 78, 100
2, 24096, Note_on_c, 0, 76, 100
2, 24160, Note_off_c, 0, 76, 100
2, 24192, Note_on_c, 0, 74, 100
2, 24256, Note_off_c, 0, 74, 100
2, 24288, Note_on_c, 0, 73, 100
2, 24352, Note_off_c, 0, 73, 100
2, 24384, Note_on_c, 0, 71, 100
2, 24448, Note_off_c, 0, 71, 100
2, 24480, Note_on_c, 0, 73, 100
2, 24544, Note_off_c, 0, 73, 100
2, 24576, Note_on_c, 0, 69, 100
2, 24704, Note_off_c, 0, 69, 100
2, 24768, Note_on_c, 0, 73, 100
2, 24896, Note_off_c, 0, 73, 100
2, 24960, Note_on_c, 0, 74, 100
2, 25088, Note_off_c, 0, 74, 100
2, 25152, Note_on_c, 0, 76, 100
2, 25280, Note_off_c, 0, 76, 100
2, 25440, Note_on_c, 0, 78, 100
2, 25504, Note_off_c, 0, 78, 100
2, 25536, Note_on_c, 0, 76, 100
2, 25600, Note_off_c, 0, 76, 100
2, 25632, Note_on_c, 0, 74, 100
2, 25696, Note_off_c, 0, 74, 100
2, 25728, Note_on_c, 0, 73, 100
2, 25792, Note_off_c, 0, 73, 100
2, 25824, Note_on_c, 0, 71, 100
2, 25888, Note_off_c, 0, 71, 100
2, 25920, Note_on_c, 0, 69, 100
2, 25984, Note_off_c, 0, 69, 100
2, 26016, Note_on_c, 0, 71, 100
2, 26080, Note_off_c, 0, 71, 100
2, 26112, Note_on_c, 0, 67, 100
2, 26240, Note_off_c, 0, 67, 100
2, 26304, Note_on_c, 0, 71, 100
2, 26432, Note_off_c, 0, 71, 100
2, 26496, Note_on_c, 0, 73, 100
2, 26624, Note_off_c, 0, 73, 100
2, 26688, Note_on_c, 0, 74, 100
2, 26816, Note_off_c, 0, 74, 100
2, 26976, Note_on_c, 0, 76, 100
2, 27040, Note_off_c, 0, 76, 100
2, 27072, Note_on_c, 0, 74, 100
2, 27136, Note_off_c, 0, 74, 100
2, 27168, Note_on_c, 0, 73, 100
2, 27232, Note_off_c, 0, 73, 100
2, 27264, Note_on_c, 0, 71, 100
2, 27328, Note_off_c, 0, 71, 100
2, 27360, Note_on_c, 0, 69, 100
2, 27424, Note_off_c, 0, 69, 100
2, 27456, Note_on_c, 0, 71, 100
2, 27520, Note_off_c, 0, 71, 100
2, 27552, Note_on_c, 0, 67, 100
2, 27616, Note_off_c, 0, 67, 100
2, 27648, Note_on_c, 0, 66, 100
2, 27776, Note_off_c, 0, 66, 100
2, 27840, Note_on_c, 0, 74, 100
2, 27968, Note_off_c, 0, 74, 100
2, 28032, Note_on_c, 0, 73, 100
2, 28160, Note_off_c, 0, 73, 100
2, 28224, Note_on_c, 0, 81, 100
2, 28352, Note_off_c, 0, 81, 100
2, 28416, Note_on_c, 0, 78, 100
2, 28544, Note_off_c, 0, 78, 100
2, 28608, Note_on_c, 0, 74, 100
2, 28736, Note_off_c, 0, 74, 100
2, 28800, Note_on_c, 0, 73, 100
2, 28928, Note_off_c, 0, 73, 100
2, 28992, Note_on_c, 0, 67, 100
2, 29120, Note_off_c, 0, 67, 100
2, 29184, Note_on_c, 0, 66, 100
2, 29312, Note_off_c, 0, 66, 100
2, 29376, Note_on_c, 0, 74, 100
2, 29504, Note_off_c, 0, 74, 100
2, 29568, Note_on_c, 0, 73, 100
2, 29696, Note_off_c, 0, 73, 100
2, 29760, Note_on_c, 0, 81, 100
2, 29888, Note_off_c, 0, 81, 100
2, 29952, Note_on_c, 0, 78, 100
2, 30080, Note_off_c, 0, 78, 100
2, 30144, Note_on_c, 0, 74, 100
2, 30272, Note_off_c, 0, 74, 100
2, 30336, Note_on_c, 0, 73, 100
2, 30464, Note_off_c, 0, 73, 100
2, 30528, Note_on_c, 0, 67, 100
2, 30656, Note_off_c, 0, 67, 100
2, 30720, Note_on_c, 0, 66, 100
2, 30848, Note_off_c, 0, 66, 100
2, 30912, Note_on_c, 0, 74, 100
2, 31040, Note_off_c, 0, 74, 100
2, 31104, Note_on_c, 0, 72, 100
2, 31232, Note_off_c, 0, 72, 100
2, 31296, Note_on_c, 0, 69, 100
2, 31424, Note_off_c, 0, 69, 100
2, 31488, Note_on_c, 0, 70, 100
2, 31744, Note_off_c, 0, 70, 100
2, 31872, Note_on_c, 0, 71, 100
2, 32000, Note_off_c, 0, 71, 100
2, 32064, Note_on_c, 0, 83, 100
2, 32128, Note_off_c, 0, 83, 100
2, 32160, Note_on_c, 0, 79, 100
2, 32224, Note_off_c, 0, 79, 100
2, 32256, Note_on_c, 0, 81, 100
2, 32320, Note_off_c, 0, 81, 100
2, 32352, Note_on_c, 0, 78, 100
2, 32416, Note_off_c, 0, 78, 100
2, 32448, Note_on_c, 0, 79, 100
2, 32512, Note_off_c, 0, 79, 100
2, 32544, Note_on_c, 0, 76, 100
2, 32608, Note_off_c, 0, 76, 100
2, 32640, Note_on_c, 0, 78, 100
2, 32704, Note_off_c, 0, 78, 100
2, 32736, Note_on_c, 0, 74, 100
2, 32800, Note_off_c, 0, 74, 100
2, 32832, Note_on_c, 0, 76, 100
2, 32896, Note_off_c, 0, 76, 100
2, 32928, Note_on_c, 0, 73, 100
2, 32992, Note_off_c, 0, 73, 100
2, 33024, Note_on_c, 0, 74, 100
2, 33152, Note_off_c, 0, 74, 100
2, 33216, Note_on_c, 0, 86, 100
2, 33344, Note_off_c, 0, 86, 100
2, 33408, Note_on_c, 0, 86, 100
2, 33536, Note_off_c, 0, 86, 100
2, 33600, Note_on_c, 0, 86, 100
2, 33632, Note_off_c, 0, 86, 100
2, 33648, Note_on_c, 0, 88, 100
2, 33680, Note_off_c, 0, 88, 100
2, 33696, Note_on_c, 0, 86, 100
2, 33728, Note_off_c, 0, 86, 100
2, 33744, Note_on_c, 0, 84, 100
2, 33776, Note_off_c, 0, 84, 100
2, 33792, Note_on_c, 0, 84, 100
2, 33920, Note_off_c, 0, 84, 100
2, 33984, Note_on_c, 0, 79, 100
2, 34112, Note_off_c, 0, 79, 100
2, 34176, Note_on_c, 0, 79, 100
2, 34304, Note_off_c, 0, 79, 100
2, 34368, Note_on_c, 0, 79, 100
2, 34400, Note_off_c, 0, 79, 100
2, 34416, Note_on_c, 0, 81, 100
2, 34448, Note_off_c, 0, 81, 100
2, 34464, Note_on_c, 0, 79, 100
2, 34496, Note_off_c, 0, 79, 100
2, 34512, Note_on_c, 0, 78, 100
2, 34544, Note_off_c, 0, 78, 100
2, 34560, Note_on_c, 0, 78, 100
2, 34688, Note_off_c, 0, 78, 100
2, 34752, Note_on_c, 0, 72, 100
2, 34880, Note_off_c, 0, 72, 100
2, 34944, Note_on_c, 0, 72, 100
2, 35072, Note_off_c, 0, 72, 100
2, 35136, Note_on_c, 0, 72, 100
2, 35168, Note_off_c, 0, 72, 100
2, 35184, Note_on_c, 0, 74, 100
2, 35216, Note_off_c, 0, 74, 100
2, 35232, Note_on_c, 0, 72, 100
2, 35264, Note_off_c, 0, 72, 100
2, 35280, Note_on_c, 0, 71, 100
2, 35312, Note_off_c, 0, 71, 100
2, 35328, Note_on_c, 0, 71, 100
2, 35456, Note_off_c, 0, 71, 100
2, 35520, Note_on_c, 0, 82, 100
2, 35584, Note_off_c, 0, 82, 100
2, 35616, Note_on_c, 0, 83, 100
2, 35680, Note_off_c, 0, 83, 100
2, 35712, Note_on_c, 0, 81, 100
2, 35776, Note_off_c, 0, 81, 100
2, 35808, Note_on_c, 0, 79, 100
2, 35872, Note_off_c, 0, 79, 100
2, 35904, Note_on_c, 0, 78, 100
2, 35968, Note_off_c, 0, 78, 100
2, 36000, Note_on_c, 0, 76, 100
2, 36064, Note_off_c, 0, 76, 100
2, 36096, Note_on_c, 0, 74, 100
2, 36352, Note_off_c, 0, 74, 100
2, 36480, Note_on_c, 0, 76, 100
2, 36496, Note_off_c, 0, 76, 100
2, 36504, Note_on_c, 0, 78, 100
2, 36520, Note_off_c, 0, 78, 100
2, 36528, Note_on_c, 0, 76, 100
2, 36544, Note_off_c, 0, 76, 100
2, 36552, Note_on_c, 0, 78, 100
2, 36568, Note_off_c, 0, 78, 100
2, 36576, Note_on_c, 0, 76, 100
2, 36592, Note_off_c, 0, 76, 100
2, 36600, Note_on_c, 0, 78, 100
2, 36616, Note_off_c, 0, 78, 100
2, 36624, Note_on_c, 0, 76, 100
2, 36640, Note_off_c, 0, 76, 100
2, 36648, Note_on_c, 0, 78, 100
2, 36664, Note_off_c, 0, 78, 100
2, 36672, Note_on_c, 0, 76, 100
2, 36688, Note_off_c, 0, 76, 100
2, 36696, Note_on_c, 0, 78, 100
2, 36712, Note_off_c, 0, 78, 100
2, 36720, Note_on_c, 0, 76, 100
2, 36736, Note_off_c, 0, 76, 100
2, 36744, Note_on_c, 0, 78, 100
2, 36760, Note_off_c, 0, 78, 100
2, 36768, Note_on_c, 0, 76, 100
2, 36784, Note_off_c, 0, 76, 100
2, 36792, Note_on_c, 0, 78, 100
2, 36808, Note_off_c, 0, 78, 100
2, 36816, Note_on_c, 0, 76, 100
2, 36832, Note_off_c, 0, 76, 100
2, 36840, Note_on_c, 0, 78, 100
2, 36856, Note_off_c, 0, 78, 100
2, 36864, Note_on_c, 0, 74, 100
2, 36992, Note_off_c, 0, 74, 100
2, 37056, Note_on_c, 0, 86, 100
2, 37184, Note_off_c, 0, 86, 100
2, 37248, Note_on_c, 0, 86, 100
2, 37376, Note_off_c, 0, 86, 100
2, 37440, Note_on_c, 0, 86, 100
2, 37472, Note_off_c, 0, 86, 100
2, 37488, Note_on_c, 0, 88, 100
2, 37520, Note_off_c, 0, 88, 100
2, 37536, Note_on_c, 0, 86, 100
2, 37568, Note_off_c, 0, 86, 100
2, 37584, Note_on_c, 0, 84, 100
2, 37616, Note_off_c, 0, 84, 100
2, 37632, Note_on_c, 0, 84, 100
2, 37760, Note_off_c, 0, 84, 100
2, 37824, Note_on_c, 0, 79, 100
2, 37952, Note_off_c, 0, 79, 100
2, 38016, Note_on_c, 0, 79, 100
2, 38144, Note_off_c, 0, 79, 100
2, 38208, Note_on_c, 0, 79, 100
2, 38240, Note_off_c, 0, 79, 100
2, 38256, Note_on_c, 0, 81, 100
2, 38288, Note_off_c, 0, 81, 100
2, 38304, Note_on_c, 0, 79, 100
2, 38336, Note_off_c, 0, 79, 100
2, 38352, Note_on_c, 0, 78, 100
2, 38384, Note_off_c, 0, 78, 100
2, 38400, Note_on_c, 0, 78, 100
2, 38528, Note_off_c, 0, 78, 100
2, 38592, Note_on_c, 0, 72, 100
2, 38720, Note_off_c, 0, 72, 100
2, 38784, Note_on_c, 0, 72, 100
2, 38912, Note_off_c, 0, 72, 100
2, 38976, Note_on_c, 0, 72, 100
2, 39008, Note_off_c, 0, 72, 100
2, 39024, Note_on_c, 0, 74, 100
2, 39056, Note_off_c, 0, 74, 100
2, 39072, Note_on_c, 0, 72, 100
2, 39104, Note_off_c, 0, 72, 100
2, 39120, Note_on_c, 0, 71, 100
2, 39152, Note_off_c, 0, 71, 100
2, 39168, Note_on_c, 0, 71, 100
2, 39296, Note_off_c, 0, 71, 100
2, 39360, Note_on_c, 0, 82, 100
2, 39424, Note_off_c, 0, 82, 100
2, 39456, Note_on_c, 0, 83, 100
2, 39520, Note_off_c, 0, 83, 100
2, 39552, Note_on_c, 0, 81, 100
2, 39616, Note_off_c, 0, 81, 100
2, 39648, Note_on_c, 0, 79, 100
2, 39712, Note_off_c, 0, 79, 100
2, 39744, Note_on_c, 0, 78, 100
2, 39808, Note_off_c, 0, 78, 100
2, 39840, Note_on_c, 0, 76, 100
2, 39904, Note_off_c, 0, 76, 100
2, 39936, Note_on_c, 0, 74, 100
2, 40192, Note_off_c, 0, 74, 100
2, 40320, Note_on_c, 0, 76, 100
2, 40336, Note_off_c, 0, 76, 100
2, 40344, Note_on_c, 0, 78, 100
2, 40360, Note_off_c, 0, 78, 100
2, 40368, Note_on_c, 0, 76, 100
2, 40384, Note_off_c, 0, 76, 100
2, 40392, Note_on_c, 0, 78, 100
2, 40408, Note_off_c, 0, 78, 100
2, 40416, Note_on_c, 0, 76, 100
2, 40432, Note_off_c, 0, 76, 100
2, 40440, Note_on_c, 0, 78, 100
2, 40456, Note_off_c, 0, 78, 100
2, 40464, Note_on_c, 0, 76, 100
2, 40480, Note_off_c, 0, 76, 100
2, 40488, Note_on_c, 0, 78, 100
2, 40504, Note_off_c, 0, 78, 100
2, 40512, Note_on_c, 0, 76, 100
2, 40528, Note_off_c, 0, 76, 100
2, 40536, Note_on_c, 0, 78, 100
2, 40552, Note_off_c, 0, 78, 100
2, 40560, Note_on_c, 0, 76, 100
2, 40576, Note_off_c, 0, 76, 100
2, 40584, Note_on_c, 0, 78, 100
2, 40600, Note_off_c, 0, 78, 100
2, 40608, Note_on_c, 0, 76, 100
2, 40624, Note_off_c, 0, 76, 100
2, 40632, Note_on_c, 0, 78, 100
2, 40648, Note_off_c, 0, 78, 100
2, 40656, Note_on_c, 0, 76, 100
2, 40672, Note_off_c, 0, 76, 100
2, 40680, Note_on_c, 0, 78, 100
2, 40696, Note_off_c, 0, 78, 100
2, 40704, Note_on_c, 0, 78, 100
2, 40768, Note_off_c, 0, 78, 100
2, 40800, Note_on_c, 0, 74, 100
2, 40864, Note_off_c, 0, 74, 100
2, 40896, Note_on_c, 0, 86, 100
2, 40960, Note_off_c, 0, 86, 100
2, 40992, Note_on_c, 0, 81, 100
2, 41056, Note_off_c, 0, 81, 100
2, 41088, Note_on_c, 0, 83, 100
2, 41152, Note_off_c, 0, 83, 100
2, 41184, Note_on_c, 0, 78, 100
2, 41248, Note_off_c, 0, 78, 100
2, 41280, Note_on_c, 0, 79, 100
2, 41344, Note_off_c, 0, 79, 100
2, 41376, Note_on_c, 0, 76, 100
2, 41440, Note_off_c, 0, 76, 100
2, 41472, Note_on_c, 0, 74, 100
2, 41728, Note_off_c, 0, 74, 100
2, 41856, Note_on_c, 0, 76, 100
2, 41872, Note_off_c, 0, 76, 100
2, 41880, Note_on_c, 0, 78, 100
2, 41896, Note_off_c, 0, 78, 100
2, 41904, Note_on_c, 0, 76, 100
2, 41920, Note_off_c, 0, 76, 100
2, 41928, Note_on_c, 0, 78, 100
2, 41944, Note_off_c, 0, 78, 100
2, 41952, Note_on_c, 0, 76, 100
2, 41968, Note_off_c, 0, 76, 100
2, 41976, Note_on_c, 0, 78, 100
2, 41992, Note_off_c, 0, 78, 100
2, 42000, Note_on_c, 0, 76, 100
2, 42016, Note_off_c, 0, 76, 100
2, 42024, Note_on_c, 0, 78, 100
2, 42040, Note_off_c, 0, 78, 100
2, 42048, Note_on_c, 0, 76, 100
2, 42064, Note_off_c, 0, 76, 100
2, 42072, Note_on_c, 0, 78, 100
2, 42088, Note_off_c, 0, 78, 100
2, 42096, Note_on_c, 0, 76, 100
2, 42112, Note_off_c, 0, 76, 100
2, 42120, Note_on_c, 0, 78, 100
2, 42136, Note_off_c, 0, 78, 100
2, 42144, Note_on_c, 0, 76, 100
2, 42160, Note_off_c, 0, 76, 100
2, 42168, Note_on_c, 0, 78, 100
2, 42184, Note_off_c, 0, 78, 100
2, 42192, Note_on_c, 0, 76, 100
2, 42208, Note_off_c, 0, 76, 100
2, 42216, Note_on_c, 0, 78, 100
2, 42232, Note_off_c, 0, 78, 100
2, 42240, Note_on_c, 0, 74, 100
2, 42368, Note_off_c, 0, 74, 100
2, 42624, Note_on_c, 0, 79, 100
2, 42624, Note_on_c, 0, 73, 100
2, 42752, Note_off_c, 0, 79, 100
2, 42752, Note_off_c, 0, 73, 100
2, 43008, Note_on_c, 0, 78, 100
2, 43008, Note_on_c, 0, 74, 100
2, 43136, Note_off_c, 0, 78, 100
2, 43136, Note_off_c, 0, 74, 100
2, 43392, Note_on_c, 0, 73, 100
2, 43392, Note_on_c, 0, 67, 100
2, 43520, Note_off_c, 0, 73, 100
2, 43520, Note_off_c, 0, 67, 100
2, 43776, Note_on_c, 0, 74, 100
2, 43776, Note_on_c, 0, 66, 100
2, 44032, Note_off_c, 0, 74, 100
2, 44032, Note_off_c, 0, 66, 100
2, 44352, Note_on_c, 0, 62, 100
2, 44480, Note_off_c, 0, 62, 100
2, 44544, Note_on_c, 0, 67, 100
2, 44576, Note_off_c, 0, 67, 100
2, 44592, Note_on_c, 0, 69, 100
2, 44624, Note_off_c, 0, 69, 100
2, 44640, Note_on_c, 0, 67, 100
2, 44672, Note_off_c, 0, 67, 100
2, 44688, Note_on_c, 0, 66, 100
2, 44720, Note_off_c, 0, 66, 100
2, 44736, Note_on_c, 0, 67, 100
2, 44800, Note_off_c, 0, 67, 100
2, 44832, Note_on_c, 0, 69, 100
2, 44896, Note_off_c, 0, 69, 100
2, 44928, Note_on_c, 0, 71, 100
2, 44960, Note_off_c, 0, 71, 100
2, 44976, Note_on_c, 0, 72, 100
2, 45008, Note_off_c, 0, 72, 100
2, 45024, Note_on_c, 0, 71, 100
2, 45056, Note_off_c, 0, 71, 100
2, 45072, Note_on_c, 0, 69, 100
2, 45104, Note_off_c, 0, 69, 100
2, 45120, Note_on_c, 0, 71, 100
2, 45184, Note_off_c, 0, 71, 100
2, 45216, Note_on_c, 0, 72, 100
2, 45280, Note_off_c, 0, 72, 100
2, 45312, Note_on_c, 0, 74, 100
2, 45440, Note_off_c, 0, 74, 100
2, 45504, Note_on_c, 0, 74, 100
2, 45632, Note_off_c, 0, 74, 100
2, 45696, Note_on_c, 0, 74, 100
2, 45824, Note_off_c, 0, 74, 100
2, 45888, Note_on_c, 0, 74, 100
2, 46016, Note_off_c, 0, 74, 100
2, 46080, Note_on_c, 0, 74, 100
2, 46208, Note_off_c, 0, 74, 100
2, 46272, Note_on_c, 0, 76, 100
2, 46336, Note_off_c, 0, 76, 100
2, 46368, Note_on_c, 0, 78, 100
2, 46432, Note_off_c, 0, 78, 100
2, 46440, Note_on_c, 0, 81, 100
2, 46456, Note_off_c, 0, 81, 100
2, 46464, Note_on_c, 0, 79, 100
2, 46592, Note_off_c, 0, 79, 100
2, 46656, Note_on_c, 0, 78, 100
2, 46720, Note_off_c, 0, 78, 100
2, 46752, Note_on_c, 0, 76, 100
2, 46816, Note_off_c, 0, 76, 100
2, 46848, Note_on_c, 0, 74, 100
2, 46976, Note_off_c, 0, 74, 100
2, 47040, Note_on_c, 0, 74, 100
2, 47168, Note_off_c, 0, 74, 100
2, 47232, Note_on_c, 0, 74, 100
2, 47360, Note_off_c, 0, 74, 100
2, 47424, Note_on_c, 0, 74, 100
2, 47552, Note_off_c, 0, 74, 100
2, 47616, Note_on_c, 0, 74, 100
2, 47744, Note_off_c, 0, 74, 100
2, 47808, Note_on_c, 0, 76, 100
2, 47872, Note_off_c, 0, 76, 100
2, 47904, Note_on_c, 0, 78, 100
2, 47968, Note_off_c, 0, 78, 100
2, 47976, Note_on_c, 0, 81, 100
2, 47992, Note_off_c, 0, 81, 100
2, 48000, Note_on_c, 0, 79, 100
2, 48128, Note_off_c, 0, 79, 100
2, 48192, Note_on_c, 0, 78, 100
2, 48256, Note_off_c, 0, 78, 100
2, 48288, Note_on_c, 0, 76, 100
2, 48352, Note_off_c, 0, 76, 100
2, 48384, Note_on_c, 0, 74, 100
2, 48512, Note_off_c, 0, 74, 100
2, 48576, Note_on_c, 0, 79, 100
2, 48640, Note_off_c, 0, 79, 100
2, 48672, Note_on_c, 0, 83, 100
2, 48736, Note_off_c, 0, 83, 100
2, 48768, Note_on_c, 0, 81, 100
2, 48832, Note_off_c, 0, 81, 100
2, 48864, Note_on_c, 0, 79, 100
2, 48928, Note_off_c, 0, 79, 100
2, 48960, Note_on_c, 0, 78, 100
2, 49024, Note_off_c, 0, 78, 100
2, 49056, Note_on_c, 0, 76, 100
2, 49120, Note_off_c, 0, 76, 100
2, 49152, Note_on_c, 0, 74, 100
2, 49408, Note_off_c, 0, 74, 100
2, 49536, Note_on_c, 0, 72, 100
2, 49552, Note_off_c, 0, 72, 100
2, 49560, Note_on_c, 0, 74, 100
2, 49576, Note_off_c, 0, 74, 100
2, 49584, Note_on_c, 0, 72, 100
2, 49600, Note_off_c, 0, 72, 100
2, 49608, Note_on_c, 0, 74, 100
2, 49624, Note_off_c, 0, 74, 100
2, 49632, Note_on_c, 0, 72, 100
2, 49648, Note_off_c, 0, 72, 100
2, 49656, Note_on_c, 0, 74, 100
2, 49672, Note_off_c, 0, 74, 100
2, 49680, Note_on_c, 0, 72, 100
2, 49696, Note_off_c, 0, 72, 100
2, 49704, Note_on_c, 0, 74, 100
2, 49720, Note_off_c, 0, 74, 100
2, 49728, Note_on_c, 0, 72, 100
2, 49744, Note_off_c, 0, 72, 100
2, 49752, Note_on_c, 0, 74, 100
2, 49768, Note_off_c, 0, 74, 100
2, 49776, Note_on_c, 0, 72, 100
2, 49792, Note_off_c, 0, 72, 100
2, 49800, Note_on_c, 0, 74, 100
2, 49816, Note_off_c, 0, 74, 100
2, 49824, Note_on_c, 0, 72, 100
2, 49840, Note_off_c, 0, 72, 100
2, 49848, Note_on_c, 0, 74, 100
2, 49864, Note_off_c, 0, 74, 100
2, 49872, Note_on_c, 0, 72, 100
2, 49888, Note_off_c, 0, 72, 100
2, 49896, Note_on_c, 0, 74, 100
2, 49912, Note_off_c, 0, 74, 100
2, 49920, Note_on_c, 0, 71, 100
2, 50176, Note_off_c, 0, 71, 100
2, 50496, Note_on_c, 0, 67, 100
2, 50624, Note_off_c, 0, 67, 100
2, 50688, Note_on_c, 0, 66, 100
2, 50704, Note_off_c, 0, 66, 100
2, 50712, Note_on_c, 0, 67, 100
2, 50728, Note_off_c, 0, 67, 100
2, 50736, Note_on_c, 0, 66, 100
2, 50752, Note_off_c, 0, 66, 100
2, 50760, Note_on_c, 0, 67, 100
2, 50776, Note_off_c, 0, 67, 100
2, 50784, Note_on_c, 0, 66, 100
2, 50800, Note_off_c, 0, 66, 100
2, 50808, Note_on_c, 0, 67, 100
2, 50824, Note_off_c, 0, 67, 100
2, 50832, Note_on_c, 0, 66, 100
2, 50848, Note_off_c, 0, 66, 100
2, 50856, Note_on_c, 0, 67, 100
2, 50872, Note_off_c, 0, 67, 100
2, 50880, Note_on_c, 0, 64, 100
2, 51008, Note_off_c, 0, 64, 100
2, 51072, Note_on_c, 0, 62, 100
2, 51088, Note_off_c, 0, 62, 100
2, 51096, Note_on_c, 0, 64, 100
2, 51112, Note_off_c, 0, 64, 100
2, 51120, Note_on_c, 0, 62, 100
2, 51136, Note_off_c, 0, 62, 100
2, 51144, Note_on_c, 0, 64, 100
2, 51160, Note_off_c, 0, 64, 100
2, 51168, Note_on_c, 0, 62, 100
2, 51184, Note_off_c, 0, 62, 100
2, 51192, Note_on_c, 0, 64, 100
2, 51208, Note_off_c, 0, 64, 100
2, 51216, Note_on_c, 0, 62, 100
2, 51232, Note_off_c, 0, 62, 100
2, 51240, Note_on_c, 0, 64, 100
2, 51256, Note_off_c, 0, 64, 100
2, 51264, Note_on_c, 0, 60, 100
2, 51392, Note_off_c, 0, 60, 100
2, 51456, Note_on_c, 0, 59, 100
2, 51712, Note_off_c, 0, 59, 100
2, 52032, Note_on_c, 0, 64, 100
2, 52072, Note_off_c, 0, 64, 100
2, 52096, Note_on_c, 0, 66, 100
2, 52136, Note_off_c, 0, 66, 100
2, 52160, Note_on_c, 0, 64, 100
2, 52200, Note_off_c, 0, 64, 100
2, 52224, Note_on_c, 0, 62, 100
2, 52352, Note_off_c, 0, 62, 100
2, 52416, Note_on_c, 0, 60, 100
2, 52456, Note_off_c, 0, 60, 100
2, 52480, Note_on_c, 0, 62, 100
2, 52520, Note_off_c, 0, 62, 100
2, 52544, Note_on_c, 0, 60, 100
2, 52584, Note_off_c, 0, 60, 100
2, 52608, Note_on_c, 0, 59, 100
2, 52736, Note_off_c, 0, 59, 100
2, 52800, Note_on_c, 0, 57, 100
2, 52840, Note_off_c, 0, 57, 100
2, 52864, Note_on_c, 0, 59, 100
2, 52904, Note_off_c, 0, 59, 100
2, 52928, Note_on_c, 0, 57, 100
2, 52968, Note_off_c, 0, 57, 100
2, 52992, Note_on_c, 0, 55, 100
2, 53248, Note_off_c, 0, 55, 100
2, 53568, Note_on_c, 0, 62, 100
2, 53696, Note_off_c, 0, 62, 100
2, 53760, Note_on_c, 0, 67, 100
2, 53824, Note_off_c, 0, 67, 100
2, 53856, Note_on_c, 0, 66, 100
2, 53920, Note_off_c, 0, 66, 100
2, 53952, Note_on_c, 0, 69, 100
2, 54016, Note_off_c, 0, 69, 100
2, 54048, Note_on_c, 0, 67, 100
2, 54112, Note_off_c, 0, 67, 100
2, 54144, Note_on_c, 0, 71, 100
2, 54208, Note_off_c, 0, 71, 100
2, 54240, Note_on_c, 0, 69, 100
2, 54304, Note_off_c, 0, 69, 100
2, 54336, Note_on_c, 0, 72, 100
2, 54400, Note_off_c, 0, 72, 100
2, 54432, Note_on_c, 0, 71, 100
2, 54496, Note_off_c, 0, 71, 100
2, 54528, Note_on_c, 0, 74, 100
2, 54656, Note_off_c, 0, 74, 100
2, 54720, Note_on_c, 0, 74, 100
2, 54848, Note_off_c, 0, 74, 100
2, 54912, Note_on_c, 0, 74, 100
2, 55040, Note_off_c, 0, 74, 100
2, 55104, Note_on_c, 0, 74, 100
2, 55232, Note_off_c, 0, 74, 100
2, 55296, Note_on_c, 0, 74, 100
2, 55424, Note_off_c, 0, 74, 100
2, 55488, Note_on_c, 0, 76, 100
2, 55552, Note_off_c, 0, 76, 100
2, 55584, Note_on_c, 0, 78, 100
2, 55648, Note_off_c, 0, 78, 100
2, 55656, Note_on_c, 0, 81, 100
2, 55672, Note_off_c, 0, 81, 100
2, 55680, Note_on_c, 0, 79, 100
2, 55808, Note_off_c, 0, 79, 100
2, 55872, Note_on_c, 0, 78, 100
2, 55936, Note_off_c, 0, 78, 100
2, 55968, Note_on_c, 0, 76, 100
2, 56032, Note_off_c, 0, 76, 100
2, 56064, Note_on_c, 0, 74, 100
2, 56192, Note_off_c, 0, 74, 100
2, 56256, Note_on_c, 0, 74, 100
2, 56384, Note_off_c, 0, 74, 100
2, 56448, Note_on_c, 0, 74, 100
2, 56576, Note_off_c, 0, 74, 100
2, 56640, Note_on_c, 0, 74, 100
2, 56768, Note_off_c, 0, 74, 100
2, 56832, Note_on_c, 0, 74, 100
2, 56960, Note_off_c, 0, 74, 100
2, 57024, Note_on_c, 0, 79, 100
2, 57152, Note_off_c, 0, 79, 100
2, 57216, Note_on_c, 0, 78, 100
2, 57344, Note_off_c, 0, 78, 100
2, 57408, Note_on_c, 0, 74, 100
2, 57536, Note_off_c, 0, 74, 100
2, 57600, Note_on_c, 0, 75, 100
2, 57856, Note_off_c, 0, 75, 100
2, 57984, Note_on_c, 0, 76, 100
2, 58240, Note_off_c, 0, 76, 100
2, 58368, Note_on_c, 0, 76, 100
2, 58496, Note_off_c, 0, 76, 100
2, 58560, Note_on_c, 0, 79, 100
2, 58688, Note_off_c, 0, 79, 100
2, 58752, Note_on_c, 0, 76, 100
2, 58880, Note_off_c, 0, 76, 100
2, 58944, Note_on_c, 0, 72, 100
2, 59072, Note_off_c, 0, 72, 100
2, 59136, Note_on_c, 0, 73, 100
2, 59392, Note_off_c, 0, 73, 100
2, 59520, Note_on_c, 0, 74, 100
2, 59776, Note_off_c, 0, 74, 100
2, 59904, Note_on_c, 0, 74, 100
2, 60032, Note_off_c, 0, 74, 100
2, 60048, Note_on_c, 0, 79, 100
2, 60080, Note_off_c, 0, 79, 100
2, 60096, Note_on_c, 0, 83, 100
2, 60224, Note_off_c, 0, 83, 100
2, 60240, Note_on_c, 0, 81, 100
2, 60272, Note_off_c, 0, 81, 100
2, 60288, Note_on_c, 0, 79, 100
2, 60352, Note_off_c, 0, 79, 100
2, 60432, Note_on_c, 0, 78, 100
2, 60464, Note_off_c, 0, 78, 100
2, 60480, Note_on_c, 0, 76, 100
2, 60544, Note_off_c, 0, 76, 100
2, 60672, Note_on_c, 0, 74, 100
2, 60928, Note_off_c, 0, 74, 100
2, 61056, Note_on_c, 0, 72, 100
2, 61088, Note_off_c, 0, 72, 100
2, 61104, Note_on_c, 0, 74, 100
2, 61136, Note_off_c, 0, 74, 100
2, 61152, Note_on_c, 0, 72, 100
2, 61184, Note_off_c, 0, 72, 100
2, 61200, Note_on_c, 0, 74, 100
2, 61232, Note_off_c, 0, 74, 100
2, 61248, Note_on_c, 0, 71, 100
2, 61376, Note_off_c, 0, 71, 100
2, 61440, Note_on_c, 0, 71, 100
2, 61504, Note_off_c, 0, 71, 100
2, 61536, Note_on_c, 0, 69, 100
2, 61600, Note_off_c, 0, 69, 100
2, 61632, Note_on_c, 0, 75, 100
2, 61696, Note_off_c, 0, 75, 100
2, 61728, Note_on_c, 0, 76, 100
2, 61792, Note_off_c, 0, 76, 100
2, 61824, Note_on_c, 0, 74, 100
2, 61888, Note_off_c, 0, 74, 100
2, 61920, Note_on_c, 0, 72, 100
2, 61984, Note_off_c, 0, 72, 100
2, 62016, Note_on_c, 0, 71, 100
2, 62080, Note_off_c, 0, 71, 100
2, 62112, Note_on_c, 0, 69, 100
2, 62176, Note_off_c, 0, 69, 100
2, 62208, Note_on_c, 0, 67, 100
2, 62464, Note_off_c, 0, 67, 100
2, 62592, Note_on_c, 0, 66, 100
2, 62720, Note_off_c, 0, 66, 100
2, 62784, Note_on_c, 0, 69, 100
2, 62912, Note_off_c, 0, 69, 100
2, 62976, Note_on_c, 0, 74, 100
2, 63232, Note_off_c, 0, 74, 100
2, 63336, Note_on_c, 0, 79, 100
2, 63352, Note_off_c, 0, 79, 100
2, 63360, Note_on_c, 0, 78, 100
2, 63488, Note_off_c, 0, 78, 100
2, 63552, Note_on_c, 0, 76, 100
2, 63616, Note_off_c, 0, 76, 100
2, 63648, Note_on_c, 0, 74, 100
2, 63712, Note_off_c, 0, 74, 100
2, 63720, Note_on_c, 0, 74, 100
2, 63736, Note_off_c, 0, 74, 100
2, 63744, Note_on_c, 0, 73, 100
2, 64000, Note_off_c, 0, 73, 100
2, 64320, Note_on_c, 0, 69, 100
2, 64448, Note_off_c, 0, 69, 100
2, 64512, Note_on_c, 0, 76, 100
2, 64768, Note_off_c, 0, 76, 100
2, 64872, Note_on_c, 0, 81, 100
2, 64888, Note_off_c, 0, 81, 100
2, 64896, Note_on_c, 0, 79, 100
2, 65024, Note_off_c, 0, 79, 100
2, 65088, Note_on_c, 0, 78, 100
2, 65152, Note_off_c, 0, 78, 100
2, 65184, Note_on_c, 0, 76, 100
2, 65248, Note_off_c, 0, 76, 100
2, 65256, Note_on_c, 0, 76, 100
2, 65272, Note_off_c, 0, 76, 100
2, 65280, Note_on_c, 0, 78, 100
2, 65536, Note_off_c, 0, 78, 100
2, 65856, Note_on_c, 0, 69, 100
2, 65984, Note_off_c, 0, 69, 100
2, 66048, Note_on_c, 0, 69, 100
2, 66112, Note_off_c, 0, 69, 100
2, 66144, Note_on_c, 0, 81, 100
2, 66208, Note_off_c, 0, 81, 100
2, 66240, Note_on_c, 0, 79, 100
2, 66304, Note_off_c, 0, 79, 100
2, 66336, Note_on_c, 0, 78, 100
2, 66400, Note_off_c, 0, 78, 100
2, 66432, Note_on_c, 0, 76, 100
2, 66496, Note_off_c, 0, 76, 100
2, 66528, Note_on_c, 0, 74, 100
2, 66592, Note_off_c, 0, 74, 100
2, 66624, Note_on_c, 0, 73, 100
2, 66688, Note_off_c, 0, 73, 100
2, 66720, Note_on_c, 0, 74, 100
2, 66784, Note_off_c, 0, 74, 100
2, 66816, Note_on_c, 0, 71, 100
2, 66944, Note_off_c, 0, 71, 100
2, 67008, Note_on_c, 0, 75, 100
2, 67136, Note_off_c, 0, 75, 100
2, 67200, Note_on_c, 0, 76, 100
2, 67328, Note_off_c, 0, 76, 100
2, 67392, Note_on_c, 0, 78, 100
2, 67520, Note_off_c, 0, 78, 100
2, 67680, Note_on_c, 0, 79, 100
2, 67744, Note_off_c, 0, 79, 100
2, 67776, Note_on_c, 0, 78, 100
2, 67840, Note_off_c, 0, 78, 100
2, 67872, Note_on_c, 0, 76, 100
2, 67936, Note_off_c, 0, 76, 100
2, 67968, Note_on_c, 0, 74, 100
2, 68032, Note_off_c, 0, 74, 100
2, 68064, Note_on_c, 0, 73, 100
2, 68128, Note_off_c, 0, 73, 100
2, 68160, Note_on_c, 0, 71, 100
2, 68224, Note_off_c, 0, 71, 100
2, 68256, Note_on_c, 0, 73, 100
2, 68320, Note_off_c, 0, 73, 100
2, 68352, Note_on_c, 0, 69, 100
2, 68480, Note_off_c, 0, 69, 100
2, 68544, Note_on_c, 0, 73, 100
2, 68672, Note_off_c, 0, 73, 100
2, 68736, Note_on_c, 0, 74, 100
2, 68864, Note_off_c, 0, 74, 100
2, 68928, Note_on_c, 0, 76, 100
2, 69056, Note_off_c, 0, 76, 100
2, 69216, Note_on_c, 0, 78, 100
2, 69280, Note_off_c, 0, 78, 100
2, 69312, Note_on_c, 0, 76, 100
2, 69376, Note_off_c, 0, 76, 100
2, 69408, Note_on_c, 0, 74, 100
2, 69472, Note_off_c, 0, 74, 100
2, 69504, Note_on_c, 0, 73, 100
2, 69568, Note_off_c, 0, 73, 100
2, 69600, Note_on_c, 0, 71, 100
2, 69664, Note_off_c, 0, 71, 100
2, 69696, Note_on_c, 0, 69, 100
2, 69760, Note_off_c, 0, 69, 100
2, 69792, Note_on_c, 0, 71, 100
2, 69856, Note_off_c, 0, 71, 100
2, 69888, Note_on_c, 0, 67, 100
2, 70016, Note_off_c, 0, 67, 100
2, 70080, Note_on_c, 0, 71, 100
2, 70208, Note_off_c, 0, 71, 100
2, 70272, Note_on_c, 0, 73, 100
2, 70400, Note_off_c, 0, 73, 100
2, 70464, Note_on_c, 0, 74, 100
2, 70592, Note_off_c, 0, 74, 100
2, 70752, Note_on_c, 0, 76, 100
2, 70816, Note_off_c, 0, 76, 100
2, 70848, Note_on_c, 0, 74, 100
2, 70912, Note_off_c, 0, 74, 100
2, 70944, Note_on_c, 0, 73, 100
2, 71008, Note_off_c, 0, 73, 100
2, 71040, Note_on_c, 0, 71, 100
2, 71104, Note_off_c, 0, 71, 100
2, 71136, Note_on_c, 0, 69, 100
2, 71200, Note_off_c, 0, 69, 100
2, 71232, Note_on_c, 0, 71, 100
2, 71296, Note_off_c, 0, 71, 100
2, 71328, Note_on_c, 0, 67, 100
2, 71392, Note_off_c, 0, 67, 100
2, 71424, Note_on_c, 0, 66, 100
2, 71552, Note_off_c, 0, 66, 100
2, 71616, Note_on_c, 0, 74, 100
2, 71744, Note_off_c, 0, 74, 100
2, 71808, Note_on_c, 0, 73, 100
2, 71936, Note_off_c, 0, 73, 100
2, 72000, Note_on_c, 0, 81, 100
2, 72128, Note_off_c, 0, 81, 100
2, 72192, Note_on_c, 0, 78, 100
2, 72320, Note_off_c, 0, 78, 100
2, 72384, Note_on_c, 0, 74, 100
2, 72512, Note_off_c, 0, 74, 100
2, 72576, Note_on_c, 0, 73, 100
2, 72704, Note_off_c, 0, 73, 100
2, 72768, Note_on_c, 0, 67, 100
2, 72896, Note_off_c, 0, 67, 100
2, 72960, Note_on_c, 0, 66, 100
2, 73088, Note_off_c, 0, 66, 100
2, 73152, Note_on_c, 0, 74, 100
2, 73280, Note_off_c, 0, 74, 100
2, 73344, Note_on_c, 0, 73, 100
2, 73472, Note_off_c, 0, 73, 100
2, 73536, Note_on_c, 0, 81, 100
2, 73664, Note_off_c, 0, 81, 100
2, 73728, Note_on_c, 0, 78, 100
2, 73856, Note_off_c, 0, 78, 100
2, 73920, Note_on_c, 0, 74, 100
2, 74048, Note_off_c, 0, 74, 100
2, 74112, Note_on_c, 0, 73, 100
2, 74240, Note_off_c, 0, 73, 100
2, 74304, Note_on_c, 0, 67, 100
2, 74432, Note_off_c, 0, 67, 100
2, 74496, Note_on_c, 0, 66, 100
2, 74624, Note_off_c, 0, 66, 100
2, 74688, Note_on_c, 0, 74, 100
2, 74816, Note_off_c, 0, 74, 100
2, 74880, Note_on_c, 0, 72, 100
2, 75008, Note_off_c, 0, 72, 100
2, 75072, Note_on_c, 0, 69, 100
2, 75200, Note_off_c, 0, 69, 100
2, 75264, Note_on_c, 0, 70, 100
2, 75520, Note_off_c, 0, 70, 100
2, 75648, Note_on_c, 0, 71, 100
2, 75776, Note_off_c, 0, 71, 100
2, 75840, Note_on_c, 0, 83, 100
2, 75904, Note_off_c, 0, 83, 100
2, 75936, Note_on_c, 0, 79, 100
2, 76000, Note_off_c, 0, 79, 100
2, 76032, Note_on_c, 0, 81, 100
2, 76096, Note_off_c, 0, 81, 100
2, 76128, Note_on_c, 0, 78, 100
2, 76192, Note_off_c, 0, 78, 100
2, 76224, Note_on_c, 0, 79, 100
2, 76288, Note_off_c, 0, 79, 100
2, 76320, Note_on_c, 0, 76, 100
2, 76384, Note_off_c, 0, 76, 100
2, 76416, Note_on_c, 0, 78, 100
2, 76480, Note_off_c, 0, 78, 100
2, 76512, Note_on_c, 0, 74, 100
2, 76576, Note_off_c, 0, 74, 100
2, 76608, Note_on_c, 0, 76, 100
2, 76672, Note_off_c, 0, 76, 100
2, 76704, Note_on_c, 0, 73, 100
2, 76768, Note_off_c, 0, 73, 100
2, 76800, Note_on_c, 0, 74, 100
2, 76928, Note_off_c, 0, 74, 100
2, 76992, Note_on_c, 0, 86, 100
2, 77120, Note_off_c, 0, 86, 100
2, 77184, Note_on_c, 0, 86, 100
2, 77312, Note_off_c, 0, 86, 100
2, 77376, Note_on_c, 0, 86, 100
2, 77408, Note_off_c, 0, 86, 100
2, 77424, Note_on_c, 0, 88, 100
2, 77456, Note_off_c, 0, 88, 100
2, 77472, Note_on_c, 0, 86, 100
2, 77504, Note_off_c, 0, 86, 100
2, 77520, Note_on_c, 0, 84, 100
2, 77552, Note_off_c, 0, 84, 100
2, 77568, Note_on_c, 0, 84, 100
2, 77696, Note_off_c, 0, 84, 100
2, 77760, Note_on_c, 0, 79, 100
2, 77888, Note_off_c, 0, 79, 100
2, 77952, Note_on_c, 0, 79, 100
2, 78080, Note_off_c, 0, 79, 100
2, 78144, Note_on_c, 0, 79, 100
2, 78176, Note_off_c, 0, 79, 100
2, 78192, Note_on_c, 0, 81, 100
2, 78224, Note_off_c, 0, 81, 100
2, 78240, Note_on_c, 0, 79, 100
2, 78272, Note_off_c, 0, 79, 100
2, 78288, Note_on_c, 0, 78, 100
2, 78320, Note_off_c, 0, 78, 100
2, 78336, Note_on_c, 0, 78, 100
2, 78464, Note_off_c, 0, 78, 100
2, 78528, Note_on_c, 0, 72, 100
2, 78656, Note_off_c, 0, 72, 100
2, 78720, Note_on_c, 0, 72, 100
2, 78848, Note_off_c, 0, 72, 100
2, 78912, Note_on_c, 0, 72, 100
2, 78944, Note_off_c, 0, 72, 100
2, 78960, Note_on_c, 0, 74, 100
2, 78992, Note_off_c, 0, 74, 100
2, 79008, Note_on_c, 0, 72, 100
2, 79040, Note_off_c, 0, 72, 100
2, 79056, Note_on_c, 0, 71, 100
2, 79088, Note_off_c, 0, 71, 100
2, 79104, Note_on_c, 0, 71, 100
2, 79232, Note_off_c, 0, 71, 100
2, 79296, Note_on_c, 0, 82, 100
2, 79360, Note_off_c, 0, 82, 100
2, 79392, Note_on_c, 0, 83, 100
2, 79456, Note_off_c, 0, 83, 100
2, 79488, Note_on_c, 0, 81, 100
2, 79552, Note_off_c, 0, 81, 100
2, 79584, Note_on_c, 0, 79, 100
2, 79648, Note_off_c, 0, 79, 100
2, 79680, Note_on_c, 0, 78, 100
2, 79744, Note_off_c, 0, 78, 100
2, 79776, Note_on_c, 0, 76, 100
2, 79840, Note_off_c, 0, 76, 100
2, 79872, Note_on_c, 0, 74, 100
2, 80128, Note_off_c, 0, 74, 100
2, 80256, Note_on_c, 0, 76, 100
2, 80272, Note_off_c, 0, 76, 100
2, 80280, Note_on_c, 0, 78, 100
2, 80296, Note_off_c, 0, 78, 100
2, 80304, Note_on_c, 0, 76, 100
2, 80320, Note_off_c, 0, 76, 100
2, 80328, Note_on_c, 0, 78, 100
2, 80344, Note_off_c, 0, 78, 100
2, 80352, Note_on_c, 0, 76, 100
2, 80368, Note_off_c, 0, 76, 100
2, 80376, Note_on_c, 0, 78, 100
2, 80392, Note_off_c, 0, 78, 100
2, 80400, Note_on_c, 0, 76, 100
2, 80416, Note_off_c, 0, 76, 100
2, 80424, Note_on_c, 0, 78, 100
2, 80440, Note_off_c, 0, 78, 100
2, 80448, Note_on_c, 0, 76, 100
2, 80464, Note_off_c, 0, 76, 100
2, 80472, Note_on_c, 0, 78, 100
2, 80488, Note_off_c, 0, 78, 100
2, 80496, Note_on_c, 0, 76, 100
2, 80512, Note_off_c, 0, 76, 100
2, 80520, Note_on_c, 0, 78, 100
2, 80536, Note_off_c, 0, 78, 100
2, 80544, Note_on_c, 0, 76, 100
2, 80560, Note_off_c, 0, 76, 100
2, 80568, Note_on_c, 0, 78, 100
2, 80584, Note_off_c, 0, 78, 100
2, 80592, Note_on_c, 0, 76, 100
2, 80608, Note_off_c, 0, 76, 100
2, 80616, Note_on_c, 0, 78, 100
2, 80632, Note_off_c, 0, 78, 100
2, 80640, Note_on_c, 0, 74, 100
2, 80768, Note_off_c, 0, 74, 100
2, 80832, Note_on_c, 0, 86, 100
2, 80960, Note_off_c, 0, 86, 100
2, 81024, Note_on_c, 0, 86, 100
2, 81152, Note_off_c, 0, 86, 100
2, 81216, Note_on_c, 0, 86, 100
2, 81248, Note_off_c, 0, 86, 100
2, 81264, Note_on_c, 0, 88, 100
2, 81296, Note_off_c, 0, 88, 100
2, 81312, Note_on_c, 0, 86, 100
2, 81344, Note_off_c, 0, 86, 100
2, 81360, Note_on_c, 0, 84, 100
2, 81392, Note_off_c, 0, 84, 100
2, 81408, Note_on_c, 0, 84, 100
2, 81536, Note_off_c, 0, 84, 100
2, 81600, Note_on_c, 0, 79, 100
2, 81728, Note_off_c, 0, 79, 100
2, 81792, Note_on_c, 0, 79, 100
2, 81920, Note_off_c, 0, 79, 100
2, 81984, Note_on_c, 0, 79, 100
2, 82016, Note_off_c, 0, 79, 100
2, 82032, Note_on_c, 0, 81, 100
2, 82064, Note_off_c, 0, 81, 100
2, 82080, Note_on_c, 0, 79, 100
2, 82112, Note_off_c, 0, 79, 100
2, 82128, Note_on_c, 0, 78, 100
2, 82160, Note_off_c, 0, 78, 100
2, 82176, Note_on_c, 0, 78, 100
2, 82304, Note_off_c, 0, 78, 100
2, 82368, Note_on_c, 0, 72, 100
2, 82496, Note_off_c, 0, 72, 100
2, 82560, Note_on_c, 0, 72, 100
2, 82688, Note_off_c, 0, 72, 100
2, 82752, Note_on_c, 0, 72, 100
2, 82784, Note_off_c, 0, 72, 100
2, 82800, Note_on_c, 0, 74, 100
2, 82832, Note_off_c, 0, 74, 100
2, 82848, Note_on_c, 0, 72, 100
2, 82880, Note_off_c, 0, 72, 100
2, 82896, Note_on_c, 0, 71, 100
2, 82928, Note_off_c, 0, 71, 100
2, 82944, Note_on_c, 0, 71, 100
2, 83072, Note_off_c, 0, 71, 100
2, 83136, Note_on_c, 0, 82, 100
2, 83200, Note_off_c, 0, 82, 100
2, 83232, Note_on_c, 0, 83, 100
2, 83296, Note_off_c, 0, 83, 100
2, 83328, Note_on_c, 0, 81, 100
2, 83392, Note_off_c, 0, 81, 100
2, 83424, Note_on_c, 0, 79, 100
2, 83488, Note_off_c, 0, 79, 100
2, 83520, Note_on_c, 0, 78, 100
2, 83584, Note_off_c, 0, 78, 100
2, 83616, Note_on_c, 0, 76, 100
2, 83680, Note_off_c, 0, 76, 100
2, 83712, Note_on_c, 0, 74, 100
2, 83968, Note_off_c, 0, 74, 100
2, 84096, Note_on_c, 0, 76, 100
2, 84112, Note_off_c, 0, 76, 100
2, 84120, Note_on_c, 0, 78, 100
2, 84136, Note_off_c, 0, 78, 100
2, 84144, Note_on_c, 0, 76, 100
2, 84160, Note_off_c, 0, 76, 100
2, 84168, Note_on_c, 0, 78, 100
2, 84184, Note_off_c, 0, 78, 100
2, 84192, Note_on_c, 0, 76, 100
2, 84208, Note_off_c, 0, 76, 100
2, 84216, Note_on_c, 0, 78, 100
2, 84232, Note_off_c, 0, 78, 100
2, 84240, Note_on_c, 0, 76, 100
2, 84256, Note_off_c, 0, 76, 100
2, 84264, Note_on_c, 0, 78, 100
2, 84280, Note_off_c, 0, 78, 100
2, 84288, Note_on_c, 0, 76, 100
2, 84304, Note_off_c, 0, 76, 100
2, 84312, Note_on_c, 0, 78, 100
2, 84328, Note_off_c, 0, 78, 100
2, 84336, Note_on_c, 0, 76, 100
2, 84352, Note_off_c, 0, 76, 100
2, 84360, Note_on_c, 0, 78, 100
2, 84376, Note_off_c, 0, 78, 100
2, 84384, Note_on_c, 0, 76, 100
2, 84400, Note_off_c, 0, 76, 100
2, 84408, Note_on_c, 0, 78, 100
2, 84424, Note_off_c, 0, 78, 100
2, 84432, Note_on_c, 0, 76, 100
2, 84448, Note_off_c, 0, 76, 100
2, 84456, Note_on_c, 0, 78, 100
2, 84472, Note_off_c, 0, 78, 100
2, 84480, Note_on_c, 0, 78, 100
2, 84544, Note_off_c, 0, 78, 100
2, 84576, Note_on_c, 0, 74, 100
2, 84640, Note_off_c, 0, 74, 100
2, 84672, Note_on_c, 0, 86, 100
2, 84736, Note_off_c, 0, 86, 100
2, 84768, Note_on_c, 0, 81, 100
2, 84832, Note_off_c, 0, 81, 100
2, 84864, Note_on_c, 0, 83, 100
2, 84928, Note_off_c, 0, 83, 100
2, 84960, Note_on_c, 0, 78, 100
2, 85024, Note_off_c, 0, 78, 100
2, 85056, Note_on_c, 0, 79, 100
2, 85120, Note_off_c, 0, 79, 100
2, 85152, Note_on_c, 0, 76, 100
2, 85216, Note_off_c, 0, 76, 100
2, 85248, Note_on_c, 0, 74, 100
2, 85504, Note_off_c, 0, 74, 100
2, 85632, Note_on_c, 0, 76, 100
2, 85648, Note_off_c, 0, 76, 100
2, 85656, Note_on_c, 0, 78, 100
2, 85672, Note_off_c, 0, 78, 100
2, 85680, Note_on_c, 0, 76, 100
2, 85696, Note_off_c, 0, 76, 100
2, 85704, Note_on_c, 0, 78, 100
2, 85720, Note_off_c, 0, 78, 100
2, 85728, Note_on_c, 0, 76, 100
2, 85744, Note_off_c, 0, 76, 100
2, 85752, Note_on_c, 0, 78, 100
2, 85768, Note_off_c, 0, 78, 100
2, 85776, Note_on_c, 0, 76, 100
2, 85792, Note_off_c, 0, 76, 100
2, 85800, Note_on_c, 0, 78, 100
2, 85816, Note_off_c, 0, 78, 100
2, 85824, Note_on_c, 0, 76, 100
2, 85840, Note_off_c, 0, 76, 100
2, 85848, Note_on_c, 0, 78, 100
2, 85864, Note_off_c, 0, 78, 100
2, 85872, Note_on_c, 0, 76, 100
2, 85888, Note_off_c, 0, 76, 100
2, 85896, Note_on_c, 0, 78, 100
2, 85912, Note_off_c, 0, 78, 100
2, 85920, Note_on_c, 0, 76, 100
2, 85936, Note_off_c, 0, 76, 100
2, 85944, Note_on_c, 0, 78, 100
2, 85960, Note_off_c, 0, 78, 100
2, 85968, Note_on_c, 0, 76, 100
2, 85984, Note_off_c, 0, 76, 100
2, 85992, Note_on_c, 0, 78, 100
2, 86008, Note_off_c, 0, 78, 100
2, 86016, Note_on_c, 0, 74, 100
2, 86144, Note_off_c, 0, 74, 100
2, 86400, Note_on_c, 0, 79, 100
2, 86400, Note_on_c, 0, 73, 100
2, 86528, Note_off_c, 0, 79, 100
2, 86528, Note_off_c, 0, 73, 100
2, 86784, Note_on_c, 0, 78, 100
2, 86784, Note_on_c, 0, 74, 100
2, 86912, Note_off_c, 0, 78, 100
2, 86912, Note_off_c, 0, 74, 100
2, 87168, Note_on_c, 0, 73, 100
2, 87168, Note_on_c, 0, 67, 100
2, 87296, Note_off_c, 0, 73, 100
2, 87296, Note_off_c, 0, 67, 100
2, 87552, Note_on_c, 0, 74, 100
2, 87552, Note_on_c, 0, 66, 100
2, 87808, Note_off_c, 0, 74, 100
2, 87808, Note_off_c, 0, 66, 100
2, 88128, Note_on_c, 0, 62, 100
2, 88256, Note_off_c, 0, 62, 100
2, 88320, Note_on_c, 0, 65, 100
2, 88448, Note_off_c, 0, 65, 100
2, 88512, Note_on_c, 0, 69, 100
2, 88640, Note_off_c, 0, 69, 100
2, 88704, Note_on_c, 0, 74, 100
2, 88832, Note_off_c, 0, 74, 100
2, 88896, Note_on_c, 0, 77, 100
2, 89024, Note_off_c, 0, 77, 100
2, 89088, Note_on_c, 0, 68, 100
2, 89344, Note_off_c, 0, 68, 100
2, 89664, Note_on_c, 0, 64, 100
2, 89792, Note_off_c, 0, 64, 100
2, 89856, Note_on_c, 0, 68, 100
2, 89984, Note_off_c, 0, 68, 100
2, 90048, Note_on_c, 0, 71, 100
2, 90176, Note_off_c, 0, 71, 100
2, 90240, Note_on_c, 0, 76, 100
2, 90368, Note_off_c, 0, 76, 100
2, 90432, Note_on_c, 0, 80, 100
2, 90560, Note_off_c, 0, 80, 100
2, 90624, Note_on_c, 0, 81, 100
2, 90880, Note_off_c, 0, 81, 100
2, 91200, Note_on_c, 0, 69, 100
2, 91328, Note_off_c, 0, 69, 100
2, 91392, Note_on_c, 0, 72, 100
2, 91520, Note_off_c, 0, 72, 100
2, 91584, Note_on_c, 0, 76, 100
2, 91712, Note_off_c, 0, 76, 100
2, 91776, Note_on_c, 0, 81, 100
2, 91904, Note_off_c, 0, 81, 100
2, 91968, Note_on_c, 0, 84, 100
2, 92096, Note_off_c, 0, 84, 100
2, 92160, Note_on_c, 0, 75, 100
2, 92416, Note_off_c, 0, 75, 100
2, 92736, Note_on_c, 0, 81, 100
2, 92864, Note_off_c, 0, 81, 100
2, 92928, Note_on_c, 0, 78, 100
2, 93056, Note_off_c, 0, 78, 100
2, 93120, Note_on_c, 0, 74, 100
2, 93248, Note_off_c, 0, 74, 100
2, 93312, Note_on_c, 0, 71, 100
2, 93440, Note_off_c, 0, 71, 100
2, 93504, Note_on_c, 0, 69, 100
2, 93632, Note_off_c, 0, 69, 100
2, 93696, Note_on_c, 0, 67, 100
2, 93952, Note_off_c, 0, 67, 100
2, 94272, Note_on_c, 0, 64, 100
2, 94400, Note_off_c, 0, 64, 100
2, 94464, Note_on_c, 0, 67, 100
2, 94592, Note_off_c, 0, 67, 100
2, 94656, Note_on_c, 0, 71, 100
2, 94784, Note_off_c, 0, 71, 100
2, 94848, Note_on_c, 0, 76, 100
2, 94976, Note_off_c, 0, 76, 100
2, 95040, Note_on_c, 0, 79, 100
2, 95168, Note_off_c, 0, 79, 100
2, 95232, Note_on_c, 0, 78, 100
2, 95488, Note_off_c, 0, 78, 100
2, 95808, Note_on_c, 0, 66, 100
2, 95936, Note_off_c, 0, 66, 100
2, 96000, Note_on_c, 0, 69, 100
2, 96128, Note_off_c, 0, 69, 100
2, 96192, Note_on_c, 0, 74, 100
2, 96320, Note_off_c, 0, 74, 100
2, 96384, Note_on_c, 0, 78, 100
2, 96512, Note_off_c, 0, 78, 100
2, 96576, Note_on_c, 0, 81, 100
2, 96704, Note_off_c, 0, 81, 100
2, 96768, Note_on_c, 0, 79, 100
2, 97024, Note_off_c, 0, 79, 100
2, 97344, Note_on_c, 0, 64, 100
2, 97472, Note_off_c, 0, 64, 100
2, 97536, Note_on_c, 0, 67, 100
2, 97664, Note_off_c, 0, 67, 100
2, 97728, Note_on_c, 0, 71, 100
2, 97856, Note_off_c, 0, 71, 100
2, 97920, Note_on_c, 0, 76, 100
2, 98048, Note_off_c, 0, 76, 100
2, 98112, Note_on_c, 0, 79, 100
2, 98240, Note_off_c, 0, 79, 100
2, 98304, Note_on_c, 0, 70, 100
2, 98560, Note_off_c, 0, 70, 100
2, 98880, Note_on_c, 0, 79, 100
2, 99008, Note_off_c, 0, 79, 100
2, 99072, Note_on_c, 0, 78, 100
2, 99088, Note_off_c, 0, 78, 100
2, 99096, Note_on_c, 0, 79, 100
2, 99112, Note_off_c, 0, 79, 100
2, 99120, Note_on_c, 0, 78, 100
2, 99136, Note_off_c, 0, 78, 100
2, 99144, Note_on_c, 0, 79, 100
2, 99160, Note_off_c, 0, 79, 100
2, 99168, Note_on_c, 0, 78, 100
2, 99184, Note_off_c, 0, 78, 100
2, 99192, Note_on_c, 0, 79, 100
2, 99208, Note_off_c, 0, 79, 100
2, 99216, Note_on_c, 0, 78, 100
2, 99232, Note_off_c, 0, 78, 100
2, 99240, Note_on_c, 0, 79, 100
2, 99256, Note_off_c, 0, 79, 100
2, 99264, Note_on_c, 0, 76, 100
2, 99392, Note_off_c, 0, 76, 100
2, 99456, Note_on_c, 0, 75, 100
2, 99584, Note_off_c, 0, 75, 100
2, 99648, Note_on_c, 0, 76, 100
2, 99776, Note_off_c, 0, 76, 100
2, 99840, Note_on_c, 0, 75, 100
2, 99968, Note_off_c, 0, 75, 100
2, 100032, Note_on_c, 0, 84, 100
2, 100160, Note_off_c, 0, 84, 100
2, 100224, Note_on_c, 0, 83, 100
2, 100240, Note_off_c, 0, 83, 100
2, 100248, Note_on_c, 0, 84, 100
2, 100264, Note_off_c, 0, 84, 100
2, 100272, Note_on_c, 0, 83, 100
2, 100288, Note_off_c, 0, 83, 100
2, 100296, Note_on_c, 0, 84, 100
2, 100312, Note_off_c, 0, 84, 100
2, 100320, Note_on_c, 0, 83, 100
2, 100336, Note_off_c, 0, 83, 100
2, 100344, Note_on_c, 0, 84, 100
2, 100360, Note_off_c, 0, 84, 100
2, 100368, Note_on_c, 0, 83, 100
2, 100384, Note_off_c, 0, 83, 100
2, 100392, Note_on_c, 0, 84, 100
2, 100408, Note_off_c, 0, 84, 100
2, 100416, Note_on_c, 0, 81, 100
2, 100544, Note_off_c, 0, 81, 100
2, 100608, Note_on_c, 0, 80, 100
2, 100624, Note_off_c, 0, 80, 100
2, 100632, Note_on_c, 0, 81, 100
2, 100648, Note_off_c, 0, 81, 100
2, 100656, Note_on_c, 0, 80, 100
2, 100672, Note_off_c, 0, 80, 100
2, 100680, Note_on_c, 0, 81, 100
2, 100696, Note_off_c, 0, 81, 100
2, 100704, Note_on_c, 0, 80, 100
2, 100720, Note_off_c, 0, 80, 100
2, 100728, Note_on_c, 0, 81, 100
2, 100744, Note_off_c, 0, 81, 100
2, 100752, Note_on_c, 0, 80, 100
2, 100768, Note_off_c, 0, 80, 100
2, 100776, Note_on_c, 0, 81, 100
2, 100792, Note_off_c, 0, 81, 100
2, 100800, Note_on_c, 0, 78, 100
2, 100928, Note_off_c, 0, 78, 100
2, 100992, Note_on_c, 0, 76, 100
2, 101120, Note_off_c, 0, 76, 100
2, 101184, Note_on_c, 0, 74, 100
2, 101312, Note_off_c, 0, 74, 100
2, 101376, Note_on_c, 0, 73, 100
2, 101504, Note_off_c, 0, 73, 100
2, 101568, Note_on_c, 0, 82, 100
2, 101696, Note_off_c, 0, 82, 100
2, 101760, Note_on_c, 0, 81, 100
2, 101776, Note_off_c, 0, 81, 100
2, 101784, Note_on_c, 0, 82, 100
2, 101800, Note_off_c, 0, 82, 100
2, 101808, Note_on_c, 0, 81, 100
2, 101824, Note_off_c, 0, 81, 100
2, 101832, Note_on_c, 0, 82, 100
2, 101848, Note_off_c, 0, 82, 100
2, 101856, Note_on_c, 0, 81, 100
2, 101872, Note_off_c, 0, 81, 100
2, 101880, Note_on_c, 0, 82, 100
2, 101896, Note_off_c, 0, 82, 100
2, 101904, Note_on_c, 0, 81, 100
2, 101920, Note_off_c, 0, 81, 100
2, 101928, Note_on_c, 0, 82, 100
2, 101944, Note_off_c, 0, 82, 100
2, 101952, Note_on_c, 0, 79, 100
2, 102080, Note_off_c, 0, 79, 100
2, 102144, Note_on_c, 0, 78, 100
2, 102272, Note_off_c, 0, 78, 100
2, 102336, Note_on_c, 0, 81, 100
2, 102464, Note_off_c, 0, 81, 100
2, 102528, Note_on_c, 0, 86, 100
2, 102656, Note_off_c, 0, 86, 100
2, 102720, Note_on_c, 0, 78, 100
2, 102848, Note_off_c, 0, 78, 100
2, 102912, Note_on_c, 0, 79, 100
2, 103040, Note_off_c, 0, 79, 100
2, 103104, Note_on_c, 0, 83, 100
2, 103232, Note_off_c, 0, 83, 100
2, 103296, Note_on_c, 0, 86, 100
2, 103424, Note_off_c, 0, 86, 100
2, 103488, Note_on_c, 0, 79, 100
2, 103616, Note_off_c, 0, 79, 100
2, 103680, Note_on_c, 0, 78, 100
2, 103808, Note_off_c, 0, 78, 100
2, 103872, Note_on_c, 0, 81, 100
2, 104000, Note_off_c, 0, 81, 100
2, 104064, Note_on_c, 0, 86, 100
2, 104192, Note_off_c, 0, 86, 100
2, 104256, Note_on_c, 0, 78, 100
2, 104384, Note_off_c, 0, 78, 100
2, 104448, Note_on_c, 0, 79, 100
2, 104576, Note_off_c, 0, 79, 100
2, 104640, Note_on_c, 0, 82, 100
2, 104768, Note_off_c, 0, 82, 100
2, 104832, Note_on_c, 0, 86, 100
2, 104960, Note_off_c, 0, 86, 100
2, 105024, Note_on_c, 0, 79, 100
2, 105152, Note_off_c, 0, 79, 100
2, 105216, Note_on_c, 0, 75, 100
2, 105344, Note_off_c, 0, 75, 100
2, 105408, Note_on_c, 0, 86, 100
2, 105536, Note_off_c, 0, 86, 100
2, 105600, Note_on_c, 0, 84, 100
2, 105728, Note_off_c, 0, 84, 100
2, 105792, Note_on_c, 0, 75, 100
2, 105920, Note_off_c, 0, 75, 100
2, 105984, Note_on_c, 0, 74, 100
2, 106112, Note_off_c, 0, 74, 100
2, 106176, Note_on_c, 0, 84, 100
2, 106304, Note_off_c, 0, 84, 100
2, 106368, Note_on_c, 0, 82, 100
2, 106496, Note_off_c, 0, 82, 100
2, 106560, Note_on_c, 0, 74, 100
2, 106688, Note_off_c, 0, 74, 100
2, 106752, Note_on_c, 0, 72, 100
2, 106880, Note_off_c, 0, 72, 100
2, 106944, Note_on_c, 0, 82, 100
2, 107072, Note_off_c, 0, 82, 100
2, 107136, Note_on_c, 0, 81, 100
2, 107264, Note_off_c, 0, 81, 100
2, 107328, Note_on_c, 0, 72, 100
2, 107456, Note_off_c, 0, 72, 100
2, 107520, Note_on_c, 0, 70, 100
2, 107648, Note_off_c, 0, 70, 100
2, 107712, Note_on_c, 0, 79, 100
2, 107840, Note_off_c, 0, 79, 100
2, 107904, Note_on_c, 0, 69, 100
2, 108032, Note_off_c, 0, 69, 100
2, 108096, Note_on_c, 0, 81, 100
2, 108224, Note_off_c, 0, 81, 100
2, 108288, Note_on_c, 0, 67, 100
2, 108416, Note_off_c, 0, 67, 100
2, 108480, Note_on_c, 0, 82, 100
2, 108608, Note_off_c, 0, 82, 100
2, 108672, Note_on_c, 0, 81, 100
2, 108688, Note_off_c, 0, 81, 100
2, 108696, Note_on_c, 0, 82, 100
2, 108712, Note_off_c, 0, 82, 100
2, 108720, Note_on_c, 0, 81, 100
2, 108736, Note_off_c, 0, 81, 100
2, 108744, Note_on_c, 0, 82, 100
2, 108760, Note_off_c, 0, 82, 100
2, 108768, Note_on_c, 0, 81, 100
2, 108784, Note_off_c, 0, 81, 100
2, 108792, Note_on_c, 0, 82, 100
2, 108808, Note_off_c, 0, 82, 100
2, 108816, Note_on_c, 0, 81, 100
2, 108832, Note_off_c, 0, 81, 100
2, 108840, Note_on_c, 0, 82, 100
2, 108856, Note_off_c, 0, 82, 100
2, 108864, Note_on_c, 0, 79, 100
2, 108992, Note_off_c, 0, 79, 100
2, 109056, Note_on_c, 0, 78, 100
2, 109184, Note_off_c, 0, 78, 100
2, 109248, Note_on_c, 0, 81, 100
2, 109376, Note_off_c, 0, 81, 100
2, 109440, Note_on_c, 0, 84, 100
2, 109504, Note_off_c, 0, 84, 100
2, 109536, Note_on_c, 0, 81, 100
2, 109600, Note_off_c, 0, 81, 100
2, 109632, Note_on_c, 0, 78, 100
2, 109696, Note_off_c, 0, 78, 100
2, 109728, Note_on_c, 0, 74, 100
2, 109792, Note_off_c, 0, 74, 100
2, 109824, Note_on_c, 0, 69, 100
2, 109824, Note_on_c, 0, 72, 100
2, 110784, Note_on_c, 0, 71, 100
2, 110848, Note_off_c, 0, 71, 100
2, 110852, Note_off_c, 0, 69, 100
2, 110852, Note_off_c, 0, 72, 100
2, 110880, Note_on_c, 0, 72, 100
2, 110944, Note_off_c, 0, 72, 100
2, 110976, Note_on_c, 0, 74, 100
2, 111040, Note_off_c, 0, 74, 100
2, 111072, Note_on_c, 0, 72, 100
2, 111136, Note_off_c, 0, 72, 100
2, 111168, Note_on_c, 0, 71, 100
2, 111232, Note_off_c, 0, 71, 100
2, 111264, Note_on_c, 0, 69, 100
2, 111328, Note_off_c, 0, 69, 100
2, 111360, Note_on_c, 0, 67, 100
2, 111424, Note_off_c, 0, 67, 100
2, 111456, Note_on_c, 0, 66, 100
2, 111520, Note_off_c, 0, 66, 100
2, 111552, Note_on_c, 0, 69, 100
2, 111616, Note_off_c, 0, 69, 100
2, 111648, Note_on_c, 0, 67, 100
2, 111712, Note_off_c, 0, 67, 100
2, 111744, Note_on_c, 0, 71, 100
2, 111808, Note_off_c, 0, 71, 100
2, 111840, Note_on_c, 0, 69, 100
2, 111904, Note_off_c, 0, 69, 100
2, 111936, Note_on_c, 0, 72, 100
2, 112000, Note_off_c, 0, 72, 100
2, 112032, Note_on_c, 0, 71, 100
2, 112096, Note_off_c, 0, 71, 100
2, 112128, Note_on_c, 0, 74, 100
2, 112256, Note_off_c, 0, 74, 100
2, 112320, Note_on_c, 0, 74, 100
2, 112448, Note_off_c, 0, 74, 100
2, 112512, Note_on_c, 0, 74, 100
2, 112640, Note_off_c, 0, 74, 100
2, 112704, Note_on_c, 0, 74, 100
2, 112832, Note_off_c, 0, 74, 100
2, 112896, Note_on_c, 0, 74, 100
2, 113024, Note_off_c, 0, 74, 100
2, 113088, Note_on_c, 0, 76, 100
2, 113152, Note_off_c, 0, 76, 100
2, 113184, Note_on_c, 0, 78, 100
2, 113248, Note_off_c, 0, 78, 100
2, 113256, Note_on_c, 0, 81, 100
2, 113272, Note_off_c, 0, 81, 100
2, 113280, Note_on_c, 0, 79, 100
2, 113408, Note_off_c, 0, 79, 100
2, 113472, Note_on_c, 0, 78, 100
2, 113536, Note_off_c, 0, 78, 100
2, 113568, Note_on_c, 0, 76, 100
2, 113632, Note_off_c, 0, 76, 100
2, 113664, Note_on_c, 0, 74, 100
2, 113792, Note_off_c, 0, 74, 100
2, 113856, Note_on_c, 0, 74, 100
2, 113984, Note_off_c, 0, 74, 100
2, 114048, Note_on_c, 0, 74, 100
2, 114176, Note_off_c, 0, 74, 100
2, 114240, Note_on_c, 0, 74, 100
2, 114368, Note_off_c, 0, 74, 100
2, 114432, Note_on_c, 0, 74, 100
2, 114560, Note_off_c, 0, 74, 100
2, 114624, Note_on_c, 0, 76, 100
2, 114688, Note_off_c, 0, 76, 100
2, 114720, Note_on_c, 0, 78, 100
2, 114784, Note_off_c, 0, 78, 100
2, 114792, Note_on_c, 0, 81, 100
2, 114808, Note_off_c, 0, 81, 100
2, 114816, Note_on_c, 0, 79, 100
2, 114944, Note_off_c, 0, 79, 100
2, 115008, Note_on_c, 0, 78, 100
2, 115072, Note_off_c, 0, 78, 100
2, 115104, Note_on_c, 0, 76, 100
2, 115168, Note_off_c, 0, 76, 100
2, 115200, Note_on_c, 0, 74, 100
2, 115328, Note_off_c, 0, 74, 100
2, 115392, Note_on_c, 0, 79, 100
2, 115456, Note_off_c, 0, 79, 100
2, 115488, Note_on_c, 0, 83, 100
2, 115552, Note_off_c, 0, 83, 100
2, 115584, Note_on_c, 0, 81, 100
2, 115648, Note_off_c, 0, 81, 100
2, 115680, Note_on_c, 0, 79, 100
2, 115744, Note_off_c, 0, 79, 100
2, 115776, Note_on_c, 0, 78, 100
2, 115840, Note_off_c, 0, 78, 100
2, 115872, Note_on_c, 0, 76, 100
2, 115936, Note_off_c, 0, 76, 100
2, 115968, Note_on_c, 0, 74, 100
2, 116224, Note_off_c, 0, 74, 100
2, 116352, Note_on_c, 0, 72, 100
2, 116368, Note_off_c, 0, 72, 100
2, 116376, Note_on_c, 0, 74, 100
2, 116392, Note_off_c, 0, 74, 100
2, 116400, Note_on_c, 0, 72, 100
2, 116416, Note_off_c, 0, 72, 100
2, 116424, Note_on_c, 0, 74, 100
2, 116440, Note_off_c, 0, 74, 100
2, 116448, Note_on_c, 0, 72, 100
2, 116464, Note_off_c, 0, 72, 100
2, 116472, Note_on_c, 0, 74, 100
2, 116488, Note_off_c, 0, 74, 100
2, 116496, Note_on_c, 0, 72, 100
2, 116512, Note_off_c, 0, 72, 100
2, 116520, Note_on_c, 0, 74, 100
2, 116536, Note_off_c, 0, 74, 100
2, 116544, Note_on_c, 0, 72, 100
2, 116560, Note_off_c, 0, 72, 100
2, 116568, Note_on_c, 0, 74, 100
2, 116584, Note_off_c, 0, 74, 100
2, 116592, Note_on_c, 0, 72, 100
2, 116608, Note_off_c, 0, 72, 100
2, 116616, Note_on_c, 0, 74, 100
2, 116632, Note_off_c, 0, 74, 100
2, 116640, Note_on_c, 0, 72, 100
2, 116656, Note_off_c, 0, 72, 100
2, 116664, Note_on_c, 0, 74, 100
2, 116680, Note_off_c, 0, 74, 100
2, 116688, Note_on_c, 0, 72, 100
2, 116704, Note_off_c, 0, 72, 100
2, 116712, Note_on_c, 0, 74, 100
2, 116728, Note_off_c, 0, 74, 100
2, 116736, Note_on_c, 0, 71, 100
2, 116992, Note_off_c, 0, 71, 100
2, 117312, Note_on_c, 0, 67, 100
2, 117440, Note_off_c, 0, 67, 100
2, 117504, Note_on_c, 0, 66, 100
2, 117520, Note_off_c, 0, 66, 100
2, 117528, Note_on_c, 0, 67, 100
2, 117544, Note_off_c, 0, 67, 100
2, 117552, Note_on_c, 0, 66, 100
2, 117568, Note_off_c, 0, 66, 100
2, 117576, Note_on_c, 0, 67, 100
2, 117592, Note_off_c, 0, 67, 100
2, 117600, Note_on_c, 0, 66, 100
2, 117616, Note_off_c, 0, 66, 100
2, 117624, Note_on_c, 0, 67, 100
2, 117640, Note_off_c, 0, 67, 100
2, 117648, Note_on_c, 0, 66, 100
2, 117664, Note_off_c, 0, 66, 100
2, 117672, Note_on_c, 0, 67, 100
2, 117688, Note_off_c, 0, 67, 100
2, 117696, Note_on_c, 0, 64, 100
2, 117824, Note_off_c, 0, 64, 100
2, 117888, Note_on_c, 0, 62, 100
2, 117904, Note_off_c, 0, 62, 100
2, 117912, Note_on_c, 0, 64, 100
2, 117928, Note_off_c, 0, 64, 100
2, 117936, Note_on_c, 0, 62, 100
2, 117952, Note_off_c, 0, 62, 100
2, 117960, Note_on_c, 0, 64, 100
2, 117976, Note_off_c, 0, 64, 100
2, 117984, Note_on_c, 0, 62, 100
2, 118000, Note_off_c, 0, 62, 100
2, 118008, Note_on_c, 0, 64, 100
2, 118024, Note_off_c, 0, 64, 100
2, 118032, Note_on_c, 0, 62, 100
2, 118048, Note_off_c, 0, 62, 100
2, 118056, Note_on_c, 0, 64, 100
2, 118072, Note_off_c, 0, 64, 100
2, 118080, Note_on_c, 0, 60, 100
2, 118208, Note_off_c, 0, 60, 100
2, 118272, Note_on_c, 0, 59, 100
2, 118528, Note_off_c, 0, 59, 100
2, 118848, Note_on_c, 0, 64, 100
2, 118888, Note_off_c, 0, 64, 100
2, 118912, Note_on_c, 0, 66, 100
2, 118952, Note_off_c, 0, 66, 100
2, 118976, Note_on_c, 0, 64, 100
2, 119016, Note_off_c, 0, 64, 100
2, 119040, Note_on_c, 0, 62, 100
2, 119080, Note_off_c, 0, 62, 100
2, 119104, Note_on_c, 0, 64, 100
2, 119144, Note_off_c, 0, 64, 100
2, 119168, Note_on_c, 0, 62, 100
2, 119208, Note_off_c, 0, 62, 100
2, 119232, Note_on_c, 0, 60, 100
2, 119272, Note_off_c, 0, 60, 100
2, 119296, Note_on_c, 0, 62, 100
2, 119336, Note_off_c, 0, 62, 100
2, 119360, Note_on_c, 0, 60, 100
2, 119400, Note_off_c, 0, 60, 100
2, 119424, Note_on_c, 0, 59, 100
2, 119464, Note_off_c, 0, 59, 100
2, 119488, Note_on_c, 0, 60, 100
2, 119528, Note_off_c, 0, 60, 100
2, 119552, Note_on_c, 0, 59, 100
2, 119592, Note_off_c, 0, 59, 100
2, 119616, Note_on_c, 0, 57, 100
2, 119656, Note_off_c, 0, 57, 100
2, 119680, Note_on_c, 0, 59, 100
2, 119720, Note_off_c, 0, 59, 100
2, 119744, Note_on_c, 0, 57, 100
2, 119784, Note_off_c, 0, 57, 100
2, 119808, Note_on_c, 0, 56, 100
2, 119936, Note_off_c, 0, 56, 100
2, 120000, Note_on_c, 0, 59, 100
2, 120128, Note_off_c, 0, 59, 100
2, 120192, Note_on_c, 0, 62, 100
2, 120320, Note_off_c, 0, 62, 100
2, 120384, Note_on_c, 0, 68, 100
2, 120512, Note_off_c, 0, 68, 100
2, 120576, Note_on_c, 0, 71, 100
2, 120704, Note_off_c, 0, 71, 100
2, 120768, Note_on_c, 0, 74, 100
2, 120896, Note_off_c, 0, 74, 100
2, 120960, Note_on_c, 0, 83, 100
2, 121216, Note_off_c, 0, 83, 100
2, 121248, Note_on_c, 0, 74, 100
2, 121312, Note_off_c, 0, 74, 100
2, 121344, Note_on_c, 0, 74, 100
2, 121408, Note_off_c, 0, 74, 100
2, 121440, Note_on_c, 0, 72, 100
2, 121504, Note_off_c, 0, 72, 100
2, 121536, Note_on_c, 0, 71, 100
2, 121600, Note_off_c, 0, 71, 100
2, 121632, Note_on_c, 0, 69, 100
2, 121696, Note_off_c, 0, 69, 100
2, 121728, Note_on_c, 0, 69, 100
2, 121856, Note_off_c, 0, 69, 100
2, 121920, Note_on_c, 0, 69, 100
2, 122048, Note_off_c, 0, 69, 100
2, 122112, Note_on_c, 0, 81, 100
2, 122112, Note_on_c, 0, 72, 100
2, 122624, Note_off_c, 0, 81, 100
2, 122624, Note_off_c, 0, 72, 100
2, 122688, Note_on_c, 0, 72, 100
2, 122816, Note_off_c, 0, 72, 100
2, 122880, Note_on_c, 0, 72, 100
2, 122944, Note_off_c, 0, 72, 100
2, 122976, Note_on_c, 0, 71, 100
2, 123040, Note_off_c, 0, 71, 100
2, 123072, Note_on_c, 0, 69, 100
2, 123136, Note_off_c, 0, 69, 100
2, 123168, Note_on_c, 0, 67, 100
2, 123232, Note_off_c, 0, 67, 100
2, 123264, Note_on_c, 0, 67, 100
2, 123392, Note_off_c, 0, 67, 100
2, 123456, Note_on_c, 0, 74, 100
2, 123584, Note_off_c, 0, 74, 100
2, 123648, Note_on_c, 0, 74, 100
2, 123712, Note_off_c, 0, 74, 100
2, 123744, Note_on_c, 0, 72, 100
2, 123808, Note_off_c, 0, 72, 100
2, 123840, Note_on_c, 0, 71, 100
2, 123904, Note_off_c, 0, 71, 100
2, 123936, Note_on_c, 0, 69, 100
2, 124000, Note_off_c, 0, 69, 100
2, 124032, Note_on_c, 0, 69, 100
2, 124160, Note_off_c, 0, 69, 100
2, 124224, Note_on_c, 0, 72, 100
2, 124352, Note_off_c, 0, 72, 100
2, 124416, Note_on_c, 0, 72, 100
2, 124480, Note_off_c, 0, 72, 100
2, 124512, Note_on_c, 0, 71, 100
2, 124576, Note_off_c, 0, 71, 100
2, 124608, Note_on_c, 0, 69, 100
2, 124672, Note_off_c, 0, 69, 100
2, 124704, Note_on_c, 0, 67, 100
2, 124768, Note_off_c, 0, 67, 100
2, 124800, Note_on_c, 0, 67, 100
2, 124928, Note_off_c, 0, 67, 100
2, 124992, Note_on_c, 0, 79, 100
2, 125120, Note_off_c, 0, 79, 100
2, 125184, Note_on_c, 0, 78, 100
2, 125248, Note_off_c, 0, 78, 100
2, 125280, Note_on_c, 0, 76, 100
2, 125344, Note_off_c, 0, 76, 100
2, 125376, Note_on_c, 0, 74, 100
2, 125440, Note_off_c, 0, 74, 100
2, 125472, Note_on_c, 0, 72, 100
2, 125536, Note_off_c, 0, 72, 100
2, 125568, Note_on_c, 0, 71, 100
2, 125632, Note_off_c, 0, 71, 100
2, 125664, Note_on_c, 0, 69, 100
2, 125728, Note_off_c, 0, 69, 100
2, 125760, Note_on_c, 0, 72, 100
2, 125824, Note_off_c, 0, 72, 100
2, 125856, Note_on_c, 0, 69, 100
2, 125920, Note_off_c, 0, 69, 100
2, 125952, Note_on_c, 0, 67, 100
2, 126208, Note_off_c, 0, 67, 100
2, 126336, Note_on_c, 0, 66, 100
2, 126464, Note_off_c, 0, 66, 100
2, 126528, Note_on_c, 0, 62, 100
2, 126656, Note_off_c, 0, 62, 100
2, 126720, Note_on_c, 0, 67, 100
2, 126976, Note_off_c, 0, 67, 100
2, 127080, Note_on_c, 0, 72, 100
2, 127096, Note_off_c, 0, 72, 100
2, 127104, Note_on_c, 0, 71, 100
2, 127232, Note_off_c, 0, 71, 100
2, 127296, Note_on_c, 0, 69, 100
2, 127360, Note_off_c, 0, 69, 100
2, 127392, Note_on_c, 0, 67, 100
2, 127456, Note_off_c, 0, 67, 100
2, 127464, Note_on_c, 0, 67, 100
2, 127480, Note_off_c, 0, 67, 100
2, 127488, Note_on_c, 0, 66, 100
2, 127744, Note_off_c, 0, 66, 100
2, 128064, Note_on_c, 0, 62, 100
2, 128192, Note_off_c, 0, 62, 100
2, 128256, Note_on_c, 0, 69, 100
2, 128512, Note_off_c, 0, 69, 100
2, 128616, Note_on_c, 0, 74, 100
2, 128632, Note_off_c, 0, 74, 100
2, 128640, Note_on_c, 0, 72, 100
2, 128768, Note_off_c, 0, 72, 100
2, 128832, Note_on_c, 0, 71, 100
2, 128896, Note_off_c, 0, 71, 100
2, 128928, Note_on_c, 0, 69, 100
2, 128992, Note_off_c, 0, 69, 100
2, 129000, Note_on_c, 0, 69, 100
2, 129016, Note_off_c, 0, 69, 100
2, 129024, Note_on_c, 0, 71, 100
2, 129280, Note_off_c, 0, 71, 100
2, 129600, Note_on_c, 0, 74, 100
2, 129728, Note_off_c, 0, 74, 100
2, 129792, Note_on_c, 0, 79, 100
2, 130048, Note_off_c, 0, 79, 100
2, 130152, Note_on_c, 0, 84, 100
2, 130168, Note_off_c, 0, 84, 100
2, 130176, Note_on_c, 0, 83, 100
2, 130304, Note_off_c, 0, 83, 100
2, 130368, Note_on_c, 0, 81, 100
2, 130432, Note_off_c, 0, 81, 100
2, 130464, Note_on_c, 0, 79, 100
2, 130528, Note_off_c, 0, 79, 100
2, 130536, Note_on_c, 0, 79, 100
2, 130552, Note_off_c, 0, 79, 100
2, 130560, Note_on_c, 0, 78, 100
2, 130816, Note_off_c, 0, 78, 100
2, 131136, Note_on_c, 0, 74, 100
2, 131264, Note_off_c, 0, 74, 100
2, 131328, Note_on_c, 0, 81, 100
2, 131584, Note_off_c, 0, 81, 100
2, 131688, Note_on_c, 0, 86, 100
2, 131704, Note_off_c, 0, 86, 100
2, 131712, Note_on_c, 0, 84, 100
2, 131840, Note_off_c, 0, 84, 100
2, 131904, Note_on_c, 0, 83, 100
2, 131968, Note_off_c, 0, 83, 100
2, 132000, Note_on_c, 0, 81, 100
2, 132064, Note_off_c, 0, 81, 100
2, 132072, Note_on_c, 0, 81, 100
2, 132088, Note_off_c, 0, 81, 100
2, 132096, Note_on_c, 0, 83, 100
2, 132352, Note_off_c, 0, 83, 100
2, 132672, Note_on_c, 0, 74, 100
2, 132800, Note_off_c, 0, 74, 100
2, 132864, Note_on_c, 0, 74, 100
2, 132928, Note_off_c, 0, 74, 100
2, 132960, Note_on_c, 0, 86, 100
2, 133024, Note_off_c, 0, 86, 100
2, 133056, Note_on_c, 0, 84, 100
2, 133120, Note_off_c, 0, 84, 100
2, 133152, Note_on_c, 0, 83, 100
2, 133216, Note_off_c, 0, 83, 100
2, 133248, Note_on_c, 0, 81, 100
2, 133312, Note_off_c, 0, 81, 100
2, 133344, Note_on_c, 0, 79, 100
2, 133408, Note_off_c, 0, 79, 100
2, 133440, Note_on_c, 0, 78, 100
2, 133504, Note_off_c, 0, 78, 100
2, 133536, Note_on_c, 0, 79, 100
2, 133600, Note_off_c, 0, 79, 100
2, 133632, Note_on_c, 0, 76, 100
2, 133760, Note_off_c, 0, 76, 100
2, 133824, Note_on_c, 0, 80, 100
2, 133952, Note_off_c, 0, 80, 100
2, 134016, Note_on_c, 0, 81, 100
2, 134144, Note_off_c, 0, 81, 100
2, 134208, Note_on_c, 0, 83, 100
2, 134336, Note_off_c, 0, 83, 100
2, 134496, Note_on_c, 0, 84, 100
2, 134560, Note_off_c, 0, 84, 100
2, 134592, Note_on_c, 0, 83, 100
2, 134656, Note_off_c, 0, 83, 100
2, 134688, Note_on_c, 0, 81, 100
2, 134752, Note_off_c, 0, 81, 100
2, 134784, Note_on_c, 0, 79, 100
2, 134848, Note_off_c, 0, 79, 100
2, 134880, Note_on_c, 0, 78, 100
2, 134944, Note_off_c, 0, 78, 100
2, 134976, Note_on_c, 0, 76, 100
2, 135040, Note_off_c, 0, 76, 100
2, 135072, Note_on_c, 0, 78, 100
2, 135136, Note_off_c, 0, 78, 100
2, 135168, Note_on_c, 0, 74, 100
2, 135296, Note_off_c, 0, 74, 100
2, 135360, Note_on_c, 0, 78, 100
2, 135488, Note_off_c, 0, 78, 100
2, 135552, Note_on_c, 0, 79, 100
2, 135680, Note_off_c, 0, 79, 100
2, 135744, Note_on_c, 0, 81, 100
2, 135872, Note_off_c, 0, 81, 100
2, 136032, Note_on_c, 0, 83, 100
2, 136096, Note_off_c, 0, 83, 100
2, 136128, Note_on_c, 0, 81, 100
2, 136192, Note_off_c, 0, 81, 100
2, 136224, Note_on_c, 0, 79, 100
2, 136288, Note_off_c, 0, 79, 100
2, 136320, Note_on_c, 0, 78, 100
2, 136384, Note_off_c, 0, 78, 100
2, 136416, Note_on_c, 0, 76, 100
2, 136480, Note_off_c, 0, 76, 100
2, 136512, Note_on_c, 0, 74, 100
2, 136576, Note_off_c, 0, 74, 100
2, 136608, Note_on_c, 0, 76, 100
2, 136672, Note_off_c, 0, 76, 100
2, 136704, Note_on_c, 0, 72, 100
2, 136832, Note_off_c, 0, 72, 100
2, 136896, Note_on_c, 0, 76, 100
2, 137024, Note_off_c, 0, 76, 100
2, 137088, Note_on_c, 0, 78, 100
2, 137216, Note_off_c, 0, 78, 100
2, 137280, Note_on_c, 0, 79, 100
2, 137408, Note_off_c, 0, 79, 100
2, 137568, Note_on_c, 0, 81, 100
2, 137632, Note_off_c, 0, 81, 100
2, 137664, Note_on_c, 0, 79, 100
2, 137728, Note_off_c, 0, 79, 100
2, 137760, Note_on_c, 0, 78, 100
2, 137824, Note_off_c, 0, 78, 100
2, 137856, Note_on_c, 0, 76, 100
2, 137920, Note_off_c, 0, 76, 100
2, 137952, Note_on_c, 0, 74, 100
2, 138016, Note_off_c, 0, 74, 100
2, 138048, Note_on_c, 0, 76, 100
2, 138112, Note_off_c, 0, 76, 100
2, 138144, Note_on_c, 0, 72, 100
2, 138208, Note_off_c, 0, 72, 100
2, 138240, Note_on_c, 0, 71, 100
2, 138368, Note_off_c, 0, 71, 100
2, 138432, Note_on_c, 0, 79, 100
2, 138560, Note_off_c, 0, 79, 100
2, 138624, Note_on_c, 0, 78, 100
2, 138752, Note_off_c, 0, 78, 100
2, 138816, Note_on_c, 0, 86, 100
2, 138944, Note_off_c, 0, 86, 100
2, 139008, Note_on_c, 0, 83, 100
2, 139136, Note_off_c, 0, 83, 100
2, 139200, Note_on_c, 0, 79, 100
2, 139328, Note_off_c, 0, 79, 100
2, 139392, Note_on_c, 0, 78, 100
2, 139520, Note_off_c, 0, 78, 100
2, 139584, Note_on_c, 0, 72, 100
2, 139712, Note_off_c, 0, 72, 100
2, 139776, Note_on_c, 0, 71, 100
2, 139904, Note_off_c, 0, 71, 100
2, 139968, Note_on_c, 0, 79, 100
2, 140008, Note_off_c, 0, 79, 100
2, 140032, Note_on_c, 0, 81, 100
2, 140072, Note_off_c, 0, 81, 100
2, 140096, Note_on_c, 0, 79, 100
2, 140136, Note_off_c, 0, 79, 100
2, 140160, Note_on_c, 0, 78, 100
2, 140288, Note_off_c, 0, 78, 100
2, 140352, Note_on_c, 0, 86, 100
2, 140480, Note_off_c, 0, 86, 100
2, 140544, Note_on_c, 0, 83, 100
2, 140672, Note_off_c, 0, 83, 100
2, 140736, Note_on_c, 0, 79, 100
2, 140864, Note_off_c, 0, 79, 100
2, 140928, Note_on_c, 0, 78, 100
2, 141056, Note_off_c, 0, 78, 100
2, 141120, Note_on_c, 0, 72, 100
2, 141248, Note_off_c, 0, 72, 100
2, 141312, Note_on_c, 0, 71, 100
2, 141440, Note_off_c, 0, 71, 100
2, 141504, Note_on_c, 0, 79, 100
2, 141632, Note_off_c, 0, 79, 100
2, 141696, Note_on_c, 0, 77, 100
2, 141824, Note_off_c, 0, 77, 100
2, 141888, Note_on_c, 0, 74, 100
2, 142016, Note_off_c, 0, 74, 100
2, 142080, Note_on_c, 0, 75, 100
2, 142336, Note_off_c, 0, 75, 100
2, 142464, Note_on_c, 0, 76, 100
2, 142592, Note_off_c, 0, 76, 100
2, 142656, Note_on_c, 0, 76, 100
2, 142720, Note_off_c, 0, 76, 100
2, 142752, Note_on_c, 0, 72, 100
2, 142816, Note_off_c, 0, 72, 100
2, 142848, Note_on_c, 0, 74, 100
2, 142912, Note_off_c, 0, 74, 100
2, 142944, Note_on_c, 0, 71, 100
2, 143008, Note_off_c, 0, 71, 100
2, 143040, Note_on_c, 0, 72, 100
2, 143104, Note_off_c, 0, 72, 100
2, 143136, Note_on_c, 0, 69, 100
2, 143200, Note_off_c, 0, 69, 100
2, 143232, Note_on_c, 0, 71, 100
2, 143296, Note_off_c, 0, 71, 100
2, 143328, Note_on_c, 0, 67, 100
2, 143392, Note_off_c, 0, 67, 100
2, 143424, Note_on_c, 0, 69, 100
2, 143488, Note_off_c, 0, 69, 100
2, 143520, Note_on_c, 0, 66, 100
2, 143584, Note_off_c, 0, 66, 100
2, 143616, Note_on_c, 0, 67, 100
2, 143744, Note_off_c, 0, 67, 100
2, 143808, Note_on_c, 0, 79, 100
2, 143936, Note_off_c, 0, 79, 100
2, 144000, Note_on_c, 0, 79, 100
2, 144128, Note_off_c, 0, 79, 100
2, 144192, Note_on_c, 0, 79, 100
2, 144224, Note_off_c, 0, 79, 100
2, 144240, Note_on_c, 0, 81, 100
2, 144272, Note_off_c, 0, 81, 100
2, 144288, Note_on_c, 0, 79, 100
2, 144320, Note_off_c, 0, 79, 100
2, 144336, Note_on_c, 0, 78, 100
2, 144368, Note_off_c, 0, 78, 100
2, 144384, Note_on_c, 0, 78, 100
2, 144512, Note_off_c, 0, 78, 100
2, 144576, Note_on_c, 0, 72, 100
2, 144704, Note_off_c, 0, 72, 100
2, 144768, Note_on_c, 0, 72, 100
2, 144896, Note_off_c, 0, 72, 100
2, 144960, Note_on_c, 0, 72, 100
2, 144992, Note_off_c, 0, 72, 100
2, 145008, Note_on_c, 0, 74, 100
2, 145040, Note_off_c, 0, 74, 100
2, 145056, Note_on_c, 0, 72, 100
2, 145088, Note_off_c, 0, 72, 100
2, 145104, Note_on_c, 0, 71, 100
2, 145136, Note_off_c, 0, 71, 100
2, 145152, Note_on_c, 0, 71, 100
2, 145280, Note_off_c, 0, 71, 100
2, 145344, Note_on_c, 0, 65, 100
2, 145472, Note_off_c, 0, 65, 100
2, 145536, Note_on_c, 0, 65, 100
2, 145664, Note_off_c, 0, 65, 100
2, 145728, Note_on_c, 0, 65, 100
2, 145760, Note_off_c, 0, 65, 100
2, 145776, Note_on_c, 0, 67, 100
2, 145808, Note_off_c, 0, 67, 100
2, 145824, Note_on_c, 0, 65, 100
2, 145856, Note_off_c, 0, 65, 100
2, 145872, Note_on_c, 0, 64, 100
2, 145904, Note_off_c, 0, 64, 100
2, 145920, Note_on_c, 0, 64, 100
2, 146048, Note_off_c, 0, 64, 100
2, 146112, Note_on_c, 0, 75, 100
2, 146176, Note_off_c, 0, 75, 100
2, 146208, Note_on_c, 0, 76, 100
2, 146272, Note_off_c, 0, 76, 100
2, 146304, Note_on_c, 0, 74, 100
2, 146368, Note_off_c, 0, 74, 100
2, 146400, Note_on_c, 0, 72, 100
2, 146464, Note_off_c, 0, 72, 100
2, 146496, Note_on_c, 0, 71, 100
2, 146560, Note_off_c, 0, 71, 100
2, 146592, Note_on_c, 0, 69, 100
2, 146656, Note_off_c, 0, 69, 100
2, 146688, Note_on_c, 0, 67, 100
2, 146944, Note_off_c, 0, 67, 100
2, 147072, Note_on_c, 0, 69, 100
2, 147088, Note_off_c, 0, 69, 100
2, 147096, Note_on_c, 0, 71, 100
2, 147112, Note_off_c, 0, 71, 100
2, 147120, Note_on_c, 0, 69, 100
2, 147136, Note_off_c, 0, 69, 100
2, 147144, Note_on_c, 0, 71, 100
2, 147160, Note_off_c, 0, 71, 100
2, 147168, Note_on_c, 0, 69, 100
2, 147184, Note_off_c, 0, 69, 100
2, 147192, Note_on_c, 0, 71, 100
2, 147208, Note_off_c, 0, 71, 100
2, 147216, Note_on_c, 0, 69, 100
2, 147232, Note_off_c, 0, 69, 100
2, 147240, Note_on_c, 0, 71, 100
2, 147256, Note_off_c, 0, 71, 100
2, 147264, Note_on_c, 0, 69, 100
2, 147280, Note_off_c, 0, 69, 100
2, 147288, Note_on_c, 0, 71, 100
2, 147304, Note_off_c, 0, 71, 100
2, 147312, Note_on_c, 0, 69, 100
2, 147328, Note_off_c, 0, 69, 100
2, 147336, Note_on_c, 0, 71, 100
2, 147352, Note_off_c, 0, 71, 100
2, 147360, Note_on_c, 0, 69, 100
2, 147376, Note_off_c, 0, 69, 100
2, 147384, Note_on_c, 0, 71, 100
2, 147400, Note_off_c, 0, 71, 100
2, 147408, Note_on_c, 0, 69, 100
2, 147424, Note_off_c, 0, 69, 100
2, 147432, Note_on_c, 0, 71, 100
2, 147448, Note_off_c, 0, 71, 100
2, 147456, Note_on_c, 0, 67, 100
2, 147584, Note_off_c, 0, 67, 100
2, 147648, Note_on_c, 0, 79, 100
2, 147776, Note_off_c, 0, 79, 100
2, 147840, Note_on_c, 0, 79, 100
2, 147968, Note_off_c, 0, 79, 100
2, 148032, Note_on_c, 0, 79, 100
2, 148064, Note_off_c, 0, 79, 100
2, 148080, Note_on_c, 0, 81, 100
2, 148112, Note_off_c, 0, 81, 100
2, 148128, Note_on_c, 0, 79, 100
2, 148160, Note_off_c, 0, 79, 100
2, 148176, Note_on_c, 0, 78, 100
2, 148208, Note_off_c, 0, 78, 100
2, 148224, Note_on_c, 0, 78, 100
2, 148352, Note_off_c, 0, 78, 100
2, 148416, Note_on_c, 0, 72, 100
2, 148544, Note_off_c, 0, 72, 100
2, 148608, Note_on_c, 0, 72, 100
2, 148736, Note_off_c, 0, 72, 100
2, 148800, Note_on_c, 0, 72, 100
2, 148832, Note_off_c, 0, 72, 100
2, 148848, Note_on_c, 0, 74, 100
2, 148880, Note_off_c, 0, 74, 100
2, 148896, Note_on_c, 0, 72, 100
2, 148928, Note_off_c, 0, 72, 100
2, 148944, Note_on_c, 0, 71, 100
2, 148976, Note_off_c, 0, 71, 100
2, 148992, Note_on_c, 0, 71, 100
2, 149120, Note_off_c, 0, 71, 100
2, 149184, Note_on_c, 0, 65, 100
2, 149312, Note_off_c, 0, 65, 100
2, 149376, Note_on_c, 0, 65, 100
2, 149504, Note_off_c, 0, 65, 100
2, 149568, Note_on_c, 0, 65, 100
2, 149600, Note_off_c, 0, 65, 100
2, 149616, Note_on_c, 0, 67, 100
2, 149648, Note_off_c, 0, 67, 100
2, 149664, Note_on_c, 0, 65, 100
2, 149696, Note_off_c, 0, 65, 100
2, 149712, Note_on_c, 0, 64, 100
2, 149744, Note_off_c, 0, 64, 100
2, 149760, Note_on_c, 0, 64, 100
2, 149888, Note_off_c, 0, 64, 100
2, 149952, Note_on_c, 0, 75, 100
2, 150016, Note_off_c, 0, 75, 100
2, 150048, Note_on_c, 0, 76, 100
2, 150112, Note_off_c, 0, 76, 100
2, 150144, Note_on_c, 0, 74, 100
2, 150208, Note_off_c, 0, 74, 100
2, 150240, Note_on_c, 0, 72, 100
2, 150304, Note_off_c, 0, 72, 100
2, 150336, Note_on_c, 0, 71, 100
2, 150400, Note_off_c, 0, 71, 100
2, 150432, Note_on_c, 0, 69, 100
2, 150496, Note_off_c, 0, 69, 100
2, 150528, Note_on_c, 0, 67, 100
2, 150784, Note_off_c, 0, 67, 100
2, 150912, Note_on_c, 0, 69, 100
2, 150928, Note_off_c, 0, 69, 100
2, 150936, Note_on_c, 0, 71, 100
2, 150952, Note_off_c, 0, 71, 100
2, 150960, Note_on_c, 0, 69, 100
2, 150976, Note_off_c, 0, 69, 100
2, 150984, Note_on_c, 0, 71, 100
2, 151000, Note_off_c, 0, 71, 100
2, 151008, Note_on_c, 0, 69, 100
2, 151024, Note_off_c, 0, 69, 100
2, 151032, Note_on_c, 0, 71, 100
2, 151048, Note_off_c, 0, 71, 100
2, 151056, Note_on_c, 0, 69, 100
2, 151072, Note_off_c, 0, 69, 100
2, 151080, Note_on_c, 0, 71, 100
2, 151096, Note_off_c, 0, 71, 100
2, 151104, Note_on_c, 0, 69, 100
2, 151120, Note_off_c, 0, 69, 100
2, 151128, Note_on_c, 0, 71, 100
2, 151144, Note_off_c, 0, 71, 100
2, 151152, Note_on_c, 0, 69, 100
2, 151168, Note_off_c, 0, 69, 100
2, 151176, Note_on_c, 0, 71, 100
2, 151192, Note_off_c, 0, 71, 100
2, 151200, Note_on_c, 0, 69, 100
2, 151216, Note_off_c, 0, 69, 100
2, 151224, Note_on_c, 0, 71, 100
2, 151240, Note_off_c, 0, 71, 100
2, 151248, Note_on_c, 0, 69, 100
2, 151264, Note_off_c, 0, 69, 100
2, 151272, Note_on_c, 0, 71, 100
2, 151288, Note_off_c, 0, 71, 100
2, 151296, Note_on_c, 0, 71, 100
2, 151360, Note_off_c, 0, 71, 100
2, 151392, Note_on_c, 0, 67, 100
2, 151456, Note_off_c, 0, 67, 100
2, 151488, Note_on_c, 0, 79, 100
2, 151552, Note_off_c, 0, 79, 100
2, 151584, Note_on_c, 0, 74, 100
2, 151648, Note_off_c, 0, 74, 100
2, 151680, Note_on_c, 0, 76, 100
2, 151744, Note_off_c, 0, 76, 100
2, 151776, Note_on_c, 0, 71, 100
2, 151840, Note_off_c, 0, 71, 100
2, 151872, Note_on_c, 0, 72, 100
2, 151936, Note_off_c, 0, 72, 100
2, 151968, Note_on_c, 0, 69, 100
2, 152032, Note_off_c, 0, 69, 100
2, 152064, Note_on_c, 0, 67, 100
2, 152320, Note_off_c, 0, 67, 100
2, 152448, Note_on_c, 0, 69, 100
2, 152464, Note_off_c, 0, 69, 100
2, 152472, Note_on_c, 0, 71, 100
2, 152488, Note_off_c, 0, 71, 100
2, 152496, Note_on_c, 0, 69, 100
2, 152512, Note_off_c, 0, 69, 100
2, 152520, Note_on_c, 0, 71, 100
2, 152536, Note_off_c, 0, 71, 100
2, 152544, Note_on_c, 0, 69, 100
2, 152560, Note_off_c, 0, 69, 100
2, 152568, Note_on_c, 0, 71, 100
2, 152584, Note_off_c, 0, 71, 100
2, 152592, Note_on_c, 0, 69, 100
2, 152608, Note_off_c, 0, 69, 100
2, 152616, Note_on_c, 0, 71, 100
2, 152632, Note_off_c, 0, 71, 100
2, 152640, Note_on_c, 0, 69, 100
2, 152656, Note_off_c, 0, 69, 100
2, 152664, Note_on_c, 0, 71, 100
2, 152680, Note_off_c, 0, 71, 100
2, 152688, Note_on_c, 0, 69, 100
2, 152704, Note_off_c, 0, 69, 100
2, 152712, Note_on_c, 0, 71, 100
2, 152728, Note_off_c, 0, 71, 100
2, 152736, Note_on_c, 0, 69, 100
2, 152752, Note_off_c, 0, 69, 100
2, 152760, Note_on_c, 0, 71, 100
2, 152776, Note_off_c, 0, 71, 100
2, 152784, Note_on_c, 0, 69, 100
2, 152800, Note_off_c, 0, 69, 100
2, 152808, Note_on_c, 0, 71, 100
2, 152824, Note_off_c, 0, 71, 100
2, 152832, Note_on_c, 0, 67, 100
2, 152960, Note_off_c, 0, 67, 100
2, 153216, Note_on_c, 0, 72, 100
2, 153216, Note_on_c, 0, 66, 100
2, 153344, Note_off_c, 0, 72, 100
2, 153344, Note_off_c, 0, 66, 100
2, 153600, Note_on_c, 0, 71, 100
2, 153600, Note_on_c, 0, 67, 100
2, 153728, Note_off_c, 0, 71, 100
2, 153728, Note_off_c, 0, 67, 100
2, 153984, Note_on_c, 0, 66, 100
2, 153984, Note_on_c, 0, 60, 100
2, 154112, Note_off_c, 0, 66, 100
2, 154112, Note_off_c, 0, 60, 100
2, 154368, Note_on_c, 0, 67, 100
2, 154368, Note_on_c, 0, 62, 100
2, 154368, Note_on_c, 0, 59, 100
2, 154880, Note_off_c, 0, 67, 100
2, 154880, Note_off_c, 0, 62, 100
2, 154880, Note_off_c, 0, 59, 100
2, 154880, End_track
3, 0, Start_track
3, 0, Control_c, 1, 7, 100
3, 0, Key_signature, 1, "major"
3, 768, Note_on_c, 1, 59, 100
3, 768, Note_on_c, 1, 55, 100
3, 1024, Note_off_c, 1, 59, 100
3, 1024, Note_off_c, 1, 55, 100
3, 1728, Note_on_c, 1, 71, 100
3, 1728, Note_on_c, 1, 67, 100
3, 1856, Note_off_c, 1, 71, 100
3, 1856, Note_off_c, 1, 67, 100
3, 1920, Note_on_c, 1, 69, 100
3, 1920, Note_on_c, 1, 66, 100
3, 2048, Note_off_c, 1, 69, 100
3, 2048, Note_off_c, 1, 66, 100
3, 2112, Note_on_c, 1, 72, 100
3, 2112, Note_on_c, 1, 69, 100
3, 2240, Note_off_c, 1, 72, 100
3, 2240, Note_off_c, 1, 69, 100
3, 2304, Note_on_c, 1, 71, 100
3, 2304, Note_on_c, 1, 67, 100
3, 2560, Note_off_c, 1, 71, 100
3, 2560, Note_off_c, 1, 67, 100
3, 3264, Note_on_c, 1, 71, 100
3, 3264, Note_on_c, 1, 67, 100
3, 3392, Note_off_c, 1, 71, 100
3, 3392, Note_off_c, 1, 67, 100
3, 3456, Note_on_c, 1, 69, 100
3, 3456, Note_on_c, 1, 66, 100
3, 3584, Note_off_c, 1, 69, 100
3, 3584, Note_off_c, 1, 66, 100
3, 3648, Note_on_c, 1, 72, 100
3, 3648, Note_on_c, 1, 69, 100
3, 3776, Note_off_c, 1, 72, 100
3, 3776, Note_off_c, 1, 69, 100
3, 3840, Note_on_c, 1, 71, 100
3, 3840, Note_on_c, 1, 67, 100
3, 4096, Note_off_c, 1, 71, 100
3, 4096, Note_off_c, 1, 67, 100
3, 4416, Note_on_c, 1, 72, 100
3, 4416, Note_on_c, 1, 67, 100
3, 4544, Note_off_c, 1, 72, 100
3, 4544, Note_off_c, 1, 67, 100
3, 4608, Note_on_c, 1, 71, 100
3, 4608, Note_on_c, 1, 67, 100
3, 4864, Note_off_c, 1, 71, 100
3, 4864, Note_off_c, 1, 67, 100
3, 5568, Note_on_c, 1, 71, 100
3, 5696, Note_off_c, 1, 71, 100
3, 5760, Note_on_c, 1, 69, 100
3, 5888, Note_off_c, 1, 69, 100
3, 5952, Note_on_c, 1, 62, 100
3, 6080, Note_off_c, 1, 62, 100
3, 6144, Note_on_c, 1, 67, 100
3, 6272, Note_off_c, 1, 67, 100
3, 6336, Note_on_c, 1, 62, 100
3, 6464, Note_off_c, 1, 62, 100
3, 6528, Note_on_c, 1, 55, 100
3, 6656, Note_off_c, 1, 55, 100
3, 6720, Note_on_c, 1, 55, 100
3, 6720, Note_on_c, 1, 43, 100
3, 6848, Note_off_c, 1, 55, 100
3, 6848, Note_off_c, 1, 43, 100
3, 6912, Note_on_c, 1, 42, 100
3, 6912, Note_on_c, 1, 54, 100
3, 7040, Note_off_c, 1, 42, 100
3, 7040, Note_off_c, 1, 54, 100
3, 7104, Note_on_c, 1, 40, 100
3, 7104, Note_on_c, 1, 52, 100
3, 7232, Note_off_c, 1, 40, 100
3, 7232, Note_off_c, 1, 52, 100
3, 7296, Note_on_c, 1, 38, 100
3, 7296, Note_on_c, 1, 50, 100
3, 7424, Note_off_c, 1, 38, 100
3, 7424, Note_off_c, 1, 50, 100
3, 7488, Note_on_c, 1, 36, 100
3, 7488, Note_on_c, 1, 48, 100
3, 7616, Note_off_c, 1, 36, 100
3, 7616, Note_off_c, 1, 48, 100
3, 7680, Note_on_c, 1, 35, 100
3, 7680, Note_on_c, 1, 47, 100
3, 7936, Note_off_c, 1, 35, 100
3, 7936, Note_off_c, 1, 47, 100
3, 8256, Note_on_c, 1, 52, 100
3, 8296, Note_off_c, 1, 52, 100
3, 8320, Note_on_c, 1, 54, 100
3, 8360, Note_off_c, 1, 54, 100
3, 8384, Note_on_c, 1, 52, 100
3, 8424, Note_off_c, 1, 52, 100
3, 8448, Note_on_c, 1, 50, 100
3, 8576, Note_off_c, 1, 50, 100
3, 8640, Note_on_c, 1, 48, 100
3, 8680, Note_off_c, 1, 48, 100
3, 8704, Note_on_c, 1, 50, 100
3, 8744, Note_off_c, 1, 50, 100
3, 8768, Note_on_c, 1, 48, 100
3, 8808, Note_off_c, 1, 48, 100
3, 8832, Note_on_c, 1, 47, 100
3, 8960, Note_off_c, 1, 47, 100
3, 9024, Note_on_c, 1, 45, 100
3, 9064, Note_off_c, 1, 45, 100
3, 9088, Note_on_c, 1, 47, 100
3, 9128, Note_off_c, 1, 47, 100
3, 9152, Note_on_c, 1, 45, 100
3, 9192, Note_off_c, 1, 45, 100
3, 9216, Note_on_c, 1, 43, 100
3, 9472, Note_off_c, 1, 43, 100
3, 9984, Note_on_c, 1, 59, 100
3, 9984, Note_on_c, 1, 55, 100
3, 10240, Note_off_c, 1, 59, 100
3, 10240, Note_off_c, 1, 55, 100
3, 10944, Note_on_c, 1, 71, 100
3, 10944, Note_on_c, 1, 67, 100
3, 11072, Note_off_c, 1, 71, 100
3, 11072, Note_off_c, 1, 67, 100
3, 11136, Note_on_c, 1, 69, 100
3, 11136, Note_on_c, 1, 66, 100
3, 11264, Note_off_c, 1, 69, 100
3, 11264, Note_off_c, 1, 66, 100
3, 11328, Note_on_c, 1, 72, 100
3, 11328, Note_on_c, 1, 69, 100
3, 11456, Note_off_c, 1, 72, 100
3, 11456, Note_off_c, 1, 69, 100
3, 11520, Note_on_c, 1, 71, 100
3, 11520, Note_on_c, 1, 67, 100
3, 11776, Note_off_c, 1, 71, 100
3, 11776, Note_off_c, 1, 67, 100
3, 12480, Note_on_c, 1, 71, 100
3, 12480, Note_on_c, 1, 67, 100
3, 12608, Note_off_c, 1, 71, 100
3, 12608, Note_off_c, 1, 67, 100
3, 12672, Note_on_c, 1, 69, 100
3, 12672, Note_on_c, 1, 66, 100
3, 12800, Note_off_c, 1, 69, 100
3, 12800, Note_off_c, 1, 66, 100
3, 12864, Note_on_c, 1, 72, 100
3, 12864, Note_on_c, 1, 69, 100
3, 12992, Note_off_c, 1, 72, 100
3, 12992, Note_off_c, 1, 69, 100
3, 13056, Note_on_c, 1, 71, 100
3, 13056, Note_on_c, 1, 67, 100
3, 13312, Note_off_c, 1, 71, 100
3, 13312, Note_off_c, 1, 67, 100
3, 14016, Note_on_c, 1, 72, 100
3, 14016, Note_on_c, 1, 67, 100
3, 14144, Note_off_c, 1, 72, 100
3, 14144, Note_off_c, 1, 67, 100
3, 14208, Note_on_c, 1, 72, 100
3, 14208, Note_on_c, 1, 67, 100
3, 14336, Note_off_c, 1, 72, 100
3, 14336, Note_off_c, 1, 67, 100
3, 14400, Note_on_c, 1, 72, 100
3, 14400, Note_on_c, 1, 67, 100
3, 14528, Note_off_c, 1, 72, 100
3, 14528, Note_off_c, 1, 67, 100
3, 14592, Note_on_c, 1, 72, 100
3, 14592, Note_on_c, 1, 67, 100
3, 14848, Note_off_c, 1, 72, 100
3, 14848, Note_off_c, 1, 67, 100
3, 15552, Note_on_c, 1, 71, 100
3, 15552, Note_on_c, 1, 67, 100
3, 15680, Note_off_c, 1, 71, 100
3, 15680, Note_off_c, 1, 67, 100
3, 15744, Note_on_c, 1, 71, 100
3, 15744, Note_on_c, 1, 67, 100
3, 15872, Note_off_c, 1, 71, 100
3, 15872, Note_off_c, 1, 67, 100
3, 15936, Note_on_c, 1, 71, 100
3, 15936, Note_on_c, 1, 67, 100
3, 16064, Note_off_c, 1, 71, 100
3, 16064, Note_off_c, 1, 67, 100
3, 16128, Note_on_c, 1, 71, 100
3, 16128, Note_on_c, 1, 67, 100
3, 16384, Note_off_c, 1, 71, 100
3, 16384, Note_off_c, 1, 67, 100
3, 17088, Note_on_c, 1, 69, 100
3, 17216, Note_off_c, 1, 69, 100
3, 17280, Note_on_c, 1, 66, 100
3, 17408, Note_off_c, 1, 66, 100
3, 17472, Note_on_c, 1, 67, 100
3, 17600, Note_off_c, 1, 67, 100
3, 17664, Note_on_c, 1, 60, 100
3, 17920, Note_off_c, 1, 60, 100
3, 18240, Note_on_c, 1, 61, 100
3, 18368, Note_off_c, 1, 61, 100
3, 18432, Note_on_c, 1, 62, 100
3, 18560, Note_off_c, 1, 62, 100
3, 18624, Note_on_c, 1, 57, 100
3, 18752, Note_off_c, 1, 57, 100
3, 18816, Note_on_c, 1, 50, 100
3, 18944, Note_off_c, 1, 50, 100
3, 19200, Note_on_c, 1, 50, 100
3, 19264, Note_off_c, 1, 50, 100
3, 19296, Note_on_c, 1, 57, 100
3, 19360, Note_off_c, 1, 57, 100
3, 19392, Note_on_c, 1, 54, 100
3, 19456, Note_off_c, 1, 54, 100
3, 19488, Note_on_c, 1, 57, 100
3, 19552, Note_off_c, 1, 57, 100
3, 19584, Note_on_c, 1, 50, 100
3, 19648, Note_off_c, 1, 50, 100
3, 19680, Note_on_c, 1, 57, 100
3, 19744, Note_off_c, 1, 57, 100
3, 19776, Note_on_c, 1, 54, 100
3, 19840, Note_off_c, 1, 54, 100
3, 19872, Note_on_c, 1, 57, 100
3, 19936, Note_off_c, 1, 57, 100
3, 19968, Note_on_c, 1, 52, 100
3, 20032, Note_off_c, 1, 52, 100
3, 20064, Note_on_c, 1, 57, 100
3, 20128, Note_off_c, 1, 57, 100
3, 20160, Note_on_c, 1, 55, 100
3, 20224, Note_off_c, 1, 55, 100
3, 20256, Note_on_c, 1, 57, 100
3, 20320, Note_off_c, 1, 57, 100
3, 20352, Note_on_c, 1, 52, 100
3, 20416, Note_off_c, 1, 52, 100
3, 20448, Note_on_c, 1, 57, 100
3, 20512, Note_off_c, 1, 57, 100
3, 20544, Note_on_c, 1, 55, 100
3, 20608, Note_off_c, 1, 55, 100
3, 20640, Note_on_c, 1, 57, 100
3, 20704, Note_off_c, 1, 57, 100
3, 20736, Note_on_c, 1, 49, 100
3, 20800, Note_off_c, 1, 49, 100
3, 20832, Note_on_c, 1, 57, 100
3, 20896, Note_off_c, 1, 57, 100
3, 20928, Note_on_c, 1, 52, 100
3, 20992, Note_off_c, 1, 52, 100
3, 21024, Note_on_c, 1, 57, 100
3, 21088, Note_off_c, 1, 57, 100
3, 21120, Note_on_c, 1, 49, 100
3, 21184, Note_off_c, 1, 49, 100
3, 21216, Note_on_c, 1, 57, 100
3, 21280, Note_off_c, 1, 57, 100
3, 21312, Note_on_c, 1, 52, 100
3, 21376, Note_off_c, 1, 52, 100
3, 21408, Note_on_c, 1, 57, 100
3, 21472, Note_off_c, 1, 57, 100
3, 21504, Note_on_c, 1, 50, 100
3, 21568, Note_off_c, 1, 50, 100
3, 21600, Note_on_c, 1, 57, 100
3, 21664, Note_off_c, 1, 57, 100
3, 21696, Note_on_c, 1, 54, 100
3, 21760, Note_off_c, 1, 54, 100
3, 21792, Note_on_c, 1, 57, 100
3, 21856, Note_off_c, 1, 57, 100
3, 21888, Note_on_c, 1, 50, 100
3, 21952, Note_off_c, 1, 50, 100
3, 21984, Note_on_c, 1, 57, 100
3, 22048, Note_off_c, 1, 57, 100
3, 22080, Note_on_c, 1, 54, 100
3, 22144, Note_off_c, 1, 54, 100
3, 22176, Note_on_c, 1, 57, 100
3, 22240, Note_off_c, 1, 57, 100
3, 22272, Note_on_c, 1, 54, 100
3, 22528, Note_off_c, 1, 54, 100
3, 23040, Note_on_c, 1, 55, 100
3, 23104, Note_off_c, 1, 55, 100
3, 23136, Note_on_c, 1, 67, 100
3, 23200, Note_off_c, 1, 67, 100
3, 23232, Note_on_c, 1, 54, 100
3, 23296, Note_off_c, 1, 54, 100
3, 23328, Note_on_c, 1, 66, 100
3, 23392, Note_off_c, 1, 66, 100
3, 23424, Note_on_c, 1, 52, 100
3, 23488, Note_off_c, 1, 52, 100
3, 23520, Note_on_c, 1, 64, 100
3, 23584, Note_off_c, 1, 64, 100
3, 23616, Note_on_c, 1, 51, 100
3, 23680, Note_off_c, 1, 51, 100
3, 23712, Note_on_c, 1, 63, 100
3, 23776, Note_off_c, 1, 63, 100
3, 23808, Note_on_c, 1, 52, 100
3, 24064, Note_off_c, 1, 52, 100
3, 24576, Note_on_c, 1, 54, 100
3, 24640, Note_off_c, 1, 54, 100
3, 24672, Note_on_c, 1, 66, 100
3, 24736, Note_off_c, 1, 66, 100
3, 24768, Note_on_c, 1, 52, 100
3, 24832, Note_off_c, 1, 52, 100
3, 24864, Note_on_c, 1, 64, 100
3, 24928, Note_off_c, 1, 64, 100
3, 24960, Note_on_c, 1, 50, 100
3, 25024, Note_off_c, 1, 50, 100
3, 25056, Note_on_c, 1, 62, 100
3, 25120, Note_off_c, 1, 62, 100
3, 25152, Note_on_c, 1, 48, 100
3, 25216, Note_off_c, 1, 48, 100
3, 25248, Note_on_c, 1, 60, 100
3, 25312, Note_off_c, 1, 60, 100
3, 25344, Note_on_c, 1, 50, 100
3, 25600, Note_off_c, 1, 50, 100
3, 26112, Note_on_c, 1, 52, 100
3, 26176, Note_off_c, 1, 52, 100
3, 26208, Note_on_c, 1, 64, 100
3, 26272, Note_off_c, 1, 64, 100
3, 26304, Note_on_c, 1, 50, 100
3, 26368, Note_off_c, 1, 50, 100
3, 26400, Note_on_c, 1, 62, 100
3, 26464, Note_off_c, 1, 62, 100
3, 26496, Note_on_c, 1, 49, 100
3, 26560, Note_off_c, 1, 49, 100
3, 26592, Note_on_c, 1, 61, 100
3, 26656, Note_off_c, 1, 61, 100
3, 26688, Note_on_c, 1, 47, 100
3, 26752, Note_off_c, 1, 47, 100
3, 26784, Note_on_c, 1, 59, 100
3, 26848, Note_off_c, 1, 59, 100
3, 26880, Note_on_c, 1, 45, 100
3, 27136, Note_off_c, 1, 45, 100
3, 27456, Note_on_c, 1, 49, 100
3, 27584, Note_off_c, 1, 49, 100
3, 27648, Note_on_c, 1, 50, 100
3, 27712, Note_off_c, 1, 50, 100
3, 27744, Note_on_c, 1, 57, 100
3, 27808, Note_off_c, 1, 57, 100
3, 27840, Note_on_c, 1, 54, 100
3, 27904, Note_off_c, 1, 54, 100
3, 27936, Note_on_c, 1, 57, 100
3, 28000, Note_off_c, 1, 57, 100
3, 28032, Note_on_c, 1, 50, 100
3, 28096, Note_off_c, 1, 50, 100
3, 28128, Note_on_c, 1, 57, 100
3, 28192, Note_off_c, 1, 57, 100
3, 28224, Note_on_c, 1, 55, 100
3, 28288, Note_off_c, 1, 55, 100
3, 28320, Note_on_c, 1, 57, 100
3, 28384, Note_off_c, 1, 57, 100
3, 28416, Note_on_c, 1, 50, 100
3, 28480, Note_off_c, 1, 50, 100
3, 28512, Note_on_c, 1, 57, 100
3, 28576, Note_off_c, 1, 57, 100
3, 28608, Note_on_c, 1, 54, 100
3, 28672, Note_off_c, 1, 54, 100
3, 28704, Note_on_c, 1, 57, 100
3, 28768, Note_off_c, 1, 57, 100
3, 28800, Note_on_c, 1, 50, 100
3, 28864, Note_off_c, 1, 50, 100
3, 28896, Note_on_c, 1, 57, 100
3, 28960, Note_off_c, 1, 57, 100
3, 28992, Note_on_c, 1, 55, 100
3, 29056, Note_off_c, 1, 55, 100
3, 29088, Note_on_c, 1, 57, 100
3, 29152, Note_off_c, 1, 57, 100
3, 29184, Note_on_c, 1, 50, 100
3, 29248, Note_off_c, 1, 50, 100
3, 29280, Note_on_c, 1, 57, 100
3, 29344, Note_off_c, 1, 57, 100
3, 29376, Note_on_c, 1, 54, 100
3, 29440, Note_off_c, 1, 54, 100
3, 29472, Note_on_c, 1, 57, 100
3, 29536, Note_off_c, 1, 57, 100
3, 29568, Note_on_c, 1, 50, 100
3, 29632, Note_off_c, 1, 50, 100
3, 29664, Note_on_c, 1, 57, 100
3, 29728, Note_off_c, 1, 57, 100
3, 29760, Note_on_c, 1, 55, 100
3, 29824, Note_off_c, 1, 55, 100
3, 29856, Note_on_c, 1, 57, 100
3, 29920, Note_off_c, 1, 57, 100
3, 29952, Note_on_c, 1, 50, 100
3, 30016, Note_off_c, 1, 50, 100
3, 30048, Note_on_c, 1, 57, 100
3, 30112, Note_off_c, 1, 57, 100
3, 30144, Note_on_c, 1, 54, 100
3, 30208, Note_off_c, 1, 54, 100
3, 30240, Note_on_c, 1, 57, 100
3, 30304, Note_off_c, 1, 57, 100
3, 30336, Note_on_c, 1, 50, 100
3, 30400, Note_off_c, 1, 50, 100
3, 30432, Note_on_c, 1, 57, 100
3, 30496, Note_off_c, 1, 57, 100
3, 30528, Note_on_c, 1, 55, 100
3, 30592, Note_off_c, 1, 55, 100
3, 30624, Note_on_c, 1, 57, 100
3, 30688, Note_off_c, 1, 57, 100
3, 30720, Note_on_c, 1, 50, 100
3, 30784, Note_off_c, 1, 50, 100
3, 30816, Note_on_c, 1, 57, 100
3, 30880, Note_off_c, 1, 57, 100
3, 30912, Note_on_c, 1, 54, 100
3, 30976, Note_off_c, 1, 54, 100
3, 31008, Note_on_c, 1, 57, 100
3, 31072, Note_off_c, 1, 57, 100
3, 31104, Note_on_c, 1, 54, 100
3, 31168, Note_off_c, 1, 54, 100
3, 31200, Note_on_c, 1, 62, 100
3, 31264, Note_off_c, 1, 62, 100
3, 31296, Note_on_c, 1, 57, 100
3, 31360, Note_off_c, 1, 57, 100
3, 31392, Note_on_c, 1, 62, 100
3, 31456, Note_off_c, 1, 62, 100
3, 31488, Note_on_c, 1, 55, 100
3, 31552, Note_off_c, 1, 55, 100
3, 31584, Note_on_c, 1, 62, 100
3, 31648, Note_off_c, 1, 62, 100
3, 31680, Note_on_c, 1, 59, 100
3, 31744, Note_off_c, 1, 59, 100
3, 31776, Note_on_c, 1, 62, 100
3, 31840, Note_off_c, 1, 62, 100
3, 31872, Note_on_c, 1, 55, 100
3, 32000, Note_off_c, 1, 55, 100
3, 32832, Note_on_c, 1, 57, 100
3, 32960, Note_off_c, 1, 57, 100
3, 33024, Note_on_c, 1, 59, 100
3, 33088, Note_off_c, 1, 59, 100
3, 33120, Note_on_c, 1, 68, 100
3, 33184, Note_off_c, 1, 68, 100
3, 33216, Note_on_c, 1, 62, 100
3, 33280, Note_off_c, 1, 62, 100
3, 33312, Note_on_c, 1, 68, 100
3, 33376, Note_off_c, 1, 68, 100
3, 33408, Note_on_c, 1, 59, 100
3, 33472, Note_off_c, 1, 59, 100
3, 33504, Note_on_c, 1, 68, 100
3, 33568, Note_off_c, 1, 68, 100
3, 33600, Note_on_c, 1, 62, 100
3, 33664, Note_off_c, 1, 62, 100
3, 33696, Note_on_c, 1, 68, 100
3, 33760, Note_off_c, 1, 68, 100
3, 33792, Note_on_c, 1, 57, 100
3, 33856, Note_off_c, 1, 57, 100
3, 33888, Note_on_c, 1, 69, 100
3, 33952, Note_off_c, 1, 69, 100
3, 33984, Note_on_c, 1, 61, 100
3, 34048, Note_off_c, 1, 61, 100
3, 34080, Note_on_c, 1, 69, 100
3, 34144, Note_off_c, 1, 69, 100
3, 34176, Note_on_c, 1, 57, 100
3, 34240, Note_off_c, 1, 57, 100
3, 34272, Note_on_c, 1, 69, 100
3, 34336, Note_off_c, 1, 69, 100
3, 34368, Note_on_c, 1, 61, 100
3, 34432, Note_off_c, 1, 61, 100
3, 34464, Note_on_c, 1, 69, 100
3, 34528, Note_off_c, 1, 69, 100
3, 34560, Note_on_c, 1, 62, 100
3, 34624, Note_off_c, 1, 62, 100
3, 34656, Note_on_c, 1, 69, 100
3, 34720, Note_off_c, 1, 69, 100
3, 34752, Note_on_c, 1, 66, 100
3, 34816, Note_off_c, 1, 66, 100
3, 34848, Note_on_c, 1, 69, 100
3, 34912, Note_off_c, 1, 69, 100
3, 34944, Note_on_c, 1, 62, 100
3, 35008, Note_off_c, 1, 62, 100
3, 35040, Note_on_c, 1, 69, 100
3, 35104, Note_off_c, 1, 69, 100
3, 35136, Note_on_c, 1, 66, 100
3, 35200, Note_off_c, 1, 66, 100
3, 35232, Note_on_c, 1, 69, 100
3, 35296, Note_off_c, 1, 69, 100
3, 35328, Note_on_c, 1, 67, 100
3, 35584, Note_off_c, 1, 67, 100
3, 36288, Note_on_c, 1, 54, 100
3, 36416, Note_off_c, 1, 54, 100
3, 36480, Note_on_c, 1, 55, 100
3, 36608, Note_off_c, 1, 55, 100
3, 36672, Note_on_c, 1, 57, 100
3, 36800, Note_off_c, 1, 57, 100
3, 36864, Note_on_c, 1, 59, 100
3, 36928, Note_off_c, 1, 59, 100
3, 36960, Note_on_c, 1, 68, 100
3, 37024, Note_off_c, 1, 68, 100
3, 37056, Note_on_c, 1, 62, 100
3, 37120, Note_off_c, 1, 62, 100
3, 37152, Note_on_c, 1, 68, 100
3, 37216, Note_off_c, 1, 68, 100
3, 37248, Note_on_c, 1, 59, 100
3, 37312, Note_off_c, 1, 59, 100
3, 37344, Note_on_c, 1, 68, 100
3, 37408, Note_off_c, 1, 68, 100
3, 37440, Note_on_c, 1, 62, 100
3, 37504, Note_off_c, 1, 62, 100
3, 37536, Note_on_c, 1, 68, 100
3, 37600, Note_off_c, 1, 68, 100
3, 37632, Note_on_c, 1, 57, 100
3, 37696, Note_off_c, 1, 57, 100
3, 37728, Note_on_c, 1, 69, 100
3, 37792, Note_off_c, 1, 69, 100
3, 37824, Note_on_c, 1, 61, 100
3, 37888, Note_off_c, 1, 61, 100
3, 37920, Note_on_c, 1, 69, 100
3, 37984, Note_off_c, 1, 69, 100
3, 38016, Note_on_c, 1, 57, 100
3, 38080, Note_off_c, 1, 57, 100
3, 38112, Note_on_c, 1, 69, 100
3, 38176, Note_off_c, 1, 69, 100
3, 38208, Note_on_c, 1, 61, 100
3, 38272, Note_off_c, 1, 61, 100
3, 38304, Note_on_c, 1, 69, 100
3, 38368, Note_off_c, 1, 69, 100
3, 38400, Note_on_c, 1, 62, 100
3, 38464, Note_off_c, 1, 62, 100
3, 38496, Note_on_c, 1, 69, 100
3, 38560, Note_off_c, 1, 69, 100
3, 38592, Note_on_c, 1, 66, 100
3, 38656, Note_off_c, 1, 66, 100
3, 38688, Note_on_c, 1, 69, 100
3, 38752, Note_off_c, 1, 69, 100
3, 38784, Note_on_c, 1, 62, 100
3, 38848, Note_off_c, 1, 62, 100
3, 38880, Note_on_c, 1, 69, 100
3, 38944, Note_off_c, 1, 69, 100
3, 38976, Note_on_c, 1, 66, 100
3, 39040, Note_off_c, 1, 66, 100
3, 39072, Note_on_c, 1, 69, 100
3, 39136, Note_off_c, 1, 69, 100
3, 39168, Note_on_c, 1, 67, 100
3, 39424, Note_off_c, 1, 67, 100
3, 40128, Note_on_c, 1, 54, 100
3, 40256, Note_off_c, 1, 54, 100
3, 40320, Note_on_c, 1, 55, 100
3, 40448, Note_off_c, 1, 55, 100
3, 40512, Note_on_c, 1, 57, 100
3, 40640, Note_off_c, 1, 57, 100
3, 40704, Note_on_c, 1, 50, 100
3, 40832, Note_off_c, 1, 50, 100
3, 40896, Note_on_c, 1, 54, 100
3, 41024, Note_off_c, 1, 54, 100
3, 41088, Note_on_c, 1, 55, 100
3, 41344, Note_off_c, 1, 55, 100
3, 41664, Note_on_c, 1, 54, 100
3, 41792, Note_off_c, 1, 54, 100
3, 41856, Note_on_c, 1, 55, 100
3, 41984, Note_off_c, 1, 55, 100
3, 42048, Note_on_c, 1, 57, 100
3, 42176, Note_off_c, 1, 57, 100
3, 42240, Note_on_c, 1, 50, 100
3, 42304, Note_off_c, 1, 50, 100
3, 42336, Note_on_c, 1, 62, 100
3, 42400, Note_off_c, 1, 62, 100
3, 42432, Note_on_c, 1, 50, 100
3, 42496, Note_off_c, 1, 50, 100
3, 42528, Note_on_c, 1, 62, 100
3, 42592, Note_off_c, 1, 62, 100
3, 42624, Note_on_c, 1, 50, 100
3, 42688, Note_off_c, 1, 50, 100
3, 42720, Note_on_c, 1, 62, 100
3, 42784, Note_off_c, 1, 62, 100
3, 42816, Note_on_c, 1, 50, 100
3, 42880, Note_off_c, 1, 50, 100
3, 42912, Note_on_c, 1, 62, 100
3, 42976, Note_off_c, 1, 62, 100
3, 43008, Note_on_c, 1, 50, 100
3, 43072, Note_off_c, 1, 50, 100
3, 43104, Note_on_c, 1, 62, 100
3, 43168, Note_off_c, 1, 62, 100
3, 43200, Note_on_c, 1, 50, 100
3, 43264, Note_off_c, 1, 50, 100
3, 43296, Note_on_c, 1, 62, 100
3, 43360, Note_off_c, 1, 62, 100
3, 43392, Note_on_c, 1, 50, 100
3, 43456, Note_off_c, 1, 50, 100
3, 43488, Note_on_c, 1, 62, 100
3, 43552, Note_off_c, 1, 62, 100
3, 43584, Note_on_c, 1, 50, 100
3, 43648, Note_off_c, 1, 50, 100
3, 43680, Note_on_c, 1, 62, 100
3, 43744, Note_off_c, 1, 62, 100
3, 43776, Note_on_c, 1, 50, 100
3, 44032, Note_off_c, 1, 50, 100
3, 44544, Note_on_c, 1, 59, 100
3, 44544, Note_on_c, 1, 55, 100
3, 44800, Note_off_c, 1, 59, 100
3, 44800, Note_off_c, 1, 55, 100
3, 45504, Note_on_c, 1, 71, 100
3, 45504, Note_on_c, 1, 67, 100
3, 45632, Note_off_c, 1, 71, 100
3, 45632, Note_off_c, 1, 67, 100
3, 45696, Note_on_c, 1, 69, 100
3, 45696, Note_on_c, 1, 66, 100
3, 45824, Note_off_c, 1, 69, 100
3, 45824, Note_off_c, 1, 66, 100
3, 45888, Note_on_c, 1, 72, 100
3, 45888, Note_on_c, 1, 69, 100
3, 46016, Note_off_c, 1, 72, 100
3, 46016, Note_off_c, 1, 69, 100
3, 46080, Note_on_c, 1, 71, 100
3, 46080, Note_on_c, 1, 67, 100
3, 46336, Note_off_c, 1, 71, 100
3, 46336, Note_off_c, 1, 67, 100
3, 47040, Note_on_c, 1, 71, 100
3, 47040, Note_on_c, 1, 67, 100
3, 47168, Note_off_c, 1, 71, 100
3, 47168, Note_off_c, 1, 67, 100
3, 47232, Note_on_c, 1, 69, 100
3, 47232, Note_on_c, 1, 66, 100
3, 47360, Note_off_c, 1, 69, 100
3, 47360, Note_off_c, 1, 66, 100
3, 47424, Note_on_c, 1, 72, 100
3, 47424, Note_on_c, 1, 69, 100
3, 47552, Note_off_c, 1, 72, 100
3, 47552, Note_off_c, 1, 69, 100
3, 47616, Note_on_c, 1, 71, 100
3, 47616, Note_on_c, 1, 67, 100
3, 47872, Note_off_c, 1, 71, 100
3, 47872, Note_off_c, 1, 67, 100
3, 48192, Note_on_c, 1, 72, 100
3, 48192, Note_on_c, 1, 67, 100
3, 48320, Note_off_c, 1, 72, 100
3, 48320, Note_off_c, 1, 67, 100
3, 48384, Note_on_c, 1, 71, 100
3, 48384, Note_on_c, 1, 67, 100
3, 48640, Note_off_c, 1, 71, 100
3, 48640, Note_off_c, 1, 67, 100
3, 49344, Note_on_c, 1, 71, 100
3, 49472, Note_off_c, 1, 71, 100
3, 49536, Note_on_c, 1, 69, 100
3, 49664, Note_off_c, 1, 69, 100
3, 49728, Note_on_c, 1, 62, 100
3, 49856, Note_off_c, 1, 62, 100
3, 49920, Note_on_c, 1, 67, 100
3, 50048, Note_off_c, 1, 67, 100
3, 50112, Note_on_c, 1, 62, 100
3, 50240, Note_off_c, 1, 62, 100
3, 50304, Note_on_c, 1, 55, 100
3, 50432, Note_off_c, 1, 55, 100
3, 50496, Note_on_c, 1, 55, 100
3, 50496, Note_on_c, 1, 43, 100
3, 50624, Note_off_c, 1, 55, 100
3, 50624, Note_off_c, 1, 43, 100
3, 50688, Note_on_c, 1, 42, 100
3, 50688, Note_on_c, 1, 54, 100
3, 50816, Note_off_c, 1, 42, 100
3, 50816, Note_off_c, 1, 54, 100
3, 50880, Note_on_c, 1, 40, 100
3, 50880, Note_on_c, 1, 52, 100
3, 51008, Note_off_c, 1, 40, 100
3, 51008, Note_off_c, 1, 52, 100
3, 51072, Note_on_c, 1, 38, 100
3, 51072, Note_on_c, 1, 50, 100
3, 51200, Note_off_c, 1, 38, 100
3, 51200, Note_off_c, 1, 50, 100
3, 51264, Note_on_c, 1, 36, 100
3, 51264, Note_on_c, 1, 48, 100
3, 51392, Note_off_c, 1, 36, 100
3, 51392, Note_off_c, 1, 48, 100
3, 51456, Note_on_c, 1, 35, 100
3, 51456, Note_on_c, 1, 47, 100
3, 51712, Note_off_c, 1, 35, 100
3, 51712, Note_off_c, 1, 47, 100
3, 52032, Note_on_c, 1, 52, 100
3, 52072, Note_off_c, 1, 52, 100
3, 52096, Note_on_c, 1, 54, 100
3, 52136, Note_off_c, 1, 54, 100
3, 52160, Note_on_c, 1, 52, 100
3, 52200, Note_off_c, 1, 52, 100
3, 52224, Note_on_c, 1, 50, 100
3, 52352, Note_off_c, 1, 50, 100
3, 52416, Note_on_c, 1, 48, 100
3, 52456, Note_off_c, 1, 48, 100
3, 52480, Note_on_c, 1, 50, 100
3, 52520, Note_off_c, 1, 50, 100
3, 52544, Note_on_c, 1, 48, 100
3, 52584, Note_off_c, 1, 48, 100
3, 52608, Note_on_c, 1, 47, 100
3, 52736, Note_off_c, 1, 47, 100
3, 52800, Note_on_c, 1, 45, 100
3, 52840, Note_off_c, 1, 45, 100
3, 52864, Note_on_c, 1, 47, 100
3, 52904, Note_off_c, 1, 47, 100
3, 52928, Note_on_c, 1, 45, 100
3, 52968, Note_off_c, 1, 45, 100
3, 52992, Note_on_c, 1, 43, 100
3, 53248, Note_off_c, 1, 43, 100
3, 53760, Note_on_c, 1, 59, 100
3, 53760, Note_on_c, 1, 55, 100
3, 54016, Note_off_c, 1, 59, 100
3, 54016, Note_off_c, 1, 55, 100
3, 54720, Note_on_c, 1, 71, 100
3, 54720, Note_on_c, 1, 67, 100
3, 54848, Note_off_c, 1, 71, 100
3, 54848, Note_off_c, 1, 67, 100
3, 54912, Note_on_c, 1, 69, 100
3, 54912, Note_on_c, 1, 66, 100
3, 55040, Note_off_c, 1, 69, 100
3, 55040, Note_off_c, 1, 66, 100
3, 55104, Note_on_c, 1, 72, 100
3, 55104, Note_on_c, 1, 69, 100
3, 55232, Note_off_c, 1, 72, 100
3, 55232, Note_off_c, 1, 69, 100
3, 55296, Note_on_c, 1, 71, 100
3, 55296, Note_on_c, 1, 67, 100
3, 55552, Note_off_c, 1, 71, 100
3, 55552, Note_off_c, 1, 67, 100
3, 56256, Note_on_c, 1, 71, 100
3, 56256, Note_on_c, 1, 67, 100
3, 56384, Note_off_c, 1, 71, 100
3, 56384, Note_off_c, 1, 67, 100
3, 56448, Note_on_c, 1, 69, 100
3, 56448, Note_on_c, 1, 66, 100
3, 56576, Note_off_c, 1, 69, 100
3, 56576, Note_off_c, 1, 66, 100
3, 56640, Note_on_c, 1, 72, 100
3, 56640, Note_on_c, 1, 69, 100
3, 56768, Note_off_c, 1, 72, 100
3, 56768, Note_off_c, 1, 69, 100
3, 56832, Note_on_c, 1, 71, 100
3, 56832, Note_on_c, 1, 67, 100
3, 57088, Note_off_c, 1, 71, 100
3, 57088, Note_off_c, 1, 67, 100
3, 57792, Note_on_c, 1, 72, 100
3, 57792, Note_on_c, 1, 67, 100
3, 57920, Note_off_c, 1, 72, 100
3, 57920, Note_off_c, 1, 67, 100
3, 57984, Note_on_c, 1, 72, 100
3, 57984, Note_on_c, 1, 67, 100
3, 58112, Note_off_c, 1, 72, 100
3, 58112, Note_off_c, 1, 67, 100
3, 58176, Note_on_c, 1, 72, 100
3, 58176, Note_on_c, 1, 67, 100
3, 58304, Note_off_c, 1, 72, 100
3, 58304, Note_off_c, 1, 67, 100
3, 58368, Note_on_c, 1, 72, 100
3, 58368, Note_on_c, 1, 67, 100
3, 58624, Note_off_c, 1, 72, 100
3, 58624, Note_off_c, 1, 67, 100
3, 59328, Note_on_c, 1, 71, 100
3, 59328, Note_on_c, 1, 67, 100
3, 59456, Note_off_c, 1, 71, 100
3, 59456, Note_off_c, 1, 67, 100
3, 59520, Note_on_c, 1, 71, 100
3, 59520, Note_on_c, 1, 67, 100
3, 59648, Note_off_c, 1, 71, 100
3, 59648, Note_off_c, 1, 67, 100
3, 59712, Note_on_c, 1, 71, 100
3, 59712, Note_on_c, 1, 67, 100
3, 59840, Note_off_c, 1, 71, 100
3, 59840, Note_off_c, 1, 67, 100
3, 59904, Note_on_c, 1, 71, 100
3, 59904, Note_on_c, 1, 67, 100
3, 60160, Note_off_c, 1, 71, 100
3, 60160, Note_off_c, 1, 67, 100
3, 60864, Note_on_c, 1, 69, 100
3, 60992, Note_off_c, 1, 69, 100
3, 61056, Note_on_c, 1, 66, 100
3, 61184, Note_off_c, 1, 66, 100
3, 61248, Note_on_c, 1, 67, 100
3, 61376, Note_off_c, 1, 67, 100
3, 61440, Note_on_c, 1, 60, 100
3, 61696, Note_off_c, 1, 60, 100
3, 62016, Note_on_c, 1, 61, 100
3, 62144, Note_off_c, 1, 61, 100
3, 62208, Note_on_c, 1, 62, 100
3, 62336, Note_off_c, 1, 62, 100
3, 62400, Note_on_c, 1, 57, 100
3, 62528, Note_off_c, 1, 57, 100
3, 62592, Note_on_c, 1, 50, 100
3, 62720, Note_off_c, 1, 50, 100
3, 62976, Note_on_c, 1, 50, 100
3, 63040, Note_off_c, 1, 50, 100
3, 63072, Note_on_c, 1, 57, 100
3, 63136, Note_off_c, 1, 57, 100
3, 63168, Note_on_c, 1, 54, 100
3, 63232, Note_off_c, 1, 54, 100
3, 63264, Note_on_c, 1, 57, 100
3, 63328, Note_off_c, 1, 57, 100
3, 63360, Note_on_c, 1, 50, 100
3, 63424, Note_off_c, 1, 50, 100
3, 63456, Note_on_c, 1, 57, 100
3, 63520, Note_off_c, 1, 57, 100
3, 63552, Note_on_c, 1, 54, 100
3, 63616, Note_off_c, 1, 54, 100
3, 63648, Note_on_c, 1, 57, 100
3, 63712, Note_off_c, 1, 57, 100
3, 63744, Note_on_c, 1, 52, 100
3, 63808, Note_off_c, 1, 52, 100
3, 63840, Note_on_c, 1, 57, 100
3, 63904, Note_off_c, 1, 57, 100
3, 63936, Note_on_c, 1, 55, 100
3, 64000, Note_off_c, 1, 55, 100
3, 64032, Note_on_c, 1, 57, 100
3, 64096, Note_off_c, 1, 57, 100
3, 64128, Note_on_c, 1, 52, 100
3, 64192, Note_off_c, 1, 52, 100
3, 64224, Note_on_c, 1, 57, 100
3, 64288, Note_off_c, 1, 57, 100
3, 64320, Note_on_c, 1, 55, 100
3, 64384, Note_off_c, 1, 55, 100
3, 64416, Note_on_c, 1, 57, 100
3, 64480, Note_off_c, 1, 57, 100
3, 64512, Note_on_c, 1, 49, 100
3, 64576, Note_off_c, 1, 49, 100
3, 64608, Note_on_c, 1, 57, 100
3, 64672, Note_off_c, 1, 57, 100
3, 64704, Note_on_c, 1, 52, 100
3, 64768, Note_off_c, 1, 52, 100
3, 64800, Note_on_c, 1, 57, 100
3, 64864, Note_off_c, 1, 57, 100
3, 64896, Note_on_c, 1, 49, 100
3, 64960, Note_off_c, 1, 49, 100
3, 64992, Note_on_c, 1, 57, 100
3, 65056, Note_off_c, 1, 57, 100
3, 65088, Note_on_c, 1, 52, 100
3, 65152, Note_off_c, 1, 52, 100
3, 65184, Note_on_c, 1, 57, 100
3, 65248, Note_off_c, 1, 57, 100
3, 65280, Note_on_c, 1, 50, 100
3, 65344, Note_off_c, 1, 50, 100
3, 65376, Note_on_c, 1, 57, 100
3, 65440, Note_off_c, 1, 57, 100
3, 65472, Note_on_c, 1, 54, 100
3, 65536, Note_off_c, 1, 54, 100
3, 65568, Note_on_c, 1, 57, 100
3, 65632, Note_off_c, 1, 57, 100
3, 65664, Note_on_c, 1, 50, 100
3, 65728, Note_off_c, 1, 50, 100
3, 65760, Note_on_c, 1, 57, 100
3, 65824, Note_off_c, 1, 57, 100
3, 65856, Note_on_c, 1, 54, 100
3, 65920, Note_off_c, 1, 54, 100
3, 65952, Note_on_c, 1, 57, 100
3, 66016, Note_off_c, 1, 57, 100
3, 66048, Note_on_c, 1, 54, 100
3, 66304, Note_off_c, 1, 54, 100
3, 66816, Note_on_c, 1, 55, 100
3, 66880, Note_off_c, 1, 55, 100
3, 66912, Note_on_c, 1, 67, 100
3, 66976, Note_off_c, 1, 67, 100
3, 67008, Note_on_c, 1, 54, 100
3, 67072, Note_off_c, 1, 54, 100
3, 67104, Note_on_c, 1, 66, 100
3, 67168, Note_off_c, 1, 66, 100
3, 67200, Note_on_c, 1, 52, 100
3, 67264, Note_off_c, 1, 52, 100
3, 67296, Note_on_c, 1, 64, 100
3, 67360, Note_off_c, 1, 64, 100
3, 67392, Note_on_c, 1, 51, 100
3, 67456, Note_off_c, 1, 51, 100
3, 67488, Note_on_c, 1, 63, 100
3, 67552, Note_off_c, 1, 63, 100
3, 67584, Note_on_c, 1, 52, 100
3, 67840, Note_off_c, 1, 52, 100
3, 68352, Note_on_c, 1, 54, 100
3, 68416, Note_off_c, 1, 54, 100
3, 68448, Note_on_c, 1, 66, 100
3, 68512, Note_off_c, 1, 66, 100
3, 68544, Note_on_c, 1, 52, 100
3, 68608, Note_off_c, 1, 52, 100
3, 68640, Note_on_c, 1, 64, 100
3, 68704, Note_off_c, 1, 64, 100
3, 68736, Note_on_c, 1, 50, 100
3, 68800, Note_off_c, 1, 50, 100
3, 68832, Note_on_c, 1, 62, 100
3, 68896, Note_off_c, 1, 62, 100
3, 68928, Note_on_c, 1, 48, 100
3, 68992, Note_off_c, 1, 48, 100
3, 69024, Note_on_c, 1, 60, 100
3, 69088, Note_off_c, 1, 60, 100
3, 69120, Note_on_c, 1, 50, 100
3, 69376, Note_off_c, 1, 50, 100
3, 69888, Note_on_c, 1, 52, 100
3, 69952, Note_off_c, 1, 52, 100
3, 69984, Note_on_c, 1, 64, 100
3, 70048, Note_off_c, 1, 64, 100
3, 70080, Note_on_c, 1, 50, 100
3, 70144, Note_off_c, 1, 50, 100
3, 70176, Note_on_c, 1, 62, 100
3, 70240, Note_off_c, 1, 62, 100
3, 70272, Note_on_c, 1, 49, 100
3, 70336, Note_off_c, 1, 49, 100
3, 70368, Note_on_c, 1, 61, 100
3, 70432, Note_off_c, 1, 61, 100
3, 70464, Note_on_c, 1, 47, 100
3, 70528, Note_off_c, 1, 47, 100
3, 70560, Note_on_c, 1, 59, 100
3, 70624, Note_off_c, 1, 59, 100
3, 70656, Note_on_c, 1, 45, 100
3, 70912, Note_off_c, 1, 45, 100
3, 71232, Note_on_c, 1, 49, 100
3, 71360, Note_off_c, 1, 49, 100
3, 71424, Note_on_c, 1, 50, 100
3, 71488, Note_off_c, 1, 50, 100
3, 71520, Note_on_c, 1, 57, 100
3, 71584, Note_off_c, 1, 57, 100
3, 71616, Note_on_c, 1, 54, 100
3, 71680, Note_off_c, 1, 54, 100
3, 71712, Note_on_c, 1, 57, 100
3, 71776, Note_off_c, 1, 57, 100
3, 71808, Note_on_c, 1, 50, 100
3, 71872, Note_off_c, 1, 50, 100
3, 71904, Note_on_c, 1, 57, 100
3, 71968, Note_off_c, 1, 57, 100
3, 72000, Note_on_c, 1, 55, 100
3, 72064, Note_off_c, 1, 55, 100
3, 72096, Note_on_c, 1, 57, 100
3, 72160, Note_off_c, 1, 57, 100
3, 72192, Note_on_c, 1, 50, 100
3, 72256, Note_off_c, 1, 50, 100
3, 72288, Note_on_c, 1, 57, 100
3, 72352, Note_off_c, 1, 57, 100
3, 72384, Note_on_c, 1, 54, 100
3, 72448, Note_off_c, 1, 54, 100
3, 72480, Note_on_c, 1, 57, 100
3, 72544, Note_off_c, 1, 57, 100
3, 72576, Note_on_c, 1, 50, 100
3, 72640, Note_off_c, 1, 50, 100
3, 72672, Note_on_c, 1, 57, 100
3, 72736, Note_off_c, 1, 57, 100
3, 72768, Note_on_c, 1, 55, 100
3, 72832, Note_off_c, 1, 55, 100
3, 72864, Note_on_c, 1, 57, 100
3, 72928, Note_off_c, 1, 57, 100
3, 72960, Note_on_c, 1, 50, 100
3, 73024, Note_off_c, 1, 50, 100
3, 73056, Note_on_c, 1, 57, 100
3, 73120, Note_off_c, 1, 57, 100
3, 73152, Note_on_c, 1, 54, 100
3, 73216, Note_off_c, 1, 54, 100
3, 73248, Note_on_c, 1, 57, 100
3, 73312, Note_off_c, 1, 57, 100
3, 73344, Note_on_c, 1, 50, 100
3, 73408, Note_off_c, 1, 50, 100
3, 73440, Note_on_c, 1, 57, 100
3, 73504, Note_off_c, 1, 57, 100
3, 73536, Note_on_c, 1, 55, 100
3, 73600, Note_off_c, 1, 55, 100
3, 73632, Note_on_c, 1, 57, 100
3, 73696, Note_off_c, 1, 57, 100
3, 73728, Note_on_c, 1, 50, 100
3, 73792, Note_off_c, 1, 50, 100
3, 73824, Note_on_c, 1, 57, 100
3, 73888, Note_off_c, 1, 57, 100
3, 73920, Note_on_c, 1, 54, 100
3, 73984, Note_off_c, 1, 54, 100
3, 74016, Note_on_c, 1, 57, 100
3, 74080, Note_off_c, 1, 57, 100
3, 74112, Note_on_c, 1, 50, 100
3, 74176, Note_off_c, 1, 50, 100
3, 74208, Note_on_c, 1, 57, 100
3, 74272, Note_off_c, 1, 57, 100
3, 74304, Note_on_c, 1, 55, 100
3, 74368, Note_off_c, 1, 55, 100
3, 74400, Note_on_c, 1, 57, 100
3, 74464, Note_off_c, 1, 57, 100
3, 74496, Note_on_c, 1, 50, 100
3, 74560, Note_off_c, 1, 50, 100
3, 74592, Note_on_c, 1, 57, 100
3, 74656, Note_off_c, 1, 57, 100
3, 74688, Note_on_c, 1, 54, 100
3, 74752, Note_off_c, 1, 54, 100
3, 74784, Note_on_c, 1, 57, 100
3, 74848, Note_off_c, 1, 57, 100
3, 74880, Note_on_c, 1, 54, 100
3, 74944, Note_off_c, 1, 54, 100
3, 74976, Note_on_c, 1, 62, 100
3, 75040, Note_off_c, 1, 62, 100
3, 75072, Note_on_c, 1, 57, 100
3, 75136, Note_off_c, 1, 57, 100
3, 75168, Note_on_c, 1, 62, 100
3, 75232, Note_off_c, 1, 62, 100
3, 75264, Note_on_c, 1, 55, 100
3, 75328, Note_off_c, 1, 55, 100
3, 75360, Note_on_c, 1, 62, 100
3, 75424, Note_off_c, 1, 62, 100
3, 75456, Note_on_c, 1, 59, 100
3, 75520, Note_off_c, 1, 59, 100
3, 75552, Note_on_c, 1, 62, 100
3, 75616, Note_off_c, 1, 62, 100
3, 75648, Note_on_c, 1, 55, 100
3, 75776, Note_off_c, 1, 55, 100
3, 76608, Note_on_c, 1, 57, 100
3, 76736, Note_off_c, 1, 57, 100
3, 76800, Note_on_c, 1, 59, 100
3, 76864, Note_off_c, 1, 59, 100
3, 76896, Note_on_c, 1, 68, 100
3, 76960, Note_off_c, 1, 68, 100
3, 76992, Note_on_c, 1, 62, 100
3, 77056, Note_off_c, 1, 62, 100
3, 77088, Note_on_c, 1, 68, 100
3, 77152, Note_off_c, 1, 68, 100
3, 77184, Note_on_c, 1, 59, 100
3, 77248, Note_off_c, 1, 59, 100
3, 77280, Note_on_c, 1, 68, 100
3, 77344, Note_off_c, 1, 68, 100
3, 77376, Note_on_c, 1, 62, 100
3, 77440, Note_off_c, 1, 62, 100
3, 77472, Note_on_c, 1, 68, 100
3, 77536, Note_off_c, 1, 68, 100
3, 77568, Note_on_c, 1, 57, 100
3, 77632, Note_off_c, 1, 57, 100
3, 77664, Note_on_c, 1, 69, 100
3, 77728, Note_off_c, 1, 69, 100
3, 77760, Note_on_c, 1, 61, 100
3, 77824, Note_off_c, 1, 61, 100
3, 77856, Note_on_c, 1, 69, 100
3, 77920, Note_off_c, 1, 69, 100
3, 77952, Note_on_c, 1, 57, 100
3, 78016, Note_off_c, 1, 57, 100
3, 78048, Note_on_c, 1, 69, 100
3, 78112, Note_off_c, 1, 69, 100
3, 78144, Note_on_c, 1, 61, 100
3, 78208, Note_off_c, 1, 61, 100
3, 78240, Note_on_c, 1, 69, 100
3, 78304, Note_off_c, 1, 69, 100
3, 78336, Note_on_c, 1, 62, 100
3, 78400, Note_off_c, 1, 62, 100
3, 78432, Note_on_c, 1, 69, 100
3, 78496, Note_off_c, 1, 69, 100
3, 78528, Note_on_c, 1, 66, 100
3, 78592, Note_off_c, 1, 66, 100
3, 78624, Note_on_c, 1, 69, 100
3, 78688, Note_off_c, 1, 69, 100
3, 78720, Note_on_c, 1, 62, 100
3, 78784, Note_off_c, 1, 62, 100
3, 78816, Note_on_c, 1, 69, 100
3, 78880, Note_off_c, 1, 69, 100
3, 78912, Note_on_c, 1, 66, 100
3, 78976, Note_off_c, 1, 66, 100
3, 79008, Note_on_c, 1, 69, 100
3, 79072, Note_off_c, 1, 69, 100
3, 79104, Note_on_c, 1, 67, 100
3, 79360, Note_off_c, 1, 67, 100
3, 80064, Note_on_c, 1, 54, 100
3, 80192, Note_off_c, 1, 54, 100
3, 80256, Note_on_c, 1, 55, 100
3, 80384, Note_off_c, 1, 55, 100
3, 80448, Note_on_c, 1, 57, 100
3, 80576, Note_off_c, 1, 57, 100
3, 80640, Note_on_c, 1, 59, 100
3, 80704, Note_off_c, 1, 59, 100
3, 80736, Note_on_c, 1, 68, 100
3, 80800, Note_off_c, 1, 68, 100
3, 80832, Note_on_c, 1, 62, 100
3, 80896, Note_off_c, 1, 62, 100
3, 80928, Note_on_c, 1, 68, 100
3, 80992, Note_off_c, 1, 68, 100
3, 81024, Note_on_c, 1, 59, 100
3, 81088, Note_off_c, 1, 59, 100
3, 81120, Note_on_c, 1, 68, 100
3, 81184, Note_off_c, 1, 68, 100
3, 81216, Note_on_c, 1, 62, 100
3, 81280, Note_off_c, 1, 62, 100
3, 81312, Note_on_c, 1, 68, 100
3, 81376, Note_off_c, 1, 68, 100
3, 81408, Note_on_c, 1, 57, 100
3, 81472, Note_off_c, 1, 57, 100
3, 81504, Note_on_c, 1, 69, 100
3, 81568, Note_off_c, 1, 69, 100
3, 81600, Note_on_c, 1, 61, 100
3, 81664, Note_off_c, 1, 61, 100
3, 81696, Note_on_c, 1, 69, 100
3, 81760, Note_off_c, 1, 69, 100
3, 81792, Note_on_c, 1, 57, 100
3, 81856, Note_off_c, 1, 57, 100
3, 81888, Note_on_c, 1, 69, 100
3, 81952, Note_off_c, 1, 69, 100
3, 81984, Note_on_c, 1, 61, 100
3, 82048, Note_off_c, 1, 61, 100
3, 82080, Note_on_c, 1, 69, 100
3, 82144, Note_off_c, 1, 69, 100
3, 82176, Note_on_c, 1, 62, 100
3, 82240, Note_off_c, 1, 62, 100
3, 82272, Note_on_c, 1, 69, 100
3, 82336, Note_off_c, 1, 69, 100
3, 82368, Note_on_c, 1, 66, 100
3, 82432, Note_off_c, 1, 66, 100
3, 82464, Note_on_c, 1, 69, 100
3, 82528, Note_off_c, 1, 69, 100
3, 82560, Note_on_c, 1, 62, 100
3, 82624, Note_off_c, 1, 62, 100
3, 82656, Note_on_c, 1, 69, 100
3, 82720, Note_off_c, 1, 69, 100
3, 82752, Note_on_c, 1, 66, 100
3, 82816, Note_off_c, 1, 66, 100
3, 82848, Note_on_c, 1, 69, 100
3, 82912, Note_off_c, 1, 69, 100
3, 82944, Note_on_c, 1, 67, 100
3, 83200, Note_off_c, 1, 67, 100
3, 83904, Note_on_c, 1, 54, 100
3, 84032, Note_off_c, 1, 54, 100
3, 84096, Note_on_c, 1, 55, 100
3, 84224, Note_off_c, 1, 55, 100
3, 84288, Note_on_c, 1, 57, 100
3, 84416, Note_off_c, 1, 57, 100
3, 84480, Note_on_c, 1, 50, 100
3, 84608, Note_off_c, 1, 50, 100
3, 84672, Note_on_c, 1, 54, 100
3, 84800, Note_off_c, 1, 54, 100
3, 84864, Note_on_c, 1, 55, 100
3, 85120, Note_off_c, 1, 55, 100
3, 85440, Note_on_c, 1, 54, 100
3, 85568, Note_off_c, 1, 54, 100
3, 85632, Note_on_c, 1, 55, 100
3, 85760, Note_off_c, 1, 55, 100
3, 85824, Note_on_c, 1, 57, 100
3, 85952, Note_off_c, 1, 57, 100
3, 86016, Note_on_c, 1, 50, 100
3, 86080, Note_off_c, 1, 50, 100
3, 86112, Note_on_c, 1, 62, 100
3, 86176, Note_off_c, 1, 62, 100
3, 86208, Note_on_c, 1, 50, 100
3, 86272, Note_off_c, 1, 50, 100
3, 86304, Note_on_c, 1, 62, 100
3, 86368, Note_off_c, 1, 62, 100
3, 86400, Note_on_c, 1, 50, 100
3, 86464, Note_off_c, 1, 50, 100
3, 86496, Note_on_c, 1, 62, 100
3, 86560, Note_off_c, 1, 62, 100
3, 86592, Note_on_c, 1, 50, 100
3, 86656, Note_off_c, 1, 50, 100
3, 86688, Note_on_c, 1, 62, 100
3, 86752, Note_off_c, 1, 62, 100
3, 86784, Note_on_c, 1, 50, 100
3, 86848, Note_off_c, 1, 50, 100
3, 86880, Note_on_c, 1, 62, 100
3, 86944, Note_off_c, 1, 62, 100
3, 86976, Note_on_c, 1, 50, 100
3, 87040, Note_off_c, 1, 50, 100
3, 87072, Note_on_c, 1, 62, 100
3, 87136, Note_off_c, 1, 62, 100
3, 87168, Note_on_c, 1, 50, 100
3, 87232, Note_off_c, 1, 50, 100
3, 87264, Note_on_c, 1, 62, 100
3, 87328, Note_off_c, 1, 62, 100
3, 87360, Note_on_c, 1, 50, 100
3, 87424, Note_off_c, 1, 50, 100
3, 87456, Note_on_c, 1, 62, 100
3, 87520, Note_off_c, 1, 62, 100
3, 87552, Note_on_c, 1, 50, 100
3, 87808, Note_off_c, 1, 50, 100
3, 88320, Note_on_c, 1, 50, 100
3, 88384, Note_off_c, 1, 50, 100
3, 88416, Note_on_c, 1, 57, 100
3, 88480, Note_off_c, 1, 57, 100
3, 88512, Note_on_c, 1, 54, 100
3, 88576, Note_off_c, 1, 54, 100
3, 88608, Note_on_c, 1, 57, 100
3, 88672, Note_off_c, 1, 57, 100
3, 88704, Note_on_c, 1, 50, 100
3, 88768, Note_off_c, 1, 50, 100
3, 88800, Note_on_c, 1, 57, 100
3, 88864, Note_off_c, 1, 57, 100
3, 88896, Note_on_c, 1, 54, 100
3, 88960, Note_off_c, 1, 54, 100
3, 88992, Note_on_c, 1, 57, 100
3, 89056, Note_off_c, 1, 57, 100
3, 89088, Note_on_c, 1, 50, 100
3, 89152, Note_off_c, 1, 50, 100
3, 89184, Note_on_c, 1, 59, 100
3, 89248, Note_off_c, 1, 59, 100
3, 89280, Note_on_c, 1, 56, 100
3, 89344, Note_off_c, 1, 56, 100
3, 89376, Note_on_c, 1, 59, 100
3, 89440, Note_off_c, 1, 59, 100
3, 89472, Note_on_c, 1, 50, 100
3, 89536, Note_off_c, 1, 50, 100
3, 89568, Note_on_c, 1, 59, 100
3, 89632, Note_off_c, 1, 59, 100
3, 89664, Note_on_c, 1, 56, 100
3, 89728, Note_off_c, 1, 56, 100
3, 89760, Note_on_c, 1, 59, 100
3, 89824, Note_off_c, 1, 59, 100
3, 89856, Note_on_c, 1, 50, 100
3, 89920, Note_off_c, 1, 50, 100
3, 89952, Note_on_c, 1, 59, 100
3, 90016, Note_off_c, 1, 59, 100
3, 90048, Note_on_c, 1, 56, 100
3, 90112, Note_off_c, 1, 56, 100
3, 90144, Note_on_c, 1, 59, 100
3, 90208, Note_off_c, 1, 59, 100
3, 90240, Note_on_c, 1, 50, 100
3, 90304, Note_off_c, 1, 50, 100
3, 90336, Note_on_c, 1, 59, 100
3, 90400, Note_off_c, 1, 59, 100
3, 90432, Note_on_c, 1, 56, 100
3, 90496, Note_off_c, 1, 56, 100
3, 90528, Note_on_c, 1, 59, 100
3, 90592, Note_off_c, 1, 59, 100
3, 90624, Note_on_c, 1, 48, 100
3, 90688, Note_off_c, 1, 48, 100
3, 90720, Note_on_c, 1, 57, 100
3, 90784, Note_off_c, 1, 57, 100
3, 90816, Note_on_c, 1, 52, 100
3, 90880, Note_off_c, 1, 52, 100
3, 90912, Note_on_c, 1, 57, 100
3, 90976, Note_off_c, 1, 57, 100
3, 91008, Note_on_c, 1, 48, 100
3, 91072, Note_off_c, 1, 48, 100
3, 91104, Note_on_c, 1, 57, 100
3, 91168, Note_off_c, 1, 57, 100
3, 91200, Note_on_c, 1, 52, 100
3, 91264, Note_off_c, 1, 52, 100
3, 91296, Note_on_c, 1, 57, 100
3, 91360, Note_off_c, 1, 57, 100
3, 91392, Note_on_c, 1, 48, 100
3, 91456, Note_off_c, 1, 48, 100
3, 91488, Note_on_c, 1, 57, 100
3, 91552, Note_off_c, 1, 57, 100
3, 91584, Note_on_c, 1, 52, 100
3, 91648, Note_off_c, 1, 52, 100
3, 91680, Note_on_c, 1, 57, 100
3, 91744, Note_off_c, 1, 57, 100
3, 91776, Note_on_c, 1, 48, 100
3, 91840, Note_off_c, 1, 48, 100
3, 91872, Note_on_c, 1, 57, 100
3, 91936, Note_off_c, 1, 57, 100
3, 91968, Note_on_c, 1, 52, 100
3, 92032, Note_off_c, 1, 52, 100
3, 92064, Note_on_c, 1, 57, 100
3, 92128, Note_off_c, 1, 57, 100
3, 92160, Note_on_c, 1, 47, 100
3, 92224, Note_off_c, 1, 47, 100
3, 92256, Note_on_c, 1, 57, 100
3, 92320, Note_off_c, 1, 57, 100
3, 92352, Note_on_c, 1, 54, 100
3, 92416, Note_off_c, 1, 54, 100
3, 92448, Note_on_c, 1, 57, 100
3, 92512, Note_off_c, 1, 57, 100
3, 92544, Note_on_c, 1, 47, 100
3, 92608, Note_off_c, 1, 47, 100
3, 92640, Note_on_c, 1, 57, 100
3, 92704, Note_off_c, 1, 57, 100
3, 92736, Note_on_c, 1, 54, 100
3, 92800, Note_off_c, 1, 54, 100
3, 92832, Note_on_c, 1, 57, 100
3, 92896, Note_off_c, 1, 57, 100
3, 92928, Note_on_c, 1, 51, 100
3, 92992, Note_off_c, 1, 51, 100
3, 93024, Note_on_c, 1, 59, 100
3, 93088, Note_off_c, 1, 59, 100
3, 93120, Note_on_c, 1, 54, 100
3, 93184, Note_off_c, 1, 54, 100
3, 93216, Note_on_c, 1, 59, 100
3, 93280, Note_off_c, 1, 59, 100
3, 93312, Note_on_c, 1, 51, 100
3, 93376, Note_off_c, 1, 51, 100
3, 93408, Note_on_c, 1, 59, 100
3, 93472, Note_off_c, 1, 59, 100
3, 93504, Note_on_c, 1, 54, 100
3, 93568, Note_off_c, 1, 54, 100
3, 93600, Note_on_c, 1, 59, 100
3, 93664, Note_off_c, 1, 59, 100
3, 93696, Note_on_c, 1, 52, 100
3, 93760, Note_off_c, 1, 52, 100
3, 93792, Note_on_c, 1, 59, 100
3, 93856, Note_off_c, 1, 59, 100
3, 93888, Note_on_c, 1, 55, 100
3, 93952, Note_off_c, 1, 55, 100
3, 93984, Note_on_c, 1, 59, 100
3, 94048, Note_off_c, 1, 59, 100
3, 94080, Note_on_c, 1, 52, 100
3, 94144, Note_off_c, 1, 52, 100
3, 94176, Note_on_c, 1, 59, 100
3, 94240, Note_off_c, 1, 59, 100
3, 94272, Note_on_c, 1, 55, 100
3, 94336, Note_off_c, 1, 55, 100
3, 94368, Note_on_c, 1, 59, 100
3, 94432, Note_off_c, 1, 59, 100
3, 94464, Note_on_c, 1, 52, 100
3, 94528, Note_off_c, 1, 52, 100
3, 94560, Note_on_c, 1, 59, 100
3, 94624, Note_off_c, 1, 59, 100
3, 94656, Note_on_c, 1, 55, 100
3, 94720, Note_off_c, 1, 55, 100
3, 94752, Note_on_c, 1, 59, 100
3, 94816, Note_off_c, 1, 59, 100
3, 94848, Note_on_c, 1, 52, 100
3, 94912, Note_off_c, 1, 52, 100
3, 94944, Note_on_c, 1, 59, 100
3, 95008, Note_off_c, 1, 59, 100
3, 95040, Note_on_c, 1, 55, 100
3, 95104, Note_off_c, 1, 55, 100
3, 95136, Note_on_c, 1, 59, 100
3, 95200, Note_off_c, 1, 59, 100
3, 95232, Note_on_c, 1, 51, 100
3, 95296, Note_off_c, 1, 51, 100
3, 95328, Note_on_c, 1, 59, 100
3, 95392, Note_off_c, 1, 59, 100
3, 95424, Note_on_c, 1, 54, 100
3, 95488, Note_off_c, 1, 54, 100
3, 95520, Note_on_c, 1, 59, 100
3, 95584, Note_off_c, 1, 59, 100
3, 95616, Note_on_c, 1, 51, 100
3, 95680, Note_off_c, 1, 51, 100
3, 95712, Note_on_c, 1, 59, 100
3, 95776, Note_off_c, 1, 59, 100
3, 95808, Note_on_c, 1, 54, 100
3, 95872, Note_off_c, 1, 54, 100
3, 95904, Note_on_c, 1, 59, 100
3, 95968, Note_off_c, 1, 59, 100
3, 96000, Note_on_c, 1, 51, 100
3, 96064, Note_off_c, 1, 51, 100
3, 96096, Note_on_c, 1, 59, 100
3, 96160, Note_off_c, 1, 59, 100
3, 96192, Note_on_c, 1, 54, 100
3, 96256, Note_off_c, 1, 54, 100
3, 96288, Note_on_c, 1, 59, 100
3, 96352, Note_off_c, 1, 59, 100
3, 96384, Note_on_c, 1, 51, 100
3, 96448, Note_off_c, 1, 51, 100
3, 96480, Note_on_c, 1, 59, 100
3, 96544, Note_off_c, 1, 59, 100
3, 96576, Note_on_c, 1, 54, 100
3, 96640, Note_off_c, 1, 54, 100
3, 96672, Note_on_c, 1, 59, 100
3, 96736, Note_off_c, 1, 59, 100
3, 96768, Note_on_c, 1, 52, 100
3, 96832, Note_off_c, 1, 52, 100
3, 96864, Note_on_c, 1, 59, 100
3, 96928, Note_off_c, 1, 59, 100
3, 96960, Note_on_c, 1, 55, 100
3, 97024, Note_off_c, 1, 55, 100
3, 97056, Note_on_c, 1, 59, 100
3, 97120, Note_off_c, 1, 59, 100
3, 97152, Note_on_c, 1, 52, 100
3, 97216, Note_off_c, 1, 52, 100
3, 97248, Note_on_c, 1, 59, 100
3, 97312, Note_off_c, 1, 59, 100
3, 97344, Note_on_c, 1, 55, 100
3, 97408, Note_off_c, 1, 55, 100
3, 97440, Note_on_c, 1, 59, 100
3, 97504, Note_off_c, 1, 59, 100
3, 97536, Note_on_c, 1, 52, 100
3, 97600, Note_off_c, 1, 52, 100
3, 97632, Note_on_c, 1, 59, 100
3, 97696, Note_off_c, 1, 59, 100
3, 97728, Note_on_c, 1, 55, 100
3, 97792, Note_off_c, 1, 55, 100
3, 97824, Note_on_c, 1, 59, 100
3, 97888, Note_off_c, 1, 59, 100
3, 97920, Note_on_c, 1, 52, 100
3, 97984, Note_off_c, 1, 52, 100
3, 98016, Note_on_c, 1, 59, 100
3, 98080, Note_off_c, 1, 59, 100
3, 98112, Note_on_c, 1, 55, 100
3, 98176, Note_off_c, 1, 55, 100
3, 98208, Note_on_c, 1, 59, 100
3, 98272, Note_off_c, 1, 59, 100
3, 98304, Note_on_c, 1, 48, 100
3, 98368, Note_off_c, 1, 48, 100
3, 98400, Note_on_c, 1, 58, 100
3, 98464, Note_off_c, 1, 58, 100
3, 98496, Note_on_c, 1, 52, 100
3, 98560, Note_off_c, 1, 52, 100
3, 98592, Note_on_c, 1, 58, 100
3, 98656, Note_off_c, 1, 58, 100
3, 98688, Note_on_c, 1, 48, 100
3, 98752, Note_off_c, 1, 48, 100
3, 98784, Note_on_c, 1, 58, 100
3, 98848, Note_off_c, 1, 58, 100
3, 98880, Note_on_c, 1, 52, 100
3, 98944, Note_off_c, 1, 52, 100
3, 98976, Note_on_c, 1, 58, 100
3, 99040, Note_off_c, 1, 58, 100
3, 99072, Note_on_c, 1, 48, 100
3, 99136, Note_off_c, 1, 48, 100
3, 99168, Note_on_c, 1, 58, 100
3, 99232, Note_off_c, 1, 58, 100
3, 99264, Note_on_c, 1, 52, 100
3, 99328, Note_off_c, 1, 52, 100
3, 99360, Note_on_c, 1, 58, 100
3, 99424, Note_off_c, 1, 58, 100
3, 99456, Note_on_c, 1, 48, 100
3, 99520, Note_off_c, 1, 48, 100
3, 99552, Note_on_c, 1, 58, 100
3, 99616, Note_off_c, 1, 58, 100
3, 99648, Note_on_c, 1, 52, 100
3, 99712, Note_off_c, 1, 52, 100
3, 99744, Note_on_c, 1, 58, 100
3, 99808, Note_off_c, 1, 58, 100
3, 99840, Note_on_c, 1, 47, 100
3, 99904, Note_off_c, 1, 47, 100
3, 99936, Note_on_c, 1, 57, 100
3, 100000, Note_off_c, 1, 57, 100
3, 100032, Note_on_c, 1, 51, 100
3, 100096, Note_off_c, 1, 51, 100
3, 100128, Note_on_c, 1, 57, 100
3, 100192, Note_off_c, 1, 57, 100
3, 100224, Note_on_c, 1, 47, 100
3, 100288, Note_off_c, 1, 47, 100
3, 100320, Note_on_c, 1, 57, 100
3, 100384, Note_off_c, 1, 57, 100
3, 100416, Note_on_c, 1, 51, 100
3, 100480, Note_off_c, 1, 51, 100
3, 100512, Note_on_c, 1, 57, 100
3, 100576, Note_off_c, 1, 57, 100
3, 100608, Note_on_c, 1, 52, 100
3, 100672, Note_off_c, 1, 52, 100
3, 100704, Note_on_c, 1, 62, 100
3, 100768, Note_off_c, 1, 62, 100
3, 100800, Note_on_c, 1, 56, 100
3, 100864, Note_off_c, 1, 56, 100
3, 100896, Note_on_c, 1, 62, 100
3, 100960, Note_off_c, 1, 62, 100
3, 100992, Note_on_c, 1, 52, 100
3, 101056, Note_off_c, 1, 52, 100
3, 101088, Note_on_c, 1, 62, 100
3, 101152, Note_off_c, 1, 62, 100
3, 101184, Note_on_c, 1, 56, 100
3, 101248, Note_off_c, 1, 56, 100
3, 101280, Note_on_c, 1, 62, 100
3, 101344, Note_off_c, 1, 62, 100
3, 101376, Note_on_c, 1, 57, 100
3, 101440, Note_off_c, 1, 57, 100
3, 101472, Note_on_c, 1, 67, 100
3, 101536, Note_off_c, 1, 67, 100
3, 101568, Note_on_c, 1, 61, 100
3, 101632, Note_off_c, 1, 61, 100
3, 101664, Note_on_c, 1, 67, 100
3, 101728, Note_off_c, 1, 67, 100
3, 101760, Note_on_c, 1, 57, 100
3, 101824, Note_off_c, 1, 57, 100
3, 101856, Note_on_c, 1, 67, 100
3, 101920, Note_off_c, 1, 67, 100
3, 101952, Note_on_c, 1, 61, 100
3, 102016, Note_off_c, 1, 61, 100
3, 102048, Note_on_c, 1, 67, 100
3, 102112, Note_off_c, 1, 67, 100
3, 102144, Note_on_c, 1, 60, 100
3, 102208, Note_off_c, 1, 60, 100
3, 102240, Note_on_c, 1, 69, 100
3, 102304, Note_off_c, 1, 69, 100
3, 102336, Note_on_c, 1, 66, 100
3, 102400, Note_off_c, 1, 66, 100
3, 102432, Note_on_c, 1, 69, 100
3, 102496, Note_off_c, 1, 69, 100
3, 102528, Note_on_c, 1, 60, 100
3, 102592, Note_off_c, 1, 60, 100
3, 102624, Note_on_c, 1, 69, 100
3, 102688, Note_off_c, 1, 69, 100
3, 102720, Note_on_c, 1, 66, 100
3, 102784, Note_off_c, 1, 66, 100
3, 102816, Note_on_c, 1, 69, 100
3, 102880, Note_off_c, 1, 69, 100
3, 102912, Note_on_c, 1, 59, 100
3, 102976, Note_off_c, 1, 59, 100
3, 103008, Note_on_c, 1, 67, 100
3, 103072, Note_off_c, 1, 67, 100
3, 103104, Note_on_c, 1, 62, 100
3, 103168, Note_off_c, 1, 62, 100
3, 103200, Note_on_c, 1, 67, 100
3, 103264, Note_off_c, 1, 67, 100
3, 103296, Note_on_c, 1, 59, 100
3, 103360, Note_off_c, 1, 59, 100
3, 103392, Note_on_c, 1, 67, 100
3, 103456, Note_off_c, 1, 67, 100
3, 103488, Note_on_c, 1, 62, 100
3, 103552, Note_off_c, 1, 62, 100
3, 103584, Note_on_c, 1, 67, 100
3, 103648, Note_off_c, 1, 67, 100
3, 103680, Note_on_c, 1, 60, 100
3, 103744, Note_off_c, 1, 60, 100
3, 103776, Note_on_c, 1, 69, 100
3, 103840, Note_off_c, 1, 69, 100
3, 103872, Note_on_c, 1, 66, 100
3, 103936, Note_off_c, 1, 66, 100
3, 103968, Note_on_c, 1, 69, 100
3, 104032, Note_off_c, 1, 69, 100
3, 104064, Note_on_c, 1, 60, 100
3, 104128, Note_off_c, 1, 60, 100
3, 104160, Note_on_c, 1, 69, 100
3, 104224, Note_off_c, 1, 69, 100
3, 104256, Note_on_c, 1, 66, 100
3, 104320, Note_off_c, 1, 66, 100
3, 104352, Note_on_c, 1, 69, 100
3, 104416, Note_off_c, 1, 69, 100
3, 104448, Note_on_c, 1, 58, 100
3, 104512, Note_off_c, 1, 58, 100
3, 104544, Note_on_c, 1, 67, 100
3, 104608, Note_off_c, 1, 67, 100
3, 104640, Note_on_c, 1, 62, 100
3, 104704, Note_off_c, 1, 62, 100
3, 104736, Note_on_c, 1, 67, 100
3, 104800, Note_off_c, 1, 67, 100
3, 104832, Note_on_c, 1, 58, 100
3, 104896, Note_off_c, 1, 58, 100
3, 104928, Note_on_c, 1, 67, 100
3, 104992, Note_off_c, 1, 67, 100
3, 105024, Note_on_c, 1, 62, 100
3, 105088, Note_off_c, 1, 62, 100
3, 105120, Note_on_c, 1, 67, 100
3, 105184, Note_off_c, 1, 67, 100
3, 105216, Note_on_c, 1, 60, 100
3, 105280, Note_off_c, 1, 60, 100
3, 105312, Note_on_c, 1, 67, 100
3, 105376, Note_off_c, 1, 67, 100
3, 105408, Note_on_c, 1, 63, 100
3, 105472, Note_off_c, 1, 63, 100
3, 105504, Note_on_c, 1, 67, 100
3, 105568, Note_off_c, 1, 67, 100
3, 105600, Note_on_c, 1, 57, 100
3, 105664, Note_off_c, 1, 57, 100
3, 105696, Note_on_c, 1, 65, 100
3, 105760, Note_off_c, 1, 65, 100
3, 105792, Note_on_c, 1, 60, 100
3, 105856, Note_off_c, 1, 60, 100
3, 105888, Note_on_c, 1, 65, 100
3, 105952, Note_off_c, 1, 65, 100
3, 105984, Note_on_c, 1, 58, 100
3, 106048, Note_off_c, 1, 58, 100
3, 106080, Note_on_c, 1, 65, 100
3, 106144, Note_off_c, 1, 65, 100
3, 106176, Note_on_c, 1, 62, 100
3, 106240, Note_off_c, 1, 62, 100
3, 106272, Note_on_c, 1, 65, 100
3, 106336, Note_off_c, 1, 65, 100
3, 106368, Note_on_c, 1, 55, 100
3, 106432, Note_off_c, 1, 55, 100
3, 106464, Note_on_c, 1, 63, 100
3, 106528, Note_off_c, 1, 63, 100
3, 106560, Note_on_c, 1, 58, 100
3, 106624, Note_off_c, 1, 58, 100
3, 106656, Note_on_c, 1, 63, 100
3, 106720, Note_off_c, 1, 63, 100
3, 106752, Note_on_c, 1, 57, 100
3, 106816, Note_off_c, 1, 57, 100
3, 106848, Note_on_c, 1, 63, 100
3, 106912, Note_off_c, 1, 63, 100
3, 106944, Note_on_c, 1, 60, 100
3, 107008, Note_off_c, 1, 60, 100
3, 107040, Note_on_c, 1, 63, 100
3, 107104, Note_off_c, 1, 63, 100
3, 107136, Note_on_c, 1, 54, 100
3, 107200, Note_off_c, 1, 54, 100
3, 107232, Note_on_c, 1, 62, 100
3, 107296, Note_off_c, 1, 62, 100
3, 107328, Note_on_c, 1, 57, 100
3, 107392, Note_off_c, 1, 57, 100
3, 107424, Note_on_c, 1, 62, 100
3, 107488, Note_off_c, 1, 62, 100
3, 107520, Note_on_c, 1, 55, 100
3, 107584, Note_off_c, 1, 55, 100
3, 107616, Note_on_c, 1, 62, 100
3, 107680, Note_off_c, 1, 62, 100
3, 107712, Note_on_c, 1, 58, 100
3, 107776, Note_off_c, 1, 58, 100
3, 107808, Note_on_c, 1, 62, 100
3, 107872, Note_off_c, 1, 62, 100
3, 107904, Note_on_c, 1, 53, 100
3, 107968, Note_off_c, 1, 53, 100
3, 108000, Note_on_c, 1, 62, 100
3, 108064, Note_off_c, 1, 62, 100
3, 108096, Note_on_c, 1, 57, 100
3, 108160, Note_off_c, 1, 57, 100
3, 108192, Note_on_c, 1, 62, 100
3, 108256, Note_off_c, 1, 62, 100
3, 108288, Note_on_c, 1, 51, 100
3, 108352, Note_off_c, 1, 51, 100
3, 108384, Note_on_c, 1, 61, 100
3, 108448, Note_off_c, 1, 61, 100
3, 108480, Note_on_c, 1, 55, 100
3, 108544, Note_off_c, 1, 55, 100
3, 108576, Note_on_c, 1, 61, 100
3, 108640, Note_off_c, 1, 61, 100
3, 108672, Note_on_c, 1, 51, 100
3, 108736, Note_off_c, 1, 51, 100
3, 108768, Note_on_c, 1, 61, 100
3, 108832, Note_off_c, 1, 61, 100
3, 108864, Note_on_c, 1, 55, 100
3, 108928, Note_off_c, 1, 55, 100
3, 108960, Note_on_c, 1, 61, 100
3, 109024, Note_off_c, 1, 61, 100
3, 109056, Note_on_c, 1, 50, 100
3, 109120, Note_off_c, 1, 50, 100
3, 109152, Note_on_c, 1, 60, 100
3, 109216, Note_off_c, 1, 60, 100
3, 109248, Note_on_c, 1, 54, 100
3, 109312, Note_off_c, 1, 54, 100
3, 109344, Note_on_c, 1, 60, 100
3, 109408, Note_off_c, 1, 60, 100
3, 109440, Note_on_c, 1, 50, 100
3, 109504, Note_off_c, 1, 50, 100
3, 109536, Note_on_c, 1, 60, 100
3, 109600, Note_off_c, 1, 60, 100
3, 109632, Note_on_c, 1, 54, 100
3, 109696, Note_off_c, 1, 54, 100
3, 109728, Note_on_c, 1, 60, 100
3, 109792, Note_off_c, 1, 60, 100
3, 109824, Note_on_c, 1, 50, 100
3, 109824, Note_on_c, 1, 54, 100
3, 109824, Note_on_c, 1, 60, 100
3, 110852, Note_off_c, 1, 50, 100
3, 110852, Note_off_c, 1, 54, 100
3, 110852, Note_off_c, 1, 60, 100
3, 111360, Note_on_c, 1, 59, 100
3, 111360, Note_on_c, 1, 55, 100
3, 111616, Note_off_c, 1, 59, 100
3, 111616, Note_off_c, 1, 55, 100
3, 112320, Note_on_c, 1, 71, 100
3, 112320, Note_on_c, 1, 67, 100
3, 112448, Note_off_c, 1, 71, 100
3, 112448, Note_off_c, 1, 67, 100
3, 112512, Note_on_c, 1, 69, 100
3, 112512, Note_on_c, 1, 66, 100
3, 112640, Note_off_c, 1, 69, 100
3, 112640, Note_off_c, 1, 66, 100
3, 112704, Note_on_c, 1, 72, 100
3, 112704, Note_on_c, 1, 69, 100
3, 112832, Note_off_c, 1, 72, 100
3, 112832, Note_off_c, 1, 69, 100
3, 112896, Note_on_c, 1, 71, 100
3, 112896, Note_on_c, 1, 67, 100
3, 113152, Note_off_c, 1, 71, 100
3, 113152, Note_off_c, 1, 67, 100
3, 113856, Note_on_c, 1, 71, 100
3, 113856, Note_on_c, 1, 67, 100
3, 113984, Note_off_c, 1, 71, 100
3, 113984, Note_off_c, 1, 67, 100
3, 114048, Note_on_c, 1, 69, 100
3, 114048, Note_on_c, 1, 66, 100
3, 114176, Note_off_c, 1, 69, 100
3, 114176, Note_off_c, 1, 66, 100
3, 114240, Note_on_c, 1, 72, 100
3, 114240, Note_on_c, 1, 69, 100
3, 114368, Note_off_c, 1, 72, 100
3, 114368, Note_off_c, 1, 69, 100
3, 114432, Note_on_c, 1, 71, 100
3, 114432, Note_on_c, 1, 67, 100
3, 114688, Note_off_c, 1, 71, 100
3, 114688, Note_off_c, 1, 67, 100
3, 115008, Note_on_c, 1, 72, 100
3, 115008, Note_on_c, 1, 67, 100
3, 115136, Note_off_c, 1, 72, 100
3, 115136, Note_off_c, 1, 67, 100
3, 115200, Note_on_c, 1, 71, 100
3, 115200, Note_on_c, 1, 67, 100
3, 115456, Note_off_c, 1, 71, 100
3, 115456, Note_off_c, 1, 67, 100
3, 116160, Note_on_c, 1, 71, 100
3, 116288, Note_off_c, 1, 71, 100
3, 116352, Note_on_c, 1, 69, 100
3, 116480, Note_off_c, 1, 69, 100
3, 116544, Note_on_c, 1, 62, 100
3, 116672, Note_off_c, 1, 62, 100
3, 116736, Note_on_c, 1, 67, 100
3, 116864, Note_off_c, 1, 67, 100
3, 116928, Note_on_c, 1, 62, 100
3, 117056, Note_off_c, 1, 62, 100
3, 117120, Note_on_c, 1, 55, 100
3, 117248, Note_off_c, 1, 55, 100
3, 117312, Note_on_c, 1, 55, 100
3, 117312, Note_on_c, 1, 43, 100
3, 117440, Note_off_c, 1, 55, 100
3, 117440, Note_off_c, 1, 43, 100
3, 117504, Note_on_c, 1, 42, 100
3, 117504, Note_on_c, 1, 54, 100
3, 117632, Note_off_c, 1, 42, 100
3, 117632, Note_off_c, 1, 54, 100
3, 117696, Note_on_c, 1, 40, 100
3, 117696, Note_on_c, 1, 52, 100
3, 117824, Note_off_c, 1, 40, 100
3, 117824, Note_off_c, 1, 52, 100
3, 117888, Note_on_c, 1, 38, 100
3, 117888, Note_on_c, 1, 50, 100
3, 118016, Note_off_c, 1, 38, 100
3, 118016, Note_off_c, 1, 50, 100
3, 118080, Note_on_c, 1, 36, 100
3, 118080, Note_on_c, 1, 48, 100
3, 118208, Note_off_c, 1, 36, 100
3, 118208, Note_off_c, 1, 48, 100
3, 118272, Note_on_c, 1, 35, 100
3, 118272, Note_on_c, 1, 47, 100
3, 118528, Note_off_c, 1, 35, 100
3, 118528, Note_off_c, 1, 47, 100
3, 118848, Note_on_c, 1, 52, 100
3, 118976, Note_off_c, 1, 52, 100
3, 119040, Note_on_c, 1, 50, 100
3, 119168, Note_off_c, 1, 50, 100
3, 119232, Note_on_c, 1, 48, 100
3, 119360, Note_off_c, 1, 48, 100
3, 119424, Note_on_c, 1, 47, 100
3, 119552, Note_off_c, 1, 47, 100
3, 119616, Note_on_c, 1, 45, 100
3, 119744, Note_off_c, 1, 45, 100
3, 119808, Note_on_c, 1, 44, 100
3, 119872, Note_off_c, 1, 44, 100
3, 119904, Note_on_c, 1, 52, 100
3, 119968, Note_off_c, 1, 52, 100
3, 120000, Note_on_c, 1, 47, 100
3, 120064, Note_off_c, 1, 47, 100
3, 120096, Note_on_c, 1, 52, 100
3, 120160, Note_off_c, 1, 52, 100
3, 120192, Note_on_c, 1, 44, 100
3, 120256, Note_off_c, 1, 44, 100
3, 120288, Note_on_c, 1, 52, 100
3, 120352, Note_off_c, 1, 52, 100
3, 120384, Note_on_c, 1, 47, 100
3, 120448, Note_off_c, 1, 47, 100
3, 120480, Note_on_c, 1, 52, 100
3, 120544, Note_off_c, 1, 52, 100
3, 120576, Note_on_c, 1, 44, 100
3, 120640, Note_off_c, 1, 44, 100
3, 120672, Note_on_c, 1, 52, 100
3, 120736, Note_off_c, 1, 52, 100
3, 120768, Note_on_c, 1, 47, 100
3, 120832, Note_off_c, 1, 47, 100
3, 120864, Note_on_c, 1, 52, 100
3, 120928, Note_off_c, 1, 52, 100
3, 120960, Note_on_c, 1, 44, 100
3, 121024, Note_off_c, 1, 44, 100
3, 121056, Note_on_c, 1, 52, 100
3, 121120, Note_off_c, 1, 52, 100
3, 121152, Note_on_c, 1, 47, 100
3, 121216, Note_off_c, 1, 47, 100
3, 121248, Note_on_c, 1, 52, 100
3, 121312, Note_off_c, 1, 52, 100
3, 121344, Note_on_c, 1, 45, 100
3, 121408, Note_off_c, 1, 45, 100
3, 121440, Note_on_c, 1, 52, 100
3, 121504, Note_off_c, 1, 52, 100
3, 121536, Note_on_c, 1, 48, 100
3, 121600, Note_off_c, 1, 48, 100
3, 121632, Note_on_c, 1, 52, 100
3, 121696, Note_off_c, 1, 52, 100
3, 121728, Note_on_c, 1, 45, 100
3, 121792, Note_off_c, 1, 45, 100
3, 121824, Note_on_c, 1, 52, 100
3, 121888, Note_off_c, 1, 52, 100
3, 121920, Note_on_c, 1, 48, 100
3, 121984, Note_off_c, 1, 48, 100
3, 122016, Note_on_c, 1, 52, 100
3, 122080, Note_off_c, 1, 52, 100
3, 122112, Note_on_c, 1, 42, 100
3, 122176, Note_off_c, 1, 42, 100
3, 122208, Note_on_c, 1, 50, 100
3, 122272, Note_off_c, 1, 50, 100
3, 122304, Note_on_c, 1, 45, 100
3, 122368, Note_off_c, 1, 45, 100
3, 122400, Note_on_c, 1, 50, 100
3, 122464, Note_off_c, 1, 50, 100
3, 122496, Note_on_c, 1, 42, 100
3, 122560, Note_off_c, 1, 42, 100
3, 122592, Note_on_c, 1, 50, 100
3, 122656, Note_off_c, 1, 50, 100
3, 122688, Note_on_c, 1, 45, 100
3, 122752, Note_off_c, 1, 45, 100
3, 122784, Note_on_c, 1, 50, 100
3, 122848, Note_off_c, 1, 50, 100
3, 122880, Note_on_c, 1, 43, 100
3, 122944, Note_off_c, 1, 43, 100
3, 122976, Note_on_c, 1, 50, 100
3, 123040, Note_off_c, 1, 50, 100
3, 123072, Note_on_c, 1, 47, 100
3, 123136, Note_off_c, 1, 47, 100
3, 123168, Note_on_c, 1, 50, 100
3, 123232, Note_off_c, 1, 50, 100
3, 123264, Note_on_c, 1, 43, 100
3, 123328, Note_off_c, 1, 43, 100
3, 123360, Note_on_c, 1, 50, 100
3, 123424, Note_off_c, 1, 50, 100
3, 123456, Note_on_c, 1, 47, 100
3, 123520, Note_off_c, 1, 47, 100
3, 123552, Note_on_c, 1, 50, 100
3, 123616, Note_off_c, 1, 50, 100
3, 123648, Note_on_c, 1, 42, 100
3, 123712, Note_off_c, 1, 42, 100
3, 123744, Note_on_c, 1, 50, 100
3, 123808, Note_off_c, 1, 50, 100
3, 123840, Note_on_c, 1, 45, 100
3, 123904, Note_off_c, 1, 45, 100
3, 123936, Note_on_c, 1, 50, 100
3, 124000, Note_off_c, 1, 50, 100
3, 124032, Note_on_c, 1, 42, 100
3, 124096, Note_off_c, 1, 42, 100
3, 124128, Note_on_c, 1, 50, 100
3, 124192, Note_off_c, 1, 50, 100
3, 124224, Note_on_c, 1, 45, 100
3, 124288, Note_off_c, 1, 45, 100
3, 124320, Note_on_c, 1, 50, 100
3, 124384, Note_off_c, 1, 50, 100
3, 124416, Note_on_c, 1, 43, 100
3, 124480, Note_off_c, 1, 43, 100
3, 124512, Note_on_c, 1, 50, 100
3, 124576, Note_off_c, 1, 50, 100
3, 124608, Note_on_c, 1, 47, 100
3, 124672, Note_off_c, 1, 47, 100
3, 124704, Note_on_c, 1, 50, 100
3, 124768, Note_off_c, 1, 50, 100
3, 124800, Note_on_c, 1, 47, 100
3, 124864, Note_off_c, 1, 47, 100
3, 124896, Note_on_c, 1, 55, 100
3, 124960, Note_off_c, 1, 55, 100
3, 124992, Note_on_c, 1, 50, 100
3, 125056, Note_off_c, 1, 50, 100
3, 125088, Note_on_c, 1, 55, 100
3, 125152, Note_off_c, 1, 55, 100
3, 125184, Note_on_c, 1, 48, 100
3, 125440, Note_off_c, 1, 48, 100
3, 125952, Note_on_c, 1, 50, 100
3, 126080, Note_off_c, 1, 50, 100
3, 126144, Note_on_c, 1, 45, 100
3, 126272, Note_off_c, 1, 45, 100
3, 126336, Note_on_c, 1, 38, 100
3, 126464, Note_off_c, 1, 38, 100
3, 126720, Note_on_c, 1, 55, 100
3, 126784, Note_off_c, 1, 55, 100
3, 126816, Note_on_c, 1, 62, 100
3, 126880, Note_off_c, 1, 62, 100
3, 126912, Note_on_c, 1, 59, 100
3, 126976, Note_off_c, 1, 59, 100
3, 127008, Note_on_c, 1, 62, 100
3, 127072, Note_off_c, 1, 62, 100
3, 127104, Note_on_c, 1, 55, 100
3, 127168, Note_off_c, 1, 55, 100
3, 127200, Note_on_c, 1, 62, 100
3, 127264, Note_off_c, 1, 62, 100
3, 127296, Note_on_c, 1, 59, 100
3, 127360, Note_off_c, 1, 59, 100
3, 127392, Note_on_c, 1, 62, 100
3, 127456, Note_off_c, 1, 62, 100
3, 127488, Note_on_c, 1, 57, 100
3, 127552, Note_off_c, 1, 57, 100
3, 127584, Note_on_c, 1, 62, 100
3, 127648, Note_off_c, 1, 62, 100
3, 127680, Note_on_c, 1, 60, 100
3, 127744, Note_off_c, 1, 60, 100
3, 127776, Note_on_c, 1, 62, 100
3, 127840, Note_off_c, 1, 62, 100
3, 127872, Note_on_c, 1, 57, 100
3, 127936, Note_off_c, 1, 57, 100
3, 127968, Note_on_c, 1, 62, 100
3, 128032, Note_off_c, 1, 62, 100
3, 128064, Note_on_c, 1, 60, 100
3, 128128, Note_off_c, 1, 60, 100
3, 128160, Note_on_c, 1, 62, 100
3, 128224, Note_off_c, 1, 62, 100
3, 128256, Note_on_c, 1, 54, 100
3, 128320, Note_off_c, 1, 54, 100
3, 128352, Note_on_c, 1, 62, 100
3, 128416, Note_off_c, 1, 62, 100
3, 128448, Note_on_c, 1, 57, 100
3, 128512, Note_off_c, 1, 57, 100
3, 128544, Note_on_c, 1, 62, 100
3, 128608, Note_off_c, 1, 62, 100
3, 128640, Note_on_c, 1, 54, 100
3, 128704, Note_off_c, 1, 54, 100
3, 128736, Note_on_c, 1, 62, 100
3, 128800, Note_off_c, 1, 62, 100
3, 128832, Note_on_c, 1, 57, 100
3, 128896, Note_off_c, 1, 57, 100
3, 128928, Note_on_c, 1, 62, 100
3, 128992, Note_off_c, 1, 62, 100
3, 129024, Note_on_c, 1, 55, 100
3, 129088, Note_off_c, 1, 55, 100
3, 129120, Note_on_c, 1, 62, 100
3, 129184, Note_off_c, 1, 62, 100
3, 129216, Note_on_c, 1, 59, 100
3, 129280, Note_off_c, 1, 59, 100
3, 129312, Note_on_c, 1, 62, 100
3, 129376, Note_off_c, 1, 62, 100
3, 129408, Note_on_c, 1, 55, 100
3, 129472, Note_off_c, 1, 55, 100
3, 129504, Note_on_c, 1, 62, 100
3, 129568, Note_off_c, 1, 62, 100
3, 129600, Note_on_c, 1, 59, 100
3, 129664, Note_off_c, 1, 59, 100
3, 129696, Note_on_c, 1, 62, 100
3, 129760, Note_off_c, 1, 62, 100
3, 129792, Note_on_c, 1, 55, 100
3, 129856, Note_off_c, 1, 55, 100
3, 129888, Note_on_c, 1, 62, 100
3, 129952, Note_off_c, 1, 62, 100
3, 129984, Note_on_c, 1, 59, 100
3, 130048, Note_off_c, 1, 59, 100
3, 130080, Note_on_c, 1, 62, 100
3, 130144, Note_off_c, 1, 62, 100
3, 130176, Note_on_c, 1, 55, 100
3, 130240, Note_off_c, 1, 55, 100
3, 130272, Note_on_c, 1, 62, 100
3, 130336, Note_off_c, 1, 62, 100
3, 130368, Note_on_c, 1, 59, 100
3, 130432, Note_off_c, 1, 59, 100
3, 130464, Note_on_c, 1, 62, 100
3, 130528, Note_off_c, 1, 62, 100
3, 130560, Note_on_c, 1, 57, 100
3, 130624, Note_off_c, 1, 57, 100
3, 130656, Note_on_c, 1, 62, 100
3, 130720, Note_off_c, 1, 62, 100
3, 130752, Note_on_c, 1, 60, 100
3, 130816, Note_off_c, 1, 60, 100
3, 130848, Note_on_c, 1, 62, 100
3, 130912, Note_off_c, 1, 62, 100
3, 130944, Note_on_c, 1, 57, 100
3, 131008, Note_off_c, 1, 57, 100
3, 131040, Note_on_c, 1, 62, 100
3, 131104, Note_off_c, 1, 62, 100
3, 131136, Note_on_c, 1, 60, 100
3, 131200, Note_off_c, 1, 60, 100
3, 131232, Note_on_c, 1, 62, 100
3, 131296, Note_off_c, 1, 62, 100
3, 131328, Note_on_c, 1, 54, 100
3, 131392, Note_off_c, 1, 54, 100
3, 131424, Note_on_c, 1, 62, 100
3, 131488, Note_off_c, 1, 62, 100
3, 131520, Note_on_c, 1, 57, 100
3, 131584, Note_off_c, 1, 57, 100
3, 131616, Note_on_c, 1, 62, 100
3, 131680, Note_off_c, 1, 62, 100
3, 131712, Note_on_c, 1, 54, 100
3, 131776, Note_off_c, 1, 54, 100
3, 131808, Note_on_c, 1, 62, 100
3, 131872, Note_off_c, 1, 62, 100
3, 131904, Note_on_c, 1, 57, 100
3, 131968, Note_off_c, 1, 57, 100
3, 132000, Note_on_c, 1, 62, 100
3, 132064, Note_off_c, 1, 62, 100
3, 132096, Note_on_c, 1, 55, 100
3, 132160, Note_off_c, 1, 55, 100
3, 132192, Note_on_c, 1, 62, 100
3, 132256, Note_off_c, 1, 62, 100
3, 132288, Note_on_c, 1, 59, 100
3, 132352, Note_off_c, 1, 59, 100
3, 132384, Note_on_c, 1, 62, 100
3, 132448, Note_off_c, 1, 62, 100
3, 132480, Note_on_c, 1, 55, 100
3, 132544, Note_off_c, 1, 55, 100
3, 132576, Note_on_c, 1, 62, 100
3, 132640, Note_off_c, 1, 62, 100
3, 132672, Note_on_c, 1, 59, 100
3, 132736, Note_off_c, 1, 59, 100
3, 132768, Note_on_c, 1, 62, 100
3, 132832, Note_off_c, 1, 62, 100
3, 132864, Note_on_c, 1, 59, 100
3, 133120, Note_off_c, 1, 59, 100
3, 133632, Note_on_c, 1, 60, 100
3, 133696, Note_off_c, 1, 60, 100
3, 133728, Note_on_c, 1, 72, 100
3, 133792, Note_off_c, 1, 72, 100
3, 133824, Note_on_c, 1, 59, 100
3, 133888, Note_off_c, 1, 59, 100
3, 133920, Note_on_c, 1, 71, 100
3, 133984, Note_off_c, 1, 71, 100
3, 134016, Note_on_c, 1, 57, 100
3, 134080, Note_off_c, 1, 57, 100
3, 134112, Note_on_c, 1, 69, 100
3, 134176, Note_off_c, 1, 69, 100
3, 134208, Note_on_c, 1, 56, 100
3, 134272, Note_off_c, 1, 56, 100
3, 134304, Note_on_c, 1, 68, 100
3, 134368, Note_off_c, 1, 68, 100
3, 134400, Note_on_c, 1, 57, 100
3, 134656, Note_off_c, 1, 57, 100
3, 135168, Note_on_c, 1, 59, 100
3, 135232, Note_off_c, 1, 59, 100
3, 135264, Note_on_c, 1, 71, 100
3, 135328, Note_off_c, 1, 71, 100
3, 135360, Note_on_c, 1, 57, 100
3, 135424, Note_off_c, 1, 57, 100
3, 135456, Note_on_c, 1, 69, 100
3, 135520, Note_off_c, 1, 69, 100
3, 135552, Note_on_c, 1, 55, 100
3, 135616, Note_off_c, 1, 55, 100
3, 135648, Note_on_c, 1, 67, 100
3, 135712, Note_off_c, 1, 67, 100
3, 135744, Note_on_c, 1, 54, 100
3, 135808, Note_off_c, 1, 54, 100
3, 135840, Note_on_c, 1, 66, 100
3, 135904, Note_off_c, 1, 66, 100
3, 135936, Note_on_c, 1, 55, 100
3, 136192, Note_off_c, 1, 55, 100
3, 136704, Note_on_c, 1, 57, 100
3, 136768, Note_off_c, 1, 57, 100
3, 136800, Note_on_c, 1, 69, 100
3, 136864, Note_off_c, 1, 69, 100
3, 136896, Note_on_c, 1, 55, 100
3, 136960, Note_off_c, 1, 55, 100
3, 136992, Note_on_c, 1, 67, 100
3, 137056, Note_off_c, 1, 67, 100
3, 137088, Note_on_c, 1, 54, 100
3, 137152, Note_off_c, 1, 54, 100
3, 137184, Note_on_c, 1, 66, 100
3, 137248, Note_off_c, 1, 66, 100
3, 137280, Note_on_c, 1, 52, 100
3, 137344, Note_off_c, 1, 52, 100
3, 137376, Note_on_c, 1, 64, 100
3, 137440, Note_off_c, 1, 64, 100
3, 137472, Note_on_c, 1, 54, 100
3, 137728, Note_off_c, 1, 54, 100
3, 138240, Note_on_c, 1, 55, 100
3, 138304, Note_off_c, 1, 55, 100
3, 138336, Note_on_c, 1, 62, 100
3, 138400, Note_off_c, 1, 62, 100
3, 138432, Note_on_c, 1, 59, 100
3, 138496, Note_off_c, 1, 59, 100
3, 138528, Note_on_c, 1, 62, 100
3, 138592, Note_off_c, 1, 62, 100
3, 138624, Note_on_c, 1, 57, 100
3, 138688, Note_off_c, 1, 57, 100
3, 138720, Note_on_c, 1, 62, 100
3, 138784, Note_off_c, 1, 62, 100
3, 138816, Note_on_c, 1, 60, 100
3, 138880, Note_off_c, 1, 60, 100
3, 138912, Note_on_c, 1, 62, 100
3, 138976, Note_off_c, 1, 62, 100
3, 139008, Note_on_c, 1, 55, 100
3, 139072, Note_off_c, 1, 55, 100
3, 139104, Note_on_c, 1, 62, 100
3, 139168, Note_off_c, 1, 62, 100
3, 139200, Note_on_c, 1, 59, 100
3, 139264, Note_off_c, 1, 59, 100
3, 139296, Note_on_c, 1, 62, 100
3, 139360, Note_off_c, 1, 62, 100
3, 139392, Note_on_c, 1, 57, 100
3, 139456, Note_off_c, 1, 57, 100
3, 139488, Note_on_c, 1, 62, 100
3, 139552, Note_off_c, 1, 62, 100
3, 139584, Note_on_c, 1, 60, 100
3, 139648, Note_off_c, 1, 60, 100
3, 139680, Note_on_c, 1, 62, 100
3, 139744, Note_off_c, 1, 62, 100
3, 139776, Note_on_c, 1, 55, 100
3, 139840, Note_off_c, 1, 55, 100
3, 139872, Note_on_c, 1, 62, 100
3, 139936, Note_off_c, 1, 62, 100
3, 139968, Note_on_c, 1, 59, 100
3, 140032, Note_off_c, 1, 59, 100
3, 140064, Note_on_c, 1, 62, 100
3, 140128, Note_off_c, 1, 62, 100
3, 140160, Note_on_c, 1, 57, 100
3, 140224, Note_off_c, 1, 57, 100
3, 140256, Note_on_c, 1, 62, 100
3, 140320, Note_off_c, 1, 62, 100
3, 140352, Note_on_c, 1, 60, 100
3, 140416, Note_off_c, 1, 60, 100
3, 140448, Note_on_c, 1, 62, 100
3, 140512, Note_off_c, 1, 62, 100
3, 140544, Note_on_c, 1, 55, 100
3, 140608, Note_off_c, 1, 55, 100
3, 140640, Note_on_c, 1, 62, 100
3, 140704, Note_off_c, 1, 62, 100
3, 140736, Note_on_c, 1, 59, 100
3, 140800, Note_off_c, 1, 59, 100
3, 140832, Note_on_c, 1, 62, 100
3, 140896, Note_off_c, 1, 62, 100
3, 140928, Note_on_c, 1, 57, 100
3, 140992, Note_off_c, 1, 57, 100
3, 141024, Note_on_c, 1, 62, 100
3, 141088, Note_off_c, 1, 62, 100
3, 141120, Note_on_c, 1, 60, 100
3, 141184, Note_off_c, 1, 60, 100
3, 141216, Note_on_c, 1, 62, 100
3, 141280, Note_off_c, 1, 62, 100
3, 141312, Note_on_c, 1, 55, 100
3, 141376, Note_off_c, 1, 55, 100
3, 141408, Note_on_c, 1, 62, 100
3, 141472, Note_off_c, 1, 62, 100
3, 141504, Note_on_c, 1, 59, 100
3, 141568, Note_off_c, 1, 59, 100
3, 141600, Note_on_c, 1, 62, 100
3, 141664, Note_off_c, 1, 62, 100
3, 141696, Note_on_c, 1, 59, 100
3, 141760, Note_off_c, 1, 59, 100
3, 141792, Note_on_c, 1, 67, 100
3, 141856, Note_off_c, 1, 67, 100
3, 141888, Note_on_c, 1, 62, 100
3, 141952, Note_off_c, 1, 62, 100
3, 141984, Note_on_c, 1, 67, 100
3, 142048, Note_off_c, 1, 67, 100
3, 142080, Note_on_c, 1, 60, 100
3, 142144, Note_off_c, 1, 60, 100
3, 142176, Note_on_c, 1, 67, 100
3, 142240, Note_off_c, 1, 67, 100
3, 142272, Note_on_c, 1, 64, 100
3, 142336, Note_off_c, 1, 64, 100
3, 142368, Note_on_c, 1, 67, 100
3, 142432, Note_off_c, 1, 67, 100
3, 142464, Note_on_c, 1, 60, 100
3, 142592, Note_off_c, 1, 60, 100
3, 143424, Note_on_c, 1, 50, 100
3, 143552, Note_off_c, 1, 50, 100
3, 143616, Note_on_c, 1, 52, 100
3, 143680, Note_off_c, 1, 52, 100
3, 143712, Note_on_c, 1, 60, 100
3, 143776, Note_off_c, 1, 60, 100
3, 143808, Note_on_c, 1, 55, 100
3, 143872, Note_off_c, 1, 55, 100
3, 143904, Note_on_c, 1, 60, 100
3, 143968, Note_off_c, 1, 60, 100
3, 144000, Note_on_c, 1, 52, 100
3, 144064, Note_off_c, 1, 52, 100
3, 144096, Note_on_c, 1, 60, 100
3, 144160, Note_off_c, 1, 60, 100
3, 144192, Note_on_c, 1, 55, 100
3, 144256, Note_off_c, 1, 55, 100
3, 144288, Note_on_c, 1, 60, 100
3, 144352, Note_off_c, 1, 60, 100
3, 144384, Note_on_c, 1, 50, 100
3, 144448, Note_off_c, 1, 50, 100
3, 144480, Note_on_c, 1, 62, 100
3, 144544, Note_off_c, 1, 62, 100
3, 144576, Note_on_c, 1, 54, 100
3, 144640, Note_off_c, 1, 54, 100
3, 144672, Note_on_c, 1, 62, 100
3, 144736, Note_off_c, 1, 62, 100
3, 144768, Note_on_c, 1, 50, 100
3, 144832, Note_off_c, 1, 50, 100
3, 144864, Note_on_c, 1, 62, 100
3, 144928, Note_off_c, 1, 62, 100
3, 144960, Note_on_c, 1, 54, 100
3, 145024, Note_off_c, 1, 54, 100
3, 145056, Note_on_c, 1, 62, 100
3, 145120, Note_off_c, 1, 62, 100
3, 145152, Note_on_c, 1, 55, 100
3, 145216, Note_off_c, 1, 55, 100
3, 145248, Note_on_c, 1, 62, 100
3, 145312, Note_off_c, 1, 62, 100
3, 145344, Note_on_c, 1, 59, 100
3, 145408, Note_off_c, 1, 59, 100
3, 145440, Note_on_c, 1, 62, 100
3, 145504, Note_off_c, 1, 62, 100
3, 145536, Note_on_c, 1, 55, 100
3, 145600, Note_off_c, 1, 55, 100
3, 145632, Note_on_c, 1, 62, 100
3, 145696, Note_off_c, 1, 62, 100
3, 145728, Note_on_c, 1, 59, 100
3, 145792, Note_off_c, 1, 59, 100
3, 145824, Note_on_c, 1, 62, 100
3, 145888, Note_off_c, 1, 62, 100
3, 145920, Note_on_c, 1, 60, 100
3, 146176, Note_off_c, 1, 60, 100
3, 146880, Note_on_c, 1, 47, 100
3, 147008, Note_off_c, 1, 47, 100
3, 147072, Note_on_c, 1, 48, 100
3, 147200, Note_off_c, 1, 48, 100
3, 147264, Note_on_c, 1, 50, 100
3, 147392, Note_off_c, 1, 50, 100
3, 147456, Note_on_c, 1, 52, 100
3, 147520, Note_off_c, 1, 52, 100
3, 147552, Note_on_c, 1, 60, 100
3, 147616, Note_off_c, 1, 60, 100
3, 147648, Note_on_c, 1, 55, 100
3, 147712, Note_off_c, 1, 55, 100
3, 147744, Note_on_c, 1, 60, 100
3, 147808, Note_off_c, 1, 60, 100
3, 147840, Note_on_c, 1, 52, 100
3, 147904, Note_off_c, 1, 52, 100
3, 147936, Note_on_c, 1, 60, 100
3, 148000, Note_off_c, 1, 60, 100
3, 148032, Note_on_c, 1, 55, 100
3, 148096, Note_off_c, 1, 55, 100
3, 148128, Note_on_c, 1, 60, 100
3, 148192, Note_off_c, 1, 60, 100
3, 148224, Note_on_c, 1, 50, 100
3, 148288, Note_off_c, 1, 50, 100
3, 148320, Note_on_c, 1, 62, 100
3, 148384, Note_off_c, 1, 62, 100
3, 148416, Note_on_c, 1, 54, 100
3, 148480, Note_off_c, 1, 54, 100
3, 148512, Note_on_c, 1, 62, 100
3, 148576, Note_off_c, 1, 62, 100
3, 148608, Note_on_c, 1, 50, 100
3, 148672, Note_off_c, 1, 50, 100
3, 148704, Note_on_c, 1, 62, 100
3, 148768, Note_off_c, 1, 62, 100
3, 148800, Note_on_c, 1, 54, 100
3, 148864, Note_off_c, 1, 54, 100
3, 148896, Note_on_c, 1, 62, 100
3, 148960, Note_off_c, 1, 62, 100
3, 148992, Note_on_c, 1, 55, 100
3, 149056, Note_off_c, 1, 55, 100
3, 149088, Note_on_c, 1, 62, 100
3, 149152, Note_off_c, 1, 62, 100
3, 149184, Note_on_c, 1, 59, 100
3, 149248, Note_off_c, 1, 59, 100
3, 149280, Note_on_c, 1, 62, 100
3, 149344, Note_off_c, 1, 62, 100
3, 149376, Note_on_c, 1, 55, 100
3, 149440, Note_off_c, 1, 55, 100
3, 149472, Note_on_c, 1, 62, 100
3, 149536, Note_off_c, 1, 62, 100
3, 149568, Note_on_c, 1, 59, 100
3, 149632, Note_off_c, 1, 59, 100
3, 149664, Note_on_c, 1, 62, 100
3, 149728, Note_off_c, 1, 62, 100
3, 149760, Note_on_c, 1, 60, 100
3, 150016, Note_off_c, 1, 60, 100
3, 150720, Note_on_c, 1, 47, 100
3, 150848, Note_off_c, 1, 47, 100
3, 150912, Note_on_c, 1, 48, 100
3, 151040, Note_off_c, 1, 48, 100
3, 151104, Note_on_c, 1, 50, 100
3, 151232, Note_off_c, 1, 50, 100
3, 151296, Note_on_c, 1, 55, 100
3, 151424, Note_off_c, 1, 55, 100
3, 151488, Note_on_c, 1, 47, 100
3, 151616, Note_off_c, 1, 47, 100
3, 151680, Note_on_c, 1, 48, 100
3, 151808, Note_off_c, 1, 48, 100
3, 152256, Note_on_c, 1, 47, 100
3, 152384, Note_off_c, 1, 47, 100
3, 152448, Note_on_c, 1, 48, 100
3, 152576, Note_off_c, 1, 48, 100
3, 152640, Note_on_c, 1, 50, 100
3, 152768, Note_off_c, 1, 50, 100
3, 152832, Note_on_c, 1, 43, 100
3, 152896, Note_off_c, 1, 43, 100
3, 152928, Note_on_c, 1, 55, 100
3, 152992, Note_off_c, 1, 55, 100
3, 153024, Note_on_c, 1, 43, 100
3, 153088, Note_off_c, 1, 43, 100
3, 153120, Note_on_c, 1, 55, 100
3, 153184, Note_off_c, 1, 55, 100
3, 153216, Note_on_c, 1, 43, 100
3, 153280, Note_off_c, 1, 43, 100
3, 153312, Note_on_c, 1, 55, 100
3, 153376, Note_off_c, 1, 55, 100
3, 153408, Note_on_c, 1, 43, 100
3, 153472, Note_off_c, 1, 43, 100
3, 153504, Note_on_c, 1, 55, 100
3, 153568, Note_off_c, 1, 55, 100
3, 153600, Note_on_c, 1, 43, 100
3, 153664, Note_off_c, 1, 43, 100
3, 153696, Note_on_c, 1, 55, 100
3, 153760, Note_off_c, 1, 55, 100
3, 153792, Note_on_c, 1, 43, 100
3, 153856, Note_off_c, 1, 43, 100
3, 153888, Note_on_c, 1, 55, 100
3, 153952, Note_off_c, 1, 55, 100
3, 153984, Note_on_c, 1, 43, 100
3, 154048, Note_off_c, 1, 43, 100
3, 154080, Note_on_c, 1, 55, 100
3, 154144, Note_off_c, 1, 55, 100
3, 154176, Note_on_c, 1, 43, 100
3, 154240, Note_off_c, 1, 43, 100
3, 154272, Note_on_c, 1, 55, 100
3, 154336, Note_off_c, 1, 55, 100
3, 154368, Note_on_c, 1, 55, 100
3, 154368, Note_on_c, 1, 43, 100
3, 154880, Note_off_c, 1, 55, 100
3, 154880, Note_off_c, 1, 43, 100
3, 154880, End_track
4, 0, Start_track
4, 0, Control_c, 2, 7, 100
4, 0, Key_signature, 1, "major"
4, 0, End_track
0, 0, End_of_file
