0, 0, Header, 1, 4, 1024
1, 0, Start_track
1, 0, Time_signature, 1, 3, 12, 8
1, 0, Key_signature, 1, "major"
1, 0, Tempo, 750000
1, 512, Time_signature, 2, 2, 24, 8
1, 55808, Time_signature, 1, 2, 24, 8
1, 56832, Time_signature, 1, 3, 12, 8
1, 57344, Time_signature, 2, 2, 24, 8
1, 112640, Time_signature, 1, 2, 24, 8
1, 113664, Time_signature, 1, 3, 12, 8
1, 114176, Time_signature, 2, 2, 24, 8
1, 218624, Time_signature, 1, 2, 24, 8
1, 219648, Time_signature, 1, 3, 12, 8
1, 220160, Time_signature, 2, 2, 24, 8
1, 324608, Time_signature, 1, 2, 24, 8
1, 325632, End_track
2, 0, Start_track
2, 0, Title_t, "Haydn Divertimento in G"
2, 0, Program_c, 0, 0
2, 0, Note_on_c, 0, 74, 42
2, 96, Note_on_c, 0, 72, 45
2, 125, Note_off_c, 0, 74, 0
2, 259, Note_on_c, 0, 71, 37
2, 290, Note_off_c, 0, 72, 0
2, 404, Note_on_c, 0, 69, 46
2, 411, Note_off_c, 0, 71, 0
2, 536, Note_off_c, 0, 69, 0
2, 558, Note_on_c, 0, 67, 43
2, 1064, Note_on_c, 0, 76, 55
2, 1068, Note_on_c, 0, 79, 45
2, 1112, Note_off_c, 0, 67, 0
2, 1536, Note_off_c, 0, 79, 0
2, 1554, Note_on_c, 0, 74, 61
2, 1560, Note_on_c, 0, 78, 52
2, 1574, Note_off_c, 0, 76, 0
2, 2053, Note_on_c, 0, 76, 61
2, 2055, Note_on_c, 0, 72, 49
2, 2070, Note_off_c, 0, 74, 0
2, 2081, Note_off_c, 0, 78, 0
2, 2484, Note_off_c, 0, 72, 0
2, 2560, Note_off_c, 0, 76, 0
2, 2561, Note_on_c, 0, 74, 48
2, 2564, Note_on_c, 0, 71, 50
2, 4018, Note_off_c, 0, 74, 0
2, 4085, Note_on_c, 0, 76, 61
2, 4121, Note_off_c, 0, 71, 0
2, 4257, Note_on_c, 0, 74, 64
2, 4294, Note_off_c, 0, 76, 0
2, 4428, Note_on_c, 0, 72, 67
2, 4450, Note_off_c, 0, 74, 0
2, 4608, Note_off_c, 0, 72, 0
2, 4614, Note_on_c, 0, 71, 77
2, 5761, Note_off_c, 0, 71, 0
2, 6086, Note_on_c, 0, 71, 51
2, 6199, Note_on_c, 0, 69, 60
2, 6298, Note_off_c, 0, 71, 0
2, 6325, Note_on_c, 0, 67, 57
2, 6368, Note_off_c, 0, 69, 0
2, 6461, Note_on_c, 0, 66, 46
2, 6485, Note_off_c, 0, 67, 0
2, 6624, Note_on_c, 0, 64, 49
2, 6656, Note_off_c, 0, 66, 0
2, 7087, Note_off_c, 0, 64, 0
2, 7151, Note_on_c, 0, 72, 46
2, 7155, Note_on_c, 0, 76, 55
2, 7642, Note_on_c, 0, 74, 52
2, 7658, Note_on_c, 0, 71, 38
2, 7662, Note_off_c, 0, 76, 0
2, 7680, Note_off_c, 0, 72, 0
2, 8169, Note_on_c, 0, 72, 52
2, 8182, Note_on_c, 0, 69, 40
2, 8195, Note_off_c, 0, 74, 0
2, 8199, Note_off_c, 0, 71, 0
2, 8379, Note_off_c, 0, 69, 0
2, 8380, Note_off_c, 0, 72, 0
2, 8674, Note_on_c, 0, 72, 49
2, 8689, Note_on_c, 0, 69, 44
2, 9256, Note_off_c, 0, 72, 0
2, 9266, Note_off_c, 0, 69, 0
2, 9719, Note_on_c, 0, 67, 50
2, 9720, Note_on_c, 0, 71, 49
2, 9880, Note_off_c, 0, 71, 0
2, 9890, Note_off_c, 0, 67, 0
2, 10191, Note_on_c, 0, 71, 61
2, 10319, Note_on_c, 0, 69, 49
2, 10369, Note_off_c, 0, 71, 0
2, 10430, Note_on_c, 0, 67, 41
2, 10468, Note_off_c, 0, 69, 0
2, 10550, Note_on_c, 0, 66, 54
2, 10582, Note_off_c, 0, 67, 0
2, 10686, Note_off_c, 0, 66, 0
2, 10688, Note_on_c, 0, 64, 54
2, 11047, Note_off_c, 0, 64, 0
2, 11217, Note_on_c, 0, 76, 55
2, 11223, Note_on_c, 0, 72, 53
2, 11469, Note_off_c, 0, 72, 0
2, 11475, Note_off_c, 0, 76, 0
2, 11769, Note_on_c, 0, 71, 58
2, 11772, Note_on_c, 0, 74, 55
2, 11899, Note_off_c, 0, 74, 0
2, 11902, Note_off_c, 0, 71, 0
2, 12278, Note_on_c, 0, 60, 66
2, 12278, Note_on_c, 0, 66, 55
2, 12370, Note_off_c, 0, 60, 0
2, 12377, Note_off_c, 0, 66, 0
2, 12794, Note_on_c, 0, 67, 60
2, 13453, Note_off_c, 0, 67, 0
2, 14385, Note_on_c, 0, 74, 61
2, 14494, Note_on_c, 0, 72, 53
2, 14566, Note_off_c, 0, 74, 0
2, 14619, Note_on_c, 0, 71, 55
2, 14662, Note_off_c, 0, 72, 0
2, 14733, Note_on_c, 0, 69, 62
2, 14760, Note_off_c, 0, 71, 0
2, 14848, Note_on_c, 0, 67, 64
2, 14879, Note_off_c, 0, 69, 0
2, 15360, Note_off_c, 0, 67, 0
2, 15381, Note_on_c, 0, 79, 45
2, 15385, Note_on_c, 0, 76, 53
2, 15874, Note_on_c, 0, 74, 59
2, 15878, Note_on_c, 0, 78, 57
2, 15906, Note_off_c, 0, 79, 0
2, 15934, Note_off_c, 0, 76, 0
2, 16394, Note_on_c, 0, 76, 65
2, 16405, Note_on_c, 0, 72, 47
2, 16448, Note_off_c, 0, 74, 0
2, 16480, Note_off_c, 0, 78, 0
2, 16743, Note_off_c, 0, 72, 0
2, 16896, Note_off_c, 0, 76, 0
2, 16910, Note_on_c, 0, 71, 48
2, 16912, Note_on_c, 0, 74, 62
2, 17770, Note_off_c, 0, 71, 0
2, 17788, Note_off_c, 0, 74, 0
2, 18410, Note_on_c, 0, 74, 84
2, 18574, Note_on_c, 0, 79, 88
2, 18603, Note_off_c, 0, 74, 0
2, 18754, Note_on_c, 0, 83, 84
2, 18789, Note_off_c, 0, 79, 0
2, 18938, Note_on_c, 0, 81, 94
2, 18944, Note_off_c, 0, 83, 0
2, 19472, Note_on_c, 0, 62, 53
2, 19583, Note_off_c, 0, 62, 0
2, 19995, Note_on_c, 0, 62, 57
2, 20048, Note_off_c, 0, 81, 0
2, 20457, Note_on_c, 0, 79, 62
2, 20574, Note_on_c, 0, 78, 42
2, 20623, Note_off_c, 0, 79, 0
2, 20709, Note_on_c, 0, 76, 65
2, 20765, Note_off_c, 0, 78, 0
2, 20845, Note_on_c, 0, 74, 50
2, 20870, Note_off_c, 0, 76, 0
2, 20990, Note_off_c, 0, 74, 0
2, 20992, Note_off_c, 0, 62, 0
2, 20997, Note_on_c, 0, 73, 72
2, 21144, Note_off_c, 0, 73, 0
2, 21482, Note_on_c, 0, 76, 54
2, 21485, Note_on_c, 0, 79, 51
2, 21498, Note_on_c, 0, 61, 42
2, 21708, Note_off_c, 0, 61, 0
2, 21974, Note_on_c, 0, 61, 40
2, 22030, Note_off_c, 0, 76, 0
2, 22180, Note_off_c, 0, 61, 0
2, 22192, Note_off_c, 0, 79, 0
2, 22490, Note_on_c, 0, 62, 42
2, 22504, Note_on_c, 0, 78, 46
2, 22511, Note_on_c, 0, 74, 44
2, 22594, Note_off_c, 0, 78, 0
2, 22608, Note_off_c, 0, 74, 0
2, 22646, Note_off_c, 0, 62, 0
2, 23008, Note_on_c, 0, 78, 39
2, 23013, Note_on_c, 0, 74, 54
2, 23384, Note_off_c, 0, 78, 0
2, 23407, Note_off_c, 0, 74, 0
2, 23538, Note_on_c, 0, 73, 40
2, 23542, Note_on_c, 0, 76, 47
2, 23917, Note_off_c, 0, 76, 0
2, 23929, Note_off_c, 0, 73, 0
2, 24545, Note_on_c, 0, 69, 59
2, 24663, Note_on_c, 0, 67, 48
2, 24719, Note_off_c, 0, 69, 0
2, 24783, Note_on_c, 0, 66, 67
2, 24810, Note_off_c, 0, 67, 0
2, 24907, Note_on_c, 0, 64, 54
2, 24937, Note_off_c, 0, 66, 0
2, 25021, Note_off_c, 0, 64, 0
2, 25044, Note_on_c, 0, 62, 49
2, 25351, Note_off_c, 0, 62, 0
2, 25540, Note_on_c, 0, 74, 59
2, 25722, Note_off_c, 0, 74, 0
2, 25777, Note_on_c, 0, 62, 54
2, 25904, Note_off_c, 0, 62, 0
2, 26024, Note_on_c, 0, 73, 45
2, 26215, Note_off_c, 0, 73, 0
2, 26277, Note_on_c, 0, 62, 49
2, 26426, Note_off_c, 0, 62, 0
2, 26516, Note_on_c, 0, 71, 58
2, 26654, Note_off_c, 0, 71, 0
2, 26786, Note_on_c, 0, 62, 53
2, 26884, Note_off_c, 0, 62, 0
2, 27047, Note_on_c, 0, 69, 55
2, 27174, Note_off_c, 0, 69, 0
2, 27372, Note_on_c, 0, 62, 49
2, 27505, Note_off_c, 0, 62, 0
2, 27618, Note_on_c, 0, 67, 49
2, 27772, Note_off_c, 0, 67, 0
2, 27905, Note_on_c, 0, 62, 45
2, 28001, Note_off_c, 0, 62, 0
2, 28148, Note_on_c, 0, 66, 49
2, 28380, Note_off_c, 0, 66, 0
2, 28634, Note_on_c, 0, 69, 60
2, 28751, Note_on_c, 0, 67, 52
2, 28818, Note_off_c, 0, 69, 0
2, 28876, Note_on_c, 0, 66, 65
2, 28920, Note_off_c, 0, 67, 0
2, 29005, Note_on_c, 0, 64, 50
2, 29025, Note_off_c, 0, 66, 0
2, 29132, Note_off_c, 0, 64, 0
2, 29156, Note_on_c, 0, 62, 55
2, 29568, Note_off_c, 0, 62, 0
2, 29677, Note_on_c, 0, 74, 43
2, 29908, Note_off_c, 0, 74, 0
2, 29937, Note_on_c, 0, 62, 43
2, 30076, Note_off_c, 0, 62, 0
2, 30163, Note_on_c, 0, 73, 51
2, 30367, Note_off_c, 0, 73, 0
2, 30413, Note_on_c, 0, 62, 46
2, 30519, Note_off_c, 0, 62, 0
2, 30664, Note_on_c, 0, 71, 52
2, 30914, Note_off_c, 0, 71, 0
2, 30918, Note_on_c, 0, 62, 51
2, 31042, Note_off_c, 0, 62, 0
2, 31176, Note_on_c, 0, 69, 49
2, 31429, Note_on_c, 0, 62, 47
2, 31441, Note_off_c, 0, 69, 0
2, 31564, Note_off_c, 0, 62, 0
2, 31677, Note_on_c, 0, 67, 47
2, 31922, Note_off_c, 0, 67, 0
2, 31927, Note_on_c, 0, 62, 49
2, 32175, Note_off_c, 0, 62, 0
2, 32183, Note_on_c, 0, 66, 51
2, 32684, Note_on_c, 0, 69, 53
2, 32711, Note_off_c, 0, 66, 0
2, 33063, Note_off_c, 0, 69, 0
2, 33197, Note_on_c, 0, 67, 50
2, 33280, Note_off_c, 0, 67, 0
2, 33724, Note_on_c, 0, 64, 38
2, 34006, Note_off_c, 0, 64, 0
2, 34799, Note_on_c, 0, 79, 46
2, 34804, Note_on_c, 0, 76, 43
2, 35055, Note_off_c, 0, 76, 0
2, 35107, Note_off_c, 0, 79, 0
2, 35326, Note_on_c, 0, 78, 49
2, 35344, Note_on_c, 0, 74, 40
2, 35591, Note_off_c, 0, 78, 0
2, 35611, Note_off_c, 0, 74, 0
2, 35815, Note_on_c, 0, 81, 55
2, 35821, Note_on_c, 0, 78, 46
2, 36176, Note_off_c, 0, 81, 0
2, 36196, Note_off_c, 0, 78, 0
2, 36860, Note_on_c, 0, 69, 39
2, 37149, Note_off_c, 0, 69, 0
2, 37342, Note_on_c, 0, 67, 36
2, 37830, Note_off_c, 0, 67, 0
2, 37841, Note_on_c, 0, 64, 59
2, 38145, Note_off_c, 0, 64, 0
2, 38871, Note_on_c, 0, 79, 55
2, 38882, Note_on_c, 0, 76, 61
2, 39398, Note_on_c, 0, 74, 47
2, 39399, Note_on_c, 0, 78, 51
2, 39424, Note_off_c, 0, 76, 0
2, 39424, Note_off_c, 0, 79, 0
2, 39744, Note_off_c, 0, 78, 0
2, 39808, Note_off_c, 0, 74, 0
2, 39881, Note_on_c, 0, 78, 52
2, 39882, Note_on_c, 0, 81, 52
2, 40456, Note_off_c, 0, 81, 0
2, 40488, Note_off_c, 0, 78, 0
2, 41462, Note_on_c, 0, 67, 65
2, 41946, Note_on_c, 0, 64, 64
2, 42699, Note_off_c, 0, 64, 0
2, 42733, Note_off_c, 0, 67, 0
2, 42991, Note_on_c, 0, 79, 53
2, 42997, Note_on_c, 0, 76, 61
2, 43309, Note_off_c, 0, 76, 0
2, 43466, Note_off_c, 0, 79, 0
2, 43512, Note_on_c, 0, 78, 57
2, 43520, Note_on_c, 0, 74, 47
2, 43772, Note_off_c, 0, 78, 0
2, 43783, Note_off_c, 0, 74, 0
2, 44013, Note_on_c, 0, 69, 51
2, 44202, Note_on_c, 0, 71, 61
2, 44258, Note_off_c, 0, 69, 0
2, 44368, Note_on_c, 0, 73, 72
2, 44393, Note_off_c, 0, 71, 0
2, 44462, Note_off_c, 0, 73, 0
2, 44527, Note_on_c, 0, 74, 88
2, 44660, Note_off_c, 0, 74, 0
2, 44686, Note_on_c, 0, 76, 70
2, 44852, Note_on_c, 0, 78, 54
2, 44881, Note_off_c, 0, 76, 0
2, 45015, Note_on_c, 0, 79, 49
2, 45021, Note_off_c, 0, 78, 0
2, 45042, Note_on_c, 0, 61, 34
2, 45189, Note_off_c, 0, 79, 0
2, 45193, Note_on_c, 0, 78, 54
2, 45360, Note_on_c, 0, 79, 64
2, 45397, Note_off_c, 0, 78, 0
2, 45532, Note_on_c, 0, 78, 74
2, 45550, Note_on_c, 0, 62, 39
2, 45568, Note_off_c, 0, 61, 0
2, 45568, Note_off_c, 0, 79, 0
2, 45864, Note_off_c, 0, 78, 0
2, 46038, Note_on_c, 0, 69, 61
2, 46217, Note_on_c, 0, 71, 65
2, 46252, Note_off_c, 0, 69, 0
2, 46381, Note_on_c, 0, 73, 47
2, 46413, Note_off_c, 0, 71, 0
2, 46493, Note_off_c, 0, 73, 0
2, 46536, Note_on_c, 0, 74, 66
2, 46686, Note_off_c, 0, 74, 0
2, 46709, Note_on_c, 0, 76, 57
2, 46844, Note_off_c, 0, 62, 0
2, 46890, Note_on_c, 0, 78, 59
2, 46894, Note_off_c, 0, 76, 0
2, 47068, Note_on_c, 0, 76, 49
2, 47078, Note_off_c, 0, 78, 0
2, 47109, Note_on_c, 0, 61, 34
2, 47259, Note_on_c, 0, 78, 46
2, 47337, Note_off_c, 0, 76, 0
2, 47431, Note_on_c, 0, 79, 52
2, 47460, Note_off_c, 0, 78, 0
2, 47586, Note_off_c, 0, 61, 0
2, 47616, Note_off_c, 0, 79, 0
2, 47634, Note_on_c, 0, 78, 58
2, 47643, Note_on_c, 0, 62, 35
2, 48105, Note_on_c, 0, 81, 66
2, 48160, Note_off_c, 0, 78, 0
2, 48270, Note_on_c, 0, 79, 66
2, 48336, Note_off_c, 0, 81, 0
2, 48430, Note_on_c, 0, 78, 74
2, 48464, Note_off_c, 0, 79, 0
2, 48590, Note_off_c, 0, 78, 0
2, 48602, Note_off_c, 0, 62, 0
2, 48606, Note_on_c, 0, 83, 65
2, 49082, Note_on_c, 0, 79, 59
2, 49117, Note_off_c, 0, 83, 0
2, 49255, Note_on_c, 0, 78, 47
2, 49296, Note_off_c, 0, 79, 0
2, 49405, Note_on_c, 0, 76, 48
2, 49429, Note_off_c, 0, 78, 0
2, 49586, Note_off_c, 0, 76, 0
2, 49591, Note_on_c, 0, 74, 52
2, 49664, Note_off_c, 0, 74, 0
2, 50734, Note_on_c, 0, 78, 53
2, 50774, Note_on_c, 0, 76, 58
2, 50788, Note_off_c, 0, 78, 0
2, 50814, Note_on_c, 0, 78, 52
2, 50818, Note_off_c, 0, 76, 0
2, 50860, Note_on_c, 0, 76, 72
2, 50872, Note_off_c, 0, 78, 0
2, 50897, Note_on_c, 0, 78, 50
2, 50910, Note_off_c, 0, 76, 0
2, 50950, Note_off_c, 0, 78, 0
2, 50952, Note_on_c, 0, 76, 67
2, 50990, Note_on_c, 0, 78, 59
2, 51003, Note_off_c, 0, 76, 0
2, 51050, Note_on_c, 0, 76, 78
2, 51051, Note_off_c, 0, 78, 0
2, 51102, Note_on_c, 0, 78, 57
2, 51107, Note_off_c, 0, 76, 0
2, 51138, Note_off_c, 0, 78, 0
2, 51142, Note_on_c, 0, 76, 59
2, 51176, Note_on_c, 0, 78, 54
2, 51188, Note_off_c, 0, 76, 0
2, 51229, Note_on_c, 0, 76, 73
2, 51231, Note_off_c, 0, 78, 0
2, 51279, Note_on_c, 0, 78, 58
2, 51285, Note_off_c, 0, 76, 0
2, 51311, Note_off_c, 0, 78, 0
2, 51319, Note_on_c, 0, 76, 66
2, 51359, Note_on_c, 0, 78, 73
2, 51378, Note_off_c, 0, 76, 0
2, 51420, Note_on_c, 0, 76, 65
2, 51430, Note_off_c, 0, 78, 0
2, 51507, Note_on_c, 0, 74, 65
2, 51526, Note_off_c, 0, 76, 0
2, 51601, Note_on_c, 0, 76, 58
2, 51611, Note_off_c, 0, 74, 0
2, 51700, Note_on_c, 0, 74, 67
2, 51723, Note_off_c, 0, 76, 0
2, 51882, Note_off_c, 0, 74, 0
2, 52097, Note_on_c, 0, 81, 61
2, 52258, Note_on_c, 0, 79, 60
2, 52351, Note_off_c, 0, 81, 0
2, 52428, Note_on_c, 0, 78, 61
2, 52458, Note_off_c, 0, 79, 0
2, 52652, Note_on_c, 0, 83, 64
2, 52730, Note_off_c, 0, 78, 0
2, 53160, Note_on_c, 0, 79, 54
2, 53162, Note_off_c, 0, 83, 0
2, 53329, Note_on_c, 0, 78, 45
2, 53344, Note_off_c, 0, 79, 0
2, 53497, Note_on_c, 0, 76, 47
2, 53526, Note_off_c, 0, 78, 0
2, 53670, Note_on_c, 0, 74, 42
2, 53672, Note_off_c, 0, 76, 0
2, 53760, Note_off_c, 0, 74, 0
2, 54784, Note_on_c, 0, 78, 50
2, 54822, Note_on_c, 0, 76, 56
2, 54828, Note_off_c, 0, 78, 0
2, 54868, Note_off_c, 0, 76, 0
2, 54876, Note_on_c, 0, 78, 47
2, 54911, Note_on_c, 0, 76, 59
2, 54949, Note_off_c, 0, 76, 0
2, 54998, Note_on_c, 0, 76, 75
2, 55006, Note_off_c, 0, 78, 0
2, 55036, Note_on_c, 0, 78, 44
2, 55045, Note_off_c, 0, 76, 0
2, 55092, Note_off_c, 0, 78, 0
2, 55095, Note_on_c, 0, 76, 72
2, 55130, Note_off_c, 0, 76, 0
2, 55130, Note_on_c, 0, 78, 52
2, 55182, Note_off_c, 0, 78, 0
2, 55188, Note_on_c, 0, 76, 78
2, 55216, Note_on_c, 0, 78, 49
2, 55225, Note_off_c, 0, 76, 0
2, 55264, Note_off_c, 0, 78, 0
2, 55270, Note_on_c, 0, 76, 63
2, 55302, Note_on_c, 0, 78, 47
2, 55312, Note_off_c, 0, 76, 0
2, 55362, Note_on_c, 0, 76, 75
2, 55423, Note_off_c, 0, 78, 0
2, 55491, Note_on_c, 0, 78, 77
2, 55541, Note_off_c, 0, 76, 0
2, 55601, Note_on_c, 0, 76, 61
2, 55607, Note_off_c, 0, 78, 0
2, 55665, Note_on_c, 0, 74, 61
2, 55667, Note_off_c, 0, 76, 0
2, 55704, Note_off_c, 0, 74, 0
2, 55707, Note_on_c, 0, 76, 66
2, 55772, Note_off_c, 0, 76, 0
2, 55780, Note_on_c, 0, 74, 49
2, 56177, Note_off_c, 0, 74, 0
2, 56827, Note_on_c, 0, 74, 42
2, 56928, Note_on_c, 0, 72, 45
2, 56957, Note_off_c, 0, 74, 0
2, 57091, Note_on_c, 0, 71, 37
2, 57122, Note_off_c, 0, 72, 0
2, 57236, Note_on_c, 0, 69, 46
2, 57243, Note_off_c, 0, 71, 0
2, 57368, Note_off_c, 0, 69, 0
2, 57390, Note_on_c, 0, 67, 43
2, 57896, Note_on_c, 0, 76, 55
2, 57900, Note_on_c, 0, 79, 45
2, 57944, Note_off_c, 0, 67, 0
2, 58368, Note_off_c, 0, 79, 0
2, 58386, Note_on_c, 0, 74, 61
2, 58392, Note_on_c, 0, 78, 52
2, 58406, Note_off_c, 0, 76, 0
2, 58885, Note_on_c, 0, 76, 61
2, 58887, Note_on_c, 0, 72, 49
2, 58902, Note_off_c, 0, 74, 0
2, 58913, Note_off_c, 0, 78, 0
2, 59316, Note_off_c, 0, 72, 0
2, 59392, Note_off_c, 0, 76, 0
2, 59393, Note_on_c, 0, 74, 48
2, 59396, Note_on_c, 0, 71, 50
2, 60850, Note_off_c, 0, 74, 0
2, 60917, Note_on_c, 0, 76, 61
2, 60953, Note_off_c, 0, 71, 0
2, 61089, Note_on_c, 0, 74, 64
2, 61126, Note_off_c, 0, 76, 0
2, 61260, Note_on_c, 0, 72, 67
2, 61282, Note_off_c, 0, 74, 0
2, 61440, Note_off_c, 0, 72, 0
2, 61446, Note_on_c, 0, 71, 77
2, 62593, Note_off_c, 0, 71, 0
2, 62918, Note_on_c, 0, 71, 51
2, 63031, Note_on_c, 0, 69, 60
2, 63130, Note_off_c, 0, 71, 0
2, 63157, Note_on_c, 0, 67, 57
2, 63200, Note_off_c, 0, 69, 0
2, 63293, Note_on_c, 0, 66, 46
2, 63317, Note_off_c, 0, 67, 0
2, 63456, Note_on_c, 0, 64, 49
2, 63488, Note_off_c, 0, 66, 0
2, 63919, Note_off_c, 0, 64, 0
2, 63983, Note_on_c, 0, 72, 46
2, 63987, Note_on_c, 0, 76, 55
2, 64474, Note_on_c, 0, 74, 52
2, 64490, Note_on_c, 0, 71, 38
2, 64494, Note_off_c, 0, 76, 0
2, 64512, Note_off_c, 0, 72, 0
2, 65001, Note_on_c, 0, 72, 52
2, 65014, Note_on_c, 0, 69, 40
2, 65027, Note_off_c, 0, 74, 0
2, 65031, Note_off_c, 0, 71, 0
2, 65211, Note_off_c, 0, 69, 0
2, 65212, Note_off_c, 0, 72, 0
2, 65506, Note_on_c, 0, 72, 49
2, 65521, Note_on_c, 0, 69, 44
2, 66088, Note_off_c, 0, 72, 0
2, 66098, Note_off_c, 0, 69, 0
2, 66551, Note_on_c, 0, 67, 50
2, 66552, Note_on_c, 0, 71, 49
2, 66712, Note_off_c, 0, 71, 0
2, 66722, Note_off_c, 0, 67, 0
2, 67023, Note_on_c, 0, 71, 61
2, 67151, Note_on_c, 0, 69, 49
2, 67201, Note_off_c, 0, 71, 0
2, 67262, Note_on_c, 0, 67, 41
2, 67300, Note_off_c, 0, 69, 0
2, 67382, Note_on_c, 0, 66, 54
2, 67414, Note_off_c, 0, 67, 0
2, 67518, Note_off_c, 0, 66, 0
2, 67520, Note_on_c, 0, 64, 54
2, 67879, Note_off_c, 0, 64, 0
2, 68049, Note_on_c, 0, 76, 55
2, 68055, Note_on_c, 0, 72, 53
2, 68301, Note_off_c, 0, 72, 0
2, 68307, Note_off_c, 0, 76, 0
2, 68601, Note_on_c, 0, 71, 58
2, 68604, Note_on_c, 0, 74, 55
2, 68731, Note_off_c, 0, 74, 0
2, 68734, Note_off_c, 0, 71, 0
2, 69110, Note_on_c, 0, 60, 66
2, 69110, Note_on_c, 0, 66, 55
2, 69202, Note_off_c, 0, 60, 0
2, 69209, Note_off_c, 0, 66, 0
2, 69626, Note_on_c, 0, 67, 60
2, 70285, Note_off_c, 0, 67, 0
2, 71217, Note_on_c, 0, 74, 61
2, 71326, Note_on_c, 0, 72, 53
2, 71398, Note_off_c, 0, 74, 0
2, 71451, Note_on_c, 0, 71, 55
2, 71494, Note_off_c, 0, 72, 0
2, 71565, Note_on_c, 0, 69, 62
2, 71592, Note_off_c, 0, 71, 0
2, 71680, Note_on_c, 0, 67, 64
2, 71711, Note_off_c, 0, 69, 0
2, 72192, Note_off_c, 0, 67, 0
2, 72213, Note_on_c, 0, 79, 45
2, 72217, Note_on_c, 0, 76, 53
2, 72706, Note_on_c, 0, 74, 59
2, 72710, Note_on_c, 0, 78, 57
2, 72738, Note_off_c, 0, 79, 0
2, 72766, Note_off_c, 0, 76, 0
2, 73226, Note_on_c, 0, 76, 65
2, 73237, Note_on_c, 0, 72, 47
2, 73280, Note_off_c, 0, 74, 0
2, 73312, Note_off_c, 0, 78, 0
2, 73575, Note_off_c, 0, 72, 0
2, 73728, Note_off_c, 0, 76, 0
2, 73742, Note_on_c, 0, 71, 48
2, 73744, Note_on_c, 0, 74, 62
2, 74602, Note_off_c, 0, 71, 0
2, 74620, Note_off_c, 0, 74, 0
2, 75242, Note_on_c, 0, 74, 84
2, 75406, Note_on_c, 0, 79, 88
2, 75435, Note_off_c, 0, 74, 0
2, 75586, Note_on_c, 0, 83, 84
2, 75621, Note_off_c, 0, 79, 0
2, 75770, Note_on_c, 0, 81, 94
2, 75776, Note_off_c, 0, 83, 0
2, 76304, Note_on_c, 0, 62, 53
2, 76415, Note_off_c, 0, 62, 0
2, 76827, Note_on_c, 0, 62, 57
2, 76880, Note_off_c, 0, 81, 0
2, 77289, Note_on_c, 0, 79, 62
2, 77406, Note_on_c, 0, 78, 42
2, 77455, Note_off_c, 0, 79, 0
2, 77541, Note_on_c, 0, 76, 65
2, 77597, Note_off_c, 0, 78, 0
2, 77677, Note_on_c, 0, 74, 50
2, 77702, Note_off_c, 0, 76, 0
2, 77822, Note_off_c, 0, 74, 0
2, 77824, Note_off_c, 0, 62, 0
2, 77829, Note_on_c, 0, 73, 72
2, 77976, Note_off_c, 0, 73, 0
2, 78314, Note_on_c, 0, 76, 54
2, 78317, Note_on_c, 0, 79, 51
2, 78330, Note_on_c, 0, 61, 42
2, 78540, Note_off_c, 0, 61, 0
2, 78806, Note_on_c, 0, 61, 40
2, 78862, Note_off_c, 0, 76, 0
2, 79012, Note_off_c, 0, 61, 0
2, 79024, Note_off_c, 0, 79, 0
2, 79322, Note_on_c, 0, 62, 42
2, 79336, Note_on_c, 0, 78, 46
2, 79343, Note_on_c, 0, 74, 44
2, 79426, Note_off_c, 0, 78, 0
2, 79440, Note_off_c, 0, 74, 0
2, 79478, Note_off_c, 0, 62, 0
2, 79840, Note_on_c, 0, 78, 39
2, 79845, Note_on_c, 0, 74, 54
2, 80216, Note_off_c, 0, 78, 0
2, 80239, Note_off_c, 0, 74, 0
2, 80370, Note_on_c, 0, 73, 40
2, 80374, Note_on_c, 0, 76, 47
2, 80749, Note_off_c, 0, 76, 0
2, 80761, Note_off_c, 0, 73, 0
2, 81377, Note_on_c, 0, 69, 59
2, 81495, Note_on_c, 0, 67, 48
2, 81551, Note_off_c, 0, 69, 0
2, 81615, Note_on_c, 0, 66, 67
2, 81642, Note_off_c, 0, 67, 0
2, 81739, Note_on_c, 0, 64, 54
2, 81769, Note_off_c, 0, 66, 0
2, 81853, Note_off_c, 0, 64, 0
2, 81876, Note_on_c, 0, 62, 49
2, 82183, Note_off_c, 0, 62, 0
2, 82372, Note_on_c, 0, 74, 59
2, 82554, Note_off_c, 0, 74, 0
2, 82609, Note_on_c, 0, 62, 54
2, 82736, Note_off_c, 0, 62, 0
2, 82856, Note_on_c, 0, 73, 45
2, 83047, Note_off_c, 0, 73, 0
2, 83109, Note_on_c, 0, 62, 49
2, 83258, Note_off_c, 0, 62, 0
2, 83348, Note_on_c, 0, 71, 58
2, 83486, Note_off_c, 0, 71, 0
2, 83618, Note_on_c, 0, 62, 53
2, 83716, Note_off_c, 0, 62, 0
2, 83879, Note_on_c, 0, 69, 55
2, 84006, Note_off_c, 0, 69, 0
2, 84204, Note_on_c, 0, 62, 49
2, 84337, Note_off_c, 0, 62, 0
2, 84450, Note_on_c, 0, 67, 49
2, 84604, Note_off_c, 0, 67, 0
2, 84737, Note_on_c, 0, 62, 45
2, 84833, Note_off_c, 0, 62, 0
2, 84980, Note_on_c, 0, 66, 49
2, 85212, Note_off_c, 0, 66, 0
2, 85466, Note_on_c, 0, 69, 60
2, 85583, Note_on_c, 0, 67, 52
2, 85650, Note_off_c, 0, 69, 0
2, 85708, Note_on_c, 0, 66, 65
2, 85752, Note_off_c, 0, 67, 0
2, 85837, Note_on_c, 0, 64, 50
2, 85857, Note_off_c, 0, 66, 0
2, 85964, Note_off_c, 0, 64, 0
2, 85988, Note_on_c, 0, 62, 55
2, 86400, Note_off_c, 0, 62, 0
2, 86509, Note_on_c, 0, 74, 43
2, 86740, Note_off_c, 0, 74, 0
2, 86769, Note_on_c, 0, 62, 43
2, 86908, Note_off_c, 0, 62, 0
2, 86995, Note_on_c, 0, 73, 51
2, 87199, Note_off_c, 0, 73, 0
2, 87245, Note_on_c, 0, 62, 46
2, 87351, Note_off_c, 0, 62, 0
2, 87496, Note_on_c, 0, 71, 52
2, 87746, Note_off_c, 0, 71, 0
2, 87750, Note_on_c, 0, 62, 51
2, 87874, Note_off_c, 0, 62, 0
2, 88008, Note_on_c, 0, 69, 49
2, 88261, Note_on_c, 0, 62, 47
2, 88273, Note_off_c, 0, 69, 0
2, 88396, Note_off_c, 0, 62, 0
2, 88509, Note_on_c, 0, 67, 47
2, 88754, Note_off_c, 0, 67, 0
2, 88759, Note_on_c, 0, 62, 49
2, 89007, Note_off_c, 0, 62, 0
2, 89015, Note_on_c, 0, 66, 51
2, 89516, Note_on_c, 0, 69, 53
2, 89543, Note_off_c, 0, 66, 0
2, 89895, Note_off_c, 0, 69, 0
2, 90029, Note_on_c, 0, 67, 50
2, 90112, Note_off_c, 0, 67, 0
2, 90556, Note_on_c, 0, 64, 38
2, 90838, Note_off_c, 0, 64, 0
2, 91631, Note_on_c, 0, 79, 46
2, 91636, Note_on_c, 0, 76, 43
2, 91887, Note_off_c, 0, 76, 0
2, 91939, Note_off_c, 0, 79, 0
2, 92158, Note_on_c, 0, 78, 49
2, 92176, Note_on_c, 0, 74, 40
2, 92423, Note_off_c, 0, 78, 0
2, 92443, Note_off_c, 0, 74, 0
2, 92647, Note_on_c, 0, 81, 55
2, 92653, Note_on_c, 0, 78, 46
2, 93008, Note_off_c, 0, 81, 0
2, 93028, Note_off_c, 0, 78, 0
2, 93692, Note_on_c, 0, 69, 39
2, 93981, Note_off_c, 0, 69, 0
2, 94174, Note_on_c, 0, 67, 36
2, 94662, Note_off_c, 0, 67, 0
2, 94673, Note_on_c, 0, 64, 59
2, 94977, Note_off_c, 0, 64, 0
2, 95703, Note_on_c, 0, 79, 55
2, 95714, Note_on_c, 0, 76, 61
2, 96230, Note_on_c, 0, 74, 47
2, 96231, Note_on_c, 0, 78, 51
2, 96256, Note_off_c, 0, 76, 0
2, 96256, Note_off_c, 0, 79, 0
2, 96576, Note_off_c, 0, 78, 0
2, 96640, Note_off_c, 0, 74, 0
2, 96713, Note_on_c, 0, 78, 52
2, 96714, Note_on_c, 0, 81, 52
2, 97288, Note_off_c, 0, 81, 0
2, 97320, Note_off_c, 0, 78, 0
2, 98294, Note_on_c, 0, 67, 65
2, 98778, Note_on_c, 0, 64, 64
2, 99531, Note_off_c, 0, 64, 0
2, 99565, Note_off_c, 0, 67, 0
2, 99823, Note_on_c, 0, 79, 53
2, 99829, Note_on_c, 0, 76, 61
2, 100141, Note_off_c, 0, 76, 0
2, 100298, Note_off_c, 0, 79, 0
2, 100344, Note_on_c, 0, 78, 57
2, 100352, Note_on_c, 0, 74, 47
2, 100604, Note_off_c, 0, 78, 0
2, 100615, Note_off_c, 0, 74, 0
2, 100845, Note_on_c, 0, 69, 51
2, 101034, Note_on_c, 0, 71, 61
2, 101090, Note_off_c, 0, 69, 0
2, 101200, Note_on_c, 0, 73, 72
2, 101225, Note_off_c, 0, 71, 0
2, 101294, Note_off_c, 0, 73, 0
2, 101359, Note_on_c, 0, 74, 88
2, 101492, Note_off_c, 0, 74, 0
2, 101518, Note_on_c, 0, 76, 70
2, 101684, Note_on_c, 0, 78, 54
2, 101713, Note_off_c, 0, 76, 0
2, 101847, Note_on_c, 0, 79, 49
2, 101853, Note_off_c, 0, 78, 0
2, 101874, Note_on_c, 0, 61, 34
2, 102021, Note_off_c, 0, 79, 0
2, 102025, Note_on_c, 0, 78, 54
2, 102192, Note_on_c, 0, 79, 64
2, 102229, Note_off_c, 0, 78, 0
2, 102364, Note_on_c, 0, 78, 74
2, 102382, Note_on_c, 0, 62, 39
2, 102400, Note_off_c, 0, 61, 0
2, 102400, Note_off_c, 0, 79, 0
2, 102696, Note_off_c, 0, 78, 0
2, 102870, Note_on_c, 0, 69, 61
2, 103049, Note_on_c, 0, 71, 65
2, 103084, Note_off_c, 0, 69, 0
2, 103213, Note_on_c, 0, 73, 47
2, 103245, Note_off_c, 0, 71, 0
2, 103325, Note_off_c, 0, 73, 0
2, 103368, Note_on_c, 0, 74, 66
2, 103518, Note_off_c, 0, 74, 0
2, 103541, Note_on_c, 0, 76, 57
2, 103676, Note_off_c, 0, 62, 0
2, 103722, Note_on_c, 0, 78, 59
2, 103726, Note_off_c, 0, 76, 0
2, 103900, Note_on_c, 0, 76, 49
2, 103910, Note_off_c, 0, 78, 0
2, 103941, Note_on_c, 0, 61, 34
2, 104091, Note_on_c, 0, 78, 46
2, 104169, Note_off_c, 0, 76, 0
2, 104263, Note_on_c, 0, 79, 52
2, 104292, Note_off_c, 0, 78, 0
2, 104418, Note_off_c, 0, 61, 0
2, 104448, Note_off_c, 0, 79, 0
2, 104466, Note_on_c, 0, 78, 58
2, 104475, Note_on_c, 0, 62, 35
2, 104937, Note_on_c, 0, 81, 66
2, 104992, Note_off_c, 0, 78, 0
2, 105102, Note_on_c, 0, 79, 66
2, 105168, Note_off_c, 0, 81, 0
2, 105262, Note_on_c, 0, 78, 74
2, 105296, Note_off_c, 0, 79, 0
2, 105422, Note_off_c, 0, 78, 0
2, 105434, Note_off_c, 0, 62, 0
2, 105438, Note_on_c, 0, 83, 65
2, 105914, Note_on_c, 0, 79, 59
2, 105949, Note_off_c, 0, 83, 0
2, 106087, Note_on_c, 0, 78, 47
2, 106128, Note_off_c, 0, 79, 0
2, 106237, Note_on_c, 0, 76, 48
2, 106261, Note_off_c, 0, 78, 0
2, 106418, Note_off_c, 0, 76, 0
2, 106423, Note_on_c, 0, 74, 52
2, 106496, Note_off_c, 0, 74, 0
2, 107566, Note_on_c, 0, 78, 53
2, 107606, Note_on_c, 0, 76, 58
2, 107620, Note_off_c, 0, 78, 0
2, 107646, Note_on_c, 0, 78, 52
2, 107650, Note_off_c, 0, 76, 0
2, 107692, Note_on_c, 0, 76, 72
2, 107704, Note_off_c, 0, 78, 0
2, 107729, Note_on_c, 0, 78, 50
2, 107742, Note_off_c, 0, 76, 0
2, 107782, Note_off_c, 0, 78, 0
2, 107784, Note_on_c, 0, 76, 67
2, 107822, Note_on_c, 0, 78, 59
2, 107835, Note_off_c, 0, 76, 0
2, 107882, Note_on_c, 0, 76, 78
2, 107883, Note_off_c, 0, 78, 0
2, 107934, Note_on_c, 0, 78, 57
2, 107939, Note_off_c, 0, 76, 0
2, 107970, Note_off_c, 0, 78, 0
2, 107974, Note_on_c, 0, 76, 59
2, 108008, Note_on_c, 0, 78, 54
2, 108020, Note_off_c, 0, 76, 0
2, 108061, Note_on_c, 0, 76, 73
2, 108063, Note_off_c, 0, 78, 0
2, 108111, Note_on_c, 0, 78, 58
2, 108117, Note_off_c, 0, 76, 0
2, 108143, Note_off_c, 0, 78, 0
2, 108151, Note_on_c, 0, 76, 66
2, 108191, Note_on_c, 0, 78, 73
2, 108210, Note_off_c, 0, 76, 0
2, 108252, Note_on_c, 0, 76, 65
2, 108262, Note_off_c, 0, 78, 0
2, 108339, Note_on_c, 0, 74, 65
2, 108358, Note_off_c, 0, 76, 0
2, 108433, Note_on_c, 0, 76, 58
2, 108443, Note_off_c, 0, 74, 0
2, 108532, Note_on_c, 0, 74, 67
2, 108555, Note_off_c, 0, 76, 0
2, 108714, Note_off_c, 0, 74, 0
2, 108929, Note_on_c, 0, 81, 61
2, 109090, Note_on_c, 0, 79, 60
2, 109183, Note_off_c, 0, 81, 0
2, 109260, Note_on_c, 0, 78, 61
2, 109290, Note_off_c, 0, 79, 0
2, 109484, Note_on_c, 0, 83, 64
2, 109562, Note_off_c, 0, 78, 0
2, 109992, Note_on_c, 0, 79, 54
2, 109994, Note_off_c, 0, 83, 0
2, 110161, Note_on_c, 0, 78, 45
2, 110176, Note_off_c, 0, 79, 0
2, 110329, Note_on_c, 0, 76, 47
2, 110358, Note_off_c, 0, 78, 0
2, 110502, Note_on_c, 0, 74, 42
2, 110504, Note_off_c, 0, 76, 0
2, 110592, Note_off_c, 0, 74, 0
2, 111616, Note_on_c, 0, 78, 50
2, 111654, Note_on_c, 0, 76, 56
2, 111660, Note_off_c, 0, 78, 0
2, 111700, Note_off_c, 0, 76, 0
2, 111708, Note_on_c, 0, 78, 47
2, 111743, Note_on_c, 0, 76, 59
2, 111781, Note_off_c, 0, 76, 0
2, 111830, Note_on_c, 0, 76, 75
2, 111838, Note_off_c, 0, 78, 0
2, 111868, Note_on_c, 0, 78, 44
2, 111877, Note_off_c, 0, 76, 0
2, 111924, Note_off_c, 0, 78, 0
2, 111927, Note_on_c, 0, 76, 72
2, 111962, Note_off_c, 0, 76, 0
2, 111962, Note_on_c, 0, 78, 52
2, 112014, Note_off_c, 0, 78, 0
2, 112020, Note_on_c, 0, 76, 78
2, 112048, Note_on_c, 0, 78, 49
2, 112057, Note_off_c, 0, 76, 0
2, 112096, Note_off_c, 0, 78, 0
2, 112102, Note_on_c, 0, 76, 63
2, 112134, Note_on_c, 0, 78, 47
2, 112144, Note_off_c, 0, 76, 0
2, 112194, Note_on_c, 0, 76, 75
2, 112255, Note_off_c, 0, 78, 0
2, 112323, Note_on_c, 0, 78, 77
2, 112373, Note_off_c, 0, 76, 0
2, 112433, Note_on_c, 0, 76, 61
2, 112439, Note_off_c, 0, 78, 0
2, 112497, Note_on_c, 0, 74, 61
2, 112499, Note_off_c, 0, 76, 0
2, 112536, Note_off_c, 0, 74, 0
2, 112539, Note_on_c, 0, 76, 66
2, 112604, Note_off_c, 0, 76, 0
2, 112612, Note_on_c, 0, 74, 49
2, 113009, Note_off_c, 0, 74, 0
2, 113653, Note_on_c, 0, 69, 46
2, 113777, Note_on_c, 0, 67, 48
2, 113799, Note_off_c, 0, 69, 0
2, 113890, Note_on_c, 0, 66, 53
2, 113921, Note_off_c, 0, 67, 0
2, 114001, Note_on_c, 0, 64, 49
2, 114029, Note_off_c, 0, 66, 0
2, 114124, Note_off_c, 0, 64, 0
2, 114190, Note_on_c, 0, 62, 55
2, 114680, Note_on_c, 0, 74, 46
2, 114688, Note_on_c, 0, 71, 56
2, 114696, Note_off_c, 0, 62, 0
2, 115175, Note_on_c, 0, 73, 42
2, 115180, Note_on_c, 0, 69, 57
2, 115186, Note_off_c, 0, 74, 0
2, 115204, Note_off_c, 0, 71, 0
2, 115654, Note_off_c, 0, 69, 0
2, 115672, Note_on_c, 0, 71, 55
2, 115674, Note_off_c, 0, 73, 0
2, 115677, Note_on_c, 0, 67, 49
2, 116016, Note_off_c, 0, 67, 0
2, 116110, Note_off_c, 0, 71, 0
2, 116191, Note_on_c, 0, 69, 37
2, 116192, Note_on_c, 0, 66, 52
2, 117368, Note_off_c, 0, 69, 0
2, 117406, Note_off_c, 0, 66, 0
2, 117737, Note_on_c, 0, 71, 61
2, 117740, Note_on_c, 0, 67, 51
2, 118220, Note_off_c, 0, 67, 0
2, 118234, Note_on_c, 0, 69, 62
2, 118235, Note_on_c, 0, 72, 67
2, 118272, Note_off_c, 0, 71, 0
2, 119039, Note_off_c, 0, 69, 0
2, 119062, Note_off_c, 0, 72, 0
2, 119774, Note_on_c, 0, 76, 64
2, 119923, Note_on_c, 0, 74, 69
2, 119986, Note_off_c, 0, 76, 0
2, 120070, Note_on_c, 0, 72, 66
2, 120112, Note_off_c, 0, 74, 0
2, 120244, Note_on_c, 0, 71, 65
2, 120251, Note_off_c, 0, 72, 0
2, 120347, Note_off_c, 0, 71, 0
2, 120795, Note_on_c, 0, 79, 56
2, 121292, Note_on_c, 0, 78, 45
2, 121304, Note_off_c, 0, 79, 0
2, 121843, Note_off_c, 0, 78, 0
2, 121893, Note_on_c, 0, 76, 26
2, 121911, Note_on_c, 0, 72, 32
2, 122062, Note_off_c, 0, 76, 0
2, 122099, Note_off_c, 0, 72, 0
2, 122362, Note_on_c, 0, 74, 40
2, 122374, Note_on_c, 0, 71, 44
2, 123679, Note_off_c, 0, 71, 0
2, 123825, Note_off_c, 0, 74, 0
2, 123854, Note_on_c, 0, 76, 55
2, 123856, Note_on_c, 0, 72, 45
2, 124085, Note_off_c, 0, 72, 0
2, 124087, Note_off_c, 0, 76, 0
2, 124351, Note_on_c, 0, 77, 64
2, 124352, Note_on_c, 0, 74, 66
2, 124416, Note_off_c, 0, 77, 0
2, 125320, Note_off_c, 0, 74, 0
2, 125902, Note_on_c, 0, 81, 65
2, 126087, Note_on_c, 0, 79, 74
2, 126130, Note_off_c, 0, 81, 0
2, 126243, Note_on_c, 0, 77, 53
2, 126295, Note_off_c, 0, 79, 0
2, 126440, Note_off_c, 0, 77, 0
2, 126441, Note_on_c, 0, 76, 57
2, 126459, Note_on_c, 0, 60, 47
2, 126632, Note_off_c, 0, 60, 0
2, 126723, Note_on_c, 0, 67, 43
2, 126743, Note_off_c, 0, 76, 0
2, 126914, Note_off_c, 0, 67, 0
2, 126959, Note_on_c, 0, 60, 43
2, 126966, Note_on_c, 0, 79, 53
2, 127165, Note_off_c, 0, 60, 0
2, 127213, Note_on_c, 0, 67, 40
2, 127266, Note_off_c, 0, 79, 0
2, 127400, Note_off_c, 0, 67, 0
2, 127460, Note_on_c, 0, 60, 45
2, 127671, Note_off_c, 0, 60, 0
2, 127750, Note_on_c, 0, 67, 32
2, 127879, Note_off_c, 0, 67, 0
2, 127992, Note_on_c, 0, 79, 62
2, 128008, Note_on_c, 0, 60, 55
2, 128137, Note_off_c, 0, 60, 0
2, 128196, Note_off_c, 0, 79, 0
2, 128270, Note_on_c, 0, 67, 43
2, 128368, Note_off_c, 0, 67, 0
2, 128515, Note_on_c, 0, 77, 56
2, 128697, Note_off_c, 0, 77, 0
2, 128766, Note_on_c, 0, 67, 41
2, 128887, Note_off_c, 0, 67, 0
2, 128998, Note_on_c, 0, 74, 61
2, 129131, Note_off_c, 0, 74, 0
2, 129285, Note_on_c, 0, 67, 33
2, 129392, Note_off_c, 0, 67, 0
2, 129799, Note_on_c, 0, 67, 41
2, 129896, Note_off_c, 0, 67, 0
2, 130046, Note_on_c, 0, 77, 67
2, 130131, Note_off_c, 0, 77, 0
2, 130276, Note_on_c, 0, 67, 37
2, 130479, Note_off_c, 0, 67, 0
2, 130536, Note_on_c, 0, 76, 67
2, 130556, Note_on_c, 0, 60, 42
2, 130727, Note_off_c, 0, 60, 0
2, 130733, Note_off_c, 0, 76, 0
2, 130814, Note_on_c, 0, 67, 39
2, 130931, Note_off_c, 0, 67, 0
2, 131044, Note_on_c, 0, 60, 51
2, 131044, Note_on_c, 0, 79, 72
2, 131149, Note_off_c, 0, 79, 0
2, 131189, Note_off_c, 0, 60, 0
2, 131324, Note_on_c, 0, 67, 31
2, 131435, Note_off_c, 0, 67, 0
2, 131557, Note_on_c, 0, 60, 38
2, 131691, Note_off_c, 0, 60, 0
2, 131849, Note_on_c, 0, 67, 25
2, 131944, Note_off_c, 0, 67, 0
2, 132094, Note_on_c, 0, 79, 74
2, 132097, Note_on_c, 0, 60, 45
2, 132211, Note_off_c, 0, 79, 0
2, 132218, Note_off_c, 0, 60, 0
2, 132345, Note_on_c, 0, 67, 29
2, 132486, Note_off_c, 0, 67, 0
2, 132598, Note_on_c, 0, 77, 75
2, 132845, Note_on_c, 0, 67, 31
2, 133067, Note_off_c, 0, 67, 0
2, 133081, Note_on_c, 0, 74, 60
2, 133355, Note_on_c, 0, 67, 41
2, 133636, Note_off_c, 0, 67, 0
2, 133895, Note_on_c, 0, 67, 35
2, 133896, Note_off_c, 0, 77, 0
2, 134085, Note_off_c, 0, 74, 0
2, 134154, Note_on_c, 0, 77, 73
2, 134168, Note_off_c, 0, 67, 0
2, 134414, Note_on_c, 0, 67, 37
2, 134656, Note_off_c, 0, 77, 0
2, 134670, Note_off_c, 0, 67, 0
2, 134674, Note_on_c, 0, 76, 67
2, 134683, Note_on_c, 0, 60, 36
2, 134876, Note_off_c, 0, 60, 0
2, 134910, Note_on_c, 0, 67, 43
2, 135156, Note_on_c, 0, 60, 51
2, 135157, Note_on_c, 0, 79, 66
2, 135177, Note_off_c, 0, 67, 0
2, 135190, Note_off_c, 0, 76, 0
2, 135357, Note_off_c, 0, 60, 0
2, 135403, Note_on_c, 0, 67, 28
2, 135464, Note_off_c, 0, 79, 0
2, 135642, Note_on_c, 0, 60, 48
2, 135688, Note_off_c, 0, 67, 0
2, 135887, Note_off_c, 0, 60, 0
2, 135913, Note_on_c, 0, 67, 43
2, 136122, Note_off_c, 0, 67, 0
2, 136132, Note_on_c, 0, 60, 53
2, 136134, Note_on_c, 0, 76, 70
2, 136275, Note_off_c, 0, 76, 0
2, 136310, Note_off_c, 0, 60, 0
2, 136418, Note_on_c, 0, 67, 36
2, 136631, Note_off_c, 0, 67, 0
2, 136648, Note_on_c, 0, 61, 38
2, 136653, Note_on_c, 0, 76, 74
2, 136893, Note_on_c, 0, 69, 33
2, 136926, Note_off_c, 0, 61, 0
2, 137179, Note_on_c, 0, 81, 83
2, 137184, Note_on_c, 0, 61, 43
2, 137212, Note_off_c, 0, 69, 0
2, 137222, Note_off_c, 0, 76, 0
2, 137457, Note_on_c, 0, 69, 44
2, 137467, Note_off_c, 0, 61, 0
2, 137704, Note_on_c, 0, 61, 36
2, 137717, Note_off_c, 0, 69, 0
2, 137956, Note_on_c, 0, 69, 31
2, 137975, Note_off_c, 0, 61, 0
2, 138204, Note_on_c, 0, 79, 54
2, 138213, Note_on_c, 0, 61, 43
2, 138265, Note_off_c, 0, 69, 0
2, 138321, Note_off_c, 0, 81, 0
2, 138473, Note_off_c, 0, 61, 0
2, 138476, Note_on_c, 0, 69, 41
2, 138730, Note_on_c, 0, 62, 51
2, 138745, Note_on_c, 0, 78, 53
2, 138752, Note_off_c, 0, 79, 0
2, 138752, Note_off_c, 0, 69, 0
2, 138992, Note_on_c, 0, 69, 43
2, 139000, Note_off_c, 0, 62, 0
2, 139200, Note_off_c, 0, 69, 0
2, 139249, Note_on_c, 0, 62, 42
2, 139253, Note_off_c, 0, 78, 0
2, 139270, Note_on_c, 0, 74, 65
2, 139466, Note_off_c, 0, 62, 0
2, 139492, Note_on_c, 0, 69, 38
2, 139715, Note_off_c, 0, 69, 0
2, 139750, Note_on_c, 0, 62, 33
2, 139996, Note_on_c, 0, 69, 42
2, 140001, Note_off_c, 0, 62, 0
2, 140259, Note_on_c, 0, 78, 64
2, 140268, Note_off_c, 0, 69, 0
2, 140276, Note_on_c, 0, 62, 51
2, 140330, Note_off_c, 0, 74, 0
2, 140437, Note_off_c, 0, 62, 0
2, 140531, Note_on_c, 0, 69, 43
2, 140735, Note_off_c, 0, 69, 0
2, 140765, Note_on_c, 0, 61, 38
2, 140783, Note_on_c, 0, 76, 61
2, 140800, Note_off_c, 0, 78, 0
2, 141009, Note_off_c, 0, 61, 0
2, 141028, Note_on_c, 0, 69, 40
2, 141284, Note_on_c, 0, 61, 37
2, 141285, Note_off_c, 0, 69, 0
2, 141304, Note_on_c, 0, 81, 67
2, 141352, Note_off_c, 0, 76, 0
2, 141508, Note_off_c, 0, 61, 0
2, 141545, Note_on_c, 0, 69, 27
2, 141796, Note_on_c, 0, 61, 41
2, 141825, Note_off_c, 0, 69, 0
2, 142020, Note_off_c, 0, 61, 0
2, 142046, Note_on_c, 0, 69, 42
2, 142285, Note_off_c, 0, 81, 0
2, 142290, Note_off_c, 0, 69, 0
2, 142316, Note_on_c, 0, 61, 35
2, 142323, Note_on_c, 0, 79, 73
2, 142475, Note_off_c, 0, 61, 0
2, 142549, Note_on_c, 0, 69, 35
2, 142809, Note_off_c, 0, 69, 0
2, 142833, Note_on_c, 0, 62, 37
2, 142838, Note_on_c, 0, 78, 54
2, 142848, Note_off_c, 0, 79, 0
2, 143059, Note_off_c, 0, 62, 0
2, 143096, Note_on_c, 0, 69, 33
2, 143318, Note_off_c, 0, 78, 0
2, 143321, Note_off_c, 0, 69, 0
2, 143335, Note_on_c, 0, 74, 68
2, 143339, Note_on_c, 0, 62, 47
2, 143558, Note_off_c, 0, 62, 0
2, 143601, Note_on_c, 0, 69, 36
2, 143836, Note_off_c, 0, 69, 0
2, 143848, Note_on_c, 0, 62, 41
2, 144091, Note_off_c, 0, 62, 0
2, 144142, Note_on_c, 0, 69, 34
2, 144391, Note_on_c, 0, 78, 67
2, 144398, Note_on_c, 0, 62, 53
2, 144406, Note_off_c, 0, 69, 0
2, 144436, Note_off_c, 0, 74, 0
2, 144579, Note_off_c, 0, 62, 0
2, 144630, Note_off_c, 0, 78, 0
2, 144675, Note_on_c, 0, 69, 45
2, 144851, Note_off_c, 0, 69, 0
2, 144919, Note_on_c, 0, 63, 38
2, 144926, Note_on_c, 0, 78, 83
2, 145109, Note_off_c, 0, 63, 0
2, 145175, Note_on_c, 0, 71, 45
2, 145328, Note_off_c, 0, 71, 0
2, 145393, Note_off_c, 0, 78, 0
2, 145409, Note_on_c, 0, 83, 74
2, 145424, Note_on_c, 0, 63, 39
2, 145596, Note_off_c, 0, 63, 0
2, 145704, Note_on_c, 0, 71, 38
2, 145920, Note_off_c, 0, 71, 0
2, 145950, Note_on_c, 0, 63, 41
2, 146133, Note_off_c, 0, 63, 0
2, 146207, Note_on_c, 0, 71, 31
2, 146372, Note_off_c, 0, 71, 0
2, 146436, Note_on_c, 0, 81, 70
2, 146448, Note_on_c, 0, 63, 47
2, 146480, Note_off_c, 0, 83, 0
2, 146667, Note_off_c, 0, 63, 0
2, 146692, Note_on_c, 0, 71, 39
2, 146933, Note_off_c, 0, 71, 0
2, 146934, Note_on_c, 0, 79, 68
2, 146942, Note_on_c, 0, 64, 40
2, 146944, Note_off_c, 0, 81, 0
2, 147180, Note_off_c, 0, 64, 0
2, 147222, Note_on_c, 0, 71, 31
2, 147338, Note_off_c, 0, 71, 0
2, 147425, Note_off_c, 0, 79, 0
2, 147430, Note_on_c, 0, 76, 65
2, 147450, Note_on_c, 0, 64, 47
2, 147594, Note_off_c, 0, 64, 0
2, 147700, Note_on_c, 0, 71, 38
2, 147852, Note_off_c, 0, 71, 0
2, 147949, Note_on_c, 0, 64, 47
2, 148108, Note_off_c, 0, 64, 0
2, 148196, Note_on_c, 0, 71, 42
2, 148313, Note_off_c, 0, 71, 0
2, 148471, Note_on_c, 0, 79, 90
2, 148492, Note_on_c, 0, 64, 43
2, 148500, Note_off_c, 0, 76, 0
2, 148650, Note_off_c, 0, 64, 0
2, 148754, Note_on_c, 0, 71, 36
2, 148895, Note_off_c, 0, 71, 0
2, 148984, Note_on_c, 0, 63, 38
2, 148992, Note_off_c, 0, 79, 0
2, 148996, Note_on_c, 0, 78, 60
2, 149179, Note_off_c, 0, 63, 0
2, 149237, Note_on_c, 0, 71, 39
2, 149484, Note_on_c, 0, 83, 50
2, 149501, Note_off_c, 0, 71, 0
2, 149514, Note_on_c, 0, 63, 36
2, 149555, Note_off_c, 0, 78, 0
2, 149728, Note_off_c, 0, 63, 0
2, 149753, Note_on_c, 0, 71, 45
2, 149883, Note_off_c, 0, 71, 0
2, 149989, Note_on_c, 0, 63, 43
2, 150214, Note_off_c, 0, 63, 0
2, 150269, Note_on_c, 0, 71, 33
2, 150441, Note_off_c, 0, 71, 0
2, 150500, Note_on_c, 0, 63, 47
2, 150507, Note_on_c, 0, 81, 61
2, 150544, Note_off_c, 0, 83, 0
2, 150739, Note_off_c, 0, 63, 0
2, 150772, Note_on_c, 0, 71, 40
2, 150959, Note_off_c, 0, 71, 0
2, 151019, Note_on_c, 0, 64, 49
2, 151020, Note_on_c, 0, 79, 65
2, 151040, Note_off_c, 0, 81, 0
2, 151285, Note_off_c, 0, 79, 0
2, 151524, Note_on_c, 0, 71, 77
2, 151694, Note_on_c, 0, 73, 78
2, 151742, Note_off_c, 0, 71, 0
2, 151850, Note_on_c, 0, 75, 69
2, 151888, Note_off_c, 0, 73, 0
2, 152010, Note_on_c, 0, 76, 74
2, 152019, Note_off_c, 0, 75, 0
2, 152192, Note_on_c, 0, 78, 56
2, 152298, Note_off_c, 0, 64, 0
2, 152300, Note_off_c, 0, 76, 0
2, 152370, Note_on_c, 0, 79, 92
2, 152413, Note_off_c, 0, 78, 0
2, 152565, Note_on_c, 0, 78, 64
2, 152567, Note_on_c, 0, 63, 54
2, 152587, Note_off_c, 0, 79, 0
2, 152735, Note_on_c, 0, 79, 78
2, 152868, Note_off_c, 0, 78, 0
2, 152883, Note_on_c, 0, 81, 78
2, 152912, Note_off_c, 0, 79, 0
2, 153088, Note_off_c, 0, 63, 0
2, 153088, Note_off_c, 0, 81, 0
2, 153093, Note_on_c, 0, 64, 49
2, 153096, Note_on_c, 0, 79, 66
2, 153408, Note_off_c, 0, 79, 0
2, 153570, Note_on_c, 0, 71, 74
2, 153741, Note_on_c, 0, 73, 42
2, 153797, Note_off_c, 0, 71, 0
2, 153891, Note_on_c, 0, 75, 49
2, 153926, Note_off_c, 0, 73, 0
2, 154026, Note_off_c, 0, 75, 0
2, 154058, Note_on_c, 0, 76, 66
2, 154229, Note_on_c, 0, 78, 46
2, 154263, Note_off_c, 0, 76, 0
2, 154356, Note_off_c, 0, 64, 0
2, 154384, Note_on_c, 0, 79, 61
2, 154426, Note_off_c, 0, 78, 0
2, 154583, Note_on_c, 0, 78, 52
2, 154589, Note_on_c, 0, 63, 42
2, 154601, Note_off_c, 0, 79, 0
2, 154744, Note_on_c, 0, 79, 55
2, 154791, Note_off_c, 0, 78, 0
2, 154874, Note_off_c, 0, 63, 0
2, 154898, Note_on_c, 0, 81, 57
2, 154911, Note_off_c, 0, 79, 0
2, 155122, Note_on_c, 0, 79, 66
2, 155126, Note_on_c, 0, 64, 41
2, 155136, Note_off_c, 0, 81, 0
2, 155525, Note_off_c, 0, 64, 0
2, 155586, Note_on_c, 0, 83, 58
2, 155629, Note_off_c, 0, 79, 0
2, 155768, Note_on_c, 0, 81, 48
2, 155791, Note_off_c, 0, 83, 0
2, 155953, Note_off_c, 0, 81, 0
2, 155959, Note_on_c, 0, 79, 57
2, 156115, Note_off_c, 0, 79, 0
2, 156122, Note_on_c, 0, 84, 75
2, 156144, Note_on_c, 0, 69, 46
2, 156621, Note_on_c, 0, 81, 55
2, 156631, Note_off_c, 0, 84, 0
2, 156789, Note_on_c, 0, 79, 61
2, 156820, Note_off_c, 0, 81, 0
2, 156965, Note_on_c, 0, 78, 41
2, 156972, Note_off_c, 0, 79, 0
2, 157127, Note_on_c, 0, 76, 51
2, 157184, Note_off_c, 0, 69, 0
2, 157184, Note_off_c, 0, 78, 0
2, 157652, Note_on_c, 0, 67, 49
2, 157962, Note_off_c, 0, 67, 0
2, 158075, Note_off_c, 0, 76, 0
2, 158175, Note_on_c, 0, 78, 73
2, 158180, Note_on_c, 0, 69, 52
2, 158337, Note_off_c, 0, 78, 0
2, 158341, Note_on_c, 0, 79, 53
2, 158393, Note_off_c, 0, 69, 0
2, 158431, Note_on_c, 0, 78, 74
2, 158444, Note_off_c, 0, 79, 0
2, 158495, Note_off_c, 0, 78, 0
2, 158500, Note_on_c, 0, 79, 52
2, 158549, Note_on_c, 0, 78, 66
2, 158551, Note_off_c, 0, 79, 0
2, 158607, Note_on_c, 0, 79, 83
2, 158609, Note_off_c, 0, 78, 0
2, 158653, Note_on_c, 0, 71, 32
2, 158656, Note_on_c, 0, 78, 59
2, 158673, Note_off_c, 0, 79, 0
2, 158692, Note_on_c, 0, 79, 61
2, 158701, Note_off_c, 0, 78, 0
2, 158739, Note_off_c, 0, 79, 0
2, 158742, Note_on_c, 0, 78, 73
2, 158770, Note_off_c, 0, 71, 0
2, 158805, Note_off_c, 0, 78, 0
2, 158842, Note_on_c, 0, 78, 59
2, 158886, Note_on_c, 0, 79, 55
2, 158888, Note_off_c, 0, 78, 0
2, 159005, Note_on_c, 0, 78, 46
2, 159026, Note_off_c, 0, 79, 0
2, 159083, Note_on_c, 0, 76, 37
2, 159087, Note_off_c, 0, 78, 0
2, 159139, Note_on_c, 0, 78, 52
2, 159157, Note_off_c, 0, 76, 0
2, 159218, Note_on_c, 0, 64, 47
2, 159232, Note_off_c, 0, 78, 0
2, 159240, Note_on_c, 0, 76, 57
2, 159696, Note_on_c, 0, 83, 62
2, 159711, Note_off_c, 0, 76, 0
2, 159815, Note_off_c, 0, 64, 0
2, 159849, Note_on_c, 0, 81, 55
2, 159908, Note_off_c, 0, 83, 0
2, 160013, Note_off_c, 0, 81, 0
2, 160019, Note_on_c, 0, 79, 38
2, 160223, Note_off_c, 0, 79, 0
2, 160225, Note_on_c, 0, 84, 52
2, 160244, Note_on_c, 0, 69, 31
2, 160738, Note_on_c, 0, 81, 54
2, 160799, Note_off_c, 0, 84, 0
2, 160907, Note_on_c, 0, 79, 47
2, 160962, Note_off_c, 0, 81, 0
2, 161052, Note_on_c, 0, 78, 46
2, 161103, Note_off_c, 0, 79, 0
2, 161234, Note_on_c, 0, 76, 56
2, 161280, Note_off_c, 0, 69, 0
2, 161280, Note_off_c, 0, 78, 0
2, 161764, Note_on_c, 0, 67, 46
2, 162027, Note_off_c, 0, 67, 0
2, 162252, Note_on_c, 0, 78, 46
2, 162254, Note_on_c, 0, 69, 39
2, 162359, Note_off_c, 0, 76, 0
2, 162392, Note_on_c, 0, 79, 66
2, 162433, Note_off_c, 0, 78, 0
2, 162508, Note_on_c, 0, 78, 66
2, 162537, Note_off_c, 0, 79, 0
2, 162609, Note_on_c, 0, 79, 66
2, 162625, Note_off_c, 0, 78, 0
2, 162674, Note_off_c, 0, 69, 0
2, 162720, Note_on_c, 0, 78, 67
2, 162732, Note_off_c, 0, 79, 0
2, 162735, Note_on_c, 0, 71, 40
2, 162790, Note_on_c, 0, 79, 78
2, 162806, Note_off_c, 0, 78, 0
2, 162859, Note_on_c, 0, 78, 53
2, 162860, Note_off_c, 0, 79, 0
2, 162890, Note_off_c, 0, 71, 0
2, 162903, Note_on_c, 0, 79, 67
2, 162913, Note_off_c, 0, 78, 0
2, 162947, Note_off_c, 0, 79, 0
2, 162958, Note_on_c, 0, 78, 58
2, 163026, Note_off_c, 0, 78, 0
2, 163049, Note_on_c, 0, 78, 54
2, 163094, Note_on_c, 0, 79, 73
2, 163096, Note_off_c, 0, 78, 0
2, 163145, Note_on_c, 0, 78, 59
2, 163164, Note_off_c, 0, 79, 0
2, 163235, Note_off_c, 0, 78, 0
2, 163244, Note_on_c, 0, 76, 37
2, 163290, Note_on_c, 0, 76, 54
2, 163294, Note_on_c, 0, 64, 49
2, 163328, Note_off_c, 0, 76, 0
2, 164456, Note_off_c, 0, 64, 0
2, 164492, Note_off_c, 0, 76, 0
2, 165930, Note_on_c, 0, 79, 64
2, 165934, Note_on_c, 0, 71, 51
2, 166032, Note_off_c, 0, 71, 0
2, 166038, Note_off_c, 0, 79, 0
2, 166453, Note_on_c, 0, 79, 70
2, 166456, Note_on_c, 0, 71, 59
2, 166915, Note_on_c, 0, 64, 54
2, 167038, Note_on_c, 0, 62, 52
2, 167099, Note_off_c, 0, 64, 0
2, 167141, Note_on_c, 0, 61, 32
2, 167176, Note_off_c, 0, 62, 0
2, 167319, Note_off_c, 0, 61, 0
2, 167323, Note_off_c, 0, 71, 0
2, 167339, Note_off_c, 0, 79, 0
2, 167932, Note_on_c, 0, 81, 60
2, 167942, Note_on_c, 0, 73, 47
2, 168060, Note_off_c, 0, 73, 0
2, 168068, Note_off_c, 0, 81, 0
2, 168426, Note_on_c, 0, 81, 64
2, 168436, Note_on_c, 0, 73, 51
2, 169434, Note_off_c, 0, 81, 0
2, 169449, Note_off_c, 0, 73, 0
2, 169989, Note_on_c, 0, 78, 57
2, 169997, Note_on_c, 0, 69, 56
2, 170087, Note_off_c, 0, 69, 0
2, 170115, Note_off_c, 0, 78, 0
2, 170506, Note_on_c, 0, 78, 62
2, 170510, Note_on_c, 0, 69, 60
2, 171061, Note_on_c, 0, 62, 49
2, 171193, Note_on_c, 0, 60, 44
2, 171232, Note_off_c, 0, 62, 0
2, 171273, Note_off_c, 0, 69, 0
2, 171298, Note_off_c, 0, 78, 0
2, 171327, Note_off_c, 0, 60, 0
2, 172055, Note_on_c, 0, 79, 54
2, 172062, Note_on_c, 0, 71, 52
2, 172164, Note_off_c, 0, 71, 0
2, 172171, Note_off_c, 0, 79, 0
2, 172528, Note_on_c, 0, 79, 61
2, 172532, Note_on_c, 0, 71, 59
2, 172654, Note_off_c, 0, 79, 0
2, 172689, Note_off_c, 0, 71, 0
2, 173033, Note_on_c, 0, 74, 59
2, 173152, Note_on_c, 0, 72, 59
2, 173304, Note_on_c, 0, 71, 67
2, 173378, Note_off_c, 0, 72, 0
2, 173430, Note_off_c, 0, 74, 0
2, 173430, Note_on_c, 0, 69, 65
2, 173482, Note_off_c, 0, 71, 0
2, 173582, Note_off_c, 0, 69, 0
2, 173584, Note_on_c, 0, 67, 77
2, 174094, Note_off_c, 0, 67, 0
2, 174113, Note_on_c, 0, 79, 57
2, 174114, Note_on_c, 0, 76, 63
2, 174596, Note_on_c, 0, 78, 48
2, 174602, Note_on_c, 0, 74, 54
2, 174619, Note_off_c, 0, 79, 0
2, 174634, Note_off_c, 0, 76, 0
2, 175109, Note_on_c, 0, 76, 50
2, 175122, Note_on_c, 0, 72, 45
2, 175148, Note_off_c, 0, 74, 0
2, 175175, Note_off_c, 0, 78, 0
2, 175346, Note_off_c, 0, 72, 0
2, 175358, Note_off_c, 0, 76, 0
2, 175622, Note_on_c, 0, 74, 52
2, 175626, Note_on_c, 0, 71, 50
2, 176664, Note_off_c, 0, 74, 0
2, 176702, Note_off_c, 0, 71, 0
2, 177104, Note_on_c, 0, 76, 60
2, 177259, Note_on_c, 0, 74, 62
2, 177311, Note_off_c, 0, 76, 0
2, 177409, Note_on_c, 0, 72, 65
2, 177446, Note_off_c, 0, 74, 0
2, 177578, Note_on_c, 0, 71, 70
2, 177600, Note_off_c, 0, 72, 0
2, 177664, Note_off_c, 0, 71, 0
2, 179140, Note_on_c, 0, 71, 56
2, 179248, Note_on_c, 0, 69, 49
2, 179329, Note_off_c, 0, 71, 0
2, 179376, Note_on_c, 0, 67, 58
2, 179433, Note_off_c, 0, 69, 0
2, 179515, Note_on_c, 0, 66, 55
2, 179537, Note_off_c, 0, 67, 0
2, 179662, Note_on_c, 0, 64, 55
2, 179712, Note_off_c, 0, 66, 0
2, 180049, Note_off_c, 0, 64, 0
2, 180164, Note_on_c, 0, 76, 61
2, 180172, Note_on_c, 0, 72, 53
2, 180672, Note_off_c, 0, 72, 0
2, 180680, Note_on_c, 0, 71, 55
2, 180694, Note_on_c, 0, 74, 52
2, 180726, Note_off_c, 0, 76, 0
2, 181064, Note_off_c, 0, 71, 0
2, 181193, Note_off_c, 0, 74, 0
2, 181227, Note_on_c, 0, 72, 48
2, 181234, Note_on_c, 0, 69, 43
2, 181364, Note_off_c, 0, 69, 0
2, 181373, Note_off_c, 0, 72, 0
2, 181742, Note_on_c, 0, 72, 48
2, 181753, Note_on_c, 0, 69, 40
2, 182371, Note_off_c, 0, 72, 0
2, 182410, Note_off_c, 0, 69, 0
2, 182811, Note_on_c, 0, 71, 55
2, 182812, Note_on_c, 0, 67, 53
2, 182976, Note_off_c, 0, 71, 0
2, 183026, Note_off_c, 0, 67, 0
2, 183292, Note_on_c, 0, 71, 47
2, 183298, Note_on_c, 0, 69, 47
2, 183381, Note_off_c, 0, 69, 0
2, 183440, Note_on_c, 0, 69, 41
2, 183462, Note_off_c, 0, 71, 0
2, 183573, Note_on_c, 0, 67, 44
2, 183583, Note_off_c, 0, 69, 0
2, 183702, Note_on_c, 0, 66, 49
2, 183720, Note_off_c, 0, 67, 0
2, 183817, Note_off_c, 0, 66, 0
2, 183836, Note_on_c, 0, 64, 55
2, 184054, Note_off_c, 0, 64, 0
2, 184328, Note_on_c, 0, 69, 60
2, 184329, Note_on_c, 0, 72, 59
2, 184551, Note_off_c, 0, 72, 0
2, 184557, Note_off_c, 0, 69, 0
2, 184835, Note_on_c, 0, 72, 60
2, 184838, Note_on_c, 0, 69, 57
2, 185058, Note_off_c, 0, 72, 0
2, 185077, Note_off_c, 0, 69, 0
2, 185357, Note_on_c, 0, 71, 62
2, 185362, Note_on_c, 0, 67, 56
2, 185555, Note_off_c, 0, 71, 0
2, 185563, Note_off_c, 0, 67, 0
2, 185844, Note_on_c, 0, 67, 61
2, 185845, Note_on_c, 0, 71, 68
2, 186516, Note_off_c, 0, 71, 0
2, 186546, Note_off_c, 0, 67, 0
2, 186899, Note_on_c, 0, 66, 47
2, 186900, Note_on_c, 0, 69, 61
2, 186985, Note_off_c, 0, 69, 0
2, 187024, Note_off_c, 0, 66, 0
2, 187363, Note_on_c, 0, 74, 57
2, 187491, Note_on_c, 0, 72, 54
2, 187547, Note_off_c, 0, 74, 0
2, 187606, Note_on_c, 0, 71, 53
2, 187640, Note_off_c, 0, 72, 0
2, 187727, Note_on_c, 0, 69, 60
2, 187759, Note_off_c, 0, 71, 0
2, 187840, Note_off_c, 0, 69, 0
2, 187860, Note_on_c, 0, 67, 57
2, 188069, Note_off_c, 0, 67, 0
2, 188372, Note_on_c, 0, 79, 54
2, 188381, Note_on_c, 0, 64, 49
2, 188614, Note_on_c, 0, 67, 51
2, 188615, Note_off_c, 0, 79, 0
2, 188872, Note_on_c, 0, 78, 62
2, 188877, Note_on_c, 0, 62, 58
2, 188921, Note_off_c, 0, 67, 0
2, 188954, Note_off_c, 0, 64, 0
2, 189140, Note_on_c, 0, 67, 67
2, 189148, Note_off_c, 0, 78, 0
2, 189375, Note_off_c, 0, 67, 0
2, 189404, Note_on_c, 0, 76, 72
2, 189415, Note_on_c, 0, 60, 52
2, 189431, Note_off_c, 0, 62, 0
2, 189654, Note_on_c, 0, 67, 74
2, 189668, Note_off_c, 0, 76, 0
2, 189884, Note_off_c, 0, 67, 0
2, 189912, Note_on_c, 0, 74, 78
2, 189952, Note_off_c, 0, 60, 0
2, 190180, Note_on_c, 0, 67, 75
2, 190183, Note_off_c, 0, 74, 0
2, 190442, Note_on_c, 0, 72, 77
2, 190455, Note_off_c, 0, 67, 0
2, 190657, Note_off_c, 0, 72, 0
2, 190686, Note_on_c, 0, 67, 78
2, 190966, Note_on_c, 0, 71, 53
2, 191020, Note_off_c, 0, 67, 0
2, 191252, Note_off_c, 0, 71, 0
2, 191491, Note_on_c, 0, 74, 52
2, 191620, Note_on_c, 0, 72, 39
2, 191640, Note_off_c, 0, 74, 0
2, 191747, Note_off_c, 0, 72, 0
2, 191770, Note_on_c, 0, 71, 34
2, 191866, Note_on_c, 0, 69, 39
2, 191876, Note_off_c, 0, 71, 0
2, 192000, Note_off_c, 0, 69, 0
2, 192042, Note_on_c, 0, 67, 23
2, 192390, Note_off_c, 0, 67, 0
2, 192488, Note_on_c, 0, 79, 39
2, 192490, Note_on_c, 0, 64, 39
2, 192693, Note_off_c, 0, 79, 0
2, 192742, Note_on_c, 0, 67, 38
2, 192992, Note_on_c, 0, 78, 28
2, 193009, Note_off_c, 0, 67, 0
2, 193027, Note_on_c, 0, 62, 29
2, 193113, Note_off_c, 0, 64, 0
2, 193278, Note_on_c, 0, 67, 36
2, 193287, Note_off_c, 0, 78, 0
2, 193506, Note_on_c, 0, 76, 54
2, 193510, Note_off_c, 0, 67, 0
2, 193514, Note_on_c, 0, 60, 43
2, 193572, Note_off_c, 0, 62, 0
2, 193765, Note_on_c, 0, 67, 55
2, 193786, Note_off_c, 0, 76, 0
2, 194035, Note_on_c, 0, 74, 64
2, 194048, Note_off_c, 0, 60, 0
2, 194048, Note_off_c, 0, 67, 0
2, 194319, Note_on_c, 0, 67, 69
2, 194323, Note_off_c, 0, 74, 0
2, 194612, Note_on_c, 0, 72, 79
2, 194613, Note_on_c, 0, 71, 75
2, 194653, Note_off_c, 0, 71, 0
2, 194689, Note_off_c, 0, 67, 0
2, 194852, Note_off_c, 0, 72, 0
2, 194860, Note_on_c, 0, 67, 81
2, 195131, Note_on_c, 0, 71, 79
2, 195190, Note_off_c, 0, 67, 0
2, 195578, Note_on_c, 0, 74, 70
2, 195621, Note_off_c, 0, 71, 0
2, 196079, Note_on_c, 0, 72, 53
2, 196096, Note_off_c, 0, 74, 0
2, 196096, Note_on_c, 0, 69, 64
2, 196352, Note_off_c, 0, 69, 0
2, 196361, Note_on_c, 0, 62, 32
2, 196503, Note_off_c, 0, 62, 0
2, 196608, Note_on_c, 0, 66, 64
2, 196608, Note_on_c, 0, 69, 43
2, 196637, Note_off_c, 0, 72, 0
2, 196864, Note_off_c, 0, 66, 0
2, 196890, Note_on_c, 0, 62, 34
2, 197098, Note_off_c, 0, 62, 0
2, 197169, Note_off_c, 0, 69, 0
2, 197392, Note_on_c, 0, 62, 40
2, 197563, Note_off_c, 0, 62, 0
2, 197643, Note_on_c, 0, 69, 55
2, 197643, Note_on_c, 0, 72, 56
2, 197799, Note_off_c, 0, 69, 0
2, 198132, Note_on_c, 0, 71, 59
2, 198135, Note_on_c, 0, 67, 54
2, 198144, Note_off_c, 0, 72, 0
2, 198377, Note_on_c, 0, 62, 40
2, 198477, Note_off_c, 0, 71, 0
2, 198536, Note_off_c, 0, 67, 0
2, 198648, Note_on_c, 0, 71, 48
2, 198650, Note_on_c, 0, 74, 53
2, 198660, Note_off_c, 0, 62, 0
2, 198902, Note_on_c, 0, 62, 56
2, 199170, Note_off_c, 0, 62, 0
2, 199409, Note_on_c, 0, 62, 45
2, 199466, Note_off_c, 0, 71, 0
2, 199468, Note_off_c, 0, 74, 0
2, 199650, Note_on_c, 0, 74, 56
2, 199654, Note_on_c, 0, 71, 52
2, 199723, Note_off_c, 0, 62, 0
2, 199926, Note_on_c, 0, 62, 51
2, 200175, Note_on_c, 0, 72, 53
2, 200192, Note_off_c, 0, 71, 0
2, 200192, Note_off_c, 0, 74, 0
2, 200192, Note_off_c, 0, 62, 0
2, 200192, Note_on_c, 0, 69, 64
2, 200448, Note_off_c, 0, 69, 0
2, 200457, Note_on_c, 0, 62, 32
2, 200599, Note_off_c, 0, 62, 0
2, 200704, Note_on_c, 0, 66, 64
2, 200704, Note_on_c, 0, 69, 43
2, 200733, Note_off_c, 0, 72, 0
2, 200960, Note_off_c, 0, 66, 0
2, 200986, Note_on_c, 0, 62, 34
2, 201194, Note_off_c, 0, 62, 0
2, 201265, Note_off_c, 0, 69, 0
2, 201488, Note_on_c, 0, 62, 40
2, 201659, Note_off_c, 0, 62, 0
2, 201739, Note_on_c, 0, 69, 55
2, 201739, Note_on_c, 0, 72, 56
2, 201895, Note_off_c, 0, 69, 0
2, 202240, Note_off_c, 0, 72, 0
2, 202247, Note_on_c, 0, 71, 60
2, 202250, Note_on_c, 0, 67, 50
2, 202479, Note_on_c, 0, 62, 40
2, 202535, Note_off_c, 0, 71, 0
2, 202637, Note_off_c, 0, 67, 0
2, 202760, Note_on_c, 0, 71, 55
2, 202765, Note_on_c, 0, 74, 56
2, 202770, Note_off_c, 0, 62, 0
2, 203032, Note_on_c, 0, 62, 41
2, 203273, Note_off_c, 0, 62, 0
2, 203415, Note_off_c, 0, 74, 0
2, 203434, Note_off_c, 0, 71, 0
2, 203537, Note_on_c, 0, 62, 30
2, 203772, Note_on_c, 0, 74, 59
2, 203774, Note_off_c, 0, 62, 0
2, 204039, Note_on_c, 0, 62, 43
2, 204262, Note_off_c, 0, 62, 0
2, 204278, Note_off_c, 0, 74, 0
2, 204280, Note_on_c, 0, 72, 66
2, 204293, Note_on_c, 0, 71, 51
2, 204338, Note_off_c, 0, 71, 0
2, 204565, Note_on_c, 0, 62, 46
2, 204808, Note_on_c, 0, 69, 61
2, 204827, Note_off_c, 0, 72, 0
2, 204830, Note_off_c, 0, 62, 0
2, 205096, Note_on_c, 0, 62, 37
2, 205253, Note_off_c, 0, 62, 0
2, 205327, Note_off_c, 0, 69, 0
2, 205556, Note_on_c, 0, 62, 40
2, 205666, Note_off_c, 0, 62, 0
2, 205805, Note_on_c, 0, 72, 59
2, 205807, Note_on_c, 0, 69, 54
2, 206019, Note_off_c, 0, 69, 0
2, 206025, Note_off_c, 0, 72, 0
2, 206041, Note_on_c, 0, 62, 43
2, 206328, Note_on_c, 0, 71, 59
2, 206336, Note_off_c, 0, 62, 0
2, 206336, Note_on_c, 0, 67, 53
2, 206490, Note_off_c, 0, 71, 0
2, 206545, Note_off_c, 0, 67, 0
2, 206806, Note_on_c, 0, 62, 65
2, 206980, Note_on_c, 0, 64, 62
2, 207011, Note_off_c, 0, 62, 0
2, 207135, Note_on_c, 0, 66, 38
2, 207140, Note_off_c, 0, 64, 0
2, 207213, Note_off_c, 0, 66, 0
2, 207324, Note_on_c, 0, 67, 63
2, 207455, Note_off_c, 0, 67, 0
2, 207516, Note_on_c, 0, 69, 61
2, 207613, Note_off_c, 0, 69, 0
2, 207690, Note_on_c, 0, 71, 52
2, 207867, Note_on_c, 0, 69, 75
2, 207889, Note_off_c, 0, 71, 0
2, 208045, Note_on_c, 0, 71, 75
2, 208100, Note_off_c, 0, 69, 0
2, 208209, Note_on_c, 0, 72, 69
2, 208237, Note_off_c, 0, 71, 0
2, 208384, Note_off_c, 0, 72, 0
2, 208414, Note_on_c, 0, 71, 70
2, 208638, Note_off_c, 0, 71, 0
2, 208902, Note_on_c, 0, 62, 64
2, 209082, Note_on_c, 0, 64, 57
2, 209094, Note_off_c, 0, 62, 0
2, 209231, Note_on_c, 0, 66, 51
2, 209243, Note_off_c, 0, 64, 0
2, 209394, Note_off_c, 0, 66, 0
2, 209411, Note_on_c, 0, 67, 52
2, 209584, Note_off_c, 0, 67, 0
2, 209593, Note_on_c, 0, 69, 56
2, 209764, Note_on_c, 0, 71, 50
2, 209767, Note_off_c, 0, 69, 0
2, 209918, Note_off_c, 0, 71, 0
2, 209919, Note_on_c, 0, 69, 45
2, 210084, Note_on_c, 0, 71, 52
2, 210117, Note_off_c, 0, 69, 0
2, 210251, Note_on_c, 0, 72, 57
2, 210268, Note_off_c, 0, 71, 0
2, 210424, Note_on_c, 0, 71, 61
2, 210432, Note_off_c, 0, 72, 0
2, 210903, Note_on_c, 0, 74, 62
2, 210964, Note_off_c, 0, 71, 0
2, 211080, Note_on_c, 0, 72, 51
2, 211118, Note_off_c, 0, 74, 0
2, 211243, Note_on_c, 0, 71, 65
2, 211253, Note_off_c, 0, 72, 0
2, 211414, Note_on_c, 0, 60, 39
2, 211424, Note_on_c, 0, 76, 61
2, 211432, Note_off_c, 0, 71, 0
2, 211870, Note_off_c, 0, 76, 0
2, 211947, Note_on_c, 0, 72, 66
2, 212095, Note_on_c, 0, 71, 62
2, 212146, Note_off_c, 0, 72, 0
2, 212264, Note_off_c, 0, 71, 0
2, 212266, Note_on_c, 0, 69, 61
2, 212456, Note_off_c, 0, 69, 0
2, 212472, Note_on_c, 0, 67, 58
2, 212480, Note_off_c, 0, 60, 0
2, 213449, Note_on_c, 0, 60, 43
2, 213452, Note_off_c, 0, 67, 0
2, 213462, Note_on_c, 0, 69, 66
2, 213593, Note_on_c, 0, 71, 74
2, 213600, Note_off_c, 0, 69, 0
2, 213696, Note_on_c, 0, 69, 77
2, 213704, Note_off_c, 0, 71, 0
2, 213767, Note_on_c, 0, 71, 58
2, 213768, Note_off_c, 0, 69, 0
2, 213813, Note_off_c, 0, 60, 0
2, 213827, Note_on_c, 0, 69, 73
2, 213829, Note_off_c, 0, 71, 0
2, 213876, Note_on_c, 0, 71, 67
2, 213877, Note_off_c, 0, 69, 0
2, 213886, Note_on_c, 0, 62, 38
2, 213924, Note_on_c, 0, 69, 78
2, 213925, Note_off_c, 0, 71, 0
2, 213967, Note_on_c, 0, 71, 60
2, 213969, Note_off_c, 0, 69, 0
2, 214006, Note_off_c, 0, 62, 0
2, 214008, Note_off_c, 0, 71, 0
2, 214022, Note_on_c, 0, 69, 86
2, 214058, Note_on_c, 0, 71, 74
2, 214066, Note_off_c, 0, 69, 0
2, 214100, Note_off_c, 0, 71, 0
2, 214117, Note_on_c, 0, 69, 78
2, 214155, Note_on_c, 0, 71, 83
2, 214162, Note_off_c, 0, 69, 0
2, 214201, Note_off_c, 0, 71, 0
2, 214203, Note_on_c, 0, 69, 70
2, 214226, Note_on_c, 0, 71, 66
2, 214255, Note_off_c, 0, 69, 0
2, 214281, Note_on_c, 0, 69, 69
2, 214296, Note_off_c, 0, 71, 0
2, 214352, Note_on_c, 0, 67, 52
2, 214353, Note_off_c, 0, 69, 0
2, 214404, Note_on_c, 0, 69, 74
2, 214440, Note_off_c, 0, 67, 0
2, 214487, Note_on_c, 0, 67, 75
2, 214528, Note_off_c, 0, 69, 0
2, 215015, Note_on_c, 0, 74, 59
2, 215026, Note_off_c, 0, 67, 0
2, 215172, Note_on_c, 0, 72, 63
2, 215220, Note_off_c, 0, 74, 0
2, 215331, Note_on_c, 0, 71, 39
2, 215351, Note_off_c, 0, 72, 0
2, 215537, Note_on_c, 0, 60, 30
2, 215538, Note_on_c, 0, 76, 44
2, 215552, Note_off_c, 0, 71, 0
2, 216028, Note_off_c, 0, 76, 0
2, 216046, Note_on_c, 0, 72, 29
2, 216181, Note_on_c, 0, 71, 47
2, 216217, Note_off_c, 0, 72, 0
2, 216357, Note_off_c, 0, 71, 0
2, 216357, Note_on_c, 0, 69, 36
2, 216505, Note_off_c, 0, 69, 0
2, 216521, Note_on_c, 0, 67, 42
2, 216576, Note_off_c, 0, 60, 0
2, 217554, Note_on_c, 0, 69, 42
2, 217564, Note_on_c, 0, 60, 34
2, 217568, Note_off_c, 0, 67, 0
2, 217650, Note_on_c, 0, 71, 43
2, 217654, Note_off_c, 0, 69, 0
2, 217750, Note_on_c, 0, 69, 47
2, 217761, Note_off_c, 0, 71, 0
2, 217827, Note_on_c, 0, 71, 61
2, 217842, Note_off_c, 0, 69, 0
2, 217926, Note_on_c, 0, 69, 46
2, 217936, Note_off_c, 0, 71, 0
2, 217995, Note_on_c, 0, 71, 78
2, 217999, Note_off_c, 0, 69, 0
2, 218011, Note_off_c, 0, 60, 0
2, 218032, Note_on_c, 0, 62, 42
2, 218061, Note_on_c, 0, 69, 49
2, 218074, Note_off_c, 0, 71, 0
2, 218115, Note_on_c, 0, 71, 63
2, 218117, Note_off_c, 0, 69, 0
2, 218156, Note_off_c, 0, 71, 0
2, 218165, Note_on_c, 0, 69, 54
2, 218204, Note_off_c, 0, 62, 0
2, 218213, Note_off_c, 0, 69, 0
2, 218218, Note_on_c, 0, 71, 65
2, 218259, Note_off_c, 0, 71, 0
2, 218266, Note_on_c, 0, 69, 66
2, 218288, Note_on_c, 0, 71, 66
2, 218306, Note_off_c, 0, 69, 0
2, 218349, Note_on_c, 0, 69, 61
2, 218353, Note_off_c, 0, 71, 0
2, 218415, Note_on_c, 0, 67, 59
2, 218420, Note_off_c, 0, 69, 0
2, 218481, Note_on_c, 0, 69, 51
2, 218499, Note_off_c, 0, 67, 0
2, 218578, Note_on_c, 0, 67, 59
2, 218624, Note_off_c, 0, 69, 0
2, 218845, Note_off_c, 0, 67, 0
2, 219637, Note_on_c, 0, 69, 46
2, 219761, Note_on_c, 0, 67, 48
2, 219783, Note_off_c, 0, 69, 0
2, 219874, Note_on_c, 0, 66, 53
2, 219905, Note_off_c, 0, 67, 0
2, 219985, Note_on_c, 0, 64, 49
2, 220013, Note_off_c, 0, 66, 0
2, 220108, Note_off_c, 0, 64, 0
2, 220174, Note_on_c, 0, 62, 55
2, 220664, Note_on_c, 0, 74, 46
2, 220672, Note_on_c, 0, 71, 56
2, 220680, Note_off_c, 0, 62, 0
2, 221159, Note_on_c, 0, 73, 42
2, 221164, Note_on_c, 0, 69, 57
2, 221170, Note_off_c, 0, 74, 0
2, 221188, Note_off_c, 0, 71, 0
2, 221638, Note_off_c, 0, 69, 0
2, 221656, Note_on_c, 0, 71, 55
2, 221658, Note_off_c, 0, 73, 0
2, 221661, Note_on_c, 0, 67, 49
2, 222000, Note_off_c, 0, 67, 0
2, 222094, Note_off_c, 0, 71, 0
2, 222175, Note_on_c, 0, 69, 37
2, 222176, Note_on_c, 0, 66, 52
2, 223352, Note_off_c, 0, 69, 0
2, 223390, Note_off_c, 0, 66, 0
2, 223721, Note_on_c, 0, 71, 61
2, 223724, Note_on_c, 0, 67, 51
2, 224204, Note_off_c, 0, 67, 0
2, 224218, Note_on_c, 0, 69, 62
2, 224219, Note_on_c, 0, 72, 67
2, 224256, Note_off_c, 0, 71, 0
2, 225023, Note_off_c, 0, 69, 0
2, 225046, Note_off_c, 0, 72, 0
2, 225758, Note_on_c, 0, 76, 64
2, 225907, Note_on_c, 0, 74, 69
2, 225970, Note_off_c, 0, 76, 0
2, 226054, Note_on_c, 0, 72, 66
2, 226096, Note_off_c, 0, 74, 0
2, 226228, Note_on_c, 0, 71, 65
2, 226235, Note_off_c, 0, 72, 0
2, 226331, Note_off_c, 0, 71, 0
2, 226779, Note_on_c, 0, 79, 56
2, 227276, Note_on_c, 0, 78, 45
2, 227288, Note_off_c, 0, 79, 0
2, 227827, Note_off_c, 0, 78, 0
2, 227877, Note_on_c, 0, 76, 26
2, 227895, Note_on_c, 0, 72, 32
2, 228046, Note_off_c, 0, 76, 0
2, 228083, Note_off_c, 0, 72, 0
2, 228346, Note_on_c, 0, 74, 40
2, 228358, Note_on_c, 0, 71, 44
2, 229663, Note_off_c, 0, 71, 0
2, 229809, Note_off_c, 0, 74, 0
2, 229838, Note_on_c, 0, 76, 55
2, 229840, Note_on_c, 0, 72, 45
2, 230069, Note_off_c, 0, 72, 0
2, 230071, Note_off_c, 0, 76, 0
2, 230335, Note_on_c, 0, 77, 64
2, 230336, Note_on_c, 0, 74, 66
2, 230400, Note_off_c, 0, 77, 0
2, 231304, Note_off_c, 0, 74, 0
2, 231886, Note_on_c, 0, 81, 65
2, 232071, Note_on_c, 0, 79, 74
2, 232114, Note_off_c, 0, 81, 0
2, 232227, Note_on_c, 0, 77, 53
2, 232279, Note_off_c, 0, 79, 0
2, 232424, Note_off_c, 0, 77, 0
2, 232425, Note_on_c, 0, 76, 57
2, 232443, Note_on_c, 0, 60, 47
2, 232616, Note_off_c, 0, 60, 0
2, 232707, Note_on_c, 0, 67, 43
2, 232727, Note_off_c, 0, 76, 0
2, 232898, Note_off_c, 0, 67, 0
2, 232943, Note_on_c, 0, 60, 43
2, 232950, Note_on_c, 0, 79, 53
2, 233149, Note_off_c, 0, 60, 0
2, 233197, Note_on_c, 0, 67, 40
2, 233250, Note_off_c, 0, 79, 0
2, 233384, Note_off_c, 0, 67, 0
2, 233444, Note_on_c, 0, 60, 45
2, 233655, Note_off_c, 0, 60, 0
2, 233734, Note_on_c, 0, 67, 32
2, 233863, Note_off_c, 0, 67, 0
2, 233976, Note_on_c, 0, 79, 62
2, 233992, Note_on_c, 0, 60, 55
2, 234121, Note_off_c, 0, 60, 0
2, 234180, Note_off_c, 0, 79, 0
2, 234254, Note_on_c, 0, 67, 43
2, 234352, Note_off_c, 0, 67, 0
2, 234499, Note_on_c, 0, 77, 56
2, 234681, Note_off_c, 0, 77, 0
2, 234750, Note_on_c, 0, 67, 41
2, 234871, Note_off_c, 0, 67, 0
2, 234982, Note_on_c, 0, 74, 61
2, 235115, Note_off_c, 0, 74, 0
2, 235269, Note_on_c, 0, 67, 33
2, 235376, Note_off_c, 0, 67, 0
2, 235783, Note_on_c, 0, 67, 41
2, 235880, Note_off_c, 0, 67, 0
2, 236030, Note_on_c, 0, 77, 67
2, 236115, Note_off_c, 0, 77, 0
2, 236260, Note_on_c, 0, 67, 37
2, 236463, Note_off_c, 0, 67, 0
2, 236520, Note_on_c, 0, 76, 67
2, 236540, Note_on_c, 0, 60, 42
2, 236711, Note_off_c, 0, 60, 0
2, 236717, Note_off_c, 0, 76, 0
2, 236798, Note_on_c, 0, 67, 39
2, 236915, Note_off_c, 0, 67, 0
2, 237028, Note_on_c, 0, 60, 51
2, 237028, Note_on_c, 0, 79, 72
2, 237133, Note_off_c, 0, 79, 0
2, 237173, Note_off_c, 0, 60, 0
2, 237308, Note_on_c, 0, 67, 31
2, 237419, Note_off_c, 0, 67, 0
2, 237541, Note_on_c, 0, 60, 38
2, 237675, Note_off_c, 0, 60, 0
2, 237833, Note_on_c, 0, 67, 25
2, 237928, Note_off_c, 0, 67, 0
2, 238078, Note_on_c, 0, 79, 74
2, 238081, Note_on_c, 0, 60, 45
2, 238195, Note_off_c, 0, 79, 0
2, 238202, Note_off_c, 0, 60, 0
2, 238329, Note_on_c, 0, 67, 29
2, 238470, Note_off_c, 0, 67, 0
2, 238582, Note_on_c, 0, 77, 75
2, 238829, Note_on_c, 0, 67, 31
2, 239051, Note_off_c, 0, 67, 0
2, 239065, Note_on_c, 0, 74, 60
2, 239339, Note_on_c, 0, 67, 41
2, 239620, Note_off_c, 0, 67, 0
2, 239879, Note_on_c, 0, 67, 35
2, 239880, Note_off_c, 0, 77, 0
2, 240069, Note_off_c, 0, 74, 0
2, 240138, Note_on_c, 0, 77, 73
2, 240152, Note_off_c, 0, 67, 0
2, 240398, Note_on_c, 0, 67, 37
2, 240640, Note_off_c, 0, 77, 0
2, 240654, Note_off_c, 0, 67, 0
2, 240658, Note_on_c, 0, 76, 67
2, 240667, Note_on_c, 0, 60, 36
2, 240860, Note_off_c, 0, 60, 0
2, 240894, Note_on_c, 0, 67, 43
2, 241140, Note_on_c, 0, 60, 51
2, 241141, Note_on_c, 0, 79, 66
2, 241161, Note_off_c, 0, 67, 0
2, 241174, Note_off_c, 0, 76, 0
2, 241341, Note_off_c, 0, 60, 0
2, 241387, Note_on_c, 0, 67, 28
2, 241448, Note_off_c, 0, 79, 0
2, 241626, Note_on_c, 0, 60, 48
2, 241672, Note_off_c, 0, 67, 0
2, 241871, Note_off_c, 0, 60, 0
2, 241897, Note_on_c, 0, 67, 43
2, 242106, Note_off_c, 0, 67, 0
2, 242116, Note_on_c, 0, 60, 53
2, 242118, Note_on_c, 0, 76, 70
2, 242259, Note_off_c, 0, 76, 0
2, 242294, Note_off_c, 0, 60, 0
2, 242402, Note_on_c, 0, 67, 36
2, 242615, Note_off_c, 0, 67, 0
2, 242632, Note_on_c, 0, 61, 38
2, 242637, Note_on_c, 0, 76, 74
2, 242877, Note_on_c, 0, 69, 33
2, 242910, Note_off_c, 0, 61, 0
2, 243163, Note_on_c, 0, 81, 83
2, 243168, Note_on_c, 0, 61, 43
2, 243196, Note_off_c, 0, 69, 0
2, 243206, Note_off_c, 0, 76, 0
2, 243441, Note_on_c, 0, 69, 44
2, 243451, Note_off_c, 0, 61, 0
2, 243688, Note_on_c, 0, 61, 36
2, 243701, Note_off_c, 0, 69, 0
2, 243940, Note_on_c, 0, 69, 31
2, 243959, Note_off_c, 0, 61, 0
2, 244188, Note_on_c, 0, 79, 54
2, 244197, Note_on_c, 0, 61, 43
2, 244249, Note_off_c, 0, 69, 0
2, 244305, Note_off_c, 0, 81, 0
2, 244457, Note_off_c, 0, 61, 0
2, 244460, Note_on_c, 0, 69, 41
2, 244714, Note_on_c, 0, 62, 51
2, 244729, Note_on_c, 0, 78, 53
2, 244736, Note_off_c, 0, 79, 0
2, 244736, Note_off_c, 0, 69, 0
2, 244976, Note_on_c, 0, 69, 43
2, 244984, Note_off_c, 0, 62, 0
2, 245184, Note_off_c, 0, 69, 0
2, 245233, Note_on_c, 0, 62, 42
2, 245237, Note_off_c, 0, 78, 0
2, 245254, Note_on_c, 0, 74, 65
2, 245450, Note_off_c, 0, 62, 0
2, 245476, Note_on_c, 0, 69, 38
2, 245699, Note_off_c, 0, 69, 0
2, 245734, Note_on_c, 0, 62, 33
2, 245980, Note_on_c, 0, 69, 42
2, 245985, Note_off_c, 0, 62, 0
2, 246243, Note_on_c, 0, 78, 64
2, 246252, Note_off_c, 0, 69, 0
2, 246260, Note_on_c, 0, 62, 51
2, 246314, Note_off_c, 0, 74, 0
2, 246421, Note_off_c, 0, 62, 0
2, 246515, Note_on_c, 0, 69, 43
2, 246719, Note_off_c, 0, 69, 0
2, 246749, Note_on_c, 0, 61, 38
2, 246767, Note_on_c, 0, 76, 61
2, 246784, Note_off_c, 0, 78, 0
2, 246993, Note_off_c, 0, 61, 0
2, 247012, Note_on_c, 0, 69, 40
2, 247268, Note_on_c, 0, 61, 37
2, 247269, Note_off_c, 0, 69, 0
2, 247288, Note_on_c, 0, 81, 67
2, 247336, Note_off_c, 0, 76, 0
2, 247492, Note_off_c, 0, 61, 0
2, 247529, Note_on_c, 0, 69, 27
2, 247780, Note_on_c, 0, 61, 41
2, 247809, Note_off_c, 0, 69, 0
2, 248004, Note_off_c, 0, 61, 0
2, 248030, Note_on_c, 0, 69, 42
2, 248269, Note_off_c, 0, 81, 0
2, 248274, Note_off_c, 0, 69, 0
2, 248300, Note_on_c, 0, 61, 35
2, 248307, Note_on_c, 0, 79, 73
2, 248459, Note_off_c, 0, 61, 0
2, 248533, Note_on_c, 0, 69, 35
2, 248793, Note_off_c, 0, 69, 0
2, 248817, Note_on_c, 0, 62, 37
2, 248822, Note_on_c, 0, 78, 54
2, 248832, Note_off_c, 0, 79, 0
2, 249043, Note_off_c, 0, 62, 0
2, 249080, Note_on_c, 0, 69, 33
2, 249302, Note_off_c, 0, 78, 0
2, 249305, Note_off_c, 0, 69, 0
2, 249319, Note_on_c, 0, 74, 68
2, 249323, Note_on_c, 0, 62, 47
2, 249542, Note_off_c, 0, 62, 0
2, 249585, Note_on_c, 0, 69, 36
2, 249820, Note_off_c, 0, 69, 0
2, 249832, Note_on_c, 0, 62, 41
2, 250075, Note_off_c, 0, 62, 0
2, 250126, Note_on_c, 0, 69, 34
2, 250375, Note_on_c, 0, 78, 67
2, 250382, Note_on_c, 0, 62, 53
2, 250390, Note_off_c, 0, 69, 0
2, 250420, Note_off_c, 0, 74, 0
2, 250563, Note_off_c, 0, 62, 0
2, 250614, Note_off_c, 0, 78, 0
2, 250659, Note_on_c, 0, 69, 45
2, 250835, Note_off_c, 0, 69, 0
2, 250903, Note_on_c, 0, 63, 38
2, 250910, Note_on_c, 0, 78, 83
2, 251093, Note_off_c, 0, 63, 0
2, 251159, Note_on_c, 0, 71, 45
2, 251312, Note_off_c, 0, 71, 0
2, 251377, Note_off_c, 0, 78, 0
2, 251393, Note_on_c, 0, 83, 74
2, 251408, Note_on_c, 0, 63, 39
2, 251580, Note_off_c, 0, 63, 0
2, 251688, Note_on_c, 0, 71, 38
2, 251904, Note_off_c, 0, 71, 0
2, 251934, Note_on_c, 0, 63, 41
2, 252117, Note_off_c, 0, 63, 0
2, 252191, Note_on_c, 0, 71, 31
2, 252356, Note_off_c, 0, 71, 0
2, 252420, Note_on_c, 0, 81, 70
2, 252432, Note_on_c, 0, 63, 47
2, 252464, Note_off_c, 0, 83, 0
2, 252651, Note_off_c, 0, 63, 0
2, 252676, Note_on_c, 0, 71, 39
2, 252917, Note_off_c, 0, 71, 0
2, 252918, Note_on_c, 0, 79, 68
2, 252926, Note_on_c, 0, 64, 40
2, 252928, Note_off_c, 0, 81, 0
2, 253164, Note_off_c, 0, 64, 0
2, 253206, Note_on_c, 0, 71, 31
2, 253322, Note_off_c, 0, 71, 0
2, 253409, Note_off_c, 0, 79, 0
2, 253414, Note_on_c, 0, 76, 65
2, 253434, Note_on_c, 0, 64, 47
2, 253578, Note_off_c, 0, 64, 0
2, 253684, Note_on_c, 0, 71, 38
2, 253836, Note_off_c, 0, 71, 0
2, 253933, Note_on_c, 0, 64, 47
2, 254092, Note_off_c, 0, 64, 0
2, 254180, Note_on_c, 0, 71, 42
2, 254297, Note_off_c, 0, 71, 0
2, 254455, Note_on_c, 0, 79, 90
2, 254476, Note_on_c, 0, 64, 43
2, 254484, Note_off_c, 0, 76, 0
2, 254634, Note_off_c, 0, 64, 0
2, 254738, Note_on_c, 0, 71, 36
2, 254879, Note_off_c, 0, 71, 0
2, 254968, Note_on_c, 0, 63, 38
2, 254976, Note_off_c, 0, 79, 0
2, 254980, Note_on_c, 0, 78, 60
2, 255163, Note_off_c, 0, 63, 0
2, 255221, Note_on_c, 0, 71, 39
2, 255468, Note_on_c, 0, 83, 50
2, 255485, Note_off_c, 0, 71, 0
2, 255498, Note_on_c, 0, 63, 36
2, 255539, Note_off_c, 0, 78, 0
2, 255712, Note_off_c, 0, 63, 0
2, 255737, Note_on_c, 0, 71, 45
2, 255867, Note_off_c, 0, 71, 0
2, 255973, Note_on_c, 0, 63, 43
2, 256198, Note_off_c, 0, 63, 0
2, 256253, Note_on_c, 0, 71, 33
2, 256425, Note_off_c, 0, 71, 0
2, 256484, Note_on_c, 0, 63, 47
2, 256491, Note_on_c, 0, 81, 61
2, 256528, Note_off_c, 0, 83, 0
2, 256723, Note_off_c, 0, 63, 0
2, 256756, Note_on_c, 0, 71, 40
2, 256943, Note_off_c, 0, 71, 0
2, 257003, Note_on_c, 0, 64, 49
2, 257004, Note_on_c, 0, 79, 65
2, 257024, Note_off_c, 0, 81, 0
2, 257269, Note_off_c, 0, 79, 0
2, 257508, Note_on_c, 0, 71, 77
2, 257678, Note_on_c, 0, 73, 78
2, 257726, Note_off_c, 0, 71, 0
2, 257834, Note_on_c, 0, 75, 69
2, 257872, Note_off_c, 0, 73, 0
2, 257994, Note_on_c, 0, 76, 74
2, 258003, Note_off_c, 0, 75, 0
2, 258176, Note_on_c, 0, 78, 56
2, 258282, Note_off_c, 0, 64, 0
2, 258284, Note_off_c, 0, 76, 0
2, 258354, Note_on_c, 0, 79, 92
2, 258397, Note_off_c, 0, 78, 0
2, 258549, Note_on_c, 0, 78, 64
2, 258551, Note_on_c, 0, 63, 54
2, 258571, Note_off_c, 0, 79, 0
2, 258719, Note_on_c, 0, 79, 78
2, 258852, Note_off_c, 0, 78, 0
2, 258867, Note_on_c, 0, 81, 78
2, 258896, Note_off_c, 0, 79, 0
2, 259072, Note_off_c, 0, 63, 0
2, 259072, Note_off_c, 0, 81, 0
2, 259077, Note_on_c, 0, 64, 49
2, 259080, Note_on_c, 0, 79, 66
2, 259392, Note_off_c, 0, 79, 0
2, 259554, Note_on_c, 0, 71, 74
2, 259725, Note_on_c, 0, 73, 42
2, 259781, Note_off_c, 0, 71, 0
2, 259875, Note_on_c, 0, 75, 49
2, 259910, Note_off_c, 0, 73, 0
2, 260010, Note_off_c, 0, 75, 0
2, 260042, Note_on_c, 0, 76, 66
2, 260213, Note_on_c, 0, 78, 46
2, 260247, Note_off_c, 0, 76, 0
2, 260340, Note_off_c, 0, 64, 0
2, 260368, Note_on_c, 0, 79, 61
2, 260410, Note_off_c, 0, 78, 0
2, 260567, Note_on_c, 0, 78, 52
2, 260573, Note_on_c, 0, 63, 42
2, 260585, Note_off_c, 0, 79, 0
2, 260728, Note_on_c, 0, 79, 55
2, 260775, Note_off_c, 0, 78, 0
2, 260858, Note_off_c, 0, 63, 0
2, 260882, Note_on_c, 0, 81, 57
2, 260895, Note_off_c, 0, 79, 0
2, 261106, Note_on_c, 0, 79, 66
2, 261110, Note_on_c, 0, 64, 41
2, 261120, Note_off_c, 0, 81, 0
2, 261509, Note_off_c, 0, 64, 0
2, 261570, Note_on_c, 0, 83, 58
2, 261613, Note_off_c, 0, 79, 0
2, 261752, Note_on_c, 0, 81, 48
2, 261775, Note_off_c, 0, 83, 0
2, 261937, Note_off_c, 0, 81, 0
2, 261943, Note_on_c, 0, 79, 57
2, 262099, Note_off_c, 0, 79, 0
2, 262106, Note_on_c, 0, 84, 75
2, 262128, Note_on_c, 0, 69, 46
2, 262605, Note_on_c, 0, 81, 55
2, 262615, Note_off_c, 0, 84, 0
2, 262773, Note_on_c, 0, 79, 61
2, 262804, Note_off_c, 0, 81, 0
2, 262949, Note_on_c, 0, 78, 41
2, 262956, Note_off_c, 0, 79, 0
2, 263111, Note_on_c, 0, 76, 51
2, 263168, Note_off_c, 0, 69, 0
2, 263168, Note_off_c, 0, 78, 0
2, 263636, Note_on_c, 0, 67, 49
2, 263946, Note_off_c, 0, 67, 0
2, 264059, Note_off_c, 0, 76, 0
2, 264159, Note_on_c, 0, 78, 73
2, 264164, Note_on_c, 0, 69, 52
2, 264321, Note_off_c, 0, 78, 0
2, 264325, Note_on_c, 0, 79, 53
2, 264377, Note_off_c, 0, 69, 0
2, 264415, Note_on_c, 0, 78, 74
2, 264428, Note_off_c, 0, 79, 0
2, 264479, Note_off_c, 0, 78, 0
2, 264484, Note_on_c, 0, 79, 52
2, 264533, Note_on_c, 0, 78, 66
2, 264535, Note_off_c, 0, 79, 0
2, 264591, Note_on_c, 0, 79, 83
2, 264593, Note_off_c, 0, 78, 0
2, 264637, Note_on_c, 0, 71, 32
2, 264640, Note_on_c, 0, 78, 59
2, 264657, Note_off_c, 0, 79, 0
2, 264676, Note_on_c, 0, 79, 61
2, 264685, Note_off_c, 0, 78, 0
2, 264723, Note_off_c, 0, 79, 0
2, 264726, Note_on_c, 0, 78, 73
2, 264754, Note_off_c, 0, 71, 0
2, 264789, Note_off_c, 0, 78, 0
2, 264826, Note_on_c, 0, 78, 59
2, 264870, Note_on_c, 0, 79, 55
2, 264872, Note_off_c, 0, 78, 0
2, 264989, Note_on_c, 0, 78, 46
2, 265010, Note_off_c, 0, 79, 0
2, 265067, Note_on_c, 0, 76, 37
2, 265071, Note_off_c, 0, 78, 0
2, 265123, Note_on_c, 0, 78, 52
2, 265141, Note_off_c, 0, 76, 0
2, 265202, Note_on_c, 0, 64, 47
2, 265216, Note_off_c, 0, 78, 0
2, 265224, Note_on_c, 0, 76, 57
2, 265680, Note_on_c, 0, 83, 62
2, 265695, Note_off_c, 0, 76, 0
2, 265799, Note_off_c, 0, 64, 0
2, 265833, Note_on_c, 0, 81, 55
2, 265892, Note_off_c, 0, 83, 0
2, 265997, Note_off_c, 0, 81, 0
2, 266003, Note_on_c, 0, 79, 38
2, 266207, Note_off_c, 0, 79, 0
2, 266209, Note_on_c, 0, 84, 52
2, 266228, Note_on_c, 0, 69, 31
2, 266722, Note_on_c, 0, 81, 54
2, 266783, Note_off_c, 0, 84, 0
2, 266891, Note_on_c, 0, 79, 47
2, 266946, Note_off_c, 0, 81, 0
2, 267036, Note_on_c, 0, 78, 46
2, 267087, Note_off_c, 0, 79, 0
2, 267218, Note_on_c, 0, 76, 56
2, 267264, Note_off_c, 0, 69, 0
2, 267264, Note_off_c, 0, 78, 0
2, 267748, Note_on_c, 0, 67, 46
2, 268011, Note_off_c, 0, 67, 0
2, 268236, Note_on_c, 0, 78, 46
2, 268238, Note_on_c, 0, 69, 39
2, 268343, Note_off_c, 0, 76, 0
2, 268376, Note_on_c, 0, 79, 66
2, 268417, Note_off_c, 0, 78, 0
2, 268492, Note_on_c, 0, 78, 66
2, 268521, Note_off_c, 0, 79, 0
2, 268593, Note_on_c, 0, 79, 66
2, 268609, Note_off_c, 0, 78, 0
2, 268658, Note_off_c, 0, 69, 0
2, 268704, Note_on_c, 0, 78, 67
2, 268716, Note_off_c, 0, 79, 0
2, 268719, Note_on_c, 0, 71, 40
2, 268774, Note_on_c, 0, 79, 78
2, 268790, Note_off_c, 0, 78, 0
2, 268843, Note_on_c, 0, 78, 53
2, 268844, Note_off_c, 0, 79, 0
2, 268874, Note_off_c, 0, 71, 0
2, 268887, Note_on_c, 0, 79, 67
2, 268897, Note_off_c, 0, 78, 0
2, 268931, Note_off_c, 0, 79, 0
2, 268942, Note_on_c, 0, 78, 58
2, 269010, Note_off_c, 0, 78, 0
2, 269033, Note_on_c, 0, 78, 54
2, 269078, Note_on_c, 0, 79, 73
2, 269080, Note_off_c, 0, 78, 0
2, 269129, Note_on_c, 0, 78, 59
2, 269148, Note_off_c, 0, 79, 0
2, 269219, Note_off_c, 0, 78, 0
2, 269228, Note_on_c, 0, 76, 37
2, 269274, Note_on_c, 0, 76, 54
2, 269278, Note_on_c, 0, 64, 49
2, 269312, Note_off_c, 0, 76, 0
2, 270440, Note_off_c, 0, 64, 0
2, 270476, Note_off_c, 0, 76, 0
2, 271914, Note_on_c, 0, 79, 64
2, 271918, Note_on_c, 0, 71, 51
2, 272016, Note_off_c, 0, 71, 0
2, 272022, Note_off_c, 0, 79, 0
2, 272437, Note_on_c, 0, 79, 70
2, 272440, Note_on_c, 0, 71, 59
2, 272899, Note_on_c, 0, 64, 54
2, 273022, Note_on_c, 0, 62, 52
2, 273083, Note_off_c, 0, 64, 0
2, 273125, Note_on_c, 0, 61, 32
2, 273160, Note_off_c, 0, 62, 0
2, 273303, Note_off_c, 0, 61, 0
2, 273307, Note_off_c, 0, 71, 0
2, 273323, Note_off_c, 0, 79, 0
2, 273916, Note_on_c, 0, 81, 60
2, 273926, Note_on_c, 0, 73, 47
2, 274044, Note_off_c, 0, 73, 0
2, 274052, Note_off_c, 0, 81, 0
2, 274410, Note_on_c, 0, 81, 64
2, 274420, Note_on_c, 0, 73, 51
2, 275418, Note_off_c, 0, 81, 0
2, 275433, Note_off_c, 0, 73, 0
2, 275973, Note_on_c, 0, 78, 57
2, 275981, Note_on_c, 0, 69, 56
2, 276071, Note_off_c, 0, 69, 0
2, 276099, Note_off_c, 0, 78, 0
2, 276490, Note_on_c, 0, 78, 62
2, 276494, Note_on_c, 0, 69, 60
2, 277045, Note_on_c, 0, 62, 49
2, 277177, Note_on_c, 0, 60, 44
2, 277216, Note_off_c, 0, 62, 0
2, 277257, Note_off_c, 0, 69, 0
2, 277282, Note_off_c, 0, 78, 0
2, 277311, Note_off_c, 0, 60, 0
2, 278039, Note_on_c, 0, 79, 54
2, 278046, Note_on_c, 0, 71, 52
2, 278148, Note_off_c, 0, 71, 0
2, 278155, Note_off_c, 0, 79, 0
2, 278512, Note_on_c, 0, 79, 61
2, 278516, Note_on_c, 0, 71, 59
2, 278638, Note_off_c, 0, 79, 0
2, 278673, Note_off_c, 0, 71, 0
2, 279017, Note_on_c, 0, 74, 59
2, 279136, Note_on_c, 0, 72, 59
2, 279288, Note_on_c, 0, 71, 67
2, 279362, Note_off_c, 0, 72, 0
2, 279414, Note_off_c, 0, 74, 0
2, 279414, Note_on_c, 0, 69, 65
2, 279466, Note_off_c, 0, 71, 0
2, 279566, Note_off_c, 0, 69, 0
2, 279568, Note_on_c, 0, 67, 77
2, 280078, Note_off_c, 0, 67, 0
2, 280097, Note_on_c, 0, 79, 57
2, 280098, Note_on_c, 0, 76, 63
2, 280580, Note_on_c, 0, 78, 48
2, 280586, Note_on_c, 0, 74, 54
2, 280603, Note_off_c, 0, 79, 0
2, 280618, Note_off_c, 0, 76, 0
2, 281093, Note_on_c, 0, 76, 50
2, 281106, Note_on_c, 0, 72, 45
2, 281132, Note_off_c, 0, 74, 0
2, 281159, Note_off_c, 0, 78, 0
2, 281330, Note_off_c, 0, 72, 0
2, 281342, Note_off_c, 0, 76, 0
2, 281606, Note_on_c, 0, 74, 52
2, 281610, Note_on_c, 0, 71, 50
2, 282648, Note_off_c, 0, 74, 0
2, 282686, Note_off_c, 0, 71, 0
2, 283088, Note_on_c, 0, 76, 60
2, 283243, Note_on_c, 0, 74, 62
2, 283295, Note_off_c, 0, 76, 0
2, 283393, Note_on_c, 0, 72, 65
2, 283430, Note_off_c, 0, 74, 0
2, 283562, Note_on_c, 0, 71, 70
2, 283584, Note_off_c, 0, 72, 0
2, 283648, Note_off_c, 0, 71, 0
2, 285124, Note_on_c, 0, 71, 56
2, 285232, Note_on_c, 0, 69, 49
2, 285313, Note_off_c, 0, 71, 0
2, 285360, Note_on_c, 0, 67, 58
2, 285417, Note_off_c, 0, 69, 0
2, 285499, Note_on_c, 0, 66, 55
2, 285521, Note_off_c, 0, 67, 0
2, 285646, Note_on_c, 0, 64, 55
2, 285696, Note_off_c, 0, 66, 0
2, 286033, Note_off_c, 0, 64, 0
2, 286148, Note_on_c, 0, 76, 61
2, 286156, Note_on_c, 0, 72, 53
2, 286656, Note_off_c, 0, 72, 0
2, 286664, Note_on_c, 0, 71, 55
2, 286678, Note_on_c, 0, 74, 52
2, 286710, Note_off_c, 0, 76, 0
2, 287048, Note_off_c, 0, 71, 0
2, 287177, Note_off_c, 0, 74, 0
2, 287211, Note_on_c, 0, 72, 48
2, 287218, Note_on_c, 0, 69, 43
2, 287348, Note_off_c, 0, 69, 0
2, 287357, Note_off_c, 0, 72, 0
2, 287726, Note_on_c, 0, 72, 48
2, 287737, Note_on_c, 0, 69, 40
2, 288355, Note_off_c, 0, 72, 0
2, 288394, Note_off_c, 0, 69, 0
2, 288795, Note_on_c, 0, 71, 55
2, 288796, Note_on_c, 0, 67, 53
2, 288960, Note_off_c, 0, 71, 0
2, 289010, Note_off_c, 0, 67, 0
2, 289276, Note_on_c, 0, 71, 47
2, 289282, Note_on_c, 0, 69, 47
2, 289365, Note_off_c, 0, 69, 0
2, 289424, Note_on_c, 0, 69, 41
2, 289446, Note_off_c, 0, 71, 0
2, 289557, Note_on_c, 0, 67, 44
2, 289567, Note_off_c, 0, 69, 0
2, 289686, Note_on_c, 0, 66, 49
2, 289704, Note_off_c, 0, 67, 0
2, 289801, Note_off_c, 0, 66, 0
2, 289820, Note_on_c, 0, 64, 55
2, 290038, Note_off_c, 0, 64, 0
2, 290312, Note_on_c, 0, 69, 60
2, 290313, Note_on_c, 0, 72, 59
2, 290535, Note_off_c, 0, 72, 0
2, 290541, Note_off_c, 0, 69, 0
2, 290819, Note_on_c, 0, 72, 60
2, 290822, Note_on_c, 0, 69, 57
2, 291042, Note_off_c, 0, 72, 0
2, 291061, Note_off_c, 0, 69, 0
2, 291341, Note_on_c, 0, 71, 62
2, 291346, Note_on_c, 0, 67, 56
2, 291539, Note_off_c, 0, 71, 0
2, 291547, Note_off_c, 0, 67, 0
2, 291828, Note_on_c, 0, 67, 61
2, 291829, Note_on_c, 0, 71, 68
2, 292500, Note_off_c, 0, 71, 0
2, 292530, Note_off_c, 0, 67, 0
2, 292883, Note_on_c, 0, 66, 47
2, 292884, Note_on_c, 0, 69, 61
2, 292969, Note_off_c, 0, 69, 0
2, 293008, Note_off_c, 0, 66, 0
2, 293347, Note_on_c, 0, 74, 57
2, 293475, Note_on_c, 0, 72, 54
2, 293531, Note_off_c, 0, 74, 0
2, 293590, Note_on_c, 0, 71, 53
2, 293624, Note_off_c, 0, 72, 0
2, 293711, Note_on_c, 0, 69, 60
2, 293743, Note_off_c, 0, 71, 0
2, 293824, Note_off_c, 0, 69, 0
2, 293844, Note_on_c, 0, 67, 57
2, 294053, Note_off_c, 0, 67, 0
2, 294356, Note_on_c, 0, 79, 54
2, 294365, Note_on_c, 0, 64, 49
2, 294598, Note_on_c, 0, 67, 51
2, 294599, Note_off_c, 0, 79, 0
2, 294856, Note_on_c, 0, 78, 62
2, 294861, Note_on_c, 0, 62, 58
2, 294905, Note_off_c, 0, 67, 0
2, 294938, Note_off_c, 0, 64, 0
2, 295124, Note_on_c, 0, 67, 67
2, 295132, Note_off_c, 0, 78, 0
2, 295359, Note_off_c, 0, 67, 0
2, 295388, Note_on_c, 0, 76, 72
2, 295399, Note_on_c, 0, 60, 52
2, 295415, Note_off_c, 0, 62, 0
2, 295638, Note_on_c, 0, 67, 74
2, 295652, Note_off_c, 0, 76, 0
2, 295868, Note_off_c, 0, 67, 0
2, 295896, Note_on_c, 0, 74, 78
2, 295936, Note_off_c, 0, 60, 0
2, 296164, Note_on_c, 0, 67, 75
2, 296167, Note_off_c, 0, 74, 0
2, 296426, Note_on_c, 0, 72, 77
2, 296439, Note_off_c, 0, 67, 0
2, 296641, Note_off_c, 0, 72, 0
2, 296670, Note_on_c, 0, 67, 78
2, 296950, Note_on_c, 0, 71, 53
2, 297004, Note_off_c, 0, 67, 0
2, 297236, Note_off_c, 0, 71, 0
2, 297475, Note_on_c, 0, 74, 52
2, 297604, Note_on_c, 0, 72, 39
2, 297624, Note_off_c, 0, 74, 0
2, 297731, Note_off_c, 0, 72, 0
2, 297754, Note_on_c, 0, 71, 34
2, 297850, Note_on_c, 0, 69, 39
2, 297860, Note_off_c, 0, 71, 0
2, 297984, Note_off_c, 0, 69, 0
2, 298026, Note_on_c, 0, 67, 23
2, 298374, Note_off_c, 0, 67, 0
2, 298472, Note_on_c, 0, 79, 39
2, 298474, Note_on_c, 0, 64, 39
2, 298677, Note_off_c, 0, 79, 0
2, 298726, Note_on_c, 0, 67, 38
2, 298976, Note_on_c, 0, 78, 28
2, 298993, Note_off_c, 0, 67, 0
2, 299011, Note_on_c, 0, 62, 29
2, 299097, Note_off_c, 0, 64, 0
2, 299262, Note_on_c, 0, 67, 36
2, 299271, Note_off_c, 0, 78, 0
2, 299490, Note_on_c, 0, 76, 54
2, 299494, Note_off_c, 0, 67, 0
2, 299498, Note_on_c, 0, 60, 43
2, 299556, Note_off_c, 0, 62, 0
2, 299749, Note_on_c, 0, 67, 55
2, 299770, Note_off_c, 0, 76, 0
2, 300019, Note_on_c, 0, 74, 64
2, 300032, Note_off_c, 0, 60, 0
2, 300032, Note_off_c, 0, 67, 0
2, 300303, Note_on_c, 0, 67, 69
2, 300307, Note_off_c, 0, 74, 0
2, 300596, Note_on_c, 0, 72, 79
2, 300597, Note_on_c, 0, 71, 75
2, 300637, Note_off_c, 0, 71, 0
2, 300673, Note_off_c, 0, 67, 0
2, 300836, Note_off_c, 0, 72, 0
2, 300844, Note_on_c, 0, 67, 81
2, 301115, Note_on_c, 0, 71, 79
2, 301174, Note_off_c, 0, 67, 0
2, 301562, Note_on_c, 0, 74, 70
2, 301605, Note_off_c, 0, 71, 0
2, 302063, Note_on_c, 0, 72, 53
2, 302080, Note_off_c, 0, 74, 0
2, 302080, Note_on_c, 0, 69, 64
2, 302336, Note_off_c, 0, 69, 0
2, 302345, Note_on_c, 0, 62, 32
2, 302487, Note_off_c, 0, 62, 0
2, 302592, Note_on_c, 0, 66, 64
2, 302592, Note_on_c, 0, 69, 43
2, 302621, Note_off_c, 0, 72, 0
2, 302848, Note_off_c, 0, 66, 0
2, 302874, Note_on_c, 0, 62, 34
2, 303082, Note_off_c, 0, 62, 0
2, 303153, Note_off_c, 0, 69, 0
2, 303376, Note_on_c, 0, 62, 40
2, 303547, Note_off_c, 0, 62, 0
2, 303627, Note_on_c, 0, 69, 55
2, 303627, Note_on_c, 0, 72, 56
2, 303783, Note_off_c, 0, 69, 0
2, 304116, Note_on_c, 0, 71, 59
2, 304119, Note_on_c, 0, 67, 54
2, 304128, Note_off_c, 0, 72, 0
2, 304361, Note_on_c, 0, 62, 40
2, 304461, Note_off_c, 0, 71, 0
2, 304520, Note_off_c, 0, 67, 0
2, 304632, Note_on_c, 0, 71, 48
2, 304634, Note_on_c, 0, 74, 53
2, 304644, Note_off_c, 0, 62, 0
2, 304886, Note_on_c, 0, 62, 56
2, 305154, Note_off_c, 0, 62, 0
2, 305393, Note_on_c, 0, 62, 45
2, 305450, Note_off_c, 0, 71, 0
2, 305452, Note_off_c, 0, 74, 0
2, 305634, Note_on_c, 0, 74, 56
2, 305638, Note_on_c, 0, 71, 52
2, 305707, Note_off_c, 0, 62, 0
2, 305910, Note_on_c, 0, 62, 51
2, 306159, Note_on_c, 0, 72, 53
2, 306176, Note_off_c, 0, 71, 0
2, 306176, Note_off_c, 0, 74, 0
2, 306176, Note_off_c, 0, 62, 0
2, 306176, Note_on_c, 0, 69, 64
2, 306432, Note_off_c, 0, 69, 0
2, 306441, Note_on_c, 0, 62, 32
2, 306583, Note_off_c, 0, 62, 0
2, 306688, Note_on_c, 0, 66, 64
2, 306688, Note_on_c, 0, 69, 43
2, 306717, Note_off_c, 0, 72, 0
2, 306944, Note_off_c, 0, 66, 0
2, 306970, Note_on_c, 0, 62, 34
2, 307178, Note_off_c, 0, 62, 0
2, 307249, Note_off_c, 0, 69, 0
2, 307472, Note_on_c, 0, 62, 40
2, 307643, Note_off_c, 0, 62, 0
2, 307723, Note_on_c, 0, 69, 55
2, 307723, Note_on_c, 0, 72, 56
2, 307879, Note_off_c, 0, 69, 0
2, 308224, Note_off_c, 0, 72, 0
2, 308231, Note_on_c, 0, 71, 60
2, 308234, Note_on_c, 0, 67, 50
2, 308463, Note_on_c, 0, 62, 40
2, 308519, Note_off_c, 0, 71, 0
2, 308621, Note_off_c, 0, 67, 0
2, 308744, Note_on_c, 0, 71, 55
2, 308749, Note_on_c, 0, 74, 56
2, 308754, Note_off_c, 0, 62, 0
2, 309016, Note_on_c, 0, 62, 41
2, 309257, Note_off_c, 0, 62, 0
2, 309399, Note_off_c, 0, 74, 0
2, 309418, Note_off_c, 0, 71, 0
2, 309521, Note_on_c, 0, 62, 30
2, 309756, Note_on_c, 0, 74, 59
2, 309758, Note_off_c, 0, 62, 0
2, 310023, Note_on_c, 0, 62, 43
2, 310246, Note_off_c, 0, 62, 0
2, 310262, Note_off_c, 0, 74, 0
2, 310264, Note_on_c, 0, 72, 66
2, 310277, Note_on_c, 0, 71, 51
2, 310322, Note_off_c, 0, 71, 0
2, 310549, Note_on_c, 0, 62, 46
2, 310792, Note_on_c, 0, 69, 61
2, 310811, Note_off_c, 0, 72, 0
2, 310814, Note_off_c, 0, 62, 0
2, 311080, Note_on_c, 0, 62, 37
2, 311237, Note_off_c, 0, 62, 0
2, 311311, Note_off_c, 0, 69, 0
2, 311540, Note_on_c, 0, 62, 40
2, 311650, Note_off_c, 0, 62, 0
2, 311789, Note_on_c, 0, 72, 59
2, 311791, Note_on_c, 0, 69, 54
2, 312003, Note_off_c, 0, 69, 0
2, 312009, Note_off_c, 0, 72, 0
2, 312025, Note_on_c, 0, 62, 43
2, 312312, Note_on_c, 0, 71, 59
2, 312320, Note_off_c, 0, 62, 0
2, 312320, Note_on_c, 0, 67, 53
2, 312474, Note_off_c, 0, 71, 0
2, 312529, Note_off_c, 0, 67, 0
2, 312790, Note_on_c, 0, 62, 65
2, 312964, Note_on_c, 0, 64, 62
2, 312995, Note_off_c, 0, 62, 0
2, 313119, Note_on_c, 0, 66, 38
2, 313124, Note_off_c, 0, 64, 0
2, 313197, Note_off_c, 0, 66, 0
2, 313308, Note_on_c, 0, 67, 63
2, 313439, Note_off_c, 0, 67, 0
2, 313500, Note_on_c, 0, 69, 61
2, 313597, Note_off_c, 0, 69, 0
2, 313674, Note_on_c, 0, 71, 52
2, 313851, Note_on_c, 0, 69, 75
2, 313873, Note_off_c, 0, 71, 0
2, 314029, Note_on_c, 0, 71, 75
2, 314084, Note_off_c, 0, 69, 0
2, 314193, Note_on_c, 0, 72, 69
2, 314221, Note_off_c, 0, 71, 0
2, 314368, Note_off_c, 0, 72, 0
2, 314398, Note_on_c, 0, 71, 70
2, 314622, Note_off_c, 0, 71, 0
2, 314886, Note_on_c, 0, 62, 64
2, 315066, Note_on_c, 0, 64, 57
2, 315078, Note_off_c, 0, 62, 0
2, 315215, Note_on_c, 0, 66, 51
2, 315227, Note_off_c, 0, 64, 0
2, 315378, Note_off_c, 0, 66, 0
2, 315395, Note_on_c, 0, 67, 52
2, 315568, Note_off_c, 0, 67, 0
2, 315577, Note_on_c, 0, 69, 56
2, 315748, Note_on_c, 0, 71, 50
2, 315751, Note_off_c, 0, 69, 0
2, 315902, Note_off_c, 0, 71, 0
2, 315903, Note_on_c, 0, 69, 45
2, 316068, Note_on_c, 0, 71, 52
2, 316101, Note_off_c, 0, 69, 0
2, 316235, Note_on_c, 0, 72, 57
2, 316252, Note_off_c, 0, 71, 0
2, 316408, Note_on_c, 0, 71, 61
2, 316416, Note_off_c, 0, 72, 0
2, 316887, Note_on_c, 0, 74, 62
2, 316948, Note_off_c, 0, 71, 0
2, 317064, Note_on_c, 0, 72, 51
2, 317102, Note_off_c, 0, 74, 0
2, 317227, Note_on_c, 0, 71, 65
2, 317237, Note_off_c, 0, 72, 0
2, 317398, Note_on_c, 0, 60, 39
2, 317408, Note_on_c, 0, 76, 61
2, 317416, Note_off_c, 0, 71, 0
2, 317854, Note_off_c, 0, 76, 0
2, 317931, Note_on_c, 0, 72, 66
2, 318079, Note_on_c, 0, 71, 62
2, 318130, Note_off_c, 0, 72, 0
2, 318248, Note_off_c, 0, 71, 0
2, 318250, Note_on_c, 0, 69, 61
2, 318440, Note_off_c, 0, 69, 0
2, 318456, Note_on_c, 0, 67, 58
2, 318464, Note_off_c, 0, 60, 0
2, 319433, Note_on_c, 0, 60, 43
2, 319436, Note_off_c, 0, 67, 0
2, 319446, Note_on_c, 0, 69, 66
2, 319577, Note_on_c, 0, 71, 74
2, 319584, Note_off_c, 0, 69, 0
2, 319680, Note_on_c, 0, 69, 77
2, 319688, Note_off_c, 0, 71, 0
2, 319751, Note_on_c, 0, 71, 58
2, 319752, Note_off_c, 0, 69, 0
2, 319797, Note_off_c, 0, 60, 0
2, 319811, Note_on_c, 0, 69, 73
2, 319813, Note_off_c, 0, 71, 0
2, 319860, Note_on_c, 0, 71, 67
2, 319861, Note_off_c, 0, 69, 0
2, 319870, Note_on_c, 0, 62, 38
2, 319908, Note_on_c, 0, 69, 78
2, 319909, Note_off_c, 0, 71, 0
2, 319951, Note_on_c, 0, 71, 60
2, 319953, Note_off_c, 0, 69, 0
2, 319990, Note_off_c, 0, 62, 0
2, 319992, Note_off_c, 0, 71, 0
2, 320006, Note_on_c, 0, 69, 86
2, 320042, Note_on_c, 0, 71, 74
2, 320050, Note_off_c, 0, 69, 0
2, 320084, Note_off_c, 0, 71, 0
2, 320101, Note_on_c, 0, 69, 78
2, 320139, Note_on_c, 0, 71, 83
2, 320146, Note_off_c, 0, 69, 0
2, 320185, Note_off_c, 0, 71, 0
2, 320187, Note_on_c, 0, 69, 70
2, 320210, Note_on_c, 0, 71, 66
2, 320239, Note_off_c, 0, 69, 0
2, 320265, Note_on_c, 0, 69, 69
2, 320280, Note_off_c, 0, 71, 0
2, 320336, Note_on_c, 0, 67, 52
2, 320337, Note_off_c, 0, 69, 0
2, 320388, Note_on_c, 0, 69, 74
2, 320424, Note_off_c, 0, 67, 0
2, 320471, Note_on_c, 0, 67, 75
2, 320512, Note_off_c, 0, 69, 0
2, 320999, Note_on_c, 0, 74, 59
2, 321010, Note_off_c, 0, 67, 0
2, 321156, Note_on_c, 0, 72, 63
2, 321204, Note_off_c, 0, 74, 0
2, 321315, Note_on_c, 0, 71, 39
2, 321335, Note_off_c, 0, 72, 0
2, 321521, Note_on_c, 0, 60, 30
2, 321522, Note_on_c, 0, 76, 44
2, 321536, Note_off_c, 0, 71, 0
2, 322012, Note_off_c, 0, 76, 0
2, 322030, Note_on_c, 0, 72, 29
2, 322165, Note_on_c, 0, 71, 47
2, 322201, Note_off_c, 0, 72, 0
2, 322341, Note_off_c, 0, 71, 0
2, 322341, Note_on_c, 0, 69, 36
2, 322489, Note_off_c, 0, 69, 0
2, 322505, Note_on_c, 0, 67, 42
2, 322560, Note_off_c, 0, 60, 0
2, 323538, Note_on_c, 0, 69, 42
2, 323548, Note_on_c, 0, 60, 34
2, 323552, Note_off_c, 0, 67, 0
2, 323634, Note_on_c, 0, 71, 43
2, 323638, Note_off_c, 0, 69, 0
2, 323734, Note_on_c, 0, 69, 47
2, 323745, Note_off_c, 0, 71, 0
2, 323811, Note_on_c, 0, 71, 61
2, 323826, Note_off_c, 0, 69, 0
2, 323910, Note_on_c, 0, 69, 46
2, 323920, Note_off_c, 0, 71, 0
2, 323979, Note_on_c, 0, 71, 78
2, 323983, Note_off_c, 0, 69, 0
2, 323995, Note_off_c, 0, 60, 0
2, 324016, Note_on_c, 0, 62, 42
2, 324045, Note_on_c, 0, 69, 49
2, 324058, Note_off_c, 0, 71, 0
2, 324099, Note_on_c, 0, 71, 63
2, 324101, Note_off_c, 0, 69, 0
2, 324140, Note_off_c, 0, 71, 0
2, 324149, Note_on_c, 0, 69, 54
2, 324188, Note_off_c, 0, 62, 0
2, 324197, Note_off_c, 0, 69, 0
2, 324202, Note_on_c, 0, 71, 65
2, 324243, Note_off_c, 0, 71, 0
2, 324250, Note_on_c, 0, 69, 66
2, 324272, Note_on_c, 0, 71, 66
2, 324290, Note_off_c, 0, 69, 0
2, 324333, Note_on_c, 0, 69, 61
2, 324337, Note_off_c, 0, 71, 0
2, 324399, Note_on_c, 0, 67, 59
2, 324404, Note_off_c, 0, 69, 0
2, 324465, Note_on_c, 0, 69, 51
2, 324483, Note_off_c, 0, 67, 0
2, 324562, Note_on_c, 0, 67, 59
2, 324608, Note_off_c, 0, 69, 0
2, 324829, Note_off_c, 0, 67, 0
2, 325632, End_track
3, 0, Start_track
3, 0, Title_t, "Hob.XVI:G1"
3, 0, Program_c, 1, 0
3, 3066, Note_on_c, 1, 55, 57
3, 3583, Note_on_c, 1, 43, 53
3, 3618, Note_off_c, 1, 55, 0
3, 4286, Note_off_c, 1, 43, 0
3, 5155, Note_on_c, 1, 55, 64
3, 5652, Note_on_c, 1, 43, 57
3, 5673, Note_off_c, 1, 55, 0
3, 6300, Note_off_c, 1, 43, 0
3, 6600, Note_on_c, 1, 48, 47
3, 7652, Note_on_c, 1, 50, 50
3, 7682, Note_off_c, 1, 48, 0
3, 8381, Note_off_c, 1, 50, 0
3, 8672, Note_on_c, 1, 55, 42
3, 9195, Note_on_c, 1, 50, 52
3, 9249, Note_off_c, 1, 55, 0
3, 9301, Note_off_c, 1, 50, 0
3, 9708, Note_on_c, 1, 43, 59
3, 10015, Note_off_c, 1, 43, 0
3, 10701, Note_on_c, 1, 48, 42
3, 11508, Note_off_c, 1, 48, 0
3, 11771, Note_on_c, 1, 50, 42
3, 12454, Note_off_c, 1, 50, 0
3, 12804, Note_on_c, 1, 59, 56
3, 12812, Note_on_c, 1, 55, 54
3, 13297, Note_on_c, 1, 50, 55
3, 13350, Note_off_c, 1, 55, 0
3, 13395, Note_off_c, 1, 59, 0
3, 13409, Note_off_c, 1, 50, 0
3, 13802, Note_on_c, 1, 43, 65
3, 14135, Note_off_c, 1, 43, 0
3, 17416, Note_on_c, 1, 55, 63
3, 17746, Note_off_c, 1, 55, 0
3, 17927, Note_on_c, 1, 43, 66
3, 18266, Note_off_c, 1, 43, 0
3, 19469, Note_on_c, 1, 54, 51
3, 19590, Note_off_c, 1, 54, 0
3, 19986, Note_on_c, 1, 54, 58
3, 20992, Note_off_c, 1, 54, 0
3, 23016, Note_on_c, 1, 57, 45
3, 24734, Note_off_c, 1, 57, 0
3, 25044, Note_on_c, 1, 50, 46
3, 25339, Note_off_c, 1, 50, 0
3, 25562, Note_on_c, 1, 59, 37
3, 25824, Note_off_c, 1, 59, 0
3, 26045, Note_on_c, 1, 57, 39
3, 26160, Note_off_c, 1, 57, 0
3, 26533, Note_on_c, 1, 55, 34
3, 26660, Note_off_c, 1, 55, 0
3, 27056, Note_on_c, 1, 54, 37
3, 27093, Note_off_c, 1, 54, 0
3, 27632, Note_on_c, 1, 52, 44
3, 27718, Note_off_c, 1, 52, 0
3, 28136, Note_on_c, 1, 50, 49
3, 28382, Note_off_c, 1, 50, 0
3, 29690, Note_on_c, 1, 59, 50
3, 29944, Note_off_c, 1, 59, 0
3, 30198, Note_on_c, 1, 57, 33
3, 30428, Note_off_c, 1, 57, 0
3, 30704, Note_on_c, 1, 55, 34
3, 30907, Note_off_c, 1, 55, 0
3, 31175, Note_on_c, 1, 54, 36
3, 31428, Note_off_c, 1, 54, 0
3, 31668, Note_on_c, 1, 52, 42
3, 31890, Note_off_c, 1, 52, 0
3, 32174, Note_on_c, 1, 50, 36
3, 32910, Note_off_c, 1, 50, 0
3, 33211, Note_on_c, 1, 49, 37
3, 33333, Note_off_c, 1, 49, 0
3, 33474, Note_on_c, 1, 57, 37
3, 33587, Note_off_c, 1, 57, 0
3, 33714, Note_on_c, 1, 49, 41
3, 33924, Note_off_c, 1, 49, 0
3, 33972, Note_on_c, 1, 57, 26
3, 34076, Note_off_c, 1, 57, 0
3, 34242, Note_on_c, 1, 49, 27
3, 34385, Note_off_c, 1, 49, 0
3, 34515, Note_on_c, 1, 57, 31
3, 34610, Note_off_c, 1, 57, 0
3, 34795, Note_on_c, 1, 49, 33
3, 35000, Note_off_c, 1, 49, 0
3, 35051, Note_on_c, 1, 57, 45
3, 35121, Note_off_c, 1, 57, 0
3, 35310, Note_on_c, 1, 50, 45
3, 35539, Note_off_c, 1, 50, 0
3, 35597, Note_on_c, 1, 57, 37
3, 35698, Note_off_c, 1, 57, 0
3, 35833, Note_on_c, 1, 50, 42
3, 35961, Note_off_c, 1, 50, 0
3, 36081, Note_on_c, 1, 57, 35
3, 36212, Note_off_c, 1, 57, 0
3, 36328, Note_on_c, 1, 50, 39
3, 36460, Note_off_c, 1, 50, 0
3, 36569, Note_on_c, 1, 57, 37
3, 36685, Note_off_c, 1, 57, 0
3, 36835, Note_on_c, 1, 50, 42
3, 36990, Note_off_c, 1, 50, 0
3, 37088, Note_on_c, 1, 57, 48
3, 37218, Note_off_c, 1, 57, 0
3, 37342, Note_on_c, 1, 49, 43
3, 37581, Note_off_c, 1, 49, 0
3, 37604, Note_on_c, 1, 57, 44
3, 37711, Note_off_c, 1, 57, 0
3, 37837, Note_on_c, 1, 49, 42
3, 38058, Note_off_c, 1, 49, 0
3, 38112, Note_on_c, 1, 57, 34
3, 38192, Note_off_c, 1, 57, 0
3, 38331, Note_on_c, 1, 49, 37
3, 38503, Note_off_c, 1, 49, 0
3, 38614, Note_on_c, 1, 57, 50
3, 38865, Note_on_c, 1, 49, 41
3, 38878, Note_off_c, 1, 57, 0
3, 39149, Note_on_c, 1, 57, 51
3, 39177, Note_off_c, 1, 49, 0
3, 39383, Note_off_c, 1, 57, 0
3, 39384, Note_on_c, 1, 50, 48
3, 39645, Note_on_c, 1, 57, 44
3, 39663, Note_off_c, 1, 50, 0
3, 39891, Note_on_c, 1, 50, 45
3, 39924, Note_off_c, 1, 57, 0
3, 40169, Note_on_c, 1, 57, 42
3, 40182, Note_off_c, 1, 50, 0
3, 40418, Note_on_c, 1, 50, 46
3, 40440, Note_off_c, 1, 57, 0
3, 40696, Note_on_c, 1, 57, 44
3, 40710, Note_off_c, 1, 50, 0
3, 40980, Note_on_c, 1, 50, 41
3, 41000, Note_off_c, 1, 57, 0
3, 41201, Note_off_c, 1, 50, 0
3, 41238, Note_on_c, 1, 57, 50
3, 41460, Note_on_c, 1, 49, 42
3, 41472, Note_off_c, 1, 57, 0
3, 41693, Note_on_c, 1, 57, 42
3, 41748, Note_off_c, 1, 49, 0
3, 41965, Note_on_c, 1, 49, 37
3, 41968, Note_off_c, 1, 57, 0
3, 42239, Note_on_c, 1, 57, 33
3, 42265, Note_off_c, 1, 49, 0
3, 42468, Note_on_c, 1, 49, 46
3, 42482, Note_off_c, 1, 57, 0
3, 42754, Note_on_c, 1, 57, 42
3, 42759, Note_off_c, 1, 49, 0
3, 42979, Note_off_c, 1, 57, 0
3, 42980, Note_on_c, 1, 49, 47
3, 43242, Note_off_c, 1, 49, 0
3, 43278, Note_on_c, 1, 57, 46
3, 43498, Note_on_c, 1, 50, 62
3, 43520, Note_off_c, 1, 57, 0
3, 44407, Note_off_c, 1, 50, 0
3, 48612, Note_on_c, 1, 55, 47
3, 49485, Note_off_c, 1, 55, 0
3, 50163, Note_on_c, 1, 54, 46
3, 50391, Note_off_c, 1, 54, 0
3, 50656, Note_on_c, 1, 55, 35
3, 50803, Note_off_c, 1, 55, 0
3, 51073, Note_on_c, 1, 57, 40
3, 51232, Note_off_c, 1, 57, 0
3, 51574, Note_on_c, 1, 50, 40
3, 51758, Note_off_c, 1, 50, 0
3, 52792, Note_on_c, 1, 55, 42
3, 53902, Note_off_c, 1, 55, 0
3, 54282, Note_on_c, 1, 54, 42
3, 54449, Note_off_c, 1, 54, 0
3, 54764, Note_on_c, 1, 55, 50
3, 54806, Note_off_c, 1, 55, 0
3, 55192, Note_on_c, 1, 57, 38
3, 55328, Note_off_c, 1, 57, 0
3, 55790, Note_on_c, 1, 50, 39
3, 56216, Note_off_c, 1, 50, 0
3, 59898, Note_on_c, 1, 55, 57
3, 60415, Note_on_c, 1, 43, 53
3, 60450, Note_off_c, 1, 55, 0
3, 61118, Note_off_c, 1, 43, 0
3, 61987, Note_on_c, 1, 55, 64
3, 62484, Note_on_c, 1, 43, 57
3, 62505, Note_off_c, 1, 55, 0
3, 63132, Note_off_c, 1, 43, 0
3, 63432, Note_on_c, 1, 48, 47
3, 64484, Note_on_c, 1, 50, 50
3, 64514, Note_off_c, 1, 48, 0
3, 65213, Note_off_c, 1, 50, 0
3, 65504, Note_on_c, 1, 55, 42
3, 66027, Note_on_c, 1, 50, 52
3, 66081, Note_off_c, 1, 55, 0
3, 66133, Note_off_c, 1, 50, 0
3, 66540, Note_on_c, 1, 43, 59
3, 66847, Note_off_c, 1, 43, 0
3, 67533, Note_on_c, 1, 48, 42
3, 68340, Note_off_c, 1, 48, 0
3, 68603, Note_on_c, 1, 50, 42
3, 69286, Note_off_c, 1, 50, 0
3, 69636, Note_on_c, 1, 59, 56
3, 69644, Note_on_c, 1, 55, 54
3, 70129, Note_on_c, 1, 50, 55
3, 70182, Note_off_c, 1, 55, 0
3, 70227, Note_off_c, 1, 59, 0
3, 70241, Note_off_c, 1, 50, 0
3, 70634, Note_on_c, 1, 43, 65
3, 70967, Note_off_c, 1, 43, 0
3, 74248, Note_on_c, 1, 55, 63
3, 74578, Note_off_c, 1, 55, 0
3, 74759, Note_on_c, 1, 43, 66
3, 75098, Note_off_c, 1, 43, 0
3, 76301, Note_on_c, 1, 54, 51
3, 76422, Note_off_c, 1, 54, 0
3, 76818, Note_on_c, 1, 54, 58
3, 77824, Note_off_c, 1, 54, 0
3, 79848, Note_on_c, 1, 57, 45
3, 81566, Note_off_c, 1, 57, 0
3, 81876, Note_on_c, 1, 50, 46
3, 82171, Note_off_c, 1, 50, 0
3, 82394, Note_on_c, 1, 59, 37
3, 82656, Note_off_c, 1, 59, 0
3, 82877, Note_on_c, 1, 57, 39
3, 82992, Note_off_c, 1, 57, 0
3, 83365, Note_on_c, 1, 55, 34
3, 83492, Note_off_c, 1, 55, 0
3, 83888, Note_on_c, 1, 54, 37
3, 83925, Note_off_c, 1, 54, 0
3, 84464, Note_on_c, 1, 52, 44
3, 84550, Note_off_c, 1, 52, 0
3, 84968, Note_on_c, 1, 50, 49
3, 85214, Note_off_c, 1, 50, 0
3, 86522, Note_on_c, 1, 59, 50
3, 86776, Note_off_c, 1, 59, 0
3, 87030, Note_on_c, 1, 57, 33
3, 87260, Note_off_c, 1, 57, 0
3, 87536, Note_on_c, 1, 55, 34
3, 87739, Note_off_c, 1, 55, 0
3, 88007, Note_on_c, 1, 54, 36
3, 88260, Note_off_c, 1, 54, 0
3, 88500, Note_on_c, 1, 52, 42
3, 88722, Note_off_c, 1, 52, 0
3, 89006, Note_on_c, 1, 50, 36
3, 89742, Note_off_c, 1, 50, 0
3, 90043, Note_on_c, 1, 49, 37
3, 90165, Note_off_c, 1, 49, 0
3, 90306, Note_on_c, 1, 57, 37
3, 90419, Note_off_c, 1, 57, 0
3, 90546, Note_on_c, 1, 49, 41
3, 90756, Note_off_c, 1, 49, 0
3, 90804, Note_on_c, 1, 57, 26
3, 90908, Note_off_c, 1, 57, 0
3, 91074, Note_on_c, 1, 49, 27
3, 91217, Note_off_c, 1, 49, 0
3, 91347, Note_on_c, 1, 57, 31
3, 91442, Note_off_c, 1, 57, 0
3, 91627, Note_on_c, 1, 49, 33
3, 91832, Note_off_c, 1, 49, 0
3, 91883, Note_on_c, 1, 57, 45
3, 91953, Note_off_c, 1, 57, 0
3, 92142, Note_on_c, 1, 50, 45
3, 92371, Note_off_c, 1, 50, 0
3, 92429, Note_on_c, 1, 57, 37
3, 92530, Note_off_c, 1, 57, 0
3, 92665, Note_on_c, 1, 50, 42
3, 92793, Note_off_c, 1, 50, 0
3, 92913, Note_on_c, 1, 57, 35
3, 93044, Note_off_c, 1, 57, 0
3, 93160, Note_on_c, 1, 50, 39
3, 93292, Note_off_c, 1, 50, 0
3, 93401, Note_on_c, 1, 57, 37
3, 93517, Note_off_c, 1, 57, 0
3, 93667, Note_on_c, 1, 50, 42
3, 93822, Note_off_c, 1, 50, 0
3, 93920, Note_on_c, 1, 57, 48
3, 94050, Note_off_c, 1, 57, 0
3, 94174, Note_on_c, 1, 49, 43
3, 94413, Note_off_c, 1, 49, 0
3, 94436, Note_on_c, 1, 57, 44
3, 94543, Note_off_c, 1, 57, 0
3, 94669, Note_on_c, 1, 49, 42
3, 94890, Note_off_c, 1, 49, 0
3, 94944, Note_on_c, 1, 57, 34
3, 95024, Note_off_c, 1, 57, 0
3, 95163, Note_on_c, 1, 49, 37
3, 95335, Note_off_c, 1, 49, 0
3, 95446, Note_on_c, 1, 57, 50
3, 95697, Note_on_c, 1, 49, 41
3, 95710, Note_off_c, 1, 57, 0
3, 95981, Note_on_c, 1, 57, 51
3, 96009, Note_off_c, 1, 49, 0
3, 96215, Note_off_c, 1, 57, 0
3, 96216, Note_on_c, 1, 50, 48
3, 96477, Note_on_c, 1, 57, 44
3, 96495, Note_off_c, 1, 50, 0
3, 96723, Note_on_c, 1, 50, 45
3, 96756, Note_off_c, 1, 57, 0
3, 97001, Note_on_c, 1, 57, 42
3, 97014, Note_off_c, 1, 50, 0
3, 97250, Note_on_c, 1, 50, 46
3, 97272, Note_off_c, 1, 57, 0
3, 97528, Note_on_c, 1, 57, 44
3, 97542, Note_off_c, 1, 50, 0
3, 97812, Note_on_c, 1, 50, 41
3, 97832, Note_off_c, 1, 57, 0
3, 98033, Note_off_c, 1, 50, 0
3, 98070, Note_on_c, 1, 57, 50
3, 98292, Note_on_c, 1, 49, 42
3, 98304, Note_off_c, 1, 57, 0
3, 98525, Note_on_c, 1, 57, 42
3, 98580, Note_off_c, 1, 49, 0
3, 98797, Note_on_c, 1, 49, 37
3, 98800, Note_off_c, 1, 57, 0
3, 99071, Note_on_c, 1, 57, 33
3, 99097, Note_off_c, 1, 49, 0
3, 99300, Note_on_c, 1, 49, 46
3, 99314, Note_off_c, 1, 57, 0
3, 99586, Note_on_c, 1, 57, 42
3, 99591, Note_off_c, 1, 49, 0
3, 99811, Note_off_c, 1, 57, 0
3, 99812, Note_on_c, 1, 49, 47
3, 100074, Note_off_c, 1, 49, 0
3, 100110, Note_on_c, 1, 57, 46
3, 100330, Note_on_c, 1, 50, 62
3, 100352, Note_off_c, 1, 57, 0
3, 101239, Note_off_c, 1, 50, 0
3, 105444, Note_on_c, 1, 55, 47
3, 106317, Note_off_c, 1, 55, 0
3, 106995, Note_on_c, 1, 54, 46
3, 107223, Note_off_c, 1, 54, 0
3, 107488, Note_on_c, 1, 55, 35
3, 107635, Note_off_c, 1, 55, 0
3, 107905, Note_on_c, 1, 57, 40
3, 108064, Note_off_c, 1, 57, 0
3, 108406, Note_on_c, 1, 50, 40
3, 108590, Note_off_c, 1, 50, 0
3, 109624, Note_on_c, 1, 55, 42
3, 110734, Note_off_c, 1, 55, 0
3, 111114, Note_on_c, 1, 54, 42
3, 111281, Note_off_c, 1, 54, 0
3, 111596, Note_on_c, 1, 55, 50
3, 111638, Note_off_c, 1, 55, 0
3, 112024, Note_on_c, 1, 57, 38
3, 112160, Note_off_c, 1, 57, 0
3, 112622, Note_on_c, 1, 50, 39
3, 113048, Note_off_c, 1, 50, 0
3, 116705, Note_on_c, 1, 50, 54
3, 116806, Note_off_c, 1, 50, 0
3, 117186, Note_on_c, 1, 38, 58
3, 117717, Note_off_c, 1, 38, 0
3, 118737, Note_on_c, 1, 50, 50
3, 118850, Note_off_c, 1, 50, 0
3, 119241, Note_on_c, 1, 38, 51
3, 119629, Note_off_c, 1, 38, 0
3, 120252, Note_on_c, 1, 55, 46
3, 120320, Note_off_c, 1, 55, 0
3, 122844, Note_on_c, 1, 55, 66
3, 122948, Note_off_c, 1, 55, 0
3, 123348, Note_on_c, 1, 43, 66
3, 124037, Note_off_c, 1, 43, 0
3, 124906, Note_on_c, 1, 55, 66
3, 125351, Note_off_c, 1, 55, 0
3, 125356, Note_on_c, 1, 43, 67
3, 125557, Note_off_c, 1, 43, 0
3, 128505, Note_on_c, 1, 59, 40
3, 128715, Note_off_c, 1, 59, 0
3, 129003, Note_on_c, 1, 59, 39
3, 129220, Note_off_c, 1, 59, 0
3, 129542, Note_on_c, 1, 59, 32
3, 129675, Note_off_c, 1, 59, 0
3, 130041, Note_on_c, 1, 59, 42
3, 130134, Note_off_c, 1, 59, 0
3, 132603, Note_on_c, 1, 59, 43
3, 132808, Note_off_c, 1, 59, 0
3, 133096, Note_on_c, 1, 59, 40
3, 133302, Note_off_c, 1, 59, 0
3, 133635, Note_on_c, 1, 59, 37
3, 133884, Note_off_c, 1, 59, 0
3, 134157, Note_on_c, 1, 59, 39
3, 134388, Note_off_c, 1, 59, 0
3, 164897, Note_on_c, 1, 59, 45
3, 165051, Note_on_c, 1, 57, 45
3, 165084, Note_off_c, 1, 59, 0
3, 165122, Note_on_c, 1, 55, 49
3, 165159, Note_off_c, 1, 57, 0
3, 165236, Note_on_c, 1, 54, 39
3, 165267, Note_off_c, 1, 55, 0
3, 165414, Note_off_c, 1, 54, 0
3, 165434, Note_on_c, 1, 52, 39
3, 166103, Note_off_c, 1, 52, 0
3, 167271, Note_on_c, 1, 59, 46
3, 167424, Note_off_c, 1, 59, 0
3, 167428, Note_on_c, 1, 57, 65
3, 168633, Note_off_c, 1, 57, 0
3, 168943, Note_on_c, 1, 57, 35
3, 169084, Note_on_c, 1, 55, 37
3, 169104, Note_off_c, 1, 57, 0
3, 169182, Note_on_c, 1, 54, 49
3, 169186, Note_off_c, 1, 55, 0
3, 169319, Note_on_c, 1, 52, 40
3, 169342, Note_off_c, 1, 54, 0
3, 169472, Note_off_c, 1, 52, 0
3, 169475, Note_on_c, 1, 50, 59
3, 170418, Note_off_c, 1, 50, 0
3, 171295, Note_on_c, 1, 59, 49
3, 171395, Note_on_c, 1, 57, 59
3, 171414, Note_off_c, 1, 59, 0
3, 171520, Note_off_c, 1, 57, 0
3, 171540, Note_on_c, 1, 55, 57
3, 172820, Note_off_c, 1, 55, 0
3, 176115, Note_on_c, 1, 55, 55
3, 176623, Note_on_c, 1, 43, 54
3, 176627, Note_off_c, 1, 55, 0
3, 177610, Note_off_c, 1, 43, 0
3, 178140, Note_on_c, 1, 55, 64
3, 178333, Note_off_c, 1, 55, 0
3, 178681, Note_on_c, 1, 43, 59
3, 179666, Note_on_c, 1, 48, 46
3, 179712, Note_off_c, 1, 43, 0
3, 180688, Note_on_c, 1, 50, 46
3, 180718, Note_off_c, 1, 48, 0
3, 181461, Note_off_c, 1, 50, 0
3, 181756, Note_on_c, 1, 55, 46
3, 182287, Note_on_c, 1, 50, 51
3, 182367, Note_off_c, 1, 55, 0
3, 182406, Note_off_c, 1, 50, 0
3, 182798, Note_on_c, 1, 43, 65
3, 183249, Note_off_c, 1, 43, 0
3, 183841, Note_on_c, 1, 48, 60
3, 185360, Note_on_c, 1, 49, 53
3, 185369, Note_off_c, 1, 48, 0
3, 185619, Note_off_c, 1, 49, 0
3, 185847, Note_on_c, 1, 50, 57
3, 186411, Note_off_c, 1, 50, 0
3, 186896, Note_on_c, 1, 38, 53
3, 187091, Note_off_c, 1, 38, 0
3, 189908, Note_on_c, 1, 59, 55
3, 190451, Note_on_c, 1, 57, 67
3, 190587, Note_off_c, 1, 59, 0
3, 190955, Note_on_c, 1, 55, 38
3, 190974, Note_off_c, 1, 57, 0
3, 192000, Note_off_c, 1, 55, 0
3, 194060, Note_on_c, 1, 59, 38
3, 194582, Note_on_c, 1, 57, 52
3, 194625, Note_off_c, 1, 59, 0
3, 195119, Note_on_c, 1, 55, 58
3, 195159, Note_off_c, 1, 57, 0
3, 195747, Note_off_c, 1, 55, 0
3, 196094, Note_on_c, 1, 54, 34
3, 196307, Note_off_c, 1, 54, 0
3, 196591, Note_on_c, 1, 54, 34
3, 196815, Note_off_c, 1, 54, 0
3, 197112, Note_on_c, 1, 54, 31
3, 197308, Note_off_c, 1, 54, 0
3, 197638, Note_on_c, 1, 54, 42
3, 197812, Note_off_c, 1, 54, 0
3, 198122, Note_on_c, 1, 55, 47
3, 198401, Note_off_c, 1, 55, 0
3, 198638, Note_on_c, 1, 55, 48
3, 198904, Note_off_c, 1, 55, 0
3, 199134, Note_on_c, 1, 55, 57
3, 199418, Note_off_c, 1, 55, 0
3, 199653, Note_on_c, 1, 55, 42
3, 199954, Note_off_c, 1, 55, 0
3, 200158, Note_on_c, 1, 54, 36
3, 200469, Note_off_c, 1, 54, 0
3, 200681, Note_on_c, 1, 54, 22
3, 201002, Note_off_c, 1, 54, 0
3, 201218, Note_on_c, 1, 54, 43
3, 201484, Note_off_c, 1, 54, 0
3, 201720, Note_on_c, 1, 54, 42
3, 201933, Note_off_c, 1, 54, 0
3, 202236, Note_on_c, 1, 55, 35
3, 202480, Note_off_c, 1, 55, 0
3, 202763, Note_on_c, 1, 55, 55
3, 203023, Note_off_c, 1, 55, 0
3, 203271, Note_on_c, 1, 55, 52
3, 203531, Note_off_c, 1, 55, 0
3, 203781, Note_on_c, 1, 55, 45
3, 204009, Note_off_c, 1, 55, 0
3, 204279, Note_on_c, 1, 54, 34
3, 204542, Note_off_c, 1, 54, 0
3, 204803, Note_on_c, 1, 54, 38
3, 205049, Note_off_c, 1, 54, 0
3, 205326, Note_on_c, 1, 54, 31
3, 205515, Note_off_c, 1, 54, 0
3, 205818, Note_on_c, 1, 54, 37
3, 206004, Note_off_c, 1, 54, 0
3, 206318, Note_on_c, 1, 55, 59
3, 207499, Note_off_c, 1, 55, 0
3, 207876, Note_on_c, 1, 54, 49
3, 208384, Note_off_c, 1, 54, 0
3, 208430, Note_on_c, 1, 55, 56
3, 209738, Note_off_c, 1, 55, 0
3, 209943, Note_on_c, 1, 54, 38
3, 210432, Note_off_c, 1, 54, 0
3, 210438, Note_on_c, 1, 55, 44
3, 211191, Note_off_c, 1, 55, 0
3, 212966, Note_on_c, 1, 59, 70
3, 213499, Note_off_c, 1, 59, 0
3, 214467, Note_on_c, 1, 55, 30
3, 215425, Note_off_c, 1, 55, 0
3, 217076, Note_on_c, 1, 59, 34
3, 217598, Note_off_c, 1, 59, 0
3, 218634, Note_on_c, 1, 55, 39
3, 218868, Note_off_c, 1, 55, 0
3, 222689, Note_on_c, 1, 50, 54
3, 222790, Note_off_c, 1, 50, 0
3, 223170, Note_on_c, 1, 38, 58
3, 223701, Note_off_c, 1, 38, 0
3, 224721, Note_on_c, 1, 50, 50
3, 224834, Note_off_c, 1, 50, 0
3, 225225, Note_on_c, 1, 38, 51
3, 225613, Note_off_c, 1, 38, 0
3, 226236, Note_on_c, 1, 55, 46
3, 226304, Note_off_c, 1, 55, 0
3, 228828, Note_on_c, 1, 55, 66
3, 228932, Note_off_c, 1, 55, 0
3, 229332, Note_on_c, 1, 43, 66
3, 230021, Note_off_c, 1, 43, 0
3, 230890, Note_on_c, 1, 55, 66
3, 231335, Note_off_c, 1, 55, 0
3, 231340, Note_on_c, 1, 43, 67
3, 231541, Note_off_c, 1, 43, 0
3, 234489, Note_on_c, 1, 59, 40
3, 234699, Note_off_c, 1, 59, 0
3, 234987, Note_on_c, 1, 59, 39
3, 235204, Note_off_c, 1, 59, 0
3, 235526, Note_on_c, 1, 59, 32
3, 235659, Note_off_c, 1, 59, 0
3, 236025, Note_on_c, 1, 59, 42
3, 236118, Note_off_c, 1, 59, 0
3, 238587, Note_on_c, 1, 59, 43
3, 238792, Note_off_c, 1, 59, 0
3, 239080, Note_on_c, 1, 59, 40
3, 239286, Note_off_c, 1, 59, 0
3, 239619, Note_on_c, 1, 59, 37
3, 239868, Note_off_c, 1, 59, 0
3, 240141, Note_on_c, 1, 59, 39
3, 240372, Note_off_c, 1, 59, 0
3, 270881, Note_on_c, 1, 59, 45
3, 271035, Note_on_c, 1, 57, 45
3, 271068, Note_off_c, 1, 59, 0
3, 271106, Note_on_c, 1, 55, 49
3, 271143, Note_off_c, 1, 57, 0
3, 271220, Note_on_c, 1, 54, 39
3, 271251, Note_off_c, 1, 55, 0
3, 271398, Note_off_c, 1, 54, 0
3, 271418, Note_on_c, 1, 52, 39
3, 272087, Note_off_c, 1, 52, 0
3, 273255, Note_on_c, 1, 59, 46
3, 273408, Note_off_c, 1, 59, 0
3, 273412, Note_on_c, 1, 57, 65
3, 274617, Note_off_c, 1, 57, 0
3, 274927, Note_on_c, 1, 57, 35
3, 275068, Note_on_c, 1, 55, 37
3, 275088, Note_off_c, 1, 57, 0
3, 275166, Note_on_c, 1, 54, 49
3, 275170, Note_off_c, 1, 55, 0
3, 275303, Note_on_c, 1, 52, 40
3, 275326, Note_off_c, 1, 54, 0
3, 275456, Note_off_c, 1, 52, 0
3, 275459, Note_on_c, 1, 50, 59
3, 276402, Note_off_c, 1, 50, 0
3, 277279, Note_on_c, 1, 59, 49
3, 277379, Note_on_c, 1, 57, 59
3, 277398, Note_off_c, 1, 59, 0
3, 277504, Note_off_c, 1, 57, 0
3, 277524, Note_on_c, 1, 55, 57
3, 278804, Note_off_c, 1, 55, 0
3, 282099, Note_on_c, 1, 55, 55
3, 282607, Note_on_c, 1, 43, 54
3, 282611, Note_off_c, 1, 55, 0
3, 283594, Note_off_c, 1, 43, 0
3, 284124, Note_on_c, 1, 55, 64
3, 284317, Note_off_c, 1, 55, 0
3, 284665, Note_on_c, 1, 43, 59
3, 285650, Note_on_c, 1, 48, 46
3, 285696, Note_off_c, 1, 43, 0
3, 286672, Note_on_c, 1, 50, 46
3, 286702, Note_off_c, 1, 48, 0
3, 287445, Note_off_c, 1, 50, 0
3, 287740, Note_on_c, 1, 55, 46
3, 288271, Note_on_c, 1, 50, 51
3, 288351, Note_off_c, 1, 55, 0
3, 288390, Note_off_c, 1, 50, 0
3, 288782, Note_on_c, 1, 43, 65
3, 289233, Note_off_c, 1, 43, 0
3, 289825, Note_on_c, 1, 48, 60
3, 291344, Note_on_c, 1, 49, 53
3, 291353, Note_off_c, 1, 48, 0
3, 291603, Note_off_c, 1, 49, 0
3, 291831, Note_on_c, 1, 50, 57
3, 292395, Note_off_c, 1, 50, 0
3, 292880, Note_on_c, 1, 38, 53
3, 293075, Note_off_c, 1, 38, 0
3, 295892, Note_on_c, 1, 59, 55
3, 296435, Note_on_c, 1, 57, 67
3, 296571, Note_off_c, 1, 59, 0
3, 296939, Note_on_c, 1, 55, 38
3, 296958, Note_off_c, 1, 57, 0
3, 297984, Note_off_c, 1, 55, 0
3, 300044, Note_on_c, 1, 59, 38
3, 300566, Note_on_c, 1, 57, 52
3, 300609, Note_off_c, 1, 59, 0
3, 301103, Note_on_c, 1, 55, 58
3, 301143, Note_off_c, 1, 57, 0
3, 301731, Note_off_c, 1, 55, 0
3, 302078, Note_on_c, 1, 54, 34
3, 302291, Note_off_c, 1, 54, 0
3, 302575, Note_on_c, 1, 54, 34
3, 302799, Note_off_c, 1, 54, 0
3, 303096, Note_on_c, 1, 54, 31
3, 303292, Note_off_c, 1, 54, 0
3, 303622, Note_on_c, 1, 54, 42
3, 303796, Note_off_c, 1, 54, 0
3, 304106, Note_on_c, 1, 55, 47
3, 304385, Note_off_c, 1, 55, 0
3, 304622, Note_on_c, 1, 55, 48
3, 304888, Note_off_c, 1, 55, 0
3, 305118, Note_on_c, 1, 55, 57
3, 305402, Note_off_c, 1, 55, 0
3, 305637, Note_on_c, 1, 55, 42
3, 305938, Note_off_c, 1, 55, 0
3, 306142, Note_on_c, 1, 54, 36
3, 306453, Note_off_c, 1, 54, 0
3, 306665, Note_on_c, 1, 54, 22
3, 306986, Note_off_c, 1, 54, 0
3, 307202, Note_on_c, 1, 54, 43
3, 307468, Note_off_c, 1, 54, 0
3, 307704, Note_on_c, 1, 54, 42
3, 307917, Note_off_c, 1, 54, 0
3, 308220, Note_on_c, 1, 55, 35
3, 308464, Note_off_c, 1, 55, 0
3, 308747, Note_on_c, 1, 55, 55
3, 309007, Note_off_c, 1, 55, 0
3, 309255, Note_on_c, 1, 55, 52
3, 309515, Note_off_c, 1, 55, 0
3, 309765, Note_on_c, 1, 55, 45
3, 309993, Note_off_c, 1, 55, 0
3, 310263, Note_on_c, 1, 54, 34
3, 310526, Note_off_c, 1, 54, 0
3, 310787, Note_on_c, 1, 54, 38
3, 311033, Note_off_c, 1, 54, 0
3, 311310, Note_on_c, 1, 54, 31
3, 311499, Note_off_c, 1, 54, 0
3, 311802, Note_on_c, 1, 54, 37
3, 311988, Note_off_c, 1, 54, 0
3, 312302, Note_on_c, 1, 55, 59
3, 313483, Note_off_c, 1, 55, 0
3, 313860, Note_on_c, 1, 54, 49
3, 314368, Note_off_c, 1, 54, 0
3, 314414, Note_on_c, 1, 55, 56
3, 315722, Note_off_c, 1, 55, 0
3, 315927, Note_on_c, 1, 54, 38
3, 316416, Note_off_c, 1, 54, 0
3, 316422, Note_on_c, 1, 55, 44
3, 317175, Note_off_c, 1, 55, 0
3, 318950, Note_on_c, 1, 59, 70
3, 319483, Note_off_c, 1, 59, 0
3, 320451, Note_on_c, 1, 55, 30
3, 321409, Note_off_c, 1, 55, 0
3, 323060, Note_on_c, 1, 59, 34
3, 323582, Note_off_c, 1, 59, 0
3, 324618, Note_on_c, 1, 55, 39
3, 324852, Note_off_c, 1, 55, 0
3, 325632, End_track
4, 0, Start_track
4, 0, Title_t, "Played by T O Drisceoil"
4, 0, Program_c, 2, 0
4, 512, Note_on_c, 2, 67, 64
4, 1024, Note_off_c, 2, 67, 0
4, 4608, Note_on_c, 2, 71, 64
4, 5120, Note_off_c, 2, 71, 0
4, 8704, Note_on_c, 2, 72, 64
4, 9216, Note_off_c, 2, 72, 0
4, 57344, Note_on_c, 2, 67, 64
4, 57856, Note_off_c, 2, 67, 0
4, 61440, Note_on_c, 2, 71, 64
4, 61952, Note_off_c, 2, 71, 0
4, 65536, Note_on_c, 2, 72, 64
4, 66048, Note_off_c, 2, 72, 0
4, 218624, Note_on_c, 2, 67, 64
4, 219648, Note_off_c, 2, 67, 0
4, 324608, Note_on_c, 2, 67, 64
4, 325632, Note_off_c, 2, 67, 0
4, 325632, End_track
0, 0, End_of_file
