0, 0, Header, 1, 6, 96
1, 0, Start_track
1, 0, Copyright_t, "Copyright  2000 <copyright holder>"
1, 0, Text_t, "Sonata IV\015\012"
1, 0, Text_t, "Haydn\015\012"
1, 0, Sequencer_specific, 16, 68, 87, 77, 90, 86, 82, 83, 78, 32, 54, 46, 48, 46, 57, 46, 48
1, 0, Time_signature, 4, 2, 24, 8
1, 0, Tempo, 731707
1, 0, Key_signature, -3, "major"
1, 7872, Tempo, 1714285
1, 8016, Tempo, 731707
1, 18624, Tempo, 1714285
1, 18768, Tempo, 731707
1, 36672, Tempo, 1714285
1, 36816, Tempo, 731707
1, 55104, Tempo, 1714285
1, 55248, Tempo, 731707
1, 58704, End_track
2, 0, Start_track
2, 0, Program_c, 0, 0
2, 0, Control_c, 0, 7, 127
2, 0, Control_c, 0, 10, 64
2, 0, Note_on_c, 0, 75, 64
2, 89, Note_on_c, 0, 75, 0
2, 96, Note_on_c, 0, 70, 64
2, 163, Note_on_c, 0, 70, 0
2, 168, Note_on_c, 0, 68, 64
2, 191, Note_on_c, 0, 68, 0
2, 192, Note_on_c, 0, 68, 64
2, 288, Note_on_c, 0, 68, 0
2, 288, Note_on_c, 0, 67, 64
2, 300, Note_on_c, 0, 67, 0
2, 300, Note_on_c, 0, 68, 64
2, 312, Note_on_c, 0, 68, 0
2, 312, Note_on_c, 0, 67, 64
2, 333, Note_on_c, 0, 67, 0
2, 336, Note_on_c, 0, 65, 64
2, 381, Note_on_c, 0, 65, 0
2, 384, Note_on_c, 0, 63, 64
2, 432, Note_on_c, 0, 63, 0
2, 432, Note_on_c, 0, 68, 64
2, 477, Note_on_c, 0, 68, 0
2, 480, Note_on_c, 0, 65, 64
2, 528, Note_on_c, 0, 65, 0
2, 528, Note_on_c, 0, 70, 64
2, 573, Note_on_c, 0, 70, 0
2, 576, Note_on_c, 0, 68, 64
2, 672, Note_on_c, 0, 68, 0
2, 672, Note_on_c, 0, 67, 64
2, 684, Note_on_c, 0, 67, 0
2, 684, Note_on_c, 0, 68, 64
2, 696, Note_on_c, 0, 68, 0
2, 696, Note_on_c, 0, 67, 64
2, 717, Note_on_c, 0, 67, 0
2, 720, Note_on_c, 0, 65, 64
2, 765, Note_on_c, 0, 65, 0
2, 768, Note_on_c, 0, 63, 64
2, 802, Note_on_c, 0, 63, 0
2, 804, Note_on_c, 0, 68, 64
2, 816, Note_on_c, 0, 68, 0
2, 816, Note_on_c, 0, 68, 64
2, 828, Note_on_c, 0, 68, 0
2, 828, Note_on_c, 0, 70, 64
2, 840, Note_on_c, 0, 70, 0
2, 840, Note_on_c, 0, 68, 64
2, 861, Note_on_c, 0, 68, 0
2, 864, Note_on_c, 0, 65, 64
2, 898, Note_on_c, 0, 65, 0
2, 900, Note_on_c, 0, 70, 64
2, 912, Note_on_c, 0, 70, 0
2, 912, Note_on_c, 0, 70, 64
2, 924, Note_on_c, 0, 70, 0
2, 924, Note_on_c, 0, 72, 64
2, 936, Note_on_c, 0, 72, 0
2, 936, Note_on_c, 0, 70, 64
2, 957, Note_on_c, 0, 70, 0
2, 960, Note_on_c, 0, 68, 64
2, 1008, Note_on_c, 0, 68, 0
2, 1008, Note_on_c, 0, 67, 64
2, 1042, Note_on_c, 0, 67, 0
2, 1044, Note_on_c, 0, 79, 64
2, 1056, Note_on_c, 0, 79, 0
2, 1056, Note_on_c, 0, 75, 64
2, 1076, Note_on_c, 0, 75, 0
2, 1140, Note_on_c, 0, 75, 64
2, 1152, Note_on_c, 0, 75, 0
2, 1152, Note_on_c, 0, 72, 64
2, 1197, Note_on_c, 0, 72, 0
2, 1236, Note_on_c, 0, 72, 64
2, 1248, Note_on_c, 0, 72, 0
2, 1248, Note_on_c, 0, 70, 64
2, 1282, Note_on_c, 0, 70, 0
2, 1284, Note_on_c, 0, 68, 64
2, 1296, Note_on_c, 0, 68, 0
2, 1296, Note_on_c, 0, 65, 64
2, 1330, Note_on_c, 0, 65, 0
2, 1332, Note_on_c, 0, 62, 64
2, 1344, Note_on_c, 0, 62, 0
2, 1344, Note_on_c, 0, 63, 64
2, 1389, Note_on_c, 0, 63, 0
2, 1536, Note_on_c, 0, 75, 64
2, 1603, Note_on_c, 0, 75, 0
2, 1608, Note_on_c, 0, 79, 64
2, 1620, Note_on_c, 0, 79, 0
2, 1620, Note_on_c, 0, 82, 64
2, 1632, Note_on_c, 0, 82, 0
2, 1632, Note_on_c, 0, 70, 64
2, 1677, Note_on_c, 0, 70, 0
2, 1680, Note_on_c, 0, 68, 64
2, 1725, Note_on_c, 0, 68, 0
2, 1728, Note_on_c, 0, 67, 64
2, 1736, Note_on_c, 0, 67, 0
2, 1736, Note_on_c, 0, 68, 64
2, 1744, Note_on_c, 0, 68, 0
2, 1744, Note_on_c, 0, 70, 64
2, 1752, Note_on_c, 0, 70, 0
2, 1752, Note_on_c, 0, 68, 64
2, 1819, Note_on_c, 0, 68, 0
2, 1824, Note_on_c, 0, 67, 64
2, 1836, Note_on_c, 0, 67, 0
2, 1836, Note_on_c, 0, 68, 64
2, 1848, Note_on_c, 0, 68, 0
2, 1848, Note_on_c, 0, 67, 64
2, 1869, Note_on_c, 0, 67, 0
2, 1872, Note_on_c, 0, 65, 64
2, 1917, Note_on_c, 0, 65, 0
2, 1920, Note_on_c, 0, 63, 64
2, 1968, Note_on_c, 0, 63, 0
2, 1968, Note_on_c, 0, 68, 64
2, 2013, Note_on_c, 0, 68, 0
2, 2016, Note_on_c, 0, 65, 64
2, 2064, Note_on_c, 0, 65, 0
2, 2064, Note_on_c, 0, 70, 64
2, 2109, Note_on_c, 0, 70, 0
2, 2112, Note_on_c, 0, 68, 64
2, 2208, Note_on_c, 0, 68, 0
2, 2208, Note_on_c, 0, 67, 64
2, 2220, Note_on_c, 0, 67, 0
2, 2220, Note_on_c, 0, 68, 64
2, 2232, Note_on_c, 0, 68, 0
2, 2232, Note_on_c, 0, 67, 64
2, 2253, Note_on_c, 0, 67, 0
2, 2256, Note_on_c, 0, 65, 64
2, 2301, Note_on_c, 0, 65, 0
2, 2304, Note_on_c, 0, 63, 64
2, 2327, Note_on_c, 0, 63, 0
2, 2328, Note_on_c, 0, 70, 64
2, 2351, Note_on_c, 0, 70, 0
2, 2352, Note_on_c, 0, 68, 64
2, 2375, Note_on_c, 0, 68, 0
2, 2376, Note_on_c, 0, 67, 64
2, 2399, Note_on_c, 0, 67, 0
2, 2400, Note_on_c, 0, 65, 64
2, 2423, Note_on_c, 0, 65, 0
2, 2424, Note_on_c, 0, 72, 64
2, 2447, Note_on_c, 0, 72, 0
2, 2448, Note_on_c, 0, 70, 64
2, 2471, Note_on_c, 0, 70, 0
2, 2472, Note_on_c, 0, 68, 64
2, 2495, Note_on_c, 0, 68, 0
2, 2496, Note_on_c, 0, 67, 64
2, 2508, Note_on_c, 0, 67, 0
2, 2508, Note_on_c, 0, 70, 64
2, 2520, Note_on_c, 0, 70, 0
2, 2520, Note_on_c, 0, 68, 64
2, 2543, Note_on_c, 0, 68, 0
2, 2544, Note_on_c, 0, 67, 64
2, 2567, Note_on_c, 0, 67, 0
2, 2568, Note_on_c, 0, 79, 64
2, 2591, Note_on_c, 0, 79, 0
2, 2592, Note_on_c, 0, 74, 64
2, 2604, Note_on_c, 0, 74, 0
2, 2604, Note_on_c, 0, 77, 64
2, 2616, Note_on_c, 0, 77, 0
2, 2616, Note_on_c, 0, 75, 64
2, 2639, Note_on_c, 0, 75, 0
2, 2664, Note_on_c, 0, 75, 64
2, 2687, Note_on_c, 0, 75, 0
2, 2688, Note_on_c, 0, 71, 64
2, 2700, Note_on_c, 0, 71, 0
2, 2700, Note_on_c, 0, 74, 64
2, 2712, Note_on_c, 0, 74, 0
2, 2712, Note_on_c, 0, 72, 64
2, 2735, Note_on_c, 0, 72, 0
2, 2760, Note_on_c, 0, 72, 64
2, 2783, Note_on_c, 0, 72, 0
2, 2784, Note_on_c, 0, 67, 64
2, 2796, Note_on_c, 0, 67, 0
2, 2796, Note_on_c, 0, 70, 64
2, 2808, Note_on_c, 0, 70, 0
2, 2808, Note_on_c, 0, 68, 64
2, 2853, Note_on_c, 0, 68, 0
2, 2856, Note_on_c, 0, 65, 64
2, 2868, Note_on_c, 0, 65, 0
2, 2868, Note_on_c, 0, 62, 64
2, 2880, Note_on_c, 0, 62, 0
2, 2880, Note_on_c, 0, 63, 64
2, 2925, Note_on_c, 0, 63, 0
2, 2928, Note_on_c, 0, 63, 64
2, 2973, Note_on_c, 0, 63, 0
2, 2976, Note_on_c, 0, 63, 64
2, 3021, Note_on_c, 0, 63, 0
2, 3024, Note_on_c, 0, 63, 64
2, 3069, Note_on_c, 0, 63, 0
2, 3072, Note_on_c, 0, 63, 64
2, 3117, Note_on_c, 0, 63, 0
2, 3120, Note_on_c, 0, 63, 64
2, 3154, Note_on_c, 0, 63, 0
2, 3156, Note_on_c, 0, 63, 64
2, 3168, Note_on_c, 0, 63, 0
2, 3168, Note_on_c, 0, 63, 64
2, 3202, Note_on_c, 0, 63, 0
2, 3204, Note_on_c, 0, 63, 64
2, 3216, Note_on_c, 0, 63, 0
2, 3216, Note_on_c, 0, 63, 64
2, 3250, Note_on_c, 0, 63, 0
2, 3252, Note_on_c, 0, 63, 64
2, 3264, Note_on_c, 0, 63, 0
2, 3264, Note_on_c, 0, 63, 64
2, 3309, Note_on_c, 0, 63, 0
2, 3312, Note_on_c, 0, 62, 64
2, 3324, Note_on_c, 0, 62, 0
2, 3324, Note_on_c, 0, 63, 64
2, 3336, Note_on_c, 0, 63, 0
2, 3336, Note_on_c, 0, 65, 64
2, 3348, Note_on_c, 0, 65, 0
2, 3348, Note_on_c, 0, 63, 64
2, 3360, Note_on_c, 0, 63, 0
2, 3360, Note_on_c, 0, 62, 64
2, 3372, Note_on_c, 0, 62, 0
2, 3372, Note_on_c, 0, 63, 64
2, 3384, Note_on_c, 0, 63, 0
2, 3384, Note_on_c, 0, 65, 64
2, 3396, Note_on_c, 0, 65, 0
2, 3396, Note_on_c, 0, 63, 64
2, 3408, Note_on_c, 0, 63, 0
2, 3408, Note_on_c, 0, 62, 64
2, 3420, Note_on_c, 0, 62, 0
2, 3420, Note_on_c, 0, 63, 64
2, 3432, Note_on_c, 0, 63, 0
2, 3432, Note_on_c, 0, 65, 64
2, 3444, Note_on_c, 0, 65, 0
2, 3444, Note_on_c, 0, 63, 64
2, 3456, Note_on_c, 0, 63, 0
2, 3456, Note_on_c, 0, 62, 64
2, 3468, Note_on_c, 0, 62, 0
2, 3468, Note_on_c, 0, 63, 64
2, 3480, Note_on_c, 0, 63, 0
2, 3480, Note_on_c, 0, 65, 64
2, 3492, Note_on_c, 0, 65, 0
2, 3492, Note_on_c, 0, 67, 64
2, 3504, Note_on_c, 0, 67, 0
2, 3504, Note_on_c, 0, 68, 64
2, 3516, Note_on_c, 0, 68, 0
2, 3516, Note_on_c, 0, 70, 64
2, 3528, Note_on_c, 0, 70, 0
2, 3528, Note_on_c, 0, 72, 64
2, 3540, Note_on_c, 0, 72, 0
2, 3540, Note_on_c, 0, 74, 64
2, 3552, Note_on_c, 0, 74, 0
2, 3552, Note_on_c, 0, 75, 64
2, 3564, Note_on_c, 0, 75, 0
2, 3564, Note_on_c, 0, 77, 64
2, 3576, Note_on_c, 0, 77, 0
2, 3576, Note_on_c, 0, 79, 64
2, 3588, Note_on_c, 0, 79, 0
2, 3588, Note_on_c, 0, 80, 64
2, 3600, Note_on_c, 0, 80, 0
2, 3600, Note_on_c, 0, 82, 64
2, 3612, Note_on_c, 0, 82, 0
2, 3612, Note_on_c, 0, 80, 64
2, 3624, Note_on_c, 0, 80, 0
2, 3624, Note_on_c, 0, 79, 64
2, 3636, Note_on_c, 0, 79, 0
2, 3636, Note_on_c, 0, 77, 64
2, 3648, Note_on_c, 0, 77, 0
2, 3648, Note_on_c, 0, 75, 64
2, 3660, Note_on_c, 0, 75, 0
2, 3660, Note_on_c, 0, 74, 64
2, 3672, Note_on_c, 0, 74, 0
2, 3672, Note_on_c, 0, 72, 64
2, 3684, Note_on_c, 0, 72, 0
2, 3684, Note_on_c, 0, 70, 64
2, 3696, Note_on_c, 0, 70, 0
2, 3696, Note_on_c, 0, 72, 64
2, 3708, Note_on_c, 0, 72, 0
2, 3708, Note_on_c, 0, 74, 64
2, 3720, Note_on_c, 0, 74, 0
2, 3720, Note_on_c, 0, 75, 64
2, 3732, Note_on_c, 0, 75, 0
2, 3732, Note_on_c, 0, 77, 64
2, 3744, Note_on_c, 0, 77, 0
2, 3744, Note_on_c, 0, 79, 64
2, 3756, Note_on_c, 0, 79, 0
2, 3756, Note_on_c, 0, 77, 64
2, 3768, Note_on_c, 0, 77, 0
2, 3768, Note_on_c, 0, 75, 64
2, 3780, Note_on_c, 0, 75, 0
2, 3780, Note_on_c, 0, 74, 64
2, 3792, Note_on_c, 0, 74, 0
2, 3792, Note_on_c, 0, 72, 64
2, 3804, Note_on_c, 0, 72, 0
2, 3804, Note_on_c, 0, 70, 64
2, 3816, Note_on_c, 0, 70, 0
2, 3816, Note_on_c, 0, 68, 64
2, 3828, Note_on_c, 0, 68, 0
2, 3828, Note_on_c, 0, 67, 64
2, 3840, Note_on_c, 0, 67, 0
2, 3840, Note_on_c, 0, 65, 64
2, 3852, Note_on_c, 0, 65, 0
2, 3852, Note_on_c, 0, 67, 64
2, 3864, Note_on_c, 0, 67, 0
2, 3864, Note_on_c, 0, 68, 64
2, 3876, Note_on_c, 0, 68, 0
2, 3876, Note_on_c, 0, 70, 64
2, 3888, Note_on_c, 0, 70, 0
2, 3888, Note_on_c, 0, 72, 64
2, 3900, Note_on_c, 0, 72, 0
2, 3900, Note_on_c, 0, 70, 64
2, 3912, Note_on_c, 0, 70, 0
2, 3912, Note_on_c, 0, 68, 64
2, 3924, Note_on_c, 0, 68, 0
2, 3924, Note_on_c, 0, 67, 64
2, 3936, Note_on_c, 0, 67, 0
2, 3936, Note_on_c, 0, 65, 64
2, 3948, Note_on_c, 0, 65, 0
2, 3948, Note_on_c, 0, 67, 64
2, 3960, Note_on_c, 0, 67, 0
2, 3960, Note_on_c, 0, 65, 64
2, 3972, Note_on_c, 0, 65, 0
2, 3972, Note_on_c, 0, 63, 64
2, 3984, Note_on_c, 0, 63, 0
2, 3984, Note_on_c, 0, 62, 64
2, 3996, Note_on_c, 0, 62, 0
2, 3996, Note_on_c, 0, 63, 64
2, 4008, Note_on_c, 0, 63, 0
2, 4008, Note_on_c, 0, 62, 64
2, 4020, Note_on_c, 0, 62, 0
2, 4020, Note_on_c, 0, 60, 64
2, 4032, Note_on_c, 0, 60, 0
2, 4032, Note_on_c, 0, 58, 64
2, 4055, Note_on_c, 0, 58, 0
2, 4056, Note_on_c, 0, 60, 64
2, 4068, Note_on_c, 0, 60, 0
2, 4068, Note_on_c, 0, 62, 64
2, 4080, Note_on_c, 0, 62, 0
2, 4080, Note_on_c, 0, 63, 64
2, 4092, Note_on_c, 0, 63, 0
2, 4092, Note_on_c, 0, 65, 64
2, 4104, Note_on_c, 0, 65, 0
2, 4104, Note_on_c, 0, 67, 64
2, 4116, Note_on_c, 0, 67, 0
2, 4116, Note_on_c, 0, 69, 64
2, 4128, Note_on_c, 0, 69, 0
2, 4128, Note_on_c, 0, 70, 64
2, 4143, Note_on_c, 0, 70, 0
2, 4164, Note_on_c, 0, 70, 64
2, 4176, Note_on_c, 0, 70, 0
2, 4176, Note_on_c, 0, 65, 64
2, 4191, Note_on_c, 0, 65, 0
2, 4212, Note_on_c, 0, 62, 64
2, 4224, Note_on_c, 0, 62, 0
2, 4224, Note_on_c, 0, 58, 64
2, 4269, Note_on_c, 0, 58, 0
2, 4608, Note_on_c, 0, 82, 64
2, 4697, Note_on_c, 0, 82, 0
2, 4704, Note_on_c, 0, 77, 64
2, 4771, Note_on_c, 0, 77, 0
2, 4776, Note_on_c, 0, 75, 64
2, 4799, Note_on_c, 0, 75, 0
2, 4800, Note_on_c, 0, 75, 64
2, 4896, Note_on_c, 0, 75, 0
2, 4896, Note_on_c, 0, 74, 64
2, 4908, Note_on_c, 0, 74, 0
2, 4908, Note_on_c, 0, 75, 64
2, 4920, Note_on_c, 0, 75, 0
2, 4920, Note_on_c, 0, 74, 64
2, 4941, Note_on_c, 0, 74, 0
2, 4944, Note_on_c, 0, 72, 64
2, 4989, Note_on_c, 0, 72, 0
2, 4992, Note_on_c, 0, 70, 64
2, 5012, Note_on_c, 0, 70, 0
2, 5040, Note_on_c, 0, 70, 64
2, 5060, Note_on_c, 0, 70, 0
2, 5088, Note_on_c, 0, 70, 64
2, 5108, Note_on_c, 0, 70, 0
2, 5136, Note_on_c, 0, 70, 64
2, 5156, Note_on_c, 0, 70, 0
2, 5184, Note_on_c, 0, 72, 64
2, 5207, Note_on_c, 0, 72, 0
2, 5208, Note_on_c, 0, 74, 64
2, 5231, Note_on_c, 0, 74, 0
2, 5232, Note_on_c, 0, 75, 64
2, 5255, Note_on_c, 0, 75, 0
2, 5256, Note_on_c, 0, 69, 64
2, 5279, Note_on_c, 0, 69, 0
2, 5280, Note_on_c, 0, 70, 64
2, 5325, Note_on_c, 0, 70, 0
2, 5328, Note_on_c, 0, 70, 64
2, 5373, Note_on_c, 0, 70, 0
2, 5376, Note_on_c, 0, 72, 64
2, 5399, Note_on_c, 0, 72, 0
2, 5400, Note_on_c, 0, 74, 65
2, 5423, Note_on_c, 0, 74, 0
2, 5424, Note_on_c, 0, 75, 66
2, 5447, Note_on_c, 0, 75, 0
2, 5448, Note_on_c, 0, 69, 67
2, 5471, Note_on_c, 0, 69, 0
2, 5472, Note_on_c, 0, 70, 68
2, 5495, Note_on_c, 0, 70, 0
2, 5496, Note_on_c, 0, 72, 70
2, 5519, Note_on_c, 0, 72, 0
2, 5520, Note_on_c, 0, 74, 71
2, 5543, Note_on_c, 0, 74, 0
2, 5544, Note_on_c, 0, 70, 72
2, 5567, Note_on_c, 0, 70, 0
2, 5568, Note_on_c, 0, 72, 73
2, 5591, Note_on_c, 0, 72, 0
2, 5592, Note_on_c, 0, 74, 75
2, 5615, Note_on_c, 0, 74, 0
2, 5616, Note_on_c, 0, 75, 76
2, 5639, Note_on_c, 0, 75, 0
2, 5640, Note_on_c, 0, 69, 77
2, 5663, Note_on_c, 0, 69, 0
2, 5664, Note_on_c, 0, 70, 78
2, 5687, Note_on_c, 0, 70, 0
2, 5688, Note_on_c, 0, 72, 80
2, 5711, Note_on_c, 0, 72, 0
2, 5712, Note_on_c, 0, 74, 81
2, 5735, Note_on_c, 0, 74, 0
2, 5736, Note_on_c, 0, 70, 82
2, 5759, Note_on_c, 0, 70, 0
2, 5760, Note_on_c, 0, 72, 83
2, 5783, Note_on_c, 0, 72, 0
2, 5784, Note_on_c, 0, 74, 85
2, 5807, Note_on_c, 0, 74, 0
2, 5808, Note_on_c, 0, 75, 85
2, 5831, Note_on_c, 0, 75, 0
2, 5832, Note_on_c, 0, 69, 85
2, 5855, Note_on_c, 0, 69, 0
2, 5856, Note_on_c, 0, 70, 85
2, 5901, Note_on_c, 0, 70, 0
2, 5904, Note_on_c, 0, 77, 85
2, 5949, Note_on_c, 0, 77, 0
2, 5952, Note_on_c, 0, 77, 85
2, 6041, Note_on_c, 0, 77, 0
2, 6048, Note_on_c, 0, 76, 85
2, 6137, Note_on_c, 0, 76, 0
2, 6144, Note_on_c, 0, 75, 85
2, 6167, Note_on_c, 0, 75, 0
2, 6168, Note_on_c, 0, 77, 85
2, 6191, Note_on_c, 0, 77, 0
2, 6192, Note_on_c, 0, 79, 85
2, 6215, Note_on_c, 0, 79, 0
2, 6216, Note_on_c, 0, 74, 85
2, 6239, Note_on_c, 0, 74, 0
2, 6240, Note_on_c, 0, 75, 85
2, 6263, Note_on_c, 0, 75, 0
2, 6264, Note_on_c, 0, 84, 85
2, 6287, Note_on_c, 0, 84, 0
2, 6288, Note_on_c, 0, 81, 85
2, 6311, Note_on_c, 0, 81, 0
2, 6312, Note_on_c, 0, 75, 85
2, 6335, Note_on_c, 0, 75, 0
2, 6336, Note_on_c, 0, 74, 85
2, 6359, Note_on_c, 0, 74, 0
2, 6360, Note_on_c, 0, 75, 82
2, 6383, Note_on_c, 0, 75, 0
2, 6384, Note_on_c, 0, 77, 80
2, 6407, Note_on_c, 0, 77, 0
2, 6408, Note_on_c, 0, 73, 78
2, 6431, Note_on_c, 0, 73, 0
2, 6432, Note_on_c, 0, 74, 75
2, 6455, Note_on_c, 0, 74, 0
2, 6456, Note_on_c, 0, 82, 73
2, 6479, Note_on_c, 0, 82, 0
2, 6480, Note_on_c, 0, 81, 71
2, 6503, Note_on_c, 0, 81, 0
2, 6504, Note_on_c, 0, 84, 68
2, 6527, Note_on_c, 0, 84, 0
2, 6528, Note_on_c, 0, 82, 66
2, 6551, Note_on_c, 0, 82, 0
2, 6552, Note_on_c, 0, 85, 64
2, 6575, Note_on_c, 0, 85, 0
2, 6576, Note_on_c, 0, 84, 64
2, 6599, Note_on_c, 0, 84, 0
2, 6600, Note_on_c, 0, 87, 64
2, 6623, Note_on_c, 0, 87, 0
2, 6624, Note_on_c, 0, 85, 64
2, 6669, Note_on_c, 0, 85, 0
2, 6672, Note_on_c, 0, 73, 64
2, 6717, Note_on_c, 0, 73, 0
2, 6720, Note_on_c, 0, 75, 64
2, 6728, Note_on_c, 0, 75, 0
2, 6728, Note_on_c, 0, 73, 64
2, 6736, Note_on_c, 0, 73, 0
2, 6736, Note_on_c, 0, 75, 64
2, 6744, Note_on_c, 0, 75, 0
2, 6744, Note_on_c, 0, 73, 64
2, 6752, Note_on_c, 0, 73, 0
2, 6752, Note_on_c, 0, 75, 64
2, 6760, Note_on_c, 0, 75, 0
2, 6760, Note_on_c, 0, 73, 64
2, 6768, Note_on_c, 0, 73, 0
2, 6768, Note_on_c, 0, 72, 64
2, 6813, Note_on_c, 0, 72, 0
2, 6888, Note_on_c, 0, 62, 85
2, 6900, Note_on_c, 0, 62, 0
2, 6900, Note_on_c, 0, 65, 85
2, 6912, Note_on_c, 0, 65, 0
2, 6912, Note_on_c, 0, 70, 85
2, 6979, Note_on_c, 0, 70, 0
2, 6984, Note_on_c, 0, 65, 85
2, 6996, Note_on_c, 0, 65, 0
2, 6996, Note_on_c, 0, 70, 85
2, 7008, Note_on_c, 0, 70, 0
2, 7008, Note_on_c, 0, 74, 85
2, 7075, Note_on_c, 0, 74, 0
2, 7080, Note_on_c, 0, 70, 85
2, 7092, Note_on_c, 0, 70, 0
2, 7092, Note_on_c, 0, 74, 85
2, 7104, Note_on_c, 0, 74, 0
2, 7104, Note_on_c, 0, 77, 85
2, 7149, Note_on_c, 0, 77, 0
2, 7248, Note_on_c, 0, 82, 64
2, 7282, Note_on_c, 0, 82, 0
2, 7284, Note_on_c, 0, 84, 64
2, 7290, Note_on_c, 0, 84, 0
2, 7290, Note_on_c, 0, 86, 64
2, 7296, Note_on_c, 0, 86, 0
2, 7296, Note_on_c, 0, 77, 64
2, 7316, Note_on_c, 0, 77, 0
2, 7344, Note_on_c, 0, 82, 64
2, 7378, Note_on_c, 0, 82, 0
2, 7380, Note_on_c, 0, 84, 64
2, 7386, Note_on_c, 0, 84, 0
2, 7386, Note_on_c, 0, 86, 64
2, 7392, Note_on_c, 0, 86, 0
2, 7392, Note_on_c, 0, 76, 64
2, 7412, Note_on_c, 0, 76, 0
2, 7440, Note_on_c, 0, 81, 64
2, 7474, Note_on_c, 0, 81, 0
2, 7476, Note_on_c, 0, 82, 64
2, 7482, Note_on_c, 0, 82, 0
2, 7482, Note_on_c, 0, 84, 64
2, 7488, Note_on_c, 0, 84, 0
2, 7488, Note_on_c, 0, 75, 64
2, 7632, Note_on_c, 0, 75, 0
2, 7632, Note_on_c, 0, 74, 64
2, 7677, Note_on_c, 0, 74, 0
2, 7680, Note_on_c, 0, 74, 64
2, 7714, Note_on_c, 0, 74, 0
2, 7716, Note_on_c, 0, 72, 64
2, 7728, Note_on_c, 0, 72, 0
2, 7728, Note_on_c, 0, 75, 64
2, 7762, Note_on_c, 0, 75, 0
2, 7764, Note_on_c, 0, 79, 64
2, 7776, Note_on_c, 0, 79, 0
2, 7776, Note_on_c, 0, 77, 64
2, 7821, Note_on_c, 0, 77, 0
2, 7824, Note_on_c, 0, 75, 64
2, 7824, Note_on_c, 0, 72, 64
2, 7869, Note_on_c, 0, 75, 0
2, 7869, Note_on_c, 0, 72, 0
2, 7872, Note_on_c, 0, 74, 64
2, 7876, Note_on_c, 0, 74, 0
2, 7876, Note_on_c, 0, 75, 64
2, 7880, Note_on_c, 0, 75, 0
2, 7880, Note_on_c, 0, 77, 64
2, 7884, Note_on_c, 0, 77, 0
2, 7884, Note_on_c, 0, 75, 64
2, 7918, Note_on_c, 0, 75, 0
2, 7920, Note_on_c, 0, 74, 64
2, 7920, Note_on_c, 0, 70, 64
2, 7965, Note_on_c, 0, 74, 0
2, 7965, Note_on_c, 0, 70, 0
2, 8016, Note_on_c, 0, 82, 64
2, 8050, Note_on_c, 0, 82, 0
2, 8052, Note_on_c, 0, 84, 64
2, 8058, Note_on_c, 0, 84, 0
2, 8058, Note_on_c, 0, 86, 64
2, 8064, Note_on_c, 0, 86, 0
2, 8064, Note_on_c, 0, 77, 64
2, 8084, Note_on_c, 0, 77, 0
2, 8112, Note_on_c, 0, 82, 64
2, 8146, Note_on_c, 0, 82, 0
2, 8148, Note_on_c, 0, 84, 64
2, 8154, Note_on_c, 0, 84, 0
2, 8154, Note_on_c, 0, 86, 64
2, 8160, Note_on_c, 0, 86, 0
2, 8160, Note_on_c, 0, 76, 64
2, 8180, Note_on_c, 0, 76, 0
2, 8208, Note_on_c, 0, 81, 64
2, 8242, Note_on_c, 0, 81, 0
2, 8244, Note_on_c, 0, 82, 64
2, 8250, Note_on_c, 0, 82, 0
2, 8250, Note_on_c, 0, 84, 64
2, 8256, Note_on_c, 0, 84, 0
2, 8256, Note_on_c, 0, 75, 64
2, 8400, Note_on_c, 0, 75, 0
2, 8400, Note_on_c, 0, 74, 64
2, 8445, Note_on_c, 0, 74, 0
2, 8448, Note_on_c, 0, 79, 64
2, 8592, Note_on_c, 0, 79, 0
2, 8592, Note_on_c, 0, 84, 64
2, 8637, Note_on_c, 0, 84, 0
2, 8640, Note_on_c, 0, 82, 58
2, 8781, Note_on_c, 0, 82, 0
2, 8784, Note_on_c, 0, 81, 58
2, 8796, Note_on_c, 0, 81, 0
2, 8796, Note_on_c, 0, 82, 58
2, 8808, Note_on_c, 0, 82, 0
2, 8808, Note_on_c, 0, 84, 58
2, 8820, Note_on_c, 0, 84, 0
2, 8820, Note_on_c, 0, 86, 58
2, 8832, Note_on_c, 0, 86, 0
2, 8832, Note_on_c, 0, 87, 58
2, 8852, Note_on_c, 0, 87, 0
2, 8880, Note_on_c, 0, 87, 58
2, 8892, Note_on_c, 0, 87, 0
2, 8892, Note_on_c, 0, 86, 58
2, 8904, Note_on_c, 0, 86, 0
2, 8904, Note_on_c, 0, 84, 58
2, 8916, Note_on_c, 0, 84, 0
2, 8916, Note_on_c, 0, 82, 58
2, 8928, Note_on_c, 0, 82, 0
2, 8928, Note_on_c, 0, 81, 58
2, 8948, Note_on_c, 0, 81, 0
2, 8976, Note_on_c, 0, 81, 58
2, 8988, Note_on_c, 0, 81, 0
2, 8988, Note_on_c, 0, 82, 58
2, 9000, Note_on_c, 0, 82, 0
2, 9000, Note_on_c, 0, 84, 58
2, 9012, Note_on_c, 0, 84, 0
2, 9012, Note_on_c, 0, 86, 58
2, 9024, Note_on_c, 0, 86, 0
2, 9024, Note_on_c, 0, 87, 58
2, 9044, Note_on_c, 0, 87, 0
2, 9216, Note_on_c, 0, 86, 85
2, 9228, Note_on_c, 0, 86, 0
2, 9228, Note_on_c, 0, 84, 85
2, 9240, Note_on_c, 0, 84, 0
2, 9240, Note_on_c, 0, 82, 85
2, 9252, Note_on_c, 0, 82, 0
2, 9252, Note_on_c, 0, 81, 85
2, 9264, Note_on_c, 0, 81, 0
2, 9264, Note_on_c, 0, 82, 85
2, 9276, Note_on_c, 0, 82, 0
2, 9276, Note_on_c, 0, 81, 85
2, 9288, Note_on_c, 0, 81, 0
2, 9288, Note_on_c, 0, 79, 85
2, 9300, Note_on_c, 0, 79, 0
2, 9300, Note_on_c, 0, 77, 85
2, 9312, Note_on_c, 0, 77, 0
2, 9312, Note_on_c, 0, 75, 85
2, 9324, Note_on_c, 0, 75, 0
2, 9324, Note_on_c, 0, 74, 85
2, 9336, Note_on_c, 0, 74, 0
2, 9336, Note_on_c, 0, 72, 85
2, 9348, Note_on_c, 0, 72, 0
2, 9348, Note_on_c, 0, 70, 85
2, 9360, Note_on_c, 0, 70, 0
2, 9360, Note_on_c, 0, 69, 85
2, 9372, Note_on_c, 0, 69, 0
2, 9372, Note_on_c, 0, 70, 85
2, 9384, Note_on_c, 0, 70, 0
2, 9384, Note_on_c, 0, 69, 85
2, 9396, Note_on_c, 0, 69, 0
2, 9396, Note_on_c, 0, 70, 85
2, 9408, Note_on_c, 0, 70, 0
2, 9408, Note_on_c, 0, 86, 85
2, 9420, Note_on_c, 0, 86, 0
2, 9420, Note_on_c, 0, 84, 85
2, 9432, Note_on_c, 0, 84, 0
2, 9432, Note_on_c, 0, 82, 85
2, 9444, Note_on_c, 0, 82, 0
2, 9444, Note_on_c, 0, 81, 85
2, 9456, Note_on_c, 0, 81, 0
2, 9456, Note_on_c, 0, 82, 85
2, 9468, Note_on_c, 0, 82, 0
2, 9468, Note_on_c, 0, 81, 85
2, 9480, Note_on_c, 0, 81, 0
2, 9480, Note_on_c, 0, 79, 85
2, 9492, Note_on_c, 0, 79, 0
2, 9492, Note_on_c, 0, 77, 85
2, 9504, Note_on_c, 0, 77, 0
2, 9504, Note_on_c, 0, 75, 85
2, 9516, Note_on_c, 0, 75, 0
2, 9516, Note_on_c, 0, 74, 85
2, 9528, Note_on_c, 0, 74, 0
2, 9528, Note_on_c, 0, 72, 85
2, 9540, Note_on_c, 0, 72, 0
2, 9540, Note_on_c, 0, 70, 85
2, 9552, Note_on_c, 0, 70, 0
2, 9552, Note_on_c, 0, 69, 85
2, 9564, Note_on_c, 0, 69, 0
2, 9564, Note_on_c, 0, 70, 85
2, 9576, Note_on_c, 0, 70, 0
2, 9576, Note_on_c, 0, 69, 85
2, 9588, Note_on_c, 0, 69, 0
2, 9588, Note_on_c, 0, 70, 85
2, 9600, Note_on_c, 0, 70, 0
2, 9600, Note_on_c, 0, 79, 85
2, 9612, Note_on_c, 0, 79, 0
2, 9612, Note_on_c, 0, 77, 85
2, 9624, Note_on_c, 0, 77, 0
2, 9624, Note_on_c, 0, 75, 85
2, 9636, Note_on_c, 0, 75, 0
2, 9636, Note_on_c, 0, 74, 85
2, 9648, Note_on_c, 0, 74, 0
2, 9648, Note_on_c, 0, 75, 85
2, 9660, Note_on_c, 0, 75, 0
2, 9660, Note_on_c, 0, 74, 85
2, 9672, Note_on_c, 0, 74, 0
2, 9672, Note_on_c, 0, 72, 85
2, 9684, Note_on_c, 0, 72, 0
2, 9684, Note_on_c, 0, 71, 85
2, 9696, Note_on_c, 0, 71, 0
2, 9696, Note_on_c, 0, 72, 85
2, 9708, Note_on_c, 0, 72, 0
2, 9708, Note_on_c, 0, 74, 85
2, 9720, Note_on_c, 0, 74, 0
2, 9720, Note_on_c, 0, 75, 85
2, 9732, Note_on_c, 0, 75, 0
2, 9732, Note_on_c, 0, 74, 85
2, 9744, Note_on_c, 0, 74, 0
2, 9744, Note_on_c, 0, 72, 85
2, 9756, Note_on_c, 0, 72, 0
2, 9756, Note_on_c, 0, 70, 85
2, 9768, Note_on_c, 0, 70, 0
2, 9768, Note_on_c, 0, 69, 85
2, 9780, Note_on_c, 0, 69, 0
2, 9780, Note_on_c, 0, 67, 85
2, 9792, Note_on_c, 0, 67, 0
2, 9792, Note_on_c, 0, 65, 85
2, 9815, Note_on_c, 0, 65, 0
2, 9816, Note_on_c, 0, 82, 85
2, 9839, Note_on_c, 0, 82, 0
2, 9840, Note_on_c, 0, 82, 85
2, 9863, Note_on_c, 0, 82, 0
2, 9864, Note_on_c, 0, 82, 85
2, 9887, Note_on_c, 0, 82, 0
2, 9888, Note_on_c, 0, 82, 85
2, 9900, Note_on_c, 0, 82, 0
2, 9900, Note_on_c, 0, 84, 85
2, 9912, Note_on_c, 0, 84, 0
2, 9912, Note_on_c, 0, 86, 85
2, 9924, Note_on_c, 0, 86, 0
2, 9924, Note_on_c, 0, 87, 85
2, 9936, Note_on_c, 0, 87, 0
2, 9936, Note_on_c, 0, 89, 85
2, 9946, Note_on_c, 0, 89, 0
2, 9984, Note_on_c, 0, 82, 85
2, 9993, Note_on_c, 0, 82, 0
2, 9993, Note_on_c, 0, 81, 85
2, 10002, Note_on_c, 0, 81, 0
2, 10002, Note_on_c, 0, 82, 85
2, 10011, Note_on_c, 0, 82, 0
2, 10011, Note_on_c, 0, 81, 85
2, 10020, Note_on_c, 0, 81, 0
2, 10020, Note_on_c, 0, 82, 85
2, 10029, Note_on_c, 0, 82, 0
2, 10029, Note_on_c, 0, 81, 85
2, 10038, Note_on_c, 0, 81, 0
2, 10038, Note_on_c, 0, 82, 85
2, 10047, Note_on_c, 0, 82, 0
2, 10047, Note_on_c, 0, 81, 85
2, 10056, Note_on_c, 0, 81, 0
2, 10056, Note_on_c, 0, 82, 85
2, 10065, Note_on_c, 0, 82, 0
2, 10065, Note_on_c, 0, 81, 85
2, 10074, Note_on_c, 0, 81, 0
2, 10074, Note_on_c, 0, 82, 85
2, 10083, Note_on_c, 0, 82, 0
2, 10083, Note_on_c, 0, 81, 85
2, 10092, Note_on_c, 0, 81, 0
2, 10092, Note_on_c, 0, 82, 85
2, 10101, Note_on_c, 0, 82, 0
2, 10101, Note_on_c, 0, 81, 85
2, 10110, Note_on_c, 0, 81, 0
2, 10110, Note_on_c, 0, 82, 85
2, 10119, Note_on_c, 0, 82, 0
2, 10119, Note_on_c, 0, 81, 85
2, 10128, Note_on_c, 0, 81, 0
2, 10128, Note_on_c, 0, 82, 85
2, 10136, Note_on_c, 0, 82, 0
2, 10136, Note_on_c, 0, 81, 85
2, 10144, Note_on_c, 0, 81, 0
2, 10144, Note_on_c, 0, 82, 85
2, 10152, Note_on_c, 0, 82, 0
2, 10152, Note_on_c, 0, 81, 85
2, 10160, Note_on_c, 0, 81, 0
2, 10160, Note_on_c, 0, 79, 85
2, 10168, Note_on_c, 0, 79, 0
2, 10168, Note_on_c, 0, 81, 85
2, 10176, Note_on_c, 0, 81, 0
2, 10176, Note_on_c, 0, 82, 85
2, 10221, Note_on_c, 0, 82, 0
2, 10224, Note_on_c, 0, 77, 85
2, 10224, Note_on_c, 0, 74, 85
2, 10224, Note_on_c, 0, 70, 85
2, 10244, Note_on_c, 0, 77, 0
2, 10244, Note_on_c, 0, 74, 0
2, 10244, Note_on_c, 0, 70, 0
2, 10272, Note_on_c, 0, 79, 85
2, 10272, Note_on_c, 0, 75, 85
2, 10272, Note_on_c, 0, 70, 85
2, 10292, Note_on_c, 0, 79, 0
2, 10292, Note_on_c, 0, 75, 0
2, 10292, Note_on_c, 0, 70, 0
2, 10320, Note_on_c, 0, 77, 85
2, 10332, Note_on_c, 0, 77, 0
2, 10332, Note_on_c, 0, 75, 85
2, 10344, Note_on_c, 0, 75, 0
2, 10344, Note_on_c, 0, 74, 85
2, 10356, Note_on_c, 0, 74, 0
2, 10356, Note_on_c, 0, 75, 85
2, 10368, Note_on_c, 0, 75, 0
2, 10368, Note_on_c, 0, 74, 85
2, 10413, Note_on_c, 0, 74, 0
2, 10416, Note_on_c, 0, 82, 85
2, 10416, Note_on_c, 0, 77, 85
2, 10416, Note_on_c, 0, 74, 85
2, 10461, Note_on_c, 0, 82, 0
2, 10461, Note_on_c, 0, 77, 0
2, 10461, Note_on_c, 0, 74, 0
2, 10464, Note_on_c, 0, 79, 85
2, 10464, Note_on_c, 0, 75, 85
2, 10464, Note_on_c, 0, 70, 85
2, 10484, Note_on_c, 0, 79, 0
2, 10484, Note_on_c, 0, 75, 0
2, 10484, Note_on_c, 0, 70, 0
2, 10512, Note_on_c, 0, 69, 85
2, 10512, Note_on_c, 0, 65, 85
2, 10512, Note_on_c, 0, 63, 85
2, 10512, Note_on_c, 0, 60, 85
2, 10532, Note_on_c, 0, 69, 0
2, 10532, Note_on_c, 0, 65, 0
2, 10532, Note_on_c, 0, 63, 0
2, 10532, Note_on_c, 0, 60, 0
2, 10560, Note_on_c, 0, 70, 85
2, 10560, Note_on_c, 0, 65, 85
2, 10560, Note_on_c, 0, 62, 85
2, 10649, Note_on_c, 0, 70, 0
2, 10649, Note_on_c, 0, 65, 0
2, 10649, Note_on_c, 0, 62, 0
2, 10752, Note_on_c, 0, 75, 64
2, 10841, Note_on_c, 0, 75, 0
2, 10848, Note_on_c, 0, 70, 64
2, 10915, Note_on_c, 0, 70, 0
2, 10920, Note_on_c, 0, 68, 64
2, 10943, Note_on_c, 0, 68, 0
2, 10944, Note_on_c, 0, 68, 64
2, 11040, Note_on_c, 0, 68, 0
2, 11040, Note_on_c, 0, 67, 64
2, 11052, Note_on_c, 0, 67, 0
2, 11052, Note_on_c, 0, 68, 64
2, 11064, Note_on_c, 0, 68, 0
2, 11064, Note_on_c, 0, 67, 64
2, 11085, Note_on_c, 0, 67, 0
2, 11088, Note_on_c, 0, 65, 64
2, 11133, Note_on_c, 0, 65, 0
2, 11136, Note_on_c, 0, 63, 64
2, 11184, Note_on_c, 0, 63, 0
2, 11184, Note_on_c, 0, 68, 64
2, 11229, Note_on_c, 0, 68, 0
2, 11232, Note_on_c, 0, 65, 64
2, 11280, Note_on_c, 0, 65, 0
2, 11280, Note_on_c, 0, 70, 64
2, 11325, Note_on_c, 0, 70, 0
2, 11328, Note_on_c, 0, 68, 64
2, 11424, Note_on_c, 0, 68, 0
2, 11424, Note_on_c, 0, 67, 64
2, 11436, Note_on_c, 0, 67, 0
2, 11436, Note_on_c, 0, 68, 64
2, 11448, Note_on_c, 0, 68, 0
2, 11448, Note_on_c, 0, 67, 64
2, 11469, Note_on_c, 0, 67, 0
2, 11472, Note_on_c, 0, 65, 64
2, 11517, Note_on_c, 0, 65, 0
2, 11520, Note_on_c, 0, 63, 64
2, 11554, Note_on_c, 0, 63, 0
2, 11556, Note_on_c, 0, 68, 64
2, 11568, Note_on_c, 0, 68, 0
2, 11568, Note_on_c, 0, 68, 64
2, 11580, Note_on_c, 0, 68, 0
2, 11580, Note_on_c, 0, 70, 64
2, 11592, Note_on_c, 0, 70, 0
2, 11592, Note_on_c, 0, 68, 64
2, 11613, Note_on_c, 0, 68, 0
2, 11616, Note_on_c, 0, 65, 64
2, 11650, Note_on_c, 0, 65, 0
2, 11652, Note_on_c, 0, 70, 64
2, 11664, Note_on_c, 0, 70, 0
2, 11664, Note_on_c, 0, 70, 64
2, 11676, Note_on_c, 0, 70, 0
2, 11676, Note_on_c, 0, 72, 64
2, 11688, Note_on_c, 0, 72, 0
2, 11688, Note_on_c, 0, 70, 64
2, 11709, Note_on_c, 0, 70, 0
2, 11712, Note_on_c, 0, 68, 64
2, 11760, Note_on_c, 0, 68, 0
2, 11760, Note_on_c, 0, 67, 64
2, 11794, Note_on_c, 0, 67, 0
2, 11796, Note_on_c, 0, 79, 64
2, 11808, Note_on_c, 0, 79, 0
2, 11808, Note_on_c, 0, 75, 64
2, 11828, Note_on_c, 0, 75, 0
2, 11892, Note_on_c, 0, 75, 64
2, 11904, Note_on_c, 0, 75, 0
2, 11904, Note_on_c, 0, 72, 64
2, 11949, Note_on_c, 0, 72, 0
2, 11988, Note_on_c, 0, 72, 64
2, 12000, Note_on_c, 0, 72, 0
2, 12000, Note_on_c, 0, 70, 64
2, 12034, Note_on_c, 0, 70, 0
2, 12036, Note_on_c, 0, 68, 64
2, 12048, Note_on_c, 0, 68, 0
2, 12048, Note_on_c, 0, 65, 64
2, 12082, Note_on_c, 0, 65, 0
2, 12084, Note_on_c, 0, 62, 64
2, 12096, Note_on_c, 0, 62, 0
2, 12096, Note_on_c, 0, 63, 64
2, 12141, Note_on_c, 0, 63, 0
2, 12288, Note_on_c, 0, 75, 64
2, 12355, Note_on_c, 0, 75, 0
2, 12360, Note_on_c, 0, 79, 64
2, 12372, Note_on_c, 0, 79, 0
2, 12372, Note_on_c, 0, 82, 64
2, 12384, Note_on_c, 0, 82, 0
2, 12384, Note_on_c, 0, 70, 64
2, 12429, Note_on_c, 0, 70, 0
2, 12432, Note_on_c, 0, 68, 64
2, 12477, Note_on_c, 0, 68, 0
2, 12480, Note_on_c, 0, 67, 64
2, 12488, Note_on_c, 0, 67, 0
2, 12488, Note_on_c, 0, 68, 64
2, 12496, Note_on_c, 0, 68, 0
2, 12496, Note_on_c, 0, 70, 64
2, 12504, Note_on_c, 0, 70, 0
2, 12504, Note_on_c, 0, 68, 64
2, 12571, Note_on_c, 0, 68, 0
2, 12576, Note_on_c, 0, 67, 64
2, 12588, Note_on_c, 0, 67, 0
2, 12588, Note_on_c, 0, 68, 64
2, 12600, Note_on_c, 0, 68, 0
2, 12600, Note_on_c, 0, 67, 64
2, 12621, Note_on_c, 0, 67, 0
2, 12624, Note_on_c, 0, 65, 64
2, 12669, Note_on_c, 0, 65, 0
2, 12672, Note_on_c, 0, 63, 64
2, 12720, Note_on_c, 0, 63, 0
2, 12720, Note_on_c, 0, 68, 64
2, 12765, Note_on_c, 0, 68, 0
2, 12768, Note_on_c, 0, 65, 64
2, 12816, Note_on_c, 0, 65, 0
2, 12816, Note_on_c, 0, 70, 64
2, 12861, Note_on_c, 0, 70, 0
2, 12864, Note_on_c, 0, 68, 64
2, 12960, Note_on_c, 0, 68, 0
2, 12960, Note_on_c, 0, 67, 64
2, 12972, Note_on_c, 0, 67, 0
2, 12972, Note_on_c, 0, 68, 64
2, 12984, Note_on_c, 0, 68, 0
2, 12984, Note_on_c, 0, 67, 64
2, 13005, Note_on_c, 0, 67, 0
2, 13008, Note_on_c, 0, 65, 64
2, 13053, Note_on_c, 0, 65, 0
2, 13056, Note_on_c, 0, 63, 64
2, 13079, Note_on_c, 0, 63, 0
2, 13080, Note_on_c, 0, 70, 64
2, 13103, Note_on_c, 0, 70, 0
2, 13104, Note_on_c, 0, 68, 64
2, 13127, Note_on_c, 0, 68, 0
2, 13128, Note_on_c, 0, 67, 64
2, 13151, Note_on_c, 0, 67, 0
2, 13152, Note_on_c, 0, 65, 64
2, 13175, Note_on_c, 0, 65, 0
2, 13176, Note_on_c, 0, 72, 64
2, 13199, Note_on_c, 0, 72, 0
2, 13200, Note_on_c, 0, 70, 64
2, 13223, Note_on_c, 0, 70, 0
2, 13224, Note_on_c, 0, 68, 64
2, 13247, Note_on_c, 0, 68, 0
2, 13248, Note_on_c, 0, 67, 64
2, 13260, Note_on_c, 0, 67, 0
2, 13260, Note_on_c, 0, 70, 64
2, 13272, Note_on_c, 0, 70, 0
2, 13272, Note_on_c, 0, 68, 64
2, 13295, Note_on_c, 0, 68, 0
2, 13296, Note_on_c, 0, 67, 64
2, 13319, Note_on_c, 0, 67, 0
2, 13320, Note_on_c, 0, 79, 64
2, 13343, Note_on_c, 0, 79, 0
2, 13344, Note_on_c, 0, 74, 64
2, 13356, Note_on_c, 0, 74, 0
2, 13356, Note_on_c, 0, 77, 64
2, 13368, Note_on_c, 0, 77, 0
2, 13368, Note_on_c, 0, 75, 64
2, 13391, Note_on_c, 0, 75, 0
2, 13416, Note_on_c, 0, 75, 64
2, 13439, Note_on_c, 0, 75, 0
2, 13440, Note_on_c, 0, 71, 64
2, 13452, Note_on_c, 0, 71, 0
2, 13452, Note_on_c, 0, 74, 64
2, 13464, Note_on_c, 0, 74, 0
2, 13464, Note_on_c, 0, 72, 64
2, 13487, Note_on_c, 0, 72, 0
2, 13512, Note_on_c, 0, 72, 64
2, 13535, Note_on_c, 0, 72, 0
2, 13536, Note_on_c, 0, 67, 64
2, 13548, Note_on_c, 0, 67, 0
2, 13548, Note_on_c, 0, 70, 64
2, 13560, Note_on_c, 0, 70, 0
2, 13560, Note_on_c, 0, 68, 64
2, 13605, Note_on_c, 0, 68, 0
2, 13608, Note_on_c, 0, 65, 64
2, 13620, Note_on_c, 0, 65, 0
2, 13620, Note_on_c, 0, 62, 64
2, 13632, Note_on_c, 0, 62, 0
2, 13632, Note_on_c, 0, 63, 64
2, 13677, Note_on_c, 0, 63, 0
2, 13680, Note_on_c, 0, 63, 64
2, 13725, Note_on_c, 0, 63, 0
2, 13728, Note_on_c, 0, 63, 64
2, 13773, Note_on_c, 0, 63, 0
2, 13776, Note_on_c, 0, 63, 64
2, 13821, Note_on_c, 0, 63, 0
2, 13824, Note_on_c, 0, 63, 64
2, 13869, Note_on_c, 0, 63, 0
2, 13872, Note_on_c, 0, 63, 64
2, 13906, Note_on_c, 0, 63, 0
2, 13908, Note_on_c, 0, 63, 64
2, 13920, Note_on_c, 0, 63, 0
2, 13920, Note_on_c, 0, 63, 64
2, 13954, Note_on_c, 0, 63, 0
2, 13956, Note_on_c, 0, 63, 64
2, 13968, Note_on_c, 0, 63, 0
2, 13968, Note_on_c, 0, 63, 64
2, 14002, Note_on_c, 0, 63, 0
2, 14004, Note_on_c, 0, 63, 64
2, 14016, Note_on_c, 0, 63, 0
2, 14016, Note_on_c, 0, 63, 64
2, 14061, Note_on_c, 0, 63, 0
2, 14064, Note_on_c, 0, 62, 64
2, 14076, Note_on_c, 0, 62, 0
2, 14076, Note_on_c, 0, 63, 64
2, 14088, Note_on_c, 0, 63, 0
2, 14088, Note_on_c, 0, 65, 64
2, 14100, Note_on_c, 0, 65, 0
2, 14100, Note_on_c, 0, 63, 64
2, 14112, Note_on_c, 0, 63, 0
2, 14112, Note_on_c, 0, 62, 64
2, 14124, Note_on_c, 0, 62, 0
2, 14124, Note_on_c, 0, 63, 64
2, 14136, Note_on_c, 0, 63, 0
2, 14136, Note_on_c, 0, 65, 64
2, 14148, Note_on_c, 0, 65, 0
2, 14148, Note_on_c, 0, 63, 64
2, 14160, Note_on_c, 0, 63, 0
2, 14160, Note_on_c, 0, 62, 64
2, 14172, Note_on_c, 0, 62, 0
2, 14172, Note_on_c, 0, 63, 64
2, 14184, Note_on_c, 0, 63, 0
2, 14184, Note_on_c, 0, 65, 64
2, 14196, Note_on_c, 0, 65, 0
2, 14196, Note_on_c, 0, 63, 64
2, 14208, Note_on_c, 0, 63, 0
2, 14208, Note_on_c, 0, 62, 64
2, 14220, Note_on_c, 0, 62, 0
2, 14220, Note_on_c, 0, 63, 64
2, 14232, Note_on_c, 0, 63, 0
2, 14232, Note_on_c, 0, 65, 64
2, 14244, Note_on_c, 0, 65, 0
2, 14244, Note_on_c, 0, 67, 64
2, 14256, Note_on_c, 0, 67, 0
2, 14256, Note_on_c, 0, 68, 64
2, 14268, Note_on_c, 0, 68, 0
2, 14268, Note_on_c, 0, 70, 64
2, 14280, Note_on_c, 0, 70, 0
2, 14280, Note_on_c, 0, 72, 64
2, 14292, Note_on_c, 0, 72, 0
2, 14292, Note_on_c, 0, 74, 64
2, 14304, Note_on_c, 0, 74, 0
2, 14304, Note_on_c, 0, 75, 64
2, 14316, Note_on_c, 0, 75, 0
2, 14316, Note_on_c, 0, 77, 64
2, 14328, Note_on_c, 0, 77, 0
2, 14328, Note_on_c, 0, 79, 64
2, 14340, Note_on_c, 0, 79, 0
2, 14340, Note_on_c, 0, 80, 64
2, 14352, Note_on_c, 0, 80, 0
2, 14352, Note_on_c, 0, 82, 64
2, 14364, Note_on_c, 0, 82, 0
2, 14364, Note_on_c, 0, 80, 64
2, 14376, Note_on_c, 0, 80, 0
2, 14376, Note_on_c, 0, 79, 64
2, 14388, Note_on_c, 0, 79, 0
2, 14388, Note_on_c, 0, 77, 64
2, 14400, Note_on_c, 0, 77, 0
2, 14400, Note_on_c, 0, 75, 64
2, 14412, Note_on_c, 0, 75, 0
2, 14412, Note_on_c, 0, 74, 64
2, 14424, Note_on_c, 0, 74, 0
2, 14424, Note_on_c, 0, 72, 64
2, 14436, Note_on_c, 0, 72, 0
2, 14436, Note_on_c, 0, 70, 64
2, 14448, Note_on_c, 0, 70, 0
2, 14448, Note_on_c, 0, 72, 64
2, 14460, Note_on_c, 0, 72, 0
2, 14460, Note_on_c, 0, 74, 64
2, 14472, Note_on_c, 0, 74, 0
2, 14472, Note_on_c, 0, 75, 64
2, 14484, Note_on_c, 0, 75, 0
2, 14484, Note_on_c, 0, 77, 64
2, 14496, Note_on_c, 0, 77, 0
2, 14496, Note_on_c, 0, 79, 64
2, 14508, Note_on_c, 0, 79, 0
2, 14508, Note_on_c, 0, 77, 64
2, 14520, Note_on_c, 0, 77, 0
2, 14520, Note_on_c, 0, 75, 64
2, 14532, Note_on_c, 0, 75, 0
2, 14532, Note_on_c, 0, 74, 64
2, 14544, Note_on_c, 0, 74, 0
2, 14544, Note_on_c, 0, 72, 64
2, 14556, Note_on_c, 0, 72, 0
2, 14556, Note_on_c, 0, 70, 64
2, 14568, Note_on_c, 0, 70, 0
2, 14568, Note_on_c, 0, 68, 64
2, 14580, Note_on_c, 0, 68, 0
2, 14580, Note_on_c, 0, 67, 64
2, 14592, Note_on_c, 0, 67, 0
2, 14592, Note_on_c, 0, 65, 64
2, 14604, Note_on_c, 0, 65, 0
2, 14604, Note_on_c, 0, 67, 64
2, 14616, Note_on_c, 0, 67, 0
2, 14616, Note_on_c, 0, 68, 64
2, 14628, Note_on_c, 0, 68, 0
2, 14628, Note_on_c, 0, 70, 64
2, 14640, Note_on_c, 0, 70, 0
2, 14640, Note_on_c, 0, 72, 64
2, 14652, Note_on_c, 0, 72, 0
2, 14652, Note_on_c, 0, 70, 64
2, 14664, Note_on_c, 0, 70, 0
2, 14664, Note_on_c, 0, 68, 64
2, 14676, Note_on_c, 0, 68, 0
2, 14676, Note_on_c, 0, 67, 64
2, 14688, Note_on_c, 0, 67, 0
2, 14688, Note_on_c, 0, 65, 64
2, 14700, Note_on_c, 0, 65, 0
2, 14700, Note_on_c, 0, 67, 64
2, 14712, Note_on_c, 0, 67, 0
2, 14712, Note_on_c, 0, 65, 64
2, 14724, Note_on_c, 0, 65, 0
2, 14724, Note_on_c, 0, 63, 64
2, 14736, Note_on_c, 0, 63, 0
2, 14736, Note_on_c, 0, 62, 64
2, 14748, Note_on_c, 0, 62, 0
2, 14748, Note_on_c, 0, 63, 64
2, 14760, Note_on_c, 0, 63, 0
2, 14760, Note_on_c, 0, 62, 64
2, 14772, Note_on_c, 0, 62, 0
2, 14772, Note_on_c, 0, 60, 64
2, 14784, Note_on_c, 0, 60, 0
2, 14784, Note_on_c, 0, 58, 64
2, 14807, Note_on_c, 0, 58, 0
2, 14808, Note_on_c, 0, 60, 64
2, 14820, Note_on_c, 0, 60, 0
2, 14820, Note_on_c, 0, 62, 64
2, 14832, Note_on_c, 0, 62, 0
2, 14832, Note_on_c, 0, 63, 64
2, 14844, Note_on_c, 0, 63, 0
2, 14844, Note_on_c, 0, 65, 64
2, 14856, Note_on_c, 0, 65, 0
2, 14856, Note_on_c, 0, 67, 64
2, 14868, Note_on_c, 0, 67, 0
2, 14868, Note_on_c, 0, 69, 64
2, 14880, Note_on_c, 0, 69, 0
2, 14880, Note_on_c, 0, 70, 64
2, 14895, Note_on_c, 0, 70, 0
2, 14916, Note_on_c, 0, 70, 64
2, 14928, Note_on_c, 0, 70, 0
2, 14928, Note_on_c, 0, 65, 64
2, 14943, Note_on_c, 0, 65, 0
2, 14964, Note_on_c, 0, 62, 64
2, 14976, Note_on_c, 0, 62, 0
2, 14976, Note_on_c, 0, 58, 64
2, 15021, Note_on_c, 0, 58, 0
2, 15360, Note_on_c, 0, 82, 64
2, 15449, Note_on_c, 0, 82, 0
2, 15456, Note_on_c, 0, 77, 64
2, 15523, Note_on_c, 0, 77, 0
2, 15528, Note_on_c, 0, 75, 64
2, 15551, Note_on_c, 0, 75, 0
2, 15552, Note_on_c, 0, 75, 64
2, 15648, Note_on_c, 0, 75, 0
2, 15648, Note_on_c, 0, 74, 64
2, 15660, Note_on_c, 0, 74, 0
2, 15660, Note_on_c, 0, 75, 64
2, 15672, Note_on_c, 0, 75, 0
2, 15672, Note_on_c, 0, 74, 64
2, 15693, Note_on_c, 0, 74, 0
2, 15696, Note_on_c, 0, 72, 64
2, 15741, Note_on_c, 0, 72, 0
2, 15744, Note_on_c, 0, 70, 64
2, 15764, Note_on_c, 0, 70, 0
2, 15792, Note_on_c, 0, 70, 64
2, 15812, Note_on_c, 0, 70, 0
2, 15840, Note_on_c, 0, 70, 64
2, 15860, Note_on_c, 0, 70, 0
2, 15888, Note_on_c, 0, 70, 64
2, 15908, Note_on_c, 0, 70, 0
2, 15936, Note_on_c, 0, 72, 64
2, 15959, Note_on_c, 0, 72, 0
2, 15960, Note_on_c, 0, 74, 64
2, 15983, Note_on_c, 0, 74, 0
2, 15984, Note_on_c, 0, 75, 64
2, 16007, Note_on_c, 0, 75, 0
2, 16008, Note_on_c, 0, 69, 64
2, 16031, Note_on_c, 0, 69, 0
2, 16032, Note_on_c, 0, 70, 64
2, 16077, Note_on_c, 0, 70, 0
2, 16080, Note_on_c, 0, 70, 64
2, 16125, Note_on_c, 0, 70, 0
2, 16128, Note_on_c, 0, 72, 64
2, 16151, Note_on_c, 0, 72, 0
2, 16152, Note_on_c, 0, 74, 65
2, 16175, Note_on_c, 0, 74, 0
2, 16176, Note_on_c, 0, 75, 66
2, 16199, Note_on_c, 0, 75, 0
2, 16200, Note_on_c, 0, 69, 67
2, 16223, Note_on_c, 0, 69, 0
2, 16224, Note_on_c, 0, 70, 68
2, 16247, Note_on_c, 0, 70, 0
2, 16248, Note_on_c, 0, 72, 70
2, 16271, Note_on_c, 0, 72, 0
2, 16272, Note_on_c, 0, 74, 71
2, 16295, Note_on_c, 0, 74, 0
2, 16296, Note_on_c, 0, 70, 72
2, 16319, Note_on_c, 0, 70, 0
2, 16320, Note_on_c, 0, 72, 73
2, 16343, Note_on_c, 0, 72, 0
2, 16344, Note_on_c, 0, 74, 75
2, 16367, Note_on_c, 0, 74, 0
2, 16368, Note_on_c, 0, 75, 76
2, 16391, Note_on_c, 0, 75, 0
2, 16392, Note_on_c, 0, 69, 77
2, 16415, Note_on_c, 0, 69, 0
2, 16416, Note_on_c, 0, 70, 78
2, 16439, Note_on_c, 0, 70, 0
2, 16440, Note_on_c, 0, 72, 80
2, 16463, Note_on_c, 0, 72, 0
2, 16464, Note_on_c, 0, 74, 81
2, 16487, Note_on_c, 0, 74, 0
2, 16488, Note_on_c, 0, 70, 82
2, 16511, Note_on_c, 0, 70, 0
2, 16512, Note_on_c, 0, 72, 83
2, 16535, Note_on_c, 0, 72, 0
2, 16536, Note_on_c, 0, 74, 85
2, 16559, Note_on_c, 0, 74, 0
2, 16560, Note_on_c, 0, 75, 85
2, 16583, Note_on_c, 0, 75, 0
2, 16584, Note_on_c, 0, 69, 85
2, 16607, Note_on_c, 0, 69, 0
2, 16608, Note_on_c, 0, 70, 85
2, 16653, Note_on_c, 0, 70, 0
2, 16656, Note_on_c, 0, 77, 85
2, 16701, Note_on_c, 0, 77, 0
2, 16704, Note_on_c, 0, 77, 85
2, 16793, Note_on_c, 0, 77, 0
2, 16800, Note_on_c, 0, 76, 85
2, 16889, Note_on_c, 0, 76, 0
2, 16896, Note_on_c, 0, 75, 85
2, 16919, Note_on_c, 0, 75, 0
2, 16920, Note_on_c, 0, 77, 85
2, 16943, Note_on_c, 0, 77, 0
2, 16944, Note_on_c, 0, 79, 85
2, 16967, Note_on_c, 0, 79, 0
2, 16968, Note_on_c, 0, 74, 85
2, 16991, Note_on_c, 0, 74, 0
2, 16992, Note_on_c, 0, 75, 85
2, 17015, Note_on_c, 0, 75, 0
2, 17016, Note_on_c, 0, 84, 85
2, 17039, Note_on_c, 0, 84, 0
2, 17040, Note_on_c, 0, 81, 85
2, 17063, Note_on_c, 0, 81, 0
2, 17064, Note_on_c, 0, 75, 85
2, 17087, Note_on_c, 0, 75, 0
2, 17088, Note_on_c, 0, 74, 85
2, 17111, Note_on_c, 0, 74, 0
2, 17112, Note_on_c, 0, 75, 82
2, 17135, Note_on_c, 0, 75, 0
2, 17136, Note_on_c, 0, 77, 80
2, 17159, Note_on_c, 0, 77, 0
2, 17160, Note_on_c, 0, 73, 78
2, 17183, Note_on_c, 0, 73, 0
2, 17184, Note_on_c, 0, 74, 75
2, 17207, Note_on_c, 0, 74, 0
2, 17208, Note_on_c, 0, 82, 73
2, 17231, Note_on_c, 0, 82, 0
2, 17232, Note_on_c, 0, 81, 71
2, 17255, Note_on_c, 0, 81, 0
2, 17256, Note_on_c, 0, 84, 68
2, 17279, Note_on_c, 0, 84, 0
2, 17280, Note_on_c, 0, 82, 66
2, 17303, Note_on_c, 0, 82, 0
2, 17304, Note_on_c, 0, 85, 64
2, 17327, Note_on_c, 0, 85, 0
2, 17328, Note_on_c, 0, 84, 64
2, 17351, Note_on_c, 0, 84, 0
2, 17352, Note_on_c, 0, 87, 64
2, 17375, Note_on_c, 0, 87, 0
2, 17376, Note_on_c, 0, 85, 64
2, 17421, Note_on_c, 0, 85, 0
2, 17424, Note_on_c, 0, 73, 64
2, 17469, Note_on_c, 0, 73, 0
2, 17472, Note_on_c, 0, 75, 64
2, 17480, Note_on_c, 0, 75, 0
2, 17480, Note_on_c, 0, 73, 64
2, 17488, Note_on_c, 0, 73, 0
2, 17488, Note_on_c, 0, 75, 64
2, 17496, Note_on_c, 0, 75, 0
2, 17496, Note_on_c, 0, 73, 64
2, 17504, Note_on_c, 0, 73, 0
2, 17504, Note_on_c, 0, 75, 64
2, 17512, Note_on_c, 0, 75, 0
2, 17512, Note_on_c, 0, 73, 64
2, 17520, Note_on_c, 0, 73, 0
2, 17520, Note_on_c, 0, 72, 64
2, 17565, Note_on_c, 0, 72, 0
2, 17640, Note_on_c, 0, 62, 85
2, 17652, Note_on_c, 0, 62, 0
2, 17652, Note_on_c, 0, 65, 85
2, 17664, Note_on_c, 0, 65, 0
2, 17664, Note_on_c, 0, 70, 85
2, 17731, Note_on_c, 0, 70, 0
2, 17736, Note_on_c, 0, 65, 85
2, 17748, Note_on_c, 0, 65, 0
2, 17748, Note_on_c, 0, 70, 85
2, 17760, Note_on_c, 0, 70, 0
2, 17760, Note_on_c, 0, 74, 85
2, 17827, Note_on_c, 0, 74, 0
2, 17832, Note_on_c, 0, 70, 85
2, 17844, Note_on_c, 0, 70, 0
2, 17844, Note_on_c, 0, 74, 85
2, 17856, Note_on_c, 0, 74, 0
2, 17856, Note_on_c, 0, 77, 85
2, 17901, Note_on_c, 0, 77, 0
2, 18000, Note_on_c, 0, 82, 64
2, 18034, Note_on_c, 0, 82, 0
2, 18036, Note_on_c, 0, 84, 64
2, 18042, Note_on_c, 0, 84, 0
2, 18042, Note_on_c, 0, 86, 64
2, 18048, Note_on_c, 0, 86, 0
2, 18048, Note_on_c, 0, 77, 64
2, 18068, Note_on_c, 0, 77, 0
2, 18096, Note_on_c, 0, 82, 64
2, 18130, Note_on_c, 0, 82, 0
2, 18132, Note_on_c, 0, 84, 64
2, 18138, Note_on_c, 0, 84, 0
2, 18138, Note_on_c, 0, 86, 64
2, 18144, Note_on_c, 0, 86, 0
2, 18144, Note_on_c, 0, 76, 64
2, 18164, Note_on_c, 0, 76, 0
2, 18192, Note_on_c, 0, 81, 64
2, 18226, Note_on_c, 0, 81, 0
2, 18228, Note_on_c, 0, 82, 64
2, 18234, Note_on_c, 0, 82, 0
2, 18234, Note_on_c, 0, 84, 64
2, 18240, Note_on_c, 0, 84, 0
2, 18240, Note_on_c, 0, 75, 64
2, 18384, Note_on_c, 0, 75, 0
2, 18384, Note_on_c, 0, 74, 64
2, 18429, Note_on_c, 0, 74, 0
2, 18432, Note_on_c, 0, 74, 64
2, 18466, Note_on_c, 0, 74, 0
2, 18468, Note_on_c, 0, 72, 64
2, 18480, Note_on_c, 0, 72, 0
2, 18480, Note_on_c, 0, 75, 64
2, 18514, Note_on_c, 0, 75, 0
2, 18516, Note_on_c, 0, 79, 64
2, 18528, Note_on_c, 0, 79, 0
2, 18528, Note_on_c, 0, 77, 64
2, 18573, Note_on_c, 0, 77, 0
2, 18576, Note_on_c, 0, 75, 64
2, 18576, Note_on_c, 0, 72, 64
2, 18621, Note_on_c, 0, 75, 0
2, 18621, Note_on_c, 0, 72, 0
2, 18624, Note_on_c, 0, 74, 64
2, 18628, Note_on_c, 0, 74, 0
2, 18628, Note_on_c, 0, 75, 64
2, 18632, Note_on_c, 0, 75, 0
2, 18632, Note_on_c, 0, 77, 64
2, 18636, Note_on_c, 0, 77, 0
2, 18636, Note_on_c, 0, 75, 64
2, 18670, Note_on_c, 0, 75, 0
2, 18672, Note_on_c, 0, 74, 64
2, 18672, Note_on_c, 0, 70, 64
2, 18717, Note_on_c, 0, 74, 0
2, 18717, Note_on_c, 0, 70, 0
2, 18768, Note_on_c, 0, 82, 64
2, 18802, Note_on_c, 0, 82, 0
2, 18804, Note_on_c, 0, 84, 64
2, 18810, Note_on_c, 0, 84, 0
2, 18810, Note_on_c, 0, 86, 64
2, 18816, Note_on_c, 0, 86, 0
2, 18816, Note_on_c, 0, 77, 64
2, 18836, Note_on_c, 0, 77, 0
2, 18864, Note_on_c, 0, 82, 64
2, 18898, Note_on_c, 0, 82, 0
2, 18900, Note_on_c, 0, 84, 64
2, 18906, Note_on_c, 0, 84, 0
2, 18906, Note_on_c, 0, 86, 64
2, 18912, Note_on_c, 0, 86, 0
2, 18912, Note_on_c, 0, 76, 64
2, 18932, Note_on_c, 0, 76, 0
2, 18960, Note_on_c, 0, 81, 64
2, 18994, Note_on_c, 0, 81, 0
2, 18996, Note_on_c, 0, 82, 64
2, 19002, Note_on_c, 0, 82, 0
2, 19002, Note_on_c, 0, 84, 64
2, 19008, Note_on_c, 0, 84, 0
2, 19008, Note_on_c, 0, 75, 64
2, 19152, Note_on_c, 0, 75, 0
2, 19152, Note_on_c, 0, 74, 64
2, 19197, Note_on_c, 0, 74, 0
2, 19200, Note_on_c, 0, 79, 64
2, 19344, Note_on_c, 0, 79, 0
2, 19344, Note_on_c, 0, 84, 64
2, 19389, Note_on_c, 0, 84, 0
2, 19392, Note_on_c, 0, 82, 58
2, 19533, Note_on_c, 0, 82, 0
2, 19536, Note_on_c, 0, 81, 58
2, 19548, Note_on_c, 0, 81, 0
2, 19548, Note_on_c, 0, 82, 58
2, 19560, Note_on_c, 0, 82, 0
2, 19560, Note_on_c, 0, 84, 58
2, 19572, Note_on_c, 0, 84, 0
2, 19572, Note_on_c, 0, 86, 58
2, 19584, Note_on_c, 0, 86, 0
2, 19584, Note_on_c, 0, 87, 58
2, 19604, Note_on_c, 0, 87, 0
2, 19632, Note_on_c, 0, 87, 58
2, 19644, Note_on_c, 0, 87, 0
2, 19644, Note_on_c, 0, 86, 58
2, 19656, Note_on_c, 0, 86, 0
2, 19656, Note_on_c, 0, 84, 58
2, 19668, Note_on_c, 0, 84, 0
2, 19668, Note_on_c, 0, 82, 58
2, 19680, Note_on_c, 0, 82, 0
2, 19680, Note_on_c, 0, 81, 58
2, 19700, Note_on_c, 0, 81, 0
2, 19728, Note_on_c, 0, 81, 58
2, 19740, Note_on_c, 0, 81, 0
2, 19740, Note_on_c, 0, 82, 58
2, 19752, Note_on_c, 0, 82, 0
2, 19752, Note_on_c, 0, 84, 58
2, 19764, Note_on_c, 0, 84, 0
2, 19764, Note_on_c, 0, 86, 58
2, 19776, Note_on_c, 0, 86, 0
2, 19776, Note_on_c, 0, 87, 58
2, 19796, Note_on_c, 0, 87, 0
2, 19968, Note_on_c, 0, 86, 85
2, 19980, Note_on_c, 0, 86, 0
2, 19980, Note_on_c, 0, 84, 85
2, 19992, Note_on_c, 0, 84, 0
2, 19992, Note_on_c, 0, 82, 85
2, 20004, Note_on_c, 0, 82, 0
2, 20004, Note_on_c, 0, 81, 85
2, 20016, Note_on_c, 0, 81, 0
2, 20016, Note_on_c, 0, 82, 85
2, 20028, Note_on_c, 0, 82, 0
2, 20028, Note_on_c, 0, 81, 85
2, 20040, Note_on_c, 0, 81, 0
2, 20040, Note_on_c, 0, 79, 85
2, 20052, Note_on_c, 0, 79, 0
2, 20052, Note_on_c, 0, 77, 85
2, 20064, Note_on_c, 0, 77, 0
2, 20064, Note_on_c, 0, 75, 85
2, 20076, Note_on_c, 0, 75, 0
2, 20076, Note_on_c, 0, 74, 85
2, 20088, Note_on_c, 0, 74, 0
2, 20088, Note_on_c, 0, 72, 85
2, 20100, Note_on_c, 0, 72, 0
2, 20100, Note_on_c, 0, 70, 85
2, 20112, Note_on_c, 0, 70, 0
2, 20112, Note_on_c, 0, 69, 85
2, 20124, Note_on_c, 0, 69, 0
2, 20124, Note_on_c, 0, 70, 85
2, 20136, Note_on_c, 0, 70, 0
2, 20136, Note_on_c, 0, 69, 85
2, 20148, Note_on_c, 0, 69, 0
2, 20148, Note_on_c, 0, 70, 85
2, 20160, Note_on_c, 0, 70, 0
2, 20160, Note_on_c, 0, 86, 85
2, 20172, Note_on_c, 0, 86, 0
2, 20172, Note_on_c, 0, 84, 85
2, 20184, Note_on_c, 0, 84, 0
2, 20184, Note_on_c, 0, 82, 85
2, 20196, Note_on_c, 0, 82, 0
2, 20196, Note_on_c, 0, 81, 85
2, 20208, Note_on_c, 0, 81, 0
2, 20208, Note_on_c, 0, 82, 85
2, 20220, Note_on_c, 0, 82, 0
2, 20220, Note_on_c, 0, 81, 85
2, 20232, Note_on_c, 0, 81, 0
2, 20232, Note_on_c, 0, 79, 85
2, 20244, Note_on_c, 0, 79, 0
2, 20244, Note_on_c, 0, 77, 85
2, 20256, Note_on_c, 0, 77, 0
2, 20256, Note_on_c, 0, 75, 85
2, 20268, Note_on_c, 0, 75, 0
2, 20268, Note_on_c, 0, 74, 85
2, 20280, Note_on_c, 0, 74, 0
2, 20280, Note_on_c, 0, 72, 85
2, 20292, Note_on_c, 0, 72, 0
2, 20292, Note_on_c, 0, 70, 85
2, 20304, Note_on_c, 0, 70, 0
2, 20304, Note_on_c, 0, 69, 85
2, 20316, Note_on_c, 0, 69, 0
2, 20316, Note_on_c, 0, 70, 85
2, 20328, Note_on_c, 0, 70, 0
2, 20328, Note_on_c, 0, 69, 85
2, 20340, Note_on_c, 0, 69, 0
2, 20340, Note_on_c, 0, 70, 85
2, 20352, Note_on_c, 0, 70, 0
2, 20352, Note_on_c, 0, 79, 85
2, 20364, Note_on_c, 0, 79, 0
2, 20364, Note_on_c, 0, 77, 85
2, 20376, Note_on_c, 0, 77, 0
2, 20376, Note_on_c, 0, 75, 85
2, 20388, Note_on_c, 0, 75, 0
2, 20388, Note_on_c, 0, 74, 85
2, 20400, Note_on_c, 0, 74, 0
2, 20400, Note_on_c, 0, 75, 85
2, 20412, Note_on_c, 0, 75, 0
2, 20412, Note_on_c, 0, 74, 85
2, 20424, Note_on_c, 0, 74, 0
2, 20424, Note_on_c, 0, 72, 85
2, 20436, Note_on_c, 0, 72, 0
2, 20436, Note_on_c, 0, 71, 85
2, 20448, Note_on_c, 0, 71, 0
2, 20448, Note_on_c, 0, 72, 85
2, 20460, Note_on_c, 0, 72, 0
2, 20460, Note_on_c, 0, 74, 85
2, 20472, Note_on_c, 0, 74, 0
2, 20472, Note_on_c, 0, 75, 85
2, 20484, Note_on_c, 0, 75, 0
2, 20484, Note_on_c, 0, 74, 85
2, 20496, Note_on_c, 0, 74, 0
2, 20496, Note_on_c, 0, 72, 85
2, 20508, Note_on_c, 0, 72, 0
2, 20508, Note_on_c, 0, 70, 85
2, 20520, Note_on_c, 0, 70, 0
2, 20520, Note_on_c, 0, 69, 85
2, 20532, Note_on_c, 0, 69, 0
2, 20532, Note_on_c, 0, 67, 85
2, 20544, Note_on_c, 0, 67, 0
2, 20544, Note_on_c, 0, 65, 85
2, 20567, Note_on_c, 0, 65, 0
2, 20568, Note_on_c, 0, 82, 85
2, 20591, Note_on_c, 0, 82, 0
2, 20592, Note_on_c, 0, 82, 85
2, 20615, Note_on_c, 0, 82, 0
2, 20616, Note_on_c, 0, 82, 85
2, 20639, Note_on_c, 0, 82, 0
2, 20640, Note_on_c, 0, 82, 85
2, 20652, Note_on_c, 0, 82, 0
2, 20652, Note_on_c, 0, 84, 85
2, 20664, Note_on_c, 0, 84, 0
2, 20664, Note_on_c, 0, 86, 85
2, 20676, Note_on_c, 0, 86, 0
2, 20676, Note_on_c, 0, 87, 85
2, 20688, Note_on_c, 0, 87, 0
2, 20688, Note_on_c, 0, 89, 85
2, 20698, Note_on_c, 0, 89, 0
2, 20736, Note_on_c, 0, 82, 85
2, 20745, Note_on_c, 0, 82, 0
2, 20745, Note_on_c, 0, 81, 85
2, 20754, Note_on_c, 0, 81, 0
2, 20754, Note_on_c, 0, 82, 85
2, 20763, Note_on_c, 0, 82, 0
2, 20763, Note_on_c, 0, 81, 85
2, 20772, Note_on_c, 0, 81, 0
2, 20772, Note_on_c, 0, 82, 85
2, 20781, Note_on_c, 0, 82, 0
2, 20781, Note_on_c, 0, 81, 85
2, 20790, Note_on_c, 0, 81, 0
2, 20790, Note_on_c, 0, 82, 85
2, 20799, Note_on_c, 0, 82, 0
2, 20799, Note_on_c, 0, 81, 85
2, 20808, Note_on_c, 0, 81, 0
2, 20808, Note_on_c, 0, 82, 85
2, 20817, Note_on_c, 0, 82, 0
2, 20817, Note_on_c, 0, 81, 85
2, 20826, Note_on_c, 0, 81, 0
2, 20826, Note_on_c, 0, 82, 85
2, 20835, Note_on_c, 0, 82, 0
2, 20835, Note_on_c, 0, 81, 85
2, 20844, Note_on_c, 0, 81, 0
2, 20844, Note_on_c, 0, 82, 85
2, 20853, Note_on_c, 0, 82, 0
2, 20853, Note_on_c, 0, 81, 85
2, 20862, Note_on_c, 0, 81, 0
2, 20862, Note_on_c, 0, 82, 85
2, 20871, Note_on_c, 0, 82, 0
2, 20871, Note_on_c, 0, 81, 85
2, 20880, Note_on_c, 0, 81, 0
2, 20880, Note_on_c, 0, 82, 85
2, 20888, Note_on_c, 0, 82, 0
2, 20888, Note_on_c, 0, 81, 85
2, 20896, Note_on_c, 0, 81, 0
2, 20896, Note_on_c, 0, 82, 85
2, 20904, Note_on_c, 0, 82, 0
2, 20904, Note_on_c, 0, 81, 85
2, 20912, Note_on_c, 0, 81, 0
2, 20912, Note_on_c, 0, 79, 85
2, 20920, Note_on_c, 0, 79, 0
2, 20920, Note_on_c, 0, 81, 85
2, 20928, Note_on_c, 0, 81, 0
2, 20928, Note_on_c, 0, 82, 85
2, 20973, Note_on_c, 0, 82, 0
2, 20976, Note_on_c, 0, 77, 85
2, 20976, Note_on_c, 0, 74, 85
2, 20976, Note_on_c, 0, 70, 85
2, 20996, Note_on_c, 0, 77, 0
2, 20996, Note_on_c, 0, 74, 0
2, 20996, Note_on_c, 0, 70, 0
2, 21024, Note_on_c, 0, 79, 85
2, 21024, Note_on_c, 0, 75, 85
2, 21024, Note_on_c, 0, 70, 85
2, 21044, Note_on_c, 0, 79, 0
2, 21044, Note_on_c, 0, 75, 0
2, 21044, Note_on_c, 0, 70, 0
2, 21072, Note_on_c, 0, 77, 85
2, 21084, Note_on_c, 0, 77, 0
2, 21084, Note_on_c, 0, 75, 85
2, 21096, Note_on_c, 0, 75, 0
2, 21096, Note_on_c, 0, 74, 85
2, 21108, Note_on_c, 0, 74, 0
2, 21108, Note_on_c, 0, 75, 85
2, 21120, Note_on_c, 0, 75, 0
2, 21120, Note_on_c, 0, 74, 85
2, 21165, Note_on_c, 0, 74, 0
2, 21168, Note_on_c, 0, 82, 85
2, 21168, Note_on_c, 0, 77, 85
2, 21168, Note_on_c, 0, 74, 85
2, 21213, Note_on_c, 0, 82, 0
2, 21213, Note_on_c, 0, 77, 0
2, 21213, Note_on_c, 0, 74, 0
2, 21216, Note_on_c, 0, 79, 85
2, 21216, Note_on_c, 0, 75, 85
2, 21216, Note_on_c, 0, 70, 85
2, 21236, Note_on_c, 0, 79, 0
2, 21236, Note_on_c, 0, 75, 0
2, 21236, Note_on_c, 0, 70, 0
2, 21264, Note_on_c, 0, 69, 85
2, 21264, Note_on_c, 0, 65, 85
2, 21264, Note_on_c, 0, 63, 85
2, 21264, Note_on_c, 0, 60, 85
2, 21284, Note_on_c, 0, 69, 0
2, 21284, Note_on_c, 0, 65, 0
2, 21284, Note_on_c, 0, 63, 0
2, 21284, Note_on_c, 0, 60, 0
2, 21312, Note_on_c, 0, 70, 85
2, 21312, Note_on_c, 0, 65, 85
2, 21312, Note_on_c, 0, 62, 85
2, 21401, Note_on_c, 0, 70, 0
2, 21401, Note_on_c, 0, 65, 0
2, 21401, Note_on_c, 0, 62, 0
2, 21504, Note_on_c, 0, 66, 78
2, 21510, Note_on_c, 0, 66, 0
2, 21510, Note_on_c, 0, 67, 78
2, 21549, Note_on_c, 0, 67, 0
2, 22128, Note_on_c, 0, 60, 78
2, 22140, Note_on_c, 0, 60, 0
2, 22140, Note_on_c, 0, 62, 78
2, 22152, Note_on_c, 0, 62, 0
2, 22152, Note_on_c, 0, 64, 78
2, 22164, Note_on_c, 0, 64, 0
2, 22164, Note_on_c, 0, 66, 78
2, 22176, Note_on_c, 0, 66, 0
2, 22176, Note_on_c, 0, 67, 78
2, 22199, Note_on_c, 0, 67, 0
2, 22200, Note_on_c, 0, 69, 78
2, 22212, Note_on_c, 0, 69, 0
2, 22212, Note_on_c, 0, 71, 78
2, 22224, Note_on_c, 0, 71, 0
2, 22224, Note_on_c, 0, 72, 78
2, 22236, Note_on_c, 0, 72, 0
2, 22236, Note_on_c, 0, 74, 78
2, 22248, Note_on_c, 0, 74, 0
2, 22248, Note_on_c, 0, 76, 78
2, 22260, Note_on_c, 0, 76, 0
2, 22260, Note_on_c, 0, 78, 78
2, 22272, Note_on_c, 0, 78, 0
2, 22272, Note_on_c, 0, 79, 78
2, 22292, Note_on_c, 0, 79, 0
2, 22320, Note_on_c, 0, 79, 78
2, 22340, Note_on_c, 0, 79, 0
2, 22368, Note_on_c, 0, 79, 78
2, 22388, Note_on_c, 0, 79, 0
2, 22416, Note_on_c, 0, 79, 78
2, 22436, Note_on_c, 0, 79, 0
2, 22464, Note_on_c, 0, 79, 78
2, 22641, Note_on_c, 0, 79, 0
2, 22656, Note_on_c, 0, 80, 78
2, 22656, Note_on_c, 0, 68, 78
2, 22745, Note_on_c, 0, 80, 0
2, 22745, Note_on_c, 0, 68, 0
2, 22752, Note_on_c, 0, 75, 78
2, 22819, Note_on_c, 0, 75, 0
2, 22824, Note_on_c, 0, 73, 78
2, 22847, Note_on_c, 0, 73, 0
2, 22848, Note_on_c, 0, 73, 78
2, 22944, Note_on_c, 0, 73, 0
2, 22944, Note_on_c, 0, 72, 78
2, 22956, Note_on_c, 0, 72, 0
2, 22956, Note_on_c, 0, 73, 78
2, 22968, Note_on_c, 0, 73, 0
2, 22968, Note_on_c, 0, 72, 78
2, 22991, Note_on_c, 0, 72, 0
2, 22992, Note_on_c, 0, 70, 78
2, 23037, Note_on_c, 0, 70, 0
2, 23040, Note_on_c, 0, 68, 78
2, 23085, Note_on_c, 0, 68, 0
2, 23088, Note_on_c, 0, 73, 78
2, 23133, Note_on_c, 0, 73, 0
2, 23136, Note_on_c, 0, 70, 78
2, 23181, Note_on_c, 0, 70, 0
2, 23184, Note_on_c, 0, 75, 78
2, 23229, Note_on_c, 0, 75, 0
2, 23232, Note_on_c, 0, 73, 78
2, 23328, Note_on_c, 0, 73, 0
2, 23328, Note_on_c, 0, 72, 78
2, 23340, Note_on_c, 0, 72, 0
2, 23340, Note_on_c, 0, 73, 78
2, 23352, Note_on_c, 0, 73, 0
2, 23352, Note_on_c, 0, 72, 78
2, 23375, Note_on_c, 0, 72, 0
2, 23376, Note_on_c, 0, 70, 78
2, 23421, Note_on_c, 0, 70, 0
2, 23424, Note_on_c, 0, 68, 78
2, 23447, Note_on_c, 0, 68, 0
2, 23448, Note_on_c, 0, 75, 78
2, 23471, Note_on_c, 0, 75, 0
2, 23472, Note_on_c, 0, 73, 78
2, 23495, Note_on_c, 0, 73, 0
2, 23496, Note_on_c, 0, 72, 78
2, 23519, Note_on_c, 0, 72, 0
2, 23520, Note_on_c, 0, 70, 78
2, 23543, Note_on_c, 0, 70, 0
2, 23544, Note_on_c, 0, 77, 78
2, 23567, Note_on_c, 0, 77, 0
2, 23568, Note_on_c, 0, 75, 78
2, 23591, Note_on_c, 0, 75, 0
2, 23592, Note_on_c, 0, 73, 78
2, 23615, Note_on_c, 0, 73, 0
2, 23616, Note_on_c, 0, 72, 78
2, 23628, Note_on_c, 0, 72, 0
2, 23628, Note_on_c, 0, 75, 78
2, 23640, Note_on_c, 0, 75, 0
2, 23640, Note_on_c, 0, 73, 78
2, 23707, Note_on_c, 0, 73, 0
2, 23712, Note_on_c, 0, 72, 78
2, 23757, Note_on_c, 0, 72, 0
2, 23760, Note_on_c, 0, 70, 78
2, 23805, Note_on_c, 0, 70, 0
2, 23808, Note_on_c, 0, 69, 78
2, 23831, Note_on_c, 0, 69, 0
2, 23832, Note_on_c, 0, 75, 78
2, 23855, Note_on_c, 0, 75, 0
2, 23856, Note_on_c, 0, 73, 78
2, 23879, Note_on_c, 0, 73, 0
2, 23880, Note_on_c, 0, 72, 78
2, 23903, Note_on_c, 0, 72, 0
2, 23904, Note_on_c, 0, 70, 78
2, 23927, Note_on_c, 0, 70, 0
2, 23928, Note_on_c, 0, 78, 78
2, 23951, Note_on_c, 0, 78, 0
2, 23952, Note_on_c, 0, 77, 78
2, 23975, Note_on_c, 0, 77, 0
2, 23976, Note_on_c, 0, 75, 78
2, 23999, Note_on_c, 0, 75, 0
2, 24000, Note_on_c, 0, 75, 78
2, 24096, Note_on_c, 0, 75, 0
2, 24096, Note_on_c, 0, 74, 78
2, 24185, Note_on_c, 0, 74, 0
2, 24192, Note_on_c, 0, 70, 78
2, 24215, Note_on_c, 0, 70, 0
2, 24216, Note_on_c, 0, 75, 78
2, 24239, Note_on_c, 0, 75, 0
2, 24240, Note_on_c, 0, 73, 78
2, 24263, Note_on_c, 0, 73, 0
2, 24264, Note_on_c, 0, 72, 78
2, 24287, Note_on_c, 0, 72, 0
2, 24288, Note_on_c, 0, 70, 78
2, 24311, Note_on_c, 0, 70, 0
2, 24312, Note_on_c, 0, 77, 78
2, 24335, Note_on_c, 0, 77, 0
2, 24336, Note_on_c, 0, 75, 78
2, 24359, Note_on_c, 0, 75, 0
2, 24360, Note_on_c, 0, 73, 78
2, 24383, Note_on_c, 0, 73, 0
2, 24384, Note_on_c, 0, 73, 78
2, 24480, Note_on_c, 0, 73, 0
2, 24480, Note_on_c, 0, 72, 78
2, 24569, Note_on_c, 0, 72, 0
2, 24576, Note_on_c, 0, 68, 78
2, 24599, Note_on_c, 0, 68, 0
2, 24600, Note_on_c, 0, 72, 78
2, 24623, Note_on_c, 0, 72, 0
2, 24624, Note_on_c, 0, 73, 78
2, 24647, Note_on_c, 0, 73, 0
2, 24648, Note_on_c, 0, 75, 78
2, 24671, Note_on_c, 0, 75, 0
2, 24672, Note_on_c, 0, 77, 78
2, 24695, Note_on_c, 0, 77, 0
2, 24696, Note_on_c, 0, 79, 78
2, 24719, Note_on_c, 0, 79, 0
2, 24720, Note_on_c, 0, 80, 78
2, 24743, Note_on_c, 0, 80, 0
2, 24744, Note_on_c, 0, 80, 78
2, 24767, Note_on_c, 0, 80, 0
2, 24768, Note_on_c, 0, 80, 78
2, 24887, Note_on_c, 0, 80, 0
2, 24888, Note_on_c, 0, 80, 78
2, 24911, Note_on_c, 0, 80, 0
2, 24912, Note_on_c, 0, 82, 78
2, 24935, Note_on_c, 0, 82, 0
2, 24936, Note_on_c, 0, 84, 78
2, 24959, Note_on_c, 0, 84, 0
2, 24960, Note_on_c, 0, 85, 78
2, 24983, Note_on_c, 0, 85, 0
2, 24984, Note_on_c, 0, 84, 78
2, 25007, Note_on_c, 0, 84, 0
2, 25008, Note_on_c, 0, 82, 78
2, 25031, Note_on_c, 0, 82, 0
2, 25032, Note_on_c, 0, 80, 78
2, 25055, Note_on_c, 0, 80, 0
2, 25056, Note_on_c, 0, 79, 78
2, 25079, Note_on_c, 0, 79, 0
2, 25080, Note_on_c, 0, 77, 78
2, 25103, Note_on_c, 0, 77, 0
2, 25104, Note_on_c, 0, 75, 78
2, 25127, Note_on_c, 0, 75, 0
2, 25128, Note_on_c, 0, 73, 78
2, 25151, Note_on_c, 0, 73, 0
2, 25152, Note_on_c, 0, 75, 78
2, 25197, Note_on_c, 0, 75, 0
2, 25200, Note_on_c, 0, 73, 78
2, 25212, Note_on_c, 0, 73, 0
2, 25212, Note_on_c, 0, 75, 78
2, 25224, Note_on_c, 0, 75, 0
2, 25224, Note_on_c, 0, 73, 78
2, 25245, Note_on_c, 0, 73, 0
2, 25248, Note_on_c, 0, 72, 78
2, 25271, Note_on_c, 0, 72, 0
2, 25272, Note_on_c, 0, 80, 78
2, 25295, Note_on_c, 0, 80, 0
2, 25296, Note_on_c, 0, 82, 78
2, 25319, Note_on_c, 0, 82, 0
2, 25320, Note_on_c, 0, 84, 78
2, 25343, Note_on_c, 0, 84, 0
2, 25344, Note_on_c, 0, 82, 78
2, 25367, Note_on_c, 0, 82, 0
2, 25368, Note_on_c, 0, 80, 78
2, 25391, Note_on_c, 0, 80, 0
2, 25392, Note_on_c, 0, 79, 78
2, 25415, Note_on_c, 0, 79, 0
2, 25416, Note_on_c, 0, 77, 78
2, 25439, Note_on_c, 0, 77, 0
2, 25440, Note_on_c, 0, 76, 78
2, 25463, Note_on_c, 0, 76, 0
2, 25464, Note_on_c, 0, 73, 78
2, 25487, Note_on_c, 0, 73, 0
2, 25488, Note_on_c, 0, 72, 78
2, 25511, Note_on_c, 0, 72, 0
2, 25512, Note_on_c, 0, 70, 78
2, 25535, Note_on_c, 0, 70, 0
2, 25536, Note_on_c, 0, 72, 78
2, 25581, Note_on_c, 0, 72, 0
2, 25584, Note_on_c, 0, 70, 78
2, 25596, Note_on_c, 0, 70, 0
2, 25596, Note_on_c, 0, 72, 78
2, 25608, Note_on_c, 0, 72, 0
2, 25608, Note_on_c, 0, 70, 78
2, 25629, Note_on_c, 0, 70, 0
2, 25632, Note_on_c, 0, 68, 78
2, 25655, Note_on_c, 0, 68, 0
2, 25656, Note_on_c, 0, 72, 78
2, 25679, Note_on_c, 0, 72, 0
2, 25680, Note_on_c, 0, 77, 78
2, 25703, Note_on_c, 0, 77, 0
2, 25704, Note_on_c, 0, 76, 78
2, 25727, Note_on_c, 0, 76, 0
2, 25728, Note_on_c, 0, 79, 78
2, 25751, Note_on_c, 0, 79, 0
2, 25752, Note_on_c, 0, 77, 78
2, 25775, Note_on_c, 0, 77, 0
2, 25776, Note_on_c, 0, 80, 78
2, 25799, Note_on_c, 0, 80, 0
2, 25800, Note_on_c, 0, 79, 78
2, 25823, Note_on_c, 0, 79, 0
2, 25824, Note_on_c, 0, 77, 78
2, 25847, Note_on_c, 0, 77, 0
2, 25848, Note_on_c, 0, 75, 78
2, 25871, Note_on_c, 0, 75, 0
2, 25872, Note_on_c, 0, 74, 78
2, 25895, Note_on_c, 0, 74, 0
2, 25896, Note_on_c, 0, 72, 78
2, 25919, Note_on_c, 0, 72, 0
2, 25920, Note_on_c, 0, 79, 78
2, 26009, Note_on_c, 0, 79, 0
2, 26016, Note_on_c, 0, 74, 78
2, 26083, Note_on_c, 0, 74, 0
2, 26088, Note_on_c, 0, 72, 78
2, 26111, Note_on_c, 0, 72, 0
2, 26112, Note_on_c, 0, 72, 78
2, 26201, Note_on_c, 0, 72, 0
2, 26208, Note_on_c, 0, 71, 78
2, 26220, Note_on_c, 0, 71, 0
2, 26220, Note_on_c, 0, 72, 78
2, 26232, Note_on_c, 0, 72, 0
2, 26232, Note_on_c, 0, 71, 78
2, 26297, Note_on_c, 0, 71, 0
2, 26304, Note_on_c, 0, 71, 78
2, 26312, Note_on_c, 0, 71, 0
2, 26312, Note_on_c, 0, 74, 78
2, 26320, Note_on_c, 0, 74, 0
2, 26320, Note_on_c, 0, 77, 78
2, 26328, Note_on_c, 0, 77, 0
2, 26328, Note_on_c, 0, 80, 78
2, 26395, Note_on_c, 0, 80, 0
2, 26400, Note_on_c, 0, 77, 78
2, 26467, Note_on_c, 0, 77, 0
2, 26472, Note_on_c, 0, 74, 78
2, 26495, Note_on_c, 0, 74, 0
2, 26496, Note_on_c, 0, 72, 78
2, 26585, Note_on_c, 0, 72, 0
2, 26592, Note_on_c, 0, 71, 78
2, 26604, Note_on_c, 0, 71, 0
2, 26604, Note_on_c, 0, 72, 78
2, 26616, Note_on_c, 0, 72, 0
2, 26616, Note_on_c, 0, 71, 78
2, 26681, Note_on_c, 0, 71, 0
2, 26688, Note_on_c, 0, 79, 78
2, 26755, Note_on_c, 0, 79, 0
2, 26760, Note_on_c, 0, 75, 78
2, 26783, Note_on_c, 0, 75, 0
2, 26784, Note_on_c, 0, 72, 64
2, 26829, Note_on_c, 0, 72, 0
2, 26832, Note_on_c, 0, 72, 64
2, 26877, Note_on_c, 0, 72, 0
2, 26880, Note_on_c, 0, 74, 64
2, 26903, Note_on_c, 0, 74, 0
2, 26904, Note_on_c, 0, 75, 64
2, 26927, Note_on_c, 0, 75, 0
2, 26928, Note_on_c, 0, 77, 64
2, 26951, Note_on_c, 0, 77, 0
2, 26952, Note_on_c, 0, 71, 64
2, 26975, Note_on_c, 0, 71, 0
2, 26976, Note_on_c, 0, 72, 64
2, 27021, Note_on_c, 0, 72, 0
2, 27024, Note_on_c, 0, 72, 64
2, 27069, Note_on_c, 0, 72, 0
2, 27072, Note_on_c, 0, 74, 64
2, 27095, Note_on_c, 0, 74, 0
2, 27096, Note_on_c, 0, 75, 65
2, 27119, Note_on_c, 0, 75, 0
2, 27120, Note_on_c, 0, 77, 66
2, 27143, Note_on_c, 0, 77, 0
2, 27144, Note_on_c, 0, 71, 67
2, 27167, Note_on_c, 0, 71, 0
2, 27168, Note_on_c, 0, 72, 68
2, 27191, Note_on_c, 0, 72, 0
2, 27192, Note_on_c, 0, 74, 70
2, 27215, Note_on_c, 0, 74, 0
2, 27216, Note_on_c, 0, 75, 71
2, 27239, Note_on_c, 0, 75, 0
2, 27240, Note_on_c, 0, 72, 72
2, 27263, Note_on_c, 0, 72, 0
2, 27264, Note_on_c, 0, 74, 73
2, 27287, Note_on_c, 0, 74, 0
2, 27288, Note_on_c, 0, 75, 75
2, 27311, Note_on_c, 0, 75, 0
2, 27312, Note_on_c, 0, 77, 76
2, 27335, Note_on_c, 0, 77, 0
2, 27336, Note_on_c, 0, 71, 77
2, 27359, Note_on_c, 0, 71, 0
2, 27360, Note_on_c, 0, 72, 78
2, 27383, Note_on_c, 0, 72, 0
2, 27384, Note_on_c, 0, 74, 80
2, 27407, Note_on_c, 0, 74, 0
2, 27408, Note_on_c, 0, 75, 81
2, 27431, Note_on_c, 0, 75, 0
2, 27432, Note_on_c, 0, 72, 82
2, 27455, Note_on_c, 0, 72, 0
2, 27456, Note_on_c, 0, 74, 83
2, 27479, Note_on_c, 0, 74, 0
2, 27480, Note_on_c, 0, 75, 85
2, 27503, Note_on_c, 0, 75, 0
2, 27504, Note_on_c, 0, 77, 85
2, 27527, Note_on_c, 0, 77, 0
2, 27528, Note_on_c, 0, 71, 85
2, 27551, Note_on_c, 0, 71, 0
2, 27552, Note_on_c, 0, 72, 85
2, 27597, Note_on_c, 0, 72, 0
2, 27600, Note_on_c, 0, 79, 85
2, 27645, Note_on_c, 0, 79, 0
2, 27648, Note_on_c, 0, 78, 85
2, 27737, Note_on_c, 0, 78, 0
2, 27744, Note_on_c, 0, 77, 85
2, 27767, Note_on_c, 0, 77, 0
2, 27768, Note_on_c, 0, 79, 85
2, 27791, Note_on_c, 0, 79, 0
2, 27792, Note_on_c, 0, 80, 85
2, 27815, Note_on_c, 0, 80, 0
2, 27816, Note_on_c, 0, 77, 85
2, 27839, Note_on_c, 0, 77, 0
2, 27840, Note_on_c, 0, 75, 85
2, 27863, Note_on_c, 0, 75, 0
2, 27864, Note_on_c, 0, 77, 85
2, 27887, Note_on_c, 0, 77, 0
2, 27888, Note_on_c, 0, 79, 85
2, 27911, Note_on_c, 0, 79, 0
2, 27912, Note_on_c, 0, 75, 85
2, 27935, Note_on_c, 0, 75, 0
2, 27936, Note_on_c, 0, 84, 85
2, 28025, Note_on_c, 0, 84, 0
2, 28080, Note_on_c, 0, 79, 85
2, 28092, Note_on_c, 0, 79, 0
2, 28092, Note_on_c, 0, 82, 85
2, 28104, Note_on_c, 0, 82, 0
2, 28104, Note_on_c, 0, 80, 85
2, 28114, Note_on_c, 0, 80, 0
2, 28128, Note_on_c, 0, 76, 85
2, 28140, Note_on_c, 0, 76, 0
2, 28140, Note_on_c, 0, 79, 85
2, 28152, Note_on_c, 0, 79, 0
2, 28152, Note_on_c, 0, 77, 85
2, 28162, Note_on_c, 0, 77, 0
2, 28176, Note_on_c, 0, 73, 85
2, 28188, Note_on_c, 0, 73, 0
2, 28188, Note_on_c, 0, 75, 85
2, 28200, Note_on_c, 0, 75, 0
2, 28200, Note_on_c, 0, 74, 85
2, 28210, Note_on_c, 0, 74, 0
2, 28224, Note_on_c, 0, 67, 85
2, 28318, Note_on_c, 0, 67, 0
2, 28320, Note_on_c, 0, 75, 85
2, 28330, Note_on_c, 0, 75, 0
2, 28330, Note_on_c, 0, 74, 85
2, 28340, Note_on_c, 0, 74, 0
2, 28340, Note_on_c, 0, 75, 85
2, 28350, Note_on_c, 0, 75, 0
2, 28350, Note_on_c, 0, 74, 85
2, 28360, Note_on_c, 0, 74, 0
2, 28360, Note_on_c, 0, 75, 85
2, 28370, Note_on_c, 0, 75, 0
2, 28370, Note_on_c, 0, 74, 85
2, 28380, Note_on_c, 0, 74, 0
2, 28380, Note_on_c, 0, 75, 85
2, 28389, Note_on_c, 0, 75, 0
2, 28389, Note_on_c, 0, 74, 85
2, 28398, Note_on_c, 0, 74, 0
2, 28398, Note_on_c, 0, 72, 85
2, 28407, Note_on_c, 0, 72, 0
2, 28407, Note_on_c, 0, 74, 85
2, 28416, Note_on_c, 0, 74, 0
2, 28464, Note_on_c, 0, 86, 85
2, 28476, Note_on_c, 0, 86, 0
2, 28476, Note_on_c, 0, 89, 85
2, 28488, Note_on_c, 0, 89, 0
2, 28488, Note_on_c, 0, 87, 85
2, 28498, Note_on_c, 0, 87, 0
2, 28512, Note_on_c, 0, 83, 85
2, 28524, Note_on_c, 0, 83, 0
2, 28524, Note_on_c, 0, 86, 85
2, 28536, Note_on_c, 0, 86, 0
2, 28536, Note_on_c, 0, 84, 85
2, 28546, Note_on_c, 0, 84, 0
2, 28560, Note_on_c, 0, 79, 85
2, 28572, Note_on_c, 0, 79, 0
2, 28572, Note_on_c, 0, 82, 85
2, 28584, Note_on_c, 0, 82, 0
2, 28584, Note_on_c, 0, 80, 85
2, 28594, Note_on_c, 0, 80, 0
2, 28608, Note_on_c, 0, 79, 85
2, 28623, Note_on_c, 0, 79, 0
2, 28624, Note_on_c, 0, 75, 85
2, 28639, Note_on_c, 0, 75, 0
2, 28640, Note_on_c, 0, 72, 85
2, 28655, Note_on_c, 0, 72, 0
2, 28656, Note_on_c, 0, 80, 85
2, 28671, Note_on_c, 0, 80, 0
2, 28672, Note_on_c, 0, 77, 85
2, 28687, Note_on_c, 0, 77, 0
2, 28688, Note_on_c, 0, 74, 85
2, 28703, Note_on_c, 0, 74, 0
2, 28704, Note_on_c, 0, 75, 85
2, 28714, Note_on_c, 0, 75, 0
2, 28714, Note_on_c, 0, 74, 85
2, 28724, Note_on_c, 0, 74, 0
2, 28724, Note_on_c, 0, 75, 85
2, 28734, Note_on_c, 0, 75, 0
2, 28734, Note_on_c, 0, 74, 85
2, 28744, Note_on_c, 0, 74, 0
2, 28744, Note_on_c, 0, 75, 85
2, 28754, Note_on_c, 0, 75, 0
2, 28754, Note_on_c, 0, 74, 85
2, 28764, Note_on_c, 0, 74, 0
2, 28764, Note_on_c, 0, 75, 85
2, 28773, Note_on_c, 0, 75, 0
2, 28773, Note_on_c, 0, 74, 85
2, 28782, Note_on_c, 0, 74, 0
2, 28782, Note_on_c, 0, 72, 85
2, 28791, Note_on_c, 0, 72, 0
2, 28791, Note_on_c, 0, 74, 85
2, 28800, Note_on_c, 0, 74, 0
2, 28800, Note_on_c, 0, 72, 85
2, 28889, Note_on_c, 0, 72, 0
2, 28896, Note_on_c, 0, 67, 85
2, 28963, Note_on_c, 0, 67, 0
2, 28968, Note_on_c, 0, 65, 85
2, 28991, Note_on_c, 0, 65, 0
2, 28992, Note_on_c, 0, 65, 85
2, 29088, Note_on_c, 0, 65, 0
2, 29088, Note_on_c, 0, 63, 85
2, 29094, Note_on_c, 0, 63, 0
2, 29094, Note_on_c, 0, 65, 85
2, 29100, Note_on_c, 0, 65, 0
2, 29100, Note_on_c, 0, 63, 85
2, 29111, Note_on_c, 0, 63, 0
2, 29112, Note_on_c, 0, 65, 85
2, 29124, Note_on_c, 0, 65, 0
2, 29124, Note_on_c, 0, 67, 85
2, 29136, Note_on_c, 0, 67, 0
2, 29136, Note_on_c, 0, 68, 85
2, 29148, Note_on_c, 0, 68, 0
2, 29148, Note_on_c, 0, 70, 85
2, 29160, Note_on_c, 0, 70, 0
2, 29160, Note_on_c, 0, 72, 85
2, 29172, Note_on_c, 0, 72, 0
2, 29172, Note_on_c, 0, 74, 85
2, 29184, Note_on_c, 0, 74, 0
2, 29184, Note_on_c, 0, 75, 85
2, 29273, Note_on_c, 0, 75, 0
2, 29280, Note_on_c, 0, 70, 85
2, 29347, Note_on_c, 0, 70, 0
2, 29352, Note_on_c, 0, 68, 80
2, 29375, Note_on_c, 0, 68, 0
2, 29376, Note_on_c, 0, 68, 79
2, 29472, Note_on_c, 0, 68, 0
2, 29472, Note_on_c, 0, 67, 73
2, 29484, Note_on_c, 0, 67, 0
2, 29484, Note_on_c, 0, 68, 73
2, 29496, Note_on_c, 0, 68, 0
2, 29496, Note_on_c, 0, 67, 73
2, 29517, Note_on_c, 0, 67, 0
2, 29520, Note_on_c, 0, 65, 70
2, 29565, Note_on_c, 0, 65, 0
2, 29568, Note_on_c, 0, 63, 67
2, 29616, Note_on_c, 0, 63, 0
2, 29616, Note_on_c, 0, 68, 64
2, 29661, Note_on_c, 0, 68, 0
2, 29664, Note_on_c, 0, 65, 64
2, 29712, Note_on_c, 0, 65, 0
2, 29712, Note_on_c, 0, 70, 64
2, 29757, Note_on_c, 0, 70, 0
2, 29760, Note_on_c, 0, 68, 64
2, 29856, Note_on_c, 0, 68, 0
2, 29856, Note_on_c, 0, 67, 64
2, 29868, Note_on_c, 0, 67, 0
2, 29868, Note_on_c, 0, 68, 64
2, 29880, Note_on_c, 0, 68, 0
2, 29880, Note_on_c, 0, 67, 64
2, 29901, Note_on_c, 0, 67, 0
2, 29904, Note_on_c, 0, 65, 64
2, 29949, Note_on_c, 0, 65, 0
2, 29952, Note_on_c, 0, 63, 64
2, 29986, Note_on_c, 0, 63, 0
2, 29988, Note_on_c, 0, 68, 64
2, 30000, Note_on_c, 0, 68, 0
2, 30000, Note_on_c, 0, 68, 64
2, 30012, Note_on_c, 0, 68, 0
2, 30012, Note_on_c, 0, 70, 64
2, 30024, Note_on_c, 0, 70, 0
2, 30024, Note_on_c, 0, 68, 64
2, 30045, Note_on_c, 0, 68, 0
2, 30048, Note_on_c, 0, 65, 64
2, 30082, Note_on_c, 0, 65, 0
2, 30084, Note_on_c, 0, 70, 64
2, 30096, Note_on_c, 0, 70, 0
2, 30096, Note_on_c, 0, 70, 64
2, 30108, Note_on_c, 0, 70, 0
2, 30108, Note_on_c, 0, 72, 64
2, 30120, Note_on_c, 0, 72, 0
2, 30120, Note_on_c, 0, 70, 64
2, 30141, Note_on_c, 0, 70, 0
2, 30144, Note_on_c, 0, 68, 64
2, 30192, Note_on_c, 0, 68, 0
2, 30192, Note_on_c, 0, 67, 64
2, 30226, Note_on_c, 0, 67, 0
2, 30228, Note_on_c, 0, 79, 64
2, 30240, Note_on_c, 0, 79, 0
2, 30240, Note_on_c, 0, 75, 64
2, 30260, Note_on_c, 0, 75, 0
2, 30324, Note_on_c, 0, 75, 64
2, 30336, Note_on_c, 0, 75, 0
2, 30336, Note_on_c, 0, 72, 64
2, 30356, Note_on_c, 0, 72, 0
2, 30420, Note_on_c, 0, 72, 64
2, 30432, Note_on_c, 0, 72, 0
2, 30432, Note_on_c, 0, 70, 64
2, 30466, Note_on_c, 0, 70, 0
2, 30468, Note_on_c, 0, 68, 64
2, 30480, Note_on_c, 0, 68, 0
2, 30480, Note_on_c, 0, 65, 64
2, 30514, Note_on_c, 0, 65, 0
2, 30516, Note_on_c, 0, 62, 64
2, 30528, Note_on_c, 0, 62, 0
2, 30528, Note_on_c, 0, 63, 64
2, 30573, Note_on_c, 0, 63, 0
2, 30600, Note_on_c, 0, 79, 64
2, 30610, Note_on_c, 0, 79, 0
2, 30624, Note_on_c, 0, 74, 64
2, 30636, Note_on_c, 0, 74, 0
2, 30636, Note_on_c, 0, 77, 64
2, 30648, Note_on_c, 0, 77, 0
2, 30648, Note_on_c, 0, 75, 65
2, 30671, Note_on_c, 0, 75, 0
2, 30696, Note_on_c, 0, 75, 66
2, 30706, Note_on_c, 0, 75, 0
2, 30720, Note_on_c, 0, 71, 66
2, 30732, Note_on_c, 0, 71, 0
2, 30732, Note_on_c, 0, 74, 67
2, 30744, Note_on_c, 0, 74, 0
2, 30744, Note_on_c, 0, 72, 67
2, 30767, Note_on_c, 0, 72, 0
2, 30792, Note_on_c, 0, 80, 68
2, 30802, Note_on_c, 0, 80, 0
2, 30816, Note_on_c, 0, 76, 69
2, 30828, Note_on_c, 0, 76, 0
2, 30828, Note_on_c, 0, 79, 69
2, 30840, Note_on_c, 0, 79, 0
2, 30840, Note_on_c, 0, 77, 69
2, 30863, Note_on_c, 0, 77, 0
2, 30888, Note_on_c, 0, 75, 70
2, 30898, Note_on_c, 0, 75, 0
2, 30912, Note_on_c, 0, 73, 71
2, 30924, Note_on_c, 0, 73, 0
2, 30924, Note_on_c, 0, 75, 71
2, 30936, Note_on_c, 0, 75, 0
2, 30936, Note_on_c, 0, 74, 71
2, 30959, Note_on_c, 0, 74, 0
2, 30984, Note_on_c, 0, 82, 73
2, 30994, Note_on_c, 0, 82, 0
2, 31008, Note_on_c, 0, 81, 73
2, 31020, Note_on_c, 0, 81, 0
2, 31020, Note_on_c, 0, 84, 73
2, 31032, Note_on_c, 0, 84, 0
2, 31032, Note_on_c, 0, 82, 74
2, 31055, Note_on_c, 0, 82, 0
2, 31080, Note_on_c, 0, 82, 75
2, 31090, Note_on_c, 0, 82, 0
2, 31104, Note_on_c, 0, 81, 75
2, 31116, Note_on_c, 0, 81, 0
2, 31116, Note_on_c, 0, 84, 76
2, 31128, Note_on_c, 0, 84, 0
2, 31128, Note_on_c, 0, 82, 76
2, 31151, Note_on_c, 0, 82, 0
2, 31176, Note_on_c, 0, 82, 77
2, 31186, Note_on_c, 0, 82, 0
2, 31200, Note_on_c, 0, 81, 78
2, 31212, Note_on_c, 0, 81, 0
2, 31212, Note_on_c, 0, 84, 78
2, 31224, Note_on_c, 0, 84, 0
2, 31224, Note_on_c, 0, 82, 78
2, 31247, Note_on_c, 0, 82, 0
2, 31272, Note_on_c, 0, 82, 79
2, 31282, Note_on_c, 0, 82, 0
2, 31296, Note_on_c, 0, 79, 80
2, 31308, Note_on_c, 0, 79, 0
2, 31308, Note_on_c, 0, 82, 80
2, 31320, Note_on_c, 0, 82, 0
2, 31320, Note_on_c, 0, 80, 80
2, 31343, Note_on_c, 0, 80, 0
2, 31368, Note_on_c, 0, 80, 82
2, 31378, Note_on_c, 0, 80, 0
2, 31392, Note_on_c, 0, 79, 82
2, 31404, Note_on_c, 0, 79, 0
2, 31404, Note_on_c, 0, 82, 82
2, 31416, Note_on_c, 0, 82, 0
2, 31416, Note_on_c, 0, 80, 83
2, 31439, Note_on_c, 0, 80, 0
2, 31464, Note_on_c, 0, 80, 84
2, 31474, Note_on_c, 0, 80, 0
2, 31488, Note_on_c, 0, 87, 84
2, 31500, Note_on_c, 0, 87, 0
2, 31500, Note_on_c, 0, 86, 85
2, 31512, Note_on_c, 0, 86, 0
2, 31512, Note_on_c, 0, 89, 85
2, 31535, Note_on_c, 0, 89, 0
2, 31560, Note_on_c, 0, 80, 86
2, 31570, Note_on_c, 0, 80, 0
2, 31584, Note_on_c, 0, 87, 87
2, 31596, Note_on_c, 0, 87, 0
2, 31596, Note_on_c, 0, 86, 87
2, 31608, Note_on_c, 0, 86, 0
2, 31608, Note_on_c, 0, 89, 87
2, 31631, Note_on_c, 0, 89, 0
2, 31656, Note_on_c, 0, 80, 88
2, 31666, Note_on_c, 0, 80, 0
2, 31680, Note_on_c, 0, 87, 89
2, 31692, Note_on_c, 0, 87, 0
2, 31692, Note_on_c, 0, 86, 89
2, 31704, Note_on_c, 0, 86, 0
2, 31704, Note_on_c, 0, 89, 89
2, 31727, Note_on_c, 0, 89, 0
2, 31752, Note_on_c, 0, 80, 91
2, 31762, Note_on_c, 0, 80, 0
2, 31776, Note_on_c, 0, 87, 91
2, 31791, Note_on_c, 0, 87, 0
2, 31792, Note_on_c, 0, 86, 91
2, 31807, Note_on_c, 0, 86, 0
2, 31808, Note_on_c, 0, 89, 91
2, 31823, Note_on_c, 0, 89, 0
2, 31824, Note_on_c, 0, 87, 91
2, 31839, Note_on_c, 0, 87, 0
2, 31840, Note_on_c, 0, 86, 91
2, 31855, Note_on_c, 0, 86, 0
2, 31856, Note_on_c, 0, 84, 91
2, 31871, Note_on_c, 0, 84, 0
2, 31872, Note_on_c, 0, 82, 91
2, 31887, Note_on_c, 0, 82, 0
2, 31888, Note_on_c, 0, 80, 91
2, 31903, Note_on_c, 0, 80, 0
2, 31904, Note_on_c, 0, 79, 91
2, 31919, Note_on_c, 0, 79, 0
2, 31920, Note_on_c, 0, 82, 91
2, 31935, Note_on_c, 0, 82, 0
2, 31936, Note_on_c, 0, 80, 91
2, 31951, Note_on_c, 0, 80, 0
2, 31952, Note_on_c, 0, 84, 91
2, 31967, Note_on_c, 0, 84, 0
2, 31968, Note_on_c, 0, 82, 91
2, 31980, Note_on_c, 0, 82, 0
2, 31980, Note_on_c, 0, 80, 90
2, 31992, Note_on_c, 0, 80, 0
2, 31992, Note_on_c, 0, 79, 89
2, 32004, Note_on_c, 0, 79, 0
2, 32004, Note_on_c, 0, 77, 88
2, 32016, Note_on_c, 0, 77, 0
2, 32016, Note_on_c, 0, 75, 87
2, 32028, Note_on_c, 0, 75, 0
2, 32028, Note_on_c, 0, 74, 86
2, 32040, Note_on_c, 0, 74, 0
2, 32040, Note_on_c, 0, 72, 86
2, 32052, Note_on_c, 0, 72, 0
2, 32052, Note_on_c, 0, 70, 85
2, 32064, Note_on_c, 0, 70, 0
2, 32064, Note_on_c, 0, 68, 84
2, 32183, Note_on_c, 0, 68, 0
2, 32184, Note_on_c, 0, 67, 78
2, 32196, Note_on_c, 0, 67, 0
2, 32196, Note_on_c, 0, 68, 78
2, 32208, Note_on_c, 0, 68, 0
2, 32208, Note_on_c, 0, 70, 78
2, 32220, Note_on_c, 0, 70, 0
2, 32220, Note_on_c, 0, 68, 78
2, 32232, Note_on_c, 0, 68, 0
2, 32232, Note_on_c, 0, 67, 78
2, 32244, Note_on_c, 0, 67, 0
2, 32244, Note_on_c, 0, 65, 78
2, 32256, Note_on_c, 0, 65, 0
2, 32256, Note_on_c, 0, 63, 78
2, 32301, Note_on_c, 0, 63, 0
2, 32304, Note_on_c, 0, 63, 78
2, 32349, Note_on_c, 0, 63, 0
2, 32352, Note_on_c, 0, 63, 78
2, 32397, Note_on_c, 0, 63, 0
2, 32400, Note_on_c, 0, 63, 78
2, 32445, Note_on_c, 0, 63, 0
2, 32448, Note_on_c, 0, 63, 78
2, 32493, Note_on_c, 0, 63, 0
2, 32496, Note_on_c, 0, 63, 78
2, 32530, Note_on_c, 0, 63, 0
2, 32532, Note_on_c, 0, 63, 78
2, 32544, Note_on_c, 0, 63, 0
2, 32544, Note_on_c, 0, 63, 78
2, 32578, Note_on_c, 0, 63, 0
2, 32580, Note_on_c, 0, 63, 78
2, 32592, Note_on_c, 0, 63, 0
2, 32592, Note_on_c, 0, 63, 78
2, 32626, Note_on_c, 0, 63, 0
2, 32628, Note_on_c, 0, 63, 78
2, 32640, Note_on_c, 0, 63, 0
2, 32640, Note_on_c, 0, 63, 78
2, 32685, Note_on_c, 0, 63, 0
2, 32688, Note_on_c, 0, 65, 78
2, 32688, Note_on_c, 0, 63, 78
2, 32722, Note_on_c, 0, 65, 0
2, 32722, Note_on_c, 0, 63, 0
2, 32724, Note_on_c, 0, 65, 78
2, 32724, Note_on_c, 0, 63, 78
2, 32736, Note_on_c, 0, 65, 0
2, 32736, Note_on_c, 0, 63, 0
2, 32736, Note_on_c, 0, 65, 78
2, 32736, Note_on_c, 0, 63, 78
2, 32770, Note_on_c, 0, 65, 0
2, 32770, Note_on_c, 0, 63, 0
2, 32772, Note_on_c, 0, 65, 78
2, 32772, Note_on_c, 0, 63, 78
2, 32784, Note_on_c, 0, 65, 0
2, 32784, Note_on_c, 0, 63, 0
2, 32784, Note_on_c, 0, 65, 78
2, 32784, Note_on_c, 0, 63, 78
2, 32818, Note_on_c, 0, 65, 0
2, 32818, Note_on_c, 0, 63, 0
2, 32820, Note_on_c, 0, 65, 78
2, 32820, Note_on_c, 0, 63, 78
2, 32832, Note_on_c, 0, 65, 0
2, 32832, Note_on_c, 0, 63, 0
2, 32832, Note_on_c, 0, 65, 78
2, 32832, Note_on_c, 0, 62, 78
2, 32877, Note_on_c, 0, 65, 0
2, 32877, Note_on_c, 0, 62, 0
2, 32880, Note_on_c, 0, 70, 78
2, 32880, Note_on_c, 0, 62, 78
2, 32914, Note_on_c, 0, 70, 0
2, 32914, Note_on_c, 0, 62, 0
2, 32916, Note_on_c, 0, 70, 78
2, 32916, Note_on_c, 0, 62, 78
2, 32928, Note_on_c, 0, 70, 0
2, 32928, Note_on_c, 0, 62, 0
2, 32928, Note_on_c, 0, 70, 78
2, 32928, Note_on_c, 0, 63, 78
2, 32962, Note_on_c, 0, 70, 0
2, 32962, Note_on_c, 0, 63, 0
2, 32964, Note_on_c, 0, 70, 78
2, 32964, Note_on_c, 0, 63, 78
2, 32976, Note_on_c, 0, 70, 0
2, 32976, Note_on_c, 0, 63, 0
2, 32976, Note_on_c, 0, 68, 78
2, 32976, Note_on_c, 0, 65, 78
2, 33010, Note_on_c, 0, 68, 0
2, 33010, Note_on_c, 0, 65, 0
2, 33012, Note_on_c, 0, 68, 78
2, 33012, Note_on_c, 0, 65, 78
2, 33024, Note_on_c, 0, 68, 0
2, 33024, Note_on_c, 0, 65, 0
2, 33024, Note_on_c, 0, 67, 78
2, 33036, Note_on_c, 0, 67, 0
2, 33036, Note_on_c, 0, 70, 78
2, 33048, Note_on_c, 0, 70, 0
2, 33048, Note_on_c, 0, 68, 78
2, 33060, Note_on_c, 0, 68, 0
2, 33060, Note_on_c, 0, 67, 78
2, 33072, Note_on_c, 0, 67, 0
2, 33072, Note_on_c, 0, 68, 78
2, 33084, Note_on_c, 0, 68, 0
2, 33084, Note_on_c, 0, 70, 78
2, 33096, Note_on_c, 0, 70, 0
2, 33096, Note_on_c, 0, 72, 78
2, 33108, Note_on_c, 0, 72, 0
2, 33108, Note_on_c, 0, 74, 78
2, 33120, Note_on_c, 0, 74, 0
2, 33120, Note_on_c, 0, 75, 78
2, 33132, Note_on_c, 0, 75, 0
2, 33132, Note_on_c, 0, 77, 78
2, 33144, Note_on_c, 0, 77, 0
2, 33144, Note_on_c, 0, 79, 78
2, 33156, Note_on_c, 0, 79, 0
2, 33156, Note_on_c, 0, 80, 78
2, 33168, Note_on_c, 0, 80, 0
2, 33168, Note_on_c, 0, 82, 78
2, 33180, Note_on_c, 0, 82, 0
2, 33180, Note_on_c, 0, 80, 78
2, 33192, Note_on_c, 0, 80, 0
2, 33192, Note_on_c, 0, 79, 78
2, 33204, Note_on_c, 0, 79, 0
2, 33204, Note_on_c, 0, 77, 78
2, 33216, Note_on_c, 0, 77, 0
2, 33216, Note_on_c, 0, 75, 78
2, 33228, Note_on_c, 0, 75, 0
2, 33228, Note_on_c, 0, 74, 78
2, 33240, Note_on_c, 0, 74, 0
2, 33240, Note_on_c, 0, 72, 78
2, 33252, Note_on_c, 0, 72, 0
2, 33252, Note_on_c, 0, 70, 78
2, 33264, Note_on_c, 0, 70, 0
2, 33264, Note_on_c, 0, 72, 78
2, 33276, Note_on_c, 0, 72, 0
2, 33276, Note_on_c, 0, 74, 78
2, 33288, Note_on_c, 0, 74, 0
2, 33288, Note_on_c, 0, 75, 78
2, 33300, Note_on_c, 0, 75, 0
2, 33300, Note_on_c, 0, 77, 78
2, 33312, Note_on_c, 0, 77, 0
2, 33312, Note_on_c, 0, 79, 78
2, 33324, Note_on_c, 0, 79, 0
2, 33324, Note_on_c, 0, 77, 78
2, 33336, Note_on_c, 0, 77, 0
2, 33336, Note_on_c, 0, 75, 78
2, 33348, Note_on_c, 0, 75, 0
2, 33348, Note_on_c, 0, 74, 78
2, 33360, Note_on_c, 0, 74, 0
2, 33360, Note_on_c, 0, 72, 78
2, 33372, Note_on_c, 0, 72, 0
2, 33372, Note_on_c, 0, 70, 78
2, 33384, Note_on_c, 0, 70, 0
2, 33384, Note_on_c, 0, 68, 78
2, 33396, Note_on_c, 0, 68, 0
2, 33396, Note_on_c, 0, 67, 78
2, 33408, Note_on_c, 0, 67, 0
2, 33408, Note_on_c, 0, 65, 78
2, 33420, Note_on_c, 0, 65, 0
2, 33420, Note_on_c, 0, 67, 78
2, 33432, Note_on_c, 0, 67, 0
2, 33432, Note_on_c, 0, 68, 78
2, 33444, Note_on_c, 0, 68, 0
2, 33444, Note_on_c, 0, 70, 78
2, 33456, Note_on_c, 0, 70, 0
2, 33456, Note_on_c, 0, 72, 78
2, 33468, Note_on_c, 0, 72, 0
2, 33468, Note_on_c, 0, 70, 78
2, 33480, Note_on_c, 0, 70, 0
2, 33480, Note_on_c, 0, 68, 78
2, 33492, Note_on_c, 0, 68, 0
2, 33492, Note_on_c, 0, 67, 78
2, 33504, Note_on_c, 0, 67, 0
2, 33504, Note_on_c, 0, 65, 78
2, 33516, Note_on_c, 0, 65, 0
2, 33516, Note_on_c, 0, 67, 78
2, 33528, Note_on_c, 0, 67, 0
2, 33528, Note_on_c, 0, 65, 78
2, 33540, Note_on_c, 0, 65, 0
2, 33540, Note_on_c, 0, 63, 78
2, 33552, Note_on_c, 0, 63, 0
2, 33552, Note_on_c, 0, 62, 78
2, 33564, Note_on_c, 0, 62, 0
2, 33564, Note_on_c, 0, 63, 78
2, 33576, Note_on_c, 0, 63, 0
2, 33576, Note_on_c, 0, 62, 78
2, 33588, Note_on_c, 0, 62, 0
2, 33588, Note_on_c, 0, 60, 78
2, 33600, Note_on_c, 0, 60, 0
2, 33600, Note_on_c, 0, 58, 78
2, 33623, Note_on_c, 0, 58, 0
2, 33624, Note_on_c, 0, 60, 78
2, 33636, Note_on_c, 0, 60, 0
2, 33636, Note_on_c, 0, 62, 78
2, 33648, Note_on_c, 0, 62, 0
2, 33648, Note_on_c, 0, 63, 78
2, 33660, Note_on_c, 0, 63, 0
2, 33660, Note_on_c, 0, 65, 78
2, 33672, Note_on_c, 0, 65, 0
2, 33672, Note_on_c, 0, 67, 78
2, 33684, Note_on_c, 0, 67, 0
2, 33684, Note_on_c, 0, 69, 78
2, 33696, Note_on_c, 0, 69, 0
2, 33696, Note_on_c, 0, 70, 78
2, 33719, Note_on_c, 0, 70, 0
2, 33720, Note_on_c, 0, 72, 78
2, 33732, Note_on_c, 0, 72, 0
2, 33732, Note_on_c, 0, 74, 78
2, 33744, Note_on_c, 0, 74, 0
2, 33744, Note_on_c, 0, 75, 78
2, 33756, Note_on_c, 0, 75, 0
2, 33756, Note_on_c, 0, 77, 78
2, 33768, Note_on_c, 0, 77, 0
2, 33768, Note_on_c, 0, 79, 78
2, 33780, Note_on_c, 0, 79, 0
2, 33780, Note_on_c, 0, 81, 78
2, 33792, Note_on_c, 0, 81, 0
2, 33792, Note_on_c, 0, 82, 78
2, 33812, Note_on_c, 0, 82, 0
2, 33840, Note_on_c, 0, 82, 78
2, 33852, Note_on_c, 0, 82, 0
2, 33852, Note_on_c, 0, 81, 78
2, 33864, Note_on_c, 0, 81, 0
2, 33864, Note_on_c, 0, 82, 78
2, 33876, Note_on_c, 0, 82, 0
2, 33876, Note_on_c, 0, 84, 78
2, 33888, Note_on_c, 0, 84, 0
2, 33888, Note_on_c, 0, 82, 78
2, 33900, Note_on_c, 0, 82, 0
2, 33900, Note_on_c, 0, 81, 78
2, 33912, Note_on_c, 0, 81, 0
2, 33912, Note_on_c, 0, 82, 78
2, 33924, Note_on_c, 0, 82, 0
2, 33924, Note_on_c, 0, 84, 78
2, 33936, Note_on_c, 0, 84, 0
2, 33936, Note_on_c, 0, 82, 78
2, 33948, Note_on_c, 0, 82, 0
2, 33948, Note_on_c, 0, 80, 78
2, 33960, Note_on_c, 0, 80, 0
2, 33960, Note_on_c, 0, 79, 78
2, 33972, Note_on_c, 0, 79, 0
2, 33972, Note_on_c, 0, 77, 78
2, 33984, Note_on_c, 0, 77, 0
2, 33984, Note_on_c, 0, 75, 78
2, 34004, Note_on_c, 0, 75, 0
2, 34032, Note_on_c, 0, 82, 78
2, 34044, Note_on_c, 0, 82, 0
2, 34044, Note_on_c, 0, 81, 78
2, 34056, Note_on_c, 0, 81, 0
2, 34056, Note_on_c, 0, 82, 78
2, 34068, Note_on_c, 0, 82, 0
2, 34068, Note_on_c, 0, 84, 78
2, 34080, Note_on_c, 0, 84, 0
2, 34080, Note_on_c, 0, 82, 78
2, 34092, Note_on_c, 0, 82, 0
2, 34092, Note_on_c, 0, 81, 78
2, 34104, Note_on_c, 0, 81, 0
2, 34104, Note_on_c, 0, 82, 78
2, 34116, Note_on_c, 0, 82, 0
2, 34116, Note_on_c, 0, 84, 78
2, 34128, Note_on_c, 0, 84, 0
2, 34128, Note_on_c, 0, 82, 78
2, 34140, Note_on_c, 0, 82, 0
2, 34140, Note_on_c, 0, 80, 78
2, 34152, Note_on_c, 0, 80, 0
2, 34152, Note_on_c, 0, 79, 78
2, 34164, Note_on_c, 0, 79, 0
2, 34164, Note_on_c, 0, 77, 78
2, 34176, Note_on_c, 0, 77, 0
2, 34176, Note_on_c, 0, 75, 78
2, 34196, Note_on_c, 0, 75, 0
2, 34224, Note_on_c, 0, 82, 78
2, 34236, Note_on_c, 0, 82, 0
2, 34236, Note_on_c, 0, 81, 78
2, 34248, Note_on_c, 0, 81, 0
2, 34248, Note_on_c, 0, 82, 78
2, 34260, Note_on_c, 0, 82, 0
2, 34260, Note_on_c, 0, 84, 78
2, 34272, Note_on_c, 0, 84, 0
2, 34272, Note_on_c, 0, 82, 78
2, 34284, Note_on_c, 0, 82, 0
2, 34284, Note_on_c, 0, 81, 78
2, 34296, Note_on_c, 0, 81, 0
2, 34296, Note_on_c, 0, 82, 78
2, 34308, Note_on_c, 0, 82, 0
2, 34308, Note_on_c, 0, 84, 78
2, 34320, Note_on_c, 0, 84, 0
2, 34320, Note_on_c, 0, 82, 78
2, 34332, Note_on_c, 0, 82, 0
2, 34332, Note_on_c, 0, 80, 78
2, 34344, Note_on_c, 0, 80, 0
2, 34344, Note_on_c, 0, 79, 78
2, 34356, Note_on_c, 0, 79, 0
2, 34356, Note_on_c, 0, 77, 78
2, 34368, Note_on_c, 0, 77, 0
2, 34368, Note_on_c, 0, 75, 78
2, 34391, Note_on_c, 0, 75, 0
2, 34392, Note_on_c, 0, 77, 78
2, 34404, Note_on_c, 0, 77, 0
2, 34404, Note_on_c, 0, 79, 78
2, 34416, Note_on_c, 0, 79, 0
2, 34416, Note_on_c, 0, 80, 78
2, 34428, Note_on_c, 0, 80, 0
2, 34428, Note_on_c, 0, 82, 78
2, 34440, Note_on_c, 0, 82, 0
2, 34440, Note_on_c, 0, 84, 78
2, 34452, Note_on_c, 0, 84, 0
2, 34452, Note_on_c, 0, 86, 78
2, 34464, Note_on_c, 0, 86, 0
2, 34464, Note_on_c, 0, 87, 78
2, 34476, Note_on_c, 0, 87, 0
2, 34476, Note_on_c, 0, 86, 78
2, 34488, Note_on_c, 0, 86, 0
2, 34488, Note_on_c, 0, 84, 78
2, 34500, Note_on_c, 0, 84, 0
2, 34500, Note_on_c, 0, 82, 78
2, 34512, Note_on_c, 0, 82, 0
2, 34512, Note_on_c, 0, 80, 78
2, 34524, Note_on_c, 0, 80, 0
2, 34524, Note_on_c, 0, 79, 78
2, 34536, Note_on_c, 0, 79, 0
2, 34536, Note_on_c, 0, 80, 78
2, 34548, Note_on_c, 0, 80, 0
2, 34548, Note_on_c, 0, 82, 78
2, 34560, Note_on_c, 0, 82, 0
2, 34560, Note_on_c, 0, 84, 78
2, 34572, Note_on_c, 0, 84, 0
2, 34572, Note_on_c, 0, 82, 78
2, 34584, Note_on_c, 0, 82, 0
2, 34584, Note_on_c, 0, 80, 78
2, 34596, Note_on_c, 0, 80, 0
2, 34596, Note_on_c, 0, 79, 78
2, 34608, Note_on_c, 0, 79, 0
2, 34608, Note_on_c, 0, 77, 78
2, 34620, Note_on_c, 0, 77, 0
2, 34620, Note_on_c, 0, 76, 78
2, 34632, Note_on_c, 0, 76, 0
2, 34632, Note_on_c, 0, 77, 78
2, 34644, Note_on_c, 0, 77, 0
2, 34644, Note_on_c, 0, 79, 78
2, 34656, Note_on_c, 0, 79, 0
2, 34656, Note_on_c, 0, 80, 78
2, 34668, Note_on_c, 0, 80, 0
2, 34668, Note_on_c, 0, 82, 78
2, 34680, Note_on_c, 0, 82, 0
2, 34680, Note_on_c, 0, 80, 78
2, 34692, Note_on_c, 0, 80, 0
2, 34692, Note_on_c, 0, 79, 78
2, 34704, Note_on_c, 0, 79, 0
2, 34704, Note_on_c, 0, 77, 78
2, 34716, Note_on_c, 0, 77, 0
2, 34716, Note_on_c, 0, 75, 78
2, 34728, Note_on_c, 0, 75, 0
2, 34728, Note_on_c, 0, 74, 78
2, 34740, Note_on_c, 0, 74, 0
2, 34740, Note_on_c, 0, 72, 78
2, 34752, Note_on_c, 0, 72, 0
2, 34752, Note_on_c, 0, 70, 78
2, 34764, Note_on_c, 0, 70, 0
2, 34764, Note_on_c, 0, 72, 78
2, 34776, Note_on_c, 0, 72, 0
2, 34776, Note_on_c, 0, 74, 78
2, 34788, Note_on_c, 0, 74, 0
2, 34788, Note_on_c, 0, 75, 78
2, 34800, Note_on_c, 0, 75, 0
2, 34800, Note_on_c, 0, 77, 78
2, 34812, Note_on_c, 0, 77, 0
2, 34812, Note_on_c, 0, 79, 78
2, 34824, Note_on_c, 0, 79, 0
2, 34824, Note_on_c, 0, 80, 78
2, 34836, Note_on_c, 0, 80, 0
2, 34836, Note_on_c, 0, 77, 78
2, 34848, Note_on_c, 0, 77, 0
2, 34848, Note_on_c, 0, 79, 78
2, 34860, Note_on_c, 0, 79, 0
2, 34860, Note_on_c, 0, 82, 78
2, 34872, Note_on_c, 0, 82, 0
2, 34872, Note_on_c, 0, 80, 78
2, 34884, Note_on_c, 0, 80, 0
2, 34884, Note_on_c, 0, 79, 78
2, 34896, Note_on_c, 0, 79, 0
2, 34896, Note_on_c, 0, 77, 78
2, 34908, Note_on_c, 0, 77, 0
2, 34908, Note_on_c, 0, 75, 78
2, 34920, Note_on_c, 0, 75, 0
2, 34920, Note_on_c, 0, 74, 78
2, 34932, Note_on_c, 0, 74, 0
2, 34932, Note_on_c, 0, 72, 78
2, 34944, Note_on_c, 0, 72, 0
2, 34944, Note_on_c, 0, 70, 78
2, 34956, Note_on_c, 0, 70, 0
2, 34956, Note_on_c, 0, 72, 78
2, 34968, Note_on_c, 0, 72, 0
2, 34968, Note_on_c, 0, 74, 78
2, 34980, Note_on_c, 0, 74, 0
2, 34980, Note_on_c, 0, 75, 78
2, 34992, Note_on_c, 0, 75, 0
2, 34992, Note_on_c, 0, 77, 78
2, 35004, Note_on_c, 0, 77, 0
2, 35004, Note_on_c, 0, 79, 78
2, 35016, Note_on_c, 0, 79, 0
2, 35016, Note_on_c, 0, 80, 78
2, 35028, Note_on_c, 0, 80, 0
2, 35028, Note_on_c, 0, 77, 78
2, 35040, Note_on_c, 0, 77, 0
2, 35040, Note_on_c, 0, 79, 78
2, 35052, Note_on_c, 0, 79, 0
2, 35052, Note_on_c, 0, 82, 78
2, 35064, Note_on_c, 0, 82, 0
2, 35064, Note_on_c, 0, 80, 78
2, 35076, Note_on_c, 0, 80, 0
2, 35076, Note_on_c, 0, 79, 78
2, 35088, Note_on_c, 0, 79, 0
2, 35088, Note_on_c, 0, 77, 78
2, 35100, Note_on_c, 0, 77, 0
2, 35100, Note_on_c, 0, 75, 78
2, 35112, Note_on_c, 0, 75, 0
2, 35112, Note_on_c, 0, 74, 78
2, 35124, Note_on_c, 0, 74, 0
2, 35124, Note_on_c, 0, 72, 78
2, 35136, Note_on_c, 0, 72, 0
2, 35136, Note_on_c, 0, 70, 78
2, 35148, Note_on_c, 0, 70, 0
2, 35148, Note_on_c, 0, 72, 78
2, 35160, Note_on_c, 0, 72, 0
2, 35160, Note_on_c, 0, 74, 78
2, 35172, Note_on_c, 0, 74, 0
2, 35172, Note_on_c, 0, 75, 78
2, 35184, Note_on_c, 0, 75, 0
2, 35184, Note_on_c, 0, 77, 78
2, 35196, Note_on_c, 0, 77, 0
2, 35196, Note_on_c, 0, 79, 78
2, 35208, Note_on_c, 0, 79, 0
2, 35208, Note_on_c, 0, 80, 78
2, 35220, Note_on_c, 0, 80, 0
2, 35220, Note_on_c, 0, 77, 78
2, 35232, Note_on_c, 0, 77, 0
2, 35232, Note_on_c, 0, 79, 78
2, 35244, Note_on_c, 0, 79, 0
2, 35244, Note_on_c, 0, 82, 78
2, 35256, Note_on_c, 0, 82, 0
2, 35256, Note_on_c, 0, 80, 78
2, 35268, Note_on_c, 0, 80, 0
2, 35268, Note_on_c, 0, 79, 78
2, 35280, Note_on_c, 0, 79, 0
2, 35280, Note_on_c, 0, 77, 78
2, 35292, Note_on_c, 0, 77, 0
2, 35292, Note_on_c, 0, 75, 78
2, 35304, Note_on_c, 0, 75, 0
2, 35304, Note_on_c, 0, 74, 78
2, 35316, Note_on_c, 0, 74, 0
2, 35316, Note_on_c, 0, 72, 78
2, 35328, Note_on_c, 0, 72, 0
2, 35328, Note_on_c, 0, 70, 78
2, 35351, Note_on_c, 0, 70, 0
2, 35352, Note_on_c, 0, 72, 78
2, 35364, Note_on_c, 0, 72, 0
2, 35364, Note_on_c, 0, 74, 78
2, 35376, Note_on_c, 0, 74, 0
2, 35376, Note_on_c, 0, 75, 78
2, 35388, Note_on_c, 0, 75, 0
2, 35388, Note_on_c, 0, 77, 78
2, 35400, Note_on_c, 0, 77, 0
2, 35400, Note_on_c, 0, 79, 78
2, 35412, Note_on_c, 0, 79, 0
2, 35412, Note_on_c, 0, 81, 78
2, 35424, Note_on_c, 0, 81, 0
2, 35424, Note_on_c, 0, 82, 78
2, 35469, Note_on_c, 0, 82, 0
2, 35472, Note_on_c, 0, 82, 78
2, 35472, Note_on_c, 0, 74, 78
2, 35517, Note_on_c, 0, 82, 0
2, 35517, Note_on_c, 0, 74, 0
2, 35520, Note_on_c, 0, 82, 78
2, 35520, Note_on_c, 0, 74, 78
2, 35609, Note_on_c, 0, 82, 0
2, 35609, Note_on_c, 0, 74, 0
2, 35688, Note_on_c, 0, 55, 78
2, 35700, Note_on_c, 0, 55, 0
2, 35700, Note_on_c, 0, 58, 78
2, 35712, Note_on_c, 0, 58, 0
2, 35712, Note_on_c, 0, 63, 78
2, 35779, Note_on_c, 0, 63, 0
2, 35784, Note_on_c, 0, 58, 78
2, 35796, Note_on_c, 0, 58, 0
2, 35796, Note_on_c, 0, 63, 78
2, 35808, Note_on_c, 0, 63, 0
2, 35808, Note_on_c, 0, 67, 78
2, 35875, Note_on_c, 0, 67, 0
2, 35880, Note_on_c, 0, 63, 78
2, 35892, Note_on_c, 0, 63, 0
2, 35892, Note_on_c, 0, 67, 78
2, 35904, Note_on_c, 0, 67, 0
2, 35904, Note_on_c, 0, 70, 78
2, 35924, Note_on_c, 0, 70, 0
2, 36048, Note_on_c, 0, 75, 64
2, 36082, Note_on_c, 0, 75, 0
2, 36084, Note_on_c, 0, 77, 64
2, 36090, Note_on_c, 0, 77, 0
2, 36090, Note_on_c, 0, 79, 64
2, 36096, Note_on_c, 0, 79, 0
2, 36096, Note_on_c, 0, 70, 64
2, 36116, Note_on_c, 0, 70, 0
2, 36144, Note_on_c, 0, 75, 64
2, 36178, Note_on_c, 0, 75, 0
2, 36180, Note_on_c, 0, 77, 64
2, 36186, Note_on_c, 0, 77, 0
2, 36186, Note_on_c, 0, 79, 64
2, 36192, Note_on_c, 0, 79, 0
2, 36192, Note_on_c, 0, 69, 64
2, 36237, Note_on_c, 0, 69, 0
2, 36240, Note_on_c, 0, 74, 64
2, 36255, Note_on_c, 0, 74, 0
2, 36276, Note_on_c, 0, 75, 64
2, 36282, Note_on_c, 0, 75, 0
2, 36282, Note_on_c, 0, 77, 64
2, 36288, Note_on_c, 0, 77, 0
2, 36288, Note_on_c, 0, 68, 64
2, 36421, Note_on_c, 0, 68, 0
2, 36432, Note_on_c, 0, 67, 64
2, 36477, Note_on_c, 0, 67, 0
2, 36480, Note_on_c, 0, 67, 64
2, 36514, Note_on_c, 0, 67, 0
2, 36516, Note_on_c, 0, 65, 64
2, 36528, Note_on_c, 0, 65, 0
2, 36528, Note_on_c, 0, 68, 64
2, 36562, Note_on_c, 0, 68, 0
2, 36564, Note_on_c, 0, 72, 64
2, 36576, Note_on_c, 0, 72, 0
2, 36576, Note_on_c, 0, 70, 64
2, 36621, Note_on_c, 0, 70, 0
2, 36624, Note_on_c, 0, 68, 64
2, 36624, Note_on_c, 0, 65, 64
2, 36669, Note_on_c, 0, 68, 0
2, 36669, Note_on_c, 0, 65, 0
2, 36672, Note_on_c, 0, 67, 64
2, 36680, Note_on_c, 0, 67, 0
2, 36680, Note_on_c, 0, 68, 64
2, 36688, Note_on_c, 0, 68, 0
2, 36688, Note_on_c, 0, 70, 64
2, 36696, Note_on_c, 0, 70, 0
2, 36696, Note_on_c, 0, 68, 64
2, 36719, Note_on_c, 0, 68, 0
2, 36720, Note_on_c, 0, 67, 64
2, 36740, Note_on_c, 0, 67, 0
2, 36816, Note_on_c, 0, 75, 64
2, 36850, Note_on_c, 0, 75, 0
2, 36852, Note_on_c, 0, 77, 64
2, 36858, Note_on_c, 0, 77, 0
2, 36858, Note_on_c, 0, 79, 64
2, 36864, Note_on_c, 0, 79, 0
2, 36864, Note_on_c, 0, 70, 64
2, 36884, Note_on_c, 0, 70, 0
2, 36912, Note_on_c, 0, 75, 64
2, 36946, Note_on_c, 0, 75, 0
2, 36948, Note_on_c, 0, 77, 64
2, 36954, Note_on_c, 0, 77, 0
2, 36954, Note_on_c, 0, 79, 64
2, 36960, Note_on_c, 0, 79, 0
2, 36960, Note_on_c, 0, 69, 64
2, 37005, Note_on_c, 0, 69, 0
2, 37008, Note_on_c, 0, 74, 64
2, 37023, Note_on_c, 0, 74, 0
2, 37044, Note_on_c, 0, 75, 64
2, 37050, Note_on_c, 0, 75, 0
2, 37050, Note_on_c, 0, 77, 64
2, 37056, Note_on_c, 0, 77, 0
2, 37056, Note_on_c, 0, 68, 64
2, 37189, Note_on_c, 0, 68, 0
2, 37200, Note_on_c, 0, 67, 64
2, 37245, Note_on_c, 0, 67, 0
2, 37248, Note_on_c, 0, 72, 64
2, 37381, Note_on_c, 0, 72, 0
2, 37392, Note_on_c, 0, 77, 64
2, 37437, Note_on_c, 0, 77, 0
2, 37440, Note_on_c, 0, 75, 64
2, 37581, Note_on_c, 0, 75, 0
2, 37584, Note_on_c, 0, 74, 64
2, 37596, Note_on_c, 0, 74, 0
2, 37596, Note_on_c, 0, 75, 64
2, 37608, Note_on_c, 0, 75, 0
2, 37608, Note_on_c, 0, 77, 64
2, 37620, Note_on_c, 0, 77, 0
2, 37620, Note_on_c, 0, 79, 64
2, 37632, Note_on_c, 0, 79, 0
2, 37632, Note_on_c, 0, 80, 64
2, 37652, Note_on_c, 0, 80, 0
2, 37680, Note_on_c, 0, 80, 64
2, 37692, Note_on_c, 0, 80, 0
2, 37692, Note_on_c, 0, 79, 64
2, 37704, Note_on_c, 0, 79, 0
2, 37704, Note_on_c, 0, 77, 64
2, 37716, Note_on_c, 0, 77, 0
2, 37716, Note_on_c, 0, 75, 64
2, 37728, Note_on_c, 0, 75, 0
2, 37728, Note_on_c, 0, 74, 58
2, 37748, Note_on_c, 0, 74, 0
2, 37776, Note_on_c, 0, 77, 58
2, 37788, Note_on_c, 0, 77, 0
2, 37788, Note_on_c, 0, 79, 58
2, 37800, Note_on_c, 0, 79, 0
2, 37800, Note_on_c, 0, 80, 58
2, 37812, Note_on_c, 0, 80, 0
2, 37812, Note_on_c, 0, 82, 58
2, 37824, Note_on_c, 0, 82, 0
2, 37824, Note_on_c, 0, 84, 58
2, 37844, Note_on_c, 0, 84, 0
2, 37872, Note_on_c, 0, 84, 58
2, 37884, Note_on_c, 0, 84, 0
2, 37884, Note_on_c, 0, 82, 58
2, 37896, Note_on_c, 0, 82, 0
2, 37896, Note_on_c, 0, 80, 58
2, 37908, Note_on_c, 0, 80, 0
2, 37908, Note_on_c, 0, 79, 58
2, 37920, Note_on_c, 0, 79, 0
2, 37920, Note_on_c, 0, 77, 58
2, 37940, Note_on_c, 0, 77, 0
2, 37968, Note_on_c, 0, 77, 58
2, 37980, Note_on_c, 0, 77, 0
2, 37980, Note_on_c, 0, 79, 58
2, 37992, Note_on_c, 0, 79, 0
2, 37992, Note_on_c, 0, 80, 58
2, 38004, Note_on_c, 0, 80, 0
2, 38004, Note_on_c, 0, 82, 58
2, 38016, Note_on_c, 0, 82, 0
2, 38016, Note_on_c, 0, 84, 58
2, 38061, Note_on_c, 0, 84, 0
2, 38400, Note_on_c, 0, 79, 85
2, 38412, Note_on_c, 0, 79, 0
2, 38412, Note_on_c, 0, 77, 85
2, 38424, Note_on_c, 0, 77, 0
2, 38424, Note_on_c, 0, 75, 85
2, 38436, Note_on_c, 0, 75, 0
2, 38436, Note_on_c, 0, 74, 85
2, 38448, Note_on_c, 0, 74, 0
2, 38448, Note_on_c, 0, 75, 85
2, 38460, Note_on_c, 0, 75, 0
2, 38460, Note_on_c, 0, 74, 85
2, 38472, Note_on_c, 0, 74, 0
2, 38472, Note_on_c, 0, 72, 85
2, 38484, Note_on_c, 0, 72, 0
2, 38484, Note_on_c, 0, 70, 85
2, 38496, Note_on_c, 0, 70, 0
2, 38496, Note_on_c, 0, 68, 85
2, 38508, Note_on_c, 0, 68, 0
2, 38508, Note_on_c, 0, 67, 85
2, 38520, Note_on_c, 0, 67, 0
2, 38520, Note_on_c, 0, 65, 85
2, 38532, Note_on_c, 0, 65, 0
2, 38532, Note_on_c, 0, 63, 85
2, 38544, Note_on_c, 0, 63, 0
2, 38544, Note_on_c, 0, 62, 85
2, 38556, Note_on_c, 0, 62, 0
2, 38556, Note_on_c, 0, 63, 85
2, 38568, Note_on_c, 0, 63, 0
2, 38568, Note_on_c, 0, 62, 85
2, 38580, Note_on_c, 0, 62, 0
2, 38580, Note_on_c, 0, 63, 85
2, 38592, Note_on_c, 0, 63, 0
2, 38592, Note_on_c, 0, 79, 85
2, 38604, Note_on_c, 0, 79, 0
2, 38604, Note_on_c, 0, 77, 85
2, 38616, Note_on_c, 0, 77, 0
2, 38616, Note_on_c, 0, 75, 85
2, 38628, Note_on_c, 0, 75, 0
2, 38628, Note_on_c, 0, 74, 85
2, 38640, Note_on_c, 0, 74, 0
2, 38640, Note_on_c, 0, 75, 85
2, 38652, Note_on_c, 0, 75, 0
2, 38652, Note_on_c, 0, 74, 85
2, 38664, Note_on_c, 0, 74, 0
2, 38664, Note_on_c, 0, 72, 85
2, 38676, Note_on_c, 0, 72, 0
2, 38676, Note_on_c, 0, 70, 85
2, 38688, Note_on_c, 0, 70, 0
2, 38688, Note_on_c, 0, 68, 85
2, 38700, Note_on_c, 0, 68, 0
2, 38700, Note_on_c, 0, 67, 85
2, 38712, Note_on_c, 0, 67, 0
2, 38712, Note_on_c, 0, 65, 85
2, 38724, Note_on_c, 0, 65, 0
2, 38724, Note_on_c, 0, 63, 85
2, 38736, Note_on_c, 0, 63, 0
2, 38736, Note_on_c, 0, 62, 85
2, 38748, Note_on_c, 0, 62, 0
2, 38748, Note_on_c, 0, 63, 85
2, 38760, Note_on_c, 0, 63, 0
2, 38760, Note_on_c, 0, 62, 85
2, 38772, Note_on_c, 0, 62, 0
2, 38772, Note_on_c, 0, 63, 85
2, 38784, Note_on_c, 0, 63, 0
2, 38784, Note_on_c, 0, 72, 85
2, 38796, Note_on_c, 0, 72, 0
2, 38796, Note_on_c, 0, 70, 85
2, 38808, Note_on_c, 0, 70, 0
2, 38808, Note_on_c, 0, 68, 85
2, 38820, Note_on_c, 0, 68, 0
2, 38820, Note_on_c, 0, 67, 85
2, 38832, Note_on_c, 0, 67, 0
2, 38832, Note_on_c, 0, 68, 85
2, 38844, Note_on_c, 0, 68, 0
2, 38844, Note_on_c, 0, 67, 85
2, 38856, Note_on_c, 0, 67, 0
2, 38856, Note_on_c, 0, 65, 85
2, 38868, Note_on_c, 0, 65, 0
2, 38868, Note_on_c, 0, 64, 85
2, 38880, Note_on_c, 0, 64, 0
2, 38880, Note_on_c, 0, 65, 85
2, 38892, Note_on_c, 0, 65, 0
2, 38892, Note_on_c, 0, 67, 85
2, 38904, Note_on_c, 0, 67, 0
2, 38904, Note_on_c, 0, 68, 85
2, 38916, Note_on_c, 0, 68, 0
2, 38916, Note_on_c, 0, 67, 85
2, 38928, Note_on_c, 0, 67, 0
2, 38928, Note_on_c, 0, 65, 85
2, 38940, Note_on_c, 0, 65, 0
2, 38940, Note_on_c, 0, 63, 85
2, 38952, Note_on_c, 0, 63, 0
2, 38952, Note_on_c, 0, 62, 85
2, 38964, Note_on_c, 0, 62, 0
2, 38964, Note_on_c, 0, 60, 85
2, 38976, Note_on_c, 0, 60, 0
2, 38976, Note_on_c, 0, 58, 85
2, 38999, Note_on_c, 0, 58, 0
2, 39000, Note_on_c, 0, 75, 85
2, 39023, Note_on_c, 0, 75, 0
2, 39024, Note_on_c, 0, 75, 85
2, 39047, Note_on_c, 0, 75, 0
2, 39048, Note_on_c, 0, 75, 85
2, 39071, Note_on_c, 0, 75, 0
2, 39072, Note_on_c, 0, 75, 85
2, 39084, Note_on_c, 0, 75, 0
2, 39084, Note_on_c, 0, 77, 85
2, 39096, Note_on_c, 0, 77, 0
2, 39096, Note_on_c, 0, 79, 85
2, 39108, Note_on_c, 0, 79, 0
2, 39108, Note_on_c, 0, 80, 85
2, 39120, Note_on_c, 0, 80, 0
2, 39120, Note_on_c, 0, 82, 85
2, 39143, Note_on_c, 0, 82, 0
2, 39168, Note_on_c, 0, 75, 85
2, 39177, Note_on_c, 0, 75, 0
2, 39177, Note_on_c, 0, 74, 85
2, 39186, Note_on_c, 0, 74, 0
2, 39186, Note_on_c, 0, 75, 85
2, 39195, Note_on_c, 0, 75, 0
2, 39195, Note_on_c, 0, 74, 85
2, 39204, Note_on_c, 0, 74, 0
2, 39204, Note_on_c, 0, 75, 85
2, 39213, Note_on_c, 0, 75, 0
2, 39213, Note_on_c, 0, 74, 85
2, 39222, Note_on_c, 0, 74, 0
2, 39222, Note_on_c, 0, 75, 85
2, 39231, Note_on_c, 0, 75, 0
2, 39231, Note_on_c, 0, 74, 85
2, 39240, Note_on_c, 0, 74, 0
2, 39240, Note_on_c, 0, 75, 85
2, 39249, Note_on_c, 0, 75, 0
2, 39249, Note_on_c, 0, 74, 85
2, 39258, Note_on_c, 0, 74, 0
2, 39258, Note_on_c, 0, 75, 85
2, 39267, Note_on_c, 0, 75, 0
2, 39267, Note_on_c, 0, 74, 85
2, 39276, Note_on_c, 0, 74, 0
2, 39276, Note_on_c, 0, 75, 85
2, 39285, Note_on_c, 0, 75, 0
2, 39285, Note_on_c, 0, 74, 85
2, 39294, Note_on_c, 0, 74, 0
2, 39294, Note_on_c, 0, 75, 85
2, 39303, Note_on_c, 0, 75, 0
2, 39303, Note_on_c, 0, 74, 85
2, 39312, Note_on_c, 0, 74, 0
2, 39312, Note_on_c, 0, 75, 85
2, 39320, Note_on_c, 0, 75, 0
2, 39320, Note_on_c, 0, 74, 85
2, 39328, Note_on_c, 0, 74, 0
2, 39328, Note_on_c, 0, 75, 85
2, 39336, Note_on_c, 0, 75, 0
2, 39336, Note_on_c, 0, 74, 85
2, 39344, Note_on_c, 0, 74, 0
2, 39344, Note_on_c, 0, 72, 85
2, 39352, Note_on_c, 0, 72, 0
2, 39352, Note_on_c, 0, 74, 85
2, 39360, Note_on_c, 0, 74, 0
2, 39360, Note_on_c, 0, 75, 85
2, 39405, Note_on_c, 0, 75, 0
2, 39408, Note_on_c, 0, 70, 85
2, 39408, Note_on_c, 0, 67, 85
2, 39428, Note_on_c, 0, 70, 0
2, 39428, Note_on_c, 0, 67, 0
2, 39456, Note_on_c, 0, 72, 85
2, 39456, Note_on_c, 0, 68, 85
2, 39476, Note_on_c, 0, 72, 0
2, 39476, Note_on_c, 0, 68, 0
2, 39504, Note_on_c, 0, 70, 85
2, 39516, Note_on_c, 0, 70, 0
2, 39516, Note_on_c, 0, 68, 85
2, 39528, Note_on_c, 0, 68, 0
2, 39528, Note_on_c, 0, 67, 85
2, 39540, Note_on_c, 0, 67, 0
2, 39540, Note_on_c, 0, 68, 85
2, 39552, Note_on_c, 0, 68, 0
2, 39552, Note_on_c, 0, 67, 85
2, 39597, Note_on_c, 0, 67, 0
2, 39600, Note_on_c, 0, 82, 85
2, 39600, Note_on_c, 0, 79, 85
2, 39600, Note_on_c, 0, 75, 85
2, 39620, Note_on_c, 0, 82, 0
2, 39620, Note_on_c, 0, 79, 0
2, 39620, Note_on_c, 0, 75, 0
2, 39648, Note_on_c, 0, 80, 85
2, 39648, Note_on_c, 0, 77, 85
2, 39648, Note_on_c, 0, 72, 85
2, 39668, Note_on_c, 0, 80, 0
2, 39668, Note_on_c, 0, 77, 0
2, 39668, Note_on_c, 0, 72, 0
2, 39696, Note_on_c, 0, 74, 85
2, 39696, Note_on_c, 0, 70, 85
2, 39696, Note_on_c, 0, 68, 85
2, 39696, Note_on_c, 0, 65, 85
2, 39716, Note_on_c, 0, 74, 0
2, 39716, Note_on_c, 0, 70, 0
2, 39716, Note_on_c, 0, 68, 0
2, 39716, Note_on_c, 0, 65, 0
2, 39744, Note_on_c, 0, 75, 85
2, 39744, Note_on_c, 0, 70, 85
2, 39744, Note_on_c, 0, 67, 85
2, 39783, Note_on_c, 0, 75, 0
2, 39783, Note_on_c, 0, 70, 0
2, 39783, Note_on_c, 0, 67, 0
2, 39936, Note_on_c, 0, 66, 78
2, 39942, Note_on_c, 0, 66, 0
2, 39942, Note_on_c, 0, 67, 78
2, 39981, Note_on_c, 0, 67, 0
2, 40560, Note_on_c, 0, 60, 78
2, 40572, Note_on_c, 0, 60, 0
2, 40572, Note_on_c, 0, 62, 78
2, 40584, Note_on_c, 0, 62, 0
2, 40584, Note_on_c, 0, 64, 78
2, 40596, Note_on_c, 0, 64, 0
2, 40596, Note_on_c, 0, 66, 78
2, 40608, Note_on_c, 0, 66, 0
2, 40608, Note_on_c, 0, 67, 78
2, 40631, Note_on_c, 0, 67, 0
2, 40632, Note_on_c, 0, 69, 78
2, 40644, Note_on_c, 0, 69, 0
2, 40644, Note_on_c, 0, 71, 78
2, 40656, Note_on_c, 0, 71, 0
2, 40656, Note_on_c, 0, 72, 78
2, 40668, Note_on_c, 0, 72, 0
2, 40668, Note_on_c, 0, 74, 78
2, 40680, Note_on_c, 0, 74, 0
2, 40680, Note_on_c, 0, 76, 78
2, 40692, Note_on_c, 0, 76, 0
2, 40692, Note_on_c, 0, 78, 78
2, 40704, Note_on_c, 0, 78, 0
2, 40704, Note_on_c, 0, 79, 78
2, 40724, Note_on_c, 0, 79, 0
2, 40752, Note_on_c, 0, 79, 78
2, 40772, Note_on_c, 0, 79, 0
2, 40800, Note_on_c, 0, 79, 78
2, 40820, Note_on_c, 0, 79, 0
2, 40848, Note_on_c, 0, 79, 78
2, 40868, Note_on_c, 0, 79, 0
2, 40896, Note_on_c, 0, 79, 78
2, 41073, Note_on_c, 0, 79, 0
2, 41088, Note_on_c, 0, 80, 78
2, 41088, Note_on_c, 0, 68, 78
2, 41177, Note_on_c, 0, 80, 0
2, 41177, Note_on_c, 0, 68, 0
2, 41184, Note_on_c, 0, 75, 78
2, 41251, Note_on_c, 0, 75, 0
2, 41256, Note_on_c, 0, 73, 78
2, 41279, Note_on_c, 0, 73, 0
2, 41280, Note_on_c, 0, 73, 78
2, 41376, Note_on_c, 0, 73, 0
2, 41376, Note_on_c, 0, 72, 78
2, 41388, Note_on_c, 0, 72, 0
2, 41388, Note_on_c, 0, 73, 78
2, 41400, Note_on_c, 0, 73, 0
2, 41400, Note_on_c, 0, 72, 78
2, 41423, Note_on_c, 0, 72, 0
2, 41424, Note_on_c, 0, 70, 78
2, 41469, Note_on_c, 0, 70, 0
2, 41472, Note_on_c, 0, 68, 78
2, 41517, Note_on_c, 0, 68, 0
2, 41520, Note_on_c, 0, 73, 78
2, 41565, Note_on_c, 0, 73, 0
2, 41568, Note_on_c, 0, 70, 78
2, 41613, Note_on_c, 0, 70, 0
2, 41616, Note_on_c, 0, 75, 78
2, 41661, Note_on_c, 0, 75, 0
2, 41664, Note_on_c, 0, 73, 78
2, 41760, Note_on_c, 0, 73, 0
2, 41760, Note_on_c, 0, 72, 78
2, 41772, Note_on_c, 0, 72, 0
2, 41772, Note_on_c, 0, 73, 78
2, 41784, Note_on_c, 0, 73, 0
2, 41784, Note_on_c, 0, 72, 78
2, 41807, Note_on_c, 0, 72, 0
2, 41808, Note_on_c, 0, 70, 78
2, 41853, Note_on_c, 0, 70, 0
2, 41856, Note_on_c, 0, 68, 78
2, 41879, Note_on_c, 0, 68, 0
2, 41880, Note_on_c, 0, 75, 78
2, 41903, Note_on_c, 0, 75, 0
2, 41904, Note_on_c, 0, 73, 78
2, 41927, Note_on_c, 0, 73, 0
2, 41928, Note_on_c, 0, 72, 78
2, 41951, Note_on_c, 0, 72, 0
2, 41952, Note_on_c, 0, 70, 78
2, 41975, Note_on_c, 0, 70, 0
2, 41976, Note_on_c, 0, 77, 78
2, 41999, Note_on_c, 0, 77, 0
2, 42000, Note_on_c, 0, 75, 78
2, 42023, Note_on_c, 0, 75, 0
2, 42024, Note_on_c, 0, 73, 78
2, 42047, Note_on_c, 0, 73, 0
2, 42048, Note_on_c, 0, 72, 78
2, 42060, Note_on_c, 0, 72, 0
2, 42060, Note_on_c, 0, 75, 78
2, 42072, Note_on_c, 0, 75, 0
2, 42072, Note_on_c, 0, 73, 78
2, 42139, Note_on_c, 0, 73, 0
2, 42144, Note_on_c, 0, 72, 78
2, 42189, Note_on_c, 0, 72, 0
2, 42192, Note_on_c, 0, 70, 78
2, 42237, Note_on_c, 0, 70, 0
2, 42240, Note_on_c, 0, 69, 78
2, 42263, Note_on_c, 0, 69, 0
2, 42264, Note_on_c, 0, 75, 78
2, 42287, Note_on_c, 0, 75, 0
2, 42288, Note_on_c, 0, 73, 78
2, 42311, Note_on_c, 0, 73, 0
2, 42312, Note_on_c, 0, 72, 78
2, 42335, Note_on_c, 0, 72, 0
2, 42336, Note_on_c, 0, 70, 78
2, 42359, Note_on_c, 0, 70, 0
2, 42360, Note_on_c, 0, 78, 78
2, 42383, Note_on_c, 0, 78, 0
2, 42384, Note_on_c, 0, 77, 78
2, 42407, Note_on_c, 0, 77, 0
2, 42408, Note_on_c, 0, 75, 78
2, 42431, Note_on_c, 0, 75, 0
2, 42432, Note_on_c, 0, 75, 78
2, 42528, Note_on_c, 0, 75, 0
2, 42528, Note_on_c, 0, 74, 78
2, 42617, Note_on_c, 0, 74, 0
2, 42624, Note_on_c, 0, 70, 78
2, 42647, Note_on_c, 0, 70, 0
2, 42648, Note_on_c, 0, 75, 78
2, 42671, Note_on_c, 0, 75, 0
2, 42672, Note_on_c, 0, 73, 78
2, 42695, Note_on_c, 0, 73, 0
2, 42696, Note_on_c, 0, 72, 78
2, 42719, Note_on_c, 0, 72, 0
2, 42720, Note_on_c, 0, 70, 78
2, 42743, Note_on_c, 0, 70, 0
2, 42744, Note_on_c, 0, 77, 78
2, 42767, Note_on_c, 0, 77, 0
2, 42768, Note_on_c, 0, 75, 78
2, 42791, Note_on_c, 0, 75, 0
2, 42792, Note_on_c, 0, 73, 78
2, 42815, Note_on_c, 0, 73, 0
2, 42816, Note_on_c, 0, 73, 78
2, 42912, Note_on_c, 0, 73, 0
2, 42912, Note_on_c, 0, 72, 78
2, 43001, Note_on_c, 0, 72, 0
2, 43008, Note_on_c, 0, 68, 78
2, 43031, Note_on_c, 0, 68, 0
2, 43032, Note_on_c, 0, 72, 78
2, 43055, Note_on_c, 0, 72, 0
2, 43056, Note_on_c, 0, 73, 78
2, 43079, Note_on_c, 0, 73, 0
2, 43080, Note_on_c, 0, 75, 78
2, 43103, Note_on_c, 0, 75, 0
2, 43104, Note_on_c, 0, 77, 78
2, 43127, Note_on_c, 0, 77, 0
2, 43128, Note_on_c, 0, 79, 78
2, 43151, Note_on_c, 0, 79, 0
2, 43152, Note_on_c, 0, 80, 78
2, 43175, Note_on_c, 0, 80, 0
2, 43176, Note_on_c, 0, 80, 78
2, 43199, Note_on_c, 0, 80, 0
2, 43200, Note_on_c, 0, 80, 78
2, 43319, Note_on_c, 0, 80, 0
2, 43320, Note_on_c, 0, 80, 78
2, 43343, Note_on_c, 0, 80, 0
2, 43344, Note_on_c, 0, 82, 78
2, 43367, Note_on_c, 0, 82, 0
2, 43368, Note_on_c, 0, 84, 78
2, 43391, Note_on_c, 0, 84, 0
2, 43392, Note_on_c, 0, 85, 78
2, 43415, Note_on_c, 0, 85, 0
2, 43416, Note_on_c, 0, 84, 78
2, 43439, Note_on_c, 0, 84, 0
2, 43440, Note_on_c, 0, 82, 78
2, 43463, Note_on_c, 0, 82, 0
2, 43464, Note_on_c, 0, 80, 78
2, 43487, Note_on_c, 0, 80, 0
2, 43488, Note_on_c, 0, 79, 78
2, 43511, Note_on_c, 0, 79, 0
2, 43512, Note_on_c, 0, 77, 78
2, 43535, Note_on_c, 0, 77, 0
2, 43536, Note_on_c, 0, 75, 78
2, 43559, Note_on_c, 0, 75, 0
2, 43560, Note_on_c, 0, 73, 78
2, 43583, Note_on_c, 0, 73, 0
2, 43584, Note_on_c, 0, 75, 78
2, 43629, Note_on_c, 0, 75, 0
2, 43632, Note_on_c, 0, 73, 78
2, 43644, Note_on_c, 0, 73, 0
2, 43644, Note_on_c, 0, 75, 78
2, 43656, Note_on_c, 0, 75, 0
2, 43656, Note_on_c, 0, 73, 78
2, 43677, Note_on_c, 0, 73, 0
2, 43680, Note_on_c, 0, 72, 78
2, 43703, Note_on_c, 0, 72, 0
2, 43704, Note_on_c, 0, 80, 78
2, 43727, Note_on_c, 0, 80, 0
2, 43728, Note_on_c, 0, 82, 78
2, 43751, Note_on_c, 0, 82, 0
2, 43752, Note_on_c, 0, 84, 78
2, 43775, Note_on_c, 0, 84, 0
2, 43776, Note_on_c, 0, 82, 78
2, 43799, Note_on_c, 0, 82, 0
2, 43800, Note_on_c, 0, 80, 78
2, 43823, Note_on_c, 0, 80, 0
2, 43824, Note_on_c, 0, 79, 78
2, 43847, Note_on_c, 0, 79, 0
2, 43848, Note_on_c, 0, 77, 78
2, 43871, Note_on_c, 0, 77, 0
2, 43872, Note_on_c, 0, 76, 78
2, 43895, Note_on_c, 0, 76, 0
2, 43896, Note_on_c, 0, 73, 78
2, 43919, Note_on_c, 0, 73, 0
2, 43920, Note_on_c, 0, 72, 78
2, 43943, Note_on_c, 0, 72, 0
2, 43944, Note_on_c, 0, 70, 78
2, 43967, Note_on_c, 0, 70, 0
2, 43968, Note_on_c, 0, 72, 78
2, 44013, Note_on_c, 0, 72, 0
2, 44016, Note_on_c, 0, 70, 78
2, 44028, Note_on_c, 0, 70, 0
2, 44028, Note_on_c, 0, 72, 78
2, 44040, Note_on_c, 0, 72, 0
2, 44040, Note_on_c, 0, 70, 78
2, 44061, Note_on_c, 0, 70, 0
2, 44064, Note_on_c, 0, 68, 78
2, 44087, Note_on_c, 0, 68, 0
2, 44088, Note_on_c, 0, 72, 78
2, 44111, Note_on_c, 0, 72, 0
2, 44112, Note_on_c, 0, 77, 78
2, 44135, Note_on_c, 0, 77, 0
2, 44136, Note_on_c, 0, 76, 78
2, 44159, Note_on_c, 0, 76, 0
2, 44160, Note_on_c, 0, 79, 78
2, 44183, Note_on_c, 0, 79, 0
2, 44184, Note_on_c, 0, 77, 78
2, 44207, Note_on_c, 0, 77, 0
2, 44208, Note_on_c, 0, 80, 78
2, 44231, Note_on_c, 0, 80, 0
2, 44232, Note_on_c, 0, 79, 78
2, 44255, Note_on_c, 0, 79, 0
2, 44256, Note_on_c, 0, 77, 78
2, 44279, Note_on_c, 0, 77, 0
2, 44280, Note_on_c, 0, 75, 78
2, 44303, Note_on_c, 0, 75, 0
2, 44304, Note_on_c, 0, 74, 78
2, 44327, Note_on_c, 0, 74, 0
2, 44328, Note_on_c, 0, 72, 78
2, 44351, Note_on_c, 0, 72, 0
2, 44352, Note_on_c, 0, 79, 78
2, 44441, Note_on_c, 0, 79, 0
2, 44448, Note_on_c, 0, 74, 78
2, 44515, Note_on_c, 0, 74, 0
2, 44520, Note_on_c, 0, 72, 78
2, 44543, Note_on_c, 0, 72, 0
2, 44544, Note_on_c, 0, 72, 78
2, 44633, Note_on_c, 0, 72, 0
2, 44640, Note_on_c, 0, 71, 78
2, 44652, Note_on_c, 0, 71, 0
2, 44652, Note_on_c, 0, 72, 78
2, 44664, Note_on_c, 0, 72, 0
2, 44664, Note_on_c, 0, 71, 78
2, 44729, Note_on_c, 0, 71, 0
2, 44736, Note_on_c, 0, 71, 78
2, 44744, Note_on_c, 0, 71, 0
2, 44744, Note_on_c, 0, 74, 78
2, 44752, Note_on_c, 0, 74, 0
2, 44752, Note_on_c, 0, 77, 78
2, 44760, Note_on_c, 0, 77, 0
2, 44760, Note_on_c, 0, 80, 78
2, 44827, Note_on_c, 0, 80, 0
2, 44832, Note_on_c, 0, 77, 78
2, 44899, Note_on_c, 0, 77, 0
2, 44904, Note_on_c, 0, 74, 78
2, 44927, Note_on_c, 0, 74, 0
2, 44928, Note_on_c, 0, 72, 78
2, 45017, Note_on_c, 0, 72, 0
2, 45024, Note_on_c, 0, 71, 78
2, 45036, Note_on_c, 0, 71, 0
2, 45036, Note_on_c, 0, 72, 78
2, 45048, Note_on_c, 0, 72, 0
2, 45048, Note_on_c, 0, 71, 78
2, 45113, Note_on_c, 0, 71, 0
2, 45120, Note_on_c, 0, 79, 78
2, 45187, Note_on_c, 0, 79, 0
2, 45192, Note_on_c, 0, 75, 78
2, 45215, Note_on_c, 0, 75, 0
2, 45216, Note_on_c, 0, 72, 64
2, 45261, Note_on_c, 0, 72, 0
2, 45264, Note_on_c, 0, 72, 64
2, 45309, Note_on_c, 0, 72, 0
2, 45312, Note_on_c, 0, 74, 64
2, 45335, Note_on_c, 0, 74, 0
2, 45336, Note_on_c, 0, 75, 64
2, 45359, Note_on_c, 0, 75, 0
2, 45360, Note_on_c, 0, 77, 64
2, 45383, Note_on_c, 0, 77, 0
2, 45384, Note_on_c, 0, 71, 64
2, 45407, Note_on_c, 0, 71, 0
2, 45408, Note_on_c, 0, 72, 64
2, 45453, Note_on_c, 0, 72, 0
2, 45456, Note_on_c, 0, 72, 64
2, 45501, Note_on_c, 0, 72, 0
2, 45504, Note_on_c, 0, 74, 64
2, 45527, Note_on_c, 0, 74, 0
2, 45528, Note_on_c, 0, 75, 65
2, 45551, Note_on_c, 0, 75, 0
2, 45552, Note_on_c, 0, 77, 66
2, 45575, Note_on_c, 0, 77, 0
2, 45576, Note_on_c, 0, 71, 67
2, 45599, Note_on_c, 0, 71, 0
2, 45600, Note_on_c, 0, 72, 68
2, 45623, Note_on_c, 0, 72, 0
2, 45624, Note_on_c, 0, 74, 70
2, 45647, Note_on_c, 0, 74, 0
2, 45648, Note_on_c, 0, 75, 71
2, 45671, Note_on_c, 0, 75, 0
2, 45672, Note_on_c, 0, 72, 72
2, 45695, Note_on_c, 0, 72, 0
2, 45696, Note_on_c, 0, 74, 73
2, 45719, Note_on_c, 0, 74, 0
2, 45720, Note_on_c, 0, 75, 75
2, 45743, Note_on_c, 0, 75, 0
2, 45744, Note_on_c, 0, 77, 76
2, 45767, Note_on_c, 0, 77, 0
2, 45768, Note_on_c, 0, 71, 77
2, 45791, Note_on_c, 0, 71, 0
2, 45792, Note_on_c, 0, 72, 78
2, 45815, Note_on_c, 0, 72, 0
2, 45816, Note_on_c, 0, 74, 80
2, 45839, Note_on_c, 0, 74, 0
2, 45840, Note_on_c, 0, 75, 81
2, 45863, Note_on_c, 0, 75, 0
2, 45864, Note_on_c, 0, 72, 82
2, 45887, Note_on_c, 0, 72, 0
2, 45888, Note_on_c, 0, 74, 83
2, 45911, Note_on_c, 0, 74, 0
2, 45912, Note_on_c, 0, 75, 85
2, 45935, Note_on_c, 0, 75, 0
2, 45936, Note_on_c, 0, 77, 85
2, 45959, Note_on_c, 0, 77, 0
2, 45960, Note_on_c, 0, 71, 85
2, 45983, Note_on_c, 0, 71, 0
2, 45984, Note_on_c, 0, 72, 85
2, 46029, Note_on_c, 0, 72, 0
2, 46032, Note_on_c, 0, 79, 85
2, 46077, Note_on_c, 0, 79, 0
2, 46080, Note_on_c, 0, 78, 85
2, 46169, Note_on_c, 0, 78, 0
2, 46176, Note_on_c, 0, 77, 85
2, 46199, Note_on_c, 0, 77, 0
2, 46200, Note_on_c, 0, 79, 85
2, 46223, Note_on_c, 0, 79, 0
2, 46224, Note_on_c, 0, 80, 85
2, 46247, Note_on_c, 0, 80, 0
2, 46248, Note_on_c, 0, 77, 85
2, 46271, Note_on_c, 0, 77, 0
2, 46272, Note_on_c, 0, 75, 85
2, 46295, Note_on_c, 0, 75, 0
2, 46296, Note_on_c, 0, 77, 85
2, 46319, Note_on_c, 0, 77, 0
2, 46320, Note_on_c, 0, 79, 85
2, 46343, Note_on_c, 0, 79, 0
2, 46344, Note_on_c, 0, 75, 85
2, 46367, Note_on_c, 0, 75, 0
2, 46368, Note_on_c, 0, 84, 85
2, 46457, Note_on_c, 0, 84, 0
2, 46512, Note_on_c, 0, 79, 85
2, 46524, Note_on_c, 0, 79, 0
2, 46524, Note_on_c, 0, 82, 85
2, 46536, Note_on_c, 0, 82, 0
2, 46536, Note_on_c, 0, 80, 85
2, 46546, Note_on_c, 0, 80, 0
2, 46560, Note_on_c, 0, 76, 85
2, 46572, Note_on_c, 0, 76, 0
2, 46572, Note_on_c, 0, 79, 85
2, 46584, Note_on_c, 0, 79, 0
2, 46584, Note_on_c, 0, 77, 85
2, 46594, Note_on_c, 0, 77, 0
2, 46608, Note_on_c, 0, 73, 85
2, 46620, Note_on_c, 0, 73, 0
2, 46620, Note_on_c, 0, 75, 85
2, 46632, Note_on_c, 0, 75, 0
2, 46632, Note_on_c, 0, 74, 85
2, 46642, Note_on_c, 0, 74, 0
2, 46656, Note_on_c, 0, 67, 85
2, 46750, Note_on_c, 0, 67, 0
2, 46752, Note_on_c, 0, 75, 85
2, 46762, Note_on_c, 0, 75, 0
2, 46762, Note_on_c, 0, 74, 85
2, 46772, Note_on_c, 0, 74, 0
2, 46772, Note_on_c, 0, 75, 85
2, 46782, Note_on_c, 0, 75, 0
2, 46782, Note_on_c, 0, 74, 85
2, 46792, Note_on_c, 0, 74, 0
2, 46792, Note_on_c, 0, 75, 85
2, 46802, Note_on_c, 0, 75, 0
2, 46802, Note_on_c, 0, 74, 85
2, 46812, Note_on_c, 0, 74, 0
2, 46812, Note_on_c, 0, 75, 85
2, 46821, Note_on_c, 0, 75, 0
2, 46821, Note_on_c, 0, 74, 85
2, 46830, Note_on_c, 0, 74, 0
2, 46830, Note_on_c, 0, 72, 85
2, 46839, Note_on_c, 0, 72, 0
2, 46839, Note_on_c, 0, 74, 85
2, 46848, Note_on_c, 0, 74, 0
2, 46896, Note_on_c, 0, 86, 85
2, 46908, Note_on_c, 0, 86, 0
2, 46908, Note_on_c, 0, 89, 85
2, 46920, Note_on_c, 0, 89, 0
2, 46920, Note_on_c, 0, 87, 85
2, 46930, Note_on_c, 0, 87, 0
2, 46944, Note_on_c, 0, 83, 85
2, 46956, Note_on_c, 0, 83, 0
2, 46956, Note_on_c, 0, 86, 85
2, 46968, Note_on_c, 0, 86, 0
2, 46968, Note_on_c, 0, 84, 85
2, 46978, Note_on_c, 0, 84, 0
2, 46992, Note_on_c, 0, 79, 85
2, 47004, Note_on_c, 0, 79, 0
2, 47004, Note_on_c, 0, 82, 85
2, 47016, Note_on_c, 0, 82, 0
2, 47016, Note_on_c, 0, 80, 85
2, 47026, Note_on_c, 0, 80, 0
2, 47040, Note_on_c, 0, 79, 85
2, 47055, Note_on_c, 0, 79, 0
2, 47056, Note_on_c, 0, 75, 85
2, 47071, Note_on_c, 0, 75, 0
2, 47072, Note_on_c, 0, 72, 85
2, 47087, Note_on_c, 0, 72, 0
2, 47088, Note_on_c, 0, 80, 85
2, 47103, Note_on_c, 0, 80, 0
2, 47104, Note_on_c, 0, 77, 85
2, 47119, Note_on_c, 0, 77, 0
2, 47120, Note_on_c, 0, 74, 85
2, 47135, Note_on_c, 0, 74, 0
2, 47136, Note_on_c, 0, 75, 85
2, 47146, Note_on_c, 0, 75, 0
2, 47146, Note_on_c, 0, 74, 85
2, 47156, Note_on_c, 0, 74, 0
2, 47156, Note_on_c, 0, 75, 85
2, 47166, Note_on_c, 0, 75, 0
2, 47166, Note_on_c, 0, 74, 85
2, 47176, Note_on_c, 0, 74, 0
2, 47176, Note_on_c, 0, 75, 85
2, 47186, Note_on_c, 0, 75, 0
2, 47186, Note_on_c, 0, 74, 85
2, 47196, Note_on_c, 0, 74, 0
2, 47196, Note_on_c, 0, 75, 85
2, 47205, Note_on_c, 0, 75, 0
2, 47205, Note_on_c, 0, 74, 85
2, 47214, Note_on_c, 0, 74, 0
2, 47214, Note_on_c, 0, 72, 85
2, 47223, Note_on_c, 0, 72, 0
2, 47223, Note_on_c, 0, 74, 85
2, 47232, Note_on_c, 0, 74, 0
2, 47232, Note_on_c, 0, 72, 85
2, 47321, Note_on_c, 0, 72, 0
2, 47328, Note_on_c, 0, 67, 85
2, 47395, Note_on_c, 0, 67, 0
2, 47400, Note_on_c, 0, 65, 85
2, 47423, Note_on_c, 0, 65, 0
2, 47424, Note_on_c, 0, 65, 85
2, 47520, Note_on_c, 0, 65, 0
2, 47520, Note_on_c, 0, 63, 85
2, 47526, Note_on_c, 0, 63, 0
2, 47526, Note_on_c, 0, 65, 85
2, 47532, Note_on_c, 0, 65, 0
2, 47532, Note_on_c, 0, 63, 85
2, 47543, Note_on_c, 0, 63, 0
2, 47544, Note_on_c, 0, 65, 85
2, 47556, Note_on_c, 0, 65, 0
2, 47556, Note_on_c, 0, 67, 85
2, 47568, Note_on_c, 0, 67, 0
2, 47568, Note_on_c, 0, 68, 85
2, 47580, Note_on_c, 0, 68, 0
2, 47580, Note_on_c, 0, 70, 85
2, 47592, Note_on_c, 0, 70, 0
2, 47592, Note_on_c, 0, 72, 85
2, 47604, Note_on_c, 0, 72, 0
2, 47604, Note_on_c, 0, 74, 85
2, 47616, Note_on_c, 0, 74, 0
2, 47616, Note_on_c, 0, 75, 85
2, 47705, Note_on_c, 0, 75, 0
2, 47712, Note_on_c, 0, 70, 85
2, 47779, Note_on_c, 0, 70, 0
2, 47784, Note_on_c, 0, 68, 80
2, 47807, Note_on_c, 0, 68, 0
2, 47808, Note_on_c, 0, 68, 79
2, 47904, Note_on_c, 0, 68, 0
2, 47904, Note_on_c, 0, 67, 73
2, 47916, Note_on_c, 0, 67, 0
2, 47916, Note_on_c, 0, 68, 73
2, 47928, Note_on_c, 0, 68, 0
2, 47928, Note_on_c, 0, 67, 73
2, 47949, Note_on_c, 0, 67, 0
2, 47952, Note_on_c, 0, 65, 70
2, 47997, Note_on_c, 0, 65, 0
2, 48000, Note_on_c, 0, 63, 67
2, 48048, Note_on_c, 0, 63, 0
2, 48048, Note_on_c, 0, 68, 64
2, 48093, Note_on_c, 0, 68, 0
2, 48096, Note_on_c, 0, 65, 64
2, 48144, Note_on_c, 0, 65, 0
2, 48144, Note_on_c, 0, 70, 64
2, 48189, Note_on_c, 0, 70, 0
2, 48192, Note_on_c, 0, 68, 64
2, 48288, Note_on_c, 0, 68, 0
2, 48288, Note_on_c, 0, 67, 64
2, 48300, Note_on_c, 0, 67, 0
2, 48300, Note_on_c, 0, 68, 64
2, 48312, Note_on_c, 0, 68, 0
2, 48312, Note_on_c, 0, 67, 64
2, 48333, Note_on_c, 0, 67, 0
2, 48336, Note_on_c, 0, 65, 64
2, 48381, Note_on_c, 0, 65, 0
2, 48384, Note_on_c, 0, 63, 64
2, 48418, Note_on_c, 0, 63, 0
2, 48420, Note_on_c, 0, 68, 64
2, 48432, Note_on_c, 0, 68, 0
2, 48432, Note_on_c, 0, 68, 64
2, 48444, Note_on_c, 0, 68, 0
2, 48444, Note_on_c, 0, 70, 64
2, 48456, Note_on_c, 0, 70, 0
2, 48456, Note_on_c, 0, 68, 64
2, 48477, Note_on_c, 0, 68, 0
2, 48480, Note_on_c, 0, 65, 64
2, 48514, Note_on_c, 0, 65, 0
2, 48516, Note_on_c, 0, 70, 64
2, 48528, Note_on_c, 0, 70, 0
2, 48528, Note_on_c, 0, 70, 64
2, 48540, Note_on_c, 0, 70, 0
2, 48540, Note_on_c, 0, 72, 64
2, 48552, Note_on_c, 0, 72, 0
2, 48552, Note_on_c, 0, 70, 64
2, 48573, Note_on_c, 0, 70, 0
2, 48576, Note_on_c, 0, 68, 64
2, 48624, Note_on_c, 0, 68, 0
2, 48624, Note_on_c, 0, 67, 64
2, 48658, Note_on_c, 0, 67, 0
2, 48660, Note_on_c, 0, 79, 64
2, 48672, Note_on_c, 0, 79, 0
2, 48672, Note_on_c, 0, 75, 64
2, 48692, Note_on_c, 0, 75, 0
2, 48756, Note_on_c, 0, 75, 64
2, 48768, Note_on_c, 0, 75, 0
2, 48768, Note_on_c, 0, 72, 64
2, 48788, Note_on_c, 0, 72, 0
2, 48852, Note_on_c, 0, 72, 64
2, 48864, Note_on_c, 0, 72, 0
2, 48864, Note_on_c, 0, 70, 64
2, 48898, Note_on_c, 0, 70, 0
2, 48900, Note_on_c, 0, 68, 64
2, 48912, Note_on_c, 0, 68, 0
2, 48912, Note_on_c, 0, 65, 64
2, 48946, Note_on_c, 0, 65, 0
2, 48948, Note_on_c, 0, 62, 64
2, 48960, Note_on_c, 0, 62, 0
2, 48960, Note_on_c, 0, 63, 64
2, 49005, Note_on_c, 0, 63, 0
2, 49032, Note_on_c, 0, 79, 64
2, 49042, Note_on_c, 0, 79, 0
2, 49056, Note_on_c, 0, 74, 64
2, 49068, Note_on_c, 0, 74, 0
2, 49068, Note_on_c, 0, 77, 64
2, 49080, Note_on_c, 0, 77, 0
2, 49080, Note_on_c, 0, 75, 65
2, 49103, Note_on_c, 0, 75, 0
2, 49128, Note_on_c, 0, 75, 66
2, 49138, Note_on_c, 0, 75, 0
2, 49152, Note_on_c, 0, 71, 66
2, 49164, Note_on_c, 0, 71, 0
2, 49164, Note_on_c, 0, 74, 67
2, 49176, Note_on_c, 0, 74, 0
2, 49176, Note_on_c, 0, 72, 67
2, 49199, Note_on_c, 0, 72, 0
2, 49224, Note_on_c, 0, 80, 68
2, 49234, Note_on_c, 0, 80, 0
2, 49248, Note_on_c, 0, 76, 69
2, 49260, Note_on_c, 0, 76, 0
2, 49260, Note_on_c, 0, 79, 69
2, 49272, Note_on_c, 0, 79, 0
2, 49272, Note_on_c, 0, 77, 69
2, 49295, Note_on_c, 0, 77, 0
2, 49320, Note_on_c, 0, 75, 70
2, 49330, Note_on_c, 0, 75, 0
2, 49344, Note_on_c, 0, 73, 71
2, 49356, Note_on_c, 0, 73, 0
2, 49356, Note_on_c, 0, 75, 71
2, 49368, Note_on_c, 0, 75, 0
2, 49368, Note_on_c, 0, 74, 71
2, 49391, Note_on_c, 0, 74, 0
2, 49416, Note_on_c, 0, 82, 73
2, 49426, Note_on_c, 0, 82, 0
2, 49440, Note_on_c, 0, 81, 73
2, 49452, Note_on_c, 0, 81, 0
2, 49452, Note_on_c, 0, 84, 73
2, 49464, Note_on_c, 0, 84, 0
2, 49464, Note_on_c, 0, 82, 74
2, 49487, Note_on_c, 0, 82, 0
2, 49512, Note_on_c, 0, 82, 75
2, 49522, Note_on_c, 0, 82, 0
2, 49536, Note_on_c, 0, 81, 75
2, 49548, Note_on_c, 0, 81, 0
2, 49548, Note_on_c, 0, 84, 76
2, 49560, Note_on_c, 0, 84, 0
2, 49560, Note_on_c, 0, 82, 76
2, 49583, Note_on_c, 0, 82, 0
2, 49608, Note_on_c, 0, 82, 77
2, 49618, Note_on_c, 0, 82, 0
2, 49632, Note_on_c, 0, 81, 78
2, 49644, Note_on_c, 0, 81, 0
2, 49644, Note_on_c, 0, 84, 78
2, 49656, Note_on_c, 0, 84, 0
2, 49656, Note_on_c, 0, 82, 78
2, 49679, Note_on_c, 0, 82, 0
2, 49704, Note_on_c, 0, 82, 79
2, 49714, Note_on_c, 0, 82, 0
2, 49728, Note_on_c, 0, 79, 80
2, 49740, Note_on_c, 0, 79, 0
2, 49740, Note_on_c, 0, 82, 80
2, 49752, Note_on_c, 0, 82, 0
2, 49752, Note_on_c, 0, 80, 80
2, 49775, Note_on_c, 0, 80, 0
2, 49800, Note_on_c, 0, 80, 82
2, 49810, Note_on_c, 0, 80, 0
2, 49824, Note_on_c, 0, 79, 82
2, 49836, Note_on_c, 0, 79, 0
2, 49836, Note_on_c, 0, 82, 82
2, 49848, Note_on_c, 0, 82, 0
2, 49848, Note_on_c, 0, 80, 83
2, 49871, Note_on_c, 0, 80, 0
2, 49896, Note_on_c, 0, 80, 84
2, 49906, Note_on_c, 0, 80, 0
2, 49920, Note_on_c, 0, 87, 84
2, 49932, Note_on_c, 0, 87, 0
2, 49932, Note_on_c, 0, 86, 85
2, 49944, Note_on_c, 0, 86, 0
2, 49944, Note_on_c, 0, 89, 85
2, 49967, Note_on_c, 0, 89, 0
2, 49992, Note_on_c, 0, 80, 86
2, 50002, Note_on_c, 0, 80, 0
2, 50016, Note_on_c, 0, 87, 87
2, 50028, Note_on_c, 0, 87, 0
2, 50028, Note_on_c, 0, 86, 87
2, 50040, Note_on_c, 0, 86, 0
2, 50040, Note_on_c, 0, 89, 87
2, 50063, Note_on_c, 0, 89, 0
2, 50088, Note_on_c, 0, 80, 88
2, 50098, Note_on_c, 0, 80, 0
2, 50112, Note_on_c, 0, 87, 89
2, 50124, Note_on_c, 0, 87, 0
2, 50124, Note_on_c, 0, 86, 89
2, 50136, Note_on_c, 0, 86, 0
2, 50136, Note_on_c, 0, 89, 89
2, 50159, Note_on_c, 0, 89, 0
2, 50184, Note_on_c, 0, 80, 91
2, 50194, Note_on_c, 0, 80, 0
2, 50208, Note_on_c, 0, 87, 91
2, 50223, Note_on_c, 0, 87, 0
2, 50224, Note_on_c, 0, 86, 91
2, 50239, Note_on_c, 0, 86, 0
2, 50240, Note_on_c, 0, 89, 91
2, 50255, Note_on_c, 0, 89, 0
2, 50256, Note_on_c, 0, 87, 91
2, 50271, Note_on_c, 0, 87, 0
2, 50272, Note_on_c, 0, 86, 91
2, 50287, Note_on_c, 0, 86, 0
2, 50288, Note_on_c, 0, 84, 91
2, 50303, Note_on_c, 0, 84, 0
2, 50304, Note_on_c, 0, 82, 91
2, 50319, Note_on_c, 0, 82, 0
2, 50320, Note_on_c, 0, 80, 91
2, 50335, Note_on_c, 0, 80, 0
2, 50336, Note_on_c, 0, 79, 91
2, 50351, Note_on_c, 0, 79, 0
2, 50352, Note_on_c, 0, 82, 91
2, 50367, Note_on_c, 0, 82, 0
2, 50368, Note_on_c, 0, 80, 91
2, 50383, Note_on_c, 0, 80, 0
2, 50384, Note_on_c, 0, 84, 91
2, 50399, Note_on_c, 0, 84, 0
2, 50400, Note_on_c, 0, 82, 91
2, 50412, Note_on_c, 0, 82, 0
2, 50412, Note_on_c, 0, 80, 90
2, 50424, Note_on_c, 0, 80, 0
2, 50424, Note_on_c, 0, 79, 89
2, 50436, Note_on_c, 0, 79, 0
2, 50436, Note_on_c, 0, 77, 88
2, 50448, Note_on_c, 0, 77, 0
2, 50448, Note_on_c, 0, 75, 87
2, 50460, Note_on_c, 0, 75, 0
2, 50460, Note_on_c, 0, 74, 86
2, 50472, Note_on_c, 0, 74, 0
2, 50472, Note_on_c, 0, 72, 86
2, 50484, Note_on_c, 0, 72, 0
2, 50484, Note_on_c, 0, 70, 85
2, 50496, Note_on_c, 0, 70, 0
2, 50496, Note_on_c, 0, 68, 84
2, 50615, Note_on_c, 0, 68, 0
2, 50616, Note_on_c, 0, 67, 78
2, 50628, Note_on_c, 0, 67, 0
2, 50628, Note_on_c, 0, 68, 78
2, 50640, Note_on_c, 0, 68, 0
2, 50640, Note_on_c, 0, 70, 78
2, 50652, Note_on_c, 0, 70, 0
2, 50652, Note_on_c, 0, 68, 78
2, 50664, Note_on_c, 0, 68, 0
2, 50664, Note_on_c, 0, 67, 78
2, 50676, Note_on_c, 0, 67, 0
2, 50676, Note_on_c, 0, 65, 78
2, 50688, Note_on_c, 0, 65, 0
2, 50688, Note_on_c, 0, 63, 78
2, 50733, Note_on_c, 0, 63, 0
2, 50736, Note_on_c, 0, 63, 78
2, 50781, Note_on_c, 0, 63, 0
2, 50784, Note_on_c, 0, 63, 78
2, 50829, Note_on_c, 0, 63, 0
2, 50832, Note_on_c, 0, 63, 78
2, 50877, Note_on_c, 0, 63, 0
2, 50880, Note_on_c, 0, 63, 78
2, 50925, Note_on_c, 0, 63, 0
2, 50928, Note_on_c, 0, 63, 78
2, 50962, Note_on_c, 0, 63, 0
2, 50964, Note_on_c, 0, 63, 78
2, 50976, Note_on_c, 0, 63, 0
2, 50976, Note_on_c, 0, 63, 78
2, 51010, Note_on_c, 0, 63, 0
2, 51012, Note_on_c, 0, 63, 78
2, 51024, Note_on_c, 0, 63, 0
2, 51024, Note_on_c, 0, 63, 78
2, 51058, Note_on_c, 0, 63, 0
2, 51060, Note_on_c, 0, 63, 78
2, 51072, Note_on_c, 0, 63, 0
2, 51072, Note_on_c, 0, 63, 78
2, 51117, Note_on_c, 0, 63, 0
2, 51120, Note_on_c, 0, 65, 78
2, 51120, Note_on_c, 0, 63, 78
2, 51154, Note_on_c, 0, 65, 0
2, 51154, Note_on_c, 0, 63, 0
2, 51156, Note_on_c, 0, 65, 78
2, 51156, Note_on_c, 0, 63, 78
2, 51168, Note_on_c, 0, 65, 0
2, 51168, Note_on_c, 0, 63, 0
2, 51168, Note_on_c, 0, 65, 78
2, 51168, Note_on_c, 0, 63, 78
2, 51202, Note_on_c, 0, 65, 0
2, 51202, Note_on_c, 0, 63, 0
2, 51204, Note_on_c, 0, 65, 78
2, 51204, Note_on_c, 0, 63, 78
2, 51216, Note_on_c, 0, 65, 0
2, 51216, Note_on_c, 0, 63, 0
2, 51216, Note_on_c, 0, 65, 78
2, 51216, Note_on_c, 0, 63, 78
2, 51250, Note_on_c, 0, 65, 0
2, 51250, Note_on_c, 0, 63, 0
2, 51252, Note_on_c, 0, 65, 78
2, 51252, Note_on_c, 0, 63, 78
2, 51264, Note_on_c, 0, 65, 0
2, 51264, Note_on_c, 0, 63, 0
2, 51264, Note_on_c, 0, 65, 78
2, 51264, Note_on_c, 0, 62, 78
2, 51309, Note_on_c, 0, 65, 0
2, 51309, Note_on_c, 0, 62, 0
2, 51312, Note_on_c, 0, 70, 78
2, 51312, Note_on_c, 0, 62, 78
2, 51346, Note_on_c, 0, 70, 0
2, 51346, Note_on_c, 0, 62, 0
2, 51348, Note_on_c, 0, 70, 78
2, 51348, Note_on_c, 0, 62, 78
2, 51360, Note_on_c, 0, 70, 0
2, 51360, Note_on_c, 0, 62, 0
2, 51360, Note_on_c, 0, 70, 78
2, 51360, Note_on_c, 0, 63, 78
2, 51394, Note_on_c, 0, 70, 0
2, 51394, Note_on_c, 0, 63, 0
2, 51396, Note_on_c, 0, 70, 78
2, 51396, Note_on_c, 0, 63, 78
2, 51408, Note_on_c, 0, 70, 0
2, 51408, Note_on_c, 0, 63, 0
2, 51408, Note_on_c, 0, 68, 78
2, 51408, Note_on_c, 0, 65, 78
2, 51442, Note_on_c, 0, 68, 0
2, 51442, Note_on_c, 0, 65, 0
2, 51444, Note_on_c, 0, 68, 78
2, 51444, Note_on_c, 0, 65, 78
2, 51456, Note_on_c, 0, 68, 0
2, 51456, Note_on_c, 0, 65, 0
2, 51456, Note_on_c, 0, 67, 78
2, 51468, Note_on_c, 0, 67, 0
2, 51468, Note_on_c, 0, 70, 78
2, 51480, Note_on_c, 0, 70, 0
2, 51480, Note_on_c, 0, 68, 78
2, 51492, Note_on_c, 0, 68, 0
2, 51492, Note_on_c, 0, 67, 78
2, 51504, Note_on_c, 0, 67, 0
2, 51504, Note_on_c, 0, 68, 78
2, 51516, Note_on_c, 0, 68, 0
2, 51516, Note_on_c, 0, 70, 78
2, 51528, Note_on_c, 0, 70, 0
2, 51528, Note_on_c, 0, 72, 78
2, 51540, Note_on_c, 0, 72, 0
2, 51540, Note_on_c, 0, 74, 78
2, 51552, Note_on_c, 0, 74, 0
2, 51552, Note_on_c, 0, 75, 78
2, 51564, Note_on_c, 0, 75, 0
2, 51564, Note_on_c, 0, 77, 78
2, 51576, Note_on_c, 0, 77, 0
2, 51576, Note_on_c, 0, 79, 78
2, 51588, Note_on_c, 0, 79, 0
2, 51588, Note_on_c, 0, 80, 78
2, 51600, Note_on_c, 0, 80, 0
2, 51600, Note_on_c, 0, 82, 78
2, 51612, Note_on_c, 0, 82, 0
2, 51612, Note_on_c, 0, 80, 78
2, 51624, Note_on_c, 0, 80, 0
2, 51624, Note_on_c, 0, 79, 78
2, 51636, Note_on_c, 0, 79, 0
2, 51636, Note_on_c, 0, 77, 78
2, 51648, Note_on_c, 0, 77, 0
2, 51648, Note_on_c, 0, 75, 78
2, 51660, Note_on_c, 0, 75, 0
2, 51660, Note_on_c, 0, 74, 78
2, 51672, Note_on_c, 0, 74, 0
2, 51672, Note_on_c, 0, 72, 78
2, 51684, Note_on_c, 0, 72, 0
2, 51684, Note_on_c, 0, 70, 78
2, 51696, Note_on_c, 0, 70, 0
2, 51696, Note_on_c, 0, 72, 78
2, 51708, Note_on_c, 0, 72, 0
2, 51708, Note_on_c, 0, 74, 78
2, 51720, Note_on_c, 0, 74, 0
2, 51720, Note_on_c, 0, 75, 78
2, 51732, Note_on_c, 0, 75, 0
2, 51732, Note_on_c, 0, 77, 78
2, 51744, Note_on_c, 0, 77, 0
2, 51744, Note_on_c, 0, 79, 78
2, 51756, Note_on_c, 0, 79, 0
2, 51756, Note_on_c, 0, 77, 78
2, 51768, Note_on_c, 0, 77, 0
2, 51768, Note_on_c, 0, 75, 78
2, 51780, Note_on_c, 0, 75, 0
2, 51780, Note_on_c, 0, 74, 78
2, 51792, Note_on_c, 0, 74, 0
2, 51792, Note_on_c, 0, 72, 78
2, 51804, Note_on_c, 0, 72, 0
2, 51804, Note_on_c, 0, 70, 78
2, 51816, Note_on_c, 0, 70, 0
2, 51816, Note_on_c, 0, 68, 78
2, 51828, Note_on_c, 0, 68, 0
2, 51828, Note_on_c, 0, 67, 78
2, 51840, Note_on_c, 0, 67, 0
2, 51840, Note_on_c, 0, 65, 78
2, 51852, Note_on_c, 0, 65, 0
2, 51852, Note_on_c, 0, 67, 78
2, 51864, Note_on_c, 0, 67, 0
2, 51864, Note_on_c, 0, 68, 78
2, 51876, Note_on_c, 0, 68, 0
2, 51876, Note_on_c, 0, 70, 78
2, 51888, Note_on_c, 0, 70, 0
2, 51888, Note_on_c, 0, 72, 78
2, 51900, Note_on_c, 0, 72, 0
2, 51900, Note_on_c, 0, 70, 78
2, 51912, Note_on_c, 0, 70, 0
2, 51912, Note_on_c, 0, 68, 78
2, 51924, Note_on_c, 0, 68, 0
2, 51924, Note_on_c, 0, 67, 78
2, 51936, Note_on_c, 0, 67, 0
2, 51936, Note_on_c, 0, 65, 78
2, 51948, Note_on_c, 0, 65, 0
2, 51948, Note_on_c, 0, 67, 78
2, 51960, Note_on_c, 0, 67, 0
2, 51960, Note_on_c, 0, 65, 78
2, 51972, Note_on_c, 0, 65, 0
2, 51972, Note_on_c, 0, 63, 78
2, 51984, Note_on_c, 0, 63, 0
2, 51984, Note_on_c, 0, 62, 78
2, 51996, Note_on_c, 0, 62, 0
2, 51996, Note_on_c, 0, 63, 78
2, 52008, Note_on_c, 0, 63, 0
2, 52008, Note_on_c, 0, 62, 78
2, 52020, Note_on_c, 0, 62, 0
2, 52020, Note_on_c, 0, 60, 78
2, 52032, Note_on_c, 0, 60, 0
2, 52032, Note_on_c, 0, 58, 78
2, 52055, Note_on_c, 0, 58, 0
2, 52056, Note_on_c, 0, 60, 78
2, 52068, Note_on_c, 0, 60, 0
2, 52068, Note_on_c, 0, 62, 78
2, 52080, Note_on_c, 0, 62, 0
2, 52080, Note_on_c, 0, 63, 78
2, 52092, Note_on_c, 0, 63, 0
2, 52092, Note_on_c, 0, 65, 78
2, 52104, Note_on_c, 0, 65, 0
2, 52104, Note_on_c, 0, 67, 78
2, 52116, Note_on_c, 0, 67, 0
2, 52116, Note_on_c, 0, 69, 78
2, 52128, Note_on_c, 0, 69, 0
2, 52128, Note_on_c, 0, 70, 78
2, 52151, Note_on_c, 0, 70, 0
2, 52152, Note_on_c, 0, 72, 78
2, 52164, Note_on_c, 0, 72, 0
2, 52164, Note_on_c, 0, 74, 78
2, 52176, Note_on_c, 0, 74, 0
2, 52176, Note_on_c, 0, 75, 78
2, 52188, Note_on_c, 0, 75, 0
2, 52188, Note_on_c, 0, 77, 78
2, 52200, Note_on_c, 0, 77, 0
2, 52200, Note_on_c, 0, 79, 78
2, 52212, Note_on_c, 0, 79, 0
2, 52212, Note_on_c, 0, 81, 78
2, 52224, Note_on_c, 0, 81, 0
2, 52224, Note_on_c, 0, 82, 78
2, 52244, Note_on_c, 0, 82, 0
2, 52272, Note_on_c, 0, 82, 78
2, 52284, Note_on_c, 0, 82, 0
2, 52284, Note_on_c, 0, 81, 78
2, 52296, Note_on_c, 0, 81, 0
2, 52296, Note_on_c, 0, 82, 78
2, 52308, Note_on_c, 0, 82, 0
2, 52308, Note_on_c, 0, 84, 78
2, 52320, Note_on_c, 0, 84, 0
2, 52320, Note_on_c, 0, 82, 78
2, 52332, Note_on_c, 0, 82, 0
2, 52332, Note_on_c, 0, 81, 78
2, 52344, Note_on_c, 0, 81, 0
2, 52344, Note_on_c, 0, 82, 78
2, 52356, Note_on_c, 0, 82, 0
2, 52356, Note_on_c, 0, 84, 78
2, 52368, Note_on_c, 0, 84, 0
2, 52368, Note_on_c, 0, 82, 78
2, 52380, Note_on_c, 0, 82, 0
2, 52380, Note_on_c, 0, 80, 78
2, 52392, Note_on_c, 0, 80, 0
2, 52392, Note_on_c, 0, 79, 78
2, 52404, Note_on_c, 0, 79, 0
2, 52404, Note_on_c, 0, 77, 78
2, 52416, Note_on_c, 0, 77, 0
2, 52416, Note_on_c, 0, 75, 78
2, 52436, Note_on_c, 0, 75, 0
2, 52464, Note_on_c, 0, 82, 78
2, 52476, Note_on_c, 0, 82, 0
2, 52476, Note_on_c, 0, 81, 78
2, 52488, Note_on_c, 0, 81, 0
2, 52488, Note_on_c, 0, 82, 78
2, 52500, Note_on_c, 0, 82, 0
2, 52500, Note_on_c, 0, 84, 78
2, 52512, Note_on_c, 0, 84, 0
2, 52512, Note_on_c, 0, 82, 78
2, 52524, Note_on_c, 0, 82, 0
2, 52524, Note_on_c, 0, 81, 78
2, 52536, Note_on_c, 0, 81, 0
2, 52536, Note_on_c, 0, 82, 78
2, 52548, Note_on_c, 0, 82, 0
2, 52548, Note_on_c, 0, 84, 78
2, 52560, Note_on_c, 0, 84, 0
2, 52560, Note_on_c, 0, 82, 78
2, 52572, Note_on_c, 0, 82, 0
2, 52572, Note_on_c, 0, 80, 78
2, 52584, Note_on_c, 0, 80, 0
2, 52584, Note_on_c, 0, 79, 78
2, 52596, Note_on_c, 0, 79, 0
2, 52596, Note_on_c, 0, 77, 78
2, 52608, Note_on_c, 0, 77, 0
2, 52608, Note_on_c, 0, 75, 78
2, 52628, Note_on_c, 0, 75, 0
2, 52656, Note_on_c, 0, 82, 78
2, 52668, Note_on_c, 0, 82, 0
2, 52668, Note_on_c, 0, 81, 78
2, 52680, Note_on_c, 0, 81, 0
2, 52680, Note_on_c, 0, 82, 78
2, 52692, Note_on_c, 0, 82, 0
2, 52692, Note_on_c, 0, 84, 78
2, 52704, Note_on_c, 0, 84, 0
2, 52704, Note_on_c, 0, 82, 78
2, 52716, Note_on_c, 0, 82, 0
2, 52716, Note_on_c, 0, 81, 78
2, 52728, Note_on_c, 0, 81, 0
2, 52728, Note_on_c, 0, 82, 78
2, 52740, Note_on_c, 0, 82, 0
2, 52740, Note_on_c, 0, 84, 78
2, 52752, Note_on_c, 0, 84, 0
2, 52752, Note_on_c, 0, 82, 78
2, 52764, Note_on_c, 0, 82, 0
2, 52764, Note_on_c, 0, 80, 78
2, 52776, Note_on_c, 0, 80, 0
2, 52776, Note_on_c, 0, 79, 78
2, 52788, Note_on_c, 0, 79, 0
2, 52788, Note_on_c, 0, 77, 78
2, 52800, Note_on_c, 0, 77, 0
2, 52800, Note_on_c, 0, 75, 78
2, 52823, Note_on_c, 0, 75, 0
2, 52824, Note_on_c, 0, 77, 78
2, 52836, Note_on_c, 0, 77, 0
2, 52836, Note_on_c, 0, 79, 78
2, 52848, Note_on_c, 0, 79, 0
2, 52848, Note_on_c, 0, 80, 78
2, 52860, Note_on_c, 0, 80, 0
2, 52860, Note_on_c, 0, 82, 78
2, 52872, Note_on_c, 0, 82, 0
2, 52872, Note_on_c, 0, 84, 78
2, 52884, Note_on_c, 0, 84, 0
2, 52884, Note_on_c, 0, 86, 78
2, 52896, Note_on_c, 0, 86, 0
2, 52896, Note_on_c, 0, 87, 78
2, 52908, Note_on_c, 0, 87, 0
2, 52908, Note_on_c, 0, 86, 78
2, 52920, Note_on_c, 0, 86, 0
2, 52920, Note_on_c, 0, 84, 78
2, 52932, Note_on_c, 0, 84, 0
2, 52932, Note_on_c, 0, 82, 78
2, 52944, Note_on_c, 0, 82, 0
2, 52944, Note_on_c, 0, 80, 78
2, 52956, Note_on_c, 0, 80, 0
2, 52956, Note_on_c, 0, 79, 78
2, 52968, Note_on_c, 0, 79, 0
2, 52968, Note_on_c, 0, 80, 78
2, 52980, Note_on_c, 0, 80, 0
2, 52980, Note_on_c, 0, 82, 78
2, 52992, Note_on_c, 0, 82, 0
2, 52992, Note_on_c, 0, 84, 78
2, 53004, Note_on_c, 0, 84, 0
2, 53004, Note_on_c, 0, 82, 78
2, 53016, Note_on_c, 0, 82, 0
2, 53016, Note_on_c, 0, 80, 78
2, 53028, Note_on_c, 0, 80, 0
2, 53028, Note_on_c, 0, 79, 78
2, 53040, Note_on_c, 0, 79, 0
2, 53040, Note_on_c, 0, 77, 78
2, 53052, Note_on_c, 0, 77, 0
2, 53052, Note_on_c, 0, 76, 78
2, 53064, Note_on_c, 0, 76, 0
2, 53064, Note_on_c, 0, 77, 78
2, 53076, Note_on_c, 0, 77, 0
2, 53076, Note_on_c, 0, 79, 78
2, 53088, Note_on_c, 0, 79, 0
2, 53088, Note_on_c, 0, 80, 78
2, 53100, Note_on_c, 0, 80, 0
2, 53100, Note_on_c, 0, 82, 78
2, 53112, Note_on_c, 0, 82, 0
2, 53112, Note_on_c, 0, 80, 78
2, 53124, Note_on_c, 0, 80, 0
2, 53124, Note_on_c, 0, 79, 78
2, 53136, Note_on_c, 0, 79, 0
2, 53136, Note_on_c, 0, 77, 78
2, 53148, Note_on_c, 0, 77, 0
2, 53148, Note_on_c, 0, 75, 78
2, 53160, Note_on_c, 0, 75, 0
2, 53160, Note_on_c, 0, 74, 78
2, 53172, Note_on_c, 0, 74, 0
2, 53172, Note_on_c, 0, 72, 78
2, 53184, Note_on_c, 0, 72, 0
2, 53184, Note_on_c, 0, 70, 78
2, 53196, Note_on_c, 0, 70, 0
2, 53196, Note_on_c, 0, 72, 78
2, 53208, Note_on_c, 0, 72, 0
2, 53208, Note_on_c, 0, 74, 78
2, 53220, Note_on_c, 0, 74, 0
2, 53220, Note_on_c, 0, 75, 78
2, 53232, Note_on_c, 0, 75, 0
2, 53232, Note_on_c, 0, 77, 78
2, 53244, Note_on_c, 0, 77, 0
2, 53244, Note_on_c, 0, 79, 78
2, 53256, Note_on_c, 0, 79, 0
2, 53256, Note_on_c, 0, 80, 78
2, 53268, Note_on_c, 0, 80, 0
2, 53268, Note_on_c, 0, 77, 78
2, 53280, Note_on_c, 0, 77, 0
2, 53280, Note_on_c, 0, 79, 78
2, 53292, Note_on_c, 0, 79, 0
2, 53292, Note_on_c, 0, 82, 78
2, 53304, Note_on_c, 0, 82, 0
2, 53304, Note_on_c, 0, 80, 78
2, 53316, Note_on_c, 0, 80, 0
2, 53316, Note_on_c, 0, 79, 78
2, 53328, Note_on_c, 0, 79, 0
2, 53328, Note_on_c, 0, 77, 78
2, 53340, Note_on_c, 0, 77, 0
2, 53340, Note_on_c, 0, 75, 78
2, 53352, Note_on_c, 0, 75, 0
2, 53352, Note_on_c, 0, 74, 78
2, 53364, Note_on_c, 0, 74, 0
2, 53364, Note_on_c, 0, 72, 78
2, 53376, Note_on_c, 0, 72, 0
2, 53376, Note_on_c, 0, 70, 78
2, 53388, Note_on_c, 0, 70, 0
2, 53388, Note_on_c, 0, 72, 78
2, 53400, Note_on_c, 0, 72, 0
2, 53400, Note_on_c, 0, 74, 78
2, 53412, Note_on_c, 0, 74, 0
2, 53412, Note_on_c, 0, 75, 78
2, 53424, Note_on_c, 0, 75, 0
2, 53424, Note_on_c, 0, 77, 78
2, 53436, Note_on_c, 0, 77, 0
2, 53436, Note_on_c, 0, 79, 78
2, 53448, Note_on_c, 0, 79, 0
2, 53448, Note_on_c, 0, 80, 78
2, 53460, Note_on_c, 0, 80, 0
2, 53460, Note_on_c, 0, 77, 78
2, 53472, Note_on_c, 0, 77, 0
2, 53472, Note_on_c, 0, 79, 78
2, 53484, Note_on_c, 0, 79, 0
2, 53484, Note_on_c, 0, 82, 78
2, 53496, Note_on_c, 0, 82, 0
2, 53496, Note_on_c, 0, 80, 78
2, 53508, Note_on_c, 0, 80, 0
2, 53508, Note_on_c, 0, 79, 78
2, 53520, Note_on_c, 0, 79, 0
2, 53520, Note_on_c, 0, 77, 78
2, 53532, Note_on_c, 0, 77, 0
2, 53532, Note_on_c, 0, 75, 78
2, 53544, Note_on_c, 0, 75, 0
2, 53544, Note_on_c, 0, 74, 78
2, 53556, Note_on_c, 0, 74, 0
2, 53556, Note_on_c, 0, 72, 78
2, 53568, Note_on_c, 0, 72, 0
2, 53568, Note_on_c, 0, 70, 78
2, 53580, Note_on_c, 0, 70, 0
2, 53580, Note_on_c, 0, 72, 78
2, 53592, Note_on_c, 0, 72, 0
2, 53592, Note_on_c, 0, 74, 78
2, 53604, Note_on_c, 0, 74, 0
2, 53604, Note_on_c, 0, 75, 78
2, 53616, Note_on_c, 0, 75, 0
2, 53616, Note_on_c, 0, 77, 78
2, 53628, Note_on_c, 0, 77, 0
2, 53628, Note_on_c, 0, 79, 78
2, 53640, Note_on_c, 0, 79, 0
2, 53640, Note_on_c, 0, 80, 78
2, 53652, Note_on_c, 0, 80, 0
2, 53652, Note_on_c, 0, 77, 78
2, 53664, Note_on_c, 0, 77, 0
2, 53664, Note_on_c, 0, 79, 78
2, 53676, Note_on_c, 0, 79, 0
2, 53676, Note_on_c, 0, 82, 78
2, 53688, Note_on_c, 0, 82, 0
2, 53688, Note_on_c, 0, 80, 78
2, 53700, Note_on_c, 0, 80, 0
2, 53700, Note_on_c, 0, 79, 78
2, 53712, Note_on_c, 0, 79, 0
2, 53712, Note_on_c, 0, 77, 78
2, 53724, Note_on_c, 0, 77, 0
2, 53724, Note_on_c, 0, 75, 78
2, 53736, Note_on_c, 0, 75, 0
2, 53736, Note_on_c, 0, 74, 78
2, 53748, Note_on_c, 0, 74, 0
2, 53748, Note_on_c, 0, 72, 78
2, 53760, Note_on_c, 0, 72, 0
2, 53760, Note_on_c, 0, 70, 78
2, 53783, Note_on_c, 0, 70, 0
2, 53784, Note_on_c, 0, 72, 78
2, 53796, Note_on_c, 0, 72, 0
2, 53796, Note_on_c, 0, 74, 78
2, 53808, Note_on_c, 0, 74, 0
2, 53808, Note_on_c, 0, 75, 78
2, 53820, Note_on_c, 0, 75, 0
2, 53820, Note_on_c, 0, 77, 78
2, 53832, Note_on_c, 0, 77, 0
2, 53832, Note_on_c, 0, 79, 78
2, 53844, Note_on_c, 0, 79, 0
2, 53844, Note_on_c, 0, 81, 78
2, 53856, Note_on_c, 0, 81, 0
2, 53856, Note_on_c, 0, 82, 78
2, 53901, Note_on_c, 0, 82, 0
2, 53904, Note_on_c, 0, 82, 78
2, 53904, Note_on_c, 0, 74, 78
2, 53949, Note_on_c, 0, 82, 0
2, 53949, Note_on_c, 0, 74, 0
2, 53952, Note_on_c, 0, 82, 78
2, 53952, Note_on_c, 0, 74, 78
2, 54041, Note_on_c, 0, 82, 0
2, 54041, Note_on_c, 0, 74, 0
2, 54120, Note_on_c, 0, 55, 78
2, 54132, Note_on_c, 0, 55, 0
2, 54132, Note_on_c, 0, 58, 78
2, 54144, Note_on_c, 0, 58, 0
2, 54144, Note_on_c, 0, 63, 78
2, 54211, Note_on_c, 0, 63, 0
2, 54216, Note_on_c, 0, 58, 78
2, 54228, Note_on_c, 0, 58, 0
2, 54228, Note_on_c, 0, 63, 78
2, 54240, Note_on_c, 0, 63, 0
2, 54240, Note_on_c, 0, 67, 78
2, 54307, Note_on_c, 0, 67, 0
2, 54312, Note_on_c, 0, 63, 78
2, 54324, Note_on_c, 0, 63, 0
2, 54324, Note_on_c, 0, 67, 78
2, 54336, Note_on_c, 0, 67, 0
2, 54336, Note_on_c, 0, 70, 78
2, 54356, Note_on_c, 0, 70, 0
2, 54480, Note_on_c, 0, 75, 64
2, 54514, Note_on_c, 0, 75, 0
2, 54516, Note_on_c, 0, 77, 64
2, 54522, Note_on_c, 0, 77, 0
2, 54522, Note_on_c, 0, 79, 64
2, 54528, Note_on_c, 0, 79, 0
2, 54528, Note_on_c, 0, 70, 64
2, 54548, Note_on_c, 0, 70, 0
2, 54576, Note_on_c, 0, 75, 64
2, 54610, Note_on_c, 0, 75, 0
2, 54612, Note_on_c, 0, 77, 64
2, 54618, Note_on_c, 0, 77, 0
2, 54618, Note_on_c, 0, 79, 64
2, 54624, Note_on_c, 0, 79, 0
2, 54624, Note_on_c, 0, 69, 64
2, 54669, Note_on_c, 0, 69, 0
2, 54672, Note_on_c, 0, 74, 64
2, 54687, Note_on_c, 0, 74, 0
2, 54708, Note_on_c, 0, 75, 64
2, 54714, Note_on_c, 0, 75, 0
2, 54714, Note_on_c, 0, 77, 64
2, 54720, Note_on_c, 0, 77, 0
2, 54720, Note_on_c, 0, 68, 64
2, 54853, Note_on_c, 0, 68, 0
2, 54864, Note_on_c, 0, 67, 64
2, 54909, Note_on_c, 0, 67, 0
2, 54912, Note_on_c, 0, 67, 64
2, 54946, Note_on_c, 0, 67, 0
2, 54948, Note_on_c, 0, 65, 64
2, 54960, Note_on_c, 0, 65, 0
2, 54960, Note_on_c, 0, 68, 64
2, 54994, Note_on_c, 0, 68, 0
2, 54996, Note_on_c, 0, 72, 64
2, 55008, Note_on_c, 0, 72, 0
2, 55008, Note_on_c, 0, 70, 64
2, 55053, Note_on_c, 0, 70, 0
2, 55056, Note_on_c, 0, 68, 64
2, 55056, Note_on_c, 0, 65, 64
2, 55101, Note_on_c, 0, 68, 0
2, 55101, Note_on_c, 0, 65, 0
2, 55104, Note_on_c, 0, 67, 64
2, 55112, Note_on_c, 0, 67, 0
2, 55112, Note_on_c, 0, 68, 64
2, 55120, Note_on_c, 0, 68, 0
2, 55120, Note_on_c, 0, 70, 64
2, 55128, Note_on_c, 0, 70, 0
2, 55128, Note_on_c, 0, 68, 64
2, 55151, Note_on_c, 0, 68, 0
2, 55152, Note_on_c, 0, 67, 64
2, 55172, Note_on_c, 0, 67, 0
2, 55248, Note_on_c, 0, 75, 64
2, 55282, Note_on_c, 0, 75, 0
2, 55284, Note_on_c, 0, 77, 64
2, 55290, Note_on_c, 0, 77, 0
2, 55290, Note_on_c, 0, 79, 64
2, 55296, Note_on_c, 0, 79, 0
2, 55296, Note_on_c, 0, 70, 64
2, 55316, Note_on_c, 0, 70, 0
2, 55344, Note_on_c, 0, 75, 64
2, 55378, Note_on_c, 0, 75, 0
2, 55380, Note_on_c, 0, 77, 64
2, 55386, Note_on_c, 0, 77, 0
2, 55386, Note_on_c, 0, 79, 64
2, 55392, Note_on_c, 0, 79, 0
2, 55392, Note_on_c, 0, 69, 64
2, 55437, Note_on_c, 0, 69, 0
2, 55440, Note_on_c, 0, 74, 64
2, 55455, Note_on_c, 0, 74, 0
2, 55476, Note_on_c, 0, 75, 64
2, 55482, Note_on_c, 0, 75, 0
2, 55482, Note_on_c, 0, 77, 64
2, 55488, Note_on_c, 0, 77, 0
2, 55488, Note_on_c, 0, 68, 64
2, 55621, Note_on_c, 0, 68, 0
2, 55632, Note_on_c, 0, 67, 64
2, 55677, Note_on_c, 0, 67, 0
2, 55680, Note_on_c, 0, 72, 64
2, 55813, Note_on_c, 0, 72, 0
2, 55824, Note_on_c, 0, 77, 64
2, 55869, Note_on_c, 0, 77, 0
2, 55872, Note_on_c, 0, 75, 64
2, 56013, Note_on_c, 0, 75, 0
2, 56016, Note_on_c, 0, 74, 64
2, 56028, Note_on_c, 0, 74, 0
2, 56028, Note_on_c, 0, 75, 64
2, 56040, Note_on_c, 0, 75, 0
2, 56040, Note_on_c, 0, 77, 64
2, 56052, Note_on_c, 0, 77, 0
2, 56052, Note_on_c, 0, 79, 64
2, 56064, Note_on_c, 0, 79, 0
2, 56064, Note_on_c, 0, 80, 64
2, 56084, Note_on_c, 0, 80, 0
2, 56112, Note_on_c, 0, 80, 64
2, 56124, Note_on_c, 0, 80, 0
2, 56124, Note_on_c, 0, 79, 64
2, 56136, Note_on_c, 0, 79, 0
2, 56136, Note_on_c, 0, 77, 64
2, 56148, Note_on_c, 0, 77, 0
2, 56148, Note_on_c, 0, 75, 64
2, 56160, Note_on_c, 0, 75, 0
2, 56160, Note_on_c, 0, 74, 58
2, 56180, Note_on_c, 0, 74, 0
2, 56208, Note_on_c, 0, 77, 58
2, 56220, Note_on_c, 0, 77, 0
2, 56220, Note_on_c, 0, 79, 58
2, 56232, Note_on_c, 0, 79, 0
2, 56232, Note_on_c, 0, 80, 58
2, 56244, Note_on_c, 0, 80, 0
2, 56244, Note_on_c, 0, 82, 58
2, 56256, Note_on_c, 0, 82, 0
2, 56256, Note_on_c, 0, 84, 58
2, 56276, Note_on_c, 0, 84, 0
2, 56304, Note_on_c, 0, 84, 58
2, 56316, Note_on_c, 0, 84, 0
2, 56316, Note_on_c, 0, 82, 58
2, 56328, Note_on_c, 0, 82, 0
2, 56328, Note_on_c, 0, 80, 58
2, 56340, Note_on_c, 0, 80, 0
2, 56340, Note_on_c, 0, 79, 58
2, 56352, Note_on_c, 0, 79, 0
2, 56352, Note_on_c, 0, 77, 58
2, 56372, Note_on_c, 0, 77, 0
2, 56400, Note_on_c, 0, 77, 58
2, 56412, Note_on_c, 0, 77, 0
2, 56412, Note_on_c, 0, 79, 58
2, 56424, Note_on_c, 0, 79, 0
2, 56424, Note_on_c, 0, 80, 58
2, 56436, Note_on_c, 0, 80, 0
2, 56436, Note_on_c, 0, 82, 58
2, 56448, Note_on_c, 0, 82, 0
2, 56448, Note_on_c, 0, 84, 58
2, 56493, Note_on_c, 0, 84, 0
2, 56832, Note_on_c, 0, 79, 85
2, 56844, Note_on_c, 0, 79, 0
2, 56844, Note_on_c, 0, 77, 85
2, 56856, Note_on_c, 0, 77, 0
2, 56856, Note_on_c, 0, 75, 85
2, 56868, Note_on_c, 0, 75, 0
2, 56868, Note_on_c, 0, 74, 85
2, 56880, Note_on_c, 0, 74, 0
2, 56880, Note_on_c, 0, 75, 85
2, 56892, Note_on_c, 0, 75, 0
2, 56892, Note_on_c, 0, 74, 85
2, 56904, Note_on_c, 0, 74, 0
2, 56904, Note_on_c, 0, 72, 85
2, 56916, Note_on_c, 0, 72, 0
2, 56916, Note_on_c, 0, 70, 85
2, 56928, Note_on_c, 0, 70, 0
2, 56928, Note_on_c, 0, 68, 85
2, 56940, Note_on_c, 0, 68, 0
2, 56940, Note_on_c, 0, 67, 85
2, 56952, Note_on_c, 0, 67, 0
2, 56952, Note_on_c, 0, 65, 85
2, 56964, Note_on_c, 0, 65, 0
2, 56964, Note_on_c, 0, 63, 85
2, 56976, Note_on_c, 0, 63, 0
2, 56976, Note_on_c, 0, 62, 85
2, 56988, Note_on_c, 0, 62, 0
2, 56988, Note_on_c, 0, 63, 85
2, 57000, Note_on_c, 0, 63, 0
2, 57000, Note_on_c, 0, 62, 85
2, 57012, Note_on_c, 0, 62, 0
2, 57012, Note_on_c, 0, 63, 85
2, 57024, Note_on_c, 0, 63, 0
2, 57024, Note_on_c, 0, 79, 85
2, 57036, Note_on_c, 0, 79, 0
2, 57036, Note_on_c, 0, 77, 85
2, 57048, Note_on_c, 0, 77, 0
2, 57048, Note_on_c, 0, 75, 85
2, 57060, Note_on_c, 0, 75, 0
2, 57060, Note_on_c, 0, 74, 85
2, 57072, Note_on_c, 0, 74, 0
2, 57072, Note_on_c, 0, 75, 85
2, 57084, Note_on_c, 0, 75, 0
2, 57084, Note_on_c, 0, 74, 85
2, 57096, Note_on_c, 0, 74, 0
2, 57096, Note_on_c, 0, 72, 85
2, 57108, Note_on_c, 0, 72, 0
2, 57108, Note_on_c, 0, 70, 85
2, 57120, Note_on_c, 0, 70, 0
2, 57120, Note_on_c, 0, 68, 85
2, 57132, Note_on_c, 0, 68, 0
2, 57132, Note_on_c, 0, 67, 85
2, 57144, Note_on_c, 0, 67, 0
2, 57144, Note_on_c, 0, 65, 85
2, 57156, Note_on_c, 0, 65, 0
2, 57156, Note_on_c, 0, 63, 85
2, 57168, Note_on_c, 0, 63, 0
2, 57168, Note_on_c, 0, 62, 85
2, 57180, Note_on_c, 0, 62, 0
2, 57180, Note_on_c, 0, 63, 85
2, 57192, Note_on_c, 0, 63, 0
2, 57192, Note_on_c, 0, 62, 85
2, 57204, Note_on_c, 0, 62, 0
2, 57204, Note_on_c, 0, 63, 85
2, 57216, Note_on_c, 0, 63, 0
2, 57216, Note_on_c, 0, 72, 85
2, 57228, Note_on_c, 0, 72, 0
2, 57228, Note_on_c, 0, 70, 85
2, 57240, Note_on_c, 0, 70, 0
2, 57240, Note_on_c, 0, 68, 85
2, 57252, Note_on_c, 0, 68, 0
2, 57252, Note_on_c, 0, 67, 85
2, 57264, Note_on_c, 0, 67, 0
2, 57264, Note_on_c, 0, 68, 85
2, 57276, Note_on_c, 0, 68, 0
2, 57276, Note_on_c, 0, 67, 85
2, 57288, Note_on_c, 0, 67, 0
2, 57288, Note_on_c, 0, 65, 85
2, 57300, Note_on_c, 0, 65, 0
2, 57300, Note_on_c, 0, 64, 85
2, 57312, Note_on_c, 0, 64, 0
2, 57312, Note_on_c, 0, 65, 85
2, 57324, Note_on_c, 0, 65, 0
2, 57324, Note_on_c, 0, 67, 85
2, 57336, Note_on_c, 0, 67, 0
2, 57336, Note_on_c, 0, 68, 85
2, 57348, Note_on_c, 0, 68, 0
2, 57348, Note_on_c, 0, 67, 85
2, 57360, Note_on_c, 0, 67, 0
2, 57360, Note_on_c, 0, 65, 85
2, 57372, Note_on_c, 0, 65, 0
2, 57372, Note_on_c, 0, 63, 85
2, 57384, Note_on_c, 0, 63, 0
2, 57384, Note_on_c, 0, 62, 85
2, 57396, Note_on_c, 0, 62, 0
2, 57396, Note_on_c, 0, 60, 85
2, 57408, Note_on_c, 0, 60, 0
2, 57408, Note_on_c, 0, 58, 85
2, 57431, Note_on_c, 0, 58, 0
2, 57432, Note_on_c, 0, 75, 85
2, 57455, Note_on_c, 0, 75, 0
2, 57456, Note_on_c, 0, 75, 85
2, 57479, Note_on_c, 0, 75, 0
2, 57480, Note_on_c, 0, 75, 85
2, 57503, Note_on_c, 0, 75, 0
2, 57504, Note_on_c, 0, 75, 85
2, 57516, Note_on_c, 0, 75, 0
2, 57516, Note_on_c, 0, 77, 85
2, 57528, Note_on_c, 0, 77, 0
2, 57528, Note_on_c, 0, 79, 85
2, 57540, Note_on_c, 0, 79, 0
2, 57540, Note_on_c, 0, 80, 85
2, 57552, Note_on_c, 0, 80, 0
2, 57552, Note_on_c, 0, 82, 85
2, 57575, Note_on_c, 0, 82, 0
2, 57600, Note_on_c, 0, 75, 85
2, 57609, Note_on_c, 0, 75, 0
2, 57609, Note_on_c, 0, 74, 85
2, 57618, Note_on_c, 0, 74, 0
2, 57618, Note_on_c, 0, 75, 85
2, 57627, Note_on_c, 0, 75, 0
2, 57627, Note_on_c, 0, 74, 85
2, 57636, Note_on_c, 0, 74, 0
2, 57636, Note_on_c, 0, 75, 85
2, 57645, Note_on_c, 0, 75, 0
2, 57645, Note_on_c, 0, 74, 85
2, 57654, Note_on_c, 0, 74, 0
2, 57654, Note_on_c, 0, 75, 85
2, 57663, Note_on_c, 0, 75, 0
2, 57663, Note_on_c, 0, 74, 85
2, 57672, Note_on_c, 0, 74, 0
2, 57672, Note_on_c, 0, 75, 85
2, 57681, Note_on_c, 0, 75, 0
2, 57681, Note_on_c, 0, 74, 85
2, 57690, Note_on_c, 0, 74, 0
2, 57690, Note_on_c, 0, 75, 85
2, 57699, Note_on_c, 0, 75, 0
2, 57699, Note_on_c, 0, 74, 85
2, 57708, Note_on_c, 0, 74, 0
2, 57708, Note_on_c, 0, 75, 85
2, 57717, Note_on_c, 0, 75, 0
2, 57717, Note_on_c, 0, 74, 85
2, 57726, Note_on_c, 0, 74, 0
2, 57726, Note_on_c, 0, 75, 85
2, 57735, Note_on_c, 0, 75, 0
2, 57735, Note_on_c, 0, 74, 85
2, 57744, Note_on_c, 0, 74, 0
2, 57744, Note_on_c, 0, 75, 85
2, 57752, Note_on_c, 0, 75, 0
2, 57752, Note_on_c, 0, 74, 85
2, 57760, Note_on_c, 0, 74, 0
2, 57760, Note_on_c, 0, 75, 85
2, 57768, Note_on_c, 0, 75, 0
2, 57768, Note_on_c, 0, 74, 85
2, 57776, Note_on_c, 0, 74, 0
2, 57776, Note_on_c, 0, 72, 85
2, 57784, Note_on_c, 0, 72, 0
2, 57784, Note_on_c, 0, 74, 85
2, 57792, Note_on_c, 0, 74, 0
2, 57792, Note_on_c, 0, 75, 85
2, 57837, Note_on_c, 0, 75, 0
2, 57840, Note_on_c, 0, 70, 85
2, 57840, Note_on_c, 0, 67, 85
2, 57860, Note_on_c, 0, 70, 0
2, 57860, Note_on_c, 0, 67, 0
2, 57888, Note_on_c, 0, 72, 85
2, 57888, Note_on_c, 0, 68, 85
2, 57908, Note_on_c, 0, 72, 0
2, 57908, Note_on_c, 0, 68, 0
2, 57936, Note_on_c, 0, 70, 85
2, 57948, Note_on_c, 0, 70, 0
2, 57948, Note_on_c, 0, 68, 85
2, 57960, Note_on_c, 0, 68, 0
2, 57960, Note_on_c, 0, 67, 85
2, 57972, Note_on_c, 0, 67, 0
2, 57972, Note_on_c, 0, 68, 85
2, 57984, Note_on_c, 0, 68, 0
2, 57984, Note_on_c, 0, 67, 85
2, 58029, Note_on_c, 0, 67, 0
2, 58032, Note_on_c, 0, 82, 85
2, 58032, Note_on_c, 0, 79, 85
2, 58032, Note_on_c, 0, 75, 85
2, 58052, Note_on_c, 0, 82, 0
2, 58052, Note_on_c, 0, 79, 0
2, 58052, Note_on_c, 0, 75, 0
2, 58080, Note_on_c, 0, 80, 85
2, 58080, Note_on_c, 0, 77, 85
2, 58080, Note_on_c, 0, 72, 85
2, 58100, Note_on_c, 0, 80, 0
2, 58100, Note_on_c, 0, 77, 0
2, 58100, Note_on_c, 0, 72, 0
2, 58128, Note_on_c, 0, 74, 85
2, 58128, Note_on_c, 0, 70, 85
2, 58128, Note_on_c, 0, 68, 85
2, 58128, Note_on_c, 0, 65, 85
2, 58148, Note_on_c, 0, 74, 0
2, 58148, Note_on_c, 0, 70, 0
2, 58148, Note_on_c, 0, 68, 0
2, 58148, Note_on_c, 0, 65, 0
2, 58176, Note_on_c, 0, 75, 85
2, 58176, Note_on_c, 0, 70, 85
2, 58176, Note_on_c, 0, 67, 85
2, 58215, Note_on_c, 0, 75, 0
2, 58215, Note_on_c, 0, 70, 0
2, 58215, Note_on_c, 0, 67, 0
2, 58704, End_track
3, 0, Start_track
3, 0, Program_c, 0, 0
3, 0, Control_c, 0, 7, 127
3, 0, Control_c, 0, 10, 64
3, 5952, Note_on_c, 0, 70, 64
3, 5975, Note_on_c, 0, 70, 0
3, 5976, Note_on_c, 0, 72, 64
3, 5999, Note_on_c, 0, 72, 0
3, 6000, Note_on_c, 0, 73, 64
3, 6023, Note_on_c, 0, 73, 0
3, 6024, Note_on_c, 0, 69, 64
3, 6047, Note_on_c, 0, 69, 0
3, 6048, Note_on_c, 0, 70, 64
3, 6071, Note_on_c, 0, 70, 0
3, 6072, Note_on_c, 0, 73, 64
3, 6095, Note_on_c, 0, 73, 0
3, 6096, Note_on_c, 0, 72, 64
3, 6119, Note_on_c, 0, 72, 0
3, 6120, Note_on_c, 0, 70, 64
3, 6143, Note_on_c, 0, 70, 0
3, 7872, Note_on_c, 0, 72, 64
3, 7884, Note_on_c, 0, 72, 0
3, 7884, Note_on_c, 0, 72, 64
3, 7918, Note_on_c, 0, 72, 0
3, 16704, Note_on_c, 0, 70, 64
3, 16727, Note_on_c, 0, 70, 0
3, 16728, Note_on_c, 0, 72, 64
3, 16751, Note_on_c, 0, 72, 0
3, 16752, Note_on_c, 0, 73, 64
3, 16775, Note_on_c, 0, 73, 0
3, 16776, Note_on_c, 0, 69, 64
3, 16799, Note_on_c, 0, 69, 0
3, 16800, Note_on_c, 0, 70, 64
3, 16823, Note_on_c, 0, 70, 0
3, 16824, Note_on_c, 0, 73, 64
3, 16847, Note_on_c, 0, 73, 0
3, 16848, Note_on_c, 0, 72, 64
3, 16871, Note_on_c, 0, 72, 0
3, 16872, Note_on_c, 0, 70, 64
3, 16895, Note_on_c, 0, 70, 0
3, 18624, Note_on_c, 0, 72, 64
3, 18636, Note_on_c, 0, 72, 0
3, 18636, Note_on_c, 0, 72, 64
3, 18670, Note_on_c, 0, 72, 0
3, 24000, Note_on_c, 0, 65, 64
3, 24023, Note_on_c, 0, 65, 0
3, 24024, Note_on_c, 0, 70, 64
3, 24047, Note_on_c, 0, 70, 0
3, 24048, Note_on_c, 0, 68, 64
3, 24071, Note_on_c, 0, 68, 0
3, 24072, Note_on_c, 0, 66, 64
3, 24095, Note_on_c, 0, 66, 0
3, 24096, Note_on_c, 0, 65, 64
3, 24119, Note_on_c, 0, 65, 0
3, 24120, Note_on_c, 0, 71, 64
3, 24143, Note_on_c, 0, 71, 0
3, 24144, Note_on_c, 0, 70, 64
3, 24167, Note_on_c, 0, 70, 0
3, 24168, Note_on_c, 0, 68, 64
3, 24191, Note_on_c, 0, 68, 0
3, 24192, Note_on_c, 0, 68, 64
3, 24288, Note_on_c, 0, 68, 0
3, 24288, Note_on_c, 0, 67, 64
3, 24377, Note_on_c, 0, 67, 0
3, 24384, Note_on_c, 0, 63, 64
3, 24407, Note_on_c, 0, 63, 0
3, 24408, Note_on_c, 0, 68, 64
3, 24431, Note_on_c, 0, 68, 0
3, 24432, Note_on_c, 0, 66, 64
3, 24455, Note_on_c, 0, 66, 0
3, 24456, Note_on_c, 0, 65, 64
3, 24479, Note_on_c, 0, 65, 0
3, 24480, Note_on_c, 0, 63, 64
3, 24503, Note_on_c, 0, 63, 0
3, 24504, Note_on_c, 0, 70, 64
3, 24527, Note_on_c, 0, 70, 0
3, 24528, Note_on_c, 0, 68, 64
3, 24551, Note_on_c, 0, 68, 0
3, 24552, Note_on_c, 0, 66, 64
3, 24575, Note_on_c, 0, 66, 0
3, 24576, Note_on_c, 0, 66, 64
3, 24672, Note_on_c, 0, 66, 0
3, 24672, Note_on_c, 0, 65, 64
3, 24761, Note_on_c, 0, 65, 0
3, 24768, Note_on_c, 0, 63, 64
3, 24791, Note_on_c, 0, 63, 0
3, 24792, Note_on_c, 0, 75, 64
3, 24815, Note_on_c, 0, 75, 0
3, 24816, Note_on_c, 0, 73, 64
3, 24839, Note_on_c, 0, 73, 0
3, 24840, Note_on_c, 0, 72, 64
3, 24863, Note_on_c, 0, 72, 0
3, 24864, Note_on_c, 0, 70, 64
3, 24887, Note_on_c, 0, 70, 0
3, 24888, Note_on_c, 0, 68, 64
3, 24911, Note_on_c, 0, 68, 0
3, 24912, Note_on_c, 0, 67, 64
3, 24935, Note_on_c, 0, 67, 0
3, 24936, Note_on_c, 0, 68, 64
3, 25005, Note_on_c, 0, 68, 0
3, 25008, Note_on_c, 0, 61, 64
3, 25053, Note_on_c, 0, 61, 0
3, 25056, Note_on_c, 0, 63, 64
3, 25101, Note_on_c, 0, 63, 0
3, 25104, Note_on_c, 0, 67, 64
3, 25197, Note_on_c, 0, 67, 0
3, 25200, Note_on_c, 0, 63, 64
3, 25245, Note_on_c, 0, 63, 0
3, 25248, Note_on_c, 0, 68, 64
3, 25293, Note_on_c, 0, 68, 0
3, 25296, Note_on_c, 0, 65, 64
3, 25389, Note_on_c, 0, 65, 0
3, 25392, Note_on_c, 0, 58, 64
3, 25437, Note_on_c, 0, 58, 0
3, 25440, Note_on_c, 0, 60, 64
3, 25485, Note_on_c, 0, 60, 0
3, 25488, Note_on_c, 0, 64, 64
3, 25581, Note_on_c, 0, 64, 0
3, 25584, Note_on_c, 0, 60, 64
3, 25629, Note_on_c, 0, 60, 0
3, 25632, Note_on_c, 0, 65, 64
3, 25721, Note_on_c, 0, 65, 0
3, 27648, Note_on_c, 0, 72, 64
3, 27671, Note_on_c, 0, 72, 0
3, 27672, Note_on_c, 0, 74, 64
3, 27695, Note_on_c, 0, 74, 0
3, 27696, Note_on_c, 0, 75, 64
3, 27719, Note_on_c, 0, 75, 0
3, 27720, Note_on_c, 0, 72, 64
3, 27743, Note_on_c, 0, 72, 0
3, 27744, Note_on_c, 0, 74, 64
3, 27767, Note_on_c, 0, 74, 0
3, 27768, Note_on_c, 0, 75, 64
3, 27791, Note_on_c, 0, 75, 0
3, 27792, Note_on_c, 0, 77, 64
3, 27815, Note_on_c, 0, 77, 0
3, 27816, Note_on_c, 0, 74, 64
3, 27839, Note_on_c, 0, 74, 0
3, 27840, Note_on_c, 0, 72, 64
3, 27863, Note_on_c, 0, 72, 0
3, 27864, Note_on_c, 0, 74, 64
3, 27887, Note_on_c, 0, 74, 0
3, 27888, Note_on_c, 0, 75, 64
3, 27911, Note_on_c, 0, 75, 0
3, 27912, Note_on_c, 0, 72, 64
3, 27935, Note_on_c, 0, 72, 0
3, 27936, Note_on_c, 0, 75, 64
3, 28025, Note_on_c, 0, 75, 0
3, 36672, Note_on_c, 0, 65, 64
3, 36717, Note_on_c, 0, 65, 0
3, 36720, Note_on_c, 0, 63, 64
3, 36765, Note_on_c, 0, 63, 0
3, 42432, Note_on_c, 0, 65, 64
3, 42455, Note_on_c, 0, 65, 0
3, 42456, Note_on_c, 0, 70, 64
3, 42479, Note_on_c, 0, 70, 0
3, 42480, Note_on_c, 0, 68, 64
3, 42503, Note_on_c, 0, 68, 0
3, 42504, Note_on_c, 0, 66, 64
3, 42527, Note_on_c, 0, 66, 0
3, 42528, Note_on_c, 0, 65, 64
3, 42551, Note_on_c, 0, 65, 0
3, 42552, Note_on_c, 0, 71, 64
3, 42575, Note_on_c, 0, 71, 0
3, 42576, Note_on_c, 0, 70, 64
3, 42599, Note_on_c, 0, 70, 0
3, 42600, Note_on_c, 0, 68, 64
3, 42623, Note_on_c, 0, 68, 0
3, 42624, Note_on_c, 0, 68, 64
3, 42720, Note_on_c, 0, 68, 0
3, 42720, Note_on_c, 0, 67, 64
3, 42809, Note_on_c, 0, 67, 0
3, 42816, Note_on_c, 0, 63, 64
3, 42839, Note_on_c, 0, 63, 0
3, 42840, Note_on_c, 0, 68, 64
3, 42863, Note_on_c, 0, 68, 0
3, 42864, Note_on_c, 0, 66, 64
3, 42887, Note_on_c, 0, 66, 0
3, 42888, Note_on_c, 0, 65, 64
3, 42911, Note_on_c, 0, 65, 0
3, 42912, Note_on_c, 0, 63, 64
3, 42935, Note_on_c, 0, 63, 0
3, 42936, Note_on_c, 0, 70, 64
3, 42959, Note_on_c, 0, 70, 0
3, 42960, Note_on_c, 0, 68, 64
3, 42983, Note_on_c, 0, 68, 0
3, 42984, Note_on_c, 0, 66, 64
3, 43007, Note_on_c, 0, 66, 0
3, 43008, Note_on_c, 0, 66, 64
3, 43104, Note_on_c, 0, 66, 0
3, 43104, Note_on_c, 0, 65, 64
3, 43193, Note_on_c, 0, 65, 0
3, 43200, Note_on_c, 0, 63, 64
3, 43223, Note_on_c, 0, 63, 0
3, 43224, Note_on_c, 0, 75, 64
3, 43247, Note_on_c, 0, 75, 0
3, 43248, Note_on_c, 0, 73, 64
3, 43271, Note_on_c, 0, 73, 0
3, 43272, Note_on_c, 0, 72, 64
3, 43295, Note_on_c, 0, 72, 0
3, 43296, Note_on_c, 0, 70, 64
3, 43319, Note_on_c, 0, 70, 0
3, 43320, Note_on_c, 0, 68, 64
3, 43343, Note_on_c, 0, 68, 0
3, 43344, Note_on_c, 0, 67, 64
3, 43367, Note_on_c, 0, 67, 0
3, 43368, Note_on_c, 0, 68, 64
3, 43437, Note_on_c, 0, 68, 0
3, 43440, Note_on_c, 0, 61, 64
3, 43485, Note_on_c, 0, 61, 0
3, 43488, Note_on_c, 0, 63, 64
3, 43533, Note_on_c, 0, 63, 0
3, 43536, Note_on_c, 0, 67, 64
3, 43629, Note_on_c, 0, 67, 0
3, 43632, Note_on_c, 0, 63, 64
3, 43677, Note_on_c, 0, 63, 0
3, 43680, Note_on_c, 0, 68, 64
3, 43725, Note_on_c, 0, 68, 0
3, 43728, Note_on_c, 0, 65, 64
3, 43821, Note_on_c, 0, 65, 0
3, 43824, Note_on_c, 0, 58, 64
3, 43869, Note_on_c, 0, 58, 0
3, 43872, Note_on_c, 0, 60, 64
3, 43917, Note_on_c, 0, 60, 0
3, 43920, Note_on_c, 0, 64, 64
3, 44013, Note_on_c, 0, 64, 0
3, 44016, Note_on_c, 0, 60, 64
3, 44061, Note_on_c, 0, 60, 0
3, 44064, Note_on_c, 0, 65, 64
3, 44153, Note_on_c, 0, 65, 0
3, 46080, Note_on_c, 0, 72, 64
3, 46103, Note_on_c, 0, 72, 0
3, 46104, Note_on_c, 0, 74, 64
3, 46127, Note_on_c, 0, 74, 0
3, 46128, Note_on_c, 0, 75, 64
3, 46151, Note_on_c, 0, 75, 0
3, 46152, Note_on_c, 0, 72, 64
3, 46175, Note_on_c, 0, 72, 0
3, 46176, Note_on_c, 0, 74, 64
3, 46199, Note_on_c, 0, 74, 0
3, 46200, Note_on_c, 0, 75, 64
3, 46223, Note_on_c, 0, 75, 0
3, 46224, Note_on_c, 0, 77, 64
3, 46247, Note_on_c, 0, 77, 0
3, 46248, Note_on_c, 0, 74, 64
3, 46271, Note_on_c, 0, 74, 0
3, 46272, Note_on_c, 0, 72, 64
3, 46295, Note_on_c, 0, 72, 0
3, 46296, Note_on_c, 0, 74, 64
3, 46319, Note_on_c, 0, 74, 0
3, 46320, Note_on_c, 0, 75, 64
3, 46343, Note_on_c, 0, 75, 0
3, 46344, Note_on_c, 0, 72, 64
3, 46367, Note_on_c, 0, 72, 0
3, 46368, Note_on_c, 0, 75, 64
3, 46457, Note_on_c, 0, 75, 0
3, 55104, Note_on_c, 0, 65, 64
3, 55149, Note_on_c, 0, 65, 0
3, 55152, Note_on_c, 0, 63, 64
3, 55197, Note_on_c, 0, 63, 0
3, 58704, End_track
4, 0, Start_track
4, 0, Program_c, 1, 0
4, 0, Control_c, 1, 7, 127
4, 0, Control_c, 1, 10, 64
4, 48, Note_on_c, 1, 51, 64
4, 93, Note_on_c, 1, 51, 0
4, 96, Note_on_c, 1, 50, 64
4, 141, Note_on_c, 1, 50, 0
4, 144, Note_on_c, 1, 46, 64
4, 189, Note_on_c, 1, 46, 0
4, 240, Note_on_c, 1, 51, 64
4, 285, Note_on_c, 1, 51, 0
4, 288, Note_on_c, 1, 55, 64
4, 333, Note_on_c, 1, 55, 0
4, 336, Note_on_c, 1, 58, 64
4, 381, Note_on_c, 1, 58, 0
4, 384, Note_on_c, 1, 60, 64
4, 480, Note_on_c, 1, 60, 0
4, 480, Note_on_c, 1, 62, 64
4, 569, Note_on_c, 1, 62, 0
4, 624, Note_on_c, 1, 63, 64
4, 669, Note_on_c, 1, 63, 0
4, 672, Note_on_c, 1, 51, 64
4, 717, Note_on_c, 1, 51, 0
4, 720, Note_on_c, 1, 58, 64
4, 765, Note_on_c, 1, 58, 0
4, 768, Note_on_c, 1, 60, 64
4, 864, Note_on_c, 1, 60, 0
4, 864, Note_on_c, 1, 62, 64
4, 953, Note_on_c, 1, 62, 0
4, 960, Note_on_c, 1, 63, 64
4, 1049, Note_on_c, 1, 63, 0
4, 1104, Note_on_c, 1, 58, 64
4, 1104, Note_on_c, 1, 55, 64
4, 1149, Note_on_c, 1, 58, 0
4, 1149, Note_on_c, 1, 55, 0
4, 1200, Note_on_c, 1, 60, 64
4, 1200, Note_on_c, 1, 56, 64
4, 1245, Note_on_c, 1, 60, 0
4, 1245, Note_on_c, 1, 56, 0
4, 1296, Note_on_c, 1, 56, 64
4, 1296, Note_on_c, 1, 46, 64
4, 1341, Note_on_c, 1, 56, 0
4, 1341, Note_on_c, 1, 46, 0
4, 1392, Note_on_c, 1, 39, 64
4, 1437, Note_on_c, 1, 39, 0
4, 1440, Note_on_c, 1, 43, 64
4, 1485, Note_on_c, 1, 43, 0
4, 1488, Note_on_c, 1, 46, 64
4, 1533, Note_on_c, 1, 46, 0
4, 1584, Note_on_c, 1, 67, 64
4, 1629, Note_on_c, 1, 67, 0
4, 1632, Note_on_c, 1, 65, 64
4, 1677, Note_on_c, 1, 65, 0
4, 1680, Note_on_c, 1, 62, 64
4, 1725, Note_on_c, 1, 62, 0
4, 1776, Note_on_c, 1, 51, 64
4, 1821, Note_on_c, 1, 51, 0
4, 1824, Note_on_c, 1, 55, 64
4, 1869, Note_on_c, 1, 55, 0
4, 1872, Note_on_c, 1, 58, 64
4, 1917, Note_on_c, 1, 58, 0
4, 1920, Note_on_c, 1, 60, 64
4, 2016, Note_on_c, 1, 60, 0
4, 2016, Note_on_c, 1, 62, 64
4, 2105, Note_on_c, 1, 62, 0
4, 2160, Note_on_c, 1, 63, 64
4, 2205, Note_on_c, 1, 63, 0
4, 2208, Note_on_c, 1, 51, 64
4, 2253, Note_on_c, 1, 51, 0
4, 2256, Note_on_c, 1, 58, 64
4, 2301, Note_on_c, 1, 58, 0
4, 2304, Note_on_c, 1, 60, 64
4, 2400, Note_on_c, 1, 60, 0
4, 2400, Note_on_c, 1, 62, 64
4, 2489, Note_on_c, 1, 62, 0
4, 2496, Note_on_c, 1, 63, 64
4, 2585, Note_on_c, 1, 63, 0
4, 2640, Note_on_c, 1, 63, 64
4, 2640, Note_on_c, 1, 58, 64
4, 2640, Note_on_c, 1, 55, 64
4, 2685, Note_on_c, 1, 63, 0
4, 2685, Note_on_c, 1, 58, 0
4, 2685, Note_on_c, 1, 55, 0
4, 2736, Note_on_c, 1, 63, 64
4, 2736, Note_on_c, 1, 60, 64
4, 2736, Note_on_c, 1, 56, 64
4, 2781, Note_on_c, 1, 63, 0
4, 2781, Note_on_c, 1, 60, 0
4, 2781, Note_on_c, 1, 56, 0
4, 2832, Note_on_c, 1, 56, 64
4, 2832, Note_on_c, 1, 46, 64
4, 2877, Note_on_c, 1, 56, 0
4, 2877, Note_on_c, 1, 46, 0
4, 2880, Note_on_c, 1, 55, 64
4, 2880, Note_on_c, 1, 51, 64
4, 2925, Note_on_c, 1, 55, 0
4, 2925, Note_on_c, 1, 51, 0
4, 2928, Note_on_c, 1, 60, 64
4, 2928, Note_on_c, 1, 56, 64
4, 2973, Note_on_c, 1, 60, 0
4, 2973, Note_on_c, 1, 56, 0
4, 2976, Note_on_c, 1, 58, 64
4, 2976, Note_on_c, 1, 55, 64
4, 3021, Note_on_c, 1, 58, 0
4, 3021, Note_on_c, 1, 55, 0
4, 3024, Note_on_c, 1, 56, 64
4, 3024, Note_on_c, 1, 53, 64
4, 3069, Note_on_c, 1, 56, 0
4, 3069, Note_on_c, 1, 53, 0
4, 3072, Note_on_c, 1, 55, 64
4, 3072, Note_on_c, 1, 51, 64
4, 3117, Note_on_c, 1, 55, 0
4, 3117, Note_on_c, 1, 51, 0
4, 3120, Note_on_c, 1, 60, 64
4, 3120, Note_on_c, 1, 56, 64
4, 3165, Note_on_c, 1, 60, 0
4, 3165, Note_on_c, 1, 56, 0
4, 3168, Note_on_c, 1, 58, 64
4, 3168, Note_on_c, 1, 55, 64
4, 3213, Note_on_c, 1, 58, 0
4, 3213, Note_on_c, 1, 55, 0
4, 3216, Note_on_c, 1, 56, 64
4, 3216, Note_on_c, 1, 53, 64
4, 3261, Note_on_c, 1, 56, 0
4, 3261, Note_on_c, 1, 53, 0
4, 3264, Note_on_c, 1, 55, 64
4, 3264, Note_on_c, 1, 51, 64
4, 3309, Note_on_c, 1, 55, 0
4, 3309, Note_on_c, 1, 51, 0
4, 3312, Note_on_c, 1, 60, 64
4, 3312, Note_on_c, 1, 56, 64
4, 3357, Note_on_c, 1, 60, 0
4, 3357, Note_on_c, 1, 56, 0
4, 3360, Note_on_c, 1, 58, 64
4, 3360, Note_on_c, 1, 55, 64
4, 3405, Note_on_c, 1, 58, 0
4, 3405, Note_on_c, 1, 55, 0
4, 3408, Note_on_c, 1, 56, 64
4, 3408, Note_on_c, 1, 53, 64
4, 3453, Note_on_c, 1, 56, 0
4, 3453, Note_on_c, 1, 53, 0
4, 3456, Note_on_c, 1, 55, 64
4, 3456, Note_on_c, 1, 51, 64
4, 3545, Note_on_c, 1, 55, 0
4, 3545, Note_on_c, 1, 51, 0
4, 3648, Note_on_c, 1, 58, 64
4, 3648, Note_on_c, 1, 55, 64
4, 3648, Note_on_c, 1, 51, 64
4, 3737, Note_on_c, 1, 58, 0
4, 3737, Note_on_c, 1, 55, 0
4, 3737, Note_on_c, 1, 51, 0
4, 3840, Note_on_c, 1, 53, 64
4, 3840, Note_on_c, 1, 48, 64
4, 3840, Note_on_c, 1, 44, 64
4, 3929, Note_on_c, 1, 53, 0
4, 3929, Note_on_c, 1, 48, 0
4, 3929, Note_on_c, 1, 44, 0
4, 3984, Note_on_c, 1, 53, 64
4, 3984, Note_on_c, 1, 48, 64
4, 3984, Note_on_c, 1, 45, 64
4, 4029, Note_on_c, 1, 53, 0
4, 4029, Note_on_c, 1, 48, 0
4, 4029, Note_on_c, 1, 45, 0
4, 4032, Note_on_c, 1, 53, 64
4, 4032, Note_on_c, 1, 50, 64
4, 4032, Note_on_c, 1, 46, 64
4, 4121, Note_on_c, 1, 53, 0
4, 4121, Note_on_c, 1, 50, 0
4, 4121, Note_on_c, 1, 46, 0
4, 4128, Note_on_c, 1, 58, 64
4, 4143, Note_on_c, 1, 58, 0
4, 4164, Note_on_c, 1, 58, 64
4, 4176, Note_on_c, 1, 58, 0
4, 4176, Note_on_c, 1, 53, 64
4, 4191, Note_on_c, 1, 53, 0
4, 4212, Note_on_c, 1, 50, 64
4, 4224, Note_on_c, 1, 50, 0
4, 4224, Note_on_c, 1, 46, 64
4, 4269, Note_on_c, 1, 46, 0
4, 4320, Note_on_c, 1, 58, 64
4, 4335, Note_on_c, 1, 58, 0
4, 4356, Note_on_c, 1, 58, 64
4, 4368, Note_on_c, 1, 58, 0
4, 4368, Note_on_c, 1, 53, 64
4, 4383, Note_on_c, 1, 53, 0
4, 4404, Note_on_c, 1, 50, 64
4, 4416, Note_on_c, 1, 50, 0
4, 4416, Note_on_c, 1, 46, 64
4, 4461, Note_on_c, 1, 46, 0
4, 4656, Note_on_c, 1, 62, 64
4, 4656, Note_on_c, 1, 58, 64
4, 4701, Note_on_c, 1, 62, 0
4, 4701, Note_on_c, 1, 58, 0
4, 4704, Note_on_c, 1, 60, 64
4, 4704, Note_on_c, 1, 57, 64
4, 4749, Note_on_c, 1, 60, 0
4, 4749, Note_on_c, 1, 57, 0
4, 4752, Note_on_c, 1, 57, 64
4, 4752, Note_on_c, 1, 53, 64
4, 4797, Note_on_c, 1, 57, 0
4, 4797, Note_on_c, 1, 53, 0
4, 4848, Note_on_c, 1, 58, 64
4, 4848, Note_on_c, 1, 55, 64
4, 4893, Note_on_c, 1, 58, 0
4, 4893, Note_on_c, 1, 55, 0
4, 4896, Note_on_c, 1, 57, 64
4, 4896, Note_on_c, 1, 53, 64
4, 4941, Note_on_c, 1, 57, 0
4, 4941, Note_on_c, 1, 53, 0
4, 4944, Note_on_c, 1, 55, 64
4, 4944, Note_on_c, 1, 51, 64
4, 4989, Note_on_c, 1, 55, 0
4, 4989, Note_on_c, 1, 51, 0
4, 4992, Note_on_c, 1, 53, 64
4, 4992, Note_on_c, 1, 50, 64
4, 5081, Note_on_c, 1, 53, 0
4, 5081, Note_on_c, 1, 50, 0
4, 5136, Note_on_c, 1, 65, 64
4, 5136, Note_on_c, 1, 62, 64
4, 5181, Note_on_c, 1, 65, 0
4, 5181, Note_on_c, 1, 62, 0
4, 5184, Note_on_c, 1, 65, 64
4, 5184, Note_on_c, 1, 63, 64
4, 5229, Note_on_c, 1, 65, 0
4, 5229, Note_on_c, 1, 63, 0
4, 5232, Note_on_c, 1, 65, 64
4, 5232, Note_on_c, 1, 63, 64
4, 5277, Note_on_c, 1, 65, 0
4, 5277, Note_on_c, 1, 63, 0
4, 5280, Note_on_c, 1, 62, 64
4, 5303, Note_on_c, 1, 62, 0
4, 5304, Note_on_c, 1, 65, 64
4, 5327, Note_on_c, 1, 65, 0
4, 5328, Note_on_c, 1, 62, 64
4, 5351, Note_on_c, 1, 62, 0
4, 5352, Note_on_c, 1, 65, 64
4, 5375, Note_on_c, 1, 65, 0
4, 5376, Note_on_c, 1, 63, 64
4, 5399, Note_on_c, 1, 63, 0
4, 5400, Note_on_c, 1, 65, 65
4, 5423, Note_on_c, 1, 65, 0
4, 5424, Note_on_c, 1, 63, 66
4, 5447, Note_on_c, 1, 63, 0
4, 5448, Note_on_c, 1, 65, 67
4, 5471, Note_on_c, 1, 65, 0
4, 5472, Note_on_c, 1, 62, 68
4, 5495, Note_on_c, 1, 62, 0
4, 5496, Note_on_c, 1, 65, 70
4, 5519, Note_on_c, 1, 65, 0
4, 5520, Note_on_c, 1, 62, 71
4, 5543, Note_on_c, 1, 62, 0
4, 5544, Note_on_c, 1, 65, 72
4, 5567, Note_on_c, 1, 65, 0
4, 5568, Note_on_c, 1, 63, 73
4, 5591, Note_on_c, 1, 63, 0
4, 5592, Note_on_c, 1, 65, 75
4, 5615, Note_on_c, 1, 65, 0
4, 5616, Note_on_c, 1, 63, 76
4, 5639, Note_on_c, 1, 63, 0
4, 5640, Note_on_c, 1, 65, 77
4, 5663, Note_on_c, 1, 65, 0
4, 5664, Note_on_c, 1, 62, 78
4, 5687, Note_on_c, 1, 62, 0
4, 5688, Note_on_c, 1, 65, 80
4, 5711, Note_on_c, 1, 65, 0
4, 5712, Note_on_c, 1, 62, 81
4, 5735, Note_on_c, 1, 62, 0
4, 5736, Note_on_c, 1, 65, 82
4, 5759, Note_on_c, 1, 65, 0
4, 5760, Note_on_c, 1, 63, 83
4, 5783, Note_on_c, 1, 63, 0
4, 5784, Note_on_c, 1, 65, 85
4, 5807, Note_on_c, 1, 65, 0
4, 5808, Note_on_c, 1, 63, 85
4, 5831, Note_on_c, 1, 63, 0
4, 5832, Note_on_c, 1, 65, 85
4, 5855, Note_on_c, 1, 65, 0
4, 5856, Note_on_c, 1, 62, 85
4, 5879, Note_on_c, 1, 62, 0
4, 5880, Note_on_c, 1, 65, 85
4, 5903, Note_on_c, 1, 65, 0
4, 5904, Note_on_c, 1, 62, 85
4, 5927, Note_on_c, 1, 62, 0
4, 5928, Note_on_c, 1, 65, 85
4, 5951, Note_on_c, 1, 65, 0
4, 5952, Note_on_c, 1, 67, 85
4, 6129, Note_on_c, 1, 67, 0
4, 6144, Note_on_c, 1, 70, 85
4, 6233, Note_on_c, 1, 70, 0
4, 6240, Note_on_c, 1, 69, 85
4, 6329, Note_on_c, 1, 69, 0
4, 6336, Note_on_c, 1, 70, 85
4, 6513, Note_on_c, 1, 70, 0
4, 6528, Note_on_c, 1, 70, 74
4, 6705, Note_on_c, 1, 70, 0
4, 6720, Note_on_c, 1, 70, 64
4, 6765, Note_on_c, 1, 70, 0
4, 6768, Note_on_c, 1, 69, 64
4, 6813, Note_on_c, 1, 69, 0
4, 6912, Note_on_c, 1, 58, 85
4, 6912, Note_on_c, 1, 53, 85
4, 6912, Note_on_c, 1, 50, 85
4, 6912, Note_on_c, 1, 46, 85
4, 6957, Note_on_c, 1, 58, 0
4, 6957, Note_on_c, 1, 53, 0
4, 6957, Note_on_c, 1, 50, 0
4, 6957, Note_on_c, 1, 46, 0
4, 7008, Note_on_c, 1, 58, 85
4, 7008, Note_on_c, 1, 53, 85
4, 7008, Note_on_c, 1, 50, 85
4, 7008, Note_on_c, 1, 46, 85
4, 7053, Note_on_c, 1, 58, 0
4, 7053, Note_on_c, 1, 53, 0
4, 7053, Note_on_c, 1, 50, 0
4, 7053, Note_on_c, 1, 46, 0
4, 7104, Note_on_c, 1, 58, 85
4, 7104, Note_on_c, 1, 53, 85
4, 7104, Note_on_c, 1, 50, 85
4, 7104, Note_on_c, 1, 46, 85
4, 7149, Note_on_c, 1, 58, 0
4, 7149, Note_on_c, 1, 53, 0
4, 7149, Note_on_c, 1, 50, 0
4, 7149, Note_on_c, 1, 46, 0
4, 7296, Note_on_c, 1, 74, 64
4, 7296, Note_on_c, 1, 70, 64
4, 7341, Note_on_c, 1, 74, 0
4, 7341, Note_on_c, 1, 70, 0
4, 7392, Note_on_c, 1, 72, 64
4, 7392, Note_on_c, 1, 70, 64
4, 7437, Note_on_c, 1, 72, 0
4, 7437, Note_on_c, 1, 70, 0
4, 7488, Note_on_c, 1, 72, 64
4, 7488, Note_on_c, 1, 69, 64
4, 7621, Note_on_c, 1, 72, 0
4, 7621, Note_on_c, 1, 69, 0
4, 7632, Note_on_c, 1, 70, 64
4, 7677, Note_on_c, 1, 70, 0
4, 7680, Note_on_c, 1, 70, 64
4, 7680, Note_on_c, 1, 63, 64
4, 7769, Note_on_c, 1, 70, 0
4, 7769, Note_on_c, 1, 63, 0
4, 7776, Note_on_c, 1, 69, 64
4, 7821, Note_on_c, 1, 69, 0
4, 7824, Note_on_c, 1, 66, 64
4, 7869, Note_on_c, 1, 66, 0
4, 7872, Note_on_c, 1, 67, 64
4, 7961, Note_on_c, 1, 67, 0
4, 8064, Note_on_c, 1, 74, 64
4, 8064, Note_on_c, 1, 70, 64
4, 8109, Note_on_c, 1, 74, 0
4, 8109, Note_on_c, 1, 70, 0
4, 8160, Note_on_c, 1, 72, 64
4, 8160, Note_on_c, 1, 70, 64
4, 8205, Note_on_c, 1, 72, 0
4, 8205, Note_on_c, 1, 70, 0
4, 8256, Note_on_c, 1, 72, 64
4, 8256, Note_on_c, 1, 69, 64
4, 8389, Note_on_c, 1, 72, 0
4, 8389, Note_on_c, 1, 69, 0
4, 8400, Note_on_c, 1, 70, 64
4, 8445, Note_on_c, 1, 70, 0
4, 8448, Note_on_c, 1, 70, 64
4, 8493, Note_on_c, 1, 70, 0
4, 8496, Note_on_c, 1, 71, 64
4, 8544, Note_on_c, 1, 71, 0
4, 8544, Note_on_c, 1, 72, 64
4, 8677, Note_on_c, 1, 72, 0
4, 8688, Note_on_c, 1, 72, 58
4, 8736, Note_on_c, 1, 75, 58
4, 9069, Note_on_c, 1, 75, 0
4, 9069, Note_on_c, 1, 72, 0
4, 9216, Note_on_c, 1, 58, 85
4, 9216, Note_on_c, 1, 53, 85
4, 9216, Note_on_c, 1, 50, 85
4, 9216, Note_on_c, 1, 46, 85
4, 9305, Note_on_c, 1, 58, 0
4, 9305, Note_on_c, 1, 53, 0
4, 9305, Note_on_c, 1, 50, 0
4, 9305, Note_on_c, 1, 46, 0
4, 9408, Note_on_c, 1, 55, 85
4, 9408, Note_on_c, 1, 50, 85
4, 9408, Note_on_c, 1, 46, 85
4, 9408, Note_on_c, 1, 43, 85
4, 9497, Note_on_c, 1, 55, 0
4, 9497, Note_on_c, 1, 50, 0
4, 9497, Note_on_c, 1, 46, 0
4, 9497, Note_on_c, 1, 43, 0
4, 9600, Note_on_c, 1, 51, 85
4, 9600, Note_on_c, 1, 48, 85
4, 9600, Note_on_c, 1, 43, 85
4, 9600, Note_on_c, 1, 39, 85
4, 9689, Note_on_c, 1, 51, 0
4, 9689, Note_on_c, 1, 48, 0
4, 9689, Note_on_c, 1, 43, 0
4, 9689, Note_on_c, 1, 39, 0
4, 9792, Note_on_c, 1, 62, 85
4, 9792, Note_on_c, 1, 58, 85
4, 9792, Note_on_c, 1, 53, 85
4, 9881, Note_on_c, 1, 62, 0
4, 9881, Note_on_c, 1, 58, 0
4, 9881, Note_on_c, 1, 53, 0
4, 9984, Note_on_c, 1, 74, 85
4, 9993, Note_on_c, 1, 74, 0
4, 9993, Note_on_c, 1, 72, 85
4, 10002, Note_on_c, 1, 72, 0
4, 10002, Note_on_c, 1, 74, 85
4, 10011, Note_on_c, 1, 74, 0
4, 10011, Note_on_c, 1, 72, 85
4, 10020, Note_on_c, 1, 72, 0
4, 10020, Note_on_c, 1, 74, 85
4, 10029, Note_on_c, 1, 74, 0
4, 10029, Note_on_c, 1, 72, 85
4, 10038, Note_on_c, 1, 72, 0
4, 10038, Note_on_c, 1, 74, 85
4, 10047, Note_on_c, 1, 74, 0
4, 10047, Note_on_c, 1, 72, 85
4, 10056, Note_on_c, 1, 72, 0
4, 10056, Note_on_c, 1, 74, 85
4, 10065, Note_on_c, 1, 74, 0
4, 10065, Note_on_c, 1, 72, 85
4, 10074, Note_on_c, 1, 72, 0
4, 10074, Note_on_c, 1, 74, 85
4, 10083, Note_on_c, 1, 74, 0
4, 10083, Note_on_c, 1, 72, 85
4, 10092, Note_on_c, 1, 72, 0
4, 10092, Note_on_c, 1, 74, 85
4, 10101, Note_on_c, 1, 74, 0
4, 10101, Note_on_c, 1, 72, 85
4, 10110, Note_on_c, 1, 72, 0
4, 10110, Note_on_c, 1, 74, 85
4, 10119, Note_on_c, 1, 74, 0
4, 10119, Note_on_c, 1, 72, 85
4, 10128, Note_on_c, 1, 72, 0
4, 10128, Note_on_c, 1, 74, 85
4, 10136, Note_on_c, 1, 74, 0
4, 10136, Note_on_c, 1, 72, 85
4, 10144, Note_on_c, 1, 72, 0
4, 10144, Note_on_c, 1, 74, 85
4, 10152, Note_on_c, 1, 74, 0
4, 10152, Note_on_c, 1, 72, 85
4, 10160, Note_on_c, 1, 72, 0
4, 10160, Note_on_c, 1, 70, 85
4, 10168, Note_on_c, 1, 70, 0
4, 10168, Note_on_c, 1, 72, 85
4, 10176, Note_on_c, 1, 72, 0
4, 10176, Note_on_c, 1, 74, 85
4, 10176, Note_on_c, 1, 70, 85
4, 10221, Note_on_c, 1, 74, 0
4, 10221, Note_on_c, 1, 70, 0
4, 10368, Note_on_c, 1, 70, 85
4, 10413, Note_on_c, 1, 70, 0
4, 10416, Note_on_c, 1, 58, 85
4, 10416, Note_on_c, 1, 53, 85
4, 10416, Note_on_c, 1, 50, 85
4, 10461, Note_on_c, 1, 58, 0
4, 10461, Note_on_c, 1, 53, 0
4, 10461, Note_on_c, 1, 50, 0
4, 10464, Note_on_c, 1, 58, 85
4, 10464, Note_on_c, 1, 55, 85
4, 10464, Note_on_c, 1, 51, 85
4, 10509, Note_on_c, 1, 58, 0
4, 10509, Note_on_c, 1, 55, 0
4, 10509, Note_on_c, 1, 51, 0
4, 10512, Note_on_c, 1, 57, 85
4, 10512, Note_on_c, 1, 53, 85
4, 10557, Note_on_c, 1, 57, 0
4, 10557, Note_on_c, 1, 53, 0
4, 10560, Note_on_c, 1, 58, 85
4, 10560, Note_on_c, 1, 53, 85
4, 10560, Note_on_c, 1, 50, 85
4, 10560, Note_on_c, 1, 46, 85
4, 10649, Note_on_c, 1, 58, 0
4, 10649, Note_on_c, 1, 53, 0
4, 10649, Note_on_c, 1, 50, 0
4, 10649, Note_on_c, 1, 46, 0
4, 10800, Note_on_c, 1, 51, 64
4, 10845, Note_on_c, 1, 51, 0
4, 10848, Note_on_c, 1, 50, 64
4, 10893, Note_on_c, 1, 50, 0
4, 10896, Note_on_c, 1, 46, 64
4, 10941, Note_on_c, 1, 46, 0
4, 10992, Note_on_c, 1, 51, 64
4, 11037, Note_on_c, 1, 51, 0
4, 11040, Note_on_c, 1, 55, 64
4, 11085, Note_on_c, 1, 55, 0
4, 11088, Note_on_c, 1, 58, 64
4, 11133, Note_on_c, 1, 58, 0
4, 11136, Note_on_c, 1, 60, 64
4, 11232, Note_on_c, 1, 60, 0
4, 11232, Note_on_c, 1, 62, 64
4, 11321, Note_on_c, 1, 62, 0
4, 11376, Note_on_c, 1, 63, 64
4, 11421, Note_on_c, 1, 63, 0
4, 11424, Note_on_c, 1, 51, 64
4, 11469, Note_on_c, 1, 51, 0
4, 11472, Note_on_c, 1, 58, 64
4, 11517, Note_on_c, 1, 58, 0
4, 11520, Note_on_c, 1, 60, 64
4, 11616, Note_on_c, 1, 60, 0
4, 11616, Note_on_c, 1, 62, 64
4, 11705, Note_on_c, 1, 62, 0
4, 11712, Note_on_c, 1, 63, 64
4, 11801, Note_on_c, 1, 63, 0
4, 11856, Note_on_c, 1, 58, 64
4, 11856, Note_on_c, 1, 55, 64
4, 11901, Note_on_c, 1, 58, 0
4, 11901, Note_on_c, 1, 55, 0
4, 11952, Note_on_c, 1, 60, 64
4, 11952, Note_on_c, 1, 56, 64
4, 11997, Note_on_c, 1, 60, 0
4, 11997, Note_on_c, 1, 56, 0
4, 12048, Note_on_c, 1, 56, 64
4, 12048, Note_on_c, 1, 46, 64
4, 12093, Note_on_c, 1, 56, 0
4, 12093, Note_on_c, 1, 46, 0
4, 12144, Note_on_c, 1, 39, 64
4, 12189, Note_on_c, 1, 39, 0
4, 12192, Note_on_c, 1, 43, 64
4, 12237, Note_on_c, 1, 43, 0
4, 12240, Note_on_c, 1, 46, 64
4, 12285, Note_on_c, 1, 46, 0
4, 12336, Note_on_c, 1, 67, 64
4, 12381, Note_on_c, 1, 67, 0
4, 12384, Note_on_c, 1, 65, 64
4, 12429, Note_on_c, 1, 65, 0
4, 12432, Note_on_c, 1, 62, 64
4, 12477, Note_on_c, 1, 62, 0
4, 12528, Note_on_c, 1, 51, 64
4, 12573, Note_on_c, 1, 51, 0
4, 12576, Note_on_c, 1, 55, 64
4, 12621, Note_on_c, 1, 55, 0
4, 12624, Note_on_c, 1, 58, 64
4, 12669, Note_on_c, 1, 58, 0
4, 12672, Note_on_c, 1, 60, 64
4, 12768, Note_on_c, 1, 60, 0
4, 12768, Note_on_c, 1, 62, 64
4, 12857, Note_on_c, 1, 62, 0
4, 12912, Note_on_c, 1, 63, 64
4, 12957, Note_on_c, 1, 63, 0
4, 12960, Note_on_c, 1, 51, 64
4, 13005, Note_on_c, 1, 51, 0
4, 13008, Note_on_c, 1, 58, 64
4, 13053, Note_on_c, 1, 58, 0
4, 13056, Note_on_c, 1, 60, 64
4, 13152, Note_on_c, 1, 60, 0
4, 13152, Note_on_c, 1, 62, 64
4, 13241, Note_on_c, 1, 62, 0
4, 13248, Note_on_c, 1, 63, 64
4, 13337, Note_on_c, 1, 63, 0
4, 13392, Note_on_c, 1, 63, 64
4, 13392, Note_on_c, 1, 58, 64
4, 13392, Note_on_c, 1, 55, 64
4, 13437, Note_on_c, 1, 63, 0
4, 13437, Note_on_c, 1, 58, 0
4, 13437, Note_on_c, 1, 55, 0
4, 13488, Note_on_c, 1, 63, 64
4, 13488, Note_on_c, 1, 60, 64
4, 13488, Note_on_c, 1, 56, 64
4, 13533, Note_on_c, 1, 63, 0
4, 13533, Note_on_c, 1, 60, 0
4, 13533, Note_on_c, 1, 56, 0
4, 13584, Note_on_c, 1, 56, 64
4, 13584, Note_on_c, 1, 46, 64
4, 13629, Note_on_c, 1, 56, 0
4, 13629, Note_on_c, 1, 46, 0
4, 13632, Note_on_c, 1, 55, 64
4, 13632, Note_on_c, 1, 51, 64
4, 13677, Note_on_c, 1, 55, 0
4, 13677, Note_on_c, 1, 51, 0
4, 13680, Note_on_c, 1, 60, 64
4, 13680, Note_on_c, 1, 56, 64
4, 13725, Note_on_c, 1, 60, 0
4, 13725, Note_on_c, 1, 56, 0
4, 13728, Note_on_c, 1, 58, 64
4, 13728, Note_on_c, 1, 55, 64
4, 13773, Note_on_c, 1, 58, 0
4, 13773, Note_on_c, 1, 55, 0
4, 13776, Note_on_c, 1, 56, 64
4, 13776, Note_on_c, 1, 53, 64
4, 13821, Note_on_c, 1, 56, 0
4, 13821, Note_on_c, 1, 53, 0
4, 13824, Note_on_c, 1, 55, 64
4, 13824, Note_on_c, 1, 51, 64
4, 13869, Note_on_c, 1, 55, 0
4, 13869, Note_on_c, 1, 51, 0
4, 13872, Note_on_c, 1, 60, 64
4, 13872, Note_on_c, 1, 56, 64
4, 13917, Note_on_c, 1, 60, 0
4, 13917, Note_on_c, 1, 56, 0
4, 13920, Note_on_c, 1, 58, 64
4, 13920, Note_on_c, 1, 55, 64
4, 13965, Note_on_c, 1, 58, 0
4, 13965, Note_on_c, 1, 55, 0
4, 13968, Note_on_c, 1, 56, 64
4, 13968, Note_on_c, 1, 53, 64
4, 14013, Note_on_c, 1, 56, 0
4, 14013, Note_on_c, 1, 53, 0
4, 14016, Note_on_c, 1, 55, 64
4, 14016, Note_on_c, 1, 51, 64
4, 14061, Note_on_c, 1, 55, 0
4, 14061, Note_on_c, 1, 51, 0
4, 14064, Note_on_c, 1, 60, 64
4, 14064, Note_on_c, 1, 56, 64
4, 14109, Note_on_c, 1, 60, 0
4, 14109, Note_on_c, 1, 56, 0
4, 14112, Note_on_c, 1, 58, 64
4, 14112, Note_on_c, 1, 55, 64
4, 14157, Note_on_c, 1, 58, 0
4, 14157, Note_on_c, 1, 55, 0
4, 14160, Note_on_c, 1, 56, 64
4, 14160, Note_on_c, 1, 53, 64
4, 14205, Note_on_c, 1, 56, 0
4, 14205, Note_on_c, 1, 53, 0
4, 14208, Note_on_c, 1, 55, 64
4, 14208, Note_on_c, 1, 51, 64
4, 14297, Note_on_c, 1, 55, 0
4, 14297, Note_on_c, 1, 51, 0
4, 14400, Note_on_c, 1, 58, 64
4, 14400, Note_on_c, 1, 55, 64
4, 14400, Note_on_c, 1, 51, 64
4, 14489, Note_on_c, 1, 58, 0
4, 14489, Note_on_c, 1, 55, 0
4, 14489, Note_on_c, 1, 51, 0
4, 14592, Note_on_c, 1, 53, 64
4, 14592, Note_on_c, 1, 48, 64
4, 14592, Note_on_c, 1, 44, 64
4, 14681, Note_on_c, 1, 53, 0
4, 14681, Note_on_c, 1, 48, 0
4, 14681, Note_on_c, 1, 44, 0
4, 14736, Note_on_c, 1, 53, 64
4, 14736, Note_on_c, 1, 48, 64
4, 14736, Note_on_c, 1, 45, 64
4, 14781, Note_on_c, 1, 53, 0
4, 14781, Note_on_c, 1, 48, 0
4, 14781, Note_on_c, 1, 45, 0
4, 14784, Note_on_c, 1, 53, 64
4, 14784, Note_on_c, 1, 50, 64
4, 14784, Note_on_c, 1, 46, 64
4, 14873, Note_on_c, 1, 53, 0
4, 14873, Note_on_c, 1, 50, 0
4, 14873, Note_on_c, 1, 46, 0
4, 14880, Note_on_c, 1, 58, 64
4, 14895, Note_on_c, 1, 58, 0
4, 14916, Note_on_c, 1, 58, 64
4, 14928, Note_on_c, 1, 58, 0
4, 14928, Note_on_c, 1, 53, 64
4, 14943, Note_on_c, 1, 53, 0
4, 14964, Note_on_c, 1, 50, 64
4, 14976, Note_on_c, 1, 50, 0
4, 14976, Note_on_c, 1, 46, 64
4, 15021, Note_on_c, 1, 46, 0
4, 15072, Note_on_c, 1, 58, 64
4, 15087, Note_on_c, 1, 58, 0
4, 15108, Note_on_c, 1, 58, 64
4, 15120, Note_on_c, 1, 58, 0
4, 15120, Note_on_c, 1, 53, 64
4, 15135, Note_on_c, 1, 53, 0
4, 15156, Note_on_c, 1, 50, 64
4, 15168, Note_on_c, 1, 50, 0
4, 15168, Note_on_c, 1, 46, 64
4, 15213, Note_on_c, 1, 46, 0
4, 15408, Note_on_c, 1, 62, 64
4, 15408, Note_on_c, 1, 58, 64
4, 15453, Note_on_c, 1, 62, 0
4, 15453, Note_on_c, 1, 58, 0
4, 15456, Note_on_c, 1, 60, 64
4, 15456, Note_on_c, 1, 57, 64
4, 15501, Note_on_c, 1, 60, 0
4, 15501, Note_on_c, 1, 57, 0
4, 15504, Note_on_c, 1, 57, 64
4, 15504, Note_on_c, 1, 53, 64
4, 15549, Note_on_c, 1, 57, 0
4, 15549, Note_on_c, 1, 53, 0
4, 15600, Note_on_c, 1, 58, 64
4, 15600, Note_on_c, 1, 55, 64
4, 15645, Note_on_c, 1, 58, 0
4, 15645, Note_on_c, 1, 55, 0
4, 15648, Note_on_c, 1, 57, 64
4, 15648, Note_on_c, 1, 53, 64
4, 15693, Note_on_c, 1, 57, 0
4, 15693, Note_on_c, 1, 53, 0
4, 15696, Note_on_c, 1, 55, 64
4, 15696, Note_on_c, 1, 51, 64
4, 15741, Note_on_c, 1, 55, 0
4, 15741, Note_on_c, 1, 51, 0
4, 15744, Note_on_c, 1, 53, 64
4, 15744, Note_on_c, 1, 50, 64
4, 15833, Note_on_c, 1, 53, 0
4, 15833, Note_on_c, 1, 50, 0
4, 15888, Note_on_c, 1, 65, 64
4, 15888, Note_on_c, 1, 62, 64
4, 15933, Note_on_c, 1, 65, 0
4, 15933, Note_on_c, 1, 62, 0
4, 15936, Note_on_c, 1, 65, 64
4, 15936, Note_on_c, 1, 63, 64
4, 15981, Note_on_c, 1, 65, 0
4, 15981, Note_on_c, 1, 63, 0
4, 15984, Note_on_c, 1, 65, 64
4, 15984, Note_on_c, 1, 63, 64
4, 16029, Note_on_c, 1, 65, 0
4, 16029, Note_on_c, 1, 63, 0
4, 16032, Note_on_c, 1, 62, 64
4, 16055, Note_on_c, 1, 62, 0
4, 16056, Note_on_c, 1, 65, 64
4, 16079, Note_on_c, 1, 65, 0
4, 16080, Note_on_c, 1, 62, 64
4, 16103, Note_on_c, 1, 62, 0
4, 16104, Note_on_c, 1, 65, 64
4, 16127, Note_on_c, 1, 65, 0
4, 16128, Note_on_c, 1, 63, 64
4, 16151, Note_on_c, 1, 63, 0
4, 16152, Note_on_c, 1, 65, 65
4, 16175, Note_on_c, 1, 65, 0
4, 16176, Note_on_c, 1, 63, 66
4, 16199, Note_on_c, 1, 63, 0
4, 16200, Note_on_c, 1, 65, 67
4, 16223, Note_on_c, 1, 65, 0
4, 16224, Note_on_c, 1, 62, 68
4, 16247, Note_on_c, 1, 62, 0
4, 16248, Note_on_c, 1, 65, 70
4, 16271, Note_on_c, 1, 65, 0
4, 16272, Note_on_c, 1, 62, 71
4, 16295, Note_on_c, 1, 62, 0
4, 16296, Note_on_c, 1, 65, 72
4, 16319, Note_on_c, 1, 65, 0
4, 16320, Note_on_c, 1, 63, 73
4, 16343, Note_on_c, 1, 63, 0
4, 16344, Note_on_c, 1, 65, 75
4, 16367, Note_on_c, 1, 65, 0
4, 16368, Note_on_c, 1, 63, 76
4, 16391, Note_on_c, 1, 63, 0
4, 16392, Note_on_c, 1, 65, 77
4, 16415, Note_on_c, 1, 65, 0
4, 16416, Note_on_c, 1, 62, 78
4, 16439, Note_on_c, 1, 62, 0
4, 16440, Note_on_c, 1, 65, 80
4, 16463, Note_on_c, 1, 65, 0
4, 16464, Note_on_c, 1, 62, 81
4, 16487, Note_on_c, 1, 62, 0
4, 16488, Note_on_c, 1, 65, 82
4, 16511, Note_on_c, 1, 65, 0
4, 16512, Note_on_c, 1, 63, 83
4, 16535, Note_on_c, 1, 63, 0
4, 16536, Note_on_c, 1, 65, 85
4, 16559, Note_on_c, 1, 65, 0
4, 16560, Note_on_c, 1, 63, 85
4, 16583, Note_on_c, 1, 63, 0
4, 16584, Note_on_c, 1, 65, 85
4, 16607, Note_on_c, 1, 65, 0
4, 16608, Note_on_c, 1, 62, 85
4, 16631, Note_on_c, 1, 62, 0
4, 16632, Note_on_c, 1, 65, 85
4, 16655, Note_on_c, 1, 65, 0
4, 16656, Note_on_c, 1, 62, 85
4, 16679, Note_on_c, 1, 62, 0
4, 16680, Note_on_c, 1, 65, 85
4, 16703, Note_on_c, 1, 65, 0
4, 16704, Note_on_c, 1, 67, 85
4, 16881, Note_on_c, 1, 67, 0
4, 16896, Note_on_c, 1, 70, 85
4, 16985, Note_on_c, 1, 70, 0
4, 16992, Note_on_c, 1, 69, 85
4, 17081, Note_on_c, 1, 69, 0
4, 17088, Note_on_c, 1, 70, 85
4, 17265, Note_on_c, 1, 70, 0
4, 17280, Note_on_c, 1, 70, 74
4, 17457, Note_on_c, 1, 70, 0
4, 17472, Note_on_c, 1, 70, 64
4, 17517, Note_on_c, 1, 70, 0
4, 17520, Note_on_c, 1, 69, 64
4, 17565, Note_on_c, 1, 69, 0
4, 17664, Note_on_c, 1, 58, 85
4, 17664, Note_on_c, 1, 53, 85
4, 17664, Note_on_c, 1, 50, 85
4, 17664, Note_on_c, 1, 46, 85
4, 17709, Note_on_c, 1, 58, 0
4, 17709, Note_on_c, 1, 53, 0
4, 17709, Note_on_c, 1, 50, 0
4, 17709, Note_on_c, 1, 46, 0
4, 17760, Note_on_c, 1, 58, 85
4, 17760, Note_on_c, 1, 53, 85
4, 17760, Note_on_c, 1, 50, 85
4, 17760, Note_on_c, 1, 46, 85
4, 17805, Note_on_c, 1, 58, 0
4, 17805, Note_on_c, 1, 53, 0
4, 17805, Note_on_c, 1, 50, 0
4, 17805, Note_on_c, 1, 46, 0
4, 17856, Note_on_c, 1, 58, 85
4, 17856, Note_on_c, 1, 53, 85
4, 17856, Note_on_c, 1, 50, 85
4, 17856, Note_on_c, 1, 46, 85
4, 17901, Note_on_c, 1, 58, 0
4, 17901, Note_on_c, 1, 53, 0
4, 17901, Note_on_c, 1, 50, 0
4, 17901, Note_on_c, 1, 46, 0
4, 18048, Note_on_c, 1, 74, 64
4, 18048, Note_on_c, 1, 70, 64
4, 18093, Note_on_c, 1, 74, 0
4, 18093, Note_on_c, 1, 70, 0
4, 18144, Note_on_c, 1, 72, 64
4, 18144, Note_on_c, 1, 70, 64
4, 18189, Note_on_c, 1, 72, 0
4, 18189, Note_on_c, 1, 70, 0
4, 18240, Note_on_c, 1, 72, 64
4, 18240, Note_on_c, 1, 69, 64
4, 18373, Note_on_c, 1, 72, 0
4, 18373, Note_on_c, 1, 69, 0
4, 18384, Note_on_c, 1, 70, 64
4, 18429, Note_on_c, 1, 70, 0
4, 18432, Note_on_c, 1, 70, 64
4, 18432, Note_on_c, 1, 63, 64
4, 18521, Note_on_c, 1, 70, 0
4, 18521, Note_on_c, 1, 63, 0
4, 18528, Note_on_c, 1, 69, 64
4, 18573, Note_on_c, 1, 69, 0
4, 18576, Note_on_c, 1, 66, 64
4, 18621, Note_on_c, 1, 66, 0
4, 18624, Note_on_c, 1, 67, 64
4, 18713, Note_on_c, 1, 67, 0
4, 18816, Note_on_c, 1, 74, 64
4, 18816, Note_on_c, 1, 70, 64
4, 18861, Note_on_c, 1, 74, 0
4, 18861, Note_on_c, 1, 70, 0
4, 18912, Note_on_c, 1, 72, 64
4, 18912, Note_on_c, 1, 70, 64
4, 18957, Note_on_c, 1, 72, 0
4, 18957, Note_on_c, 1, 70, 0
4, 19008, Note_on_c, 1, 72, 64
4, 19008, Note_on_c, 1, 69, 64
4, 19141, Note_on_c, 1, 72, 0
4, 19141, Note_on_c, 1, 69, 0
4, 19152, Note_on_c, 1, 70, 64
4, 19197, Note_on_c, 1, 70, 0
4, 19200, Note_on_c, 1, 70, 64
4, 19245, Note_on_c, 1, 70, 0
4, 19248, Note_on_c, 1, 71, 64
4, 19296, Note_on_c, 1, 71, 0
4, 19296, Note_on_c, 1, 72, 64
4, 19429, Note_on_c, 1, 72, 0
4, 19440, Note_on_c, 1, 72, 58
4, 19488, Note_on_c, 1, 75, 58
4, 19821, Note_on_c, 1, 75, 0
4, 19821, Note_on_c, 1, 72, 0
4, 19968, Note_on_c, 1, 58, 85
4, 19968, Note_on_c, 1, 53, 85
4, 19968, Note_on_c, 1, 50, 85
4, 19968, Note_on_c, 1, 46, 85
4, 20057, Note_on_c, 1, 58, 0
4, 20057, Note_on_c, 1, 53, 0
4, 20057, Note_on_c, 1, 50, 0
4, 20057, Note_on_c, 1, 46, 0
4, 20160, Note_on_c, 1, 55, 85
4, 20160, Note_on_c, 1, 50, 85
4, 20160, Note_on_c, 1, 46, 85
4, 20160, Note_on_c, 1, 43, 85
4, 20249, Note_on_c, 1, 55, 0
4, 20249, Note_on_c, 1, 50, 0
4, 20249, Note_on_c, 1, 46, 0
4, 20249, Note_on_c, 1, 43, 0
4, 20352, Note_on_c, 1, 51, 85
4, 20352, Note_on_c, 1, 48, 85
4, 20352, Note_on_c, 1, 43, 85
4, 20352, Note_on_c, 1, 39, 85
4, 20441, Note_on_c, 1, 51, 0
4, 20441, Note_on_c, 1, 48, 0
4, 20441, Note_on_c, 1, 43, 0
4, 20441, Note_on_c, 1, 39, 0
4, 20544, Note_on_c, 1, 62, 85
4, 20544, Note_on_c, 1, 58, 85
4, 20544, Note_on_c, 1, 53, 85
4, 20633, Note_on_c, 1, 62, 0
4, 20633, Note_on_c, 1, 58, 0
4, 20633, Note_on_c, 1, 53, 0
4, 20736, Note_on_c, 1, 74, 85
4, 20745, Note_on_c, 1, 74, 0
4, 20745, Note_on_c, 1, 72, 85
4, 20754, Note_on_c, 1, 72, 0
4, 20754, Note_on_c, 1, 74, 85
4, 20763, Note_on_c, 1, 74, 0
4, 20763, Note_on_c, 1, 72, 85
4, 20772, Note_on_c, 1, 72, 0
4, 20772, Note_on_c, 1, 74, 85
4, 20781, Note_on_c, 1, 74, 0
4, 20781, Note_on_c, 1, 72, 85
4, 20790, Note_on_c, 1, 72, 0
4, 20790, Note_on_c, 1, 74, 85
4, 20799, Note_on_c, 1, 74, 0
4, 20799, Note_on_c, 1, 72, 85
4, 20808, Note_on_c, 1, 72, 0
4, 20808, Note_on_c, 1, 74, 85
4, 20817, Note_on_c, 1, 74, 0
4, 20817, Note_on_c, 1, 72, 85
4, 20826, Note_on_c, 1, 72, 0
4, 20826, Note_on_c, 1, 74, 85
4, 20835, Note_on_c, 1, 74, 0
4, 20835, Note_on_c, 1, 72, 85
4, 20844, Note_on_c, 1, 72, 0
4, 20844, Note_on_c, 1, 74, 85
4, 20853, Note_on_c, 1, 74, 0
4, 20853, Note_on_c, 1, 72, 85
4, 20862, Note_on_c, 1, 72, 0
4, 20862, Note_on_c, 1, 74, 85
4, 20871, Note_on_c, 1, 74, 0
4, 20871, Note_on_c, 1, 72, 85
4, 20880, Note_on_c, 1, 72, 0
4, 20880, Note_on_c, 1, 74, 85
4, 20888, Note_on_c, 1, 74, 0
4, 20888, Note_on_c, 1, 72, 85
4, 20896, Note_on_c, 1, 72, 0
4, 20896, Note_on_c, 1, 74, 85
4, 20904, Note_on_c, 1, 74, 0
4, 20904, Note_on_c, 1, 72, 85
4, 20912, Note_on_c, 1, 72, 0
4, 20912, Note_on_c, 1, 70, 85
4, 20920, Note_on_c, 1, 70, 0
4, 20920, Note_on_c, 1, 72, 85
4, 20928, Note_on_c, 1, 72, 0
4, 20928, Note_on_c, 1, 74, 85
4, 20928, Note_on_c, 1, 70, 85
4, 20973, Note_on_c, 1, 74, 0
4, 20973, Note_on_c, 1, 70, 0
4, 21120, Note_on_c, 1, 70, 85
4, 21165, Note_on_c, 1, 70, 0
4, 21168, Note_on_c, 1, 58, 85
4, 21168, Note_on_c, 1, 53, 85
4, 21168, Note_on_c, 1, 50, 85
4, 21213, Note_on_c, 1, 58, 0
4, 21213, Note_on_c, 1, 53, 0
4, 21213, Note_on_c, 1, 50, 0
4, 21216, Note_on_c, 1, 58, 85
4, 21216, Note_on_c, 1, 55, 85
4, 21216, Note_on_c, 1, 51, 85
4, 21261, Note_on_c, 1, 58, 0
4, 21261, Note_on_c, 1, 55, 0
4, 21261, Note_on_c, 1, 51, 0
4, 21264, Note_on_c, 1, 57, 85
4, 21264, Note_on_c, 1, 53, 85
4, 21309, Note_on_c, 1, 57, 0
4, 21309, Note_on_c, 1, 53, 0
4, 21312, Note_on_c, 1, 58, 85
4, 21312, Note_on_c, 1, 53, 85
4, 21312, Note_on_c, 1, 50, 85
4, 21312, Note_on_c, 1, 46, 85
4, 21401, Note_on_c, 1, 58, 0
4, 21401, Note_on_c, 1, 53, 0
4, 21401, Note_on_c, 1, 50, 0
4, 21401, Note_on_c, 1, 46, 0
4, 21552, Note_on_c, 1, 55, 78
4, 21597, Note_on_c, 1, 55, 0
4, 21600, Note_on_c, 1, 55, 78
4, 21645, Note_on_c, 1, 55, 0
4, 21648, Note_on_c, 1, 55, 78
4, 21693, Note_on_c, 1, 55, 0
4, 21696, Note_on_c, 1, 55, 78
4, 21741, Note_on_c, 1, 55, 0
4, 21744, Note_on_c, 1, 55, 78
4, 21778, Note_on_c, 1, 55, 0
4, 21780, Note_on_c, 1, 55, 78
4, 21792, Note_on_c, 1, 55, 0
4, 21792, Note_on_c, 1, 55, 78
4, 21826, Note_on_c, 1, 55, 0
4, 21828, Note_on_c, 1, 55, 78
4, 21840, Note_on_c, 1, 55, 0
4, 21840, Note_on_c, 1, 55, 78
4, 21874, Note_on_c, 1, 55, 0
4, 21876, Note_on_c, 1, 55, 78
4, 21888, Note_on_c, 1, 55, 0
4, 21888, Note_on_c, 1, 55, 78
4, 21933, Note_on_c, 1, 55, 0
4, 21936, Note_on_c, 1, 54, 78
4, 21948, Note_on_c, 1, 54, 0
4, 21948, Note_on_c, 1, 55, 78
4, 21960, Note_on_c, 1, 55, 0
4, 21960, Note_on_c, 1, 57, 78
4, 21972, Note_on_c, 1, 57, 0
4, 21972, Note_on_c, 1, 55, 78
4, 21984, Note_on_c, 1, 55, 0
4, 21984, Note_on_c, 1, 54, 78
4, 21996, Note_on_c, 1, 54, 0
4, 21996, Note_on_c, 1, 55, 78
4, 22008, Note_on_c, 1, 55, 0
4, 22008, Note_on_c, 1, 57, 78
4, 22020, Note_on_c, 1, 57, 0
4, 22020, Note_on_c, 1, 55, 78
4, 22032, Note_on_c, 1, 55, 0
4, 22032, Note_on_c, 1, 54, 78
4, 22044, Note_on_c, 1, 54, 0
4, 22044, Note_on_c, 1, 55, 78
4, 22056, Note_on_c, 1, 55, 0
4, 22056, Note_on_c, 1, 57, 78
4, 22068, Note_on_c, 1, 57, 0
4, 22068, Note_on_c, 1, 55, 78
4, 22080, Note_on_c, 1, 55, 0
4, 22080, Note_on_c, 1, 54, 78
4, 22092, Note_on_c, 1, 54, 0
4, 22092, Note_on_c, 1, 55, 78
4, 22104, Note_on_c, 1, 55, 0
4, 22104, Note_on_c, 1, 57, 78
4, 22116, Note_on_c, 1, 57, 0
4, 22116, Note_on_c, 1, 59, 78
4, 22128, Note_on_c, 1, 59, 0
4, 22176, Note_on_c, 1, 55, 78
4, 22199, Note_on_c, 1, 55, 0
4, 22200, Note_on_c, 1, 57, 78
4, 22212, Note_on_c, 1, 57, 0
4, 22212, Note_on_c, 1, 59, 78
4, 22224, Note_on_c, 1, 59, 0
4, 22224, Note_on_c, 1, 60, 78
4, 22236, Note_on_c, 1, 60, 0
4, 22236, Note_on_c, 1, 62, 78
4, 22248, Note_on_c, 1, 62, 0
4, 22248, Note_on_c, 1, 64, 78
4, 22260, Note_on_c, 1, 64, 0
4, 22260, Note_on_c, 1, 66, 78
4, 22272, Note_on_c, 1, 66, 0
4, 22272, Note_on_c, 1, 67, 78
4, 22292, Note_on_c, 1, 67, 0
4, 22320, Note_on_c, 1, 67, 78
4, 22340, Note_on_c, 1, 67, 0
4, 22368, Note_on_c, 1, 67, 78
4, 22388, Note_on_c, 1, 67, 0
4, 22416, Note_on_c, 1, 67, 78
4, 22436, Note_on_c, 1, 67, 0
4, 22464, Note_on_c, 1, 67, 78
4, 22641, Note_on_c, 1, 67, 0
4, 22704, Note_on_c, 1, 60, 78
4, 22704, Note_on_c, 1, 56, 78
4, 22749, Note_on_c, 1, 60, 0
4, 22749, Note_on_c, 1, 56, 0
4, 22752, Note_on_c, 1, 58, 78
4, 22752, Note_on_c, 1, 55, 78
4, 22797, Note_on_c, 1, 58, 0
4, 22797, Note_on_c, 1, 55, 0
4, 22800, Note_on_c, 1, 55, 78
4, 22800, Note_on_c, 1, 51, 78
4, 22845, Note_on_c, 1, 55, 0
4, 22845, Note_on_c, 1, 51, 0
4, 22896, Note_on_c, 1, 56, 78
4, 22941, Note_on_c, 1, 56, 0
4, 22944, Note_on_c, 1, 60, 78
4, 22989, Note_on_c, 1, 60, 0
4, 22992, Note_on_c, 1, 63, 78
4, 23037, Note_on_c, 1, 63, 0
4, 23040, Note_on_c, 1, 65, 78
4, 23129, Note_on_c, 1, 65, 0
4, 23136, Note_on_c, 1, 67, 78
4, 23225, Note_on_c, 1, 67, 0
4, 23280, Note_on_c, 1, 68, 78
4, 23325, Note_on_c, 1, 68, 0
4, 23328, Note_on_c, 1, 56, 78
4, 23373, Note_on_c, 1, 56, 0
4, 23376, Note_on_c, 1, 63, 78
4, 23421, Note_on_c, 1, 63, 0
4, 23424, Note_on_c, 1, 65, 78
4, 23513, Note_on_c, 1, 65, 0
4, 23520, Note_on_c, 1, 67, 78
4, 23609, Note_on_c, 1, 67, 0
4, 23664, Note_on_c, 1, 56, 78
4, 23709, Note_on_c, 1, 56, 0
4, 23712, Note_on_c, 1, 68, 78
4, 23757, Note_on_c, 1, 68, 0
4, 23760, Note_on_c, 1, 66, 78
4, 23805, Note_on_c, 1, 66, 0
4, 23808, Note_on_c, 1, 65, 78
4, 23897, Note_on_c, 1, 65, 0
4, 23904, Note_on_c, 1, 53, 78
4, 23993, Note_on_c, 1, 53, 0
4, 24000, Note_on_c, 1, 58, 78
4, 24177, Note_on_c, 1, 58, 0
4, 24192, Note_on_c, 1, 63, 78
4, 24369, Note_on_c, 1, 63, 0
4, 24384, Note_on_c, 1, 56, 78
4, 24561, Note_on_c, 1, 56, 0
4, 24576, Note_on_c, 1, 61, 78
4, 24753, Note_on_c, 1, 61, 0
4, 24768, Note_on_c, 1, 60, 78
4, 24945, Note_on_c, 1, 60, 0
4, 24960, Note_on_c, 1, 58, 78
4, 25137, Note_on_c, 1, 58, 0
4, 25152, Note_on_c, 1, 56, 78
4, 25329, Note_on_c, 1, 56, 0
4, 25344, Note_on_c, 1, 55, 78
4, 25521, Note_on_c, 1, 55, 0
4, 25536, Note_on_c, 1, 53, 78
4, 25713, Note_on_c, 1, 53, 0
4, 25728, Note_on_c, 1, 56, 78
4, 25861, Note_on_c, 1, 56, 0
4, 25872, Note_on_c, 1, 57, 78
4, 25917, Note_on_c, 1, 57, 0
4, 25920, Note_on_c, 1, 59, 78
4, 25943, Note_on_c, 1, 59, 0
4, 25944, Note_on_c, 1, 62, 78
4, 25967, Note_on_c, 1, 62, 0
4, 25968, Note_on_c, 1, 59, 78
4, 25991, Note_on_c, 1, 59, 0
4, 25992, Note_on_c, 1, 62, 78
4, 26015, Note_on_c, 1, 62, 0
4, 26016, Note_on_c, 1, 59, 78
4, 26039, Note_on_c, 1, 59, 0
4, 26040, Note_on_c, 1, 62, 78
4, 26063, Note_on_c, 1, 62, 0
4, 26064, Note_on_c, 1, 59, 78
4, 26087, Note_on_c, 1, 59, 0
4, 26088, Note_on_c, 1, 62, 78
4, 26111, Note_on_c, 1, 62, 0
4, 26112, Note_on_c, 1, 59, 78
4, 26135, Note_on_c, 1, 59, 0
4, 26136, Note_on_c, 1, 62, 78
4, 26159, Note_on_c, 1, 62, 0
4, 26160, Note_on_c, 1, 59, 78
4, 26183, Note_on_c, 1, 59, 0
4, 26184, Note_on_c, 1, 62, 78
4, 26207, Note_on_c, 1, 62, 0
4, 26208, Note_on_c, 1, 59, 78
4, 26231, Note_on_c, 1, 59, 0
4, 26232, Note_on_c, 1, 62, 78
4, 26255, Note_on_c, 1, 62, 0
4, 26256, Note_on_c, 1, 59, 78
4, 26279, Note_on_c, 1, 59, 0
4, 26280, Note_on_c, 1, 62, 78
4, 26303, Note_on_c, 1, 62, 0
4, 26304, Note_on_c, 1, 59, 78
4, 26327, Note_on_c, 1, 59, 0
4, 26328, Note_on_c, 1, 62, 78
4, 26351, Note_on_c, 1, 62, 0
4, 26352, Note_on_c, 1, 59, 78
4, 26375, Note_on_c, 1, 59, 0
4, 26376, Note_on_c, 1, 62, 78
4, 26399, Note_on_c, 1, 62, 0
4, 26400, Note_on_c, 1, 59, 78
4, 26423, Note_on_c, 1, 59, 0
4, 26424, Note_on_c, 1, 62, 78
4, 26447, Note_on_c, 1, 62, 0
4, 26448, Note_on_c, 1, 59, 78
4, 26471, Note_on_c, 1, 59, 0
4, 26472, Note_on_c, 1, 62, 78
4, 26495, Note_on_c, 1, 62, 0
4, 26496, Note_on_c, 1, 59, 78
4, 26519, Note_on_c, 1, 59, 0
4, 26520, Note_on_c, 1, 62, 78
4, 26543, Note_on_c, 1, 62, 0
4, 26544, Note_on_c, 1, 59, 78
4, 26567, Note_on_c, 1, 59, 0
4, 26568, Note_on_c, 1, 62, 78
4, 26591, Note_on_c, 1, 62, 0
4, 26592, Note_on_c, 1, 59, 78
4, 26615, Note_on_c, 1, 59, 0
4, 26616, Note_on_c, 1, 62, 78
4, 26639, Note_on_c, 1, 62, 0
4, 26640, Note_on_c, 1, 59, 78
4, 26663, Note_on_c, 1, 59, 0
4, 26664, Note_on_c, 1, 62, 78
4, 26687, Note_on_c, 1, 62, 0
4, 26688, Note_on_c, 1, 51, 78
4, 26711, Note_on_c, 1, 51, 0
4, 26712, Note_on_c, 1, 60, 78
4, 26735, Note_on_c, 1, 60, 0
4, 26736, Note_on_c, 1, 63, 78
4, 26759, Note_on_c, 1, 63, 0
4, 26760, Note_on_c, 1, 67, 78
4, 26783, Note_on_c, 1, 67, 0
4, 26784, Note_on_c, 1, 63, 64
4, 26807, Note_on_c, 1, 63, 0
4, 26808, Note_on_c, 1, 67, 64
4, 26831, Note_on_c, 1, 67, 0
4, 26832, Note_on_c, 1, 63, 64
4, 26855, Note_on_c, 1, 63, 0
4, 26856, Note_on_c, 1, 67, 64
4, 26879, Note_on_c, 1, 67, 0
4, 26880, Note_on_c, 1, 65, 64
4, 26903, Note_on_c, 1, 65, 0
4, 26904, Note_on_c, 1, 67, 64
4, 26927, Note_on_c, 1, 67, 0
4, 26928, Note_on_c, 1, 65, 64
4, 26951, Note_on_c, 1, 65, 0
4, 26952, Note_on_c, 1, 67, 64
4, 26975, Note_on_c, 1, 67, 0
4, 26976, Note_on_c, 1, 63, 64
4, 26999, Note_on_c, 1, 63, 0
4, 27000, Note_on_c, 1, 67, 64
4, 27023, Note_on_c, 1, 67, 0
4, 27024, Note_on_c, 1, 63, 64
4, 27047, Note_on_c, 1, 63, 0
4, 27048, Note_on_c, 1, 67, 64
4, 27071, Note_on_c, 1, 67, 0
4, 27072, Note_on_c, 1, 65, 64
4, 27095, Note_on_c, 1, 65, 0
4, 27096, Note_on_c, 1, 67, 65
4, 27119, Note_on_c, 1, 67, 0
4, 27120, Note_on_c, 1, 65, 66
4, 27143, Note_on_c, 1, 65, 0
4, 27144, Note_on_c, 1, 67, 67
4, 27167, Note_on_c, 1, 67, 0
4, 27168, Note_on_c, 1, 63, 68
4, 27191, Note_on_c, 1, 63, 0
4, 27192, Note_on_c, 1, 67, 70
4, 27215, Note_on_c, 1, 67, 0
4, 27216, Note_on_c, 1, 63, 71
4, 27239, Note_on_c, 1, 63, 0
4, 27240, Note_on_c, 1, 67, 72
4, 27263, Note_on_c, 1, 67, 0
4, 27264, Note_on_c, 1, 65, 73
4, 27287, Note_on_c, 1, 65, 0
4, 27288, Note_on_c, 1, 67, 75
4, 27311, Note_on_c, 1, 67, 0
4, 27312, Note_on_c, 1, 65, 76
4, 27335, Note_on_c, 1, 65, 0
4, 27336, Note_on_c, 1, 67, 77
4, 27359, Note_on_c, 1, 67, 0
4, 27360, Note_on_c, 1, 63, 78
4, 27383, Note_on_c, 1, 63, 0
4, 27384, Note_on_c, 1, 67, 80
4, 27407, Note_on_c, 1, 67, 0
4, 27408, Note_on_c, 1, 63, 81
4, 27431, Note_on_c, 1, 63, 0
4, 27432, Note_on_c, 1, 67, 82
4, 27455, Note_on_c, 1, 67, 0
4, 27456, Note_on_c, 1, 65, 83
4, 27479, Note_on_c, 1, 65, 0
4, 27480, Note_on_c, 1, 67, 85
4, 27503, Note_on_c, 1, 67, 0
4, 27504, Note_on_c, 1, 65, 85
4, 27527, Note_on_c, 1, 65, 0
4, 27528, Note_on_c, 1, 67, 85
4, 27551, Note_on_c, 1, 67, 0
4, 27552, Note_on_c, 1, 63, 85
4, 27575, Note_on_c, 1, 63, 0
4, 27576, Note_on_c, 1, 67, 85
4, 27599, Note_on_c, 1, 67, 0
4, 27600, Note_on_c, 1, 63, 85
4, 27623, Note_on_c, 1, 63, 0
4, 27624, Note_on_c, 1, 67, 85
4, 27647, Note_on_c, 1, 67, 0
4, 27648, Note_on_c, 1, 69, 85
4, 27671, Note_on_c, 1, 69, 0
4, 27672, Note_on_c, 1, 70, 85
4, 27695, Note_on_c, 1, 70, 0
4, 27696, Note_on_c, 1, 72, 85
4, 27719, Note_on_c, 1, 72, 0
4, 27720, Note_on_c, 1, 69, 85
4, 27743, Note_on_c, 1, 69, 0
4, 27744, Note_on_c, 1, 71, 85
4, 27833, Note_on_c, 1, 71, 0
4, 27840, Note_on_c, 1, 60, 85
4, 27929, Note_on_c, 1, 60, 0
4, 27936, Note_on_c, 1, 51, 85
4, 27936, Note_on_c, 1, 48, 85
4, 27959, Note_on_c, 1, 51, 0
4, 27959, Note_on_c, 1, 48, 0
4, 27960, Note_on_c, 1, 53, 85
4, 27960, Note_on_c, 1, 50, 85
4, 27983, Note_on_c, 1, 53, 0
4, 27983, Note_on_c, 1, 50, 0
4, 27984, Note_on_c, 1, 55, 85
4, 27984, Note_on_c, 1, 51, 85
4, 28007, Note_on_c, 1, 55, 0
4, 28007, Note_on_c, 1, 51, 0
4, 28008, Note_on_c, 1, 51, 85
4, 28008, Note_on_c, 1, 48, 85
4, 28031, Note_on_c, 1, 51, 0
4, 28031, Note_on_c, 1, 48, 0
4, 28032, Note_on_c, 1, 56, 85
4, 28032, Note_on_c, 1, 53, 85
4, 28121, Note_on_c, 1, 56, 0
4, 28121, Note_on_c, 1, 53, 0
4, 28272, Note_on_c, 1, 60, 85
4, 28361, Note_on_c, 1, 60, 0
4, 28368, Note_on_c, 1, 59, 85
4, 28413, Note_on_c, 1, 59, 0
4, 28416, Note_on_c, 1, 60, 85
4, 28461, Note_on_c, 1, 60, 0
4, 28560, Note_on_c, 1, 60, 85
4, 28607, Note_on_c, 1, 60, 0
4, 28608, Note_on_c, 1, 60, 85
4, 28653, Note_on_c, 1, 60, 0
4, 28656, Note_on_c, 1, 60, 85
4, 28701, Note_on_c, 1, 60, 0
4, 28704, Note_on_c, 1, 60, 85
4, 28749, Note_on_c, 1, 60, 0
4, 28752, Note_on_c, 1, 59, 85
4, 28797, Note_on_c, 1, 59, 0
4, 28848, Note_on_c, 1, 63, 85
4, 28848, Note_on_c, 1, 60, 85
4, 28893, Note_on_c, 1, 63, 0
4, 28893, Note_on_c, 1, 60, 0
4, 28896, Note_on_c, 1, 62, 85
4, 28896, Note_on_c, 1, 59, 85
4, 28941, Note_on_c, 1, 62, 0
4, 28941, Note_on_c, 1, 59, 0
4, 28944, Note_on_c, 1, 59, 85
4, 28944, Note_on_c, 1, 55, 85
4, 28989, Note_on_c, 1, 59, 0
4, 28989, Note_on_c, 1, 55, 0
4, 28992, Note_on_c, 1, 60, 85
4, 29037, Note_on_c, 1, 60, 0
4, 29040, Note_on_c, 1, 48, 85
4, 29085, Note_on_c, 1, 48, 0
4, 29184, Note_on_c, 1, 51, 85
4, 29184, Note_on_c, 1, 46, 85
4, 29184, Note_on_c, 1, 43, 85
4, 29184, Note_on_c, 1, 39, 85
4, 29231, Note_on_c, 1, 51, 0
4, 29231, Note_on_c, 1, 46, 0
4, 29231, Note_on_c, 1, 43, 0
4, 29231, Note_on_c, 1, 39, 0
4, 29232, Note_on_c, 1, 67, 85
4, 29232, Note_on_c, 1, 63, 85
4, 29277, Note_on_c, 1, 67, 0
4, 29277, Note_on_c, 1, 63, 0
4, 29280, Note_on_c, 1, 65, 85
4, 29280, Note_on_c, 1, 62, 85
4, 29325, Note_on_c, 1, 65, 0
4, 29325, Note_on_c, 1, 62, 0
4, 29328, Note_on_c, 1, 62, 82
4, 29328, Note_on_c, 1, 58, 82
4, 29373, Note_on_c, 1, 62, 0
4, 29373, Note_on_c, 1, 58, 0
4, 29424, Note_on_c, 1, 51, 77
4, 29469, Note_on_c, 1, 51, 0
4, 29472, Note_on_c, 1, 55, 74
4, 29517, Note_on_c, 1, 55, 0
4, 29520, Note_on_c, 1, 58, 71
4, 29565, Note_on_c, 1, 58, 0
4, 29568, Note_on_c, 1, 60, 69
4, 29664, Note_on_c, 1, 60, 0
4, 29664, Note_on_c, 1, 62, 64
4, 29753, Note_on_c, 1, 62, 0
4, 29808, Note_on_c, 1, 63, 64
4, 29853, Note_on_c, 1, 63, 0
4, 29856, Note_on_c, 1, 51, 64
4, 29901, Note_on_c, 1, 51, 0
4, 29904, Note_on_c, 1, 58, 64
4, 29949, Note_on_c, 1, 58, 0
4, 29952, Note_on_c, 1, 60, 64
4, 30048, Note_on_c, 1, 60, 0
4, 30048, Note_on_c, 1, 62, 64
4, 30137, Note_on_c, 1, 62, 0
4, 30144, Note_on_c, 1, 63, 64
4, 30233, Note_on_c, 1, 63, 0
4, 30288, Note_on_c, 1, 58, 64
4, 30288, Note_on_c, 1, 55, 64
4, 30333, Note_on_c, 1, 58, 0
4, 30333, Note_on_c, 1, 55, 0
4, 30384, Note_on_c, 1, 60, 64
4, 30384, Note_on_c, 1, 56, 64
4, 30429, Note_on_c, 1, 60, 0
4, 30429, Note_on_c, 1, 56, 0
4, 30480, Note_on_c, 1, 56, 64
4, 30480, Note_on_c, 1, 46, 64
4, 30525, Note_on_c, 1, 56, 0
4, 30525, Note_on_c, 1, 46, 0
4, 30576, Note_on_c, 1, 55, 64
4, 30576, Note_on_c, 1, 51, 64
4, 30621, Note_on_c, 1, 55, 0
4, 30621, Note_on_c, 1, 51, 0
4, 30672, Note_on_c, 1, 58, 65
4, 30672, Note_on_c, 1, 55, 65
4, 30717, Note_on_c, 1, 58, 0
4, 30717, Note_on_c, 1, 55, 0
4, 30768, Note_on_c, 1, 60, 67
4, 30768, Note_on_c, 1, 56, 67
4, 30813, Note_on_c, 1, 60, 0
4, 30813, Note_on_c, 1, 56, 0
4, 30864, Note_on_c, 1, 60, 69
4, 30864, Note_on_c, 1, 57, 69
4, 30909, Note_on_c, 1, 60, 0
4, 30909, Note_on_c, 1, 57, 0
4, 30960, Note_on_c, 1, 62, 71
4, 30960, Note_on_c, 1, 58, 71
4, 31005, Note_on_c, 1, 62, 0
4, 31005, Note_on_c, 1, 58, 0
4, 31056, Note_on_c, 1, 63, 73
4, 31056, Note_on_c, 1, 60, 73
4, 31101, Note_on_c, 1, 63, 0
4, 31101, Note_on_c, 1, 60, 0
4, 31152, Note_on_c, 1, 65, 75
4, 31152, Note_on_c, 1, 62, 75
4, 31197, Note_on_c, 1, 65, 0
4, 31197, Note_on_c, 1, 62, 0
4, 31248, Note_on_c, 1, 67, 77
4, 31248, Note_on_c, 1, 63, 77
4, 31293, Note_on_c, 1, 67, 0
4, 31293, Note_on_c, 1, 63, 0
4, 31344, Note_on_c, 1, 68, 79
4, 31344, Note_on_c, 1, 65, 79
4, 31389, Note_on_c, 1, 68, 0
4, 31389, Note_on_c, 1, 65, 0
4, 31440, Note_on_c, 1, 68, 81
4, 31440, Note_on_c, 1, 65, 81
4, 31440, Note_on_c, 1, 62, 81
4, 31440, Note_on_c, 1, 58, 81
4, 31485, Note_on_c, 1, 68, 0
4, 31485, Note_on_c, 1, 65, 0
4, 31485, Note_on_c, 1, 62, 0
4, 31485, Note_on_c, 1, 58, 0
4, 31536, Note_on_c, 1, 68, 83
4, 31536, Note_on_c, 1, 65, 83
4, 31536, Note_on_c, 1, 62, 83
4, 31536, Note_on_c, 1, 58, 83
4, 31581, Note_on_c, 1, 68, 0
4, 31581, Note_on_c, 1, 65, 0
4, 31581, Note_on_c, 1, 62, 0
4, 31581, Note_on_c, 1, 58, 0
4, 31632, Note_on_c, 1, 68, 85
4, 31632, Note_on_c, 1, 65, 85
4, 31632, Note_on_c, 1, 62, 85
4, 31632, Note_on_c, 1, 58, 85
4, 31677, Note_on_c, 1, 68, 0
4, 31677, Note_on_c, 1, 65, 0
4, 31677, Note_on_c, 1, 62, 0
4, 31677, Note_on_c, 1, 58, 0
4, 31728, Note_on_c, 1, 68, 87
4, 31728, Note_on_c, 1, 65, 87
4, 31728, Note_on_c, 1, 62, 87
4, 31728, Note_on_c, 1, 58, 87
4, 32153, Note_on_c, 1, 68, 0
4, 32153, Note_on_c, 1, 65, 0
4, 32153, Note_on_c, 1, 62, 0
4, 32153, Note_on_c, 1, 58, 0
4, 32304, Note_on_c, 1, 60, 78
4, 32304, Note_on_c, 1, 56, 78
4, 32349, Note_on_c, 1, 60, 0
4, 32349, Note_on_c, 1, 56, 0
4, 32352, Note_on_c, 1, 58, 78
4, 32352, Note_on_c, 1, 55, 78
4, 32397, Note_on_c, 1, 58, 0
4, 32397, Note_on_c, 1, 55, 0
4, 32400, Note_on_c, 1, 56, 78
4, 32400, Note_on_c, 1, 53, 78
4, 32445, Note_on_c, 1, 56, 0
4, 32445, Note_on_c, 1, 53, 0
4, 32448, Note_on_c, 1, 55, 78
4, 32448, Note_on_c, 1, 51, 78
4, 32493, Note_on_c, 1, 55, 0
4, 32493, Note_on_c, 1, 51, 0
4, 32496, Note_on_c, 1, 60, 78
4, 32496, Note_on_c, 1, 56, 78
4, 32541, Note_on_c, 1, 60, 0
4, 32541, Note_on_c, 1, 56, 0
4, 32544, Note_on_c, 1, 58, 78
4, 32544, Note_on_c, 1, 55, 78
4, 32589, Note_on_c, 1, 58, 0
4, 32589, Note_on_c, 1, 55, 0
4, 32592, Note_on_c, 1, 56, 78
4, 32592, Note_on_c, 1, 53, 78
4, 32637, Note_on_c, 1, 56, 0
4, 32637, Note_on_c, 1, 53, 0
4, 32640, Note_on_c, 1, 55, 78
4, 32640, Note_on_c, 1, 51, 78
4, 32685, Note_on_c, 1, 55, 0
4, 32685, Note_on_c, 1, 51, 0
4, 32688, Note_on_c, 1, 60, 78
4, 32733, Note_on_c, 1, 60, 0
4, 32736, Note_on_c, 1, 58, 78
4, 32781, Note_on_c, 1, 58, 0
4, 32784, Note_on_c, 1, 57, 78
4, 32829, Note_on_c, 1, 57, 0
4, 32832, Note_on_c, 1, 58, 78
4, 32877, Note_on_c, 1, 58, 0
4, 32880, Note_on_c, 1, 46, 78
4, 32880, Note_on_c, 1, 34, 78
4, 32925, Note_on_c, 1, 46, 0
4, 32925, Note_on_c, 1, 34, 0
4, 32928, Note_on_c, 1, 48, 78
4, 32928, Note_on_c, 1, 36, 78
4, 32973, Note_on_c, 1, 48, 0
4, 32973, Note_on_c, 1, 36, 0
4, 32976, Note_on_c, 1, 50, 78
4, 32976, Note_on_c, 1, 38, 78
4, 33021, Note_on_c, 1, 50, 0
4, 33021, Note_on_c, 1, 38, 0
4, 33024, Note_on_c, 1, 51, 78
4, 33024, Note_on_c, 1, 39, 78
4, 33113, Note_on_c, 1, 51, 0
4, 33113, Note_on_c, 1, 39, 0
4, 33216, Note_on_c, 1, 58, 78
4, 33216, Note_on_c, 1, 55, 78
4, 33216, Note_on_c, 1, 51, 78
4, 33305, Note_on_c, 1, 58, 0
4, 33305, Note_on_c, 1, 55, 0
4, 33305, Note_on_c, 1, 51, 0
4, 33408, Note_on_c, 1, 53, 78
4, 33408, Note_on_c, 1, 48, 78
4, 33408, Note_on_c, 1, 44, 78
4, 33497, Note_on_c, 1, 53, 0
4, 33497, Note_on_c, 1, 48, 0
4, 33497, Note_on_c, 1, 44, 0
4, 33552, Note_on_c, 1, 53, 78
4, 33552, Note_on_c, 1, 48, 78
4, 33552, Note_on_c, 1, 45, 78
4, 33597, Note_on_c, 1, 53, 0
4, 33597, Note_on_c, 1, 48, 0
4, 33597, Note_on_c, 1, 45, 0
4, 33600, Note_on_c, 1, 53, 78
4, 33600, Note_on_c, 1, 50, 78
4, 33600, Note_on_c, 1, 46, 78
4, 33689, Note_on_c, 1, 53, 0
4, 33689, Note_on_c, 1, 50, 0
4, 33689, Note_on_c, 1, 46, 0
4, 33792, Note_on_c, 1, 46, 78
4, 33792, Note_on_c, 1, 34, 78
4, 33837, Note_on_c, 1, 46, 0
4, 33837, Note_on_c, 1, 34, 0
4, 33840, Note_on_c, 1, 65, 78
4, 33840, Note_on_c, 1, 62, 78
4, 33840, Note_on_c, 1, 58, 78
4, 33840, Note_on_c, 1, 56, 78
4, 33885, Note_on_c, 1, 65, 0
4, 33885, Note_on_c, 1, 62, 0
4, 33885, Note_on_c, 1, 58, 0
4, 33885, Note_on_c, 1, 56, 0
4, 33888, Note_on_c, 1, 65, 78
4, 33888, Note_on_c, 1, 62, 78
4, 33888, Note_on_c, 1, 58, 78
4, 33888, Note_on_c, 1, 56, 78
4, 33933, Note_on_c, 1, 65, 0
4, 33933, Note_on_c, 1, 62, 0
4, 33933, Note_on_c, 1, 58, 0
4, 33933, Note_on_c, 1, 56, 0
4, 33936, Note_on_c, 1, 65, 78
4, 33936, Note_on_c, 1, 62, 78
4, 33936, Note_on_c, 1, 58, 78
4, 33936, Note_on_c, 1, 56, 78
4, 33981, Note_on_c, 1, 65, 0
4, 33981, Note_on_c, 1, 62, 0
4, 33981, Note_on_c, 1, 58, 0
4, 33981, Note_on_c, 1, 56, 0
4, 33984, Note_on_c, 1, 63, 78
4, 33984, Note_on_c, 1, 58, 78
4, 33984, Note_on_c, 1, 55, 78
4, 34029, Note_on_c, 1, 63, 0
4, 34029, Note_on_c, 1, 58, 0
4, 34029, Note_on_c, 1, 55, 0
4, 34032, Note_on_c, 1, 65, 78
4, 34032, Note_on_c, 1, 62, 78
4, 34032, Note_on_c, 1, 58, 78
4, 34032, Note_on_c, 1, 56, 78
4, 34077, Note_on_c, 1, 65, 0
4, 34077, Note_on_c, 1, 62, 0
4, 34077, Note_on_c, 1, 58, 0
4, 34077, Note_on_c, 1, 56, 0
4, 34080, Note_on_c, 1, 65, 78
4, 34080, Note_on_c, 1, 62, 78
4, 34080, Note_on_c, 1, 58, 78
4, 34080, Note_on_c, 1, 56, 78
4, 34125, Note_on_c, 1, 65, 0
4, 34125, Note_on_c, 1, 62, 0
4, 34125, Note_on_c, 1, 58, 0
4, 34125, Note_on_c, 1, 56, 0
4, 34128, Note_on_c, 1, 65, 78
4, 34128, Note_on_c, 1, 62, 78
4, 34128, Note_on_c, 1, 58, 78
4, 34128, Note_on_c, 1, 56, 78
4, 34173, Note_on_c, 1, 65, 0
4, 34173, Note_on_c, 1, 62, 0
4, 34173, Note_on_c, 1, 58, 0
4, 34173, Note_on_c, 1, 56, 0
4, 34176, Note_on_c, 1, 63, 78
4, 34176, Note_on_c, 1, 58, 78
4, 34176, Note_on_c, 1, 55, 78
4, 34221, Note_on_c, 1, 63, 0
4, 34221, Note_on_c, 1, 58, 0
4, 34221, Note_on_c, 1, 55, 0
4, 34224, Note_on_c, 1, 65, 78
4, 34224, Note_on_c, 1, 62, 78
4, 34224, Note_on_c, 1, 58, 78
4, 34224, Note_on_c, 1, 56, 78
4, 34269, Note_on_c, 1, 65, 0
4, 34269, Note_on_c, 1, 62, 0
4, 34269, Note_on_c, 1, 58, 0
4, 34269, Note_on_c, 1, 56, 0
4, 34272, Note_on_c, 1, 65, 78
4, 34272, Note_on_c, 1, 62, 78
4, 34272, Note_on_c, 1, 58, 78
4, 34272, Note_on_c, 1, 56, 78
4, 34317, Note_on_c, 1, 65, 0
4, 34317, Note_on_c, 1, 62, 0
4, 34317, Note_on_c, 1, 58, 0
4, 34317, Note_on_c, 1, 56, 0
4, 34320, Note_on_c, 1, 65, 78
4, 34320, Note_on_c, 1, 62, 78
4, 34320, Note_on_c, 1, 58, 78
4, 34320, Note_on_c, 1, 56, 78
4, 34365, Note_on_c, 1, 65, 0
4, 34365, Note_on_c, 1, 62, 0
4, 34365, Note_on_c, 1, 58, 0
4, 34365, Note_on_c, 1, 56, 0
4, 34368, Note_on_c, 1, 63, 78
4, 34368, Note_on_c, 1, 58, 78
4, 34368, Note_on_c, 1, 55, 78
4, 34457, Note_on_c, 1, 63, 0
4, 34457, Note_on_c, 1, 58, 0
4, 34457, Note_on_c, 1, 55, 0
4, 34560, Note_on_c, 1, 63, 78
4, 34560, Note_on_c, 1, 60, 78
4, 34560, Note_on_c, 1, 56, 78
4, 34649, Note_on_c, 1, 63, 0
4, 34649, Note_on_c, 1, 60, 0
4, 34649, Note_on_c, 1, 56, 0
4, 34704, Note_on_c, 1, 65, 78
4, 34704, Note_on_c, 1, 60, 78
4, 34704, Note_on_c, 1, 57, 78
4, 34749, Note_on_c, 1, 65, 0
4, 34749, Note_on_c, 1, 60, 0
4, 34749, Note_on_c, 1, 57, 0
4, 34752, Note_on_c, 1, 65, 78
4, 34752, Note_on_c, 1, 62, 78
4, 34797, Note_on_c, 1, 65, 0
4, 34797, Note_on_c, 1, 62, 0
4, 34800, Note_on_c, 1, 62, 78
4, 34845, Note_on_c, 1, 62, 0
4, 34848, Note_on_c, 1, 63, 78
4, 34893, Note_on_c, 1, 63, 0
4, 34896, Note_on_c, 1, 67, 78
4, 34941, Note_on_c, 1, 67, 0
4, 34992, Note_on_c, 1, 62, 78
4, 35037, Note_on_c, 1, 62, 0
4, 35040, Note_on_c, 1, 63, 78
4, 35085, Note_on_c, 1, 63, 0
4, 35088, Note_on_c, 1, 67, 78
4, 35133, Note_on_c, 1, 67, 0
4, 35184, Note_on_c, 1, 62, 78
4, 35229, Note_on_c, 1, 62, 0
4, 35232, Note_on_c, 1, 63, 78
4, 35277, Note_on_c, 1, 63, 0
4, 35280, Note_on_c, 1, 67, 78
4, 35325, Note_on_c, 1, 67, 0
4, 35328, Note_on_c, 1, 62, 78
4, 35417, Note_on_c, 1, 62, 0
4, 35424, Note_on_c, 1, 46, 78
4, 35424, Note_on_c, 1, 34, 78
4, 35469, Note_on_c, 1, 46, 0
4, 35469, Note_on_c, 1, 34, 0
4, 35472, Note_on_c, 1, 46, 78
4, 35472, Note_on_c, 1, 34, 78
4, 35517, Note_on_c, 1, 46, 0
4, 35517, Note_on_c, 1, 34, 0
4, 35520, Note_on_c, 1, 46, 78
4, 35520, Note_on_c, 1, 34, 78
4, 35609, Note_on_c, 1, 46, 0
4, 35609, Note_on_c, 1, 34, 0
4, 35712, Note_on_c, 1, 51, 78
4, 35712, Note_on_c, 1, 46, 78
4, 35712, Note_on_c, 1, 43, 78
4, 35712, Note_on_c, 1, 39, 78
4, 35757, Note_on_c, 1, 51, 0
4, 35757, Note_on_c, 1, 46, 0
4, 35757, Note_on_c, 1, 43, 0
4, 35757, Note_on_c, 1, 39, 0
4, 35808, Note_on_c, 1, 51, 78
4, 35808, Note_on_c, 1, 46, 78
4, 35808, Note_on_c, 1, 43, 78
4, 35808, Note_on_c, 1, 39, 78
4, 35853, Note_on_c, 1, 51, 0
4, 35853, Note_on_c, 1, 46, 0
4, 35853, Note_on_c, 1, 43, 0
4, 35853, Note_on_c, 1, 39, 0
4, 35904, Note_on_c, 1, 51, 78
4, 35904, Note_on_c, 1, 46, 78
4, 35904, Note_on_c, 1, 43, 78
4, 35904, Note_on_c, 1, 39, 78
4, 35949, Note_on_c, 1, 51, 0
4, 35949, Note_on_c, 1, 46, 0
4, 35949, Note_on_c, 1, 43, 0
4, 35949, Note_on_c, 1, 39, 0
4, 36096, Note_on_c, 1, 67, 64
4, 36096, Note_on_c, 1, 63, 64
4, 36141, Note_on_c, 1, 67, 0
4, 36141, Note_on_c, 1, 63, 0
4, 36192, Note_on_c, 1, 65, 64
4, 36192, Note_on_c, 1, 63, 64
4, 36237, Note_on_c, 1, 65, 0
4, 36237, Note_on_c, 1, 63, 0
4, 36288, Note_on_c, 1, 65, 64
4, 36288, Note_on_c, 1, 62, 64
4, 36421, Note_on_c, 1, 65, 0
4, 36421, Note_on_c, 1, 62, 0
4, 36432, Note_on_c, 1, 63, 64
4, 36477, Note_on_c, 1, 63, 0
4, 36480, Note_on_c, 1, 63, 64
4, 36480, Note_on_c, 1, 56, 64
4, 36569, Note_on_c, 1, 63, 0
4, 36569, Note_on_c, 1, 56, 0
4, 36576, Note_on_c, 1, 62, 64
4, 36576, Note_on_c, 1, 58, 64
4, 36621, Note_on_c, 1, 62, 0
4, 36621, Note_on_c, 1, 58, 0
4, 36624, Note_on_c, 1, 59, 64
4, 36669, Note_on_c, 1, 59, 0
4, 36672, Note_on_c, 1, 60, 64
4, 36761, Note_on_c, 1, 60, 0
4, 36864, Note_on_c, 1, 67, 64
4, 36864, Note_on_c, 1, 63, 64
4, 36909, Note_on_c, 1, 67, 0
4, 36909, Note_on_c, 1, 63, 0
4, 36960, Note_on_c, 1, 65, 64
4, 36960, Note_on_c, 1, 63, 64
4, 37005, Note_on_c, 1, 65, 0
4, 37005, Note_on_c, 1, 63, 0
4, 37056, Note_on_c, 1, 65, 64
4, 37056, Note_on_c, 1, 62, 64
4, 37189, Note_on_c, 1, 65, 0
4, 37189, Note_on_c, 1, 62, 0
4, 37200, Note_on_c, 1, 63, 64
4, 37245, Note_on_c, 1, 63, 0
4, 37248, Note_on_c, 1, 63, 64
4, 37293, Note_on_c, 1, 63, 0
4, 37296, Note_on_c, 1, 64, 64
4, 37341, Note_on_c, 1, 64, 0
4, 37344, Note_on_c, 1, 65, 64
4, 37477, Note_on_c, 1, 65, 0
4, 37488, Note_on_c, 1, 65, 64
4, 37536, Note_on_c, 1, 68, 64
4, 37765, Note_on_c, 1, 68, 0
4, 37765, Note_on_c, 1, 65, 0
4, 37776, Note_on_c, 1, 62, 58
4, 37788, Note_on_c, 1, 62, 0
4, 37788, Note_on_c, 1, 63, 58
4, 37800, Note_on_c, 1, 63, 0
4, 37800, Note_on_c, 1, 65, 58
4, 37812, Note_on_c, 1, 65, 0
4, 37812, Note_on_c, 1, 67, 58
4, 37824, Note_on_c, 1, 67, 0
4, 37824, Note_on_c, 1, 68, 58
4, 37869, Note_on_c, 1, 68, 0
4, 37872, Note_on_c, 1, 68, 58
4, 37884, Note_on_c, 1, 68, 0
4, 37884, Note_on_c, 1, 67, 58
4, 37896, Note_on_c, 1, 67, 0
4, 37896, Note_on_c, 1, 65, 58
4, 37908, Note_on_c, 1, 65, 0
4, 37908, Note_on_c, 1, 63, 58
4, 37920, Note_on_c, 1, 63, 0
4, 37920, Note_on_c, 1, 62, 58
4, 37965, Note_on_c, 1, 62, 0
4, 37968, Note_on_c, 1, 62, 58
4, 37980, Note_on_c, 1, 62, 0
4, 37980, Note_on_c, 1, 63, 58
4, 37992, Note_on_c, 1, 63, 0
4, 37992, Note_on_c, 1, 65, 58
4, 38004, Note_on_c, 1, 65, 0
4, 38004, Note_on_c, 1, 67, 58
4, 38016, Note_on_c, 1, 67, 0
4, 38016, Note_on_c, 1, 68, 58
4, 38061, Note_on_c, 1, 68, 0
4, 39168, Note_on_c, 1, 67, 85
4, 39177, Note_on_c, 1, 67, 0
4, 39177, Note_on_c, 1, 65, 85
4, 39186, Note_on_c, 1, 65, 0
4, 39186, Note_on_c, 1, 67, 85
4, 39195, Note_on_c, 1, 67, 0
4, 39195, Note_on_c, 1, 65, 85
4, 39204, Note_on_c, 1, 65, 0
4, 39204, Note_on_c, 1, 67, 85
4, 39213, Note_on_c, 1, 67, 0
4, 39213, Note_on_c, 1, 65, 85
4, 39222, Note_on_c, 1, 65, 0
4, 39222, Note_on_c, 1, 67, 85
4, 39231, Note_on_c, 1, 67, 0
4, 39231, Note_on_c, 1, 65, 85
4, 39240, Note_on_c, 1, 65, 0
4, 39240, Note_on_c, 1, 67, 85
4, 39249, Note_on_c, 1, 67, 0
4, 39249, Note_on_c, 1, 65, 85
4, 39258, Note_on_c, 1, 65, 0
4, 39258, Note_on_c, 1, 67, 85
4, 39267, Note_on_c, 1, 67, 0
4, 39267, Note_on_c, 1, 65, 85
4, 39276, Note_on_c, 1, 65, 0
4, 39276, Note_on_c, 1, 67, 85
4, 39285, Note_on_c, 1, 67, 0
4, 39285, Note_on_c, 1, 65, 85
4, 39294, Note_on_c, 1, 65, 0
4, 39294, Note_on_c, 1, 67, 85
4, 39303, Note_on_c, 1, 67, 0
4, 39303, Note_on_c, 1, 65, 85
4, 39312, Note_on_c, 1, 65, 0
4, 39312, Note_on_c, 1, 67, 85
4, 39320, Note_on_c, 1, 67, 0
4, 39320, Note_on_c, 1, 65, 85
4, 39328, Note_on_c, 1, 65, 0
4, 39328, Note_on_c, 1, 67, 85
4, 39336, Note_on_c, 1, 67, 0
4, 39336, Note_on_c, 1, 65, 85
4, 39344, Note_on_c, 1, 65, 0
4, 39344, Note_on_c, 1, 63, 85
4, 39352, Note_on_c, 1, 63, 0
4, 39352, Note_on_c, 1, 65, 85
4, 39360, Note_on_c, 1, 65, 0
4, 39360, Note_on_c, 1, 67, 85
4, 39360, Note_on_c, 1, 63, 85
4, 39405, Note_on_c, 1, 67, 0
4, 39405, Note_on_c, 1, 63, 0
4, 39408, Note_on_c, 1, 63, 85
4, 39408, Note_on_c, 1, 58, 85
4, 39408, Note_on_c, 1, 55, 85
4, 39428, Note_on_c, 1, 63, 0
4, 39428, Note_on_c, 1, 58, 0
4, 39428, Note_on_c, 1, 55, 0
4, 39456, Note_on_c, 1, 63, 85
4, 39456, Note_on_c, 1, 60, 85
4, 39456, Note_on_c, 1, 56, 85
4, 39476, Note_on_c, 1, 63, 0
4, 39476, Note_on_c, 1, 60, 0
4, 39476, Note_on_c, 1, 56, 0
4, 39504, Note_on_c, 1, 62, 85
4, 39549, Note_on_c, 1, 62, 0
4, 39552, Note_on_c, 1, 63, 85
4, 39597, Note_on_c, 1, 63, 0
4, 39600, Note_on_c, 1, 63, 85
4, 39600, Note_on_c, 1, 58, 85
4, 39600, Note_on_c, 1, 55, 85
4, 39620, Note_on_c, 1, 63, 0
4, 39620, Note_on_c, 1, 58, 0
4, 39620, Note_on_c, 1, 55, 0
4, 39648, Note_on_c, 1, 63, 85
4, 39648, Note_on_c, 1, 60, 85
4, 39648, Note_on_c, 1, 56, 85
4, 39668, Note_on_c, 1, 63, 0
4, 39668, Note_on_c, 1, 60, 0
4, 39668, Note_on_c, 1, 56, 0
4, 39696, Note_on_c, 1, 62, 85
4, 39696, Note_on_c, 1, 58, 85
4, 39716, Note_on_c, 1, 62, 0
4, 39716, Note_on_c, 1, 58, 0
4, 39744, Note_on_c, 1, 63, 85
4, 39744, Note_on_c, 1, 58, 85
4, 39744, Note_on_c, 1, 55, 85
4, 39744, Note_on_c, 1, 51, 85
4, 39783, Note_on_c, 1, 63, 0
4, 39783, Note_on_c, 1, 58, 0
4, 39783, Note_on_c, 1, 55, 0
4, 39783, Note_on_c, 1, 51, 0
4, 39984, Note_on_c, 1, 55, 78
4, 40029, Note_on_c, 1, 55, 0
4, 40032, Note_on_c, 1, 55, 78
4, 40077, Note_on_c, 1, 55, 0
4, 40080, Note_on_c, 1, 55, 78
4, 40125, Note_on_c, 1, 55, 0
4, 40128, Note_on_c, 1, 55, 78
4, 40173, Note_on_c, 1, 55, 0
4, 40176, Note_on_c, 1, 55, 78
4, 40210, Note_on_c, 1, 55, 0
4, 40212, Note_on_c, 1, 55, 78
4, 40224, Note_on_c, 1, 55, 0
4, 40224, Note_on_c, 1, 55, 78
4, 40258, Note_on_c, 1, 55, 0
4, 40260, Note_on_c, 1, 55, 78
4, 40272, Note_on_c, 1, 55, 0
4, 40272, Note_on_c, 1, 55, 78
4, 40306, Note_on_c, 1, 55, 0
4, 40308, Note_on_c, 1, 55, 78
4, 40320, Note_on_c, 1, 55, 0
4, 40320, Note_on_c, 1, 55, 78
4, 40365, Note_on_c, 1, 55, 0
4, 40368, Note_on_c, 1, 54, 78
4, 40380, Note_on_c, 1, 54, 0
4, 40380, Note_on_c, 1, 55, 78
4, 40392, Note_on_c, 1, 55, 0
4, 40392, Note_on_c, 1, 57, 78
4, 40404, Note_on_c, 1, 57, 0
4, 40404, Note_on_c, 1, 55, 78
4, 40416, Note_on_c, 1, 55, 0
4, 40416, Note_on_c, 1, 54, 78
4, 40428, Note_on_c, 1, 54, 0
4, 40428, Note_on_c, 1, 55, 78
4, 40440, Note_on_c, 1, 55, 0
4, 40440, Note_on_c, 1, 57, 78
4, 40452, Note_on_c, 1, 57, 0
4, 40452, Note_on_c, 1, 55, 78
4, 40464, Note_on_c, 1, 55, 0
4, 40464, Note_on_c, 1, 54, 78
4, 40476, Note_on_c, 1, 54, 0
4, 40476, Note_on_c, 1, 55, 78
4, 40488, Note_on_c, 1, 55, 0
4, 40488, Note_on_c, 1, 57, 78
4, 40500, Note_on_c, 1, 57, 0
4, 40500, Note_on_c, 1, 55, 78
4, 40512, Note_on_c, 1, 55, 0
4, 40512, Note_on_c, 1, 54, 78
4, 40524, Note_on_c, 1, 54, 0
4, 40524, Note_on_c, 1, 55, 78
4, 40536, Note_on_c, 1, 55, 0
4, 40536, Note_on_c, 1, 57, 78
4, 40548, Note_on_c, 1, 57, 0
4, 40548, Note_on_c, 1, 59, 78
4, 40560, Note_on_c, 1, 59, 0
4, 40608, Note_on_c, 1, 55, 78
4, 40631, Note_on_c, 1, 55, 0
4, 40632, Note_on_c, 1, 57, 78
4, 40644, Note_on_c, 1, 57, 0
4, 40644, Note_on_c, 1, 59, 78
4, 40656, Note_on_c, 1, 59, 0
4, 40656, Note_on_c, 1, 60, 78
4, 40668, Note_on_c, 1, 60, 0
4, 40668, Note_on_c, 1, 62, 78
4, 40680, Note_on_c, 1, 62, 0
4, 40680, Note_on_c, 1, 64, 78
4, 40692, Note_on_c, 1, 64, 0
4, 40692, Note_on_c, 1, 66, 78
4, 40704, Note_on_c, 1, 66, 0
4, 40704, Note_on_c, 1, 67, 78
4, 40724, Note_on_c, 1, 67, 0
4, 40752, Note_on_c, 1, 67, 78
4, 40772, Note_on_c, 1, 67, 0
4, 40800, Note_on_c, 1, 67, 78
4, 40820, Note_on_c, 1, 67, 0
4, 40848, Note_on_c, 1, 67, 78
4, 40868, Note_on_c, 1, 67, 0
4, 40896, Note_on_c, 1, 67, 78
4, 41073, Note_on_c, 1, 67, 0
4, 41136, Note_on_c, 1, 60, 78
4, 41136, Note_on_c, 1, 56, 78
4, 41181, Note_on_c, 1, 60, 0
4, 41181, Note_on_c, 1, 56, 0
4, 41184, Note_on_c, 1, 58, 78
4, 41184, Note_on_c, 1, 55, 78
4, 41229, Note_on_c, 1, 58, 0
4, 41229, Note_on_c, 1, 55, 0
4, 41232, Note_on_c, 1, 55, 78
4, 41232, Note_on_c, 1, 51, 78
4, 41277, Note_on_c, 1, 55, 0
4, 41277, Note_on_c, 1, 51, 0
4, 41328, Note_on_c, 1, 56, 78
4, 41373, Note_on_c, 1, 56, 0
4, 41376, Note_on_c, 1, 60, 78
4, 41421, Note_on_c, 1, 60, 0
4, 41424, Note_on_c, 1, 63, 78
4, 41469, Note_on_c, 1, 63, 0
4, 41472, Note_on_c, 1, 65, 78
4, 41561, Note_on_c, 1, 65, 0
4, 41568, Note_on_c, 1, 67, 78
4, 41657, Note_on_c, 1, 67, 0
4, 41712, Note_on_c, 1, 68, 78
4, 41757, Note_on_c, 1, 68, 0
4, 41760, Note_on_c, 1, 56, 78
4, 41805, Note_on_c, 1, 56, 0
4, 41808, Note_on_c, 1, 63, 78
4, 41853, Note_on_c, 1, 63, 0
4, 41856, Note_on_c, 1, 65, 78
4, 41945, Note_on_c, 1, 65, 0
4, 41952, Note_on_c, 1, 67, 78
4, 42041, Note_on_c, 1, 67, 0
4, 42096, Note_on_c, 1, 56, 78
4, 42141, Note_on_c, 1, 56, 0
4, 42144, Note_on_c, 1, 68, 78
4, 42189, Note_on_c, 1, 68, 0
4, 42192, Note_on_c, 1, 66, 78
4, 42237, Note_on_c, 1, 66, 0
4, 42240, Note_on_c, 1, 65, 78
4, 42329, Note_on_c, 1, 65, 0
4, 42336, Note_on_c, 1, 53, 78
4, 42425, Note_on_c, 1, 53, 0
4, 42432, Note_on_c, 1, 58, 78
4, 42609, Note_on_c, 1, 58, 0
4, 42624, Note_on_c, 1, 63, 78
4, 42801, Note_on_c, 1, 63, 0
4, 42816, Note_on_c, 1, 56, 78
4, 42993, Note_on_c, 1, 56, 0
4, 43008, Note_on_c, 1, 61, 78
4, 43185, Note_on_c, 1, 61, 0
4, 43200, Note_on_c, 1, 60, 78
4, 43377, Note_on_c, 1, 60, 0
4, 43392, Note_on_c, 1, 58, 78
4, 43569, Note_on_c, 1, 58, 0
4, 43584, Note_on_c, 1, 56, 78
4, 43761, Note_on_c, 1, 56, 0
4, 43776, Note_on_c, 1, 55, 78
4, 43953, Note_on_c, 1, 55, 0
4, 43968, Note_on_c, 1, 53, 78
4, 44145, Note_on_c, 1, 53, 0
4, 44160, Note_on_c, 1, 56, 78
4, 44293, Note_on_c, 1, 56, 0
4, 44304, Note_on_c, 1, 57, 78
4, 44349, Note_on_c, 1, 57, 0
4, 44352, Note_on_c, 1, 59, 78
4, 44375, Note_on_c, 1, 59, 0
4, 44376, Note_on_c, 1, 62, 78
4, 44399, Note_on_c, 1, 62, 0
4, 44400, Note_on_c, 1, 59, 78
4, 44423, Note_on_c, 1, 59, 0
4, 44424, Note_on_c, 1, 62, 78
4, 44447, Note_on_c, 1, 62, 0
4, 44448, Note_on_c, 1, 59, 78
4, 44471, Note_on_c, 1, 59, 0
4, 44472, Note_on_c, 1, 62, 78
4, 44495, Note_on_c, 1, 62, 0
4, 44496, Note_on_c, 1, 59, 78
4, 44519, Note_on_c, 1, 59, 0
4, 44520, Note_on_c, 1, 62, 78
4, 44543, Note_on_c, 1, 62, 0
4, 44544, Note_on_c, 1, 59, 78
4, 44567, Note_on_c, 1, 59, 0
4, 44568, Note_on_c, 1, 62, 78
4, 44591, Note_on_c, 1, 62, 0
4, 44592, Note_on_c, 1, 59, 78
4, 44615, Note_on_c, 1, 59, 0
4, 44616, Note_on_c, 1, 62, 78
4, 44639, Note_on_c, 1, 62, 0
4, 44640, Note_on_c, 1, 59, 78
4, 44663, Note_on_c, 1, 59, 0
4, 44664, Note_on_c, 1, 62, 78
4, 44687, Note_on_c, 1, 62, 0
4, 44688, Note_on_c, 1, 59, 78
4, 44711, Note_on_c, 1, 59, 0
4, 44712, Note_on_c, 1, 62, 78
4, 44735, Note_on_c, 1, 62, 0
4, 44736, Note_on_c, 1, 59, 78
4, 44759, Note_on_c, 1, 59, 0
4, 44760, Note_on_c, 1, 62, 78
4, 44783, Note_on_c, 1, 62, 0
4, 44784, Note_on_c, 1, 59, 78
4, 44807, Note_on_c, 1, 59, 0
4, 44808, Note_on_c, 1, 62, 78
4, 44831, Note_on_c, 1, 62, 0
4, 44832, Note_on_c, 1, 59, 78
4, 44855, Note_on_c, 1, 59, 0
4, 44856, Note_on_c, 1, 62, 78
4, 44879, Note_on_c, 1, 62, 0
4, 44880, Note_on_c, 1, 59, 78
4, 44903, Note_on_c, 1, 59, 0
4, 44904, Note_on_c, 1, 62, 78
4, 44927, Note_on_c, 1, 62, 0
4, 44928, Note_on_c, 1, 59, 78
4, 44951, Note_on_c, 1, 59, 0
4, 44952, Note_on_c, 1, 62, 78
4, 44975, Note_on_c, 1, 62, 0
4, 44976, Note_on_c, 1, 59, 78
4, 44999, Note_on_c, 1, 59, 0
4, 45000, Note_on_c, 1, 62, 78
4, 45023, Note_on_c, 1, 62, 0
4, 45024, Note_on_c, 1, 59, 78
4, 45047, Note_on_c, 1, 59, 0
4, 45048, Note_on_c, 1, 62, 78
4, 45071, Note_on_c, 1, 62, 0
4, 45072, Note_on_c, 1, 59, 78
4, 45095, Note_on_c, 1, 59, 0
4, 45096, Note_on_c, 1, 62, 78
4, 45119, Note_on_c, 1, 62, 0
4, 45120, Note_on_c, 1, 51, 78
4, 45143, Note_on_c, 1, 51, 0
4, 45144, Note_on_c, 1, 60, 78
4, 45167, Note_on_c, 1, 60, 0
4, 45168, Note_on_c, 1, 63, 78
4, 45191, Note_on_c, 1, 63, 0
4, 45192, Note_on_c, 1, 67, 78
4, 45215, Note_on_c, 1, 67, 0
4, 45216, Note_on_c, 1, 63, 64
4, 45239, Note_on_c, 1, 63, 0
4, 45240, Note_on_c, 1, 67, 64
4, 45263, Note_on_c, 1, 67, 0
4, 45264, Note_on_c, 1, 63, 64
4, 45287, Note_on_c, 1, 63, 0
4, 45288, Note_on_c, 1, 67, 64
4, 45311, Note_on_c, 1, 67, 0
4, 45312, Note_on_c, 1, 65, 64
4, 45335, Note_on_c, 1, 65, 0
4, 45336, Note_on_c, 1, 67, 64
4, 45359, Note_on_c, 1, 67, 0
4, 45360, Note_on_c, 1, 65, 64
4, 45383, Note_on_c, 1, 65, 0
4, 45384, Note_on_c, 1, 67, 64
4, 45407, Note_on_c, 1, 67, 0
4, 45408, Note_on_c, 1, 63, 64
4, 45431, Note_on_c, 1, 63, 0
4, 45432, Note_on_c, 1, 67, 64
4, 45455, Note_on_c, 1, 67, 0
4, 45456, Note_on_c, 1, 63, 64
4, 45479, Note_on_c, 1, 63, 0
4, 45480, Note_on_c, 1, 67, 64
4, 45503, Note_on_c, 1, 67, 0
4, 45504, Note_on_c, 1, 65, 64
4, 45527, Note_on_c, 1, 65, 0
4, 45528, Note_on_c, 1, 67, 65
4, 45551, Note_on_c, 1, 67, 0
4, 45552, Note_on_c, 1, 65, 66
4, 45575, Note_on_c, 1, 65, 0
4, 45576, Note_on_c, 1, 67, 67
4, 45599, Note_on_c, 1, 67, 0
4, 45600, Note_on_c, 1, 63, 68
4, 45623, Note_on_c, 1, 63, 0
4, 45624, Note_on_c, 1, 67, 70
4, 45647, Note_on_c, 1, 67, 0
4, 45648, Note_on_c, 1, 63, 71
4, 45671, Note_on_c, 1, 63, 0
4, 45672, Note_on_c, 1, 67, 72
4, 45695, Note_on_c, 1, 67, 0
4, 45696, Note_on_c, 1, 65, 73
4, 45719, Note_on_c, 1, 65, 0
4, 45720, Note_on_c, 1, 67, 75
4, 45743, Note_on_c, 1, 67, 0
4, 45744, Note_on_c, 1, 65, 76
4, 45767, Note_on_c, 1, 65, 0
4, 45768, Note_on_c, 1, 67, 77
4, 45791, Note_on_c, 1, 67, 0
4, 45792, Note_on_c, 1, 63, 78
4, 45815, Note_on_c, 1, 63, 0
4, 45816, Note_on_c, 1, 67, 80
4, 45839, Note_on_c, 1, 67, 0
4, 45840, Note_on_c, 1, 63, 81
4, 45863, Note_on_c, 1, 63, 0
4, 45864, Note_on_c, 1, 67, 82
4, 45887, Note_on_c, 1, 67, 0
4, 45888, Note_on_c, 1, 65, 83
4, 45911, Note_on_c, 1, 65, 0
4, 45912, Note_on_c, 1, 67, 85
4, 45935, Note_on_c, 1, 67, 0
4, 45936, Note_on_c, 1, 65, 85
4, 45959, Note_on_c, 1, 65, 0
4, 45960, Note_on_c, 1, 67, 85
4, 45983, Note_on_c, 1, 67, 0
4, 45984, Note_on_c, 1, 63, 85
4, 46007, Note_on_c, 1, 63, 0
4, 46008, Note_on_c, 1, 67, 85
4, 46031, Note_on_c, 1, 67, 0
4, 46032, Note_on_c, 1, 63, 85
4, 46055, Note_on_c, 1, 63, 0
4, 46056, Note_on_c, 1, 67, 85
4, 46079, Note_on_c, 1, 67, 0
4, 46080, Note_on_c, 1, 69, 85
4, 46103, Note_on_c, 1, 69, 0
4, 46104, Note_on_c, 1, 70, 85
4, 46127, Note_on_c, 1, 70, 0
4, 46128, Note_on_c, 1, 72, 85
4, 46151, Note_on_c, 1, 72, 0
4, 46152, Note_on_c, 1, 69, 85
4, 46175, Note_on_c, 1, 69, 0
4, 46176, Note_on_c, 1, 71, 85
4, 46265, Note_on_c, 1, 71, 0
4, 46272, Note_on_c, 1, 60, 85
4, 46361, Note_on_c, 1, 60, 0
4, 46368, Note_on_c, 1, 51, 85
4, 46368, Note_on_c, 1, 48, 85
4, 46391, Note_on_c, 1, 51, 0
4, 46391, Note_on_c, 1, 48, 0
4, 46392, Note_on_c, 1, 53, 85
4, 46392, Note_on_c, 1, 50, 85
4, 46415, Note_on_c, 1, 53, 0
4, 46415, Note_on_c, 1, 50, 0
4, 46416, Note_on_c, 1, 55, 85
4, 46416, Note_on_c, 1, 51, 85
4, 46439, Note_on_c, 1, 55, 0
4, 46439, Note_on_c, 1, 51, 0
4, 46440, Note_on_c, 1, 51, 85
4, 46440, Note_on_c, 1, 48, 85
4, 46463, Note_on_c, 1, 51, 0
4, 46463, Note_on_c, 1, 48, 0
4, 46464, Note_on_c, 1, 56, 85
4, 46464, Note_on_c, 1, 53, 85
4, 46553, Note_on_c, 1, 56, 0
4, 46553, Note_on_c, 1, 53, 0
4, 46704, Note_on_c, 1, 60, 85
4, 46793, Note_on_c, 1, 60, 0
4, 46800, Note_on_c, 1, 59, 85
4, 46845, Note_on_c, 1, 59, 0
4, 46848, Note_on_c, 1, 60, 85
4, 46893, Note_on_c, 1, 60, 0
4, 46992, Note_on_c, 1, 60, 85
4, 47039, Note_on_c, 1, 60, 0
4, 47040, Note_on_c, 1, 60, 85
4, 47085, Note_on_c, 1, 60, 0
4, 47088, Note_on_c, 1, 60, 85
4, 47133, Note_on_c, 1, 60, 0
4, 47136, Note_on_c, 1, 60, 85
4, 47181, Note_on_c, 1, 60, 0
4, 47184, Note_on_c, 1, 59, 85
4, 47229, Note_on_c, 1, 59, 0
4, 47280, Note_on_c, 1, 63, 85
4, 47280, Note_on_c, 1, 60, 85
4, 47325, Note_on_c, 1, 63, 0
4, 47325, Note_on_c, 1, 60, 0
4, 47328, Note_on_c, 1, 62, 85
4, 47328, Note_on_c, 1, 59, 85
4, 47373, Note_on_c, 1, 62, 0
4, 47373, Note_on_c, 1, 59, 0
4, 47376, Note_on_c, 1, 59, 85
4, 47376, Note_on_c, 1, 55, 85
4, 47421, Note_on_c, 1, 59, 0
4, 47421, Note_on_c, 1, 55, 0
4, 47424, Note_on_c, 1, 60, 85
4, 47469, Note_on_c, 1, 60, 0
4, 47472, Note_on_c, 1, 48, 85
4, 47517, Note_on_c, 1, 48, 0
4, 47616, Note_on_c, 1, 51, 85
4, 47616, Note_on_c, 1, 46, 85
4, 47616, Note_on_c, 1, 43, 85
4, 47616, Note_on_c, 1, 39, 85
4, 47663, Note_on_c, 1, 51, 0
4, 47663, Note_on_c, 1, 46, 0
4, 47663, Note_on_c, 1, 43, 0
4, 47663, Note_on_c, 1, 39, 0
4, 47664, Note_on_c, 1, 67, 85
4, 47664, Note_on_c, 1, 63, 85
4, 47709, Note_on_c, 1, 67, 0
4, 47709, Note_on_c, 1, 63, 0
4, 47712, Note_on_c, 1, 65, 85
4, 47712, Note_on_c, 1, 62, 85
4, 47757, Note_on_c, 1, 65, 0
4, 47757, Note_on_c, 1, 62, 0
4, 47760, Note_on_c, 1, 62, 82
4, 47760, Note_on_c, 1, 58, 82
4, 47805, Note_on_c, 1, 62, 0
4, 47805, Note_on_c, 1, 58, 0
4, 47856, Note_on_c, 1, 51, 77
4, 47901, Note_on_c, 1, 51, 0
4, 47904, Note_on_c, 1, 55, 74
4, 47949, Note_on_c, 1, 55, 0
4, 47952, Note_on_c, 1, 58, 71
4, 47997, Note_on_c, 1, 58, 0
4, 48000, Note_on_c, 1, 60, 69
4, 48096, Note_on_c, 1, 60, 0
4, 48096, Note_on_c, 1, 62, 64
4, 48185, Note_on_c, 1, 62, 0
4, 48240, Note_on_c, 1, 63, 64
4, 48285, Note_on_c, 1, 63, 0
4, 48288, Note_on_c, 1, 51, 64
4, 48333, Note_on_c, 1, 51, 0
4, 48336, Note_on_c, 1, 58, 64
4, 48381, Note_on_c, 1, 58, 0
4, 48384, Note_on_c, 1, 60, 64
4, 48480, Note_on_c, 1, 60, 0
4, 48480, Note_on_c, 1, 62, 64
4, 48569, Note_on_c, 1, 62, 0
4, 48576, Note_on_c, 1, 63, 64
4, 48665, Note_on_c, 1, 63, 0
4, 48720, Note_on_c, 1, 58, 64
4, 48720, Note_on_c, 1, 55, 64
4, 48765, Note_on_c, 1, 58, 0
4, 48765, Note_on_c, 1, 55, 0
4, 48816, Note_on_c, 1, 60, 64
4, 48816, Note_on_c, 1, 56, 64
4, 48861, Note_on_c, 1, 60, 0
4, 48861, Note_on_c, 1, 56, 0
4, 48912, Note_on_c, 1, 56, 64
4, 48912, Note_on_c, 1, 46, 64
4, 48957, Note_on_c, 1, 56, 0
4, 48957, Note_on_c, 1, 46, 0
4, 49008, Note_on_c, 1, 55, 64
4, 49008, Note_on_c, 1, 51, 64
4, 49053, Note_on_c, 1, 55, 0
4, 49053, Note_on_c, 1, 51, 0
4, 49104, Note_on_c, 1, 58, 65
4, 49104, Note_on_c, 1, 55, 65
4, 49149, Note_on_c, 1, 58, 0
4, 49149, Note_on_c, 1, 55, 0
4, 49200, Note_on_c, 1, 60, 67
4, 49200, Note_on_c, 1, 56, 67
4, 49245, Note_on_c, 1, 60, 0
4, 49245, Note_on_c, 1, 56, 0
4, 49296, Note_on_c, 1, 60, 69
4, 49296, Note_on_c, 1, 57, 69
4, 49341, Note_on_c, 1, 60, 0
4, 49341, Note_on_c, 1, 57, 0
4, 49392, Note_on_c, 1, 62, 71
4, 49392, Note_on_c, 1, 58, 71
4, 49437, Note_on_c, 1, 62, 0
4, 49437, Note_on_c, 1, 58, 0
4, 49488, Note_on_c, 1, 63, 73
4, 49488, Note_on_c, 1, 60, 73
4, 49533, Note_on_c, 1, 63, 0
4, 49533, Note_on_c, 1, 60, 0
4, 49584, Note_on_c, 1, 65, 75
4, 49584, Note_on_c, 1, 62, 75
4, 49629, Note_on_c, 1, 65, 0
4, 49629, Note_on_c, 1, 62, 0
4, 49680, Note_on_c, 1, 67, 77
4, 49680, Note_on_c, 1, 63, 77
4, 49725, Note_on_c, 1, 67, 0
4, 49725, Note_on_c, 1, 63, 0
4, 49776, Note_on_c, 1, 68, 79
4, 49776, Note_on_c, 1, 65, 79
4, 49821, Note_on_c, 1, 68, 0
4, 49821, Note_on_c, 1, 65, 0
4, 49872, Note_on_c, 1, 68, 81
4, 49872, Note_on_c, 1, 65, 81
4, 49872, Note_on_c, 1, 62, 81
4, 49872, Note_on_c, 1, 58, 81
4, 49917, Note_on_c, 1, 68, 0
4, 49917, Note_on_c, 1, 65, 0
4, 49917, Note_on_c, 1, 62, 0
4, 49917, Note_on_c, 1, 58, 0
4, 49968, Note_on_c, 1, 68, 83
4, 49968, Note_on_c, 1, 65, 83
4, 49968, Note_on_c, 1, 62, 83
4, 49968, Note_on_c, 1, 58, 83
4, 50013, Note_on_c, 1, 68, 0
4, 50013, Note_on_c, 1, 65, 0
4, 50013, Note_on_c, 1, 62, 0
4, 50013, Note_on_c, 1, 58, 0
4, 50064, Note_on_c, 1, 68, 85
4, 50064, Note_on_c, 1, 65, 85
4, 50064, Note_on_c, 1, 62, 85
4, 50064, Note_on_c, 1, 58, 85
4, 50109, Note_on_c, 1, 68, 0
4, 50109, Note_on_c, 1, 65, 0
4, 50109, Note_on_c, 1, 62, 0
4, 50109, Note_on_c, 1, 58, 0
4, 50160, Note_on_c, 1, 68, 87
4, 50160, Note_on_c, 1, 65, 87
4, 50160, Note_on_c, 1, 62, 87
4, 50160, Note_on_c, 1, 58, 87
4, 50585, Note_on_c, 1, 68, 0
4, 50585, Note_on_c, 1, 65, 0
4, 50585, Note_on_c, 1, 62, 0
4, 50585, Note_on_c, 1, 58, 0
4, 50736, Note_on_c, 1, 60, 78
4, 50736, Note_on_c, 1, 56, 78
4, 50781, Note_on_c, 1, 60, 0
4, 50781, Note_on_c, 1, 56, 0
4, 50784, Note_on_c, 1, 58, 78
4, 50784, Note_on_c, 1, 55, 78
4, 50829, Note_on_c, 1, 58, 0
4, 50829, Note_on_c, 1, 55, 0
4, 50832, Note_on_c, 1, 56, 78
4, 50832, Note_on_c, 1, 53, 78
4, 50877, Note_on_c, 1, 56, 0
4, 50877, Note_on_c, 1, 53, 0
4, 50880, Note_on_c, 1, 55, 78
4, 50880, Note_on_c, 1, 51, 78
4, 50925, Note_on_c, 1, 55, 0
4, 50925, Note_on_c, 1, 51, 0
4, 50928, Note_on_c, 1, 60, 78
4, 50928, Note_on_c, 1, 56, 78
4, 50973, Note_on_c, 1, 60, 0
4, 50973, Note_on_c, 1, 56, 0
4, 50976, Note_on_c, 1, 58, 78
4, 50976, Note_on_c, 1, 55, 78
4, 51021, Note_on_c, 1, 58, 0
4, 51021, Note_on_c, 1, 55, 0
4, 51024, Note_on_c, 1, 56, 78
4, 51024, Note_on_c, 1, 53, 78
4, 51069, Note_on_c, 1, 56, 0
4, 51069, Note_on_c, 1, 53, 0
4, 51072, Note_on_c, 1, 55, 78
4, 51072, Note_on_c, 1, 51, 78
4, 51117, Note_on_c, 1, 55, 0
4, 51117, Note_on_c, 1, 51, 0
4, 51120, Note_on_c, 1, 60, 78
4, 51165, Note_on_c, 1, 60, 0
4, 51168, Note_on_c, 1, 58, 78
4, 51213, Note_on_c, 1, 58, 0
4, 51216, Note_on_c, 1, 57, 78
4, 51261, Note_on_c, 1, 57, 0
4, 51264, Note_on_c, 1, 58, 78
4, 51309, Note_on_c, 1, 58, 0
4, 51312, Note_on_c, 1, 46, 78
4, 51312, Note_on_c, 1, 34, 78
4, 51357, Note_on_c, 1, 46, 0
4, 51357, Note_on_c, 1, 34, 0
4, 51360, Note_on_c, 1, 48, 78
4, 51360, Note_on_c, 1, 36, 78
4, 51405, Note_on_c, 1, 48, 0
4, 51405, Note_on_c, 1, 36, 0
4, 51408, Note_on_c, 1, 50, 78
4, 51408, Note_on_c, 1, 38, 78
4, 51453, Note_on_c, 1, 50, 0
4, 51453, Note_on_c, 1, 38, 0
4, 51456, Note_on_c, 1, 51, 78
4, 51456, Note_on_c, 1, 39, 78
4, 51545, Note_on_c, 1, 51, 0
4, 51545, Note_on_c, 1, 39, 0
4, 51648, Note_on_c, 1, 58, 78
4, 51648, Note_on_c, 1, 55, 78
4, 51648, Note_on_c, 1, 51, 78
4, 51737, Note_on_c, 1, 58, 0
4, 51737, Note_on_c, 1, 55, 0
4, 51737, Note_on_c, 1, 51, 0
4, 51840, Note_on_c, 1, 53, 78
4, 51840, Note_on_c, 1, 48, 78
4, 51840, Note_on_c, 1, 44, 78
4, 51929, Note_on_c, 1, 53, 0
4, 51929, Note_on_c, 1, 48, 0
4, 51929, Note_on_c, 1, 44, 0
4, 51984, Note_on_c, 1, 53, 78
4, 51984, Note_on_c, 1, 48, 78
4, 51984, Note_on_c, 1, 45, 78
4, 52029, Note_on_c, 1, 53, 0
4, 52029, Note_on_c, 1, 48, 0
4, 52029, Note_on_c, 1, 45, 0
4, 52032, Note_on_c, 1, 53, 78
4, 52032, Note_on_c, 1, 50, 78
4, 52032, Note_on_c, 1, 46, 78
4, 52121, Note_on_c, 1, 53, 0
4, 52121, Note_on_c, 1, 50, 0
4, 52121, Note_on_c, 1, 46, 0
4, 52224, Note_on_c, 1, 46, 78
4, 52224, Note_on_c, 1, 34, 78
4, 52269, Note_on_c, 1, 46, 0
4, 52269, Note_on_c, 1, 34, 0
4, 52272, Note_on_c, 1, 65, 78
4, 52272, Note_on_c, 1, 62, 78
4, 52272, Note_on_c, 1, 58, 78
4, 52272, Note_on_c, 1, 56, 78
4, 52317, Note_on_c, 1, 65, 0
4, 52317, Note_on_c, 1, 62, 0
4, 52317, Note_on_c, 1, 58, 0
4, 52317, Note_on_c, 1, 56, 0
4, 52320, Note_on_c, 1, 65, 78
4, 52320, Note_on_c, 1, 62, 78
4, 52320, Note_on_c, 1, 58, 78
4, 52320, Note_on_c, 1, 56, 78
4, 52365, Note_on_c, 1, 65, 0
4, 52365, Note_on_c, 1, 62, 0
4, 52365, Note_on_c, 1, 58, 0
4, 52365, Note_on_c, 1, 56, 0
4, 52368, Note_on_c, 1, 65, 78
4, 52368, Note_on_c, 1, 62, 78
4, 52368, Note_on_c, 1, 58, 78
4, 52368, Note_on_c, 1, 56, 78
4, 52413, Note_on_c, 1, 65, 0
4, 52413, Note_on_c, 1, 62, 0
4, 52413, Note_on_c, 1, 58, 0
4, 52413, Note_on_c, 1, 56, 0
4, 52416, Note_on_c, 1, 63, 78
4, 52416, Note_on_c, 1, 58, 78
4, 52416, Note_on_c, 1, 55, 78
4, 52461, Note_on_c, 1, 63, 0
4, 52461, Note_on_c, 1, 58, 0
4, 52461, Note_on_c, 1, 55, 0
4, 52464, Note_on_c, 1, 65, 78
4, 52464, Note_on_c, 1, 62, 78
4, 52464, Note_on_c, 1, 58, 78
4, 52464, Note_on_c, 1, 56, 78
4, 52509, Note_on_c, 1, 65, 0
4, 52509, Note_on_c, 1, 62, 0
4, 52509, Note_on_c, 1, 58, 0
4, 52509, Note_on_c, 1, 56, 0
4, 52512, Note_on_c, 1, 65, 78
4, 52512, Note_on_c, 1, 62, 78
4, 52512, Note_on_c, 1, 58, 78
4, 52512, Note_on_c, 1, 56, 78
4, 52557, Note_on_c, 1, 65, 0
4, 52557, Note_on_c, 1, 62, 0
4, 52557, Note_on_c, 1, 58, 0
4, 52557, Note_on_c, 1, 56, 0
4, 52560, Note_on_c, 1, 65, 78
4, 52560, Note_on_c, 1, 62, 78
4, 52560, Note_on_c, 1, 58, 78
4, 52560, Note_on_c, 1, 56, 78
4, 52605, Note_on_c, 1, 65, 0
4, 52605, Note_on_c, 1, 62, 0
4, 52605, Note_on_c, 1, 58, 0
4, 52605, Note_on_c, 1, 56, 0
4, 52608, Note_on_c, 1, 63, 78
4, 52608, Note_on_c, 1, 58, 78
4, 52608, Note_on_c, 1, 55, 78
4, 52653, Note_on_c, 1, 63, 0
4, 52653, Note_on_c, 1, 58, 0
4, 52653, Note_on_c, 1, 55, 0
4, 52656, Note_on_c, 1, 65, 78
4, 52656, Note_on_c, 1, 62, 78
4, 52656, Note_on_c, 1, 58, 78
4, 52656, Note_on_c, 1, 56, 78
4, 52701, Note_on_c, 1, 65, 0
4, 52701, Note_on_c, 1, 62, 0
4, 52701, Note_on_c, 1, 58, 0
4, 52701, Note_on_c, 1, 56, 0
4, 52704, Note_on_c, 1, 65, 78
4, 52704, Note_on_c, 1, 62, 78
4, 52704, Note_on_c, 1, 58, 78
4, 52704, Note_on_c, 1, 56, 78
4, 52749, Note_on_c, 1, 65, 0
4, 52749, Note_on_c, 1, 62, 0
4, 52749, Note_on_c, 1, 58, 0
4, 52749, Note_on_c, 1, 56, 0
4, 52752, Note_on_c, 1, 65, 78
4, 52752, Note_on_c, 1, 62, 78
4, 52752, Note_on_c, 1, 58, 78
4, 52752, Note_on_c, 1, 56, 78
4, 52797, Note_on_c, 1, 65, 0
4, 52797, Note_on_c, 1, 62, 0
4, 52797, Note_on_c, 1, 58, 0
4, 52797, Note_on_c, 1, 56, 0
4, 52800, Note_on_c, 1, 63, 78
4, 52800, Note_on_c, 1, 58, 78
4, 52800, Note_on_c, 1, 55, 78
4, 52889, Note_on_c, 1, 63, 0
4, 52889, Note_on_c, 1, 58, 0
4, 52889, Note_on_c, 1, 55, 0
4, 52992, Note_on_c, 1, 63, 78
4, 52992, Note_on_c, 1, 60, 78
4, 52992, Note_on_c, 1, 56, 78
4, 53081, Note_on_c, 1, 63, 0
4, 53081, Note_on_c, 1, 60, 0
4, 53081, Note_on_c, 1, 56, 0
4, 53136, Note_on_c, 1, 65, 78
4, 53136, Note_on_c, 1, 60, 78
4, 53136, Note_on_c, 1, 57, 78
4, 53181, Note_on_c, 1, 65, 0
4, 53181, Note_on_c, 1, 60, 0
4, 53181, Note_on_c, 1, 57, 0
4, 53184, Note_on_c, 1, 65, 78
4, 53184, Note_on_c, 1, 62, 78
4, 53229, Note_on_c, 1, 65, 0
4, 53229, Note_on_c, 1, 62, 0
4, 53232, Note_on_c, 1, 62, 78
4, 53277, Note_on_c, 1, 62, 0
4, 53280, Note_on_c, 1, 63, 78
4, 53325, Note_on_c, 1, 63, 0
4, 53328, Note_on_c, 1, 67, 78
4, 53373, Note_on_c, 1, 67, 0
4, 53424, Note_on_c, 1, 62, 78
4, 53469, Note_on_c, 1, 62, 0
4, 53472, Note_on_c, 1, 63, 78
4, 53517, Note_on_c, 1, 63, 0
4, 53520, Note_on_c, 1, 67, 78
4, 53565, Note_on_c, 1, 67, 0
4, 53616, Note_on_c, 1, 62, 78
4, 53661, Note_on_c, 1, 62, 0
4, 53664, Note_on_c, 1, 63, 78
4, 53709, Note_on_c, 1, 63, 0
4, 53712, Note_on_c, 1, 67, 78
4, 53757, Note_on_c, 1, 67, 0
4, 53760, Note_on_c, 1, 62, 78
4, 53849, Note_on_c, 1, 62, 0
4, 53856, Note_on_c, 1, 46, 78
4, 53856, Note_on_c, 1, 34, 78
4, 53901, Note_on_c, 1, 46, 0
4, 53901, Note_on_c, 1, 34, 0
4, 53904, Note_on_c, 1, 46, 78
4, 53904, Note_on_c, 1, 34, 78
4, 53949, Note_on_c, 1, 46, 0
4, 53949, Note_on_c, 1, 34, 0
4, 53952, Note_on_c, 1, 46, 78
4, 53952, Note_on_c, 1, 34, 78
4, 54041, Note_on_c, 1, 46, 0
4, 54041, Note_on_c, 1, 34, 0
4, 54144, Note_on_c, 1, 51, 78
4, 54144, Note_on_c, 1, 46, 78
4, 54144, Note_on_c, 1, 43, 78
4, 54144, Note_on_c, 1, 39, 78
4, 54189, Note_on_c, 1, 51, 0
4, 54189, Note_on_c, 1, 46, 0
4, 54189, Note_on_c, 1, 43, 0
4, 54189, Note_on_c, 1, 39, 0
4, 54240, Note_on_c, 1, 51, 78
4, 54240, Note_on_c, 1, 46, 78
4, 54240, Note_on_c, 1, 43, 78
4, 54240, Note_on_c, 1, 39, 78
4, 54285, Note_on_c, 1, 51, 0
4, 54285, Note_on_c, 1, 46, 0
4, 54285, Note_on_c, 1, 43, 0
4, 54285, Note_on_c, 1, 39, 0
4, 54336, Note_on_c, 1, 51, 78
4, 54336, Note_on_c, 1, 46, 78
4, 54336, Note_on_c, 1, 43, 78
4, 54336, Note_on_c, 1, 39, 78
4, 54381, Note_on_c, 1, 51, 0
4, 54381, Note_on_c, 1, 46, 0
4, 54381, Note_on_c, 1, 43, 0
4, 54381, Note_on_c, 1, 39, 0
4, 54528, Note_on_c, 1, 67, 64
4, 54528, Note_on_c, 1, 63, 64
4, 54573, Note_on_c, 1, 67, 0
4, 54573, Note_on_c, 1, 63, 0
4, 54624, Note_on_c, 1, 65, 64
4, 54624, Note_on_c, 1, 63, 64
4, 54669, Note_on_c, 1, 65, 0
4, 54669, Note_on_c, 1, 63, 0
4, 54720, Note_on_c, 1, 65, 64
4, 54720, Note_on_c, 1, 62, 64
4, 54853, Note_on_c, 1, 65, 0
4, 54853, Note_on_c, 1, 62, 0
4, 54864, Note_on_c, 1, 63, 64
4, 54909, Note_on_c, 1, 63, 0
4, 54912, Note_on_c, 1, 63, 64
4, 54912, Note_on_c, 1, 56, 64
4, 55001, Note_on_c, 1, 63, 0
4, 55001, Note_on_c, 1, 56, 0
4, 55008, Note_on_c, 1, 62, 64
4, 55008, Note_on_c, 1, 58, 64
4, 55053, Note_on_c, 1, 62, 0
4, 55053, Note_on_c, 1, 58, 0
4, 55056, Note_on_c, 1, 59, 64
4, 55101, Note_on_c, 1, 59, 0
4, 55104, Note_on_c, 1, 60, 64
4, 55193, Note_on_c, 1, 60, 0
4, 55296, Note_on_c, 1, 67, 64
4, 55296, Note_on_c, 1, 63, 64
4, 55341, Note_on_c, 1, 67, 0
4, 55341, Note_on_c, 1, 63, 0
4, 55392, Note_on_c, 1, 65, 64
4, 55392, Note_on_c, 1, 63, 64
4, 55437, Note_on_c, 1, 65, 0
4, 55437, Note_on_c, 1, 63, 0
4, 55488, Note_on_c, 1, 65, 64
4, 55488, Note_on_c, 1, 62, 64
4, 55621, Note_on_c, 1, 65, 0
4, 55621, Note_on_c, 1, 62, 0
4, 55632, Note_on_c, 1, 63, 64
4, 55677, Note_on_c, 1, 63, 0
4, 55680, Note_on_c, 1, 63, 64
4, 55725, Note_on_c, 1, 63, 0
4, 55728, Note_on_c, 1, 64, 64
4, 55773, Note_on_c, 1, 64, 0
4, 55776, Note_on_c, 1, 65, 64
4, 55909, Note_on_c, 1, 65, 0
4, 55920, Note_on_c, 1, 65, 64
4, 55968, Note_on_c, 1, 68, 64
4, 56197, Note_on_c, 1, 68, 0
4, 56197, Note_on_c, 1, 65, 0
4, 56208, Note_on_c, 1, 62, 58
4, 56220, Note_on_c, 1, 62, 0
4, 56220, Note_on_c, 1, 63, 58
4, 56232, Note_on_c, 1, 63, 0
4, 56232, Note_on_c, 1, 65, 58
4, 56244, Note_on_c, 1, 65, 0
4, 56244, Note_on_c, 1, 67, 58
4, 56256, Note_on_c, 1, 67, 0
4, 56256, Note_on_c, 1, 68, 58
4, 56301, Note_on_c, 1, 68, 0
4, 56304, Note_on_c, 1, 68, 58
4, 56316, Note_on_c, 1, 68, 0
4, 56316, Note_on_c, 1, 67, 58
4, 56328, Note_on_c, 1, 67, 0
4, 56328, Note_on_c, 1, 65, 58
4, 56340, Note_on_c, 1, 65, 0
4, 56340, Note_on_c, 1, 63, 58
4, 56352, Note_on_c, 1, 63, 0
4, 56352, Note_on_c, 1, 62, 58
4, 56397, Note_on_c, 1, 62, 0
4, 56400, Note_on_c, 1, 62, 58
4, 56412, Note_on_c, 1, 62, 0
4, 56412, Note_on_c, 1, 63, 58
4, 56424, Note_on_c, 1, 63, 0
4, 56424, Note_on_c, 1, 65, 58
4, 56436, Note_on_c, 1, 65, 0
4, 56436, Note_on_c, 1, 67, 58
4, 56448, Note_on_c, 1, 67, 0
4, 56448, Note_on_c, 1, 68, 58
4, 56493, Note_on_c, 1, 68, 0
4, 57600, Note_on_c, 1, 67, 85
4, 57609, Note_on_c, 1, 67, 0
4, 57609, Note_on_c, 1, 65, 85
4, 57618, Note_on_c, 1, 65, 0
4, 57618, Note_on_c, 1, 67, 85
4, 57627, Note_on_c, 1, 67, 0
4, 57627, Note_on_c, 1, 65, 85
4, 57636, Note_on_c, 1, 65, 0
4, 57636, Note_on_c, 1, 67, 85
4, 57645, Note_on_c, 1, 67, 0
4, 57645, Note_on_c, 1, 65, 85
4, 57654, Note_on_c, 1, 65, 0
4, 57654, Note_on_c, 1, 67, 85
4, 57663, Note_on_c, 1, 67, 0
4, 57663, Note_on_c, 1, 65, 85
4, 57672, Note_on_c, 1, 65, 0
4, 57672, Note_on_c, 1, 67, 85
4, 57681, Note_on_c, 1, 67, 0
4, 57681, Note_on_c, 1, 65, 85
4, 57690, Note_on_c, 1, 65, 0
4, 57690, Note_on_c, 1, 67, 85
4, 57699, Note_on_c, 1, 67, 0
4, 57699, Note_on_c, 1, 65, 85
4, 57708, Note_on_c, 1, 65, 0
4, 57708, Note_on_c, 1, 67, 85
4, 57717, Note_on_c, 1, 67, 0
4, 57717, Note_on_c, 1, 65, 85
4, 57726, Note_on_c, 1, 65, 0
4, 57726, Note_on_c, 1, 67, 85
4, 57735, Note_on_c, 1, 67, 0
4, 57735, Note_on_c, 1, 65, 85
4, 57744, Note_on_c, 1, 65, 0
4, 57744, Note_on_c, 1, 67, 85
4, 57752, Note_on_c, 1, 67, 0
4, 57752, Note_on_c, 1, 65, 85
4, 57760, Note_on_c, 1, 65, 0
4, 57760, Note_on_c, 1, 67, 85
4, 57768, Note_on_c, 1, 67, 0
4, 57768, Note_on_c, 1, 65, 85
4, 57776, Note_on_c, 1, 65, 0
4, 57776, Note_on_c, 1, 63, 85
4, 57784, Note_on_c, 1, 63, 0
4, 57784, Note_on_c, 1, 65, 85
4, 57792, Note_on_c, 1, 65, 0
4, 57792, Note_on_c, 1, 67, 85
4, 57792, Note_on_c, 1, 63, 85
4, 57837, Note_on_c, 1, 67, 0
4, 57837, Note_on_c, 1, 63, 0
4, 57840, Note_on_c, 1, 63, 85
4, 57840, Note_on_c, 1, 58, 85
4, 57840, Note_on_c, 1, 55, 85
4, 57860, Note_on_c, 1, 63, 0
4, 57860, Note_on_c, 1, 58, 0
4, 57860, Note_on_c, 1, 55, 0
4, 57888, Note_on_c, 1, 63, 85
4, 57888, Note_on_c, 1, 60, 85
4, 57888, Note_on_c, 1, 56, 85
4, 57908, Note_on_c, 1, 63, 0
4, 57908, Note_on_c, 1, 60, 0
4, 57908, Note_on_c, 1, 56, 0
4, 57936, Note_on_c, 1, 62, 85
4, 57981, Note_on_c, 1, 62, 0
4, 57984, Note_on_c, 1, 63, 85
4, 58029, Note_on_c, 1, 63, 0
4, 58032, Note_on_c, 1, 63, 85
4, 58032, Note_on_c, 1, 58, 85
4, 58032, Note_on_c, 1, 55, 85
4, 58052, Note_on_c, 1, 63, 0
4, 58052, Note_on_c, 1, 58, 0
4, 58052, Note_on_c, 1, 55, 0
4, 58080, Note_on_c, 1, 63, 85
4, 58080, Note_on_c, 1, 60, 85
4, 58080, Note_on_c, 1, 56, 85
4, 58100, Note_on_c, 1, 63, 0
4, 58100, Note_on_c, 1, 60, 0
4, 58100, Note_on_c, 1, 56, 0
4, 58128, Note_on_c, 1, 62, 85
4, 58128, Note_on_c, 1, 58, 85
4, 58148, Note_on_c, 1, 62, 0
4, 58148, Note_on_c, 1, 58, 0
4, 58176, Note_on_c, 1, 63, 85
4, 58176, Note_on_c, 1, 58, 85
4, 58176, Note_on_c, 1, 55, 85
4, 58176, Note_on_c, 1, 51, 85
4, 58215, Note_on_c, 1, 63, 0
4, 58215, Note_on_c, 1, 58, 0
4, 58215, Note_on_c, 1, 55, 0
4, 58215, Note_on_c, 1, 51, 0
4, 58704, End_track
5, 0, Start_track
5, 0, Program_c, 1, 0
5, 0, Control_c, 1, 7, 127
5, 0, Control_c, 1, 10, 64
5, 4320, Note_on_c, 1, 46, 64
5, 4335, Note_on_c, 1, 46, 0
5, 4356, Note_on_c, 1, 46, 64
5, 4368, Note_on_c, 1, 46, 0
5, 4368, Note_on_c, 1, 41, 64
5, 4383, Note_on_c, 1, 41, 0
5, 4404, Note_on_c, 1, 38, 64
5, 4416, Note_on_c, 1, 38, 0
5, 4416, Note_on_c, 1, 34, 64
5, 4461, Note_on_c, 1, 34, 0
5, 4992, Note_on_c, 1, 50, 64
5, 5081, Note_on_c, 1, 50, 0
5, 5952, Note_on_c, 1, 60, 64
5, 6129, Note_on_c, 1, 60, 0
5, 6144, Note_on_c, 1, 65, 64
5, 6321, Note_on_c, 1, 65, 0
5, 6336, Note_on_c, 1, 65, 64
5, 6513, Note_on_c, 1, 65, 0
5, 6528, Note_on_c, 1, 64, 64
5, 6705, Note_on_c, 1, 64, 0
5, 6720, Note_on_c, 1, 65, 64
5, 6809, Note_on_c, 1, 65, 0
5, 7536, Note_on_c, 1, 66, 64
5, 7581, Note_on_c, 1, 66, 0
5, 7584, Note_on_c, 1, 65, 64
5, 7629, Note_on_c, 1, 65, 0
5, 7632, Note_on_c, 1, 70, 64
5, 7677, Note_on_c, 1, 70, 0
5, 8304, Note_on_c, 1, 66, 64
5, 8349, Note_on_c, 1, 66, 0
5, 8352, Note_on_c, 1, 65, 64
5, 8397, Note_on_c, 1, 65, 0
5, 8400, Note_on_c, 1, 70, 64
5, 8445, Note_on_c, 1, 70, 0
5, 8448, Note_on_c, 1, 63, 64
5, 8625, Note_on_c, 1, 63, 0
5, 8640, Note_on_c, 1, 65, 64
5, 9069, Note_on_c, 1, 65, 0
5, 9984, Note_on_c, 1, 65, 64
5, 10161, Note_on_c, 1, 65, 0
5, 10176, Note_on_c, 1, 74, 64
5, 10221, Note_on_c, 1, 74, 0
5, 10224, Note_on_c, 1, 58, 64
5, 10224, Note_on_c, 1, 53, 64
5, 10224, Note_on_c, 1, 50, 64
5, 10244, Note_on_c, 1, 58, 0
5, 10244, Note_on_c, 1, 53, 0
5, 10244, Note_on_c, 1, 50, 0
5, 10272, Note_on_c, 1, 58, 64
5, 10272, Note_on_c, 1, 55, 64
5, 10272, Note_on_c, 1, 51, 64
5, 10292, Note_on_c, 1, 58, 0
5, 10292, Note_on_c, 1, 55, 0
5, 10292, Note_on_c, 1, 51, 0
5, 10320, Note_on_c, 1, 69, 64
5, 10365, Note_on_c, 1, 69, 0
5, 10368, Note_on_c, 1, 70, 64
5, 10413, Note_on_c, 1, 70, 0
5, 15072, Note_on_c, 1, 46, 64
5, 15087, Note_on_c, 1, 46, 0
5, 15108, Note_on_c, 1, 46, 64
5, 15120, Note_on_c, 1, 46, 0
5, 15120, Note_on_c, 1, 41, 64
5, 15135, Note_on_c, 1, 41, 0
5, 15156, Note_on_c, 1, 38, 64
5, 15168, Note_on_c, 1, 38, 0
5, 15168, Note_on_c, 1, 34, 64
5, 15213, Note_on_c, 1, 34, 0
5, 15744, Note_on_c, 1, 50, 64
5, 15833, Note_on_c, 1, 50, 0
5, 16704, Note_on_c, 1, 60, 64
5, 16881, Note_on_c, 1, 60, 0
5, 16896, Note_on_c, 1, 65, 64
5, 17073, Note_on_c, 1, 65, 0
5, 17088, Note_on_c, 1, 65, 64
5, 17265, Note_on_c, 1, 65, 0
5, 17280, Note_on_c, 1, 64, 64
5, 17457, Note_on_c, 1, 64, 0
5, 17472, Note_on_c, 1, 65, 64
5, 17561, Note_on_c, 1, 65, 0
5, 18288, Note_on_c, 1, 66, 64
5, 18333, Note_on_c, 1, 66, 0
5, 18336, Note_on_c, 1, 65, 64
5, 18381, Note_on_c, 1, 65, 0
5, 18384, Note_on_c, 1, 70, 64
5, 18429, Note_on_c, 1, 70, 0
5, 19056, Note_on_c, 1, 66, 64
5, 19101, Note_on_c, 1, 66, 0
5, 19104, Note_on_c, 1, 65, 64
5, 19149, Note_on_c, 1, 65, 0
5, 19152, Note_on_c, 1, 70, 64
5, 19197, Note_on_c, 1, 70, 0
5, 19200, Note_on_c, 1, 63, 64
5, 19377, Note_on_c, 1, 63, 0
5, 19392, Note_on_c, 1, 65, 64
5, 19821, Note_on_c, 1, 65, 0
5, 20736, Note_on_c, 1, 65, 64
5, 20913, Note_on_c, 1, 65, 0
5, 20928, Note_on_c, 1, 74, 64
5, 20973, Note_on_c, 1, 74, 0
5, 20976, Note_on_c, 1, 58, 64
5, 20976, Note_on_c, 1, 53, 64
5, 20976, Note_on_c, 1, 50, 64
5, 20996, Note_on_c, 1, 58, 0
5, 20996, Note_on_c, 1, 53, 0
5, 20996, Note_on_c, 1, 50, 0
5, 21024, Note_on_c, 1, 58, 64
5, 21024, Note_on_c, 1, 55, 64
5, 21024, Note_on_c, 1, 51, 64
5, 21044, Note_on_c, 1, 58, 0
5, 21044, Note_on_c, 1, 55, 0
5, 21044, Note_on_c, 1, 51, 0
5, 21072, Note_on_c, 1, 69, 64
5, 21117, Note_on_c, 1, 69, 0
5, 21120, Note_on_c, 1, 70, 64
5, 21165, Note_on_c, 1, 70, 0
5, 21552, Note_on_c, 1, 51, 64
5, 21552, Note_on_c, 1, 48, 64
5, 21597, Note_on_c, 1, 51, 0
5, 21597, Note_on_c, 1, 48, 0
5, 21600, Note_on_c, 1, 50, 64
5, 21600, Note_on_c, 1, 47, 64
5, 21645, Note_on_c, 1, 50, 0
5, 21645, Note_on_c, 1, 47, 0
5, 21648, Note_on_c, 1, 48, 64
5, 21648, Note_on_c, 1, 45, 64
5, 21693, Note_on_c, 1, 48, 0
5, 21693, Note_on_c, 1, 45, 0
5, 21696, Note_on_c, 1, 47, 64
5, 21696, Note_on_c, 1, 43, 64
5, 21741, Note_on_c, 1, 47, 0
5, 21741, Note_on_c, 1, 43, 0
5, 21744, Note_on_c, 1, 51, 64
5, 21744, Note_on_c, 1, 48, 64
5, 21789, Note_on_c, 1, 51, 0
5, 21789, Note_on_c, 1, 48, 0
5, 21792, Note_on_c, 1, 50, 64
5, 21792, Note_on_c, 1, 47, 64
5, 21837, Note_on_c, 1, 50, 0
5, 21837, Note_on_c, 1, 47, 0
5, 21840, Note_on_c, 1, 48, 64
5, 21840, Note_on_c, 1, 45, 64
5, 21885, Note_on_c, 1, 48, 0
5, 21885, Note_on_c, 1, 45, 0
5, 21888, Note_on_c, 1, 47, 64
5, 21888, Note_on_c, 1, 43, 64
5, 21933, Note_on_c, 1, 47, 0
5, 21933, Note_on_c, 1, 43, 0
5, 21936, Note_on_c, 1, 51, 64
5, 21936, Note_on_c, 1, 48, 64
5, 21981, Note_on_c, 1, 51, 0
5, 21981, Note_on_c, 1, 48, 0
5, 21984, Note_on_c, 1, 50, 64
5, 21984, Note_on_c, 1, 47, 64
5, 22029, Note_on_c, 1, 50, 0
5, 22029, Note_on_c, 1, 47, 0
5, 22032, Note_on_c, 1, 48, 64
5, 22032, Note_on_c, 1, 45, 64
5, 22077, Note_on_c, 1, 48, 0
5, 22077, Note_on_c, 1, 45, 0
5, 22080, Note_on_c, 1, 47, 64
5, 22080, Note_on_c, 1, 43, 64
5, 22125, Note_on_c, 1, 47, 0
5, 22125, Note_on_c, 1, 43, 0
5, 25728, Note_on_c, 1, 53, 64
5, 25861, Note_on_c, 1, 53, 0
5, 25872, Note_on_c, 1, 54, 64
5, 25917, Note_on_c, 1, 54, 0
5, 25920, Note_on_c, 1, 55, 64
5, 25965, Note_on_c, 1, 55, 0
5, 25968, Note_on_c, 1, 55, 64
5, 26013, Note_on_c, 1, 55, 0
5, 26016, Note_on_c, 1, 55, 64
5, 26061, Note_on_c, 1, 55, 0
5, 26064, Note_on_c, 1, 55, 64
5, 26109, Note_on_c, 1, 55, 0
5, 26112, Note_on_c, 1, 55, 64
5, 26157, Note_on_c, 1, 55, 0
5, 26160, Note_on_c, 1, 55, 64
5, 26205, Note_on_c, 1, 55, 0
5, 26208, Note_on_c, 1, 55, 64
5, 26253, Note_on_c, 1, 55, 0
5, 26256, Note_on_c, 1, 55, 64
5, 26301, Note_on_c, 1, 55, 0
5, 26304, Note_on_c, 1, 53, 64
5, 26349, Note_on_c, 1, 53, 0
5, 26352, Note_on_c, 1, 53, 64
5, 26397, Note_on_c, 1, 53, 0
5, 26400, Note_on_c, 1, 53, 64
5, 26445, Note_on_c, 1, 53, 0
5, 26448, Note_on_c, 1, 53, 64
5, 26493, Note_on_c, 1, 53, 0
5, 26496, Note_on_c, 1, 53, 64
5, 26541, Note_on_c, 1, 53, 0
5, 26544, Note_on_c, 1, 53, 64
5, 26589, Note_on_c, 1, 53, 0
5, 26592, Note_on_c, 1, 53, 64
5, 26637, Note_on_c, 1, 53, 0
5, 26640, Note_on_c, 1, 53, 64
5, 26685, Note_on_c, 1, 53, 0
5, 27648, Note_on_c, 1, 62, 64
5, 27737, Note_on_c, 1, 62, 0
5, 27744, Note_on_c, 1, 67, 64
5, 27833, Note_on_c, 1, 67, 0
5, 27840, Note_on_c, 1, 60, 64
5, 27929, Note_on_c, 1, 60, 0
5, 28272, Note_on_c, 1, 51, 64
5, 28317, Note_on_c, 1, 51, 0
5, 28320, Note_on_c, 1, 53, 64
5, 28365, Note_on_c, 1, 53, 0
5, 28368, Note_on_c, 1, 55, 64
5, 28413, Note_on_c, 1, 55, 0
5, 28416, Note_on_c, 1, 51, 64
5, 28461, Note_on_c, 1, 51, 0
5, 28560, Note_on_c, 1, 53, 64
5, 28607, Note_on_c, 1, 53, 0
5, 28608, Note_on_c, 1, 51, 64
5, 28653, Note_on_c, 1, 51, 0
5, 28656, Note_on_c, 1, 53, 64
5, 28701, Note_on_c, 1, 53, 0
5, 28704, Note_on_c, 1, 55, 64
5, 28793, Note_on_c, 1, 55, 0
5, 33792, Note_on_c, 1, 46, 64
5, 33837, Note_on_c, 1, 46, 0
5, 34752, Note_on_c, 1, 58, 64
5, 34929, Note_on_c, 1, 58, 0
5, 34944, Note_on_c, 1, 58, 64
5, 35121, Note_on_c, 1, 58, 0
5, 35136, Note_on_c, 1, 58, 64
5, 35313, Note_on_c, 1, 58, 0
5, 35328, Note_on_c, 1, 58, 64
5, 35417, Note_on_c, 1, 58, 0
5, 36336, Note_on_c, 1, 59, 64
5, 36381, Note_on_c, 1, 59, 0
5, 36384, Note_on_c, 1, 58, 64
5, 36429, Note_on_c, 1, 58, 0
5, 36432, Note_on_c, 1, 63, 64
5, 36477, Note_on_c, 1, 63, 0
5, 36480, Note_on_c, 1, 63, 64
5, 36480, Note_on_c, 1, 56, 64
5, 36569, Note_on_c, 1, 63, 0
5, 36569, Note_on_c, 1, 56, 0
5, 36576, Note_on_c, 1, 62, 64
5, 36576, Note_on_c, 1, 58, 64
5, 36621, Note_on_c, 1, 62, 0
5, 36621, Note_on_c, 1, 58, 0
5, 36624, Note_on_c, 1, 59, 64
5, 36669, Note_on_c, 1, 59, 0
5, 36672, Note_on_c, 1, 60, 64
5, 36761, Note_on_c, 1, 60, 0
5, 37104, Note_on_c, 1, 59, 64
5, 37149, Note_on_c, 1, 59, 0
5, 37152, Note_on_c, 1, 58, 64
5, 37197, Note_on_c, 1, 58, 0
5, 37200, Note_on_c, 1, 63, 64
5, 37245, Note_on_c, 1, 63, 0
5, 37248, Note_on_c, 1, 56, 64
5, 37425, Note_on_c, 1, 56, 0
5, 37440, Note_on_c, 1, 58, 64
5, 37721, Note_on_c, 1, 58, 0
5, 38400, Note_on_c, 1, 51, 64
5, 38400, Note_on_c, 1, 46, 64
5, 38400, Note_on_c, 1, 43, 64
5, 38400, Note_on_c, 1, 39, 64
5, 38489, Note_on_c, 1, 51, 0
5, 38489, Note_on_c, 1, 46, 0
5, 38489, Note_on_c, 1, 43, 0
5, 38489, Note_on_c, 1, 39, 0
5, 38592, Note_on_c, 1, 60, 64
5, 38592, Note_on_c, 1, 55, 64
5, 38592, Note_on_c, 1, 51, 64
5, 38592, Note_on_c, 1, 48, 64
5, 38681, Note_on_c, 1, 60, 0
5, 38681, Note_on_c, 1, 55, 0
5, 38681, Note_on_c, 1, 51, 0
5, 38681, Note_on_c, 1, 48, 0
5, 38784, Note_on_c, 1, 53, 64
5, 38784, Note_on_c, 1, 48, 64
5, 38784, Note_on_c, 1, 44, 64
5, 38873, Note_on_c, 1, 53, 0
5, 38873, Note_on_c, 1, 48, 0
5, 38873, Note_on_c, 1, 44, 0
5, 38976, Note_on_c, 1, 55, 64
5, 38976, Note_on_c, 1, 51, 64
5, 38976, Note_on_c, 1, 46, 64
5, 39065, Note_on_c, 1, 55, 0
5, 39065, Note_on_c, 1, 51, 0
5, 39065, Note_on_c, 1, 46, 0
5, 39168, Note_on_c, 1, 58, 64
5, 39345, Note_on_c, 1, 58, 0
5, 39984, Note_on_c, 1, 51, 64
5, 39984, Note_on_c, 1, 48, 64
5, 40029, Note_on_c, 1, 51, 0
5, 40029, Note_on_c, 1, 48, 0
5, 40032, Note_on_c, 1, 50, 64
5, 40032, Note_on_c, 1, 47, 64
5, 40077, Note_on_c, 1, 50, 0
5, 40077, Note_on_c, 1, 47, 0
5, 40080, Note_on_c, 1, 48, 64
5, 40080, Note_on_c, 1, 45, 64
5, 40125, Note_on_c, 1, 48, 0
5, 40125, Note_on_c, 1, 45, 0
5, 40128, Note_on_c, 1, 47, 64
5, 40128, Note_on_c, 1, 43, 64
5, 40173, Note_on_c, 1, 47, 0
5, 40173, Note_on_c, 1, 43, 0
5, 40176, Note_on_c, 1, 51, 64
5, 40176, Note_on_c, 1, 48, 64
5, 40221, Note_on_c, 1, 51, 0
5, 40221, Note_on_c, 1, 48, 0
5, 40224, Note_on_c, 1, 50, 64
5, 40224, Note_on_c, 1, 47, 64
5, 40269, Note_on_c, 1, 50, 0
5, 40269, Note_on_c, 1, 47, 0
5, 40272, Note_on_c, 1, 48, 64
5, 40272, Note_on_c, 1, 45, 64
5, 40317, Note_on_c, 1, 48, 0
5, 40317, Note_on_c, 1, 45, 0
5, 40320, Note_on_c, 1, 47, 64
5, 40320, Note_on_c, 1, 43, 64
5, 40365, Note_on_c, 1, 47, 0
5, 40365, Note_on_c, 1, 43, 0
5, 40368, Note_on_c, 1, 51, 64
5, 40368, Note_on_c, 1, 48, 64
5, 40413, Note_on_c, 1, 51, 0
5, 40413, Note_on_c, 1, 48, 0
5, 40416, Note_on_c, 1, 50, 64
5, 40416, Note_on_c, 1, 47, 64
5, 40461, Note_on_c, 1, 50, 0
5, 40461, Note_on_c, 1, 47, 0
5, 40464, Note_on_c, 1, 48, 64
5, 40464, Note_on_c, 1, 45, 64
5, 40509, Note_on_c, 1, 48, 0
5, 40509, Note_on_c, 1, 45, 0
5, 40512, Note_on_c, 1, 47, 64
5, 40512, Note_on_c, 1, 43, 64
5, 40557, Note_on_c, 1, 47, 0
5, 40557, Note_on_c, 1, 43, 0
5, 44160, Note_on_c, 1, 53, 64
5, 44293, Note_on_c, 1, 53, 0
5, 44304, Note_on_c, 1, 54, 64
5, 44349, Note_on_c, 1, 54, 0
5, 44352, Note_on_c, 1, 55, 64
5, 44397, Note_on_c, 1, 55, 0
5, 44400, Note_on_c, 1, 55, 64
5, 44445, Note_on_c, 1, 55, 0
5, 44448, Note_on_c, 1, 55, 64
5, 44493, Note_on_c, 1, 55, 0
5, 44496, Note_on_c, 1, 55, 64
5, 44541, Note_on_c, 1, 55, 0
5, 44544, Note_on_c, 1, 55, 64
5, 44589, Note_on_c, 1, 55, 0
5, 44592, Note_on_c, 1, 55, 64
5, 44637, Note_on_c, 1, 55, 0
5, 44640, Note_on_c, 1, 55, 64
5, 44685, Note_on_c, 1, 55, 0
5, 44688, Note_on_c, 1, 55, 64
5, 44733, Note_on_c, 1, 55, 0
5, 44736, Note_on_c, 1, 53, 64
5, 44781, Note_on_c, 1, 53, 0
5, 44784, Note_on_c, 1, 53, 64
5, 44829, Note_on_c, 1, 53, 0
5, 44832, Note_on_c, 1, 53, 64
5, 44877, Note_on_c, 1, 53, 0
5, 44880, Note_on_c, 1, 53, 64
5, 44925, Note_on_c, 1, 53, 0
5, 44928, Note_on_c, 1, 53, 64
5, 44973, Note_on_c, 1, 53, 0
5, 44976, Note_on_c, 1, 53, 64
5, 45021, Note_on_c, 1, 53, 0
5, 45024, Note_on_c, 1, 53, 64
5, 45069, Note_on_c, 1, 53, 0
5, 45072, Note_on_c, 1, 53, 64
5, 45117, Note_on_c, 1, 53, 0
5, 46080, Note_on_c, 1, 62, 64
5, 46169, Note_on_c, 1, 62, 0
5, 46176, Note_on_c, 1, 67, 64
5, 46265, Note_on_c, 1, 67, 0
5, 46272, Note_on_c, 1, 60, 64
5, 46361, Note_on_c, 1, 60, 0
5, 46704, Note_on_c, 1, 51, 64
5, 46749, Note_on_c, 1, 51, 0
5, 46752, Note_on_c, 1, 53, 64
5, 46797, Note_on_c, 1, 53, 0
5, 46800, Note_on_c, 1, 55, 64
5, 46845, Note_on_c, 1, 55, 0
5, 46848, Note_on_c, 1, 51, 64
5, 46893, Note_on_c, 1, 51, 0
5, 46992, Note_on_c, 1, 53, 64
5, 47039, Note_on_c, 1, 53, 0
5, 47040, Note_on_c, 1, 51, 64
5, 47085, Note_on_c, 1, 51, 0
5, 47088, Note_on_c, 1, 53, 64
5, 47133, Note_on_c, 1, 53, 0
5, 47136, Note_on_c, 1, 55, 64
5, 47225, Note_on_c, 1, 55, 0
5, 52224, Note_on_c, 1, 46, 64
5, 52269, Note_on_c, 1, 46, 0
5, 53184, Note_on_c, 1, 58, 64
5, 53361, Note_on_c, 1, 58, 0
5, 53376, Note_on_c, 1, 58, 64
5, 53553, Note_on_c, 1, 58, 0
5, 53568, Note_on_c, 1, 58, 64
5, 53745, Note_on_c, 1, 58, 0
5, 53760, Note_on_c, 1, 58, 64
5, 53849, Note_on_c, 1, 58, 0
5, 54768, Note_on_c, 1, 59, 64
5, 54813, Note_on_c, 1, 59, 0
5, 54816, Note_on_c, 1, 58, 64
5, 54861, Note_on_c, 1, 58, 0
5, 54864, Note_on_c, 1, 63, 64
5, 54909, Note_on_c, 1, 63, 0
5, 54912, Note_on_c, 1, 63, 64
5, 54912, Note_on_c, 1, 56, 64
5, 55001, Note_on_c, 1, 63, 0
5, 55001, Note_on_c, 1, 56, 0
5, 55008, Note_on_c, 1, 62, 64
5, 55008, Note_on_c, 1, 58, 64
5, 55053, Note_on_c, 1, 62, 0
5, 55053, Note_on_c, 1, 58, 0
5, 55056, Note_on_c, 1, 59, 64
5, 55101, Note_on_c, 1, 59, 0
5, 55104, Note_on_c, 1, 60, 64
5, 55193, Note_on_c, 1, 60, 0
5, 55536, Note_on_c, 1, 59, 64
5, 55581, Note_on_c, 1, 59, 0
5, 55584, Note_on_c, 1, 58, 64
5, 55629, Note_on_c, 1, 58, 0
5, 55632, Note_on_c, 1, 63, 64
5, 55677, Note_on_c, 1, 63, 0
5, 55680, Note_on_c, 1, 56, 64
5, 55857, Note_on_c, 1, 56, 0
5, 55872, Note_on_c, 1, 58, 64
5, 56153, Note_on_c, 1, 58, 0
5, 56832, Note_on_c, 1, 51, 64
5, 56832, Note_on_c, 1, 46, 64
5, 56832, Note_on_c, 1, 43, 64
5, 56832, Note_on_c, 1, 39, 64
5, 56921, Note_on_c, 1, 51, 0
5, 56921, Note_on_c, 1, 46, 0
5, 56921, Note_on_c, 1, 43, 0
5, 56921, Note_on_c, 1, 39, 0
5, 57024, Note_on_c, 1, 60, 64
5, 57024, Note_on_c, 1, 55, 64
5, 57024, Note_on_c, 1, 51, 64
5, 57024, Note_on_c, 1, 48, 64
5, 57113, Note_on_c, 1, 60, 0
5, 57113, Note_on_c, 1, 55, 0
5, 57113, Note_on_c, 1, 51, 0
5, 57113, Note_on_c, 1, 48, 0
5, 57216, Note_on_c, 1, 53, 64
5, 57216, Note_on_c, 1, 48, 64
5, 57216, Note_on_c, 1, 44, 64
5, 57305, Note_on_c, 1, 53, 0
5, 57305, Note_on_c, 1, 48, 0
5, 57305, Note_on_c, 1, 44, 0
5, 57408, Note_on_c, 1, 55, 64
5, 57408, Note_on_c, 1, 51, 64
5, 57408, Note_on_c, 1, 46, 64
5, 57497, Note_on_c, 1, 55, 0
5, 57497, Note_on_c, 1, 51, 0
5, 57497, Note_on_c, 1, 46, 0
5, 57600, Note_on_c, 1, 58, 64
5, 57777, Note_on_c, 1, 58, 0
5, 58704, End_track
6, 0, Start_track
6, 0, Title_t, "Sonata IV   Haydn  "
6, 0, End_track
0, 0, End_of_file
