0, 0, Header, 1, 6, 96
1, 0, Start_track
1, 0, Copyright_t, "Copyright  2000 <copyright holder>"
1, 0, Text_t, "Sonata V\015\012"
1, 0, Text_t, "Haydn"
1, 0, Sequencer_specific, 16, 68, 87, 77, 90, 86, 82, 83, 78, 32, 54, 46, 48, 46, 57, 46, 48
1, 0, Time_signature, 2, 2, 24, 8
1, 0, Tempo, 731707
1, 0, Key_signature, 1, "major"
1, 6144, Key_signature, -2, "major"
1, 10944, Key_signature, 1, "major"
1, 33408, End_track
2, 0, Start_track
2, 0, Program_c, 0, 0
2, 0, Control_c, 0, 7, 127
2, 0, Control_c, 0, 10, 64
2, 96, Note_on_c, 0, 71, 64
2, 163, Note_on_c, 0, 71, 0
2, 168, Note_on_c, 0, 72, 64
2, 180, Note_on_c, 0, 72, 0
2, 180, Note_on_c, 0, 74, 64
2, 192, Note_on_c, 0, 74, 0
2, 192, Note_on_c, 0, 67, 64
2, 237, Note_on_c, 0, 67, 0
2, 240, Note_on_c, 0, 67, 64
2, 285, Note_on_c, 0, 67, 0
2, 288, Note_on_c, 0, 69, 64
2, 294, Note_on_c, 0, 69, 0
2, 294, Note_on_c, 0, 71, 64
2, 300, Note_on_c, 0, 71, 0
2, 300, Note_on_c, 0, 69, 64
2, 322, Note_on_c, 0, 69, 0
2, 324, Note_on_c, 0, 67, 64
2, 336, Note_on_c, 0, 67, 0
2, 336, Note_on_c, 0, 69, 64
2, 370, Note_on_c, 0, 69, 0
2, 372, Note_on_c, 0, 71, 64
2, 384, Note_on_c, 0, 71, 0
2, 384, Note_on_c, 0, 67, 64
2, 429, Note_on_c, 0, 67, 0
2, 480, Note_on_c, 0, 76, 64
2, 503, Note_on_c, 0, 76, 0
2, 504, Note_on_c, 0, 78, 64
2, 516, Note_on_c, 0, 78, 0
2, 516, Note_on_c, 0, 79, 64
2, 528, Note_on_c, 0, 79, 0
2, 528, Note_on_c, 0, 74, 64
2, 548, Note_on_c, 0, 74, 0
2, 576, Note_on_c, 0, 72, 64
2, 599, Note_on_c, 0, 72, 0
2, 600, Note_on_c, 0, 74, 64
2, 612, Note_on_c, 0, 74, 0
2, 612, Note_on_c, 0, 76, 64
2, 624, Note_on_c, 0, 76, 0
2, 624, Note_on_c, 0, 71, 64
2, 644, Note_on_c, 0, 71, 0
2, 672, Note_on_c, 0, 69, 64
2, 717, Note_on_c, 0, 69, 0
2, 720, Note_on_c, 0, 69, 64
2, 728, Note_on_c, 0, 69, 0
2, 728, Note_on_c, 0, 67, 64
2, 736, Note_on_c, 0, 67, 0
2, 736, Note_on_c, 0, 69, 64
2, 744, Note_on_c, 0, 69, 0
2, 744, Note_on_c, 0, 67, 64
2, 752, Note_on_c, 0, 67, 0
2, 752, Note_on_c, 0, 66, 64
2, 760, Note_on_c, 0, 66, 0
2, 760, Note_on_c, 0, 67, 64
2, 768, Note_on_c, 0, 67, 0
2, 768, Note_on_c, 0, 74, 64
2, 768, Note_on_c, 0, 66, 64
2, 813, Note_on_c, 0, 74, 0
2, 813, Note_on_c, 0, 66, 0
2, 864, Note_on_c, 0, 74, 64
2, 931, Note_on_c, 0, 74, 0
2, 936, Note_on_c, 0, 76, 64
2, 948, Note_on_c, 0, 76, 0
2, 948, Note_on_c, 0, 78, 64
2, 960, Note_on_c, 0, 78, 0
2, 960, Note_on_c, 0, 76, 64
2, 1005, Note_on_c, 0, 76, 0
2, 1008, Note_on_c, 0, 76, 64
2, 1053, Note_on_c, 0, 76, 0
2, 1056, Note_on_c, 0, 73, 64
2, 1101, Note_on_c, 0, 73, 0
2, 1104, Note_on_c, 0, 74, 64
2, 1116, Note_on_c, 0, 74, 0
2, 1116, Note_on_c, 0, 76, 64
2, 1128, Note_on_c, 0, 76, 0
2, 1128, Note_on_c, 0, 78, 64
2, 1140, Note_on_c, 0, 78, 0
2, 1140, Note_on_c, 0, 79, 64
2, 1152, Note_on_c, 0, 79, 0
2, 1152, Note_on_c, 0, 81, 64
2, 1197, Note_on_c, 0, 81, 0
2, 1200, Note_on_c, 0, 81, 64
2, 1245, Note_on_c, 0, 81, 0
2, 1248, Note_on_c, 0, 83, 64
2, 1293, Note_on_c, 0, 83, 0
2, 1296, Note_on_c, 0, 86, 64
2, 1319, Note_on_c, 0, 86, 0
2, 1320, Note_on_c, 0, 85, 64
2, 1332, Note_on_c, 0, 85, 0
2, 1332, Note_on_c, 0, 83, 64
2, 1344, Note_on_c, 0, 83, 0
2, 1344, Note_on_c, 0, 81, 64
2, 1389, Note_on_c, 0, 81, 0
2, 1392, Note_on_c, 0, 85, 64
2, 1404, Note_on_c, 0, 85, 0
2, 1404, Note_on_c, 0, 83, 64
2, 1416, Note_on_c, 0, 83, 0
2, 1416, Note_on_c, 0, 81, 64
2, 1428, Note_on_c, 0, 81, 0
2, 1428, Note_on_c, 0, 79, 64
2, 1440, Note_on_c, 0, 79, 0
2, 1440, Note_on_c, 0, 78, 64
2, 1485, Note_on_c, 0, 78, 0
2, 1488, Note_on_c, 0, 78, 64
2, 1496, Note_on_c, 0, 78, 0
2, 1496, Note_on_c, 0, 76, 64
2, 1504, Note_on_c, 0, 76, 0
2, 1504, Note_on_c, 0, 78, 64
2, 1512, Note_on_c, 0, 78, 0
2, 1512, Note_on_c, 0, 76, 64
2, 1520, Note_on_c, 0, 76, 0
2, 1520, Note_on_c, 0, 74, 64
2, 1528, Note_on_c, 0, 74, 0
2, 1528, Note_on_c, 0, 76, 64
2, 1536, Note_on_c, 0, 76, 0
2, 1536, Note_on_c, 0, 74, 64
2, 1625, Note_on_c, 0, 74, 0
2, 1632, Note_on_c, 0, 71, 64
2, 1699, Note_on_c, 0, 71, 0
2, 1704, Note_on_c, 0, 72, 64
2, 1716, Note_on_c, 0, 72, 0
2, 1716, Note_on_c, 0, 74, 64
2, 1728, Note_on_c, 0, 74, 0
2, 1728, Note_on_c, 0, 67, 64
2, 1773, Note_on_c, 0, 67, 0
2, 1776, Note_on_c, 0, 67, 64
2, 1821, Note_on_c, 0, 67, 0
2, 1824, Note_on_c, 0, 69, 64
2, 1830, Note_on_c, 0, 69, 0
2, 1830, Note_on_c, 0, 71, 64
2, 1836, Note_on_c, 0, 71, 0
2, 1836, Note_on_c, 0, 69, 64
2, 1858, Note_on_c, 0, 69, 0
2, 1860, Note_on_c, 0, 67, 64
2, 1872, Note_on_c, 0, 67, 0
2, 1872, Note_on_c, 0, 69, 64
2, 1906, Note_on_c, 0, 69, 0
2, 1908, Note_on_c, 0, 71, 64
2, 1920, Note_on_c, 0, 71, 0
2, 1920, Note_on_c, 0, 67, 64
2, 1965, Note_on_c, 0, 67, 0
2, 2016, Note_on_c, 0, 76, 64
2, 2039, Note_on_c, 0, 76, 0
2, 2040, Note_on_c, 0, 78, 64
2, 2052, Note_on_c, 0, 78, 0
2, 2052, Note_on_c, 0, 79, 64
2, 2064, Note_on_c, 0, 79, 0
2, 2064, Note_on_c, 0, 74, 64
2, 2084, Note_on_c, 0, 74, 0
2, 2112, Note_on_c, 0, 72, 64
2, 2135, Note_on_c, 0, 72, 0
2, 2136, Note_on_c, 0, 74, 64
2, 2148, Note_on_c, 0, 74, 0
2, 2148, Note_on_c, 0, 76, 64
2, 2160, Note_on_c, 0, 76, 0
2, 2160, Note_on_c, 0, 71, 64
2, 2180, Note_on_c, 0, 71, 0
2, 2208, Note_on_c, 0, 69, 64
2, 2253, Note_on_c, 0, 69, 0
2, 2256, Note_on_c, 0, 69, 64
2, 2264, Note_on_c, 0, 69, 0
2, 2264, Note_on_c, 0, 67, 64
2, 2272, Note_on_c, 0, 67, 0
2, 2272, Note_on_c, 0, 69, 64
2, 2280, Note_on_c, 0, 69, 0
2, 2280, Note_on_c, 0, 67, 64
2, 2288, Note_on_c, 0, 67, 0
2, 2288, Note_on_c, 0, 66, 64
2, 2296, Note_on_c, 0, 66, 0
2, 2296, Note_on_c, 0, 67, 64
2, 2304, Note_on_c, 0, 67, 0
2, 2304, Note_on_c, 0, 74, 64
2, 2304, Note_on_c, 0, 66, 64
2, 2349, Note_on_c, 0, 74, 0
2, 2349, Note_on_c, 0, 66, 0
2, 2400, Note_on_c, 0, 74, 64
2, 2467, Note_on_c, 0, 74, 0
2, 2472, Note_on_c, 0, 76, 64
2, 2484, Note_on_c, 0, 76, 0
2, 2484, Note_on_c, 0, 78, 64
2, 2496, Note_on_c, 0, 78, 0
2, 2496, Note_on_c, 0, 76, 64
2, 2541, Note_on_c, 0, 76, 0
2, 2544, Note_on_c, 0, 76, 64
2, 2589, Note_on_c, 0, 76, 0
2, 2592, Note_on_c, 0, 73, 64
2, 2637, Note_on_c, 0, 73, 0
2, 2640, Note_on_c, 0, 74, 64
2, 2652, Note_on_c, 0, 74, 0
2, 2652, Note_on_c, 0, 76, 64
2, 2664, Note_on_c, 0, 76, 0
2, 2664, Note_on_c, 0, 78, 64
2, 2676, Note_on_c, 0, 78, 0
2, 2676, Note_on_c, 0, 79, 64
2, 2688, Note_on_c, 0, 79, 0
2, 2688, Note_on_c, 0, 81, 64
2, 2733, Note_on_c, 0, 81, 0
2, 2736, Note_on_c, 0, 81, 64
2, 2781, Note_on_c, 0, 81, 0
2, 2784, Note_on_c, 0, 83, 64
2, 2829, Note_on_c, 0, 83, 0
2, 2832, Note_on_c, 0, 86, 64
2, 2855, Note_on_c, 0, 86, 0
2, 2856, Note_on_c, 0, 85, 64
2, 2868, Note_on_c, 0, 85, 0
2, 2868, Note_on_c, 0, 83, 64
2, 2880, Note_on_c, 0, 83, 0
2, 2880, Note_on_c, 0, 81, 64
2, 2925, Note_on_c, 0, 81, 0
2, 2928, Note_on_c, 0, 85, 64
2, 2940, Note_on_c, 0, 85, 0
2, 2940, Note_on_c, 0, 83, 64
2, 2952, Note_on_c, 0, 83, 0
2, 2952, Note_on_c, 0, 81, 64
2, 2964, Note_on_c, 0, 81, 0
2, 2964, Note_on_c, 0, 79, 64
2, 2976, Note_on_c, 0, 79, 0
2, 2976, Note_on_c, 0, 78, 64
2, 3021, Note_on_c, 0, 78, 0
2, 3024, Note_on_c, 0, 78, 64
2, 3032, Note_on_c, 0, 78, 0
2, 3032, Note_on_c, 0, 76, 64
2, 3040, Note_on_c, 0, 76, 0
2, 3040, Note_on_c, 0, 78, 64
2, 3048, Note_on_c, 0, 78, 0
2, 3048, Note_on_c, 0, 76, 64
2, 3056, Note_on_c, 0, 76, 0
2, 3056, Note_on_c, 0, 74, 64
2, 3064, Note_on_c, 0, 74, 0
2, 3064, Note_on_c, 0, 76, 64
2, 3072, Note_on_c, 0, 76, 0
2, 3072, Note_on_c, 0, 74, 64
2, 3161, Note_on_c, 0, 74, 0
2, 3168, Note_on_c, 0, 74, 64
2, 3235, Note_on_c, 0, 74, 0
2, 3240, Note_on_c, 0, 76, 64
2, 3252, Note_on_c, 0, 76, 0
2, 3252, Note_on_c, 0, 78, 64
2, 3264, Note_on_c, 0, 78, 0
2, 3264, Note_on_c, 0, 68, 64
2, 3309, Note_on_c, 0, 68, 0
2, 3312, Note_on_c, 0, 68, 64
2, 3357, Note_on_c, 0, 68, 0
2, 3360, Note_on_c, 0, 69, 64
2, 3366, Note_on_c, 0, 69, 0
2, 3366, Note_on_c, 0, 71, 64
2, 3372, Note_on_c, 0, 71, 0
2, 3372, Note_on_c, 0, 69, 64
2, 3394, Note_on_c, 0, 69, 0
2, 3396, Note_on_c, 0, 68, 64
2, 3408, Note_on_c, 0, 68, 0
2, 3408, Note_on_c, 0, 69, 64
2, 3442, Note_on_c, 0, 69, 0
2, 3444, Note_on_c, 0, 71, 64
2, 3456, Note_on_c, 0, 71, 0
2, 3456, Note_on_c, 0, 71, 64
2, 3501, Note_on_c, 0, 71, 0
2, 3504, Note_on_c, 0, 72, 64
2, 3549, Note_on_c, 0, 72, 0
2, 3552, Note_on_c, 0, 72, 64
2, 3586, Note_on_c, 0, 72, 0
2, 3588, Note_on_c, 0, 76, 64
2, 3600, Note_on_c, 0, 76, 0
2, 3600, Note_on_c, 0, 69, 64
2, 3634, Note_on_c, 0, 69, 0
2, 3636, Note_on_c, 0, 72, 64
2, 3648, Note_on_c, 0, 72, 0
2, 3648, Note_on_c, 0, 71, 64
2, 3682, Note_on_c, 0, 71, 0
2, 3684, Note_on_c, 0, 74, 64
2, 3696, Note_on_c, 0, 74, 0
2, 3696, Note_on_c, 0, 67, 64
2, 3730, Note_on_c, 0, 67, 0
2, 3732, Note_on_c, 0, 71, 64
2, 3744, Note_on_c, 0, 71, 0
2, 3744, Note_on_c, 0, 69, 64
2, 3778, Note_on_c, 0, 69, 0
2, 3780, Note_on_c, 0, 72, 64
2, 3792, Note_on_c, 0, 72, 0
2, 3792, Note_on_c, 0, 64, 64
2, 3826, Note_on_c, 0, 64, 0
2, 3828, Note_on_c, 0, 69, 64
2, 3840, Note_on_c, 0, 69, 0
2, 3840, Note_on_c, 0, 67, 64
2, 3885, Note_on_c, 0, 67, 0
2, 3888, Note_on_c, 0, 66, 64
2, 3933, Note_on_c, 0, 66, 0
2, 4032, Note_on_c, 0, 78, 64
2, 4099, Note_on_c, 0, 78, 0
2, 4104, Note_on_c, 0, 79, 64
2, 4116, Note_on_c, 0, 79, 0
2, 4116, Note_on_c, 0, 81, 64
2, 4128, Note_on_c, 0, 81, 0
2, 4128, Note_on_c, 0, 72, 64
2, 4173, Note_on_c, 0, 72, 0
2, 4176, Note_on_c, 0, 72, 64
2, 4221, Note_on_c, 0, 72, 0
2, 4224, Note_on_c, 0, 84, 64
2, 4258, Note_on_c, 0, 84, 0
2, 4260, Note_on_c, 0, 88, 64
2, 4272, Note_on_c, 0, 88, 0
2, 4272, Note_on_c, 0, 81, 64
2, 4306, Note_on_c, 0, 81, 0
2, 4308, Note_on_c, 0, 84, 64
2, 4320, Note_on_c, 0, 84, 0
2, 4320, Note_on_c, 0, 78, 64
2, 4354, Note_on_c, 0, 78, 0
2, 4356, Note_on_c, 0, 81, 64
2, 4368, Note_on_c, 0, 81, 0
2, 4368, Note_on_c, 0, 74, 64
2, 4402, Note_on_c, 0, 74, 0
2, 4404, Note_on_c, 0, 78, 64
2, 4416, Note_on_c, 0, 78, 0
2, 4416, Note_on_c, 0, 79, 64
2, 4450, Note_on_c, 0, 79, 0
2, 4452, Note_on_c, 0, 74, 64
2, 4464, Note_on_c, 0, 74, 0
2, 4464, Note_on_c, 0, 76, 64
2, 4498, Note_on_c, 0, 76, 0
2, 4500, Note_on_c, 0, 72, 64
2, 4512, Note_on_c, 0, 72, 0
2, 4512, Note_on_c, 0, 71, 64
2, 4557, Note_on_c, 0, 71, 0
2, 4560, Note_on_c, 0, 71, 64
2, 4568, Note_on_c, 0, 71, 0
2, 4568, Note_on_c, 0, 69, 64
2, 4576, Note_on_c, 0, 69, 0
2, 4576, Note_on_c, 0, 71, 64
2, 4584, Note_on_c, 0, 71, 0
2, 4584, Note_on_c, 0, 69, 64
2, 4592, Note_on_c, 0, 69, 0
2, 4592, Note_on_c, 0, 67, 64
2, 4600, Note_on_c, 0, 67, 0
2, 4600, Note_on_c, 0, 69, 64
2, 4608, Note_on_c, 0, 69, 0
2, 4608, Note_on_c, 0, 67, 64
2, 4697, Note_on_c, 0, 67, 0
2, 4704, Note_on_c, 0, 74, 64
2, 4771, Note_on_c, 0, 74, 0
2, 4776, Note_on_c, 0, 76, 64
2, 4788, Note_on_c, 0, 76, 0
2, 4788, Note_on_c, 0, 77, 64
2, 4800, Note_on_c, 0, 77, 0
2, 4800, Note_on_c, 0, 68, 64
2, 4845, Note_on_c, 0, 68, 0
2, 4848, Note_on_c, 0, 68, 64
2, 4893, Note_on_c, 0, 68, 0
2, 4896, Note_on_c, 0, 69, 64
2, 4902, Note_on_c, 0, 69, 0
2, 4902, Note_on_c, 0, 71, 64
2, 4908, Note_on_c, 0, 71, 0
2, 4908, Note_on_c, 0, 69, 64
2, 4930, Note_on_c, 0, 69, 0
2, 4932, Note_on_c, 0, 68, 64
2, 4944, Note_on_c, 0, 68, 0
2, 4944, Note_on_c, 0, 69, 64
2, 4978, Note_on_c, 0, 69, 0
2, 4980, Note_on_c, 0, 71, 64
2, 4992, Note_on_c, 0, 71, 0
2, 4992, Note_on_c, 0, 71, 64
2, 5037, Note_on_c, 0, 71, 0
2, 5040, Note_on_c, 0, 72, 64
2, 5085, Note_on_c, 0, 72, 0
2, 5088, Note_on_c, 0, 72, 64
2, 5122, Note_on_c, 0, 72, 0
2, 5124, Note_on_c, 0, 76, 64
2, 5136, Note_on_c, 0, 76, 0
2, 5136, Note_on_c, 0, 69, 64
2, 5170, Note_on_c, 0, 69, 0
2, 5172, Note_on_c, 0, 72, 64
2, 5184, Note_on_c, 0, 72, 0
2, 5184, Note_on_c, 0, 71, 64
2, 5218, Note_on_c, 0, 71, 0
2, 5220, Note_on_c, 0, 74, 64
2, 5232, Note_on_c, 0, 74, 0
2, 5232, Note_on_c, 0, 67, 64
2, 5266, Note_on_c, 0, 67, 0
2, 5268, Note_on_c, 0, 71, 64
2, 5280, Note_on_c, 0, 71, 0
2, 5280, Note_on_c, 0, 69, 64
2, 5314, Note_on_c, 0, 69, 0
2, 5316, Note_on_c, 0, 72, 64
2, 5328, Note_on_c, 0, 72, 0
2, 5328, Note_on_c, 0, 64, 64
2, 5362, Note_on_c, 0, 64, 0
2, 5364, Note_on_c, 0, 69, 64
2, 5376, Note_on_c, 0, 69, 0
2, 5376, Note_on_c, 0, 67, 64
2, 5421, Note_on_c, 0, 67, 0
2, 5424, Note_on_c, 0, 66, 64
2, 5469, Note_on_c, 0, 66, 0
2, 5568, Note_on_c, 0, 78, 64
2, 5635, Note_on_c, 0, 78, 0
2, 5640, Note_on_c, 0, 79, 64
2, 5652, Note_on_c, 0, 79, 0
2, 5652, Note_on_c, 0, 81, 64
2, 5664, Note_on_c, 0, 81, 0
2, 5664, Note_on_c, 0, 72, 64
2, 5709, Note_on_c, 0, 72, 0
2, 5712, Note_on_c, 0, 72, 64
2, 5757, Note_on_c, 0, 72, 0
2, 5760, Note_on_c, 0, 84, 64
2, 5794, Note_on_c, 0, 84, 0
2, 5796, Note_on_c, 0, 88, 64
2, 5808, Note_on_c, 0, 88, 0
2, 5808, Note_on_c, 0, 81, 64
2, 5842, Note_on_c, 0, 81, 0
2, 5844, Note_on_c, 0, 84, 64
2, 5856, Note_on_c, 0, 84, 0
2, 5856, Note_on_c, 0, 78, 64
2, 5890, Note_on_c, 0, 78, 0
2, 5892, Note_on_c, 0, 81, 64
2, 5904, Note_on_c, 0, 81, 0
2, 5904, Note_on_c, 0, 74, 64
2, 5938, Note_on_c, 0, 74, 0
2, 5940, Note_on_c, 0, 78, 64
2, 5952, Note_on_c, 0, 78, 0
2, 5952, Note_on_c, 0, 79, 64
2, 5986, Note_on_c, 0, 79, 0
2, 5988, Note_on_c, 0, 74, 64
2, 6000, Note_on_c, 0, 74, 0
2, 6000, Note_on_c, 0, 76, 64
2, 6034, Note_on_c, 0, 76, 0
2, 6036, Note_on_c, 0, 72, 64
2, 6048, Note_on_c, 0, 72, 0
2, 6048, Note_on_c, 0, 71, 64
2, 6093, Note_on_c, 0, 71, 0
2, 6096, Note_on_c, 0, 71, 64
2, 6104, Note_on_c, 0, 71, 0
2, 6104, Note_on_c, 0, 69, 64
2, 6112, Note_on_c, 0, 69, 0
2, 6112, Note_on_c, 0, 71, 64
2, 6120, Note_on_c, 0, 71, 0
2, 6120, Note_on_c, 0, 69, 64
2, 6128, Note_on_c, 0, 69, 0
2, 6128, Note_on_c, 0, 67, 64
2, 6136, Note_on_c, 0, 67, 0
2, 6136, Note_on_c, 0, 69, 64
2, 6144, Note_on_c, 0, 69, 0
2, 6144, Note_on_c, 0, 67, 64
2, 6233, Note_on_c, 0, 67, 0
2, 6240, Note_on_c, 0, 79, 64
2, 6307, Note_on_c, 0, 79, 0
2, 6312, Note_on_c, 0, 81, 64
2, 6324, Note_on_c, 0, 81, 0
2, 6324, Note_on_c, 0, 82, 64
2, 6336, Note_on_c, 0, 82, 0
2, 6336, Note_on_c, 0, 74, 64
2, 6381, Note_on_c, 0, 74, 0
2, 6384, Note_on_c, 0, 74, 64
2, 6384, Note_on_c, 0, 70, 64
2, 6473, Note_on_c, 0, 74, 0
2, 6473, Note_on_c, 0, 70, 0
2, 6480, Note_on_c, 0, 72, 64
2, 6480, Note_on_c, 0, 69, 64
2, 6525, Note_on_c, 0, 72, 0
2, 6525, Note_on_c, 0, 69, 0
2, 6528, Note_on_c, 0, 69, 64
2, 6528, Note_on_c, 0, 72, 64
2, 6540, Note_on_c, 0, 72, 0
2, 6540, Note_on_c, 0, 69, 0
2, 6540, Note_on_c, 0, 70, 64
2, 6540, Note_on_c, 0, 74, 64
2, 6552, Note_on_c, 0, 74, 0
2, 6552, Note_on_c, 0, 70, 0
2, 6552, Note_on_c, 0, 72, 64
2, 6552, Note_on_c, 0, 69, 64
2, 6573, Note_on_c, 0, 72, 0
2, 6573, Note_on_c, 0, 69, 0
2, 6576, Note_on_c, 0, 70, 64
2, 6576, Note_on_c, 0, 67, 64
2, 6621, Note_on_c, 0, 70, 0
2, 6621, Note_on_c, 0, 67, 0
2, 6624, Note_on_c, 0, 79, 64
2, 6624, Note_on_c, 0, 67, 64
2, 6720, Note_on_c, 0, 67, 0
2, 6765, Note_on_c, 0, 79, 0
2, 6768, Note_on_c, 0, 77, 64
2, 6791, Note_on_c, 0, 77, 0
2, 6792, Note_on_c, 0, 75, 64
2, 6815, Note_on_c, 0, 75, 0
2, 6816, Note_on_c, 0, 74, 64
2, 6839, Note_on_c, 0, 74, 0
2, 6840, Note_on_c, 0, 72, 64
2, 6863, Note_on_c, 0, 72, 0
2, 6864, Note_on_c, 0, 70, 64
2, 6887, Note_on_c, 0, 70, 0
2, 6888, Note_on_c, 0, 69, 64
2, 6911, Note_on_c, 0, 69, 0
2, 6912, Note_on_c, 0, 67, 64
2, 6957, Note_on_c, 0, 67, 0
2, 6960, Note_on_c, 0, 66, 64
2, 7005, Note_on_c, 0, 66, 0
2, 7008, Note_on_c, 0, 79, 64
2, 7053, Note_on_c, 0, 79, 0
2, 7056, Note_on_c, 0, 81, 64
2, 7064, Note_on_c, 0, 81, 0
2, 7064, Note_on_c, 0, 79, 64
2, 7072, Note_on_c, 0, 79, 0
2, 7072, Note_on_c, 0, 78, 64
2, 7080, Note_on_c, 0, 78, 0
2, 7080, Note_on_c, 0, 81, 64
2, 7092, Note_on_c, 0, 81, 0
2, 7092, Note_on_c, 0, 82, 64
2, 7104, Note_on_c, 0, 82, 0
2, 7104, Note_on_c, 0, 74, 64
2, 7149, Note_on_c, 0, 74, 0
2, 7152, Note_on_c, 0, 75, 64
2, 7241, Note_on_c, 0, 75, 0
2, 7248, Note_on_c, 0, 74, 64
2, 7293, Note_on_c, 0, 74, 0
2, 7296, Note_on_c, 0, 79, 64
2, 7319, Note_on_c, 0, 79, 0
2, 7320, Note_on_c, 0, 75, 64
2, 7343, Note_on_c, 0, 75, 0
2, 7344, Note_on_c, 0, 72, 64
2, 7433, Note_on_c, 0, 72, 0
2, 7440, Note_on_c, 0, 70, 64
2, 7485, Note_on_c, 0, 70, 0
2, 7488, Note_on_c, 0, 69, 64
2, 7522, Note_on_c, 0, 69, 0
2, 7524, Note_on_c, 0, 67, 64
2, 7536, Note_on_c, 0, 67, 0
2, 7536, Note_on_c, 0, 75, 64
2, 7570, Note_on_c, 0, 75, 0
2, 7572, Note_on_c, 0, 72, 64
2, 7584, Note_on_c, 0, 72, 0
2, 7584, Note_on_c, 0, 70, 64
2, 7629, Note_on_c, 0, 70, 0
2, 7632, Note_on_c, 0, 70, 64
2, 7640, Note_on_c, 0, 70, 0
2, 7640, Note_on_c, 0, 69, 64
2, 7648, Note_on_c, 0, 69, 0
2, 7648, Note_on_c, 0, 70, 64
2, 7656, Note_on_c, 0, 70, 0
2, 7656, Note_on_c, 0, 69, 64
2, 7664, Note_on_c, 0, 69, 0
2, 7664, Note_on_c, 0, 67, 64
2, 7672, Note_on_c, 0, 67, 0
2, 7672, Note_on_c, 0, 69, 64
2, 7680, Note_on_c, 0, 69, 0
2, 7680, Note_on_c, 0, 70, 64
2, 7769, Note_on_c, 0, 70, 0
2, 7776, Note_on_c, 0, 79, 64
2, 7843, Note_on_c, 0, 79, 0
2, 7848, Note_on_c, 0, 81, 64
2, 7860, Note_on_c, 0, 81, 0
2, 7860, Note_on_c, 0, 82, 64
2, 7872, Note_on_c, 0, 82, 0
2, 7872, Note_on_c, 0, 74, 64
2, 7917, Note_on_c, 0, 74, 0
2, 7920, Note_on_c, 0, 74, 64
2, 7920, Note_on_c, 0, 70, 64
2, 8009, Note_on_c, 0, 74, 0
2, 8009, Note_on_c, 0, 70, 0
2, 8016, Note_on_c, 0, 72, 64
2, 8016, Note_on_c, 0, 69, 64
2, 8061, Note_on_c, 0, 72, 0
2, 8061, Note_on_c, 0, 69, 0
2, 8064, Note_on_c, 0, 69, 64
2, 8064, Note_on_c, 0, 72, 64
2, 8076, Note_on_c, 0, 72, 0
2, 8076, Note_on_c, 0, 69, 0
2, 8076, Note_on_c, 0, 70, 64
2, 8076, Note_on_c, 0, 74, 64
2, 8088, Note_on_c, 0, 74, 0
2, 8088, Note_on_c, 0, 70, 0
2, 8088, Note_on_c, 0, 72, 64
2, 8088, Note_on_c, 0, 69, 64
2, 8109, Note_on_c, 0, 72, 0
2, 8109, Note_on_c, 0, 69, 0
2, 8112, Note_on_c, 0, 70, 64
2, 8112, Note_on_c, 0, 67, 64
2, 8157, Note_on_c, 0, 70, 0
2, 8157, Note_on_c, 0, 67, 0
2, 8160, Note_on_c, 0, 79, 64
2, 8160, Note_on_c, 0, 67, 64
2, 8256, Note_on_c, 0, 67, 0
2, 8301, Note_on_c, 0, 79, 0
2, 8304, Note_on_c, 0, 77, 64
2, 8327, Note_on_c, 0, 77, 0
2, 8328, Note_on_c, 0, 75, 64
2, 8351, Note_on_c, 0, 75, 0
2, 8352, Note_on_c, 0, 74, 64
2, 8375, Note_on_c, 0, 74, 0
2, 8376, Note_on_c, 0, 72, 64
2, 8399, Note_on_c, 0, 72, 0
2, 8400, Note_on_c, 0, 70, 64
2, 8423, Note_on_c, 0, 70, 0
2, 8424, Note_on_c, 0, 69, 64
2, 8447, Note_on_c, 0, 69, 0
2, 8448, Note_on_c, 0, 67, 64
2, 8493, Note_on_c, 0, 67, 0
2, 8496, Note_on_c, 0, 66, 64
2, 8541, Note_on_c, 0, 66, 0
2, 8544, Note_on_c, 0, 79, 64
2, 8589, Note_on_c, 0, 79, 0
2, 8592, Note_on_c, 0, 81, 64
2, 8600, Note_on_c, 0, 81, 0
2, 8600, Note_on_c, 0, 79, 64
2, 8608, Note_on_c, 0, 79, 0
2, 8608, Note_on_c, 0, 78, 64
2, 8616, Note_on_c, 0, 78, 0
2, 8616, Note_on_c, 0, 81, 64
2, 8628, Note_on_c, 0, 81, 0
2, 8628, Note_on_c, 0, 82, 64
2, 8640, Note_on_c, 0, 82, 0
2, 8640, Note_on_c, 0, 74, 64
2, 8685, Note_on_c, 0, 74, 0
2, 8688, Note_on_c, 0, 75, 64
2, 8777, Note_on_c, 0, 75, 0
2, 8784, Note_on_c, 0, 74, 64
2, 8829, Note_on_c, 0, 74, 0
2, 8832, Note_on_c, 0, 79, 64
2, 8855, Note_on_c, 0, 79, 0
2, 8856, Note_on_c, 0, 75, 64
2, 8879, Note_on_c, 0, 75, 0
2, 8880, Note_on_c, 0, 72, 64
2, 8969, Note_on_c, 0, 72, 0
2, 8976, Note_on_c, 0, 70, 64
2, 9021, Note_on_c, 0, 70, 0
2, 9024, Note_on_c, 0, 69, 64
2, 9058, Note_on_c, 0, 69, 0
2, 9060, Note_on_c, 0, 67, 64
2, 9072, Note_on_c, 0, 67, 0
2, 9072, Note_on_c, 0, 75, 64
2, 9106, Note_on_c, 0, 75, 0
2, 9108, Note_on_c, 0, 72, 64
2, 9120, Note_on_c, 0, 72, 0
2, 9120, Note_on_c, 0, 70, 64
2, 9165, Note_on_c, 0, 70, 0
2, 9168, Note_on_c, 0, 70, 64
2, 9176, Note_on_c, 0, 70, 0
2, 9176, Note_on_c, 0, 69, 64
2, 9184, Note_on_c, 0, 69, 0
2, 9184, Note_on_c, 0, 70, 64
2, 9192, Note_on_c, 0, 70, 0
2, 9192, Note_on_c, 0, 69, 64
2, 9200, Note_on_c, 0, 69, 0
2, 9200, Note_on_c, 0, 67, 64
2, 9208, Note_on_c, 0, 67, 0
2, 9208, Note_on_c, 0, 69, 64
2, 9216, Note_on_c, 0, 69, 0
2, 9216, Note_on_c, 0, 70, 64
2, 9305, Note_on_c, 0, 70, 0
2, 9312, Note_on_c, 0, 74, 64
2, 9379, Note_on_c, 0, 74, 0
2, 9384, Note_on_c, 0, 75, 64
2, 9396, Note_on_c, 0, 75, 0
2, 9396, Note_on_c, 0, 77, 64
2, 9408, Note_on_c, 0, 77, 0
2, 9408, Note_on_c, 0, 72, 64
2, 9453, Note_on_c, 0, 72, 0
2, 9456, Note_on_c, 0, 71, 64
2, 9504, Note_on_c, 0, 80, 64
2, 9549, Note_on_c, 0, 80, 0
2, 9549, Note_on_c, 0, 71, 0
2, 9552, Note_on_c, 0, 79, 64
2, 9552, Note_on_c, 0, 72, 64
2, 9597, Note_on_c, 0, 79, 0
2, 9597, Note_on_c, 0, 72, 0
2, 9600, Note_on_c, 0, 77, 64
2, 9600, Note_on_c, 0, 74, 64
2, 9645, Note_on_c, 0, 77, 0
2, 9645, Note_on_c, 0, 74, 0
2, 9648, Note_on_c, 0, 75, 64
2, 9648, Note_on_c, 0, 72, 64
2, 9693, Note_on_c, 0, 75, 0
2, 9693, Note_on_c, 0, 72, 0
2, 9696, Note_on_c, 0, 75, 64
2, 9763, Note_on_c, 0, 75, 0
2, 9768, Note_on_c, 0, 77, 64
2, 9780, Note_on_c, 0, 77, 0
2, 9780, Note_on_c, 0, 79, 64
2, 9792, Note_on_c, 0, 79, 0
2, 9792, Note_on_c, 0, 74, 64
2, 9837, Note_on_c, 0, 74, 0
2, 9840, Note_on_c, 0, 73, 64
2, 9885, Note_on_c, 0, 73, 0
2, 9888, Note_on_c, 0, 82, 64
2, 9888, Note_on_c, 0, 73, 64
2, 9933, Note_on_c, 0, 82, 0
2, 9933, Note_on_c, 0, 73, 0
2, 9936, Note_on_c, 0, 81, 64
2, 9936, Note_on_c, 0, 74, 64
2, 9981, Note_on_c, 0, 81, 0
2, 9981, Note_on_c, 0, 74, 0
2, 9984, Note_on_c, 0, 79, 64
2, 9984, Note_on_c, 0, 76, 64
2, 10029, Note_on_c, 0, 79, 0
2, 10029, Note_on_c, 0, 76, 0
2, 10032, Note_on_c, 0, 77, 64
2, 10032, Note_on_c, 0, 74, 64
2, 10077, Note_on_c, 0, 77, 0
2, 10077, Note_on_c, 0, 74, 0
2, 10080, Note_on_c, 0, 74, 64
2, 10147, Note_on_c, 0, 74, 0
2, 10152, Note_on_c, 0, 76, 64
2, 10164, Note_on_c, 0, 76, 0
2, 10164, Note_on_c, 0, 77, 64
2, 10176, Note_on_c, 0, 77, 0
2, 10176, Note_on_c, 0, 79, 64
2, 10243, Note_on_c, 0, 79, 0
2, 10248, Note_on_c, 0, 81, 64
2, 10260, Note_on_c, 0, 81, 0
2, 10260, Note_on_c, 0, 82, 64
2, 10272, Note_on_c, 0, 82, 0
2, 10272, Note_on_c, 0, 84, 64
2, 10306, Note_on_c, 0, 84, 0
2, 10308, Note_on_c, 0, 81, 64
2, 10320, Note_on_c, 0, 81, 0
2, 10320, Note_on_c, 0, 82, 64
2, 10354, Note_on_c, 0, 82, 0
2, 10356, Note_on_c, 0, 79, 64
2, 10368, Note_on_c, 0, 79, 0
2, 10368, Note_on_c, 0, 86, 64
2, 10413, Note_on_c, 0, 86, 0
2, 10464, Note_on_c, 0, 72, 64
2, 10498, Note_on_c, 0, 72, 0
2, 10500, Note_on_c, 0, 69, 64
2, 10512, Note_on_c, 0, 69, 0
2, 10512, Note_on_c, 0, 70, 64
2, 10546, Note_on_c, 0, 70, 0
2, 10548, Note_on_c, 0, 67, 64
2, 10560, Note_on_c, 0, 67, 0
2, 10560, Note_on_c, 0, 74, 64
2, 10605, Note_on_c, 0, 74, 0
2, 10632, Note_on_c, 0, 62, 64
2, 10655, Note_on_c, 0, 62, 0
2, 10656, Note_on_c, 0, 63, 64
2, 10679, Note_on_c, 0, 63, 0
2, 10680, Note_on_c, 0, 64, 64
2, 10703, Note_on_c, 0, 64, 0
2, 10704, Note_on_c, 0, 65, 64
2, 10727, Note_on_c, 0, 65, 0
2, 10728, Note_on_c, 0, 66, 64
2, 10751, Note_on_c, 0, 66, 0
2, 10752, Note_on_c, 0, 67, 64
2, 10775, Note_on_c, 0, 67, 0
2, 10776, Note_on_c, 0, 68, 64
2, 10799, Note_on_c, 0, 68, 0
2, 10800, Note_on_c, 0, 69, 64
2, 10823, Note_on_c, 0, 69, 0
2, 10824, Note_on_c, 0, 70, 64
2, 10847, Note_on_c, 0, 70, 0
2, 10848, Note_on_c, 0, 71, 64
2, 10915, Note_on_c, 0, 71, 0
2, 10920, Note_on_c, 0, 72, 64
2, 10932, Note_on_c, 0, 72, 0
2, 10932, Note_on_c, 0, 74, 64
2, 10944, Note_on_c, 0, 74, 0
2, 10944, Note_on_c, 0, 67, 64
2, 10989, Note_on_c, 0, 67, 0
2, 10992, Note_on_c, 0, 67, 64
2, 11037, Note_on_c, 0, 67, 0
2, 11040, Note_on_c, 0, 69, 64
2, 11046, Note_on_c, 0, 69, 0
2, 11046, Note_on_c, 0, 71, 64
2, 11052, Note_on_c, 0, 71, 0
2, 11052, Note_on_c, 0, 69, 64
2, 11074, Note_on_c, 0, 69, 0
2, 11076, Note_on_c, 0, 67, 64
2, 11088, Note_on_c, 0, 67, 0
2, 11088, Note_on_c, 0, 69, 64
2, 11122, Note_on_c, 0, 69, 0
2, 11124, Note_on_c, 0, 71, 64
2, 11136, Note_on_c, 0, 71, 0
2, 11136, Note_on_c, 0, 67, 64
2, 11181, Note_on_c, 0, 67, 0
2, 11232, Note_on_c, 0, 76, 64
2, 11255, Note_on_c, 0, 76, 0
2, 11256, Note_on_c, 0, 78, 64
2, 11268, Note_on_c, 0, 78, 0
2, 11268, Note_on_c, 0, 79, 64
2, 11280, Note_on_c, 0, 79, 0
2, 11280, Note_on_c, 0, 74, 64
2, 11300, Note_on_c, 0, 74, 0
2, 11328, Note_on_c, 0, 72, 64
2, 11351, Note_on_c, 0, 72, 0
2, 11352, Note_on_c, 0, 74, 64
2, 11364, Note_on_c, 0, 74, 0
2, 11364, Note_on_c, 0, 76, 64
2, 11376, Note_on_c, 0, 76, 0
2, 11376, Note_on_c, 0, 71, 64
2, 11396, Note_on_c, 0, 71, 0
2, 11424, Note_on_c, 0, 69, 64
2, 11469, Note_on_c, 0, 69, 0
2, 11472, Note_on_c, 0, 69, 64
2, 11480, Note_on_c, 0, 69, 0
2, 11480, Note_on_c, 0, 67, 64
2, 11488, Note_on_c, 0, 67, 0
2, 11488, Note_on_c, 0, 69, 64
2, 11496, Note_on_c, 0, 69, 0
2, 11496, Note_on_c, 0, 67, 64
2, 11504, Note_on_c, 0, 67, 0
2, 11504, Note_on_c, 0, 66, 64
2, 11512, Note_on_c, 0, 66, 0
2, 11512, Note_on_c, 0, 67, 64
2, 11520, Note_on_c, 0, 67, 0
2, 11520, Note_on_c, 0, 74, 64
2, 11520, Note_on_c, 0, 66, 64
2, 11565, Note_on_c, 0, 74, 0
2, 11565, Note_on_c, 0, 66, 0
2, 11616, Note_on_c, 0, 71, 64
2, 11631, Note_on_c, 0, 71, 0
2, 11632, Note_on_c, 0, 74, 64
2, 11647, Note_on_c, 0, 74, 0
2, 11648, Note_on_c, 0, 72, 64
2, 11663, Note_on_c, 0, 72, 0
2, 11664, Note_on_c, 0, 71, 64
2, 11679, Note_on_c, 0, 71, 0
2, 11680, Note_on_c, 0, 72, 64
2, 11695, Note_on_c, 0, 72, 0
2, 11696, Note_on_c, 0, 74, 64
2, 11711, Note_on_c, 0, 74, 0
2, 11712, Note_on_c, 0, 67, 64
2, 11757, Note_on_c, 0, 67, 0
2, 11760, Note_on_c, 0, 67, 64
2, 11805, Note_on_c, 0, 67, 0
2, 11808, Note_on_c, 0, 69, 64
2, 11823, Note_on_c, 0, 69, 0
2, 11824, Note_on_c, 0, 72, 64
2, 11839, Note_on_c, 0, 72, 0
2, 11840, Note_on_c, 0, 71, 64
2, 11855, Note_on_c, 0, 71, 0
2, 11856, Note_on_c, 0, 69, 64
2, 11871, Note_on_c, 0, 69, 0
2, 11872, Note_on_c, 0, 71, 64
2, 11887, Note_on_c, 0, 71, 0
2, 11888, Note_on_c, 0, 72, 64
2, 11903, Note_on_c, 0, 72, 0
2, 11904, Note_on_c, 0, 71, 64
2, 11919, Note_on_c, 0, 71, 0
2, 11920, Note_on_c, 0, 69, 64
2, 11935, Note_on_c, 0, 69, 0
2, 11936, Note_on_c, 0, 67, 64
2, 11951, Note_on_c, 0, 67, 0
2, 11952, Note_on_c, 0, 66, 64
2, 11967, Note_on_c, 0, 66, 0
2, 11968, Note_on_c, 0, 64, 64
2, 11983, Note_on_c, 0, 64, 0
2, 11984, Note_on_c, 0, 62, 64
2, 11999, Note_on_c, 0, 62, 0
2, 12016, Note_on_c, 0, 76, 64
2, 12031, Note_on_c, 0, 76, 0
2, 12032, Note_on_c, 0, 79, 64
2, 12047, Note_on_c, 0, 79, 0
2, 12064, Note_on_c, 0, 74, 64
2, 12079, Note_on_c, 0, 74, 0
2, 12080, Note_on_c, 0, 79, 64
2, 12095, Note_on_c, 0, 79, 0
2, 12112, Note_on_c, 0, 72, 64
2, 12127, Note_on_c, 0, 72, 0
2, 12128, Note_on_c, 0, 79, 64
2, 12143, Note_on_c, 0, 79, 0
2, 12160, Note_on_c, 0, 71, 64
2, 12175, Note_on_c, 0, 71, 0
2, 12176, Note_on_c, 0, 79, 64
2, 12191, Note_on_c, 0, 79, 0
2, 12208, Note_on_c, 0, 69, 64
2, 12223, Note_on_c, 0, 69, 0
2, 12224, Note_on_c, 0, 76, 64
2, 12239, Note_on_c, 0, 76, 0
2, 12256, Note_on_c, 0, 67, 64
2, 12271, Note_on_c, 0, 67, 0
2, 12272, Note_on_c, 0, 76, 64
2, 12287, Note_on_c, 0, 76, 0
2, 12288, Note_on_c, 0, 67, 64
2, 12333, Note_on_c, 0, 67, 0
2, 12336, Note_on_c, 0, 66, 64
2, 12381, Note_on_c, 0, 66, 0
2, 12384, Note_on_c, 0, 74, 64
2, 12399, Note_on_c, 0, 74, 0
2, 12400, Note_on_c, 0, 78, 64
2, 12415, Note_on_c, 0, 78, 0
2, 12416, Note_on_c, 0, 76, 64
2, 12431, Note_on_c, 0, 76, 0
2, 12432, Note_on_c, 0, 74, 64
2, 12447, Note_on_c, 0, 74, 0
2, 12448, Note_on_c, 0, 78, 64
2, 12463, Note_on_c, 0, 78, 0
2, 12464, Note_on_c, 0, 86, 64
2, 12479, Note_on_c, 0, 86, 0
2, 12480, Note_on_c, 0, 76, 64
2, 12495, Note_on_c, 0, 76, 0
2, 12496, Note_on_c, 0, 79, 64
2, 12511, Note_on_c, 0, 79, 0
2, 12512, Note_on_c, 0, 78, 64
2, 12527, Note_on_c, 0, 78, 0
2, 12528, Note_on_c, 0, 76, 64
2, 12543, Note_on_c, 0, 76, 0
2, 12544, Note_on_c, 0, 79, 64
2, 12559, Note_on_c, 0, 79, 0
2, 12560, Note_on_c, 0, 88, 64
2, 12575, Note_on_c, 0, 88, 0
2, 12576, Note_on_c, 0, 85, 64
2, 12591, Note_on_c, 0, 85, 0
2, 12592, Note_on_c, 0, 83, 64
2, 12607, Note_on_c, 0, 83, 0
2, 12608, Note_on_c, 0, 81, 64
2, 12623, Note_on_c, 0, 81, 0
2, 12624, Note_on_c, 0, 79, 64
2, 12639, Note_on_c, 0, 79, 0
2, 12640, Note_on_c, 0, 78, 64
2, 12655, Note_on_c, 0, 78, 0
2, 12656, Note_on_c, 0, 76, 64
2, 12671, Note_on_c, 0, 76, 0
2, 12672, Note_on_c, 0, 74, 64
2, 12687, Note_on_c, 0, 74, 0
2, 12688, Note_on_c, 0, 78, 64
2, 12703, Note_on_c, 0, 78, 0
2, 12704, Note_on_c, 0, 76, 64
2, 12719, Note_on_c, 0, 76, 0
2, 12720, Note_on_c, 0, 74, 64
2, 12735, Note_on_c, 0, 74, 0
2, 12736, Note_on_c, 0, 78, 64
2, 12751, Note_on_c, 0, 78, 0
2, 12752, Note_on_c, 0, 81, 64
2, 12767, Note_on_c, 0, 81, 0
2, 12768, Note_on_c, 0, 86, 64
2, 12783, Note_on_c, 0, 86, 0
2, 12784, Note_on_c, 0, 85, 64
2, 12799, Note_on_c, 0, 85, 0
2, 12800, Note_on_c, 0, 83, 64
2, 12815, Note_on_c, 0, 83, 0
2, 12816, Note_on_c, 0, 81, 64
2, 12831, Note_on_c, 0, 81, 0
2, 12832, Note_on_c, 0, 79, 64
2, 12847, Note_on_c, 0, 79, 0
2, 12848, Note_on_c, 0, 78, 64
2, 12863, Note_on_c, 0, 78, 0
2, 12864, Note_on_c, 0, 83, 64
2, 12879, Note_on_c, 0, 83, 0
2, 12880, Note_on_c, 0, 86, 64
2, 12895, Note_on_c, 0, 86, 0
2, 12896, Note_on_c, 0, 85, 64
2, 12911, Note_on_c, 0, 85, 0
2, 12912, Note_on_c, 0, 83, 64
2, 12927, Note_on_c, 0, 83, 0
2, 12928, Note_on_c, 0, 81, 64
2, 12943, Note_on_c, 0, 81, 0
2, 12944, Note_on_c, 0, 79, 64
2, 12959, Note_on_c, 0, 79, 0
2, 12960, Note_on_c, 0, 78, 64
2, 13005, Note_on_c, 0, 78, 0
2, 13008, Note_on_c, 0, 78, 64
2, 13016, Note_on_c, 0, 78, 0
2, 13016, Note_on_c, 0, 76, 64
2, 13024, Note_on_c, 0, 76, 0
2, 13024, Note_on_c, 0, 78, 64
2, 13032, Note_on_c, 0, 78, 0
2, 13032, Note_on_c, 0, 76, 64
2, 13040, Note_on_c, 0, 76, 0
2, 13040, Note_on_c, 0, 74, 64
2, 13048, Note_on_c, 0, 74, 0
2, 13048, Note_on_c, 0, 76, 64
2, 13056, Note_on_c, 0, 76, 0
2, 13056, Note_on_c, 0, 74, 64
2, 13145, Note_on_c, 0, 74, 0
2, 13152, Note_on_c, 0, 71, 64
2, 13167, Note_on_c, 0, 71, 0
2, 13168, Note_on_c, 0, 74, 64
2, 13183, Note_on_c, 0, 74, 0
2, 13184, Note_on_c, 0, 72, 64
2, 13199, Note_on_c, 0, 72, 0
2, 13200, Note_on_c, 0, 71, 64
2, 13215, Note_on_c, 0, 71, 0
2, 13216, Note_on_c, 0, 72, 64
2, 13231, Note_on_c, 0, 72, 0
2, 13232, Note_on_c, 0, 74, 64
2, 13247, Note_on_c, 0, 74, 0
2, 13248, Note_on_c, 0, 67, 64
2, 13293, Note_on_c, 0, 67, 0
2, 13296, Note_on_c, 0, 67, 64
2, 13341, Note_on_c, 0, 67, 0
2, 13344, Note_on_c, 0, 69, 64
2, 13359, Note_on_c, 0, 69, 0
2, 13360, Note_on_c, 0, 72, 64
2, 13375, Note_on_c, 0, 72, 0
2, 13376, Note_on_c, 0, 71, 64
2, 13391, Note_on_c, 0, 71, 0
2, 13392, Note_on_c, 0, 69, 64
2, 13407, Note_on_c, 0, 69, 0
2, 13408, Note_on_c, 0, 71, 64
2, 13423, Note_on_c, 0, 71, 0
2, 13424, Note_on_c, 0, 72, 64
2, 13439, Note_on_c, 0, 72, 0
2, 13440, Note_on_c, 0, 71, 64
2, 13455, Note_on_c, 0, 71, 0
2, 13456, Note_on_c, 0, 69, 64
2, 13471, Note_on_c, 0, 69, 0
2, 13472, Note_on_c, 0, 67, 64
2, 13487, Note_on_c, 0, 67, 0
2, 13488, Note_on_c, 0, 66, 64
2, 13503, Note_on_c, 0, 66, 0
2, 13504, Note_on_c, 0, 64, 64
2, 13519, Note_on_c, 0, 64, 0
2, 13520, Note_on_c, 0, 62, 64
2, 13535, Note_on_c, 0, 62, 0
2, 13552, Note_on_c, 0, 76, 64
2, 13567, Note_on_c, 0, 76, 0
2, 13568, Note_on_c, 0, 79, 64
2, 13583, Note_on_c, 0, 79, 0
2, 13600, Note_on_c, 0, 74, 64
2, 13615, Note_on_c, 0, 74, 0
2, 13616, Note_on_c, 0, 79, 64
2, 13631, Note_on_c, 0, 79, 0
2, 13648, Note_on_c, 0, 72, 64
2, 13663, Note_on_c, 0, 72, 0
2, 13664, Note_on_c, 0, 79, 64
2, 13679, Note_on_c, 0, 79, 0
2, 13696, Note_on_c, 0, 71, 64
2, 13711, Note_on_c, 0, 71, 0
2, 13712, Note_on_c, 0, 79, 64
2, 13727, Note_on_c, 0, 79, 0
2, 13744, Note_on_c, 0, 69, 64
2, 13759, Note_on_c, 0, 69, 0
2, 13760, Note_on_c, 0, 76, 64
2, 13775, Note_on_c, 0, 76, 0
2, 13792, Note_on_c, 0, 67, 64
2, 13807, Note_on_c, 0, 67, 0
2, 13808, Note_on_c, 0, 76, 64
2, 13823, Note_on_c, 0, 76, 0
2, 13824, Note_on_c, 0, 67, 64
2, 13869, Note_on_c, 0, 67, 0
2, 13872, Note_on_c, 0, 66, 64
2, 13917, Note_on_c, 0, 66, 0
2, 13920, Note_on_c, 0, 74, 64
2, 13935, Note_on_c, 0, 74, 0
2, 13936, Note_on_c, 0, 78, 64
2, 13951, Note_on_c, 0, 78, 0
2, 13952, Note_on_c, 0, 76, 64
2, 13967, Note_on_c, 0, 76, 0
2, 13968, Note_on_c, 0, 74, 64
2, 13983, Note_on_c, 0, 74, 0
2, 13984, Note_on_c, 0, 78, 64
2, 13999, Note_on_c, 0, 78, 0
2, 14000, Note_on_c, 0, 86, 64
2, 14015, Note_on_c, 0, 86, 0
2, 14016, Note_on_c, 0, 76, 64
2, 14031, Note_on_c, 0, 76, 0
2, 14032, Note_on_c, 0, 79, 64
2, 14047, Note_on_c, 0, 79, 0
2, 14048, Note_on_c, 0, 78, 64
2, 14063, Note_on_c, 0, 78, 0
2, 14064, Note_on_c, 0, 76, 64
2, 14079, Note_on_c, 0, 76, 0
2, 14080, Note_on_c, 0, 79, 64
2, 14095, Note_on_c, 0, 79, 0
2, 14096, Note_on_c, 0, 88, 64
2, 14111, Note_on_c, 0, 88, 0
2, 14112, Note_on_c, 0, 85, 64
2, 14127, Note_on_c, 0, 85, 0
2, 14128, Note_on_c, 0, 83, 64
2, 14143, Note_on_c, 0, 83, 0
2, 14144, Note_on_c, 0, 81, 64
2, 14159, Note_on_c, 0, 81, 0
2, 14160, Note_on_c, 0, 79, 64
2, 14175, Note_on_c, 0, 79, 0
2, 14176, Note_on_c, 0, 78, 64
2, 14191, Note_on_c, 0, 78, 0
2, 14192, Note_on_c, 0, 76, 64
2, 14207, Note_on_c, 0, 76, 0
2, 14208, Note_on_c, 0, 74, 64
2, 14223, Note_on_c, 0, 74, 0
2, 14224, Note_on_c, 0, 78, 64
2, 14239, Note_on_c, 0, 78, 0
2, 14240, Note_on_c, 0, 76, 64
2, 14255, Note_on_c, 0, 76, 0
2, 14256, Note_on_c, 0, 74, 64
2, 14271, Note_on_c, 0, 74, 0
2, 14272, Note_on_c, 0, 78, 64
2, 14287, Note_on_c, 0, 78, 0
2, 14288, Note_on_c, 0, 81, 64
2, 14303, Note_on_c, 0, 81, 0
2, 14304, Note_on_c, 0, 86, 64
2, 14319, Note_on_c, 0, 86, 0
2, 14320, Note_on_c, 0, 85, 64
2, 14335, Note_on_c, 0, 85, 0
2, 14336, Note_on_c, 0, 83, 64
2, 14351, Note_on_c, 0, 83, 0
2, 14352, Note_on_c, 0, 81, 64
2, 14367, Note_on_c, 0, 81, 0
2, 14368, Note_on_c, 0, 79, 64
2, 14383, Note_on_c, 0, 79, 0
2, 14384, Note_on_c, 0, 78, 64
2, 14399, Note_on_c, 0, 78, 0
2, 14400, Note_on_c, 0, 83, 64
2, 14415, Note_on_c, 0, 83, 0
2, 14416, Note_on_c, 0, 86, 64
2, 14431, Note_on_c, 0, 86, 0
2, 14432, Note_on_c, 0, 85, 64
2, 14447, Note_on_c, 0, 85, 0
2, 14448, Note_on_c, 0, 83, 64
2, 14463, Note_on_c, 0, 83, 0
2, 14464, Note_on_c, 0, 81, 64
2, 14479, Note_on_c, 0, 81, 0
2, 14480, Note_on_c, 0, 79, 64
2, 14495, Note_on_c, 0, 79, 0
2, 14496, Note_on_c, 0, 78, 64
2, 14541, Note_on_c, 0, 78, 0
2, 14544, Note_on_c, 0, 78, 64
2, 14552, Note_on_c, 0, 78, 0
2, 14552, Note_on_c, 0, 76, 64
2, 14560, Note_on_c, 0, 76, 0
2, 14560, Note_on_c, 0, 78, 64
2, 14568, Note_on_c, 0, 78, 0
2, 14568, Note_on_c, 0, 76, 64
2, 14576, Note_on_c, 0, 76, 0
2, 14576, Note_on_c, 0, 74, 64
2, 14584, Note_on_c, 0, 74, 0
2, 14584, Note_on_c, 0, 76, 64
2, 14592, Note_on_c, 0, 76, 0
2, 14592, Note_on_c, 0, 74, 64
2, 14681, Note_on_c, 0, 74, 0
2, 14688, Note_on_c, 0, 74, 64
2, 14703, Note_on_c, 0, 74, 0
2, 14704, Note_on_c, 0, 77, 64
2, 14719, Note_on_c, 0, 77, 0
2, 14720, Note_on_c, 0, 76, 64
2, 14735, Note_on_c, 0, 76, 0
2, 14736, Note_on_c, 0, 74, 64
2, 14751, Note_on_c, 0, 74, 0
2, 14752, Note_on_c, 0, 76, 64
2, 14767, Note_on_c, 0, 76, 0
2, 14768, Note_on_c, 0, 77, 64
2, 14783, Note_on_c, 0, 77, 0
2, 14832, Note_on_c, 0, 68, 64
2, 14847, Note_on_c, 0, 68, 0
2, 14848, Note_on_c, 0, 71, 64
2, 14863, Note_on_c, 0, 71, 0
2, 14864, Note_on_c, 0, 77, 64
2, 14879, Note_on_c, 0, 77, 0
2, 14896, Note_on_c, 0, 69, 64
2, 14911, Note_on_c, 0, 69, 0
2, 14912, Note_on_c, 0, 76, 64
2, 14927, Note_on_c, 0, 76, 0
2, 14944, Note_on_c, 0, 68, 64
2, 14959, Note_on_c, 0, 68, 0
2, 14960, Note_on_c, 0, 74, 64
2, 14975, Note_on_c, 0, 74, 0
2, 15024, Note_on_c, 0, 64, 64
2, 15039, Note_on_c, 0, 64, 0
2, 15040, Note_on_c, 0, 69, 64
2, 15055, Note_on_c, 0, 69, 0
2, 15056, Note_on_c, 0, 72, 64
2, 15071, Note_on_c, 0, 72, 0
2, 15088, Note_on_c, 0, 72, 64
2, 15103, Note_on_c, 0, 72, 0
2, 15104, Note_on_c, 0, 76, 64
2, 15119, Note_on_c, 0, 76, 0
2, 15136, Note_on_c, 0, 69, 64
2, 15151, Note_on_c, 0, 69, 0
2, 15152, Note_on_c, 0, 72, 64
2, 15167, Note_on_c, 0, 72, 0
2, 15184, Note_on_c, 0, 71, 64
2, 15199, Note_on_c, 0, 71, 0
2, 15200, Note_on_c, 0, 74, 64
2, 15215, Note_on_c, 0, 74, 0
2, 15232, Note_on_c, 0, 67, 64
2, 15247, Note_on_c, 0, 67, 0
2, 15248, Note_on_c, 0, 71, 64
2, 15263, Note_on_c, 0, 71, 0
2, 15280, Note_on_c, 0, 69, 64
2, 15295, Note_on_c, 0, 69, 0
2, 15296, Note_on_c, 0, 72, 64
2, 15311, Note_on_c, 0, 72, 0
2, 15328, Note_on_c, 0, 64, 64
2, 15343, Note_on_c, 0, 64, 0
2, 15344, Note_on_c, 0, 69, 64
2, 15359, Note_on_c, 0, 69, 0
2, 15360, Note_on_c, 0, 67, 64
2, 15405, Note_on_c, 0, 67, 0
2, 15408, Note_on_c, 0, 66, 64
2, 15453, Note_on_c, 0, 66, 0
2, 15552, Note_on_c, 0, 78, 64
2, 15567, Note_on_c, 0, 78, 0
2, 15568, Note_on_c, 0, 79, 64
2, 15583, Note_on_c, 0, 79, 0
2, 15584, Note_on_c, 0, 81, 64
2, 15599, Note_on_c, 0, 81, 0
2, 15600, Note_on_c, 0, 78, 64
2, 15615, Note_on_c, 0, 78, 0
2, 15616, Note_on_c, 0, 79, 64
2, 15631, Note_on_c, 0, 79, 0
2, 15632, Note_on_c, 0, 81, 64
2, 15647, Note_on_c, 0, 81, 0
2, 15648, Note_on_c, 0, 72, 64
2, 15693, Note_on_c, 0, 72, 0
2, 15696, Note_on_c, 0, 72, 64
2, 15741, Note_on_c, 0, 72, 0
2, 15744, Note_on_c, 0, 84, 64
2, 15759, Note_on_c, 0, 84, 0
2, 15760, Note_on_c, 0, 86, 64
2, 15775, Note_on_c, 0, 86, 0
2, 15776, Note_on_c, 0, 88, 64
2, 15791, Note_on_c, 0, 88, 0
2, 15792, Note_on_c, 0, 81, 64
2, 15807, Note_on_c, 0, 81, 0
2, 15808, Note_on_c, 0, 83, 64
2, 15823, Note_on_c, 0, 83, 0
2, 15824, Note_on_c, 0, 84, 64
2, 15839, Note_on_c, 0, 84, 0
2, 15840, Note_on_c, 0, 78, 64
2, 15855, Note_on_c, 0, 78, 0
2, 15856, Note_on_c, 0, 79, 64
2, 15871, Note_on_c, 0, 79, 0
2, 15872, Note_on_c, 0, 81, 64
2, 15887, Note_on_c, 0, 81, 0
2, 15888, Note_on_c, 0, 74, 64
2, 15903, Note_on_c, 0, 74, 0
2, 15904, Note_on_c, 0, 76, 64
2, 15919, Note_on_c, 0, 76, 0
2, 15920, Note_on_c, 0, 78, 64
2, 15935, Note_on_c, 0, 78, 0
2, 15936, Note_on_c, 0, 79, 64
2, 15970, Note_on_c, 0, 79, 0
2, 15972, Note_on_c, 0, 74, 64
2, 15984, Note_on_c, 0, 74, 0
2, 15984, Note_on_c, 0, 76, 64
2, 16018, Note_on_c, 0, 76, 0
2, 16020, Note_on_c, 0, 72, 64
2, 16032, Note_on_c, 0, 72, 0
2, 16032, Note_on_c, 0, 71, 64
2, 16077, Note_on_c, 0, 71, 0
2, 16080, Note_on_c, 0, 71, 64
2, 16088, Note_on_c, 0, 71, 0
2, 16088, Note_on_c, 0, 69, 64
2, 16096, Note_on_c, 0, 69, 0
2, 16096, Note_on_c, 0, 71, 64
2, 16104, Note_on_c, 0, 71, 0
2, 16104, Note_on_c, 0, 69, 64
2, 16112, Note_on_c, 0, 69, 0
2, 16112, Note_on_c, 0, 67, 64
2, 16120, Note_on_c, 0, 67, 0
2, 16120, Note_on_c, 0, 69, 64
2, 16128, Note_on_c, 0, 69, 0
2, 16128, Note_on_c, 0, 67, 64
2, 16217, Note_on_c, 0, 67, 0
2, 16224, Note_on_c, 0, 74, 64
2, 16239, Note_on_c, 0, 74, 0
2, 16240, Note_on_c, 0, 77, 64
2, 16255, Note_on_c, 0, 77, 0
2, 16256, Note_on_c, 0, 76, 64
2, 16271, Note_on_c, 0, 76, 0
2, 16272, Note_on_c, 0, 74, 64
2, 16287, Note_on_c, 0, 74, 0
2, 16288, Note_on_c, 0, 76, 64
2, 16303, Note_on_c, 0, 76, 0
2, 16304, Note_on_c, 0, 77, 64
2, 16319, Note_on_c, 0, 77, 0
2, 16368, Note_on_c, 0, 68, 64
2, 16383, Note_on_c, 0, 68, 0
2, 16384, Note_on_c, 0, 71, 64
2, 16399, Note_on_c, 0, 71, 0
2, 16400, Note_on_c, 0, 77, 64
2, 16415, Note_on_c, 0, 77, 0
2, 16432, Note_on_c, 0, 69, 64
2, 16447, Note_on_c, 0, 69, 0
2, 16448, Note_on_c, 0, 76, 64
2, 16463, Note_on_c, 0, 76, 0
2, 16480, Note_on_c, 0, 68, 64
2, 16495, Note_on_c, 0, 68, 0
2, 16496, Note_on_c, 0, 74, 64
2, 16511, Note_on_c, 0, 74, 0
2, 16560, Note_on_c, 0, 64, 64
2, 16575, Note_on_c, 0, 64, 0
2, 16576, Note_on_c, 0, 69, 64
2, 16591, Note_on_c, 0, 69, 0
2, 16592, Note_on_c, 0, 72, 64
2, 16607, Note_on_c, 0, 72, 0
2, 16624, Note_on_c, 0, 72, 64
2, 16639, Note_on_c, 0, 72, 0
2, 16640, Note_on_c, 0, 76, 64
2, 16655, Note_on_c, 0, 76, 0
2, 16672, Note_on_c, 0, 69, 64
2, 16687, Note_on_c, 0, 69, 0
2, 16688, Note_on_c, 0, 72, 64
2, 16703, Note_on_c, 0, 72, 0
2, 16720, Note_on_c, 0, 71, 64
2, 16735, Note_on_c, 0, 71, 0
2, 16736, Note_on_c, 0, 74, 64
2, 16751, Note_on_c, 0, 74, 0
2, 16768, Note_on_c, 0, 67, 64
2, 16783, Note_on_c, 0, 67, 0
2, 16784, Note_on_c, 0, 71, 64
2, 16799, Note_on_c, 0, 71, 0
2, 16816, Note_on_c, 0, 69, 64
2, 16831, Note_on_c, 0, 69, 0
2, 16832, Note_on_c, 0, 72, 64
2, 16847, Note_on_c, 0, 72, 0
2, 16864, Note_on_c, 0, 64, 64
2, 16879, Note_on_c, 0, 64, 0
2, 16880, Note_on_c, 0, 69, 64
2, 16895, Note_on_c, 0, 69, 0
2, 16896, Note_on_c, 0, 67, 64
2, 16941, Note_on_c, 0, 67, 0
2, 16944, Note_on_c, 0, 66, 64
2, 16989, Note_on_c, 0, 66, 0
2, 17088, Note_on_c, 0, 78, 64
2, 17103, Note_on_c, 0, 78, 0
2, 17104, Note_on_c, 0, 79, 64
2, 17119, Note_on_c, 0, 79, 0
2, 17120, Note_on_c, 0, 81, 64
2, 17135, Note_on_c, 0, 81, 0
2, 17136, Note_on_c, 0, 78, 64
2, 17151, Note_on_c, 0, 78, 0
2, 17152, Note_on_c, 0, 79, 64
2, 17167, Note_on_c, 0, 79, 0
2, 17168, Note_on_c, 0, 81, 64
2, 17183, Note_on_c, 0, 81, 0
2, 17184, Note_on_c, 0, 72, 64
2, 17229, Note_on_c, 0, 72, 0
2, 17232, Note_on_c, 0, 72, 64
2, 17277, Note_on_c, 0, 72, 0
2, 17280, Note_on_c, 0, 84, 64
2, 17295, Note_on_c, 0, 84, 0
2, 17296, Note_on_c, 0, 86, 64
2, 17311, Note_on_c, 0, 86, 0
2, 17312, Note_on_c, 0, 88, 64
2, 17327, Note_on_c, 0, 88, 0
2, 17328, Note_on_c, 0, 81, 64
2, 17343, Note_on_c, 0, 81, 0
2, 17344, Note_on_c, 0, 83, 64
2, 17359, Note_on_c, 0, 83, 0
2, 17360, Note_on_c, 0, 84, 64
2, 17375, Note_on_c, 0, 84, 0
2, 17376, Note_on_c, 0, 78, 64
2, 17391, Note_on_c, 0, 78, 0
2, 17392, Note_on_c, 0, 79, 64
2, 17407, Note_on_c, 0, 79, 0
2, 17408, Note_on_c, 0, 81, 64
2, 17423, Note_on_c, 0, 81, 0
2, 17424, Note_on_c, 0, 74, 64
2, 17439, Note_on_c, 0, 74, 0
2, 17440, Note_on_c, 0, 76, 64
2, 17455, Note_on_c, 0, 76, 0
2, 17456, Note_on_c, 0, 78, 64
2, 17471, Note_on_c, 0, 78, 0
2, 17472, Note_on_c, 0, 79, 64
2, 17506, Note_on_c, 0, 79, 0
2, 17508, Note_on_c, 0, 74, 64
2, 17520, Note_on_c, 0, 74, 0
2, 17520, Note_on_c, 0, 76, 64
2, 17554, Note_on_c, 0, 76, 0
2, 17556, Note_on_c, 0, 72, 64
2, 17568, Note_on_c, 0, 72, 0
2, 17568, Note_on_c, 0, 71, 64
2, 17613, Note_on_c, 0, 71, 0
2, 17616, Note_on_c, 0, 71, 64
2, 17624, Note_on_c, 0, 71, 0
2, 17624, Note_on_c, 0, 69, 64
2, 17632, Note_on_c, 0, 69, 0
2, 17632, Note_on_c, 0, 71, 64
2, 17640, Note_on_c, 0, 71, 0
2, 17640, Note_on_c, 0, 69, 64
2, 17648, Note_on_c, 0, 69, 0
2, 17648, Note_on_c, 0, 67, 64
2, 17656, Note_on_c, 0, 67, 0
2, 17656, Note_on_c, 0, 69, 64
2, 17664, Note_on_c, 0, 69, 0
2, 17664, Note_on_c, 0, 67, 64
2, 17753, Note_on_c, 0, 67, 0
2, 17760, Note_on_c, 0, 83, 64
2, 17794, Note_on_c, 0, 83, 0
2, 17796, Note_on_c, 0, 79, 64
2, 17808, Note_on_c, 0, 79, 0
2, 17808, Note_on_c, 0, 78, 64
2, 17842, Note_on_c, 0, 78, 0
2, 17844, Note_on_c, 0, 76, 64
2, 17856, Note_on_c, 0, 76, 0
2, 17856, Note_on_c, 0, 75, 64
2, 17890, Note_on_c, 0, 75, 0
2, 17892, Note_on_c, 0, 78, 64
2, 17904, Note_on_c, 0, 78, 0
2, 17904, Note_on_c, 0, 76, 64
2, 17938, Note_on_c, 0, 76, 0
2, 17940, Note_on_c, 0, 71, 64
2, 17952, Note_on_c, 0, 71, 0
2, 17952, Note_on_c, 0, 72, 64
2, 17986, Note_on_c, 0, 72, 0
2, 17988, Note_on_c, 0, 69, 64
2, 18000, Note_on_c, 0, 69, 0
2, 18000, Note_on_c, 0, 67, 64
2, 18034, Note_on_c, 0, 67, 0
2, 18036, Note_on_c, 0, 66, 64
2, 18048, Note_on_c, 0, 66, 0
2, 18048, Note_on_c, 0, 67, 64
2, 18082, Note_on_c, 0, 67, 0
2, 18084, Note_on_c, 0, 69, 64
2, 18096, Note_on_c, 0, 69, 0
2, 18096, Note_on_c, 0, 71, 64
2, 18130, Note_on_c, 0, 71, 0
2, 18132, Note_on_c, 0, 64, 64
2, 18144, Note_on_c, 0, 64, 0
2, 18144, Note_on_c, 0, 69, 64
2, 18178, Note_on_c, 0, 69, 0
2, 18180, Note_on_c, 0, 71, 64
2, 18192, Note_on_c, 0, 71, 0
2, 18192, Note_on_c, 0, 72, 64
2, 18226, Note_on_c, 0, 72, 0
2, 18228, Note_on_c, 0, 69, 64
2, 18240, Note_on_c, 0, 69, 0
2, 18240, Note_on_c, 0, 71, 64
2, 18274, Note_on_c, 0, 71, 0
2, 18276, Note_on_c, 0, 64, 64
2, 18288, Note_on_c, 0, 64, 0
2, 18288, Note_on_c, 0, 76, 64
2, 18322, Note_on_c, 0, 76, 0
2, 18324, Note_on_c, 0, 64, 64
2, 18336, Note_on_c, 0, 64, 0
2, 18336, Note_on_c, 0, 63, 64
2, 18370, Note_on_c, 0, 63, 0
2, 18372, Note_on_c, 0, 69, 64
2, 18384, Note_on_c, 0, 69, 0
2, 18384, Note_on_c, 0, 67, 64
2, 18418, Note_on_c, 0, 67, 0
2, 18420, Note_on_c, 0, 64, 64
2, 18432, Note_on_c, 0, 64, 0
2, 18432, Note_on_c, 0, 71, 64
2, 18477, Note_on_c, 0, 71, 0
2, 18528, Note_on_c, 0, 71, 64
2, 18562, Note_on_c, 0, 71, 0
2, 18564, Note_on_c, 0, 73, 64
2, 18576, Note_on_c, 0, 73, 0
2, 18576, Note_on_c, 0, 74, 64
2, 18610, Note_on_c, 0, 74, 0
2, 18612, Note_on_c, 0, 76, 64
2, 18624, Note_on_c, 0, 76, 0
2, 18624, Note_on_c, 0, 78, 64
2, 18658, Note_on_c, 0, 78, 0
2, 18660, Note_on_c, 0, 77, 64
2, 18672, Note_on_c, 0, 77, 0
2, 18672, Note_on_c, 0, 78, 64
2, 18706, Note_on_c, 0, 78, 0
2, 18708, Note_on_c, 0, 77, 64
2, 18720, Note_on_c, 0, 77, 0
2, 18720, Note_on_c, 0, 78, 64
2, 18754, Note_on_c, 0, 78, 0
2, 18756, Note_on_c, 0, 79, 64
2, 18768, Note_on_c, 0, 79, 0
2, 18768, Note_on_c, 0, 78, 64
2, 18802, Note_on_c, 0, 78, 0
2, 18804, Note_on_c, 0, 76, 64
2, 18816, Note_on_c, 0, 76, 0
2, 18816, Note_on_c, 0, 74, 64
2, 18850, Note_on_c, 0, 74, 0
2, 18852, Note_on_c, 0, 73, 64
2, 18864, Note_on_c, 0, 73, 0
2, 18864, Note_on_c, 0, 71, 64
2, 18898, Note_on_c, 0, 71, 0
2, 18900, Note_on_c, 0, 70, 64
2, 18912, Note_on_c, 0, 70, 0
2, 18912, Note_on_c, 0, 71, 64
2, 18946, Note_on_c, 0, 71, 0
2, 18948, Note_on_c, 0, 73, 64
2, 18960, Note_on_c, 0, 73, 0
2, 18960, Note_on_c, 0, 74, 64
2, 18994, Note_on_c, 0, 74, 0
2, 18996, Note_on_c, 0, 76, 64
2, 19008, Note_on_c, 0, 76, 0
2, 19008, Note_on_c, 0, 78, 64
2, 19042, Note_on_c, 0, 78, 0
2, 19044, Note_on_c, 0, 77, 64
2, 19056, Note_on_c, 0, 77, 0
2, 19056, Note_on_c, 0, 78, 64
2, 19090, Note_on_c, 0, 78, 0
2, 19092, Note_on_c, 0, 77, 64
2, 19104, Note_on_c, 0, 77, 0
2, 19104, Note_on_c, 0, 78, 64
2, 19138, Note_on_c, 0, 78, 0
2, 19140, Note_on_c, 0, 79, 64
2, 19152, Note_on_c, 0, 79, 0
2, 19152, Note_on_c, 0, 78, 64
2, 19186, Note_on_c, 0, 78, 0
2, 19188, Note_on_c, 0, 76, 64
2, 19200, Note_on_c, 0, 76, 0
2, 19200, Note_on_c, 0, 74, 64
2, 19234, Note_on_c, 0, 74, 0
2, 19236, Note_on_c, 0, 78, 64
2, 19248, Note_on_c, 0, 78, 0
2, 19248, Note_on_c, 0, 71, 64
2, 19282, Note_on_c, 0, 71, 0
2, 19284, Note_on_c, 0, 74, 64
2, 19296, Note_on_c, 0, 74, 0
2, 19296, Note_on_c, 0, 73, 64
2, 19330, Note_on_c, 0, 73, 0
2, 19332, Note_on_c, 0, 76, 64
2, 19344, Note_on_c, 0, 76, 0
2, 19344, Note_on_c, 0, 70, 64
2, 19378, Note_on_c, 0, 70, 0
2, 19380, Note_on_c, 0, 73, 64
2, 19392, Note_on_c, 0, 73, 0
2, 19392, Note_on_c, 0, 71, 64
2, 19426, Note_on_c, 0, 71, 0
2, 19428, Note_on_c, 0, 82, 64
2, 19440, Note_on_c, 0, 82, 0
2, 19440, Note_on_c, 0, 83, 64
2, 19474, Note_on_c, 0, 83, 0
2, 19476, Note_on_c, 0, 74, 64
2, 19488, Note_on_c, 0, 74, 0
2, 19488, Note_on_c, 0, 73, 64
2, 19522, Note_on_c, 0, 73, 0
2, 19524, Note_on_c, 0, 76, 64
2, 19536, Note_on_c, 0, 76, 0
2, 19536, Note_on_c, 0, 70, 64
2, 19570, Note_on_c, 0, 70, 0
2, 19572, Note_on_c, 0, 73, 64
2, 19584, Note_on_c, 0, 73, 0
2, 19584, Note_on_c, 0, 71, 64
2, 19629, Note_on_c, 0, 71, 0
2, 19680, Note_on_c, 0, 83, 64
2, 19714, Note_on_c, 0, 83, 0
2, 19716, Note_on_c, 0, 79, 64
2, 19728, Note_on_c, 0, 79, 0
2, 19728, Note_on_c, 0, 78, 64
2, 19762, Note_on_c, 0, 78, 0
2, 19764, Note_on_c, 0, 76, 64
2, 19776, Note_on_c, 0, 76, 0
2, 19776, Note_on_c, 0, 75, 64
2, 19810, Note_on_c, 0, 75, 0
2, 19812, Note_on_c, 0, 78, 64
2, 19824, Note_on_c, 0, 78, 0
2, 19824, Note_on_c, 0, 76, 64
2, 19858, Note_on_c, 0, 76, 0
2, 19860, Note_on_c, 0, 71, 64
2, 19872, Note_on_c, 0, 71, 0
2, 19872, Note_on_c, 0, 72, 64
2, 19906, Note_on_c, 0, 72, 0
2, 19908, Note_on_c, 0, 69, 64
2, 19920, Note_on_c, 0, 69, 0
2, 19920, Note_on_c, 0, 67, 64
2, 19954, Note_on_c, 0, 67, 0
2, 19956, Note_on_c, 0, 66, 64
2, 19968, Note_on_c, 0, 66, 0
2, 19968, Note_on_c, 0, 67, 64
2, 20002, Note_on_c, 0, 67, 0
2, 20004, Note_on_c, 0, 69, 64
2, 20016, Note_on_c, 0, 69, 0
2, 20016, Note_on_c, 0, 71, 64
2, 20050, Note_on_c, 0, 71, 0
2, 20052, Note_on_c, 0, 64, 64
2, 20064, Note_on_c, 0, 64, 0
2, 20064, Note_on_c, 0, 69, 64
2, 20098, Note_on_c, 0, 69, 0
2, 20100, Note_on_c, 0, 71, 64
2, 20112, Note_on_c, 0, 71, 0
2, 20112, Note_on_c, 0, 72, 64
2, 20146, Note_on_c, 0, 72, 0
2, 20148, Note_on_c, 0, 69, 64
2, 20160, Note_on_c, 0, 69, 0
2, 20160, Note_on_c, 0, 71, 64
2, 20194, Note_on_c, 0, 71, 0
2, 20196, Note_on_c, 0, 64, 64
2, 20208, Note_on_c, 0, 64, 0
2, 20208, Note_on_c, 0, 76, 64
2, 20242, Note_on_c, 0, 76, 0
2, 20244, Note_on_c, 0, 64, 64
2, 20256, Note_on_c, 0, 64, 0
2, 20256, Note_on_c, 0, 63, 64
2, 20290, Note_on_c, 0, 63, 0
2, 20292, Note_on_c, 0, 69, 64
2, 20304, Note_on_c, 0, 69, 0
2, 20304, Note_on_c, 0, 67, 64
2, 20338, Note_on_c, 0, 67, 0
2, 20340, Note_on_c, 0, 64, 64
2, 20352, Note_on_c, 0, 64, 0
2, 20352, Note_on_c, 0, 71, 64
2, 20397, Note_on_c, 0, 71, 0
2, 20448, Note_on_c, 0, 71, 64
2, 20482, Note_on_c, 0, 71, 0
2, 20484, Note_on_c, 0, 73, 64
2, 20496, Note_on_c, 0, 73, 0
2, 20496, Note_on_c, 0, 74, 64
2, 20530, Note_on_c, 0, 74, 0
2, 20532, Note_on_c, 0, 76, 64
2, 20544, Note_on_c, 0, 76, 0
2, 20544, Note_on_c, 0, 78, 64
2, 20578, Note_on_c, 0, 78, 0
2, 20580, Note_on_c, 0, 77, 64
2, 20592, Note_on_c, 0, 77, 0
2, 20592, Note_on_c, 0, 78, 64
2, 20626, Note_on_c, 0, 78, 0
2, 20628, Note_on_c, 0, 77, 64
2, 20640, Note_on_c, 0, 77, 0
2, 20640, Note_on_c, 0, 78, 64
2, 20674, Note_on_c, 0, 78, 0
2, 20676, Note_on_c, 0, 79, 64
2, 20688, Note_on_c, 0, 79, 0
2, 20688, Note_on_c, 0, 78, 64
2, 20722, Note_on_c, 0, 78, 0
2, 20724, Note_on_c, 0, 76, 64
2, 20736, Note_on_c, 0, 76, 0
2, 20736, Note_on_c, 0, 74, 64
2, 20770, Note_on_c, 0, 74, 0
2, 20772, Note_on_c, 0, 73, 64
2, 20784, Note_on_c, 0, 73, 0
2, 20784, Note_on_c, 0, 71, 64
2, 20818, Note_on_c, 0, 71, 0
2, 20820, Note_on_c, 0, 70, 64
2, 20832, Note_on_c, 0, 70, 0
2, 20832, Note_on_c, 0, 71, 64
2, 20866, Note_on_c, 0, 71, 0
2, 20868, Note_on_c, 0, 73, 64
2, 20880, Note_on_c, 0, 73, 0
2, 20880, Note_on_c, 0, 74, 64
2, 20914, Note_on_c, 0, 74, 0
2, 20916, Note_on_c, 0, 76, 64
2, 20928, Note_on_c, 0, 76, 0
2, 20928, Note_on_c, 0, 78, 64
2, 20962, Note_on_c, 0, 78, 0
2, 20964, Note_on_c, 0, 77, 64
2, 20976, Note_on_c, 0, 77, 0
2, 20976, Note_on_c, 0, 78, 64
2, 21010, Note_on_c, 0, 78, 0
2, 21012, Note_on_c, 0, 77, 64
2, 21024, Note_on_c, 0, 77, 0
2, 21024, Note_on_c, 0, 78, 64
2, 21058, Note_on_c, 0, 78, 0
2, 21060, Note_on_c, 0, 79, 64
2, 21072, Note_on_c, 0, 79, 0
2, 21072, Note_on_c, 0, 78, 64
2, 21106, Note_on_c, 0, 78, 0
2, 21108, Note_on_c, 0, 76, 64
2, 21120, Note_on_c, 0, 76, 0
2, 21120, Note_on_c, 0, 74, 64
2, 21154, Note_on_c, 0, 74, 0
2, 21156, Note_on_c, 0, 78, 64
2, 21168, Note_on_c, 0, 78, 0
2, 21168, Note_on_c, 0, 71, 64
2, 21202, Note_on_c, 0, 71, 0
2, 21204, Note_on_c, 0, 74, 64
2, 21216, Note_on_c, 0, 74, 0
2, 21216, Note_on_c, 0, 73, 64
2, 21250, Note_on_c, 0, 73, 0
2, 21252, Note_on_c, 0, 76, 64
2, 21264, Note_on_c, 0, 76, 0
2, 21264, Note_on_c, 0, 70, 64
2, 21298, Note_on_c, 0, 70, 0
2, 21300, Note_on_c, 0, 73, 64
2, 21312, Note_on_c, 0, 73, 0
2, 21312, Note_on_c, 0, 71, 64
2, 21346, Note_on_c, 0, 71, 0
2, 21348, Note_on_c, 0, 82, 64
2, 21360, Note_on_c, 0, 82, 0
2, 21360, Note_on_c, 0, 83, 64
2, 21394, Note_on_c, 0, 83, 0
2, 21396, Note_on_c, 0, 74, 64
2, 21408, Note_on_c, 0, 74, 0
2, 21408, Note_on_c, 0, 73, 64
2, 21442, Note_on_c, 0, 73, 0
2, 21444, Note_on_c, 0, 76, 64
2, 21456, Note_on_c, 0, 76, 0
2, 21456, Note_on_c, 0, 70, 64
2, 21490, Note_on_c, 0, 70, 0
2, 21492, Note_on_c, 0, 73, 64
2, 21504, Note_on_c, 0, 73, 0
2, 21504, Note_on_c, 0, 71, 64
2, 21549, Note_on_c, 0, 71, 0
2, 21600, Note_on_c, 0, 83, 64
2, 21634, Note_on_c, 0, 83, 0
2, 21636, Note_on_c, 0, 79, 64
2, 21648, Note_on_c, 0, 79, 0
2, 21648, Note_on_c, 0, 78, 64
2, 21682, Note_on_c, 0, 78, 0
2, 21684, Note_on_c, 0, 76, 64
2, 21696, Note_on_c, 0, 76, 0
2, 21696, Note_on_c, 0, 75, 64
2, 21730, Note_on_c, 0, 75, 0
2, 21732, Note_on_c, 0, 71, 64
2, 21744, Note_on_c, 0, 71, 0
2, 21744, Note_on_c, 0, 76, 64
2, 21778, Note_on_c, 0, 76, 0
2, 21780, Note_on_c, 0, 71, 64
2, 21792, Note_on_c, 0, 71, 0
2, 21792, Note_on_c, 0, 81, 64
2, 21826, Note_on_c, 0, 81, 0
2, 21828, Note_on_c, 0, 71, 64
2, 21840, Note_on_c, 0, 71, 0
2, 21840, Note_on_c, 0, 79, 64
2, 21874, Note_on_c, 0, 79, 0
2, 21876, Note_on_c, 0, 71, 64
2, 21888, Note_on_c, 0, 71, 0
2, 21888, Note_on_c, 0, 78, 64
2, 21922, Note_on_c, 0, 78, 0
2, 21924, Note_on_c, 0, 71, 64
2, 21936, Note_on_c, 0, 71, 0
2, 21936, Note_on_c, 0, 75, 64
2, 21970, Note_on_c, 0, 75, 0
2, 21972, Note_on_c, 0, 78, 64
2, 21984, Note_on_c, 0, 78, 0
2, 21984, Note_on_c, 0, 83, 64
2, 22018, Note_on_c, 0, 83, 0
2, 22020, Note_on_c, 0, 79, 64
2, 22032, Note_on_c, 0, 79, 0
2, 22032, Note_on_c, 0, 78, 64
2, 22066, Note_on_c, 0, 78, 0
2, 22068, Note_on_c, 0, 76, 64
2, 22080, Note_on_c, 0, 76, 0
2, 22080, Note_on_c, 0, 75, 64
2, 22114, Note_on_c, 0, 75, 0
2, 22116, Note_on_c, 0, 71, 64
2, 22128, Note_on_c, 0, 71, 0
2, 22128, Note_on_c, 0, 76, 64
2, 22162, Note_on_c, 0, 76, 0
2, 22164, Note_on_c, 0, 71, 64
2, 22176, Note_on_c, 0, 71, 0
2, 22176, Note_on_c, 0, 69, 64
2, 22210, Note_on_c, 0, 69, 0
2, 22212, Note_on_c, 0, 71, 64
2, 22224, Note_on_c, 0, 71, 0
2, 22224, Note_on_c, 0, 67, 64
2, 22258, Note_on_c, 0, 67, 0
2, 22260, Note_on_c, 0, 69, 64
2, 22272, Note_on_c, 0, 69, 0
2, 22272, Note_on_c, 0, 66, 64
2, 22317, Note_on_c, 0, 66, 0
2, 22368, Note_on_c, 0, 76, 64
2, 22402, Note_on_c, 0, 76, 0
2, 22404, Note_on_c, 0, 78, 64
2, 22416, Note_on_c, 0, 78, 0
2, 22416, Note_on_c, 0, 80, 64
2, 22450, Note_on_c, 0, 80, 0
2, 22452, Note_on_c, 0, 81, 64
2, 22464, Note_on_c, 0, 81, 0
2, 22464, Note_on_c, 0, 83, 64
2, 22498, Note_on_c, 0, 83, 0
2, 22500, Note_on_c, 0, 82, 64
2, 22512, Note_on_c, 0, 82, 0
2, 22512, Note_on_c, 0, 83, 64
2, 22546, Note_on_c, 0, 83, 0
2, 22548, Note_on_c, 0, 82, 64
2, 22560, Note_on_c, 0, 82, 0
2, 22560, Note_on_c, 0, 83, 64
2, 22594, Note_on_c, 0, 83, 0
2, 22596, Note_on_c, 0, 86, 64
2, 22608, Note_on_c, 0, 86, 0
2, 22608, Note_on_c, 0, 83, 64
2, 22642, Note_on_c, 0, 83, 0
2, 22644, Note_on_c, 0, 80, 64
2, 22656, Note_on_c, 0, 80, 0
2, 22656, Note_on_c, 0, 81, 64
2, 22690, Note_on_c, 0, 81, 0
2, 22692, Note_on_c, 0, 80, 64
2, 22704, Note_on_c, 0, 80, 0
2, 22704, Note_on_c, 0, 81, 64
2, 22738, Note_on_c, 0, 81, 0
2, 22740, Note_on_c, 0, 80, 64
2, 22752, Note_on_c, 0, 80, 0
2, 22752, Note_on_c, 0, 81, 64
2, 22786, Note_on_c, 0, 81, 0
2, 22788, Note_on_c, 0, 84, 64
2, 22800, Note_on_c, 0, 84, 0
2, 22800, Note_on_c, 0, 81, 64
2, 22834, Note_on_c, 0, 81, 0
2, 22836, Note_on_c, 0, 78, 64
2, 22848, Note_on_c, 0, 78, 0
2, 22848, Note_on_c, 0, 75, 64
2, 22882, Note_on_c, 0, 75, 0
2, 22884, Note_on_c, 0, 76, 64
2, 22896, Note_on_c, 0, 76, 0
2, 22896, Note_on_c, 0, 75, 64
2, 22930, Note_on_c, 0, 75, 0
2, 22932, Note_on_c, 0, 76, 64
2, 22944, Note_on_c, 0, 76, 0
2, 22944, Note_on_c, 0, 75, 64
2, 22978, Note_on_c, 0, 75, 0
2, 22980, Note_on_c, 0, 81, 64
2, 22992, Note_on_c, 0, 81, 0
2, 22992, Note_on_c, 0, 78, 64
2, 23026, Note_on_c, 0, 78, 0
2, 23028, Note_on_c, 0, 75, 64
2, 23040, Note_on_c, 0, 75, 0
2, 23040, Note_on_c, 0, 76, 64
2, 23074, Note_on_c, 0, 76, 0
2, 23076, Note_on_c, 0, 75, 64
2, 23088, Note_on_c, 0, 75, 0
2, 23088, Note_on_c, 0, 76, 64
2, 23122, Note_on_c, 0, 76, 0
2, 23124, Note_on_c, 0, 75, 64
2, 23136, Note_on_c, 0, 75, 0
2, 23136, Note_on_c, 0, 76, 64
2, 23170, Note_on_c, 0, 76, 0
2, 23172, Note_on_c, 0, 83, 64
2, 23184, Note_on_c, 0, 83, 0
2, 23184, Note_on_c, 0, 79, 64
2, 23218, Note_on_c, 0, 79, 0
2, 23220, Note_on_c, 0, 76, 64
2, 23232, Note_on_c, 0, 76, 0
2, 23232, Note_on_c, 0, 75, 64
2, 23266, Note_on_c, 0, 75, 0
2, 23268, Note_on_c, 0, 76, 64
2, 23280, Note_on_c, 0, 76, 0
2, 23280, Note_on_c, 0, 75, 64
2, 23314, Note_on_c, 0, 75, 0
2, 23316, Note_on_c, 0, 76, 64
2, 23328, Note_on_c, 0, 76, 0
2, 23328, Note_on_c, 0, 75, 64
2, 23362, Note_on_c, 0, 75, 0
2, 23364, Note_on_c, 0, 81, 64
2, 23376, Note_on_c, 0, 81, 0
2, 23376, Note_on_c, 0, 78, 64
2, 23410, Note_on_c, 0, 78, 0
2, 23412, Note_on_c, 0, 75, 64
2, 23424, Note_on_c, 0, 75, 0
2, 23424, Note_on_c, 0, 76, 64
2, 23458, Note_on_c, 0, 76, 0
2, 23460, Note_on_c, 0, 75, 64
2, 23472, Note_on_c, 0, 75, 0
2, 23472, Note_on_c, 0, 76, 64
2, 23506, Note_on_c, 0, 76, 0
2, 23508, Note_on_c, 0, 75, 64
2, 23520, Note_on_c, 0, 75, 0
2, 23520, Note_on_c, 0, 76, 64
2, 23554, Note_on_c, 0, 76, 0
2, 23556, Note_on_c, 0, 83, 64
2, 23568, Note_on_c, 0, 83, 0
2, 23568, Note_on_c, 0, 79, 64
2, 23602, Note_on_c, 0, 79, 0
2, 23604, Note_on_c, 0, 76, 64
2, 23616, Note_on_c, 0, 76, 0
2, 23616, Note_on_c, 0, 76, 64
2, 23650, Note_on_c, 0, 76, 0
2, 23652, Note_on_c, 0, 88, 64
2, 23664, Note_on_c, 0, 88, 0
2, 23664, Note_on_c, 0, 76, 64
2, 23698, Note_on_c, 0, 76, 0
2, 23700, Note_on_c, 0, 88, 64
2, 23712, Note_on_c, 0, 88, 0
2, 23712, Note_on_c, 0, 76, 64
2, 23746, Note_on_c, 0, 76, 0
2, 23748, Note_on_c, 0, 88, 64
2, 23760, Note_on_c, 0, 88, 0
2, 23760, Note_on_c, 0, 76, 64
2, 23794, Note_on_c, 0, 76, 0
2, 23796, Note_on_c, 0, 88, 64
2, 23808, Note_on_c, 0, 88, 0
2, 23808, Note_on_c, 0, 75, 64
2, 23842, Note_on_c, 0, 75, 0
2, 23844, Note_on_c, 0, 87, 64
2, 23856, Note_on_c, 0, 87, 0
2, 23856, Note_on_c, 0, 71, 64
2, 23890, Note_on_c, 0, 71, 0
2, 23892, Note_on_c, 0, 83, 64
2, 23904, Note_on_c, 0, 83, 0
2, 23904, Note_on_c, 0, 66, 64
2, 23938, Note_on_c, 0, 66, 0
2, 23940, Note_on_c, 0, 78, 64
2, 23952, Note_on_c, 0, 78, 0
2, 23952, Note_on_c, 0, 63, 64
2, 23986, Note_on_c, 0, 63, 0
2, 23988, Note_on_c, 0, 75, 64
2, 24000, Note_on_c, 0, 75, 0
2, 24000, Note_on_c, 0, 59, 64
2, 24281, Note_on_c, 0, 59, 0
2, 24288, Note_on_c, 0, 71, 64
2, 24355, Note_on_c, 0, 71, 0
2, 24360, Note_on_c, 0, 72, 64
2, 24372, Note_on_c, 0, 72, 0
2, 24372, Note_on_c, 0, 74, 64
2, 24384, Note_on_c, 0, 74, 0
2, 24384, Note_on_c, 0, 67, 64
2, 24429, Note_on_c, 0, 67, 0
2, 24432, Note_on_c, 0, 67, 64
2, 24477, Note_on_c, 0, 67, 0
2, 24480, Note_on_c, 0, 69, 64
2, 24486, Note_on_c, 0, 69, 0
2, 24486, Note_on_c, 0, 71, 64
2, 24492, Note_on_c, 0, 71, 0
2, 24492, Note_on_c, 0, 69, 64
2, 24514, Note_on_c, 0, 69, 0
2, 24516, Note_on_c, 0, 67, 64
2, 24528, Note_on_c, 0, 67, 0
2, 24528, Note_on_c, 0, 69, 64
2, 24562, Note_on_c, 0, 69, 0
2, 24564, Note_on_c, 0, 71, 64
2, 24576, Note_on_c, 0, 71, 0
2, 24576, Note_on_c, 0, 67, 64
2, 24621, Note_on_c, 0, 67, 0
2, 24672, Note_on_c, 0, 76, 64
2, 24695, Note_on_c, 0, 76, 0
2, 24696, Note_on_c, 0, 78, 64
2, 24708, Note_on_c, 0, 78, 0
2, 24708, Note_on_c, 0, 79, 64
2, 24720, Note_on_c, 0, 79, 0
2, 24720, Note_on_c, 0, 74, 64
2, 24740, Note_on_c, 0, 74, 0
2, 24768, Note_on_c, 0, 72, 64
2, 24791, Note_on_c, 0, 72, 0
2, 24792, Note_on_c, 0, 74, 64
2, 24804, Note_on_c, 0, 74, 0
2, 24804, Note_on_c, 0, 76, 64
2, 24816, Note_on_c, 0, 76, 0
2, 24816, Note_on_c, 0, 71, 64
2, 24836, Note_on_c, 0, 71, 0
2, 24864, Note_on_c, 0, 69, 64
2, 24909, Note_on_c, 0, 69, 0
2, 24912, Note_on_c, 0, 69, 64
2, 24920, Note_on_c, 0, 69, 0
2, 24920, Note_on_c, 0, 67, 64
2, 24928, Note_on_c, 0, 67, 0
2, 24928, Note_on_c, 0, 69, 64
2, 24936, Note_on_c, 0, 69, 0
2, 24936, Note_on_c, 0, 67, 64
2, 24944, Note_on_c, 0, 67, 0
2, 24944, Note_on_c, 0, 66, 64
2, 24952, Note_on_c, 0, 66, 0
2, 24952, Note_on_c, 0, 67, 64
2, 24960, Note_on_c, 0, 67, 0
2, 24960, Note_on_c, 0, 74, 64
2, 25005, Note_on_c, 0, 74, 0
2, 25056, Note_on_c, 0, 71, 64
2, 25079, Note_on_c, 0, 71, 0
2, 25080, Note_on_c, 0, 72, 64
2, 25103, Note_on_c, 0, 72, 0
2, 25104, Note_on_c, 0, 73, 64
2, 25127, Note_on_c, 0, 73, 0
2, 25128, Note_on_c, 0, 74, 64
2, 25151, Note_on_c, 0, 74, 0
2, 25152, Note_on_c, 0, 67, 64
2, 25197, Note_on_c, 0, 67, 0
2, 25200, Note_on_c, 0, 67, 64
2, 25245, Note_on_c, 0, 67, 0
2, 25248, Note_on_c, 0, 69, 64
2, 25254, Note_on_c, 0, 69, 0
2, 25254, Note_on_c, 0, 71, 64
2, 25260, Note_on_c, 0, 71, 0
2, 25260, Note_on_c, 0, 69, 64
2, 25282, Note_on_c, 0, 69, 0
2, 25284, Note_on_c, 0, 67, 64
2, 25296, Note_on_c, 0, 67, 0
2, 25296, Note_on_c, 0, 69, 64
2, 25330, Note_on_c, 0, 69, 0
2, 25332, Note_on_c, 0, 71, 64
2, 25344, Note_on_c, 0, 71, 0
2, 25344, Note_on_c, 0, 67, 64
2, 25389, Note_on_c, 0, 67, 0
2, 25392, Note_on_c, 0, 67, 64
2, 25437, Note_on_c, 0, 67, 0
2, 25440, Note_on_c, 0, 76, 64
2, 25463, Note_on_c, 0, 76, 0
2, 25464, Note_on_c, 0, 78, 64
2, 25487, Note_on_c, 0, 78, 0
2, 25488, Note_on_c, 0, 79, 64
2, 25511, Note_on_c, 0, 79, 0
2, 25512, Note_on_c, 0, 74, 64
2, 25535, Note_on_c, 0, 74, 0
2, 25536, Note_on_c, 0, 74, 64
2, 25560, Note_on_c, 0, 74, 0
2, 25560, Note_on_c, 0, 72, 64
2, 25583, Note_on_c, 0, 72, 0
2, 25584, Note_on_c, 0, 72, 64
2, 25608, Note_on_c, 0, 72, 0
2, 25608, Note_on_c, 0, 71, 64
2, 25631, Note_on_c, 0, 71, 0
2, 25632, Note_on_c, 0, 71, 64
2, 25656, Note_on_c, 0, 71, 0
2, 25656, Note_on_c, 0, 69, 64
2, 25679, Note_on_c, 0, 69, 0
2, 25680, Note_on_c, 0, 69, 64
2, 25704, Note_on_c, 0, 69, 0
2, 25704, Note_on_c, 0, 67, 64
2, 25727, Note_on_c, 0, 67, 0
2, 25728, Note_on_c, 0, 67, 64
2, 25776, Note_on_c, 0, 67, 0
2, 25776, Note_on_c, 0, 66, 64
2, 25821, Note_on_c, 0, 66, 0
2, 25824, Note_on_c, 0, 73, 64
2, 25847, Note_on_c, 0, 73, 0
2, 25848, Note_on_c, 0, 74, 64
2, 25871, Note_on_c, 0, 74, 0
2, 25872, Note_on_c, 0, 78, 64
2, 25895, Note_on_c, 0, 78, 0
2, 25896, Note_on_c, 0, 74, 64
2, 25919, Note_on_c, 0, 74, 0
2, 25920, Note_on_c, 0, 75, 64
2, 25943, Note_on_c, 0, 75, 0
2, 25944, Note_on_c, 0, 76, 64
2, 25967, Note_on_c, 0, 76, 0
2, 25968, Note_on_c, 0, 79, 64
2, 25991, Note_on_c, 0, 79, 0
2, 25992, Note_on_c, 0, 76, 64
2, 26015, Note_on_c, 0, 76, 0
2, 26016, Note_on_c, 0, 73, 64
2, 26039, Note_on_c, 0, 73, 0
2, 26040, Note_on_c, 0, 85, 64
2, 26063, Note_on_c, 0, 85, 0
2, 26064, Note_on_c, 0, 76, 64
2, 26087, Note_on_c, 0, 76, 0
2, 26088, Note_on_c, 0, 88, 64
2, 26111, Note_on_c, 0, 88, 0
2, 26112, Note_on_c, 0, 73, 64
2, 26135, Note_on_c, 0, 73, 0
2, 26136, Note_on_c, 0, 85, 64
2, 26159, Note_on_c, 0, 85, 0
2, 26160, Note_on_c, 0, 74, 64
2, 26183, Note_on_c, 0, 74, 0
2, 26184, Note_on_c, 0, 86, 64
2, 26207, Note_on_c, 0, 86, 0
2, 26208, Note_on_c, 0, 72, 64
2, 26231, Note_on_c, 0, 72, 0
2, 26232, Note_on_c, 0, 84, 64
2, 26255, Note_on_c, 0, 84, 0
2, 26256, Note_on_c, 0, 70, 64
2, 26279, Note_on_c, 0, 70, 0
2, 26280, Note_on_c, 0, 82, 64
2, 26303, Note_on_c, 0, 82, 0
2, 26304, Note_on_c, 0, 71, 64
2, 26327, Note_on_c, 0, 71, 0
2, 26328, Note_on_c, 0, 86, 64
2, 26351, Note_on_c, 0, 86, 0
2, 26352, Note_on_c, 0, 83, 64
2, 26375, Note_on_c, 0, 83, 0
2, 26376, Note_on_c, 0, 79, 64
2, 26399, Note_on_c, 0, 79, 0
2, 26400, Note_on_c, 0, 78, 64
2, 26445, Note_on_c, 0, 78, 0
2, 26448, Note_on_c, 0, 78, 64
2, 26456, Note_on_c, 0, 78, 0
2, 26456, Note_on_c, 0, 76, 64
2, 26464, Note_on_c, 0, 76, 0
2, 26464, Note_on_c, 0, 78, 64
2, 26472, Note_on_c, 0, 78, 0
2, 26472, Note_on_c, 0, 76, 64
2, 26480, Note_on_c, 0, 76, 0
2, 26480, Note_on_c, 0, 74, 64
2, 26488, Note_on_c, 0, 74, 0
2, 26488, Note_on_c, 0, 76, 64
2, 26496, Note_on_c, 0, 76, 0
2, 26496, Note_on_c, 0, 74, 64
2, 26585, Note_on_c, 0, 74, 0
2, 26592, Note_on_c, 0, 71, 64
2, 26615, Note_on_c, 0, 71, 0
2, 26616, Note_on_c, 0, 72, 64
2, 26639, Note_on_c, 0, 72, 0
2, 26640, Note_on_c, 0, 73, 64
2, 26663, Note_on_c, 0, 73, 0
2, 26664, Note_on_c, 0, 74, 64
2, 26687, Note_on_c, 0, 74, 0
2, 26688, Note_on_c, 0, 67, 64
2, 26733, Note_on_c, 0, 67, 0
2, 26736, Note_on_c, 0, 67, 64
2, 26781, Note_on_c, 0, 67, 0
2, 26784, Note_on_c, 0, 69, 64
2, 26790, Note_on_c, 0, 69, 0
2, 26790, Note_on_c, 0, 71, 64
2, 26796, Note_on_c, 0, 71, 0
2, 26796, Note_on_c, 0, 69, 64
2, 26818, Note_on_c, 0, 69, 0
2, 26820, Note_on_c, 0, 67, 64
2, 26832, Note_on_c, 0, 67, 0
2, 26832, Note_on_c, 0, 69, 64
2, 26866, Note_on_c, 0, 69, 0
2, 26868, Note_on_c, 0, 71, 64
2, 26880, Note_on_c, 0, 71, 0
2, 26880, Note_on_c, 0, 67, 64
2, 26925, Note_on_c, 0, 67, 0
2, 26928, Note_on_c, 0, 67, 64
2, 26973, Note_on_c, 0, 67, 0
2, 26976, Note_on_c, 0, 76, 64
2, 26999, Note_on_c, 0, 76, 0
2, 27000, Note_on_c, 0, 78, 64
2, 27023, Note_on_c, 0, 78, 0
2, 27024, Note_on_c, 0, 79, 64
2, 27047, Note_on_c, 0, 79, 0
2, 27048, Note_on_c, 0, 74, 64
2, 27071, Note_on_c, 0, 74, 0
2, 27072, Note_on_c, 0, 74, 64
2, 27096, Note_on_c, 0, 74, 0
2, 27096, Note_on_c, 0, 72, 64
2, 27119, Note_on_c, 0, 72, 0
2, 27120, Note_on_c, 0, 72, 64
2, 27144, Note_on_c, 0, 72, 0
2, 27144, Note_on_c, 0, 71, 64
2, 27167, Note_on_c, 0, 71, 0
2, 27168, Note_on_c, 0, 71, 64
2, 27192, Note_on_c, 0, 71, 0
2, 27192, Note_on_c, 0, 69, 64
2, 27215, Note_on_c, 0, 69, 0
2, 27216, Note_on_c, 0, 69, 64
2, 27240, Note_on_c, 0, 69, 0
2, 27240, Note_on_c, 0, 67, 64
2, 27263, Note_on_c, 0, 67, 0
2, 27264, Note_on_c, 0, 67, 64
2, 27312, Note_on_c, 0, 67, 0
2, 27312, Note_on_c, 0, 66, 64
2, 27357, Note_on_c, 0, 66, 0
2, 27360, Note_on_c, 0, 73, 64
2, 27383, Note_on_c, 0, 73, 0
2, 27384, Note_on_c, 0, 74, 64
2, 27407, Note_on_c, 0, 74, 0
2, 27408, Note_on_c, 0, 78, 64
2, 27431, Note_on_c, 0, 78, 0
2, 27432, Note_on_c, 0, 74, 64
2, 27455, Note_on_c, 0, 74, 0
2, 27456, Note_on_c, 0, 75, 64
2, 27479, Note_on_c, 0, 75, 0
2, 27480, Note_on_c, 0, 76, 64
2, 27503, Note_on_c, 0, 76, 0
2, 27504, Note_on_c, 0, 79, 64
2, 27527, Note_on_c, 0, 79, 0
2, 27528, Note_on_c, 0, 76, 64
2, 27551, Note_on_c, 0, 76, 0
2, 27552, Note_on_c, 0, 73, 64
2, 27575, Note_on_c, 0, 73, 0
2, 27576, Note_on_c, 0, 85, 64
2, 27599, Note_on_c, 0, 85, 0
2, 27600, Note_on_c, 0, 76, 64
2, 27623, Note_on_c, 0, 76, 0
2, 27624, Note_on_c, 0, 88, 64
2, 27647, Note_on_c, 0, 88, 0
2, 27648, Note_on_c, 0, 73, 64
2, 27671, Note_on_c, 0, 73, 0
2, 27672, Note_on_c, 0, 85, 64
2, 27695, Note_on_c, 0, 85, 0
2, 27696, Note_on_c, 0, 74, 64
2, 27719, Note_on_c, 0, 74, 0
2, 27720, Note_on_c, 0, 86, 64
2, 27743, Note_on_c, 0, 86, 0
2, 27744, Note_on_c, 0, 72, 64
2, 27767, Note_on_c, 0, 72, 0
2, 27768, Note_on_c, 0, 84, 64
2, 27791, Note_on_c, 0, 84, 0
2, 27792, Note_on_c, 0, 70, 64
2, 27815, Note_on_c, 0, 70, 0
2, 27816, Note_on_c, 0, 82, 64
2, 27839, Note_on_c, 0, 82, 0
2, 27840, Note_on_c, 0, 71, 64
2, 27863, Note_on_c, 0, 71, 0
2, 27864, Note_on_c, 0, 86, 64
2, 27887, Note_on_c, 0, 86, 0
2, 27888, Note_on_c, 0, 83, 64
2, 27911, Note_on_c, 0, 83, 0
2, 27912, Note_on_c, 0, 79, 64
2, 27935, Note_on_c, 0, 79, 0
2, 27936, Note_on_c, 0, 78, 64
2, 27981, Note_on_c, 0, 78, 0
2, 27984, Note_on_c, 0, 78, 64
2, 27992, Note_on_c, 0, 78, 0
2, 27992, Note_on_c, 0, 76, 64
2, 28000, Note_on_c, 0, 76, 0
2, 28000, Note_on_c, 0, 78, 64
2, 28008, Note_on_c, 0, 78, 0
2, 28008, Note_on_c, 0, 76, 64
2, 28016, Note_on_c, 0, 76, 0
2, 28016, Note_on_c, 0, 74, 64
2, 28024, Note_on_c, 0, 74, 0
2, 28024, Note_on_c, 0, 76, 64
2, 28032, Note_on_c, 0, 76, 0
2, 28032, Note_on_c, 0, 74, 64
2, 28121, Note_on_c, 0, 74, 0
2, 28128, Note_on_c, 0, 73, 64
2, 28151, Note_on_c, 0, 73, 0
2, 28152, Note_on_c, 0, 74, 64
2, 28175, Note_on_c, 0, 74, 0
2, 28176, Note_on_c, 0, 76, 64
2, 28199, Note_on_c, 0, 76, 0
2, 28200, Note_on_c, 0, 77, 64
2, 28223, Note_on_c, 0, 77, 0
2, 28224, Note_on_c, 0, 77, 64
2, 28247, Note_on_c, 0, 77, 0
2, 28248, Note_on_c, 0, 68, 64
2, 28271, Note_on_c, 0, 68, 0
2, 28272, Note_on_c, 0, 77, 64
2, 28295, Note_on_c, 0, 77, 0
2, 28296, Note_on_c, 0, 68, 64
2, 28319, Note_on_c, 0, 68, 0
2, 28320, Note_on_c, 0, 76, 64
2, 28343, Note_on_c, 0, 76, 0
2, 28344, Note_on_c, 0, 69, 64
2, 28367, Note_on_c, 0, 69, 0
2, 28368, Note_on_c, 0, 74, 64
2, 28391, Note_on_c, 0, 74, 0
2, 28392, Note_on_c, 0, 68, 64
2, 28415, Note_on_c, 0, 68, 0
2, 28416, Note_on_c, 0, 74, 64
2, 28439, Note_on_c, 0, 74, 0
2, 28440, Note_on_c, 0, 72, 64
2, 28463, Note_on_c, 0, 72, 0
2, 28464, Note_on_c, 0, 71, 64
2, 28487, Note_on_c, 0, 71, 0
2, 28488, Note_on_c, 0, 69, 64
2, 28511, Note_on_c, 0, 69, 0
2, 28512, Note_on_c, 0, 74, 64
2, 28535, Note_on_c, 0, 74, 0
2, 28536, Note_on_c, 0, 72, 64
2, 28559, Note_on_c, 0, 72, 0
2, 28560, Note_on_c, 0, 81, 64
2, 28583, Note_on_c, 0, 81, 0
2, 28584, Note_on_c, 0, 72, 64
2, 28607, Note_on_c, 0, 72, 0
2, 28608, Note_on_c, 0, 72, 64
2, 28631, Note_on_c, 0, 72, 0
2, 28632, Note_on_c, 0, 71, 64
2, 28655, Note_on_c, 0, 71, 0
2, 28656, Note_on_c, 0, 79, 64
2, 28679, Note_on_c, 0, 79, 0
2, 28680, Note_on_c, 0, 71, 64
2, 28703, Note_on_c, 0, 71, 0
2, 28704, Note_on_c, 0, 71, 64
2, 28727, Note_on_c, 0, 71, 0
2, 28728, Note_on_c, 0, 69, 64
2, 28751, Note_on_c, 0, 69, 0
2, 28752, Note_on_c, 0, 76, 64
2, 28775, Note_on_c, 0, 76, 0
2, 28776, Note_on_c, 0, 67, 64
2, 28799, Note_on_c, 0, 67, 0
2, 28800, Note_on_c, 0, 67, 64
2, 28848, Note_on_c, 0, 67, 0
2, 28848, Note_on_c, 0, 66, 64
2, 28893, Note_on_c, 0, 66, 0
2, 28992, Note_on_c, 0, 78, 64
2, 29015, Note_on_c, 0, 78, 0
2, 29016, Note_on_c, 0, 79, 64
2, 29039, Note_on_c, 0, 79, 0
2, 29040, Note_on_c, 0, 80, 64
2, 29063, Note_on_c, 0, 80, 0
2, 29064, Note_on_c, 0, 81, 64
2, 29087, Note_on_c, 0, 81, 0
2, 29088, Note_on_c, 0, 72, 64
2, 29133, Note_on_c, 0, 72, 0
2, 29136, Note_on_c, 0, 72, 64
2, 29181, Note_on_c, 0, 72, 0
2, 29184, Note_on_c, 0, 81, 64
2, 29207, Note_on_c, 0, 81, 0
2, 29208, Note_on_c, 0, 82, 64
2, 29231, Note_on_c, 0, 82, 0
2, 29232, Note_on_c, 0, 83, 64
2, 29255, Note_on_c, 0, 83, 0
2, 29256, Note_on_c, 0, 84, 64
2, 29279, Note_on_c, 0, 84, 0
2, 29280, Note_on_c, 0, 85, 64
2, 29303, Note_on_c, 0, 85, 0
2, 29304, Note_on_c, 0, 86, 64
2, 29327, Note_on_c, 0, 86, 0
2, 29328, Note_on_c, 0, 87, 64
2, 29351, Note_on_c, 0, 87, 0
2, 29352, Note_on_c, 0, 88, 64
2, 29375, Note_on_c, 0, 88, 0
2, 29376, Note_on_c, 0, 86, 64
2, 29410, Note_on_c, 0, 86, 0
2, 29412, Note_on_c, 0, 83, 64
2, 29424, Note_on_c, 0, 83, 0
2, 29424, Note_on_c, 0, 81, 64
2, 29458, Note_on_c, 0, 81, 0
2, 29460, Note_on_c, 0, 84, 64
2, 29472, Note_on_c, 0, 84, 0
2, 29472, Note_on_c, 0, 79, 64
2, 29517, Note_on_c, 0, 79, 0
2, 29520, Note_on_c, 0, 79, 64
2, 29528, Note_on_c, 0, 79, 0
2, 29528, Note_on_c, 0, 78, 64
2, 29536, Note_on_c, 0, 78, 0
2, 29536, Note_on_c, 0, 79, 64
2, 29544, Note_on_c, 0, 79, 0
2, 29544, Note_on_c, 0, 78, 64
2, 29552, Note_on_c, 0, 78, 0
2, 29552, Note_on_c, 0, 76, 64
2, 29560, Note_on_c, 0, 76, 0
2, 29560, Note_on_c, 0, 78, 64
2, 29568, Note_on_c, 0, 78, 0
2, 29568, Note_on_c, 0, 79, 64
2, 29657, Note_on_c, 0, 79, 0
2, 29664, Note_on_c, 0, 73, 64
2, 29687, Note_on_c, 0, 73, 0
2, 29688, Note_on_c, 0, 74, 64
2, 29711, Note_on_c, 0, 74, 0
2, 29712, Note_on_c, 0, 76, 64
2, 29735, Note_on_c, 0, 76, 0
2, 29736, Note_on_c, 0, 77, 64
2, 29759, Note_on_c, 0, 77, 0
2, 29760, Note_on_c, 0, 77, 64
2, 29783, Note_on_c, 0, 77, 0
2, 29784, Note_on_c, 0, 68, 64
2, 29807, Note_on_c, 0, 68, 0
2, 29808, Note_on_c, 0, 77, 64
2, 29831, Note_on_c, 0, 77, 0
2, 29832, Note_on_c, 0, 68, 64
2, 29855, Note_on_c, 0, 68, 0
2, 29856, Note_on_c, 0, 76, 64
2, 29879, Note_on_c, 0, 76, 0
2, 29880, Note_on_c, 0, 69, 64
2, 29903, Note_on_c, 0, 69, 0
2, 29904, Note_on_c, 0, 74, 64
2, 29927, Note_on_c, 0, 74, 0
2, 29928, Note_on_c, 0, 68, 64
2, 29951, Note_on_c, 0, 68, 0
2, 29952, Note_on_c, 0, 74, 64
2, 29975, Note_on_c, 0, 74, 0
2, 29976, Note_on_c, 0, 72, 64
2, 29999, Note_on_c, 0, 72, 0
2, 30000, Note_on_c, 0, 71, 64
2, 30023, Note_on_c, 0, 71, 0
2, 30024, Note_on_c, 0, 69, 64
2, 30047, Note_on_c, 0, 69, 0
2, 30048, Note_on_c, 0, 74, 64
2, 30071, Note_on_c, 0, 74, 0
2, 30072, Note_on_c, 0, 72, 64
2, 30095, Note_on_c, 0, 72, 0
2, 30096, Note_on_c, 0, 81, 64
2, 30119, Note_on_c, 0, 81, 0
2, 30120, Note_on_c, 0, 72, 64
2, 30143, Note_on_c, 0, 72, 0
2, 30144, Note_on_c, 0, 72, 64
2, 30167, Note_on_c, 0, 72, 0
2, 30168, Note_on_c, 0, 71, 64
2, 30191, Note_on_c, 0, 71, 0
2, 30192, Note_on_c, 0, 79, 64
2, 30215, Note_on_c, 0, 79, 0
2, 30216, Note_on_c, 0, 71, 64
2, 30239, Note_on_c, 0, 71, 0
2, 30240, Note_on_c, 0, 71, 64
2, 30263, Note_on_c, 0, 71, 0
2, 30264, Note_on_c, 0, 69, 64
2, 30287, Note_on_c, 0, 69, 0
2, 30288, Note_on_c, 0, 76, 64
2, 30311, Note_on_c, 0, 76, 0
2, 30312, Note_on_c, 0, 67, 64
2, 30335, Note_on_c, 0, 67, 0
2, 30336, Note_on_c, 0, 67, 64
2, 30384, Note_on_c, 0, 67, 0
2, 30384, Note_on_c, 0, 66, 64
2, 30429, Note_on_c, 0, 66, 0
2, 30528, Note_on_c, 0, 78, 64
2, 30551, Note_on_c, 0, 78, 0
2, 30552, Note_on_c, 0, 79, 64
2, 30575, Note_on_c, 0, 79, 0
2, 30576, Note_on_c, 0, 80, 64
2, 30599, Note_on_c, 0, 80, 0
2, 30600, Note_on_c, 0, 81, 64
2, 30623, Note_on_c, 0, 81, 0
2, 30624, Note_on_c, 0, 72, 64
2, 30669, Note_on_c, 0, 72, 0
2, 30672, Note_on_c, 0, 72, 64
2, 30717, Note_on_c, 0, 72, 0
2, 30720, Note_on_c, 0, 81, 64
2, 30743, Note_on_c, 0, 81, 0
2, 30744, Note_on_c, 0, 82, 64
2, 30767, Note_on_c, 0, 82, 0
2, 30768, Note_on_c, 0, 83, 64
2, 30791, Note_on_c, 0, 83, 0
2, 30792, Note_on_c, 0, 84, 64
2, 30815, Note_on_c, 0, 84, 0
2, 30816, Note_on_c, 0, 85, 64
2, 30839, Note_on_c, 0, 85, 0
2, 30840, Note_on_c, 0, 86, 64
2, 30863, Note_on_c, 0, 86, 0
2, 30864, Note_on_c, 0, 87, 64
2, 30887, Note_on_c, 0, 87, 0
2, 30888, Note_on_c, 0, 88, 64
2, 30911, Note_on_c, 0, 88, 0
2, 30912, Note_on_c, 0, 86, 64
2, 30946, Note_on_c, 0, 86, 0
2, 30948, Note_on_c, 0, 83, 64
2, 30960, Note_on_c, 0, 83, 0
2, 30960, Note_on_c, 0, 81, 64
2, 30994, Note_on_c, 0, 81, 0
2, 30996, Note_on_c, 0, 84, 64
2, 31008, Note_on_c, 0, 84, 0
2, 31008, Note_on_c, 0, 79, 64
2, 31053, Note_on_c, 0, 79, 0
2, 31056, Note_on_c, 0, 79, 64
2, 31064, Note_on_c, 0, 79, 0
2, 31064, Note_on_c, 0, 78, 64
2, 31072, Note_on_c, 0, 78, 0
2, 31072, Note_on_c, 0, 79, 64
2, 31080, Note_on_c, 0, 79, 0
2, 31080, Note_on_c, 0, 78, 64
2, 31088, Note_on_c, 0, 78, 0
2, 31088, Note_on_c, 0, 76, 64
2, 31096, Note_on_c, 0, 76, 0
2, 31096, Note_on_c, 0, 78, 64
2, 31104, Note_on_c, 0, 78, 0
2, 31104, Note_on_c, 0, 79, 64
2, 31193, Note_on_c, 0, 79, 0
2, 31296, Note_on_c, 0, 78, 64
2, 31311, Note_on_c, 0, 78, 0
2, 31312, Note_on_c, 0, 79, 64
2, 31327, Note_on_c, 0, 79, 0
2, 31328, Note_on_c, 0, 81, 64
2, 31343, Note_on_c, 0, 81, 0
2, 31344, Note_on_c, 0, 78, 64
2, 31359, Note_on_c, 0, 78, 0
2, 31360, Note_on_c, 0, 79, 64
2, 31375, Note_on_c, 0, 79, 0
2, 31376, Note_on_c, 0, 81, 64
2, 31391, Note_on_c, 0, 81, 0
2, 31392, Note_on_c, 0, 72, 64
2, 31437, Note_on_c, 0, 72, 0
2, 31440, Note_on_c, 0, 72, 64
2, 31485, Note_on_c, 0, 72, 0
2, 31488, Note_on_c, 0, 84, 64
2, 31503, Note_on_c, 0, 84, 0
2, 31504, Note_on_c, 0, 86, 64
2, 31519, Note_on_c, 0, 86, 0
2, 31520, Note_on_c, 0, 88, 64
2, 31535, Note_on_c, 0, 88, 0
2, 31536, Note_on_c, 0, 81, 64
2, 31551, Note_on_c, 0, 81, 0
2, 31552, Note_on_c, 0, 83, 64
2, 31567, Note_on_c, 0, 83, 0
2, 31568, Note_on_c, 0, 84, 64
2, 31583, Note_on_c, 0, 84, 0
2, 31584, Note_on_c, 0, 78, 64
2, 31599, Note_on_c, 0, 78, 0
2, 31600, Note_on_c, 0, 79, 64
2, 31615, Note_on_c, 0, 79, 0
2, 31616, Note_on_c, 0, 81, 64
2, 31631, Note_on_c, 0, 81, 0
2, 31632, Note_on_c, 0, 72, 64
2, 31647, Note_on_c, 0, 72, 0
2, 31648, Note_on_c, 0, 74, 64
2, 31663, Note_on_c, 0, 74, 0
2, 31664, Note_on_c, 0, 76, 64
2, 31679, Note_on_c, 0, 76, 0
2, 31968, Note_on_c, 0, 71, 64
2, 32035, Note_on_c, 0, 71, 0
2, 32040, Note_on_c, 0, 72, 64
2, 32052, Note_on_c, 0, 72, 0
2, 32052, Note_on_c, 0, 74, 64
2, 32064, Note_on_c, 0, 74, 0
2, 32064, Note_on_c, 0, 67, 64
2, 32109, Note_on_c, 0, 67, 0
2, 32112, Note_on_c, 0, 67, 64
2, 32157, Note_on_c, 0, 67, 0
2, 32160, Note_on_c, 0, 69, 64
2, 32166, Note_on_c, 0, 69, 0
2, 32166, Note_on_c, 0, 71, 64
2, 32172, Note_on_c, 0, 71, 0
2, 32172, Note_on_c, 0, 69, 64
2, 32194, Note_on_c, 0, 69, 0
2, 32196, Note_on_c, 0, 67, 64
2, 32208, Note_on_c, 0, 67, 0
2, 32208, Note_on_c, 0, 69, 64
2, 32242, Note_on_c, 0, 69, 0
2, 32244, Note_on_c, 0, 71, 64
2, 32256, Note_on_c, 0, 71, 0
2, 32256, Note_on_c, 0, 67, 64
2, 32301, Note_on_c, 0, 67, 0
2, 32328, Note_on_c, 0, 86, 64
2, 32351, Note_on_c, 0, 86, 0
2, 32352, Note_on_c, 0, 85, 64
2, 32367, Note_on_c, 0, 85, 0
2, 32368, Note_on_c, 0, 84, 64
2, 32383, Note_on_c, 0, 84, 0
2, 32384, Note_on_c, 0, 83, 64
2, 32399, Note_on_c, 0, 83, 0
2, 32400, Note_on_c, 0, 82, 64
2, 32415, Note_on_c, 0, 82, 0
2, 32416, Note_on_c, 0, 81, 64
2, 32431, Note_on_c, 0, 81, 0
2, 32432, Note_on_c, 0, 80, 64
2, 32447, Note_on_c, 0, 80, 0
2, 32448, Note_on_c, 0, 79, 64
2, 32493, Note_on_c, 0, 79, 0
2, 32496, Note_on_c, 0, 79, 64
2, 32541, Note_on_c, 0, 79, 0
2, 32544, Note_on_c, 0, 81, 64
2, 32550, Note_on_c, 0, 81, 0
2, 32550, Note_on_c, 0, 83, 64
2, 32556, Note_on_c, 0, 83, 0
2, 32556, Note_on_c, 0, 81, 64
2, 32578, Note_on_c, 0, 81, 0
2, 32580, Note_on_c, 0, 79, 64
2, 32592, Note_on_c, 0, 79, 0
2, 32592, Note_on_c, 0, 81, 64
2, 32626, Note_on_c, 0, 81, 0
2, 32628, Note_on_c, 0, 83, 64
2, 32640, Note_on_c, 0, 83, 0
2, 32640, Note_on_c, 0, 79, 64
2, 32685, Note_on_c, 0, 79, 0
2, 32736, Note_on_c, 0, 72, 64
2, 32742, Note_on_c, 0, 72, 0
2, 32742, Note_on_c, 0, 74, 64
2, 32748, Note_on_c, 0, 74, 0
2, 32748, Note_on_c, 0, 72, 64
2, 32770, Note_on_c, 0, 72, 0
2, 32772, Note_on_c, 0, 71, 64
2, 32784, Note_on_c, 0, 71, 0
2, 32784, Note_on_c, 0, 72, 64
2, 32818, Note_on_c, 0, 72, 0
2, 32820, Note_on_c, 0, 74, 64
2, 32832, Note_on_c, 0, 74, 0
2, 32832, Note_on_c, 0, 71, 64
2, 32877, Note_on_c, 0, 71, 0
2, 32928, Note_on_c, 0, 69, 64
2, 32934, Note_on_c, 0, 69, 0
2, 32934, Note_on_c, 0, 71, 64
2, 32940, Note_on_c, 0, 71, 0
2, 32940, Note_on_c, 0, 69, 64
2, 32962, Note_on_c, 0, 69, 0
2, 32964, Note_on_c, 0, 67, 64
2, 32976, Note_on_c, 0, 67, 0
2, 32976, Note_on_c, 0, 69, 64
2, 33010, Note_on_c, 0, 69, 0
2, 33012, Note_on_c, 0, 71, 64
2, 33024, Note_on_c, 0, 71, 0
2, 33024, Note_on_c, 0, 67, 64
2, 33069, Note_on_c, 0, 67, 0
2, 33120, Note_on_c, 0, 78, 64
2, 33120, Note_on_c, 0, 74, 64
2, 33120, Note_on_c, 0, 72, 64
2, 33120, Note_on_c, 0, 69, 64
2, 33165, Note_on_c, 0, 78, 0
2, 33165, Note_on_c, 0, 74, 0
2, 33165, Note_on_c, 0, 72, 0
2, 33165, Note_on_c, 0, 69, 0
2, 33216, Note_on_c, 0, 79, 64
2, 33216, Note_on_c, 0, 74, 64
2, 33216, Note_on_c, 0, 71, 64
2, 33283, Note_on_c, 0, 79, 0
2, 33283, Note_on_c, 0, 74, 0
2, 33283, Note_on_c, 0, 71, 0
2, 33408, End_track
3, 0, Start_track
3, 0, Program_c, 0, 0
3, 0, Control_c, 0, 7, 127
3, 0, Control_c, 0, 10, 64
3, 33408, End_track
4, 0, Start_track
4, 0, Program_c, 1, 0
4, 0, Control_c, 1, 7, 127
4, 0, Control_c, 1, 10, 64
4, 192, Note_on_c, 1, 59, 64
4, 192, Note_on_c, 1, 55, 64
4, 237, Note_on_c, 1, 59, 0
4, 237, Note_on_c, 1, 55, 0
4, 240, Note_on_c, 1, 59, 64
4, 240, Note_on_c, 1, 55, 64
4, 285, Note_on_c, 1, 59, 0
4, 285, Note_on_c, 1, 55, 0
4, 288, Note_on_c, 1, 60, 64
4, 288, Note_on_c, 1, 50, 64
4, 333, Note_on_c, 1, 60, 0
4, 333, Note_on_c, 1, 50, 0
4, 336, Note_on_c, 1, 60, 64
4, 336, Note_on_c, 1, 50, 64
4, 381, Note_on_c, 1, 60, 0
4, 381, Note_on_c, 1, 50, 0
4, 384, Note_on_c, 1, 59, 64
4, 384, Note_on_c, 1, 55, 64
4, 429, Note_on_c, 1, 59, 0
4, 429, Note_on_c, 1, 55, 0
4, 480, Note_on_c, 1, 72, 64
4, 525, Note_on_c, 1, 72, 0
4, 528, Note_on_c, 1, 71, 64
4, 573, Note_on_c, 1, 71, 0
4, 576, Note_on_c, 1, 69, 64
4, 621, Note_on_c, 1, 69, 0
4, 624, Note_on_c, 1, 67, 64
4, 669, Note_on_c, 1, 67, 0
4, 672, Note_on_c, 1, 64, 64
4, 761, Note_on_c, 1, 64, 0
4, 768, Note_on_c, 1, 62, 64
4, 813, Note_on_c, 1, 62, 0
4, 816, Note_on_c, 1, 50, 64
4, 861, Note_on_c, 1, 50, 0
4, 864, Note_on_c, 1, 66, 64
4, 864, Note_on_c, 1, 62, 64
4, 909, Note_on_c, 1, 66, 0
4, 909, Note_on_c, 1, 62, 0
4, 912, Note_on_c, 1, 66, 64
4, 912, Note_on_c, 1, 62, 64
4, 957, Note_on_c, 1, 66, 0
4, 957, Note_on_c, 1, 62, 0
4, 960, Note_on_c, 1, 67, 64
4, 960, Note_on_c, 1, 62, 64
4, 1005, Note_on_c, 1, 67, 0
4, 1005, Note_on_c, 1, 62, 0
4, 1008, Note_on_c, 1, 67, 64
4, 1008, Note_on_c, 1, 62, 64
4, 1053, Note_on_c, 1, 67, 0
4, 1053, Note_on_c, 1, 62, 0
4, 1056, Note_on_c, 1, 64, 64
4, 1056, Note_on_c, 1, 62, 64
4, 1101, Note_on_c, 1, 64, 0
4, 1101, Note_on_c, 1, 62, 0
4, 1104, Note_on_c, 1, 64, 64
4, 1104, Note_on_c, 1, 62, 64
4, 1149, Note_on_c, 1, 64, 0
4, 1149, Note_on_c, 1, 62, 0
4, 1152, Note_on_c, 1, 66, 64
4, 1152, Note_on_c, 1, 62, 64
4, 1197, Note_on_c, 1, 66, 0
4, 1197, Note_on_c, 1, 62, 0
4, 1200, Note_on_c, 1, 66, 64
4, 1200, Note_on_c, 1, 62, 64
4, 1245, Note_on_c, 1, 66, 0
4, 1245, Note_on_c, 1, 62, 0
4, 1248, Note_on_c, 1, 62, 64
4, 1248, Note_on_c, 1, 55, 64
4, 1293, Note_on_c, 1, 62, 0
4, 1293, Note_on_c, 1, 55, 0
4, 1296, Note_on_c, 1, 62, 64
4, 1296, Note_on_c, 1, 55, 64
4, 1341, Note_on_c, 1, 62, 0
4, 1341, Note_on_c, 1, 55, 0
4, 1344, Note_on_c, 1, 62, 64
4, 1389, Note_on_c, 1, 62, 0
4, 1392, Note_on_c, 1, 62, 64
4, 1437, Note_on_c, 1, 62, 0
4, 1440, Note_on_c, 1, 62, 64
4, 1485, Note_on_c, 1, 62, 0
4, 1488, Note_on_c, 1, 61, 64
4, 1533, Note_on_c, 1, 61, 0
4, 1536, Note_on_c, 1, 62, 64
4, 1581, Note_on_c, 1, 62, 0
4, 1584, Note_on_c, 1, 50, 64
4, 1629, Note_on_c, 1, 50, 0
4, 1728, Note_on_c, 1, 59, 64
4, 1728, Note_on_c, 1, 55, 64
4, 1773, Note_on_c, 1, 59, 0
4, 1773, Note_on_c, 1, 55, 0
4, 1776, Note_on_c, 1, 59, 64
4, 1776, Note_on_c, 1, 55, 64
4, 1821, Note_on_c, 1, 59, 0
4, 1821, Note_on_c, 1, 55, 0
4, 1824, Note_on_c, 1, 60, 64
4, 1824, Note_on_c, 1, 50, 64
4, 1869, Note_on_c, 1, 60, 0
4, 1869, Note_on_c, 1, 50, 0
4, 1872, Note_on_c, 1, 60, 64
4, 1872, Note_on_c, 1, 50, 64
4, 1917, Note_on_c, 1, 60, 0
4, 1917, Note_on_c, 1, 50, 0
4, 1920, Note_on_c, 1, 59, 64
4, 1920, Note_on_c, 1, 55, 64
4, 1965, Note_on_c, 1, 59, 0
4, 1965, Note_on_c, 1, 55, 0
4, 2016, Note_on_c, 1, 72, 64
4, 2061, Note_on_c, 1, 72, 0
4, 2064, Note_on_c, 1, 71, 64
4, 2109, Note_on_c, 1, 71, 0
4, 2112, Note_on_c, 1, 69, 64
4, 2157, Note_on_c, 1, 69, 0
4, 2160, Note_on_c, 1, 67, 64
4, 2205, Note_on_c, 1, 67, 0
4, 2208, Note_on_c, 1, 64, 64
4, 2297, Note_on_c, 1, 64, 0
4, 2304, Note_on_c, 1, 62, 64
4, 2349, Note_on_c, 1, 62, 0
4, 2352, Note_on_c, 1, 50, 64
4, 2397, Note_on_c, 1, 50, 0
4, 2400, Note_on_c, 1, 66, 64
4, 2400, Note_on_c, 1, 62, 64
4, 2445, Note_on_c, 1, 66, 0
4, 2445, Note_on_c, 1, 62, 0
4, 2448, Note_on_c, 1, 66, 64
4, 2448, Note_on_c, 1, 62, 64
4, 2493, Note_on_c, 1, 66, 0
4, 2493, Note_on_c, 1, 62, 0
4, 2496, Note_on_c, 1, 67, 64
4, 2496, Note_on_c, 1, 62, 64
4, 2541, Note_on_c, 1, 67, 0
4, 2541, Note_on_c, 1, 62, 0
4, 2544, Note_on_c, 1, 67, 64
4, 2544, Note_on_c, 1, 62, 64
4, 2589, Note_on_c, 1, 67, 0
4, 2589, Note_on_c, 1, 62, 0
4, 2592, Note_on_c, 1, 64, 64
4, 2592, Note_on_c, 1, 62, 64
4, 2637, Note_on_c, 1, 64, 0
4, 2637, Note_on_c, 1, 62, 0
4, 2640, Note_on_c, 1, 64, 64
4, 2640, Note_on_c, 1, 62, 64
4, 2685, Note_on_c, 1, 64, 0
4, 2685, Note_on_c, 1, 62, 0
4, 2688, Note_on_c, 1, 66, 64
4, 2688, Note_on_c, 1, 62, 64
4, 2733, Note_on_c, 1, 66, 0
4, 2733, Note_on_c, 1, 62, 0
4, 2736, Note_on_c, 1, 66, 64
4, 2736, Note_on_c, 1, 62, 64
4, 2781, Note_on_c, 1, 66, 0
4, 2781, Note_on_c, 1, 62, 0
4, 2784, Note_on_c, 1, 62, 64
4, 2784, Note_on_c, 1, 55, 64
4, 2829, Note_on_c, 1, 62, 0
4, 2829, Note_on_c, 1, 55, 0
4, 2832, Note_on_c, 1, 62, 64
4, 2832, Note_on_c, 1, 55, 64
4, 2877, Note_on_c, 1, 62, 0
4, 2877, Note_on_c, 1, 55, 0
4, 2880, Note_on_c, 1, 62, 64
4, 2925, Note_on_c, 1, 62, 0
4, 2928, Note_on_c, 1, 62, 64
4, 2973, Note_on_c, 1, 62, 0
4, 2976, Note_on_c, 1, 62, 64
4, 3021, Note_on_c, 1, 62, 0
4, 3024, Note_on_c, 1, 61, 64
4, 3069, Note_on_c, 1, 61, 0
4, 3072, Note_on_c, 1, 62, 64
4, 3117, Note_on_c, 1, 62, 0
4, 3120, Note_on_c, 1, 50, 64
4, 3165, Note_on_c, 1, 50, 0
4, 3264, Note_on_c, 1, 62, 64
4, 3264, Note_on_c, 1, 52, 64
4, 3309, Note_on_c, 1, 62, 0
4, 3309, Note_on_c, 1, 52, 0
4, 3312, Note_on_c, 1, 62, 64
4, 3312, Note_on_c, 1, 52, 64
4, 3357, Note_on_c, 1, 62, 0
4, 3357, Note_on_c, 1, 52, 0
4, 3360, Note_on_c, 1, 60, 64
4, 3360, Note_on_c, 1, 52, 64
4, 3405, Note_on_c, 1, 60, 0
4, 3405, Note_on_c, 1, 52, 0
4, 3408, Note_on_c, 1, 59, 64
4, 3408, Note_on_c, 1, 52, 64
4, 3453, Note_on_c, 1, 59, 0
4, 3453, Note_on_c, 1, 52, 0
4, 3456, Note_on_c, 1, 57, 64
4, 3501, Note_on_c, 1, 57, 0
4, 3504, Note_on_c, 1, 45, 64
4, 3549, Note_on_c, 1, 45, 0
4, 3552, Note_on_c, 1, 57, 64
4, 3597, Note_on_c, 1, 57, 0
4, 3600, Note_on_c, 1, 54, 64
4, 3645, Note_on_c, 1, 54, 0
4, 3648, Note_on_c, 1, 55, 64
4, 3693, Note_on_c, 1, 55, 0
4, 3696, Note_on_c, 1, 47, 64
4, 3741, Note_on_c, 1, 47, 0
4, 3744, Note_on_c, 1, 48, 64
4, 3789, Note_on_c, 1, 48, 0
4, 3792, Note_on_c, 1, 49, 64
4, 3837, Note_on_c, 1, 49, 0
4, 3840, Note_on_c, 1, 50, 64
4, 3885, Note_on_c, 1, 50, 0
4, 3888, Note_on_c, 1, 38, 64
4, 3933, Note_on_c, 1, 38, 0
4, 3936, Note_on_c, 1, 57, 64
4, 4003, Note_on_c, 1, 57, 0
4, 4008, Note_on_c, 1, 59, 64
4, 4020, Note_on_c, 1, 59, 0
4, 4020, Note_on_c, 1, 60, 64
4, 4032, Note_on_c, 1, 60, 0
4, 4032, Note_on_c, 1, 50, 64
4, 4077, Note_on_c, 1, 50, 0
4, 4080, Note_on_c, 1, 50, 64
4, 4125, Note_on_c, 1, 50, 0
4, 4128, Note_on_c, 1, 66, 64
4, 4195, Note_on_c, 1, 66, 0
4, 4200, Note_on_c, 1, 67, 64
4, 4212, Note_on_c, 1, 67, 0
4, 4212, Note_on_c, 1, 69, 64
4, 4224, Note_on_c, 1, 69, 0
4, 4224, Note_on_c, 1, 60, 64
4, 4401, Note_on_c, 1, 60, 0
4, 4416, Note_on_c, 1, 59, 64
4, 4461, Note_on_c, 1, 59, 0
4, 4464, Note_on_c, 1, 60, 64
4, 4509, Note_on_c, 1, 60, 0
4, 4512, Note_on_c, 1, 62, 64
4, 4557, Note_on_c, 1, 62, 0
4, 4560, Note_on_c, 1, 50, 64
4, 4605, Note_on_c, 1, 50, 0
4, 4608, Note_on_c, 1, 55, 64
4, 4653, Note_on_c, 1, 55, 0
4, 4656, Note_on_c, 1, 43, 64
4, 4701, Note_on_c, 1, 43, 0
4, 4800, Note_on_c, 1, 62, 64
4, 4800, Note_on_c, 1, 52, 64
4, 4845, Note_on_c, 1, 62, 0
4, 4845, Note_on_c, 1, 52, 0
4, 4848, Note_on_c, 1, 62, 64
4, 4848, Note_on_c, 1, 52, 64
4, 4893, Note_on_c, 1, 62, 0
4, 4893, Note_on_c, 1, 52, 0
4, 4896, Note_on_c, 1, 60, 64
4, 4896, Note_on_c, 1, 52, 64
4, 4941, Note_on_c, 1, 60, 0
4, 4941, Note_on_c, 1, 52, 0
4, 4944, Note_on_c, 1, 59, 64
4, 4944, Note_on_c, 1, 52, 64
4, 4989, Note_on_c, 1, 59, 0
4, 4989, Note_on_c, 1, 52, 0
4, 4992, Note_on_c, 1, 57, 64
4, 5037, Note_on_c, 1, 57, 0
4, 5040, Note_on_c, 1, 45, 64
4, 5085, Note_on_c, 1, 45, 0
4, 5088, Note_on_c, 1, 57, 64
4, 5133, Note_on_c, 1, 57, 0
4, 5136, Note_on_c, 1, 54, 64
4, 5181, Note_on_c, 1, 54, 0
4, 5184, Note_on_c, 1, 55, 64
4, 5229, Note_on_c, 1, 55, 0
4, 5232, Note_on_c, 1, 47, 64
4, 5277, Note_on_c, 1, 47, 0
4, 5280, Note_on_c, 1, 48, 64
4, 5325, Note_on_c, 1, 48, 0
4, 5328, Note_on_c, 1, 49, 64
4, 5373, Note_on_c, 1, 49, 0
4, 5376, Note_on_c, 1, 50, 64
4, 5421, Note_on_c, 1, 50, 0
4, 5424, Note_on_c, 1, 38, 64
4, 5469, Note_on_c, 1, 38, 0
4, 5472, Note_on_c, 1, 57, 64
4, 5539, Note_on_c, 1, 57, 0
4, 5544, Note_on_c, 1, 59, 64
4, 5556, Note_on_c, 1, 59, 0
4, 5556, Note_on_c, 1, 60, 64
4, 5568, Note_on_c, 1, 60, 0
4, 5568, Note_on_c, 1, 50, 64
4, 5613, Note_on_c, 1, 50, 0
4, 5616, Note_on_c, 1, 50, 64
4, 5661, Note_on_c, 1, 50, 0
4, 5664, Note_on_c, 1, 66, 64
4, 5731, Note_on_c, 1, 66, 0
4, 5736, Note_on_c, 1, 67, 64
4, 5748, Note_on_c, 1, 67, 0
4, 5748, Note_on_c, 1, 69, 64
4, 5760, Note_on_c, 1, 69, 0
4, 5760, Note_on_c, 1, 60, 64
4, 5937, Note_on_c, 1, 60, 0
4, 5952, Note_on_c, 1, 59, 64
4, 5997, Note_on_c, 1, 59, 0
4, 6000, Note_on_c, 1, 60, 64
4, 6045, Note_on_c, 1, 60, 0
4, 6048, Note_on_c, 1, 62, 64
4, 6093, Note_on_c, 1, 62, 0
4, 6096, Note_on_c, 1, 50, 64
4, 6141, Note_on_c, 1, 50, 0
4, 6144, Note_on_c, 1, 55, 64
4, 6189, Note_on_c, 1, 55, 0
4, 6192, Note_on_c, 1, 43, 64
4, 6237, Note_on_c, 1, 43, 0
4, 6336, Note_on_c, 1, 55, 64
4, 6425, Note_on_c, 1, 55, 0
4, 6432, Note_on_c, 1, 50, 64
4, 6521, Note_on_c, 1, 50, 0
4, 6528, Note_on_c, 1, 51, 64
4, 6617, Note_on_c, 1, 51, 0
4, 6672, Note_on_c, 1, 46, 64
4, 6717, Note_on_c, 1, 46, 0
4, 6720, Note_on_c, 1, 48, 64
4, 6853, Note_on_c, 1, 48, 0
4, 6864, Note_on_c, 1, 49, 64
4, 6909, Note_on_c, 1, 49, 0
4, 6912, Note_on_c, 1, 50, 64
4, 6957, Note_on_c, 1, 50, 0
4, 6960, Note_on_c, 1, 38, 64
4, 7005, Note_on_c, 1, 38, 0
4, 7104, Note_on_c, 1, 70, 64
4, 7104, Note_on_c, 1, 67, 64
4, 7193, Note_on_c, 1, 70, 0
4, 7193, Note_on_c, 1, 67, 0
4, 7200, Note_on_c, 1, 69, 64
4, 7200, Note_on_c, 1, 65, 64
4, 7289, Note_on_c, 1, 69, 0
4, 7289, Note_on_c, 1, 65, 0
4, 7296, Note_on_c, 1, 67, 64
4, 7296, Note_on_c, 1, 63, 64
4, 7385, Note_on_c, 1, 67, 0
4, 7385, Note_on_c, 1, 63, 0
4, 7392, Note_on_c, 1, 65, 64
4, 7392, Note_on_c, 1, 62, 64
4, 7481, Note_on_c, 1, 65, 0
4, 7481, Note_on_c, 1, 62, 0
4, 7488, Note_on_c, 1, 63, 64
4, 7577, Note_on_c, 1, 63, 0
4, 7584, Note_on_c, 1, 62, 64
4, 7629, Note_on_c, 1, 62, 0
4, 7632, Note_on_c, 1, 60, 64
4, 7677, Note_on_c, 1, 60, 0
4, 7680, Note_on_c, 1, 58, 64
4, 7725, Note_on_c, 1, 58, 0
4, 7728, Note_on_c, 1, 46, 64
4, 7773, Note_on_c, 1, 46, 0
4, 7872, Note_on_c, 1, 55, 64
4, 7961, Note_on_c, 1, 55, 0
4, 7968, Note_on_c, 1, 50, 64
4, 8057, Note_on_c, 1, 50, 0
4, 8064, Note_on_c, 1, 51, 64
4, 8153, Note_on_c, 1, 51, 0
4, 8208, Note_on_c, 1, 46, 64
4, 8253, Note_on_c, 1, 46, 0
4, 8256, Note_on_c, 1, 48, 64
4, 8389, Note_on_c, 1, 48, 0
4, 8400, Note_on_c, 1, 49, 64
4, 8445, Note_on_c, 1, 49, 0
4, 8448, Note_on_c, 1, 50, 64
4, 8493, Note_on_c, 1, 50, 0
4, 8496, Note_on_c, 1, 38, 64
4, 8541, Note_on_c, 1, 38, 0
4, 8640, Note_on_c, 1, 70, 64
4, 8640, Note_on_c, 1, 67, 64
4, 8729, Note_on_c, 1, 70, 0
4, 8729, Note_on_c, 1, 67, 0
4, 8736, Note_on_c, 1, 69, 64
4, 8736, Note_on_c, 1, 65, 64
4, 8825, Note_on_c, 1, 69, 0
4, 8825, Note_on_c, 1, 65, 0
4, 8832, Note_on_c, 1, 67, 64
4, 8832, Note_on_c, 1, 63, 64
4, 8921, Note_on_c, 1, 67, 0
4, 8921, Note_on_c, 1, 63, 0
4, 8928, Note_on_c, 1, 65, 64
4, 8928, Note_on_c, 1, 62, 64
4, 9017, Note_on_c, 1, 65, 0
4, 9017, Note_on_c, 1, 62, 0
4, 9024, Note_on_c, 1, 63, 64
4, 9113, Note_on_c, 1, 63, 0
4, 9120, Note_on_c, 1, 62, 64
4, 9165, Note_on_c, 1, 62, 0
4, 9168, Note_on_c, 1, 60, 64
4, 9213, Note_on_c, 1, 60, 0
4, 9216, Note_on_c, 1, 58, 64
4, 9261, Note_on_c, 1, 58, 0
4, 9264, Note_on_c, 1, 46, 64
4, 9309, Note_on_c, 1, 46, 0
4, 9504, Note_on_c, 1, 65, 64
4, 9549, Note_on_c, 1, 65, 0
4, 9552, Note_on_c, 1, 63, 64
4, 9597, Note_on_c, 1, 63, 0
4, 9600, Note_on_c, 1, 59, 64
4, 9645, Note_on_c, 1, 59, 0
4, 9648, Note_on_c, 1, 60, 64
4, 9693, Note_on_c, 1, 60, 0
4, 9888, Note_on_c, 1, 67, 64
4, 9933, Note_on_c, 1, 67, 0
4, 9936, Note_on_c, 1, 65, 64
4, 9981, Note_on_c, 1, 65, 0
4, 9984, Note_on_c, 1, 61, 64
4, 10029, Note_on_c, 1, 61, 0
4, 10032, Note_on_c, 1, 62, 64
4, 10077, Note_on_c, 1, 62, 0
4, 10128, Note_on_c, 1, 72, 64
4, 10173, Note_on_c, 1, 72, 0
4, 10176, Note_on_c, 1, 70, 64
4, 10221, Note_on_c, 1, 70, 0
4, 10224, Note_on_c, 1, 67, 64
4, 10269, Note_on_c, 1, 67, 0
4, 10272, Note_on_c, 1, 66, 64
4, 10317, Note_on_c, 1, 66, 0
4, 10320, Note_on_c, 1, 67, 64
4, 10365, Note_on_c, 1, 67, 0
4, 10368, Note_on_c, 1, 66, 64
4, 10413, Note_on_c, 1, 66, 0
4, 10464, Note_on_c, 1, 62, 64
4, 10464, Note_on_c, 1, 54, 64
4, 10509, Note_on_c, 1, 62, 0
4, 10509, Note_on_c, 1, 54, 0
4, 10512, Note_on_c, 1, 62, 64
4, 10512, Note_on_c, 1, 55, 64
4, 10557, Note_on_c, 1, 62, 0
4, 10557, Note_on_c, 1, 55, 0
4, 10560, Note_on_c, 1, 62, 64
4, 10560, Note_on_c, 1, 50, 64
4, 10605, Note_on_c, 1, 62, 0
4, 10605, Note_on_c, 1, 50, 0
4, 10944, Note_on_c, 1, 59, 64
4, 10944, Note_on_c, 1, 55, 64
4, 10989, Note_on_c, 1, 59, 0
4, 10989, Note_on_c, 1, 55, 0
4, 10992, Note_on_c, 1, 59, 64
4, 10992, Note_on_c, 1, 55, 64
4, 11037, Note_on_c, 1, 59, 0
4, 11037, Note_on_c, 1, 55, 0
4, 11040, Note_on_c, 1, 60, 64
4, 11040, Note_on_c, 1, 50, 64
4, 11085, Note_on_c, 1, 60, 0
4, 11085, Note_on_c, 1, 50, 0
4, 11088, Note_on_c, 1, 60, 64
4, 11088, Note_on_c, 1, 50, 64
4, 11133, Note_on_c, 1, 60, 0
4, 11133, Note_on_c, 1, 50, 0
4, 11136, Note_on_c, 1, 59, 64
4, 11136, Note_on_c, 1, 55, 64
4, 11181, Note_on_c, 1, 59, 0
4, 11181, Note_on_c, 1, 55, 0
4, 11232, Note_on_c, 1, 72, 64
4, 11277, Note_on_c, 1, 72, 0
4, 11280, Note_on_c, 1, 71, 64
4, 11325, Note_on_c, 1, 71, 0
4, 11328, Note_on_c, 1, 69, 64
4, 11373, Note_on_c, 1, 69, 0
4, 11376, Note_on_c, 1, 67, 64
4, 11421, Note_on_c, 1, 67, 0
4, 11424, Note_on_c, 1, 64, 64
4, 11513, Note_on_c, 1, 64, 0
4, 11520, Note_on_c, 1, 74, 64
4, 11520, Note_on_c, 1, 62, 64
4, 11565, Note_on_c, 1, 74, 0
4, 11565, Note_on_c, 1, 62, 0
4, 11568, Note_on_c, 1, 50, 64
4, 11613, Note_on_c, 1, 50, 0
4, 11712, Note_on_c, 1, 59, 64
4, 11712, Note_on_c, 1, 55, 64
4, 11757, Note_on_c, 1, 59, 0
4, 11757, Note_on_c, 1, 55, 0
4, 11760, Note_on_c, 1, 59, 64
4, 11760, Note_on_c, 1, 55, 64
4, 11805, Note_on_c, 1, 59, 0
4, 11805, Note_on_c, 1, 55, 0
4, 11808, Note_on_c, 1, 60, 64
4, 11808, Note_on_c, 1, 50, 64
4, 11853, Note_on_c, 1, 60, 0
4, 11853, Note_on_c, 1, 50, 0
4, 11856, Note_on_c, 1, 60, 64
4, 11856, Note_on_c, 1, 50, 64
4, 11901, Note_on_c, 1, 60, 0
4, 11901, Note_on_c, 1, 50, 0
4, 11904, Note_on_c, 1, 59, 64
4, 11904, Note_on_c, 1, 55, 64
4, 11949, Note_on_c, 1, 59, 0
4, 11949, Note_on_c, 1, 55, 0
4, 12000, Note_on_c, 1, 60, 64
4, 12020, Note_on_c, 1, 60, 0
4, 12048, Note_on_c, 1, 59, 64
4, 12068, Note_on_c, 1, 59, 0
4, 12096, Note_on_c, 1, 57, 64
4, 12116, Note_on_c, 1, 57, 0
4, 12144, Note_on_c, 1, 55, 64
4, 12164, Note_on_c, 1, 55, 0
4, 12192, Note_on_c, 1, 60, 64
4, 12212, Note_on_c, 1, 60, 0
4, 12240, Note_on_c, 1, 61, 64
4, 12260, Note_on_c, 1, 61, 0
4, 12288, Note_on_c, 1, 62, 64
4, 12333, Note_on_c, 1, 62, 0
4, 12336, Note_on_c, 1, 50, 64
4, 12381, Note_on_c, 1, 50, 0
4, 12384, Note_on_c, 1, 66, 64
4, 12384, Note_on_c, 1, 62, 64
4, 12429, Note_on_c, 1, 66, 0
4, 12429, Note_on_c, 1, 62, 0
4, 12432, Note_on_c, 1, 66, 64
4, 12432, Note_on_c, 1, 62, 64
4, 12477, Note_on_c, 1, 66, 0
4, 12477, Note_on_c, 1, 62, 0
4, 12480, Note_on_c, 1, 67, 64
4, 12480, Note_on_c, 1, 62, 64
4, 12525, Note_on_c, 1, 67, 0
4, 12525, Note_on_c, 1, 62, 0
4, 12528, Note_on_c, 1, 67, 64
4, 12528, Note_on_c, 1, 62, 64
4, 12573, Note_on_c, 1, 67, 0
4, 12573, Note_on_c, 1, 62, 0
4, 12576, Note_on_c, 1, 67, 64
4, 12576, Note_on_c, 1, 64, 64
4, 12576, Note_on_c, 1, 62, 64
4, 12621, Note_on_c, 1, 67, 0
4, 12621, Note_on_c, 1, 64, 0
4, 12621, Note_on_c, 1, 62, 0
4, 12624, Note_on_c, 1, 67, 64
4, 12624, Note_on_c, 1, 64, 64
4, 12624, Note_on_c, 1, 62, 64
4, 12669, Note_on_c, 1, 67, 0
4, 12669, Note_on_c, 1, 64, 0
4, 12669, Note_on_c, 1, 62, 0
4, 12672, Note_on_c, 1, 66, 64
4, 12672, Note_on_c, 1, 62, 64
4, 12717, Note_on_c, 1, 66, 0
4, 12717, Note_on_c, 1, 62, 0
4, 12720, Note_on_c, 1, 66, 64
4, 12720, Note_on_c, 1, 62, 64
4, 12765, Note_on_c, 1, 66, 0
4, 12765, Note_on_c, 1, 62, 0
4, 12768, Note_on_c, 1, 62, 64
4, 12768, Note_on_c, 1, 54, 64
4, 12813, Note_on_c, 1, 62, 0
4, 12813, Note_on_c, 1, 54, 0
4, 12816, Note_on_c, 1, 62, 64
4, 12816, Note_on_c, 1, 54, 64
4, 12861, Note_on_c, 1, 62, 0
4, 12861, Note_on_c, 1, 54, 0
4, 12864, Note_on_c, 1, 62, 64
4, 12864, Note_on_c, 1, 55, 64
4, 12909, Note_on_c, 1, 62, 0
4, 12909, Note_on_c, 1, 55, 0
4, 12912, Note_on_c, 1, 62, 64
4, 12912, Note_on_c, 1, 55, 64
4, 12957, Note_on_c, 1, 62, 0
4, 12957, Note_on_c, 1, 55, 0
4, 12960, Note_on_c, 1, 57, 64
4, 13049, Note_on_c, 1, 57, 0
4, 13056, Note_on_c, 1, 62, 64
4, 13101, Note_on_c, 1, 62, 0
4, 13104, Note_on_c, 1, 50, 64
4, 13149, Note_on_c, 1, 50, 0
4, 13248, Note_on_c, 1, 59, 64
4, 13248, Note_on_c, 1, 55, 64
4, 13293, Note_on_c, 1, 59, 0
4, 13293, Note_on_c, 1, 55, 0
4, 13296, Note_on_c, 1, 59, 64
4, 13296, Note_on_c, 1, 55, 64
4, 13341, Note_on_c, 1, 59, 0
4, 13341, Note_on_c, 1, 55, 0
4, 13344, Note_on_c, 1, 60, 64
4, 13344, Note_on_c, 1, 50, 64
4, 13389, Note_on_c, 1, 60, 0
4, 13389, Note_on_c, 1, 50, 0
4, 13392, Note_on_c, 1, 60, 64
4, 13392, Note_on_c, 1, 50, 64
4, 13437, Note_on_c, 1, 60, 0
4, 13437, Note_on_c, 1, 50, 0
4, 13440, Note_on_c, 1, 59, 64
4, 13440, Note_on_c, 1, 55, 64
4, 13485, Note_on_c, 1, 59, 0
4, 13485, Note_on_c, 1, 55, 0
4, 13536, Note_on_c, 1, 60, 64
4, 13556, Note_on_c, 1, 60, 0
4, 13584, Note_on_c, 1, 59, 64
4, 13604, Note_on_c, 1, 59, 0
4, 13632, Note_on_c, 1, 57, 64
4, 13652, Note_on_c, 1, 57, 0
4, 13680, Note_on_c, 1, 55, 64
4, 13700, Note_on_c, 1, 55, 0
4, 13728, Note_on_c, 1, 60, 64
4, 13748, Note_on_c, 1, 60, 0
4, 13776, Note_on_c, 1, 61, 64
4, 13796, Note_on_c, 1, 61, 0
4, 13824, Note_on_c, 1, 62, 64
4, 13869, Note_on_c, 1, 62, 0
4, 13872, Note_on_c, 1, 50, 64
4, 13917, Note_on_c, 1, 50, 0
4, 13920, Note_on_c, 1, 66, 64
4, 13920, Note_on_c, 1, 62, 64
4, 13965, Note_on_c, 1, 66, 0
4, 13965, Note_on_c, 1, 62, 0
4, 13968, Note_on_c, 1, 66, 64
4, 13968, Note_on_c, 1, 62, 64
4, 14013, Note_on_c, 1, 66, 0
4, 14013, Note_on_c, 1, 62, 0
4, 14016, Note_on_c, 1, 67, 64
4, 14016, Note_on_c, 1, 62, 64
4, 14061, Note_on_c, 1, 67, 0
4, 14061, Note_on_c, 1, 62, 0
4, 14064, Note_on_c, 1, 67, 64
4, 14064, Note_on_c, 1, 62, 64
4, 14109, Note_on_c, 1, 67, 0
4, 14109, Note_on_c, 1, 62, 0
4, 14112, Note_on_c, 1, 67, 64
4, 14112, Note_on_c, 1, 64, 64
4, 14112, Note_on_c, 1, 62, 64
4, 14157, Note_on_c, 1, 67, 0
4, 14157, Note_on_c, 1, 64, 0
4, 14157, Note_on_c, 1, 62, 0
4, 14160, Note_on_c, 1, 67, 64
4, 14160, Note_on_c, 1, 64, 64
4, 14160, Note_on_c, 1, 62, 64
4, 14205, Note_on_c, 1, 67, 0
4, 14205, Note_on_c, 1, 64, 0
4, 14205, Note_on_c, 1, 62, 0
4, 14208, Note_on_c, 1, 66, 64
4, 14208, Note_on_c, 1, 62, 64
4, 14253, Note_on_c, 1, 66, 0
4, 14253, Note_on_c, 1, 62, 0
4, 14256, Note_on_c, 1, 66, 64
4, 14256, Note_on_c, 1, 62, 64
4, 14301, Note_on_c, 1, 66, 0
4, 14301, Note_on_c, 1, 62, 0
4, 14304, Note_on_c, 1, 62, 64
4, 14304, Note_on_c, 1, 54, 64
4, 14349, Note_on_c, 1, 62, 0
4, 14349, Note_on_c, 1, 54, 0
4, 14352, Note_on_c, 1, 62, 64
4, 14352, Note_on_c, 1, 54, 64
4, 14397, Note_on_c, 1, 62, 0
4, 14397, Note_on_c, 1, 54, 0
4, 14400, Note_on_c, 1, 62, 64
4, 14400, Note_on_c, 1, 55, 64
4, 14445, Note_on_c, 1, 62, 0
4, 14445, Note_on_c, 1, 55, 0
4, 14448, Note_on_c, 1, 62, 64
4, 14448, Note_on_c, 1, 55, 64
4, 14493, Note_on_c, 1, 62, 0
4, 14493, Note_on_c, 1, 55, 0
4, 14496, Note_on_c, 1, 57, 64
4, 14585, Note_on_c, 1, 57, 0
4, 14592, Note_on_c, 1, 62, 64
4, 14637, Note_on_c, 1, 62, 0
4, 14640, Note_on_c, 1, 50, 64
4, 14685, Note_on_c, 1, 50, 0
4, 14784, Note_on_c, 1, 52, 64
4, 14799, Note_on_c, 1, 52, 0
4, 14800, Note_on_c, 1, 59, 64
4, 14815, Note_on_c, 1, 59, 0
4, 14816, Note_on_c, 1, 62, 64
4, 14831, Note_on_c, 1, 62, 0
4, 14880, Note_on_c, 1, 60, 64
4, 14900, Note_on_c, 1, 60, 0
4, 14928, Note_on_c, 1, 59, 64
4, 14948, Note_on_c, 1, 59, 0
4, 14976, Note_on_c, 1, 45, 64
4, 14991, Note_on_c, 1, 45, 0
4, 14992, Note_on_c, 1, 57, 64
4, 15007, Note_on_c, 1, 57, 0
4, 15008, Note_on_c, 1, 60, 64
4, 15023, Note_on_c, 1, 60, 0
4, 15072, Note_on_c, 1, 69, 64
4, 15092, Note_on_c, 1, 69, 0
4, 15120, Note_on_c, 1, 66, 64
4, 15140, Note_on_c, 1, 66, 0
4, 15168, Note_on_c, 1, 67, 64
4, 15188, Note_on_c, 1, 67, 0
4, 15216, Note_on_c, 1, 59, 64
4, 15236, Note_on_c, 1, 59, 0
4, 15264, Note_on_c, 1, 60, 64
4, 15284, Note_on_c, 1, 60, 0
4, 15312, Note_on_c, 1, 61, 64
4, 15332, Note_on_c, 1, 61, 0
4, 15360, Note_on_c, 1, 62, 64
4, 15405, Note_on_c, 1, 62, 0
4, 15408, Note_on_c, 1, 50, 64
4, 15453, Note_on_c, 1, 50, 0
4, 15456, Note_on_c, 1, 57, 64
4, 15471, Note_on_c, 1, 57, 0
4, 15472, Note_on_c, 1, 59, 64
4, 15487, Note_on_c, 1, 59, 0
4, 15488, Note_on_c, 1, 60, 64
4, 15503, Note_on_c, 1, 60, 0
4, 15504, Note_on_c, 1, 57, 64
4, 15519, Note_on_c, 1, 57, 0
4, 15520, Note_on_c, 1, 59, 64
4, 15535, Note_on_c, 1, 59, 0
4, 15536, Note_on_c, 1, 60, 64
4, 15551, Note_on_c, 1, 60, 0
4, 15552, Note_on_c, 1, 50, 64
4, 15597, Note_on_c, 1, 50, 0
4, 15600, Note_on_c, 1, 50, 64
4, 15645, Note_on_c, 1, 50, 0
4, 15648, Note_on_c, 1, 66, 64
4, 15663, Note_on_c, 1, 66, 0
4, 15664, Note_on_c, 1, 67, 64
4, 15679, Note_on_c, 1, 67, 0
4, 15680, Note_on_c, 1, 69, 64
4, 15695, Note_on_c, 1, 69, 0
4, 15696, Note_on_c, 1, 66, 64
4, 15711, Note_on_c, 1, 66, 0
4, 15712, Note_on_c, 1, 67, 64
4, 15727, Note_on_c, 1, 67, 0
4, 15728, Note_on_c, 1, 69, 64
4, 15743, Note_on_c, 1, 69, 0
4, 15744, Note_on_c, 1, 60, 64
4, 15921, Note_on_c, 1, 60, 0
4, 15936, Note_on_c, 1, 59, 64
4, 15981, Note_on_c, 1, 59, 0
4, 15984, Note_on_c, 1, 60, 64
4, 16029, Note_on_c, 1, 60, 0
4, 16032, Note_on_c, 1, 62, 64
4, 16077, Note_on_c, 1, 62, 0
4, 16080, Note_on_c, 1, 50, 64
4, 16125, Note_on_c, 1, 50, 0
4, 16128, Note_on_c, 1, 55, 64
4, 16173, Note_on_c, 1, 55, 0
4, 16176, Note_on_c, 1, 43, 64
4, 16221, Note_on_c, 1, 43, 0
4, 16320, Note_on_c, 1, 52, 64
4, 16335, Note_on_c, 1, 52, 0
4, 16336, Note_on_c, 1, 59, 64
4, 16351, Note_on_c, 1, 59, 0
4, 16352, Note_on_c, 1, 62, 64
4, 16367, Note_on_c, 1, 62, 0
4, 16416, Note_on_c, 1, 60, 64
4, 16436, Note_on_c, 1, 60, 0
4, 16464, Note_on_c, 1, 59, 64
4, 16484, Note_on_c, 1, 59, 0
4, 16512, Note_on_c, 1, 45, 64
4, 16527, Note_on_c, 1, 45, 0
4, 16528, Note_on_c, 1, 57, 64
4, 16543, Note_on_c, 1, 57, 0
4, 16544, Note_on_c, 1, 60, 64
4, 16559, Note_on_c, 1, 60, 0
4, 16608, Note_on_c, 1, 69, 64
4, 16628, Note_on_c, 1, 69, 0
4, 16656, Note_on_c, 1, 66, 64
4, 16676, Note_on_c, 1, 66, 0
4, 16704, Note_on_c, 1, 67, 64
4, 16724, Note_on_c, 1, 67, 0
4, 16752, Note_on_c, 1, 59, 64
4, 16772, Note_on_c, 1, 59, 0
4, 16800, Note_on_c, 1, 60, 64
4, 16820, Note_on_c, 1, 60, 0
4, 16848, Note_on_c, 1, 61, 64
4, 16868, Note_on_c, 1, 61, 0
4, 16896, Note_on_c, 1, 62, 64
4, 16941, Note_on_c, 1, 62, 0
4, 16944, Note_on_c, 1, 50, 64
4, 16989, Note_on_c, 1, 50, 0
4, 16992, Note_on_c, 1, 57, 64
4, 17007, Note_on_c, 1, 57, 0
4, 17008, Note_on_c, 1, 59, 64
4, 17023, Note_on_c, 1, 59, 0
4, 17024, Note_on_c, 1, 60, 64
4, 17039, Note_on_c, 1, 60, 0
4, 17040, Note_on_c, 1, 57, 64
4, 17055, Note_on_c, 1, 57, 0
4, 17056, Note_on_c, 1, 59, 64
4, 17071, Note_on_c, 1, 59, 0
4, 17072, Note_on_c, 1, 60, 64
4, 17087, Note_on_c, 1, 60, 0
4, 17088, Note_on_c, 1, 50, 64
4, 17133, Note_on_c, 1, 50, 0
4, 17136, Note_on_c, 1, 50, 64
4, 17181, Note_on_c, 1, 50, 0
4, 17184, Note_on_c, 1, 66, 64
4, 17199, Note_on_c, 1, 66, 0
4, 17200, Note_on_c, 1, 67, 64
4, 17215, Note_on_c, 1, 67, 0
4, 17216, Note_on_c, 1, 69, 64
4, 17231, Note_on_c, 1, 69, 0
4, 17232, Note_on_c, 1, 66, 64
4, 17247, Note_on_c, 1, 66, 0
4, 17248, Note_on_c, 1, 67, 64
4, 17263, Note_on_c, 1, 67, 0
4, 17264, Note_on_c, 1, 69, 64
4, 17279, Note_on_c, 1, 69, 0
4, 17280, Note_on_c, 1, 60, 64
4, 17457, Note_on_c, 1, 60, 0
4, 17472, Note_on_c, 1, 59, 64
4, 17517, Note_on_c, 1, 59, 0
4, 17520, Note_on_c, 1, 60, 64
4, 17565, Note_on_c, 1, 60, 0
4, 17568, Note_on_c, 1, 62, 64
4, 17613, Note_on_c, 1, 62, 0
4, 17616, Note_on_c, 1, 50, 64
4, 17661, Note_on_c, 1, 50, 0
4, 17664, Note_on_c, 1, 55, 64
4, 17709, Note_on_c, 1, 55, 0
4, 17712, Note_on_c, 1, 43, 64
4, 17757, Note_on_c, 1, 43, 0
4, 17808, Note_on_c, 1, 55, 64
4, 17808, Note_on_c, 1, 52, 64
4, 17853, Note_on_c, 1, 55, 0
4, 17853, Note_on_c, 1, 52, 0
4, 17856, Note_on_c, 1, 57, 64
4, 17856, Note_on_c, 1, 54, 64
4, 17901, Note_on_c, 1, 57, 0
4, 17901, Note_on_c, 1, 54, 0
4, 17904, Note_on_c, 1, 59, 64
4, 17904, Note_on_c, 1, 55, 64
4, 17949, Note_on_c, 1, 59, 0
4, 17949, Note_on_c, 1, 55, 0
4, 17952, Note_on_c, 1, 60, 64
4, 17952, Note_on_c, 1, 57, 64
4, 17997, Note_on_c, 1, 60, 0
4, 17997, Note_on_c, 1, 57, 0
4, 18000, Note_on_c, 1, 63, 64
4, 18000, Note_on_c, 1, 59, 64
4, 18045, Note_on_c, 1, 63, 0
4, 18045, Note_on_c, 1, 59, 0
4, 18048, Note_on_c, 1, 64, 64
4, 18093, Note_on_c, 1, 64, 0
4, 18096, Note_on_c, 1, 52, 64
4, 18141, Note_on_c, 1, 52, 0
4, 18144, Note_on_c, 1, 60, 64
4, 18189, Note_on_c, 1, 60, 0
4, 18192, Note_on_c, 1, 57, 64
4, 18237, Note_on_c, 1, 57, 0
4, 18240, Note_on_c, 1, 55, 64
4, 18285, Note_on_c, 1, 55, 0
4, 18288, Note_on_c, 1, 55, 64
4, 18333, Note_on_c, 1, 55, 0
4, 18336, Note_on_c, 1, 54, 64
4, 18381, Note_on_c, 1, 54, 0
4, 18384, Note_on_c, 1, 52, 64
4, 18429, Note_on_c, 1, 52, 0
4, 18432, Note_on_c, 1, 59, 64
4, 18477, Note_on_c, 1, 59, 0
4, 18480, Note_on_c, 1, 47, 64
4, 18525, Note_on_c, 1, 47, 0
4, 18528, Note_on_c, 1, 66, 64
4, 18528, Note_on_c, 1, 62, 64
4, 18528, Note_on_c, 1, 59, 64
4, 18573, Note_on_c, 1, 66, 0
4, 18573, Note_on_c, 1, 62, 0
4, 18573, Note_on_c, 1, 59, 0
4, 18576, Note_on_c, 1, 66, 64
4, 18576, Note_on_c, 1, 62, 64
4, 18576, Note_on_c, 1, 59, 64
4, 18621, Note_on_c, 1, 66, 0
4, 18621, Note_on_c, 1, 62, 0
4, 18621, Note_on_c, 1, 59, 0
4, 18624, Note_on_c, 1, 66, 64
4, 18624, Note_on_c, 1, 61, 64
4, 18624, Note_on_c, 1, 58, 64
4, 18669, Note_on_c, 1, 66, 0
4, 18669, Note_on_c, 1, 61, 0
4, 18669, Note_on_c, 1, 58, 0
4, 18672, Note_on_c, 1, 66, 64
4, 18672, Note_on_c, 1, 61, 64
4, 18672, Note_on_c, 1, 58, 64
4, 18717, Note_on_c, 1, 66, 0
4, 18717, Note_on_c, 1, 61, 0
4, 18717, Note_on_c, 1, 58, 0
4, 18720, Note_on_c, 1, 66, 64
4, 18720, Note_on_c, 1, 61, 64
4, 18720, Note_on_c, 1, 58, 64
4, 18765, Note_on_c, 1, 66, 0
4, 18765, Note_on_c, 1, 61, 0
4, 18765, Note_on_c, 1, 58, 0
4, 18768, Note_on_c, 1, 66, 64
4, 18768, Note_on_c, 1, 61, 64
4, 18768, Note_on_c, 1, 58, 64
4, 18813, Note_on_c, 1, 66, 0
4, 18813, Note_on_c, 1, 61, 0
4, 18813, Note_on_c, 1, 58, 0
4, 18816, Note_on_c, 1, 66, 64
4, 18816, Note_on_c, 1, 62, 64
4, 18816, Note_on_c, 1, 59, 64
4, 18861, Note_on_c, 1, 66, 0
4, 18861, Note_on_c, 1, 62, 0
4, 18861, Note_on_c, 1, 59, 0
4, 18864, Note_on_c, 1, 66, 64
4, 18864, Note_on_c, 1, 62, 64
4, 18864, Note_on_c, 1, 59, 64
4, 18909, Note_on_c, 1, 66, 0
4, 18909, Note_on_c, 1, 62, 0
4, 18909, Note_on_c, 1, 59, 0
4, 18912, Note_on_c, 1, 66, 64
4, 18912, Note_on_c, 1, 62, 64
4, 18912, Note_on_c, 1, 59, 64
4, 18957, Note_on_c, 1, 66, 0
4, 18957, Note_on_c, 1, 62, 0
4, 18957, Note_on_c, 1, 59, 0
4, 18960, Note_on_c, 1, 66, 64
4, 18960, Note_on_c, 1, 62, 64
4, 18960, Note_on_c, 1, 59, 64
4, 19005, Note_on_c, 1, 66, 0
4, 19005, Note_on_c, 1, 62, 0
4, 19005, Note_on_c, 1, 59, 0
4, 19008, Note_on_c, 1, 66, 64
4, 19008, Note_on_c, 1, 61, 64
4, 19008, Note_on_c, 1, 58, 64
4, 19053, Note_on_c, 1, 66, 0
4, 19053, Note_on_c, 1, 61, 0
4, 19053, Note_on_c, 1, 58, 0
4, 19056, Note_on_c, 1, 66, 64
4, 19056, Note_on_c, 1, 61, 64
4, 19056, Note_on_c, 1, 58, 64
4, 19101, Note_on_c, 1, 66, 0
4, 19101, Note_on_c, 1, 61, 0
4, 19101, Note_on_c, 1, 58, 0
4, 19104, Note_on_c, 1, 66, 64
4, 19104, Note_on_c, 1, 61, 64
4, 19104, Note_on_c, 1, 58, 64
4, 19149, Note_on_c, 1, 66, 0
4, 19149, Note_on_c, 1, 61, 0
4, 19149, Note_on_c, 1, 58, 0
4, 19152, Note_on_c, 1, 66, 64
4, 19152, Note_on_c, 1, 61, 64
4, 19152, Note_on_c, 1, 58, 64
4, 19197, Note_on_c, 1, 66, 0
4, 19197, Note_on_c, 1, 61, 0
4, 19197, Note_on_c, 1, 58, 0
4, 19200, Note_on_c, 1, 66, 64
4, 19200, Note_on_c, 1, 62, 64
4, 19200, Note_on_c, 1, 59, 64
4, 19245, Note_on_c, 1, 66, 0
4, 19245, Note_on_c, 1, 62, 0
4, 19245, Note_on_c, 1, 59, 0
4, 19248, Note_on_c, 1, 50, 64
4, 19293, Note_on_c, 1, 50, 0
4, 19296, Note_on_c, 1, 52, 64
4, 19341, Note_on_c, 1, 52, 0
4, 19344, Note_on_c, 1, 54, 64
4, 19389, Note_on_c, 1, 54, 0
4, 19392, Note_on_c, 1, 55, 64
4, 19437, Note_on_c, 1, 55, 0
4, 19440, Note_on_c, 1, 50, 64
4, 19485, Note_on_c, 1, 50, 0
4, 19488, Note_on_c, 1, 52, 64
4, 19533, Note_on_c, 1, 52, 0
4, 19536, Note_on_c, 1, 54, 64
4, 19581, Note_on_c, 1, 54, 0
4, 19584, Note_on_c, 1, 59, 64
4, 19629, Note_on_c, 1, 59, 0
4, 19632, Note_on_c, 1, 47, 64
4, 19677, Note_on_c, 1, 47, 0
4, 19728, Note_on_c, 1, 55, 64
4, 19728, Note_on_c, 1, 52, 64
4, 19773, Note_on_c, 1, 55, 0
4, 19773, Note_on_c, 1, 52, 0
4, 19776, Note_on_c, 1, 57, 64
4, 19776, Note_on_c, 1, 54, 64
4, 19821, Note_on_c, 1, 57, 0
4, 19821, Note_on_c, 1, 54, 0
4, 19824, Note_on_c, 1, 59, 64
4, 19824, Note_on_c, 1, 55, 64
4, 19869, Note_on_c, 1, 59, 0
4, 19869, Note_on_c, 1, 55, 0
4, 19872, Note_on_c, 1, 60, 64
4, 19872, Note_on_c, 1, 57, 64
4, 19917, Note_on_c, 1, 60, 0
4, 19917, Note_on_c, 1, 57, 0
4, 19920, Note_on_c, 1, 63, 64
4, 19920, Note_on_c, 1, 59, 64
4, 19965, Note_on_c, 1, 63, 0
4, 19965, Note_on_c, 1, 59, 0
4, 19968, Note_on_c, 1, 64, 64
4, 20013, Note_on_c, 1, 64, 0
4, 20016, Note_on_c, 1, 52, 64
4, 20061, Note_on_c, 1, 52, 0
4, 20064, Note_on_c, 1, 60, 64
4, 20109, Note_on_c, 1, 60, 0
4, 20112, Note_on_c, 1, 57, 64
4, 20157, Note_on_c, 1, 57, 0
4, 20160, Note_on_c, 1, 55, 64
4, 20205, Note_on_c, 1, 55, 0
4, 20208, Note_on_c, 1, 55, 64
4, 20253, Note_on_c, 1, 55, 0
4, 20256, Note_on_c, 1, 54, 64
4, 20301, Note_on_c, 1, 54, 0
4, 20304, Note_on_c, 1, 52, 64
4, 20349, Note_on_c, 1, 52, 0
4, 20352, Note_on_c, 1, 59, 64
4, 20397, Note_on_c, 1, 59, 0
4, 20400, Note_on_c, 1, 47, 64
4, 20445, Note_on_c, 1, 47, 0
4, 20448, Note_on_c, 1, 66, 64
4, 20448, Note_on_c, 1, 62, 64
4, 20448, Note_on_c, 1, 59, 64
4, 20493, Note_on_c, 1, 66, 0
4, 20493, Note_on_c, 1, 62, 0
4, 20493, Note_on_c, 1, 59, 0
4, 20496, Note_on_c, 1, 66, 64
4, 20496, Note_on_c, 1, 62, 64
4, 20496, Note_on_c, 1, 59, 64
4, 20541, Note_on_c, 1, 66, 0
4, 20541, Note_on_c, 1, 62, 0
4, 20541, Note_on_c, 1, 59, 0
4, 20544, Note_on_c, 1, 66, 64
4, 20544, Note_on_c, 1, 61, 64
4, 20544, Note_on_c, 1, 58, 64
4, 20589, Note_on_c, 1, 66, 0
4, 20589, Note_on_c, 1, 61, 0
4, 20589, Note_on_c, 1, 58, 0
4, 20592, Note_on_c, 1, 66, 64
4, 20592, Note_on_c, 1, 61, 64
4, 20592, Note_on_c, 1, 58, 64
4, 20637, Note_on_c, 1, 66, 0
4, 20637, Note_on_c, 1, 61, 0
4, 20637, Note_on_c, 1, 58, 0
4, 20640, Note_on_c, 1, 66, 64
4, 20640, Note_on_c, 1, 61, 64
4, 20640, Note_on_c, 1, 58, 64
4, 20685, Note_on_c, 1, 66, 0
4, 20685, Note_on_c, 1, 61, 0
4, 20685, Note_on_c, 1, 58, 0
4, 20688, Note_on_c, 1, 66, 64
4, 20688, Note_on_c, 1, 61, 64
4, 20688, Note_on_c, 1, 58, 64
4, 20733, Note_on_c, 1, 66, 0
4, 20733, Note_on_c, 1, 61, 0
4, 20733, Note_on_c, 1, 58, 0
4, 20736, Note_on_c, 1, 66, 64
4, 20736, Note_on_c, 1, 62, 64
4, 20736, Note_on_c, 1, 59, 64
4, 20781, Note_on_c, 1, 66, 0
4, 20781, Note_on_c, 1, 62, 0
4, 20781, Note_on_c, 1, 59, 0
4, 20784, Note_on_c, 1, 66, 64
4, 20784, Note_on_c, 1, 62, 64
4, 20784, Note_on_c, 1, 59, 64
4, 20829, Note_on_c, 1, 66, 0
4, 20829, Note_on_c, 1, 62, 0
4, 20829, Note_on_c, 1, 59, 0
4, 20832, Note_on_c, 1, 66, 64
4, 20832, Note_on_c, 1, 62, 64
4, 20832, Note_on_c, 1, 59, 64
4, 20877, Note_on_c, 1, 66, 0
4, 20877, Note_on_c, 1, 62, 0
4, 20877, Note_on_c, 1, 59, 0
4, 20880, Note_on_c, 1, 66, 64
4, 20880, Note_on_c, 1, 62, 64
4, 20880, Note_on_c, 1, 59, 64
4, 20925, Note_on_c, 1, 66, 0
4, 20925, Note_on_c, 1, 62, 0
4, 20925, Note_on_c, 1, 59, 0
4, 20928, Note_on_c, 1, 66, 64
4, 20928, Note_on_c, 1, 61, 64
4, 20928, Note_on_c, 1, 58, 64
4, 20973, Note_on_c, 1, 66, 0
4, 20973, Note_on_c, 1, 61, 0
4, 20973, Note_on_c, 1, 58, 0
4, 20976, Note_on_c, 1, 66, 64
4, 20976, Note_on_c, 1, 61, 64
4, 20976, Note_on_c, 1, 58, 64
4, 21021, Note_on_c, 1, 66, 0
4, 21021, Note_on_c, 1, 61, 0
4, 21021, Note_on_c, 1, 58, 0
4, 21024, Note_on_c, 1, 66, 64
4, 21024, Note_on_c, 1, 61, 64
4, 21024, Note_on_c, 1, 58, 64
4, 21069, Note_on_c, 1, 66, 0
4, 21069, Note_on_c, 1, 61, 0
4, 21069, Note_on_c, 1, 58, 0
4, 21072, Note_on_c, 1, 66, 64
4, 21072, Note_on_c, 1, 61, 64
4, 21072, Note_on_c, 1, 58, 64
4, 21117, Note_on_c, 1, 66, 0
4, 21117, Note_on_c, 1, 61, 0
4, 21117, Note_on_c, 1, 58, 0
4, 21120, Note_on_c, 1, 66, 64
4, 21120, Note_on_c, 1, 62, 64
4, 21120, Note_on_c, 1, 59, 64
4, 21165, Note_on_c, 1, 66, 0
4, 21165, Note_on_c, 1, 62, 0
4, 21165, Note_on_c, 1, 59, 0
4, 21168, Note_on_c, 1, 50, 64
4, 21213, Note_on_c, 1, 50, 0
4, 21216, Note_on_c, 1, 52, 64
4, 21261, Note_on_c, 1, 52, 0
4, 21264, Note_on_c, 1, 54, 64
4, 21309, Note_on_c, 1, 54, 0
4, 21312, Note_on_c, 1, 55, 64
4, 21357, Note_on_c, 1, 55, 0
4, 21360, Note_on_c, 1, 50, 64
4, 21405, Note_on_c, 1, 50, 0
4, 21408, Note_on_c, 1, 52, 64
4, 21453, Note_on_c, 1, 52, 0
4, 21456, Note_on_c, 1, 54, 64
4, 21501, Note_on_c, 1, 54, 0
4, 21504, Note_on_c, 1, 59, 64
4, 21549, Note_on_c, 1, 59, 0
4, 21552, Note_on_c, 1, 47, 64
4, 21597, Note_on_c, 1, 47, 0
4, 21648, Note_on_c, 1, 67, 64
4, 21693, Note_on_c, 1, 67, 0
4, 21696, Note_on_c, 1, 66, 64
4, 21741, Note_on_c, 1, 66, 0
4, 21744, Note_on_c, 1, 67, 64
4, 21789, Note_on_c, 1, 67, 0
4, 21792, Note_on_c, 1, 63, 64
4, 21837, Note_on_c, 1, 63, 0
4, 21840, Note_on_c, 1, 64, 64
4, 21885, Note_on_c, 1, 64, 0
4, 21888, Note_on_c, 1, 63, 64
4, 21977, Note_on_c, 1, 63, 0
4, 22032, Note_on_c, 1, 67, 64
4, 22077, Note_on_c, 1, 67, 0
4, 22080, Note_on_c, 1, 66, 64
4, 22125, Note_on_c, 1, 66, 0
4, 22128, Note_on_c, 1, 67, 64
4, 22173, Note_on_c, 1, 67, 0
4, 22176, Note_on_c, 1, 63, 64
4, 22221, Note_on_c, 1, 63, 0
4, 22224, Note_on_c, 1, 64, 64
4, 22269, Note_on_c, 1, 64, 0
4, 22272, Note_on_c, 1, 63, 64
4, 22317, Note_on_c, 1, 63, 0
4, 22464, Note_on_c, 1, 62, 64
4, 22464, Note_on_c, 1, 59, 64
4, 22464, Note_on_c, 1, 56, 64
4, 22464, Note_on_c, 1, 52, 64
4, 22509, Note_on_c, 1, 62, 0
4, 22509, Note_on_c, 1, 59, 0
4, 22509, Note_on_c, 1, 56, 0
4, 22509, Note_on_c, 1, 52, 0
4, 22512, Note_on_c, 1, 62, 64
4, 22512, Note_on_c, 1, 59, 64
4, 22512, Note_on_c, 1, 56, 64
4, 22512, Note_on_c, 1, 52, 64
4, 22557, Note_on_c, 1, 62, 0
4, 22557, Note_on_c, 1, 59, 0
4, 22557, Note_on_c, 1, 56, 0
4, 22557, Note_on_c, 1, 52, 0
4, 22560, Note_on_c, 1, 62, 64
4, 22560, Note_on_c, 1, 59, 64
4, 22560, Note_on_c, 1, 56, 64
4, 22560, Note_on_c, 1, 52, 64
4, 22605, Note_on_c, 1, 62, 0
4, 22605, Note_on_c, 1, 59, 0
4, 22605, Note_on_c, 1, 56, 0
4, 22605, Note_on_c, 1, 52, 0
4, 22608, Note_on_c, 1, 62, 64
4, 22608, Note_on_c, 1, 59, 64
4, 22608, Note_on_c, 1, 56, 64
4, 22608, Note_on_c, 1, 52, 64
4, 22653, Note_on_c, 1, 62, 0
4, 22653, Note_on_c, 1, 59, 0
4, 22653, Note_on_c, 1, 56, 0
4, 22653, Note_on_c, 1, 52, 0
4, 22656, Note_on_c, 1, 60, 64
4, 22656, Note_on_c, 1, 57, 64
4, 22656, Note_on_c, 1, 52, 64
4, 22701, Note_on_c, 1, 60, 0
4, 22701, Note_on_c, 1, 57, 0
4, 22701, Note_on_c, 1, 52, 0
4, 22704, Note_on_c, 1, 60, 64
4, 22704, Note_on_c, 1, 57, 64
4, 22704, Note_on_c, 1, 52, 64
4, 22749, Note_on_c, 1, 60, 0
4, 22749, Note_on_c, 1, 57, 0
4, 22749, Note_on_c, 1, 52, 0
4, 22752, Note_on_c, 1, 60, 64
4, 22752, Note_on_c, 1, 57, 64
4, 22752, Note_on_c, 1, 52, 64
4, 22797, Note_on_c, 1, 60, 0
4, 22797, Note_on_c, 1, 57, 0
4, 22797, Note_on_c, 1, 52, 0
4, 22800, Note_on_c, 1, 60, 64
4, 22800, Note_on_c, 1, 57, 64
4, 22800, Note_on_c, 1, 52, 64
4, 22845, Note_on_c, 1, 60, 0
4, 22845, Note_on_c, 1, 57, 0
4, 22845, Note_on_c, 1, 52, 0
4, 22848, Note_on_c, 1, 60, 64
4, 22848, Note_on_c, 1, 57, 64
4, 22848, Note_on_c, 1, 54, 64
4, 22848, Note_on_c, 1, 52, 64
4, 22893, Note_on_c, 1, 60, 0
4, 22893, Note_on_c, 1, 57, 0
4, 22893, Note_on_c, 1, 54, 0
4, 22893, Note_on_c, 1, 52, 0
4, 22896, Note_on_c, 1, 60, 64
4, 22896, Note_on_c, 1, 57, 64
4, 22896, Note_on_c, 1, 54, 64
4, 22896, Note_on_c, 1, 52, 64
4, 22941, Note_on_c, 1, 60, 0
4, 22941, Note_on_c, 1, 57, 0
4, 22941, Note_on_c, 1, 54, 0
4, 22941, Note_on_c, 1, 52, 0
4, 22944, Note_on_c, 1, 60, 64
4, 22944, Note_on_c, 1, 57, 64
4, 22944, Note_on_c, 1, 54, 64
4, 22944, Note_on_c, 1, 52, 64
4, 22989, Note_on_c, 1, 60, 0
4, 22989, Note_on_c, 1, 57, 0
4, 22989, Note_on_c, 1, 54, 0
4, 22989, Note_on_c, 1, 52, 0
4, 22992, Note_on_c, 1, 60, 64
4, 22992, Note_on_c, 1, 57, 64
4, 22992, Note_on_c, 1, 54, 64
4, 22992, Note_on_c, 1, 52, 64
4, 23037, Note_on_c, 1, 60, 0
4, 23037, Note_on_c, 1, 57, 0
4, 23037, Note_on_c, 1, 54, 0
4, 23037, Note_on_c, 1, 52, 0
4, 23040, Note_on_c, 1, 59, 64
4, 23040, Note_on_c, 1, 55, 64
4, 23040, Note_on_c, 1, 52, 64
4, 23085, Note_on_c, 1, 59, 0
4, 23085, Note_on_c, 1, 55, 0
4, 23085, Note_on_c, 1, 52, 0
4, 23088, Note_on_c, 1, 59, 64
4, 23088, Note_on_c, 1, 55, 64
4, 23088, Note_on_c, 1, 52, 64
4, 23133, Note_on_c, 1, 59, 0
4, 23133, Note_on_c, 1, 55, 0
4, 23133, Note_on_c, 1, 52, 0
4, 23136, Note_on_c, 1, 59, 64
4, 23136, Note_on_c, 1, 55, 64
4, 23136, Note_on_c, 1, 52, 64
4, 23181, Note_on_c, 1, 59, 0
4, 23181, Note_on_c, 1, 55, 0
4, 23181, Note_on_c, 1, 52, 0
4, 23184, Note_on_c, 1, 59, 64
4, 23184, Note_on_c, 1, 55, 64
4, 23184, Note_on_c, 1, 52, 64
4, 23229, Note_on_c, 1, 59, 0
4, 23229, Note_on_c, 1, 55, 0
4, 23229, Note_on_c, 1, 52, 0
4, 23232, Note_on_c, 1, 60, 64
4, 23232, Note_on_c, 1, 57, 64
4, 23232, Note_on_c, 1, 54, 64
4, 23232, Note_on_c, 1, 52, 64
4, 23277, Note_on_c, 1, 60, 0
4, 23277, Note_on_c, 1, 57, 0
4, 23277, Note_on_c, 1, 54, 0
4, 23277, Note_on_c, 1, 52, 0
4, 23280, Note_on_c, 1, 60, 64
4, 23280, Note_on_c, 1, 57, 64
4, 23280, Note_on_c, 1, 54, 64
4, 23280, Note_on_c, 1, 52, 64
4, 23325, Note_on_c, 1, 60, 0
4, 23325, Note_on_c, 1, 57, 0
4, 23325, Note_on_c, 1, 54, 0
4, 23325, Note_on_c, 1, 52, 0
4, 23328, Note_on_c, 1, 60, 64
4, 23328, Note_on_c, 1, 57, 64
4, 23328, Note_on_c, 1, 54, 64
4, 23328, Note_on_c, 1, 52, 64
4, 23373, Note_on_c, 1, 60, 0
4, 23373, Note_on_c, 1, 57, 0
4, 23373, Note_on_c, 1, 54, 0
4, 23373, Note_on_c, 1, 52, 0
4, 23376, Note_on_c, 1, 60, 64
4, 23376, Note_on_c, 1, 57, 64
4, 23376, Note_on_c, 1, 54, 64
4, 23376, Note_on_c, 1, 52, 64
4, 23421, Note_on_c, 1, 60, 0
4, 23421, Note_on_c, 1, 57, 0
4, 23421, Note_on_c, 1, 54, 0
4, 23421, Note_on_c, 1, 52, 0
4, 23424, Note_on_c, 1, 59, 64
4, 23424, Note_on_c, 1, 55, 64
4, 23424, Note_on_c, 1, 52, 64
4, 23469, Note_on_c, 1, 59, 0
4, 23469, Note_on_c, 1, 55, 0
4, 23469, Note_on_c, 1, 52, 0
4, 23472, Note_on_c, 1, 59, 64
4, 23472, Note_on_c, 1, 55, 64
4, 23472, Note_on_c, 1, 52, 64
4, 23517, Note_on_c, 1, 59, 0
4, 23517, Note_on_c, 1, 55, 0
4, 23517, Note_on_c, 1, 52, 0
4, 23520, Note_on_c, 1, 59, 64
4, 23520, Note_on_c, 1, 55, 64
4, 23520, Note_on_c, 1, 52, 64
4, 23565, Note_on_c, 1, 59, 0
4, 23565, Note_on_c, 1, 55, 0
4, 23565, Note_on_c, 1, 52, 0
4, 23568, Note_on_c, 1, 59, 64
4, 23568, Note_on_c, 1, 55, 64
4, 23568, Note_on_c, 1, 52, 64
4, 23613, Note_on_c, 1, 59, 0
4, 23613, Note_on_c, 1, 55, 0
4, 23613, Note_on_c, 1, 52, 0
4, 23616, Note_on_c, 1, 59, 64
4, 23616, Note_on_c, 1, 48, 64
4, 23661, Note_on_c, 1, 59, 0
4, 23661, Note_on_c, 1, 48, 0
4, 23664, Note_on_c, 1, 59, 64
4, 23664, Note_on_c, 1, 48, 64
4, 23709, Note_on_c, 1, 59, 0
4, 23709, Note_on_c, 1, 48, 0
4, 23712, Note_on_c, 1, 58, 64
4, 23712, Note_on_c, 1, 48, 64
4, 23757, Note_on_c, 1, 58, 0
4, 23757, Note_on_c, 1, 48, 0
4, 23760, Note_on_c, 1, 58, 64
4, 23760, Note_on_c, 1, 48, 64
4, 23805, Note_on_c, 1, 58, 0
4, 23805, Note_on_c, 1, 48, 0
4, 23808, Note_on_c, 1, 59, 64
4, 23808, Note_on_c, 1, 47, 64
4, 23897, Note_on_c, 1, 59, 0
4, 23897, Note_on_c, 1, 47, 0
4, 24000, Note_on_c, 1, 47, 64
4, 24000, Note_on_c, 1, 35, 64
4, 24281, Note_on_c, 1, 47, 0
4, 24281, Note_on_c, 1, 35, 0
4, 24384, Note_on_c, 1, 59, 64
4, 24384, Note_on_c, 1, 55, 64
4, 24429, Note_on_c, 1, 59, 0
4, 24429, Note_on_c, 1, 55, 0
4, 24432, Note_on_c, 1, 59, 64
4, 24432, Note_on_c, 1, 55, 64
4, 24477, Note_on_c, 1, 59, 0
4, 24477, Note_on_c, 1, 55, 0
4, 24480, Note_on_c, 1, 60, 64
4, 24480, Note_on_c, 1, 50, 64
4, 24525, Note_on_c, 1, 60, 0
4, 24525, Note_on_c, 1, 50, 0
4, 24528, Note_on_c, 1, 60, 64
4, 24528, Note_on_c, 1, 50, 64
4, 24573, Note_on_c, 1, 60, 0
4, 24573, Note_on_c, 1, 50, 0
4, 24576, Note_on_c, 1, 59, 64
4, 24576, Note_on_c, 1, 55, 64
4, 24621, Note_on_c, 1, 59, 0
4, 24621, Note_on_c, 1, 55, 0
4, 24672, Note_on_c, 1, 72, 64
4, 24717, Note_on_c, 1, 72, 0
4, 24720, Note_on_c, 1, 71, 64
4, 24765, Note_on_c, 1, 71, 0
4, 24768, Note_on_c, 1, 69, 64
4, 24813, Note_on_c, 1, 69, 0
4, 24816, Note_on_c, 1, 67, 64
4, 24861, Note_on_c, 1, 67, 0
4, 24864, Note_on_c, 1, 64, 64
4, 24953, Note_on_c, 1, 64, 0
4, 24960, Note_on_c, 1, 62, 64
4, 25005, Note_on_c, 1, 62, 0
4, 25008, Note_on_c, 1, 50, 64
4, 25053, Note_on_c, 1, 50, 0
4, 25152, Note_on_c, 1, 59, 64
4, 25152, Note_on_c, 1, 55, 64
4, 25197, Note_on_c, 1, 59, 0
4, 25197, Note_on_c, 1, 55, 0
4, 25200, Note_on_c, 1, 59, 64
4, 25200, Note_on_c, 1, 55, 64
4, 25245, Note_on_c, 1, 59, 0
4, 25245, Note_on_c, 1, 55, 0
4, 25248, Note_on_c, 1, 60, 64
4, 25248, Note_on_c, 1, 50, 64
4, 25293, Note_on_c, 1, 60, 0
4, 25293, Note_on_c, 1, 50, 0
4, 25296, Note_on_c, 1, 60, 64
4, 25296, Note_on_c, 1, 50, 64
4, 25341, Note_on_c, 1, 60, 0
4, 25341, Note_on_c, 1, 50, 0
4, 25344, Note_on_c, 1, 59, 64
4, 25344, Note_on_c, 1, 55, 64
4, 25433, Note_on_c, 1, 59, 0
4, 25433, Note_on_c, 1, 55, 0
4, 25440, Note_on_c, 1, 72, 64
4, 25485, Note_on_c, 1, 72, 0
4, 25488, Note_on_c, 1, 71, 64
4, 25533, Note_on_c, 1, 71, 0
4, 25536, Note_on_c, 1, 69, 64
4, 25581, Note_on_c, 1, 69, 0
4, 25584, Note_on_c, 1, 67, 64
4, 25629, Note_on_c, 1, 67, 0
4, 25632, Note_on_c, 1, 64, 64
4, 25721, Note_on_c, 1, 64, 0
4, 25728, Note_on_c, 1, 62, 64
4, 25773, Note_on_c, 1, 62, 0
4, 25776, Note_on_c, 1, 50, 64
4, 25821, Note_on_c, 1, 50, 0
4, 25824, Note_on_c, 1, 66, 64
4, 25824, Note_on_c, 1, 62, 64
4, 25869, Note_on_c, 1, 66, 0
4, 25869, Note_on_c, 1, 62, 0
4, 25872, Note_on_c, 1, 66, 64
4, 25872, Note_on_c, 1, 62, 64
4, 25917, Note_on_c, 1, 66, 0
4, 25917, Note_on_c, 1, 62, 0
4, 25920, Note_on_c, 1, 67, 64
4, 25920, Note_on_c, 1, 62, 64
4, 25965, Note_on_c, 1, 67, 0
4, 25965, Note_on_c, 1, 62, 0
4, 25968, Note_on_c, 1, 67, 64
4, 25968, Note_on_c, 1, 62, 64
4, 26013, Note_on_c, 1, 67, 0
4, 26013, Note_on_c, 1, 62, 0
4, 26016, Note_on_c, 1, 64, 64
4, 26016, Note_on_c, 1, 62, 64
4, 26061, Note_on_c, 1, 64, 0
4, 26061, Note_on_c, 1, 62, 0
4, 26064, Note_on_c, 1, 64, 64
4, 26064, Note_on_c, 1, 62, 64
4, 26109, Note_on_c, 1, 64, 0
4, 26109, Note_on_c, 1, 62, 0
4, 26112, Note_on_c, 1, 66, 64
4, 26112, Note_on_c, 1, 62, 64
4, 26201, Note_on_c, 1, 66, 0
4, 26201, Note_on_c, 1, 62, 0
4, 26256, Note_on_c, 1, 62, 64
4, 26256, Note_on_c, 1, 54, 64
4, 26301, Note_on_c, 1, 62, 0
4, 26301, Note_on_c, 1, 54, 0
4, 26304, Note_on_c, 1, 62, 64
4, 26349, Note_on_c, 1, 62, 0
4, 26352, Note_on_c, 1, 62, 64
4, 26397, Note_on_c, 1, 62, 0
4, 26400, Note_on_c, 1, 62, 64
4, 26445, Note_on_c, 1, 62, 0
4, 26448, Note_on_c, 1, 61, 64
4, 26493, Note_on_c, 1, 61, 0
4, 26496, Note_on_c, 1, 62, 64
4, 26541, Note_on_c, 1, 62, 0
4, 26544, Note_on_c, 1, 50, 64
4, 26589, Note_on_c, 1, 50, 0
4, 26688, Note_on_c, 1, 59, 64
4, 26688, Note_on_c, 1, 55, 64
4, 26733, Note_on_c, 1, 59, 0
4, 26733, Note_on_c, 1, 55, 0
4, 26736, Note_on_c, 1, 59, 64
4, 26736, Note_on_c, 1, 55, 64
4, 26781, Note_on_c, 1, 59, 0
4, 26781, Note_on_c, 1, 55, 0
4, 26784, Note_on_c, 1, 60, 64
4, 26784, Note_on_c, 1, 50, 64
4, 26829, Note_on_c, 1, 60, 0
4, 26829, Note_on_c, 1, 50, 0
4, 26832, Note_on_c, 1, 60, 64
4, 26832, Note_on_c, 1, 50, 64
4, 26877, Note_on_c, 1, 60, 0
4, 26877, Note_on_c, 1, 50, 0
4, 26880, Note_on_c, 1, 59, 64
4, 26880, Note_on_c, 1, 55, 64
4, 26969, Note_on_c, 1, 59, 0
4, 26969, Note_on_c, 1, 55, 0
4, 26976, Note_on_c, 1, 72, 64
4, 27021, Note_on_c, 1, 72, 0
4, 27024, Note_on_c, 1, 71, 64
4, 27069, Note_on_c, 1, 71, 0
4, 27072, Note_on_c, 1, 69, 64
4, 27117, Note_on_c, 1, 69, 0
4, 27120, Note_on_c, 1, 67, 64
4, 27165, Note_on_c, 1, 67, 0
4, 27168, Note_on_c, 1, 64, 64
4, 27257, Note_on_c, 1, 64, 0
4, 27264, Note_on_c, 1, 62, 64
4, 27309, Note_on_c, 1, 62, 0
4, 27312, Note_on_c, 1, 50, 64
4, 27357, Note_on_c, 1, 50, 0
4, 27360, Note_on_c, 1, 66, 64
4, 27360, Note_on_c, 1, 62, 64
4, 27405, Note_on_c, 1, 66, 0
4, 27405, Note_on_c, 1, 62, 0
4, 27408, Note_on_c, 1, 66, 64
4, 27408, Note_on_c, 1, 62, 64
4, 27453, Note_on_c, 1, 66, 0
4, 27453, Note_on_c, 1, 62, 0
4, 27456, Note_on_c, 1, 67, 64
4, 27456, Note_on_c, 1, 62, 64
4, 27501, Note_on_c, 1, 67, 0
4, 27501, Note_on_c, 1, 62, 0
4, 27504, Note_on_c, 1, 67, 64
4, 27504, Note_on_c, 1, 62, 64
4, 27549, Note_on_c, 1, 67, 0
4, 27549, Note_on_c, 1, 62, 0
4, 27552, Note_on_c, 1, 64, 64
4, 27552, Note_on_c, 1, 62, 64
4, 27597, Note_on_c, 1, 64, 0
4, 27597, Note_on_c, 1, 62, 0
4, 27600, Note_on_c, 1, 64, 64
4, 27600, Note_on_c, 1, 62, 64
4, 27645, Note_on_c, 1, 64, 0
4, 27645, Note_on_c, 1, 62, 0
4, 27648, Note_on_c, 1, 66, 64
4, 27648, Note_on_c, 1, 62, 64
4, 27737, Note_on_c, 1, 66, 0
4, 27737, Note_on_c, 1, 62, 0
4, 27792, Note_on_c, 1, 62, 64
4, 27792, Note_on_c, 1, 54, 64
4, 27837, Note_on_c, 1, 62, 0
4, 27837, Note_on_c, 1, 54, 0
4, 27840, Note_on_c, 1, 62, 64
4, 27885, Note_on_c, 1, 62, 0
4, 27888, Note_on_c, 1, 62, 64
4, 27933, Note_on_c, 1, 62, 0
4, 27936, Note_on_c, 1, 62, 64
4, 27981, Note_on_c, 1, 62, 0
4, 27984, Note_on_c, 1, 61, 64
4, 28029, Note_on_c, 1, 61, 0
4, 28032, Note_on_c, 1, 62, 64
4, 28077, Note_on_c, 1, 62, 0
4, 28080, Note_on_c, 1, 50, 64
4, 28125, Note_on_c, 1, 50, 0
4, 28224, Note_on_c, 1, 62, 64
4, 28224, Note_on_c, 1, 52, 64
4, 28269, Note_on_c, 1, 62, 0
4, 28269, Note_on_c, 1, 52, 0
4, 28272, Note_on_c, 1, 62, 64
4, 28272, Note_on_c, 1, 52, 64
4, 28317, Note_on_c, 1, 62, 0
4, 28317, Note_on_c, 1, 52, 0
4, 28320, Note_on_c, 1, 60, 64
4, 28320, Note_on_c, 1, 52, 64
4, 28365, Note_on_c, 1, 60, 0
4, 28365, Note_on_c, 1, 52, 0
4, 28368, Note_on_c, 1, 59, 64
4, 28368, Note_on_c, 1, 52, 64
4, 28413, Note_on_c, 1, 59, 0
4, 28413, Note_on_c, 1, 52, 0
4, 28416, Note_on_c, 1, 57, 64
4, 28461, Note_on_c, 1, 57, 0
4, 28464, Note_on_c, 1, 45, 64
4, 28509, Note_on_c, 1, 45, 0
4, 28512, Note_on_c, 1, 69, 64
4, 28557, Note_on_c, 1, 69, 0
4, 28560, Note_on_c, 1, 66, 64
4, 28605, Note_on_c, 1, 66, 0
4, 28608, Note_on_c, 1, 67, 64
4, 28653, Note_on_c, 1, 67, 0
4, 28656, Note_on_c, 1, 59, 64
4, 28701, Note_on_c, 1, 59, 0
4, 28704, Note_on_c, 1, 60, 64
4, 28749, Note_on_c, 1, 60, 0
4, 28752, Note_on_c, 1, 61, 64
4, 28797, Note_on_c, 1, 61, 0
4, 28800, Note_on_c, 1, 62, 64
4, 28845, Note_on_c, 1, 62, 0
4, 28848, Note_on_c, 1, 50, 64
4, 28893, Note_on_c, 1, 50, 0
4, 28896, Note_on_c, 1, 57, 64
4, 28919, Note_on_c, 1, 57, 0
4, 28920, Note_on_c, 1, 58, 64
4, 28943, Note_on_c, 1, 58, 0
4, 28944, Note_on_c, 1, 59, 64
4, 28967, Note_on_c, 1, 59, 0
4, 28968, Note_on_c, 1, 60, 64
4, 28991, Note_on_c, 1, 60, 0
4, 28992, Note_on_c, 1, 50, 64
4, 29037, Note_on_c, 1, 50, 0
4, 29040, Note_on_c, 1, 50, 64
4, 29085, Note_on_c, 1, 50, 0
4, 29088, Note_on_c, 1, 66, 64
4, 29111, Note_on_c, 1, 66, 0
4, 29112, Note_on_c, 1, 67, 64
4, 29135, Note_on_c, 1, 67, 0
4, 29136, Note_on_c, 1, 68, 64
4, 29159, Note_on_c, 1, 68, 0
4, 29160, Note_on_c, 1, 69, 64
4, 29183, Note_on_c, 1, 69, 0
4, 29280, Note_on_c, 1, 66, 64
4, 29369, Note_on_c, 1, 66, 0
4, 29376, Note_on_c, 1, 67, 64
4, 29421, Note_on_c, 1, 67, 0
4, 29424, Note_on_c, 1, 69, 64
4, 29469, Note_on_c, 1, 69, 0
4, 29472, Note_on_c, 1, 71, 64
4, 29517, Note_on_c, 1, 71, 0
4, 29520, Note_on_c, 1, 69, 64
4, 29565, Note_on_c, 1, 69, 0
4, 29568, Note_on_c, 1, 67, 64
4, 29613, Note_on_c, 1, 67, 0
4, 29616, Note_on_c, 1, 55, 64
4, 29661, Note_on_c, 1, 55, 0
4, 29760, Note_on_c, 1, 62, 64
4, 29760, Note_on_c, 1, 52, 64
4, 29805, Note_on_c, 1, 62, 0
4, 29805, Note_on_c, 1, 52, 0
4, 29808, Note_on_c, 1, 62, 64
4, 29808, Note_on_c, 1, 52, 64
4, 29853, Note_on_c, 1, 62, 0
4, 29853, Note_on_c, 1, 52, 0
4, 29856, Note_on_c, 1, 60, 64
4, 29856, Note_on_c, 1, 52, 64
4, 29901, Note_on_c, 1, 60, 0
4, 29901, Note_on_c, 1, 52, 0
4, 29904, Note_on_c, 1, 59, 64
4, 29904, Note_on_c, 1, 52, 64
4, 29949, Note_on_c, 1, 59, 0
4, 29949, Note_on_c, 1, 52, 0
4, 29952, Note_on_c, 1, 57, 64
4, 29997, Note_on_c, 1, 57, 0
4, 30000, Note_on_c, 1, 45, 64
4, 30045, Note_on_c, 1, 45, 0
4, 30048, Note_on_c, 1, 69, 64
4, 30093, Note_on_c, 1, 69, 0
4, 30096, Note_on_c, 1, 66, 64
4, 30141, Note_on_c, 1, 66, 0
4, 30144, Note_on_c, 1, 67, 64
4, 30189, Note_on_c, 1, 67, 0
4, 30192, Note_on_c, 1, 59, 64
4, 30237, Note_on_c, 1, 59, 0
4, 30240, Note_on_c, 1, 60, 64
4, 30285, Note_on_c, 1, 60, 0
4, 30288, Note_on_c, 1, 61, 64
4, 30333, Note_on_c, 1, 61, 0
4, 30336, Note_on_c, 1, 62, 64
4, 30381, Note_on_c, 1, 62, 0
4, 30384, Note_on_c, 1, 50, 64
4, 30429, Note_on_c, 1, 50, 0
4, 30432, Note_on_c, 1, 57, 64
4, 30455, Note_on_c, 1, 57, 0
4, 30456, Note_on_c, 1, 58, 64
4, 30479, Note_on_c, 1, 58, 0
4, 30480, Note_on_c, 1, 59, 64
4, 30503, Note_on_c, 1, 59, 0
4, 30504, Note_on_c, 1, 60, 64
4, 30527, Note_on_c, 1, 60, 0
4, 30528, Note_on_c, 1, 50, 64
4, 30573, Note_on_c, 1, 50, 0
4, 30576, Note_on_c, 1, 50, 64
4, 30621, Note_on_c, 1, 50, 0
4, 30624, Note_on_c, 1, 66, 64
4, 30647, Note_on_c, 1, 66, 0
4, 30648, Note_on_c, 1, 67, 64
4, 30671, Note_on_c, 1, 67, 0
4, 30672, Note_on_c, 1, 68, 64
4, 30695, Note_on_c, 1, 68, 0
4, 30696, Note_on_c, 1, 69, 64
4, 30719, Note_on_c, 1, 69, 0
4, 30816, Note_on_c, 1, 66, 64
4, 30905, Note_on_c, 1, 66, 0
4, 30912, Note_on_c, 1, 67, 64
4, 30957, Note_on_c, 1, 67, 0
4, 30960, Note_on_c, 1, 69, 64
4, 31005, Note_on_c, 1, 69, 0
4, 31008, Note_on_c, 1, 71, 64
4, 31053, Note_on_c, 1, 71, 0
4, 31056, Note_on_c, 1, 69, 64
4, 31101, Note_on_c, 1, 69, 0
4, 31104, Note_on_c, 1, 67, 64
4, 31149, Note_on_c, 1, 67, 0
4, 31152, Note_on_c, 1, 55, 64
4, 31197, Note_on_c, 1, 55, 0
4, 31200, Note_on_c, 1, 57, 64
4, 31215, Note_on_c, 1, 57, 0
4, 31216, Note_on_c, 1, 59, 64
4, 31231, Note_on_c, 1, 59, 0
4, 31232, Note_on_c, 1, 60, 64
4, 31247, Note_on_c, 1, 60, 0
4, 31248, Note_on_c, 1, 57, 64
4, 31263, Note_on_c, 1, 57, 0
4, 31264, Note_on_c, 1, 59, 64
4, 31279, Note_on_c, 1, 59, 0
4, 31280, Note_on_c, 1, 60, 64
4, 31295, Note_on_c, 1, 60, 0
4, 31296, Note_on_c, 1, 50, 64
4, 31341, Note_on_c, 1, 50, 0
4, 31344, Note_on_c, 1, 50, 64
4, 31389, Note_on_c, 1, 50, 0
4, 31392, Note_on_c, 1, 66, 64
4, 31407, Note_on_c, 1, 66, 0
4, 31408, Note_on_c, 1, 67, 64
4, 31423, Note_on_c, 1, 67, 0
4, 31424, Note_on_c, 1, 69, 64
4, 31439, Note_on_c, 1, 69, 0
4, 31440, Note_on_c, 1, 66, 64
4, 31455, Note_on_c, 1, 66, 0
4, 31456, Note_on_c, 1, 67, 64
4, 31471, Note_on_c, 1, 67, 0
4, 31472, Note_on_c, 1, 69, 64
4, 31487, Note_on_c, 1, 69, 0
4, 31488, Note_on_c, 1, 60, 64
4, 31665, Note_on_c, 1, 60, 0
4, 31680, Note_on_c, 1, 66, 64
4, 31680, Note_on_c, 1, 60, 64
4, 31961, Note_on_c, 1, 66, 0
4, 31961, Note_on_c, 1, 60, 0
4, 32064, Note_on_c, 1, 59, 64
4, 32064, Note_on_c, 1, 55, 64
4, 32109, Note_on_c, 1, 59, 0
4, 32109, Note_on_c, 1, 55, 0
4, 32112, Note_on_c, 1, 59, 64
4, 32112, Note_on_c, 1, 55, 64
4, 32157, Note_on_c, 1, 59, 0
4, 32157, Note_on_c, 1, 55, 0
4, 32160, Note_on_c, 1, 60, 64
4, 32160, Note_on_c, 1, 50, 64
4, 32205, Note_on_c, 1, 60, 0
4, 32205, Note_on_c, 1, 50, 0
4, 32208, Note_on_c, 1, 60, 64
4, 32208, Note_on_c, 1, 50, 64
4, 32253, Note_on_c, 1, 60, 0
4, 32253, Note_on_c, 1, 50, 0
4, 32256, Note_on_c, 1, 59, 64
4, 32256, Note_on_c, 1, 55, 64
4, 32301, Note_on_c, 1, 59, 0
4, 32301, Note_on_c, 1, 55, 0
4, 32448, Note_on_c, 1, 71, 64
4, 32448, Note_on_c, 1, 67, 64
4, 32493, Note_on_c, 1, 71, 0
4, 32493, Note_on_c, 1, 67, 0
4, 32496, Note_on_c, 1, 71, 64
4, 32496, Note_on_c, 1, 67, 64
4, 32541, Note_on_c, 1, 71, 0
4, 32541, Note_on_c, 1, 67, 0
4, 32544, Note_on_c, 1, 72, 64
4, 32544, Note_on_c, 1, 62, 64
4, 32589, Note_on_c, 1, 72, 0
4, 32589, Note_on_c, 1, 62, 0
4, 32592, Note_on_c, 1, 72, 64
4, 32592, Note_on_c, 1, 62, 64
4, 32637, Note_on_c, 1, 72, 0
4, 32637, Note_on_c, 1, 62, 0
4, 32640, Note_on_c, 1, 71, 64
4, 32640, Note_on_c, 1, 67, 64
4, 32685, Note_on_c, 1, 71, 0
4, 32685, Note_on_c, 1, 67, 0
4, 32736, Note_on_c, 1, 66, 64
4, 32736, Note_on_c, 1, 62, 64
4, 32781, Note_on_c, 1, 66, 0
4, 32781, Note_on_c, 1, 62, 0
4, 32784, Note_on_c, 1, 66, 64
4, 32784, Note_on_c, 1, 62, 64
4, 32829, Note_on_c, 1, 66, 0
4, 32829, Note_on_c, 1, 62, 0
4, 32832, Note_on_c, 1, 67, 64
4, 32877, Note_on_c, 1, 67, 0
4, 32928, Note_on_c, 1, 60, 64
4, 32928, Note_on_c, 1, 57, 64
4, 32928, Note_on_c, 1, 54, 64
4, 32928, Note_on_c, 1, 50, 64
4, 32973, Note_on_c, 1, 60, 0
4, 32973, Note_on_c, 1, 57, 0
4, 32973, Note_on_c, 1, 54, 0
4, 32973, Note_on_c, 1, 50, 0
4, 32976, Note_on_c, 1, 60, 64
4, 32976, Note_on_c, 1, 57, 64
4, 32976, Note_on_c, 1, 54, 64
4, 32976, Note_on_c, 1, 50, 64
4, 33021, Note_on_c, 1, 60, 0
4, 33021, Note_on_c, 1, 57, 0
4, 33021, Note_on_c, 1, 54, 0
4, 33021, Note_on_c, 1, 50, 0
4, 33024, Note_on_c, 1, 59, 64
4, 33024, Note_on_c, 1, 55, 64
4, 33069, Note_on_c, 1, 59, 0
4, 33069, Note_on_c, 1, 55, 0
4, 33120, Note_on_c, 1, 50, 64
4, 33120, Note_on_c, 1, 38, 64
4, 33165, Note_on_c, 1, 50, 0
4, 33165, Note_on_c, 1, 38, 0
4, 33216, Note_on_c, 1, 43, 64
4, 33216, Note_on_c, 1, 31, 64
4, 33283, Note_on_c, 1, 43, 0
4, 33283, Note_on_c, 1, 31, 0
4, 33408, End_track
5, 0, Start_track
5, 0, Program_c, 1, 0
5, 0, Control_c, 1, 7, 127
5, 0, Control_c, 1, 10, 64
5, 672, Note_on_c, 1, 60, 64
5, 717, Note_on_c, 1, 60, 0
5, 720, Note_on_c, 1, 61, 64
5, 765, Note_on_c, 1, 61, 0
5, 1344, Note_on_c, 1, 54, 64
5, 1389, Note_on_c, 1, 54, 0
5, 1392, Note_on_c, 1, 55, 64
5, 1437, Note_on_c, 1, 55, 0
5, 1440, Note_on_c, 1, 57, 64
5, 1529, Note_on_c, 1, 57, 0
5, 2208, Note_on_c, 1, 60, 64
5, 2253, Note_on_c, 1, 60, 0
5, 2256, Note_on_c, 1, 61, 64
5, 2301, Note_on_c, 1, 61, 0
5, 2880, Note_on_c, 1, 54, 64
5, 2925, Note_on_c, 1, 54, 0
5, 2928, Note_on_c, 1, 55, 64
5, 2973, Note_on_c, 1, 55, 0
5, 2976, Note_on_c, 1, 57, 64
5, 3065, Note_on_c, 1, 57, 0
5, 7536, Note_on_c, 1, 51, 64
5, 7581, Note_on_c, 1, 51, 0
5, 7584, Note_on_c, 1, 53, 64
5, 7629, Note_on_c, 1, 53, 0
5, 7632, Note_on_c, 1, 53, 64
5, 7677, Note_on_c, 1, 53, 0
5, 9072, Note_on_c, 1, 51, 64
5, 9117, Note_on_c, 1, 51, 0
5, 9120, Note_on_c, 1, 53, 64
5, 9165, Note_on_c, 1, 53, 0
5, 9168, Note_on_c, 1, 53, 64
5, 9213, Note_on_c, 1, 53, 0
5, 9408, Note_on_c, 1, 55, 64
5, 9645, Note_on_c, 1, 55, 0
5, 9648, Note_on_c, 1, 60, 64
5, 9693, Note_on_c, 1, 60, 0
5, 9792, Note_on_c, 1, 57, 64
5, 10029, Note_on_c, 1, 57, 0
5, 10032, Note_on_c, 1, 62, 64
5, 10077, Note_on_c, 1, 62, 0
5, 10080, Note_on_c, 1, 62, 64
5, 10353, Note_on_c, 1, 62, 0
5, 10368, Note_on_c, 1, 62, 64
5, 10413, Note_on_c, 1, 62, 0
5, 11424, Note_on_c, 1, 60, 64
5, 11469, Note_on_c, 1, 60, 0
5, 11472, Note_on_c, 1, 61, 64
5, 11517, Note_on_c, 1, 61, 0
5, 11520, Note_on_c, 1, 62, 64
5, 11565, Note_on_c, 1, 62, 0
5, 12960, Note_on_c, 1, 62, 64
5, 13005, Note_on_c, 1, 62, 0
5, 13008, Note_on_c, 1, 61, 64
5, 13053, Note_on_c, 1, 61, 0
5, 14496, Note_on_c, 1, 62, 64
5, 14541, Note_on_c, 1, 62, 0
5, 14544, Note_on_c, 1, 61, 64
5, 14589, Note_on_c, 1, 61, 0
5, 21648, Note_on_c, 1, 59, 64
5, 21977, Note_on_c, 1, 59, 0
5, 22032, Note_on_c, 1, 59, 64
5, 22317, Note_on_c, 1, 59, 0
5, 24864, Note_on_c, 1, 60, 64
5, 24909, Note_on_c, 1, 60, 0
5, 24912, Note_on_c, 1, 61, 64
5, 24957, Note_on_c, 1, 61, 0
5, 25632, Note_on_c, 1, 60, 64
5, 25677, Note_on_c, 1, 60, 0
5, 25680, Note_on_c, 1, 61, 64
5, 25725, Note_on_c, 1, 61, 0
5, 26304, Note_on_c, 1, 55, 64
5, 26349, Note_on_c, 1, 55, 0
5, 26352, Note_on_c, 1, 55, 64
5, 26397, Note_on_c, 1, 55, 0
5, 26400, Note_on_c, 1, 57, 64
5, 26489, Note_on_c, 1, 57, 0
5, 27168, Note_on_c, 1, 60, 64
5, 27213, Note_on_c, 1, 60, 0
5, 27216, Note_on_c, 1, 61, 64
5, 27261, Note_on_c, 1, 61, 0
5, 27840, Note_on_c, 1, 55, 64
5, 27885, Note_on_c, 1, 55, 0
5, 27888, Note_on_c, 1, 55, 64
5, 27933, Note_on_c, 1, 55, 0
5, 27936, Note_on_c, 1, 57, 64
5, 28025, Note_on_c, 1, 57, 0
5, 29184, Note_on_c, 1, 60, 64
5, 29376, Note_on_c, 1, 60, 0
5, 29376, Note_on_c, 1, 59, 64
5, 29421, Note_on_c, 1, 59, 0
5, 29424, Note_on_c, 1, 60, 64
5, 29469, Note_on_c, 1, 60, 0
5, 29472, Note_on_c, 1, 62, 64
5, 29561, Note_on_c, 1, 62, 0
5, 30720, Note_on_c, 1, 60, 64
5, 30912, Note_on_c, 1, 60, 0
5, 30912, Note_on_c, 1, 59, 64
5, 30957, Note_on_c, 1, 59, 0
5, 30960, Note_on_c, 1, 60, 64
5, 31005, Note_on_c, 1, 60, 0
5, 31008, Note_on_c, 1, 62, 64
5, 31097, Note_on_c, 1, 62, 0
5, 33408, End_track
6, 0, Start_track
6, 0, Title_t, "Sonata V   Haydn"
6, 0, End_track
0, 0, End_of_file
