0, 0, Header, 1, 3, 480
1, 0, Start_track
1, 0, Title_t, "nameless"
1, 0, Time_signature, 2, 2, 24, 8
1, 0, Tempo, 882353
1, 89294, Tempo, 882353
1, 89934, Tempo, 1052632
1, 90909, Tempo, 882353
1, 102734, Tempo, 882353
1, 103374, Tempo, 1052632
1, 103694, Tempo, 882353
1, 126887, Tempo, 923077
1, 127131, Tempo, 983607
1, 127374, Tempo, 1052632
1, 127617, Tempo, 1132075
1, 128349, Tempo, 882353
1, 166247, Tempo, 923077
1, 166491, Tempo, 983607
1, 166734, Tempo, 1052632
1, 166977, Tempo, 1132075
1, 167709, Tempo, 882353
1, 168000, End_track
2, 0, Start_track
2, 0, MIDI_port, 0
2, 0, Channel_prefix, 0
2, 0, Title_t, "Piano R.H."
2, 0, Key_signature, -1, "major"
2, 0, Control_c, 0, 0, 0
2, 5, Program_c, 0, 0
2, 10, Control_c, 0, 7, 127
2, 15, Control_c, 0, 10, 64
2, 20, Control_c, 0, 91, 74
2, 25, Control_c, 0, 93, 0
2, 30, Control_c, 0, 94, 0
2, 35, Control_c, 0, 5, 0
2, 40, Control_c, 0, 11, 127
2, 960, Control_c, 0, 101, 0
2, 965, Control_c, 0, 100, 0
2, 970, Control_c, 0, 6, 2
2, 975, Control_c, 0, 101, 127
2, 980, Control_c, 0, 100, 127
2, 2640, Note_on_c, 0, 72, 74
2, 2818, Note_off_c, 0, 72, 74
2, 2820, Note_on_c, 0, 69, 74
2, 2878, Note_off_c, 0, 69, 74
2, 2880, Note_on_c, 0, 65, 68
2, 2950, Note_off_c, 0, 65, 68
2, 3120, Note_on_c, 0, 69, 66
2, 3298, Note_off_c, 0, 69, 66
2, 3300, Note_on_c, 0, 65, 66
2, 3358, Note_off_c, 0, 65, 66
2, 3360, Note_on_c, 0, 64, 60
2, 3430, Note_off_c, 0, 64, 60
2, 3600, Note_on_c, 0, 67, 73
2, 3778, Note_off_c, 0, 67, 73
2, 3780, Note_on_c, 0, 64, 52
2, 3838, Note_off_c, 0, 64, 52
2, 3840, Note_on_c, 0, 65, 68
2, 3910, Note_off_c, 0, 65, 68
2, 4080, Note_on_c, 0, 74, 76
2, 4080, Note_on_c, 0, 70, 67
2, 4318, Note_off_c, 0, 74, 76
2, 4318, Note_off_c, 0, 70, 67
2, 4320, Note_on_c, 0, 72, 61
2, 4320, Note_on_c, 0, 69, 56
2, 4438, Note_off_c, 0, 72, 61
2, 4438, Note_off_c, 0, 69, 56
2, 4560, Note_on_c, 0, 79, 77
2, 4618, Note_off_c, 0, 79, 77
2, 4620, Note_on_c, 0, 77, 73
2, 4678, Note_off_c, 0, 77, 73
2, 4680, Note_on_c, 0, 76, 65
2, 4738, Note_off_c, 0, 76, 65
2, 4740, Note_on_c, 0, 74, 71
2, 4798, Note_off_c, 0, 74, 71
2, 4800, Note_on_c, 0, 72, 65
2, 5038, Note_off_c, 0, 72, 65
2, 5040, Note_on_c, 0, 81, 74
2, 5118, Note_off_c, 0, 81, 74
2, 5120, Note_on_c, 0, 69, 58
2, 5198, Note_off_c, 0, 69, 58
2, 5200, Note_on_c, 0, 74, 65
2, 5278, Note_off_c, 0, 74, 65
2, 5280, Note_on_c, 0, 72, 68
2, 5518, Note_off_c, 0, 72, 68
2, 5520, Note_on_c, 0, 70, 63
2, 5546, Note_off_c, 0, 70, 63
2, 5568, Note_on_c, 0, 72, 66
2, 5594, Note_off_c, 0, 72, 66
2, 5616, Note_on_c, 0, 70, 60
2, 5642, Note_off_c, 0, 70, 60
2, 5664, Note_on_c, 0, 69, 78
2, 5690, Note_off_c, 0, 69, 78
2, 5712, Note_on_c, 0, 70, 71
2, 5738, Note_off_c, 0, 70, 71
2, 5760, Note_on_c, 0, 70, 63
2, 6238, Note_off_c, 0, 70, 63
2, 6240, Note_on_c, 0, 69, 55
2, 6358, Note_off_c, 0, 69, 55
2, 6480, Note_on_c, 0, 72, 66
2, 6538, Note_off_c, 0, 72, 66
2, 6540, Note_on_c, 0, 69, 74
2, 6598, Note_off_c, 0, 69, 74
2, 6600, Note_on_c, 0, 72, 66
2, 6658, Note_off_c, 0, 72, 66
2, 6660, Note_on_c, 0, 69, 79
2, 6718, Note_off_c, 0, 69, 79
2, 6720, Note_on_c, 0, 65, 68
2, 6778, Note_off_c, 0, 65, 68
2, 6960, Note_on_c, 0, 70, 61
2, 7018, Note_off_c, 0, 70, 61
2, 7020, Note_on_c, 0, 69, 68
2, 7078, Note_off_c, 0, 69, 68
2, 7080, Note_on_c, 0, 67, 68
2, 7138, Note_off_c, 0, 67, 68
2, 7140, Note_on_c, 0, 65, 65
2, 7198, Note_off_c, 0, 65, 65
2, 7200, Note_on_c, 0, 64, 68
2, 7258, Note_off_c, 0, 64, 68
2, 7440, Note_on_c, 0, 69, 72
2, 7498, Note_off_c, 0, 69, 72
2, 7500, Note_on_c, 0, 67, 76
2, 7558, Note_off_c, 0, 67, 76
2, 7560, Note_on_c, 0, 65, 71
2, 7618, Note_off_c, 0, 65, 71
2, 7620, Note_on_c, 0, 64, 57
2, 7678, Note_off_c, 0, 64, 57
2, 7680, Note_on_c, 0, 65, 76
2, 7738, Note_off_c, 0, 65, 76
2, 7800, Note_on_c, 0, 74, 67
2, 7858, Note_off_c, 0, 74, 67
2, 7860, Note_on_c, 0, 76, 74
2, 7918, Note_off_c, 0, 76, 74
2, 7920, Note_on_c, 0, 79, 74
2, 7978, Note_off_c, 0, 79, 74
2, 7980, Note_on_c, 0, 77, 76
2, 8038, Note_off_c, 0, 77, 76
2, 8040, Note_on_c, 0, 76, 81
2, 8098, Note_off_c, 0, 76, 81
2, 8100, Note_on_c, 0, 74, 65
2, 8158, Note_off_c, 0, 74, 65
2, 8160, Note_on_c, 0, 72, 74
2, 8398, Note_off_c, 0, 72, 74
2, 8400, Note_on_c, 0, 84, 81
2, 8458, Note_off_c, 0, 84, 81
2, 8460, Note_on_c, 0, 81, 78
2, 8518, Note_off_c, 0, 81, 78
2, 8520, Note_on_c, 0, 77, 72
2, 8578, Note_off_c, 0, 77, 72
2, 8580, Note_on_c, 0, 72, 65
2, 8638, Note_off_c, 0, 72, 65
2, 8640, Note_on_c, 0, 69, 57
2, 9118, Note_off_c, 0, 69, 57
2, 9120, Note_on_c, 0, 70, 50
2, 9178, Note_off_c, 0, 70, 50
2, 9360, Note_on_c, 0, 82, 72
2, 9418, Note_off_c, 0, 82, 72
2, 9420, Note_on_c, 0, 79, 61
2, 9478, Note_off_c, 0, 79, 61
2, 9480, Note_on_c, 0, 76, 67
2, 9538, Note_off_c, 0, 76, 67
2, 9540, Note_on_c, 0, 72, 55
2, 9598, Note_off_c, 0, 72, 55
2, 9600, Note_on_c, 0, 70, 55
2, 10078, Note_off_c, 0, 70, 55
2, 10080, Note_on_c, 0, 69, 52
2, 10138, Note_off_c, 0, 69, 52
2, 10320, Note_on_c, 0, 77, 73
2, 10378, Note_off_c, 0, 77, 73
2, 10380, Note_on_c, 0, 72, 74
2, 10438, Note_off_c, 0, 72, 74
2, 10440, Note_on_c, 0, 69, 74
2, 10498, Note_off_c, 0, 69, 74
2, 10500, Note_on_c, 0, 65, 76
2, 10558, Note_off_c, 0, 65, 76
2, 10560, Note_on_c, 0, 63, 68
2, 11638, Note_off_c, 0, 63, 68
2, 11640, Note_on_c, 0, 61, 68
2, 11758, Note_off_c, 0, 61, 68
2, 11760, Note_on_c, 0, 62, 68
2, 11878, Note_off_c, 0, 62, 68
2, 11880, Note_on_c, 0, 66, 74
2, 11998, Note_off_c, 0, 66, 74
2, 12000, Note_on_c, 0, 67, 77
2, 12118, Note_off_c, 0, 67, 77
2, 12120, Note_on_c, 0, 69, 71
2, 12238, Note_off_c, 0, 69, 71
2, 12240, Note_on_c, 0, 70, 76
2, 12358, Note_off_c, 0, 70, 76
2, 12360, Note_on_c, 0, 70, 61
2, 12360, Note_on_c, 0, 74, 74
2, 12421, Note_off_c, 0, 70, 61
2, 12421, Note_off_c, 0, 74, 74
2, 12480, Note_on_c, 0, 74, 77
2, 12480, Note_on_c, 0, 70, 71
2, 12598, Note_off_c, 0, 74, 77
2, 12598, Note_off_c, 0, 70, 71
2, 12600, Note_on_c, 0, 72, 63
2, 12600, Note_on_c, 0, 69, 68
2, 12718, Note_off_c, 0, 72, 63
2, 12718, Note_off_c, 0, 69, 68
2, 12720, Note_on_c, 0, 70, 62
2, 12720, Note_on_c, 0, 67, 56
2, 12781, Note_off_c, 0, 70, 62
2, 12781, Note_off_c, 0, 67, 56
2, 12840, Note_on_c, 0, 69, 66
2, 12840, Note_on_c, 0, 65, 67
2, 12901, Note_off_c, 0, 69, 66
2, 12901, Note_off_c, 0, 65, 67
2, 12960, Note_on_c, 0, 69, 70
2, 12960, Note_on_c, 0, 72, 73
2, 13078, Note_off_c, 0, 69, 70
2, 13078, Note_off_c, 0, 72, 73
2, 13080, Note_on_c, 0, 70, 71
2, 13080, Note_on_c, 0, 67, 60
2, 13198, Note_off_c, 0, 70, 71
2, 13198, Note_off_c, 0, 67, 60
2, 13200, Note_on_c, 0, 69, 67
2, 13200, Note_on_c, 0, 65, 52
2, 13261, Note_off_c, 0, 69, 67
2, 13261, Note_off_c, 0, 65, 52
2, 13320, Note_on_c, 0, 67, 62
2, 13320, Note_on_c, 0, 64, 53
2, 13381, Note_off_c, 0, 67, 62
2, 13381, Note_off_c, 0, 64, 53
2, 13440, Note_on_c, 0, 64, 52
2, 13440, Note_on_c, 0, 67, 51
2, 13918, Note_off_c, 0, 64, 52
2, 13918, Note_off_c, 0, 67, 51
2, 13920, Note_on_c, 0, 65, 60
2, 14038, Note_off_c, 0, 65, 60
2, 14160, Note_on_c, 0, 84, 74
2, 14218, Note_off_c, 0, 84, 74
2, 14220, Note_on_c, 0, 81, 78
2, 14278, Note_off_c, 0, 81, 78
2, 14280, Note_on_c, 0, 84, 61
2, 14338, Note_off_c, 0, 84, 61
2, 14340, Note_on_c, 0, 81, 71
2, 14398, Note_off_c, 0, 81, 71
2, 14400, Note_on_c, 0, 77, 71
2, 14518, Note_off_c, 0, 77, 71
2, 14760, Note_on_c, 0, 81, 71
2, 14878, Note_off_c, 0, 81, 71
2, 14880, Note_on_c, 0, 79, 68
2, 14998, Note_off_c, 0, 79, 68
2, 15000, Note_on_c, 0, 77, 63
2, 15118, Note_off_c, 0, 77, 63
2, 15120, Note_on_c, 0, 76, 62
2, 15238, Note_off_c, 0, 76, 62
2, 15240, Note_on_c, 0, 74, 53
2, 15358, Note_off_c, 0, 74, 53
2, 15360, Note_on_c, 0, 74, 70
2, 15718, Note_off_c, 0, 74, 70
2, 15720, Note_on_c, 0, 76, 58
2, 15778, Note_off_c, 0, 76, 58
2, 15780, Note_on_c, 0, 74, 52
2, 15838, Note_off_c, 0, 74, 52
2, 15840, Note_on_c, 0, 73, 62
2, 15898, Note_off_c, 0, 73, 62
2, 16080, Note_on_c, 0, 76, 68
2, 16138, Note_off_c, 0, 76, 68
2, 16140, Note_on_c, 0, 73, 62
2, 16198, Note_off_c, 0, 73, 62
2, 16200, Note_on_c, 0, 76, 66
2, 16258, Note_off_c, 0, 76, 66
2, 16260, Note_on_c, 0, 73, 60
2, 16318, Note_off_c, 0, 73, 60
2, 16320, Note_on_c, 0, 69, 70
2, 16438, Note_off_c, 0, 69, 70
2, 16680, Note_on_c, 0, 82, 71
2, 16738, Note_off_c, 0, 82, 71
2, 16800, Note_on_c, 0, 81, 66
2, 16858, Note_off_c, 0, 81, 66
2, 16920, Note_on_c, 0, 79, 65
2, 16978, Note_off_c, 0, 79, 65
2, 17040, Note_on_c, 0, 77, 67
2, 17098, Note_off_c, 0, 77, 67
2, 17160, Note_on_c, 0, 76, 67
2, 17278, Note_off_c, 0, 76, 67
2, 17280, Note_on_c, 0, 79, 68
2, 17638, Note_off_c, 0, 79, 68
2, 17640, Note_on_c, 0, 76, 68
2, 17758, Note_off_c, 0, 76, 68
2, 17760, Note_on_c, 0, 77, 74
2, 17878, Note_off_c, 0, 77, 74
2, 18000, Note_on_c, 0, 81, 66
2, 18058, Note_off_c, 0, 81, 66
2, 18060, Note_on_c, 0, 77, 76
2, 18118, Note_off_c, 0, 77, 76
2, 18120, Note_on_c, 0, 81, 74
2, 18178, Note_off_c, 0, 81, 74
2, 18180, Note_on_c, 0, 77, 62
2, 18238, Note_off_c, 0, 77, 62
2, 18240, Note_on_c, 0, 74, 74
2, 18358, Note_off_c, 0, 74, 74
2, 18600, Note_on_c, 0, 86, 77
2, 18658, Note_off_c, 0, 86, 77
2, 18720, Note_on_c, 0, 84, 77
2, 18778, Note_off_c, 0, 84, 77
2, 18840, Note_on_c, 0, 83, 76
2, 18898, Note_off_c, 0, 83, 76
2, 18960, Note_on_c, 0, 81, 78
2, 19018, Note_off_c, 0, 81, 78
2, 19080, Note_on_c, 0, 79, 77
2, 19138, Note_off_c, 0, 79, 77
2, 19200, Note_on_c, 0, 77, 71
2, 19438, Note_off_c, 0, 77, 71
2, 19440, Note_on_c, 0, 76, 66
2, 19558, Note_off_c, 0, 76, 66
2, 19560, Note_on_c, 0, 79, 74
2, 19618, Note_off_c, 0, 79, 74
2, 19680, Note_on_c, 0, 77, 65
2, 19738, Note_off_c, 0, 77, 65
2, 19800, Note_on_c, 0, 76, 68
2, 19858, Note_off_c, 0, 76, 68
2, 19920, Note_on_c, 0, 74, 72
2, 19978, Note_off_c, 0, 74, 72
2, 20040, Note_on_c, 0, 72, 65
2, 20158, Note_off_c, 0, 72, 65
2, 20160, Note_on_c, 0, 71, 70
2, 20398, Note_off_c, 0, 71, 70
2, 20400, Note_on_c, 0, 69, 72
2, 20458, Note_off_c, 0, 69, 72
2, 20460, Note_on_c, 0, 74, 74
2, 20518, Note_off_c, 0, 74, 74
2, 20520, Note_on_c, 0, 77, 81
2, 20578, Note_off_c, 0, 77, 81
2, 20580, Note_on_c, 0, 81, 77
2, 20638, Note_off_c, 0, 81, 77
2, 20640, Note_on_c, 0, 79, 67
2, 20698, Note_off_c, 0, 79, 67
2, 20760, Note_on_c, 0, 77, 66
2, 20878, Note_off_c, 0, 77, 66
2, 20880, Note_on_c, 0, 76, 74
2, 20938, Note_off_c, 0, 76, 74
2, 21000, Note_on_c, 0, 74, 66
2, 21058, Note_off_c, 0, 74, 66
2, 21120, Note_on_c, 0, 72, 66
2, 21358, Note_off_c, 0, 72, 66
2, 21360, Note_on_c, 0, 71, 63
2, 21598, Note_off_c, 0, 71, 63
2, 22140, Note_on_c, 0, 79, 71
2, 22198, Note_off_c, 0, 79, 71
2, 22200, Note_on_c, 0, 81, 71
2, 22258, Note_off_c, 0, 81, 71
2, 22260, Note_on_c, 0, 79, 66
2, 22318, Note_off_c, 0, 79, 66
2, 22320, Note_on_c, 0, 84, 74
2, 22378, Note_off_c, 0, 84, 74
2, 22380, Note_on_c, 0, 83, 76
2, 22438, Note_off_c, 0, 83, 76
2, 22440, Note_on_c, 0, 81, 89
2, 22498, Note_off_c, 0, 81, 89
2, 22500, Note_on_c, 0, 79, 72
2, 22558, Note_off_c, 0, 79, 72
2, 22560, Note_on_c, 0, 77, 66
2, 22618, Note_off_c, 0, 77, 66
2, 22620, Note_on_c, 0, 76, 94
2, 22678, Note_off_c, 0, 76, 94
2, 22680, Note_on_c, 0, 74, 72
2, 22738, Note_off_c, 0, 74, 72
2, 22740, Note_on_c, 0, 72, 76
2, 22798, Note_off_c, 0, 72, 76
2, 22800, Note_on_c, 0, 71, 72
2, 22858, Note_off_c, 0, 71, 72
2, 22860, Note_on_c, 0, 72, 60
2, 22918, Note_off_c, 0, 72, 60
2, 22920, Note_on_c, 0, 74, 77
2, 22978, Note_off_c, 0, 74, 77
2, 22980, Note_on_c, 0, 72, 66
2, 23038, Note_off_c, 0, 72, 66
2, 23040, Note_on_c, 0, 69, 74
2, 23098, Note_off_c, 0, 69, 74
2, 23100, Note_on_c, 0, 72, 55
2, 23158, Note_off_c, 0, 72, 55
2, 23160, Note_on_c, 0, 74, 58
2, 23218, Note_off_c, 0, 74, 58
2, 23220, Note_on_c, 0, 72, 57
2, 23278, Note_off_c, 0, 72, 57
2, 23280, Note_on_c, 0, 67, 77
2, 23338, Note_off_c, 0, 67, 77
2, 23340, Note_on_c, 0, 72, 62
2, 23398, Note_off_c, 0, 72, 62
2, 23400, Note_on_c, 0, 74, 68
2, 23458, Note_off_c, 0, 74, 68
2, 23460, Note_on_c, 0, 72, 56
2, 23518, Note_off_c, 0, 72, 56
2, 23520, Note_on_c, 0, 65, 71
2, 23638, Note_off_c, 0, 65, 71
2, 23640, Note_on_c, 0, 77, 73
2, 23758, Note_off_c, 0, 77, 73
2, 23880, Note_on_c, 0, 77, 70
2, 23998, Note_off_c, 0, 77, 70
2, 24000, Note_on_c, 0, 76, 61
2, 24058, Note_off_c, 0, 76, 61
2, 24060, Note_on_c, 0, 79, 56
2, 24118, Note_off_c, 0, 79, 56
2, 24120, Note_on_c, 0, 81, 56
2, 24178, Note_off_c, 0, 81, 56
2, 24180, Note_on_c, 0, 79, 51
2, 24238, Note_off_c, 0, 79, 51
2, 24240, Note_on_c, 0, 84, 59
2, 24298, Note_off_c, 0, 84, 59
2, 24300, Note_on_c, 0, 83, 61
2, 24358, Note_off_c, 0, 83, 61
2, 24360, Note_on_c, 0, 81, 74
2, 24418, Note_off_c, 0, 81, 74
2, 24420, Note_on_c, 0, 79, 57
2, 24478, Note_off_c, 0, 79, 57
2, 24480, Note_on_c, 0, 77, 51
2, 24538, Note_off_c, 0, 77, 51
2, 24540, Note_on_c, 0, 76, 79
2, 24598, Note_off_c, 0, 76, 79
2, 24600, Note_on_c, 0, 74, 57
2, 24658, Note_off_c, 0, 74, 57
2, 24660, Note_on_c, 0, 72, 61
2, 24718, Note_off_c, 0, 72, 61
2, 24720, Note_on_c, 0, 71, 57
2, 24778, Note_off_c, 0, 71, 57
2, 24780, Note_on_c, 0, 72, 45
2, 24838, Note_off_c, 0, 72, 45
2, 24840, Note_on_c, 0, 74, 62
2, 24898, Note_off_c, 0, 74, 62
2, 24900, Note_on_c, 0, 72, 51
2, 24958, Note_off_c, 0, 72, 51
2, 24960, Note_on_c, 0, 69, 59
2, 25018, Note_off_c, 0, 69, 59
2, 25020, Note_on_c, 0, 72, 40
2, 25078, Note_off_c, 0, 72, 40
2, 25080, Note_on_c, 0, 74, 43
2, 25138, Note_off_c, 0, 74, 43
2, 25140, Note_on_c, 0, 72, 42
2, 25198, Note_off_c, 0, 72, 42
2, 25200, Note_on_c, 0, 67, 62
2, 25258, Note_off_c, 0, 67, 62
2, 25260, Note_on_c, 0, 72, 47
2, 25318, Note_off_c, 0, 72, 47
2, 25320, Note_on_c, 0, 74, 53
2, 25378, Note_off_c, 0, 74, 53
2, 25380, Note_on_c, 0, 72, 41
2, 25438, Note_off_c, 0, 72, 41
2, 25440, Note_on_c, 0, 65, 56
2, 25558, Note_off_c, 0, 65, 56
2, 25560, Note_on_c, 0, 77, 58
2, 25678, Note_off_c, 0, 77, 58
2, 25800, Note_on_c, 0, 77, 60
2, 25918, Note_off_c, 0, 77, 60
2, 25920, Note_on_c, 0, 76, 56
2, 25978, Note_off_c, 0, 76, 56
2, 25980, Note_on_c, 0, 77, 56
2, 26038, Note_off_c, 0, 77, 56
2, 26040, Note_on_c, 0, 79, 70
2, 26098, Note_off_c, 0, 79, 70
2, 26100, Note_on_c, 0, 77, 67
2, 26158, Note_off_c, 0, 77, 67
2, 26160, Note_on_c, 0, 76, 73
2, 26218, Note_off_c, 0, 76, 73
2, 26220, Note_on_c, 0, 74, 67
2, 26278, Note_off_c, 0, 74, 67
2, 26280, Note_on_c, 0, 72, 73
2, 26338, Note_off_c, 0, 72, 73
2, 26340, Note_on_c, 0, 71, 60
2, 26398, Note_off_c, 0, 71, 60
2, 26400, Note_on_c, 0, 72, 67
2, 26458, Note_off_c, 0, 72, 67
2, 26460, Note_on_c, 0, 74, 77
2, 26518, Note_off_c, 0, 74, 77
2, 26520, Note_on_c, 0, 76, 76
2, 26578, Note_off_c, 0, 76, 76
2, 26580, Note_on_c, 0, 74, 74
2, 26638, Note_off_c, 0, 74, 74
2, 26640, Note_on_c, 0, 72, 79
2, 26698, Note_off_c, 0, 72, 79
2, 26700, Note_on_c, 0, 71, 68
2, 26758, Note_off_c, 0, 71, 68
2, 26760, Note_on_c, 0, 69, 62
2, 26818, Note_off_c, 0, 69, 62
2, 26820, Note_on_c, 0, 68, 77
2, 26878, Note_off_c, 0, 68, 77
2, 26940, Note_on_c, 0, 69, 39
2, 26998, Note_off_c, 0, 69, 39
2, 27000, Note_on_c, 0, 71, 67
2, 27058, Note_off_c, 0, 71, 67
2, 27060, Note_on_c, 0, 73, 73
2, 27118, Note_off_c, 0, 73, 73
2, 27120, Note_on_c, 0, 74, 68
2, 27178, Note_off_c, 0, 74, 68
2, 27180, Note_on_c, 0, 76, 81
2, 27238, Note_off_c, 0, 76, 81
2, 27240, Note_on_c, 0, 77, 81
2, 27298, Note_off_c, 0, 77, 81
2, 27300, Note_on_c, 0, 79, 81
2, 27358, Note_off_c, 0, 79, 81
2, 27360, Note_on_c, 0, 81, 89
2, 27418, Note_off_c, 0, 81, 89
2, 27420, Note_on_c, 0, 77, 74
2, 27478, Note_off_c, 0, 77, 74
2, 27480, Note_on_c, 0, 74, 62
2, 27538, Note_off_c, 0, 74, 62
2, 27540, Note_on_c, 0, 69, 65
2, 27598, Note_off_c, 0, 69, 65
2, 27600, Note_on_c, 0, 79, 76
2, 27658, Note_off_c, 0, 79, 76
2, 27660, Note_on_c, 0, 76, 57
2, 27718, Note_off_c, 0, 76, 57
2, 27720, Note_on_c, 0, 72, 62
2, 27778, Note_off_c, 0, 72, 62
2, 27780, Note_on_c, 0, 67, 63
2, 27838, Note_off_c, 0, 67, 63
2, 27900, Note_on_c, 0, 77, 77
2, 27958, Note_off_c, 0, 77, 77
2, 27960, Note_on_c, 0, 79, 74
2, 28018, Note_off_c, 0, 79, 74
2, 28020, Note_on_c, 0, 81, 79
2, 28078, Note_off_c, 0, 81, 79
2, 28080, Note_on_c, 0, 83, 83
2, 28138, Note_off_c, 0, 83, 83
2, 28140, Note_on_c, 0, 84, 73
2, 28198, Note_off_c, 0, 84, 73
2, 28200, Note_on_c, 0, 86, 94
2, 28258, Note_off_c, 0, 86, 94
2, 28260, Note_on_c, 0, 88, 83
2, 28318, Note_off_c, 0, 88, 83
2, 28320, Note_on_c, 0, 89, 89
2, 28378, Note_off_c, 0, 89, 89
2, 28380, Note_on_c, 0, 86, 94
2, 28438, Note_off_c, 0, 86, 94
2, 28440, Note_on_c, 0, 83, 89
2, 28498, Note_off_c, 0, 83, 89
2, 28500, Note_on_c, 0, 77, 68
2, 28558, Note_off_c, 0, 77, 68
2, 28560, Note_on_c, 0, 76, 72
2, 28678, Note_off_c, 0, 76, 72
2, 28680, Note_on_c, 0, 84, 66
2, 28798, Note_off_c, 0, 84, 66
2, 28920, Note_on_c, 0, 77, 67
2, 28920, Note_on_c, 0, 81, 67
2, 29038, Note_off_c, 0, 77, 67
2, 29038, Note_off_c, 0, 81, 67
2, 29040, Note_on_c, 0, 76, 52
2, 29040, Note_on_c, 0, 79, 57
2, 29158, Note_off_c, 0, 76, 52
2, 29158, Note_off_c, 0, 79, 57
2, 29160, Note_on_c, 0, 74, 68
2, 29160, Note_on_c, 0, 77, 62
2, 29278, Note_off_c, 0, 74, 68
2, 29278, Note_off_c, 0, 77, 62
2, 29280, Note_on_c, 0, 72, 66
2, 29280, Note_on_c, 0, 76, 63
2, 29338, Note_off_c, 0, 72, 66
2, 29338, Note_off_c, 0, 76, 63
2, 29400, Note_on_c, 0, 79, 66
2, 29400, Note_on_c, 0, 76, 61
2, 29458, Note_off_c, 0, 79, 66
2, 29458, Note_off_c, 0, 76, 61
2, 29640, Note_on_c, 0, 71, 56
2, 29640, Note_on_c, 0, 65, 52
2, 29698, Note_off_c, 0, 71, 56
2, 29698, Note_off_c, 0, 65, 52
2, 29880, Note_on_c, 0, 72, 62
2, 29880, Note_on_c, 0, 63, 43
2, 29938, Note_off_c, 0, 72, 62
2, 29938, Note_off_c, 0, 63, 43
2, 30120, Note_on_c, 0, 75, 66
2, 30178, Note_off_c, 0, 75, 66
2, 30300, Note_on_c, 0, 75, 37
2, 30358, Note_off_c, 0, 75, 37
2, 30360, Note_on_c, 0, 74, 48
2, 30418, Note_off_c, 0, 74, 48
2, 30420, Note_on_c, 0, 75, 46
2, 30478, Note_off_c, 0, 75, 46
2, 30480, Note_on_c, 0, 77, 67
2, 30538, Note_off_c, 0, 77, 67
2, 30540, Note_on_c, 0, 75, 67
2, 30598, Note_off_c, 0, 75, 67
2, 30600, Note_on_c, 0, 74, 70
2, 30658, Note_off_c, 0, 74, 70
2, 30660, Note_on_c, 0, 75, 74
2, 30718, Note_off_c, 0, 75, 74
2, 30720, Note_on_c, 0, 84, 65
2, 30838, Note_off_c, 0, 84, 65
2, 30840, Note_on_c, 0, 75, 45
2, 30898, Note_off_c, 0, 75, 45
2, 31080, Note_on_c, 0, 75, 57
2, 31138, Note_off_c, 0, 75, 57
2, 31260, Note_on_c, 0, 75, 58
2, 31318, Note_off_c, 0, 75, 58
2, 31320, Note_on_c, 0, 74, 53
2, 31378, Note_off_c, 0, 74, 53
2, 31380, Note_on_c, 0, 75, 58
2, 31438, Note_off_c, 0, 75, 58
2, 31440, Note_on_c, 0, 77, 78
2, 31498, Note_off_c, 0, 77, 78
2, 31500, Note_on_c, 0, 75, 74
2, 31558, Note_off_c, 0, 75, 74
2, 31560, Note_on_c, 0, 74, 66
2, 31618, Note_off_c, 0, 74, 66
2, 31620, Note_on_c, 0, 75, 78
2, 31678, Note_off_c, 0, 75, 78
2, 31680, Note_on_c, 0, 84, 74
2, 31798, Note_off_c, 0, 84, 74
2, 31800, Note_on_c, 0, 75, 60
2, 31858, Note_off_c, 0, 75, 60
2, 32040, Note_on_c, 0, 75, 52
2, 32098, Note_off_c, 0, 75, 52
2, 32220, Note_on_c, 0, 75, 62
2, 32278, Note_off_c, 0, 75, 62
2, 32280, Note_on_c, 0, 74, 55
2, 32338, Note_off_c, 0, 74, 55
2, 32340, Note_on_c, 0, 75, 61
2, 32398, Note_off_c, 0, 75, 61
2, 32400, Note_on_c, 0, 77, 72
2, 32458, Note_off_c, 0, 77, 72
2, 32460, Note_on_c, 0, 75, 65
2, 32518, Note_off_c, 0, 75, 65
2, 32520, Note_on_c, 0, 74, 72
2, 32578, Note_off_c, 0, 74, 72
2, 32580, Note_on_c, 0, 72, 72
2, 32638, Note_off_c, 0, 72, 72
2, 32640, Note_on_c, 0, 71, 73
2, 32698, Note_off_c, 0, 71, 73
2, 32700, Note_on_c, 0, 72, 60
2, 32758, Note_off_c, 0, 72, 60
2, 32760, Note_on_c, 0, 74, 74
2, 32818, Note_off_c, 0, 74, 74
2, 32820, Note_on_c, 0, 72, 52
2, 32878, Note_off_c, 0, 72, 52
2, 32880, Note_on_c, 0, 71, 65
2, 32938, Note_off_c, 0, 71, 65
2, 32940, Note_on_c, 0, 69, 66
2, 32998, Note_off_c, 0, 69, 66
2, 33000, Note_on_c, 0, 67, 62
2, 33058, Note_off_c, 0, 67, 62
2, 33060, Note_on_c, 0, 66, 81
2, 33118, Note_off_c, 0, 66, 81
2, 33120, Note_on_c, 0, 67, 63
2, 33238, Note_off_c, 0, 67, 63
2, 33240, Note_on_c, 0, 74, 72
2, 33298, Note_off_c, 0, 74, 72
2, 33300, Note_on_c, 0, 72, 70
2, 33358, Note_off_c, 0, 72, 70
2, 33360, Note_on_c, 0, 71, 78
2, 33418, Note_off_c, 0, 71, 78
2, 33420, Note_on_c, 0, 69, 71
2, 33478, Note_off_c, 0, 69, 71
2, 33480, Note_on_c, 0, 67, 68
2, 33538, Note_off_c, 0, 67, 68
2, 33540, Note_on_c, 0, 65, 79
2, 33598, Note_off_c, 0, 65, 79
2, 33600, Note_on_c, 0, 64, 73
2, 33658, Note_off_c, 0, 64, 73
2, 33660, Note_on_c, 0, 72, 74
2, 33718, Note_off_c, 0, 72, 74
2, 33720, Note_on_c, 0, 71, 62
2, 33778, Note_off_c, 0, 71, 62
2, 33780, Note_on_c, 0, 72, 74
2, 33838, Note_off_c, 0, 72, 74
2, 33840, Note_on_c, 0, 76, 68
2, 33898, Note_off_c, 0, 76, 68
2, 33900, Note_on_c, 0, 72, 53
2, 33958, Note_off_c, 0, 72, 53
2, 33960, Note_on_c, 0, 71, 55
2, 34018, Note_off_c, 0, 71, 55
2, 34020, Note_on_c, 0, 72, 53
2, 34078, Note_off_c, 0, 72, 53
2, 34080, Note_on_c, 0, 67, 72
2, 34138, Note_off_c, 0, 67, 72
2, 34140, Note_on_c, 0, 72, 67
2, 34198, Note_off_c, 0, 72, 67
2, 34200, Note_on_c, 0, 71, 55
2, 34258, Note_off_c, 0, 71, 55
2, 34260, Note_on_c, 0, 72, 55
2, 34318, Note_off_c, 0, 72, 55
2, 34320, Note_on_c, 0, 69, 73
2, 34378, Note_off_c, 0, 69, 73
2, 34380, Note_on_c, 0, 72, 53
2, 34438, Note_off_c, 0, 72, 53
2, 34440, Note_on_c, 0, 71, 39
2, 34498, Note_off_c, 0, 71, 39
2, 34500, Note_on_c, 0, 72, 57
2, 34558, Note_off_c, 0, 72, 57
2, 34560, Note_on_c, 0, 67, 74
2, 34618, Note_off_c, 0, 67, 74
2, 34620, Note_on_c, 0, 72, 65
2, 34678, Note_off_c, 0, 72, 65
2, 34680, Note_on_c, 0, 71, 48
2, 34738, Note_off_c, 0, 71, 48
2, 34740, Note_on_c, 0, 72, 62
2, 34798, Note_off_c, 0, 72, 62
2, 34800, Note_on_c, 0, 76, 42
2, 34858, Note_off_c, 0, 76, 42
2, 34860, Note_on_c, 0, 72, 65
2, 34918, Note_off_c, 0, 72, 65
2, 34920, Note_on_c, 0, 71, 56
2, 34978, Note_off_c, 0, 71, 56
2, 34980, Note_on_c, 0, 72, 48
2, 35038, Note_off_c, 0, 72, 48
2, 35040, Note_on_c, 0, 79, 86
2, 35098, Note_off_c, 0, 79, 86
2, 35100, Note_on_c, 0, 72, 55
2, 35158, Note_off_c, 0, 72, 55
2, 35160, Note_on_c, 0, 71, 27
2, 35218, Note_off_c, 0, 71, 27
2, 35220, Note_on_c, 0, 72, 45
2, 35278, Note_off_c, 0, 72, 45
2, 35280, Note_on_c, 0, 81, 76
2, 35338, Note_off_c, 0, 81, 76
2, 35340, Note_on_c, 0, 72, 36
2, 35398, Note_off_c, 0, 72, 36
2, 35400, Note_on_c, 0, 71, 47
2, 35458, Note_off_c, 0, 71, 47
2, 35460, Note_on_c, 0, 72, 48
2, 35518, Note_off_c, 0, 72, 48
2, 35520, Note_on_c, 0, 79, 77
2, 35578, Note_off_c, 0, 79, 77
2, 35580, Note_on_c, 0, 72, 53
2, 35638, Note_off_c, 0, 72, 53
2, 35640, Note_on_c, 0, 71, 67
2, 35698, Note_off_c, 0, 71, 67
2, 35700, Note_on_c, 0, 72, 37
2, 35758, Note_off_c, 0, 72, 37
2, 35760, Note_on_c, 0, 76, 55
2, 35818, Note_off_c, 0, 76, 55
2, 35820, Note_on_c, 0, 72, 45
2, 35878, Note_off_c, 0, 72, 45
2, 35880, Note_on_c, 0, 71, 52
2, 35938, Note_off_c, 0, 71, 52
2, 35940, Note_on_c, 0, 72, 36
2, 35998, Note_off_c, 0, 72, 36
2, 36000, Note_on_c, 0, 67, 78
2, 36058, Note_off_c, 0, 67, 78
2, 36060, Note_on_c, 0, 72, 58
2, 36118, Note_off_c, 0, 72, 58
2, 36120, Note_on_c, 0, 71, 45
2, 36178, Note_off_c, 0, 71, 45
2, 36180, Note_on_c, 0, 72, 51
2, 36238, Note_off_c, 0, 72, 51
2, 36240, Note_on_c, 0, 69, 76
2, 36298, Note_off_c, 0, 69, 76
2, 36300, Note_on_c, 0, 72, 55
2, 36358, Note_off_c, 0, 72, 55
2, 36360, Note_on_c, 0, 71, 56
2, 36418, Note_off_c, 0, 71, 56
2, 36420, Note_on_c, 0, 72, 65
2, 36478, Note_off_c, 0, 72, 65
2, 36480, Note_on_c, 0, 67, 66
2, 36538, Note_off_c, 0, 67, 66
2, 36540, Note_on_c, 0, 72, 57
2, 36598, Note_off_c, 0, 72, 57
2, 36600, Note_on_c, 0, 71, 35
2, 36658, Note_off_c, 0, 71, 35
2, 36660, Note_on_c, 0, 72, 47
2, 36718, Note_off_c, 0, 72, 47
2, 36720, Note_on_c, 0, 76, 67
2, 36778, Note_off_c, 0, 76, 67
2, 36780, Note_on_c, 0, 72, 47
2, 36838, Note_off_c, 0, 72, 47
2, 36840, Note_on_c, 0, 71, 33
2, 36898, Note_off_c, 0, 71, 33
2, 36900, Note_on_c, 0, 72, 61
2, 36958, Note_off_c, 0, 72, 61
2, 36960, Note_on_c, 0, 79, 86
2, 37018, Note_off_c, 0, 79, 86
2, 37020, Note_on_c, 0, 72, 51
2, 37078, Note_off_c, 0, 72, 51
2, 37080, Note_on_c, 0, 71, 46
2, 37138, Note_off_c, 0, 71, 46
2, 37140, Note_on_c, 0, 72, 42
2, 37198, Note_off_c, 0, 72, 42
2, 37200, Note_on_c, 0, 81, 81
2, 37258, Note_off_c, 0, 81, 81
2, 37260, Note_on_c, 0, 72, 35
2, 37318, Note_off_c, 0, 72, 35
2, 37320, Note_on_c, 0, 71, 60
2, 37378, Note_off_c, 0, 71, 60
2, 37380, Note_on_c, 0, 72, 53
2, 37438, Note_off_c, 0, 72, 53
2, 37440, Note_on_c, 0, 79, 81
2, 37498, Note_off_c, 0, 79, 81
2, 37500, Note_on_c, 0, 72, 55
2, 37558, Note_off_c, 0, 72, 55
2, 37560, Note_on_c, 0, 71, 56
2, 37618, Note_off_c, 0, 71, 56
2, 37620, Note_on_c, 0, 72, 30
2, 37678, Note_off_c, 0, 72, 30
2, 37680, Note_on_c, 0, 81, 76
2, 37738, Note_off_c, 0, 81, 76
2, 37740, Note_on_c, 0, 72, 57
2, 37798, Note_off_c, 0, 72, 57
2, 37800, Note_on_c, 0, 71, 45
2, 37858, Note_off_c, 0, 71, 45
2, 37860, Note_on_c, 0, 72, 37
2, 37918, Note_off_c, 0, 72, 37
2, 37920, Note_on_c, 0, 79, 74
2, 37978, Note_off_c, 0, 79, 74
2, 37980, Note_on_c, 0, 72, 32
2, 38038, Note_off_c, 0, 72, 32
2, 38040, Note_on_c, 0, 71, 58
2, 38098, Note_off_c, 0, 71, 58
2, 38100, Note_on_c, 0, 72, 43
2, 38158, Note_off_c, 0, 72, 43
2, 38160, Note_on_c, 0, 81, 77
2, 38218, Note_off_c, 0, 81, 77
2, 38220, Note_on_c, 0, 72, 62
2, 38278, Note_off_c, 0, 72, 62
2, 38280, Note_on_c, 0, 71, 43
2, 38338, Note_off_c, 0, 71, 43
2, 38340, Note_on_c, 0, 72, 30
2, 38398, Note_off_c, 0, 72, 30
2, 38400, Note_on_c, 0, 79, 74
2, 38458, Note_off_c, 0, 79, 74
2, 38460, Note_on_c, 0, 72, 40
2, 38518, Note_off_c, 0, 72, 40
2, 38520, Note_on_c, 0, 71, 40
2, 38578, Note_off_c, 0, 71, 40
2, 38580, Note_on_c, 0, 72, 45
2, 38638, Note_off_c, 0, 72, 45
2, 38640, Note_on_c, 0, 79, 76
2, 38698, Note_off_c, 0, 79, 76
2, 38700, Note_on_c, 0, 72, 55
2, 38758, Note_off_c, 0, 72, 55
2, 38760, Note_on_c, 0, 71, 65
2, 38818, Note_off_c, 0, 71, 65
2, 38820, Note_on_c, 0, 72, 58
2, 38878, Note_off_c, 0, 72, 58
2, 38880, Note_on_c, 0, 79, 74
2, 38938, Note_off_c, 0, 79, 74
2, 38940, Note_on_c, 0, 72, 48
2, 38998, Note_off_c, 0, 72, 48
2, 39000, Note_on_c, 0, 71, 55
2, 39058, Note_off_c, 0, 71, 55
2, 39060, Note_on_c, 0, 72, 51
2, 39118, Note_off_c, 0, 72, 51
2, 39120, Note_on_c, 0, 79, 74
2, 39178, Note_off_c, 0, 79, 74
2, 39180, Note_on_c, 0, 72, 56
2, 39238, Note_off_c, 0, 72, 56
2, 39240, Note_on_c, 0, 71, 56
2, 39298, Note_off_c, 0, 71, 56
2, 39300, Note_on_c, 0, 72, 40
2, 39358, Note_off_c, 0, 72, 40
2, 39360, Note_on_c, 0, 78, 78
2, 39418, Note_off_c, 0, 78, 78
2, 39420, Note_on_c, 0, 72, 61
2, 39478, Note_off_c, 0, 72, 61
2, 39480, Note_on_c, 0, 71, 63
2, 39538, Note_off_c, 0, 71, 63
2, 39540, Note_on_c, 0, 72, 58
2, 39598, Note_off_c, 0, 72, 58
2, 39600, Note_on_c, 0, 78, 77
2, 39658, Note_off_c, 0, 78, 77
2, 39660, Note_on_c, 0, 72, 51
2, 39718, Note_off_c, 0, 72, 51
2, 39720, Note_on_c, 0, 71, 57
2, 39778, Note_off_c, 0, 71, 57
2, 39780, Note_on_c, 0, 72, 56
2, 39838, Note_off_c, 0, 72, 56
2, 39840, Note_on_c, 0, 77, 72
2, 39898, Note_off_c, 0, 77, 72
2, 39900, Note_on_c, 0, 74, 53
2, 39958, Note_off_c, 0, 74, 53
2, 39960, Note_on_c, 0, 73, 61
2, 40018, Note_off_c, 0, 73, 61
2, 40020, Note_on_c, 0, 74, 58
2, 40078, Note_off_c, 0, 74, 58
2, 40080, Note_on_c, 0, 77, 77
2, 40138, Note_off_c, 0, 77, 77
2, 40140, Note_on_c, 0, 74, 55
2, 40198, Note_off_c, 0, 74, 55
2, 40200, Note_on_c, 0, 73, 55
2, 40258, Note_off_c, 0, 73, 55
2, 40260, Note_on_c, 0, 74, 51
2, 40318, Note_off_c, 0, 74, 51
2, 40320, Note_on_c, 0, 76, 76
2, 40438, Note_off_c, 0, 76, 76
2, 40440, Note_on_c, 0, 84, 76
2, 40558, Note_off_c, 0, 84, 76
2, 40560, Note_on_c, 0, 86, 74
2, 40618, Note_off_c, 0, 86, 74
2, 40620, Note_on_c, 0, 84, 62
2, 40678, Note_off_c, 0, 84, 62
2, 40680, Note_on_c, 0, 83, 67
2, 40738, Note_off_c, 0, 83, 67
2, 40740, Note_on_c, 0, 81, 68
2, 40798, Note_off_c, 0, 81, 68
2, 40800, Note_on_c, 0, 81, 77
2, 40858, Note_off_c, 0, 81, 77
2, 40860, Note_on_c, 0, 79, 62
2, 40918, Note_off_c, 0, 79, 62
2, 40920, Note_on_c, 0, 77, 53
2, 40978, Note_off_c, 0, 77, 53
2, 40980, Note_on_c, 0, 76, 55
2, 41038, Note_off_c, 0, 76, 55
2, 41040, Note_on_c, 0, 76, 79
2, 41098, Note_off_c, 0, 76, 79
2, 41100, Note_on_c, 0, 74, 67
2, 41158, Note_off_c, 0, 74, 67
2, 41160, Note_on_c, 0, 72, 63
2, 41218, Note_off_c, 0, 72, 63
2, 41220, Note_on_c, 0, 71, 67
2, 41278, Note_off_c, 0, 71, 67
2, 41280, Note_on_c, 0, 69, 71
2, 41338, Note_off_c, 0, 69, 71
2, 41400, Note_on_c, 0, 80, 70
2, 41458, Note_off_c, 0, 80, 70
2, 41460, Note_on_c, 0, 81, 65
2, 41518, Note_off_c, 0, 81, 65
2, 41520, Note_on_c, 0, 79, 67
2, 41578, Note_off_c, 0, 79, 67
2, 41580, Note_on_c, 0, 77, 67
2, 41638, Note_off_c, 0, 77, 67
2, 41640, Note_on_c, 0, 76, 63
2, 41698, Note_off_c, 0, 76, 63
2, 41700, Note_on_c, 0, 74, 53
2, 41758, Note_off_c, 0, 74, 53
2, 41760, Note_on_c, 0, 72, 66
2, 41998, Note_off_c, 0, 72, 66
2, 42000, Note_on_c, 0, 71, 63
2, 42046, Note_off_c, 0, 71, 63
2, 42048, Note_on_c, 0, 72, 67
2, 42094, Note_off_c, 0, 72, 67
2, 42096, Note_on_c, 0, 71, 63
2, 42142, Note_off_c, 0, 71, 63
2, 42144, Note_on_c, 0, 69, 67
2, 42190, Note_off_c, 0, 69, 67
2, 42192, Note_on_c, 0, 71, 58
2, 42238, Note_off_c, 0, 71, 58
2, 42240, Note_on_c, 0, 72, 55
2, 42298, Note_off_c, 0, 72, 55
2, 42300, Note_on_c, 0, 84, 53
2, 42358, Note_off_c, 0, 84, 53
2, 42360, Note_on_c, 0, 83, 67
2, 42418, Note_off_c, 0, 83, 67
2, 42420, Note_on_c, 0, 84, 60
2, 42478, Note_off_c, 0, 84, 60
2, 42480, Note_on_c, 0, 86, 65
2, 42538, Note_off_c, 0, 86, 65
2, 42540, Note_on_c, 0, 84, 57
2, 42598, Note_off_c, 0, 84, 57
2, 42600, Note_on_c, 0, 83, 81
2, 42658, Note_off_c, 0, 83, 81
2, 42660, Note_on_c, 0, 81, 65
2, 42718, Note_off_c, 0, 81, 65
2, 42720, Note_on_c, 0, 81, 74
2, 42778, Note_off_c, 0, 81, 74
2, 42780, Note_on_c, 0, 79, 73
2, 42838, Note_off_c, 0, 79, 73
2, 42840, Note_on_c, 0, 77, 78
2, 42898, Note_off_c, 0, 77, 78
2, 42900, Note_on_c, 0, 76, 74
2, 42958, Note_off_c, 0, 76, 74
2, 42960, Note_on_c, 0, 76, 62
2, 43018, Note_off_c, 0, 76, 62
2, 43020, Note_on_c, 0, 74, 57
2, 43078, Note_off_c, 0, 74, 57
2, 43080, Note_on_c, 0, 72, 74
2, 43138, Note_off_c, 0, 72, 74
2, 43140, Note_on_c, 0, 71, 65
2, 43198, Note_off_c, 0, 71, 65
2, 43200, Note_on_c, 0, 69, 67
2, 43258, Note_off_c, 0, 69, 67
2, 43320, Note_on_c, 0, 80, 68
2, 43378, Note_off_c, 0, 80, 68
2, 43380, Note_on_c, 0, 81, 72
2, 43438, Note_off_c, 0, 81, 72
2, 43440, Note_on_c, 0, 79, 56
2, 43498, Note_off_c, 0, 79, 56
2, 43500, Note_on_c, 0, 77, 67
2, 43558, Note_off_c, 0, 77, 67
2, 43560, Note_on_c, 0, 76, 62
2, 43618, Note_off_c, 0, 76, 62
2, 43620, Note_on_c, 0, 74, 61
2, 43678, Note_off_c, 0, 74, 61
2, 43680, Note_on_c, 0, 72, 61
2, 43918, Note_off_c, 0, 72, 61
2, 43920, Note_on_c, 0, 71, 61
2, 43952, Note_off_c, 0, 71, 61
2, 43954, Note_on_c, 0, 72, 55
2, 43987, Note_off_c, 0, 72, 55
2, 43989, Note_on_c, 0, 71, 57
2, 44021, Note_off_c, 0, 71, 57
2, 44023, Note_on_c, 0, 72, 65
2, 44055, Note_off_c, 0, 72, 65
2, 44057, Note_on_c, 0, 71, 74
2, 44089, Note_off_c, 0, 71, 74
2, 44091, Note_on_c, 0, 69, 65
2, 44124, Note_off_c, 0, 69, 65
2, 44126, Note_on_c, 0, 71, 58
2, 44158, Note_off_c, 0, 71, 58
2, 44160, Note_on_c, 0, 72, 65
2, 44218, Note_off_c, 0, 72, 65
2, 44400, Note_on_c, 0, 69, 71
2, 44400, Note_on_c, 0, 65, 57
2, 44458, Note_off_c, 0, 69, 71
2, 44458, Note_off_c, 0, 65, 57
2, 44640, Note_on_c, 0, 67, 58
2, 44640, Note_on_c, 0, 64, 66
2, 44698, Note_off_c, 0, 67, 58
2, 44698, Note_off_c, 0, 64, 66
2, 44880, Note_on_c, 0, 62, 67
2, 44880, Note_on_c, 0, 71, 74
2, 44880, Note_on_c, 0, 65, 73
2, 44938, Note_off_c, 0, 62, 67
2, 44938, Note_off_c, 0, 71, 74
2, 44938, Note_off_c, 0, 65, 73
2, 45120, Note_on_c, 0, 72, 76
2, 45120, Note_on_c, 0, 67, 68
2, 45120, Note_on_c, 0, 64, 68
2, 45178, Note_off_c, 0, 72, 76
2, 45178, Note_off_c, 0, 67, 68
2, 45178, Note_off_c, 0, 64, 68
2, 45360, Note_on_c, 0, 81, 78
2, 45360, Note_on_c, 0, 77, 74
2, 45418, Note_off_c, 0, 81, 78
2, 45418, Note_off_c, 0, 77, 74
2, 45600, Note_on_c, 0, 79, 76
2, 45600, Note_on_c, 0, 76, 71
2, 45658, Note_off_c, 0, 79, 76
2, 45658, Note_off_c, 0, 76, 71
2, 45840, Note_on_c, 0, 83, 79
2, 45840, Note_on_c, 0, 77, 77
2, 45840, Note_on_c, 0, 74, 74
2, 45898, Note_off_c, 0, 83, 79
2, 45898, Note_off_c, 0, 77, 77
2, 45898, Note_off_c, 0, 74, 74
2, 46080, Note_on_c, 0, 84, 77
2, 46080, Note_on_c, 0, 79, 73
2, 46080, Note_on_c, 0, 76, 68
2, 46558, Note_off_c, 0, 84, 77
2, 46558, Note_off_c, 0, 79, 73
2, 46558, Note_off_c, 0, 76, 68
2, 46800, Note_on_c, 0, 72, 74
2, 46978, Note_off_c, 0, 72, 74
2, 46980, Note_on_c, 0, 69, 74
2, 47038, Note_off_c, 0, 69, 74
2, 47040, Note_on_c, 0, 65, 68
2, 47110, Note_off_c, 0, 65, 68
2, 47280, Note_on_c, 0, 69, 66
2, 47458, Note_off_c, 0, 69, 66
2, 47460, Note_on_c, 0, 65, 66
2, 47518, Note_off_c, 0, 65, 66
2, 47520, Note_on_c, 0, 64, 60
2, 47590, Note_off_c, 0, 64, 60
2, 47760, Note_on_c, 0, 67, 73
2, 47938, Note_off_c, 0, 67, 73
2, 47940, Note_on_c, 0, 64, 52
2, 47998, Note_off_c, 0, 64, 52
2, 48000, Note_on_c, 0, 65, 68
2, 48070, Note_off_c, 0, 65, 68
2, 48240, Note_on_c, 0, 70, 67
2, 48240, Note_on_c, 0, 74, 76
2, 48478, Note_off_c, 0, 70, 67
2, 48478, Note_off_c, 0, 74, 76
2, 48480, Note_on_c, 0, 69, 56
2, 48480, Note_on_c, 0, 72, 61
2, 48598, Note_off_c, 0, 69, 56
2, 48598, Note_off_c, 0, 72, 61
2, 48720, Note_on_c, 0, 79, 77
2, 48778, Note_off_c, 0, 79, 77
2, 48780, Note_on_c, 0, 77, 73
2, 48838, Note_off_c, 0, 77, 73
2, 48840, Note_on_c, 0, 76, 65
2, 48898, Note_off_c, 0, 76, 65
2, 48900, Note_on_c, 0, 74, 71
2, 48958, Note_off_c, 0, 74, 71
2, 48960, Note_on_c, 0, 72, 65
2, 49198, Note_off_c, 0, 72, 65
2, 49200, Note_on_c, 0, 81, 74
2, 49278, Note_off_c, 0, 81, 74
2, 49280, Note_on_c, 0, 69, 58
2, 49358, Note_off_c, 0, 69, 58
2, 49360, Note_on_c, 0, 74, 65
2, 49438, Note_off_c, 0, 74, 65
2, 49440, Note_on_c, 0, 72, 68
2, 49678, Note_off_c, 0, 72, 68
2, 49680, Note_on_c, 0, 70, 63
2, 49706, Note_off_c, 0, 70, 63
2, 49728, Note_on_c, 0, 72, 66
2, 49754, Note_off_c, 0, 72, 66
2, 49776, Note_on_c, 0, 70, 60
2, 49802, Note_off_c, 0, 70, 60
2, 49824, Note_on_c, 0, 69, 78
2, 49850, Note_off_c, 0, 69, 78
2, 49872, Note_on_c, 0, 70, 71
2, 49898, Note_off_c, 0, 70, 71
2, 49920, Note_on_c, 0, 70, 63
2, 50398, Note_off_c, 0, 70, 63
2, 50400, Note_on_c, 0, 69, 55
2, 50518, Note_off_c, 0, 69, 55
2, 50640, Note_on_c, 0, 72, 66
2, 50698, Note_off_c, 0, 72, 66
2, 50700, Note_on_c, 0, 69, 74
2, 50758, Note_off_c, 0, 69, 74
2, 50760, Note_on_c, 0, 72, 66
2, 50818, Note_off_c, 0, 72, 66
2, 50820, Note_on_c, 0, 69, 79
2, 50878, Note_off_c, 0, 69, 79
2, 50880, Note_on_c, 0, 65, 68
2, 50938, Note_off_c, 0, 65, 68
2, 51120, Note_on_c, 0, 70, 61
2, 51178, Note_off_c, 0, 70, 61
2, 51180, Note_on_c, 0, 69, 68
2, 51238, Note_off_c, 0, 69, 68
2, 51240, Note_on_c, 0, 67, 68
2, 51298, Note_off_c, 0, 67, 68
2, 51300, Note_on_c, 0, 65, 65
2, 51358, Note_off_c, 0, 65, 65
2, 51360, Note_on_c, 0, 64, 68
2, 51418, Note_off_c, 0, 64, 68
2, 51600, Note_on_c, 0, 69, 72
2, 51658, Note_off_c, 0, 69, 72
2, 51660, Note_on_c, 0, 67, 76
2, 51718, Note_off_c, 0, 67, 76
2, 51720, Note_on_c, 0, 65, 71
2, 51778, Note_off_c, 0, 65, 71
2, 51780, Note_on_c, 0, 64, 57
2, 51838, Note_off_c, 0, 64, 57
2, 51840, Note_on_c, 0, 65, 76
2, 51898, Note_off_c, 0, 65, 76
2, 51960, Note_on_c, 0, 74, 67
2, 52018, Note_off_c, 0, 74, 67
2, 52020, Note_on_c, 0, 76, 74
2, 52078, Note_off_c, 0, 76, 74
2, 52080, Note_on_c, 0, 79, 74
2, 52138, Note_off_c, 0, 79, 74
2, 52140, Note_on_c, 0, 77, 76
2, 52198, Note_off_c, 0, 77, 76
2, 52200, Note_on_c, 0, 76, 81
2, 52258, Note_off_c, 0, 76, 81
2, 52260, Note_on_c, 0, 74, 65
2, 52318, Note_off_c, 0, 74, 65
2, 52320, Note_on_c, 0, 72, 74
2, 52558, Note_off_c, 0, 72, 74
2, 52560, Note_on_c, 0, 84, 81
2, 52618, Note_off_c, 0, 84, 81
2, 52620, Note_on_c, 0, 81, 78
2, 52678, Note_off_c, 0, 81, 78
2, 52680, Note_on_c, 0, 77, 72
2, 52738, Note_off_c, 0, 77, 72
2, 52740, Note_on_c, 0, 72, 65
2, 52798, Note_off_c, 0, 72, 65
2, 52800, Note_on_c, 0, 69, 57
2, 53278, Note_off_c, 0, 69, 57
2, 53280, Note_on_c, 0, 70, 50
2, 53338, Note_off_c, 0, 70, 50
2, 53520, Note_on_c, 0, 82, 72
2, 53578, Note_off_c, 0, 82, 72
2, 53580, Note_on_c, 0, 79, 61
2, 53638, Note_off_c, 0, 79, 61
2, 53640, Note_on_c, 0, 76, 67
2, 53698, Note_off_c, 0, 76, 67
2, 53700, Note_on_c, 0, 72, 55
2, 53758, Note_off_c, 0, 72, 55
2, 53760, Note_on_c, 0, 70, 55
2, 54238, Note_off_c, 0, 70, 55
2, 54240, Note_on_c, 0, 69, 52
2, 54298, Note_off_c, 0, 69, 52
2, 54480, Note_on_c, 0, 77, 73
2, 54538, Note_off_c, 0, 77, 73
2, 54540, Note_on_c, 0, 72, 74
2, 54598, Note_off_c, 0, 72, 74
2, 54600, Note_on_c, 0, 69, 74
2, 54658, Note_off_c, 0, 69, 74
2, 54660, Note_on_c, 0, 65, 76
2, 54718, Note_off_c, 0, 65, 76
2, 54720, Note_on_c, 0, 63, 68
2, 55798, Note_off_c, 0, 63, 68
2, 55800, Note_on_c, 0, 61, 68
2, 55918, Note_off_c, 0, 61, 68
2, 55920, Note_on_c, 0, 62, 68
2, 56038, Note_off_c, 0, 62, 68
2, 56040, Note_on_c, 0, 66, 74
2, 56158, Note_off_c, 0, 66, 74
2, 56160, Note_on_c, 0, 67, 77
2, 56278, Note_off_c, 0, 67, 77
2, 56280, Note_on_c, 0, 69, 71
2, 56398, Note_off_c, 0, 69, 71
2, 56400, Note_on_c, 0, 70, 76
2, 56518, Note_off_c, 0, 70, 76
2, 56520, Note_on_c, 0, 74, 74
2, 56520, Note_on_c, 0, 70, 61
2, 56581, Note_off_c, 0, 74, 74
2, 56581, Note_off_c, 0, 70, 61
2, 56640, Note_on_c, 0, 70, 71
2, 56640, Note_on_c, 0, 74, 77
2, 56758, Note_off_c, 0, 70, 71
2, 56758, Note_off_c, 0, 74, 77
2, 56760, Note_on_c, 0, 69, 68
2, 56760, Note_on_c, 0, 72, 63
2, 56878, Note_off_c, 0, 69, 68
2, 56878, Note_off_c, 0, 72, 63
2, 56880, Note_on_c, 0, 67, 56
2, 56880, Note_on_c, 0, 70, 62
2, 56941, Note_off_c, 0, 67, 56
2, 56941, Note_off_c, 0, 70, 62
2, 57000, Note_on_c, 0, 65, 67
2, 57000, Note_on_c, 0, 69, 66
2, 57061, Note_off_c, 0, 65, 67
2, 57061, Note_off_c, 0, 69, 66
2, 57120, Note_on_c, 0, 72, 73
2, 57120, Note_on_c, 0, 69, 70
2, 57238, Note_off_c, 0, 72, 73
2, 57238, Note_off_c, 0, 69, 70
2, 57240, Note_on_c, 0, 67, 60
2, 57240, Note_on_c, 0, 70, 71
2, 57358, Note_off_c, 0, 67, 60
2, 57358, Note_off_c, 0, 70, 71
2, 57360, Note_on_c, 0, 65, 52
2, 57360, Note_on_c, 0, 69, 67
2, 57421, Note_off_c, 0, 65, 52
2, 57421, Note_off_c, 0, 69, 67
2, 57480, Note_on_c, 0, 64, 53
2, 57480, Note_on_c, 0, 67, 62
2, 57541, Note_off_c, 0, 64, 53
2, 57541, Note_off_c, 0, 67, 62
2, 57600, Note_on_c, 0, 67, 51
2, 57600, Note_on_c, 0, 64, 52
2, 58078, Note_off_c, 0, 67, 51
2, 58078, Note_off_c, 0, 64, 52
2, 58080, Note_on_c, 0, 65, 60
2, 58198, Note_off_c, 0, 65, 60
2, 58320, Note_on_c, 0, 84, 74
2, 58378, Note_off_c, 0, 84, 74
2, 58380, Note_on_c, 0, 81, 78
2, 58438, Note_off_c, 0, 81, 78
2, 58440, Note_on_c, 0, 84, 61
2, 58498, Note_off_c, 0, 84, 61
2, 58500, Note_on_c, 0, 81, 71
2, 58558, Note_off_c, 0, 81, 71
2, 58560, Note_on_c, 0, 77, 71
2, 58678, Note_off_c, 0, 77, 71
2, 58920, Note_on_c, 0, 81, 71
2, 59038, Note_off_c, 0, 81, 71
2, 59040, Note_on_c, 0, 79, 68
2, 59158, Note_off_c, 0, 79, 68
2, 59160, Note_on_c, 0, 77, 63
2, 59278, Note_off_c, 0, 77, 63
2, 59280, Note_on_c, 0, 76, 62
2, 59398, Note_off_c, 0, 76, 62
2, 59400, Note_on_c, 0, 74, 53
2, 59518, Note_off_c, 0, 74, 53
2, 59520, Note_on_c, 0, 74, 70
2, 59878, Note_off_c, 0, 74, 70
2, 59880, Note_on_c, 0, 76, 58
2, 59938, Note_off_c, 0, 76, 58
2, 59940, Note_on_c, 0, 74, 52
2, 59998, Note_off_c, 0, 74, 52
2, 60000, Note_on_c, 0, 73, 62
2, 60058, Note_off_c, 0, 73, 62
2, 60240, Note_on_c, 0, 76, 68
2, 60298, Note_off_c, 0, 76, 68
2, 60300, Note_on_c, 0, 73, 62
2, 60358, Note_off_c, 0, 73, 62
2, 60360, Note_on_c, 0, 76, 66
2, 60418, Note_off_c, 0, 76, 66
2, 60420, Note_on_c, 0, 73, 60
2, 60478, Note_off_c, 0, 73, 60
2, 60480, Note_on_c, 0, 69, 70
2, 60598, Note_off_c, 0, 69, 70
2, 60840, Note_on_c, 0, 82, 71
2, 60898, Note_off_c, 0, 82, 71
2, 60960, Note_on_c, 0, 81, 66
2, 61018, Note_off_c, 0, 81, 66
2, 61080, Note_on_c, 0, 79, 65
2, 61138, Note_off_c, 0, 79, 65
2, 61200, Note_on_c, 0, 77, 67
2, 61258, Note_off_c, 0, 77, 67
2, 61320, Note_on_c, 0, 76, 67
2, 61438, Note_off_c, 0, 76, 67
2, 61440, Note_on_c, 0, 79, 68
2, 61798, Note_off_c, 0, 79, 68
2, 61800, Note_on_c, 0, 76, 68
2, 61918, Note_off_c, 0, 76, 68
2, 61920, Note_on_c, 0, 77, 74
2, 62038, Note_off_c, 0, 77, 74
2, 62160, Note_on_c, 0, 81, 66
2, 62218, Note_off_c, 0, 81, 66
2, 62220, Note_on_c, 0, 77, 76
2, 62278, Note_off_c, 0, 77, 76
2, 62280, Note_on_c, 0, 81, 74
2, 62338, Note_off_c, 0, 81, 74
2, 62340, Note_on_c, 0, 77, 62
2, 62398, Note_off_c, 0, 77, 62
2, 62400, Note_on_c, 0, 74, 74
2, 62518, Note_off_c, 0, 74, 74
2, 62760, Note_on_c, 0, 86, 77
2, 62818, Note_off_c, 0, 86, 77
2, 62880, Note_on_c, 0, 84, 77
2, 62938, Note_off_c, 0, 84, 77
2, 63000, Note_on_c, 0, 83, 76
2, 63058, Note_off_c, 0, 83, 76
2, 63120, Note_on_c, 0, 81, 78
2, 63178, Note_off_c, 0, 81, 78
2, 63240, Note_on_c, 0, 79, 77
2, 63298, Note_off_c, 0, 79, 77
2, 63360, Note_on_c, 0, 77, 71
2, 63598, Note_off_c, 0, 77, 71
2, 63600, Note_on_c, 0, 76, 66
2, 63718, Note_off_c, 0, 76, 66
2, 63720, Note_on_c, 0, 79, 74
2, 63778, Note_off_c, 0, 79, 74
2, 63840, Note_on_c, 0, 77, 65
2, 63898, Note_off_c, 0, 77, 65
2, 63960, Note_on_c, 0, 76, 68
2, 64018, Note_off_c, 0, 76, 68
2, 64080, Note_on_c, 0, 74, 72
2, 64138, Note_off_c, 0, 74, 72
2, 64200, Note_on_c, 0, 72, 65
2, 64318, Note_off_c, 0, 72, 65
2, 64320, Note_on_c, 0, 71, 70
2, 64558, Note_off_c, 0, 71, 70
2, 64560, Note_on_c, 0, 69, 72
2, 64618, Note_off_c, 0, 69, 72
2, 64620, Note_on_c, 0, 74, 74
2, 64678, Note_off_c, 0, 74, 74
2, 64680, Note_on_c, 0, 77, 81
2, 64738, Note_off_c, 0, 77, 81
2, 64740, Note_on_c, 0, 81, 77
2, 64798, Note_off_c, 0, 81, 77
2, 64800, Note_on_c, 0, 79, 67
2, 64858, Note_off_c, 0, 79, 67
2, 64920, Note_on_c, 0, 77, 66
2, 65038, Note_off_c, 0, 77, 66
2, 65040, Note_on_c, 0, 76, 74
2, 65098, Note_off_c, 0, 76, 74
2, 65160, Note_on_c, 0, 74, 66
2, 65218, Note_off_c, 0, 74, 66
2, 65280, Note_on_c, 0, 72, 66
2, 65518, Note_off_c, 0, 72, 66
2, 65520, Note_on_c, 0, 71, 63
2, 65758, Note_off_c, 0, 71, 63
2, 66300, Note_on_c, 0, 79, 71
2, 66358, Note_off_c, 0, 79, 71
2, 66360, Note_on_c, 0, 81, 71
2, 66418, Note_off_c, 0, 81, 71
2, 66420, Note_on_c, 0, 79, 66
2, 66478, Note_off_c, 0, 79, 66
2, 66480, Note_on_c, 0, 84, 74
2, 66538, Note_off_c, 0, 84, 74
2, 66540, Note_on_c, 0, 83, 76
2, 66598, Note_off_c, 0, 83, 76
2, 66600, Note_on_c, 0, 81, 89
2, 66658, Note_off_c, 0, 81, 89
2, 66660, Note_on_c, 0, 79, 72
2, 66718, Note_off_c, 0, 79, 72
2, 66720, Note_on_c, 0, 77, 66
2, 66778, Note_off_c, 0, 77, 66
2, 66780, Note_on_c, 0, 76, 94
2, 66838, Note_off_c, 0, 76, 94
2, 66840, Note_on_c, 0, 74, 72
2, 66898, Note_off_c, 0, 74, 72
2, 66900, Note_on_c, 0, 72, 76
2, 66958, Note_off_c, 0, 72, 76
2, 66960, Note_on_c, 0, 71, 72
2, 67018, Note_off_c, 0, 71, 72
2, 67020, Note_on_c, 0, 72, 60
2, 67078, Note_off_c, 0, 72, 60
2, 67080, Note_on_c, 0, 74, 77
2, 67138, Note_off_c, 0, 74, 77
2, 67140, Note_on_c, 0, 72, 66
2, 67198, Note_off_c, 0, 72, 66
2, 67200, Note_on_c, 0, 69, 74
2, 67258, Note_off_c, 0, 69, 74
2, 67260, Note_on_c, 0, 72, 55
2, 67318, Note_off_c, 0, 72, 55
2, 67320, Note_on_c, 0, 74, 58
2, 67378, Note_off_c, 0, 74, 58
2, 67380, Note_on_c, 0, 72, 57
2, 67438, Note_off_c, 0, 72, 57
2, 67440, Note_on_c, 0, 67, 77
2, 67498, Note_off_c, 0, 67, 77
2, 67500, Note_on_c, 0, 72, 62
2, 67558, Note_off_c, 0, 72, 62
2, 67560, Note_on_c, 0, 74, 68
2, 67618, Note_off_c, 0, 74, 68
2, 67620, Note_on_c, 0, 72, 56
2, 67678, Note_off_c, 0, 72, 56
2, 67680, Note_on_c, 0, 65, 71
2, 67798, Note_off_c, 0, 65, 71
2, 67800, Note_on_c, 0, 77, 73
2, 67918, Note_off_c, 0, 77, 73
2, 68040, Note_on_c, 0, 77, 70
2, 68158, Note_off_c, 0, 77, 70
2, 68160, Note_on_c, 0, 76, 61
2, 68218, Note_off_c, 0, 76, 61
2, 68220, Note_on_c, 0, 79, 56
2, 68278, Note_off_c, 0, 79, 56
2, 68280, Note_on_c, 0, 81, 56
2, 68338, Note_off_c, 0, 81, 56
2, 68340, Note_on_c, 0, 79, 51
2, 68398, Note_off_c, 0, 79, 51
2, 68400, Note_on_c, 0, 84, 59
2, 68458, Note_off_c, 0, 84, 59
2, 68460, Note_on_c, 0, 83, 61
2, 68518, Note_off_c, 0, 83, 61
2, 68520, Note_on_c, 0, 81, 74
2, 68578, Note_off_c, 0, 81, 74
2, 68580, Note_on_c, 0, 79, 57
2, 68638, Note_off_c, 0, 79, 57
2, 68640, Note_on_c, 0, 77, 51
2, 68698, Note_off_c, 0, 77, 51
2, 68700, Note_on_c, 0, 76, 79
2, 68758, Note_off_c, 0, 76, 79
2, 68760, Note_on_c, 0, 74, 57
2, 68818, Note_off_c, 0, 74, 57
2, 68820, Note_on_c, 0, 72, 61
2, 68878, Note_off_c, 0, 72, 61
2, 68880, Note_on_c, 0, 71, 57
2, 68938, Note_off_c, 0, 71, 57
2, 68940, Note_on_c, 0, 72, 45
2, 68998, Note_off_c, 0, 72, 45
2, 69000, Note_on_c, 0, 74, 62
2, 69058, Note_off_c, 0, 74, 62
2, 69060, Note_on_c, 0, 72, 51
2, 69118, Note_off_c, 0, 72, 51
2, 69120, Note_on_c, 0, 69, 59
2, 69178, Note_off_c, 0, 69, 59
2, 69180, Note_on_c, 0, 72, 40
2, 69238, Note_off_c, 0, 72, 40
2, 69240, Note_on_c, 0, 74, 43
2, 69298, Note_off_c, 0, 74, 43
2, 69300, Note_on_c, 0, 72, 42
2, 69358, Note_off_c, 0, 72, 42
2, 69360, Note_on_c, 0, 67, 62
2, 69418, Note_off_c, 0, 67, 62
2, 69420, Note_on_c, 0, 72, 47
2, 69478, Note_off_c, 0, 72, 47
2, 69480, Note_on_c, 0, 74, 53
2, 69538, Note_off_c, 0, 74, 53
2, 69540, Note_on_c, 0, 72, 41
2, 69598, Note_off_c, 0, 72, 41
2, 69600, Note_on_c, 0, 65, 56
2, 69718, Note_off_c, 0, 65, 56
2, 69720, Note_on_c, 0, 77, 58
2, 69838, Note_off_c, 0, 77, 58
2, 69960, Note_on_c, 0, 77, 60
2, 70078, Note_off_c, 0, 77, 60
2, 70080, Note_on_c, 0, 76, 56
2, 70138, Note_off_c, 0, 76, 56
2, 70140, Note_on_c, 0, 77, 56
2, 70198, Note_off_c, 0, 77, 56
2, 70200, Note_on_c, 0, 79, 70
2, 70258, Note_off_c, 0, 79, 70
2, 70260, Note_on_c, 0, 77, 67
2, 70318, Note_off_c, 0, 77, 67
2, 70320, Note_on_c, 0, 76, 73
2, 70378, Note_off_c, 0, 76, 73
2, 70380, Note_on_c, 0, 74, 67
2, 70438, Note_off_c, 0, 74, 67
2, 70440, Note_on_c, 0, 72, 73
2, 70498, Note_off_c, 0, 72, 73
2, 70500, Note_on_c, 0, 71, 60
2, 70558, Note_off_c, 0, 71, 60
2, 70560, Note_on_c, 0, 72, 67
2, 70618, Note_off_c, 0, 72, 67
2, 70620, Note_on_c, 0, 74, 77
2, 70678, Note_off_c, 0, 74, 77
2, 70680, Note_on_c, 0, 76, 76
2, 70738, Note_off_c, 0, 76, 76
2, 70740, Note_on_c, 0, 74, 74
2, 70798, Note_off_c, 0, 74, 74
2, 70800, Note_on_c, 0, 72, 79
2, 70858, Note_off_c, 0, 72, 79
2, 70860, Note_on_c, 0, 71, 68
2, 70918, Note_off_c, 0, 71, 68
2, 70920, Note_on_c, 0, 69, 62
2, 70978, Note_off_c, 0, 69, 62
2, 70980, Note_on_c, 0, 68, 77
2, 71038, Note_off_c, 0, 68, 77
2, 71100, Note_on_c, 0, 69, 39
2, 71158, Note_off_c, 0, 69, 39
2, 71160, Note_on_c, 0, 71, 67
2, 71218, Note_off_c, 0, 71, 67
2, 71220, Note_on_c, 0, 73, 73
2, 71278, Note_off_c, 0, 73, 73
2, 71280, Note_on_c, 0, 74, 68
2, 71338, Note_off_c, 0, 74, 68
2, 71340, Note_on_c, 0, 76, 81
2, 71398, Note_off_c, 0, 76, 81
2, 71400, Note_on_c, 0, 77, 81
2, 71458, Note_off_c, 0, 77, 81
2, 71460, Note_on_c, 0, 79, 81
2, 71518, Note_off_c, 0, 79, 81
2, 71520, Note_on_c, 0, 81, 89
2, 71578, Note_off_c, 0, 81, 89
2, 71580, Note_on_c, 0, 77, 74
2, 71638, Note_off_c, 0, 77, 74
2, 71640, Note_on_c, 0, 74, 62
2, 71698, Note_off_c, 0, 74, 62
2, 71700, Note_on_c, 0, 69, 65
2, 71758, Note_off_c, 0, 69, 65
2, 71760, Note_on_c, 0, 79, 76
2, 71818, Note_off_c, 0, 79, 76
2, 71820, Note_on_c, 0, 76, 57
2, 71878, Note_off_c, 0, 76, 57
2, 71880, Note_on_c, 0, 72, 62
2, 71938, Note_off_c, 0, 72, 62
2, 71940, Note_on_c, 0, 67, 63
2, 71998, Note_off_c, 0, 67, 63
2, 72060, Note_on_c, 0, 77, 77
2, 72118, Note_off_c, 0, 77, 77
2, 72120, Note_on_c, 0, 79, 74
2, 72178, Note_off_c, 0, 79, 74
2, 72180, Note_on_c, 0, 81, 79
2, 72238, Note_off_c, 0, 81, 79
2, 72240, Note_on_c, 0, 83, 83
2, 72298, Note_off_c, 0, 83, 83
2, 72300, Note_on_c, 0, 84, 73
2, 72358, Note_off_c, 0, 84, 73
2, 72360, Note_on_c, 0, 86, 94
2, 72418, Note_off_c, 0, 86, 94
2, 72420, Note_on_c, 0, 88, 83
2, 72478, Note_off_c, 0, 88, 83
2, 72480, Note_on_c, 0, 89, 89
2, 72538, Note_off_c, 0, 89, 89
2, 72540, Note_on_c, 0, 86, 94
2, 72598, Note_off_c, 0, 86, 94
2, 72600, Note_on_c, 0, 83, 89
2, 72658, Note_off_c, 0, 83, 89
2, 72660, Note_on_c, 0, 77, 68
2, 72718, Note_off_c, 0, 77, 68
2, 72720, Note_on_c, 0, 76, 72
2, 72838, Note_off_c, 0, 76, 72
2, 72840, Note_on_c, 0, 84, 66
2, 72958, Note_off_c, 0, 84, 66
2, 73080, Note_on_c, 0, 81, 67
2, 73080, Note_on_c, 0, 77, 67
2, 73198, Note_off_c, 0, 81, 67
2, 73198, Note_off_c, 0, 77, 67
2, 73200, Note_on_c, 0, 79, 57
2, 73200, Note_on_c, 0, 76, 52
2, 73318, Note_off_c, 0, 79, 57
2, 73318, Note_off_c, 0, 76, 52
2, 73320, Note_on_c, 0, 77, 62
2, 73320, Note_on_c, 0, 74, 68
2, 73438, Note_off_c, 0, 77, 62
2, 73438, Note_off_c, 0, 74, 68
2, 73440, Note_on_c, 0, 76, 63
2, 73440, Note_on_c, 0, 72, 66
2, 73498, Note_off_c, 0, 76, 63
2, 73498, Note_off_c, 0, 72, 66
2, 73560, Note_on_c, 0, 76, 61
2, 73560, Note_on_c, 0, 79, 66
2, 73618, Note_off_c, 0, 76, 61
2, 73618, Note_off_c, 0, 79, 66
2, 73800, Note_on_c, 0, 65, 52
2, 73800, Note_on_c, 0, 71, 56
2, 73858, Note_off_c, 0, 65, 52
2, 73858, Note_off_c, 0, 71, 56
2, 74040, Note_on_c, 0, 63, 43
2, 74040, Note_on_c, 0, 72, 62
2, 74098, Note_off_c, 0, 63, 43
2, 74098, Note_off_c, 0, 72, 62
2, 74280, Note_on_c, 0, 75, 66
2, 74338, Note_off_c, 0, 75, 66
2, 74460, Note_on_c, 0, 75, 37
2, 74518, Note_off_c, 0, 75, 37
2, 74520, Note_on_c, 0, 74, 48
2, 74578, Note_off_c, 0, 74, 48
2, 74580, Note_on_c, 0, 75, 46
2, 74638, Note_off_c, 0, 75, 46
2, 74640, Note_on_c, 0, 77, 67
2, 74698, Note_off_c, 0, 77, 67
2, 74700, Note_on_c, 0, 75, 67
2, 74758, Note_off_c, 0, 75, 67
2, 74760, Note_on_c, 0, 74, 70
2, 74818, Note_off_c, 0, 74, 70
2, 74820, Note_on_c, 0, 75, 74
2, 74878, Note_off_c, 0, 75, 74
2, 74880, Note_on_c, 0, 84, 65
2, 74998, Note_off_c, 0, 84, 65
2, 75000, Note_on_c, 0, 75, 45
2, 75058, Note_off_c, 0, 75, 45
2, 75240, Note_on_c, 0, 75, 57
2, 75298, Note_off_c, 0, 75, 57
2, 75420, Note_on_c, 0, 75, 58
2, 75478, Note_off_c, 0, 75, 58
2, 75480, Note_on_c, 0, 74, 53
2, 75538, Note_off_c, 0, 74, 53
2, 75540, Note_on_c, 0, 75, 58
2, 75598, Note_off_c, 0, 75, 58
2, 75600, Note_on_c, 0, 77, 78
2, 75658, Note_off_c, 0, 77, 78
2, 75660, Note_on_c, 0, 75, 74
2, 75718, Note_off_c, 0, 75, 74
2, 75720, Note_on_c, 0, 74, 66
2, 75778, Note_off_c, 0, 74, 66
2, 75780, Note_on_c, 0, 75, 78
2, 75838, Note_off_c, 0, 75, 78
2, 75840, Note_on_c, 0, 84, 74
2, 75958, Note_off_c, 0, 84, 74
2, 75960, Note_on_c, 0, 75, 60
2, 76018, Note_off_c, 0, 75, 60
2, 76200, Note_on_c, 0, 75, 52
2, 76258, Note_off_c, 0, 75, 52
2, 76380, Note_on_c, 0, 75, 62
2, 76438, Note_off_c, 0, 75, 62
2, 76440, Note_on_c, 0, 74, 55
2, 76498, Note_off_c, 0, 74, 55
2, 76500, Note_on_c, 0, 75, 61
2, 76558, Note_off_c, 0, 75, 61
2, 76560, Note_on_c, 0, 77, 72
2, 76618, Note_off_c, 0, 77, 72
2, 76620, Note_on_c, 0, 75, 65
2, 76678, Note_off_c, 0, 75, 65
2, 76680, Note_on_c, 0, 74, 72
2, 76738, Note_off_c, 0, 74, 72
2, 76740, Note_on_c, 0, 72, 72
2, 76798, Note_off_c, 0, 72, 72
2, 76800, Note_on_c, 0, 71, 73
2, 76858, Note_off_c, 0, 71, 73
2, 76860, Note_on_c, 0, 72, 60
2, 76918, Note_off_c, 0, 72, 60
2, 76920, Note_on_c, 0, 74, 74
2, 76978, Note_off_c, 0, 74, 74
2, 76980, Note_on_c, 0, 72, 52
2, 77038, Note_off_c, 0, 72, 52
2, 77040, Note_on_c, 0, 71, 65
2, 77098, Note_off_c, 0, 71, 65
2, 77100, Note_on_c, 0, 69, 66
2, 77158, Note_off_c, 0, 69, 66
2, 77160, Note_on_c, 0, 67, 62
2, 77218, Note_off_c, 0, 67, 62
2, 77220, Note_on_c, 0, 66, 81
2, 77278, Note_off_c, 0, 66, 81
2, 77280, Note_on_c, 0, 67, 63
2, 77398, Note_off_c, 0, 67, 63
2, 77400, Note_on_c, 0, 74, 72
2, 77458, Note_off_c, 0, 74, 72
2, 77460, Note_on_c, 0, 72, 70
2, 77518, Note_off_c, 0, 72, 70
2, 77520, Note_on_c, 0, 71, 78
2, 77578, Note_off_c, 0, 71, 78
2, 77580, Note_on_c, 0, 69, 71
2, 77638, Note_off_c, 0, 69, 71
2, 77640, Note_on_c, 0, 67, 68
2, 77698, Note_off_c, 0, 67, 68
2, 77700, Note_on_c, 0, 65, 79
2, 77758, Note_off_c, 0, 65, 79
2, 77760, Note_on_c, 0, 64, 73
2, 77818, Note_off_c, 0, 64, 73
2, 77820, Note_on_c, 0, 72, 74
2, 77878, Note_off_c, 0, 72, 74
2, 77880, Note_on_c, 0, 71, 62
2, 77938, Note_off_c, 0, 71, 62
2, 77940, Note_on_c, 0, 72, 74
2, 77998, Note_off_c, 0, 72, 74
2, 78000, Note_on_c, 0, 76, 68
2, 78058, Note_off_c, 0, 76, 68
2, 78060, Note_on_c, 0, 72, 53
2, 78118, Note_off_c, 0, 72, 53
2, 78120, Note_on_c, 0, 71, 55
2, 78178, Note_off_c, 0, 71, 55
2, 78180, Note_on_c, 0, 72, 53
2, 78238, Note_off_c, 0, 72, 53
2, 78240, Note_on_c, 0, 67, 72
2, 78298, Note_off_c, 0, 67, 72
2, 78300, Note_on_c, 0, 72, 67
2, 78358, Note_off_c, 0, 72, 67
2, 78360, Note_on_c, 0, 71, 55
2, 78418, Note_off_c, 0, 71, 55
2, 78420, Note_on_c, 0, 72, 55
2, 78478, Note_off_c, 0, 72, 55
2, 78480, Note_on_c, 0, 69, 73
2, 78538, Note_off_c, 0, 69, 73
2, 78540, Note_on_c, 0, 72, 53
2, 78598, Note_off_c, 0, 72, 53
2, 78600, Note_on_c, 0, 71, 39
2, 78658, Note_off_c, 0, 71, 39
2, 78660, Note_on_c, 0, 72, 57
2, 78718, Note_off_c, 0, 72, 57
2, 78720, Note_on_c, 0, 67, 74
2, 78778, Note_off_c, 0, 67, 74
2, 78780, Note_on_c, 0, 72, 65
2, 78838, Note_off_c, 0, 72, 65
2, 78840, Note_on_c, 0, 71, 48
2, 78898, Note_off_c, 0, 71, 48
2, 78900, Note_on_c, 0, 72, 62
2, 78958, Note_off_c, 0, 72, 62
2, 78960, Note_on_c, 0, 76, 42
2, 79018, Note_off_c, 0, 76, 42
2, 79020, Note_on_c, 0, 72, 65
2, 79078, Note_off_c, 0, 72, 65
2, 79080, Note_on_c, 0, 71, 56
2, 79138, Note_off_c, 0, 71, 56
2, 79140, Note_on_c, 0, 72, 48
2, 79198, Note_off_c, 0, 72, 48
2, 79200, Note_on_c, 0, 79, 86
2, 79258, Note_off_c, 0, 79, 86
2, 79260, Note_on_c, 0, 72, 55
2, 79318, Note_off_c, 0, 72, 55
2, 79320, Note_on_c, 0, 71, 27
2, 79378, Note_off_c, 0, 71, 27
2, 79380, Note_on_c, 0, 72, 45
2, 79438, Note_off_c, 0, 72, 45
2, 79440, Note_on_c, 0, 81, 76
2, 79498, Note_off_c, 0, 81, 76
2, 79500, Note_on_c, 0, 72, 36
2, 79558, Note_off_c, 0, 72, 36
2, 79560, Note_on_c, 0, 71, 47
2, 79618, Note_off_c, 0, 71, 47
2, 79620, Note_on_c, 0, 72, 48
2, 79678, Note_off_c, 0, 72, 48
2, 79680, Note_on_c, 0, 79, 77
2, 79738, Note_off_c, 0, 79, 77
2, 79740, Note_on_c, 0, 72, 53
2, 79798, Note_off_c, 0, 72, 53
2, 79800, Note_on_c, 0, 71, 67
2, 79858, Note_off_c, 0, 71, 67
2, 79860, Note_on_c, 0, 72, 37
2, 79918, Note_off_c, 0, 72, 37
2, 79920, Note_on_c, 0, 76, 55
2, 79978, Note_off_c, 0, 76, 55
2, 79980, Note_on_c, 0, 72, 45
2, 80038, Note_off_c, 0, 72, 45
2, 80040, Note_on_c, 0, 71, 52
2, 80098, Note_off_c, 0, 71, 52
2, 80100, Note_on_c, 0, 72, 36
2, 80158, Note_off_c, 0, 72, 36
2, 80160, Note_on_c, 0, 67, 78
2, 80218, Note_off_c, 0, 67, 78
2, 80220, Note_on_c, 0, 72, 58
2, 80278, Note_off_c, 0, 72, 58
2, 80280, Note_on_c, 0, 71, 45
2, 80338, Note_off_c, 0, 71, 45
2, 80340, Note_on_c, 0, 72, 51
2, 80398, Note_off_c, 0, 72, 51
2, 80400, Note_on_c, 0, 69, 76
2, 80458, Note_off_c, 0, 69, 76
2, 80460, Note_on_c, 0, 72, 55
2, 80518, Note_off_c, 0, 72, 55
2, 80520, Note_on_c, 0, 71, 56
2, 80578, Note_off_c, 0, 71, 56
2, 80580, Note_on_c, 0, 72, 65
2, 80638, Note_off_c, 0, 72, 65
2, 80640, Note_on_c, 0, 67, 66
2, 80698, Note_off_c, 0, 67, 66
2, 80700, Note_on_c, 0, 72, 57
2, 80758, Note_off_c, 0, 72, 57
2, 80760, Note_on_c, 0, 71, 35
2, 80818, Note_off_c, 0, 71, 35
2, 80820, Note_on_c, 0, 72, 47
2, 80878, Note_off_c, 0, 72, 47
2, 80880, Note_on_c, 0, 76, 67
2, 80938, Note_off_c, 0, 76, 67
2, 80940, Note_on_c, 0, 72, 47
2, 80998, Note_off_c, 0, 72, 47
2, 81000, Note_on_c, 0, 71, 33
2, 81058, Note_off_c, 0, 71, 33
2, 81060, Note_on_c, 0, 72, 61
2, 81118, Note_off_c, 0, 72, 61
2, 81120, Note_on_c, 0, 79, 86
2, 81178, Note_off_c, 0, 79, 86
2, 81180, Note_on_c, 0, 72, 51
2, 81238, Note_off_c, 0, 72, 51
2, 81240, Note_on_c, 0, 71, 46
2, 81298, Note_off_c, 0, 71, 46
2, 81300, Note_on_c, 0, 72, 42
2, 81358, Note_off_c, 0, 72, 42
2, 81360, Note_on_c, 0, 81, 81
2, 81418, Note_off_c, 0, 81, 81
2, 81420, Note_on_c, 0, 72, 35
2, 81478, Note_off_c, 0, 72, 35
2, 81480, Note_on_c, 0, 71, 60
2, 81538, Note_off_c, 0, 71, 60
2, 81540, Note_on_c, 0, 72, 53
2, 81598, Note_off_c, 0, 72, 53
2, 81600, Note_on_c, 0, 79, 81
2, 81658, Note_off_c, 0, 79, 81
2, 81660, Note_on_c, 0, 72, 55
2, 81718, Note_off_c, 0, 72, 55
2, 81720, Note_on_c, 0, 71, 56
2, 81778, Note_off_c, 0, 71, 56
2, 81780, Note_on_c, 0, 72, 30
2, 81838, Note_off_c, 0, 72, 30
2, 81840, Note_on_c, 0, 81, 76
2, 81898, Note_off_c, 0, 81, 76
2, 81900, Note_on_c, 0, 72, 57
2, 81958, Note_off_c, 0, 72, 57
2, 81960, Note_on_c, 0, 71, 45
2, 82018, Note_off_c, 0, 71, 45
2, 82020, Note_on_c, 0, 72, 37
2, 82078, Note_off_c, 0, 72, 37
2, 82080, Note_on_c, 0, 79, 74
2, 82138, Note_off_c, 0, 79, 74
2, 82140, Note_on_c, 0, 72, 32
2, 82198, Note_off_c, 0, 72, 32
2, 82200, Note_on_c, 0, 71, 58
2, 82258, Note_off_c, 0, 71, 58
2, 82260, Note_on_c, 0, 72, 43
2, 82318, Note_off_c, 0, 72, 43
2, 82320, Note_on_c, 0, 81, 77
2, 82378, Note_off_c, 0, 81, 77
2, 82380, Note_on_c, 0, 72, 62
2, 82438, Note_off_c, 0, 72, 62
2, 82440, Note_on_c, 0, 71, 43
2, 82498, Note_off_c, 0, 71, 43
2, 82500, Note_on_c, 0, 72, 30
2, 82558, Note_off_c, 0, 72, 30
2, 82560, Note_on_c, 0, 79, 74
2, 82618, Note_off_c, 0, 79, 74
2, 82620, Note_on_c, 0, 72, 40
2, 82678, Note_off_c, 0, 72, 40
2, 82680, Note_on_c, 0, 71, 40
2, 82738, Note_off_c, 0, 71, 40
2, 82740, Note_on_c, 0, 72, 45
2, 82798, Note_off_c, 0, 72, 45
2, 82800, Note_on_c, 0, 79, 76
2, 82858, Note_off_c, 0, 79, 76
2, 82860, Note_on_c, 0, 72, 55
2, 82918, Note_off_c, 0, 72, 55
2, 82920, Note_on_c, 0, 71, 65
2, 82978, Note_off_c, 0, 71, 65
2, 82980, Note_on_c, 0, 72, 58
2, 83038, Note_off_c, 0, 72, 58
2, 83040, Note_on_c, 0, 79, 74
2, 83098, Note_off_c, 0, 79, 74
2, 83100, Note_on_c, 0, 72, 48
2, 83158, Note_off_c, 0, 72, 48
2, 83160, Note_on_c, 0, 71, 55
2, 83218, Note_off_c, 0, 71, 55
2, 83220, Note_on_c, 0, 72, 51
2, 83278, Note_off_c, 0, 72, 51
2, 83280, Note_on_c, 0, 79, 74
2, 83338, Note_off_c, 0, 79, 74
2, 83340, Note_on_c, 0, 72, 56
2, 83398, Note_off_c, 0, 72, 56
2, 83400, Note_on_c, 0, 71, 56
2, 83458, Note_off_c, 0, 71, 56
2, 83460, Note_on_c, 0, 72, 40
2, 83518, Note_off_c, 0, 72, 40
2, 83520, Note_on_c, 0, 78, 78
2, 83578, Note_off_c, 0, 78, 78
2, 83580, Note_on_c, 0, 72, 61
2, 83638, Note_off_c, 0, 72, 61
2, 83640, Note_on_c, 0, 71, 63
2, 83698, Note_off_c, 0, 71, 63
2, 83700, Note_on_c, 0, 72, 58
2, 83758, Note_off_c, 0, 72, 58
2, 83760, Note_on_c, 0, 78, 77
2, 83818, Note_off_c, 0, 78, 77
2, 83820, Note_on_c, 0, 72, 51
2, 83878, Note_off_c, 0, 72, 51
2, 83880, Note_on_c, 0, 71, 57
2, 83938, Note_off_c, 0, 71, 57
2, 83940, Note_on_c, 0, 72, 56
2, 83998, Note_off_c, 0, 72, 56
2, 84000, Note_on_c, 0, 77, 72
2, 84058, Note_off_c, 0, 77, 72
2, 84060, Note_on_c, 0, 74, 53
2, 84118, Note_off_c, 0, 74, 53
2, 84120, Note_on_c, 0, 73, 61
2, 84178, Note_off_c, 0, 73, 61
2, 84180, Note_on_c, 0, 74, 58
2, 84238, Note_off_c, 0, 74, 58
2, 84240, Note_on_c, 0, 77, 77
2, 84298, Note_off_c, 0, 77, 77
2, 84300, Note_on_c, 0, 74, 55
2, 84358, Note_off_c, 0, 74, 55
2, 84360, Note_on_c, 0, 73, 55
2, 84418, Note_off_c, 0, 73, 55
2, 84420, Note_on_c, 0, 74, 51
2, 84478, Note_off_c, 0, 74, 51
2, 84480, Note_on_c, 0, 76, 76
2, 84598, Note_off_c, 0, 76, 76
2, 84600, Note_on_c, 0, 84, 76
2, 84718, Note_off_c, 0, 84, 76
2, 84720, Note_on_c, 0, 86, 74
2, 84778, Note_off_c, 0, 86, 74
2, 84780, Note_on_c, 0, 84, 62
2, 84838, Note_off_c, 0, 84, 62
2, 84840, Note_on_c, 0, 83, 67
2, 84898, Note_off_c, 0, 83, 67
2, 84900, Note_on_c, 0, 81, 68
2, 84958, Note_off_c, 0, 81, 68
2, 84960, Note_on_c, 0, 81, 77
2, 85018, Note_off_c, 0, 81, 77
2, 85020, Note_on_c, 0, 79, 62
2, 85078, Note_off_c, 0, 79, 62
2, 85080, Note_on_c, 0, 77, 53
2, 85138, Note_off_c, 0, 77, 53
2, 85140, Note_on_c, 0, 76, 55
2, 85198, Note_off_c, 0, 76, 55
2, 85200, Note_on_c, 0, 76, 79
2, 85258, Note_off_c, 0, 76, 79
2, 85260, Note_on_c, 0, 74, 67
2, 85318, Note_off_c, 0, 74, 67
2, 85320, Note_on_c, 0, 72, 63
2, 85378, Note_off_c, 0, 72, 63
2, 85380, Note_on_c, 0, 71, 67
2, 85438, Note_off_c, 0, 71, 67
2, 85440, Note_on_c, 0, 69, 71
2, 85498, Note_off_c, 0, 69, 71
2, 85560, Note_on_c, 0, 80, 70
2, 85618, Note_off_c, 0, 80, 70
2, 85620, Note_on_c, 0, 81, 65
2, 85678, Note_off_c, 0, 81, 65
2, 85680, Note_on_c, 0, 79, 67
2, 85738, Note_off_c, 0, 79, 67
2, 85740, Note_on_c, 0, 77, 67
2, 85798, Note_off_c, 0, 77, 67
2, 85800, Note_on_c, 0, 76, 63
2, 85858, Note_off_c, 0, 76, 63
2, 85860, Note_on_c, 0, 74, 53
2, 85918, Note_off_c, 0, 74, 53
2, 85920, Note_on_c, 0, 72, 66
2, 86158, Note_off_c, 0, 72, 66
2, 86160, Note_on_c, 0, 71, 63
2, 86206, Note_off_c, 0, 71, 63
2, 86208, Note_on_c, 0, 72, 67
2, 86254, Note_off_c, 0, 72, 67
2, 86256, Note_on_c, 0, 71, 63
2, 86302, Note_off_c, 0, 71, 63
2, 86304, Note_on_c, 0, 69, 67
2, 86350, Note_off_c, 0, 69, 67
2, 86352, Note_on_c, 0, 71, 58
2, 86398, Note_off_c, 0, 71, 58
2, 86400, Note_on_c, 0, 72, 55
2, 86458, Note_off_c, 0, 72, 55
2, 86460, Note_on_c, 0, 84, 53
2, 86518, Note_off_c, 0, 84, 53
2, 86520, Note_on_c, 0, 83, 67
2, 86578, Note_off_c, 0, 83, 67
2, 86580, Note_on_c, 0, 84, 60
2, 86638, Note_off_c, 0, 84, 60
2, 86640, Note_on_c, 0, 86, 65
2, 86698, Note_off_c, 0, 86, 65
2, 86700, Note_on_c, 0, 84, 57
2, 86758, Note_off_c, 0, 84, 57
2, 86760, Note_on_c, 0, 83, 81
2, 86818, Note_off_c, 0, 83, 81
2, 86820, Note_on_c, 0, 81, 65
2, 86878, Note_off_c, 0, 81, 65
2, 86880, Note_on_c, 0, 81, 74
2, 86938, Note_off_c, 0, 81, 74
2, 86940, Note_on_c, 0, 79, 73
2, 86998, Note_off_c, 0, 79, 73
2, 87000, Note_on_c, 0, 77, 78
2, 87058, Note_off_c, 0, 77, 78
2, 87060, Note_on_c, 0, 76, 74
2, 87118, Note_off_c, 0, 76, 74
2, 87120, Note_on_c, 0, 76, 62
2, 87178, Note_off_c, 0, 76, 62
2, 87180, Note_on_c, 0, 74, 57
2, 87238, Note_off_c, 0, 74, 57
2, 87240, Note_on_c, 0, 72, 74
2, 87298, Note_off_c, 0, 72, 74
2, 87300, Note_on_c, 0, 71, 65
2, 87358, Note_off_c, 0, 71, 65
2, 87360, Note_on_c, 0, 69, 67
2, 87418, Note_off_c, 0, 69, 67
2, 87480, Note_on_c, 0, 80, 68
2, 87538, Note_off_c, 0, 80, 68
2, 87540, Note_on_c, 0, 81, 72
2, 87598, Note_off_c, 0, 81, 72
2, 87600, Note_on_c, 0, 79, 56
2, 87658, Note_off_c, 0, 79, 56
2, 87660, Note_on_c, 0, 77, 67
2, 87718, Note_off_c, 0, 77, 67
2, 87720, Note_on_c, 0, 76, 62
2, 87778, Note_off_c, 0, 76, 62
2, 87780, Note_on_c, 0, 74, 61
2, 87838, Note_off_c, 0, 74, 61
2, 87840, Note_on_c, 0, 72, 61
2, 88078, Note_off_c, 0, 72, 61
2, 88080, Note_on_c, 0, 71, 61
2, 88112, Note_off_c, 0, 71, 61
2, 88114, Note_on_c, 0, 72, 55
2, 88147, Note_off_c, 0, 72, 55
2, 88149, Note_on_c, 0, 71, 57
2, 88181, Note_off_c, 0, 71, 57
2, 88183, Note_on_c, 0, 72, 65
2, 88215, Note_off_c, 0, 72, 65
2, 88217, Note_on_c, 0, 71, 74
2, 88249, Note_off_c, 0, 71, 74
2, 88251, Note_on_c, 0, 69, 65
2, 88284, Note_off_c, 0, 69, 65
2, 88286, Note_on_c, 0, 71, 58
2, 88318, Note_off_c, 0, 71, 58
2, 88320, Note_on_c, 0, 72, 65
2, 88378, Note_off_c, 0, 72, 65
2, 88560, Note_on_c, 0, 65, 57
2, 88560, Note_on_c, 0, 69, 71
2, 88618, Note_off_c, 0, 65, 57
2, 88618, Note_off_c, 0, 69, 71
2, 88800, Note_on_c, 0, 64, 66
2, 88800, Note_on_c, 0, 67, 58
2, 88858, Note_off_c, 0, 64, 66
2, 88858, Note_off_c, 0, 67, 58
2, 89040, Note_on_c, 0, 65, 73
2, 89040, Note_on_c, 0, 71, 74
2, 89040, Note_on_c, 0, 62, 67
2, 89098, Note_off_c, 0, 65, 73
2, 89098, Note_off_c, 0, 71, 74
2, 89098, Note_off_c, 0, 62, 67
2, 89280, Note_on_c, 0, 64, 68
2, 89280, Note_on_c, 0, 67, 68
2, 89280, Note_on_c, 0, 72, 76
2, 89338, Note_off_c, 0, 64, 68
2, 89338, Note_off_c, 0, 67, 68
2, 89338, Note_off_c, 0, 72, 76
2, 89520, Note_on_c, 0, 77, 74
2, 89520, Note_on_c, 0, 81, 78
2, 89578, Note_off_c, 0, 77, 74
2, 89578, Note_off_c, 0, 81, 78
2, 89760, Note_on_c, 0, 76, 71
2, 89760, Note_on_c, 0, 79, 76
2, 89818, Note_off_c, 0, 76, 71
2, 89818, Note_off_c, 0, 79, 76
2, 90000, Note_on_c, 0, 74, 74
2, 90000, Note_on_c, 0, 77, 77
2, 90000, Note_on_c, 0, 83, 79
2, 90058, Note_off_c, 0, 74, 74
2, 90058, Note_off_c, 0, 77, 77
2, 90058, Note_off_c, 0, 83, 79
2, 90240, Note_on_c, 0, 76, 68
2, 90240, Note_on_c, 0, 79, 73
2, 90240, Note_on_c, 0, 84, 77
2, 90718, Note_off_c, 0, 76, 68
2, 90718, Note_off_c, 0, 79, 73
2, 90718, Note_off_c, 0, 84, 77
2, 90960, Note_on_c, 0, 67, 56
2, 91138, Note_off_c, 0, 67, 56
2, 91140, Note_on_c, 0, 64, 52
2, 91198, Note_off_c, 0, 64, 52
2, 91200, Note_on_c, 0, 60, 58
2, 91258, Note_off_c, 0, 60, 58
2, 91440, Note_on_c, 0, 64, 50
2, 91618, Note_off_c, 0, 64, 50
2, 91620, Note_on_c, 0, 60, 51
2, 91678, Note_off_c, 0, 60, 51
2, 91680, Note_on_c, 0, 59, 50
2, 91738, Note_off_c, 0, 59, 50
2, 91920, Note_on_c, 0, 62, 66
2, 92098, Note_off_c, 0, 62, 66
2, 92100, Note_on_c, 0, 59, 46
2, 92158, Note_off_c, 0, 59, 46
2, 92160, Note_on_c, 0, 60, 56
2, 92278, Note_off_c, 0, 60, 56
2, 92400, Note_on_c, 0, 69, 44
2, 92400, Note_on_c, 0, 65, 51
2, 92638, Note_off_c, 0, 69, 44
2, 92638, Note_off_c, 0, 65, 51
2, 92640, Note_on_c, 0, 67, 38
2, 92640, Note_on_c, 0, 64, 33
2, 92758, Note_off_c, 0, 67, 38
2, 92758, Note_off_c, 0, 64, 33
2, 92880, Note_on_c, 0, 74, 66
2, 92938, Note_off_c, 0, 74, 66
2, 92940, Note_on_c, 0, 72, 65
2, 92998, Note_off_c, 0, 72, 65
2, 93000, Note_on_c, 0, 71, 65
2, 93058, Note_off_c, 0, 71, 65
2, 93060, Note_on_c, 0, 69, 65
2, 93118, Note_off_c, 0, 69, 65
2, 93120, Note_on_c, 0, 67, 53
2, 93358, Note_off_c, 0, 67, 53
2, 93360, Note_on_c, 0, 76, 63
2, 93438, Note_off_c, 0, 76, 63
2, 93440, Note_on_c, 0, 64, 65
2, 93518, Note_off_c, 0, 64, 65
2, 93520, Note_on_c, 0, 69, 63
2, 93598, Note_off_c, 0, 69, 63
2, 93600, Note_on_c, 0, 67, 67
2, 93694, Note_off_c, 0, 67, 67
2, 93840, Note_on_c, 0, 65, 65
2, 93886, Note_off_c, 0, 65, 65
2, 93888, Note_on_c, 0, 67, 65
2, 93934, Note_off_c, 0, 67, 65
2, 93936, Note_on_c, 0, 65, 65
2, 93982, Note_off_c, 0, 65, 65
2, 93984, Note_on_c, 0, 64, 55
2, 94030, Note_off_c, 0, 64, 55
2, 94032, Note_on_c, 0, 65, 60
2, 94078, Note_off_c, 0, 65, 60
2, 94080, Note_on_c, 0, 65, 58
2, 94558, Note_off_c, 0, 65, 58
2, 94560, Note_on_c, 0, 64, 43
2, 94678, Note_off_c, 0, 64, 43
2, 94800, Note_on_c, 0, 67, 65
2, 94858, Note_off_c, 0, 67, 65
2, 94860, Note_on_c, 0, 64, 62
2, 94918, Note_off_c, 0, 64, 62
2, 94920, Note_on_c, 0, 67, 63
2, 94978, Note_off_c, 0, 67, 63
2, 94980, Note_on_c, 0, 64, 62
2, 95038, Note_off_c, 0, 64, 62
2, 95040, Note_on_c, 0, 60, 65
2, 95098, Note_off_c, 0, 60, 65
2, 95280, Note_on_c, 0, 79, 77
2, 95398, Note_off_c, 0, 79, 77
2, 95760, Note_on_c, 0, 77, 72
2, 95818, Note_off_c, 0, 77, 72
2, 95820, Note_on_c, 0, 76, 71
2, 95878, Note_off_c, 0, 76, 71
2, 95880, Note_on_c, 0, 74, 65
2, 95938, Note_off_c, 0, 74, 65
2, 95940, Note_on_c, 0, 72, 52
2, 95998, Note_off_c, 0, 72, 52
2, 96000, Note_on_c, 0, 77, 72
2, 96118, Note_off_c, 0, 77, 72
2, 96720, Note_on_c, 0, 72, 68
2, 96778, Note_off_c, 0, 72, 68
2, 96780, Note_on_c, 0, 69, 73
2, 96838, Note_off_c, 0, 69, 73
2, 96840, Note_on_c, 0, 72, 63
2, 96898, Note_off_c, 0, 72, 63
2, 96900, Note_on_c, 0, 69, 71
2, 96958, Note_off_c, 0, 69, 71
2, 96960, Note_on_c, 0, 65, 71
2, 97078, Note_off_c, 0, 65, 71
2, 97200, Note_on_c, 0, 84, 74
2, 97318, Note_off_c, 0, 84, 74
2, 97680, Note_on_c, 0, 82, 66
2, 97738, Note_off_c, 0, 82, 66
2, 97740, Note_on_c, 0, 81, 72
2, 97798, Note_off_c, 0, 81, 72
2, 97800, Note_on_c, 0, 79, 66
2, 97858, Note_off_c, 0, 79, 66
2, 97860, Note_on_c, 0, 77, 66
2, 97918, Note_off_c, 0, 77, 66
2, 97920, Note_on_c, 0, 82, 74
2, 97978, Note_off_c, 0, 82, 74
2, 98040, Note_on_c, 0, 86, 68
2, 98098, Note_off_c, 0, 86, 68
2, 98100, Note_on_c, 0, 84, 74
2, 98158, Note_off_c, 0, 84, 74
2, 98160, Note_on_c, 0, 82, 66
2, 98218, Note_off_c, 0, 82, 66
2, 98220, Note_on_c, 0, 81, 65
2, 98278, Note_off_c, 0, 81, 65
2, 98280, Note_on_c, 0, 79, 68
2, 98338, Note_off_c, 0, 79, 68
2, 98340, Note_on_c, 0, 77, 68
2, 98398, Note_off_c, 0, 77, 68
2, 98400, Note_on_c, 0, 75, 65
2, 98518, Note_off_c, 0, 75, 65
2, 98520, Note_on_c, 0, 84, 72
2, 98638, Note_off_c, 0, 84, 72
2, 98760, Note_on_c, 0, 75, 56
2, 98878, Note_off_c, 0, 75, 56
2, 98880, Note_on_c, 0, 74, 73
2, 98998, Note_off_c, 0, 74, 73
2, 99000, Note_on_c, 0, 82, 70
2, 99058, Note_off_c, 0, 82, 70
2, 99060, Note_on_c, 0, 81, 56
2, 99118, Note_off_c, 0, 81, 56
2, 99120, Note_on_c, 0, 79, 62
2, 99178, Note_off_c, 0, 79, 62
2, 99180, Note_on_c, 0, 77, 68
2, 99238, Note_off_c, 0, 77, 68
2, 99240, Note_on_c, 0, 75, 63
2, 99298, Note_off_c, 0, 75, 63
2, 99300, Note_on_c, 0, 74, 67
2, 99358, Note_off_c, 0, 74, 67
2, 99360, Note_on_c, 0, 72, 68
2, 99478, Note_off_c, 0, 72, 68
2, 99480, Note_on_c, 0, 81, 74
2, 99598, Note_off_c, 0, 81, 74
2, 99720, Note_on_c, 0, 72, 66
2, 99838, Note_off_c, 0, 72, 66
2, 99840, Note_on_c, 0, 70, 66
2, 99958, Note_off_c, 0, 70, 66
2, 99960, Note_on_c, 0, 79, 68
2, 100018, Note_off_c, 0, 79, 68
2, 100020, Note_on_c, 0, 77, 66
2, 100078, Note_off_c, 0, 77, 66
2, 100080, Note_on_c, 0, 76, 77
2, 100138, Note_off_c, 0, 76, 77
2, 100140, Note_on_c, 0, 74, 81
2, 100198, Note_off_c, 0, 74, 81
2, 100200, Note_on_c, 0, 72, 74
2, 100258, Note_off_c, 0, 72, 74
2, 100260, Note_on_c, 0, 70, 70
2, 100318, Note_off_c, 0, 70, 70
2, 100320, Note_on_c, 0, 69, 71
2, 100438, Note_off_c, 0, 69, 71
2, 100440, Note_on_c, 0, 77, 74
2, 100558, Note_off_c, 0, 77, 74
2, 100680, Note_on_c, 0, 69, 48
2, 100798, Note_off_c, 0, 69, 48
2, 100800, Note_on_c, 0, 67, 71
2, 100918, Note_off_c, 0, 67, 71
2, 100920, Note_on_c, 0, 76, 73
2, 100978, Note_off_c, 0, 76, 73
2, 100980, Note_on_c, 0, 74, 68
2, 101038, Note_off_c, 0, 74, 68
2, 101040, Note_on_c, 0, 73, 71
2, 101098, Note_off_c, 0, 73, 71
2, 101100, Note_on_c, 0, 71, 67
2, 101158, Note_off_c, 0, 71, 67
2, 101160, Note_on_c, 0, 69, 67
2, 101218, Note_off_c, 0, 69, 67
2, 101220, Note_on_c, 0, 67, 71
2, 101278, Note_off_c, 0, 67, 71
2, 101280, Note_on_c, 0, 65, 62
2, 101398, Note_off_c, 0, 65, 62
2, 101400, Note_on_c, 0, 74, 68
2, 101518, Note_off_c, 0, 74, 68
2, 101640, Note_on_c, 0, 65, 50
2, 101640, Note_on_c, 0, 62, 44
2, 101758, Note_off_c, 0, 65, 50
2, 101758, Note_off_c, 0, 62, 44
2, 101760, Note_on_c, 0, 64, 72
2, 101760, Note_on_c, 0, 61, 60
2, 101878, Note_off_c, 0, 64, 72
2, 101878, Note_off_c, 0, 61, 60
2, 102000, Note_on_c, 0, 65, 67
2, 102000, Note_on_c, 0, 69, 71
2, 102118, Note_off_c, 0, 65, 67
2, 102118, Note_off_c, 0, 69, 71
2, 102240, Note_on_c, 0, 67, 70
2, 102240, Note_on_c, 0, 64, 63
2, 102358, Note_off_c, 0, 67, 70
2, 102358, Note_off_c, 0, 64, 63
2, 102480, Note_on_c, 0, 62, 68
2, 102480, Note_on_c, 0, 65, 73
2, 102598, Note_off_c, 0, 62, 68
2, 102598, Note_off_c, 0, 65, 73
2, 102720, Note_on_c, 0, 64, 68
2, 102720, Note_on_c, 0, 61, 55
2, 102838, Note_off_c, 0, 64, 68
2, 102838, Note_off_c, 0, 61, 55
2, 102960, Note_on_c, 0, 81, 74
2, 103018, Note_off_c, 0, 81, 74
2, 103020, Note_on_c, 0, 69, 56
2, 103078, Note_off_c, 0, 69, 56
2, 103080, Note_on_c, 0, 68, 63
2, 103138, Note_off_c, 0, 68, 63
2, 103140, Note_on_c, 0, 69, 55
2, 103198, Note_off_c, 0, 69, 55
2, 103200, Note_on_c, 0, 79, 74
2, 103258, Note_off_c, 0, 79, 74
2, 103260, Note_on_c, 0, 69, 52
2, 103318, Note_off_c, 0, 69, 52
2, 103320, Note_on_c, 0, 68, 61
2, 103378, Note_off_c, 0, 68, 61
2, 103380, Note_on_c, 0, 69, 65
2, 103438, Note_off_c, 0, 69, 65
2, 103440, Note_on_c, 0, 77, 76
2, 103498, Note_off_c, 0, 77, 76
2, 103500, Note_on_c, 0, 69, 56
2, 103558, Note_off_c, 0, 69, 56
2, 103560, Note_on_c, 0, 68, 63
2, 103618, Note_off_c, 0, 68, 63
2, 103620, Note_on_c, 0, 69, 55
2, 103678, Note_off_c, 0, 69, 55
2, 103680, Note_on_c, 0, 76, 72
2, 103798, Note_off_c, 0, 76, 72
2, 104400, Note_on_c, 0, 69, 66
2, 104458, Note_off_c, 0, 69, 66
2, 104460, Note_on_c, 0, 65, 62
2, 104518, Note_off_c, 0, 65, 62
2, 104520, Note_on_c, 0, 69, 66
2, 104578, Note_off_c, 0, 69, 66
2, 104580, Note_on_c, 0, 65, 53
2, 104638, Note_off_c, 0, 65, 53
2, 104640, Note_on_c, 0, 62, 58
2, 104758, Note_off_c, 0, 62, 58
2, 105000, Note_on_c, 0, 81, 65
2, 105070, Note_off_c, 0, 81, 65
2, 105120, Note_on_c, 0, 79, 71
2, 105190, Note_off_c, 0, 79, 71
2, 105240, Note_on_c, 0, 77, 68
2, 105310, Note_off_c, 0, 77, 68
2, 105360, Note_on_c, 0, 76, 72
2, 105430, Note_off_c, 0, 76, 72
2, 105480, Note_on_c, 0, 74, 56
2, 105550, Note_off_c, 0, 74, 56
2, 105600, Note_on_c, 0, 74, 70
2, 105958, Note_off_c, 0, 74, 70
2, 105960, Note_on_c, 0, 76, 38
2, 106018, Note_off_c, 0, 76, 38
2, 106020, Note_on_c, 0, 74, 74
2, 106078, Note_off_c, 0, 74, 74
2, 106080, Note_on_c, 0, 73, 68
2, 106138, Note_off_c, 0, 73, 68
2, 106320, Note_on_c, 0, 70, 60
2, 106378, Note_off_c, 0, 70, 60
2, 106380, Note_on_c, 0, 67, 66
2, 106438, Note_off_c, 0, 67, 66
2, 106440, Note_on_c, 0, 70, 67
2, 106498, Note_off_c, 0, 70, 67
2, 106500, Note_on_c, 0, 67, 52
2, 106558, Note_off_c, 0, 67, 52
2, 106560, Note_on_c, 0, 61, 65
2, 106678, Note_off_c, 0, 61, 65
2, 106920, Note_on_c, 0, 82, 71
2, 106990, Note_off_c, 0, 82, 71
2, 107040, Note_on_c, 0, 81, 68
2, 107110, Note_off_c, 0, 81, 68
2, 107160, Note_on_c, 0, 79, 72
2, 107230, Note_off_c, 0, 79, 72
2, 107280, Note_on_c, 0, 77, 70
2, 107350, Note_off_c, 0, 77, 70
2, 107400, Note_on_c, 0, 76, 63
2, 107470, Note_off_c, 0, 76, 63
2, 107520, Note_on_c, 0, 76, 66
2, 107878, Note_off_c, 0, 76, 66
2, 107880, Note_on_c, 0, 77, 37
2, 107938, Note_off_c, 0, 77, 37
2, 107940, Note_on_c, 0, 76, 63
2, 107998, Note_off_c, 0, 76, 63
2, 108000, Note_on_c, 0, 74, 73
2, 108118, Note_off_c, 0, 74, 73
2, 108240, Note_on_c, 0, 74, 67
2, 108298, Note_off_c, 0, 74, 67
2, 108300, Note_on_c, 0, 69, 65
2, 108358, Note_off_c, 0, 69, 65
2, 108360, Note_on_c, 0, 74, 68
2, 108418, Note_off_c, 0, 74, 68
2, 108420, Note_on_c, 0, 69, 55
2, 108478, Note_off_c, 0, 69, 55
2, 108480, Note_on_c, 0, 62, 74
2, 108598, Note_off_c, 0, 62, 74
2, 108840, Note_on_c, 0, 75, 65
2, 108898, Note_off_c, 0, 75, 65
2, 108960, Note_on_c, 0, 74, 68
2, 109018, Note_off_c, 0, 74, 68
2, 109080, Note_on_c, 0, 72, 65
2, 109138, Note_off_c, 0, 72, 65
2, 109200, Note_on_c, 0, 70, 63
2, 109258, Note_off_c, 0, 70, 63
2, 109320, Note_on_c, 0, 69, 70
2, 109378, Note_off_c, 0, 69, 70
2, 109440, Note_on_c, 0, 72, 67
2, 109558, Note_off_c, 0, 72, 67
2, 109560, Note_on_c, 0, 70, 56
2, 109678, Note_off_c, 0, 70, 56
2, 109800, Note_on_c, 0, 77, 78
2, 109858, Note_off_c, 0, 77, 78
2, 109920, Note_on_c, 0, 76, 67
2, 109978, Note_off_c, 0, 76, 67
2, 110040, Note_on_c, 0, 74, 72
2, 110098, Note_off_c, 0, 74, 72
2, 110160, Note_on_c, 0, 73, 74
2, 110218, Note_off_c, 0, 73, 74
2, 110280, Note_on_c, 0, 71, 72
2, 110338, Note_off_c, 0, 71, 72
2, 110400, Note_on_c, 0, 74, 74
2, 110518, Note_off_c, 0, 74, 74
2, 110520, Note_on_c, 0, 73, 65
2, 110578, Note_off_c, 0, 73, 65
2, 110760, Note_on_c, 0, 82, 86
2, 110818, Note_off_c, 0, 82, 86
2, 110880, Note_on_c, 0, 81, 77
2, 110938, Note_off_c, 0, 81, 77
2, 111000, Note_on_c, 0, 79, 78
2, 111058, Note_off_c, 0, 79, 78
2, 111120, Note_on_c, 0, 77, 74
2, 111178, Note_off_c, 0, 77, 74
2, 111240, Note_on_c, 0, 76, 66
2, 111298, Note_off_c, 0, 76, 66
2, 111360, Note_on_c, 0, 77, 74
2, 111418, Note_off_c, 0, 77, 74
2, 111420, Note_on_c, 0, 74, 74
2, 111478, Note_off_c, 0, 74, 74
2, 111480, Note_on_c, 0, 69, 62
2, 111538, Note_off_c, 0, 69, 62
2, 111540, Note_on_c, 0, 65, 66
2, 111598, Note_off_c, 0, 65, 66
2, 111600, Note_on_c, 0, 62, 70
2, 111658, Note_off_c, 0, 62, 70
2, 111660, Note_on_c, 0, 77, 74
2, 111718, Note_off_c, 0, 77, 74
2, 111720, Note_on_c, 0, 74, 70
2, 111778, Note_off_c, 0, 74, 70
2, 111780, Note_on_c, 0, 69, 55
2, 111838, Note_off_c, 0, 69, 55
2, 111840, Note_on_c, 0, 79, 89
2, 111898, Note_off_c, 0, 79, 89
2, 111900, Note_on_c, 0, 76, 76
2, 111958, Note_off_c, 0, 76, 76
2, 111960, Note_on_c, 0, 73, 55
2, 112018, Note_off_c, 0, 73, 55
2, 112020, Note_on_c, 0, 67, 40
2, 112078, Note_off_c, 0, 67, 40
2, 112080, Note_on_c, 0, 64, 55
2, 112138, Note_off_c, 0, 64, 55
2, 112140, Note_on_c, 0, 79, 72
2, 112198, Note_off_c, 0, 79, 72
2, 112200, Note_on_c, 0, 76, 52
2, 112258, Note_off_c, 0, 76, 52
2, 112260, Note_on_c, 0, 73, 37
2, 112318, Note_off_c, 0, 73, 37
2, 112320, Note_on_c, 0, 81, 77
2, 112378, Note_off_c, 0, 81, 77
2, 112380, Note_on_c, 0, 77, 62
2, 112438, Note_off_c, 0, 77, 62
2, 112440, Note_on_c, 0, 74, 57
2, 112498, Note_off_c, 0, 74, 57
2, 112500, Note_on_c, 0, 69, 45
2, 112558, Note_off_c, 0, 69, 45
2, 112560, Note_on_c, 0, 65, 71
2, 112618, Note_off_c, 0, 65, 71
2, 112620, Note_on_c, 0, 81, 74
2, 112678, Note_off_c, 0, 81, 74
2, 112680, Note_on_c, 0, 77, 63
2, 112738, Note_off_c, 0, 77, 63
2, 112740, Note_on_c, 0, 74, 66
2, 112798, Note_off_c, 0, 74, 66
2, 112800, Note_on_c, 0, 82, 73
2, 112858, Note_off_c, 0, 82, 73
2, 112860, Note_on_c, 0, 79, 66
2, 112918, Note_off_c, 0, 79, 66
2, 112920, Note_on_c, 0, 74, 44
2, 112978, Note_off_c, 0, 74, 44
2, 112980, Note_on_c, 0, 70, 52
2, 113038, Note_off_c, 0, 70, 52
2, 113040, Note_on_c, 0, 67, 58
2, 113098, Note_off_c, 0, 67, 58
2, 113100, Note_on_c, 0, 82, 63
2, 113158, Note_off_c, 0, 82, 63
2, 113160, Note_on_c, 0, 79, 74
2, 113218, Note_off_c, 0, 79, 74
2, 113220, Note_on_c, 0, 74, 65
2, 113278, Note_off_c, 0, 74, 65
2, 113280, Note_on_c, 0, 81, 72
2, 113338, Note_off_c, 0, 81, 72
2, 113340, Note_on_c, 0, 77, 66
2, 113398, Note_off_c, 0, 77, 66
2, 113400, Note_on_c, 0, 74, 68
2, 113458, Note_off_c, 0, 74, 68
2, 113460, Note_on_c, 0, 69, 62
2, 113518, Note_off_c, 0, 69, 62
2, 113520, Note_on_c, 0, 65, 44
2, 113578, Note_off_c, 0, 65, 44
2, 113580, Note_on_c, 0, 81, 72
2, 113638, Note_off_c, 0, 81, 72
2, 113640, Note_on_c, 0, 77, 70
2, 113698, Note_off_c, 0, 77, 70
2, 113700, Note_on_c, 0, 74, 61
2, 113758, Note_off_c, 0, 74, 61
2, 113760, Note_on_c, 0, 83, 76
2, 113818, Note_off_c, 0, 83, 76
2, 113820, Note_on_c, 0, 77, 65
2, 113878, Note_off_c, 0, 77, 65
2, 113880, Note_on_c, 0, 74, 65
2, 113938, Note_off_c, 0, 74, 65
2, 113940, Note_on_c, 0, 71, 66
2, 113998, Note_off_c, 0, 71, 66
2, 114000, Note_on_c, 0, 68, 65
2, 114058, Note_off_c, 0, 68, 65
2, 114060, Note_on_c, 0, 86, 76
2, 114118, Note_off_c, 0, 86, 76
2, 114120, Note_on_c, 0, 83, 72
2, 114178, Note_off_c, 0, 83, 72
2, 114180, Note_on_c, 0, 77, 62
2, 114238, Note_off_c, 0, 77, 62
2, 114240, Note_on_c, 0, 85, 79
2, 114298, Note_off_c, 0, 85, 79
2, 114300, Note_on_c, 0, 81, 67
2, 114358, Note_off_c, 0, 81, 67
2, 114360, Note_on_c, 0, 76, 52
2, 114418, Note_off_c, 0, 76, 52
2, 114420, Note_on_c, 0, 73, 58
2, 114478, Note_off_c, 0, 73, 58
2, 114480, Note_on_c, 0, 69, 46
2, 114538, Note_off_c, 0, 69, 46
2, 114540, Note_on_c, 0, 85, 78
2, 114598, Note_off_c, 0, 85, 78
2, 114600, Note_on_c, 0, 81, 68
2, 114658, Note_off_c, 0, 81, 68
2, 114660, Note_on_c, 0, 76, 55
2, 114718, Note_off_c, 0, 76, 55
2, 114720, Note_on_c, 0, 86, 81
2, 114778, Note_off_c, 0, 86, 81
2, 114780, Note_on_c, 0, 80, 68
2, 114838, Note_off_c, 0, 80, 68
2, 114840, Note_on_c, 0, 77, 50
2, 114898, Note_off_c, 0, 77, 50
2, 114900, Note_on_c, 0, 74, 48
2, 114958, Note_off_c, 0, 74, 48
2, 114960, Note_on_c, 0, 71, 67
2, 115018, Note_off_c, 0, 71, 67
2, 115020, Note_on_c, 0, 86, 77
2, 115078, Note_off_c, 0, 86, 77
2, 115080, Note_on_c, 0, 80, 67
2, 115138, Note_off_c, 0, 80, 67
2, 115140, Note_on_c, 0, 77, 55
2, 115198, Note_off_c, 0, 77, 55
2, 115200, Note_on_c, 0, 85, 72
2, 115258, Note_off_c, 0, 85, 72
2, 115260, Note_on_c, 0, 81, 72
2, 115318, Note_off_c, 0, 81, 72
2, 115320, Note_on_c, 0, 76, 61
2, 115378, Note_off_c, 0, 76, 61
2, 115380, Note_on_c, 0, 73, 66
2, 115438, Note_off_c, 0, 73, 66
2, 115440, Note_on_c, 0, 69, 67
2, 115498, Note_off_c, 0, 69, 67
2, 115500, Note_on_c, 0, 88, 76
2, 115558, Note_off_c, 0, 88, 76
2, 115560, Note_on_c, 0, 85, 62
2, 115618, Note_off_c, 0, 85, 62
2, 115620, Note_on_c, 0, 81, 62
2, 115678, Note_off_c, 0, 81, 62
2, 115680, Note_on_c, 0, 85, 73
2, 115738, Note_off_c, 0, 85, 73
2, 115740, Note_on_c, 0, 81, 60
2, 115798, Note_off_c, 0, 81, 60
2, 115800, Note_on_c, 0, 76, 56
2, 115858, Note_off_c, 0, 76, 56
2, 115860, Note_on_c, 0, 73, 37
2, 115918, Note_off_c, 0, 73, 37
2, 115920, Note_on_c, 0, 69, 61
2, 115978, Note_off_c, 0, 69, 61
2, 115980, Note_on_c, 0, 85, 65
2, 116038, Note_off_c, 0, 85, 65
2, 116040, Note_on_c, 0, 81, 74
2, 116098, Note_off_c, 0, 81, 74
2, 116100, Note_on_c, 0, 76, 52
2, 116158, Note_off_c, 0, 76, 52
2, 116160, Note_on_c, 0, 82, 76
2, 116218, Note_off_c, 0, 82, 76
2, 116220, Note_on_c, 0, 79, 46
2, 116278, Note_off_c, 0, 79, 46
2, 116280, Note_on_c, 0, 76, 46
2, 116338, Note_off_c, 0, 76, 46
2, 116340, Note_on_c, 0, 73, 46
2, 116398, Note_off_c, 0, 73, 46
2, 116400, Note_on_c, 0, 81, 76
2, 116458, Note_off_c, 0, 81, 76
2, 116460, Note_on_c, 0, 78, 62
2, 116518, Note_off_c, 0, 78, 62
2, 116520, Note_on_c, 0, 75, 46
2, 116578, Note_off_c, 0, 75, 46
2, 116580, Note_on_c, 0, 72, 60
2, 116638, Note_off_c, 0, 72, 60
2, 116640, Note_on_c, 0, 80, 78
2, 116698, Note_off_c, 0, 80, 78
2, 116700, Note_on_c, 0, 77, 70
2, 116758, Note_off_c, 0, 77, 70
2, 116760, Note_on_c, 0, 74, 60
2, 116818, Note_off_c, 0, 74, 60
2, 116820, Note_on_c, 0, 71, 57
2, 116878, Note_off_c, 0, 71, 57
2, 116880, Note_on_c, 0, 79, 81
2, 116938, Note_off_c, 0, 79, 81
2, 116940, Note_on_c, 0, 76, 67
2, 116998, Note_off_c, 0, 76, 67
2, 117000, Note_on_c, 0, 73, 42
2, 117058, Note_off_c, 0, 73, 42
2, 117060, Note_on_c, 0, 70, 51
2, 117118, Note_off_c, 0, 70, 51
2, 117120, Note_on_c, 0, 77, 72
2, 117178, Note_off_c, 0, 77, 72
2, 117180, Note_on_c, 0, 74, 68
2, 117238, Note_off_c, 0, 74, 68
2, 117240, Note_on_c, 0, 71, 61
2, 117298, Note_off_c, 0, 71, 61
2, 117300, Note_on_c, 0, 68, 68
2, 117358, Note_off_c, 0, 68, 68
2, 117360, Note_on_c, 0, 56, 68
2, 117418, Note_off_c, 0, 56, 68
2, 117420, Note_on_c, 0, 71, 58
2, 117478, Note_off_c, 0, 71, 58
2, 117480, Note_on_c, 0, 74, 65
2, 117538, Note_off_c, 0, 74, 65
2, 117540, Note_on_c, 0, 77, 45
2, 117598, Note_off_c, 0, 77, 45
2, 117600, Note_on_c, 0, 57, 57
2, 117600, Note_on_c, 0, 62, 67
2, 117660, Note_on_c, 0, 69, 55
2, 117718, Note_off_c, 0, 69, 55
2, 117720, Note_on_c, 0, 74, 72
2, 117778, Note_off_c, 0, 74, 72
2, 117780, Note_on_c, 0, 77, 63
2, 117838, Note_off_c, 0, 57, 57
2, 117838, Note_off_c, 0, 62, 67
2, 117838, Note_off_c, 0, 77, 63
2, 117840, Note_on_c, 0, 61, 63
2, 117840, Note_on_c, 0, 57, 68
2, 117900, Note_on_c, 0, 67, 67
2, 117958, Note_off_c, 0, 67, 67
2, 117960, Note_on_c, 0, 73, 62
2, 118018, Note_off_c, 0, 73, 62
2, 118020, Note_on_c, 0, 76, 72
2, 118078, Note_off_c, 0, 61, 63
2, 118078, Note_off_c, 0, 57, 68
2, 118078, Note_off_c, 0, 76, 72
2, 118080, Note_on_c, 0, 73, 66
2, 118138, Note_off_c, 0, 73, 66
2, 118140, Note_on_c, 0, 76, 60
2, 118198, Note_off_c, 0, 76, 60
2, 118200, Note_on_c, 0, 79, 66
2, 118258, Note_off_c, 0, 79, 66
2, 118260, Note_on_c, 0, 82, 71
2, 118318, Note_off_c, 0, 82, 71
2, 118320, Note_on_c, 0, 72, 74
2, 118378, Note_off_c, 0, 72, 74
2, 118380, Note_on_c, 0, 75, 55
2, 118438, Note_off_c, 0, 75, 55
2, 118440, Note_on_c, 0, 78, 45
2, 118498, Note_off_c, 0, 78, 45
2, 118500, Note_on_c, 0, 81, 68
2, 118558, Note_off_c, 0, 81, 68
2, 118560, Note_on_c, 0, 71, 77
2, 118618, Note_off_c, 0, 71, 77
2, 118620, Note_on_c, 0, 74, 67
2, 118678, Note_off_c, 0, 74, 67
2, 118680, Note_on_c, 0, 77, 62
2, 118738, Note_off_c, 0, 77, 62
2, 118740, Note_on_c, 0, 80, 74
2, 118798, Note_off_c, 0, 80, 74
2, 118800, Note_on_c, 0, 70, 67
2, 118858, Note_off_c, 0, 70, 67
2, 118860, Note_on_c, 0, 73, 56
2, 118918, Note_off_c, 0, 73, 56
2, 118920, Note_on_c, 0, 76, 72
2, 118978, Note_off_c, 0, 76, 72
2, 118980, Note_on_c, 0, 79, 65
2, 119038, Note_off_c, 0, 79, 65
2, 119040, Note_on_c, 0, 68, 77
2, 119098, Note_off_c, 0, 68, 77
2, 119100, Note_on_c, 0, 71, 62
2, 119158, Note_off_c, 0, 71, 62
2, 119160, Note_on_c, 0, 74, 45
2, 119218, Note_off_c, 0, 74, 45
2, 119220, Note_on_c, 0, 77, 70
2, 119278, Note_off_c, 0, 77, 70
2, 119280, Note_on_c, 0, 56, 73
2, 119338, Note_off_c, 0, 56, 73
2, 119340, Note_on_c, 0, 71, 56
2, 119398, Note_off_c, 0, 71, 56
2, 119400, Note_on_c, 0, 74, 56
2, 119458, Note_off_c, 0, 74, 56
2, 119460, Note_on_c, 0, 77, 55
2, 119518, Note_off_c, 0, 77, 55
2, 119520, Note_on_c, 0, 57, 67
2, 119520, Note_on_c, 0, 62, 71
2, 119580, Note_on_c, 0, 69, 65
2, 119638, Note_off_c, 0, 69, 65
2, 119640, Note_on_c, 0, 74, 70
2, 119698, Note_off_c, 0, 74, 70
2, 119700, Note_on_c, 0, 77, 46
2, 119758, Note_off_c, 0, 57, 67
2, 119758, Note_off_c, 0, 62, 71
2, 119758, Note_off_c, 0, 77, 46
2, 119760, Note_on_c, 0, 61, 58
2, 119760, Note_on_c, 0, 57, 62
2, 119820, Note_on_c, 0, 67, 67
2, 119878, Note_off_c, 0, 67, 67
2, 119880, Note_on_c, 0, 73, 63
2, 119938, Note_off_c, 0, 73, 63
2, 119940, Note_on_c, 0, 76, 68
2, 119998, Note_off_c, 0, 61, 58
2, 119998, Note_off_c, 0, 57, 62
2, 119998, Note_off_c, 0, 76, 68
2, 120000, Note_on_c, 0, 74, 77
2, 120118, Note_off_c, 0, 74, 77
2, 120480, Note_on_c, 0, 75, 84
2, 120480, Note_on_c, 0, 66, 75
2, 120480, Note_on_c, 0, 72, 86
2, 120958, Note_off_c, 0, 75, 84
2, 120958, Note_off_c, 0, 66, 75
2, 120958, Note_off_c, 0, 72, 86
2, 120960, Note_on_c, 0, 70, 58
2, 120960, Note_on_c, 0, 74, 67
2, 120960, Note_on_c, 0, 67, 65
2, 121078, Note_off_c, 0, 70, 58
2, 121078, Note_off_c, 0, 74, 67
2, 121078, Note_off_c, 0, 67, 65
2, 121200, Note_on_c, 0, 82, 76
2, 121200, Note_on_c, 0, 79, 71
2, 121318, Note_off_c, 0, 82, 76
2, 121318, Note_off_c, 0, 79, 71
2, 121440, Note_on_c, 0, 66, 75
2, 121440, Note_on_c, 0, 72, 86
2, 121440, Note_on_c, 0, 69, 79
2, 121918, Note_off_c, 0, 66, 75
2, 121918, Note_off_c, 0, 72, 86
2, 121918, Note_off_c, 0, 69, 79
2, 121920, Note_on_c, 0, 70, 65
2, 121978, Note_off_c, 0, 70, 65
2, 121980, Note_on_c, 0, 67, 57
2, 122038, Note_off_c, 0, 67, 57
2, 122040, Note_on_c, 0, 69, 63
2, 122098, Note_off_c, 0, 69, 63
2, 122100, Note_on_c, 0, 70, 74
2, 122158, Note_off_c, 0, 70, 74
2, 122160, Note_on_c, 0, 72, 68
2, 122218, Note_off_c, 0, 72, 68
2, 122220, Note_on_c, 0, 74, 57
2, 122278, Note_off_c, 0, 74, 57
2, 122280, Note_on_c, 0, 76, 66
2, 122338, Note_off_c, 0, 76, 66
2, 122340, Note_on_c, 0, 78, 76
2, 122398, Note_off_c, 0, 78, 76
2, 122400, Note_on_c, 0, 79, 78
2, 122458, Note_off_c, 0, 79, 78
2, 122460, Note_on_c, 0, 81, 81
2, 122518, Note_off_c, 0, 81, 81
2, 122520, Note_on_c, 0, 82, 89
2, 122578, Note_off_c, 0, 82, 89
2, 122580, Note_on_c, 0, 81, 72
2, 122638, Note_off_c, 0, 81, 72
2, 122640, Note_on_c, 0, 79, 65
2, 122698, Note_off_c, 0, 79, 65
2, 122700, Note_on_c, 0, 77, 68
2, 122758, Note_off_c, 0, 77, 68
2, 122760, Note_on_c, 0, 76, 52
2, 122818, Note_off_c, 0, 76, 52
2, 122820, Note_on_c, 0, 74, 65
2, 122878, Note_off_c, 0, 74, 65
2, 122880, Note_on_c, 0, 72, 67
2, 122998, Note_off_c, 0, 72, 67
2, 123360, Note_on_c, 0, 73, 91
2, 123360, Note_on_c, 0, 70, 86
2, 123360, Note_on_c, 0, 64, 86
2, 123838, Note_off_c, 0, 73, 91
2, 123838, Note_off_c, 0, 70, 86
2, 123838, Note_off_c, 0, 64, 86
2, 123840, Note_on_c, 0, 72, 67
2, 123840, Note_on_c, 0, 69, 61
2, 123840, Note_on_c, 0, 65, 61
2, 123958, Note_off_c, 0, 72, 67
2, 123958, Note_off_c, 0, 69, 61
2, 123958, Note_off_c, 0, 65, 61
2, 124080, Note_on_c, 0, 81, 76
2, 124080, Note_on_c, 0, 77, 72
2, 124198, Note_off_c, 0, 81, 76
2, 124198, Note_off_c, 0, 77, 72
2, 124320, Note_on_c, 0, 64, 83
2, 124320, Note_on_c, 0, 70, 75
2, 124320, Note_on_c, 0, 67, 77
2, 124798, Note_off_c, 0, 64, 83
2, 124798, Note_off_c, 0, 70, 75
2, 124798, Note_off_c, 0, 67, 77
2, 124800, Note_on_c, 0, 65, 68
2, 124800, Note_on_c, 0, 69, 63
2, 125038, Note_off_c, 0, 65, 68
2, 125038, Note_off_c, 0, 69, 63
2, 125040, Note_on_c, 0, 77, 73
2, 125158, Note_off_c, 0, 77, 73
2, 125280, Note_on_c, 0, 65, 80
2, 125280, Note_on_c, 0, 71, 83
2, 125280, Note_on_c, 0, 62, 75
2, 125758, Note_off_c, 0, 65, 80
2, 125758, Note_off_c, 0, 71, 83
2, 125758, Note_off_c, 0, 62, 75
2, 125760, Note_on_c, 0, 72, 78
2, 125760, Note_on_c, 0, 67, 70
2, 125760, Note_on_c, 0, 64, 62
2, 125998, Note_off_c, 0, 72, 78
2, 125998, Note_off_c, 0, 67, 70
2, 125998, Note_off_c, 0, 64, 62
2, 126120, Note_on_c, 0, 60, 65
2, 126178, Note_off_c, 0, 60, 65
2, 126180, Note_on_c, 0, 64, 71
2, 126238, Note_off_c, 0, 64, 71
2, 126240, Note_on_c, 0, 67, 72
2, 126298, Note_off_c, 0, 67, 72
2, 126360, Note_on_c, 0, 64, 56
2, 126418, Note_off_c, 0, 64, 56
2, 126420, Note_on_c, 0, 67, 63
2, 126478, Note_off_c, 0, 67, 63
2, 126480, Note_on_c, 0, 70, 76
2, 126538, Note_off_c, 0, 70, 76
2, 126600, Note_on_c, 0, 67, 67
2, 126658, Note_off_c, 0, 67, 67
2, 126660, Note_on_c, 0, 70, 67
2, 126718, Note_off_c, 0, 70, 67
2, 126720, Note_on_c, 0, 76, 71
2, 126958, Note_off_c, 0, 76, 71
2, 127080, Note_on_c, 0, 86, 68
2, 127138, Note_off_c, 0, 86, 68
2, 127140, Note_on_c, 0, 82, 61
2, 127198, Note_off_c, 0, 82, 61
2, 127200, Note_on_c, 0, 79, 71
2, 127258, Note_off_c, 0, 79, 71
2, 127320, Note_on_c, 0, 82, 53
2, 127378, Note_off_c, 0, 82, 53
2, 127380, Note_on_c, 0, 79, 65
2, 127438, Note_off_c, 0, 79, 65
2, 127440, Note_on_c, 0, 76, 63
2, 127498, Note_off_c, 0, 76, 63
2, 127560, Note_on_c, 0, 79, 58
2, 127618, Note_off_c, 0, 79, 58
2, 127620, Note_on_c, 0, 76, 63
2, 127678, Note_off_c, 0, 76, 63
2, 127680, Note_on_c, 0, 72, 57
2, 127798, Note_off_c, 0, 72, 57
2, 128400, Note_on_c, 0, 72, 74
2, 128578, Note_off_c, 0, 72, 74
2, 128580, Note_on_c, 0, 69, 74
2, 128638, Note_off_c, 0, 69, 74
2, 128640, Note_on_c, 0, 65, 68
2, 128710, Note_off_c, 0, 65, 68
2, 128880, Note_on_c, 0, 69, 66
2, 129058, Note_off_c, 0, 69, 66
2, 129060, Note_on_c, 0, 65, 66
2, 129118, Note_off_c, 0, 65, 66
2, 129120, Note_on_c, 0, 64, 60
2, 129190, Note_off_c, 0, 64, 60
2, 129360, Note_on_c, 0, 67, 73
2, 129538, Note_off_c, 0, 67, 73
2, 129540, Note_on_c, 0, 64, 52
2, 129598, Note_off_c, 0, 64, 52
2, 129600, Note_on_c, 0, 65, 68
2, 129670, Note_off_c, 0, 65, 68
2, 129840, Note_on_c, 0, 70, 67
2, 129840, Note_on_c, 0, 74, 76
2, 130078, Note_off_c, 0, 70, 67
2, 130078, Note_off_c, 0, 74, 76
2, 130080, Note_on_c, 0, 69, 56
2, 130080, Note_on_c, 0, 72, 61
2, 130198, Note_off_c, 0, 69, 56
2, 130198, Note_off_c, 0, 72, 61
2, 130320, Note_on_c, 0, 79, 77
2, 130378, Note_off_c, 0, 79, 77
2, 130380, Note_on_c, 0, 77, 73
2, 130438, Note_off_c, 0, 77, 73
2, 130440, Note_on_c, 0, 76, 65
2, 130498, Note_off_c, 0, 76, 65
2, 130500, Note_on_c, 0, 74, 71
2, 130558, Note_off_c, 0, 74, 71
2, 130560, Note_on_c, 0, 72, 65
2, 130798, Note_off_c, 0, 72, 65
2, 130800, Note_on_c, 0, 81, 74
2, 130878, Note_off_c, 0, 81, 74
2, 130880, Note_on_c, 0, 69, 58
2, 130958, Note_off_c, 0, 69, 58
2, 130960, Note_on_c, 0, 74, 65
2, 131038, Note_off_c, 0, 74, 65
2, 131040, Note_on_c, 0, 72, 68
2, 131278, Note_off_c, 0, 72, 68
2, 131280, Note_on_c, 0, 70, 63
2, 131306, Note_off_c, 0, 70, 63
2, 131328, Note_on_c, 0, 72, 66
2, 131354, Note_off_c, 0, 72, 66
2, 131376, Note_on_c, 0, 70, 60
2, 131402, Note_off_c, 0, 70, 60
2, 131424, Note_on_c, 0, 69, 78
2, 131450, Note_off_c, 0, 69, 78
2, 131472, Note_on_c, 0, 70, 71
2, 131498, Note_off_c, 0, 70, 71
2, 131520, Note_on_c, 0, 70, 63
2, 131998, Note_off_c, 0, 70, 63
2, 132000, Note_on_c, 0, 69, 55
2, 132118, Note_off_c, 0, 69, 55
2, 132240, Note_on_c, 0, 72, 66
2, 132298, Note_off_c, 0, 72, 66
2, 132300, Note_on_c, 0, 69, 74
2, 132358, Note_off_c, 0, 69, 74
2, 132360, Note_on_c, 0, 72, 66
2, 132418, Note_off_c, 0, 72, 66
2, 132420, Note_on_c, 0, 69, 79
2, 132478, Note_off_c, 0, 69, 79
2, 132480, Note_on_c, 0, 65, 68
2, 132538, Note_off_c, 0, 65, 68
2, 132720, Note_on_c, 0, 70, 61
2, 132778, Note_off_c, 0, 70, 61
2, 132780, Note_on_c, 0, 69, 68
2, 132838, Note_off_c, 0, 69, 68
2, 132840, Note_on_c, 0, 67, 68
2, 132898, Note_off_c, 0, 67, 68
2, 132900, Note_on_c, 0, 65, 65
2, 132958, Note_off_c, 0, 65, 65
2, 132960, Note_on_c, 0, 64, 68
2, 133018, Note_off_c, 0, 64, 68
2, 133200, Note_on_c, 0, 69, 72
2, 133258, Note_off_c, 0, 69, 72
2, 133260, Note_on_c, 0, 67, 76
2, 133318, Note_off_c, 0, 67, 76
2, 133320, Note_on_c, 0, 65, 71
2, 133378, Note_off_c, 0, 65, 71
2, 133380, Note_on_c, 0, 64, 57
2, 133438, Note_off_c, 0, 64, 57
2, 133440, Note_on_c, 0, 65, 76
2, 133498, Note_off_c, 0, 65, 76
2, 133560, Note_on_c, 0, 74, 67
2, 133618, Note_off_c, 0, 74, 67
2, 133620, Note_on_c, 0, 76, 74
2, 133678, Note_off_c, 0, 76, 74
2, 133680, Note_on_c, 0, 79, 74
2, 133738, Note_off_c, 0, 79, 74
2, 133740, Note_on_c, 0, 77, 76
2, 133798, Note_off_c, 0, 77, 76
2, 133800, Note_on_c, 0, 76, 81
2, 133858, Note_off_c, 0, 76, 81
2, 133860, Note_on_c, 0, 74, 65
2, 133918, Note_off_c, 0, 74, 65
2, 133920, Note_on_c, 0, 72, 74
2, 134158, Note_off_c, 0, 72, 74
2, 134160, Note_on_c, 0, 84, 81
2, 134218, Note_off_c, 0, 84, 81
2, 134220, Note_on_c, 0, 81, 78
2, 134278, Note_off_c, 0, 81, 78
2, 134280, Note_on_c, 0, 77, 72
2, 134338, Note_off_c, 0, 77, 72
2, 134340, Note_on_c, 0, 72, 65
2, 134398, Note_off_c, 0, 72, 65
2, 134400, Note_on_c, 0, 69, 57
2, 134878, Note_off_c, 0, 69, 57
2, 134880, Note_on_c, 0, 70, 50
2, 134938, Note_off_c, 0, 70, 50
2, 135120, Note_on_c, 0, 82, 72
2, 135178, Note_off_c, 0, 82, 72
2, 135180, Note_on_c, 0, 79, 61
2, 135238, Note_off_c, 0, 79, 61
2, 135240, Note_on_c, 0, 76, 67
2, 135298, Note_off_c, 0, 76, 67
2, 135300, Note_on_c, 0, 72, 55
2, 135358, Note_off_c, 0, 72, 55
2, 135360, Note_on_c, 0, 70, 55
2, 135838, Note_off_c, 0, 70, 55
2, 135840, Note_on_c, 0, 69, 52
2, 135898, Note_off_c, 0, 69, 52
2, 136080, Note_on_c, 0, 77, 73
2, 136138, Note_off_c, 0, 77, 73
2, 136140, Note_on_c, 0, 72, 74
2, 136198, Note_off_c, 0, 72, 74
2, 136200, Note_on_c, 0, 69, 74
2, 136258, Note_off_c, 0, 69, 74
2, 136260, Note_on_c, 0, 65, 76
2, 136318, Note_off_c, 0, 65, 76
2, 136320, Note_on_c, 0, 63, 68
2, 137398, Note_off_c, 0, 63, 68
2, 137400, Note_on_c, 0, 61, 68
2, 137518, Note_off_c, 0, 61, 68
2, 137520, Note_on_c, 0, 62, 68
2, 137638, Note_off_c, 0, 62, 68
2, 137640, Note_on_c, 0, 66, 74
2, 137758, Note_off_c, 0, 66, 74
2, 137760, Note_on_c, 0, 67, 77
2, 137878, Note_off_c, 0, 67, 77
2, 137880, Note_on_c, 0, 69, 71
2, 137998, Note_off_c, 0, 69, 71
2, 138000, Note_on_c, 0, 70, 76
2, 138118, Note_off_c, 0, 70, 76
2, 138120, Note_on_c, 0, 74, 74
2, 138181, Note_off_c, 0, 74, 74
2, 138240, Note_on_c, 0, 65, 66
2, 138240, Note_on_c, 0, 69, 66
2, 138478, Note_off_c, 0, 65, 66
2, 138478, Note_off_c, 0, 69, 66
2, 138480, Note_on_c, 0, 64, 63
2, 138480, Note_on_c, 0, 67, 63
2, 138718, Note_off_c, 0, 64, 63
2, 138718, Note_off_c, 0, 67, 63
2, 139260, Note_on_c, 0, 72, 71
2, 139318, Note_off_c, 0, 72, 71
2, 139320, Note_on_c, 0, 74, 71
2, 139378, Note_off_c, 0, 74, 71
2, 139380, Note_on_c, 0, 72, 66
2, 139438, Note_off_c, 0, 72, 66
2, 139440, Note_on_c, 0, 77, 74
2, 139498, Note_off_c, 0, 77, 74
2, 139500, Note_on_c, 0, 76, 76
2, 139558, Note_off_c, 0, 76, 76
2, 139560, Note_on_c, 0, 74, 89
2, 139618, Note_off_c, 0, 74, 89
2, 139620, Note_on_c, 0, 72, 72
2, 139678, Note_off_c, 0, 72, 72
2, 139680, Note_on_c, 0, 70, 66
2, 139738, Note_off_c, 0, 70, 66
2, 139740, Note_on_c, 0, 69, 94
2, 139798, Note_off_c, 0, 69, 94
2, 139800, Note_on_c, 0, 67, 72
2, 139858, Note_off_c, 0, 67, 72
2, 139860, Note_on_c, 0, 65, 76
2, 139918, Note_off_c, 0, 65, 76
2, 139920, Note_on_c, 0, 64, 72
2, 139978, Note_off_c, 0, 64, 72
2, 139980, Note_on_c, 0, 65, 60
2, 140038, Note_off_c, 0, 65, 60
2, 140040, Note_on_c, 0, 67, 77
2, 140098, Note_off_c, 0, 67, 77
2, 140100, Note_on_c, 0, 65, 66
2, 140158, Note_off_c, 0, 65, 66
2, 140160, Note_on_c, 0, 62, 74
2, 140218, Note_off_c, 0, 62, 74
2, 140220, Note_on_c, 0, 65, 55
2, 140278, Note_off_c, 0, 65, 55
2, 140280, Note_on_c, 0, 67, 58
2, 140338, Note_off_c, 0, 67, 58
2, 140340, Note_on_c, 0, 65, 57
2, 140398, Note_off_c, 0, 65, 57
2, 140400, Note_on_c, 0, 60, 77
2, 140458, Note_off_c, 0, 60, 77
2, 140460, Note_on_c, 0, 65, 62
2, 140518, Note_off_c, 0, 65, 62
2, 140520, Note_on_c, 0, 67, 68
2, 140578, Note_off_c, 0, 67, 68
2, 140580, Note_on_c, 0, 65, 56
2, 140638, Note_off_c, 0, 65, 56
2, 140640, Note_on_c, 0, 58, 71
2, 140758, Note_off_c, 0, 58, 71
2, 140760, Note_on_c, 0, 70, 73
2, 140878, Note_off_c, 0, 70, 73
2, 141000, Note_on_c, 0, 70, 70
2, 141118, Note_off_c, 0, 70, 70
2, 141120, Note_on_c, 0, 69, 61
2, 141178, Note_off_c, 0, 69, 61
2, 141180, Note_on_c, 0, 72, 56
2, 141238, Note_off_c, 0, 72, 56
2, 141240, Note_on_c, 0, 74, 56
2, 141298, Note_off_c, 0, 74, 56
2, 141300, Note_on_c, 0, 72, 51
2, 141358, Note_off_c, 0, 72, 51
2, 141360, Note_on_c, 0, 77, 59
2, 141418, Note_off_c, 0, 77, 59
2, 141420, Note_on_c, 0, 76, 61
2, 141478, Note_off_c, 0, 76, 61
2, 141480, Note_on_c, 0, 74, 74
2, 141538, Note_off_c, 0, 74, 74
2, 141540, Note_on_c, 0, 72, 57
2, 141598, Note_off_c, 0, 72, 57
2, 141600, Note_on_c, 0, 70, 51
2, 141658, Note_off_c, 0, 70, 51
2, 141660, Note_on_c, 0, 69, 79
2, 141718, Note_off_c, 0, 69, 79
2, 141720, Note_on_c, 0, 67, 57
2, 141778, Note_off_c, 0, 67, 57
2, 141780, Note_on_c, 0, 65, 61
2, 141838, Note_off_c, 0, 65, 61
2, 141840, Note_on_c, 0, 64, 57
2, 141898, Note_off_c, 0, 64, 57
2, 141900, Note_on_c, 0, 65, 45
2, 141958, Note_off_c, 0, 65, 45
2, 141960, Note_on_c, 0, 67, 62
2, 142018, Note_off_c, 0, 67, 62
2, 142020, Note_on_c, 0, 65, 51
2, 142078, Note_off_c, 0, 65, 51
2, 142080, Note_on_c, 0, 62, 59
2, 142138, Note_off_c, 0, 62, 59
2, 142140, Note_on_c, 0, 65, 40
2, 142198, Note_off_c, 0, 65, 40
2, 142200, Note_on_c, 0, 67, 43
2, 142258, Note_off_c, 0, 67, 43
2, 142260, Note_on_c, 0, 65, 42
2, 142318, Note_off_c, 0, 65, 42
2, 142320, Note_on_c, 0, 60, 62
2, 142378, Note_off_c, 0, 60, 62
2, 142380, Note_on_c, 0, 65, 47
2, 142438, Note_off_c, 0, 65, 47
2, 142440, Note_on_c, 0, 67, 53
2, 142498, Note_off_c, 0, 67, 53
2, 142500, Note_on_c, 0, 65, 41
2, 142558, Note_off_c, 0, 65, 41
2, 142560, Note_on_c, 0, 58, 56
2, 142678, Note_off_c, 0, 58, 56
2, 142680, Note_on_c, 0, 70, 58
2, 142798, Note_off_c, 0, 70, 58
2, 142920, Note_on_c, 0, 70, 60
2, 143038, Note_off_c, 0, 70, 60
2, 143040, Note_on_c, 0, 69, 68
2, 143098, Note_off_c, 0, 69, 68
2, 143100, Note_on_c, 0, 74, 65
2, 143158, Note_off_c, 0, 74, 65
2, 143160, Note_on_c, 0, 76, 65
2, 143218, Note_off_c, 0, 76, 65
2, 143220, Note_on_c, 0, 74, 77
2, 143278, Note_off_c, 0, 74, 77
2, 143280, Note_on_c, 0, 81, 65
2, 143338, Note_off_c, 0, 81, 65
2, 143340, Note_on_c, 0, 77, 70
2, 143398, Note_off_c, 0, 77, 70
2, 143400, Note_on_c, 0, 76, 58
2, 143458, Note_off_c, 0, 76, 58
2, 143460, Note_on_c, 0, 74, 71
2, 143518, Note_off_c, 0, 74, 71
2, 143520, Note_on_c, 0, 79, 74
2, 143578, Note_off_c, 0, 79, 74
2, 143580, Note_on_c, 0, 76, 60
2, 143638, Note_off_c, 0, 76, 60
2, 143640, Note_on_c, 0, 74, 65
2, 143698, Note_off_c, 0, 74, 65
2, 143700, Note_on_c, 0, 72, 65
2, 143758, Note_off_c, 0, 72, 65
2, 143760, Note_on_c, 0, 71, 73
2, 143818, Note_off_c, 0, 71, 73
2, 143820, Note_on_c, 0, 72, 63
2, 143878, Note_off_c, 0, 72, 63
2, 143880, Note_on_c, 0, 71, 63
2, 143938, Note_off_c, 0, 71, 63
2, 143940, Note_on_c, 0, 72, 65
2, 143998, Note_off_c, 0, 72, 65
2, 144000, Note_on_c, 0, 65, 71
2, 144058, Note_off_c, 0, 65, 71
2, 144060, Note_on_c, 0, 70, 57
2, 144118, Note_off_c, 0, 70, 57
2, 144120, Note_on_c, 0, 72, 71
2, 144178, Note_off_c, 0, 72, 71
2, 144180, Note_on_c, 0, 70, 68
2, 144238, Note_off_c, 0, 70, 68
2, 144240, Note_on_c, 0, 77, 77
2, 144298, Note_off_c, 0, 77, 77
2, 144300, Note_on_c, 0, 74, 65
2, 144358, Note_off_c, 0, 74, 65
2, 144360, Note_on_c, 0, 72, 67
2, 144418, Note_off_c, 0, 72, 67
2, 144420, Note_on_c, 0, 70, 67
2, 144478, Note_off_c, 0, 70, 67
2, 144480, Note_on_c, 0, 76, 76
2, 144538, Note_off_c, 0, 76, 76
2, 144540, Note_on_c, 0, 72, 66
2, 144598, Note_off_c, 0, 72, 66
2, 144600, Note_on_c, 0, 70, 55
2, 144658, Note_off_c, 0, 70, 55
2, 144660, Note_on_c, 0, 69, 52
2, 144718, Note_off_c, 0, 69, 52
2, 144720, Note_on_c, 0, 68, 73
2, 144778, Note_off_c, 0, 68, 73
2, 144780, Note_on_c, 0, 69, 63
2, 144838, Note_off_c, 0, 69, 63
2, 144840, Note_on_c, 0, 68, 42
2, 144898, Note_off_c, 0, 68, 42
2, 144900, Note_on_c, 0, 69, 56
2, 144958, Note_off_c, 0, 69, 56
2, 144960, Note_on_c, 0, 62, 68
2, 145018, Note_off_c, 0, 62, 68
2, 145020, Note_on_c, 0, 67, 62
2, 145078, Note_off_c, 0, 67, 62
2, 145080, Note_on_c, 0, 69, 70
2, 145138, Note_off_c, 0, 69, 70
2, 145140, Note_on_c, 0, 67, 67
2, 145198, Note_off_c, 0, 67, 67
2, 145200, Note_on_c, 0, 74, 74
2, 145258, Note_off_c, 0, 74, 74
2, 145260, Note_on_c, 0, 70, 67
2, 145318, Note_off_c, 0, 70, 67
2, 145320, Note_on_c, 0, 69, 67
2, 145378, Note_off_c, 0, 69, 67
2, 145380, Note_on_c, 0, 67, 65
2, 145438, Note_off_c, 0, 67, 65
2, 145440, Note_on_c, 0, 72, 73
2, 145498, Note_off_c, 0, 72, 73
2, 145500, Note_on_c, 0, 69, 55
2, 145558, Note_off_c, 0, 69, 55
2, 145560, Note_on_c, 0, 67, 58
2, 145618, Note_off_c, 0, 67, 58
2, 145620, Note_on_c, 0, 65, 62
2, 145678, Note_off_c, 0, 65, 62
2, 145680, Note_on_c, 0, 64, 71
2, 145738, Note_off_c, 0, 64, 71
2, 145740, Note_on_c, 0, 65, 62
2, 145798, Note_off_c, 0, 65, 62
2, 145800, Note_on_c, 0, 64, 55
2, 145858, Note_off_c, 0, 64, 55
2, 145860, Note_on_c, 0, 65, 52
2, 145918, Note_off_c, 0, 65, 52
2, 145937, Control_c, 0, 64, 127
2, 146040, Note_on_c, 0, 62, 77
2, 146098, Note_off_c, 0, 62, 77
2, 146100, Note_on_c, 0, 65, 66
2, 146158, Note_off_c, 0, 65, 66
2, 146160, Note_on_c, 0, 71, 77
2, 146218, Note_off_c, 0, 71, 77
2, 146220, Note_on_c, 0, 67, 72
2, 146278, Note_off_c, 0, 67, 72
2, 146280, Note_on_c, 0, 62, 62
2, 146338, Note_off_c, 0, 62, 62
2, 146520, Note_on_c, 0, 62, 65
2, 146578, Note_off_c, 0, 62, 65
2, 146580, Note_on_c, 0, 65, 65
2, 146638, Note_off_c, 0, 65, 65
2, 146640, Note_on_c, 0, 71, 71
2, 146698, Note_off_c, 0, 71, 71
2, 146700, Note_on_c, 0, 65, 67
2, 146758, Note_off_c, 0, 65, 67
2, 146760, Note_on_c, 0, 62, 66
2, 146810, Control_c, 0, 64, 0
2, 146818, Note_off_c, 0, 62, 66
2, 146820, Note_on_c, 0, 59, 74
2, 146878, Note_off_c, 0, 59, 74
2, 147600, Note_on_c, 0, 70, 63
2, 147658, Note_off_c, 0, 70, 63
2, 147660, Note_on_c, 0, 67, 66
2, 147718, Note_off_c, 0, 67, 66
2, 147720, Note_on_c, 0, 70, 65
2, 147778, Note_off_c, 0, 70, 65
2, 147780, Note_on_c, 0, 67, 71
2, 147838, Note_off_c, 0, 67, 71
2, 147840, Note_on_c, 0, 64, 68
2, 147898, Note_off_c, 0, 64, 68
2, 148080, Note_on_c, 0, 76, 70
2, 148080, Note_on_c, 0, 70, 53
2, 148138, Note_off_c, 0, 76, 70
2, 148138, Note_off_c, 0, 70, 53
2, 148320, Note_on_c, 0, 79, 68
2, 148320, Note_on_c, 0, 76, 62
2, 148378, Note_off_c, 0, 79, 68
2, 148378, Note_off_c, 0, 76, 62
2, 148560, Note_on_c, 0, 79, 70
2, 148560, Note_on_c, 0, 82, 71
2, 148618, Note_off_c, 0, 79, 70
2, 148618, Note_off_c, 0, 82, 71
2, 148800, Note_on_c, 0, 81, 67
2, 148800, Note_on_c, 0, 77, 71
2, 149278, Note_off_c, 0, 81, 67
2, 149278, Note_off_c, 0, 77, 71
2, 149520, Note_on_c, 0, 72, 56
2, 149578, Note_off_c, 0, 72, 56
2, 149580, Note_on_c, 0, 69, 67
2, 149638, Note_off_c, 0, 69, 67
2, 149640, Note_on_c, 0, 72, 66
2, 149698, Note_off_c, 0, 72, 66
2, 149700, Note_on_c, 0, 69, 72
2, 149758, Note_off_c, 0, 69, 72
2, 149760, Note_on_c, 0, 65, 74
2, 149818, Note_off_c, 0, 65, 74
2, 150000, Note_on_c, 0, 77, 66
2, 150000, Note_on_c, 0, 69, 65
2, 150058, Note_off_c, 0, 77, 66
2, 150058, Note_off_c, 0, 69, 65
2, 150240, Note_on_c, 0, 77, 65
2, 150240, Note_on_c, 0, 81, 71
2, 150298, Note_off_c, 0, 77, 65
2, 150298, Note_off_c, 0, 81, 71
2, 150480, Note_on_c, 0, 84, 68
2, 150480, Note_on_c, 0, 81, 63
2, 150538, Note_off_c, 0, 84, 68
2, 150538, Note_off_c, 0, 81, 63
2, 150720, Note_on_c, 0, 79, 66
2, 150720, Note_on_c, 0, 82, 62
2, 151198, Note_off_c, 0, 79, 66
2, 151198, Note_off_c, 0, 82, 62
2, 151440, Note_on_c, 0, 70, 62
2, 151498, Note_off_c, 0, 70, 62
2, 151500, Note_on_c, 0, 67, 71
2, 151558, Note_off_c, 0, 67, 71
2, 151560, Note_on_c, 0, 70, 71
2, 151618, Note_off_c, 0, 70, 71
2, 151620, Note_on_c, 0, 67, 68
2, 151678, Note_off_c, 0, 67, 68
2, 151680, Note_on_c, 0, 64, 72
2, 151738, Note_off_c, 0, 64, 72
2, 151920, Note_on_c, 0, 70, 58
2, 151920, Note_on_c, 0, 76, 71
2, 151978, Note_off_c, 0, 70, 58
2, 151978, Note_off_c, 0, 76, 71
2, 152160, Note_on_c, 0, 76, 67
2, 152160, Note_on_c, 0, 79, 73
2, 152218, Note_off_c, 0, 76, 67
2, 152218, Note_off_c, 0, 79, 73
2, 152400, Note_on_c, 0, 82, 72
2, 152400, Note_on_c, 0, 79, 70
2, 152458, Note_off_c, 0, 82, 72
2, 152458, Note_off_c, 0, 79, 70
2, 152640, Note_on_c, 0, 81, 74
2, 152698, Note_off_c, 0, 81, 74
2, 152700, Note_on_c, 0, 82, 70
2, 152758, Note_off_c, 0, 82, 70
2, 152760, Note_on_c, 0, 84, 62
2, 152818, Note_off_c, 0, 84, 62
2, 152820, Note_on_c, 0, 82, 61
2, 152878, Note_off_c, 0, 82, 61
2, 152880, Note_on_c, 0, 81, 78
2, 152938, Note_off_c, 0, 81, 78
2, 152940, Note_on_c, 0, 79, 68
2, 152998, Note_off_c, 0, 79, 68
2, 153000, Note_on_c, 0, 77, 77
2, 153058, Note_off_c, 0, 77, 77
2, 153060, Note_on_c, 0, 76, 62
2, 153118, Note_off_c, 0, 76, 62
2, 153120, Note_on_c, 0, 77, 77
2, 153178, Note_off_c, 0, 77, 77
2, 153180, Note_on_c, 0, 79, 70
2, 153238, Note_off_c, 0, 79, 70
2, 153240, Note_on_c, 0, 81, 68
2, 153298, Note_off_c, 0, 81, 68
2, 153300, Note_on_c, 0, 79, 78
2, 153358, Note_off_c, 0, 79, 78
2, 153360, Note_on_c, 0, 77, 92
2, 153418, Note_off_c, 0, 77, 92
2, 153420, Note_on_c, 0, 76, 66
2, 153478, Note_off_c, 0, 76, 66
2, 153480, Note_on_c, 0, 74, 58
2, 153538, Note_off_c, 0, 74, 58
2, 153540, Note_on_c, 0, 73, 65
2, 153598, Note_off_c, 0, 73, 65
2, 153600, Note_on_c, 0, 74, 78
2, 153658, Note_off_c, 0, 74, 78
2, 153660, Note_on_c, 0, 76, 72
2, 153718, Note_off_c, 0, 76, 72
2, 153720, Note_on_c, 0, 77, 79
2, 153778, Note_off_c, 0, 77, 79
2, 153780, Note_on_c, 0, 76, 77
2, 153838, Note_off_c, 0, 76, 77
2, 153840, Note_on_c, 0, 74, 83
2, 153898, Note_off_c, 0, 74, 83
2, 153900, Note_on_c, 0, 72, 62
2, 153958, Note_off_c, 0, 72, 62
2, 153960, Note_on_c, 0, 70, 67
2, 154018, Note_off_c, 0, 70, 67
2, 154020, Note_on_c, 0, 69, 65
2, 154078, Note_off_c, 0, 69, 65
2, 154080, Note_on_c, 0, 70, 81
2, 154138, Note_off_c, 0, 70, 81
2, 154140, Note_on_c, 0, 72, 72
2, 154198, Note_off_c, 0, 72, 72
2, 154200, Note_on_c, 0, 74, 72
2, 154258, Note_off_c, 0, 74, 72
2, 154260, Note_on_c, 0, 72, 67
2, 154318, Note_off_c, 0, 72, 67
2, 154320, Note_on_c, 0, 70, 67
2, 154378, Note_off_c, 0, 70, 67
2, 154380, Note_on_c, 0, 69, 58
2, 154438, Note_off_c, 0, 69, 58
2, 154440, Note_on_c, 0, 67, 65
2, 154498, Note_off_c, 0, 67, 65
2, 154500, Note_on_c, 0, 66, 40
2, 154558, Note_off_c, 0, 66, 40
2, 154560, Note_on_c, 0, 67, 67
2, 154618, Note_off_c, 0, 67, 67
2, 154620, Note_on_c, 0, 70, 68
2, 154678, Note_off_c, 0, 70, 68
2, 154680, Note_on_c, 0, 74, 74
2, 154738, Note_off_c, 0, 74, 74
2, 154740, Note_on_c, 0, 72, 65
2, 154798, Note_off_c, 0, 72, 65
2, 154800, Note_on_c, 0, 70, 55
2, 154858, Note_off_c, 0, 70, 55
2, 154860, Note_on_c, 0, 69, 58
2, 154918, Note_off_c, 0, 69, 58
2, 154920, Note_on_c, 0, 67, 63
2, 154978, Note_off_c, 0, 67, 63
2, 154980, Note_on_c, 0, 65, 55
2, 155038, Note_off_c, 0, 65, 55
2, 155040, Note_on_c, 0, 64, 70
2, 155098, Note_off_c, 0, 64, 70
2, 155100, Note_on_c, 0, 65, 70
2, 155158, Note_off_c, 0, 65, 70
2, 155160, Note_on_c, 0, 67, 62
2, 155218, Note_off_c, 0, 67, 62
2, 155220, Note_on_c, 0, 65, 65
2, 155278, Note_off_c, 0, 65, 65
2, 155280, Note_on_c, 0, 64, 67
2, 155338, Note_off_c, 0, 64, 67
2, 155340, Note_on_c, 0, 62, 57
2, 155398, Note_off_c, 0, 62, 57
2, 155400, Note_on_c, 0, 60, 52
2, 155458, Note_off_c, 0, 60, 52
2, 155460, Note_on_c, 0, 58, 61
2, 155518, Note_off_c, 0, 58, 61
2, 155520, Note_on_c, 0, 57, 66
2, 155578, Note_off_c, 0, 57, 66
2, 155580, Note_on_c, 0, 65, 68
2, 155638, Note_off_c, 0, 65, 68
2, 155640, Note_on_c, 0, 64, 65
2, 155698, Note_off_c, 0, 64, 65
2, 155700, Note_on_c, 0, 65, 57
2, 155758, Note_off_c, 0, 65, 57
2, 155760, Note_on_c, 0, 69, 67
2, 155818, Note_off_c, 0, 69, 67
2, 155820, Note_on_c, 0, 65, 57
2, 155878, Note_off_c, 0, 65, 57
2, 155880, Note_on_c, 0, 64, 48
2, 155938, Note_off_c, 0, 64, 48
2, 155940, Note_on_c, 0, 65, 51
2, 155998, Note_off_c, 0, 65, 51
2, 156000, Note_on_c, 0, 60, 68
2, 156058, Note_off_c, 0, 60, 68
2, 156060, Note_on_c, 0, 65, 65
2, 156118, Note_off_c, 0, 65, 65
2, 156120, Note_on_c, 0, 64, 53
2, 156178, Note_off_c, 0, 64, 53
2, 156180, Note_on_c, 0, 65, 66
2, 156238, Note_off_c, 0, 65, 66
2, 156240, Note_on_c, 0, 62, 68
2, 156298, Note_off_c, 0, 62, 68
2, 156300, Note_on_c, 0, 65, 63
2, 156358, Note_off_c, 0, 65, 63
2, 156360, Note_on_c, 0, 64, 40
2, 156418, Note_off_c, 0, 64, 40
2, 156420, Note_on_c, 0, 65, 56
2, 156478, Note_off_c, 0, 65, 56
2, 156480, Note_on_c, 0, 60, 58
2, 156538, Note_off_c, 0, 60, 58
2, 156540, Note_on_c, 0, 65, 52
2, 156598, Note_off_c, 0, 65, 52
2, 156600, Note_on_c, 0, 64, 62
2, 156658, Note_off_c, 0, 64, 62
2, 156660, Note_on_c, 0, 65, 73
2, 156718, Note_off_c, 0, 65, 73
2, 156720, Note_on_c, 0, 69, 76
2, 156778, Note_off_c, 0, 69, 76
2, 156780, Note_on_c, 0, 65, 62
2, 156838, Note_off_c, 0, 65, 62
2, 156840, Note_on_c, 0, 64, 36
2, 156898, Note_off_c, 0, 64, 36
2, 156900, Note_on_c, 0, 65, 56
2, 156958, Note_off_c, 0, 65, 56
2, 156960, Note_on_c, 0, 72, 77
2, 157018, Note_off_c, 0, 72, 77
2, 157020, Note_on_c, 0, 65, 55
2, 157078, Note_off_c, 0, 65, 55
2, 157080, Note_on_c, 0, 64, 16
2, 157138, Note_off_c, 0, 64, 16
2, 157140, Note_on_c, 0, 65, 43
2, 157198, Note_off_c, 0, 65, 43
2, 157200, Note_on_c, 0, 74, 83
2, 157258, Note_off_c, 0, 74, 83
2, 157260, Note_on_c, 0, 65, 29
2, 157318, Note_off_c, 0, 65, 29
2, 157320, Note_on_c, 0, 64, 34
2, 157378, Note_off_c, 0, 64, 34
2, 157380, Note_on_c, 0, 65, 45
2, 157438, Note_off_c, 0, 65, 45
2, 157440, Note_on_c, 0, 72, 77
2, 157498, Note_off_c, 0, 72, 77
2, 157500, Note_on_c, 0, 65, 37
2, 157558, Note_off_c, 0, 65, 37
2, 157560, Note_on_c, 0, 64, 16
2, 157618, Note_off_c, 0, 64, 16
2, 157620, Note_on_c, 0, 65, 43
2, 157678, Note_off_c, 0, 65, 43
2, 157680, Note_on_c, 0, 69, 68
2, 157738, Note_off_c, 0, 69, 68
2, 157740, Note_on_c, 0, 65, 41
2, 157798, Note_off_c, 0, 65, 41
2, 157800, Note_on_c, 0, 64, 38
2, 157858, Note_off_c, 0, 64, 38
2, 157860, Note_on_c, 0, 65, 46
2, 157918, Note_off_c, 0, 65, 46
2, 157920, Note_on_c, 0, 60, 83
2, 157978, Note_off_c, 0, 60, 83
2, 157980, Note_on_c, 0, 65, 55
2, 158038, Note_off_c, 0, 65, 55
2, 158040, Note_on_c, 0, 64, 51
2, 158098, Note_off_c, 0, 64, 51
2, 158100, Note_on_c, 0, 65, 36
2, 158158, Note_off_c, 0, 65, 36
2, 158160, Note_on_c, 0, 62, 74
2, 158218, Note_off_c, 0, 62, 74
2, 158220, Note_on_c, 0, 65, 61
2, 158278, Note_off_c, 0, 65, 61
2, 158280, Note_on_c, 0, 64, 18
2, 158338, Note_off_c, 0, 64, 18
2, 158340, Note_on_c, 0, 65, 66
2, 158398, Note_off_c, 0, 65, 66
2, 158400, Note_on_c, 0, 60, 77
2, 158458, Note_off_c, 0, 60, 77
2, 158460, Note_on_c, 0, 65, 25
2, 158518, Note_off_c, 0, 65, 25
2, 158520, Note_on_c, 0, 64, 30
2, 158578, Note_off_c, 0, 64, 30
2, 158580, Note_on_c, 0, 65, 44
2, 158638, Note_off_c, 0, 65, 44
2, 158640, Note_on_c, 0, 69, 55
2, 158698, Note_off_c, 0, 69, 55
2, 158700, Note_on_c, 0, 65, 36
2, 158758, Note_off_c, 0, 65, 36
2, 158760, Note_on_c, 0, 64, 50
2, 158818, Note_off_c, 0, 64, 50
2, 158820, Note_on_c, 0, 65, 55
2, 158878, Note_off_c, 0, 65, 55
2, 158880, Note_on_c, 0, 72, 89
2, 158938, Note_off_c, 0, 72, 89
2, 158940, Note_on_c, 0, 65, 47
2, 158998, Note_off_c, 0, 65, 47
2, 159000, Note_on_c, 0, 64, 16
2, 159058, Note_off_c, 0, 64, 16
2, 159060, Note_on_c, 0, 65, 56
2, 159118, Note_off_c, 0, 65, 56
2, 159120, Note_on_c, 0, 74, 89
2, 159178, Note_off_c, 0, 74, 89
2, 159180, Note_on_c, 0, 65, 51
2, 159238, Note_off_c, 0, 65, 51
2, 159240, Note_on_c, 0, 64, 36
2, 159298, Note_off_c, 0, 64, 36
2, 159300, Note_on_c, 0, 65, 32
2, 159358, Note_off_c, 0, 65, 32
2, 159360, Note_on_c, 0, 72, 76
2, 159418, Note_off_c, 0, 72, 76
2, 159420, Note_on_c, 0, 65, 53
2, 159478, Note_off_c, 0, 65, 53
2, 159480, Note_on_c, 0, 64, 35
2, 159538, Note_off_c, 0, 64, 35
2, 159540, Note_on_c, 0, 65, 32
2, 159598, Note_off_c, 0, 65, 32
2, 159600, Note_on_c, 0, 72, 78
2, 159658, Note_off_c, 0, 72, 78
2, 159660, Note_on_c, 0, 65, 43
2, 159718, Note_off_c, 0, 65, 43
2, 159720, Note_on_c, 0, 64, 40
2, 159778, Note_off_c, 0, 64, 40
2, 159780, Note_on_c, 0, 65, 21
2, 159838, Note_off_c, 0, 65, 21
2, 159840, Note_on_c, 0, 72, 73
2, 159898, Note_off_c, 0, 72, 73
2, 159900, Note_on_c, 0, 65, 46
2, 159958, Note_off_c, 0, 65, 46
2, 159960, Note_on_c, 0, 64, 46
2, 160018, Note_off_c, 0, 64, 46
2, 160020, Note_on_c, 0, 65, 56
2, 160078, Note_off_c, 0, 65, 56
2, 160080, Note_on_c, 0, 72, 86
2, 160138, Note_off_c, 0, 72, 86
2, 160140, Note_on_c, 0, 65, 53
2, 160198, Note_off_c, 0, 65, 53
2, 160200, Note_on_c, 0, 64, 30
2, 160258, Note_off_c, 0, 64, 30
2, 160260, Note_on_c, 0, 65, 43
2, 160318, Note_off_c, 0, 65, 43
2, 160320, Note_on_c, 0, 71, 89
2, 160378, Note_off_c, 0, 71, 89
2, 160380, Note_on_c, 0, 65, 53
2, 160438, Note_off_c, 0, 65, 53
2, 160440, Note_on_c, 0, 64, 60
2, 160498, Note_off_c, 0, 64, 60
2, 160500, Note_on_c, 0, 65, 68
2, 160558, Note_off_c, 0, 65, 68
2, 160560, Note_on_c, 0, 71, 86
2, 160618, Note_off_c, 0, 71, 86
2, 160620, Note_on_c, 0, 65, 58
2, 160678, Note_off_c, 0, 65, 58
2, 160680, Note_on_c, 0, 64, 66
2, 160738, Note_off_c, 0, 64, 66
2, 160740, Note_on_c, 0, 65, 70
2, 160798, Note_off_c, 0, 65, 70
2, 160800, Note_on_c, 0, 70, 94
2, 160858, Note_off_c, 0, 70, 94
2, 160860, Note_on_c, 0, 67, 67
2, 160918, Note_off_c, 0, 67, 67
2, 160920, Note_on_c, 0, 66, 70
2, 160978, Note_off_c, 0, 66, 70
2, 160980, Note_on_c, 0, 67, 74
2, 161038, Note_off_c, 0, 67, 74
2, 161040, Note_on_c, 0, 70, 81
2, 161098, Note_off_c, 0, 70, 81
2, 161100, Note_on_c, 0, 67, 68
2, 161158, Note_off_c, 0, 67, 68
2, 161160, Note_on_c, 0, 66, 71
2, 161218, Note_off_c, 0, 66, 71
2, 161220, Note_on_c, 0, 67, 76
2, 161278, Note_off_c, 0, 67, 76
2, 161280, Note_on_c, 0, 69, 76
2, 161398, Note_off_c, 0, 69, 76
2, 161400, Note_on_c, 0, 77, 83
2, 161518, Note_off_c, 0, 77, 83
2, 161520, Note_on_c, 0, 79, 78
2, 161578, Note_off_c, 0, 79, 78
2, 161580, Note_on_c, 0, 77, 48
2, 161638, Note_off_c, 0, 77, 48
2, 161640, Note_on_c, 0, 76, 51
2, 161698, Note_off_c, 0, 76, 51
2, 161700, Note_on_c, 0, 74, 56
2, 161758, Note_off_c, 0, 74, 56
2, 161760, Note_on_c, 0, 74, 81
2, 161818, Note_off_c, 0, 74, 81
2, 161820, Note_on_c, 0, 72, 57
2, 161878, Note_off_c, 0, 72, 57
2, 161880, Note_on_c, 0, 70, 65
2, 161938, Note_off_c, 0, 70, 65
2, 161940, Note_on_c, 0, 69, 60
2, 161998, Note_off_c, 0, 69, 60
2, 162000, Note_on_c, 0, 69, 78
2, 162058, Note_off_c, 0, 69, 78
2, 162060, Note_on_c, 0, 67, 62
2, 162118, Note_off_c, 0, 67, 62
2, 162120, Note_on_c, 0, 65, 63
2, 162178, Note_off_c, 0, 65, 63
2, 162180, Note_on_c, 0, 64, 53
2, 162238, Note_off_c, 0, 64, 53
2, 162240, Note_on_c, 0, 62, 76
2, 162358, Note_off_c, 0, 62, 76
2, 162360, Note_on_c, 0, 73, 68
2, 162418, Note_off_c, 0, 73, 68
2, 162420, Note_on_c, 0, 74, 70
2, 162478, Note_off_c, 0, 74, 70
2, 162480, Note_on_c, 0, 72, 67
2, 162538, Note_off_c, 0, 72, 67
2, 162540, Note_on_c, 0, 70, 66
2, 162598, Note_off_c, 0, 70, 66
2, 162600, Note_on_c, 0, 69, 40
2, 162658, Note_off_c, 0, 69, 40
2, 162660, Note_on_c, 0, 67, 55
2, 162718, Note_off_c, 0, 67, 55
2, 162720, Note_on_c, 0, 65, 67
2, 162958, Note_off_c, 0, 65, 67
2, 162960, Note_on_c, 0, 64, 56
2, 163006, Note_off_c, 0, 64, 56
2, 163008, Note_on_c, 0, 65, 66
2, 163054, Note_off_c, 0, 65, 66
2, 163056, Note_on_c, 0, 64, 52
2, 163102, Note_off_c, 0, 64, 52
2, 163104, Note_on_c, 0, 62, 63
2, 163150, Note_off_c, 0, 62, 63
2, 163152, Note_on_c, 0, 64, 57
2, 163198, Note_off_c, 0, 64, 57
2, 163200, Note_on_c, 0, 65, 78
2, 163258, Note_off_c, 0, 65, 78
2, 163260, Note_on_c, 0, 77, 72
2, 163318, Note_off_c, 0, 77, 72
2, 163320, Note_on_c, 0, 76, 81
2, 163378, Note_off_c, 0, 76, 81
2, 163380, Note_on_c, 0, 77, 74
2, 163438, Note_off_c, 0, 77, 74
2, 163440, Note_on_c, 0, 79, 77
2, 163498, Note_off_c, 0, 79, 77
2, 163500, Note_on_c, 0, 77, 77
2, 163558, Note_off_c, 0, 77, 77
2, 163560, Note_on_c, 0, 76, 79
2, 163618, Note_off_c, 0, 76, 79
2, 163620, Note_on_c, 0, 74, 65
2, 163678, Note_off_c, 0, 74, 65
2, 163680, Note_on_c, 0, 74, 86
2, 163738, Note_off_c, 0, 74, 86
2, 163740, Note_on_c, 0, 72, 65
2, 163798, Note_off_c, 0, 72, 65
2, 163800, Note_on_c, 0, 70, 76
2, 163858, Note_off_c, 0, 70, 76
2, 163860, Note_on_c, 0, 69, 68
2, 163918, Note_off_c, 0, 69, 68
2, 163920, Note_on_c, 0, 69, 78
2, 163978, Note_off_c, 0, 69, 78
2, 163980, Note_on_c, 0, 67, 70
2, 164038, Note_off_c, 0, 67, 70
2, 164040, Note_on_c, 0, 65, 74
2, 164098, Note_off_c, 0, 65, 74
2, 164100, Note_on_c, 0, 64, 46
2, 164158, Note_off_c, 0, 64, 46
2, 164160, Note_on_c, 0, 62, 77
2, 164278, Note_off_c, 0, 62, 77
2, 164280, Note_on_c, 0, 73, 72
2, 164338, Note_off_c, 0, 73, 72
2, 164340, Note_on_c, 0, 74, 73
2, 164398, Note_off_c, 0, 74, 73
2, 164400, Note_on_c, 0, 72, 74
2, 164458, Note_off_c, 0, 72, 74
2, 164460, Note_on_c, 0, 70, 67
2, 164518, Note_off_c, 0, 70, 67
2, 164520, Note_on_c, 0, 69, 74
2, 164578, Note_off_c, 0, 69, 74
2, 164580, Note_on_c, 0, 67, 65
2, 164638, Note_off_c, 0, 67, 65
2, 164640, Note_on_c, 0, 65, 65
2, 164878, Note_off_c, 0, 65, 65
2, 164880, Note_on_c, 0, 64, 73
2, 164926, Note_off_c, 0, 64, 73
2, 164928, Note_on_c, 0, 65, 68
2, 164974, Note_off_c, 0, 65, 68
2, 164976, Note_on_c, 0, 64, 67
2, 165022, Note_off_c, 0, 64, 67
2, 165024, Note_on_c, 0, 62, 68
2, 165070, Note_off_c, 0, 62, 68
2, 165072, Note_on_c, 0, 64, 65
2, 165118, Note_off_c, 0, 64, 65
2, 165120, Note_on_c, 0, 65, 68
2, 165358, Note_off_c, 0, 65, 68
2, 165360, Note_on_c, 0, 62, 73
2, 165360, Note_on_c, 0, 58, 63
2, 165418, Note_off_c, 0, 62, 73
2, 165418, Note_off_c, 0, 58, 63
2, 165600, Note_on_c, 0, 60, 67
2, 165600, Note_on_c, 0, 57, 55
2, 165658, Note_off_c, 0, 60, 67
2, 165658, Note_off_c, 0, 57, 55
2, 165840, Note_on_c, 0, 55, 72
2, 165840, Note_on_c, 0, 58, 61
2, 165840, Note_on_c, 0, 64, 76
2, 165898, Note_off_c, 0, 55, 72
2, 165898, Note_off_c, 0, 58, 61
2, 165898, Note_off_c, 0, 64, 76
2, 166080, Note_on_c, 0, 57, 65
2, 166080, Note_on_c, 0, 65, 70
2, 166080, Note_on_c, 0, 60, 65
2, 166138, Note_off_c, 0, 57, 65
2, 166138, Note_off_c, 0, 65, 70
2, 166138, Note_off_c, 0, 60, 65
2, 166320, Note_on_c, 0, 74, 78
2, 166320, Note_on_c, 0, 70, 73
2, 166378, Note_off_c, 0, 74, 78
2, 166378, Note_off_c, 0, 70, 73
2, 166560, Note_on_c, 0, 72, 83
2, 166560, Note_on_c, 0, 69, 77
2, 166618, Note_off_c, 0, 72, 83
2, 166618, Note_off_c, 0, 69, 77
2, 166800, Note_on_c, 0, 67, 83
2, 166800, Note_on_c, 0, 76, 89
2, 166800, Note_on_c, 0, 70, 78
2, 166858, Note_off_c, 0, 67, 83
2, 166858, Note_off_c, 0, 76, 89
2, 166858, Note_off_c, 0, 70, 78
2, 167040, Note_on_c, 0, 77, 78
2, 167040, Note_on_c, 0, 72, 77
2, 167040, Note_on_c, 0, 69, 74
2, 167518, Note_off_c, 0, 77, 78
2, 167518, Note_off_c, 0, 72, 77
2, 167518, Note_off_c, 0, 69, 74
2, 168000, End_track
3, 0, Start_track
3, 0, MIDI_port, 0
3, 0, Channel_prefix, 1
3, 0, Title_t, "Piano L.H."
3, 0, Key_signature, -1, "major"
3, 980, Control_c, 1, 0, 0
3, 985, Program_c, 1, 0
3, 990, Control_c, 1, 7, 127
3, 995, Control_c, 1, 10, 64
3, 1000, Control_c, 1, 91, 74
3, 1005, Control_c, 1, 93, 0
3, 1010, Control_c, 1, 94, 0
3, 1015, Control_c, 1, 11, 127
3, 2880, Note_on_c, 1, 53, 56
3, 2880, Note_on_c, 1, 57, 57
3, 2941, Note_off_c, 1, 53, 56
3, 2941, Note_off_c, 1, 57, 57
3, 3360, Note_on_c, 1, 58, 52
3, 3360, Note_on_c, 1, 48, 63
3, 3421, Note_off_c, 1, 58, 52
3, 3421, Note_off_c, 1, 48, 63
3, 3840, Note_on_c, 1, 53, 48
3, 3840, Note_on_c, 1, 57, 56
3, 3901, Note_off_c, 1, 53, 48
3, 3901, Note_off_c, 1, 57, 56
3, 5040, Note_on_c, 1, 65, 65
3, 5278, Note_off_c, 1, 65, 65
3, 5280, Note_on_c, 1, 67, 63
3, 5518, Note_off_c, 1, 67, 63
3, 5520, Note_on_c, 1, 60, 65
3, 5758, Note_off_c, 1, 60, 65
3, 5760, Note_on_c, 1, 65, 62
3, 5998, Note_off_c, 1, 65, 62
3, 6000, Note_on_c, 1, 60, 55
3, 6238, Note_off_c, 1, 60, 55
3, 6240, Note_on_c, 1, 53, 63
3, 6358, Note_off_c, 1, 53, 63
3, 6720, Note_on_c, 1, 57, 57
3, 6720, Note_on_c, 1, 53, 56
3, 6781, Note_off_c, 1, 57, 57
3, 6781, Note_off_c, 1, 53, 56
3, 7200, Note_on_c, 1, 48, 63
3, 7200, Note_on_c, 1, 58, 52
3, 7261, Note_off_c, 1, 48, 63
3, 7261, Note_off_c, 1, 58, 52
3, 7680, Note_on_c, 1, 57, 56
3, 7680, Note_on_c, 1, 53, 48
3, 7741, Note_off_c, 1, 57, 56
3, 7741, Note_off_c, 1, 53, 48
3, 7920, Note_on_c, 1, 70, 60
3, 8158, Note_off_c, 1, 70, 60
3, 8160, Note_on_c, 1, 69, 50
3, 8398, Note_off_c, 1, 69, 50
3, 8880, Note_on_c, 1, 60, 57
3, 8880, Note_on_c, 1, 65, 52
3, 9118, Note_off_c, 1, 65, 52
3, 9120, Note_on_c, 1, 67, 61
3, 9244, Note_off_c, 1, 67, 61
3, 9358, Note_off_c, 1, 60, 57
3, 9840, Note_on_c, 1, 64, 55
3, 9840, Note_on_c, 1, 60, 31
3, 10078, Note_off_c, 1, 64, 55
3, 10078, Note_off_c, 1, 60, 31
3, 10080, Note_on_c, 1, 65, 65
3, 10080, Note_on_c, 1, 62, 45
3, 10204, Note_off_c, 1, 65, 65
3, 10204, Note_off_c, 1, 62, 45
3, 10800, Note_on_c, 1, 57, 48
3, 10800, Note_on_c, 1, 53, 50
3, 11038, Note_off_c, 1, 57, 48
3, 11038, Note_off_c, 1, 53, 50
3, 11040, Note_on_c, 1, 58, 66
3, 11040, Note_on_c, 1, 55, 66
3, 11278, Note_off_c, 1, 58, 66
3, 11278, Note_off_c, 1, 55, 66
3, 11280, Note_on_c, 1, 60, 77
3, 11280, Note_on_c, 1, 57, 66
3, 11518, Note_off_c, 1, 60, 77
3, 11518, Note_off_c, 1, 57, 66
3, 11520, Note_on_c, 1, 58, 68
3, 11998, Note_off_c, 1, 58, 68
3, 12360, Note_on_c, 1, 46, 66
3, 12418, Note_off_c, 1, 46, 66
3, 12480, Note_on_c, 1, 48, 66
3, 12958, Note_off_c, 1, 48, 66
3, 13320, Note_on_c, 1, 48, 60
3, 13320, Note_on_c, 1, 58, 46
3, 13378, Note_off_c, 1, 48, 60
3, 13378, Note_off_c, 1, 58, 46
3, 13440, Note_on_c, 1, 53, 62
3, 13440, Note_on_c, 1, 58, 51
3, 13920, Note_off_c, 1, 58, 51
3, 13920, Note_on_c, 1, 57, 51
3, 13978, Note_off_c, 1, 57, 51
3, 13978, Note_off_c, 1, 53, 62
3, 14400, Note_on_c, 1, 65, 48
3, 14470, Note_off_c, 1, 65, 48
3, 14520, Note_on_c, 1, 69, 31
3, 14590, Note_off_c, 1, 69, 31
3, 14640, Note_on_c, 1, 65, 46
3, 14710, Note_off_c, 1, 65, 46
3, 14760, Note_on_c, 1, 69, 34
3, 14830, Note_off_c, 1, 69, 34
3, 14880, Note_on_c, 1, 65, 32
3, 14950, Note_off_c, 1, 65, 32
3, 15000, Note_on_c, 1, 69, 30
3, 15070, Note_off_c, 1, 69, 30
3, 15120, Note_on_c, 1, 65, 46
3, 15190, Note_off_c, 1, 65, 46
3, 15240, Note_on_c, 1, 69, 26
3, 15310, Note_off_c, 1, 69, 26
3, 15360, Note_on_c, 1, 64, 56
3, 15430, Note_off_c, 1, 64, 56
3, 15480, Note_on_c, 1, 67, 40
3, 15550, Note_off_c, 1, 67, 40
3, 15600, Note_on_c, 1, 64, 36
3, 15670, Note_off_c, 1, 64, 36
3, 15720, Note_on_c, 1, 67, 41
3, 15790, Note_off_c, 1, 67, 41
3, 15840, Note_on_c, 1, 64, 33
3, 15910, Note_off_c, 1, 64, 33
3, 15960, Note_on_c, 1, 67, 41
3, 16030, Note_off_c, 1, 67, 41
3, 16080, Note_on_c, 1, 64, 28
3, 16150, Note_off_c, 1, 64, 28
3, 16200, Note_on_c, 1, 67, 40
3, 16270, Note_off_c, 1, 67, 40
3, 16320, Note_on_c, 1, 61, 53
3, 16390, Note_off_c, 1, 61, 53
3, 16440, Note_on_c, 1, 64, 37
3, 16510, Note_off_c, 1, 64, 37
3, 16560, Note_on_c, 1, 61, 28
3, 16630, Note_off_c, 1, 61, 28
3, 16680, Note_on_c, 1, 64, 52
3, 16750, Note_off_c, 1, 64, 52
3, 16800, Note_on_c, 1, 61, 56
3, 16870, Note_off_c, 1, 61, 56
3, 16920, Note_on_c, 1, 69, 47
3, 16990, Note_off_c, 1, 69, 47
3, 17040, Note_on_c, 1, 61, 43
3, 17110, Note_off_c, 1, 61, 43
3, 17160, Note_on_c, 1, 69, 27
3, 17230, Note_off_c, 1, 69, 27
3, 17280, Note_on_c, 1, 62, 64
3, 17350, Note_off_c, 1, 62, 64
3, 17400, Note_on_c, 1, 69, 24
3, 17470, Note_off_c, 1, 69, 24
3, 17520, Note_on_c, 1, 62, 38
3, 17590, Note_off_c, 1, 62, 38
3, 17640, Note_on_c, 1, 69, 30
3, 17710, Note_off_c, 1, 69, 30
3, 17760, Note_on_c, 1, 62, 41
3, 17830, Note_off_c, 1, 62, 41
3, 17880, Note_on_c, 1, 69, 23
3, 17950, Note_off_c, 1, 69, 23
3, 18000, Note_on_c, 1, 62, 40
3, 18070, Note_off_c, 1, 62, 40
3, 18120, Note_on_c, 1, 69, 22
3, 18190, Note_off_c, 1, 69, 22
3, 18240, Note_on_c, 1, 59, 50
3, 18310, Note_off_c, 1, 59, 50
3, 18360, Note_on_c, 1, 67, 33
3, 18430, Note_off_c, 1, 67, 33
3, 18480, Note_on_c, 1, 59, 41
3, 18550, Note_off_c, 1, 59, 41
3, 18600, Note_on_c, 1, 67, 36
3, 18670, Note_off_c, 1, 67, 36
3, 18720, Note_on_c, 1, 59, 31
3, 18790, Note_off_c, 1, 59, 31
3, 18840, Note_on_c, 1, 67, 35
3, 18910, Note_off_c, 1, 67, 35
3, 18960, Note_on_c, 1, 59, 34
3, 19030, Note_off_c, 1, 59, 34
3, 19080, Note_on_c, 1, 67, 40
3, 19150, Note_off_c, 1, 67, 40
3, 19200, Note_on_c, 1, 60, 61
3, 19270, Note_off_c, 1, 60, 61
3, 19320, Note_on_c, 1, 67, 42
3, 19390, Note_off_c, 1, 67, 42
3, 19440, Note_on_c, 1, 60, 45
3, 19510, Note_off_c, 1, 60, 45
3, 19560, Note_on_c, 1, 67, 55
3, 19630, Note_off_c, 1, 67, 55
3, 19680, Note_on_c, 1, 52, 64
3, 19750, Note_off_c, 1, 52, 64
3, 19800, Note_on_c, 1, 60, 35
3, 19870, Note_off_c, 1, 60, 35
3, 19920, Note_on_c, 1, 52, 63
3, 19990, Note_off_c, 1, 52, 63
3, 20040, Note_on_c, 1, 60, 48
3, 20110, Note_off_c, 1, 60, 48
3, 20160, Note_on_c, 1, 53, 64
3, 20230, Note_off_c, 1, 53, 64
3, 20280, Note_on_c, 1, 60, 42
3, 20350, Note_off_c, 1, 60, 42
3, 20400, Note_on_c, 1, 53, 64
3, 20470, Note_off_c, 1, 53, 64
3, 20520, Note_on_c, 1, 60, 47
3, 20590, Note_off_c, 1, 60, 47
3, 20640, Note_on_c, 1, 53, 66
3, 20710, Note_off_c, 1, 53, 66
3, 20760, Note_on_c, 1, 62, 52
3, 20830, Note_off_c, 1, 62, 52
3, 20880, Note_on_c, 1, 54, 64
3, 20950, Note_off_c, 1, 54, 64
3, 21000, Note_on_c, 1, 62, 48
3, 21070, Note_off_c, 1, 62, 48
3, 21120, Note_on_c, 1, 55, 62
3, 21334, Note_off_c, 1, 55, 62
3, 21480, Note_on_c, 1, 62, 65
3, 21538, Note_off_c, 1, 62, 65
3, 21540, Note_on_c, 1, 59, 68
3, 21598, Note_off_c, 1, 59, 68
3, 21600, Note_on_c, 1, 55, 55
3, 21718, Note_off_c, 1, 55, 55
3, 21720, Note_on_c, 1, 65, 68
3, 21720, Note_on_c, 1, 69, 65
3, 21778, Note_off_c, 1, 65, 68
3, 21778, Note_off_c, 1, 69, 65
3, 21840, Note_on_c, 1, 64, 62
3, 21840, Note_on_c, 1, 67, 61
3, 21898, Note_off_c, 1, 64, 62
3, 21898, Note_off_c, 1, 67, 61
3, 21960, Note_on_c, 1, 62, 63
3, 21960, Note_on_c, 1, 65, 63
3, 22018, Note_off_c, 1, 62, 63
3, 22018, Note_off_c, 1, 65, 63
3, 22080, Note_on_c, 1, 60, 67
3, 22080, Note_on_c, 1, 64, 66
3, 22558, Note_off_c, 1, 60, 67
3, 22558, Note_off_c, 1, 64, 66
3, 22800, Note_on_c, 1, 64, 67
3, 22918, Note_off_c, 1, 64, 67
3, 23040, Note_on_c, 1, 65, 63
3, 23158, Note_off_c, 1, 65, 63
3, 23280, Note_on_c, 1, 64, 45
3, 23398, Note_off_c, 1, 64, 45
3, 23520, Note_on_c, 1, 62, 58
3, 23758, Note_off_c, 1, 62, 58
3, 23760, Note_on_c, 1, 55, 67
3, 23878, Note_off_c, 1, 55, 67
3, 24000, Note_on_c, 1, 60, 71
3, 24238, Note_off_c, 1, 60, 71
3, 24240, Note_on_c, 1, 64, 72
3, 24478, Note_off_c, 1, 64, 72
3, 24720, Note_on_c, 1, 64, 62
3, 24838, Note_off_c, 1, 64, 62
3, 24960, Note_on_c, 1, 65, 58
3, 25078, Note_off_c, 1, 65, 58
3, 25200, Note_on_c, 1, 64, 40
3, 25318, Note_off_c, 1, 64, 40
3, 25440, Note_on_c, 1, 62, 53
3, 25678, Note_off_c, 1, 62, 53
3, 25680, Note_on_c, 1, 55, 62
3, 25798, Note_off_c, 1, 55, 62
3, 25920, Note_on_c, 1, 60, 72
3, 26158, Note_off_c, 1, 60, 72
3, 26160, Note_on_c, 1, 62, 68
3, 26398, Note_off_c, 1, 62, 68
3, 26400, Note_on_c, 1, 64, 55
3, 26638, Note_off_c, 1, 64, 55
3, 26640, Note_on_c, 1, 52, 63
3, 26878, Note_off_c, 1, 52, 63
3, 26880, Note_on_c, 1, 53, 66
3, 27358, Note_off_c, 1, 53, 66
3, 27600, Note_on_c, 1, 52, 68
3, 27838, Note_off_c, 1, 52, 68
3, 27840, Note_on_c, 1, 50, 63
3, 27840, Note_on_c, 1, 59, 66
3, 28558, Note_off_c, 1, 50, 63
3, 28558, Note_off_c, 1, 59, 66
3, 28560, Note_on_c, 1, 60, 41
3, 28560, Note_on_c, 1, 48, 55
3, 28798, Note_off_c, 1, 60, 41
3, 28798, Note_off_c, 1, 48, 55
3, 28800, Note_on_c, 1, 53, 63
3, 29278, Note_off_c, 1, 53, 63
3, 29520, Note_on_c, 1, 55, 51
3, 29520, Note_on_c, 1, 43, 35
3, 29758, Note_off_c, 1, 55, 51
3, 29758, Note_off_c, 1, 43, 35
3, 29760, Note_on_c, 1, 56, 61
3, 29760, Note_on_c, 1, 44, 63
3, 29998, Note_off_c, 1, 56, 61
3, 29998, Note_off_c, 1, 44, 63
3, 30000, Note_on_c, 1, 56, 56
3, 30000, Note_on_c, 1, 60, 43
3, 30238, Note_off_c, 1, 56, 56
3, 30238, Note_off_c, 1, 60, 43
3, 30240, Note_on_c, 1, 56, 48
3, 30240, Note_on_c, 1, 60, 32
3, 30478, Note_off_c, 1, 56, 48
3, 30478, Note_off_c, 1, 60, 32
3, 30480, Note_on_c, 1, 56, 44
3, 30480, Note_on_c, 1, 60, 38
3, 30718, Note_off_c, 1, 56, 44
3, 30718, Note_off_c, 1, 60, 38
3, 30720, Note_on_c, 1, 55, 66
3, 30720, Note_on_c, 1, 60, 50
3, 30958, Note_off_c, 1, 55, 66
3, 30958, Note_off_c, 1, 60, 50
3, 30960, Note_on_c, 1, 55, 30
3, 30960, Note_on_c, 1, 60, 23
3, 31198, Note_off_c, 1, 55, 30
3, 31198, Note_off_c, 1, 60, 23
3, 31200, Note_on_c, 1, 55, 27
3, 31200, Note_on_c, 1, 60, 23
3, 31438, Note_off_c, 1, 55, 27
3, 31438, Note_off_c, 1, 60, 23
3, 31440, Note_on_c, 1, 55, 37
3, 31440, Note_on_c, 1, 60, 30
3, 31678, Note_off_c, 1, 55, 37
3, 31678, Note_off_c, 1, 60, 30
3, 31680, Note_on_c, 1, 54, 67
3, 31680, Note_on_c, 1, 60, 63
3, 31918, Note_off_c, 1, 54, 67
3, 31918, Note_off_c, 1, 60, 63
3, 31920, Note_on_c, 1, 54, 37
3, 31920, Note_on_c, 1, 60, 28
3, 32158, Note_off_c, 1, 54, 37
3, 32158, Note_off_c, 1, 60, 28
3, 32160, Note_on_c, 1, 54, 43
3, 32160, Note_on_c, 1, 60, 33
3, 32398, Note_off_c, 1, 54, 43
3, 32398, Note_off_c, 1, 60, 33
3, 32400, Note_on_c, 1, 57, 30
3, 32400, Note_on_c, 1, 54, 44
3, 32638, Note_off_c, 1, 57, 30
3, 32638, Note_off_c, 1, 54, 44
3, 32640, Note_on_c, 1, 59, 62
3, 32640, Note_on_c, 1, 55, 65
3, 32878, Note_off_c, 1, 59, 62
3, 32878, Note_off_c, 1, 55, 65
3, 32880, Note_on_c, 1, 57, 55
3, 32880, Note_on_c, 1, 60, 56
3, 33118, Note_off_c, 1, 57, 55
3, 33118, Note_off_c, 1, 60, 56
3, 33120, Note_on_c, 1, 59, 62
3, 33120, Note_on_c, 1, 62, 61
3, 33358, Note_off_c, 1, 59, 62
3, 33358, Note_off_c, 1, 62, 61
3, 33600, Note_on_c, 1, 60, 65
3, 33838, Note_off_c, 1, 60, 65
3, 34080, Note_on_c, 1, 64, 57
3, 34198, Note_off_c, 1, 64, 57
3, 34320, Note_on_c, 1, 65, 52
3, 34438, Note_off_c, 1, 65, 52
3, 34560, Note_on_c, 1, 64, 57
3, 34678, Note_off_c, 1, 64, 57
3, 35040, Note_on_c, 1, 64, 45
3, 35158, Note_off_c, 1, 64, 45
3, 35280, Note_on_c, 1, 65, 47
3, 35398, Note_off_c, 1, 65, 47
3, 35520, Note_on_c, 1, 64, 62
3, 35638, Note_off_c, 1, 64, 62
3, 36000, Note_on_c, 1, 64, 36
3, 36118, Note_off_c, 1, 64, 36
3, 36240, Note_on_c, 1, 65, 66
3, 36358, Note_off_c, 1, 65, 66
3, 36480, Note_on_c, 1, 64, 33
3, 36718, Note_off_c, 1, 64, 33
3, 36960, Note_on_c, 1, 64, 48
3, 37078, Note_off_c, 1, 64, 48
3, 37200, Note_on_c, 1, 65, 44
3, 37318, Note_off_c, 1, 65, 44
3, 37440, Note_on_c, 1, 64, 36
3, 37558, Note_off_c, 1, 64, 36
3, 37680, Note_on_c, 1, 65, 62
3, 37798, Note_off_c, 1, 65, 62
3, 37920, Note_on_c, 1, 64, 68
3, 38038, Note_off_c, 1, 64, 68
3, 38160, Note_on_c, 1, 65, 62
3, 38278, Note_off_c, 1, 65, 62
3, 38400, Note_on_c, 1, 64, 71
3, 38878, Note_off_c, 1, 64, 71
3, 38880, Note_on_c, 1, 67, 63
3, 38880, Note_on_c, 1, 63, 63
3, 39358, Note_off_c, 1, 67, 63
3, 39358, Note_off_c, 1, 63, 63
3, 39360, Note_on_c, 1, 69, 66
3, 39360, Note_on_c, 1, 62, 72
3, 39838, Note_off_c, 1, 69, 66
3, 39838, Note_off_c, 1, 62, 72
3, 39840, Note_on_c, 1, 59, 66
3, 39840, Note_on_c, 1, 67, 58
3, 40318, Note_off_c, 1, 59, 66
3, 40318, Note_off_c, 1, 67, 58
3, 40320, Note_on_c, 1, 60, 71
3, 40320, Note_on_c, 1, 67, 33
3, 40798, Note_off_c, 1, 60, 71
3, 40798, Note_off_c, 1, 67, 33
3, 41040, Note_on_c, 1, 52, 68
3, 41040, Note_on_c, 1, 60, 55
3, 41278, Note_off_c, 1, 52, 68
3, 41280, Note_on_c, 1, 53, 57
3, 41518, Note_off_c, 1, 60, 55
3, 41520, Note_on_c, 1, 65, 65
3, 41758, Note_off_c, 1, 53, 57
3, 41758, Note_off_c, 1, 65, 65
3, 41760, Note_on_c, 1, 55, 44
3, 41760, Note_on_c, 1, 64, 65
3, 41998, Note_off_c, 1, 64, 65
3, 42000, Note_on_c, 1, 62, 65
3, 42238, Note_off_c, 1, 55, 44
3, 42238, Note_off_c, 1, 62, 65
3, 42240, Note_on_c, 1, 60, 63
3, 42240, Note_on_c, 1, 64, 48
3, 42718, Note_off_c, 1, 60, 63
3, 42718, Note_off_c, 1, 64, 48
3, 42960, Note_on_c, 1, 52, 51
3, 42960, Note_on_c, 1, 60, 62
3, 43198, Note_off_c, 1, 52, 51
3, 43200, Note_on_c, 1, 53, 63
3, 43438, Note_off_c, 1, 60, 62
3, 43440, Note_on_c, 1, 65, 60
3, 43678, Note_off_c, 1, 53, 63
3, 43678, Note_off_c, 1, 65, 60
3, 43680, Note_on_c, 1, 55, 55
3, 43680, Note_on_c, 1, 64, 57
3, 43918, Note_off_c, 1, 64, 57
3, 43920, Note_on_c, 1, 62, 65
3, 44158, Note_off_c, 1, 55, 55
3, 44158, Note_off_c, 1, 62, 65
3, 44160, Note_on_c, 1, 48, 63
3, 44218, Note_off_c, 1, 48, 63
3, 44220, Note_on_c, 1, 60, 48
3, 44278, Note_off_c, 1, 60, 48
3, 44280, Note_on_c, 1, 59, 44
3, 44338, Note_off_c, 1, 59, 44
3, 44340, Note_on_c, 1, 60, 38
3, 44398, Note_off_c, 1, 60, 38
3, 44400, Note_on_c, 1, 48, 62
3, 44458, Note_off_c, 1, 48, 62
3, 44460, Note_on_c, 1, 60, 21
3, 44518, Note_off_c, 1, 60, 21
3, 44520, Note_on_c, 1, 59, 31
3, 44578, Note_off_c, 1, 59, 31
3, 44580, Note_on_c, 1, 60, 57
3, 44638, Note_off_c, 1, 60, 57
3, 44640, Note_on_c, 1, 48, 45
3, 44698, Note_off_c, 1, 48, 45
3, 44700, Note_on_c, 1, 60, 57
3, 44758, Note_off_c, 1, 60, 57
3, 44760, Note_on_c, 1, 59, 42
3, 44818, Note_off_c, 1, 59, 42
3, 44820, Note_on_c, 1, 60, 62
3, 44878, Note_off_c, 1, 60, 62
3, 44880, Note_on_c, 1, 48, 62
3, 44938, Note_off_c, 1, 48, 62
3, 44940, Note_on_c, 1, 60, 46
3, 44998, Note_off_c, 1, 60, 46
3, 45000, Note_on_c, 1, 59, 43
3, 45058, Note_off_c, 1, 59, 43
3, 45060, Note_on_c, 1, 60, 56
3, 45118, Note_off_c, 1, 60, 56
3, 45120, Note_on_c, 1, 48, 76
3, 45178, Note_off_c, 1, 48, 76
3, 45180, Note_on_c, 1, 60, 65
3, 45238, Note_off_c, 1, 60, 65
3, 45240, Note_on_c, 1, 59, 52
3, 45298, Note_off_c, 1, 59, 52
3, 45300, Note_on_c, 1, 60, 62
3, 45358, Note_off_c, 1, 60, 62
3, 45360, Note_on_c, 1, 48, 76
3, 45418, Note_off_c, 1, 48, 76
3, 45420, Note_on_c, 1, 60, 68
3, 45478, Note_off_c, 1, 60, 68
3, 45480, Note_on_c, 1, 59, 68
3, 45538, Note_off_c, 1, 59, 68
3, 45540, Note_on_c, 1, 60, 72
3, 45598, Note_off_c, 1, 60, 72
3, 45600, Note_on_c, 1, 48, 78
3, 45658, Note_off_c, 1, 48, 78
3, 45660, Note_on_c, 1, 60, 72
3, 45718, Note_off_c, 1, 60, 72
3, 45720, Note_on_c, 1, 59, 74
3, 45778, Note_off_c, 1, 59, 74
3, 45780, Note_on_c, 1, 60, 74
3, 45838, Note_off_c, 1, 60, 74
3, 45840, Note_on_c, 1, 48, 76
3, 45898, Note_off_c, 1, 48, 76
3, 45900, Note_on_c, 1, 60, 74
3, 45958, Note_off_c, 1, 60, 74
3, 45960, Note_on_c, 1, 59, 81
3, 46018, Note_off_c, 1, 59, 81
3, 46020, Note_on_c, 1, 60, 78
3, 46078, Note_off_c, 1, 60, 78
3, 46080, Note_on_c, 1, 48, 74
3, 46558, Note_off_c, 1, 48, 74
3, 47040, Note_on_c, 1, 57, 57
3, 47040, Note_on_c, 1, 53, 56
3, 47101, Note_off_c, 1, 57, 57
3, 47101, Note_off_c, 1, 53, 56
3, 47520, Note_on_c, 1, 48, 63
3, 47520, Note_on_c, 1, 58, 52
3, 47581, Note_off_c, 1, 48, 63
3, 47581, Note_off_c, 1, 58, 52
3, 48000, Note_on_c, 1, 57, 56
3, 48000, Note_on_c, 1, 53, 48
3, 48061, Note_off_c, 1, 57, 56
3, 48061, Note_off_c, 1, 53, 48
3, 49200, Note_on_c, 1, 65, 65
3, 49438, Note_off_c, 1, 65, 65
3, 49440, Note_on_c, 1, 67, 63
3, 49678, Note_off_c, 1, 67, 63
3, 49680, Note_on_c, 1, 60, 65
3, 49918, Note_off_c, 1, 60, 65
3, 49920, Note_on_c, 1, 65, 62
3, 50158, Note_off_c, 1, 65, 62
3, 50160, Note_on_c, 1, 60, 55
3, 50398, Note_off_c, 1, 60, 55
3, 50400, Note_on_c, 1, 53, 63
3, 50518, Note_off_c, 1, 53, 63
3, 50880, Note_on_c, 1, 53, 56
3, 50880, Note_on_c, 1, 57, 57
3, 50941, Note_off_c, 1, 53, 56
3, 50941, Note_off_c, 1, 57, 57
3, 51360, Note_on_c, 1, 58, 52
3, 51360, Note_on_c, 1, 48, 63
3, 51421, Note_off_c, 1, 58, 52
3, 51421, Note_off_c, 1, 48, 63
3, 51840, Note_on_c, 1, 53, 48
3, 51840, Note_on_c, 1, 57, 56
3, 51901, Note_off_c, 1, 53, 48
3, 51901, Note_off_c, 1, 57, 56
3, 52080, Note_on_c, 1, 70, 60
3, 52318, Note_off_c, 1, 70, 60
3, 52320, Note_on_c, 1, 69, 50
3, 52558, Note_off_c, 1, 69, 50
3, 53040, Note_on_c, 1, 65, 52
3, 53040, Note_on_c, 1, 60, 57
3, 53278, Note_off_c, 1, 65, 52
3, 53280, Note_on_c, 1, 67, 61
3, 53404, Note_off_c, 1, 67, 61
3, 53518, Note_off_c, 1, 60, 57
3, 54000, Note_on_c, 1, 60, 31
3, 54000, Note_on_c, 1, 64, 55
3, 54238, Note_off_c, 1, 60, 31
3, 54238, Note_off_c, 1, 64, 55
3, 54240, Note_on_c, 1, 62, 45
3, 54240, Note_on_c, 1, 65, 65
3, 54364, Note_off_c, 1, 62, 45
3, 54364, Note_off_c, 1, 65, 65
3, 54960, Note_on_c, 1, 53, 50
3, 54960, Note_on_c, 1, 57, 48
3, 55198, Note_off_c, 1, 53, 50
3, 55198, Note_off_c, 1, 57, 48
3, 55200, Note_on_c, 1, 55, 66
3, 55200, Note_on_c, 1, 58, 66
3, 55438, Note_off_c, 1, 55, 66
3, 55438, Note_off_c, 1, 58, 66
3, 55440, Note_on_c, 1, 57, 66
3, 55440, Note_on_c, 1, 60, 77
3, 55678, Note_off_c, 1, 57, 66
3, 55678, Note_off_c, 1, 60, 77
3, 55680, Note_on_c, 1, 58, 68
3, 56158, Note_off_c, 1, 58, 68
3, 56520, Note_on_c, 1, 46, 66
3, 56578, Note_off_c, 1, 46, 66
3, 56640, Note_on_c, 1, 48, 66
3, 57118, Note_off_c, 1, 48, 66
3, 57480, Note_on_c, 1, 58, 46
3, 57480, Note_on_c, 1, 48, 60
3, 57538, Note_off_c, 1, 58, 46
3, 57538, Note_off_c, 1, 48, 60
3, 57600, Note_on_c, 1, 58, 51
3, 57600, Note_on_c, 1, 53, 62
3, 58080, Note_off_c, 1, 58, 51
3, 58080, Note_on_c, 1, 57, 51
3, 58138, Note_off_c, 1, 57, 51
3, 58138, Note_off_c, 1, 53, 62
3, 58560, Note_on_c, 1, 65, 48
3, 58630, Note_off_c, 1, 65, 48
3, 58680, Note_on_c, 1, 69, 31
3, 58750, Note_off_c, 1, 69, 31
3, 58800, Note_on_c, 1, 65, 46
3, 58870, Note_off_c, 1, 65, 46
3, 58920, Note_on_c, 1, 69, 34
3, 58990, Note_off_c, 1, 69, 34
3, 59040, Note_on_c, 1, 65, 32
3, 59110, Note_off_c, 1, 65, 32
3, 59160, Note_on_c, 1, 69, 30
3, 59230, Note_off_c, 1, 69, 30
3, 59280, Note_on_c, 1, 65, 46
3, 59350, Note_off_c, 1, 65, 46
3, 59400, Note_on_c, 1, 69, 26
3, 59470, Note_off_c, 1, 69, 26
3, 59520, Note_on_c, 1, 64, 56
3, 59590, Note_off_c, 1, 64, 56
3, 59640, Note_on_c, 1, 67, 40
3, 59710, Note_off_c, 1, 67, 40
3, 59760, Note_on_c, 1, 64, 36
3, 59830, Note_off_c, 1, 64, 36
3, 59880, Note_on_c, 1, 67, 41
3, 59950, Note_off_c, 1, 67, 41
3, 60000, Note_on_c, 1, 64, 33
3, 60070, Note_off_c, 1, 64, 33
3, 60120, Note_on_c, 1, 67, 41
3, 60190, Note_off_c, 1, 67, 41
3, 60240, Note_on_c, 1, 64, 28
3, 60310, Note_off_c, 1, 64, 28
3, 60360, Note_on_c, 1, 67, 40
3, 60430, Note_off_c, 1, 67, 40
3, 60480, Note_on_c, 1, 61, 53
3, 60550, Note_off_c, 1, 61, 53
3, 60600, Note_on_c, 1, 64, 37
3, 60670, Note_off_c, 1, 64, 37
3, 60720, Note_on_c, 1, 61, 28
3, 60790, Note_off_c, 1, 61, 28
3, 60840, Note_on_c, 1, 64, 52
3, 60910, Note_off_c, 1, 64, 52
3, 60960, Note_on_c, 1, 61, 56
3, 61030, Note_off_c, 1, 61, 56
3, 61080, Note_on_c, 1, 69, 47
3, 61150, Note_off_c, 1, 69, 47
3, 61200, Note_on_c, 1, 61, 43
3, 61270, Note_off_c, 1, 61, 43
3, 61320, Note_on_c, 1, 69, 27
3, 61390, Note_off_c, 1, 69, 27
3, 61440, Note_on_c, 1, 62, 64
3, 61510, Note_off_c, 1, 62, 64
3, 61560, Note_on_c, 1, 69, 24
3, 61630, Note_off_c, 1, 69, 24
3, 61680, Note_on_c, 1, 62, 38
3, 61750, Note_off_c, 1, 62, 38
3, 61800, Note_on_c, 1, 69, 30
3, 61870, Note_off_c, 1, 69, 30
3, 61920, Note_on_c, 1, 62, 41
3, 61990, Note_off_c, 1, 62, 41
3, 62040, Note_on_c, 1, 69, 23
3, 62110, Note_off_c, 1, 69, 23
3, 62160, Note_on_c, 1, 62, 40
3, 62230, Note_off_c, 1, 62, 40
3, 62280, Note_on_c, 1, 69, 22
3, 62350, Note_off_c, 1, 69, 22
3, 62400, Note_on_c, 1, 59, 50
3, 62470, Note_off_c, 1, 59, 50
3, 62520, Note_on_c, 1, 67, 33
3, 62590, Note_off_c, 1, 67, 33
3, 62640, Note_on_c, 1, 59, 41
3, 62710, Note_off_c, 1, 59, 41
3, 62760, Note_on_c, 1, 67, 36
3, 62830, Note_off_c, 1, 67, 36
3, 62880, Note_on_c, 1, 59, 31
3, 62950, Note_off_c, 1, 59, 31
3, 63000, Note_on_c, 1, 67, 35
3, 63070, Note_off_c, 1, 67, 35
3, 63120, Note_on_c, 1, 59, 34
3, 63190, Note_off_c, 1, 59, 34
3, 63240, Note_on_c, 1, 67, 40
3, 63310, Note_off_c, 1, 67, 40
3, 63360, Note_on_c, 1, 60, 61
3, 63430, Note_off_c, 1, 60, 61
3, 63480, Note_on_c, 1, 67, 42
3, 63550, Note_off_c, 1, 67, 42
3, 63600, Note_on_c, 1, 60, 45
3, 63670, Note_off_c, 1, 60, 45
3, 63720, Note_on_c, 1, 67, 55
3, 63790, Note_off_c, 1, 67, 55
3, 63840, Note_on_c, 1, 52, 64
3, 63910, Note_off_c, 1, 52, 64
3, 63960, Note_on_c, 1, 60, 35
3, 64030, Note_off_c, 1, 60, 35
3, 64080, Note_on_c, 1, 52, 63
3, 64150, Note_off_c, 1, 52, 63
3, 64200, Note_on_c, 1, 60, 48
3, 64270, Note_off_c, 1, 60, 48
3, 64320, Note_on_c, 1, 53, 64
3, 64390, Note_off_c, 1, 53, 64
3, 64440, Note_on_c, 1, 60, 42
3, 64510, Note_off_c, 1, 60, 42
3, 64560, Note_on_c, 1, 53, 64
3, 64630, Note_off_c, 1, 53, 64
3, 64680, Note_on_c, 1, 60, 47
3, 64750, Note_off_c, 1, 60, 47
3, 64800, Note_on_c, 1, 53, 66
3, 64870, Note_off_c, 1, 53, 66
3, 64920, Note_on_c, 1, 62, 52
3, 64990, Note_off_c, 1, 62, 52
3, 65040, Note_on_c, 1, 54, 64
3, 65110, Note_off_c, 1, 54, 64
3, 65160, Note_on_c, 1, 62, 48
3, 65230, Note_off_c, 1, 62, 48
3, 65280, Note_on_c, 1, 55, 62
3, 65494, Note_off_c, 1, 55, 62
3, 65640, Note_on_c, 1, 62, 65
3, 65698, Note_off_c, 1, 62, 65
3, 65700, Note_on_c, 1, 59, 68
3, 65758, Note_off_c, 1, 59, 68
3, 65760, Note_on_c, 1, 55, 55
3, 65878, Note_off_c, 1, 55, 55
3, 65880, Note_on_c, 1, 69, 65
3, 65880, Note_on_c, 1, 65, 68
3, 65938, Note_off_c, 1, 69, 65
3, 65938, Note_off_c, 1, 65, 68
3, 66000, Note_on_c, 1, 67, 61
3, 66000, Note_on_c, 1, 64, 62
3, 66058, Note_off_c, 1, 67, 61
3, 66058, Note_off_c, 1, 64, 62
3, 66120, Note_on_c, 1, 65, 63
3, 66120, Note_on_c, 1, 62, 63
3, 66178, Note_off_c, 1, 65, 63
3, 66178, Note_off_c, 1, 62, 63
3, 66240, Note_on_c, 1, 64, 66
3, 66240, Note_on_c, 1, 60, 67
3, 66718, Note_off_c, 1, 64, 66
3, 66718, Note_off_c, 1, 60, 67
3, 66960, Note_on_c, 1, 64, 67
3, 67078, Note_off_c, 1, 64, 67
3, 67200, Note_on_c, 1, 65, 63
3, 67318, Note_off_c, 1, 65, 63
3, 67440, Note_on_c, 1, 64, 45
3, 67558, Note_off_c, 1, 64, 45
3, 67680, Note_on_c, 1, 62, 58
3, 67918, Note_off_c, 1, 62, 58
3, 67920, Note_on_c, 1, 55, 67
3, 68038, Note_off_c, 1, 55, 67
3, 68160, Note_on_c, 1, 60, 71
3, 68398, Note_off_c, 1, 60, 71
3, 68400, Note_on_c, 1, 64, 72
3, 68638, Note_off_c, 1, 64, 72
3, 68880, Note_on_c, 1, 64, 62
3, 68998, Note_off_c, 1, 64, 62
3, 69120, Note_on_c, 1, 65, 58
3, 69238, Note_off_c, 1, 65, 58
3, 69360, Note_on_c, 1, 64, 40
3, 69478, Note_off_c, 1, 64, 40
3, 69600, Note_on_c, 1, 62, 53
3, 69838, Note_off_c, 1, 62, 53
3, 69840, Note_on_c, 1, 55, 62
3, 69958, Note_off_c, 1, 55, 62
3, 70080, Note_on_c, 1, 60, 72
3, 70318, Note_off_c, 1, 60, 72
3, 70320, Note_on_c, 1, 62, 68
3, 70558, Note_off_c, 1, 62, 68
3, 70560, Note_on_c, 1, 64, 55
3, 70798, Note_off_c, 1, 64, 55
3, 70800, Note_on_c, 1, 52, 63
3, 71038, Note_off_c, 1, 52, 63
3, 71040, Note_on_c, 1, 53, 66
3, 71518, Note_off_c, 1, 53, 66
3, 71760, Note_on_c, 1, 52, 68
3, 71998, Note_off_c, 1, 52, 68
3, 72000, Note_on_c, 1, 59, 66
3, 72000, Note_on_c, 1, 50, 63
3, 72718, Note_off_c, 1, 59, 66
3, 72718, Note_off_c, 1, 50, 63
3, 72720, Note_on_c, 1, 48, 55
3, 72720, Note_on_c, 1, 60, 41
3, 72958, Note_off_c, 1, 48, 55
3, 72958, Note_off_c, 1, 60, 41
3, 72960, Note_on_c, 1, 53, 63
3, 73438, Note_off_c, 1, 53, 63
3, 73680, Note_on_c, 1, 43, 35
3, 73680, Note_on_c, 1, 55, 51
3, 73918, Note_off_c, 1, 43, 35
3, 73918, Note_off_c, 1, 55, 51
3, 73920, Note_on_c, 1, 44, 63
3, 73920, Note_on_c, 1, 56, 61
3, 74158, Note_off_c, 1, 44, 63
3, 74158, Note_off_c, 1, 56, 61
3, 74160, Note_on_c, 1, 60, 43
3, 74160, Note_on_c, 1, 56, 56
3, 74398, Note_off_c, 1, 60, 43
3, 74398, Note_off_c, 1, 56, 56
3, 74400, Note_on_c, 1, 60, 32
3, 74400, Note_on_c, 1, 56, 48
3, 74638, Note_off_c, 1, 60, 32
3, 74638, Note_off_c, 1, 56, 48
3, 74640, Note_on_c, 1, 60, 38
3, 74640, Note_on_c, 1, 56, 44
3, 74878, Note_off_c, 1, 60, 38
3, 74878, Note_off_c, 1, 56, 44
3, 74880, Note_on_c, 1, 60, 50
3, 74880, Note_on_c, 1, 55, 66
3, 75118, Note_off_c, 1, 60, 50
3, 75118, Note_off_c, 1, 55, 66
3, 75120, Note_on_c, 1, 60, 23
3, 75120, Note_on_c, 1, 55, 30
3, 75358, Note_off_c, 1, 60, 23
3, 75358, Note_off_c, 1, 55, 30
3, 75360, Note_on_c, 1, 60, 23
3, 75360, Note_on_c, 1, 55, 27
3, 75598, Note_off_c, 1, 60, 23
3, 75598, Note_off_c, 1, 55, 27
3, 75600, Note_on_c, 1, 60, 30
3, 75600, Note_on_c, 1, 55, 37
3, 75838, Note_off_c, 1, 60, 30
3, 75838, Note_off_c, 1, 55, 37
3, 75840, Note_on_c, 1, 60, 63
3, 75840, Note_on_c, 1, 54, 67
3, 76078, Note_off_c, 1, 60, 63
3, 76078, Note_off_c, 1, 54, 67
3, 76080, Note_on_c, 1, 60, 28
3, 76080, Note_on_c, 1, 54, 37
3, 76318, Note_off_c, 1, 60, 28
3, 76318, Note_off_c, 1, 54, 37
3, 76320, Note_on_c, 1, 60, 33
3, 76320, Note_on_c, 1, 54, 43
3, 76558, Note_off_c, 1, 60, 33
3, 76558, Note_off_c, 1, 54, 43
3, 76560, Note_on_c, 1, 54, 44
3, 76560, Note_on_c, 1, 57, 30
3, 76798, Note_off_c, 1, 54, 44
3, 76798, Note_off_c, 1, 57, 30
3, 76800, Note_on_c, 1, 55, 65
3, 76800, Note_on_c, 1, 59, 62
3, 77038, Note_off_c, 1, 55, 65
3, 77038, Note_off_c, 1, 59, 62
3, 77040, Note_on_c, 1, 60, 56
3, 77040, Note_on_c, 1, 57, 55
3, 77278, Note_off_c, 1, 60, 56
3, 77278, Note_off_c, 1, 57, 55
3, 77280, Note_on_c, 1, 62, 61
3, 77280, Note_on_c, 1, 59, 62
3, 77518, Note_off_c, 1, 62, 61
3, 77518, Note_off_c, 1, 59, 62
3, 77760, Note_on_c, 1, 60, 65
3, 77998, Note_off_c, 1, 60, 65
3, 78240, Note_on_c, 1, 64, 57
3, 78358, Note_off_c, 1, 64, 57
3, 78480, Note_on_c, 1, 65, 52
3, 78598, Note_off_c, 1, 65, 52
3, 78720, Note_on_c, 1, 64, 57
3, 78838, Note_off_c, 1, 64, 57
3, 79200, Note_on_c, 1, 64, 45
3, 79318, Note_off_c, 1, 64, 45
3, 79440, Note_on_c, 1, 65, 47
3, 79558, Note_off_c, 1, 65, 47
3, 79680, Note_on_c, 1, 64, 62
3, 79798, Note_off_c, 1, 64, 62
3, 80160, Note_on_c, 1, 64, 36
3, 80278, Note_off_c, 1, 64, 36
3, 80400, Note_on_c, 1, 65, 66
3, 80518, Note_off_c, 1, 65, 66
3, 80640, Note_on_c, 1, 64, 33
3, 80878, Note_off_c, 1, 64, 33
3, 81120, Note_on_c, 1, 64, 48
3, 81238, Note_off_c, 1, 64, 48
3, 81360, Note_on_c, 1, 65, 44
3, 81478, Note_off_c, 1, 65, 44
3, 81600, Note_on_c, 1, 64, 36
3, 81718, Note_off_c, 1, 64, 36
3, 81840, Note_on_c, 1, 65, 62
3, 81958, Note_off_c, 1, 65, 62
3, 82080, Note_on_c, 1, 64, 68
3, 82198, Note_off_c, 1, 64, 68
3, 82320, Note_on_c, 1, 65, 62
3, 82438, Note_off_c, 1, 65, 62
3, 82560, Note_on_c, 1, 64, 71
3, 83038, Note_off_c, 1, 64, 71
3, 83040, Note_on_c, 1, 63, 63
3, 83040, Note_on_c, 1, 67, 63
3, 83518, Note_off_c, 1, 63, 63
3, 83518, Note_off_c, 1, 67, 63
3, 83520, Note_on_c, 1, 62, 72
3, 83520, Note_on_c, 1, 69, 66
3, 83998, Note_off_c, 1, 62, 72
3, 83998, Note_off_c, 1, 69, 66
3, 84000, Note_on_c, 1, 67, 58
3, 84000, Note_on_c, 1, 59, 66
3, 84478, Note_off_c, 1, 67, 58
3, 84478, Note_off_c, 1, 59, 66
3, 84480, Note_on_c, 1, 67, 33
3, 84480, Note_on_c, 1, 60, 71
3, 84958, Note_off_c, 1, 67, 33
3, 84958, Note_off_c, 1, 60, 71
3, 85200, Note_on_c, 1, 60, 55
3, 85200, Note_on_c, 1, 52, 68
3, 85438, Note_off_c, 1, 52, 68
3, 85440, Note_on_c, 1, 53, 57
3, 85678, Note_off_c, 1, 60, 55
3, 85680, Note_on_c, 1, 65, 65
3, 85918, Note_off_c, 1, 53, 57
3, 85918, Note_off_c, 1, 65, 65
3, 85920, Note_on_c, 1, 64, 65
3, 85920, Note_on_c, 1, 55, 44
3, 86158, Note_off_c, 1, 64, 65
3, 86160, Note_on_c, 1, 62, 65
3, 86398, Note_off_c, 1, 55, 44
3, 86398, Note_off_c, 1, 62, 65
3, 86400, Note_on_c, 1, 64, 48
3, 86400, Note_on_c, 1, 60, 63
3, 86878, Note_off_c, 1, 64, 48
3, 86878, Note_off_c, 1, 60, 63
3, 87120, Note_on_c, 1, 60, 62
3, 87120, Note_on_c, 1, 52, 51
3, 87358, Note_off_c, 1, 52, 51
3, 87360, Note_on_c, 1, 53, 63
3, 87598, Note_off_c, 1, 60, 62
3, 87600, Note_on_c, 1, 65, 60
3, 87838, Note_off_c, 1, 53, 63
3, 87838, Note_off_c, 1, 65, 60
3, 87840, Note_on_c, 1, 64, 57
3, 87840, Note_on_c, 1, 55, 55
3, 88078, Note_off_c, 1, 64, 57
3, 88080, Note_on_c, 1, 62, 65
3, 88318, Note_off_c, 1, 55, 55
3, 88318, Note_off_c, 1, 62, 65
3, 88320, Note_on_c, 1, 48, 63
3, 88378, Note_off_c, 1, 48, 63
3, 88380, Note_on_c, 1, 60, 48
3, 88438, Note_off_c, 1, 60, 48
3, 88440, Note_on_c, 1, 59, 44
3, 88498, Note_off_c, 1, 59, 44
3, 88500, Note_on_c, 1, 60, 38
3, 88558, Note_off_c, 1, 60, 38
3, 88560, Note_on_c, 1, 48, 62
3, 88618, Note_off_c, 1, 48, 62
3, 88620, Note_on_c, 1, 60, 21
3, 88678, Note_off_c, 1, 60, 21
3, 88680, Note_on_c, 1, 59, 31
3, 88738, Note_off_c, 1, 59, 31
3, 88740, Note_on_c, 1, 60, 57
3, 88798, Note_off_c, 1, 60, 57
3, 88800, Note_on_c, 1, 48, 45
3, 88858, Note_off_c, 1, 48, 45
3, 88860, Note_on_c, 1, 60, 57
3, 88918, Note_off_c, 1, 60, 57
3, 88920, Note_on_c, 1, 59, 42
3, 88978, Note_off_c, 1, 59, 42
3, 88980, Note_on_c, 1, 60, 62
3, 89038, Note_off_c, 1, 60, 62
3, 89040, Note_on_c, 1, 48, 62
3, 89098, Note_off_c, 1, 48, 62
3, 89100, Note_on_c, 1, 60, 46
3, 89158, Note_off_c, 1, 60, 46
3, 89160, Note_on_c, 1, 59, 43
3, 89218, Note_off_c, 1, 59, 43
3, 89220, Note_on_c, 1, 60, 56
3, 89278, Note_off_c, 1, 60, 56
3, 89280, Note_on_c, 1, 48, 76
3, 89338, Note_off_c, 1, 48, 76
3, 89340, Note_on_c, 1, 60, 65
3, 89398, Note_off_c, 1, 60, 65
3, 89400, Note_on_c, 1, 59, 52
3, 89458, Note_off_c, 1, 59, 52
3, 89460, Note_on_c, 1, 60, 62
3, 89518, Note_off_c, 1, 60, 62
3, 89520, Note_on_c, 1, 48, 76
3, 89578, Note_off_c, 1, 48, 76
3, 89580, Note_on_c, 1, 60, 68
3, 89638, Note_off_c, 1, 60, 68
3, 89640, Note_on_c, 1, 59, 68
3, 89698, Note_off_c, 1, 59, 68
3, 89700, Note_on_c, 1, 60, 72
3, 89758, Note_off_c, 1, 60, 72
3, 89760, Note_on_c, 1, 48, 78
3, 89818, Note_off_c, 1, 48, 78
3, 89820, Note_on_c, 1, 60, 72
3, 89878, Note_off_c, 1, 60, 72
3, 89880, Note_on_c, 1, 59, 74
3, 89938, Note_off_c, 1, 59, 74
3, 89940, Note_on_c, 1, 60, 74
3, 89998, Note_off_c, 1, 60, 74
3, 90000, Note_on_c, 1, 48, 76
3, 90058, Note_off_c, 1, 48, 76
3, 90060, Note_on_c, 1, 60, 74
3, 90118, Note_off_c, 1, 60, 74
3, 90120, Note_on_c, 1, 59, 81
3, 90178, Note_off_c, 1, 59, 81
3, 90180, Note_on_c, 1, 60, 78
3, 90238, Note_off_c, 1, 60, 78
3, 90240, Note_on_c, 1, 48, 74
3, 90718, Note_off_c, 1, 48, 74
3, 91200, Note_on_c, 1, 48, 41
3, 91200, Note_on_c, 1, 52, 55
3, 91342, Note_off_c, 1, 48, 41
3, 91342, Note_off_c, 1, 52, 55
3, 91680, Note_on_c, 1, 53, 41
3, 91680, Note_on_c, 1, 43, 45
3, 91822, Note_off_c, 1, 53, 41
3, 91822, Note_off_c, 1, 43, 45
3, 92160, Note_on_c, 1, 52, 48
3, 92160, Note_on_c, 1, 48, 52
3, 92302, Note_off_c, 1, 52, 48
3, 92302, Note_off_c, 1, 48, 52
3, 93360, Note_on_c, 1, 60, 52
3, 93598, Note_off_c, 1, 60, 52
3, 93600, Note_on_c, 1, 62, 60
3, 93838, Note_off_c, 1, 62, 60
3, 93840, Note_on_c, 1, 55, 36
3, 94078, Note_off_c, 1, 55, 36
3, 94080, Note_on_c, 1, 60, 47
3, 94318, Note_off_c, 1, 60, 47
3, 94320, Note_on_c, 1, 55, 51
3, 94558, Note_off_c, 1, 55, 51
3, 94560, Note_on_c, 1, 48, 62
3, 94798, Note_off_c, 1, 48, 62
3, 95280, Note_on_c, 1, 58, 65
3, 95338, Note_off_c, 1, 58, 65
3, 95340, Note_on_c, 1, 55, 65
3, 95398, Note_off_c, 1, 55, 65
3, 95400, Note_on_c, 1, 58, 56
3, 95458, Note_off_c, 1, 58, 56
3, 95460, Note_on_c, 1, 55, 67
3, 95518, Note_off_c, 1, 55, 67
3, 95520, Note_on_c, 1, 52, 72
3, 95578, Note_off_c, 1, 52, 72
3, 95760, Note_on_c, 1, 70, 70
3, 95998, Note_off_c, 1, 70, 70
3, 96000, Note_on_c, 1, 69, 63
3, 96118, Note_off_c, 1, 69, 63
3, 96240, Note_on_c, 1, 48, 68
3, 96298, Note_off_c, 1, 48, 68
3, 96300, Note_on_c, 1, 45, 74
3, 96358, Note_off_c, 1, 45, 74
3, 96360, Note_on_c, 1, 48, 52
3, 96418, Note_off_c, 1, 48, 52
3, 96420, Note_on_c, 1, 45, 65
3, 96478, Note_off_c, 1, 45, 65
3, 96480, Note_on_c, 1, 41, 72
3, 96538, Note_off_c, 1, 41, 72
3, 97200, Note_on_c, 1, 63, 62
3, 97258, Note_off_c, 1, 63, 62
3, 97260, Note_on_c, 1, 60, 71
3, 97318, Note_off_c, 1, 60, 71
3, 97320, Note_on_c, 1, 63, 51
3, 97378, Note_off_c, 1, 63, 51
3, 97380, Note_on_c, 1, 60, 65
3, 97438, Note_off_c, 1, 60, 65
3, 97440, Note_on_c, 1, 57, 72
3, 97498, Note_off_c, 1, 57, 72
3, 97680, Note_on_c, 1, 75, 73
3, 97918, Note_off_c, 1, 75, 73
3, 97920, Note_on_c, 1, 74, 65
3, 98038, Note_off_c, 1, 74, 65
3, 98280, Note_on_c, 1, 70, 33
3, 98398, Note_off_c, 1, 70, 33
3, 98400, Note_on_c, 1, 72, 68
3, 98638, Note_off_c, 1, 72, 68
3, 98640, Note_on_c, 1, 69, 67
3, 98878, Note_off_c, 1, 69, 67
3, 98880, Note_on_c, 1, 70, 58
3, 99118, Note_off_c, 1, 70, 58
3, 99240, Note_on_c, 1, 67, 68
3, 99358, Note_off_c, 1, 67, 68
3, 99360, Note_on_c, 1, 69, 61
3, 99598, Note_off_c, 1, 69, 61
3, 99600, Note_on_c, 1, 66, 52
3, 99838, Note_off_c, 1, 66, 52
3, 99840, Note_on_c, 1, 67, 57
3, 100078, Note_off_c, 1, 67, 57
3, 100200, Note_on_c, 1, 64, 57
3, 100318, Note_off_c, 1, 64, 57
3, 100320, Note_on_c, 1, 65, 61
3, 100558, Note_off_c, 1, 65, 61
3, 100560, Note_on_c, 1, 62, 51
3, 100798, Note_off_c, 1, 62, 51
3, 100800, Note_on_c, 1, 64, 62
3, 101038, Note_off_c, 1, 64, 62
3, 101160, Note_on_c, 1, 61, 55
3, 101278, Note_off_c, 1, 61, 55
3, 101280, Note_on_c, 1, 62, 58
3, 101518, Note_off_c, 1, 62, 58
3, 101520, Note_on_c, 1, 56, 63
3, 101758, Note_off_c, 1, 56, 63
3, 101760, Note_on_c, 1, 45, 78
3, 101818, Note_off_c, 1, 45, 78
3, 101820, Note_on_c, 1, 57, 65
3, 101878, Note_off_c, 1, 57, 65
3, 101880, Note_on_c, 1, 56, 55
3, 101938, Note_off_c, 1, 56, 55
3, 101940, Note_on_c, 1, 57, 57
3, 101998, Note_off_c, 1, 57, 57
3, 102000, Note_on_c, 1, 45, 81
3, 102058, Note_off_c, 1, 45, 81
3, 102060, Note_on_c, 1, 57, 63
3, 102118, Note_off_c, 1, 57, 63
3, 102120, Note_on_c, 1, 56, 65
3, 102178, Note_off_c, 1, 56, 65
3, 102180, Note_on_c, 1, 57, 62
3, 102238, Note_off_c, 1, 57, 62
3, 102240, Note_on_c, 1, 45, 74
3, 102298, Note_off_c, 1, 45, 74
3, 102300, Note_on_c, 1, 57, 52
3, 102358, Note_off_c, 1, 57, 52
3, 102360, Note_on_c, 1, 56, 45
3, 102418, Note_off_c, 1, 56, 45
3, 102420, Note_on_c, 1, 57, 60
3, 102478, Note_off_c, 1, 57, 60
3, 102480, Note_on_c, 1, 45, 76
3, 102538, Note_off_c, 1, 45, 76
3, 102540, Note_on_c, 1, 57, 48
3, 102598, Note_off_c, 1, 57, 48
3, 102600, Note_on_c, 1, 56, 61
3, 102658, Note_off_c, 1, 56, 61
3, 102660, Note_on_c, 1, 57, 61
3, 102718, Note_off_c, 1, 57, 61
3, 102720, Note_on_c, 1, 45, 65
3, 102838, Note_off_c, 1, 45, 65
3, 102960, Note_on_c, 1, 65, 62
3, 102960, Note_on_c, 1, 57, 56
3, 103198, Note_off_c, 1, 65, 62
3, 103200, Note_on_c, 1, 64, 63
3, 103438, Note_off_c, 1, 64, 63
3, 103440, Note_on_c, 1, 62, 60
3, 103678, Note_off_c, 1, 62, 60
3, 103680, Note_on_c, 1, 61, 44
3, 103918, Note_off_c, 1, 61, 44
3, 103918, Note_off_c, 1, 57, 56
3, 104640, Note_on_c, 1, 50, 48
3, 104710, Note_off_c, 1, 50, 48
3, 104760, Note_on_c, 1, 53, 31
3, 104830, Note_off_c, 1, 53, 31
3, 104880, Note_on_c, 1, 50, 46
3, 104950, Note_off_c, 1, 50, 46
3, 105000, Note_on_c, 1, 53, 34
3, 105070, Note_off_c, 1, 53, 34
3, 105120, Note_on_c, 1, 50, 32
3, 105190, Note_off_c, 1, 50, 32
3, 105240, Note_on_c, 1, 53, 30
3, 105310, Note_off_c, 1, 53, 30
3, 105360, Note_on_c, 1, 50, 46
3, 105430, Note_off_c, 1, 50, 46
3, 105480, Note_on_c, 1, 53, 26
3, 105550, Note_off_c, 1, 53, 26
3, 105600, Note_on_c, 1, 52, 56
3, 105670, Note_off_c, 1, 52, 56
3, 105720, Note_on_c, 1, 55, 40
3, 105790, Note_off_c, 1, 55, 40
3, 105840, Note_on_c, 1, 52, 36
3, 105910, Note_off_c, 1, 52, 36
3, 105960, Note_on_c, 1, 55, 41
3, 106030, Note_off_c, 1, 55, 41
3, 106080, Note_on_c, 1, 52, 33
3, 106150, Note_off_c, 1, 52, 33
3, 106200, Note_on_c, 1, 55, 41
3, 106270, Note_off_c, 1, 55, 41
3, 106320, Note_on_c, 1, 52, 28
3, 106390, Note_off_c, 1, 52, 28
3, 106440, Note_on_c, 1, 55, 40
3, 106510, Note_off_c, 1, 55, 40
3, 106560, Note_on_c, 1, 52, 56
3, 106630, Note_off_c, 1, 52, 56
3, 106680, Note_on_c, 1, 55, 40
3, 106750, Note_off_c, 1, 55, 40
3, 106800, Note_on_c, 1, 52, 36
3, 106870, Note_off_c, 1, 52, 36
3, 106920, Note_on_c, 1, 55, 41
3, 106990, Note_off_c, 1, 55, 41
3, 107040, Note_on_c, 1, 52, 33
3, 107110, Note_off_c, 1, 52, 33
3, 107160, Note_on_c, 1, 55, 41
3, 107230, Note_off_c, 1, 55, 41
3, 107280, Note_on_c, 1, 52, 28
3, 107350, Note_off_c, 1, 52, 28
3, 107400, Note_on_c, 1, 55, 40
3, 107470, Note_off_c, 1, 55, 40
3, 107520, Note_on_c, 1, 53, 56
3, 107590, Note_off_c, 1, 53, 56
3, 107640, Note_on_c, 1, 57, 40
3, 107710, Note_off_c, 1, 57, 40
3, 107760, Note_on_c, 1, 53, 36
3, 107830, Note_off_c, 1, 53, 36
3, 107880, Note_on_c, 1, 57, 41
3, 107950, Note_off_c, 1, 57, 41
3, 108000, Note_on_c, 1, 53, 33
3, 108070, Note_off_c, 1, 53, 33
3, 108120, Note_on_c, 1, 57, 41
3, 108190, Note_off_c, 1, 57, 41
3, 108240, Note_on_c, 1, 53, 28
3, 108310, Note_off_c, 1, 53, 28
3, 108360, Note_on_c, 1, 57, 40
3, 108430, Note_off_c, 1, 57, 40
3, 108480, Note_on_c, 1, 53, 56
3, 108550, Note_off_c, 1, 53, 56
3, 108600, Note_on_c, 1, 57, 40
3, 108670, Note_off_c, 1, 57, 40
3, 108720, Note_on_c, 1, 53, 36
3, 108790, Note_off_c, 1, 53, 36
3, 108840, Note_on_c, 1, 57, 41
3, 108910, Note_off_c, 1, 57, 41
3, 108960, Note_on_c, 1, 54, 33
3, 109030, Note_off_c, 1, 54, 33
3, 109080, Note_on_c, 1, 62, 41
3, 109150, Note_off_c, 1, 62, 41
3, 109200, Note_on_c, 1, 54, 28
3, 109270, Note_off_c, 1, 54, 28
3, 109320, Note_on_c, 1, 62, 40
3, 109390, Note_off_c, 1, 62, 40
3, 109440, Note_on_c, 1, 55, 72
3, 109498, Note_off_c, 1, 55, 72
3, 109560, Note_on_c, 1, 62, 71
3, 109618, Note_off_c, 1, 62, 71
3, 109680, Note_on_c, 1, 55, 62
3, 109738, Note_off_c, 1, 55, 62
3, 109800, Note_on_c, 1, 62, 68
3, 109858, Note_off_c, 1, 62, 68
3, 109920, Note_on_c, 1, 56, 74
3, 109978, Note_off_c, 1, 56, 74
3, 110040, Note_on_c, 1, 64, 68
3, 110098, Note_off_c, 1, 64, 68
3, 110160, Note_on_c, 1, 56, 73
3, 110278, Note_off_c, 1, 56, 73
3, 110280, Note_on_c, 1, 64, 67
3, 110338, Note_off_c, 1, 64, 67
3, 110400, Note_on_c, 1, 57, 74
3, 110458, Note_off_c, 1, 57, 74
3, 110520, Note_on_c, 1, 64, 68
3, 110578, Note_off_c, 1, 64, 68
3, 110640, Note_on_c, 1, 57, 76
3, 110698, Note_off_c, 1, 57, 76
3, 110760, Note_on_c, 1, 64, 74
3, 110818, Note_off_c, 1, 64, 74
3, 110880, Note_on_c, 1, 61, 74
3, 110938, Note_off_c, 1, 61, 74
3, 111000, Note_on_c, 1, 69, 72
3, 111058, Note_off_c, 1, 69, 72
3, 111120, Note_on_c, 1, 61, 72
3, 111178, Note_off_c, 1, 61, 72
3, 111240, Note_on_c, 1, 69, 86
3, 111298, Note_off_c, 1, 69, 86
3, 120000, Note_on_c, 1, 50, 78
3, 120058, Note_off_c, 1, 50, 78
3, 120060, Note_on_c, 1, 62, 58
3, 120118, Note_off_c, 1, 62, 58
3, 120120, Note_on_c, 1, 61, 68
3, 120178, Note_off_c, 1, 61, 68
3, 120180, Note_on_c, 1, 62, 67
3, 120238, Note_off_c, 1, 62, 67
3, 120240, Note_on_c, 1, 50, 74
3, 120298, Note_off_c, 1, 50, 74
3, 120300, Note_on_c, 1, 62, 67
3, 120358, Note_off_c, 1, 62, 67
3, 120360, Note_on_c, 1, 61, 74
3, 120418, Note_off_c, 1, 61, 74
3, 120420, Note_on_c, 1, 62, 63
3, 120478, Note_off_c, 1, 62, 63
3, 120480, Note_on_c, 1, 50, 81
3, 120538, Note_off_c, 1, 50, 81
3, 120540, Note_on_c, 1, 62, 66
3, 120598, Note_off_c, 1, 62, 66
3, 120600, Note_on_c, 1, 61, 72
3, 120658, Note_off_c, 1, 61, 72
3, 120660, Note_on_c, 1, 62, 66
3, 120718, Note_off_c, 1, 62, 66
3, 120720, Note_on_c, 1, 50, 76
3, 120778, Note_off_c, 1, 50, 76
3, 120780, Note_on_c, 1, 62, 51
3, 120838, Note_off_c, 1, 62, 51
3, 120840, Note_on_c, 1, 61, 60
3, 120898, Note_off_c, 1, 61, 60
3, 120900, Note_on_c, 1, 62, 67
3, 120958, Note_off_c, 1, 62, 67
3, 120960, Note_on_c, 1, 50, 83
3, 121018, Note_off_c, 1, 50, 83
3, 121020, Note_on_c, 1, 62, 71
3, 121078, Note_off_c, 1, 62, 71
3, 121080, Note_on_c, 1, 61, 52
3, 121138, Note_off_c, 1, 61, 52
3, 121140, Note_on_c, 1, 62, 72
3, 121198, Note_off_c, 1, 62, 72
3, 121200, Note_on_c, 1, 50, 77
3, 121258, Note_off_c, 1, 50, 77
3, 121260, Note_on_c, 1, 62, 55
3, 121318, Note_off_c, 1, 62, 55
3, 121320, Note_on_c, 1, 61, 62
3, 121378, Note_off_c, 1, 61, 62
3, 121380, Note_on_c, 1, 62, 68
3, 121438, Note_off_c, 1, 62, 68
3, 121440, Note_on_c, 1, 50, 73
3, 121498, Note_off_c, 1, 50, 73
3, 121500, Note_on_c, 1, 62, 66
3, 121558, Note_off_c, 1, 62, 66
3, 121560, Note_on_c, 1, 61, 65
3, 121618, Note_off_c, 1, 61, 65
3, 121620, Note_on_c, 1, 62, 76
3, 121678, Note_off_c, 1, 62, 76
3, 121680, Note_on_c, 1, 50, 78
3, 121738, Note_off_c, 1, 50, 78
3, 121740, Note_on_c, 1, 62, 62
3, 121798, Note_off_c, 1, 62, 62
3, 121800, Note_on_c, 1, 61, 55
3, 121858, Note_off_c, 1, 61, 55
3, 121860, Note_on_c, 1, 62, 65
3, 121918, Note_off_c, 1, 62, 65
3, 121920, Note_on_c, 1, 55, 74
3, 122398, Note_off_c, 1, 55, 74
3, 122880, Note_on_c, 1, 48, 70
3, 122938, Note_off_c, 1, 48, 70
3, 122940, Note_on_c, 1, 60, 67
3, 122998, Note_off_c, 1, 60, 67
3, 123000, Note_on_c, 1, 59, 56
3, 123058, Note_off_c, 1, 59, 56
3, 123060, Note_on_c, 1, 60, 45
3, 123118, Note_off_c, 1, 60, 45
3, 123120, Note_on_c, 1, 48, 71
3, 123178, Note_off_c, 1, 48, 71
3, 123180, Note_on_c, 1, 60, 61
3, 123238, Note_off_c, 1, 60, 61
3, 123240, Note_on_c, 1, 59, 57
3, 123298, Note_off_c, 1, 59, 57
3, 123300, Note_on_c, 1, 60, 61
3, 123358, Note_off_c, 1, 60, 61
3, 123360, Note_on_c, 1, 48, 66
3, 123418, Note_off_c, 1, 48, 66
3, 123420, Note_on_c, 1, 60, 68
3, 123478, Note_off_c, 1, 60, 68
3, 123480, Note_on_c, 1, 59, 67
3, 123538, Note_off_c, 1, 59, 67
3, 123540, Note_on_c, 1, 60, 65
3, 123598, Note_off_c, 1, 60, 65
3, 123600, Note_on_c, 1, 48, 66
3, 123658, Note_off_c, 1, 48, 66
3, 123660, Note_on_c, 1, 60, 67
3, 123718, Note_off_c, 1, 60, 67
3, 123720, Note_on_c, 1, 59, 52
3, 123778, Note_off_c, 1, 59, 52
3, 123780, Note_on_c, 1, 60, 66
3, 123838, Note_off_c, 1, 60, 66
3, 123840, Note_on_c, 1, 48, 66
3, 123898, Note_off_c, 1, 48, 66
3, 123900, Note_on_c, 1, 60, 66
3, 123958, Note_off_c, 1, 60, 66
3, 123960, Note_on_c, 1, 59, 52
3, 124018, Note_off_c, 1, 59, 52
3, 124020, Note_on_c, 1, 60, 66
3, 124078, Note_off_c, 1, 60, 66
3, 124080, Note_on_c, 1, 48, 67
3, 124138, Note_off_c, 1, 48, 67
3, 124140, Note_on_c, 1, 60, 63
3, 124198, Note_off_c, 1, 60, 63
3, 124200, Note_on_c, 1, 59, 52
3, 124258, Note_off_c, 1, 59, 52
3, 124260, Note_on_c, 1, 60, 63
3, 124318, Note_off_c, 1, 60, 63
3, 124320, Note_on_c, 1, 48, 71
3, 124378, Note_off_c, 1, 48, 71
3, 124380, Note_on_c, 1, 60, 63
3, 124438, Note_off_c, 1, 60, 63
3, 124440, Note_on_c, 1, 59, 52
3, 124498, Note_off_c, 1, 59, 52
3, 124500, Note_on_c, 1, 60, 65
3, 124558, Note_off_c, 1, 60, 65
3, 124560, Note_on_c, 1, 48, 66
3, 124618, Note_off_c, 1, 48, 66
3, 124620, Note_on_c, 1, 60, 66
3, 124678, Note_off_c, 1, 60, 66
3, 124680, Note_on_c, 1, 59, 52
3, 124738, Note_off_c, 1, 59, 52
3, 124740, Note_on_c, 1, 60, 67
3, 124798, Note_off_c, 1, 60, 67
3, 124800, Note_on_c, 1, 48, 79
3, 124858, Note_off_c, 1, 48, 79
3, 124860, Note_on_c, 1, 60, 70
3, 124918, Note_off_c, 1, 60, 70
3, 124920, Note_on_c, 1, 59, 55
3, 124978, Note_off_c, 1, 59, 55
3, 124980, Note_on_c, 1, 60, 66
3, 125038, Note_off_c, 1, 60, 66
3, 125040, Note_on_c, 1, 48, 74
3, 125098, Note_off_c, 1, 48, 74
3, 125100, Note_on_c, 1, 60, 65
3, 125158, Note_off_c, 1, 60, 65
3, 125160, Note_on_c, 1, 59, 53
3, 125218, Note_off_c, 1, 59, 53
3, 125220, Note_on_c, 1, 60, 67
3, 125278, Note_off_c, 1, 60, 67
3, 125280, Note_on_c, 1, 48, 74
3, 125338, Note_off_c, 1, 48, 74
3, 125340, Note_on_c, 1, 60, 73
3, 125398, Note_off_c, 1, 60, 73
3, 125400, Note_on_c, 1, 59, 55
3, 125458, Note_off_c, 1, 59, 55
3, 125460, Note_on_c, 1, 60, 63
3, 125518, Note_off_c, 1, 60, 63
3, 125520, Note_on_c, 1, 48, 74
3, 125578, Note_off_c, 1, 48, 74
3, 125580, Note_on_c, 1, 60, 67
3, 125638, Note_off_c, 1, 60, 67
3, 125640, Note_on_c, 1, 59, 42
3, 125698, Note_off_c, 1, 59, 42
3, 125700, Note_on_c, 1, 60, 65
3, 125758, Note_off_c, 1, 60, 65
3, 125760, Note_on_c, 1, 48, 71
3, 126000, Note_off_c, 1, 48, 71
3, 126720, Note_on_c, 1, 36, 77
3, 126720, Note_on_c, 1, 48, 62
3, 126958, Note_off_c, 1, 36, 77
3, 126958, Note_off_c, 1, 48, 62
3, 127080, Note_on_c, 1, 58, 55
3, 127138, Note_off_c, 1, 58, 55
3, 127140, Note_on_c, 1, 60, 56
3, 127198, Note_off_c, 1, 60, 56
3, 127200, Note_on_c, 1, 64, 67
3, 127258, Note_off_c, 1, 64, 67
3, 127320, Note_on_c, 1, 60, 68
3, 127378, Note_off_c, 1, 60, 68
3, 127380, Note_on_c, 1, 64, 57
3, 127438, Note_off_c, 1, 64, 57
3, 127440, Note_on_c, 1, 67, 31
3, 127498, Note_off_c, 1, 67, 31
3, 127560, Note_on_c, 1, 64, 58
3, 127618, Note_off_c, 1, 64, 58
3, 127620, Note_on_c, 1, 67, 77
3, 127678, Note_off_c, 1, 67, 77
3, 127680, Note_on_c, 1, 70, 62
3, 127798, Note_off_c, 1, 70, 62
3, 128640, Note_on_c, 1, 57, 57
3, 128640, Note_on_c, 1, 53, 56
3, 128701, Note_off_c, 1, 57, 57
3, 128701, Note_off_c, 1, 53, 56
3, 129120, Note_on_c, 1, 48, 63
3, 129120, Note_on_c, 1, 58, 52
3, 129181, Note_off_c, 1, 48, 63
3, 129181, Note_off_c, 1, 58, 52
3, 129600, Note_on_c, 1, 57, 56
3, 129600, Note_on_c, 1, 53, 48
3, 129661, Note_off_c, 1, 57, 56
3, 129661, Note_off_c, 1, 53, 48
3, 130800, Note_on_c, 1, 65, 65
3, 131038, Note_off_c, 1, 65, 65
3, 131040, Note_on_c, 1, 67, 63
3, 131278, Note_off_c, 1, 67, 63
3, 131280, Note_on_c, 1, 60, 65
3, 131518, Note_off_c, 1, 60, 65
3, 131520, Note_on_c, 1, 65, 62
3, 131758, Note_off_c, 1, 65, 62
3, 131760, Note_on_c, 1, 60, 55
3, 131998, Note_off_c, 1, 60, 55
3, 132000, Note_on_c, 1, 53, 63
3, 132118, Note_off_c, 1, 53, 63
3, 132480, Note_on_c, 1, 53, 56
3, 132480, Note_on_c, 1, 57, 57
3, 132541, Note_off_c, 1, 53, 56
3, 132541, Note_off_c, 1, 57, 57
3, 132960, Note_on_c, 1, 58, 52
3, 132960, Note_on_c, 1, 48, 63
3, 133021, Note_off_c, 1, 58, 52
3, 133021, Note_off_c, 1, 48, 63
3, 133440, Note_on_c, 1, 53, 48
3, 133440, Note_on_c, 1, 57, 56
3, 133501, Note_off_c, 1, 53, 48
3, 133501, Note_off_c, 1, 57, 56
3, 133680, Note_on_c, 1, 70, 60
3, 133918, Note_off_c, 1, 70, 60
3, 133920, Note_on_c, 1, 69, 50
3, 134158, Note_off_c, 1, 69, 50
3, 134640, Note_on_c, 1, 65, 52
3, 134640, Note_on_c, 1, 60, 57
3, 134878, Note_off_c, 1, 65, 52
3, 134880, Note_on_c, 1, 67, 61
3, 135004, Note_off_c, 1, 67, 61
3, 135118, Note_off_c, 1, 60, 57
3, 135600, Note_on_c, 1, 60, 31
3, 135600, Note_on_c, 1, 64, 55
3, 135838, Note_off_c, 1, 60, 31
3, 135838, Note_off_c, 1, 64, 55
3, 135840, Note_on_c, 1, 62, 45
3, 135840, Note_on_c, 1, 65, 65
3, 135964, Note_off_c, 1, 62, 45
3, 135964, Note_off_c, 1, 65, 65
3, 136560, Note_on_c, 1, 53, 50
3, 136560, Note_on_c, 1, 57, 48
3, 136798, Note_off_c, 1, 53, 50
3, 136798, Note_off_c, 1, 57, 48
3, 136800, Note_on_c, 1, 55, 66
3, 136800, Note_on_c, 1, 58, 66
3, 137038, Note_off_c, 1, 55, 66
3, 137038, Note_off_c, 1, 58, 66
3, 137040, Note_on_c, 1, 57, 66
3, 137040, Note_on_c, 1, 60, 77
3, 137278, Note_off_c, 1, 57, 66
3, 137278, Note_off_c, 1, 60, 77
3, 137280, Note_on_c, 1, 58, 68
3, 137758, Note_off_c, 1, 58, 68
3, 138120, Note_on_c, 1, 46, 66
3, 138178, Note_off_c, 1, 46, 66
3, 138240, Note_on_c, 1, 48, 62
3, 138454, Note_off_c, 1, 48, 62
3, 138600, Note_on_c, 1, 55, 65
3, 138658, Note_off_c, 1, 55, 65
3, 138660, Note_on_c, 1, 52, 68
3, 138718, Note_off_c, 1, 52, 68
3, 138720, Note_on_c, 1, 48, 55
3, 138838, Note_off_c, 1, 48, 55
3, 138840, Note_on_c, 1, 62, 65
3, 138840, Note_on_c, 1, 58, 68
3, 138898, Note_off_c, 1, 62, 65
3, 138898, Note_off_c, 1, 58, 68
3, 138960, Note_on_c, 1, 60, 61
3, 138960, Note_on_c, 1, 57, 62
3, 139018, Note_off_c, 1, 60, 61
3, 139018, Note_off_c, 1, 57, 62
3, 139080, Note_on_c, 1, 58, 63
3, 139080, Note_on_c, 1, 55, 63
3, 139138, Note_off_c, 1, 58, 63
3, 139138, Note_off_c, 1, 55, 63
3, 139200, Note_on_c, 1, 57, 66
3, 139200, Note_on_c, 1, 53, 67
3, 139678, Note_off_c, 1, 57, 66
3, 139678, Note_off_c, 1, 53, 67
3, 139920, Note_on_c, 1, 57, 67
3, 140038, Note_off_c, 1, 57, 67
3, 140160, Note_on_c, 1, 58, 63
3, 140278, Note_off_c, 1, 58, 63
3, 140400, Note_on_c, 1, 57, 45
3, 140518, Note_off_c, 1, 57, 45
3, 140640, Note_on_c, 1, 55, 58
3, 140878, Note_off_c, 1, 55, 58
3, 140880, Note_on_c, 1, 48, 67
3, 140998, Note_off_c, 1, 48, 67
3, 141120, Note_on_c, 1, 53, 71
3, 141358, Note_off_c, 1, 53, 71
3, 141360, Note_on_c, 1, 57, 72
3, 141598, Note_off_c, 1, 57, 72
3, 141840, Note_on_c, 1, 57, 62
3, 141958, Note_off_c, 1, 57, 62
3, 142080, Note_on_c, 1, 58, 58
3, 142198, Note_off_c, 1, 58, 58
3, 142320, Note_on_c, 1, 57, 40
3, 142438, Note_off_c, 1, 57, 40
3, 142560, Note_on_c, 1, 55, 53
3, 142798, Note_off_c, 1, 55, 53
3, 142800, Note_on_c, 1, 48, 62
3, 142918, Note_off_c, 1, 48, 62
3, 143040, Note_on_c, 1, 53, 73
3, 143158, Note_off_c, 1, 53, 73
3, 143280, Note_on_c, 1, 65, 77
3, 143398, Note_off_c, 1, 65, 77
3, 143520, Note_on_c, 1, 64, 71
3, 143638, Note_off_c, 1, 64, 71
3, 143760, Note_on_c, 1, 52, 62
3, 143878, Note_off_c, 1, 52, 62
3, 144000, Note_on_c, 1, 50, 74
3, 144118, Note_off_c, 1, 50, 74
3, 144240, Note_on_c, 1, 62, 67
3, 144358, Note_off_c, 1, 62, 67
3, 144480, Note_on_c, 1, 60, 71
3, 144598, Note_off_c, 1, 60, 71
3, 144720, Note_on_c, 1, 48, 57
3, 144838, Note_off_c, 1, 48, 57
3, 144960, Note_on_c, 1, 46, 71
3, 145078, Note_off_c, 1, 46, 71
3, 145200, Note_on_c, 1, 58, 67
3, 145318, Note_off_c, 1, 58, 67
3, 145440, Note_on_c, 1, 57, 74
3, 145558, Note_off_c, 1, 57, 74
3, 145680, Note_on_c, 1, 45, 79
3, 145798, Note_off_c, 1, 45, 79
3, 145920, Note_on_c, 1, 55, 74
3, 145978, Note_off_c, 1, 55, 74
3, 145980, Note_on_c, 1, 59, 58
3, 146038, Note_off_c, 1, 59, 58
3, 146340, Note_on_c, 1, 59, 66
3, 146398, Note_off_c, 1, 59, 66
3, 146400, Note_on_c, 1, 55, 70
3, 146458, Note_off_c, 1, 55, 70
3, 146460, Note_on_c, 1, 59, 65
3, 146518, Note_off_c, 1, 59, 65
3, 146880, Note_on_c, 1, 58, 65
3, 146918, Note_off_c, 1, 58, 65
3, 146920, Note_on_c, 1, 60, 63
3, 146958, Note_off_c, 1, 60, 63
3, 146960, Note_on_c, 1, 62, 53
3, 146998, Note_off_c, 1, 62, 53
3, 147000, Note_on_c, 1, 60, 57
3, 147038, Note_off_c, 1, 60, 57
3, 147040, Note_on_c, 1, 62, 37
3, 147078, Note_off_c, 1, 62, 37
3, 147080, Note_on_c, 1, 60, 45
3, 147118, Note_off_c, 1, 60, 45
3, 147120, Note_on_c, 1, 62, 56
3, 147158, Note_off_c, 1, 62, 56
3, 147160, Note_on_c, 1, 60, 52
3, 147198, Note_off_c, 1, 60, 52
3, 147200, Note_on_c, 1, 62, 43
3, 147238, Note_off_c, 1, 62, 43
3, 147240, Note_on_c, 1, 60, 50
3, 147278, Note_off_c, 1, 60, 50
3, 147280, Note_on_c, 1, 62, 39
3, 147318, Note_off_c, 1, 62, 39
3, 147320, Note_on_c, 1, 60, 52
3, 147358, Note_off_c, 1, 60, 52
3, 147360, Note_on_c, 1, 62, 52
3, 147398, Note_off_c, 1, 62, 52
3, 147400, Note_on_c, 1, 60, 45
3, 147438, Note_off_c, 1, 60, 45
3, 147440, Note_on_c, 1, 62, 56
3, 147478, Note_off_c, 1, 62, 56
3, 147480, Note_on_c, 1, 60, 57
3, 147518, Note_off_c, 1, 60, 57
3, 147520, Note_on_c, 1, 62, 37
3, 147558, Note_off_c, 1, 62, 37
3, 147560, Note_on_c, 1, 60, 62
3, 147598, Note_off_c, 1, 60, 62
3, 147600, Note_on_c, 1, 62, 47
3, 147638, Note_off_c, 1, 62, 47
3, 147640, Note_on_c, 1, 60, 53
3, 147678, Note_off_c, 1, 60, 53
3, 147680, Note_on_c, 1, 62, 51
3, 147718, Note_off_c, 1, 62, 51
3, 147720, Note_on_c, 1, 60, 55
3, 147758, Note_off_c, 1, 60, 55
3, 147760, Note_on_c, 1, 62, 45
3, 147798, Note_off_c, 1, 62, 45
3, 147800, Note_on_c, 1, 60, 60
3, 147838, Note_off_c, 1, 60, 60
3, 147840, Note_on_c, 1, 62, 48
3, 147878, Note_off_c, 1, 62, 48
3, 147880, Note_on_c, 1, 60, 57
3, 147918, Note_off_c, 1, 60, 57
3, 147920, Note_on_c, 1, 62, 48
3, 147958, Note_off_c, 1, 62, 48
3, 147960, Note_on_c, 1, 60, 40
3, 147998, Note_off_c, 1, 60, 40
3, 148000, Note_on_c, 1, 62, 35
3, 148038, Note_off_c, 1, 62, 35
3, 148040, Note_on_c, 1, 60, 51
3, 148078, Note_off_c, 1, 60, 51
3, 148080, Note_on_c, 1, 62, 45
3, 148118, Note_off_c, 1, 62, 45
3, 148120, Note_on_c, 1, 60, 51
3, 148158, Note_off_c, 1, 60, 51
3, 148160, Note_on_c, 1, 62, 38
3, 148198, Note_off_c, 1, 62, 38
3, 148200, Note_on_c, 1, 60, 58
3, 148238, Note_off_c, 1, 60, 58
3, 148240, Note_on_c, 1, 62, 45
3, 148278, Note_off_c, 1, 62, 45
3, 148280, Note_on_c, 1, 60, 45
3, 148318, Note_off_c, 1, 60, 45
3, 148320, Note_on_c, 1, 62, 56
3, 148358, Note_off_c, 1, 62, 56
3, 148360, Note_on_c, 1, 60, 55
3, 148398, Note_off_c, 1, 60, 55
3, 148400, Note_on_c, 1, 62, 48
3, 148438, Note_off_c, 1, 62, 48
3, 148440, Note_on_c, 1, 60, 45
3, 148478, Note_off_c, 1, 60, 45
3, 148480, Note_on_c, 1, 62, 38
3, 148518, Note_off_c, 1, 62, 38
3, 148520, Note_on_c, 1, 60, 45
3, 148558, Note_off_c, 1, 60, 45
3, 148560, Note_on_c, 1, 62, 40
3, 148598, Note_off_c, 1, 62, 40
3, 148600, Note_on_c, 1, 60, 31
3, 148638, Note_off_c, 1, 60, 31
3, 148640, Note_on_c, 1, 62, 37
3, 148678, Note_off_c, 1, 62, 37
3, 148680, Note_on_c, 1, 60, 48
3, 148718, Note_off_c, 1, 60, 48
3, 148720, Note_on_c, 1, 62, 56
3, 148758, Note_off_c, 1, 62, 56
3, 148760, Note_on_c, 1, 60, 55
3, 148798, Note_off_c, 1, 60, 55
3, 148800, Note_on_c, 1, 62, 55
3, 148838, Note_off_c, 1, 62, 55
3, 148840, Note_on_c, 1, 60, 42
3, 148878, Note_off_c, 1, 60, 42
3, 148880, Note_on_c, 1, 62, 44
3, 148918, Note_off_c, 1, 62, 44
3, 148920, Note_on_c, 1, 60, 52
3, 148958, Note_off_c, 1, 60, 52
3, 148960, Note_on_c, 1, 62, 40
3, 148998, Note_off_c, 1, 62, 40
3, 149000, Note_on_c, 1, 60, 38
3, 149038, Note_off_c, 1, 60, 38
3, 149040, Note_on_c, 1, 62, 37
3, 149078, Note_off_c, 1, 62, 37
3, 149080, Note_on_c, 1, 60, 40
3, 149118, Note_off_c, 1, 60, 40
3, 149120, Note_on_c, 1, 62, 41
3, 149158, Note_off_c, 1, 62, 41
3, 149160, Note_on_c, 1, 60, 51
3, 149198, Note_off_c, 1, 60, 51
3, 149200, Note_on_c, 1, 62, 43
3, 149238, Note_off_c, 1, 62, 43
3, 149240, Note_on_c, 1, 60, 43
3, 149278, Note_off_c, 1, 60, 43
3, 149280, Note_on_c, 1, 62, 37
3, 149318, Note_off_c, 1, 62, 37
3, 149320, Note_on_c, 1, 60, 43
3, 149358, Note_off_c, 1, 60, 43
3, 149360, Note_on_c, 1, 62, 30
3, 149398, Note_off_c, 1, 62, 30
3, 149400, Note_on_c, 1, 60, 36
3, 149438, Note_off_c, 1, 60, 36
3, 149440, Note_on_c, 1, 62, 16
3, 149478, Note_off_c, 1, 62, 16
3, 149480, Note_on_c, 1, 60, 37
3, 149518, Note_off_c, 1, 60, 37
3, 149520, Note_on_c, 1, 62, 42
3, 149558, Note_off_c, 1, 62, 42
3, 149560, Note_on_c, 1, 60, 32
3, 149598, Note_off_c, 1, 60, 32
3, 149600, Note_on_c, 1, 62, 48
3, 149638, Note_off_c, 1, 62, 48
3, 149640, Note_on_c, 1, 60, 43
3, 149678, Note_off_c, 1, 60, 43
3, 149680, Note_on_c, 1, 62, 36
3, 149718, Note_off_c, 1, 62, 36
3, 149720, Note_on_c, 1, 60, 46
3, 149758, Note_off_c, 1, 60, 46
3, 149760, Note_on_c, 1, 62, 29
3, 149798, Note_off_c, 1, 62, 29
3, 149800, Note_on_c, 1, 60, 32
3, 149838, Note_off_c, 1, 60, 32
3, 149840, Note_on_c, 1, 62, 37
3, 149878, Note_off_c, 1, 62, 37
3, 149880, Note_on_c, 1, 60, 28
3, 149918, Note_off_c, 1, 60, 28
3, 149920, Note_on_c, 1, 62, 37
3, 149958, Note_off_c, 1, 62, 37
3, 149960, Note_on_c, 1, 60, 36
3, 149998, Note_off_c, 1, 60, 36
3, 150000, Note_on_c, 1, 62, 50
3, 150038, Note_off_c, 1, 62, 50
3, 150040, Note_on_c, 1, 60, 45
3, 150078, Note_off_c, 1, 60, 45
3, 150080, Note_on_c, 1, 62, 57
3, 150118, Note_off_c, 1, 62, 57
3, 150120, Note_on_c, 1, 60, 34
3, 150158, Note_off_c, 1, 60, 34
3, 150160, Note_on_c, 1, 62, 38
3, 150198, Note_off_c, 1, 62, 38
3, 150200, Note_on_c, 1, 60, 25
3, 150238, Note_off_c, 1, 60, 25
3, 150240, Note_on_c, 1, 62, 51
3, 150278, Note_off_c, 1, 62, 51
3, 150280, Note_on_c, 1, 60, 36
3, 150318, Note_off_c, 1, 60, 36
3, 150320, Note_on_c, 1, 62, 51
3, 150358, Note_off_c, 1, 62, 51
3, 150360, Note_on_c, 1, 60, 43
3, 150398, Note_off_c, 1, 60, 43
3, 150400, Note_on_c, 1, 62, 34
3, 150438, Note_off_c, 1, 62, 34
3, 150440, Note_on_c, 1, 60, 51
3, 150478, Note_off_c, 1, 60, 51
3, 150480, Note_on_c, 1, 62, 53
3, 150518, Note_off_c, 1, 62, 53
3, 150520, Note_on_c, 1, 60, 45
3, 150558, Note_off_c, 1, 60, 45
3, 150560, Note_on_c, 1, 62, 43
3, 150598, Note_off_c, 1, 62, 43
3, 150600, Note_on_c, 1, 60, 37
3, 150638, Note_off_c, 1, 60, 37
3, 150640, Note_on_c, 1, 62, 33
3, 150678, Note_off_c, 1, 62, 33
3, 150680, Note_on_c, 1, 60, 50
3, 150718, Note_off_c, 1, 60, 50
3, 150720, Note_on_c, 1, 62, 55
3, 150758, Note_off_c, 1, 62, 55
3, 150760, Note_on_c, 1, 60, 42
3, 150798, Note_off_c, 1, 60, 42
3, 150800, Note_on_c, 1, 62, 44
3, 150838, Note_off_c, 1, 62, 44
3, 150840, Note_on_c, 1, 60, 52
3, 150878, Note_off_c, 1, 60, 52
3, 150880, Note_on_c, 1, 62, 40
3, 150918, Note_off_c, 1, 62, 40
3, 150920, Note_on_c, 1, 60, 38
3, 150958, Note_off_c, 1, 60, 38
3, 150960, Note_on_c, 1, 62, 37
3, 150998, Note_off_c, 1, 62, 37
3, 151000, Note_on_c, 1, 60, 40
3, 151038, Note_off_c, 1, 60, 40
3, 151040, Note_on_c, 1, 62, 41
3, 151078, Note_off_c, 1, 62, 41
3, 151080, Note_on_c, 1, 60, 51
3, 151118, Note_off_c, 1, 60, 51
3, 151120, Note_on_c, 1, 62, 43
3, 151158, Note_off_c, 1, 62, 43
3, 151160, Note_on_c, 1, 60, 43
3, 151198, Note_off_c, 1, 60, 43
3, 151200, Note_on_c, 1, 62, 37
3, 151238, Note_off_c, 1, 62, 37
3, 151240, Note_on_c, 1, 60, 43
3, 151278, Note_off_c, 1, 60, 43
3, 151280, Note_on_c, 1, 62, 30
3, 151318, Note_off_c, 1, 62, 30
3, 151320, Note_on_c, 1, 60, 36
3, 151358, Note_off_c, 1, 60, 36
3, 151360, Note_on_c, 1, 62, 16
3, 151398, Note_off_c, 1, 62, 16
3, 151400, Note_on_c, 1, 60, 37
3, 151438, Note_off_c, 1, 60, 37
3, 151440, Note_on_c, 1, 62, 42
3, 151478, Note_off_c, 1, 62, 42
3, 151480, Note_on_c, 1, 60, 32
3, 151518, Note_off_c, 1, 60, 32
3, 151520, Note_on_c, 1, 62, 48
3, 151558, Note_off_c, 1, 62, 48
3, 151560, Note_on_c, 1, 60, 43
3, 151598, Note_off_c, 1, 60, 43
3, 151600, Note_on_c, 1, 62, 36
3, 151638, Note_off_c, 1, 62, 36
3, 151640, Note_on_c, 1, 60, 46
3, 151678, Note_off_c, 1, 60, 46
3, 151680, Note_on_c, 1, 62, 29
3, 151718, Note_off_c, 1, 62, 29
3, 151720, Note_on_c, 1, 60, 32
3, 151758, Note_off_c, 1, 60, 32
3, 151760, Note_on_c, 1, 62, 37
3, 151798, Note_off_c, 1, 62, 37
3, 151800, Note_on_c, 1, 60, 28
3, 151838, Note_off_c, 1, 60, 28
3, 151840, Note_on_c, 1, 62, 37
3, 151878, Note_off_c, 1, 62, 37
3, 151880, Note_on_c, 1, 60, 36
3, 151918, Note_off_c, 1, 60, 36
3, 151920, Note_on_c, 1, 62, 50
3, 151958, Note_off_c, 1, 62, 50
3, 151960, Note_on_c, 1, 60, 45
3, 151998, Note_off_c, 1, 60, 45
3, 152000, Note_on_c, 1, 62, 57
3, 152038, Note_off_c, 1, 62, 57
3, 152040, Note_on_c, 1, 60, 34
3, 152078, Note_off_c, 1, 60, 34
3, 152080, Note_on_c, 1, 62, 38
3, 152118, Note_off_c, 1, 62, 38
3, 152120, Note_on_c, 1, 60, 25
3, 152158, Note_off_c, 1, 60, 25
3, 152160, Note_on_c, 1, 62, 51
3, 152198, Note_off_c, 1, 62, 51
3, 152200, Note_on_c, 1, 60, 36
3, 152238, Note_off_c, 1, 60, 36
3, 152240, Note_on_c, 1, 62, 51
3, 152278, Note_off_c, 1, 62, 51
3, 152280, Note_on_c, 1, 60, 43
3, 152318, Note_off_c, 1, 60, 43
3, 152320, Note_on_c, 1, 62, 34
3, 152358, Note_off_c, 1, 62, 34
3, 152360, Note_on_c, 1, 60, 51
3, 152398, Note_off_c, 1, 60, 51
3, 152400, Note_on_c, 1, 62, 53
3, 152438, Note_off_c, 1, 62, 53
3, 152440, Note_on_c, 1, 60, 45
3, 152478, Note_off_c, 1, 60, 45
3, 152480, Note_on_c, 1, 62, 43
3, 152518, Note_off_c, 1, 62, 43
3, 152520, Note_on_c, 1, 60, 37
3, 152558, Note_off_c, 1, 60, 37
3, 152560, Note_on_c, 1, 62, 33
3, 152598, Note_off_c, 1, 62, 33
3, 152600, Note_on_c, 1, 60, 50
3, 152638, Note_off_c, 1, 60, 50
3, 152640, Note_on_c, 1, 65, 74
3, 152878, Note_off_c, 1, 65, 74
3, 152880, Note_on_c, 1, 67, 74
3, 153118, Note_off_c, 1, 67, 74
3, 153120, Note_on_c, 1, 69, 74
3, 153358, Note_off_c, 1, 69, 74
3, 153360, Note_on_c, 1, 57, 67
3, 153598, Note_off_c, 1, 57, 67
3, 153600, Note_on_c, 1, 58, 61
3, 153838, Note_off_c, 1, 58, 61
3, 153840, Note_on_c, 1, 60, 68
3, 154078, Note_off_c, 1, 60, 68
3, 154080, Note_on_c, 1, 62, 50
3, 154318, Note_off_c, 1, 62, 50
3, 154440, Note_on_c, 1, 45, 65
3, 154558, Note_off_c, 1, 45, 65
3, 154560, Note_on_c, 1, 46, 73
3, 154918, Note_off_c, 1, 46, 73
3, 154920, Note_on_c, 1, 47, 65
3, 155038, Note_off_c, 1, 47, 65
3, 155040, Note_on_c, 1, 48, 71
3, 155278, Note_off_c, 1, 48, 71
3, 155280, Note_on_c, 1, 52, 66
3, 155518, Note_off_c, 1, 52, 66
3, 155520, Note_on_c, 1, 53, 72
3, 155520, Note_on_c, 1, 41, 74
3, 155998, Note_off_c, 1, 53, 72
3, 155998, Note_off_c, 1, 41, 74
3, 156000, Note_on_c, 1, 57, 73
3, 156118, Note_off_c, 1, 57, 73
3, 156240, Note_on_c, 1, 58, 68
3, 156358, Note_off_c, 1, 58, 68
3, 156480, Note_on_c, 1, 57, 66
3, 156718, Note_off_c, 1, 57, 66
3, 156960, Note_on_c, 1, 57, 74
3, 157078, Note_off_c, 1, 57, 74
3, 157200, Note_on_c, 1, 58, 63
3, 157318, Note_off_c, 1, 58, 63
3, 157440, Note_on_c, 1, 57, 62
3, 157678, Note_off_c, 1, 57, 62
3, 157920, Note_on_c, 1, 57, 65
3, 158038, Note_off_c, 1, 57, 65
3, 158160, Note_on_c, 1, 58, 61
3, 158278, Note_off_c, 1, 58, 61
3, 158400, Note_on_c, 1, 57, 57
3, 158638, Note_off_c, 1, 57, 57
3, 158880, Note_on_c, 1, 57, 65
3, 158998, Note_off_c, 1, 57, 65
3, 159120, Note_on_c, 1, 58, 62
3, 159238, Note_off_c, 1, 58, 62
3, 159360, Note_on_c, 1, 57, 70
3, 159838, Note_off_c, 1, 57, 70
3, 159840, Note_on_c, 1, 60, 52
3, 159840, Note_on_c, 1, 56, 56
3, 160318, Note_off_c, 1, 60, 52
3, 160318, Note_off_c, 1, 56, 56
3, 160320, Note_on_c, 1, 55, 62
3, 160320, Note_on_c, 1, 62, 61
3, 160798, Note_off_c, 1, 55, 62
3, 160798, Note_off_c, 1, 62, 61
3, 160800, Note_on_c, 1, 52, 74
3, 160800, Note_on_c, 1, 60, 66
3, 161278, Note_off_c, 1, 52, 74
3, 161278, Note_off_c, 1, 60, 66
3, 161280, Note_on_c, 1, 53, 70
3, 161280, Note_on_c, 1, 60, 66
3, 161758, Note_off_c, 1, 53, 70
3, 161758, Note_off_c, 1, 60, 66
3, 162000, Note_on_c, 1, 53, 67
3, 162000, Note_on_c, 1, 45, 57
3, 162238, Note_off_c, 1, 45, 57
3, 162240, Note_on_c, 1, 46, 58
3, 162478, Note_off_c, 1, 53, 67
3, 162480, Note_on_c, 1, 58, 60
3, 162718, Note_off_c, 1, 46, 58
3, 162718, Note_off_c, 1, 58, 60
3, 162720, Note_on_c, 1, 57, 61
3, 162720, Note_on_c, 1, 48, 58
3, 162958, Note_off_c, 1, 57, 61
3, 162960, Note_on_c, 1, 55, 66
3, 163198, Note_off_c, 1, 48, 58
3, 163198, Note_off_c, 1, 55, 66
3, 163200, Note_on_c, 1, 57, 47
3, 163200, Note_on_c, 1, 53, 66
3, 163678, Note_off_c, 1, 57, 47
3, 163678, Note_off_c, 1, 53, 66
3, 163920, Note_on_c, 1, 53, 60
3, 163920, Note_on_c, 1, 45, 56
3, 164158, Note_off_c, 1, 45, 56
3, 164160, Note_on_c, 1, 46, 60
3, 164398, Note_off_c, 1, 53, 60
3, 164400, Note_on_c, 1, 58, 56
3, 164638, Note_off_c, 1, 46, 60
3, 164638, Note_off_c, 1, 58, 56
3, 164640, Note_on_c, 1, 57, 65
3, 164640, Note_on_c, 1, 48, 52
3, 164878, Note_off_c, 1, 57, 65
3, 164880, Note_on_c, 1, 55, 62
3, 165118, Note_off_c, 1, 48, 52
3, 165118, Note_off_c, 1, 55, 62
3, 165120, Note_on_c, 1, 41, 72
3, 165178, Note_off_c, 1, 41, 72
3, 165180, Note_on_c, 1, 53, 67
3, 165238, Note_off_c, 1, 53, 67
3, 165240, Note_on_c, 1, 52, 65
3, 165298, Note_off_c, 1, 52, 65
3, 165300, Note_on_c, 1, 53, 46
3, 165358, Note_off_c, 1, 53, 46
3, 165360, Note_on_c, 1, 41, 72
3, 165418, Note_off_c, 1, 41, 72
3, 165420, Note_on_c, 1, 53, 55
3, 165478, Note_off_c, 1, 53, 55
3, 165480, Note_on_c, 1, 52, 43
3, 165538, Note_off_c, 1, 52, 43
3, 165540, Note_on_c, 1, 53, 48
3, 165598, Note_off_c, 1, 53, 48
3, 165600, Note_on_c, 1, 41, 72
3, 165658, Note_off_c, 1, 41, 72
3, 165660, Note_on_c, 1, 53, 57
3, 165718, Note_off_c, 1, 53, 57
3, 165720, Note_on_c, 1, 52, 58
3, 165778, Note_off_c, 1, 52, 58
3, 165780, Note_on_c, 1, 53, 60
3, 165838, Note_off_c, 1, 53, 60
3, 165840, Note_on_c, 1, 41, 74
3, 165898, Note_off_c, 1, 41, 74
3, 165900, Note_on_c, 1, 53, 65
3, 165958, Note_off_c, 1, 53, 65
3, 165960, Note_on_c, 1, 52, 43
3, 166018, Note_off_c, 1, 52, 43
3, 166020, Note_on_c, 1, 53, 51
3, 166078, Note_off_c, 1, 53, 51
3, 166080, Note_on_c, 1, 41, 72
3, 166138, Note_off_c, 1, 41, 72
3, 166140, Note_on_c, 1, 53, 63
3, 166198, Note_off_c, 1, 53, 63
3, 166200, Note_on_c, 1, 52, 56
3, 166258, Note_off_c, 1, 52, 56
3, 166260, Note_on_c, 1, 53, 55
3, 166318, Note_off_c, 1, 53, 55
3, 166320, Note_on_c, 1, 41, 89
3, 166378, Note_off_c, 1, 41, 89
3, 166380, Note_on_c, 1, 53, 68
3, 166438, Note_off_c, 1, 53, 68
3, 166440, Note_on_c, 1, 52, 66
3, 166498, Note_off_c, 1, 52, 66
3, 166500, Note_on_c, 1, 53, 76
3, 166558, Note_off_c, 1, 53, 76
3, 166560, Note_on_c, 1, 41, 77
3, 166618, Note_off_c, 1, 41, 77
3, 166620, Note_on_c, 1, 53, 68
3, 166678, Note_off_c, 1, 53, 68
3, 166680, Note_on_c, 1, 52, 70
3, 166738, Note_off_c, 1, 52, 70
3, 166740, Note_on_c, 1, 53, 71
3, 166798, Note_off_c, 1, 53, 71
3, 166800, Note_on_c, 1, 41, 89
3, 166858, Note_off_c, 1, 41, 89
3, 166860, Note_on_c, 1, 53, 71
3, 166918, Note_off_c, 1, 53, 71
3, 166920, Note_on_c, 1, 52, 70
3, 166978, Note_off_c, 1, 52, 70
3, 166980, Note_on_c, 1, 53, 72
3, 167038, Note_off_c, 1, 53, 72
3, 167040, Note_on_c, 1, 41, 83
3, 167518, Note_off_c, 1, 41, 83
3, 168000, End_track
0, 0, End_of_file
