0, 0, Header, 1, 3, 480
1, 0, Start_track
1, 0, Title_t, "nameless"
1, 0, Time_signature, 6, 3, 24, 4
1, 0, Tempo, 1875000
1, 5781, Tempo, 1875000
1, 5971, Tempo, 2068966
1, 6273, Tempo, 2400000
1, 6386, Tempo, 2500000
1, 6952, Tempo, 1875000
1, 28821, Tempo, 1875000
1, 29011, Tempo, 2068966
1, 29313, Tempo, 2400000
1, 29426, Tempo, 2500000
1, 29992, Tempo, 1875000
1, 55492, Tempo, 1875000
1, 55790, Tempo, 2068966
1, 56268, Tempo, 2400000
1, 56746, Tempo, 2857143
1, 57222, Tempo, 3529412
1, 57600, End_track
2, 0, Start_track
2, 0, MIDI_port, 0
2, 0, Channel_prefix, 0
2, 0, Title_t, "Piano R.H."
2, 0, Key_signature, -4, "major"
2, 0, Control_c, 0, 0, 0
2, 5, Program_c, 0, 0
2, 10, Control_c, 0, 7, 127
2, 15, Control_c, 0, 10, 64
2, 20, Control_c, 0, 91, 74
2, 25, Control_c, 0, 93, 0
2, 30, Control_c, 0, 94, 0
2, 35, Control_c, 0, 5, 0
2, 40, Control_c, 0, 11, 127
2, 960, Control_c, 0, 101, 0
2, 965, Control_c, 0, 100, 0
2, 970, Control_c, 0, 6, 2
2, 975, Control_c, 0, 101, 127
2, 980, Control_c, 0, 100, 127
2, 1440, Note_on_c, 0, 72, 67
2, 1617, Note_on_c, 0, 73, 53
2, 1624, Note_off_c, 0, 72, 67
2, 1641, Note_on_c, 0, 72, 58
2, 1655, Note_off_c, 0, 73, 53
2, 1660, Note_on_c, 0, 71, 58
2, 1663, Note_off_c, 0, 72, 58
2, 1692, Note_on_c, 0, 72, 69
2, 1695, Note_off_c, 0, 71, 58
2, 1820, Note_on_c, 0, 73, 63
2, 1827, Note_off_c, 0, 72, 69
2, 1928, Note_off_c, 0, 73, 63
2, 1929, Note_on_c, 0, 72, 63
2, 2160, Note_off_c, 0, 72, 63
2, 2160, Note_on_c, 0, 77, 55
2, 2198, Note_on_c, 0, 79, 55
2, 2207, Note_off_c, 0, 77, 55
2, 2248, Note_on_c, 0, 80, 45
2, 2255, Note_off_c, 0, 79, 55
2, 2478, Note_off_c, 0, 80, 45
2, 2874, Note_on_c, 0, 72, 62
2, 3041, Note_on_c, 0, 73, 48
2, 3048, Note_off_c, 0, 72, 62
2, 3062, Note_on_c, 0, 72, 52
2, 3079, Note_off_c, 0, 73, 48
2, 3083, Note_on_c, 0, 71, 55
2, 3086, Note_off_c, 0, 72, 52
2, 3115, Note_on_c, 0, 72, 64
2, 3118, Note_off_c, 0, 71, 55
2, 3244, Note_on_c, 0, 73, 62
2, 3248, Note_off_c, 0, 72, 64
2, 3358, Note_on_c, 0, 72, 66
2, 3370, Note_off_c, 0, 73, 62
2, 3598, Note_on_c, 0, 79, 61
2, 3604, Note_off_c, 0, 72, 66
2, 3643, Note_on_c, 0, 80, 63
2, 3649, Note_off_c, 0, 79, 61
2, 3691, Note_on_c, 0, 82, 46
2, 3695, Note_off_c, 0, 80, 63
2, 3993, Note_off_c, 0, 82, 46
2, 4328, Note_on_c, 0, 72, 66
2, 4512, Note_on_c, 0, 73, 61
2, 4517, Note_off_c, 0, 72, 66
2, 4532, Note_on_c, 0, 72, 46
2, 4540, Note_off_c, 0, 73, 61
2, 4553, Note_off_c, 0, 72, 46
2, 4554, Note_on_c, 0, 71, 64
2, 4578, Note_on_c, 0, 72, 60
2, 4585, Note_off_c, 0, 71, 64
2, 4705, Note_on_c, 0, 73, 68
2, 4718, Note_off_c, 0, 72, 60
2, 4792, Note_off_c, 0, 73, 68
2, 4798, Note_on_c, 0, 72, 76
2, 5041, Note_on_c, 0, 77, 62
2, 5065, Note_off_c, 0, 72, 76
2, 5097, Note_on_c, 0, 79, 67
2, 5105, Note_off_c, 0, 77, 62
2, 5163, Note_on_c, 0, 80, 67
2, 5165, Note_off_c, 0, 79, 67
2, 5294, Note_off_c, 0, 80, 67
2, 5520, Note_on_c, 0, 68, 46
2, 5598, Note_off_c, 0, 68, 46
2, 5600, Note_on_c, 0, 71, 61
2, 5678, Note_off_c, 0, 71, 61
2, 5680, Note_on_c, 0, 77, 50
2, 5758, Note_off_c, 0, 77, 50
2, 5760, Note_on_c, 0, 77, 50
2, 6000, Note_off_c, 0, 77, 50
2, 6000, Note_on_c, 0, 76, 17
2, 6078, Note_off_c, 0, 76, 17
2, 6080, Note_on_c, 0, 79, 34
2, 6158, Note_off_c, 0, 79, 34
2, 6160, Note_on_c, 0, 71, 55
2, 6238, Note_off_c, 0, 71, 55
2, 6240, Note_on_c, 0, 72, 55
2, 6318, Note_off_c, 0, 72, 55
2, 6320, Note_on_c, 0, 76, 46
2, 6398, Note_off_c, 0, 76, 46
2, 6400, Note_on_c, 0, 67, 38
2, 6478, Note_off_c, 0, 67, 38
2, 7200, Note_on_c, 0, 75, 55
2, 7238, Note_off_c, 0, 75, 55
2, 7240, Note_on_c, 0, 74, 58
2, 7278, Note_off_c, 0, 74, 58
2, 7280, Note_on_c, 0, 75, 50
2, 7678, Note_off_c, 0, 75, 50
2, 7760, Note_on_c, 0, 80, 75
2, 7838, Note_off_c, 0, 80, 75
2, 7840, Note_on_c, 0, 75, 54
2, 7918, Note_off_c, 0, 75, 54
2, 7920, Note_on_c, 0, 75, 65
2, 7998, Note_off_c, 0, 75, 65
2, 8000, Note_on_c, 0, 73, 67
2, 8078, Note_off_c, 0, 73, 67
2, 8080, Note_on_c, 0, 72, 67
2, 8158, Note_off_c, 0, 72, 67
2, 8160, Note_on_c, 0, 70, 58
2, 8398, Note_off_c, 0, 70, 58
2, 8480, Note_on_c, 0, 82, 78
2, 8558, Note_off_c, 0, 82, 78
2, 8560, Note_on_c, 0, 73, 54
2, 8638, Note_off_c, 0, 73, 54
2, 8640, Note_on_c, 0, 73, 67
2, 8718, Note_off_c, 0, 73, 67
2, 8720, Note_on_c, 0, 72, 57
2, 8798, Note_off_c, 0, 72, 57
2, 8800, Note_on_c, 0, 70, 54
2, 8878, Note_off_c, 0, 70, 54
2, 8880, Note_on_c, 0, 68, 46
2, 9038, Note_off_c, 0, 68, 46
2, 9200, Note_on_c, 0, 80, 76
2, 9278, Note_off_c, 0, 80, 76
2, 9280, Note_on_c, 0, 75, 39
2, 9358, Note_off_c, 0, 75, 39
2, 9360, Note_on_c, 0, 75, 67
2, 9438, Note_off_c, 0, 75, 67
2, 9440, Note_on_c, 0, 73, 38
2, 9518, Note_off_c, 0, 73, 38
2, 9520, Note_on_c, 0, 72, 58
2, 9598, Note_off_c, 0, 72, 58
2, 9600, Note_on_c, 0, 70, 54
2, 9758, Note_off_c, 0, 70, 54
2, 9920, Note_on_c, 0, 82, 68
2, 9998, Note_off_c, 0, 82, 68
2, 10000, Note_on_c, 0, 73, 58
2, 10078, Note_off_c, 0, 73, 58
2, 10083, Note_on_c, 0, 72, 55
2, 10101, Control_c, 0, 64, 127
2, 10163, Note_on_c, 0, 77, 64
2, 10173, Note_off_c, 0, 72, 55
2, 10235, Note_on_c, 0, 75, 57
2, 10253, Note_off_c, 0, 77, 64
2, 10294, Note_off_c, 0, 75, 57
2, 10316, Note_on_c, 0, 75, 55
2, 10362, Note_off_c, 0, 75, 55
2, 10366, Note_on_c, 0, 77, 56
2, 10389, Note_on_c, 0, 75, 55
2, 10392, Note_off_c, 0, 77, 56
2, 10419, Note_off_c, 0, 75, 55
2, 10423, Note_on_c, 0, 77, 58
2, 10438, Note_on_c, 0, 75, 56
2, 10445, Note_off_c, 0, 77, 58
2, 10463, Note_off_c, 0, 75, 56
2, 10469, Note_on_c, 0, 77, 63
2, 10487, Note_on_c, 0, 75, 60
2, 10492, Note_off_c, 0, 77, 63
2, 10514, Note_off_c, 0, 75, 60
2, 10515, Note_on_c, 0, 77, 69
2, 10537, Note_on_c, 0, 75, 53
2, 10540, Note_off_c, 0, 77, 69
2, 10560, Note_on_c, 0, 77, 67
2, 10562, Note_off_c, 0, 75, 53
2, 10580, Note_on_c, 0, 75, 62
2, 10580, Note_off_c, 0, 77, 67
2, 10605, Note_on_c, 0, 77, 71
2, 10606, Note_off_c, 0, 75, 62
2, 10631, Note_on_c, 0, 75, 68
2, 10642, Note_off_c, 0, 77, 71
2, 10671, Note_on_c, 0, 74, 61
2, 10671, Note_off_c, 0, 75, 68
2, 10714, Note_on_c, 0, 75, 79
2, 10722, Note_off_c, 0, 74, 61
2, 10769, Control_c, 0, 64, 0
2, 10785, Note_off_c, 0, 75, 79
2, 10793, Note_on_c, 0, 80, 52
2, 10844, Control_c, 0, 64, 127
2, 10885, Note_off_c, 0, 80, 52
2, 10886, Note_on_c, 0, 72, 61
2, 10961, Note_on_c, 0, 75, 67
2, 10971, Note_off_c, 0, 72, 61
2, 11011, Note_off_c, 0, 75, 67
2, 11029, Note_on_c, 0, 75, 71
2, 11085, Note_off_c, 0, 75, 71
2, 11085, Note_on_c, 0, 77, 66
2, 11115, Note_on_c, 0, 75, 57
2, 11117, Note_off_c, 0, 77, 66
2, 11145, Note_off_c, 0, 75, 57
2, 11147, Note_on_c, 0, 77, 67
2, 11169, Note_on_c, 0, 75, 55
2, 11175, Note_off_c, 0, 77, 67
2, 11197, Note_on_c, 0, 77, 66
2, 11197, Note_off_c, 0, 75, 55
2, 11220, Note_on_c, 0, 75, 58
2, 11224, Note_off_c, 0, 77, 66
2, 11242, Note_off_c, 0, 75, 58
2, 11242, Note_on_c, 0, 77, 71
2, 11264, Note_on_c, 0, 75, 64
2, 11269, Note_off_c, 0, 77, 71
2, 11282, Note_off_c, 0, 75, 64
2, 11286, Note_on_c, 0, 77, 28
2, 11303, Note_on_c, 0, 75, 58
2, 11311, Note_off_c, 0, 77, 28
2, 11323, Note_on_c, 0, 77, 62
2, 11324, Note_off_c, 0, 75, 58
2, 11342, Note_on_c, 0, 75, 61
2, 11348, Note_off_c, 0, 77, 62
2, 11368, Note_on_c, 0, 77, 69
2, 11368, Note_off_c, 0, 75, 61
2, 11390, Note_on_c, 0, 75, 62
2, 11397, Note_off_c, 0, 77, 69
2, 11419, Note_off_c, 0, 75, 62
2, 11422, Note_on_c, 0, 74, 67
2, 11466, Note_on_c, 0, 75, 76
2, 11478, Note_off_c, 0, 74, 67
2, 11499, Control_c, 0, 64, 0
2, 11526, Note_off_c, 0, 75, 76
2, 11529, Note_on_c, 0, 80, 66
2, 11541, Control_c, 0, 64, 127
2, 11609, Note_off_c, 0, 80, 66
2, 11610, Note_on_c, 0, 72, 66
2, 11687, Note_on_c, 0, 73, 58
2, 11692, Note_off_c, 0, 72, 66
2, 11746, Note_off_c, 0, 73, 58
2, 11761, Note_on_c, 0, 73, 58
2, 11819, Note_off_c, 0, 73, 58
2, 11819, Note_on_c, 0, 75, 66
2, 11846, Note_on_c, 0, 73, 42
2, 11849, Note_off_c, 0, 75, 66
2, 11870, Note_on_c, 0, 75, 63
2, 11872, Note_off_c, 0, 73, 42
2, 11893, Note_on_c, 0, 73, 58
2, 11899, Note_off_c, 0, 75, 63
2, 11916, Note_off_c, 0, 73, 58
2, 11920, Note_on_c, 0, 75, 50
2, 11941, Note_on_c, 0, 73, 33
2, 11952, Note_off_c, 0, 73, 33
2, 11975, Note_on_c, 0, 73, 55
2, 11981, Note_off_c, 0, 75, 50
2, 11997, Note_off_c, 0, 73, 55
2, 11998, Note_on_c, 0, 75, 61
2, 12023, Note_off_c, 0, 75, 61
2, 12024, Note_on_c, 0, 73, 48
2, 12045, Note_on_c, 0, 75, 63
2, 12050, Note_off_c, 0, 73, 48
2, 12067, Note_off_c, 0, 75, 63
2, 12082, Note_on_c, 0, 75, 56
2, 12108, Note_on_c, 0, 73, 62
2, 12123, Note_off_c, 0, 75, 56
2, 12136, Note_off_c, 0, 73, 62
2, 12136, Note_on_c, 0, 72, 63
2, 12173, Note_on_c, 0, 73, 69
2, 12185, Note_off_c, 0, 72, 63
2, 12209, Control_c, 0, 64, 0
2, 12226, Note_off_c, 0, 73, 69
2, 12239, Note_on_c, 0, 80, 64
2, 12284, Control_c, 0, 64, 127
2, 12320, Note_off_c, 0, 80, 64
2, 12325, Note_on_c, 0, 72, 84
2, 12396, Note_off_c, 0, 72, 84
2, 12400, Note_on_c, 0, 73, 84
2, 12457, Note_off_c, 0, 73, 84
2, 12482, Note_on_c, 0, 73, 66
2, 12524, Note_on_c, 0, 75, 56
2, 12527, Note_off_c, 0, 73, 66
2, 12551, Note_on_c, 0, 73, 55
2, 12552, Note_off_c, 0, 75, 56
2, 12573, Note_on_c, 0, 75, 62
2, 12575, Note_off_c, 0, 73, 55
2, 12598, Note_on_c, 0, 73, 58
2, 12603, Note_off_c, 0, 75, 62
2, 12620, Note_on_c, 0, 75, 60
2, 12621, Note_off_c, 0, 73, 58
2, 12641, Note_on_c, 0, 73, 58
2, 12641, Note_off_c, 0, 75, 60
2, 12662, Note_off_c, 0, 73, 58
2, 12664, Note_on_c, 0, 75, 67
2, 12688, Note_off_c, 0, 75, 67
2, 12689, Note_on_c, 0, 73, 51
2, 12711, Note_on_c, 0, 75, 67
2, 12712, Note_off_c, 0, 73, 51
2, 12732, Note_off_c, 0, 75, 67
2, 12738, Note_on_c, 0, 73, 53
2, 12759, Note_on_c, 0, 75, 64
2, 12763, Note_off_c, 0, 73, 53
2, 12779, Note_off_c, 0, 75, 64
2, 12790, Note_on_c, 0, 75, 64
2, 12818, Note_on_c, 0, 73, 67
2, 12829, Note_off_c, 0, 75, 64
2, 12846, Note_off_c, 0, 73, 67
2, 12847, Note_on_c, 0, 72, 64
2, 12887, Note_on_c, 0, 73, 68
2, 12891, Note_off_c, 0, 72, 64
2, 12939, Control_c, 0, 64, 0
2, 12952, Note_off_c, 0, 73, 68
2, 12954, Note_on_c, 0, 73, 87
2, 12981, Control_c, 0, 64, 127
2, 13052, Note_off_c, 0, 73, 87
2, 13052, Note_on_c, 0, 67, 63
2, 13120, Note_on_c, 0, 79, 67
2, 13141, Note_off_c, 0, 67, 63
2, 13198, Note_off_c, 0, 79, 67
2, 13200, Note_on_c, 0, 73, 67
2, 13278, Note_off_c, 0, 73, 67
2, 13280, Note_on_c, 0, 82, 73
2, 13358, Note_off_c, 0, 82, 73
2, 13360, Note_on_c, 0, 79, 66
2, 13438, Note_off_c, 0, 79, 66
2, 13440, Note_on_c, 0, 85, 71
2, 13649, Control_c, 0, 64, 0
2, 13758, Note_off_c, 0, 85, 71
2, 13760, Note_on_c, 0, 84, 51
2, 13838, Note_off_c, 0, 84, 51
2, 13840, Note_on_c, 0, 82, 56
2, 13918, Note_off_c, 0, 82, 56
2, 13920, Note_on_c, 0, 80, 53
2, 13998, Note_off_c, 0, 80, 53
2, 14000, Note_on_c, 0, 79, 57
2, 14078, Note_off_c, 0, 79, 57
2, 14080, Note_on_c, 0, 77, 52
2, 14158, Note_off_c, 0, 77, 52
2, 14160, Note_on_c, 0, 75, 57
2, 14238, Note_off_c, 0, 75, 57
2, 14240, Note_on_c, 0, 82, 66
2, 14318, Note_off_c, 0, 82, 66
2, 14320, Note_on_c, 0, 73, 50
2, 14398, Note_off_c, 0, 73, 50
2, 14400, Note_on_c, 0, 72, 64
2, 14421, Control_c, 0, 64, 127
2, 14478, Note_off_c, 0, 72, 64
2, 14480, Note_on_c, 0, 84, 67
2, 14558, Note_off_c, 0, 84, 67
2, 14560, Note_on_c, 0, 75, 60
2, 14638, Note_off_c, 0, 75, 60
2, 14640, Note_on_c, 0, 80, 68
2, 14718, Note_off_c, 0, 80, 68
2, 14720, Note_on_c, 0, 72, 66
2, 14798, Note_off_c, 0, 72, 66
2, 14800, Note_on_c, 0, 75, 57
2, 14878, Note_off_c, 0, 75, 57
2, 14880, Note_on_c, 0, 68, 64
2, 14958, Note_off_c, 0, 68, 64
2, 14960, Note_on_c, 0, 72, 67
2, 15038, Note_off_c, 0, 72, 67
2, 15040, Note_on_c, 0, 63, 48
2, 15089, Control_c, 0, 64, 0
2, 15118, Note_off_c, 0, 63, 48
2, 15120, Note_on_c, 0, 68, 67
2, 15198, Note_off_c, 0, 68, 67
2, 15200, Note_on_c, 0, 60, 53
2, 15278, Note_off_c, 0, 60, 53
2, 15280, Note_on_c, 0, 63, 55
2, 15358, Note_off_c, 0, 63, 55
2, 15360, Note_on_c, 0, 56, 64
2, 15438, Note_off_c, 0, 56, 64
2, 15440, Note_on_c, 0, 60, 63
2, 15518, Note_off_c, 0, 60, 63
2, 15520, Note_on_c, 0, 63, 63
2, 15598, Note_off_c, 0, 63, 63
2, 15600, Note_on_c, 0, 54, 71
2, 15678, Note_off_c, 0, 54, 71
2, 15680, Note_on_c, 0, 63, 60
2, 15758, Note_off_c, 0, 63, 60
2, 15760, Note_on_c, 0, 54, 51
2, 15838, Note_off_c, 0, 54, 51
2, 15840, Note_on_c, 0, 53, 48
2, 15861, Control_c, 0, 64, 127
2, 15918, Note_off_c, 0, 53, 48
2, 15920, Note_on_c, 0, 61, 56
2, 15998, Note_off_c, 0, 61, 56
2, 16000, Note_on_c, 0, 56, 58
2, 16078, Note_off_c, 0, 56, 58
2, 16080, Note_on_c, 0, 65, 61
2, 16158, Note_off_c, 0, 65, 61
2, 16160, Note_on_c, 0, 61, 51
2, 16238, Note_off_c, 0, 61, 51
2, 16240, Note_on_c, 0, 68, 68
2, 16318, Note_off_c, 0, 68, 68
2, 16320, Note_on_c, 0, 65, 62
2, 16398, Note_off_c, 0, 65, 62
2, 16400, Note_on_c, 0, 73, 63
2, 16478, Note_off_c, 0, 73, 63
2, 16480, Note_on_c, 0, 68, 60
2, 16529, Control_c, 0, 64, 0
2, 16558, Note_off_c, 0, 68, 60
2, 16560, Note_on_c, 0, 77, 76
2, 16878, Note_off_c, 0, 77, 76
2, 16880, Note_on_c, 0, 76, 57
2, 16958, Note_off_c, 0, 76, 57
2, 16960, Note_on_c, 0, 77, 64
2, 17038, Note_off_c, 0, 77, 64
2, 17040, Note_on_c, 0, 80, 64
2, 17118, Note_off_c, 0, 80, 64
2, 17120, Note_on_c, 0, 72, 69
2, 17198, Note_off_c, 0, 72, 69
2, 17200, Note_on_c, 0, 73, 57
2, 17278, Note_off_c, 0, 73, 57
2, 17280, Note_on_c, 0, 77, 58
2, 17358, Note_off_c, 0, 77, 58
2, 17360, Note_on_c, 0, 65, 60
2, 17438, Note_off_c, 0, 65, 60
2, 17440, Note_on_c, 0, 77, 63
2, 17518, Note_off_c, 0, 77, 63
2, 17520, Note_on_c, 0, 76, 63
2, 17598, Note_off_c, 0, 76, 63
2, 17600, Note_on_c, 0, 75, 50
2, 17678, Note_off_c, 0, 75, 50
2, 17680, Note_on_c, 0, 74, 43
2, 17758, Note_off_c, 0, 74, 43
2, 17760, Note_on_c, 0, 73, 55
2, 17838, Note_off_c, 0, 73, 55
2, 17840, Note_on_c, 0, 72, 55
2, 17918, Note_off_c, 0, 72, 55
2, 17920, Note_on_c, 0, 70, 45
2, 17998, Note_off_c, 0, 70, 45
2, 18000, Note_on_c, 0, 68, 46
2, 18478, Note_off_c, 0, 68, 46
2, 18480, Note_on_c, 0, 72, 55
2, 18558, Note_off_c, 0, 72, 55
2, 18560, Note_on_c, 0, 70, 62
2, 18638, Note_off_c, 0, 70, 62
2, 18640, Note_on_c, 0, 68, 47
2, 18718, Note_off_c, 0, 68, 47
2, 18720, Note_on_c, 0, 75, 57
2, 18958, Note_off_c, 0, 75, 57
2, 19433, Note_on_c, 0, 74, 71
2, 19611, Note_off_c, 0, 74, 71
2, 19612, Note_on_c, 0, 75, 47
2, 19630, Note_on_c, 0, 74, 64
2, 19652, Note_off_c, 0, 75, 47
2, 19655, Note_off_c, 0, 74, 64
2, 19656, Note_on_c, 0, 72, 63
2, 19689, Note_off_c, 0, 72, 63
2, 19690, Note_on_c, 0, 74, 79
2, 19811, Note_on_c, 0, 75, 66
2, 19818, Note_off_c, 0, 74, 79
2, 19923, Note_on_c, 0, 77, 68
2, 19930, Note_off_c, 0, 75, 66
2, 20010, Note_on_c, 0, 75, 67
2, 20012, Note_off_c, 0, 77, 68
2, 20087, Note_on_c, 0, 74, 79
2, 20097, Note_off_c, 0, 75, 67
2, 20154, Note_off_c, 0, 74, 79
2, 20160, Note_on_c, 0, 84, 62
2, 20238, Note_off_c, 0, 84, 62
2, 20240, Note_on_c, 0, 84, 55
2, 20318, Note_off_c, 0, 84, 55
2, 20320, Note_on_c, 0, 82, 52
2, 20398, Note_off_c, 0, 82, 52
2, 20400, Note_on_c, 0, 80, 57
2, 20478, Note_off_c, 0, 80, 57
2, 20480, Note_on_c, 0, 79, 64
2, 20558, Note_off_c, 0, 79, 64
2, 20560, Note_on_c, 0, 77, 62
2, 20638, Note_off_c, 0, 77, 62
2, 20640, Note_on_c, 0, 75, 42
2, 20718, Note_off_c, 0, 75, 42
2, 20720, Note_on_c, 0, 74, 56
2, 20798, Note_off_c, 0, 74, 56
2, 20800, Note_on_c, 0, 77, 61
2, 20878, Note_off_c, 0, 77, 61
2, 20880, Note_on_c, 0, 75, 61
2, 21438, Note_off_c, 0, 75, 61
2, 21440, Note_on_c, 0, 77, 31
2, 21518, Note_off_c, 0, 77, 31
2, 21520, Note_on_c, 0, 73, 51
2, 21598, Note_off_c, 0, 73, 51
2, 21600, Note_on_c, 0, 73, 52
2, 21678, Note_off_c, 0, 73, 52
2, 21680, Note_on_c, 0, 72, 57
2, 21758, Note_off_c, 0, 72, 57
2, 21760, Note_on_c, 0, 70, 34
2, 21838, Note_off_c, 0, 70, 34
2, 21840, Note_on_c, 0, 68, 43
2, 22078, Note_off_c, 0, 68, 43
2, 22160, Note_on_c, 0, 80, 58
2, 22238, Note_off_c, 0, 80, 58
2, 22240, Note_on_c, 0, 75, 36
2, 22300, Note_on_c, 0, 77, 28
2, 22318, Note_off_c, 0, 75, 36
2, 22318, Note_off_c, 0, 77, 28
2, 22320, Note_on_c, 0, 75, 52
2, 22398, Note_off_c, 0, 75, 52
2, 22400, Note_on_c, 0, 73, 56
2, 22478, Note_off_c, 0, 73, 56
2, 22480, Note_on_c, 0, 72, 56
2, 22558, Note_off_c, 0, 72, 56
2, 22560, Note_on_c, 0, 70, 43
2, 22718, Note_off_c, 0, 70, 43
2, 22880, Note_on_c, 0, 82, 64
2, 22958, Note_off_c, 0, 82, 64
2, 22960, Note_on_c, 0, 73, 35
2, 23038, Note_off_c, 0, 73, 35
2, 23040, Note_on_c, 0, 73, 55
2, 23118, Note_off_c, 0, 73, 55
2, 23120, Note_on_c, 0, 72, 52
2, 23198, Note_off_c, 0, 72, 52
2, 23200, Note_on_c, 0, 70, 42
2, 23278, Note_off_c, 0, 70, 42
2, 23280, Note_on_c, 0, 68, 36
2, 23438, Note_off_c, 0, 68, 36
2, 23600, Note_on_c, 0, 80, 58
2, 23678, Note_off_c, 0, 80, 58
2, 23680, Note_on_c, 0, 75, 36
2, 23740, Note_on_c, 0, 77, 28
2, 23758, Note_off_c, 0, 75, 36
2, 23758, Note_off_c, 0, 77, 28
2, 23760, Note_on_c, 0, 75, 52
2, 23838, Note_off_c, 0, 75, 52
2, 23840, Note_on_c, 0, 73, 56
2, 23918, Note_off_c, 0, 73, 56
2, 23920, Note_on_c, 0, 72, 56
2, 23998, Note_off_c, 0, 72, 56
2, 24000, Note_on_c, 0, 70, 43
2, 24158, Note_off_c, 0, 70, 43
2, 24320, Note_on_c, 0, 82, 64
2, 24398, Note_off_c, 0, 82, 64
2, 24400, Note_on_c, 0, 73, 35
2, 24478, Note_off_c, 0, 73, 35
2, 24480, Note_on_c, 0, 72, 61
2, 24558, Note_off_c, 0, 72, 61
2, 24560, Note_on_c, 0, 80, 64
2, 24638, Note_off_c, 0, 80, 64
2, 24640, Note_on_c, 0, 78, 64
2, 24718, Note_off_c, 0, 78, 64
2, 24720, Note_on_c, 0, 78, 56
2, 25038, Note_off_c, 0, 78, 56
2, 25040, Note_on_c, 0, 75, 53
2, 25118, Note_off_c, 0, 75, 53
2, 25120, Note_on_c, 0, 72, 55
2, 25198, Note_off_c, 0, 72, 55
2, 25200, Note_on_c, 0, 70, 63
2, 25278, Note_off_c, 0, 70, 63
2, 25280, Note_on_c, 0, 68, 55
2, 25358, Note_off_c, 0, 68, 55
2, 25360, Note_on_c, 0, 75, 55
2, 25438, Note_off_c, 0, 75, 55
2, 25440, Note_on_c, 0, 68, 57
2, 25518, Note_off_c, 0, 68, 57
2, 25520, Note_on_c, 0, 67, 55
2, 25598, Note_off_c, 0, 67, 55
2, 25600, Note_on_c, 0, 75, 52
2, 25678, Note_off_c, 0, 75, 52
2, 25680, Note_on_c, 0, 68, 58
2, 25758, Note_off_c, 0, 68, 58
2, 25760, Note_on_c, 0, 66, 45
2, 25838, Note_off_c, 0, 66, 45
2, 25840, Note_on_c, 0, 75, 55
2, 25918, Note_off_c, 0, 75, 55
2, 25920, Note_on_c, 0, 66, 55
2, 25998, Note_off_c, 0, 66, 55
2, 26000, Note_on_c, 0, 64, 52
2, 26078, Note_off_c, 0, 64, 52
2, 26080, Note_on_c, 0, 65, 60
2, 26158, Note_off_c, 0, 65, 60
2, 26160, Note_on_c, 0, 69, 56
2, 26238, Note_off_c, 0, 69, 56
2, 26240, Note_on_c, 0, 70, 64
2, 26318, Note_off_c, 0, 70, 64
2, 26320, Note_on_c, 0, 73, 66
2, 26398, Note_off_c, 0, 73, 66
2, 26400, Note_on_c, 0, 77, 68
2, 26478, Note_off_c, 0, 77, 68
2, 26480, Note_on_c, 0, 73, 55
2, 26558, Note_off_c, 0, 73, 55
2, 26560, Note_on_c, 0, 70, 41
2, 26638, Note_off_c, 0, 70, 41
2, 26640, Note_on_c, 0, 68, 55
2, 27038, Note_off_c, 0, 68, 55
2, 27080, Note_on_c, 0, 72, 47
2, 27098, Note_off_c, 0, 72, 47
2, 27120, Note_on_c, 0, 70, 54
2, 27238, Note_off_c, 0, 70, 54
2, 27240, Note_on_c, 0, 68, 54
2, 27358, Note_off_c, 0, 68, 54
2, 27360, Note_on_c, 0, 68, 56
2, 27419, Control_c, 0, 64, 127
2, 27438, Note_off_c, 0, 68, 56
2, 27440, Note_on_c, 0, 75, 35
2, 27518, Note_off_c, 0, 75, 35
2, 27520, Note_on_c, 0, 67, 62
2, 27598, Note_off_c, 0, 67, 62
2, 27600, Note_on_c, 0, 68, 50
2, 27618, Note_off_c, 0, 68, 50
2, 27620, Note_on_c, 0, 67, 55
2, 27638, Note_off_c, 0, 67, 55
2, 27640, Note_on_c, 0, 68, 38
2, 27680, Note_on_c, 0, 72, 63
2, 27698, Note_off_c, 0, 68, 38
2, 27758, Note_off_c, 0, 72, 63
2, 27760, Note_on_c, 0, 63, 46
2, 27772, Control_c, 0, 64, 0
2, 27838, Note_off_c, 0, 63, 46
2, 27840, Note_on_c, 0, 61, 51
2, 27865, Note_off_c, 0, 61, 51
2, 27867, Note_on_c, 0, 63, 53
2, 27872, Control_c, 0, 64, 127
2, 27891, Note_off_c, 0, 63, 53
2, 27893, Note_on_c, 0, 61, 35
2, 27918, Note_off_c, 0, 61, 35
2, 27920, Note_on_c, 0, 63, 48
2, 27945, Note_off_c, 0, 63, 48
2, 27947, Note_on_c, 0, 61, 41
2, 27971, Note_off_c, 0, 61, 41
2, 27973, Note_on_c, 0, 63, 56
2, 27998, Note_off_c, 0, 63, 56
2, 28000, Note_on_c, 0, 61, 43
2, 28025, Note_off_c, 0, 61, 43
2, 28027, Note_on_c, 0, 60, 55
2, 28049, Control_c, 0, 64, 0
2, 28051, Note_off_c, 0, 60, 55
2, 28053, Note_on_c, 0, 61, 43
2, 28078, Note_off_c, 0, 61, 43
2, 28080, Note_on_c, 0, 60, 56
2, 28112, Control_c, 0, 64, 127
2, 28158, Note_off_c, 0, 60, 56
2, 28160, Note_on_c, 0, 75, 35
2, 28238, Note_off_c, 0, 75, 35
2, 28240, Note_on_c, 0, 67, 62
2, 28318, Note_off_c, 0, 67, 62
2, 28320, Note_on_c, 0, 68, 50
2, 28338, Note_off_c, 0, 68, 50
2, 28340, Note_on_c, 0, 67, 55
2, 28358, Note_off_c, 0, 67, 55
2, 28360, Note_on_c, 0, 68, 38
2, 28400, Note_on_c, 0, 72, 63
2, 28418, Note_off_c, 0, 68, 38
2, 28478, Note_off_c, 0, 72, 63
2, 28480, Note_on_c, 0, 63, 46
2, 28490, Control_c, 0, 64, 0
2, 28558, Note_off_c, 0, 63, 46
2, 28560, Note_on_c, 0, 61, 51
2, 28585, Note_off_c, 0, 61, 51
2, 28587, Note_on_c, 0, 63, 53
2, 28590, Control_c, 0, 64, 127
2, 28612, Note_off_c, 0, 63, 53
2, 28613, Note_on_c, 0, 61, 35
2, 28638, Note_off_c, 0, 61, 35
2, 28640, Note_on_c, 0, 63, 48
2, 28665, Note_off_c, 0, 63, 48
2, 28667, Note_on_c, 0, 61, 41
2, 28692, Note_off_c, 0, 61, 41
2, 28693, Note_on_c, 0, 63, 56
2, 28718, Note_off_c, 0, 63, 56
2, 28720, Note_on_c, 0, 61, 43
2, 28745, Note_off_c, 0, 61, 43
2, 28747, Note_on_c, 0, 60, 55
2, 28772, Note_off_c, 0, 60, 55
2, 28773, Note_on_c, 0, 61, 43
2, 28779, Control_c, 0, 64, 0
2, 28798, Note_off_c, 0, 61, 43
2, 28800, Note_on_c, 0, 61, 69
2, 29038, Note_off_c, 0, 61, 69
2, 29040, Note_on_c, 0, 60, 44
2, 29518, Note_off_c, 0, 60, 44
2, 30229, Note_on_c, 0, 75, 82
2, 30399, Note_off_c, 0, 75, 82
2, 30401, Note_on_c, 0, 77, 60
2, 30421, Note_on_c, 0, 75, 58
2, 30441, Note_on_c, 0, 74, 57
2, 30442, Note_off_c, 0, 77, 60
2, 30443, Note_off_c, 0, 75, 58
2, 30475, Note_on_c, 0, 75, 68
2, 30484, Note_off_c, 0, 74, 57
2, 30599, Note_on_c, 0, 77, 68
2, 30605, Note_off_c, 0, 75, 68
2, 30707, Note_off_c, 0, 77, 68
2, 30717, Note_on_c, 0, 75, 48
2, 30882, Note_off_c, 0, 75, 48
2, 30964, Note_on_c, 0, 84, 62
2, 31003, Note_off_c, 0, 84, 62
2, 31007, Note_on_c, 0, 85, 67
2, 31057, Note_off_c, 0, 85, 67
2, 31060, Note_on_c, 0, 87, 57
2, 31282, Note_off_c, 0, 87, 57
2, 31760, Note_on_c, 0, 82, 68
2, 31838, Note_off_c, 0, 82, 68
2, 31840, Note_on_c, 0, 85, 55
2, 31918, Note_off_c, 0, 85, 55
2, 31920, Note_on_c, 0, 77, 52
2, 31998, Note_off_c, 0, 77, 52
2, 32000, Note_on_c, 0, 82, 66
2, 32078, Note_off_c, 0, 82, 66
2, 32080, Note_on_c, 0, 73, 27
2, 32158, Note_off_c, 0, 73, 27
2, 32160, Note_on_c, 0, 77, 57
2, 32238, Note_off_c, 0, 77, 57
2, 32240, Note_on_c, 0, 70, 46
2, 32318, Note_off_c, 0, 70, 46
2, 32320, Note_on_c, 0, 73, 55
2, 32398, Note_off_c, 0, 73, 55
2, 32400, Note_on_c, 0, 65, 50
2, 32478, Note_off_c, 0, 65, 50
2, 32480, Note_on_c, 0, 70, 43
2, 32558, Note_off_c, 0, 70, 43
2, 32560, Note_on_c, 0, 61, 47
2, 32638, Note_off_c, 0, 61, 47
2, 32640, Note_on_c, 0, 65, 58
2, 32718, Note_off_c, 0, 65, 58
2, 32720, Note_on_c, 0, 61, 30
2, 32798, Note_off_c, 0, 61, 30
2, 32800, Note_on_c, 0, 58, 33
2, 32878, Note_off_c, 0, 58, 33
2, 32880, Note_on_c, 0, 65, 64
2, 32958, Note_off_c, 0, 65, 64
2, 32960, Note_on_c, 0, 60, 58
2, 33038, Note_off_c, 0, 60, 58
2, 33040, Note_on_c, 0, 56, 56
2, 33118, Note_off_c, 0, 56, 56
2, 33120, Note_on_c, 0, 55, 55
2, 33198, Note_off_c, 0, 55, 55
2, 33200, Note_on_c, 0, 59, 58
2, 33278, Note_off_c, 0, 59, 58
2, 33280, Note_on_c, 0, 62, 62
2, 33358, Note_off_c, 0, 62, 62
2, 33360, Note_on_c, 0, 65, 68
2, 33438, Note_off_c, 0, 65, 68
2, 33440, Note_on_c, 0, 68, 64
2, 33518, Note_off_c, 0, 68, 64
2, 33520, Note_on_c, 0, 71, 66
2, 33598, Note_off_c, 0, 71, 66
2, 33600, Note_on_c, 0, 74, 64
2, 33678, Note_off_c, 0, 74, 64
2, 33680, Note_on_c, 0, 77, 60
2, 33758, Note_off_c, 0, 77, 60
2, 33760, Note_on_c, 0, 80, 67
2, 33838, Note_off_c, 0, 80, 67
2, 33840, Note_on_c, 0, 79, 61
2, 33858, Note_off_c, 0, 79, 61
2, 33860, Note_on_c, 0, 80, 64
2, 33878, Note_off_c, 0, 80, 64
2, 33880, Note_on_c, 0, 82, 61
2, 33898, Note_off_c, 0, 82, 61
2, 33900, Note_on_c, 0, 80, 51
2, 34078, Note_off_c, 0, 80, 51
2, 34400, Note_on_c, 0, 79, 62
2, 34478, Note_off_c, 0, 79, 62
2, 34480, Note_on_c, 0, 77, 58
2, 34558, Note_off_c, 0, 77, 58
2, 34560, Note_on_c, 0, 77, 58
2, 34638, Note_off_c, 0, 77, 58
2, 34640, Note_on_c, 0, 75, 45
2, 34718, Note_off_c, 0, 75, 45
2, 34720, Note_on_c, 0, 74, 48
2, 34798, Note_off_c, 0, 74, 48
2, 34800, Note_on_c, 0, 72, 45
2, 35038, Note_off_c, 0, 72, 45
2, 35120, Note_on_c, 0, 80, 57
2, 35198, Note_off_c, 0, 80, 57
2, 35200, Note_on_c, 0, 79, 48
2, 35278, Note_off_c, 0, 79, 48
2, 35280, Note_on_c, 0, 79, 57
2, 35358, Note_off_c, 0, 79, 57
2, 35360, Note_on_c, 0, 77, 55
2, 35438, Note_off_c, 0, 77, 55
2, 35440, Note_on_c, 0, 75, 47
2, 35518, Note_off_c, 0, 75, 47
2, 35520, Note_on_c, 0, 74, 56
2, 35758, Note_off_c, 0, 74, 56
2, 35840, Note_on_c, 0, 86, 66
2, 35918, Note_off_c, 0, 86, 66
2, 35920, Note_on_c, 0, 77, 33
2, 35998, Note_off_c, 0, 77, 33
2, 36000, Note_on_c, 0, 77, 56
2, 36078, Note_off_c, 0, 77, 56
2, 36080, Note_on_c, 0, 75, 46
2, 36158, Note_off_c, 0, 75, 46
2, 36160, Note_on_c, 0, 74, 45
2, 36238, Note_off_c, 0, 74, 45
2, 36240, Note_on_c, 0, 72, 42
2, 36398, Note_off_c, 0, 72, 42
2, 36560, Note_on_c, 0, 80, 61
2, 36638, Note_off_c, 0, 80, 61
2, 36640, Note_on_c, 0, 75, 35
2, 36718, Note_off_c, 0, 75, 35
2, 36720, Note_on_c, 0, 75, 51
2, 36798, Note_off_c, 0, 75, 51
2, 36800, Note_on_c, 0, 73, 27
2, 36878, Note_off_c, 0, 73, 27
2, 36880, Note_on_c, 0, 72, 35
2, 36958, Note_off_c, 0, 72, 35
2, 36960, Note_on_c, 0, 70, 42
2, 37118, Note_off_c, 0, 70, 42
2, 37280, Note_on_c, 0, 82, 58
2, 37358, Note_off_c, 0, 82, 58
2, 37360, Note_on_c, 0, 73, 46
2, 37438, Note_off_c, 0, 73, 46
2, 37440, Note_on_c, 0, 73, 52
2, 37518, Note_off_c, 0, 73, 52
2, 37520, Note_on_c, 0, 72, 52
2, 37598, Note_off_c, 0, 72, 52
2, 37600, Note_on_c, 0, 70, 45
2, 37678, Note_off_c, 0, 70, 45
2, 37680, Note_on_c, 0, 68, 33
2, 37838, Note_off_c, 0, 68, 33
2, 38000, Note_on_c, 0, 75, 52
2, 38078, Note_off_c, 0, 75, 52
2, 38080, Note_on_c, 0, 72, 42
2, 38158, Note_off_c, 0, 72, 42
2, 38160, Note_on_c, 0, 72, 46
2, 38238, Note_off_c, 0, 72, 46
2, 38240, Note_on_c, 0, 70, 52
2, 38318, Note_off_c, 0, 70, 52
2, 38320, Note_on_c, 0, 68, 31
2, 38398, Note_off_c, 0, 68, 31
2, 38400, Note_on_c, 0, 67, 47
2, 38558, Note_off_c, 0, 67, 47
2, 38720, Note_on_c, 0, 79, 61
2, 38798, Note_off_c, 0, 79, 61
2, 38800, Note_on_c, 0, 70, 38
2, 38878, Note_off_c, 0, 70, 38
2, 38880, Note_on_c, 0, 70, 64
2, 38958, Note_off_c, 0, 70, 64
2, 38960, Note_on_c, 0, 68, 56
2, 39038, Note_off_c, 0, 68, 56
2, 39040, Note_on_c, 0, 67, 55
2, 39118, Note_off_c, 0, 67, 55
2, 39120, Note_on_c, 0, 65, 56
2, 39198, Note_off_c, 0, 65, 56
2, 39200, Note_on_c, 0, 72, 45
2, 39278, Note_off_c, 0, 72, 45
2, 39280, Note_on_c, 0, 71, 61
2, 39358, Note_off_c, 0, 71, 61
2, 39360, Note_on_c, 0, 77, 68
2, 39438, Note_off_c, 0, 77, 68
2, 39440, Note_on_c, 0, 71, 58
2, 39518, Note_off_c, 0, 71, 58
2, 39520, Note_on_c, 0, 80, 63
2, 39598, Note_off_c, 0, 80, 63
2, 39600, Note_on_c, 0, 77, 63
2, 39838, Note_off_c, 0, 77, 63
2, 39840, Note_on_c, 0, 76, 46
2, 40078, Note_off_c, 0, 76, 46
2, 40320, Note_on_c, 0, 73, 65
2, 40398, Note_off_c, 0, 73, 65
2, 40400, Note_on_c, 0, 76, 77
2, 40478, Note_off_c, 0, 76, 77
2, 40480, Note_on_c, 0, 79, 72
2, 40558, Note_off_c, 0, 79, 72
2, 40560, Note_on_c, 0, 82, 65
2, 40638, Note_off_c, 0, 82, 65
2, 40640, Note_on_c, 0, 85, 68
2, 40718, Note_off_c, 0, 85, 68
2, 40720, Note_on_c, 0, 84, 73
2, 40798, Note_off_c, 0, 84, 73
2, 40800, Note_on_c, 0, 82, 63
2, 40878, Note_off_c, 0, 82, 63
2, 40880, Note_on_c, 0, 80, 58
2, 40958, Note_off_c, 0, 80, 58
2, 40960, Note_on_c, 0, 79, 48
2, 41038, Note_off_c, 0, 79, 48
2, 41040, Note_on_c, 0, 77, 72
2, 41118, Note_off_c, 0, 77, 72
2, 41120, Note_on_c, 0, 84, 78
2, 41198, Note_off_c, 0, 84, 78
2, 41200, Note_on_c, 0, 76, 74
2, 41278, Note_off_c, 0, 76, 74
2, 41280, Note_on_c, 0, 79, 68
2, 41298, Note_off_c, 0, 79, 68
2, 41300, Note_on_c, 0, 77, 77
2, 41318, Note_off_c, 0, 77, 77
2, 41320, Note_on_c, 0, 76, 67
2, 41338, Note_off_c, 0, 76, 67
2, 41340, Note_on_c, 0, 77, 58
2, 41358, Note_off_c, 0, 77, 58
2, 41360, Note_on_c, 0, 80, 68
2, 41438, Note_off_c, 0, 80, 68
2, 41440, Note_on_c, 0, 72, 63
2, 41518, Note_off_c, 0, 72, 63
2, 41520, Note_on_c, 0, 77, 68
2, 41598, Note_off_c, 0, 77, 68
2, 41600, Note_on_c, 0, 72, 62
2, 41678, Note_off_c, 0, 72, 62
2, 41680, Note_on_c, 0, 68, 60
2, 41758, Note_off_c, 0, 68, 60
2, 41760, Note_on_c, 0, 67, 68
2, 41838, Note_off_c, 0, 67, 68
2, 41840, Note_on_c, 0, 70, 62
2, 41918, Note_off_c, 0, 70, 62
2, 41920, Note_on_c, 0, 73, 73
2, 41998, Note_off_c, 0, 73, 73
2, 42000, Note_on_c, 0, 76, 74
2, 42078, Note_off_c, 0, 76, 74
2, 42080, Note_on_c, 0, 79, 74
2, 42140, Note_on_c, 0, 82, 67
2, 42158, Note_off_c, 0, 79, 74
2, 42158, Note_off_c, 0, 82, 67
2, 42160, Note_on_c, 0, 80, 68
2, 42178, Note_off_c, 0, 80, 68
2, 42180, Note_on_c, 0, 79, 65
2, 42198, Note_off_c, 0, 79, 65
2, 42200, Note_on_c, 0, 80, 62
2, 42218, Note_off_c, 0, 80, 62
2, 42240, Note_on_c, 0, 82, 74
2, 42318, Note_off_c, 0, 82, 74
2, 42320, Note_on_c, 0, 80, 70
2, 42398, Note_off_c, 0, 80, 70
2, 42400, Note_on_c, 0, 79, 72
2, 42478, Note_off_c, 0, 79, 72
2, 42480, Note_on_c, 0, 77, 76
2, 42558, Note_off_c, 0, 77, 76
2, 42560, Note_on_c, 0, 80, 71
2, 42638, Note_off_c, 0, 80, 71
2, 42640, Note_on_c, 0, 72, 65
2, 42718, Note_off_c, 0, 72, 65
2, 42720, Note_on_c, 0, 77, 71
2, 42798, Note_off_c, 0, 77, 71
2, 42800, Note_on_c, 0, 72, 68
2, 42878, Note_off_c, 0, 72, 68
2, 42880, Note_on_c, 0, 68, 65
2, 42958, Note_off_c, 0, 68, 65
2, 42960, Note_on_c, 0, 72, 72
2, 43038, Note_off_c, 0, 72, 72
2, 43040, Note_on_c, 0, 68, 52
2, 43118, Note_off_c, 0, 68, 52
2, 43120, Note_on_c, 0, 65, 61
2, 43198, Note_off_c, 0, 65, 61
2, 43200, Note_on_c, 0, 65, 56
2, 43218, Note_off_c, 0, 65, 56
2, 43220, Note_on_c, 0, 66, 52
2, 43238, Note_off_c, 0, 66, 52
2, 43240, Note_on_c, 0, 68, 61
2, 43258, Note_off_c, 0, 68, 61
2, 43260, Note_on_c, 0, 66, 57
2, 43278, Note_off_c, 0, 66, 57
2, 43280, Note_on_c, 0, 68, 48
2, 43298, Note_off_c, 0, 68, 48
2, 43300, Note_on_c, 0, 66, 51
2, 43318, Note_off_c, 0, 66, 51
2, 43320, Note_on_c, 0, 68, 56
2, 43338, Note_off_c, 0, 68, 56
2, 43340, Note_on_c, 0, 66, 42
2, 43358, Note_off_c, 0, 66, 42
2, 43360, Note_on_c, 0, 68, 48
2, 43378, Note_off_c, 0, 68, 48
2, 43380, Note_on_c, 0, 66, 48
2, 43398, Note_off_c, 0, 66, 48
2, 43400, Note_on_c, 0, 68, 57
2, 43418, Note_off_c, 0, 68, 57
2, 43420, Note_on_c, 0, 66, 53
2, 43438, Note_off_c, 0, 66, 53
2, 43440, Note_on_c, 0, 68, 64
2, 43458, Note_off_c, 0, 68, 64
2, 43460, Note_on_c, 0, 66, 47
2, 43478, Note_off_c, 0, 66, 47
2, 43480, Note_on_c, 0, 68, 55
2, 43498, Note_off_c, 0, 68, 55
2, 43500, Note_on_c, 0, 66, 46
2, 43518, Note_off_c, 0, 66, 46
2, 43520, Note_on_c, 0, 68, 55
2, 43538, Note_off_c, 0, 68, 55
2, 43540, Note_on_c, 0, 66, 48
2, 43558, Note_off_c, 0, 66, 48
2, 43560, Note_on_c, 0, 68, 53
2, 43578, Note_off_c, 0, 68, 53
2, 43580, Note_on_c, 0, 66, 51
2, 43598, Note_off_c, 0, 66, 51
2, 43600, Note_on_c, 0, 68, 55
2, 43618, Note_off_c, 0, 68, 55
2, 43620, Note_on_c, 0, 66, 55
2, 43638, Note_off_c, 0, 66, 55
2, 43640, Note_on_c, 0, 68, 56
2, 43658, Note_off_c, 0, 68, 56
2, 43660, Note_on_c, 0, 66, 51
2, 43678, Note_off_c, 0, 66, 51
2, 43680, Note_on_c, 0, 66, 51
2, 43698, Note_off_c, 0, 66, 51
2, 43700, Note_on_c, 0, 68, 52
2, 43718, Note_off_c, 0, 68, 52
2, 43720, Note_on_c, 0, 66, 38
2, 43738, Note_off_c, 0, 66, 38
2, 43740, Note_on_c, 0, 68, 43
2, 43758, Note_off_c, 0, 68, 43
2, 43760, Note_on_c, 0, 66, 42
2, 43778, Note_off_c, 0, 66, 42
2, 43780, Note_on_c, 0, 68, 48
2, 43798, Note_off_c, 0, 68, 48
2, 43800, Note_on_c, 0, 66, 56
2, 43818, Note_off_c, 0, 66, 56
2, 43820, Note_on_c, 0, 68, 63
2, 43838, Note_off_c, 0, 68, 63
2, 43840, Note_on_c, 0, 66, 60
2, 43858, Note_off_c, 0, 66, 60
2, 43860, Note_on_c, 0, 68, 48
2, 43878, Note_off_c, 0, 68, 48
2, 43880, Note_on_c, 0, 66, 57
2, 43898, Note_off_c, 0, 66, 57
2, 43920, Note_on_c, 0, 65, 55
2, 44158, Note_off_c, 0, 65, 55
2, 44160, Note_on_c, 0, 77, 57
2, 44198, Note_off_c, 0, 77, 57
2, 44200, Note_on_c, 0, 79, 55
2, 44238, Note_off_c, 0, 79, 55
2, 44240, Note_on_c, 0, 80, 55
2, 44438, Note_off_c, 0, 80, 55
2, 44640, Note_on_c, 0, 64, 46
2, 44658, Note_off_c, 0, 64, 46
2, 44660, Note_on_c, 0, 65, 42
2, 44678, Note_off_c, 0, 65, 42
2, 44680, Note_on_c, 0, 67, 51
2, 44698, Note_off_c, 0, 67, 51
2, 44700, Note_on_c, 0, 65, 47
2, 44718, Note_off_c, 0, 65, 47
2, 44720, Note_on_c, 0, 67, 38
2, 44738, Note_off_c, 0, 67, 38
2, 44740, Note_on_c, 0, 65, 41
2, 44758, Note_off_c, 0, 65, 41
2, 44760, Note_on_c, 0, 67, 46
2, 44778, Note_off_c, 0, 67, 46
2, 44780, Note_on_c, 0, 65, 32
2, 44798, Note_off_c, 0, 65, 32
2, 44800, Note_on_c, 0, 67, 38
2, 44818, Note_off_c, 0, 67, 38
2, 44820, Note_on_c, 0, 65, 38
2, 44838, Note_off_c, 0, 65, 38
2, 44840, Note_on_c, 0, 67, 47
2, 44858, Note_off_c, 0, 67, 47
2, 44860, Note_on_c, 0, 65, 43
2, 44878, Note_off_c, 0, 65, 43
2, 44880, Note_on_c, 0, 67, 54
2, 44898, Note_off_c, 0, 67, 54
2, 44900, Note_on_c, 0, 65, 37
2, 44918, Note_off_c, 0, 65, 37
2, 44920, Note_on_c, 0, 67, 45
2, 44938, Note_off_c, 0, 67, 45
2, 44940, Note_on_c, 0, 65, 36
2, 44958, Note_off_c, 0, 65, 36
2, 44960, Note_on_c, 0, 67, 45
2, 44978, Note_off_c, 0, 67, 45
2, 44980, Note_on_c, 0, 65, 38
2, 44998, Note_off_c, 0, 65, 38
2, 45000, Note_on_c, 0, 67, 43
2, 45018, Note_off_c, 0, 67, 43
2, 45020, Note_on_c, 0, 65, 41
2, 45038, Note_off_c, 0, 65, 41
2, 45040, Note_on_c, 0, 67, 45
2, 45058, Note_off_c, 0, 67, 45
2, 45060, Note_on_c, 0, 65, 45
2, 45078, Note_off_c, 0, 65, 45
2, 45080, Note_on_c, 0, 67, 46
2, 45098, Note_off_c, 0, 67, 46
2, 45100, Note_on_c, 0, 65, 41
2, 45118, Note_off_c, 0, 65, 41
2, 45120, Note_on_c, 0, 65, 41
2, 45138, Note_off_c, 0, 65, 41
2, 45140, Note_on_c, 0, 67, 42
2, 45158, Note_off_c, 0, 67, 42
2, 45160, Note_on_c, 0, 65, 28
2, 45178, Note_off_c, 0, 65, 28
2, 45180, Note_on_c, 0, 67, 33
2, 45198, Note_off_c, 0, 67, 33
2, 45200, Note_on_c, 0, 65, 32
2, 45218, Note_off_c, 0, 65, 32
2, 45220, Note_on_c, 0, 67, 38
2, 45238, Note_off_c, 0, 67, 38
2, 45240, Note_on_c, 0, 65, 46
2, 45258, Note_off_c, 0, 65, 46
2, 45260, Note_on_c, 0, 67, 53
2, 45278, Note_off_c, 0, 67, 53
2, 45280, Note_on_c, 0, 65, 50
2, 45298, Note_off_c, 0, 65, 50
2, 45300, Note_on_c, 0, 67, 38
2, 45318, Note_off_c, 0, 67, 38
2, 45320, Note_on_c, 0, 65, 47
2, 45338, Note_off_c, 0, 65, 47
2, 45360, Note_on_c, 0, 64, 45
2, 45598, Note_off_c, 0, 64, 45
2, 45600, Note_on_c, 0, 84, 47
2, 45638, Note_off_c, 0, 84, 47
2, 45640, Note_on_c, 0, 86, 45
2, 45678, Note_off_c, 0, 86, 45
2, 45680, Note_on_c, 0, 88, 45
2, 45878, Note_off_c, 0, 88, 45
2, 46080, Note_on_c, 0, 72, 48
2, 46158, Note_off_c, 0, 72, 48
2, 46160, Note_on_c, 0, 70, 58
2, 46238, Note_off_c, 0, 70, 58
2, 46240, Note_on_c, 0, 68, 47
2, 46318, Note_off_c, 0, 68, 47
2, 46320, Note_on_c, 0, 67, 55
2, 46558, Note_off_c, 0, 67, 55
2, 46640, Note_on_c, 0, 79, 64
2, 46718, Note_off_c, 0, 79, 64
2, 46720, Note_on_c, 0, 70, 48
2, 46798, Note_off_c, 0, 70, 48
2, 46800, Note_on_c, 0, 70, 52
2, 46878, Note_off_c, 0, 70, 52
2, 46880, Note_on_c, 0, 68, 48
2, 46958, Note_off_c, 0, 68, 48
2, 46960, Note_on_c, 0, 67, 45
2, 47038, Note_off_c, 0, 67, 45
2, 47040, Note_on_c, 0, 65, 50
2, 47278, Note_off_c, 0, 65, 50
2, 47360, Note_on_c, 0, 77, 48
2, 47438, Note_off_c, 0, 77, 48
2, 47440, Note_on_c, 0, 72, 45
2, 47518, Note_off_c, 0, 72, 45
2, 47520, Note_on_c, 0, 72, 50
2, 47598, Note_off_c, 0, 72, 50
2, 47600, Note_on_c, 0, 70, 55
2, 47678, Note_off_c, 0, 70, 55
2, 47680, Note_on_c, 0, 68, 47
2, 47758, Note_off_c, 0, 68, 47
2, 47760, Note_on_c, 0, 67, 45
2, 47918, Note_off_c, 0, 67, 45
2, 48080, Note_on_c, 0, 79, 61
2, 48158, Note_off_c, 0, 79, 61
2, 48160, Note_on_c, 0, 70, 48
2, 48238, Note_off_c, 0, 70, 48
2, 48320, Note_on_c, 0, 80, 63
2, 48398, Note_off_c, 0, 80, 63
2, 48400, Note_on_c, 0, 84, 64
2, 48478, Note_off_c, 0, 84, 64
2, 48480, Note_on_c, 0, 77, 64
2, 48558, Note_off_c, 0, 77, 64
2, 48560, Note_on_c, 0, 80, 64
2, 48638, Note_off_c, 0, 80, 64
2, 48640, Note_on_c, 0, 72, 58
2, 48718, Note_off_c, 0, 72, 58
2, 48720, Note_on_c, 0, 77, 62
2, 48798, Note_off_c, 0, 77, 62
2, 48800, Note_on_c, 0, 68, 43
2, 48878, Note_off_c, 0, 68, 43
2, 48880, Note_on_c, 0, 72, 63
2, 48958, Note_off_c, 0, 72, 63
2, 49040, Note_on_c, 0, 83, 64
2, 49118, Note_off_c, 0, 83, 64
2, 49120, Note_on_c, 0, 86, 64
2, 49198, Note_off_c, 0, 86, 64
2, 49200, Note_on_c, 0, 80, 62
2, 49278, Note_off_c, 0, 80, 62
2, 49280, Note_on_c, 0, 83, 61
2, 49358, Note_off_c, 0, 83, 61
2, 49360, Note_on_c, 0, 77, 55
2, 49438, Note_off_c, 0, 77, 55
2, 49440, Note_on_c, 0, 80, 55
2, 49518, Note_off_c, 0, 80, 55
2, 49520, Note_on_c, 0, 74, 55
2, 49598, Note_off_c, 0, 74, 55
2, 49600, Note_on_c, 0, 77, 58
2, 49678, Note_off_c, 0, 77, 58
2, 49760, Note_on_c, 0, 80, 57
2, 49838, Note_off_c, 0, 80, 57
2, 49840, Note_on_c, 0, 84, 57
2, 49918, Note_off_c, 0, 84, 57
2, 49920, Note_on_c, 0, 76, 56
2, 49998, Note_off_c, 0, 76, 56
2, 50000, Note_on_c, 0, 77, 58
2, 50078, Note_off_c, 0, 77, 58
2, 50080, Note_on_c, 0, 80, 53
2, 50158, Note_off_c, 0, 80, 53
2, 50160, Note_on_c, 0, 72, 64
2, 50238, Note_off_c, 0, 72, 64
2, 50240, Note_on_c, 0, 71, 58
2, 50318, Note_off_c, 0, 71, 58
2, 50320, Note_on_c, 0, 79, 58
2, 50398, Note_off_c, 0, 79, 58
2, 50400, Note_on_c, 0, 70, 48
2, 50478, Note_off_c, 0, 70, 48
2, 50480, Note_on_c, 0, 69, 56
2, 50558, Note_off_c, 0, 69, 56
2, 50560, Note_on_c, 0, 77, 52
2, 50638, Note_off_c, 0, 77, 52
2, 50640, Note_on_c, 0, 68, 58
2, 50718, Note_off_c, 0, 68, 58
2, 50720, Note_on_c, 0, 67, 52
2, 50798, Note_off_c, 0, 67, 52
2, 50800, Note_on_c, 0, 76, 57
2, 50878, Note_off_c, 0, 76, 57
2, 50880, Note_on_c, 0, 67, 60
2, 50958, Note_off_c, 0, 67, 60
2, 50960, Note_on_c, 0, 65, 56
2, 51038, Note_off_c, 0, 65, 56
2, 51040, Note_on_c, 0, 74, 58
2, 51118, Note_off_c, 0, 74, 58
2, 51120, Note_on_c, 0, 65, 61
2, 51198, Note_off_c, 0, 65, 61
2, 51200, Note_on_c, 0, 64, 53
2, 51278, Note_off_c, 0, 64, 53
2, 51280, Note_on_c, 0, 72, 55
2, 51358, Note_off_c, 0, 72, 55
2, 51360, Note_on_c, 0, 67, 56
2, 51438, Note_off_c, 0, 67, 56
2, 51440, Note_on_c, 0, 65, 37
2, 51518, Note_off_c, 0, 65, 37
2, 51520, Note_on_c, 0, 72, 52
2, 51598, Note_off_c, 0, 72, 52
2, 51600, Note_on_c, 0, 68, 61
2, 51678, Note_off_c, 0, 68, 61
2, 51680, Note_on_c, 0, 67, 48
2, 51758, Note_off_c, 0, 67, 48
2, 51760, Note_on_c, 0, 70, 51
2, 51838, Note_off_c, 0, 70, 51
2, 51840, Note_on_c, 0, 68, 57
2, 52078, Note_off_c, 0, 68, 57
2, 52320, Note_on_c, 0, 68, 53
2, 52398, Note_off_c, 0, 68, 53
2, 52400, Note_on_c, 0, 73, 58
2, 52478, Note_off_c, 0, 73, 58
2, 52480, Note_on_c, 0, 77, 61
2, 52558, Note_off_c, 0, 77, 61
2, 52604, Control_c, 0, 64, 127
2, 52604, Control_c, 0, 64, 127
2, 52720, Note_on_c, 0, 62, 55
2, 52798, Note_off_c, 0, 62, 55
2, 52800, Note_on_c, 0, 65, 61
2, 52878, Note_off_c, 0, 65, 61
2, 52880, Note_on_c, 0, 68, 52
2, 52958, Note_off_c, 0, 68, 52
2, 52960, Note_on_c, 0, 71, 56
2, 53038, Note_off_c, 0, 71, 56
2, 53040, Note_on_c, 0, 74, 56
2, 53118, Note_off_c, 0, 74, 56
2, 53120, Note_on_c, 0, 77, 56
2, 53198, Note_off_c, 0, 77, 56
2, 53200, Note_on_c, 0, 80, 62
2, 53259, Control_c, 0, 64, 0
2, 53259, Control_c, 0, 64, 0
2, 53278, Note_off_c, 0, 80, 62
2, 53360, Note_on_c, 0, 84, 73
2, 53438, Note_off_c, 0, 84, 73
2, 53440, Note_on_c, 0, 72, 47
2, 53518, Note_off_c, 0, 72, 47
2, 53520, Note_on_c, 0, 71, 55
2, 53598, Note_off_c, 0, 71, 55
2, 53600, Note_on_c, 0, 70, 48
2, 53678, Note_off_c, 0, 70, 48
2, 53680, Note_on_c, 0, 69, 55
2, 53758, Note_off_c, 0, 69, 55
2, 53760, Note_on_c, 0, 68, 58
2, 53838, Note_off_c, 0, 68, 58
2, 53840, Note_on_c, 0, 67, 53
2, 53918, Note_off_c, 0, 67, 53
2, 53920, Note_on_c, 0, 66, 46
2, 53998, Note_off_c, 0, 66, 46
2, 54000, Note_on_c, 0, 65, 65
2, 54398, Note_off_c, 0, 65, 65
2, 54400, Note_on_c, 0, 68, 43
2, 54478, Note_off_c, 0, 68, 43
2, 54480, Note_on_c, 0, 67, 56
2, 54598, Note_off_c, 0, 67, 56
2, 54600, Note_on_c, 0, 65, 65
2, 54718, Note_off_c, 0, 65, 65
2, 54720, Note_on_c, 0, 65, 72
2, 54798, Note_off_c, 0, 65, 72
2, 54800, Note_on_c, 0, 68, 62
2, 54878, Note_off_c, 0, 68, 62
2, 54880, Note_on_c, 0, 64, 55
2, 54958, Note_off_c, 0, 64, 55
2, 54960, Note_on_c, 0, 65, 65
2, 54978, Note_off_c, 0, 65, 65
2, 54980, Note_on_c, 0, 64, 68
2, 54998, Note_off_c, 0, 64, 68
2, 55000, Note_on_c, 0, 65, 65
2, 55040, Note_on_c, 0, 68, 62
2, 55058, Note_off_c, 0, 65, 65
2, 55118, Note_off_c, 0, 68, 62
2, 55120, Note_on_c, 0, 60, 68
2, 55198, Note_off_c, 0, 60, 68
2, 55200, Note_on_c, 0, 58, 63
2, 55278, Note_off_c, 0, 58, 63
2, 55280, Note_on_c, 0, 61, 55
2, 55358, Note_off_c, 0, 61, 55
2, 55360, Note_on_c, 0, 55, 56
2, 55438, Note_off_c, 0, 55, 56
2, 55440, Note_on_c, 0, 56, 65
2, 55518, Note_off_c, 0, 56, 65
2, 55520, Note_on_c, 0, 72, 60
2, 55598, Note_off_c, 0, 72, 60
2, 55600, Note_on_c, 0, 64, 56
2, 55678, Note_off_c, 0, 64, 56
2, 55680, Note_on_c, 0, 65, 55
2, 55698, Note_off_c, 0, 65, 55
2, 55700, Note_on_c, 0, 64, 58
2, 55718, Note_off_c, 0, 64, 58
2, 55720, Note_on_c, 0, 65, 55
2, 55760, Note_on_c, 0, 68, 52
2, 55778, Note_off_c, 0, 65, 55
2, 55838, Note_off_c, 0, 68, 52
2, 55840, Note_on_c, 0, 60, 58
2, 55918, Note_off_c, 0, 60, 58
2, 55920, Note_on_c, 0, 58, 53
2, 55998, Note_off_c, 0, 58, 53
2, 56000, Note_on_c, 0, 67, 45
2, 56078, Note_off_c, 0, 67, 45
2, 56080, Note_on_c, 0, 64, 53
2, 56158, Note_off_c, 0, 64, 53
2, 56160, Note_on_c, 0, 64, 64
2, 56398, Note_off_c, 0, 64, 64
2, 56400, Note_on_c, 0, 65, 43
2, 57118, Note_off_c, 0, 65, 43
2, 57600, End_track
3, 0, Start_track
3, 0, MIDI_port, 0
3, 0, Channel_prefix, 1
3, 0, Title_t, "Piano L.H."
3, 0, Key_signature, -4, "major"
3, 980, Control_c, 1, 0, 0
3, 985, Program_c, 1, 0
3, 990, Control_c, 1, 7, 127
3, 995, Control_c, 1, 10, 64
3, 1000, Control_c, 1, 91, 74
3, 1005, Control_c, 1, 93, 0
3, 1010, Control_c, 1, 94, 0
3, 1015, Control_c, 1, 11, 127
3, 1440, Note_on_c, 1, 53, 43
3, 1461, Control_c, 1, 64, 127
3, 1518, Note_off_c, 1, 53, 43
3, 1520, Note_on_c, 1, 56, 33
3, 1598, Note_off_c, 1, 56, 33
3, 1600, Note_on_c, 1, 60, 35
3, 1678, Note_off_c, 1, 60, 35
3, 1680, Note_on_c, 1, 65, 47
3, 1758, Note_off_c, 1, 65, 47
3, 1760, Note_on_c, 1, 60, 45
3, 1838, Note_off_c, 1, 60, 45
3, 1840, Note_on_c, 1, 56, 42
3, 1918, Note_off_c, 1, 56, 42
3, 1920, Note_on_c, 1, 53, 42
3, 1998, Note_off_c, 1, 53, 42
3, 2000, Note_on_c, 1, 56, 25
3, 2078, Note_off_c, 1, 56, 25
3, 2080, Note_on_c, 1, 60, 41
3, 2129, Control_c, 1, 64, 0
3, 2158, Note_off_c, 1, 60, 41
3, 2160, Note_on_c, 1, 53, 40
3, 2204, Control_c, 1, 64, 127
3, 2238, Note_off_c, 1, 53, 40
3, 2240, Note_on_c, 1, 56, 17
3, 2318, Note_off_c, 1, 56, 17
3, 2320, Note_on_c, 1, 60, 33
3, 2398, Note_off_c, 1, 60, 33
3, 2400, Note_on_c, 1, 65, 33
3, 2478, Note_off_c, 1, 65, 33
3, 2480, Note_on_c, 1, 60, 31
3, 2558, Note_off_c, 1, 60, 31
3, 2560, Note_on_c, 1, 56, 45
3, 2638, Note_off_c, 1, 56, 45
3, 2640, Note_on_c, 1, 53, 32
3, 2718, Note_off_c, 1, 53, 32
3, 2720, Note_on_c, 1, 56, 24
3, 2798, Note_off_c, 1, 56, 24
3, 2800, Note_on_c, 1, 60, 33
3, 2859, Control_c, 1, 64, 0
3, 2878, Note_off_c, 1, 60, 33
3, 2880, Note_on_c, 1, 52, 36
3, 2901, Control_c, 1, 64, 127
3, 2958, Note_off_c, 1, 52, 36
3, 2960, Note_on_c, 1, 55, 40
3, 3038, Note_off_c, 1, 55, 40
3, 3040, Note_on_c, 1, 58, 37
3, 3118, Note_off_c, 1, 58, 37
3, 3120, Note_on_c, 1, 60, 33
3, 3198, Note_off_c, 1, 60, 33
3, 3200, Note_on_c, 1, 58, 37
3, 3278, Note_off_c, 1, 58, 37
3, 3280, Note_on_c, 1, 55, 23
3, 3358, Note_off_c, 1, 55, 23
3, 3360, Note_on_c, 1, 52, 32
3, 3438, Note_off_c, 1, 52, 32
3, 3440, Note_on_c, 1, 55, 19
3, 3518, Note_off_c, 1, 55, 19
3, 3520, Note_on_c, 1, 58, 33
3, 3569, Control_c, 1, 64, 0
3, 3598, Note_off_c, 1, 58, 33
3, 3600, Note_on_c, 1, 52, 50
3, 3644, Control_c, 1, 64, 127
3, 3678, Note_off_c, 1, 52, 50
3, 3680, Note_on_c, 1, 55, 46
3, 3758, Note_off_c, 1, 55, 46
3, 3760, Note_on_c, 1, 58, 42
3, 3838, Note_off_c, 1, 58, 42
3, 3840, Note_on_c, 1, 60, 36
3, 3918, Note_off_c, 1, 60, 36
3, 3920, Note_on_c, 1, 58, 31
3, 3998, Note_off_c, 1, 58, 31
3, 4000, Note_on_c, 1, 55, 35
3, 4078, Note_off_c, 1, 55, 35
3, 4080, Note_on_c, 1, 52, 8
3, 4158, Note_off_c, 1, 52, 8
3, 4160, Note_on_c, 1, 55, 20
3, 4238, Note_off_c, 1, 55, 20
3, 4240, Note_on_c, 1, 58, 28
3, 4299, Control_c, 1, 64, 0
3, 4318, Note_off_c, 1, 58, 28
3, 4320, Note_on_c, 1, 53, 42
3, 4341, Control_c, 1, 64, 127
3, 4398, Note_off_c, 1, 53, 42
3, 4400, Note_on_c, 1, 56, 45
3, 4478, Note_off_c, 1, 56, 45
3, 4480, Note_on_c, 1, 60, 35
3, 4558, Note_off_c, 1, 60, 35
3, 4560, Note_on_c, 1, 65, 33
3, 4638, Note_off_c, 1, 65, 33
3, 4640, Note_on_c, 1, 60, 55
3, 4718, Note_off_c, 1, 60, 55
3, 4720, Note_on_c, 1, 56, 47
3, 4798, Note_off_c, 1, 56, 47
3, 4800, Note_on_c, 1, 51, 35
3, 4878, Note_off_c, 1, 51, 35
3, 4880, Note_on_c, 1, 55, 46
3, 4958, Note_off_c, 1, 55, 46
3, 4960, Note_on_c, 1, 60, 45
3, 5009, Control_c, 1, 64, 0
3, 5038, Note_off_c, 1, 60, 45
3, 5040, Note_on_c, 1, 49, 58
3, 5084, Control_c, 1, 64, 127
3, 5118, Note_off_c, 1, 49, 58
3, 5120, Note_on_c, 1, 53, 55
3, 5198, Note_off_c, 1, 53, 55
3, 5200, Note_on_c, 1, 56, 50
3, 5278, Note_off_c, 1, 56, 50
3, 5280, Note_on_c, 1, 59, 45
3, 5358, Note_off_c, 1, 59, 45
3, 5360, Note_on_c, 1, 62, 48
3, 5438, Note_off_c, 1, 62, 48
3, 5440, Note_on_c, 1, 65, 38
3, 5518, Note_off_c, 1, 65, 38
3, 5739, Control_c, 1, 64, 0
3, 5760, Note_on_c, 1, 48, 55
3, 6238, Note_off_c, 1, 48, 55
3, 6480, Note_on_c, 1, 36, 40
3, 6524, Control_c, 1, 64, 127
3, 6718, Note_off_c, 1, 36, 40
3, 7179, Control_c, 1, 64, 0
3, 7200, Note_on_c, 1, 56, 40
3, 7221, Control_c, 1, 64, 127
3, 7278, Note_off_c, 1, 56, 40
3, 7280, Note_on_c, 1, 60, 28
3, 7358, Note_off_c, 1, 60, 28
3, 7360, Note_on_c, 1, 63, 48
3, 7438, Note_off_c, 1, 63, 48
3, 7440, Note_on_c, 1, 68, 47
3, 7518, Note_off_c, 1, 68, 47
3, 7520, Note_on_c, 1, 63, 28
3, 7598, Note_off_c, 1, 63, 28
3, 7600, Note_on_c, 1, 60, 35
3, 7678, Note_off_c, 1, 60, 35
3, 7680, Note_on_c, 1, 56, 52
3, 7758, Note_off_c, 1, 56, 52
3, 7760, Note_on_c, 1, 60, 47
3, 7838, Note_off_c, 1, 60, 47
3, 7840, Note_on_c, 1, 63, 24
3, 7889, Control_c, 1, 64, 0
3, 7918, Note_off_c, 1, 63, 24
3, 7920, Note_on_c, 1, 58, 42
3, 7964, Control_c, 1, 64, 127
3, 7998, Note_off_c, 1, 58, 42
3, 8000, Note_on_c, 1, 61, 57
3, 8078, Note_off_c, 1, 61, 57
3, 8080, Note_on_c, 1, 63, 38
3, 8158, Note_off_c, 1, 63, 38
3, 8160, Note_on_c, 1, 67, 56
3, 8238, Note_off_c, 1, 67, 56
3, 8240, Note_on_c, 1, 63, 27
3, 8318, Note_off_c, 1, 63, 27
3, 8320, Note_on_c, 1, 61, 26
3, 8398, Note_off_c, 1, 61, 26
3, 8400, Note_on_c, 1, 58, 46
3, 8478, Note_off_c, 1, 58, 46
3, 8480, Note_on_c, 1, 61, 36
3, 8558, Note_off_c, 1, 61, 36
3, 8560, Note_on_c, 1, 63, 36
3, 8619, Control_c, 1, 64, 0
3, 8638, Note_off_c, 1, 63, 36
3, 8640, Note_on_c, 1, 56, 55
3, 8661, Control_c, 1, 64, 127
3, 8718, Note_off_c, 1, 56, 55
3, 8720, Note_on_c, 1, 60, 52
3, 8798, Note_off_c, 1, 60, 52
3, 8800, Note_on_c, 1, 63, 47
3, 8878, Note_off_c, 1, 63, 47
3, 8960, Note_on_c, 1, 63, 21
3, 9038, Note_off_c, 1, 63, 21
3, 9040, Note_on_c, 1, 60, 33
3, 9118, Note_off_c, 1, 60, 33
3, 9120, Note_on_c, 1, 56, 43
3, 9198, Note_off_c, 1, 56, 43
3, 9200, Note_on_c, 1, 60, 33
3, 9278, Note_off_c, 1, 60, 33
3, 9280, Note_on_c, 1, 63, 11
3, 9329, Control_c, 1, 64, 0
3, 9358, Note_off_c, 1, 63, 11
3, 9360, Note_on_c, 1, 58, 48
3, 9404, Control_c, 1, 64, 127
3, 9438, Note_off_c, 1, 58, 48
3, 9440, Note_on_c, 1, 61, 42
3, 9518, Note_off_c, 1, 61, 42
3, 9520, Note_on_c, 1, 63, 41
3, 9598, Note_off_c, 1, 63, 41
3, 9600, Note_on_c, 1, 67, 48
3, 9678, Note_off_c, 1, 67, 48
3, 9680, Note_on_c, 1, 63, 33
3, 9758, Note_off_c, 1, 63, 33
3, 9760, Note_on_c, 1, 61, 37
3, 9838, Note_off_c, 1, 61, 37
3, 9840, Note_on_c, 1, 58, 46
3, 9918, Note_off_c, 1, 58, 46
3, 9920, Note_on_c, 1, 61, 27
3, 9998, Note_off_c, 1, 61, 27
3, 10000, Note_on_c, 1, 63, 23
3, 10059, Control_c, 1, 64, 0
3, 10078, Note_off_c, 1, 63, 23
3, 10080, Note_on_c, 1, 56, 52
3, 10101, Control_c, 1, 64, 127
3, 10158, Note_off_c, 1, 56, 52
3, 10160, Note_on_c, 1, 60, 46
3, 10238, Note_off_c, 1, 60, 46
3, 10240, Note_on_c, 1, 63, 45
3, 10318, Note_off_c, 1, 63, 45
3, 10320, Note_on_c, 1, 68, 47
3, 10398, Note_off_c, 1, 68, 47
3, 10400, Note_on_c, 1, 63, 24
3, 10478, Note_off_c, 1, 63, 24
3, 10480, Note_on_c, 1, 60, 45
3, 10558, Note_off_c, 1, 60, 45
3, 10560, Note_on_c, 1, 56, 53
3, 10638, Note_off_c, 1, 56, 53
3, 10640, Note_on_c, 1, 60, 40
3, 10718, Note_off_c, 1, 60, 40
3, 10720, Note_on_c, 1, 63, 24
3, 10769, Control_c, 1, 64, 0
3, 10798, Note_off_c, 1, 63, 24
3, 10800, Note_on_c, 1, 54, 52
3, 10844, Control_c, 1, 64, 127
3, 10878, Note_off_c, 1, 54, 52
3, 10880, Note_on_c, 1, 56, 43
3, 10958, Note_off_c, 1, 56, 43
3, 10960, Note_on_c, 1, 60, 46
3, 11038, Note_off_c, 1, 60, 46
3, 11040, Note_on_c, 1, 63, 48
3, 11118, Note_off_c, 1, 63, 48
3, 11120, Note_on_c, 1, 60, 27
3, 11198, Note_off_c, 1, 60, 27
3, 11200, Note_on_c, 1, 56, 46
3, 11278, Note_off_c, 1, 56, 46
3, 11280, Note_on_c, 1, 54, 45
3, 11358, Note_off_c, 1, 54, 45
3, 11360, Note_on_c, 1, 56, 42
3, 11438, Note_off_c, 1, 56, 42
3, 11440, Note_on_c, 1, 60, 27
3, 11499, Control_c, 1, 64, 0
3, 11518, Note_off_c, 1, 60, 27
3, 11520, Note_on_c, 1, 53, 53
3, 11598, Note_off_c, 1, 53, 53
3, 11600, Note_on_c, 1, 56, 51
3, 11678, Note_off_c, 1, 56, 51
3, 11680, Note_on_c, 1, 61, 45
3, 11758, Note_off_c, 1, 61, 45
3, 11760, Note_on_c, 1, 65, 37
3, 11838, Note_off_c, 1, 65, 37
3, 11840, Note_on_c, 1, 61, 23
3, 11918, Note_off_c, 1, 61, 23
3, 11920, Note_on_c, 1, 56, 50
3, 11998, Note_off_c, 1, 56, 50
3, 12000, Note_on_c, 1, 53, 58
3, 12078, Note_off_c, 1, 53, 58
3, 12080, Note_on_c, 1, 56, 50
3, 12158, Note_off_c, 1, 56, 50
3, 12160, Note_on_c, 1, 61, 50
3, 12238, Note_off_c, 1, 61, 50
3, 12240, Note_on_c, 1, 52, 55
3, 12318, Note_off_c, 1, 52, 55
3, 12320, Note_on_c, 1, 56, 36
3, 12398, Note_off_c, 1, 56, 36
3, 12400, Note_on_c, 1, 61, 35
3, 12478, Note_off_c, 1, 61, 35
3, 12480, Note_on_c, 1, 64, 48
3, 12558, Note_off_c, 1, 64, 48
3, 12560, Note_on_c, 1, 61, 32
3, 12638, Note_off_c, 1, 61, 32
3, 12640, Note_on_c, 1, 56, 27
3, 12718, Note_off_c, 1, 56, 27
3, 12720, Note_on_c, 1, 52, 55
3, 12798, Note_off_c, 1, 52, 55
3, 12800, Note_on_c, 1, 56, 47
3, 12878, Note_off_c, 1, 56, 47
3, 12880, Note_on_c, 1, 61, 24
3, 12958, Note_off_c, 1, 61, 24
3, 12960, Note_on_c, 1, 51, 56
3, 12981, Control_c, 1, 64, 127
3, 13649, Control_c, 1, 64, 0
3, 13678, Note_off_c, 1, 51, 56
3, 13680, Note_on_c, 1, 55, 53
3, 14398, Note_off_c, 1, 55, 53
3, 14400, Note_on_c, 1, 56, 58
3, 14421, Control_c, 1, 64, 127
3, 14638, Note_off_c, 1, 56, 58
3, 15089, Control_c, 1, 64, 0
3, 15200, Note_on_c, 1, 48, 53
3, 15278, Note_off_c, 1, 48, 53
3, 15280, Note_on_c, 1, 51, 55
3, 15358, Note_off_c, 1, 51, 55
3, 15360, Note_on_c, 1, 44, 64
3, 15438, Note_off_c, 1, 44, 64
3, 15440, Note_on_c, 1, 48, 63
3, 15518, Note_off_c, 1, 48, 63
3, 15520, Note_on_c, 1, 51, 63
3, 15598, Note_off_c, 1, 51, 63
3, 15600, Note_on_c, 1, 42, 71
3, 15678, Note_off_c, 1, 42, 71
3, 15680, Note_on_c, 1, 51, 60
3, 15758, Note_off_c, 1, 51, 60
3, 15760, Note_on_c, 1, 42, 51
3, 15838, Note_off_c, 1, 42, 51
3, 15840, Note_on_c, 1, 41, 48
3, 15861, Control_c, 1, 64, 127
3, 15918, Note_off_c, 1, 41, 48
3, 16529, Control_c, 1, 64, 0
3, 16560, Note_on_c, 1, 49, 57
3, 16798, Note_off_c, 1, 49, 57
3, 16800, Note_on_c, 1, 61, 53
3, 17038, Note_off_c, 1, 61, 53
3, 18000, Note_on_c, 1, 51, 45
3, 18044, Control_c, 1, 64, 127
3, 18078, Note_off_c, 1, 51, 45
3, 18080, Note_on_c, 1, 56, 56
3, 18158, Note_off_c, 1, 56, 56
3, 18160, Note_on_c, 1, 60, 62
3, 18238, Note_off_c, 1, 60, 62
3, 18240, Note_on_c, 1, 63, 60
3, 18318, Note_off_c, 1, 63, 60
3, 18320, Note_on_c, 1, 60, 46
3, 18398, Note_off_c, 1, 60, 46
3, 18400, Note_on_c, 1, 56, 47
3, 18478, Note_off_c, 1, 56, 47
3, 18480, Note_on_c, 1, 51, 53
3, 18558, Note_off_c, 1, 51, 53
3, 18560, Note_on_c, 1, 56, 55
3, 18638, Note_off_c, 1, 56, 55
3, 18640, Note_on_c, 1, 60, 45
3, 18699, Control_c, 1, 64, 0
3, 18718, Note_off_c, 1, 60, 45
3, 18720, Note_on_c, 1, 51, 56
3, 18741, Control_c, 1, 64, 127
3, 18798, Note_off_c, 1, 51, 56
3, 18800, Note_on_c, 1, 56, 42
3, 18878, Note_off_c, 1, 56, 42
3, 18880, Note_on_c, 1, 60, 48
3, 18958, Note_off_c, 1, 60, 48
3, 18960, Note_on_c, 1, 63, 51
3, 19038, Note_off_c, 1, 63, 51
3, 19040, Note_on_c, 1, 60, 32
3, 19118, Note_off_c, 1, 60, 32
3, 19120, Note_on_c, 1, 56, 51
3, 19198, Note_off_c, 1, 56, 51
3, 19200, Note_on_c, 1, 51, 46
3, 19278, Note_off_c, 1, 51, 46
3, 19280, Note_on_c, 1, 56, 45
3, 19358, Note_off_c, 1, 56, 45
3, 19360, Note_on_c, 1, 60, 46
3, 19409, Control_c, 1, 64, 0
3, 19438, Note_off_c, 1, 60, 46
3, 19440, Note_on_c, 1, 53, 58
3, 19484, Control_c, 1, 64, 127
3, 19518, Note_off_c, 1, 53, 58
3, 19520, Note_on_c, 1, 56, 53
3, 19598, Note_off_c, 1, 56, 53
3, 19600, Note_on_c, 1, 58, 37
3, 19678, Note_off_c, 1, 58, 37
3, 19680, Note_on_c, 1, 62, 55
3, 19758, Note_off_c, 1, 62, 55
3, 19760, Note_on_c, 1, 58, 43
3, 19838, Note_off_c, 1, 58, 43
3, 19840, Note_on_c, 1, 56, 55
3, 19918, Note_off_c, 1, 56, 55
3, 19920, Note_on_c, 1, 53, 58
3, 19998, Note_off_c, 1, 53, 58
3, 20000, Note_on_c, 1, 56, 57
3, 20078, Note_off_c, 1, 56, 57
3, 20080, Note_on_c, 1, 58, 38
3, 20139, Control_c, 1, 64, 0
3, 20158, Note_off_c, 1, 58, 38
3, 20160, Note_on_c, 1, 53, 61
3, 20181, Control_c, 1, 64, 127
3, 20238, Note_off_c, 1, 53, 61
3, 20240, Note_on_c, 1, 56, 55
3, 20318, Note_off_c, 1, 56, 55
3, 20320, Note_on_c, 1, 58, 30
3, 20398, Note_off_c, 1, 58, 30
3, 20400, Note_on_c, 1, 62, 51
3, 20478, Note_off_c, 1, 62, 51
3, 20480, Note_on_c, 1, 58, 35
3, 20558, Note_off_c, 1, 58, 35
3, 20560, Note_on_c, 1, 56, 50
3, 20638, Note_off_c, 1, 56, 50
3, 20640, Note_on_c, 1, 53, 51
3, 20718, Note_off_c, 1, 53, 51
3, 20720, Note_on_c, 1, 56, 53
3, 20798, Note_off_c, 1, 56, 53
3, 20800, Note_on_c, 1, 58, 48
3, 20849, Control_c, 1, 64, 0
3, 20878, Note_off_c, 1, 58, 48
3, 20880, Note_on_c, 1, 55, 52
3, 20924, Control_c, 1, 64, 127
3, 20958, Note_off_c, 1, 55, 52
3, 20960, Note_on_c, 1, 58, 50
3, 21038, Note_off_c, 1, 58, 50
3, 21040, Note_on_c, 1, 63, 51
3, 21118, Note_off_c, 1, 63, 51
3, 21120, Note_on_c, 1, 67, 36
3, 21198, Note_off_c, 1, 67, 36
3, 21200, Note_on_c, 1, 63, 37
3, 21278, Note_off_c, 1, 63, 37
3, 21280, Note_on_c, 1, 58, 53
3, 21358, Note_off_c, 1, 58, 53
3, 21360, Note_on_c, 1, 55, 55
3, 21438, Note_off_c, 1, 55, 55
3, 21440, Note_on_c, 1, 58, 48
3, 21518, Note_off_c, 1, 58, 48
3, 21520, Note_on_c, 1, 63, 43
3, 21579, Control_c, 1, 64, 0
3, 21598, Note_off_c, 1, 63, 43
3, 21600, Note_on_c, 1, 56, 45
3, 21621, Control_c, 1, 64, 127
3, 21678, Note_off_c, 1, 56, 45
3, 21680, Note_on_c, 1, 60, 50
3, 21758, Note_off_c, 1, 60, 50
3, 21760, Note_on_c, 1, 63, 57
3, 21838, Note_off_c, 1, 63, 57
3, 21920, Note_on_c, 1, 63, 34
3, 21998, Note_off_c, 1, 63, 34
3, 22000, Note_on_c, 1, 60, 38
3, 22078, Note_off_c, 1, 60, 38
3, 22080, Note_on_c, 1, 56, 35
3, 22158, Note_off_c, 1, 56, 35
3, 22160, Note_on_c, 1, 60, 37
3, 22238, Note_off_c, 1, 60, 37
3, 22240, Note_on_c, 1, 63, 34
3, 22289, Control_c, 1, 64, 0
3, 22318, Note_off_c, 1, 63, 34
3, 22320, Note_on_c, 1, 58, 55
3, 22364, Control_c, 1, 64, 127
3, 22398, Note_off_c, 1, 58, 55
3, 22400, Note_on_c, 1, 61, 42
3, 22478, Note_off_c, 1, 61, 42
3, 22480, Note_on_c, 1, 63, 34
3, 22558, Note_off_c, 1, 63, 34
3, 22560, Note_on_c, 1, 67, 43
3, 22638, Note_off_c, 1, 67, 43
3, 22640, Note_on_c, 1, 63, 35
3, 22718, Note_off_c, 1, 63, 35
3, 22720, Note_on_c, 1, 61, 35
3, 22798, Note_off_c, 1, 61, 35
3, 22800, Note_on_c, 1, 58, 45
3, 22878, Note_off_c, 1, 58, 45
3, 22880, Note_on_c, 1, 61, 33
3, 22958, Note_off_c, 1, 61, 33
3, 22960, Note_on_c, 1, 63, 23
3, 23019, Control_c, 1, 64, 0
3, 23038, Note_off_c, 1, 63, 23
3, 23040, Note_on_c, 1, 56, 48
3, 23061, Control_c, 1, 64, 127
3, 23118, Note_off_c, 1, 56, 48
3, 23120, Note_on_c, 1, 60, 42
3, 23198, Note_off_c, 1, 60, 42
3, 23200, Note_on_c, 1, 63, 45
3, 23278, Note_off_c, 1, 63, 45
3, 23280, Note_on_c, 1, 68, 41
3, 23358, Note_off_c, 1, 68, 41
3, 23360, Note_on_c, 1, 63, 36
3, 23438, Note_off_c, 1, 63, 36
3, 23440, Note_on_c, 1, 60, 45
3, 23518, Note_off_c, 1, 60, 45
3, 23520, Note_on_c, 1, 56, 36
3, 23598, Note_off_c, 1, 56, 36
3, 23600, Note_on_c, 1, 60, 45
3, 23678, Note_off_c, 1, 60, 45
3, 23680, Note_on_c, 1, 63, 28
3, 23729, Control_c, 1, 64, 0
3, 23758, Note_off_c, 1, 63, 28
3, 23760, Note_on_c, 1, 58, 52
3, 23804, Control_c, 1, 64, 127
3, 23838, Note_off_c, 1, 58, 52
3, 23840, Note_on_c, 1, 61, 45
3, 23918, Note_off_c, 1, 61, 45
3, 23920, Note_on_c, 1, 63, 41
3, 23998, Note_off_c, 1, 63, 41
3, 24000, Note_on_c, 1, 67, 46
3, 24078, Note_off_c, 1, 67, 46
3, 24080, Note_on_c, 1, 63, 27
3, 24158, Note_off_c, 1, 63, 27
3, 24160, Note_on_c, 1, 61, 28
3, 24238, Note_off_c, 1, 61, 28
3, 24240, Note_on_c, 1, 58, 42
3, 24318, Note_off_c, 1, 58, 42
3, 24320, Note_on_c, 1, 61, 26
3, 24398, Note_off_c, 1, 61, 26
3, 24400, Note_on_c, 1, 63, 32
3, 24459, Control_c, 1, 64, 0
3, 24478, Note_off_c, 1, 63, 32
3, 24480, Note_on_c, 1, 56, 55
3, 24501, Control_c, 1, 64, 127
3, 24558, Note_off_c, 1, 56, 55
3, 24560, Note_on_c, 1, 60, 48
3, 24638, Note_off_c, 1, 60, 48
3, 24640, Note_on_c, 1, 63, 47
3, 24718, Note_off_c, 1, 63, 47
3, 24720, Note_on_c, 1, 68, 61
3, 24798, Note_off_c, 1, 68, 61
3, 24800, Note_on_c, 1, 63, 41
3, 24878, Note_off_c, 1, 63, 41
3, 24880, Note_on_c, 1, 60, 52
3, 24958, Note_off_c, 1, 60, 52
3, 24960, Note_on_c, 1, 56, 46
3, 25038, Note_off_c, 1, 56, 46
3, 25040, Note_on_c, 1, 60, 43
3, 25118, Note_off_c, 1, 60, 43
3, 25120, Note_on_c, 1, 63, 23
3, 25169, Control_c, 1, 64, 0
3, 25198, Note_off_c, 1, 63, 23
3, 25200, Note_on_c, 1, 60, 52
3, 25918, Note_off_c, 1, 60, 52
3, 25920, Note_on_c, 1, 61, 56
3, 26398, Note_off_c, 1, 61, 56
3, 26640, Note_on_c, 1, 51, 37
3, 26684, Control_c, 1, 64, 127
3, 26718, Note_off_c, 1, 51, 37
3, 26720, Note_on_c, 1, 56, 61
3, 26798, Note_off_c, 1, 56, 61
3, 26800, Note_on_c, 1, 60, 52
3, 26878, Note_off_c, 1, 60, 52
3, 26880, Note_on_c, 1, 63, 56
3, 26958, Note_off_c, 1, 63, 56
3, 26960, Note_on_c, 1, 60, 47
3, 27038, Note_off_c, 1, 60, 47
3, 27040, Note_on_c, 1, 56, 45
3, 27118, Note_off_c, 1, 56, 45
3, 27120, Note_on_c, 1, 51, 48
3, 27198, Note_off_c, 1, 51, 48
3, 27200, Note_on_c, 1, 58, 52
3, 27278, Note_off_c, 1, 58, 52
3, 27280, Note_on_c, 1, 61, 52
3, 27339, Control_c, 1, 64, 0
3, 27358, Note_off_c, 1, 61, 52
3, 27360, Note_on_c, 1, 56, 46
3, 27419, Control_c, 1, 64, 127
3, 27598, Note_off_c, 1, 56, 46
3, 27772, Control_c, 1, 64, 0
3, 27840, Note_on_c, 1, 58, 31
3, 27840, Note_on_c, 1, 51, 47
3, 27872, Control_c, 1, 64, 127
3, 28049, Control_c, 1, 64, 0
3, 28078, Note_off_c, 1, 58, 31
3, 28078, Note_off_c, 1, 51, 47
3, 28080, Note_on_c, 1, 44, 52
3, 28080, Note_on_c, 1, 56, 38
3, 28112, Control_c, 1, 64, 127
3, 28318, Note_off_c, 1, 44, 52
3, 28318, Note_off_c, 1, 56, 38
3, 28490, Control_c, 1, 64, 0
3, 28560, Note_on_c, 1, 58, 40
3, 28560, Note_on_c, 1, 51, 55
3, 28590, Control_c, 1, 64, 127
3, 28779, Control_c, 1, 64, 0
3, 28798, Note_off_c, 1, 58, 40
3, 28798, Note_off_c, 1, 51, 55
3, 28800, Note_on_c, 1, 44, 42
3, 28878, Note_off_c, 1, 44, 42
3, 28880, Note_on_c, 1, 56, 57
3, 28958, Note_off_c, 1, 56, 57
3, 28960, Note_on_c, 1, 55, 53
3, 29038, Note_off_c, 1, 55, 53
3, 29040, Note_on_c, 1, 56, 52
3, 29069, Control_c, 1, 64, 127
3, 29118, Note_off_c, 1, 56, 52
3, 29120, Note_on_c, 1, 51, 52
3, 29198, Note_off_c, 1, 51, 52
3, 29200, Note_on_c, 1, 48, 58
3, 29278, Note_off_c, 1, 48, 58
3, 29280, Note_on_c, 1, 51, 50
3, 29358, Note_off_c, 1, 51, 50
3, 29360, Note_on_c, 1, 48, 57
3, 29438, Note_off_c, 1, 48, 57
3, 29440, Note_on_c, 1, 44, 51
3, 29518, Note_off_c, 1, 44, 51
3, 29520, Note_on_c, 1, 32, 40
3, 29736, Control_c, 1, 64, 0
3, 29758, Note_off_c, 1, 32, 40
3, 30240, Note_on_c, 1, 57, 47
3, 30261, Control_c, 1, 64, 127
3, 30318, Note_off_c, 1, 57, 47
3, 30320, Note_on_c, 1, 60, 47
3, 30398, Note_off_c, 1, 60, 47
3, 30400, Note_on_c, 1, 63, 30
3, 30478, Note_off_c, 1, 63, 30
3, 30480, Note_on_c, 1, 66, 48
3, 30558, Note_off_c, 1, 66, 48
3, 30560, Note_on_c, 1, 63, 16
3, 30638, Note_off_c, 1, 63, 16
3, 30640, Note_on_c, 1, 60, 27
3, 30718, Note_off_c, 1, 60, 27
3, 30720, Note_on_c, 1, 57, 28
3, 30798, Note_off_c, 1, 57, 28
3, 30800, Note_on_c, 1, 60, 26
3, 30878, Note_off_c, 1, 60, 26
3, 30880, Note_on_c, 1, 63, 23
3, 30929, Control_c, 1, 64, 0
3, 30958, Note_off_c, 1, 63, 23
3, 30960, Note_on_c, 1, 57, 28
3, 31004, Control_c, 1, 64, 127
3, 31038, Note_off_c, 1, 57, 28
3, 31040, Note_on_c, 1, 60, 47
3, 31118, Note_off_c, 1, 60, 47
3, 31120, Note_on_c, 1, 63, 42
3, 31198, Note_off_c, 1, 63, 42
3, 31200, Note_on_c, 1, 66, 64
3, 31278, Note_off_c, 1, 66, 64
3, 31280, Note_on_c, 1, 63, 25
3, 31358, Note_off_c, 1, 63, 25
3, 31360, Note_on_c, 1, 60, 32
3, 31438, Note_off_c, 1, 60, 32
3, 31440, Note_on_c, 1, 57, 42
3, 31518, Note_off_c, 1, 57, 42
3, 31520, Note_on_c, 1, 60, 43
3, 31598, Note_off_c, 1, 60, 43
3, 31600, Note_on_c, 1, 63, 28
3, 31659, Control_c, 1, 64, 0
3, 31678, Note_off_c, 1, 63, 28
3, 31680, Note_on_c, 1, 61, 55
3, 31680, Note_on_c, 1, 58, 53
3, 31701, Control_c, 1, 64, 127
3, 31918, Note_off_c, 1, 61, 55
3, 31918, Note_off_c, 1, 58, 53
3, 32369, Control_c, 1, 64, 0
3, 32560, Note_on_c, 1, 49, 47
3, 32638, Note_off_c, 1, 49, 47
3, 32640, Note_on_c, 1, 53, 58
3, 32718, Note_off_c, 1, 53, 58
3, 32720, Note_on_c, 1, 49, 30
3, 32798, Note_off_c, 1, 49, 30
3, 32800, Note_on_c, 1, 46, 33
3, 32878, Note_off_c, 1, 46, 33
3, 32880, Note_on_c, 1, 53, 64
3, 32958, Note_off_c, 1, 53, 64
3, 32960, Note_on_c, 1, 48, 58
3, 33038, Note_off_c, 1, 48, 58
3, 33040, Note_on_c, 1, 44, 56
3, 33118, Note_off_c, 1, 44, 56
3, 33120, Note_on_c, 1, 43, 55
3, 33198, Note_off_c, 1, 43, 55
3, 33200, Note_on_c, 1, 47, 58
3, 33278, Note_off_c, 1, 47, 58
3, 33280, Note_on_c, 1, 50, 62
3, 33358, Note_off_c, 1, 50, 62
3, 33360, Note_on_c, 1, 53, 68
3, 33438, Note_off_c, 1, 53, 68
3, 33440, Note_on_c, 1, 56, 64
3, 33518, Note_off_c, 1, 56, 64
3, 33520, Note_on_c, 1, 59, 66
3, 33598, Note_off_c, 1, 59, 66
3, 33600, Note_on_c, 1, 62, 64
3, 33678, Note_off_c, 1, 62, 64
3, 33680, Note_on_c, 1, 65, 60
3, 33758, Note_off_c, 1, 65, 60
3, 33760, Note_on_c, 1, 68, 67
3, 33838, Note_off_c, 1, 68, 67
3, 33840, Note_on_c, 1, 68, 57
3, 34318, Note_off_c, 1, 68, 57
3, 34320, Note_on_c, 1, 59, 25
3, 34558, Note_off_c, 1, 59, 25
3, 34560, Note_on_c, 1, 60, 33
3, 34581, Control_c, 1, 64, 127
3, 34638, Note_off_c, 1, 60, 33
3, 34640, Note_on_c, 1, 63, 33
3, 34718, Note_off_c, 1, 63, 33
3, 34720, Note_on_c, 1, 67, 27
3, 34798, Note_off_c, 1, 67, 27
3, 34880, Note_on_c, 1, 67, 43
3, 34958, Note_off_c, 1, 67, 43
3, 34960, Note_on_c, 1, 63, 34
3, 35038, Note_off_c, 1, 63, 34
3, 35040, Note_on_c, 1, 60, 50
3, 35118, Note_off_c, 1, 60, 50
3, 35120, Note_on_c, 1, 63, 36
3, 35198, Note_off_c, 1, 63, 36
3, 35200, Note_on_c, 1, 67, 36
3, 35249, Control_c, 1, 64, 0
3, 35278, Note_off_c, 1, 67, 36
3, 35280, Note_on_c, 1, 62, 45
3, 35324, Control_c, 1, 64, 127
3, 35358, Note_off_c, 1, 62, 45
3, 35360, Note_on_c, 1, 65, 58
3, 35438, Note_off_c, 1, 65, 58
3, 35440, Note_on_c, 1, 67, 48
3, 35518, Note_off_c, 1, 67, 48
3, 35520, Note_on_c, 1, 71, 58
3, 35598, Note_off_c, 1, 71, 58
3, 35600, Note_on_c, 1, 67, 41
3, 35678, Note_off_c, 1, 67, 41
3, 35680, Note_on_c, 1, 65, 33
3, 35758, Note_off_c, 1, 65, 33
3, 35760, Note_on_c, 1, 62, 46
3, 35838, Note_off_c, 1, 62, 46
3, 35840, Note_on_c, 1, 65, 45
3, 35918, Note_off_c, 1, 65, 45
3, 35920, Note_on_c, 1, 67, 46
3, 35979, Control_c, 1, 64, 0
3, 35998, Note_off_c, 1, 67, 46
3, 36000, Note_on_c, 1, 60, 56
3, 36021, Control_c, 1, 64, 127
3, 36078, Note_off_c, 1, 60, 56
3, 36080, Note_on_c, 1, 63, 34
3, 36158, Note_off_c, 1, 63, 34
3, 36160, Note_on_c, 1, 67, 35
3, 36238, Note_off_c, 1, 67, 35
3, 36320, Note_on_c, 1, 67, 38
3, 36398, Note_off_c, 1, 67, 38
3, 36400, Note_on_c, 1, 63, 48
3, 36478, Note_off_c, 1, 63, 48
3, 36480, Note_on_c, 1, 60, 42
3, 36558, Note_off_c, 1, 60, 42
3, 36560, Note_on_c, 1, 63, 45
3, 36638, Note_off_c, 1, 63, 45
3, 36640, Note_on_c, 1, 68, 42
3, 36689, Control_c, 1, 64, 0
3, 36718, Note_off_c, 1, 68, 42
3, 36720, Note_on_c, 1, 58, 45
3, 36764, Control_c, 1, 64, 127
3, 36798, Note_off_c, 1, 58, 45
3, 36800, Note_on_c, 1, 61, 33
3, 36878, Note_off_c, 1, 61, 33
3, 36880, Note_on_c, 1, 63, 32
3, 36958, Note_off_c, 1, 63, 32
3, 36960, Note_on_c, 1, 67, 58
3, 37038, Note_off_c, 1, 67, 58
3, 37040, Note_on_c, 1, 63, 45
3, 37118, Note_off_c, 1, 63, 45
3, 37120, Note_on_c, 1, 61, 40
3, 37198, Note_off_c, 1, 61, 40
3, 37200, Note_on_c, 1, 58, 48
3, 37278, Note_off_c, 1, 58, 48
3, 37280, Note_on_c, 1, 61, 41
3, 37358, Note_off_c, 1, 61, 41
3, 37360, Note_on_c, 1, 63, 36
3, 37419, Control_c, 1, 64, 0
3, 37438, Note_off_c, 1, 63, 36
3, 37440, Note_on_c, 1, 56, 53
3, 37461, Control_c, 1, 64, 127
3, 37518, Note_off_c, 1, 56, 53
3, 37520, Note_on_c, 1, 60, 58
3, 37598, Note_off_c, 1, 60, 58
3, 37600, Note_on_c, 1, 63, 46
3, 37678, Note_off_c, 1, 63, 46
3, 37760, Note_on_c, 1, 63, 26
3, 37838, Note_off_c, 1, 63, 26
3, 37840, Note_on_c, 1, 60, 40
3, 37918, Note_off_c, 1, 60, 40
3, 37920, Note_on_c, 1, 56, 57
3, 37998, Note_off_c, 1, 56, 57
3, 38000, Note_on_c, 1, 60, 45
3, 38078, Note_off_c, 1, 60, 45
3, 38080, Note_on_c, 1, 63, 48
3, 38129, Control_c, 1, 64, 0
3, 38158, Note_off_c, 1, 63, 48
3, 38160, Note_on_c, 1, 55, 45
3, 38204, Control_c, 1, 64, 127
3, 38238, Note_off_c, 1, 55, 45
3, 38240, Note_on_c, 1, 58, 43
3, 38318, Note_off_c, 1, 58, 43
3, 38320, Note_on_c, 1, 60, 42
3, 38398, Note_off_c, 1, 60, 42
3, 38400, Note_on_c, 1, 64, 51
3, 38478, Note_off_c, 1, 64, 51
3, 38480, Note_on_c, 1, 60, 32
3, 38558, Note_off_c, 1, 60, 32
3, 38560, Note_on_c, 1, 58, 37
3, 38638, Note_off_c, 1, 58, 37
3, 38640, Note_on_c, 1, 55, 42
3, 38718, Note_off_c, 1, 55, 42
3, 38720, Note_on_c, 1, 58, 38
3, 38798, Note_off_c, 1, 58, 38
3, 38800, Note_on_c, 1, 60, 36
3, 38859, Control_c, 1, 64, 0
3, 38878, Note_off_c, 1, 60, 36
3, 38880, Note_on_c, 1, 53, 61
3, 38901, Control_c, 1, 64, 127
3, 39358, Note_off_c, 1, 53, 61
3, 39360, Note_on_c, 1, 49, 55
3, 39569, Control_c, 1, 64, 0
3, 39598, Note_off_c, 1, 49, 55
3, 39600, Note_on_c, 1, 48, 51
3, 39644, Control_c, 1, 64, 127
3, 39678, Note_off_c, 1, 48, 51
3, 39680, Note_on_c, 1, 52, 63
3, 39758, Note_off_c, 1, 52, 63
3, 39760, Note_on_c, 1, 55, 55
3, 39838, Note_off_c, 1, 55, 55
3, 39840, Note_on_c, 1, 60, 46
3, 39918, Note_off_c, 1, 60, 46
3, 39920, Note_on_c, 1, 64, 50
3, 39998, Note_off_c, 1, 64, 50
3, 40000, Note_on_c, 1, 67, 63
3, 40078, Note_off_c, 1, 67, 63
3, 40080, Note_on_c, 1, 72, 61
3, 40158, Note_off_c, 1, 72, 61
3, 40160, Note_on_c, 1, 67, 52
3, 40238, Note_off_c, 1, 67, 52
3, 40240, Note_on_c, 1, 64, 58
3, 40299, Control_c, 1, 64, 0
3, 40318, Note_off_c, 1, 64, 58
3, 40320, Note_on_c, 1, 70, 70
3, 40320, Note_on_c, 1, 60, 66
3, 41038, Note_off_c, 1, 70, 70
3, 41038, Note_off_c, 1, 60, 66
3, 41040, Note_on_c, 1, 68, 63
3, 41040, Note_on_c, 1, 60, 52
3, 41758, Note_off_c, 1, 68, 63
3, 41758, Note_off_c, 1, 60, 52
3, 41760, Note_on_c, 1, 64, 52
3, 41760, Note_on_c, 1, 60, 56
3, 42478, Note_off_c, 1, 64, 52
3, 42478, Note_off_c, 1, 60, 56
3, 42480, Note_on_c, 1, 65, 66
3, 42480, Note_on_c, 1, 60, 56
3, 43198, Note_off_c, 1, 65, 66
3, 43198, Note_off_c, 1, 60, 56
3, 43200, Note_on_c, 1, 48, 53
3, 43221, Control_c, 1, 64, 127
3, 43278, Note_off_c, 1, 48, 53
3, 43280, Note_on_c, 1, 51, 48
3, 43358, Note_off_c, 1, 51, 48
3, 43360, Note_on_c, 1, 56, 47
3, 43438, Note_off_c, 1, 56, 47
3, 43440, Note_on_c, 1, 60, 42
3, 43518, Note_off_c, 1, 60, 42
3, 43520, Note_on_c, 1, 56, 37
3, 43598, Note_off_c, 1, 56, 37
3, 43600, Note_on_c, 1, 51, 43
3, 43678, Note_off_c, 1, 51, 43
3, 43680, Note_on_c, 1, 48, 51
3, 43758, Note_off_c, 1, 48, 51
3, 43760, Note_on_c, 1, 51, 47
3, 43838, Note_off_c, 1, 51, 47
3, 43840, Note_on_c, 1, 56, 37
3, 43889, Control_c, 1, 64, 0
3, 43918, Note_off_c, 1, 56, 37
3, 43920, Note_on_c, 1, 49, 52
3, 43964, Control_c, 1, 64, 127
3, 43998, Note_off_c, 1, 49, 52
3, 44000, Note_on_c, 1, 53, 54
3, 44078, Note_off_c, 1, 53, 54
3, 44080, Note_on_c, 1, 56, 46
3, 44158, Note_off_c, 1, 56, 46
3, 44160, Note_on_c, 1, 61, 40
3, 44238, Note_off_c, 1, 61, 40
3, 44240, Note_on_c, 1, 56, 43
3, 44318, Note_off_c, 1, 56, 43
3, 44320, Note_on_c, 1, 53, 43
3, 44398, Note_off_c, 1, 53, 43
3, 44400, Note_on_c, 1, 49, 45
3, 44478, Note_off_c, 1, 49, 45
3, 44480, Note_on_c, 1, 53, 45
3, 44558, Note_off_c, 1, 53, 45
3, 44560, Note_on_c, 1, 56, 55
3, 44619, Control_c, 1, 64, 0
3, 44638, Note_off_c, 1, 56, 55
3, 44640, Note_on_c, 1, 47, 43
3, 44661, Control_c, 1, 64, 127
3, 44718, Note_off_c, 1, 47, 43
3, 44720, Note_on_c, 1, 50, 38
3, 44798, Note_off_c, 1, 50, 38
3, 44800, Note_on_c, 1, 53, 37
3, 44878, Note_off_c, 1, 53, 37
3, 44880, Note_on_c, 1, 56, 32
3, 44958, Note_off_c, 1, 56, 32
3, 44960, Note_on_c, 1, 53, 27
3, 45038, Note_off_c, 1, 53, 27
3, 45040, Note_on_c, 1, 50, 33
3, 45118, Note_off_c, 1, 50, 33
3, 45120, Note_on_c, 1, 47, 41
3, 45198, Note_off_c, 1, 47, 41
3, 45200, Note_on_c, 1, 50, 37
3, 45278, Note_off_c, 1, 50, 37
3, 45280, Note_on_c, 1, 53, 27
3, 45329, Control_c, 1, 64, 0
3, 45358, Note_off_c, 1, 53, 27
3, 45360, Note_on_c, 1, 48, 42
3, 45404, Control_c, 1, 64, 127
3, 45438, Note_off_c, 1, 48, 42
3, 45440, Note_on_c, 1, 52, 44
3, 45518, Note_off_c, 1, 52, 44
3, 45520, Note_on_c, 1, 55, 36
3, 45598, Note_off_c, 1, 55, 36
3, 45600, Note_on_c, 1, 60, 30
3, 45678, Note_off_c, 1, 60, 30
3, 45680, Note_on_c, 1, 55, 33
3, 45758, Note_off_c, 1, 55, 33
3, 45760, Note_on_c, 1, 52, 33
3, 45838, Note_off_c, 1, 52, 33
3, 45840, Note_on_c, 1, 48, 35
3, 45918, Note_off_c, 1, 48, 35
3, 45920, Note_on_c, 1, 52, 35
3, 45998, Note_off_c, 1, 52, 35
3, 46000, Note_on_c, 1, 55, 45
3, 46059, Control_c, 1, 64, 0
3, 46078, Note_off_c, 1, 55, 45
3, 46080, Note_on_c, 1, 52, 42
3, 46101, Control_c, 1, 64, 127
3, 46158, Note_off_c, 1, 52, 42
3, 46160, Note_on_c, 1, 55, 33
3, 46238, Note_off_c, 1, 55, 33
3, 46240, Note_on_c, 1, 58, 45
3, 46318, Note_off_c, 1, 58, 45
3, 46320, Note_on_c, 1, 60, 38
3, 46398, Note_off_c, 1, 60, 38
3, 46400, Note_on_c, 1, 58, 38
3, 46478, Note_off_c, 1, 58, 38
3, 46480, Note_on_c, 1, 55, 28
3, 46558, Note_off_c, 1, 55, 28
3, 46560, Note_on_c, 1, 52, 36
3, 46638, Note_off_c, 1, 52, 36
3, 46640, Note_on_c, 1, 55, 36
3, 46718, Note_off_c, 1, 55, 36
3, 46720, Note_on_c, 1, 58, 33
3, 46769, Control_c, 1, 64, 0
3, 46798, Note_off_c, 1, 58, 33
3, 46800, Note_on_c, 1, 53, 38
3, 46844, Control_c, 1, 64, 127
3, 46878, Note_off_c, 1, 53, 38
3, 46880, Note_on_c, 1, 56, 47
3, 46958, Note_off_c, 1, 56, 47
3, 46960, Note_on_c, 1, 60, 50
3, 47038, Note_off_c, 1, 60, 50
3, 47040, Note_on_c, 1, 65, 55
3, 47118, Note_off_c, 1, 65, 55
3, 47120, Note_on_c, 1, 60, 40
3, 47198, Note_off_c, 1, 60, 40
3, 47200, Note_on_c, 1, 56, 45
3, 47278, Note_off_c, 1, 56, 45
3, 47280, Note_on_c, 1, 53, 36
3, 47358, Note_off_c, 1, 53, 36
3, 47360, Note_on_c, 1, 56, 27
3, 47438, Note_off_c, 1, 56, 27
3, 47440, Note_on_c, 1, 60, 38
3, 47499, Control_c, 1, 64, 0
3, 47518, Note_off_c, 1, 60, 38
3, 47520, Note_on_c, 1, 55, 46
3, 47541, Control_c, 1, 64, 127
3, 47598, Note_off_c, 1, 55, 46
3, 47600, Note_on_c, 1, 58, 42
3, 47678, Note_off_c, 1, 58, 42
3, 47680, Note_on_c, 1, 60, 46
3, 47758, Note_off_c, 1, 60, 46
3, 47760, Note_on_c, 1, 64, 52
3, 47838, Note_off_c, 1, 64, 52
3, 47840, Note_on_c, 1, 60, 42
3, 47918, Note_off_c, 1, 60, 42
3, 47920, Note_on_c, 1, 58, 41
3, 47998, Note_off_c, 1, 58, 41
3, 48000, Note_on_c, 1, 55, 47
3, 48078, Note_off_c, 1, 55, 47
3, 48080, Note_on_c, 1, 58, 28
3, 48158, Note_off_c, 1, 58, 28
3, 48160, Note_on_c, 1, 60, 41
3, 48209, Control_c, 1, 64, 0
3, 48238, Note_off_c, 1, 60, 41
3, 48240, Note_on_c, 1, 53, 55
3, 48284, Control_c, 1, 64, 127
3, 48718, Note_off_c, 1, 53, 55
3, 48939, Control_c, 1, 64, 0
3, 48960, Note_on_c, 1, 47, 66
3, 48960, Note_on_c, 1, 35, 69
3, 48981, Control_c, 1, 64, 127
3, 49438, Note_off_c, 1, 47, 66
3, 49438, Note_off_c, 1, 35, 69
3, 49649, Control_c, 1, 64, 0
3, 49680, Note_on_c, 1, 36, 68
3, 49680, Note_on_c, 1, 48, 60
3, 49724, Control_c, 1, 64, 127
3, 50379, Control_c, 1, 64, 0
3, 51118, Note_off_c, 1, 36, 68
3, 51118, Note_off_c, 1, 48, 60
3, 51120, Note_on_c, 1, 58, 52
3, 51120, Note_on_c, 1, 48, 55
3, 51358, Note_off_c, 1, 58, 52
3, 51360, Note_on_c, 1, 56, 46
3, 51598, Note_off_c, 1, 56, 46
3, 51600, Note_on_c, 1, 52, 55
3, 51838, Note_off_c, 1, 48, 55
3, 51838, Note_off_c, 1, 52, 55
3, 51861, Control_c, 1, 64, 127
3, 51920, Note_on_c, 1, 49, 55
3, 51998, Note_off_c, 1, 49, 55
3, 52000, Note_on_c, 1, 53, 61
3, 52078, Note_off_c, 1, 53, 61
3, 52080, Note_on_c, 1, 56, 47
3, 52158, Note_off_c, 1, 56, 47
3, 52160, Note_on_c, 1, 61, 53
3, 52238, Note_off_c, 1, 61, 53
3, 52240, Note_on_c, 1, 65, 55
3, 52318, Note_off_c, 1, 65, 55
3, 52529, Control_c, 1, 64, 0
3, 52560, Note_on_c, 1, 35, 67
3, 52604, Control_c, 1, 64, 127
3, 52638, Note_off_c, 1, 35, 67
3, 52640, Note_on_c, 1, 47, 73
3, 52718, Note_off_c, 1, 47, 73
3, 53259, Control_c, 1, 64, 0
3, 53280, Note_on_c, 1, 36, 64
3, 53301, Control_c, 1, 64, 127
3, 53518, Note_off_c, 1, 36, 64
3, 53969, Control_c, 1, 64, 0
3, 54000, Note_on_c, 1, 48, 55
3, 54044, Control_c, 1, 64, 127
3, 54078, Note_off_c, 1, 48, 55
3, 54080, Note_on_c, 1, 53, 53
3, 54158, Note_off_c, 1, 53, 53
3, 54160, Note_on_c, 1, 56, 50
3, 54238, Note_off_c, 1, 56, 50
3, 54240, Note_on_c, 1, 60, 48
3, 54318, Note_off_c, 1, 60, 48
3, 54320, Note_on_c, 1, 56, 45
3, 54398, Note_off_c, 1, 56, 45
3, 54400, Note_on_c, 1, 53, 46
3, 54478, Note_off_c, 1, 53, 46
3, 54480, Note_on_c, 1, 48, 53
3, 54558, Note_off_c, 1, 48, 53
3, 54560, Note_on_c, 1, 55, 52
3, 54638, Note_off_c, 1, 55, 52
3, 54640, Note_on_c, 1, 58, 45
3, 54699, Control_c, 1, 64, 0
3, 54718, Note_off_c, 1, 58, 45
3, 54720, Note_on_c, 1, 56, 36
3, 54720, Note_on_c, 1, 53, 56
3, 54958, Note_off_c, 1, 56, 36
3, 54958, Note_off_c, 1, 53, 56
3, 55200, Note_on_c, 1, 48, 52
3, 55438, Note_off_c, 1, 48, 52
3, 55440, Note_on_c, 1, 53, 46
3, 55678, Note_off_c, 1, 53, 46
3, 55920, Note_on_c, 1, 48, 55
3, 56158, Note_off_c, 1, 48, 55
3, 56160, Note_on_c, 1, 41, 53
3, 56238, Note_off_c, 1, 41, 53
3, 56240, Note_on_c, 1, 53, 52
3, 56318, Note_off_c, 1, 53, 52
3, 56320, Note_on_c, 1, 52, 57
3, 56398, Note_off_c, 1, 52, 57
3, 56400, Note_on_c, 1, 53, 45
3, 56478, Note_off_c, 1, 53, 45
3, 56480, Note_on_c, 1, 48, 48
3, 56558, Note_off_c, 1, 48, 48
3, 56560, Note_on_c, 1, 44, 43
3, 56638, Note_off_c, 1, 44, 43
3, 56640, Note_on_c, 1, 48, 43
3, 56718, Note_off_c, 1, 48, 43
3, 56720, Note_on_c, 1, 44, 38
3, 56798, Note_off_c, 1, 44, 38
3, 56800, Note_on_c, 1, 41, 34
3, 56878, Note_off_c, 1, 41, 34
3, 56880, Note_on_c, 1, 29, 37
3, 57118, Note_off_c, 1, 29, 37
3, 57600, End_track
0, 0, End_of_file
