0, 0, Header, 1, 3, 480
1, 0, Start_track
1, 0, Title_t, "nameless"
1, 0, Time_signature, 2, 2, 24, 8
1, 0, Tempo, 384615
1, 106431, Tempo, 387097
1, 106545, Tempo, 392157
1, 106850, Tempo, 402685
1, 107154, Tempo, 413793
1, 107458, Tempo, 425532
1, 107724, Tempo, 434783
1, 107791, Tempo, 387097
1, 191871, Tempo, 387097
1, 191985, Tempo, 392157
1, 192290, Tempo, 402685
1, 192594, Tempo, 413793
1, 192898, Tempo, 425532
1, 193164, Tempo, 434783
1, 193231, Tempo, 387097
1, 193920, End_track
2, 0, Start_track
2, 0, MIDI_port, 0
2, 0, Channel_prefix, 0
2, 0, Title_t, "Piano R.H."
2, 0, Key_signature, -1, "major"
2, 0, Control_c, 0, 0, 0
2, 5, Program_c, 0, 0
2, 10, Control_c, 0, 7, 127
2, 15, Control_c, 0, 10, 64
2, 20, Control_c, 0, 91, 74
2, 25, Control_c, 0, 93, 0
2, 30, Control_c, 0, 94, 0
2, 35, Control_c, 0, 5, 0
2, 40, Control_c, 0, 11, 127
2, 960, Control_c, 0, 101, 0
2, 965, Control_c, 0, 100, 0
2, 970, Control_c, 0, 6, 2
2, 975, Control_c, 0, 101, 127
2, 980, Control_c, 0, 100, 127
2, 2640, Note_on_c, 0, 72, 74
2, 2878, Note_off_c, 0, 72, 74
2, 2880, Note_on_c, 0, 65, 74
2, 3118, Note_off_c, 0, 65, 74
2, 3120, Note_on_c, 0, 69, 72
2, 3238, Note_off_c, 0, 69, 72
2, 3360, Note_on_c, 0, 62, 76
2, 3478, Note_off_c, 0, 62, 76
2, 3600, Note_on_c, 0, 74, 73
2, 3718, Note_off_c, 0, 74, 73
2, 3840, Note_on_c, 0, 65, 73
2, 4318, Note_off_c, 0, 65, 73
2, 4320, Note_on_c, 0, 64, 68
2, 4438, Note_off_c, 0, 64, 68
2, 4560, Note_on_c, 0, 70, 83
2, 4678, Note_off_c, 0, 70, 83
2, 4800, Note_on_c, 0, 67, 94
2, 5038, Note_off_c, 0, 67, 94
2, 5040, Note_on_c, 0, 76, 78
2, 5158, Note_off_c, 0, 76, 78
2, 5280, Note_on_c, 0, 70, 81
2, 5518, Note_off_c, 0, 70, 81
2, 5520, Note_on_c, 0, 79, 86
2, 5638, Note_off_c, 0, 79, 86
2, 5760, Note_on_c, 0, 70, 72
2, 6238, Note_off_c, 0, 70, 72
2, 6240, Note_on_c, 0, 69, 74
2, 6358, Note_off_c, 0, 69, 74
2, 6480, Note_on_c, 0, 72, 89
2, 6598, Note_off_c, 0, 72, 89
2, 6720, Note_on_c, 0, 63, 74
2, 6958, Note_off_c, 0, 63, 74
2, 6960, Note_on_c, 0, 75, 78
2, 7078, Note_off_c, 0, 75, 78
2, 7200, Note_on_c, 0, 65, 74
2, 7438, Note_off_c, 0, 65, 74
2, 7440, Note_on_c, 0, 72, 77
2, 7558, Note_off_c, 0, 72, 77
2, 7680, Note_on_c, 0, 73, 83
2, 8158, Note_off_c, 0, 73, 83
2, 8160, Note_on_c, 0, 74, 78
2, 8278, Note_off_c, 0, 74, 78
2, 8400, Note_on_c, 0, 67, 74
2, 8518, Note_off_c, 0, 67, 74
2, 8640, Note_on_c, 0, 69, 76
2, 8878, Note_off_c, 0, 69, 76
2, 8880, Note_on_c, 0, 70, 65
2, 8998, Note_off_c, 0, 70, 65
2, 9120, Note_on_c, 0, 64, 77
2, 9238, Note_off_c, 0, 64, 77
2, 9360, Note_on_c, 0, 67, 74
2, 9478, Note_off_c, 0, 67, 74
2, 9600, Note_on_c, 0, 65, 83
2, 10078, Note_off_c, 0, 65, 83
2, 10320, Note_on_c, 0, 84, 78
2, 10438, Note_off_c, 0, 84, 78
2, 10560, Note_on_c, 0, 77, 81
2, 10798, Note_off_c, 0, 77, 81
2, 10800, Note_on_c, 0, 81, 81
2, 10918, Note_off_c, 0, 81, 81
2, 11040, Note_on_c, 0, 72, 73
2, 11158, Note_off_c, 0, 72, 73
2, 11280, Note_on_c, 0, 77, 78
2, 11398, Note_off_c, 0, 77, 78
2, 11520, Note_on_c, 0, 76, 70
2, 11758, Note_off_c, 0, 76, 70
2, 11760, Note_on_c, 0, 77, 71
2, 11998, Note_off_c, 0, 77, 71
2, 12000, Note_on_c, 0, 79, 72
2, 12118, Note_off_c, 0, 79, 72
2, 12240, Note_on_c, 0, 84, 74
2, 12358, Note_off_c, 0, 84, 74
2, 12480, Note_on_c, 0, 79, 74
2, 12718, Note_off_c, 0, 79, 74
2, 12720, Note_on_c, 0, 82, 74
2, 12958, Note_off_c, 0, 82, 74
2, 12960, Note_on_c, 0, 72, 72
2, 13198, Note_off_c, 0, 72, 72
2, 13200, Note_on_c, 0, 76, 74
2, 13318, Note_off_c, 0, 76, 74
2, 13440, Note_on_c, 0, 77, 71
2, 13678, Note_off_c, 0, 77, 71
2, 13680, Note_on_c, 0, 79, 76
2, 13918, Note_off_c, 0, 79, 76
2, 13920, Note_on_c, 0, 81, 79
2, 14038, Note_off_c, 0, 81, 79
2, 14160, Note_on_c, 0, 84, 74
2, 14278, Note_off_c, 0, 84, 74
2, 14400, Note_on_c, 0, 77, 72
2, 14638, Note_off_c, 0, 77, 72
2, 14640, Note_on_c, 0, 84, 81
2, 14758, Note_off_c, 0, 84, 81
2, 14880, Note_on_c, 0, 77, 76
2, 15118, Note_off_c, 0, 77, 76
2, 15120, Note_on_c, 0, 75, 71
2, 15598, Note_off_c, 0, 75, 71
2, 15600, Note_on_c, 0, 73, 72
2, 15838, Note_off_c, 0, 73, 72
2, 15840, Note_on_c, 0, 74, 81
2, 15958, Note_off_c, 0, 74, 81
2, 16080, Note_on_c, 0, 69, 70
2, 16080, Note_on_c, 0, 66, 61
2, 16318, Note_off_c, 0, 69, 70
2, 16318, Note_off_c, 0, 66, 61
2, 16320, Note_on_c, 0, 70, 73
2, 16320, Note_on_c, 0, 67, 67
2, 16558, Note_off_c, 0, 70, 73
2, 16558, Note_off_c, 0, 67, 67
2, 16560, Note_on_c, 0, 72, 76
2, 16560, Note_on_c, 0, 69, 70
2, 16798, Note_off_c, 0, 72, 76
2, 16798, Note_off_c, 0, 69, 70
2, 16800, Note_on_c, 0, 70, 65
2, 16800, Note_on_c, 0, 74, 74
2, 16918, Note_off_c, 0, 70, 65
2, 16918, Note_off_c, 0, 74, 74
2, 17040, Note_on_c, 0, 70, 71
2, 17040, Note_on_c, 0, 67, 66
2, 17158, Note_off_c, 0, 70, 71
2, 17158, Note_off_c, 0, 67, 66
2, 17280, Note_on_c, 0, 65, 62
2, 17280, Note_on_c, 0, 69, 73
2, 17758, Note_off_c, 0, 65, 62
2, 17758, Note_off_c, 0, 69, 73
2, 17760, Note_on_c, 0, 67, 70
2, 17760, Note_on_c, 0, 64, 58
2, 17878, Note_off_c, 0, 67, 70
2, 17878, Note_off_c, 0, 64, 58
2, 18000, Note_on_c, 0, 76, 66
2, 18238, Note_off_c, 0, 76, 66
2, 18240, Note_on_c, 0, 79, 77
2, 18478, Note_off_c, 0, 79, 77
2, 18480, Note_on_c, 0, 72, 67
2, 18718, Note_off_c, 0, 72, 67
2, 18720, Note_on_c, 0, 71, 68
2, 18958, Note_off_c, 0, 71, 68
2, 18960, Note_on_c, 0, 77, 68
2, 18960, Note_on_c, 0, 74, 62
2, 19198, Note_off_c, 0, 77, 68
2, 19198, Note_off_c, 0, 74, 62
2, 19200, Note_on_c, 0, 77, 56
2, 19200, Note_on_c, 0, 74, 57
2, 19438, Note_off_c, 0, 77, 56
2, 19438, Note_off_c, 0, 74, 57
2, 19440, Note_on_c, 0, 72, 56
2, 19440, Note_on_c, 0, 76, 65
2, 19678, Note_off_c, 0, 72, 56
2, 19678, Note_off_c, 0, 76, 65
2, 19680, Note_on_c, 0, 71, 62
2, 19680, Note_on_c, 0, 74, 72
2, 19918, Note_off_c, 0, 71, 62
2, 19918, Note_off_c, 0, 74, 72
2, 19920, Note_on_c, 0, 75, 51
2, 20158, Note_off_c, 0, 75, 51
2, 20160, Note_on_c, 0, 79, 42
2, 20398, Note_off_c, 0, 79, 42
2, 20400, Note_on_c, 0, 72, 62
2, 20638, Note_off_c, 0, 72, 62
2, 20640, Note_on_c, 0, 71, 61
2, 20878, Note_off_c, 0, 71, 61
2, 20880, Note_on_c, 0, 77, 65
2, 20880, Note_on_c, 0, 74, 62
2, 21118, Note_off_c, 0, 77, 65
2, 21118, Note_off_c, 0, 74, 62
2, 21120, Note_on_c, 0, 77, 55
2, 21120, Note_on_c, 0, 74, 53
2, 21358, Note_off_c, 0, 77, 55
2, 21358, Note_off_c, 0, 74, 53
2, 21360, Note_on_c, 0, 75, 41
2, 21360, Note_on_c, 0, 72, 39
2, 21598, Note_off_c, 0, 75, 41
2, 21598, Note_off_c, 0, 72, 39
2, 21600, Note_on_c, 0, 71, 51
2, 21600, Note_on_c, 0, 74, 63
2, 21838, Note_off_c, 0, 71, 51
2, 21838, Note_off_c, 0, 74, 63
2, 21840, Note_on_c, 0, 76, 67
2, 22078, Note_off_c, 0, 76, 67
2, 22080, Note_on_c, 0, 79, 82
2, 22198, Note_off_c, 0, 79, 82
2, 22320, Note_on_c, 0, 72, 78
2, 22558, Note_off_c, 0, 72, 78
2, 22560, Note_on_c, 0, 71, 75
2, 22798, Note_off_c, 0, 71, 75
2, 22800, Note_on_c, 0, 70, 77
2, 23158, Note_off_c, 0, 70, 77
2, 23160, Note_on_c, 0, 69, 76
2, 23278, Note_off_c, 0, 69, 76
2, 23280, Note_on_c, 0, 68, 62
2, 23398, Note_off_c, 0, 68, 62
2, 23400, Note_on_c, 0, 69, 66
2, 23518, Note_off_c, 0, 69, 66
2, 23520, Note_on_c, 0, 71, 78
2, 23638, Note_off_c, 0, 71, 78
2, 23640, Note_on_c, 0, 69, 78
2, 23758, Note_off_c, 0, 69, 78
2, 23760, Note_on_c, 0, 73, 84
2, 23878, Note_off_c, 0, 73, 84
2, 23880, Note_on_c, 0, 69, 63
2, 23998, Note_off_c, 0, 69, 63
2, 24000, Note_on_c, 0, 74, 88
2, 24118, Note_off_c, 0, 74, 88
2, 24120, Note_on_c, 0, 69, 60
2, 24238, Note_off_c, 0, 69, 60
2, 24240, Note_on_c, 0, 76, 89
2, 24358, Note_off_c, 0, 76, 89
2, 24360, Note_on_c, 0, 69, 75
2, 24478, Note_off_c, 0, 69, 75
2, 24480, Note_on_c, 0, 77, 99
2, 24598, Note_off_c, 0, 77, 99
2, 24600, Note_on_c, 0, 69, 84
2, 24718, Note_off_c, 0, 69, 84
2, 24720, Note_on_c, 0, 79, 93
2, 24838, Note_off_c, 0, 79, 93
2, 24840, Note_on_c, 0, 69, 76
2, 24958, Note_off_c, 0, 69, 76
2, 24960, Note_on_c, 0, 81, 99
2, 25438, Note_off_c, 0, 81, 99
2, 25440, Note_on_c, 0, 79, 55
2, 25558, Note_off_c, 0, 79, 55
2, 25560, Note_on_c, 0, 77, 68
2, 25678, Note_off_c, 0, 77, 68
2, 25680, Note_on_c, 0, 76, 71
2, 25798, Note_off_c, 0, 76, 71
2, 25800, Note_on_c, 0, 74, 56
2, 25918, Note_off_c, 0, 74, 56
2, 25920, Note_on_c, 0, 73, 41
2, 26038, Note_off_c, 0, 73, 41
2, 26040, Note_on_c, 0, 74, 62
2, 26158, Note_off_c, 0, 74, 62
2, 26160, Note_on_c, 0, 76, 40
2, 26278, Note_off_c, 0, 76, 40
2, 26280, Note_on_c, 0, 74, 63
2, 26398, Note_off_c, 0, 74, 63
2, 26400, Note_on_c, 0, 79, 62
2, 26518, Note_off_c, 0, 79, 62
2, 26520, Note_on_c, 0, 77, 68
2, 26638, Note_off_c, 0, 77, 68
2, 26640, Note_on_c, 0, 76, 71
2, 26758, Note_off_c, 0, 76, 71
2, 26760, Note_on_c, 0, 74, 68
2, 26878, Note_off_c, 0, 74, 68
2, 26880, Note_on_c, 0, 72, 68
2, 27598, Note_off_c, 0, 72, 68
2, 27600, Note_on_c, 0, 76, 57
2, 27718, Note_off_c, 0, 76, 57
2, 27720, Note_on_c, 0, 74, 63
2, 27838, Note_off_c, 0, 74, 63
2, 27840, Note_on_c, 0, 72, 68
2, 28078, Note_off_c, 0, 72, 68
2, 28560, Note_on_c, 0, 74, 94
2, 28678, Note_off_c, 0, 74, 94
2, 28680, Note_on_c, 0, 71, 81
2, 28798, Note_off_c, 0, 71, 81
2, 28800, Note_on_c, 0, 74, 92
2, 28918, Note_off_c, 0, 74, 92
2, 28920, Note_on_c, 0, 71, 76
2, 29038, Note_off_c, 0, 71, 76
2, 29040, Note_on_c, 0, 77, 74
2, 29158, Note_off_c, 0, 77, 74
2, 29160, Note_on_c, 0, 74, 94
2, 29278, Note_off_c, 0, 74, 94
2, 29280, Note_on_c, 0, 71, 78
2, 29398, Note_off_c, 0, 71, 78
2, 29400, Note_on_c, 0, 67, 71
2, 29518, Note_off_c, 0, 67, 71
2, 29520, Note_on_c, 0, 74, 78
2, 29638, Note_off_c, 0, 74, 78
2, 29640, Note_on_c, 0, 71, 65
2, 29758, Note_off_c, 0, 71, 65
2, 29760, Note_on_c, 0, 74, 86
2, 29878, Note_off_c, 0, 74, 86
2, 29880, Note_on_c, 0, 71, 72
2, 29998, Note_off_c, 0, 71, 72
2, 30000, Note_on_c, 0, 77, 83
2, 30118, Note_off_c, 0, 77, 83
2, 30120, Note_on_c, 0, 74, 94
2, 30238, Note_off_c, 0, 74, 94
2, 30240, Note_on_c, 0, 71, 77
2, 30358, Note_off_c, 0, 71, 77
2, 30360, Note_on_c, 0, 67, 78
2, 30478, Note_off_c, 0, 67, 78
2, 30480, Note_on_c, 0, 74, 74
2, 30598, Note_off_c, 0, 74, 74
2, 30600, Note_on_c, 0, 71, 61
2, 30718, Note_off_c, 0, 71, 61
2, 30720, Note_on_c, 0, 74, 81
2, 30838, Note_off_c, 0, 74, 81
2, 30840, Note_on_c, 0, 71, 62
2, 30958, Note_off_c, 0, 71, 62
2, 30960, Note_on_c, 0, 77, 81
2, 31078, Note_off_c, 0, 77, 81
2, 31080, Note_on_c, 0, 74, 97
2, 31198, Note_off_c, 0, 74, 97
2, 31200, Note_on_c, 0, 71, 76
2, 31318, Note_off_c, 0, 71, 76
2, 31320, Note_on_c, 0, 67, 74
2, 31438, Note_off_c, 0, 67, 74
2, 31440, Note_on_c, 0, 74, 74
2, 31558, Note_off_c, 0, 74, 74
2, 31560, Note_on_c, 0, 71, 86
2, 31678, Note_off_c, 0, 71, 86
2, 31680, Note_on_c, 0, 67, 83
2, 31798, Note_off_c, 0, 67, 83
2, 31800, Note_on_c, 0, 65, 78
2, 31918, Note_off_c, 0, 65, 78
2, 31920, Note_on_c, 0, 71, 74
2, 32038, Note_off_c, 0, 71, 74
2, 32040, Note_on_c, 0, 67, 81
2, 32158, Note_off_c, 0, 67, 81
2, 32160, Note_on_c, 0, 65, 78
2, 32278, Note_off_c, 0, 65, 78
2, 32280, Note_on_c, 0, 62, 67
2, 32398, Note_off_c, 0, 62, 67
2, 32400, Note_on_c, 0, 65, 74
2, 32518, Note_off_c, 0, 65, 74
2, 32520, Note_on_c, 0, 62, 67
2, 32638, Note_off_c, 0, 62, 67
2, 32640, Note_on_c, 0, 59, 79
2, 32758, Note_off_c, 0, 59, 79
2, 33360, Note_on_c, 0, 79, 65
2, 33598, Note_off_c, 0, 79, 65
2, 33600, Note_on_c, 0, 72, 83
2, 33718, Note_off_c, 0, 72, 83
2, 33840, Note_on_c, 0, 76, 70
2, 34078, Note_off_c, 0, 76, 70
2, 34080, Note_on_c, 0, 69, 73
2, 34198, Note_off_c, 0, 69, 73
2, 34320, Note_on_c, 0, 81, 72
2, 34438, Note_off_c, 0, 81, 72
2, 34560, Note_on_c, 0, 72, 74
2, 35038, Note_off_c, 0, 72, 74
2, 35040, Note_on_c, 0, 71, 78
2, 35158, Note_off_c, 0, 71, 78
2, 35280, Note_on_c, 0, 79, 74
2, 35518, Note_off_c, 0, 79, 74
2, 35520, Note_on_c, 0, 72, 74
2, 35758, Note_off_c, 0, 72, 74
2, 35760, Note_on_c, 0, 76, 74
2, 35878, Note_off_c, 0, 76, 74
2, 36000, Note_on_c, 0, 69, 74
2, 36238, Note_off_c, 0, 69, 74
2, 36240, Note_on_c, 0, 81, 78
2, 36358, Note_off_c, 0, 81, 78
2, 36480, Note_on_c, 0, 72, 72
2, 36958, Note_off_c, 0, 72, 72
2, 36960, Note_on_c, 0, 71, 62
2, 37198, Note_off_c, 0, 71, 62
2, 37200, Note_on_c, 0, 79, 74
2, 37318, Note_off_c, 0, 79, 74
2, 37440, Note_on_c, 0, 70, 71
2, 37918, Note_off_c, 0, 70, 71
2, 37920, Note_on_c, 0, 69, 67
2, 38038, Note_off_c, 0, 69, 67
2, 38160, Note_on_c, 0, 77, 76
2, 38278, Note_off_c, 0, 77, 76
2, 38400, Note_on_c, 0, 68, 74
2, 38878, Note_off_c, 0, 68, 74
2, 38880, Note_on_c, 0, 67, 74
2, 38998, Note_off_c, 0, 67, 74
2, 39120, Note_on_c, 0, 72, 68
2, 39238, Note_off_c, 0, 72, 68
2, 39360, Note_on_c, 0, 62, 72
2, 39598, Note_off_c, 0, 62, 72
2, 39600, Note_on_c, 0, 65, 66
2, 39600, Note_on_c, 0, 69, 68
2, 39838, Note_off_c, 0, 65, 66
2, 39838, Note_off_c, 0, 69, 68
2, 39840, Note_on_c, 0, 67, 65
2, 39840, Note_on_c, 0, 64, 68
2, 40078, Note_off_c, 0, 67, 65
2, 40078, Note_off_c, 0, 64, 68
2, 40080, Note_on_c, 0, 59, 65
2, 40318, Note_off_c, 0, 59, 65
2, 40320, Note_on_c, 0, 60, 78
2, 40558, Note_off_c, 0, 60, 78
2, 41040, Note_on_c, 0, 79, 74
2, 41278, Note_off_c, 0, 79, 74
2, 41280, Note_on_c, 0, 72, 68
2, 41518, Note_off_c, 0, 72, 68
2, 41520, Note_on_c, 0, 76, 68
2, 41638, Note_off_c, 0, 76, 68
2, 41760, Note_on_c, 0, 69, 72
2, 41998, Note_off_c, 0, 69, 72
2, 42000, Note_on_c, 0, 81, 74
2, 42118, Note_off_c, 0, 81, 74
2, 42240, Note_on_c, 0, 72, 72
2, 42718, Note_off_c, 0, 72, 72
2, 42720, Note_on_c, 0, 71, 74
2, 42838, Note_off_c, 0, 71, 74
2, 42960, Note_on_c, 0, 79, 72
2, 43078, Note_off_c, 0, 79, 72
2, 43200, Note_on_c, 0, 72, 65
2, 43318, Note_off_c, 0, 72, 65
2, 43320, Note_on_c, 0, 74, 65
2, 43438, Note_off_c, 0, 74, 65
2, 43440, Note_on_c, 0, 76, 68
2, 43558, Note_off_c, 0, 76, 68
2, 43560, Note_on_c, 0, 72, 66
2, 43678, Note_off_c, 0, 72, 66
2, 43680, Note_on_c, 0, 69, 73
2, 43798, Note_off_c, 0, 69, 73
2, 43920, Note_on_c, 0, 81, 72
2, 44038, Note_off_c, 0, 81, 72
2, 44160, Note_on_c, 0, 72, 74
2, 44638, Note_off_c, 0, 72, 74
2, 44640, Note_on_c, 0, 71, 70
2, 44758, Note_off_c, 0, 71, 70
2, 44880, Note_on_c, 0, 79, 72
2, 45118, Note_off_c, 0, 79, 72
2, 45120, Note_on_c, 0, 70, 74
2, 45598, Note_off_c, 0, 70, 74
2, 45600, Note_on_c, 0, 69, 73
2, 45718, Note_off_c, 0, 69, 73
2, 45840, Note_on_c, 0, 77, 67
2, 45958, Note_off_c, 0, 77, 67
2, 46080, Note_on_c, 0, 68, 70
2, 46558, Note_off_c, 0, 68, 70
2, 46560, Note_on_c, 0, 67, 62
2, 46678, Note_off_c, 0, 67, 62
2, 46800, Note_on_c, 0, 72, 68
2, 47038, Note_off_c, 0, 72, 68
2, 47040, Note_on_c, 0, 62, 70
2, 47158, Note_off_c, 0, 62, 70
2, 47280, Note_on_c, 0, 69, 67
2, 47280, Note_on_c, 0, 65, 67
2, 47518, Note_off_c, 0, 69, 67
2, 47518, Note_off_c, 0, 65, 67
2, 47520, Note_on_c, 0, 67, 68
2, 47520, Note_on_c, 0, 64, 58
2, 47758, Note_off_c, 0, 67, 68
2, 47758, Note_off_c, 0, 64, 58
2, 47760, Note_on_c, 0, 59, 76
2, 47998, Note_off_c, 0, 59, 76
2, 48000, Note_on_c, 0, 60, 73
2, 48478, Note_off_c, 0, 60, 73
2, 48720, Note_on_c, 0, 59, 66
2, 48720, Note_on_c, 0, 65, 63
2, 48958, Note_off_c, 0, 59, 66
2, 48958, Note_off_c, 0, 65, 63
2, 48960, Note_on_c, 0, 64, 68
2, 48960, Note_on_c, 0, 60, 66
2, 49078, Note_off_c, 0, 64, 68
2, 49078, Note_off_c, 0, 60, 66
2, 49680, Note_on_c, 0, 69, 60
2, 49680, Note_on_c, 0, 65, 68
2, 49918, Note_off_c, 0, 69, 60
2, 49918, Note_off_c, 0, 65, 68
2, 49920, Note_on_c, 0, 67, 70
2, 49920, Note_on_c, 0, 64, 62
2, 50038, Note_off_c, 0, 67, 70
2, 50038, Note_off_c, 0, 64, 62
2, 50640, Note_on_c, 0, 77, 68
2, 50640, Note_on_c, 0, 71, 66
2, 50878, Note_off_c, 0, 77, 68
2, 50878, Note_off_c, 0, 71, 66
2, 50880, Note_on_c, 0, 76, 63
2, 50880, Note_on_c, 0, 72, 56
2, 50998, Note_off_c, 0, 76, 63
2, 50998, Note_off_c, 0, 72, 56
2, 51600, Note_on_c, 0, 83, 74
2, 51600, Note_on_c, 0, 74, 63
2, 51838, Note_off_c, 0, 83, 74
2, 51838, Note_off_c, 0, 74, 63
2, 51840, Note_on_c, 0, 84, 70
2, 51840, Note_on_c, 0, 76, 46
2, 51958, Note_off_c, 0, 84, 70
2, 51958, Note_off_c, 0, 76, 46
2, 52560, Note_on_c, 0, 72, 74
2, 52798, Note_off_c, 0, 72, 74
2, 52800, Note_on_c, 0, 65, 74
2, 53038, Note_off_c, 0, 65, 74
2, 53040, Note_on_c, 0, 69, 72
2, 53158, Note_off_c, 0, 69, 72
2, 53280, Note_on_c, 0, 62, 76
2, 53398, Note_off_c, 0, 62, 76
2, 53520, Note_on_c, 0, 74, 73
2, 53638, Note_off_c, 0, 74, 73
2, 53760, Note_on_c, 0, 65, 73
2, 54238, Note_off_c, 0, 65, 73
2, 54240, Note_on_c, 0, 64, 68
2, 54358, Note_off_c, 0, 64, 68
2, 54480, Note_on_c, 0, 70, 83
2, 54598, Note_off_c, 0, 70, 83
2, 54720, Note_on_c, 0, 67, 94
2, 54958, Note_off_c, 0, 67, 94
2, 54960, Note_on_c, 0, 76, 78
2, 55078, Note_off_c, 0, 76, 78
2, 55200, Note_on_c, 0, 70, 81
2, 55438, Note_off_c, 0, 70, 81
2, 55440, Note_on_c, 0, 79, 86
2, 55558, Note_off_c, 0, 79, 86
2, 55680, Note_on_c, 0, 70, 72
2, 56158, Note_off_c, 0, 70, 72
2, 56160, Note_on_c, 0, 69, 74
2, 56278, Note_off_c, 0, 69, 74
2, 56400, Note_on_c, 0, 72, 89
2, 56518, Note_off_c, 0, 72, 89
2, 56640, Note_on_c, 0, 63, 74
2, 56878, Note_off_c, 0, 63, 74
2, 56880, Note_on_c, 0, 75, 78
2, 56998, Note_off_c, 0, 75, 78
2, 57120, Note_on_c, 0, 65, 74
2, 57358, Note_off_c, 0, 65, 74
2, 57360, Note_on_c, 0, 72, 77
2, 57478, Note_off_c, 0, 72, 77
2, 57600, Note_on_c, 0, 73, 83
2, 58078, Note_off_c, 0, 73, 83
2, 58080, Note_on_c, 0, 74, 78
2, 58198, Note_off_c, 0, 74, 78
2, 58320, Note_on_c, 0, 67, 74
2, 58438, Note_off_c, 0, 67, 74
2, 58560, Note_on_c, 0, 69, 76
2, 58798, Note_off_c, 0, 69, 76
2, 58800, Note_on_c, 0, 70, 65
2, 58918, Note_off_c, 0, 70, 65
2, 59040, Note_on_c, 0, 64, 77
2, 59158, Note_off_c, 0, 64, 77
2, 59280, Note_on_c, 0, 67, 74
2, 59398, Note_off_c, 0, 67, 74
2, 59520, Note_on_c, 0, 65, 83
2, 59998, Note_off_c, 0, 65, 83
2, 60240, Note_on_c, 0, 84, 78
2, 60358, Note_off_c, 0, 84, 78
2, 60480, Note_on_c, 0, 77, 81
2, 60718, Note_off_c, 0, 77, 81
2, 60720, Note_on_c, 0, 81, 81
2, 60838, Note_off_c, 0, 81, 81
2, 60960, Note_on_c, 0, 72, 73
2, 61078, Note_off_c, 0, 72, 73
2, 61200, Note_on_c, 0, 77, 78
2, 61318, Note_off_c, 0, 77, 78
2, 61440, Note_on_c, 0, 76, 70
2, 61678, Note_off_c, 0, 76, 70
2, 61680, Note_on_c, 0, 77, 71
2, 61918, Note_off_c, 0, 77, 71
2, 61920, Note_on_c, 0, 79, 72
2, 62038, Note_off_c, 0, 79, 72
2, 62160, Note_on_c, 0, 84, 74
2, 62278, Note_off_c, 0, 84, 74
2, 62400, Note_on_c, 0, 79, 74
2, 62638, Note_off_c, 0, 79, 74
2, 62640, Note_on_c, 0, 82, 74
2, 62878, Note_off_c, 0, 82, 74
2, 62880, Note_on_c, 0, 72, 72
2, 63118, Note_off_c, 0, 72, 72
2, 63120, Note_on_c, 0, 76, 74
2, 63238, Note_off_c, 0, 76, 74
2, 63360, Note_on_c, 0, 77, 71
2, 63598, Note_off_c, 0, 77, 71
2, 63600, Note_on_c, 0, 79, 76
2, 63838, Note_off_c, 0, 79, 76
2, 63840, Note_on_c, 0, 81, 79
2, 63958, Note_off_c, 0, 81, 79
2, 64080, Note_on_c, 0, 84, 74
2, 64198, Note_off_c, 0, 84, 74
2, 64320, Note_on_c, 0, 77, 72
2, 64558, Note_off_c, 0, 77, 72
2, 64560, Note_on_c, 0, 84, 81
2, 64678, Note_off_c, 0, 84, 81
2, 64800, Note_on_c, 0, 77, 76
2, 65038, Note_off_c, 0, 77, 76
2, 65040, Note_on_c, 0, 75, 71
2, 65518, Note_off_c, 0, 75, 71
2, 65520, Note_on_c, 0, 73, 72
2, 65758, Note_off_c, 0, 73, 72
2, 65760, Note_on_c, 0, 74, 81
2, 65878, Note_off_c, 0, 74, 81
2, 66000, Note_on_c, 0, 66, 61
2, 66000, Note_on_c, 0, 69, 70
2, 66238, Note_off_c, 0, 66, 61
2, 66238, Note_off_c, 0, 69, 70
2, 66240, Note_on_c, 0, 67, 67
2, 66240, Note_on_c, 0, 70, 73
2, 66478, Note_off_c, 0, 67, 67
2, 66478, Note_off_c, 0, 70, 73
2, 66480, Note_on_c, 0, 69, 70
2, 66480, Note_on_c, 0, 72, 76
2, 66718, Note_off_c, 0, 69, 70
2, 66718, Note_off_c, 0, 72, 76
2, 66720, Note_on_c, 0, 74, 74
2, 66720, Note_on_c, 0, 70, 65
2, 66838, Note_off_c, 0, 74, 74
2, 66838, Note_off_c, 0, 70, 65
2, 66960, Note_on_c, 0, 67, 66
2, 66960, Note_on_c, 0, 70, 71
2, 67078, Note_off_c, 0, 67, 66
2, 67078, Note_off_c, 0, 70, 71
2, 67200, Note_on_c, 0, 69, 73
2, 67200, Note_on_c, 0, 65, 62
2, 67678, Note_off_c, 0, 69, 73
2, 67678, Note_off_c, 0, 65, 62
2, 67680, Note_on_c, 0, 64, 58
2, 67680, Note_on_c, 0, 67, 70
2, 67798, Note_off_c, 0, 64, 58
2, 67798, Note_off_c, 0, 67, 70
2, 67920, Note_on_c, 0, 76, 66
2, 68158, Note_off_c, 0, 76, 66
2, 68160, Note_on_c, 0, 79, 77
2, 68398, Note_off_c, 0, 79, 77
2, 68400, Note_on_c, 0, 72, 67
2, 68638, Note_off_c, 0, 72, 67
2, 68640, Note_on_c, 0, 71, 68
2, 68878, Note_off_c, 0, 71, 68
2, 68880, Note_on_c, 0, 74, 62
2, 68880, Note_on_c, 0, 77, 68
2, 69118, Note_off_c, 0, 74, 62
2, 69118, Note_off_c, 0, 77, 68
2, 69120, Note_on_c, 0, 74, 57
2, 69120, Note_on_c, 0, 77, 56
2, 69358, Note_off_c, 0, 74, 57
2, 69358, Note_off_c, 0, 77, 56
2, 69360, Note_on_c, 0, 76, 65
2, 69360, Note_on_c, 0, 72, 56
2, 69598, Note_off_c, 0, 76, 65
2, 69598, Note_off_c, 0, 72, 56
2, 69600, Note_on_c, 0, 74, 72
2, 69600, Note_on_c, 0, 71, 62
2, 69838, Note_off_c, 0, 74, 72
2, 69838, Note_off_c, 0, 71, 62
2, 69840, Note_on_c, 0, 75, 51
2, 70078, Note_off_c, 0, 75, 51
2, 70080, Note_on_c, 0, 79, 42
2, 70318, Note_off_c, 0, 79, 42
2, 70320, Note_on_c, 0, 72, 62
2, 70558, Note_off_c, 0, 72, 62
2, 70560, Note_on_c, 0, 71, 61
2, 70798, Note_off_c, 0, 71, 61
2, 70800, Note_on_c, 0, 74, 62
2, 70800, Note_on_c, 0, 77, 65
2, 71038, Note_off_c, 0, 74, 62
2, 71038, Note_off_c, 0, 77, 65
2, 71040, Note_on_c, 0, 74, 53
2, 71040, Note_on_c, 0, 77, 55
2, 71278, Note_off_c, 0, 74, 53
2, 71278, Note_off_c, 0, 77, 55
2, 71280, Note_on_c, 0, 72, 39
2, 71280, Note_on_c, 0, 75, 41
2, 71518, Note_off_c, 0, 72, 39
2, 71518, Note_off_c, 0, 75, 41
2, 71520, Note_on_c, 0, 74, 63
2, 71520, Note_on_c, 0, 71, 51
2, 71758, Note_off_c, 0, 74, 63
2, 71758, Note_off_c, 0, 71, 51
2, 71760, Note_on_c, 0, 76, 67
2, 71998, Note_off_c, 0, 76, 67
2, 72000, Note_on_c, 0, 79, 82
2, 72118, Note_off_c, 0, 79, 82
2, 72240, Note_on_c, 0, 72, 78
2, 72478, Note_off_c, 0, 72, 78
2, 72480, Note_on_c, 0, 71, 75
2, 72718, Note_off_c, 0, 71, 75
2, 72720, Note_on_c, 0, 70, 77
2, 73078, Note_off_c, 0, 70, 77
2, 73080, Note_on_c, 0, 69, 76
2, 73198, Note_off_c, 0, 69, 76
2, 73200, Note_on_c, 0, 68, 62
2, 73318, Note_off_c, 0, 68, 62
2, 73320, Note_on_c, 0, 69, 66
2, 73438, Note_off_c, 0, 69, 66
2, 73440, Note_on_c, 0, 71, 78
2, 73558, Note_off_c, 0, 71, 78
2, 73560, Note_on_c, 0, 69, 78
2, 73678, Note_off_c, 0, 69, 78
2, 73680, Note_on_c, 0, 73, 84
2, 73798, Note_off_c, 0, 73, 84
2, 73800, Note_on_c, 0, 69, 63
2, 73918, Note_off_c, 0, 69, 63
2, 73920, Note_on_c, 0, 74, 88
2, 74038, Note_off_c, 0, 74, 88
2, 74040, Note_on_c, 0, 69, 60
2, 74158, Note_off_c, 0, 69, 60
2, 74160, Note_on_c, 0, 76, 89
2, 74278, Note_off_c, 0, 76, 89
2, 74280, Note_on_c, 0, 69, 75
2, 74398, Note_off_c, 0, 69, 75
2, 74400, Note_on_c, 0, 77, 99
2, 74518, Note_off_c, 0, 77, 99
2, 74520, Note_on_c, 0, 69, 84
2, 74638, Note_off_c, 0, 69, 84
2, 74640, Note_on_c, 0, 79, 93
2, 74758, Note_off_c, 0, 79, 93
2, 74760, Note_on_c, 0, 69, 76
2, 74878, Note_off_c, 0, 69, 76
2, 74880, Note_on_c, 0, 81, 99
2, 75358, Note_off_c, 0, 81, 99
2, 75360, Note_on_c, 0, 79, 55
2, 75478, Note_off_c, 0, 79, 55
2, 75480, Note_on_c, 0, 77, 68
2, 75598, Note_off_c, 0, 77, 68
2, 75600, Note_on_c, 0, 76, 71
2, 75718, Note_off_c, 0, 76, 71
2, 75720, Note_on_c, 0, 74, 56
2, 75838, Note_off_c, 0, 74, 56
2, 75840, Note_on_c, 0, 73, 41
2, 75958, Note_off_c, 0, 73, 41
2, 75960, Note_on_c, 0, 74, 62
2, 76078, Note_off_c, 0, 74, 62
2, 76080, Note_on_c, 0, 76, 40
2, 76198, Note_off_c, 0, 76, 40
2, 76200, Note_on_c, 0, 74, 63
2, 76318, Note_off_c, 0, 74, 63
2, 76320, Note_on_c, 0, 79, 62
2, 76438, Note_off_c, 0, 79, 62
2, 76440, Note_on_c, 0, 77, 68
2, 76558, Note_off_c, 0, 77, 68
2, 76560, Note_on_c, 0, 76, 71
2, 76678, Note_off_c, 0, 76, 71
2, 76680, Note_on_c, 0, 74, 68
2, 76798, Note_off_c, 0, 74, 68
2, 76800, Note_on_c, 0, 72, 68
2, 77518, Note_off_c, 0, 72, 68
2, 77520, Note_on_c, 0, 76, 57
2, 77638, Note_off_c, 0, 76, 57
2, 77640, Note_on_c, 0, 74, 63
2, 77758, Note_off_c, 0, 74, 63
2, 77760, Note_on_c, 0, 72, 68
2, 77998, Note_off_c, 0, 72, 68
2, 78480, Note_on_c, 0, 74, 94
2, 78598, Note_off_c, 0, 74, 94
2, 78600, Note_on_c, 0, 71, 81
2, 78718, Note_off_c, 0, 71, 81
2, 78720, Note_on_c, 0, 74, 92
2, 78838, Note_off_c, 0, 74, 92
2, 78840, Note_on_c, 0, 71, 76
2, 78958, Note_off_c, 0, 71, 76
2, 78960, Note_on_c, 0, 77, 74
2, 79078, Note_off_c, 0, 77, 74
2, 79080, Note_on_c, 0, 74, 94
2, 79198, Note_off_c, 0, 74, 94
2, 79200, Note_on_c, 0, 71, 78
2, 79318, Note_off_c, 0, 71, 78
2, 79320, Note_on_c, 0, 67, 71
2, 79438, Note_off_c, 0, 67, 71
2, 79440, Note_on_c, 0, 74, 78
2, 79558, Note_off_c, 0, 74, 78
2, 79560, Note_on_c, 0, 71, 65
2, 79678, Note_off_c, 0, 71, 65
2, 79680, Note_on_c, 0, 74, 86
2, 79798, Note_off_c, 0, 74, 86
2, 79800, Note_on_c, 0, 71, 72
2, 79918, Note_off_c, 0, 71, 72
2, 79920, Note_on_c, 0, 77, 83
2, 80038, Note_off_c, 0, 77, 83
2, 80040, Note_on_c, 0, 74, 94
2, 80158, Note_off_c, 0, 74, 94
2, 80160, Note_on_c, 0, 71, 77
2, 80278, Note_off_c, 0, 71, 77
2, 80280, Note_on_c, 0, 67, 78
2, 80398, Note_off_c, 0, 67, 78
2, 80400, Note_on_c, 0, 74, 74
2, 80518, Note_off_c, 0, 74, 74
2, 80520, Note_on_c, 0, 71, 61
2, 80638, Note_off_c, 0, 71, 61
2, 80640, Note_on_c, 0, 74, 81
2, 80758, Note_off_c, 0, 74, 81
2, 80760, Note_on_c, 0, 71, 62
2, 80878, Note_off_c, 0, 71, 62
2, 80880, Note_on_c, 0, 77, 81
2, 80998, Note_off_c, 0, 77, 81
2, 81000, Note_on_c, 0, 74, 97
2, 81118, Note_off_c, 0, 74, 97
2, 81120, Note_on_c, 0, 71, 76
2, 81238, Note_off_c, 0, 71, 76
2, 81240, Note_on_c, 0, 67, 74
2, 81358, Note_off_c, 0, 67, 74
2, 81360, Note_on_c, 0, 74, 74
2, 81478, Note_off_c, 0, 74, 74
2, 81480, Note_on_c, 0, 71, 86
2, 81598, Note_off_c, 0, 71, 86
2, 81600, Note_on_c, 0, 67, 83
2, 81718, Note_off_c, 0, 67, 83
2, 81720, Note_on_c, 0, 65, 78
2, 81838, Note_off_c, 0, 65, 78
2, 81840, Note_on_c, 0, 71, 74
2, 81958, Note_off_c, 0, 71, 74
2, 81960, Note_on_c, 0, 67, 81
2, 82078, Note_off_c, 0, 67, 81
2, 82080, Note_on_c, 0, 65, 78
2, 82198, Note_off_c, 0, 65, 78
2, 82200, Note_on_c, 0, 62, 67
2, 82318, Note_off_c, 0, 62, 67
2, 82320, Note_on_c, 0, 65, 74
2, 82438, Note_off_c, 0, 65, 74
2, 82440, Note_on_c, 0, 62, 67
2, 82558, Note_off_c, 0, 62, 67
2, 82560, Note_on_c, 0, 59, 79
2, 82678, Note_off_c, 0, 59, 79
2, 83280, Note_on_c, 0, 79, 65
2, 83518, Note_off_c, 0, 79, 65
2, 83520, Note_on_c, 0, 72, 83
2, 83638, Note_off_c, 0, 72, 83
2, 83760, Note_on_c, 0, 76, 70
2, 83998, Note_off_c, 0, 76, 70
2, 84000, Note_on_c, 0, 69, 73
2, 84118, Note_off_c, 0, 69, 73
2, 84240, Note_on_c, 0, 81, 72
2, 84358, Note_off_c, 0, 81, 72
2, 84480, Note_on_c, 0, 72, 74
2, 84958, Note_off_c, 0, 72, 74
2, 84960, Note_on_c, 0, 71, 78
2, 85078, Note_off_c, 0, 71, 78
2, 85200, Note_on_c, 0, 79, 74
2, 85438, Note_off_c, 0, 79, 74
2, 85440, Note_on_c, 0, 72, 74
2, 85678, Note_off_c, 0, 72, 74
2, 85680, Note_on_c, 0, 76, 74
2, 85798, Note_off_c, 0, 76, 74
2, 85920, Note_on_c, 0, 69, 74
2, 86158, Note_off_c, 0, 69, 74
2, 86160, Note_on_c, 0, 81, 78
2, 86278, Note_off_c, 0, 81, 78
2, 86400, Note_on_c, 0, 72, 72
2, 86878, Note_off_c, 0, 72, 72
2, 86880, Note_on_c, 0, 71, 62
2, 87118, Note_off_c, 0, 71, 62
2, 87120, Note_on_c, 0, 79, 74
2, 87238, Note_off_c, 0, 79, 74
2, 87360, Note_on_c, 0, 70, 71
2, 87838, Note_off_c, 0, 70, 71
2, 87840, Note_on_c, 0, 69, 67
2, 87958, Note_off_c, 0, 69, 67
2, 88080, Note_on_c, 0, 77, 76
2, 88198, Note_off_c, 0, 77, 76
2, 88320, Note_on_c, 0, 68, 74
2, 88798, Note_off_c, 0, 68, 74
2, 88800, Note_on_c, 0, 67, 74
2, 88918, Note_off_c, 0, 67, 74
2, 89040, Note_on_c, 0, 72, 68
2, 89158, Note_off_c, 0, 72, 68
2, 89280, Note_on_c, 0, 62, 72
2, 89518, Note_off_c, 0, 62, 72
2, 89520, Note_on_c, 0, 69, 68
2, 89520, Note_on_c, 0, 65, 66
2, 89758, Note_off_c, 0, 69, 68
2, 89758, Note_off_c, 0, 65, 66
2, 89760, Note_on_c, 0, 64, 68
2, 89760, Note_on_c, 0, 67, 65
2, 89998, Note_off_c, 0, 64, 68
2, 89998, Note_off_c, 0, 67, 65
2, 90000, Note_on_c, 0, 59, 65
2, 90238, Note_off_c, 0, 59, 65
2, 90240, Note_on_c, 0, 60, 78
2, 90478, Note_off_c, 0, 60, 78
2, 90960, Note_on_c, 0, 79, 74
2, 91198, Note_off_c, 0, 79, 74
2, 91200, Note_on_c, 0, 72, 68
2, 91438, Note_off_c, 0, 72, 68
2, 91440, Note_on_c, 0, 76, 68
2, 91558, Note_off_c, 0, 76, 68
2, 91680, Note_on_c, 0, 69, 72
2, 91918, Note_off_c, 0, 69, 72
2, 91920, Note_on_c, 0, 81, 74
2, 92038, Note_off_c, 0, 81, 74
2, 92160, Note_on_c, 0, 72, 72
2, 92638, Note_off_c, 0, 72, 72
2, 92640, Note_on_c, 0, 71, 74
2, 92758, Note_off_c, 0, 71, 74
2, 92880, Note_on_c, 0, 79, 72
2, 92998, Note_off_c, 0, 79, 72
2, 93120, Note_on_c, 0, 72, 65
2, 93238, Note_off_c, 0, 72, 65
2, 93240, Note_on_c, 0, 74, 65
2, 93358, Note_off_c, 0, 74, 65
2, 93360, Note_on_c, 0, 76, 68
2, 93478, Note_off_c, 0, 76, 68
2, 93480, Note_on_c, 0, 72, 66
2, 93598, Note_off_c, 0, 72, 66
2, 93600, Note_on_c, 0, 69, 73
2, 93718, Note_off_c, 0, 69, 73
2, 93840, Note_on_c, 0, 81, 72
2, 93958, Note_off_c, 0, 81, 72
2, 94080, Note_on_c, 0, 72, 74
2, 94558, Note_off_c, 0, 72, 74
2, 94560, Note_on_c, 0, 71, 70
2, 94678, Note_off_c, 0, 71, 70
2, 94800, Note_on_c, 0, 79, 72
2, 95038, Note_off_c, 0, 79, 72
2, 95040, Note_on_c, 0, 70, 74
2, 95518, Note_off_c, 0, 70, 74
2, 95520, Note_on_c, 0, 69, 73
2, 95638, Note_off_c, 0, 69, 73
2, 95760, Note_on_c, 0, 77, 67
2, 95878, Note_off_c, 0, 77, 67
2, 96000, Note_on_c, 0, 68, 70
2, 96478, Note_off_c, 0, 68, 70
2, 96480, Note_on_c, 0, 67, 62
2, 96598, Note_off_c, 0, 67, 62
2, 96720, Note_on_c, 0, 72, 68
2, 96958, Note_off_c, 0, 72, 68
2, 96960, Note_on_c, 0, 62, 70
2, 97078, Note_off_c, 0, 62, 70
2, 97200, Note_on_c, 0, 65, 67
2, 97200, Note_on_c, 0, 69, 67
2, 97438, Note_off_c, 0, 65, 67
2, 97438, Note_off_c, 0, 69, 67
2, 97440, Note_on_c, 0, 64, 58
2, 97440, Note_on_c, 0, 67, 68
2, 97678, Note_off_c, 0, 64, 58
2, 97678, Note_off_c, 0, 67, 68
2, 97680, Note_on_c, 0, 59, 76
2, 97918, Note_off_c, 0, 59, 76
2, 97920, Note_on_c, 0, 60, 73
2, 98398, Note_off_c, 0, 60, 73
2, 98640, Note_on_c, 0, 65, 63
2, 98640, Note_on_c, 0, 59, 66
2, 98878, Note_off_c, 0, 65, 63
2, 98878, Note_off_c, 0, 59, 66
2, 98880, Note_on_c, 0, 60, 66
2, 98880, Note_on_c, 0, 64, 68
2, 98998, Note_off_c, 0, 60, 66
2, 98998, Note_off_c, 0, 64, 68
2, 99600, Note_on_c, 0, 65, 68
2, 99600, Note_on_c, 0, 69, 60
2, 99838, Note_off_c, 0, 65, 68
2, 99838, Note_off_c, 0, 69, 60
2, 99840, Note_on_c, 0, 64, 62
2, 99840, Note_on_c, 0, 67, 70
2, 99958, Note_off_c, 0, 64, 62
2, 99958, Note_off_c, 0, 67, 70
2, 100560, Note_on_c, 0, 71, 66
2, 100560, Note_on_c, 0, 77, 68
2, 100798, Note_off_c, 0, 71, 66
2, 100798, Note_off_c, 0, 77, 68
2, 100800, Note_on_c, 0, 72, 56
2, 100800, Note_on_c, 0, 76, 63
2, 100918, Note_off_c, 0, 72, 56
2, 100918, Note_off_c, 0, 76, 63
2, 101520, Note_on_c, 0, 74, 63
2, 101520, Note_on_c, 0, 83, 74
2, 101758, Note_off_c, 0, 74, 63
2, 101758, Note_off_c, 0, 83, 74
2, 101760, Note_on_c, 0, 76, 46
2, 101760, Note_on_c, 0, 84, 70
2, 101878, Note_off_c, 0, 76, 46
2, 101878, Note_off_c, 0, 84, 70
2, 102480, Note_on_c, 0, 72, 86
2, 102598, Note_off_c, 0, 72, 86
2, 102600, Note_on_c, 0, 69, 107
2, 102718, Note_off_c, 0, 69, 107
2, 102720, Note_on_c, 0, 72, 96
2, 102838, Note_off_c, 0, 72, 96
2, 102840, Note_on_c, 0, 69, 104
2, 102958, Note_off_c, 0, 69, 104
2, 102960, Note_on_c, 0, 75, 84
2, 103078, Note_off_c, 0, 75, 84
2, 103080, Note_on_c, 0, 72, 83
2, 103198, Note_off_c, 0, 72, 83
2, 103200, Note_on_c, 0, 69, 99
2, 103318, Note_off_c, 0, 69, 99
2, 103320, Note_on_c, 0, 78, 99
2, 103438, Note_off_c, 0, 78, 99
2, 103440, Note_on_c, 0, 75, 84
2, 103558, Note_off_c, 0, 75, 84
2, 103560, Note_on_c, 0, 72, 93
2, 103678, Note_off_c, 0, 72, 93
2, 103680, Note_on_c, 0, 69, 102
2, 103798, Note_off_c, 0, 69, 102
2, 103800, Note_on_c, 0, 81, 91
2, 103918, Note_off_c, 0, 81, 91
2, 103920, Note_on_c, 0, 78, 87
2, 104038, Note_off_c, 0, 78, 87
2, 104040, Note_on_c, 0, 75, 81
2, 104158, Note_off_c, 0, 75, 81
2, 104160, Note_on_c, 0, 72, 93
2, 104278, Note_off_c, 0, 72, 93
2, 104280, Note_on_c, 0, 84, 93
2, 104398, Note_off_c, 0, 84, 93
2, 104400, Note_on_c, 0, 81, 87
2, 104518, Note_off_c, 0, 81, 87
2, 104520, Note_on_c, 0, 78, 81
2, 104638, Note_off_c, 0, 78, 81
2, 104640, Note_on_c, 0, 75, 82
2, 104878, Note_off_c, 0, 75, 82
2, 105240, Note_on_c, 0, 84, 66
2, 105358, Note_off_c, 0, 84, 66
2, 105360, Note_on_c, 0, 81, 74
2, 105478, Note_off_c, 0, 81, 74
2, 105480, Note_on_c, 0, 78, 61
2, 105598, Note_off_c, 0, 78, 61
2, 105600, Note_on_c, 0, 74, 74
2, 105838, Note_off_c, 0, 74, 74
2, 106200, Note_on_c, 0, 84, 55
2, 106318, Note_off_c, 0, 84, 55
2, 106320, Note_on_c, 0, 81, 72
2, 106438, Note_off_c, 0, 81, 72
2, 106440, Note_on_c, 0, 78, 66
2, 106558, Note_off_c, 0, 78, 66
2, 106560, Note_on_c, 0, 75, 77
2, 106678, Note_off_c, 0, 75, 77
2, 107160, Note_on_c, 0, 84, 50
2, 107278, Note_off_c, 0, 84, 50
2, 107280, Note_on_c, 0, 81, 62
2, 107398, Note_off_c, 0, 81, 62
2, 107400, Note_on_c, 0, 78, 53
2, 107518, Note_off_c, 0, 78, 53
2, 107520, Note_on_c, 0, 74, 54
2, 107758, Note_off_c, 0, 74, 54
2, 108240, Note_on_c, 0, 74, 72
2, 108358, Note_off_c, 0, 74, 72
2, 108480, Note_on_c, 0, 67, 72
2, 108718, Note_off_c, 0, 67, 72
2, 108720, Note_on_c, 0, 70, 57
2, 108838, Note_off_c, 0, 70, 57
2, 108960, Note_on_c, 0, 63, 68
2, 109078, Note_off_c, 0, 63, 68
2, 109200, Note_on_c, 0, 75, 66
2, 109318, Note_off_c, 0, 75, 66
2, 109440, Note_on_c, 0, 67, 67
2, 109918, Note_off_c, 0, 67, 67
2, 109920, Note_on_c, 0, 66, 62
2, 110038, Note_off_c, 0, 66, 62
2, 110160, Note_on_c, 0, 72, 72
2, 110398, Note_off_c, 0, 72, 72
2, 110400, Note_on_c, 0, 69, 66
2, 110638, Note_off_c, 0, 69, 66
2, 110640, Note_on_c, 0, 81, 76
2, 110758, Note_off_c, 0, 81, 76
2, 110880, Note_on_c, 0, 72, 70
2, 111118, Note_off_c, 0, 72, 70
2, 111120, Note_on_c, 0, 84, 72
2, 111238, Note_off_c, 0, 84, 72
2, 111360, Note_on_c, 0, 72, 66
2, 111838, Note_off_c, 0, 72, 66
2, 111840, Note_on_c, 0, 70, 52
2, 111958, Note_off_c, 0, 70, 52
2, 112800, Note_on_c, 0, 70, 58
2, 112800, Note_on_c, 0, 67, 66
2, 113278, Note_off_c, 0, 70, 58
2, 113278, Note_off_c, 0, 67, 66
2, 113280, Note_on_c, 0, 65, 45
2, 113280, Note_on_c, 0, 68, 56
2, 113998, Note_off_c, 0, 65, 45
2, 113998, Note_off_c, 0, 68, 56
2, 114720, Note_on_c, 0, 74, 62
2, 114720, Note_on_c, 0, 70, 61
2, 115198, Note_off_c, 0, 74, 62
2, 115198, Note_off_c, 0, 70, 61
2, 115200, Note_on_c, 0, 70, 52
2, 115200, Note_on_c, 0, 75, 63
2, 115918, Note_off_c, 0, 70, 52
2, 115918, Note_off_c, 0, 75, 63
2, 116640, Note_on_c, 0, 73, 60
2, 117118, Note_off_c, 0, 73, 60
2, 117120, Note_on_c, 0, 82, 70
2, 117358, Note_off_c, 0, 82, 70
2, 117360, Note_on_c, 0, 72, 40
2, 117598, Note_off_c, 0, 72, 40
2, 117600, Note_on_c, 0, 80, 73
2, 117838, Note_off_c, 0, 80, 73
2, 117840, Note_on_c, 0, 72, 41
2, 118078, Note_off_c, 0, 72, 41
2, 118080, Note_on_c, 0, 80, 70
2, 118318, Note_off_c, 0, 80, 70
2, 118320, Note_on_c, 0, 70, 33
2, 118558, Note_off_c, 0, 70, 33
2, 118560, Note_on_c, 0, 79, 68
2, 118798, Note_off_c, 0, 79, 68
2, 118800, Note_on_c, 0, 70, 43
2, 119038, Note_off_c, 0, 70, 43
2, 119040, Note_on_c, 0, 79, 65
2, 119278, Note_off_c, 0, 79, 65
2, 119280, Note_on_c, 0, 68, 40
2, 119518, Note_off_c, 0, 68, 40
2, 119520, Note_on_c, 0, 77, 67
2, 119758, Note_off_c, 0, 77, 67
2, 119760, Note_on_c, 0, 68, 56
2, 119998, Note_off_c, 0, 68, 56
2, 120000, Note_on_c, 0, 77, 72
2, 120238, Note_off_c, 0, 77, 72
2, 120240, Note_on_c, 0, 67, 52
2, 120478, Note_off_c, 0, 67, 52
2, 120480, Note_on_c, 0, 75, 66
2, 120718, Note_off_c, 0, 75, 66
2, 120720, Note_on_c, 0, 67, 58
2, 120958, Note_off_c, 0, 67, 58
2, 120960, Note_on_c, 0, 75, 68
2, 121198, Note_off_c, 0, 75, 68
2, 121200, Note_on_c, 0, 66, 51
2, 121438, Note_off_c, 0, 66, 51
2, 121440, Note_on_c, 0, 74, 68
2, 121678, Note_off_c, 0, 74, 68
2, 121680, Note_on_c, 0, 67, 48
2, 121918, Note_off_c, 0, 67, 48
2, 121920, Note_on_c, 0, 74, 72
2, 122158, Note_off_c, 0, 74, 72
2, 122160, Note_on_c, 0, 68, 56
2, 122398, Note_off_c, 0, 68, 56
2, 122400, Note_on_c, 0, 74, 68
2, 122638, Note_off_c, 0, 74, 68
2, 122640, Note_on_c, 0, 65, 66
2, 122640, Note_on_c, 0, 68, 56
2, 122878, Note_off_c, 0, 65, 66
2, 122878, Note_off_c, 0, 68, 56
2, 122880, Note_on_c, 0, 69, 66
2, 122880, Note_on_c, 0, 64, 65
2, 123358, Note_off_c, 0, 69, 66
2, 123358, Note_off_c, 0, 64, 65
2, 123360, Note_on_c, 0, 74, 77
2, 123598, Note_off_c, 0, 74, 77
2, 123600, Note_on_c, 0, 62, 67
2, 123600, Note_on_c, 0, 68, 73
2, 123838, Note_off_c, 0, 62, 67
2, 123838, Note_off_c, 0, 68, 73
2, 123840, Note_on_c, 0, 69, 70
2, 123840, Note_on_c, 0, 61, 67
2, 124318, Note_off_c, 0, 69, 70
2, 124318, Note_off_c, 0, 61, 67
2, 124320, Note_on_c, 0, 74, 76
2, 124558, Note_off_c, 0, 74, 76
2, 124560, Note_on_c, 0, 68, 63
2, 124560, Note_on_c, 0, 62, 60
2, 124798, Note_off_c, 0, 68, 63
2, 124798, Note_off_c, 0, 62, 60
2, 124800, Note_on_c, 0, 69, 74
2, 124800, Note_on_c, 0, 61, 65
2, 125278, Note_off_c, 0, 69, 74
2, 125278, Note_off_c, 0, 61, 65
2, 125520, Note_on_c, 0, 76, 74
2, 125638, Note_off_c, 0, 76, 74
2, 125640, Note_on_c, 0, 73, 74
2, 125758, Note_off_c, 0, 73, 74
2, 125760, Note_on_c, 0, 76, 78
2, 125878, Note_off_c, 0, 76, 78
2, 125880, Note_on_c, 0, 73, 74
2, 125998, Note_off_c, 0, 73, 74
2, 126000, Note_on_c, 0, 79, 89
2, 126118, Note_off_c, 0, 79, 89
2, 126120, Note_on_c, 0, 76, 76
2, 126238, Note_off_c, 0, 76, 76
2, 126240, Note_on_c, 0, 73, 77
2, 126358, Note_off_c, 0, 73, 77
2, 126360, Note_on_c, 0, 69, 76
2, 126478, Note_off_c, 0, 69, 76
2, 126480, Note_on_c, 0, 76, 74
2, 126598, Note_off_c, 0, 76, 74
2, 126600, Note_on_c, 0, 73, 65
2, 126718, Note_off_c, 0, 73, 65
2, 126720, Note_on_c, 0, 76, 78
2, 126838, Note_off_c, 0, 76, 78
2, 126840, Note_on_c, 0, 73, 68
2, 126958, Note_off_c, 0, 73, 68
2, 126960, Note_on_c, 0, 79, 81
2, 127078, Note_off_c, 0, 79, 81
2, 127080, Note_on_c, 0, 76, 77
2, 127198, Note_off_c, 0, 76, 77
2, 127200, Note_on_c, 0, 73, 68
2, 127318, Note_off_c, 0, 73, 68
2, 127320, Note_on_c, 0, 69, 74
2, 127438, Note_off_c, 0, 69, 74
2, 127440, Note_on_c, 0, 81, 78
2, 127558, Note_off_c, 0, 81, 78
2, 127560, Note_on_c, 0, 77, 77
2, 127678, Note_off_c, 0, 77, 77
2, 127680, Note_on_c, 0, 74, 77
2, 127798, Note_off_c, 0, 74, 77
2, 127800, Note_on_c, 0, 69, 74
2, 127918, Note_off_c, 0, 69, 74
2, 127920, Note_on_c, 0, 81, 73
2, 128038, Note_off_c, 0, 81, 73
2, 128040, Note_on_c, 0, 79, 68
2, 128158, Note_off_c, 0, 79, 68
2, 128160, Note_on_c, 0, 76, 76
2, 128278, Note_off_c, 0, 76, 76
2, 128280, Note_on_c, 0, 69, 68
2, 128398, Note_off_c, 0, 69, 68
2, 128400, Note_on_c, 0, 81, 74
2, 128518, Note_off_c, 0, 81, 74
2, 128520, Note_on_c, 0, 77, 74
2, 128638, Note_off_c, 0, 77, 74
2, 128640, Note_on_c, 0, 74, 74
2, 128758, Note_off_c, 0, 74, 74
2, 128760, Note_on_c, 0, 69, 65
2, 128878, Note_off_c, 0, 69, 65
2, 128880, Note_on_c, 0, 81, 74
2, 128998, Note_off_c, 0, 81, 74
2, 129000, Note_on_c, 0, 79, 74
2, 129118, Note_off_c, 0, 79, 74
2, 129120, Note_on_c, 0, 76, 62
2, 129238, Note_off_c, 0, 76, 62
2, 129240, Note_on_c, 0, 69, 66
2, 129358, Note_off_c, 0, 69, 66
2, 129360, Note_on_c, 0, 81, 76
2, 129478, Note_off_c, 0, 81, 76
2, 129480, Note_on_c, 0, 77, 66
2, 129598, Note_off_c, 0, 77, 66
2, 129600, Note_on_c, 0, 74, 78
2, 129718, Note_off_c, 0, 74, 78
2, 129720, Note_on_c, 0, 69, 73
2, 129838, Note_off_c, 0, 69, 73
2, 129840, Note_on_c, 0, 81, 78
2, 129958, Note_off_c, 0, 81, 78
2, 129960, Note_on_c, 0, 79, 76
2, 130078, Note_off_c, 0, 79, 76
2, 130080, Note_on_c, 0, 77, 73
2, 130198, Note_off_c, 0, 77, 73
2, 130200, Note_on_c, 0, 76, 76
2, 130318, Note_off_c, 0, 76, 76
2, 130320, Note_on_c, 0, 74, 72
2, 130438, Note_off_c, 0, 74, 72
2, 130440, Note_on_c, 0, 72, 72
2, 130558, Note_off_c, 0, 72, 72
2, 130560, Note_on_c, 0, 70, 68
2, 130678, Note_off_c, 0, 70, 68
2, 130680, Note_on_c, 0, 69, 62
2, 130798, Note_off_c, 0, 69, 62
2, 130800, Note_on_c, 0, 67, 66
2, 130918, Note_off_c, 0, 67, 66
2, 130920, Note_on_c, 0, 65, 68
2, 131038, Note_off_c, 0, 65, 68
2, 131040, Note_on_c, 0, 64, 73
2, 131158, Note_off_c, 0, 64, 73
2, 131160, Note_on_c, 0, 62, 76
2, 131278, Note_off_c, 0, 62, 76
2, 131280, Note_on_c, 0, 61, 66
2, 131398, Note_off_c, 0, 61, 66
2, 131400, Note_on_c, 0, 62, 68
2, 131518, Note_off_c, 0, 62, 68
2, 131520, Note_on_c, 0, 63, 68
2, 131998, Note_off_c, 0, 63, 68
2, 132240, Note_on_c, 0, 67, 62
2, 132240, Note_on_c, 0, 63, 62
2, 132478, Note_off_c, 0, 67, 62
2, 132478, Note_off_c, 0, 63, 62
2, 132720, Note_on_c, 0, 62, 72
2, 132720, Note_on_c, 0, 65, 78
2, 132838, Note_off_c, 0, 62, 72
2, 132838, Note_off_c, 0, 65, 78
2, 133200, Note_on_c, 0, 61, 70
2, 133318, Note_off_c, 0, 61, 70
2, 133440, Note_on_c, 0, 62, 72
2, 133918, Note_off_c, 0, 62, 72
2, 134160, Note_on_c, 0, 69, 76
2, 134398, Note_off_c, 0, 69, 76
2, 134400, Note_on_c, 0, 62, 66
2, 134638, Note_off_c, 0, 62, 66
2, 134640, Note_on_c, 0, 65, 65
2, 134758, Note_off_c, 0, 65, 65
2, 134880, Note_on_c, 0, 58, 68
2, 135118, Note_off_c, 0, 58, 68
2, 135120, Note_on_c, 0, 70, 71
2, 135238, Note_off_c, 0, 70, 71
2, 135360, Note_on_c, 0, 64, 74
2, 135478, Note_off_c, 0, 64, 74
2, 135480, Note_on_c, 0, 65, 66
2, 135598, Note_off_c, 0, 65, 66
2, 135600, Note_on_c, 0, 67, 71
2, 135718, Note_off_c, 0, 67, 71
2, 135720, Note_on_c, 0, 64, 63
2, 135838, Note_off_c, 0, 64, 63
2, 135840, Note_on_c, 0, 60, 72
2, 136078, Note_off_c, 0, 60, 72
2, 136080, Note_on_c, 0, 72, 74
2, 136198, Note_off_c, 0, 72, 74
2, 136320, Note_on_c, 0, 65, 70
2, 136558, Note_off_c, 0, 65, 70
2, 136560, Note_on_c, 0, 69, 65
2, 136678, Note_off_c, 0, 69, 65
2, 136800, Note_on_c, 0, 62, 78
2, 137038, Note_off_c, 0, 62, 78
2, 137040, Note_on_c, 0, 74, 81
2, 137158, Note_off_c, 0, 74, 81
2, 137280, Note_on_c, 0, 67, 73
2, 137398, Note_off_c, 0, 67, 73
2, 137400, Note_on_c, 0, 69, 72
2, 137518, Note_off_c, 0, 69, 72
2, 137520, Note_on_c, 0, 70, 74
2, 137638, Note_off_c, 0, 70, 74
2, 137640, Note_on_c, 0, 67, 71
2, 137758, Note_off_c, 0, 67, 71
2, 137760, Note_on_c, 0, 64, 70
2, 137998, Note_off_c, 0, 64, 70
2, 138000, Note_on_c, 0, 79, 86
2, 138118, Note_off_c, 0, 79, 86
2, 138240, Note_on_c, 0, 70, 73
2, 138478, Note_off_c, 0, 70, 73
2, 138480, Note_on_c, 0, 67, 71
2, 138718, Note_off_c, 0, 67, 71
2, 138720, Note_on_c, 0, 69, 76
2, 138838, Note_off_c, 0, 69, 76
2, 138960, Note_on_c, 0, 81, 78
2, 139078, Note_off_c, 0, 81, 78
2, 139200, Note_on_c, 0, 72, 65
2, 139438, Note_off_c, 0, 72, 65
2, 139440, Note_on_c, 0, 69, 65
2, 139678, Note_off_c, 0, 69, 65
2, 139680, Note_on_c, 0, 70, 72
2, 139798, Note_off_c, 0, 70, 72
2, 139920, Note_on_c, 0, 82, 74
2, 140038, Note_off_c, 0, 82, 74
2, 140160, Note_on_c, 0, 76, 68
2, 140398, Note_off_c, 0, 76, 68
2, 140400, Note_on_c, 0, 77, 72
2, 140518, Note_off_c, 0, 77, 72
2, 140640, Note_on_c, 0, 70, 74
2, 140758, Note_off_c, 0, 70, 74
2, 140880, Note_on_c, 0, 69, 74
2, 140998, Note_off_c, 0, 69, 74
2, 141120, Note_on_c, 0, 67, 74
2, 141598, Note_off_c, 0, 67, 74
2, 141840, Note_on_c, 0, 72, 74
2, 141958, Note_off_c, 0, 72, 74
2, 142080, Note_on_c, 0, 65, 66
2, 142318, Note_off_c, 0, 65, 66
2, 142320, Note_on_c, 0, 69, 71
2, 142438, Note_off_c, 0, 69, 71
2, 142560, Note_on_c, 0, 62, 72
2, 142678, Note_off_c, 0, 62, 72
2, 142800, Note_on_c, 0, 74, 74
2, 142918, Note_off_c, 0, 74, 74
2, 143040, Note_on_c, 0, 65, 74
2, 143518, Note_off_c, 0, 65, 74
2, 143520, Note_on_c, 0, 64, 68
2, 143638, Note_off_c, 0, 64, 68
2, 143760, Note_on_c, 0, 70, 71
2, 143878, Note_off_c, 0, 70, 71
2, 144000, Note_on_c, 0, 67, 72
2, 144238, Note_off_c, 0, 67, 72
2, 144240, Note_on_c, 0, 76, 61
2, 144358, Note_off_c, 0, 76, 61
2, 144480, Note_on_c, 0, 70, 73
2, 144718, Note_off_c, 0, 70, 73
2, 144720, Note_on_c, 0, 79, 77
2, 144838, Note_off_c, 0, 79, 77
2, 144960, Note_on_c, 0, 70, 68
2, 145438, Note_off_c, 0, 70, 68
2, 145440, Note_on_c, 0, 69, 67
2, 145678, Note_off_c, 0, 69, 67
2, 145680, Note_on_c, 0, 72, 72
2, 145798, Note_off_c, 0, 72, 72
2, 145920, Note_on_c, 0, 63, 68
2, 146158, Note_off_c, 0, 63, 68
2, 146160, Note_on_c, 0, 75, 68
2, 146278, Note_off_c, 0, 75, 68
2, 146400, Note_on_c, 0, 65, 72
2, 146638, Note_off_c, 0, 65, 72
2, 146640, Note_on_c, 0, 72, 74
2, 146878, Note_off_c, 0, 72, 74
2, 146880, Note_on_c, 0, 73, 72
2, 147118, Note_off_c, 0, 73, 72
2, 147120, Note_on_c, 0, 74, 74
2, 147238, Note_off_c, 0, 74, 74
2, 147360, Note_on_c, 0, 67, 67
2, 147478, Note_off_c, 0, 67, 67
2, 147600, Note_on_c, 0, 74, 68
2, 147718, Note_off_c, 0, 74, 68
2, 147840, Note_on_c, 0, 75, 76
2, 148078, Note_off_c, 0, 75, 76
2, 148080, Note_on_c, 0, 76, 78
2, 148198, Note_off_c, 0, 76, 78
2, 148320, Note_on_c, 0, 69, 74
2, 148438, Note_off_c, 0, 69, 74
2, 148560, Note_on_c, 0, 76, 73
2, 148798, Note_off_c, 0, 76, 73
2, 148800, Note_on_c, 0, 79, 78
2, 149038, Note_off_c, 0, 79, 78
2, 149040, Note_on_c, 0, 77, 81
2, 149278, Note_off_c, 0, 77, 81
2, 149280, Note_on_c, 0, 70, 72
2, 149518, Note_off_c, 0, 70, 72
2, 149520, Note_on_c, 0, 77, 81
2, 149758, Note_off_c, 0, 77, 81
2, 149760, Note_on_c, 0, 78, 79
2, 149998, Note_off_c, 0, 78, 79
2, 150000, Note_on_c, 0, 79, 74
2, 150238, Note_off_c, 0, 79, 74
2, 150240, Note_on_c, 0, 72, 72
2, 150478, Note_off_c, 0, 72, 72
2, 150480, Note_on_c, 0, 79, 74
2, 150718, Note_off_c, 0, 79, 74
2, 150720, Note_on_c, 0, 80, 86
2, 150958, Note_off_c, 0, 80, 86
2, 150960, Note_on_c, 0, 81, 76
2, 151078, Note_off_c, 0, 81, 76
2, 151200, Note_on_c, 0, 77, 78
2, 151318, Note_off_c, 0, 77, 78
2, 151440, Note_on_c, 0, 83, 78
2, 151678, Note_off_c, 0, 83, 78
2, 151680, Note_on_c, 0, 76, 72
2, 151918, Note_off_c, 0, 76, 72
2, 151920, Note_on_c, 0, 84, 76
2, 152158, Note_off_c, 0, 84, 76
2, 152160, Note_on_c, 0, 72, 74
2, 152398, Note_off_c, 0, 72, 74
2, 152400, Note_on_c, 0, 73, 72
2, 152638, Note_off_c, 0, 73, 72
2, 152640, Note_on_c, 0, 74, 78
2, 152880, Note_on_c, 0, 78, 65
2, 153118, Note_off_c, 0, 78, 65
2, 153120, Note_on_c, 0, 81, 74
2, 153178, Note_off_c, 0, 81, 74
2, 153180, Note_on_c, 0, 79, 73
2, 153238, Note_off_c, 0, 79, 73
2, 153240, Note_on_c, 0, 78, 53
2, 153298, Note_off_c, 0, 78, 53
2, 153300, Note_on_c, 0, 79, 67
2, 153358, Note_off_c, 0, 79, 67
2, 153360, Note_on_c, 0, 82, 66
2, 153598, Note_off_c, 0, 74, 78
2, 153598, Note_off_c, 0, 82, 66
2, 153600, Note_on_c, 0, 76, 61
2, 153600, Note_on_c, 0, 72, 73
2, 153838, Note_off_c, 0, 76, 61
2, 153840, Note_on_c, 0, 79, 63
2, 154078, Note_off_c, 0, 79, 63
2, 154080, Note_on_c, 0, 77, 63
2, 154318, Note_off_c, 0, 77, 63
2, 154320, Note_on_c, 0, 84, 68
2, 154558, Note_off_c, 0, 72, 73
2, 154558, Note_off_c, 0, 84, 68
2, 154560, Note_on_c, 0, 74, 72
2, 154560, Note_on_c, 0, 70, 74
2, 155278, Note_off_c, 0, 74, 72
2, 155278, Note_off_c, 0, 70, 74
2, 155280, Note_on_c, 0, 82, 74
2, 155518, Note_off_c, 0, 82, 74
2, 155520, Note_on_c, 0, 72, 66
2, 155520, Note_on_c, 0, 69, 76
2, 155758, Note_off_c, 0, 72, 66
2, 155760, Note_on_c, 0, 75, 51
2, 155998, Note_off_c, 0, 75, 51
2, 156000, Note_on_c, 0, 74, 68
2, 156238, Note_off_c, 0, 74, 68
2, 156240, Note_on_c, 0, 81, 66
2, 156478, Note_off_c, 0, 69, 76
2, 156478, Note_off_c, 0, 81, 66
2, 156480, Note_on_c, 0, 70, 57
2, 156480, Note_on_c, 0, 67, 68
2, 156718, Note_off_c, 0, 70, 57
2, 156720, Note_on_c, 0, 74, 68
2, 156958, Note_off_c, 0, 74, 68
2, 156960, Note_on_c, 0, 72, 71
2, 157198, Note_off_c, 0, 72, 71
2, 157200, Note_on_c, 0, 79, 68
2, 157438, Note_off_c, 0, 67, 68
2, 157438, Note_off_c, 0, 79, 68
2, 157440, Note_on_c, 0, 69, 71
2, 157440, Note_on_c, 0, 65, 68
2, 157678, Note_off_c, 0, 69, 71
2, 157680, Note_on_c, 0, 72, 65
2, 157918, Note_off_c, 0, 65, 68
2, 157918, Note_off_c, 0, 72, 65
2, 157920, Note_on_c, 0, 71, 72
2, 158160, Note_on_c, 0, 77, 65
2, 158398, Note_off_c, 0, 71, 72
2, 158398, Note_off_c, 0, 77, 65
2, 158400, Note_on_c, 0, 76, 67
2, 158400, Note_on_c, 0, 72, 65
2, 158878, Note_off_c, 0, 76, 67
2, 158878, Note_off_c, 0, 72, 65
2, 159120, Note_on_c, 0, 72, 71
2, 159238, Note_off_c, 0, 72, 71
2, 159360, Note_on_c, 0, 65, 70
2, 159598, Note_off_c, 0, 65, 70
2, 159600, Note_on_c, 0, 69, 74
2, 159718, Note_off_c, 0, 69, 74
2, 159840, Note_on_c, 0, 60, 65
2, 160078, Note_off_c, 0, 60, 65
2, 160080, Note_on_c, 0, 65, 62
2, 160198, Note_off_c, 0, 65, 62
2, 160320, Note_on_c, 0, 64, 65
2, 160558, Note_off_c, 0, 64, 65
2, 160560, Note_on_c, 0, 65, 58
2, 160798, Note_off_c, 0, 65, 58
2, 160800, Note_on_c, 0, 67, 62
2, 160918, Note_off_c, 0, 67, 62
2, 161040, Note_on_c, 0, 72, 68
2, 161158, Note_off_c, 0, 72, 68
2, 161280, Note_on_c, 0, 67, 68
2, 161518, Note_off_c, 0, 67, 68
2, 161520, Note_on_c, 0, 70, 68
2, 161758, Note_off_c, 0, 70, 68
2, 161760, Note_on_c, 0, 60, 67
2, 161998, Note_off_c, 0, 60, 67
2, 162000, Note_on_c, 0, 64, 68
2, 162118, Note_off_c, 0, 64, 68
2, 162240, Note_on_c, 0, 65, 67
2, 162478, Note_off_c, 0, 65, 67
2, 162480, Note_on_c, 0, 67, 62
2, 162718, Note_off_c, 0, 67, 62
2, 162720, Note_on_c, 0, 69, 68
2, 162838, Note_off_c, 0, 69, 68
2, 162960, Note_on_c, 0, 72, 73
2, 163198, Note_off_c, 0, 72, 73
2, 163200, Note_on_c, 0, 65, 67
2, 163438, Note_off_c, 0, 65, 67
2, 163440, Note_on_c, 0, 72, 63
2, 163678, Note_off_c, 0, 72, 63
2, 163680, Note_on_c, 0, 65, 67
2, 163918, Note_off_c, 0, 65, 67
2, 163920, Note_on_c, 0, 63, 76
2, 164278, Note_off_c, 0, 63, 76
2, 164280, Note_on_c, 0, 62, 66
2, 164398, Note_off_c, 0, 62, 66
2, 164400, Note_on_c, 0, 61, 55
2, 164518, Note_off_c, 0, 61, 55
2, 164520, Note_on_c, 0, 62, 65
2, 164638, Note_off_c, 0, 62, 65
2, 164640, Note_on_c, 0, 64, 66
2, 164758, Note_off_c, 0, 64, 66
2, 164760, Note_on_c, 0, 62, 63
2, 164878, Note_off_c, 0, 62, 63
2, 164880, Note_on_c, 0, 66, 76
2, 164998, Note_off_c, 0, 66, 76
2, 165000, Note_on_c, 0, 62, 52
2, 165118, Note_off_c, 0, 62, 52
2, 165120, Note_on_c, 0, 67, 78
2, 165238, Note_off_c, 0, 67, 78
2, 165240, Note_on_c, 0, 62, 55
2, 165358, Note_off_c, 0, 62, 55
2, 165360, Note_on_c, 0, 69, 78
2, 165478, Note_off_c, 0, 69, 78
2, 165480, Note_on_c, 0, 62, 74
2, 165598, Note_off_c, 0, 62, 74
2, 165600, Note_on_c, 0, 70, 86
2, 165718, Note_off_c, 0, 70, 86
2, 165720, Note_on_c, 0, 62, 40
2, 165838, Note_off_c, 0, 62, 40
2, 165840, Note_on_c, 0, 72, 86
2, 165958, Note_off_c, 0, 72, 86
2, 165960, Note_on_c, 0, 62, 52
2, 166078, Note_off_c, 0, 62, 52
2, 166080, Note_on_c, 0, 74, 94
2, 166558, Note_off_c, 0, 74, 94
2, 166560, Note_on_c, 0, 72, 66
2, 166678, Note_off_c, 0, 72, 66
2, 166680, Note_on_c, 0, 70, 62
2, 166798, Note_off_c, 0, 70, 62
2, 166800, Note_on_c, 0, 69, 61
2, 166918, Note_off_c, 0, 69, 61
2, 166920, Note_on_c, 0, 67, 46
2, 167038, Note_off_c, 0, 67, 46
2, 167040, Note_on_c, 0, 66, 51
2, 167158, Note_off_c, 0, 66, 51
2, 167160, Note_on_c, 0, 67, 66
2, 167278, Note_off_c, 0, 67, 66
2, 167280, Note_on_c, 0, 69, 66
2, 167398, Note_off_c, 0, 69, 66
2, 167400, Note_on_c, 0, 67, 63
2, 167518, Note_off_c, 0, 67, 63
2, 167520, Note_on_c, 0, 72, 65
2, 167638, Note_off_c, 0, 72, 65
2, 167640, Note_on_c, 0, 70, 66
2, 167758, Note_off_c, 0, 70, 66
2, 167760, Note_on_c, 0, 69, 65
2, 167878, Note_off_c, 0, 69, 65
2, 167880, Note_on_c, 0, 67, 62
2, 167998, Note_off_c, 0, 67, 62
2, 168000, Note_on_c, 0, 65, 68
2, 168718, Note_off_c, 0, 65, 68
2, 168720, Note_on_c, 0, 69, 43
2, 168838, Note_off_c, 0, 69, 43
2, 168840, Note_on_c, 0, 67, 56
2, 168958, Note_off_c, 0, 67, 56
2, 168960, Note_on_c, 0, 65, 67
2, 169198, Note_off_c, 0, 65, 67
2, 169680, Note_on_c, 0, 79, 77
2, 169798, Note_off_c, 0, 79, 77
2, 169800, Note_on_c, 0, 76, 78
2, 169918, Note_off_c, 0, 76, 78
2, 169920, Note_on_c, 0, 79, 74
2, 170038, Note_off_c, 0, 79, 74
2, 170040, Note_on_c, 0, 76, 89
2, 170158, Note_off_c, 0, 76, 89
2, 170160, Note_on_c, 0, 82, 74
2, 170278, Note_off_c, 0, 82, 74
2, 170280, Note_on_c, 0, 79, 72
2, 170398, Note_off_c, 0, 79, 72
2, 170400, Note_on_c, 0, 76, 74
2, 170518, Note_off_c, 0, 76, 74
2, 170520, Note_on_c, 0, 72, 66
2, 170638, Note_off_c, 0, 72, 66
2, 170640, Note_on_c, 0, 79, 65
2, 170758, Note_off_c, 0, 79, 65
2, 170760, Note_on_c, 0, 76, 50
2, 170878, Note_off_c, 0, 76, 50
2, 170880, Note_on_c, 0, 79, 74
2, 170998, Note_off_c, 0, 79, 74
2, 171000, Note_on_c, 0, 76, 78
2, 171118, Note_off_c, 0, 76, 78
2, 171120, Note_on_c, 0, 82, 78
2, 171238, Note_off_c, 0, 82, 78
2, 171240, Note_on_c, 0, 79, 76
2, 171358, Note_off_c, 0, 79, 76
2, 171360, Note_on_c, 0, 76, 79
2, 171478, Note_off_c, 0, 76, 79
2, 171480, Note_on_c, 0, 72, 74
2, 171598, Note_off_c, 0, 72, 74
2, 171600, Note_on_c, 0, 79, 65
2, 171718, Note_off_c, 0, 79, 65
2, 171720, Note_on_c, 0, 76, 63
2, 171838, Note_off_c, 0, 76, 63
2, 171840, Note_on_c, 0, 79, 78
2, 171958, Note_off_c, 0, 79, 78
2, 171960, Note_on_c, 0, 76, 78
2, 172078, Note_off_c, 0, 76, 78
2, 172080, Note_on_c, 0, 82, 78
2, 172198, Note_off_c, 0, 82, 78
2, 172200, Note_on_c, 0, 79, 78
2, 172318, Note_off_c, 0, 79, 78
2, 172320, Note_on_c, 0, 76, 74
2, 172438, Note_off_c, 0, 76, 74
2, 172440, Note_on_c, 0, 72, 65
2, 172558, Note_off_c, 0, 72, 65
2, 172560, Note_on_c, 0, 79, 74
2, 172678, Note_off_c, 0, 79, 74
2, 172680, Note_on_c, 0, 76, 73
2, 172798, Note_off_c, 0, 76, 73
2, 172800, Note_on_c, 0, 72, 74
2, 172918, Note_off_c, 0, 72, 74
2, 172920, Note_on_c, 0, 70, 65
2, 173038, Note_off_c, 0, 70, 65
2, 173040, Note_on_c, 0, 76, 71
2, 173158, Note_off_c, 0, 76, 71
2, 173160, Note_on_c, 0, 72, 72
2, 173278, Note_off_c, 0, 72, 72
2, 173280, Note_on_c, 0, 70, 78
2, 173398, Note_off_c, 0, 70, 78
2, 173400, Note_on_c, 0, 67, 73
2, 173518, Note_off_c, 0, 67, 73
2, 173520, Note_on_c, 0, 70, 70
2, 173638, Note_off_c, 0, 70, 70
2, 173640, Note_on_c, 0, 67, 66
2, 173758, Note_off_c, 0, 67, 66
2, 173760, Note_on_c, 0, 64, 83
2, 173878, Note_off_c, 0, 64, 83
2, 174480, Note_on_c, 0, 84, 72
2, 174598, Note_off_c, 0, 84, 72
2, 174720, Note_on_c, 0, 77, 68
2, 174838, Note_off_c, 0, 77, 68
2, 174960, Note_on_c, 0, 81, 72
2, 175078, Note_off_c, 0, 81, 72
2, 175200, Note_on_c, 0, 74, 74
2, 175318, Note_off_c, 0, 74, 74
2, 175440, Note_on_c, 0, 86, 66
2, 175558, Note_off_c, 0, 86, 66
2, 175680, Note_on_c, 0, 77, 68
2, 176158, Note_off_c, 0, 77, 68
2, 176160, Note_on_c, 0, 76, 74
2, 176278, Note_off_c, 0, 76, 74
2, 176400, Note_on_c, 0, 84, 67
2, 176518, Note_off_c, 0, 84, 67
2, 176640, Note_on_c, 0, 77, 74
2, 176878, Note_off_c, 0, 77, 74
2, 176880, Note_on_c, 0, 81, 74
2, 177118, Note_off_c, 0, 81, 74
2, 177120, Note_on_c, 0, 74, 77
2, 177358, Note_off_c, 0, 74, 77
2, 177360, Note_on_c, 0, 86, 76
2, 177478, Note_off_c, 0, 86, 76
2, 177600, Note_on_c, 0, 77, 74
2, 178078, Note_off_c, 0, 77, 74
2, 178080, Note_on_c, 0, 76, 74
2, 178198, Note_off_c, 0, 76, 74
2, 178320, Note_on_c, 0, 84, 72
2, 178438, Note_off_c, 0, 84, 72
2, 178560, Note_on_c, 0, 75, 77
2, 179038, Note_off_c, 0, 75, 77
2, 179040, Note_on_c, 0, 74, 66
2, 179278, Note_off_c, 0, 74, 66
2, 179280, Note_on_c, 0, 82, 77
2, 179398, Note_off_c, 0, 82, 77
2, 179520, Note_on_c, 0, 73, 62
2, 179998, Note_off_c, 0, 73, 62
2, 180000, Note_on_c, 0, 72, 62
2, 180118, Note_off_c, 0, 72, 62
2, 180240, Note_on_c, 0, 77, 76
2, 180358, Note_off_c, 0, 77, 76
2, 180480, Note_on_c, 0, 67, 74
2, 180718, Note_off_c, 0, 67, 74
2, 180720, Note_on_c, 0, 70, 70
2, 180720, Note_on_c, 0, 74, 79
2, 180958, Note_off_c, 0, 70, 70
2, 180958, Note_off_c, 0, 74, 79
2, 180960, Note_on_c, 0, 72, 66
2, 180960, Note_on_c, 0, 69, 56
2, 181198, Note_off_c, 0, 72, 66
2, 181198, Note_off_c, 0, 69, 56
2, 181200, Note_on_c, 0, 64, 74
2, 181438, Note_off_c, 0, 64, 74
2, 181440, Note_on_c, 0, 65, 68
2, 181678, Note_off_c, 0, 65, 68
2, 182160, Note_on_c, 0, 84, 72
2, 182278, Note_off_c, 0, 84, 72
2, 182400, Note_on_c, 0, 77, 71
2, 182638, Note_off_c, 0, 77, 71
2, 182640, Note_on_c, 0, 81, 67
2, 182758, Note_off_c, 0, 81, 67
2, 182880, Note_on_c, 0, 74, 76
2, 183118, Note_off_c, 0, 74, 76
2, 183120, Note_on_c, 0, 86, 76
2, 183238, Note_off_c, 0, 86, 76
2, 183360, Note_on_c, 0, 77, 74
2, 183838, Note_off_c, 0, 77, 74
2, 183840, Note_on_c, 0, 76, 61
2, 184078, Note_off_c, 0, 76, 61
2, 184080, Note_on_c, 0, 84, 65
2, 184318, Note_off_c, 0, 84, 65
2, 184320, Note_on_c, 0, 77, 71
2, 184438, Note_off_c, 0, 77, 71
2, 184440, Note_on_c, 0, 79, 70
2, 184558, Note_off_c, 0, 79, 70
2, 184560, Note_on_c, 0, 81, 73
2, 184678, Note_off_c, 0, 81, 73
2, 184680, Note_on_c, 0, 77, 63
2, 184798, Note_off_c, 0, 77, 63
2, 184800, Note_on_c, 0, 74, 68
2, 185038, Note_off_c, 0, 74, 68
2, 185040, Note_on_c, 0, 86, 78
2, 185278, Note_off_c, 0, 86, 78
2, 185280, Note_on_c, 0, 77, 71
2, 185758, Note_off_c, 0, 77, 71
2, 185760, Note_on_c, 0, 76, 51
2, 185998, Note_off_c, 0, 76, 51
2, 186000, Note_on_c, 0, 84, 62
2, 186238, Note_off_c, 0, 84, 62
2, 186240, Note_on_c, 0, 75, 77
2, 186718, Note_off_c, 0, 75, 77
2, 186720, Note_on_c, 0, 74, 78
2, 186958, Note_off_c, 0, 74, 78
2, 186960, Note_on_c, 0, 82, 66
2, 187198, Note_off_c, 0, 82, 66
2, 187200, Note_on_c, 0, 73, 74
2, 187678, Note_off_c, 0, 73, 74
2, 187680, Note_on_c, 0, 72, 78
2, 187918, Note_off_c, 0, 72, 78
2, 187920, Note_on_c, 0, 77, 73
2, 188158, Note_off_c, 0, 77, 73
2, 188160, Note_on_c, 0, 58, 62
2, 188160, Note_on_c, 0, 67, 74
2, 188398, Note_off_c, 0, 67, 74
2, 188400, Note_on_c, 0, 70, 72
2, 188400, Note_on_c, 0, 74, 86
2, 188638, Note_off_c, 0, 58, 62
2, 188638, Note_off_c, 0, 70, 72
2, 188638, Note_off_c, 0, 74, 86
2, 188640, Note_on_c, 0, 48, 70
2, 188640, Note_on_c, 0, 60, 72
2, 188640, Note_on_c, 0, 69, 58
2, 188640, Note_on_c, 0, 72, 63
2, 188878, Note_off_c, 0, 69, 58
2, 188878, Note_off_c, 0, 72, 63
2, 188880, Note_on_c, 0, 64, 63
2, 188998, Note_off_c, 0, 64, 63
2, 189118, Note_off_c, 0, 48, 70
2, 189118, Note_off_c, 0, 60, 72
2, 189120, Note_on_c, 0, 65, 65
2, 189598, Note_off_c, 0, 65, 65
2, 189840, Note_on_c, 0, 62, 41
2, 189840, Note_on_c, 0, 58, 45
2, 190078, Note_off_c, 0, 62, 41
2, 190078, Note_off_c, 0, 58, 45
2, 190080, Note_on_c, 0, 57, 56
2, 190080, Note_on_c, 0, 60, 66
2, 190198, Note_off_c, 0, 57, 56
2, 190198, Note_off_c, 0, 60, 66
2, 190800, Note_on_c, 0, 70, 57
2, 190800, Note_on_c, 0, 64, 60
2, 191038, Note_off_c, 0, 70, 57
2, 191038, Note_off_c, 0, 64, 60
2, 191040, Note_on_c, 0, 69, 62
2, 191040, Note_on_c, 0, 65, 51
2, 191158, Note_off_c, 0, 69, 62
2, 191158, Note_off_c, 0, 65, 51
2, 191760, Note_on_c, 0, 74, 65
2, 191760, Note_on_c, 0, 70, 53
2, 191998, Note_off_c, 0, 74, 65
2, 191998, Note_off_c, 0, 70, 53
2, 192000, Note_on_c, 0, 69, 62
2, 192000, Note_on_c, 0, 72, 53
2, 192118, Note_off_c, 0, 69, 62
2, 192118, Note_off_c, 0, 72, 53
2, 192720, Note_on_c, 0, 76, 47
2, 192720, Note_on_c, 0, 82, 55
2, 192958, Note_off_c, 0, 76, 47
2, 192958, Note_off_c, 0, 82, 55
2, 192960, Note_on_c, 0, 77, 34
2, 192960, Note_on_c, 0, 81, 46
2, 193078, Note_off_c, 0, 77, 34
2, 193078, Note_off_c, 0, 81, 46
2, 193920, End_track
3, 0, Start_track
3, 0, MIDI_port, 0
3, 0, Channel_prefix, 1
3, 0, Title_t, "Piano L.H."
3, 0, Key_signature, -1, "major"
3, 980, Control_c, 1, 0, 0
3, 985, Program_c, 1, 0
3, 990, Control_c, 1, 7, 127
3, 995, Control_c, 1, 10, 64
3, 1000, Control_c, 1, 91, 74
3, 1005, Control_c, 1, 93, 0
3, 1010, Control_c, 1, 94, 0
3, 1015, Control_c, 1, 11, 127
3, 2880, Note_on_c, 1, 53, 66
3, 2880, Note_on_c, 1, 57, 62
3, 3118, Note_off_c, 1, 53, 66
3, 3118, Note_off_c, 1, 57, 62
3, 3360, Note_on_c, 1, 58, 50
3, 3360, Note_on_c, 1, 46, 38
3, 3598, Note_off_c, 1, 58, 50
3, 3598, Note_off_c, 1, 46, 38
3, 3840, Note_on_c, 1, 57, 56
3, 3840, Note_on_c, 1, 48, 62
3, 4318, Note_off_c, 1, 57, 56
3, 4320, Note_on_c, 1, 55, 61
3, 4558, Note_off_c, 1, 48, 62
3, 4558, Note_off_c, 1, 55, 61
3, 5280, Note_on_c, 1, 60, 56
3, 5280, Note_on_c, 1, 64, 57
3, 5518, Note_off_c, 1, 60, 56
3, 5518, Note_off_c, 1, 64, 57
3, 5760, Note_on_c, 1, 65, 68
3, 5998, Note_off_c, 1, 65, 68
3, 6000, Note_on_c, 1, 53, 65
3, 6238, Note_off_c, 1, 53, 65
3, 7200, Note_on_c, 1, 57, 58
3, 7438, Note_off_c, 1, 57, 58
3, 7680, Note_on_c, 1, 58, 58
3, 7918, Note_off_c, 1, 58, 58
3, 7920, Note_on_c, 1, 46, 53
3, 8158, Note_off_c, 1, 46, 53
3, 8400, Note_on_c, 1, 58, 57
3, 8400, Note_on_c, 1, 62, 57
3, 8638, Note_off_c, 1, 58, 57
3, 8638, Note_off_c, 1, 62, 57
3, 8640, Note_on_c, 1, 57, 42
3, 8640, Note_on_c, 1, 60, 67
3, 8878, Note_off_c, 1, 57, 42
3, 8878, Note_off_c, 1, 60, 67
3, 8880, Note_on_c, 1, 58, 63
3, 8880, Note_on_c, 1, 55, 63
3, 9118, Note_off_c, 1, 58, 63
3, 9118, Note_off_c, 1, 55, 63
3, 9120, Note_on_c, 1, 60, 66
3, 9358, Note_off_c, 1, 60, 66
3, 9360, Note_on_c, 1, 48, 68
3, 9598, Note_off_c, 1, 48, 68
3, 9600, Note_on_c, 1, 53, 65
3, 9838, Note_off_c, 1, 53, 65
3, 9840, Note_on_c, 1, 41, 58
3, 10078, Note_off_c, 1, 41, 58
3, 11280, Note_on_c, 1, 72, 65
3, 11280, Note_on_c, 1, 69, 61
3, 11518, Note_off_c, 1, 72, 65
3, 11518, Note_off_c, 1, 69, 61
3, 11520, Note_on_c, 1, 70, 65
3, 11520, Note_on_c, 1, 67, 68
3, 11758, Note_off_c, 1, 70, 65
3, 11758, Note_off_c, 1, 67, 68
3, 11760, Note_on_c, 1, 69, 68
3, 11760, Note_on_c, 1, 65, 72
3, 11998, Note_off_c, 1, 69, 68
3, 11998, Note_off_c, 1, 65, 72
3, 12000, Note_on_c, 1, 67, 73
3, 12000, Note_on_c, 1, 64, 74
3, 12238, Note_off_c, 1, 67, 73
3, 12238, Note_off_c, 1, 64, 74
3, 13200, Note_on_c, 1, 70, 31
3, 13200, Note_on_c, 1, 72, 42
3, 13438, Note_off_c, 1, 70, 31
3, 13438, Note_off_c, 1, 72, 42
3, 13440, Note_on_c, 1, 69, 60
3, 13440, Note_on_c, 1, 72, 60
3, 13678, Note_off_c, 1, 69, 60
3, 13678, Note_off_c, 1, 72, 60
3, 13680, Note_on_c, 1, 67, 66
3, 13680, Note_on_c, 1, 70, 55
3, 13918, Note_off_c, 1, 67, 66
3, 13918, Note_off_c, 1, 70, 55
3, 13920, Note_on_c, 1, 69, 38
3, 13920, Note_on_c, 1, 65, 51
3, 14158, Note_off_c, 1, 69, 38
3, 14158, Note_off_c, 1, 65, 51
3, 14640, Note_on_c, 1, 69, 57
3, 14640, Note_on_c, 1, 65, 55
3, 14878, Note_off_c, 1, 69, 57
3, 14878, Note_off_c, 1, 65, 55
3, 14880, Note_on_c, 1, 70, 60
3, 14880, Note_on_c, 1, 67, 53
3, 15118, Note_off_c, 1, 70, 60
3, 15118, Note_off_c, 1, 67, 53
3, 15120, Note_on_c, 1, 72, 53
3, 15120, Note_on_c, 1, 69, 55
3, 15358, Note_off_c, 1, 72, 53
3, 15358, Note_off_c, 1, 69, 55
3, 15360, Note_on_c, 1, 70, 52
3, 15838, Note_off_c, 1, 70, 52
3, 17040, Note_on_c, 1, 58, 53
3, 17278, Note_off_c, 1, 58, 53
3, 17280, Note_on_c, 1, 60, 72
3, 17518, Note_off_c, 1, 60, 72
3, 17520, Note_on_c, 1, 48, 74
3, 17758, Note_off_c, 1, 48, 74
3, 18480, Note_on_c, 1, 64, 67
3, 18718, Note_off_c, 1, 64, 67
3, 18720, Note_on_c, 1, 62, 58
3, 18958, Note_off_c, 1, 62, 58
3, 18960, Note_on_c, 1, 55, 73
3, 19198, Note_off_c, 1, 55, 73
3, 19200, Note_on_c, 1, 60, 71
3, 19438, Note_off_c, 1, 60, 71
3, 19440, Note_on_c, 1, 54, 65
3, 19678, Note_off_c, 1, 54, 65
3, 19680, Note_on_c, 1, 55, 67
3, 19918, Note_off_c, 1, 55, 67
3, 20400, Note_on_c, 1, 63, 48
3, 20638, Note_off_c, 1, 63, 48
3, 20640, Note_on_c, 1, 62, 65
3, 20878, Note_off_c, 1, 62, 65
3, 20880, Note_on_c, 1, 55, 63
3, 21118, Note_off_c, 1, 55, 63
3, 21120, Note_on_c, 1, 60, 62
3, 21358, Note_off_c, 1, 60, 62
3, 21360, Note_on_c, 1, 54, 55
3, 21598, Note_off_c, 1, 54, 55
3, 21600, Note_on_c, 1, 55, 63
3, 21838, Note_off_c, 1, 55, 63
3, 22320, Note_on_c, 1, 60, 66
3, 22320, Note_on_c, 1, 64, 73
3, 22558, Note_off_c, 1, 60, 66
3, 22558, Note_off_c, 1, 64, 73
3, 22560, Note_on_c, 1, 65, 78
3, 22560, Note_on_c, 1, 62, 67
3, 22798, Note_off_c, 1, 65, 78
3, 22798, Note_off_c, 1, 62, 67
3, 22800, Note_on_c, 1, 67, 76
3, 22800, Note_on_c, 1, 64, 55
3, 23038, Note_off_c, 1, 67, 76
3, 23038, Note_off_c, 1, 64, 55
3, 23040, Note_on_c, 1, 65, 81
3, 23758, Note_off_c, 1, 65, 81
3, 23760, Note_on_c, 1, 64, 68
3, 23998, Note_off_c, 1, 64, 68
3, 24000, Note_on_c, 1, 65, 82
3, 24238, Note_off_c, 1, 65, 82
3, 24240, Note_on_c, 1, 61, 73
3, 24478, Note_off_c, 1, 61, 73
3, 24480, Note_on_c, 1, 62, 78
3, 24718, Note_off_c, 1, 62, 78
3, 24720, Note_on_c, 1, 64, 70
3, 24958, Note_off_c, 1, 64, 70
3, 24960, Note_on_c, 1, 65, 84
3, 25438, Note_off_c, 1, 65, 84
3, 27120, Note_on_c, 1, 69, 68
3, 27120, Note_on_c, 1, 66, 57
3, 27358, Note_off_c, 1, 69, 68
3, 27358, Note_off_c, 1, 66, 57
3, 27360, Note_on_c, 1, 67, 63
3, 27598, Note_off_c, 1, 67, 63
3, 27600, Note_on_c, 1, 55, 71
3, 27838, Note_off_c, 1, 55, 71
3, 27840, Note_on_c, 1, 60, 72
3, 28078, Note_off_c, 1, 60, 72
3, 28080, Note_on_c, 1, 48, 70
3, 28318, Note_off_c, 1, 48, 70
3, 28800, Note_on_c, 1, 65, 81
3, 28800, Note_on_c, 1, 59, 74
3, 28800, Note_on_c, 1, 55, 72
3, 28800, Note_on_c, 1, 62, 77
3, 29278, Note_off_c, 1, 65, 81
3, 29278, Note_off_c, 1, 59, 74
3, 29278, Note_off_c, 1, 55, 72
3, 29278, Note_off_c, 1, 62, 77
3, 29760, Note_on_c, 1, 55, 63
3, 29760, Note_on_c, 1, 65, 74
3, 29760, Note_on_c, 1, 62, 71
3, 29760, Note_on_c, 1, 59, 53
3, 30238, Note_off_c, 1, 55, 63
3, 30238, Note_off_c, 1, 65, 74
3, 30238, Note_off_c, 1, 62, 71
3, 30238, Note_off_c, 1, 59, 53
3, 30720, Note_on_c, 1, 65, 74
3, 30720, Note_on_c, 1, 55, 52
3, 30720, Note_on_c, 1, 59, 51
3, 30720, Note_on_c, 1, 62, 71
3, 31198, Note_off_c, 1, 65, 74
3, 31198, Note_off_c, 1, 55, 52
3, 31198, Note_off_c, 1, 59, 51
3, 31198, Note_off_c, 1, 62, 71
3, 33600, Note_on_c, 1, 57, 83
3, 33718, Note_off_c, 1, 57, 83
3, 33840, Note_on_c, 1, 60, 70
3, 34078, Note_off_c, 1, 60, 70
3, 34080, Note_on_c, 1, 53, 73
3, 34198, Note_off_c, 1, 53, 73
3, 34320, Note_on_c, 1, 65, 72
3, 34438, Note_off_c, 1, 65, 72
3, 34560, Note_on_c, 1, 64, 57
3, 34560, Note_on_c, 1, 55, 58
3, 35038, Note_off_c, 1, 64, 57
3, 35040, Note_on_c, 1, 62, 61
3, 35278, Note_off_c, 1, 62, 61
3, 35518, Note_off_c, 1, 55, 58
3, 35520, Note_on_c, 1, 57, 83
3, 35638, Note_off_c, 1, 57, 83
3, 35760, Note_on_c, 1, 60, 70
3, 35998, Note_off_c, 1, 60, 70
3, 36000, Note_on_c, 1, 53, 73
3, 36118, Note_off_c, 1, 53, 73
3, 36240, Note_on_c, 1, 65, 72
3, 36358, Note_off_c, 1, 65, 72
3, 36480, Note_on_c, 1, 55, 63
3, 36480, Note_on_c, 1, 64, 57
3, 36958, Note_off_c, 1, 64, 57
3, 36960, Note_on_c, 1, 62, 61
3, 37198, Note_off_c, 1, 55, 63
3, 37198, Note_off_c, 1, 62, 61
3, 37200, Note_on_c, 1, 53, 62
3, 37438, Note_off_c, 1, 53, 62
3, 37440, Note_on_c, 1, 61, 55
3, 37440, Note_on_c, 1, 52, 51
3, 37918, Note_off_c, 1, 61, 55
3, 37918, Note_off_c, 1, 52, 51
3, 37920, Note_on_c, 1, 62, 58
3, 37920, Note_on_c, 1, 53, 56
3, 38398, Note_off_c, 1, 62, 58
3, 38398, Note_off_c, 1, 53, 56
3, 38400, Note_on_c, 1, 65, 56
3, 38400, Note_on_c, 1, 59, 53
3, 38878, Note_off_c, 1, 65, 56
3, 38878, Note_off_c, 1, 59, 53
3, 38880, Note_on_c, 1, 64, 58
3, 38880, Note_on_c, 1, 60, 43
3, 39358, Note_off_c, 1, 64, 58
3, 39358, Note_off_c, 1, 60, 43
3, 39360, Note_on_c, 1, 53, 56
3, 39646, Note_off_c, 1, 53, 56
3, 39840, Note_on_c, 1, 55, 66
3, 39840, Note_on_c, 1, 43, 61
3, 40126, Note_off_c, 1, 55, 66
3, 40126, Note_off_c, 1, 43, 61
3, 40320, Note_on_c, 1, 36, 38
3, 40320, Note_on_c, 1, 48, 52
3, 40606, Note_off_c, 1, 36, 38
3, 40606, Note_off_c, 1, 48, 52
3, 41280, Note_on_c, 1, 57, 83
3, 41350, Note_off_c, 1, 57, 83
3, 41520, Note_on_c, 1, 60, 70
3, 41662, Note_off_c, 1, 60, 70
3, 41760, Note_on_c, 1, 53, 73
3, 41830, Note_off_c, 1, 53, 73
3, 42000, Note_on_c, 1, 65, 72
3, 42070, Note_off_c, 1, 65, 72
3, 42240, Note_on_c, 1, 55, 58
3, 42240, Note_on_c, 1, 64, 57
3, 42526, Note_off_c, 1, 64, 57
3, 42720, Note_on_c, 1, 62, 61
3, 42814, Note_off_c, 1, 55, 58
3, 42862, Note_off_c, 1, 62, 61
3, 43200, Note_on_c, 1, 57, 68
3, 43318, Note_off_c, 1, 57, 68
3, 43320, Note_on_c, 1, 59, 66
3, 43438, Note_off_c, 1, 59, 66
3, 43440, Note_on_c, 1, 60, 56
3, 43558, Note_off_c, 1, 60, 56
3, 43560, Note_on_c, 1, 57, 72
3, 43678, Note_off_c, 1, 57, 72
3, 43680, Note_on_c, 1, 53, 73
3, 43798, Note_off_c, 1, 53, 73
3, 43920, Note_on_c, 1, 65, 74
3, 44038, Note_off_c, 1, 65, 74
3, 44160, Note_on_c, 1, 64, 58
3, 44160, Note_on_c, 1, 55, 63
3, 44638, Note_off_c, 1, 64, 58
3, 44640, Note_on_c, 1, 62, 55
3, 44878, Note_off_c, 1, 55, 63
3, 44878, Note_off_c, 1, 62, 55
3, 44880, Note_on_c, 1, 64, 67
3, 44998, Note_off_c, 1, 64, 67
3, 45000, Note_on_c, 1, 65, 65
3, 45118, Note_off_c, 1, 65, 65
3, 45120, Note_on_c, 1, 61, 52
3, 45120, Note_on_c, 1, 67, 67
3, 45598, Note_off_c, 1, 61, 52
3, 45598, Note_off_c, 1, 67, 67
3, 45600, Note_on_c, 1, 62, 72
3, 45600, Note_on_c, 1, 65, 62
3, 45838, Note_off_c, 1, 62, 72
3, 45838, Note_off_c, 1, 65, 62
3, 46080, Note_on_c, 1, 59, 53
3, 46080, Note_on_c, 1, 65, 53
3, 46558, Note_off_c, 1, 59, 53
3, 46558, Note_off_c, 1, 65, 53
3, 46560, Note_on_c, 1, 64, 57
3, 46560, Note_on_c, 1, 60, 51
3, 46798, Note_off_c, 1, 64, 57
3, 46798, Note_off_c, 1, 60, 51
3, 47040, Note_on_c, 1, 53, 68
3, 47278, Note_off_c, 1, 53, 68
3, 47520, Note_on_c, 1, 55, 70
3, 47520, Note_on_c, 1, 43, 67
3, 47758, Note_off_c, 1, 55, 70
3, 47758, Note_off_c, 1, 43, 67
3, 48240, Note_on_c, 1, 36, 76
3, 48478, Note_off_c, 1, 36, 76
3, 48480, Note_on_c, 1, 48, 66
3, 48622, Note_off_c, 1, 48, 66
3, 49200, Note_on_c, 1, 36, 66
3, 49438, Note_off_c, 1, 36, 66
3, 49440, Note_on_c, 1, 48, 62
3, 49582, Note_off_c, 1, 48, 62
3, 50160, Note_on_c, 1, 36, 62
3, 50398, Note_off_c, 1, 36, 62
3, 50400, Note_on_c, 1, 48, 62
3, 50542, Note_off_c, 1, 48, 62
3, 51120, Note_on_c, 1, 36, 74
3, 51358, Note_off_c, 1, 36, 74
3, 51360, Note_on_c, 1, 48, 61
3, 51502, Note_off_c, 1, 48, 61
3, 52800, Note_on_c, 1, 57, 62
3, 52800, Note_on_c, 1, 53, 66
3, 53038, Note_off_c, 1, 57, 62
3, 53038, Note_off_c, 1, 53, 66
3, 53280, Note_on_c, 1, 46, 38
3, 53280, Note_on_c, 1, 58, 50
3, 53518, Note_off_c, 1, 46, 38
3, 53518, Note_off_c, 1, 58, 50
3, 53760, Note_on_c, 1, 48, 62
3, 53760, Note_on_c, 1, 57, 56
3, 54238, Note_off_c, 1, 57, 56
3, 54240, Note_on_c, 1, 55, 61
3, 54478, Note_off_c, 1, 48, 62
3, 54478, Note_off_c, 1, 55, 61
3, 55200, Note_on_c, 1, 64, 57
3, 55200, Note_on_c, 1, 60, 56
3, 55438, Note_off_c, 1, 64, 57
3, 55438, Note_off_c, 1, 60, 56
3, 55680, Note_on_c, 1, 65, 68
3, 55918, Note_off_c, 1, 65, 68
3, 55920, Note_on_c, 1, 53, 65
3, 56158, Note_off_c, 1, 53, 65
3, 57120, Note_on_c, 1, 57, 58
3, 57358, Note_off_c, 1, 57, 58
3, 57600, Note_on_c, 1, 58, 58
3, 57838, Note_off_c, 1, 58, 58
3, 57840, Note_on_c, 1, 46, 53
3, 58078, Note_off_c, 1, 46, 53
3, 58320, Note_on_c, 1, 62, 57
3, 58320, Note_on_c, 1, 58, 57
3, 58558, Note_off_c, 1, 62, 57
3, 58558, Note_off_c, 1, 58, 57
3, 58560, Note_on_c, 1, 60, 67
3, 58560, Note_on_c, 1, 57, 42
3, 58798, Note_off_c, 1, 60, 67
3, 58798, Note_off_c, 1, 57, 42
3, 58800, Note_on_c, 1, 55, 63
3, 58800, Note_on_c, 1, 58, 63
3, 59038, Note_off_c, 1, 55, 63
3, 59038, Note_off_c, 1, 58, 63
3, 59040, Note_on_c, 1, 60, 66
3, 59278, Note_off_c, 1, 60, 66
3, 59280, Note_on_c, 1, 48, 68
3, 59518, Note_off_c, 1, 48, 68
3, 59520, Note_on_c, 1, 53, 65
3, 59758, Note_off_c, 1, 53, 65
3, 59760, Note_on_c, 1, 41, 58
3, 59998, Note_off_c, 1, 41, 58
3, 61200, Note_on_c, 1, 69, 61
3, 61200, Note_on_c, 1, 72, 65
3, 61438, Note_off_c, 1, 69, 61
3, 61438, Note_off_c, 1, 72, 65
3, 61440, Note_on_c, 1, 67, 68
3, 61440, Note_on_c, 1, 70, 65
3, 61678, Note_off_c, 1, 67, 68
3, 61678, Note_off_c, 1, 70, 65
3, 61680, Note_on_c, 1, 65, 72
3, 61680, Note_on_c, 1, 69, 68
3, 61918, Note_off_c, 1, 65, 72
3, 61918, Note_off_c, 1, 69, 68
3, 61920, Note_on_c, 1, 64, 74
3, 61920, Note_on_c, 1, 67, 73
3, 62158, Note_off_c, 1, 64, 74
3, 62158, Note_off_c, 1, 67, 73
3, 63120, Note_on_c, 1, 72, 42
3, 63120, Note_on_c, 1, 70, 31
3, 63358, Note_off_c, 1, 72, 42
3, 63358, Note_off_c, 1, 70, 31
3, 63360, Note_on_c, 1, 72, 60
3, 63360, Note_on_c, 1, 69, 60
3, 63598, Note_off_c, 1, 72, 60
3, 63598, Note_off_c, 1, 69, 60
3, 63600, Note_on_c, 1, 70, 55
3, 63600, Note_on_c, 1, 67, 66
3, 63838, Note_off_c, 1, 70, 55
3, 63838, Note_off_c, 1, 67, 66
3, 63840, Note_on_c, 1, 65, 51
3, 63840, Note_on_c, 1, 69, 38
3, 64078, Note_off_c, 1, 65, 51
3, 64078, Note_off_c, 1, 69, 38
3, 64560, Note_on_c, 1, 65, 55
3, 64560, Note_on_c, 1, 69, 57
3, 64798, Note_off_c, 1, 65, 55
3, 64798, Note_off_c, 1, 69, 57
3, 64800, Note_on_c, 1, 67, 53
3, 64800, Note_on_c, 1, 70, 60
3, 65038, Note_off_c, 1, 67, 53
3, 65038, Note_off_c, 1, 70, 60
3, 65040, Note_on_c, 1, 69, 55
3, 65040, Note_on_c, 1, 72, 53
3, 65278, Note_off_c, 1, 69, 55
3, 65278, Note_off_c, 1, 72, 53
3, 65280, Note_on_c, 1, 70, 52
3, 65758, Note_off_c, 1, 70, 52
3, 66960, Note_on_c, 1, 58, 53
3, 67198, Note_off_c, 1, 58, 53
3, 67200, Note_on_c, 1, 60, 72
3, 67438, Note_off_c, 1, 60, 72
3, 67440, Note_on_c, 1, 48, 74
3, 67678, Note_off_c, 1, 48, 74
3, 68400, Note_on_c, 1, 64, 67
3, 68638, Note_off_c, 1, 64, 67
3, 68640, Note_on_c, 1, 62, 58
3, 68878, Note_off_c, 1, 62, 58
3, 68880, Note_on_c, 1, 55, 73
3, 69118, Note_off_c, 1, 55, 73
3, 69120, Note_on_c, 1, 60, 71
3, 69358, Note_off_c, 1, 60, 71
3, 69360, Note_on_c, 1, 54, 65
3, 69598, Note_off_c, 1, 54, 65
3, 69600, Note_on_c, 1, 55, 67
3, 69838, Note_off_c, 1, 55, 67
3, 70320, Note_on_c, 1, 63, 48
3, 70558, Note_off_c, 1, 63, 48
3, 70560, Note_on_c, 1, 62, 65
3, 70798, Note_off_c, 1, 62, 65
3, 70800, Note_on_c, 1, 55, 63
3, 71038, Note_off_c, 1, 55, 63
3, 71040, Note_on_c, 1, 60, 62
3, 71278, Note_off_c, 1, 60, 62
3, 71280, Note_on_c, 1, 54, 55
3, 71518, Note_off_c, 1, 54, 55
3, 71520, Note_on_c, 1, 55, 63
3, 71758, Note_off_c, 1, 55, 63
3, 72240, Note_on_c, 1, 64, 73
3, 72240, Note_on_c, 1, 60, 66
3, 72478, Note_off_c, 1, 64, 73
3, 72478, Note_off_c, 1, 60, 66
3, 72480, Note_on_c, 1, 62, 67
3, 72480, Note_on_c, 1, 65, 78
3, 72718, Note_off_c, 1, 62, 67
3, 72718, Note_off_c, 1, 65, 78
3, 72720, Note_on_c, 1, 64, 55
3, 72720, Note_on_c, 1, 67, 76
3, 72958, Note_off_c, 1, 64, 55
3, 72958, Note_off_c, 1, 67, 76
3, 72960, Note_on_c, 1, 65, 81
3, 73678, Note_off_c, 1, 65, 81
3, 73680, Note_on_c, 1, 64, 68
3, 73918, Note_off_c, 1, 64, 68
3, 73920, Note_on_c, 1, 65, 82
3, 74158, Note_off_c, 1, 65, 82
3, 74160, Note_on_c, 1, 61, 73
3, 74398, Note_off_c, 1, 61, 73
3, 74400, Note_on_c, 1, 62, 78
3, 74638, Note_off_c, 1, 62, 78
3, 74640, Note_on_c, 1, 64, 70
3, 74878, Note_off_c, 1, 64, 70
3, 74880, Note_on_c, 1, 65, 84
3, 75358, Note_off_c, 1, 65, 84
3, 77040, Note_on_c, 1, 66, 57
3, 77040, Note_on_c, 1, 69, 68
3, 77278, Note_off_c, 1, 66, 57
3, 77278, Note_off_c, 1, 69, 68
3, 77280, Note_on_c, 1, 67, 63
3, 77518, Note_off_c, 1, 67, 63
3, 77520, Note_on_c, 1, 55, 71
3, 77758, Note_off_c, 1, 55, 71
3, 77760, Note_on_c, 1, 60, 72
3, 77998, Note_off_c, 1, 60, 72
3, 78000, Note_on_c, 1, 48, 70
3, 78238, Note_off_c, 1, 48, 70
3, 78720, Note_on_c, 1, 62, 77
3, 78720, Note_on_c, 1, 55, 72
3, 78720, Note_on_c, 1, 59, 74
3, 78720, Note_on_c, 1, 65, 81
3, 79198, Note_off_c, 1, 62, 77
3, 79198, Note_off_c, 1, 55, 72
3, 79198, Note_off_c, 1, 59, 74
3, 79198, Note_off_c, 1, 65, 81
3, 79680, Note_on_c, 1, 59, 53
3, 79680, Note_on_c, 1, 62, 71
3, 79680, Note_on_c, 1, 65, 74
3, 79680, Note_on_c, 1, 55, 63
3, 80158, Note_off_c, 1, 59, 53
3, 80158, Note_off_c, 1, 62, 71
3, 80158, Note_off_c, 1, 65, 74
3, 80158, Note_off_c, 1, 55, 63
3, 80640, Note_on_c, 1, 62, 71
3, 80640, Note_on_c, 1, 59, 51
3, 80640, Note_on_c, 1, 55, 52
3, 80640, Note_on_c, 1, 65, 74
3, 81118, Note_off_c, 1, 62, 71
3, 81118, Note_off_c, 1, 59, 51
3, 81118, Note_off_c, 1, 55, 52
3, 81118, Note_off_c, 1, 65, 74
3, 83520, Note_on_c, 1, 57, 83
3, 83638, Note_off_c, 1, 57, 83
3, 83760, Note_on_c, 1, 60, 70
3, 83998, Note_off_c, 1, 60, 70
3, 84000, Note_on_c, 1, 53, 73
3, 84118, Note_off_c, 1, 53, 73
3, 84240, Note_on_c, 1, 65, 72
3, 84358, Note_off_c, 1, 65, 72
3, 84480, Note_on_c, 1, 55, 58
3, 84480, Note_on_c, 1, 64, 57
3, 84958, Note_off_c, 1, 64, 57
3, 84960, Note_on_c, 1, 62, 61
3, 85198, Note_off_c, 1, 62, 61
3, 85438, Note_off_c, 1, 55, 58
3, 85440, Note_on_c, 1, 57, 83
3, 85558, Note_off_c, 1, 57, 83
3, 85680, Note_on_c, 1, 60, 70
3, 85918, Note_off_c, 1, 60, 70
3, 85920, Note_on_c, 1, 53, 73
3, 86038, Note_off_c, 1, 53, 73
3, 86160, Note_on_c, 1, 65, 72
3, 86278, Note_off_c, 1, 65, 72
3, 86400, Note_on_c, 1, 64, 57
3, 86400, Note_on_c, 1, 55, 63
3, 86878, Note_off_c, 1, 64, 57
3, 86880, Note_on_c, 1, 62, 61
3, 87118, Note_off_c, 1, 55, 63
3, 87118, Note_off_c, 1, 62, 61
3, 87120, Note_on_c, 1, 53, 62
3, 87358, Note_off_c, 1, 53, 62
3, 87360, Note_on_c, 1, 52, 51
3, 87360, Note_on_c, 1, 61, 55
3, 87838, Note_off_c, 1, 52, 51
3, 87838, Note_off_c, 1, 61, 55
3, 87840, Note_on_c, 1, 53, 56
3, 87840, Note_on_c, 1, 62, 58
3, 88318, Note_off_c, 1, 53, 56
3, 88318, Note_off_c, 1, 62, 58
3, 88320, Note_on_c, 1, 59, 53
3, 88320, Note_on_c, 1, 65, 56
3, 88798, Note_off_c, 1, 59, 53
3, 88798, Note_off_c, 1, 65, 56
3, 88800, Note_on_c, 1, 60, 43
3, 88800, Note_on_c, 1, 64, 58
3, 89278, Note_off_c, 1, 60, 43
3, 89278, Note_off_c, 1, 64, 58
3, 89280, Note_on_c, 1, 53, 56
3, 89566, Note_off_c, 1, 53, 56
3, 89760, Note_on_c, 1, 43, 61
3, 89760, Note_on_c, 1, 55, 66
3, 90046, Note_off_c, 1, 43, 61
3, 90046, Note_off_c, 1, 55, 66
3, 90240, Note_on_c, 1, 48, 52
3, 90240, Note_on_c, 1, 36, 38
3, 90526, Note_off_c, 1, 48, 52
3, 90526, Note_off_c, 1, 36, 38
3, 91200, Note_on_c, 1, 57, 83
3, 91270, Note_off_c, 1, 57, 83
3, 91440, Note_on_c, 1, 60, 70
3, 91582, Note_off_c, 1, 60, 70
3, 91680, Note_on_c, 1, 53, 73
3, 91750, Note_off_c, 1, 53, 73
3, 91920, Note_on_c, 1, 65, 72
3, 91990, Note_off_c, 1, 65, 72
3, 92160, Note_on_c, 1, 64, 57
3, 92160, Note_on_c, 1, 55, 58
3, 92446, Note_off_c, 1, 64, 57
3, 92640, Note_on_c, 1, 62, 61
3, 92734, Note_off_c, 1, 55, 58
3, 92782, Note_off_c, 1, 62, 61
3, 93120, Note_on_c, 1, 57, 68
3, 93238, Note_off_c, 1, 57, 68
3, 93240, Note_on_c, 1, 59, 66
3, 93358, Note_off_c, 1, 59, 66
3, 93360, Note_on_c, 1, 60, 56
3, 93478, Note_off_c, 1, 60, 56
3, 93480, Note_on_c, 1, 57, 72
3, 93598, Note_off_c, 1, 57, 72
3, 93600, Note_on_c, 1, 53, 73
3, 93718, Note_off_c, 1, 53, 73
3, 93840, Note_on_c, 1, 65, 74
3, 93958, Note_off_c, 1, 65, 74
3, 94080, Note_on_c, 1, 55, 63
3, 94080, Note_on_c, 1, 64, 58
3, 94558, Note_off_c, 1, 64, 58
3, 94560, Note_on_c, 1, 62, 55
3, 94798, Note_off_c, 1, 55, 63
3, 94798, Note_off_c, 1, 62, 55
3, 94800, Note_on_c, 1, 64, 67
3, 94918, Note_off_c, 1, 64, 67
3, 94920, Note_on_c, 1, 65, 65
3, 95038, Note_off_c, 1, 65, 65
3, 95040, Note_on_c, 1, 67, 67
3, 95040, Note_on_c, 1, 61, 52
3, 95518, Note_off_c, 1, 67, 67
3, 95518, Note_off_c, 1, 61, 52
3, 95520, Note_on_c, 1, 65, 62
3, 95520, Note_on_c, 1, 62, 72
3, 95758, Note_off_c, 1, 65, 62
3, 95758, Note_off_c, 1, 62, 72
3, 96000, Note_on_c, 1, 65, 53
3, 96000, Note_on_c, 1, 59, 53
3, 96478, Note_off_c, 1, 65, 53
3, 96478, Note_off_c, 1, 59, 53
3, 96480, Note_on_c, 1, 60, 51
3, 96480, Note_on_c, 1, 64, 57
3, 96718, Note_off_c, 1, 60, 51
3, 96718, Note_off_c, 1, 64, 57
3, 96960, Note_on_c, 1, 53, 68
3, 97198, Note_off_c, 1, 53, 68
3, 97440, Note_on_c, 1, 43, 67
3, 97440, Note_on_c, 1, 55, 70
3, 97678, Note_off_c, 1, 43, 67
3, 97678, Note_off_c, 1, 55, 70
3, 98160, Note_on_c, 1, 36, 76
3, 98398, Note_off_c, 1, 36, 76
3, 98400, Note_on_c, 1, 48, 66
3, 98542, Note_off_c, 1, 48, 66
3, 99120, Note_on_c, 1, 36, 66
3, 99358, Note_off_c, 1, 36, 66
3, 99360, Note_on_c, 1, 48, 62
3, 99502, Note_off_c, 1, 48, 62
3, 100080, Note_on_c, 1, 36, 62
3, 100318, Note_off_c, 1, 36, 62
3, 100320, Note_on_c, 1, 48, 62
3, 100462, Note_off_c, 1, 48, 62
3, 101040, Note_on_c, 1, 36, 74
3, 101278, Note_off_c, 1, 36, 74
3, 101280, Note_on_c, 1, 48, 61
3, 101422, Note_off_c, 1, 48, 61
3, 102720, Note_on_c, 1, 57, 82
3, 102720, Note_on_c, 1, 60, 75
3, 102720, Note_on_c, 1, 54, 86
3, 103198, Note_off_c, 1, 57, 82
3, 103198, Note_off_c, 1, 60, 75
3, 103198, Note_off_c, 1, 54, 86
3, 104880, Note_on_c, 1, 66, 60
3, 104880, Note_on_c, 1, 69, 57
3, 104880, Note_on_c, 1, 72, 70
3, 104998, Note_off_c, 1, 66, 60
3, 104998, Note_off_c, 1, 69, 57
3, 104998, Note_off_c, 1, 72, 70
3, 105120, Note_on_c, 1, 66, 56
3, 105120, Note_on_c, 1, 69, 62
3, 105120, Note_on_c, 1, 72, 68
3, 105238, Note_off_c, 1, 66, 56
3, 105238, Note_off_c, 1, 69, 62
3, 105238, Note_off_c, 1, 72, 68
3, 105840, Note_on_c, 1, 72, 70
3, 105840, Note_on_c, 1, 69, 57
3, 105840, Note_on_c, 1, 66, 60
3, 105958, Note_off_c, 1, 72, 70
3, 105958, Note_off_c, 1, 69, 57
3, 105958, Note_off_c, 1, 66, 60
3, 106080, Note_on_c, 1, 72, 68
3, 106080, Note_on_c, 1, 69, 62
3, 106080, Note_on_c, 1, 66, 56
3, 106198, Note_off_c, 1, 72, 68
3, 106198, Note_off_c, 1, 69, 62
3, 106198, Note_off_c, 1, 66, 56
3, 106800, Note_on_c, 1, 72, 58
3, 106800, Note_on_c, 1, 69, 45
3, 106800, Note_on_c, 1, 66, 48
3, 106918, Note_off_c, 1, 72, 58
3, 106918, Note_off_c, 1, 69, 45
3, 106918, Note_off_c, 1, 66, 48
3, 107040, Note_on_c, 1, 72, 56
3, 107040, Note_on_c, 1, 69, 50
3, 107040, Note_on_c, 1, 66, 44
3, 107158, Note_off_c, 1, 72, 56
3, 107158, Note_off_c, 1, 69, 50
3, 107158, Note_off_c, 1, 66, 44
3, 108480, Note_on_c, 1, 58, 44
3, 108480, Note_on_c, 1, 55, 53
3, 108718, Note_off_c, 1, 58, 44
3, 108718, Note_off_c, 1, 55, 53
3, 108960, Note_on_c, 1, 60, 56
3, 108960, Note_on_c, 1, 48, 53
3, 109198, Note_off_c, 1, 60, 56
3, 109198, Note_off_c, 1, 48, 53
3, 109440, Note_on_c, 1, 58, 63
3, 109440, Note_on_c, 1, 50, 65
3, 109918, Note_off_c, 1, 58, 63
3, 109918, Note_off_c, 1, 50, 65
3, 109920, Note_on_c, 1, 57, 51
3, 110158, Note_off_c, 1, 57, 51
3, 110880, Note_on_c, 1, 66, 62
3, 111358, Note_off_c, 1, 66, 62
3, 111360, Note_on_c, 1, 67, 66
3, 111598, Note_off_c, 1, 67, 66
3, 111600, Note_on_c, 1, 55, 71
3, 111718, Note_off_c, 1, 55, 71
3, 112080, Note_on_c, 1, 58, 65
3, 112318, Note_off_c, 1, 58, 65
3, 112320, Note_on_c, 1, 55, 72
3, 112558, Note_off_c, 1, 55, 72
3, 112560, Note_on_c, 1, 58, 65
3, 112798, Note_off_c, 1, 58, 65
3, 112800, Note_on_c, 1, 51, 65
3, 113038, Note_off_c, 1, 51, 65
3, 113040, Note_on_c, 1, 63, 67
3, 113278, Note_off_c, 1, 63, 67
3, 113280, Note_on_c, 1, 63, 63
3, 113758, Note_off_c, 1, 63, 63
3, 113760, Note_on_c, 1, 62, 74
3, 113998, Note_off_c, 1, 62, 74
3, 114000, Note_on_c, 1, 65, 74
3, 114238, Note_off_c, 1, 65, 74
3, 114240, Note_on_c, 1, 62, 76
3, 114478, Note_off_c, 1, 62, 76
3, 114480, Note_on_c, 1, 65, 68
3, 114718, Note_off_c, 1, 65, 68
3, 114720, Note_on_c, 1, 58, 66
3, 114958, Note_off_c, 1, 58, 66
3, 114960, Note_on_c, 1, 68, 67
3, 115198, Note_off_c, 1, 68, 67
3, 115200, Note_on_c, 1, 68, 68
3, 115678, Note_off_c, 1, 68, 68
3, 115680, Note_on_c, 1, 67, 65
3, 115918, Note_off_c, 1, 67, 65
3, 115920, Note_on_c, 1, 70, 62
3, 116158, Note_off_c, 1, 70, 62
3, 116160, Note_on_c, 1, 67, 68
3, 116398, Note_off_c, 1, 67, 68
3, 116400, Note_on_c, 1, 70, 66
3, 116638, Note_off_c, 1, 70, 66
3, 116640, Note_on_c, 1, 65, 68
3, 116878, Note_off_c, 1, 65, 68
3, 116880, Note_on_c, 1, 70, 52
3, 117118, Note_off_c, 1, 70, 52
3, 117120, Note_on_c, 1, 64, 65
3, 117358, Note_off_c, 1, 64, 65
3, 117360, Note_on_c, 1, 67, 65
3, 117598, Note_off_c, 1, 67, 65
3, 117600, Note_on_c, 1, 65, 53
3, 117838, Note_off_c, 1, 65, 53
3, 117840, Note_on_c, 1, 68, 63
3, 118078, Note_off_c, 1, 68, 63
3, 118080, Note_on_c, 1, 62, 65
3, 118318, Note_off_c, 1, 62, 65
3, 118320, Note_on_c, 1, 65, 66
3, 118558, Note_off_c, 1, 65, 66
3, 118560, Note_on_c, 1, 63, 57
3, 118798, Note_off_c, 1, 63, 57
3, 118800, Note_on_c, 1, 67, 65
3, 119038, Note_off_c, 1, 67, 65
3, 119040, Note_on_c, 1, 60, 68
3, 119278, Note_off_c, 1, 60, 68
3, 119280, Note_on_c, 1, 63, 61
3, 119518, Note_off_c, 1, 63, 61
3, 119520, Note_on_c, 1, 62, 68
3, 119758, Note_off_c, 1, 62, 68
3, 119760, Note_on_c, 1, 65, 71
3, 119998, Note_off_c, 1, 65, 71
3, 120000, Note_on_c, 1, 59, 67
3, 120238, Note_off_c, 1, 59, 67
3, 120240, Note_on_c, 1, 62, 50
3, 120478, Note_off_c, 1, 62, 50
3, 120480, Note_on_c, 1, 60, 65
3, 120718, Note_off_c, 1, 60, 65
3, 120720, Note_on_c, 1, 63, 53
3, 120958, Note_off_c, 1, 63, 53
3, 120960, Note_on_c, 1, 57, 58
3, 121198, Note_off_c, 1, 57, 58
3, 121200, Note_on_c, 1, 60, 65
3, 121438, Note_off_c, 1, 60, 65
3, 121440, Note_on_c, 1, 58, 60
3, 121678, Note_off_c, 1, 58, 60
3, 121680, Note_on_c, 1, 62, 56
3, 121918, Note_off_c, 1, 62, 56
3, 121920, Note_on_c, 1, 58, 68
3, 122158, Note_off_c, 1, 58, 68
3, 122160, Note_on_c, 1, 62, 68
3, 122398, Note_off_c, 1, 62, 68
3, 122400, Note_on_c, 1, 58, 55
3, 122638, Note_off_c, 1, 58, 55
3, 122640, Note_on_c, 1, 62, 56
3, 122878, Note_off_c, 1, 62, 56
3, 122880, Note_on_c, 1, 61, 65
3, 123118, Note_off_c, 1, 61, 65
3, 123120, Note_on_c, 1, 49, 66
3, 123358, Note_off_c, 1, 49, 66
3, 123360, Note_on_c, 1, 58, 67
3, 123598, Note_off_c, 1, 58, 67
3, 123600, Note_on_c, 1, 46, 52
3, 123838, Note_off_c, 1, 46, 52
3, 123840, Note_on_c, 1, 57, 68
3, 124078, Note_off_c, 1, 57, 68
3, 124080, Note_on_c, 1, 45, 65
3, 124318, Note_off_c, 1, 45, 65
3, 124320, Note_on_c, 1, 58, 68
3, 124558, Note_off_c, 1, 58, 68
3, 124560, Note_on_c, 1, 46, 62
3, 124798, Note_off_c, 1, 46, 62
3, 124800, Note_on_c, 1, 57, 77
3, 125038, Note_off_c, 1, 57, 77
3, 125040, Note_on_c, 1, 45, 74
3, 125278, Note_off_c, 1, 45, 74
3, 125760, Note_on_c, 1, 64, 78
3, 125760, Note_on_c, 1, 61, 66
3, 125760, Note_on_c, 1, 57, 71
3, 125760, Note_on_c, 1, 55, 65
3, 126238, Note_off_c, 1, 64, 78
3, 126238, Note_off_c, 1, 61, 66
3, 126238, Note_off_c, 1, 57, 71
3, 126238, Note_off_c, 1, 55, 65
3, 126720, Note_on_c, 1, 61, 60
3, 126720, Note_on_c, 1, 64, 74
3, 126720, Note_on_c, 1, 55, 71
3, 126720, Note_on_c, 1, 57, 65
3, 127198, Note_off_c, 1, 61, 60
3, 127198, Note_off_c, 1, 64, 74
3, 127198, Note_off_c, 1, 55, 71
3, 127198, Note_off_c, 1, 57, 65
3, 127680, Note_on_c, 1, 62, 68
3, 127680, Note_on_c, 1, 53, 68
3, 128158, Note_off_c, 1, 62, 68
3, 128158, Note_off_c, 1, 53, 68
3, 128160, Note_on_c, 1, 61, 66
3, 128160, Note_on_c, 1, 55, 60
3, 128638, Note_off_c, 1, 61, 66
3, 128638, Note_off_c, 1, 55, 60
3, 128640, Note_on_c, 1, 53, 60
3, 128640, Note_on_c, 1, 62, 70
3, 129118, Note_off_c, 1, 53, 60
3, 129118, Note_off_c, 1, 62, 70
3, 129120, Note_on_c, 1, 61, 47
3, 129120, Note_on_c, 1, 55, 51
3, 129598, Note_off_c, 1, 61, 47
3, 129598, Note_off_c, 1, 55, 51
3, 129600, Note_on_c, 1, 62, 67
3, 129600, Note_on_c, 1, 53, 58
3, 130078, Note_off_c, 1, 62, 67
3, 130078, Note_off_c, 1, 53, 58
3, 131520, Note_on_c, 1, 43, 77
3, 131638, Note_off_c, 1, 43, 77
3, 131640, Note_on_c, 1, 55, 61
3, 131758, Note_off_c, 1, 55, 61
3, 131760, Note_on_c, 1, 54, 58
3, 131878, Note_off_c, 1, 54, 58
3, 131880, Note_on_c, 1, 55, 67
3, 131998, Note_off_c, 1, 55, 67
3, 132000, Note_on_c, 1, 58, 65
3, 132238, Note_off_c, 1, 58, 65
3, 132480, Note_on_c, 1, 57, 73
3, 132598, Note_off_c, 1, 57, 73
3, 132960, Note_on_c, 1, 45, 73
3, 133078, Note_off_c, 1, 45, 73
3, 133680, Note_on_c, 1, 50, 66
3, 133918, Note_off_c, 1, 50, 66
3, 133920, Note_on_c, 1, 38, 74
3, 134038, Note_off_c, 1, 38, 74
3, 135120, Note_on_c, 1, 55, 66
3, 135238, Note_off_c, 1, 55, 66
3, 135360, Note_on_c, 1, 48, 71
3, 135478, Note_off_c, 1, 48, 71
3, 135480, Note_on_c, 1, 50, 51
3, 135598, Note_off_c, 1, 50, 51
3, 135600, Note_on_c, 1, 52, 62
3, 135718, Note_off_c, 1, 52, 62
3, 135720, Note_on_c, 1, 48, 68
3, 135838, Note_off_c, 1, 48, 68
3, 135840, Note_on_c, 1, 45, 62
3, 136078, Note_off_c, 1, 45, 62
3, 136080, Note_on_c, 1, 57, 70
3, 136198, Note_off_c, 1, 57, 70
3, 136320, Note_on_c, 1, 50, 73
3, 136558, Note_off_c, 1, 50, 73
3, 136560, Note_on_c, 1, 53, 68
3, 136678, Note_off_c, 1, 53, 68
3, 136800, Note_on_c, 1, 46, 58
3, 137038, Note_off_c, 1, 46, 58
3, 137040, Note_on_c, 1, 58, 67
3, 137158, Note_off_c, 1, 58, 67
3, 137280, Note_on_c, 1, 52, 72
3, 137398, Note_off_c, 1, 52, 72
3, 137400, Note_on_c, 1, 53, 62
3, 137518, Note_off_c, 1, 53, 62
3, 137520, Note_on_c, 1, 55, 57
3, 137638, Note_off_c, 1, 55, 57
3, 137640, Note_on_c, 1, 52, 66
3, 137758, Note_off_c, 1, 52, 66
3, 137760, Note_on_c, 1, 48, 41
3, 137998, Note_off_c, 1, 48, 41
3, 138240, Note_on_c, 1, 60, 55
3, 139198, Note_off_c, 1, 60, 55
3, 139200, Note_on_c, 1, 60, 58
3, 141118, Note_off_c, 1, 60, 58
3, 141120, Note_on_c, 1, 60, 51
3, 141120, Note_on_c, 1, 64, 52
3, 141598, Note_off_c, 1, 60, 51
3, 141598, Note_off_c, 1, 64, 52
3, 142080, Note_on_c, 1, 53, 53
3, 142080, Note_on_c, 1, 57, 56
3, 142318, Note_off_c, 1, 53, 53
3, 142318, Note_off_c, 1, 57, 56
3, 142560, Note_on_c, 1, 58, 57
3, 142560, Note_on_c, 1, 46, 48
3, 142798, Note_off_c, 1, 58, 57
3, 142798, Note_off_c, 1, 46, 48
3, 143040, Note_on_c, 1, 48, 37
3, 143040, Note_on_c, 1, 57, 50
3, 143518, Note_off_c, 1, 57, 50
3, 143520, Note_on_c, 1, 55, 60
3, 143758, Note_off_c, 1, 55, 60
3, 143998, Note_off_c, 1, 48, 37
3, 144480, Note_on_c, 1, 60, 66
3, 144480, Note_on_c, 1, 64, 53
3, 144718, Note_off_c, 1, 60, 66
3, 144718, Note_off_c, 1, 64, 53
3, 144960, Note_on_c, 1, 65, 55
3, 145198, Note_off_c, 1, 65, 55
3, 145200, Note_on_c, 1, 53, 66
3, 145438, Note_off_c, 1, 53, 66
3, 146400, Note_on_c, 1, 57, 52
3, 146878, Note_off_c, 1, 57, 52
3, 146880, Note_on_c, 1, 58, 55
3, 147358, Note_off_c, 1, 58, 55
3, 147600, Note_on_c, 1, 59, 55
3, 147838, Note_off_c, 1, 59, 55
3, 147840, Note_on_c, 1, 60, 65
3, 148318, Note_off_c, 1, 60, 65
3, 148560, Note_on_c, 1, 61, 60
3, 148798, Note_off_c, 1, 61, 60
3, 148800, Note_on_c, 1, 62, 47
3, 149278, Note_off_c, 1, 62, 47
3, 149520, Note_on_c, 1, 62, 70
3, 149758, Note_off_c, 1, 62, 70
3, 149760, Note_on_c, 1, 64, 55
3, 150238, Note_off_c, 1, 64, 55
3, 150480, Note_on_c, 1, 64, 65
3, 150718, Note_off_c, 1, 64, 65
3, 150720, Note_on_c, 1, 65, 63
3, 151198, Note_off_c, 1, 65, 63
3, 151200, Note_on_c, 1, 62, 68
3, 151678, Note_off_c, 1, 62, 68
3, 151680, Note_on_c, 1, 60, 61
3, 152400, Note_on_c, 1, 69, 77
3, 152638, Note_off_c, 1, 69, 77
3, 152640, Note_on_c, 1, 70, 50
3, 154078, Note_off_c, 1, 70, 50
3, 154080, Note_on_c, 1, 69, 56
3, 154798, Note_off_c, 1, 69, 56
3, 154800, Note_on_c, 1, 66, 55
3, 155038, Note_off_c, 1, 66, 55
3, 155040, Note_on_c, 1, 67, 61
3, 155998, Note_off_c, 1, 67, 61
3, 156000, Note_on_c, 1, 65, 52
3, 156958, Note_off_c, 1, 65, 52
3, 156960, Note_on_c, 1, 64, 45
3, 157918, Note_off_c, 1, 64, 45
3, 157920, Note_on_c, 1, 62, 43
3, 158398, Note_off_c, 1, 60, 61
3, 158398, Note_off_c, 1, 62, 43
3, 158400, Note_on_c, 1, 60, 67
3, 158400, Note_on_c, 1, 64, 66
3, 158878, Note_off_c, 1, 60, 67
3, 158878, Note_off_c, 1, 64, 66
3, 160080, Note_on_c, 1, 60, 63
3, 160080, Note_on_c, 1, 57, 43
3, 160318, Note_off_c, 1, 60, 63
3, 160318, Note_off_c, 1, 57, 43
3, 160320, Note_on_c, 1, 58, 63
3, 160320, Note_on_c, 1, 55, 40
3, 160558, Note_off_c, 1, 58, 63
3, 160558, Note_off_c, 1, 55, 40
3, 160560, Note_on_c, 1, 57, 60
3, 160560, Note_on_c, 1, 53, 57
3, 160798, Note_off_c, 1, 57, 60
3, 160798, Note_off_c, 1, 53, 57
3, 160800, Note_on_c, 1, 55, 60
3, 160800, Note_on_c, 1, 52, 55
3, 161038, Note_off_c, 1, 55, 60
3, 161038, Note_off_c, 1, 52, 55
3, 162000, Note_on_c, 1, 60, 62
3, 162000, Note_on_c, 1, 58, 57
3, 162238, Note_off_c, 1, 60, 62
3, 162238, Note_off_c, 1, 58, 57
3, 162240, Note_on_c, 1, 60, 58
3, 162240, Note_on_c, 1, 57, 55
3, 162478, Note_off_c, 1, 60, 58
3, 162478, Note_off_c, 1, 57, 55
3, 162480, Note_on_c, 1, 58, 52
3, 162480, Note_on_c, 1, 55, 56
3, 162718, Note_off_c, 1, 58, 52
3, 162718, Note_off_c, 1, 55, 56
3, 162720, Note_on_c, 1, 53, 56
3, 162720, Note_on_c, 1, 57, 58
3, 162958, Note_off_c, 1, 53, 56
3, 162958, Note_off_c, 1, 57, 58
3, 163440, Note_on_c, 1, 53, 65
3, 163440, Note_on_c, 1, 57, 53
3, 163678, Note_off_c, 1, 53, 65
3, 163678, Note_off_c, 1, 57, 53
3, 163680, Note_on_c, 1, 58, 60
3, 163680, Note_on_c, 1, 55, 67
3, 163918, Note_off_c, 1, 58, 60
3, 163918, Note_off_c, 1, 55, 67
3, 163920, Note_on_c, 1, 60, 63
3, 163920, Note_on_c, 1, 57, 62
3, 164158, Note_off_c, 1, 60, 63
3, 164158, Note_off_c, 1, 57, 62
3, 164160, Note_on_c, 1, 58, 55
3, 164878, Note_off_c, 1, 58, 55
3, 164880, Note_on_c, 1, 55, 51
3, 165118, Note_off_c, 1, 55, 51
3, 165120, Note_on_c, 1, 58, 43
3, 165358, Note_off_c, 1, 58, 43
3, 165360, Note_on_c, 1, 54, 57
3, 165598, Note_off_c, 1, 54, 57
3, 165600, Note_on_c, 1, 55, 66
3, 165838, Note_off_c, 1, 55, 66
3, 165840, Note_on_c, 1, 57, 67
3, 166078, Note_off_c, 1, 57, 67
3, 166080, Note_on_c, 1, 58, 60
3, 166558, Note_off_c, 1, 58, 60
3, 168240, Note_on_c, 1, 62, 62
3, 168240, Note_on_c, 1, 59, 57
3, 168478, Note_off_c, 1, 62, 62
3, 168478, Note_off_c, 1, 59, 57
3, 168480, Note_on_c, 1, 60, 65
3, 168718, Note_off_c, 1, 60, 65
3, 168720, Note_on_c, 1, 48, 63
3, 168958, Note_off_c, 1, 48, 63
3, 168960, Note_on_c, 1, 53, 71
3, 169198, Note_off_c, 1, 53, 71
3, 169200, Note_on_c, 1, 41, 48
3, 169438, Note_off_c, 1, 41, 48
3, 169920, Note_on_c, 1, 67, 83
3, 169920, Note_on_c, 1, 64, 77
3, 169920, Note_on_c, 1, 60, 71
3, 170398, Note_off_c, 1, 67, 83
3, 170398, Note_off_c, 1, 64, 77
3, 170398, Note_off_c, 1, 60, 71
3, 170880, Note_on_c, 1, 64, 56
3, 170880, Note_on_c, 1, 67, 76
3, 170880, Note_on_c, 1, 60, 53
3, 171358, Note_off_c, 1, 64, 56
3, 171358, Note_off_c, 1, 67, 76
3, 171358, Note_off_c, 1, 60, 53
3, 171840, Note_on_c, 1, 67, 74
3, 171840, Note_on_c, 1, 64, 55
3, 171840, Note_on_c, 1, 60, 61
3, 172318, Note_off_c, 1, 67, 74
3, 172318, Note_off_c, 1, 64, 55
3, 172318, Note_off_c, 1, 60, 61
3, 174720, Note_on_c, 1, 62, 65
3, 174838, Note_off_c, 1, 62, 65
3, 174960, Note_on_c, 1, 65, 62
3, 175078, Note_off_c, 1, 65, 62
3, 175200, Note_on_c, 1, 58, 63
3, 175318, Note_off_c, 1, 58, 63
3, 175440, Note_on_c, 1, 70, 60
3, 175558, Note_off_c, 1, 70, 60
3, 175680, Note_on_c, 1, 69, 66
3, 175680, Note_on_c, 1, 60, 52
3, 176158, Note_off_c, 1, 69, 66
3, 176160, Note_on_c, 1, 67, 61
3, 176638, Note_off_c, 1, 60, 52
3, 176638, Note_off_c, 1, 67, 61
3, 176640, Note_on_c, 1, 62, 72
3, 176878, Note_off_c, 1, 62, 72
3, 176880, Note_on_c, 1, 65, 65
3, 177118, Note_off_c, 1, 65, 65
3, 177120, Note_on_c, 1, 58, 53
3, 177358, Note_off_c, 1, 58, 53
3, 177360, Note_on_c, 1, 70, 62
3, 177478, Note_off_c, 1, 70, 62
3, 177600, Note_on_c, 1, 60, 56
3, 177600, Note_on_c, 1, 69, 65
3, 178078, Note_off_c, 1, 69, 65
3, 178080, Note_on_c, 1, 67, 66
3, 178198, Note_off_c, 1, 67, 66
3, 178318, Note_off_c, 1, 60, 56
3, 178320, Note_on_c, 1, 58, 42
3, 178438, Note_off_c, 1, 58, 42
3, 178560, Note_on_c, 1, 57, 53
3, 178560, Note_on_c, 1, 66, 34
3, 179038, Note_off_c, 1, 57, 53
3, 179038, Note_off_c, 1, 66, 34
3, 179040, Note_on_c, 1, 67, 68
3, 179040, Note_on_c, 1, 58, 63
3, 179398, Note_off_c, 1, 67, 68
3, 179398, Note_off_c, 1, 58, 63
3, 179520, Note_on_c, 1, 64, 52
3, 179520, Note_on_c, 1, 70, 50
3, 179998, Note_off_c, 1, 64, 52
3, 179998, Note_off_c, 1, 70, 50
3, 180000, Note_on_c, 1, 65, 43
3, 180000, Note_on_c, 1, 69, 44
3, 180358, Note_off_c, 1, 65, 43
3, 180358, Note_off_c, 1, 69, 44
3, 180480, Note_on_c, 1, 58, 61
3, 180958, Note_off_c, 1, 58, 61
3, 180960, Note_on_c, 1, 48, 52
3, 180960, Note_on_c, 1, 60, 68
3, 181438, Note_off_c, 1, 48, 52
3, 181438, Note_off_c, 1, 60, 68
3, 181440, Note_on_c, 1, 41, 72
3, 181440, Note_on_c, 1, 53, 67
3, 181918, Note_off_c, 1, 41, 72
3, 181918, Note_off_c, 1, 53, 67
3, 182400, Note_on_c, 1, 62, 56
3, 182638, Note_off_c, 1, 62, 56
3, 182640, Note_on_c, 1, 65, 65
3, 182758, Note_off_c, 1, 65, 65
3, 182880, Note_on_c, 1, 58, 55
3, 183118, Note_off_c, 1, 58, 55
3, 183120, Note_on_c, 1, 70, 60
3, 183238, Note_off_c, 1, 70, 60
3, 183360, Note_on_c, 1, 60, 52
3, 183360, Note_on_c, 1, 69, 53
3, 183838, Note_off_c, 1, 69, 53
3, 183840, Note_on_c, 1, 67, 55
3, 184078, Note_off_c, 1, 60, 52
3, 184078, Note_off_c, 1, 67, 55
3, 184320, Note_on_c, 1, 62, 72
3, 184438, Note_off_c, 1, 62, 72
3, 184440, Note_on_c, 1, 64, 62
3, 184558, Note_off_c, 1, 64, 62
3, 184560, Note_on_c, 1, 65, 61
3, 184678, Note_off_c, 1, 65, 61
3, 184680, Note_on_c, 1, 62, 52
3, 184798, Note_off_c, 1, 62, 52
3, 184800, Note_on_c, 1, 58, 45
3, 185038, Note_off_c, 1, 58, 45
3, 185040, Note_on_c, 1, 70, 61
3, 185278, Note_off_c, 1, 70, 61
3, 185280, Note_on_c, 1, 60, 67
3, 185280, Note_on_c, 1, 69, 66
3, 185758, Note_off_c, 1, 69, 66
3, 185760, Note_on_c, 1, 67, 67
3, 185998, Note_off_c, 1, 60, 67
3, 185998, Note_off_c, 1, 67, 67
3, 186000, Note_on_c, 1, 69, 74
3, 186118, Note_off_c, 1, 69, 74
3, 186120, Note_on_c, 1, 70, 60
3, 186238, Note_off_c, 1, 70, 60
3, 186240, Note_on_c, 1, 66, 55
3, 186240, Note_on_c, 1, 72, 67
3, 186718, Note_off_c, 1, 66, 55
3, 186718, Note_off_c, 1, 72, 67
3, 186720, Note_on_c, 1, 70, 51
3, 186720, Note_on_c, 1, 67, 52
3, 187198, Note_off_c, 1, 70, 51
3, 187198, Note_off_c, 1, 67, 52
3, 187200, Note_on_c, 1, 70, 51
3, 187200, Note_on_c, 1, 64, 62
3, 187678, Note_off_c, 1, 70, 51
3, 187678, Note_off_c, 1, 64, 62
3, 187680, Note_on_c, 1, 69, 50
3, 187680, Note_on_c, 1, 65, 45
3, 188158, Note_off_c, 1, 69, 50
3, 188158, Note_off_c, 1, 65, 45
3, 189360, Note_on_c, 1, 41, 72
3, 189598, Note_off_c, 1, 41, 72
3, 189600, Note_on_c, 1, 53, 68
3, 189718, Note_off_c, 1, 53, 68
3, 190320, Note_on_c, 1, 41, 48
3, 190558, Note_off_c, 1, 41, 48
3, 190560, Note_on_c, 1, 53, 62
3, 190678, Note_off_c, 1, 53, 62
3, 191280, Note_on_c, 1, 41, 50
3, 191518, Note_off_c, 1, 41, 50
3, 191520, Note_on_c, 1, 53, 68
3, 191638, Note_off_c, 1, 53, 68
3, 192240, Note_on_c, 1, 41, 50
3, 192478, Note_off_c, 1, 41, 50
3, 192480, Note_on_c, 1, 53, 58
3, 192598, Note_off_c, 1, 53, 58
3, 193920, End_track
0, 0, End_of_file
