0, 0, Header, 1, 9, 240
1, 0, Start_track
1, 0, Key_signature, 1, "major"
1, 0, SMPTE_offset, 96, 0, 0, 0, 0
1, 0, Title_t, "        "
1, 0, Tempo, 666666
1, 0, Time_signature, 3, 2, 24, 8
1, 10800, Tempo, 740740
1, 12240, Tempo, 666666
1, 12248, Tempo, 652173
1, 37440, Tempo, 740740
1, 38192, Tempo, 666666
1, 69832, Tempo, 666666
1, 74161, Tempo, 434782
1, 74880, Time_signature, 4, 2, 24, 8
1, 118320, Tempo, 500000
1, 118560, Tempo, 545454
1, 119040, Tempo, 434782
1, 119040, End_track
2, 0, Start_track
2, 0, MIDI_port, 0
2, 0, Title_t, "Piano Sonata No.16 in G by"
2, 0, Program_c, 0, 0
2, 0, Program_c, 0, 0
2, 0, Control_c, 0, 7, 127
2, 601, Note_on_c, 0, 67, 63
2, 719, Note_on_c, 0, 67, 0
2, 720, Note_on_c, 0, 67, 63
2, 959, Note_on_c, 0, 67, 0
2, 960, Note_on_c, 0, 71, 63
2, 1019, Note_on_c, 0, 71, 0
2, 1020, Note_on_c, 0, 69, 63
2, 1079, Note_on_c, 0, 69, 0
2, 1080, Note_on_c, 0, 62, 63
2, 1199, Note_on_c, 0, 62, 0
2, 1200, Note_on_c, 0, 64, 63
2, 1319, Note_on_c, 0, 64, 0
2, 1320, Note_on_c, 0, 66, 63
2, 1343, Note_on_c, 0, 66, 0
2, 1344, Note_on_c, 0, 67, 63
2, 1367, Note_on_c, 0, 67, 0
2, 1368, Note_on_c, 0, 66, 63
2, 1391, Note_on_c, 0, 66, 0
2, 1392, Note_on_c, 0, 64, 63
2, 1415, Note_on_c, 0, 64, 0
2, 1416, Note_on_c, 0, 66, 63
2, 1439, Note_on_c, 0, 66, 0
2, 1440, Note_on_c, 0, 67, 63
2, 1499, Note_on_c, 0, 67, 0
2, 1561, Note_on_c, 0, 67, 63
2, 1619, Note_on_c, 0, 67, 0
2, 1681, Note_on_c, 0, 67, 63
2, 1739, Note_on_c, 0, 67, 0
2, 1801, Note_on_c, 0, 67, 63
2, 2039, Note_on_c, 0, 67, 0
2, 2040, Note_on_c, 0, 69, 63
2, 2159, Note_on_c, 0, 69, 0
2, 2160, Note_on_c, 0, 72, 63
2, 2189, Note_on_c, 0, 72, 0
2, 2190, Note_on_c, 0, 71, 63
2, 2279, Note_on_c, 0, 71, 0
2, 2280, Note_on_c, 0, 69, 81
2, 2399, Note_on_c, 0, 69, 0
2, 2400, Note_on_c, 0, 71, 81
2, 2519, Note_on_c, 0, 71, 0
2, 2520, Note_on_c, 0, 74, 81
2, 2639, Note_on_c, 0, 74, 0
2, 2640, Note_on_c, 0, 72, 81
2, 2759, Note_on_c, 0, 72, 0
2, 2760, Note_on_c, 0, 71, 81
2, 2879, Note_on_c, 0, 71, 0
2, 2880, Note_on_c, 0, 71, 63
2, 2999, Note_on_c, 0, 71, 0
2, 3000, Note_on_c, 0, 69, 63
2, 3119, Note_on_c, 0, 69, 0
2, 3120, Note_on_c, 0, 69, 63
2, 3179, Note_on_c, 0, 69, 0
2, 3241, Note_on_c, 0, 69, 63
2, 3479, Note_on_c, 0, 69, 0
2, 3480, Note_on_c, 0, 71, 63
2, 3599, Note_on_c, 0, 71, 0
2, 3600, Note_on_c, 0, 72, 81
2, 3719, Note_on_c, 0, 72, 0
2, 3720, Note_on_c, 0, 74, 81
2, 3839, Note_on_c, 0, 74, 0
2, 3840, Note_on_c, 0, 76, 81
2, 3959, Note_on_c, 0, 76, 0
2, 3960, Note_on_c, 0, 76, 81
2, 4199, Note_on_c, 0, 76, 0
2, 4200, Note_on_c, 0, 74, 63
2, 4219, Note_on_c, 0, 74, 0
2, 4220, Note_on_c, 0, 72, 63
2, 4239, Note_on_c, 0, 72, 0
2, 4240, Note_on_c, 0, 71, 63
2, 4259, Note_on_c, 0, 71, 0
2, 4260, Note_on_c, 0, 72, 63
2, 4319, Note_on_c, 0, 72, 0
2, 4320, Note_on_c, 0, 71, 81
2, 4439, Note_on_c, 0, 71, 0
2, 4440, Note_on_c, 0, 72, 81
2, 4559, Note_on_c, 0, 72, 0
2, 4560, Note_on_c, 0, 74, 81
2, 4679, Note_on_c, 0, 74, 0
2, 4680, Note_on_c, 0, 72, 81
2, 4799, Note_on_c, 0, 72, 0
2, 4800, Note_on_c, 0, 74, 81
2, 4919, Note_on_c, 0, 74, 0
2, 4920, Note_on_c, 0, 76, 81
2, 5039, Note_on_c, 0, 76, 0
2, 5040, Note_on_c, 0, 74, 81
2, 5159, Note_on_c, 0, 74, 0
2, 5160, Note_on_c, 0, 79, 81
2, 5279, Note_on_c, 0, 79, 0
2, 5280, Note_on_c, 0, 79, 105
2, 5399, Note_on_c, 0, 79, 0
2, 5400, Note_on_c, 0, 81, 105
2, 5459, Note_on_c, 0, 81, 0
2, 5460, Note_on_c, 0, 79, 105
2, 5519, Note_on_c, 0, 79, 0
2, 5520, Note_on_c, 0, 78, 105
2, 5579, Note_on_c, 0, 78, 0
2, 5580, Note_on_c, 0, 76, 105
2, 5639, Note_on_c, 0, 76, 0
2, 5640, Note_on_c, 0, 74, 105
2, 5699, Note_on_c, 0, 74, 0
2, 5700, Note_on_c, 0, 73, 105
2, 5759, Note_on_c, 0, 73, 0
2, 5760, Note_on_c, 0, 76, 63
2, 5879, Note_on_c, 0, 76, 0
2, 5880, Note_on_c, 0, 74, 47
2, 5999, Note_on_c, 0, 74, 0
2, 6000, Note_on_c, 0, 74, 47
2, 6059, Note_on_c, 0, 74, 0
2, 6121, Note_on_c, 0, 74, 47
2, 6359, Note_on_c, 0, 74, 0
2, 6360, Note_on_c, 0, 79, 81
2, 6479, Note_on_c, 0, 79, 0
2, 6480, Note_on_c, 0, 79, 81
2, 6719, Note_on_c, 0, 79, 0
2, 6720, Note_on_c, 0, 83, 81
2, 6779, Note_on_c, 0, 83, 0
2, 6780, Note_on_c, 0, 81, 81
2, 6839, Note_on_c, 0, 81, 0
2, 6840, Note_on_c, 0, 79, 81
2, 6959, Note_on_c, 0, 79, 0
2, 6960, Note_on_c, 0, 78, 81
2, 7079, Note_on_c, 0, 78, 0
2, 7080, Note_on_c, 0, 76, 81
2, 7199, Note_on_c, 0, 76, 0
2, 7200, Note_on_c, 0, 74, 81
2, 7259, Note_on_c, 0, 74, 0
2, 7321, Note_on_c, 0, 74, 81
2, 7379, Note_on_c, 0, 74, 0
2, 7441, Note_on_c, 0, 74, 81
2, 7499, Note_on_c, 0, 74, 0
2, 7561, Note_on_c, 0, 74, 81
2, 7799, Note_on_c, 0, 74, 0
2, 7800, Note_on_c, 0, 75, 81
2, 7919, Note_on_c, 0, 75, 0
2, 7920, Note_on_c, 0, 76, 81
2, 8039, Note_on_c, 0, 76, 0
2, 8040, Note_on_c, 0, 78, 81
2, 8059, Note_on_c, 0, 78, 0
2, 8060, Note_on_c, 0, 79, 81
2, 8079, Note_on_c, 0, 79, 0
2, 8080, Note_on_c, 0, 78, 81
2, 8099, Note_on_c, 0, 78, 0
2, 8100, Note_on_c, 0, 76, 81
2, 8129, Note_on_c, 0, 76, 0
2, 8130, Note_on_c, 0, 78, 81
2, 8159, Note_on_c, 0, 78, 0
2, 8160, Note_on_c, 0, 79, 81
2, 8279, Note_on_c, 0, 79, 0
2, 8280, Note_on_c, 0, 69, 81
2, 8399, Note_on_c, 0, 69, 0
2, 8400, Note_on_c, 0, 71, 81
2, 8519, Note_on_c, 0, 71, 0
2, 8520, Note_on_c, 0, 73, 81
2, 8539, Note_on_c, 0, 73, 0
2, 8540, Note_on_c, 0, 74, 81
2, 8559, Note_on_c, 0, 74, 0
2, 8560, Note_on_c, 0, 73, 81
2, 8579, Note_on_c, 0, 73, 0
2, 8580, Note_on_c, 0, 71, 81
2, 8609, Note_on_c, 0, 71, 0
2, 8610, Note_on_c, 0, 73, 81
2, 8639, Note_on_c, 0, 73, 0
2, 8640, Note_on_c, 0, 74, 81
2, 8759, Note_on_c, 0, 74, 0
2, 8881, Note_on_c, 0, 74, 47
2, 8999, Note_on_c, 0, 74, 0
2, 9000, Note_on_c, 0, 74, 47
2, 9119, Note_on_c, 0, 74, 0
2, 9241, Note_on_c, 0, 74, 47
2, 9359, Note_on_c, 0, 74, 0
2, 9360, Note_on_c, 0, 74, 47
2, 9479, Note_on_c, 0, 74, 0
2, 9601, Note_on_c, 0, 74, 47
2, 9719, Note_on_c, 0, 74, 0
2, 9720, Note_on_c, 0, 74, 47
2, 9839, Note_on_c, 0, 74, 0
2, 9961, Note_on_c, 0, 74, 47
2, 10079, Note_on_c, 0, 74, 0
2, 10080, Note_on_c, 0, 74, 47
2, 10199, Note_on_c, 0, 74, 0
2, 10200, Note_on_c, 0, 78, 36
2, 10319, Note_on_c, 0, 78, 0
2, 10320, Note_on_c, 0, 79, 31
2, 10439, Note_on_c, 0, 79, 0
2, 10561, Note_on_c, 0, 81, 36
2, 10679, Note_on_c, 0, 81, 0
2, 10680, Note_on_c, 0, 83, 36
2, 10799, Note_on_c, 0, 83, 0
2, 10921, Note_on_c, 0, 84, 36
2, 11039, Note_on_c, 0, 84, 0
2, 11040, Note_on_c, 0, 83, 36
2, 11159, Note_on_c, 0, 83, 0
2, 11281, Note_on_c, 0, 81, 36
2, 11399, Note_on_c, 0, 81, 0
2, 11400, Note_on_c, 0, 79, 36
2, 11519, Note_on_c, 0, 79, 0
2, 11520, Note_on_c, 0, 78, 36
2, 11879, Note_on_c, 0, 78, 0
2, 11880, Note_on_c, 0, 71, 31
2, 11939, Note_on_c, 0, 71, 0
2, 11940, Note_on_c, 0, 72, 31
2, 11999, Note_on_c, 0, 72, 0
2, 12000, Note_on_c, 0, 74, 31
2, 12059, Note_on_c, 0, 74, 0
2, 12060, Note_on_c, 0, 72, 31
2, 12119, Note_on_c, 0, 72, 0
2, 12120, Note_on_c, 0, 71, 31
2, 12179, Note_on_c, 0, 71, 0
2, 12180, Note_on_c, 0, 69, 31
2, 12239, Note_on_c, 0, 69, 0
2, 12240, Note_on_c, 0, 67, 31
2, 12479, Note_on_c, 0, 67, 0
2, 12480, Note_on_c, 0, 71, 47
2, 12539, Note_on_c, 0, 71, 0
2, 12540, Note_on_c, 0, 69, 47
2, 12599, Note_on_c, 0, 69, 0
2, 12600, Note_on_c, 0, 62, 47
2, 12719, Note_on_c, 0, 62, 0
2, 12720, Note_on_c, 0, 64, 47
2, 12839, Note_on_c, 0, 64, 0
2, 12840, Note_on_c, 0, 66, 47
2, 12859, Note_on_c, 0, 66, 0
2, 12860, Note_on_c, 0, 67, 47
2, 12879, Note_on_c, 0, 67, 0
2, 12880, Note_on_c, 0, 66, 47
2, 12899, Note_on_c, 0, 66, 0
2, 12900, Note_on_c, 0, 64, 47
2, 12929, Note_on_c, 0, 64, 0
2, 12930, Note_on_c, 0, 66, 47
2, 12959, Note_on_c, 0, 66, 0
2, 12960, Note_on_c, 0, 67, 47
2, 13019, Note_on_c, 0, 67, 0
2, 13081, Note_on_c, 0, 67, 47
2, 13139, Note_on_c, 0, 67, 0
2, 13201, Note_on_c, 0, 67, 47
2, 13259, Note_on_c, 0, 67, 0
2, 13321, Note_on_c, 0, 67, 47
2, 13559, Note_on_c, 0, 67, 0
2, 13560, Note_on_c, 0, 69, 47
2, 13679, Note_on_c, 0, 69, 0
2, 13680, Note_on_c, 0, 72, 47
2, 13709, Note_on_c, 0, 72, 0
2, 13710, Note_on_c, 0, 71, 63
2, 13799, Note_on_c, 0, 71, 0
2, 13800, Note_on_c, 0, 69, 63
2, 13919, Note_on_c, 0, 69, 0
2, 13920, Note_on_c, 0, 71, 63
2, 14039, Note_on_c, 0, 71, 0
2, 14040, Note_on_c, 0, 74, 63
2, 14159, Note_on_c, 0, 74, 0
2, 14160, Note_on_c, 0, 72, 63
2, 14279, Note_on_c, 0, 72, 0
2, 14280, Note_on_c, 0, 71, 63
2, 14399, Note_on_c, 0, 71, 0
2, 14400, Note_on_c, 0, 71, 63
2, 14519, Note_on_c, 0, 71, 0
2, 14520, Note_on_c, 0, 69, 47
2, 14639, Note_on_c, 0, 69, 0
2, 14640, Note_on_c, 0, 69, 47
2, 14699, Note_on_c, 0, 69, 0
2, 14761, Note_on_c, 0, 69, 47
2, 14999, Note_on_c, 0, 69, 0
2, 15000, Note_on_c, 0, 71, 47
2, 15119, Note_on_c, 0, 71, 0
2, 15120, Note_on_c, 0, 72, 63
2, 15239, Note_on_c, 0, 72, 0
2, 15240, Note_on_c, 0, 74, 63
2, 15359, Note_on_c, 0, 74, 0
2, 15360, Note_on_c, 0, 76, 63
2, 15479, Note_on_c, 0, 76, 0
2, 15480, Note_on_c, 0, 76, 63
2, 15719, Note_on_c, 0, 76, 0
2, 15720, Note_on_c, 0, 74, 63
2, 15749, Note_on_c, 0, 74, 0
2, 15750, Note_on_c, 0, 72, 63
2, 15779, Note_on_c, 0, 72, 0
2, 15780, Note_on_c, 0, 71, 63
2, 15809, Note_on_c, 0, 71, 0
2, 15810, Note_on_c, 0, 72, 63
2, 15839, Note_on_c, 0, 72, 0
2, 15840, Note_on_c, 0, 71, 63
2, 15959, Note_on_c, 0, 71, 0
2, 15960, Note_on_c, 0, 72, 63
2, 16079, Note_on_c, 0, 72, 0
2, 16080, Note_on_c, 0, 74, 63
2, 16199, Note_on_c, 0, 74, 0
2, 16200, Note_on_c, 0, 73, 63
2, 16219, Note_on_c, 0, 73, 0
2, 16220, Note_on_c, 0, 74, 63
2, 16239, Note_on_c, 0, 74, 0
2, 16240, Note_on_c, 0, 76, 63
2, 16259, Note_on_c, 0, 76, 0
2, 16260, Note_on_c, 0, 74, 63
2, 16439, Note_on_c, 0, 74, 0
2, 16440, Note_on_c, 0, 67, 63
2, 16459, Note_on_c, 0, 67, 0
2, 16460, Note_on_c, 0, 69, 63
2, 16479, Note_on_c, 0, 69, 0
2, 16480, Note_on_c, 0, 67, 63
2, 16499, Note_on_c, 0, 67, 0
2, 16500, Note_on_c, 0, 66, 63
2, 16529, Note_on_c, 0, 66, 0
2, 16530, Note_on_c, 0, 67, 63
2, 16559, Note_on_c, 0, 67, 0
2, 16560, Note_on_c, 0, 69, 63
2, 16679, Note_on_c, 0, 69, 0
2, 16680, Note_on_c, 0, 72, 63
2, 16799, Note_on_c, 0, 72, 0
2, 16800, Note_on_c, 0, 71, 63
2, 16919, Note_on_c, 0, 71, 0
2, 16920, Note_on_c, 0, 69, 63
2, 17039, Note_on_c, 0, 69, 0
2, 17040, Note_on_c, 0, 67, 63
2, 17159, Note_on_c, 0, 67, 0
2, 17160, Note_on_c, 0, 66, 63
2, 17179, Note_on_c, 0, 66, 0
2, 17180, Note_on_c, 0, 67, 63
2, 17199, Note_on_c, 0, 67, 0
2, 17200, Note_on_c, 0, 66, 63
2, 17219, Note_on_c, 0, 66, 0
2, 17220, Note_on_c, 0, 64, 63
2, 17249, Note_on_c, 0, 64, 0
2, 17250, Note_on_c, 0, 66, 63
2, 17279, Note_on_c, 0, 66, 0
2, 17280, Note_on_c, 0, 69, 63
2, 17399, Note_on_c, 0, 69, 0
2, 17400, Note_on_c, 0, 67, 63
2, 17519, Note_on_c, 0, 67, 0
2, 17520, Note_on_c, 0, 67, 63
2, 17579, Note_on_c, 0, 67, 0
2, 17641, Note_on_c, 0, 67, 63
2, 17879, Note_on_c, 0, 67, 0
2, 17880, Note_on_c, 0, 74, 47
2, 17939, Note_on_c, 0, 74, 0
2, 18001, Note_on_c, 0, 74, 47
2, 18059, Note_on_c, 0, 74, 0
2, 18241, Note_on_c, 0, 75, 47
2, 18299, Note_on_c, 0, 75, 0
2, 18361, Note_on_c, 0, 75, 47
2, 18419, Note_on_c, 0, 75, 0
2, 18601, Note_on_c, 0, 78, 47
2, 18659, Note_on_c, 0, 78, 0
2, 18721, Note_on_c, 0, 78, 47
2, 18779, Note_on_c, 0, 78, 0
2, 18961, Note_on_c, 0, 79, 47
2, 19019, Note_on_c, 0, 79, 0
2, 19081, Note_on_c, 0, 79, 47
2, 19139, Note_on_c, 0, 79, 0
2, 19321, Note_on_c, 0, 82, 81
2, 19559, Note_on_c, 0, 82, 0
2, 19560, Note_on_c, 0, 81, 81
2, 19679, Note_on_c, 0, 81, 0
2, 19680, Note_on_c, 0, 82, 81
2, 19919, Note_on_c, 0, 82, 0
2, 19920, Note_on_c, 0, 81, 81
2, 20039, Note_on_c, 0, 81, 0
2, 20040, Note_on_c, 0, 80, 81
2, 20063, Note_on_c, 0, 80, 0
2, 20064, Note_on_c, 0, 81, 81
2, 20087, Note_on_c, 0, 81, 0
2, 20088, Note_on_c, 0, 80, 81
2, 20111, Note_on_c, 0, 80, 0
2, 20112, Note_on_c, 0, 81, 81
2, 20135, Note_on_c, 0, 81, 0
2, 20136, Note_on_c, 0, 80, 81
2, 20279, Note_on_c, 0, 80, 0
2, 20280, Note_on_c, 0, 81, 81
2, 20339, Note_on_c, 0, 81, 0
2, 20401, Note_on_c, 0, 81, 81
2, 20459, Note_on_c, 0, 81, 0
2, 20641, Note_on_c, 0, 83, 81
2, 20699, Note_on_c, 0, 83, 0
2, 20761, Note_on_c, 0, 83, 81
2, 20819, Note_on_c, 0, 83, 0
2, 21001, Note_on_c, 0, 69, 47
2, 21059, Note_on_c, 0, 69, 0
2, 21121, Note_on_c, 0, 69, 47
2, 21179, Note_on_c, 0, 69, 0
2, 21241, Note_on_c, 0, 69, 47
2, 21359, Note_on_c, 0, 69, 0
2, 21360, Note_on_c, 0, 71, 47
2, 21479, Note_on_c, 0, 71, 0
2, 21480, Note_on_c, 0, 73, 47
2, 21599, Note_on_c, 0, 73, 0
2, 21600, Note_on_c, 0, 73, 47
2, 21959, Note_on_c, 0, 73, 0
2, 21960, Note_on_c, 0, 74, 47
2, 22079, Note_on_c, 0, 74, 0
2, 22201, Note_on_c, 0, 74, 47
2, 22259, Note_on_c, 0, 74, 0
2, 22321, Note_on_c, 0, 74, 47
2, 22379, Note_on_c, 0, 74, 0
2, 22561, Note_on_c, 0, 67, 47
2, 22679, Note_on_c, 0, 67, 0
2, 22680, Note_on_c, 0, 72, 47
2, 22799, Note_on_c, 0, 72, 0
2, 22921, Note_on_c, 0, 66, 47
2, 23039, Note_on_c, 0, 66, 0
2, 23040, Note_on_c, 0, 70, 47
2, 23159, Note_on_c, 0, 70, 0
2, 23281, Note_on_c, 0, 61, 47
2, 23399, Note_on_c, 0, 61, 0
2, 23400, Note_on_c, 0, 62, 47
2, 23519, Note_on_c, 0, 62, 0
2, 23641, Note_on_c, 0, 79, 81
2, 23879, Note_on_c, 0, 79, 0
2, 23880, Note_on_c, 0, 78, 81
2, 23999, Note_on_c, 0, 78, 0
2, 24000, Note_on_c, 0, 79, 81
2, 24239, Note_on_c, 0, 79, 0
2, 24240, Note_on_c, 0, 78, 81
2, 24359, Note_on_c, 0, 78, 0
2, 24360, Note_on_c, 0, 79, 81
2, 24419, Note_on_c, 0, 79, 0
2, 24480, Note_on_c, 0, 84, 105
2, 24958, Note_on_c, 0, 84, 0
2, 24960, Note_on_c, 0, 82, 81
2, 25079, Note_on_c, 0, 82, 0
2, 25080, Note_on_c, 0, 82, 81
2, 25319, Note_on_c, 0, 82, 0
2, 25320, Note_on_c, 0, 81, 63
2, 25439, Note_on_c, 0, 81, 0
2, 25440, Note_on_c, 0, 81, 63
2, 25679, Note_on_c, 0, 81, 0
2, 25680, Note_on_c, 0, 79, 47
2, 25799, Note_on_c, 0, 79, 0
2, 25800, Note_on_c, 0, 78, 47
2, 25919, Note_on_c, 0, 78, 0
2, 25920, Note_on_c, 0, 78, 47
2, 26279, Note_on_c, 0, 78, 0
2, 26280, Note_on_c, 0, 79, 36
2, 26399, Note_on_c, 0, 79, 0
2, 26521, Note_on_c, 0, 67, 63
2, 26639, Note_on_c, 0, 67, 0
2, 26640, Note_on_c, 0, 67, 63
2, 26879, Note_on_c, 0, 67, 0
2, 26880, Note_on_c, 0, 71, 81
2, 26939, Note_on_c, 0, 71, 0
2, 26940, Note_on_c, 0, 69, 81
2, 26999, Note_on_c, 0, 69, 0
2, 27000, Note_on_c, 0, 62, 63
2, 27059, Note_on_c, 0, 62, 0
2, 27121, Note_on_c, 0, 63, 63
2, 27179, Note_on_c, 0, 63, 0
2, 27180, Note_on_c, 0, 64, 63
2, 27239, Note_on_c, 0, 64, 0
2, 27240, Note_on_c, 0, 65, 63
2, 27299, Note_on_c, 0, 65, 0
2, 27300, Note_on_c, 0, 66, 63
2, 27359, Note_on_c, 0, 66, 0
2, 27360, Note_on_c, 0, 67, 63
2, 27419, Note_on_c, 0, 67, 0
2, 27481, Note_on_c, 0, 67, 63
2, 27539, Note_on_c, 0, 67, 0
2, 27601, Note_on_c, 0, 67, 63
2, 27659, Note_on_c, 0, 67, 0
2, 27721, Note_on_c, 0, 67, 63
2, 27959, Note_on_c, 0, 67, 0
2, 27960, Note_on_c, 0, 69, 63
2, 28079, Note_on_c, 0, 69, 0
2, 28080, Note_on_c, 0, 72, 63
2, 28109, Note_on_c, 0, 72, 0
2, 28110, Note_on_c, 0, 71, 63
2, 28139, Note_on_c, 0, 71, 0
2, 28140, Note_on_c, 0, 70, 81
2, 28199, Note_on_c, 0, 70, 0
2, 28200, Note_on_c, 0, 71, 81
2, 28259, Note_on_c, 0, 71, 0
2, 28260, Note_on_c, 0, 70, 81
2, 28319, Note_on_c, 0, 70, 0
2, 28320, Note_on_c, 0, 71, 81
2, 28379, Note_on_c, 0, 71, 0
2, 28380, Note_on_c, 0, 74, 81
2, 28439, Note_on_c, 0, 74, 0
2, 28440, Note_on_c, 0, 74, 81
2, 28559, Note_on_c, 0, 74, 0
2, 28560, Note_on_c, 0, 72, 81
2, 28679, Note_on_c, 0, 72, 0
2, 28680, Note_on_c, 0, 71, 81
2, 28799, Note_on_c, 0, 71, 0
2, 28800, Note_on_c, 0, 71, 63
2, 28919, Note_on_c, 0, 71, 0
2, 28920, Note_on_c, 0, 69, 63
2, 29039, Note_on_c, 0, 69, 0
2, 29040, Note_on_c, 0, 69, 47
2, 29099, Note_on_c, 0, 69, 0
2, 29161, Note_on_c, 0, 69, 36
2, 29399, Note_on_c, 0, 69, 0
2, 29400, Note_on_c, 0, 71, 36
2, 29519, Note_on_c, 0, 71, 0
2, 29520, Note_on_c, 0, 72, 36
2, 29639, Note_on_c, 0, 72, 0
2, 29640, Note_on_c, 0, 74, 47
2, 29759, Note_on_c, 0, 74, 0
2, 29760, Note_on_c, 0, 76, 47
2, 29879, Note_on_c, 0, 76, 0
2, 29880, Note_on_c, 0, 76, 63
2, 30119, Note_on_c, 0, 76, 0
2, 30120, Note_on_c, 0, 74, 47
2, 30179, Note_on_c, 0, 74, 0
2, 30180, Note_on_c, 0, 72, 47
2, 30239, Note_on_c, 0, 72, 0
2, 30240, Note_on_c, 0, 71, 47
2, 30299, Note_on_c, 0, 71, 0
2, 30300, Note_on_c, 0, 72, 47
2, 30359, Note_on_c, 0, 72, 0
2, 30360, Note_on_c, 0, 71, 47
2, 30419, Note_on_c, 0, 71, 0
2, 30420, Note_on_c, 0, 72, 47
2, 30479, Note_on_c, 0, 72, 0
2, 30480, Note_on_c, 0, 71, 47
2, 30539, Note_on_c, 0, 71, 0
2, 30540, Note_on_c, 0, 74, 47
2, 30599, Note_on_c, 0, 74, 0
2, 30600, Note_on_c, 0, 72, 47
2, 30719, Note_on_c, 0, 72, 0
2, 30720, Note_on_c, 0, 74, 47
2, 30839, Note_on_c, 0, 74, 0
2, 30840, Note_on_c, 0, 76, 47
2, 30959, Note_on_c, 0, 76, 0
2, 30960, Note_on_c, 0, 74, 47
2, 31079, Note_on_c, 0, 74, 0
2, 31080, Note_on_c, 0, 79, 47
2, 31199, Note_on_c, 0, 79, 0
2, 31200, Note_on_c, 0, 79, 63
2, 31259, Note_on_c, 0, 79, 0
2, 31321, Note_on_c, 0, 81, 63
2, 31379, Note_on_c, 0, 81, 0
2, 31380, Note_on_c, 0, 79, 63
2, 31439, Note_on_c, 0, 79, 0
2, 31440, Note_on_c, 0, 78, 63
2, 31499, Note_on_c, 0, 78, 0
2, 31500, Note_on_c, 0, 76, 63
2, 31559, Note_on_c, 0, 76, 0
2, 31560, Note_on_c, 0, 74, 63
2, 31619, Note_on_c, 0, 74, 0
2, 31620, Note_on_c, 0, 73, 63
2, 31679, Note_on_c, 0, 73, 0
2, 31680, Note_on_c, 0, 76, 55
2, 31799, Note_on_c, 0, 76, 0
2, 31800, Note_on_c, 0, 74, 47
2, 31919, Note_on_c, 0, 74, 0
2, 31920, Note_on_c, 0, 74, 47
2, 31979, Note_on_c, 0, 74, 0
2, 32039, Note_on_c, 0, 74, 36
2, 32157, Note_on_c, 0, 74, 0
2, 32280, Note_on_c, 0, 79, 81
2, 32398, Note_on_c, 0, 79, 0
2, 32400, Note_on_c, 0, 79, 81
2, 32639, Note_on_c, 0, 79, 0
2, 32640, Note_on_c, 0, 83, 81
2, 32699, Note_on_c, 0, 83, 0
2, 32700, Note_on_c, 0, 81, 81
2, 32759, Note_on_c, 0, 81, 0
2, 32760, Note_on_c, 0, 79, 81
2, 32879, Note_on_c, 0, 79, 0
2, 32880, Note_on_c, 0, 78, 81
2, 32999, Note_on_c, 0, 78, 0
2, 33000, Note_on_c, 0, 76, 81
2, 33119, Note_on_c, 0, 76, 0
2, 33120, Note_on_c, 0, 74, 81
2, 33179, Note_on_c, 0, 74, 0
2, 33241, Note_on_c, 0, 74, 81
2, 33299, Note_on_c, 0, 74, 0
2, 33361, Note_on_c, 0, 74, 81
2, 33419, Note_on_c, 0, 74, 0
2, 33481, Note_on_c, 0, 74, 81
2, 33719, Note_on_c, 0, 74, 0
2, 33720, Note_on_c, 0, 75, 81
2, 33839, Note_on_c, 0, 75, 0
2, 33840, Note_on_c, 0, 76, 81
2, 33899, Note_on_c, 0, 76, 0
2, 33900, Note_on_c, 0, 75, 63
2, 33959, Note_on_c, 0, 75, 0
2, 33960, Note_on_c, 0, 78, 63
2, 34019, Note_on_c, 0, 78, 0
2, 34020, Note_on_c, 0, 76, 63
2, 34079, Note_on_c, 0, 76, 0
2, 34080, Note_on_c, 0, 79, 63
2, 34139, Note_on_c, 0, 79, 0
2, 34140, Note_on_c, 0, 78, 63
2, 34199, Note_on_c, 0, 78, 0
2, 34200, Note_on_c, 0, 81, 47
2, 34259, Note_on_c, 0, 81, 0
2, 34260, Note_on_c, 0, 79, 47
2, 34319, Note_on_c, 0, 79, 0
2, 34320, Note_on_c, 0, 78, 47
2, 34379, Note_on_c, 0, 78, 0
2, 34380, Note_on_c, 0, 76, 47
2, 34439, Note_on_c, 0, 76, 0
2, 34440, Note_on_c, 0, 74, 47
2, 34499, Note_on_c, 0, 74, 0
2, 34500, Note_on_c, 0, 73, 47
2, 34559, Note_on_c, 0, 73, 0
2, 34560, Note_on_c, 0, 74, 36
2, 34679, Note_on_c, 0, 74, 0
2, 34801, Note_on_c, 0, 74, 36
2, 34919, Note_on_c, 0, 74, 0
2, 34920, Note_on_c, 0, 74, 36
2, 35039, Note_on_c, 0, 74, 0
2, 35161, Note_on_c, 0, 74, 47
2, 35279, Note_on_c, 0, 74, 0
2, 35280, Note_on_c, 0, 74, 47
2, 35399, Note_on_c, 0, 74, 0
2, 35521, Note_on_c, 0, 74, 36
2, 35639, Note_on_c, 0, 74, 0
2, 35640, Note_on_c, 0, 74, 36
2, 35759, Note_on_c, 0, 74, 0
2, 35881, Note_on_c, 0, 74, 36
2, 35999, Note_on_c, 0, 74, 0
2, 36061, Note_on_c, 0, 74, 36
2, 36119, Note_on_c, 0, 74, 0
2, 36120, Note_on_c, 0, 78, 36
2, 36179, Note_on_c, 0, 78, 0
2, 36180, Note_on_c, 0, 74, 36
2, 36239, Note_on_c, 0, 74, 0
2, 36240, Note_on_c, 0, 76, 47
2, 36299, Note_on_c, 0, 76, 0
2, 36300, Note_on_c, 0, 79, 47
2, 36359, Note_on_c, 0, 79, 0
2, 36421, Note_on_c, 0, 78, 63
2, 36479, Note_on_c, 0, 78, 0
2, 36480, Note_on_c, 0, 81, 63
2, 36539, Note_on_c, 0, 81, 0
2, 36540, Note_on_c, 0, 78, 63
2, 36599, Note_on_c, 0, 78, 0
2, 36600, Note_on_c, 0, 79, 63
2, 36659, Note_on_c, 0, 79, 0
2, 36660, Note_on_c, 0, 83, 63
2, 36719, Note_on_c, 0, 83, 0
2, 36781, Note_on_c, 0, 81, 81
2, 36839, Note_on_c, 0, 81, 0
2, 36840, Note_on_c, 0, 84, 81
2, 36899, Note_on_c, 0, 84, 0
2, 36900, Note_on_c, 0, 78, 81
2, 36959, Note_on_c, 0, 78, 0
2, 36960, Note_on_c, 0, 81, 81
2, 37019, Note_on_c, 0, 81, 0
2, 37020, Note_on_c, 0, 72, 81
2, 37079, Note_on_c, 0, 72, 0
2, 37080, Note_on_c, 0, 78, 81
2, 37139, Note_on_c, 0, 78, 0
2, 37140, Note_on_c, 0, 69, 81
2, 37199, Note_on_c, 0, 69, 0
2, 37200, Note_on_c, 0, 72, 81
2, 37259, Note_on_c, 0, 72, 0
2, 37260, Note_on_c, 0, 66, 81
2, 37319, Note_on_c, 0, 66, 0
2, 37320, Note_on_c, 0, 69, 81
2, 37379, Note_on_c, 0, 69, 0
2, 37380, Note_on_c, 0, 60, 81
2, 37439, Note_on_c, 0, 60, 0
2, 37440, Note_on_c, 0, 76, 81
2, 38039, Note_on_c, 0, 76, 0
2, 38040, Note_on_c, 0, 74, 63
2, 38069, Note_on_c, 0, 74, 0
2, 38070, Note_on_c, 0, 72, 63
2, 38099, Note_on_c, 0, 72, 0
2, 38100, Note_on_c, 0, 71, 47
2, 38129, Note_on_c, 0, 71, 0
2, 38130, Note_on_c, 0, 69, 47
2, 38159, Note_on_c, 0, 69, 0
2, 38160, Note_on_c, 0, 67, 36
2, 38399, Note_on_c, 0, 67, 0
2, 38400, Note_on_c, 0, 71, 47
2, 38459, Note_on_c, 0, 71, 0
2, 38460, Note_on_c, 0, 69, 47
2, 38519, Note_on_c, 0, 69, 0
2, 38520, Note_on_c, 0, 62, 47
2, 38579, Note_on_c, 0, 62, 0
2, 38641, Note_on_c, 0, 63, 36
2, 38699, Note_on_c, 0, 63, 0
2, 38700, Note_on_c, 0, 64, 36
2, 38759, Note_on_c, 0, 64, 0
2, 38760, Note_on_c, 0, 65, 36
2, 38819, Note_on_c, 0, 65, 0
2, 38820, Note_on_c, 0, 66, 36
2, 38879, Note_on_c, 0, 66, 0
2, 38880, Note_on_c, 0, 67, 36
2, 38939, Note_on_c, 0, 67, 0
2, 39001, Note_on_c, 0, 67, 36
2, 39059, Note_on_c, 0, 67, 0
2, 39121, Note_on_c, 0, 67, 36
2, 39179, Note_on_c, 0, 67, 0
2, 39241, Note_on_c, 0, 67, 36
2, 39479, Note_on_c, 0, 67, 0
2, 39480, Note_on_c, 0, 69, 36
2, 39599, Note_on_c, 0, 69, 0
2, 39600, Note_on_c, 0, 72, 36
2, 39629, Note_on_c, 0, 72, 0
2, 39630, Note_on_c, 0, 71, 36
2, 39659, Note_on_c, 0, 71, 0
2, 39660, Note_on_c, 0, 70, 36
2, 39719, Note_on_c, 0, 70, 0
2, 39720, Note_on_c, 0, 71, 47
2, 39779, Note_on_c, 0, 71, 0
2, 39780, Note_on_c, 0, 70, 47
2, 39839, Note_on_c, 0, 70, 0
2, 39840, Note_on_c, 0, 71, 47
2, 39899, Note_on_c, 0, 71, 0
2, 39900, Note_on_c, 0, 74, 47
2, 39959, Note_on_c, 0, 74, 0
2, 39960, Note_on_c, 0, 74, 63
2, 40079, Note_on_c, 0, 74, 0
2, 40080, Note_on_c, 0, 72, 63
2, 40199, Note_on_c, 0, 72, 0
2, 40200, Note_on_c, 0, 71, 63
2, 40319, Note_on_c, 0, 71, 0
2, 40320, Note_on_c, 0, 71, 47
2, 40439, Note_on_c, 0, 71, 0
2, 40440, Note_on_c, 0, 69, 47
2, 40559, Note_on_c, 0, 69, 0
2, 40560, Note_on_c, 0, 69, 47
2, 40619, Note_on_c, 0, 69, 0
2, 40681, Note_on_c, 0, 69, 47
2, 40919, Note_on_c, 0, 69, 0
2, 40920, Note_on_c, 0, 71, 47
2, 41039, Note_on_c, 0, 71, 0
2, 41040, Note_on_c, 0, 72, 47
2, 41159, Note_on_c, 0, 72, 0
2, 41160, Note_on_c, 0, 74, 47
2, 41279, Note_on_c, 0, 74, 0
2, 41280, Note_on_c, 0, 76, 63
2, 41399, Note_on_c, 0, 76, 0
2, 41400, Note_on_c, 0, 76, 63
2, 41639, Note_on_c, 0, 76, 0
2, 41640, Note_on_c, 0, 74, 63
2, 41699, Note_on_c, 0, 74, 0
2, 41700, Note_on_c, 0, 72, 63
2, 41759, Note_on_c, 0, 72, 0
2, 41760, Note_on_c, 0, 71, 81
2, 41879, Note_on_c, 0, 71, 0
2, 41880, Note_on_c, 0, 72, 81
2, 41999, Note_on_c, 0, 72, 0
2, 42000, Note_on_c, 0, 74, 81
2, 42119, Note_on_c, 0, 74, 0
2, 42120, Note_on_c, 0, 67, 81
2, 42239, Note_on_c, 0, 67, 0
2, 42240, Note_on_c, 0, 69, 81
2, 42359, Note_on_c, 0, 69, 0
2, 42360, Note_on_c, 0, 71, 81
2, 42479, Note_on_c, 0, 71, 0
2, 42480, Note_on_c, 0, 69, 81
2, 42599, Note_on_c, 0, 69, 0
2, 42600, Note_on_c, 0, 71, 81
2, 42719, Note_on_c, 0, 71, 0
2, 42720, Note_on_c, 0, 72, 81
2, 42839, Note_on_c, 0, 72, 0
2, 42840, Note_on_c, 0, 72, 81
2, 42959, Note_on_c, 0, 72, 0
2, 42960, Note_on_c, 0, 69, 81
2, 43079, Note_on_c, 0, 69, 0
2, 43080, Note_on_c, 0, 66, 81
2, 43199, Note_on_c, 0, 66, 0
2, 43200, Note_on_c, 0, 69, 81
2, 43559, Note_on_c, 0, 69, 0
2, 43560, Note_on_c, 0, 67, 47
2, 43679, Note_on_c, 0, 67, 0
2, 43801, Note_on_c, 0, 74, 36
2, 43919, Note_on_c, 0, 74, 0
2, 43920, Note_on_c, 0, 74, 36
2, 43979, Note_on_c, 0, 74, 0
2, 44161, Note_on_c, 0, 74, 36
2, 44219, Note_on_c, 0, 74, 0
2, 44220, Note_on_c, 0, 75, 36
2, 44279, Note_on_c, 0, 75, 0
2, 44280, Note_on_c, 0, 75, 36
2, 44339, Note_on_c, 0, 75, 0
2, 44521, Note_on_c, 0, 79, 36
2, 44579, Note_on_c, 0, 79, 0
2, 44580, Note_on_c, 0, 78, 36
2, 44639, Note_on_c, 0, 78, 0
2, 44640, Note_on_c, 0, 78, 36
2, 44699, Note_on_c, 0, 78, 0
2, 44881, Note_on_c, 0, 84, 36
2, 44939, Note_on_c, 0, 84, 0
2, 44940, Note_on_c, 0, 78, 36
2, 44999, Note_on_c, 0, 78, 0
2, 45000, Note_on_c, 0, 79, 36
2, 45059, Note_on_c, 0, 79, 0
2, 45241, Note_on_c, 0, 82, 81
2, 45299, Note_on_c, 0, 82, 0
2, 45300, Note_on_c, 0, 81, 81
2, 45359, Note_on_c, 0, 81, 0
2, 45360, Note_on_c, 0, 84, 81
2, 45539, Note_on_c, 0, 84, 0
2, 45540, Note_on_c, 0, 82, 81
2, 45599, Note_on_c, 0, 82, 0
2, 45600, Note_on_c, 0, 81, 81
2, 45629, Note_on_c, 0, 81, 0
2, 45630, Note_on_c, 0, 79, 81
2, 45659, Note_on_c, 0, 79, 0
2, 45660, Note_on_c, 0, 77, 81
2, 45689, Note_on_c, 0, 77, 0
2, 45690, Note_on_c, 0, 76, 81
2, 45705, Note_on_c, 0, 76, 0
2, 45705, Note_on_c, 0, 74, 81
2, 45720, Note_on_c, 0, 74, 0
2, 45841, Note_on_c, 0, 88, 81
2, 46079, Note_on_c, 0, 88, 0
2, 46111, Note_on_c, 0, 77, 81
2, 46139, Note_on_c, 0, 77, 0
2, 46140, Note_on_c, 0, 81, 81
2, 46169, Note_on_c, 0, 81, 0
2, 46170, Note_on_c, 0, 85, 81
2, 46199, Note_on_c, 0, 85, 0
2, 46200, Note_on_c, 0, 86, 81
2, 46229, Note_on_c, 0, 86, 0
2, 46230, Note_on_c, 0, 81, 81
2, 46259, Note_on_c, 0, 81, 0
2, 46260, Note_on_c, 0, 85, 81
2, 46289, Note_on_c, 0, 85, 0
2, 46290, Note_on_c, 0, 86, 81
2, 46319, Note_on_c, 0, 86, 0
2, 46320, Note_on_c, 0, 88, 81
2, 46349, Note_on_c, 0, 88, 0
2, 46350, Note_on_c, 0, 81, 81
2, 46379, Note_on_c, 0, 81, 0
2, 46380, Note_on_c, 0, 86, 81
2, 46409, Note_on_c, 0, 86, 0
2, 46410, Note_on_c, 0, 88, 81
2, 46439, Note_on_c, 0, 88, 0
2, 46440, Note_on_c, 0, 89, 81
2, 46559, Note_on_c, 0, 89, 0
2, 46560, Note_on_c, 0, 83, 81
2, 46799, Note_on_c, 0, 83, 0
2, 46921, Note_on_c, 0, 81, 81
2, 47039, Note_on_c, 0, 81, 0
2, 47040, Note_on_c, 0, 77, 81
2, 47099, Note_on_c, 0, 77, 0
2, 47100, Note_on_c, 0, 74, 81
2, 47159, Note_on_c, 0, 74, 0
2, 47281, Note_on_c, 0, 79, 63
2, 47399, Note_on_c, 0, 79, 0
2, 47400, Note_on_c, 0, 76, 47
2, 47459, Note_on_c, 0, 76, 0
2, 47460, Note_on_c, 0, 73, 47
2, 47519, Note_on_c, 0, 73, 0
2, 47520, Note_on_c, 0, 73, 47
2, 47759, Note_on_c, 0, 73, 0
2, 47760, Note_on_c, 0, 74, 36
2, 47879, Note_on_c, 0, 74, 0
2, 47880, Note_on_c, 0, 74, 36
2, 47939, Note_on_c, 0, 74, 0
2, 48121, Note_on_c, 0, 74, 36
2, 48179, Note_on_c, 0, 74, 0
2, 48241, Note_on_c, 0, 74, 36
2, 48299, Note_on_c, 0, 74, 0
2, 48481, Note_on_c, 0, 67, 36
2, 48599, Note_on_c, 0, 67, 0
2, 48600, Note_on_c, 0, 72, 36
2, 48719, Note_on_c, 0, 72, 0
2, 48841, Note_on_c, 0, 66, 36
2, 48959, Note_on_c, 0, 66, 0
2, 48960, Note_on_c, 0, 70, 36
2, 49079, Note_on_c, 0, 70, 0
2, 49201, Note_on_c, 0, 61, 36
2, 49319, Note_on_c, 0, 61, 0
2, 49320, Note_on_c, 0, 62, 36
2, 49439, Note_on_c, 0, 62, 0
2, 49561, Note_on_c, 0, 67, 81
2, 49619, Note_on_c, 0, 67, 0
2, 49620, Note_on_c, 0, 79, 81
2, 49679, Note_on_c, 0, 79, 0
2, 49680, Note_on_c, 0, 69, 81
2, 49739, Note_on_c, 0, 69, 0
2, 49740, Note_on_c, 0, 79, 81
2, 49799, Note_on_c, 0, 79, 0
2, 49800, Note_on_c, 0, 78, 81
2, 49859, Note_on_c, 0, 78, 0
2, 49860, Note_on_c, 0, 69, 81
2, 49919, Note_on_c, 0, 69, 0
2, 49920, Note_on_c, 0, 67, 81
2, 49979, Note_on_c, 0, 67, 0
2, 49980, Note_on_c, 0, 79, 81
2, 50039, Note_on_c, 0, 79, 0
2, 50040, Note_on_c, 0, 69, 81
2, 50099, Note_on_c, 0, 69, 0
2, 50100, Note_on_c, 0, 79, 81
2, 50159, Note_on_c, 0, 79, 0
2, 50160, Note_on_c, 0, 78, 81
2, 50219, Note_on_c, 0, 78, 0
2, 50220, Note_on_c, 0, 69, 81
2, 50279, Note_on_c, 0, 69, 0
2, 50280, Note_on_c, 0, 67, 81
2, 50339, Note_on_c, 0, 67, 0
2, 50340, Note_on_c, 0, 79, 81
2, 50399, Note_on_c, 0, 79, 0
2, 50400, Note_on_c, 0, 75, 81
2, 50459, Note_on_c, 0, 75, 0
2, 50460, Note_on_c, 0, 87, 81
2, 50519, Note_on_c, 0, 87, 0
2, 50520, Note_on_c, 0, 74, 81
2, 50579, Note_on_c, 0, 74, 0
2, 50580, Note_on_c, 0, 86, 81
2, 50639, Note_on_c, 0, 86, 0
2, 50640, Note_on_c, 0, 72, 81
2, 50699, Note_on_c, 0, 72, 0
2, 50700, Note_on_c, 0, 84, 81
2, 50819, Note_on_c, 0, 84, 0
2, 50820, Note_on_c, 0, 82, 81
2, 50879, Note_on_c, 0, 82, 0
2, 50880, Note_on_c, 0, 81, 81
2, 50939, Note_on_c, 0, 81, 0
2, 50940, Note_on_c, 0, 79, 81
2, 50999, Note_on_c, 0, 79, 0
2, 51000, Note_on_c, 0, 78, 81
2, 51059, Note_on_c, 0, 78, 0
2, 51060, Note_on_c, 0, 79, 81
2, 51119, Note_on_c, 0, 79, 0
2, 51120, Note_on_c, 0, 77, 81
2, 51179, Note_on_c, 0, 77, 0
2, 51180, Note_on_c, 0, 75, 81
2, 51239, Note_on_c, 0, 75, 0
2, 51240, Note_on_c, 0, 74, 63
2, 51299, Note_on_c, 0, 74, 0
2, 51300, Note_on_c, 0, 72, 63
2, 51359, Note_on_c, 0, 72, 0
2, 51360, Note_on_c, 0, 70, 63
2, 51419, Note_on_c, 0, 70, 0
2, 51420, Note_on_c, 0, 69, 47
2, 51479, Note_on_c, 0, 69, 0
2, 51480, Note_on_c, 0, 67, 47
2, 51659, Note_on_c, 0, 67, 0
2, 51660, Note_on_c, 0, 69, 40
2, 51719, Note_on_c, 0, 69, 0
2, 51720, Note_on_c, 0, 66, 38
2, 51839, Note_on_c, 0, 66, 0
2, 52081, Note_on_c, 0, 67, 36
2, 52139, Note_on_c, 0, 67, 0
2, 52201, Note_on_c, 0, 67, 36
2, 52259, Note_on_c, 0, 67, 0
2, 52441, Note_on_c, 0, 67, 63
2, 52559, Note_on_c, 0, 67, 0
2, 52560, Note_on_c, 0, 67, 63
2, 52799, Note_on_c, 0, 67, 0
2, 52800, Note_on_c, 0, 71, 63
2, 52859, Note_on_c, 0, 71, 0
2, 52860, Note_on_c, 0, 69, 63
2, 52919, Note_on_c, 0, 69, 0
2, 52920, Note_on_c, 0, 62, 63
2, 52979, Note_on_c, 0, 62, 0
2, 53041, Note_on_c, 0, 66, 63
2, 53099, Note_on_c, 0, 66, 0
2, 53100, Note_on_c, 0, 64, 63
2, 53159, Note_on_c, 0, 64, 0
2, 53160, Note_on_c, 0, 67, 63
2, 53219, Note_on_c, 0, 67, 0
2, 53220, Note_on_c, 0, 66, 63
2, 53279, Note_on_c, 0, 66, 0
2, 53280, Note_on_c, 0, 69, 63
2, 53339, Note_on_c, 0, 69, 0
2, 53340, Note_on_c, 0, 67, 63
2, 53399, Note_on_c, 0, 67, 0
2, 53400, Note_on_c, 0, 72, 63
2, 53459, Note_on_c, 0, 72, 0
2, 53460, Note_on_c, 0, 71, 63
2, 53519, Note_on_c, 0, 71, 0
2, 53520, Note_on_c, 0, 74, 63
2, 53579, Note_on_c, 0, 74, 0
2, 53580, Note_on_c, 0, 71, 63
2, 53639, Note_on_c, 0, 71, 0
2, 53640, Note_on_c, 0, 67, 63
2, 53879, Note_on_c, 0, 67, 0
2, 53880, Note_on_c, 0, 69, 63
2, 53999, Note_on_c, 0, 69, 0
2, 54000, Note_on_c, 0, 70, 81
2, 54059, Note_on_c, 0, 70, 0
2, 54060, Note_on_c, 0, 71, 81
2, 54119, Note_on_c, 0, 71, 0
2, 54120, Note_on_c, 0, 72, 81
2, 54179, Note_on_c, 0, 72, 0
2, 54180, Note_on_c, 0, 73, 81
2, 54239, Note_on_c, 0, 73, 0
2, 54240, Note_on_c, 0, 74, 81
2, 54359, Note_on_c, 0, 74, 0
2, 54360, Note_on_c, 0, 74, 81
2, 54479, Note_on_c, 0, 74, 0
2, 54480, Note_on_c, 0, 72, 81
2, 54599, Note_on_c, 0, 72, 0
2, 54600, Note_on_c, 0, 71, 81
2, 54719, Note_on_c, 0, 71, 0
2, 54720, Note_on_c, 0, 71, 63
2, 54839, Note_on_c, 0, 71, 0
2, 54840, Note_on_c, 0, 69, 63
2, 54959, Note_on_c, 0, 69, 0
2, 54960, Note_on_c, 0, 69, 63
2, 55019, Note_on_c, 0, 69, 0
2, 55081, Note_on_c, 0, 69, 47
2, 55319, Note_on_c, 0, 69, 0
2, 55320, Note_on_c, 0, 71, 63
2, 55439, Note_on_c, 0, 71, 0
2, 55440, Note_on_c, 0, 72, 63
2, 55469, Note_on_c, 0, 72, 0
2, 55470, Note_on_c, 0, 69, 63
2, 55499, Note_on_c, 0, 69, 0
2, 55500, Note_on_c, 0, 71, 63
2, 55529, Note_on_c, 0, 71, 0
2, 55530, Note_on_c, 0, 72, 63
2, 55559, Note_on_c, 0, 72, 0
2, 55560, Note_on_c, 0, 74, 63
2, 55589, Note_on_c, 0, 74, 0
2, 55590, Note_on_c, 0, 76, 81
2, 55619, Note_on_c, 0, 76, 0
2, 55620, Note_on_c, 0, 78, 81
2, 55649, Note_on_c, 0, 78, 0
2, 55650, Note_on_c, 0, 80, 81
2, 55679, Note_on_c, 0, 80, 0
2, 55680, Note_on_c, 0, 81, 81
2, 55709, Note_on_c, 0, 81, 0
2, 55710, Note_on_c, 0, 83, 81
2, 55739, Note_on_c, 0, 83, 0
2, 55740, Note_on_c, 0, 84, 81
2, 55769, Note_on_c, 0, 84, 0
2, 55770, Note_on_c, 0, 86, 81
2, 55799, Note_on_c, 0, 86, 0
2, 55800, Note_on_c, 0, 88, 86
2, 55919, Note_on_c, 0, 88, 0
2, 55920, Note_on_c, 0, 86, 86
2, 56039, Note_on_c, 0, 86, 0
2, 56040, Note_on_c, 0, 86, 86
2, 56059, Note_on_c, 0, 86, 0
2, 56060, Note_on_c, 0, 84, 86
2, 56079, Note_on_c, 0, 84, 0
2, 56080, Note_on_c, 0, 83, 86
2, 56099, Note_on_c, 0, 83, 0
2, 56100, Note_on_c, 0, 84, 86
2, 56279, Note_on_c, 0, 84, 0
2, 56280, Note_on_c, 0, 83, 86
2, 56399, Note_on_c, 0, 83, 0
2, 56400, Note_on_c, 0, 86, 86
2, 56519, Note_on_c, 0, 86, 0
2, 56520, Note_on_c, 0, 88, 86
2, 56549, Note_on_c, 0, 88, 0
2, 56550, Note_on_c, 0, 86, 86
2, 56579, Note_on_c, 0, 86, 0
2, 56580, Note_on_c, 0, 84, 86
2, 56639, Note_on_c, 0, 84, 0
2, 56640, Note_on_c, 0, 86, 86
2, 56669, Note_on_c, 0, 86, 0
2, 56670, Note_on_c, 0, 84, 86
2, 56699, Note_on_c, 0, 84, 0
2, 56700, Note_on_c, 0, 83, 86
2, 56759, Note_on_c, 0, 83, 0
2, 56760, Note_on_c, 0, 84, 86
2, 56789, Note_on_c, 0, 84, 0
2, 56790, Note_on_c, 0, 83, 86
2, 56819, Note_on_c, 0, 83, 0
2, 56820, Note_on_c, 0, 81, 86
2, 56879, Note_on_c, 0, 81, 0
2, 56880, Note_on_c, 0, 83, 86
2, 56909, Note_on_c, 0, 83, 0
2, 56910, Note_on_c, 0, 81, 86
2, 56939, Note_on_c, 0, 81, 0
2, 56940, Note_on_c, 0, 79, 86
2, 56999, Note_on_c, 0, 79, 0
2, 57000, Note_on_c, 0, 81, 86
2, 57029, Note_on_c, 0, 81, 0
2, 57030, Note_on_c, 0, 79, 86
2, 57059, Note_on_c, 0, 79, 0
2, 57060, Note_on_c, 0, 78, 86
2, 57179, Note_on_c, 0, 78, 0
2, 57180, Note_on_c, 0, 81, 86
2, 57299, Note_on_c, 0, 81, 0
2, 57300, Note_on_c, 0, 79, 86
2, 57419, Note_on_c, 0, 79, 0
2, 57420, Note_on_c, 0, 76, 86
2, 57539, Note_on_c, 0, 76, 0
2, 57540, Note_on_c, 0, 73, 86
2, 57599, Note_on_c, 0, 73, 0
2, 57600, Note_on_c, 0, 73, 82
2, 57659, Note_on_c, 0, 73, 0
2, 57660, Note_on_c, 0, 74, 78
2, 57719, Note_on_c, 0, 74, 0
2, 57720, Note_on_c, 0, 76, 74
2, 57779, Note_on_c, 0, 76, 0
2, 57780, Note_on_c, 0, 74, 70
2, 57839, Note_on_c, 0, 74, 0
2, 57840, Note_on_c, 0, 76, 66
2, 57899, Note_on_c, 0, 76, 0
2, 57900, Note_on_c, 0, 74, 60
2, 57959, Note_on_c, 0, 74, 0
2, 57960, Note_on_c, 0, 74, 56
2, 58079, Note_on_c, 0, 74, 0
2, 58201, Note_on_c, 0, 79, 36
2, 58319, Note_on_c, 0, 79, 0
2, 58320, Note_on_c, 0, 78, 36
2, 58379, Note_on_c, 0, 78, 0
2, 58380, Note_on_c, 0, 79, 36
2, 58439, Note_on_c, 0, 79, 0
2, 58440, Note_on_c, 0, 81, 36
2, 58499, Note_on_c, 0, 81, 0
2, 58500, Note_on_c, 0, 79, 36
2, 58559, Note_on_c, 0, 79, 0
2, 58560, Note_on_c, 0, 79, 36
2, 58619, Note_on_c, 0, 79, 0
2, 58620, Note_on_c, 0, 81, 36
2, 58679, Note_on_c, 0, 81, 0
2, 58680, Note_on_c, 0, 81, 36
2, 58739, Note_on_c, 0, 81, 0
2, 58740, Note_on_c, 0, 79, 36
2, 58799, Note_on_c, 0, 79, 0
2, 58800, Note_on_c, 0, 79, 36
2, 58859, Note_on_c, 0, 79, 0
2, 58860, Note_on_c, 0, 78, 36
2, 58919, Note_on_c, 0, 78, 0
2, 58920, Note_on_c, 0, 78, 36
2, 58979, Note_on_c, 0, 78, 0
2, 58980, Note_on_c, 0, 76, 36
2, 59039, Note_on_c, 0, 76, 0
2, 59040, Note_on_c, 0, 76, 36
2, 59099, Note_on_c, 0, 76, 0
2, 59100, Note_on_c, 0, 74, 47
2, 59159, Note_on_c, 0, 74, 0
2, 59160, Note_on_c, 0, 74, 47
2, 59189, Note_on_c, 0, 74, 0
2, 59221, Note_on_c, 0, 74, 47
2, 59249, Note_on_c, 0, 74, 0
2, 59281, Note_on_c, 0, 74, 47
2, 59309, Note_on_c, 0, 74, 0
2, 59341, Note_on_c, 0, 74, 47
2, 59369, Note_on_c, 0, 74, 0
2, 59401, Note_on_c, 0, 76, 63
2, 59459, Note_on_c, 0, 76, 0
2, 59460, Note_on_c, 0, 75, 63
2, 59519, Note_on_c, 0, 75, 0
2, 59520, Note_on_c, 0, 75, 63
2, 59549, Note_on_c, 0, 75, 0
2, 59581, Note_on_c, 0, 75, 63
2, 59609, Note_on_c, 0, 75, 0
2, 59641, Note_on_c, 0, 75, 63
2, 59669, Note_on_c, 0, 75, 0
2, 59701, Note_on_c, 0, 75, 63
2, 59729, Note_on_c, 0, 75, 0
2, 59761, Note_on_c, 0, 75, 81
2, 59819, Note_on_c, 0, 75, 0
2, 59820, Note_on_c, 0, 76, 81
2, 59879, Note_on_c, 0, 76, 0
2, 59880, Note_on_c, 0, 78, 81
2, 59939, Note_on_c, 0, 78, 0
2, 59940, Note_on_c, 0, 76, 81
2, 59999, Note_on_c, 0, 76, 0
2, 60000, Note_on_c, 0, 79, 81
2, 60059, Note_on_c, 0, 79, 0
2, 60060, Note_on_c, 0, 78, 81
2, 60119, Note_on_c, 0, 78, 0
2, 60120, Note_on_c, 0, 81, 81
2, 60179, Note_on_c, 0, 81, 0
2, 60180, Note_on_c, 0, 79, 81
2, 60239, Note_on_c, 0, 79, 0
2, 60240, Note_on_c, 0, 78, 81
2, 60299, Note_on_c, 0, 78, 0
2, 60300, Note_on_c, 0, 76, 81
2, 60359, Note_on_c, 0, 76, 0
2, 60360, Note_on_c, 0, 74, 81
2, 60419, Note_on_c, 0, 74, 0
2, 60420, Note_on_c, 0, 73, 81
2, 60479, Note_on_c, 0, 73, 0
2, 60480, Note_on_c, 0, 74, 105
2, 60539, Note_on_c, 0, 74, 0
2, 60540, Note_on_c, 0, 86, 105
2, 60599, Note_on_c, 0, 86, 0
2, 60600, Note_on_c, 0, 74, 105
2, 60629, Note_on_c, 0, 74, 0
2, 60661, Note_on_c, 0, 74, 105
2, 60689, Note_on_c, 0, 74, 0
2, 60721, Note_on_c, 0, 74, 105
2, 60749, Note_on_c, 0, 74, 0
2, 60781, Note_on_c, 0, 74, 105
2, 60809, Note_on_c, 0, 74, 0
2, 60841, Note_on_c, 0, 74, 105
2, 60899, Note_on_c, 0, 74, 0
2, 60900, Note_on_c, 0, 86, 105
2, 60959, Note_on_c, 0, 86, 0
2, 60960, Note_on_c, 0, 74, 105
2, 60989, Note_on_c, 0, 74, 0
2, 61021, Note_on_c, 0, 74, 105
2, 61049, Note_on_c, 0, 74, 0
2, 61081, Note_on_c, 0, 74, 105
2, 61109, Note_on_c, 0, 74, 0
2, 61141, Note_on_c, 0, 74, 105
2, 61169, Note_on_c, 0, 74, 0
2, 61201, Note_on_c, 0, 74, 105
2, 61229, Note_on_c, 0, 74, 0
2, 61230, Note_on_c, 0, 78, 105
2, 61259, Note_on_c, 0, 78, 0
2, 61260, Note_on_c, 0, 81, 105
2, 61289, Note_on_c, 0, 81, 0
2, 61290, Note_on_c, 0, 86, 105
2, 61319, Note_on_c, 0, 86, 0
2, 61320, Note_on_c, 0, 74, 105
2, 61349, Note_on_c, 0, 74, 0
2, 61381, Note_on_c, 0, 74, 105
2, 61409, Note_on_c, 0, 74, 0
2, 61441, Note_on_c, 0, 74, 105
2, 61469, Note_on_c, 0, 74, 0
2, 61501, Note_on_c, 0, 74, 105
2, 61529, Note_on_c, 0, 74, 0
2, 61561, Note_on_c, 0, 74, 105
2, 61589, Note_on_c, 0, 74, 0
2, 61590, Note_on_c, 0, 78, 105
2, 61619, Note_on_c, 0, 78, 0
2, 61620, Note_on_c, 0, 81, 105
2, 61649, Note_on_c, 0, 81, 0
2, 61650, Note_on_c, 0, 86, 105
2, 61679, Note_on_c, 0, 86, 0
2, 61680, Note_on_c, 0, 74, 81
2, 61709, Note_on_c, 0, 74, 0
2, 61741, Note_on_c, 0, 74, 81
2, 61769, Note_on_c, 0, 74, 0
2, 61801, Note_on_c, 0, 74, 81
2, 61829, Note_on_c, 0, 74, 0
2, 61861, Note_on_c, 0, 74, 81
2, 61889, Note_on_c, 0, 74, 0
2, 61921, Note_on_c, 0, 74, 63
2, 61979, Note_on_c, 0, 74, 0
2, 61980, Note_on_c, 0, 86, 63
2, 62039, Note_on_c, 0, 86, 0
2, 62040, Note_on_c, 0, 86, 36
2, 62069, Note_on_c, 0, 86, 0
2, 62101, Note_on_c, 0, 86, 36
2, 62129, Note_on_c, 0, 86, 0
2, 62161, Note_on_c, 0, 86, 36
2, 62189, Note_on_c, 0, 86, 0
2, 62221, Note_on_c, 0, 86, 36
2, 62249, Note_on_c, 0, 86, 0
2, 62281, Note_on_c, 0, 85, 47
2, 62339, Note_on_c, 0, 85, 0
2, 62340, Note_on_c, 0, 86, 47
2, 62399, Note_on_c, 0, 86, 0
2, 62400, Note_on_c, 0, 86, 47
2, 62429, Note_on_c, 0, 86, 0
2, 62461, Note_on_c, 0, 86, 47
2, 62489, Note_on_c, 0, 86, 0
2, 62521, Note_on_c, 0, 86, 47
2, 62549, Note_on_c, 0, 86, 0
2, 62581, Note_on_c, 0, 86, 47
2, 62609, Note_on_c, 0, 86, 0
2, 62641, Note_on_c, 0, 87, 47
2, 62699, Note_on_c, 0, 87, 0
2, 62700, Note_on_c, 0, 86, 47
2, 62759, Note_on_c, 0, 86, 0
2, 62760, Note_on_c, 0, 86, 36
2, 62789, Note_on_c, 0, 86, 0
2, 62821, Note_on_c, 0, 86, 36
2, 62849, Note_on_c, 0, 86, 0
2, 62881, Note_on_c, 0, 86, 36
2, 62909, Note_on_c, 0, 86, 0
2, 62941, Note_on_c, 0, 86, 36
2, 62969, Note_on_c, 0, 86, 0
2, 63001, Note_on_c, 0, 85, 36
2, 63059, Note_on_c, 0, 85, 0
2, 63060, Note_on_c, 0, 86, 36
2, 63119, Note_on_c, 0, 86, 0
2, 63120, Note_on_c, 0, 86, 36
2, 63149, Note_on_c, 0, 86, 0
2, 63181, Note_on_c, 0, 86, 36
2, 63209, Note_on_c, 0, 86, 0
2, 63241, Note_on_c, 0, 86, 36
2, 63269, Note_on_c, 0, 86, 0
2, 63301, Note_on_c, 0, 86, 36
2, 63329, Note_on_c, 0, 86, 0
2, 63361, Note_on_c, 0, 86, 31
2, 63389, Note_on_c, 0, 86, 0
2, 63421, Note_on_c, 0, 86, 31
2, 63449, Note_on_c, 0, 86, 0
2, 63481, Note_on_c, 0, 86, 31
2, 63509, Note_on_c, 0, 86, 0
2, 63541, Note_on_c, 0, 86, 31
2, 63569, Note_on_c, 0, 86, 0
2, 63601, Note_on_c, 0, 86, 31
2, 63629, Note_on_c, 0, 86, 0
2, 63661, Note_on_c, 0, 86, 31
2, 63689, Note_on_c, 0, 86, 0
2, 63721, Note_on_c, 0, 86, 30
2, 63779, Note_on_c, 0, 86, 0
2, 63841, Note_on_c, 0, 86, 30
2, 63899, Note_on_c, 0, 86, 0
2, 63961, Note_on_c, 0, 86, 30
2, 64019, Note_on_c, 0, 86, 0
2, 64080, Note_on_c, 0, 86, 30
2, 64138, Note_on_c, 0, 86, 0
2, 64201, Note_on_c, 0, 86, 30
2, 64259, Note_on_c, 0, 86, 0
2, 64321, Note_on_c, 0, 86, 30
2, 64379, Note_on_c, 0, 86, 0
2, 64441, Note_on_c, 0, 86, 30
2, 64499, Note_on_c, 0, 86, 0
2, 64561, Note_on_c, 0, 86, 30
2, 64619, Note_on_c, 0, 86, 0
2, 64681, Note_on_c, 0, 86, 30
2, 64739, Note_on_c, 0, 86, 0
2, 64800, Note_on_c, 0, 86, 30
2, 64858, Note_on_c, 0, 86, 0
2, 64921, Note_on_c, 0, 86, 30
2, 64979, Note_on_c, 0, 86, 0
2, 65041, Note_on_c, 0, 86, 30
2, 65099, Note_on_c, 0, 86, 0
2, 65161, Note_on_c, 0, 86, 30
2, 65519, Note_on_c, 0, 86, 0
2, 65760, Note_on_c, 0, 74, 30
2, 65818, Note_on_c, 0, 74, 0
2, 65881, Note_on_c, 0, 74, 30
2, 66119, Note_on_c, 0, 74, 0
2, 66120, Note_on_c, 0, 67, 63
2, 66239, Note_on_c, 0, 67, 0
2, 66240, Note_on_c, 0, 67, 63
2, 66479, Note_on_c, 0, 67, 0
2, 66480, Note_on_c, 0, 71, 63
2, 66539, Note_on_c, 0, 71, 0
2, 66540, Note_on_c, 0, 69, 63
2, 66599, Note_on_c, 0, 69, 0
2, 66600, Note_on_c, 0, 62, 63
2, 66719, Note_on_c, 0, 62, 0
2, 66720, Note_on_c, 0, 64, 63
2, 66839, Note_on_c, 0, 64, 0
2, 66840, Note_on_c, 0, 66, 63
2, 66879, Note_on_c, 0, 66, 0
2, 66880, Note_on_c, 0, 64, 63
2, 66919, Note_on_c, 0, 64, 0
2, 66920, Note_on_c, 0, 66, 63
2, 66959, Note_on_c, 0, 66, 0
2, 66960, Note_on_c, 0, 67, 63
2, 67019, Note_on_c, 0, 67, 0
2, 67081, Note_on_c, 0, 67, 63
2, 67139, Note_on_c, 0, 67, 0
2, 67201, Note_on_c, 0, 67, 63
2, 67259, Note_on_c, 0, 67, 0
2, 67321, Note_on_c, 0, 67, 63
2, 67559, Note_on_c, 0, 67, 0
2, 67560, Note_on_c, 0, 69, 81
2, 67679, Note_on_c, 0, 69, 0
2, 67680, Note_on_c, 0, 71, 81
2, 67799, Note_on_c, 0, 71, 0
2, 67921, Note_on_c, 0, 74, 81
2, 68039, Note_on_c, 0, 74, 0
2, 68040, Note_on_c, 0, 72, 81
2, 68279, Note_on_c, 0, 72, 0
2, 68280, Note_on_c, 0, 71, 81
2, 68399, Note_on_c, 0, 71, 0
2, 68400, Note_on_c, 0, 62, 81
2, 68459, Note_on_c, 0, 62, 0
2, 68460, Note_on_c, 0, 64, 81
2, 68519, Note_on_c, 0, 64, 0
2, 68520, Note_on_c, 0, 66, 81
2, 68579, Note_on_c, 0, 66, 0
2, 68580, Note_on_c, 0, 67, 81
2, 68639, Note_on_c, 0, 67, 0
2, 68640, Note_on_c, 0, 69, 81
2, 68699, Note_on_c, 0, 69, 0
2, 68700, Note_on_c, 0, 71, 81
2, 68759, Note_on_c, 0, 71, 0
2, 68760, Note_on_c, 0, 73, 81
2, 68819, Note_on_c, 0, 73, 0
2, 68820, Note_on_c, 0, 74, 81
2, 68879, Note_on_c, 0, 74, 0
2, 68880, Note_on_c, 0, 76, 81
2, 68939, Note_on_c, 0, 76, 0
2, 68940, Note_on_c, 0, 78, 81
2, 68999, Note_on_c, 0, 78, 0
2, 69000, Note_on_c, 0, 79, 105
2, 69029, Note_on_c, 0, 79, 0
2, 69030, Note_on_c, 0, 81, 105
2, 69059, Note_on_c, 0, 81, 0
2, 69060, Note_on_c, 0, 83, 105
2, 69089, Note_on_c, 0, 83, 0
2, 69090, Note_on_c, 0, 85, 105
2, 69119, Note_on_c, 0, 85, 0
2, 69120, Note_on_c, 0, 86, 105
2, 69599, Note_on_c, 0, 86, 0
2, 69600, Note_on_c, 0, 71, 81
2, 69839, Note_on_c, 0, 71, 0
2, 69840, Note_on_c, 0, 72, 63
2, 69959, Note_on_c, 0, 72, 0
2, 69960, Note_on_c, 0, 74, 63
2, 70079, Note_on_c, 0, 74, 0
2, 70080, Note_on_c, 0, 76, 47
2, 70139, Note_on_c, 0, 76, 0
2, 70201, Note_on_c, 0, 76, 47
2, 70319, Note_on_c, 0, 76, 0
2, 70441, Note_on_c, 0, 69, 81
2, 70559, Note_on_c, 0, 69, 0
2, 70560, Note_on_c, 0, 71, 63
2, 70679, Note_on_c, 0, 71, 0
2, 70680, Note_on_c, 0, 72, 63
2, 70799, Note_on_c, 0, 72, 0
2, 70800, Note_on_c, 0, 74, 47
2, 70859, Note_on_c, 0, 74, 0
2, 70921, Note_on_c, 0, 74, 47
2, 71039, Note_on_c, 0, 74, 0
2, 71161, Note_on_c, 0, 67, 36
2, 71279, Note_on_c, 0, 67, 0
2, 71280, Note_on_c, 0, 69, 36
2, 71339, Note_on_c, 0, 69, 0
2, 71401, Note_on_c, 0, 71, 36
2, 71459, Note_on_c, 0, 71, 0
2, 71521, Note_on_c, 0, 72, 36
2, 71579, Note_on_c, 0, 72, 0
2, 71641, Note_on_c, 0, 62, 32
2, 71699, Note_on_c, 0, 62, 0
2, 71761, Note_on_c, 0, 64, 30
2, 71819, Note_on_c, 0, 64, 0
2, 71881, Note_on_c, 0, 66, 30
2, 71939, Note_on_c, 0, 66, 0
2, 72361, Note_on_c, 0, 67, 81
2, 72479, Note_on_c, 0, 67, 0
2, 74161, Note_on_c, 0, 67, 81
2, 74340, Note_on_c, 0, 67, 0
2, 74341, Note_on_c, 0, 71, 81
2, 74370, Note_on_c, 0, 71, 0
2, 74371, Note_on_c, 0, 69, 81
2, 74400, Note_on_c, 0, 69, 0
2, 74401, Note_on_c, 0, 67, 81
2, 74520, Note_on_c, 0, 67, 0
2, 74762, Note_on_c, 0, 62, 81
2, 74820, Note_on_c, 0, 62, 0
2, 74882, Note_on_c, 0, 67, 81
2, 74940, Note_on_c, 0, 67, 0
2, 75002, Note_on_c, 0, 71, 81
2, 75060, Note_on_c, 0, 71, 0
2, 75122, Note_on_c, 0, 71, 81
2, 75180, Note_on_c, 0, 71, 0
2, 75181, Note_on_c, 0, 69, 81
2, 75240, Note_on_c, 0, 69, 0
2, 75241, Note_on_c, 0, 67, 81
2, 75300, Note_on_c, 0, 67, 0
2, 75301, Note_on_c, 0, 69, 63
2, 75360, Note_on_c, 0, 69, 0
2, 75361, Note_on_c, 0, 67, 63
2, 75480, Note_on_c, 0, 67, 0
2, 75481, Note_on_c, 0, 74, 47
2, 75540, Note_on_c, 0, 74, 0
2, 75602, Note_on_c, 0, 74, 47
2, 75660, Note_on_c, 0, 74, 0
2, 75722, Note_on_c, 0, 74, 47
2, 75780, Note_on_c, 0, 74, 0
2, 75842, Note_on_c, 0, 74, 47
2, 75900, Note_on_c, 0, 74, 0
2, 75962, Note_on_c, 0, 74, 47
2, 76020, Note_on_c, 0, 74, 0
2, 76082, Note_on_c, 0, 74, 47
2, 76260, Note_on_c, 0, 74, 0
2, 76261, Note_on_c, 0, 76, 47
2, 76290, Note_on_c, 0, 76, 0
2, 76291, Note_on_c, 0, 74, 47
2, 76320, Note_on_c, 0, 74, 0
2, 76321, Note_on_c, 0, 72, 47
2, 76440, Note_on_c, 0, 72, 0
2, 76441, Note_on_c, 0, 71, 47
2, 76500, Note_on_c, 0, 71, 0
2, 76562, Note_on_c, 0, 69, 47
2, 76620, Note_on_c, 0, 69, 0
2, 76682, Note_on_c, 0, 81, 47
2, 76920, Note_on_c, 0, 81, 0
2, 76921, Note_on_c, 0, 79, 47
2, 77040, Note_on_c, 0, 79, 0
2, 77041, Note_on_c, 0, 79, 47
2, 77100, Note_on_c, 0, 79, 0
2, 77101, Note_on_c, 0, 78, 47
2, 77160, Note_on_c, 0, 78, 0
2, 77161, Note_on_c, 0, 76, 47
2, 77220, Note_on_c, 0, 76, 0
2, 77221, Note_on_c, 0, 74, 47
2, 77280, Note_on_c, 0, 74, 0
2, 77281, Note_on_c, 0, 74, 47
2, 77340, Note_on_c, 0, 74, 0
2, 77402, Note_on_c, 0, 74, 47
2, 77460, Note_on_c, 0, 74, 0
2, 77522, Note_on_c, 0, 74, 47
2, 77580, Note_on_c, 0, 74, 0
2, 77581, Note_on_c, 0, 76, 47
2, 77640, Note_on_c, 0, 76, 0
2, 77641, Note_on_c, 0, 72, 47
2, 77700, Note_on_c, 0, 72, 0
2, 77701, Note_on_c, 0, 74, 47
2, 77760, Note_on_c, 0, 74, 0
2, 77761, Note_on_c, 0, 71, 47
2, 77820, Note_on_c, 0, 71, 0
2, 77821, Note_on_c, 0, 72, 47
2, 77880, Note_on_c, 0, 72, 0
2, 77881, Note_on_c, 0, 69, 47
2, 77940, Note_on_c, 0, 69, 0
2, 77941, Note_on_c, 0, 71, 47
2, 78000, Note_on_c, 0, 71, 0
2, 78001, Note_on_c, 0, 67, 81
2, 78180, Note_on_c, 0, 67, 0
2, 78181, Note_on_c, 0, 71, 81
2, 78210, Note_on_c, 0, 71, 0
2, 78211, Note_on_c, 0, 69, 81
2, 78240, Note_on_c, 0, 69, 0
2, 78241, Note_on_c, 0, 67, 81
2, 78360, Note_on_c, 0, 67, 0
2, 78602, Note_on_c, 0, 62, 81
2, 78660, Note_on_c, 0, 62, 0
2, 78722, Note_on_c, 0, 67, 81
2, 78780, Note_on_c, 0, 67, 0
2, 78842, Note_on_c, 0, 71, 81
2, 78900, Note_on_c, 0, 71, 0
2, 78962, Note_on_c, 0, 71, 81
2, 79020, Note_on_c, 0, 71, 0
2, 79021, Note_on_c, 0, 69, 81
2, 79080, Note_on_c, 0, 69, 0
2, 79081, Note_on_c, 0, 67, 81
2, 79140, Note_on_c, 0, 67, 0
2, 79141, Note_on_c, 0, 69, 63
2, 79200, Note_on_c, 0, 69, 0
2, 79201, Note_on_c, 0, 67, 63
2, 79320, Note_on_c, 0, 67, 0
2, 79321, Note_on_c, 0, 76, 47
2, 79380, Note_on_c, 0, 76, 0
2, 79442, Note_on_c, 0, 76, 47
2, 79500, Note_on_c, 0, 76, 0
2, 79562, Note_on_c, 0, 76, 47
2, 79620, Note_on_c, 0, 76, 0
2, 79682, Note_on_c, 0, 76, 63
2, 79740, Note_on_c, 0, 76, 0
2, 79802, Note_on_c, 0, 76, 63
2, 79860, Note_on_c, 0, 76, 0
2, 79922, Note_on_c, 0, 76, 63
2, 80100, Note_on_c, 0, 76, 0
2, 80101, Note_on_c, 0, 79, 63
2, 80130, Note_on_c, 0, 79, 0
2, 80131, Note_on_c, 0, 81, 63
2, 80160, Note_on_c, 0, 81, 0
2, 80161, Note_on_c, 0, 83, 81
2, 80340, Note_on_c, 0, 83, 0
2, 80341, Note_on_c, 0, 79, 81
2, 80370, Note_on_c, 0, 79, 0
2, 80371, Note_on_c, 0, 76, 81
2, 80400, Note_on_c, 0, 76, 0
2, 80401, Note_on_c, 0, 74, 81
2, 80640, Note_on_c, 0, 74, 0
2, 80641, Note_on_c, 0, 73, 81
2, 80688, Note_on_c, 0, 73, 0
2, 80689, Note_on_c, 0, 74, 81
2, 80736, Note_on_c, 0, 74, 0
2, 80737, Note_on_c, 0, 73, 81
2, 80784, Note_on_c, 0, 73, 0
2, 80785, Note_on_c, 0, 71, 81
2, 80832, Note_on_c, 0, 71, 0
2, 80833, Note_on_c, 0, 73, 81
2, 80880, Note_on_c, 0, 73, 0
2, 80881, Note_on_c, 0, 74, 63
2, 80940, Note_on_c, 0, 74, 0
2, 80941, Note_on_c, 0, 76, 63
2, 81000, Note_on_c, 0, 76, 0
2, 81001, Note_on_c, 0, 78, 63
2, 81060, Note_on_c, 0, 78, 0
2, 81061, Note_on_c, 0, 79, 63
2, 81120, Note_on_c, 0, 79, 0
2, 81121, Note_on_c, 0, 81, 63
2, 81180, Note_on_c, 0, 81, 0
2, 81181, Note_on_c, 0, 78, 63
2, 81240, Note_on_c, 0, 78, 0
2, 81241, Note_on_c, 0, 76, 63
2, 81300, Note_on_c, 0, 76, 0
2, 81301, Note_on_c, 0, 74, 63
2, 81360, Note_on_c, 0, 74, 0
2, 81361, Note_on_c, 0, 73, 63
2, 81420, Note_on_c, 0, 73, 0
2, 81421, Note_on_c, 0, 74, 63
2, 81480, Note_on_c, 0, 74, 0
2, 81481, Note_on_c, 0, 76, 63
2, 81540, Note_on_c, 0, 76, 0
2, 81541, Note_on_c, 0, 78, 63
2, 81600, Note_on_c, 0, 78, 0
2, 81601, Note_on_c, 0, 79, 63
2, 81660, Note_on_c, 0, 79, 0
2, 81661, Note_on_c, 0, 76, 63
2, 81720, Note_on_c, 0, 76, 0
2, 81721, Note_on_c, 0, 74, 63
2, 81780, Note_on_c, 0, 74, 0
2, 81781, Note_on_c, 0, 73, 63
2, 81840, Note_on_c, 0, 73, 0
2, 81841, Note_on_c, 0, 74, 63
2, 81900, Note_on_c, 0, 74, 0
2, 81901, Note_on_c, 0, 76, 63
2, 81960, Note_on_c, 0, 76, 0
2, 81961, Note_on_c, 0, 78, 63
2, 82020, Note_on_c, 0, 78, 0
2, 82021, Note_on_c, 0, 79, 63
2, 82080, Note_on_c, 0, 79, 0
2, 82081, Note_on_c, 0, 81, 63
2, 82140, Note_on_c, 0, 81, 0
2, 82141, Note_on_c, 0, 78, 63
2, 82200, Note_on_c, 0, 78, 0
2, 82201, Note_on_c, 0, 76, 63
2, 82260, Note_on_c, 0, 76, 0
2, 82261, Note_on_c, 0, 74, 63
2, 82320, Note_on_c, 0, 74, 0
2, 82321, Note_on_c, 0, 73, 63
2, 82380, Note_on_c, 0, 73, 0
2, 82381, Note_on_c, 0, 74, 63
2, 82440, Note_on_c, 0, 74, 0
2, 82441, Note_on_c, 0, 76, 63
2, 82500, Note_on_c, 0, 76, 0
2, 82501, Note_on_c, 0, 78, 63
2, 82560, Note_on_c, 0, 78, 0
2, 82561, Note_on_c, 0, 79, 81
2, 82620, Note_on_c, 0, 79, 0
2, 82621, Note_on_c, 0, 76, 81
2, 82680, Note_on_c, 0, 76, 0
2, 82681, Note_on_c, 0, 74, 81
2, 82740, Note_on_c, 0, 74, 0
2, 82741, Note_on_c, 0, 73, 81
2, 82800, Note_on_c, 0, 73, 0
2, 82801, Note_on_c, 0, 74, 81
2, 83040, Note_on_c, 0, 74, 0
2, 83041, Note_on_c, 0, 85, 81
2, 83070, Note_on_c, 0, 85, 0
2, 83071, Note_on_c, 0, 86, 81
2, 83280, Note_on_c, 0, 86, 0
2, 83762, Note_on_c, 0, 77, 81
2, 83940, Note_on_c, 0, 77, 0
2, 83941, Note_on_c, 0, 74, 81
2, 83970, Note_on_c, 0, 74, 0
2, 83971, Note_on_c, 0, 75, 81
2, 84000, Note_on_c, 0, 75, 0
2, 84001, Note_on_c, 0, 77, 81
2, 84120, Note_on_c, 0, 77, 0
2, 84362, Note_on_c, 0, 69, 81
2, 84420, Note_on_c, 0, 69, 0
2, 84482, Note_on_c, 0, 69, 81
2, 84540, Note_on_c, 0, 69, 0
2, 84602, Note_on_c, 0, 69, 81
2, 84660, Note_on_c, 0, 69, 0
2, 84722, Note_on_c, 0, 70, 81
2, 84900, Note_on_c, 0, 70, 0
2, 84901, Note_on_c, 0, 70, 81
2, 84930, Note_on_c, 0, 70, 0
2, 84931, Note_on_c, 0, 72, 81
2, 84960, Note_on_c, 0, 72, 0
2, 84961, Note_on_c, 0, 74, 81
2, 85080, Note_on_c, 0, 74, 0
2, 85322, Note_on_c, 0, 66, 81
2, 85380, Note_on_c, 0, 66, 0
2, 85442, Note_on_c, 0, 66, 81
2, 85500, Note_on_c, 0, 66, 0
2, 85562, Note_on_c, 0, 66, 81
2, 85620, Note_on_c, 0, 66, 0
2, 85682, Note_on_c, 0, 67, 81
2, 85860, Note_on_c, 0, 67, 0
2, 85861, Note_on_c, 0, 67, 81
2, 85890, Note_on_c, 0, 67, 0
2, 85891, Note_on_c, 0, 69, 81
2, 85920, Note_on_c, 0, 69, 0
2, 85921, Note_on_c, 0, 70, 81
2, 86040, Note_on_c, 0, 70, 0
2, 86282, Note_on_c, 0, 61, 81
2, 86340, Note_on_c, 0, 61, 0
2, 86402, Note_on_c, 0, 61, 81
2, 86460, Note_on_c, 0, 61, 0
2, 86522, Note_on_c, 0, 61, 81
2, 86580, Note_on_c, 0, 61, 0
2, 86642, Note_on_c, 0, 62, 81
2, 86820, Note_on_c, 0, 62, 0
2, 87602, Note_on_c, 0, 67, 63
2, 87780, Note_on_c, 0, 67, 0
2, 87781, Note_on_c, 0, 71, 63
2, 87810, Note_on_c, 0, 71, 0
2, 87811, Note_on_c, 0, 69, 63
2, 87840, Note_on_c, 0, 69, 0
2, 87841, Note_on_c, 0, 67, 63
2, 87960, Note_on_c, 0, 67, 0
2, 88202, Note_on_c, 0, 62, 63
2, 88260, Note_on_c, 0, 62, 0
2, 88322, Note_on_c, 0, 67, 63
2, 88380, Note_on_c, 0, 67, 0
2, 88442, Note_on_c, 0, 71, 63
2, 88500, Note_on_c, 0, 71, 0
2, 88562, Note_on_c, 0, 71, 63
2, 88620, Note_on_c, 0, 71, 0
2, 88621, Note_on_c, 0, 69, 63
2, 88680, Note_on_c, 0, 69, 0
2, 88681, Note_on_c, 0, 67, 47
2, 88740, Note_on_c, 0, 67, 0
2, 88741, Note_on_c, 0, 69, 47
2, 88800, Note_on_c, 0, 69, 0
2, 88801, Note_on_c, 0, 67, 47
2, 88920, Note_on_c, 0, 67, 0
2, 88921, Note_on_c, 0, 76, 31
2, 88980, Note_on_c, 0, 76, 0
2, 89042, Note_on_c, 0, 76, 31
2, 89100, Note_on_c, 0, 76, 0
2, 89162, Note_on_c, 0, 76, 31
2, 89220, Note_on_c, 0, 76, 0
2, 89282, Note_on_c, 0, 76, 31
2, 89340, Note_on_c, 0, 76, 0
2, 89402, Note_on_c, 0, 76, 31
2, 89460, Note_on_c, 0, 76, 0
2, 89522, Note_on_c, 0, 76, 31
2, 89700, Note_on_c, 0, 76, 0
2, 89701, Note_on_c, 0, 81, 31
2, 89730, Note_on_c, 0, 81, 0
2, 89731, Note_on_c, 0, 83, 31
2, 89760, Note_on_c, 0, 83, 0
2, 89761, Note_on_c, 0, 84, 31
2, 89820, Note_on_c, 0, 84, 0
2, 89882, Note_on_c, 0, 74, 31
2, 89940, Note_on_c, 0, 74, 0
2, 90002, Note_on_c, 0, 74, 31
2, 90060, Note_on_c, 0, 74, 0
2, 90122, Note_on_c, 0, 74, 31
2, 90180, Note_on_c, 0, 74, 0
2, 90242, Note_on_c, 0, 74, 31
2, 90300, Note_on_c, 0, 74, 0
2, 90362, Note_on_c, 0, 74, 19
2, 90420, Note_on_c, 0, 74, 0
2, 90482, Note_on_c, 0, 74, 19
2, 90660, Note_on_c, 0, 74, 0
2, 90661, Note_on_c, 0, 79, 19
2, 90690, Note_on_c, 0, 79, 0
2, 90691, Note_on_c, 0, 81, 19
2, 90720, Note_on_c, 0, 81, 0
2, 90721, Note_on_c, 0, 83, 19
2, 90780, Note_on_c, 0, 83, 0
2, 91862, Note_on_c, 0, 83, 31
2, 91890, Note_on_c, 0, 83, 0
2, 91891, Note_on_c, 0, 81, 31
2, 91920, Note_on_c, 0, 81, 0
2, 91921, Note_on_c, 0, 79, 31
2, 92040, Note_on_c, 0, 79, 0
2, 92102, Note_on_c, 0, 79, 31
2, 92130, Note_on_c, 0, 79, 0
2, 92131, Note_on_c, 0, 78, 31
2, 92160, Note_on_c, 0, 78, 0
2, 92161, Note_on_c, 0, 76, 31
2, 92280, Note_on_c, 0, 76, 0
2, 92342, Note_on_c, 0, 76, 31
2, 92370, Note_on_c, 0, 76, 0
2, 92371, Note_on_c, 0, 74, 31
2, 92400, Note_on_c, 0, 74, 0
2, 92401, Note_on_c, 0, 72, 31
2, 92640, Note_on_c, 0, 72, 0
2, 92822, Note_on_c, 0, 75, 31
2, 92850, Note_on_c, 0, 75, 0
2, 92851, Note_on_c, 0, 74, 31
2, 92880, Note_on_c, 0, 74, 0
2, 92881, Note_on_c, 0, 72, 31
2, 93000, Note_on_c, 0, 72, 0
2, 93001, Note_on_c, 0, 72, 31
2, 93060, Note_on_c, 0, 72, 0
2, 93122, Note_on_c, 0, 72, 31
2, 93180, Note_on_c, 0, 72, 0
2, 93242, Note_on_c, 0, 72, 31
2, 93300, Note_on_c, 0, 72, 0
2, 93362, Note_on_c, 0, 72, 47
2, 93540, Note_on_c, 0, 72, 0
2, 93541, Note_on_c, 0, 74, 31
2, 93570, Note_on_c, 0, 74, 0
2, 93571, Note_on_c, 0, 72, 31
2, 93600, Note_on_c, 0, 72, 0
2, 93601, Note_on_c, 0, 71, 31
2, 93720, Note_on_c, 0, 71, 0
2, 93721, Note_on_c, 0, 71, 31
2, 93780, Note_on_c, 0, 71, 0
2, 93842, Note_on_c, 0, 69, 31
2, 93960, Note_on_c, 0, 69, 0
2, 93961, Note_on_c, 0, 76, 31
2, 94080, Note_on_c, 0, 76, 0
2, 94081, Note_on_c, 0, 74, 31
2, 94200, Note_on_c, 0, 74, 0
2, 94201, Note_on_c, 0, 66, 31
2, 94260, Note_on_c, 0, 66, 0
2, 94322, Note_on_c, 0, 67, 81
2, 94380, Note_on_c, 0, 67, 0
2, 94381, Note_on_c, 0, 69, 81
2, 94440, Note_on_c, 0, 69, 0
2, 94441, Note_on_c, 0, 71, 81
2, 94500, Note_on_c, 0, 71, 0
2, 94501, Note_on_c, 0, 72, 81
2, 94560, Note_on_c, 0, 72, 0
2, 94561, Note_on_c, 0, 74, 81
2, 94620, Note_on_c, 0, 74, 0
2, 94621, Note_on_c, 0, 71, 81
2, 94680, Note_on_c, 0, 71, 0
2, 94681, Note_on_c, 0, 69, 81
2, 94740, Note_on_c, 0, 69, 0
2, 94741, Note_on_c, 0, 67, 81
2, 94800, Note_on_c, 0, 67, 0
2, 94801, Note_on_c, 0, 66, 81
2, 94860, Note_on_c, 0, 66, 0
2, 94861, Note_on_c, 0, 67, 81
2, 94920, Note_on_c, 0, 67, 0
2, 94921, Note_on_c, 0, 69, 81
2, 94980, Note_on_c, 0, 69, 0
2, 94981, Note_on_c, 0, 71, 81
2, 95040, Note_on_c, 0, 71, 0
2, 95041, Note_on_c, 0, 72, 81
2, 95100, Note_on_c, 0, 72, 0
2, 95101, Note_on_c, 0, 69, 81
2, 95160, Note_on_c, 0, 69, 0
2, 95161, Note_on_c, 0, 67, 81
2, 95220, Note_on_c, 0, 67, 0
2, 95221, Note_on_c, 0, 66, 81
2, 95280, Note_on_c, 0, 66, 0
2, 95281, Note_on_c, 0, 67, 63
2, 95340, Note_on_c, 0, 67, 0
2, 95341, Note_on_c, 0, 69, 63
2, 95400, Note_on_c, 0, 69, 0
2, 95401, Note_on_c, 0, 71, 63
2, 95460, Note_on_c, 0, 71, 0
2, 95461, Note_on_c, 0, 72, 63
2, 95520, Note_on_c, 0, 72, 0
2, 95521, Note_on_c, 0, 74, 63
2, 95580, Note_on_c, 0, 74, 0
2, 95581, Note_on_c, 0, 71, 63
2, 95640, Note_on_c, 0, 71, 0
2, 95641, Note_on_c, 0, 69, 63
2, 95700, Note_on_c, 0, 69, 0
2, 95701, Note_on_c, 0, 67, 63
2, 95760, Note_on_c, 0, 67, 0
2, 95761, Note_on_c, 0, 66, 63
2, 95820, Note_on_c, 0, 66, 0
2, 95821, Note_on_c, 0, 67, 63
2, 95880, Note_on_c, 0, 67, 0
2, 95881, Note_on_c, 0, 69, 63
2, 95940, Note_on_c, 0, 69, 0
2, 95941, Note_on_c, 0, 71, 63
2, 96000, Note_on_c, 0, 71, 0
2, 96001, Note_on_c, 0, 72, 63
2, 96060, Note_on_c, 0, 72, 0
2, 96061, Note_on_c, 0, 69, 63
2, 96120, Note_on_c, 0, 69, 0
2, 96121, Note_on_c, 0, 67, 63
2, 96180, Note_on_c, 0, 67, 0
2, 96181, Note_on_c, 0, 66, 63
2, 96240, Note_on_c, 0, 66, 0
2, 96241, Note_on_c, 0, 67, 63
2, 96480, Note_on_c, 0, 67, 0
2, 96481, Note_on_c, 0, 78, 81
2, 96510, Note_on_c, 0, 78, 0
2, 96511, Note_on_c, 0, 79, 81
2, 96600, Note_on_c, 0, 79, 0
2, 97322, Note_on_c, 0, 64, 81
2, 97380, Note_on_c, 0, 64, 0
2, 97442, Note_on_c, 0, 76, 81
2, 97800, Note_on_c, 0, 76, 0
2, 97801, Note_on_c, 0, 75, 81
2, 97920, Note_on_c, 0, 75, 0
2, 97921, Note_on_c, 0, 78, 81
2, 98280, Note_on_c, 0, 78, 0
2, 98281, Note_on_c, 0, 76, 81
2, 98400, Note_on_c, 0, 76, 0
2, 98401, Note_on_c, 0, 79, 81
2, 98760, Note_on_c, 0, 79, 0
2, 98761, Note_on_c, 0, 78, 81
2, 98880, Note_on_c, 0, 78, 0
2, 98881, Note_on_c, 0, 83, 81
2, 99240, Note_on_c, 0, 83, 0
2, 99241, Note_on_c, 0, 82, 81
2, 99360, Note_on_c, 0, 82, 0
2, 99361, Note_on_c, 0, 88, 81
2, 99600, Note_on_c, 0, 88, 0
2, 99601, Note_on_c, 0, 86, 81
2, 99960, Note_on_c, 0, 86, 0
2, 99961, Note_on_c, 0, 85, 63
2, 100200, Note_on_c, 0, 85, 0
2, 100201, Note_on_c, 0, 83, 47
2, 100440, Note_on_c, 0, 83, 0
2, 100441, Note_on_c, 0, 82, 47
2, 100560, Note_on_c, 0, 82, 0
2, 100682, Note_on_c, 0, 71, 36
2, 100800, Note_on_c, 0, 71, 0
2, 100801, Note_on_c, 0, 83, 36
2, 100920, Note_on_c, 0, 83, 0
2, 101162, Note_on_c, 0, 64, 81
2, 101220, Note_on_c, 0, 64, 0
2, 101282, Note_on_c, 0, 76, 81
2, 101640, Note_on_c, 0, 76, 0
2, 101641, Note_on_c, 0, 75, 81
2, 101760, Note_on_c, 0, 75, 0
2, 101761, Note_on_c, 0, 78, 81
2, 102120, Note_on_c, 0, 78, 0
2, 102121, Note_on_c, 0, 76, 81
2, 102240, Note_on_c, 0, 76, 0
2, 102241, Note_on_c, 0, 79, 81
2, 102600, Note_on_c, 0, 79, 0
2, 102601, Note_on_c, 0, 78, 81
2, 102720, Note_on_c, 0, 78, 0
2, 102721, Note_on_c, 0, 83, 81
2, 103080, Note_on_c, 0, 83, 0
2, 103081, Note_on_c, 0, 82, 81
2, 103200, Note_on_c, 0, 82, 0
2, 103201, Note_on_c, 0, 88, 81
2, 103440, Note_on_c, 0, 88, 0
2, 103441, Note_on_c, 0, 86, 81
2, 103800, Note_on_c, 0, 86, 0
2, 103801, Note_on_c, 0, 85, 63
2, 104040, Note_on_c, 0, 85, 0
2, 104041, Note_on_c, 0, 83, 63
2, 104280, Note_on_c, 0, 83, 0
2, 104281, Note_on_c, 0, 82, 47
2, 104400, Note_on_c, 0, 82, 0
2, 104522, Note_on_c, 0, 71, 36
2, 104640, Note_on_c, 0, 71, 0
2, 104641, Note_on_c, 0, 83, 36
2, 104760, Note_on_c, 0, 83, 0
2, 105002, Note_on_c, 0, 69, 81
2, 105120, Note_on_c, 0, 69, 0
2, 105121, Note_on_c, 0, 81, 81
2, 105480, Note_on_c, 0, 81, 0
2, 105481, Note_on_c, 0, 80, 81
2, 105600, Note_on_c, 0, 80, 0
2, 105601, Note_on_c, 0, 86, 81
2, 105960, Note_on_c, 0, 86, 0
2, 105961, Note_on_c, 0, 84, 63
2, 106200, Note_on_c, 0, 84, 0
2, 106201, Note_on_c, 0, 83, 47
2, 106440, Note_on_c, 0, 83, 0
2, 106441, Note_on_c, 0, 81, 36
2, 106560, Note_on_c, 0, 81, 0
2, 106682, Note_on_c, 0, 78, 36
2, 106800, Note_on_c, 0, 78, 0
2, 106801, Note_on_c, 0, 79, 36
2, 107160, Note_on_c, 0, 79, 0
2, 107161, Note_on_c, 0, 78, 36
2, 107280, Note_on_c, 0, 78, 0
2, 107281, Note_on_c, 0, 84, 36
2, 107640, Note_on_c, 0, 84, 0
2, 107641, Note_on_c, 0, 83, 36
2, 107880, Note_on_c, 0, 83, 0
2, 107881, Note_on_c, 0, 81, 31
2, 108120, Note_on_c, 0, 81, 0
2, 108121, Note_on_c, 0, 79, 31
2, 108360, Note_on_c, 0, 79, 0
2, 108361, Note_on_c, 0, 78, 30
2, 108480, Note_on_c, 0, 78, 0
2, 108481, Note_on_c, 0, 83, 81
2, 108540, Note_on_c, 0, 83, 0
2, 108541, Note_on_c, 0, 81, 81
2, 108600, Note_on_c, 0, 81, 0
2, 108601, Note_on_c, 0, 79, 81
2, 108660, Note_on_c, 0, 79, 0
2, 108661, Note_on_c, 0, 78, 81
2, 108720, Note_on_c, 0, 78, 0
2, 108721, Note_on_c, 0, 76, 81
2, 108960, Note_on_c, 0, 76, 0
2, 109082, Note_on_c, 0, 76, 81
2, 109200, Note_on_c, 0, 76, 0
2, 109201, Note_on_c, 0, 78, 81
2, 109560, Note_on_c, 0, 78, 0
2, 109561, Note_on_c, 0, 78, 81
2, 109680, Note_on_c, 0, 78, 0
2, 109681, Note_on_c, 0, 79, 81
2, 110040, Note_on_c, 0, 79, 0
2, 110041, Note_on_c, 0, 79, 81
2, 110160, Note_on_c, 0, 79, 0
2, 110161, Note_on_c, 0, 81, 81
2, 110520, Note_on_c, 0, 81, 0
2, 110521, Note_on_c, 0, 78, 81
2, 110640, Note_on_c, 0, 78, 0
2, 110641, Note_on_c, 0, 74, 81
2, 111000, Note_on_c, 0, 74, 0
2, 111001, Note_on_c, 0, 72, 81
2, 111120, Note_on_c, 0, 72, 0
2, 111121, Note_on_c, 0, 69, 81
2, 111480, Note_on_c, 0, 69, 0
2, 111481, Note_on_c, 0, 66, 81
2, 111600, Note_on_c, 0, 66, 0
2, 111601, Note_on_c, 0, 62, 81
2, 111960, Note_on_c, 0, 62, 0
2, 111961, Note_on_c, 0, 63, 81
2, 112020, Note_on_c, 0, 63, 0
2, 112021, Note_on_c, 0, 60, 81
2, 112080, Note_on_c, 0, 60, 0
2, 112922, Note_on_c, 0, 84, 36
2, 112980, Note_on_c, 0, 84, 0
2, 112981, Note_on_c, 0, 81, 36
2, 113040, Note_on_c, 0, 81, 0
2, 113041, Note_on_c, 0, 78, 36
2, 113100, Note_on_c, 0, 78, 0
2, 113162, Note_on_c, 0, 81, 36
2, 113220, Note_on_c, 0, 81, 0
2, 113221, Note_on_c, 0, 78, 36
2, 113280, Note_on_c, 0, 78, 0
2, 113281, Note_on_c, 0, 75, 36
2, 113340, Note_on_c, 0, 75, 0
2, 113402, Note_on_c, 0, 78, 36
2, 113460, Note_on_c, 0, 78, 0
2, 113461, Note_on_c, 0, 75, 36
2, 113520, Note_on_c, 0, 75, 0
2, 113521, Note_on_c, 0, 72, 36
2, 113760, Note_on_c, 0, 72, 0
2, 114122, Note_on_c, 0, 60, 81
2, 114240, Note_on_c, 0, 60, 0
2, 114241, Note_on_c, 0, 59, 81
2, 114360, Note_on_c, 0, 59, 0
2, 114361, Note_on_c, 0, 69, 81
2, 114480, Note_on_c, 0, 69, 0
2, 114602, Note_on_c, 0, 67, 81
2, 114720, Note_on_c, 0, 67, 0
2, 114842, Note_on_c, 0, 66, 81
2, 114960, Note_on_c, 0, 66, 0
2, 115082, Note_on_c, 0, 64, 81
2, 115200, Note_on_c, 0, 64, 0
2, 115322, Note_on_c, 0, 63, 81
2, 115440, Note_on_c, 0, 63, 0
2, 115441, Note_on_c, 0, 64, 81
2, 115680, Note_on_c, 0, 64, 0
2, 115802, Note_on_c, 0, 87, 47
2, 115920, Note_on_c, 0, 87, 0
2, 115921, Note_on_c, 0, 88, 47
2, 116160, Note_on_c, 0, 88, 0
2, 116282, Note_on_c, 0, 64, 47
2, 116400, Note_on_c, 0, 64, 0
2, 116401, Note_on_c, 0, 65, 47
2, 116640, Note_on_c, 0, 65, 0
2, 116762, Note_on_c, 0, 65, 47
2, 116880, Note_on_c, 0, 65, 0
2, 116881, Note_on_c, 0, 67, 47
2, 117120, Note_on_c, 0, 67, 0
2, 117242, Note_on_c, 0, 67, 63
2, 117360, Note_on_c, 0, 67, 0
2, 117361, Note_on_c, 0, 69, 63
2, 117600, Note_on_c, 0, 69, 0
2, 117722, Note_on_c, 0, 69, 47
2, 117840, Note_on_c, 0, 69, 0
2, 117841, Note_on_c, 0, 67, 47
2, 118080, Note_on_c, 0, 67, 0
2, 118202, Note_on_c, 0, 67, 47
2, 118320, Note_on_c, 0, 67, 0
2, 118321, Note_on_c, 0, 66, 47
2, 118560, Note_on_c, 0, 66, 0
2, 118682, Note_on_c, 0, 85, 31
2, 118800, Note_on_c, 0, 85, 0
2, 118801, Note_on_c, 0, 86, 31
2, 119040, Note_on_c, 0, 86, 0
2, 119162, Note_on_c, 0, 62, 31
2, 119280, Note_on_c, 0, 62, 0
2, 119281, Note_on_c, 0, 64, 31
2, 119520, Note_on_c, 0, 64, 0
2, 119642, Note_on_c, 0, 64, 31
2, 119760, Note_on_c, 0, 64, 0
2, 119761, Note_on_c, 0, 66, 31
2, 120000, Note_on_c, 0, 66, 0
2, 120122, Note_on_c, 0, 62, 81
2, 120180, Note_on_c, 0, 62, 0
2, 120242, Note_on_c, 0, 67, 81
2, 120420, Note_on_c, 0, 67, 0
2, 120421, Note_on_c, 0, 71, 81
2, 120450, Note_on_c, 0, 71, 0
2, 120451, Note_on_c, 0, 69, 81
2, 120480, Note_on_c, 0, 69, 0
2, 120481, Note_on_c, 0, 67, 81
2, 120600, Note_on_c, 0, 67, 0
2, 120842, Note_on_c, 0, 62, 81
2, 120900, Note_on_c, 0, 62, 0
2, 120962, Note_on_c, 0, 67, 81
2, 121020, Note_on_c, 0, 67, 0
2, 121082, Note_on_c, 0, 71, 81
2, 121140, Note_on_c, 0, 71, 0
2, 121202, Note_on_c, 0, 71, 81
2, 121260, Note_on_c, 0, 71, 0
2, 121261, Note_on_c, 0, 69, 81
2, 121320, Note_on_c, 0, 69, 0
2, 121321, Note_on_c, 0, 67, 81
2, 121380, Note_on_c, 0, 67, 0
2, 121381, Note_on_c, 0, 69, 81
2, 121440, Note_on_c, 0, 69, 0
2, 121441, Note_on_c, 0, 67, 81
2, 121560, Note_on_c, 0, 67, 0
2, 121561, Note_on_c, 0, 74, 36
2, 121620, Note_on_c, 0, 74, 0
2, 121682, Note_on_c, 0, 74, 36
2, 121740, Note_on_c, 0, 74, 0
2, 121802, Note_on_c, 0, 74, 36
2, 121860, Note_on_c, 0, 74, 0
2, 121922, Note_on_c, 0, 74, 36
2, 121980, Note_on_c, 0, 74, 0
2, 122042, Note_on_c, 0, 74, 36
2, 122100, Note_on_c, 0, 74, 0
2, 122162, Note_on_c, 0, 74, 36
2, 122340, Note_on_c, 0, 74, 0
2, 122341, Note_on_c, 0, 76, 36
2, 122370, Note_on_c, 0, 76, 0
2, 122371, Note_on_c, 0, 74, 36
2, 122400, Note_on_c, 0, 74, 0
2, 122401, Note_on_c, 0, 72, 36
2, 122520, Note_on_c, 0, 72, 0
2, 122521, Note_on_c, 0, 71, 36
2, 122580, Note_on_c, 0, 71, 0
2, 122642, Note_on_c, 0, 69, 47
2, 122700, Note_on_c, 0, 69, 0
2, 122762, Note_on_c, 0, 81, 47
2, 123000, Note_on_c, 0, 81, 0
2, 123001, Note_on_c, 0, 79, 63
2, 123120, Note_on_c, 0, 79, 0
2, 123121, Note_on_c, 0, 79, 47
2, 123180, Note_on_c, 0, 79, 0
2, 123181, Note_on_c, 0, 78, 47
2, 123240, Note_on_c, 0, 78, 0
2, 123241, Note_on_c, 0, 76, 47
2, 123300, Note_on_c, 0, 76, 0
2, 123301, Note_on_c, 0, 74, 47
2, 123360, Note_on_c, 0, 74, 0
2, 123361, Note_on_c, 0, 74, 47
2, 123420, Note_on_c, 0, 74, 0
2, 123482, Note_on_c, 0, 74, 39
2, 123540, Note_on_c, 0, 74, 0
2, 123602, Note_on_c, 0, 74, 36
2, 123660, Note_on_c, 0, 74, 0
2, 123661, Note_on_c, 0, 76, 36
2, 123720, Note_on_c, 0, 76, 0
2, 123721, Note_on_c, 0, 72, 36
2, 123780, Note_on_c, 0, 72, 0
2, 123781, Note_on_c, 0, 74, 35
2, 123840, Note_on_c, 0, 74, 0
2, 123841, Note_on_c, 0, 71, 35
2, 123900, Note_on_c, 0, 71, 0
2, 123901, Note_on_c, 0, 72, 35
2, 123960, Note_on_c, 0, 72, 0
2, 123961, Note_on_c, 0, 69, 35
2, 124020, Note_on_c, 0, 69, 0
2, 124021, Note_on_c, 0, 71, 35
2, 124080, Note_on_c, 0, 71, 0
2, 124081, Note_on_c, 0, 67, 63
2, 124260, Note_on_c, 0, 67, 0
2, 124261, Note_on_c, 0, 71, 63
2, 124290, Note_on_c, 0, 71, 0
2, 124291, Note_on_c, 0, 69, 63
2, 124320, Note_on_c, 0, 69, 0
2, 124321, Note_on_c, 0, 67, 63
2, 124380, Note_on_c, 0, 67, 0
2, 124381, Note_on_c, 0, 62, 63
2, 124440, Note_on_c, 0, 62, 0
2, 124441, Note_on_c, 0, 71, 63
2, 124500, Note_on_c, 0, 71, 0
2, 124501, Note_on_c, 0, 69, 63
2, 124560, Note_on_c, 0, 69, 0
2, 124561, Note_on_c, 0, 67, 63
2, 124620, Note_on_c, 0, 67, 0
2, 124621, Note_on_c, 0, 62, 63
2, 124680, Note_on_c, 0, 62, 0
2, 124681, Note_on_c, 0, 67, 63
2, 124740, Note_on_c, 0, 67, 0
2, 124741, Note_on_c, 0, 71, 63
2, 124800, Note_on_c, 0, 71, 0
2, 124801, Note_on_c, 0, 74, 63
2, 124860, Note_on_c, 0, 74, 0
2, 124861, Note_on_c, 0, 71, 63
2, 124920, Note_on_c, 0, 71, 0
2, 124921, Note_on_c, 0, 69, 63
2, 124980, Note_on_c, 0, 69, 0
2, 124981, Note_on_c, 0, 67, 63
2, 125040, Note_on_c, 0, 67, 0
2, 125041, Note_on_c, 0, 71, 63
2, 125100, Note_on_c, 0, 71, 0
2, 125101, Note_on_c, 0, 69, 63
2, 125160, Note_on_c, 0, 69, 0
2, 125161, Note_on_c, 0, 67, 63
2, 125220, Note_on_c, 0, 67, 0
2, 125221, Note_on_c, 0, 69, 63
2, 125280, Note_on_c, 0, 69, 0
2, 125281, Note_on_c, 0, 67, 63
2, 125400, Note_on_c, 0, 67, 0
2, 125401, Note_on_c, 0, 76, 47
2, 125460, Note_on_c, 0, 76, 0
2, 125522, Note_on_c, 0, 75, 47
2, 125580, Note_on_c, 0, 75, 0
2, 125581, Note_on_c, 0, 76, 47
2, 125640, Note_on_c, 0, 76, 0
2, 125641, Note_on_c, 0, 77, 47
2, 125700, Note_on_c, 0, 77, 0
2, 125701, Note_on_c, 0, 78, 47
2, 125760, Note_on_c, 0, 78, 0
2, 125761, Note_on_c, 0, 79, 63
2, 125820, Note_on_c, 0, 79, 0
2, 125821, Note_on_c, 0, 80, 63
2, 125880, Note_on_c, 0, 80, 0
2, 125881, Note_on_c, 0, 81, 63
2, 125940, Note_on_c, 0, 81, 0
2, 125941, Note_on_c, 0, 82, 63
2, 126000, Note_on_c, 0, 82, 0
2, 126001, Note_on_c, 0, 83, 81
2, 126240, Note_on_c, 0, 83, 0
2, 126241, Note_on_c, 0, 81, 63
2, 126300, Note_on_c, 0, 81, 0
2, 126301, Note_on_c, 0, 79, 63
2, 126360, Note_on_c, 0, 79, 0
2, 126361, Note_on_c, 0, 78, 63
2, 126420, Note_on_c, 0, 78, 0
2, 126421, Note_on_c, 0, 76, 63
2, 126480, Note_on_c, 0, 76, 0
2, 126481, Note_on_c, 0, 74, 47
2, 126720, Note_on_c, 0, 74, 0
2, 126721, Note_on_c, 0, 73, 47
2, 126768, Note_on_c, 0, 73, 0
2, 126769, Note_on_c, 0, 74, 47
2, 126816, Note_on_c, 0, 74, 0
2, 126817, Note_on_c, 0, 73, 47
2, 126864, Note_on_c, 0, 73, 0
2, 126865, Note_on_c, 0, 71, 47
2, 126912, Note_on_c, 0, 71, 0
2, 126913, Note_on_c, 0, 73, 55
2, 126960, Note_on_c, 0, 73, 0
2, 126961, Note_on_c, 0, 74, 81
2, 127020, Note_on_c, 0, 74, 0
2, 127021, Note_on_c, 0, 76, 81
2, 127080, Note_on_c, 0, 76, 0
2, 127081, Note_on_c, 0, 78, 81
2, 127140, Note_on_c, 0, 78, 0
2, 127141, Note_on_c, 0, 79, 81
2, 127200, Note_on_c, 0, 79, 0
2, 127201, Note_on_c, 0, 81, 81
2, 127260, Note_on_c, 0, 81, 0
2, 127261, Note_on_c, 0, 83, 81
2, 127320, Note_on_c, 0, 83, 0
2, 127321, Note_on_c, 0, 85, 81
2, 127380, Note_on_c, 0, 85, 0
2, 127381, Note_on_c, 0, 86, 81
2, 127440, Note_on_c, 0, 86, 0
2, 127441, Note_on_c, 0, 85, 81
2, 127500, Note_on_c, 0, 85, 0
2, 127501, Note_on_c, 0, 88, 81
2, 127560, Note_on_c, 0, 88, 0
2, 127561, Note_on_c, 0, 85, 81
2, 127620, Note_on_c, 0, 85, 0
2, 127621, Note_on_c, 0, 81, 81
2, 127680, Note_on_c, 0, 81, 0
2, 127681, Note_on_c, 0, 79, 81
2, 127740, Note_on_c, 0, 79, 0
2, 127741, Note_on_c, 0, 83, 81
2, 127800, Note_on_c, 0, 83, 0
2, 127801, Note_on_c, 0, 79, 81
2, 127860, Note_on_c, 0, 79, 0
2, 127861, Note_on_c, 0, 76, 81
2, 127920, Note_on_c, 0, 76, 0
2, 127921, Note_on_c, 0, 78, 81
2, 127980, Note_on_c, 0, 78, 0
2, 127981, Note_on_c, 0, 81, 81
2, 128040, Note_on_c, 0, 81, 0
2, 128041, Note_on_c, 0, 79, 81
2, 128100, Note_on_c, 0, 79, 0
2, 128101, Note_on_c, 0, 78, 81
2, 128160, Note_on_c, 0, 78, 0
2, 128161, Note_on_c, 0, 76, 63
2, 128220, Note_on_c, 0, 76, 0
2, 128221, Note_on_c, 0, 74, 63
2, 128280, Note_on_c, 0, 74, 0
2, 128281, Note_on_c, 0, 73, 63
2, 128340, Note_on_c, 0, 73, 0
2, 128341, Note_on_c, 0, 71, 47
2, 128400, Note_on_c, 0, 71, 0
2, 128401, Note_on_c, 0, 69, 47
2, 128460, Note_on_c, 0, 69, 0
2, 128461, Note_on_c, 0, 71, 47
2, 128520, Note_on_c, 0, 71, 0
2, 128521, Note_on_c, 0, 73, 47
2, 128580, Note_on_c, 0, 73, 0
2, 128581, Note_on_c, 0, 74, 63
2, 128640, Note_on_c, 0, 74, 0
2, 128641, Note_on_c, 0, 76, 63
2, 128700, Note_on_c, 0, 76, 0
2, 128701, Note_on_c, 0, 78, 63
2, 128760, Note_on_c, 0, 78, 0
2, 128761, Note_on_c, 0, 79, 63
2, 128820, Note_on_c, 0, 79, 0
2, 128821, Note_on_c, 0, 76, 63
2, 128880, Note_on_c, 0, 76, 0
2, 128881, Note_on_c, 0, 74, 63
2, 128940, Note_on_c, 0, 74, 0
2, 128941, Note_on_c, 0, 76, 63
2, 129000, Note_on_c, 0, 76, 0
2, 129001, Note_on_c, 0, 78, 63
2, 129060, Note_on_c, 0, 78, 0
2, 129061, Note_on_c, 0, 79, 63
2, 129120, Note_on_c, 0, 79, 0
2, 129121, Note_on_c, 0, 81, 47
2, 129180, Note_on_c, 0, 81, 0
2, 129181, Note_on_c, 0, 83, 47
2, 129240, Note_on_c, 0, 83, 0
2, 129241, Note_on_c, 0, 85, 47
2, 129300, Note_on_c, 0, 85, 0
2, 129301, Note_on_c, 0, 86, 47
2, 129360, Note_on_c, 0, 86, 0
2, 129361, Note_on_c, 0, 74, 47
2, 129480, Note_on_c, 0, 74, 0
2, 129842, Note_on_c, 0, 67, 81
2, 130020, Note_on_c, 0, 67, 0
2, 130021, Note_on_c, 0, 71, 81
2, 130050, Note_on_c, 0, 71, 0
2, 130051, Note_on_c, 0, 69, 81
2, 130080, Note_on_c, 0, 69, 0
2, 130081, Note_on_c, 0, 67, 81
2, 130140, Note_on_c, 0, 67, 0
2, 130141, Note_on_c, 0, 62, 81
2, 130200, Note_on_c, 0, 62, 0
2, 130201, Note_on_c, 0, 71, 81
2, 130260, Note_on_c, 0, 71, 0
2, 130261, Note_on_c, 0, 69, 81
2, 130320, Note_on_c, 0, 69, 0
2, 130321, Note_on_c, 0, 67, 81
2, 130380, Note_on_c, 0, 67, 0
2, 130381, Note_on_c, 0, 62, 81
2, 130440, Note_on_c, 0, 62, 0
2, 130441, Note_on_c, 0, 67, 81
2, 130500, Note_on_c, 0, 67, 0
2, 130501, Note_on_c, 0, 71, 81
2, 130560, Note_on_c, 0, 71, 0
2, 130561, Note_on_c, 0, 74, 81
2, 130620, Note_on_c, 0, 74, 0
2, 130621, Note_on_c, 0, 71, 81
2, 130680, Note_on_c, 0, 71, 0
2, 130681, Note_on_c, 0, 69, 81
2, 130740, Note_on_c, 0, 69, 0
2, 130741, Note_on_c, 0, 67, 81
2, 130800, Note_on_c, 0, 67, 0
2, 130801, Note_on_c, 0, 71, 81
2, 130860, Note_on_c, 0, 71, 0
2, 130861, Note_on_c, 0, 69, 81
2, 130920, Note_on_c, 0, 69, 0
2, 130921, Note_on_c, 0, 67, 81
2, 130980, Note_on_c, 0, 67, 0
2, 130981, Note_on_c, 0, 69, 81
2, 131040, Note_on_c, 0, 69, 0
2, 131041, Note_on_c, 0, 67, 81
2, 131160, Note_on_c, 0, 67, 0
2, 131161, Note_on_c, 0, 74, 81
2, 131220, Note_on_c, 0, 74, 0
2, 131282, Note_on_c, 0, 74, 81
2, 131340, Note_on_c, 0, 74, 0
2, 131402, Note_on_c, 0, 74, 81
2, 131460, Note_on_c, 0, 74, 0
2, 131522, Note_on_c, 0, 74, 81
2, 131580, Note_on_c, 0, 74, 0
2, 131642, Note_on_c, 0, 74, 81
2, 131700, Note_on_c, 0, 74, 0
2, 131762, Note_on_c, 0, 76, 81
2, 131820, Note_on_c, 0, 76, 0
2, 131821, Note_on_c, 0, 79, 81
2, 131880, Note_on_c, 0, 79, 0
2, 131881, Note_on_c, 0, 76, 81
2, 131940, Note_on_c, 0, 76, 0
2, 131941, Note_on_c, 0, 74, 81
2, 132000, Note_on_c, 0, 74, 0
2, 132001, Note_on_c, 0, 72, 81
2, 132060, Note_on_c, 0, 72, 0
2, 132061, Note_on_c, 0, 76, 81
2, 132120, Note_on_c, 0, 76, 0
2, 132121, Note_on_c, 0, 72, 81
2, 132180, Note_on_c, 0, 72, 0
2, 132181, Note_on_c, 0, 71, 81
2, 132240, Note_on_c, 0, 71, 0
2, 132241, Note_on_c, 0, 69, 81
2, 132300, Note_on_c, 0, 69, 0
2, 132301, Note_on_c, 0, 88, 81
2, 132360, Note_on_c, 0, 88, 0
2, 132361, Note_on_c, 0, 84, 81
2, 132420, Note_on_c, 0, 84, 0
2, 132421, Note_on_c, 0, 83, 81
2, 132480, Note_on_c, 0, 83, 0
2, 132481, Note_on_c, 0, 81, 81
2, 132540, Note_on_c, 0, 81, 0
2, 132541, Note_on_c, 0, 84, 81
2, 132600, Note_on_c, 0, 84, 0
2, 132601, Note_on_c, 0, 81, 81
2, 132660, Note_on_c, 0, 81, 0
2, 132661, Note_on_c, 0, 79, 81
2, 132720, Note_on_c, 0, 79, 0
2, 132721, Note_on_c, 0, 78, 81
2, 132780, Note_on_c, 0, 78, 0
2, 132781, Note_on_c, 0, 79, 81
2, 132840, Note_on_c, 0, 79, 0
2, 132841, Note_on_c, 0, 81, 81
2, 132900, Note_on_c, 0, 81, 0
2, 132901, Note_on_c, 0, 79, 81
2, 132960, Note_on_c, 0, 79, 0
2, 132961, Note_on_c, 0, 78, 81
2, 133020, Note_on_c, 0, 78, 0
2, 133021, Note_on_c, 0, 76, 81
2, 133080, Note_on_c, 0, 76, 0
2, 133081, Note_on_c, 0, 74, 81
2, 133140, Note_on_c, 0, 74, 0
2, 133141, Note_on_c, 0, 73, 81
2, 133200, Note_on_c, 0, 73, 0
2, 133201, Note_on_c, 0, 74, 81
2, 133260, Note_on_c, 0, 74, 0
2, 133261, Note_on_c, 0, 86, 81
2, 133320, Note_on_c, 0, 86, 0
2, 133321, Note_on_c, 0, 72, 81
2, 133380, Note_on_c, 0, 72, 0
2, 133381, Note_on_c, 0, 84, 81
2, 133440, Note_on_c, 0, 84, 0
2, 133441, Note_on_c, 0, 71, 81
2, 133500, Note_on_c, 0, 71, 0
2, 133501, Note_on_c, 0, 83, 81
2, 133560, Note_on_c, 0, 83, 0
2, 133561, Note_on_c, 0, 69, 81
2, 133620, Note_on_c, 0, 69, 0
2, 133621, Note_on_c, 0, 81, 81
2, 133680, Note_on_c, 0, 81, 0
2, 133681, Note_on_c, 0, 67, 63
2, 133860, Note_on_c, 0, 67, 0
2, 133861, Note_on_c, 0, 71, 63
2, 133890, Note_on_c, 0, 71, 0
2, 133891, Note_on_c, 0, 69, 63
2, 133920, Note_on_c, 0, 69, 0
2, 133921, Note_on_c, 0, 67, 63
2, 133980, Note_on_c, 0, 67, 0
2, 133981, Note_on_c, 0, 62, 63
2, 134040, Note_on_c, 0, 62, 0
2, 134041, Note_on_c, 0, 71, 63
2, 134100, Note_on_c, 0, 71, 0
2, 134101, Note_on_c, 0, 69, 63
2, 134160, Note_on_c, 0, 69, 0
2, 134161, Note_on_c, 0, 67, 63
2, 134220, Note_on_c, 0, 67, 0
2, 134221, Note_on_c, 0, 62, 63
2, 134280, Note_on_c, 0, 62, 0
2, 134281, Note_on_c, 0, 67, 63
2, 134340, Note_on_c, 0, 67, 0
2, 134341, Note_on_c, 0, 71, 63
2, 134400, Note_on_c, 0, 71, 0
2, 134401, Note_on_c, 0, 74, 63
2, 134460, Note_on_c, 0, 74, 0
2, 134461, Note_on_c, 0, 71, 63
2, 134520, Note_on_c, 0, 71, 0
2, 134521, Note_on_c, 0, 69, 63
2, 134580, Note_on_c, 0, 69, 0
2, 134581, Note_on_c, 0, 67, 63
2, 134640, Note_on_c, 0, 67, 0
2, 134641, Note_on_c, 0, 71, 63
2, 134700, Note_on_c, 0, 71, 0
2, 134701, Note_on_c, 0, 69, 63
2, 134760, Note_on_c, 0, 69, 0
2, 134761, Note_on_c, 0, 67, 63
2, 134820, Note_on_c, 0, 67, 0
2, 134821, Note_on_c, 0, 69, 63
2, 134880, Note_on_c, 0, 69, 0
2, 134881, Note_on_c, 0, 67, 63
2, 135000, Note_on_c, 0, 67, 0
2, 135001, Note_on_c, 0, 76, 47
2, 135060, Note_on_c, 0, 76, 0
2, 135122, Note_on_c, 0, 75, 36
2, 135180, Note_on_c, 0, 75, 0
2, 135181, Note_on_c, 0, 76, 36
2, 135240, Note_on_c, 0, 76, 0
2, 135241, Note_on_c, 0, 77, 36
2, 135300, Note_on_c, 0, 77, 0
2, 135301, Note_on_c, 0, 78, 36
2, 135360, Note_on_c, 0, 78, 0
2, 135361, Note_on_c, 0, 79, 47
2, 135420, Note_on_c, 0, 79, 0
2, 135421, Note_on_c, 0, 80, 47
2, 135480, Note_on_c, 0, 80, 0
2, 135481, Note_on_c, 0, 81, 47
2, 135540, Note_on_c, 0, 81, 0
2, 135541, Note_on_c, 0, 82, 47
2, 135600, Note_on_c, 0, 82, 0
2, 135601, Note_on_c, 0, 83, 63
2, 135840, Note_on_c, 0, 83, 0
2, 135841, Note_on_c, 0, 81, 47
2, 135900, Note_on_c, 0, 81, 0
2, 135901, Note_on_c, 0, 79, 47
2, 135960, Note_on_c, 0, 79, 0
2, 135961, Note_on_c, 0, 78, 47
2, 136020, Note_on_c, 0, 78, 0
2, 136021, Note_on_c, 0, 76, 47
2, 136080, Note_on_c, 0, 76, 0
2, 136081, Note_on_c, 0, 74, 36
2, 136320, Note_on_c, 0, 74, 0
2, 136321, Note_on_c, 0, 73, 34
2, 136368, Note_on_c, 0, 73, 0
2, 136369, Note_on_c, 0, 74, 31
2, 136416, Note_on_c, 0, 74, 0
2, 136417, Note_on_c, 0, 73, 31
2, 136464, Note_on_c, 0, 73, 0
2, 136465, Note_on_c, 0, 71, 31
2, 136512, Note_on_c, 0, 71, 0
2, 136513, Note_on_c, 0, 73, 31
2, 136560, Note_on_c, 0, 73, 0
2, 136561, Note_on_c, 0, 74, 81
2, 136620, Note_on_c, 0, 74, 0
2, 136621, Note_on_c, 0, 76, 81
2, 136680, Note_on_c, 0, 76, 0
2, 136681, Note_on_c, 0, 78, 81
2, 136740, Note_on_c, 0, 78, 0
2, 136741, Note_on_c, 0, 79, 81
2, 136800, Note_on_c, 0, 79, 0
2, 136801, Note_on_c, 0, 81, 81
2, 136860, Note_on_c, 0, 81, 0
2, 136861, Note_on_c, 0, 83, 81
2, 136920, Note_on_c, 0, 83, 0
2, 136921, Note_on_c, 0, 85, 81
2, 136980, Note_on_c, 0, 85, 0
2, 136981, Note_on_c, 0, 86, 81
2, 137040, Note_on_c, 0, 86, 0
2, 137041, Note_on_c, 0, 85, 81
2, 137100, Note_on_c, 0, 85, 0
2, 137101, Note_on_c, 0, 88, 81
2, 137160, Note_on_c, 0, 88, 0
2, 137161, Note_on_c, 0, 85, 81
2, 137220, Note_on_c, 0, 85, 0
2, 137221, Note_on_c, 0, 81, 81
2, 137280, Note_on_c, 0, 81, 0
2, 137281, Note_on_c, 0, 79, 81
2, 137340, Note_on_c, 0, 79, 0
2, 137341, Note_on_c, 0, 83, 81
2, 137400, Note_on_c, 0, 83, 0
2, 137401, Note_on_c, 0, 79, 81
2, 137460, Note_on_c, 0, 79, 0
2, 137461, Note_on_c, 0, 76, 81
2, 137520, Note_on_c, 0, 76, 0
2, 137521, Note_on_c, 0, 78, 81
2, 137580, Note_on_c, 0, 78, 0
2, 137581, Note_on_c, 0, 81, 81
2, 137640, Note_on_c, 0, 81, 0
2, 137641, Note_on_c, 0, 79, 63
2, 137700, Note_on_c, 0, 79, 0
2, 137701, Note_on_c, 0, 78, 63
2, 137760, Note_on_c, 0, 78, 0
2, 137761, Note_on_c, 0, 76, 63
2, 137820, Note_on_c, 0, 76, 0
2, 137821, Note_on_c, 0, 74, 47
2, 137880, Note_on_c, 0, 74, 0
2, 137881, Note_on_c, 0, 73, 47
2, 137940, Note_on_c, 0, 73, 0
2, 137941, Note_on_c, 0, 71, 47
2, 138000, Note_on_c, 0, 71, 0
2, 138001, Note_on_c, 0, 69, 36
2, 138060, Note_on_c, 0, 69, 0
2, 138061, Note_on_c, 0, 71, 31
2, 138120, Note_on_c, 0, 71, 0
2, 138121, Note_on_c, 0, 73, 35
2, 138180, Note_on_c, 0, 73, 0
2, 138181, Note_on_c, 0, 74, 34
2, 138240, Note_on_c, 0, 74, 0
2, 138241, Note_on_c, 0, 76, 47
2, 138300, Note_on_c, 0, 76, 0
2, 138301, Note_on_c, 0, 78, 47
2, 138360, Note_on_c, 0, 78, 0
2, 138361, Note_on_c, 0, 79, 63
2, 138420, Note_on_c, 0, 79, 0
2, 138421, Note_on_c, 0, 76, 63
2, 138480, Note_on_c, 0, 76, 0
2, 138481, Note_on_c, 0, 74, 63
2, 138540, Note_on_c, 0, 74, 0
2, 138541, Note_on_c, 0, 76, 63
2, 138600, Note_on_c, 0, 76, 0
2, 138601, Note_on_c, 0, 78, 47
2, 138660, Note_on_c, 0, 78, 0
2, 138661, Note_on_c, 0, 79, 47
2, 138720, Note_on_c, 0, 79, 0
2, 138721, Note_on_c, 0, 81, 47
2, 138780, Note_on_c, 0, 81, 0
2, 138781, Note_on_c, 0, 83, 47
2, 138840, Note_on_c, 0, 83, 0
2, 138841, Note_on_c, 0, 85, 36
2, 138900, Note_on_c, 0, 85, 0
2, 138901, Note_on_c, 0, 86, 36
2, 138960, Note_on_c, 0, 86, 0
2, 138961, Note_on_c, 0, 74, 34
2, 139080, Note_on_c, 0, 74, 0
2, 139442, Note_on_c, 0, 77, 81
2, 139620, Note_on_c, 0, 77, 0
2, 139621, Note_on_c, 0, 74, 81
2, 139650, Note_on_c, 0, 74, 0
2, 139651, Note_on_c, 0, 75, 81
2, 139680, Note_on_c, 0, 75, 0
2, 139681, Note_on_c, 0, 77, 81
2, 139800, Note_on_c, 0, 77, 0
2, 139801, Note_on_c, 0, 89, 81
2, 140040, Note_on_c, 0, 89, 0
2, 140041, Note_on_c, 0, 69, 81
2, 140100, Note_on_c, 0, 69, 0
2, 140162, Note_on_c, 0, 69, 81
2, 140220, Note_on_c, 0, 69, 0
2, 140282, Note_on_c, 0, 69, 81
2, 140340, Note_on_c, 0, 69, 0
2, 140402, Note_on_c, 0, 72, 81
2, 140440, Note_on_c, 0, 72, 0
2, 140441, Note_on_c, 0, 70, 81
2, 140480, Note_on_c, 0, 70, 0
2, 140481, Note_on_c, 0, 72, 81
2, 140520, Note_on_c, 0, 72, 0
2, 140521, Note_on_c, 0, 70, 81
2, 140560, Note_on_c, 0, 70, 0
2, 140561, Note_on_c, 0, 69, 81
2, 140600, Note_on_c, 0, 69, 0
2, 140601, Note_on_c, 0, 70, 81
2, 140640, Note_on_c, 0, 70, 0
2, 140641, Note_on_c, 0, 74, 81
2, 140760, Note_on_c, 0, 74, 0
2, 140761, Note_on_c, 0, 86, 81
2, 141000, Note_on_c, 0, 86, 0
2, 141001, Note_on_c, 0, 66, 81
2, 141060, Note_on_c, 0, 66, 0
2, 141122, Note_on_c, 0, 66, 81
2, 141180, Note_on_c, 0, 66, 0
2, 141242, Note_on_c, 0, 66, 81
2, 141300, Note_on_c, 0, 66, 0
2, 141362, Note_on_c, 0, 72, 81
2, 141400, Note_on_c, 0, 72, 0
2, 141401, Note_on_c, 0, 70, 81
2, 141440, Note_on_c, 0, 70, 0
2, 141441, Note_on_c, 0, 72, 81
2, 141480, Note_on_c, 0, 72, 0
2, 141481, Note_on_c, 0, 70, 81
2, 141520, Note_on_c, 0, 70, 0
2, 141521, Note_on_c, 0, 69, 81
2, 141560, Note_on_c, 0, 69, 0
2, 141561, Note_on_c, 0, 70, 81
2, 141600, Note_on_c, 0, 70, 0
2, 141601, Note_on_c, 0, 74, 81
2, 141720, Note_on_c, 0, 74, 0
2, 141721, Note_on_c, 0, 82, 81
2, 141960, Note_on_c, 0, 82, 0
2, 141961, Note_on_c, 0, 61, 63
2, 142020, Note_on_c, 0, 61, 0
2, 142082, Note_on_c, 0, 61, 63
2, 142140, Note_on_c, 0, 61, 0
2, 142202, Note_on_c, 0, 61, 63
2, 142260, Note_on_c, 0, 61, 0
2, 142322, Note_on_c, 0, 62, 63
2, 142380, Note_on_c, 0, 62, 0
2, 142381, Note_on_c, 0, 64, 63
2, 142440, Note_on_c, 0, 64, 0
2, 142441, Note_on_c, 0, 66, 63
2, 142500, Note_on_c, 0, 66, 0
2, 142501, Note_on_c, 0, 67, 63
2, 142560, Note_on_c, 0, 67, 0
2, 142561, Note_on_c, 0, 69, 63
2, 142620, Note_on_c, 0, 69, 0
2, 142621, Note_on_c, 0, 66, 63
2, 142680, Note_on_c, 0, 66, 0
2, 142681, Note_on_c, 0, 67, 63
2, 142740, Note_on_c, 0, 67, 0
2, 142741, Note_on_c, 0, 64, 63
2, 142800, Note_on_c, 0, 64, 0
2, 142801, Note_on_c, 0, 62, 63
2, 143040, Note_on_c, 0, 62, 0
2, 143282, Note_on_c, 0, 67, 63
2, 143460, Note_on_c, 0, 67, 0
2, 143461, Note_on_c, 0, 71, 63
2, 143490, Note_on_c, 0, 71, 0
2, 143491, Note_on_c, 0, 69, 63
2, 143520, Note_on_c, 0, 69, 0
2, 143521, Note_on_c, 0, 67, 63
2, 143580, Note_on_c, 0, 67, 0
2, 143581, Note_on_c, 0, 62, 63
2, 143640, Note_on_c, 0, 62, 0
2, 143641, Note_on_c, 0, 71, 63
2, 143700, Note_on_c, 0, 71, 0
2, 143701, Note_on_c, 0, 69, 63
2, 143760, Note_on_c, 0, 69, 0
2, 143761, Note_on_c, 0, 67, 63
2, 143820, Note_on_c, 0, 67, 0
2, 143821, Note_on_c, 0, 62, 63
2, 143880, Note_on_c, 0, 62, 0
2, 143881, Note_on_c, 0, 67, 63
2, 143940, Note_on_c, 0, 67, 0
2, 143941, Note_on_c, 0, 71, 63
2, 144000, Note_on_c, 0, 71, 0
2, 144001, Note_on_c, 0, 74, 63
2, 144060, Note_on_c, 0, 74, 0
2, 144061, Note_on_c, 0, 71, 63
2, 144120, Note_on_c, 0, 71, 0
2, 144121, Note_on_c, 0, 69, 63
2, 144180, Note_on_c, 0, 69, 0
2, 144181, Note_on_c, 0, 67, 63
2, 144240, Note_on_c, 0, 67, 0
2, 144241, Note_on_c, 0, 71, 63
2, 144300, Note_on_c, 0, 71, 0
2, 144301, Note_on_c, 0, 69, 63
2, 144360, Note_on_c, 0, 69, 0
2, 144361, Note_on_c, 0, 67, 63
2, 144420, Note_on_c, 0, 67, 0
2, 144421, Note_on_c, 0, 69, 63
2, 144480, Note_on_c, 0, 69, 0
2, 144481, Note_on_c, 0, 67, 63
2, 144600, Note_on_c, 0, 67, 0
2, 144601, Note_on_c, 0, 88, 81
2, 144660, Note_on_c, 0, 88, 0
2, 144661, Note_on_c, 0, 76, 81
2, 144720, Note_on_c, 0, 76, 0
2, 144721, Note_on_c, 0, 88, 81
2, 144780, Note_on_c, 0, 88, 0
2, 144781, Note_on_c, 0, 76, 81
2, 144840, Note_on_c, 0, 76, 0
2, 144841, Note_on_c, 0, 88, 81
2, 144900, Note_on_c, 0, 88, 0
2, 144901, Note_on_c, 0, 76, 81
2, 144960, Note_on_c, 0, 76, 0
2, 144961, Note_on_c, 0, 88, 81
2, 145020, Note_on_c, 0, 88, 0
2, 145021, Note_on_c, 0, 76, 81
2, 145080, Note_on_c, 0, 76, 0
2, 145081, Note_on_c, 0, 88, 81
2, 145140, Note_on_c, 0, 88, 0
2, 145141, Note_on_c, 0, 76, 81
2, 145200, Note_on_c, 0, 76, 0
2, 145201, Note_on_c, 0, 88, 81
2, 145350, Note_on_c, 0, 88, 0
2, 145351, Note_on_c, 0, 86, 81
2, 145380, Note_on_c, 0, 86, 0
2, 145381, Note_on_c, 0, 84, 81
2, 145410, Note_on_c, 0, 84, 0
2, 145411, Note_on_c, 0, 83, 81
2, 145440, Note_on_c, 0, 83, 0
2, 145441, Note_on_c, 0, 81, 81
2, 145500, Note_on_c, 0, 81, 0
2, 145562, Note_on_c, 0, 86, 63
2, 145620, Note_on_c, 0, 86, 0
2, 145621, Note_on_c, 0, 74, 36
2, 145680, Note_on_c, 0, 74, 0
2, 145681, Note_on_c, 0, 86, 36
2, 145740, Note_on_c, 0, 86, 0
2, 145741, Note_on_c, 0, 74, 34
2, 145800, Note_on_c, 0, 74, 0
2, 145801, Note_on_c, 0, 86, 31
2, 145860, Note_on_c, 0, 86, 0
2, 145861, Note_on_c, 0, 74, 31
2, 145920, Note_on_c, 0, 74, 0
2, 145921, Note_on_c, 0, 86, 31
2, 145980, Note_on_c, 0, 86, 0
2, 145981, Note_on_c, 0, 74, 31
2, 146040, Note_on_c, 0, 74, 0
2, 146041, Note_on_c, 0, 86, 31
2, 146100, Note_on_c, 0, 86, 0
2, 146101, Note_on_c, 0, 74, 31
2, 146160, Note_on_c, 0, 74, 0
2, 146161, Note_on_c, 0, 86, 31
2, 146310, Note_on_c, 0, 86, 0
2, 146311, Note_on_c, 0, 84, 31
2, 146340, Note_on_c, 0, 84, 0
2, 146341, Note_on_c, 0, 83, 31
2, 146370, Note_on_c, 0, 83, 0
2, 146371, Note_on_c, 0, 81, 31
2, 146400, Note_on_c, 0, 81, 0
2, 146401, Note_on_c, 0, 79, 31
2, 146460, Note_on_c, 0, 79, 0
2, 147482, Note_on_c, 0, 86, 63
2, 147510, Note_on_c, 0, 86, 0
2, 147511, Note_on_c, 0, 84, 63
2, 147540, Note_on_c, 0, 84, 0
2, 147541, Note_on_c, 0, 83, 63
2, 147570, Note_on_c, 0, 83, 0
2, 147571, Note_on_c, 0, 81, 63
2, 147600, Note_on_c, 0, 81, 0
2, 147601, Note_on_c, 0, 79, 63
2, 147660, Note_on_c, 0, 79, 0
2, 147722, Note_on_c, 0, 83, 63
2, 147750, Note_on_c, 0, 83, 0
2, 147751, Note_on_c, 0, 81, 63
2, 147780, Note_on_c, 0, 81, 0
2, 147781, Note_on_c, 0, 79, 63
2, 147810, Note_on_c, 0, 79, 0
2, 147811, Note_on_c, 0, 78, 63
2, 147840, Note_on_c, 0, 78, 0
2, 147841, Note_on_c, 0, 76, 63
2, 147900, Note_on_c, 0, 76, 0
2, 147962, Note_on_c, 0, 79, 63
2, 147990, Note_on_c, 0, 79, 0
2, 147991, Note_on_c, 0, 78, 63
2, 148020, Note_on_c, 0, 78, 0
2, 148021, Note_on_c, 0, 76, 63
2, 148050, Note_on_c, 0, 76, 0
2, 148051, Note_on_c, 0, 74, 63
2, 148080, Note_on_c, 0, 74, 0
2, 148081, Note_on_c, 0, 72, 63
2, 148320, Note_on_c, 0, 72, 0
2, 148442, Note_on_c, 0, 79, 63
2, 148470, Note_on_c, 0, 79, 0
2, 148471, Note_on_c, 0, 77, 63
2, 148500, Note_on_c, 0, 77, 0
2, 148501, Note_on_c, 0, 75, 63
2, 148530, Note_on_c, 0, 75, 0
2, 148531, Note_on_c, 0, 74, 63
2, 148560, Note_on_c, 0, 74, 0
2, 148561, Note_on_c, 0, 72, 63
2, 148620, Note_on_c, 0, 72, 0
2, 148682, Note_on_c, 0, 83, 63
2, 148800, Note_on_c, 0, 83, 0
2, 148801, Note_on_c, 0, 84, 63
2, 148920, Note_on_c, 0, 84, 0
2, 148921, Note_on_c, 0, 84, 63
2, 148980, Note_on_c, 0, 84, 0
2, 149042, Note_on_c, 0, 84, 81
2, 149100, Note_on_c, 0, 84, 0
2, 149101, Note_on_c, 0, 83, 81
2, 149160, Note_on_c, 0, 83, 0
2, 149161, Note_on_c, 0, 84, 81
2, 149220, Note_on_c, 0, 84, 0
2, 149221, Note_on_c, 0, 81, 81
2, 149280, Note_on_c, 0, 81, 0
2, 149281, Note_on_c, 0, 83, 81
2, 149340, Note_on_c, 0, 83, 0
2, 149341, Note_on_c, 0, 81, 81
2, 149400, Note_on_c, 0, 81, 0
2, 149401, Note_on_c, 0, 83, 81
2, 149460, Note_on_c, 0, 83, 0
2, 149461, Note_on_c, 0, 79, 81
2, 149520, Note_on_c, 0, 79, 0
2, 149521, Note_on_c, 0, 81, 81
2, 149580, Note_on_c, 0, 81, 0
2, 149581, Note_on_c, 0, 80, 81
2, 149640, Note_on_c, 0, 80, 0
2, 149641, Note_on_c, 0, 81, 81
2, 149700, Note_on_c, 0, 81, 0
2, 149701, Note_on_c, 0, 76, 81
2, 149760, Note_on_c, 0, 76, 0
2, 149761, Note_on_c, 0, 79, 81
2, 149820, Note_on_c, 0, 79, 0
2, 149821, Note_on_c, 0, 78, 81
2, 149880, Note_on_c, 0, 78, 0
2, 149881, Note_on_c, 0, 76, 81
2, 149940, Note_on_c, 0, 76, 0
2, 149941, Note_on_c, 0, 74, 81
2, 150000, Note_on_c, 0, 74, 0
2, 150001, Note_on_c, 0, 79, 81
2, 150060, Note_on_c, 0, 79, 0
2, 150061, Note_on_c, 0, 74, 81
2, 150120, Note_on_c, 0, 74, 0
2, 150121, Note_on_c, 0, 79, 81
2, 150180, Note_on_c, 0, 79, 0
2, 150181, Note_on_c, 0, 83, 81
2, 150240, Note_on_c, 0, 83, 0
2, 150241, Note_on_c, 0, 86, 81
2, 150300, Note_on_c, 0, 86, 0
2, 150301, Note_on_c, 0, 83, 81
2, 150360, Note_on_c, 0, 83, 0
2, 150361, Note_on_c, 0, 81, 81
2, 150420, Note_on_c, 0, 81, 0
2, 150421, Note_on_c, 0, 79, 81
2, 150480, Note_on_c, 0, 79, 0
2, 150481, Note_on_c, 0, 78, 81
2, 150540, Note_on_c, 0, 78, 0
2, 150541, Note_on_c, 0, 74, 81
2, 150600, Note_on_c, 0, 74, 0
2, 150601, Note_on_c, 0, 78, 81
2, 150660, Note_on_c, 0, 78, 0
2, 150661, Note_on_c, 0, 81, 81
2, 150720, Note_on_c, 0, 81, 0
2, 150721, Note_on_c, 0, 84, 81
2, 150780, Note_on_c, 0, 84, 0
2, 150781, Note_on_c, 0, 81, 81
2, 150840, Note_on_c, 0, 81, 0
2, 150841, Note_on_c, 0, 79, 81
2, 150900, Note_on_c, 0, 79, 0
2, 150901, Note_on_c, 0, 78, 81
2, 150960, Note_on_c, 0, 78, 0
2, 150961, Note_on_c, 0, 79, 81
2, 151020, Note_on_c, 0, 79, 0
2, 151021, Note_on_c, 0, 74, 81
2, 151080, Note_on_c, 0, 74, 0
2, 151081, Note_on_c, 0, 79, 81
2, 151140, Note_on_c, 0, 79, 0
2, 151141, Note_on_c, 0, 83, 81
2, 151200, Note_on_c, 0, 83, 0
2, 151201, Note_on_c, 0, 86, 81
2, 151260, Note_on_c, 0, 86, 0
2, 151261, Note_on_c, 0, 83, 81
2, 151320, Note_on_c, 0, 83, 0
2, 151321, Note_on_c, 0, 81, 81
2, 151380, Note_on_c, 0, 81, 0
2, 151381, Note_on_c, 0, 79, 81
2, 151440, Note_on_c, 0, 79, 0
2, 151441, Note_on_c, 0, 78, 81
2, 151500, Note_on_c, 0, 78, 0
2, 151501, Note_on_c, 0, 74, 81
2, 151560, Note_on_c, 0, 74, 0
2, 151561, Note_on_c, 0, 78, 81
2, 151620, Note_on_c, 0, 78, 0
2, 151621, Note_on_c, 0, 81, 81
2, 151680, Note_on_c, 0, 81, 0
2, 151681, Note_on_c, 0, 84, 81
2, 151740, Note_on_c, 0, 84, 0
2, 151741, Note_on_c, 0, 81, 81
2, 151800, Note_on_c, 0, 81, 0
2, 151801, Note_on_c, 0, 79, 81
2, 151860, Note_on_c, 0, 79, 0
2, 151861, Note_on_c, 0, 78, 81
2, 151920, Note_on_c, 0, 78, 0
2, 151921, Note_on_c, 0, 79, 81
2, 151980, Note_on_c, 0, 79, 0
2, 151981, Note_on_c, 0, 83, 81
2, 152040, Note_on_c, 0, 83, 0
2, 152041, Note_on_c, 0, 79, 81
2, 152100, Note_on_c, 0, 79, 0
2, 152101, Note_on_c, 0, 74, 81
2, 152160, Note_on_c, 0, 74, 0
2, 152161, Note_on_c, 0, 71, 81
2, 152220, Note_on_c, 0, 71, 0
2, 152221, Note_on_c, 0, 67, 81
2, 152280, Note_on_c, 0, 67, 0
2, 152281, Note_on_c, 0, 62, 81
2, 152340, Note_on_c, 0, 62, 0
2, 152340, End_track
3, 0, Start_track
3, 0, MIDI_port, 0
3, 0, Title_t, "Franz Joseph Haydn"
3, 0, Program_c, 1, 0
3, 0, Control_c, 1, 7, 127
3, 0, Program_c, 1, 0
3, 2521, Note_on_c, 1, 66, 63
3, 2759, Note_on_c, 1, 66, 0
3, 2760, Note_on_c, 1, 67, 63
3, 2879, Note_on_c, 1, 67, 0
3, 2880, Note_on_c, 1, 67, 47
3, 2999, Note_on_c, 1, 67, 0
3, 3000, Note_on_c, 1, 66, 47
3, 3119, Note_on_c, 1, 66, 0
3, 3120, Note_on_c, 1, 66, 47
3, 3179, Note_on_c, 1, 66, 0
3, 3241, Note_on_c, 1, 66, 47
3, 3479, Note_on_c, 1, 66, 0
3, 3480, Note_on_c, 1, 68, 47
3, 3599, Note_on_c, 1, 68, 0
3, 3600, Note_on_c, 1, 69, 63
3, 3719, Note_on_c, 1, 69, 0
3, 3720, Note_on_c, 1, 71, 63
3, 3839, Note_on_c, 1, 71, 0
3, 3840, Note_on_c, 1, 72, 63
3, 3959, Note_on_c, 1, 72, 0
3, 3960, Note_on_c, 1, 72, 63
3, 4199, Note_on_c, 1, 72, 0
3, 4200, Note_on_c, 1, 69, 47
3, 4319, Note_on_c, 1, 69, 0
3, 4320, Note_on_c, 1, 67, 63
3, 4439, Note_on_c, 1, 67, 0
3, 4440, Note_on_c, 1, 69, 63
3, 4559, Note_on_c, 1, 69, 0
3, 4560, Note_on_c, 1, 71, 63
3, 4679, Note_on_c, 1, 71, 0
3, 4680, Note_on_c, 1, 67, 63
3, 5159, Note_on_c, 1, 67, 0
3, 5761, Note_on_c, 1, 67, 47
3, 5879, Note_on_c, 1, 67, 0
3, 5880, Note_on_c, 1, 66, 36
3, 5999, Note_on_c, 1, 66, 0
3, 6000, Note_on_c, 1, 66, 36
3, 6059, Note_on_c, 1, 66, 0
3, 6121, Note_on_c, 1, 66, 36
3, 6359, Note_on_c, 1, 66, 0
3, 10201, Note_on_c, 1, 74, 29
3, 10319, Note_on_c, 1, 74, 0
3, 10320, Note_on_c, 1, 76, 29
3, 10439, Note_on_c, 1, 76, 0
3, 10561, Note_on_c, 1, 78, 29
3, 10679, Note_on_c, 1, 78, 0
3, 10680, Note_on_c, 1, 79, 29
3, 10799, Note_on_c, 1, 79, 0
3, 10921, Note_on_c, 1, 81, 29
3, 11039, Note_on_c, 1, 81, 0
3, 11040, Note_on_c, 1, 79, 29
3, 11159, Note_on_c, 1, 79, 0
3, 11281, Note_on_c, 1, 72, 29
3, 11399, Note_on_c, 1, 72, 0
3, 11400, Note_on_c, 1, 71, 29
3, 11519, Note_on_c, 1, 71, 0
3, 11520, Note_on_c, 1, 72, 29
3, 12239, Note_on_c, 1, 72, 0
3, 14041, Note_on_c, 1, 66, 47
3, 14279, Note_on_c, 1, 66, 0
3, 14280, Note_on_c, 1, 67, 47
3, 14399, Note_on_c, 1, 67, 0
3, 14400, Note_on_c, 1, 67, 31
3, 14519, Note_on_c, 1, 67, 0
3, 14520, Note_on_c, 1, 66, 31
3, 14639, Note_on_c, 1, 66, 0
3, 14640, Note_on_c, 1, 66, 31
3, 14699, Note_on_c, 1, 66, 0
3, 14761, Note_on_c, 1, 66, 31
3, 14999, Note_on_c, 1, 66, 0
3, 15000, Note_on_c, 1, 68, 31
3, 15119, Note_on_c, 1, 68, 0
3, 15120, Note_on_c, 1, 69, 47
3, 15239, Note_on_c, 1, 69, 0
3, 15240, Note_on_c, 1, 71, 47
3, 15359, Note_on_c, 1, 71, 0
3, 15360, Note_on_c, 1, 72, 47
3, 15479, Note_on_c, 1, 72, 0
3, 15480, Note_on_c, 1, 72, 47
3, 15719, Note_on_c, 1, 72, 0
3, 15720, Note_on_c, 1, 69, 47
3, 15839, Note_on_c, 1, 69, 0
3, 15840, Note_on_c, 1, 67, 47
3, 15959, Note_on_c, 1, 67, 0
3, 15960, Note_on_c, 1, 69, 47
3, 16079, Note_on_c, 1, 69, 0
3, 16080, Note_on_c, 1, 71, 47
3, 16199, Note_on_c, 1, 71, 0
3, 16200, Note_on_c, 1, 71, 47
3, 16439, Note_on_c, 1, 71, 0
3, 16440, Note_on_c, 1, 59, 47
3, 16559, Note_on_c, 1, 59, 0
3, 16560, Note_on_c, 1, 60, 47
3, 16679, Note_on_c, 1, 60, 0
3, 16680, Note_on_c, 1, 64, 47
3, 16799, Note_on_c, 1, 64, 0
3, 16800, Note_on_c, 1, 62, 47
3, 16919, Note_on_c, 1, 62, 0
3, 16920, Note_on_c, 1, 60, 47
3, 17039, Note_on_c, 1, 60, 0
3, 17281, Note_on_c, 1, 60, 47
3, 17399, Note_on_c, 1, 60, 0
3, 17400, Note_on_c, 1, 59, 47
3, 17519, Note_on_c, 1, 59, 0
3, 17520, Note_on_c, 1, 59, 47
3, 17579, Note_on_c, 1, 59, 0
3, 17641, Note_on_c, 1, 59, 47
3, 17879, Note_on_c, 1, 59, 0
3, 19321, Note_on_c, 1, 73, 63
3, 19439, Note_on_c, 1, 73, 0
3, 19440, Note_on_c, 1, 74, 63
3, 19679, Note_on_c, 1, 74, 0
3, 19680, Note_on_c, 1, 73, 63
3, 19799, Note_on_c, 1, 73, 0
3, 19800, Note_on_c, 1, 74, 63
3, 20039, Note_on_c, 1, 74, 0
3, 20040, Note_on_c, 1, 65, 63
3, 20159, Note_on_c, 1, 65, 0
3, 20160, Note_on_c, 1, 65, 63
3, 20519, Note_on_c, 1, 65, 0
3, 20520, Note_on_c, 1, 65, 63
3, 20879, Note_on_c, 1, 65, 0
3, 20880, Note_on_c, 1, 65, 36
3, 21239, Note_on_c, 1, 65, 0
3, 21240, Note_on_c, 1, 67, 36
3, 21359, Note_on_c, 1, 67, 0
3, 21360, Note_on_c, 1, 67, 36
3, 21479, Note_on_c, 1, 67, 0
3, 21480, Note_on_c, 1, 67, 36
3, 21599, Note_on_c, 1, 67, 0
3, 21600, Note_on_c, 1, 67, 36
3, 21719, Note_on_c, 1, 67, 0
3, 21720, Note_on_c, 1, 65, 36
3, 21839, Note_on_c, 1, 65, 0
3, 21840, Note_on_c, 1, 64, 36
3, 21959, Note_on_c, 1, 64, 0
3, 21960, Note_on_c, 1, 65, 36
3, 22079, Note_on_c, 1, 65, 0
3, 23641, Note_on_c, 1, 67, 63
3, 23759, Note_on_c, 1, 67, 0
3, 23760, Note_on_c, 1, 69, 63
3, 23999, Note_on_c, 1, 69, 0
3, 24000, Note_on_c, 1, 67, 63
3, 24119, Note_on_c, 1, 67, 0
3, 24120, Note_on_c, 1, 69, 63
3, 24359, Note_on_c, 1, 69, 0
3, 24360, Note_on_c, 1, 67, 63
3, 24479, Note_on_c, 1, 67, 0
3, 24480, Note_on_c, 1, 78, 81
3, 24839, Note_on_c, 1, 78, 0
3, 25201, Note_on_c, 1, 75, 63
3, 25439, Note_on_c, 1, 75, 0
3, 25440, Note_on_c, 1, 75, 47
3, 25679, Note_on_c, 1, 75, 0
3, 25680, Note_on_c, 1, 74, 36
3, 25799, Note_on_c, 1, 74, 0
3, 25800, Note_on_c, 1, 72, 36
3, 25919, Note_on_c, 1, 72, 0
3, 25920, Note_on_c, 1, 72, 36
3, 26279, Note_on_c, 1, 72, 0
3, 26280, Note_on_c, 1, 70, 29
3, 26399, Note_on_c, 1, 70, 0
3, 28441, Note_on_c, 1, 66, 47
3, 28679, Note_on_c, 1, 66, 0
3, 28680, Note_on_c, 1, 67, 47
3, 28799, Note_on_c, 1, 67, 0
3, 28800, Note_on_c, 1, 67, 47
3, 28919, Note_on_c, 1, 67, 0
3, 28920, Note_on_c, 1, 66, 47
3, 29039, Note_on_c, 1, 66, 0
3, 29040, Note_on_c, 1, 66, 36
3, 29099, Note_on_c, 1, 66, 0
3, 29161, Note_on_c, 1, 66, 29
3, 29399, Note_on_c, 1, 66, 0
3, 29400, Note_on_c, 1, 68, 31
3, 29519, Note_on_c, 1, 68, 0
3, 29520, Note_on_c, 1, 69, 31
3, 29639, Note_on_c, 1, 69, 0
3, 29640, Note_on_c, 1, 71, 36
3, 29759, Note_on_c, 1, 71, 0
3, 29760, Note_on_c, 1, 72, 36
3, 29879, Note_on_c, 1, 72, 0
3, 29880, Note_on_c, 1, 72, 47
3, 30119, Note_on_c, 1, 72, 0
3, 30120, Note_on_c, 1, 71, 36
3, 30179, Note_on_c, 1, 71, 0
3, 30180, Note_on_c, 1, 69, 36
3, 30239, Note_on_c, 1, 69, 0
3, 31681, Note_on_c, 1, 67, 31
3, 31799, Note_on_c, 1, 67, 0
3, 31800, Note_on_c, 1, 66, 36
3, 31919, Note_on_c, 1, 66, 0
3, 31920, Note_on_c, 1, 66, 36
3, 31979, Note_on_c, 1, 66, 0
3, 32041, Note_on_c, 1, 66, 29
3, 32159, Note_on_c, 1, 66, 0
3, 32281, Note_on_c, 1, 67, 63
3, 32339, Note_on_c, 1, 67, 0
3, 32340, Note_on_c, 1, 71, 63
3, 32399, Note_on_c, 1, 71, 0
3, 32400, Note_on_c, 1, 71, 63
3, 32459, Note_on_c, 1, 71, 0
3, 32460, Note_on_c, 1, 74, 63
3, 32519, Note_on_c, 1, 74, 0
3, 32520, Note_on_c, 1, 71, 63
3, 32579, Note_on_c, 1, 71, 0
3, 32580, Note_on_c, 1, 74, 63
3, 32639, Note_on_c, 1, 74, 0
3, 32640, Note_on_c, 1, 72, 63
3, 32699, Note_on_c, 1, 72, 0
3, 32700, Note_on_c, 1, 76, 63
3, 32759, Note_on_c, 1, 76, 0
3, 32760, Note_on_c, 1, 71, 63
3, 32819, Note_on_c, 1, 71, 0
3, 32820, Note_on_c, 1, 74, 63
3, 32879, Note_on_c, 1, 74, 0
3, 32880, Note_on_c, 1, 69, 63
3, 32939, Note_on_c, 1, 69, 0
3, 32940, Note_on_c, 1, 72, 63
3, 32999, Note_on_c, 1, 72, 0
3, 33000, Note_on_c, 1, 67, 63
3, 33059, Note_on_c, 1, 67, 0
3, 33060, Note_on_c, 1, 71, 63
3, 33119, Note_on_c, 1, 71, 0
3, 33120, Note_on_c, 1, 66, 63
3, 33179, Note_on_c, 1, 66, 0
3, 33180, Note_on_c, 1, 69, 63
3, 33239, Note_on_c, 1, 69, 0
3, 33240, Note_on_c, 1, 66, 63
3, 33299, Note_on_c, 1, 66, 0
3, 33300, Note_on_c, 1, 69, 63
3, 33359, Note_on_c, 1, 69, 0
3, 33360, Note_on_c, 1, 66, 63
3, 33419, Note_on_c, 1, 66, 0
3, 33420, Note_on_c, 1, 69, 63
3, 33479, Note_on_c, 1, 69, 0
3, 33480, Note_on_c, 1, 66, 63
3, 33539, Note_on_c, 1, 66, 0
3, 33540, Note_on_c, 1, 69, 63
3, 33599, Note_on_c, 1, 69, 0
3, 33600, Note_on_c, 1, 66, 63
3, 33659, Note_on_c, 1, 66, 0
3, 33660, Note_on_c, 1, 69, 63
3, 33719, Note_on_c, 1, 69, 0
3, 33720, Note_on_c, 1, 66, 63
3, 33779, Note_on_c, 1, 66, 0
3, 33780, Note_on_c, 1, 69, 63
3, 33839, Note_on_c, 1, 69, 0
3, 33840, Note_on_c, 1, 67, 47
3, 34079, Note_on_c, 1, 67, 0
3, 34201, Note_on_c, 1, 67, 31
3, 34439, Note_on_c, 1, 67, 0
3, 39961, Note_on_c, 1, 66, 47
3, 40199, Note_on_c, 1, 66, 0
3, 40200, Note_on_c, 1, 67, 47
3, 40319, Note_on_c, 1, 67, 0
3, 40320, Note_on_c, 1, 67, 36
3, 40439, Note_on_c, 1, 67, 0
3, 40440, Note_on_c, 1, 66, 36
3, 40559, Note_on_c, 1, 66, 0
3, 40560, Note_on_c, 1, 66, 31
3, 40619, Note_on_c, 1, 66, 0
3, 40681, Note_on_c, 1, 66, 36
3, 40919, Note_on_c, 1, 66, 0
3, 40920, Note_on_c, 1, 68, 36
3, 41039, Note_on_c, 1, 68, 0
3, 41040, Note_on_c, 1, 69, 36
3, 41159, Note_on_c, 1, 69, 0
3, 41160, Note_on_c, 1, 71, 36
3, 41279, Note_on_c, 1, 71, 0
3, 41280, Note_on_c, 1, 72, 47
3, 41399, Note_on_c, 1, 72, 0
3, 41400, Note_on_c, 1, 72, 47
3, 41639, Note_on_c, 1, 72, 0
3, 41640, Note_on_c, 1, 71, 47
3, 41699, Note_on_c, 1, 71, 0
3, 41700, Note_on_c, 1, 69, 47
3, 41759, Note_on_c, 1, 69, 0
3, 41760, Note_on_c, 1, 67, 63
3, 41879, Note_on_c, 1, 67, 0
3, 41880, Note_on_c, 1, 69, 63
3, 41999, Note_on_c, 1, 69, 0
3, 42000, Note_on_c, 1, 71, 63
3, 42119, Note_on_c, 1, 71, 0
3, 42120, Note_on_c, 1, 59, 63
3, 42239, Note_on_c, 1, 59, 0
3, 42240, Note_on_c, 1, 60, 63
3, 42359, Note_on_c, 1, 60, 0
3, 42360, Note_on_c, 1, 62, 63
3, 42479, Note_on_c, 1, 62, 0
3, 42541, Note_on_c, 1, 64, 81
3, 42659, Note_on_c, 1, 64, 0
3, 42660, Note_on_c, 1, 62, 81
3, 42779, Note_on_c, 1, 62, 0
3, 42780, Note_on_c, 1, 60, 81
3, 42899, Note_on_c, 1, 60, 0
3, 42900, Note_on_c, 1, 60, 81
3, 43019, Note_on_c, 1, 60, 0
3, 43020, Note_on_c, 1, 60, 81
3, 43139, Note_on_c, 1, 60, 0
3, 43140, Note_on_c, 1, 60, 81
3, 43199, Note_on_c, 1, 60, 0
3, 43200, Note_on_c, 1, 60, 81
3, 43559, Note_on_c, 1, 60, 0
3, 43560, Note_on_c, 1, 59, 36
3, 43679, Note_on_c, 1, 59, 0
3, 45841, Note_on_c, 1, 85, 81
3, 46079, Note_on_c, 1, 85, 0
3, 46080, Note_on_c, 1, 69, 81
3, 46319, Note_on_c, 1, 69, 0
3, 46320, Note_on_c, 1, 67, 81
3, 46439, Note_on_c, 1, 67, 0
3, 46440, Note_on_c, 1, 65, 81
3, 46559, Note_on_c, 1, 65, 0
3, 46560, Note_on_c, 1, 77, 81
3, 46799, Note_on_c, 1, 77, 0
3, 46800, Note_on_c, 1, 65, 81
3, 47159, Note_on_c, 1, 65, 0
3, 47160, Note_on_c, 1, 67, 63
3, 47519, Note_on_c, 1, 67, 0
3, 54361, Note_on_c, 1, 66, 63
3, 54599, Note_on_c, 1, 66, 0
3, 54600, Note_on_c, 1, 67, 63
3, 54719, Note_on_c, 1, 67, 0
3, 54720, Note_on_c, 1, 67, 47
3, 54839, Note_on_c, 1, 67, 0
3, 54840, Note_on_c, 1, 66, 47
3, 54959, Note_on_c, 1, 66, 0
3, 54960, Note_on_c, 1, 66, 47
3, 55019, Note_on_c, 1, 66, 0
3, 55081, Note_on_c, 1, 66, 36
3, 55319, Note_on_c, 1, 66, 0
3, 55320, Note_on_c, 1, 68, 47
3, 55439, Note_on_c, 1, 68, 0
3, 55801, Note_on_c, 1, 84, 63
3, 55919, Note_on_c, 1, 84, 0
3, 55920, Note_on_c, 1, 83, 63
3, 56039, Note_on_c, 1, 83, 0
3, 56040, Note_on_c, 1, 81, 63
3, 56279, Note_on_c, 1, 81, 0
3, 56280, Note_on_c, 1, 79, 63
3, 56399, Note_on_c, 1, 79, 0
3, 58201, Note_on_c, 1, 74, 31
3, 58319, Note_on_c, 1, 74, 0
3, 58320, Note_on_c, 1, 74, 31
3, 58559, Note_on_c, 1, 74, 0
3, 58560, Note_on_c, 1, 76, 31
3, 58679, Note_on_c, 1, 76, 0
3, 58680, Note_on_c, 1, 74, 31
3, 58799, Note_on_c, 1, 74, 0
3, 58800, Note_on_c, 1, 72, 31
3, 58919, Note_on_c, 1, 72, 0
3, 58920, Note_on_c, 1, 71, 31
3, 59039, Note_on_c, 1, 71, 0
3, 59040, Note_on_c, 1, 69, 31
3, 59279, Note_on_c, 1, 69, 0
3, 59280, Note_on_c, 1, 69, 40
3, 59399, Note_on_c, 1, 69, 0
3, 59400, Note_on_c, 1, 69, 47
3, 59639, Note_on_c, 1, 69, 0
3, 59640, Note_on_c, 1, 69, 47
3, 59759, Note_on_c, 1, 69, 0
3, 59760, Note_on_c, 1, 71, 63
3, 60119, Note_on_c, 1, 71, 0
3, 60120, Note_on_c, 1, 67, 63
3, 60479, Note_on_c, 1, 67, 0
3, 62041, Note_on_c, 1, 66, 29
3, 62159, Note_on_c, 1, 66, 0
3, 62160, Note_on_c, 1, 67, 29
3, 62279, Note_on_c, 1, 67, 0
3, 62401, Note_on_c, 1, 69, 39
3, 62519, Note_on_c, 1, 69, 0
3, 62520, Note_on_c, 1, 70, 39
3, 62639, Note_on_c, 1, 70, 0
3, 62761, Note_on_c, 1, 72, 31
3, 62879, Note_on_c, 1, 72, 0
3, 62880, Note_on_c, 1, 70, 31
3, 62999, Note_on_c, 1, 70, 0
3, 63121, Note_on_c, 1, 69, 31
3, 63239, Note_on_c, 1, 69, 0
3, 63240, Note_on_c, 1, 67, 31
3, 63359, Note_on_c, 1, 67, 0
3, 63360, Note_on_c, 1, 66, 33
3, 63599, Note_on_c, 1, 66, 0
3, 64081, Note_on_c, 1, 84, 30
3, 64139, Note_on_c, 1, 84, 0
3, 64201, Note_on_c, 1, 84, 30
3, 64259, Note_on_c, 1, 84, 0
3, 64321, Note_on_c, 1, 84, 30
3, 64379, Note_on_c, 1, 84, 0
3, 64441, Note_on_c, 1, 84, 30
3, 64499, Note_on_c, 1, 84, 0
3, 64561, Note_on_c, 1, 84, 30
3, 64619, Note_on_c, 1, 84, 0
3, 64681, Note_on_c, 1, 84, 30
3, 64739, Note_on_c, 1, 84, 0
3, 64801, Note_on_c, 1, 84, 30
3, 64859, Note_on_c, 1, 84, 0
3, 64921, Note_on_c, 1, 84, 30
3, 64979, Note_on_c, 1, 84, 0
3, 65041, Note_on_c, 1, 84, 30
3, 65099, Note_on_c, 1, 84, 0
3, 65161, Note_on_c, 1, 84, 30
3, 65519, Note_on_c, 1, 84, 0
3, 65761, Note_on_c, 1, 72, 30
3, 65819, Note_on_c, 1, 72, 0
3, 65881, Note_on_c, 1, 72, 30
3, 66119, Note_on_c, 1, 72, 0
3, 67561, Note_on_c, 1, 66, 63
3, 67679, Note_on_c, 1, 66, 0
3, 67680, Note_on_c, 1, 67, 63
3, 67799, Note_on_c, 1, 67, 0
3, 67921, Note_on_c, 1, 67, 63
3, 68039, Note_on_c, 1, 67, 0
3, 68040, Note_on_c, 1, 69, 63
3, 68279, Note_on_c, 1, 69, 0
3, 68280, Note_on_c, 1, 67, 63
3, 68399, Note_on_c, 1, 67, 0
3, 69601, Note_on_c, 1, 68, 63
3, 69839, Note_on_c, 1, 68, 0
3, 69840, Note_on_c, 1, 69, 47
3, 69959, Note_on_c, 1, 69, 0
3, 69960, Note_on_c, 1, 71, 47
3, 70079, Note_on_c, 1, 71, 0
3, 70080, Note_on_c, 1, 72, 37
3, 70139, Note_on_c, 1, 72, 0
3, 70201, Note_on_c, 1, 72, 37
3, 70319, Note_on_c, 1, 72, 0
3, 70441, Note_on_c, 1, 66, 63
3, 70559, Note_on_c, 1, 66, 0
3, 70560, Note_on_c, 1, 67, 47
3, 70679, Note_on_c, 1, 67, 0
3, 70680, Note_on_c, 1, 69, 47
3, 70799, Note_on_c, 1, 69, 0
3, 70800, Note_on_c, 1, 71, 37
3, 70859, Note_on_c, 1, 71, 0
3, 72361, Note_on_c, 1, 62, 81
3, 72479, Note_on_c, 1, 62, 0
3, 75602, Note_on_c, 1, 67, 31
3, 75660, Note_on_c, 1, 67, 0
3, 75722, Note_on_c, 1, 67, 31
3, 75780, Note_on_c, 1, 67, 0
3, 75842, Note_on_c, 1, 67, 31
3, 75900, Note_on_c, 1, 67, 0
3, 75962, Note_on_c, 1, 67, 31
3, 76020, Note_on_c, 1, 67, 0
3, 76082, Note_on_c, 1, 67, 31
3, 76440, Note_on_c, 1, 67, 0
3, 76441, Note_on_c, 1, 65, 31
3, 76560, Note_on_c, 1, 65, 0
3, 76561, Note_on_c, 1, 64, 31
3, 76800, Note_on_c, 1, 64, 0
3, 76801, Note_on_c, 1, 64, 31
3, 77040, Note_on_c, 1, 64, 0
3, 77041, Note_on_c, 1, 62, 31
3, 77280, Note_on_c, 1, 62, 0
3, 79442, Note_on_c, 1, 71, 31
3, 79500, Note_on_c, 1, 71, 0
3, 79562, Note_on_c, 1, 71, 31
3, 79620, Note_on_c, 1, 71, 0
3, 79682, Note_on_c, 1, 71, 47
3, 79740, Note_on_c, 1, 71, 0
3, 79802, Note_on_c, 1, 71, 47
3, 79860, Note_on_c, 1, 71, 0
3, 79922, Note_on_c, 1, 71, 47
3, 79980, Note_on_c, 1, 71, 0
3, 80042, Note_on_c, 1, 71, 47
3, 80100, Note_on_c, 1, 71, 0
3, 80162, Note_on_c, 1, 71, 63
3, 80220, Note_on_c, 1, 71, 0
3, 80282, Note_on_c, 1, 71, 63
3, 80340, Note_on_c, 1, 71, 0
3, 80402, Note_on_c, 1, 66, 63
3, 80460, Note_on_c, 1, 66, 0
3, 80522, Note_on_c, 1, 66, 63
3, 80580, Note_on_c, 1, 66, 0
3, 80642, Note_on_c, 1, 64, 63
3, 80700, Note_on_c, 1, 64, 0
3, 80762, Note_on_c, 1, 64, 63
3, 80820, Note_on_c, 1, 64, 0
3, 80882, Note_on_c, 1, 66, 63
3, 80940, Note_on_c, 1, 66, 0
3, 81002, Note_on_c, 1, 66, 63
3, 81060, Note_on_c, 1, 66, 0
3, 81122, Note_on_c, 1, 66, 63
3, 81180, Note_on_c, 1, 66, 0
3, 81242, Note_on_c, 1, 66, 63
3, 81300, Note_on_c, 1, 66, 0
3, 81362, Note_on_c, 1, 67, 63
3, 81420, Note_on_c, 1, 67, 0
3, 81482, Note_on_c, 1, 67, 63
3, 81540, Note_on_c, 1, 67, 0
3, 81602, Note_on_c, 1, 67, 63
3, 81660, Note_on_c, 1, 67, 0
3, 81722, Note_on_c, 1, 67, 63
3, 81780, Note_on_c, 1, 67, 0
3, 81842, Note_on_c, 1, 66, 63
3, 81900, Note_on_c, 1, 66, 0
3, 81962, Note_on_c, 1, 66, 63
3, 82020, Note_on_c, 1, 66, 0
3, 82082, Note_on_c, 1, 66, 63
3, 82140, Note_on_c, 1, 66, 0
3, 82202, Note_on_c, 1, 66, 63
3, 82260, Note_on_c, 1, 66, 0
3, 82322, Note_on_c, 1, 67, 63
3, 82380, Note_on_c, 1, 67, 0
3, 82442, Note_on_c, 1, 67, 63
3, 82500, Note_on_c, 1, 67, 0
3, 82562, Note_on_c, 1, 67, 63
3, 82620, Note_on_c, 1, 67, 0
3, 82682, Note_on_c, 1, 67, 63
3, 82740, Note_on_c, 1, 67, 0
3, 82802, Note_on_c, 1, 66, 81
3, 83040, Note_on_c, 1, 66, 0
3, 89042, Note_on_c, 1, 74, 31
3, 89100, Note_on_c, 1, 74, 0
3, 89162, Note_on_c, 1, 74, 31
3, 89220, Note_on_c, 1, 74, 0
3, 89282, Note_on_c, 1, 74, 31
3, 89340, Note_on_c, 1, 74, 0
3, 89402, Note_on_c, 1, 74, 31
3, 89460, Note_on_c, 1, 74, 0
3, 89522, Note_on_c, 1, 72, 31
3, 89760, Note_on_c, 1, 72, 0
3, 90002, Note_on_c, 1, 72, 31
3, 90060, Note_on_c, 1, 72, 0
3, 90122, Note_on_c, 1, 72, 31
3, 90180, Note_on_c, 1, 72, 0
3, 90242, Note_on_c, 1, 72, 31
3, 90300, Note_on_c, 1, 72, 0
3, 90362, Note_on_c, 1, 72, 19
3, 90420, Note_on_c, 1, 72, 0
3, 90482, Note_on_c, 1, 71, 19
3, 90720, Note_on_c, 1, 71, 0
3, 92402, Note_on_c, 1, 67, 31
3, 92640, Note_on_c, 1, 67, 0
3, 92822, Note_on_c, 1, 67, 29
3, 92850, Note_on_c, 1, 67, 0
3, 92851, Note_on_c, 1, 65, 29
3, 92880, Note_on_c, 1, 65, 0
3, 92881, Note_on_c, 1, 63, 29
3, 93120, Note_on_c, 1, 63, 0
3, 93302, Note_on_c, 1, 69, 47
3, 93330, Note_on_c, 1, 69, 0
3, 93331, Note_on_c, 1, 67, 47
3, 93360, Note_on_c, 1, 67, 0
3, 93361, Note_on_c, 1, 66, 47
3, 93600, Note_on_c, 1, 66, 0
3, 93601, Note_on_c, 1, 67, 31
3, 93840, Note_on_c, 1, 67, 0
3, 93841, Note_on_c, 1, 64, 31
3, 94080, Note_on_c, 1, 64, 0
3, 94081, Note_on_c, 1, 62, 31
3, 94320, Note_on_c, 1, 62, 0
3, 97562, Note_on_c, 1, 71, 63
3, 97680, Note_on_c, 1, 71, 0
3, 97681, Note_on_c, 1, 69, 63
3, 98040, Note_on_c, 1, 69, 0
3, 98041, Note_on_c, 1, 72, 63
3, 98160, Note_on_c, 1, 72, 0
3, 98161, Note_on_c, 1, 71, 63
3, 98520, Note_on_c, 1, 71, 0
3, 98521, Note_on_c, 1, 70, 63
3, 98640, Note_on_c, 1, 70, 0
3, 98641, Note_on_c, 1, 71, 63
3, 99000, Note_on_c, 1, 71, 0
3, 99001, Note_on_c, 1, 66, 63
3, 99120, Note_on_c, 1, 66, 0
3, 99362, Note_on_c, 1, 85, 63
3, 99600, Note_on_c, 1, 85, 0
3, 99601, Note_on_c, 1, 83, 63
3, 99960, Note_on_c, 1, 83, 0
3, 99961, Note_on_c, 1, 76, 50
3, 100200, Note_on_c, 1, 76, 0
3, 100201, Note_on_c, 1, 74, 31
3, 100440, Note_on_c, 1, 74, 0
3, 100441, Note_on_c, 1, 73, 36
3, 100560, Note_on_c, 1, 73, 0
3, 101402, Note_on_c, 1, 71, 63
3, 101520, Note_on_c, 1, 71, 0
3, 101521, Note_on_c, 1, 69, 63
3, 101880, Note_on_c, 1, 69, 0
3, 101881, Note_on_c, 1, 72, 63
3, 102000, Note_on_c, 1, 72, 0
3, 102001, Note_on_c, 1, 71, 63
3, 102360, Note_on_c, 1, 71, 0
3, 102361, Note_on_c, 1, 70, 63
3, 102480, Note_on_c, 1, 70, 0
3, 102481, Note_on_c, 1, 71, 63
3, 102840, Note_on_c, 1, 71, 0
3, 102841, Note_on_c, 1, 66, 63
3, 102960, Note_on_c, 1, 66, 0
3, 103202, Note_on_c, 1, 85, 63
3, 103440, Note_on_c, 1, 85, 0
3, 103441, Note_on_c, 1, 83, 63
3, 103800, Note_on_c, 1, 83, 0
3, 103801, Note_on_c, 1, 76, 47
3, 104040, Note_on_c, 1, 76, 0
3, 104041, Note_on_c, 1, 74, 47
3, 104280, Note_on_c, 1, 74, 0
3, 104281, Note_on_c, 1, 73, 39
3, 104400, Note_on_c, 1, 73, 0
3, 107282, Note_on_c, 1, 81, 31
3, 107640, Note_on_c, 1, 81, 0
3, 107641, Note_on_c, 1, 79, 31
3, 107880, Note_on_c, 1, 79, 0
3, 107881, Note_on_c, 1, 78, 27
3, 108120, Note_on_c, 1, 78, 0
3, 108121, Note_on_c, 1, 76, 27
3, 108360, Note_on_c, 1, 76, 0
3, 108361, Note_on_c, 1, 75, 26
3, 108480, Note_on_c, 1, 75, 0
3, 109082, Note_on_c, 1, 67, 63
3, 109200, Note_on_c, 1, 67, 0
3, 109201, Note_on_c, 1, 69, 63
3, 109560, Note_on_c, 1, 69, 0
3, 109561, Note_on_c, 1, 69, 63
3, 109680, Note_on_c, 1, 69, 0
3, 109681, Note_on_c, 1, 71, 63
3, 110040, Note_on_c, 1, 71, 0
3, 110041, Note_on_c, 1, 71, 63
3, 110160, Note_on_c, 1, 71, 0
3, 110161, Note_on_c, 1, 72, 63
3, 110520, Note_on_c, 1, 72, 0
3, 116402, Note_on_c, 1, 62, 39
3, 116640, Note_on_c, 1, 62, 0
3, 116762, Note_on_c, 1, 62, 39
3, 116880, Note_on_c, 1, 62, 0
3, 116881, Note_on_c, 1, 59, 39
3, 117120, Note_on_c, 1, 59, 0
3, 117242, Note_on_c, 1, 59, 47
3, 117360, Note_on_c, 1, 59, 0
3, 117361, Note_on_c, 1, 60, 47
3, 117600, Note_on_c, 1, 60, 0
3, 117722, Note_on_c, 1, 60, 36
3, 117840, Note_on_c, 1, 60, 0
3, 117841, Note_on_c, 1, 61, 36
3, 118080, Note_on_c, 1, 61, 0
3, 118202, Note_on_c, 1, 61, 36
3, 118320, Note_on_c, 1, 61, 0
3, 118321, Note_on_c, 1, 62, 36
3, 118560, Note_on_c, 1, 62, 0
3, 119282, Note_on_c, 1, 61, 31
3, 119520, Note_on_c, 1, 61, 0
3, 119642, Note_on_c, 1, 61, 31
3, 119760, Note_on_c, 1, 61, 0
3, 119761, Note_on_c, 1, 60, 31
3, 120000, Note_on_c, 1, 60, 0
3, 121682, Note_on_c, 1, 67, 31
3, 121740, Note_on_c, 1, 67, 0
3, 121802, Note_on_c, 1, 67, 31
3, 121860, Note_on_c, 1, 67, 0
3, 121922, Note_on_c, 1, 67, 31
3, 121980, Note_on_c, 1, 67, 0
3, 122042, Note_on_c, 1, 67, 31
3, 122100, Note_on_c, 1, 67, 0
3, 122162, Note_on_c, 1, 67, 31
3, 122520, Note_on_c, 1, 67, 0
3, 122521, Note_on_c, 1, 65, 31
3, 122640, Note_on_c, 1, 65, 0
3, 122641, Note_on_c, 1, 64, 31
3, 122880, Note_on_c, 1, 64, 0
3, 122881, Note_on_c, 1, 64, 47
3, 123120, Note_on_c, 1, 64, 0
3, 123121, Note_on_c, 1, 62, 39
3, 123360, Note_on_c, 1, 62, 0
3, 125042, Note_on_c, 1, 71, 50
3, 125100, Note_on_c, 1, 71, 0
3, 125162, Note_on_c, 1, 71, 50
3, 125220, Note_on_c, 1, 71, 0
3, 125282, Note_on_c, 1, 71, 55
3, 125340, Note_on_c, 1, 71, 0
3, 125402, Note_on_c, 1, 71, 39
3, 125460, Note_on_c, 1, 71, 0
3, 125522, Note_on_c, 1, 71, 39
3, 125580, Note_on_c, 1, 71, 0
3, 125642, Note_on_c, 1, 71, 39
3, 125700, Note_on_c, 1, 71, 0
3, 125762, Note_on_c, 1, 71, 50
3, 125820, Note_on_c, 1, 71, 0
3, 125882, Note_on_c, 1, 71, 50
3, 125940, Note_on_c, 1, 71, 0
3, 126002, Note_on_c, 1, 71, 63
3, 126060, Note_on_c, 1, 71, 0
3, 126122, Note_on_c, 1, 71, 63
3, 126180, Note_on_c, 1, 71, 0
3, 126242, Note_on_c, 1, 71, 50
3, 126300, Note_on_c, 1, 71, 0
3, 126362, Note_on_c, 1, 71, 50
3, 126420, Note_on_c, 1, 71, 0
3, 126482, Note_on_c, 1, 66, 47
3, 126540, Note_on_c, 1, 66, 0
3, 126602, Note_on_c, 1, 66, 47
3, 126660, Note_on_c, 1, 66, 0
3, 126722, Note_on_c, 1, 64, 39
3, 126780, Note_on_c, 1, 64, 0
3, 126842, Note_on_c, 1, 64, 39
3, 126900, Note_on_c, 1, 64, 0
3, 126962, Note_on_c, 1, 66, 63
3, 127020, Note_on_c, 1, 66, 0
3, 127082, Note_on_c, 1, 66, 63
3, 127140, Note_on_c, 1, 66, 0
3, 127202, Note_on_c, 1, 66, 63
3, 127260, Note_on_c, 1, 66, 0
3, 127322, Note_on_c, 1, 66, 63
3, 127380, Note_on_c, 1, 66, 0
3, 127442, Note_on_c, 1, 67, 63
3, 127500, Note_on_c, 1, 67, 0
3, 127562, Note_on_c, 1, 67, 63
3, 127620, Note_on_c, 1, 67, 0
3, 127682, Note_on_c, 1, 67, 63
3, 127740, Note_on_c, 1, 67, 0
3, 127802, Note_on_c, 1, 67, 63
3, 127860, Note_on_c, 1, 67, 0
3, 127922, Note_on_c, 1, 66, 63
3, 127980, Note_on_c, 1, 66, 0
3, 128042, Note_on_c, 1, 66, 63
3, 128100, Note_on_c, 1, 66, 0
3, 128162, Note_on_c, 1, 66, 50
3, 128220, Note_on_c, 1, 66, 0
3, 128282, Note_on_c, 1, 66, 50
3, 128340, Note_on_c, 1, 66, 0
3, 128402, Note_on_c, 1, 67, 39
3, 128460, Note_on_c, 1, 67, 0
3, 128522, Note_on_c, 1, 67, 39
3, 128580, Note_on_c, 1, 67, 0
3, 128642, Note_on_c, 1, 67, 50
3, 128700, Note_on_c, 1, 67, 0
3, 128762, Note_on_c, 1, 67, 50
3, 128820, Note_on_c, 1, 67, 0
3, 128882, Note_on_c, 1, 66, 50
3, 128940, Note_on_c, 1, 66, 0
3, 129002, Note_on_c, 1, 66, 50
3, 129060, Note_on_c, 1, 66, 0
3, 129122, Note_on_c, 1, 66, 39
3, 129180, Note_on_c, 1, 66, 0
3, 129242, Note_on_c, 1, 66, 39
3, 129300, Note_on_c, 1, 66, 0
3, 129362, Note_on_c, 1, 66, 39
3, 129480, Note_on_c, 1, 66, 0
3, 131282, Note_on_c, 1, 65, 63
3, 131340, Note_on_c, 1, 65, 0
3, 131341, Note_on_c, 1, 67, 63
3, 131400, Note_on_c, 1, 67, 0
3, 131401, Note_on_c, 1, 65, 63
3, 131460, Note_on_c, 1, 65, 0
3, 131461, Note_on_c, 1, 67, 63
3, 131520, Note_on_c, 1, 67, 0
3, 131521, Note_on_c, 1, 65, 63
3, 131580, Note_on_c, 1, 65, 0
3, 131581, Note_on_c, 1, 67, 63
3, 131640, Note_on_c, 1, 67, 0
3, 131641, Note_on_c, 1, 65, 63
3, 131700, Note_on_c, 1, 65, 0
3, 131701, Note_on_c, 1, 67, 63
3, 131760, Note_on_c, 1, 67, 0
3, 131761, Note_on_c, 1, 64, 63
3, 132000, Note_on_c, 1, 64, 0
3, 132122, Note_on_c, 1, 64, 63
3, 132180, Note_on_c, 1, 64, 0
3, 132181, Note_on_c, 1, 62, 63
3, 132240, Note_on_c, 1, 62, 0
3, 132241, Note_on_c, 1, 60, 63
3, 132480, Note_on_c, 1, 60, 0
3, 135122, Note_on_c, 1, 71, 31
3, 135180, Note_on_c, 1, 71, 0
3, 135242, Note_on_c, 1, 71, 31
3, 135300, Note_on_c, 1, 71, 0
3, 135362, Note_on_c, 1, 71, 39
3, 135420, Note_on_c, 1, 71, 0
3, 135482, Note_on_c, 1, 71, 39
3, 135540, Note_on_c, 1, 71, 0
3, 135602, Note_on_c, 1, 71, 50
3, 135660, Note_on_c, 1, 71, 0
3, 135722, Note_on_c, 1, 71, 45
3, 135780, Note_on_c, 1, 71, 0
3, 135842, Note_on_c, 1, 71, 39
3, 135900, Note_on_c, 1, 71, 0
3, 135962, Note_on_c, 1, 71, 39
3, 136020, Note_on_c, 1, 71, 0
3, 136082, Note_on_c, 1, 66, 31
3, 136140, Note_on_c, 1, 66, 0
3, 136202, Note_on_c, 1, 66, 31
3, 136260, Note_on_c, 1, 66, 0
3, 136322, Note_on_c, 1, 64, 29
3, 136380, Note_on_c, 1, 64, 0
3, 136442, Note_on_c, 1, 64, 29
3, 136500, Note_on_c, 1, 64, 0
3, 136562, Note_on_c, 1, 66, 63
3, 136620, Note_on_c, 1, 66, 0
3, 136682, Note_on_c, 1, 66, 63
3, 136740, Note_on_c, 1, 66, 0
3, 136802, Note_on_c, 1, 66, 63
3, 136860, Note_on_c, 1, 66, 0
3, 136922, Note_on_c, 1, 66, 63
3, 136980, Note_on_c, 1, 66, 0
3, 137042, Note_on_c, 1, 67, 63
3, 137100, Note_on_c, 1, 67, 0
3, 137162, Note_on_c, 1, 67, 63
3, 137220, Note_on_c, 1, 67, 0
3, 137282, Note_on_c, 1, 67, 63
3, 137340, Note_on_c, 1, 67, 0
3, 137402, Note_on_c, 1, 67, 63
3, 137460, Note_on_c, 1, 67, 0
3, 137522, Note_on_c, 1, 66, 63
3, 137580, Note_on_c, 1, 66, 0
3, 137642, Note_on_c, 1, 66, 63
3, 137700, Note_on_c, 1, 66, 0
3, 137762, Note_on_c, 1, 66, 50
3, 137820, Note_on_c, 1, 66, 0
3, 137882, Note_on_c, 1, 66, 38
3, 137940, Note_on_c, 1, 66, 0
3, 138002, Note_on_c, 1, 67, 31
3, 138060, Note_on_c, 1, 67, 0
3, 138122, Note_on_c, 1, 67, 31
3, 138180, Note_on_c, 1, 67, 0
3, 138242, Note_on_c, 1, 67, 38
3, 138300, Note_on_c, 1, 67, 0
3, 138362, Note_on_c, 1, 67, 50
3, 138420, Note_on_c, 1, 67, 0
3, 138482, Note_on_c, 1, 66, 50
3, 138540, Note_on_c, 1, 66, 0
3, 138602, Note_on_c, 1, 66, 39
3, 138660, Note_on_c, 1, 66, 0
3, 138722, Note_on_c, 1, 66, 39
3, 138780, Note_on_c, 1, 66, 0
3, 138842, Note_on_c, 1, 66, 31
3, 138900, Note_on_c, 1, 66, 0
3, 138962, Note_on_c, 1, 66, 29
3, 139080, Note_on_c, 1, 66, 0
3, 144722, Note_on_c, 1, 74, 63
3, 144780, Note_on_c, 1, 74, 0
3, 144842, Note_on_c, 1, 74, 63
3, 144900, Note_on_c, 1, 74, 0
3, 144962, Note_on_c, 1, 74, 63
3, 145020, Note_on_c, 1, 74, 0
3, 145082, Note_on_c, 1, 74, 63
3, 145140, Note_on_c, 1, 74, 0
3, 145202, Note_on_c, 1, 72, 63
3, 145440, Note_on_c, 1, 72, 0
3, 145562, Note_on_c, 1, 72, 36
3, 145620, Note_on_c, 1, 72, 0
3, 145682, Note_on_c, 1, 72, 31
3, 145740, Note_on_c, 1, 72, 0
3, 145802, Note_on_c, 1, 72, 28
3, 145860, Note_on_c, 1, 72, 0
3, 145922, Note_on_c, 1, 72, 28
3, 145980, Note_on_c, 1, 72, 0
3, 146042, Note_on_c, 1, 72, 28
3, 146100, Note_on_c, 1, 72, 0
3, 146162, Note_on_c, 1, 71, 28
3, 146400, Note_on_c, 1, 71, 0
3, 148082, Note_on_c, 1, 67, 47
3, 148320, Note_on_c, 1, 67, 0
3, 148562, Note_on_c, 1, 63, 47
3, 148620, Note_on_c, 1, 63, 0
3, 148621, Note_on_c, 1, 67, 47
3, 148680, Note_on_c, 1, 67, 0
3, 148681, Note_on_c, 1, 63, 47
3, 148740, Note_on_c, 1, 63, 0
3, 148741, Note_on_c, 1, 67, 47
3, 148800, Note_on_c, 1, 67, 0
3, 148801, Note_on_c, 1, 63, 47
3, 148860, Note_on_c, 1, 63, 0
3, 148861, Note_on_c, 1, 67, 47
3, 148920, Note_on_c, 1, 67, 0
3, 148921, Note_on_c, 1, 63, 47
3, 148980, Note_on_c, 1, 63, 0
3, 148981, Note_on_c, 1, 67, 63
3, 149040, Note_on_c, 1, 67, 0
3, 149041, Note_on_c, 1, 66, 63
3, 149280, Note_on_c, 1, 66, 0
3, 149281, Note_on_c, 1, 67, 63
3, 149520, Note_on_c, 1, 67, 0
3, 149521, Note_on_c, 1, 72, 63
3, 149760, Note_on_c, 1, 72, 0
3, 149761, Note_on_c, 1, 72, 63
3, 150000, Note_on_c, 1, 72, 0
3, 150001, Note_on_c, 1, 71, 63
3, 150120, Note_on_c, 1, 71, 0
3, 150121, Note_on_c, 1, 71, 63
3, 150240, Note_on_c, 1, 71, 0
3, 150241, Note_on_c, 1, 71, 63
3, 150360, Note_on_c, 1, 71, 0
3, 150361, Note_on_c, 1, 71, 63
3, 150480, Note_on_c, 1, 71, 0
3, 150481, Note_on_c, 1, 72, 63
3, 150600, Note_on_c, 1, 72, 0
3, 150601, Note_on_c, 1, 72, 63
3, 150720, Note_on_c, 1, 72, 0
3, 150721, Note_on_c, 1, 72, 63
3, 150840, Note_on_c, 1, 72, 0
3, 150841, Note_on_c, 1, 72, 63
3, 150960, Note_on_c, 1, 72, 0
3, 150961, Note_on_c, 1, 71, 63
3, 151080, Note_on_c, 1, 71, 0
3, 151081, Note_on_c, 1, 71, 63
3, 151200, Note_on_c, 1, 71, 0
3, 151201, Note_on_c, 1, 71, 63
3, 151320, Note_on_c, 1, 71, 0
3, 151321, Note_on_c, 1, 71, 63
3, 151440, Note_on_c, 1, 71, 0
3, 151441, Note_on_c, 1, 72, 63
3, 151560, Note_on_c, 1, 72, 0
3, 151561, Note_on_c, 1, 72, 63
3, 151680, Note_on_c, 1, 72, 0
3, 151681, Note_on_c, 1, 72, 63
3, 151800, Note_on_c, 1, 72, 0
3, 151801, Note_on_c, 1, 72, 63
3, 151920, Note_on_c, 1, 72, 0
3, 151921, Note_on_c, 1, 71, 63
3, 152160, Note_on_c, 1, 71, 0
3, 152160, End_track
4, 0, Start_track
4, 0, MIDI_port, 0
4, 0, Title_t, "(Augener Edition)"
4, 0, Program_c, 2, 0
4, 0, Control_c, 2, 7, 127
4, 0, Program_c, 2, 0
4, 11521, Note_on_c, 2, 69, 29
4, 12239, Note_on_c, 2, 69, 0
4, 24481, Note_on_c, 2, 75, 81
4, 24959, Note_on_c, 2, 75, 0
4, 24960, Note_on_c, 2, 74, 63
4, 25079, Note_on_c, 2, 74, 0
4, 25080, Note_on_c, 2, 74, 63
4, 25199, Note_on_c, 2, 74, 0
4, 25321, Note_on_c, 2, 72, 47
4, 25439, Note_on_c, 2, 72, 0
4, 25440, Note_on_c, 2, 72, 47
4, 25679, Note_on_c, 2, 72, 0
4, 25680, Note_on_c, 2, 70, 36
4, 25799, Note_on_c, 2, 70, 0
4, 25800, Note_on_c, 2, 69, 36
4, 25919, Note_on_c, 2, 69, 0
4, 25920, Note_on_c, 2, 69, 36
4, 26279, Note_on_c, 2, 69, 0
4, 26280, Note_on_c, 2, 67, 29
4, 26399, Note_on_c, 2, 67, 0
4, 34201, Note_on_c, 2, 64, 19
4, 34439, Note_on_c, 2, 64, 0
4, 45841, Note_on_c, 2, 82, 81
4, 46079, Note_on_c, 2, 82, 0
4, 46080, Note_on_c, 2, 65, 81
4, 46319, Note_on_c, 2, 65, 0
4, 46320, Note_on_c, 2, 64, 81
4, 46439, Note_on_c, 2, 64, 0
4, 46440, Note_on_c, 2, 62, 81
4, 46559, Note_on_c, 2, 62, 0
4, 46560, Note_on_c, 2, 71, 81
4, 46799, Note_on_c, 2, 71, 0
4, 46800, Note_on_c, 2, 62, 81
4, 47159, Note_on_c, 2, 62, 0
4, 47160, Note_on_c, 2, 64, 47
4, 47519, Note_on_c, 2, 64, 0
4, 58201, Note_on_c, 2, 71, 31
4, 58319, Note_on_c, 2, 71, 0
4, 58320, Note_on_c, 2, 71, 31
4, 58559, Note_on_c, 2, 71, 0
4, 58560, Note_on_c, 2, 72, 31
4, 58679, Note_on_c, 2, 72, 0
4, 58680, Note_on_c, 2, 71, 31
4, 58799, Note_on_c, 2, 71, 0
4, 58800, Note_on_c, 2, 69, 31
4, 58919, Note_on_c, 2, 69, 0
4, 58920, Note_on_c, 2, 67, 31
4, 59039, Note_on_c, 2, 67, 0
4, 59040, Note_on_c, 2, 66, 31
4, 59279, Note_on_c, 2, 66, 0
4, 59280, Note_on_c, 2, 66, 40
4, 59399, Note_on_c, 2, 66, 0
4, 59400, Note_on_c, 2, 66, 47
4, 59639, Note_on_c, 2, 66, 0
4, 59640, Note_on_c, 2, 66, 47
4, 59759, Note_on_c, 2, 66, 0
4, 59760, Note_on_c, 2, 67, 63
4, 60119, Note_on_c, 2, 67, 0
4, 60120, Note_on_c, 2, 64, 63
4, 60479, Note_on_c, 2, 64, 0
4, 62041, Note_on_c, 2, 62, 29
4, 62159, Note_on_c, 2, 62, 0
4, 62160, Note_on_c, 2, 64, 29
4, 62279, Note_on_c, 2, 64, 0
4, 62401, Note_on_c, 2, 66, 39
4, 62519, Note_on_c, 2, 66, 0
4, 62520, Note_on_c, 2, 67, 39
4, 62639, Note_on_c, 2, 67, 0
4, 62761, Note_on_c, 2, 69, 31
4, 62879, Note_on_c, 2, 69, 0
4, 62880, Note_on_c, 2, 67, 31
4, 62999, Note_on_c, 2, 67, 0
4, 63121, Note_on_c, 2, 66, 31
4, 63239, Note_on_c, 2, 66, 0
4, 63240, Note_on_c, 2, 64, 31
4, 63359, Note_on_c, 2, 64, 0
4, 63360, Note_on_c, 2, 62, 31
4, 63599, Note_on_c, 2, 62, 0
4, 64081, Note_on_c, 2, 81, 30
4, 64139, Note_on_c, 2, 81, 0
4, 64201, Note_on_c, 2, 81, 30
4, 64259, Note_on_c, 2, 81, 0
4, 64321, Note_on_c, 2, 81, 30
4, 64379, Note_on_c, 2, 81, 0
4, 64441, Note_on_c, 2, 81, 30
4, 64499, Note_on_c, 2, 81, 0
4, 64561, Note_on_c, 2, 81, 30
4, 64619, Note_on_c, 2, 81, 0
4, 64681, Note_on_c, 2, 81, 30
4, 64739, Note_on_c, 2, 81, 0
4, 64801, Note_on_c, 2, 81, 30
4, 64859, Note_on_c, 2, 81, 0
4, 64921, Note_on_c, 2, 81, 30
4, 64979, Note_on_c, 2, 81, 0
4, 65041, Note_on_c, 2, 81, 30
4, 65099, Note_on_c, 2, 81, 0
4, 65161, Note_on_c, 2, 81, 30
4, 65519, Note_on_c, 2, 81, 0
4, 65761, Note_on_c, 2, 69, 30
4, 65819, Note_on_c, 2, 69, 0
4, 65881, Note_on_c, 2, 69, 30
4, 66119, Note_on_c, 2, 69, 0
4, 67561, Note_on_c, 2, 62, 63
4, 67679, Note_on_c, 2, 62, 0
4, 67680, Note_on_c, 2, 62, 63
4, 67799, Note_on_c, 2, 62, 0
4, 67921, Note_on_c, 2, 62, 63
4, 68039, Note_on_c, 2, 62, 0
4, 68040, Note_on_c, 2, 62, 63
4, 68279, Note_on_c, 2, 62, 0
4, 68280, Note_on_c, 2, 62, 63
4, 68399, Note_on_c, 2, 62, 0
4, 72361, Note_on_c, 2, 59, 81
4, 72479, Note_on_c, 2, 59, 0
4, 75602, Note_on_c, 2, 65, 31
4, 75660, Note_on_c, 2, 65, 0
4, 75722, Note_on_c, 2, 65, 31
4, 75780, Note_on_c, 2, 65, 0
4, 75842, Note_on_c, 2, 65, 31
4, 75900, Note_on_c, 2, 65, 0
4, 75962, Note_on_c, 2, 65, 31
4, 76020, Note_on_c, 2, 65, 0
4, 76082, Note_on_c, 2, 64, 31
4, 76440, Note_on_c, 2, 64, 0
4, 76441, Note_on_c, 2, 62, 31
4, 76560, Note_on_c, 2, 62, 0
4, 76561, Note_on_c, 2, 60, 31
4, 76800, Note_on_c, 2, 60, 0
4, 76801, Note_on_c, 2, 61, 31
4, 77040, Note_on_c, 2, 61, 0
4, 79442, Note_on_c, 2, 67, 31
4, 79500, Note_on_c, 2, 67, 0
4, 79562, Note_on_c, 2, 67, 31
4, 79620, Note_on_c, 2, 67, 0
4, 79682, Note_on_c, 2, 67, 47
4, 79740, Note_on_c, 2, 67, 0
4, 79802, Note_on_c, 2, 67, 47
4, 79860, Note_on_c, 2, 67, 0
4, 79922, Note_on_c, 2, 67, 47
4, 79980, Note_on_c, 2, 67, 0
4, 80042, Note_on_c, 2, 67, 47
4, 80100, Note_on_c, 2, 67, 0
4, 80162, Note_on_c, 2, 67, 63
4, 80220, Note_on_c, 2, 67, 0
4, 80282, Note_on_c, 2, 67, 63
4, 80340, Note_on_c, 2, 67, 0
4, 89042, Note_on_c, 2, 68, 31
4, 89100, Note_on_c, 2, 68, 0
4, 89162, Note_on_c, 2, 68, 31
4, 89220, Note_on_c, 2, 68, 0
4, 89282, Note_on_c, 2, 68, 31
4, 89340, Note_on_c, 2, 68, 0
4, 89402, Note_on_c, 2, 68, 31
4, 89460, Note_on_c, 2, 68, 0
4, 89522, Note_on_c, 2, 69, 31
4, 89760, Note_on_c, 2, 69, 0
4, 90002, Note_on_c, 2, 66, 31
4, 90060, Note_on_c, 2, 66, 0
4, 90122, Note_on_c, 2, 66, 31
4, 90180, Note_on_c, 2, 66, 0
4, 90242, Note_on_c, 2, 66, 31
4, 90300, Note_on_c, 2, 66, 0
4, 90362, Note_on_c, 2, 66, 19
4, 90420, Note_on_c, 2, 66, 0
4, 90482, Note_on_c, 2, 67, 19
4, 90720, Note_on_c, 2, 67, 0
4, 92402, Note_on_c, 2, 64, 29
4, 92640, Note_on_c, 2, 64, 0
4, 93362, Note_on_c, 2, 62, 47
4, 93600, Note_on_c, 2, 62, 0
4, 93601, Note_on_c, 2, 64, 31
4, 93840, Note_on_c, 2, 64, 0
4, 93841, Note_on_c, 2, 60, 31
4, 94080, Note_on_c, 2, 60, 0
4, 97562, Note_on_c, 2, 67, 63
4, 97680, Note_on_c, 2, 67, 0
4, 97681, Note_on_c, 2, 66, 63
4, 98040, Note_on_c, 2, 66, 0
4, 98041, Note_on_c, 2, 69, 63
4, 98160, Note_on_c, 2, 69, 0
4, 98161, Note_on_c, 2, 67, 63
4, 98520, Note_on_c, 2, 67, 0
4, 98521, Note_on_c, 2, 64, 63
4, 98640, Note_on_c, 2, 64, 0
4, 98641, Note_on_c, 2, 62, 63
4, 99000, Note_on_c, 2, 62, 0
4, 99001, Note_on_c, 2, 62, 63
4, 99120, Note_on_c, 2, 62, 0
4, 99121, Note_on_c, 2, 64, 63
4, 99480, Note_on_c, 2, 64, 0
4, 99481, Note_on_c, 2, 58, 63
4, 99600, Note_on_c, 2, 58, 0
4, 99601, Note_on_c, 2, 59, 63
4, 99840, Note_on_c, 2, 59, 0
4, 99841, Note_on_c, 2, 64, 63
4, 100080, Note_on_c, 2, 64, 0
4, 100081, Note_on_c, 2, 66, 50
4, 100320, Note_on_c, 2, 66, 0
4, 100321, Note_on_c, 2, 66, 63
4, 100560, Note_on_c, 2, 66, 0
4, 100561, Note_on_c, 2, 59, 63
4, 100800, Note_on_c, 2, 59, 0
4, 101402, Note_on_c, 2, 67, 63
4, 101520, Note_on_c, 2, 67, 0
4, 101521, Note_on_c, 2, 66, 63
4, 101880, Note_on_c, 2, 66, 0
4, 101881, Note_on_c, 2, 69, 63
4, 102000, Note_on_c, 2, 69, 0
4, 102001, Note_on_c, 2, 67, 63
4, 102360, Note_on_c, 2, 67, 0
4, 102361, Note_on_c, 2, 64, 63
4, 102480, Note_on_c, 2, 64, 0
4, 102481, Note_on_c, 2, 62, 63
4, 102840, Note_on_c, 2, 62, 0
4, 102841, Note_on_c, 2, 62, 63
4, 102960, Note_on_c, 2, 62, 0
4, 102961, Note_on_c, 2, 64, 63
4, 103320, Note_on_c, 2, 64, 0
4, 103922, Note_on_c, 2, 66, 47
4, 104160, Note_on_c, 2, 66, 0
4, 104161, Note_on_c, 2, 66, 47
4, 104400, Note_on_c, 2, 66, 0
4, 104401, Note_on_c, 2, 59, 39
4, 104640, Note_on_c, 2, 59, 0
4, 106922, Note_on_c, 2, 74, 31
4, 107040, Note_on_c, 2, 74, 0
4, 107041, Note_on_c, 2, 72, 31
4, 107280, Note_on_c, 2, 72, 0
4, 107402, Note_on_c, 2, 66, 31
4, 107520, Note_on_c, 2, 66, 0
4, 107521, Note_on_c, 2, 67, 31
4, 107760, Note_on_c, 2, 67, 0
4, 107761, Note_on_c, 2, 63, 31
4, 108000, Note_on_c, 2, 63, 0
4, 108001, Note_on_c, 2, 64, 27
4, 108240, Note_on_c, 2, 64, 0
4, 108241, Note_on_c, 2, 59, 27
4, 108480, Note_on_c, 2, 59, 0
4, 109922, Note_on_c, 2, 67, 63
4, 110280, Note_on_c, 2, 67, 0
4, 110281, Note_on_c, 2, 66, 63
4, 110400, Note_on_c, 2, 66, 0
4, 110401, Note_on_c, 2, 69, 63
4, 110760, Note_on_c, 2, 69, 0
4, 110761, Note_on_c, 2, 66, 63
4, 110880, Note_on_c, 2, 66, 0
4, 110881, Note_on_c, 2, 63, 63
4, 111240, Note_on_c, 2, 63, 0
4, 121682, Note_on_c, 2, 65, 31
4, 121740, Note_on_c, 2, 65, 0
4, 121802, Note_on_c, 2, 65, 31
4, 121860, Note_on_c, 2, 65, 0
4, 121922, Note_on_c, 2, 65, 31
4, 121980, Note_on_c, 2, 65, 0
4, 122042, Note_on_c, 2, 65, 31
4, 122100, Note_on_c, 2, 65, 0
4, 122162, Note_on_c, 2, 64, 31
4, 122520, Note_on_c, 2, 64, 0
4, 122521, Note_on_c, 2, 62, 31
4, 122640, Note_on_c, 2, 62, 0
4, 122641, Note_on_c, 2, 60, 31
4, 122880, Note_on_c, 2, 60, 0
4, 122881, Note_on_c, 2, 61, 39
4, 123120, Note_on_c, 2, 61, 0
4, 125042, Note_on_c, 2, 67, 50
4, 125100, Note_on_c, 2, 67, 0
4, 125162, Note_on_c, 2, 67, 50
4, 125220, Note_on_c, 2, 67, 0
4, 125282, Note_on_c, 2, 67, 55
4, 125340, Note_on_c, 2, 67, 0
4, 125402, Note_on_c, 2, 67, 39
4, 125460, Note_on_c, 2, 67, 0
4, 125522, Note_on_c, 2, 67, 39
4, 125580, Note_on_c, 2, 67, 0
4, 125642, Note_on_c, 2, 67, 39
4, 125700, Note_on_c, 2, 67, 0
4, 125762, Note_on_c, 2, 67, 50
4, 125820, Note_on_c, 2, 67, 0
4, 125882, Note_on_c, 2, 67, 50
4, 125940, Note_on_c, 2, 67, 0
4, 126002, Note_on_c, 2, 67, 63
4, 126060, Note_on_c, 2, 67, 0
4, 126122, Note_on_c, 2, 67, 63
4, 126180, Note_on_c, 2, 67, 0
4, 126242, Note_on_c, 2, 67, 50
4, 126300, Note_on_c, 2, 67, 0
4, 126362, Note_on_c, 2, 67, 50
4, 126420, Note_on_c, 2, 67, 0
4, 126482, Note_on_c, 2, 57, 47
4, 126540, Note_on_c, 2, 57, 0
4, 126602, Note_on_c, 2, 57, 47
4, 126660, Note_on_c, 2, 57, 0
4, 126722, Note_on_c, 2, 57, 39
4, 126780, Note_on_c, 2, 57, 0
4, 126842, Note_on_c, 2, 57, 39
4, 126900, Note_on_c, 2, 57, 0
4, 126962, Note_on_c, 2, 62, 63
4, 127020, Note_on_c, 2, 62, 0
4, 127082, Note_on_c, 2, 62, 63
4, 127140, Note_on_c, 2, 62, 0
4, 127202, Note_on_c, 2, 62, 63
4, 127260, Note_on_c, 2, 62, 0
4, 127322, Note_on_c, 2, 62, 63
4, 127380, Note_on_c, 2, 62, 0
4, 127442, Note_on_c, 2, 62, 63
4, 127500, Note_on_c, 2, 62, 0
4, 127562, Note_on_c, 2, 62, 63
4, 127620, Note_on_c, 2, 62, 0
4, 127682, Note_on_c, 2, 62, 63
4, 127740, Note_on_c, 2, 62, 0
4, 127802, Note_on_c, 2, 62, 63
4, 127860, Note_on_c, 2, 62, 0
4, 127922, Note_on_c, 2, 62, 63
4, 127980, Note_on_c, 2, 62, 0
4, 128042, Note_on_c, 2, 62, 63
4, 128100, Note_on_c, 2, 62, 0
4, 128162, Note_on_c, 2, 62, 50
4, 128220, Note_on_c, 2, 62, 0
4, 128282, Note_on_c, 2, 62, 50
4, 128340, Note_on_c, 2, 62, 0
4, 128402, Note_on_c, 2, 62, 39
4, 128460, Note_on_c, 2, 62, 0
4, 128522, Note_on_c, 2, 62, 39
4, 128580, Note_on_c, 2, 62, 0
4, 128642, Note_on_c, 2, 62, 50
4, 128700, Note_on_c, 2, 62, 0
4, 128762, Note_on_c, 2, 62, 50
4, 128820, Note_on_c, 2, 62, 0
4, 128882, Note_on_c, 2, 62, 50
4, 128940, Note_on_c, 2, 62, 0
4, 129002, Note_on_c, 2, 62, 50
4, 129060, Note_on_c, 2, 62, 0
4, 129122, Note_on_c, 2, 62, 39
4, 129180, Note_on_c, 2, 62, 0
4, 129242, Note_on_c, 2, 62, 39
4, 129300, Note_on_c, 2, 62, 0
4, 129362, Note_on_c, 2, 62, 39
4, 129480, Note_on_c, 2, 62, 0
4, 135122, Note_on_c, 2, 67, 31
4, 135180, Note_on_c, 2, 67, 0
4, 135242, Note_on_c, 2, 67, 31
4, 135300, Note_on_c, 2, 67, 0
4, 135362, Note_on_c, 2, 67, 39
4, 135420, Note_on_c, 2, 67, 0
4, 135482, Note_on_c, 2, 67, 39
4, 135540, Note_on_c, 2, 67, 0
4, 135602, Note_on_c, 2, 67, 50
4, 135660, Note_on_c, 2, 67, 0
4, 135722, Note_on_c, 2, 67, 45
4, 135780, Note_on_c, 2, 67, 0
4, 135842, Note_on_c, 2, 67, 39
4, 135900, Note_on_c, 2, 67, 0
4, 135962, Note_on_c, 2, 67, 39
4, 136020, Note_on_c, 2, 67, 0
4, 136562, Note_on_c, 2, 62, 63
4, 136620, Note_on_c, 2, 62, 0
4, 136682, Note_on_c, 2, 62, 63
4, 136740, Note_on_c, 2, 62, 0
4, 136802, Note_on_c, 2, 62, 63
4, 136860, Note_on_c, 2, 62, 0
4, 136922, Note_on_c, 2, 62, 63
4, 136980, Note_on_c, 2, 62, 0
4, 137042, Note_on_c, 2, 62, 63
4, 137100, Note_on_c, 2, 62, 0
4, 137162, Note_on_c, 2, 62, 63
4, 137220, Note_on_c, 2, 62, 0
4, 137282, Note_on_c, 2, 62, 63
4, 137340, Note_on_c, 2, 62, 0
4, 137402, Note_on_c, 2, 62, 63
4, 137460, Note_on_c, 2, 62, 0
4, 137522, Note_on_c, 2, 62, 63
4, 137580, Note_on_c, 2, 62, 0
4, 137642, Note_on_c, 2, 62, 63
4, 137700, Note_on_c, 2, 62, 0
4, 137762, Note_on_c, 2, 62, 50
4, 137820, Note_on_c, 2, 62, 0
4, 137882, Note_on_c, 2, 62, 38
4, 137940, Note_on_c, 2, 62, 0
4, 138002, Note_on_c, 2, 62, 31
4, 138060, Note_on_c, 2, 62, 0
4, 138122, Note_on_c, 2, 62, 31
4, 138180, Note_on_c, 2, 62, 0
4, 138242, Note_on_c, 2, 62, 38
4, 138300, Note_on_c, 2, 62, 0
4, 138362, Note_on_c, 2, 62, 50
4, 138420, Note_on_c, 2, 62, 0
4, 138482, Note_on_c, 2, 62, 50
4, 138540, Note_on_c, 2, 62, 0
4, 138602, Note_on_c, 2, 62, 39
4, 138660, Note_on_c, 2, 62, 0
4, 138722, Note_on_c, 2, 62, 39
4, 138780, Note_on_c, 2, 62, 0
4, 138842, Note_on_c, 2, 62, 31
4, 138900, Note_on_c, 2, 62, 0
4, 138962, Note_on_c, 2, 62, 29
4, 139080, Note_on_c, 2, 62, 0
4, 144722, Note_on_c, 2, 71, 63
4, 144780, Note_on_c, 2, 71, 0
4, 144842, Note_on_c, 2, 71, 63
4, 144900, Note_on_c, 2, 71, 0
4, 144962, Note_on_c, 2, 71, 63
4, 145020, Note_on_c, 2, 71, 0
4, 145082, Note_on_c, 2, 71, 63
4, 145140, Note_on_c, 2, 71, 0
4, 145202, Note_on_c, 2, 69, 63
4, 145440, Note_on_c, 2, 69, 0
4, 145562, Note_on_c, 2, 66, 31
4, 145620, Note_on_c, 2, 66, 0
4, 145682, Note_on_c, 2, 66, 31
4, 145740, Note_on_c, 2, 66, 0
4, 145802, Note_on_c, 2, 66, 28
4, 145860, Note_on_c, 2, 66, 0
4, 145922, Note_on_c, 2, 66, 28
4, 145980, Note_on_c, 2, 66, 0
4, 146042, Note_on_c, 2, 66, 28
4, 146100, Note_on_c, 2, 66, 0
4, 146162, Note_on_c, 2, 67, 28
4, 146400, Note_on_c, 2, 67, 0
4, 148082, Note_on_c, 2, 64, 47
4, 148320, Note_on_c, 2, 64, 0
4, 149042, Note_on_c, 2, 62, 63
4, 149280, Note_on_c, 2, 62, 0
4, 149522, Note_on_c, 2, 60, 63
4, 149760, Note_on_c, 2, 60, 0
4, 149761, Note_on_c, 2, 62, 63
4, 150000, Note_on_c, 2, 62, 0
4, 150001, Note_on_c, 2, 67, 63
4, 150120, Note_on_c, 2, 67, 0
4, 150121, Note_on_c, 2, 67, 63
4, 150240, Note_on_c, 2, 67, 0
4, 150241, Note_on_c, 2, 67, 63
4, 150360, Note_on_c, 2, 67, 0
4, 150361, Note_on_c, 2, 67, 63
4, 150480, Note_on_c, 2, 67, 0
4, 150481, Note_on_c, 2, 67, 63
4, 150600, Note_on_c, 2, 67, 0
4, 150601, Note_on_c, 2, 67, 63
4, 150720, Note_on_c, 2, 67, 0
4, 150721, Note_on_c, 2, 67, 63
4, 150840, Note_on_c, 2, 67, 0
4, 150841, Note_on_c, 2, 67, 63
4, 150960, Note_on_c, 2, 67, 0
4, 150961, Note_on_c, 2, 67, 63
4, 151080, Note_on_c, 2, 67, 0
4, 151081, Note_on_c, 2, 67, 63
4, 151200, Note_on_c, 2, 67, 0
4, 151201, Note_on_c, 2, 67, 63
4, 151320, Note_on_c, 2, 67, 0
4, 151321, Note_on_c, 2, 67, 63
4, 151440, Note_on_c, 2, 67, 0
4, 151441, Note_on_c, 2, 67, 63
4, 151560, Note_on_c, 2, 67, 0
4, 151561, Note_on_c, 2, 67, 63
4, 151680, Note_on_c, 2, 67, 0
4, 151681, Note_on_c, 2, 67, 63
4, 151800, Note_on_c, 2, 67, 0
4, 151801, Note_on_c, 2, 67, 63
4, 151920, Note_on_c, 2, 67, 0
4, 151921, Note_on_c, 2, 67, 63
4, 152160, Note_on_c, 2, 67, 0
4, 152160, End_track
5, 0, Start_track
5, 0, MIDI_port, 0
5, 0, Title_t, "Step recorded by Don Stones"
5, 0, Program_c, 3, 0
5, 0, Program_c, 3, 0
5, 0, Control_c, 3, 7, 127
5, 601, Note_on_c, 3, 59, 47
5, 719, Note_on_c, 3, 59, 0
5, 720, Note_on_c, 3, 59, 47
5, 959, Note_on_c, 3, 59, 0
5, 960, Note_on_c, 3, 60, 47
5, 1079, Note_on_c, 3, 60, 0
5, 1080, Note_on_c, 3, 60, 47
5, 1319, Note_on_c, 3, 60, 0
5, 1320, Note_on_c, 3, 60, 47
5, 1439, Note_on_c, 3, 60, 0
5, 1440, Note_on_c, 3, 59, 47
5, 1499, Note_on_c, 3, 59, 0
5, 1561, Note_on_c, 3, 59, 47
5, 1619, Note_on_c, 3, 59, 0
5, 1681, Note_on_c, 3, 59, 47
5, 1739, Note_on_c, 3, 59, 0
5, 1801, Note_on_c, 3, 59, 47
5, 2039, Note_on_c, 3, 59, 0
5, 2040, Note_on_c, 3, 62, 47
5, 2159, Note_on_c, 3, 62, 0
5, 2160, Note_on_c, 3, 62, 47
5, 2519, Note_on_c, 3, 62, 0
5, 2520, Note_on_c, 3, 62, 47
5, 2879, Note_on_c, 3, 62, 0
5, 2880, Note_on_c, 3, 50, 47
5, 2999, Note_on_c, 3, 50, 0
5, 3000, Note_on_c, 3, 62, 47
5, 3119, Note_on_c, 3, 62, 0
5, 3120, Note_on_c, 3, 62, 47
5, 3179, Note_on_c, 3, 62, 0
5, 3241, Note_on_c, 3, 62, 47
5, 3359, Note_on_c, 3, 62, 0
5, 3360, Note_on_c, 3, 60, 47
5, 3479, Note_on_c, 3, 60, 0
5, 3480, Note_on_c, 3, 59, 47
5, 3599, Note_on_c, 3, 59, 0
5, 3600, Note_on_c, 3, 57, 47
5, 3839, Note_on_c, 3, 57, 0
5, 3840, Note_on_c, 3, 55, 47
5, 3959, Note_on_c, 3, 55, 0
5, 3960, Note_on_c, 3, 54, 47
5, 4079, Note_on_c, 3, 54, 0
5, 4080, Note_on_c, 3, 57, 47
5, 4199, Note_on_c, 3, 57, 0
5, 4200, Note_on_c, 3, 62, 47
5, 4319, Note_on_c, 3, 62, 0
5, 4561, Note_on_c, 3, 65, 63
5, 4679, Note_on_c, 3, 65, 0
5, 4680, Note_on_c, 3, 64, 63
5, 4799, Note_on_c, 3, 64, 0
5, 4800, Note_on_c, 3, 62, 63
5, 4919, Note_on_c, 3, 62, 0
5, 4920, Note_on_c, 3, 60, 63
5, 5039, Note_on_c, 3, 60, 0
5, 5040, Note_on_c, 3, 59, 63
5, 5159, Note_on_c, 3, 59, 0
5, 5160, Note_on_c, 3, 59, 63
5, 5279, Note_on_c, 3, 59, 0
5, 5280, Note_on_c, 3, 57, 63
5, 5399, Note_on_c, 3, 57, 0
5, 5400, Note_on_c, 3, 55, 63
5, 5519, Note_on_c, 3, 55, 0
5, 5520, Note_on_c, 3, 59, 63
5, 5639, Note_on_c, 3, 59, 0
5, 5640, Note_on_c, 3, 67, 63
5, 5759, Note_on_c, 3, 67, 0
5, 5760, Note_on_c, 3, 62, 47
5, 6359, Note_on_c, 3, 62, 0
5, 6360, Note_on_c, 3, 62, 63
5, 6479, Note_on_c, 3, 62, 0
5, 6480, Note_on_c, 3, 62, 63
5, 6719, Note_on_c, 3, 62, 0
5, 6720, Note_on_c, 3, 64, 63
5, 6839, Note_on_c, 3, 64, 0
5, 6840, Note_on_c, 3, 62, 63
5, 6959, Note_on_c, 3, 62, 0
5, 6960, Note_on_c, 3, 60, 63
5, 7079, Note_on_c, 3, 60, 0
5, 7080, Note_on_c, 3, 59, 63
5, 7199, Note_on_c, 3, 59, 0
5, 7200, Note_on_c, 3, 57, 63
5, 7259, Note_on_c, 3, 57, 0
5, 7321, Note_on_c, 3, 57, 63
5, 7379, Note_on_c, 3, 57, 0
5, 7441, Note_on_c, 3, 57, 63
5, 7499, Note_on_c, 3, 57, 0
5, 7561, Note_on_c, 3, 57, 63
5, 7679, Note_on_c, 3, 57, 0
5, 7680, Note_on_c, 3, 59, 63
5, 7799, Note_on_c, 3, 59, 0
5, 7800, Note_on_c, 3, 60, 63
5, 7919, Note_on_c, 3, 60, 0
5, 7920, Note_on_c, 3, 59, 63
5, 8039, Note_on_c, 3, 59, 0
5, 8040, Note_on_c, 3, 57, 63
5, 8159, Note_on_c, 3, 57, 0
5, 8160, Note_on_c, 3, 55, 63
5, 8279, Note_on_c, 3, 55, 0
5, 8280, Note_on_c, 3, 67, 63
5, 8399, Note_on_c, 3, 67, 0
5, 8400, Note_on_c, 3, 66, 63
5, 8519, Note_on_c, 3, 66, 0
5, 8520, Note_on_c, 3, 64, 63
5, 8639, Note_on_c, 3, 64, 0
5, 8761, Note_on_c, 3, 54, 31
5, 8879, Note_on_c, 3, 54, 0
5, 8880, Note_on_c, 3, 55, 31
5, 8999, Note_on_c, 3, 55, 0
5, 9121, Note_on_c, 3, 57, 36
5, 9239, Note_on_c, 3, 57, 0
5, 9240, Note_on_c, 3, 59, 36
5, 9359, Note_on_c, 3, 59, 0
5, 9481, Note_on_c, 3, 60, 36
5, 9599, Note_on_c, 3, 60, 0
5, 9600, Note_on_c, 3, 59, 36
5, 9719, Note_on_c, 3, 59, 0
5, 9841, Note_on_c, 3, 57, 36
5, 9959, Note_on_c, 3, 57, 0
5, 9960, Note_on_c, 3, 55, 36
5, 10079, Note_on_c, 3, 55, 0
5, 10080, Note_on_c, 3, 54, 36
5, 10199, Note_on_c, 3, 54, 0
5, 10321, Note_on_c, 3, 62, 29
5, 10439, Note_on_c, 3, 62, 0
5, 10440, Note_on_c, 3, 62, 29
5, 10559, Note_on_c, 3, 62, 0
5, 10681, Note_on_c, 3, 62, 29
5, 10799, Note_on_c, 3, 62, 0
5, 10800, Note_on_c, 3, 62, 29
5, 10919, Note_on_c, 3, 62, 0
5, 11041, Note_on_c, 3, 62, 29
5, 11159, Note_on_c, 3, 62, 0
5, 11160, Note_on_c, 3, 62, 29
5, 11279, Note_on_c, 3, 62, 0
5, 11280, Note_on_c, 3, 66, 29
5, 11399, Note_on_c, 3, 66, 0
5, 11400, Note_on_c, 3, 67, 29
5, 11519, Note_on_c, 3, 67, 0
5, 11520, Note_on_c, 3, 62, 29
5, 12239, Note_on_c, 3, 62, 0
5, 12240, Note_on_c, 3, 59, 26
5, 12479, Note_on_c, 3, 59, 0
5, 12480, Note_on_c, 3, 60, 31
5, 12599, Note_on_c, 3, 60, 0
5, 12600, Note_on_c, 3, 60, 31
5, 12839, Note_on_c, 3, 60, 0
5, 12840, Note_on_c, 3, 60, 31
5, 12959, Note_on_c, 3, 60, 0
5, 12960, Note_on_c, 3, 59, 31
5, 13019, Note_on_c, 3, 59, 0
5, 13081, Note_on_c, 3, 59, 31
5, 13139, Note_on_c, 3, 59, 0
5, 13201, Note_on_c, 3, 59, 31
5, 13259, Note_on_c, 3, 59, 0
5, 13321, Note_on_c, 3, 59, 31
5, 13559, Note_on_c, 3, 59, 0
5, 13560, Note_on_c, 3, 62, 31
5, 13679, Note_on_c, 3, 62, 0
5, 13680, Note_on_c, 3, 62, 31
5, 14039, Note_on_c, 3, 62, 0
5, 14040, Note_on_c, 3, 62, 47
5, 14399, Note_on_c, 3, 62, 0
5, 14400, Note_on_c, 3, 50, 47
5, 14519, Note_on_c, 3, 50, 0
5, 14520, Note_on_c, 3, 62, 31
5, 14639, Note_on_c, 3, 62, 0
5, 14640, Note_on_c, 3, 62, 31
5, 14699, Note_on_c, 3, 62, 0
5, 14761, Note_on_c, 3, 62, 31
5, 14879, Note_on_c, 3, 62, 0
5, 14880, Note_on_c, 3, 60, 31
5, 14999, Note_on_c, 3, 60, 0
5, 15000, Note_on_c, 3, 59, 31
5, 15119, Note_on_c, 3, 59, 0
5, 15120, Note_on_c, 3, 57, 47
5, 15359, Note_on_c, 3, 57, 0
5, 15360, Note_on_c, 3, 55, 47
5, 15479, Note_on_c, 3, 55, 0
5, 15480, Note_on_c, 3, 54, 47
5, 15599, Note_on_c, 3, 54, 0
5, 15600, Note_on_c, 3, 57, 47
5, 15719, Note_on_c, 3, 57, 0
5, 15720, Note_on_c, 3, 62, 47
5, 15839, Note_on_c, 3, 62, 0
5, 15840, Note_on_c, 3, 55, 47
5, 16199, Note_on_c, 3, 55, 0
5, 16200, Note_on_c, 3, 43, 47
5, 16319, Note_on_c, 3, 43, 0
5, 16320, Note_on_c, 3, 47, 47
5, 16439, Note_on_c, 3, 47, 0
5, 16440, Note_on_c, 3, 50, 47
5, 16559, Note_on_c, 3, 50, 0
5, 17041, Note_on_c, 3, 59, 47
5, 17159, Note_on_c, 3, 59, 0
5, 17160, Note_on_c, 3, 57, 47
5, 17279, Note_on_c, 3, 57, 0
5, 17280, Note_on_c, 3, 43, 47
5, 17399, Note_on_c, 3, 43, 0
5, 17400, Note_on_c, 3, 47, 47
5, 17519, Note_on_c, 3, 47, 0
5, 17520, Note_on_c, 3, 50, 47
5, 17639, Note_on_c, 3, 50, 0
5, 17640, Note_on_c, 3, 55, 47
5, 17879, Note_on_c, 3, 55, 0
5, 18121, Note_on_c, 3, 58, 47
5, 18179, Note_on_c, 3, 58, 0
5, 18481, Note_on_c, 3, 60, 47
5, 18539, Note_on_c, 3, 60, 0
5, 18841, Note_on_c, 3, 60, 47
5, 18899, Note_on_c, 3, 60, 0
5, 19201, Note_on_c, 3, 58, 47
5, 19259, Note_on_c, 3, 58, 0
5, 19321, Note_on_c, 3, 67, 63
5, 19439, Note_on_c, 3, 67, 0
5, 19440, Note_on_c, 3, 65, 63
5, 19679, Note_on_c, 3, 65, 0
5, 19680, Note_on_c, 3, 67, 63
5, 19799, Note_on_c, 3, 67, 0
5, 19800, Note_on_c, 3, 65, 63
5, 20039, Note_on_c, 3, 65, 0
5, 20040, Note_on_c, 3, 62, 63
5, 20159, Note_on_c, 3, 62, 0
5, 20160, Note_on_c, 3, 62, 63
5, 20519, Note_on_c, 3, 62, 0
5, 20520, Note_on_c, 3, 62, 63
5, 20879, Note_on_c, 3, 62, 0
5, 20880, Note_on_c, 3, 62, 36
5, 21239, Note_on_c, 3, 62, 0
5, 21240, Note_on_c, 3, 64, 36
5, 21599, Note_on_c, 3, 64, 0
5, 21600, Note_on_c, 3, 62, 36
5, 22079, Note_on_c, 3, 62, 0
5, 22441, Note_on_c, 3, 62, 36
5, 22499, Note_on_c, 3, 62, 0
5, 22801, Note_on_c, 3, 63, 36
5, 22859, Note_on_c, 3, 63, 0
5, 23161, Note_on_c, 3, 58, 36
5, 23219, Note_on_c, 3, 58, 0
5, 23521, Note_on_c, 3, 50, 36
5, 23579, Note_on_c, 3, 50, 0
5, 23641, Note_on_c, 3, 62, 63
5, 23759, Note_on_c, 3, 62, 0
5, 23760, Note_on_c, 3, 63, 63
5, 23999, Note_on_c, 3, 63, 0
5, 24000, Note_on_c, 3, 62, 63
5, 24119, Note_on_c, 3, 62, 0
5, 24120, Note_on_c, 3, 63, 63
5, 24359, Note_on_c, 3, 63, 0
5, 24360, Note_on_c, 3, 62, 63
5, 24419, Note_on_c, 3, 62, 0
5, 24481, Note_on_c, 3, 72, 81
5, 24839, Note_on_c, 3, 72, 0
5, 34201, Note_on_c, 3, 61, 81
5, 34439, Note_on_c, 3, 61, 0
5, 45841, Note_on_c, 3, 79, 81
5, 46079, Note_on_c, 3, 79, 0
5, 46561, Note_on_c, 3, 68, 81
5, 46799, Note_on_c, 3, 68, 0
5, 46800, Note_on_c, 3, 57, 81
5, 47159, Note_on_c, 3, 57, 0
5, 47160, Note_on_c, 3, 57, 47
5, 47519, Note_on_c, 3, 57, 0
5, 47761, Note_on_c, 3, 62, 29
5, 47819, Note_on_c, 3, 62, 0
5, 47881, Note_on_c, 3, 62, 29
5, 47939, Note_on_c, 3, 62, 0
5, 48361, Note_on_c, 3, 62, 29
5, 48419, Note_on_c, 3, 62, 0
5, 48721, Note_on_c, 3, 63, 29
5, 48779, Note_on_c, 3, 63, 0
5, 49081, Note_on_c, 3, 58, 29
5, 49139, Note_on_c, 3, 58, 0
5, 49441, Note_on_c, 3, 50, 29
5, 49499, Note_on_c, 3, 50, 0
5, 49561, Note_on_c, 3, 62, 63
5, 49679, Note_on_c, 3, 62, 0
5, 49680, Note_on_c, 3, 63, 63
5, 49919, Note_on_c, 3, 63, 0
5, 49920, Note_on_c, 3, 62, 63
5, 50039, Note_on_c, 3, 62, 0
5, 50040, Note_on_c, 3, 63, 63
5, 50279, Note_on_c, 3, 63, 0
5, 50280, Note_on_c, 3, 62, 63
5, 50399, Note_on_c, 3, 62, 0
5, 50400, Note_on_c, 3, 60, 63
5, 50519, Note_on_c, 3, 60, 0
5, 50520, Note_on_c, 3, 62, 63
5, 50639, Note_on_c, 3, 62, 0
5, 50640, Note_on_c, 3, 63, 63
5, 50759, Note_on_c, 3, 63, 0
5, 50760, Note_on_c, 3, 62, 63
5, 51119, Note_on_c, 3, 62, 0
5, 51120, Note_on_c, 3, 63, 63
5, 51479, Note_on_c, 3, 63, 0
5, 51480, Note_on_c, 3, 58, 47
5, 51719, Note_on_c, 3, 58, 0
5, 51720, Note_on_c, 3, 57, 34
5, 51839, Note_on_c, 3, 57, 0
5, 52081, Note_on_c, 3, 55, 28
5, 52139, Note_on_c, 3, 55, 0
5, 52201, Note_on_c, 3, 55, 27
5, 52259, Note_on_c, 3, 55, 0
5, 52441, Note_on_c, 3, 59, 47
5, 52559, Note_on_c, 3, 59, 0
5, 52560, Note_on_c, 3, 59, 47
5, 52799, Note_on_c, 3, 59, 0
5, 52800, Note_on_c, 3, 60, 47
5, 52919, Note_on_c, 3, 60, 0
5, 52920, Note_on_c, 3, 60, 47
5, 53159, Note_on_c, 3, 60, 0
5, 53160, Note_on_c, 3, 60, 47
5, 53279, Note_on_c, 3, 60, 0
5, 53280, Note_on_c, 3, 59, 47
5, 53519, Note_on_c, 3, 59, 0
5, 53520, Note_on_c, 3, 59, 47
5, 53639, Note_on_c, 3, 59, 0
5, 53640, Note_on_c, 3, 59, 47
5, 53879, Note_on_c, 3, 59, 0
5, 53880, Note_on_c, 3, 62, 47
5, 53999, Note_on_c, 3, 62, 0
5, 54000, Note_on_c, 3, 62, 63
5, 54359, Note_on_c, 3, 62, 0
5, 54360, Note_on_c, 3, 62, 63
5, 54719, Note_on_c, 3, 62, 0
5, 56041, Note_on_c, 3, 62, 63
5, 56399, Note_on_c, 3, 62, 0
5, 56400, Note_on_c, 3, 65, 63
5, 56519, Note_on_c, 3, 65, 0
5, 56520, Note_on_c, 3, 64, 63
5, 56639, Note_on_c, 3, 64, 0
5, 56640, Note_on_c, 3, 62, 63
5, 56759, Note_on_c, 3, 62, 0
5, 56760, Note_on_c, 3, 60, 63
5, 56879, Note_on_c, 3, 60, 0
5, 56880, Note_on_c, 3, 59, 63
5, 56999, Note_on_c, 3, 59, 0
5, 57000, Note_on_c, 3, 57, 63
5, 57119, Note_on_c, 3, 57, 0
5, 57120, Note_on_c, 3, 60, 63
5, 57239, Note_on_c, 3, 60, 0
5, 57240, Note_on_c, 3, 59, 63
5, 57359, Note_on_c, 3, 59, 0
5, 57360, Note_on_c, 3, 67, 63
5, 57599, Note_on_c, 3, 67, 0
5, 57600, Note_on_c, 3, 67, 63
5, 57719, Note_on_c, 3, 67, 0
5, 57720, Note_on_c, 3, 66, 63
5, 57839, Note_on_c, 3, 66, 0
5, 57840, Note_on_c, 3, 66, 63
5, 57899, Note_on_c, 3, 66, 0
5, 57961, Note_on_c, 3, 66, 63
5, 58079, Note_on_c, 3, 66, 0
5, 60601, Note_on_c, 3, 54, 80
5, 60719, Note_on_c, 3, 54, 0
5, 60720, Note_on_c, 3, 55, 80
5, 60839, Note_on_c, 3, 55, 0
5, 60961, Note_on_c, 3, 57, 80
5, 61079, Note_on_c, 3, 57, 0
5, 61080, Note_on_c, 3, 59, 80
5, 61199, Note_on_c, 3, 59, 0
5, 61321, Note_on_c, 3, 60, 80
5, 61439, Note_on_c, 3, 60, 0
5, 61440, Note_on_c, 3, 59, 63
5, 61559, Note_on_c, 3, 59, 0
5, 61681, Note_on_c, 3, 57, 47
5, 61799, Note_on_c, 3, 57, 0
5, 61800, Note_on_c, 3, 55, 64
5, 61919, Note_on_c, 3, 55, 0
5, 61920, Note_on_c, 3, 54, 64
5, 62039, Note_on_c, 3, 54, 0
5, 64801, Note_on_c, 3, 78, 30
5, 64859, Note_on_c, 3, 78, 0
5, 64921, Note_on_c, 3, 78, 30
5, 64979, Note_on_c, 3, 78, 0
5, 65041, Note_on_c, 3, 78, 30
5, 65099, Note_on_c, 3, 78, 0
5, 65161, Note_on_c, 3, 78, 30
5, 65519, Note_on_c, 3, 78, 0
5, 65761, Note_on_c, 3, 66, 30
5, 65819, Note_on_c, 3, 66, 0
5, 65881, Note_on_c, 3, 66, 30
5, 66119, Note_on_c, 3, 66, 0
5, 74161, Note_on_c, 3, 59, 47
5, 74220, Note_on_c, 3, 59, 0
5, 74282, Note_on_c, 3, 59, 47
5, 74340, Note_on_c, 3, 59, 0
5, 74402, Note_on_c, 3, 59, 47
5, 74460, Note_on_c, 3, 59, 0
5, 74522, Note_on_c, 3, 59, 47
5, 74580, Note_on_c, 3, 59, 0
5, 74642, Note_on_c, 3, 59, 47
5, 74700, Note_on_c, 3, 59, 0
5, 74762, Note_on_c, 3, 59, 47
5, 74820, Note_on_c, 3, 59, 0
5, 74882, Note_on_c, 3, 59, 47
5, 74940, Note_on_c, 3, 59, 0
5, 75002, Note_on_c, 3, 59, 47
5, 75060, Note_on_c, 3, 59, 0
5, 75122, Note_on_c, 3, 60, 47
5, 75360, Note_on_c, 3, 60, 0
5, 75361, Note_on_c, 3, 59, 31
5, 75480, Note_on_c, 3, 59, 0
5, 78002, Note_on_c, 3, 59, 51
5, 78060, Note_on_c, 3, 59, 0
5, 78122, Note_on_c, 3, 59, 51
5, 78180, Note_on_c, 3, 59, 0
5, 78242, Note_on_c, 3, 59, 51
5, 78300, Note_on_c, 3, 59, 0
5, 78362, Note_on_c, 3, 59, 51
5, 78420, Note_on_c, 3, 59, 0
5, 78482, Note_on_c, 3, 59, 51
5, 78540, Note_on_c, 3, 59, 0
5, 78602, Note_on_c, 3, 59, 51
5, 78660, Note_on_c, 3, 59, 0
5, 78722, Note_on_c, 3, 59, 51
5, 78780, Note_on_c, 3, 59, 0
5, 78842, Note_on_c, 3, 59, 51
5, 78900, Note_on_c, 3, 59, 0
5, 78962, Note_on_c, 3, 60, 51
5, 79200, Note_on_c, 3, 60, 0
5, 79201, Note_on_c, 3, 59, 47
5, 79320, Note_on_c, 3, 59, 0
5, 80402, Note_on_c, 3, 57, 39
5, 80460, Note_on_c, 3, 57, 0
5, 80522, Note_on_c, 3, 57, 39
5, 80580, Note_on_c, 3, 57, 0
5, 80642, Note_on_c, 3, 57, 39
5, 80700, Note_on_c, 3, 57, 0
5, 80762, Note_on_c, 3, 57, 39
5, 80820, Note_on_c, 3, 57, 0
5, 80882, Note_on_c, 3, 62, 39
5, 80940, Note_on_c, 3, 62, 0
5, 81002, Note_on_c, 3, 62, 39
5, 81060, Note_on_c, 3, 62, 0
5, 81122, Note_on_c, 3, 62, 39
5, 81180, Note_on_c, 3, 62, 0
5, 81242, Note_on_c, 3, 62, 39
5, 81300, Note_on_c, 3, 62, 0
5, 81362, Note_on_c, 3, 62, 39
5, 81420, Note_on_c, 3, 62, 0
5, 81482, Note_on_c, 3, 62, 39
5, 81540, Note_on_c, 3, 62, 0
5, 81602, Note_on_c, 3, 62, 39
5, 81660, Note_on_c, 3, 62, 0
5, 81722, Note_on_c, 3, 62, 39
5, 81780, Note_on_c, 3, 62, 0
5, 81842, Note_on_c, 3, 62, 39
5, 81900, Note_on_c, 3, 62, 0
5, 81962, Note_on_c, 3, 62, 39
5, 82020, Note_on_c, 3, 62, 0
5, 82082, Note_on_c, 3, 62, 39
5, 82140, Note_on_c, 3, 62, 0
5, 82202, Note_on_c, 3, 62, 39
5, 82260, Note_on_c, 3, 62, 0
5, 82322, Note_on_c, 3, 62, 39
5, 82380, Note_on_c, 3, 62, 0
5, 82442, Note_on_c, 3, 62, 39
5, 82500, Note_on_c, 3, 62, 0
5, 82562, Note_on_c, 3, 62, 39
5, 82620, Note_on_c, 3, 62, 0
5, 82682, Note_on_c, 3, 62, 39
5, 82740, Note_on_c, 3, 62, 0
5, 82802, Note_on_c, 3, 62, 81
5, 83040, Note_on_c, 3, 62, 0
5, 83282, Note_on_c, 3, 50, 63
5, 83400, Note_on_c, 3, 50, 0
5, 83762, Note_on_c, 3, 62, 63
5, 84000, Note_on_c, 3, 62, 0
5, 84122, Note_on_c, 3, 62, 63
5, 84240, Note_on_c, 3, 62, 0
5, 84241, Note_on_c, 3, 63, 63
5, 84480, Note_on_c, 3, 63, 0
5, 84602, Note_on_c, 3, 63, 63
5, 84720, Note_on_c, 3, 63, 0
5, 84721, Note_on_c, 3, 65, 63
5, 84960, Note_on_c, 3, 65, 0
5, 85082, Note_on_c, 3, 62, 63
5, 85200, Note_on_c, 3, 62, 0
5, 85201, Note_on_c, 3, 60, 63
5, 85440, Note_on_c, 3, 60, 0
5, 85562, Note_on_c, 3, 60, 63
5, 85680, Note_on_c, 3, 60, 0
5, 85681, Note_on_c, 3, 62, 63
5, 85920, Note_on_c, 3, 62, 0
5, 86042, Note_on_c, 3, 58, 63
5, 86160, Note_on_c, 3, 58, 0
5, 86161, Note_on_c, 3, 55, 63
5, 86400, Note_on_c, 3, 55, 0
5, 86522, Note_on_c, 3, 55, 63
5, 86640, Note_on_c, 3, 55, 0
5, 86641, Note_on_c, 3, 54, 63
5, 86820, Note_on_c, 3, 54, 0
5, 86821, Note_on_c, 3, 54, 63
5, 86850, Note_on_c, 3, 54, 0
5, 86851, Note_on_c, 3, 55, 63
5, 86880, Note_on_c, 3, 55, 0
5, 86881, Note_on_c, 3, 57, 63
5, 86940, Note_on_c, 3, 57, 0
5, 87002, Note_on_c, 3, 54, 63
5, 87060, Note_on_c, 3, 54, 0
5, 87122, Note_on_c, 3, 50, 63
5, 87360, Note_on_c, 3, 50, 0
5, 87602, Note_on_c, 3, 59, 47
5, 87660, Note_on_c, 3, 59, 0
5, 87722, Note_on_c, 3, 59, 47
5, 87780, Note_on_c, 3, 59, 0
5, 87842, Note_on_c, 3, 59, 47
5, 87900, Note_on_c, 3, 59, 0
5, 87962, Note_on_c, 3, 59, 47
5, 88020, Note_on_c, 3, 59, 0
5, 88082, Note_on_c, 3, 59, 47
5, 88140, Note_on_c, 3, 59, 0
5, 88202, Note_on_c, 3, 59, 47
5, 88260, Note_on_c, 3, 59, 0
5, 88322, Note_on_c, 3, 59, 47
5, 88380, Note_on_c, 3, 59, 0
5, 88442, Note_on_c, 3, 59, 47
5, 88500, Note_on_c, 3, 59, 0
5, 88562, Note_on_c, 3, 60, 47
5, 88800, Note_on_c, 3, 60, 0
5, 88801, Note_on_c, 3, 59, 31
5, 88920, Note_on_c, 3, 59, 0
5, 94322, Note_on_c, 3, 59, 51
5, 94380, Note_on_c, 3, 59, 0
5, 94442, Note_on_c, 3, 59, 51
5, 94500, Note_on_c, 3, 59, 0
5, 94562, Note_on_c, 3, 59, 51
5, 94620, Note_on_c, 3, 59, 0
5, 94682, Note_on_c, 3, 59, 51
5, 94740, Note_on_c, 3, 59, 0
5, 94802, Note_on_c, 3, 60, 51
5, 94860, Note_on_c, 3, 60, 0
5, 94922, Note_on_c, 3, 60, 51
5, 94980, Note_on_c, 3, 60, 0
5, 95042, Note_on_c, 3, 60, 51
5, 95100, Note_on_c, 3, 60, 0
5, 95162, Note_on_c, 3, 60, 51
5, 95220, Note_on_c, 3, 60, 0
5, 95282, Note_on_c, 3, 59, 35
5, 95340, Note_on_c, 3, 59, 0
5, 95402, Note_on_c, 3, 59, 35
5, 95460, Note_on_c, 3, 59, 0
5, 95522, Note_on_c, 3, 59, 50
5, 95580, Note_on_c, 3, 59, 0
5, 95642, Note_on_c, 3, 59, 48
5, 95700, Note_on_c, 3, 59, 0
5, 95762, Note_on_c, 3, 60, 35
5, 95820, Note_on_c, 3, 60, 0
5, 95882, Note_on_c, 3, 60, 35
5, 95940, Note_on_c, 3, 60, 0
5, 96002, Note_on_c, 3, 60, 50
5, 96060, Note_on_c, 3, 60, 0
5, 96122, Note_on_c, 3, 60, 50
5, 96180, Note_on_c, 3, 60, 0
5, 96242, Note_on_c, 3, 59, 50
5, 96480, Note_on_c, 3, 59, 0
5, 96722, Note_on_c, 3, 43, 63
5, 96840, Note_on_c, 3, 43, 0
5, 97202, Note_on_c, 3, 52, 63
5, 97440, Note_on_c, 3, 52, 0
5, 99122, Note_on_c, 3, 61, 63
5, 99480, Note_on_c, 3, 61, 0
5, 100922, Note_on_c, 3, 51, 31
5, 101040, Note_on_c, 3, 51, 0
5, 101041, Note_on_c, 3, 52, 31
5, 101280, Note_on_c, 3, 52, 0
5, 102962, Note_on_c, 3, 61, 63
5, 103320, Note_on_c, 3, 61, 0
5, 103321, Note_on_c, 3, 58, 63
5, 103440, Note_on_c, 3, 58, 0
5, 103441, Note_on_c, 3, 59, 63
5, 103680, Note_on_c, 3, 59, 0
5, 103681, Note_on_c, 3, 64, 47
5, 103920, Note_on_c, 3, 64, 0
5, 104762, Note_on_c, 3, 47, 31
5, 104820, Note_on_c, 3, 47, 0
5, 104882, Note_on_c, 3, 48, 63
5, 105120, Note_on_c, 3, 48, 0
5, 105242, Note_on_c, 3, 64, 63
5, 105360, Note_on_c, 3, 64, 0
5, 105361, Note_on_c, 3, 62, 63
5, 105720, Note_on_c, 3, 62, 0
5, 105721, Note_on_c, 3, 59, 63
5, 105840, Note_on_c, 3, 59, 0
5, 105841, Note_on_c, 3, 60, 63
5, 106080, Note_on_c, 3, 60, 0
5, 106081, Note_on_c, 3, 62, 47
5, 106320, Note_on_c, 3, 62, 0
5, 106321, Note_on_c, 3, 64, 36
5, 106560, Note_on_c, 3, 64, 0
5, 106922, Note_on_c, 3, 71, 31
5, 107040, Note_on_c, 3, 71, 0
5, 107041, Note_on_c, 3, 69, 31
5, 107280, Note_on_c, 3, 69, 0
5, 108842, Note_on_c, 3, 52, 63
5, 108900, Note_on_c, 3, 52, 0
5, 108962, Note_on_c, 3, 64, 63
5, 109320, Note_on_c, 3, 64, 0
5, 109321, Note_on_c, 3, 63, 63
5, 109440, Note_on_c, 3, 63, 0
5, 109441, Note_on_c, 3, 66, 63
5, 109800, Note_on_c, 3, 66, 0
5, 109801, Note_on_c, 3, 64, 63
5, 109920, Note_on_c, 3, 64, 0
5, 111242, Note_on_c, 3, 60, 63
5, 111360, Note_on_c, 3, 60, 0
5, 111361, Note_on_c, 3, 57, 63
5, 111720, Note_on_c, 3, 57, 0
5, 111721, Note_on_c, 3, 54, 63
5, 111840, Note_on_c, 3, 54, 0
5, 111841, Note_on_c, 3, 51, 63
5, 111960, Note_on_c, 3, 51, 0
5, 111961, Note_on_c, 3, 63, 63
5, 112020, Note_on_c, 3, 63, 0
5, 112021, Note_on_c, 3, 60, 63
5, 112080, Note_on_c, 3, 60, 0
5, 112081, Note_on_c, 3, 57, 63
5, 112140, Note_on_c, 3, 57, 0
5, 112202, Note_on_c, 3, 60, 63
5, 112260, Note_on_c, 3, 60, 0
5, 112261, Note_on_c, 3, 57, 63
5, 112320, Note_on_c, 3, 57, 0
5, 112321, Note_on_c, 3, 54, 63
5, 112380, Note_on_c, 3, 54, 0
5, 112442, Note_on_c, 3, 57, 63
5, 112500, Note_on_c, 3, 57, 0
5, 112501, Note_on_c, 3, 54, 63
5, 112560, Note_on_c, 3, 54, 0
5, 112561, Note_on_c, 3, 51, 63
5, 112800, Note_on_c, 3, 51, 0
5, 114242, Note_on_c, 3, 51, 63
5, 114480, Note_on_c, 3, 51, 0
5, 114602, Note_on_c, 3, 59, 63
5, 114720, Note_on_c, 3, 59, 0
5, 114842, Note_on_c, 3, 57, 63
5, 114960, Note_on_c, 3, 57, 0
5, 115082, Note_on_c, 3, 55, 63
5, 115200, Note_on_c, 3, 55, 0
5, 115322, Note_on_c, 3, 54, 63
5, 115440, Note_on_c, 3, 54, 0
5, 115441, Note_on_c, 3, 55, 63
5, 115680, Note_on_c, 3, 55, 0
5, 120242, Note_on_c, 3, 59, 63
5, 120300, Note_on_c, 3, 59, 0
5, 120362, Note_on_c, 3, 59, 63
5, 120420, Note_on_c, 3, 59, 0
5, 120482, Note_on_c, 3, 59, 63
5, 120540, Note_on_c, 3, 59, 0
5, 120602, Note_on_c, 3, 59, 63
5, 120660, Note_on_c, 3, 59, 0
5, 120722, Note_on_c, 3, 59, 63
5, 120780, Note_on_c, 3, 59, 0
5, 120842, Note_on_c, 3, 59, 63
5, 120900, Note_on_c, 3, 59, 0
5, 120962, Note_on_c, 3, 59, 63
5, 121020, Note_on_c, 3, 59, 0
5, 121082, Note_on_c, 3, 59, 63
5, 121140, Note_on_c, 3, 59, 0
5, 121202, Note_on_c, 3, 60, 63
5, 121440, Note_on_c, 3, 60, 0
5, 121441, Note_on_c, 3, 59, 63
5, 121560, Note_on_c, 3, 59, 0
5, 124082, Note_on_c, 3, 59, 50
5, 124140, Note_on_c, 3, 59, 0
5, 124202, Note_on_c, 3, 59, 50
5, 124260, Note_on_c, 3, 59, 0
5, 124322, Note_on_c, 3, 59, 50
5, 124380, Note_on_c, 3, 59, 0
5, 124442, Note_on_c, 3, 59, 50
5, 124500, Note_on_c, 3, 59, 0
5, 124562, Note_on_c, 3, 59, 50
5, 124620, Note_on_c, 3, 59, 0
5, 124682, Note_on_c, 3, 59, 50
5, 124740, Note_on_c, 3, 59, 0
5, 124802, Note_on_c, 3, 59, 50
5, 124860, Note_on_c, 3, 59, 0
5, 124922, Note_on_c, 3, 59, 50
5, 124980, Note_on_c, 3, 59, 0
5, 125042, Note_on_c, 3, 60, 50
5, 125280, Note_on_c, 3, 60, 0
5, 125281, Note_on_c, 3, 59, 50
5, 125400, Note_on_c, 3, 59, 0
5, 129842, Note_on_c, 3, 59, 63
5, 129900, Note_on_c, 3, 59, 0
5, 129962, Note_on_c, 3, 59, 63
5, 130020, Note_on_c, 3, 59, 0
5, 130082, Note_on_c, 3, 59, 63
5, 130140, Note_on_c, 3, 59, 0
5, 130202, Note_on_c, 3, 59, 63
5, 130260, Note_on_c, 3, 59, 0
5, 130322, Note_on_c, 3, 59, 63
5, 130380, Note_on_c, 3, 59, 0
5, 130442, Note_on_c, 3, 59, 63
5, 130500, Note_on_c, 3, 59, 0
5, 130562, Note_on_c, 3, 59, 63
5, 130620, Note_on_c, 3, 59, 0
5, 130682, Note_on_c, 3, 59, 63
5, 130740, Note_on_c, 3, 59, 0
5, 130802, Note_on_c, 3, 60, 63
5, 131040, Note_on_c, 3, 60, 0
5, 131041, Note_on_c, 3, 59, 63
5, 131160, Note_on_c, 3, 59, 0
5, 132602, Note_on_c, 3, 61, 63
5, 132720, Note_on_c, 3, 61, 0
5, 132721, Note_on_c, 3, 62, 63
5, 133200, Note_on_c, 3, 62, 0
5, 133201, Note_on_c, 3, 50, 63
5, 133440, Note_on_c, 3, 50, 0
5, 133682, Note_on_c, 3, 59, 50
5, 133740, Note_on_c, 3, 59, 0
5, 133802, Note_on_c, 3, 59, 50
5, 133860, Note_on_c, 3, 59, 0
5, 133922, Note_on_c, 3, 59, 50
5, 133980, Note_on_c, 3, 59, 0
5, 134042, Note_on_c, 3, 59, 50
5, 134100, Note_on_c, 3, 59, 0
5, 134162, Note_on_c, 3, 59, 50
5, 134220, Note_on_c, 3, 59, 0
5, 134282, Note_on_c, 3, 59, 50
5, 134340, Note_on_c, 3, 59, 0
5, 134402, Note_on_c, 3, 59, 50
5, 134460, Note_on_c, 3, 59, 0
5, 134522, Note_on_c, 3, 59, 50
5, 134580, Note_on_c, 3, 59, 0
5, 134642, Note_on_c, 3, 60, 50
5, 134880, Note_on_c, 3, 60, 0
5, 134881, Note_on_c, 3, 59, 47
5, 135000, Note_on_c, 3, 59, 0
5, 136082, Note_on_c, 3, 57, 31
5, 136140, Note_on_c, 3, 57, 0
5, 136202, Note_on_c, 3, 57, 31
5, 136260, Note_on_c, 3, 57, 0
5, 136322, Note_on_c, 3, 57, 29
5, 136380, Note_on_c, 3, 57, 0
5, 136442, Note_on_c, 3, 57, 29
5, 136500, Note_on_c, 3, 57, 0
5, 139442, Note_on_c, 3, 58, 63
5, 139500, Note_on_c, 3, 58, 0
5, 139501, Note_on_c, 3, 65, 63
5, 139560, Note_on_c, 3, 65, 0
5, 139561, Note_on_c, 3, 62, 63
5, 139620, Note_on_c, 3, 62, 0
5, 139621, Note_on_c, 3, 65, 63
5, 139680, Note_on_c, 3, 65, 0
5, 139681, Note_on_c, 3, 58, 63
5, 139740, Note_on_c, 3, 58, 0
5, 139741, Note_on_c, 3, 65, 63
5, 139800, Note_on_c, 3, 65, 0
5, 139801, Note_on_c, 3, 62, 63
5, 139860, Note_on_c, 3, 62, 0
5, 139861, Note_on_c, 3, 65, 63
5, 139920, Note_on_c, 3, 65, 0
5, 139921, Note_on_c, 3, 60, 63
5, 139980, Note_on_c, 3, 60, 0
5, 139981, Note_on_c, 3, 65, 63
5, 140040, Note_on_c, 3, 65, 0
5, 140041, Note_on_c, 3, 63, 63
5, 140100, Note_on_c, 3, 63, 0
5, 140101, Note_on_c, 3, 65, 63
5, 140160, Note_on_c, 3, 65, 0
5, 140161, Note_on_c, 3, 60, 63
5, 140220, Note_on_c, 3, 60, 0
5, 140221, Note_on_c, 3, 65, 63
5, 140280, Note_on_c, 3, 65, 0
5, 140281, Note_on_c, 3, 63, 63
5, 140340, Note_on_c, 3, 63, 0
5, 140341, Note_on_c, 3, 65, 63
5, 140400, Note_on_c, 3, 65, 0
5, 140401, Note_on_c, 3, 58, 63
5, 140460, Note_on_c, 3, 58, 0
5, 140461, Note_on_c, 3, 65, 63
5, 140520, Note_on_c, 3, 65, 0
5, 140521, Note_on_c, 3, 62, 63
5, 140580, Note_on_c, 3, 62, 0
5, 140581, Note_on_c, 3, 65, 63
5, 140640, Note_on_c, 3, 65, 0
5, 140641, Note_on_c, 3, 58, 63
5, 140700, Note_on_c, 3, 58, 0
5, 140701, Note_on_c, 3, 65, 63
5, 140760, Note_on_c, 3, 65, 0
5, 140761, Note_on_c, 3, 62, 63
5, 140820, Note_on_c, 3, 62, 0
5, 140821, Note_on_c, 3, 65, 63
5, 140880, Note_on_c, 3, 65, 0
5, 140881, Note_on_c, 3, 57, 63
5, 140940, Note_on_c, 3, 57, 0
5, 140941, Note_on_c, 3, 62, 63
5, 141000, Note_on_c, 3, 62, 0
5, 141001, Note_on_c, 3, 60, 63
5, 141060, Note_on_c, 3, 60, 0
5, 141061, Note_on_c, 3, 62, 63
5, 141120, Note_on_c, 3, 62, 0
5, 141121, Note_on_c, 3, 57, 63
5, 141180, Note_on_c, 3, 57, 0
5, 141181, Note_on_c, 3, 62, 63
5, 141240, Note_on_c, 3, 62, 0
5, 141241, Note_on_c, 3, 60, 63
5, 141300, Note_on_c, 3, 60, 0
5, 141301, Note_on_c, 3, 62, 63
5, 141360, Note_on_c, 3, 62, 0
5, 141361, Note_on_c, 3, 55, 63
5, 141420, Note_on_c, 3, 55, 0
5, 141421, Note_on_c, 3, 62, 63
5, 141480, Note_on_c, 3, 62, 0
5, 141481, Note_on_c, 3, 58, 63
5, 141540, Note_on_c, 3, 58, 0
5, 141541, Note_on_c, 3, 62, 63
5, 141600, Note_on_c, 3, 62, 0
5, 141601, Note_on_c, 3, 55, 63
5, 141660, Note_on_c, 3, 55, 0
5, 141661, Note_on_c, 3, 62, 63
5, 141720, Note_on_c, 3, 62, 0
5, 141721, Note_on_c, 3, 58, 63
5, 141780, Note_on_c, 3, 58, 0
5, 141781, Note_on_c, 3, 62, 63
5, 141840, Note_on_c, 3, 62, 0
5, 141841, Note_on_c, 3, 51, 63
5, 141900, Note_on_c, 3, 51, 0
5, 141901, Note_on_c, 3, 55, 63
5, 141960, Note_on_c, 3, 55, 0
5, 141961, Note_on_c, 3, 54, 50
5, 142020, Note_on_c, 3, 54, 0
5, 142021, Note_on_c, 3, 55, 50
5, 142080, Note_on_c, 3, 55, 0
5, 142081, Note_on_c, 3, 51, 50
5, 142140, Note_on_c, 3, 51, 0
5, 142141, Note_on_c, 3, 55, 50
5, 142200, Note_on_c, 3, 55, 0
5, 142201, Note_on_c, 3, 54, 31
5, 142260, Note_on_c, 3, 54, 0
5, 142261, Note_on_c, 3, 55, 31
5, 142320, Note_on_c, 3, 55, 0
5, 142321, Note_on_c, 3, 50, 31
5, 142560, Note_on_c, 3, 50, 0
5, 142802, Note_on_c, 3, 38, 31
5, 142860, Note_on_c, 3, 38, 0
5, 142861, Note_on_c, 3, 50, 31
5, 142920, Note_on_c, 3, 50, 0
5, 142921, Note_on_c, 3, 36, 31
5, 142980, Note_on_c, 3, 36, 0
5, 142981, Note_on_c, 3, 48, 31
5, 143040, Note_on_c, 3, 48, 0
5, 143041, Note_on_c, 3, 35, 47
5, 143100, Note_on_c, 3, 35, 0
5, 143101, Note_on_c, 3, 47, 47
5, 143160, Note_on_c, 3, 47, 0
5, 143161, Note_on_c, 3, 33, 47
5, 143220, Note_on_c, 3, 33, 0
5, 143221, Note_on_c, 3, 45, 47
5, 143280, Note_on_c, 3, 45, 0
5, 143281, Note_on_c, 3, 31, 47
5, 143520, Note_on_c, 3, 31, 0
5, 143521, Note_on_c, 3, 59, 47
5, 143580, Note_on_c, 3, 59, 0
5, 143642, Note_on_c, 3, 59, 50
5, 143700, Note_on_c, 3, 59, 0
5, 143762, Note_on_c, 3, 59, 50
5, 143820, Note_on_c, 3, 59, 0
5, 143882, Note_on_c, 3, 59, 50
5, 143940, Note_on_c, 3, 59, 0
5, 144002, Note_on_c, 3, 59, 50
5, 144060, Note_on_c, 3, 59, 0
5, 144122, Note_on_c, 3, 59, 50
5, 144180, Note_on_c, 3, 59, 0
5, 144242, Note_on_c, 3, 60, 50
5, 144480, Note_on_c, 3, 60, 0
5, 144481, Note_on_c, 3, 59, 50
5, 144600, Note_on_c, 3, 59, 0
5, 152342, Note_on_c, 3, 59, 63
5, 152400, Note_on_c, 3, 59, 0
5, 152401, Note_on_c, 3, 55, 63
5, 152460, Note_on_c, 3, 55, 0
5, 152460, End_track
6, 0, Start_track
6, 0, MIDI_port, 0
6, 0, Title_t, "1.Allegretto innocente"
6, 0, Program_c, 4, 0
6, 0, Control_c, 4, 7, 127
6, 0, Program_c, 4, 0
6, 601, Note_on_c, 4, 55, 47
6, 719, Note_on_c, 4, 55, 0
6, 720, Note_on_c, 4, 55, 47
6, 959, Note_on_c, 4, 55, 0
6, 960, Note_on_c, 4, 55, 47
6, 1079, Note_on_c, 4, 55, 0
6, 1080, Note_on_c, 4, 55, 47
6, 1319, Note_on_c, 4, 55, 0
6, 1320, Note_on_c, 4, 55, 47
6, 1439, Note_on_c, 4, 55, 0
6, 1440, Note_on_c, 4, 55, 47
6, 1499, Note_on_c, 4, 55, 0
6, 1561, Note_on_c, 4, 55, 47
6, 1619, Note_on_c, 4, 55, 0
6, 1681, Note_on_c, 4, 55, 47
6, 1739, Note_on_c, 4, 55, 0
6, 1801, Note_on_c, 4, 55, 47
6, 2039, Note_on_c, 4, 55, 0
6, 2040, Note_on_c, 4, 54, 47
6, 2159, Note_on_c, 4, 54, 0
6, 2160, Note_on_c, 4, 57, 47
6, 2189, Note_on_c, 4, 57, 0
6, 2190, Note_on_c, 4, 55, 47
6, 2279, Note_on_c, 4, 55, 0
6, 2280, Note_on_c, 4, 54, 63
6, 2399, Note_on_c, 4, 54, 0
6, 2400, Note_on_c, 4, 55, 63
6, 2519, Note_on_c, 4, 55, 0
6, 2520, Note_on_c, 4, 57, 63
6, 2759, Note_on_c, 4, 57, 0
6, 2760, Note_on_c, 4, 55, 63
6, 2879, Note_on_c, 4, 55, 0
6, 4321, Note_on_c, 4, 55, 63
6, 5039, Note_on_c, 4, 55, 0
6, 5161, Note_on_c, 4, 55, 63
6, 5279, Note_on_c, 4, 55, 0
6, 5280, Note_on_c, 4, 54, 63
6, 5399, Note_on_c, 4, 54, 0
6, 5400, Note_on_c, 4, 52, 63
6, 5639, Note_on_c, 4, 52, 0
6, 5640, Note_on_c, 4, 57, 63
6, 5759, Note_on_c, 4, 57, 0
6, 6361, Note_on_c, 4, 59, 63
6, 6479, Note_on_c, 4, 59, 0
6, 6480, Note_on_c, 4, 59, 63
6, 6719, Note_on_c, 4, 59, 0
6, 6720, Note_on_c, 4, 60, 63
6, 6839, Note_on_c, 4, 60, 0
6, 6840, Note_on_c, 4, 59, 63
6, 6959, Note_on_c, 4, 59, 0
6, 6960, Note_on_c, 4, 57, 63
6, 7079, Note_on_c, 4, 57, 0
6, 7080, Note_on_c, 4, 55, 63
6, 7199, Note_on_c, 4, 55, 0
6, 7200, Note_on_c, 4, 54, 63
6, 7259, Note_on_c, 4, 54, 0
6, 7321, Note_on_c, 4, 54, 63
6, 7379, Note_on_c, 4, 54, 0
6, 7441, Note_on_c, 4, 54, 63
6, 7499, Note_on_c, 4, 54, 0
6, 7561, Note_on_c, 4, 54, 63
6, 7919, Note_on_c, 4, 54, 0
6, 7920, Note_on_c, 4, 55, 63
6, 8039, Note_on_c, 4, 55, 0
6, 8040, Note_on_c, 4, 54, 63
6, 8159, Note_on_c, 4, 54, 0
6, 8160, Note_on_c, 4, 52, 63
6, 8279, Note_on_c, 4, 52, 0
6, 8280, Note_on_c, 4, 57, 63
6, 8639, Note_on_c, 4, 57, 0
6, 8761, Note_on_c, 4, 50, 31
6, 8879, Note_on_c, 4, 50, 0
6, 8880, Note_on_c, 4, 52, 31
6, 8999, Note_on_c, 4, 52, 0
6, 9121, Note_on_c, 4, 54, 31
6, 9239, Note_on_c, 4, 54, 0
6, 9240, Note_on_c, 4, 55, 31
6, 9359, Note_on_c, 4, 55, 0
6, 9481, Note_on_c, 4, 57, 31
6, 9599, Note_on_c, 4, 57, 0
6, 9600, Note_on_c, 4, 55, 31
6, 9719, Note_on_c, 4, 55, 0
6, 9841, Note_on_c, 4, 54, 31
6, 9959, Note_on_c, 4, 54, 0
6, 9960, Note_on_c, 4, 52, 31
6, 10079, Note_on_c, 4, 52, 0
6, 10080, Note_on_c, 4, 50, 31
6, 10199, Note_on_c, 4, 50, 0
6, 12241, Note_on_c, 4, 55, 31
6, 12479, Note_on_c, 4, 55, 0
6, 12480, Note_on_c, 4, 55, 31
6, 12599, Note_on_c, 4, 55, 0
6, 12600, Note_on_c, 4, 55, 31
6, 12839, Note_on_c, 4, 55, 0
6, 12840, Note_on_c, 4, 55, 31
6, 12959, Note_on_c, 4, 55, 0
6, 12960, Note_on_c, 4, 55, 31
6, 13019, Note_on_c, 4, 55, 0
6, 13081, Note_on_c, 4, 55, 31
6, 13139, Note_on_c, 4, 55, 0
6, 13201, Note_on_c, 4, 55, 31
6, 13259, Note_on_c, 4, 55, 0
6, 13321, Note_on_c, 4, 55, 31
6, 13559, Note_on_c, 4, 55, 0
6, 13560, Note_on_c, 4, 54, 31
6, 13679, Note_on_c, 4, 54, 0
6, 13680, Note_on_c, 4, 57, 31
6, 13709, Note_on_c, 4, 57, 0
6, 13710, Note_on_c, 4, 55, 47
6, 13799, Note_on_c, 4, 55, 0
6, 13800, Note_on_c, 4, 54, 47
6, 13919, Note_on_c, 4, 54, 0
6, 13920, Note_on_c, 4, 55, 47
6, 14039, Note_on_c, 4, 55, 0
6, 14040, Note_on_c, 4, 57, 47
6, 14279, Note_on_c, 4, 57, 0
6, 14280, Note_on_c, 4, 55, 47
6, 14399, Note_on_c, 4, 55, 0
6, 16561, Note_on_c, 4, 48, 47
6, 16919, Note_on_c, 4, 48, 0
6, 16920, Note_on_c, 4, 50, 47
6, 17279, Note_on_c, 4, 50, 0
6, 18121, Note_on_c, 4, 55, 47
6, 18179, Note_on_c, 4, 55, 0
6, 18481, Note_on_c, 4, 55, 47
6, 18539, Note_on_c, 4, 55, 0
6, 18841, Note_on_c, 4, 55, 47
6, 18899, Note_on_c, 4, 55, 0
6, 19201, Note_on_c, 4, 55, 47
6, 19259, Note_on_c, 4, 55, 0
6, 20041, Note_on_c, 4, 58, 63
6, 20159, Note_on_c, 4, 58, 0
6, 20160, Note_on_c, 4, 57, 63
6, 20519, Note_on_c, 4, 57, 0
6, 20520, Note_on_c, 4, 56, 63
6, 20879, Note_on_c, 4, 56, 0
6, 20880, Note_on_c, 4, 57, 31
6, 21239, Note_on_c, 4, 57, 0
6, 21240, Note_on_c, 4, 57, 31
6, 21599, Note_on_c, 4, 57, 0
6, 22441, Note_on_c, 4, 58, 31
6, 22499, Note_on_c, 4, 58, 0
6, 22801, Note_on_c, 4, 57, 31
6, 22859, Note_on_c, 4, 57, 0
6, 23161, Note_on_c, 4, 55, 31
6, 23219, Note_on_c, 4, 55, 0
6, 23641, Note_on_c, 4, 58, 63
6, 23759, Note_on_c, 4, 58, 0
6, 23760, Note_on_c, 4, 60, 63
6, 23999, Note_on_c, 4, 60, 0
6, 24000, Note_on_c, 4, 58, 63
6, 24119, Note_on_c, 4, 58, 0
6, 24120, Note_on_c, 4, 60, 63
6, 24359, Note_on_c, 4, 60, 0
6, 24360, Note_on_c, 4, 58, 63
6, 24419, Note_on_c, 4, 58, 0
6, 24481, Note_on_c, 4, 63, 81
6, 24839, Note_on_c, 4, 63, 0
6, 24840, Note_on_c, 4, 55, 63
6, 25199, Note_on_c, 4, 55, 0
6, 25200, Note_on_c, 4, 60, 47
6, 25559, Note_on_c, 4, 60, 0
6, 25560, Note_on_c, 4, 62, 31
6, 25919, Note_on_c, 4, 62, 0
6, 25920, Note_on_c, 4, 55, 31
6, 26399, Note_on_c, 4, 55, 0
6, 26521, Note_on_c, 4, 59, 47
6, 26639, Note_on_c, 4, 59, 0
6, 26640, Note_on_c, 4, 55, 47
6, 26879, Note_on_c, 4, 55, 0
6, 26880, Note_on_c, 4, 60, 47
6, 26999, Note_on_c, 4, 60, 0
6, 27000, Note_on_c, 4, 60, 47
6, 27239, Note_on_c, 4, 60, 0
6, 27240, Note_on_c, 4, 60, 47
6, 27359, Note_on_c, 4, 60, 0
6, 27360, Note_on_c, 4, 59, 47
6, 27419, Note_on_c, 4, 59, 0
6, 27420, Note_on_c, 4, 58, 47
6, 27479, Note_on_c, 4, 58, 0
6, 27480, Note_on_c, 4, 59, 47
6, 27539, Note_on_c, 4, 59, 0
6, 27540, Note_on_c, 4, 58, 47
6, 27599, Note_on_c, 4, 58, 0
6, 27600, Note_on_c, 4, 59, 47
6, 27659, Note_on_c, 4, 59, 0
6, 27660, Note_on_c, 4, 58, 47
6, 27719, Note_on_c, 4, 58, 0
6, 27720, Note_on_c, 4, 59, 47
6, 27959, Note_on_c, 4, 59, 0
6, 27960, Note_on_c, 4, 62, 47
6, 28079, Note_on_c, 4, 62, 0
6, 28080, Note_on_c, 4, 62, 47
6, 28439, Note_on_c, 4, 62, 0
6, 28440, Note_on_c, 4, 62, 47
6, 28799, Note_on_c, 4, 62, 0
6, 34201, Note_on_c, 4, 57, 42
6, 34439, Note_on_c, 4, 57, 0
6, 34621, Note_on_c, 4, 50, 31
6, 34679, Note_on_c, 4, 50, 0
6, 34680, Note_on_c, 4, 54, 31
6, 34739, Note_on_c, 4, 54, 0
6, 34740, Note_on_c, 4, 50, 31
6, 34799, Note_on_c, 4, 50, 0
6, 34800, Note_on_c, 4, 52, 31
6, 34859, Note_on_c, 4, 52, 0
6, 34860, Note_on_c, 4, 55, 31
6, 34919, Note_on_c, 4, 55, 0
6, 34981, Note_on_c, 4, 54, 31
6, 35039, Note_on_c, 4, 54, 0
6, 35040, Note_on_c, 4, 57, 31
6, 35099, Note_on_c, 4, 57, 0
6, 35100, Note_on_c, 4, 54, 31
6, 35159, Note_on_c, 4, 54, 0
6, 35160, Note_on_c, 4, 55, 31
6, 35219, Note_on_c, 4, 55, 0
6, 35220, Note_on_c, 4, 59, 31
6, 35279, Note_on_c, 4, 59, 0
6, 35341, Note_on_c, 4, 57, 31
6, 35399, Note_on_c, 4, 57, 0
6, 35400, Note_on_c, 4, 60, 31
6, 35459, Note_on_c, 4, 60, 0
6, 35460, Note_on_c, 4, 57, 31
6, 35519, Note_on_c, 4, 57, 0
6, 35520, Note_on_c, 4, 59, 31
6, 35579, Note_on_c, 4, 59, 0
6, 35580, Note_on_c, 4, 55, 31
6, 35639, Note_on_c, 4, 55, 0
6, 35701, Note_on_c, 4, 54, 31
6, 35759, Note_on_c, 4, 54, 0
6, 35760, Note_on_c, 4, 57, 31
6, 35819, Note_on_c, 4, 57, 0
6, 35820, Note_on_c, 4, 54, 31
6, 35879, Note_on_c, 4, 54, 0
6, 35880, Note_on_c, 4, 55, 31
6, 35939, Note_on_c, 4, 55, 0
6, 35940, Note_on_c, 4, 52, 31
6, 35999, Note_on_c, 4, 52, 0
6, 36000, Note_on_c, 4, 50, 31
6, 36119, Note_on_c, 4, 50, 0
6, 36241, Note_on_c, 4, 50, 38
6, 36359, Note_on_c, 4, 50, 0
6, 36360, Note_on_c, 4, 50, 38
6, 36479, Note_on_c, 4, 50, 0
6, 36601, Note_on_c, 4, 38, 63
6, 36719, Note_on_c, 4, 38, 0
6, 36720, Note_on_c, 4, 38, 63
6, 37439, Note_on_c, 4, 38, 0
6, 37501, Note_on_c, 4, 48, 63
6, 37559, Note_on_c, 4, 48, 0
6, 37560, Note_on_c, 4, 57, 63
6, 37619, Note_on_c, 4, 57, 0
6, 37620, Note_on_c, 4, 54, 63
6, 37679, Note_on_c, 4, 54, 0
6, 37680, Note_on_c, 4, 60, 63
6, 37739, Note_on_c, 4, 60, 0
6, 37740, Note_on_c, 4, 57, 63
6, 37799, Note_on_c, 4, 57, 0
6, 37800, Note_on_c, 4, 66, 63
6, 38159, Note_on_c, 4, 66, 0
6, 38160, Note_on_c, 4, 59, 31
6, 38399, Note_on_c, 4, 59, 0
6, 38400, Note_on_c, 4, 60, 37
6, 38519, Note_on_c, 4, 60, 0
6, 38520, Note_on_c, 4, 60, 37
6, 38759, Note_on_c, 4, 60, 0
6, 38760, Note_on_c, 4, 60, 31
6, 38879, Note_on_c, 4, 60, 0
6, 38880, Note_on_c, 4, 59, 31
6, 38939, Note_on_c, 4, 59, 0
6, 38940, Note_on_c, 4, 58, 31
6, 38999, Note_on_c, 4, 58, 0
6, 39000, Note_on_c, 4, 59, 31
6, 39059, Note_on_c, 4, 59, 0
6, 39060, Note_on_c, 4, 58, 31
6, 39119, Note_on_c, 4, 58, 0
6, 39120, Note_on_c, 4, 59, 31
6, 39179, Note_on_c, 4, 59, 0
6, 39180, Note_on_c, 4, 58, 31
6, 39239, Note_on_c, 4, 58, 0
6, 39240, Note_on_c, 4, 59, 31
6, 39479, Note_on_c, 4, 59, 0
6, 39480, Note_on_c, 4, 62, 31
6, 39599, Note_on_c, 4, 62, 0
6, 39600, Note_on_c, 4, 62, 31
6, 39959, Note_on_c, 4, 62, 0
6, 39960, Note_on_c, 4, 62, 47
6, 40319, Note_on_c, 4, 62, 0
6, 44041, Note_on_c, 4, 58, 31
6, 44099, Note_on_c, 4, 58, 0
6, 44401, Note_on_c, 4, 60, 31
6, 44459, Note_on_c, 4, 60, 0
6, 44761, Note_on_c, 4, 60, 31
6, 44819, Note_on_c, 4, 60, 0
6, 45121, Note_on_c, 4, 58, 31
6, 45179, Note_on_c, 4, 58, 0
6, 45721, Note_on_c, 4, 73, 71
6, 46079, Note_on_c, 4, 73, 0
6, 47761, Note_on_c, 4, 50, 31
6, 47819, Note_on_c, 4, 50, 0
6, 47881, Note_on_c, 4, 50, 31
6, 47939, Note_on_c, 4, 50, 0
6, 48361, Note_on_c, 4, 58, 31
6, 48419, Note_on_c, 4, 58, 0
6, 48721, Note_on_c, 4, 57, 31
6, 48779, Note_on_c, 4, 57, 0
6, 49081, Note_on_c, 4, 55, 31
6, 49139, Note_on_c, 4, 55, 0
6, 49441, Note_on_c, 4, 50, 31
6, 49499, Note_on_c, 4, 50, 0
6, 49561, Note_on_c, 4, 58, 63
6, 49679, Note_on_c, 4, 58, 0
6, 49680, Note_on_c, 4, 60, 63
6, 49919, Note_on_c, 4, 60, 0
6, 49920, Note_on_c, 4, 58, 63
6, 50039, Note_on_c, 4, 58, 0
6, 50040, Note_on_c, 4, 60, 63
6, 50279, Note_on_c, 4, 60, 0
6, 50280, Note_on_c, 4, 58, 63
6, 50399, Note_on_c, 4, 58, 0
6, 50400, Note_on_c, 4, 54, 63
6, 50759, Note_on_c, 4, 54, 0
6, 50760, Note_on_c, 4, 55, 63
6, 50879, Note_on_c, 4, 55, 0
6, 50880, Note_on_c, 4, 57, 63
6, 50999, Note_on_c, 4, 57, 0
6, 51000, Note_on_c, 4, 58, 63
6, 51119, Note_on_c, 4, 58, 0
6, 51120, Note_on_c, 4, 60, 63
6, 51479, Note_on_c, 4, 60, 0
6, 51480, Note_on_c, 4, 50, 40
6, 51839, Note_on_c, 4, 50, 0
6, 52081, Note_on_c, 4, 43, 29
6, 52139, Note_on_c, 4, 43, 0
6, 52201, Note_on_c, 4, 43, 29
6, 52259, Note_on_c, 4, 43, 0
6, 52441, Note_on_c, 4, 55, 47
6, 52559, Note_on_c, 4, 55, 0
6, 52560, Note_on_c, 4, 55, 47
6, 52799, Note_on_c, 4, 55, 0
6, 52800, Note_on_c, 4, 55, 47
6, 52919, Note_on_c, 4, 55, 0
6, 52920, Note_on_c, 4, 55, 47
6, 53159, Note_on_c, 4, 55, 0
6, 53160, Note_on_c, 4, 55, 47
6, 53279, Note_on_c, 4, 55, 0
6, 53280, Note_on_c, 4, 55, 47
6, 53519, Note_on_c, 4, 55, 0
6, 53520, Note_on_c, 4, 55, 47
6, 53639, Note_on_c, 4, 55, 0
6, 53640, Note_on_c, 4, 55, 47
6, 53879, Note_on_c, 4, 55, 0
6, 53880, Note_on_c, 4, 54, 47
6, 53999, Note_on_c, 4, 54, 0
6, 54000, Note_on_c, 4, 55, 63
6, 54059, Note_on_c, 4, 55, 0
6, 54060, Note_on_c, 4, 56, 63
6, 54119, Note_on_c, 4, 56, 0
6, 54120, Note_on_c, 4, 57, 63
6, 54179, Note_on_c, 4, 57, 0
6, 54180, Note_on_c, 4, 58, 63
6, 54239, Note_on_c, 4, 58, 0
6, 54240, Note_on_c, 4, 59, 63
6, 54359, Note_on_c, 4, 59, 0
6, 54360, Note_on_c, 4, 57, 63
6, 54599, Note_on_c, 4, 57, 0
6, 54600, Note_on_c, 4, 55, 63
6, 54719, Note_on_c, 4, 55, 0
6, 54720, Note_on_c, 4, 50, 63
6, 54899, Note_on_c, 4, 50, 0
6, 54900, Note_on_c, 4, 52, 58
6, 54929, Note_on_c, 4, 52, 0
6, 54930, Note_on_c, 4, 54, 53
6, 54959, Note_on_c, 4, 54, 0
6, 54960, Note_on_c, 4, 55, 49
6, 54989, Note_on_c, 4, 55, 0
6, 54990, Note_on_c, 4, 57, 45
6, 55019, Note_on_c, 4, 57, 0
6, 55020, Note_on_c, 4, 59, 41
6, 55049, Note_on_c, 4, 59, 0
6, 55050, Note_on_c, 4, 61, 37
6, 55079, Note_on_c, 4, 61, 0
6, 55080, Note_on_c, 4, 62, 36
6, 55199, Note_on_c, 4, 62, 0
6, 55200, Note_on_c, 4, 60, 41
6, 55319, Note_on_c, 4, 60, 0
6, 55320, Note_on_c, 4, 59, 47
6, 55439, Note_on_c, 4, 59, 0
6, 55440, Note_on_c, 4, 57, 50
6, 55679, Note_on_c, 4, 57, 0
6, 55680, Note_on_c, 4, 55, 63
6, 55799, Note_on_c, 4, 55, 0
6, 55800, Note_on_c, 4, 54, 83
6, 56159, Note_on_c, 4, 54, 0
6, 56160, Note_on_c, 4, 55, 83
6, 57479, Note_on_c, 4, 55, 0
6, 57480, Note_on_c, 4, 57, 83
6, 57599, Note_on_c, 4, 57, 0
6, 57600, Note_on_c, 4, 62, 63
6, 58079, Note_on_c, 4, 62, 0
6, 60601, Note_on_c, 4, 50, 83
6, 60719, Note_on_c, 4, 50, 0
6, 60720, Note_on_c, 4, 52, 83
6, 60839, Note_on_c, 4, 52, 0
6, 60961, Note_on_c, 4, 54, 83
6, 61079, Note_on_c, 4, 54, 0
6, 61080, Note_on_c, 4, 55, 83
6, 61199, Note_on_c, 4, 55, 0
6, 61321, Note_on_c, 4, 57, 83
6, 61439, Note_on_c, 4, 57, 0
6, 61440, Note_on_c, 4, 55, 83
6, 61559, Note_on_c, 4, 55, 0
6, 61681, Note_on_c, 4, 54, 61
6, 61799, Note_on_c, 4, 54, 0
6, 61800, Note_on_c, 4, 52, 61
6, 61919, Note_on_c, 4, 52, 0
6, 61920, Note_on_c, 4, 50, 50
6, 62039, Note_on_c, 4, 50, 0
6, 66121, Note_on_c, 4, 59, 47
6, 66239, Note_on_c, 4, 59, 0
6, 66240, Note_on_c, 4, 59, 47
6, 66479, Note_on_c, 4, 59, 0
6, 66480, Note_on_c, 4, 60, 47
6, 66599, Note_on_c, 4, 60, 0
6, 66600, Note_on_c, 4, 60, 47
6, 66839, Note_on_c, 4, 60, 0
6, 66840, Note_on_c, 4, 60, 47
6, 66959, Note_on_c, 4, 60, 0
6, 66960, Note_on_c, 4, 59, 47
6, 67019, Note_on_c, 4, 59, 0
6, 67081, Note_on_c, 4, 59, 47
6, 67139, Note_on_c, 4, 59, 0
6, 67201, Note_on_c, 4, 59, 47
6, 67259, Note_on_c, 4, 59, 0
6, 67321, Note_on_c, 4, 59, 47
6, 67559, Note_on_c, 4, 59, 0
6, 67560, Note_on_c, 4, 50, 63
6, 67679, Note_on_c, 4, 50, 0
6, 67680, Note_on_c, 4, 55, 63
6, 67799, Note_on_c, 4, 55, 0
6, 67921, Note_on_c, 4, 55, 63
6, 68039, Note_on_c, 4, 55, 0
6, 68040, Note_on_c, 4, 57, 63
6, 68279, Note_on_c, 4, 57, 0
6, 68280, Note_on_c, 4, 55, 63
6, 68399, Note_on_c, 4, 55, 0
6, 69121, Note_on_c, 4, 50, 63
6, 69599, Note_on_c, 4, 50, 0
6, 69600, Note_on_c, 4, 64, 63
6, 69839, Note_on_c, 4, 64, 0
6, 69840, Note_on_c, 4, 60, 47
6, 69959, Note_on_c, 4, 60, 0
6, 69960, Note_on_c, 4, 59, 47
6, 70079, Note_on_c, 4, 59, 0
6, 70080, Note_on_c, 4, 57, 36
6, 70139, Note_on_c, 4, 57, 0
6, 70201, Note_on_c, 4, 57, 36
6, 70319, Note_on_c, 4, 57, 0
6, 70441, Note_on_c, 4, 62, 63
6, 70559, Note_on_c, 4, 62, 0
6, 70560, Note_on_c, 4, 59, 47
6, 70679, Note_on_c, 4, 59, 0
6, 70680, Note_on_c, 4, 57, 47
6, 70799, Note_on_c, 4, 57, 0
6, 70800, Note_on_c, 4, 55, 31
6, 70859, Note_on_c, 4, 55, 0
6, 70921, Note_on_c, 4, 55, 31
6, 71039, Note_on_c, 4, 55, 0
6, 71161, Note_on_c, 4, 52, 31
6, 71279, Note_on_c, 4, 52, 0
6, 71280, Note_on_c, 4, 48, 31
6, 71399, Note_on_c, 4, 48, 0
6, 71641, Note_on_c, 4, 50, 28
6, 71759, Note_on_c, 4, 50, 0
6, 72001, Note_on_c, 4, 55, 28
6, 72059, Note_on_c, 4, 55, 0
6, 72121, Note_on_c, 4, 50, 28
6, 72179, Note_on_c, 4, 50, 0
6, 72241, Note_on_c, 4, 47, 28
6, 72299, Note_on_c, 4, 47, 0
6, 72361, Note_on_c, 4, 55, 63
6, 72479, Note_on_c, 4, 55, 0
6, 74161, Note_on_c, 4, 55, 55
6, 74220, Note_on_c, 4, 55, 0
6, 74282, Note_on_c, 4, 55, 55
6, 74340, Note_on_c, 4, 55, 0
6, 74402, Note_on_c, 4, 55, 55
6, 74460, Note_on_c, 4, 55, 0
6, 74522, Note_on_c, 4, 55, 55
6, 74580, Note_on_c, 4, 55, 0
6, 74642, Note_on_c, 4, 55, 55
6, 74700, Note_on_c, 4, 55, 0
6, 74762, Note_on_c, 4, 55, 55
6, 74820, Note_on_c, 4, 55, 0
6, 74882, Note_on_c, 4, 55, 55
6, 74940, Note_on_c, 4, 55, 0
6, 75002, Note_on_c, 4, 55, 55
6, 75060, Note_on_c, 4, 55, 0
6, 75122, Note_on_c, 4, 55, 55
6, 75360, Note_on_c, 4, 55, 0
6, 75361, Note_on_c, 4, 55, 39
6, 75480, Note_on_c, 4, 55, 0
6, 78002, Note_on_c, 4, 55, 55
6, 78060, Note_on_c, 4, 55, 0
6, 78122, Note_on_c, 4, 55, 55
6, 78180, Note_on_c, 4, 55, 0
6, 78242, Note_on_c, 4, 55, 55
6, 78300, Note_on_c, 4, 55, 0
6, 78362, Note_on_c, 4, 55, 55
6, 78420, Note_on_c, 4, 55, 0
6, 78482, Note_on_c, 4, 55, 55
6, 78540, Note_on_c, 4, 55, 0
6, 78602, Note_on_c, 4, 55, 55
6, 78660, Note_on_c, 4, 55, 0
6, 78722, Note_on_c, 4, 55, 55
6, 78780, Note_on_c, 4, 55, 0
6, 78842, Note_on_c, 4, 55, 55
6, 78900, Note_on_c, 4, 55, 0
6, 78962, Note_on_c, 4, 55, 55
6, 79200, Note_on_c, 4, 55, 0
6, 79201, Note_on_c, 4, 55, 39
6, 79320, Note_on_c, 4, 55, 0
6, 83282, Note_on_c, 4, 38, 63
6, 83400, Note_on_c, 4, 38, 0
6, 83762, Note_on_c, 4, 59, 63
6, 84000, Note_on_c, 4, 59, 0
6, 84122, Note_on_c, 4, 59, 63
6, 84240, Note_on_c, 4, 59, 0
6, 84241, Note_on_c, 4, 60, 63
6, 84480, Note_on_c, 4, 60, 0
6, 84602, Note_on_c, 4, 60, 63
6, 84720, Note_on_c, 4, 60, 0
6, 84721, Note_on_c, 4, 62, 63
6, 84960, Note_on_c, 4, 62, 0
6, 85082, Note_on_c, 4, 58, 63
6, 85200, Note_on_c, 4, 58, 0
6, 85201, Note_on_c, 4, 57, 63
6, 85440, Note_on_c, 4, 57, 0
6, 85562, Note_on_c, 4, 57, 63
6, 85680, Note_on_c, 4, 57, 0
6, 85681, Note_on_c, 4, 58, 63
6, 85920, Note_on_c, 4, 58, 0
6, 86042, Note_on_c, 4, 55, 63
6, 86160, Note_on_c, 4, 55, 0
6, 86161, Note_on_c, 4, 51, 63
6, 86400, Note_on_c, 4, 51, 0
6, 86522, Note_on_c, 4, 51, 63
6, 86640, Note_on_c, 4, 51, 0
6, 86641, Note_on_c, 4, 50, 63
6, 86820, Note_on_c, 4, 50, 0
6, 86821, Note_on_c, 4, 42, 63
6, 86850, Note_on_c, 4, 42, 0
6, 86851, Note_on_c, 4, 43, 63
6, 86880, Note_on_c, 4, 43, 0
6, 86881, Note_on_c, 4, 45, 63
6, 86940, Note_on_c, 4, 45, 0
6, 87002, Note_on_c, 4, 42, 63
6, 87060, Note_on_c, 4, 42, 0
6, 87122, Note_on_c, 4, 38, 63
6, 87360, Note_on_c, 4, 38, 0
6, 87602, Note_on_c, 4, 55, 47
6, 87660, Note_on_c, 4, 55, 0
6, 87722, Note_on_c, 4, 55, 47
6, 87780, Note_on_c, 4, 55, 0
6, 87842, Note_on_c, 4, 55, 47
6, 87900, Note_on_c, 4, 55, 0
6, 87962, Note_on_c, 4, 55, 47
6, 88020, Note_on_c, 4, 55, 0
6, 88082, Note_on_c, 4, 55, 47
6, 88140, Note_on_c, 4, 55, 0
6, 88202, Note_on_c, 4, 55, 47
6, 88260, Note_on_c, 4, 55, 0
6, 88322, Note_on_c, 4, 55, 47
6, 88380, Note_on_c, 4, 55, 0
6, 88442, Note_on_c, 4, 55, 47
6, 88500, Note_on_c, 4, 55, 0
6, 88562, Note_on_c, 4, 55, 47
6, 88800, Note_on_c, 4, 55, 0
6, 88801, Note_on_c, 4, 55, 31
6, 88920, Note_on_c, 4, 55, 0
6, 94322, Note_on_c, 4, 55, 51
6, 94380, Note_on_c, 4, 55, 0
6, 94442, Note_on_c, 4, 55, 51
6, 94500, Note_on_c, 4, 55, 0
6, 94562, Note_on_c, 4, 55, 51
6, 94620, Note_on_c, 4, 55, 0
6, 94682, Note_on_c, 4, 55, 51
6, 94740, Note_on_c, 4, 55, 0
6, 94802, Note_on_c, 4, 55, 51
6, 94860, Note_on_c, 4, 55, 0
6, 94922, Note_on_c, 4, 55, 51
6, 94980, Note_on_c, 4, 55, 0
6, 95042, Note_on_c, 4, 55, 51
6, 95100, Note_on_c, 4, 55, 0
6, 95162, Note_on_c, 4, 55, 51
6, 95220, Note_on_c, 4, 55, 0
6, 95282, Note_on_c, 4, 55, 39
6, 95340, Note_on_c, 4, 55, 0
6, 95402, Note_on_c, 4, 55, 39
6, 95460, Note_on_c, 4, 55, 0
6, 95522, Note_on_c, 4, 55, 50
6, 95580, Note_on_c, 4, 55, 0
6, 95642, Note_on_c, 4, 55, 48
6, 95700, Note_on_c, 4, 55, 0
6, 95762, Note_on_c, 4, 55, 39
6, 95820, Note_on_c, 4, 55, 0
6, 95882, Note_on_c, 4, 55, 39
6, 95940, Note_on_c, 4, 55, 0
6, 96002, Note_on_c, 4, 55, 50
6, 96060, Note_on_c, 4, 55, 0
6, 96122, Note_on_c, 4, 55, 50
6, 96180, Note_on_c, 4, 55, 0
6, 96242, Note_on_c, 4, 47, 50
6, 96480, Note_on_c, 4, 47, 0
6, 96722, Note_on_c, 4, 31, 63
6, 96840, Note_on_c, 4, 31, 0
6, 97202, Note_on_c, 4, 40, 63
6, 97440, Note_on_c, 4, 40, 0
6, 100922, Note_on_c, 4, 39, 31
6, 101040, Note_on_c, 4, 39, 0
6, 101041, Note_on_c, 4, 40, 31
6, 101280, Note_on_c, 4, 40, 0
6, 104762, Note_on_c, 4, 35, 31
6, 104820, Note_on_c, 4, 35, 0
6, 104882, Note_on_c, 4, 36, 63
6, 105120, Note_on_c, 4, 36, 0
6, 105242, Note_on_c, 4, 60, 63
6, 105360, Note_on_c, 4, 60, 0
6, 105361, Note_on_c, 4, 59, 63
6, 105720, Note_on_c, 4, 59, 0
6, 105721, Note_on_c, 4, 56, 63
6, 105840, Note_on_c, 4, 56, 0
6, 105841, Note_on_c, 4, 57, 63
6, 106080, Note_on_c, 4, 57, 0
6, 106081, Note_on_c, 4, 59, 47
6, 106320, Note_on_c, 4, 59, 0
6, 106321, Note_on_c, 4, 60, 36
6, 106560, Note_on_c, 4, 60, 0
6, 111962, Note_on_c, 4, 51, 31
6, 112020, Note_on_c, 4, 51, 0
6, 112021, Note_on_c, 4, 48, 63
6, 112080, Note_on_c, 4, 48, 0
6, 112081, Note_on_c, 4, 45, 63
6, 112140, Note_on_c, 4, 45, 0
6, 112202, Note_on_c, 4, 48, 63
6, 112260, Note_on_c, 4, 48, 0
6, 112261, Note_on_c, 4, 45, 63
6, 112320, Note_on_c, 4, 45, 0
6, 112321, Note_on_c, 4, 42, 63
6, 112380, Note_on_c, 4, 42, 0
6, 112442, Note_on_c, 4, 45, 63
6, 112500, Note_on_c, 4, 45, 0
6, 112501, Note_on_c, 4, 42, 63
6, 112560, Note_on_c, 4, 42, 0
6, 112561, Note_on_c, 4, 39, 63
6, 112800, Note_on_c, 4, 39, 0
6, 114482, Note_on_c, 4, 52, 63
6, 114600, Note_on_c, 4, 52, 0
6, 114722, Note_on_c, 4, 45, 63
6, 114840, Note_on_c, 4, 45, 0
6, 114962, Note_on_c, 4, 47, 63
6, 115080, Note_on_c, 4, 47, 0
6, 115202, Note_on_c, 4, 47, 63
6, 115320, Note_on_c, 4, 47, 0
6, 115562, Note_on_c, 4, 52, 55
6, 115680, Note_on_c, 4, 52, 0
6, 115681, Note_on_c, 4, 40, 55
6, 115800, Note_on_c, 4, 40, 0
6, 116042, Note_on_c, 4, 52, 39
6, 116160, Note_on_c, 4, 52, 0
6, 116161, Note_on_c, 4, 40, 39
6, 116280, Note_on_c, 4, 40, 0
6, 116522, Note_on_c, 4, 52, 39
6, 116640, Note_on_c, 4, 52, 0
6, 116641, Note_on_c, 4, 40, 39
6, 116760, Note_on_c, 4, 40, 0
6, 117002, Note_on_c, 4, 52, 39
6, 117120, Note_on_c, 4, 52, 0
6, 117121, Note_on_c, 4, 40, 39
6, 117240, Note_on_c, 4, 40, 0
6, 117482, Note_on_c, 4, 52, 47
6, 117600, Note_on_c, 4, 52, 0
6, 117601, Note_on_c, 4, 40, 47
6, 117720, Note_on_c, 4, 40, 0
6, 117962, Note_on_c, 4, 51, 36
6, 118080, Note_on_c, 4, 51, 0
6, 118081, Note_on_c, 4, 39, 36
6, 118200, Note_on_c, 4, 39, 0
6, 118442, Note_on_c, 4, 50, 36
6, 118560, Note_on_c, 4, 50, 0
6, 118561, Note_on_c, 4, 38, 36
6, 118680, Note_on_c, 4, 38, 0
6, 118922, Note_on_c, 4, 50, 29
6, 119040, Note_on_c, 4, 50, 0
6, 119041, Note_on_c, 4, 38, 29
6, 119160, Note_on_c, 4, 38, 0
6, 119402, Note_on_c, 4, 50, 29
6, 119520, Note_on_c, 4, 50, 0
6, 119521, Note_on_c, 4, 38, 29
6, 119640, Note_on_c, 4, 38, 0
6, 119882, Note_on_c, 4, 50, 29
6, 120000, Note_on_c, 4, 50, 0
6, 120001, Note_on_c, 4, 38, 29
6, 120120, Note_on_c, 4, 38, 0
6, 120242, Note_on_c, 4, 55, 63
6, 120300, Note_on_c, 4, 55, 0
6, 120362, Note_on_c, 4, 55, 63
6, 120420, Note_on_c, 4, 55, 0
6, 120482, Note_on_c, 4, 55, 63
6, 120540, Note_on_c, 4, 55, 0
6, 120602, Note_on_c, 4, 55, 63
6, 120660, Note_on_c, 4, 55, 0
6, 120722, Note_on_c, 4, 55, 63
6, 120780, Note_on_c, 4, 55, 0
6, 120842, Note_on_c, 4, 55, 63
6, 120900, Note_on_c, 4, 55, 0
6, 120962, Note_on_c, 4, 55, 63
6, 121020, Note_on_c, 4, 55, 0
6, 121082, Note_on_c, 4, 55, 63
6, 121140, Note_on_c, 4, 55, 0
6, 121202, Note_on_c, 4, 55, 63
6, 121560, Note_on_c, 4, 55, 0
6, 124082, Note_on_c, 4, 55, 50
6, 124140, Note_on_c, 4, 55, 0
6, 124202, Note_on_c, 4, 55, 50
6, 124260, Note_on_c, 4, 55, 0
6, 124322, Note_on_c, 4, 55, 50
6, 124380, Note_on_c, 4, 55, 0
6, 124442, Note_on_c, 4, 55, 50
6, 124500, Note_on_c, 4, 55, 0
6, 124562, Note_on_c, 4, 55, 50
6, 124620, Note_on_c, 4, 55, 0
6, 124682, Note_on_c, 4, 55, 50
6, 124740, Note_on_c, 4, 55, 0
6, 124802, Note_on_c, 4, 55, 50
6, 124860, Note_on_c, 4, 55, 0
6, 124922, Note_on_c, 4, 55, 50
6, 124980, Note_on_c, 4, 55, 0
6, 125042, Note_on_c, 4, 55, 50
6, 125400, Note_on_c, 4, 55, 0
6, 129842, Note_on_c, 4, 55, 63
6, 129900, Note_on_c, 4, 55, 0
6, 129962, Note_on_c, 4, 55, 63
6, 130020, Note_on_c, 4, 55, 0
6, 130082, Note_on_c, 4, 55, 63
6, 130140, Note_on_c, 4, 55, 0
6, 130202, Note_on_c, 4, 55, 63
6, 130260, Note_on_c, 4, 55, 0
6, 130322, Note_on_c, 4, 55, 63
6, 130380, Note_on_c, 4, 55, 0
6, 130442, Note_on_c, 4, 55, 63
6, 130500, Note_on_c, 4, 55, 0
6, 130562, Note_on_c, 4, 55, 63
6, 130620, Note_on_c, 4, 55, 0
6, 130682, Note_on_c, 4, 55, 63
6, 130740, Note_on_c, 4, 55, 0
6, 130802, Note_on_c, 4, 55, 63
6, 131040, Note_on_c, 4, 55, 0
6, 131041, Note_on_c, 4, 55, 63
6, 131160, Note_on_c, 4, 55, 0
6, 133682, Note_on_c, 4, 55, 50
6, 133740, Note_on_c, 4, 55, 0
6, 133802, Note_on_c, 4, 55, 50
6, 133860, Note_on_c, 4, 55, 0
6, 133922, Note_on_c, 4, 55, 50
6, 133980, Note_on_c, 4, 55, 0
6, 134042, Note_on_c, 4, 55, 50
6, 134100, Note_on_c, 4, 55, 0
6, 134162, Note_on_c, 4, 55, 50
6, 134220, Note_on_c, 4, 55, 0
6, 134282, Note_on_c, 4, 55, 50
6, 134340, Note_on_c, 4, 55, 0
6, 134402, Note_on_c, 4, 55, 50
6, 134460, Note_on_c, 4, 55, 0
6, 134522, Note_on_c, 4, 55, 50
6, 134580, Note_on_c, 4, 55, 0
6, 134642, Note_on_c, 4, 55, 50
6, 134880, Note_on_c, 4, 55, 0
6, 134881, Note_on_c, 4, 55, 47
6, 135000, Note_on_c, 4, 55, 0
6, 143522, Note_on_c, 4, 55, 47
6, 143580, Note_on_c, 4, 55, 0
6, 143642, Note_on_c, 4, 55, 50
6, 143700, Note_on_c, 4, 55, 0
6, 143762, Note_on_c, 4, 55, 50
6, 143820, Note_on_c, 4, 55, 0
6, 143882, Note_on_c, 4, 55, 50
6, 143940, Note_on_c, 4, 55, 0
6, 144002, Note_on_c, 4, 55, 50
6, 144060, Note_on_c, 4, 55, 0
6, 144122, Note_on_c, 4, 55, 50
6, 144180, Note_on_c, 4, 55, 0
6, 144242, Note_on_c, 4, 55, 50
6, 144600, Note_on_c, 4, 55, 0
6, 144600, End_track
7, 0, Start_track
7, 0, MIDI_port, 0
7, 0, Title_t, "2.Presto"
7, 0, Program_c, 5, 0
7, 0, Program_c, 5, 0
7, 0, Control_c, 5, 7, 127
7, 24481, Note_on_c, 5, 60, 81
7, 24839, Note_on_c, 5, 60, 0
7, 26521, Note_on_c, 5, 55, 47
7, 26639, Note_on_c, 5, 55, 0
7, 26640, Note_on_c, 5, 55, 47
7, 26879, Note_on_c, 5, 55, 0
7, 26880, Note_on_c, 5, 55, 47
7, 26999, Note_on_c, 5, 55, 0
7, 27000, Note_on_c, 5, 55, 47
7, 27239, Note_on_c, 5, 55, 0
7, 27240, Note_on_c, 5, 55, 47
7, 27359, Note_on_c, 5, 55, 0
7, 27360, Note_on_c, 5, 55, 47
7, 27959, Note_on_c, 5, 55, 0
7, 27960, Note_on_c, 5, 54, 47
7, 28079, Note_on_c, 5, 54, 0
7, 28080, Note_on_c, 5, 55, 47
7, 28139, Note_on_c, 5, 55, 0
7, 28140, Note_on_c, 5, 54, 47
7, 28199, Note_on_c, 5, 54, 0
7, 28200, Note_on_c, 5, 55, 47
7, 28259, Note_on_c, 5, 55, 0
7, 28260, Note_on_c, 5, 54, 47
7, 28319, Note_on_c, 5, 54, 0
7, 28320, Note_on_c, 5, 55, 47
7, 28379, Note_on_c, 5, 55, 0
7, 28380, Note_on_c, 5, 59, 47
7, 28439, Note_on_c, 5, 59, 0
7, 28440, Note_on_c, 5, 57, 47
7, 28679, Note_on_c, 5, 57, 0
7, 28680, Note_on_c, 5, 55, 47
7, 28799, Note_on_c, 5, 55, 0
7, 28800, Note_on_c, 5, 50, 47
7, 28859, Note_on_c, 5, 50, 0
7, 28860, Note_on_c, 5, 61, 47
7, 28919, Note_on_c, 5, 61, 0
7, 28920, Note_on_c, 5, 62, 47
7, 28979, Note_on_c, 5, 62, 0
7, 28980, Note_on_c, 5, 61, 47
7, 29039, Note_on_c, 5, 61, 0
7, 29040, Note_on_c, 5, 62, 33
7, 29099, Note_on_c, 5, 62, 0
7, 29100, Note_on_c, 5, 61, 33
7, 29159, Note_on_c, 5, 61, 0
7, 29160, Note_on_c, 5, 62, 27
7, 29219, Note_on_c, 5, 62, 0
7, 29220, Note_on_c, 5, 64, 29
7, 29279, Note_on_c, 5, 64, 0
7, 29280, Note_on_c, 5, 60, 29
7, 29339, Note_on_c, 5, 60, 0
7, 29340, Note_on_c, 5, 62, 29
7, 29399, Note_on_c, 5, 62, 0
7, 29400, Note_on_c, 5, 59, 29
7, 29459, Note_on_c, 5, 59, 0
7, 29460, Note_on_c, 5, 60, 29
7, 29519, Note_on_c, 5, 60, 0
7, 29520, Note_on_c, 5, 57, 29
7, 29579, Note_on_c, 5, 57, 0
7, 29580, Note_on_c, 5, 64, 29
7, 29639, Note_on_c, 5, 64, 0
7, 29640, Note_on_c, 5, 60, 37
7, 29699, Note_on_c, 5, 60, 0
7, 29700, Note_on_c, 5, 59, 37
7, 29759, Note_on_c, 5, 59, 0
7, 29760, Note_on_c, 5, 57, 47
7, 29819, Note_on_c, 5, 57, 0
7, 29820, Note_on_c, 5, 55, 47
7, 29879, Note_on_c, 5, 55, 0
7, 29880, Note_on_c, 5, 54, 41
7, 29939, Note_on_c, 5, 54, 0
7, 29940, Note_on_c, 5, 57, 41
7, 29999, Note_on_c, 5, 57, 0
7, 30000, Note_on_c, 5, 60, 41
7, 30059, Note_on_c, 5, 60, 0
7, 30060, Note_on_c, 5, 62, 41
7, 30119, Note_on_c, 5, 62, 0
7, 30120, Note_on_c, 5, 64, 37
7, 30179, Note_on_c, 5, 64, 0
7, 30180, Note_on_c, 5, 66, 37
7, 30239, Note_on_c, 5, 66, 0
7, 30240, Note_on_c, 5, 67, 31
7, 30479, Note_on_c, 5, 67, 0
7, 30480, Note_on_c, 5, 65, 37
7, 30599, Note_on_c, 5, 65, 0
7, 30600, Note_on_c, 5, 64, 37
7, 30659, Note_on_c, 5, 64, 0
7, 30660, Note_on_c, 5, 67, 37
7, 30719, Note_on_c, 5, 67, 0
7, 30720, Note_on_c, 5, 62, 37
7, 30779, Note_on_c, 5, 62, 0
7, 30780, Note_on_c, 5, 65, 37
7, 30839, Note_on_c, 5, 65, 0
7, 30840, Note_on_c, 5, 60, 37
7, 30899, Note_on_c, 5, 60, 0
7, 30900, Note_on_c, 5, 64, 37
7, 30959, Note_on_c, 5, 64, 0
7, 30960, Note_on_c, 5, 59, 37
7, 31019, Note_on_c, 5, 59, 0
7, 31020, Note_on_c, 5, 62, 37
7, 31079, Note_on_c, 5, 62, 0
7, 31080, Note_on_c, 5, 55, 37
7, 31139, Note_on_c, 5, 55, 0
7, 31140, Note_on_c, 5, 59, 37
7, 31199, Note_on_c, 5, 59, 0
7, 31200, Note_on_c, 5, 54, 56
7, 31259, Note_on_c, 5, 54, 0
7, 31260, Note_on_c, 5, 57, 56
7, 31319, Note_on_c, 5, 57, 0
7, 31320, Note_on_c, 5, 52, 56
7, 31379, Note_on_c, 5, 52, 0
7, 31380, Note_on_c, 5, 55, 56
7, 31439, Note_on_c, 5, 55, 0
7, 31440, Note_on_c, 5, 57, 55
7, 31499, Note_on_c, 5, 57, 0
7, 31500, Note_on_c, 5, 61, 55
7, 31559, Note_on_c, 5, 61, 0
7, 31560, Note_on_c, 5, 64, 55
7, 31619, Note_on_c, 5, 64, 0
7, 31620, Note_on_c, 5, 67, 55
7, 31679, Note_on_c, 5, 67, 0
7, 31680, Note_on_c, 5, 62, 45
7, 31799, Note_on_c, 5, 62, 0
7, 31800, Note_on_c, 5, 62, 37
7, 31919, Note_on_c, 5, 62, 0
7, 31920, Note_on_c, 5, 62, 37
7, 32039, Note_on_c, 5, 62, 0
7, 32040, Note_on_c, 5, 62, 30
7, 32159, Note_on_c, 5, 62, 0
7, 38161, Note_on_c, 5, 55, 31
7, 38399, Note_on_c, 5, 55, 0
7, 38400, Note_on_c, 5, 55, 37
7, 38519, Note_on_c, 5, 55, 0
7, 38520, Note_on_c, 5, 55, 37
7, 38759, Note_on_c, 5, 55, 0
7, 38760, Note_on_c, 5, 55, 31
7, 38879, Note_on_c, 5, 55, 0
7, 38880, Note_on_c, 5, 55, 31
7, 39479, Note_on_c, 5, 55, 0
7, 39480, Note_on_c, 5, 54, 31
7, 39599, Note_on_c, 5, 54, 0
7, 39600, Note_on_c, 5, 57, 31
7, 39629, Note_on_c, 5, 57, 0
7, 39630, Note_on_c, 5, 55, 31
7, 39659, Note_on_c, 5, 55, 0
7, 39660, Note_on_c, 5, 54, 31
7, 39719, Note_on_c, 5, 54, 0
7, 39720, Note_on_c, 5, 55, 37
7, 39779, Note_on_c, 5, 55, 0
7, 39780, Note_on_c, 5, 54, 37
7, 39839, Note_on_c, 5, 54, 0
7, 39840, Note_on_c, 5, 55, 37
7, 39899, Note_on_c, 5, 55, 0
7, 39900, Note_on_c, 5, 59, 37
7, 39959, Note_on_c, 5, 59, 0
7, 39960, Note_on_c, 5, 57, 47
7, 40199, Note_on_c, 5, 57, 0
7, 40200, Note_on_c, 5, 55, 47
7, 40319, Note_on_c, 5, 55, 0
7, 40320, Note_on_c, 5, 50, 37
7, 40379, Note_on_c, 5, 50, 0
7, 40380, Note_on_c, 5, 61, 37
7, 40439, Note_on_c, 5, 61, 0
7, 40440, Note_on_c, 5, 62, 37
7, 40499, Note_on_c, 5, 62, 0
7, 40500, Note_on_c, 5, 61, 37
7, 40559, Note_on_c, 5, 61, 0
7, 40560, Note_on_c, 5, 62, 37
7, 40619, Note_on_c, 5, 62, 0
7, 40620, Note_on_c, 5, 61, 37
7, 40679, Note_on_c, 5, 61, 0
7, 40680, Note_on_c, 5, 62, 37
7, 40739, Note_on_c, 5, 62, 0
7, 40740, Note_on_c, 5, 64, 37
7, 40799, Note_on_c, 5, 64, 0
7, 40800, Note_on_c, 5, 60, 37
7, 40859, Note_on_c, 5, 60, 0
7, 40860, Note_on_c, 5, 62, 37
7, 40919, Note_on_c, 5, 62, 0
7, 40920, Note_on_c, 5, 59, 37
7, 40979, Note_on_c, 5, 59, 0
7, 40980, Note_on_c, 5, 60, 37
7, 41039, Note_on_c, 5, 60, 0
7, 41040, Note_on_c, 5, 57, 37
7, 41099, Note_on_c, 5, 57, 0
7, 41100, Note_on_c, 5, 64, 37
7, 41159, Note_on_c, 5, 64, 0
7, 41160, Note_on_c, 5, 60, 37
7, 41219, Note_on_c, 5, 60, 0
7, 41220, Note_on_c, 5, 59, 37
7, 41279, Note_on_c, 5, 59, 0
7, 41280, Note_on_c, 5, 57, 51
7, 41339, Note_on_c, 5, 57, 0
7, 41340, Note_on_c, 5, 55, 51
7, 41399, Note_on_c, 5, 55, 0
7, 41400, Note_on_c, 5, 54, 51
7, 41459, Note_on_c, 5, 54, 0
7, 41460, Note_on_c, 5, 55, 51
7, 41519, Note_on_c, 5, 55, 0
7, 41520, Note_on_c, 5, 57, 51
7, 41579, Note_on_c, 5, 57, 0
7, 41580, Note_on_c, 5, 50, 51
7, 41639, Note_on_c, 5, 50, 0
7, 41640, Note_on_c, 5, 52, 51
7, 41699, Note_on_c, 5, 52, 0
7, 41700, Note_on_c, 5, 54, 51
7, 41759, Note_on_c, 5, 54, 0
7, 41760, Note_on_c, 5, 55, 64
7, 41819, Note_on_c, 5, 55, 0
7, 41820, Note_on_c, 5, 54, 64
7, 41879, Note_on_c, 5, 54, 0
7, 41880, Note_on_c, 5, 52, 64
7, 41939, Note_on_c, 5, 52, 0
7, 41940, Note_on_c, 5, 50, 64
7, 41999, Note_on_c, 5, 50, 0
7, 42000, Note_on_c, 5, 48, 64
7, 42059, Note_on_c, 5, 48, 0
7, 42060, Note_on_c, 5, 47, 64
7, 42119, Note_on_c, 5, 47, 0
7, 42120, Note_on_c, 5, 52, 64
7, 42179, Note_on_c, 5, 52, 0
7, 42180, Note_on_c, 5, 50, 64
7, 42239, Note_on_c, 5, 50, 0
7, 42240, Note_on_c, 5, 48, 64
7, 42299, Note_on_c, 5, 48, 0
7, 42300, Note_on_c, 5, 47, 64
7, 42359, Note_on_c, 5, 47, 0
7, 42360, Note_on_c, 5, 45, 64
7, 42419, Note_on_c, 5, 45, 0
7, 42420, Note_on_c, 5, 43, 64
7, 42479, Note_on_c, 5, 43, 0
7, 42480, Note_on_c, 5, 48, 63
7, 42599, Note_on_c, 5, 48, 0
7, 42600, Note_on_c, 5, 47, 63
7, 42719, Note_on_c, 5, 47, 0
7, 42720, Note_on_c, 5, 45, 63
7, 42839, Note_on_c, 5, 45, 0
7, 42840, Note_on_c, 5, 50, 63
7, 43199, Note_on_c, 5, 50, 0
7, 43200, Note_on_c, 5, 43, 63
7, 43259, Note_on_c, 5, 43, 0
7, 43260, Note_on_c, 5, 54, 63
7, 43319, Note_on_c, 5, 54, 0
7, 43320, Note_on_c, 5, 55, 47
7, 43379, Note_on_c, 5, 55, 0
7, 43380, Note_on_c, 5, 54, 47
7, 43439, Note_on_c, 5, 54, 0
7, 43440, Note_on_c, 5, 55, 47
7, 43499, Note_on_c, 5, 55, 0
7, 43500, Note_on_c, 5, 54, 31
7, 43559, Note_on_c, 5, 54, 0
7, 43560, Note_on_c, 5, 55, 37
7, 43679, Note_on_c, 5, 55, 0
7, 44041, Note_on_c, 5, 55, 31
7, 44099, Note_on_c, 5, 55, 0
7, 44401, Note_on_c, 5, 55, 31
7, 44459, Note_on_c, 5, 55, 0
7, 44761, Note_on_c, 5, 55, 31
7, 44819, Note_on_c, 5, 55, 0
7, 45121, Note_on_c, 5, 55, 31
7, 45179, Note_on_c, 5, 55, 0
7, 45721, Note_on_c, 5, 70, 71
7, 46079, Note_on_c, 5, 70, 0
7, 66121, Note_on_c, 5, 55, 47
7, 66239, Note_on_c, 5, 55, 0
7, 66240, Note_on_c, 5, 55, 47
7, 66479, Note_on_c, 5, 55, 0
7, 66480, Note_on_c, 5, 55, 47
7, 66599, Note_on_c, 5, 55, 0
7, 66600, Note_on_c, 5, 55, 47
7, 66839, Note_on_c, 5, 55, 0
7, 66840, Note_on_c, 5, 55, 47
7, 66959, Note_on_c, 5, 55, 0
7, 66960, Note_on_c, 5, 55, 47
7, 67019, Note_on_c, 5, 55, 0
7, 67081, Note_on_c, 5, 55, 47
7, 67139, Note_on_c, 5, 55, 0
7, 67201, Note_on_c, 5, 55, 47
7, 67259, Note_on_c, 5, 55, 0
7, 67321, Note_on_c, 5, 55, 47
7, 67559, Note_on_c, 5, 55, 0
7, 67921, Note_on_c, 5, 50, 63
7, 68039, Note_on_c, 5, 50, 0
7, 68040, Note_on_c, 5, 54, 63
7, 68279, Note_on_c, 5, 54, 0
7, 68280, Note_on_c, 5, 50, 63
7, 68399, Note_on_c, 5, 50, 0
7, 68761, Note_on_c, 5, 45, 63
7, 68999, Note_on_c, 5, 45, 0
7, 72361, Note_on_c, 5, 50, 63
7, 72479, Note_on_c, 5, 50, 0
7, 72479, End_track
8, 0, Start_track
8, 0, MIDI_port, 0
8, 0, Title_t, "P.T. 5'43"""
8, 0, Program_c, 6, 0
8, 0, Control_c, 6, 7, 127
8, 0, Program_c, 6, 0
8, 24481, Note_on_c, 6, 57, 81
8, 24839, Note_on_c, 6, 57, 0
8, 45721, Note_on_c, 6, 67, 71
8, 46079, Note_on_c, 6, 67, 0
8, 67921, Note_on_c, 6, 47, 63
8, 68039, Note_on_c, 6, 47, 0
8, 68040, Note_on_c, 6, 45, 63
8, 68279, Note_on_c, 6, 45, 0
8, 68280, Note_on_c, 6, 47, 63
8, 68399, Note_on_c, 6, 47, 0
8, 68761, Note_on_c, 6, 42, 63
8, 68999, Note_on_c, 6, 42, 0
8, 72361, Note_on_c, 6, 47, 63
8, 72479, Note_on_c, 6, 47, 0
8, 72479, End_track
9, 0, Start_track
9, 0, MIDI_port, 0
9, 0, Title_t, "16Kb"
9, 0, Program_c, 7, 0
9, 0, Program_c, 7, 0
9, 0, Control_c, 7, 7, 127
9, 24481, Note_on_c, 7, 54, 81
9, 24839, Note_on_c, 7, 54, 0
9, 67921, Note_on_c, 7, 43, 63
9, 68039, Note_on_c, 7, 43, 0
9, 68761, Note_on_c, 7, 38, 63
9, 68999, Note_on_c, 7, 38, 0
9, 72361, Note_on_c, 7, 43, 63
9, 72479, Note_on_c, 7, 43, 0
9, 72479, End_track
0, 0, End_of_file
