0, 0, Header, 1, 8, 192
1, 0, Start_track
1, 0, Tempo, 500000
1, 0, Time_signature, 2, 2, 24, 8
1, 0, Key_signature, 0, "major"
1, 0, End_track
2, 0, Start_track
2, 0, Title_t, "Hayso051"
2, 0, End_track
3, 0, Start_track
3, 0, Title_t, "Piano"
3, 0, Channel_prefix, 0
3, 0, Control_c, 0, 7, 127
3, 0, Control_c, 0, 10, 64
3, 0, Program_c, 0, 0
3, 0, Note_on_c, 0, 69, 75
3, 45, Note_off_c, 0, 69, 0
3, 48, Note_on_c, 0, 71, 75
3, 93, Note_off_c, 0, 71, 0
3, 96, Note_on_c, 0, 73, 75
3, 141, Note_off_c, 0, 73, 0
3, 144, Note_on_c, 0, 74, 75
3, 189, Note_off_c, 0, 74, 0
3, 192, Note_on_c, 0, 76, 75
3, 237, Note_off_c, 0, 76, 0
3, 240, Note_on_c, 0, 78, 75
3, 285, Note_off_c, 0, 78, 0
3, 288, Note_on_c, 0, 80, 75
3, 333, Note_off_c, 0, 80, 0
3, 336, Note_on_c, 0, 81, 75
3, 381, Note_off_c, 0, 81, 0
3, 384, Note_on_c, 0, 78, 75
3, 405, Note_off_c, 0, 78, 0
3, 408, Note_on_c, 0, 80, 75
3, 429, Note_off_c, 0, 80, 0
3, 432, Note_on_c, 0, 78, 75
3, 453, Note_off_c, 0, 78, 0
3, 456, Note_on_c, 0, 80, 75
3, 477, Note_off_c, 0, 80, 0
3, 480, Note_on_c, 0, 76, 75
3, 573, Note_off_c, 0, 76, 0
3, 672, Note_on_c, 0, 81, 75
3, 765, Note_off_c, 0, 81, 0
3, 768, Note_on_c, 0, 80, 75
3, 801, Note_off_c, 0, 80, 0
3, 804, Note_on_c, 0, 81, 75
3, 825, Note_off_c, 0, 81, 0
3, 828, Note_on_c, 0, 83, 75
3, 861, Note_off_c, 0, 83, 0
3, 864, Note_on_c, 0, 74, 75
3, 957, Note_off_c, 0, 74, 0
3, 960, Note_on_c, 0, 73, 75
3, 984, Note_off_c, 0, 73, 0
3, 984, Note_on_c, 0, 74, 74
3, 1008, Note_off_c, 0, 74, 0
3, 1008, Note_on_c, 0, 73, 73
3, 1032, Note_off_c, 0, 73, 0
3, 1032, Note_on_c, 0, 74, 72
3, 1056, Note_off_c, 0, 74, 0
3, 1056, Note_on_c, 0, 71, 71
3, 1149, Note_off_c, 0, 71, 0
3, 1152, Note_on_c, 0, 73, 70
3, 1185, Note_off_c, 0, 73, 0
3, 1188, Note_on_c, 0, 74, 69
3, 1209, Note_off_c, 0, 74, 0
3, 1212, Note_on_c, 0, 76, 68
3, 1245, Note_off_c, 0, 76, 0
3, 1248, Note_on_c, 0, 69, 67
3, 1341, Note_off_c, 0, 69, 0
3, 1440, Note_on_c, 0, 81, 45
3, 1533, Note_off_c, 0, 81, 0
3, 1536, Note_on_c, 0, 80, 45
3, 1569, Note_off_c, 0, 80, 0
3, 1572, Note_on_c, 0, 81, 45
3, 1593, Note_off_c, 0, 81, 0
3, 1596, Note_on_c, 0, 83, 45
3, 1629, Note_off_c, 0, 83, 0
3, 1632, Note_on_c, 0, 74, 45
3, 1725, Note_off_c, 0, 74, 0
3, 1728, Note_on_c, 0, 73, 45
3, 1752, Note_off_c, 0, 73, 0
3, 1752, Note_on_c, 0, 74, 45
3, 1776, Note_off_c, 0, 74, 0
3, 1776, Note_on_c, 0, 73, 45
3, 1800, Note_off_c, 0, 73, 0
3, 1800, Note_on_c, 0, 74, 45
3, 1821, Note_off_c, 0, 74, 0
3, 1824, Note_on_c, 0, 71, 45
3, 1917, Note_off_c, 0, 71, 0
3, 1920, Note_on_c, 0, 73, 45
3, 1953, Note_off_c, 0, 73, 0
3, 1956, Note_on_c, 0, 74, 45
3, 1977, Note_off_c, 0, 74, 0
3, 1980, Note_on_c, 0, 76, 45
3, 2013, Note_off_c, 0, 76, 0
3, 2016, Note_on_c, 0, 69, 45
3, 2109, Note_off_c, 0, 69, 0
3, 2208, Note_on_c, 0, 81, 75
3, 2229, Note_off_c, 0, 81, 0
3, 2232, Note_on_c, 0, 83, 75
3, 2253, Note_off_c, 0, 83, 0
3, 2256, Note_on_c, 0, 81, 75
3, 2277, Note_off_c, 0, 81, 0
3, 2280, Note_on_c, 0, 83, 75
3, 2301, Note_off_c, 0, 83, 0
3, 2304, Note_on_c, 0, 81, 75
3, 2349, Note_off_c, 0, 81, 0
3, 2352, Note_on_c, 0, 78, 75
3, 2397, Note_off_c, 0, 78, 0
3, 2400, Note_on_c, 0, 76, 75
3, 2445, Note_off_c, 0, 76, 0
3, 2448, Note_on_c, 0, 75, 75
3, 2493, Note_off_c, 0, 75, 0
3, 2496, Note_on_c, 0, 76, 75
3, 2529, Note_off_c, 0, 76, 0
3, 2532, Note_on_c, 0, 78, 75
3, 2553, Note_off_c, 0, 78, 0
3, 2556, Note_on_c, 0, 80, 75
3, 2589, Note_off_c, 0, 80, 0
3, 2592, Note_on_c, 0, 76, 75
3, 2685, Note_off_c, 0, 76, 0
3, 2688, Note_on_c, 0, 81, 75
3, 2733, Note_off_c, 0, 81, 0
3, 2736, Note_on_c, 0, 78, 75
3, 2781, Note_off_c, 0, 78, 0
3, 2784, Note_on_c, 0, 76, 75
3, 2829, Note_off_c, 0, 76, 0
3, 2832, Note_on_c, 0, 75, 75
3, 2877, Note_off_c, 0, 75, 0
3, 2880, Note_on_c, 0, 76, 75
3, 2913, Note_off_c, 0, 76, 0
3, 2916, Note_on_c, 0, 78, 75
3, 2937, Note_off_c, 0, 78, 0
3, 2940, Note_on_c, 0, 80, 75
3, 2973, Note_off_c, 0, 80, 0
3, 2976, Note_on_c, 0, 76, 75
3, 3069, Note_off_c, 0, 76, 0
3, 3072, Note_on_c, 0, 85, 92
3, 3108, Note_off_c, 0, 85, 0
3, 3108, Note_on_c, 0, 83, 92
3, 3132, Note_off_c, 0, 83, 0
3, 3132, Note_on_c, 0, 81, 92
3, 3165, Note_off_c, 0, 81, 0
3, 3168, Note_on_c, 0, 83, 92
3, 3204, Note_off_c, 0, 83, 0
3, 3204, Note_on_c, 0, 81, 92
3, 3228, Note_off_c, 0, 81, 0
3, 3228, Note_on_c, 0, 80, 92
3, 3261, Note_off_c, 0, 80, 0
3, 3264, Note_on_c, 0, 81, 92
3, 3300, Note_off_c, 0, 81, 0
3, 3300, Note_on_c, 0, 80, 92
3, 3324, Note_off_c, 0, 80, 0
3, 3324, Note_on_c, 0, 78, 92
3, 3357, Note_off_c, 0, 78, 0
3, 3360, Note_on_c, 0, 80, 92
3, 3396, Note_off_c, 0, 80, 0
3, 3396, Note_on_c, 0, 78, 92
3, 3420, Note_off_c, 0, 78, 0
3, 3420, Note_on_c, 0, 76, 92
3, 3453, Note_off_c, 0, 76, 0
3, 3456, Note_on_c, 0, 81, 92
3, 3492, Note_off_c, 0, 81, 0
3, 3492, Note_on_c, 0, 80, 92
3, 3516, Note_off_c, 0, 80, 0
3, 3516, Note_on_c, 0, 78, 92
3, 3549, Note_off_c, 0, 78, 0
3, 3552, Note_on_c, 0, 80, 92
3, 3588, Note_off_c, 0, 80, 0
3, 3588, Note_on_c, 0, 78, 92
3, 3612, Note_off_c, 0, 78, 0
3, 3612, Note_on_c, 0, 76, 92
3, 3645, Note_off_c, 0, 76, 0
3, 3648, Note_on_c, 0, 78, 92
3, 3684, Note_off_c, 0, 78, 0
3, 3684, Note_on_c, 0, 76, 92
3, 3708, Note_off_c, 0, 76, 0
3, 3708, Note_on_c, 0, 75, 92
3, 3741, Note_off_c, 0, 75, 0
3, 3744, Note_on_c, 0, 76, 92
3, 3780, Note_off_c, 0, 76, 0
3, 3780, Note_on_c, 0, 75, 92
3, 3804, Note_off_c, 0, 75, 0
3, 3804, Note_on_c, 0, 73, 92
3, 3837, Note_off_c, 0, 73, 0
3, 3840, Note_on_c, 0, 75, 92
3, 3873, Note_off_c, 0, 75, 0
3, 3876, Note_on_c, 0, 76, 92
3, 3897, Note_off_c, 0, 76, 0
3, 3900, Note_on_c, 0, 78, 92
3, 3933, Note_off_c, 0, 78, 0
3, 3936, Note_on_c, 0, 71, 92
3, 4029, Note_off_c, 0, 71, 0
3, 4080, Note_on_c, 0, 71, 92
3, 4125, Note_off_c, 0, 71, 0
3, 4128, Note_on_c, 0, 75, 92
3, 4173, Note_off_c, 0, 75, 0
3, 4176, Note_on_c, 0, 78, 92
3, 4221, Note_off_c, 0, 78, 0
3, 4224, Note_on_c, 0, 76, 75
3, 4257, Note_off_c, 0, 76, 0
3, 4260, Note_on_c, 0, 78, 75
3, 4281, Note_off_c, 0, 78, 0
3, 4284, Note_on_c, 0, 80, 75
3, 4317, Note_off_c, 0, 80, 0
3, 4320, Note_on_c, 0, 71, 75
3, 4413, Note_off_c, 0, 71, 0
3, 4464, Note_on_c, 0, 71, 75
3, 4509, Note_off_c, 0, 71, 0
3, 4512, Note_on_c, 0, 76, 75
3, 4557, Note_off_c, 0, 76, 0
3, 4560, Note_on_c, 0, 80, 75
3, 4605, Note_off_c, 0, 80, 0
3, 4608, Note_on_c, 0, 78, 75
3, 4641, Note_off_c, 0, 78, 0
3, 4644, Note_on_c, 0, 80, 75
3, 4665, Note_off_c, 0, 80, 0
3, 4668, Note_on_c, 0, 81, 75
3, 4701, Note_off_c, 0, 81, 0
3, 4704, Note_on_c, 0, 71, 75
3, 4797, Note_off_c, 0, 71, 0
3, 4848, Note_on_c, 0, 71, 92
3, 4893, Note_off_c, 0, 71, 0
3, 4896, Note_on_c, 0, 78, 92
3, 4941, Note_off_c, 0, 78, 0
3, 4944, Note_on_c, 0, 81, 92
3, 4989, Note_off_c, 0, 81, 0
3, 4992, Note_on_c, 0, 80, 92
3, 5025, Note_off_c, 0, 80, 0
3, 5028, Note_on_c, 0, 81, 92
3, 5049, Note_off_c, 0, 81, 0
3, 5052, Note_on_c, 0, 83, 92
3, 5085, Note_off_c, 0, 83, 0
3, 5088, Note_on_c, 0, 76, 75
3, 5181, Note_off_c, 0, 76, 0
3, 5184, Note_on_c, 0, 78, 75
3, 5208, Note_off_c, 0, 78, 0
3, 5208, Note_on_c, 0, 80, 75
3, 5232, Note_off_c, 0, 80, 0
3, 5232, Note_on_c, 0, 78, 75
3, 5256, Note_off_c, 0, 78, 0
3, 5256, Note_on_c, 0, 80, 75
3, 5277, Note_off_c, 0, 80, 0
3, 5280, Note_on_c, 0, 76, 60
3, 5373, Note_off_c, 0, 76, 0
3, 5376, Note_on_c, 0, 80, 45
3, 5409, Note_off_c, 0, 80, 0
3, 5412, Note_on_c, 0, 81, 45
3, 5433, Note_off_c, 0, 81, 0
3, 5436, Note_on_c, 0, 83, 45
3, 5469, Note_off_c, 0, 83, 0
3, 5472, Note_on_c, 0, 76, 45
3, 5565, Note_off_c, 0, 76, 0
3, 5568, Note_on_c, 0, 75, 45
3, 5661, Note_off_c, 0, 75, 0
3, 5664, Note_on_c, 0, 76, 45
3, 5757, Note_off_c, 0, 76, 0
3, 5856, Note_on_c, 0, 72, 60
3, 5856, Note_on_c, 0, 75, 60
3, 5949, Note_off_c, 0, 75, 0
3, 5949, Note_off_c, 0, 72, 0
3, 5952, Note_on_c, 0, 78, 60
3, 5952, Note_on_c, 0, 75, 60
3, 6045, Note_off_c, 0, 75, 0
3, 6045, Note_off_c, 0, 78, 0
3, 6048, Note_on_c, 0, 75, 60
3, 6048, Note_on_c, 0, 72, 60
3, 6141, Note_off_c, 0, 72, 0
3, 6141, Note_off_c, 0, 75, 0
3, 6240, Note_on_c, 0, 73, 60
3, 6240, Note_on_c, 0, 76, 60
3, 6333, Note_off_c, 0, 76, 0
3, 6333, Note_off_c, 0, 73, 0
3, 6336, Note_on_c, 0, 80, 60
3, 6336, Note_on_c, 0, 76, 60
3, 6429, Note_off_c, 0, 76, 0
3, 6429, Note_off_c, 0, 80, 0
3, 6432, Note_on_c, 0, 76, 60
3, 6432, Note_on_c, 0, 73, 60
3, 6525, Note_off_c, 0, 73, 0
3, 6525, Note_off_c, 0, 76, 0
3, 6624, Note_on_c, 0, 70, 75
3, 6624, Note_on_c, 0, 73, 75
3, 6717, Note_off_c, 0, 73, 0
3, 6717, Note_off_c, 0, 70, 0
3, 6720, Note_on_c, 0, 76, 75
3, 6720, Note_on_c, 0, 73, 75
3, 6813, Note_off_c, 0, 73, 0
3, 6813, Note_off_c, 0, 76, 0
3, 6816, Note_on_c, 0, 73, 75
3, 6816, Note_on_c, 0, 70, 75
3, 6909, Note_off_c, 0, 70, 0
3, 6909, Note_off_c, 0, 73, 0
3, 7008, Note_on_c, 0, 71, 75
3, 7008, Note_on_c, 0, 75, 75
3, 7101, Note_off_c, 0, 75, 0
3, 7101, Note_off_c, 0, 71, 0
3, 7104, Note_on_c, 0, 78, 75
3, 7104, Note_on_c, 0, 75, 75
3, 7197, Note_off_c, 0, 75, 0
3, 7197, Note_off_c, 0, 78, 0
3, 7200, Note_on_c, 0, 75, 75
3, 7200, Note_on_c, 0, 71, 75
3, 7293, Note_off_c, 0, 71, 0
3, 7293, Note_off_c, 0, 75, 0
3, 7392, Note_on_c, 0, 75, 92
3, 7392, Note_on_c, 0, 78, 92
3, 7485, Note_off_c, 0, 78, 0
3, 7485, Note_off_c, 0, 75, 0
3, 7488, Note_on_c, 0, 81, 92
3, 7488, Note_on_c, 0, 78, 92
3, 7581, Note_off_c, 0, 78, 0
3, 7581, Note_off_c, 0, 81, 0
3, 7584, Note_on_c, 0, 78, 92
3, 7584, Note_on_c, 0, 75, 92
3, 7677, Note_off_c, 0, 75, 0
3, 7677, Note_off_c, 0, 78, 0
3, 7776, Note_on_c, 0, 76, 92
3, 7776, Note_on_c, 0, 80, 92
3, 7869, Note_off_c, 0, 80, 0
3, 7869, Note_off_c, 0, 76, 0
3, 7872, Note_on_c, 0, 83, 92
3, 7872, Note_on_c, 0, 80, 92
3, 7965, Note_off_c, 0, 80, 0
3, 7965, Note_off_c, 0, 83, 0
3, 7968, Note_on_c, 0, 80, 92
3, 7968, Note_on_c, 0, 76, 92
3, 8061, Note_off_c, 0, 76, 0
3, 8061, Note_off_c, 0, 80, 0
3, 8160, Note_on_c, 0, 73, 75
3, 8181, Note_off_c, 0, 73, 0
3, 8184, Note_on_c, 0, 75, 75
3, 8205, Note_off_c, 0, 75, 0
3, 8208, Note_on_c, 0, 73, 75
3, 8229, Note_off_c, 0, 73, 0
3, 8232, Note_on_c, 0, 75, 75
3, 8253, Note_off_c, 0, 75, 0
3, 8256, Note_on_c, 0, 71, 75
3, 8349, Note_off_c, 0, 71, 0
3, 8352, Note_on_c, 0, 76, 75
3, 8445, Note_off_c, 0, 76, 0
3, 8544, Note_on_c, 0, 81, 60
3, 8637, Note_off_c, 0, 81, 0
3, 8640, Note_on_c, 0, 80, 60
3, 8661, Note_off_c, 0, 80, 0
3, 8664, Note_on_c, 0, 81, 60
3, 8685, Note_off_c, 0, 81, 0
3, 8688, Note_on_c, 0, 80, 60
3, 8709, Note_off_c, 0, 80, 0
3, 8712, Note_on_c, 0, 81, 60
3, 8733, Note_off_c, 0, 81, 0
3, 8736, Note_on_c, 0, 76, 60
3, 8829, Note_off_c, 0, 76, 0
3, 8928, Note_on_c, 0, 73, 45
3, 8949, Note_off_c, 0, 73, 0
3, 8952, Note_on_c, 0, 74, 45
3, 8973, Note_off_c, 0, 74, 0
3, 8976, Note_on_c, 0, 73, 45
3, 8997, Note_off_c, 0, 73, 0
3, 9000, Note_on_c, 0, 74, 45
3, 9021, Note_off_c, 0, 74, 0
3, 9024, Note_on_c, 0, 71, 45
3, 9117, Note_off_c, 0, 71, 0
3, 9120, Note_on_c, 0, 76, 45
3, 9213, Note_off_c, 0, 76, 0
3, 9312, Note_on_c, 0, 81, 45
3, 9405, Note_off_c, 0, 81, 0
3, 9408, Note_on_c, 0, 80, 46
3, 9429, Note_off_c, 0, 80, 0
3, 9432, Note_on_c, 0, 81, 47
3, 9453, Note_off_c, 0, 81, 0
3, 9456, Note_on_c, 0, 80, 48
3, 9477, Note_off_c, 0, 80, 0
3, 9480, Note_on_c, 0, 81, 49
3, 9501, Note_off_c, 0, 81, 0
3, 9504, Note_on_c, 0, 76, 50
3, 9597, Note_off_c, 0, 76, 0
3, 9696, Note_on_c, 0, 71, 52
3, 9789, Note_off_c, 0, 71, 0
3, 9792, Note_on_c, 0, 71, 53
3, 9885, Note_off_c, 0, 71, 0
3, 9888, Note_on_c, 0, 71, 54
3, 9981, Note_off_c, 0, 71, 0
3, 10080, Note_on_c, 0, 71, 56
3, 10080, Note_on_c, 0, 73, 56
3, 10173, Note_off_c, 0, 73, 0
3, 10173, Note_off_c, 0, 71, 0
3, 10176, Note_on_c, 0, 73, 57
3, 10176, Note_on_c, 0, 71, 57
3, 10269, Note_off_c, 0, 71, 0
3, 10269, Note_off_c, 0, 73, 0
3, 10272, Note_on_c, 0, 73, 58
3, 10272, Note_on_c, 0, 71, 58
3, 10365, Note_off_c, 0, 71, 0
3, 10365, Note_off_c, 0, 73, 0
3, 10464, Note_on_c, 0, 69, 60
3, 10464, Note_on_c, 0, 73, 60
3, 10557, Note_off_c, 0, 73, 0
3, 10557, Note_off_c, 0, 69, 0
3, 10560, Note_on_c, 0, 73, 61
3, 10560, Note_on_c, 0, 69, 61
3, 10653, Note_off_c, 0, 69, 0
3, 10653, Note_off_c, 0, 73, 0
3, 10656, Note_on_c, 0, 73, 62
3, 10656, Note_on_c, 0, 69, 62
3, 10749, Note_off_c, 0, 69, 0
3, 10749, Note_off_c, 0, 73, 0
3, 10848, Note_on_c, 0, 69, 64
3, 10848, Note_on_c, 0, 75, 64
3, 10941, Note_off_c, 0, 75, 0
3, 10941, Note_off_c, 0, 69, 0
3, 10944, Note_on_c, 0, 75, 65
3, 10944, Note_on_c, 0, 69, 65
3, 11037, Note_off_c, 0, 69, 0
3, 11037, Note_off_c, 0, 75, 0
3, 11040, Note_on_c, 0, 75, 66
3, 11040, Note_on_c, 0, 69, 66
3, 11133, Note_off_c, 0, 69, 0
3, 11133, Note_off_c, 0, 75, 0
3, 11136, Note_on_c, 0, 76, 108
3, 11136, Note_on_c, 0, 71, 108
3, 11136, Note_on_c, 0, 68, 108
3, 11296, Note_off_c, 0, 68, 0
3, 11296, Note_off_c, 0, 71, 0
3, 11296, Note_off_c, 0, 76, 0
3, 11328, Note_on_c, 0, 81, 108
3, 11328, Note_on_c, 0, 78, 108
3, 11328, Note_on_c, 0, 75, 108
3, 11328, Note_on_c, 0, 71, 108
3, 11488, Note_off_c, 0, 71, 0
3, 11488, Note_off_c, 0, 75, 0
3, 11488, Note_off_c, 0, 78, 0
3, 11488, Note_off_c, 0, 81, 0
3, 11520, Note_on_c, 0, 80, 108
3, 11520, Note_on_c, 0, 76, 108
3, 11520, Note_on_c, 0, 71, 108
3, 11680, Note_off_c, 0, 71, 0
3, 11680, Note_off_c, 0, 76, 0
3, 11680, Note_off_c, 0, 80, 0
3, 11712, Note_on_c, 0, 78, 108
3, 11712, Note_on_c, 0, 75, 108
3, 11712, Note_on_c, 0, 69, 108
3, 11872, Note_off_c, 0, 69, 0
3, 11872, Note_off_c, 0, 75, 0
3, 11872, Note_off_c, 0, 78, 0
3, 11904, Note_on_c, 0, 76, 92
3, 11904, Note_on_c, 0, 71, 92
3, 11904, Note_on_c, 0, 68, 92
3, 12064, Note_off_c, 0, 68, 0
3, 12064, Note_off_c, 0, 71, 0
3, 12064, Note_off_c, 0, 76, 0
3, 12096, Note_on_c, 0, 81, 92
3, 12096, Note_on_c, 0, 78, 92
3, 12096, Note_on_c, 0, 75, 92
3, 12096, Note_on_c, 0, 71, 92
3, 12256, Note_off_c, 0, 71, 0
3, 12256, Note_off_c, 0, 75, 0
3, 12256, Note_off_c, 0, 78, 0
3, 12256, Note_off_c, 0, 81, 0
3, 12288, Note_on_c, 0, 80, 92
3, 12288, Note_on_c, 0, 76, 92
3, 12288, Note_on_c, 0, 71, 92
3, 12448, Note_off_c, 0, 71, 0
3, 12448, Note_off_c, 0, 76, 0
3, 12448, Note_off_c, 0, 80, 0
3, 12480, Note_on_c, 0, 78, 92
3, 12480, Note_on_c, 0, 75, 92
3, 12480, Note_on_c, 0, 69, 92
3, 12640, Note_off_c, 0, 69, 0
3, 12640, Note_off_c, 0, 75, 0
3, 12640, Note_off_c, 0, 78, 0
3, 12672, Note_on_c, 0, 76, 60
3, 12717, Note_off_c, 0, 76, 0
3, 12720, Note_on_c, 0, 80, 60
3, 12765, Note_off_c, 0, 80, 0
3, 12768, Note_on_c, 0, 71, 60
3, 12813, Note_off_c, 0, 71, 0
3, 12816, Note_on_c, 0, 76, 60
3, 12861, Note_off_c, 0, 76, 0
3, 12864, Note_on_c, 0, 68, 60
3, 12909, Note_off_c, 0, 68, 0
3, 12912, Note_on_c, 0, 71, 60
3, 12957, Note_off_c, 0, 71, 0
3, 12960, Note_on_c, 0, 64, 60
3, 13005, Note_off_c, 0, 64, 0
3, 13008, Note_on_c, 0, 68, 60
3, 13053, Note_off_c, 0, 68, 0
3, 13056, Note_on_c, 0, 73, 60
3, 13101, Note_off_c, 0, 73, 0
3, 13104, Note_on_c, 0, 76, 60
3, 13149, Note_off_c, 0, 76, 0
3, 13152, Note_on_c, 0, 69, 60
3, 13197, Note_off_c, 0, 69, 0
3, 13200, Note_on_c, 0, 73, 60
3, 13245, Note_off_c, 0, 73, 0
3, 13248, Note_on_c, 0, 66, 60
3, 13293, Note_off_c, 0, 66, 0
3, 13296, Note_on_c, 0, 69, 60
3, 13341, Note_off_c, 0, 69, 0
3, 13344, Note_on_c, 0, 61, 60
3, 13389, Note_off_c, 0, 61, 0
3, 13392, Note_on_c, 0, 66, 60
3, 13437, Note_off_c, 0, 66, 0
3, 13440, Note_on_c, 0, 64, 60
3, 13600, Note_off_c, 0, 64, 0
3, 13632, Note_on_c, 0, 63, 60
3, 13653, Note_off_c, 0, 63, 0
3, 13656, Note_on_c, 0, 64, 60
3, 13677, Note_off_c, 0, 64, 0
3, 13680, Note_on_c, 0, 63, 60
3, 13701, Note_off_c, 0, 63, 0
3, 13704, Note_on_c, 0, 64, 60
3, 13725, Note_off_c, 0, 64, 0
3, 13728, Note_on_c, 0, 63, 60
3, 13749, Note_off_c, 0, 63, 0
3, 13752, Note_on_c, 0, 64, 60
3, 13773, Note_off_c, 0, 64, 0
3, 13776, Note_on_c, 0, 63, 60
3, 13797, Note_off_c, 0, 63, 0
3, 13800, Note_on_c, 0, 64, 60
3, 13821, Note_off_c, 0, 64, 0
3, 13824, Note_on_c, 0, 64, 60
3, 13984, Note_off_c, 0, 64, 0
3, 14208, Note_on_c, 0, 76, 92
3, 14208, Note_on_c, 0, 71, 92
3, 14208, Note_on_c, 0, 67, 92
3, 14368, Note_off_c, 0, 67, 0
3, 14368, Note_off_c, 0, 71, 0
3, 14368, Note_off_c, 0, 76, 0
3, 14496, Note_on_c, 0, 76, 92
3, 14496, Note_on_c, 0, 67, 92
3, 14589, Note_off_c, 0, 67, 0
3, 14589, Note_off_c, 0, 76, 0
3, 14592, Note_on_c, 0, 76, 92
3, 14592, Note_on_c, 0, 67, 92
3, 14637, Note_off_c, 0, 67, 0
3, 14637, Note_off_c, 0, 76, 0
3, 14640, Note_on_c, 0, 66, 92
3, 14640, Note_on_c, 0, 75, 92
3, 14685, Note_off_c, 0, 75, 0
3, 14685, Note_off_c, 0, 66, 0
3, 14688, Note_on_c, 0, 66, 92
3, 14688, Note_on_c, 0, 75, 92
3, 14781, Note_off_c, 0, 75, 0
3, 14781, Note_off_c, 0, 66, 0
3, 14976, Note_on_c, 0, 81, 92
3, 14976, Note_on_c, 0, 78, 92
3, 14976, Note_on_c, 0, 75, 92
3, 14976, Note_on_c, 0, 71, 92
3, 15136, Note_off_c, 0, 71, 0
3, 15136, Note_off_c, 0, 75, 0
3, 15136, Note_off_c, 0, 78, 0
3, 15136, Note_off_c, 0, 81, 0
3, 15264, Note_on_c, 0, 81, 92
3, 15264, Note_on_c, 0, 78, 92
3, 15357, Note_off_c, 0, 78, 0
3, 15357, Note_off_c, 0, 81, 0
3, 15360, Note_on_c, 0, 81, 92
3, 15360, Note_on_c, 0, 78, 92
3, 15405, Note_off_c, 0, 78, 0
3, 15405, Note_off_c, 0, 81, 0
3, 15408, Note_on_c, 0, 76, 92
3, 15408, Note_on_c, 0, 79, 92
3, 15453, Note_off_c, 0, 79, 0
3, 15453, Note_off_c, 0, 76, 0
3, 15456, Note_on_c, 0, 76, 92
3, 15456, Note_on_c, 0, 79, 92
3, 15549, Note_off_c, 0, 79, 0
3, 15549, Note_off_c, 0, 76, 0
3, 15744, Note_on_c, 0, 84, 108
3, 15744, Note_on_c, 0, 81, 108
3, 15904, Note_off_c, 0, 81, 0
3, 15904, Note_off_c, 0, 84, 0
3, 16032, Note_on_c, 0, 84, 108
3, 16032, Note_on_c, 0, 81, 108
3, 16125, Note_off_c, 0, 81, 0
3, 16125, Note_off_c, 0, 84, 0
3, 16128, Note_on_c, 0, 84, 108
3, 16128, Note_on_c, 0, 81, 108
3, 16176, Note_off_c, 0, 81, 0
3, 16176, Note_off_c, 0, 84, 0
3, 16176, Note_on_c, 0, 79, 108
3, 16176, Note_on_c, 0, 83, 108
3, 16221, Note_off_c, 0, 83, 0
3, 16221, Note_off_c, 0, 79, 0
3, 16224, Note_on_c, 0, 79, 108
3, 16224, Note_on_c, 0, 83, 108
3, 16317, Note_off_c, 0, 83, 0
3, 16317, Note_off_c, 0, 79, 0
3, 16416, Note_on_c, 0, 83, 108
3, 16416, Note_on_c, 0, 79, 108
3, 16509, Note_off_c, 0, 79, 0
3, 16509, Note_off_c, 0, 83, 0
3, 16512, Note_on_c, 0, 83, 108
3, 16512, Note_on_c, 0, 79, 108
3, 16560, Note_off_c, 0, 79, 0
3, 16560, Note_off_c, 0, 83, 0
3, 16560, Note_on_c, 0, 78, 108
3, 16560, Note_on_c, 0, 81, 108
3, 16605, Note_off_c, 0, 81, 0
3, 16605, Note_off_c, 0, 78, 0
3, 16608, Note_on_c, 0, 78, 108
3, 16608, Note_on_c, 0, 81, 108
3, 16701, Note_off_c, 0, 81, 0
3, 16701, Note_off_c, 0, 78, 0
3, 16800, Note_on_c, 0, 81, 108
3, 16800, Note_on_c, 0, 78, 108
3, 16893, Note_off_c, 0, 78, 0
3, 16893, Note_off_c, 0, 81, 0
3, 16896, Note_on_c, 0, 81, 108
3, 16896, Note_on_c, 0, 78, 108
3, 16944, Note_off_c, 0, 78, 0
3, 16944, Note_off_c, 0, 81, 0
3, 16944, Note_on_c, 0, 76, 108
3, 16944, Note_on_c, 0, 79, 108
3, 16989, Note_off_c, 0, 79, 0
3, 16989, Note_off_c, 0, 76, 0
3, 16992, Note_on_c, 0, 76, 108
3, 16992, Note_on_c, 0, 79, 108
3, 17085, Note_off_c, 0, 79, 0
3, 17085, Note_off_c, 0, 76, 0
3, 17184, Note_on_c, 0, 79, 108
3, 17184, Note_on_c, 0, 76, 108
3, 17277, Note_off_c, 0, 76, 0
3, 17277, Note_off_c, 0, 79, 0
3, 17280, Note_on_c, 0, 81, 108
3, 17280, Note_on_c, 0, 78, 108
3, 17328, Note_off_c, 0, 78, 0
3, 17328, Note_off_c, 0, 81, 0
3, 17328, Note_on_c, 0, 76, 108
3, 17328, Note_on_c, 0, 79, 108
3, 17373, Note_off_c, 0, 79, 0
3, 17373, Note_off_c, 0, 76, 0
3, 17376, Note_on_c, 0, 76, 108
3, 17376, Note_on_c, 0, 79, 108
3, 17469, Note_off_c, 0, 79, 0
3, 17469, Note_off_c, 0, 76, 0
3, 17568, Note_on_c, 0, 79, 108
3, 17568, Note_on_c, 0, 76, 108
3, 17661, Note_off_c, 0, 76, 0
3, 17661, Note_off_c, 0, 79, 0
3, 17664, Note_on_c, 0, 81, 108
3, 17664, Note_on_c, 0, 78, 108
3, 17712, Note_off_c, 0, 78, 0
3, 17712, Note_off_c, 0, 81, 0
3, 17712, Note_on_c, 0, 76, 108
3, 17712, Note_on_c, 0, 79, 108
3, 17757, Note_off_c, 0, 79, 0
3, 17757, Note_off_c, 0, 76, 0
3, 17760, Note_on_c, 0, 76, 108
3, 17760, Note_on_c, 0, 79, 108
3, 17853, Note_off_c, 0, 79, 0
3, 17853, Note_off_c, 0, 76, 0
3, 17952, Note_on_c, 0, 79, 108
3, 17952, Note_on_c, 0, 76, 108
3, 18045, Note_off_c, 0, 76, 0
3, 18045, Note_off_c, 0, 79, 0
3, 18048, Note_on_c, 0, 79, 108
3, 18048, Note_on_c, 0, 76, 108
3, 18144, Note_off_c, 0, 76, 0
3, 18144, Note_off_c, 0, 79, 0
3, 18144, Note_on_c, 0, 78, 108
3, 18144, Note_on_c, 0, 75, 108
3, 18237, Note_off_c, 0, 75, 0
3, 18237, Note_off_c, 0, 78, 0
3, 18432, Note_on_c, 0, 64, 92
3, 18465, Note_off_c, 0, 64, 0
3, 18468, Note_on_c, 0, 68, 92
3, 18489, Note_off_c, 0, 68, 0
3, 18492, Note_on_c, 0, 71, 92
3, 18525, Note_off_c, 0, 71, 0
3, 18528, Note_on_c, 0, 68, 92
3, 18561, Note_off_c, 0, 68, 0
3, 18564, Note_on_c, 0, 71, 92
3, 18585, Note_off_c, 0, 71, 0
3, 18588, Note_on_c, 0, 76, 92
3, 18621, Note_off_c, 0, 76, 0
3, 18624, Note_on_c, 0, 71, 92
3, 18657, Note_off_c, 0, 71, 0
3, 18660, Note_on_c, 0, 76, 92
3, 18681, Note_off_c, 0, 76, 0
3, 18684, Note_on_c, 0, 80, 92
3, 18717, Note_off_c, 0, 80, 0
3, 18720, Note_on_c, 0, 76, 92
3, 18753, Note_off_c, 0, 76, 0
3, 18756, Note_on_c, 0, 80, 92
3, 18777, Note_off_c, 0, 80, 0
3, 18780, Note_on_c, 0, 83, 92
3, 18813, Note_off_c, 0, 83, 0
3, 18816, Note_on_c, 0, 81, 92
3, 18816, Note_on_c, 0, 78, 92
3, 18976, Note_off_c, 0, 78, 0
3, 18976, Note_off_c, 0, 81, 0
3, 19200, Note_on_c, 0, 59, 92
3, 19233, Note_off_c, 0, 59, 0
3, 19236, Note_on_c, 0, 63, 92
3, 19257, Note_off_c, 0, 63, 0
3, 19260, Note_on_c, 0, 66, 92
3, 19293, Note_off_c, 0, 66, 0
3, 19296, Note_on_c, 0, 63, 92
3, 19329, Note_off_c, 0, 63, 0
3, 19332, Note_on_c, 0, 66, 92
3, 19353, Note_off_c, 0, 66, 0
3, 19356, Note_on_c, 0, 69, 92
3, 19389, Note_off_c, 0, 69, 0
3, 19392, Note_on_c, 0, 69, 92
3, 19425, Note_off_c, 0, 69, 0
3, 19428, Note_on_c, 0, 75, 92
3, 19449, Note_off_c, 0, 75, 0
3, 19452, Note_on_c, 0, 78, 92
3, 19485, Note_off_c, 0, 78, 0
3, 19488, Note_on_c, 0, 75, 92
3, 19521, Note_off_c, 0, 75, 0
3, 19524, Note_on_c, 0, 78, 92
3, 19545, Note_off_c, 0, 78, 0
3, 19548, Note_on_c, 0, 81, 92
3, 19581, Note_off_c, 0, 81, 0
3, 19584, Note_on_c, 0, 80, 92
3, 19584, Note_on_c, 0, 76, 92
3, 19744, Note_off_c, 0, 76, 0
3, 19744, Note_off_c, 0, 80, 0
3, 20064, Note_on_c, 0, 76, 60
3, 20157, Note_off_c, 0, 76, 0
3, 20160, Note_on_c, 0, 80, 60
3, 20253, Note_off_c, 0, 80, 0
3, 20256, Note_on_c, 0, 83, 60
3, 20349, Note_off_c, 0, 83, 0
3, 20352, Note_on_c, 0, 73, 60
3, 20512, Note_off_c, 0, 73, 0
3, 20832, Note_on_c, 0, 76, 75
3, 20925, Note_off_c, 0, 76, 0
3, 20928, Note_on_c, 0, 80, 75
3, 21021, Note_off_c, 0, 80, 0
3, 21024, Note_on_c, 0, 83, 75
3, 21117, Note_off_c, 0, 83, 0
3, 21120, Note_on_c, 0, 76, 75
3, 21141, Note_off_c, 0, 76, 0
3, 21144, Note_on_c, 0, 78, 75
3, 21165, Note_off_c, 0, 78, 0
3, 21168, Note_on_c, 0, 76, 75
3, 21189, Note_off_c, 0, 76, 0
3, 21192, Note_on_c, 0, 78, 75
3, 21213, Note_off_c, 0, 78, 0
3, 21216, Note_on_c, 0, 76, 75
3, 21237, Note_off_c, 0, 76, 0
3, 21240, Note_on_c, 0, 78, 75
3, 21261, Note_off_c, 0, 78, 0
3, 21264, Note_on_c, 0, 76, 75
3, 21285, Note_off_c, 0, 76, 0
3, 21288, Note_on_c, 0, 78, 75
3, 21309, Note_off_c, 0, 78, 0
3, 21600, Note_on_c, 0, 76, 75
3, 21693, Note_off_c, 0, 76, 0
3, 21696, Note_on_c, 0, 80, 75
3, 21789, Note_off_c, 0, 80, 0
3, 21792, Note_on_c, 0, 83, 75
3, 21885, Note_off_c, 0, 83, 0
3, 21888, Note_on_c, 0, 83, 75
3, 21981, Note_off_c, 0, 83, 0
3, 21984, Note_on_c, 0, 84, 75
3, 22077, Note_off_c, 0, 84, 0
3, 22080, Note_on_c, 0, 85, 75
3, 22173, Note_off_c, 0, 85, 0
3, 22176, Note_on_c, 0, 81, 75
3, 22269, Note_off_c, 0, 81, 0
3, 22272, Note_on_c, 0, 81, 75
3, 22317, Note_off_c, 0, 81, 0
3, 22320, Note_on_c, 0, 80, 75
3, 22365, Note_off_c, 0, 80, 0
3, 22368, Note_on_c, 0, 78, 75
3, 22413, Note_off_c, 0, 78, 0
3, 22416, Note_on_c, 0, 76, 75
3, 22461, Note_off_c, 0, 76, 0
3, 22464, Note_on_c, 0, 80, 75
3, 22509, Note_off_c, 0, 80, 0
3, 22512, Note_on_c, 0, 78, 75
3, 22557, Note_off_c, 0, 78, 0
3, 22560, Note_on_c, 0, 76, 75
3, 22605, Note_off_c, 0, 76, 0
3, 22608, Note_on_c, 0, 75, 75
3, 22653, Note_off_c, 0, 75, 0
3, 22656, Note_on_c, 0, 76, 75
3, 22749, Note_off_c, 0, 76, 0
3, 22752, Note_on_c, 0, 76, 75
3, 22752, Note_on_c, 0, 80, 75
3, 22785, Note_off_c, 0, 80, 0
3, 22785, Note_off_c, 0, 76, 0
3, 22788, Note_on_c, 0, 78, 75
3, 22788, Note_on_c, 0, 81, 75
3, 22809, Note_off_c, 0, 81, 0
3, 22809, Note_off_c, 0, 78, 0
3, 22812, Note_on_c, 0, 80, 75
3, 22812, Note_on_c, 0, 83, 75
3, 22845, Note_off_c, 0, 83, 0
3, 22845, Note_off_c, 0, 80, 0
3, 22848, Note_on_c, 0, 81, 60
3, 22848, Note_on_c, 0, 78, 60
3, 22941, Note_off_c, 0, 78, 0
3, 22941, Note_off_c, 0, 81, 0
3, 22944, Note_on_c, 0, 75, 60
3, 22944, Note_on_c, 0, 69, 60
3, 23037, Note_off_c, 0, 69, 0
3, 23037, Note_off_c, 0, 75, 0
3, 23040, Note_on_c, 0, 76, 60
3, 23040, Note_on_c, 0, 68, 60
3, 23133, Note_off_c, 0, 68, 0
3, 23133, Note_off_c, 0, 76, 0
3, 23136, Note_on_c, 0, 64, 45
3, 23136, Note_on_c, 0, 68, 45
3, 23169, Note_off_c, 0, 68, 0
3, 23169, Note_off_c, 0, 64, 0
3, 23172, Note_on_c, 0, 66, 45
3, 23172, Note_on_c, 0, 69, 45
3, 23193, Note_off_c, 0, 69, 0
3, 23193, Note_off_c, 0, 66, 0
3, 23196, Note_on_c, 0, 68, 45
3, 23196, Note_on_c, 0, 71, 45
3, 23229, Note_off_c, 0, 71, 0
3, 23229, Note_off_c, 0, 68, 0
3, 23232, Note_on_c, 0, 69, 45
3, 23232, Note_on_c, 0, 66, 45
3, 23325, Note_off_c, 0, 66, 0
3, 23325, Note_off_c, 0, 69, 0
3, 23328, Note_on_c, 0, 63, 45
3, 23328, Note_on_c, 0, 57, 45
3, 23421, Note_off_c, 0, 57, 0
3, 23421, Note_off_c, 0, 63, 0
3, 23424, Note_on_c, 0, 64, 45
3, 23424, Note_on_c, 0, 56, 45
3, 23584, Note_off_c, 0, 56, 0
3, 23584, Note_off_c, 0, 64, 0
3, 23808, Control_c, 0, 10, 64
3, 23808, Note_on_c, 0, 69, 75
3, 23853, Note_off_c, 0, 69, 0
3, 23856, Note_on_c, 0, 71, 75
3, 23901, Note_off_c, 0, 71, 0
3, 23904, Note_on_c, 0, 73, 75
3, 23949, Note_off_c, 0, 73, 0
3, 23952, Note_on_c, 0, 74, 75
3, 23997, Note_off_c, 0, 74, 0
3, 24000, Note_on_c, 0, 76, 75
3, 24045, Note_off_c, 0, 76, 0
3, 24048, Note_on_c, 0, 78, 75
3, 24093, Note_off_c, 0, 78, 0
3, 24096, Note_on_c, 0, 80, 75
3, 24141, Note_off_c, 0, 80, 0
3, 24144, Note_on_c, 0, 81, 75
3, 24189, Note_off_c, 0, 81, 0
3, 24192, Note_on_c, 0, 78, 75
3, 24213, Note_off_c, 0, 78, 0
3, 24216, Note_on_c, 0, 80, 75
3, 24237, Note_off_c, 0, 80, 0
3, 24240, Note_on_c, 0, 78, 75
3, 24261, Note_off_c, 0, 78, 0
3, 24264, Note_on_c, 0, 80, 75
3, 24285, Note_off_c, 0, 80, 0
3, 24288, Note_on_c, 0, 76, 75
3, 24381, Note_off_c, 0, 76, 0
3, 24480, Note_on_c, 0, 81, 75
3, 24573, Note_off_c, 0, 81, 0
3, 24576, Note_on_c, 0, 80, 75
3, 24609, Note_off_c, 0, 80, 0
3, 24612, Note_on_c, 0, 81, 75
3, 24633, Note_off_c, 0, 81, 0
3, 24636, Note_on_c, 0, 83, 75
3, 24669, Note_off_c, 0, 83, 0
3, 24672, Note_on_c, 0, 74, 75
3, 24765, Note_off_c, 0, 74, 0
3, 24768, Note_on_c, 0, 73, 75
3, 24792, Note_off_c, 0, 73, 0
3, 24792, Note_on_c, 0, 74, 74
3, 24816, Note_off_c, 0, 74, 0
3, 24816, Note_on_c, 0, 73, 73
3, 24840, Note_off_c, 0, 73, 0
3, 24840, Note_on_c, 0, 74, 72
3, 24864, Note_off_c, 0, 74, 0
3, 24864, Note_on_c, 0, 71, 71
3, 24957, Note_off_c, 0, 71, 0
3, 24960, Note_on_c, 0, 73, 70
3, 24993, Note_off_c, 0, 73, 0
3, 24996, Note_on_c, 0, 74, 69
3, 25017, Note_off_c, 0, 74, 0
3, 25020, Note_on_c, 0, 76, 68
3, 25053, Note_off_c, 0, 76, 0
3, 25056, Note_on_c, 0, 69, 67
3, 25149, Note_off_c, 0, 69, 0
3, 25248, Note_on_c, 0, 81, 45
3, 25341, Note_off_c, 0, 81, 0
3, 25344, Note_on_c, 0, 80, 45
3, 25377, Note_off_c, 0, 80, 0
3, 25380, Note_on_c, 0, 81, 45
3, 25401, Note_off_c, 0, 81, 0
3, 25404, Note_on_c, 0, 83, 45
3, 25437, Note_off_c, 0, 83, 0
3, 25440, Note_on_c, 0, 74, 45
3, 25533, Note_off_c, 0, 74, 0
3, 25536, Note_on_c, 0, 73, 45
3, 25560, Note_off_c, 0, 73, 0
3, 25560, Note_on_c, 0, 74, 45
3, 25584, Note_off_c, 0, 74, 0
3, 25584, Note_on_c, 0, 73, 45
3, 25608, Note_off_c, 0, 73, 0
3, 25608, Note_on_c, 0, 74, 45
3, 25629, Note_off_c, 0, 74, 0
3, 25632, Note_on_c, 0, 71, 45
3, 25725, Note_off_c, 0, 71, 0
3, 25728, Note_on_c, 0, 73, 45
3, 25761, Note_off_c, 0, 73, 0
3, 25764, Note_on_c, 0, 74, 45
3, 25785, Note_off_c, 0, 74, 0
3, 25788, Note_on_c, 0, 76, 45
3, 25821, Note_off_c, 0, 76, 0
3, 25824, Note_on_c, 0, 69, 45
3, 25917, Note_off_c, 0, 69, 0
3, 26016, Note_on_c, 0, 81, 75
3, 26037, Note_off_c, 0, 81, 0
3, 26040, Note_on_c, 0, 83, 75
3, 26061, Note_off_c, 0, 83, 0
3, 26064, Note_on_c, 0, 81, 75
3, 26085, Note_off_c, 0, 81, 0
3, 26088, Note_on_c, 0, 83, 75
3, 26109, Note_off_c, 0, 83, 0
3, 26112, Note_on_c, 0, 81, 75
3, 26157, Note_off_c, 0, 81, 0
3, 26160, Note_on_c, 0, 78, 75
3, 26205, Note_off_c, 0, 78, 0
3, 26208, Note_on_c, 0, 76, 75
3, 26253, Note_off_c, 0, 76, 0
3, 26256, Note_on_c, 0, 75, 75
3, 26301, Note_off_c, 0, 75, 0
3, 26304, Note_on_c, 0, 76, 75
3, 26337, Note_off_c, 0, 76, 0
3, 26340, Note_on_c, 0, 78, 75
3, 26361, Note_off_c, 0, 78, 0
3, 26364, Note_on_c, 0, 80, 75
3, 26397, Note_off_c, 0, 80, 0
3, 26400, Note_on_c, 0, 76, 75
3, 26493, Note_off_c, 0, 76, 0
3, 26496, Note_on_c, 0, 81, 75
3, 26541, Note_off_c, 0, 81, 0
3, 26544, Note_on_c, 0, 78, 75
3, 26589, Note_off_c, 0, 78, 0
3, 26592, Note_on_c, 0, 76, 75
3, 26637, Note_off_c, 0, 76, 0
3, 26640, Note_on_c, 0, 75, 75
3, 26685, Note_off_c, 0, 75, 0
3, 26688, Note_on_c, 0, 76, 75
3, 26721, Note_off_c, 0, 76, 0
3, 26724, Note_on_c, 0, 78, 75
3, 26745, Note_off_c, 0, 78, 0
3, 26748, Note_on_c, 0, 80, 75
3, 26781, Note_off_c, 0, 80, 0
3, 26784, Note_on_c, 0, 76, 75
3, 26877, Note_off_c, 0, 76, 0
3, 26880, Note_on_c, 0, 85, 92
3, 26916, Note_off_c, 0, 85, 0
3, 26916, Note_on_c, 0, 83, 92
3, 26940, Note_off_c, 0, 83, 0
3, 26940, Note_on_c, 0, 81, 92
3, 26973, Note_off_c, 0, 81, 0
3, 26976, Note_on_c, 0, 83, 92
3, 27012, Note_off_c, 0, 83, 0
3, 27012, Note_on_c, 0, 81, 92
3, 27036, Note_off_c, 0, 81, 0
3, 27036, Note_on_c, 0, 80, 92
3, 27069, Note_off_c, 0, 80, 0
3, 27072, Note_on_c, 0, 81, 92
3, 27108, Note_off_c, 0, 81, 0
3, 27108, Note_on_c, 0, 80, 92
3, 27132, Note_off_c, 0, 80, 0
3, 27132, Note_on_c, 0, 78, 92
3, 27165, Note_off_c, 0, 78, 0
3, 27168, Note_on_c, 0, 80, 92
3, 27204, Note_off_c, 0, 80, 0
3, 27204, Note_on_c, 0, 78, 92
3, 27228, Note_off_c, 0, 78, 0
3, 27228, Note_on_c, 0, 76, 92
3, 27261, Note_off_c, 0, 76, 0
3, 27264, Note_on_c, 0, 81, 92
3, 27300, Note_off_c, 0, 81, 0
3, 27300, Note_on_c, 0, 80, 92
3, 27324, Note_off_c, 0, 80, 0
3, 27324, Note_on_c, 0, 78, 92
3, 27357, Note_off_c, 0, 78, 0
3, 27360, Note_on_c, 0, 80, 92
3, 27396, Note_off_c, 0, 80, 0
3, 27396, Note_on_c, 0, 78, 92
3, 27420, Note_off_c, 0, 78, 0
3, 27420, Note_on_c, 0, 76, 92
3, 27453, Note_off_c, 0, 76, 0
3, 27456, Note_on_c, 0, 78, 92
3, 27492, Note_off_c, 0, 78, 0
3, 27492, Note_on_c, 0, 76, 92
3, 27516, Note_off_c, 0, 76, 0
3, 27516, Note_on_c, 0, 75, 92
3, 27549, Note_off_c, 0, 75, 0
3, 27552, Note_on_c, 0, 76, 92
3, 27588, Note_off_c, 0, 76, 0
3, 27588, Note_on_c, 0, 75, 92
3, 27612, Note_off_c, 0, 75, 0
3, 27612, Note_on_c, 0, 73, 92
3, 27645, Note_off_c, 0, 73, 0
3, 27648, Note_on_c, 0, 75, 92
3, 27681, Note_off_c, 0, 75, 0
3, 27684, Note_on_c, 0, 76, 92
3, 27705, Note_off_c, 0, 76, 0
3, 27708, Note_on_c, 0, 78, 92
3, 27741, Note_off_c, 0, 78, 0
3, 27744, Note_on_c, 0, 71, 92
3, 27837, Note_off_c, 0, 71, 0
3, 27888, Note_on_c, 0, 71, 92
3, 27933, Note_off_c, 0, 71, 0
3, 27936, Note_on_c, 0, 75, 92
3, 27981, Note_off_c, 0, 75, 0
3, 27984, Note_on_c, 0, 78, 92
3, 28029, Note_off_c, 0, 78, 0
3, 28032, Note_on_c, 0, 76, 75
3, 28065, Note_off_c, 0, 76, 0
3, 28068, Note_on_c, 0, 78, 75
3, 28089, Note_off_c, 0, 78, 0
3, 28092, Note_on_c, 0, 80, 75
3, 28125, Note_off_c, 0, 80, 0
3, 28128, Note_on_c, 0, 71, 75
3, 28221, Note_off_c, 0, 71, 0
3, 28272, Note_on_c, 0, 71, 75
3, 28317, Note_off_c, 0, 71, 0
3, 28320, Note_on_c, 0, 76, 75
3, 28365, Note_off_c, 0, 76, 0
3, 28368, Note_on_c, 0, 80, 75
3, 28413, Note_off_c, 0, 80, 0
3, 28416, Note_on_c, 0, 78, 75
3, 28449, Note_off_c, 0, 78, 0
3, 28452, Note_on_c, 0, 80, 75
3, 28473, Note_off_c, 0, 80, 0
3, 28476, Note_on_c, 0, 81, 75
3, 28509, Note_off_c, 0, 81, 0
3, 28512, Note_on_c, 0, 71, 75
3, 28605, Note_off_c, 0, 71, 0
3, 28656, Note_on_c, 0, 71, 92
3, 28701, Note_off_c, 0, 71, 0
3, 28704, Note_on_c, 0, 78, 92
3, 28749, Note_off_c, 0, 78, 0
3, 28752, Note_on_c, 0, 81, 92
3, 28797, Note_off_c, 0, 81, 0
3, 28800, Note_on_c, 0, 80, 92
3, 28833, Note_off_c, 0, 80, 0
3, 28836, Note_on_c, 0, 81, 92
3, 28857, Note_off_c, 0, 81, 0
3, 28860, Note_on_c, 0, 83, 92
3, 28893, Note_off_c, 0, 83, 0
3, 28896, Note_on_c, 0, 76, 75
3, 28989, Note_off_c, 0, 76, 0
3, 28992, Note_on_c, 0, 78, 75
3, 29016, Note_off_c, 0, 78, 0
3, 29016, Note_on_c, 0, 80, 75
3, 29040, Note_off_c, 0, 80, 0
3, 29040, Note_on_c, 0, 78, 75
3, 29064, Note_off_c, 0, 78, 0
3, 29064, Note_on_c, 0, 80, 75
3, 29085, Note_off_c, 0, 80, 0
3, 29088, Note_on_c, 0, 76, 60
3, 29181, Note_off_c, 0, 76, 0
3, 29184, Note_on_c, 0, 80, 45
3, 29217, Note_off_c, 0, 80, 0
3, 29220, Note_on_c, 0, 81, 45
3, 29241, Note_off_c, 0, 81, 0
3, 29244, Note_on_c, 0, 83, 45
3, 29277, Note_off_c, 0, 83, 0
3, 29280, Note_on_c, 0, 76, 45
3, 29373, Note_off_c, 0, 76, 0
3, 29376, Note_on_c, 0, 75, 45
3, 29469, Note_off_c, 0, 75, 0
3, 29472, Note_on_c, 0, 76, 45
3, 29565, Note_off_c, 0, 76, 0
3, 29664, Note_on_c, 0, 72, 60
3, 29664, Note_on_c, 0, 75, 60
3, 29757, Note_off_c, 0, 75, 0
3, 29757, Note_off_c, 0, 72, 0
3, 29760, Note_on_c, 0, 78, 60
3, 29760, Note_on_c, 0, 75, 60
3, 29853, Note_off_c, 0, 75, 0
3, 29853, Note_off_c, 0, 78, 0
3, 29856, Note_on_c, 0, 75, 60
3, 29856, Note_on_c, 0, 72, 60
3, 29949, Note_off_c, 0, 72, 0
3, 29949, Note_off_c, 0, 75, 0
3, 30048, Note_on_c, 0, 73, 60
3, 30048, Note_on_c, 0, 76, 60
3, 30141, Note_off_c, 0, 76, 0
3, 30141, Note_off_c, 0, 73, 0
3, 30144, Note_on_c, 0, 80, 60
3, 30144, Note_on_c, 0, 76, 60
3, 30237, Note_off_c, 0, 76, 0
3, 30237, Note_off_c, 0, 80, 0
3, 30240, Note_on_c, 0, 76, 60
3, 30240, Note_on_c, 0, 73, 60
3, 30333, Note_off_c, 0, 73, 0
3, 30333, Note_off_c, 0, 76, 0
3, 30432, Note_on_c, 0, 70, 75
3, 30432, Note_on_c, 0, 73, 75
3, 30525, Note_off_c, 0, 73, 0
3, 30525, Note_off_c, 0, 70, 0
3, 30528, Note_on_c, 0, 76, 75
3, 30528, Note_on_c, 0, 73, 75
3, 30621, Note_off_c, 0, 73, 0
3, 30621, Note_off_c, 0, 76, 0
3, 30624, Note_on_c, 0, 73, 75
3, 30624, Note_on_c, 0, 70, 75
3, 30717, Note_off_c, 0, 70, 0
3, 30717, Note_off_c, 0, 73, 0
3, 30816, Note_on_c, 0, 71, 75
3, 30816, Note_on_c, 0, 75, 75
3, 30909, Note_off_c, 0, 75, 0
3, 30909, Note_off_c, 0, 71, 0
3, 30912, Note_on_c, 0, 78, 75
3, 30912, Note_on_c, 0, 75, 75
3, 31005, Note_off_c, 0, 75, 0
3, 31005, Note_off_c, 0, 78, 0
3, 31008, Note_on_c, 0, 75, 75
3, 31008, Note_on_c, 0, 71, 75
3, 31101, Note_off_c, 0, 71, 0
3, 31101, Note_off_c, 0, 75, 0
3, 31200, Note_on_c, 0, 75, 92
3, 31200, Note_on_c, 0, 78, 92
3, 31293, Note_off_c, 0, 78, 0
3, 31293, Note_off_c, 0, 75, 0
3, 31296, Note_on_c, 0, 81, 92
3, 31296, Note_on_c, 0, 78, 92
3, 31389, Note_off_c, 0, 78, 0
3, 31389, Note_off_c, 0, 81, 0
3, 31392, Note_on_c, 0, 78, 92
3, 31392, Note_on_c, 0, 75, 92
3, 31485, Note_off_c, 0, 75, 0
3, 31485, Note_off_c, 0, 78, 0
3, 31584, Note_on_c, 0, 76, 92
3, 31584, Note_on_c, 0, 80, 92
3, 31677, Note_off_c, 0, 80, 0
3, 31677, Note_off_c, 0, 76, 0
3, 31680, Note_on_c, 0, 83, 92
3, 31680, Note_on_c, 0, 80, 92
3, 31773, Note_off_c, 0, 80, 0
3, 31773, Note_off_c, 0, 83, 0
3, 31776, Note_on_c, 0, 80, 92
3, 31776, Note_on_c, 0, 76, 92
3, 31869, Note_off_c, 0, 76, 0
3, 31869, Note_off_c, 0, 80, 0
3, 31968, Note_on_c, 0, 73, 75
3, 31989, Note_off_c, 0, 73, 0
3, 31992, Note_on_c, 0, 75, 75
3, 32013, Note_off_c, 0, 75, 0
3, 32016, Note_on_c, 0, 73, 75
3, 32037, Note_off_c, 0, 73, 0
3, 32040, Note_on_c, 0, 75, 75
3, 32061, Note_off_c, 0, 75, 0
3, 32064, Note_on_c, 0, 71, 75
3, 32157, Note_off_c, 0, 71, 0
3, 32160, Note_on_c, 0, 76, 75
3, 32253, Note_off_c, 0, 76, 0
3, 32352, Note_on_c, 0, 81, 60
3, 32445, Note_off_c, 0, 81, 0
3, 32448, Note_on_c, 0, 80, 60
3, 32469, Note_off_c, 0, 80, 0
3, 32472, Note_on_c, 0, 81, 60
3, 32493, Note_off_c, 0, 81, 0
3, 32496, Note_on_c, 0, 80, 60
3, 32517, Note_off_c, 0, 80, 0
3, 32520, Note_on_c, 0, 81, 60
3, 32541, Note_off_c, 0, 81, 0
3, 32544, Note_on_c, 0, 76, 60
3, 32637, Note_off_c, 0, 76, 0
3, 32736, Note_on_c, 0, 73, 45
3, 32757, Note_off_c, 0, 73, 0
3, 32760, Note_on_c, 0, 74, 45
3, 32781, Note_off_c, 0, 74, 0
3, 32784, Note_on_c, 0, 73, 45
3, 32805, Note_off_c, 0, 73, 0
3, 32808, Note_on_c, 0, 74, 45
3, 32829, Note_off_c, 0, 74, 0
3, 32832, Note_on_c, 0, 71, 45
3, 32925, Note_off_c, 0, 71, 0
3, 32928, Note_on_c, 0, 76, 45
3, 33021, Note_off_c, 0, 76, 0
3, 33120, Note_on_c, 0, 81, 45
3, 33213, Note_off_c, 0, 81, 0
3, 33216, Note_on_c, 0, 80, 46
3, 33237, Note_off_c, 0, 80, 0
3, 33240, Note_on_c, 0, 81, 47
3, 33261, Note_off_c, 0, 81, 0
3, 33264, Note_on_c, 0, 80, 48
3, 33285, Note_off_c, 0, 80, 0
3, 33288, Note_on_c, 0, 81, 49
3, 33309, Note_off_c, 0, 81, 0
3, 33312, Note_on_c, 0, 76, 50
3, 33405, Note_off_c, 0, 76, 0
3, 33504, Note_on_c, 0, 71, 52
3, 33597, Note_off_c, 0, 71, 0
3, 33600, Note_on_c, 0, 71, 53
3, 33693, Note_off_c, 0, 71, 0
3, 33696, Note_on_c, 0, 71, 54
3, 33789, Note_off_c, 0, 71, 0
3, 33888, Note_on_c, 0, 71, 56
3, 33888, Note_on_c, 0, 73, 56
3, 33981, Note_off_c, 0, 73, 0
3, 33981, Note_off_c, 0, 71, 0
3, 33984, Note_on_c, 0, 73, 57
3, 33984, Note_on_c, 0, 71, 57
3, 34077, Note_off_c, 0, 71, 0
3, 34077, Note_off_c, 0, 73, 0
3, 34080, Note_on_c, 0, 73, 58
3, 34080, Note_on_c, 0, 71, 58
3, 34173, Note_off_c, 0, 71, 0
3, 34173, Note_off_c, 0, 73, 0
3, 34272, Note_on_c, 0, 69, 60
3, 34272, Note_on_c, 0, 73, 60
3, 34365, Note_off_c, 0, 73, 0
3, 34365, Note_off_c, 0, 69, 0
3, 34368, Note_on_c, 0, 73, 61
3, 34368, Note_on_c, 0, 69, 61
3, 34461, Note_off_c, 0, 69, 0
3, 34461, Note_off_c, 0, 73, 0
3, 34464, Note_on_c, 0, 73, 62
3, 34464, Note_on_c, 0, 69, 62
3, 34557, Note_off_c, 0, 69, 0
3, 34557, Note_off_c, 0, 73, 0
3, 34656, Note_on_c, 0, 69, 64
3, 34656, Note_on_c, 0, 75, 64
3, 34749, Note_off_c, 0, 75, 0
3, 34749, Note_off_c, 0, 69, 0
3, 34752, Note_on_c, 0, 75, 65
3, 34752, Note_on_c, 0, 69, 65
3, 34845, Note_off_c, 0, 69, 0
3, 34845, Note_off_c, 0, 75, 0
3, 34848, Note_on_c, 0, 75, 66
3, 34848, Note_on_c, 0, 69, 66
3, 34941, Note_off_c, 0, 69, 0
3, 34941, Note_off_c, 0, 75, 0
3, 34944, Note_on_c, 0, 76, 108
3, 34944, Note_on_c, 0, 71, 108
3, 34944, Note_on_c, 0, 68, 108
3, 35104, Note_off_c, 0, 68, 0
3, 35104, Note_off_c, 0, 71, 0
3, 35104, Note_off_c, 0, 76, 0
3, 35136, Note_on_c, 0, 81, 108
3, 35136, Note_on_c, 0, 78, 108
3, 35136, Note_on_c, 0, 75, 108
3, 35136, Note_on_c, 0, 71, 108
3, 35296, Note_off_c, 0, 71, 0
3, 35296, Note_off_c, 0, 75, 0
3, 35296, Note_off_c, 0, 78, 0
3, 35296, Note_off_c, 0, 81, 0
3, 35328, Note_on_c, 0, 80, 108
3, 35328, Note_on_c, 0, 76, 108
3, 35328, Note_on_c, 0, 71, 108
3, 35488, Note_off_c, 0, 71, 0
3, 35488, Note_off_c, 0, 76, 0
3, 35488, Note_off_c, 0, 80, 0
3, 35520, Note_on_c, 0, 78, 108
3, 35520, Note_on_c, 0, 75, 108
3, 35520, Note_on_c, 0, 69, 108
3, 35680, Note_off_c, 0, 69, 0
3, 35680, Note_off_c, 0, 75, 0
3, 35680, Note_off_c, 0, 78, 0
3, 35712, Note_on_c, 0, 76, 92
3, 35712, Note_on_c, 0, 71, 92
3, 35712, Note_on_c, 0, 68, 92
3, 35872, Note_off_c, 0, 68, 0
3, 35872, Note_off_c, 0, 71, 0
3, 35872, Note_off_c, 0, 76, 0
3, 35904, Note_on_c, 0, 81, 92
3, 35904, Note_on_c, 0, 78, 92
3, 35904, Note_on_c, 0, 75, 92
3, 35904, Note_on_c, 0, 71, 92
3, 36064, Note_off_c, 0, 71, 0
3, 36064, Note_off_c, 0, 75, 0
3, 36064, Note_off_c, 0, 78, 0
3, 36064, Note_off_c, 0, 81, 0
3, 36096, Note_on_c, 0, 80, 92
3, 36096, Note_on_c, 0, 76, 92
3, 36096, Note_on_c, 0, 71, 92
3, 36256, Note_off_c, 0, 71, 0
3, 36256, Note_off_c, 0, 76, 0
3, 36256, Note_off_c, 0, 80, 0
3, 36288, Note_on_c, 0, 78, 92
3, 36288, Note_on_c, 0, 75, 92
3, 36288, Note_on_c, 0, 69, 92
3, 36448, Note_off_c, 0, 69, 0
3, 36448, Note_off_c, 0, 75, 0
3, 36448, Note_off_c, 0, 78, 0
3, 36480, Note_on_c, 0, 76, 60
3, 36525, Note_off_c, 0, 76, 0
3, 36528, Note_on_c, 0, 80, 60
3, 36573, Note_off_c, 0, 80, 0
3, 36576, Note_on_c, 0, 71, 60
3, 36621, Note_off_c, 0, 71, 0
3, 36624, Note_on_c, 0, 76, 60
3, 36669, Note_off_c, 0, 76, 0
3, 36672, Note_on_c, 0, 68, 60
3, 36717, Note_off_c, 0, 68, 0
3, 36720, Note_on_c, 0, 71, 60
3, 36765, Note_off_c, 0, 71, 0
3, 36768, Note_on_c, 0, 64, 60
3, 36813, Note_off_c, 0, 64, 0
3, 36816, Note_on_c, 0, 68, 60
3, 36861, Note_off_c, 0, 68, 0
3, 36864, Note_on_c, 0, 73, 60
3, 36909, Note_off_c, 0, 73, 0
3, 36912, Note_on_c, 0, 76, 60
3, 36957, Note_off_c, 0, 76, 0
3, 36960, Note_on_c, 0, 69, 60
3, 37005, Note_off_c, 0, 69, 0
3, 37008, Note_on_c, 0, 73, 60
3, 37053, Note_off_c, 0, 73, 0
3, 37056, Note_on_c, 0, 66, 60
3, 37101, Note_off_c, 0, 66, 0
3, 37104, Note_on_c, 0, 69, 60
3, 37149, Note_off_c, 0, 69, 0
3, 37152, Note_on_c, 0, 61, 60
3, 37197, Note_off_c, 0, 61, 0
3, 37200, Note_on_c, 0, 66, 60
3, 37245, Note_off_c, 0, 66, 0
3, 37248, Note_on_c, 0, 64, 60
3, 37408, Note_off_c, 0, 64, 0
3, 37440, Note_on_c, 0, 63, 60
3, 37461, Note_off_c, 0, 63, 0
3, 37464, Note_on_c, 0, 64, 60
3, 37485, Note_off_c, 0, 64, 0
3, 37488, Note_on_c, 0, 63, 60
3, 37509, Note_off_c, 0, 63, 0
3, 37512, Note_on_c, 0, 64, 60
3, 37533, Note_off_c, 0, 64, 0
3, 37536, Note_on_c, 0, 63, 60
3, 37557, Note_off_c, 0, 63, 0
3, 37560, Note_on_c, 0, 64, 60
3, 37581, Note_off_c, 0, 64, 0
3, 37584, Note_on_c, 0, 63, 60
3, 37605, Note_off_c, 0, 63, 0
3, 37608, Note_on_c, 0, 64, 60
3, 37629, Note_off_c, 0, 64, 0
3, 37632, Note_on_c, 0, 64, 60
3, 37792, Note_off_c, 0, 64, 0
3, 38016, Note_on_c, 0, 76, 92
3, 38016, Note_on_c, 0, 71, 92
3, 38016, Note_on_c, 0, 67, 92
3, 38176, Note_off_c, 0, 67, 0
3, 38176, Note_off_c, 0, 71, 0
3, 38176, Note_off_c, 0, 76, 0
3, 38304, Note_on_c, 0, 76, 92
3, 38304, Note_on_c, 0, 67, 92
3, 38397, Note_off_c, 0, 67, 0
3, 38397, Note_off_c, 0, 76, 0
3, 38400, Note_on_c, 0, 76, 92
3, 38400, Note_on_c, 0, 67, 92
3, 38445, Note_off_c, 0, 67, 0
3, 38445, Note_off_c, 0, 76, 0
3, 38448, Note_on_c, 0, 66, 92
3, 38448, Note_on_c, 0, 75, 92
3, 38493, Note_off_c, 0, 75, 0
3, 38493, Note_off_c, 0, 66, 0
3, 38496, Note_on_c, 0, 66, 92
3, 38496, Note_on_c, 0, 75, 92
3, 38589, Note_off_c, 0, 75, 0
3, 38589, Note_off_c, 0, 66, 0
3, 38784, Note_on_c, 0, 81, 92
3, 38784, Note_on_c, 0, 78, 92
3, 38784, Note_on_c, 0, 75, 92
3, 38784, Note_on_c, 0, 71, 92
3, 38944, Note_off_c, 0, 71, 0
3, 38944, Note_off_c, 0, 75, 0
3, 38944, Note_off_c, 0, 78, 0
3, 38944, Note_off_c, 0, 81, 0
3, 39072, Note_on_c, 0, 81, 92
3, 39072, Note_on_c, 0, 78, 92
3, 39165, Note_off_c, 0, 78, 0
3, 39165, Note_off_c, 0, 81, 0
3, 39168, Note_on_c, 0, 81, 92
3, 39168, Note_on_c, 0, 78, 92
3, 39213, Note_off_c, 0, 78, 0
3, 39213, Note_off_c, 0, 81, 0
3, 39216, Note_on_c, 0, 76, 92
3, 39216, Note_on_c, 0, 79, 92
3, 39261, Note_off_c, 0, 79, 0
3, 39261, Note_off_c, 0, 76, 0
3, 39264, Note_on_c, 0, 76, 92
3, 39264, Note_on_c, 0, 79, 92
3, 39357, Note_off_c, 0, 79, 0
3, 39357, Note_off_c, 0, 76, 0
3, 39552, Note_on_c, 0, 84, 108
3, 39552, Note_on_c, 0, 81, 108
3, 39712, Note_off_c, 0, 81, 0
3, 39712, Note_off_c, 0, 84, 0
3, 39840, Note_on_c, 0, 84, 108
3, 39840, Note_on_c, 0, 81, 108
3, 39933, Note_off_c, 0, 81, 0
3, 39933, Note_off_c, 0, 84, 0
3, 39936, Note_on_c, 0, 84, 108
3, 39936, Note_on_c, 0, 81, 108
3, 39984, Note_off_c, 0, 81, 0
3, 39984, Note_off_c, 0, 84, 0
3, 39984, Note_on_c, 0, 79, 108
3, 39984, Note_on_c, 0, 83, 108
3, 40029, Note_off_c, 0, 83, 0
3, 40029, Note_off_c, 0, 79, 0
3, 40032, Note_on_c, 0, 79, 108
3, 40032, Note_on_c, 0, 83, 108
3, 40125, Note_off_c, 0, 83, 0
3, 40125, Note_off_c, 0, 79, 0
3, 40224, Note_on_c, 0, 83, 108
3, 40224, Note_on_c, 0, 79, 108
3, 40317, Note_off_c, 0, 79, 0
3, 40317, Note_off_c, 0, 83, 0
3, 40320, Note_on_c, 0, 83, 108
3, 40320, Note_on_c, 0, 79, 108
3, 40368, Note_off_c, 0, 79, 0
3, 40368, Note_off_c, 0, 83, 0
3, 40368, Note_on_c, 0, 78, 108
3, 40368, Note_on_c, 0, 81, 108
3, 40413, Note_off_c, 0, 81, 0
3, 40413, Note_off_c, 0, 78, 0
3, 40416, Note_on_c, 0, 78, 108
3, 40416, Note_on_c, 0, 81, 108
3, 40509, Note_off_c, 0, 81, 0
3, 40509, Note_off_c, 0, 78, 0
3, 40608, Note_on_c, 0, 81, 108
3, 40608, Note_on_c, 0, 78, 108
3, 40701, Note_off_c, 0, 78, 0
3, 40701, Note_off_c, 0, 81, 0
3, 40704, Note_on_c, 0, 81, 108
3, 40704, Note_on_c, 0, 78, 108
3, 40752, Note_off_c, 0, 78, 0
3, 40752, Note_off_c, 0, 81, 0
3, 40752, Note_on_c, 0, 76, 108
3, 40752, Note_on_c, 0, 79, 108
3, 40797, Note_off_c, 0, 79, 0
3, 40797, Note_off_c, 0, 76, 0
3, 40800, Note_on_c, 0, 76, 108
3, 40800, Note_on_c, 0, 79, 108
3, 40893, Note_off_c, 0, 79, 0
3, 40893, Note_off_c, 0, 76, 0
3, 40992, Note_on_c, 0, 79, 108
3, 40992, Note_on_c, 0, 76, 108
3, 41085, Note_off_c, 0, 76, 0
3, 41085, Note_off_c, 0, 79, 0
3, 41088, Note_on_c, 0, 81, 108
3, 41088, Note_on_c, 0, 78, 108
3, 41136, Note_off_c, 0, 78, 0
3, 41136, Note_off_c, 0, 81, 0
3, 41136, Note_on_c, 0, 76, 108
3, 41136, Note_on_c, 0, 79, 108
3, 41181, Note_off_c, 0, 79, 0
3, 41181, Note_off_c, 0, 76, 0
3, 41184, Note_on_c, 0, 76, 108
3, 41184, Note_on_c, 0, 79, 108
3, 41277, Note_off_c, 0, 79, 0
3, 41277, Note_off_c, 0, 76, 0
3, 41376, Note_on_c, 0, 79, 108
3, 41376, Note_on_c, 0, 76, 108
3, 41469, Note_off_c, 0, 76, 0
3, 41469, Note_off_c, 0, 79, 0
3, 41472, Note_on_c, 0, 81, 108
3, 41472, Note_on_c, 0, 78, 108
3, 41520, Note_off_c, 0, 78, 0
3, 41520, Note_off_c, 0, 81, 0
3, 41520, Note_on_c, 0, 76, 108
3, 41520, Note_on_c, 0, 79, 108
3, 41565, Note_off_c, 0, 79, 0
3, 41565, Note_off_c, 0, 76, 0
3, 41568, Note_on_c, 0, 76, 108
3, 41568, Note_on_c, 0, 79, 108
3, 41661, Note_off_c, 0, 79, 0
3, 41661, Note_off_c, 0, 76, 0
3, 41760, Note_on_c, 0, 79, 108
3, 41760, Note_on_c, 0, 76, 108
3, 41853, Note_off_c, 0, 76, 0
3, 41853, Note_off_c, 0, 79, 0
3, 41856, Note_on_c, 0, 79, 108
3, 41856, Note_on_c, 0, 76, 108
3, 41952, Note_off_c, 0, 76, 0
3, 41952, Note_off_c, 0, 79, 0
3, 41952, Note_on_c, 0, 78, 108
3, 41952, Note_on_c, 0, 75, 108
3, 42045, Note_off_c, 0, 75, 0
3, 42045, Note_off_c, 0, 78, 0
3, 42240, Note_on_c, 0, 64, 92
3, 42273, Note_off_c, 0, 64, 0
3, 42276, Note_on_c, 0, 68, 92
3, 42297, Note_off_c, 0, 68, 0
3, 42300, Note_on_c, 0, 71, 92
3, 42333, Note_off_c, 0, 71, 0
3, 42336, Note_on_c, 0, 68, 92
3, 42369, Note_off_c, 0, 68, 0
3, 42372, Note_on_c, 0, 71, 92
3, 42393, Note_off_c, 0, 71, 0
3, 42396, Note_on_c, 0, 76, 92
3, 42429, Note_off_c, 0, 76, 0
3, 42432, Note_on_c, 0, 71, 92
3, 42465, Note_off_c, 0, 71, 0
3, 42468, Note_on_c, 0, 76, 92
3, 42489, Note_off_c, 0, 76, 0
3, 42492, Note_on_c, 0, 80, 92
3, 42525, Note_off_c, 0, 80, 0
3, 42528, Note_on_c, 0, 76, 92
3, 42561, Note_off_c, 0, 76, 0
3, 42564, Note_on_c, 0, 80, 92
3, 42585, Note_off_c, 0, 80, 0
3, 42588, Note_on_c, 0, 83, 92
3, 42621, Note_off_c, 0, 83, 0
3, 42624, Note_on_c, 0, 81, 92
3, 42624, Note_on_c, 0, 78, 92
3, 42784, Note_off_c, 0, 78, 0
3, 42784, Note_off_c, 0, 81, 0
3, 43008, Note_on_c, 0, 59, 92
3, 43041, Note_off_c, 0, 59, 0
3, 43044, Note_on_c, 0, 63, 92
3, 43065, Note_off_c, 0, 63, 0
3, 43068, Note_on_c, 0, 66, 92
3, 43101, Note_off_c, 0, 66, 0
3, 43104, Note_on_c, 0, 63, 92
3, 43137, Note_off_c, 0, 63, 0
3, 43140, Note_on_c, 0, 66, 92
3, 43161, Note_off_c, 0, 66, 0
3, 43164, Note_on_c, 0, 69, 92
3, 43197, Note_off_c, 0, 69, 0
3, 43200, Note_on_c, 0, 69, 92
3, 43233, Note_off_c, 0, 69, 0
3, 43236, Note_on_c, 0, 75, 92
3, 43257, Note_off_c, 0, 75, 0
3, 43260, Note_on_c, 0, 78, 92
3, 43293, Note_off_c, 0, 78, 0
3, 43296, Note_on_c, 0, 75, 92
3, 43329, Note_off_c, 0, 75, 0
3, 43332, Note_on_c, 0, 78, 92
3, 43353, Note_off_c, 0, 78, 0
3, 43356, Note_on_c, 0, 81, 92
3, 43389, Note_off_c, 0, 81, 0
3, 43392, Note_on_c, 0, 80, 92
3, 43392, Note_on_c, 0, 76, 92
3, 43552, Note_off_c, 0, 76, 0
3, 43552, Note_off_c, 0, 80, 0
3, 43872, Note_on_c, 0, 76, 60
3, 43965, Note_off_c, 0, 76, 0
3, 43968, Note_on_c, 0, 80, 60
3, 44061, Note_off_c, 0, 80, 0
3, 44064, Note_on_c, 0, 83, 60
3, 44157, Note_off_c, 0, 83, 0
3, 44160, Note_on_c, 0, 73, 60
3, 44320, Note_off_c, 0, 73, 0
3, 44640, Note_on_c, 0, 76, 75
3, 44733, Note_off_c, 0, 76, 0
3, 44736, Note_on_c, 0, 80, 75
3, 44829, Note_off_c, 0, 80, 0
3, 44832, Note_on_c, 0, 83, 75
3, 44925, Note_off_c, 0, 83, 0
3, 44928, Note_on_c, 0, 76, 75
3, 44949, Note_off_c, 0, 76, 0
3, 44952, Note_on_c, 0, 78, 75
3, 44973, Note_off_c, 0, 78, 0
3, 44976, Note_on_c, 0, 76, 75
3, 44997, Note_off_c, 0, 76, 0
3, 45000, Note_on_c, 0, 78, 75
3, 45021, Note_off_c, 0, 78, 0
3, 45024, Note_on_c, 0, 76, 75
3, 45045, Note_off_c, 0, 76, 0
3, 45048, Note_on_c, 0, 78, 75
3, 45069, Note_off_c, 0, 78, 0
3, 45072, Note_on_c, 0, 76, 75
3, 45093, Note_off_c, 0, 76, 0
3, 45096, Note_on_c, 0, 78, 75
3, 45117, Note_off_c, 0, 78, 0
3, 45408, Note_on_c, 0, 76, 75
3, 45501, Note_off_c, 0, 76, 0
3, 45504, Note_on_c, 0, 80, 75
3, 45597, Note_off_c, 0, 80, 0
3, 45600, Note_on_c, 0, 83, 75
3, 45693, Note_off_c, 0, 83, 0
3, 45696, Note_on_c, 0, 83, 75
3, 45789, Note_off_c, 0, 83, 0
3, 45792, Note_on_c, 0, 84, 75
3, 45885, Note_off_c, 0, 84, 0
3, 45888, Note_on_c, 0, 85, 75
3, 45981, Note_off_c, 0, 85, 0
3, 45984, Note_on_c, 0, 81, 75
3, 46077, Note_off_c, 0, 81, 0
3, 46080, Note_on_c, 0, 81, 75
3, 46125, Note_off_c, 0, 81, 0
3, 46128, Note_on_c, 0, 80, 75
3, 46173, Note_off_c, 0, 80, 0
3, 46176, Note_on_c, 0, 78, 75
3, 46221, Note_off_c, 0, 78, 0
3, 46224, Note_on_c, 0, 76, 75
3, 46269, Note_off_c, 0, 76, 0
3, 46272, Note_on_c, 0, 80, 75
3, 46317, Note_off_c, 0, 80, 0
3, 46320, Note_on_c, 0, 78, 75
3, 46365, Note_off_c, 0, 78, 0
3, 46368, Note_on_c, 0, 76, 75
3, 46413, Note_off_c, 0, 76, 0
3, 46416, Note_on_c, 0, 75, 75
3, 46461, Note_off_c, 0, 75, 0
3, 46464, Note_on_c, 0, 76, 75
3, 46557, Note_off_c, 0, 76, 0
3, 46560, Note_on_c, 0, 76, 75
3, 46560, Note_on_c, 0, 80, 75
3, 46593, Note_off_c, 0, 80, 0
3, 46593, Note_off_c, 0, 76, 0
3, 46596, Note_on_c, 0, 78, 75
3, 46596, Note_on_c, 0, 81, 75
3, 46617, Note_off_c, 0, 81, 0
3, 46617, Note_off_c, 0, 78, 0
3, 46620, Note_on_c, 0, 80, 75
3, 46620, Note_on_c, 0, 83, 75
3, 46653, Note_off_c, 0, 83, 0
3, 46653, Note_off_c, 0, 80, 0
3, 46656, Note_on_c, 0, 81, 60
3, 46656, Note_on_c, 0, 78, 60
3, 46749, Note_off_c, 0, 78, 0
3, 46749, Note_off_c, 0, 81, 0
3, 46752, Note_on_c, 0, 75, 60
3, 46752, Note_on_c, 0, 69, 60
3, 46845, Note_off_c, 0, 69, 0
3, 46845, Note_off_c, 0, 75, 0
3, 46848, Note_on_c, 0, 76, 60
3, 46848, Note_on_c, 0, 68, 60
3, 46941, Note_off_c, 0, 68, 0
3, 46941, Note_off_c, 0, 76, 0
3, 46944, Note_on_c, 0, 64, 45
3, 46944, Note_on_c, 0, 68, 45
3, 46977, Note_off_c, 0, 68, 0
3, 46977, Note_off_c, 0, 64, 0
3, 46980, Note_on_c, 0, 66, 45
3, 46980, Note_on_c, 0, 69, 45
3, 47001, Note_off_c, 0, 69, 0
3, 47001, Note_off_c, 0, 66, 0
3, 47004, Note_on_c, 0, 68, 45
3, 47004, Note_on_c, 0, 71, 45
3, 47037, Note_off_c, 0, 71, 0
3, 47037, Note_off_c, 0, 68, 0
3, 47040, Note_on_c, 0, 69, 45
3, 47040, Note_on_c, 0, 66, 45
3, 47133, Note_off_c, 0, 66, 0
3, 47133, Note_off_c, 0, 69, 0
3, 47136, Note_on_c, 0, 63, 45
3, 47136, Note_on_c, 0, 57, 45
3, 47229, Note_off_c, 0, 57, 0
3, 47229, Note_off_c, 0, 63, 0
3, 47232, Note_on_c, 0, 64, 45
3, 47232, Note_on_c, 0, 56, 45
3, 47392, Note_off_c, 0, 56, 0
3, 47392, Note_off_c, 0, 64, 0
3, 47616, Note_on_c, 0, 64, 75
3, 47661, Note_off_c, 0, 64, 0
3, 47664, Note_on_c, 0, 66, 75
3, 47709, Note_off_c, 0, 66, 0
3, 47712, Note_on_c, 0, 68, 75
3, 47757, Note_off_c, 0, 68, 0
3, 47760, Note_on_c, 0, 69, 75
3, 47805, Note_off_c, 0, 69, 0
3, 47808, Note_on_c, 0, 71, 75
3, 47853, Note_off_c, 0, 71, 0
3, 47856, Note_on_c, 0, 73, 75
3, 47901, Note_off_c, 0, 73, 0
3, 47904, Note_on_c, 0, 75, 75
3, 47949, Note_off_c, 0, 75, 0
3, 47952, Note_on_c, 0, 76, 75
3, 47997, Note_off_c, 0, 76, 0
3, 48000, Note_on_c, 0, 73, 75
3, 48021, Note_off_c, 0, 73, 0
3, 48024, Note_on_c, 0, 75, 75
3, 48045, Note_off_c, 0, 75, 0
3, 48048, Note_on_c, 0, 73, 75
3, 48069, Note_off_c, 0, 73, 0
3, 48072, Note_on_c, 0, 75, 75
3, 48093, Note_off_c, 0, 75, 0
3, 48096, Note_on_c, 0, 71, 75
3, 48189, Note_off_c, 0, 71, 0
3, 48288, Note_on_c, 0, 76, 75
3, 48309, Note_off_c, 0, 76, 0
3, 48312, Note_on_c, 0, 78, 75
3, 48333, Note_off_c, 0, 78, 0
3, 48336, Note_on_c, 0, 76, 75
3, 48357, Note_off_c, 0, 76, 0
3, 48360, Note_on_c, 0, 78, 75
3, 48381, Note_off_c, 0, 78, 0
3, 48384, Note_on_c, 0, 75, 75
3, 48417, Note_off_c, 0, 75, 0
3, 48420, Note_on_c, 0, 76, 75
3, 48441, Note_off_c, 0, 76, 0
3, 48444, Note_on_c, 0, 78, 75
3, 48477, Note_off_c, 0, 78, 0
3, 48480, Note_on_c, 0, 69, 75
3, 48573, Note_off_c, 0, 69, 0
3, 48576, Note_on_c, 0, 68, 75
3, 48669, Note_off_c, 0, 68, 0
3, 48672, Note_on_c, 0, 66, 75
3, 48765, Note_off_c, 0, 66, 0
3, 48768, Note_on_c, 0, 68, 60
3, 48801, Note_off_c, 0, 68, 0
3, 48804, Note_on_c, 0, 69, 60
3, 48825, Note_off_c, 0, 69, 0
3, 48828, Note_on_c, 0, 71, 60
3, 48861, Note_off_c, 0, 71, 0
3, 48864, Note_on_c, 0, 64, 60
3, 48957, Note_off_c, 0, 64, 0
3, 49056, Note_on_c, 0, 76, 45
3, 49077, Note_off_c, 0, 76, 0
3, 49080, Note_on_c, 0, 75, 45
3, 49101, Note_off_c, 0, 75, 0
3, 49104, Note_on_c, 0, 76, 45
3, 49125, Note_off_c, 0, 76, 0
3, 49128, Note_on_c, 0, 75, 45
3, 49149, Note_off_c, 0, 75, 0
3, 49152, Note_on_c, 0, 75, 45
3, 49185, Note_off_c, 0, 75, 0
3, 49188, Note_on_c, 0, 76, 45
3, 49209, Note_off_c, 0, 76, 0
3, 49212, Note_on_c, 0, 78, 45
3, 49245, Note_off_c, 0, 78, 0
3, 49248, Note_on_c, 0, 69, 45
3, 49341, Note_off_c, 0, 69, 0
3, 49344, Note_on_c, 0, 68, 45
3, 49365, Note_off_c, 0, 68, 0
3, 49368, Note_on_c, 0, 69, 45
3, 49389, Note_off_c, 0, 69, 0
3, 49392, Note_on_c, 0, 68, 45
3, 49413, Note_off_c, 0, 68, 0
3, 49416, Note_on_c, 0, 69, 45
3, 49437, Note_off_c, 0, 69, 0
3, 49440, Note_on_c, 0, 66, 45
3, 49533, Note_off_c, 0, 66, 0
3, 49536, Note_on_c, 0, 68, 45
3, 49569, Note_off_c, 0, 68, 0
3, 49572, Note_on_c, 0, 69, 45
3, 49593, Note_off_c, 0, 69, 0
3, 49596, Note_on_c, 0, 71, 45
3, 49629, Note_off_c, 0, 71, 0
3, 49632, Note_on_c, 0, 64, 45
3, 49725, Note_off_c, 0, 64, 0
3, 49920, Note_on_c, 0, 70, 92
3, 49920, Note_on_c, 0, 79, 92
3, 50080, Note_off_c, 0, 79, 0
3, 50080, Note_off_c, 0, 70, 0
3, 50112, Note_on_c, 0, 79, 92
3, 50157, Note_off_c, 0, 79, 0
3, 50160, Note_on_c, 0, 78, 92
3, 50205, Note_off_c, 0, 78, 0
3, 50208, Note_on_c, 0, 78, 92
3, 50253, Note_off_c, 0, 78, 0
3, 50256, Note_on_c, 0, 76, 92
3, 50301, Note_off_c, 0, 76, 0
3, 50304, Note_on_c, 0, 76, 92
3, 50349, Note_off_c, 0, 76, 0
3, 50352, Note_on_c, 0, 74, 92
3, 50397, Note_off_c, 0, 74, 0
3, 50400, Note_on_c, 0, 74, 92
3, 50445, Note_off_c, 0, 74, 0
3, 50448, Note_on_c, 0, 73, 92
3, 50493, Note_off_c, 0, 73, 0
3, 50496, Note_on_c, 0, 74, 92
3, 50656, Note_off_c, 0, 74, 0
3, 50688, Note_on_c, 0, 78, 75
3, 50848, Note_off_c, 0, 78, 0
3, 50880, Note_on_c, 0, 78, 75
3, 50925, Note_off_c, 0, 78, 0
3, 50928, Note_on_c, 0, 76, 75
3, 50973, Note_off_c, 0, 76, 0
3, 50976, Note_on_c, 0, 76, 75
3, 51021, Note_off_c, 0, 76, 0
3, 51024, Note_on_c, 0, 74, 75
3, 51069, Note_off_c, 0, 74, 0
3, 51072, Note_on_c, 0, 74, 75
3, 51117, Note_off_c, 0, 74, 0
3, 51120, Note_on_c, 0, 73, 75
3, 51165, Note_off_c, 0, 73, 0
3, 51168, Note_on_c, 0, 73, 75
3, 51213, Note_off_c, 0, 73, 0
3, 51216, Note_on_c, 0, 71, 75
3, 51261, Note_off_c, 0, 71, 0
3, 51264, Note_on_c, 0, 73, 75
3, 51424, Note_off_c, 0, 73, 0
3, 51456, Note_on_c, 0, 80, 92
3, 51489, Note_off_c, 0, 80, 0
3, 51492, Note_on_c, 0, 83, 92
3, 51513, Note_off_c, 0, 83, 0
3, 51516, Note_on_c, 0, 80, 92
3, 51549, Note_off_c, 0, 80, 0
3, 51552, Note_on_c, 0, 74, 92
3, 51585, Note_off_c, 0, 74, 0
3, 51588, Note_on_c, 0, 80, 92
3, 51609, Note_off_c, 0, 80, 0
3, 51612, Note_on_c, 0, 74, 92
3, 51645, Note_off_c, 0, 74, 0
3, 51648, Note_on_c, 0, 71, 92
3, 51681, Note_off_c, 0, 71, 0
3, 51684, Note_on_c, 0, 74, 92
3, 51705, Note_off_c, 0, 74, 0
3, 51708, Note_on_c, 0, 71, 92
3, 51741, Note_off_c, 0, 71, 0
3, 51744, Note_on_c, 0, 68, 92
3, 51777, Note_off_c, 0, 68, 0
3, 51780, Note_on_c, 0, 71, 92
3, 51801, Note_off_c, 0, 71, 0
3, 51804, Note_on_c, 0, 68, 92
3, 51837, Note_off_c, 0, 68, 0
3, 51888, Note_on_c, 0, 64, 75
3, 51933, Note_off_c, 0, 64, 0
3, 51936, Note_on_c, 0, 74, 75
3, 51981, Note_off_c, 0, 74, 0
3, 51984, Note_on_c, 0, 64, 75
3, 52029, Note_off_c, 0, 64, 0
3, 52032, Note_on_c, 0, 73, 75
3, 52077, Note_off_c, 0, 73, 0
3, 52080, Note_on_c, 0, 64, 75
3, 52125, Note_off_c, 0, 64, 0
3, 52128, Note_on_c, 0, 71, 75
3, 52173, Note_off_c, 0, 71, 0
3, 52176, Note_on_c, 0, 64, 75
3, 52221, Note_off_c, 0, 64, 0
3, 52224, Note_on_c, 0, 81, 92
3, 52257, Note_off_c, 0, 81, 0
3, 52260, Note_on_c, 0, 85, 92
3, 52281, Note_off_c, 0, 85, 0
3, 52284, Note_on_c, 0, 81, 92
3, 52317, Note_off_c, 0, 81, 0
3, 52320, Note_on_c, 0, 76, 92
3, 52353, Note_off_c, 0, 76, 0
3, 52356, Note_on_c, 0, 81, 92
3, 52377, Note_off_c, 0, 81, 0
3, 52380, Note_on_c, 0, 76, 92
3, 52413, Note_off_c, 0, 76, 0
3, 52416, Note_on_c, 0, 73, 92
3, 52449, Note_off_c, 0, 73, 0
3, 52452, Note_on_c, 0, 76, 92
3, 52473, Note_off_c, 0, 76, 0
3, 52476, Note_on_c, 0, 73, 92
3, 52509, Note_off_c, 0, 73, 0
3, 52512, Note_on_c, 0, 69, 92
3, 52545, Note_off_c, 0, 69, 0
3, 52548, Note_on_c, 0, 73, 92
3, 52569, Note_off_c, 0, 73, 0
3, 52572, Note_on_c, 0, 69, 92
3, 52605, Note_off_c, 0, 69, 0
3, 52656, Note_on_c, 0, 64, 75
3, 52701, Note_off_c, 0, 64, 0
3, 52704, Note_on_c, 0, 76, 75
3, 52749, Note_off_c, 0, 76, 0
3, 52752, Note_on_c, 0, 64, 75
3, 52797, Note_off_c, 0, 64, 0
3, 52800, Note_on_c, 0, 74, 75
3, 52845, Note_off_c, 0, 74, 0
3, 52848, Note_on_c, 0, 64, 75
3, 52893, Note_off_c, 0, 64, 0
3, 52896, Note_on_c, 0, 73, 75
3, 52941, Note_off_c, 0, 73, 0
3, 52944, Note_on_c, 0, 64, 75
3, 52989, Note_off_c, 0, 64, 0
3, 52992, Note_on_c, 0, 81, 92
3, 53013, Note_off_c, 0, 81, 0
3, 53016, Note_on_c, 0, 80, 92
3, 53037, Note_off_c, 0, 80, 0
3, 53040, Note_on_c, 0, 78, 92
3, 53061, Note_off_c, 0, 78, 0
3, 53064, Note_on_c, 0, 76, 92
3, 53085, Note_off_c, 0, 76, 0
3, 53088, Note_on_c, 0, 75, 92
3, 53313, Note_off_c, 0, 75, 0
3, 53376, Note_on_c, 0, 83, 92
3, 53397, Note_off_c, 0, 83, 0
3, 53400, Note_on_c, 0, 81, 92
3, 53421, Note_off_c, 0, 81, 0
3, 53424, Note_on_c, 0, 80, 92
3, 53445, Note_off_c, 0, 80, 0
3, 53448, Note_on_c, 0, 78, 92
3, 53469, Note_off_c, 0, 78, 0
3, 53472, Note_on_c, 0, 76, 92
3, 53697, Note_off_c, 0, 76, 0
3, 53808, Note_on_c, 0, 85, 45
3, 53853, Note_off_c, 0, 85, 0
3, 53856, Note_on_c, 0, 85, 45
3, 53877, Note_off_c, 0, 85, 0
3, 53880, Note_on_c, 0, 86, 45
3, 53901, Note_off_c, 0, 86, 0
3, 53904, Note_on_c, 0, 83, 45
3, 53925, Note_off_c, 0, 83, 0
3, 53928, Note_on_c, 0, 85, 45
3, 53949, Note_off_c, 0, 85, 0
3, 53952, Note_on_c, 0, 86, 45
3, 54021, Note_off_c, 0, 86, 0
3, 54192, Note_on_c, 0, 83, 45
3, 54237, Note_off_c, 0, 83, 0
3, 54240, Note_on_c, 0, 83, 45
3, 54261, Note_off_c, 0, 83, 0
3, 54264, Note_on_c, 0, 85, 45
3, 54285, Note_off_c, 0, 85, 0
3, 54288, Note_on_c, 0, 81, 45
3, 54309, Note_off_c, 0, 81, 0
3, 54312, Note_on_c, 0, 83, 45
3, 54333, Note_off_c, 0, 83, 0
3, 54336, Note_on_c, 0, 85, 45
3, 54405, Note_off_c, 0, 85, 0
3, 54576, Note_on_c, 0, 85, 75
3, 54621, Note_off_c, 0, 85, 0
3, 54624, Note_on_c, 0, 85, 75
3, 54645, Note_off_c, 0, 85, 0
3, 54648, Note_on_c, 0, 86, 75
3, 54669, Note_off_c, 0, 86, 0
3, 54672, Note_on_c, 0, 83, 75
3, 54693, Note_off_c, 0, 83, 0
3, 54696, Note_on_c, 0, 85, 75
3, 54717, Note_off_c, 0, 85, 0
3, 54720, Note_on_c, 0, 86, 75
3, 54789, Note_off_c, 0, 86, 0
3, 54960, Note_on_c, 0, 83, 75
3, 55005, Note_off_c, 0, 83, 0
3, 55008, Note_on_c, 0, 83, 75
3, 55029, Note_off_c, 0, 83, 0
3, 55032, Note_on_c, 0, 85, 75
3, 55053, Note_off_c, 0, 85, 0
3, 55056, Note_on_c, 0, 81, 75
3, 55077, Note_off_c, 0, 81, 0
3, 55080, Note_on_c, 0, 83, 75
3, 55101, Note_off_c, 0, 83, 0
3, 55104, Note_on_c, 0, 85, 75
3, 55149, Note_off_c, 0, 85, 0
3, 55152, Note_on_c, 0, 81, 75
3, 55197, Note_off_c, 0, 81, 0
3, 55200, Note_on_c, 0, 81, 75
3, 55221, Note_off_c, 0, 81, 0
3, 55224, Note_on_c, 0, 83, 75
3, 55245, Note_off_c, 0, 83, 0
3, 55248, Note_on_c, 0, 80, 75
3, 55269, Note_off_c, 0, 80, 0
3, 55272, Note_on_c, 0, 81, 75
3, 55293, Note_off_c, 0, 81, 0
3, 55296, Note_on_c, 0, 83, 75
3, 55341, Note_off_c, 0, 83, 0
3, 55344, Note_on_c, 0, 80, 75
3, 55389, Note_off_c, 0, 80, 0
3, 55392, Note_on_c, 0, 80, 75
3, 55413, Note_off_c, 0, 80, 0
3, 55416, Note_on_c, 0, 81, 75
3, 55437, Note_off_c, 0, 81, 0
3, 55440, Note_on_c, 0, 78, 75
3, 55461, Note_off_c, 0, 78, 0
3, 55464, Note_on_c, 0, 80, 75
3, 55485, Note_off_c, 0, 80, 0
3, 55488, Note_on_c, 0, 81, 75
3, 55533, Note_off_c, 0, 81, 0
3, 55536, Note_on_c, 0, 78, 75
3, 55581, Note_off_c, 0, 78, 0
3, 55584, Note_on_c, 0, 78, 75
3, 55605, Note_off_c, 0, 78, 0
3, 55608, Note_on_c, 0, 80, 75
3, 55629, Note_off_c, 0, 80, 0
3, 55632, Note_on_c, 0, 77, 75
3, 55653, Note_off_c, 0, 77, 0
3, 55656, Note_on_c, 0, 78, 75
3, 55677, Note_off_c, 0, 78, 0
3, 55680, Note_on_c, 0, 77, 75
3, 55713, Note_off_c, 0, 77, 0
3, 55716, Note_on_c, 0, 78, 75
3, 55737, Note_off_c, 0, 78, 0
3, 55740, Note_on_c, 0, 80, 75
3, 55773, Note_off_c, 0, 80, 0
3, 55776, Note_on_c, 0, 73, 75
3, 55929, Note_off_c, 0, 73, 0
3, 56064, Note_on_c, 0, 80, 92
3, 56097, Note_off_c, 0, 80, 0
3, 56100, Note_on_c, 0, 85, 92
3, 56121, Note_off_c, 0, 85, 0
3, 56124, Note_on_c, 0, 80, 92
3, 56157, Note_off_c, 0, 80, 0
3, 56160, Note_on_c, 0, 77, 92
3, 56193, Note_off_c, 0, 77, 0
3, 56196, Note_on_c, 0, 80, 92
3, 56217, Note_off_c, 0, 80, 0
3, 56220, Note_on_c, 0, 77, 92
3, 56253, Note_off_c, 0, 77, 0
3, 56256, Note_on_c, 0, 73, 92
3, 56289, Note_off_c, 0, 73, 0
3, 56292, Note_on_c, 0, 77, 92
3, 56313, Note_off_c, 0, 77, 0
3, 56316, Note_on_c, 0, 73, 92
3, 56349, Note_off_c, 0, 73, 0
3, 56352, Note_on_c, 0, 68, 92
3, 56385, Note_off_c, 0, 68, 0
3, 56388, Note_on_c, 0, 73, 92
3, 56409, Note_off_c, 0, 73, 0
3, 56412, Note_on_c, 0, 68, 92
3, 56445, Note_off_c, 0, 68, 0
3, 56496, Note_on_c, 0, 73, 75
3, 56541, Note_off_c, 0, 73, 0
3, 56544, Note_on_c, 0, 83, 75
3, 56589, Note_off_c, 0, 83, 0
3, 56592, Note_on_c, 0, 73, 75
3, 56637, Note_off_c, 0, 73, 0
3, 56640, Note_on_c, 0, 81, 75
3, 56685, Note_off_c, 0, 81, 0
3, 56688, Note_on_c, 0, 73, 75
3, 56733, Note_off_c, 0, 73, 0
3, 56736, Note_on_c, 0, 80, 75
3, 56781, Note_off_c, 0, 80, 0
3, 56784, Note_on_c, 0, 73, 75
3, 56829, Note_off_c, 0, 73, 0
3, 56832, Note_on_c, 0, 81, 75
3, 56865, Note_off_c, 0, 81, 0
3, 56868, Note_on_c, 0, 85, 75
3, 56889, Note_off_c, 0, 85, 0
3, 56892, Note_on_c, 0, 81, 75
3, 56925, Note_off_c, 0, 81, 0
3, 56928, Note_on_c, 0, 78, 75
3, 56961, Note_off_c, 0, 78, 0
3, 56964, Note_on_c, 0, 81, 75
3, 56985, Note_off_c, 0, 81, 0
3, 56988, Note_on_c, 0, 78, 75
3, 57021, Note_off_c, 0, 78, 0
3, 57024, Note_on_c, 0, 73, 75
3, 57057, Note_off_c, 0, 73, 0
3, 57060, Note_on_c, 0, 78, 75
3, 57081, Note_off_c, 0, 78, 0
3, 57084, Note_on_c, 0, 73, 75
3, 57117, Note_off_c, 0, 73, 0
3, 57120, Note_on_c, 0, 69, 75
3, 57153, Note_off_c, 0, 69, 0
3, 57156, Note_on_c, 0, 73, 75
3, 57177, Note_off_c, 0, 73, 0
3, 57180, Note_on_c, 0, 69, 75
3, 57213, Note_off_c, 0, 69, 0
3, 57264, Note_on_c, 0, 73, 75
3, 57309, Note_off_c, 0, 73, 0
3, 57312, Note_on_c, 0, 85, 75
3, 57357, Note_off_c, 0, 85, 0
3, 57360, Note_on_c, 0, 73, 75
3, 57405, Note_off_c, 0, 73, 0
3, 57408, Note_on_c, 0, 83, 75
3, 57453, Note_off_c, 0, 83, 0
3, 57456, Note_on_c, 0, 73, 75
3, 57501, Note_off_c, 0, 73, 0
3, 57504, Note_on_c, 0, 81, 75
3, 57549, Note_off_c, 0, 81, 0
3, 57552, Note_on_c, 0, 73, 75
3, 57597, Note_off_c, 0, 73, 0
3, 57600, Note_on_c, 0, 73, 75
3, 57633, Note_off_c, 0, 73, 0
3, 57636, Note_on_c, 0, 78, 75
3, 57657, Note_off_c, 0, 78, 0
3, 57660, Note_on_c, 0, 73, 75
3, 57693, Note_off_c, 0, 73, 0
3, 57696, Note_on_c, 0, 70, 75
3, 57729, Note_off_c, 0, 70, 0
3, 57732, Note_on_c, 0, 73, 75
3, 57753, Note_off_c, 0, 73, 0
3, 57756, Note_on_c, 0, 70, 75
3, 57789, Note_off_c, 0, 70, 0
3, 57792, Note_on_c, 0, 66, 75
3, 57825, Note_off_c, 0, 66, 0
3, 57828, Note_on_c, 0, 70, 75
3, 57849, Note_off_c, 0, 70, 0
3, 57852, Note_on_c, 0, 66, 75
3, 57885, Note_off_c, 0, 66, 0
3, 57888, Note_on_c, 0, 61, 75
3, 57921, Note_off_c, 0, 61, 0
3, 57924, Note_on_c, 0, 66, 75
3, 57945, Note_off_c, 0, 66, 0
3, 57948, Note_on_c, 0, 61, 75
3, 57981, Note_off_c, 0, 61, 0
3, 58032, Note_on_c, 0, 66, 75
3, 58077, Note_off_c, 0, 66, 0
3, 58080, Note_on_c, 0, 76, 75
3, 58125, Note_off_c, 0, 76, 0
3, 58128, Note_on_c, 0, 66, 75
3, 58173, Note_off_c, 0, 66, 0
3, 58176, Note_on_c, 0, 74, 75
3, 58221, Note_off_c, 0, 74, 0
3, 58224, Note_on_c, 0, 66, 75
3, 58269, Note_off_c, 0, 66, 0
3, 58272, Note_on_c, 0, 73, 75
3, 58317, Note_off_c, 0, 73, 0
3, 58320, Note_on_c, 0, 66, 75
3, 58365, Note_off_c, 0, 66, 0
3, 58368, Note_on_c, 0, 74, 75
3, 58401, Note_off_c, 0, 74, 0
3, 58404, Note_on_c, 0, 78, 75
3, 58425, Note_off_c, 0, 78, 0
3, 58428, Note_on_c, 0, 74, 75
3, 58461, Note_off_c, 0, 74, 0
3, 58464, Note_on_c, 0, 71, 75
3, 58497, Note_off_c, 0, 71, 0
3, 58500, Note_on_c, 0, 74, 75
3, 58521, Note_off_c, 0, 74, 0
3, 58524, Note_on_c, 0, 71, 75
3, 58557, Note_off_c, 0, 71, 0
3, 58560, Note_on_c, 0, 66, 75
3, 58593, Note_off_c, 0, 66, 0
3, 58596, Note_on_c, 0, 71, 75
3, 58617, Note_off_c, 0, 71, 0
3, 58620, Note_on_c, 0, 66, 75
3, 58653, Note_off_c, 0, 66, 0
3, 58656, Note_on_c, 0, 62, 75
3, 58689, Note_off_c, 0, 62, 0
3, 58692, Note_on_c, 0, 66, 75
3, 58713, Note_off_c, 0, 66, 0
3, 58716, Note_on_c, 0, 62, 75
3, 58749, Note_off_c, 0, 62, 0
3, 58800, Note_on_c, 0, 66, 75
3, 58845, Note_off_c, 0, 66, 0
3, 58848, Note_on_c, 0, 78, 75
3, 58893, Note_off_c, 0, 78, 0
3, 58896, Note_on_c, 0, 66, 75
3, 58941, Note_off_c, 0, 66, 0
3, 58944, Note_on_c, 0, 76, 75
3, 58989, Note_off_c, 0, 76, 0
3, 58992, Note_on_c, 0, 66, 75
3, 59037, Note_off_c, 0, 66, 0
3, 59040, Note_on_c, 0, 74, 75
3, 59085, Note_off_c, 0, 74, 0
3, 59088, Note_on_c, 0, 66, 75
3, 59133, Note_off_c, 0, 66, 0
3, 59136, Note_on_c, 0, 78, 92
3, 59169, Note_off_c, 0, 78, 0
3, 59172, Note_on_c, 0, 83, 92
3, 59193, Note_off_c, 0, 83, 0
3, 59196, Note_on_c, 0, 78, 92
3, 59229, Note_off_c, 0, 78, 0
3, 59232, Note_on_c, 0, 75, 92
3, 59265, Note_off_c, 0, 75, 0
3, 59268, Note_on_c, 0, 78, 92
3, 59289, Note_off_c, 0, 78, 0
3, 59292, Note_on_c, 0, 75, 92
3, 59325, Note_off_c, 0, 75, 0
3, 59328, Note_on_c, 0, 71, 92
3, 59361, Note_off_c, 0, 71, 0
3, 59364, Note_on_c, 0, 75, 92
3, 59385, Note_off_c, 0, 75, 0
3, 59388, Note_on_c, 0, 71, 92
3, 59421, Note_off_c, 0, 71, 0
3, 59424, Note_on_c, 0, 66, 92
3, 59457, Note_off_c, 0, 66, 0
3, 59460, Note_on_c, 0, 71, 92
3, 59481, Note_off_c, 0, 71, 0
3, 59484, Note_on_c, 0, 66, 92
3, 59517, Note_off_c, 0, 66, 0
3, 59568, Note_on_c, 0, 71, 75
3, 59613, Note_off_c, 0, 71, 0
3, 59616, Note_on_c, 0, 81, 75
3, 59661, Note_off_c, 0, 81, 0
3, 59664, Note_on_c, 0, 71, 75
3, 59709, Note_off_c, 0, 71, 0
3, 59712, Note_on_c, 0, 79, 75
3, 59757, Note_off_c, 0, 79, 0
3, 59760, Note_on_c, 0, 71, 75
3, 59805, Note_off_c, 0, 71, 0
3, 59808, Note_on_c, 0, 78, 75
3, 59853, Note_off_c, 0, 78, 0
3, 59856, Note_on_c, 0, 71, 75
3, 59901, Note_off_c, 0, 71, 0
3, 59904, Note_on_c, 0, 80, 75
3, 59937, Note_off_c, 0, 80, 0
3, 59940, Note_on_c, 0, 83, 75
3, 59961, Note_off_c, 0, 83, 0
3, 59964, Note_on_c, 0, 80, 75
3, 59997, Note_off_c, 0, 80, 0
3, 60000, Note_on_c, 0, 76, 75
3, 60033, Note_off_c, 0, 76, 0
3, 60036, Note_on_c, 0, 80, 75
3, 60057, Note_off_c, 0, 80, 0
3, 60060, Note_on_c, 0, 76, 75
3, 60093, Note_off_c, 0, 76, 0
3, 60096, Note_on_c, 0, 71, 75
3, 60129, Note_off_c, 0, 71, 0
3, 60132, Note_on_c, 0, 76, 75
3, 60153, Note_off_c, 0, 76, 0
3, 60156, Note_on_c, 0, 71, 75
3, 60189, Note_off_c, 0, 71, 0
3, 60192, Note_on_c, 0, 68, 75
3, 60225, Note_off_c, 0, 68, 0
3, 60228, Note_on_c, 0, 71, 75
3, 60249, Note_off_c, 0, 71, 0
3, 60252, Note_on_c, 0, 68, 75
3, 60285, Note_off_c, 0, 68, 0
3, 60336, Note_on_c, 0, 71, 75
3, 60381, Note_off_c, 0, 71, 0
3, 60384, Note_on_c, 0, 83, 75
3, 60429, Note_off_c, 0, 83, 0
3, 60432, Note_on_c, 0, 71, 75
3, 60477, Note_off_c, 0, 71, 0
3, 60480, Note_on_c, 0, 81, 75
3, 60525, Note_off_c, 0, 81, 0
3, 60528, Note_on_c, 0, 71, 75
3, 60573, Note_off_c, 0, 71, 0
3, 60576, Note_on_c, 0, 80, 75
3, 60621, Note_off_c, 0, 80, 0
3, 60624, Note_on_c, 0, 71, 75
3, 60669, Note_off_c, 0, 71, 0
3, 60672, Note_on_c, 0, 71, 75
3, 60705, Note_off_c, 0, 71, 0
3, 60708, Note_on_c, 0, 76, 75
3, 60729, Note_off_c, 0, 76, 0
3, 60732, Note_on_c, 0, 71, 75
3, 60765, Note_off_c, 0, 71, 0
3, 60768, Note_on_c, 0, 68, 75
3, 60801, Note_off_c, 0, 68, 0
3, 60804, Note_on_c, 0, 71, 75
3, 60825, Note_off_c, 0, 71, 0
3, 60828, Note_on_c, 0, 68, 75
3, 60861, Note_off_c, 0, 68, 0
3, 60864, Note_on_c, 0, 64, 75
3, 60897, Note_off_c, 0, 64, 0
3, 60900, Note_on_c, 0, 68, 75
3, 60921, Note_off_c, 0, 68, 0
3, 60924, Note_on_c, 0, 64, 75
3, 60957, Note_off_c, 0, 64, 0
3, 60960, Note_on_c, 0, 59, 75
3, 60993, Note_off_c, 0, 59, 0
3, 60996, Note_on_c, 0, 64, 75
3, 61017, Note_off_c, 0, 64, 0
3, 61020, Note_on_c, 0, 59, 75
3, 61053, Note_off_c, 0, 59, 0
3, 61104, Note_on_c, 0, 64, 75
3, 61149, Note_off_c, 0, 64, 0
3, 61152, Note_on_c, 0, 74, 75
3, 61197, Note_off_c, 0, 74, 0
3, 61200, Note_on_c, 0, 64, 75
3, 61245, Note_off_c, 0, 64, 0
3, 61248, Note_on_c, 0, 73, 75
3, 61293, Note_off_c, 0, 73, 0
3, 61296, Note_on_c, 0, 64, 75
3, 61341, Note_off_c, 0, 64, 0
3, 61344, Note_on_c, 0, 71, 75
3, 61389, Note_off_c, 0, 71, 0
3, 61392, Note_on_c, 0, 64, 75
3, 61437, Note_off_c, 0, 64, 0
3, 61440, Note_on_c, 0, 73, 75
3, 61473, Note_off_c, 0, 73, 0
3, 61476, Note_on_c, 0, 76, 75
3, 61497, Note_off_c, 0, 76, 0
3, 61500, Note_on_c, 0, 73, 75
3, 61533, Note_off_c, 0, 73, 0
3, 61536, Note_on_c, 0, 69, 75
3, 61569, Note_off_c, 0, 69, 0
3, 61572, Note_on_c, 0, 73, 75
3, 61593, Note_off_c, 0, 73, 0
3, 61596, Note_on_c, 0, 69, 75
3, 61629, Note_off_c, 0, 69, 0
3, 61632, Note_on_c, 0, 64, 75
3, 61665, Note_off_c, 0, 64, 0
3, 61668, Note_on_c, 0, 69, 75
3, 61689, Note_off_c, 0, 69, 0
3, 61692, Note_on_c, 0, 64, 75
3, 61725, Note_off_c, 0, 64, 0
3, 61728, Note_on_c, 0, 61, 75
3, 61761, Note_off_c, 0, 61, 0
3, 61764, Note_on_c, 0, 64, 75
3, 61785, Note_off_c, 0, 64, 0
3, 61788, Note_on_c, 0, 61, 75
3, 61821, Note_off_c, 0, 61, 0
3, 61872, Note_on_c, 0, 64, 75
3, 61917, Note_off_c, 0, 64, 0
3, 61920, Note_on_c, 0, 76, 75
3, 61965, Note_off_c, 0, 76, 0
3, 61968, Note_on_c, 0, 64, 75
3, 62013, Note_off_c, 0, 64, 0
3, 62016, Note_on_c, 0, 74, 75
3, 62061, Note_off_c, 0, 74, 0
3, 62064, Note_on_c, 0, 64, 75
3, 62109, Note_off_c, 0, 64, 0
3, 62112, Note_on_c, 0, 73, 75
3, 62157, Note_off_c, 0, 73, 0
3, 62160, Note_on_c, 0, 64, 75
3, 62205, Note_off_c, 0, 64, 0
3, 62304, Note_on_c, 0, 78, 75
3, 62325, Note_off_c, 0, 78, 0
3, 62328, Note_on_c, 0, 80, 75
3, 62349, Note_off_c, 0, 80, 0
3, 62352, Note_on_c, 0, 78, 75
3, 62373, Note_off_c, 0, 78, 0
3, 62376, Note_on_c, 0, 80, 75
3, 62397, Note_off_c, 0, 80, 0
3, 62400, Note_on_c, 0, 76, 75
3, 62493, Note_off_c, 0, 76, 0
3, 62496, Note_on_c, 0, 81, 75
3, 62589, Note_off_c, 0, 81, 0
3, 62688, Note_on_c, 0, 86, 75
3, 62781, Note_off_c, 0, 86, 0
3, 62784, Note_on_c, 0, 85, 75
3, 62805, Note_off_c, 0, 85, 0
3, 62808, Note_on_c, 0, 86, 75
3, 62829, Note_off_c, 0, 86, 0
3, 62832, Note_on_c, 0, 85, 75
3, 62853, Note_off_c, 0, 85, 0
3, 62856, Note_on_c, 0, 86, 75
3, 62877, Note_off_c, 0, 86, 0
3, 62880, Note_on_c, 0, 81, 75
3, 62973, Note_off_c, 0, 81, 0
3, 63072, Note_on_c, 0, 78, 45
3, 63093, Note_off_c, 0, 78, 0
3, 63096, Note_on_c, 0, 80, 45
3, 63117, Note_off_c, 0, 80, 0
3, 63120, Note_on_c, 0, 78, 45
3, 63141, Note_off_c, 0, 78, 0
3, 63144, Note_on_c, 0, 80, 45
3, 63165, Note_off_c, 0, 80, 0
3, 63168, Note_on_c, 0, 76, 45
3, 63261, Note_off_c, 0, 76, 0
3, 63264, Note_on_c, 0, 81, 45
3, 63357, Note_off_c, 0, 81, 0
3, 63456, Note_on_c, 0, 86, 46
3, 63549, Note_off_c, 0, 86, 0
3, 63552, Note_on_c, 0, 85, 47
3, 63573, Note_off_c, 0, 85, 0
3, 63576, Note_on_c, 0, 86, 48
3, 63597, Note_off_c, 0, 86, 0
3, 63600, Note_on_c, 0, 85, 49
3, 63621, Note_off_c, 0, 85, 0
3, 63624, Note_on_c, 0, 86, 50
3, 63645, Note_off_c, 0, 86, 0
3, 63648, Note_on_c, 0, 81, 51
3, 63741, Note_off_c, 0, 81, 0
3, 63840, Note_on_c, 0, 76, 53
3, 63933, Note_off_c, 0, 76, 0
3, 63936, Note_on_c, 0, 76, 54
3, 64029, Note_off_c, 0, 76, 0
3, 64032, Note_on_c, 0, 76, 55
3, 64125, Note_off_c, 0, 76, 0
3, 64224, Note_on_c, 0, 76, 57
3, 64224, Note_on_c, 0, 78, 57
3, 64317, Note_off_c, 0, 78, 0
3, 64317, Note_off_c, 0, 76, 0
3, 64320, Note_on_c, 0, 78, 58
3, 64320, Note_on_c, 0, 76, 58
3, 64413, Note_off_c, 0, 76, 0
3, 64413, Note_off_c, 0, 78, 0
3, 64416, Note_on_c, 0, 78, 59
3, 64416, Note_on_c, 0, 76, 59
3, 64509, Note_off_c, 0, 76, 0
3, 64509, Note_off_c, 0, 78, 0
3, 64608, Note_on_c, 0, 74, 61
3, 64608, Note_on_c, 0, 78, 61
3, 64701, Note_off_c, 0, 78, 0
3, 64701, Note_off_c, 0, 74, 0
3, 64704, Note_on_c, 0, 78, 62
3, 64704, Note_on_c, 0, 74, 62
3, 64797, Note_off_c, 0, 74, 0
3, 64797, Note_off_c, 0, 78, 0
3, 64800, Note_on_c, 0, 78, 63
3, 64800, Note_on_c, 0, 74, 63
3, 64893, Note_off_c, 0, 74, 0
3, 64893, Note_off_c, 0, 78, 0
3, 64992, Note_on_c, 0, 74, 65
3, 64992, Note_on_c, 0, 80, 65
3, 65085, Note_off_c, 0, 80, 0
3, 65085, Note_off_c, 0, 74, 0
3, 65088, Note_on_c, 0, 80, 66
3, 65088, Note_on_c, 0, 74, 66
3, 65181, Note_off_c, 0, 74, 0
3, 65181, Note_off_c, 0, 80, 0
3, 65184, Note_on_c, 0, 80, 67
3, 65184, Note_on_c, 0, 74, 67
3, 65277, Note_off_c, 0, 74, 0
3, 65277, Note_off_c, 0, 80, 0
3, 65280, Note_on_c, 0, 81, 127
3, 65280, Note_on_c, 0, 76, 127
3, 65280, Note_on_c, 0, 73, 127
3, 65440, Note_off_c, 0, 73, 0
3, 65440, Note_off_c, 0, 76, 0
3, 65440, Note_off_c, 0, 81, 0
3, 65472, Note_on_c, 0, 86, 127
3, 65472, Note_on_c, 0, 83, 127
3, 65472, Note_on_c, 0, 80, 127
3, 65472, Note_on_c, 0, 76, 127
3, 65632, Note_off_c, 0, 76, 0
3, 65632, Note_off_c, 0, 80, 0
3, 65632, Note_off_c, 0, 83, 0
3, 65632, Note_off_c, 0, 86, 0
3, 65664, Note_on_c, 0, 85, 127
3, 65664, Note_on_c, 0, 81, 127
3, 65664, Note_on_c, 0, 76, 127
3, 65824, Note_off_c, 0, 76, 0
3, 65824, Note_off_c, 0, 81, 0
3, 65824, Note_off_c, 0, 85, 0
3, 65856, Note_on_c, 0, 83, 127
3, 65856, Note_on_c, 0, 80, 127
3, 65856, Note_on_c, 0, 74, 127
3, 66016, Note_off_c, 0, 74, 0
3, 66016, Note_off_c, 0, 80, 0
3, 66016, Note_off_c, 0, 83, 0
3, 66048, Note_on_c, 0, 81, 92
3, 66048, Note_on_c, 0, 76, 92
3, 66048, Note_on_c, 0, 73, 92
3, 66208, Note_off_c, 0, 73, 0
3, 66208, Note_off_c, 0, 76, 0
3, 66208, Note_off_c, 0, 81, 0
3, 66240, Note_on_c, 0, 86, 92
3, 66240, Note_on_c, 0, 83, 92
3, 66240, Note_on_c, 0, 80, 92
3, 66240, Note_on_c, 0, 76, 92
3, 66400, Note_off_c, 0, 76, 0
3, 66400, Note_off_c, 0, 80, 0
3, 66400, Note_off_c, 0, 83, 0
3, 66400, Note_off_c, 0, 86, 0
3, 66432, Note_on_c, 0, 85, 92
3, 66432, Note_on_c, 0, 81, 92
3, 66432, Note_on_c, 0, 76, 92
3, 66592, Note_off_c, 0, 76, 0
3, 66592, Note_off_c, 0, 81, 0
3, 66592, Note_off_c, 0, 85, 0
3, 66624, Note_on_c, 0, 83, 92
3, 66624, Note_on_c, 0, 80, 92
3, 66624, Note_on_c, 0, 74, 92
3, 66784, Note_off_c, 0, 74, 0
3, 66784, Note_off_c, 0, 80, 0
3, 66784, Note_off_c, 0, 83, 0
3, 66816, Note_on_c, 0, 81, 75
3, 66861, Note_off_c, 0, 81, 0
3, 66864, Note_on_c, 0, 85, 75
3, 66909, Note_off_c, 0, 85, 0
3, 66912, Note_on_c, 0, 76, 75
3, 66957, Note_off_c, 0, 76, 0
3, 66960, Note_on_c, 0, 81, 75
3, 67005, Note_off_c, 0, 81, 0
3, 67008, Note_on_c, 0, 73, 75
3, 67053, Note_off_c, 0, 73, 0
3, 67056, Note_on_c, 0, 76, 75
3, 67101, Note_off_c, 0, 76, 0
3, 67104, Note_on_c, 0, 69, 75
3, 67149, Note_off_c, 0, 69, 0
3, 67152, Note_on_c, 0, 73, 75
3, 67197, Note_off_c, 0, 73, 0
3, 67200, Note_on_c, 0, 78, 75
3, 67245, Note_off_c, 0, 78, 0
3, 67248, Note_on_c, 0, 81, 75
3, 67293, Note_off_c, 0, 81, 0
3, 67296, Note_on_c, 0, 74, 75
3, 67341, Note_off_c, 0, 74, 0
3, 67344, Note_on_c, 0, 78, 75
3, 67389, Note_off_c, 0, 78, 0
3, 67392, Note_on_c, 0, 71, 75
3, 67437, Note_off_c, 0, 71, 0
3, 67440, Note_on_c, 0, 74, 75
3, 67485, Note_off_c, 0, 74, 0
3, 67488, Note_on_c, 0, 66, 75
3, 67533, Note_off_c, 0, 66, 0
3, 67536, Note_on_c, 0, 71, 75
3, 67581, Note_off_c, 0, 71, 0
3, 67584, Note_on_c, 0, 69, 75
3, 67744, Note_off_c, 0, 69, 0
3, 67776, Note_on_c, 0, 68, 75
3, 67797, Note_off_c, 0, 68, 0
3, 67800, Note_on_c, 0, 69, 75
3, 67821, Note_off_c, 0, 69, 0
3, 67824, Note_on_c, 0, 68, 75
3, 67845, Note_off_c, 0, 68, 0
3, 67848, Note_on_c, 0, 69, 75
3, 67869, Note_off_c, 0, 69, 0
3, 67872, Note_on_c, 0, 68, 75
3, 67893, Note_off_c, 0, 68, 0
3, 67896, Note_on_c, 0, 69, 75
3, 67917, Note_off_c, 0, 69, 0
3, 67920, Note_on_c, 0, 68, 75
3, 67941, Note_off_c, 0, 68, 0
3, 67944, Note_on_c, 0, 69, 75
3, 67965, Note_off_c, 0, 69, 0
3, 67968, Note_on_c, 0, 69, 75
3, 68128, Note_off_c, 0, 69, 0
3, 68352, Note_on_c, 0, 81, 75
3, 68352, Note_on_c, 0, 76, 75
3, 68352, Note_on_c, 0, 72, 75
3, 68512, Note_off_c, 0, 72, 0
3, 68512, Note_off_c, 0, 76, 0
3, 68512, Note_off_c, 0, 81, 0
3, 68640, Note_on_c, 0, 81, 75
3, 68640, Note_on_c, 0, 72, 75
3, 68733, Note_off_c, 0, 72, 0
3, 68733, Note_off_c, 0, 81, 0
3, 68736, Note_on_c, 0, 81, 75
3, 68736, Note_on_c, 0, 72, 75
3, 68781, Note_off_c, 0, 72, 0
3, 68781, Note_off_c, 0, 81, 0
3, 68784, Note_on_c, 0, 71, 75
3, 68784, Note_on_c, 0, 80, 75
3, 68829, Note_off_c, 0, 80, 0
3, 68829, Note_off_c, 0, 71, 0
3, 68832, Note_on_c, 0, 71, 75
3, 68832, Note_on_c, 0, 80, 75
3, 68925, Note_off_c, 0, 80, 0
3, 68925, Note_off_c, 0, 71, 0
3, 69120, Note_on_c, 0, 74, 92
3, 69120, Note_on_c, 0, 71, 92
3, 69120, Note_on_c, 0, 68, 92
3, 69120, Note_on_c, 0, 64, 92
3, 69280, Note_off_c, 0, 64, 0
3, 69280, Note_off_c, 0, 68, 0
3, 69280, Note_off_c, 0, 71, 0
3, 69280, Note_off_c, 0, 74, 0
3, 69408, Note_on_c, 0, 74, 92
3, 69408, Note_on_c, 0, 71, 92
3, 69501, Note_off_c, 0, 71, 0
3, 69501, Note_off_c, 0, 74, 0
3, 69504, Note_on_c, 0, 74, 92
3, 69504, Note_on_c, 0, 71, 92
3, 69549, Note_off_c, 0, 71, 0
3, 69549, Note_off_c, 0, 74, 0
3, 69552, Note_on_c, 0, 69, 92
3, 69552, Note_on_c, 0, 72, 92
3, 69597, Note_off_c, 0, 72, 0
3, 69597, Note_off_c, 0, 69, 0
3, 69600, Note_on_c, 0, 69, 92
3, 69600, Note_on_c, 0, 72, 92
3, 69693, Note_off_c, 0, 72, 0
3, 69693, Note_off_c, 0, 69, 0
3, 69888, Note_on_c, 0, 77, 108
3, 69888, Note_on_c, 0, 74, 108
3, 70048, Note_off_c, 0, 74, 0
3, 70048, Note_off_c, 0, 77, 0
3, 70176, Note_on_c, 0, 77, 108
3, 70176, Note_on_c, 0, 74, 108
3, 70269, Note_off_c, 0, 74, 0
3, 70269, Note_off_c, 0, 77, 0
3, 70272, Note_on_c, 0, 77, 108
3, 70272, Note_on_c, 0, 74, 108
3, 70317, Note_off_c, 0, 74, 0
3, 70317, Note_off_c, 0, 77, 0
3, 70320, Note_on_c, 0, 72, 108
3, 70320, Note_on_c, 0, 76, 108
3, 70365, Note_off_c, 0, 76, 0
3, 70365, Note_off_c, 0, 72, 0
3, 70368, Note_on_c, 0, 72, 108
3, 70368, Note_on_c, 0, 76, 108
3, 70461, Note_off_c, 0, 76, 0
3, 70461, Note_off_c, 0, 72, 0
3, 70560, Note_on_c, 0, 76, 108
3, 70560, Note_on_c, 0, 72, 108
3, 70653, Note_off_c, 0, 72, 0
3, 70653, Note_off_c, 0, 76, 0
3, 70656, Note_on_c, 0, 76, 108
3, 70656, Note_on_c, 0, 72, 108
3, 70701, Note_off_c, 0, 72, 0
3, 70701, Note_off_c, 0, 76, 0
3, 70704, Note_on_c, 0, 71, 108
3, 70704, Note_on_c, 0, 74, 108
3, 70749, Note_off_c, 0, 74, 0
3, 70749, Note_off_c, 0, 71, 0
3, 70752, Note_on_c, 0, 71, 108
3, 70752, Note_on_c, 0, 74, 108
3, 70845, Note_off_c, 0, 74, 0
3, 70845, Note_off_c, 0, 71, 0
3, 70944, Note_on_c, 0, 74, 108
3, 70944, Note_on_c, 0, 71, 108
3, 71037, Note_off_c, 0, 71, 0
3, 71037, Note_off_c, 0, 74, 0
3, 71040, Note_on_c, 0, 74, 108
3, 71040, Note_on_c, 0, 71, 108
3, 71085, Note_off_c, 0, 71, 0
3, 71085, Note_off_c, 0, 74, 0
3, 71088, Note_on_c, 0, 69, 108
3, 71088, Note_on_c, 0, 72, 108
3, 71133, Note_off_c, 0, 72, 0
3, 71133, Note_off_c, 0, 69, 0
3, 71136, Note_on_c, 0, 69, 108
3, 71136, Note_on_c, 0, 72, 108
3, 71229, Note_off_c, 0, 72, 0
3, 71229, Note_off_c, 0, 69, 0
3, 71328, Note_on_c, 0, 72, 108
3, 71328, Note_on_c, 0, 69, 108
3, 71421, Note_off_c, 0, 69, 0
3, 71421, Note_off_c, 0, 72, 0
3, 71424, Note_on_c, 0, 74, 108
3, 71424, Note_on_c, 0, 71, 108
3, 71469, Note_off_c, 0, 71, 0
3, 71469, Note_off_c, 0, 74, 0
3, 71472, Note_on_c, 0, 69, 108
3, 71472, Note_on_c, 0, 72, 108
3, 71517, Note_off_c, 0, 72, 0
3, 71517, Note_off_c, 0, 69, 0
3, 71520, Note_on_c, 0, 69, 108
3, 71520, Note_on_c, 0, 72, 108
3, 71613, Note_off_c, 0, 72, 0
3, 71613, Note_off_c, 0, 69, 0
3, 71712, Note_on_c, 0, 72, 108
3, 71712, Note_on_c, 0, 69, 108
3, 71805, Note_off_c, 0, 69, 0
3, 71805, Note_off_c, 0, 72, 0
3, 71808, Note_on_c, 0, 74, 108
3, 71808, Note_on_c, 0, 71, 108
3, 71853, Note_off_c, 0, 71, 0
3, 71853, Note_off_c, 0, 74, 0
3, 71856, Note_on_c, 0, 69, 108
3, 71856, Note_on_c, 0, 72, 108
3, 71901, Note_off_c, 0, 72, 0
3, 71901, Note_off_c, 0, 69, 0
3, 71904, Note_on_c, 0, 69, 108
3, 71904, Note_on_c, 0, 72, 108
3, 71997, Note_off_c, 0, 72, 0
3, 71997, Note_off_c, 0, 69, 0
3, 72096, Note_on_c, 0, 72, 108
3, 72096, Note_on_c, 0, 69, 108
3, 72189, Note_off_c, 0, 69, 0
3, 72189, Note_off_c, 0, 72, 0
3, 72192, Note_on_c, 0, 72, 108
3, 72192, Note_on_c, 0, 69, 108
3, 72285, Note_off_c, 0, 69, 0
3, 72285, Note_off_c, 0, 72, 0
3, 72288, Note_on_c, 0, 71, 108
3, 72288, Note_on_c, 0, 68, 108
3, 72381, Note_off_c, 0, 68, 0
3, 72381, Note_off_c, 0, 71, 0
3, 72576, Note_on_c, 0, 57, 92
3, 72609, Note_off_c, 0, 57, 0
3, 72612, Note_on_c, 0, 61, 92
3, 72633, Note_off_c, 0, 61, 0
3, 72636, Note_on_c, 0, 64, 92
3, 72669, Note_off_c, 0, 64, 0
3, 72672, Note_on_c, 0, 61, 92
3, 72705, Note_off_c, 0, 61, 0
3, 72708, Note_on_c, 0, 64, 92
3, 72729, Note_off_c, 0, 64, 0
3, 72732, Note_on_c, 0, 69, 92
3, 72765, Note_off_c, 0, 69, 0
3, 72768, Note_on_c, 0, 69, 92
3, 72801, Note_off_c, 0, 69, 0
3, 72804, Note_on_c, 0, 73, 92
3, 72825, Note_off_c, 0, 73, 0
3, 72828, Note_on_c, 0, 76, 92
3, 72861, Note_off_c, 0, 76, 0
3, 72864, Note_on_c, 0, 73, 92
3, 72897, Note_off_c, 0, 73, 0
3, 72900, Note_on_c, 0, 76, 92
3, 72921, Note_off_c, 0, 76, 0
3, 72924, Note_on_c, 0, 81, 92
3, 72957, Note_off_c, 0, 81, 0
3, 72960, Note_on_c, 0, 74, 92
3, 72960, Note_on_c, 0, 71, 92
3, 73120, Note_off_c, 0, 71, 0
3, 73120, Note_off_c, 0, 74, 0
3, 73344, Note_on_c, 0, 64, 75
3, 73377, Note_off_c, 0, 64, 0
3, 73380, Note_on_c, 0, 68, 75
3, 73401, Note_off_c, 0, 68, 0
3, 73404, Note_on_c, 0, 71, 75
3, 73437, Note_off_c, 0, 71, 0
3, 73440, Note_on_c, 0, 68, 75
3, 73473, Note_off_c, 0, 68, 0
3, 73476, Note_on_c, 0, 71, 75
3, 73497, Note_off_c, 0, 71, 0
3, 73500, Note_on_c, 0, 74, 75
3, 73533, Note_off_c, 0, 74, 0
3, 73536, Note_on_c, 0, 71, 75
3, 73569, Note_off_c, 0, 71, 0
3, 73572, Note_on_c, 0, 74, 75
3, 73593, Note_off_c, 0, 74, 0
3, 73596, Note_on_c, 0, 80, 75
3, 73629, Note_off_c, 0, 80, 0
3, 73632, Note_on_c, 0, 74, 75
3, 73665, Note_off_c, 0, 74, 0
3, 73668, Note_on_c, 0, 80, 75
3, 73689, Note_off_c, 0, 80, 0
3, 73692, Note_on_c, 0, 83, 75
3, 73725, Note_off_c, 0, 83, 0
3, 73728, Note_on_c, 0, 81, 75
3, 73728, Note_on_c, 0, 73, 75
3, 73888, Note_off_c, 0, 73, 0
3, 73888, Note_off_c, 0, 81, 0
3, 74208, Note_on_c, 0, 69, 60
3, 74301, Note_off_c, 0, 69, 0
3, 74304, Note_on_c, 0, 73, 60
3, 74397, Note_off_c, 0, 73, 0
3, 74400, Note_on_c, 0, 76, 60
3, 74493, Note_off_c, 0, 76, 0
3, 74496, Note_on_c, 0, 66, 60
3, 74656, Note_off_c, 0, 66, 0
3, 74976, Note_on_c, 0, 66, 60
3, 75069, Note_off_c, 0, 66, 0
3, 75072, Note_on_c, 0, 73, 60
3, 75165, Note_off_c, 0, 73, 0
3, 75168, Note_on_c, 0, 76, 60
3, 75261, Note_off_c, 0, 76, 0
3, 75264, Note_on_c, 0, 69, 60
3, 75285, Note_off_c, 0, 69, 0
3, 75288, Note_on_c, 0, 71, 60
3, 75309, Note_off_c, 0, 71, 0
3, 75312, Note_on_c, 0, 69, 60
3, 75333, Note_off_c, 0, 69, 0
3, 75336, Note_on_c, 0, 71, 60
3, 75357, Note_off_c, 0, 71, 0
3, 75360, Note_on_c, 0, 69, 60
3, 75381, Note_off_c, 0, 69, 0
3, 75384, Note_on_c, 0, 71, 60
3, 75405, Note_off_c, 0, 71, 0
3, 75408, Note_on_c, 0, 69, 60
3, 75429, Note_off_c, 0, 69, 0
3, 75432, Note_on_c, 0, 71, 60
3, 75453, Note_off_c, 0, 71, 0
3, 75744, Note_on_c, 0, 69, 75
3, 75837, Note_off_c, 0, 69, 0
3, 75840, Note_on_c, 0, 73, 75
3, 75933, Note_off_c, 0, 73, 0
3, 75936, Note_on_c, 0, 76, 75
3, 76029, Note_off_c, 0, 76, 0
3, 76032, Note_on_c, 0, 76, 75
3, 76125, Note_off_c, 0, 76, 0
3, 76128, Note_on_c, 0, 77, 75
3, 76221, Note_off_c, 0, 77, 0
3, 76224, Note_on_c, 0, 78, 75
3, 76317, Note_off_c, 0, 78, 0
3, 76320, Note_on_c, 0, 74, 75
3, 76413, Note_off_c, 0, 74, 0
3, 76416, Note_on_c, 0, 74, 75
3, 76461, Note_off_c, 0, 74, 0
3, 76464, Note_on_c, 0, 73, 75
3, 76509, Note_off_c, 0, 73, 0
3, 76512, Note_on_c, 0, 71, 75
3, 76557, Note_off_c, 0, 71, 0
3, 76560, Note_on_c, 0, 69, 75
3, 76605, Note_off_c, 0, 69, 0
3, 76608, Note_on_c, 0, 73, 75
3, 76653, Note_off_c, 0, 73, 0
3, 76656, Note_on_c, 0, 71, 75
3, 76701, Note_off_c, 0, 71, 0
3, 76704, Note_on_c, 0, 69, 75
3, 76749, Note_off_c, 0, 69, 0
3, 76752, Note_on_c, 0, 68, 75
3, 76797, Note_off_c, 0, 68, 0
3, 76800, Note_on_c, 0, 69, 75
3, 76893, Note_off_c, 0, 69, 0
3, 76896, Note_on_c, 0, 69, 75
3, 76896, Note_on_c, 0, 73, 75
3, 76929, Note_off_c, 0, 73, 0
3, 76929, Note_off_c, 0, 69, 0
3, 76932, Note_on_c, 0, 71, 75
3, 76932, Note_on_c, 0, 74, 75
3, 76953, Note_off_c, 0, 74, 0
3, 76953, Note_off_c, 0, 71, 0
3, 76956, Note_on_c, 0, 73, 75
3, 76956, Note_on_c, 0, 76, 75
3, 76989, Note_off_c, 0, 76, 0
3, 76989, Note_off_c, 0, 73, 0
3, 76992, Note_on_c, 0, 74, 75
3, 76992, Note_on_c, 0, 71, 75
3, 77085, Note_off_c, 0, 71, 0
3, 77085, Note_off_c, 0, 74, 0
3, 77088, Note_on_c, 0, 68, 75
3, 77088, Note_on_c, 0, 62, 75
3, 77181, Note_off_c, 0, 62, 0
3, 77181, Note_off_c, 0, 68, 0
3, 77184, Note_on_c, 0, 69, 75
3, 77277, Note_off_c, 0, 69, 0
3, 77280, Note_on_c, 0, 57, 45
3, 77280, Note_on_c, 0, 61, 45
3, 77313, Note_off_c, 0, 61, 0
3, 77313, Note_off_c, 0, 57, 0
3, 77316, Note_on_c, 0, 59, 45
3, 77316, Note_on_c, 0, 62, 45
3, 77337, Note_off_c, 0, 62, 0
3, 77337, Note_off_c, 0, 59, 0
3, 77340, Note_on_c, 0, 61, 45
3, 77340, Note_on_c, 0, 64, 45
3, 77373, Note_off_c, 0, 64, 0
3, 77373, Note_off_c, 0, 61, 0
3, 77376, Note_on_c, 0, 62, 45
3, 77376, Note_on_c, 0, 59, 45
3, 77469, Note_off_c, 0, 59, 0
3, 77469, Note_off_c, 0, 62, 0
3, 77472, Note_on_c, 0, 59, 45
3, 77472, Note_on_c, 0, 56, 45
3, 77565, Note_off_c, 0, 56, 0
3, 77565, Note_off_c, 0, 59, 0
3, 77568, Note_on_c, 0, 57, 45
3, 77728, Note_off_c, 0, 57, 0
3, 77952, Note_on_c, 0, 64, 75
3, 77997, Note_off_c, 0, 64, 0
3, 78000, Note_on_c, 0, 66, 75
3, 78045, Note_off_c, 0, 66, 0
3, 78048, Note_on_c, 0, 68, 75
3, 78093, Note_off_c, 0, 68, 0
3, 78096, Note_on_c, 0, 69, 75
3, 78141, Note_off_c, 0, 69, 0
3, 78144, Note_on_c, 0, 71, 75
3, 78189, Note_off_c, 0, 71, 0
3, 78192, Note_on_c, 0, 73, 75
3, 78237, Note_off_c, 0, 73, 0
3, 78240, Note_on_c, 0, 75, 75
3, 78285, Note_off_c, 0, 75, 0
3, 78288, Note_on_c, 0, 76, 75
3, 78333, Note_off_c, 0, 76, 0
3, 78336, Note_on_c, 0, 73, 75
3, 78357, Note_off_c, 0, 73, 0
3, 78360, Note_on_c, 0, 75, 75
3, 78381, Note_off_c, 0, 75, 0
3, 78384, Note_on_c, 0, 73, 75
3, 78405, Note_off_c, 0, 73, 0
3, 78408, Note_on_c, 0, 75, 75
3, 78429, Note_off_c, 0, 75, 0
3, 78432, Note_on_c, 0, 71, 75
3, 78525, Note_off_c, 0, 71, 0
3, 78624, Note_on_c, 0, 76, 75
3, 78645, Note_off_c, 0, 76, 0
3, 78648, Note_on_c, 0, 78, 75
3, 78669, Note_off_c, 0, 78, 0
3, 78672, Note_on_c, 0, 76, 75
3, 78693, Note_off_c, 0, 76, 0
3, 78696, Note_on_c, 0, 78, 75
3, 78717, Note_off_c, 0, 78, 0
3, 78720, Note_on_c, 0, 75, 75
3, 78753, Note_off_c, 0, 75, 0
3, 78756, Note_on_c, 0, 76, 75
3, 78777, Note_off_c, 0, 76, 0
3, 78780, Note_on_c, 0, 78, 75
3, 78813, Note_off_c, 0, 78, 0
3, 78816, Note_on_c, 0, 69, 75
3, 78909, Note_off_c, 0, 69, 0
3, 78912, Note_on_c, 0, 68, 75
3, 79005, Note_off_c, 0, 68, 0
3, 79008, Note_on_c, 0, 66, 75
3, 79101, Note_off_c, 0, 66, 0
3, 79104, Note_on_c, 0, 68, 60
3, 79137, Note_off_c, 0, 68, 0
3, 79140, Note_on_c, 0, 69, 60
3, 79161, Note_off_c, 0, 69, 0
3, 79164, Note_on_c, 0, 71, 60
3, 79197, Note_off_c, 0, 71, 0
3, 79200, Note_on_c, 0, 64, 60
3, 79293, Note_off_c, 0, 64, 0
3, 79392, Note_on_c, 0, 76, 45
3, 79413, Note_off_c, 0, 76, 0
3, 79416, Note_on_c, 0, 75, 45
3, 79437, Note_off_c, 0, 75, 0
3, 79440, Note_on_c, 0, 76, 45
3, 79461, Note_off_c, 0, 76, 0
3, 79464, Note_on_c, 0, 75, 45
3, 79485, Note_off_c, 0, 75, 0
3, 79488, Note_on_c, 0, 75, 45
3, 79521, Note_off_c, 0, 75, 0
3, 79524, Note_on_c, 0, 76, 45
3, 79545, Note_off_c, 0, 76, 0
3, 79548, Note_on_c, 0, 78, 45
3, 79581, Note_off_c, 0, 78, 0
3, 79584, Note_on_c, 0, 69, 45
3, 79677, Note_off_c, 0, 69, 0
3, 79680, Note_on_c, 0, 68, 45
3, 79701, Note_off_c, 0, 68, 0
3, 79704, Note_on_c, 0, 69, 45
3, 79725, Note_off_c, 0, 69, 0
3, 79728, Note_on_c, 0, 68, 45
3, 79749, Note_off_c, 0, 68, 0
3, 79752, Note_on_c, 0, 69, 45
3, 79773, Note_off_c, 0, 69, 0
3, 79776, Note_on_c, 0, 66, 45
3, 79869, Note_off_c, 0, 66, 0
3, 79872, Note_on_c, 0, 68, 45
3, 79905, Note_off_c, 0, 68, 0
3, 79908, Note_on_c, 0, 69, 45
3, 79929, Note_off_c, 0, 69, 0
3, 79932, Note_on_c, 0, 71, 45
3, 79965, Note_off_c, 0, 71, 0
3, 79968, Note_on_c, 0, 64, 45
3, 80061, Note_off_c, 0, 64, 0
3, 80256, Note_on_c, 0, 70, 92
3, 80256, Note_on_c, 0, 79, 92
3, 80416, Note_off_c, 0, 79, 0
3, 80416, Note_off_c, 0, 70, 0
3, 80448, Note_on_c, 0, 79, 92
3, 80493, Note_off_c, 0, 79, 0
3, 80496, Note_on_c, 0, 78, 92
3, 80541, Note_off_c, 0, 78, 0
3, 80544, Note_on_c, 0, 78, 92
3, 80589, Note_off_c, 0, 78, 0
3, 80592, Note_on_c, 0, 76, 92
3, 80637, Note_off_c, 0, 76, 0
3, 80640, Note_on_c, 0, 76, 92
3, 80685, Note_off_c, 0, 76, 0
3, 80688, Note_on_c, 0, 74, 92
3, 80733, Note_off_c, 0, 74, 0
3, 80736, Note_on_c, 0, 74, 92
3, 80781, Note_off_c, 0, 74, 0
3, 80784, Note_on_c, 0, 73, 92
3, 80829, Note_off_c, 0, 73, 0
3, 80832, Note_on_c, 0, 74, 92
3, 80992, Note_off_c, 0, 74, 0
3, 81024, Note_on_c, 0, 78, 75
3, 81184, Note_off_c, 0, 78, 0
3, 81216, Note_on_c, 0, 78, 75
3, 81261, Note_off_c, 0, 78, 0
3, 81264, Note_on_c, 0, 76, 75
3, 81309, Note_off_c, 0, 76, 0
3, 81312, Note_on_c, 0, 76, 75
3, 81357, Note_off_c, 0, 76, 0
3, 81360, Note_on_c, 0, 74, 75
3, 81405, Note_off_c, 0, 74, 0
3, 81408, Note_on_c, 0, 74, 75
3, 81453, Note_off_c, 0, 74, 0
3, 81456, Note_on_c, 0, 73, 75
3, 81501, Note_off_c, 0, 73, 0
3, 81504, Note_on_c, 0, 73, 75
3, 81549, Note_off_c, 0, 73, 0
3, 81552, Note_on_c, 0, 71, 75
3, 81597, Note_off_c, 0, 71, 0
3, 81600, Note_on_c, 0, 73, 75
3, 81760, Note_off_c, 0, 73, 0
3, 81792, Note_on_c, 0, 80, 92
3, 81825, Note_off_c, 0, 80, 0
3, 81828, Note_on_c, 0, 83, 92
3, 81849, Note_off_c, 0, 83, 0
3, 81852, Note_on_c, 0, 80, 92
3, 81885, Note_off_c, 0, 80, 0
3, 81888, Note_on_c, 0, 74, 92
3, 81921, Note_off_c, 0, 74, 0
3, 81924, Note_on_c, 0, 80, 92
3, 81945, Note_off_c, 0, 80, 0
3, 81948, Note_on_c, 0, 74, 92
3, 81981, Note_off_c, 0, 74, 0
3, 81984, Note_on_c, 0, 71, 92
3, 82017, Note_off_c, 0, 71, 0
3, 82020, Note_on_c, 0, 74, 92
3, 82041, Note_off_c, 0, 74, 0
3, 82044, Note_on_c, 0, 71, 92
3, 82077, Note_off_c, 0, 71, 0
3, 82080, Note_on_c, 0, 68, 92
3, 82113, Note_off_c, 0, 68, 0
3, 82116, Note_on_c, 0, 71, 92
3, 82137, Note_off_c, 0, 71, 0
3, 82140, Note_on_c, 0, 68, 92
3, 82173, Note_off_c, 0, 68, 0
3, 82224, Note_on_c, 0, 64, 75
3, 82269, Note_off_c, 0, 64, 0
3, 82272, Note_on_c, 0, 74, 75
3, 82317, Note_off_c, 0, 74, 0
3, 82320, Note_on_c, 0, 64, 75
3, 82365, Note_off_c, 0, 64, 0
3, 82368, Note_on_c, 0, 73, 75
3, 82413, Note_off_c, 0, 73, 0
3, 82416, Note_on_c, 0, 64, 75
3, 82461, Note_off_c, 0, 64, 0
3, 82464, Note_on_c, 0, 71, 75
3, 82509, Note_off_c, 0, 71, 0
3, 82512, Note_on_c, 0, 64, 75
3, 82557, Note_off_c, 0, 64, 0
3, 82560, Note_on_c, 0, 81, 92
3, 82593, Note_off_c, 0, 81, 0
3, 82596, Note_on_c, 0, 85, 92
3, 82617, Note_off_c, 0, 85, 0
3, 82620, Note_on_c, 0, 81, 92
3, 82653, Note_off_c, 0, 81, 0
3, 82656, Note_on_c, 0, 76, 92
3, 82689, Note_off_c, 0, 76, 0
3, 82692, Note_on_c, 0, 81, 92
3, 82713, Note_off_c, 0, 81, 0
3, 82716, Note_on_c, 0, 76, 92
3, 82749, Note_off_c, 0, 76, 0
3, 82752, Note_on_c, 0, 73, 92
3, 82785, Note_off_c, 0, 73, 0
3, 82788, Note_on_c, 0, 76, 92
3, 82809, Note_off_c, 0, 76, 0
3, 82812, Note_on_c, 0, 73, 92
3, 82845, Note_off_c, 0, 73, 0
3, 82848, Note_on_c, 0, 69, 92
3, 82881, Note_off_c, 0, 69, 0
3, 82884, Note_on_c, 0, 73, 92
3, 82905, Note_off_c, 0, 73, 0
3, 82908, Note_on_c, 0, 69, 92
3, 82941, Note_off_c, 0, 69, 0
3, 82992, Note_on_c, 0, 64, 75
3, 83037, Note_off_c, 0, 64, 0
3, 83040, Note_on_c, 0, 76, 75
3, 83085, Note_off_c, 0, 76, 0
3, 83088, Note_on_c, 0, 64, 75
3, 83133, Note_off_c, 0, 64, 0
3, 83136, Note_on_c, 0, 74, 75
3, 83181, Note_off_c, 0, 74, 0
3, 83184, Note_on_c, 0, 64, 75
3, 83229, Note_off_c, 0, 64, 0
3, 83232, Note_on_c, 0, 73, 75
3, 83277, Note_off_c, 0, 73, 0
3, 83280, Note_on_c, 0, 64, 75
3, 83325, Note_off_c, 0, 64, 0
3, 83328, Note_on_c, 0, 81, 92
3, 83349, Note_off_c, 0, 81, 0
3, 83352, Note_on_c, 0, 80, 92
3, 83373, Note_off_c, 0, 80, 0
3, 83376, Note_on_c, 0, 78, 92
3, 83397, Note_off_c, 0, 78, 0
3, 83400, Note_on_c, 0, 76, 92
3, 83421, Note_off_c, 0, 76, 0
3, 83424, Note_on_c, 0, 75, 92
3, 83649, Note_off_c, 0, 75, 0
3, 83712, Note_on_c, 0, 83, 92
3, 83733, Note_off_c, 0, 83, 0
3, 83736, Note_on_c, 0, 81, 92
3, 83757, Note_off_c, 0, 81, 0
3, 83760, Note_on_c, 0, 80, 92
3, 83781, Note_off_c, 0, 80, 0
3, 83784, Note_on_c, 0, 78, 92
3, 83805, Note_off_c, 0, 78, 0
3, 83808, Note_on_c, 0, 76, 92
3, 84033, Note_off_c, 0, 76, 0
3, 84144, Note_on_c, 0, 85, 45
3, 84189, Note_off_c, 0, 85, 0
3, 84192, Note_on_c, 0, 85, 45
3, 84213, Note_off_c, 0, 85, 0
3, 84216, Note_on_c, 0, 86, 45
3, 84237, Note_off_c, 0, 86, 0
3, 84240, Note_on_c, 0, 83, 45
3, 84261, Note_off_c, 0, 83, 0
3, 84264, Note_on_c, 0, 85, 45
3, 84285, Note_off_c, 0, 85, 0
3, 84288, Note_on_c, 0, 86, 45
3, 84357, Note_off_c, 0, 86, 0
3, 84528, Note_on_c, 0, 83, 45
3, 84573, Note_off_c, 0, 83, 0
3, 84576, Note_on_c, 0, 83, 45
3, 84597, Note_off_c, 0, 83, 0
3, 84600, Note_on_c, 0, 85, 45
3, 84621, Note_off_c, 0, 85, 0
3, 84624, Note_on_c, 0, 81, 45
3, 84645, Note_off_c, 0, 81, 0
3, 84648, Note_on_c, 0, 83, 45
3, 84669, Note_off_c, 0, 83, 0
3, 84672, Note_on_c, 0, 85, 45
3, 84741, Note_off_c, 0, 85, 0
3, 84912, Note_on_c, 0, 85, 75
3, 84957, Note_off_c, 0, 85, 0
3, 84960, Note_on_c, 0, 85, 75
3, 84981, Note_off_c, 0, 85, 0
3, 84984, Note_on_c, 0, 86, 75
3, 85005, Note_off_c, 0, 86, 0
3, 85008, Note_on_c, 0, 83, 75
3, 85029, Note_off_c, 0, 83, 0
3, 85032, Note_on_c, 0, 85, 75
3, 85053, Note_off_c, 0, 85, 0
3, 85056, Note_on_c, 0, 86, 75
3, 85125, Note_off_c, 0, 86, 0
3, 85296, Note_on_c, 0, 83, 75
3, 85341, Note_off_c, 0, 83, 0
3, 85344, Note_on_c, 0, 83, 75
3, 85365, Note_off_c, 0, 83, 0
3, 85368, Note_on_c, 0, 85, 75
3, 85389, Note_off_c, 0, 85, 0
3, 85392, Note_on_c, 0, 81, 75
3, 85413, Note_off_c, 0, 81, 0
3, 85416, Note_on_c, 0, 83, 75
3, 85437, Note_off_c, 0, 83, 0
3, 85440, Note_on_c, 0, 85, 75
3, 85485, Note_off_c, 0, 85, 0
3, 85488, Note_on_c, 0, 81, 75
3, 85533, Note_off_c, 0, 81, 0
3, 85536, Note_on_c, 0, 81, 75
3, 85557, Note_off_c, 0, 81, 0
3, 85560, Note_on_c, 0, 83, 75
3, 85581, Note_off_c, 0, 83, 0
3, 85584, Note_on_c, 0, 80, 75
3, 85605, Note_off_c, 0, 80, 0
3, 85608, Note_on_c, 0, 81, 75
3, 85629, Note_off_c, 0, 81, 0
3, 85632, Note_on_c, 0, 83, 75
3, 85677, Note_off_c, 0, 83, 0
3, 85680, Note_on_c, 0, 80, 75
3, 85725, Note_off_c, 0, 80, 0
3, 85728, Note_on_c, 0, 80, 75
3, 85749, Note_off_c, 0, 80, 0
3, 85752, Note_on_c, 0, 81, 75
3, 85773, Note_off_c, 0, 81, 0
3, 85776, Note_on_c, 0, 78, 75
3, 85797, Note_off_c, 0, 78, 0
3, 85800, Note_on_c, 0, 80, 75
3, 85821, Note_off_c, 0, 80, 0
3, 85824, Note_on_c, 0, 81, 75
3, 85869, Note_off_c, 0, 81, 0
3, 85872, Note_on_c, 0, 78, 75
3, 85917, Note_off_c, 0, 78, 0
3, 85920, Note_on_c, 0, 78, 75
3, 85941, Note_off_c, 0, 78, 0
3, 85944, Note_on_c, 0, 80, 75
3, 85965, Note_off_c, 0, 80, 0
3, 85968, Note_on_c, 0, 77, 75
3, 85989, Note_off_c, 0, 77, 0
3, 85992, Note_on_c, 0, 78, 75
3, 86013, Note_off_c, 0, 78, 0
3, 86016, Note_on_c, 0, 77, 75
3, 86049, Note_off_c, 0, 77, 0
3, 86052, Note_on_c, 0, 78, 75
3, 86073, Note_off_c, 0, 78, 0
3, 86076, Note_on_c, 0, 80, 75
3, 86109, Note_off_c, 0, 80, 0
3, 86112, Note_on_c, 0, 73, 75
3, 86265, Note_off_c, 0, 73, 0
3, 86400, Note_on_c, 0, 80, 92
3, 86433, Note_off_c, 0, 80, 0
3, 86436, Note_on_c, 0, 85, 92
3, 86457, Note_off_c, 0, 85, 0
3, 86460, Note_on_c, 0, 80, 92
3, 86493, Note_off_c, 0, 80, 0
3, 86496, Note_on_c, 0, 77, 92
3, 86529, Note_off_c, 0, 77, 0
3, 86532, Note_on_c, 0, 80, 92
3, 86553, Note_off_c, 0, 80, 0
3, 86556, Note_on_c, 0, 77, 92
3, 86589, Note_off_c, 0, 77, 0
3, 86592, Note_on_c, 0, 73, 92
3, 86625, Note_off_c, 0, 73, 0
3, 86628, Note_on_c, 0, 77, 92
3, 86649, Note_off_c, 0, 77, 0
3, 86652, Note_on_c, 0, 73, 92
3, 86685, Note_off_c, 0, 73, 0
3, 86688, Note_on_c, 0, 68, 92
3, 86721, Note_off_c, 0, 68, 0
3, 86724, Note_on_c, 0, 73, 92
3, 86745, Note_off_c, 0, 73, 0
3, 86748, Note_on_c, 0, 68, 92
3, 86781, Note_off_c, 0, 68, 0
3, 86832, Note_on_c, 0, 73, 75
3, 86877, Note_off_c, 0, 73, 0
3, 86880, Note_on_c, 0, 83, 75
3, 86925, Note_off_c, 0, 83, 0
3, 86928, Note_on_c, 0, 73, 75
3, 86973, Note_off_c, 0, 73, 0
3, 86976, Note_on_c, 0, 81, 75
3, 87021, Note_off_c, 0, 81, 0
3, 87024, Note_on_c, 0, 73, 75
3, 87069, Note_off_c, 0, 73, 0
3, 87072, Note_on_c, 0, 80, 75
3, 87117, Note_off_c, 0, 80, 0
3, 87120, Note_on_c, 0, 73, 75
3, 87165, Note_off_c, 0, 73, 0
3, 87168, Note_on_c, 0, 81, 75
3, 87201, Note_off_c, 0, 81, 0
3, 87204, Note_on_c, 0, 85, 75
3, 87225, Note_off_c, 0, 85, 0
3, 87228, Note_on_c, 0, 81, 75
3, 87261, Note_off_c, 0, 81, 0
3, 87264, Note_on_c, 0, 78, 75
3, 87297, Note_off_c, 0, 78, 0
3, 87300, Note_on_c, 0, 81, 75
3, 87321, Note_off_c, 0, 81, 0
3, 87324, Note_on_c, 0, 78, 75
3, 87357, Note_off_c, 0, 78, 0
3, 87360, Note_on_c, 0, 73, 75
3, 87393, Note_off_c, 0, 73, 0
3, 87396, Note_on_c, 0, 78, 75
3, 87417, Note_off_c, 0, 78, 0
3, 87420, Note_on_c, 0, 73, 75
3, 87453, Note_off_c, 0, 73, 0
3, 87456, Note_on_c, 0, 69, 75
3, 87489, Note_off_c, 0, 69, 0
3, 87492, Note_on_c, 0, 73, 75
3, 87513, Note_off_c, 0, 73, 0
3, 87516, Note_on_c, 0, 69, 75
3, 87549, Note_off_c, 0, 69, 0
3, 87600, Note_on_c, 0, 73, 75
3, 87645, Note_off_c, 0, 73, 0
3, 87648, Note_on_c, 0, 85, 75
3, 87693, Note_off_c, 0, 85, 0
3, 87696, Note_on_c, 0, 73, 75
3, 87741, Note_off_c, 0, 73, 0
3, 87744, Note_on_c, 0, 83, 75
3, 87789, Note_off_c, 0, 83, 0
3, 87792, Note_on_c, 0, 73, 75
3, 87837, Note_off_c, 0, 73, 0
3, 87840, Note_on_c, 0, 81, 75
3, 87885, Note_off_c, 0, 81, 0
3, 87888, Note_on_c, 0, 73, 75
3, 87933, Note_off_c, 0, 73, 0
3, 87936, Note_on_c, 0, 73, 75
3, 87969, Note_off_c, 0, 73, 0
3, 87972, Note_on_c, 0, 78, 75
3, 87993, Note_off_c, 0, 78, 0
3, 87996, Note_on_c, 0, 73, 75
3, 88029, Note_off_c, 0, 73, 0
3, 88032, Note_on_c, 0, 70, 75
3, 88065, Note_off_c, 0, 70, 0
3, 88068, Note_on_c, 0, 73, 75
3, 88089, Note_off_c, 0, 73, 0
3, 88092, Note_on_c, 0, 70, 75
3, 88125, Note_off_c, 0, 70, 0
3, 88128, Note_on_c, 0, 66, 75
3, 88161, Note_off_c, 0, 66, 0
3, 88164, Note_on_c, 0, 70, 75
3, 88185, Note_off_c, 0, 70, 0
3, 88188, Note_on_c, 0, 66, 75
3, 88221, Note_off_c, 0, 66, 0
3, 88224, Note_on_c, 0, 61, 75
3, 88257, Note_off_c, 0, 61, 0
3, 88260, Note_on_c, 0, 66, 75
3, 88281, Note_off_c, 0, 66, 0
3, 88284, Note_on_c, 0, 61, 75
3, 88317, Note_off_c, 0, 61, 0
3, 88368, Note_on_c, 0, 66, 75
3, 88413, Note_off_c, 0, 66, 0
3, 88416, Note_on_c, 0, 76, 75
3, 88461, Note_off_c, 0, 76, 0
3, 88464, Note_on_c, 0, 66, 75
3, 88509, Note_off_c, 0, 66, 0
3, 88512, Note_on_c, 0, 74, 75
3, 88557, Note_off_c, 0, 74, 0
3, 88560, Note_on_c, 0, 66, 75
3, 88605, Note_off_c, 0, 66, 0
3, 88608, Note_on_c, 0, 73, 75
3, 88653, Note_off_c, 0, 73, 0
3, 88656, Note_on_c, 0, 66, 75
3, 88701, Note_off_c, 0, 66, 0
3, 88704, Note_on_c, 0, 74, 75
3, 88737, Note_off_c, 0, 74, 0
3, 88740, Note_on_c, 0, 78, 75
3, 88761, Note_off_c, 0, 78, 0
3, 88764, Note_on_c, 0, 74, 75
3, 88797, Note_off_c, 0, 74, 0
3, 88800, Note_on_c, 0, 71, 75
3, 88833, Note_off_c, 0, 71, 0
3, 88836, Note_on_c, 0, 74, 75
3, 88857, Note_off_c, 0, 74, 0
3, 88860, Note_on_c, 0, 71, 75
3, 88893, Note_off_c, 0, 71, 0
3, 88896, Note_on_c, 0, 66, 75
3, 88929, Note_off_c, 0, 66, 0
3, 88932, Note_on_c, 0, 71, 75
3, 88953, Note_off_c, 0, 71, 0
3, 88956, Note_on_c, 0, 66, 75
3, 88989, Note_off_c, 0, 66, 0
3, 88992, Note_on_c, 0, 62, 75
3, 89025, Note_off_c, 0, 62, 0
3, 89028, Note_on_c, 0, 66, 75
3, 89049, Note_off_c, 0, 66, 0
3, 89052, Note_on_c, 0, 62, 75
3, 89085, Note_off_c, 0, 62, 0
3, 89136, Note_on_c, 0, 66, 75
3, 89181, Note_off_c, 0, 66, 0
3, 89184, Note_on_c, 0, 78, 75
3, 89229, Note_off_c, 0, 78, 0
3, 89232, Note_on_c, 0, 66, 75
3, 89277, Note_off_c, 0, 66, 0
3, 89280, Note_on_c, 0, 76, 75
3, 89325, Note_off_c, 0, 76, 0
3, 89328, Note_on_c, 0, 66, 75
3, 89373, Note_off_c, 0, 66, 0
3, 89376, Note_on_c, 0, 74, 75
3, 89421, Note_off_c, 0, 74, 0
3, 89424, Note_on_c, 0, 66, 75
3, 89469, Note_off_c, 0, 66, 0
3, 89472, Note_on_c, 0, 78, 92
3, 89505, Note_off_c, 0, 78, 0
3, 89508, Note_on_c, 0, 83, 92
3, 89529, Note_off_c, 0, 83, 0
3, 89532, Note_on_c, 0, 78, 92
3, 89565, Note_off_c, 0, 78, 0
3, 89568, Note_on_c, 0, 75, 92
3, 89601, Note_off_c, 0, 75, 0
3, 89604, Note_on_c, 0, 78, 92
3, 89625, Note_off_c, 0, 78, 0
3, 89628, Note_on_c, 0, 75, 92
3, 89661, Note_off_c, 0, 75, 0
3, 89664, Note_on_c, 0, 71, 92
3, 89697, Note_off_c, 0, 71, 0
3, 89700, Note_on_c, 0, 75, 92
3, 89721, Note_off_c, 0, 75, 0
3, 89724, Note_on_c, 0, 71, 92
3, 89757, Note_off_c, 0, 71, 0
3, 89760, Note_on_c, 0, 66, 92
3, 89793, Note_off_c, 0, 66, 0
3, 89796, Note_on_c, 0, 71, 92
3, 89817, Note_off_c, 0, 71, 0
3, 89820, Note_on_c, 0, 66, 92
3, 89853, Note_off_c, 0, 66, 0
3, 89904, Note_on_c, 0, 71, 75
3, 89949, Note_off_c, 0, 71, 0
3, 89952, Note_on_c, 0, 81, 75
3, 89997, Note_off_c, 0, 81, 0
3, 90000, Note_on_c, 0, 71, 75
3, 90045, Note_off_c, 0, 71, 0
3, 90048, Note_on_c, 0, 79, 75
3, 90093, Note_off_c, 0, 79, 0
3, 90096, Note_on_c, 0, 71, 75
3, 90141, Note_off_c, 0, 71, 0
3, 90144, Note_on_c, 0, 78, 75
3, 90189, Note_off_c, 0, 78, 0
3, 90192, Note_on_c, 0, 71, 75
3, 90237, Note_off_c, 0, 71, 0
3, 90240, Note_on_c, 0, 80, 75
3, 90273, Note_off_c, 0, 80, 0
3, 90276, Note_on_c, 0, 83, 75
3, 90297, Note_off_c, 0, 83, 0
3, 90300, Note_on_c, 0, 80, 75
3, 90333, Note_off_c, 0, 80, 0
3, 90336, Note_on_c, 0, 76, 75
3, 90369, Note_off_c, 0, 76, 0
3, 90372, Note_on_c, 0, 80, 75
3, 90393, Note_off_c, 0, 80, 0
3, 90396, Note_on_c, 0, 76, 75
3, 90429, Note_off_c, 0, 76, 0
3, 90432, Note_on_c, 0, 71, 75
3, 90465, Note_off_c, 0, 71, 0
3, 90468, Note_on_c, 0, 76, 75
3, 90489, Note_off_c, 0, 76, 0
3, 90492, Note_on_c, 0, 71, 75
3, 90525, Note_off_c, 0, 71, 0
3, 90528, Note_on_c, 0, 68, 75
3, 90561, Note_off_c, 0, 68, 0
3, 90564, Note_on_c, 0, 71, 75
3, 90585, Note_off_c, 0, 71, 0
3, 90588, Note_on_c, 0, 68, 75
3, 90621, Note_off_c, 0, 68, 0
3, 90672, Note_on_c, 0, 71, 75
3, 90717, Note_off_c, 0, 71, 0
3, 90720, Note_on_c, 0, 83, 75
3, 90765, Note_off_c, 0, 83, 0
3, 90768, Note_on_c, 0, 71, 75
3, 90813, Note_off_c, 0, 71, 0
3, 90816, Note_on_c, 0, 81, 75
3, 90861, Note_off_c, 0, 81, 0
3, 90864, Note_on_c, 0, 71, 75
3, 90909, Note_off_c, 0, 71, 0
3, 90912, Note_on_c, 0, 80, 75
3, 90957, Note_off_c, 0, 80, 0
3, 90960, Note_on_c, 0, 71, 75
3, 91005, Note_off_c, 0, 71, 0
3, 91008, Note_on_c, 0, 71, 75
3, 91041, Note_off_c, 0, 71, 0
3, 91044, Note_on_c, 0, 76, 75
3, 91065, Note_off_c, 0, 76, 0
3, 91068, Note_on_c, 0, 71, 75
3, 91101, Note_off_c, 0, 71, 0
3, 91104, Note_on_c, 0, 68, 75
3, 91137, Note_off_c, 0, 68, 0
3, 91140, Note_on_c, 0, 71, 75
3, 91161, Note_off_c, 0, 71, 0
3, 91164, Note_on_c, 0, 68, 75
3, 91197, Note_off_c, 0, 68, 0
3, 91200, Note_on_c, 0, 64, 75
3, 91233, Note_off_c, 0, 64, 0
3, 91236, Note_on_c, 0, 68, 75
3, 91257, Note_off_c, 0, 68, 0
3, 91260, Note_on_c, 0, 64, 75
3, 91293, Note_off_c, 0, 64, 0
3, 91296, Note_on_c, 0, 59, 75
3, 91329, Note_off_c, 0, 59, 0
3, 91332, Note_on_c, 0, 64, 75
3, 91353, Note_off_c, 0, 64, 0
3, 91356, Note_on_c, 0, 59, 75
3, 91389, Note_off_c, 0, 59, 0
3, 91440, Note_on_c, 0, 64, 75
3, 91485, Note_off_c, 0, 64, 0
3, 91488, Note_on_c, 0, 74, 75
3, 91533, Note_off_c, 0, 74, 0
3, 91536, Note_on_c, 0, 64, 75
3, 91581, Note_off_c, 0, 64, 0
3, 91584, Note_on_c, 0, 73, 75
3, 91629, Note_off_c, 0, 73, 0
3, 91632, Note_on_c, 0, 64, 75
3, 91677, Note_off_c, 0, 64, 0
3, 91680, Note_on_c, 0, 71, 75
3, 91725, Note_off_c, 0, 71, 0
3, 91728, Note_on_c, 0, 64, 75
3, 91773, Note_off_c, 0, 64, 0
3, 91776, Note_on_c, 0, 73, 75
3, 91809, Note_off_c, 0, 73, 0
3, 91812, Note_on_c, 0, 76, 75
3, 91833, Note_off_c, 0, 76, 0
3, 91836, Note_on_c, 0, 73, 75
3, 91869, Note_off_c, 0, 73, 0
3, 91872, Note_on_c, 0, 69, 75
3, 91905, Note_off_c, 0, 69, 0
3, 91908, Note_on_c, 0, 73, 75
3, 91929, Note_off_c, 0, 73, 0
3, 91932, Note_on_c, 0, 69, 75
3, 91965, Note_off_c, 0, 69, 0
3, 91968, Note_on_c, 0, 64, 75
3, 92001, Note_off_c, 0, 64, 0
3, 92004, Note_on_c, 0, 69, 75
3, 92025, Note_off_c, 0, 69, 0
3, 92028, Note_on_c, 0, 64, 75
3, 92061, Note_off_c, 0, 64, 0
3, 92064, Note_on_c, 0, 61, 75
3, 92097, Note_off_c, 0, 61, 0
3, 92100, Note_on_c, 0, 64, 75
3, 92121, Note_off_c, 0, 64, 0
3, 92124, Note_on_c, 0, 61, 75
3, 92157, Note_off_c, 0, 61, 0
3, 92208, Note_on_c, 0, 64, 75
3, 92253, Note_off_c, 0, 64, 0
3, 92256, Note_on_c, 0, 76, 75
3, 92301, Note_off_c, 0, 76, 0
3, 92304, Note_on_c, 0, 64, 75
3, 92349, Note_off_c, 0, 64, 0
3, 92352, Note_on_c, 0, 74, 75
3, 92397, Note_off_c, 0, 74, 0
3, 92400, Note_on_c, 0, 64, 75
3, 92445, Note_off_c, 0, 64, 0
3, 92448, Note_on_c, 0, 73, 75
3, 92493, Note_off_c, 0, 73, 0
3, 92496, Note_on_c, 0, 64, 75
3, 92541, Note_off_c, 0, 64, 0
3, 92640, Note_on_c, 0, 78, 75
3, 92661, Note_off_c, 0, 78, 0
3, 92664, Note_on_c, 0, 80, 75
3, 92685, Note_off_c, 0, 80, 0
3, 92688, Note_on_c, 0, 78, 75
3, 92709, Note_off_c, 0, 78, 0
3, 92712, Note_on_c, 0, 80, 75
3, 92733, Note_off_c, 0, 80, 0
3, 92736, Note_on_c, 0, 76, 75
3, 92829, Note_off_c, 0, 76, 0
3, 92832, Note_on_c, 0, 81, 75
3, 92925, Note_off_c, 0, 81, 0
3, 93024, Note_on_c, 0, 86, 75
3, 93117, Note_off_c, 0, 86, 0
3, 93120, Note_on_c, 0, 85, 75
3, 93141, Note_off_c, 0, 85, 0
3, 93144, Note_on_c, 0, 86, 75
3, 93165, Note_off_c, 0, 86, 0
3, 93168, Note_on_c, 0, 85, 75
3, 93189, Note_off_c, 0, 85, 0
3, 93192, Note_on_c, 0, 86, 75
3, 93213, Note_off_c, 0, 86, 0
3, 93216, Note_on_c, 0, 81, 75
3, 93309, Note_off_c, 0, 81, 0
3, 93408, Note_on_c, 0, 78, 45
3, 93429, Note_off_c, 0, 78, 0
3, 93432, Note_on_c, 0, 80, 45
3, 93453, Note_off_c, 0, 80, 0
3, 93456, Note_on_c, 0, 78, 45
3, 93477, Note_off_c, 0, 78, 0
3, 93480, Note_on_c, 0, 80, 45
3, 93501, Note_off_c, 0, 80, 0
3, 93504, Note_on_c, 0, 76, 45
3, 93597, Note_off_c, 0, 76, 0
3, 93600, Note_on_c, 0, 81, 45
3, 93693, Note_off_c, 0, 81, 0
3, 93792, Note_on_c, 0, 86, 46
3, 93885, Note_off_c, 0, 86, 0
3, 93888, Note_on_c, 0, 85, 47
3, 93909, Note_off_c, 0, 85, 0
3, 93912, Note_on_c, 0, 86, 48
3, 93933, Note_off_c, 0, 86, 0
3, 93936, Note_on_c, 0, 85, 49
3, 93957, Note_off_c, 0, 85, 0
3, 93960, Note_on_c, 0, 86, 50
3, 93981, Note_off_c, 0, 86, 0
3, 93984, Note_on_c, 0, 81, 51
3, 94077, Note_off_c, 0, 81, 0
3, 94176, Note_on_c, 0, 76, 53
3, 94269, Note_off_c, 0, 76, 0
3, 94272, Note_on_c, 0, 76, 54
3, 94365, Note_off_c, 0, 76, 0
3, 94368, Note_on_c, 0, 76, 55
3, 94461, Note_off_c, 0, 76, 0
3, 94560, Note_on_c, 0, 76, 57
3, 94560, Note_on_c, 0, 78, 57
3, 94653, Note_off_c, 0, 78, 0
3, 94653, Note_off_c, 0, 76, 0
3, 94656, Note_on_c, 0, 78, 58
3, 94656, Note_on_c, 0, 76, 58
3, 94749, Note_off_c, 0, 76, 0
3, 94749, Note_off_c, 0, 78, 0
3, 94752, Note_on_c, 0, 78, 59
3, 94752, Note_on_c, 0, 76, 59
3, 94845, Note_off_c, 0, 76, 0
3, 94845, Note_off_c, 0, 78, 0
3, 94944, Note_on_c, 0, 74, 61
3, 94944, Note_on_c, 0, 78, 61
3, 95037, Note_off_c, 0, 78, 0
3, 95037, Note_off_c, 0, 74, 0
3, 95040, Note_on_c, 0, 78, 62
3, 95040, Note_on_c, 0, 74, 62
3, 95133, Note_off_c, 0, 74, 0
3, 95133, Note_off_c, 0, 78, 0
3, 95136, Note_on_c, 0, 78, 63
3, 95136, Note_on_c, 0, 74, 63
3, 95229, Note_off_c, 0, 74, 0
3, 95229, Note_off_c, 0, 78, 0
3, 95328, Note_on_c, 0, 74, 65
3, 95328, Note_on_c, 0, 80, 65
3, 95421, Note_off_c, 0, 80, 0
3, 95421, Note_off_c, 0, 74, 0
3, 95424, Note_on_c, 0, 80, 66
3, 95424, Note_on_c, 0, 74, 66
3, 95517, Note_off_c, 0, 74, 0
3, 95517, Note_off_c, 0, 80, 0
3, 95520, Note_on_c, 0, 80, 67
3, 95520, Note_on_c, 0, 74, 67
3, 95613, Note_off_c, 0, 74, 0
3, 95613, Note_off_c, 0, 80, 0
3, 95616, Note_on_c, 0, 81, 127
3, 95616, Note_on_c, 0, 76, 127
3, 95616, Note_on_c, 0, 73, 127
3, 95776, Note_off_c, 0, 73, 0
3, 95776, Note_off_c, 0, 76, 0
3, 95776, Note_off_c, 0, 81, 0
3, 95808, Note_on_c, 0, 86, 127
3, 95808, Note_on_c, 0, 83, 127
3, 95808, Note_on_c, 0, 80, 127
3, 95808, Note_on_c, 0, 76, 127
3, 95968, Note_off_c, 0, 76, 0
3, 95968, Note_off_c, 0, 80, 0
3, 95968, Note_off_c, 0, 83, 0
3, 95968, Note_off_c, 0, 86, 0
3, 96000, Note_on_c, 0, 85, 127
3, 96000, Note_on_c, 0, 81, 127
3, 96000, Note_on_c, 0, 76, 127
3, 96160, Note_off_c, 0, 76, 0
3, 96160, Note_off_c, 0, 81, 0
3, 96160, Note_off_c, 0, 85, 0
3, 96192, Note_on_c, 0, 83, 127
3, 96192, Note_on_c, 0, 80, 127
3, 96192, Note_on_c, 0, 74, 127
3, 96352, Note_off_c, 0, 74, 0
3, 96352, Note_off_c, 0, 80, 0
3, 96352, Note_off_c, 0, 83, 0
3, 96384, Note_on_c, 0, 81, 92
3, 96384, Note_on_c, 0, 76, 92
3, 96384, Note_on_c, 0, 73, 92
3, 96544, Note_off_c, 0, 73, 0
3, 96544, Note_off_c, 0, 76, 0
3, 96544, Note_off_c, 0, 81, 0
3, 96576, Note_on_c, 0, 86, 92
3, 96576, Note_on_c, 0, 83, 92
3, 96576, Note_on_c, 0, 80, 92
3, 96576, Note_on_c, 0, 76, 92
3, 96736, Note_off_c, 0, 76, 0
3, 96736, Note_off_c, 0, 80, 0
3, 96736, Note_off_c, 0, 83, 0
3, 96736, Note_off_c, 0, 86, 0
3, 96768, Note_on_c, 0, 85, 92
3, 96768, Note_on_c, 0, 81, 92
3, 96768, Note_on_c, 0, 76, 92
3, 96928, Note_off_c, 0, 76, 0
3, 96928, Note_off_c, 0, 81, 0
3, 96928, Note_off_c, 0, 85, 0
3, 96960, Note_on_c, 0, 83, 92
3, 96960, Note_on_c, 0, 80, 92
3, 96960, Note_on_c, 0, 74, 92
3, 97120, Note_off_c, 0, 74, 0
3, 97120, Note_off_c, 0, 80, 0
3, 97120, Note_off_c, 0, 83, 0
3, 97152, Note_on_c, 0, 81, 75
3, 97197, Note_off_c, 0, 81, 0
3, 97200, Note_on_c, 0, 85, 75
3, 97245, Note_off_c, 0, 85, 0
3, 97248, Note_on_c, 0, 76, 75
3, 97293, Note_off_c, 0, 76, 0
3, 97296, Note_on_c, 0, 81, 75
3, 97341, Note_off_c, 0, 81, 0
3, 97344, Note_on_c, 0, 73, 75
3, 97389, Note_off_c, 0, 73, 0
3, 97392, Note_on_c, 0, 76, 75
3, 97437, Note_off_c, 0, 76, 0
3, 97440, Note_on_c, 0, 69, 75
3, 97485, Note_off_c, 0, 69, 0
3, 97488, Note_on_c, 0, 73, 75
3, 97533, Note_off_c, 0, 73, 0
3, 97536, Note_on_c, 0, 78, 75
3, 97581, Note_off_c, 0, 78, 0
3, 97584, Note_on_c, 0, 81, 75
3, 97629, Note_off_c, 0, 81, 0
3, 97632, Note_on_c, 0, 74, 75
3, 97677, Note_off_c, 0, 74, 0
3, 97680, Note_on_c, 0, 78, 75
3, 97725, Note_off_c, 0, 78, 0
3, 97728, Note_on_c, 0, 71, 75
3, 97773, Note_off_c, 0, 71, 0
3, 97776, Note_on_c, 0, 74, 75
3, 97821, Note_off_c, 0, 74, 0
3, 97824, Note_on_c, 0, 66, 75
3, 97869, Note_off_c, 0, 66, 0
3, 97872, Note_on_c, 0, 71, 75
3, 97917, Note_off_c, 0, 71, 0
3, 97920, Note_on_c, 0, 69, 75
3, 98080, Note_off_c, 0, 69, 0
3, 98112, Note_on_c, 0, 68, 75
3, 98133, Note_off_c, 0, 68, 0
3, 98136, Note_on_c, 0, 69, 75
3, 98157, Note_off_c, 0, 69, 0
3, 98160, Note_on_c, 0, 68, 75
3, 98181, Note_off_c, 0, 68, 0
3, 98184, Note_on_c, 0, 69, 75
3, 98205, Note_off_c, 0, 69, 0
3, 98208, Note_on_c, 0, 68, 75
3, 98229, Note_off_c, 0, 68, 0
3, 98232, Note_on_c, 0, 69, 75
3, 98253, Note_off_c, 0, 69, 0
3, 98256, Note_on_c, 0, 68, 75
3, 98277, Note_off_c, 0, 68, 0
3, 98280, Note_on_c, 0, 69, 75
3, 98301, Note_off_c, 0, 69, 0
3, 98304, Note_on_c, 0, 69, 75
3, 98464, Note_off_c, 0, 69, 0
3, 98688, Note_on_c, 0, 81, 75
3, 98688, Note_on_c, 0, 76, 75
3, 98688, Note_on_c, 0, 72, 75
3, 98848, Note_off_c, 0, 72, 0
3, 98848, Note_off_c, 0, 76, 0
3, 98848, Note_off_c, 0, 81, 0
3, 98976, Note_on_c, 0, 81, 75
3, 98976, Note_on_c, 0, 72, 75
3, 99069, Note_off_c, 0, 72, 0
3, 99069, Note_off_c, 0, 81, 0
3, 99072, Note_on_c, 0, 81, 75
3, 99072, Note_on_c, 0, 72, 75
3, 99117, Note_off_c, 0, 72, 0
3, 99117, Note_off_c, 0, 81, 0
3, 99120, Note_on_c, 0, 71, 75
3, 99120, Note_on_c, 0, 80, 75
3, 99165, Note_off_c, 0, 80, 0
3, 99165, Note_off_c, 0, 71, 0
3, 99168, Note_on_c, 0, 71, 75
3, 99168, Note_on_c, 0, 80, 75
3, 99261, Note_off_c, 0, 80, 0
3, 99261, Note_off_c, 0, 71, 0
3, 99456, Note_on_c, 0, 74, 92
3, 99456, Note_on_c, 0, 71, 92
3, 99456, Note_on_c, 0, 68, 92
3, 99456, Note_on_c, 0, 64, 92
3, 99616, Note_off_c, 0, 64, 0
3, 99616, Note_off_c, 0, 68, 0
3, 99616, Note_off_c, 0, 71, 0
3, 99616, Note_off_c, 0, 74, 0
3, 99744, Note_on_c, 0, 74, 92
3, 99744, Note_on_c, 0, 71, 92
3, 99837, Note_off_c, 0, 71, 0
3, 99837, Note_off_c, 0, 74, 0
3, 99840, Note_on_c, 0, 74, 92
3, 99840, Note_on_c, 0, 71, 92
3, 99885, Note_off_c, 0, 71, 0
3, 99885, Note_off_c, 0, 74, 0
3, 99888, Note_on_c, 0, 69, 92
3, 99888, Note_on_c, 0, 72, 92
3, 99933, Note_off_c, 0, 72, 0
3, 99933, Note_off_c, 0, 69, 0
3, 99936, Note_on_c, 0, 69, 92
3, 99936, Note_on_c, 0, 72, 92
3, 100029, Note_off_c, 0, 72, 0
3, 100029, Note_off_c, 0, 69, 0
3, 100224, Note_on_c, 0, 77, 108
3, 100224, Note_on_c, 0, 74, 108
3, 100384, Note_off_c, 0, 74, 0
3, 100384, Note_off_c, 0, 77, 0
3, 100512, Note_on_c, 0, 77, 108
3, 100512, Note_on_c, 0, 74, 108
3, 100605, Note_off_c, 0, 74, 0
3, 100605, Note_off_c, 0, 77, 0
3, 100608, Note_on_c, 0, 77, 108
3, 100608, Note_on_c, 0, 74, 108
3, 100653, Note_off_c, 0, 74, 0
3, 100653, Note_off_c, 0, 77, 0
3, 100656, Note_on_c, 0, 72, 108
3, 100656, Note_on_c, 0, 76, 108
3, 100701, Note_off_c, 0, 76, 0
3, 100701, Note_off_c, 0, 72, 0
3, 100704, Note_on_c, 0, 72, 108
3, 100704, Note_on_c, 0, 76, 108
3, 100797, Note_off_c, 0, 76, 0
3, 100797, Note_off_c, 0, 72, 0
3, 100896, Note_on_c, 0, 76, 108
3, 100896, Note_on_c, 0, 72, 108
3, 100989, Note_off_c, 0, 72, 0
3, 100989, Note_off_c, 0, 76, 0
3, 100992, Note_on_c, 0, 76, 108
3, 100992, Note_on_c, 0, 72, 108
3, 101037, Note_off_c, 0, 72, 0
3, 101037, Note_off_c, 0, 76, 0
3, 101040, Note_on_c, 0, 71, 108
3, 101040, Note_on_c, 0, 74, 108
3, 101085, Note_off_c, 0, 74, 0
3, 101085, Note_off_c, 0, 71, 0
3, 101088, Note_on_c, 0, 71, 108
3, 101088, Note_on_c, 0, 74, 108
3, 101181, Note_off_c, 0, 74, 0
3, 101181, Note_off_c, 0, 71, 0
3, 101280, Note_on_c, 0, 74, 108
3, 101280, Note_on_c, 0, 71, 108
3, 101373, Note_off_c, 0, 71, 0
3, 101373, Note_off_c, 0, 74, 0
3, 101376, Note_on_c, 0, 74, 108
3, 101376, Note_on_c, 0, 71, 108
3, 101421, Note_off_c, 0, 71, 0
3, 101421, Note_off_c, 0, 74, 0
3, 101424, Note_on_c, 0, 69, 108
3, 101424, Note_on_c, 0, 72, 108
3, 101469, Note_off_c, 0, 72, 0
3, 101469, Note_off_c, 0, 69, 0
3, 101472, Note_on_c, 0, 69, 108
3, 101472, Note_on_c, 0, 72, 108
3, 101565, Note_off_c, 0, 72, 0
3, 101565, Note_off_c, 0, 69, 0
3, 101664, Note_on_c, 0, 72, 108
3, 101664, Note_on_c, 0, 69, 108
3, 101757, Note_off_c, 0, 69, 0
3, 101757, Note_off_c, 0, 72, 0
3, 101760, Note_on_c, 0, 74, 108
3, 101760, Note_on_c, 0, 71, 108
3, 101805, Note_off_c, 0, 71, 0
3, 101805, Note_off_c, 0, 74, 0
3, 101808, Note_on_c, 0, 69, 108
3, 101808, Note_on_c, 0, 72, 108
3, 101853, Note_off_c, 0, 72, 0
3, 101853, Note_off_c, 0, 69, 0
3, 101856, Note_on_c, 0, 69, 108
3, 101856, Note_on_c, 0, 72, 108
3, 101949, Note_off_c, 0, 72, 0
3, 101949, Note_off_c, 0, 69, 0
3, 102048, Note_on_c, 0, 72, 108
3, 102048, Note_on_c, 0, 69, 108
3, 102141, Note_off_c, 0, 69, 0
3, 102141, Note_off_c, 0, 72, 0
3, 102144, Note_on_c, 0, 74, 108
3, 102144, Note_on_c, 0, 71, 108
3, 102189, Note_off_c, 0, 71, 0
3, 102189, Note_off_c, 0, 74, 0
3, 102192, Note_on_c, 0, 69, 108
3, 102192, Note_on_c, 0, 72, 108
3, 102237, Note_off_c, 0, 72, 0
3, 102237, Note_off_c, 0, 69, 0
3, 102240, Note_on_c, 0, 69, 108
3, 102240, Note_on_c, 0, 72, 108
3, 102333, Note_off_c, 0, 72, 0
3, 102333, Note_off_c, 0, 69, 0
3, 102432, Note_on_c, 0, 72, 108
3, 102432, Note_on_c, 0, 69, 108
3, 102525, Note_off_c, 0, 69, 0
3, 102525, Note_off_c, 0, 72, 0
3, 102528, Note_on_c, 0, 72, 108
3, 102528, Note_on_c, 0, 69, 108
3, 102621, Note_off_c, 0, 69, 0
3, 102621, Note_off_c, 0, 72, 0
3, 102624, Note_on_c, 0, 71, 108
3, 102624, Note_on_c, 0, 68, 108
3, 102717, Note_off_c, 0, 68, 0
3, 102717, Note_off_c, 0, 71, 0
3, 102912, Note_on_c, 0, 57, 92
3, 102945, Note_off_c, 0, 57, 0
3, 102948, Note_on_c, 0, 61, 92
3, 102969, Note_off_c, 0, 61, 0
3, 102972, Note_on_c, 0, 64, 92
3, 103005, Note_off_c, 0, 64, 0
3, 103008, Note_on_c, 0, 61, 92
3, 103041, Note_off_c, 0, 61, 0
3, 103044, Note_on_c, 0, 64, 92
3, 103065, Note_off_c, 0, 64, 0
3, 103068, Note_on_c, 0, 69, 92
3, 103101, Note_off_c, 0, 69, 0
3, 103104, Note_on_c, 0, 69, 92
3, 103137, Note_off_c, 0, 69, 0
3, 103140, Note_on_c, 0, 73, 92
3, 103161, Note_off_c, 0, 73, 0
3, 103164, Note_on_c, 0, 76, 92
3, 103197, Note_off_c, 0, 76, 0
3, 103200, Note_on_c, 0, 73, 92
3, 103233, Note_off_c, 0, 73, 0
3, 103236, Note_on_c, 0, 76, 92
3, 103257, Note_off_c, 0, 76, 0
3, 103260, Note_on_c, 0, 81, 92
3, 103293, Note_off_c, 0, 81, 0
3, 103296, Note_on_c, 0, 74, 92
3, 103296, Note_on_c, 0, 71, 92
3, 103456, Note_off_c, 0, 71, 0
3, 103456, Note_off_c, 0, 74, 0
3, 103680, Note_on_c, 0, 64, 75
3, 103713, Note_off_c, 0, 64, 0
3, 103716, Note_on_c, 0, 68, 75
3, 103737, Note_off_c, 0, 68, 0
3, 103740, Note_on_c, 0, 71, 75
3, 103773, Note_off_c, 0, 71, 0
3, 103776, Note_on_c, 0, 68, 75
3, 103809, Note_off_c, 0, 68, 0
3, 103812, Note_on_c, 0, 71, 75
3, 103833, Note_off_c, 0, 71, 0
3, 103836, Note_on_c, 0, 74, 75
3, 103869, Note_off_c, 0, 74, 0
3, 103872, Note_on_c, 0, 71, 75
3, 103905, Note_off_c, 0, 71, 0
3, 103908, Note_on_c, 0, 74, 75
3, 103929, Note_off_c, 0, 74, 0
3, 103932, Note_on_c, 0, 80, 75
3, 103965, Note_off_c, 0, 80, 0
3, 103968, Note_on_c, 0, 74, 75
3, 104001, Note_off_c, 0, 74, 0
3, 104004, Note_on_c, 0, 80, 75
3, 104025, Note_off_c, 0, 80, 0
3, 104028, Note_on_c, 0, 83, 75
3, 104061, Note_off_c, 0, 83, 0
3, 104064, Note_on_c, 0, 81, 75
3, 104064, Note_on_c, 0, 73, 75
3, 104224, Note_off_c, 0, 73, 0
3, 104224, Note_off_c, 0, 81, 0
3, 104544, Note_on_c, 0, 69, 60
3, 104637, Note_off_c, 0, 69, 0
3, 104640, Note_on_c, 0, 73, 60
3, 104733, Note_off_c, 0, 73, 0
3, 104736, Note_on_c, 0, 76, 60
3, 104829, Note_off_c, 0, 76, 0
3, 104832, Note_on_c, 0, 66, 60
3, 104992, Note_off_c, 0, 66, 0
3, 105312, Note_on_c, 0, 66, 60
3, 105405, Note_off_c, 0, 66, 0
3, 105408, Note_on_c, 0, 73, 60
3, 105501, Note_off_c, 0, 73, 0
3, 105504, Note_on_c, 0, 76, 60
3, 105597, Note_off_c, 0, 76, 0
3, 105600, Note_on_c, 0, 69, 60
3, 105621, Note_off_c, 0, 69, 0
3, 105624, Note_on_c, 0, 71, 60
3, 105645, Note_off_c, 0, 71, 0
3, 105648, Note_on_c, 0, 69, 60
3, 105669, Note_off_c, 0, 69, 0
3, 105672, Note_on_c, 0, 71, 60
3, 105693, Note_off_c, 0, 71, 0
3, 105696, Note_on_c, 0, 69, 60
3, 105717, Note_off_c, 0, 69, 0
3, 105720, Note_on_c, 0, 71, 60
3, 105741, Note_off_c, 0, 71, 0
3, 105744, Note_on_c, 0, 69, 60
3, 105765, Note_off_c, 0, 69, 0
3, 105768, Note_on_c, 0, 71, 60
3, 105789, Note_off_c, 0, 71, 0
3, 106080, Note_on_c, 0, 69, 75
3, 106173, Note_off_c, 0, 69, 0
3, 106176, Note_on_c, 0, 73, 75
3, 106269, Note_off_c, 0, 73, 0
3, 106272, Note_on_c, 0, 76, 75
3, 106365, Note_off_c, 0, 76, 0
3, 106368, Note_on_c, 0, 76, 75
3, 106461, Note_off_c, 0, 76, 0
3, 106464, Note_on_c, 0, 77, 75
3, 106557, Note_off_c, 0, 77, 0
3, 106560, Note_on_c, 0, 78, 75
3, 106653, Note_off_c, 0, 78, 0
3, 106656, Note_on_c, 0, 74, 75
3, 106749, Note_off_c, 0, 74, 0
3, 106752, Note_on_c, 0, 74, 75
3, 106797, Note_off_c, 0, 74, 0
3, 106800, Note_on_c, 0, 73, 75
3, 106845, Note_off_c, 0, 73, 0
3, 106848, Note_on_c, 0, 71, 75
3, 106893, Note_off_c, 0, 71, 0
3, 106896, Note_on_c, 0, 69, 75
3, 106941, Note_off_c, 0, 69, 0
3, 106944, Note_on_c, 0, 73, 75
3, 106989, Note_off_c, 0, 73, 0
3, 106992, Note_on_c, 0, 71, 75
3, 107037, Note_off_c, 0, 71, 0
3, 107040, Note_on_c, 0, 69, 75
3, 107085, Note_off_c, 0, 69, 0
3, 107088, Note_on_c, 0, 68, 75
3, 107133, Note_off_c, 0, 68, 0
3, 107136, Note_on_c, 0, 69, 75
3, 107229, Note_off_c, 0, 69, 0
3, 107232, Note_on_c, 0, 69, 75
3, 107232, Note_on_c, 0, 73, 75
3, 107265, Note_off_c, 0, 73, 0
3, 107265, Note_off_c, 0, 69, 0
3, 107268, Note_on_c, 0, 71, 75
3, 107268, Note_on_c, 0, 74, 75
3, 107289, Note_off_c, 0, 74, 0
3, 107289, Note_off_c, 0, 71, 0
3, 107292, Note_on_c, 0, 73, 75
3, 107292, Note_on_c, 0, 76, 75
3, 107325, Note_off_c, 0, 76, 0
3, 107325, Note_off_c, 0, 73, 0
3, 107328, Note_on_c, 0, 74, 75
3, 107328, Note_on_c, 0, 71, 75
3, 107421, Note_off_c, 0, 71, 0
3, 107421, Note_off_c, 0, 74, 0
3, 107424, Note_on_c, 0, 68, 75
3, 107424, Note_on_c, 0, 62, 75
3, 107517, Note_off_c, 0, 62, 0
3, 107517, Note_off_c, 0, 68, 0
3, 107520, Note_on_c, 0, 69, 75
3, 107613, Note_off_c, 0, 69, 0
3, 107616, Note_on_c, 0, 57, 45
3, 107616, Note_on_c, 0, 61, 45
3, 107649, Note_off_c, 0, 61, 0
3, 107649, Note_off_c, 0, 57, 0
3, 107652, Note_on_c, 0, 59, 45
3, 107652, Note_on_c, 0, 62, 45
3, 107673, Note_off_c, 0, 62, 0
3, 107673, Note_off_c, 0, 59, 0
3, 107676, Note_on_c, 0, 61, 45
3, 107676, Note_on_c, 0, 64, 45
3, 107709, Note_off_c, 0, 64, 0
3, 107709, Note_off_c, 0, 61, 0
3, 107712, Note_on_c, 0, 62, 45
3, 107712, Note_on_c, 0, 59, 45
3, 107805, Note_off_c, 0, 59, 0
3, 107805, Note_off_c, 0, 62, 0
3, 107808, Note_on_c, 0, 59, 45
3, 107808, Note_on_c, 0, 56, 45
3, 107901, Note_off_c, 0, 56, 0
3, 107901, Note_off_c, 0, 59, 0
3, 107904, Note_on_c, 0, 57, 45
3, 108064, Note_off_c, 0, 57, 0
3, 108064, End_track
4, 0, Start_track
4, 0, Title_t, "Piano"
4, 0, Channel_prefix, 1
4, 0, Control_c, 1, 7, 113
4, 0, Control_c, 1, 10, 64
4, 0, Program_c, 1, 0
4, 0, Note_on_c, 1, 61, 75
4, 0, Note_on_c, 1, 57, 75
4, 93, Note_off_c, 1, 57, 0
4, 93, Note_off_c, 1, 61, 0
4, 96, Note_on_c, 1, 61, 75
4, 96, Note_on_c, 1, 57, 75
4, 189, Note_off_c, 1, 57, 0
4, 189, Note_off_c, 1, 61, 0
4, 192, Note_on_c, 1, 61, 75
4, 192, Note_on_c, 1, 57, 75
4, 285, Note_off_c, 1, 57, 0
4, 285, Note_off_c, 1, 61, 0
4, 288, Note_on_c, 1, 61, 75
4, 288, Note_on_c, 1, 57, 75
4, 381, Note_off_c, 1, 57, 0
4, 381, Note_off_c, 1, 61, 0
4, 384, Note_on_c, 1, 62, 75
4, 384, Note_on_c, 1, 57, 75
4, 477, Note_off_c, 1, 57, 0
4, 477, Note_off_c, 1, 62, 0
4, 480, Note_on_c, 1, 61, 75
4, 480, Note_on_c, 1, 57, 75
4, 573, Note_off_c, 1, 57, 0
4, 573, Note_off_c, 1, 61, 0
4, 576, Note_on_c, 1, 61, 75
4, 576, Note_on_c, 1, 57, 75
4, 669, Note_off_c, 1, 57, 0
4, 669, Note_off_c, 1, 61, 0
4, 672, Note_on_c, 1, 61, 75
4, 672, Note_on_c, 1, 57, 75
4, 765, Note_off_c, 1, 57, 0
4, 765, Note_off_c, 1, 61, 0
4, 864, Note_on_c, 1, 52, 60
4, 864, Note_on_c, 1, 59, 60
4, 957, Note_off_c, 1, 59, 0
4, 957, Note_off_c, 1, 52, 0
4, 960, Note_on_c, 1, 57, 60
4, 960, Note_on_c, 1, 52, 60
4, 1053, Note_off_c, 1, 52, 0
4, 1053, Note_off_c, 1, 57, 0
4, 1056, Note_on_c, 1, 56, 60
4, 1056, Note_on_c, 1, 52, 60
4, 1149, Note_off_c, 1, 52, 0
4, 1149, Note_off_c, 1, 56, 0
4, 1248, Note_on_c, 1, 61, 60
4, 1248, Note_on_c, 1, 57, 60
4, 1341, Note_off_c, 1, 57, 0
4, 1341, Note_off_c, 1, 61, 0
4, 1344, Note_on_c, 1, 64, 60
4, 1344, Note_on_c, 1, 61, 60
4, 1437, Note_off_c, 1, 61, 0
4, 1437, Note_off_c, 1, 64, 0
4, 1440, Note_on_c, 1, 61, 45
4, 1440, Note_on_c, 1, 57, 45
4, 1533, Note_off_c, 1, 57, 0
4, 1533, Note_off_c, 1, 61, 0
4, 1632, Note_on_c, 1, 52, 45
4, 1632, Note_on_c, 1, 59, 45
4, 1725, Note_off_c, 1, 59, 0
4, 1725, Note_off_c, 1, 52, 0
4, 1728, Note_on_c, 1, 57, 45
4, 1728, Note_on_c, 1, 52, 45
4, 1821, Note_off_c, 1, 52, 0
4, 1821, Note_off_c, 1, 57, 0
4, 1824, Note_on_c, 1, 56, 45
4, 1824, Note_on_c, 1, 52, 45
4, 1917, Note_off_c, 1, 52, 0
4, 1917, Note_off_c, 1, 56, 0
4, 2016, Note_on_c, 1, 57, 45
4, 2016, Note_on_c, 1, 61, 45
4, 2109, Note_off_c, 1, 61, 0
4, 2109, Note_off_c, 1, 57, 0
4, 2112, Note_on_c, 1, 64, 45
4, 2112, Note_on_c, 1, 61, 45
4, 2205, Note_off_c, 1, 61, 0
4, 2205, Note_off_c, 1, 64, 0
4, 2208, Note_on_c, 1, 61, 75
4, 2208, Note_on_c, 1, 57, 75
4, 2301, Note_off_c, 1, 57, 0
4, 2301, Note_off_c, 1, 61, 0
4, 2400, Note_on_c, 1, 69, 75
4, 2400, Note_on_c, 1, 71, 75
4, 2493, Note_off_c, 1, 71, 0
4, 2493, Note_off_c, 1, 69, 0
4, 2496, Note_on_c, 1, 71, 75
4, 2496, Note_on_c, 1, 68, 75
4, 2589, Note_off_c, 1, 68, 0
4, 2589, Note_off_c, 1, 71, 0
4, 2592, Note_on_c, 1, 71, 75
4, 2592, Note_on_c, 1, 68, 75
4, 2685, Note_off_c, 1, 68, 0
4, 2685, Note_off_c, 1, 71, 0
4, 2784, Note_on_c, 1, 69, 75
4, 2784, Note_on_c, 1, 71, 75
4, 2877, Note_off_c, 1, 71, 0
4, 2877, Note_off_c, 1, 69, 0
4, 2880, Note_on_c, 1, 71, 76
4, 2880, Note_on_c, 1, 68, 76
4, 2973, Note_off_c, 1, 68, 0
4, 2973, Note_off_c, 1, 71, 0
4, 2976, Note_on_c, 1, 71, 77
4, 2976, Note_on_c, 1, 68, 77
4, 3069, Note_off_c, 1, 68, 0
4, 3069, Note_off_c, 1, 71, 0
4, 3072, Note_on_c, 1, 69, 92
4, 3165, Note_off_c, 1, 69, 0
4, 3168, Note_on_c, 1, 68, 92
4, 3261, Note_off_c, 1, 68, 0
4, 3264, Note_on_c, 1, 66, 92
4, 3357, Note_off_c, 1, 66, 0
4, 3360, Note_on_c, 1, 64, 92
4, 3453, Note_off_c, 1, 64, 0
4, 3456, Note_on_c, 1, 66, 92
4, 3549, Note_off_c, 1, 66, 0
4, 3552, Note_on_c, 1, 64, 92
4, 3645, Note_off_c, 1, 64, 0
4, 3648, Note_on_c, 1, 63, 92
4, 3741, Note_off_c, 1, 63, 0
4, 3744, Note_on_c, 1, 61, 92
4, 3837, Note_off_c, 1, 61, 0
4, 3936, Note_on_c, 1, 59, 92
4, 4029, Note_off_c, 1, 59, 0
4, 4032, Note_on_c, 1, 63, 92
4, 4125, Note_off_c, 1, 63, 0
4, 4128, Note_on_c, 1, 66, 92
4, 4221, Note_off_c, 1, 66, 0
4, 4320, Note_on_c, 1, 59, 75
4, 4413, Note_off_c, 1, 59, 0
4, 4416, Note_on_c, 1, 64, 75
4, 4509, Note_off_c, 1, 64, 0
4, 4512, Note_on_c, 1, 68, 75
4, 4605, Note_off_c, 1, 68, 0
4, 4704, Note_on_c, 1, 59, 75
4, 4797, Note_off_c, 1, 59, 0
4, 4800, Note_on_c, 1, 63, 75
4, 4893, Note_off_c, 1, 63, 0
4, 4896, Note_on_c, 1, 66, 92
4, 4989, Note_off_c, 1, 66, 0
4, 5088, Note_on_c, 1, 68, 75
4, 5088, Note_on_c, 1, 71, 75
4, 5181, Note_off_c, 1, 71, 0
4, 5181, Note_off_c, 1, 68, 0
4, 5184, Note_on_c, 1, 73, 75
4, 5184, Note_on_c, 1, 69, 75
4, 5277, Note_off_c, 1, 69, 0
4, 5277, Note_off_c, 1, 73, 0
4, 5280, Note_on_c, 1, 71, 60
4, 5280, Note_on_c, 1, 68, 60
4, 5373, Note_off_c, 1, 68, 0
4, 5373, Note_off_c, 1, 71, 0
4, 5472, Note_on_c, 1, 68, 45
4, 5472, Note_on_c, 1, 71, 45
4, 5565, Note_off_c, 1, 71, 0
4, 5565, Note_off_c, 1, 68, 0
4, 5568, Note_on_c, 1, 69, 45
4, 5568, Note_on_c, 1, 66, 45
4, 5661, Note_off_c, 1, 66, 0
4, 5661, Note_off_c, 1, 69, 0
4, 5664, Note_on_c, 1, 68, 45
4, 5664, Note_on_c, 1, 64, 45
4, 5757, Note_off_c, 1, 64, 0
4, 5757, Note_off_c, 1, 68, 0
4, 5760, Note_on_c, 1, 56, 60
4, 5805, Note_off_c, 1, 56, 0
4, 5808, Note_on_c, 1, 68, 60
4, 5853, Note_off_c, 1, 68, 0
4, 5856, Note_on_c, 1, 56, 60
4, 5901, Note_off_c, 1, 56, 0
4, 5904, Note_on_c, 1, 68, 60
4, 5949, Note_off_c, 1, 68, 0
4, 5952, Note_on_c, 1, 56, 60
4, 5997, Note_off_c, 1, 56, 0
4, 6000, Note_on_c, 1, 68, 60
4, 6045, Note_off_c, 1, 68, 0
4, 6048, Note_on_c, 1, 56, 60
4, 6093, Note_off_c, 1, 56, 0
4, 6096, Note_on_c, 1, 68, 60
4, 6141, Note_off_c, 1, 68, 0
4, 6144, Note_on_c, 1, 61, 60
4, 6189, Note_off_c, 1, 61, 0
4, 6192, Note_on_c, 1, 68, 60
4, 6237, Note_off_c, 1, 68, 0
4, 6240, Note_on_c, 1, 61, 60
4, 6285, Note_off_c, 1, 61, 0
4, 6288, Note_on_c, 1, 68, 60
4, 6333, Note_off_c, 1, 68, 0
4, 6336, Note_on_c, 1, 61, 60
4, 6381, Note_off_c, 1, 61, 0
4, 6384, Note_on_c, 1, 68, 60
4, 6429, Note_off_c, 1, 68, 0
4, 6432, Note_on_c, 1, 61, 60
4, 6477, Note_off_c, 1, 61, 0
4, 6480, Note_on_c, 1, 68, 60
4, 6525, Note_off_c, 1, 68, 0
4, 6528, Note_on_c, 1, 54, 75
4, 6573, Note_off_c, 1, 54, 0
4, 6576, Note_on_c, 1, 66, 75
4, 6621, Note_off_c, 1, 66, 0
4, 6624, Note_on_c, 1, 54, 75
4, 6669, Note_off_c, 1, 54, 0
4, 6672, Note_on_c, 1, 66, 75
4, 6717, Note_off_c, 1, 66, 0
4, 6720, Note_on_c, 1, 54, 75
4, 6765, Note_off_c, 1, 54, 0
4, 6768, Note_on_c, 1, 66, 75
4, 6813, Note_off_c, 1, 66, 0
4, 6816, Note_on_c, 1, 54, 75
4, 6861, Note_off_c, 1, 54, 0
4, 6864, Note_on_c, 1, 66, 75
4, 6909, Note_off_c, 1, 66, 0
4, 6912, Note_on_c, 1, 59, 75
4, 6957, Note_off_c, 1, 59, 0
4, 6960, Note_on_c, 1, 66, 75
4, 7005, Note_off_c, 1, 66, 0
4, 7008, Note_on_c, 1, 59, 75
4, 7053, Note_off_c, 1, 59, 0
4, 7056, Note_on_c, 1, 66, 75
4, 7101, Note_off_c, 1, 66, 0
4, 7104, Note_on_c, 1, 59, 75
4, 7149, Note_off_c, 1, 59, 0
4, 7152, Note_on_c, 1, 66, 75
4, 7197, Note_off_c, 1, 66, 0
4, 7200, Note_on_c, 1, 59, 75
4, 7245, Note_off_c, 1, 59, 0
4, 7248, Note_on_c, 1, 66, 75
4, 7293, Note_off_c, 1, 66, 0
4, 7296, Note_on_c, 1, 47, 92
4, 7341, Note_off_c, 1, 47, 0
4, 7344, Note_on_c, 1, 59, 92
4, 7389, Note_off_c, 1, 59, 0
4, 7392, Note_on_c, 1, 47, 92
4, 7437, Note_off_c, 1, 47, 0
4, 7440, Note_on_c, 1, 59, 92
4, 7485, Note_off_c, 1, 59, 0
4, 7488, Note_on_c, 1, 47, 92
4, 7533, Note_off_c, 1, 47, 0
4, 7536, Note_on_c, 1, 59, 92
4, 7581, Note_off_c, 1, 59, 0
4, 7584, Note_on_c, 1, 47, 92
4, 7629, Note_off_c, 1, 47, 0
4, 7632, Note_on_c, 1, 59, 92
4, 7677, Note_off_c, 1, 59, 0
4, 7680, Note_on_c, 1, 52, 92
4, 7725, Note_off_c, 1, 52, 0
4, 7728, Note_on_c, 1, 59, 92
4, 7773, Note_off_c, 1, 59, 0
4, 7776, Note_on_c, 1, 52, 92
4, 7821, Note_off_c, 1, 52, 0
4, 7824, Note_on_c, 1, 59, 92
4, 7869, Note_off_c, 1, 59, 0
4, 7872, Note_on_c, 1, 52, 92
4, 7917, Note_off_c, 1, 52, 0
4, 7920, Note_on_c, 1, 59, 92
4, 7965, Note_off_c, 1, 59, 0
4, 7968, Note_on_c, 1, 52, 92
4, 8013, Note_off_c, 1, 52, 0
4, 8016, Note_on_c, 1, 59, 92
4, 8061, Note_off_c, 1, 59, 0
4, 8064, Note_on_c, 1, 57, 75
4, 8109, Note_off_c, 1, 57, 0
4, 8112, Note_on_c, 1, 64, 75
4, 8157, Note_off_c, 1, 64, 0
4, 8160, Note_on_c, 1, 57, 75
4, 8205, Note_off_c, 1, 57, 0
4, 8208, Note_on_c, 1, 64, 75
4, 8253, Note_off_c, 1, 64, 0
4, 8256, Note_on_c, 1, 56, 75
4, 8301, Note_off_c, 1, 56, 0
4, 8304, Note_on_c, 1, 64, 75
4, 8349, Note_off_c, 1, 64, 0
4, 8352, Note_on_c, 1, 56, 75
4, 8397, Note_off_c, 1, 56, 0
4, 8400, Note_on_c, 1, 64, 75
4, 8445, Note_off_c, 1, 64, 0
4, 8448, Note_on_c, 1, 54, 75
4, 8493, Note_off_c, 1, 54, 0
4, 8496, Note_on_c, 1, 63, 75
4, 8541, Note_off_c, 1, 63, 0
4, 8544, Note_on_c, 1, 57, 60
4, 8589, Note_off_c, 1, 57, 0
4, 8592, Note_on_c, 1, 63, 60
4, 8637, Note_off_c, 1, 63, 0
4, 8640, Note_on_c, 1, 52, 60
4, 8685, Note_off_c, 1, 52, 0
4, 8688, Note_on_c, 1, 59, 60
4, 8733, Note_off_c, 1, 59, 0
4, 8736, Note_on_c, 1, 56, 60
4, 8781, Note_off_c, 1, 56, 0
4, 8784, Note_on_c, 1, 59, 60
4, 8829, Note_off_c, 1, 59, 0
4, 8832, Note_on_c, 1, 57, 45
4, 8877, Note_off_c, 1, 57, 0
4, 8880, Note_on_c, 1, 64, 45
4, 8925, Note_off_c, 1, 64, 0
4, 8928, Note_on_c, 1, 57, 45
4, 8973, Note_off_c, 1, 57, 0
4, 8976, Note_on_c, 1, 64, 45
4, 9021, Note_off_c, 1, 64, 0
4, 9024, Note_on_c, 1, 56, 45
4, 9069, Note_off_c, 1, 56, 0
4, 9072, Note_on_c, 1, 64, 45
4, 9117, Note_off_c, 1, 64, 0
4, 9120, Note_on_c, 1, 56, 45
4, 9165, Note_off_c, 1, 56, 0
4, 9168, Note_on_c, 1, 64, 45
4, 9213, Note_off_c, 1, 64, 0
4, 9216, Note_on_c, 1, 54, 45
4, 9261, Note_off_c, 1, 54, 0
4, 9264, Note_on_c, 1, 63, 45
4, 9309, Note_off_c, 1, 63, 0
4, 9312, Note_on_c, 1, 57, 45
4, 9357, Note_off_c, 1, 57, 0
4, 9360, Note_on_c, 1, 63, 46
4, 9405, Note_off_c, 1, 63, 0
4, 9408, Note_on_c, 1, 52, 47
4, 9453, Note_off_c, 1, 52, 0
4, 9456, Note_on_c, 1, 59, 48
4, 9501, Note_off_c, 1, 59, 0
4, 9504, Note_on_c, 1, 56, 49
4, 9549, Note_off_c, 1, 56, 0
4, 9552, Note_on_c, 1, 59, 50
4, 9597, Note_off_c, 1, 59, 0
4, 9600, Note_on_c, 1, 47, 51
4, 9645, Note_off_c, 1, 47, 0
4, 9648, Note_on_c, 1, 59, 52
4, 9693, Note_off_c, 1, 59, 0
4, 9696, Note_on_c, 1, 51, 53
4, 9741, Note_off_c, 1, 51, 0
4, 9744, Note_on_c, 1, 59, 54
4, 9789, Note_off_c, 1, 59, 0
4, 9792, Note_on_c, 1, 47, 55
4, 9837, Note_off_c, 1, 47, 0
4, 9840, Note_on_c, 1, 59, 56
4, 9885, Note_off_c, 1, 59, 0
4, 9888, Note_on_c, 1, 51, 57
4, 9933, Note_off_c, 1, 51, 0
4, 9936, Note_on_c, 1, 59, 58
4, 9981, Note_off_c, 1, 59, 0
4, 9984, Note_on_c, 1, 47, 59
4, 10029, Note_off_c, 1, 47, 0
4, 10032, Note_on_c, 1, 59, 60
4, 10077, Note_off_c, 1, 59, 0
4, 10080, Note_on_c, 1, 52, 61
4, 10125, Note_off_c, 1, 52, 0
4, 10128, Note_on_c, 1, 59, 62
4, 10173, Note_off_c, 1, 59, 0
4, 10176, Note_on_c, 1, 47, 63
4, 10221, Note_off_c, 1, 47, 0
4, 10224, Note_on_c, 1, 59, 64
4, 10269, Note_off_c, 1, 59, 0
4, 10272, Note_on_c, 1, 52, 65
4, 10317, Note_off_c, 1, 52, 0
4, 10320, Note_on_c, 1, 59, 66
4, 10365, Note_off_c, 1, 59, 0
4, 10368, Note_on_c, 1, 47, 67
4, 10413, Note_off_c, 1, 47, 0
4, 10416, Note_on_c, 1, 59, 68
4, 10461, Note_off_c, 1, 59, 0
4, 10464, Note_on_c, 1, 54, 69
4, 10509, Note_off_c, 1, 54, 0
4, 10512, Note_on_c, 1, 59, 70
4, 10557, Note_off_c, 1, 59, 0
4, 10560, Note_on_c, 1, 47, 71
4, 10605, Note_off_c, 1, 47, 0
4, 10608, Note_on_c, 1, 59, 72
4, 10653, Note_off_c, 1, 59, 0
4, 10656, Note_on_c, 1, 54, 73
4, 10701, Note_off_c, 1, 54, 0
4, 10704, Note_on_c, 1, 59, 74
4, 10749, Note_off_c, 1, 59, 0
4, 10752, Note_on_c, 1, 47, 75
4, 10797, Note_off_c, 1, 47, 0
4, 10800, Note_on_c, 1, 59, 76
4, 10845, Note_off_c, 1, 59, 0
4, 10848, Note_on_c, 1, 54, 77
4, 10893, Note_off_c, 1, 54, 0
4, 10896, Note_on_c, 1, 59, 78
4, 10941, Note_off_c, 1, 59, 0
4, 10944, Note_on_c, 1, 47, 79
4, 10989, Note_off_c, 1, 47, 0
4, 10992, Note_on_c, 1, 59, 80
4, 11037, Note_off_c, 1, 59, 0
4, 11040, Note_on_c, 1, 54, 81
4, 11085, Note_off_c, 1, 54, 0
4, 11088, Note_on_c, 1, 59, 82
4, 11133, Note_off_c, 1, 59, 0
4, 11136, Note_on_c, 1, 52, 108
4, 11181, Note_off_c, 1, 52, 0
4, 11184, Note_on_c, 1, 59, 108
4, 11229, Note_off_c, 1, 59, 0
4, 11232, Note_on_c, 1, 56, 108
4, 11277, Note_off_c, 1, 56, 0
4, 11280, Note_on_c, 1, 59, 108
4, 11325, Note_off_c, 1, 59, 0
4, 11328, Note_on_c, 1, 51, 108
4, 11373, Note_off_c, 1, 51, 0
4, 11376, Note_on_c, 1, 59, 108
4, 11421, Note_off_c, 1, 59, 0
4, 11424, Note_on_c, 1, 54, 108
4, 11469, Note_off_c, 1, 54, 0
4, 11472, Note_on_c, 1, 59, 108
4, 11517, Note_off_c, 1, 59, 0
4, 11520, Note_on_c, 1, 52, 108
4, 11565, Note_off_c, 1, 52, 0
4, 11568, Note_on_c, 1, 59, 108
4, 11613, Note_off_c, 1, 59, 0
4, 11616, Note_on_c, 1, 56, 108
4, 11661, Note_off_c, 1, 56, 0
4, 11664, Note_on_c, 1, 59, 108
4, 11709, Note_off_c, 1, 59, 0
4, 11712, Note_on_c, 1, 54, 108
4, 11757, Note_off_c, 1, 54, 0
4, 11760, Note_on_c, 1, 59, 108
4, 11805, Note_off_c, 1, 59, 0
4, 11808, Note_on_c, 1, 57, 108
4, 11853, Note_off_c, 1, 57, 0
4, 11856, Note_on_c, 1, 59, 108
4, 11901, Note_off_c, 1, 59, 0
4, 11904, Note_on_c, 1, 52, 92
4, 11949, Note_off_c, 1, 52, 0
4, 11952, Note_on_c, 1, 59, 92
4, 11997, Note_off_c, 1, 59, 0
4, 12000, Note_on_c, 1, 56, 92
4, 12045, Note_off_c, 1, 56, 0
4, 12048, Note_on_c, 1, 59, 92
4, 12093, Note_off_c, 1, 59, 0
4, 12096, Note_on_c, 1, 51, 92
4, 12141, Note_off_c, 1, 51, 0
4, 12144, Note_on_c, 1, 59, 92
4, 12189, Note_off_c, 1, 59, 0
4, 12192, Note_on_c, 1, 54, 92
4, 12237, Note_off_c, 1, 54, 0
4, 12240, Note_on_c, 1, 59, 92
4, 12285, Note_off_c, 1, 59, 0
4, 12288, Note_on_c, 1, 52, 92
4, 12333, Note_off_c, 1, 52, 0
4, 12336, Note_on_c, 1, 59, 92
4, 12381, Note_off_c, 1, 59, 0
4, 12384, Note_on_c, 1, 56, 92
4, 12429, Note_off_c, 1, 56, 0
4, 12432, Note_on_c, 1, 59, 92
4, 12477, Note_off_c, 1, 59, 0
4, 12480, Note_on_c, 1, 54, 92
4, 12525, Note_off_c, 1, 54, 0
4, 12528, Note_on_c, 1, 59, 92
4, 12573, Note_off_c, 1, 59, 0
4, 12576, Note_on_c, 1, 57, 92
4, 12621, Note_off_c, 1, 57, 0
4, 12624, Note_on_c, 1, 59, 92
4, 12669, Note_off_c, 1, 59, 0
4, 12672, Note_on_c, 1, 56, 60
4, 12832, Note_off_c, 1, 56, 0
4, 13056, Note_on_c, 1, 57, 60
4, 13216, Note_off_c, 1, 57, 0
4, 13440, Note_on_c, 1, 56, 60
4, 13440, Note_on_c, 1, 47, 60
4, 13533, Note_off_c, 1, 47, 0
4, 13533, Note_off_c, 1, 56, 0
4, 13536, Note_on_c, 1, 47, 60
4, 13536, Note_on_c, 1, 56, 60
4, 13629, Note_off_c, 1, 56, 0
4, 13629, Note_off_c, 1, 47, 0
4, 13632, Note_on_c, 1, 54, 60
4, 13632, Note_on_c, 1, 47, 60
4, 13725, Note_off_c, 1, 47, 0
4, 13725, Note_off_c, 1, 54, 0
4, 13728, Note_on_c, 1, 54, 60
4, 13728, Note_on_c, 1, 47, 60
4, 13821, Note_off_c, 1, 47, 0
4, 13821, Note_off_c, 1, 54, 0
4, 13824, Note_on_c, 1, 52, 60
4, 13824, Note_on_c, 1, 40, 60
4, 13984, Note_off_c, 1, 40, 0
4, 13984, Note_off_c, 1, 52, 0
4, 14304, Note_on_c, 1, 40, 92
4, 14304, Note_on_c, 1, 52, 92
4, 14397, Note_off_c, 1, 52, 0
4, 14397, Note_off_c, 1, 40, 0
4, 14400, Note_on_c, 1, 55, 92
4, 14400, Note_on_c, 1, 43, 92
4, 14493, Note_off_c, 1, 43, 0
4, 14493, Note_off_c, 1, 55, 0
4, 14496, Note_on_c, 1, 52, 92
4, 14496, Note_on_c, 1, 40, 92
4, 14589, Note_off_c, 1, 40, 0
4, 14589, Note_off_c, 1, 52, 0
4, 14688, Note_on_c, 1, 59, 92
4, 14688, Note_on_c, 1, 47, 92
4, 14781, Note_off_c, 1, 47, 0
4, 14781, Note_off_c, 1, 59, 0
4, 14784, Note_on_c, 1, 63, 92
4, 14784, Note_on_c, 1, 51, 92
4, 14877, Note_off_c, 1, 51, 0
4, 14877, Note_off_c, 1, 63, 0
4, 14880, Note_on_c, 1, 59, 92
4, 14880, Note_on_c, 1, 47, 92
4, 14973, Note_off_c, 1, 47, 0
4, 14973, Note_off_c, 1, 59, 0
4, 15072, Note_on_c, 1, 47, 92
4, 15072, Note_on_c, 1, 59, 92
4, 15165, Note_off_c, 1, 59, 0
4, 15165, Note_off_c, 1, 47, 0
4, 15168, Note_on_c, 1, 63, 92
4, 15168, Note_on_c, 1, 51, 92
4, 15261, Note_off_c, 1, 51, 0
4, 15261, Note_off_c, 1, 63, 0
4, 15264, Note_on_c, 1, 59, 92
4, 15264, Note_on_c, 1, 47, 92
4, 15357, Note_off_c, 1, 47, 0
4, 15357, Note_off_c, 1, 59, 0
4, 15456, Note_on_c, 1, 52, 92
4, 15456, Note_on_c, 1, 40, 92
4, 15549, Note_off_c, 1, 40, 0
4, 15549, Note_off_c, 1, 52, 0
4, 15552, Note_on_c, 1, 55, 92
4, 15552, Note_on_c, 1, 43, 92
4, 15645, Note_off_c, 1, 43, 0
4, 15645, Note_off_c, 1, 55, 0
4, 15648, Note_on_c, 1, 52, 92
4, 15648, Note_on_c, 1, 40, 92
4, 15741, Note_off_c, 1, 40, 0
4, 15741, Note_off_c, 1, 52, 0
4, 15840, Note_on_c, 1, 45, 108
4, 15840, Note_on_c, 1, 57, 108
4, 15933, Note_off_c, 1, 57, 0
4, 15933, Note_off_c, 1, 45, 0
4, 15936, Note_on_c, 1, 54, 108
4, 15936, Note_on_c, 1, 42, 108
4, 16029, Note_off_c, 1, 42, 0
4, 16029, Note_off_c, 1, 54, 0
4, 16032, Note_on_c, 1, 50, 108
4, 16032, Note_on_c, 1, 38, 108
4, 16125, Note_off_c, 1, 38, 0
4, 16125, Note_off_c, 1, 50, 0
4, 16224, Note_on_c, 1, 55, 108
4, 16224, Note_on_c, 1, 43, 108
4, 16317, Note_off_c, 1, 43, 0
4, 16317, Note_off_c, 1, 55, 0
4, 16320, Note_on_c, 1, 52, 108
4, 16320, Note_on_c, 1, 40, 108
4, 16413, Note_off_c, 1, 40, 0
4, 16413, Note_off_c, 1, 52, 0
4, 16416, Note_on_c, 1, 48, 108
4, 16416, Note_on_c, 1, 36, 108
4, 16509, Note_off_c, 1, 36, 0
4, 16509, Note_off_c, 1, 48, 0
4, 16608, Note_on_c, 1, 54, 108
4, 16608, Note_on_c, 1, 42, 108
4, 16701, Note_off_c, 1, 42, 0
4, 16701, Note_off_c, 1, 54, 0
4, 16704, Note_on_c, 1, 51, 108
4, 16704, Note_on_c, 1, 39, 108
4, 16797, Note_off_c, 1, 39, 0
4, 16797, Note_off_c, 1, 51, 0
4, 16800, Note_on_c, 1, 47, 108
4, 16800, Note_on_c, 1, 35, 108
4, 16893, Note_off_c, 1, 35, 0
4, 16893, Note_off_c, 1, 47, 0
4, 16992, Note_on_c, 1, 52, 108
4, 16992, Note_on_c, 1, 40, 108
4, 17085, Note_off_c, 1, 40, 0
4, 17085, Note_off_c, 1, 52, 0
4, 17088, Note_on_c, 1, 55, 108
4, 17088, Note_on_c, 1, 43, 108
4, 17181, Note_off_c, 1, 43, 0
4, 17181, Note_off_c, 1, 55, 0
4, 17184, Note_on_c, 1, 52, 108
4, 17184, Note_on_c, 1, 40, 108
4, 17277, Note_off_c, 1, 40, 0
4, 17277, Note_off_c, 1, 52, 0
4, 17376, Note_on_c, 1, 48, 108
4, 17376, Note_on_c, 1, 36, 108
4, 17469, Note_off_c, 1, 36, 0
4, 17469, Note_off_c, 1, 48, 0
4, 17472, Note_on_c, 1, 52, 108
4, 17472, Note_on_c, 1, 40, 108
4, 17565, Note_off_c, 1, 40, 0
4, 17565, Note_off_c, 1, 52, 0
4, 17568, Note_on_c, 1, 48, 108
4, 17568, Note_on_c, 1, 36, 108
4, 17661, Note_off_c, 1, 36, 0
4, 17661, Note_off_c, 1, 48, 0
4, 17760, Note_on_c, 1, 48, 108
4, 17760, Note_on_c, 1, 36, 108
4, 17853, Note_off_c, 1, 36, 0
4, 17853, Note_off_c, 1, 48, 0
4, 17856, Note_on_c, 1, 47, 108
4, 17856, Note_on_c, 1, 35, 108
4, 17949, Note_off_c, 1, 35, 0
4, 17949, Note_off_c, 1, 47, 0
4, 17952, Note_on_c, 1, 46, 108
4, 17952, Note_on_c, 1, 34, 108
4, 18045, Note_off_c, 1, 34, 0
4, 18045, Note_off_c, 1, 46, 0
4, 18048, Note_on_c, 1, 47, 108
4, 18048, Note_on_c, 1, 35, 108
4, 18208, Note_off_c, 1, 35, 0
4, 18208, Note_off_c, 1, 47, 0
4, 18432, Note_on_c, 1, 52, 92
4, 18432, Note_on_c, 1, 40, 92
4, 18592, Note_off_c, 1, 40, 0
4, 18592, Note_off_c, 1, 52, 0
4, 18912, Note_on_c, 1, 47, 91
4, 18912, Note_on_c, 1, 59, 91
4, 19005, Note_off_c, 1, 59, 0
4, 19005, Note_off_c, 1, 47, 0
4, 19008, Note_on_c, 1, 63, 90
4, 19008, Note_on_c, 1, 51, 90
4, 19101, Note_off_c, 1, 51, 0
4, 19101, Note_off_c, 1, 63, 0
4, 19104, Note_on_c, 1, 59, 89
4, 19104, Note_on_c, 1, 47, 89
4, 19197, Note_off_c, 1, 47, 0
4, 19197, Note_off_c, 1, 59, 0
4, 19200, Note_on_c, 1, 47, 88
4, 19200, Note_on_c, 1, 35, 88
4, 19360, Note_off_c, 1, 35, 0
4, 19360, Note_off_c, 1, 47, 0
4, 19680, Note_on_c, 1, 40, 85
4, 19680, Note_on_c, 1, 52, 85
4, 19773, Note_off_c, 1, 52, 0
4, 19773, Note_off_c, 1, 40, 0
4, 19776, Note_on_c, 1, 56, 84
4, 19776, Note_on_c, 1, 44, 84
4, 19869, Note_off_c, 1, 44, 0
4, 19869, Note_off_c, 1, 56, 0
4, 19872, Note_on_c, 1, 52, 83
4, 19872, Note_on_c, 1, 40, 83
4, 19965, Note_off_c, 1, 40, 0
4, 19965, Note_off_c, 1, 52, 0
4, 19968, Note_on_c, 1, 56, 60
4, 20013, Note_off_c, 1, 56, 0
4, 20016, Note_on_c, 1, 64, 60
4, 20061, Note_off_c, 1, 64, 0
4, 20064, Note_on_c, 1, 59, 60
4, 20109, Note_off_c, 1, 59, 0
4, 20112, Note_on_c, 1, 64, 60
4, 20157, Note_off_c, 1, 64, 0
4, 20160, Note_on_c, 1, 56, 60
4, 20205, Note_off_c, 1, 56, 0
4, 20208, Note_on_c, 1, 64, 60
4, 20253, Note_off_c, 1, 64, 0
4, 20256, Note_on_c, 1, 59, 60
4, 20301, Note_off_c, 1, 59, 0
4, 20304, Note_on_c, 1, 64, 60
4, 20349, Note_off_c, 1, 64, 0
4, 20352, Note_on_c, 1, 57, 60
4, 20397, Note_off_c, 1, 57, 0
4, 20400, Note_on_c, 1, 64, 60
4, 20445, Note_off_c, 1, 64, 0
4, 20448, Note_on_c, 1, 61, 60
4, 20493, Note_off_c, 1, 61, 0
4, 20496, Note_on_c, 1, 64, 60
4, 20541, Note_off_c, 1, 64, 0
4, 20544, Note_on_c, 1, 57, 60
4, 20589, Note_off_c, 1, 57, 0
4, 20592, Note_on_c, 1, 64, 60
4, 20637, Note_off_c, 1, 64, 0
4, 20640, Note_on_c, 1, 61, 60
4, 20685, Note_off_c, 1, 61, 0
4, 20688, Note_on_c, 1, 64, 60
4, 20733, Note_off_c, 1, 64, 0
4, 20736, Note_on_c, 1, 59, 75
4, 20781, Note_off_c, 1, 59, 0
4, 20784, Note_on_c, 1, 68, 75
4, 20829, Note_off_c, 1, 68, 0
4, 20832, Note_on_c, 1, 64, 75
4, 20877, Note_off_c, 1, 64, 0
4, 20880, Note_on_c, 1, 68, 75
4, 20925, Note_off_c, 1, 68, 0
4, 20928, Note_on_c, 1, 59, 75
4, 20973, Note_off_c, 1, 59, 0
4, 20976, Note_on_c, 1, 68, 75
4, 21021, Note_off_c, 1, 68, 0
4, 21024, Note_on_c, 1, 64, 75
4, 21069, Note_off_c, 1, 64, 0
4, 21072, Note_on_c, 1, 68, 75
4, 21117, Note_off_c, 1, 68, 0
4, 21120, Note_on_c, 1, 61, 75
4, 21165, Note_off_c, 1, 61, 0
4, 21168, Note_on_c, 1, 68, 75
4, 21213, Note_off_c, 1, 68, 0
4, 21216, Note_on_c, 1, 64, 75
4, 21261, Note_off_c, 1, 64, 0
4, 21264, Note_on_c, 1, 68, 75
4, 21309, Note_off_c, 1, 68, 0
4, 21312, Note_on_c, 1, 61, 75
4, 21357, Note_off_c, 1, 61, 0
4, 21360, Note_on_c, 1, 68, 75
4, 21405, Note_off_c, 1, 68, 0
4, 21408, Note_on_c, 1, 64, 75
4, 21453, Note_off_c, 1, 64, 0
4, 21456, Note_on_c, 1, 68, 75
4, 21501, Note_off_c, 1, 68, 0
4, 21504, Note_on_c, 1, 56, 75
4, 21549, Note_off_c, 1, 56, 0
4, 21552, Note_on_c, 1, 64, 75
4, 21597, Note_off_c, 1, 64, 0
4, 21600, Note_on_c, 1, 59, 75
4, 21645, Note_off_c, 1, 59, 0
4, 21648, Note_on_c, 1, 64, 75
4, 21693, Note_off_c, 1, 64, 0
4, 21696, Note_on_c, 1, 56, 75
4, 21741, Note_off_c, 1, 56, 0
4, 21744, Note_on_c, 1, 64, 75
4, 21789, Note_off_c, 1, 64, 0
4, 21792, Note_on_c, 1, 59, 75
4, 21837, Note_off_c, 1, 59, 0
4, 21840, Note_on_c, 1, 64, 75
4, 21885, Note_off_c, 1, 64, 0
4, 21888, Note_on_c, 1, 57, 75
4, 21933, Note_off_c, 1, 57, 0
4, 21936, Note_on_c, 1, 64, 75
4, 21981, Note_off_c, 1, 64, 0
4, 21984, Note_on_c, 1, 61, 75
4, 22029, Note_off_c, 1, 61, 0
4, 22032, Note_on_c, 1, 64, 75
4, 22077, Note_off_c, 1, 64, 0
4, 22080, Note_on_c, 1, 57, 75
4, 22125, Note_off_c, 1, 57, 0
4, 22128, Note_on_c, 1, 64, 75
4, 22173, Note_off_c, 1, 64, 0
4, 22176, Note_on_c, 1, 61, 75
4, 22221, Note_off_c, 1, 61, 0
4, 22224, Note_on_c, 1, 64, 75
4, 22269, Note_off_c, 1, 64, 0
4, 22272, Note_on_c, 1, 59, 75
4, 22317, Note_off_c, 1, 59, 0
4, 22320, Note_on_c, 1, 68, 75
4, 22365, Note_off_c, 1, 68, 0
4, 22368, Note_on_c, 1, 64, 75
4, 22413, Note_off_c, 1, 64, 0
4, 22416, Note_on_c, 1, 68, 75
4, 22461, Note_off_c, 1, 68, 0
4, 22464, Note_on_c, 1, 59, 75
4, 22509, Note_off_c, 1, 59, 0
4, 22512, Note_on_c, 1, 69, 75
4, 22557, Note_off_c, 1, 69, 0
4, 22560, Note_on_c, 1, 66, 75
4, 22605, Note_off_c, 1, 66, 0
4, 22608, Note_on_c, 1, 69, 75
4, 22653, Note_off_c, 1, 69, 0
4, 22656, Note_on_c, 1, 68, 75
4, 22656, Note_on_c, 1, 64, 75
4, 22816, Note_off_c, 1, 64, 0
4, 22816, Note_off_c, 1, 68, 0
4, 22944, Note_on_c, 1, 59, 60
4, 23037, Note_off_c, 1, 59, 0
4, 23040, Note_on_c, 1, 52, 60
4, 23200, Note_off_c, 1, 52, 0
4, 23328, Note_on_c, 1, 47, 45
4, 23421, Note_off_c, 1, 47, 0
4, 23424, Note_on_c, 1, 40, 45
4, 23584, Note_off_c, 1, 40, 0
4, 23808, Control_c, 1, 10, 64
4, 23808, Note_on_c, 1, 61, 75
4, 23808, Note_on_c, 1, 57, 75
4, 23901, Note_off_c, 1, 57, 0
4, 23901, Note_off_c, 1, 61, 0
4, 23904, Note_on_c, 1, 61, 75
4, 23904, Note_on_c, 1, 57, 75
4, 23997, Note_off_c, 1, 57, 0
4, 23997, Note_off_c, 1, 61, 0
4, 24000, Note_on_c, 1, 61, 75
4, 24000, Note_on_c, 1, 57, 75
4, 24093, Note_off_c, 1, 57, 0
4, 24093, Note_off_c, 1, 61, 0
4, 24096, Note_on_c, 1, 61, 75
4, 24096, Note_on_c, 1, 57, 75
4, 24189, Note_off_c, 1, 57, 0
4, 24189, Note_off_c, 1, 61, 0
4, 24192, Note_on_c, 1, 62, 75
4, 24192, Note_on_c, 1, 57, 75
4, 24285, Note_off_c, 1, 57, 0
4, 24285, Note_off_c, 1, 62, 0
4, 24288, Note_on_c, 1, 61, 75
4, 24288, Note_on_c, 1, 57, 75
4, 24381, Note_off_c, 1, 57, 0
4, 24381, Note_off_c, 1, 61, 0
4, 24384, Note_on_c, 1, 61, 75
4, 24384, Note_on_c, 1, 57, 75
4, 24477, Note_off_c, 1, 57, 0
4, 24477, Note_off_c, 1, 61, 0
4, 24480, Note_on_c, 1, 61, 75
4, 24480, Note_on_c, 1, 57, 75
4, 24573, Note_off_c, 1, 57, 0
4, 24573, Note_off_c, 1, 61, 0
4, 24672, Note_on_c, 1, 52, 60
4, 24672, Note_on_c, 1, 59, 60
4, 24765, Note_off_c, 1, 59, 0
4, 24765, Note_off_c, 1, 52, 0
4, 24768, Note_on_c, 1, 57, 60
4, 24768, Note_on_c, 1, 52, 60
4, 24861, Note_off_c, 1, 52, 0
4, 24861, Note_off_c, 1, 57, 0
4, 24864, Note_on_c, 1, 56, 60
4, 24864, Note_on_c, 1, 52, 60
4, 24957, Note_off_c, 1, 52, 0
4, 24957, Note_off_c, 1, 56, 0
4, 25056, Note_on_c, 1, 61, 60
4, 25056, Note_on_c, 1, 57, 60
4, 25149, Note_off_c, 1, 57, 0
4, 25149, Note_off_c, 1, 61, 0
4, 25152, Note_on_c, 1, 64, 60
4, 25152, Note_on_c, 1, 61, 60
4, 25245, Note_off_c, 1, 61, 0
4, 25245, Note_off_c, 1, 64, 0
4, 25248, Note_on_c, 1, 61, 45
4, 25248, Note_on_c, 1, 57, 45
4, 25341, Note_off_c, 1, 57, 0
4, 25341, Note_off_c, 1, 61, 0
4, 25440, Note_on_c, 1, 52, 45
4, 25440, Note_on_c, 1, 59, 45
4, 25533, Note_off_c, 1, 59, 0
4, 25533, Note_off_c, 1, 52, 0
4, 25536, Note_on_c, 1, 57, 45
4, 25536, Note_on_c, 1, 52, 45
4, 25629, Note_off_c, 1, 52, 0
4, 25629, Note_off_c, 1, 57, 0
4, 25632, Note_on_c, 1, 56, 45
4, 25632, Note_on_c, 1, 52, 45
4, 25725, Note_off_c, 1, 52, 0
4, 25725, Note_off_c, 1, 56, 0
4, 25824, Note_on_c, 1, 57, 45
4, 25824, Note_on_c, 1, 61, 45
4, 25917, Note_off_c, 1, 61, 0
4, 25917, Note_off_c, 1, 57, 0
4, 25920, Note_on_c, 1, 64, 45
4, 25920, Note_on_c, 1, 61, 45
4, 26013, Note_off_c, 1, 61, 0
4, 26013, Note_off_c, 1, 64, 0
4, 26016, Note_on_c, 1, 61, 75
4, 26016, Note_on_c, 1, 57, 75
4, 26109, Note_off_c, 1, 57, 0
4, 26109, Note_off_c, 1, 61, 0
4, 26208, Note_on_c, 1, 69, 75
4, 26208, Note_on_c, 1, 71, 75
4, 26301, Note_off_c, 1, 71, 0
4, 26301, Note_off_c, 1, 69, 0
4, 26304, Note_on_c, 1, 71, 75
4, 26304, Note_on_c, 1, 68, 75
4, 26397, Note_off_c, 1, 68, 0
4, 26397, Note_off_c, 1, 71, 0
4, 26400, Note_on_c, 1, 71, 75
4, 26400, Note_on_c, 1, 68, 75
4, 26493, Note_off_c, 1, 68, 0
4, 26493, Note_off_c, 1, 71, 0
4, 26592, Note_on_c, 1, 69, 75
4, 26592, Note_on_c, 1, 71, 75
4, 26685, Note_off_c, 1, 71, 0
4, 26685, Note_off_c, 1, 69, 0
4, 26688, Note_on_c, 1, 71, 76
4, 26688, Note_on_c, 1, 68, 76
4, 26781, Note_off_c, 1, 68, 0
4, 26781, Note_off_c, 1, 71, 0
4, 26784, Note_on_c, 1, 71, 77
4, 26784, Note_on_c, 1, 68, 77
4, 26877, Note_off_c, 1, 68, 0
4, 26877, Note_off_c, 1, 71, 0
4, 26880, Note_on_c, 1, 69, 92
4, 26973, Note_off_c, 1, 69, 0
4, 26976, Note_on_c, 1, 68, 92
4, 27069, Note_off_c, 1, 68, 0
4, 27072, Note_on_c, 1, 66, 92
4, 27165, Note_off_c, 1, 66, 0
4, 27168, Note_on_c, 1, 64, 92
4, 27261, Note_off_c, 1, 64, 0
4, 27264, Note_on_c, 1, 66, 92
4, 27357, Note_off_c, 1, 66, 0
4, 27360, Note_on_c, 1, 64, 92
4, 27453, Note_off_c, 1, 64, 0
4, 27456, Note_on_c, 1, 63, 92
4, 27549, Note_off_c, 1, 63, 0
4, 27552, Note_on_c, 1, 61, 92
4, 27645, Note_off_c, 1, 61, 0
4, 27744, Note_on_c, 1, 59, 92
4, 27837, Note_off_c, 1, 59, 0
4, 27840, Note_on_c, 1, 63, 92
4, 27933, Note_off_c, 1, 63, 0
4, 27936, Note_on_c, 1, 66, 92
4, 28029, Note_off_c, 1, 66, 0
4, 28128, Note_on_c, 1, 59, 75
4, 28221, Note_off_c, 1, 59, 0
4, 28224, Note_on_c, 1, 64, 75
4, 28317, Note_off_c, 1, 64, 0
4, 28320, Note_on_c, 1, 68, 75
4, 28413, Note_off_c, 1, 68, 0
4, 28512, Note_on_c, 1, 59, 75
4, 28605, Note_off_c, 1, 59, 0
4, 28608, Note_on_c, 1, 63, 75
4, 28701, Note_off_c, 1, 63, 0
4, 28704, Note_on_c, 1, 66, 92
4, 28797, Note_off_c, 1, 66, 0
4, 28896, Note_on_c, 1, 68, 75
4, 28896, Note_on_c, 1, 71, 75
4, 28989, Note_off_c, 1, 71, 0
4, 28989, Note_off_c, 1, 68, 0
4, 28992, Note_on_c, 1, 73, 75
4, 28992, Note_on_c, 1, 69, 75
4, 29085, Note_off_c, 1, 69, 0
4, 29085, Note_off_c, 1, 73, 0
4, 29088, Note_on_c, 1, 71, 60
4, 29088, Note_on_c, 1, 68, 60
4, 29181, Note_off_c, 1, 68, 0
4, 29181, Note_off_c, 1, 71, 0
4, 29280, Note_on_c, 1, 68, 45
4, 29280, Note_on_c, 1, 71, 45
4, 29373, Note_off_c, 1, 71, 0
4, 29373, Note_off_c, 1, 68, 0
4, 29376, Note_on_c, 1, 69, 45
4, 29376, Note_on_c, 1, 66, 45
4, 29469, Note_off_c, 1, 66, 0
4, 29469, Note_off_c, 1, 69, 0
4, 29472, Note_on_c, 1, 68, 45
4, 29472, Note_on_c, 1, 64, 45
4, 29565, Note_off_c, 1, 64, 0
4, 29565, Note_off_c, 1, 68, 0
4, 29568, Note_on_c, 1, 56, 60
4, 29613, Note_off_c, 1, 56, 0
4, 29616, Note_on_c, 1, 68, 60
4, 29661, Note_off_c, 1, 68, 0
4, 29664, Note_on_c, 1, 56, 60
4, 29709, Note_off_c, 1, 56, 0
4, 29712, Note_on_c, 1, 68, 60
4, 29757, Note_off_c, 1, 68, 0
4, 29760, Note_on_c, 1, 56, 60
4, 29805, Note_off_c, 1, 56, 0
4, 29808, Note_on_c, 1, 68, 60
4, 29853, Note_off_c, 1, 68, 0
4, 29856, Note_on_c, 1, 56, 60
4, 29901, Note_off_c, 1, 56, 0
4, 29904, Note_on_c, 1, 68, 60
4, 29949, Note_off_c, 1, 68, 0
4, 29952, Note_on_c, 1, 61, 60
4, 29997, Note_off_c, 1, 61, 0
4, 30000, Note_on_c, 1, 68, 60
4, 30045, Note_off_c, 1, 68, 0
4, 30048, Note_on_c, 1, 61, 60
4, 30093, Note_off_c, 1, 61, 0
4, 30096, Note_on_c, 1, 68, 60
4, 30141, Note_off_c, 1, 68, 0
4, 30144, Note_on_c, 1, 61, 60
4, 30189, Note_off_c, 1, 61, 0
4, 30192, Note_on_c, 1, 68, 60
4, 30237, Note_off_c, 1, 68, 0
4, 30240, Note_on_c, 1, 61, 60
4, 30285, Note_off_c, 1, 61, 0
4, 30288, Note_on_c, 1, 68, 60
4, 30333, Note_off_c, 1, 68, 0
4, 30336, Note_on_c, 1, 54, 75
4, 30381, Note_off_c, 1, 54, 0
4, 30384, Note_on_c, 1, 66, 75
4, 30429, Note_off_c, 1, 66, 0
4, 30432, Note_on_c, 1, 54, 75
4, 30477, Note_off_c, 1, 54, 0
4, 30480, Note_on_c, 1, 66, 75
4, 30525, Note_off_c, 1, 66, 0
4, 30528, Note_on_c, 1, 54, 75
4, 30573, Note_off_c, 1, 54, 0
4, 30576, Note_on_c, 1, 66, 75
4, 30621, Note_off_c, 1, 66, 0
4, 30624, Note_on_c, 1, 54, 75
4, 30669, Note_off_c, 1, 54, 0
4, 30672, Note_on_c, 1, 66, 75
4, 30717, Note_off_c, 1, 66, 0
4, 30720, Note_on_c, 1, 59, 75
4, 30765, Note_off_c, 1, 59, 0
4, 30768, Note_on_c, 1, 66, 75
4, 30813, Note_off_c, 1, 66, 0
4, 30816, Note_on_c, 1, 59, 75
4, 30861, Note_off_c, 1, 59, 0
4, 30864, Note_on_c, 1, 66, 75
4, 30909, Note_off_c, 1, 66, 0
4, 30912, Note_on_c, 1, 59, 75
4, 30957, Note_off_c, 1, 59, 0
4, 30960, Note_on_c, 1, 66, 75
4, 31005, Note_off_c, 1, 66, 0
4, 31008, Note_on_c, 1, 59, 75
4, 31053, Note_off_c, 1, 59, 0
4, 31056, Note_on_c, 1, 66, 75
4, 31101, Note_off_c, 1, 66, 0
4, 31104, Note_on_c, 1, 47, 92
4, 31149, Note_off_c, 1, 47, 0
4, 31152, Note_on_c, 1, 59, 92
4, 31197, Note_off_c, 1, 59, 0
4, 31200, Note_on_c, 1, 47, 92
4, 31245, Note_off_c, 1, 47, 0
4, 31248, Note_on_c, 1, 59, 92
4, 31293, Note_off_c, 1, 59, 0
4, 31296, Note_on_c, 1, 47, 92
4, 31341, Note_off_c, 1, 47, 0
4, 31344, Note_on_c, 1, 59, 92
4, 31389, Note_off_c, 1, 59, 0
4, 31392, Note_on_c, 1, 47, 92
4, 31437, Note_off_c, 1, 47, 0
4, 31440, Note_on_c, 1, 59, 92
4, 31485, Note_off_c, 1, 59, 0
4, 31488, Note_on_c, 1, 52, 92
4, 31533, Note_off_c, 1, 52, 0
4, 31536, Note_on_c, 1, 59, 92
4, 31581, Note_off_c, 1, 59, 0
4, 31584, Note_on_c, 1, 52, 92
4, 31629, Note_off_c, 1, 52, 0
4, 31632, Note_on_c, 1, 59, 92
4, 31677, Note_off_c, 1, 59, 0
4, 31680, Note_on_c, 1, 52, 92
4, 31725, Note_off_c, 1, 52, 0
4, 31728, Note_on_c, 1, 59, 92
4, 31773, Note_off_c, 1, 59, 0
4, 31776, Note_on_c, 1, 52, 92
4, 31821, Note_off_c, 1, 52, 0
4, 31824, Note_on_c, 1, 59, 92
4, 31869, Note_off_c, 1, 59, 0
4, 31872, Note_on_c, 1, 57, 75
4, 31917, Note_off_c, 1, 57, 0
4, 31920, Note_on_c, 1, 64, 75
4, 31965, Note_off_c, 1, 64, 0
4, 31968, Note_on_c, 1, 57, 75
4, 32013, Note_off_c, 1, 57, 0
4, 32016, Note_on_c, 1, 64, 75
4, 32061, Note_off_c, 1, 64, 0
4, 32064, Note_on_c, 1, 56, 75
4, 32109, Note_off_c, 1, 56, 0
4, 32112, Note_on_c, 1, 64, 75
4, 32157, Note_off_c, 1, 64, 0
4, 32160, Note_on_c, 1, 56, 75
4, 32205, Note_off_c, 1, 56, 0
4, 32208, Note_on_c, 1, 64, 75
4, 32253, Note_off_c, 1, 64, 0
4, 32256, Note_on_c, 1, 54, 75
4, 32301, Note_off_c, 1, 54, 0
4, 32304, Note_on_c, 1, 63, 75
4, 32349, Note_off_c, 1, 63, 0
4, 32352, Note_on_c, 1, 57, 60
4, 32397, Note_off_c, 1, 57, 0
4, 32400, Note_on_c, 1, 63, 60
4, 32445, Note_off_c, 1, 63, 0
4, 32448, Note_on_c, 1, 52, 60
4, 32493, Note_off_c, 1, 52, 0
4, 32496, Note_on_c, 1, 59, 60
4, 32541, Note_off_c, 1, 59, 0
4, 32544, Note_on_c, 1, 56, 60
4, 32589, Note_off_c, 1, 56, 0
4, 32592, Note_on_c, 1, 59, 60
4, 32637, Note_off_c, 1, 59, 0
4, 32640, Note_on_c, 1, 57, 45
4, 32685, Note_off_c, 1, 57, 0
4, 32688, Note_on_c, 1, 64, 45
4, 32733, Note_off_c, 1, 64, 0
4, 32736, Note_on_c, 1, 57, 45
4, 32781, Note_off_c, 1, 57, 0
4, 32784, Note_on_c, 1, 64, 45
4, 32829, Note_off_c, 1, 64, 0
4, 32832, Note_on_c, 1, 56, 45
4, 32877, Note_off_c, 1, 56, 0
4, 32880, Note_on_c, 1, 64, 45
4, 32925, Note_off_c, 1, 64, 0
4, 32928, Note_on_c, 1, 56, 45
4, 32973, Note_off_c, 1, 56, 0
4, 32976, Note_on_c, 1, 64, 45
4, 33021, Note_off_c, 1, 64, 0
4, 33024, Note_on_c, 1, 54, 45
4, 33069, Note_off_c, 1, 54, 0
4, 33072, Note_on_c, 1, 63, 45
4, 33117, Note_off_c, 1, 63, 0
4, 33120, Note_on_c, 1, 57, 45
4, 33165, Note_off_c, 1, 57, 0
4, 33168, Note_on_c, 1, 63, 46
4, 33213, Note_off_c, 1, 63, 0
4, 33216, Note_on_c, 1, 52, 47
4, 33261, Note_off_c, 1, 52, 0
4, 33264, Note_on_c, 1, 59, 48
4, 33309, Note_off_c, 1, 59, 0
4, 33312, Note_on_c, 1, 56, 49
4, 33357, Note_off_c, 1, 56, 0
4, 33360, Note_on_c, 1, 59, 50
4, 33405, Note_off_c, 1, 59, 0
4, 33408, Note_on_c, 1, 47, 51
4, 33453, Note_off_c, 1, 47, 0
4, 33456, Note_on_c, 1, 59, 52
4, 33501, Note_off_c, 1, 59, 0
4, 33504, Note_on_c, 1, 51, 53
4, 33549, Note_off_c, 1, 51, 0
4, 33552, Note_on_c, 1, 59, 54
4, 33597, Note_off_c, 1, 59, 0
4, 33600, Note_on_c, 1, 47, 55
4, 33645, Note_off_c, 1, 47, 0
4, 33648, Note_on_c, 1, 59, 56
4, 33693, Note_off_c, 1, 59, 0
4, 33696, Note_on_c, 1, 51, 57
4, 33741, Note_off_c, 1, 51, 0
4, 33744, Note_on_c, 1, 59, 58
4, 33789, Note_off_c, 1, 59, 0
4, 33792, Note_on_c, 1, 47, 59
4, 33837, Note_off_c, 1, 47, 0
4, 33840, Note_on_c, 1, 59, 60
4, 33885, Note_off_c, 1, 59, 0
4, 33888, Note_on_c, 1, 52, 61
4, 33933, Note_off_c, 1, 52, 0
4, 33936, Note_on_c, 1, 59, 62
4, 33981, Note_off_c, 1, 59, 0
4, 33984, Note_on_c, 1, 47, 63
4, 34029, Note_off_c, 1, 47, 0
4, 34032, Note_on_c, 1, 59, 64
4, 34077, Note_off_c, 1, 59, 0
4, 34080, Note_on_c, 1, 52, 65
4, 34125, Note_off_c, 1, 52, 0
4, 34128, Note_on_c, 1, 59, 66
4, 34173, Note_off_c, 1, 59, 0
4, 34176, Note_on_c, 1, 47, 67
4, 34221, Note_off_c, 1, 47, 0
4, 34224, Note_on_c, 1, 59, 68
4, 34269, Note_off_c, 1, 59, 0
4, 34272, Note_on_c, 1, 54, 69
4, 34317, Note_off_c, 1, 54, 0
4, 34320, Note_on_c, 1, 59, 70
4, 34365, Note_off_c, 1, 59, 0
4, 34368, Note_on_c, 1, 47, 71
4, 34413, Note_off_c, 1, 47, 0
4, 34416, Note_on_c, 1, 59, 72
4, 34461, Note_off_c, 1, 59, 0
4, 34464, Note_on_c, 1, 54, 73
4, 34509, Note_off_c, 1, 54, 0
4, 34512, Note_on_c, 1, 59, 74
4, 34557, Note_off_c, 1, 59, 0
4, 34560, Note_on_c, 1, 47, 75
4, 34605, Note_off_c, 1, 47, 0
4, 34608, Note_on_c, 1, 59, 76
4, 34653, Note_off_c, 1, 59, 0
4, 34656, Note_on_c, 1, 54, 77
4, 34701, Note_off_c, 1, 54, 0
4, 34704, Note_on_c, 1, 59, 78
4, 34749, Note_off_c, 1, 59, 0
4, 34752, Note_on_c, 1, 47, 79
4, 34797, Note_off_c, 1, 47, 0
4, 34800, Note_on_c, 1, 59, 80
4, 34845, Note_off_c, 1, 59, 0
4, 34848, Note_on_c, 1, 54, 81
4, 34893, Note_off_c, 1, 54, 0
4, 34896, Note_on_c, 1, 59, 82
4, 34941, Note_off_c, 1, 59, 0
4, 34944, Note_on_c, 1, 52, 108
4, 34989, Note_off_c, 1, 52, 0
4, 34992, Note_on_c, 1, 59, 108
4, 35037, Note_off_c, 1, 59, 0
4, 35040, Note_on_c, 1, 56, 108
4, 35085, Note_off_c, 1, 56, 0
4, 35088, Note_on_c, 1, 59, 108
4, 35133, Note_off_c, 1, 59, 0
4, 35136, Note_on_c, 1, 51, 108
4, 35181, Note_off_c, 1, 51, 0
4, 35184, Note_on_c, 1, 59, 108
4, 35229, Note_off_c, 1, 59, 0
4, 35232, Note_on_c, 1, 54, 108
4, 35277, Note_off_c, 1, 54, 0
4, 35280, Note_on_c, 1, 59, 108
4, 35325, Note_off_c, 1, 59, 0
4, 35328, Note_on_c, 1, 52, 108
4, 35373, Note_off_c, 1, 52, 0
4, 35376, Note_on_c, 1, 59, 108
4, 35421, Note_off_c, 1, 59, 0
4, 35424, Note_on_c, 1, 56, 108
4, 35469, Note_off_c, 1, 56, 0
4, 35472, Note_on_c, 1, 59, 108
4, 35517, Note_off_c, 1, 59, 0
4, 35520, Note_on_c, 1, 54, 108
4, 35565, Note_off_c, 1, 54, 0
4, 35568, Note_on_c, 1, 59, 108
4, 35613, Note_off_c, 1, 59, 0
4, 35616, Note_on_c, 1, 57, 108
4, 35661, Note_off_c, 1, 57, 0
4, 35664, Note_on_c, 1, 59, 108
4, 35709, Note_off_c, 1, 59, 0
4, 35712, Note_on_c, 1, 52, 92
4, 35757, Note_off_c, 1, 52, 0
4, 35760, Note_on_c, 1, 59, 92
4, 35805, Note_off_c, 1, 59, 0
4, 35808, Note_on_c, 1, 56, 92
4, 35853, Note_off_c, 1, 56, 0
4, 35856, Note_on_c, 1, 59, 92
4, 35901, Note_off_c, 1, 59, 0
4, 35904, Note_on_c, 1, 51, 92
4, 35949, Note_off_c, 1, 51, 0
4, 35952, Note_on_c, 1, 59, 92
4, 35997, Note_off_c, 1, 59, 0
4, 36000, Note_on_c, 1, 54, 92
4, 36045, Note_off_c, 1, 54, 0
4, 36048, Note_on_c, 1, 59, 92
4, 36093, Note_off_c, 1, 59, 0
4, 36096, Note_on_c, 1, 52, 92
4, 36141, Note_off_c, 1, 52, 0
4, 36144, Note_on_c, 1, 59, 92
4, 36189, Note_off_c, 1, 59, 0
4, 36192, Note_on_c, 1, 56, 92
4, 36237, Note_off_c, 1, 56, 0
4, 36240, Note_on_c, 1, 59, 92
4, 36285, Note_off_c, 1, 59, 0
4, 36288, Note_on_c, 1, 54, 92
4, 36333, Note_off_c, 1, 54, 0
4, 36336, Note_on_c, 1, 59, 92
4, 36381, Note_off_c, 1, 59, 0
4, 36384, Note_on_c, 1, 57, 92
4, 36429, Note_off_c, 1, 57, 0
4, 36432, Note_on_c, 1, 59, 92
4, 36477, Note_off_c, 1, 59, 0
4, 36480, Note_on_c, 1, 56, 60
4, 36640, Note_off_c, 1, 56, 0
4, 36864, Note_on_c, 1, 57, 60
4, 37024, Note_off_c, 1, 57, 0
4, 37248, Note_on_c, 1, 56, 60
4, 37248, Note_on_c, 1, 47, 60
4, 37341, Note_off_c, 1, 47, 0
4, 37341, Note_off_c, 1, 56, 0
4, 37344, Note_on_c, 1, 47, 60
4, 37344, Note_on_c, 1, 56, 60
4, 37437, Note_off_c, 1, 56, 0
4, 37437, Note_off_c, 1, 47, 0
4, 37440, Note_on_c, 1, 54, 60
4, 37440, Note_on_c, 1, 47, 60
4, 37533, Note_off_c, 1, 47, 0
4, 37533, Note_off_c, 1, 54, 0
4, 37536, Note_on_c, 1, 54, 60
4, 37536, Note_on_c, 1, 47, 60
4, 37629, Note_off_c, 1, 47, 0
4, 37629, Note_off_c, 1, 54, 0
4, 37632, Note_on_c, 1, 52, 60
4, 37632, Note_on_c, 1, 40, 60
4, 37792, Note_off_c, 1, 40, 0
4, 37792, Note_off_c, 1, 52, 0
4, 38112, Note_on_c, 1, 40, 92
4, 38112, Note_on_c, 1, 52, 92
4, 38205, Note_off_c, 1, 52, 0
4, 38205, Note_off_c, 1, 40, 0
4, 38208, Note_on_c, 1, 55, 92
4, 38208, Note_on_c, 1, 43, 92
4, 38301, Note_off_c, 1, 43, 0
4, 38301, Note_off_c, 1, 55, 0
4, 38304, Note_on_c, 1, 52, 92
4, 38304, Note_on_c, 1, 40, 92
4, 38397, Note_off_c, 1, 40, 0
4, 38397, Note_off_c, 1, 52, 0
4, 38496, Note_on_c, 1, 59, 92
4, 38496, Note_on_c, 1, 47, 92
4, 38589, Note_off_c, 1, 47, 0
4, 38589, Note_off_c, 1, 59, 0
4, 38592, Note_on_c, 1, 63, 92
4, 38592, Note_on_c, 1, 51, 92
4, 38685, Note_off_c, 1, 51, 0
4, 38685, Note_off_c, 1, 63, 0
4, 38688, Note_on_c, 1, 59, 92
4, 38688, Note_on_c, 1, 47, 92
4, 38781, Note_off_c, 1, 47, 0
4, 38781, Note_off_c, 1, 59, 0
4, 38880, Note_on_c, 1, 47, 92
4, 38880, Note_on_c, 1, 59, 92
4, 38973, Note_off_c, 1, 59, 0
4, 38973, Note_off_c, 1, 47, 0
4, 38976, Note_on_c, 1, 63, 92
4, 38976, Note_on_c, 1, 51, 92
4, 39069, Note_off_c, 1, 51, 0
4, 39069, Note_off_c, 1, 63, 0
4, 39072, Note_on_c, 1, 59, 92
4, 39072, Note_on_c, 1, 47, 92
4, 39165, Note_off_c, 1, 47, 0
4, 39165, Note_off_c, 1, 59, 0
4, 39264, Note_on_c, 1, 52, 92
4, 39264, Note_on_c, 1, 40, 92
4, 39357, Note_off_c, 1, 40, 0
4, 39357, Note_off_c, 1, 52, 0
4, 39360, Note_on_c, 1, 55, 92
4, 39360, Note_on_c, 1, 43, 92
4, 39453, Note_off_c, 1, 43, 0
4, 39453, Note_off_c, 1, 55, 0
4, 39456, Note_on_c, 1, 52, 92
4, 39456, Note_on_c, 1, 40, 92
4, 39549, Note_off_c, 1, 40, 0
4, 39549, Note_off_c, 1, 52, 0
4, 39648, Note_on_c, 1, 45, 108
4, 39648, Note_on_c, 1, 57, 108
4, 39741, Note_off_c, 1, 57, 0
4, 39741, Note_off_c, 1, 45, 0
4, 39744, Note_on_c, 1, 54, 108
4, 39744, Note_on_c, 1, 42, 108
4, 39837, Note_off_c, 1, 42, 0
4, 39837, Note_off_c, 1, 54, 0
4, 39840, Note_on_c, 1, 50, 108
4, 39840, Note_on_c, 1, 38, 108
4, 39933, Note_off_c, 1, 38, 0
4, 39933, Note_off_c, 1, 50, 0
4, 40032, Note_on_c, 1, 55, 108
4, 40032, Note_on_c, 1, 43, 108
4, 40125, Note_off_c, 1, 43, 0
4, 40125, Note_off_c, 1, 55, 0
4, 40128, Note_on_c, 1, 52, 108
4, 40128, Note_on_c, 1, 40, 108
4, 40221, Note_off_c, 1, 40, 0
4, 40221, Note_off_c, 1, 52, 0
4, 40224, Note_on_c, 1, 48, 108
4, 40224, Note_on_c, 1, 36, 108
4, 40317, Note_off_c, 1, 36, 0
4, 40317, Note_off_c, 1, 48, 0
4, 40416, Note_on_c, 1, 54, 108
4, 40416, Note_on_c, 1, 42, 108
4, 40509, Note_off_c, 1, 42, 0
4, 40509, Note_off_c, 1, 54, 0
4, 40512, Note_on_c, 1, 51, 108
4, 40512, Note_on_c, 1, 39, 108
4, 40605, Note_off_c, 1, 39, 0
4, 40605, Note_off_c, 1, 51, 0
4, 40608, Note_on_c, 1, 47, 108
4, 40608, Note_on_c, 1, 35, 108
4, 40701, Note_off_c, 1, 35, 0
4, 40701, Note_off_c, 1, 47, 0
4, 40800, Note_on_c, 1, 52, 108
4, 40800, Note_on_c, 1, 40, 108
4, 40893, Note_off_c, 1, 40, 0
4, 40893, Note_off_c, 1, 52, 0
4, 40896, Note_on_c, 1, 55, 108
4, 40896, Note_on_c, 1, 43, 108
4, 40989, Note_off_c, 1, 43, 0
4, 40989, Note_off_c, 1, 55, 0
4, 40992, Note_on_c, 1, 52, 108
4, 40992, Note_on_c, 1, 40, 108
4, 41085, Note_off_c, 1, 40, 0
4, 41085, Note_off_c, 1, 52, 0
4, 41184, Note_on_c, 1, 48, 108
4, 41184, Note_on_c, 1, 36, 108
4, 41277, Note_off_c, 1, 36, 0
4, 41277, Note_off_c, 1, 48, 0
4, 41280, Note_on_c, 1, 52, 108
4, 41280, Note_on_c, 1, 40, 108
4, 41373, Note_off_c, 1, 40, 0
4, 41373, Note_off_c, 1, 52, 0
4, 41376, Note_on_c, 1, 48, 108
4, 41376, Note_on_c, 1, 36, 108
4, 41469, Note_off_c, 1, 36, 0
4, 41469, Note_off_c, 1, 48, 0
4, 41568, Note_on_c, 1, 48, 108
4, 41568, Note_on_c, 1, 36, 108
4, 41661, Note_off_c, 1, 36, 0
4, 41661, Note_off_c, 1, 48, 0
4, 41664, Note_on_c, 1, 47, 108
4, 41664, Note_on_c, 1, 35, 108
4, 41757, Note_off_c, 1, 35, 0
4, 41757, Note_off_c, 1, 47, 0
4, 41760, Note_on_c, 1, 46, 108
4, 41760, Note_on_c, 1, 34, 108
4, 41853, Note_off_c, 1, 34, 0
4, 41853, Note_off_c, 1, 46, 0
4, 41856, Note_on_c, 1, 47, 108
4, 41856, Note_on_c, 1, 35, 108
4, 42016, Note_off_c, 1, 35, 0
4, 42016, Note_off_c, 1, 47, 0
4, 42240, Note_on_c, 1, 52, 92
4, 42240, Note_on_c, 1, 40, 92
4, 42400, Note_off_c, 1, 40, 0
4, 42400, Note_off_c, 1, 52, 0
4, 42720, Note_on_c, 1, 47, 91
4, 42720, Note_on_c, 1, 59, 91
4, 42813, Note_off_c, 1, 59, 0
4, 42813, Note_off_c, 1, 47, 0
4, 42816, Note_on_c, 1, 63, 90
4, 42816, Note_on_c, 1, 51, 90
4, 42909, Note_off_c, 1, 51, 0
4, 42909, Note_off_c, 1, 63, 0
4, 42912, Note_on_c, 1, 59, 89
4, 42912, Note_on_c, 1, 47, 89
4, 43005, Note_off_c, 1, 47, 0
4, 43005, Note_off_c, 1, 59, 0
4, 43008, Note_on_c, 1, 47, 88
4, 43008, Note_on_c, 1, 35, 88
4, 43168, Note_off_c, 1, 35, 0
4, 43168, Note_off_c, 1, 47, 0
4, 43488, Note_on_c, 1, 40, 85
4, 43488, Note_on_c, 1, 52, 85
4, 43581, Note_off_c, 1, 52, 0
4, 43581, Note_off_c, 1, 40, 0
4, 43584, Note_on_c, 1, 56, 84
4, 43584, Note_on_c, 1, 44, 84
4, 43677, Note_off_c, 1, 44, 0
4, 43677, Note_off_c, 1, 56, 0
4, 43680, Note_on_c, 1, 52, 83
4, 43680, Note_on_c, 1, 40, 83
4, 43773, Note_off_c, 1, 40, 0
4, 43773, Note_off_c, 1, 52, 0
4, 43776, Note_on_c, 1, 56, 60
4, 43821, Note_off_c, 1, 56, 0
4, 43824, Note_on_c, 1, 64, 60
4, 43869, Note_off_c, 1, 64, 0
4, 43872, Note_on_c, 1, 59, 60
4, 43917, Note_off_c, 1, 59, 0
4, 43920, Note_on_c, 1, 64, 60
4, 43965, Note_off_c, 1, 64, 0
4, 43968, Note_on_c, 1, 56, 60
4, 44013, Note_off_c, 1, 56, 0
4, 44016, Note_on_c, 1, 64, 60
4, 44061, Note_off_c, 1, 64, 0
4, 44064, Note_on_c, 1, 59, 60
4, 44109, Note_off_c, 1, 59, 0
4, 44112, Note_on_c, 1, 64, 60
4, 44157, Note_off_c, 1, 64, 0
4, 44160, Note_on_c, 1, 57, 60
4, 44205, Note_off_c, 1, 57, 0
4, 44208, Note_on_c, 1, 64, 60
4, 44253, Note_off_c, 1, 64, 0
4, 44256, Note_on_c, 1, 61, 60
4, 44301, Note_off_c, 1, 61, 0
4, 44304, Note_on_c, 1, 64, 60
4, 44349, Note_off_c, 1, 64, 0
4, 44352, Note_on_c, 1, 57, 60
4, 44397, Note_off_c, 1, 57, 0
4, 44400, Note_on_c, 1, 64, 60
4, 44445, Note_off_c, 1, 64, 0
4, 44448, Note_on_c, 1, 61, 60
4, 44493, Note_off_c, 1, 61, 0
4, 44496, Note_on_c, 1, 64, 60
4, 44541, Note_off_c, 1, 64, 0
4, 44544, Note_on_c, 1, 59, 75
4, 44589, Note_off_c, 1, 59, 0
4, 44592, Note_on_c, 1, 68, 75
4, 44637, Note_off_c, 1, 68, 0
4, 44640, Note_on_c, 1, 64, 75
4, 44685, Note_off_c, 1, 64, 0
4, 44688, Note_on_c, 1, 68, 75
4, 44733, Note_off_c, 1, 68, 0
4, 44736, Note_on_c, 1, 59, 75
4, 44781, Note_off_c, 1, 59, 0
4, 44784, Note_on_c, 1, 68, 75
4, 44829, Note_off_c, 1, 68, 0
4, 44832, Note_on_c, 1, 64, 75
4, 44877, Note_off_c, 1, 64, 0
4, 44880, Note_on_c, 1, 68, 75
4, 44925, Note_off_c, 1, 68, 0
4, 44928, Note_on_c, 1, 61, 75
4, 44973, Note_off_c, 1, 61, 0
4, 44976, Note_on_c, 1, 68, 75
4, 45021, Note_off_c, 1, 68, 0
4, 45024, Note_on_c, 1, 64, 75
4, 45069, Note_off_c, 1, 64, 0
4, 45072, Note_on_c, 1, 68, 75
4, 45117, Note_off_c, 1, 68, 0
4, 45120, Note_on_c, 1, 61, 75
4, 45165, Note_off_c, 1, 61, 0
4, 45168, Note_on_c, 1, 68, 75
4, 45213, Note_off_c, 1, 68, 0
4, 45216, Note_on_c, 1, 64, 75
4, 45261, Note_off_c, 1, 64, 0
4, 45264, Note_on_c, 1, 68, 75
4, 45309, Note_off_c, 1, 68, 0
4, 45312, Note_on_c, 1, 56, 75
4, 45357, Note_off_c, 1, 56, 0
4, 45360, Note_on_c, 1, 64, 75
4, 45405, Note_off_c, 1, 64, 0
4, 45408, Note_on_c, 1, 59, 75
4, 45453, Note_off_c, 1, 59, 0
4, 45456, Note_on_c, 1, 64, 75
4, 45501, Note_off_c, 1, 64, 0
4, 45504, Note_on_c, 1, 56, 75
4, 45549, Note_off_c, 1, 56, 0
4, 45552, Note_on_c, 1, 64, 75
4, 45597, Note_off_c, 1, 64, 0
4, 45600, Note_on_c, 1, 59, 75
4, 45645, Note_off_c, 1, 59, 0
4, 45648, Note_on_c, 1, 64, 75
4, 45693, Note_off_c, 1, 64, 0
4, 45696, Note_on_c, 1, 57, 75
4, 45741, Note_off_c, 1, 57, 0
4, 45744, Note_on_c, 1, 64, 75
4, 45789, Note_off_c, 1, 64, 0
4, 45792, Note_on_c, 1, 61, 75
4, 45837, Note_off_c, 1, 61, 0
4, 45840, Note_on_c, 1, 64, 75
4, 45885, Note_off_c, 1, 64, 0
4, 45888, Note_on_c, 1, 57, 75
4, 45933, Note_off_c, 1, 57, 0
4, 45936, Note_on_c, 1, 64, 75
4, 45981, Note_off_c, 1, 64, 0
4, 45984, Note_on_c, 1, 61, 75
4, 46029, Note_off_c, 1, 61, 0
4, 46032, Note_on_c, 1, 64, 75
4, 46077, Note_off_c, 1, 64, 0
4, 46080, Note_on_c, 1, 59, 75
4, 46125, Note_off_c, 1, 59, 0
4, 46128, Note_on_c, 1, 68, 75
4, 46173, Note_off_c, 1, 68, 0
4, 46176, Note_on_c, 1, 64, 75
4, 46221, Note_off_c, 1, 64, 0
4, 46224, Note_on_c, 1, 68, 75
4, 46269, Note_off_c, 1, 68, 0
4, 46272, Note_on_c, 1, 59, 75
4, 46317, Note_off_c, 1, 59, 0
4, 46320, Note_on_c, 1, 69, 75
4, 46365, Note_off_c, 1, 69, 0
4, 46368, Note_on_c, 1, 66, 75
4, 46413, Note_off_c, 1, 66, 0
4, 46416, Note_on_c, 1, 69, 75
4, 46461, Note_off_c, 1, 69, 0
4, 46464, Note_on_c, 1, 68, 75
4, 46464, Note_on_c, 1, 64, 75
4, 46624, Note_off_c, 1, 64, 0
4, 46624, Note_off_c, 1, 68, 0
4, 46752, Note_on_c, 1, 59, 60
4, 46845, Note_off_c, 1, 59, 0
4, 46848, Note_on_c, 1, 52, 60
4, 47008, Note_off_c, 1, 52, 0
4, 47136, Note_on_c, 1, 47, 45
4, 47229, Note_off_c, 1, 47, 0
4, 47232, Note_on_c, 1, 40, 45
4, 47392, Note_off_c, 1, 40, 0
4, 47616, Note_on_c, 1, 56, 75
4, 47616, Note_on_c, 1, 52, 75
4, 47709, Note_off_c, 1, 52, 0
4, 47709, Note_off_c, 1, 56, 0
4, 47712, Note_on_c, 1, 56, 75
4, 47712, Note_on_c, 1, 52, 75
4, 47805, Note_off_c, 1, 52, 0
4, 47805, Note_off_c, 1, 56, 0
4, 47808, Note_on_c, 1, 56, 75
4, 47808, Note_on_c, 1, 52, 75
4, 47901, Note_off_c, 1, 52, 0
4, 47901, Note_off_c, 1, 56, 0
4, 47904, Note_on_c, 1, 56, 75
4, 47904, Note_on_c, 1, 52, 75
4, 47997, Note_off_c, 1, 52, 0
4, 47997, Note_off_c, 1, 56, 0
4, 48000, Note_on_c, 1, 57, 75
4, 48000, Note_on_c, 1, 52, 75
4, 48093, Note_off_c, 1, 52, 0
4, 48093, Note_off_c, 1, 57, 0
4, 48096, Note_on_c, 1, 56, 75
4, 48096, Note_on_c, 1, 52, 75
4, 48189, Note_off_c, 1, 52, 0
4, 48189, Note_off_c, 1, 56, 0
4, 48192, Note_on_c, 1, 56, 75
4, 48192, Note_on_c, 1, 52, 75
4, 48285, Note_off_c, 1, 52, 0
4, 48285, Note_off_c, 1, 56, 0
4, 48288, Note_on_c, 1, 56, 75
4, 48288, Note_on_c, 1, 52, 75
4, 48381, Note_off_c, 1, 52, 0
4, 48381, Note_off_c, 1, 56, 0
4, 48480, Note_on_c, 1, 47, 75
4, 48480, Note_on_c, 1, 54, 75
4, 48573, Note_off_c, 1, 54, 0
4, 48573, Note_off_c, 1, 47, 0
4, 48576, Note_on_c, 1, 52, 75
4, 48576, Note_on_c, 1, 47, 75
4, 48669, Note_off_c, 1, 47, 0
4, 48669, Note_off_c, 1, 52, 0
4, 48672, Note_on_c, 1, 51, 75
4, 48672, Note_on_c, 1, 47, 75
4, 48765, Note_off_c, 1, 47, 0
4, 48765, Note_off_c, 1, 51, 0
4, 48864, Note_on_c, 1, 52, 60
4, 48864, Note_on_c, 1, 56, 60
4, 48957, Note_off_c, 1, 56, 0
4, 48957, Note_off_c, 1, 52, 0
4, 48960, Note_on_c, 1, 59, 60
4, 48960, Note_on_c, 1, 56, 60
4, 49053, Note_off_c, 1, 56, 0
4, 49053, Note_off_c, 1, 59, 0
4, 49056, Note_on_c, 1, 56, 45
4, 49056, Note_on_c, 1, 52, 45
4, 49149, Note_off_c, 1, 52, 0
4, 49149, Note_off_c, 1, 56, 0
4, 49248, Note_on_c, 1, 47, 45
4, 49248, Note_on_c, 1, 54, 45
4, 49341, Note_off_c, 1, 54, 0
4, 49341, Note_off_c, 1, 47, 0
4, 49344, Note_on_c, 1, 52, 45
4, 49344, Note_on_c, 1, 47, 45
4, 49437, Note_off_c, 1, 47, 0
4, 49437, Note_off_c, 1, 52, 0
4, 49440, Note_on_c, 1, 51, 45
4, 49440, Note_on_c, 1, 47, 45
4, 49533, Note_off_c, 1, 47, 0
4, 49533, Note_off_c, 1, 51, 0
4, 49632, Note_on_c, 1, 56, 45
4, 49632, Note_on_c, 1, 52, 45
4, 49725, Note_off_c, 1, 52, 0
4, 49725, Note_off_c, 1, 56, 0
4, 49728, Note_on_c, 1, 59, 45
4, 49728, Note_on_c, 1, 56, 45
4, 49821, Note_off_c, 1, 56, 0
4, 49821, Note_off_c, 1, 59, 0
4, 49824, Note_on_c, 1, 56, 45
4, 49824, Note_on_c, 1, 52, 45
4, 49917, Note_off_c, 1, 52, 0
4, 49917, Note_off_c, 1, 56, 0
4, 50016, Note_on_c, 1, 52, 92
4, 50016, Note_on_c, 1, 64, 92
4, 50109, Note_off_c, 1, 64, 0
4, 50109, Note_off_c, 1, 52, 0
4, 50112, Note_on_c, 1, 62, 92
4, 50112, Note_on_c, 1, 50, 92
4, 50205, Note_off_c, 1, 50, 0
4, 50205, Note_off_c, 1, 62, 0
4, 50208, Note_on_c, 1, 61, 92
4, 50208, Note_on_c, 1, 49, 92
4, 50301, Note_off_c, 1, 49, 0
4, 50301, Note_off_c, 1, 61, 0
4, 50304, Note_on_c, 1, 59, 92
4, 50304, Note_on_c, 1, 47, 92
4, 50397, Note_off_c, 1, 47, 0
4, 50397, Note_off_c, 1, 59, 0
4, 50400, Note_on_c, 1, 58, 92
4, 50400, Note_on_c, 1, 46, 92
4, 50493, Note_off_c, 1, 46, 0
4, 50493, Note_off_c, 1, 58, 0
4, 50496, Note_on_c, 1, 59, 92
4, 50496, Note_on_c, 1, 47, 92
4, 50656, Note_off_c, 1, 47, 0
4, 50656, Note_off_c, 1, 59, 0
4, 50784, Note_on_c, 1, 50, 75
4, 50784, Note_on_c, 1, 62, 75
4, 50877, Note_off_c, 1, 62, 0
4, 50877, Note_off_c, 1, 50, 0
4, 50880, Note_on_c, 1, 61, 75
4, 50880, Note_on_c, 1, 49, 75
4, 50973, Note_off_c, 1, 49, 0
4, 50973, Note_off_c, 1, 61, 0
4, 50976, Note_on_c, 1, 59, 75
4, 50976, Note_on_c, 1, 47, 75
4, 51069, Note_off_c, 1, 47, 0
4, 51069, Note_off_c, 1, 59, 0
4, 51072, Note_on_c, 1, 57, 75
4, 51072, Note_on_c, 1, 45, 75
4, 51165, Note_off_c, 1, 45, 0
4, 51165, Note_off_c, 1, 57, 0
4, 51168, Note_on_c, 1, 56, 75
4, 51168, Note_on_c, 1, 44, 75
4, 51261, Note_off_c, 1, 44, 0
4, 51261, Note_off_c, 1, 56, 0
4, 51264, Note_on_c, 1, 57, 75
4, 51264, Note_on_c, 1, 45, 75
4, 51424, Note_off_c, 1, 45, 0
4, 51424, Note_off_c, 1, 57, 0
4, 51456, Note_on_c, 1, 52, 92
4, 51456, Note_on_c, 1, 40, 92
4, 51616, Note_off_c, 1, 40, 0
4, 51616, Note_off_c, 1, 52, 0
4, 51840, Note_on_c, 1, 52, 75
4, 51933, Note_off_c, 1, 52, 0
4, 51936, Note_on_c, 1, 59, 75
4, 52029, Note_off_c, 1, 59, 0
4, 52032, Note_on_c, 1, 57, 75
4, 52125, Note_off_c, 1, 57, 0
4, 52128, Note_on_c, 1, 56, 75
4, 52221, Note_off_c, 1, 56, 0
4, 52224, Note_on_c, 1, 57, 92
4, 52224, Note_on_c, 1, 52, 92
4, 52384, Note_off_c, 1, 52, 0
4, 52384, Note_off_c, 1, 57, 0
4, 52608, Note_on_c, 1, 52, 75
4, 52701, Note_off_c, 1, 52, 0
4, 52704, Note_on_c, 1, 61, 75
4, 52797, Note_off_c, 1, 61, 0
4, 52800, Note_on_c, 1, 59, 75
4, 52893, Note_off_c, 1, 59, 0
4, 52896, Note_on_c, 1, 57, 75
4, 52989, Note_off_c, 1, 57, 0
4, 53088, Note_on_c, 1, 69, 75
4, 53088, Note_on_c, 1, 66, 75
4, 53181, Note_off_c, 1, 66, 0
4, 53181, Note_off_c, 1, 69, 0
4, 53184, Note_on_c, 1, 69, 75
4, 53184, Note_on_c, 1, 66, 75
4, 53277, Note_off_c, 1, 66, 0
4, 53277, Note_off_c, 1, 69, 0
4, 53280, Note_on_c, 1, 69, 75
4, 53280, Note_on_c, 1, 66, 75
4, 53373, Note_off_c, 1, 66, 0
4, 53373, Note_off_c, 1, 69, 0
4, 53472, Note_on_c, 1, 71, 75
4, 53472, Note_on_c, 1, 68, 75
4, 53565, Note_off_c, 1, 68, 0
4, 53565, Note_off_c, 1, 71, 0
4, 53568, Note_on_c, 1, 71, 75
4, 53568, Note_on_c, 1, 68, 75
4, 53661, Note_off_c, 1, 68, 0
4, 53661, Note_off_c, 1, 71, 0
4, 53664, Note_on_c, 1, 71, 75
4, 53664, Note_on_c, 1, 68, 75
4, 53757, Note_off_c, 1, 68, 0
4, 53757, Note_off_c, 1, 71, 0
4, 53760, Note_on_c, 1, 69, 45
4, 53853, Note_off_c, 1, 69, 0
4, 53856, Note_on_c, 1, 64, 45
4, 53949, Note_off_c, 1, 64, 0
4, 53952, Note_on_c, 1, 71, 45
4, 54045, Note_off_c, 1, 71, 0
4, 54048, Note_on_c, 1, 64, 45
4, 54141, Note_off_c, 1, 64, 0
4, 54144, Note_on_c, 1, 69, 45
4, 54237, Note_off_c, 1, 69, 0
4, 54240, Note_on_c, 1, 64, 45
4, 54333, Note_off_c, 1, 64, 0
4, 54336, Note_on_c, 1, 69, 45
4, 54429, Note_off_c, 1, 69, 0
4, 54432, Note_on_c, 1, 64, 45
4, 54525, Note_off_c, 1, 64, 0
4, 54528, Note_on_c, 1, 69, 75
4, 54621, Note_off_c, 1, 69, 0
4, 54624, Note_on_c, 1, 64, 75
4, 54717, Note_off_c, 1, 64, 0
4, 54720, Note_on_c, 1, 71, 75
4, 54813, Note_off_c, 1, 71, 0
4, 54816, Note_on_c, 1, 64, 75
4, 54909, Note_off_c, 1, 64, 0
4, 54912, Note_on_c, 1, 68, 75
4, 55005, Note_off_c, 1, 68, 0
4, 55008, Note_on_c, 1, 64, 75
4, 55101, Note_off_c, 1, 64, 0
4, 55104, Note_on_c, 1, 69, 75
4, 55197, Note_off_c, 1, 69, 0
4, 55200, Note_on_c, 1, 66, 75
4, 55293, Note_off_c, 1, 66, 0
4, 55296, Note_on_c, 1, 68, 75
4, 55389, Note_off_c, 1, 68, 0
4, 55392, Note_on_c, 1, 65, 75
4, 55485, Note_off_c, 1, 65, 0
4, 55488, Note_on_c, 1, 66, 75
4, 55581, Note_off_c, 1, 66, 0
4, 55584, Note_on_c, 1, 60, 75
4, 55677, Note_off_c, 1, 60, 0
4, 55680, Note_on_c, 1, 61, 75
4, 55840, Note_off_c, 1, 61, 0
4, 56064, Note_on_c, 1, 61, 92
4, 56064, Note_on_c, 1, 49, 92
4, 56224, Note_off_c, 1, 49, 0
4, 56224, Note_off_c, 1, 61, 0
4, 56448, Note_on_c, 1, 61, 75
4, 56541, Note_off_c, 1, 61, 0
4, 56544, Note_on_c, 1, 68, 75
4, 56637, Note_off_c, 1, 68, 0
4, 56640, Note_on_c, 1, 66, 75
4, 56733, Note_off_c, 1, 66, 0
4, 56736, Note_on_c, 1, 65, 75
4, 56829, Note_off_c, 1, 65, 0
4, 56832, Note_on_c, 1, 66, 75
4, 56832, Note_on_c, 1, 61, 75
4, 56992, Note_off_c, 1, 61, 0
4, 56992, Note_off_c, 1, 66, 0
4, 57216, Note_on_c, 1, 61, 75
4, 57309, Note_off_c, 1, 61, 0
4, 57312, Note_on_c, 1, 69, 75
4, 57405, Note_off_c, 1, 69, 0
4, 57408, Note_on_c, 1, 68, 75
4, 57501, Note_off_c, 1, 68, 0
4, 57504, Note_on_c, 1, 66, 75
4, 57597, Note_off_c, 1, 66, 0
4, 57600, Note_on_c, 1, 54, 75
4, 57600, Note_on_c, 1, 42, 75
4, 57760, Note_off_c, 1, 42, 0
4, 57760, Note_off_c, 1, 54, 0
4, 57984, Note_on_c, 1, 54, 75
4, 58077, Note_off_c, 1, 54, 0
4, 58080, Note_on_c, 1, 61, 75
4, 58173, Note_off_c, 1, 61, 0
4, 58176, Note_on_c, 1, 59, 75
4, 58269, Note_off_c, 1, 59, 0
4, 58272, Note_on_c, 1, 58, 75
4, 58365, Note_off_c, 1, 58, 0
4, 58368, Note_on_c, 1, 59, 75
4, 58368, Note_on_c, 1, 54, 75
4, 58528, Note_off_c, 1, 54, 0
4, 58528, Note_off_c, 1, 59, 0
4, 58752, Note_on_c, 1, 54, 75
4, 58845, Note_off_c, 1, 54, 0
4, 58848, Note_on_c, 1, 62, 75
4, 58941, Note_off_c, 1, 62, 0
4, 58944, Note_on_c, 1, 61, 75
4, 59037, Note_off_c, 1, 61, 0
4, 59040, Note_on_c, 1, 59, 75
4, 59133, Note_off_c, 1, 59, 0
4, 59136, Note_on_c, 1, 47, 92
4, 59136, Note_on_c, 1, 35, 92
4, 59296, Note_off_c, 1, 35, 0
4, 59296, Note_off_c, 1, 47, 0
4, 59520, Note_on_c, 1, 59, 75
4, 59613, Note_off_c, 1, 59, 0
4, 59616, Note_on_c, 1, 66, 75
4, 59709, Note_off_c, 1, 66, 0
4, 59712, Note_on_c, 1, 64, 75
4, 59805, Note_off_c, 1, 64, 0
4, 59808, Note_on_c, 1, 63, 75
4, 59901, Note_off_c, 1, 63, 0
4, 59904, Note_on_c, 1, 64, 75
4, 59904, Note_on_c, 1, 59, 75
4, 60064, Note_off_c, 1, 59, 0
4, 60064, Note_off_c, 1, 64, 0
4, 60288, Note_on_c, 1, 59, 75
4, 60381, Note_off_c, 1, 59, 0
4, 60384, Note_on_c, 1, 68, 75
4, 60477, Note_off_c, 1, 68, 0
4, 60480, Note_on_c, 1, 66, 75
4, 60573, Note_off_c, 1, 66, 0
4, 60576, Note_on_c, 1, 64, 75
4, 60669, Note_off_c, 1, 64, 0
4, 60672, Note_on_c, 1, 52, 75
4, 60672, Note_on_c, 1, 40, 75
4, 60832, Note_off_c, 1, 40, 0
4, 60832, Note_off_c, 1, 52, 0
4, 61056, Note_on_c, 1, 52, 75
4, 61149, Note_off_c, 1, 52, 0
4, 61152, Note_on_c, 1, 59, 75
4, 61245, Note_off_c, 1, 59, 0
4, 61248, Note_on_c, 1, 57, 75
4, 61341, Note_off_c, 1, 57, 0
4, 61344, Note_on_c, 1, 56, 75
4, 61437, Note_off_c, 1, 56, 0
4, 61440, Note_on_c, 1, 57, 75
4, 61440, Note_on_c, 1, 52, 75
4, 61600, Note_off_c, 1, 52, 0
4, 61600, Note_off_c, 1, 57, 0
4, 61824, Note_on_c, 1, 52, 75
4, 61917, Note_off_c, 1, 52, 0
4, 61920, Note_on_c, 1, 61, 75
4, 62013, Note_off_c, 1, 61, 0
4, 62016, Note_on_c, 1, 59, 75
4, 62109, Note_off_c, 1, 59, 0
4, 62112, Note_on_c, 1, 57, 75
4, 62205, Note_off_c, 1, 57, 0
4, 62208, Note_on_c, 1, 62, 75
4, 62253, Note_off_c, 1, 62, 0
4, 62256, Note_on_c, 1, 69, 75
4, 62301, Note_off_c, 1, 69, 0
4, 62304, Note_on_c, 1, 66, 75
4, 62349, Note_off_c, 1, 66, 0
4, 62352, Note_on_c, 1, 69, 75
4, 62397, Note_off_c, 1, 69, 0
4, 62400, Note_on_c, 1, 61, 75
4, 62445, Note_off_c, 1, 61, 0
4, 62448, Note_on_c, 1, 69, 75
4, 62493, Note_off_c, 1, 69, 0
4, 62496, Note_on_c, 1, 64, 75
4, 62541, Note_off_c, 1, 64, 0
4, 62544, Note_on_c, 1, 69, 75
4, 62589, Note_off_c, 1, 69, 0
4, 62592, Note_on_c, 1, 59, 75
4, 62637, Note_off_c, 1, 59, 0
4, 62640, Note_on_c, 1, 68, 75
4, 62685, Note_off_c, 1, 68, 0
4, 62688, Note_on_c, 1, 62, 75
4, 62733, Note_off_c, 1, 62, 0
4, 62736, Note_on_c, 1, 68, 75
4, 62781, Note_off_c, 1, 68, 0
4, 62784, Note_on_c, 1, 57, 75
4, 62829, Note_off_c, 1, 57, 0
4, 62832, Note_on_c, 1, 64, 75
4, 62877, Note_off_c, 1, 64, 0
4, 62880, Note_on_c, 1, 61, 75
4, 62925, Note_off_c, 1, 61, 0
4, 62928, Note_on_c, 1, 64, 75
4, 62973, Note_off_c, 1, 64, 0
4, 62976, Note_on_c, 1, 62, 45
4, 63021, Note_off_c, 1, 62, 0
4, 63024, Note_on_c, 1, 69, 45
4, 63069, Note_off_c, 1, 69, 0
4, 63072, Note_on_c, 1, 66, 45
4, 63117, Note_off_c, 1, 66, 0
4, 63120, Note_on_c, 1, 69, 45
4, 63165, Note_off_c, 1, 69, 0
4, 63168, Note_on_c, 1, 61, 45
4, 63213, Note_off_c, 1, 61, 0
4, 63216, Note_on_c, 1, 69, 45
4, 63261, Note_off_c, 1, 69, 0
4, 63264, Note_on_c, 1, 64, 45
4, 63309, Note_off_c, 1, 64, 0
4, 63312, Note_on_c, 1, 69, 45
4, 63357, Note_off_c, 1, 69, 0
4, 63360, Note_on_c, 1, 59, 45
4, 63405, Note_off_c, 1, 59, 0
4, 63408, Note_on_c, 1, 68, 46
4, 63453, Note_off_c, 1, 68, 0
4, 63456, Note_on_c, 1, 62, 47
4, 63501, Note_off_c, 1, 62, 0
4, 63504, Note_on_c, 1, 68, 48
4, 63549, Note_off_c, 1, 68, 0
4, 63552, Note_on_c, 1, 57, 49
4, 63597, Note_off_c, 1, 57, 0
4, 63600, Note_on_c, 1, 64, 50
4, 63645, Note_off_c, 1, 64, 0
4, 63648, Note_on_c, 1, 61, 51
4, 63693, Note_off_c, 1, 61, 0
4, 63696, Note_on_c, 1, 64, 52
4, 63741, Note_off_c, 1, 64, 0
4, 63744, Note_on_c, 1, 52, 53
4, 63789, Note_off_c, 1, 52, 0
4, 63792, Note_on_c, 1, 64, 54
4, 63837, Note_off_c, 1, 64, 0
4, 63840, Note_on_c, 1, 56, 55
4, 63885, Note_off_c, 1, 56, 0
4, 63888, Note_on_c, 1, 64, 56
4, 63933, Note_off_c, 1, 64, 0
4, 63936, Note_on_c, 1, 52, 57
4, 63981, Note_off_c, 1, 52, 0
4, 63984, Note_on_c, 1, 64, 58
4, 64029, Note_off_c, 1, 64, 0
4, 64032, Note_on_c, 1, 56, 59
4, 64077, Note_off_c, 1, 56, 0
4, 64080, Note_on_c, 1, 64, 60
4, 64125, Note_off_c, 1, 64, 0
4, 64128, Note_on_c, 1, 52, 61
4, 64173, Note_off_c, 1, 52, 0
4, 64176, Note_on_c, 1, 64, 62
4, 64221, Note_off_c, 1, 64, 0
4, 64224, Note_on_c, 1, 57, 63
4, 64269, Note_off_c, 1, 57, 0
4, 64272, Note_on_c, 1, 64, 64
4, 64317, Note_off_c, 1, 64, 0
4, 64320, Note_on_c, 1, 52, 65
4, 64365, Note_off_c, 1, 52, 0
4, 64368, Note_on_c, 1, 64, 66
4, 64413, Note_off_c, 1, 64, 0
4, 64416, Note_on_c, 1, 57, 67
4, 64461, Note_off_c, 1, 57, 0
4, 64464, Note_on_c, 1, 64, 68
4, 64509, Note_off_c, 1, 64, 0
4, 64512, Note_on_c, 1, 52, 69
4, 64557, Note_off_c, 1, 52, 0
4, 64560, Note_on_c, 1, 64, 70
4, 64605, Note_off_c, 1, 64, 0
4, 64608, Note_on_c, 1, 59, 71
4, 64653, Note_off_c, 1, 59, 0
4, 64656, Note_on_c, 1, 64, 72
4, 64701, Note_off_c, 1, 64, 0
4, 64704, Note_on_c, 1, 52, 73
4, 64749, Note_off_c, 1, 52, 0
4, 64752, Note_on_c, 1, 64, 74
4, 64797, Note_off_c, 1, 64, 0
4, 64800, Note_on_c, 1, 59, 75
4, 64845, Note_off_c, 1, 59, 0
4, 64848, Note_on_c, 1, 64, 76
4, 64893, Note_off_c, 1, 64, 0
4, 64896, Note_on_c, 1, 52, 77
4, 64941, Note_off_c, 1, 52, 0
4, 64944, Note_on_c, 1, 64, 78
4, 64989, Note_off_c, 1, 64, 0
4, 64992, Note_on_c, 1, 59, 79
4, 65037, Note_off_c, 1, 59, 0
4, 65040, Note_on_c, 1, 64, 80
4, 65085, Note_off_c, 1, 64, 0
4, 65088, Note_on_c, 1, 52, 81
4, 65133, Note_off_c, 1, 52, 0
4, 65136, Note_on_c, 1, 64, 82
4, 65181, Note_off_c, 1, 64, 0
4, 65184, Note_on_c, 1, 59, 83
4, 65229, Note_off_c, 1, 59, 0
4, 65232, Note_on_c, 1, 64, 84
4, 65277, Note_off_c, 1, 64, 0
4, 65280, Note_on_c, 1, 57, 127
4, 65325, Note_off_c, 1, 57, 0
4, 65328, Note_on_c, 1, 64, 127
4, 65373, Note_off_c, 1, 64, 0
4, 65376, Note_on_c, 1, 61, 127
4, 65421, Note_off_c, 1, 61, 0
4, 65424, Note_on_c, 1, 64, 127
4, 65469, Note_off_c, 1, 64, 0
4, 65472, Note_on_c, 1, 56, 127
4, 65517, Note_off_c, 1, 56, 0
4, 65520, Note_on_c, 1, 64, 127
4, 65565, Note_off_c, 1, 64, 0
4, 65568, Note_on_c, 1, 59, 127
4, 65613, Note_off_c, 1, 59, 0
4, 65616, Note_on_c, 1, 64, 127
4, 65661, Note_off_c, 1, 64, 0
4, 65664, Note_on_c, 1, 57, 127
4, 65709, Note_off_c, 1, 57, 0
4, 65712, Note_on_c, 1, 64, 127
4, 65757, Note_off_c, 1, 64, 0
4, 65760, Note_on_c, 1, 61, 127
4, 65805, Note_off_c, 1, 61, 0
4, 65808, Note_on_c, 1, 64, 127
4, 65853, Note_off_c, 1, 64, 0
4, 65856, Note_on_c, 1, 59, 127
4, 65901, Note_off_c, 1, 59, 0
4, 65904, Note_on_c, 1, 64, 127
4, 65949, Note_off_c, 1, 64, 0
4, 65952, Note_on_c, 1, 62, 127
4, 65997, Note_off_c, 1, 62, 0
4, 66000, Note_on_c, 1, 64, 127
4, 66045, Note_off_c, 1, 64, 0
4, 66048, Note_on_c, 1, 57, 92
4, 66093, Note_off_c, 1, 57, 0
4, 66096, Note_on_c, 1, 64, 92
4, 66141, Note_off_c, 1, 64, 0
4, 66144, Note_on_c, 1, 61, 92
4, 66189, Note_off_c, 1, 61, 0
4, 66192, Note_on_c, 1, 64, 92
4, 66237, Note_off_c, 1, 64, 0
4, 66240, Note_on_c, 1, 56, 92
4, 66285, Note_off_c, 1, 56, 0
4, 66288, Note_on_c, 1, 64, 92
4, 66333, Note_off_c, 1, 64, 0
4, 66336, Note_on_c, 1, 59, 92
4, 66381, Note_off_c, 1, 59, 0
4, 66384, Note_on_c, 1, 64, 92
4, 66429, Note_off_c, 1, 64, 0
4, 66432, Note_on_c, 1, 57, 92
4, 66477, Note_off_c, 1, 57, 0
4, 66480, Note_on_c, 1, 64, 92
4, 66525, Note_off_c, 1, 64, 0
4, 66528, Note_on_c, 1, 61, 92
4, 66573, Note_off_c, 1, 61, 0
4, 66576, Note_on_c, 1, 64, 92
4, 66621, Note_off_c, 1, 64, 0
4, 66624, Note_on_c, 1, 59, 92
4, 66669, Note_off_c, 1, 59, 0
4, 66672, Note_on_c, 1, 64, 92
4, 66717, Note_off_c, 1, 64, 0
4, 66720, Note_on_c, 1, 62, 92
4, 66765, Note_off_c, 1, 62, 0
4, 66768, Note_on_c, 1, 64, 92
4, 66813, Note_off_c, 1, 64, 0
4, 66816, Note_on_c, 1, 61, 75
4, 66976, Note_off_c, 1, 61, 0
4, 67200, Note_on_c, 1, 62, 75
4, 67360, Note_off_c, 1, 62, 0
4, 67584, Note_on_c, 1, 61, 75
4, 67584, Note_on_c, 1, 52, 75
4, 67677, Note_off_c, 1, 52, 0
4, 67677, Note_off_c, 1, 61, 0
4, 67680, Note_on_c, 1, 52, 75
4, 67680, Note_on_c, 1, 61, 75
4, 67773, Note_off_c, 1, 61, 0
4, 67773, Note_off_c, 1, 52, 0
4, 67776, Note_on_c, 1, 59, 75
4, 67776, Note_on_c, 1, 52, 75
4, 67869, Note_off_c, 1, 52, 0
4, 67869, Note_off_c, 1, 59, 0
4, 67872, Note_on_c, 1, 59, 75
4, 67872, Note_on_c, 1, 52, 75
4, 67965, Note_off_c, 1, 52, 0
4, 67965, Note_off_c, 1, 59, 0
4, 67968, Note_on_c, 1, 57, 75
4, 67968, Note_on_c, 1, 45, 75
4, 68128, Note_off_c, 1, 45, 0
4, 68128, Note_off_c, 1, 57, 0
4, 68448, Note_on_c, 1, 45, 75
4, 68448, Note_on_c, 1, 57, 75
4, 68541, Note_off_c, 1, 57, 0
4, 68541, Note_off_c, 1, 45, 0
4, 68544, Note_on_c, 1, 60, 75
4, 68544, Note_on_c, 1, 48, 75
4, 68637, Note_off_c, 1, 48, 0
4, 68637, Note_off_c, 1, 60, 0
4, 68640, Note_on_c, 1, 57, 75
4, 68640, Note_on_c, 1, 45, 75
4, 68733, Note_off_c, 1, 45, 0
4, 68733, Note_off_c, 1, 57, 0
4, 68832, Note_on_c, 1, 52, 75
4, 68832, Note_on_c, 1, 40, 75
4, 68925, Note_off_c, 1, 40, 0
4, 68925, Note_off_c, 1, 52, 0
4, 68928, Note_on_c, 1, 56, 75
4, 68928, Note_on_c, 1, 44, 75
4, 69021, Note_off_c, 1, 44, 0
4, 69021, Note_off_c, 1, 56, 0
4, 69024, Note_on_c, 1, 52, 75
4, 69024, Note_on_c, 1, 40, 75
4, 69117, Note_off_c, 1, 40, 0
4, 69117, Note_off_c, 1, 52, 0
4, 69216, Note_on_c, 1, 40, 92
4, 69216, Note_on_c, 1, 52, 92
4, 69309, Note_off_c, 1, 52, 0
4, 69309, Note_off_c, 1, 40, 0
4, 69312, Note_on_c, 1, 56, 92
4, 69312, Note_on_c, 1, 44, 92
4, 69405, Note_off_c, 1, 44, 0
4, 69405, Note_off_c, 1, 56, 0
4, 69408, Note_on_c, 1, 52, 92
4, 69408, Note_on_c, 1, 40, 92
4, 69501, Note_off_c, 1, 40, 0
4, 69501, Note_off_c, 1, 52, 0
4, 69600, Note_on_c, 1, 57, 92
4, 69600, Note_on_c, 1, 45, 92
4, 69693, Note_off_c, 1, 45, 0
4, 69693, Note_off_c, 1, 57, 0
4, 69696, Note_on_c, 1, 60, 92
4, 69696, Note_on_c, 1, 48, 92
4, 69789, Note_off_c, 1, 48, 0
4, 69789, Note_off_c, 1, 60, 0
4, 69792, Note_on_c, 1, 57, 92
4, 69792, Note_on_c, 1, 45, 92
4, 69885, Note_off_c, 1, 45, 0
4, 69885, Note_off_c, 1, 57, 0
4, 69984, Note_on_c, 1, 50, 108
4, 69984, Note_on_c, 1, 62, 108
4, 70077, Note_off_c, 1, 62, 0
4, 70077, Note_off_c, 1, 50, 0
4, 70080, Note_on_c, 1, 59, 108
4, 70080, Note_on_c, 1, 47, 108
4, 70173, Note_off_c, 1, 47, 0
4, 70173, Note_off_c, 1, 59, 0
4, 70176, Note_on_c, 1, 55, 108
4, 70176, Note_on_c, 1, 43, 108
4, 70269, Note_off_c, 1, 43, 0
4, 70269, Note_off_c, 1, 55, 0
4, 70368, Note_on_c, 1, 60, 108
4, 70368, Note_on_c, 1, 48, 108
4, 70461, Note_off_c, 1, 48, 0
4, 70461, Note_off_c, 1, 60, 0
4, 70464, Note_on_c, 1, 57, 108
4, 70464, Note_on_c, 1, 45, 108
4, 70557, Note_off_c, 1, 45, 0
4, 70557, Note_off_c, 1, 57, 0
4, 70560, Note_on_c, 1, 54, 108
4, 70560, Note_on_c, 1, 42, 108
4, 70653, Note_off_c, 1, 42, 0
4, 70653, Note_off_c, 1, 54, 0
4, 70752, Note_on_c, 1, 59, 108
4, 70752, Note_on_c, 1, 47, 108
4, 70845, Note_off_c, 1, 47, 0
4, 70845, Note_off_c, 1, 59, 0
4, 70848, Note_on_c, 1, 56, 108
4, 70848, Note_on_c, 1, 44, 108
4, 70941, Note_off_c, 1, 44, 0
4, 70941, Note_off_c, 1, 56, 0
4, 70944, Note_on_c, 1, 52, 108
4, 70944, Note_on_c, 1, 40, 108
4, 71037, Note_off_c, 1, 40, 0
4, 71037, Note_off_c, 1, 52, 0
4, 71136, Note_on_c, 1, 57, 108
4, 71136, Note_on_c, 1, 45, 108
4, 71229, Note_off_c, 1, 45, 0
4, 71229, Note_off_c, 1, 57, 0
4, 71232, Note_on_c, 1, 60, 108
4, 71232, Note_on_c, 1, 48, 108
4, 71325, Note_off_c, 1, 48, 0
4, 71325, Note_off_c, 1, 60, 0
4, 71328, Note_on_c, 1, 57, 108
4, 71328, Note_on_c, 1, 45, 108
4, 71421, Note_off_c, 1, 45, 0
4, 71421, Note_off_c, 1, 57, 0
4, 71520, Note_on_c, 1, 53, 108
4, 71520, Note_on_c, 1, 41, 108
4, 71613, Note_off_c, 1, 41, 0
4, 71613, Note_off_c, 1, 53, 0
4, 71616, Note_on_c, 1, 57, 108
4, 71616, Note_on_c, 1, 45, 108
4, 71709, Note_off_c, 1, 45, 0
4, 71709, Note_off_c, 1, 57, 0
4, 71712, Note_on_c, 1, 53, 108
4, 71712, Note_on_c, 1, 41, 108
4, 71805, Note_off_c, 1, 41, 0
4, 71805, Note_off_c, 1, 53, 0
4, 71904, Note_on_c, 1, 65, 108
4, 71904, Note_on_c, 1, 53, 108
4, 71997, Note_off_c, 1, 53, 0
4, 71997, Note_off_c, 1, 65, 0
4, 72000, Note_on_c, 1, 64, 108
4, 72000, Note_on_c, 1, 52, 108
4, 72093, Note_off_c, 1, 52, 0
4, 72093, Note_off_c, 1, 64, 0
4, 72096, Note_on_c, 1, 63, 108
4, 72096, Note_on_c, 1, 51, 108
4, 72189, Note_off_c, 1, 51, 0
4, 72189, Note_off_c, 1, 63, 0
4, 72192, Note_on_c, 1, 64, 108
4, 72192, Note_on_c, 1, 52, 108
4, 72352, Note_off_c, 1, 52, 0
4, 72352, Note_off_c, 1, 64, 0
4, 72576, Note_on_c, 1, 45, 92
4, 72576, Note_on_c, 1, 33, 92
4, 72736, Note_off_c, 1, 33, 0
4, 72736, Note_off_c, 1, 45, 0
4, 73056, Note_on_c, 1, 40, 92
4, 73056, Note_on_c, 1, 52, 92
4, 73149, Note_off_c, 1, 52, 0
4, 73149, Note_off_c, 1, 40, 0
4, 73152, Note_on_c, 1, 56, 92
4, 73152, Note_on_c, 1, 44, 92
4, 73245, Note_off_c, 1, 44, 0
4, 73245, Note_off_c, 1, 56, 0
4, 73248, Note_on_c, 1, 52, 92
4, 73248, Note_on_c, 1, 40, 92
4, 73341, Note_off_c, 1, 40, 0
4, 73341, Note_off_c, 1, 52, 0
4, 73344, Note_on_c, 1, 52, 75
4, 73344, Note_on_c, 1, 40, 75
4, 73504, Note_off_c, 1, 40, 0
4, 73504, Note_off_c, 1, 52, 0
4, 73824, Note_on_c, 1, 45, 75
4, 73824, Note_on_c, 1, 57, 75
4, 73917, Note_off_c, 1, 57, 0
4, 73917, Note_off_c, 1, 45, 0
4, 73920, Note_on_c, 1, 61, 75
4, 73920, Note_on_c, 1, 49, 75
4, 74013, Note_off_c, 1, 49, 0
4, 74013, Note_off_c, 1, 61, 0
4, 74016, Note_on_c, 1, 57, 75
4, 74016, Note_on_c, 1, 45, 75
4, 74109, Note_off_c, 1, 45, 0
4, 74109, Note_off_c, 1, 57, 0
4, 74112, Note_on_c, 1, 49, 60
4, 74157, Note_off_c, 1, 49, 0
4, 74160, Note_on_c, 1, 57, 60
4, 74205, Note_off_c, 1, 57, 0
4, 74208, Note_on_c, 1, 52, 60
4, 74253, Note_off_c, 1, 52, 0
4, 74256, Note_on_c, 1, 57, 60
4, 74301, Note_off_c, 1, 57, 0
4, 74304, Note_on_c, 1, 49, 60
4, 74349, Note_off_c, 1, 49, 0
4, 74352, Note_on_c, 1, 57, 60
4, 74397, Note_off_c, 1, 57, 0
4, 74400, Note_on_c, 1, 52, 60
4, 74445, Note_off_c, 1, 52, 0
4, 74448, Note_on_c, 1, 57, 60
4, 74493, Note_off_c, 1, 57, 0
4, 74496, Note_on_c, 1, 50, 60
4, 74541, Note_off_c, 1, 50, 0
4, 74544, Note_on_c, 1, 57, 60
4, 74589, Note_off_c, 1, 57, 0
4, 74592, Note_on_c, 1, 54, 60
4, 74637, Note_off_c, 1, 54, 0
4, 74640, Note_on_c, 1, 57, 60
4, 74685, Note_off_c, 1, 57, 0
4, 74688, Note_on_c, 1, 50, 60
4, 74733, Note_off_c, 1, 50, 0
4, 74736, Note_on_c, 1, 57, 60
4, 74781, Note_off_c, 1, 57, 0
4, 74784, Note_on_c, 1, 54, 60
4, 74829, Note_off_c, 1, 54, 0
4, 74832, Note_on_c, 1, 57, 60
4, 74877, Note_off_c, 1, 57, 0
4, 74880, Note_on_c, 1, 52, 60
4, 74925, Note_off_c, 1, 52, 0
4, 74928, Note_on_c, 1, 57, 60
4, 74973, Note_off_c, 1, 57, 0
4, 74976, Note_on_c, 1, 56, 60
4, 75021, Note_off_c, 1, 56, 0
4, 75024, Note_on_c, 1, 57, 60
4, 75069, Note_off_c, 1, 57, 0
4, 75072, Note_on_c, 1, 52, 60
4, 75117, Note_off_c, 1, 52, 0
4, 75120, Note_on_c, 1, 57, 60
4, 75165, Note_off_c, 1, 57, 0
4, 75168, Note_on_c, 1, 56, 60
4, 75213, Note_off_c, 1, 56, 0
4, 75216, Note_on_c, 1, 57, 60
4, 75261, Note_off_c, 1, 57, 0
4, 75264, Note_on_c, 1, 54, 60
4, 75309, Note_off_c, 1, 54, 0
4, 75312, Note_on_c, 1, 57, 60
4, 75357, Note_off_c, 1, 57, 0
4, 75360, Note_on_c, 1, 56, 60
4, 75405, Note_off_c, 1, 56, 0
4, 75408, Note_on_c, 1, 57, 60
4, 75453, Note_off_c, 1, 57, 0
4, 75456, Note_on_c, 1, 54, 60
4, 75501, Note_off_c, 1, 54, 0
4, 75504, Note_on_c, 1, 57, 60
4, 75549, Note_off_c, 1, 57, 0
4, 75552, Note_on_c, 1, 56, 60
4, 75597, Note_off_c, 1, 56, 0
4, 75600, Note_on_c, 1, 57, 60
4, 75645, Note_off_c, 1, 57, 0
4, 75648, Note_on_c, 1, 49, 75
4, 75693, Note_off_c, 1, 49, 0
4, 75696, Note_on_c, 1, 57, 75
4, 75741, Note_off_c, 1, 57, 0
4, 75744, Note_on_c, 1, 52, 75
4, 75789, Note_off_c, 1, 52, 0
4, 75792, Note_on_c, 1, 57, 75
4, 75837, Note_off_c, 1, 57, 0
4, 75840, Note_on_c, 1, 49, 75
4, 75885, Note_off_c, 1, 49, 0
4, 75888, Note_on_c, 1, 57, 75
4, 75933, Note_off_c, 1, 57, 0
4, 75936, Note_on_c, 1, 52, 75
4, 75981, Note_off_c, 1, 52, 0
4, 75984, Note_on_c, 1, 57, 75
4, 76029, Note_off_c, 1, 57, 0
4, 76032, Note_on_c, 1, 50, 75
4, 76077, Note_off_c, 1, 50, 0
4, 76080, Note_on_c, 1, 57, 75
4, 76125, Note_off_c, 1, 57, 0
4, 76128, Note_on_c, 1, 54, 75
4, 76173, Note_off_c, 1, 54, 0
4, 76176, Note_on_c, 1, 57, 75
4, 76221, Note_off_c, 1, 57, 0
4, 76224, Note_on_c, 1, 50, 75
4, 76269, Note_off_c, 1, 50, 0
4, 76272, Note_on_c, 1, 57, 75
4, 76317, Note_off_c, 1, 57, 0
4, 76320, Note_on_c, 1, 54, 75
4, 76365, Note_off_c, 1, 54, 0
4, 76368, Note_on_c, 1, 57, 75
4, 76413, Note_off_c, 1, 57, 0
4, 76416, Note_on_c, 1, 52, 75
4, 76461, Note_off_c, 1, 52, 0
4, 76464, Note_on_c, 1, 61, 75
4, 76509, Note_off_c, 1, 61, 0
4, 76512, Note_on_c, 1, 57, 75
4, 76557, Note_off_c, 1, 57, 0
4, 76560, Note_on_c, 1, 61, 75
4, 76605, Note_off_c, 1, 61, 0
4, 76608, Note_on_c, 1, 52, 75
4, 76653, Note_off_c, 1, 52, 0
4, 76656, Note_on_c, 1, 62, 75
4, 76701, Note_off_c, 1, 62, 0
4, 76704, Note_on_c, 1, 59, 75
4, 76749, Note_off_c, 1, 59, 0
4, 76752, Note_on_c, 1, 62, 75
4, 76797, Note_off_c, 1, 62, 0
4, 76800, Note_on_c, 1, 61, 75
4, 76800, Note_on_c, 1, 57, 75
4, 76960, Note_off_c, 1, 57, 0
4, 76960, Note_off_c, 1, 61, 0
4, 77088, Note_on_c, 1, 52, 75
4, 77088, Note_on_c, 1, 40, 75
4, 77181, Note_off_c, 1, 40, 0
4, 77181, Note_off_c, 1, 52, 0
4, 77184, Note_on_c, 1, 45, 75
4, 77344, Note_off_c, 1, 45, 0
4, 77472, Note_on_c, 1, 52, 45
4, 77472, Note_on_c, 1, 40, 45
4, 77565, Note_off_c, 1, 40, 0
4, 77565, Note_off_c, 1, 52, 0
4, 77568, Note_on_c, 1, 45, 45
4, 77568, Note_on_c, 1, 33, 45
4, 77728, Note_off_c, 1, 33, 0
4, 77728, Note_off_c, 1, 45, 0
4, 77952, Note_on_c, 1, 56, 75
4, 77952, Note_on_c, 1, 52, 75
4, 78045, Note_off_c, 1, 52, 0
4, 78045, Note_off_c, 1, 56, 0
4, 78048, Note_on_c, 1, 56, 75
4, 78048, Note_on_c, 1, 52, 75
4, 78141, Note_off_c, 1, 52, 0
4, 78141, Note_off_c, 1, 56, 0
4, 78144, Note_on_c, 1, 56, 75
4, 78144, Note_on_c, 1, 52, 75
4, 78237, Note_off_c, 1, 52, 0
4, 78237, Note_off_c, 1, 56, 0
4, 78240, Note_on_c, 1, 56, 75
4, 78240, Note_on_c, 1, 52, 75
4, 78333, Note_off_c, 1, 52, 0
4, 78333, Note_off_c, 1, 56, 0
4, 78336, Note_on_c, 1, 57, 75
4, 78336, Note_on_c, 1, 52, 75
4, 78429, Note_off_c, 1, 52, 0
4, 78429, Note_off_c, 1, 57, 0
4, 78432, Note_on_c, 1, 56, 75
4, 78432, Note_on_c, 1, 52, 75
4, 78525, Note_off_c, 1, 52, 0
4, 78525, Note_off_c, 1, 56, 0
4, 78528, Note_on_c, 1, 56, 75
4, 78528, Note_on_c, 1, 52, 75
4, 78621, Note_off_c, 1, 52, 0
4, 78621, Note_off_c, 1, 56, 0
4, 78624, Note_on_c, 1, 56, 75
4, 78624, Note_on_c, 1, 52, 75
4, 78717, Note_off_c, 1, 52, 0
4, 78717, Note_off_c, 1, 56, 0
4, 78816, Note_on_c, 1, 47, 75
4, 78816, Note_on_c, 1, 54, 75
4, 78909, Note_off_c, 1, 54, 0
4, 78909, Note_off_c, 1, 47, 0
4, 78912, Note_on_c, 1, 52, 75
4, 78912, Note_on_c, 1, 47, 75
4, 79005, Note_off_c, 1, 47, 0
4, 79005, Note_off_c, 1, 52, 0
4, 79008, Note_on_c, 1, 51, 75
4, 79008, Note_on_c, 1, 47, 75
4, 79101, Note_off_c, 1, 47, 0
4, 79101, Note_off_c, 1, 51, 0
4, 79200, Note_on_c, 1, 52, 60
4, 79200, Note_on_c, 1, 56, 60
4, 79293, Note_off_c, 1, 56, 0
4, 79293, Note_off_c, 1, 52, 0
4, 79296, Note_on_c, 1, 59, 60
4, 79296, Note_on_c, 1, 56, 60
4, 79389, Note_off_c, 1, 56, 0
4, 79389, Note_off_c, 1, 59, 0
4, 79392, Note_on_c, 1, 56, 45
4, 79392, Note_on_c, 1, 52, 45
4, 79485, Note_off_c, 1, 52, 0
4, 79485, Note_off_c, 1, 56, 0
4, 79584, Note_on_c, 1, 47, 45
4, 79584, Note_on_c, 1, 54, 45
4, 79677, Note_off_c, 1, 54, 0
4, 79677, Note_off_c, 1, 47, 0
4, 79680, Note_on_c, 1, 52, 45
4, 79680, Note_on_c, 1, 47, 45
4, 79773, Note_off_c, 1, 47, 0
4, 79773, Note_off_c, 1, 52, 0
4, 79776, Note_on_c, 1, 51, 45
4, 79776, Note_on_c, 1, 47, 45
4, 79869, Note_off_c, 1, 47, 0
4, 79869, Note_off_c, 1, 51, 0
4, 79968, Note_on_c, 1, 56, 45
4, 79968, Note_on_c, 1, 52, 45
4, 80061, Note_off_c, 1, 52, 0
4, 80061, Note_off_c, 1, 56, 0
4, 80064, Note_on_c, 1, 59, 45
4, 80064, Note_on_c, 1, 56, 45
4, 80157, Note_off_c, 1, 56, 0
4, 80157, Note_off_c, 1, 59, 0
4, 80160, Note_on_c, 1, 56, 45
4, 80160, Note_on_c, 1, 52, 45
4, 80253, Note_off_c, 1, 52, 0
4, 80253, Note_off_c, 1, 56, 0
4, 80352, Note_on_c, 1, 52, 92
4, 80352, Note_on_c, 1, 64, 92
4, 80445, Note_off_c, 1, 64, 0
4, 80445, Note_off_c, 1, 52, 0
4, 80448, Note_on_c, 1, 62, 92
4, 80448, Note_on_c, 1, 50, 92
4, 80541, Note_off_c, 1, 50, 0
4, 80541, Note_off_c, 1, 62, 0
4, 80544, Note_on_c, 1, 61, 92
4, 80544, Note_on_c, 1, 49, 92
4, 80637, Note_off_c, 1, 49, 0
4, 80637, Note_off_c, 1, 61, 0
4, 80640, Note_on_c, 1, 59, 92
4, 80640, Note_on_c, 1, 47, 92
4, 80733, Note_off_c, 1, 47, 0
4, 80733, Note_off_c, 1, 59, 0
4, 80736, Note_on_c, 1, 58, 92
4, 80736, Note_on_c, 1, 46, 92
4, 80829, Note_off_c, 1, 46, 0
4, 80829, Note_off_c, 1, 58, 0
4, 80832, Note_on_c, 1, 59, 92
4, 80832, Note_on_c, 1, 47, 92
4, 80992, Note_off_c, 1, 47, 0
4, 80992, Note_off_c, 1, 59, 0
4, 81120, Note_on_c, 1, 50, 75
4, 81120, Note_on_c, 1, 62, 75
4, 81213, Note_off_c, 1, 62, 0
4, 81213, Note_off_c, 1, 50, 0
4, 81216, Note_on_c, 1, 61, 75
4, 81216, Note_on_c, 1, 49, 75
4, 81309, Note_off_c, 1, 49, 0
4, 81309, Note_off_c, 1, 61, 0
4, 81312, Note_on_c, 1, 59, 75
4, 81312, Note_on_c, 1, 47, 75
4, 81405, Note_off_c, 1, 47, 0
4, 81405, Note_off_c, 1, 59, 0
4, 81408, Note_on_c, 1, 57, 75
4, 81408, Note_on_c, 1, 45, 75
4, 81501, Note_off_c, 1, 45, 0
4, 81501, Note_off_c, 1, 57, 0
4, 81504, Note_on_c, 1, 56, 75
4, 81504, Note_on_c, 1, 44, 75
4, 81597, Note_off_c, 1, 44, 0
4, 81597, Note_off_c, 1, 56, 0
4, 81600, Note_on_c, 1, 57, 75
4, 81600, Note_on_c, 1, 45, 75
4, 81760, Note_off_c, 1, 45, 0
4, 81760, Note_off_c, 1, 57, 0
4, 81792, Note_on_c, 1, 52, 92
4, 81792, Note_on_c, 1, 40, 92
4, 81952, Note_off_c, 1, 40, 0
4, 81952, Note_off_c, 1, 52, 0
4, 82176, Note_on_c, 1, 52, 75
4, 82269, Note_off_c, 1, 52, 0
4, 82272, Note_on_c, 1, 59, 75
4, 82365, Note_off_c, 1, 59, 0
4, 82368, Note_on_c, 1, 57, 75
4, 82461, Note_off_c, 1, 57, 0
4, 82464, Note_on_c, 1, 56, 75
4, 82557, Note_off_c, 1, 56, 0
4, 82560, Note_on_c, 1, 57, 92
4, 82560, Note_on_c, 1, 52, 92
4, 82720, Note_off_c, 1, 52, 0
4, 82720, Note_off_c, 1, 57, 0
4, 82944, Note_on_c, 1, 52, 75
4, 83037, Note_off_c, 1, 52, 0
4, 83040, Note_on_c, 1, 61, 75
4, 83133, Note_off_c, 1, 61, 0
4, 83136, Note_on_c, 1, 59, 75
4, 83229, Note_off_c, 1, 59, 0
4, 83232, Note_on_c, 1, 57, 75
4, 83325, Note_off_c, 1, 57, 0
4, 83424, Note_on_c, 1, 69, 75
4, 83424, Note_on_c, 1, 66, 75
4, 83517, Note_off_c, 1, 66, 0
4, 83517, Note_off_c, 1, 69, 0
4, 83520, Note_on_c, 1, 69, 75
4, 83520, Note_on_c, 1, 66, 75
4, 83613, Note_off_c, 1, 66, 0
4, 83613, Note_off_c, 1, 69, 0
4, 83616, Note_on_c, 1, 69, 75
4, 83616, Note_on_c, 1, 66, 75
4, 83709, Note_off_c, 1, 66, 0
4, 83709, Note_off_c, 1, 69, 0
4, 83808, Note_on_c, 1, 71, 75
4, 83808, Note_on_c, 1, 68, 75
4, 83901, Note_off_c, 1, 68, 0
4, 83901, Note_off_c, 1, 71, 0
4, 83904, Note_on_c, 1, 71, 75
4, 83904, Note_on_c, 1, 68, 75
4, 83997, Note_off_c, 1, 68, 0
4, 83997, Note_off_c, 1, 71, 0
4, 84000, Note_on_c, 1, 71, 75
4, 84000, Note_on_c, 1, 68, 75
4, 84093, Note_off_c, 1, 68, 0
4, 84093, Note_off_c, 1, 71, 0
4, 84096, Note_on_c, 1, 69, 45
4, 84189, Note_off_c, 1, 69, 0
4, 84192, Note_on_c, 1, 64, 45
4, 84285, Note_off_c, 1, 64, 0
4, 84288, Note_on_c, 1, 71, 45
4, 84381, Note_off_c, 1, 71, 0
4, 84384, Note_on_c, 1, 64, 45
4, 84477, Note_off_c, 1, 64, 0
4, 84480, Note_on_c, 1, 69, 45
4, 84573, Note_off_c, 1, 69, 0
4, 84576, Note_on_c, 1, 64, 45
4, 84669, Note_off_c, 1, 64, 0
4, 84672, Note_on_c, 1, 69, 45
4, 84765, Note_off_c, 1, 69, 0
4, 84768, Note_on_c, 1, 64, 45
4, 84861, Note_off_c, 1, 64, 0
4, 84864, Note_on_c, 1, 69, 75
4, 84957, Note_off_c, 1, 69, 0
4, 84960, Note_on_c, 1, 64, 75
4, 85053, Note_off_c, 1, 64, 0
4, 85056, Note_on_c, 1, 71, 75
4, 85149, Note_off_c, 1, 71, 0
4, 85152, Note_on_c, 1, 64, 75
4, 85245, Note_off_c, 1, 64, 0
4, 85248, Note_on_c, 1, 68, 75
4, 85341, Note_off_c, 1, 68, 0
4, 85344, Note_on_c, 1, 64, 75
4, 85437, Note_off_c, 1, 64, 0
4, 85440, Note_on_c, 1, 69, 75
4, 85533, Note_off_c, 1, 69, 0
4, 85536, Note_on_c, 1, 66, 75
4, 85629, Note_off_c, 1, 66, 0
4, 85632, Note_on_c, 1, 68, 75
4, 85725, Note_off_c, 1, 68, 0
4, 85728, Note_on_c, 1, 65, 75
4, 85821, Note_off_c, 1, 65, 0
4, 85824, Note_on_c, 1, 66, 75
4, 85917, Note_off_c, 1, 66, 0
4, 85920, Note_on_c, 1, 60, 75
4, 86013, Note_off_c, 1, 60, 0
4, 86016, Note_on_c, 1, 61, 75
4, 86176, Note_off_c, 1, 61, 0
4, 86400, Note_on_c, 1, 61, 92
4, 86400, Note_on_c, 1, 49, 92
4, 86560, Note_off_c, 1, 49, 0
4, 86560, Note_off_c, 1, 61, 0
4, 86784, Note_on_c, 1, 61, 75
4, 86877, Note_off_c, 1, 61, 0
4, 86880, Note_on_c, 1, 68, 75
4, 86973, Note_off_c, 1, 68, 0
4, 86976, Note_on_c, 1, 66, 75
4, 87069, Note_off_c, 1, 66, 0
4, 87072, Note_on_c, 1, 65, 75
4, 87165, Note_off_c, 1, 65, 0
4, 87168, Note_on_c, 1, 66, 75
4, 87168, Note_on_c, 1, 61, 75
4, 87328, Note_off_c, 1, 61, 0
4, 87328, Note_off_c, 1, 66, 0
4, 87552, Note_on_c, 1, 61, 75
4, 87645, Note_off_c, 1, 61, 0
4, 87648, Note_on_c, 1, 69, 75
4, 87741, Note_off_c, 1, 69, 0
4, 87744, Note_on_c, 1, 68, 75
4, 87837, Note_off_c, 1, 68, 0
4, 87840, Note_on_c, 1, 66, 75
4, 87933, Note_off_c, 1, 66, 0
4, 87936, Note_on_c, 1, 54, 75
4, 87936, Note_on_c, 1, 42, 75
4, 88096, Note_off_c, 1, 42, 0
4, 88096, Note_off_c, 1, 54, 0
4, 88320, Note_on_c, 1, 54, 75
4, 88413, Note_off_c, 1, 54, 0
4, 88416, Note_on_c, 1, 61, 75
4, 88509, Note_off_c, 1, 61, 0
4, 88512, Note_on_c, 1, 59, 75
4, 88605, Note_off_c, 1, 59, 0
4, 88608, Note_on_c, 1, 58, 75
4, 88701, Note_off_c, 1, 58, 0
4, 88704, Note_on_c, 1, 59, 75
4, 88704, Note_on_c, 1, 54, 75
4, 88864, Note_off_c, 1, 54, 0
4, 88864, Note_off_c, 1, 59, 0
4, 89088, Note_on_c, 1, 54, 75
4, 89181, Note_off_c, 1, 54, 0
4, 89184, Note_on_c, 1, 62, 75
4, 89277, Note_off_c, 1, 62, 0
4, 89280, Note_on_c, 1, 61, 75
4, 89373, Note_off_c, 1, 61, 0
4, 89376, Note_on_c, 1, 59, 75
4, 89469, Note_off_c, 1, 59, 0
4, 89472, Note_on_c, 1, 47, 92
4, 89472, Note_on_c, 1, 35, 92
4, 89632, Note_off_c, 1, 35, 0
4, 89632, Note_off_c, 1, 47, 0
4, 89856, Note_on_c, 1, 59, 75
4, 89949, Note_off_c, 1, 59, 0
4, 89952, Note_on_c, 1, 66, 75
4, 90045, Note_off_c, 1, 66, 0
4, 90048, Note_on_c, 1, 64, 75
4, 90141, Note_off_c, 1, 64, 0
4, 90144, Note_on_c, 1, 63, 75
4, 90237, Note_off_c, 1, 63, 0
4, 90240, Note_on_c, 1, 64, 75
4, 90240, Note_on_c, 1, 59, 75
4, 90400, Note_off_c, 1, 59, 0
4, 90400, Note_off_c, 1, 64, 0
4, 90624, Note_on_c, 1, 59, 75
4, 90717, Note_off_c, 1, 59, 0
4, 90720, Note_on_c, 1, 68, 75
4, 90813, Note_off_c, 1, 68, 0
4, 90816, Note_on_c, 1, 66, 75
4, 90909, Note_off_c, 1, 66, 0
4, 90912, Note_on_c, 1, 64, 75
4, 91005, Note_off_c, 1, 64, 0
4, 91008, Note_on_c, 1, 52, 75
4, 91008, Note_on_c, 1, 40, 75
4, 91168, Note_off_c, 1, 40, 0
4, 91168, Note_off_c, 1, 52, 0
4, 91392, Note_on_c, 1, 52, 75
4, 91485, Note_off_c, 1, 52, 0
4, 91488, Note_on_c, 1, 59, 75
4, 91581, Note_off_c, 1, 59, 0
4, 91584, Note_on_c, 1, 57, 75
4, 91677, Note_off_c, 1, 57, 0
4, 91680, Note_on_c, 1, 56, 75
4, 91773, Note_off_c, 1, 56, 0
4, 91776, Note_on_c, 1, 57, 75
4, 91776, Note_on_c, 1, 52, 75
4, 91936, Note_off_c, 1, 52, 0
4, 91936, Note_off_c, 1, 57, 0
4, 92160, Note_on_c, 1, 52, 75
4, 92253, Note_off_c, 1, 52, 0
4, 92256, Note_on_c, 1, 61, 75
4, 92349, Note_off_c, 1, 61, 0
4, 92352, Note_on_c, 1, 59, 75
4, 92445, Note_off_c, 1, 59, 0
4, 92448, Note_on_c, 1, 57, 75
4, 92541, Note_off_c, 1, 57, 0
4, 92544, Note_on_c, 1, 62, 75
4, 92589, Note_off_c, 1, 62, 0
4, 92592, Note_on_c, 1, 69, 75
4, 92637, Note_off_c, 1, 69, 0
4, 92640, Note_on_c, 1, 66, 75
4, 92685, Note_off_c, 1, 66, 0
4, 92688, Note_on_c, 1, 69, 75
4, 92733, Note_off_c, 1, 69, 0
4, 92736, Note_on_c, 1, 61, 75
4, 92781, Note_off_c, 1, 61, 0
4, 92784, Note_on_c, 1, 69, 75
4, 92829, Note_off_c, 1, 69, 0
4, 92832, Note_on_c, 1, 64, 75
4, 92877, Note_off_c, 1, 64, 0
4, 92880, Note_on_c, 1, 69, 75
4, 92925, Note_off_c, 1, 69, 0
4, 92928, Note_on_c, 1, 59, 75
4, 92973, Note_off_c, 1, 59, 0
4, 92976, Note_on_c, 1, 68, 75
4, 93021, Note_off_c, 1, 68, 0
4, 93024, Note_on_c, 1, 62, 75
4, 93069, Note_off_c, 1, 62, 0
4, 93072, Note_on_c, 1, 68, 75
4, 93117, Note_off_c, 1, 68, 0
4, 93120, Note_on_c, 1, 57, 75
4, 93165, Note_off_c, 1, 57, 0
4, 93168, Note_on_c, 1, 64, 75
4, 93213, Note_off_c, 1, 64, 0
4, 93216, Note_on_c, 1, 61, 75
4, 93261, Note_off_c, 1, 61, 0
4, 93264, Note_on_c, 1, 64, 75
4, 93309, Note_off_c, 1, 64, 0
4, 93312, Note_on_c, 1, 62, 45
4, 93357, Note_off_c, 1, 62, 0
4, 93360, Note_on_c, 1, 69, 45
4, 93405, Note_off_c, 1, 69, 0
4, 93408, Note_on_c, 1, 66, 45
4, 93453, Note_off_c, 1, 66, 0
4, 93456, Note_on_c, 1, 69, 45
4, 93501, Note_off_c, 1, 69, 0
4, 93504, Note_on_c, 1, 61, 45
4, 93549, Note_off_c, 1, 61, 0
4, 93552, Note_on_c, 1, 69, 45
4, 93597, Note_off_c, 1, 69, 0
4, 93600, Note_on_c, 1, 64, 45
4, 93645, Note_off_c, 1, 64, 0
4, 93648, Note_on_c, 1, 69, 45
4, 93693, Note_off_c, 1, 69, 0
4, 93696, Note_on_c, 1, 59, 45
4, 93741, Note_off_c, 1, 59, 0
4, 93744, Note_on_c, 1, 68, 46
4, 93789, Note_off_c, 1, 68, 0
4, 93792, Note_on_c, 1, 62, 47
4, 93837, Note_off_c, 1, 62, 0
4, 93840, Note_on_c, 1, 68, 48
4, 93885, Note_off_c, 1, 68, 0
4, 93888, Note_on_c, 1, 57, 49
4, 93933, Note_off_c, 1, 57, 0
4, 93936, Note_on_c, 1, 64, 50
4, 93981, Note_off_c, 1, 64, 0
4, 93984, Note_on_c, 1, 61, 51
4, 94029, Note_off_c, 1, 61, 0
4, 94032, Note_on_c, 1, 64, 52
4, 94077, Note_off_c, 1, 64, 0
4, 94080, Note_on_c, 1, 52, 53
4, 94125, Note_off_c, 1, 52, 0
4, 94128, Note_on_c, 1, 64, 54
4, 94173, Note_off_c, 1, 64, 0
4, 94176, Note_on_c, 1, 56, 55
4, 94221, Note_off_c, 1, 56, 0
4, 94224, Note_on_c, 1, 64, 56
4, 94269, Note_off_c, 1, 64, 0
4, 94272, Note_on_c, 1, 52, 57
4, 94317, Note_off_c, 1, 52, 0
4, 94320, Note_on_c, 1, 64, 58
4, 94365, Note_off_c, 1, 64, 0
4, 94368, Note_on_c, 1, 56, 59
4, 94413, Note_off_c, 1, 56, 0
4, 94416, Note_on_c, 1, 64, 60
4, 94461, Note_off_c, 1, 64, 0
4, 94464, Note_on_c, 1, 52, 61
4, 94509, Note_off_c, 1, 52, 0
4, 94512, Note_on_c, 1, 64, 62
4, 94557, Note_off_c, 1, 64, 0
4, 94560, Note_on_c, 1, 57, 63
4, 94605, Note_off_c, 1, 57, 0
4, 94608, Note_on_c, 1, 64, 64
4, 94653, Note_off_c, 1, 64, 0
4, 94656, Note_on_c, 1, 52, 65
4, 94701, Note_off_c, 1, 52, 0
4, 94704, Note_on_c, 1, 64, 66
4, 94749, Note_off_c, 1, 64, 0
4, 94752, Note_on_c, 1, 57, 67
4, 94797, Note_off_c, 1, 57, 0
4, 94800, Note_on_c, 1, 64, 68
4, 94845, Note_off_c, 1, 64, 0
4, 94848, Note_on_c, 1, 52, 69
4, 94893, Note_off_c, 1, 52, 0
4, 94896, Note_on_c, 1, 64, 70
4, 94941, Note_off_c, 1, 64, 0
4, 94944, Note_on_c, 1, 59, 71
4, 94989, Note_off_c, 1, 59, 0
4, 94992, Note_on_c, 1, 64, 72
4, 95037, Note_off_c, 1, 64, 0
4, 95040, Note_on_c, 1, 52, 73
4, 95085, Note_off_c, 1, 52, 0
4, 95088, Note_on_c, 1, 64, 74
4, 95133, Note_off_c, 1, 64, 0
4, 95136, Note_on_c, 1, 59, 75
4, 95181, Note_off_c, 1, 59, 0
4, 95184, Note_on_c, 1, 64, 76
4, 95229, Note_off_c, 1, 64, 0
4, 95232, Note_on_c, 1, 52, 77
4, 95277, Note_off_c, 1, 52, 0
4, 95280, Note_on_c, 1, 64, 78
4, 95325, Note_off_c, 1, 64, 0
4, 95328, Note_on_c, 1, 59, 79
4, 95373, Note_off_c, 1, 59, 0
4, 95376, Note_on_c, 1, 64, 80
4, 95421, Note_off_c, 1, 64, 0
4, 95424, Note_on_c, 1, 52, 81
4, 95469, Note_off_c, 1, 52, 0
4, 95472, Note_on_c, 1, 64, 82
4, 95517, Note_off_c, 1, 64, 0
4, 95520, Note_on_c, 1, 59, 83
4, 95565, Note_off_c, 1, 59, 0
4, 95568, Note_on_c, 1, 64, 84
4, 95613, Note_off_c, 1, 64, 0
4, 95616, Note_on_c, 1, 57, 127
4, 95661, Note_off_c, 1, 57, 0
4, 95664, Note_on_c, 1, 64, 127
4, 95709, Note_off_c, 1, 64, 0
4, 95712, Note_on_c, 1, 61, 127
4, 95757, Note_off_c, 1, 61, 0
4, 95760, Note_on_c, 1, 64, 127
4, 95805, Note_off_c, 1, 64, 0
4, 95808, Note_on_c, 1, 56, 127
4, 95853, Note_off_c, 1, 56, 0
4, 95856, Note_on_c, 1, 64, 127
4, 95901, Note_off_c, 1, 64, 0
4, 95904, Note_on_c, 1, 59, 127
4, 95949, Note_off_c, 1, 59, 0
4, 95952, Note_on_c, 1, 64, 127
4, 95997, Note_off_c, 1, 64, 0
4, 96000, Note_on_c, 1, 57, 127
4, 96045, Note_off_c, 1, 57, 0
4, 96048, Note_on_c, 1, 64, 127
4, 96093, Note_off_c, 1, 64, 0
4, 96096, Note_on_c, 1, 61, 127
4, 96141, Note_off_c, 1, 61, 0
4, 96144, Note_on_c, 1, 64, 127
4, 96189, Note_off_c, 1, 64, 0
4, 96192, Note_on_c, 1, 59, 127
4, 96237, Note_off_c, 1, 59, 0
4, 96240, Note_on_c, 1, 64, 127
4, 96285, Note_off_c, 1, 64, 0
4, 96288, Note_on_c, 1, 62, 127
4, 96333, Note_off_c, 1, 62, 0
4, 96336, Note_on_c, 1, 64, 127
4, 96381, Note_off_c, 1, 64, 0
4, 96384, Note_on_c, 1, 57, 92
4, 96429, Note_off_c, 1, 57, 0
4, 96432, Note_on_c, 1, 64, 92
4, 96477, Note_off_c, 1, 64, 0
4, 96480, Note_on_c, 1, 61, 92
4, 96525, Note_off_c, 1, 61, 0
4, 96528, Note_on_c, 1, 64, 92
4, 96573, Note_off_c, 1, 64, 0
4, 96576, Note_on_c, 1, 56, 92
4, 96621, Note_off_c, 1, 56, 0
4, 96624, Note_on_c, 1, 64, 92
4, 96669, Note_off_c, 1, 64, 0
4, 96672, Note_on_c, 1, 59, 92
4, 96717, Note_off_c, 1, 59, 0
4, 96720, Note_on_c, 1, 64, 92
4, 96765, Note_off_c, 1, 64, 0
4, 96768, Note_on_c, 1, 57, 92
4, 96813, Note_off_c, 1, 57, 0
4, 96816, Note_on_c, 1, 64, 92
4, 96861, Note_off_c, 1, 64, 0
4, 96864, Note_on_c, 1, 61, 92
4, 96909, Note_off_c, 1, 61, 0
4, 96912, Note_on_c, 1, 64, 92
4, 96957, Note_off_c, 1, 64, 0
4, 96960, Note_on_c, 1, 59, 92
4, 97005, Note_off_c, 1, 59, 0
4, 97008, Note_on_c, 1, 64, 92
4, 97053, Note_off_c, 1, 64, 0
4, 97056, Note_on_c, 1, 62, 92
4, 97101, Note_off_c, 1, 62, 0
4, 97104, Note_on_c, 1, 64, 92
4, 97149, Note_off_c, 1, 64, 0
4, 97152, Note_on_c, 1, 61, 75
4, 97312, Note_off_c, 1, 61, 0
4, 97536, Note_on_c, 1, 62, 75
4, 97696, Note_off_c, 1, 62, 0
4, 97920, Note_on_c, 1, 61, 75
4, 97920, Note_on_c, 1, 52, 75
4, 98013, Note_off_c, 1, 52, 0
4, 98013, Note_off_c, 1, 61, 0
4, 98016, Note_on_c, 1, 52, 75
4, 98016, Note_on_c, 1, 61, 75
4, 98109, Note_off_c, 1, 61, 0
4, 98109, Note_off_c, 1, 52, 0
4, 98112, Note_on_c, 1, 59, 75
4, 98112, Note_on_c, 1, 52, 75
4, 98205, Note_off_c, 1, 52, 0
4, 98205, Note_off_c, 1, 59, 0
4, 98208, Note_on_c, 1, 59, 75
4, 98208, Note_on_c, 1, 52, 75
4, 98301, Note_off_c, 1, 52, 0
4, 98301, Note_off_c, 1, 59, 0
4, 98304, Note_on_c, 1, 57, 75
4, 98304, Note_on_c, 1, 45, 75
4, 98464, Note_off_c, 1, 45, 0
4, 98464, Note_off_c, 1, 57, 0
4, 98784, Note_on_c, 1, 45, 75
4, 98784, Note_on_c, 1, 57, 75
4, 98877, Note_off_c, 1, 57, 0
4, 98877, Note_off_c, 1, 45, 0
4, 98880, Note_on_c, 1, 60, 75
4, 98880, Note_on_c, 1, 48, 75
4, 98973, Note_off_c, 1, 48, 0
4, 98973, Note_off_c, 1, 60, 0
4, 98976, Note_on_c, 1, 57, 75
4, 98976, Note_on_c, 1, 45, 75
4, 99069, Note_off_c, 1, 45, 0
4, 99069, Note_off_c, 1, 57, 0
4, 99168, Note_on_c, 1, 52, 75
4, 99168, Note_on_c, 1, 40, 75
4, 99261, Note_off_c, 1, 40, 0
4, 99261, Note_off_c, 1, 52, 0
4, 99264, Note_on_c, 1, 56, 75
4, 99264, Note_on_c, 1, 44, 75
4, 99357, Note_off_c, 1, 44, 0
4, 99357, Note_off_c, 1, 56, 0
4, 99360, Note_on_c, 1, 52, 75
4, 99360, Note_on_c, 1, 40, 75
4, 99453, Note_off_c, 1, 40, 0
4, 99453, Note_off_c, 1, 52, 0
4, 99552, Note_on_c, 1, 40, 92
4, 99552, Note_on_c, 1, 52, 92
4, 99645, Note_off_c, 1, 52, 0
4, 99645, Note_off_c, 1, 40, 0
4, 99648, Note_on_c, 1, 56, 92
4, 99648, Note_on_c, 1, 44, 92
4, 99741, Note_off_c, 1, 44, 0
4, 99741, Note_off_c, 1, 56, 0
4, 99744, Note_on_c, 1, 52, 92
4, 99744, Note_on_c, 1, 40, 92
4, 99837, Note_off_c, 1, 40, 0
4, 99837, Note_off_c, 1, 52, 0
4, 99936, Note_on_c, 1, 57, 92
4, 99936, Note_on_c, 1, 45, 92
4, 100029, Note_off_c, 1, 45, 0
4, 100029, Note_off_c, 1, 57, 0
4, 100032, Note_on_c, 1, 60, 92
4, 100032, Note_on_c, 1, 48, 92
4, 100125, Note_off_c, 1, 48, 0
4, 100125, Note_off_c, 1, 60, 0
4, 100128, Note_on_c, 1, 57, 92
4, 100128, Note_on_c, 1, 45, 92
4, 100221, Note_off_c, 1, 45, 0
4, 100221, Note_off_c, 1, 57, 0
4, 100320, Note_on_c, 1, 50, 108
4, 100320, Note_on_c, 1, 62, 108
4, 100413, Note_off_c, 1, 62, 0
4, 100413, Note_off_c, 1, 50, 0
4, 100416, Note_on_c, 1, 59, 108
4, 100416, Note_on_c, 1, 47, 108
4, 100509, Note_off_c, 1, 47, 0
4, 100509, Note_off_c, 1, 59, 0
4, 100512, Note_on_c, 1, 55, 108
4, 100512, Note_on_c, 1, 43, 108
4, 100605, Note_off_c, 1, 43, 0
4, 100605, Note_off_c, 1, 55, 0
4, 100704, Note_on_c, 1, 60, 108
4, 100704, Note_on_c, 1, 48, 108
4, 100797, Note_off_c, 1, 48, 0
4, 100797, Note_off_c, 1, 60, 0
4, 100800, Note_on_c, 1, 57, 108
4, 100800, Note_on_c, 1, 45, 108
4, 100893, Note_off_c, 1, 45, 0
4, 100893, Note_off_c, 1, 57, 0
4, 100896, Note_on_c, 1, 54, 108
4, 100896, Note_on_c, 1, 42, 108
4, 100989, Note_off_c, 1, 42, 0
4, 100989, Note_off_c, 1, 54, 0
4, 101088, Note_on_c, 1, 59, 108
4, 101088, Note_on_c, 1, 47, 108
4, 101181, Note_off_c, 1, 47, 0
4, 101181, Note_off_c, 1, 59, 0
4, 101184, Note_on_c, 1, 56, 108
4, 101184, Note_on_c, 1, 44, 108
4, 101277, Note_off_c, 1, 44, 0
4, 101277, Note_off_c, 1, 56, 0
4, 101280, Note_on_c, 1, 52, 108
4, 101280, Note_on_c, 1, 40, 108
4, 101373, Note_off_c, 1, 40, 0
4, 101373, Note_off_c, 1, 52, 0
4, 101472, Note_on_c, 1, 57, 108
4, 101472, Note_on_c, 1, 45, 108
4, 101565, Note_off_c, 1, 45, 0
4, 101565, Note_off_c, 1, 57, 0
4, 101568, Note_on_c, 1, 60, 108
4, 101568, Note_on_c, 1, 48, 108
4, 101661, Note_off_c, 1, 48, 0
4, 101661, Note_off_c, 1, 60, 0
4, 101664, Note_on_c, 1, 57, 108
4, 101664, Note_on_c, 1, 45, 108
4, 101757, Note_off_c, 1, 45, 0
4, 101757, Note_off_c, 1, 57, 0
4, 101856, Note_on_c, 1, 53, 108
4, 101856, Note_on_c, 1, 41, 108
4, 101949, Note_off_c, 1, 41, 0
4, 101949, Note_off_c, 1, 53, 0
4, 101952, Note_on_c, 1, 57, 108
4, 101952, Note_on_c, 1, 45, 108
4, 102045, Note_off_c, 1, 45, 0
4, 102045, Note_off_c, 1, 57, 0
4, 102048, Note_on_c, 1, 53, 108
4, 102048, Note_on_c, 1, 41, 108
4, 102141, Note_off_c, 1, 41, 0
4, 102141, Note_off_c, 1, 53, 0
4, 102240, Note_on_c, 1, 65, 108
4, 102240, Note_on_c, 1, 53, 108
4, 102333, Note_off_c, 1, 53, 0
4, 102333, Note_off_c, 1, 65, 0
4, 102336, Note_on_c, 1, 64, 108
4, 102336, Note_on_c, 1, 52, 108
4, 102429, Note_off_c, 1, 52, 0
4, 102429, Note_off_c, 1, 64, 0
4, 102432, Note_on_c, 1, 63, 108
4, 102432, Note_on_c, 1, 51, 108
4, 102525, Note_off_c, 1, 51, 0
4, 102525, Note_off_c, 1, 63, 0
4, 102528, Note_on_c, 1, 64, 108
4, 102528, Note_on_c, 1, 52, 108
4, 102688, Note_off_c, 1, 52, 0
4, 102688, Note_off_c, 1, 64, 0
4, 102912, Note_on_c, 1, 45, 92
4, 102912, Note_on_c, 1, 33, 92
4, 103072, Note_off_c, 1, 33, 0
4, 103072, Note_off_c, 1, 45, 0
4, 103392, Note_on_c, 1, 40, 92
4, 103392, Note_on_c, 1, 52, 92
4, 103485, Note_off_c, 1, 52, 0
4, 103485, Note_off_c, 1, 40, 0
4, 103488, Note_on_c, 1, 56, 92
4, 103488, Note_on_c, 1, 44, 92
4, 103581, Note_off_c, 1, 44, 0
4, 103581, Note_off_c, 1, 56, 0
4, 103584, Note_on_c, 1, 52, 92
4, 103584, Note_on_c, 1, 40, 92
4, 103677, Note_off_c, 1, 40, 0
4, 103677, Note_off_c, 1, 52, 0
4, 103680, Note_on_c, 1, 52, 75
4, 103680, Note_on_c, 1, 40, 75
4, 103840, Note_off_c, 1, 40, 0
4, 103840, Note_off_c, 1, 52, 0
4, 104160, Note_on_c, 1, 45, 75
4, 104160, Note_on_c, 1, 57, 75
4, 104253, Note_off_c, 1, 57, 0
4, 104253, Note_off_c, 1, 45, 0
4, 104256, Note_on_c, 1, 61, 75
4, 104256, Note_on_c, 1, 49, 75
4, 104349, Note_off_c, 1, 49, 0
4, 104349, Note_off_c, 1, 61, 0
4, 104352, Note_on_c, 1, 57, 75
4, 104352, Note_on_c, 1, 45, 75
4, 104445, Note_off_c, 1, 45, 0
4, 104445, Note_off_c, 1, 57, 0
4, 104448, Note_on_c, 1, 49, 60
4, 104493, Note_off_c, 1, 49, 0
4, 104496, Note_on_c, 1, 57, 60
4, 104541, Note_off_c, 1, 57, 0
4, 104544, Note_on_c, 1, 52, 60
4, 104589, Note_off_c, 1, 52, 0
4, 104592, Note_on_c, 1, 57, 60
4, 104637, Note_off_c, 1, 57, 0
4, 104640, Note_on_c, 1, 49, 60
4, 104685, Note_off_c, 1, 49, 0
4, 104688, Note_on_c, 1, 57, 60
4, 104733, Note_off_c, 1, 57, 0
4, 104736, Note_on_c, 1, 52, 60
4, 104781, Note_off_c, 1, 52, 0
4, 104784, Note_on_c, 1, 57, 60
4, 104829, Note_off_c, 1, 57, 0
4, 104832, Note_on_c, 1, 50, 60
4, 104877, Note_off_c, 1, 50, 0
4, 104880, Note_on_c, 1, 57, 60
4, 104925, Note_off_c, 1, 57, 0
4, 104928, Note_on_c, 1, 54, 60
4, 104973, Note_off_c, 1, 54, 0
4, 104976, Note_on_c, 1, 57, 60
4, 105021, Note_off_c, 1, 57, 0
4, 105024, Note_on_c, 1, 50, 60
4, 105069, Note_off_c, 1, 50, 0
4, 105072, Note_on_c, 1, 57, 60
4, 105117, Note_off_c, 1, 57, 0
4, 105120, Note_on_c, 1, 54, 60
4, 105165, Note_off_c, 1, 54, 0
4, 105168, Note_on_c, 1, 57, 60
4, 105213, Note_off_c, 1, 57, 0
4, 105216, Note_on_c, 1, 52, 60
4, 105261, Note_off_c, 1, 52, 0
4, 105264, Note_on_c, 1, 57, 60
4, 105309, Note_off_c, 1, 57, 0
4, 105312, Note_on_c, 1, 56, 60
4, 105357, Note_off_c, 1, 56, 0
4, 105360, Note_on_c, 1, 57, 60
4, 105405, Note_off_c, 1, 57, 0
4, 105408, Note_on_c, 1, 52, 60
4, 105453, Note_off_c, 1, 52, 0
4, 105456, Note_on_c, 1, 57, 60
4, 105501, Note_off_c, 1, 57, 0
4, 105504, Note_on_c, 1, 56, 60
4, 105549, Note_off_c, 1, 56, 0
4, 105552, Note_on_c, 1, 57, 60
4, 105597, Note_off_c, 1, 57, 0
4, 105600, Note_on_c, 1, 54, 60
4, 105645, Note_off_c, 1, 54, 0
4, 105648, Note_on_c, 1, 57, 60
4, 105693, Note_off_c, 1, 57, 0
4, 105696, Note_on_c, 1, 56, 60
4, 105741, Note_off_c, 1, 56, 0
4, 105744, Note_on_c, 1, 57, 60
4, 105789, Note_off_c, 1, 57, 0
4, 105792, Note_on_c, 1, 54, 60
4, 105837, Note_off_c, 1, 54, 0
4, 105840, Note_on_c, 1, 57, 60
4, 105885, Note_off_c, 1, 57, 0
4, 105888, Note_on_c, 1, 56, 60
4, 105933, Note_off_c, 1, 56, 0
4, 105936, Note_on_c, 1, 57, 60
4, 105981, Note_off_c, 1, 57, 0
4, 105984, Note_on_c, 1, 49, 75
4, 106029, Note_off_c, 1, 49, 0
4, 106032, Note_on_c, 1, 57, 75
4, 106077, Note_off_c, 1, 57, 0
4, 106080, Note_on_c, 1, 52, 75
4, 106125, Note_off_c, 1, 52, 0
4, 106128, Note_on_c, 1, 57, 75
4, 106173, Note_off_c, 1, 57, 0
4, 106176, Note_on_c, 1, 49, 75
4, 106221, Note_off_c, 1, 49, 0
4, 106224, Note_on_c, 1, 57, 75
4, 106269, Note_off_c, 1, 57, 0
4, 106272, Note_on_c, 1, 52, 75
4, 106317, Note_off_c, 1, 52, 0
4, 106320, Note_on_c, 1, 57, 75
4, 106365, Note_off_c, 1, 57, 0
4, 106368, Note_on_c, 1, 50, 75
4, 106413, Note_off_c, 1, 50, 0
4, 106416, Note_on_c, 1, 57, 75
4, 106461, Note_off_c, 1, 57, 0
4, 106464, Note_on_c, 1, 54, 75
4, 106509, Note_off_c, 1, 54, 0
4, 106512, Note_on_c, 1, 57, 75
4, 106557, Note_off_c, 1, 57, 0
4, 106560, Note_on_c, 1, 50, 75
4, 106605, Note_off_c, 1, 50, 0
4, 106608, Note_on_c, 1, 57, 75
4, 106653, Note_off_c, 1, 57, 0
4, 106656, Note_on_c, 1, 54, 75
4, 106701, Note_off_c, 1, 54, 0
4, 106704, Note_on_c, 1, 57, 75
4, 106749, Note_off_c, 1, 57, 0
4, 106752, Note_on_c, 1, 52, 75
4, 106797, Note_off_c, 1, 52, 0
4, 106800, Note_on_c, 1, 61, 75
4, 106845, Note_off_c, 1, 61, 0
4, 106848, Note_on_c, 1, 57, 75
4, 106893, Note_off_c, 1, 57, 0
4, 106896, Note_on_c, 1, 61, 75
4, 106941, Note_off_c, 1, 61, 0
4, 106944, Note_on_c, 1, 52, 75
4, 106989, Note_off_c, 1, 52, 0
4, 106992, Note_on_c, 1, 62, 75
4, 107037, Note_off_c, 1, 62, 0
4, 107040, Note_on_c, 1, 59, 75
4, 107085, Note_off_c, 1, 59, 0
4, 107088, Note_on_c, 1, 62, 75
4, 107133, Note_off_c, 1, 62, 0
4, 107136, Note_on_c, 1, 61, 75
4, 107136, Note_on_c, 1, 57, 75
4, 107296, Note_off_c, 1, 57, 0
4, 107296, Note_off_c, 1, 61, 0
4, 107424, Note_on_c, 1, 52, 75
4, 107424, Note_on_c, 1, 40, 75
4, 107517, Note_off_c, 1, 40, 0
4, 107517, Note_off_c, 1, 52, 0
4, 107520, Note_on_c, 1, 45, 75
4, 107680, Note_off_c, 1, 45, 0
4, 107808, Note_on_c, 1, 52, 45
4, 107808, Note_on_c, 1, 40, 45
4, 107901, Note_off_c, 1, 40, 0
4, 107901, Note_off_c, 1, 52, 0
4, 107904, Note_on_c, 1, 45, 45
4, 107904, Note_on_c, 1, 33, 45
4, 108064, Note_off_c, 1, 33, 0
4, 108064, Note_off_c, 1, 45, 0
4, 108064, End_track
5, 0, Start_track
5, 0, Title_t, "Piano Sonata no. 5 mov. 1"
5, 0, Channel_prefix, 2
5, 0, Control_c, 2, 7, 100
5, 0, Program_c, 2, 0
5, 0, End_track
6, 0, Start_track
6, 0, Title_t, "Franz Josef Haydn"
6, 0, Channel_prefix, 3
6, 0, Control_c, 3, 7, 100
6, 0, Program_c, 3, 0
6, 0, End_track
7, 0, Start_track
7, 0, Title_t, "Sequenced by Dan Szymborski"
7, 0, Channel_prefix, 4
7, 0, Control_c, 4, 7, 100
7, 0, Program_c, 4, 0
7, 0, End_track
8, 0, Start_track
8, 0, Title_t, "Czerny@msn.com"
8, 0, Channel_prefix, 5
8, 0, Control_c, 5, 7, 100
8, 0, Program_c, 5, 0
8, 0, End_track
0, 0, End_of_file
