0, 0, Header, 1, 2, 240
1, 0, Start_track
1, 0, Time_signature, 4, 2, 24, 8
1, 0, Tempo, 454545
1, 16320, Time_signature, 4, 2, 24, 8
1, 16320, End_track
2, 0, Start_track
2, 0, Note_on_c, 0, 72, 77
2, 0, Note_on_c, 0, 60, 61
2, 24, Note_off_c, 0, 72, 64
2, 30, Note_on_c, 0, 71, 44
2, 48, Note_off_c, 0, 60, 64
2, 54, Note_off_c, 0, 71, 64
2, 60, Note_on_c, 0, 67, 52
2, 60, Note_on_c, 0, 72, 42
2, 108, Note_off_c, 0, 67, 64
2, 120, Note_on_c, 0, 64, 77
2, 168, Note_off_c, 0, 64, 64
2, 180, Note_on_c, 0, 67, 58
2, 228, Note_off_c, 0, 67, 64
2, 228, Note_off_c, 0, 72, 64
2, 240, Note_on_c, 0, 76, 77
2, 240, Note_on_c, 0, 60, 77
2, 288, Note_off_c, 0, 60, 64
2, 300, Note_on_c, 0, 67, 61
2, 348, Note_off_c, 0, 67, 64
2, 360, Note_on_c, 0, 64, 77
2, 408, Note_off_c, 0, 64, 64
2, 420, Note_on_c, 0, 67, 58
2, 432, Note_off_c, 0, 76, 64
2, 468, Note_off_c, 0, 67, 64
2, 480, Note_on_c, 0, 79, 66
2, 480, Note_on_c, 0, 60, 54
2, 528, Note_off_c, 0, 60, 64
2, 540, Note_on_c, 0, 67, 58
2, 588, Note_off_c, 0, 67, 64
2, 600, Note_on_c, 0, 64, 61
2, 648, Note_off_c, 0, 64, 64
2, 660, Note_on_c, 0, 67, 46
2, 672, Note_off_c, 0, 79, 64
2, 708, Note_off_c, 0, 67, 64
2, 720, Note_on_c, 0, 84, 58
2, 720, Note_on_c, 0, 60, 52
2, 768, Note_off_c, 0, 60, 64
2, 780, Note_on_c, 0, 67, 52
2, 828, Note_off_c, 0, 67, 64
2, 840, Note_on_c, 0, 64, 77
2, 888, Note_off_c, 0, 64, 64
2, 900, Note_on_c, 0, 67, 58
2, 912, Note_off_c, 0, 84, 64
2, 948, Note_off_c, 0, 67, 64
2, 960, Note_on_c, 0, 72, 77
2, 960, Note_on_c, 0, 60, 54
2, 984, Note_off_c, 0, 72, 64
2, 990, Note_on_c, 0, 71, 44
2, 1008, Note_off_c, 0, 60, 64
2, 1014, Note_off_c, 0, 71, 64
2, 1020, Note_on_c, 0, 69, 66
2, 1020, Note_on_c, 0, 72, 42
2, 1068, Note_off_c, 0, 69, 64
2, 1080, Note_on_c, 0, 65, 66
2, 1128, Note_off_c, 0, 65, 64
2, 1140, Note_on_c, 0, 69, 66
2, 1188, Note_off_c, 0, 72, 64
2, 1188, Note_off_c, 0, 69, 64
2, 1200, Note_on_c, 0, 60, 71
2, 1200, Note_on_c, 0, 77, 80
2, 1248, Note_off_c, 0, 60, 64
2, 1260, Note_on_c, 0, 69, 66
2, 1308, Note_off_c, 0, 69, 64
2, 1320, Note_on_c, 0, 65, 71
2, 1368, Note_off_c, 0, 65, 64
2, 1380, Note_on_c, 0, 69, 61
2, 1392, Note_off_c, 0, 77, 64
2, 1428, Note_off_c, 0, 69, 64
2, 1440, Note_on_c, 0, 81, 80
2, 1440, Note_on_c, 0, 60, 77
2, 1488, Note_off_c, 0, 60, 64
2, 1500, Note_on_c, 0, 69, 71
2, 1548, Note_off_c, 0, 69, 64
2, 1560, Note_on_c, 0, 65, 66
2, 1608, Note_off_c, 0, 65, 64
2, 1620, Note_on_c, 0, 69, 61
2, 1632, Note_off_c, 0, 81, 64
2, 1668, Note_off_c, 0, 69, 64
2, 1680, Note_on_c, 0, 84, 80
2, 1680, Note_on_c, 0, 60, 71
2, 1728, Note_off_c, 0, 60, 64
2, 1740, Note_on_c, 0, 69, 61
2, 1788, Note_off_c, 0, 69, 64
2, 1800, Note_on_c, 0, 65, 50
2, 1848, Note_off_c, 0, 65, 64
2, 1860, Note_on_c, 0, 69, 58
2, 1872, Note_off_c, 0, 84, 64
2, 1908, Note_off_c, 0, 69, 64
2, 1920, Note_on_c, 0, 72, 77
2, 1920, Note_on_c, 0, 60, 52
2, 1944, Note_off_c, 0, 72, 64
2, 1950, Note_on_c, 0, 71, 44
2, 1968, Note_off_c, 0, 60, 64
2, 1974, Note_off_c, 0, 71, 64
2, 1980, Note_on_c, 0, 67, 50
2, 1980, Note_on_c, 0, 72, 42
2, 2028, Note_off_c, 0, 67, 64
2, 2040, Note_on_c, 0, 64, 66
2, 2088, Note_off_c, 0, 64, 64
2, 2100, Note_on_c, 0, 67, 58
2, 2148, Note_off_c, 0, 72, 64
2, 2148, Note_off_c, 0, 67, 64
2, 2160, Note_on_c, 0, 60, 44
2, 2160, Note_on_c, 0, 76, 71
2, 2208, Note_off_c, 0, 60, 64
2, 2220, Note_on_c, 0, 67, 45
2, 2268, Note_off_c, 0, 67, 64
2, 2280, Note_on_c, 0, 64, 61
2, 2328, Note_off_c, 0, 64, 64
2, 2340, Note_on_c, 0, 67, 66
2, 2352, Note_off_c, 0, 76, 64
2, 2388, Note_off_c, 0, 67, 64
2, 2400, Note_on_c, 0, 79, 71
2, 2400, Note_on_c, 0, 60, 61
2, 2448, Note_off_c, 0, 60, 64
2, 2460, Note_on_c, 0, 67, 54
2, 2508, Note_off_c, 0, 67, 64
2, 2520, Note_on_c, 0, 64, 66
2, 2568, Note_off_c, 0, 64, 64
2, 2580, Note_on_c, 0, 67, 61
2, 2592, Note_off_c, 0, 79, 64
2, 2628, Note_off_c, 0, 67, 64
2, 2640, Note_on_c, 0, 84, 77
2, 2640, Note_on_c, 0, 60, 61
2, 2688, Note_off_c, 0, 60, 64
2, 2700, Note_on_c, 0, 67, 71
2, 2748, Note_off_c, 0, 67, 64
2, 2760, Note_on_c, 0, 64, 77
2, 2808, Note_off_c, 0, 64, 64
2, 2820, Note_on_c, 0, 67, 52
2, 2832, Note_off_c, 0, 84, 64
2, 2868, Note_off_c, 0, 67, 64
2, 2880, Note_on_c, 0, 77, 45
2, 2880, Note_on_c, 0, 59, 54
2, 2904, Note_off_c, 0, 77, 64
2, 2910, Note_on_c, 0, 76, 89
2, 2928, Note_off_c, 0, 59, 64
2, 2934, Note_off_c, 0, 76, 64
2, 2940, Note_on_c, 0, 77, 54
2, 2940, Note_on_c, 0, 67, 62
2, 2988, Note_off_c, 0, 67, 64
2, 3000, Note_on_c, 0, 62, 66
2, 3048, Note_off_c, 0, 62, 64
2, 3060, Note_on_c, 0, 67, 61
2, 3084, Note_off_c, 0, 77, 64
2, 3108, Note_off_c, 0, 67, 64
2, 3120, Note_on_c, 0, 59, 54
2, 3168, Note_off_c, 0, 59, 64
2, 3180, Note_on_c, 0, 67, 50
2, 3228, Note_off_c, 0, 67, 64
2, 3240, Note_on_c, 0, 62, 66
2, 3288, Note_off_c, 0, 62, 64
2, 3300, Note_on_c, 0, 67, 58
2, 3348, Note_off_c, 0, 67, 64
2, 3360, Note_on_c, 0, 76, 44
2, 3360, Note_on_c, 0, 60, 77
2, 3384, Note_off_c, 0, 76, 64
2, 3390, Note_on_c, 0, 74, 58
2, 3408, Note_off_c, 0, 60, 64
2, 3414, Note_off_c, 0, 74, 64
2, 3420, Note_on_c, 0, 76, 77
2, 3420, Note_on_c, 0, 67, 66
2, 3468, Note_off_c, 0, 67, 64
2, 3480, Note_on_c, 0, 64, 61
2, 3528, Note_off_c, 0, 64, 64
2, 3540, Note_on_c, 0, 67, 61
2, 3564, Note_off_c, 0, 76, 64
2, 3588, Note_off_c, 0, 67, 64
2, 3600, Note_on_c, 0, 60, 71
2, 3648, Note_off_c, 0, 60, 64
2, 3660, Note_on_c, 0, 67, 61
2, 3708, Note_off_c, 0, 67, 64
2, 3720, Note_on_c, 0, 64, 83
2, 3768, Note_off_c, 0, 64, 64
2, 3780, Note_on_c, 0, 67, 47
2, 3828, Note_off_c, 0, 67, 64
2, 3840, Note_on_c, 0, 77, 45
2, 3840, Note_on_c, 0, 59, 83
2, 3864, Note_off_c, 0, 77, 64
2, 3870, Note_on_c, 0, 76, 89
2, 3888, Note_off_c, 0, 59, 64
2, 3894, Note_off_c, 0, 76, 64
2, 3900, Note_on_c, 0, 77, 54
2, 3900, Note_on_c, 0, 67, 61
2, 3948, Note_off_c, 0, 67, 64
2, 3960, Note_on_c, 0, 62, 71
2, 4008, Note_off_c, 0, 62, 64
2, 4020, Note_on_c, 0, 67, 52
2, 4044, Note_off_c, 0, 77, 64
2, 4068, Note_off_c, 0, 67, 64
2, 4080, Note_on_c, 0, 59, 54
2, 4128, Note_off_c, 0, 59, 64
2, 4140, Note_on_c, 0, 67, 58
2, 4188, Note_off_c, 0, 67, 64
2, 4200, Note_on_c, 0, 62, 77
2, 4248, Note_off_c, 0, 62, 64
2, 4260, Note_on_c, 0, 67, 55
2, 4308, Note_off_c, 0, 67, 64
2, 4320, Note_on_c, 0, 76, 44
2, 4320, Note_on_c, 0, 60, 77
2, 4344, Note_off_c, 0, 76, 64
2, 4350, Note_on_c, 0, 74, 58
2, 4368, Note_off_c, 0, 60, 64
2, 4374, Note_off_c, 0, 74, 64
2, 4380, Note_on_c, 0, 76, 77
2, 4380, Note_on_c, 0, 67, 66
2, 4428, Note_off_c, 0, 67, 64
2, 4440, Note_on_c, 0, 64, 77
2, 4488, Note_off_c, 0, 64, 64
2, 4500, Note_on_c, 0, 67, 61
2, 4524, Note_off_c, 0, 76, 64
2, 4548, Note_off_c, 0, 67, 64
2, 4560, Note_on_c, 0, 60, 50
2, 4608, Note_off_c, 0, 60, 64
2, 4620, Note_on_c, 0, 67, 47
2, 4668, Note_off_c, 0, 67, 64
2, 4680, Note_on_c, 0, 64, 54
2, 4728, Note_off_c, 0, 64, 64
2, 4740, Note_on_c, 0, 67, 44
2, 4788, Note_off_c, 0, 67, 64
2, 4800, Note_on_c, 0, 65, 89
2, 4800, Note_on_c, 0, 74, 58
2, 4848, Note_off_c, 0, 74, 64
2, 4860, Note_on_c, 0, 73, 58
2, 4908, Note_off_c, 0, 73, 64
2, 4920, Note_on_c, 0, 74, 66
2, 4968, Note_off_c, 0, 74, 64
2, 4980, Note_on_c, 0, 76, 77
2, 5028, Note_off_c, 0, 76, 64
2, 5040, Note_on_c, 0, 77, 71
2, 5088, Note_off_c, 0, 77, 64
2, 5100, Note_on_c, 0, 76, 77
2, 5148, Note_off_c, 0, 76, 64
2, 5160, Note_on_c, 0, 77, 71
2, 5208, Note_off_c, 0, 77, 64
2, 5220, Note_on_c, 0, 79, 61
2, 5268, Note_off_c, 0, 79, 64
2, 5280, Note_on_c, 0, 81, 71
2, 5376, Note_off_c, 0, 81, 64
2, 5376, Note_off_c, 0, 65, 64
2, 5400, Note_on_c, 0, 69, 67
2, 5496, Note_off_c, 0, 69, 64
2, 5520, Note_on_c, 0, 71, 71
2, 5520, Note_on_c, 0, 66, 77
2, 5616, Note_off_c, 0, 71, 64
2, 5640, Note_on_c, 0, 72, 61
2, 5712, Note_off_c, 0, 66, 64
2, 5736, Note_off_c, 0, 72, 64
2, 5760, Note_on_c, 0, 72, 52
2, 5760, Note_on_c, 0, 67, 58
2, 5808, Note_off_c, 0, 72, 64
2, 5820, Note_on_c, 0, 71, 61
2, 5868, Note_off_c, 0, 71, 64
2, 5880, Note_on_c, 0, 69, 52
2, 5928, Note_off_c, 0, 69, 64
2, 5940, Note_on_c, 0, 67, 47
2, 5952, Note_off_c, 0, 67, 64
2, 5988, Note_off_c, 0, 67, 64
2, 6000, Note_on_c, 0, 67, 42
2, 6000, Note_on_c, 0, 59, 43
2, 6000, Note_on_c, 0, 55, 42
2, 6192, Note_off_c, 0, 55, 64
2, 6192, Note_off_c, 0, 59, 64
2, 6192, Note_off_c, 0, 67, 64
2, 6240, Note_on_c, 0, 67, 42
2, 6240, Note_on_c, 0, 55, 42
2, 6240, Note_on_c, 0, 59, 42
2, 6432, Note_off_c, 0, 59, 64
2, 6432, Note_off_c, 0, 55, 64
2, 6432, Note_off_c, 0, 67, 64
2, 6720, Note_on_c, 0, 71, 58
2, 6720, Note_on_c, 0, 55, 50
2, 6768, Note_off_c, 0, 55, 64
2, 6780, Note_on_c, 0, 62, 58
2, 6816, Note_off_c, 0, 71, 64
2, 6828, Note_off_c, 0, 62, 64
2, 6840, Note_on_c, 0, 74, 71
2, 6840, Note_on_c, 0, 59, 1
2, 6888, Note_off_c, 0, 59, 64
2, 6900, Note_on_c, 0, 62, 46
2, 6936, Note_off_c, 0, 74, 64
2, 6948, Note_off_c, 0, 62, 64
2, 6960, Note_on_c, 0, 55, 58
2, 7008, Note_off_c, 0, 55, 64
2, 7020, Note_on_c, 0, 62, 61
2, 7068, Note_off_c, 0, 62, 64
2, 7080, Note_on_c, 0, 74, 77
2, 7080, Note_on_c, 0, 59, 42
2, 7128, Note_off_c, 0, 59, 64
2, 7140, Note_on_c, 0, 62, 1
2, 7176, Note_off_c, 0, 74, 64
2, 7188, Note_off_c, 0, 62, 64
2, 7200, Note_on_c, 0, 79, 61
2, 7200, Note_on_c, 0, 55, 50
2, 7248, Note_off_c, 0, 55, 64
2, 7260, Note_on_c, 0, 62, 52
2, 7296, Note_off_c, 0, 79, 64
2, 7308, Note_off_c, 0, 62, 64
2, 7320, Note_on_c, 0, 59, 46
2, 7320, Note_on_c, 0, 74, 89
2, 7368, Note_off_c, 0, 59, 64
2, 7380, Note_on_c, 0, 62, 58
2, 7416, Note_off_c, 0, 74, 64
2, 7428, Note_off_c, 0, 62, 64
2, 7440, Note_on_c, 0, 55, 58
2, 7488, Note_off_c, 0, 55, 64
2, 7500, Note_on_c, 0, 62, 54
2, 7548, Note_off_c, 0, 62, 64
2, 7560, Note_on_c, 0, 71, 47
2, 7560, Note_on_c, 0, 59, 54
2, 7608, Note_off_c, 0, 59, 64
2, 7620, Note_on_c, 0, 62, 58
2, 7656, Note_off_c, 0, 71, 64
2, 7668, Note_off_c, 0, 62, 64
2, 7680, Note_on_c, 0, 72, 71
2, 7680, Note_on_c, 0, 54, 77
2, 7728, Note_off_c, 0, 54, 64
2, 7740, Note_on_c, 0, 62, 58
2, 7776, Note_off_c, 0, 72, 64
2, 7788, Note_off_c, 0, 62, 64
2, 7800, Note_on_c, 0, 69, 66
2, 7800, Note_on_c, 0, 57, 77
2, 7848, Note_off_c, 0, 57, 64
2, 7860, Note_on_c, 0, 62, 66
2, 7896, Note_off_c, 0, 69, 64
2, 7908, Note_off_c, 0, 62, 64
2, 7920, Note_on_c, 0, 54, 71
2, 7968, Note_off_c, 0, 54, 64
2, 7980, Note_on_c, 0, 62, 61
2, 8028, Note_off_c, 0, 62, 64
2, 8040, Note_on_c, 0, 78, 71
2, 8040, Note_on_c, 0, 57, 83
2, 8088, Note_off_c, 0, 57, 64
2, 8100, Note_on_c, 0, 62, 61
2, 8136, Note_off_c, 0, 78, 64
2, 8148, Note_off_c, 0, 62, 64
2, 8160, Note_on_c, 0, 81, 66
2, 8160, Note_on_c, 0, 54, 78
2, 8208, Note_off_c, 0, 54, 64
2, 8220, Note_on_c, 0, 62, 62
2, 8256, Note_off_c, 0, 81, 64
2, 8268, Note_off_c, 0, 62, 64
2, 8280, Note_on_c, 0, 57, 83
2, 8280, Note_on_c, 0, 72, 77
2, 8328, Note_off_c, 0, 57, 64
2, 8340, Note_on_c, 0, 62, 58
2, 8376, Note_off_c, 0, 72, 64
2, 8388, Note_off_c, 0, 62, 64
2, 8400, Note_on_c, 0, 54, 66
2, 8448, Note_off_c, 0, 54, 64
2, 8460, Note_on_c, 0, 62, 50
2, 8508, Note_off_c, 0, 62, 64
2, 8520, Note_on_c, 0, 72, 71
2, 8520, Note_on_c, 0, 57, 77
2, 8568, Note_off_c, 0, 57, 64
2, 8580, Note_on_c, 0, 62, 66
2, 8616, Note_off_c, 0, 72, 64
2, 8628, Note_off_c, 0, 62, 64
2, 8640, Note_on_c, 0, 71, 61
2, 8640, Note_on_c, 0, 55, 71
2, 8688, Note_off_c, 0, 55, 64
2, 8700, Note_on_c, 0, 62, 71
2, 8736, Note_off_c, 0, 71, 64
2, 8748, Note_off_c, 0, 62, 64
2, 8760, Note_on_c, 0, 74, 58
2, 8760, Note_on_c, 0, 59, 89
2, 8808, Note_off_c, 0, 59, 64
2, 8820, Note_on_c, 0, 62, 61
2, 8856, Note_off_c, 0, 74, 64
2, 8868, Note_off_c, 0, 62, 64
2, 8880, Note_on_c, 0, 55, 77
2, 8928, Note_off_c, 0, 55, 64
2, 8940, Note_on_c, 0, 62, 71
2, 8988, Note_off_c, 0, 62, 64
2, 9000, Note_on_c, 0, 74, 77
2, 9000, Note_on_c, 0, 59, 77
2, 9048, Note_off_c, 0, 59, 64
2, 9060, Note_on_c, 0, 62, 66
2, 9096, Note_off_c, 0, 74, 64
2, 9108, Note_off_c, 0, 62, 64
2, 9120, Note_on_c, 0, 79, 66
2, 9120, Note_on_c, 0, 55, 67
2, 9168, Note_off_c, 0, 55, 64
2, 9180, Note_on_c, 0, 62, 58
2, 9216, Note_off_c, 0, 79, 64
2, 9228, Note_off_c, 0, 62, 64
2, 9240, Note_on_c, 0, 59, 78
2, 9240, Note_on_c, 0, 74, 71
2, 9288, Note_off_c, 0, 59, 64
2, 9300, Note_on_c, 0, 62, 66
2, 9336, Note_off_c, 0, 74, 64
2, 9348, Note_off_c, 0, 62, 64
2, 9360, Note_on_c, 0, 55, 66
2, 9408, Note_off_c, 0, 55, 64
2, 9420, Note_on_c, 0, 62, 71
2, 9468, Note_off_c, 0, 62, 64
2, 9480, Note_on_c, 0, 71, 61
2, 9480, Note_on_c, 0, 59, 83
2, 9528, Note_off_c, 0, 59, 64
2, 9540, Note_on_c, 0, 62, 42
2, 9576, Note_off_c, 0, 71, 64
2, 9588, Note_off_c, 0, 62, 64
2, 9600, Note_on_c, 0, 72, 66
2, 9600, Note_on_c, 0, 54, 58
2, 9648, Note_off_c, 0, 54, 64
2, 9660, Note_on_c, 0, 62, 66
2, 9696, Note_off_c, 0, 72, 64
2, 9708, Note_off_c, 0, 62, 64
2, 9720, Note_on_c, 0, 69, 58
2, 9720, Note_on_c, 0, 57, 71
2, 9768, Note_off_c, 0, 57, 64
2, 9780, Note_on_c, 0, 62, 71
2, 9816, Note_off_c, 0, 69, 64
2, 9828, Note_off_c, 0, 62, 64
2, 9840, Note_on_c, 0, 54, 83
2, 9888, Note_off_c, 0, 54, 64
2, 9900, Note_on_c, 0, 62, 58
2, 9948, Note_off_c, 0, 62, 64
2, 9960, Note_on_c, 0, 78, 77
2, 9960, Note_on_c, 0, 57, 71
2, 10008, Note_off_c, 0, 57, 64
2, 10020, Note_on_c, 0, 62, 77
2, 10056, Note_off_c, 0, 78, 64
2, 10068, Note_off_c, 0, 62, 64
2, 10080, Note_on_c, 0, 81, 58
2, 10080, Note_on_c, 0, 54, 77
2, 10128, Note_off_c, 0, 54, 64
2, 10140, Note_on_c, 0, 62, 54
2, 10176, Note_off_c, 0, 81, 64
2, 10188, Note_off_c, 0, 62, 64
2, 10200, Note_on_c, 0, 57, 50
2, 10200, Note_on_c, 0, 72, 89
2, 10248, Note_off_c, 0, 57, 64
2, 10260, Note_on_c, 0, 62, 61
2, 10296, Note_off_c, 0, 72, 64
2, 10308, Note_off_c, 0, 62, 64
2, 10320, Note_on_c, 0, 54, 77
2, 10368, Note_off_c, 0, 54, 64
2, 10380, Note_on_c, 0, 62, 61
2, 10428, Note_off_c, 0, 62, 64
2, 10440, Note_on_c, 0, 72, 42
2, 10440, Note_on_c, 0, 57, 61
2, 10488, Note_off_c, 0, 57, 64
2, 10500, Note_on_c, 0, 62, 50
2, 10536, Note_off_c, 0, 72, 64
2, 10548, Note_off_c, 0, 62, 64
2, 10560, Note_on_c, 0, 71, 61
2, 10560, Note_on_c, 0, 55, 71
2, 10608, Note_off_c, 0, 71, 64
2, 10620, Note_on_c, 0, 79, 61
2, 10668, Note_off_c, 0, 79, 64
2, 10680, Note_on_c, 0, 78, 66
2, 10728, Note_off_c, 0, 78, 64
2, 10740, Note_on_c, 0, 79, 71
2, 10752, Note_off_c, 0, 55, 64
2, 10788, Note_off_c, 0, 79, 64
2, 10800, Note_on_c, 0, 81, 71
2, 10848, Note_off_c, 0, 81, 64
2, 10860, Note_on_c, 0, 79, 58
2, 10908, Note_off_c, 0, 79, 64
2, 10920, Note_on_c, 0, 78, 52
2, 10968, Note_off_c, 0, 78, 64
2, 10980, Note_on_c, 0, 79, 54
2, 11028, Note_off_c, 0, 79, 64
2, 11040, Note_on_c, 0, 74, 71
2, 11040, Note_on_c, 0, 67, 47
2, 11040, Note_on_c, 0, 59, 50
2, 11088, Note_off_c, 0, 74, 64
2, 11100, Note_on_c, 0, 77, 43
2, 11148, Note_off_c, 0, 77, 64
2, 11160, Note_on_c, 0, 76, 71
2, 11208, Note_off_c, 0, 76, 64
2, 11220, Note_on_c, 0, 77, 66
2, 11232, Note_off_c, 0, 59, 64
2, 11232, Note_off_c, 0, 67, 64
2, 11268, Note_off_c, 0, 77, 64
2, 11280, Note_on_c, 0, 79, 54
2, 11328, Note_off_c, 0, 79, 64
2, 11340, Note_on_c, 0, 77, 71
2, 11388, Note_off_c, 0, 77, 64
2, 11400, Note_on_c, 0, 76, 66
2, 11448, Note_off_c, 0, 76, 64
2, 11460, Note_on_c, 0, 77, 45
2, 11508, Note_off_c, 0, 77, 64
2, 11520, Note_on_c, 0, 60, 58
2, 11520, Note_on_c, 0, 76, 61
2, 11568, Note_off_c, 0, 60, 64
2, 11580, Note_on_c, 0, 67, 58
2, 11628, Note_off_c, 0, 67, 64
2, 11640, Note_on_c, 0, 64, 66
2, 11688, Note_off_c, 0, 64, 64
2, 11700, Note_on_c, 0, 67, 52
2, 11712, Note_off_c, 0, 76, 64
2, 11748, Note_off_c, 0, 67, 64
2, 11760, Note_on_c, 0, 76, 66
2, 11760, Note_on_c, 0, 60, 61
2, 11808, Note_off_c, 0, 60, 64
2, 11820, Note_on_c, 0, 67, 52
2, 11868, Note_off_c, 0, 67, 64
2, 11880, Note_on_c, 0, 64, 66
2, 11928, Note_off_c, 0, 64, 64
2, 11940, Note_on_c, 0, 67, 66
2, 11988, Note_off_c, 0, 67, 64
2, 12000, Note_on_c, 0, 60, 61
2, 12096, Note_off_c, 0, 76, 64
2, 12120, Note_on_c, 0, 79, 50
2, 12192, Note_off_c, 0, 60, 64
2, 12216, Note_off_c, 0, 79, 64
2, 12240, Note_on_c, 0, 78, 58
2, 12288, Note_off_c, 0, 78, 64
2, 12300, Note_on_c, 0, 76, 61
2, 12348, Note_off_c, 0, 76, 64
2, 12360, Note_on_c, 0, 74, 58
2, 12408, Note_off_c, 0, 74, 64
2, 12420, Note_on_c, 0, 72, 89
2, 12468, Note_off_c, 0, 72, 64
2, 12480, Note_on_c, 0, 55, 42
2, 12480, Note_on_c, 0, 50, 57
2, 12480, Note_on_c, 0, 71, 71
2, 12576, Note_off_c, 0, 71, 64
2, 12576, Note_off_c, 0, 50, 64
2, 12576, Note_off_c, 0, 55, 64
2, 12600, Note_on_c, 0, 50, 50
2, 12600, Note_on_c, 0, 74, 61
2, 12600, Note_on_c, 0, 55, 47
2, 12696, Note_off_c, 0, 55, 64
2, 12696, Note_off_c, 0, 74, 64
2, 12696, Note_off_c, 0, 50, 64
2, 12720, Note_on_c, 0, 55, 42
2, 12720, Note_on_c, 0, 50, 44
2, 12720, Note_on_c, 0, 72, 77
2, 12768, Note_off_c, 0, 72, 64
2, 12780, Note_on_c, 0, 71, 71
2, 12816, Note_off_c, 0, 50, 64
2, 12816, Note_off_c, 0, 55, 64
2, 12828, Note_off_c, 0, 71, 64
2, 12840, Note_on_c, 0, 69, 67
2, 12840, Note_on_c, 0, 50, 56
2, 12840, Note_on_c, 0, 55, 42
2, 12888, Note_off_c, 0, 69, 64
2, 12900, Note_on_c, 0, 67, 43
2, 12936, Note_off_c, 0, 55, 64
2, 12936, Note_off_c, 0, 50, 64
2, 12948, Note_off_c, 0, 67, 64
2, 12960, Note_on_c, 0, 71, 50
2, 12960, Note_on_c, 0, 54, 54
2, 12960, Note_on_c, 0, 50, 54
2, 12972, Note_off_c, 0, 71, 64
2, 12975, Note_on_c, 0, 69, 46
2, 12987, Note_off_c, 0, 69, 64
2, 12990, Note_on_c, 0, 71, 42
2, 13002, Note_off_c, 0, 71, 64
2, 13005, Note_on_c, 0, 69, 52
2, 13017, Note_off_c, 0, 69, 64
2, 13020, Note_on_c, 0, 71, 44
2, 13032, Note_off_c, 0, 71, 64
2, 13035, Note_on_c, 0, 69, 42
2, 13047, Note_off_c, 0, 69, 64
2, 13050, Note_on_c, 0, 71, 49
2, 13056, Note_off_c, 0, 50, 64
2, 13056, Note_off_c, 0, 54, 64
2, 13062, Note_off_c, 0, 71, 64
2, 13065, Note_on_c, 0, 69, 42
2, 13077, Note_off_c, 0, 69, 64
2, 13080, Note_on_c, 0, 71, 42
2, 13080, Note_on_c, 0, 54, 47
2, 13080, Note_on_c, 0, 50, 50
2, 13092, Note_off_c, 0, 71, 64
2, 13095, Note_on_c, 0, 69, 42
2, 13107, Note_off_c, 0, 69, 64
2, 13110, Note_on_c, 0, 71, 47
2, 13122, Note_off_c, 0, 71, 64
2, 13125, Note_on_c, 0, 69, 42
2, 13137, Note_off_c, 0, 69, 64
2, 13140, Note_on_c, 0, 71, 43
2, 13152, Note_off_c, 0, 71, 64
2, 13155, Note_on_c, 0, 69, 50
2, 13167, Note_off_c, 0, 69, 64
2, 13170, Note_on_c, 0, 71, 45
2, 13176, Note_off_c, 0, 50, 64
2, 13176, Note_off_c, 0, 54, 64
2, 13182, Note_off_c, 0, 71, 64
2, 13185, Note_on_c, 0, 69, 50
2, 13197, Note_off_c, 0, 69, 64
2, 13200, Note_on_c, 0, 71, 45
2, 13200, Note_on_c, 0, 54, 47
2, 13200, Note_on_c, 0, 50, 47
2, 13212, Note_off_c, 0, 71, 64
2, 13215, Note_on_c, 0, 69, 42
2, 13227, Note_off_c, 0, 69, 64
2, 13230, Note_on_c, 0, 71, 42
2, 13242, Note_off_c, 0, 71, 64
2, 13245, Note_on_c, 0, 69, 42
2, 13257, Note_off_c, 0, 69, 64
2, 13260, Note_on_c, 0, 71, 42
2, 13272, Note_off_c, 0, 71, 64
2, 13275, Note_on_c, 0, 69, 43
2, 13287, Note_off_c, 0, 69, 64
2, 13290, Note_on_c, 0, 71, 45
2, 13296, Note_off_c, 0, 50, 64
2, 13296, Note_off_c, 0, 54, 64
2, 13302, Note_off_c, 0, 71, 64
2, 13305, Note_on_c, 0, 69, 42
2, 13317, Note_off_c, 0, 69, 64
2, 13320, Note_on_c, 0, 71, 47
2, 13320, Note_on_c, 0, 54, 50
2, 13320, Note_on_c, 0, 50, 50
2, 13332, Note_off_c, 0, 71, 64
2, 13335, Note_on_c, 0, 69, 44
2, 13347, Note_off_c, 0, 69, 64
2, 13350, Note_on_c, 0, 71, 21
2, 13362, Note_off_c, 0, 71, 64
2, 13365, Note_on_c, 0, 69, 41
2, 13377, Note_off_c, 0, 69, 64
2, 13380, Note_on_c, 0, 71, 42
2, 13392, Note_off_c, 0, 71, 64
2, 13395, Note_on_c, 0, 69, 42
2, 13407, Note_off_c, 0, 69, 64
2, 13410, Note_on_c, 0, 71, 44
2, 13416, Note_off_c, 0, 50, 64
2, 13416, Note_off_c, 0, 54, 64
2, 13422, Note_off_c, 0, 71, 64
2, 13425, Note_on_c, 0, 69, 42
2, 13437, Note_off_c, 0, 69, 64
2, 13440, Note_on_c, 0, 67, 71
2, 13440, Note_on_c, 0, 55, 62
2, 13632, Note_off_c, 0, 55, 64
2, 13632, Note_off_c, 0, 67, 64
2, 13680, Note_on_c, 0, 59, 66
2, 13740, Note_on_c, 0, 74, 61
2, 13788, Note_off_c, 0, 74, 64
2, 13800, Note_on_c, 0, 71, 44
2, 13848, Note_off_c, 0, 71, 64
2, 13860, Note_on_c, 0, 67, 66
2, 13872, Note_off_c, 0, 59, 64
2, 13908, Note_off_c, 0, 67, 64
2, 13920, Note_on_c, 0, 60, 71
2, 13980, Note_on_c, 0, 76, 77
2, 14028, Note_off_c, 0, 76, 64
2, 14040, Note_on_c, 0, 75, 61
2, 14088, Note_off_c, 0, 75, 64
2, 14100, Note_on_c, 0, 76, 61
2, 14112, Note_off_c, 0, 60, 64
2, 14148, Note_off_c, 0, 76, 64
2, 14160, Note_on_c, 0, 62, 77
2, 14220, Note_on_c, 0, 72, 50
2, 14268, Note_off_c, 0, 72, 64
2, 14280, Note_on_c, 0, 69, 45
2, 14328, Note_off_c, 0, 69, 64
2, 14340, Note_on_c, 0, 66, 40
2, 14352, Note_off_c, 0, 62, 64
2, 14388, Note_off_c, 0, 66, 64
2, 14400, Note_on_c, 0, 67, 52
2, 14400, Note_on_c, 0, 64, 77
2, 14496, Note_off_c, 0, 67, 64
2, 14520, Note_on_c, 0, 71, 47
2, 14592, Note_off_c, 0, 64, 64
2, 14616, Note_off_c, 0, 71, 64
2, 14640, Note_on_c, 0, 59, 66
2, 14700, Note_on_c, 0, 74, 71
2, 14748, Note_off_c, 0, 74, 64
2, 14760, Note_on_c, 0, 71, 71
2, 14808, Note_off_c, 0, 71, 64
2, 14820, Note_on_c, 0, 67, 50
2, 14832, Note_off_c, 0, 59, 64
2, 14868, Note_off_c, 0, 67, 64
2, 14880, Note_on_c, 0, 60, 77
2, 14940, Note_on_c, 0, 76, 77
2, 14988, Note_off_c, 0, 76, 64
2, 15000, Note_on_c, 0, 75, 77
2, 15048, Note_off_c, 0, 75, 64
2, 15060, Note_on_c, 0, 76, 45
2, 15072, Note_off_c, 0, 60, 64
2, 15108, Note_off_c, 0, 76, 64
2, 15120, Note_on_c, 0, 62, 77
2, 15180, Note_on_c, 0, 72, 52
2, 15228, Note_off_c, 0, 72, 64
2, 15240, Note_on_c, 0, 69, 42
2, 15288, Note_off_c, 0, 69, 64
2, 15300, Note_on_c, 0, 66, 42
2, 15312, Note_off_c, 0, 62, 64
2, 15348, Note_off_c, 0, 66, 64
2, 15360, Note_on_c, 0, 67, 58
2, 15360, Note_on_c, 0, 55, 58
2, 15408, Note_off_c, 0, 55, 64
2, 15420, Note_on_c, 0, 62, 77
2, 15468, Note_off_c, 0, 62, 64
2, 15480, Note_on_c, 0, 59, 54
2, 15528, Note_off_c, 0, 59, 64
2, 15540, Note_on_c, 0, 62, 61
2, 15552, Note_off_c, 0, 67, 64
2, 15588, Note_off_c, 0, 62, 64
2, 15600, Note_on_c, 0, 71, 71
2, 15600, Note_on_c, 0, 79, 44
2, 15600, Note_on_c, 0, 55, 71
2, 15648, Note_off_c, 0, 55, 64
2, 15660, Note_on_c, 0, 62, 71
2, 15708, Note_off_c, 0, 62, 64
2, 15720, Note_on_c, 0, 59, 66
2, 15768, Note_off_c, 0, 59, 64
2, 15780, Note_on_c, 0, 62, 58
2, 15792, Note_off_c, 0, 79, 64
2, 15792, Note_off_c, 0, 71, 64
2, 15828, Note_off_c, 0, 62, 64
2, 15840, Note_on_c, 0, 71, 61
2, 15840, Note_on_c, 0, 79, 42
2, 15840, Note_on_c, 0, 55, 80
2, 16032, Note_off_c, 0, 55, 64
2, 16032, Note_off_c, 0, 79, 64
2, 16032, Note_off_c, 0, 71, 64
2, 16320, Note_on_c, 0, 72, 77
2, 16320, Note_on_c, 0, 60, 61
2, 16344, Note_off_c, 0, 72, 64
2, 16350, Note_on_c, 0, 71, 44
2, 16368, Note_off_c, 0, 60, 64
2, 16374, Note_off_c, 0, 71, 64
2, 16380, Note_on_c, 0, 67, 52
2, 16380, Note_on_c, 0, 72, 42
2, 16428, Note_off_c, 0, 67, 64
2, 16440, Note_on_c, 0, 64, 77
2, 16488, Note_off_c, 0, 64, 64
2, 16500, Note_on_c, 0, 67, 58
2, 16548, Note_off_c, 0, 67, 64
2, 16548, Note_off_c, 0, 72, 64
2, 16560, Note_on_c, 0, 76, 77
2, 16560, Note_on_c, 0, 60, 77
2, 16608, Note_off_c, 0, 60, 64
2, 16620, Note_on_c, 0, 67, 61
2, 16668, Note_off_c, 0, 67, 64
2, 16680, Note_on_c, 0, 64, 77
2, 16728, Note_off_c, 0, 64, 64
2, 16740, Note_on_c, 0, 67, 58
2, 16752, Note_off_c, 0, 76, 64
2, 16788, Note_off_c, 0, 67, 64
2, 16800, Note_on_c, 0, 79, 66
2, 16800, Note_on_c, 0, 60, 54
2, 16848, Note_off_c, 0, 60, 64
2, 16860, Note_on_c, 0, 67, 58
2, 16908, Note_off_c, 0, 67, 64
2, 16920, Note_on_c, 0, 64, 61
2, 16968, Note_off_c, 0, 64, 64
2, 16980, Note_on_c, 0, 67, 46
2, 16992, Note_off_c, 0, 79, 64
2, 17028, Note_off_c, 0, 67, 64
2, 17040, Note_on_c, 0, 84, 58
2, 17040, Note_on_c, 0, 60, 52
2, 17088, Note_off_c, 0, 60, 64
2, 17100, Note_on_c, 0, 67, 52
2, 17148, Note_off_c, 0, 67, 64
2, 17160, Note_on_c, 0, 64, 77
2, 17208, Note_off_c, 0, 64, 64
2, 17220, Note_on_c, 0, 67, 58
2, 17232, Note_off_c, 0, 84, 64
2, 17268, Note_off_c, 0, 67, 64
2, 17280, Note_on_c, 0, 72, 77
2, 17280, Note_on_c, 0, 60, 54
2, 17304, Note_off_c, 0, 72, 64
2, 17310, Note_on_c, 0, 71, 44
2, 17328, Note_off_c, 0, 60, 64
2, 17334, Note_off_c, 0, 71, 64
2, 17340, Note_on_c, 0, 69, 66
2, 17340, Note_on_c, 0, 72, 42
2, 17388, Note_off_c, 0, 69, 64
2, 17400, Note_on_c, 0, 65, 66
2, 17448, Note_off_c, 0, 65, 64
2, 17460, Note_on_c, 0, 69, 66
2, 17508, Note_off_c, 0, 72, 64
2, 17508, Note_off_c, 0, 69, 64
2, 17520, Note_on_c, 0, 60, 71
2, 17520, Note_on_c, 0, 77, 80
2, 17568, Note_off_c, 0, 60, 64
2, 17580, Note_on_c, 0, 69, 66
2, 17628, Note_off_c, 0, 69, 64
2, 17640, Note_on_c, 0, 65, 71
2, 17688, Note_off_c, 0, 65, 64
2, 17700, Note_on_c, 0, 69, 61
2, 17712, Note_off_c, 0, 77, 64
2, 17748, Note_off_c, 0, 69, 64
2, 17760, Note_on_c, 0, 81, 80
2, 17760, Note_on_c, 0, 60, 77
2, 17808, Note_off_c, 0, 60, 64
2, 17820, Note_on_c, 0, 69, 71
2, 17868, Note_off_c, 0, 69, 64
2, 17880, Note_on_c, 0, 65, 66
2, 17928, Note_off_c, 0, 65, 64
2, 17940, Note_on_c, 0, 69, 61
2, 17952, Note_off_c, 0, 81, 64
2, 17988, Note_off_c, 0, 69, 64
2, 18000, Note_on_c, 0, 84, 80
2, 18000, Note_on_c, 0, 60, 71
2, 18048, Note_off_c, 0, 60, 64
2, 18060, Note_on_c, 0, 69, 61
2, 18108, Note_off_c, 0, 69, 64
2, 18120, Note_on_c, 0, 65, 50
2, 18168, Note_off_c, 0, 65, 64
2, 18180, Note_on_c, 0, 69, 58
2, 18192, Note_off_c, 0, 84, 64
2, 18228, Note_off_c, 0, 69, 64
2, 18240, Note_on_c, 0, 72, 77
2, 18240, Note_on_c, 0, 60, 52
2, 18264, Note_off_c, 0, 72, 64
2, 18270, Note_on_c, 0, 71, 44
2, 18288, Note_off_c, 0, 60, 64
2, 18294, Note_off_c, 0, 71, 64
2, 18300, Note_on_c, 0, 67, 50
2, 18300, Note_on_c, 0, 72, 42
2, 18348, Note_off_c, 0, 67, 64
2, 18360, Note_on_c, 0, 64, 66
2, 18408, Note_off_c, 0, 64, 64
2, 18420, Note_on_c, 0, 67, 58
2, 18468, Note_off_c, 0, 72, 64
2, 18468, Note_off_c, 0, 67, 64
2, 18480, Note_on_c, 0, 60, 44
2, 18480, Note_on_c, 0, 76, 71
2, 18528, Note_off_c, 0, 60, 64
2, 18540, Note_on_c, 0, 67, 45
2, 18588, Note_off_c, 0, 67, 64
2, 18600, Note_on_c, 0, 64, 61
2, 18648, Note_off_c, 0, 64, 64
2, 18660, Note_on_c, 0, 67, 66
2, 18672, Note_off_c, 0, 76, 64
2, 18708, Note_off_c, 0, 67, 64
2, 18720, Note_on_c, 0, 79, 71
2, 18720, Note_on_c, 0, 60, 61
2, 18768, Note_off_c, 0, 60, 64
2, 18780, Note_on_c, 0, 67, 54
2, 18828, Note_off_c, 0, 67, 64
2, 18840, Note_on_c, 0, 64, 66
2, 18888, Note_off_c, 0, 64, 64
2, 18900, Note_on_c, 0, 67, 61
2, 18912, Note_off_c, 0, 79, 64
2, 18948, Note_off_c, 0, 67, 64
2, 18960, Note_on_c, 0, 84, 77
2, 18960, Note_on_c, 0, 60, 61
2, 19008, Note_off_c, 0, 60, 64
2, 19020, Note_on_c, 0, 67, 71
2, 19068, Note_off_c, 0, 67, 64
2, 19080, Note_on_c, 0, 64, 77
2, 19128, Note_off_c, 0, 64, 64
2, 19140, Note_on_c, 0, 67, 52
2, 19152, Note_off_c, 0, 84, 64
2, 19188, Note_off_c, 0, 67, 64
2, 19200, Note_on_c, 0, 77, 45
2, 19200, Note_on_c, 0, 59, 54
2, 19224, Note_off_c, 0, 77, 64
2, 19230, Note_on_c, 0, 76, 89
2, 19248, Note_off_c, 0, 59, 64
2, 19254, Note_off_c, 0, 76, 64
2, 19260, Note_on_c, 0, 77, 54
2, 19260, Note_on_c, 0, 67, 62
2, 19308, Note_off_c, 0, 67, 64
2, 19320, Note_on_c, 0, 62, 66
2, 19368, Note_off_c, 0, 62, 64
2, 19380, Note_on_c, 0, 67, 61
2, 19404, Note_off_c, 0, 77, 64
2, 19428, Note_off_c, 0, 67, 64
2, 19440, Note_on_c, 0, 59, 54
2, 19488, Note_off_c, 0, 59, 64
2, 19500, Note_on_c, 0, 67, 50
2, 19548, Note_off_c, 0, 67, 64
2, 19560, Note_on_c, 0, 62, 66
2, 19608, Note_off_c, 0, 62, 64
2, 19620, Note_on_c, 0, 67, 58
2, 19668, Note_off_c, 0, 67, 64
2, 19680, Note_on_c, 0, 76, 44
2, 19680, Note_on_c, 0, 60, 77
2, 19704, Note_off_c, 0, 76, 64
2, 19710, Note_on_c, 0, 74, 58
2, 19728, Note_off_c, 0, 60, 64
2, 19734, Note_off_c, 0, 74, 64
2, 19740, Note_on_c, 0, 76, 77
2, 19740, Note_on_c, 0, 67, 66
2, 19788, Note_off_c, 0, 67, 64
2, 19800, Note_on_c, 0, 64, 61
2, 19848, Note_off_c, 0, 64, 64
2, 19860, Note_on_c, 0, 67, 61
2, 19884, Note_off_c, 0, 76, 64
2, 19908, Note_off_c, 0, 67, 64
2, 19920, Note_on_c, 0, 60, 71
2, 19968, Note_off_c, 0, 60, 64
2, 19980, Note_on_c, 0, 67, 61
2, 20028, Note_off_c, 0, 67, 64
2, 20040, Note_on_c, 0, 64, 83
2, 20088, Note_off_c, 0, 64, 64
2, 20100, Note_on_c, 0, 67, 47
2, 20148, Note_off_c, 0, 67, 64
2, 20160, Note_on_c, 0, 77, 45
2, 20160, Note_on_c, 0, 59, 83
2, 20184, Note_off_c, 0, 77, 64
2, 20190, Note_on_c, 0, 76, 89
2, 20208, Note_off_c, 0, 59, 64
2, 20214, Note_off_c, 0, 76, 64
2, 20220, Note_on_c, 0, 77, 54
2, 20220, Note_on_c, 0, 67, 61
2, 20268, Note_off_c, 0, 67, 64
2, 20280, Note_on_c, 0, 62, 71
2, 20328, Note_off_c, 0, 62, 64
2, 20340, Note_on_c, 0, 67, 52
2, 20364, Note_off_c, 0, 77, 64
2, 20388, Note_off_c, 0, 67, 64
2, 20400, Note_on_c, 0, 59, 54
2, 20448, Note_off_c, 0, 59, 64
2, 20460, Note_on_c, 0, 67, 58
2, 20508, Note_off_c, 0, 67, 64
2, 20520, Note_on_c, 0, 62, 77
2, 20568, Note_off_c, 0, 62, 64
2, 20580, Note_on_c, 0, 67, 55
2, 20628, Note_off_c, 0, 67, 64
2, 20640, Note_on_c, 0, 76, 44
2, 20640, Note_on_c, 0, 60, 77
2, 20664, Note_off_c, 0, 76, 64
2, 20670, Note_on_c, 0, 74, 58
2, 20688, Note_off_c, 0, 60, 64
2, 20694, Note_off_c, 0, 74, 64
2, 20700, Note_on_c, 0, 76, 77
2, 20700, Note_on_c, 0, 67, 66
2, 20748, Note_off_c, 0, 67, 64
2, 20760, Note_on_c, 0, 64, 77
2, 20808, Note_off_c, 0, 64, 64
2, 20820, Note_on_c, 0, 67, 61
2, 20844, Note_off_c, 0, 76, 64
2, 20868, Note_off_c, 0, 67, 64
2, 20880, Note_on_c, 0, 60, 50
2, 20928, Note_off_c, 0, 60, 64
2, 20940, Note_on_c, 0, 67, 47
2, 20988, Note_off_c, 0, 67, 64
2, 21000, Note_on_c, 0, 64, 54
2, 21048, Note_off_c, 0, 64, 64
2, 21060, Note_on_c, 0, 67, 44
2, 21108, Note_off_c, 0, 67, 64
2, 21120, Note_on_c, 0, 65, 89
2, 21120, Note_on_c, 0, 74, 58
2, 21168, Note_off_c, 0, 74, 64
2, 21180, Note_on_c, 0, 73, 58
2, 21228, Note_off_c, 0, 73, 64
2, 21240, Note_on_c, 0, 74, 66
2, 21288, Note_off_c, 0, 74, 64
2, 21300, Note_on_c, 0, 76, 77
2, 21348, Note_off_c, 0, 76, 64
2, 21360, Note_on_c, 0, 77, 71
2, 21408, Note_off_c, 0, 77, 64
2, 21420, Note_on_c, 0, 76, 77
2, 21468, Note_off_c, 0, 76, 64
2, 21480, Note_on_c, 0, 77, 71
2, 21528, Note_off_c, 0, 77, 64
2, 21540, Note_on_c, 0, 79, 61
2, 21588, Note_off_c, 0, 79, 64
2, 21600, Note_on_c, 0, 81, 71
2, 21696, Note_off_c, 0, 81, 64
2, 21696, Note_off_c, 0, 65, 64
2, 21720, Note_on_c, 0, 69, 67
2, 21816, Note_off_c, 0, 69, 64
2, 21840, Note_on_c, 0, 71, 71
2, 21840, Note_on_c, 0, 66, 77
2, 21936, Note_off_c, 0, 71, 64
2, 21960, Note_on_c, 0, 72, 61
2, 22032, Note_off_c, 0, 66, 64
2, 22056, Note_off_c, 0, 72, 64
2, 22080, Note_on_c, 0, 72, 52
2, 22080, Note_on_c, 0, 67, 58
2, 22128, Note_off_c, 0, 72, 64
2, 22140, Note_on_c, 0, 71, 61
2, 22188, Note_off_c, 0, 71, 64
2, 22200, Note_on_c, 0, 69, 52
2, 22248, Note_off_c, 0, 69, 64
2, 22260, Note_on_c, 0, 67, 47
2, 22272, Note_off_c, 0, 67, 64
2, 22308, Note_off_c, 0, 67, 64
2, 22320, Note_on_c, 0, 67, 42
2, 22320, Note_on_c, 0, 59, 43
2, 22320, Note_on_c, 0, 55, 42
2, 22512, Note_off_c, 0, 55, 64
2, 22512, Note_off_c, 0, 59, 64
2, 22512, Note_off_c, 0, 67, 64
2, 22560, Note_on_c, 0, 67, 42
2, 22560, Note_on_c, 0, 55, 42
2, 22560, Note_on_c, 0, 59, 42
2, 22752, Note_off_c, 0, 59, 64
2, 22752, Note_off_c, 0, 55, 64
2, 22752, Note_off_c, 0, 67, 64
2, 23040, Note_on_c, 0, 71, 58
2, 23040, Note_on_c, 0, 55, 50
2, 23088, Note_off_c, 0, 55, 64
2, 23100, Note_on_c, 0, 62, 58
2, 23136, Note_off_c, 0, 71, 64
2, 23148, Note_off_c, 0, 62, 64
2, 23160, Note_on_c, 0, 74, 71
2, 23160, Note_on_c, 0, 59, 1
2, 23208, Note_off_c, 0, 59, 64
2, 23220, Note_on_c, 0, 62, 46
2, 23256, Note_off_c, 0, 74, 64
2, 23268, Note_off_c, 0, 62, 64
2, 23280, Note_on_c, 0, 55, 58
2, 23328, Note_off_c, 0, 55, 64
2, 23340, Note_on_c, 0, 62, 61
2, 23388, Note_off_c, 0, 62, 64
2, 23400, Note_on_c, 0, 74, 77
2, 23400, Note_on_c, 0, 59, 42
2, 23448, Note_off_c, 0, 59, 64
2, 23460, Note_on_c, 0, 62, 1
2, 23496, Note_off_c, 0, 74, 64
2, 23508, Note_off_c, 0, 62, 64
2, 23520, Note_on_c, 0, 79, 61
2, 23520, Note_on_c, 0, 55, 50
2, 23568, Note_off_c, 0, 55, 64
2, 23580, Note_on_c, 0, 62, 52
2, 23616, Note_off_c, 0, 79, 64
2, 23628, Note_off_c, 0, 62, 64
2, 23640, Note_on_c, 0, 59, 46
2, 23640, Note_on_c, 0, 74, 89
2, 23688, Note_off_c, 0, 59, 64
2, 23700, Note_on_c, 0, 62, 58
2, 23736, Note_off_c, 0, 74, 64
2, 23748, Note_off_c, 0, 62, 64
2, 23760, Note_on_c, 0, 55, 58
2, 23808, Note_off_c, 0, 55, 64
2, 23820, Note_on_c, 0, 62, 54
2, 23868, Note_off_c, 0, 62, 64
2, 23880, Note_on_c, 0, 71, 47
2, 23880, Note_on_c, 0, 59, 54
2, 23928, Note_off_c, 0, 59, 64
2, 23940, Note_on_c, 0, 62, 58
2, 23976, Note_off_c, 0, 71, 64
2, 23988, Note_off_c, 0, 62, 64
2, 24000, Note_on_c, 0, 72, 71
2, 24000, Note_on_c, 0, 54, 77
2, 24048, Note_off_c, 0, 54, 64
2, 24060, Note_on_c, 0, 62, 58
2, 24096, Note_off_c, 0, 72, 64
2, 24108, Note_off_c, 0, 62, 64
2, 24120, Note_on_c, 0, 69, 66
2, 24120, Note_on_c, 0, 57, 77
2, 24168, Note_off_c, 0, 57, 64
2, 24180, Note_on_c, 0, 62, 66
2, 24216, Note_off_c, 0, 69, 64
2, 24228, Note_off_c, 0, 62, 64
2, 24240, Note_on_c, 0, 54, 71
2, 24288, Note_off_c, 0, 54, 64
2, 24300, Note_on_c, 0, 62, 61
2, 24348, Note_off_c, 0, 62, 64
2, 24360, Note_on_c, 0, 78, 71
2, 24360, Note_on_c, 0, 57, 83
2, 24408, Note_off_c, 0, 57, 64
2, 24420, Note_on_c, 0, 62, 61
2, 24456, Note_off_c, 0, 78, 64
2, 24468, Note_off_c, 0, 62, 64
2, 24480, Note_on_c, 0, 81, 66
2, 24480, Note_on_c, 0, 54, 78
2, 24528, Note_off_c, 0, 54, 64
2, 24540, Note_on_c, 0, 62, 62
2, 24576, Note_off_c, 0, 81, 64
2, 24588, Note_off_c, 0, 62, 64
2, 24600, Note_on_c, 0, 57, 83
2, 24600, Note_on_c, 0, 72, 77
2, 24648, Note_off_c, 0, 57, 64
2, 24660, Note_on_c, 0, 62, 58
2, 24696, Note_off_c, 0, 72, 64
2, 24708, Note_off_c, 0, 62, 64
2, 24720, Note_on_c, 0, 54, 66
2, 24768, Note_off_c, 0, 54, 64
2, 24780, Note_on_c, 0, 62, 50
2, 24828, Note_off_c, 0, 62, 64
2, 24840, Note_on_c, 0, 72, 71
2, 24840, Note_on_c, 0, 57, 77
2, 24888, Note_off_c, 0, 57, 64
2, 24900, Note_on_c, 0, 62, 66
2, 24936, Note_off_c, 0, 72, 64
2, 24948, Note_off_c, 0, 62, 64
2, 24960, Note_on_c, 0, 71, 61
2, 24960, Note_on_c, 0, 55, 71
2, 25008, Note_off_c, 0, 55, 64
2, 25020, Note_on_c, 0, 62, 71
2, 25056, Note_off_c, 0, 71, 64
2, 25068, Note_off_c, 0, 62, 64
2, 25080, Note_on_c, 0, 74, 58
2, 25080, Note_on_c, 0, 59, 89
2, 25128, Note_off_c, 0, 59, 64
2, 25140, Note_on_c, 0, 62, 61
2, 25176, Note_off_c, 0, 74, 64
2, 25188, Note_off_c, 0, 62, 64
2, 25200, Note_on_c, 0, 55, 77
2, 25248, Note_off_c, 0, 55, 64
2, 25260, Note_on_c, 0, 62, 71
2, 25308, Note_off_c, 0, 62, 64
2, 25320, Note_on_c, 0, 74, 77
2, 25320, Note_on_c, 0, 59, 77
2, 25368, Note_off_c, 0, 59, 64
2, 25380, Note_on_c, 0, 62, 66
2, 25416, Note_off_c, 0, 74, 64
2, 25428, Note_off_c, 0, 62, 64
2, 25440, Note_on_c, 0, 79, 66
2, 25440, Note_on_c, 0, 55, 67
2, 25488, Note_off_c, 0, 55, 64
2, 25500, Note_on_c, 0, 62, 58
2, 25536, Note_off_c, 0, 79, 64
2, 25548, Note_off_c, 0, 62, 64
2, 25560, Note_on_c, 0, 59, 78
2, 25560, Note_on_c, 0, 74, 71
2, 25608, Note_off_c, 0, 59, 64
2, 25620, Note_on_c, 0, 62, 66
2, 25656, Note_off_c, 0, 74, 64
2, 25668, Note_off_c, 0, 62, 64
2, 25680, Note_on_c, 0, 55, 66
2, 25728, Note_off_c, 0, 55, 64
2, 25740, Note_on_c, 0, 62, 71
2, 25788, Note_off_c, 0, 62, 64
2, 25800, Note_on_c, 0, 71, 61
2, 25800, Note_on_c, 0, 59, 83
2, 25848, Note_off_c, 0, 59, 64
2, 25860, Note_on_c, 0, 62, 42
2, 25896, Note_off_c, 0, 71, 64
2, 25908, Note_off_c, 0, 62, 64
2, 25920, Note_on_c, 0, 72, 66
2, 25920, Note_on_c, 0, 54, 58
2, 25968, Note_off_c, 0, 54, 64
2, 25980, Note_on_c, 0, 62, 66
2, 26016, Note_off_c, 0, 72, 64
2, 26028, Note_off_c, 0, 62, 64
2, 26040, Note_on_c, 0, 69, 58
2, 26040, Note_on_c, 0, 57, 71
2, 26088, Note_off_c, 0, 57, 64
2, 26100, Note_on_c, 0, 62, 71
2, 26136, Note_off_c, 0, 69, 64
2, 26148, Note_off_c, 0, 62, 64
2, 26160, Note_on_c, 0, 54, 83
2, 26208, Note_off_c, 0, 54, 64
2, 26220, Note_on_c, 0, 62, 58
2, 26268, Note_off_c, 0, 62, 64
2, 26280, Note_on_c, 0, 78, 77
2, 26280, Note_on_c, 0, 57, 71
2, 26328, Note_off_c, 0, 57, 64
2, 26340, Note_on_c, 0, 62, 77
2, 26376, Note_off_c, 0, 78, 64
2, 26388, Note_off_c, 0, 62, 64
2, 26400, Note_on_c, 0, 81, 58
2, 26400, Note_on_c, 0, 54, 77
2, 26448, Note_off_c, 0, 54, 64
2, 26460, Note_on_c, 0, 62, 54
2, 26496, Note_off_c, 0, 81, 64
2, 26508, Note_off_c, 0, 62, 64
2, 26520, Note_on_c, 0, 57, 50
2, 26520, Note_on_c, 0, 72, 89
2, 26568, Note_off_c, 0, 57, 64
2, 26580, Note_on_c, 0, 62, 61
2, 26616, Note_off_c, 0, 72, 64
2, 26628, Note_off_c, 0, 62, 64
2, 26640, Note_on_c, 0, 54, 77
2, 26688, Note_off_c, 0, 54, 64
2, 26700, Note_on_c, 0, 62, 61
2, 26748, Note_off_c, 0, 62, 64
2, 26760, Note_on_c, 0, 72, 42
2, 26760, Note_on_c, 0, 57, 61
2, 26808, Note_off_c, 0, 57, 64
2, 26820, Note_on_c, 0, 62, 50
2, 26856, Note_off_c, 0, 72, 64
2, 26868, Note_off_c, 0, 62, 64
2, 26880, Note_on_c, 0, 71, 61
2, 26880, Note_on_c, 0, 55, 71
2, 26928, Note_off_c, 0, 71, 64
2, 26940, Note_on_c, 0, 79, 61
2, 26988, Note_off_c, 0, 79, 64
2, 27000, Note_on_c, 0, 78, 66
2, 27048, Note_off_c, 0, 78, 64
2, 27060, Note_on_c, 0, 79, 71
2, 27072, Note_off_c, 0, 55, 64
2, 27108, Note_off_c, 0, 79, 64
2, 27120, Note_on_c, 0, 81, 71
2, 27168, Note_off_c, 0, 81, 64
2, 27180, Note_on_c, 0, 79, 58
2, 27228, Note_off_c, 0, 79, 64
2, 27240, Note_on_c, 0, 78, 52
2, 27288, Note_off_c, 0, 78, 64
2, 27300, Note_on_c, 0, 79, 54
2, 27348, Note_off_c, 0, 79, 64
2, 27360, Note_on_c, 0, 74, 71
2, 27360, Note_on_c, 0, 67, 47
2, 27360, Note_on_c, 0, 59, 50
2, 27408, Note_off_c, 0, 74, 64
2, 27420, Note_on_c, 0, 77, 43
2, 27468, Note_off_c, 0, 77, 64
2, 27480, Note_on_c, 0, 76, 71
2, 27528, Note_off_c, 0, 76, 64
2, 27540, Note_on_c, 0, 77, 66
2, 27552, Note_off_c, 0, 59, 64
2, 27552, Note_off_c, 0, 67, 64
2, 27588, Note_off_c, 0, 77, 64
2, 27600, Note_on_c, 0, 79, 54
2, 27648, Note_off_c, 0, 79, 64
2, 27660, Note_on_c, 0, 77, 71
2, 27708, Note_off_c, 0, 77, 64
2, 27720, Note_on_c, 0, 76, 66
2, 27768, Note_off_c, 0, 76, 64
2, 27780, Note_on_c, 0, 77, 45
2, 27828, Note_off_c, 0, 77, 64
2, 27840, Note_on_c, 0, 60, 58
2, 27840, Note_on_c, 0, 76, 61
2, 27888, Note_off_c, 0, 60, 64
2, 27900, Note_on_c, 0, 67, 58
2, 27948, Note_off_c, 0, 67, 64
2, 27960, Note_on_c, 0, 64, 66
2, 28008, Note_off_c, 0, 64, 64
2, 28020, Note_on_c, 0, 67, 52
2, 28032, Note_off_c, 0, 76, 64
2, 28068, Note_off_c, 0, 67, 64
2, 28080, Note_on_c, 0, 76, 66
2, 28080, Note_on_c, 0, 60, 61
2, 28128, Note_off_c, 0, 60, 64
2, 28140, Note_on_c, 0, 67, 52
2, 28188, Note_off_c, 0, 67, 64
2, 28200, Note_on_c, 0, 64, 66
2, 28248, Note_off_c, 0, 64, 64
2, 28260, Note_on_c, 0, 67, 66
2, 28308, Note_off_c, 0, 67, 64
2, 28320, Note_on_c, 0, 60, 61
2, 28416, Note_off_c, 0, 76, 64
2, 28440, Note_on_c, 0, 79, 50
2, 28512, Note_off_c, 0, 60, 64
2, 28536, Note_off_c, 0, 79, 64
2, 28560, Note_on_c, 0, 78, 58
2, 28608, Note_off_c, 0, 78, 64
2, 28620, Note_on_c, 0, 76, 61
2, 28668, Note_off_c, 0, 76, 64
2, 28680, Note_on_c, 0, 74, 58
2, 28728, Note_off_c, 0, 74, 64
2, 28740, Note_on_c, 0, 72, 89
2, 28788, Note_off_c, 0, 72, 64
2, 28800, Note_on_c, 0, 55, 42
2, 28800, Note_on_c, 0, 50, 57
2, 28800, Note_on_c, 0, 71, 71
2, 28896, Note_off_c, 0, 71, 64
2, 28896, Note_off_c, 0, 50, 64
2, 28896, Note_off_c, 0, 55, 64
2, 28920, Note_on_c, 0, 50, 50
2, 28920, Note_on_c, 0, 74, 61
2, 28920, Note_on_c, 0, 55, 47
2, 29016, Note_off_c, 0, 55, 64
2, 29016, Note_off_c, 0, 74, 64
2, 29016, Note_off_c, 0, 50, 64
2, 29040, Note_on_c, 0, 55, 42
2, 29040, Note_on_c, 0, 50, 44
2, 29040, Note_on_c, 0, 72, 77
2, 29088, Note_off_c, 0, 72, 64
2, 29100, Note_on_c, 0, 71, 71
2, 29136, Note_off_c, 0, 50, 64
2, 29136, Note_off_c, 0, 55, 64
2, 29148, Note_off_c, 0, 71, 64
2, 29160, Note_on_c, 0, 69, 67
2, 29160, Note_on_c, 0, 50, 56
2, 29160, Note_on_c, 0, 55, 42
2, 29208, Note_off_c, 0, 69, 64
2, 29220, Note_on_c, 0, 67, 43
2, 29256, Note_off_c, 0, 55, 64
2, 29256, Note_off_c, 0, 50, 64
2, 29268, Note_off_c, 0, 67, 64
2, 29280, Note_on_c, 0, 71, 50
2, 29280, Note_on_c, 0, 54, 54
2, 29280, Note_on_c, 0, 50, 54
2, 29292, Note_off_c, 0, 71, 64
2, 29295, Note_on_c, 0, 69, 46
2, 29307, Note_off_c, 0, 69, 64
2, 29310, Note_on_c, 0, 71, 42
2, 29322, Note_off_c, 0, 71, 64
2, 29325, Note_on_c, 0, 69, 52
2, 29337, Note_off_c, 0, 69, 64
2, 29340, Note_on_c, 0, 71, 44
2, 29352, Note_off_c, 0, 71, 64
2, 29355, Note_on_c, 0, 69, 42
2, 29367, Note_off_c, 0, 69, 64
2, 29370, Note_on_c, 0, 71, 49
2, 29376, Note_off_c, 0, 50, 64
2, 29376, Note_off_c, 0, 54, 64
2, 29382, Note_off_c, 0, 71, 64
2, 29385, Note_on_c, 0, 69, 42
2, 29397, Note_off_c, 0, 69, 64
2, 29400, Note_on_c, 0, 71, 42
2, 29400, Note_on_c, 0, 54, 47
2, 29400, Note_on_c, 0, 50, 50
2, 29412, Note_off_c, 0, 71, 64
2, 29415, Note_on_c, 0, 69, 42
2, 29427, Note_off_c, 0, 69, 64
2, 29430, Note_on_c, 0, 71, 47
2, 29442, Note_off_c, 0, 71, 64
2, 29445, Note_on_c, 0, 69, 42
2, 29457, Note_off_c, 0, 69, 64
2, 29460, Note_on_c, 0, 71, 43
2, 29472, Note_off_c, 0, 71, 64
2, 29475, Note_on_c, 0, 69, 50
2, 29487, Note_off_c, 0, 69, 64
2, 29490, Note_on_c, 0, 71, 45
2, 29496, Note_off_c, 0, 50, 64
2, 29496, Note_off_c, 0, 54, 64
2, 29502, Note_off_c, 0, 71, 64
2, 29505, Note_on_c, 0, 69, 50
2, 29517, Note_off_c, 0, 69, 64
2, 29520, Note_on_c, 0, 71, 45
2, 29520, Note_on_c, 0, 54, 47
2, 29520, Note_on_c, 0, 50, 47
2, 29532, Note_off_c, 0, 71, 64
2, 29535, Note_on_c, 0, 69, 42
2, 29547, Note_off_c, 0, 69, 64
2, 29550, Note_on_c, 0, 71, 42
2, 29562, Note_off_c, 0, 71, 64
2, 29565, Note_on_c, 0, 69, 42
2, 29577, Note_off_c, 0, 69, 64
2, 29580, Note_on_c, 0, 71, 42
2, 29592, Note_off_c, 0, 71, 64
2, 29595, Note_on_c, 0, 69, 43
2, 29607, Note_off_c, 0, 69, 64
2, 29610, Note_on_c, 0, 71, 45
2, 29616, Note_off_c, 0, 50, 64
2, 29616, Note_off_c, 0, 54, 64
2, 29622, Note_off_c, 0, 71, 64
2, 29625, Note_on_c, 0, 69, 42
2, 29637, Note_off_c, 0, 69, 64
2, 29640, Note_on_c, 0, 71, 47
2, 29640, Note_on_c, 0, 54, 50
2, 29640, Note_on_c, 0, 50, 50
2, 29652, Note_off_c, 0, 71, 64
2, 29655, Note_on_c, 0, 69, 44
2, 29667, Note_off_c, 0, 69, 64
2, 29670, Note_on_c, 0, 71, 21
2, 29682, Note_off_c, 0, 71, 64
2, 29685, Note_on_c, 0, 69, 41
2, 29697, Note_off_c, 0, 69, 64
2, 29700, Note_on_c, 0, 71, 42
2, 29712, Note_off_c, 0, 71, 64
2, 29715, Note_on_c, 0, 69, 42
2, 29727, Note_off_c, 0, 69, 64
2, 29730, Note_on_c, 0, 71, 44
2, 29736, Note_off_c, 0, 50, 64
2, 29736, Note_off_c, 0, 54, 64
2, 29742, Note_off_c, 0, 71, 64
2, 29745, Note_on_c, 0, 69, 42
2, 29757, Note_off_c, 0, 69, 64
2, 29760, Note_on_c, 0, 67, 71
2, 29760, Note_on_c, 0, 55, 62
2, 29952, Note_off_c, 0, 55, 64
2, 29952, Note_off_c, 0, 67, 64
2, 30000, Note_on_c, 0, 59, 66
2, 30060, Note_on_c, 0, 74, 61
2, 30108, Note_off_c, 0, 74, 64
2, 30120, Note_on_c, 0, 71, 44
2, 30168, Note_off_c, 0, 71, 64
2, 30180, Note_on_c, 0, 67, 66
2, 30192, Note_off_c, 0, 59, 64
2, 30228, Note_off_c, 0, 67, 64
2, 30240, Note_on_c, 0, 60, 71
2, 30300, Note_on_c, 0, 76, 77
2, 30348, Note_off_c, 0, 76, 64
2, 30360, Note_on_c, 0, 75, 61
2, 30408, Note_off_c, 0, 75, 64
2, 30420, Note_on_c, 0, 76, 61
2, 30432, Note_off_c, 0, 60, 64
2, 30468, Note_off_c, 0, 76, 64
2, 30480, Note_on_c, 0, 62, 77
2, 30540, Note_on_c, 0, 72, 50
2, 30588, Note_off_c, 0, 72, 64
2, 30600, Note_on_c, 0, 69, 45
2, 30648, Note_off_c, 0, 69, 64
2, 30660, Note_on_c, 0, 66, 40
2, 30672, Note_off_c, 0, 62, 64
2, 30708, Note_off_c, 0, 66, 64
2, 30720, Note_on_c, 0, 67, 52
2, 30720, Note_on_c, 0, 64, 77
2, 30816, Note_off_c, 0, 67, 64
2, 30840, Note_on_c, 0, 71, 47
2, 30912, Note_off_c, 0, 64, 64
2, 30936, Note_off_c, 0, 71, 64
2, 30960, Note_on_c, 0, 59, 66
2, 31020, Note_on_c, 0, 74, 71
2, 31068, Note_off_c, 0, 74, 64
2, 31080, Note_on_c, 0, 71, 71
2, 31128, Note_off_c, 0, 71, 64
2, 31140, Note_on_c, 0, 67, 50
2, 31152, Note_off_c, 0, 59, 64
2, 31188, Note_off_c, 0, 67, 64
2, 31200, Note_on_c, 0, 60, 77
2, 31260, Note_on_c, 0, 76, 77
2, 31308, Note_off_c, 0, 76, 64
2, 31320, Note_on_c, 0, 75, 77
2, 31368, Note_off_c, 0, 75, 64
2, 31380, Note_on_c, 0, 76, 45
2, 31392, Note_off_c, 0, 60, 64
2, 31428, Note_off_c, 0, 76, 64
2, 31440, Note_on_c, 0, 62, 77
2, 31500, Note_on_c, 0, 72, 52
2, 31548, Note_off_c, 0, 72, 64
2, 31560, Note_on_c, 0, 69, 42
2, 31608, Note_off_c, 0, 69, 64
2, 31620, Note_on_c, 0, 66, 42
2, 31632, Note_off_c, 0, 62, 64
2, 31668, Note_off_c, 0, 66, 64
2, 31680, Note_on_c, 0, 67, 58
2, 31680, Note_on_c, 0, 55, 58
2, 31728, Note_off_c, 0, 55, 64
2, 31740, Note_on_c, 0, 62, 77
2, 31788, Note_off_c, 0, 62, 64
2, 31800, Note_on_c, 0, 59, 54
2, 31848, Note_off_c, 0, 59, 64
2, 31860, Note_on_c, 0, 62, 61
2, 31872, Note_off_c, 0, 67, 64
2, 31908, Note_off_c, 0, 62, 64
2, 31920, Note_on_c, 0, 71, 71
2, 31920, Note_on_c, 0, 79, 44
2, 31920, Note_on_c, 0, 55, 71
2, 31968, Note_off_c, 0, 55, 64
2, 31980, Note_on_c, 0, 62, 71
2, 32028, Note_off_c, 0, 62, 64
2, 32040, Note_on_c, 0, 59, 66
2, 32088, Note_off_c, 0, 59, 64
2, 32100, Note_on_c, 0, 62, 58
2, 32112, Note_off_c, 0, 79, 64
2, 32112, Note_off_c, 0, 71, 64
2, 32148, Note_off_c, 0, 62, 64
2, 32160, Note_on_c, 0, 71, 61
2, 32160, Note_on_c, 0, 79, 42
2, 32160, Note_on_c, 0, 55, 80
2, 32352, Note_off_c, 0, 55, 64
2, 32352, Note_off_c, 0, 79, 64
2, 32352, Note_off_c, 0, 71, 64
2, 32640, Note_on_c, 0, 67, 43
2, 32640, Note_on_c, 0, 55, 52
2, 32664, Note_off_c, 0, 67, 64
2, 32670, Note_on_c, 0, 66, 66
2, 32688, Note_off_c, 0, 55, 64
2, 32694, Note_off_c, 0, 66, 64
2, 32700, Note_on_c, 0, 62, 50
2, 32700, Note_on_c, 0, 67, 54
2, 32748, Note_off_c, 0, 62, 64
2, 32760, Note_on_c, 0, 58, 83
2, 32808, Note_off_c, 0, 58, 64
2, 32820, Note_on_c, 0, 62, 54
2, 32844, Note_off_c, 0, 67, 64
2, 32868, Note_off_c, 0, 62, 64
2, 32880, Note_on_c, 0, 70, 112
2, 32880, Note_on_c, 0, 55, 58
2, 32928, Note_off_c, 0, 55, 64
2, 32940, Note_on_c, 0, 62, 43
2, 32988, Note_off_c, 0, 62, 64
2, 33000, Note_on_c, 0, 58, 54
2, 33048, Note_off_c, 0, 58, 64
2, 33060, Note_on_c, 0, 62, 50
2, 33072, Note_off_c, 0, 70, 64
2, 33108, Note_off_c, 0, 62, 64
2, 33120, Note_on_c, 0, 74, 97
2, 33120, Note_on_c, 0, 55, 61
2, 33168, Note_off_c, 0, 55, 64
2, 33180, Note_on_c, 0, 62, 54
2, 33228, Note_off_c, 0, 62, 64
2, 33240, Note_on_c, 0, 58, 42
2, 33288, Note_off_c, 0, 58, 64
2, 33300, Note_on_c, 0, 62, 61
2, 33312, Note_off_c, 0, 74, 64
2, 33348, Note_off_c, 0, 62, 64
2, 33360, Note_on_c, 0, 79, 71
2, 33360, Note_on_c, 0, 55, 61
2, 33408, Note_off_c, 0, 55, 64
2, 33420, Note_on_c, 0, 62, 52
2, 33468, Note_off_c, 0, 62, 64
2, 33480, Note_on_c, 0, 58, 50
2, 33528, Note_off_c, 0, 58, 64
2, 33540, Note_on_c, 0, 62, 42
2, 33552, Note_off_c, 0, 79, 64
2, 33588, Note_off_c, 0, 62, 64
2, 33600, Note_on_c, 0, 69, 54
2, 33600, Note_on_c, 0, 55, 52
2, 33624, Note_off_c, 0, 69, 64
2, 33630, Note_on_c, 0, 68, 50
2, 33648, Note_off_c, 0, 55, 64
2, 33654, Note_off_c, 0, 68, 64
2, 33660, Note_on_c, 0, 69, 77
2, 33660, Note_on_c, 0, 64, 58
2, 33708, Note_off_c, 0, 64, 64
2, 33720, Note_on_c, 0, 61, 54
2, 33768, Note_off_c, 0, 61, 64
2, 33780, Note_on_c, 0, 64, 66
2, 33804, Note_off_c, 0, 69, 64
2, 33828, Note_off_c, 0, 64, 64
2, 33840, Note_on_c, 0, 73, 114
2, 33840, Note_on_c, 0, 55, 66
2, 33888, Note_off_c, 0, 55, 64
2, 33900, Note_on_c, 0, 64, 66
2, 33948, Note_off_c, 0, 64, 64
2, 33960, Note_on_c, 0, 61, 52
2, 34008, Note_off_c, 0, 61, 64
2, 34020, Note_on_c, 0, 64, 71
2, 34032, Note_off_c, 0, 73, 64
2, 34068, Note_off_c, 0, 64, 64
2, 34080, Note_on_c, 0, 76, 89
2, 34080, Note_on_c, 0, 55, 66
2, 34128, Note_off_c, 0, 55, 64
2, 34140, Note_on_c, 0, 64, 58
2, 34188, Note_off_c, 0, 64, 64
2, 34200, Note_on_c, 0, 61, 52
2, 34248, Note_off_c, 0, 61, 64
2, 34260, Note_on_c, 0, 64, 61
2, 34272, Note_off_c, 0, 76, 64
2, 34308, Note_off_c, 0, 64, 64
2, 34320, Note_on_c, 0, 81, 71
2, 34320, Note_on_c, 0, 55, 55
2, 34368, Note_off_c, 0, 55, 64
2, 34380, Note_on_c, 0, 64, 66
2, 34428, Note_off_c, 0, 64, 64
2, 34440, Note_on_c, 0, 61, 50
2, 34488, Note_off_c, 0, 61, 64
2, 34500, Note_on_c, 0, 64, 58
2, 34512, Note_off_c, 0, 81, 64
2, 34548, Note_off_c, 0, 64, 64
2, 34560, Note_on_c, 0, 69, 54
2, 34560, Note_on_c, 0, 53, 71
2, 34584, Note_off_c, 0, 69, 64
2, 34590, Note_on_c, 0, 68, 47
2, 34608, Note_off_c, 0, 53, 64
2, 34614, Note_off_c, 0, 68, 64
2, 34620, Note_on_c, 0, 62, 50
2, 34620, Note_on_c, 0, 69, 58
2, 34668, Note_off_c, 0, 62, 64
2, 34680, Note_on_c, 0, 57, 61
2, 34728, Note_off_c, 0, 57, 64
2, 34740, Note_on_c, 0, 62, 52
2, 34764, Note_off_c, 0, 69, 64
2, 34788, Note_off_c, 0, 62, 64
2, 34800, Note_on_c, 0, 74, 69
2, 34800, Note_on_c, 0, 53, 54
2, 34848, Note_off_c, 0, 53, 64
2, 34860, Note_on_c, 0, 62, 44
2, 34908, Note_off_c, 0, 62, 64
2, 34920, Note_on_c, 0, 57, 43
2, 34968, Note_off_c, 0, 57, 64
2, 34980, Note_on_c, 0, 62, 52
2, 34992, Note_off_c, 0, 74, 64
2, 35028, Note_off_c, 0, 62, 64
2, 35040, Note_on_c, 0, 77, 89
2, 35040, Note_on_c, 0, 53, 43
2, 35088, Note_off_c, 0, 53, 64
2, 35100, Note_on_c, 0, 62, 45
2, 35148, Note_off_c, 0, 62, 64
2, 35160, Note_on_c, 0, 57, 52
2, 35208, Note_off_c, 0, 57, 64
2, 35220, Note_on_c, 0, 62, 61
2, 35232, Note_off_c, 0, 77, 64
2, 35268, Note_off_c, 0, 62, 64
2, 35280, Note_on_c, 0, 81, 77
2, 35280, Note_on_c, 0, 53, 66
2, 35328, Note_off_c, 0, 53, 64
2, 35340, Note_on_c, 0, 62, 54
2, 35388, Note_off_c, 0, 62, 64
2, 35400, Note_on_c, 0, 57, 71
2, 35448, Note_off_c, 0, 57, 64
2, 35460, Note_on_c, 0, 62, 66
2, 35472, Note_off_c, 0, 81, 64
2, 35508, Note_off_c, 0, 62, 64
2, 35520, Note_on_c, 0, 80, 83
2, 35520, Note_on_c, 0, 52, 42
2, 35544, Note_off_c, 0, 80, 64
2, 35550, Note_on_c, 0, 78, 58
2, 35568, Note_off_c, 0, 52, 64
2, 35574, Note_off_c, 0, 78, 64
2, 35580, Note_on_c, 0, 80, 80
2, 35580, Note_on_c, 0, 62, 52
2, 35628, Note_off_c, 0, 62, 64
2, 35640, Note_on_c, 0, 59, 71
2, 35688, Note_off_c, 0, 59, 64
2, 35700, Note_on_c, 0, 62, 61
2, 35724, Note_off_c, 0, 80, 64
2, 35748, Note_off_c, 0, 62, 64
2, 35760, Note_on_c, 0, 52, 52
2, 35808, Note_off_c, 0, 52, 64
2, 35820, Note_on_c, 0, 62, 42
2, 35868, Note_off_c, 0, 62, 64
2, 35880, Note_on_c, 0, 59, 46
2, 35928, Note_off_c, 0, 59, 64
2, 35940, Note_on_c, 0, 62, 50
2, 35988, Note_off_c, 0, 62, 64
2, 36000, Note_on_c, 0, 81, 52
2, 36000, Note_on_c, 0, 52, 58
2, 36024, Note_off_c, 0, 81, 64
2, 36030, Note_on_c, 0, 80, 77
2, 36048, Note_off_c, 0, 52, 64
2, 36054, Note_off_c, 0, 80, 64
2, 36060, Note_on_c, 0, 81, 80
2, 36060, Note_on_c, 0, 60, 61
2, 36108, Note_off_c, 0, 60, 64
2, 36120, Note_on_c, 0, 57, 71
2, 36168, Note_off_c, 0, 57, 64
2, 36180, Note_on_c, 0, 60, 61
2, 36204, Note_off_c, 0, 81, 64
2, 36228, Note_off_c, 0, 60, 64
2, 36240, Note_on_c, 0, 52, 61
2, 36288, Note_off_c, 0, 52, 64
2, 36300, Note_on_c, 0, 60, 61
2, 36348, Note_off_c, 0, 60, 64
2, 36360, Note_on_c, 0, 57, 61
2, 36408, Note_off_c, 0, 57, 64
2, 36420, Note_on_c, 0, 60, 54
2, 36468, Note_off_c, 0, 60, 64
2, 36480, Note_on_c, 0, 74, 58
2, 36480, Note_on_c, 0, 52, 58
2, 36504, Note_off_c, 0, 74, 64
2, 36510, Note_on_c, 0, 73, 43
2, 36528, Note_off_c, 0, 52, 64
2, 36534, Note_off_c, 0, 73, 64
2, 36540, Note_on_c, 0, 74, 80
2, 36540, Note_on_c, 0, 59, 50
2, 36588, Note_off_c, 0, 59, 64
2, 36600, Note_on_c, 0, 56, 54
2, 36648, Note_off_c, 0, 56, 64
2, 36660, Note_on_c, 0, 59, 42
2, 36684, Note_off_c, 0, 74, 64
2, 36708, Note_off_c, 0, 59, 64
2, 36720, Note_on_c, 0, 52, 54
2, 36768, Note_off_c, 0, 52, 64
2, 36780, Note_on_c, 0, 59, 43
2, 36828, Note_off_c, 0, 59, 64
2, 36840, Note_on_c, 0, 56, 31
2, 36888, Note_off_c, 0, 56, 64
2, 36900, Note_on_c, 0, 59, 42
2, 36948, Note_off_c, 0, 59, 64
2, 36960, Note_on_c, 0, 72, 42
2, 36960, Note_on_c, 0, 52, 61
2, 36984, Note_off_c, 0, 72, 64
2, 36990, Note_on_c, 0, 71, 43
2, 37008, Note_off_c, 0, 52, 64
2, 37014, Note_off_c, 0, 71, 64
2, 37020, Note_on_c, 0, 60, 66
2, 37020, Note_on_c, 0, 72, 58
2, 37020, Note_on_c, 0, 72, 58
2, 37068, Note_off_c, 0, 60, 64
2, 37080, Note_on_c, 0, 57, 61
2, 37128, Note_off_c, 0, 57, 64
2, 37140, Note_on_c, 0, 60, 47
2, 37164, Note_off_c, 0, 72, 64
2, 37164, Note_off_c, 0, 72, 64
2, 37188, Note_off_c, 0, 60, 64
2, 37200, Note_on_c, 0, 52, 58
2, 37248, Note_off_c, 0, 52, 64
2, 37260, Note_on_c, 0, 60, 47
2, 37308, Note_off_c, 0, 60, 64
2, 37320, Note_on_c, 0, 57, 43
2, 37368, Note_off_c, 0, 57, 64
2, 37380, Note_on_c, 0, 60, 42
2, 37428, Note_off_c, 0, 60, 64
2, 37440, Note_on_c, 0, 71, 61
2, 37440, Note_on_c, 0, 52, 52
2, 37488, Note_off_c, 0, 52, 64
2, 37500, Note_on_c, 0, 59, 45
2, 37548, Note_off_c, 0, 59, 64
2, 37560, Note_on_c, 0, 56, 42
2, 37608, Note_off_c, 0, 56, 64
2, 37620, Note_on_c, 0, 59, 54
2, 37632, Note_off_c, 0, 71, 64
2, 37668, Note_off_c, 0, 59, 64
2, 37680, Note_on_c, 0, 68, 58
2, 37680, Note_on_c, 0, 76, 58
2, 37680, Note_on_c, 0, 52, 58
2, 37728, Note_off_c, 0, 52, 64
2, 37740, Note_on_c, 0, 59, 54
2, 37788, Note_off_c, 0, 59, 64
2, 37800, Note_on_c, 0, 56, 55
2, 37848, Note_off_c, 0, 56, 64
2, 37860, Note_on_c, 0, 59, 52
2, 37872, Note_off_c, 0, 76, 64
2, 37872, Note_off_c, 0, 68, 64
2, 37908, Note_off_c, 0, 59, 64
2, 37920, Note_on_c, 0, 68, 50
2, 37920, Note_on_c, 0, 76, 58
2, 37920, Note_on_c, 0, 52, 66
2, 38112, Note_off_c, 0, 52, 64
2, 38112, Note_off_c, 0, 76, 64
2, 38112, Note_off_c, 0, 68, 64
2, 38400, Note_on_c, 0, 69, 65
2, 38400, Note_on_c, 0, 76, 71
2, 38400, Note_on_c, 0, 72, 45
2, 38448, Note_off_c, 0, 76, 64
2, 38460, Note_on_c, 0, 81, 66
2, 38496, Note_off_c, 0, 72, 64
2, 38496, Note_off_c, 0, 69, 64
2, 38508, Note_off_c, 0, 81, 64
2, 38520, Note_on_c, 0, 72, 47
2, 38520, Note_on_c, 0, 69, 45
2, 38520, Note_on_c, 0, 80, 43
2, 38568, Note_off_c, 0, 80, 64
2, 38580, Note_on_c, 0, 81, 71
2, 38616, Note_off_c, 0, 69, 64
2, 38616, Note_off_c, 0, 72, 64
2, 38628, Note_off_c, 0, 81, 64
2, 38640, Note_on_c, 0, 69, 47
2, 38640, Note_on_c, 0, 72, 42
2, 38640, Note_on_c, 0, 84, 89
2, 38688, Note_off_c, 0, 84, 64
2, 38700, Note_on_c, 0, 81, 61
2, 38736, Note_off_c, 0, 72, 64
2, 38736, Note_off_c, 0, 69, 64
2, 38748, Note_off_c, 0, 81, 64
2, 38760, Note_on_c, 0, 72, 42
2, 38760, Note_on_c, 0, 69, 47
2, 38760, Note_on_c, 0, 80, 50
2, 38808, Note_off_c, 0, 80, 64
2, 38820, Note_on_c, 0, 81, 61
2, 38856, Note_off_c, 0, 69, 64
2, 38856, Note_off_c, 0, 72, 64
2, 38868, Note_off_c, 0, 81, 64
2, 38880, Note_on_c, 0, 72, 42
2, 38880, Note_on_c, 0, 69, 44
2, 38880, Note_on_c, 0, 76, 61
2, 38976, Note_off_c, 0, 69, 64
2, 38976, Note_off_c, 0, 72, 64
2, 39000, Note_on_c, 0, 69, 42
2, 39000, Note_on_c, 0, 72, 37
2, 39072, Note_off_c, 0, 76, 64
2, 39096, Note_off_c, 0, 72, 64
2, 39096, Note_off_c, 0, 69, 64
2, 39120, Note_on_c, 0, 69, 43
2, 39120, Note_on_c, 0, 72, 42
2, 39216, Note_off_c, 0, 72, 64
2, 39216, Note_off_c, 0, 69, 64
2, 39240, Note_on_c, 0, 69, 43
2, 39240, Note_on_c, 0, 72, 42
2, 39336, Note_off_c, 0, 72, 64
2, 39336, Note_off_c, 0, 69, 64
2, 39360, Note_on_c, 0, 74, 43
2, 39360, Note_on_c, 0, 77, 66
2, 39360, Note_on_c, 0, 69, 45
2, 39408, Note_off_c, 0, 77, 64
2, 39420, Note_on_c, 0, 81, 66
2, 39456, Note_off_c, 0, 69, 64
2, 39456, Note_off_c, 0, 74, 64
2, 39468, Note_off_c, 0, 81, 64
2, 39480, Note_on_c, 0, 74, 40
2, 39480, Note_on_c, 0, 69, 41
2, 39480, Note_on_c, 0, 80, 43
2, 39528, Note_off_c, 0, 80, 64
2, 39540, Note_on_c, 0, 81, 58
2, 39576, Note_off_c, 0, 69, 64
2, 39576, Note_off_c, 0, 74, 64
2, 39588, Note_off_c, 0, 81, 64
2, 39600, Note_on_c, 0, 69, 47
2, 39600, Note_on_c, 0, 74, 33
2, 39600, Note_on_c, 0, 86, 83
2, 39648, Note_off_c, 0, 86, 64
2, 39660, Note_on_c, 0, 81, 58
2, 39696, Note_off_c, 0, 74, 64
2, 39696, Note_off_c, 0, 69, 64
2, 39708, Note_off_c, 0, 81, 64
2, 39720, Note_on_c, 0, 69, 42
2, 39720, Note_on_c, 0, 74, 42
2, 39720, Note_on_c, 0, 80, 50
2, 39768, Note_off_c, 0, 80, 64
2, 39780, Note_on_c, 0, 81, 54
2, 39816, Note_off_c, 0, 74, 64
2, 39816, Note_off_c, 0, 69, 64
2, 39828, Note_off_c, 0, 81, 64
2, 39840, Note_on_c, 0, 69, 42
2, 39840, Note_on_c, 0, 74, 41
2, 39840, Note_on_c, 0, 77, 44
2, 39936, Note_off_c, 0, 74, 64
2, 39936, Note_off_c, 0, 69, 64
2, 39960, Note_on_c, 0, 69, 40
2, 39960, Note_on_c, 0, 74, 1
2, 40032, Note_off_c, 0, 77, 64
2, 40056, Note_off_c, 0, 74, 64
2, 40056, Note_off_c, 0, 69, 64
2, 40080, Note_on_c, 0, 69, 40
2, 40080, Note_on_c, 0, 74, 42
2, 40176, Note_off_c, 0, 74, 64
2, 40176, Note_off_c, 0, 69, 64
2, 40200, Note_on_c, 0, 69, 40
2, 40200, Note_on_c, 0, 74, 42
2, 40296, Note_off_c, 0, 74, 64
2, 40296, Note_off_c, 0, 69, 64
2, 40320, Note_on_c, 0, 76, 71
2, 40320, Note_on_c, 0, 72, 42
2, 40320, Note_on_c, 0, 69, 42
2, 40368, Note_off_c, 0, 76, 64
2, 40380, Note_on_c, 0, 81, 66
2, 40416, Note_off_c, 0, 69, 64
2, 40416, Note_off_c, 0, 72, 64
2, 40428, Note_off_c, 0, 81, 64
2, 40440, Note_on_c, 0, 72, 42
2, 40440, Note_on_c, 0, 80, 43
2, 40440, Note_on_c, 0, 69, 42
2, 40488, Note_off_c, 0, 80, 64
2, 40500, Note_on_c, 0, 81, 71
2, 40536, Note_off_c, 0, 69, 64
2, 40536, Note_off_c, 0, 72, 64
2, 40548, Note_off_c, 0, 81, 64
2, 40560, Note_on_c, 0, 72, 42
2, 40560, Note_on_c, 0, 69, 42
2, 40560, Note_on_c, 0, 84, 89
2, 40608, Note_off_c, 0, 84, 64
2, 40620, Note_on_c, 0, 81, 61
2, 40656, Note_off_c, 0, 69, 64
2, 40656, Note_off_c, 0, 72, 64
2, 40668, Note_off_c, 0, 81, 64
2, 40680, Note_on_c, 0, 72, 58
2, 40680, Note_on_c, 0, 69, 61
2, 40680, Note_on_c, 0, 80, 50
2, 40728, Note_off_c, 0, 80, 64
2, 40740, Note_on_c, 0, 81, 61
2, 40776, Note_off_c, 0, 69, 64
2, 40776, Note_off_c, 0, 72, 64
2, 40788, Note_off_c, 0, 81, 64
2, 40800, Note_on_c, 0, 69, 52
2, 40800, Note_on_c, 0, 72, 47
2, 40800, Note_on_c, 0, 76, 61
2, 40896, Note_off_c, 0, 72, 64
2, 40896, Note_off_c, 0, 69, 64
2, 40920, Note_on_c, 0, 72, 43
2, 40920, Note_on_c, 0, 69, 44
2, 40992, Note_off_c, 0, 76, 64
2, 41016, Note_off_c, 0, 69, 64
2, 41016, Note_off_c, 0, 72, 64
2, 41040, Note_on_c, 0, 72, 42
2, 41040, Note_on_c, 0, 69, 43
2, 41136, Note_off_c, 0, 69, 64
2, 41136, Note_off_c, 0, 72, 64
2, 41160, Note_on_c, 0, 72, 42
2, 41160, Note_on_c, 0, 69, 45
2, 41256, Note_off_c, 0, 69, 64
2, 41256, Note_off_c, 0, 72, 64
2, 41280, Note_on_c, 0, 71, 43
2, 41280, Note_on_c, 0, 74, 66
2, 41280, Note_on_c, 0, 64, 42
2, 41328, Note_off_c, 0, 74, 64
2, 41340, Note_on_c, 0, 80, 61
2, 41376, Note_off_c, 0, 64, 64
2, 41376, Note_off_c, 0, 71, 64
2, 41388, Note_off_c, 0, 80, 64
2, 41400, Note_on_c, 0, 64, 42
2, 41400, Note_on_c, 0, 71, 42
2, 41400, Note_on_c, 0, 78, 83
2, 41448, Note_off_c, 0, 78, 64
2, 41460, Note_on_c, 0, 80, 66
2, 41496, Note_off_c, 0, 71, 64
2, 41496, Note_off_c, 0, 64, 64
2, 41508, Note_off_c, 0, 80, 64
2, 41520, Note_on_c, 0, 71, 42
2, 41520, Note_on_c, 0, 64, 42
2, 41520, Note_on_c, 0, 83, 83
2, 41568, Note_off_c, 0, 83, 64
2, 41580, Note_on_c, 0, 80, 50
2, 41616, Note_off_c, 0, 64, 64
2, 41616, Note_off_c, 0, 71, 64
2, 41628, Note_off_c, 0, 80, 64
2, 41640, Note_on_c, 0, 71, 42
2, 41640, Note_on_c, 0, 64, 42
2, 41640, Note_on_c, 0, 78, 71
2, 41688, Note_off_c, 0, 78, 64
2, 41700, Note_on_c, 0, 80, 65
2, 41736, Note_off_c, 0, 64, 64
2, 41736, Note_off_c, 0, 71, 64
2, 41748, Note_off_c, 0, 80, 64
2, 41760, Note_on_c, 0, 71, 42
2, 41760, Note_on_c, 0, 64, 42
2, 41760, Note_on_c, 0, 74, 89
2, 41856, Note_off_c, 0, 64, 64
2, 41856, Note_off_c, 0, 71, 64
2, 41880, Note_on_c, 0, 71, 42
2, 41880, Note_on_c, 0, 64, 42
2, 41952, Note_off_c, 0, 74, 64
2, 41976, Note_off_c, 0, 64, 64
2, 41976, Note_off_c, 0, 71, 64
2, 42000, Note_on_c, 0, 71, 42
2, 42000, Note_on_c, 0, 64, 42
2, 42096, Note_off_c, 0, 64, 64
2, 42096, Note_off_c, 0, 71, 64
2, 42120, Note_on_c, 0, 71, 29
2, 42120, Note_on_c, 0, 64, 35
2, 42216, Note_off_c, 0, 64, 64
2, 42216, Note_off_c, 0, 71, 64
2, 42240, Note_on_c, 0, 69, 43
2, 42240, Note_on_c, 0, 72, 66
2, 42288, Note_off_c, 0, 72, 64
2, 42300, Note_on_c, 0, 71, 55
2, 42348, Note_off_c, 0, 71, 64
2, 42360, Note_on_c, 0, 72, 71
2, 42408, Note_off_c, 0, 72, 64
2, 42420, Note_on_c, 0, 74, 71
2, 42432, Note_off_c, 0, 69, 64
2, 42468, Note_off_c, 0, 74, 64
2, 42480, Note_on_c, 0, 60, 61
2, 42480, Note_on_c, 0, 76, 71
2, 42528, Note_off_c, 0, 76, 64
2, 42540, Note_on_c, 0, 72, 58
2, 42588, Note_off_c, 0, 72, 64
2, 42600, Note_on_c, 0, 71, 61
2, 42648, Note_off_c, 0, 71, 64
2, 42660, Note_on_c, 0, 69, 54
2, 42672, Note_off_c, 0, 60, 64
2, 42708, Note_off_c, 0, 69, 64
2, 42720, Note_on_c, 0, 62, 58
2, 42840, Note_on_c, 0, 77, 54
2, 42912, Note_off_c, 0, 62, 64
2, 42936, Note_off_c, 0, 77, 64
2, 42960, Note_on_c, 0, 64, 58
2, 43080, Note_on_c, 0, 68, 80
2, 43152, Note_off_c, 0, 64, 64
2, 43176, Note_off_c, 0, 68, 64
2, 43200, Note_on_c, 0, 65, 50
2, 43200, Note_on_c, 0, 69, 80
2, 43296, Note_off_c, 0, 69, 64
2, 43320, Note_on_c, 0, 72, 54
2, 43392, Note_off_c, 0, 65, 64
2, 43416, Note_off_c, 0, 72, 64
2, 43440, Note_on_c, 0, 60, 54
2, 43560, Note_on_c, 0, 76, 52
2, 43632, Note_off_c, 0, 60, 64
2, 43656, Note_off_c, 0, 76, 64
2, 43680, Note_on_c, 0, 62, 61
2, 43800, Note_on_c, 0, 77, 50
2, 43872, Note_off_c, 0, 62, 64
2, 43896, Note_off_c, 0, 77, 64
2, 43920, Note_on_c, 0, 64, 62
2, 44040, Note_on_c, 0, 68, 54
2, 44112, Note_off_c, 0, 64, 64
2, 44136, Note_off_c, 0, 68, 64
2, 44160, Note_on_c, 0, 57, 54
2, 44160, Note_on_c, 0, 69, 58
2, 44184, Note_off_c, 0, 69, 64
2, 44190, Note_on_c, 0, 68, 43
2, 44208, Note_off_c, 0, 57, 64
2, 44214, Note_off_c, 0, 68, 64
2, 44220, Note_on_c, 0, 69, 80
2, 44220, Note_on_c, 0, 64, 42
2, 44268, Note_off_c, 0, 64, 64
2, 44280, Note_on_c, 0, 60, 55
2, 44328, Note_off_c, 0, 60, 64
2, 44340, Note_on_c, 0, 64, 45
2, 44364, Note_off_c, 0, 69, 64
2, 44388, Note_off_c, 0, 64, 64
2, 44400, Note_on_c, 0, 57, 42
2, 44400, Note_on_c, 0, 72, 61
2, 44448, Note_off_c, 0, 57, 64
2, 44460, Note_on_c, 0, 64, 42
2, 44508, Note_off_c, 0, 64, 64
2, 44520, Note_on_c, 0, 60, 46
2, 44568, Note_off_c, 0, 60, 64
2, 44580, Note_on_c, 0, 64, 42
2, 44592, Note_off_c, 0, 72, 64
2, 44628, Note_off_c, 0, 64, 64
2, 44640, Note_on_c, 0, 76, 89
2, 44640, Note_on_c, 0, 57, 42
2, 44688, Note_off_c, 0, 57, 64
2, 44700, Note_on_c, 0, 64, 44
2, 44748, Note_off_c, 0, 64, 64
2, 44760, Note_on_c, 0, 60, 52
2, 44808, Note_off_c, 0, 60, 64
2, 44820, Note_on_c, 0, 64, 43
2, 44832, Note_off_c, 0, 76, 64
2, 44868, Note_off_c, 0, 64, 64
2, 44880, Note_on_c, 0, 57, 42
2, 44880, Note_on_c, 0, 81, 71
2, 44928, Note_off_c, 0, 57, 64
2, 44940, Note_on_c, 0, 64, 47
2, 44988, Note_off_c, 0, 64, 64
2, 45000, Note_on_c, 0, 60, 52
2, 45048, Note_off_c, 0, 60, 64
2, 45060, Note_on_c, 0, 64, 50
2, 45072, Note_off_c, 0, 81, 64
2, 45108, Note_off_c, 0, 64, 64
2, 45120, Note_on_c, 0, 55, 54
2, 45120, Note_on_c, 0, 69, 58
2, 45144, Note_off_c, 0, 69, 64
2, 45150, Note_on_c, 0, 68, 43
2, 45168, Note_off_c, 0, 55, 64
2, 45174, Note_off_c, 0, 68, 64
2, 45180, Note_on_c, 0, 69, 80
2, 45180, Note_on_c, 0, 64, 45
2, 45228, Note_off_c, 0, 64, 64
2, 45240, Note_on_c, 0, 61, 52
2, 45288, Note_off_c, 0, 61, 64
2, 45300, Note_on_c, 0, 64, 54
2, 45324, Note_off_c, 0, 69, 64
2, 45348, Note_off_c, 0, 64, 64
2, 45360, Note_on_c, 0, 55, 42
2, 45360, Note_on_c, 0, 73, 77
2, 45408, Note_off_c, 0, 55, 64
2, 45420, Note_on_c, 0, 64, 54
2, 45468, Note_off_c, 0, 64, 64
2, 45480, Note_on_c, 0, 61, 71
2, 45528, Note_off_c, 0, 61, 64
2, 45540, Note_on_c, 0, 64, 50
2, 45552, Note_off_c, 0, 73, 64
2, 45588, Note_off_c, 0, 64, 64
2, 45600, Note_on_c, 0, 76, 71
2, 45600, Note_on_c, 0, 55, 46
2, 45648, Note_off_c, 0, 55, 64
2, 45660, Note_on_c, 0, 64, 50
2, 45708, Note_off_c, 0, 64, 64
2, 45720, Note_on_c, 0, 61, 58
2, 45768, Note_off_c, 0, 61, 64
2, 45780, Note_on_c, 0, 64, 52
2, 45792, Note_off_c, 0, 76, 64
2, 45828, Note_off_c, 0, 64, 64
2, 45840, Note_on_c, 0, 55, 43
2, 45840, Note_on_c, 0, 81, 55
2, 45888, Note_off_c, 0, 55, 64
2, 45900, Note_on_c, 0, 64, 44
2, 45948, Note_off_c, 0, 64, 64
2, 45960, Note_on_c, 0, 61, 50
2, 46008, Note_off_c, 0, 61, 64
2, 46020, Note_on_c, 0, 64, 43
2, 46032, Note_off_c, 0, 81, 64
2, 46068, Note_off_c, 0, 64, 64
2, 46080, Note_on_c, 0, 53, 42
2, 46080, Note_on_c, 0, 69, 58
2, 46104, Note_off_c, 0, 69, 64
2, 46110, Note_on_c, 0, 68, 43
2, 46128, Note_off_c, 0, 53, 64
2, 46134, Note_off_c, 0, 68, 64
2, 46140, Note_on_c, 0, 69, 80
2, 46140, Note_on_c, 0, 62, 58
2, 46188, Note_off_c, 0, 62, 64
2, 46200, Note_on_c, 0, 57, 54
2, 46248, Note_off_c, 0, 57, 64
2, 46260, Note_on_c, 0, 62, 42
2, 46284, Note_off_c, 0, 69, 64
2, 46308, Note_off_c, 0, 62, 64
2, 46320, Note_on_c, 0, 53, 54
2, 46320, Note_on_c, 0, 74, 71
2, 46368, Note_off_c, 0, 53, 64
2, 46380, Note_on_c, 0, 62, 44
2, 46428, Note_off_c, 0, 62, 64
2, 46440, Note_on_c, 0, 57, 12
2, 46488, Note_off_c, 0, 57, 64
2, 46500, Note_on_c, 0, 62, 44
2, 46512, Note_off_c, 0, 74, 64
2, 46548, Note_off_c, 0, 62, 64
2, 46560, Note_on_c, 0, 77, 61
2, 46560, Note_on_c, 0, 53, 42
2, 46608, Note_off_c, 0, 53, 64
2, 46620, Note_on_c, 0, 62, 44
2, 46668, Note_off_c, 0, 62, 64
2, 46680, Note_on_c, 0, 57, 45
2, 46728, Note_off_c, 0, 57, 64
2, 46740, Note_on_c, 0, 62, 43
2, 46752, Note_off_c, 0, 77, 64
2, 46788, Note_off_c, 0, 62, 64
2, 46800, Note_on_c, 0, 53, 43
2, 46800, Note_on_c, 0, 81, 50
2, 46848, Note_off_c, 0, 53, 64
2, 46860, Note_on_c, 0, 62, 52
2, 46908, Note_off_c, 0, 62, 64
2, 46920, Note_on_c, 0, 57, 40
2, 46968, Note_off_c, 0, 57, 64
2, 46980, Note_on_c, 0, 62, 42
2, 46992, Note_off_c, 0, 81, 64
2, 47028, Note_off_c, 0, 62, 64
2, 47040, Note_on_c, 0, 53, 43
2, 47040, Note_on_c, 0, 67, 58
2, 47064, Note_off_c, 0, 67, 64
2, 47070, Note_on_c, 0, 66, 43
2, 47088, Note_off_c, 0, 53, 64
2, 47094, Note_off_c, 0, 66, 64
2, 47100, Note_on_c, 0, 62, 46
2, 47100, Note_on_c, 0, 67, 80
2, 47148, Note_off_c, 0, 62, 64
2, 47160, Note_on_c, 0, 59, 54
2, 47208, Note_off_c, 0, 59, 64
2, 47220, Note_on_c, 0, 62, 54
2, 47244, Note_off_c, 0, 67, 64
2, 47268, Note_off_c, 0, 62, 64
2, 47280, Note_on_c, 0, 71, 80
2, 47280, Note_on_c, 0, 53, 47
2, 47328, Note_off_c, 0, 53, 64
2, 47340, Note_on_c, 0, 62, 52
2, 47388, Note_off_c, 0, 62, 64
2, 47400, Note_on_c, 0, 59, 54
2, 47448, Note_off_c, 0, 59, 64
2, 47460, Note_on_c, 0, 62, 46
2, 47472, Note_off_c, 0, 71, 64
2, 47508, Note_off_c, 0, 62, 64
2, 47520, Note_on_c, 0, 53, 50
2, 47520, Note_on_c, 0, 74, 80
2, 47568, Note_off_c, 0, 53, 64
2, 47580, Note_on_c, 0, 62, 42
2, 47628, Note_off_c, 0, 62, 64
2, 47640, Note_on_c, 0, 59, 47
2, 47688, Note_off_c, 0, 59, 64
2, 47700, Note_on_c, 0, 62, 43
2, 47712, Note_off_c, 0, 74, 64
2, 47748, Note_off_c, 0, 62, 64
2, 47760, Note_on_c, 0, 79, 80
2, 47760, Note_on_c, 0, 53, 47
2, 47808, Note_off_c, 0, 53, 64
2, 47820, Note_on_c, 0, 62, 45
2, 47868, Note_off_c, 0, 62, 64
2, 47880, Note_on_c, 0, 59, 54
2, 47928, Note_off_c, 0, 59, 64
2, 47940, Note_on_c, 0, 62, 47
2, 47952, Note_off_c, 0, 79, 64
2, 47988, Note_off_c, 0, 62, 64
2, 48000, Note_on_c, 0, 52, 55
2, 48000, Note_on_c, 0, 67, 58
2, 48024, Note_off_c, 0, 67, 64
2, 48030, Note_on_c, 0, 66, 43
2, 48048, Note_off_c, 0, 52, 64
2, 48054, Note_off_c, 0, 66, 64
2, 48060, Note_on_c, 0, 67, 80
2, 48060, Note_on_c, 0, 60, 54
2, 48108, Note_off_c, 0, 60, 64
2, 48120, Note_on_c, 0, 55, 44
2, 48168, Note_off_c, 0, 55, 64
2, 48180, Note_on_c, 0, 60, 46
2, 48204, Note_off_c, 0, 67, 64
2, 48228, Note_off_c, 0, 60, 64
2, 48240, Note_on_c, 0, 52, 42
2, 48240, Note_on_c, 0, 72, 58
2, 48288, Note_off_c, 0, 52, 64
2, 48300, Note_on_c, 0, 60, 45
2, 48348, Note_off_c, 0, 60, 64
2, 48360, Note_on_c, 0, 55, 45
2, 48408, Note_off_c, 0, 55, 64
2, 48420, Note_on_c, 0, 60, 44
2, 48432, Note_off_c, 0, 72, 64
2, 48468, Note_off_c, 0, 60, 64
2, 48480, Note_on_c, 0, 76, 71
2, 48480, Note_on_c, 0, 52, 52
2, 48528, Note_off_c, 0, 52, 64
2, 48540, Note_on_c, 0, 60, 54
2, 48588, Note_off_c, 0, 60, 64
2, 48600, Note_on_c, 0, 55, 62
2, 48648, Note_off_c, 0, 55, 64
2, 48660, Note_on_c, 0, 60, 54
2, 48672, Note_off_c, 0, 76, 64
2, 48708, Note_off_c, 0, 60, 64
2, 48720, Note_on_c, 0, 52, 44
2, 48720, Note_on_c, 0, 79, 58
2, 48768, Note_off_c, 0, 52, 64
2, 48780, Note_on_c, 0, 60, 58
2, 48828, Note_off_c, 0, 60, 64
2, 48840, Note_on_c, 0, 55, 61
2, 48888, Note_off_c, 0, 55, 64
2, 48900, Note_on_c, 0, 60, 42
2, 48912, Note_off_c, 0, 79, 64
2, 48948, Note_off_c, 0, 60, 64
2, 48960, Note_on_c, 0, 77, 58
2, 48960, Note_on_c, 0, 47, 50
2, 48984, Note_off_c, 0, 77, 64
2, 48990, Note_on_c, 0, 76, 43
2, 49008, Note_off_c, 0, 47, 64
2, 49014, Note_off_c, 0, 76, 64
2, 49020, Note_on_c, 0, 77, 80
2, 49020, Note_on_c, 0, 55, 42
2, 49068, Note_off_c, 0, 55, 64
2, 49080, Note_on_c, 0, 50, 66
2, 49128, Note_off_c, 0, 50, 64
2, 49140, Note_on_c, 0, 55, 43
2, 49164, Note_off_c, 0, 77, 64
2, 49188, Note_off_c, 0, 55, 64
2, 49200, Note_on_c, 0, 47, 43
2, 49248, Note_off_c, 0, 47, 64
2, 49260, Note_on_c, 0, 55, 42
2, 49308, Note_off_c, 0, 55, 64
2, 49320, Note_on_c, 0, 50, 58
2, 49368, Note_off_c, 0, 50, 64
2, 49380, Note_on_c, 0, 55, 43
2, 49428, Note_off_c, 0, 55, 64
2, 49440, Note_on_c, 0, 76, 58
2, 49440, Note_on_c, 0, 48, 61
2, 49464, Note_off_c, 0, 76, 64
2, 49470, Note_on_c, 0, 74, 43
2, 49488, Note_off_c, 0, 48, 64
2, 49494, Note_off_c, 0, 74, 64
2, 49500, Note_on_c, 0, 76, 80
2, 49500, Note_on_c, 0, 55, 45
2, 49548, Note_off_c, 0, 55, 64
2, 49560, Note_on_c, 0, 52, 62
2, 49608, Note_off_c, 0, 52, 64
2, 49620, Note_on_c, 0, 55, 45
2, 49644, Note_off_c, 0, 76, 64
2, 49668, Note_off_c, 0, 55, 64
2, 49680, Note_on_c, 0, 48, 58
2, 49728, Note_off_c, 0, 48, 64
2, 49740, Note_on_c, 0, 55, 42
2, 49788, Note_off_c, 0, 55, 64
2, 49800, Note_on_c, 0, 52, 61
2, 49848, Note_off_c, 0, 52, 64
2, 49860, Note_on_c, 0, 55, 45
2, 49908, Note_off_c, 0, 55, 64
2, 49920, Note_on_c, 0, 77, 58
2, 49920, Note_on_c, 0, 47, 66
2, 49944, Note_off_c, 0, 77, 64
2, 49950, Note_on_c, 0, 76, 43
2, 49968, Note_off_c, 0, 47, 64
2, 49974, Note_off_c, 0, 76, 64
2, 49980, Note_on_c, 0, 77, 80
2, 49980, Note_on_c, 0, 55, 42
2, 50028, Note_off_c, 0, 55, 64
2, 50040, Note_on_c, 0, 50, 67
2, 50088, Note_off_c, 0, 50, 64
2, 50100, Note_on_c, 0, 55, 43
2, 50124, Note_off_c, 0, 77, 64
2, 50148, Note_off_c, 0, 55, 64
2, 50160, Note_on_c, 0, 47, 44
2, 50208, Note_off_c, 0, 47, 64
2, 50220, Note_on_c, 0, 55, 42
2, 50268, Note_off_c, 0, 55, 64
2, 50280, Note_on_c, 0, 50, 42
2, 50328, Note_off_c, 0, 50, 64
2, 50340, Note_on_c, 0, 55, 43
2, 50388, Note_off_c, 0, 55, 64
2, 50400, Note_on_c, 0, 76, 58
2, 50400, Note_on_c, 0, 48, 50
2, 50424, Note_off_c, 0, 76, 64
2, 50430, Note_on_c, 0, 74, 43
2, 50448, Note_off_c, 0, 48, 64
2, 50454, Note_off_c, 0, 74, 64
2, 50460, Note_on_c, 0, 76, 80
2, 50460, Note_on_c, 0, 55, 42
2, 50508, Note_off_c, 0, 55, 64
2, 50520, Note_on_c, 0, 52, 47
2, 50568, Note_off_c, 0, 52, 64
2, 50580, Note_on_c, 0, 55, 43
2, 50604, Note_off_c, 0, 76, 64
2, 50628, Note_off_c, 0, 55, 64
2, 50640, Note_on_c, 0, 48, 43
2, 50688, Note_off_c, 0, 48, 64
2, 50700, Note_on_c, 0, 55, 42
2, 50748, Note_off_c, 0, 55, 64
2, 50760, Note_on_c, 0, 52, 42
2, 50808, Note_off_c, 0, 52, 64
2, 50820, Note_on_c, 0, 55, 42
2, 50868, Note_off_c, 0, 55, 64
2, 50880, Note_on_c, 0, 53, 54
2, 50880, Note_on_c, 0, 74, 42
2, 50928, Note_off_c, 0, 74, 64
2, 50940, Note_on_c, 0, 73, 42
2, 50988, Note_off_c, 0, 73, 64
2, 51000, Note_on_c, 0, 74, 42
2, 51048, Note_off_c, 0, 74, 64
2, 51060, Note_on_c, 0, 76, 50
2, 51108, Note_off_c, 0, 76, 64
2, 51120, Note_on_c, 0, 77, 52
2, 51168, Note_off_c, 0, 77, 64
2, 51180, Note_on_c, 0, 76, 54
2, 51228, Note_off_c, 0, 76, 64
2, 51240, Note_on_c, 0, 77, 50
2, 51288, Note_off_c, 0, 77, 64
2, 51300, Note_on_c, 0, 79, 66
2, 51348, Note_off_c, 0, 79, 64
2, 51360, Note_on_c, 0, 81, 43
2, 51456, Note_off_c, 0, 81, 64
2, 51456, Note_off_c, 0, 53, 64
2, 51480, Note_on_c, 0, 69, 58
2, 51576, Note_off_c, 0, 69, 64
2, 51600, Note_on_c, 0, 54, 52
2, 51600, Note_on_c, 0, 71, 42
2, 51696, Note_off_c, 0, 71, 64
2, 51720, Note_on_c, 0, 72, 61
2, 51792, Note_off_c, 0, 54, 64
2, 51816, Note_off_c, 0, 72, 64
2, 51840, Note_on_c, 0, 55, 58
2, 51840, Note_on_c, 0, 72, 66
2, 51888, Note_off_c, 0, 72, 64
2, 51900, Note_on_c, 0, 71, 42
2, 51948, Note_off_c, 0, 71, 64
2, 51960, Note_on_c, 0, 69, 43
2, 52008, Note_off_c, 0, 69, 64
2, 52020, Note_on_c, 0, 67, 42
2, 52032, Note_off_c, 0, 55, 64
2, 52068, Note_off_c, 0, 67, 64
2, 52080, Note_on_c, 0, 59, 58
2, 52080, Note_on_c, 0, 55, 50
2, 52080, Note_on_c, 0, 67, 42
2, 52272, Note_off_c, 0, 67, 64
2, 52272, Note_off_c, 0, 55, 64
2, 52272, Note_off_c, 0, 59, 64
2, 52320, Note_on_c, 0, 59, 44
2, 52320, Note_on_c, 0, 55, 48
2, 52320, Note_on_c, 0, 67, 42
2, 52512, Note_off_c, 0, 67, 64
2, 52512, Note_off_c, 0, 55, 64
2, 52512, Note_off_c, 0, 59, 64
2, 52800, Note_on_c, 0, 76, 45
2, 52800, Note_on_c, 0, 60, 52
2, 52848, Note_off_c, 0, 60, 64
2, 52860, Note_on_c, 0, 67, 42
2, 52896, Note_off_c, 0, 76, 64
2, 52908, Note_off_c, 0, 67, 64
2, 52920, Note_on_c, 0, 79, 43
2, 52920, Note_on_c, 0, 64, 61
2, 52968, Note_off_c, 0, 64, 64
2, 52980, Note_on_c, 0, 67, 42
2, 53016, Note_off_c, 0, 79, 64
2, 53028, Note_off_c, 0, 67, 64
2, 53040, Note_on_c, 0, 60, 43
2, 53088, Note_off_c, 0, 60, 64
2, 53100, Note_on_c, 0, 67, 42
2, 53148, Note_off_c, 0, 67, 64
2, 53160, Note_on_c, 0, 79, 50
2, 53160, Note_on_c, 0, 64, 50
2, 53208, Note_off_c, 0, 64, 64
2, 53220, Note_on_c, 0, 67, 42
2, 53256, Note_off_c, 0, 79, 64
2, 53268, Note_off_c, 0, 67, 64
2, 53280, Note_on_c, 0, 84, 61
2, 53280, Note_on_c, 0, 60, 52
2, 53328, Note_off_c, 0, 60, 64
2, 53340, Note_on_c, 0, 67, 43
2, 53376, Note_off_c, 0, 84, 64
2, 53388, Note_off_c, 0, 67, 64
2, 53400, Note_on_c, 0, 79, 42
2, 53400, Note_on_c, 0, 64, 61
2, 53448, Note_off_c, 0, 64, 64
2, 53460, Note_on_c, 0, 67, 43
2, 53496, Note_off_c, 0, 79, 64
2, 53508, Note_off_c, 0, 67, 64
2, 53520, Note_on_c, 0, 60, 1
2, 53568, Note_off_c, 0, 60, 64
2, 53580, Note_on_c, 0, 67, 40
2, 53628, Note_off_c, 0, 67, 64
2, 53640, Note_on_c, 0, 64, 71
2, 53640, Note_on_c, 0, 76, 66
2, 53688, Note_off_c, 0, 64, 64
2, 53700, Note_on_c, 0, 67, 42
2, 53736, Note_off_c, 0, 76, 64
2, 53748, Note_off_c, 0, 67, 64
2, 53760, Note_on_c, 0, 77, 52
2, 53760, Note_on_c, 0, 59, 42
2, 53808, Note_off_c, 0, 59, 64
2, 53820, Note_on_c, 0, 67, 42
2, 53856, Note_off_c, 0, 77, 64
2, 53868, Note_off_c, 0, 67, 64
2, 53880, Note_on_c, 0, 74, 58
2, 53880, Note_on_c, 0, 62, 71
2, 53928, Note_off_c, 0, 62, 64
2, 53940, Note_on_c, 0, 67, 36
2, 53976, Note_off_c, 0, 74, 64
2, 53988, Note_off_c, 0, 67, 64
2, 54000, Note_on_c, 0, 59, 43
2, 54048, Note_off_c, 0, 59, 64
2, 54060, Note_on_c, 0, 67, 42
2, 54108, Note_off_c, 0, 67, 64
2, 54120, Note_on_c, 0, 83, 58
2, 54120, Note_on_c, 0, 62, 43
2, 54168, Note_off_c, 0, 62, 64
2, 54180, Note_on_c, 0, 67, 42
2, 54216, Note_off_c, 0, 83, 64
2, 54228, Note_off_c, 0, 67, 64
2, 54240, Note_on_c, 0, 86, 61
2, 54240, Note_on_c, 0, 59, 47
2, 54288, Note_off_c, 0, 59, 64
2, 54300, Note_on_c, 0, 67, 42
2, 54336, Note_off_c, 0, 86, 64
2, 54348, Note_off_c, 0, 67, 64
2, 54360, Note_on_c, 0, 77, 42
2, 54360, Note_on_c, 0, 62, 42
2, 54408, Note_off_c, 0, 62, 64
2, 54420, Note_on_c, 0, 67, 42
2, 54456, Note_off_c, 0, 77, 64
2, 54468, Note_off_c, 0, 67, 64
2, 54480, Note_on_c, 0, 59, 43
2, 54528, Note_off_c, 0, 59, 64
2, 54540, Note_on_c, 0, 67, 42
2, 54588, Note_off_c, 0, 67, 64
2, 54600, Note_on_c, 0, 62, 61
2, 54600, Note_on_c, 0, 77, 61
2, 54648, Note_off_c, 0, 62, 64
2, 54660, Note_on_c, 0, 67, 42
2, 54696, Note_off_c, 0, 77, 64
2, 54708, Note_off_c, 0, 67, 64
2, 54720, Note_on_c, 0, 76, 45
2, 54720, Note_on_c, 0, 60, 71
2, 54768, Note_off_c, 0, 60, 64
2, 54780, Note_on_c, 0, 67, 42
2, 54816, Note_off_c, 0, 76, 64
2, 54828, Note_off_c, 0, 67, 64
2, 54840, Note_on_c, 0, 79, 43
2, 54840, Note_on_c, 0, 64, 44
2, 54888, Note_off_c, 0, 64, 64
2, 54900, Note_on_c, 0, 67, 42
2, 54936, Note_off_c, 0, 79, 64
2, 54948, Note_off_c, 0, 67, 64
2, 54960, Note_on_c, 0, 60, 45
2, 55008, Note_off_c, 0, 60, 64
2, 55020, Note_on_c, 0, 67, 42
2, 55068, Note_off_c, 0, 67, 64
2, 55080, Note_on_c, 0, 79, 50
2, 55080, Note_on_c, 0, 64, 62
2, 55128, Note_off_c, 0, 64, 64
2, 55140, Note_on_c, 0, 67, 42
2, 55176, Note_off_c, 0, 79, 64
2, 55188, Note_off_c, 0, 67, 64
2, 55200, Note_on_c, 0, 84, 61
2, 55200, Note_on_c, 0, 60, 71
2, 55248, Note_off_c, 0, 60, 64
2, 55260, Note_on_c, 0, 67, 42
2, 55296, Note_off_c, 0, 84, 64
2, 55308, Note_off_c, 0, 67, 64
2, 55320, Note_on_c, 0, 79, 42
2, 55320, Note_on_c, 0, 64, 77
2, 55368, Note_off_c, 0, 64, 64
2, 55380, Note_on_c, 0, 67, 42
2, 55416, Note_off_c, 0, 79, 64
2, 55428, Note_off_c, 0, 67, 64
2, 55440, Note_on_c, 0, 60, 50
2, 55488, Note_off_c, 0, 60, 64
2, 55500, Note_on_c, 0, 67, 42
2, 55548, Note_off_c, 0, 67, 64
2, 55560, Note_on_c, 0, 64, 42
2, 55560, Note_on_c, 0, 76, 66
2, 55608, Note_off_c, 0, 64, 64
2, 55620, Note_on_c, 0, 67, 42
2, 55656, Note_off_c, 0, 76, 64
2, 55668, Note_off_c, 0, 67, 64
2, 55680, Note_on_c, 0, 77, 52
2, 55680, Note_on_c, 0, 59, 66
2, 55728, Note_off_c, 0, 59, 64
2, 55740, Note_on_c, 0, 67, 43
2, 55776, Note_off_c, 0, 77, 64
2, 55788, Note_off_c, 0, 67, 64
2, 55800, Note_on_c, 0, 74, 58
2, 55800, Note_on_c, 0, 62, 71
2, 55848, Note_off_c, 0, 62, 64
2, 55860, Note_on_c, 0, 67, 43
2, 55896, Note_off_c, 0, 74, 64
2, 55908, Note_off_c, 0, 67, 64
2, 55920, Note_on_c, 0, 59, 47
2, 55968, Note_off_c, 0, 59, 64
2, 55980, Note_on_c, 0, 67, 44
2, 56028, Note_off_c, 0, 67, 64
2, 56040, Note_on_c, 0, 83, 58
2, 56040, Note_on_c, 0, 62, 75
2, 56088, Note_off_c, 0, 62, 64
2, 56100, Note_on_c, 0, 67, 43
2, 56136, Note_off_c, 0, 83, 64
2, 56148, Note_off_c, 0, 67, 64
2, 56160, Note_on_c, 0, 86, 61
2, 56160, Note_on_c, 0, 59, 50
2, 56208, Note_off_c, 0, 59, 64
2, 56220, Note_on_c, 0, 67, 42
2, 56256, Note_off_c, 0, 86, 64
2, 56268, Note_off_c, 0, 67, 64
2, 56280, Note_on_c, 0, 77, 42
2, 56280, Note_on_c, 0, 62, 77
2, 56328, Note_off_c, 0, 62, 64
2, 56340, Note_on_c, 0, 67, 42
2, 56376, Note_off_c, 0, 77, 64
2, 56388, Note_off_c, 0, 67, 64
2, 56400, Note_on_c, 0, 59, 52
2, 56448, Note_off_c, 0, 59, 64
2, 56460, Note_on_c, 0, 67, 43
2, 56508, Note_off_c, 0, 67, 64
2, 56520, Note_on_c, 0, 62, 66
2, 56520, Note_on_c, 0, 77, 61
2, 56568, Note_off_c, 0, 62, 64
2, 56580, Note_on_c, 0, 67, 42
2, 56616, Note_off_c, 0, 77, 64
2, 56628, Note_off_c, 0, 67, 64
2, 56640, Note_on_c, 0, 60, 44
2, 56640, Note_on_c, 0, 76, 66
2, 56688, Note_off_c, 0, 76, 64
2, 56700, Note_on_c, 0, 84, 77
2, 56748, Note_off_c, 0, 84, 64
2, 56760, Note_on_c, 0, 83, 50
2, 56808, Note_off_c, 0, 83, 64
2, 56820, Note_on_c, 0, 84, 61
2, 56832, Note_off_c, 0, 60, 64
2, 56868, Note_off_c, 0, 84, 64
2, 56880, Note_on_c, 0, 86, 58
2, 56928, Note_off_c, 0, 86, 64
2, 56940, Note_on_c, 0, 84, 42
2, 56988, Note_off_c, 0, 84, 64
2, 57000, Note_on_c, 0, 83, 50
2, 57048, Note_off_c, 0, 83, 64
2, 57060, Note_on_c, 0, 84, 58
2, 57108, Note_off_c, 0, 84, 64
2, 57120, Note_on_c, 0, 72, 51
2, 57120, Note_on_c, 0, 76, 77
2, 57120, Note_on_c, 0, 64, 43
2, 57168, Note_off_c, 0, 76, 64
2, 57180, Note_on_c, 0, 82, 77
2, 57228, Note_off_c, 0, 82, 64
2, 57240, Note_on_c, 0, 81, 66
2, 57288, Note_off_c, 0, 81, 64
2, 57300, Note_on_c, 0, 82, 89
2, 57312, Note_off_c, 0, 64, 64
2, 57312, Note_off_c, 0, 72, 64
2, 57348, Note_off_c, 0, 82, 64
2, 57360, Note_on_c, 0, 84, 83
2, 57408, Note_off_c, 0, 84, 64
2, 57420, Note_on_c, 0, 82, 66
2, 57468, Note_off_c, 0, 82, 64
2, 57480, Note_on_c, 0, 81, 50
2, 57528, Note_off_c, 0, 81, 64
2, 57540, Note_on_c, 0, 82, 77
2, 57588, Note_off_c, 0, 82, 64
2, 57600, Note_on_c, 0, 81, 80
2, 57600, Note_on_c, 0, 65, 47
2, 57648, Note_off_c, 0, 65, 64
2, 57660, Note_on_c, 0, 72, 44
2, 57708, Note_off_c, 0, 72, 64
2, 57720, Note_on_c, 0, 69, 34
2, 57768, Note_off_c, 0, 69, 64
2, 57780, Note_on_c, 0, 72, 42
2, 57792, Note_off_c, 0, 81, 64
2, 57828, Note_off_c, 0, 72, 64
2, 57840, Note_on_c, 0, 81, 80
2, 57840, Note_on_c, 0, 65, 45
2, 57888, Note_off_c, 0, 65, 64
2, 57900, Note_on_c, 0, 72, 52
2, 57948, Note_off_c, 0, 72, 64
2, 57960, Note_on_c, 0, 69, 47
2, 58008, Note_off_c, 0, 69, 64
2, 58020, Note_on_c, 0, 72, 61
2, 58032, Note_off_c, 0, 81, 64
2, 58068, Note_off_c, 0, 72, 64
2, 58080, Note_on_c, 0, 65, 50
2, 58080, Note_on_c, 0, 81, 43
2, 58176, Note_off_c, 0, 81, 64
2, 58200, Note_on_c, 0, 84, 61
2, 58272, Note_off_c, 0, 65, 64
2, 58296, Note_off_c, 0, 84, 64
2, 58320, Note_on_c, 0, 83, 47
2, 58368, Note_off_c, 0, 83, 64
2, 58380, Note_on_c, 0, 81, 61
2, 58428, Note_off_c, 0, 81, 64
2, 58440, Note_on_c, 0, 79, 47
2, 58488, Note_off_c, 0, 79, 64
2, 58500, Note_on_c, 0, 77, 54
2, 58548, Note_off_c, 0, 77, 64
2, 58560, Note_on_c, 0, 76, 43
2, 58560, Note_on_c, 0, 60, 47
2, 58560, Note_on_c, 0, 55, 42
2, 58656, Note_off_c, 0, 55, 64
2, 58656, Note_off_c, 0, 60, 64
2, 58656, Note_off_c, 0, 76, 64
2, 58680, Note_on_c, 0, 55, 45
2, 58680, Note_on_c, 0, 79, 42
2, 58680, Note_on_c, 0, 60, 71
2, 58776, Note_off_c, 0, 60, 64
2, 58776, Note_off_c, 0, 79, 64
2, 58776, Note_off_c, 0, 55, 64
2, 58800, Note_on_c, 0, 55, 43
2, 58800, Note_on_c, 0, 77, 43
2, 58800, Note_on_c, 0, 60, 64
2, 58848, Note_off_c, 0, 77, 64
2, 58860, Note_on_c, 0, 76, 58
2, 58896, Note_off_c, 0, 60, 64
2, 58896, Note_off_c, 0, 55, 64
2, 58908, Note_off_c, 0, 76, 64
2, 58920, Note_on_c, 0, 60, 71
2, 58920, Note_on_c, 0, 55, 45
2, 58920, Note_on_c, 0, 74, 42
2, 58968, Note_off_c, 0, 74, 64
2, 58980, Note_on_c, 0, 72, 52
2, 59016, Note_off_c, 0, 55, 64
2, 59016, Note_off_c, 0, 60, 64
2, 59028, Note_off_c, 0, 72, 64
2, 59040, Note_on_c, 0, 76, 43
2, 59040, Note_on_c, 0, 55, 42
2, 59040, Note_on_c, 0, 59, 51
2, 59052, Note_off_c, 0, 76, 64
2, 59055, Note_on_c, 0, 74, 42
2, 59067, Note_off_c, 0, 74, 64
2, 59070, Note_on_c, 0, 76, 47
2, 59082, Note_off_c, 0, 76, 64
2, 59085, Note_on_c, 0, 74, 42
2, 59097, Note_off_c, 0, 74, 64
2, 59100, Note_on_c, 0, 76, 61
2, 59112, Note_off_c, 0, 76, 64
2, 59115, Note_on_c, 0, 74, 43
2, 59127, Note_off_c, 0, 74, 64
2, 59130, Note_on_c, 0, 76, 61
2, 59136, Note_off_c, 0, 59, 64
2, 59136, Note_off_c, 0, 55, 64
2, 59142, Note_off_c, 0, 76, 64
2, 59145, Note_on_c, 0, 74, 50
2, 59157, Note_off_c, 0, 74, 64
2, 59160, Note_on_c, 0, 59, 43
2, 59160, Note_on_c, 0, 55, 42
2, 59160, Note_on_c, 0, 76, 54
2, 59172, Note_off_c, 0, 76, 64
2, 59175, Note_on_c, 0, 74, 43
2, 59187, Note_off_c, 0, 74, 64
2, 59190, Note_on_c, 0, 76, 66
2, 59202, Note_off_c, 0, 76, 64
2, 59205, Note_on_c, 0, 74, 42
2, 59217, Note_off_c, 0, 74, 64
2, 59220, Note_on_c, 0, 76, 45
2, 59232, Note_off_c, 0, 76, 64
2, 59235, Note_on_c, 0, 74, 12
2, 59247, Note_off_c, 0, 74, 64
2, 59250, Note_on_c, 0, 76, 45
2, 59256, Note_off_c, 0, 55, 64
2, 59256, Note_off_c, 0, 59, 64
2, 59262, Note_off_c, 0, 76, 64
2, 59265, Note_on_c, 0, 74, 42
2, 59277, Note_off_c, 0, 74, 64
2, 59280, Note_on_c, 0, 59, 46
2, 59280, Note_on_c, 0, 55, 42
2, 59280, Note_on_c, 0, 76, 42
2, 59292, Note_off_c, 0, 76, 64
2, 59295, Note_on_c, 0, 74, 42
2, 59307, Note_off_c, 0, 74, 64
2, 59310, Note_on_c, 0, 76, 52
2, 59322, Note_off_c, 0, 76, 64
2, 59325, Note_on_c, 0, 74, 42
2, 59337, Note_off_c, 0, 74, 64
2, 59340, Note_on_c, 0, 76, 50
2, 59352, Note_off_c, 0, 76, 64
2, 59355, Note_on_c, 0, 74, 42
2, 59367, Note_off_c, 0, 74, 64
2, 59370, Note_on_c, 0, 76, 58
2, 59376, Note_off_c, 0, 55, 64
2, 59376, Note_off_c, 0, 59, 64
2, 59382, Note_off_c, 0, 76, 64
2, 59385, Note_on_c, 0, 74, 54
2, 59397, Note_off_c, 0, 74, 64
2, 59400, Note_on_c, 0, 55, 40
2, 59400, Note_on_c, 0, 59, 42
2, 59400, Note_on_c, 0, 76, 71
2, 59412, Note_off_c, 0, 76, 64
2, 59415, Note_on_c, 0, 74, 42
2, 59427, Note_off_c, 0, 74, 64
2, 59430, Note_on_c, 0, 76, 50
2, 59442, Note_off_c, 0, 76, 64
2, 59445, Note_on_c, 0, 74, 43
2, 59457, Note_off_c, 0, 74, 64
2, 59460, Note_on_c, 0, 76, 44
2, 59472, Note_off_c, 0, 76, 64
2, 59475, Note_on_c, 0, 74, 43
2, 59487, Note_off_c, 0, 74, 64
2, 59490, Note_on_c, 0, 76, 41
2, 59496, Note_off_c, 0, 59, 64
2, 59496, Note_off_c, 0, 55, 64
2, 59502, Note_off_c, 0, 76, 64
2, 59505, Note_on_c, 0, 74, 42
2, 59517, Note_off_c, 0, 74, 64
2, 59520, Note_on_c, 0, 60, 80
2, 59520, Note_on_c, 0, 72, 80
2, 59712, Note_off_c, 0, 72, 64
2, 59712, Note_off_c, 0, 60, 64
2, 59760, Note_on_c, 0, 64, 61
2, 59820, Note_on_c, 0, 79, 58
2, 59868, Note_off_c, 0, 79, 64
2, 59880, Note_on_c, 0, 76, 52
2, 59928, Note_off_c, 0, 76, 64
2, 59940, Note_on_c, 0, 72, 47
2, 59952, Note_off_c, 0, 64, 64
2, 59988, Note_off_c, 0, 72, 64
2, 60000, Note_on_c, 0, 65, 58
2, 60060, Note_on_c, 0, 81, 44
2, 60108, Note_off_c, 0, 81, 64
2, 60120, Note_on_c, 0, 80, 61
2, 60168, Note_off_c, 0, 80, 64
2, 60180, Note_on_c, 0, 81, 42
2, 60192, Note_off_c, 0, 65, 64
2, 60228, Note_off_c, 0, 81, 64
2, 60240, Note_on_c, 0, 67, 47
2, 60300, Note_on_c, 0, 77, 54
2, 60348, Note_off_c, 0, 77, 64
2, 60360, Note_on_c, 0, 74, 46
2, 60408, Note_off_c, 0, 74, 64
2, 60420, Note_on_c, 0, 71, 44
2, 60432, Note_off_c, 0, 67, 64
2, 60468, Note_off_c, 0, 71, 64
2, 60480, Note_on_c, 0, 72, 45
2, 60480, Note_on_c, 0, 69, 52
2, 60576, Note_off_c, 0, 72, 64
2, 60600, Note_on_c, 0, 76, 61
2, 60672, Note_off_c, 0, 69, 64
2, 60696, Note_off_c, 0, 76, 64
2, 60720, Note_on_c, 0, 64, 52
2, 60780, Note_on_c, 0, 79, 54
2, 60828, Note_off_c, 0, 79, 64
2, 60840, Note_on_c, 0, 76, 54
2, 60888, Note_off_c, 0, 76, 64
2, 60900, Note_on_c, 0, 72, 52
2, 60912, Note_off_c, 0, 64, 64
2, 60948, Note_off_c, 0, 72, 64
2, 60960, Note_on_c, 0, 65, 58
2, 61020, Note_on_c, 0, 81, 54
2, 61068, Note_off_c, 0, 81, 64
2, 61080, Note_on_c, 0, 80, 42
2, 61128, Note_off_c, 0, 80, 64
2, 61140, Note_on_c, 0, 81, 42
2, 61152, Note_off_c, 0, 65, 64
2, 61188, Note_off_c, 0, 81, 64
2, 61200, Note_on_c, 0, 67, 42
2, 61260, Note_on_c, 0, 77, 42
2, 61308, Note_off_c, 0, 77, 64
2, 61320, Note_on_c, 0, 74, 47
2, 61368, Note_off_c, 0, 74, 64
2, 61380, Note_on_c, 0, 71, 42
2, 61392, Note_off_c, 0, 67, 64
2, 61428, Note_off_c, 0, 71, 64
2, 61440, Note_on_c, 0, 72, 43
2, 61440, Note_on_c, 0, 60, 54
2, 61632, Note_off_c, 0, 60, 64
2, 61632, Note_off_c, 0, 72, 64
2, 61680, Note_on_c, 0, 52, 45
2, 61740, Note_on_c, 0, 67, 45
2, 61788, Note_off_c, 0, 67, 64
2, 61800, Note_on_c, 0, 64, 89
2, 61848, Note_off_c, 0, 64, 64
2, 61860, Note_on_c, 0, 60, 61
2, 61872, Note_off_c, 0, 52, 64
2, 61908, Note_off_c, 0, 60, 64
2, 61920, Note_on_c, 0, 53, 61
2, 61980, Note_on_c, 0, 69, 71
2, 62028, Note_off_c, 0, 69, 64
2, 62040, Note_on_c, 0, 68, 42
2, 62088, Note_off_c, 0, 68, 64
2, 62100, Note_on_c, 0, 69, 58
2, 62112, Note_off_c, 0, 53, 64
2, 62148, Note_off_c, 0, 69, 64
2, 62160, Note_on_c, 0, 55, 67
2, 62220, Note_on_c, 0, 65, 61
2, 62268, Note_off_c, 0, 65, 64
2, 62280, Note_on_c, 0, 62, 34
2, 62328, Note_off_c, 0, 62, 64
2, 62340, Note_on_c, 0, 59, 40
2, 62352, Note_off_c, 0, 55, 64
2, 62388, Note_off_c, 0, 59, 64
2, 62400, Note_on_c, 0, 60, 42
2, 62400, Note_on_c, 0, 57, 72
2, 62496, Note_off_c, 0, 60, 64
2, 62520, Note_on_c, 0, 64, 89
2, 62592, Note_off_c, 0, 57, 64
2, 62616, Note_off_c, 0, 64, 64
2, 62640, Note_on_c, 0, 52, 54
2, 62700, Note_on_c, 0, 67, 61
2, 62748, Note_off_c, 0, 67, 64
2, 62760, Note_on_c, 0, 64, 58
2, 62808, Note_off_c, 0, 64, 64
2, 62820, Note_on_c, 0, 60, 43
2, 62832, Note_off_c, 0, 52, 64
2, 62868, Note_off_c, 0, 60, 64
2, 62880, Note_on_c, 0, 53, 54
2, 62940, Note_on_c, 0, 69, 45
2, 62988, Note_off_c, 0, 69, 64
2, 63000, Note_on_c, 0, 68, 42
2, 63048, Note_off_c, 0, 68, 64
2, 63060, Note_on_c, 0, 69, 54
2, 63072, Note_off_c, 0, 53, 64
2, 63108, Note_off_c, 0, 69, 64
2, 63120, Note_on_c, 0, 55, 54
2, 63180, Note_on_c, 0, 65, 61
2, 63228, Note_off_c, 0, 65, 64
2, 63240, Note_on_c, 0, 62, 42
2, 63288, Note_off_c, 0, 62, 64
2, 63300, Note_on_c, 0, 59, 42
2, 63312, Note_off_c, 0, 55, 64
2, 63348, Note_off_c, 0, 59, 64
2, 63360, Note_on_c, 0, 48, 58
2, 63360, Note_on_c, 0, 60, 52
2, 63408, Note_off_c, 0, 48, 64
2, 63420, Note_on_c, 0, 55, 58
2, 63468, Note_off_c, 0, 55, 64
2, 63480, Note_on_c, 0, 52, 44
2, 63528, Note_off_c, 0, 52, 64
2, 63540, Note_on_c, 0, 55, 42
2, 63552, Note_off_c, 0, 60, 64
2, 63588, Note_off_c, 0, 55, 64
2, 63600, Note_on_c, 0, 64, 65
2, 63600, Note_on_c, 0, 72, 43
2, 63600, Note_on_c, 0, 48, 42
2, 63648, Note_off_c, 0, 48, 64
2, 63660, Note_on_c, 0, 55, 50
2, 63708, Note_off_c, 0, 55, 64
2, 63720, Note_on_c, 0, 52, 50
2, 63768, Note_off_c, 0, 52, 64
2, 63780, Note_on_c, 0, 55, 52
2, 63792, Note_off_c, 0, 72, 64
2, 63792, Note_off_c, 0, 64, 64
2, 63828, Note_off_c, 0, 55, 64
2, 63840, Note_on_c, 0, 72, 45
2, 63840, Note_on_c, 0, 64, 60
2, 63840, Note_on_c, 0, 48, 61
2, 64032, Note_off_c, 0, 48, 64
2, 64032, Note_off_c, 0, 64, 64
2, 64032, Note_off_c, 0, 72, 64
2, 64320, Note_on_c, 0, 67, 43
2, 64320, Note_on_c, 0, 55, 52
2, 64344, Note_off_c, 0, 67, 64
2, 64350, Note_on_c, 0, 66, 66
2, 64368, Note_off_c, 0, 55, 64
2, 64374, Note_off_c, 0, 66, 64
2, 64380, Note_on_c, 0, 62, 50
2, 64380, Note_on_c, 0, 67, 54
2, 64428, Note_off_c, 0, 62, 64
2, 64440, Note_on_c, 0, 58, 83
2, 64488, Note_off_c, 0, 58, 64
2, 64500, Note_on_c, 0, 62, 54
2, 64524, Note_off_c, 0, 67, 64
2, 64548, Note_off_c, 0, 62, 64
2, 64560, Note_on_c, 0, 70, 112
2, 64560, Note_on_c, 0, 55, 58
2, 64608, Note_off_c, 0, 55, 64
2, 64620, Note_on_c, 0, 62, 43
2, 64668, Note_off_c, 0, 62, 64
2, 64680, Note_on_c, 0, 58, 54
2, 64728, Note_off_c, 0, 58, 64
2, 64740, Note_on_c, 0, 62, 50
2, 64752, Note_off_c, 0, 70, 64
2, 64788, Note_off_c, 0, 62, 64
2, 64800, Note_on_c, 0, 74, 97
2, 64800, Note_on_c, 0, 55, 61
2, 64848, Note_off_c, 0, 55, 64
2, 64860, Note_on_c, 0, 62, 54
2, 64908, Note_off_c, 0, 62, 64
2, 64920, Note_on_c, 0, 58, 42
2, 64968, Note_off_c, 0, 58, 64
2, 64980, Note_on_c, 0, 62, 61
2, 64992, Note_off_c, 0, 74, 64
2, 65028, Note_off_c, 0, 62, 64
2, 65040, Note_on_c, 0, 79, 71
2, 65040, Note_on_c, 0, 55, 61
2, 65088, Note_off_c, 0, 55, 64
2, 65100, Note_on_c, 0, 62, 52
2, 65148, Note_off_c, 0, 62, 64
2, 65160, Note_on_c, 0, 58, 50
2, 65208, Note_off_c, 0, 58, 64
2, 65220, Note_on_c, 0, 62, 42
2, 65232, Note_off_c, 0, 79, 64
2, 65268, Note_off_c, 0, 62, 64
2, 65280, Note_on_c, 0, 69, 54
2, 65280, Note_on_c, 0, 55, 52
2, 65304, Note_off_c, 0, 69, 64
2, 65310, Note_on_c, 0, 68, 50
2, 65328, Note_off_c, 0, 55, 64
2, 65334, Note_off_c, 0, 68, 64
2, 65340, Note_on_c, 0, 69, 77
2, 65340, Note_on_c, 0, 64, 58
2, 65388, Note_off_c, 0, 64, 64
2, 65400, Note_on_c, 0, 61, 54
2, 65448, Note_off_c, 0, 61, 64
2, 65460, Note_on_c, 0, 64, 66
2, 65484, Note_off_c, 0, 69, 64
2, 65508, Note_off_c, 0, 64, 64
2, 65520, Note_on_c, 0, 73, 114
2, 65520, Note_on_c, 0, 55, 66
2, 65568, Note_off_c, 0, 55, 64
2, 65580, Note_on_c, 0, 64, 66
2, 65628, Note_off_c, 0, 64, 64
2, 65640, Note_on_c, 0, 61, 52
2, 65688, Note_off_c, 0, 61, 64
2, 65700, Note_on_c, 0, 64, 71
2, 65712, Note_off_c, 0, 73, 64
2, 65748, Note_off_c, 0, 64, 64
2, 65760, Note_on_c, 0, 76, 89
2, 65760, Note_on_c, 0, 55, 66
2, 65808, Note_off_c, 0, 55, 64
2, 65820, Note_on_c, 0, 64, 58
2, 65868, Note_off_c, 0, 64, 64
2, 65880, Note_on_c, 0, 61, 52
2, 65928, Note_off_c, 0, 61, 64
2, 65940, Note_on_c, 0, 64, 61
2, 65952, Note_off_c, 0, 76, 64
2, 65988, Note_off_c, 0, 64, 64
2, 66000, Note_on_c, 0, 81, 71
2, 66000, Note_on_c, 0, 55, 55
2, 66048, Note_off_c, 0, 55, 64
2, 66060, Note_on_c, 0, 64, 66
2, 66108, Note_off_c, 0, 64, 64
2, 66120, Note_on_c, 0, 61, 50
2, 66168, Note_off_c, 0, 61, 64
2, 66180, Note_on_c, 0, 64, 58
2, 66192, Note_off_c, 0, 81, 64
2, 66228, Note_off_c, 0, 64, 64
2, 66240, Note_on_c, 0, 69, 54
2, 66240, Note_on_c, 0, 53, 71
2, 66264, Note_off_c, 0, 69, 64
2, 66270, Note_on_c, 0, 68, 47
2, 66288, Note_off_c, 0, 53, 64
2, 66294, Note_off_c, 0, 68, 64
2, 66300, Note_on_c, 0, 62, 50
2, 66300, Note_on_c, 0, 69, 58
2, 66348, Note_off_c, 0, 62, 64
2, 66360, Note_on_c, 0, 57, 61
2, 66408, Note_off_c, 0, 57, 64
2, 66420, Note_on_c, 0, 62, 52
2, 66444, Note_off_c, 0, 69, 64
2, 66468, Note_off_c, 0, 62, 64
2, 66480, Note_on_c, 0, 74, 69
2, 66480, Note_on_c, 0, 53, 54
2, 66528, Note_off_c, 0, 53, 64
2, 66540, Note_on_c, 0, 62, 44
2, 66588, Note_off_c, 0, 62, 64
2, 66600, Note_on_c, 0, 57, 43
2, 66648, Note_off_c, 0, 57, 64
2, 66660, Note_on_c, 0, 62, 52
2, 66672, Note_off_c, 0, 74, 64
2, 66708, Note_off_c, 0, 62, 64
2, 66720, Note_on_c, 0, 77, 89
2, 66720, Note_on_c, 0, 53, 43
2, 66768, Note_off_c, 0, 53, 64
2, 66780, Note_on_c, 0, 62, 45
2, 66828, Note_off_c, 0, 62, 64
2, 66840, Note_on_c, 0, 57, 52
2, 66888, Note_off_c, 0, 57, 64
2, 66900, Note_on_c, 0, 62, 61
2, 66912, Note_off_c, 0, 77, 64
2, 66948, Note_off_c, 0, 62, 64
2, 66960, Note_on_c, 0, 81, 77
2, 66960, Note_on_c, 0, 53, 66
2, 67008, Note_off_c, 0, 53, 64
2, 67020, Note_on_c, 0, 62, 54
2, 67068, Note_off_c, 0, 62, 64
2, 67080, Note_on_c, 0, 57, 71
2, 67128, Note_off_c, 0, 57, 64
2, 67140, Note_on_c, 0, 62, 66
2, 67152, Note_off_c, 0, 81, 64
2, 67188, Note_off_c, 0, 62, 64
2, 67200, Note_on_c, 0, 80, 83
2, 67200, Note_on_c, 0, 52, 42
2, 67224, Note_off_c, 0, 80, 64
2, 67230, Note_on_c, 0, 78, 58
2, 67248, Note_off_c, 0, 52, 64
2, 67254, Note_off_c, 0, 78, 64
2, 67260, Note_on_c, 0, 80, 80
2, 67260, Note_on_c, 0, 62, 52
2, 67308, Note_off_c, 0, 62, 64
2, 67320, Note_on_c, 0, 59, 71
2, 67368, Note_off_c, 0, 59, 64
2, 67380, Note_on_c, 0, 62, 61
2, 67404, Note_off_c, 0, 80, 64
2, 67428, Note_off_c, 0, 62, 64
2, 67440, Note_on_c, 0, 52, 52
2, 67488, Note_off_c, 0, 52, 64
2, 67500, Note_on_c, 0, 62, 42
2, 67548, Note_off_c, 0, 62, 64
2, 67560, Note_on_c, 0, 59, 46
2, 67608, Note_off_c, 0, 59, 64
2, 67620, Note_on_c, 0, 62, 50
2, 67668, Note_off_c, 0, 62, 64
2, 67680, Note_on_c, 0, 81, 52
2, 67680, Note_on_c, 0, 52, 58
2, 67704, Note_off_c, 0, 81, 64
2, 67710, Note_on_c, 0, 80, 77
2, 67728, Note_off_c, 0, 52, 64
2, 67734, Note_off_c, 0, 80, 64
2, 67740, Note_on_c, 0, 81, 80
2, 67740, Note_on_c, 0, 60, 61
2, 67788, Note_off_c, 0, 60, 64
2, 67800, Note_on_c, 0, 57, 71
2, 67848, Note_off_c, 0, 57, 64
2, 67860, Note_on_c, 0, 60, 61
2, 67884, Note_off_c, 0, 81, 64
2, 67908, Note_off_c, 0, 60, 64
2, 67920, Note_on_c, 0, 52, 61
2, 67968, Note_off_c, 0, 52, 64
2, 67980, Note_on_c, 0, 60, 61
2, 68028, Note_off_c, 0, 60, 64
2, 68040, Note_on_c, 0, 57, 61
2, 68088, Note_off_c, 0, 57, 64
2, 68100, Note_on_c, 0, 60, 54
2, 68148, Note_off_c, 0, 60, 64
2, 68160, Note_on_c, 0, 74, 58
2, 68160, Note_on_c, 0, 52, 58
2, 68184, Note_off_c, 0, 74, 64
2, 68190, Note_on_c, 0, 73, 43
2, 68208, Note_off_c, 0, 52, 64
2, 68214, Note_off_c, 0, 73, 64
2, 68220, Note_on_c, 0, 74, 80
2, 68220, Note_on_c, 0, 59, 50
2, 68268, Note_off_c, 0, 59, 64
2, 68280, Note_on_c, 0, 56, 54
2, 68328, Note_off_c, 0, 56, 64
2, 68340, Note_on_c, 0, 59, 42
2, 68364, Note_off_c, 0, 74, 64
2, 68388, Note_off_c, 0, 59, 64
2, 68400, Note_on_c, 0, 52, 54
2, 68448, Note_off_c, 0, 52, 64
2, 68460, Note_on_c, 0, 59, 43
2, 68508, Note_off_c, 0, 59, 64
2, 68520, Note_on_c, 0, 56, 31
2, 68568, Note_off_c, 0, 56, 64
2, 68580, Note_on_c, 0, 59, 42
2, 68628, Note_off_c, 0, 59, 64
2, 68640, Note_on_c, 0, 72, 42
2, 68640, Note_on_c, 0, 52, 61
2, 68664, Note_off_c, 0, 72, 64
2, 68670, Note_on_c, 0, 71, 43
2, 68688, Note_off_c, 0, 52, 64
2, 68694, Note_off_c, 0, 71, 64
2, 68700, Note_on_c, 0, 60, 66
2, 68700, Note_on_c, 0, 72, 58
2, 68700, Note_on_c, 0, 72, 58
2, 68748, Note_off_c, 0, 60, 64
2, 68760, Note_on_c, 0, 57, 61
2, 68808, Note_off_c, 0, 57, 64
2, 68820, Note_on_c, 0, 60, 47
2, 68844, Note_off_c, 0, 72, 64
2, 68844, Note_off_c, 0, 72, 64
2, 68868, Note_off_c, 0, 60, 64
2, 68880, Note_on_c, 0, 52, 58
2, 68928, Note_off_c, 0, 52, 64
2, 68940, Note_on_c, 0, 60, 47
2, 68988, Note_off_c, 0, 60, 64
2, 69000, Note_on_c, 0, 57, 43
2, 69048, Note_off_c, 0, 57, 64
2, 69060, Note_on_c, 0, 60, 42
2, 69108, Note_off_c, 0, 60, 64
2, 69120, Note_on_c, 0, 71, 61
2, 69120, Note_on_c, 0, 52, 52
2, 69168, Note_off_c, 0, 52, 64
2, 69180, Note_on_c, 0, 59, 45
2, 69228, Note_off_c, 0, 59, 64
2, 69240, Note_on_c, 0, 56, 42
2, 69288, Note_off_c, 0, 56, 64
2, 69300, Note_on_c, 0, 59, 54
2, 69312, Note_off_c, 0, 71, 64
2, 69348, Note_off_c, 0, 59, 64
2, 69360, Note_on_c, 0, 68, 58
2, 69360, Note_on_c, 0, 76, 58
2, 69360, Note_on_c, 0, 52, 58
2, 69408, Note_off_c, 0, 52, 64
2, 69420, Note_on_c, 0, 59, 54
2, 69468, Note_off_c, 0, 59, 64
2, 69480, Note_on_c, 0, 56, 55
2, 69528, Note_off_c, 0, 56, 64
2, 69540, Note_on_c, 0, 59, 52
2, 69552, Note_off_c, 0, 76, 64
2, 69552, Note_off_c, 0, 68, 64
2, 69588, Note_off_c, 0, 59, 64
2, 69600, Note_on_c, 0, 68, 50
2, 69600, Note_on_c, 0, 76, 58
2, 69600, Note_on_c, 0, 52, 66
2, 69792, Note_off_c, 0, 52, 64
2, 69792, Note_off_c, 0, 76, 64
2, 69792, Note_off_c, 0, 68, 64
2, 70080, Note_on_c, 0, 69, 65
2, 70080, Note_on_c, 0, 76, 71
2, 70080, Note_on_c, 0, 72, 45
2, 70128, Note_off_c, 0, 76, 64
2, 70140, Note_on_c, 0, 81, 66
2, 70176, Note_off_c, 0, 72, 64
2, 70176, Note_off_c, 0, 69, 64
2, 70188, Note_off_c, 0, 81, 64
2, 70200, Note_on_c, 0, 72, 47
2, 70200, Note_on_c, 0, 69, 45
2, 70200, Note_on_c, 0, 80, 43
2, 70248, Note_off_c, 0, 80, 64
2, 70260, Note_on_c, 0, 81, 71
2, 70296, Note_off_c, 0, 69, 64
2, 70296, Note_off_c, 0, 72, 64
2, 70308, Note_off_c, 0, 81, 64
2, 70320, Note_on_c, 0, 69, 47
2, 70320, Note_on_c, 0, 72, 42
2, 70320, Note_on_c, 0, 84, 89
2, 70368, Note_off_c, 0, 84, 64
2, 70380, Note_on_c, 0, 81, 61
2, 70416, Note_off_c, 0, 72, 64
2, 70416, Note_off_c, 0, 69, 64
2, 70428, Note_off_c, 0, 81, 64
2, 70440, Note_on_c, 0, 72, 42
2, 70440, Note_on_c, 0, 69, 47
2, 70440, Note_on_c, 0, 80, 50
2, 70488, Note_off_c, 0, 80, 64
2, 70500, Note_on_c, 0, 81, 61
2, 70536, Note_off_c, 0, 69, 64
2, 70536, Note_off_c, 0, 72, 64
2, 70548, Note_off_c, 0, 81, 64
2, 70560, Note_on_c, 0, 72, 42
2, 70560, Note_on_c, 0, 69, 44
2, 70560, Note_on_c, 0, 76, 61
2, 70656, Note_off_c, 0, 69, 64
2, 70656, Note_off_c, 0, 72, 64
2, 70680, Note_on_c, 0, 69, 42
2, 70680, Note_on_c, 0, 72, 37
2, 70752, Note_off_c, 0, 76, 64
2, 70776, Note_off_c, 0, 72, 64
2, 70776, Note_off_c, 0, 69, 64
2, 70800, Note_on_c, 0, 69, 43
2, 70800, Note_on_c, 0, 72, 42
2, 70896, Note_off_c, 0, 72, 64
2, 70896, Note_off_c, 0, 69, 64
2, 70920, Note_on_c, 0, 69, 43
2, 70920, Note_on_c, 0, 72, 42
2, 71016, Note_off_c, 0, 72, 64
2, 71016, Note_off_c, 0, 69, 64
2, 71040, Note_on_c, 0, 74, 43
2, 71040, Note_on_c, 0, 77, 66
2, 71040, Note_on_c, 0, 69, 45
2, 71088, Note_off_c, 0, 77, 64
2, 71100, Note_on_c, 0, 81, 66
2, 71136, Note_off_c, 0, 69, 64
2, 71136, Note_off_c, 0, 74, 64
2, 71148, Note_off_c, 0, 81, 64
2, 71160, Note_on_c, 0, 74, 40
2, 71160, Note_on_c, 0, 69, 41
2, 71160, Note_on_c, 0, 80, 43
2, 71208, Note_off_c, 0, 80, 64
2, 71220, Note_on_c, 0, 81, 58
2, 71256, Note_off_c, 0, 69, 64
2, 71256, Note_off_c, 0, 74, 64
2, 71268, Note_off_c, 0, 81, 64
2, 71280, Note_on_c, 0, 69, 47
2, 71280, Note_on_c, 0, 74, 33
2, 71280, Note_on_c, 0, 86, 83
2, 71328, Note_off_c, 0, 86, 64
2, 71340, Note_on_c, 0, 81, 58
2, 71376, Note_off_c, 0, 74, 64
2, 71376, Note_off_c, 0, 69, 64
2, 71388, Note_off_c, 0, 81, 64
2, 71400, Note_on_c, 0, 69, 42
2, 71400, Note_on_c, 0, 74, 42
2, 71400, Note_on_c, 0, 80, 50
2, 71448, Note_off_c, 0, 80, 64
2, 71460, Note_on_c, 0, 81, 54
2, 71496, Note_off_c, 0, 74, 64
2, 71496, Note_off_c, 0, 69, 64
2, 71508, Note_off_c, 0, 81, 64
2, 71520, Note_on_c, 0, 69, 42
2, 71520, Note_on_c, 0, 74, 41
2, 71520, Note_on_c, 0, 77, 44
2, 71616, Note_off_c, 0, 74, 64
2, 71616, Note_off_c, 0, 69, 64
2, 71640, Note_on_c, 0, 69, 40
2, 71640, Note_on_c, 0, 74, 1
2, 71712, Note_off_c, 0, 77, 64
2, 71736, Note_off_c, 0, 74, 64
2, 71736, Note_off_c, 0, 69, 64
2, 71760, Note_on_c, 0, 69, 40
2, 71760, Note_on_c, 0, 74, 42
2, 71856, Note_off_c, 0, 74, 64
2, 71856, Note_off_c, 0, 69, 64
2, 71880, Note_on_c, 0, 69, 40
2, 71880, Note_on_c, 0, 74, 42
2, 71976, Note_off_c, 0, 74, 64
2, 71976, Note_off_c, 0, 69, 64
2, 72000, Note_on_c, 0, 76, 71
2, 72000, Note_on_c, 0, 72, 42
2, 72000, Note_on_c, 0, 69, 42
2, 72048, Note_off_c, 0, 76, 64
2, 72060, Note_on_c, 0, 81, 66
2, 72096, Note_off_c, 0, 69, 64
2, 72096, Note_off_c, 0, 72, 64
2, 72108, Note_off_c, 0, 81, 64
2, 72120, Note_on_c, 0, 72, 42
2, 72120, Note_on_c, 0, 80, 43
2, 72120, Note_on_c, 0, 69, 42
2, 72168, Note_off_c, 0, 80, 64
2, 72180, Note_on_c, 0, 81, 71
2, 72216, Note_off_c, 0, 69, 64
2, 72216, Note_off_c, 0, 72, 64
2, 72228, Note_off_c, 0, 81, 64
2, 72240, Note_on_c, 0, 72, 42
2, 72240, Note_on_c, 0, 69, 42
2, 72240, Note_on_c, 0, 84, 89
2, 72288, Note_off_c, 0, 84, 64
2, 72300, Note_on_c, 0, 81, 61
2, 72336, Note_off_c, 0, 69, 64
2, 72336, Note_off_c, 0, 72, 64
2, 72348, Note_off_c, 0, 81, 64
2, 72360, Note_on_c, 0, 72, 58
2, 72360, Note_on_c, 0, 69, 61
2, 72360, Note_on_c, 0, 80, 50
2, 72408, Note_off_c, 0, 80, 64
2, 72420, Note_on_c, 0, 81, 61
2, 72456, Note_off_c, 0, 69, 64
2, 72456, Note_off_c, 0, 72, 64
2, 72468, Note_off_c, 0, 81, 64
2, 72480, Note_on_c, 0, 69, 52
2, 72480, Note_on_c, 0, 72, 47
2, 72480, Note_on_c, 0, 76, 61
2, 72576, Note_off_c, 0, 72, 64
2, 72576, Note_off_c, 0, 69, 64
2, 72600, Note_on_c, 0, 72, 43
2, 72600, Note_on_c, 0, 69, 44
2, 72672, Note_off_c, 0, 76, 64
2, 72696, Note_off_c, 0, 69, 64
2, 72696, Note_off_c, 0, 72, 64
2, 72720, Note_on_c, 0, 72, 42
2, 72720, Note_on_c, 0, 69, 43
2, 72816, Note_off_c, 0, 69, 64
2, 72816, Note_off_c, 0, 72, 64
2, 72840, Note_on_c, 0, 72, 42
2, 72840, Note_on_c, 0, 69, 45
2, 72936, Note_off_c, 0, 69, 64
2, 72936, Note_off_c, 0, 72, 64
2, 72960, Note_on_c, 0, 71, 43
2, 72960, Note_on_c, 0, 74, 66
2, 72960, Note_on_c, 0, 64, 42
2, 73008, Note_off_c, 0, 74, 64
2, 73020, Note_on_c, 0, 80, 61
2, 73056, Note_off_c, 0, 64, 64
2, 73056, Note_off_c, 0, 71, 64
2, 73068, Note_off_c, 0, 80, 64
2, 73080, Note_on_c, 0, 64, 42
2, 73080, Note_on_c, 0, 71, 42
2, 73080, Note_on_c, 0, 78, 83
2, 73128, Note_off_c, 0, 78, 64
2, 73140, Note_on_c, 0, 80, 66
2, 73176, Note_off_c, 0, 71, 64
2, 73176, Note_off_c, 0, 64, 64
2, 73188, Note_off_c, 0, 80, 64
2, 73200, Note_on_c, 0, 71, 42
2, 73200, Note_on_c, 0, 64, 42
2, 73200, Note_on_c, 0, 83, 83
2, 73248, Note_off_c, 0, 83, 64
2, 73260, Note_on_c, 0, 80, 50
2, 73296, Note_off_c, 0, 64, 64
2, 73296, Note_off_c, 0, 71, 64
2, 73308, Note_off_c, 0, 80, 64
2, 73320, Note_on_c, 0, 71, 42
2, 73320, Note_on_c, 0, 64, 42
2, 73320, Note_on_c, 0, 78, 71
2, 73368, Note_off_c, 0, 78, 64
2, 73380, Note_on_c, 0, 80, 65
2, 73416, Note_off_c, 0, 64, 64
2, 73416, Note_off_c, 0, 71, 64
2, 73428, Note_off_c, 0, 80, 64
2, 73440, Note_on_c, 0, 71, 42
2, 73440, Note_on_c, 0, 64, 42
2, 73440, Note_on_c, 0, 74, 89
2, 73536, Note_off_c, 0, 64, 64
2, 73536, Note_off_c, 0, 71, 64
2, 73560, Note_on_c, 0, 71, 42
2, 73560, Note_on_c, 0, 64, 42
2, 73632, Note_off_c, 0, 74, 64
2, 73656, Note_off_c, 0, 64, 64
2, 73656, Note_off_c, 0, 71, 64
2, 73680, Note_on_c, 0, 71, 42
2, 73680, Note_on_c, 0, 64, 42
2, 73776, Note_off_c, 0, 64, 64
2, 73776, Note_off_c, 0, 71, 64
2, 73800, Note_on_c, 0, 71, 29
2, 73800, Note_on_c, 0, 64, 35
2, 73896, Note_off_c, 0, 64, 64
2, 73896, Note_off_c, 0, 71, 64
2, 73920, Note_on_c, 0, 69, 43
2, 73920, Note_on_c, 0, 72, 66
2, 73968, Note_off_c, 0, 72, 64
2, 73980, Note_on_c, 0, 71, 55
2, 74028, Note_off_c, 0, 71, 64
2, 74040, Note_on_c, 0, 72, 71
2, 74088, Note_off_c, 0, 72, 64
2, 74100, Note_on_c, 0, 74, 71
2, 74112, Note_off_c, 0, 69, 64
2, 74148, Note_off_c, 0, 74, 64
2, 74160, Note_on_c, 0, 60, 61
2, 74160, Note_on_c, 0, 76, 71
2, 74208, Note_off_c, 0, 76, 64
2, 74220, Note_on_c, 0, 72, 58
2, 74268, Note_off_c, 0, 72, 64
2, 74280, Note_on_c, 0, 71, 61
2, 74328, Note_off_c, 0, 71, 64
2, 74340, Note_on_c, 0, 69, 54
2, 74352, Note_off_c, 0, 60, 64
2, 74388, Note_off_c, 0, 69, 64
2, 74400, Note_on_c, 0, 62, 58
2, 74520, Note_on_c, 0, 77, 54
2, 74592, Note_off_c, 0, 62, 64
2, 74616, Note_off_c, 0, 77, 64
2, 74640, Note_on_c, 0, 64, 58
2, 74760, Note_on_c, 0, 68, 80
2, 74832, Note_off_c, 0, 64, 64
2, 74856, Note_off_c, 0, 68, 64
2, 74880, Note_on_c, 0, 65, 50
2, 74880, Note_on_c, 0, 69, 80
2, 74976, Note_off_c, 0, 69, 64
2, 75000, Note_on_c, 0, 72, 54
2, 75072, Note_off_c, 0, 65, 64
2, 75096, Note_off_c, 0, 72, 64
2, 75120, Note_on_c, 0, 60, 54
2, 75240, Note_on_c, 0, 76, 52
2, 75312, Note_off_c, 0, 60, 64
2, 75336, Note_off_c, 0, 76, 64
2, 75360, Note_on_c, 0, 62, 61
2, 75480, Note_on_c, 0, 77, 50
2, 75552, Note_off_c, 0, 62, 64
2, 75576, Note_off_c, 0, 77, 64
2, 75600, Note_on_c, 0, 64, 62
2, 75720, Note_on_c, 0, 68, 54
2, 75792, Note_off_c, 0, 64, 64
2, 75816, Note_off_c, 0, 68, 64
2, 75840, Note_on_c, 0, 57, 54
2, 75840, Note_on_c, 0, 69, 58
2, 75864, Note_off_c, 0, 69, 64
2, 75870, Note_on_c, 0, 68, 43
2, 75888, Note_off_c, 0, 57, 64
2, 75894, Note_off_c, 0, 68, 64
2, 75900, Note_on_c, 0, 69, 80
2, 75900, Note_on_c, 0, 64, 42
2, 75948, Note_off_c, 0, 64, 64
2, 75960, Note_on_c, 0, 60, 55
2, 76008, Note_off_c, 0, 60, 64
2, 76020, Note_on_c, 0, 64, 45
2, 76044, Note_off_c, 0, 69, 64
2, 76068, Note_off_c, 0, 64, 64
2, 76080, Note_on_c, 0, 57, 42
2, 76080, Note_on_c, 0, 72, 61
2, 76128, Note_off_c, 0, 57, 64
2, 76140, Note_on_c, 0, 64, 42
2, 76188, Note_off_c, 0, 64, 64
2, 76200, Note_on_c, 0, 60, 46
2, 76248, Note_off_c, 0, 60, 64
2, 76260, Note_on_c, 0, 64, 42
2, 76272, Note_off_c, 0, 72, 64
2, 76308, Note_off_c, 0, 64, 64
2, 76320, Note_on_c, 0, 76, 89
2, 76320, Note_on_c, 0, 57, 42
2, 76368, Note_off_c, 0, 57, 64
2, 76380, Note_on_c, 0, 64, 44
2, 76428, Note_off_c, 0, 64, 64
2, 76440, Note_on_c, 0, 60, 52
2, 76488, Note_off_c, 0, 60, 64
2, 76500, Note_on_c, 0, 64, 43
2, 76512, Note_off_c, 0, 76, 64
2, 76548, Note_off_c, 0, 64, 64
2, 76560, Note_on_c, 0, 57, 42
2, 76560, Note_on_c, 0, 81, 71
2, 76608, Note_off_c, 0, 57, 64
2, 76620, Note_on_c, 0, 64, 47
2, 76668, Note_off_c, 0, 64, 64
2, 76680, Note_on_c, 0, 60, 52
2, 76728, Note_off_c, 0, 60, 64
2, 76740, Note_on_c, 0, 64, 50
2, 76752, Note_off_c, 0, 81, 64
2, 76788, Note_off_c, 0, 64, 64
2, 76800, Note_on_c, 0, 55, 54
2, 76800, Note_on_c, 0, 69, 58
2, 76824, Note_off_c, 0, 69, 64
2, 76830, Note_on_c, 0, 68, 43
2, 76848, Note_off_c, 0, 55, 64
2, 76854, Note_off_c, 0, 68, 64
2, 76860, Note_on_c, 0, 69, 80
2, 76860, Note_on_c, 0, 64, 45
2, 76908, Note_off_c, 0, 64, 64
2, 76920, Note_on_c, 0, 61, 52
2, 76968, Note_off_c, 0, 61, 64
2, 76980, Note_on_c, 0, 64, 54
2, 77004, Note_off_c, 0, 69, 64
2, 77028, Note_off_c, 0, 64, 64
2, 77040, Note_on_c, 0, 55, 42
2, 77040, Note_on_c, 0, 73, 77
2, 77088, Note_off_c, 0, 55, 64
2, 77100, Note_on_c, 0, 64, 54
2, 77148, Note_off_c, 0, 64, 64
2, 77160, Note_on_c, 0, 61, 71
2, 77208, Note_off_c, 0, 61, 64
2, 77220, Note_on_c, 0, 64, 50
2, 77232, Note_off_c, 0, 73, 64
2, 77268, Note_off_c, 0, 64, 64
2, 77280, Note_on_c, 0, 76, 71
2, 77280, Note_on_c, 0, 55, 46
2, 77328, Note_off_c, 0, 55, 64
2, 77340, Note_on_c, 0, 64, 50
2, 77388, Note_off_c, 0, 64, 64
2, 77400, Note_on_c, 0, 61, 58
2, 77448, Note_off_c, 0, 61, 64
2, 77460, Note_on_c, 0, 64, 52
2, 77472, Note_off_c, 0, 76, 64
2, 77508, Note_off_c, 0, 64, 64
2, 77520, Note_on_c, 0, 55, 43
2, 77520, Note_on_c, 0, 81, 55
2, 77568, Note_off_c, 0, 55, 64
2, 77580, Note_on_c, 0, 64, 44
2, 77628, Note_off_c, 0, 64, 64
2, 77640, Note_on_c, 0, 61, 50
2, 77688, Note_off_c, 0, 61, 64
2, 77700, Note_on_c, 0, 64, 43
2, 77712, Note_off_c, 0, 81, 64
2, 77748, Note_off_c, 0, 64, 64
2, 77760, Note_on_c, 0, 53, 42
2, 77760, Note_on_c, 0, 69, 58
2, 77784, Note_off_c, 0, 69, 64
2, 77790, Note_on_c, 0, 68, 43
2, 77808, Note_off_c, 0, 53, 64
2, 77814, Note_off_c, 0, 68, 64
2, 77820, Note_on_c, 0, 69, 80
2, 77820, Note_on_c, 0, 62, 58
2, 77868, Note_off_c, 0, 62, 64
2, 77880, Note_on_c, 0, 57, 54
2, 77928, Note_off_c, 0, 57, 64
2, 77940, Note_on_c, 0, 62, 42
2, 77964, Note_off_c, 0, 69, 64
2, 77988, Note_off_c, 0, 62, 64
2, 78000, Note_on_c, 0, 53, 54
2, 78000, Note_on_c, 0, 74, 71
2, 78048, Note_off_c, 0, 53, 64
2, 78060, Note_on_c, 0, 62, 44
2, 78108, Note_off_c, 0, 62, 64
2, 78120, Note_on_c, 0, 57, 12
2, 78168, Note_off_c, 0, 57, 64
2, 78180, Note_on_c, 0, 62, 44
2, 78192, Note_off_c, 0, 74, 64
2, 78228, Note_off_c, 0, 62, 64
2, 78240, Note_on_c, 0, 77, 61
2, 78240, Note_on_c, 0, 53, 42
2, 78288, Note_off_c, 0, 53, 64
2, 78300, Note_on_c, 0, 62, 44
2, 78348, Note_off_c, 0, 62, 64
2, 78360, Note_on_c, 0, 57, 45
2, 78408, Note_off_c, 0, 57, 64
2, 78420, Note_on_c, 0, 62, 43
2, 78432, Note_off_c, 0, 77, 64
2, 78468, Note_off_c, 0, 62, 64
2, 78480, Note_on_c, 0, 53, 43
2, 78480, Note_on_c, 0, 81, 50
2, 78528, Note_off_c, 0, 53, 64
2, 78540, Note_on_c, 0, 62, 52
2, 78588, Note_off_c, 0, 62, 64
2, 78600, Note_on_c, 0, 57, 40
2, 78648, Note_off_c, 0, 57, 64
2, 78660, Note_on_c, 0, 62, 42
2, 78672, Note_off_c, 0, 81, 64
2, 78708, Note_off_c, 0, 62, 64
2, 78720, Note_on_c, 0, 53, 43
2, 78720, Note_on_c, 0, 67, 58
2, 78744, Note_off_c, 0, 67, 64
2, 78750, Note_on_c, 0, 66, 43
2, 78768, Note_off_c, 0, 53, 64
2, 78774, Note_off_c, 0, 66, 64
2, 78780, Note_on_c, 0, 62, 46
2, 78780, Note_on_c, 0, 67, 80
2, 78828, Note_off_c, 0, 62, 64
2, 78840, Note_on_c, 0, 59, 54
2, 78888, Note_off_c, 0, 59, 64
2, 78900, Note_on_c, 0, 62, 54
2, 78924, Note_off_c, 0, 67, 64
2, 78948, Note_off_c, 0, 62, 64
2, 78960, Note_on_c, 0, 71, 80
2, 78960, Note_on_c, 0, 53, 47
2, 79008, Note_off_c, 0, 53, 64
2, 79020, Note_on_c, 0, 62, 52
2, 79068, Note_off_c, 0, 62, 64
2, 79080, Note_on_c, 0, 59, 54
2, 79128, Note_off_c, 0, 59, 64
2, 79140, Note_on_c, 0, 62, 46
2, 79152, Note_off_c, 0, 71, 64
2, 79188, Note_off_c, 0, 62, 64
2, 79200, Note_on_c, 0, 53, 50
2, 79200, Note_on_c, 0, 74, 80
2, 79248, Note_off_c, 0, 53, 64
2, 79260, Note_on_c, 0, 62, 42
2, 79308, Note_off_c, 0, 62, 64
2, 79320, Note_on_c, 0, 59, 47
2, 79368, Note_off_c, 0, 59, 64
2, 79380, Note_on_c, 0, 62, 43
2, 79392, Note_off_c, 0, 74, 64
2, 79428, Note_off_c, 0, 62, 64
2, 79440, Note_on_c, 0, 79, 80
2, 79440, Note_on_c, 0, 53, 47
2, 79488, Note_off_c, 0, 53, 64
2, 79500, Note_on_c, 0, 62, 45
2, 79548, Note_off_c, 0, 62, 64
2, 79560, Note_on_c, 0, 59, 54
2, 79608, Note_off_c, 0, 59, 64
2, 79620, Note_on_c, 0, 62, 47
2, 79632, Note_off_c, 0, 79, 64
2, 79668, Note_off_c, 0, 62, 64
2, 79680, Note_on_c, 0, 52, 55
2, 79680, Note_on_c, 0, 67, 58
2, 79704, Note_off_c, 0, 67, 64
2, 79710, Note_on_c, 0, 66, 43
2, 79728, Note_off_c, 0, 52, 64
2, 79734, Note_off_c, 0, 66, 64
2, 79740, Note_on_c, 0, 67, 80
2, 79740, Note_on_c, 0, 60, 54
2, 79788, Note_off_c, 0, 60, 64
2, 79800, Note_on_c, 0, 55, 44
2, 79848, Note_off_c, 0, 55, 64
2, 79860, Note_on_c, 0, 60, 46
2, 79884, Note_off_c, 0, 67, 64
2, 79908, Note_off_c, 0, 60, 64
2, 79920, Note_on_c, 0, 52, 42
2, 79920, Note_on_c, 0, 72, 58
2, 79968, Note_off_c, 0, 52, 64
2, 79980, Note_on_c, 0, 60, 45
2, 80028, Note_off_c, 0, 60, 64
2, 80040, Note_on_c, 0, 55, 45
2, 80088, Note_off_c, 0, 55, 64
2, 80100, Note_on_c, 0, 60, 44
2, 80112, Note_off_c, 0, 72, 64
2, 80148, Note_off_c, 0, 60, 64
2, 80160, Note_on_c, 0, 76, 71
2, 80160, Note_on_c, 0, 52, 52
2, 80208, Note_off_c, 0, 52, 64
2, 80220, Note_on_c, 0, 60, 54
2, 80268, Note_off_c, 0, 60, 64
2, 80280, Note_on_c, 0, 55, 62
2, 80328, Note_off_c, 0, 55, 64
2, 80340, Note_on_c, 0, 60, 54
2, 80352, Note_off_c, 0, 76, 64
2, 80388, Note_off_c, 0, 60, 64
2, 80400, Note_on_c, 0, 52, 44
2, 80400, Note_on_c, 0, 79, 58
2, 80448, Note_off_c, 0, 52, 64
2, 80460, Note_on_c, 0, 60, 58
2, 80508, Note_off_c, 0, 60, 64
2, 80520, Note_on_c, 0, 55, 61
2, 80568, Note_off_c, 0, 55, 64
2, 80580, Note_on_c, 0, 60, 42
2, 80592, Note_off_c, 0, 79, 64
2, 80628, Note_off_c, 0, 60, 64
2, 80640, Note_on_c, 0, 77, 58
2, 80640, Note_on_c, 0, 47, 50
2, 80664, Note_off_c, 0, 77, 64
2, 80670, Note_on_c, 0, 76, 43
2, 80688, Note_off_c, 0, 47, 64
2, 80694, Note_off_c, 0, 76, 64
2, 80700, Note_on_c, 0, 77, 80
2, 80700, Note_on_c, 0, 55, 42
2, 80748, Note_off_c, 0, 55, 64
2, 80760, Note_on_c, 0, 50, 66
2, 80808, Note_off_c, 0, 50, 64
2, 80820, Note_on_c, 0, 55, 43
2, 80844, Note_off_c, 0, 77, 64
2, 80868, Note_off_c, 0, 55, 64
2, 80880, Note_on_c, 0, 47, 43
2, 80928, Note_off_c, 0, 47, 64
2, 80940, Note_on_c, 0, 55, 42
2, 80988, Note_off_c, 0, 55, 64
2, 81000, Note_on_c, 0, 50, 58
2, 81048, Note_off_c, 0, 50, 64
2, 81060, Note_on_c, 0, 55, 43
2, 81108, Note_off_c, 0, 55, 64
2, 81120, Note_on_c, 0, 76, 58
2, 81120, Note_on_c, 0, 48, 61
2, 81144, Note_off_c, 0, 76, 64
2, 81150, Note_on_c, 0, 74, 43
2, 81168, Note_off_c, 0, 48, 64
2, 81174, Note_off_c, 0, 74, 64
2, 81180, Note_on_c, 0, 76, 80
2, 81180, Note_on_c, 0, 55, 45
2, 81228, Note_off_c, 0, 55, 64
2, 81240, Note_on_c, 0, 52, 62
2, 81288, Note_off_c, 0, 52, 64
2, 81300, Note_on_c, 0, 55, 45
2, 81324, Note_off_c, 0, 76, 64
2, 81348, Note_off_c, 0, 55, 64
2, 81360, Note_on_c, 0, 48, 58
2, 81408, Note_off_c, 0, 48, 64
2, 81420, Note_on_c, 0, 55, 42
2, 81468, Note_off_c, 0, 55, 64
2, 81480, Note_on_c, 0, 52, 61
2, 81528, Note_off_c, 0, 52, 64
2, 81540, Note_on_c, 0, 55, 45
2, 81588, Note_off_c, 0, 55, 64
2, 81600, Note_on_c, 0, 77, 58
2, 81600, Note_on_c, 0, 47, 66
2, 81624, Note_off_c, 0, 77, 64
2, 81630, Note_on_c, 0, 76, 43
2, 81648, Note_off_c, 0, 47, 64
2, 81654, Note_off_c, 0, 76, 64
2, 81660, Note_on_c, 0, 77, 80
2, 81660, Note_on_c, 0, 55, 42
2, 81708, Note_off_c, 0, 55, 64
2, 81720, Note_on_c, 0, 50, 67
2, 81768, Note_off_c, 0, 50, 64
2, 81780, Note_on_c, 0, 55, 43
2, 81804, Note_off_c, 0, 77, 64
2, 81828, Note_off_c, 0, 55, 64
2, 81840, Note_on_c, 0, 47, 44
2, 81888, Note_off_c, 0, 47, 64
2, 81900, Note_on_c, 0, 55, 42
2, 81948, Note_off_c, 0, 55, 64
2, 81960, Note_on_c, 0, 50, 42
2, 82008, Note_off_c, 0, 50, 64
2, 82020, Note_on_c, 0, 55, 43
2, 82068, Note_off_c, 0, 55, 64
2, 82080, Note_on_c, 0, 76, 58
2, 82080, Note_on_c, 0, 48, 50
2, 82104, Note_off_c, 0, 76, 64
2, 82110, Note_on_c, 0, 74, 43
2, 82128, Note_off_c, 0, 48, 64
2, 82134, Note_off_c, 0, 74, 64
2, 82140, Note_on_c, 0, 76, 80
2, 82140, Note_on_c, 0, 55, 42
2, 82188, Note_off_c, 0, 55, 64
2, 82200, Note_on_c, 0, 52, 47
2, 82248, Note_off_c, 0, 52, 64
2, 82260, Note_on_c, 0, 55, 43
2, 82284, Note_off_c, 0, 76, 64
2, 82308, Note_off_c, 0, 55, 64
2, 82320, Note_on_c, 0, 48, 43
2, 82368, Note_off_c, 0, 48, 64
2, 82380, Note_on_c, 0, 55, 42
2, 82428, Note_off_c, 0, 55, 64
2, 82440, Note_on_c, 0, 52, 42
2, 82488, Note_off_c, 0, 52, 64
2, 82500, Note_on_c, 0, 55, 42
2, 82548, Note_off_c, 0, 55, 64
2, 82560, Note_on_c, 0, 53, 54
2, 82560, Note_on_c, 0, 74, 42
2, 82608, Note_off_c, 0, 74, 64
2, 82620, Note_on_c, 0, 73, 42
2, 82668, Note_off_c, 0, 73, 64
2, 82680, Note_on_c, 0, 74, 42
2, 82728, Note_off_c, 0, 74, 64
2, 82740, Note_on_c, 0, 76, 50
2, 82788, Note_off_c, 0, 76, 64
2, 82800, Note_on_c, 0, 77, 52
2, 82848, Note_off_c, 0, 77, 64
2, 82860, Note_on_c, 0, 76, 54
2, 82908, Note_off_c, 0, 76, 64
2, 82920, Note_on_c, 0, 77, 50
2, 82968, Note_off_c, 0, 77, 64
2, 82980, Note_on_c, 0, 79, 66
2, 83028, Note_off_c, 0, 79, 64
2, 83040, Note_on_c, 0, 81, 43
2, 83136, Note_off_c, 0, 81, 64
2, 83136, Note_off_c, 0, 53, 64
2, 83160, Note_on_c, 0, 69, 58
2, 83256, Note_off_c, 0, 69, 64
2, 83280, Note_on_c, 0, 54, 52
2, 83280, Note_on_c, 0, 71, 42
2, 83376, Note_off_c, 0, 71, 64
2, 83400, Note_on_c, 0, 72, 61
2, 83472, Note_off_c, 0, 54, 64
2, 83496, Note_off_c, 0, 72, 64
2, 83520, Note_on_c, 0, 55, 58
2, 83520, Note_on_c, 0, 72, 66
2, 83568, Note_off_c, 0, 72, 64
2, 83580, Note_on_c, 0, 71, 42
2, 83628, Note_off_c, 0, 71, 64
2, 83640, Note_on_c, 0, 69, 43
2, 83688, Note_off_c, 0, 69, 64
2, 83700, Note_on_c, 0, 67, 42
2, 83712, Note_off_c, 0, 55, 64
2, 83748, Note_off_c, 0, 67, 64
2, 83760, Note_on_c, 0, 59, 58
2, 83760, Note_on_c, 0, 55, 50
2, 83760, Note_on_c, 0, 67, 42
2, 83952, Note_off_c, 0, 67, 64
2, 83952, Note_off_c, 0, 55, 64
2, 83952, Note_off_c, 0, 59, 64
2, 84000, Note_on_c, 0, 59, 44
2, 84000, Note_on_c, 0, 55, 48
2, 84000, Note_on_c, 0, 67, 42
2, 84192, Note_off_c, 0, 67, 64
2, 84192, Note_off_c, 0, 55, 64
2, 84192, Note_off_c, 0, 59, 64
2, 84480, Note_on_c, 0, 76, 45
2, 84480, Note_on_c, 0, 60, 52
2, 84528, Note_off_c, 0, 60, 64
2, 84540, Note_on_c, 0, 67, 42
2, 84576, Note_off_c, 0, 76, 64
2, 84588, Note_off_c, 0, 67, 64
2, 84600, Note_on_c, 0, 79, 43
2, 84600, Note_on_c, 0, 64, 61
2, 84648, Note_off_c, 0, 64, 64
2, 84660, Note_on_c, 0, 67, 42
2, 84696, Note_off_c, 0, 79, 64
2, 84708, Note_off_c, 0, 67, 64
2, 84720, Note_on_c, 0, 60, 43
2, 84768, Note_off_c, 0, 60, 64
2, 84780, Note_on_c, 0, 67, 42
2, 84828, Note_off_c, 0, 67, 64
2, 84840, Note_on_c, 0, 79, 50
2, 84840, Note_on_c, 0, 64, 50
2, 84888, Note_off_c, 0, 64, 64
2, 84900, Note_on_c, 0, 67, 42
2, 84936, Note_off_c, 0, 79, 64
2, 84948, Note_off_c, 0, 67, 64
2, 84960, Note_on_c, 0, 84, 61
2, 84960, Note_on_c, 0, 60, 52
2, 85008, Note_off_c, 0, 60, 64
2, 85020, Note_on_c, 0, 67, 43
2, 85056, Note_off_c, 0, 84, 64
2, 85068, Note_off_c, 0, 67, 64
2, 85080, Note_on_c, 0, 79, 42
2, 85080, Note_on_c, 0, 64, 61
2, 85128, Note_off_c, 0, 64, 64
2, 85140, Note_on_c, 0, 67, 43
2, 85176, Note_off_c, 0, 79, 64
2, 85188, Note_off_c, 0, 67, 64
2, 85200, Note_on_c, 0, 60, 1
2, 85248, Note_off_c, 0, 60, 64
2, 85260, Note_on_c, 0, 67, 40
2, 85308, Note_off_c, 0, 67, 64
2, 85320, Note_on_c, 0, 64, 71
2, 85320, Note_on_c, 0, 76, 66
2, 85368, Note_off_c, 0, 64, 64
2, 85380, Note_on_c, 0, 67, 42
2, 85416, Note_off_c, 0, 76, 64
2, 85428, Note_off_c, 0, 67, 64
2, 85440, Note_on_c, 0, 77, 52
2, 85440, Note_on_c, 0, 59, 42
2, 85488, Note_off_c, 0, 59, 64
2, 85500, Note_on_c, 0, 67, 42
2, 85536, Note_off_c, 0, 77, 64
2, 85548, Note_off_c, 0, 67, 64
2, 85560, Note_on_c, 0, 74, 58
2, 85560, Note_on_c, 0, 62, 71
2, 85608, Note_off_c, 0, 62, 64
2, 85620, Note_on_c, 0, 67, 36
2, 85656, Note_off_c, 0, 74, 64
2, 85668, Note_off_c, 0, 67, 64
2, 85680, Note_on_c, 0, 59, 43
2, 85728, Note_off_c, 0, 59, 64
2, 85740, Note_on_c, 0, 67, 42
2, 85788, Note_off_c, 0, 67, 64
2, 85800, Note_on_c, 0, 83, 58
2, 85800, Note_on_c, 0, 62, 43
2, 85848, Note_off_c, 0, 62, 64
2, 85860, Note_on_c, 0, 67, 42
2, 85896, Note_off_c, 0, 83, 64
2, 85908, Note_off_c, 0, 67, 64
2, 85920, Note_on_c, 0, 86, 61
2, 85920, Note_on_c, 0, 59, 47
2, 85968, Note_off_c, 0, 59, 64
2, 85980, Note_on_c, 0, 67, 42
2, 86016, Note_off_c, 0, 86, 64
2, 86028, Note_off_c, 0, 67, 64
2, 86040, Note_on_c, 0, 77, 42
2, 86040, Note_on_c, 0, 62, 42
2, 86088, Note_off_c, 0, 62, 64
2, 86100, Note_on_c, 0, 67, 42
2, 86136, Note_off_c, 0, 77, 64
2, 86148, Note_off_c, 0, 67, 64
2, 86160, Note_on_c, 0, 59, 43
2, 86208, Note_off_c, 0, 59, 64
2, 86220, Note_on_c, 0, 67, 42
2, 86268, Note_off_c, 0, 67, 64
2, 86280, Note_on_c, 0, 62, 61
2, 86280, Note_on_c, 0, 77, 61
2, 86328, Note_off_c, 0, 62, 64
2, 86340, Note_on_c, 0, 67, 42
2, 86376, Note_off_c, 0, 77, 64
2, 86388, Note_off_c, 0, 67, 64
2, 86400, Note_on_c, 0, 76, 45
2, 86400, Note_on_c, 0, 60, 71
2, 86448, Note_off_c, 0, 60, 64
2, 86460, Note_on_c, 0, 67, 42
2, 86496, Note_off_c, 0, 76, 64
2, 86508, Note_off_c, 0, 67, 64
2, 86520, Note_on_c, 0, 79, 43
2, 86520, Note_on_c, 0, 64, 44
2, 86568, Note_off_c, 0, 64, 64
2, 86580, Note_on_c, 0, 67, 42
2, 86616, Note_off_c, 0, 79, 64
2, 86628, Note_off_c, 0, 67, 64
2, 86640, Note_on_c, 0, 60, 45
2, 86688, Note_off_c, 0, 60, 64
2, 86700, Note_on_c, 0, 67, 42
2, 86748, Note_off_c, 0, 67, 64
2, 86760, Note_on_c, 0, 79, 50
2, 86760, Note_on_c, 0, 64, 62
2, 86808, Note_off_c, 0, 64, 64
2, 86820, Note_on_c, 0, 67, 42
2, 86856, Note_off_c, 0, 79, 64
2, 86868, Note_off_c, 0, 67, 64
2, 86880, Note_on_c, 0, 84, 61
2, 86880, Note_on_c, 0, 60, 71
2, 86928, Note_off_c, 0, 60, 64
2, 86940, Note_on_c, 0, 67, 42
2, 86976, Note_off_c, 0, 84, 64
2, 86988, Note_off_c, 0, 67, 64
2, 87000, Note_on_c, 0, 79, 42
2, 87000, Note_on_c, 0, 64, 77
2, 87048, Note_off_c, 0, 64, 64
2, 87060, Note_on_c, 0, 67, 42
2, 87096, Note_off_c, 0, 79, 64
2, 87108, Note_off_c, 0, 67, 64
2, 87120, Note_on_c, 0, 60, 50
2, 87168, Note_off_c, 0, 60, 64
2, 87180, Note_on_c, 0, 67, 42
2, 87228, Note_off_c, 0, 67, 64
2, 87240, Note_on_c, 0, 64, 42
2, 87240, Note_on_c, 0, 76, 66
2, 87288, Note_off_c, 0, 64, 64
2, 87300, Note_on_c, 0, 67, 42
2, 87336, Note_off_c, 0, 76, 64
2, 87348, Note_off_c, 0, 67, 64
2, 87360, Note_on_c, 0, 77, 52
2, 87360, Note_on_c, 0, 59, 66
2, 87408, Note_off_c, 0, 59, 64
2, 87420, Note_on_c, 0, 67, 43
2, 87456, Note_off_c, 0, 77, 64
2, 87468, Note_off_c, 0, 67, 64
2, 87480, Note_on_c, 0, 74, 58
2, 87480, Note_on_c, 0, 62, 71
2, 87528, Note_off_c, 0, 62, 64
2, 87540, Note_on_c, 0, 67, 43
2, 87576, Note_off_c, 0, 74, 64
2, 87588, Note_off_c, 0, 67, 64
2, 87600, Note_on_c, 0, 59, 47
2, 87648, Note_off_c, 0, 59, 64
2, 87660, Note_on_c, 0, 67, 44
2, 87708, Note_off_c, 0, 67, 64
2, 87720, Note_on_c, 0, 83, 58
2, 87720, Note_on_c, 0, 62, 75
2, 87768, Note_off_c, 0, 62, 64
2, 87780, Note_on_c, 0, 67, 43
2, 87816, Note_off_c, 0, 83, 64
2, 87828, Note_off_c, 0, 67, 64
2, 87840, Note_on_c, 0, 86, 61
2, 87840, Note_on_c, 0, 59, 50
2, 87888, Note_off_c, 0, 59, 64
2, 87900, Note_on_c, 0, 67, 42
2, 87936, Note_off_c, 0, 86, 64
2, 87948, Note_off_c, 0, 67, 64
2, 87960, Note_on_c, 0, 77, 42
2, 87960, Note_on_c, 0, 62, 77
2, 88008, Note_off_c, 0, 62, 64
2, 88020, Note_on_c, 0, 67, 42
2, 88056, Note_off_c, 0, 77, 64
2, 88068, Note_off_c, 0, 67, 64
2, 88080, Note_on_c, 0, 59, 52
2, 88128, Note_off_c, 0, 59, 64
2, 88140, Note_on_c, 0, 67, 43
2, 88188, Note_off_c, 0, 67, 64
2, 88200, Note_on_c, 0, 62, 66
2, 88200, Note_on_c, 0, 77, 61
2, 88248, Note_off_c, 0, 62, 64
2, 88260, Note_on_c, 0, 67, 42
2, 88296, Note_off_c, 0, 77, 64
2, 88308, Note_off_c, 0, 67, 64
2, 88320, Note_on_c, 0, 60, 44
2, 88320, Note_on_c, 0, 76, 66
2, 88368, Note_off_c, 0, 76, 64
2, 88380, Note_on_c, 0, 84, 77
2, 88428, Note_off_c, 0, 84, 64
2, 88440, Note_on_c, 0, 83, 50
2, 88488, Note_off_c, 0, 83, 64
2, 88500, Note_on_c, 0, 84, 61
2, 88512, Note_off_c, 0, 60, 64
2, 88548, Note_off_c, 0, 84, 64
2, 88560, Note_on_c, 0, 86, 58
2, 88608, Note_off_c, 0, 86, 64
2, 88620, Note_on_c, 0, 84, 42
2, 88668, Note_off_c, 0, 84, 64
2, 88680, Note_on_c, 0, 83, 50
2, 88728, Note_off_c, 0, 83, 64
2, 88740, Note_on_c, 0, 84, 58
2, 88788, Note_off_c, 0, 84, 64
2, 88800, Note_on_c, 0, 72, 51
2, 88800, Note_on_c, 0, 76, 77
2, 88800, Note_on_c, 0, 64, 43
2, 88848, Note_off_c, 0, 76, 64
2, 88860, Note_on_c, 0, 82, 77
2, 88908, Note_off_c, 0, 82, 64
2, 88920, Note_on_c, 0, 81, 66
2, 88968, Note_off_c, 0, 81, 64
2, 88980, Note_on_c, 0, 82, 89
2, 88992, Note_off_c, 0, 64, 64
2, 88992, Note_off_c, 0, 72, 64
2, 89028, Note_off_c, 0, 82, 64
2, 89040, Note_on_c, 0, 84, 83
2, 89088, Note_off_c, 0, 84, 64
2, 89100, Note_on_c, 0, 82, 66
2, 89148, Note_off_c, 0, 82, 64
2, 89160, Note_on_c, 0, 81, 50
2, 89208, Note_off_c, 0, 81, 64
2, 89220, Note_on_c, 0, 82, 77
2, 89268, Note_off_c, 0, 82, 64
2, 89280, Note_on_c, 0, 81, 80
2, 89280, Note_on_c, 0, 65, 47
2, 89328, Note_off_c, 0, 65, 64
2, 89340, Note_on_c, 0, 72, 44
2, 89388, Note_off_c, 0, 72, 64
2, 89400, Note_on_c, 0, 69, 34
2, 89448, Note_off_c, 0, 69, 64
2, 89460, Note_on_c, 0, 72, 42
2, 89472, Note_off_c, 0, 81, 64
2, 89508, Note_off_c, 0, 72, 64
2, 89520, Note_on_c, 0, 81, 80
2, 89520, Note_on_c, 0, 65, 45
2, 89568, Note_off_c, 0, 65, 64
2, 89580, Note_on_c, 0, 72, 52
2, 89628, Note_off_c, 0, 72, 64
2, 89640, Note_on_c, 0, 69, 47
2, 89688, Note_off_c, 0, 69, 64
2, 89700, Note_on_c, 0, 72, 61
2, 89712, Note_off_c, 0, 81, 64
2, 89748, Note_off_c, 0, 72, 64
2, 89760, Note_on_c, 0, 65, 50
2, 89760, Note_on_c, 0, 81, 43
2, 89856, Note_off_c, 0, 81, 64
2, 89880, Note_on_c, 0, 84, 61
2, 89952, Note_off_c, 0, 65, 64
2, 89976, Note_off_c, 0, 84, 64
2, 90000, Note_on_c, 0, 83, 47
2, 90048, Note_off_c, 0, 83, 64
2, 90060, Note_on_c, 0, 81, 61
2, 90108, Note_off_c, 0, 81, 64
2, 90120, Note_on_c, 0, 79, 47
2, 90168, Note_off_c, 0, 79, 64
2, 90180, Note_on_c, 0, 77, 54
2, 90228, Note_off_c, 0, 77, 64
2, 90240, Note_on_c, 0, 76, 43
2, 90240, Note_on_c, 0, 60, 47
2, 90240, Note_on_c, 0, 55, 42
2, 90336, Note_off_c, 0, 55, 64
2, 90336, Note_off_c, 0, 60, 64
2, 90336, Note_off_c, 0, 76, 64
2, 90360, Note_on_c, 0, 55, 45
2, 90360, Note_on_c, 0, 79, 42
2, 90360, Note_on_c, 0, 60, 71
2, 90456, Note_off_c, 0, 60, 64
2, 90456, Note_off_c, 0, 79, 64
2, 90456, Note_off_c, 0, 55, 64
2, 90480, Note_on_c, 0, 55, 43
2, 90480, Note_on_c, 0, 77, 43
2, 90480, Note_on_c, 0, 60, 64
2, 90528, Note_off_c, 0, 77, 64
2, 90540, Note_on_c, 0, 76, 58
2, 90576, Note_off_c, 0, 60, 64
2, 90576, Note_off_c, 0, 55, 64
2, 90588, Note_off_c, 0, 76, 64
2, 90600, Note_on_c, 0, 60, 71
2, 90600, Note_on_c, 0, 55, 45
2, 90600, Note_on_c, 0, 74, 42
2, 90648, Note_off_c, 0, 74, 64
2, 90660, Note_on_c, 0, 72, 52
2, 90696, Note_off_c, 0, 55, 64
2, 90696, Note_off_c, 0, 60, 64
2, 90708, Note_off_c, 0, 72, 64
2, 90720, Note_on_c, 0, 76, 43
2, 90720, Note_on_c, 0, 55, 42
2, 90720, Note_on_c, 0, 59, 51
2, 90732, Note_off_c, 0, 76, 64
2, 90735, Note_on_c, 0, 74, 42
2, 90747, Note_off_c, 0, 74, 64
2, 90750, Note_on_c, 0, 76, 47
2, 90762, Note_off_c, 0, 76, 64
2, 90765, Note_on_c, 0, 74, 42
2, 90777, Note_off_c, 0, 74, 64
2, 90780, Note_on_c, 0, 76, 61
2, 90792, Note_off_c, 0, 76, 64
2, 90795, Note_on_c, 0, 74, 43
2, 90807, Note_off_c, 0, 74, 64
2, 90810, Note_on_c, 0, 76, 61
2, 90816, Note_off_c, 0, 59, 64
2, 90816, Note_off_c, 0, 55, 64
2, 90822, Note_off_c, 0, 76, 64
2, 90825, Note_on_c, 0, 74, 50
2, 90837, Note_off_c, 0, 74, 64
2, 90840, Note_on_c, 0, 59, 43
2, 90840, Note_on_c, 0, 55, 42
2, 90840, Note_on_c, 0, 76, 54
2, 90852, Note_off_c, 0, 76, 64
2, 90855, Note_on_c, 0, 74, 43
2, 90867, Note_off_c, 0, 74, 64
2, 90870, Note_on_c, 0, 76, 66
2, 90882, Note_off_c, 0, 76, 64
2, 90885, Note_on_c, 0, 74, 42
2, 90897, Note_off_c, 0, 74, 64
2, 90900, Note_on_c, 0, 76, 45
2, 90912, Note_off_c, 0, 76, 64
2, 90915, Note_on_c, 0, 74, 12
2, 90927, Note_off_c, 0, 74, 64
2, 90930, Note_on_c, 0, 76, 45
2, 90936, Note_off_c, 0, 55, 64
2, 90936, Note_off_c, 0, 59, 64
2, 90942, Note_off_c, 0, 76, 64
2, 90945, Note_on_c, 0, 74, 42
2, 90957, Note_off_c, 0, 74, 64
2, 90960, Note_on_c, 0, 59, 46
2, 90960, Note_on_c, 0, 55, 42
2, 90960, Note_on_c, 0, 76, 42
2, 90972, Note_off_c, 0, 76, 64
2, 90975, Note_on_c, 0, 74, 42
2, 90987, Note_off_c, 0, 74, 64
2, 90990, Note_on_c, 0, 76, 52
2, 91002, Note_off_c, 0, 76, 64
2, 91005, Note_on_c, 0, 74, 42
2, 91017, Note_off_c, 0, 74, 64
2, 91020, Note_on_c, 0, 76, 50
2, 91032, Note_off_c, 0, 76, 64
2, 91035, Note_on_c, 0, 74, 42
2, 91047, Note_off_c, 0, 74, 64
2, 91050, Note_on_c, 0, 76, 58
2, 91056, Note_off_c, 0, 55, 64
2, 91056, Note_off_c, 0, 59, 64
2, 91062, Note_off_c, 0, 76, 64
2, 91065, Note_on_c, 0, 74, 54
2, 91077, Note_off_c, 0, 74, 64
2, 91080, Note_on_c, 0, 55, 40
2, 91080, Note_on_c, 0, 59, 42
2, 91080, Note_on_c, 0, 76, 71
2, 91092, Note_off_c, 0, 76, 64
2, 91095, Note_on_c, 0, 74, 42
2, 91107, Note_off_c, 0, 74, 64
2, 91110, Note_on_c, 0, 76, 50
2, 91122, Note_off_c, 0, 76, 64
2, 91125, Note_on_c, 0, 74, 43
2, 91137, Note_off_c, 0, 74, 64
2, 91140, Note_on_c, 0, 76, 44
2, 91152, Note_off_c, 0, 76, 64
2, 91155, Note_on_c, 0, 74, 43
2, 91167, Note_off_c, 0, 74, 64
2, 91170, Note_on_c, 0, 76, 41
2, 91176, Note_off_c, 0, 59, 64
2, 91176, Note_off_c, 0, 55, 64
2, 91182, Note_off_c, 0, 76, 64
2, 91185, Note_on_c, 0, 74, 42
2, 91197, Note_off_c, 0, 74, 64
2, 91200, Note_on_c, 0, 60, 80
2, 91200, Note_on_c, 0, 72, 80
2, 91392, Note_off_c, 0, 72, 64
2, 91392, Note_off_c, 0, 60, 64
2, 91440, Note_on_c, 0, 64, 61
2, 91500, Note_on_c, 0, 79, 58
2, 91548, Note_off_c, 0, 79, 64
2, 91560, Note_on_c, 0, 76, 52
2, 91608, Note_off_c, 0, 76, 64
2, 91620, Note_on_c, 0, 72, 47
2, 91632, Note_off_c, 0, 64, 64
2, 91668, Note_off_c, 0, 72, 64
2, 91680, Note_on_c, 0, 65, 58
2, 91740, Note_on_c, 0, 81, 44
2, 91788, Note_off_c, 0, 81, 64
2, 91800, Note_on_c, 0, 80, 61
2, 91848, Note_off_c, 0, 80, 64
2, 91860, Note_on_c, 0, 81, 42
2, 91872, Note_off_c, 0, 65, 64
2, 91908, Note_off_c, 0, 81, 64
2, 91920, Note_on_c, 0, 67, 47
2, 91980, Note_on_c, 0, 77, 54
2, 92028, Note_off_c, 0, 77, 64
2, 92040, Note_on_c, 0, 74, 46
2, 92088, Note_off_c, 0, 74, 64
2, 92100, Note_on_c, 0, 71, 44
2, 92112, Note_off_c, 0, 67, 64
2, 92148, Note_off_c, 0, 71, 64
2, 92160, Note_on_c, 0, 72, 45
2, 92160, Note_on_c, 0, 69, 52
2, 92256, Note_off_c, 0, 72, 64
2, 92280, Note_on_c, 0, 76, 61
2, 92352, Note_off_c, 0, 69, 64
2, 92376, Note_off_c, 0, 76, 64
2, 92400, Note_on_c, 0, 64, 52
2, 92460, Note_on_c, 0, 79, 54
2, 92508, Note_off_c, 0, 79, 64
2, 92520, Note_on_c, 0, 76, 54
2, 92568, Note_off_c, 0, 76, 64
2, 92580, Note_on_c, 0, 72, 52
2, 92592, Note_off_c, 0, 64, 64
2, 92628, Note_off_c, 0, 72, 64
2, 92640, Note_on_c, 0, 65, 58
2, 92700, Note_on_c, 0, 81, 54
2, 92748, Note_off_c, 0, 81, 64
2, 92760, Note_on_c, 0, 80, 42
2, 92808, Note_off_c, 0, 80, 64
2, 92820, Note_on_c, 0, 81, 42
2, 92832, Note_off_c, 0, 65, 64
2, 92868, Note_off_c, 0, 81, 64
2, 92880, Note_on_c, 0, 67, 42
2, 92940, Note_on_c, 0, 77, 42
2, 92988, Note_off_c, 0, 77, 64
2, 93000, Note_on_c, 0, 74, 47
2, 93048, Note_off_c, 0, 74, 64
2, 93060, Note_on_c, 0, 71, 42
2, 93072, Note_off_c, 0, 67, 64
2, 93108, Note_off_c, 0, 71, 64
2, 93120, Note_on_c, 0, 72, 43
2, 93120, Note_on_c, 0, 60, 54
2, 93312, Note_off_c, 0, 60, 64
2, 93312, Note_off_c, 0, 72, 64
2, 93360, Note_on_c, 0, 52, 45
2, 93420, Note_on_c, 0, 67, 45
2, 93468, Note_off_c, 0, 67, 64
2, 93480, Note_on_c, 0, 64, 89
2, 93528, Note_off_c, 0, 64, 64
2, 93540, Note_on_c, 0, 60, 61
2, 93552, Note_off_c, 0, 52, 64
2, 93588, Note_off_c, 0, 60, 64
2, 93600, Note_on_c, 0, 53, 61
2, 93660, Note_on_c, 0, 69, 71
2, 93708, Note_off_c, 0, 69, 64
2, 93720, Note_on_c, 0, 68, 42
2, 93768, Note_off_c, 0, 68, 64
2, 93780, Note_on_c, 0, 69, 58
2, 93792, Note_off_c, 0, 53, 64
2, 93828, Note_off_c, 0, 69, 64
2, 93840, Note_on_c, 0, 55, 67
2, 93900, Note_on_c, 0, 65, 61
2, 93948, Note_off_c, 0, 65, 64
2, 93960, Note_on_c, 0, 62, 34
2, 94008, Note_off_c, 0, 62, 64
2, 94020, Note_on_c, 0, 59, 40
2, 94032, Note_off_c, 0, 55, 64
2, 94068, Note_off_c, 0, 59, 64
2, 94080, Note_on_c, 0, 60, 42
2, 94080, Note_on_c, 0, 57, 72
2, 94176, Note_off_c, 0, 60, 64
2, 94200, Note_on_c, 0, 64, 89
2, 94272, Note_off_c, 0, 57, 64
2, 94296, Note_off_c, 0, 64, 64
2, 94320, Note_on_c, 0, 52, 54
2, 94380, Note_on_c, 0, 67, 61
2, 94428, Note_off_c, 0, 67, 64
2, 94440, Note_on_c, 0, 64, 58
2, 94488, Note_off_c, 0, 64, 64
2, 94500, Note_on_c, 0, 60, 43
2, 94512, Note_off_c, 0, 52, 64
2, 94548, Note_off_c, 0, 60, 64
2, 94560, Note_on_c, 0, 53, 54
2, 94620, Note_on_c, 0, 69, 45
2, 94668, Note_off_c, 0, 69, 64
2, 94680, Note_on_c, 0, 68, 42
2, 94728, Note_off_c, 0, 68, 64
2, 94740, Note_on_c, 0, 69, 54
2, 94752, Note_off_c, 0, 53, 64
2, 94788, Note_off_c, 0, 69, 64
2, 94800, Note_on_c, 0, 55, 54
2, 94860, Note_on_c, 0, 65, 61
2, 94908, Note_off_c, 0, 65, 64
2, 94920, Note_on_c, 0, 62, 42
2, 94968, Note_off_c, 0, 62, 64
2, 94980, Note_on_c, 0, 59, 42
2, 94992, Note_off_c, 0, 55, 64
2, 95028, Note_off_c, 0, 59, 64
2, 95040, Note_on_c, 0, 48, 58
2, 95040, Note_on_c, 0, 60, 52
2, 95088, Note_off_c, 0, 48, 64
2, 95100, Note_on_c, 0, 55, 58
2, 95148, Note_off_c, 0, 55, 64
2, 95160, Note_on_c, 0, 52, 44
2, 95208, Note_off_c, 0, 52, 64
2, 95220, Note_on_c, 0, 55, 42
2, 95232, Note_off_c, 0, 60, 64
2, 95268, Note_off_c, 0, 55, 64
2, 95280, Note_on_c, 0, 64, 65
2, 95280, Note_on_c, 0, 72, 43
2, 95280, Note_on_c, 0, 48, 42
2, 95328, Note_off_c, 0, 48, 64
2, 95340, Note_on_c, 0, 55, 50
2, 95388, Note_off_c, 0, 55, 64
2, 95400, Note_on_c, 0, 52, 50
2, 95448, Note_off_c, 0, 52, 64
2, 95460, Note_on_c, 0, 55, 52
2, 95472, Note_off_c, 0, 72, 64
2, 95472, Note_off_c, 0, 64, 64
2, 95508, Note_off_c, 0, 55, 64
2, 95520, Note_on_c, 0, 72, 45
2, 95520, Note_on_c, 0, 64, 60
2, 95520, Note_on_c, 0, 48, 61
2, 95712, Note_off_c, 0, 48, 64
2, 95712, Note_off_c, 0, 64, 64
2, 95712, Note_off_c, 0, 72, 64
2, 95712, End_track
0, 0, End_of_file
