0, 0, Header, 1, 2, 240
1, 0, Start_track
1, 0, Time_signature, 4, 2, 24, 8
1, 0, Tempo, 1714286
1, 0, End_track
2, 0, Start_track
2, 840, Note_on_c, 0, 67, 47
2, 936, Note_off_c, 0, 67, 64
2, 960, Note_on_c, 0, 60, 45
2, 960, Note_on_c, 0, 64, 45
2, 960, Note_on_c, 0, 72, 58
2, 992, Note_off_c, 0, 72, 64
2, 1000, Note_on_c, 0, 76, 71
2, 1032, Note_off_c, 0, 76, 64
2, 1040, Note_on_c, 0, 74, 54
2, 1056, Note_off_c, 0, 64, 64
2, 1056, Note_off_c, 0, 60, 64
2, 1072, Note_off_c, 0, 74, 64
2, 1080, Note_on_c, 0, 60, 42
2, 1080, Note_on_c, 0, 64, 32
2, 1080, Note_on_c, 0, 72, 44
2, 1176, Note_off_c, 0, 64, 64
2, 1176, Note_off_c, 0, 60, 64
2, 1192, Note_off_c, 0, 72, 64
2, 1200, Note_on_c, 0, 64, 43
2, 1200, Note_on_c, 0, 60, 42
2, 1200, Note_on_c, 0, 76, 54
2, 1232, Note_off_c, 0, 76, 64
2, 1240, Note_on_c, 0, 79, 58
2, 1272, Note_off_c, 0, 79, 64
2, 1280, Note_on_c, 0, 77, 66
2, 1296, Note_off_c, 0, 60, 64
2, 1296, Note_off_c, 0, 64, 64
2, 1312, Note_off_c, 0, 77, 64
2, 1320, Note_on_c, 0, 76, 58
2, 1320, Note_on_c, 0, 60, 42
2, 1320, Note_on_c, 0, 64, 42
2, 1352, Note_off_c, 0, 76, 64
2, 1360, Note_on_c, 0, 72, 61
2, 1392, Note_off_c, 0, 72, 64
2, 1400, Note_on_c, 0, 79, 45
2, 1416, Note_off_c, 0, 64, 64
2, 1416, Note_off_c, 0, 60, 64
2, 1432, Note_off_c, 0, 79, 64
2, 1440, Note_on_c, 0, 65, 42
2, 1440, Note_on_c, 0, 81, 57
2, 1440, Note_on_c, 0, 60, 50
2, 1472, Note_off_c, 0, 81, 64
2, 1480, Note_on_c, 0, 84, 44
2, 1512, Note_off_c, 0, 84, 64
2, 1520, Note_on_c, 0, 81, 66
2, 1536, Note_off_c, 0, 60, 64
2, 1536, Note_off_c, 0, 65, 64
2, 1552, Note_off_c, 0, 81, 64
2, 1560, Note_on_c, 0, 79, 50
2, 1560, Note_on_c, 0, 60, 42
2, 1560, Note_on_c, 0, 64, 42
2, 1656, Note_off_c, 0, 64, 64
2, 1656, Note_off_c, 0, 60, 64
2, 1672, Note_off_c, 0, 79, 64
2, 1680, Note_on_c, 0, 64, 42
2, 1680, Note_on_c, 0, 60, 42
2, 1680, Note_on_c, 0, 76, 43
2, 1712, Note_off_c, 0, 76, 64
2, 1720, Note_on_c, 0, 79, 58
2, 1752, Note_off_c, 0, 79, 64
2, 1760, Note_on_c, 0, 77, 52
2, 1776, Note_off_c, 0, 60, 64
2, 1776, Note_off_c, 0, 64, 64
2, 1792, Note_off_c, 0, 77, 64
2, 1800, Note_on_c, 0, 60, 47
2, 1800, Note_on_c, 0, 64, 50
2, 1800, Note_on_c, 0, 76, 71
2, 1832, Note_off_c, 0, 76, 64
2, 1840, Note_on_c, 0, 72, 61
2, 1872, Note_off_c, 0, 72, 64
2, 1880, Note_on_c, 0, 79, 77
2, 1896, Note_off_c, 0, 64, 64
2, 1896, Note_off_c, 0, 60, 64
2, 1912, Note_off_c, 0, 79, 64
2, 1920, Note_on_c, 0, 65, 47
2, 1920, Note_on_c, 0, 81, 66
2, 1952, Note_off_c, 0, 81, 64
2, 1960, Note_on_c, 0, 83, 54
2, 1992, Note_off_c, 0, 83, 64
2, 2000, Note_on_c, 0, 84, 61
2, 2016, Note_off_c, 0, 65, 64
2, 2032, Note_off_c, 0, 84, 64
2, 2040, Note_on_c, 0, 79, 54
2, 2040, Note_on_c, 0, 64, 42
2, 2072, Note_off_c, 0, 79, 64
2, 2080, Note_on_c, 0, 83, 47
2, 2112, Note_off_c, 0, 83, 64
2, 2120, Note_on_c, 0, 84, 54
2, 2136, Note_off_c, 0, 64, 64
2, 2152, Note_off_c, 0, 84, 64
2, 2160, Note_on_c, 0, 79, 47
2, 2160, Note_on_c, 0, 62, 50
2, 2166, Note_off_c, 0, 79, 64
2, 2167, Note_on_c, 0, 77, 36
2, 2173, Note_off_c, 0, 77, 64
2, 2174, Note_on_c, 0, 79, 42
2, 2180, Note_off_c, 0, 79, 64
2, 2181, Note_on_c, 0, 77, 42
2, 2187, Note_off_c, 0, 77, 64
2, 2188, Note_on_c, 0, 79, 44
2, 2194, Note_off_c, 0, 79, 64
2, 2195, Note_on_c, 0, 77, 42
2, 2201, Note_off_c, 0, 77, 64
2, 2202, Note_on_c, 0, 79, 44
2, 2208, Note_off_c, 0, 79, 64
2, 2209, Note_on_c, 0, 77, 42
2, 2215, Note_off_c, 0, 77, 64
2, 2216, Note_on_c, 0, 79, 52
2, 2222, Note_off_c, 0, 79, 64
2, 2223, Note_on_c, 0, 77, 45
2, 2229, Note_off_c, 0, 77, 64
2, 2230, Note_on_c, 0, 79, 50
2, 2236, Note_off_c, 0, 79, 64
2, 2237, Note_on_c, 0, 77, 42
2, 2243, Note_off_c, 0, 77, 64
2, 2244, Note_on_c, 0, 79, 50
2, 2250, Note_off_c, 0, 79, 64
2, 2251, Note_on_c, 0, 77, 44
2, 2256, Note_off_c, 0, 62, 64
2, 2257, Note_off_c, 0, 77, 64
2, 2258, Note_on_c, 0, 79, 45
2, 2264, Note_off_c, 0, 79, 64
2, 2265, Note_on_c, 0, 77, 44
2, 2271, Note_off_c, 0, 77, 64
2, 2272, Note_on_c, 0, 79, 52
2, 2278, Note_off_c, 0, 79, 64
2, 2279, Note_on_c, 0, 77, 43
2, 2280, Note_on_c, 0, 55, 42
2, 2285, Note_off_c, 0, 77, 64
2, 2286, Note_on_c, 0, 79, 44
2, 2292, Note_off_c, 0, 79, 64
2, 2293, Note_on_c, 0, 77, 42
2, 2299, Note_off_c, 0, 77, 64
2, 2300, Note_on_c, 0, 79, 42
2, 2306, Note_off_c, 0, 79, 64
2, 2307, Note_on_c, 0, 77, 42
2, 2313, Note_off_c, 0, 77, 64
2, 2314, Note_on_c, 0, 79, 42
2, 2320, Note_off_c, 0, 79, 64
2, 2321, Note_on_c, 0, 77, 44
2, 2327, Note_off_c, 0, 77, 64
2, 2328, Note_on_c, 0, 79, 50
2, 2334, Note_off_c, 0, 79, 64
2, 2335, Note_on_c, 0, 77, 42
2, 2341, Note_off_c, 0, 77, 64
2, 2342, Note_on_c, 0, 79, 43
2, 2348, Note_off_c, 0, 79, 64
2, 2349, Note_on_c, 0, 77, 42
2, 2355, Note_off_c, 0, 77, 64
2, 2356, Note_on_c, 0, 79, 42
2, 2362, Note_off_c, 0, 79, 64
2, 2363, Note_on_c, 0, 77, 44
2, 2369, Note_off_c, 0, 77, 64
2, 2370, Note_on_c, 0, 79, 52
2, 2376, Note_off_c, 0, 79, 64
2, 2376, Note_off_c, 0, 55, 64
2, 2377, Note_on_c, 0, 77, 43
2, 2383, Note_off_c, 0, 77, 64
2, 2384, Note_on_c, 0, 76, 43
2, 2390, Note_off_c, 0, 76, 64
2, 2391, Note_on_c, 0, 77, 36
2, 2397, Note_off_c, 0, 77, 64
2, 2398, Note_on_c, 0, 76, 52
2, 2400, Note_on_c, 0, 60, 36
2, 2496, Note_off_c, 0, 60, 64
2, 2520, Note_on_c, 0, 55, 38
2, 2590, Note_off_c, 0, 76, 64
2, 2616, Note_off_c, 0, 55, 64
2, 2640, Note_on_c, 0, 48, 29
2, 2736, Note_off_c, 0, 48, 64
2, 2758, Note_on_c, 0, 67, 45
2, 2854, Note_off_c, 0, 67, 64
2, 2880, Note_on_c, 0, 72, 42
2, 2880, Note_on_c, 0, 64, 44
2, 2880, Note_on_c, 0, 60, 61
2, 2912, Note_off_c, 0, 72, 64
2, 2920, Note_on_c, 0, 76, 66
2, 2952, Note_off_c, 0, 76, 64
2, 2960, Note_on_c, 0, 74, 50
2, 2976, Note_off_c, 0, 60, 64
2, 2976, Note_off_c, 0, 64, 64
2, 2992, Note_off_c, 0, 74, 64
2, 3000, Note_on_c, 0, 60, 40
2, 3000, Note_on_c, 0, 64, 42
2, 3000, Note_on_c, 0, 72, 47
2, 3032, Note_off_c, 0, 72, 64
2, 3040, Note_on_c, 0, 72, 44
2, 3072, Note_off_c, 0, 72, 64
2, 3080, Note_on_c, 0, 72, 42
2, 3096, Note_off_c, 0, 64, 64
2, 3096, Note_off_c, 0, 60, 64
2, 3112, Note_off_c, 0, 72, 64
2, 3120, Note_on_c, 0, 64, 42
2, 3120, Note_on_c, 0, 72, 42
2, 3120, Note_on_c, 0, 60, 44
2, 3152, Note_off_c, 0, 72, 64
2, 3160, Note_on_c, 0, 76, 52
2, 3192, Note_off_c, 0, 76, 64
2, 3200, Note_on_c, 0, 77, 47
2, 3216, Note_off_c, 0, 60, 64
2, 3216, Note_off_c, 0, 64, 64
2, 3232, Note_off_c, 0, 77, 64
2, 3240, Note_on_c, 0, 79, 43
2, 3240, Note_on_c, 0, 64, 50
2, 3240, Note_on_c, 0, 60, 45
2, 3272, Note_off_c, 0, 79, 64
2, 3280, Note_on_c, 0, 77, 42
2, 3312, Note_off_c, 0, 77, 64
2, 3320, Note_on_c, 0, 76, 57
2, 3336, Note_off_c, 0, 60, 64
2, 3336, Note_off_c, 0, 64, 64
2, 3352, Note_off_c, 0, 76, 64
2, 3360, Note_on_c, 0, 74, 58
2, 3360, Note_on_c, 0, 67, 36
2, 3360, Note_on_c, 0, 59, 43
2, 3392, Note_off_c, 0, 74, 64
2, 3400, Note_on_c, 0, 79, 54
2, 3432, Note_off_c, 0, 79, 64
2, 3440, Note_on_c, 0, 78, 54
2, 3456, Note_off_c, 0, 59, 64
2, 3456, Note_off_c, 0, 67, 64
2, 3472, Note_off_c, 0, 78, 64
2, 3480, Note_on_c, 0, 62, 47
2, 3480, Note_on_c, 0, 59, 1
2, 3480, Note_on_c, 0, 79, 58
2, 3512, Note_off_c, 0, 79, 64
2, 3520, Note_on_c, 0, 83, 61
2, 3552, Note_off_c, 0, 83, 64
2, 3560, Note_on_c, 0, 81, 61
2, 3576, Note_off_c, 0, 59, 64
2, 3576, Note_off_c, 0, 62, 64
2, 3592, Note_off_c, 0, 81, 64
2, 3600, Note_on_c, 0, 59, 1
2, 3600, Note_on_c, 0, 62, 42
2, 3600, Note_on_c, 0, 79, 52
2, 3632, Note_off_c, 0, 79, 64
2, 3640, Note_on_c, 0, 78, 58
2, 3672, Note_off_c, 0, 78, 64
2, 3680, Note_on_c, 0, 76, 52
2, 3696, Note_off_c, 0, 62, 64
2, 3696, Note_off_c, 0, 59, 64
2, 3712, Note_off_c, 0, 76, 64
2, 3720, Note_on_c, 0, 62, 42
2, 3720, Note_on_c, 0, 59, 35
2, 3720, Note_on_c, 0, 74, 50
2, 3752, Note_off_c, 0, 74, 64
2, 3760, Note_on_c, 0, 72, 43
2, 3792, Note_off_c, 0, 72, 64
2, 3800, Note_on_c, 0, 71, 44
2, 3816, Note_off_c, 0, 59, 64
2, 3816, Note_off_c, 0, 62, 64
2, 3832, Note_off_c, 0, 71, 64
2, 3840, Note_on_c, 0, 64, 42
2, 3840, Note_on_c, 0, 60, 42
2, 3840, Note_on_c, 0, 69, 42
2, 3872, Note_off_c, 0, 69, 64
2, 3880, Note_on_c, 0, 72, 52
2, 3912, Note_off_c, 0, 72, 64
2, 3920, Note_on_c, 0, 71, 43
2, 3936, Note_off_c, 0, 60, 64
2, 3936, Note_off_c, 0, 64, 64
2, 3952, Note_off_c, 0, 71, 64
2, 3960, Note_on_c, 0, 64, 47
2, 3960, Note_on_c, 0, 60, 43
2, 3960, Note_on_c, 0, 69, 44
2, 3992, Note_off_c, 0, 69, 64
2, 4000, Note_on_c, 0, 72, 54
2, 4032, Note_off_c, 0, 72, 64
2, 4040, Note_on_c, 0, 74, 61
2, 4056, Note_off_c, 0, 60, 64
2, 4056, Note_off_c, 0, 64, 64
2, 4072, Note_off_c, 0, 74, 64
2, 4080, Note_on_c, 0, 64, 43
2, 4080, Note_on_c, 0, 60, 42
2, 4080, Note_on_c, 0, 76, 58
2, 4112, Note_off_c, 0, 76, 64
2, 4120, Note_on_c, 0, 74, 58
2, 4152, Note_off_c, 0, 74, 64
2, 4160, Note_on_c, 0, 72, 52
2, 4176, Note_off_c, 0, 60, 64
2, 4176, Note_off_c, 0, 64, 64
2, 4192, Note_off_c, 0, 72, 64
2, 4200, Note_on_c, 0, 61, 42
2, 4200, Note_on_c, 0, 71, 58
2, 4200, Note_on_c, 0, 64, 21
2, 4232, Note_off_c, 0, 71, 64
2, 4240, Note_on_c, 0, 69, 52
2, 4272, Note_off_c, 0, 69, 64
2, 4280, Note_on_c, 0, 67, 4
2, 4296, Note_off_c, 0, 64, 64
2, 4296, Note_off_c, 0, 61, 64
2, 4312, Note_off_c, 0, 67, 64
2, 4320, Note_on_c, 0, 62, 45
2, 4320, Note_on_c, 0, 69, 66
2, 4326, Note_off_c, 0, 69, 64
2, 4327, Note_on_c, 0, 67, 42
2, 4333, Note_off_c, 0, 67, 64
2, 4334, Note_on_c, 0, 69, 45
2, 4340, Note_off_c, 0, 69, 64
2, 4341, Note_on_c, 0, 67, 40
2, 4347, Note_off_c, 0, 67, 64
2, 4348, Note_on_c, 0, 69, 50
2, 4354, Note_off_c, 0, 69, 64
2, 4355, Note_on_c, 0, 67, 54
2, 4361, Note_off_c, 0, 67, 64
2, 4362, Note_on_c, 0, 69, 47
2, 4368, Note_off_c, 0, 69, 64
2, 4369, Note_on_c, 0, 67, 47
2, 4375, Note_off_c, 0, 67, 64
2, 4376, Note_on_c, 0, 69, 52
2, 4382, Note_off_c, 0, 69, 64
2, 4383, Note_on_c, 0, 67, 44
2, 4389, Note_off_c, 0, 67, 64
2, 4390, Note_on_c, 0, 69, 61
2, 4396, Note_off_c, 0, 69, 64
2, 4397, Note_on_c, 0, 67, 45
2, 4403, Note_off_c, 0, 67, 64
2, 4404, Note_on_c, 0, 69, 45
2, 4410, Note_off_c, 0, 69, 64
2, 4411, Note_on_c, 0, 67, 42
2, 4416, Note_off_c, 0, 62, 64
2, 4417, Note_off_c, 0, 67, 64
2, 4418, Note_on_c, 0, 66, 58
2, 4424, Note_off_c, 0, 66, 64
2, 4425, Note_on_c, 0, 67, 43
2, 4431, Note_off_c, 0, 67, 64
2, 4432, Note_on_c, 0, 66, 80
2, 4440, Note_on_c, 0, 50, 61
2, 4528, Note_off_c, 0, 66, 64
2, 4536, Note_off_c, 0, 50, 64
2, 4560, Note_on_c, 0, 50, 47
2, 4656, Note_off_c, 0, 50, 64
2, 4672, Note_on_c, 0, 74, 52
2, 4768, Note_off_c, 0, 74, 64
2, 4800, Note_on_c, 0, 54, 42
2, 4800, Note_on_c, 0, 50, 47
2, 4800, Note_on_c, 0, 72, 71
2, 4832, Note_off_c, 0, 72, 64
2, 4840, Note_on_c, 0, 71, 44
2, 4872, Note_off_c, 0, 71, 64
2, 4880, Note_on_c, 0, 69, 58
2, 4896, Note_off_c, 0, 50, 64
2, 4896, Note_off_c, 0, 54, 64
2, 4912, Note_off_c, 0, 69, 64
2, 4920, Note_on_c, 0, 50, 40
2, 4920, Note_on_c, 0, 67, 58
2, 4920, Note_on_c, 0, 54, 36
2, 4952, Note_off_c, 0, 67, 64
2, 4960, Note_on_c, 0, 66, 50
2, 4992, Note_off_c, 0, 66, 64
2, 5000, Note_on_c, 0, 64, 66
2, 5016, Note_off_c, 0, 54, 64
2, 5016, Note_off_c, 0, 50, 64
2, 5032, Note_off_c, 0, 64, 64
2, 5040, Note_on_c, 0, 50, 42
2, 5040, Note_on_c, 0, 62, 58
2, 5040, Note_on_c, 0, 54, 29
2, 5072, Note_off_c, 0, 62, 64
2, 5080, Note_on_c, 0, 69, 58
2, 5112, Note_off_c, 0, 69, 64
2, 5120, Note_on_c, 0, 71, 43
2, 5136, Note_off_c, 0, 54, 64
2, 5136, Note_off_c, 0, 50, 64
2, 5152, Note_off_c, 0, 71, 64
2, 5160, Note_on_c, 0, 72, 47
2, 5160, Note_on_c, 0, 50, 1
2, 5160, Note_on_c, 0, 54, 15
2, 5192, Note_off_c, 0, 72, 64
2, 5200, Note_on_c, 0, 71, 43
2, 5232, Note_off_c, 0, 71, 64
2, 5240, Note_on_c, 0, 69, 50
2, 5256, Note_off_c, 0, 54, 64
2, 5256, Note_off_c, 0, 50, 64
2, 5272, Note_off_c, 0, 69, 64
2, 5280, Note_on_c, 0, 55, 45
2, 5280, Note_on_c, 0, 71, 52
2, 5312, Note_off_c, 0, 71, 64
2, 5320, Note_on_c, 0, 69, 47
2, 5352, Note_off_c, 0, 69, 64
2, 5360, Note_on_c, 0, 67, 43
2, 5392, Note_off_c, 0, 67, 64
2, 5400, Note_on_c, 0, 74, 77
2, 5432, Note_off_c, 0, 74, 64
2, 5440, Note_on_c, 0, 72, 58
2, 5472, Note_off_c, 0, 72, 64
2, 5472, Note_off_c, 0, 55, 64
2, 5480, Note_on_c, 0, 71, 47
2, 5512, Note_off_c, 0, 71, 64
2, 5520, Note_on_c, 0, 79, 61
2, 5616, Note_off_c, 0, 79, 64
2, 5640, Note_on_c, 0, 74, 45
2, 5736, Note_off_c, 0, 74, 64
2, 5760, Note_on_c, 0, 72, 55
2, 5760, Note_on_c, 0, 50, 66
2, 5760, Note_on_c, 0, 54, 42
2, 5792, Note_off_c, 0, 72, 64
2, 5800, Note_on_c, 0, 71, 42
2, 5832, Note_off_c, 0, 71, 64
2, 5840, Note_on_c, 0, 69, 43
2, 5856, Note_off_c, 0, 54, 64
2, 5856, Note_off_c, 0, 50, 64
2, 5872, Note_off_c, 0, 69, 64
2, 5880, Note_on_c, 0, 54, 1
2, 5880, Note_on_c, 0, 50, 42
2, 5880, Note_on_c, 0, 67, 47
2, 5912, Note_off_c, 0, 67, 64
2, 5920, Note_on_c, 0, 66, 61
2, 5952, Note_off_c, 0, 66, 64
2, 5960, Note_on_c, 0, 64, 58
2, 5976, Note_off_c, 0, 50, 64
2, 5976, Note_off_c, 0, 54, 64
2, 5992, Note_off_c, 0, 64, 64
2, 6000, Note_on_c, 0, 62, 54
2, 6000, Note_on_c, 0, 54, 1
2, 6000, Note_on_c, 0, 50, 42
2, 6032, Note_off_c, 0, 62, 64
2, 6040, Note_on_c, 0, 69, 69
2, 6072, Note_off_c, 0, 69, 64
2, 6080, Note_on_c, 0, 71, 69
2, 6096, Note_off_c, 0, 50, 64
2, 6096, Note_off_c, 0, 54, 64
2, 6112, Note_off_c, 0, 71, 64
2, 6120, Note_on_c, 0, 54, 31
2, 6120, Note_on_c, 0, 50, 42
2, 6120, Note_on_c, 0, 72, 42
2, 6152, Note_off_c, 0, 72, 64
2, 6160, Note_on_c, 0, 71, 42
2, 6192, Note_off_c, 0, 71, 64
2, 6200, Note_on_c, 0, 69, 43
2, 6216, Note_off_c, 0, 50, 64
2, 6216, Note_off_c, 0, 54, 64
2, 6232, Note_off_c, 0, 69, 64
2, 6240, Note_on_c, 0, 71, 52
2, 6240, Note_on_c, 0, 55, 43
2, 6272, Note_off_c, 0, 71, 64
2, 6280, Note_on_c, 0, 69, 52
2, 6312, Note_off_c, 0, 69, 64
2, 6320, Note_on_c, 0, 67, 45
2, 6352, Note_off_c, 0, 67, 64
2, 6360, Note_on_c, 0, 74, 58
2, 6392, Note_off_c, 0, 74, 64
2, 6400, Note_on_c, 0, 72, 61
2, 6432, Note_off_c, 0, 72, 64
2, 6432, Note_off_c, 0, 55, 64
2, 6440, Note_on_c, 0, 71, 45
2, 6472, Note_off_c, 0, 71, 64
2, 6480, Note_on_c, 0, 79, 47
2, 6576, Note_off_c, 0, 79, 64
2, 6600, Note_on_c, 0, 59, 42
2, 6600, Note_on_c, 0, 74, 50
2, 6696, Note_off_c, 0, 74, 64
2, 6696, Note_off_c, 0, 59, 64
2, 6720, Note_on_c, 0, 60, 61
2, 6720, Note_on_c, 0, 76, 45
2, 6752, Note_off_c, 0, 76, 64
2, 6760, Note_on_c, 0, 78, 66
2, 6792, Note_off_c, 0, 78, 64
2, 6800, Note_on_c, 0, 79, 42
2, 6816, Note_off_c, 0, 60, 64
2, 6832, Note_off_c, 0, 79, 64
2, 6840, Note_on_c, 0, 81, 43
2, 6840, Note_on_c, 0, 57, 42
2, 6872, Note_off_c, 0, 81, 64
2, 6880, Note_on_c, 0, 83, 50
2, 6912, Note_off_c, 0, 83, 64
2, 6920, Note_on_c, 0, 84, 42
2, 6936, Note_off_c, 0, 57, 64
2, 6952, Note_off_c, 0, 84, 64
2, 6960, Note_on_c, 0, 59, 42
2, 6960, Note_on_c, 0, 74, 50
2, 6992, Note_off_c, 0, 74, 64
2, 7000, Note_on_c, 0, 76, 52
2, 7032, Note_off_c, 0, 76, 64
2, 7040, Note_on_c, 0, 78, 61
2, 7056, Note_off_c, 0, 59, 64
2, 7072, Note_off_c, 0, 78, 64
2, 7080, Note_on_c, 0, 79, 50
2, 7080, Note_on_c, 0, 55, 1
2, 7112, Note_off_c, 0, 79, 64
2, 7120, Note_on_c, 0, 81, 42
2, 7152, Note_off_c, 0, 81, 64
2, 7160, Note_on_c, 0, 83, 50
2, 7176, Note_off_c, 0, 55, 64
2, 7192, Note_off_c, 0, 83, 64
2, 7200, Note_on_c, 0, 57, 44
2, 7200, Note_on_c, 0, 72, 43
2, 7232, Note_off_c, 0, 72, 64
2, 7240, Note_on_c, 0, 71, 52
2, 7272, Note_off_c, 0, 71, 64
2, 7280, Note_on_c, 0, 72, 44
2, 7296, Note_off_c, 0, 57, 64
2, 7312, Note_off_c, 0, 72, 64
2, 7320, Note_on_c, 0, 81, 54
2, 7320, Note_on_c, 0, 50, 38
2, 7352, Note_off_c, 0, 81, 64
2, 7360, Note_on_c, 0, 78, 52
2, 7392, Note_off_c, 0, 78, 64
2, 7400, Note_on_c, 0, 72, 46
2, 7416, Note_off_c, 0, 50, 64
2, 7432, Note_off_c, 0, 72, 64
2, 7440, Note_on_c, 0, 55, 42
2, 7440, Note_on_c, 0, 71, 42
2, 7472, Note_off_c, 0, 71, 64
2, 7480, Note_on_c, 0, 79, 42
2, 7512, Note_off_c, 0, 79, 64
2, 7520, Note_on_c, 0, 79, 54
2, 7536, Note_off_c, 0, 55, 64
2, 7552, Note_off_c, 0, 79, 64
2, 7560, Note_on_c, 0, 59, 42
2, 7560, Note_on_c, 0, 79, 42
2, 7592, Note_off_c, 0, 79, 64
2, 7600, Note_on_c, 0, 74, 42
2, 7632, Note_off_c, 0, 74, 64
2, 7640, Note_on_c, 0, 71, 42
2, 7656, Note_off_c, 0, 59, 64
2, 7672, Note_off_c, 0, 71, 64
2, 7680, Note_on_c, 0, 60, 58
2, 7680, Note_on_c, 0, 76, 54
2, 7712, Note_off_c, 0, 76, 64
2, 7720, Note_on_c, 0, 74, 50
2, 7752, Note_off_c, 0, 74, 64
2, 7760, Note_on_c, 0, 72, 52
2, 7776, Note_off_c, 0, 60, 64
2, 7792, Note_off_c, 0, 72, 64
2, 7800, Note_on_c, 0, 71, 50
2, 7800, Note_on_c, 0, 64, 66
2, 7832, Note_off_c, 0, 71, 64
2, 7840, Note_on_c, 0, 69, 54
2, 7872, Note_off_c, 0, 69, 64
2, 7880, Note_on_c, 0, 67, 42
2, 7896, Note_off_c, 0, 64, 64
2, 7912, Note_off_c, 0, 67, 64
2, 7920, Note_on_c, 0, 71, 47
2, 7920, Note_on_c, 0, 62, 42
2, 7926, Note_off_c, 0, 71, 64
2, 7927, Note_on_c, 0, 69, 36
2, 7933, Note_off_c, 0, 69, 64
2, 7934, Note_on_c, 0, 71, 42
2, 7940, Note_off_c, 0, 71, 64
2, 7941, Note_on_c, 0, 69, 42
2, 7947, Note_off_c, 0, 69, 64
2, 7948, Note_on_c, 0, 71, 44
2, 7954, Note_off_c, 0, 71, 64
2, 7955, Note_on_c, 0, 69, 42
2, 7961, Note_off_c, 0, 69, 64
2, 7962, Note_on_c, 0, 71, 44
2, 7968, Note_off_c, 0, 71, 64
2, 7969, Note_on_c, 0, 69, 42
2, 7975, Note_off_c, 0, 69, 64
2, 7976, Note_on_c, 0, 71, 52
2, 7982, Note_off_c, 0, 71, 64
2, 7983, Note_on_c, 0, 69, 45
2, 7989, Note_off_c, 0, 69, 64
2, 7990, Note_on_c, 0, 71, 50
2, 7996, Note_off_c, 0, 71, 64
2, 7997, Note_on_c, 0, 69, 42
2, 8003, Note_off_c, 0, 69, 64
2, 8004, Note_on_c, 0, 71, 50
2, 8010, Note_off_c, 0, 71, 64
2, 8011, Note_on_c, 0, 69, 44
2, 8016, Note_off_c, 0, 62, 64
2, 8017, Note_off_c, 0, 69, 64
2, 8018, Note_on_c, 0, 71, 45
2, 8024, Note_off_c, 0, 71, 64
2, 8025, Note_on_c, 0, 69, 44
2, 8031, Note_off_c, 0, 69, 64
2, 8032, Note_on_c, 0, 71, 52
2, 8038, Note_off_c, 0, 71, 64
2, 8039, Note_on_c, 0, 69, 43
2, 8040, Note_on_c, 0, 50, 58
2, 8045, Note_off_c, 0, 69, 64
2, 8046, Note_on_c, 0, 71, 44
2, 8052, Note_off_c, 0, 71, 64
2, 8053, Note_on_c, 0, 69, 42
2, 8059, Note_off_c, 0, 69, 64
2, 8060, Note_on_c, 0, 71, 42
2, 8066, Note_off_c, 0, 71, 64
2, 8067, Note_on_c, 0, 69, 42
2, 8073, Note_off_c, 0, 69, 64
2, 8074, Note_on_c, 0, 71, 42
2, 8080, Note_off_c, 0, 71, 64
2, 8081, Note_on_c, 0, 69, 44
2, 8087, Note_off_c, 0, 69, 64
2, 8088, Note_on_c, 0, 71, 50
2, 8094, Note_off_c, 0, 71, 64
2, 8095, Note_on_c, 0, 69, 42
2, 8101, Note_off_c, 0, 69, 64
2, 8102, Note_on_c, 0, 71, 43
2, 8108, Note_off_c, 0, 71, 64
2, 8109, Note_on_c, 0, 69, 42
2, 8115, Note_off_c, 0, 69, 64
2, 8116, Note_on_c, 0, 71, 42
2, 8122, Note_off_c, 0, 71, 64
2, 8123, Note_on_c, 0, 69, 44
2, 8129, Note_off_c, 0, 69, 64
2, 8130, Note_on_c, 0, 71, 52
2, 8136, Note_off_c, 0, 71, 64
2, 8136, Note_off_c, 0, 50, 64
2, 8137, Note_on_c, 0, 69, 43
2, 8143, Note_off_c, 0, 69, 64
2, 8144, Note_on_c, 0, 67, 43
2, 8150, Note_off_c, 0, 67, 64
2, 8151, Note_on_c, 0, 69, 36
2, 8157, Note_off_c, 0, 69, 64
2, 8158, Note_on_c, 0, 67, 52
2, 8160, Note_on_c, 0, 55, 50
2, 8256, Note_off_c, 0, 55, 64
2, 8280, Note_on_c, 0, 50, 61
2, 8350, Note_off_c, 0, 67, 64
2, 8376, Note_off_c, 0, 50, 64
2, 8400, Note_on_c, 0, 43, 50
2, 8496, Note_off_c, 0, 43, 64
2, 8518, Note_on_c, 0, 67, 43
2, 8614, Note_off_c, 0, 67, 64
2, 8640, Note_on_c, 0, 60, 45
2, 8640, Note_on_c, 0, 64, 45
2, 8640, Note_on_c, 0, 72, 58
2, 8672, Note_off_c, 0, 72, 64
2, 8680, Note_on_c, 0, 76, 71
2, 8712, Note_off_c, 0, 76, 64
2, 8720, Note_on_c, 0, 74, 54
2, 8736, Note_off_c, 0, 64, 64
2, 8736, Note_off_c, 0, 60, 64
2, 8752, Note_off_c, 0, 74, 64
2, 8760, Note_on_c, 0, 60, 42
2, 8760, Note_on_c, 0, 64, 32
2, 8760, Note_on_c, 0, 72, 44
2, 8856, Note_off_c, 0, 64, 64
2, 8856, Note_off_c, 0, 60, 64
2, 8872, Note_off_c, 0, 72, 64
2, 8880, Note_on_c, 0, 64, 43
2, 8880, Note_on_c, 0, 60, 42
2, 8880, Note_on_c, 0, 76, 54
2, 8912, Note_off_c, 0, 76, 64
2, 8920, Note_on_c, 0, 79, 58
2, 8952, Note_off_c, 0, 79, 64
2, 8960, Note_on_c, 0, 77, 66
2, 8976, Note_off_c, 0, 60, 64
2, 8976, Note_off_c, 0, 64, 64
2, 8992, Note_off_c, 0, 77, 64
2, 9000, Note_on_c, 0, 76, 58
2, 9000, Note_on_c, 0, 60, 42
2, 9000, Note_on_c, 0, 64, 42
2, 9032, Note_off_c, 0, 76, 64
2, 9040, Note_on_c, 0, 72, 61
2, 9072, Note_off_c, 0, 72, 64
2, 9080, Note_on_c, 0, 79, 45
2, 9096, Note_off_c, 0, 64, 64
2, 9096, Note_off_c, 0, 60, 64
2, 9112, Note_off_c, 0, 79, 64
2, 9120, Note_on_c, 0, 65, 42
2, 9120, Note_on_c, 0, 81, 57
2, 9120, Note_on_c, 0, 60, 50
2, 9152, Note_off_c, 0, 81, 64
2, 9160, Note_on_c, 0, 84, 44
2, 9192, Note_off_c, 0, 84, 64
2, 9200, Note_on_c, 0, 81, 66
2, 9216, Note_off_c, 0, 60, 64
2, 9216, Note_off_c, 0, 65, 64
2, 9232, Note_off_c, 0, 81, 64
2, 9240, Note_on_c, 0, 79, 50
2, 9240, Note_on_c, 0, 60, 42
2, 9240, Note_on_c, 0, 64, 42
2, 9336, Note_off_c, 0, 64, 64
2, 9336, Note_off_c, 0, 60, 64
2, 9352, Note_off_c, 0, 79, 64
2, 9360, Note_on_c, 0, 64, 42
2, 9360, Note_on_c, 0, 60, 42
2, 9360, Note_on_c, 0, 76, 43
2, 9392, Note_off_c, 0, 76, 64
2, 9400, Note_on_c, 0, 79, 58
2, 9432, Note_off_c, 0, 79, 64
2, 9440, Note_on_c, 0, 77, 52
2, 9456, Note_off_c, 0, 60, 64
2, 9456, Note_off_c, 0, 64, 64
2, 9472, Note_off_c, 0, 77, 64
2, 9480, Note_on_c, 0, 60, 47
2, 9480, Note_on_c, 0, 64, 50
2, 9480, Note_on_c, 0, 76, 71
2, 9512, Note_off_c, 0, 76, 64
2, 9520, Note_on_c, 0, 72, 61
2, 9552, Note_off_c, 0, 72, 64
2, 9560, Note_on_c, 0, 79, 77
2, 9576, Note_off_c, 0, 64, 64
2, 9576, Note_off_c, 0, 60, 64
2, 9592, Note_off_c, 0, 79, 64
2, 9600, Note_on_c, 0, 65, 47
2, 9600, Note_on_c, 0, 81, 66
2, 9632, Note_off_c, 0, 81, 64
2, 9640, Note_on_c, 0, 83, 54
2, 9672, Note_off_c, 0, 83, 64
2, 9680, Note_on_c, 0, 84, 61
2, 9696, Note_off_c, 0, 65, 64
2, 9712, Note_off_c, 0, 84, 64
2, 9720, Note_on_c, 0, 79, 54
2, 9720, Note_on_c, 0, 64, 42
2, 9752, Note_off_c, 0, 79, 64
2, 9760, Note_on_c, 0, 83, 47
2, 9792, Note_off_c, 0, 83, 64
2, 9800, Note_on_c, 0, 84, 54
2, 9816, Note_off_c, 0, 64, 64
2, 9832, Note_off_c, 0, 84, 64
2, 9840, Note_on_c, 0, 79, 47
2, 9840, Note_on_c, 0, 62, 50
2, 9846, Note_off_c, 0, 79, 64
2, 9847, Note_on_c, 0, 77, 36
2, 9853, Note_off_c, 0, 77, 64
2, 9854, Note_on_c, 0, 79, 42
2, 9860, Note_off_c, 0, 79, 64
2, 9861, Note_on_c, 0, 77, 42
2, 9867, Note_off_c, 0, 77, 64
2, 9868, Note_on_c, 0, 79, 44
2, 9874, Note_off_c, 0, 79, 64
2, 9875, Note_on_c, 0, 77, 42
2, 9881, Note_off_c, 0, 77, 64
2, 9882, Note_on_c, 0, 79, 44
2, 9888, Note_off_c, 0, 79, 64
2, 9889, Note_on_c, 0, 77, 42
2, 9895, Note_off_c, 0, 77, 64
2, 9896, Note_on_c, 0, 79, 52
2, 9902, Note_off_c, 0, 79, 64
2, 9903, Note_on_c, 0, 77, 45
2, 9909, Note_off_c, 0, 77, 64
2, 9910, Note_on_c, 0, 79, 50
2, 9916, Note_off_c, 0, 79, 64
2, 9917, Note_on_c, 0, 77, 42
2, 9923, Note_off_c, 0, 77, 64
2, 9924, Note_on_c, 0, 79, 50
2, 9930, Note_off_c, 0, 79, 64
2, 9931, Note_on_c, 0, 77, 44
2, 9936, Note_off_c, 0, 62, 64
2, 9937, Note_off_c, 0, 77, 64
2, 9938, Note_on_c, 0, 79, 45
2, 9944, Note_off_c, 0, 79, 64
2, 9945, Note_on_c, 0, 77, 44
2, 9951, Note_off_c, 0, 77, 64
2, 9952, Note_on_c, 0, 79, 52
2, 9958, Note_off_c, 0, 79, 64
2, 9959, Note_on_c, 0, 77, 43
2, 9960, Note_on_c, 0, 55, 42
2, 9965, Note_off_c, 0, 77, 64
2, 9966, Note_on_c, 0, 79, 44
2, 9972, Note_off_c, 0, 79, 64
2, 9973, Note_on_c, 0, 77, 42
2, 9979, Note_off_c, 0, 77, 64
2, 9980, Note_on_c, 0, 79, 42
2, 9986, Note_off_c, 0, 79, 64
2, 9987, Note_on_c, 0, 77, 42
2, 9993, Note_off_c, 0, 77, 64
2, 9994, Note_on_c, 0, 79, 42
2, 10000, Note_off_c, 0, 79, 64
2, 10001, Note_on_c, 0, 77, 44
2, 10007, Note_off_c, 0, 77, 64
2, 10008, Note_on_c, 0, 79, 50
2, 10014, Note_off_c, 0, 79, 64
2, 10015, Note_on_c, 0, 77, 42
2, 10021, Note_off_c, 0, 77, 64
2, 10022, Note_on_c, 0, 79, 43
2, 10028, Note_off_c, 0, 79, 64
2, 10029, Note_on_c, 0, 77, 42
2, 10035, Note_off_c, 0, 77, 64
2, 10036, Note_on_c, 0, 79, 42
2, 10042, Note_off_c, 0, 79, 64
2, 10043, Note_on_c, 0, 77, 44
2, 10049, Note_off_c, 0, 77, 64
2, 10050, Note_on_c, 0, 79, 52
2, 10056, Note_off_c, 0, 79, 64
2, 10056, Note_off_c, 0, 55, 64
2, 10057, Note_on_c, 0, 77, 43
2, 10063, Note_off_c, 0, 77, 64
2, 10064, Note_on_c, 0, 76, 43
2, 10070, Note_off_c, 0, 76, 64
2, 10071, Note_on_c, 0, 77, 36
2, 10077, Note_off_c, 0, 77, 64
2, 10078, Note_on_c, 0, 76, 52
2, 10080, Note_on_c, 0, 60, 36
2, 10176, Note_off_c, 0, 60, 64
2, 10200, Note_on_c, 0, 55, 38
2, 10270, Note_off_c, 0, 76, 64
2, 10296, Note_off_c, 0, 55, 64
2, 10320, Note_on_c, 0, 48, 29
2, 10416, Note_off_c, 0, 48, 64
2, 10438, Note_on_c, 0, 67, 45
2, 10534, Note_off_c, 0, 67, 64
2, 10560, Note_on_c, 0, 72, 42
2, 10560, Note_on_c, 0, 64, 44
2, 10560, Note_on_c, 0, 60, 61
2, 10592, Note_off_c, 0, 72, 64
2, 10600, Note_on_c, 0, 76, 66
2, 10632, Note_off_c, 0, 76, 64
2, 10640, Note_on_c, 0, 74, 50
2, 10656, Note_off_c, 0, 60, 64
2, 10656, Note_off_c, 0, 64, 64
2, 10672, Note_off_c, 0, 74, 64
2, 10680, Note_on_c, 0, 60, 40
2, 10680, Note_on_c, 0, 64, 42
2, 10680, Note_on_c, 0, 72, 47
2, 10712, Note_off_c, 0, 72, 64
2, 10720, Note_on_c, 0, 72, 44
2, 10752, Note_off_c, 0, 72, 64
2, 10760, Note_on_c, 0, 72, 42
2, 10776, Note_off_c, 0, 64, 64
2, 10776, Note_off_c, 0, 60, 64
2, 10792, Note_off_c, 0, 72, 64
2, 10800, Note_on_c, 0, 64, 42
2, 10800, Note_on_c, 0, 72, 42
2, 10800, Note_on_c, 0, 60, 44
2, 10832, Note_off_c, 0, 72, 64
2, 10840, Note_on_c, 0, 76, 52
2, 10872, Note_off_c, 0, 76, 64
2, 10880, Note_on_c, 0, 77, 47
2, 10896, Note_off_c, 0, 60, 64
2, 10896, Note_off_c, 0, 64, 64
2, 10912, Note_off_c, 0, 77, 64
2, 10920, Note_on_c, 0, 79, 43
2, 10920, Note_on_c, 0, 64, 50
2, 10920, Note_on_c, 0, 60, 45
2, 10952, Note_off_c, 0, 79, 64
2, 10960, Note_on_c, 0, 77, 42
2, 10992, Note_off_c, 0, 77, 64
2, 11000, Note_on_c, 0, 76, 57
2, 11016, Note_off_c, 0, 60, 64
2, 11016, Note_off_c, 0, 64, 64
2, 11032, Note_off_c, 0, 76, 64
2, 11040, Note_on_c, 0, 74, 58
2, 11040, Note_on_c, 0, 67, 36
2, 11040, Note_on_c, 0, 59, 43
2, 11072, Note_off_c, 0, 74, 64
2, 11080, Note_on_c, 0, 79, 54
2, 11112, Note_off_c, 0, 79, 64
2, 11120, Note_on_c, 0, 78, 54
2, 11136, Note_off_c, 0, 59, 64
2, 11136, Note_off_c, 0, 67, 64
2, 11152, Note_off_c, 0, 78, 64
2, 11160, Note_on_c, 0, 62, 47
2, 11160, Note_on_c, 0, 59, 1
2, 11160, Note_on_c, 0, 79, 58
2, 11192, Note_off_c, 0, 79, 64
2, 11200, Note_on_c, 0, 83, 61
2, 11232, Note_off_c, 0, 83, 64
2, 11240, Note_on_c, 0, 81, 61
2, 11256, Note_off_c, 0, 59, 64
2, 11256, Note_off_c, 0, 62, 64
2, 11272, Note_off_c, 0, 81, 64
2, 11280, Note_on_c, 0, 59, 1
2, 11280, Note_on_c, 0, 62, 42
2, 11280, Note_on_c, 0, 79, 52
2, 11312, Note_off_c, 0, 79, 64
2, 11320, Note_on_c, 0, 78, 58
2, 11352, Note_off_c, 0, 78, 64
2, 11360, Note_on_c, 0, 76, 52
2, 11376, Note_off_c, 0, 62, 64
2, 11376, Note_off_c, 0, 59, 64
2, 11392, Note_off_c, 0, 76, 64
2, 11400, Note_on_c, 0, 62, 42
2, 11400, Note_on_c, 0, 59, 35
2, 11400, Note_on_c, 0, 74, 50
2, 11432, Note_off_c, 0, 74, 64
2, 11440, Note_on_c, 0, 72, 43
2, 11472, Note_off_c, 0, 72, 64
2, 11480, Note_on_c, 0, 71, 44
2, 11496, Note_off_c, 0, 59, 64
2, 11496, Note_off_c, 0, 62, 64
2, 11512, Note_off_c, 0, 71, 64
2, 11520, Note_on_c, 0, 64, 42
2, 11520, Note_on_c, 0, 60, 42
2, 11520, Note_on_c, 0, 69, 42
2, 11552, Note_off_c, 0, 69, 64
2, 11560, Note_on_c, 0, 72, 52
2, 11592, Note_off_c, 0, 72, 64
2, 11600, Note_on_c, 0, 71, 43
2, 11616, Note_off_c, 0, 60, 64
2, 11616, Note_off_c, 0, 64, 64
2, 11632, Note_off_c, 0, 71, 64
2, 11640, Note_on_c, 0, 64, 47
2, 11640, Note_on_c, 0, 60, 43
2, 11640, Note_on_c, 0, 69, 44
2, 11672, Note_off_c, 0, 69, 64
2, 11680, Note_on_c, 0, 72, 54
2, 11712, Note_off_c, 0, 72, 64
2, 11720, Note_on_c, 0, 74, 61
2, 11736, Note_off_c, 0, 60, 64
2, 11736, Note_off_c, 0, 64, 64
2, 11752, Note_off_c, 0, 74, 64
2, 11760, Note_on_c, 0, 64, 43
2, 11760, Note_on_c, 0, 60, 42
2, 11760, Note_on_c, 0, 76, 58
2, 11792, Note_off_c, 0, 76, 64
2, 11800, Note_on_c, 0, 74, 58
2, 11832, Note_off_c, 0, 74, 64
2, 11840, Note_on_c, 0, 72, 52
2, 11856, Note_off_c, 0, 60, 64
2, 11856, Note_off_c, 0, 64, 64
2, 11872, Note_off_c, 0, 72, 64
2, 11880, Note_on_c, 0, 61, 42
2, 11880, Note_on_c, 0, 71, 58
2, 11880, Note_on_c, 0, 64, 21
2, 11912, Note_off_c, 0, 71, 64
2, 11920, Note_on_c, 0, 69, 52
2, 11952, Note_off_c, 0, 69, 64
2, 11960, Note_on_c, 0, 67, 4
2, 11976, Note_off_c, 0, 64, 64
2, 11976, Note_off_c, 0, 61, 64
2, 11992, Note_off_c, 0, 67, 64
2, 12000, Note_on_c, 0, 62, 45
2, 12000, Note_on_c, 0, 69, 66
2, 12006, Note_off_c, 0, 69, 64
2, 12007, Note_on_c, 0, 67, 42
2, 12013, Note_off_c, 0, 67, 64
2, 12014, Note_on_c, 0, 69, 45
2, 12020, Note_off_c, 0, 69, 64
2, 12021, Note_on_c, 0, 67, 40
2, 12027, Note_off_c, 0, 67, 64
2, 12028, Note_on_c, 0, 69, 50
2, 12034, Note_off_c, 0, 69, 64
2, 12035, Note_on_c, 0, 67, 54
2, 12041, Note_off_c, 0, 67, 64
2, 12042, Note_on_c, 0, 69, 47
2, 12048, Note_off_c, 0, 69, 64
2, 12049, Note_on_c, 0, 67, 47
2, 12055, Note_off_c, 0, 67, 64
2, 12056, Note_on_c, 0, 69, 52
2, 12062, Note_off_c, 0, 69, 64
2, 12063, Note_on_c, 0, 67, 44
2, 12069, Note_off_c, 0, 67, 64
2, 12070, Note_on_c, 0, 69, 61
2, 12076, Note_off_c, 0, 69, 64
2, 12077, Note_on_c, 0, 67, 45
2, 12083, Note_off_c, 0, 67, 64
2, 12084, Note_on_c, 0, 69, 45
2, 12090, Note_off_c, 0, 69, 64
2, 12091, Note_on_c, 0, 67, 42
2, 12096, Note_off_c, 0, 62, 64
2, 12097, Note_off_c, 0, 67, 64
2, 12098, Note_on_c, 0, 66, 58
2, 12104, Note_off_c, 0, 66, 64
2, 12105, Note_on_c, 0, 67, 43
2, 12111, Note_off_c, 0, 67, 64
2, 12112, Note_on_c, 0, 66, 80
2, 12120, Note_on_c, 0, 50, 61
2, 12208, Note_off_c, 0, 66, 64
2, 12216, Note_off_c, 0, 50, 64
2, 12240, Note_on_c, 0, 50, 47
2, 12336, Note_off_c, 0, 50, 64
2, 12352, Note_on_c, 0, 74, 52
2, 12448, Note_off_c, 0, 74, 64
2, 12480, Note_on_c, 0, 54, 42
2, 12480, Note_on_c, 0, 50, 47
2, 12480, Note_on_c, 0, 72, 71
2, 12512, Note_off_c, 0, 72, 64
2, 12520, Note_on_c, 0, 71, 44
2, 12552, Note_off_c, 0, 71, 64
2, 12560, Note_on_c, 0, 69, 58
2, 12576, Note_off_c, 0, 50, 64
2, 12576, Note_off_c, 0, 54, 64
2, 12592, Note_off_c, 0, 69, 64
2, 12600, Note_on_c, 0, 50, 40
2, 12600, Note_on_c, 0, 67, 58
2, 12600, Note_on_c, 0, 54, 36
2, 12632, Note_off_c, 0, 67, 64
2, 12640, Note_on_c, 0, 66, 50
2, 12672, Note_off_c, 0, 66, 64
2, 12680, Note_on_c, 0, 64, 66
2, 12696, Note_off_c, 0, 54, 64
2, 12696, Note_off_c, 0, 50, 64
2, 12712, Note_off_c, 0, 64, 64
2, 12720, Note_on_c, 0, 50, 42
2, 12720, Note_on_c, 0, 62, 58
2, 12720, Note_on_c, 0, 54, 29
2, 12752, Note_off_c, 0, 62, 64
2, 12760, Note_on_c, 0, 69, 58
2, 12792, Note_off_c, 0, 69, 64
2, 12800, Note_on_c, 0, 71, 43
2, 12816, Note_off_c, 0, 54, 64
2, 12816, Note_off_c, 0, 50, 64
2, 12832, Note_off_c, 0, 71, 64
2, 12840, Note_on_c, 0, 72, 47
2, 12840, Note_on_c, 0, 50, 1
2, 12840, Note_on_c, 0, 54, 15
2, 12872, Note_off_c, 0, 72, 64
2, 12880, Note_on_c, 0, 71, 43
2, 12912, Note_off_c, 0, 71, 64
2, 12920, Note_on_c, 0, 69, 50
2, 12936, Note_off_c, 0, 54, 64
2, 12936, Note_off_c, 0, 50, 64
2, 12952, Note_off_c, 0, 69, 64
2, 12960, Note_on_c, 0, 55, 45
2, 12960, Note_on_c, 0, 71, 52
2, 12992, Note_off_c, 0, 71, 64
2, 13000, Note_on_c, 0, 69, 47
2, 13032, Note_off_c, 0, 69, 64
2, 13040, Note_on_c, 0, 67, 43
2, 13072, Note_off_c, 0, 67, 64
2, 13080, Note_on_c, 0, 74, 77
2, 13112, Note_off_c, 0, 74, 64
2, 13120, Note_on_c, 0, 72, 58
2, 13152, Note_off_c, 0, 72, 64
2, 13152, Note_off_c, 0, 55, 64
2, 13160, Note_on_c, 0, 71, 47
2, 13192, Note_off_c, 0, 71, 64
2, 13200, Note_on_c, 0, 79, 61
2, 13296, Note_off_c, 0, 79, 64
2, 13320, Note_on_c, 0, 74, 45
2, 13416, Note_off_c, 0, 74, 64
2, 13440, Note_on_c, 0, 72, 55
2, 13440, Note_on_c, 0, 50, 66
2, 13440, Note_on_c, 0, 54, 42
2, 13472, Note_off_c, 0, 72, 64
2, 13480, Note_on_c, 0, 71, 42
2, 13512, Note_off_c, 0, 71, 64
2, 13520, Note_on_c, 0, 69, 43
2, 13536, Note_off_c, 0, 54, 64
2, 13536, Note_off_c, 0, 50, 64
2, 13552, Note_off_c, 0, 69, 64
2, 13560, Note_on_c, 0, 54, 1
2, 13560, Note_on_c, 0, 50, 42
2, 13560, Note_on_c, 0, 67, 47
2, 13592, Note_off_c, 0, 67, 64
2, 13600, Note_on_c, 0, 66, 61
2, 13632, Note_off_c, 0, 66, 64
2, 13640, Note_on_c, 0, 64, 58
2, 13656, Note_off_c, 0, 50, 64
2, 13656, Note_off_c, 0, 54, 64
2, 13672, Note_off_c, 0, 64, 64
2, 13680, Note_on_c, 0, 62, 54
2, 13680, Note_on_c, 0, 54, 1
2, 13680, Note_on_c, 0, 50, 42
2, 13712, Note_off_c, 0, 62, 64
2, 13720, Note_on_c, 0, 69, 69
2, 13752, Note_off_c, 0, 69, 64
2, 13760, Note_on_c, 0, 71, 69
2, 13776, Note_off_c, 0, 50, 64
2, 13776, Note_off_c, 0, 54, 64
2, 13792, Note_off_c, 0, 71, 64
2, 13800, Note_on_c, 0, 54, 31
2, 13800, Note_on_c, 0, 50, 42
2, 13800, Note_on_c, 0, 72, 42
2, 13832, Note_off_c, 0, 72, 64
2, 13840, Note_on_c, 0, 71, 42
2, 13872, Note_off_c, 0, 71, 64
2, 13880, Note_on_c, 0, 69, 43
2, 13896, Note_off_c, 0, 50, 64
2, 13896, Note_off_c, 0, 54, 64
2, 13912, Note_off_c, 0, 69, 64
2, 13920, Note_on_c, 0, 71, 52
2, 13920, Note_on_c, 0, 55, 43
2, 13952, Note_off_c, 0, 71, 64
2, 13960, Note_on_c, 0, 69, 52
2, 13992, Note_off_c, 0, 69, 64
2, 14000, Note_on_c, 0, 67, 45
2, 14032, Note_off_c, 0, 67, 64
2, 14040, Note_on_c, 0, 74, 58
2, 14072, Note_off_c, 0, 74, 64
2, 14080, Note_on_c, 0, 72, 61
2, 14112, Note_off_c, 0, 72, 64
2, 14112, Note_off_c, 0, 55, 64
2, 14120, Note_on_c, 0, 71, 45
2, 14152, Note_off_c, 0, 71, 64
2, 14160, Note_on_c, 0, 79, 47
2, 14256, Note_off_c, 0, 79, 64
2, 14280, Note_on_c, 0, 59, 42
2, 14280, Note_on_c, 0, 74, 50
2, 14376, Note_off_c, 0, 74, 64
2, 14376, Note_off_c, 0, 59, 64
2, 14400, Note_on_c, 0, 60, 61
2, 14400, Note_on_c, 0, 76, 45
2, 14432, Note_off_c, 0, 76, 64
2, 14440, Note_on_c, 0, 78, 66
2, 14472, Note_off_c, 0, 78, 64
2, 14480, Note_on_c, 0, 79, 42
2, 14496, Note_off_c, 0, 60, 64
2, 14512, Note_off_c, 0, 79, 64
2, 14520, Note_on_c, 0, 81, 43
2, 14520, Note_on_c, 0, 57, 42
2, 14552, Note_off_c, 0, 81, 64
2, 14560, Note_on_c, 0, 83, 50
2, 14592, Note_off_c, 0, 83, 64
2, 14600, Note_on_c, 0, 84, 42
2, 14616, Note_off_c, 0, 57, 64
2, 14632, Note_off_c, 0, 84, 64
2, 14640, Note_on_c, 0, 59, 42
2, 14640, Note_on_c, 0, 74, 50
2, 14672, Note_off_c, 0, 74, 64
2, 14680, Note_on_c, 0, 76, 52
2, 14712, Note_off_c, 0, 76, 64
2, 14720, Note_on_c, 0, 78, 61
2, 14736, Note_off_c, 0, 59, 64
2, 14752, Note_off_c, 0, 78, 64
2, 14760, Note_on_c, 0, 79, 50
2, 14760, Note_on_c, 0, 55, 1
2, 14792, Note_off_c, 0, 79, 64
2, 14800, Note_on_c, 0, 81, 42
2, 14832, Note_off_c, 0, 81, 64
2, 14840, Note_on_c, 0, 83, 50
2, 14856, Note_off_c, 0, 55, 64
2, 14872, Note_off_c, 0, 83, 64
2, 14880, Note_on_c, 0, 57, 44
2, 14880, Note_on_c, 0, 72, 43
2, 14912, Note_off_c, 0, 72, 64
2, 14920, Note_on_c, 0, 71, 52
2, 14952, Note_off_c, 0, 71, 64
2, 14960, Note_on_c, 0, 72, 44
2, 14976, Note_off_c, 0, 57, 64
2, 14992, Note_off_c, 0, 72, 64
2, 15000, Note_on_c, 0, 81, 54
2, 15000, Note_on_c, 0, 50, 38
2, 15032, Note_off_c, 0, 81, 64
2, 15040, Note_on_c, 0, 78, 52
2, 15072, Note_off_c, 0, 78, 64
2, 15080, Note_on_c, 0, 72, 46
2, 15096, Note_off_c, 0, 50, 64
2, 15112, Note_off_c, 0, 72, 64
2, 15120, Note_on_c, 0, 55, 42
2, 15120, Note_on_c, 0, 71, 42
2, 15152, Note_off_c, 0, 71, 64
2, 15160, Note_on_c, 0, 79, 42
2, 15192, Note_off_c, 0, 79, 64
2, 15200, Note_on_c, 0, 79, 54
2, 15216, Note_off_c, 0, 55, 64
2, 15232, Note_off_c, 0, 79, 64
2, 15240, Note_on_c, 0, 59, 42
2, 15240, Note_on_c, 0, 79, 42
2, 15272, Note_off_c, 0, 79, 64
2, 15280, Note_on_c, 0, 74, 42
2, 15312, Note_off_c, 0, 74, 64
2, 15320, Note_on_c, 0, 71, 42
2, 15336, Note_off_c, 0, 59, 64
2, 15352, Note_off_c, 0, 71, 64
2, 15360, Note_on_c, 0, 76, 54
2, 15360, Note_on_c, 0, 60, 58
2, 15392, Note_off_c, 0, 76, 64
2, 15400, Note_on_c, 0, 74, 50
2, 15432, Note_off_c, 0, 74, 64
2, 15440, Note_on_c, 0, 72, 52
2, 15456, Note_off_c, 0, 60, 64
2, 15472, Note_off_c, 0, 72, 64
2, 15480, Note_on_c, 0, 64, 66
2, 15480, Note_on_c, 0, 71, 50
2, 15512, Note_off_c, 0, 71, 64
2, 15520, Note_on_c, 0, 69, 54
2, 15552, Note_off_c, 0, 69, 64
2, 15560, Note_on_c, 0, 67, 42
2, 15576, Note_off_c, 0, 64, 64
2, 15592, Note_off_c, 0, 67, 64
2, 15600, Note_on_c, 0, 62, 42
2, 15600, Note_on_c, 0, 71, 47
2, 15606, Note_off_c, 0, 71, 64
2, 15607, Note_on_c, 0, 69, 36
2, 15613, Note_off_c, 0, 69, 64
2, 15614, Note_on_c, 0, 71, 42
2, 15620, Note_off_c, 0, 71, 64
2, 15621, Note_on_c, 0, 69, 42
2, 15627, Note_off_c, 0, 69, 64
2, 15628, Note_on_c, 0, 71, 44
2, 15634, Note_off_c, 0, 71, 64
2, 15635, Note_on_c, 0, 69, 42
2, 15641, Note_off_c, 0, 69, 64
2, 15642, Note_on_c, 0, 71, 44
2, 15648, Note_off_c, 0, 71, 64
2, 15649, Note_on_c, 0, 69, 42
2, 15655, Note_off_c, 0, 69, 64
2, 15656, Note_on_c, 0, 71, 52
2, 15662, Note_off_c, 0, 71, 64
2, 15663, Note_on_c, 0, 69, 45
2, 15669, Note_off_c, 0, 69, 64
2, 15670, Note_on_c, 0, 71, 50
2, 15676, Note_off_c, 0, 71, 64
2, 15677, Note_on_c, 0, 69, 42
2, 15683, Note_off_c, 0, 69, 64
2, 15684, Note_on_c, 0, 71, 50
2, 15690, Note_off_c, 0, 71, 64
2, 15691, Note_on_c, 0, 69, 44
2, 15696, Note_off_c, 0, 62, 64
2, 15697, Note_off_c, 0, 69, 64
2, 15698, Note_on_c, 0, 71, 45
2, 15704, Note_off_c, 0, 71, 64
2, 15705, Note_on_c, 0, 69, 44
2, 15711, Note_off_c, 0, 69, 64
2, 15712, Note_on_c, 0, 71, 52
2, 15718, Note_off_c, 0, 71, 64
2, 15719, Note_on_c, 0, 69, 43
2, 15720, Note_on_c, 0, 50, 58
2, 15725, Note_off_c, 0, 69, 64
2, 15726, Note_on_c, 0, 71, 44
2, 15732, Note_off_c, 0, 71, 64
2, 15733, Note_on_c, 0, 69, 42
2, 15739, Note_off_c, 0, 69, 64
2, 15740, Note_on_c, 0, 71, 42
2, 15746, Note_off_c, 0, 71, 64
2, 15747, Note_on_c, 0, 69, 42
2, 15753, Note_off_c, 0, 69, 64
2, 15754, Note_on_c, 0, 71, 42
2, 15760, Note_off_c, 0, 71, 64
2, 15761, Note_on_c, 0, 69, 44
2, 15767, Note_off_c, 0, 69, 64
2, 15768, Note_on_c, 0, 71, 50
2, 15774, Note_off_c, 0, 71, 64
2, 15775, Note_on_c, 0, 69, 42
2, 15781, Note_off_c, 0, 69, 64
2, 15782, Note_on_c, 0, 71, 43
2, 15788, Note_off_c, 0, 71, 64
2, 15789, Note_on_c, 0, 69, 42
2, 15795, Note_off_c, 0, 69, 64
2, 15796, Note_on_c, 0, 71, 42
2, 15802, Note_off_c, 0, 71, 64
2, 15803, Note_on_c, 0, 69, 44
2, 15809, Note_off_c, 0, 69, 64
2, 15810, Note_on_c, 0, 71, 52
2, 15816, Note_off_c, 0, 71, 64
2, 15816, Note_off_c, 0, 50, 64
2, 15817, Note_on_c, 0, 69, 43
2, 15823, Note_off_c, 0, 69, 64
2, 15824, Note_on_c, 0, 67, 43
2, 15830, Note_off_c, 0, 67, 64
2, 15831, Note_on_c, 0, 69, 36
2, 15837, Note_off_c, 0, 69, 64
2, 15838, Note_on_c, 0, 67, 52
2, 15840, Note_on_c, 0, 55, 50
2, 15936, Note_off_c, 0, 55, 64
2, 15960, Note_on_c, 0, 50, 61
2, 16030, Note_off_c, 0, 67, 64
2, 16056, Note_off_c, 0, 50, 64
2, 16080, Note_on_c, 0, 43, 50
2, 16176, Note_off_c, 0, 43, 64
2, 16198, Note_on_c, 0, 62, 43
2, 16294, Note_off_c, 0, 62, 64
2, 16320, Note_on_c, 0, 55, 45
2, 16320, Note_on_c, 0, 59, 45
2, 16320, Note_on_c, 0, 67, 58
2, 16352, Note_off_c, 0, 67, 64
2, 16360, Note_on_c, 0, 71, 71
2, 16392, Note_off_c, 0, 71, 64
2, 16400, Note_on_c, 0, 69, 54
2, 16416, Note_off_c, 0, 59, 64
2, 16416, Note_off_c, 0, 55, 64
2, 16432, Note_off_c, 0, 69, 64
2, 16440, Note_on_c, 0, 55, 42
2, 16440, Note_on_c, 0, 67, 44
2, 16440, Note_on_c, 0, 59, 32
2, 16536, Note_off_c, 0, 59, 64
2, 16536, Note_off_c, 0, 55, 64
2, 16552, Note_off_c, 0, 67, 64
2, 16560, Note_on_c, 0, 59, 43
2, 16560, Note_on_c, 0, 55, 42
2, 16560, Note_on_c, 0, 71, 54
2, 16592, Note_off_c, 0, 71, 64
2, 16600, Note_on_c, 0, 74, 58
2, 16632, Note_off_c, 0, 74, 64
2, 16640, Note_on_c, 0, 72, 66
2, 16656, Note_off_c, 0, 55, 64
2, 16656, Note_off_c, 0, 59, 64
2, 16672, Note_off_c, 0, 72, 64
2, 16680, Note_on_c, 0, 71, 58
2, 16680, Note_on_c, 0, 55, 42
2, 16680, Note_on_c, 0, 59, 42
2, 16712, Note_off_c, 0, 71, 64
2, 16720, Note_on_c, 0, 67, 61
2, 16752, Note_off_c, 0, 67, 64
2, 16760, Note_on_c, 0, 74, 45
2, 16776, Note_off_c, 0, 59, 64
2, 16776, Note_off_c, 0, 55, 64
2, 16792, Note_off_c, 0, 74, 64
2, 16800, Note_on_c, 0, 55, 50
2, 16800, Note_on_c, 0, 76, 57
2, 16800, Note_on_c, 0, 60, 42
2, 16832, Note_off_c, 0, 76, 64
2, 16840, Note_on_c, 0, 79, 44
2, 16872, Note_off_c, 0, 79, 64
2, 16880, Note_on_c, 0, 76, 66
2, 16896, Note_off_c, 0, 60, 64
2, 16896, Note_off_c, 0, 55, 64
2, 16912, Note_off_c, 0, 76, 64
2, 16920, Note_on_c, 0, 59, 42
2, 16920, Note_on_c, 0, 55, 42
2, 16920, Note_on_c, 0, 74, 50
2, 17016, Note_off_c, 0, 55, 64
2, 17016, Note_off_c, 0, 59, 64
2, 17032, Note_off_c, 0, 74, 64
2, 17040, Note_on_c, 0, 59, 42
2, 17040, Note_on_c, 0, 55, 42
2, 17040, Note_on_c, 0, 71, 43
2, 17072, Note_off_c, 0, 71, 64
2, 17080, Note_on_c, 0, 74, 58
2, 17112, Note_off_c, 0, 74, 64
2, 17120, Note_on_c, 0, 72, 52
2, 17136, Note_off_c, 0, 55, 64
2, 17136, Note_off_c, 0, 59, 64
2, 17152, Note_off_c, 0, 72, 64
2, 17160, Note_on_c, 0, 55, 47
2, 17160, Note_on_c, 0, 59, 50
2, 17160, Note_on_c, 0, 71, 71
2, 17192, Note_off_c, 0, 71, 64
2, 17200, Note_on_c, 0, 67, 61
2, 17232, Note_off_c, 0, 67, 64
2, 17240, Note_on_c, 0, 74, 77
2, 17256, Note_off_c, 0, 59, 64
2, 17256, Note_off_c, 0, 55, 64
2, 17272, Note_off_c, 0, 74, 64
2, 17280, Note_on_c, 0, 76, 66
2, 17280, Note_on_c, 0, 60, 47
2, 17312, Note_off_c, 0, 76, 64
2, 17320, Note_on_c, 0, 78, 54
2, 17352, Note_off_c, 0, 78, 64
2, 17360, Note_on_c, 0, 79, 61
2, 17376, Note_off_c, 0, 60, 64
2, 17392, Note_off_c, 0, 79, 64
2, 17400, Note_on_c, 0, 59, 42
2, 17400, Note_on_c, 0, 74, 54
2, 17432, Note_off_c, 0, 74, 64
2, 17440, Note_on_c, 0, 78, 47
2, 17472, Note_off_c, 0, 78, 64
2, 17480, Note_on_c, 0, 79, 54
2, 17496, Note_off_c, 0, 59, 64
2, 17512, Note_off_c, 0, 79, 64
2, 17520, Note_on_c, 0, 57, 50
2, 17520, Note_on_c, 0, 74, 47
2, 17526, Note_off_c, 0, 74, 64
2, 17527, Note_on_c, 0, 72, 36
2, 17533, Note_off_c, 0, 72, 64
2, 17534, Note_on_c, 0, 74, 42
2, 17540, Note_off_c, 0, 74, 64
2, 17541, Note_on_c, 0, 72, 42
2, 17547, Note_off_c, 0, 72, 64
2, 17548, Note_on_c, 0, 74, 44
2, 17554, Note_off_c, 0, 74, 64
2, 17555, Note_on_c, 0, 72, 42
2, 17561, Note_off_c, 0, 72, 64
2, 17562, Note_on_c, 0, 74, 44
2, 17568, Note_off_c, 0, 74, 64
2, 17569, Note_on_c, 0, 72, 42
2, 17575, Note_off_c, 0, 72, 64
2, 17576, Note_on_c, 0, 74, 52
2, 17582, Note_off_c, 0, 74, 64
2, 17583, Note_on_c, 0, 72, 45
2, 17589, Note_off_c, 0, 72, 64
2, 17590, Note_on_c, 0, 74, 50
2, 17596, Note_off_c, 0, 74, 64
2, 17597, Note_on_c, 0, 72, 42
2, 17603, Note_off_c, 0, 72, 64
2, 17604, Note_on_c, 0, 74, 50
2, 17610, Note_off_c, 0, 74, 64
2, 17611, Note_on_c, 0, 72, 44
2, 17616, Note_off_c, 0, 57, 64
2, 17617, Note_off_c, 0, 72, 64
2, 17618, Note_on_c, 0, 74, 45
2, 17624, Note_off_c, 0, 74, 64
2, 17625, Note_on_c, 0, 72, 44
2, 17631, Note_off_c, 0, 72, 64
2, 17632, Note_on_c, 0, 74, 52
2, 17638, Note_off_c, 0, 74, 64
2, 17639, Note_on_c, 0, 72, 43
2, 17640, Note_on_c, 0, 50, 42
2, 17645, Note_off_c, 0, 72, 64
2, 17646, Note_on_c, 0, 74, 44
2, 17652, Note_off_c, 0, 74, 64
2, 17653, Note_on_c, 0, 72, 42
2, 17659, Note_off_c, 0, 72, 64
2, 17660, Note_on_c, 0, 74, 42
2, 17666, Note_off_c, 0, 74, 64
2, 17667, Note_on_c, 0, 72, 42
2, 17673, Note_off_c, 0, 72, 64
2, 17674, Note_on_c, 0, 74, 42
2, 17680, Note_off_c, 0, 74, 64
2, 17681, Note_on_c, 0, 72, 44
2, 17687, Note_off_c, 0, 72, 64
2, 17688, Note_on_c, 0, 74, 50
2, 17694, Note_off_c, 0, 74, 64
2, 17695, Note_on_c, 0, 72, 42
2, 17701, Note_off_c, 0, 72, 64
2, 17702, Note_on_c, 0, 74, 43
2, 17708, Note_off_c, 0, 74, 64
2, 17709, Note_on_c, 0, 72, 42
2, 17715, Note_off_c, 0, 72, 64
2, 17716, Note_on_c, 0, 74, 42
2, 17722, Note_off_c, 0, 74, 64
2, 17723, Note_on_c, 0, 72, 44
2, 17729, Note_off_c, 0, 72, 64
2, 17730, Note_on_c, 0, 74, 52
2, 17736, Note_off_c, 0, 74, 64
2, 17736, Note_off_c, 0, 50, 64
2, 17737, Note_on_c, 0, 72, 43
2, 17743, Note_off_c, 0, 72, 64
2, 17744, Note_on_c, 0, 71, 43
2, 17750, Note_off_c, 0, 71, 64
2, 17751, Note_on_c, 0, 72, 36
2, 17757, Note_off_c, 0, 72, 64
2, 17758, Note_on_c, 0, 71, 52
2, 17760, Note_on_c, 0, 55, 36
2, 17856, Note_off_c, 0, 55, 64
2, 17880, Note_on_c, 0, 50, 38
2, 17950, Note_off_c, 0, 71, 64
2, 17976, Note_off_c, 0, 50, 64
2, 18000, Note_on_c, 0, 43, 29
2, 18096, Note_off_c, 0, 43, 64
2, 18118, Note_on_c, 0, 67, 45
2, 18214, Note_off_c, 0, 67, 64
2, 18240, Note_on_c, 0, 64, 44
2, 18240, Note_on_c, 0, 60, 61
2, 18240, Note_on_c, 0, 72, 42
2, 18272, Note_off_c, 0, 72, 64
2, 18280, Note_on_c, 0, 76, 66
2, 18312, Note_off_c, 0, 76, 64
2, 18320, Note_on_c, 0, 74, 50
2, 18336, Note_off_c, 0, 60, 64
2, 18336, Note_off_c, 0, 64, 64
2, 18352, Note_off_c, 0, 74, 64
2, 18360, Note_on_c, 0, 60, 40
2, 18360, Note_on_c, 0, 72, 47
2, 18360, Note_on_c, 0, 64, 42
2, 18392, Note_off_c, 0, 72, 64
2, 18400, Note_on_c, 0, 72, 44
2, 18432, Note_off_c, 0, 72, 64
2, 18440, Note_on_c, 0, 72, 42
2, 18456, Note_off_c, 0, 64, 64
2, 18456, Note_off_c, 0, 60, 64
2, 18472, Note_off_c, 0, 72, 64
2, 18480, Note_on_c, 0, 64, 42
2, 18480, Note_on_c, 0, 60, 44
2, 18480, Note_on_c, 0, 72, 42
2, 18512, Note_off_c, 0, 72, 64
2, 18520, Note_on_c, 0, 76, 52
2, 18552, Note_off_c, 0, 76, 64
2, 18560, Note_on_c, 0, 77, 47
2, 18576, Note_off_c, 0, 60, 64
2, 18576, Note_off_c, 0, 64, 64
2, 18592, Note_off_c, 0, 77, 64
2, 18600, Note_on_c, 0, 60, 45
2, 18600, Note_on_c, 0, 64, 50
2, 18600, Note_on_c, 0, 79, 43
2, 18632, Note_off_c, 0, 79, 64
2, 18640, Note_on_c, 0, 77, 42
2, 18672, Note_off_c, 0, 77, 64
2, 18680, Note_on_c, 0, 76, 57
2, 18696, Note_off_c, 0, 64, 64
2, 18696, Note_off_c, 0, 60, 64
2, 18712, Note_off_c, 0, 76, 64
2, 18720, Note_on_c, 0, 84, 50
2, 18720, Note_on_c, 0, 58, 42
2, 18720, Note_on_c, 0, 67, 42
2, 18752, Note_off_c, 0, 84, 64
2, 18760, Note_on_c, 0, 79, 42
2, 18792, Note_off_c, 0, 79, 64
2, 18800, Note_on_c, 0, 76, 42
2, 18816, Note_off_c, 0, 67, 64
2, 18816, Note_off_c, 0, 58, 64
2, 18832, Note_off_c, 0, 76, 64
2, 18840, Note_on_c, 0, 58, 42
2, 18840, Note_on_c, 0, 67, 42
2, 18840, Note_on_c, 0, 84, 50
2, 18872, Note_off_c, 0, 84, 64
2, 18880, Note_on_c, 0, 79, 43
2, 18912, Note_off_c, 0, 79, 64
2, 18920, Note_on_c, 0, 76, 54
2, 18936, Note_off_c, 0, 67, 64
2, 18936, Note_off_c, 0, 58, 64
2, 18952, Note_off_c, 0, 76, 64
2, 18960, Note_on_c, 0, 58, 42
2, 18960, Note_on_c, 0, 67, 39
2, 18960, Note_on_c, 0, 84, 54
2, 18992, Note_off_c, 0, 84, 64
2, 19000, Note_on_c, 0, 76, 45
2, 19032, Note_off_c, 0, 76, 64
2, 19040, Note_on_c, 0, 77, 43
2, 19056, Note_off_c, 0, 67, 64
2, 19056, Note_off_c, 0, 58, 64
2, 19072, Note_off_c, 0, 77, 64
2, 19080, Note_on_c, 0, 58, 1
2, 19080, Note_on_c, 0, 67, 1
2, 19080, Note_on_c, 0, 79, 47
2, 19112, Note_off_c, 0, 79, 64
2, 19120, Note_on_c, 0, 77, 42
2, 19152, Note_off_c, 0, 77, 64
2, 19160, Note_on_c, 0, 76, 45
2, 19176, Note_off_c, 0, 67, 64
2, 19176, Note_off_c, 0, 58, 64
2, 19192, Note_off_c, 0, 76, 64
2, 19200, Note_on_c, 0, 65, 1
2, 19200, Note_on_c, 0, 84, 52
2, 19200, Note_on_c, 0, 57, 45
2, 19232, Note_off_c, 0, 84, 64
2, 19240, Note_on_c, 0, 81, 45
2, 19272, Note_off_c, 0, 81, 64
2, 19280, Note_on_c, 0, 77, 47
2, 19296, Note_off_c, 0, 57, 64
2, 19296, Note_off_c, 0, 65, 64
2, 19312, Note_off_c, 0, 77, 64
2, 19320, Note_on_c, 0, 65, 42
2, 19320, Note_on_c, 0, 57, 42
2, 19320, Note_on_c, 0, 84, 61
2, 19352, Note_off_c, 0, 84, 64
2, 19360, Note_on_c, 0, 81, 58
2, 19392, Note_off_c, 0, 81, 64
2, 19400, Note_on_c, 0, 77, 45
2, 19416, Note_off_c, 0, 57, 64
2, 19416, Note_off_c, 0, 65, 64
2, 19432, Note_off_c, 0, 77, 64
2, 19440, Note_on_c, 0, 65, 30
2, 19440, Note_on_c, 0, 84, 54
2, 19440, Note_on_c, 0, 57, 42
2, 19472, Note_off_c, 0, 84, 64
2, 19480, Note_on_c, 0, 77, 61
2, 19512, Note_off_c, 0, 77, 64
2, 19520, Note_on_c, 0, 79, 45
2, 19536, Note_off_c, 0, 57, 64
2, 19536, Note_off_c, 0, 65, 64
2, 19552, Note_off_c, 0, 79, 64
2, 19560, Note_on_c, 0, 65, 42
2, 19560, Note_on_c, 0, 81, 52
2, 19560, Note_on_c, 0, 57, 42
2, 19592, Note_off_c, 0, 81, 64
2, 19600, Note_on_c, 0, 79, 47
2, 19632, Note_off_c, 0, 79, 64
2, 19640, Note_on_c, 0, 77, 45
2, 19656, Note_off_c, 0, 57, 64
2, 19656, Note_off_c, 0, 65, 64
2, 19672, Note_off_c, 0, 77, 64
2, 19680, Note_on_c, 0, 60, 42
2, 19680, Note_on_c, 0, 52, 42
2, 19680, Note_on_c, 0, 84, 45
2, 19712, Note_off_c, 0, 84, 64
2, 19720, Note_on_c, 0, 82, 40
2, 19752, Note_off_c, 0, 82, 64
2, 19760, Note_on_c, 0, 79, 42
2, 19776, Note_off_c, 0, 52, 64
2, 19776, Note_off_c, 0, 60, 64
2, 19792, Note_off_c, 0, 79, 64
2, 19800, Note_on_c, 0, 60, 42
2, 19800, Note_on_c, 0, 52, 42
2, 19800, Note_on_c, 0, 84, 42
2, 19832, Note_off_c, 0, 84, 64
2, 19840, Note_on_c, 0, 82, 42
2, 19872, Note_off_c, 0, 82, 64
2, 19880, Note_on_c, 0, 79, 46
2, 19896, Note_off_c, 0, 52, 64
2, 19896, Note_off_c, 0, 60, 64
2, 19912, Note_off_c, 0, 79, 64
2, 19920, Note_on_c, 0, 84, 43
2, 19920, Note_on_c, 0, 60, 42
2, 19920, Note_on_c, 0, 52, 42
2, 19952, Note_off_c, 0, 84, 64
2, 19960, Note_on_c, 0, 79, 45
2, 19992, Note_off_c, 0, 79, 64
2, 20000, Note_on_c, 0, 81, 42
2, 20016, Note_off_c, 0, 52, 64
2, 20016, Note_off_c, 0, 60, 64
2, 20032, Note_off_c, 0, 81, 64
2, 20040, Note_on_c, 0, 82, 42
2, 20040, Note_on_c, 0, 60, 29
2, 20040, Note_on_c, 0, 52, 42
2, 20072, Note_off_c, 0, 82, 64
2, 20080, Note_on_c, 0, 81, 42
2, 20112, Note_off_c, 0, 81, 64
2, 20120, Note_on_c, 0, 79, 43
2, 20136, Note_off_c, 0, 52, 64
2, 20136, Note_off_c, 0, 60, 64
2, 20152, Note_off_c, 0, 79, 64
2, 20160, Note_on_c, 0, 81, 58
2, 20160, Note_on_c, 0, 60, 1
2, 20160, Note_on_c, 0, 53, 42
2, 20192, Note_off_c, 0, 81, 64
2, 20200, Note_on_c, 0, 81, 42
2, 20232, Note_off_c, 0, 81, 64
2, 20240, Note_on_c, 0, 81, 44
2, 20256, Note_off_c, 0, 53, 64
2, 20256, Note_off_c, 0, 60, 64
2, 20272, Note_off_c, 0, 81, 64
2, 20280, Note_on_c, 0, 60, 23
2, 20280, Note_on_c, 0, 81, 58
2, 20280, Note_on_c, 0, 53, 42
2, 20312, Note_off_c, 0, 81, 64
2, 20320, Note_on_c, 0, 81, 50
2, 20352, Note_off_c, 0, 81, 64
2, 20360, Note_on_c, 0, 81, 47
2, 20376, Note_off_c, 0, 53, 64
2, 20376, Note_off_c, 0, 60, 64
2, 20392, Note_off_c, 0, 81, 64
2, 20400, Note_on_c, 0, 81, 45
2, 20400, Note_on_c, 0, 53, 29
2, 20400, Note_on_c, 0, 60, 42
2, 20432, Note_off_c, 0, 81, 64
2, 20440, Note_on_c, 0, 79, 50
2, 20472, Note_off_c, 0, 79, 64
2, 20480, Note_on_c, 0, 77, 50
2, 20496, Note_off_c, 0, 60, 64
2, 20496, Note_off_c, 0, 53, 64
2, 20512, Note_off_c, 0, 77, 64
2, 20520, Note_on_c, 0, 62, 42
2, 20520, Note_on_c, 0, 76, 58
2, 20520, Note_on_c, 0, 54, 42
2, 20552, Note_off_c, 0, 76, 64
2, 20560, Note_on_c, 0, 74, 58
2, 20592, Note_off_c, 0, 74, 64
2, 20600, Note_on_c, 0, 72, 44
2, 20616, Note_off_c, 0, 54, 64
2, 20616, Note_off_c, 0, 62, 64
2, 20632, Note_off_c, 0, 72, 64
2, 20640, Note_on_c, 0, 55, 43
2, 20640, Note_on_c, 0, 62, 42
2, 20640, Note_on_c, 0, 74, 66
2, 20646, Note_off_c, 0, 74, 64
2, 20647, Note_on_c, 0, 72, 42
2, 20653, Note_off_c, 0, 72, 64
2, 20654, Note_on_c, 0, 72, 45
2, 20660, Note_off_c, 0, 72, 64
2, 20661, Note_on_c, 0, 72, 40
2, 20667, Note_off_c, 0, 72, 64
2, 20668, Note_on_c, 0, 74, 50
2, 20674, Note_off_c, 0, 74, 64
2, 20675, Note_on_c, 0, 72, 54
2, 20681, Note_off_c, 0, 72, 64
2, 20682, Note_on_c, 0, 74, 47
2, 20688, Note_off_c, 0, 74, 64
2, 20689, Note_on_c, 0, 72, 47
2, 20695, Note_off_c, 0, 72, 64
2, 20696, Note_on_c, 0, 74, 52
2, 20702, Note_off_c, 0, 74, 64
2, 20703, Note_on_c, 0, 72, 44
2, 20709, Note_off_c, 0, 72, 64
2, 20710, Note_on_c, 0, 74, 61
2, 20716, Note_off_c, 0, 74, 64
2, 20717, Note_on_c, 0, 72, 45
2, 20723, Note_off_c, 0, 72, 64
2, 20724, Note_on_c, 0, 74, 45
2, 20730, Note_off_c, 0, 74, 64
2, 20731, Note_on_c, 0, 72, 42
2, 20736, Note_off_c, 0, 62, 64
2, 20736, Note_off_c, 0, 55, 64
2, 20737, Note_off_c, 0, 72, 64
2, 20738, Note_on_c, 0, 71, 58
2, 20744, Note_off_c, 0, 71, 64
2, 20745, Note_on_c, 0, 72, 43
2, 20751, Note_off_c, 0, 72, 64
2, 20752, Note_on_c, 0, 71, 80
2, 20760, Note_on_c, 0, 55, 42
2, 20760, Note_on_c, 0, 62, 40
2, 20848, Note_off_c, 0, 71, 64
2, 20856, Note_off_c, 0, 62, 64
2, 20856, Note_off_c, 0, 55, 64
2, 20880, Note_on_c, 0, 62, 41
2, 20880, Note_on_c, 0, 55, 42
2, 20992, Note_on_c, 0, 79, 42
2, 21072, Note_off_c, 0, 55, 64
2, 21072, Note_off_c, 0, 62, 64
2, 21088, Note_off_c, 0, 79, 64
2, 21120, Note_on_c, 0, 77, 55
2, 21120, Note_on_c, 0, 55, 66
2, 21120, Note_on_c, 0, 59, 42
2, 21152, Note_off_c, 0, 77, 64
2, 21160, Note_on_c, 0, 76, 42
2, 21192, Note_off_c, 0, 76, 64
2, 21200, Note_on_c, 0, 74, 43
2, 21216, Note_off_c, 0, 59, 64
2, 21216, Note_off_c, 0, 55, 64
2, 21232, Note_off_c, 0, 74, 64
2, 21240, Note_on_c, 0, 55, 42
2, 21240, Note_on_c, 0, 72, 47
2, 21240, Note_on_c, 0, 59, 1
2, 21272, Note_off_c, 0, 72, 64
2, 21280, Note_on_c, 0, 71, 61
2, 21312, Note_off_c, 0, 71, 64
2, 21320, Note_on_c, 0, 69, 58
2, 21336, Note_off_c, 0, 59, 64
2, 21336, Note_off_c, 0, 55, 64
2, 21352, Note_off_c, 0, 69, 64
2, 21360, Note_on_c, 0, 55, 42
2, 21360, Note_on_c, 0, 67, 54
2, 21360, Note_on_c, 0, 59, 1
2, 21392, Note_off_c, 0, 67, 64
2, 21400, Note_on_c, 0, 74, 69
2, 21432, Note_off_c, 0, 74, 64
2, 21440, Note_on_c, 0, 76, 69
2, 21456, Note_off_c, 0, 59, 64
2, 21456, Note_off_c, 0, 55, 64
2, 21472, Note_off_c, 0, 76, 64
2, 21480, Note_on_c, 0, 59, 31
2, 21480, Note_on_c, 0, 55, 42
2, 21480, Note_on_c, 0, 77, 42
2, 21512, Note_off_c, 0, 77, 64
2, 21520, Note_on_c, 0, 76, 42
2, 21552, Note_off_c, 0, 76, 64
2, 21560, Note_on_c, 0, 74, 43
2, 21576, Note_off_c, 0, 55, 64
2, 21576, Note_off_c, 0, 59, 64
2, 21592, Note_off_c, 0, 74, 64
2, 21600, Note_on_c, 0, 76, 52
2, 21600, Note_on_c, 0, 60, 43
2, 21632, Note_off_c, 0, 76, 64
2, 21640, Note_on_c, 0, 74, 52
2, 21672, Note_off_c, 0, 74, 64
2, 21680, Note_on_c, 0, 72, 45
2, 21712, Note_off_c, 0, 72, 64
2, 21720, Note_on_c, 0, 79, 58
2, 21752, Note_off_c, 0, 79, 64
2, 21760, Note_on_c, 0, 77, 61
2, 21792, Note_off_c, 0, 77, 64
2, 21792, Note_off_c, 0, 60, 64
2, 21800, Note_on_c, 0, 76, 45
2, 21832, Note_off_c, 0, 76, 64
2, 21840, Note_on_c, 0, 84, 47
2, 21936, Note_off_c, 0, 84, 64
2, 21960, Note_on_c, 0, 79, 50
2, 22056, Note_off_c, 0, 79, 64
2, 22080, Note_on_c, 0, 59, 42
2, 22080, Note_on_c, 0, 55, 66
2, 22080, Note_on_c, 0, 77, 55
2, 22112, Note_off_c, 0, 77, 64
2, 22120, Note_on_c, 0, 76, 42
2, 22152, Note_off_c, 0, 76, 64
2, 22160, Note_on_c, 0, 74, 43
2, 22176, Note_off_c, 0, 55, 64
2, 22176, Note_off_c, 0, 59, 64
2, 22192, Note_off_c, 0, 74, 64
2, 22200, Note_on_c, 0, 72, 47
2, 22200, Note_on_c, 0, 59, 1
2, 22200, Note_on_c, 0, 55, 42
2, 22232, Note_off_c, 0, 72, 64
2, 22240, Note_on_c, 0, 71, 61
2, 22272, Note_off_c, 0, 71, 64
2, 22280, Note_on_c, 0, 69, 58
2, 22296, Note_off_c, 0, 55, 64
2, 22296, Note_off_c, 0, 59, 64
2, 22312, Note_off_c, 0, 69, 64
2, 22320, Note_on_c, 0, 59, 1
2, 22320, Note_on_c, 0, 55, 42
2, 22320, Note_on_c, 0, 67, 54
2, 22352, Note_off_c, 0, 67, 64
2, 22360, Note_on_c, 0, 74, 69
2, 22392, Note_off_c, 0, 74, 64
2, 22400, Note_on_c, 0, 76, 69
2, 22416, Note_off_c, 0, 55, 64
2, 22416, Note_off_c, 0, 59, 64
2, 22432, Note_off_c, 0, 76, 64
2, 22440, Note_on_c, 0, 77, 42
2, 22440, Note_on_c, 0, 55, 42
2, 22440, Note_on_c, 0, 59, 31
2, 22472, Note_off_c, 0, 77, 64
2, 22480, Note_on_c, 0, 76, 42
2, 22512, Note_off_c, 0, 76, 64
2, 22520, Note_on_c, 0, 74, 43
2, 22536, Note_off_c, 0, 59, 64
2, 22536, Note_off_c, 0, 55, 64
2, 22552, Note_off_c, 0, 74, 64
2, 22560, Note_on_c, 0, 60, 43
2, 22560, Note_on_c, 0, 76, 52
2, 22592, Note_off_c, 0, 76, 64
2, 22600, Note_on_c, 0, 74, 52
2, 22632, Note_off_c, 0, 74, 64
2, 22640, Note_on_c, 0, 72, 45
2, 22672, Note_off_c, 0, 72, 64
2, 22680, Note_on_c, 0, 79, 58
2, 22712, Note_off_c, 0, 79, 64
2, 22720, Note_on_c, 0, 77, 61
2, 22752, Note_off_c, 0, 77, 64
2, 22752, Note_off_c, 0, 60, 64
2, 22760, Note_on_c, 0, 76, 45
2, 22792, Note_off_c, 0, 76, 64
2, 22800, Note_on_c, 0, 84, 47
2, 22896, Note_off_c, 0, 84, 64
2, 22920, Note_on_c, 0, 64, 42
2, 22920, Note_on_c, 0, 79, 50
2, 23016, Note_off_c, 0, 79, 64
2, 23016, Note_off_c, 0, 64, 64
2, 23040, Note_on_c, 0, 65, 31
2, 23040, Note_on_c, 0, 81, 42
2, 23072, Note_off_c, 0, 81, 64
2, 23080, Note_on_c, 0, 73, 47
2, 23112, Note_off_c, 0, 73, 64
2, 23120, Note_on_c, 0, 74, 54
2, 23136, Note_off_c, 0, 65, 64
2, 23152, Note_off_c, 0, 74, 64
2, 23160, Note_on_c, 0, 77, 43
2, 23160, Note_on_c, 0, 62, 47
2, 23192, Note_off_c, 0, 77, 64
2, 23200, Note_on_c, 0, 79, 42
2, 23232, Note_off_c, 0, 79, 64
2, 23240, Note_on_c, 0, 81, 43
2, 23256, Note_off_c, 0, 62, 64
2, 23272, Note_off_c, 0, 81, 64
2, 23280, Note_on_c, 0, 64, 47
2, 23280, Note_on_c, 0, 79, 52
2, 23312, Note_off_c, 0, 79, 64
2, 23320, Note_on_c, 0, 71, 54
2, 23352, Note_off_c, 0, 71, 64
2, 23360, Note_on_c, 0, 72, 58
2, 23376, Note_off_c, 0, 64, 64
2, 23392, Note_off_c, 0, 72, 64
2, 23400, Note_on_c, 0, 76, 45
2, 23400, Note_on_c, 0, 60, 42
2, 23432, Note_off_c, 0, 76, 64
2, 23440, Note_on_c, 0, 77, 52
2, 23472, Note_off_c, 0, 77, 64
2, 23480, Note_on_c, 0, 79, 44
2, 23496, Note_off_c, 0, 60, 64
2, 23512, Note_off_c, 0, 79, 64
2, 23520, Note_on_c, 0, 62, 38
2, 23520, Note_on_c, 0, 77, 52
2, 23552, Note_off_c, 0, 77, 64
2, 23560, Note_on_c, 0, 76, 61
2, 23592, Note_off_c, 0, 76, 64
2, 23600, Note_on_c, 0, 77, 47
2, 23616, Note_off_c, 0, 62, 64
2, 23632, Note_off_c, 0, 77, 64
2, 23640, Note_on_c, 0, 86, 42
2, 23640, Note_on_c, 0, 55, 40
2, 23672, Note_off_c, 0, 86, 64
2, 23680, Note_on_c, 0, 83, 47
2, 23712, Note_off_c, 0, 83, 64
2, 23720, Note_on_c, 0, 77, 43
2, 23736, Note_off_c, 0, 55, 64
2, 23752, Note_off_c, 0, 77, 64
2, 23760, Note_on_c, 0, 60, 42
2, 23760, Note_on_c, 0, 76, 58
2, 23792, Note_off_c, 0, 76, 64
2, 23800, Note_on_c, 0, 84, 42
2, 23832, Note_off_c, 0, 84, 64
2, 23840, Note_on_c, 0, 84, 52
2, 23856, Note_off_c, 0, 60, 64
2, 23872, Note_off_c, 0, 84, 64
2, 23880, Note_on_c, 0, 64, 42
2, 23880, Note_on_c, 0, 84, 58
2, 23912, Note_off_c, 0, 84, 64
2, 23920, Note_on_c, 0, 79, 50
2, 23952, Note_off_c, 0, 79, 64
2, 23960, Note_on_c, 0, 76, 58
2, 23976, Note_off_c, 0, 64, 64
2, 23992, Note_off_c, 0, 76, 64
2, 24000, Note_on_c, 0, 65, 45
2, 24000, Note_on_c, 0, 81, 54
2, 24032, Note_off_c, 0, 81, 64
2, 24040, Note_on_c, 0, 79, 43
2, 24072, Note_off_c, 0, 79, 64
2, 24080, Note_on_c, 0, 77, 54
2, 24096, Note_off_c, 0, 65, 64
2, 24112, Note_off_c, 0, 77, 64
2, 24120, Note_on_c, 0, 76, 50
2, 24120, Note_on_c, 0, 69, 42
2, 24152, Note_off_c, 0, 76, 64
2, 24160, Note_on_c, 0, 74, 47
2, 24192, Note_off_c, 0, 74, 64
2, 24200, Note_on_c, 0, 72, 42
2, 24216, Note_off_c, 0, 69, 64
2, 24232, Note_off_c, 0, 72, 64
2, 24240, Note_on_c, 0, 76, 47
2, 24240, Note_on_c, 0, 67, 46
2, 24246, Note_off_c, 0, 76, 64
2, 24247, Note_on_c, 0, 74, 36
2, 24253, Note_off_c, 0, 74, 64
2, 24254, Note_on_c, 0, 76, 42
2, 24260, Note_off_c, 0, 76, 64
2, 24261, Note_on_c, 0, 74, 42
2, 24267, Note_off_c, 0, 74, 64
2, 24268, Note_on_c, 0, 76, 44
2, 24274, Note_off_c, 0, 76, 64
2, 24275, Note_on_c, 0, 74, 42
2, 24281, Note_off_c, 0, 74, 64
2, 24282, Note_on_c, 0, 76, 44
2, 24288, Note_off_c, 0, 76, 64
2, 24289, Note_on_c, 0, 74, 42
2, 24295, Note_off_c, 0, 74, 64
2, 24296, Note_on_c, 0, 76, 52
2, 24302, Note_off_c, 0, 76, 64
2, 24303, Note_on_c, 0, 74, 45
2, 24309, Note_off_c, 0, 74, 64
2, 24310, Note_on_c, 0, 76, 50
2, 24316, Note_off_c, 0, 76, 64
2, 24317, Note_on_c, 0, 74, 42
2, 24323, Note_off_c, 0, 74, 64
2, 24324, Note_on_c, 0, 76, 50
2, 24330, Note_off_c, 0, 76, 64
2, 24331, Note_on_c, 0, 74, 44
2, 24336, Note_off_c, 0, 67, 64
2, 24337, Note_off_c, 0, 74, 64
2, 24338, Note_on_c, 0, 76, 45
2, 24344, Note_off_c, 0, 76, 64
2, 24345, Note_on_c, 0, 74, 44
2, 24351, Note_off_c, 0, 74, 64
2, 24352, Note_on_c, 0, 76, 52
2, 24358, Note_off_c, 0, 76, 64
2, 24359, Note_on_c, 0, 74, 43
2, 24360, Note_on_c, 0, 55, 42
2, 24365, Note_off_c, 0, 74, 64
2, 24366, Note_on_c, 0, 76, 44
2, 24372, Note_off_c, 0, 76, 64
2, 24373, Note_on_c, 0, 74, 42
2, 24379, Note_off_c, 0, 74, 64
2, 24380, Note_on_c, 0, 76, 42
2, 24386, Note_off_c, 0, 76, 64
2, 24387, Note_on_c, 0, 74, 42
2, 24393, Note_off_c, 0, 74, 64
2, 24394, Note_on_c, 0, 76, 42
2, 24400, Note_off_c, 0, 76, 64
2, 24401, Note_on_c, 0, 74, 44
2, 24407, Note_off_c, 0, 74, 64
2, 24408, Note_on_c, 0, 76, 50
2, 24414, Note_off_c, 0, 76, 64
2, 24415, Note_on_c, 0, 74, 42
2, 24421, Note_off_c, 0, 74, 64
2, 24422, Note_on_c, 0, 76, 43
2, 24428, Note_off_c, 0, 76, 64
2, 24429, Note_on_c, 0, 74, 42
2, 24435, Note_off_c, 0, 74, 64
2, 24436, Note_on_c, 0, 76, 42
2, 24442, Note_off_c, 0, 76, 64
2, 24443, Note_on_c, 0, 74, 44
2, 24449, Note_off_c, 0, 74, 64
2, 24450, Note_on_c, 0, 76, 52
2, 24456, Note_off_c, 0, 76, 64
2, 24456, Note_off_c, 0, 55, 64
2, 24457, Note_on_c, 0, 74, 43
2, 24463, Note_off_c, 0, 74, 64
2, 24464, Note_on_c, 0, 72, 43
2, 24470, Note_off_c, 0, 72, 64
2, 24471, Note_on_c, 0, 74, 36
2, 24477, Note_off_c, 0, 74, 64
2, 24478, Note_on_c, 0, 72, 52
2, 24480, Note_on_c, 0, 60, 43
2, 24576, Note_off_c, 0, 60, 64
2, 24600, Note_on_c, 0, 55, 43
2, 24670, Note_off_c, 0, 72, 64
2, 24696, Note_off_c, 0, 55, 64
2, 24720, Note_on_c, 0, 48, 44
2, 24816, Note_off_c, 0, 48, 64
2, 24838, Note_on_c, 0, 62, 42
2, 24934, Note_off_c, 0, 62, 64
2, 24960, Note_on_c, 0, 55, 45
2, 24960, Note_on_c, 0, 59, 45
2, 24960, Note_on_c, 0, 67, 58
2, 24992, Note_off_c, 0, 67, 64
2, 25000, Note_on_c, 0, 71, 71
2, 25032, Note_off_c, 0, 71, 64
2, 25040, Note_on_c, 0, 69, 54
2, 25056, Note_off_c, 0, 59, 64
2, 25056, Note_off_c, 0, 55, 64
2, 25072, Note_off_c, 0, 69, 64
2, 25080, Note_on_c, 0, 55, 42
2, 25080, Note_on_c, 0, 67, 44
2, 25080, Note_on_c, 0, 59, 32
2, 25176, Note_off_c, 0, 59, 64
2, 25176, Note_off_c, 0, 55, 64
2, 25192, Note_off_c, 0, 67, 64
2, 25200, Note_on_c, 0, 59, 43
2, 25200, Note_on_c, 0, 55, 42
2, 25200, Note_on_c, 0, 71, 54
2, 25232, Note_off_c, 0, 71, 64
2, 25240, Note_on_c, 0, 74, 58
2, 25272, Note_off_c, 0, 74, 64
2, 25280, Note_on_c, 0, 72, 66
2, 25296, Note_off_c, 0, 55, 64
2, 25296, Note_off_c, 0, 59, 64
2, 25312, Note_off_c, 0, 72, 64
2, 25320, Note_on_c, 0, 71, 58
2, 25320, Note_on_c, 0, 55, 42
2, 25320, Note_on_c, 0, 59, 42
2, 25352, Note_off_c, 0, 71, 64
2, 25360, Note_on_c, 0, 67, 61
2, 25392, Note_off_c, 0, 67, 64
2, 25400, Note_on_c, 0, 74, 45
2, 25416, Note_off_c, 0, 59, 64
2, 25416, Note_off_c, 0, 55, 64
2, 25432, Note_off_c, 0, 74, 64
2, 25440, Note_on_c, 0, 55, 50
2, 25440, Note_on_c, 0, 76, 57
2, 25440, Note_on_c, 0, 60, 42
2, 25472, Note_off_c, 0, 76, 64
2, 25480, Note_on_c, 0, 79, 44
2, 25512, Note_off_c, 0, 79, 64
2, 25520, Note_on_c, 0, 76, 66
2, 25536, Note_off_c, 0, 60, 64
2, 25536, Note_off_c, 0, 55, 64
2, 25552, Note_off_c, 0, 76, 64
2, 25560, Note_on_c, 0, 59, 42
2, 25560, Note_on_c, 0, 55, 42
2, 25560, Note_on_c, 0, 74, 50
2, 25656, Note_off_c, 0, 55, 64
2, 25656, Note_off_c, 0, 59, 64
2, 25672, Note_off_c, 0, 74, 64
2, 25680, Note_on_c, 0, 59, 42
2, 25680, Note_on_c, 0, 55, 42
2, 25680, Note_on_c, 0, 71, 43
2, 25712, Note_off_c, 0, 71, 64
2, 25720, Note_on_c, 0, 74, 58
2, 25752, Note_off_c, 0, 74, 64
2, 25760, Note_on_c, 0, 72, 52
2, 25776, Note_off_c, 0, 55, 64
2, 25776, Note_off_c, 0, 59, 64
2, 25792, Note_off_c, 0, 72, 64
2, 25800, Note_on_c, 0, 55, 47
2, 25800, Note_on_c, 0, 59, 50
2, 25800, Note_on_c, 0, 71, 71
2, 25832, Note_off_c, 0, 71, 64
2, 25840, Note_on_c, 0, 67, 61
2, 25872, Note_off_c, 0, 67, 64
2, 25880, Note_on_c, 0, 74, 77
2, 25896, Note_off_c, 0, 59, 64
2, 25896, Note_off_c, 0, 55, 64
2, 25912, Note_off_c, 0, 74, 64
2, 25920, Note_on_c, 0, 76, 66
2, 25920, Note_on_c, 0, 60, 47
2, 25952, Note_off_c, 0, 76, 64
2, 25960, Note_on_c, 0, 78, 54
2, 25992, Note_off_c, 0, 78, 64
2, 26000, Note_on_c, 0, 79, 61
2, 26016, Note_off_c, 0, 60, 64
2, 26032, Note_off_c, 0, 79, 64
2, 26040, Note_on_c, 0, 59, 42
2, 26040, Note_on_c, 0, 74, 54
2, 26072, Note_off_c, 0, 74, 64
2, 26080, Note_on_c, 0, 78, 47
2, 26112, Note_off_c, 0, 78, 64
2, 26120, Note_on_c, 0, 79, 54
2, 26136, Note_off_c, 0, 59, 64
2, 26152, Note_off_c, 0, 79, 64
2, 26160, Note_on_c, 0, 57, 50
2, 26160, Note_on_c, 0, 74, 47
2, 26166, Note_off_c, 0, 74, 64
2, 26167, Note_on_c, 0, 72, 36
2, 26173, Note_off_c, 0, 72, 64
2, 26174, Note_on_c, 0, 74, 42
2, 26180, Note_off_c, 0, 74, 64
2, 26181, Note_on_c, 0, 72, 42
2, 26187, Note_off_c, 0, 72, 64
2, 26188, Note_on_c, 0, 74, 44
2, 26194, Note_off_c, 0, 74, 64
2, 26195, Note_on_c, 0, 72, 42
2, 26201, Note_off_c, 0, 72, 64
2, 26202, Note_on_c, 0, 74, 44
2, 26208, Note_off_c, 0, 74, 64
2, 26209, Note_on_c, 0, 72, 42
2, 26215, Note_off_c, 0, 72, 64
2, 26216, Note_on_c, 0, 74, 52
2, 26222, Note_off_c, 0, 74, 64
2, 26223, Note_on_c, 0, 72, 45
2, 26229, Note_off_c, 0, 72, 64
2, 26230, Note_on_c, 0, 74, 50
2, 26236, Note_off_c, 0, 74, 64
2, 26237, Note_on_c, 0, 72, 42
2, 26243, Note_off_c, 0, 72, 64
2, 26244, Note_on_c, 0, 74, 50
2, 26250, Note_off_c, 0, 74, 64
2, 26251, Note_on_c, 0, 72, 44
2, 26256, Note_off_c, 0, 57, 64
2, 26257, Note_off_c, 0, 72, 64
2, 26258, Note_on_c, 0, 74, 45
2, 26264, Note_off_c, 0, 74, 64
2, 26265, Note_on_c, 0, 72, 44
2, 26271, Note_off_c, 0, 72, 64
2, 26272, Note_on_c, 0, 74, 52
2, 26278, Note_off_c, 0, 74, 64
2, 26279, Note_on_c, 0, 72, 43
2, 26280, Note_on_c, 0, 50, 42
2, 26285, Note_off_c, 0, 72, 64
2, 26286, Note_on_c, 0, 74, 44
2, 26292, Note_off_c, 0, 74, 64
2, 26293, Note_on_c, 0, 72, 42
2, 26299, Note_off_c, 0, 72, 64
2, 26300, Note_on_c, 0, 74, 42
2, 26306, Note_off_c, 0, 74, 64
2, 26307, Note_on_c, 0, 72, 42
2, 26313, Note_off_c, 0, 72, 64
2, 26314, Note_on_c, 0, 74, 42
2, 26320, Note_off_c, 0, 74, 64
2, 26321, Note_on_c, 0, 72, 44
2, 26327, Note_off_c, 0, 72, 64
2, 26328, Note_on_c, 0, 74, 50
2, 26334, Note_off_c, 0, 74, 64
2, 26335, Note_on_c, 0, 72, 42
2, 26341, Note_off_c, 0, 72, 64
2, 26342, Note_on_c, 0, 74, 43
2, 26348, Note_off_c, 0, 74, 64
2, 26349, Note_on_c, 0, 72, 42
2, 26355, Note_off_c, 0, 72, 64
2, 26356, Note_on_c, 0, 74, 42
2, 26362, Note_off_c, 0, 74, 64
2, 26363, Note_on_c, 0, 72, 44
2, 26369, Note_off_c, 0, 72, 64
2, 26370, Note_on_c, 0, 74, 52
2, 26376, Note_off_c, 0, 74, 64
2, 26376, Note_off_c, 0, 50, 64
2, 26377, Note_on_c, 0, 72, 43
2, 26383, Note_off_c, 0, 72, 64
2, 26384, Note_on_c, 0, 71, 43
2, 26390, Note_off_c, 0, 71, 64
2, 26391, Note_on_c, 0, 72, 36
2, 26397, Note_off_c, 0, 72, 64
2, 26398, Note_on_c, 0, 71, 52
2, 26400, Note_on_c, 0, 55, 36
2, 26496, Note_off_c, 0, 55, 64
2, 26520, Note_on_c, 0, 50, 38
2, 26590, Note_off_c, 0, 71, 64
2, 26616, Note_off_c, 0, 50, 64
2, 26640, Note_on_c, 0, 43, 29
2, 26736, Note_off_c, 0, 43, 64
2, 26758, Note_on_c, 0, 67, 45
2, 26854, Note_off_c, 0, 67, 64
2, 26880, Note_on_c, 0, 64, 44
2, 26880, Note_on_c, 0, 60, 61
2, 26880, Note_on_c, 0, 72, 42
2, 26912, Note_off_c, 0, 72, 64
2, 26920, Note_on_c, 0, 76, 66
2, 26952, Note_off_c, 0, 76, 64
2, 26960, Note_on_c, 0, 74, 50
2, 26976, Note_off_c, 0, 60, 64
2, 26976, Note_off_c, 0, 64, 64
2, 26992, Note_off_c, 0, 74, 64
2, 27000, Note_on_c, 0, 60, 40
2, 27000, Note_on_c, 0, 72, 47
2, 27000, Note_on_c, 0, 64, 42
2, 27032, Note_off_c, 0, 72, 64
2, 27040, Note_on_c, 0, 72, 44
2, 27072, Note_off_c, 0, 72, 64
2, 27080, Note_on_c, 0, 72, 42
2, 27096, Note_off_c, 0, 64, 64
2, 27096, Note_off_c, 0, 60, 64
2, 27112, Note_off_c, 0, 72, 64
2, 27120, Note_on_c, 0, 64, 42
2, 27120, Note_on_c, 0, 60, 44
2, 27120, Note_on_c, 0, 72, 42
2, 27152, Note_off_c, 0, 72, 64
2, 27160, Note_on_c, 0, 76, 52
2, 27192, Note_off_c, 0, 76, 64
2, 27200, Note_on_c, 0, 77, 47
2, 27216, Note_off_c, 0, 60, 64
2, 27216, Note_off_c, 0, 64, 64
2, 27232, Note_off_c, 0, 77, 64
2, 27240, Note_on_c, 0, 60, 45
2, 27240, Note_on_c, 0, 64, 50
2, 27240, Note_on_c, 0, 79, 43
2, 27272, Note_off_c, 0, 79, 64
2, 27280, Note_on_c, 0, 77, 42
2, 27312, Note_off_c, 0, 77, 64
2, 27320, Note_on_c, 0, 76, 57
2, 27336, Note_off_c, 0, 64, 64
2, 27336, Note_off_c, 0, 60, 64
2, 27352, Note_off_c, 0, 76, 64
2, 27360, Note_on_c, 0, 84, 50
2, 27360, Note_on_c, 0, 58, 42
2, 27360, Note_on_c, 0, 67, 42
2, 27392, Note_off_c, 0, 84, 64
2, 27400, Note_on_c, 0, 79, 42
2, 27432, Note_off_c, 0, 79, 64
2, 27440, Note_on_c, 0, 76, 42
2, 27456, Note_off_c, 0, 67, 64
2, 27456, Note_off_c, 0, 58, 64
2, 27472, Note_off_c, 0, 76, 64
2, 27480, Note_on_c, 0, 58, 42
2, 27480, Note_on_c, 0, 67, 42
2, 27480, Note_on_c, 0, 84, 50
2, 27512, Note_off_c, 0, 84, 64
2, 27520, Note_on_c, 0, 79, 43
2, 27552, Note_off_c, 0, 79, 64
2, 27560, Note_on_c, 0, 76, 54
2, 27576, Note_off_c, 0, 67, 64
2, 27576, Note_off_c, 0, 58, 64
2, 27592, Note_off_c, 0, 76, 64
2, 27600, Note_on_c, 0, 58, 42
2, 27600, Note_on_c, 0, 67, 39
2, 27600, Note_on_c, 0, 84, 54
2, 27632, Note_off_c, 0, 84, 64
2, 27640, Note_on_c, 0, 76, 45
2, 27672, Note_off_c, 0, 76, 64
2, 27680, Note_on_c, 0, 77, 43
2, 27696, Note_off_c, 0, 67, 64
2, 27696, Note_off_c, 0, 58, 64
2, 27712, Note_off_c, 0, 77, 64
2, 27720, Note_on_c, 0, 58, 1
2, 27720, Note_on_c, 0, 67, 1
2, 27720, Note_on_c, 0, 79, 47
2, 27752, Note_off_c, 0, 79, 64
2, 27760, Note_on_c, 0, 77, 42
2, 27792, Note_off_c, 0, 77, 64
2, 27800, Note_on_c, 0, 76, 45
2, 27816, Note_off_c, 0, 67, 64
2, 27816, Note_off_c, 0, 58, 64
2, 27832, Note_off_c, 0, 76, 64
2, 27840, Note_on_c, 0, 65, 1
2, 27840, Note_on_c, 0, 84, 52
2, 27840, Note_on_c, 0, 57, 45
2, 27872, Note_off_c, 0, 84, 64
2, 27880, Note_on_c, 0, 81, 45
2, 27912, Note_off_c, 0, 81, 64
2, 27920, Note_on_c, 0, 77, 47
2, 27936, Note_off_c, 0, 57, 64
2, 27936, Note_off_c, 0, 65, 64
2, 27952, Note_off_c, 0, 77, 64
2, 27960, Note_on_c, 0, 65, 42
2, 27960, Note_on_c, 0, 57, 42
2, 27960, Note_on_c, 0, 84, 61
2, 27992, Note_off_c, 0, 84, 64
2, 28000, Note_on_c, 0, 81, 58
2, 28032, Note_off_c, 0, 81, 64
2, 28040, Note_on_c, 0, 77, 45
2, 28056, Note_off_c, 0, 57, 64
2, 28056, Note_off_c, 0, 65, 64
2, 28072, Note_off_c, 0, 77, 64
2, 28080, Note_on_c, 0, 65, 30
2, 28080, Note_on_c, 0, 84, 54
2, 28080, Note_on_c, 0, 57, 42
2, 28112, Note_off_c, 0, 84, 64
2, 28120, Note_on_c, 0, 77, 61
2, 28152, Note_off_c, 0, 77, 64
2, 28160, Note_on_c, 0, 79, 45
2, 28176, Note_off_c, 0, 57, 64
2, 28176, Note_off_c, 0, 65, 64
2, 28192, Note_off_c, 0, 79, 64
2, 28200, Note_on_c, 0, 65, 42
2, 28200, Note_on_c, 0, 81, 52
2, 28200, Note_on_c, 0, 57, 42
2, 28232, Note_off_c, 0, 81, 64
2, 28240, Note_on_c, 0, 79, 47
2, 28272, Note_off_c, 0, 79, 64
2, 28280, Note_on_c, 0, 77, 45
2, 28296, Note_off_c, 0, 57, 64
2, 28296, Note_off_c, 0, 65, 64
2, 28312, Note_off_c, 0, 77, 64
2, 28320, Note_on_c, 0, 60, 42
2, 28320, Note_on_c, 0, 52, 42
2, 28320, Note_on_c, 0, 84, 45
2, 28352, Note_off_c, 0, 84, 64
2, 28360, Note_on_c, 0, 82, 40
2, 28392, Note_off_c, 0, 82, 64
2, 28400, Note_on_c, 0, 79, 42
2, 28416, Note_off_c, 0, 52, 64
2, 28416, Note_off_c, 0, 60, 64
2, 28432, Note_off_c, 0, 79, 64
2, 28440, Note_on_c, 0, 60, 42
2, 28440, Note_on_c, 0, 52, 42
2, 28440, Note_on_c, 0, 84, 42
2, 28472, Note_off_c, 0, 84, 64
2, 28480, Note_on_c, 0, 82, 42
2, 28512, Note_off_c, 0, 82, 64
2, 28520, Note_on_c, 0, 79, 46
2, 28536, Note_off_c, 0, 52, 64
2, 28536, Note_off_c, 0, 60, 64
2, 28552, Note_off_c, 0, 79, 64
2, 28560, Note_on_c, 0, 84, 43
2, 28560, Note_on_c, 0, 60, 42
2, 28560, Note_on_c, 0, 52, 42
2, 28592, Note_off_c, 0, 84, 64
2, 28600, Note_on_c, 0, 79, 45
2, 28632, Note_off_c, 0, 79, 64
2, 28640, Note_on_c, 0, 81, 42
2, 28656, Note_off_c, 0, 52, 64
2, 28656, Note_off_c, 0, 60, 64
2, 28672, Note_off_c, 0, 81, 64
2, 28680, Note_on_c, 0, 82, 42
2, 28680, Note_on_c, 0, 60, 29
2, 28680, Note_on_c, 0, 52, 42
2, 28712, Note_off_c, 0, 82, 64
2, 28720, Note_on_c, 0, 81, 42
2, 28752, Note_off_c, 0, 81, 64
2, 28760, Note_on_c, 0, 79, 43
2, 28776, Note_off_c, 0, 52, 64
2, 28776, Note_off_c, 0, 60, 64
2, 28792, Note_off_c, 0, 79, 64
2, 28800, Note_on_c, 0, 81, 58
2, 28800, Note_on_c, 0, 60, 1
2, 28800, Note_on_c, 0, 53, 42
2, 28832, Note_off_c, 0, 81, 64
2, 28840, Note_on_c, 0, 81, 42
2, 28872, Note_off_c, 0, 81, 64
2, 28880, Note_on_c, 0, 81, 44
2, 28896, Note_off_c, 0, 53, 64
2, 28896, Note_off_c, 0, 60, 64
2, 28912, Note_off_c, 0, 81, 64
2, 28920, Note_on_c, 0, 60, 23
2, 28920, Note_on_c, 0, 81, 58
2, 28920, Note_on_c, 0, 53, 42
2, 28952, Note_off_c, 0, 81, 64
2, 28960, Note_on_c, 0, 81, 50
2, 28992, Note_off_c, 0, 81, 64
2, 29000, Note_on_c, 0, 81, 47
2, 29016, Note_off_c, 0, 53, 64
2, 29016, Note_off_c, 0, 60, 64
2, 29032, Note_off_c, 0, 81, 64
2, 29040, Note_on_c, 0, 81, 45
2, 29040, Note_on_c, 0, 53, 29
2, 29040, Note_on_c, 0, 60, 42
2, 29072, Note_off_c, 0, 81, 64
2, 29080, Note_on_c, 0, 79, 50
2, 29112, Note_off_c, 0, 79, 64
2, 29120, Note_on_c, 0, 77, 50
2, 29136, Note_off_c, 0, 60, 64
2, 29136, Note_off_c, 0, 53, 64
2, 29152, Note_off_c, 0, 77, 64
2, 29160, Note_on_c, 0, 62, 42
2, 29160, Note_on_c, 0, 76, 58
2, 29160, Note_on_c, 0, 54, 42
2, 29192, Note_off_c, 0, 76, 64
2, 29200, Note_on_c, 0, 74, 58
2, 29232, Note_off_c, 0, 74, 64
2, 29240, Note_on_c, 0, 72, 44
2, 29256, Note_off_c, 0, 54, 64
2, 29256, Note_off_c, 0, 62, 64
2, 29272, Note_off_c, 0, 72, 64
2, 29280, Note_on_c, 0, 55, 43
2, 29280, Note_on_c, 0, 62, 42
2, 29280, Note_on_c, 0, 74, 66
2, 29286, Note_off_c, 0, 74, 64
2, 29287, Note_on_c, 0, 72, 42
2, 29293, Note_off_c, 0, 72, 64
2, 29294, Note_on_c, 0, 72, 45
2, 29300, Note_off_c, 0, 72, 64
2, 29301, Note_on_c, 0, 72, 40
2, 29307, Note_off_c, 0, 72, 64
2, 29308, Note_on_c, 0, 74, 50
2, 29314, Note_off_c, 0, 74, 64
2, 29315, Note_on_c, 0, 72, 54
2, 29321, Note_off_c, 0, 72, 64
2, 29322, Note_on_c, 0, 74, 47
2, 29328, Note_off_c, 0, 74, 64
2, 29329, Note_on_c, 0, 72, 47
2, 29335, Note_off_c, 0, 72, 64
2, 29336, Note_on_c, 0, 74, 52
2, 29342, Note_off_c, 0, 74, 64
2, 29343, Note_on_c, 0, 72, 44
2, 29349, Note_off_c, 0, 72, 64
2, 29350, Note_on_c, 0, 74, 61
2, 29356, Note_off_c, 0, 74, 64
2, 29357, Note_on_c, 0, 72, 45
2, 29363, Note_off_c, 0, 72, 64
2, 29364, Note_on_c, 0, 74, 45
2, 29370, Note_off_c, 0, 74, 64
2, 29371, Note_on_c, 0, 72, 42
2, 29376, Note_off_c, 0, 62, 64
2, 29376, Note_off_c, 0, 55, 64
2, 29377, Note_off_c, 0, 72, 64
2, 29378, Note_on_c, 0, 71, 58
2, 29384, Note_off_c, 0, 71, 64
2, 29385, Note_on_c, 0, 72, 43
2, 29391, Note_off_c, 0, 72, 64
2, 29392, Note_on_c, 0, 71, 80
2, 29400, Note_on_c, 0, 55, 42
2, 29400, Note_on_c, 0, 62, 40
2, 29488, Note_off_c, 0, 71, 64
2, 29496, Note_off_c, 0, 62, 64
2, 29496, Note_off_c, 0, 55, 64
2, 29520, Note_on_c, 0, 62, 41
2, 29520, Note_on_c, 0, 55, 42
2, 29632, Note_on_c, 0, 79, 42
2, 29712, Note_off_c, 0, 55, 64
2, 29712, Note_off_c, 0, 62, 64
2, 29728, Note_off_c, 0, 79, 64
2, 29760, Note_on_c, 0, 77, 55
2, 29760, Note_on_c, 0, 55, 66
2, 29760, Note_on_c, 0, 59, 42
2, 29792, Note_off_c, 0, 77, 64
2, 29800, Note_on_c, 0, 76, 42
2, 29832, Note_off_c, 0, 76, 64
2, 29840, Note_on_c, 0, 74, 43
2, 29856, Note_off_c, 0, 59, 64
2, 29856, Note_off_c, 0, 55, 64
2, 29872, Note_off_c, 0, 74, 64
2, 29880, Note_on_c, 0, 55, 42
2, 29880, Note_on_c, 0, 72, 47
2, 29880, Note_on_c, 0, 59, 1
2, 29912, Note_off_c, 0, 72, 64
2, 29920, Note_on_c, 0, 71, 61
2, 29952, Note_off_c, 0, 71, 64
2, 29960, Note_on_c, 0, 69, 58
2, 29976, Note_off_c, 0, 59, 64
2, 29976, Note_off_c, 0, 55, 64
2, 29992, Note_off_c, 0, 69, 64
2, 30000, Note_on_c, 0, 55, 42
2, 30000, Note_on_c, 0, 67, 54
2, 30000, Note_on_c, 0, 59, 1
2, 30032, Note_off_c, 0, 67, 64
2, 30040, Note_on_c, 0, 74, 69
2, 30072, Note_off_c, 0, 74, 64
2, 30080, Note_on_c, 0, 76, 69
2, 30096, Note_off_c, 0, 59, 64
2, 30096, Note_off_c, 0, 55, 64
2, 30112, Note_off_c, 0, 76, 64
2, 30120, Note_on_c, 0, 59, 31
2, 30120, Note_on_c, 0, 55, 42
2, 30120, Note_on_c, 0, 77, 42
2, 30152, Note_off_c, 0, 77, 64
2, 30160, Note_on_c, 0, 76, 42
2, 30192, Note_off_c, 0, 76, 64
2, 30200, Note_on_c, 0, 74, 43
2, 30216, Note_off_c, 0, 55, 64
2, 30216, Note_off_c, 0, 59, 64
2, 30232, Note_off_c, 0, 74, 64
2, 30240, Note_on_c, 0, 76, 52
2, 30240, Note_on_c, 0, 60, 43
2, 30272, Note_off_c, 0, 76, 64
2, 30280, Note_on_c, 0, 74, 52
2, 30312, Note_off_c, 0, 74, 64
2, 30320, Note_on_c, 0, 72, 45
2, 30352, Note_off_c, 0, 72, 64
2, 30360, Note_on_c, 0, 79, 58
2, 30392, Note_off_c, 0, 79, 64
2, 30400, Note_on_c, 0, 77, 61
2, 30432, Note_off_c, 0, 77, 64
2, 30432, Note_off_c, 0, 60, 64
2, 30440, Note_on_c, 0, 76, 45
2, 30472, Note_off_c, 0, 76, 64
2, 30480, Note_on_c, 0, 84, 47
2, 30576, Note_off_c, 0, 84, 64
2, 30600, Note_on_c, 0, 79, 50
2, 30696, Note_off_c, 0, 79, 64
2, 30720, Note_on_c, 0, 59, 42
2, 30720, Note_on_c, 0, 55, 66
2, 30720, Note_on_c, 0, 77, 55
2, 30752, Note_off_c, 0, 77, 64
2, 30760, Note_on_c, 0, 76, 42
2, 30792, Note_off_c, 0, 76, 64
2, 30800, Note_on_c, 0, 74, 43
2, 30816, Note_off_c, 0, 55, 64
2, 30816, Note_off_c, 0, 59, 64
2, 30832, Note_off_c, 0, 74, 64
2, 30840, Note_on_c, 0, 72, 47
2, 30840, Note_on_c, 0, 59, 1
2, 30840, Note_on_c, 0, 55, 42
2, 30872, Note_off_c, 0, 72, 64
2, 30880, Note_on_c, 0, 71, 61
2, 30912, Note_off_c, 0, 71, 64
2, 30920, Note_on_c, 0, 69, 58
2, 30936, Note_off_c, 0, 55, 64
2, 30936, Note_off_c, 0, 59, 64
2, 30952, Note_off_c, 0, 69, 64
2, 30960, Note_on_c, 0, 59, 1
2, 30960, Note_on_c, 0, 55, 42
2, 30960, Note_on_c, 0, 67, 54
2, 30992, Note_off_c, 0, 67, 64
2, 31000, Note_on_c, 0, 74, 69
2, 31032, Note_off_c, 0, 74, 64
2, 31040, Note_on_c, 0, 76, 69
2, 31056, Note_off_c, 0, 55, 64
2, 31056, Note_off_c, 0, 59, 64
2, 31072, Note_off_c, 0, 76, 64
2, 31080, Note_on_c, 0, 77, 42
2, 31080, Note_on_c, 0, 55, 42
2, 31080, Note_on_c, 0, 59, 31
2, 31112, Note_off_c, 0, 77, 64
2, 31120, Note_on_c, 0, 76, 42
2, 31152, Note_off_c, 0, 76, 64
2, 31160, Note_on_c, 0, 74, 43
2, 31176, Note_off_c, 0, 59, 64
2, 31176, Note_off_c, 0, 55, 64
2, 31192, Note_off_c, 0, 74, 64
2, 31200, Note_on_c, 0, 60, 43
2, 31200, Note_on_c, 0, 76, 52
2, 31232, Note_off_c, 0, 76, 64
2, 31240, Note_on_c, 0, 74, 52
2, 31272, Note_off_c, 0, 74, 64
2, 31280, Note_on_c, 0, 72, 45
2, 31312, Note_off_c, 0, 72, 64
2, 31320, Note_on_c, 0, 79, 58
2, 31352, Note_off_c, 0, 79, 64
2, 31360, Note_on_c, 0, 77, 61
2, 31392, Note_off_c, 0, 77, 64
2, 31392, Note_off_c, 0, 60, 64
2, 31400, Note_on_c, 0, 76, 45
2, 31432, Note_off_c, 0, 76, 64
2, 31440, Note_on_c, 0, 84, 47
2, 31536, Note_off_c, 0, 84, 64
2, 31560, Note_on_c, 0, 64, 42
2, 31560, Note_on_c, 0, 79, 50
2, 31656, Note_off_c, 0, 79, 64
2, 31656, Note_off_c, 0, 64, 64
2, 31680, Note_on_c, 0, 65, 31
2, 31680, Note_on_c, 0, 81, 42
2, 31712, Note_off_c, 0, 81, 64
2, 31720, Note_on_c, 0, 73, 47
2, 31752, Note_off_c, 0, 73, 64
2, 31760, Note_on_c, 0, 74, 54
2, 31776, Note_off_c, 0, 65, 64
2, 31792, Note_off_c, 0, 74, 64
2, 31800, Note_on_c, 0, 77, 43
2, 31800, Note_on_c, 0, 62, 47
2, 31832, Note_off_c, 0, 77, 64
2, 31840, Note_on_c, 0, 79, 42
2, 31872, Note_off_c, 0, 79, 64
2, 31880, Note_on_c, 0, 81, 43
2, 31896, Note_off_c, 0, 62, 64
2, 31912, Note_off_c, 0, 81, 64
2, 31920, Note_on_c, 0, 64, 47
2, 31920, Note_on_c, 0, 79, 52
2, 31952, Note_off_c, 0, 79, 64
2, 31960, Note_on_c, 0, 71, 54
2, 31992, Note_off_c, 0, 71, 64
2, 32000, Note_on_c, 0, 72, 58
2, 32016, Note_off_c, 0, 64, 64
2, 32032, Note_off_c, 0, 72, 64
2, 32040, Note_on_c, 0, 76, 45
2, 32040, Note_on_c, 0, 60, 42
2, 32072, Note_off_c, 0, 76, 64
2, 32080, Note_on_c, 0, 77, 52
2, 32112, Note_off_c, 0, 77, 64
2, 32120, Note_on_c, 0, 79, 44
2, 32136, Note_off_c, 0, 60, 64
2, 32152, Note_off_c, 0, 79, 64
2, 32160, Note_on_c, 0, 62, 38
2, 32160, Note_on_c, 0, 77, 52
2, 32192, Note_off_c, 0, 77, 64
2, 32200, Note_on_c, 0, 76, 61
2, 32232, Note_off_c, 0, 76, 64
2, 32240, Note_on_c, 0, 77, 47
2, 32256, Note_off_c, 0, 62, 64
2, 32272, Note_off_c, 0, 77, 64
2, 32280, Note_on_c, 0, 86, 42
2, 32280, Note_on_c, 0, 55, 40
2, 32312, Note_off_c, 0, 86, 64
2, 32320, Note_on_c, 0, 83, 47
2, 32352, Note_off_c, 0, 83, 64
2, 32360, Note_on_c, 0, 77, 43
2, 32376, Note_off_c, 0, 55, 64
2, 32392, Note_off_c, 0, 77, 64
2, 32400, Note_on_c, 0, 60, 42
2, 32400, Note_on_c, 0, 76, 58
2, 32432, Note_off_c, 0, 76, 64
2, 32440, Note_on_c, 0, 84, 42
2, 32472, Note_off_c, 0, 84, 64
2, 32480, Note_on_c, 0, 84, 52
2, 32496, Note_off_c, 0, 60, 64
2, 32512, Note_off_c, 0, 84, 64
2, 32520, Note_on_c, 0, 64, 42
2, 32520, Note_on_c, 0, 84, 58
2, 32552, Note_off_c, 0, 84, 64
2, 32560, Note_on_c, 0, 79, 50
2, 32592, Note_off_c, 0, 79, 64
2, 32600, Note_on_c, 0, 76, 58
2, 32616, Note_off_c, 0, 64, 64
2, 32632, Note_off_c, 0, 76, 64
2, 32640, Note_on_c, 0, 81, 54
2, 32640, Note_on_c, 0, 65, 42
2, 32672, Note_off_c, 0, 81, 64
2, 32680, Note_on_c, 0, 79, 43
2, 32712, Note_off_c, 0, 79, 64
2, 32720, Note_on_c, 0, 77, 54
2, 32736, Note_off_c, 0, 65, 64
2, 32752, Note_off_c, 0, 77, 64
2, 32760, Note_on_c, 0, 69, 1
2, 32760, Note_on_c, 0, 76, 50
2, 32792, Note_off_c, 0, 76, 64
2, 32800, Note_on_c, 0, 74, 47
2, 32832, Note_off_c, 0, 74, 64
2, 32840, Note_on_c, 0, 72, 42
2, 32856, Note_off_c, 0, 69, 64
2, 32872, Note_off_c, 0, 72, 64
2, 32880, Note_on_c, 0, 67, 42
2, 32880, Note_on_c, 0, 76, 47
2, 32886, Note_off_c, 0, 76, 64
2, 32887, Note_on_c, 0, 74, 36
2, 32893, Note_off_c, 0, 74, 64
2, 32894, Note_on_c, 0, 76, 42
2, 32900, Note_off_c, 0, 76, 64
2, 32901, Note_on_c, 0, 74, 42
2, 32907, Note_off_c, 0, 74, 64
2, 32908, Note_on_c, 0, 76, 44
2, 32914, Note_off_c, 0, 76, 64
2, 32915, Note_on_c, 0, 74, 42
2, 32921, Note_off_c, 0, 74, 64
2, 32922, Note_on_c, 0, 76, 44
2, 32928, Note_off_c, 0, 76, 64
2, 32929, Note_on_c, 0, 74, 42
2, 32935, Note_off_c, 0, 74, 64
2, 32936, Note_on_c, 0, 76, 52
2, 32942, Note_off_c, 0, 76, 64
2, 32943, Note_on_c, 0, 74, 45
2, 32949, Note_off_c, 0, 74, 64
2, 32950, Note_on_c, 0, 76, 50
2, 32956, Note_off_c, 0, 76, 64
2, 32957, Note_on_c, 0, 74, 42
2, 32963, Note_off_c, 0, 74, 64
2, 32964, Note_on_c, 0, 76, 50
2, 32970, Note_off_c, 0, 76, 64
2, 32971, Note_on_c, 0, 74, 44
2, 32976, Note_off_c, 0, 67, 64
2, 32977, Note_off_c, 0, 74, 64
2, 32978, Note_on_c, 0, 76, 45
2, 32984, Note_off_c, 0, 76, 64
2, 32985, Note_on_c, 0, 74, 44
2, 32991, Note_off_c, 0, 74, 64
2, 32992, Note_on_c, 0, 76, 52
2, 32998, Note_off_c, 0, 76, 64
2, 32999, Note_on_c, 0, 74, 43
2, 33000, Note_on_c, 0, 55, 40
2, 33005, Note_off_c, 0, 74, 64
2, 33006, Note_on_c, 0, 76, 44
2, 33012, Note_off_c, 0, 76, 64
2, 33013, Note_on_c, 0, 74, 42
2, 33019, Note_off_c, 0, 74, 64
2, 33020, Note_on_c, 0, 76, 42
2, 33026, Note_off_c, 0, 76, 64
2, 33027, Note_on_c, 0, 74, 42
2, 33033, Note_off_c, 0, 74, 64
2, 33034, Note_on_c, 0, 76, 42
2, 33040, Note_off_c, 0, 76, 64
2, 33041, Note_on_c, 0, 74, 44
2, 33047, Note_off_c, 0, 74, 64
2, 33048, Note_on_c, 0, 76, 50
2, 33054, Note_off_c, 0, 76, 64
2, 33055, Note_on_c, 0, 74, 42
2, 33061, Note_off_c, 0, 74, 64
2, 33062, Note_on_c, 0, 76, 43
2, 33068, Note_off_c, 0, 76, 64
2, 33069, Note_on_c, 0, 74, 42
2, 33075, Note_off_c, 0, 74, 64
2, 33076, Note_on_c, 0, 76, 42
2, 33082, Note_off_c, 0, 76, 64
2, 33083, Note_on_c, 0, 74, 44
2, 33089, Note_off_c, 0, 74, 64
2, 33090, Note_on_c, 0, 76, 52
2, 33096, Note_off_c, 0, 76, 64
2, 33096, Note_off_c, 0, 55, 64
2, 33097, Note_on_c, 0, 74, 43
2, 33103, Note_off_c, 0, 74, 64
2, 33104, Note_on_c, 0, 72, 43
2, 33110, Note_off_c, 0, 72, 64
2, 33111, Note_on_c, 0, 74, 36
2, 33117, Note_off_c, 0, 74, 64
2, 33118, Note_on_c, 0, 72, 52
2, 33120, Note_on_c, 0, 60, 1
2, 33216, Note_off_c, 0, 60, 64
2, 33240, Note_on_c, 0, 55, 47
2, 33310, Note_off_c, 0, 72, 64
2, 33336, Note_off_c, 0, 55, 64
2, 33360, Note_on_c, 0, 48, 54
2, 33456, Note_off_c, 0, 48, 64
2, 33456, End_track
0, 0, End_of_file
