0, 0, Header, 1, 2, 240
1, 0, Start_track
1, 0, Time_signature, 3, 2, 24, 8
1, 0, Tempo, 600000
1, 5760, Time_signature, 3, 2, 24, 8
1, 5760, End_track
2, 0, Start_track
2, 0, Note_on_c, 0, 72, 83
2, 0, Note_on_c, 0, 64, 45
2, 0, Note_on_c, 0, 60, 69
2, 192, Note_off_c, 0, 72, 64
2, 240, Note_on_c, 0, 67, 45
2, 304, Note_off_c, 0, 67, 64
2, 320, Note_on_c, 0, 72, 71
2, 384, Note_off_c, 0, 72, 64
2, 384, Note_off_c, 0, 60, 64
2, 384, Note_off_c, 0, 64, 64
2, 400, Note_on_c, 0, 76, 81
2, 464, Note_off_c, 0, 76, 64
2, 480, Note_on_c, 0, 65, 34
2, 480, Note_on_c, 0, 55, 57
2, 480, Note_on_c, 0, 74, 71
2, 544, Note_off_c, 0, 74, 64
2, 560, Note_on_c, 0, 72, 66
2, 624, Note_off_c, 0, 72, 64
2, 640, Note_on_c, 0, 71, 50
2, 672, Note_off_c, 0, 55, 64
2, 672, Note_off_c, 0, 65, 64
2, 704, Note_off_c, 0, 71, 64
2, 720, Note_on_c, 0, 72, 83
2, 720, Note_on_c, 0, 64, 43
2, 720, Note_on_c, 0, 60, 74
2, 912, Note_off_c, 0, 72, 64
2, 960, Note_on_c, 0, 67, 45
2, 1024, Note_off_c, 0, 67, 64
2, 1040, Note_on_c, 0, 72, 71
2, 1104, Note_off_c, 0, 72, 64
2, 1104, Note_off_c, 0, 60, 64
2, 1104, Note_off_c, 0, 64, 64
2, 1120, Note_on_c, 0, 76, 81
2, 1184, Note_off_c, 0, 76, 64
2, 1200, Note_on_c, 0, 55, 43
2, 1200, Note_on_c, 0, 65, 42
2, 1200, Note_on_c, 0, 74, 71
2, 1264, Note_off_c, 0, 74, 64
2, 1280, Note_on_c, 0, 72, 66
2, 1344, Note_off_c, 0, 72, 64
2, 1360, Note_on_c, 0, 71, 50
2, 1392, Note_off_c, 0, 65, 64
2, 1392, Note_off_c, 0, 55, 64
2, 1424, Note_off_c, 0, 71, 64
2, 1440, Note_on_c, 0, 64, 45
2, 1440, Note_on_c, 0, 60, 54
2, 1440, Note_on_c, 0, 72, 52
2, 1632, Note_off_c, 0, 72, 64
2, 1632, Note_off_c, 0, 60, 64
2, 1632, Note_off_c, 0, 64, 64
2, 1680, Note_on_c, 0, 79, 61
2, 1744, Note_off_c, 0, 79, 64
2, 1760, Note_on_c, 0, 81, 66
2, 1824, Note_off_c, 0, 81, 64
2, 1840, Note_on_c, 0, 83, 66
2, 1904, Note_off_c, 0, 83, 64
2, 1920, Note_on_c, 0, 60, 58
2, 1920, Note_on_c, 0, 84, 58
2, 1984, Note_off_c, 0, 84, 64
2, 2000, Note_on_c, 0, 79, 42
2, 2064, Note_off_c, 0, 79, 64
2, 2080, Note_on_c, 0, 76, 50
2, 2112, Note_off_c, 0, 60, 64
2, 2144, Note_off_c, 0, 76, 64
2, 2160, Note_on_c, 0, 79, 77
2, 2160, Note_on_c, 0, 62, 61
2, 2172, Note_off_c, 0, 79, 64
2, 2175, Note_on_c, 0, 77, 47
2, 2187, Note_off_c, 0, 77, 64
2, 2190, Note_on_c, 0, 79, 50
2, 2202, Note_off_c, 0, 79, 64
2, 2205, Note_on_c, 0, 77, 42
2, 2217, Note_off_c, 0, 77, 64
2, 2220, Note_on_c, 0, 79, 52
2, 2232, Note_off_c, 0, 79, 64
2, 2235, Note_on_c, 0, 77, 42
2, 2247, Note_off_c, 0, 77, 64
2, 2250, Note_on_c, 0, 79, 52
2, 2262, Note_off_c, 0, 79, 64
2, 2265, Note_on_c, 0, 77, 42
2, 2277, Note_off_c, 0, 77, 64
2, 2280, Note_on_c, 0, 79, 50
2, 2292, Note_off_c, 0, 79, 64
2, 2295, Note_on_c, 0, 77, 42
2, 2307, Note_off_c, 0, 77, 64
2, 2310, Note_on_c, 0, 79, 50
2, 2322, Note_off_c, 0, 79, 64
2, 2325, Note_on_c, 0, 77, 42
2, 2337, Note_off_c, 0, 77, 64
2, 2340, Note_on_c, 0, 79, 52
2, 2352, Note_off_c, 0, 79, 64
2, 2352, Note_off_c, 0, 62, 64
2, 2355, Note_on_c, 0, 77, 43
2, 2367, Note_off_c, 0, 77, 64
2, 2370, Note_on_c, 0, 79, 54
2, 2382, Note_off_c, 0, 79, 64
2, 2385, Note_on_c, 0, 77, 45
2, 2397, Note_off_c, 0, 77, 64
2, 2400, Note_on_c, 0, 55, 54
2, 2400, Note_on_c, 0, 79, 61
2, 2412, Note_off_c, 0, 79, 64
2, 2415, Note_on_c, 0, 77, 44
2, 2427, Note_off_c, 0, 77, 64
2, 2430, Note_on_c, 0, 79, 54
2, 2442, Note_off_c, 0, 79, 64
2, 2445, Note_on_c, 0, 77, 47
2, 2457, Note_off_c, 0, 77, 64
2, 2460, Note_on_c, 0, 79, 43
2, 2472, Note_off_c, 0, 79, 64
2, 2475, Note_on_c, 0, 77, 47
2, 2487, Note_off_c, 0, 77, 64
2, 2490, Note_on_c, 0, 79, 52
2, 2502, Note_off_c, 0, 79, 64
2, 2505, Note_on_c, 0, 77, 52
2, 2517, Note_off_c, 0, 77, 64
2, 2520, Note_on_c, 0, 79, 47
2, 2532, Note_off_c, 0, 79, 64
2, 2535, Note_on_c, 0, 77, 47
2, 2547, Note_off_c, 0, 77, 64
2, 2550, Note_on_c, 0, 79, 44
2, 2562, Note_off_c, 0, 79, 64
2, 2565, Note_on_c, 0, 77, 42
2, 2577, Note_off_c, 0, 77, 64
2, 2580, Note_on_c, 0, 79, 43
2, 2592, Note_off_c, 0, 79, 64
2, 2592, Note_off_c, 0, 55, 64
2, 2595, Note_on_c, 0, 77, 42
2, 2607, Note_off_c, 0, 77, 64
2, 2610, Note_on_c, 0, 76, 43
2, 2622, Note_off_c, 0, 76, 64
2, 2625, Note_on_c, 0, 77, 42
2, 2637, Note_off_c, 0, 77, 64
2, 2640, Note_on_c, 0, 60, 58
2, 2640, Note_on_c, 0, 76, 61
2, 2832, Note_off_c, 0, 76, 64
2, 2832, Note_off_c, 0, 60, 64
2, 2880, Note_on_c, 0, 53, 66
2, 2880, Note_on_c, 0, 74, 52
2, 3072, Note_off_c, 0, 74, 64
2, 3072, Note_off_c, 0, 53, 64
2, 3120, Note_on_c, 0, 81, 61
2, 3184, Note_off_c, 0, 81, 64
2, 3200, Note_on_c, 0, 79, 66
2, 3264, Note_off_c, 0, 79, 64
2, 3280, Note_on_c, 0, 77, 66
2, 3344, Note_off_c, 0, 77, 64
2, 3360, Note_on_c, 0, 76, 58
2, 3424, Note_off_c, 0, 76, 64
2, 3440, Note_on_c, 0, 74, 42
2, 3504, Note_off_c, 0, 74, 64
2, 3520, Note_on_c, 0, 72, 50
2, 3584, Note_off_c, 0, 72, 64
2, 3600, Note_on_c, 0, 72, 77
2, 3600, Note_on_c, 0, 55, 52
2, 3612, Note_off_c, 0, 72, 64
2, 3615, Note_on_c, 0, 71, 47
2, 3627, Note_off_c, 0, 71, 64
2, 3630, Note_on_c, 0, 72, 50
2, 3642, Note_off_c, 0, 72, 64
2, 3645, Note_on_c, 0, 71, 42
2, 3657, Note_off_c, 0, 71, 64
2, 3660, Note_on_c, 0, 72, 52
2, 3672, Note_off_c, 0, 72, 64
2, 3675, Note_on_c, 0, 71, 42
2, 3687, Note_off_c, 0, 71, 64
2, 3690, Note_on_c, 0, 72, 52
2, 3702, Note_off_c, 0, 72, 64
2, 3705, Note_on_c, 0, 71, 42
2, 3717, Note_off_c, 0, 71, 64
2, 3720, Note_on_c, 0, 72, 50
2, 3732, Note_off_c, 0, 72, 64
2, 3735, Note_on_c, 0, 71, 42
2, 3747, Note_off_c, 0, 71, 64
2, 3750, Note_on_c, 0, 72, 50
2, 3762, Note_off_c, 0, 72, 64
2, 3765, Note_on_c, 0, 71, 42
2, 3777, Note_off_c, 0, 71, 64
2, 3780, Note_on_c, 0, 72, 52
2, 3792, Note_off_c, 0, 72, 64
2, 3792, Note_off_c, 0, 55, 64
2, 3795, Note_on_c, 0, 71, 43
2, 3807, Note_off_c, 0, 71, 64
2, 3810, Note_on_c, 0, 72, 54
2, 3822, Note_off_c, 0, 72, 64
2, 3825, Note_on_c, 0, 71, 45
2, 3837, Note_off_c, 0, 71, 64
2, 3840, Note_on_c, 0, 53, 50
2, 3840, Note_on_c, 0, 72, 61
2, 3852, Note_off_c, 0, 72, 64
2, 3855, Note_on_c, 0, 71, 44
2, 3867, Note_off_c, 0, 71, 64
2, 3870, Note_on_c, 0, 72, 54
2, 3882, Note_off_c, 0, 72, 64
2, 3885, Note_on_c, 0, 71, 47
2, 3897, Note_off_c, 0, 71, 64
2, 3900, Note_on_c, 0, 72, 43
2, 3912, Note_off_c, 0, 72, 64
2, 3915, Note_on_c, 0, 71, 47
2, 3927, Note_off_c, 0, 71, 64
2, 3930, Note_on_c, 0, 72, 52
2, 3942, Note_off_c, 0, 72, 64
2, 3945, Note_on_c, 0, 71, 52
2, 3957, Note_off_c, 0, 71, 64
2, 3960, Note_on_c, 0, 72, 47
2, 3972, Note_off_c, 0, 72, 64
2, 3975, Note_on_c, 0, 71, 47
2, 3987, Note_off_c, 0, 71, 64
2, 3990, Note_on_c, 0, 72, 44
2, 4002, Note_off_c, 0, 72, 64
2, 4005, Note_on_c, 0, 71, 42
2, 4017, Note_off_c, 0, 71, 64
2, 4020, Note_on_c, 0, 72, 43
2, 4032, Note_off_c, 0, 72, 64
2, 4032, Note_off_c, 0, 53, 64
2, 4035, Note_on_c, 0, 71, 42
2, 4047, Note_off_c, 0, 71, 64
2, 4050, Note_on_c, 0, 69, 43
2, 4062, Note_off_c, 0, 69, 64
2, 4065, Note_on_c, 0, 71, 42
2, 4077, Note_off_c, 0, 71, 64
2, 4080, Note_on_c, 0, 52, 52
2, 4080, Note_on_c, 0, 72, 71
2, 4272, Note_off_c, 0, 72, 64
2, 4272, Note_off_c, 0, 52, 64
2, 4320, Note_on_c, 0, 67, 54
2, 4512, Note_off_c, 0, 67, 64
2, 4560, Note_on_c, 0, 59, 43
2, 4560, Note_on_c, 0, 77, 58
2, 4560, Note_on_c, 0, 74, 77
2, 4752, Note_off_c, 0, 74, 64
2, 4752, Note_off_c, 0, 77, 64
2, 4752, Note_off_c, 0, 59, 64
2, 4800, Note_on_c, 0, 60, 52
2, 4800, Note_on_c, 0, 76, 58
2, 4800, Note_on_c, 0, 72, 53
2, 4992, Note_off_c, 0, 72, 64
2, 4992, Note_off_c, 0, 76, 64
2, 4992, Note_off_c, 0, 60, 64
2, 5040, Note_on_c, 0, 55, 58
2, 5040, Note_on_c, 0, 76, 65
2, 5040, Note_on_c, 0, 72, 51
2, 5232, Note_off_c, 0, 72, 64
2, 5232, Note_off_c, 0, 76, 64
2, 5232, Note_off_c, 0, 55, 64
2, 5280, Note_on_c, 0, 67, 42
2, 5280, Note_on_c, 0, 71, 43
2, 5280, Note_on_c, 0, 74, 45
2, 5472, Note_off_c, 0, 74, 64
2, 5472, Note_off_c, 0, 71, 64
2, 5472, Note_off_c, 0, 67, 64
2, 5520, Note_on_c, 0, 55, 47
2, 5712, Note_off_c, 0, 55, 64
2, 5760, Note_on_c, 0, 72, 83
2, 5760, Note_on_c, 0, 64, 45
2, 5760, Note_on_c, 0, 60, 69
2, 5952, Note_off_c, 0, 72, 64
2, 6000, Note_on_c, 0, 67, 45
2, 6064, Note_off_c, 0, 67, 64
2, 6080, Note_on_c, 0, 72, 71
2, 6144, Note_off_c, 0, 72, 64
2, 6144, Note_off_c, 0, 60, 64
2, 6144, Note_off_c, 0, 64, 64
2, 6160, Note_on_c, 0, 76, 81
2, 6224, Note_off_c, 0, 76, 64
2, 6240, Note_on_c, 0, 65, 34
2, 6240, Note_on_c, 0, 55, 57
2, 6240, Note_on_c, 0, 74, 71
2, 6304, Note_off_c, 0, 74, 64
2, 6320, Note_on_c, 0, 72, 66
2, 6384, Note_off_c, 0, 72, 64
2, 6400, Note_on_c, 0, 71, 50
2, 6432, Note_off_c, 0, 55, 64
2, 6432, Note_off_c, 0, 65, 64
2, 6464, Note_off_c, 0, 71, 64
2, 6480, Note_on_c, 0, 72, 83
2, 6480, Note_on_c, 0, 64, 43
2, 6480, Note_on_c, 0, 60, 74
2, 6672, Note_off_c, 0, 72, 64
2, 6720, Note_on_c, 0, 67, 45
2, 6784, Note_off_c, 0, 67, 64
2, 6800, Note_on_c, 0, 72, 71
2, 6864, Note_off_c, 0, 72, 64
2, 6864, Note_off_c, 0, 60, 64
2, 6864, Note_off_c, 0, 64, 64
2, 6880, Note_on_c, 0, 76, 81
2, 6944, Note_off_c, 0, 76, 64
2, 6960, Note_on_c, 0, 55, 43
2, 6960, Note_on_c, 0, 65, 42
2, 6960, Note_on_c, 0, 74, 71
2, 7024, Note_off_c, 0, 74, 64
2, 7040, Note_on_c, 0, 72, 66
2, 7104, Note_off_c, 0, 72, 64
2, 7120, Note_on_c, 0, 71, 50
2, 7152, Note_off_c, 0, 65, 64
2, 7152, Note_off_c, 0, 55, 64
2, 7184, Note_off_c, 0, 71, 64
2, 7200, Note_on_c, 0, 64, 45
2, 7200, Note_on_c, 0, 60, 54
2, 7200, Note_on_c, 0, 72, 52
2, 7392, Note_off_c, 0, 72, 64
2, 7392, Note_off_c, 0, 60, 64
2, 7392, Note_off_c, 0, 64, 64
2, 7440, Note_on_c, 0, 79, 61
2, 7504, Note_off_c, 0, 79, 64
2, 7520, Note_on_c, 0, 81, 66
2, 7584, Note_off_c, 0, 81, 64
2, 7600, Note_on_c, 0, 83, 66
2, 7664, Note_off_c, 0, 83, 64
2, 7680, Note_on_c, 0, 60, 58
2, 7680, Note_on_c, 0, 84, 58
2, 7744, Note_off_c, 0, 84, 64
2, 7760, Note_on_c, 0, 79, 42
2, 7824, Note_off_c, 0, 79, 64
2, 7840, Note_on_c, 0, 76, 50
2, 7872, Note_off_c, 0, 60, 64
2, 7904, Note_off_c, 0, 76, 64
2, 7920, Note_on_c, 0, 79, 77
2, 7920, Note_on_c, 0, 62, 61
2, 7932, Note_off_c, 0, 79, 64
2, 7935, Note_on_c, 0, 77, 47
2, 7947, Note_off_c, 0, 77, 64
2, 7950, Note_on_c, 0, 79, 50
2, 7962, Note_off_c, 0, 79, 64
2, 7965, Note_on_c, 0, 77, 42
2, 7977, Note_off_c, 0, 77, 64
2, 7980, Note_on_c, 0, 79, 52
2, 7992, Note_off_c, 0, 79, 64
2, 7995, Note_on_c, 0, 77, 42
2, 8007, Note_off_c, 0, 77, 64
2, 8010, Note_on_c, 0, 79, 52
2, 8022, Note_off_c, 0, 79, 64
2, 8025, Note_on_c, 0, 77, 42
2, 8037, Note_off_c, 0, 77, 64
2, 8040, Note_on_c, 0, 79, 50
2, 8052, Note_off_c, 0, 79, 64
2, 8055, Note_on_c, 0, 77, 42
2, 8067, Note_off_c, 0, 77, 64
2, 8070, Note_on_c, 0, 79, 50
2, 8082, Note_off_c, 0, 79, 64
2, 8085, Note_on_c, 0, 77, 42
2, 8097, Note_off_c, 0, 77, 64
2, 8100, Note_on_c, 0, 79, 52
2, 8112, Note_off_c, 0, 79, 64
2, 8112, Note_off_c, 0, 62, 64
2, 8115, Note_on_c, 0, 77, 43
2, 8127, Note_off_c, 0, 77, 64
2, 8130, Note_on_c, 0, 79, 54
2, 8142, Note_off_c, 0, 79, 64
2, 8145, Note_on_c, 0, 77, 45
2, 8157, Note_off_c, 0, 77, 64
2, 8160, Note_on_c, 0, 55, 54
2, 8160, Note_on_c, 0, 79, 61
2, 8172, Note_off_c, 0, 79, 64
2, 8175, Note_on_c, 0, 77, 44
2, 8187, Note_off_c, 0, 77, 64
2, 8190, Note_on_c, 0, 79, 54
2, 8202, Note_off_c, 0, 79, 64
2, 8205, Note_on_c, 0, 77, 47
2, 8217, Note_off_c, 0, 77, 64
2, 8220, Note_on_c, 0, 79, 43
2, 8232, Note_off_c, 0, 79, 64
2, 8235, Note_on_c, 0, 77, 47
2, 8247, Note_off_c, 0, 77, 64
2, 8250, Note_on_c, 0, 79, 52
2, 8262, Note_off_c, 0, 79, 64
2, 8265, Note_on_c, 0, 77, 52
2, 8277, Note_off_c, 0, 77, 64
2, 8280, Note_on_c, 0, 79, 47
2, 8292, Note_off_c, 0, 79, 64
2, 8295, Note_on_c, 0, 77, 47
2, 8307, Note_off_c, 0, 77, 64
2, 8310, Note_on_c, 0, 79, 44
2, 8322, Note_off_c, 0, 79, 64
2, 8325, Note_on_c, 0, 77, 42
2, 8337, Note_off_c, 0, 77, 64
2, 8340, Note_on_c, 0, 79, 43
2, 8352, Note_off_c, 0, 79, 64
2, 8352, Note_off_c, 0, 55, 64
2, 8355, Note_on_c, 0, 77, 42
2, 8367, Note_off_c, 0, 77, 64
2, 8370, Note_on_c, 0, 76, 43
2, 8382, Note_off_c, 0, 76, 64
2, 8385, Note_on_c, 0, 77, 42
2, 8397, Note_off_c, 0, 77, 64
2, 8400, Note_on_c, 0, 60, 58
2, 8400, Note_on_c, 0, 76, 61
2, 8592, Note_off_c, 0, 76, 64
2, 8592, Note_off_c, 0, 60, 64
2, 8640, Note_on_c, 0, 53, 66
2, 8640, Note_on_c, 0, 74, 52
2, 8832, Note_off_c, 0, 74, 64
2, 8832, Note_off_c, 0, 53, 64
2, 8880, Note_on_c, 0, 81, 61
2, 8944, Note_off_c, 0, 81, 64
2, 8960, Note_on_c, 0, 79, 66
2, 9024, Note_off_c, 0, 79, 64
2, 9040, Note_on_c, 0, 77, 66
2, 9104, Note_off_c, 0, 77, 64
2, 9120, Note_on_c, 0, 76, 58
2, 9184, Note_off_c, 0, 76, 64
2, 9200, Note_on_c, 0, 74, 42
2, 9264, Note_off_c, 0, 74, 64
2, 9280, Note_on_c, 0, 72, 50
2, 9344, Note_off_c, 0, 72, 64
2, 9360, Note_on_c, 0, 72, 77
2, 9360, Note_on_c, 0, 55, 52
2, 9372, Note_off_c, 0, 72, 64
2, 9375, Note_on_c, 0, 71, 47
2, 9387, Note_off_c, 0, 71, 64
2, 9390, Note_on_c, 0, 72, 50
2, 9402, Note_off_c, 0, 72, 64
2, 9405, Note_on_c, 0, 71, 42
2, 9417, Note_off_c, 0, 71, 64
2, 9420, Note_on_c, 0, 72, 52
2, 9432, Note_off_c, 0, 72, 64
2, 9435, Note_on_c, 0, 71, 42
2, 9447, Note_off_c, 0, 71, 64
2, 9450, Note_on_c, 0, 72, 52
2, 9462, Note_off_c, 0, 72, 64
2, 9465, Note_on_c, 0, 71, 42
2, 9477, Note_off_c, 0, 71, 64
2, 9480, Note_on_c, 0, 72, 50
2, 9492, Note_off_c, 0, 72, 64
2, 9495, Note_on_c, 0, 71, 42
2, 9507, Note_off_c, 0, 71, 64
2, 9510, Note_on_c, 0, 72, 50
2, 9522, Note_off_c, 0, 72, 64
2, 9525, Note_on_c, 0, 71, 42
2, 9537, Note_off_c, 0, 71, 64
2, 9540, Note_on_c, 0, 72, 52
2, 9552, Note_off_c, 0, 72, 64
2, 9552, Note_off_c, 0, 55, 64
2, 9555, Note_on_c, 0, 71, 43
2, 9567, Note_off_c, 0, 71, 64
2, 9570, Note_on_c, 0, 72, 54
2, 9582, Note_off_c, 0, 72, 64
2, 9585, Note_on_c, 0, 71, 45
2, 9597, Note_off_c, 0, 71, 64
2, 9600, Note_on_c, 0, 53, 50
2, 9600, Note_on_c, 0, 72, 61
2, 9612, Note_off_c, 0, 72, 64
2, 9615, Note_on_c, 0, 71, 44
2, 9627, Note_off_c, 0, 71, 64
2, 9630, Note_on_c, 0, 72, 54
2, 9642, Note_off_c, 0, 72, 64
2, 9645, Note_on_c, 0, 71, 47
2, 9657, Note_off_c, 0, 71, 64
2, 9660, Note_on_c, 0, 72, 43
2, 9672, Note_off_c, 0, 72, 64
2, 9675, Note_on_c, 0, 71, 47
2, 9687, Note_off_c, 0, 71, 64
2, 9690, Note_on_c, 0, 72, 52
2, 9702, Note_off_c, 0, 72, 64
2, 9705, Note_on_c, 0, 71, 52
2, 9717, Note_off_c, 0, 71, 64
2, 9720, Note_on_c, 0, 72, 47
2, 9732, Note_off_c, 0, 72, 64
2, 9735, Note_on_c, 0, 71, 47
2, 9747, Note_off_c, 0, 71, 64
2, 9750, Note_on_c, 0, 72, 44
2, 9762, Note_off_c, 0, 72, 64
2, 9765, Note_on_c, 0, 71, 42
2, 9777, Note_off_c, 0, 71, 64
2, 9780, Note_on_c, 0, 72, 43
2, 9792, Note_off_c, 0, 72, 64
2, 9792, Note_off_c, 0, 53, 64
2, 9795, Note_on_c, 0, 71, 42
2, 9807, Note_off_c, 0, 71, 64
2, 9810, Note_on_c, 0, 69, 43
2, 9822, Note_off_c, 0, 69, 64
2, 9825, Note_on_c, 0, 71, 42
2, 9837, Note_off_c, 0, 71, 64
2, 9840, Note_on_c, 0, 52, 52
2, 9840, Note_on_c, 0, 72, 71
2, 10032, Note_off_c, 0, 72, 64
2, 10032, Note_off_c, 0, 52, 64
2, 10080, Note_on_c, 0, 67, 54
2, 10272, Note_off_c, 0, 67, 64
2, 10320, Note_on_c, 0, 59, 43
2, 10320, Note_on_c, 0, 77, 58
2, 10320, Note_on_c, 0, 74, 77
2, 10512, Note_off_c, 0, 74, 64
2, 10512, Note_off_c, 0, 77, 64
2, 10512, Note_off_c, 0, 59, 64
2, 10560, Note_on_c, 0, 60, 52
2, 10560, Note_on_c, 0, 76, 58
2, 10560, Note_on_c, 0, 72, 53
2, 10752, Note_off_c, 0, 72, 64
2, 10752, Note_off_c, 0, 76, 64
2, 10752, Note_off_c, 0, 60, 64
2, 10800, Note_on_c, 0, 55, 58
2, 10800, Note_on_c, 0, 76, 65
2, 10800, Note_on_c, 0, 72, 51
2, 10992, Note_off_c, 0, 72, 64
2, 10992, Note_off_c, 0, 76, 64
2, 10992, Note_off_c, 0, 55, 64
2, 11040, Note_on_c, 0, 67, 42
2, 11040, Note_on_c, 0, 71, 43
2, 11040, Note_on_c, 0, 74, 45
2, 11232, Note_off_c, 0, 74, 64
2, 11232, Note_off_c, 0, 71, 64
2, 11232, Note_off_c, 0, 67, 64
2, 11280, Note_on_c, 0, 55, 47
2, 11472, Note_off_c, 0, 55, 64
2, 11520, Note_on_c, 0, 79, 40
2, 11520, Note_on_c, 0, 52, 50
2, 11520, Note_on_c, 0, 60, 44
2, 11712, Note_off_c, 0, 79, 64
2, 11760, Note_on_c, 0, 72, 61
2, 11824, Note_off_c, 0, 72, 64
2, 11840, Note_on_c, 0, 76, 54
2, 11904, Note_off_c, 0, 76, 64
2, 11904, Note_off_c, 0, 60, 64
2, 11904, Note_off_c, 0, 52, 64
2, 11920, Note_on_c, 0, 79, 58
2, 11984, Note_off_c, 0, 79, 64
2, 12000, Note_on_c, 0, 60, 42
2, 12000, Note_on_c, 0, 52, 49
2, 12000, Note_on_c, 0, 76, 66
2, 12064, Note_off_c, 0, 76, 64
2, 12080, Note_on_c, 0, 79, 71
2, 12144, Note_off_c, 0, 79, 64
2, 12160, Note_on_c, 0, 82, 77
2, 12192, Note_off_c, 0, 52, 64
2, 12192, Note_off_c, 0, 60, 64
2, 12224, Note_off_c, 0, 82, 64
2, 12240, Note_on_c, 0, 53, 71
2, 12240, Note_on_c, 0, 82, 83
2, 12432, Note_off_c, 0, 82, 64
2, 12432, Note_off_c, 0, 53, 64
2, 12480, Note_on_c, 0, 65, 52
2, 12480, Note_on_c, 0, 81, 45
2, 12672, Note_off_c, 0, 81, 64
2, 12672, Note_off_c, 0, 65, 64
2, 12720, Note_on_c, 0, 64, 54
2, 12720, Note_on_c, 0, 79, 45
2, 12912, Note_off_c, 0, 79, 64
2, 12912, Note_off_c, 0, 64, 64
2, 12960, Note_on_c, 0, 62, 77
2, 12960, Note_on_c, 0, 77, 44
2, 13024, Note_off_c, 0, 77, 64
2, 13040, Note_on_c, 0, 76, 45
2, 13104, Note_off_c, 0, 76, 64
2, 13120, Note_on_c, 0, 77, 44
2, 13152, Note_off_c, 0, 62, 64
2, 13184, Note_off_c, 0, 77, 64
2, 13200, Note_on_c, 0, 65, 50
2, 13200, Note_on_c, 0, 81, 43
2, 13264, Note_off_c, 0, 81, 64
2, 13280, Note_on_c, 0, 79, 50
2, 13344, Note_off_c, 0, 79, 64
2, 13360, Note_on_c, 0, 77, 66
2, 13392, Note_off_c, 0, 65, 64
2, 13424, Note_off_c, 0, 77, 64
2, 13440, Note_on_c, 0, 66, 77
2, 13440, Note_on_c, 0, 76, 71
2, 13504, Note_off_c, 0, 76, 64
2, 13520, Note_on_c, 0, 74, 54
2, 13584, Note_off_c, 0, 74, 64
2, 13600, Note_on_c, 0, 72, 42
2, 13632, Note_off_c, 0, 66, 64
2, 13664, Note_off_c, 0, 72, 64
2, 13680, Note_on_c, 0, 67, 50
2, 13680, Note_on_c, 0, 72, 47
2, 13872, Note_off_c, 0, 67, 64
2, 13920, Note_on_c, 0, 62, 71
2, 14064, Note_off_c, 0, 72, 64
2, 14112, Note_off_c, 0, 62, 64
2, 14160, Note_on_c, 0, 55, 52
2, 14160, Note_on_c, 0, 71, 58
2, 14352, Note_off_c, 0, 71, 64
2, 14352, Note_off_c, 0, 55, 64
2, 14400, Note_on_c, 0, 72, 83
2, 14400, Note_on_c, 0, 64, 62
2, 14400, Note_on_c, 0, 60, 71
2, 14592, Note_off_c, 0, 72, 64
2, 14640, Note_on_c, 0, 67, 45
2, 14704, Note_off_c, 0, 67, 64
2, 14720, Note_on_c, 0, 72, 71
2, 14784, Note_off_c, 0, 72, 64
2, 14784, Note_off_c, 0, 60, 64
2, 14784, Note_off_c, 0, 64, 64
2, 14800, Note_on_c, 0, 76, 81
2, 14864, Note_off_c, 0, 76, 64
2, 14880, Note_on_c, 0, 65, 42
2, 14880, Note_on_c, 0, 55, 50
2, 14880, Note_on_c, 0, 74, 71
2, 14944, Note_off_c, 0, 74, 64
2, 14960, Note_on_c, 0, 72, 66
2, 15024, Note_off_c, 0, 72, 64
2, 15040, Note_on_c, 0, 71, 50
2, 15072, Note_off_c, 0, 55, 64
2, 15072, Note_off_c, 0, 65, 64
2, 15104, Note_off_c, 0, 71, 64
2, 15120, Note_on_c, 0, 72, 83
2, 15120, Note_on_c, 0, 60, 54
2, 15120, Note_on_c, 0, 64, 42
2, 15312, Note_off_c, 0, 72, 64
2, 15360, Note_on_c, 0, 67, 45
2, 15424, Note_off_c, 0, 67, 64
2, 15440, Note_on_c, 0, 72, 71
2, 15504, Note_off_c, 0, 72, 64
2, 15504, Note_off_c, 0, 64, 64
2, 15504, Note_off_c, 0, 60, 64
2, 15520, Note_on_c, 0, 76, 81
2, 15584, Note_off_c, 0, 76, 64
2, 15600, Note_on_c, 0, 55, 54
2, 15600, Note_on_c, 0, 65, 39
2, 15600, Note_on_c, 0, 74, 71
2, 15664, Note_off_c, 0, 74, 64
2, 15680, Note_on_c, 0, 72, 66
2, 15744, Note_off_c, 0, 72, 64
2, 15760, Note_on_c, 0, 71, 50
2, 15792, Note_off_c, 0, 65, 64
2, 15792, Note_off_c, 0, 55, 64
2, 15824, Note_off_c, 0, 71, 64
2, 15840, Note_on_c, 0, 60, 50
2, 15840, Note_on_c, 0, 64, 30
2, 15840, Note_on_c, 0, 72, 52
2, 16032, Note_off_c, 0, 72, 64
2, 16032, Note_off_c, 0, 64, 64
2, 16032, Note_off_c, 0, 60, 64
2, 16080, Note_on_c, 0, 79, 61
2, 16144, Note_off_c, 0, 79, 64
2, 16160, Note_on_c, 0, 81, 66
2, 16224, Note_off_c, 0, 81, 64
2, 16240, Note_on_c, 0, 83, 66
2, 16304, Note_off_c, 0, 83, 64
2, 16320, Note_on_c, 0, 60, 66
2, 16320, Note_on_c, 0, 84, 58
2, 16384, Note_off_c, 0, 84, 64
2, 16400, Note_on_c, 0, 79, 42
2, 16464, Note_off_c, 0, 79, 64
2, 16480, Note_on_c, 0, 76, 50
2, 16512, Note_off_c, 0, 60, 64
2, 16544, Note_off_c, 0, 76, 64
2, 16560, Note_on_c, 0, 79, 77
2, 16560, Note_on_c, 0, 62, 42
2, 16572, Note_off_c, 0, 79, 64
2, 16575, Note_on_c, 0, 77, 47
2, 16587, Note_off_c, 0, 77, 64
2, 16590, Note_on_c, 0, 79, 50
2, 16602, Note_off_c, 0, 79, 64
2, 16605, Note_on_c, 0, 77, 42
2, 16617, Note_off_c, 0, 77, 64
2, 16620, Note_on_c, 0, 79, 52
2, 16632, Note_off_c, 0, 79, 64
2, 16635, Note_on_c, 0, 77, 42
2, 16647, Note_off_c, 0, 77, 64
2, 16650, Note_on_c, 0, 79, 52
2, 16662, Note_off_c, 0, 79, 64
2, 16665, Note_on_c, 0, 77, 42
2, 16677, Note_off_c, 0, 77, 64
2, 16680, Note_on_c, 0, 79, 50
2, 16692, Note_off_c, 0, 79, 64
2, 16695, Note_on_c, 0, 77, 42
2, 16707, Note_off_c, 0, 77, 64
2, 16710, Note_on_c, 0, 79, 50
2, 16722, Note_off_c, 0, 79, 64
2, 16725, Note_on_c, 0, 77, 42
2, 16737, Note_off_c, 0, 77, 64
2, 16740, Note_on_c, 0, 79, 52
2, 16752, Note_off_c, 0, 79, 64
2, 16752, Note_off_c, 0, 62, 64
2, 16755, Note_on_c, 0, 77, 43
2, 16767, Note_off_c, 0, 77, 64
2, 16770, Note_on_c, 0, 79, 54
2, 16782, Note_off_c, 0, 79, 64
2, 16785, Note_on_c, 0, 77, 45
2, 16797, Note_off_c, 0, 77, 64
2, 16800, Note_on_c, 0, 55, 54
2, 16800, Note_on_c, 0, 79, 61
2, 16812, Note_off_c, 0, 79, 64
2, 16815, Note_on_c, 0, 77, 44
2, 16827, Note_off_c, 0, 77, 64
2, 16830, Note_on_c, 0, 79, 54
2, 16842, Note_off_c, 0, 79, 64
2, 16845, Note_on_c, 0, 77, 47
2, 16857, Note_off_c, 0, 77, 64
2, 16860, Note_on_c, 0, 79, 43
2, 16872, Note_off_c, 0, 79, 64
2, 16875, Note_on_c, 0, 77, 47
2, 16887, Note_off_c, 0, 77, 64
2, 16890, Note_on_c, 0, 79, 52
2, 16902, Note_off_c, 0, 79, 64
2, 16905, Note_on_c, 0, 77, 52
2, 16917, Note_off_c, 0, 77, 64
2, 16920, Note_on_c, 0, 79, 47
2, 16932, Note_off_c, 0, 79, 64
2, 16935, Note_on_c, 0, 77, 47
2, 16947, Note_off_c, 0, 77, 64
2, 16950, Note_on_c, 0, 79, 44
2, 16962, Note_off_c, 0, 79, 64
2, 16965, Note_on_c, 0, 77, 42
2, 16977, Note_off_c, 0, 77, 64
2, 16980, Note_on_c, 0, 79, 43
2, 16992, Note_off_c, 0, 79, 64
2, 16992, Note_off_c, 0, 55, 64
2, 16995, Note_on_c, 0, 77, 42
2, 17007, Note_off_c, 0, 77, 64
2, 17010, Note_on_c, 0, 76, 43
2, 17022, Note_off_c, 0, 76, 64
2, 17025, Note_on_c, 0, 77, 42
2, 17037, Note_off_c, 0, 77, 64
2, 17040, Note_on_c, 0, 60, 47
2, 17040, Note_on_c, 0, 76, 61
2, 17232, Note_off_c, 0, 76, 64
2, 17232, Note_off_c, 0, 60, 64
2, 17280, Note_on_c, 0, 53, 42
2, 17280, Note_on_c, 0, 74, 52
2, 17472, Note_off_c, 0, 74, 64
2, 17472, Note_off_c, 0, 53, 64
2, 17520, Note_on_c, 0, 81, 61
2, 17584, Note_off_c, 0, 81, 64
2, 17600, Note_on_c, 0, 79, 66
2, 17664, Note_off_c, 0, 79, 64
2, 17680, Note_on_c, 0, 77, 66
2, 17744, Note_off_c, 0, 77, 64
2, 17760, Note_on_c, 0, 76, 58
2, 17824, Note_off_c, 0, 76, 64
2, 17840, Note_on_c, 0, 74, 42
2, 17904, Note_off_c, 0, 74, 64
2, 17920, Note_on_c, 0, 72, 50
2, 17984, Note_off_c, 0, 72, 64
2, 18000, Note_on_c, 0, 72, 77
2, 18000, Note_on_c, 0, 55, 61
2, 18012, Note_off_c, 0, 72, 64
2, 18015, Note_on_c, 0, 71, 47
2, 18027, Note_off_c, 0, 71, 64
2, 18030, Note_on_c, 0, 72, 50
2, 18042, Note_off_c, 0, 72, 64
2, 18045, Note_on_c, 0, 71, 42
2, 18057, Note_off_c, 0, 71, 64
2, 18060, Note_on_c, 0, 72, 52
2, 18072, Note_off_c, 0, 72, 64
2, 18075, Note_on_c, 0, 71, 42
2, 18087, Note_off_c, 0, 71, 64
2, 18090, Note_on_c, 0, 72, 52
2, 18102, Note_off_c, 0, 72, 64
2, 18105, Note_on_c, 0, 71, 42
2, 18117, Note_off_c, 0, 71, 64
2, 18120, Note_on_c, 0, 72, 50
2, 18132, Note_off_c, 0, 72, 64
2, 18135, Note_on_c, 0, 71, 42
2, 18147, Note_off_c, 0, 71, 64
2, 18150, Note_on_c, 0, 72, 50
2, 18162, Note_off_c, 0, 72, 64
2, 18165, Note_on_c, 0, 71, 42
2, 18177, Note_off_c, 0, 71, 64
2, 18180, Note_on_c, 0, 72, 52
2, 18192, Note_off_c, 0, 72, 64
2, 18192, Note_off_c, 0, 55, 64
2, 18195, Note_on_c, 0, 71, 43
2, 18207, Note_off_c, 0, 71, 64
2, 18210, Note_on_c, 0, 72, 54
2, 18222, Note_off_c, 0, 72, 64
2, 18225, Note_on_c, 0, 71, 45
2, 18237, Note_off_c, 0, 71, 64
2, 18240, Note_on_c, 0, 53, 61
2, 18240, Note_on_c, 0, 72, 61
2, 18252, Note_off_c, 0, 72, 64
2, 18255, Note_on_c, 0, 71, 44
2, 18267, Note_off_c, 0, 71, 64
2, 18270, Note_on_c, 0, 72, 54
2, 18282, Note_off_c, 0, 72, 64
2, 18285, Note_on_c, 0, 71, 47
2, 18297, Note_off_c, 0, 71, 64
2, 18300, Note_on_c, 0, 72, 43
2, 18312, Note_off_c, 0, 72, 64
2, 18315, Note_on_c, 0, 71, 47
2, 18327, Note_off_c, 0, 71, 64
2, 18330, Note_on_c, 0, 72, 52
2, 18342, Note_off_c, 0, 72, 64
2, 18345, Note_on_c, 0, 71, 52
2, 18357, Note_off_c, 0, 71, 64
2, 18360, Note_on_c, 0, 72, 47
2, 18372, Note_off_c, 0, 72, 64
2, 18375, Note_on_c, 0, 71, 47
2, 18387, Note_off_c, 0, 71, 64
2, 18390, Note_on_c, 0, 72, 44
2, 18402, Note_off_c, 0, 72, 64
2, 18405, Note_on_c, 0, 71, 42
2, 18417, Note_off_c, 0, 71, 64
2, 18420, Note_on_c, 0, 72, 43
2, 18432, Note_off_c, 0, 72, 64
2, 18432, Note_off_c, 0, 53, 64
2, 18435, Note_on_c, 0, 71, 42
2, 18447, Note_off_c, 0, 71, 64
2, 18450, Note_on_c, 0, 69, 43
2, 18462, Note_off_c, 0, 69, 64
2, 18465, Note_on_c, 0, 71, 42
2, 18477, Note_off_c, 0, 71, 64
2, 18480, Note_on_c, 0, 52, 54
2, 18480, Note_on_c, 0, 72, 71
2, 18672, Note_off_c, 0, 72, 64
2, 18672, Note_off_c, 0, 52, 64
2, 18720, Note_on_c, 0, 83, 45
2, 18720, Note_on_c, 0, 53, 54
2, 18768, Note_off_c, 0, 83, 64
2, 18780, Note_on_c, 0, 81, 61
2, 18828, Note_off_c, 0, 81, 64
2, 18840, Note_on_c, 0, 79, 61
2, 18888, Note_off_c, 0, 79, 64
2, 18900, Note_on_c, 0, 77, 52
2, 18912, Note_off_c, 0, 53, 64
2, 18948, Note_off_c, 0, 77, 64
2, 18960, Note_on_c, 0, 55, 50
2, 18960, Note_on_c, 0, 76, 44
2, 19152, Note_off_c, 0, 76, 64
2, 19152, Note_off_c, 0, 55, 64
2, 19200, Note_on_c, 0, 43, 61
2, 19200, Note_on_c, 0, 76, 45
2, 19212, Note_off_c, 0, 76, 64
2, 19215, Note_on_c, 0, 74, 31
2, 19227, Note_off_c, 0, 74, 64
2, 19230, Note_on_c, 0, 76, 42
2, 19242, Note_off_c, 0, 76, 64
2, 19245, Note_on_c, 0, 74, 42
2, 19257, Note_off_c, 0, 74, 64
2, 19260, Note_on_c, 0, 76, 43
2, 19272, Note_off_c, 0, 76, 64
2, 19275, Note_on_c, 0, 74, 42
2, 19287, Note_off_c, 0, 74, 64
2, 19290, Note_on_c, 0, 76, 50
2, 19302, Note_off_c, 0, 76, 64
2, 19305, Note_on_c, 0, 74, 42
2, 19317, Note_off_c, 0, 74, 64
2, 19320, Note_on_c, 0, 76, 54
2, 19332, Note_off_c, 0, 76, 64
2, 19335, Note_on_c, 0, 74, 42
2, 19347, Note_off_c, 0, 74, 64
2, 19350, Note_on_c, 0, 76, 42
2, 19362, Note_off_c, 0, 76, 64
2, 19365, Note_on_c, 0, 74, 42
2, 19377, Note_off_c, 0, 74, 64
2, 19380, Note_on_c, 0, 76, 50
2, 19392, Note_off_c, 0, 76, 64
2, 19392, Note_off_c, 0, 43, 64
2, 19395, Note_on_c, 0, 74, 42
2, 19407, Note_off_c, 0, 74, 64
2, 19410, Note_on_c, 0, 72, 50
2, 19422, Note_off_c, 0, 72, 64
2, 19425, Note_on_c, 0, 74, 43
2, 19437, Note_off_c, 0, 74, 64
2, 19440, Note_on_c, 0, 48, 52
2, 19440, Note_on_c, 0, 72, 80
2, 19632, Note_off_c, 0, 72, 64
2, 19632, Note_off_c, 0, 48, 64
2, 19680, Note_on_c, 0, 43, 58
2, 19872, Note_off_c, 0, 43, 64
2, 19920, Note_on_c, 0, 36, 52
2, 20112, Note_off_c, 0, 36, 64
2, 20160, Note_on_c, 0, 79, 40
2, 20160, Note_on_c, 0, 52, 50
2, 20160, Note_on_c, 0, 60, 44
2, 20352, Note_off_c, 0, 79, 64
2, 20400, Note_on_c, 0, 72, 61
2, 20464, Note_off_c, 0, 72, 64
2, 20480, Note_on_c, 0, 76, 54
2, 20544, Note_off_c, 0, 76, 64
2, 20544, Note_off_c, 0, 60, 64
2, 20544, Note_off_c, 0, 52, 64
2, 20560, Note_on_c, 0, 79, 58
2, 20624, Note_off_c, 0, 79, 64
2, 20640, Note_on_c, 0, 60, 42
2, 20640, Note_on_c, 0, 52, 49
2, 20640, Note_on_c, 0, 76, 66
2, 20704, Note_off_c, 0, 76, 64
2, 20720, Note_on_c, 0, 79, 71
2, 20784, Note_off_c, 0, 79, 64
2, 20800, Note_on_c, 0, 82, 77
2, 20832, Note_off_c, 0, 52, 64
2, 20832, Note_off_c, 0, 60, 64
2, 20864, Note_off_c, 0, 82, 64
2, 20880, Note_on_c, 0, 53, 71
2, 20880, Note_on_c, 0, 82, 83
2, 21072, Note_off_c, 0, 82, 64
2, 21072, Note_off_c, 0, 53, 64
2, 21120, Note_on_c, 0, 65, 52
2, 21120, Note_on_c, 0, 81, 45
2, 21312, Note_off_c, 0, 81, 64
2, 21312, Note_off_c, 0, 65, 64
2, 21360, Note_on_c, 0, 64, 54
2, 21360, Note_on_c, 0, 79, 45
2, 21552, Note_off_c, 0, 79, 64
2, 21552, Note_off_c, 0, 64, 64
2, 21600, Note_on_c, 0, 62, 77
2, 21600, Note_on_c, 0, 77, 44
2, 21664, Note_off_c, 0, 77, 64
2, 21680, Note_on_c, 0, 76, 45
2, 21744, Note_off_c, 0, 76, 64
2, 21760, Note_on_c, 0, 77, 44
2, 21792, Note_off_c, 0, 62, 64
2, 21824, Note_off_c, 0, 77, 64
2, 21840, Note_on_c, 0, 65, 50
2, 21840, Note_on_c, 0, 81, 43
2, 21904, Note_off_c, 0, 81, 64
2, 21920, Note_on_c, 0, 79, 50
2, 21984, Note_off_c, 0, 79, 64
2, 22000, Note_on_c, 0, 77, 66
2, 22032, Note_off_c, 0, 65, 64
2, 22064, Note_off_c, 0, 77, 64
2, 22080, Note_on_c, 0, 66, 77
2, 22080, Note_on_c, 0, 76, 71
2, 22144, Note_off_c, 0, 76, 64
2, 22160, Note_on_c, 0, 74, 54
2, 22224, Note_off_c, 0, 74, 64
2, 22240, Note_on_c, 0, 72, 42
2, 22272, Note_off_c, 0, 66, 64
2, 22304, Note_off_c, 0, 72, 64
2, 22320, Note_on_c, 0, 67, 50
2, 22320, Note_on_c, 0, 72, 47
2, 22512, Note_off_c, 0, 67, 64
2, 22560, Note_on_c, 0, 62, 71
2, 22704, Note_off_c, 0, 72, 64
2, 22752, Note_off_c, 0, 62, 64
2, 22800, Note_on_c, 0, 55, 52
2, 22800, Note_on_c, 0, 71, 58
2, 22992, Note_off_c, 0, 71, 64
2, 22992, Note_off_c, 0, 55, 64
2, 23040, Note_on_c, 0, 72, 83
2, 23040, Note_on_c, 0, 64, 62
2, 23040, Note_on_c, 0, 60, 71
2, 23232, Note_off_c, 0, 72, 64
2, 23280, Note_on_c, 0, 67, 45
2, 23344, Note_off_c, 0, 67, 64
2, 23360, Note_on_c, 0, 72, 71
2, 23424, Note_off_c, 0, 72, 64
2, 23424, Note_off_c, 0, 60, 64
2, 23424, Note_off_c, 0, 64, 64
2, 23440, Note_on_c, 0, 76, 81
2, 23504, Note_off_c, 0, 76, 64
2, 23520, Note_on_c, 0, 65, 42
2, 23520, Note_on_c, 0, 55, 50
2, 23520, Note_on_c, 0, 74, 71
2, 23584, Note_off_c, 0, 74, 64
2, 23600, Note_on_c, 0, 72, 66
2, 23664, Note_off_c, 0, 72, 64
2, 23680, Note_on_c, 0, 71, 50
2, 23712, Note_off_c, 0, 55, 64
2, 23712, Note_off_c, 0, 65, 64
2, 23744, Note_off_c, 0, 71, 64
2, 23760, Note_on_c, 0, 72, 83
2, 23760, Note_on_c, 0, 60, 54
2, 23760, Note_on_c, 0, 64, 42
2, 23952, Note_off_c, 0, 72, 64
2, 24000, Note_on_c, 0, 67, 45
2, 24064, Note_off_c, 0, 67, 64
2, 24080, Note_on_c, 0, 72, 71
2, 24144, Note_off_c, 0, 72, 64
2, 24144, Note_off_c, 0, 64, 64
2, 24144, Note_off_c, 0, 60, 64
2, 24160, Note_on_c, 0, 76, 81
2, 24224, Note_off_c, 0, 76, 64
2, 24240, Note_on_c, 0, 55, 54
2, 24240, Note_on_c, 0, 65, 39
2, 24240, Note_on_c, 0, 74, 71
2, 24304, Note_off_c, 0, 74, 64
2, 24320, Note_on_c, 0, 72, 66
2, 24384, Note_off_c, 0, 72, 64
2, 24400, Note_on_c, 0, 71, 50
2, 24432, Note_off_c, 0, 65, 64
2, 24432, Note_off_c, 0, 55, 64
2, 24464, Note_off_c, 0, 71, 64
2, 24480, Note_on_c, 0, 60, 50
2, 24480, Note_on_c, 0, 64, 30
2, 24480, Note_on_c, 0, 72, 52
2, 24672, Note_off_c, 0, 72, 64
2, 24672, Note_off_c, 0, 64, 64
2, 24672, Note_off_c, 0, 60, 64
2, 24720, Note_on_c, 0, 79, 61
2, 24784, Note_off_c, 0, 79, 64
2, 24800, Note_on_c, 0, 81, 66
2, 24864, Note_off_c, 0, 81, 64
2, 24880, Note_on_c, 0, 83, 66
2, 24944, Note_off_c, 0, 83, 64
2, 24960, Note_on_c, 0, 60, 66
2, 24960, Note_on_c, 0, 84, 58
2, 25024, Note_off_c, 0, 84, 64
2, 25040, Note_on_c, 0, 79, 42
2, 25104, Note_off_c, 0, 79, 64
2, 25120, Note_on_c, 0, 76, 50
2, 25152, Note_off_c, 0, 60, 64
2, 25184, Note_off_c, 0, 76, 64
2, 25200, Note_on_c, 0, 79, 77
2, 25200, Note_on_c, 0, 62, 42
2, 25212, Note_off_c, 0, 79, 64
2, 25215, Note_on_c, 0, 77, 47
2, 25227, Note_off_c, 0, 77, 64
2, 25230, Note_on_c, 0, 79, 50
2, 25242, Note_off_c, 0, 79, 64
2, 25245, Note_on_c, 0, 77, 42
2, 25257, Note_off_c, 0, 77, 64
2, 25260, Note_on_c, 0, 79, 52
2, 25272, Note_off_c, 0, 79, 64
2, 25275, Note_on_c, 0, 77, 42
2, 25287, Note_off_c, 0, 77, 64
2, 25290, Note_on_c, 0, 79, 52
2, 25302, Note_off_c, 0, 79, 64
2, 25305, Note_on_c, 0, 77, 42
2, 25317, Note_off_c, 0, 77, 64
2, 25320, Note_on_c, 0, 79, 50
2, 25332, Note_off_c, 0, 79, 64
2, 25335, Note_on_c, 0, 77, 42
2, 25347, Note_off_c, 0, 77, 64
2, 25350, Note_on_c, 0, 79, 50
2, 25362, Note_off_c, 0, 79, 64
2, 25365, Note_on_c, 0, 77, 42
2, 25377, Note_off_c, 0, 77, 64
2, 25380, Note_on_c, 0, 79, 52
2, 25392, Note_off_c, 0, 79, 64
2, 25392, Note_off_c, 0, 62, 64
2, 25395, Note_on_c, 0, 77, 43
2, 25407, Note_off_c, 0, 77, 64
2, 25410, Note_on_c, 0, 79, 54
2, 25422, Note_off_c, 0, 79, 64
2, 25425, Note_on_c, 0, 77, 45
2, 25437, Note_off_c, 0, 77, 64
2, 25440, Note_on_c, 0, 55, 54
2, 25440, Note_on_c, 0, 79, 61
2, 25452, Note_off_c, 0, 79, 64
2, 25455, Note_on_c, 0, 77, 44
2, 25467, Note_off_c, 0, 77, 64
2, 25470, Note_on_c, 0, 79, 54
2, 25482, Note_off_c, 0, 79, 64
2, 25485, Note_on_c, 0, 77, 47
2, 25497, Note_off_c, 0, 77, 64
2, 25500, Note_on_c, 0, 79, 43
2, 25512, Note_off_c, 0, 79, 64
2, 25515, Note_on_c, 0, 77, 47
2, 25527, Note_off_c, 0, 77, 64
2, 25530, Note_on_c, 0, 79, 52
2, 25542, Note_off_c, 0, 79, 64
2, 25545, Note_on_c, 0, 77, 52
2, 25557, Note_off_c, 0, 77, 64
2, 25560, Note_on_c, 0, 79, 47
2, 25572, Note_off_c, 0, 79, 64
2, 25575, Note_on_c, 0, 77, 47
2, 25587, Note_off_c, 0, 77, 64
2, 25590, Note_on_c, 0, 79, 44
2, 25602, Note_off_c, 0, 79, 64
2, 25605, Note_on_c, 0, 77, 42
2, 25617, Note_off_c, 0, 77, 64
2, 25620, Note_on_c, 0, 79, 43
2, 25632, Note_off_c, 0, 79, 64
2, 25632, Note_off_c, 0, 55, 64
2, 25635, Note_on_c, 0, 77, 42
2, 25647, Note_off_c, 0, 77, 64
2, 25650, Note_on_c, 0, 76, 43
2, 25662, Note_off_c, 0, 76, 64
2, 25665, Note_on_c, 0, 77, 42
2, 25677, Note_off_c, 0, 77, 64
2, 25680, Note_on_c, 0, 60, 47
2, 25680, Note_on_c, 0, 76, 61
2, 25872, Note_off_c, 0, 76, 64
2, 25872, Note_off_c, 0, 60, 64
2, 25920, Note_on_c, 0, 53, 42
2, 25920, Note_on_c, 0, 74, 52
2, 26112, Note_off_c, 0, 74, 64
2, 26112, Note_off_c, 0, 53, 64
2, 26160, Note_on_c, 0, 81, 61
2, 26224, Note_off_c, 0, 81, 64
2, 26240, Note_on_c, 0, 79, 66
2, 26304, Note_off_c, 0, 79, 64
2, 26320, Note_on_c, 0, 77, 66
2, 26384, Note_off_c, 0, 77, 64
2, 26400, Note_on_c, 0, 76, 58
2, 26464, Note_off_c, 0, 76, 64
2, 26480, Note_on_c, 0, 74, 42
2, 26544, Note_off_c, 0, 74, 64
2, 26560, Note_on_c, 0, 72, 50
2, 26624, Note_off_c, 0, 72, 64
2, 26640, Note_on_c, 0, 72, 77
2, 26640, Note_on_c, 0, 55, 61
2, 26652, Note_off_c, 0, 72, 64
2, 26655, Note_on_c, 0, 71, 47
2, 26667, Note_off_c, 0, 71, 64
2, 26670, Note_on_c, 0, 72, 50
2, 26682, Note_off_c, 0, 72, 64
2, 26685, Note_on_c, 0, 71, 42
2, 26697, Note_off_c, 0, 71, 64
2, 26700, Note_on_c, 0, 72, 52
2, 26712, Note_off_c, 0, 72, 64
2, 26715, Note_on_c, 0, 71, 42
2, 26727, Note_off_c, 0, 71, 64
2, 26730, Note_on_c, 0, 72, 52
2, 26742, Note_off_c, 0, 72, 64
2, 26745, Note_on_c, 0, 71, 42
2, 26757, Note_off_c, 0, 71, 64
2, 26760, Note_on_c, 0, 72, 50
2, 26772, Note_off_c, 0, 72, 64
2, 26775, Note_on_c, 0, 71, 42
2, 26787, Note_off_c, 0, 71, 64
2, 26790, Note_on_c, 0, 72, 50
2, 26802, Note_off_c, 0, 72, 64
2, 26805, Note_on_c, 0, 71, 42
2, 26817, Note_off_c, 0, 71, 64
2, 26820, Note_on_c, 0, 72, 52
2, 26832, Note_off_c, 0, 72, 64
2, 26832, Note_off_c, 0, 55, 64
2, 26835, Note_on_c, 0, 71, 43
2, 26847, Note_off_c, 0, 71, 64
2, 26850, Note_on_c, 0, 72, 54
2, 26862, Note_off_c, 0, 72, 64
2, 26865, Note_on_c, 0, 71, 45
2, 26877, Note_off_c, 0, 71, 64
2, 26880, Note_on_c, 0, 53, 61
2, 26880, Note_on_c, 0, 72, 61
2, 26892, Note_off_c, 0, 72, 64
2, 26895, Note_on_c, 0, 71, 44
2, 26907, Note_off_c, 0, 71, 64
2, 26910, Note_on_c, 0, 72, 54
2, 26922, Note_off_c, 0, 72, 64
2, 26925, Note_on_c, 0, 71, 47
2, 26937, Note_off_c, 0, 71, 64
2, 26940, Note_on_c, 0, 72, 43
2, 26952, Note_off_c, 0, 72, 64
2, 26955, Note_on_c, 0, 71, 47
2, 26967, Note_off_c, 0, 71, 64
2, 26970, Note_on_c, 0, 72, 52
2, 26982, Note_off_c, 0, 72, 64
2, 26985, Note_on_c, 0, 71, 52
2, 26997, Note_off_c, 0, 71, 64
2, 27000, Note_on_c, 0, 72, 47
2, 27012, Note_off_c, 0, 72, 64
2, 27015, Note_on_c, 0, 71, 47
2, 27027, Note_off_c, 0, 71, 64
2, 27030, Note_on_c, 0, 72, 44
2, 27042, Note_off_c, 0, 72, 64
2, 27045, Note_on_c, 0, 71, 42
2, 27057, Note_off_c, 0, 71, 64
2, 27060, Note_on_c, 0, 72, 43
2, 27072, Note_off_c, 0, 72, 64
2, 27072, Note_off_c, 0, 53, 64
2, 27075, Note_on_c, 0, 71, 42
2, 27087, Note_off_c, 0, 71, 64
2, 27090, Note_on_c, 0, 69, 43
2, 27102, Note_off_c, 0, 69, 64
2, 27105, Note_on_c, 0, 71, 42
2, 27117, Note_off_c, 0, 71, 64
2, 27120, Note_on_c, 0, 52, 54
2, 27120, Note_on_c, 0, 72, 71
2, 27312, Note_off_c, 0, 72, 64
2, 27312, Note_off_c, 0, 52, 64
2, 27360, Note_on_c, 0, 83, 45
2, 27360, Note_on_c, 0, 53, 54
2, 27408, Note_off_c, 0, 83, 64
2, 27420, Note_on_c, 0, 81, 61
2, 27468, Note_off_c, 0, 81, 64
2, 27480, Note_on_c, 0, 79, 61
2, 27528, Note_off_c, 0, 79, 64
2, 27540, Note_on_c, 0, 77, 52
2, 27552, Note_off_c, 0, 53, 64
2, 27588, Note_off_c, 0, 77, 64
2, 27600, Note_on_c, 0, 55, 50
2, 27600, Note_on_c, 0, 76, 44
2, 27792, Note_off_c, 0, 76, 64
2, 27792, Note_off_c, 0, 55, 64
2, 27840, Note_on_c, 0, 43, 61
2, 27840, Note_on_c, 0, 76, 45
2, 27852, Note_off_c, 0, 76, 64
2, 27855, Note_on_c, 0, 74, 31
2, 27867, Note_off_c, 0, 74, 64
2, 27870, Note_on_c, 0, 76, 42
2, 27882, Note_off_c, 0, 76, 64
2, 27885, Note_on_c, 0, 74, 42
2, 27897, Note_off_c, 0, 74, 64
2, 27900, Note_on_c, 0, 76, 43
2, 27912, Note_off_c, 0, 76, 64
2, 27915, Note_on_c, 0, 74, 42
2, 27927, Note_off_c, 0, 74, 64
2, 27930, Note_on_c, 0, 76, 50
2, 27942, Note_off_c, 0, 76, 64
2, 27945, Note_on_c, 0, 74, 42
2, 27957, Note_off_c, 0, 74, 64
2, 27960, Note_on_c, 0, 76, 54
2, 27972, Note_off_c, 0, 76, 64
2, 27975, Note_on_c, 0, 74, 42
2, 27987, Note_off_c, 0, 74, 64
2, 27990, Note_on_c, 0, 76, 42
2, 28002, Note_off_c, 0, 76, 64
2, 28005, Note_on_c, 0, 74, 42
2, 28017, Note_off_c, 0, 74, 64
2, 28020, Note_on_c, 0, 76, 50
2, 28032, Note_off_c, 0, 76, 64
2, 28032, Note_off_c, 0, 43, 64
2, 28035, Note_on_c, 0, 74, 42
2, 28047, Note_off_c, 0, 74, 64
2, 28050, Note_on_c, 0, 72, 50
2, 28062, Note_off_c, 0, 72, 64
2, 28065, Note_on_c, 0, 74, 43
2, 28077, Note_off_c, 0, 74, 64
2, 28080, Note_on_c, 0, 48, 52
2, 28080, Note_on_c, 0, 72, 80
2, 28272, Note_off_c, 0, 72, 64
2, 28272, Note_off_c, 0, 48, 64
2, 28320, Note_on_c, 0, 43, 58
2, 28512, Note_off_c, 0, 43, 64
2, 28560, Note_on_c, 0, 36, 52
2, 28752, Note_off_c, 0, 36, 64
2, 28800, Note_on_c, 0, 51, 42
2, 28800, Note_on_c, 0, 48, 77
2, 28920, Note_on_c, 0, 67, 61
2, 28992, Note_off_c, 0, 48, 64
2, 28992, Note_off_c, 0, 51, 64
2, 29016, Note_off_c, 0, 67, 64
2, 29040, Note_on_c, 0, 65, 42
2, 29136, Note_off_c, 0, 65, 64
2, 29160, Note_on_c, 0, 63, 52
2, 29256, Note_off_c, 0, 63, 64
2, 29280, Note_on_c, 0, 62, 71
2, 29376, Note_off_c, 0, 62, 64
2, 29400, Note_on_c, 0, 60, 42
2, 29496, Note_off_c, 0, 60, 64
2, 29520, Note_on_c, 0, 60, 77
2, 29760, Note_on_c, 0, 50, 62
2, 29760, Note_on_c, 0, 53, 26
2, 29904, Note_off_c, 0, 60, 64
2, 29952, Note_off_c, 0, 53, 64
2, 29952, Note_off_c, 0, 50, 64
2, 30000, Note_on_c, 0, 59, 50
2, 30000, Note_on_c, 0, 50, 71
2, 30000, Note_on_c, 0, 53, 45
2, 30192, Note_off_c, 0, 53, 64
2, 30192, Note_off_c, 0, 50, 64
2, 30192, Note_off_c, 0, 59, 64
2, 30240, Note_on_c, 0, 50, 74
2, 30240, Note_on_c, 0, 53, 44
2, 30360, Note_on_c, 0, 65, 69
2, 30432, Note_off_c, 0, 53, 64
2, 30432, Note_off_c, 0, 50, 64
2, 30456, Note_off_c, 0, 65, 64
2, 30480, Note_on_c, 0, 63, 58
2, 30576, Note_off_c, 0, 63, 64
2, 30600, Note_on_c, 0, 62, 71
2, 30696, Note_off_c, 0, 62, 64
2, 30720, Note_on_c, 0, 60, 71
2, 30816, Note_off_c, 0, 60, 64
2, 30840, Note_on_c, 0, 59, 54
2, 30936, Note_off_c, 0, 59, 64
2, 30960, Note_on_c, 0, 62, 61
2, 31200, Note_on_c, 0, 51, 51
2, 31200, Note_on_c, 0, 55, 53
2, 31344, Note_off_c, 0, 62, 64
2, 31392, Note_off_c, 0, 55, 64
2, 31392, Note_off_c, 0, 51, 64
2, 31440, Note_on_c, 0, 60, 55
2, 31440, Note_on_c, 0, 51, 54
2, 31440, Note_on_c, 0, 55, 52
2, 31632, Note_off_c, 0, 55, 64
2, 31632, Note_off_c, 0, 51, 64
2, 31632, Note_off_c, 0, 60, 64
2, 31680, Note_on_c, 0, 55, 9
2, 31680, Note_on_c, 0, 51, 24
2, 31800, Note_on_c, 0, 67, 54
2, 31872, Note_off_c, 0, 51, 64
2, 31872, Note_off_c, 0, 55, 64
2, 31896, Note_off_c, 0, 67, 64
2, 31920, Note_on_c, 0, 65, 54
2, 32016, Note_off_c, 0, 65, 64
2, 32040, Note_on_c, 0, 63, 58
2, 32136, Note_off_c, 0, 63, 64
2, 32160, Note_on_c, 0, 62, 66
2, 32256, Note_off_c, 0, 62, 64
2, 32280, Note_on_c, 0, 60, 66
2, 32376, Note_off_c, 0, 60, 64
2, 32400, Note_on_c, 0, 53, 42
2, 32400, Note_on_c, 0, 56, 42
2, 32520, Note_on_c, 0, 62, 61
2, 32592, Note_off_c, 0, 56, 64
2, 32592, Note_off_c, 0, 53, 64
2, 32616, Note_off_c, 0, 62, 64
2, 32640, Note_on_c, 0, 65, 58
2, 32736, Note_off_c, 0, 65, 64
2, 32760, Note_on_c, 0, 62, 61
2, 32856, Note_off_c, 0, 62, 64
2, 32880, Note_on_c, 0, 60, 54
2, 32976, Note_off_c, 0, 60, 64
2, 33000, Note_on_c, 0, 59, 46
2, 33096, Note_off_c, 0, 59, 64
2, 33120, Note_on_c, 0, 60, 58
2, 33120, Note_on_c, 0, 51, 50
2, 33312, Note_off_c, 0, 51, 64
2, 33312, Note_off_c, 0, 60, 64
2, 33360, Note_on_c, 0, 53, 44
2, 33360, Note_on_c, 0, 63, 71
2, 33456, Note_off_c, 0, 63, 64
2, 33480, Note_on_c, 0, 62, 61
2, 33552, Note_off_c, 0, 53, 64
2, 33576, Note_off_c, 0, 62, 64
2, 33600, Note_on_c, 0, 60, 66
2, 33600, Note_on_c, 0, 55, 47
2, 33696, Note_off_c, 0, 60, 64
2, 33720, Note_on_c, 0, 59, 52
2, 33792, Note_off_c, 0, 55, 64
2, 33816, Note_off_c, 0, 59, 64
2, 33840, Note_on_c, 0, 60, 61
2, 33840, Note_on_c, 0, 48, 47
2, 34032, Note_off_c, 0, 48, 64
2, 34032, Note_off_c, 0, 60, 64
2, 34080, Note_on_c, 0, 43, 52
2, 34272, Note_off_c, 0, 43, 64
2, 34320, Note_on_c, 0, 36, 42
2, 34512, Note_off_c, 0, 36, 64
2, 34560, Note_on_c, 0, 51, 42
2, 34560, Note_on_c, 0, 48, 77
2, 34680, Note_on_c, 0, 67, 61
2, 34752, Note_off_c, 0, 48, 64
2, 34752, Note_off_c, 0, 51, 64
2, 34776, Note_off_c, 0, 67, 64
2, 34800, Note_on_c, 0, 65, 42
2, 34896, Note_off_c, 0, 65, 64
2, 34920, Note_on_c, 0, 63, 52
2, 35016, Note_off_c, 0, 63, 64
2, 35040, Note_on_c, 0, 62, 71
2, 35136, Note_off_c, 0, 62, 64
2, 35160, Note_on_c, 0, 60, 42
2, 35256, Note_off_c, 0, 60, 64
2, 35280, Note_on_c, 0, 60, 77
2, 35520, Note_on_c, 0, 50, 62
2, 35520, Note_on_c, 0, 53, 26
2, 35664, Note_off_c, 0, 60, 64
2, 35712, Note_off_c, 0, 53, 64
2, 35712, Note_off_c, 0, 50, 64
2, 35760, Note_on_c, 0, 59, 50
2, 35760, Note_on_c, 0, 50, 71
2, 35760, Note_on_c, 0, 53, 45
2, 35952, Note_off_c, 0, 53, 64
2, 35952, Note_off_c, 0, 50, 64
2, 35952, Note_off_c, 0, 59, 64
2, 36000, Note_on_c, 0, 50, 74
2, 36000, Note_on_c, 0, 53, 44
2, 36120, Note_on_c, 0, 65, 69
2, 36192, Note_off_c, 0, 53, 64
2, 36192, Note_off_c, 0, 50, 64
2, 36216, Note_off_c, 0, 65, 64
2, 36240, Note_on_c, 0, 63, 58
2, 36336, Note_off_c, 0, 63, 64
2, 36360, Note_on_c, 0, 62, 71
2, 36456, Note_off_c, 0, 62, 64
2, 36480, Note_on_c, 0, 60, 71
2, 36576, Note_off_c, 0, 60, 64
2, 36600, Note_on_c, 0, 59, 54
2, 36696, Note_off_c, 0, 59, 64
2, 36720, Note_on_c, 0, 62, 61
2, 36960, Note_on_c, 0, 51, 51
2, 36960, Note_on_c, 0, 55, 53
2, 37104, Note_off_c, 0, 62, 64
2, 37152, Note_off_c, 0, 55, 64
2, 37152, Note_off_c, 0, 51, 64
2, 37200, Note_on_c, 0, 60, 55
2, 37200, Note_on_c, 0, 51, 54
2, 37200, Note_on_c, 0, 55, 52
2, 37392, Note_off_c, 0, 55, 64
2, 37392, Note_off_c, 0, 51, 64
2, 37392, Note_off_c, 0, 60, 64
2, 37440, Note_on_c, 0, 55, 9
2, 37440, Note_on_c, 0, 51, 24
2, 37560, Note_on_c, 0, 67, 54
2, 37632, Note_off_c, 0, 51, 64
2, 37632, Note_off_c, 0, 55, 64
2, 37656, Note_off_c, 0, 67, 64
2, 37680, Note_on_c, 0, 65, 54
2, 37776, Note_off_c, 0, 65, 64
2, 37800, Note_on_c, 0, 63, 58
2, 37896, Note_off_c, 0, 63, 64
2, 37920, Note_on_c, 0, 62, 66
2, 38016, Note_off_c, 0, 62, 64
2, 38040, Note_on_c, 0, 60, 66
2, 38136, Note_off_c, 0, 60, 64
2, 38160, Note_on_c, 0, 53, 42
2, 38160, Note_on_c, 0, 56, 42
2, 38280, Note_on_c, 0, 62, 61
2, 38352, Note_off_c, 0, 56, 64
2, 38352, Note_off_c, 0, 53, 64
2, 38376, Note_off_c, 0, 62, 64
2, 38400, Note_on_c, 0, 65, 58
2, 38496, Note_off_c, 0, 65, 64
2, 38520, Note_on_c, 0, 62, 61
2, 38616, Note_off_c, 0, 62, 64
2, 38640, Note_on_c, 0, 60, 54
2, 38736, Note_off_c, 0, 60, 64
2, 38760, Note_on_c, 0, 59, 46
2, 38856, Note_off_c, 0, 59, 64
2, 38880, Note_on_c, 0, 60, 58
2, 38880, Note_on_c, 0, 51, 50
2, 39072, Note_off_c, 0, 51, 64
2, 39072, Note_off_c, 0, 60, 64
2, 39120, Note_on_c, 0, 53, 44
2, 39120, Note_on_c, 0, 63, 71
2, 39216, Note_off_c, 0, 63, 64
2, 39240, Note_on_c, 0, 62, 61
2, 39312, Note_off_c, 0, 53, 64
2, 39336, Note_off_c, 0, 62, 64
2, 39360, Note_on_c, 0, 60, 66
2, 39360, Note_on_c, 0, 55, 47
2, 39456, Note_off_c, 0, 60, 64
2, 39480, Note_on_c, 0, 59, 52
2, 39552, Note_off_c, 0, 55, 64
2, 39576, Note_off_c, 0, 59, 64
2, 39600, Note_on_c, 0, 60, 61
2, 39600, Note_on_c, 0, 48, 47
2, 39792, Note_off_c, 0, 48, 64
2, 39792, Note_off_c, 0, 60, 64
2, 39840, Note_on_c, 0, 43, 52
2, 40032, Note_off_c, 0, 43, 64
2, 40080, Note_on_c, 0, 36, 42
2, 40272, Note_off_c, 0, 36, 64
2, 40320, Note_on_c, 0, 51, 42
2, 40320, Note_on_c, 0, 43, 43
2, 40440, Note_on_c, 0, 70, 77
2, 40512, Note_off_c, 0, 43, 64
2, 40512, Note_off_c, 0, 51, 64
2, 40536, Note_off_c, 0, 70, 64
2, 40560, Note_on_c, 0, 68, 66
2, 40656, Note_off_c, 0, 68, 64
2, 40680, Note_on_c, 0, 67, 62
2, 40776, Note_off_c, 0, 67, 64
2, 40800, Note_on_c, 0, 65, 58
2, 40896, Note_off_c, 0, 65, 64
2, 40920, Note_on_c, 0, 63, 71
2, 41016, Note_off_c, 0, 63, 64
2, 41040, Note_on_c, 0, 44, 52
2, 41040, Note_on_c, 0, 51, 48
2, 41160, Note_on_c, 0, 72, 71
2, 41232, Note_off_c, 0, 51, 64
2, 41232, Note_off_c, 0, 44, 64
2, 41256, Note_off_c, 0, 72, 64
2, 41280, Note_on_c, 0, 70, 83
2, 41376, Note_off_c, 0, 70, 64
2, 41400, Note_on_c, 0, 68, 54
2, 41496, Note_off_c, 0, 68, 64
2, 41520, Note_on_c, 0, 67, 50
2, 41616, Note_off_c, 0, 67, 64
2, 41640, Note_on_c, 0, 65, 50
2, 41736, Note_off_c, 0, 65, 64
2, 41760, Note_on_c, 0, 50, 66
2, 41760, Note_on_c, 0, 46, 69
2, 41880, Note_on_c, 0, 68, 66
2, 41952, Note_off_c, 0, 46, 64
2, 41952, Note_off_c, 0, 50, 64
2, 41976, Note_off_c, 0, 68, 64
2, 42000, Note_on_c, 0, 67, 77
2, 42096, Note_off_c, 0, 67, 64
2, 42120, Note_on_c, 0, 65, 75
2, 42216, Note_off_c, 0, 65, 64
2, 42240, Note_on_c, 0, 63, 61
2, 42336, Note_off_c, 0, 63, 64
2, 42360, Note_on_c, 0, 62, 61
2, 42456, Note_off_c, 0, 62, 64
2, 42480, Note_on_c, 0, 48, 71
2, 42600, Note_on_c, 0, 63, 52
2, 42672, Note_off_c, 0, 48, 64
2, 42720, Note_on_c, 0, 60, 52
2, 42792, Note_off_c, 0, 63, 64
2, 42840, Note_on_c, 0, 68, 47
2, 42912, Note_off_c, 0, 60, 64
2, 42960, Note_on_c, 0, 58, 58
2, 43032, Note_off_c, 0, 68, 64
2, 43080, Note_on_c, 0, 67, 42
2, 43152, Note_off_c, 0, 58, 64
2, 43176, Note_off_c, 0, 67, 64
2, 43200, Note_on_c, 0, 44, 61
2, 43320, Note_on_c, 0, 65, 45
2, 43392, Note_off_c, 0, 44, 64
2, 43440, Note_on_c, 0, 56, 61
2, 43512, Note_off_c, 0, 65, 64
2, 43560, Note_on_c, 0, 72, 47
2, 43632, Note_off_c, 0, 56, 64
2, 43680, Note_on_c, 0, 55, 77
2, 43752, Note_off_c, 0, 72, 64
2, 43800, Note_on_c, 0, 70, 71
2, 43872, Note_off_c, 0, 55, 64
2, 43896, Note_off_c, 0, 70, 64
2, 43920, Note_on_c, 0, 56, 58
2, 44040, Note_on_c, 0, 68, 52
2, 44112, Note_off_c, 0, 56, 64
2, 44160, Note_on_c, 0, 58, 52
2, 44232, Note_off_c, 0, 68, 64
2, 44280, Note_on_c, 0, 67, 50
2, 44352, Note_off_c, 0, 58, 64
2, 44400, Note_on_c, 0, 46, 42
2, 44472, Note_off_c, 0, 67, 64
2, 44520, Note_on_c, 0, 65, 42
2, 44592, Note_off_c, 0, 46, 64
2, 44616, Note_off_c, 0, 65, 64
2, 44640, Note_on_c, 0, 51, 44
2, 44640, Note_on_c, 0, 65, 61
2, 44832, Note_off_c, 0, 65, 64
2, 44880, Note_on_c, 0, 63, 71
2, 44928, Note_off_c, 0, 51, 64
2, 45000, Note_on_c, 0, 53, 43
2, 45072, Note_off_c, 0, 63, 64
2, 45096, Note_off_c, 0, 53, 64
2, 45120, Note_on_c, 0, 51, 50
2, 45216, Note_off_c, 0, 51, 64
2, 45240, Note_on_c, 0, 50, 42
2, 45336, Note_off_c, 0, 50, 64
2, 45360, Note_on_c, 0, 48, 77
2, 45360, Note_on_c, 0, 51, 42
2, 45480, Note_on_c, 0, 67, 61
2, 45552, Note_off_c, 0, 51, 64
2, 45552, Note_off_c, 0, 48, 64
2, 45576, Note_off_c, 0, 67, 64
2, 45600, Note_on_c, 0, 65, 42
2, 45696, Note_off_c, 0, 65, 64
2, 45720, Note_on_c, 0, 63, 52
2, 45816, Note_off_c, 0, 63, 64
2, 45840, Note_on_c, 0, 62, 71
2, 45936, Note_off_c, 0, 62, 64
2, 45960, Note_on_c, 0, 60, 42
2, 46056, Note_off_c, 0, 60, 64
2, 46080, Note_on_c, 0, 60, 77
2, 46320, Note_on_c, 0, 50, 62
2, 46320, Note_on_c, 0, 53, 26
2, 46464, Note_off_c, 0, 60, 64
2, 46512, Note_off_c, 0, 53, 64
2, 46512, Note_off_c, 0, 50, 64
2, 46560, Note_on_c, 0, 59, 50
2, 46560, Note_on_c, 0, 50, 71
2, 46560, Note_on_c, 0, 53, 45
2, 46752, Note_off_c, 0, 53, 64
2, 46752, Note_off_c, 0, 50, 64
2, 46752, Note_off_c, 0, 59, 64
2, 46800, Note_on_c, 0, 53, 44
2, 46800, Note_on_c, 0, 50, 74
2, 46920, Note_on_c, 0, 65, 69
2, 46992, Note_off_c, 0, 50, 64
2, 46992, Note_off_c, 0, 53, 64
2, 47016, Note_off_c, 0, 65, 64
2, 47040, Note_on_c, 0, 63, 58
2, 47136, Note_off_c, 0, 63, 64
2, 47160, Note_on_c, 0, 62, 71
2, 47256, Note_off_c, 0, 62, 64
2, 47280, Note_on_c, 0, 60, 71
2, 47376, Note_off_c, 0, 60, 64
2, 47400, Note_on_c, 0, 59, 54
2, 47496, Note_off_c, 0, 59, 64
2, 47520, Note_on_c, 0, 62, 61
2, 47760, Note_on_c, 0, 51, 51
2, 47760, Note_on_c, 0, 55, 53
2, 47904, Note_off_c, 0, 62, 64
2, 47952, Note_off_c, 0, 55, 64
2, 47952, Note_off_c, 0, 51, 64
2, 48000, Note_on_c, 0, 60, 55
2, 48000, Note_on_c, 0, 51, 54
2, 48000, Note_on_c, 0, 55, 52
2, 48192, Note_off_c, 0, 55, 64
2, 48192, Note_off_c, 0, 51, 64
2, 48192, Note_off_c, 0, 60, 64
2, 48240, Note_on_c, 0, 51, 24
2, 48240, Note_on_c, 0, 55, 9
2, 48360, Note_on_c, 0, 67, 54
2, 48432, Note_off_c, 0, 55, 64
2, 48432, Note_off_c, 0, 51, 64
2, 48456, Note_off_c, 0, 67, 64
2, 48480, Note_on_c, 0, 65, 54
2, 48576, Note_off_c, 0, 65, 64
2, 48600, Note_on_c, 0, 63, 58
2, 48696, Note_off_c, 0, 63, 64
2, 48720, Note_on_c, 0, 62, 66
2, 48816, Note_off_c, 0, 62, 64
2, 48840, Note_on_c, 0, 60, 66
2, 48936, Note_off_c, 0, 60, 64
2, 48960, Note_on_c, 0, 56, 42
2, 48960, Note_on_c, 0, 53, 42
2, 49080, Note_on_c, 0, 62, 61
2, 49152, Note_off_c, 0, 53, 64
2, 49152, Note_off_c, 0, 56, 64
2, 49176, Note_off_c, 0, 62, 64
2, 49200, Note_on_c, 0, 65, 58
2, 49296, Note_off_c, 0, 65, 64
2, 49320, Note_on_c, 0, 62, 61
2, 49416, Note_off_c, 0, 62, 64
2, 49440, Note_on_c, 0, 60, 54
2, 49536, Note_off_c, 0, 60, 64
2, 49560, Note_on_c, 0, 59, 46
2, 49656, Note_off_c, 0, 59, 64
2, 49680, Note_on_c, 0, 60, 58
2, 49680, Note_on_c, 0, 51, 50
2, 49872, Note_off_c, 0, 51, 64
2, 49872, Note_off_c, 0, 60, 64
2, 49920, Note_on_c, 0, 63, 71
2, 49920, Note_on_c, 0, 53, 44
2, 50016, Note_off_c, 0, 63, 64
2, 50040, Note_on_c, 0, 62, 61
2, 50112, Note_off_c, 0, 53, 64
2, 50136, Note_off_c, 0, 62, 64
2, 50160, Note_on_c, 0, 60, 66
2, 50160, Note_on_c, 0, 55, 47
2, 50256, Note_off_c, 0, 60, 64
2, 50280, Note_on_c, 0, 59, 52
2, 50352, Note_off_c, 0, 55, 64
2, 50376, Note_off_c, 0, 59, 64
2, 50400, Note_on_c, 0, 60, 61
2, 50400, Note_on_c, 0, 48, 47
2, 50592, Note_off_c, 0, 48, 64
2, 50592, Note_off_c, 0, 60, 64
2, 50640, Note_on_c, 0, 43, 52
2, 50832, Note_off_c, 0, 43, 64
2, 50880, Note_on_c, 0, 36, 42
2, 51072, Note_off_c, 0, 36, 64
2, 51120, Note_on_c, 0, 51, 42
2, 51120, Note_on_c, 0, 43, 43
2, 51240, Note_on_c, 0, 70, 77
2, 51312, Note_off_c, 0, 43, 64
2, 51312, Note_off_c, 0, 51, 64
2, 51336, Note_off_c, 0, 70, 64
2, 51360, Note_on_c, 0, 68, 66
2, 51456, Note_off_c, 0, 68, 64
2, 51480, Note_on_c, 0, 67, 62
2, 51576, Note_off_c, 0, 67, 64
2, 51600, Note_on_c, 0, 65, 58
2, 51696, Note_off_c, 0, 65, 64
2, 51720, Note_on_c, 0, 63, 71
2, 51816, Note_off_c, 0, 63, 64
2, 51840, Note_on_c, 0, 44, 52
2, 51840, Note_on_c, 0, 51, 48
2, 51960, Note_on_c, 0, 72, 71
2, 52032, Note_off_c, 0, 51, 64
2, 52032, Note_off_c, 0, 44, 64
2, 52056, Note_off_c, 0, 72, 64
2, 52080, Note_on_c, 0, 70, 83
2, 52176, Note_off_c, 0, 70, 64
2, 52200, Note_on_c, 0, 68, 54
2, 52296, Note_off_c, 0, 68, 64
2, 52320, Note_on_c, 0, 67, 50
2, 52416, Note_off_c, 0, 67, 64
2, 52440, Note_on_c, 0, 65, 50
2, 52536, Note_off_c, 0, 65, 64
2, 52560, Note_on_c, 0, 50, 66
2, 52560, Note_on_c, 0, 46, 69
2, 52680, Note_on_c, 0, 68, 66
2, 52752, Note_off_c, 0, 46, 64
2, 52752, Note_off_c, 0, 50, 64
2, 52776, Note_off_c, 0, 68, 64
2, 52800, Note_on_c, 0, 67, 77
2, 52896, Note_off_c, 0, 67, 64
2, 52920, Note_on_c, 0, 65, 75
2, 53016, Note_off_c, 0, 65, 64
2, 53040, Note_on_c, 0, 63, 61
2, 53136, Note_off_c, 0, 63, 64
2, 53160, Note_on_c, 0, 62, 61
2, 53256, Note_off_c, 0, 62, 64
2, 53280, Note_on_c, 0, 48, 71
2, 53400, Note_on_c, 0, 63, 52
2, 53472, Note_off_c, 0, 48, 64
2, 53520, Note_on_c, 0, 60, 52
2, 53592, Note_off_c, 0, 63, 64
2, 53640, Note_on_c, 0, 68, 47
2, 53712, Note_off_c, 0, 60, 64
2, 53760, Note_on_c, 0, 58, 58
2, 53832, Note_off_c, 0, 68, 64
2, 53880, Note_on_c, 0, 67, 42
2, 53952, Note_off_c, 0, 58, 64
2, 53976, Note_off_c, 0, 67, 64
2, 54000, Note_on_c, 0, 44, 61
2, 54120, Note_on_c, 0, 65, 45
2, 54192, Note_off_c, 0, 44, 64
2, 54240, Note_on_c, 0, 56, 61
2, 54312, Note_off_c, 0, 65, 64
2, 54360, Note_on_c, 0, 72, 47
2, 54432, Note_off_c, 0, 56, 64
2, 54480, Note_on_c, 0, 55, 77
2, 54552, Note_off_c, 0, 72, 64
2, 54600, Note_on_c, 0, 70, 71
2, 54672, Note_off_c, 0, 55, 64
2, 54696, Note_off_c, 0, 70, 64
2, 54720, Note_on_c, 0, 56, 58
2, 54840, Note_on_c, 0, 68, 52
2, 54912, Note_off_c, 0, 56, 64
2, 54960, Note_on_c, 0, 58, 52
2, 55032, Note_off_c, 0, 68, 64
2, 55080, Note_on_c, 0, 67, 50
2, 55152, Note_off_c, 0, 58, 64
2, 55200, Note_on_c, 0, 46, 42
2, 55272, Note_off_c, 0, 67, 64
2, 55320, Note_on_c, 0, 65, 42
2, 55392, Note_off_c, 0, 46, 64
2, 55416, Note_off_c, 0, 65, 64
2, 55440, Note_on_c, 0, 51, 44
2, 55440, Note_on_c, 0, 65, 61
2, 55632, Note_off_c, 0, 65, 64
2, 55680, Note_on_c, 0, 63, 71
2, 55728, Note_off_c, 0, 51, 64
2, 55800, Note_on_c, 0, 53, 43
2, 55872, Note_off_c, 0, 63, 64
2, 55896, Note_off_c, 0, 53, 64
2, 55920, Note_on_c, 0, 51, 50
2, 56016, Note_off_c, 0, 51, 64
2, 56040, Note_on_c, 0, 50, 42
2, 56136, Note_off_c, 0, 50, 64
2, 56160, Note_on_c, 0, 48, 77
2, 56160, Note_on_c, 0, 51, 42
2, 56280, Note_on_c, 0, 67, 61
2, 56352, Note_off_c, 0, 51, 64
2, 56352, Note_off_c, 0, 48, 64
2, 56376, Note_off_c, 0, 67, 64
2, 56400, Note_on_c, 0, 65, 42
2, 56496, Note_off_c, 0, 65, 64
2, 56520, Note_on_c, 0, 63, 52
2, 56616, Note_off_c, 0, 63, 64
2, 56640, Note_on_c, 0, 62, 71
2, 56736, Note_off_c, 0, 62, 64
2, 56760, Note_on_c, 0, 60, 42
2, 56856, Note_off_c, 0, 60, 64
2, 56880, Note_on_c, 0, 60, 77
2, 57120, Note_on_c, 0, 50, 62
2, 57120, Note_on_c, 0, 53, 26
2, 57264, Note_off_c, 0, 60, 64
2, 57312, Note_off_c, 0, 53, 64
2, 57312, Note_off_c, 0, 50, 64
2, 57360, Note_on_c, 0, 59, 50
2, 57360, Note_on_c, 0, 50, 71
2, 57360, Note_on_c, 0, 53, 45
2, 57552, Note_off_c, 0, 53, 64
2, 57552, Note_off_c, 0, 50, 64
2, 57552, Note_off_c, 0, 59, 64
2, 57600, Note_on_c, 0, 53, 44
2, 57600, Note_on_c, 0, 50, 74
2, 57720, Note_on_c, 0, 65, 69
2, 57792, Note_off_c, 0, 50, 64
2, 57792, Note_off_c, 0, 53, 64
2, 57816, Note_off_c, 0, 65, 64
2, 57840, Note_on_c, 0, 63, 58
2, 57936, Note_off_c, 0, 63, 64
2, 57960, Note_on_c, 0, 62, 71
2, 58056, Note_off_c, 0, 62, 64
2, 58080, Note_on_c, 0, 60, 71
2, 58176, Note_off_c, 0, 60, 64
2, 58200, Note_on_c, 0, 59, 54
2, 58296, Note_off_c, 0, 59, 64
2, 58320, Note_on_c, 0, 62, 61
2, 58560, Note_on_c, 0, 51, 51
2, 58560, Note_on_c, 0, 55, 53
2, 58704, Note_off_c, 0, 62, 64
2, 58752, Note_off_c, 0, 55, 64
2, 58752, Note_off_c, 0, 51, 64
2, 58800, Note_on_c, 0, 60, 55
2, 58800, Note_on_c, 0, 51, 54
2, 58800, Note_on_c, 0, 55, 52
2, 58992, Note_off_c, 0, 55, 64
2, 58992, Note_off_c, 0, 51, 64
2, 58992, Note_off_c, 0, 60, 64
2, 59040, Note_on_c, 0, 51, 24
2, 59040, Note_on_c, 0, 55, 9
2, 59160, Note_on_c, 0, 67, 54
2, 59232, Note_off_c, 0, 55, 64
2, 59232, Note_off_c, 0, 51, 64
2, 59256, Note_off_c, 0, 67, 64
2, 59280, Note_on_c, 0, 65, 54
2, 59376, Note_off_c, 0, 65, 64
2, 59400, Note_on_c, 0, 63, 58
2, 59496, Note_off_c, 0, 63, 64
2, 59520, Note_on_c, 0, 62, 66
2, 59616, Note_off_c, 0, 62, 64
2, 59640, Note_on_c, 0, 60, 66
2, 59736, Note_off_c, 0, 60, 64
2, 59760, Note_on_c, 0, 56, 42
2, 59760, Note_on_c, 0, 53, 42
2, 59880, Note_on_c, 0, 62, 61
2, 59952, Note_off_c, 0, 53, 64
2, 59952, Note_off_c, 0, 56, 64
2, 59976, Note_off_c, 0, 62, 64
2, 60000, Note_on_c, 0, 65, 58
2, 60096, Note_off_c, 0, 65, 64
2, 60120, Note_on_c, 0, 62, 61
2, 60216, Note_off_c, 0, 62, 64
2, 60240, Note_on_c, 0, 60, 54
2, 60336, Note_off_c, 0, 60, 64
2, 60360, Note_on_c, 0, 59, 46
2, 60456, Note_off_c, 0, 59, 64
2, 60480, Note_on_c, 0, 60, 58
2, 60480, Note_on_c, 0, 51, 50
2, 60672, Note_off_c, 0, 51, 64
2, 60672, Note_off_c, 0, 60, 64
2, 60720, Note_on_c, 0, 63, 71
2, 60720, Note_on_c, 0, 53, 44
2, 60816, Note_off_c, 0, 63, 64
2, 60840, Note_on_c, 0, 62, 61
2, 60912, Note_off_c, 0, 53, 64
2, 60936, Note_off_c, 0, 62, 64
2, 60960, Note_on_c, 0, 60, 66
2, 60960, Note_on_c, 0, 55, 47
2, 61056, Note_off_c, 0, 60, 64
2, 61080, Note_on_c, 0, 59, 52
2, 61152, Note_off_c, 0, 55, 64
2, 61176, Note_off_c, 0, 59, 64
2, 61200, Note_on_c, 0, 60, 61
2, 61200, Note_on_c, 0, 48, 47
2, 61392, Note_off_c, 0, 48, 64
2, 61392, Note_off_c, 0, 60, 64
2, 61440, Note_on_c, 0, 43, 52
2, 61632, Note_off_c, 0, 43, 64
2, 61680, Note_on_c, 0, 36, 42
2, 61872, Note_off_c, 0, 36, 64
2, 61920, Note_on_c, 0, 64, 45
2, 61920, Note_on_c, 0, 60, 69
2, 61920, Note_on_c, 0, 72, 83
2, 62112, Note_off_c, 0, 72, 64
2, 62160, Note_on_c, 0, 67, 45
2, 62224, Note_off_c, 0, 67, 64
2, 62240, Note_on_c, 0, 72, 71
2, 62304, Note_off_c, 0, 72, 64
2, 62304, Note_off_c, 0, 60, 64
2, 62304, Note_off_c, 0, 64, 64
2, 62320, Note_on_c, 0, 76, 81
2, 62384, Note_off_c, 0, 76, 64
2, 62400, Note_on_c, 0, 65, 34
2, 62400, Note_on_c, 0, 55, 57
2, 62400, Note_on_c, 0, 74, 71
2, 62464, Note_off_c, 0, 74, 64
2, 62480, Note_on_c, 0, 72, 66
2, 62544, Note_off_c, 0, 72, 64
2, 62560, Note_on_c, 0, 71, 50
2, 62592, Note_off_c, 0, 55, 64
2, 62592, Note_off_c, 0, 65, 64
2, 62624, Note_off_c, 0, 71, 64
2, 62640, Note_on_c, 0, 64, 43
2, 62640, Note_on_c, 0, 60, 74
2, 62640, Note_on_c, 0, 72, 83
2, 62832, Note_off_c, 0, 72, 64
2, 62880, Note_on_c, 0, 67, 45
2, 62944, Note_off_c, 0, 67, 64
2, 62960, Note_on_c, 0, 72, 71
2, 63024, Note_off_c, 0, 72, 64
2, 63024, Note_off_c, 0, 60, 64
2, 63024, Note_off_c, 0, 64, 64
2, 63040, Note_on_c, 0, 76, 81
2, 63104, Note_off_c, 0, 76, 64
2, 63120, Note_on_c, 0, 55, 43
2, 63120, Note_on_c, 0, 65, 42
2, 63120, Note_on_c, 0, 74, 71
2, 63184, Note_off_c, 0, 74, 64
2, 63200, Note_on_c, 0, 72, 66
2, 63264, Note_off_c, 0, 72, 64
2, 63280, Note_on_c, 0, 71, 50
2, 63312, Note_off_c, 0, 65, 64
2, 63312, Note_off_c, 0, 55, 64
2, 63344, Note_off_c, 0, 71, 64
2, 63360, Note_on_c, 0, 60, 54
2, 63360, Note_on_c, 0, 72, 52
2, 63360, Note_on_c, 0, 64, 45
2, 63552, Note_off_c, 0, 64, 64
2, 63552, Note_off_c, 0, 72, 64
2, 63552, Note_off_c, 0, 60, 64
2, 63600, Note_on_c, 0, 79, 61
2, 63664, Note_off_c, 0, 79, 64
2, 63680, Note_on_c, 0, 81, 66
2, 63744, Note_off_c, 0, 81, 64
2, 63760, Note_on_c, 0, 83, 66
2, 63824, Note_off_c, 0, 83, 64
2, 63840, Note_on_c, 0, 60, 58
2, 63840, Note_on_c, 0, 84, 58
2, 63904, Note_off_c, 0, 84, 64
2, 63920, Note_on_c, 0, 79, 42
2, 63984, Note_off_c, 0, 79, 64
2, 64000, Note_on_c, 0, 76, 50
2, 64032, Note_off_c, 0, 60, 64
2, 64064, Note_off_c, 0, 76, 64
2, 64080, Note_on_c, 0, 62, 61
2, 64080, Note_on_c, 0, 79, 77
2, 64092, Note_off_c, 0, 79, 64
2, 64095, Note_on_c, 0, 77, 47
2, 64107, Note_off_c, 0, 77, 64
2, 64110, Note_on_c, 0, 79, 50
2, 64122, Note_off_c, 0, 79, 64
2, 64125, Note_on_c, 0, 77, 42
2, 64137, Note_off_c, 0, 77, 64
2, 64140, Note_on_c, 0, 79, 52
2, 64152, Note_off_c, 0, 79, 64
2, 64155, Note_on_c, 0, 77, 42
2, 64167, Note_off_c, 0, 77, 64
2, 64170, Note_on_c, 0, 79, 52
2, 64182, Note_off_c, 0, 79, 64
2, 64185, Note_on_c, 0, 77, 42
2, 64197, Note_off_c, 0, 77, 64
2, 64200, Note_on_c, 0, 79, 50
2, 64212, Note_off_c, 0, 79, 64
2, 64215, Note_on_c, 0, 77, 42
2, 64227, Note_off_c, 0, 77, 64
2, 64230, Note_on_c, 0, 79, 50
2, 64242, Note_off_c, 0, 79, 64
2, 64245, Note_on_c, 0, 77, 42
2, 64257, Note_off_c, 0, 77, 64
2, 64260, Note_on_c, 0, 79, 52
2, 64272, Note_off_c, 0, 79, 64
2, 64272, Note_off_c, 0, 62, 64
2, 64275, Note_on_c, 0, 77, 43
2, 64287, Note_off_c, 0, 77, 64
2, 64290, Note_on_c, 0, 79, 54
2, 64302, Note_off_c, 0, 79, 64
2, 64305, Note_on_c, 0, 77, 45
2, 64317, Note_off_c, 0, 77, 64
2, 64320, Note_on_c, 0, 55, 54
2, 64320, Note_on_c, 0, 79, 61
2, 64332, Note_off_c, 0, 79, 64
2, 64335, Note_on_c, 0, 77, 44
2, 64347, Note_off_c, 0, 77, 64
2, 64350, Note_on_c, 0, 79, 54
2, 64362, Note_off_c, 0, 79, 64
2, 64365, Note_on_c, 0, 77, 47
2, 64377, Note_off_c, 0, 77, 64
2, 64380, Note_on_c, 0, 79, 43
2, 64392, Note_off_c, 0, 79, 64
2, 64395, Note_on_c, 0, 77, 47
2, 64407, Note_off_c, 0, 77, 64
2, 64410, Note_on_c, 0, 79, 52
2, 64422, Note_off_c, 0, 79, 64
2, 64425, Note_on_c, 0, 77, 52
2, 64437, Note_off_c, 0, 77, 64
2, 64440, Note_on_c, 0, 79, 47
2, 64452, Note_off_c, 0, 79, 64
2, 64455, Note_on_c, 0, 77, 47
2, 64467, Note_off_c, 0, 77, 64
2, 64470, Note_on_c, 0, 79, 44
2, 64482, Note_off_c, 0, 79, 64
2, 64485, Note_on_c, 0, 77, 42
2, 64497, Note_off_c, 0, 77, 64
2, 64500, Note_on_c, 0, 79, 43
2, 64512, Note_off_c, 0, 79, 64
2, 64512, Note_off_c, 0, 55, 64
2, 64515, Note_on_c, 0, 77, 42
2, 64527, Note_off_c, 0, 77, 64
2, 64530, Note_on_c, 0, 76, 43
2, 64542, Note_off_c, 0, 76, 64
2, 64545, Note_on_c, 0, 77, 42
2, 64557, Note_off_c, 0, 77, 64
2, 64560, Note_on_c, 0, 60, 58
2, 64560, Note_on_c, 0, 76, 61
2, 64752, Note_off_c, 0, 76, 64
2, 64752, Note_off_c, 0, 60, 64
2, 64800, Note_on_c, 0, 53, 66
2, 64800, Note_on_c, 0, 74, 52
2, 64992, Note_off_c, 0, 74, 64
2, 64992, Note_off_c, 0, 53, 64
2, 65040, Note_on_c, 0, 81, 61
2, 65104, Note_off_c, 0, 81, 64
2, 65120, Note_on_c, 0, 79, 66
2, 65184, Note_off_c, 0, 79, 64
2, 65200, Note_on_c, 0, 77, 66
2, 65264, Note_off_c, 0, 77, 64
2, 65280, Note_on_c, 0, 76, 58
2, 65344, Note_off_c, 0, 76, 64
2, 65360, Note_on_c, 0, 74, 42
2, 65424, Note_off_c, 0, 74, 64
2, 65440, Note_on_c, 0, 72, 50
2, 65504, Note_off_c, 0, 72, 64
2, 65520, Note_on_c, 0, 55, 52
2, 65520, Note_on_c, 0, 72, 77
2, 65532, Note_off_c, 0, 72, 64
2, 65535, Note_on_c, 0, 71, 47
2, 65547, Note_off_c, 0, 71, 64
2, 65550, Note_on_c, 0, 72, 50
2, 65562, Note_off_c, 0, 72, 64
2, 65565, Note_on_c, 0, 71, 42
2, 65577, Note_off_c, 0, 71, 64
2, 65580, Note_on_c, 0, 72, 52
2, 65592, Note_off_c, 0, 72, 64
2, 65595, Note_on_c, 0, 71, 42
2, 65607, Note_off_c, 0, 71, 64
2, 65610, Note_on_c, 0, 72, 52
2, 65622, Note_off_c, 0, 72, 64
2, 65625, Note_on_c, 0, 71, 42
2, 65637, Note_off_c, 0, 71, 64
2, 65640, Note_on_c, 0, 72, 50
2, 65652, Note_off_c, 0, 72, 64
2, 65655, Note_on_c, 0, 71, 42
2, 65667, Note_off_c, 0, 71, 64
2, 65670, Note_on_c, 0, 72, 50
2, 65682, Note_off_c, 0, 72, 64
2, 65685, Note_on_c, 0, 71, 42
2, 65697, Note_off_c, 0, 71, 64
2, 65700, Note_on_c, 0, 72, 52
2, 65712, Note_off_c, 0, 72, 64
2, 65712, Note_off_c, 0, 55, 64
2, 65715, Note_on_c, 0, 71, 43
2, 65727, Note_off_c, 0, 71, 64
2, 65730, Note_on_c, 0, 72, 54
2, 65742, Note_off_c, 0, 72, 64
2, 65745, Note_on_c, 0, 71, 45
2, 65757, Note_off_c, 0, 71, 64
2, 65760, Note_on_c, 0, 53, 50
2, 65760, Note_on_c, 0, 72, 61
2, 65772, Note_off_c, 0, 72, 64
2, 65775, Note_on_c, 0, 71, 44
2, 65787, Note_off_c, 0, 71, 64
2, 65790, Note_on_c, 0, 72, 54
2, 65802, Note_off_c, 0, 72, 64
2, 65805, Note_on_c, 0, 71, 47
2, 65817, Note_off_c, 0, 71, 64
2, 65820, Note_on_c, 0, 72, 43
2, 65832, Note_off_c, 0, 72, 64
2, 65835, Note_on_c, 0, 71, 47
2, 65847, Note_off_c, 0, 71, 64
2, 65850, Note_on_c, 0, 72, 52
2, 65862, Note_off_c, 0, 72, 64
2, 65865, Note_on_c, 0, 71, 52
2, 65877, Note_off_c, 0, 71, 64
2, 65880, Note_on_c, 0, 72, 47
2, 65892, Note_off_c, 0, 72, 64
2, 65895, Note_on_c, 0, 71, 47
2, 65907, Note_off_c, 0, 71, 64
2, 65910, Note_on_c, 0, 72, 44
2, 65922, Note_off_c, 0, 72, 64
2, 65925, Note_on_c, 0, 71, 42
2, 65937, Note_off_c, 0, 71, 64
2, 65940, Note_on_c, 0, 72, 43
2, 65952, Note_off_c, 0, 72, 64
2, 65952, Note_off_c, 0, 53, 64
2, 65955, Note_on_c, 0, 71, 42
2, 65967, Note_off_c, 0, 71, 64
2, 65970, Note_on_c, 0, 69, 43
2, 65982, Note_off_c, 0, 69, 64
2, 65985, Note_on_c, 0, 71, 42
2, 65997, Note_off_c, 0, 71, 64
2, 66000, Note_on_c, 0, 52, 52
2, 66000, Note_on_c, 0, 72, 71
2, 66192, Note_off_c, 0, 72, 64
2, 66192, Note_off_c, 0, 52, 64
2, 66240, Note_on_c, 0, 67, 54
2, 66432, Note_off_c, 0, 67, 64
2, 66480, Note_on_c, 0, 59, 43
2, 66480, Note_on_c, 0, 77, 58
2, 66480, Note_on_c, 0, 74, 77
2, 66672, Note_off_c, 0, 74, 64
2, 66672, Note_off_c, 0, 77, 64
2, 66672, Note_off_c, 0, 59, 64
2, 66720, Note_on_c, 0, 60, 52
2, 66720, Note_on_c, 0, 76, 58
2, 66720, Note_on_c, 0, 72, 53
2, 66912, Note_off_c, 0, 72, 64
2, 66912, Note_off_c, 0, 76, 64
2, 66912, Note_off_c, 0, 60, 64
2, 66960, Note_on_c, 0, 55, 58
2, 66960, Note_on_c, 0, 76, 65
2, 66960, Note_on_c, 0, 72, 51
2, 67152, Note_off_c, 0, 72, 64
2, 67152, Note_off_c, 0, 76, 64
2, 67152, Note_off_c, 0, 55, 64
2, 67200, Note_on_c, 0, 67, 42
2, 67200, Note_on_c, 0, 71, 43
2, 67200, Note_on_c, 0, 74, 45
2, 67392, Note_off_c, 0, 74, 64
2, 67392, Note_off_c, 0, 71, 64
2, 67392, Note_off_c, 0, 67, 64
2, 67440, Note_on_c, 0, 55, 47
2, 67632, Note_off_c, 0, 55, 64
2, 67680, Note_on_c, 0, 52, 50
2, 67680, Note_on_c, 0, 60, 44
2, 67680, Note_on_c, 0, 79, 40
2, 67872, Note_off_c, 0, 79, 64
2, 67920, Note_on_c, 0, 72, 61
2, 67984, Note_off_c, 0, 72, 64
2, 68000, Note_on_c, 0, 76, 54
2, 68064, Note_off_c, 0, 76, 64
2, 68064, Note_off_c, 0, 60, 64
2, 68064, Note_off_c, 0, 52, 64
2, 68080, Note_on_c, 0, 79, 58
2, 68144, Note_off_c, 0, 79, 64
2, 68160, Note_on_c, 0, 60, 42
2, 68160, Note_on_c, 0, 52, 49
2, 68160, Note_on_c, 0, 76, 66
2, 68224, Note_off_c, 0, 76, 64
2, 68240, Note_on_c, 0, 79, 71
2, 68304, Note_off_c, 0, 79, 64
2, 68320, Note_on_c, 0, 82, 77
2, 68352, Note_off_c, 0, 52, 64
2, 68352, Note_off_c, 0, 60, 64
2, 68384, Note_off_c, 0, 82, 64
2, 68400, Note_on_c, 0, 53, 71
2, 68400, Note_on_c, 0, 82, 83
2, 68592, Note_off_c, 0, 82, 64
2, 68592, Note_off_c, 0, 53, 64
2, 68640, Note_on_c, 0, 65, 52
2, 68640, Note_on_c, 0, 81, 45
2, 68832, Note_off_c, 0, 81, 64
2, 68832, Note_off_c, 0, 65, 64
2, 68880, Note_on_c, 0, 64, 54
2, 68880, Note_on_c, 0, 79, 45
2, 69072, Note_off_c, 0, 79, 64
2, 69072, Note_off_c, 0, 64, 64
2, 69120, Note_on_c, 0, 62, 77
2, 69120, Note_on_c, 0, 77, 44
2, 69184, Note_off_c, 0, 77, 64
2, 69200, Note_on_c, 0, 76, 45
2, 69264, Note_off_c, 0, 76, 64
2, 69280, Note_on_c, 0, 77, 44
2, 69312, Note_off_c, 0, 62, 64
2, 69344, Note_off_c, 0, 77, 64
2, 69360, Note_on_c, 0, 81, 43
2, 69360, Note_on_c, 0, 65, 50
2, 69424, Note_off_c, 0, 81, 64
2, 69440, Note_on_c, 0, 79, 50
2, 69504, Note_off_c, 0, 79, 64
2, 69520, Note_on_c, 0, 77, 66
2, 69552, Note_off_c, 0, 65, 64
2, 69584, Note_off_c, 0, 77, 64
2, 69600, Note_on_c, 0, 66, 77
2, 69600, Note_on_c, 0, 76, 71
2, 69664, Note_off_c, 0, 76, 64
2, 69680, Note_on_c, 0, 74, 54
2, 69744, Note_off_c, 0, 74, 64
2, 69760, Note_on_c, 0, 72, 42
2, 69792, Note_off_c, 0, 66, 64
2, 69824, Note_off_c, 0, 72, 64
2, 69840, Note_on_c, 0, 67, 50
2, 69840, Note_on_c, 0, 72, 47
2, 70032, Note_off_c, 0, 67, 64
2, 70080, Note_on_c, 0, 62, 71
2, 70224, Note_off_c, 0, 72, 64
2, 70272, Note_off_c, 0, 62, 64
2, 70320, Note_on_c, 0, 55, 52
2, 70320, Note_on_c, 0, 71, 58
2, 70512, Note_off_c, 0, 71, 64
2, 70512, Note_off_c, 0, 55, 64
2, 70560, Note_on_c, 0, 64, 62
2, 70560, Note_on_c, 0, 60, 71
2, 70560, Note_on_c, 0, 72, 83
2, 70752, Note_off_c, 0, 72, 64
2, 70800, Note_on_c, 0, 67, 45
2, 70864, Note_off_c, 0, 67, 64
2, 70880, Note_on_c, 0, 72, 71
2, 70944, Note_off_c, 0, 72, 64
2, 70944, Note_off_c, 0, 60, 64
2, 70944, Note_off_c, 0, 64, 64
2, 70960, Note_on_c, 0, 76, 81
2, 71024, Note_off_c, 0, 76, 64
2, 71040, Note_on_c, 0, 65, 42
2, 71040, Note_on_c, 0, 55, 50
2, 71040, Note_on_c, 0, 74, 71
2, 71104, Note_off_c, 0, 74, 64
2, 71120, Note_on_c, 0, 72, 66
2, 71184, Note_off_c, 0, 72, 64
2, 71200, Note_on_c, 0, 71, 50
2, 71232, Note_off_c, 0, 55, 64
2, 71232, Note_off_c, 0, 65, 64
2, 71264, Note_off_c, 0, 71, 64
2, 71280, Note_on_c, 0, 60, 54
2, 71280, Note_on_c, 0, 64, 42
2, 71280, Note_on_c, 0, 72, 83
2, 71472, Note_off_c, 0, 72, 64
2, 71520, Note_on_c, 0, 67, 45
2, 71584, Note_off_c, 0, 67, 64
2, 71600, Note_on_c, 0, 72, 71
2, 71664, Note_off_c, 0, 72, 64
2, 71664, Note_off_c, 0, 64, 64
2, 71664, Note_off_c, 0, 60, 64
2, 71680, Note_on_c, 0, 76, 81
2, 71744, Note_off_c, 0, 76, 64
2, 71760, Note_on_c, 0, 55, 54
2, 71760, Note_on_c, 0, 65, 39
2, 71760, Note_on_c, 0, 74, 71
2, 71824, Note_off_c, 0, 74, 64
2, 71840, Note_on_c, 0, 72, 66
2, 71904, Note_off_c, 0, 72, 64
2, 71920, Note_on_c, 0, 71, 50
2, 71952, Note_off_c, 0, 65, 64
2, 71952, Note_off_c, 0, 55, 64
2, 71984, Note_off_c, 0, 71, 64
2, 72000, Note_on_c, 0, 64, 30
2, 72000, Note_on_c, 0, 72, 52
2, 72000, Note_on_c, 0, 60, 50
2, 72192, Note_off_c, 0, 60, 64
2, 72192, Note_off_c, 0, 72, 64
2, 72192, Note_off_c, 0, 64, 64
2, 72240, Note_on_c, 0, 79, 61
2, 72304, Note_off_c, 0, 79, 64
2, 72320, Note_on_c, 0, 81, 66
2, 72384, Note_off_c, 0, 81, 64
2, 72400, Note_on_c, 0, 83, 66
2, 72464, Note_off_c, 0, 83, 64
2, 72480, Note_on_c, 0, 60, 66
2, 72480, Note_on_c, 0, 84, 58
2, 72544, Note_off_c, 0, 84, 64
2, 72560, Note_on_c, 0, 79, 42
2, 72624, Note_off_c, 0, 79, 64
2, 72640, Note_on_c, 0, 76, 50
2, 72672, Note_off_c, 0, 60, 64
2, 72704, Note_off_c, 0, 76, 64
2, 72720, Note_on_c, 0, 62, 42
2, 72720, Note_on_c, 0, 79, 77
2, 72732, Note_off_c, 0, 79, 64
2, 72735, Note_on_c, 0, 77, 47
2, 72747, Note_off_c, 0, 77, 64
2, 72750, Note_on_c, 0, 79, 50
2, 72762, Note_off_c, 0, 79, 64
2, 72765, Note_on_c, 0, 77, 42
2, 72777, Note_off_c, 0, 77, 64
2, 72780, Note_on_c, 0, 79, 52
2, 72792, Note_off_c, 0, 79, 64
2, 72795, Note_on_c, 0, 77, 42
2, 72807, Note_off_c, 0, 77, 64
2, 72810, Note_on_c, 0, 79, 52
2, 72822, Note_off_c, 0, 79, 64
2, 72825, Note_on_c, 0, 77, 42
2, 72837, Note_off_c, 0, 77, 64
2, 72840, Note_on_c, 0, 79, 50
2, 72852, Note_off_c, 0, 79, 64
2, 72855, Note_on_c, 0, 77, 42
2, 72867, Note_off_c, 0, 77, 64
2, 72870, Note_on_c, 0, 79, 50
2, 72882, Note_off_c, 0, 79, 64
2, 72885, Note_on_c, 0, 77, 42
2, 72897, Note_off_c, 0, 77, 64
2, 72900, Note_on_c, 0, 79, 52
2, 72912, Note_off_c, 0, 79, 64
2, 72912, Note_off_c, 0, 62, 64
2, 72915, Note_on_c, 0, 77, 43
2, 72927, Note_off_c, 0, 77, 64
2, 72930, Note_on_c, 0, 79, 54
2, 72942, Note_off_c, 0, 79, 64
2, 72945, Note_on_c, 0, 77, 45
2, 72957, Note_off_c, 0, 77, 64
2, 72960, Note_on_c, 0, 55, 54
2, 72960, Note_on_c, 0, 79, 61
2, 72972, Note_off_c, 0, 79, 64
2, 72975, Note_on_c, 0, 77, 44
2, 72987, Note_off_c, 0, 77, 64
2, 72990, Note_on_c, 0, 79, 54
2, 73002, Note_off_c, 0, 79, 64
2, 73005, Note_on_c, 0, 77, 47
2, 73017, Note_off_c, 0, 77, 64
2, 73020, Note_on_c, 0, 79, 43
2, 73032, Note_off_c, 0, 79, 64
2, 73035, Note_on_c, 0, 77, 47
2, 73047, Note_off_c, 0, 77, 64
2, 73050, Note_on_c, 0, 79, 52
2, 73062, Note_off_c, 0, 79, 64
2, 73065, Note_on_c, 0, 77, 52
2, 73077, Note_off_c, 0, 77, 64
2, 73080, Note_on_c, 0, 79, 47
2, 73092, Note_off_c, 0, 79, 64
2, 73095, Note_on_c, 0, 77, 47
2, 73107, Note_off_c, 0, 77, 64
2, 73110, Note_on_c, 0, 79, 44
2, 73122, Note_off_c, 0, 79, 64
2, 73125, Note_on_c, 0, 77, 42
2, 73137, Note_off_c, 0, 77, 64
2, 73140, Note_on_c, 0, 79, 43
2, 73152, Note_off_c, 0, 79, 64
2, 73152, Note_off_c, 0, 55, 64
2, 73155, Note_on_c, 0, 77, 42
2, 73167, Note_off_c, 0, 77, 64
2, 73170, Note_on_c, 0, 76, 43
2, 73182, Note_off_c, 0, 76, 64
2, 73185, Note_on_c, 0, 77, 42
2, 73197, Note_off_c, 0, 77, 64
2, 73200, Note_on_c, 0, 60, 47
2, 73200, Note_on_c, 0, 76, 61
2, 73392, Note_off_c, 0, 76, 64
2, 73392, Note_off_c, 0, 60, 64
2, 73440, Note_on_c, 0, 53, 42
2, 73440, Note_on_c, 0, 74, 52
2, 73632, Note_off_c, 0, 74, 64
2, 73632, Note_off_c, 0, 53, 64
2, 73680, Note_on_c, 0, 81, 61
2, 73744, Note_off_c, 0, 81, 64
2, 73760, Note_on_c, 0, 79, 66
2, 73824, Note_off_c, 0, 79, 64
2, 73840, Note_on_c, 0, 77, 66
2, 73904, Note_off_c, 0, 77, 64
2, 73920, Note_on_c, 0, 76, 58
2, 73984, Note_off_c, 0, 76, 64
2, 74000, Note_on_c, 0, 74, 42
2, 74064, Note_off_c, 0, 74, 64
2, 74080, Note_on_c, 0, 72, 50
2, 74144, Note_off_c, 0, 72, 64
2, 74160, Note_on_c, 0, 55, 61
2, 74160, Note_on_c, 0, 72, 77
2, 74172, Note_off_c, 0, 72, 64
2, 74175, Note_on_c, 0, 71, 47
2, 74187, Note_off_c, 0, 71, 64
2, 74190, Note_on_c, 0, 72, 50
2, 74202, Note_off_c, 0, 72, 64
2, 74205, Note_on_c, 0, 71, 42
2, 74217, Note_off_c, 0, 71, 64
2, 74220, Note_on_c, 0, 72, 52
2, 74232, Note_off_c, 0, 72, 64
2, 74235, Note_on_c, 0, 71, 42
2, 74247, Note_off_c, 0, 71, 64
2, 74250, Note_on_c, 0, 72, 52
2, 74262, Note_off_c, 0, 72, 64
2, 74265, Note_on_c, 0, 71, 42
2, 74277, Note_off_c, 0, 71, 64
2, 74280, Note_on_c, 0, 72, 50
2, 74292, Note_off_c, 0, 72, 64
2, 74295, Note_on_c, 0, 71, 42
2, 74307, Note_off_c, 0, 71, 64
2, 74310, Note_on_c, 0, 72, 50
2, 74322, Note_off_c, 0, 72, 64
2, 74325, Note_on_c, 0, 71, 42
2, 74337, Note_off_c, 0, 71, 64
2, 74340, Note_on_c, 0, 72, 52
2, 74352, Note_off_c, 0, 72, 64
2, 74352, Note_off_c, 0, 55, 64
2, 74355, Note_on_c, 0, 71, 43
2, 74367, Note_off_c, 0, 71, 64
2, 74370, Note_on_c, 0, 72, 54
2, 74382, Note_off_c, 0, 72, 64
2, 74385, Note_on_c, 0, 71, 45
2, 74397, Note_off_c, 0, 71, 64
2, 74400, Note_on_c, 0, 53, 61
2, 74400, Note_on_c, 0, 72, 61
2, 74412, Note_off_c, 0, 72, 64
2, 74415, Note_on_c, 0, 71, 44
2, 74427, Note_off_c, 0, 71, 64
2, 74430, Note_on_c, 0, 72, 54
2, 74442, Note_off_c, 0, 72, 64
2, 74445, Note_on_c, 0, 71, 47
2, 74457, Note_off_c, 0, 71, 64
2, 74460, Note_on_c, 0, 72, 43
2, 74472, Note_off_c, 0, 72, 64
2, 74475, Note_on_c, 0, 71, 47
2, 74487, Note_off_c, 0, 71, 64
2, 74490, Note_on_c, 0, 72, 52
2, 74502, Note_off_c, 0, 72, 64
2, 74505, Note_on_c, 0, 71, 52
2, 74517, Note_off_c, 0, 71, 64
2, 74520, Note_on_c, 0, 72, 47
2, 74532, Note_off_c, 0, 72, 64
2, 74535, Note_on_c, 0, 71, 47
2, 74547, Note_off_c, 0, 71, 64
2, 74550, Note_on_c, 0, 72, 44
2, 74562, Note_off_c, 0, 72, 64
2, 74565, Note_on_c, 0, 71, 42
2, 74577, Note_off_c, 0, 71, 64
2, 74580, Note_on_c, 0, 72, 43
2, 74592, Note_off_c, 0, 72, 64
2, 74592, Note_off_c, 0, 53, 64
2, 74595, Note_on_c, 0, 71, 42
2, 74607, Note_off_c, 0, 71, 64
2, 74610, Note_on_c, 0, 69, 43
2, 74622, Note_off_c, 0, 69, 64
2, 74625, Note_on_c, 0, 71, 42
2, 74637, Note_off_c, 0, 71, 64
2, 74640, Note_on_c, 0, 52, 54
2, 74640, Note_on_c, 0, 72, 71
2, 74832, Note_off_c, 0, 72, 64
2, 74832, Note_off_c, 0, 52, 64
2, 74880, Note_on_c, 0, 53, 54
2, 74880, Note_on_c, 0, 83, 45
2, 74928, Note_off_c, 0, 83, 64
2, 74940, Note_on_c, 0, 81, 61
2, 74988, Note_off_c, 0, 81, 64
2, 75000, Note_on_c, 0, 79, 61
2, 75048, Note_off_c, 0, 79, 64
2, 75060, Note_on_c, 0, 77, 52
2, 75072, Note_off_c, 0, 53, 64
2, 75108, Note_off_c, 0, 77, 64
2, 75120, Note_on_c, 0, 76, 44
2, 75120, Note_on_c, 0, 55, 50
2, 75312, Note_off_c, 0, 55, 64
2, 75312, Note_off_c, 0, 76, 64
2, 75360, Note_on_c, 0, 43, 61
2, 75360, Note_on_c, 0, 76, 45
2, 75372, Note_off_c, 0, 76, 64
2, 75375, Note_on_c, 0, 74, 31
2, 75387, Note_off_c, 0, 74, 64
2, 75390, Note_on_c, 0, 76, 42
2, 75402, Note_off_c, 0, 76, 64
2, 75405, Note_on_c, 0, 74, 42
2, 75417, Note_off_c, 0, 74, 64
2, 75420, Note_on_c, 0, 76, 43
2, 75432, Note_off_c, 0, 76, 64
2, 75435, Note_on_c, 0, 74, 42
2, 75447, Note_off_c, 0, 74, 64
2, 75450, Note_on_c, 0, 76, 50
2, 75462, Note_off_c, 0, 76, 64
2, 75465, Note_on_c, 0, 74, 42
2, 75477, Note_off_c, 0, 74, 64
2, 75480, Note_on_c, 0, 76, 54
2, 75492, Note_off_c, 0, 76, 64
2, 75495, Note_on_c, 0, 74, 42
2, 75507, Note_off_c, 0, 74, 64
2, 75510, Note_on_c, 0, 76, 42
2, 75522, Note_off_c, 0, 76, 64
2, 75525, Note_on_c, 0, 74, 42
2, 75537, Note_off_c, 0, 74, 64
2, 75540, Note_on_c, 0, 76, 50
2, 75552, Note_off_c, 0, 76, 64
2, 75552, Note_off_c, 0, 43, 64
2, 75555, Note_on_c, 0, 74, 42
2, 75567, Note_off_c, 0, 74, 64
2, 75570, Note_on_c, 0, 72, 50
2, 75582, Note_off_c, 0, 72, 64
2, 75585, Note_on_c, 0, 74, 43
2, 75597, Note_off_c, 0, 74, 64
2, 75600, Note_on_c, 0, 48, 52
2, 75600, Note_on_c, 0, 72, 80
2, 75792, Note_off_c, 0, 72, 64
2, 75792, Note_off_c, 0, 48, 64
2, 75840, Note_on_c, 0, 43, 58
2, 76032, Note_off_c, 0, 43, 64
2, 76080, Note_on_c, 0, 36, 52
2, 76272, Note_off_c, 0, 36, 64
2, 76272, End_track
0, 0, End_of_file
