0, 0, Header, 1, 2, 240
1, 0, Start_track
1, 0, Time_signature, 2, 2, 24, 8
1, 0, Tempo, 416667
1, 17280, Time_signature, 2, 2, 24, 8
1, 17280, End_track
2, 0, Start_track
2, 0, Note_on_c, 0, 60, 40
2, 0, Note_on_c, 0, 64, 42
2, 96, Note_off_c, 0, 64, 64
2, 96, Note_off_c, 0, 60, 64
2, 120, Note_on_c, 0, 60, 42
2, 120, Note_on_c, 0, 72, 66
2, 120, Note_on_c, 0, 64, 54
2, 216, Note_off_c, 0, 64, 64
2, 216, Note_off_c, 0, 72, 64
2, 216, Note_off_c, 0, 60, 64
2, 240, Note_on_c, 0, 76, 71
2, 240, Note_on_c, 0, 64, 47
2, 240, Note_on_c, 0, 60, 42
2, 288, Note_off_c, 0, 76, 64
2, 300, Note_on_c, 0, 72, 58
2, 336, Note_off_c, 0, 60, 64
2, 336, Note_off_c, 0, 64, 64
2, 348, Note_off_c, 0, 72, 64
2, 360, Note_on_c, 0, 79, 61
2, 360, Note_on_c, 0, 64, 47
2, 360, Note_on_c, 0, 60, 42
2, 408, Note_off_c, 0, 79, 64
2, 420, Note_on_c, 0, 76, 83
2, 456, Note_off_c, 0, 60, 64
2, 456, Note_off_c, 0, 64, 64
2, 468, Note_off_c, 0, 76, 64
2, 480, Note_on_c, 0, 60, 42
2, 480, Note_on_c, 0, 84, 71
2, 480, Note_on_c, 0, 64, 54
2, 576, Note_off_c, 0, 64, 64
2, 576, Note_off_c, 0, 60, 64
2, 600, Note_on_c, 0, 64, 61
2, 600, Note_on_c, 0, 60, 44
2, 624, Note_off_c, 0, 84, 64
2, 660, Note_on_c, 0, 79, 54
2, 696, Note_off_c, 0, 60, 64
2, 696, Note_off_c, 0, 64, 64
2, 708, Note_off_c, 0, 79, 64
2, 720, Note_on_c, 0, 81, 61
2, 720, Note_on_c, 0, 64, 58
2, 720, Note_on_c, 0, 60, 42
2, 732, Note_off_c, 0, 81, 64
2, 735, Note_on_c, 0, 79, 55
2, 747, Note_off_c, 0, 79, 64
2, 750, Note_on_c, 0, 81, 52
2, 762, Note_off_c, 0, 81, 64
2, 765, Note_on_c, 0, 79, 58
2, 777, Note_off_c, 0, 79, 64
2, 780, Note_on_c, 0, 81, 61
2, 792, Note_off_c, 0, 81, 64
2, 795, Note_on_c, 0, 79, 45
2, 807, Note_off_c, 0, 79, 64
2, 810, Note_on_c, 0, 81, 55
2, 816, Note_off_c, 0, 60, 64
2, 816, Note_off_c, 0, 64, 64
2, 822, Note_off_c, 0, 81, 64
2, 825, Note_on_c, 0, 79, 61
2, 837, Note_off_c, 0, 79, 64
2, 840, Note_on_c, 0, 81, 54
2, 840, Note_on_c, 0, 64, 57
2, 840, Note_on_c, 0, 60, 45
2, 852, Note_off_c, 0, 81, 64
2, 855, Note_on_c, 0, 79, 44
2, 867, Note_off_c, 0, 79, 64
2, 870, Note_on_c, 0, 81, 50
2, 882, Note_off_c, 0, 81, 64
2, 885, Note_on_c, 0, 79, 50
2, 897, Note_off_c, 0, 79, 64
2, 900, Note_on_c, 0, 81, 54
2, 912, Note_off_c, 0, 81, 64
2, 915, Note_on_c, 0, 79, 50
2, 927, Note_off_c, 0, 79, 64
2, 930, Note_on_c, 0, 81, 45
2, 936, Note_off_c, 0, 60, 64
2, 936, Note_off_c, 0, 64, 64
2, 942, Note_off_c, 0, 81, 64
2, 945, Note_on_c, 0, 79, 44
2, 957, Note_off_c, 0, 79, 64
2, 960, Note_on_c, 0, 60, 47
2, 960, Note_on_c, 0, 65, 45
2, 1056, Note_off_c, 0, 65, 64
2, 1056, Note_off_c, 0, 60, 64
2, 1080, Note_on_c, 0, 65, 47
2, 1080, Note_on_c, 0, 72, 77
2, 1080, Note_on_c, 0, 60, 48
2, 1176, Note_off_c, 0, 60, 64
2, 1176, Note_off_c, 0, 72, 64
2, 1176, Note_off_c, 0, 65, 64
2, 1200, Note_on_c, 0, 77, 71
2, 1200, Note_on_c, 0, 60, 50
2, 1200, Note_on_c, 0, 65, 47
2, 1248, Note_off_c, 0, 77, 64
2, 1260, Note_on_c, 0, 72, 71
2, 1296, Note_off_c, 0, 65, 64
2, 1296, Note_off_c, 0, 60, 64
2, 1308, Note_off_c, 0, 72, 64
2, 1320, Note_on_c, 0, 81, 54
2, 1320, Note_on_c, 0, 60, 43
2, 1320, Note_on_c, 0, 65, 45
2, 1368, Note_off_c, 0, 81, 64
2, 1380, Note_on_c, 0, 77, 50
2, 1416, Note_off_c, 0, 65, 64
2, 1416, Note_off_c, 0, 60, 64
2, 1428, Note_off_c, 0, 77, 64
2, 1440, Note_on_c, 0, 65, 61
2, 1440, Note_on_c, 0, 60, 60
2, 1440, Note_on_c, 0, 84, 114
2, 1536, Note_off_c, 0, 60, 64
2, 1536, Note_off_c, 0, 65, 64
2, 1560, Note_on_c, 0, 60, 56
2, 1560, Note_on_c, 0, 65, 58
2, 1584, Note_off_c, 0, 84, 64
2, 1620, Note_on_c, 0, 81, 89
2, 1656, Note_off_c, 0, 65, 64
2, 1656, Note_off_c, 0, 60, 64
2, 1668, Note_off_c, 0, 81, 64
2, 1680, Note_on_c, 0, 83, 52
2, 1680, Note_on_c, 0, 60, 66
2, 1680, Note_on_c, 0, 65, 56
2, 1692, Note_off_c, 0, 83, 64
2, 1695, Note_on_c, 0, 81, 61
2, 1707, Note_off_c, 0, 81, 64
2, 1710, Note_on_c, 0, 83, 50
2, 1722, Note_off_c, 0, 83, 64
2, 1725, Note_on_c, 0, 81, 42
2, 1737, Note_off_c, 0, 81, 64
2, 1740, Note_on_c, 0, 83, 50
2, 1752, Note_off_c, 0, 83, 64
2, 1755, Note_on_c, 0, 81, 52
2, 1767, Note_off_c, 0, 81, 64
2, 1770, Note_on_c, 0, 83, 45
2, 1776, Note_off_c, 0, 65, 64
2, 1776, Note_off_c, 0, 60, 64
2, 1782, Note_off_c, 0, 83, 64
2, 1785, Note_on_c, 0, 81, 61
2, 1797, Note_off_c, 0, 81, 64
2, 1800, Note_on_c, 0, 83, 58
2, 1800, Note_on_c, 0, 60, 58
2, 1800, Note_on_c, 0, 65, 48
2, 1812, Note_off_c, 0, 83, 64
2, 1815, Note_on_c, 0, 81, 61
2, 1827, Note_off_c, 0, 81, 64
2, 1830, Note_on_c, 0, 83, 66
2, 1842, Note_off_c, 0, 83, 64
2, 1845, Note_on_c, 0, 81, 52
2, 1857, Note_off_c, 0, 81, 64
2, 1860, Note_on_c, 0, 83, 42
2, 1872, Note_off_c, 0, 83, 64
2, 1875, Note_on_c, 0, 81, 42
2, 1887, Note_off_c, 0, 81, 64
2, 1890, Note_on_c, 0, 83, 50
2, 1896, Note_off_c, 0, 65, 64
2, 1896, Note_off_c, 0, 60, 64
2, 1902, Note_off_c, 0, 83, 64
2, 1905, Note_on_c, 0, 81, 71
2, 1917, Note_off_c, 0, 81, 64
2, 1920, Note_on_c, 0, 60, 57
2, 1920, Note_on_c, 0, 64, 69
2, 2016, Note_off_c, 0, 64, 64
2, 2016, Note_off_c, 0, 60, 64
2, 2040, Note_on_c, 0, 64, 54
2, 2040, Note_on_c, 0, 72, 66
2, 2040, Note_on_c, 0, 60, 57
2, 2136, Note_off_c, 0, 60, 64
2, 2136, Note_off_c, 0, 72, 64
2, 2136, Note_off_c, 0, 64, 64
2, 2160, Note_on_c, 0, 76, 66
2, 2160, Note_on_c, 0, 60, 44
2, 2160, Note_on_c, 0, 64, 65
2, 2208, Note_off_c, 0, 76, 64
2, 2220, Note_on_c, 0, 72, 89
2, 2256, Note_off_c, 0, 64, 64
2, 2256, Note_off_c, 0, 60, 64
2, 2268, Note_off_c, 0, 72, 64
2, 2280, Note_on_c, 0, 79, 81
2, 2280, Note_on_c, 0, 60, 44
2, 2280, Note_on_c, 0, 64, 43
2, 2328, Note_off_c, 0, 79, 64
2, 2340, Note_on_c, 0, 76, 83
2, 2376, Note_off_c, 0, 64, 64
2, 2376, Note_off_c, 0, 60, 64
2, 2388, Note_off_c, 0, 76, 64
2, 2400, Note_on_c, 0, 60, 48
2, 2400, Note_on_c, 0, 84, 77
2, 2400, Note_on_c, 0, 64, 61
2, 2496, Note_off_c, 0, 64, 64
2, 2496, Note_off_c, 0, 60, 64
2, 2520, Note_on_c, 0, 64, 81
2, 2520, Note_on_c, 0, 60, 74
2, 2544, Note_off_c, 0, 84, 64
2, 2580, Note_on_c, 0, 79, 77
2, 2616, Note_off_c, 0, 60, 64
2, 2616, Note_off_c, 0, 64, 64
2, 2628, Note_off_c, 0, 79, 64
2, 2640, Note_on_c, 0, 81, 58
2, 2640, Note_on_c, 0, 64, 69
2, 2640, Note_on_c, 0, 60, 69
2, 2652, Note_off_c, 0, 81, 64
2, 2655, Note_on_c, 0, 79, 54
2, 2667, Note_off_c, 0, 79, 64
2, 2670, Note_on_c, 0, 81, 52
2, 2682, Note_off_c, 0, 81, 64
2, 2685, Note_on_c, 0, 79, 52
2, 2697, Note_off_c, 0, 79, 64
2, 2700, Note_on_c, 0, 81, 54
2, 2712, Note_off_c, 0, 81, 64
2, 2715, Note_on_c, 0, 79, 54
2, 2727, Note_off_c, 0, 79, 64
2, 2730, Note_on_c, 0, 81, 55
2, 2736, Note_off_c, 0, 60, 64
2, 2736, Note_off_c, 0, 64, 64
2, 2742, Note_off_c, 0, 81, 64
2, 2745, Note_on_c, 0, 79, 61
2, 2757, Note_off_c, 0, 79, 64
2, 2760, Note_on_c, 0, 81, 61
2, 2760, Note_on_c, 0, 64, 71
2, 2760, Note_on_c, 0, 60, 77
2, 2772, Note_off_c, 0, 81, 64
2, 2775, Note_on_c, 0, 79, 54
2, 2787, Note_off_c, 0, 79, 64
2, 2790, Note_on_c, 0, 81, 61
2, 2802, Note_off_c, 0, 81, 64
2, 2805, Note_on_c, 0, 79, 61
2, 2817, Note_off_c, 0, 79, 64
2, 2820, Note_on_c, 0, 81, 58
2, 2832, Note_off_c, 0, 81, 64
2, 2835, Note_on_c, 0, 79, 58
2, 2847, Note_off_c, 0, 79, 64
2, 2850, Note_on_c, 0, 81, 54
2, 2856, Note_off_c, 0, 60, 64
2, 2856, Note_off_c, 0, 64, 64
2, 2862, Note_off_c, 0, 81, 64
2, 2865, Note_on_c, 0, 79, 58
2, 2877, Note_off_c, 0, 79, 64
2, 2880, Note_on_c, 0, 55, 69
2, 2880, Note_on_c, 0, 79, 71
2, 2880, Note_on_c, 0, 62, 69
2, 2928, Note_off_c, 0, 79, 64
2, 2940, Note_on_c, 0, 77, 58
2, 2976, Note_off_c, 0, 62, 64
2, 2988, Note_off_c, 0, 77, 64
2, 3000, Note_on_c, 0, 86, 71
2, 3000, Note_on_c, 0, 59, 67
2, 3048, Note_off_c, 0, 86, 64
2, 3060, Note_on_c, 0, 77, 83
2, 3096, Note_off_c, 0, 59, 64
2, 3108, Note_off_c, 0, 77, 64
2, 3120, Note_on_c, 0, 60, 61
2, 3120, Note_on_c, 0, 76, 81
2, 3216, Note_off_c, 0, 76, 64
2, 3216, Note_off_c, 0, 60, 64
2, 3240, Note_on_c, 0, 64, 77
2, 3240, Note_on_c, 0, 84, 80
2, 3336, Note_off_c, 0, 84, 64
2, 3336, Note_off_c, 0, 55, 64
2, 3336, Note_off_c, 0, 64, 64
2, 3360, Note_on_c, 0, 62, 58
2, 3360, Note_on_c, 0, 79, 77
2, 3360, Note_on_c, 0, 55, 64
2, 3408, Note_off_c, 0, 79, 64
2, 3420, Note_on_c, 0, 77, 83
2, 3456, Note_off_c, 0, 62, 64
2, 3468, Note_off_c, 0, 77, 64
2, 3480, Note_on_c, 0, 59, 53
2, 3480, Note_on_c, 0, 86, 71
2, 3528, Note_off_c, 0, 86, 64
2, 3540, Note_on_c, 0, 77, 97
2, 3576, Note_off_c, 0, 59, 64
2, 3588, Note_off_c, 0, 77, 64
2, 3600, Note_on_c, 0, 60, 53
2, 3600, Note_on_c, 0, 76, 89
2, 3696, Note_off_c, 0, 76, 64
2, 3696, Note_off_c, 0, 60, 64
2, 3720, Note_on_c, 0, 64, 64
2, 3720, Note_on_c, 0, 84, 54
2, 3816, Note_off_c, 0, 84, 64
2, 3816, Note_off_c, 0, 64, 64
2, 3816, Note_off_c, 0, 55, 64
2, 3840, Note_on_c, 0, 55, 61
2, 3840, Note_on_c, 0, 62, 49
2, 3900, Note_on_c, 0, 77, 54
2, 3948, Note_off_c, 0, 77, 64
2, 3960, Note_on_c, 0, 86, 83
2, 4008, Note_off_c, 0, 86, 64
2, 4020, Note_on_c, 0, 77, 83
2, 4032, Note_off_c, 0, 62, 64
2, 4032, Note_off_c, 0, 55, 64
2, 4068, Note_off_c, 0, 77, 64
2, 4080, Note_on_c, 0, 60, 47
2, 4080, Note_on_c, 0, 55, 58
2, 4140, Note_on_c, 0, 76, 71
2, 4188, Note_off_c, 0, 76, 64
2, 4200, Note_on_c, 0, 84, 61
2, 4248, Note_off_c, 0, 84, 64
2, 4260, Note_on_c, 0, 76, 89
2, 4272, Note_off_c, 0, 55, 64
2, 4272, Note_off_c, 0, 60, 64
2, 4308, Note_off_c, 0, 76, 64
2, 4320, Note_on_c, 0, 55, 71
2, 4320, Note_on_c, 0, 60, 50
2, 4320, Note_on_c, 0, 77, 83
2, 4332, Note_off_c, 0, 77, 64
2, 4335, Note_on_c, 0, 76, 97
2, 4347, Note_off_c, 0, 76, 64
2, 4350, Note_on_c, 0, 77, 71
2, 4362, Note_off_c, 0, 77, 64
2, 4365, Note_on_c, 0, 76, 97
2, 4377, Note_off_c, 0, 76, 64
2, 4380, Note_on_c, 0, 77, 77
2, 4392, Note_off_c, 0, 77, 64
2, 4395, Note_on_c, 0, 76, 77
2, 4407, Note_off_c, 0, 76, 64
2, 4410, Note_on_c, 0, 77, 66
2, 4416, Note_off_c, 0, 60, 64
2, 4422, Note_off_c, 0, 77, 64
2, 4425, Note_on_c, 0, 76, 77
2, 4437, Note_off_c, 0, 76, 64
2, 4440, Note_on_c, 0, 59, 54
2, 4440, Note_on_c, 0, 74, 83
2, 4536, Note_off_c, 0, 74, 64
2, 4536, Note_off_c, 0, 55, 64
2, 4536, Note_off_c, 0, 59, 64
2, 4680, Note_on_c, 0, 79, 58
2, 4776, Note_off_c, 0, 79, 64
2, 4800, Note_on_c, 0, 79, 58
2, 4848, Note_off_c, 0, 79, 64
2, 4860, Note_on_c, 0, 78, 66
2, 4908, Note_off_c, 0, 78, 64
2, 4920, Note_on_c, 0, 81, 71
2, 4968, Note_off_c, 0, 81, 64
2, 4980, Note_on_c, 0, 79, 61
2, 5028, Note_off_c, 0, 79, 64
2, 5040, Note_on_c, 0, 83, 71
2, 5088, Note_off_c, 0, 83, 64
2, 5100, Note_on_c, 0, 79, 66
2, 5148, Note_off_c, 0, 79, 64
2, 5160, Note_on_c, 0, 78, 71
2, 5208, Note_off_c, 0, 78, 64
2, 5220, Note_on_c, 0, 79, 66
2, 5268, Note_off_c, 0, 79, 64
2, 5280, Note_on_c, 0, 47, 42
2, 5280, Note_on_c, 0, 74, 77
2, 5280, Note_on_c, 0, 59, 50
2, 5328, Note_off_c, 0, 74, 64
2, 5340, Note_on_c, 0, 79, 61
2, 5376, Note_off_c, 0, 59, 64
2, 5376, Note_off_c, 0, 47, 64
2, 5388, Note_off_c, 0, 79, 64
2, 5400, Note_on_c, 0, 76, 97
2, 5400, Note_on_c, 0, 60, 52
2, 5400, Note_on_c, 0, 48, 60
2, 5448, Note_off_c, 0, 76, 64
2, 5460, Note_on_c, 0, 79, 58
2, 5496, Note_off_c, 0, 48, 64
2, 5496, Note_off_c, 0, 60, 64
2, 5508, Note_off_c, 0, 79, 64
2, 5520, Note_on_c, 0, 59, 54
2, 5520, Note_on_c, 0, 47, 43
2, 5520, Note_on_c, 0, 74, 71
2, 5616, Note_off_c, 0, 74, 64
2, 5616, Note_off_c, 0, 47, 64
2, 5616, Note_off_c, 0, 59, 64
2, 5640, Note_on_c, 0, 79, 54
2, 5736, Note_off_c, 0, 79, 64
2, 5760, Note_on_c, 0, 79, 45
2, 5808, Note_off_c, 0, 79, 64
2, 5820, Note_on_c, 0, 78, 77
2, 5868, Note_off_c, 0, 78, 64
2, 5880, Note_on_c, 0, 81, 50
2, 5928, Note_off_c, 0, 81, 64
2, 5940, Note_on_c, 0, 79, 54
2, 5988, Note_off_c, 0, 79, 64
2, 6000, Note_on_c, 0, 83, 46
2, 6048, Note_off_c, 0, 83, 64
2, 6060, Note_on_c, 0, 79, 47
2, 6108, Note_off_c, 0, 79, 64
2, 6120, Note_on_c, 0, 78, 43
2, 6168, Note_off_c, 0, 78, 64
2, 6180, Note_on_c, 0, 79, 52
2, 6228, Note_off_c, 0, 79, 64
2, 6240, Note_on_c, 0, 47, 47
2, 6240, Note_on_c, 0, 74, 66
2, 6240, Note_on_c, 0, 59, 44
2, 6288, Note_off_c, 0, 74, 64
2, 6300, Note_on_c, 0, 79, 52
2, 6336, Note_off_c, 0, 59, 64
2, 6336, Note_off_c, 0, 47, 64
2, 6348, Note_off_c, 0, 79, 64
2, 6360, Note_on_c, 0, 72, 89
2, 6360, Note_on_c, 0, 57, 43
2, 6360, Note_on_c, 0, 45, 1
2, 6408, Note_off_c, 0, 72, 64
2, 6420, Note_on_c, 0, 79, 58
2, 6456, Note_off_c, 0, 45, 64
2, 6456, Note_off_c, 0, 57, 64
2, 6468, Note_off_c, 0, 79, 64
2, 6480, Note_on_c, 0, 55, 42
2, 6480, Note_on_c, 0, 43, 42
2, 6480, Note_on_c, 0, 71, 75
2, 6576, Note_off_c, 0, 71, 64
2, 6576, Note_off_c, 0, 43, 64
2, 6576, Note_off_c, 0, 55, 64
2, 6600, Note_on_c, 0, 47, 58
2, 6600, Note_on_c, 0, 74, 66
2, 6648, Note_off_c, 0, 74, 64
2, 6660, Note_on_c, 0, 79, 47
2, 6696, Note_off_c, 0, 47, 64
2, 6708, Note_off_c, 0, 79, 64
2, 6720, Note_on_c, 0, 76, 83
2, 6720, Note_on_c, 0, 48, 50
2, 6768, Note_off_c, 0, 76, 64
2, 6780, Note_on_c, 0, 79, 75
2, 6816, Note_off_c, 0, 48, 64
2, 6828, Note_off_c, 0, 79, 64
2, 6840, Note_on_c, 0, 50, 77
2, 6840, Note_on_c, 0, 74, 77
2, 6888, Note_off_c, 0, 74, 64
2, 6900, Note_on_c, 0, 79, 77
2, 6936, Note_off_c, 0, 50, 64
2, 6948, Note_off_c, 0, 79, 64
2, 6960, Note_on_c, 0, 52, 83
2, 6960, Note_on_c, 0, 72, 77
2, 7008, Note_off_c, 0, 72, 64
2, 7020, Note_on_c, 0, 76, 97
2, 7056, Note_off_c, 0, 52, 64
2, 7068, Note_off_c, 0, 76, 64
2, 7080, Note_on_c, 0, 49, 71
2, 7080, Note_on_c, 0, 81, 89
2, 7128, Note_off_c, 0, 81, 64
2, 7140, Note_on_c, 0, 79, 83
2, 7176, Note_off_c, 0, 49, 64
2, 7188, Note_off_c, 0, 79, 64
2, 7200, Note_on_c, 0, 78, 89
2, 7200, Note_on_c, 0, 50, 61
2, 7248, Note_off_c, 0, 78, 64
2, 7260, Note_on_c, 0, 81, 89
2, 7296, Note_off_c, 0, 50, 64
2, 7308, Note_off_c, 0, 81, 64
2, 7320, Note_on_c, 0, 52, 47
2, 7320, Note_on_c, 0, 76, 83
2, 7368, Note_off_c, 0, 76, 64
2, 7380, Note_on_c, 0, 81, 95
2, 7416, Note_off_c, 0, 52, 64
2, 7428, Note_off_c, 0, 81, 64
2, 7440, Note_on_c, 0, 54, 61
2, 7440, Note_on_c, 0, 74, 89
2, 7488, Note_off_c, 0, 74, 64
2, 7500, Note_on_c, 0, 78, 95
2, 7536, Note_off_c, 0, 54, 64
2, 7548, Note_off_c, 0, 78, 64
2, 7560, Note_on_c, 0, 51, 50
2, 7560, Note_on_c, 0, 83, 97
2, 7608, Note_off_c, 0, 83, 64
2, 7620, Note_on_c, 0, 81, 77
2, 7656, Note_off_c, 0, 51, 64
2, 7668, Note_off_c, 0, 81, 64
2, 7680, Note_on_c, 0, 79, 71
2, 7680, Note_on_c, 0, 52, 46
2, 7728, Note_off_c, 0, 79, 64
2, 7740, Note_on_c, 0, 83, 83
2, 7776, Note_off_c, 0, 52, 64
2, 7788, Note_off_c, 0, 83, 64
2, 7800, Note_on_c, 0, 54, 50
2, 7800, Note_on_c, 0, 78, 89
2, 7848, Note_off_c, 0, 78, 64
2, 7860, Note_on_c, 0, 83, 89
2, 7896, Note_off_c, 0, 54, 64
2, 7908, Note_off_c, 0, 83, 64
2, 7920, Note_on_c, 0, 55, 67
2, 7920, Note_on_c, 0, 76, 103
2, 7968, Note_off_c, 0, 76, 64
2, 7980, Note_on_c, 0, 79, 77
2, 8016, Note_off_c, 0, 55, 64
2, 8028, Note_off_c, 0, 79, 64
2, 8040, Note_on_c, 0, 52, 54
2, 8040, Note_on_c, 0, 84, 89
2, 8088, Note_off_c, 0, 84, 64
2, 8100, Note_on_c, 0, 83, 89
2, 8136, Note_off_c, 0, 52, 64
2, 8148, Note_off_c, 0, 83, 64
2, 8160, Note_on_c, 0, 81, 66
2, 8160, Note_on_c, 0, 54, 61
2, 8208, Note_off_c, 0, 81, 64
2, 8220, Note_on_c, 0, 84, 89
2, 8256, Note_off_c, 0, 54, 64
2, 8268, Note_off_c, 0, 84, 64
2, 8280, Note_on_c, 0, 55, 61
2, 8280, Note_on_c, 0, 79, 71
2, 8328, Note_off_c, 0, 79, 64
2, 8340, Note_on_c, 0, 84, 97
2, 8376, Note_off_c, 0, 55, 64
2, 8388, Note_off_c, 0, 84, 64
2, 8400, Note_on_c, 0, 57, 42
2, 8400, Note_on_c, 0, 78, 66
2, 8448, Note_off_c, 0, 78, 64
2, 8460, Note_on_c, 0, 81, 89
2, 8496, Note_off_c, 0, 57, 64
2, 8508, Note_off_c, 0, 81, 64
2, 8520, Note_on_c, 0, 54, 43
2, 8520, Note_on_c, 0, 86, 77
2, 8568, Note_off_c, 0, 86, 64
2, 8580, Note_on_c, 0, 84, 83
2, 8616, Note_off_c, 0, 54, 64
2, 8628, Note_off_c, 0, 84, 64
2, 8640, Note_on_c, 0, 83, 66
2, 8640, Note_on_c, 0, 55, 43
2, 8688, Note_off_c, 0, 83, 64
2, 8700, Note_on_c, 0, 86, 77
2, 8736, Note_off_c, 0, 55, 64
2, 8748, Note_off_c, 0, 86, 64
2, 8760, Note_on_c, 0, 59, 52
2, 8760, Note_on_c, 0, 79, 61
2, 8808, Note_off_c, 0, 79, 64
2, 8820, Note_on_c, 0, 81, 71
2, 8856, Note_off_c, 0, 59, 64
2, 8868, Note_off_c, 0, 81, 64
2, 8880, Note_on_c, 0, 60, 58
2, 8880, Note_on_c, 0, 83, 66
2, 8892, Note_off_c, 0, 83, 64
2, 8895, Note_on_c, 0, 81, 61
2, 8907, Note_off_c, 0, 81, 64
2, 8910, Note_on_c, 0, 83, 61
2, 8922, Note_off_c, 0, 83, 64
2, 8925, Note_on_c, 0, 81, 54
2, 8937, Note_off_c, 0, 81, 64
2, 8940, Note_on_c, 0, 83, 54
2, 8952, Note_off_c, 0, 83, 64
2, 8955, Note_on_c, 0, 81, 50
2, 8967, Note_off_c, 0, 81, 64
2, 8970, Note_on_c, 0, 83, 42
2, 8976, Note_off_c, 0, 60, 64
2, 8982, Note_off_c, 0, 83, 64
2, 8985, Note_on_c, 0, 81, 47
2, 8997, Note_off_c, 0, 81, 64
2, 9000, Note_on_c, 0, 62, 61
2, 9000, Note_on_c, 0, 83, 75
2, 9012, Note_off_c, 0, 83, 64
2, 9015, Note_on_c, 0, 81, 58
2, 9027, Note_off_c, 0, 81, 64
2, 9030, Note_on_c, 0, 83, 66
2, 9042, Note_off_c, 0, 83, 64
2, 9045, Note_on_c, 0, 81, 54
2, 9057, Note_off_c, 0, 81, 64
2, 9060, Note_on_c, 0, 83, 71
2, 9072, Note_off_c, 0, 83, 64
2, 9075, Note_on_c, 0, 81, 47
2, 9087, Note_off_c, 0, 81, 64
2, 9090, Note_on_c, 0, 83, 66
2, 9096, Note_off_c, 0, 62, 64
2, 9102, Note_off_c, 0, 83, 64
2, 9105, Note_on_c, 0, 81, 61
2, 9117, Note_off_c, 0, 81, 64
2, 9120, Note_on_c, 0, 55, 52
2, 9120, Note_on_c, 0, 79, 52
2, 9216, Note_off_c, 0, 55, 64
2, 9240, Note_on_c, 0, 50, 77
2, 9312, Note_off_c, 0, 79, 64
2, 9336, Note_off_c, 0, 50, 64
2, 9360, Note_on_c, 0, 43, 44
2, 9480, Note_on_c, 0, 70, 71
2, 9480, Note_on_c, 0, 74, 69
2, 9552, Note_off_c, 0, 43, 64
2, 9576, Note_off_c, 0, 74, 64
2, 9576, Note_off_c, 0, 70, 64
2, 9600, Note_on_c, 0, 75, 69
2, 9600, Note_on_c, 0, 72, 69
2, 9696, Note_off_c, 0, 72, 64
2, 9696, Note_off_c, 0, 75, 64
2, 9720, Note_on_c, 0, 55, 42
2, 9720, Note_on_c, 0, 43, 47
2, 9816, Note_off_c, 0, 43, 64
2, 9816, Note_off_c, 0, 55, 64
2, 9840, Note_on_c, 0, 45, 43
2, 9840, Note_on_c, 0, 57, 42
2, 9936, Note_off_c, 0, 57, 64
2, 9936, Note_off_c, 0, 45, 64
2, 9960, Note_on_c, 0, 74, 66
2, 9960, Note_on_c, 0, 70, 74
2, 10056, Note_off_c, 0, 70, 64
2, 10056, Note_off_c, 0, 74, 64
2, 10080, Note_on_c, 0, 72, 51
2, 10080, Note_on_c, 0, 69, 80
2, 10176, Note_off_c, 0, 69, 64
2, 10176, Note_off_c, 0, 72, 64
2, 10200, Note_on_c, 0, 55, 43
2, 10200, Note_on_c, 0, 43, 44
2, 10296, Note_off_c, 0, 43, 64
2, 10296, Note_off_c, 0, 55, 64
2, 10320, Note_on_c, 0, 54, 44
2, 10320, Note_on_c, 0, 42, 51
2, 10416, Note_off_c, 0, 42, 64
2, 10416, Note_off_c, 0, 54, 64
2, 10440, Note_on_c, 0, 69, 61
2, 10440, Note_on_c, 0, 72, 54
2, 10536, Note_off_c, 0, 72, 64
2, 10536, Note_off_c, 0, 69, 64
2, 10560, Note_on_c, 0, 70, 83
2, 10560, Note_on_c, 0, 74, 77
2, 10656, Note_off_c, 0, 74, 64
2, 10656, Note_off_c, 0, 70, 64
2, 10680, Note_on_c, 0, 54, 57
2, 10680, Note_on_c, 0, 42, 44
2, 10776, Note_off_c, 0, 42, 64
2, 10776, Note_off_c, 0, 54, 64
2, 10800, Note_on_c, 0, 55, 34
2, 10800, Note_on_c, 0, 43, 30
2, 10896, Note_off_c, 0, 43, 64
2, 10896, Note_off_c, 0, 55, 64
2, 10920, Note_on_c, 0, 69, 47
2, 10920, Note_on_c, 0, 72, 44
2, 11016, Note_off_c, 0, 72, 64
2, 11016, Note_off_c, 0, 69, 64
2, 11040, Note_on_c, 0, 70, 42
2, 11040, Note_on_c, 0, 67, 61
2, 11136, Note_off_c, 0, 67, 64
2, 11136, Note_off_c, 0, 70, 64
2, 11160, Note_on_c, 0, 41, 58
2, 11160, Note_on_c, 0, 53, 43
2, 11256, Note_off_c, 0, 53, 64
2, 11256, Note_off_c, 0, 41, 64
2, 11280, Note_on_c, 0, 39, 43
2, 11280, Note_on_c, 0, 51, 42
2, 11376, Note_off_c, 0, 51, 64
2, 11376, Note_off_c, 0, 39, 64
2, 11400, Note_on_c, 0, 66, 80
2, 11400, Note_on_c, 0, 69, 80
2, 11496, Note_off_c, 0, 69, 64
2, 11496, Note_off_c, 0, 66, 64
2, 11520, Note_on_c, 0, 70, 61
2, 11520, Note_on_c, 0, 67, 74
2, 11616, Note_off_c, 0, 67, 64
2, 11616, Note_off_c, 0, 70, 64
2, 11640, Note_on_c, 0, 38, 42
2, 11640, Note_on_c, 0, 50, 42
2, 11736, Note_off_c, 0, 50, 64
2, 11736, Note_off_c, 0, 38, 64
2, 11760, Note_on_c, 0, 49, 42
2, 11760, Note_on_c, 0, 37, 47
2, 11856, Note_off_c, 0, 37, 64
2, 11856, Note_off_c, 0, 49, 64
2, 11880, Note_on_c, 0, 49, 49
2, 11880, Note_on_c, 0, 37, 42
2, 11880, Note_on_c, 0, 70, 58
2, 11880, Note_on_c, 0, 67, 77
2, 11976, Note_off_c, 0, 67, 64
2, 11976, Note_off_c, 0, 70, 64
2, 11976, Note_off_c, 0, 37, 64
2, 11976, Note_off_c, 0, 49, 64
2, 12000, Note_on_c, 0, 38, 1
2, 12000, Note_on_c, 0, 70, 58
2, 12000, Note_on_c, 0, 67, 89
2, 12000, Note_on_c, 0, 50, 40
2, 12096, Note_off_c, 0, 67, 64
2, 12096, Note_off_c, 0, 70, 64
2, 12120, Note_on_c, 0, 69, 47
2, 12120, Note_on_c, 0, 66, 77
2, 12192, Note_off_c, 0, 50, 64
2, 12192, Note_off_c, 0, 38, 64
2, 12216, Note_off_c, 0, 66, 64
2, 12216, Note_off_c, 0, 69, 64
2, 12360, Note_on_c, 0, 79, 66
2, 12392, Note_off_c, 0, 79, 64
2, 12400, Note_on_c, 0, 81, 77
2, 12432, Note_off_c, 0, 81, 64
2, 12440, Note_on_c, 0, 83, 45
2, 12472, Note_off_c, 0, 83, 64
2, 12480, Note_on_c, 0, 59, 54
2, 12480, Note_on_c, 0, 55, 77
2, 12480, Note_on_c, 0, 79, 71
2, 12576, Note_off_c, 0, 79, 64
2, 12600, Note_on_c, 0, 74, 66
2, 12632, Note_off_c, 0, 74, 64
2, 12640, Note_on_c, 0, 76, 83
2, 12672, Note_off_c, 0, 76, 64
2, 12672, Note_off_c, 0, 55, 64
2, 12672, Note_off_c, 0, 59, 64
2, 12680, Note_on_c, 0, 78, 58
2, 12712, Note_off_c, 0, 78, 64
2, 12720, Note_on_c, 0, 79, 61
2, 12816, Note_off_c, 0, 79, 64
2, 12840, Note_on_c, 0, 71, 77
2, 12872, Note_off_c, 0, 71, 64
2, 12880, Note_on_c, 0, 72, 61
2, 12912, Note_off_c, 0, 72, 64
2, 12920, Note_on_c, 0, 74, 61
2, 12952, Note_off_c, 0, 74, 64
2, 12960, Note_on_c, 0, 71, 62
2, 13056, Note_off_c, 0, 71, 64
2, 13080, Note_on_c, 0, 67, 42
2, 13112, Note_off_c, 0, 67, 64
2, 13120, Note_on_c, 0, 69, 61
2, 13152, Note_off_c, 0, 69, 64
2, 13160, Note_on_c, 0, 71, 54
2, 13192, Note_off_c, 0, 71, 64
2, 13200, Note_on_c, 0, 67, 61
2, 13296, Note_off_c, 0, 67, 64
2, 13320, Note_on_c, 0, 55, 71
2, 13320, Note_on_c, 0, 59, 43
2, 13320, Note_on_c, 0, 74, 61
2, 13416, Note_off_c, 0, 74, 64
2, 13416, Note_off_c, 0, 59, 64
2, 13416, Note_off_c, 0, 55, 64
2, 13440, Note_on_c, 0, 60, 64
2, 13440, Note_on_c, 0, 48, 50
2, 13440, Note_on_c, 0, 64, 71
2, 13536, Note_off_c, 0, 64, 64
2, 13560, Note_on_c, 0, 72, 66
2, 13592, Note_off_c, 0, 72, 64
2, 13600, Note_on_c, 0, 71, 61
2, 13632, Note_off_c, 0, 71, 64
2, 13632, Note_off_c, 0, 48, 64
2, 13632, Note_off_c, 0, 60, 64
2, 13640, Note_on_c, 0, 69, 61
2, 13672, Note_off_c, 0, 69, 64
2, 13680, Note_on_c, 0, 59, 44
2, 13680, Note_on_c, 0, 50, 42
2, 13680, Note_on_c, 0, 67, 66
2, 13776, Note_off_c, 0, 67, 64
2, 13776, Note_off_c, 0, 59, 64
2, 13800, Note_on_c, 0, 57, 53
2, 13800, Note_on_c, 0, 66, 47
2, 13896, Note_off_c, 0, 66, 64
2, 13896, Note_off_c, 0, 57, 64
2, 13896, Note_off_c, 0, 50, 64
2, 13920, Note_on_c, 0, 55, 52
2, 13920, Note_on_c, 0, 67, 61
2, 14016, Note_off_c, 0, 55, 64
2, 14040, Note_on_c, 0, 50, 58
2, 14112, Note_off_c, 0, 67, 64
2, 14136, Note_off_c, 0, 50, 64
2, 14160, Note_on_c, 0, 43, 42
2, 14280, Note_on_c, 0, 79, 58
2, 14312, Note_off_c, 0, 79, 64
2, 14320, Note_on_c, 0, 81, 71
2, 14352, Note_off_c, 0, 81, 64
2, 14352, Note_off_c, 0, 43, 64
2, 14360, Note_on_c, 0, 83, 66
2, 14392, Note_off_c, 0, 83, 64
2, 14400, Note_on_c, 0, 55, 54
2, 14400, Note_on_c, 0, 59, 43
2, 14400, Note_on_c, 0, 79, 58
2, 14496, Note_off_c, 0, 79, 64
2, 14520, Note_on_c, 0, 74, 83
2, 14552, Note_off_c, 0, 74, 64
2, 14560, Note_on_c, 0, 76, 89
2, 14592, Note_off_c, 0, 76, 64
2, 14592, Note_off_c, 0, 59, 64
2, 14592, Note_off_c, 0, 55, 64
2, 14600, Note_on_c, 0, 78, 52
2, 14632, Note_off_c, 0, 78, 64
2, 14640, Note_on_c, 0, 79, 45
2, 14736, Note_off_c, 0, 79, 64
2, 14760, Note_on_c, 0, 71, 71
2, 14792, Note_off_c, 0, 71, 64
2, 14800, Note_on_c, 0, 72, 66
2, 14832, Note_off_c, 0, 72, 64
2, 14840, Note_on_c, 0, 74, 61
2, 14872, Note_off_c, 0, 74, 64
2, 14880, Note_on_c, 0, 71, 42
2, 14976, Note_off_c, 0, 71, 64
2, 15000, Note_on_c, 0, 47, 44
2, 15000, Note_on_c, 0, 74, 66
2, 15000, Note_on_c, 0, 59, 45
2, 15048, Note_off_c, 0, 74, 64
2, 15060, Note_on_c, 0, 86, 80
2, 15096, Note_off_c, 0, 59, 64
2, 15096, Note_off_c, 0, 47, 64
2, 15108, Note_off_c, 0, 86, 64
2, 15120, Note_on_c, 0, 59, 42
2, 15120, Note_on_c, 0, 47, 40
2, 15120, Note_on_c, 0, 74, 61
2, 15168, Note_off_c, 0, 74, 64
2, 15180, Note_on_c, 0, 86, 43
2, 15216, Note_off_c, 0, 47, 64
2, 15216, Note_off_c, 0, 59, 64
2, 15228, Note_off_c, 0, 86, 64
2, 15240, Note_on_c, 0, 47, 40
2, 15240, Note_on_c, 0, 59, 41
2, 15240, Note_on_c, 0, 74, 58
2, 15288, Note_off_c, 0, 74, 64
2, 15300, Note_on_c, 0, 86, 66
2, 15336, Note_off_c, 0, 59, 64
2, 15336, Note_off_c, 0, 47, 64
2, 15348, Note_off_c, 0, 86, 64
2, 15360, Note_on_c, 0, 48, 43
2, 15360, Note_on_c, 0, 76, 89
2, 15360, Note_on_c, 0, 60, 44
2, 15408, Note_off_c, 0, 76, 64
2, 15420, Note_on_c, 0, 86, 71
2, 15456, Note_off_c, 0, 60, 64
2, 15456, Note_off_c, 0, 48, 64
2, 15468, Note_off_c, 0, 86, 64
2, 15480, Note_on_c, 0, 76, 75
2, 15480, Note_on_c, 0, 60, 44
2, 15480, Note_on_c, 0, 48, 42
2, 15528, Note_off_c, 0, 76, 64
2, 15540, Note_on_c, 0, 86, 80
2, 15576, Note_off_c, 0, 48, 64
2, 15576, Note_off_c, 0, 60, 64
2, 15588, Note_off_c, 0, 86, 64
2, 15600, Note_on_c, 0, 57, 42
2, 15600, Note_on_c, 0, 45, 47
2, 15600, Note_on_c, 0, 76, 83
2, 15648, Note_off_c, 0, 76, 64
2, 15660, Note_on_c, 0, 84, 83
2, 15696, Note_off_c, 0, 45, 64
2, 15696, Note_off_c, 0, 57, 64
2, 15708, Note_off_c, 0, 84, 64
2, 15720, Note_on_c, 0, 57, 42
2, 15720, Note_on_c, 0, 45, 47
2, 15720, Note_on_c, 0, 76, 77
2, 15768, Note_off_c, 0, 76, 64
2, 15780, Note_on_c, 0, 84, 89
2, 15816, Note_off_c, 0, 45, 64
2, 15816, Note_off_c, 0, 57, 64
2, 15828, Note_off_c, 0, 84, 64
2, 15840, Note_on_c, 0, 42, 66
2, 15840, Note_on_c, 0, 74, 61
2, 15840, Note_on_c, 0, 54, 43
2, 15888, Note_off_c, 0, 74, 64
2, 15900, Note_on_c, 0, 84, 77
2, 15936, Note_off_c, 0, 54, 64
2, 15936, Note_off_c, 0, 42, 64
2, 15948, Note_off_c, 0, 84, 64
2, 15960, Note_on_c, 0, 74, 58
2, 15960, Note_on_c, 0, 54, 45
2, 15960, Note_on_c, 0, 42, 55
2, 16008, Note_off_c, 0, 74, 64
2, 16020, Note_on_c, 0, 84, 66
2, 16056, Note_off_c, 0, 42, 64
2, 16056, Note_off_c, 0, 54, 64
2, 16068, Note_off_c, 0, 84, 64
2, 16080, Note_on_c, 0, 55, 42
2, 16080, Note_on_c, 0, 43, 50
2, 16080, Note_on_c, 0, 74, 55
2, 16128, Note_off_c, 0, 74, 64
2, 16140, Note_on_c, 0, 83, 58
2, 16176, Note_off_c, 0, 43, 64
2, 16176, Note_off_c, 0, 55, 64
2, 16188, Note_off_c, 0, 83, 64
2, 16200, Note_on_c, 0, 55, 42
2, 16200, Note_on_c, 0, 43, 34
2, 16200, Note_on_c, 0, 74, 61
2, 16248, Note_off_c, 0, 74, 64
2, 16260, Note_on_c, 0, 83, 58
2, 16296, Note_off_c, 0, 43, 64
2, 16296, Note_off_c, 0, 55, 64
2, 16308, Note_off_c, 0, 83, 64
2, 16320, Note_on_c, 0, 36, 1
2, 16320, Note_on_c, 0, 72, 52
2, 16320, Note_on_c, 0, 48, 42
2, 16368, Note_off_c, 0, 72, 64
2, 16380, Note_on_c, 0, 81, 83
2, 16416, Note_off_c, 0, 48, 64
2, 16416, Note_off_c, 0, 36, 64
2, 16428, Note_off_c, 0, 81, 64
2, 16440, Note_on_c, 0, 72, 71
2, 16440, Note_on_c, 0, 36, 43
2, 16440, Note_on_c, 0, 48, 1
2, 16488, Note_off_c, 0, 72, 64
2, 16500, Note_on_c, 0, 81, 83
2, 16536, Note_off_c, 0, 48, 64
2, 16536, Note_off_c, 0, 36, 64
2, 16548, Note_off_c, 0, 81, 64
2, 16560, Note_on_c, 0, 50, 41
2, 16560, Note_on_c, 0, 38, 45
2, 16560, Note_on_c, 0, 69, 71
2, 16608, Note_off_c, 0, 69, 64
2, 16620, Note_on_c, 0, 78, 71
2, 16656, Note_off_c, 0, 38, 64
2, 16656, Note_off_c, 0, 50, 64
2, 16668, Note_off_c, 0, 78, 64
2, 16680, Note_on_c, 0, 38, 43
2, 16680, Note_on_c, 0, 50, 43
2, 16680, Note_on_c, 0, 69, 71
2, 16728, Note_off_c, 0, 69, 64
2, 16740, Note_on_c, 0, 78, 77
2, 16776, Note_off_c, 0, 50, 64
2, 16776, Note_off_c, 0, 38, 64
2, 16788, Note_off_c, 0, 78, 64
2, 16800, Note_on_c, 0, 55, 45
2, 16800, Note_on_c, 0, 71, 77
2, 16800, Note_on_c, 0, 79, 53
2, 16896, Note_off_c, 0, 55, 64
2, 16920, Note_on_c, 0, 50, 77
2, 16992, Note_off_c, 0, 79, 64
2, 16992, Note_off_c, 0, 71, 64
2, 17016, Note_off_c, 0, 50, 64
2, 17040, Note_on_c, 0, 43, 58
2, 17232, Note_off_c, 0, 43, 64
2, 17280, Note_on_c, 0, 60, 40
2, 17280, Note_on_c, 0, 64, 42
2, 17376, Note_off_c, 0, 64, 64
2, 17376, Note_off_c, 0, 60, 64
2, 17400, Note_on_c, 0, 60, 42
2, 17400, Note_on_c, 0, 72, 66
2, 17400, Note_on_c, 0, 64, 54
2, 17496, Note_off_c, 0, 64, 64
2, 17496, Note_off_c, 0, 72, 64
2, 17496, Note_off_c, 0, 60, 64
2, 17520, Note_on_c, 0, 76, 71
2, 17520, Note_on_c, 0, 64, 47
2, 17520, Note_on_c, 0, 60, 42
2, 17568, Note_off_c, 0, 76, 64
2, 17580, Note_on_c, 0, 72, 58
2, 17616, Note_off_c, 0, 60, 64
2, 17616, Note_off_c, 0, 64, 64
2, 17628, Note_off_c, 0, 72, 64
2, 17640, Note_on_c, 0, 79, 61
2, 17640, Note_on_c, 0, 64, 47
2, 17640, Note_on_c, 0, 60, 42
2, 17688, Note_off_c, 0, 79, 64
2, 17700, Note_on_c, 0, 76, 83
2, 17736, Note_off_c, 0, 60, 64
2, 17736, Note_off_c, 0, 64, 64
2, 17748, Note_off_c, 0, 76, 64
2, 17760, Note_on_c, 0, 60, 42
2, 17760, Note_on_c, 0, 84, 71
2, 17760, Note_on_c, 0, 64, 54
2, 17856, Note_off_c, 0, 64, 64
2, 17856, Note_off_c, 0, 60, 64
2, 17880, Note_on_c, 0, 64, 61
2, 17880, Note_on_c, 0, 60, 44
2, 17904, Note_off_c, 0, 84, 64
2, 17940, Note_on_c, 0, 79, 54
2, 17976, Note_off_c, 0, 60, 64
2, 17976, Note_off_c, 0, 64, 64
2, 17988, Note_off_c, 0, 79, 64
2, 18000, Note_on_c, 0, 81, 61
2, 18000, Note_on_c, 0, 64, 58
2, 18000, Note_on_c, 0, 60, 42
2, 18012, Note_off_c, 0, 81, 64
2, 18015, Note_on_c, 0, 79, 55
2, 18027, Note_off_c, 0, 79, 64
2, 18030, Note_on_c, 0, 81, 52
2, 18042, Note_off_c, 0, 81, 64
2, 18045, Note_on_c, 0, 79, 58
2, 18057, Note_off_c, 0, 79, 64
2, 18060, Note_on_c, 0, 81, 61
2, 18072, Note_off_c, 0, 81, 64
2, 18075, Note_on_c, 0, 79, 45
2, 18087, Note_off_c, 0, 79, 64
2, 18090, Note_on_c, 0, 81, 55
2, 18096, Note_off_c, 0, 60, 64
2, 18096, Note_off_c, 0, 64, 64
2, 18102, Note_off_c, 0, 81, 64
2, 18105, Note_on_c, 0, 79, 61
2, 18117, Note_off_c, 0, 79, 64
2, 18120, Note_on_c, 0, 81, 54
2, 18120, Note_on_c, 0, 64, 57
2, 18120, Note_on_c, 0, 60, 45
2, 18132, Note_off_c, 0, 81, 64
2, 18135, Note_on_c, 0, 79, 44
2, 18147, Note_off_c, 0, 79, 64
2, 18150, Note_on_c, 0, 81, 50
2, 18162, Note_off_c, 0, 81, 64
2, 18165, Note_on_c, 0, 79, 50
2, 18177, Note_off_c, 0, 79, 64
2, 18180, Note_on_c, 0, 81, 54
2, 18192, Note_off_c, 0, 81, 64
2, 18195, Note_on_c, 0, 79, 50
2, 18207, Note_off_c, 0, 79, 64
2, 18210, Note_on_c, 0, 81, 45
2, 18216, Note_off_c, 0, 60, 64
2, 18216, Note_off_c, 0, 64, 64
2, 18222, Note_off_c, 0, 81, 64
2, 18225, Note_on_c, 0, 79, 44
2, 18237, Note_off_c, 0, 79, 64
2, 18240, Note_on_c, 0, 60, 47
2, 18240, Note_on_c, 0, 65, 45
2, 18336, Note_off_c, 0, 65, 64
2, 18336, Note_off_c, 0, 60, 64
2, 18360, Note_on_c, 0, 65, 47
2, 18360, Note_on_c, 0, 72, 77
2, 18360, Note_on_c, 0, 60, 48
2, 18456, Note_off_c, 0, 60, 64
2, 18456, Note_off_c, 0, 72, 64
2, 18456, Note_off_c, 0, 65, 64
2, 18480, Note_on_c, 0, 77, 71
2, 18480, Note_on_c, 0, 60, 50
2, 18480, Note_on_c, 0, 65, 47
2, 18528, Note_off_c, 0, 77, 64
2, 18540, Note_on_c, 0, 72, 71
2, 18576, Note_off_c, 0, 65, 64
2, 18576, Note_off_c, 0, 60, 64
2, 18588, Note_off_c, 0, 72, 64
2, 18600, Note_on_c, 0, 81, 54
2, 18600, Note_on_c, 0, 60, 43
2, 18600, Note_on_c, 0, 65, 45
2, 18648, Note_off_c, 0, 81, 64
2, 18660, Note_on_c, 0, 77, 50
2, 18696, Note_off_c, 0, 65, 64
2, 18696, Note_off_c, 0, 60, 64
2, 18708, Note_off_c, 0, 77, 64
2, 18720, Note_on_c, 0, 65, 61
2, 18720, Note_on_c, 0, 60, 60
2, 18720, Note_on_c, 0, 84, 114
2, 18816, Note_off_c, 0, 60, 64
2, 18816, Note_off_c, 0, 65, 64
2, 18840, Note_on_c, 0, 60, 56
2, 18840, Note_on_c, 0, 65, 58
2, 18864, Note_off_c, 0, 84, 64
2, 18900, Note_on_c, 0, 81, 89
2, 18936, Note_off_c, 0, 65, 64
2, 18936, Note_off_c, 0, 60, 64
2, 18948, Note_off_c, 0, 81, 64
2, 18960, Note_on_c, 0, 83, 52
2, 18960, Note_on_c, 0, 60, 66
2, 18960, Note_on_c, 0, 65, 56
2, 18972, Note_off_c, 0, 83, 64
2, 18975, Note_on_c, 0, 81, 61
2, 18987, Note_off_c, 0, 81, 64
2, 18990, Note_on_c, 0, 83, 50
2, 19002, Note_off_c, 0, 83, 64
2, 19005, Note_on_c, 0, 81, 42
2, 19017, Note_off_c, 0, 81, 64
2, 19020, Note_on_c, 0, 83, 50
2, 19032, Note_off_c, 0, 83, 64
2, 19035, Note_on_c, 0, 81, 52
2, 19047, Note_off_c, 0, 81, 64
2, 19050, Note_on_c, 0, 83, 45
2, 19056, Note_off_c, 0, 65, 64
2, 19056, Note_off_c, 0, 60, 64
2, 19062, Note_off_c, 0, 83, 64
2, 19065, Note_on_c, 0, 81, 61
2, 19077, Note_off_c, 0, 81, 64
2, 19080, Note_on_c, 0, 83, 58
2, 19080, Note_on_c, 0, 60, 58
2, 19080, Note_on_c, 0, 65, 48
2, 19092, Note_off_c, 0, 83, 64
2, 19095, Note_on_c, 0, 81, 61
2, 19107, Note_off_c, 0, 81, 64
2, 19110, Note_on_c, 0, 83, 66
2, 19122, Note_off_c, 0, 83, 64
2, 19125, Note_on_c, 0, 81, 52
2, 19137, Note_off_c, 0, 81, 64
2, 19140, Note_on_c, 0, 83, 42
2, 19152, Note_off_c, 0, 83, 64
2, 19155, Note_on_c, 0, 81, 42
2, 19167, Note_off_c, 0, 81, 64
2, 19170, Note_on_c, 0, 83, 50
2, 19176, Note_off_c, 0, 65, 64
2, 19176, Note_off_c, 0, 60, 64
2, 19182, Note_off_c, 0, 83, 64
2, 19185, Note_on_c, 0, 81, 71
2, 19197, Note_off_c, 0, 81, 64
2, 19200, Note_on_c, 0, 60, 57
2, 19200, Note_on_c, 0, 64, 69
2, 19296, Note_off_c, 0, 64, 64
2, 19296, Note_off_c, 0, 60, 64
2, 19320, Note_on_c, 0, 64, 54
2, 19320, Note_on_c, 0, 72, 66
2, 19320, Note_on_c, 0, 60, 57
2, 19416, Note_off_c, 0, 60, 64
2, 19416, Note_off_c, 0, 72, 64
2, 19416, Note_off_c, 0, 64, 64
2, 19440, Note_on_c, 0, 76, 66
2, 19440, Note_on_c, 0, 60, 44
2, 19440, Note_on_c, 0, 64, 65
2, 19488, Note_off_c, 0, 76, 64
2, 19500, Note_on_c, 0, 72, 89
2, 19536, Note_off_c, 0, 64, 64
2, 19536, Note_off_c, 0, 60, 64
2, 19548, Note_off_c, 0, 72, 64
2, 19560, Note_on_c, 0, 79, 81
2, 19560, Note_on_c, 0, 60, 44
2, 19560, Note_on_c, 0, 64, 43
2, 19608, Note_off_c, 0, 79, 64
2, 19620, Note_on_c, 0, 76, 83
2, 19656, Note_off_c, 0, 64, 64
2, 19656, Note_off_c, 0, 60, 64
2, 19668, Note_off_c, 0, 76, 64
2, 19680, Note_on_c, 0, 60, 48
2, 19680, Note_on_c, 0, 84, 77
2, 19680, Note_on_c, 0, 64, 61
2, 19776, Note_off_c, 0, 64, 64
2, 19776, Note_off_c, 0, 60, 64
2, 19800, Note_on_c, 0, 64, 81
2, 19800, Note_on_c, 0, 60, 74
2, 19824, Note_off_c, 0, 84, 64
2, 19860, Note_on_c, 0, 79, 77
2, 19896, Note_off_c, 0, 60, 64
2, 19896, Note_off_c, 0, 64, 64
2, 19908, Note_off_c, 0, 79, 64
2, 19920, Note_on_c, 0, 81, 58
2, 19920, Note_on_c, 0, 64, 69
2, 19920, Note_on_c, 0, 60, 69
2, 19932, Note_off_c, 0, 81, 64
2, 19935, Note_on_c, 0, 79, 54
2, 19947, Note_off_c, 0, 79, 64
2, 19950, Note_on_c, 0, 81, 52
2, 19962, Note_off_c, 0, 81, 64
2, 19965, Note_on_c, 0, 79, 52
2, 19977, Note_off_c, 0, 79, 64
2, 19980, Note_on_c, 0, 81, 54
2, 19992, Note_off_c, 0, 81, 64
2, 19995, Note_on_c, 0, 79, 54
2, 20007, Note_off_c, 0, 79, 64
2, 20010, Note_on_c, 0, 81, 55
2, 20016, Note_off_c, 0, 60, 64
2, 20016, Note_off_c, 0, 64, 64
2, 20022, Note_off_c, 0, 81, 64
2, 20025, Note_on_c, 0, 79, 61
2, 20037, Note_off_c, 0, 79, 64
2, 20040, Note_on_c, 0, 81, 61
2, 20040, Note_on_c, 0, 64, 71
2, 20040, Note_on_c, 0, 60, 77
2, 20052, Note_off_c, 0, 81, 64
2, 20055, Note_on_c, 0, 79, 54
2, 20067, Note_off_c, 0, 79, 64
2, 20070, Note_on_c, 0, 81, 61
2, 20082, Note_off_c, 0, 81, 64
2, 20085, Note_on_c, 0, 79, 61
2, 20097, Note_off_c, 0, 79, 64
2, 20100, Note_on_c, 0, 81, 58
2, 20112, Note_off_c, 0, 81, 64
2, 20115, Note_on_c, 0, 79, 58
2, 20127, Note_off_c, 0, 79, 64
2, 20130, Note_on_c, 0, 81, 54
2, 20136, Note_off_c, 0, 60, 64
2, 20136, Note_off_c, 0, 64, 64
2, 20142, Note_off_c, 0, 81, 64
2, 20145, Note_on_c, 0, 79, 58
2, 20157, Note_off_c, 0, 79, 64
2, 20160, Note_on_c, 0, 55, 69
2, 20160, Note_on_c, 0, 79, 71
2, 20160, Note_on_c, 0, 62, 69
2, 20208, Note_off_c, 0, 79, 64
2, 20220, Note_on_c, 0, 77, 58
2, 20256, Note_off_c, 0, 62, 64
2, 20268, Note_off_c, 0, 77, 64
2, 20280, Note_on_c, 0, 86, 71
2, 20280, Note_on_c, 0, 59, 67
2, 20328, Note_off_c, 0, 86, 64
2, 20340, Note_on_c, 0, 77, 83
2, 20376, Note_off_c, 0, 59, 64
2, 20388, Note_off_c, 0, 77, 64
2, 20400, Note_on_c, 0, 60, 61
2, 20400, Note_on_c, 0, 76, 81
2, 20496, Note_off_c, 0, 76, 64
2, 20496, Note_off_c, 0, 60, 64
2, 20520, Note_on_c, 0, 64, 77
2, 20520, Note_on_c, 0, 84, 80
2, 20616, Note_off_c, 0, 84, 64
2, 20616, Note_off_c, 0, 55, 64
2, 20616, Note_off_c, 0, 64, 64
2, 20640, Note_on_c, 0, 62, 58
2, 20640, Note_on_c, 0, 79, 77
2, 20640, Note_on_c, 0, 55, 64
2, 20688, Note_off_c, 0, 79, 64
2, 20700, Note_on_c, 0, 77, 83
2, 20736, Note_off_c, 0, 62, 64
2, 20748, Note_off_c, 0, 77, 64
2, 20760, Note_on_c, 0, 59, 53
2, 20760, Note_on_c, 0, 86, 71
2, 20808, Note_off_c, 0, 86, 64
2, 20820, Note_on_c, 0, 77, 97
2, 20856, Note_off_c, 0, 59, 64
2, 20868, Note_off_c, 0, 77, 64
2, 20880, Note_on_c, 0, 60, 53
2, 20880, Note_on_c, 0, 76, 89
2, 20976, Note_off_c, 0, 76, 64
2, 20976, Note_off_c, 0, 60, 64
2, 21000, Note_on_c, 0, 64, 64
2, 21000, Note_on_c, 0, 84, 54
2, 21096, Note_off_c, 0, 84, 64
2, 21096, Note_off_c, 0, 64, 64
2, 21096, Note_off_c, 0, 55, 64
2, 21120, Note_on_c, 0, 55, 61
2, 21120, Note_on_c, 0, 62, 49
2, 21180, Note_on_c, 0, 77, 54
2, 21228, Note_off_c, 0, 77, 64
2, 21240, Note_on_c, 0, 86, 83
2, 21288, Note_off_c, 0, 86, 64
2, 21300, Note_on_c, 0, 77, 83
2, 21312, Note_off_c, 0, 62, 64
2, 21312, Note_off_c, 0, 55, 64
2, 21348, Note_off_c, 0, 77, 64
2, 21360, Note_on_c, 0, 60, 47
2, 21360, Note_on_c, 0, 55, 58
2, 21420, Note_on_c, 0, 76, 71
2, 21468, Note_off_c, 0, 76, 64
2, 21480, Note_on_c, 0, 84, 61
2, 21528, Note_off_c, 0, 84, 64
2, 21540, Note_on_c, 0, 76, 89
2, 21552, Note_off_c, 0, 55, 64
2, 21552, Note_off_c, 0, 60, 64
2, 21588, Note_off_c, 0, 76, 64
2, 21600, Note_on_c, 0, 55, 71
2, 21600, Note_on_c, 0, 60, 50
2, 21600, Note_on_c, 0, 77, 83
2, 21612, Note_off_c, 0, 77, 64
2, 21615, Note_on_c, 0, 76, 97
2, 21627, Note_off_c, 0, 76, 64
2, 21630, Note_on_c, 0, 77, 71
2, 21642, Note_off_c, 0, 77, 64
2, 21645, Note_on_c, 0, 76, 97
2, 21657, Note_off_c, 0, 76, 64
2, 21660, Note_on_c, 0, 77, 77
2, 21672, Note_off_c, 0, 77, 64
2, 21675, Note_on_c, 0, 76, 77
2, 21687, Note_off_c, 0, 76, 64
2, 21690, Note_on_c, 0, 77, 66
2, 21696, Note_off_c, 0, 60, 64
2, 21702, Note_off_c, 0, 77, 64
2, 21705, Note_on_c, 0, 76, 77
2, 21717, Note_off_c, 0, 76, 64
2, 21720, Note_on_c, 0, 59, 54
2, 21720, Note_on_c, 0, 74, 83
2, 21816, Note_off_c, 0, 74, 64
2, 21816, Note_off_c, 0, 55, 64
2, 21816, Note_off_c, 0, 59, 64
2, 21960, Note_on_c, 0, 79, 58
2, 22056, Note_off_c, 0, 79, 64
2, 22080, Note_on_c, 0, 79, 58
2, 22128, Note_off_c, 0, 79, 64
2, 22140, Note_on_c, 0, 78, 66
2, 22188, Note_off_c, 0, 78, 64
2, 22200, Note_on_c, 0, 81, 71
2, 22248, Note_off_c, 0, 81, 64
2, 22260, Note_on_c, 0, 79, 61
2, 22308, Note_off_c, 0, 79, 64
2, 22320, Note_on_c, 0, 83, 71
2, 22368, Note_off_c, 0, 83, 64
2, 22380, Note_on_c, 0, 79, 66
2, 22428, Note_off_c, 0, 79, 64
2, 22440, Note_on_c, 0, 78, 71
2, 22488, Note_off_c, 0, 78, 64
2, 22500, Note_on_c, 0, 79, 66
2, 22548, Note_off_c, 0, 79, 64
2, 22560, Note_on_c, 0, 47, 42
2, 22560, Note_on_c, 0, 74, 77
2, 22560, Note_on_c, 0, 59, 50
2, 22608, Note_off_c, 0, 74, 64
2, 22620, Note_on_c, 0, 79, 61
2, 22656, Note_off_c, 0, 59, 64
2, 22656, Note_off_c, 0, 47, 64
2, 22668, Note_off_c, 0, 79, 64
2, 22680, Note_on_c, 0, 76, 97
2, 22680, Note_on_c, 0, 60, 52
2, 22680, Note_on_c, 0, 48, 60
2, 22728, Note_off_c, 0, 76, 64
2, 22740, Note_on_c, 0, 79, 58
2, 22776, Note_off_c, 0, 48, 64
2, 22776, Note_off_c, 0, 60, 64
2, 22788, Note_off_c, 0, 79, 64
2, 22800, Note_on_c, 0, 59, 54
2, 22800, Note_on_c, 0, 47, 43
2, 22800, Note_on_c, 0, 74, 71
2, 22896, Note_off_c, 0, 74, 64
2, 22896, Note_off_c, 0, 47, 64
2, 22896, Note_off_c, 0, 59, 64
2, 22920, Note_on_c, 0, 79, 54
2, 23016, Note_off_c, 0, 79, 64
2, 23040, Note_on_c, 0, 79, 45
2, 23088, Note_off_c, 0, 79, 64
2, 23100, Note_on_c, 0, 78, 77
2, 23148, Note_off_c, 0, 78, 64
2, 23160, Note_on_c, 0, 81, 50
2, 23208, Note_off_c, 0, 81, 64
2, 23220, Note_on_c, 0, 79, 54
2, 23268, Note_off_c, 0, 79, 64
2, 23280, Note_on_c, 0, 83, 46
2, 23328, Note_off_c, 0, 83, 64
2, 23340, Note_on_c, 0, 79, 47
2, 23388, Note_off_c, 0, 79, 64
2, 23400, Note_on_c, 0, 78, 43
2, 23448, Note_off_c, 0, 78, 64
2, 23460, Note_on_c, 0, 79, 52
2, 23508, Note_off_c, 0, 79, 64
2, 23520, Note_on_c, 0, 47, 47
2, 23520, Note_on_c, 0, 74, 66
2, 23520, Note_on_c, 0, 59, 44
2, 23568, Note_off_c, 0, 74, 64
2, 23580, Note_on_c, 0, 79, 52
2, 23616, Note_off_c, 0, 59, 64
2, 23616, Note_off_c, 0, 47, 64
2, 23628, Note_off_c, 0, 79, 64
2, 23640, Note_on_c, 0, 72, 89
2, 23640, Note_on_c, 0, 57, 43
2, 23640, Note_on_c, 0, 45, 1
2, 23688, Note_off_c, 0, 72, 64
2, 23700, Note_on_c, 0, 79, 58
2, 23736, Note_off_c, 0, 45, 64
2, 23736, Note_off_c, 0, 57, 64
2, 23748, Note_off_c, 0, 79, 64
2, 23760, Note_on_c, 0, 55, 42
2, 23760, Note_on_c, 0, 43, 42
2, 23760, Note_on_c, 0, 71, 75
2, 23856, Note_off_c, 0, 71, 64
2, 23856, Note_off_c, 0, 43, 64
2, 23856, Note_off_c, 0, 55, 64
2, 23880, Note_on_c, 0, 47, 58
2, 23880, Note_on_c, 0, 74, 66
2, 23928, Note_off_c, 0, 74, 64
2, 23940, Note_on_c, 0, 79, 47
2, 23976, Note_off_c, 0, 47, 64
2, 23988, Note_off_c, 0, 79, 64
2, 24000, Note_on_c, 0, 76, 83
2, 24000, Note_on_c, 0, 48, 50
2, 24048, Note_off_c, 0, 76, 64
2, 24060, Note_on_c, 0, 79, 75
2, 24096, Note_off_c, 0, 48, 64
2, 24108, Note_off_c, 0, 79, 64
2, 24120, Note_on_c, 0, 50, 77
2, 24120, Note_on_c, 0, 74, 77
2, 24168, Note_off_c, 0, 74, 64
2, 24180, Note_on_c, 0, 79, 77
2, 24216, Note_off_c, 0, 50, 64
2, 24228, Note_off_c, 0, 79, 64
2, 24240, Note_on_c, 0, 52, 83
2, 24240, Note_on_c, 0, 72, 77
2, 24288, Note_off_c, 0, 72, 64
2, 24300, Note_on_c, 0, 76, 97
2, 24336, Note_off_c, 0, 52, 64
2, 24348, Note_off_c, 0, 76, 64
2, 24360, Note_on_c, 0, 49, 71
2, 24360, Note_on_c, 0, 81, 89
2, 24408, Note_off_c, 0, 81, 64
2, 24420, Note_on_c, 0, 79, 83
2, 24456, Note_off_c, 0, 49, 64
2, 24468, Note_off_c, 0, 79, 64
2, 24480, Note_on_c, 0, 78, 89
2, 24480, Note_on_c, 0, 50, 61
2, 24528, Note_off_c, 0, 78, 64
2, 24540, Note_on_c, 0, 81, 89
2, 24576, Note_off_c, 0, 50, 64
2, 24588, Note_off_c, 0, 81, 64
2, 24600, Note_on_c, 0, 52, 47
2, 24600, Note_on_c, 0, 76, 83
2, 24648, Note_off_c, 0, 76, 64
2, 24660, Note_on_c, 0, 81, 95
2, 24696, Note_off_c, 0, 52, 64
2, 24708, Note_off_c, 0, 81, 64
2, 24720, Note_on_c, 0, 54, 61
2, 24720, Note_on_c, 0, 74, 89
2, 24768, Note_off_c, 0, 74, 64
2, 24780, Note_on_c, 0, 78, 95
2, 24816, Note_off_c, 0, 54, 64
2, 24828, Note_off_c, 0, 78, 64
2, 24840, Note_on_c, 0, 51, 50
2, 24840, Note_on_c, 0, 83, 97
2, 24888, Note_off_c, 0, 83, 64
2, 24900, Note_on_c, 0, 81, 77
2, 24936, Note_off_c, 0, 51, 64
2, 24948, Note_off_c, 0, 81, 64
2, 24960, Note_on_c, 0, 79, 71
2, 24960, Note_on_c, 0, 52, 46
2, 25008, Note_off_c, 0, 79, 64
2, 25020, Note_on_c, 0, 83, 83
2, 25056, Note_off_c, 0, 52, 64
2, 25068, Note_off_c, 0, 83, 64
2, 25080, Note_on_c, 0, 54, 50
2, 25080, Note_on_c, 0, 78, 89
2, 25128, Note_off_c, 0, 78, 64
2, 25140, Note_on_c, 0, 83, 89
2, 25176, Note_off_c, 0, 54, 64
2, 25188, Note_off_c, 0, 83, 64
2, 25200, Note_on_c, 0, 55, 67
2, 25200, Note_on_c, 0, 76, 103
2, 25248, Note_off_c, 0, 76, 64
2, 25260, Note_on_c, 0, 79, 77
2, 25296, Note_off_c, 0, 55, 64
2, 25308, Note_off_c, 0, 79, 64
2, 25320, Note_on_c, 0, 52, 54
2, 25320, Note_on_c, 0, 84, 89
2, 25368, Note_off_c, 0, 84, 64
2, 25380, Note_on_c, 0, 83, 89
2, 25416, Note_off_c, 0, 52, 64
2, 25428, Note_off_c, 0, 83, 64
2, 25440, Note_on_c, 0, 81, 66
2, 25440, Note_on_c, 0, 54, 61
2, 25488, Note_off_c, 0, 81, 64
2, 25500, Note_on_c, 0, 84, 89
2, 25536, Note_off_c, 0, 54, 64
2, 25548, Note_off_c, 0, 84, 64
2, 25560, Note_on_c, 0, 55, 61
2, 25560, Note_on_c, 0, 79, 71
2, 25608, Note_off_c, 0, 79, 64
2, 25620, Note_on_c, 0, 84, 97
2, 25656, Note_off_c, 0, 55, 64
2, 25668, Note_off_c, 0, 84, 64
2, 25680, Note_on_c, 0, 57, 42
2, 25680, Note_on_c, 0, 78, 66
2, 25728, Note_off_c, 0, 78, 64
2, 25740, Note_on_c, 0, 81, 89
2, 25776, Note_off_c, 0, 57, 64
2, 25788, Note_off_c, 0, 81, 64
2, 25800, Note_on_c, 0, 54, 43
2, 25800, Note_on_c, 0, 86, 77
2, 25848, Note_off_c, 0, 86, 64
2, 25860, Note_on_c, 0, 84, 83
2, 25896, Note_off_c, 0, 54, 64
2, 25908, Note_off_c, 0, 84, 64
2, 25920, Note_on_c, 0, 83, 66
2, 25920, Note_on_c, 0, 55, 43
2, 25968, Note_off_c, 0, 83, 64
2, 25980, Note_on_c, 0, 86, 77
2, 26016, Note_off_c, 0, 55, 64
2, 26028, Note_off_c, 0, 86, 64
2, 26040, Note_on_c, 0, 59, 52
2, 26040, Note_on_c, 0, 79, 61
2, 26088, Note_off_c, 0, 79, 64
2, 26100, Note_on_c, 0, 81, 71
2, 26136, Note_off_c, 0, 59, 64
2, 26148, Note_off_c, 0, 81, 64
2, 26160, Note_on_c, 0, 60, 58
2, 26160, Note_on_c, 0, 83, 66
2, 26172, Note_off_c, 0, 83, 64
2, 26175, Note_on_c, 0, 81, 61
2, 26187, Note_off_c, 0, 81, 64
2, 26190, Note_on_c, 0, 83, 61
2, 26202, Note_off_c, 0, 83, 64
2, 26205, Note_on_c, 0, 81, 54
2, 26217, Note_off_c, 0, 81, 64
2, 26220, Note_on_c, 0, 83, 54
2, 26232, Note_off_c, 0, 83, 64
2, 26235, Note_on_c, 0, 81, 50
2, 26247, Note_off_c, 0, 81, 64
2, 26250, Note_on_c, 0, 83, 42
2, 26256, Note_off_c, 0, 60, 64
2, 26262, Note_off_c, 0, 83, 64
2, 26265, Note_on_c, 0, 81, 47
2, 26277, Note_off_c, 0, 81, 64
2, 26280, Note_on_c, 0, 62, 61
2, 26280, Note_on_c, 0, 83, 75
2, 26292, Note_off_c, 0, 83, 64
2, 26295, Note_on_c, 0, 81, 58
2, 26307, Note_off_c, 0, 81, 64
2, 26310, Note_on_c, 0, 83, 66
2, 26322, Note_off_c, 0, 83, 64
2, 26325, Note_on_c, 0, 81, 54
2, 26337, Note_off_c, 0, 81, 64
2, 26340, Note_on_c, 0, 83, 71
2, 26352, Note_off_c, 0, 83, 64
2, 26355, Note_on_c, 0, 81, 47
2, 26367, Note_off_c, 0, 81, 64
2, 26370, Note_on_c, 0, 83, 66
2, 26376, Note_off_c, 0, 62, 64
2, 26382, Note_off_c, 0, 83, 64
2, 26385, Note_on_c, 0, 81, 61
2, 26397, Note_off_c, 0, 81, 64
2, 26400, Note_on_c, 0, 55, 52
2, 26400, Note_on_c, 0, 79, 52
2, 26496, Note_off_c, 0, 55, 64
2, 26520, Note_on_c, 0, 50, 77
2, 26592, Note_off_c, 0, 79, 64
2, 26616, Note_off_c, 0, 50, 64
2, 26640, Note_on_c, 0, 43, 44
2, 26760, Note_on_c, 0, 70, 71
2, 26760, Note_on_c, 0, 74, 69
2, 26832, Note_off_c, 0, 43, 64
2, 26856, Note_off_c, 0, 74, 64
2, 26856, Note_off_c, 0, 70, 64
2, 26880, Note_on_c, 0, 75, 69
2, 26880, Note_on_c, 0, 72, 69
2, 26976, Note_off_c, 0, 72, 64
2, 26976, Note_off_c, 0, 75, 64
2, 27000, Note_on_c, 0, 55, 42
2, 27000, Note_on_c, 0, 43, 47
2, 27096, Note_off_c, 0, 43, 64
2, 27096, Note_off_c, 0, 55, 64
2, 27120, Note_on_c, 0, 45, 43
2, 27120, Note_on_c, 0, 57, 42
2, 27216, Note_off_c, 0, 57, 64
2, 27216, Note_off_c, 0, 45, 64
2, 27240, Note_on_c, 0, 74, 66
2, 27240, Note_on_c, 0, 70, 74
2, 27336, Note_off_c, 0, 70, 64
2, 27336, Note_off_c, 0, 74, 64
2, 27360, Note_on_c, 0, 72, 51
2, 27360, Note_on_c, 0, 69, 80
2, 27456, Note_off_c, 0, 69, 64
2, 27456, Note_off_c, 0, 72, 64
2, 27480, Note_on_c, 0, 55, 43
2, 27480, Note_on_c, 0, 43, 44
2, 27576, Note_off_c, 0, 43, 64
2, 27576, Note_off_c, 0, 55, 64
2, 27600, Note_on_c, 0, 54, 44
2, 27600, Note_on_c, 0, 42, 51
2, 27696, Note_off_c, 0, 42, 64
2, 27696, Note_off_c, 0, 54, 64
2, 27720, Note_on_c, 0, 69, 61
2, 27720, Note_on_c, 0, 72, 54
2, 27816, Note_off_c, 0, 72, 64
2, 27816, Note_off_c, 0, 69, 64
2, 27840, Note_on_c, 0, 70, 83
2, 27840, Note_on_c, 0, 74, 77
2, 27936, Note_off_c, 0, 74, 64
2, 27936, Note_off_c, 0, 70, 64
2, 27960, Note_on_c, 0, 54, 57
2, 27960, Note_on_c, 0, 42, 44
2, 28056, Note_off_c, 0, 42, 64
2, 28056, Note_off_c, 0, 54, 64
2, 28080, Note_on_c, 0, 55, 34
2, 28080, Note_on_c, 0, 43, 30
2, 28176, Note_off_c, 0, 43, 64
2, 28176, Note_off_c, 0, 55, 64
2, 28200, Note_on_c, 0, 69, 47
2, 28200, Note_on_c, 0, 72, 44
2, 28296, Note_off_c, 0, 72, 64
2, 28296, Note_off_c, 0, 69, 64
2, 28320, Note_on_c, 0, 70, 42
2, 28320, Note_on_c, 0, 67, 61
2, 28416, Note_off_c, 0, 67, 64
2, 28416, Note_off_c, 0, 70, 64
2, 28440, Note_on_c, 0, 41, 58
2, 28440, Note_on_c, 0, 53, 43
2, 28536, Note_off_c, 0, 53, 64
2, 28536, Note_off_c, 0, 41, 64
2, 28560, Note_on_c, 0, 39, 43
2, 28560, Note_on_c, 0, 51, 42
2, 28656, Note_off_c, 0, 51, 64
2, 28656, Note_off_c, 0, 39, 64
2, 28680, Note_on_c, 0, 66, 80
2, 28680, Note_on_c, 0, 69, 80
2, 28776, Note_off_c, 0, 69, 64
2, 28776, Note_off_c, 0, 66, 64
2, 28800, Note_on_c, 0, 70, 61
2, 28800, Note_on_c, 0, 67, 74
2, 28896, Note_off_c, 0, 67, 64
2, 28896, Note_off_c, 0, 70, 64
2, 28920, Note_on_c, 0, 38, 42
2, 28920, Note_on_c, 0, 50, 42
2, 29016, Note_off_c, 0, 50, 64
2, 29016, Note_off_c, 0, 38, 64
2, 29040, Note_on_c, 0, 49, 42
2, 29040, Note_on_c, 0, 37, 47
2, 29136, Note_off_c, 0, 37, 64
2, 29136, Note_off_c, 0, 49, 64
2, 29160, Note_on_c, 0, 49, 49
2, 29160, Note_on_c, 0, 37, 42
2, 29160, Note_on_c, 0, 70, 58
2, 29160, Note_on_c, 0, 67, 77
2, 29256, Note_off_c, 0, 67, 64
2, 29256, Note_off_c, 0, 70, 64
2, 29256, Note_off_c, 0, 37, 64
2, 29256, Note_off_c, 0, 49, 64
2, 29280, Note_on_c, 0, 38, 1
2, 29280, Note_on_c, 0, 70, 58
2, 29280, Note_on_c, 0, 67, 89
2, 29280, Note_on_c, 0, 50, 40
2, 29376, Note_off_c, 0, 67, 64
2, 29376, Note_off_c, 0, 70, 64
2, 29400, Note_on_c, 0, 69, 47
2, 29400, Note_on_c, 0, 66, 77
2, 29472, Note_off_c, 0, 50, 64
2, 29472, Note_off_c, 0, 38, 64
2, 29496, Note_off_c, 0, 66, 64
2, 29496, Note_off_c, 0, 69, 64
2, 29640, Note_on_c, 0, 79, 66
2, 29672, Note_off_c, 0, 79, 64
2, 29680, Note_on_c, 0, 81, 77
2, 29712, Note_off_c, 0, 81, 64
2, 29720, Note_on_c, 0, 83, 45
2, 29752, Note_off_c, 0, 83, 64
2, 29760, Note_on_c, 0, 59, 54
2, 29760, Note_on_c, 0, 55, 77
2, 29760, Note_on_c, 0, 79, 71
2, 29856, Note_off_c, 0, 79, 64
2, 29880, Note_on_c, 0, 74, 66
2, 29912, Note_off_c, 0, 74, 64
2, 29920, Note_on_c, 0, 76, 83
2, 29952, Note_off_c, 0, 76, 64
2, 29952, Note_off_c, 0, 55, 64
2, 29952, Note_off_c, 0, 59, 64
2, 29960, Note_on_c, 0, 78, 58
2, 29992, Note_off_c, 0, 78, 64
2, 30000, Note_on_c, 0, 79, 61
2, 30096, Note_off_c, 0, 79, 64
2, 30120, Note_on_c, 0, 71, 77
2, 30152, Note_off_c, 0, 71, 64
2, 30160, Note_on_c, 0, 72, 61
2, 30192, Note_off_c, 0, 72, 64
2, 30200, Note_on_c, 0, 74, 61
2, 30232, Note_off_c, 0, 74, 64
2, 30240, Note_on_c, 0, 71, 62
2, 30336, Note_off_c, 0, 71, 64
2, 30360, Note_on_c, 0, 67, 42
2, 30392, Note_off_c, 0, 67, 64
2, 30400, Note_on_c, 0, 69, 61
2, 30432, Note_off_c, 0, 69, 64
2, 30440, Note_on_c, 0, 71, 54
2, 30472, Note_off_c, 0, 71, 64
2, 30480, Note_on_c, 0, 67, 61
2, 30576, Note_off_c, 0, 67, 64
2, 30600, Note_on_c, 0, 55, 71
2, 30600, Note_on_c, 0, 59, 43
2, 30600, Note_on_c, 0, 74, 61
2, 30696, Note_off_c, 0, 74, 64
2, 30696, Note_off_c, 0, 59, 64
2, 30696, Note_off_c, 0, 55, 64
2, 30720, Note_on_c, 0, 60, 64
2, 30720, Note_on_c, 0, 48, 50
2, 30720, Note_on_c, 0, 64, 71
2, 30816, Note_off_c, 0, 64, 64
2, 30840, Note_on_c, 0, 72, 66
2, 30872, Note_off_c, 0, 72, 64
2, 30880, Note_on_c, 0, 71, 61
2, 30912, Note_off_c, 0, 71, 64
2, 30912, Note_off_c, 0, 48, 64
2, 30912, Note_off_c, 0, 60, 64
2, 30920, Note_on_c, 0, 69, 61
2, 30952, Note_off_c, 0, 69, 64
2, 30960, Note_on_c, 0, 59, 44
2, 30960, Note_on_c, 0, 50, 42
2, 30960, Note_on_c, 0, 67, 66
2, 31056, Note_off_c, 0, 67, 64
2, 31056, Note_off_c, 0, 59, 64
2, 31080, Note_on_c, 0, 57, 53
2, 31080, Note_on_c, 0, 66, 47
2, 31176, Note_off_c, 0, 66, 64
2, 31176, Note_off_c, 0, 57, 64
2, 31176, Note_off_c, 0, 50, 64
2, 31200, Note_on_c, 0, 55, 52
2, 31200, Note_on_c, 0, 67, 61
2, 31296, Note_off_c, 0, 55, 64
2, 31320, Note_on_c, 0, 50, 58
2, 31392, Note_off_c, 0, 67, 64
2, 31416, Note_off_c, 0, 50, 64
2, 31440, Note_on_c, 0, 43, 42
2, 31560, Note_on_c, 0, 79, 58
2, 31592, Note_off_c, 0, 79, 64
2, 31600, Note_on_c, 0, 81, 71
2, 31632, Note_off_c, 0, 81, 64
2, 31632, Note_off_c, 0, 43, 64
2, 31640, Note_on_c, 0, 83, 66
2, 31672, Note_off_c, 0, 83, 64
2, 31680, Note_on_c, 0, 55, 54
2, 31680, Note_on_c, 0, 59, 43
2, 31680, Note_on_c, 0, 79, 58
2, 31776, Note_off_c, 0, 79, 64
2, 31800, Note_on_c, 0, 74, 83
2, 31832, Note_off_c, 0, 74, 64
2, 31840, Note_on_c, 0, 76, 89
2, 31872, Note_off_c, 0, 76, 64
2, 31872, Note_off_c, 0, 59, 64
2, 31872, Note_off_c, 0, 55, 64
2, 31880, Note_on_c, 0, 78, 52
2, 31912, Note_off_c, 0, 78, 64
2, 31920, Note_on_c, 0, 79, 45
2, 32016, Note_off_c, 0, 79, 64
2, 32040, Note_on_c, 0, 71, 71
2, 32072, Note_off_c, 0, 71, 64
2, 32080, Note_on_c, 0, 72, 66
2, 32112, Note_off_c, 0, 72, 64
2, 32120, Note_on_c, 0, 74, 61
2, 32152, Note_off_c, 0, 74, 64
2, 32160, Note_on_c, 0, 71, 42
2, 32256, Note_off_c, 0, 71, 64
2, 32280, Note_on_c, 0, 47, 44
2, 32280, Note_on_c, 0, 74, 66
2, 32280, Note_on_c, 0, 59, 45
2, 32328, Note_off_c, 0, 74, 64
2, 32340, Note_on_c, 0, 86, 80
2, 32376, Note_off_c, 0, 59, 64
2, 32376, Note_off_c, 0, 47, 64
2, 32388, Note_off_c, 0, 86, 64
2, 32400, Note_on_c, 0, 59, 42
2, 32400, Note_on_c, 0, 47, 40
2, 32400, Note_on_c, 0, 74, 61
2, 32448, Note_off_c, 0, 74, 64
2, 32460, Note_on_c, 0, 86, 43
2, 32496, Note_off_c, 0, 47, 64
2, 32496, Note_off_c, 0, 59, 64
2, 32508, Note_off_c, 0, 86, 64
2, 32520, Note_on_c, 0, 47, 40
2, 32520, Note_on_c, 0, 59, 41
2, 32520, Note_on_c, 0, 74, 58
2, 32568, Note_off_c, 0, 74, 64
2, 32580, Note_on_c, 0, 86, 66
2, 32616, Note_off_c, 0, 59, 64
2, 32616, Note_off_c, 0, 47, 64
2, 32628, Note_off_c, 0, 86, 64
2, 32640, Note_on_c, 0, 48, 43
2, 32640, Note_on_c, 0, 76, 89
2, 32640, Note_on_c, 0, 60, 44
2, 32688, Note_off_c, 0, 76, 64
2, 32700, Note_on_c, 0, 86, 71
2, 32736, Note_off_c, 0, 60, 64
2, 32736, Note_off_c, 0, 48, 64
2, 32748, Note_off_c, 0, 86, 64
2, 32760, Note_on_c, 0, 76, 75
2, 32760, Note_on_c, 0, 60, 44
2, 32760, Note_on_c, 0, 48, 42
2, 32808, Note_off_c, 0, 76, 64
2, 32820, Note_on_c, 0, 86, 80
2, 32856, Note_off_c, 0, 48, 64
2, 32856, Note_off_c, 0, 60, 64
2, 32868, Note_off_c, 0, 86, 64
2, 32880, Note_on_c, 0, 57, 42
2, 32880, Note_on_c, 0, 45, 47
2, 32880, Note_on_c, 0, 76, 83
2, 32928, Note_off_c, 0, 76, 64
2, 32940, Note_on_c, 0, 84, 83
2, 32976, Note_off_c, 0, 45, 64
2, 32976, Note_off_c, 0, 57, 64
2, 32988, Note_off_c, 0, 84, 64
2, 33000, Note_on_c, 0, 57, 42
2, 33000, Note_on_c, 0, 45, 47
2, 33000, Note_on_c, 0, 76, 77
2, 33048, Note_off_c, 0, 76, 64
2, 33060, Note_on_c, 0, 84, 89
2, 33096, Note_off_c, 0, 45, 64
2, 33096, Note_off_c, 0, 57, 64
2, 33108, Note_off_c, 0, 84, 64
2, 33120, Note_on_c, 0, 42, 66
2, 33120, Note_on_c, 0, 74, 61
2, 33120, Note_on_c, 0, 54, 43
2, 33168, Note_off_c, 0, 74, 64
2, 33180, Note_on_c, 0, 84, 77
2, 33216, Note_off_c, 0, 54, 64
2, 33216, Note_off_c, 0, 42, 64
2, 33228, Note_off_c, 0, 84, 64
2, 33240, Note_on_c, 0, 74, 58
2, 33240, Note_on_c, 0, 54, 45
2, 33240, Note_on_c, 0, 42, 55
2, 33288, Note_off_c, 0, 74, 64
2, 33300, Note_on_c, 0, 84, 66
2, 33336, Note_off_c, 0, 42, 64
2, 33336, Note_off_c, 0, 54, 64
2, 33348, Note_off_c, 0, 84, 64
2, 33360, Note_on_c, 0, 55, 42
2, 33360, Note_on_c, 0, 43, 50
2, 33360, Note_on_c, 0, 74, 55
2, 33408, Note_off_c, 0, 74, 64
2, 33420, Note_on_c, 0, 83, 58
2, 33456, Note_off_c, 0, 43, 64
2, 33456, Note_off_c, 0, 55, 64
2, 33468, Note_off_c, 0, 83, 64
2, 33480, Note_on_c, 0, 55, 42
2, 33480, Note_on_c, 0, 43, 34
2, 33480, Note_on_c, 0, 74, 61
2, 33528, Note_off_c, 0, 74, 64
2, 33540, Note_on_c, 0, 83, 58
2, 33576, Note_off_c, 0, 43, 64
2, 33576, Note_off_c, 0, 55, 64
2, 33588, Note_off_c, 0, 83, 64
2, 33600, Note_on_c, 0, 36, 1
2, 33600, Note_on_c, 0, 72, 52
2, 33600, Note_on_c, 0, 48, 42
2, 33648, Note_off_c, 0, 72, 64
2, 33660, Note_on_c, 0, 81, 83
2, 33696, Note_off_c, 0, 48, 64
2, 33696, Note_off_c, 0, 36, 64
2, 33708, Note_off_c, 0, 81, 64
2, 33720, Note_on_c, 0, 72, 71
2, 33720, Note_on_c, 0, 36, 43
2, 33720, Note_on_c, 0, 48, 1
2, 33768, Note_off_c, 0, 72, 64
2, 33780, Note_on_c, 0, 81, 83
2, 33816, Note_off_c, 0, 48, 64
2, 33816, Note_off_c, 0, 36, 64
2, 33828, Note_off_c, 0, 81, 64
2, 33840, Note_on_c, 0, 50, 41
2, 33840, Note_on_c, 0, 38, 45
2, 33840, Note_on_c, 0, 69, 71
2, 33888, Note_off_c, 0, 69, 64
2, 33900, Note_on_c, 0, 78, 71
2, 33936, Note_off_c, 0, 38, 64
2, 33936, Note_off_c, 0, 50, 64
2, 33948, Note_off_c, 0, 78, 64
2, 33960, Note_on_c, 0, 38, 43
2, 33960, Note_on_c, 0, 50, 43
2, 33960, Note_on_c, 0, 69, 71
2, 34008, Note_off_c, 0, 69, 64
2, 34020, Note_on_c, 0, 78, 77
2, 34056, Note_off_c, 0, 50, 64
2, 34056, Note_off_c, 0, 38, 64
2, 34068, Note_off_c, 0, 78, 64
2, 34080, Note_on_c, 0, 55, 45
2, 34080, Note_on_c, 0, 71, 77
2, 34080, Note_on_c, 0, 79, 53
2, 34176, Note_off_c, 0, 55, 64
2, 34200, Note_on_c, 0, 50, 77
2, 34272, Note_off_c, 0, 79, 64
2, 34272, Note_off_c, 0, 71, 64
2, 34296, Note_off_c, 0, 50, 64
2, 34320, Note_on_c, 0, 43, 58
2, 34512, Note_off_c, 0, 43, 64
2, 34560, Note_on_c, 0, 55, 74
2, 34560, Note_on_c, 0, 59, 71
2, 34656, Note_off_c, 0, 59, 64
2, 34656, Note_off_c, 0, 55, 64
2, 34680, Note_on_c, 0, 67, 80
2, 34680, Note_on_c, 0, 55, 66
2, 34680, Note_on_c, 0, 59, 42
2, 34776, Note_off_c, 0, 59, 64
2, 34776, Note_off_c, 0, 55, 64
2, 34776, Note_off_c, 0, 67, 64
2, 34800, Note_on_c, 0, 55, 54
2, 34800, Note_on_c, 0, 59, 42
2, 34800, Note_on_c, 0, 71, 80
2, 34848, Note_off_c, 0, 71, 64
2, 34860, Note_on_c, 0, 67, 80
2, 34896, Note_off_c, 0, 59, 64
2, 34896, Note_off_c, 0, 55, 64
2, 34908, Note_off_c, 0, 67, 64
2, 34920, Note_on_c, 0, 55, 54
2, 34920, Note_on_c, 0, 59, 44
2, 34920, Note_on_c, 0, 74, 54
2, 34968, Note_off_c, 0, 74, 64
2, 34980, Note_on_c, 0, 71, 54
2, 35016, Note_off_c, 0, 59, 64
2, 35016, Note_off_c, 0, 55, 64
2, 35028, Note_off_c, 0, 71, 64
2, 35040, Note_on_c, 0, 59, 48
2, 35040, Note_on_c, 0, 77, 71
2, 35040, Note_on_c, 0, 55, 58
2, 35136, Note_off_c, 0, 55, 64
2, 35136, Note_off_c, 0, 59, 64
2, 35160, Note_on_c, 0, 55, 58
2, 35160, Note_on_c, 0, 59, 43
2, 35184, Note_off_c, 0, 77, 64
2, 35220, Note_on_c, 0, 74, 61
2, 35256, Note_off_c, 0, 59, 64
2, 35256, Note_off_c, 0, 55, 64
2, 35268, Note_off_c, 0, 74, 64
2, 35280, Note_on_c, 0, 55, 54
2, 35280, Note_on_c, 0, 59, 42
2, 35280, Note_on_c, 0, 76, 77
2, 35292, Note_off_c, 0, 76, 64
2, 35295, Note_on_c, 0, 74, 54
2, 35307, Note_off_c, 0, 74, 64
2, 35310, Note_on_c, 0, 76, 77
2, 35322, Note_off_c, 0, 76, 64
2, 35325, Note_on_c, 0, 74, 44
2, 35337, Note_off_c, 0, 74, 64
2, 35340, Note_on_c, 0, 76, 47
2, 35352, Note_off_c, 0, 76, 64
2, 35355, Note_on_c, 0, 74, 45
2, 35367, Note_off_c, 0, 74, 64
2, 35370, Note_on_c, 0, 76, 61
2, 35376, Note_off_c, 0, 59, 64
2, 35376, Note_off_c, 0, 55, 64
2, 35382, Note_off_c, 0, 76, 64
2, 35385, Note_on_c, 0, 74, 52
2, 35397, Note_off_c, 0, 74, 64
2, 35400, Note_on_c, 0, 59, 42
2, 35400, Note_on_c, 0, 55, 51
2, 35400, Note_on_c, 0, 76, 50
2, 35412, Note_off_c, 0, 76, 64
2, 35415, Note_on_c, 0, 74, 42
2, 35427, Note_off_c, 0, 74, 64
2, 35430, Note_on_c, 0, 76, 50
2, 35442, Note_off_c, 0, 76, 64
2, 35445, Note_on_c, 0, 74, 44
2, 35457, Note_off_c, 0, 74, 64
2, 35460, Note_on_c, 0, 76, 42
2, 35472, Note_off_c, 0, 76, 64
2, 35475, Note_on_c, 0, 74, 42
2, 35487, Note_off_c, 0, 74, 64
2, 35490, Note_on_c, 0, 76, 43
2, 35496, Note_off_c, 0, 55, 64
2, 35496, Note_off_c, 0, 59, 64
2, 35502, Note_off_c, 0, 76, 64
2, 35505, Note_on_c, 0, 74, 47
2, 35517, Note_off_c, 0, 74, 64
2, 35520, Note_on_c, 0, 59, 42
2, 35520, Note_on_c, 0, 86, 61
2, 35520, Note_on_c, 0, 55, 45
2, 35568, Note_off_c, 0, 86, 64
2, 35580, Note_on_c, 0, 84, 61
2, 35616, Note_off_c, 0, 55, 64
2, 35616, Note_off_c, 0, 59, 64
2, 35628, Note_off_c, 0, 84, 64
2, 35640, Note_on_c, 0, 83, 61
2, 35640, Note_on_c, 0, 55, 54
2, 35640, Note_on_c, 0, 59, 42
2, 35688, Note_off_c, 0, 83, 64
2, 35700, Note_on_c, 0, 81, 66
2, 35736, Note_off_c, 0, 59, 64
2, 35736, Note_off_c, 0, 55, 64
2, 35748, Note_off_c, 0, 81, 64
2, 35760, Note_on_c, 0, 55, 47
2, 35760, Note_on_c, 0, 59, 30
2, 35760, Note_on_c, 0, 79, 61
2, 35808, Note_off_c, 0, 79, 64
2, 35820, Note_on_c, 0, 77, 71
2, 35856, Note_off_c, 0, 59, 64
2, 35856, Note_off_c, 0, 55, 64
2, 35868, Note_off_c, 0, 77, 64
2, 35880, Note_on_c, 0, 55, 43
2, 35880, Note_on_c, 0, 59, 42
2, 35880, Note_on_c, 0, 76, 83
2, 35928, Note_off_c, 0, 76, 64
2, 35940, Note_on_c, 0, 74, 66
2, 35976, Note_off_c, 0, 59, 64
2, 35976, Note_off_c, 0, 55, 64
2, 35988, Note_off_c, 0, 74, 64
2, 36000, Note_on_c, 0, 60, 43
2, 36000, Note_on_c, 0, 76, 77
2, 36000, Note_on_c, 0, 55, 50
2, 36096, Note_off_c, 0, 55, 64
2, 36096, Note_off_c, 0, 76, 64
2, 36096, Note_off_c, 0, 60, 64
2, 36120, Note_on_c, 0, 67, 71
2, 36120, Note_on_c, 0, 55, 47
2, 36120, Note_on_c, 0, 60, 45
2, 36216, Note_off_c, 0, 60, 64
2, 36216, Note_off_c, 0, 55, 64
2, 36216, Note_off_c, 0, 67, 64
2, 36240, Note_on_c, 0, 55, 45
2, 36240, Note_on_c, 0, 60, 39
2, 36240, Note_on_c, 0, 72, 71
2, 36288, Note_off_c, 0, 72, 64
2, 36300, Note_on_c, 0, 67, 77
2, 36336, Note_off_c, 0, 60, 64
2, 36336, Note_off_c, 0, 55, 64
2, 36348, Note_off_c, 0, 67, 64
2, 36360, Note_on_c, 0, 55, 45
2, 36360, Note_on_c, 0, 60, 43
2, 36360, Note_on_c, 0, 76, 77
2, 36408, Note_off_c, 0, 76, 64
2, 36420, Note_on_c, 0, 72, 77
2, 36456, Note_off_c, 0, 60, 64
2, 36456, Note_off_c, 0, 55, 64
2, 36468, Note_off_c, 0, 72, 64
2, 36480, Note_on_c, 0, 60, 44
2, 36480, Note_on_c, 0, 79, 58
2, 36480, Note_on_c, 0, 55, 58
2, 36576, Note_off_c, 0, 55, 64
2, 36576, Note_off_c, 0, 60, 64
2, 36600, Note_on_c, 0, 55, 43
2, 36600, Note_on_c, 0, 60, 30
2, 36624, Note_off_c, 0, 79, 64
2, 36660, Note_on_c, 0, 76, 58
2, 36696, Note_off_c, 0, 60, 64
2, 36696, Note_off_c, 0, 55, 64
2, 36708, Note_off_c, 0, 76, 64
2, 36720, Note_on_c, 0, 55, 51
2, 36720, Note_on_c, 0, 60, 42
2, 36720, Note_on_c, 0, 77, 77
2, 36732, Note_off_c, 0, 77, 64
2, 36735, Note_on_c, 0, 76, 66
2, 36747, Note_off_c, 0, 76, 64
2, 36750, Note_on_c, 0, 77, 66
2, 36762, Note_off_c, 0, 77, 64
2, 36765, Note_on_c, 0, 76, 50
2, 36777, Note_off_c, 0, 76, 64
2, 36780, Note_on_c, 0, 77, 66
2, 36792, Note_off_c, 0, 77, 64
2, 36795, Note_on_c, 0, 76, 54
2, 36807, Note_off_c, 0, 76, 64
2, 36810, Note_on_c, 0, 77, 52
2, 36816, Note_off_c, 0, 60, 64
2, 36816, Note_off_c, 0, 55, 64
2, 36822, Note_off_c, 0, 77, 64
2, 36825, Note_on_c, 0, 76, 52
2, 36837, Note_off_c, 0, 76, 64
2, 36840, Note_on_c, 0, 55, 43
2, 36840, Note_on_c, 0, 60, 42
2, 36840, Note_on_c, 0, 77, 77
2, 36852, Note_off_c, 0, 77, 64
2, 36855, Note_on_c, 0, 76, 71
2, 36867, Note_off_c, 0, 76, 64
2, 36870, Note_on_c, 0, 77, 77
2, 36882, Note_off_c, 0, 77, 64
2, 36885, Note_on_c, 0, 76, 52
2, 36897, Note_off_c, 0, 76, 64
2, 36900, Note_on_c, 0, 77, 61
2, 36912, Note_off_c, 0, 77, 64
2, 36915, Note_on_c, 0, 76, 42
2, 36927, Note_off_c, 0, 76, 64
2, 36930, Note_on_c, 0, 77, 54
2, 36936, Note_off_c, 0, 60, 64
2, 36936, Note_off_c, 0, 55, 64
2, 36942, Note_off_c, 0, 77, 64
2, 36945, Note_on_c, 0, 76, 44
2, 36957, Note_off_c, 0, 76, 64
2, 36960, Note_on_c, 0, 60, 43
2, 36960, Note_on_c, 0, 84, 61
2, 36960, Note_on_c, 0, 55, 61
2, 37008, Note_off_c, 0, 84, 64
2, 37020, Note_on_c, 0, 83, 61
2, 37056, Note_off_c, 0, 55, 64
2, 37056, Note_off_c, 0, 60, 64
2, 37068, Note_off_c, 0, 83, 64
2, 37080, Note_on_c, 0, 60, 42
2, 37080, Note_on_c, 0, 81, 58
2, 37080, Note_on_c, 0, 55, 58
2, 37128, Note_off_c, 0, 81, 64
2, 37140, Note_on_c, 0, 79, 71
2, 37176, Note_off_c, 0, 55, 64
2, 37176, Note_off_c, 0, 60, 64
2, 37188, Note_off_c, 0, 79, 64
2, 37200, Note_on_c, 0, 77, 77
2, 37200, Note_on_c, 0, 55, 54
2, 37200, Note_on_c, 0, 60, 42
2, 37248, Note_off_c, 0, 77, 64
2, 37260, Note_on_c, 0, 76, 77
2, 37296, Note_off_c, 0, 60, 64
2, 37296, Note_off_c, 0, 55, 64
2, 37308, Note_off_c, 0, 76, 64
2, 37320, Note_on_c, 0, 74, 58
2, 37320, Note_on_c, 0, 60, 43
2, 37320, Note_on_c, 0, 55, 56
2, 37368, Note_off_c, 0, 74, 64
2, 37380, Note_on_c, 0, 72, 61
2, 37416, Note_off_c, 0, 55, 64
2, 37416, Note_off_c, 0, 60, 64
2, 37428, Note_off_c, 0, 72, 64
2, 37440, Note_on_c, 0, 55, 77
2, 37440, Note_on_c, 0, 74, 80
2, 37440, Note_on_c, 0, 59, 45
2, 37536, Note_off_c, 0, 59, 64
2, 37536, Note_off_c, 0, 74, 64
2, 37536, Note_off_c, 0, 55, 64
2, 37560, Note_on_c, 0, 67, 80
2, 37560, Note_on_c, 0, 55, 51
2, 37560, Note_on_c, 0, 59, 49
2, 37656, Note_off_c, 0, 59, 64
2, 37656, Note_off_c, 0, 55, 64
2, 37656, Note_off_c, 0, 67, 64
2, 37680, Note_on_c, 0, 55, 66
2, 37680, Note_on_c, 0, 59, 56
2, 37680, Note_on_c, 0, 71, 80
2, 37728, Note_off_c, 0, 71, 64
2, 37740, Note_on_c, 0, 67, 80
2, 37776, Note_off_c, 0, 59, 64
2, 37776, Note_off_c, 0, 55, 64
2, 37788, Note_off_c, 0, 67, 64
2, 37800, Note_on_c, 0, 55, 52
2, 37800, Note_on_c, 0, 59, 43
2, 37800, Note_on_c, 0, 74, 54
2, 37848, Note_off_c, 0, 74, 64
2, 37860, Note_on_c, 0, 71, 54
2, 37896, Note_off_c, 0, 59, 64
2, 37896, Note_off_c, 0, 55, 64
2, 37908, Note_off_c, 0, 71, 64
2, 37920, Note_on_c, 0, 59, 45
2, 37920, Note_on_c, 0, 77, 71
2, 37920, Note_on_c, 0, 55, 58
2, 38016, Note_off_c, 0, 55, 64
2, 38016, Note_off_c, 0, 59, 64
2, 38040, Note_on_c, 0, 55, 65
2, 38040, Note_on_c, 0, 59, 47
2, 38064, Note_off_c, 0, 77, 64
2, 38100, Note_on_c, 0, 74, 61
2, 38136, Note_off_c, 0, 59, 64
2, 38136, Note_off_c, 0, 55, 64
2, 38148, Note_off_c, 0, 74, 64
2, 38160, Note_on_c, 0, 55, 62
2, 38160, Note_on_c, 0, 59, 43
2, 38160, Note_on_c, 0, 76, 77
2, 38172, Note_off_c, 0, 76, 64
2, 38175, Note_on_c, 0, 74, 54
2, 38187, Note_off_c, 0, 74, 64
2, 38190, Note_on_c, 0, 76, 77
2, 38202, Note_off_c, 0, 76, 64
2, 38205, Note_on_c, 0, 74, 44
2, 38217, Note_off_c, 0, 74, 64
2, 38220, Note_on_c, 0, 76, 47
2, 38232, Note_off_c, 0, 76, 64
2, 38235, Note_on_c, 0, 74, 45
2, 38247, Note_off_c, 0, 74, 64
2, 38250, Note_on_c, 0, 76, 61
2, 38256, Note_off_c, 0, 59, 64
2, 38256, Note_off_c, 0, 55, 64
2, 38262, Note_off_c, 0, 76, 64
2, 38265, Note_on_c, 0, 74, 52
2, 38277, Note_off_c, 0, 74, 64
2, 38280, Note_on_c, 0, 59, 45
2, 38280, Note_on_c, 0, 55, 64
2, 38280, Note_on_c, 0, 76, 50
2, 38292, Note_off_c, 0, 76, 64
2, 38295, Note_on_c, 0, 74, 42
2, 38307, Note_off_c, 0, 74, 64
2, 38310, Note_on_c, 0, 76, 50
2, 38322, Note_off_c, 0, 76, 64
2, 38325, Note_on_c, 0, 74, 44
2, 38337, Note_off_c, 0, 74, 64
2, 38340, Note_on_c, 0, 76, 42
2, 38352, Note_off_c, 0, 76, 64
2, 38355, Note_on_c, 0, 74, 42
2, 38367, Note_off_c, 0, 74, 64
2, 38370, Note_on_c, 0, 76, 43
2, 38376, Note_off_c, 0, 55, 64
2, 38376, Note_off_c, 0, 59, 64
2, 38382, Note_off_c, 0, 76, 64
2, 38385, Note_on_c, 0, 74, 47
2, 38397, Note_off_c, 0, 74, 64
2, 38400, Note_on_c, 0, 59, 42
2, 38400, Note_on_c, 0, 86, 61
2, 38400, Note_on_c, 0, 55, 54
2, 38448, Note_off_c, 0, 86, 64
2, 38460, Note_on_c, 0, 84, 61
2, 38496, Note_off_c, 0, 55, 64
2, 38496, Note_off_c, 0, 59, 64
2, 38508, Note_off_c, 0, 84, 64
2, 38520, Note_on_c, 0, 83, 61
2, 38520, Note_on_c, 0, 55, 55
2, 38520, Note_on_c, 0, 59, 42
2, 38568, Note_off_c, 0, 83, 64
2, 38580, Note_on_c, 0, 81, 66
2, 38616, Note_off_c, 0, 59, 64
2, 38616, Note_off_c, 0, 55, 64
2, 38628, Note_off_c, 0, 81, 64
2, 38640, Note_on_c, 0, 59, 43
2, 38640, Note_on_c, 0, 55, 54
2, 38640, Note_on_c, 0, 79, 61
2, 38688, Note_off_c, 0, 79, 64
2, 38700, Note_on_c, 0, 77, 71
2, 38736, Note_off_c, 0, 55, 64
2, 38736, Note_off_c, 0, 59, 64
2, 38748, Note_off_c, 0, 77, 64
2, 38760, Note_on_c, 0, 59, 42
2, 38760, Note_on_c, 0, 55, 50
2, 38760, Note_on_c, 0, 76, 83
2, 38808, Note_off_c, 0, 76, 64
2, 38820, Note_on_c, 0, 74, 66
2, 38856, Note_off_c, 0, 55, 64
2, 38856, Note_off_c, 0, 59, 64
2, 38868, Note_off_c, 0, 74, 64
2, 38880, Note_on_c, 0, 48, 48
2, 38880, Note_on_c, 0, 60, 45
2, 38940, Note_on_c, 0, 76, 66
2, 38988, Note_off_c, 0, 76, 64
2, 39000, Note_on_c, 0, 79, 42
2, 39048, Note_off_c, 0, 79, 64
2, 39060, Note_on_c, 0, 76, 54
2, 39072, Note_off_c, 0, 60, 64
2, 39072, Note_off_c, 0, 48, 64
2, 39108, Note_off_c, 0, 76, 64
2, 39120, Note_on_c, 0, 70, 77
2, 39180, Note_on_c, 0, 74, 83
2, 39216, Note_off_c, 0, 70, 64
2, 39228, Note_off_c, 0, 74, 64
2, 39240, Note_on_c, 0, 79, 52
2, 39288, Note_off_c, 0, 79, 64
2, 39300, Note_on_c, 0, 74, 58
2, 39348, Note_off_c, 0, 74, 64
2, 39360, Note_on_c, 0, 69, 54
2, 39420, Note_on_c, 0, 73, 58
2, 39456, Note_off_c, 0, 69, 64
2, 39468, Note_off_c, 0, 73, 64
2, 39480, Note_on_c, 0, 79, 54
2, 39528, Note_off_c, 0, 79, 64
2, 39540, Note_on_c, 0, 73, 61
2, 39588, Note_off_c, 0, 73, 64
2, 39600, Note_on_c, 0, 61, 47
2, 39600, Note_on_c, 0, 49, 61
2, 39660, Note_on_c, 0, 69, 58
2, 39708, Note_off_c, 0, 69, 64
2, 39720, Note_on_c, 0, 79, 54
2, 39768, Note_off_c, 0, 79, 64
2, 39780, Note_on_c, 0, 69, 54
2, 39792, Note_off_c, 0, 49, 64
2, 39792, Note_off_c, 0, 61, 64
2, 39828, Note_off_c, 0, 69, 64
2, 39840, Note_on_c, 0, 62, 47
2, 39840, Note_on_c, 0, 50, 43
2, 39900, Note_on_c, 0, 69, 58
2, 39948, Note_off_c, 0, 69, 64
2, 39960, Note_on_c, 0, 77, 58
2, 40008, Note_off_c, 0, 77, 64
2, 40020, Note_on_c, 0, 69, 54
2, 40032, Note_off_c, 0, 50, 64
2, 40032, Note_off_c, 0, 62, 64
2, 40068, Note_off_c, 0, 69, 64
2, 40080, Note_on_c, 0, 60, 48
2, 40080, Note_on_c, 0, 48, 43
2, 40140, Note_on_c, 0, 69, 61
2, 40188, Note_off_c, 0, 69, 64
2, 40200, Note_on_c, 0, 76, 66
2, 40248, Note_off_c, 0, 76, 64
2, 40260, Note_on_c, 0, 69, 61
2, 40272, Note_off_c, 0, 48, 64
2, 40272, Note_off_c, 0, 60, 64
2, 40308, Note_off_c, 0, 69, 64
2, 40320, Note_on_c, 0, 47, 42
2, 40320, Note_on_c, 0, 59, 42
2, 40380, Note_on_c, 0, 69, 66
2, 40428, Note_off_c, 0, 69, 64
2, 40440, Note_on_c, 0, 75, 66
2, 40488, Note_off_c, 0, 75, 64
2, 40500, Note_on_c, 0, 69, 58
2, 40512, Note_off_c, 0, 59, 64
2, 40512, Note_off_c, 0, 47, 64
2, 40548, Note_off_c, 0, 69, 64
2, 40560, Note_on_c, 0, 63, 71
2, 40620, Note_on_c, 0, 69, 52
2, 40656, Note_off_c, 0, 63, 64
2, 40668, Note_off_c, 0, 69, 64
2, 40680, Note_on_c, 0, 78, 66
2, 40728, Note_off_c, 0, 78, 64
2, 40740, Note_on_c, 0, 69, 50
2, 40788, Note_off_c, 0, 69, 64
2, 40800, Note_on_c, 0, 64, 61
2, 40860, Note_on_c, 0, 67, 42
2, 40896, Note_off_c, 0, 64, 64
2, 40908, Note_off_c, 0, 67, 64
2, 40920, Note_on_c, 0, 78, 61
2, 40968, Note_off_c, 0, 78, 64
2, 40980, Note_on_c, 0, 67, 34
2, 41028, Note_off_c, 0, 67, 64
2, 41040, Note_on_c, 0, 60, 43
2, 41040, Note_on_c, 0, 48, 52
2, 41100, Note_on_c, 0, 67, 66
2, 41148, Note_off_c, 0, 67, 64
2, 41160, Note_on_c, 0, 76, 54
2, 41208, Note_off_c, 0, 76, 64
2, 41220, Note_on_c, 0, 67, 54
2, 41232, Note_off_c, 0, 48, 64
2, 41232, Note_off_c, 0, 60, 64
2, 41268, Note_off_c, 0, 67, 64
2, 41280, Note_on_c, 0, 57, 47
2, 41280, Note_on_c, 0, 45, 43
2, 41340, Note_on_c, 0, 65, 52
2, 41388, Note_off_c, 0, 65, 64
2, 41400, Note_on_c, 0, 76, 58
2, 41448, Note_off_c, 0, 76, 64
2, 41460, Note_on_c, 0, 65, 44
2, 41472, Note_off_c, 0, 45, 64
2, 41472, Note_off_c, 0, 57, 64
2, 41508, Note_off_c, 0, 65, 64
2, 41520, Note_on_c, 0, 59, 50
2, 41520, Note_on_c, 0, 47, 61
2, 41580, Note_on_c, 0, 65, 54
2, 41628, Note_off_c, 0, 65, 64
2, 41640, Note_on_c, 0, 74, 58
2, 41688, Note_off_c, 0, 74, 64
2, 41700, Note_on_c, 0, 65, 52
2, 41712, Note_off_c, 0, 47, 64
2, 41712, Note_off_c, 0, 59, 64
2, 41748, Note_off_c, 0, 65, 64
2, 41760, Note_on_c, 0, 56, 61
2, 41760, Note_on_c, 0, 44, 74
2, 41820, Note_on_c, 0, 64, 42
2, 41868, Note_off_c, 0, 64, 64
2, 41880, Note_on_c, 0, 74, 42
2, 41928, Note_off_c, 0, 74, 64
2, 41940, Note_on_c, 0, 64, 46
2, 41952, Note_off_c, 0, 44, 64
2, 41952, Note_off_c, 0, 56, 64
2, 41988, Note_off_c, 0, 64, 64
2, 42000, Note_on_c, 0, 57, 81
2, 42000, Note_on_c, 0, 45, 89
2, 42060, Note_on_c, 0, 64, 42
2, 42108, Note_off_c, 0, 64, 64
2, 42120, Note_on_c, 0, 72, 52
2, 42168, Note_off_c, 0, 72, 64
2, 42180, Note_on_c, 0, 64, 42
2, 42192, Note_off_c, 0, 45, 64
2, 42192, Note_off_c, 0, 57, 64
2, 42228, Note_off_c, 0, 64, 64
2, 42240, Note_on_c, 0, 41, 81
2, 42240, Note_on_c, 0, 53, 80
2, 42300, Note_on_c, 0, 62, 61
2, 42348, Note_off_c, 0, 62, 64
2, 42360, Note_on_c, 0, 72, 52
2, 42408, Note_off_c, 0, 72, 64
2, 42420, Note_on_c, 0, 62, 54
2, 42432, Note_off_c, 0, 53, 64
2, 42432, Note_off_c, 0, 41, 64
2, 42468, Note_off_c, 0, 62, 64
2, 42480, Note_on_c, 0, 42, 69
2, 42480, Note_on_c, 0, 54, 52
2, 42540, Note_on_c, 0, 62, 44
2, 42588, Note_off_c, 0, 62, 64
2, 42600, Note_on_c, 0, 72, 42
2, 42648, Note_off_c, 0, 72, 64
2, 42660, Note_on_c, 0, 62, 29
2, 42672, Note_off_c, 0, 54, 64
2, 42672, Note_off_c, 0, 42, 64
2, 42708, Note_off_c, 0, 62, 64
2, 42720, Note_on_c, 0, 43, 44
2, 42720, Note_on_c, 0, 71, 45
2, 42768, Note_off_c, 0, 43, 64
2, 42780, Note_on_c, 0, 55, 54
2, 42828, Note_off_c, 0, 55, 64
2, 42840, Note_on_c, 0, 43, 45
2, 42888, Note_off_c, 0, 43, 64
2, 42900, Note_on_c, 0, 55, 44
2, 42912, Note_off_c, 0, 71, 64
2, 42948, Note_off_c, 0, 55, 64
2, 42960, Note_on_c, 0, 43, 52
2, 43008, Note_off_c, 0, 43, 64
2, 43020, Note_on_c, 0, 55, 47
2, 43068, Note_off_c, 0, 55, 64
2, 43080, Note_on_c, 0, 43, 42
2, 43080, Note_on_c, 0, 62, 54
2, 43080, Note_on_c, 0, 59, 57
2, 43128, Note_off_c, 0, 43, 64
2, 43140, Note_on_c, 0, 55, 42
2, 43176, Note_off_c, 0, 59, 64
2, 43176, Note_off_c, 0, 62, 64
2, 43188, Note_off_c, 0, 55, 64
2, 43200, Note_on_c, 0, 64, 40
2, 43200, Note_on_c, 0, 43, 42
2, 43200, Note_on_c, 0, 60, 66
2, 43248, Note_off_c, 0, 43, 64
2, 43260, Note_on_c, 0, 55, 43
2, 43296, Note_off_c, 0, 60, 64
2, 43296, Note_off_c, 0, 64, 64
2, 43308, Note_off_c, 0, 55, 64
2, 43320, Note_on_c, 0, 43, 42
2, 43368, Note_off_c, 0, 43, 64
2, 43380, Note_on_c, 0, 55, 42
2, 43428, Note_off_c, 0, 55, 64
2, 43440, Note_on_c, 0, 43, 42
2, 43488, Note_off_c, 0, 43, 64
2, 43500, Note_on_c, 0, 55, 44
2, 43548, Note_off_c, 0, 55, 64
2, 43560, Note_on_c, 0, 43, 43
2, 43560, Note_on_c, 0, 66, 42
2, 43560, Note_on_c, 0, 72, 42
2, 43608, Note_off_c, 0, 43, 64
2, 43620, Note_on_c, 0, 55, 50
2, 43656, Note_off_c, 0, 72, 64
2, 43656, Note_off_c, 0, 66, 64
2, 43668, Note_off_c, 0, 55, 64
2, 43680, Note_on_c, 0, 67, 50
2, 43680, Note_on_c, 0, 43, 52
2, 43680, Note_on_c, 0, 71, 45
2, 43728, Note_off_c, 0, 43, 64
2, 43740, Note_on_c, 0, 55, 45
2, 43776, Note_off_c, 0, 71, 64
2, 43776, Note_off_c, 0, 67, 64
2, 43788, Note_off_c, 0, 55, 64
2, 43800, Note_on_c, 0, 43, 43
2, 43848, Note_off_c, 0, 43, 64
2, 43860, Note_on_c, 0, 55, 42
2, 43908, Note_off_c, 0, 55, 64
2, 43920, Note_on_c, 0, 43, 54
2, 43968, Note_off_c, 0, 43, 64
2, 43980, Note_on_c, 0, 55, 44
2, 44028, Note_off_c, 0, 55, 64
2, 44040, Note_on_c, 0, 43, 42
2, 44040, Note_on_c, 0, 59, 47
2, 44040, Note_on_c, 0, 62, 48
2, 44088, Note_off_c, 0, 43, 64
2, 44100, Note_on_c, 0, 55, 43
2, 44136, Note_off_c, 0, 62, 64
2, 44136, Note_off_c, 0, 59, 64
2, 44148, Note_off_c, 0, 55, 64
2, 44160, Note_on_c, 0, 64, 42
2, 44160, Note_on_c, 0, 43, 42
2, 44160, Note_on_c, 0, 60, 52
2, 44208, Note_off_c, 0, 43, 64
2, 44220, Note_on_c, 0, 55, 42
2, 44256, Note_off_c, 0, 60, 64
2, 44256, Note_off_c, 0, 64, 64
2, 44268, Note_off_c, 0, 55, 64
2, 44280, Note_on_c, 0, 43, 44
2, 44328, Note_off_c, 0, 43, 64
2, 44340, Note_on_c, 0, 55, 42
2, 44388, Note_off_c, 0, 55, 64
2, 44400, Note_on_c, 0, 43, 58
2, 44448, Note_off_c, 0, 43, 64
2, 44460, Note_on_c, 0, 55, 43
2, 44508, Note_off_c, 0, 55, 64
2, 44520, Note_on_c, 0, 43, 47
2, 44520, Note_on_c, 0, 66, 42
2, 44520, Note_on_c, 0, 60, 46
2, 44568, Note_off_c, 0, 43, 64
2, 44580, Note_on_c, 0, 55, 42
2, 44616, Note_off_c, 0, 60, 64
2, 44616, Note_off_c, 0, 66, 64
2, 44628, Note_off_c, 0, 55, 64
2, 44640, Note_on_c, 0, 43, 80
2, 44640, Note_on_c, 0, 67, 43
2, 44640, Note_on_c, 0, 59, 56
2, 44832, Note_off_c, 0, 59, 64
2, 44832, Note_off_c, 0, 67, 64
2, 44832, Note_off_c, 0, 43, 64
2, 45120, Note_on_c, 0, 64, 42
2, 45120, Note_on_c, 0, 60, 40
2, 45216, Note_off_c, 0, 60, 64
2, 45216, Note_off_c, 0, 64, 64
2, 45240, Note_on_c, 0, 72, 77
2, 45240, Note_on_c, 0, 64, 54
2, 45240, Note_on_c, 0, 60, 42
2, 45336, Note_off_c, 0, 60, 64
2, 45336, Note_off_c, 0, 64, 64
2, 45336, Note_off_c, 0, 72, 64
2, 45360, Note_on_c, 0, 76, 50
2, 45360, Note_on_c, 0, 64, 47
2, 45360, Note_on_c, 0, 60, 42
2, 45408, Note_off_c, 0, 76, 64
2, 45420, Note_on_c, 0, 72, 66
2, 45456, Note_off_c, 0, 60, 64
2, 45456, Note_off_c, 0, 64, 64
2, 45468, Note_off_c, 0, 72, 64
2, 45480, Note_on_c, 0, 79, 61
2, 45480, Note_on_c, 0, 64, 47
2, 45480, Note_on_c, 0, 60, 42
2, 45528, Note_off_c, 0, 79, 64
2, 45540, Note_on_c, 0, 76, 77
2, 45576, Note_off_c, 0, 60, 64
2, 45576, Note_off_c, 0, 64, 64
2, 45588, Note_off_c, 0, 76, 64
2, 45600, Note_on_c, 0, 60, 42
2, 45600, Note_on_c, 0, 84, 66
2, 45600, Note_on_c, 0, 64, 54
2, 45696, Note_off_c, 0, 64, 64
2, 45696, Note_off_c, 0, 60, 64
2, 45720, Note_on_c, 0, 64, 61
2, 45720, Note_on_c, 0, 60, 44
2, 45744, Note_off_c, 0, 84, 64
2, 45780, Note_on_c, 0, 79, 61
2, 45816, Note_off_c, 0, 60, 64
2, 45816, Note_off_c, 0, 64, 64
2, 45828, Note_off_c, 0, 79, 64
2, 45840, Note_on_c, 0, 81, 80
2, 45840, Note_on_c, 0, 64, 58
2, 45840, Note_on_c, 0, 60, 42
2, 45852, Note_off_c, 0, 81, 64
2, 45855, Note_on_c, 0, 79, 58
2, 45867, Note_off_c, 0, 79, 64
2, 45870, Note_on_c, 0, 81, 42
2, 45882, Note_off_c, 0, 81, 64
2, 45885, Note_on_c, 0, 79, 66
2, 45897, Note_off_c, 0, 79, 64
2, 45900, Note_on_c, 0, 81, 54
2, 45912, Note_off_c, 0, 81, 64
2, 45915, Note_on_c, 0, 79, 58
2, 45927, Note_off_c, 0, 79, 64
2, 45930, Note_on_c, 0, 81, 46
2, 45936, Note_off_c, 0, 60, 64
2, 45936, Note_off_c, 0, 64, 64
2, 45942, Note_off_c, 0, 81, 64
2, 45945, Note_on_c, 0, 79, 47
2, 45957, Note_off_c, 0, 79, 64
2, 45960, Note_on_c, 0, 81, 47
2, 45960, Note_on_c, 0, 64, 57
2, 45960, Note_on_c, 0, 60, 45
2, 45972, Note_off_c, 0, 81, 64
2, 45975, Note_on_c, 0, 79, 56
2, 45987, Note_off_c, 0, 79, 64
2, 45990, Note_on_c, 0, 81, 47
2, 46002, Note_off_c, 0, 81, 64
2, 46005, Note_on_c, 0, 79, 42
2, 46017, Note_off_c, 0, 79, 64
2, 46020, Note_on_c, 0, 81, 28
2, 46032, Note_off_c, 0, 81, 64
2, 46035, Note_on_c, 0, 79, 45
2, 46047, Note_off_c, 0, 79, 64
2, 46050, Note_on_c, 0, 81, 38
2, 46056, Note_off_c, 0, 60, 64
2, 46056, Note_off_c, 0, 64, 64
2, 46062, Note_off_c, 0, 81, 64
2, 46065, Note_on_c, 0, 79, 43
2, 46077, Note_off_c, 0, 79, 64
2, 46080, Note_on_c, 0, 65, 45
2, 46080, Note_on_c, 0, 60, 47
2, 46176, Note_off_c, 0, 60, 64
2, 46176, Note_off_c, 0, 65, 64
2, 46200, Note_on_c, 0, 65, 47
2, 46200, Note_on_c, 0, 60, 48
2, 46200, Note_on_c, 0, 72, 52
2, 46296, Note_off_c, 0, 72, 64
2, 46296, Note_off_c, 0, 60, 64
2, 46296, Note_off_c, 0, 65, 64
2, 46320, Note_on_c, 0, 77, 83
2, 46320, Note_on_c, 0, 60, 50
2, 46320, Note_on_c, 0, 65, 47
2, 46368, Note_off_c, 0, 77, 64
2, 46380, Note_on_c, 0, 72, 66
2, 46416, Note_off_c, 0, 65, 64
2, 46416, Note_off_c, 0, 60, 64
2, 46428, Note_off_c, 0, 72, 64
2, 46440, Note_on_c, 0, 81, 71
2, 46440, Note_on_c, 0, 65, 45
2, 46440, Note_on_c, 0, 60, 43
2, 46488, Note_off_c, 0, 81, 64
2, 46500, Note_on_c, 0, 77, 52
2, 46536, Note_off_c, 0, 60, 64
2, 46536, Note_off_c, 0, 65, 64
2, 46548, Note_off_c, 0, 77, 64
2, 46560, Note_on_c, 0, 60, 60
2, 46560, Note_on_c, 0, 84, 114
2, 46560, Note_on_c, 0, 65, 61
2, 46656, Note_off_c, 0, 65, 64
2, 46656, Note_off_c, 0, 60, 64
2, 46680, Note_on_c, 0, 65, 58
2, 46680, Note_on_c, 0, 60, 56
2, 46704, Note_off_c, 0, 84, 64
2, 46740, Note_on_c, 0, 81, 89
2, 46776, Note_off_c, 0, 60, 64
2, 46776, Note_off_c, 0, 65, 64
2, 46788, Note_off_c, 0, 81, 64
2, 46800, Note_on_c, 0, 83, 1
2, 46800, Note_on_c, 0, 60, 66
2, 46800, Note_on_c, 0, 65, 56
2, 46812, Note_off_c, 0, 83, 64
2, 46815, Note_on_c, 0, 81, 1
2, 46827, Note_off_c, 0, 81, 64
2, 46830, Note_on_c, 0, 83, 25
2, 46842, Note_off_c, 0, 83, 64
2, 46845, Note_on_c, 0, 81, 44
2, 46857, Note_off_c, 0, 81, 64
2, 46860, Note_on_c, 0, 83, 42
2, 46872, Note_off_c, 0, 83, 64
2, 46875, Note_on_c, 0, 81, 20
2, 46887, Note_off_c, 0, 81, 64
2, 46890, Note_on_c, 0, 83, 42
2, 46896, Note_off_c, 0, 65, 64
2, 46896, Note_off_c, 0, 60, 64
2, 46902, Note_off_c, 0, 83, 64
2, 46905, Note_on_c, 0, 81, 44
2, 46917, Note_off_c, 0, 81, 64
2, 46920, Note_on_c, 0, 83, 45
2, 46920, Note_on_c, 0, 60, 58
2, 46920, Note_on_c, 0, 65, 48
2, 46932, Note_off_c, 0, 83, 64
2, 46935, Note_on_c, 0, 81, 45
2, 46947, Note_off_c, 0, 81, 64
2, 46950, Note_on_c, 0, 83, 42
2, 46962, Note_off_c, 0, 83, 64
2, 46965, Note_on_c, 0, 81, 58
2, 46977, Note_off_c, 0, 81, 64
2, 46980, Note_on_c, 0, 83, 42
2, 46992, Note_off_c, 0, 83, 64
2, 46995, Note_on_c, 0, 81, 45
2, 47007, Note_off_c, 0, 81, 64
2, 47010, Note_on_c, 0, 83, 43
2, 47016, Note_off_c, 0, 65, 64
2, 47016, Note_off_c, 0, 60, 64
2, 47022, Note_off_c, 0, 83, 64
2, 47025, Note_on_c, 0, 81, 44
2, 47037, Note_off_c, 0, 81, 64
2, 47040, Note_on_c, 0, 64, 69
2, 47040, Note_on_c, 0, 60, 57
2, 47136, Note_off_c, 0, 60, 64
2, 47136, Note_off_c, 0, 64, 64
2, 47160, Note_on_c, 0, 60, 57
2, 47160, Note_on_c, 0, 64, 54
2, 47160, Note_on_c, 0, 72, 66
2, 47256, Note_off_c, 0, 72, 64
2, 47256, Note_off_c, 0, 64, 64
2, 47256, Note_off_c, 0, 60, 64
2, 47280, Note_on_c, 0, 76, 66
2, 47280, Note_on_c, 0, 60, 44
2, 47280, Note_on_c, 0, 64, 65
2, 47328, Note_off_c, 0, 76, 64
2, 47340, Note_on_c, 0, 72, 89
2, 47376, Note_off_c, 0, 64, 64
2, 47376, Note_off_c, 0, 60, 64
2, 47388, Note_off_c, 0, 72, 64
2, 47400, Note_on_c, 0, 79, 81
2, 47400, Note_on_c, 0, 60, 44
2, 47400, Note_on_c, 0, 64, 43
2, 47448, Note_off_c, 0, 79, 64
2, 47460, Note_on_c, 0, 76, 83
2, 47496, Note_off_c, 0, 64, 64
2, 47496, Note_off_c, 0, 60, 64
2, 47508, Note_off_c, 0, 76, 64
2, 47520, Note_on_c, 0, 60, 48
2, 47520, Note_on_c, 0, 84, 77
2, 47520, Note_on_c, 0, 64, 61
2, 47616, Note_off_c, 0, 64, 64
2, 47616, Note_off_c, 0, 60, 64
2, 47640, Note_on_c, 0, 64, 81
2, 47640, Note_on_c, 0, 60, 74
2, 47664, Note_off_c, 0, 84, 64
2, 47700, Note_on_c, 0, 79, 77
2, 47736, Note_off_c, 0, 60, 64
2, 47736, Note_off_c, 0, 64, 64
2, 47748, Note_off_c, 0, 79, 64
2, 47760, Note_on_c, 0, 60, 71
2, 47760, Note_on_c, 0, 64, 53
2, 47760, Note_on_c, 0, 81, 80
2, 47772, Note_off_c, 0, 81, 64
2, 47775, Note_on_c, 0, 79, 58
2, 47787, Note_off_c, 0, 79, 64
2, 47790, Note_on_c, 0, 81, 42
2, 47802, Note_off_c, 0, 81, 64
2, 47805, Note_on_c, 0, 79, 66
2, 47817, Note_off_c, 0, 79, 64
2, 47820, Note_on_c, 0, 81, 54
2, 47832, Note_off_c, 0, 81, 64
2, 47835, Note_on_c, 0, 79, 58
2, 47847, Note_off_c, 0, 79, 64
2, 47850, Note_on_c, 0, 81, 46
2, 47856, Note_off_c, 0, 64, 64
2, 47856, Note_off_c, 0, 60, 64
2, 47862, Note_off_c, 0, 81, 64
2, 47865, Note_on_c, 0, 79, 47
2, 47877, Note_off_c, 0, 79, 64
2, 47880, Note_on_c, 0, 60, 50
2, 47880, Note_on_c, 0, 64, 53
2, 47880, Note_on_c, 0, 81, 47
2, 47892, Note_off_c, 0, 81, 64
2, 47895, Note_on_c, 0, 79, 56
2, 47907, Note_off_c, 0, 79, 64
2, 47910, Note_on_c, 0, 81, 47
2, 47922, Note_off_c, 0, 81, 64
2, 47925, Note_on_c, 0, 79, 42
2, 47937, Note_off_c, 0, 79, 64
2, 47940, Note_on_c, 0, 81, 28
2, 47952, Note_off_c, 0, 81, 64
2, 47955, Note_on_c, 0, 79, 45
2, 47967, Note_off_c, 0, 79, 64
2, 47970, Note_on_c, 0, 81, 38
2, 47976, Note_off_c, 0, 64, 64
2, 47976, Note_off_c, 0, 60, 64
2, 47982, Note_off_c, 0, 81, 64
2, 47985, Note_on_c, 0, 79, 43
2, 47997, Note_off_c, 0, 79, 64
2, 48000, Note_on_c, 0, 79, 71
2, 48000, Note_on_c, 0, 55, 69
2, 48000, Note_on_c, 0, 62, 69
2, 48048, Note_off_c, 0, 79, 64
2, 48060, Note_on_c, 0, 77, 58
2, 48096, Note_off_c, 0, 62, 64
2, 48108, Note_off_c, 0, 77, 64
2, 48120, Note_on_c, 0, 86, 71
2, 48120, Note_on_c, 0, 59, 67
2, 48168, Note_off_c, 0, 86, 64
2, 48180, Note_on_c, 0, 77, 83
2, 48216, Note_off_c, 0, 59, 64
2, 48228, Note_off_c, 0, 77, 64
2, 48240, Note_on_c, 0, 60, 61
2, 48240, Note_on_c, 0, 76, 81
2, 48336, Note_off_c, 0, 76, 64
2, 48336, Note_off_c, 0, 60, 64
2, 48360, Note_on_c, 0, 64, 77
2, 48360, Note_on_c, 0, 84, 80
2, 48456, Note_off_c, 0, 84, 64
2, 48456, Note_off_c, 0, 55, 64
2, 48456, Note_off_c, 0, 64, 64
2, 48480, Note_on_c, 0, 79, 77
2, 48480, Note_on_c, 0, 62, 58
2, 48480, Note_on_c, 0, 55, 64
2, 48528, Note_off_c, 0, 79, 64
2, 48540, Note_on_c, 0, 77, 83
2, 48576, Note_off_c, 0, 62, 64
2, 48588, Note_off_c, 0, 77, 64
2, 48600, Note_on_c, 0, 86, 71
2, 48600, Note_on_c, 0, 59, 53
2, 48648, Note_off_c, 0, 86, 64
2, 48660, Note_on_c, 0, 77, 97
2, 48696, Note_off_c, 0, 59, 64
2, 48708, Note_off_c, 0, 77, 64
2, 48720, Note_on_c, 0, 60, 53
2, 48720, Note_on_c, 0, 76, 89
2, 48816, Note_off_c, 0, 76, 64
2, 48816, Note_off_c, 0, 60, 64
2, 48840, Note_on_c, 0, 64, 64
2, 48840, Note_on_c, 0, 84, 54
2, 48936, Note_off_c, 0, 84, 64
2, 48936, Note_off_c, 0, 64, 64
2, 48936, Note_off_c, 0, 55, 64
2, 48960, Note_on_c, 0, 62, 49
2, 48960, Note_on_c, 0, 55, 61
2, 49020, Note_on_c, 0, 77, 54
2, 49068, Note_off_c, 0, 77, 64
2, 49080, Note_on_c, 0, 86, 83
2, 49128, Note_off_c, 0, 86, 64
2, 49140, Note_on_c, 0, 77, 83
2, 49152, Note_off_c, 0, 55, 64
2, 49152, Note_off_c, 0, 62, 64
2, 49188, Note_off_c, 0, 77, 64
2, 49200, Note_on_c, 0, 55, 58
2, 49200, Note_on_c, 0, 60, 47
2, 49260, Note_on_c, 0, 76, 71
2, 49308, Note_off_c, 0, 76, 64
2, 49320, Note_on_c, 0, 84, 61
2, 49368, Note_off_c, 0, 84, 64
2, 49380, Note_on_c, 0, 76, 89
2, 49392, Note_off_c, 0, 60, 64
2, 49392, Note_off_c, 0, 55, 64
2, 49428, Note_off_c, 0, 76, 64
2, 49440, Note_on_c, 0, 55, 71
2, 49440, Note_on_c, 0, 60, 50
2, 49440, Note_on_c, 0, 77, 83
2, 49452, Note_off_c, 0, 77, 64
2, 49455, Note_on_c, 0, 76, 97
2, 49467, Note_off_c, 0, 76, 64
2, 49470, Note_on_c, 0, 77, 71
2, 49482, Note_off_c, 0, 77, 64
2, 49485, Note_on_c, 0, 76, 97
2, 49497, Note_off_c, 0, 76, 64
2, 49500, Note_on_c, 0, 77, 77
2, 49512, Note_off_c, 0, 77, 64
2, 49515, Note_on_c, 0, 76, 77
2, 49527, Note_off_c, 0, 76, 64
2, 49530, Note_on_c, 0, 77, 66
2, 49536, Note_off_c, 0, 60, 64
2, 49542, Note_off_c, 0, 77, 64
2, 49545, Note_on_c, 0, 76, 77
2, 49557, Note_off_c, 0, 76, 64
2, 49560, Note_on_c, 0, 59, 54
2, 49560, Note_on_c, 0, 74, 83
2, 49656, Note_off_c, 0, 74, 64
2, 49656, Note_off_c, 0, 55, 64
2, 49656, Note_off_c, 0, 59, 64
2, 49800, Note_on_c, 0, 72, 58
2, 49896, Note_off_c, 0, 72, 64
2, 49920, Note_on_c, 0, 72, 77
2, 49968, Note_off_c, 0, 72, 64
2, 49980, Note_on_c, 0, 71, 47
2, 50028, Note_off_c, 0, 71, 64
2, 50040, Note_on_c, 0, 74, 52
2, 50088, Note_off_c, 0, 74, 64
2, 50100, Note_on_c, 0, 72, 66
2, 50148, Note_off_c, 0, 72, 64
2, 50160, Note_on_c, 0, 76, 89
2, 50208, Note_off_c, 0, 76, 64
2, 50220, Note_on_c, 0, 72, 66
2, 50268, Note_off_c, 0, 72, 64
2, 50280, Note_on_c, 0, 71, 55
2, 50328, Note_off_c, 0, 71, 64
2, 50340, Note_on_c, 0, 72, 77
2, 50388, Note_off_c, 0, 72, 64
2, 50400, Note_on_c, 0, 64, 66
2, 50400, Note_on_c, 0, 67, 66
2, 50448, Note_off_c, 0, 67, 64
2, 50460, Note_on_c, 0, 72, 77
2, 50496, Note_off_c, 0, 64, 64
2, 50508, Note_off_c, 0, 72, 64
2, 50520, Note_on_c, 0, 69, 71
2, 50520, Note_on_c, 0, 65, 46
2, 50568, Note_off_c, 0, 69, 64
2, 50580, Note_on_c, 0, 72, 83
2, 50616, Note_off_c, 0, 65, 64
2, 50628, Note_off_c, 0, 72, 64
2, 50640, Note_on_c, 0, 64, 83
2, 50640, Note_on_c, 0, 67, 54
2, 50736, Note_off_c, 0, 67, 64
2, 50760, Note_on_c, 0, 72, 50
2, 50832, Note_off_c, 0, 64, 64
2, 50856, Note_off_c, 0, 72, 64
2, 50880, Note_on_c, 0, 72, 54
2, 50928, Note_off_c, 0, 72, 64
2, 50940, Note_on_c, 0, 71, 52
2, 50988, Note_off_c, 0, 71, 64
2, 51000, Note_on_c, 0, 74, 66
2, 51048, Note_off_c, 0, 74, 64
2, 51060, Note_on_c, 0, 72, 52
2, 51108, Note_off_c, 0, 72, 64
2, 51120, Note_on_c, 0, 76, 66
2, 51168, Note_off_c, 0, 76, 64
2, 51180, Note_on_c, 0, 72, 61
2, 51228, Note_off_c, 0, 72, 64
2, 51240, Note_on_c, 0, 71, 66
2, 51288, Note_off_c, 0, 71, 64
2, 51300, Note_on_c, 0, 72, 54
2, 51348, Note_off_c, 0, 72, 64
2, 51360, Note_on_c, 0, 67, 61
2, 51360, Note_on_c, 0, 52, 42
2, 51408, Note_off_c, 0, 67, 64
2, 51420, Note_on_c, 0, 72, 50
2, 51456, Note_off_c, 0, 52, 64
2, 51468, Note_off_c, 0, 72, 64
2, 51480, Note_on_c, 0, 50, 66
2, 51480, Note_on_c, 0, 65, 66
2, 51528, Note_off_c, 0, 65, 64
2, 51540, Note_on_c, 0, 72, 43
2, 51576, Note_off_c, 0, 50, 64
2, 51588, Note_off_c, 0, 72, 64
2, 51600, Note_on_c, 0, 48, 71
2, 51600, Note_on_c, 0, 64, 58
2, 51696, Note_off_c, 0, 64, 64
2, 51696, Note_off_c, 0, 48, 64
2, 51720, Note_on_c, 0, 52, 42
2, 51720, Note_on_c, 0, 67, 45
2, 51768, Note_off_c, 0, 67, 64
2, 51780, Note_on_c, 0, 72, 43
2, 51816, Note_off_c, 0, 52, 64
2, 51828, Note_off_c, 0, 72, 64
2, 51840, Note_on_c, 0, 69, 54
2, 51840, Note_on_c, 0, 53, 52
2, 51888, Note_off_c, 0, 69, 64
2, 51900, Note_on_c, 0, 72, 50
2, 51936, Note_off_c, 0, 53, 64
2, 51948, Note_off_c, 0, 72, 64
2, 51960, Note_on_c, 0, 55, 50
2, 51960, Note_on_c, 0, 67, 71
2, 52008, Note_off_c, 0, 67, 64
2, 52020, Note_on_c, 0, 72, 54
2, 52056, Note_off_c, 0, 55, 64
2, 52068, Note_off_c, 0, 72, 64
2, 52080, Note_on_c, 0, 57, 43
2, 52080, Note_on_c, 0, 65, 71
2, 52128, Note_off_c, 0, 65, 64
2, 52140, Note_on_c, 0, 69, 66
2, 52176, Note_off_c, 0, 57, 64
2, 52188, Note_off_c, 0, 69, 64
2, 52200, Note_on_c, 0, 54, 42
2, 52200, Note_on_c, 0, 74, 61
2, 52248, Note_off_c, 0, 74, 64
2, 52260, Note_on_c, 0, 72, 52
2, 52296, Note_off_c, 0, 54, 64
2, 52308, Note_off_c, 0, 72, 64
2, 52320, Note_on_c, 0, 71, 52
2, 52320, Note_on_c, 0, 55, 52
2, 52368, Note_off_c, 0, 71, 64
2, 52380, Note_on_c, 0, 74, 58
2, 52416, Note_off_c, 0, 55, 64
2, 52428, Note_off_c, 0, 74, 64
2, 52440, Note_on_c, 0, 57, 61
2, 52440, Note_on_c, 0, 69, 54
2, 52488, Note_off_c, 0, 69, 64
2, 52500, Note_on_c, 0, 74, 54
2, 52536, Note_off_c, 0, 57, 64
2, 52548, Note_off_c, 0, 74, 64
2, 52560, Note_on_c, 0, 59, 71
2, 52560, Note_on_c, 0, 67, 71
2, 52608, Note_off_c, 0, 67, 64
2, 52620, Note_on_c, 0, 71, 58
2, 52656, Note_off_c, 0, 59, 64
2, 52668, Note_off_c, 0, 71, 64
2, 52680, Note_on_c, 0, 56, 55
2, 52680, Note_on_c, 0, 76, 71
2, 52728, Note_off_c, 0, 76, 64
2, 52740, Note_on_c, 0, 74, 66
2, 52776, Note_off_c, 0, 56, 64
2, 52788, Note_off_c, 0, 74, 64
2, 52800, Note_on_c, 0, 72, 71
2, 52800, Note_on_c, 0, 57, 77
2, 52848, Note_off_c, 0, 72, 64
2, 52860, Note_on_c, 0, 76, 77
2, 52896, Note_off_c, 0, 57, 64
2, 52908, Note_off_c, 0, 76, 64
2, 52920, Note_on_c, 0, 59, 58
2, 52920, Note_on_c, 0, 71, 47
2, 52968, Note_off_c, 0, 71, 64
2, 52980, Note_on_c, 0, 76, 71
2, 53016, Note_off_c, 0, 59, 64
2, 53028, Note_off_c, 0, 76, 64
2, 53040, Note_on_c, 0, 60, 54
2, 53040, Note_on_c, 0, 69, 83
2, 53088, Note_off_c, 0, 69, 64
2, 53100, Note_on_c, 0, 72, 71
2, 53136, Note_off_c, 0, 60, 64
2, 53148, Note_off_c, 0, 72, 64
2, 53160, Note_on_c, 0, 57, 71
2, 53160, Note_on_c, 0, 77, 61
2, 53208, Note_off_c, 0, 77, 64
2, 53220, Note_on_c, 0, 76, 89
2, 53256, Note_off_c, 0, 57, 64
2, 53268, Note_off_c, 0, 76, 64
2, 53280, Note_on_c, 0, 74, 71
2, 53280, Note_on_c, 0, 59, 71
2, 53328, Note_off_c, 0, 74, 64
2, 53340, Note_on_c, 0, 77, 58
2, 53376, Note_off_c, 0, 59, 64
2, 53388, Note_off_c, 0, 77, 64
2, 53400, Note_on_c, 0, 60, 75
2, 53400, Note_on_c, 0, 72, 77
2, 53448, Note_off_c, 0, 72, 64
2, 53460, Note_on_c, 0, 77, 71
2, 53496, Note_off_c, 0, 60, 64
2, 53508, Note_off_c, 0, 77, 64
2, 53520, Note_on_c, 0, 62, 89
2, 53520, Note_on_c, 0, 71, 77
2, 53568, Note_off_c, 0, 71, 64
2, 53580, Note_on_c, 0, 74, 66
2, 53616, Note_off_c, 0, 62, 64
2, 53628, Note_off_c, 0, 74, 64
2, 53640, Note_on_c, 0, 59, 77
2, 53640, Note_on_c, 0, 79, 54
2, 53688, Note_off_c, 0, 79, 64
2, 53700, Note_on_c, 0, 77, 66
2, 53736, Note_off_c, 0, 59, 64
2, 53748, Note_off_c, 0, 77, 64
2, 53760, Note_on_c, 0, 76, 77
2, 53760, Note_on_c, 0, 60, 58
2, 53808, Note_off_c, 0, 76, 64
2, 53820, Note_on_c, 0, 79, 50
2, 53856, Note_off_c, 0, 60, 64
2, 53868, Note_off_c, 0, 79, 64
2, 53880, Note_on_c, 0, 52, 83
2, 53880, Note_on_c, 0, 72, 77
2, 53928, Note_off_c, 0, 72, 64
2, 53940, Note_on_c, 0, 74, 66
2, 53976, Note_off_c, 0, 52, 64
2, 53988, Note_off_c, 0, 74, 64
2, 54000, Note_on_c, 0, 53, 77
2, 54000, Note_on_c, 0, 76, 66
2, 54012, Note_off_c, 0, 76, 64
2, 54015, Note_on_c, 0, 74, 52
2, 54027, Note_off_c, 0, 74, 64
2, 54030, Note_on_c, 0, 76, 71
2, 54042, Note_off_c, 0, 76, 64
2, 54045, Note_on_c, 0, 74, 61
2, 54057, Note_off_c, 0, 74, 64
2, 54060, Note_on_c, 0, 76, 61
2, 54072, Note_off_c, 0, 76, 64
2, 54075, Note_on_c, 0, 74, 51
2, 54087, Note_off_c, 0, 74, 64
2, 54090, Note_on_c, 0, 76, 58
2, 54096, Note_off_c, 0, 53, 64
2, 54102, Note_off_c, 0, 76, 64
2, 54105, Note_on_c, 0, 74, 50
2, 54117, Note_off_c, 0, 74, 64
2, 54120, Note_on_c, 0, 55, 66
2, 54120, Note_on_c, 0, 76, 54
2, 54132, Note_off_c, 0, 76, 64
2, 54135, Note_on_c, 0, 74, 47
2, 54147, Note_off_c, 0, 74, 64
2, 54150, Note_on_c, 0, 76, 44
2, 54162, Note_off_c, 0, 76, 64
2, 54165, Note_on_c, 0, 74, 50
2, 54177, Note_off_c, 0, 74, 64
2, 54180, Note_on_c, 0, 76, 46
2, 54192, Note_off_c, 0, 76, 64
2, 54195, Note_on_c, 0, 74, 40
2, 54207, Note_off_c, 0, 74, 64
2, 54210, Note_on_c, 0, 76, 52
2, 54216, Note_off_c, 0, 55, 64
2, 54222, Note_off_c, 0, 76, 64
2, 54225, Note_on_c, 0, 74, 42
2, 54237, Note_off_c, 0, 74, 64
2, 54240, Note_on_c, 0, 48, 58
2, 54240, Note_on_c, 0, 72, 42
2, 54336, Note_off_c, 0, 48, 64
2, 54360, Note_on_c, 0, 60, 54
2, 54432, Note_off_c, 0, 72, 64
2, 54456, Note_off_c, 0, 60, 64
2, 54480, Note_on_c, 0, 48, 50
2, 54600, Note_on_c, 0, 75, 89
2, 54600, Note_on_c, 0, 79, 44
2, 54672, Note_off_c, 0, 48, 64
2, 54696, Note_off_c, 0, 79, 64
2, 54696, Note_off_c, 0, 75, 64
2, 54720, Note_on_c, 0, 80, 47
2, 54720, Note_on_c, 0, 77, 71
2, 54816, Note_off_c, 0, 77, 64
2, 54816, Note_off_c, 0, 80, 64
2, 54840, Note_on_c, 0, 48, 54
2, 54840, Note_on_c, 0, 60, 42
2, 54936, Note_off_c, 0, 60, 64
2, 54936, Note_off_c, 0, 48, 64
2, 54960, Note_on_c, 0, 50, 45
2, 54960, Note_on_c, 0, 62, 42
2, 55056, Note_off_c, 0, 62, 64
2, 55056, Note_off_c, 0, 50, 64
2, 55080, Note_on_c, 0, 75, 47
2, 55080, Note_on_c, 0, 79, 43
2, 55176, Note_off_c, 0, 79, 64
2, 55176, Note_off_c, 0, 75, 64
2, 55200, Note_on_c, 0, 74, 66
2, 55200, Note_on_c, 0, 77, 42
2, 55296, Note_off_c, 0, 77, 64
2, 55296, Note_off_c, 0, 74, 64
2, 55320, Note_on_c, 0, 48, 47
2, 55320, Note_on_c, 0, 60, 50
2, 55416, Note_off_c, 0, 60, 64
2, 55416, Note_off_c, 0, 48, 64
2, 55440, Note_on_c, 0, 47, 42
2, 55440, Note_on_c, 0, 59, 43
2, 55536, Note_off_c, 0, 59, 64
2, 55536, Note_off_c, 0, 47, 64
2, 55560, Note_on_c, 0, 74, 61
2, 55560, Note_on_c, 0, 77, 53
2, 55656, Note_off_c, 0, 77, 64
2, 55656, Note_off_c, 0, 74, 64
2, 55680, Note_on_c, 0, 75, 66
2, 55680, Note_on_c, 0, 79, 42
2, 55776, Note_off_c, 0, 79, 64
2, 55776, Note_off_c, 0, 75, 64
2, 55800, Note_on_c, 0, 47, 54
2, 55800, Note_on_c, 0, 59, 42
2, 55896, Note_off_c, 0, 59, 64
2, 55896, Note_off_c, 0, 47, 64
2, 55920, Note_on_c, 0, 48, 42
2, 55920, Note_on_c, 0, 60, 42
2, 56016, Note_off_c, 0, 60, 64
2, 56016, Note_off_c, 0, 48, 64
2, 56040, Note_on_c, 0, 74, 69
2, 56040, Note_on_c, 0, 77, 42
2, 56136, Note_off_c, 0, 77, 64
2, 56136, Note_off_c, 0, 74, 64
2, 56160, Note_on_c, 0, 75, 46
2, 56160, Note_on_c, 0, 72, 58
2, 56256, Note_off_c, 0, 72, 64
2, 56256, Note_off_c, 0, 75, 64
2, 56280, Note_on_c, 0, 58, 66
2, 56280, Note_on_c, 0, 46, 55
2, 56376, Note_off_c, 0, 46, 64
2, 56376, Note_off_c, 0, 58, 64
2, 56400, Note_on_c, 0, 56, 42
2, 56400, Note_on_c, 0, 44, 45
2, 56496, Note_off_c, 0, 44, 64
2, 56496, Note_off_c, 0, 56, 64
2, 56520, Note_on_c, 0, 74, 43
2, 56520, Note_on_c, 0, 71, 42
2, 56616, Note_off_c, 0, 71, 64
2, 56616, Note_off_c, 0, 74, 64
2, 56640, Note_on_c, 0, 75, 43
2, 56640, Note_on_c, 0, 72, 53
2, 56736, Note_off_c, 0, 72, 64
2, 56736, Note_off_c, 0, 75, 64
2, 56760, Note_on_c, 0, 55, 27
2, 56760, Note_on_c, 0, 43, 47
2, 56856, Note_off_c, 0, 43, 64
2, 56856, Note_off_c, 0, 55, 64
2, 56880, Note_on_c, 0, 54, 42
2, 56880, Note_on_c, 0, 42, 44
2, 56976, Note_off_c, 0, 42, 64
2, 56976, Note_off_c, 0, 54, 64
2, 57000, Note_on_c, 0, 54, 42
2, 57000, Note_on_c, 0, 42, 45
2, 57000, Note_on_c, 0, 75, 42
2, 57000, Note_on_c, 0, 72, 50
2, 57096, Note_off_c, 0, 72, 64
2, 57096, Note_off_c, 0, 75, 64
2, 57096, Note_off_c, 0, 42, 64
2, 57096, Note_off_c, 0, 54, 64
2, 57120, Note_on_c, 0, 72, 66
2, 57120, Note_on_c, 0, 55, 47
2, 57120, Note_on_c, 0, 75, 71
2, 57216, Note_off_c, 0, 75, 64
2, 57216, Note_off_c, 0, 55, 64
2, 57216, Note_off_c, 0, 72, 64
2, 57240, Note_on_c, 0, 43, 50
2, 57240, Note_on_c, 0, 74, 42
2, 57240, Note_on_c, 0, 71, 42
2, 57336, Note_off_c, 0, 71, 64
2, 57336, Note_off_c, 0, 74, 64
2, 57336, Note_off_c, 0, 43, 64
2, 57480, Note_on_c, 0, 67, 61
2, 57512, Note_off_c, 0, 67, 64
2, 57520, Note_on_c, 0, 69, 66
2, 57552, Note_off_c, 0, 69, 64
2, 57560, Note_on_c, 0, 71, 50
2, 57592, Note_off_c, 0, 71, 64
2, 57600, Note_on_c, 0, 52, 65
2, 57600, Note_on_c, 0, 48, 75
2, 57600, Note_on_c, 0, 72, 61
2, 57696, Note_off_c, 0, 72, 64
2, 57720, Note_on_c, 0, 72, 54
2, 57752, Note_off_c, 0, 72, 64
2, 57760, Note_on_c, 0, 74, 83
2, 57792, Note_off_c, 0, 74, 64
2, 57792, Note_off_c, 0, 48, 64
2, 57792, Note_off_c, 0, 52, 64
2, 57800, Note_on_c, 0, 76, 71
2, 57832, Note_off_c, 0, 76, 64
2, 57840, Note_on_c, 0, 72, 44
2, 57936, Note_off_c, 0, 72, 64
2, 57960, Note_on_c, 0, 76, 58
2, 57992, Note_off_c, 0, 76, 64
2, 58000, Note_on_c, 0, 77, 42
2, 58032, Note_off_c, 0, 77, 64
2, 58040, Note_on_c, 0, 79, 47
2, 58072, Note_off_c, 0, 79, 64
2, 58080, Note_on_c, 0, 76, 71
2, 58176, Note_off_c, 0, 76, 64
2, 58200, Note_on_c, 0, 79, 61
2, 58232, Note_off_c, 0, 79, 64
2, 58240, Note_on_c, 0, 81, 44
2, 58272, Note_off_c, 0, 81, 64
2, 58280, Note_on_c, 0, 83, 54
2, 58312, Note_off_c, 0, 83, 64
2, 58320, Note_on_c, 0, 84, 47
2, 58416, Note_off_c, 0, 84, 64
2, 58440, Note_on_c, 0, 60, 45
2, 58440, Note_on_c, 0, 52, 69
2, 58440, Note_on_c, 0, 79, 41
2, 58536, Note_off_c, 0, 79, 64
2, 58536, Note_off_c, 0, 52, 64
2, 58536, Note_off_c, 0, 60, 64
2, 58560, Note_on_c, 0, 60, 42
2, 58560, Note_on_c, 0, 53, 49
2, 58560, Note_on_c, 0, 81, 54
2, 58656, Note_off_c, 0, 81, 64
2, 58680, Note_on_c, 0, 84, 52
2, 58712, Note_off_c, 0, 84, 64
2, 58720, Note_on_c, 0, 81, 58
2, 58752, Note_off_c, 0, 81, 64
2, 58752, Note_off_c, 0, 53, 64
2, 58752, Note_off_c, 0, 60, 64
2, 58760, Note_on_c, 0, 77, 52
2, 58792, Note_off_c, 0, 77, 64
2, 58800, Note_on_c, 0, 55, 55
2, 58800, Note_on_c, 0, 60, 42
2, 58800, Note_on_c, 0, 76, 54
2, 58896, Note_off_c, 0, 76, 64
2, 58896, Note_off_c, 0, 60, 64
2, 58896, Note_off_c, 0, 55, 64
2, 58920, Note_on_c, 0, 55, 43
2, 58920, Note_on_c, 0, 59, 42
2, 58920, Note_on_c, 0, 76, 46
2, 58932, Note_off_c, 0, 76, 64
2, 58935, Note_on_c, 0, 74, 58
2, 58947, Note_off_c, 0, 74, 64
2, 58950, Note_on_c, 0, 76, 71
2, 58962, Note_off_c, 0, 76, 64
2, 58965, Note_on_c, 0, 74, 50
2, 58977, Note_off_c, 0, 74, 64
2, 58980, Note_on_c, 0, 76, 66
2, 58992, Note_off_c, 0, 76, 64
2, 58995, Note_on_c, 0, 74, 42
2, 59007, Note_off_c, 0, 74, 64
2, 59010, Note_on_c, 0, 76, 54
2, 59016, Note_off_c, 0, 59, 64
2, 59016, Note_off_c, 0, 55, 64
2, 59022, Note_off_c, 0, 76, 64
2, 59025, Note_on_c, 0, 74, 43
2, 59037, Note_off_c, 0, 74, 64
2, 59040, Note_on_c, 0, 60, 43
2, 59040, Note_on_c, 0, 72, 71
2, 59136, Note_off_c, 0, 60, 64
2, 59160, Note_on_c, 0, 55, 50
2, 59232, Note_off_c, 0, 72, 64
2, 59256, Note_off_c, 0, 55, 64
2, 59280, Note_on_c, 0, 48, 42
2, 59400, Note_on_c, 0, 67, 61
2, 59432, Note_off_c, 0, 67, 64
2, 59440, Note_on_c, 0, 69, 66
2, 59472, Note_off_c, 0, 69, 64
2, 59472, Note_off_c, 0, 48, 64
2, 59480, Note_on_c, 0, 71, 50
2, 59512, Note_off_c, 0, 71, 64
2, 59520, Note_on_c, 0, 52, 83
2, 59520, Note_on_c, 0, 48, 50
2, 59520, Note_on_c, 0, 72, 61
2, 59616, Note_off_c, 0, 72, 64
2, 59640, Note_on_c, 0, 72, 54
2, 59672, Note_off_c, 0, 72, 64
2, 59680, Note_on_c, 0, 74, 83
2, 59712, Note_off_c, 0, 74, 64
2, 59712, Note_off_c, 0, 48, 64
2, 59712, Note_off_c, 0, 52, 64
2, 59720, Note_on_c, 0, 76, 71
2, 59752, Note_off_c, 0, 76, 64
2, 59760, Note_on_c, 0, 72, 44
2, 59856, Note_off_c, 0, 72, 64
2, 59880, Note_on_c, 0, 76, 58
2, 59912, Note_off_c, 0, 76, 64
2, 59920, Note_on_c, 0, 77, 42
2, 59952, Note_off_c, 0, 77, 64
2, 59960, Note_on_c, 0, 79, 47
2, 59992, Note_off_c, 0, 79, 64
2, 60000, Note_on_c, 0, 76, 80
2, 60096, Note_off_c, 0, 76, 64
2, 60120, Note_on_c, 0, 52, 44
2, 60120, Note_on_c, 0, 67, 52
2, 60120, Note_on_c, 0, 40, 43
2, 60168, Note_off_c, 0, 67, 64
2, 60180, Note_on_c, 0, 79, 42
2, 60216, Note_off_c, 0, 40, 64
2, 60216, Note_off_c, 0, 52, 64
2, 60228, Note_off_c, 0, 79, 64
2, 60240, Note_on_c, 0, 52, 42
2, 60240, Note_on_c, 0, 40, 43
2, 60240, Note_on_c, 0, 67, 43
2, 60288, Note_off_c, 0, 67, 64
2, 60300, Note_on_c, 0, 79, 42
2, 60336, Note_off_c, 0, 40, 64
2, 60336, Note_off_c, 0, 52, 64
2, 60348, Note_off_c, 0, 79, 64
2, 60360, Note_on_c, 0, 52, 42
2, 60360, Note_on_c, 0, 40, 42
2, 60360, Note_on_c, 0, 67, 52
2, 60408, Note_off_c, 0, 67, 64
2, 60420, Note_on_c, 0, 79, 50
2, 60456, Note_off_c, 0, 40, 64
2, 60456, Note_off_c, 0, 52, 64
2, 60468, Note_off_c, 0, 79, 64
2, 60480, Note_on_c, 0, 41, 43
2, 60480, Note_on_c, 0, 69, 58
2, 60480, Note_on_c, 0, 53, 42
2, 60528, Note_off_c, 0, 69, 64
2, 60540, Note_on_c, 0, 79, 66
2, 60576, Note_off_c, 0, 53, 64
2, 60576, Note_off_c, 0, 41, 64
2, 60588, Note_off_c, 0, 79, 64
2, 60600, Note_on_c, 0, 69, 52
2, 60600, Note_on_c, 0, 41, 42
2, 60600, Note_on_c, 0, 53, 42
2, 60648, Note_off_c, 0, 69, 64
2, 60660, Note_on_c, 0, 79, 66
2, 60696, Note_off_c, 0, 53, 64
2, 60696, Note_off_c, 0, 41, 64
2, 60708, Note_off_c, 0, 79, 64
2, 60720, Note_on_c, 0, 50, 43
2, 60720, Note_on_c, 0, 38, 42
2, 60720, Note_on_c, 0, 69, 50
2, 60768, Note_off_c, 0, 69, 64
2, 60780, Note_on_c, 0, 77, 83
2, 60816, Note_off_c, 0, 38, 64
2, 60816, Note_off_c, 0, 50, 64
2, 60828, Note_off_c, 0, 77, 64
2, 60840, Note_on_c, 0, 50, 42
2, 60840, Note_on_c, 0, 38, 42
2, 60840, Note_on_c, 0, 69, 52
2, 60888, Note_off_c, 0, 69, 64
2, 60900, Note_on_c, 0, 77, 61
2, 60936, Note_off_c, 0, 38, 64
2, 60936, Note_off_c, 0, 50, 64
2, 60948, Note_off_c, 0, 77, 64
2, 60960, Note_on_c, 0, 47, 44
2, 60960, Note_on_c, 0, 67, 50
2, 60960, Note_on_c, 0, 35, 50
2, 61008, Note_off_c, 0, 67, 64
2, 61020, Note_on_c, 0, 77, 71
2, 61056, Note_off_c, 0, 35, 64
2, 61056, Note_off_c, 0, 47, 64
2, 61068, Note_off_c, 0, 77, 64
2, 61080, Note_on_c, 0, 67, 52
2, 61080, Note_on_c, 0, 47, 47
2, 61080, Note_on_c, 0, 35, 61
2, 61128, Note_off_c, 0, 67, 64
2, 61140, Note_on_c, 0, 77, 66
2, 61176, Note_off_c, 0, 35, 64
2, 61176, Note_off_c, 0, 47, 64
2, 61188, Note_off_c, 0, 77, 64
2, 61200, Note_on_c, 0, 48, 69
2, 61200, Note_on_c, 0, 36, 80
2, 61200, Note_on_c, 0, 67, 47
2, 61248, Note_off_c, 0, 67, 64
2, 61260, Note_on_c, 0, 76, 97
2, 61296, Note_off_c, 0, 36, 64
2, 61296, Note_off_c, 0, 48, 64
2, 61308, Note_off_c, 0, 76, 64
2, 61320, Note_on_c, 0, 48, 49
2, 61320, Note_on_c, 0, 36, 42
2, 61320, Note_on_c, 0, 67, 52
2, 61368, Note_off_c, 0, 67, 64
2, 61380, Note_on_c, 0, 76, 61
2, 61416, Note_off_c, 0, 36, 64
2, 61416, Note_off_c, 0, 48, 64
2, 61428, Note_off_c, 0, 76, 64
2, 61440, Note_on_c, 0, 41, 80
2, 61440, Note_on_c, 0, 65, 52
2, 61440, Note_on_c, 0, 53, 69
2, 61488, Note_off_c, 0, 65, 64
2, 61500, Note_on_c, 0, 74, 69
2, 61536, Note_off_c, 0, 53, 64
2, 61536, Note_off_c, 0, 41, 64
2, 61548, Note_off_c, 0, 74, 64
2, 61560, Note_on_c, 0, 65, 54
2, 61560, Note_on_c, 0, 41, 55
2, 61560, Note_on_c, 0, 53, 47
2, 61608, Note_off_c, 0, 65, 64
2, 61620, Note_on_c, 0, 74, 58
2, 61656, Note_off_c, 0, 53, 64
2, 61656, Note_off_c, 0, 41, 64
2, 61668, Note_off_c, 0, 74, 64
2, 61680, Note_on_c, 0, 55, 69
2, 61680, Note_on_c, 0, 43, 86
2, 61680, Note_on_c, 0, 62, 61
2, 61728, Note_off_c, 0, 62, 64
2, 61740, Note_on_c, 0, 71, 52
2, 61776, Note_off_c, 0, 43, 64
2, 61776, Note_off_c, 0, 55, 64
2, 61788, Note_off_c, 0, 71, 64
2, 61800, Note_on_c, 0, 43, 77
2, 61800, Note_on_c, 0, 55, 53
2, 61800, Note_on_c, 0, 62, 45
2, 61848, Note_off_c, 0, 62, 64
2, 61860, Note_on_c, 0, 71, 61
2, 61896, Note_off_c, 0, 55, 64
2, 61896, Note_off_c, 0, 43, 64
2, 61908, Note_off_c, 0, 71, 64
2, 61920, Note_on_c, 0, 36, 80
2, 61920, Note_on_c, 0, 48, 80
2, 61920, Note_on_c, 0, 72, 80
2, 61920, Note_on_c, 0, 64, 80
2, 62304, Note_off_c, 0, 64, 64
2, 62304, Note_off_c, 0, 72, 64
2, 62304, Note_off_c, 0, 48, 64
2, 62304, Note_off_c, 0, 36, 64
2, 62400, Note_on_c, 0, 55, 74
2, 62400, Note_on_c, 0, 59, 71
2, 62496, Note_off_c, 0, 59, 64
2, 62496, Note_off_c, 0, 55, 64
2, 62520, Note_on_c, 0, 67, 80
2, 62520, Note_on_c, 0, 55, 66
2, 62520, Note_on_c, 0, 59, 42
2, 62616, Note_off_c, 0, 59, 64
2, 62616, Note_off_c, 0, 55, 64
2, 62616, Note_off_c, 0, 67, 64
2, 62640, Note_on_c, 0, 55, 54
2, 62640, Note_on_c, 0, 59, 42
2, 62640, Note_on_c, 0, 71, 80
2, 62688, Note_off_c, 0, 71, 64
2, 62700, Note_on_c, 0, 67, 80
2, 62736, Note_off_c, 0, 59, 64
2, 62736, Note_off_c, 0, 55, 64
2, 62748, Note_off_c, 0, 67, 64
2, 62760, Note_on_c, 0, 55, 54
2, 62760, Note_on_c, 0, 59, 44
2, 62760, Note_on_c, 0, 74, 54
2, 62808, Note_off_c, 0, 74, 64
2, 62820, Note_on_c, 0, 71, 54
2, 62856, Note_off_c, 0, 59, 64
2, 62856, Note_off_c, 0, 55, 64
2, 62868, Note_off_c, 0, 71, 64
2, 62880, Note_on_c, 0, 59, 48
2, 62880, Note_on_c, 0, 77, 71
2, 62880, Note_on_c, 0, 55, 58
2, 62976, Note_off_c, 0, 55, 64
2, 62976, Note_off_c, 0, 59, 64
2, 63000, Note_on_c, 0, 55, 58
2, 63000, Note_on_c, 0, 59, 43
2, 63024, Note_off_c, 0, 77, 64
2, 63060, Note_on_c, 0, 74, 61
2, 63096, Note_off_c, 0, 59, 64
2, 63096, Note_off_c, 0, 55, 64
2, 63108, Note_off_c, 0, 74, 64
2, 63120, Note_on_c, 0, 55, 54
2, 63120, Note_on_c, 0, 59, 42
2, 63120, Note_on_c, 0, 76, 77
2, 63132, Note_off_c, 0, 76, 64
2, 63135, Note_on_c, 0, 74, 54
2, 63147, Note_off_c, 0, 74, 64
2, 63150, Note_on_c, 0, 76, 77
2, 63162, Note_off_c, 0, 76, 64
2, 63165, Note_on_c, 0, 74, 44
2, 63177, Note_off_c, 0, 74, 64
2, 63180, Note_on_c, 0, 76, 47
2, 63192, Note_off_c, 0, 76, 64
2, 63195, Note_on_c, 0, 74, 45
2, 63207, Note_off_c, 0, 74, 64
2, 63210, Note_on_c, 0, 76, 61
2, 63216, Note_off_c, 0, 59, 64
2, 63216, Note_off_c, 0, 55, 64
2, 63222, Note_off_c, 0, 76, 64
2, 63225, Note_on_c, 0, 74, 52
2, 63237, Note_off_c, 0, 74, 64
2, 63240, Note_on_c, 0, 59, 42
2, 63240, Note_on_c, 0, 55, 51
2, 63240, Note_on_c, 0, 76, 50
2, 63252, Note_off_c, 0, 76, 64
2, 63255, Note_on_c, 0, 74, 42
2, 63267, Note_off_c, 0, 74, 64
2, 63270, Note_on_c, 0, 76, 50
2, 63282, Note_off_c, 0, 76, 64
2, 63285, Note_on_c, 0, 74, 44
2, 63297, Note_off_c, 0, 74, 64
2, 63300, Note_on_c, 0, 76, 42
2, 63312, Note_off_c, 0, 76, 64
2, 63315, Note_on_c, 0, 74, 42
2, 63327, Note_off_c, 0, 74, 64
2, 63330, Note_on_c, 0, 76, 43
2, 63336, Note_off_c, 0, 55, 64
2, 63336, Note_off_c, 0, 59, 64
2, 63342, Note_off_c, 0, 76, 64
2, 63345, Note_on_c, 0, 74, 47
2, 63357, Note_off_c, 0, 74, 64
2, 63360, Note_on_c, 0, 59, 42
2, 63360, Note_on_c, 0, 86, 61
2, 63360, Note_on_c, 0, 55, 45
2, 63408, Note_off_c, 0, 86, 64
2, 63420, Note_on_c, 0, 84, 61
2, 63456, Note_off_c, 0, 55, 64
2, 63456, Note_off_c, 0, 59, 64
2, 63468, Note_off_c, 0, 84, 64
2, 63480, Note_on_c, 0, 83, 61
2, 63480, Note_on_c, 0, 55, 54
2, 63480, Note_on_c, 0, 59, 42
2, 63528, Note_off_c, 0, 83, 64
2, 63540, Note_on_c, 0, 81, 66
2, 63576, Note_off_c, 0, 59, 64
2, 63576, Note_off_c, 0, 55, 64
2, 63588, Note_off_c, 0, 81, 64
2, 63600, Note_on_c, 0, 55, 47
2, 63600, Note_on_c, 0, 59, 30
2, 63600, Note_on_c, 0, 79, 61
2, 63648, Note_off_c, 0, 79, 64
2, 63660, Note_on_c, 0, 77, 71
2, 63696, Note_off_c, 0, 59, 64
2, 63696, Note_off_c, 0, 55, 64
2, 63708, Note_off_c, 0, 77, 64
2, 63720, Note_on_c, 0, 55, 43
2, 63720, Note_on_c, 0, 59, 42
2, 63720, Note_on_c, 0, 76, 83
2, 63768, Note_off_c, 0, 76, 64
2, 63780, Note_on_c, 0, 74, 66
2, 63816, Note_off_c, 0, 59, 64
2, 63816, Note_off_c, 0, 55, 64
2, 63828, Note_off_c, 0, 74, 64
2, 63840, Note_on_c, 0, 60, 43
2, 63840, Note_on_c, 0, 76, 77
2, 63840, Note_on_c, 0, 55, 50
2, 63936, Note_off_c, 0, 55, 64
2, 63936, Note_off_c, 0, 76, 64
2, 63936, Note_off_c, 0, 60, 64
2, 63960, Note_on_c, 0, 67, 71
2, 63960, Note_on_c, 0, 55, 47
2, 63960, Note_on_c, 0, 60, 45
2, 64056, Note_off_c, 0, 60, 64
2, 64056, Note_off_c, 0, 55, 64
2, 64056, Note_off_c, 0, 67, 64
2, 64080, Note_on_c, 0, 55, 45
2, 64080, Note_on_c, 0, 60, 39
2, 64080, Note_on_c, 0, 72, 71
2, 64128, Note_off_c, 0, 72, 64
2, 64140, Note_on_c, 0, 67, 77
2, 64176, Note_off_c, 0, 60, 64
2, 64176, Note_off_c, 0, 55, 64
2, 64188, Note_off_c, 0, 67, 64
2, 64200, Note_on_c, 0, 55, 45
2, 64200, Note_on_c, 0, 60, 43
2, 64200, Note_on_c, 0, 76, 77
2, 64248, Note_off_c, 0, 76, 64
2, 64260, Note_on_c, 0, 72, 77
2, 64296, Note_off_c, 0, 60, 64
2, 64296, Note_off_c, 0, 55, 64
2, 64308, Note_off_c, 0, 72, 64
2, 64320, Note_on_c, 0, 60, 44
2, 64320, Note_on_c, 0, 79, 58
2, 64320, Note_on_c, 0, 55, 58
2, 64416, Note_off_c, 0, 55, 64
2, 64416, Note_off_c, 0, 60, 64
2, 64440, Note_on_c, 0, 55, 43
2, 64440, Note_on_c, 0, 60, 30
2, 64464, Note_off_c, 0, 79, 64
2, 64500, Note_on_c, 0, 76, 58
2, 64536, Note_off_c, 0, 60, 64
2, 64536, Note_off_c, 0, 55, 64
2, 64548, Note_off_c, 0, 76, 64
2, 64560, Note_on_c, 0, 55, 51
2, 64560, Note_on_c, 0, 60, 42
2, 64560, Note_on_c, 0, 77, 77
2, 64572, Note_off_c, 0, 77, 64
2, 64575, Note_on_c, 0, 76, 66
2, 64587, Note_off_c, 0, 76, 64
2, 64590, Note_on_c, 0, 77, 66
2, 64602, Note_off_c, 0, 77, 64
2, 64605, Note_on_c, 0, 76, 50
2, 64617, Note_off_c, 0, 76, 64
2, 64620, Note_on_c, 0, 77, 66
2, 64632, Note_off_c, 0, 77, 64
2, 64635, Note_on_c, 0, 76, 54
2, 64647, Note_off_c, 0, 76, 64
2, 64650, Note_on_c, 0, 77, 52
2, 64656, Note_off_c, 0, 60, 64
2, 64656, Note_off_c, 0, 55, 64
2, 64662, Note_off_c, 0, 77, 64
2, 64665, Note_on_c, 0, 76, 52
2, 64677, Note_off_c, 0, 76, 64
2, 64680, Note_on_c, 0, 55, 43
2, 64680, Note_on_c, 0, 60, 42
2, 64680, Note_on_c, 0, 77, 77
2, 64692, Note_off_c, 0, 77, 64
2, 64695, Note_on_c, 0, 76, 71
2, 64707, Note_off_c, 0, 76, 64
2, 64710, Note_on_c, 0, 77, 77
2, 64722, Note_off_c, 0, 77, 64
2, 64725, Note_on_c, 0, 76, 52
2, 64737, Note_off_c, 0, 76, 64
2, 64740, Note_on_c, 0, 77, 61
2, 64752, Note_off_c, 0, 77, 64
2, 64755, Note_on_c, 0, 76, 42
2, 64767, Note_off_c, 0, 76, 64
2, 64770, Note_on_c, 0, 77, 54
2, 64776, Note_off_c, 0, 60, 64
2, 64776, Note_off_c, 0, 55, 64
2, 64782, Note_off_c, 0, 77, 64
2, 64785, Note_on_c, 0, 76, 44
2, 64797, Note_off_c, 0, 76, 64
2, 64800, Note_on_c, 0, 60, 43
2, 64800, Note_on_c, 0, 84, 61
2, 64800, Note_on_c, 0, 55, 61
2, 64848, Note_off_c, 0, 84, 64
2, 64860, Note_on_c, 0, 83, 61
2, 64896, Note_off_c, 0, 55, 64
2, 64896, Note_off_c, 0, 60, 64
2, 64908, Note_off_c, 0, 83, 64
2, 64920, Note_on_c, 0, 60, 42
2, 64920, Note_on_c, 0, 81, 58
2, 64920, Note_on_c, 0, 55, 58
2, 64968, Note_off_c, 0, 81, 64
2, 64980, Note_on_c, 0, 79, 71
2, 65016, Note_off_c, 0, 55, 64
2, 65016, Note_off_c, 0, 60, 64
2, 65028, Note_off_c, 0, 79, 64
2, 65040, Note_on_c, 0, 77, 77
2, 65040, Note_on_c, 0, 55, 54
2, 65040, Note_on_c, 0, 60, 42
2, 65088, Note_off_c, 0, 77, 64
2, 65100, Note_on_c, 0, 76, 77
2, 65136, Note_off_c, 0, 60, 64
2, 65136, Note_off_c, 0, 55, 64
2, 65148, Note_off_c, 0, 76, 64
2, 65160, Note_on_c, 0, 74, 58
2, 65160, Note_on_c, 0, 60, 43
2, 65160, Note_on_c, 0, 55, 56
2, 65208, Note_off_c, 0, 74, 64
2, 65220, Note_on_c, 0, 72, 61
2, 65256, Note_off_c, 0, 55, 64
2, 65256, Note_off_c, 0, 60, 64
2, 65268, Note_off_c, 0, 72, 64
2, 65280, Note_on_c, 0, 55, 77
2, 65280, Note_on_c, 0, 74, 80
2, 65280, Note_on_c, 0, 59, 45
2, 65376, Note_off_c, 0, 59, 64
2, 65376, Note_off_c, 0, 74, 64
2, 65376, Note_off_c, 0, 55, 64
2, 65400, Note_on_c, 0, 67, 80
2, 65400, Note_on_c, 0, 55, 51
2, 65400, Note_on_c, 0, 59, 49
2, 65496, Note_off_c, 0, 59, 64
2, 65496, Note_off_c, 0, 55, 64
2, 65496, Note_off_c, 0, 67, 64
2, 65520, Note_on_c, 0, 55, 66
2, 65520, Note_on_c, 0, 59, 56
2, 65520, Note_on_c, 0, 71, 80
2, 65568, Note_off_c, 0, 71, 64
2, 65580, Note_on_c, 0, 67, 80
2, 65616, Note_off_c, 0, 59, 64
2, 65616, Note_off_c, 0, 55, 64
2, 65628, Note_off_c, 0, 67, 64
2, 65640, Note_on_c, 0, 55, 52
2, 65640, Note_on_c, 0, 59, 43
2, 65640, Note_on_c, 0, 74, 54
2, 65688, Note_off_c, 0, 74, 64
2, 65700, Note_on_c, 0, 71, 54
2, 65736, Note_off_c, 0, 59, 64
2, 65736, Note_off_c, 0, 55, 64
2, 65748, Note_off_c, 0, 71, 64
2, 65760, Note_on_c, 0, 59, 45
2, 65760, Note_on_c, 0, 77, 71
2, 65760, Note_on_c, 0, 55, 58
2, 65856, Note_off_c, 0, 55, 64
2, 65856, Note_off_c, 0, 59, 64
2, 65880, Note_on_c, 0, 55, 65
2, 65880, Note_on_c, 0, 59, 47
2, 65904, Note_off_c, 0, 77, 64
2, 65940, Note_on_c, 0, 74, 61
2, 65976, Note_off_c, 0, 59, 64
2, 65976, Note_off_c, 0, 55, 64
2, 65988, Note_off_c, 0, 74, 64
2, 66000, Note_on_c, 0, 55, 62
2, 66000, Note_on_c, 0, 59, 43
2, 66000, Note_on_c, 0, 76, 77
2, 66012, Note_off_c, 0, 76, 64
2, 66015, Note_on_c, 0, 74, 54
2, 66027, Note_off_c, 0, 74, 64
2, 66030, Note_on_c, 0, 76, 77
2, 66042, Note_off_c, 0, 76, 64
2, 66045, Note_on_c, 0, 74, 44
2, 66057, Note_off_c, 0, 74, 64
2, 66060, Note_on_c, 0, 76, 47
2, 66072, Note_off_c, 0, 76, 64
2, 66075, Note_on_c, 0, 74, 45
2, 66087, Note_off_c, 0, 74, 64
2, 66090, Note_on_c, 0, 76, 61
2, 66096, Note_off_c, 0, 59, 64
2, 66096, Note_off_c, 0, 55, 64
2, 66102, Note_off_c, 0, 76, 64
2, 66105, Note_on_c, 0, 74, 52
2, 66117, Note_off_c, 0, 74, 64
2, 66120, Note_on_c, 0, 59, 45
2, 66120, Note_on_c, 0, 55, 64
2, 66120, Note_on_c, 0, 76, 50
2, 66132, Note_off_c, 0, 76, 64
2, 66135, Note_on_c, 0, 74, 42
2, 66147, Note_off_c, 0, 74, 64
2, 66150, Note_on_c, 0, 76, 50
2, 66162, Note_off_c, 0, 76, 64
2, 66165, Note_on_c, 0, 74, 44
2, 66177, Note_off_c, 0, 74, 64
2, 66180, Note_on_c, 0, 76, 42
2, 66192, Note_off_c, 0, 76, 64
2, 66195, Note_on_c, 0, 74, 42
2, 66207, Note_off_c, 0, 74, 64
2, 66210, Note_on_c, 0, 76, 43
2, 66216, Note_off_c, 0, 55, 64
2, 66216, Note_off_c, 0, 59, 64
2, 66222, Note_off_c, 0, 76, 64
2, 66225, Note_on_c, 0, 74, 47
2, 66237, Note_off_c, 0, 74, 64
2, 66240, Note_on_c, 0, 59, 42
2, 66240, Note_on_c, 0, 86, 61
2, 66240, Note_on_c, 0, 55, 54
2, 66288, Note_off_c, 0, 86, 64
2, 66300, Note_on_c, 0, 84, 61
2, 66336, Note_off_c, 0, 55, 64
2, 66336, Note_off_c, 0, 59, 64
2, 66348, Note_off_c, 0, 84, 64
2, 66360, Note_on_c, 0, 83, 61
2, 66360, Note_on_c, 0, 55, 55
2, 66360, Note_on_c, 0, 59, 42
2, 66408, Note_off_c, 0, 83, 64
2, 66420, Note_on_c, 0, 81, 66
2, 66456, Note_off_c, 0, 59, 64
2, 66456, Note_off_c, 0, 55, 64
2, 66468, Note_off_c, 0, 81, 64
2, 66480, Note_on_c, 0, 59, 43
2, 66480, Note_on_c, 0, 55, 54
2, 66480, Note_on_c, 0, 79, 61
2, 66528, Note_off_c, 0, 79, 64
2, 66540, Note_on_c, 0, 77, 71
2, 66576, Note_off_c, 0, 55, 64
2, 66576, Note_off_c, 0, 59, 64
2, 66588, Note_off_c, 0, 77, 64
2, 66600, Note_on_c, 0, 59, 42
2, 66600, Note_on_c, 0, 55, 50
2, 66600, Note_on_c, 0, 76, 83
2, 66648, Note_off_c, 0, 76, 64
2, 66660, Note_on_c, 0, 74, 66
2, 66696, Note_off_c, 0, 55, 64
2, 66696, Note_off_c, 0, 59, 64
2, 66708, Note_off_c, 0, 74, 64
2, 66720, Note_on_c, 0, 48, 48
2, 66720, Note_on_c, 0, 60, 45
2, 66780, Note_on_c, 0, 76, 66
2, 66828, Note_off_c, 0, 76, 64
2, 66840, Note_on_c, 0, 79, 42
2, 66888, Note_off_c, 0, 79, 64
2, 66900, Note_on_c, 0, 76, 54
2, 66912, Note_off_c, 0, 60, 64
2, 66912, Note_off_c, 0, 48, 64
2, 66948, Note_off_c, 0, 76, 64
2, 66960, Note_on_c, 0, 70, 77
2, 67020, Note_on_c, 0, 74, 83
2, 67056, Note_off_c, 0, 70, 64
2, 67068, Note_off_c, 0, 74, 64
2, 67080, Note_on_c, 0, 79, 52
2, 67128, Note_off_c, 0, 79, 64
2, 67140, Note_on_c, 0, 74, 58
2, 67188, Note_off_c, 0, 74, 64
2, 67200, Note_on_c, 0, 69, 54
2, 67260, Note_on_c, 0, 73, 58
2, 67296, Note_off_c, 0, 69, 64
2, 67308, Note_off_c, 0, 73, 64
2, 67320, Note_on_c, 0, 79, 54
2, 67368, Note_off_c, 0, 79, 64
2, 67380, Note_on_c, 0, 73, 61
2, 67428, Note_off_c, 0, 73, 64
2, 67440, Note_on_c, 0, 61, 47
2, 67440, Note_on_c, 0, 49, 61
2, 67500, Note_on_c, 0, 69, 58
2, 67548, Note_off_c, 0, 69, 64
2, 67560, Note_on_c, 0, 79, 54
2, 67608, Note_off_c, 0, 79, 64
2, 67620, Note_on_c, 0, 69, 54
2, 67632, Note_off_c, 0, 49, 64
2, 67632, Note_off_c, 0, 61, 64
2, 67668, Note_off_c, 0, 69, 64
2, 67680, Note_on_c, 0, 62, 47
2, 67680, Note_on_c, 0, 50, 43
2, 67740, Note_on_c, 0, 69, 58
2, 67788, Note_off_c, 0, 69, 64
2, 67800, Note_on_c, 0, 77, 58
2, 67848, Note_off_c, 0, 77, 64
2, 67860, Note_on_c, 0, 69, 54
2, 67872, Note_off_c, 0, 50, 64
2, 67872, Note_off_c, 0, 62, 64
2, 67908, Note_off_c, 0, 69, 64
2, 67920, Note_on_c, 0, 60, 48
2, 67920, Note_on_c, 0, 48, 43
2, 67980, Note_on_c, 0, 69, 61
2, 68028, Note_off_c, 0, 69, 64
2, 68040, Note_on_c, 0, 76, 66
2, 68088, Note_off_c, 0, 76, 64
2, 68100, Note_on_c, 0, 69, 61
2, 68112, Note_off_c, 0, 48, 64
2, 68112, Note_off_c, 0, 60, 64
2, 68148, Note_off_c, 0, 69, 64
2, 68160, Note_on_c, 0, 47, 42
2, 68160, Note_on_c, 0, 59, 42
2, 68220, Note_on_c, 0, 69, 66
2, 68268, Note_off_c, 0, 69, 64
2, 68280, Note_on_c, 0, 75, 66
2, 68328, Note_off_c, 0, 75, 64
2, 68340, Note_on_c, 0, 69, 58
2, 68352, Note_off_c, 0, 59, 64
2, 68352, Note_off_c, 0, 47, 64
2, 68388, Note_off_c, 0, 69, 64
2, 68400, Note_on_c, 0, 63, 71
2, 68460, Note_on_c, 0, 69, 52
2, 68496, Note_off_c, 0, 63, 64
2, 68508, Note_off_c, 0, 69, 64
2, 68520, Note_on_c, 0, 78, 66
2, 68568, Note_off_c, 0, 78, 64
2, 68580, Note_on_c, 0, 69, 50
2, 68628, Note_off_c, 0, 69, 64
2, 68640, Note_on_c, 0, 64, 61
2, 68700, Note_on_c, 0, 67, 42
2, 68736, Note_off_c, 0, 64, 64
2, 68748, Note_off_c, 0, 67, 64
2, 68760, Note_on_c, 0, 78, 61
2, 68808, Note_off_c, 0, 78, 64
2, 68820, Note_on_c, 0, 67, 34
2, 68868, Note_off_c, 0, 67, 64
2, 68880, Note_on_c, 0, 60, 43
2, 68880, Note_on_c, 0, 48, 52
2, 68940, Note_on_c, 0, 67, 66
2, 68988, Note_off_c, 0, 67, 64
2, 69000, Note_on_c, 0, 76, 54
2, 69048, Note_off_c, 0, 76, 64
2, 69060, Note_on_c, 0, 67, 54
2, 69072, Note_off_c, 0, 48, 64
2, 69072, Note_off_c, 0, 60, 64
2, 69108, Note_off_c, 0, 67, 64
2, 69120, Note_on_c, 0, 57, 47
2, 69120, Note_on_c, 0, 45, 43
2, 69180, Note_on_c, 0, 65, 52
2, 69228, Note_off_c, 0, 65, 64
2, 69240, Note_on_c, 0, 76, 58
2, 69288, Note_off_c, 0, 76, 64
2, 69300, Note_on_c, 0, 65, 44
2, 69312, Note_off_c, 0, 45, 64
2, 69312, Note_off_c, 0, 57, 64
2, 69348, Note_off_c, 0, 65, 64
2, 69360, Note_on_c, 0, 59, 50
2, 69360, Note_on_c, 0, 47, 61
2, 69420, Note_on_c, 0, 65, 54
2, 69468, Note_off_c, 0, 65, 64
2, 69480, Note_on_c, 0, 74, 58
2, 69528, Note_off_c, 0, 74, 64
2, 69540, Note_on_c, 0, 65, 52
2, 69552, Note_off_c, 0, 47, 64
2, 69552, Note_off_c, 0, 59, 64
2, 69588, Note_off_c, 0, 65, 64
2, 69600, Note_on_c, 0, 56, 61
2, 69600, Note_on_c, 0, 44, 74
2, 69660, Note_on_c, 0, 64, 42
2, 69708, Note_off_c, 0, 64, 64
2, 69720, Note_on_c, 0, 74, 42
2, 69768, Note_off_c, 0, 74, 64
2, 69780, Note_on_c, 0, 64, 46
2, 69792, Note_off_c, 0, 44, 64
2, 69792, Note_off_c, 0, 56, 64
2, 69828, Note_off_c, 0, 64, 64
2, 69840, Note_on_c, 0, 57, 81
2, 69840, Note_on_c, 0, 45, 89
2, 69900, Note_on_c, 0, 64, 42
2, 69948, Note_off_c, 0, 64, 64
2, 69960, Note_on_c, 0, 72, 52
2, 70008, Note_off_c, 0, 72, 64
2, 70020, Note_on_c, 0, 64, 42
2, 70032, Note_off_c, 0, 45, 64
2, 70032, Note_off_c, 0, 57, 64
2, 70068, Note_off_c, 0, 64, 64
2, 70080, Note_on_c, 0, 41, 81
2, 70080, Note_on_c, 0, 53, 80
2, 70140, Note_on_c, 0, 62, 61
2, 70188, Note_off_c, 0, 62, 64
2, 70200, Note_on_c, 0, 72, 52
2, 70248, Note_off_c, 0, 72, 64
2, 70260, Note_on_c, 0, 62, 54
2, 70272, Note_off_c, 0, 53, 64
2, 70272, Note_off_c, 0, 41, 64
2, 70308, Note_off_c, 0, 62, 64
2, 70320, Note_on_c, 0, 42, 69
2, 70320, Note_on_c, 0, 54, 52
2, 70380, Note_on_c, 0, 62, 44
2, 70428, Note_off_c, 0, 62, 64
2, 70440, Note_on_c, 0, 72, 42
2, 70488, Note_off_c, 0, 72, 64
2, 70500, Note_on_c, 0, 62, 29
2, 70512, Note_off_c, 0, 54, 64
2, 70512, Note_off_c, 0, 42, 64
2, 70548, Note_off_c, 0, 62, 64
2, 70560, Note_on_c, 0, 43, 44
2, 70560, Note_on_c, 0, 71, 45
2, 70608, Note_off_c, 0, 43, 64
2, 70620, Note_on_c, 0, 55, 54
2, 70668, Note_off_c, 0, 55, 64
2, 70680, Note_on_c, 0, 43, 45
2, 70728, Note_off_c, 0, 43, 64
2, 70740, Note_on_c, 0, 55, 44
2, 70752, Note_off_c, 0, 71, 64
2, 70788, Note_off_c, 0, 55, 64
2, 70800, Note_on_c, 0, 43, 52
2, 70848, Note_off_c, 0, 43, 64
2, 70860, Note_on_c, 0, 55, 47
2, 70908, Note_off_c, 0, 55, 64
2, 70920, Note_on_c, 0, 43, 42
2, 70920, Note_on_c, 0, 62, 54
2, 70920, Note_on_c, 0, 59, 57
2, 70968, Note_off_c, 0, 43, 64
2, 70980, Note_on_c, 0, 55, 42
2, 71016, Note_off_c, 0, 59, 64
2, 71016, Note_off_c, 0, 62, 64
2, 71028, Note_off_c, 0, 55, 64
2, 71040, Note_on_c, 0, 64, 40
2, 71040, Note_on_c, 0, 43, 42
2, 71040, Note_on_c, 0, 60, 66
2, 71088, Note_off_c, 0, 43, 64
2, 71100, Note_on_c, 0, 55, 43
2, 71136, Note_off_c, 0, 60, 64
2, 71136, Note_off_c, 0, 64, 64
2, 71148, Note_off_c, 0, 55, 64
2, 71160, Note_on_c, 0, 43, 42
2, 71208, Note_off_c, 0, 43, 64
2, 71220, Note_on_c, 0, 55, 42
2, 71268, Note_off_c, 0, 55, 64
2, 71280, Note_on_c, 0, 43, 42
2, 71328, Note_off_c, 0, 43, 64
2, 71340, Note_on_c, 0, 55, 44
2, 71388, Note_off_c, 0, 55, 64
2, 71400, Note_on_c, 0, 43, 43
2, 71400, Note_on_c, 0, 66, 42
2, 71400, Note_on_c, 0, 72, 42
2, 71448, Note_off_c, 0, 43, 64
2, 71460, Note_on_c, 0, 55, 50
2, 71496, Note_off_c, 0, 72, 64
2, 71496, Note_off_c, 0, 66, 64
2, 71508, Note_off_c, 0, 55, 64
2, 71520, Note_on_c, 0, 67, 50
2, 71520, Note_on_c, 0, 43, 52
2, 71520, Note_on_c, 0, 71, 45
2, 71568, Note_off_c, 0, 43, 64
2, 71580, Note_on_c, 0, 55, 45
2, 71616, Note_off_c, 0, 71, 64
2, 71616, Note_off_c, 0, 67, 64
2, 71628, Note_off_c, 0, 55, 64
2, 71640, Note_on_c, 0, 43, 43
2, 71688, Note_off_c, 0, 43, 64
2, 71700, Note_on_c, 0, 55, 42
2, 71748, Note_off_c, 0, 55, 64
2, 71760, Note_on_c, 0, 43, 54
2, 71808, Note_off_c, 0, 43, 64
2, 71820, Note_on_c, 0, 55, 44
2, 71868, Note_off_c, 0, 55, 64
2, 71880, Note_on_c, 0, 43, 42
2, 71880, Note_on_c, 0, 59, 47
2, 71880, Note_on_c, 0, 62, 48
2, 71928, Note_off_c, 0, 43, 64
2, 71940, Note_on_c, 0, 55, 43
2, 71976, Note_off_c, 0, 62, 64
2, 71976, Note_off_c, 0, 59, 64
2, 71988, Note_off_c, 0, 55, 64
2, 72000, Note_on_c, 0, 64, 42
2, 72000, Note_on_c, 0, 43, 42
2, 72000, Note_on_c, 0, 60, 52
2, 72048, Note_off_c, 0, 43, 64
2, 72060, Note_on_c, 0, 55, 42
2, 72096, Note_off_c, 0, 60, 64
2, 72096, Note_off_c, 0, 64, 64
2, 72108, Note_off_c, 0, 55, 64
2, 72120, Note_on_c, 0, 43, 44
2, 72168, Note_off_c, 0, 43, 64
2, 72180, Note_on_c, 0, 55, 42
2, 72228, Note_off_c, 0, 55, 64
2, 72240, Note_on_c, 0, 43, 58
2, 72288, Note_off_c, 0, 43, 64
2, 72300, Note_on_c, 0, 55, 43
2, 72348, Note_off_c, 0, 55, 64
2, 72360, Note_on_c, 0, 43, 47
2, 72360, Note_on_c, 0, 66, 42
2, 72360, Note_on_c, 0, 60, 46
2, 72408, Note_off_c, 0, 43, 64
2, 72420, Note_on_c, 0, 55, 42
2, 72456, Note_off_c, 0, 60, 64
2, 72456, Note_off_c, 0, 66, 64
2, 72468, Note_off_c, 0, 55, 64
2, 72480, Note_on_c, 0, 43, 80
2, 72480, Note_on_c, 0, 67, 43
2, 72480, Note_on_c, 0, 59, 56
2, 72672, Note_off_c, 0, 59, 64
2, 72672, Note_off_c, 0, 67, 64
2, 72672, Note_off_c, 0, 43, 64
2, 72960, Note_on_c, 0, 64, 42
2, 72960, Note_on_c, 0, 60, 40
2, 73056, Note_off_c, 0, 60, 64
2, 73056, Note_off_c, 0, 64, 64
2, 73080, Note_on_c, 0, 72, 77
2, 73080, Note_on_c, 0, 64, 54
2, 73080, Note_on_c, 0, 60, 42
2, 73176, Note_off_c, 0, 60, 64
2, 73176, Note_off_c, 0, 64, 64
2, 73176, Note_off_c, 0, 72, 64
2, 73200, Note_on_c, 0, 76, 50
2, 73200, Note_on_c, 0, 64, 47
2, 73200, Note_on_c, 0, 60, 42
2, 73248, Note_off_c, 0, 76, 64
2, 73260, Note_on_c, 0, 72, 66
2, 73296, Note_off_c, 0, 60, 64
2, 73296, Note_off_c, 0, 64, 64
2, 73308, Note_off_c, 0, 72, 64
2, 73320, Note_on_c, 0, 79, 61
2, 73320, Note_on_c, 0, 64, 47
2, 73320, Note_on_c, 0, 60, 42
2, 73368, Note_off_c, 0, 79, 64
2, 73380, Note_on_c, 0, 76, 77
2, 73416, Note_off_c, 0, 60, 64
2, 73416, Note_off_c, 0, 64, 64
2, 73428, Note_off_c, 0, 76, 64
2, 73440, Note_on_c, 0, 60, 42
2, 73440, Note_on_c, 0, 84, 66
2, 73440, Note_on_c, 0, 64, 54
2, 73536, Note_off_c, 0, 64, 64
2, 73536, Note_off_c, 0, 60, 64
2, 73560, Note_on_c, 0, 64, 61
2, 73560, Note_on_c, 0, 60, 44
2, 73584, Note_off_c, 0, 84, 64
2, 73620, Note_on_c, 0, 79, 61
2, 73656, Note_off_c, 0, 60, 64
2, 73656, Note_off_c, 0, 64, 64
2, 73668, Note_off_c, 0, 79, 64
2, 73680, Note_on_c, 0, 81, 80
2, 73680, Note_on_c, 0, 64, 58
2, 73680, Note_on_c, 0, 60, 42
2, 73692, Note_off_c, 0, 81, 64
2, 73695, Note_on_c, 0, 79, 58
2, 73707, Note_off_c, 0, 79, 64
2, 73710, Note_on_c, 0, 81, 42
2, 73722, Note_off_c, 0, 81, 64
2, 73725, Note_on_c, 0, 79, 66
2, 73737, Note_off_c, 0, 79, 64
2, 73740, Note_on_c, 0, 81, 54
2, 73752, Note_off_c, 0, 81, 64
2, 73755, Note_on_c, 0, 79, 58
2, 73767, Note_off_c, 0, 79, 64
2, 73770, Note_on_c, 0, 81, 46
2, 73776, Note_off_c, 0, 60, 64
2, 73776, Note_off_c, 0, 64, 64
2, 73782, Note_off_c, 0, 81, 64
2, 73785, Note_on_c, 0, 79, 47
2, 73797, Note_off_c, 0, 79, 64
2, 73800, Note_on_c, 0, 81, 47
2, 73800, Note_on_c, 0, 64, 57
2, 73800, Note_on_c, 0, 60, 45
2, 73812, Note_off_c, 0, 81, 64
2, 73815, Note_on_c, 0, 79, 56
2, 73827, Note_off_c, 0, 79, 64
2, 73830, Note_on_c, 0, 81, 47
2, 73842, Note_off_c, 0, 81, 64
2, 73845, Note_on_c, 0, 79, 42
2, 73857, Note_off_c, 0, 79, 64
2, 73860, Note_on_c, 0, 81, 28
2, 73872, Note_off_c, 0, 81, 64
2, 73875, Note_on_c, 0, 79, 45
2, 73887, Note_off_c, 0, 79, 64
2, 73890, Note_on_c, 0, 81, 38
2, 73896, Note_off_c, 0, 60, 64
2, 73896, Note_off_c, 0, 64, 64
2, 73902, Note_off_c, 0, 81, 64
2, 73905, Note_on_c, 0, 79, 43
2, 73917, Note_off_c, 0, 79, 64
2, 73920, Note_on_c, 0, 65, 45
2, 73920, Note_on_c, 0, 60, 47
2, 74016, Note_off_c, 0, 60, 64
2, 74016, Note_off_c, 0, 65, 64
2, 74040, Note_on_c, 0, 65, 47
2, 74040, Note_on_c, 0, 60, 48
2, 74040, Note_on_c, 0, 72, 52
2, 74136, Note_off_c, 0, 72, 64
2, 74136, Note_off_c, 0, 60, 64
2, 74136, Note_off_c, 0, 65, 64
2, 74160, Note_on_c, 0, 77, 83
2, 74160, Note_on_c, 0, 60, 50
2, 74160, Note_on_c, 0, 65, 47
2, 74208, Note_off_c, 0, 77, 64
2, 74220, Note_on_c, 0, 72, 66
2, 74256, Note_off_c, 0, 65, 64
2, 74256, Note_off_c, 0, 60, 64
2, 74268, Note_off_c, 0, 72, 64
2, 74280, Note_on_c, 0, 81, 71
2, 74280, Note_on_c, 0, 65, 45
2, 74280, Note_on_c, 0, 60, 43
2, 74328, Note_off_c, 0, 81, 64
2, 74340, Note_on_c, 0, 77, 52
2, 74376, Note_off_c, 0, 60, 64
2, 74376, Note_off_c, 0, 65, 64
2, 74388, Note_off_c, 0, 77, 64
2, 74400, Note_on_c, 0, 60, 60
2, 74400, Note_on_c, 0, 84, 114
2, 74400, Note_on_c, 0, 65, 61
2, 74496, Note_off_c, 0, 65, 64
2, 74496, Note_off_c, 0, 60, 64
2, 74520, Note_on_c, 0, 65, 58
2, 74520, Note_on_c, 0, 60, 56
2, 74544, Note_off_c, 0, 84, 64
2, 74580, Note_on_c, 0, 81, 89
2, 74616, Note_off_c, 0, 60, 64
2, 74616, Note_off_c, 0, 65, 64
2, 74628, Note_off_c, 0, 81, 64
2, 74640, Note_on_c, 0, 83, 1
2, 74640, Note_on_c, 0, 60, 66
2, 74640, Note_on_c, 0, 65, 56
2, 74652, Note_off_c, 0, 83, 64
2, 74655, Note_on_c, 0, 81, 1
2, 74667, Note_off_c, 0, 81, 64
2, 74670, Note_on_c, 0, 83, 25
2, 74682, Note_off_c, 0, 83, 64
2, 74685, Note_on_c, 0, 81, 44
2, 74697, Note_off_c, 0, 81, 64
2, 74700, Note_on_c, 0, 83, 42
2, 74712, Note_off_c, 0, 83, 64
2, 74715, Note_on_c, 0, 81, 20
2, 74727, Note_off_c, 0, 81, 64
2, 74730, Note_on_c, 0, 83, 42
2, 74736, Note_off_c, 0, 65, 64
2, 74736, Note_off_c, 0, 60, 64
2, 74742, Note_off_c, 0, 83, 64
2, 74745, Note_on_c, 0, 81, 44
2, 74757, Note_off_c, 0, 81, 64
2, 74760, Note_on_c, 0, 83, 45
2, 74760, Note_on_c, 0, 60, 58
2, 74760, Note_on_c, 0, 65, 48
2, 74772, Note_off_c, 0, 83, 64
2, 74775, Note_on_c, 0, 81, 45
2, 74787, Note_off_c, 0, 81, 64
2, 74790, Note_on_c, 0, 83, 42
2, 74802, Note_off_c, 0, 83, 64
2, 74805, Note_on_c, 0, 81, 58
2, 74817, Note_off_c, 0, 81, 64
2, 74820, Note_on_c, 0, 83, 42
2, 74832, Note_off_c, 0, 83, 64
2, 74835, Note_on_c, 0, 81, 45
2, 74847, Note_off_c, 0, 81, 64
2, 74850, Note_on_c, 0, 83, 43
2, 74856, Note_off_c, 0, 65, 64
2, 74856, Note_off_c, 0, 60, 64
2, 74862, Note_off_c, 0, 83, 64
2, 74865, Note_on_c, 0, 81, 44
2, 74877, Note_off_c, 0, 81, 64
2, 74880, Note_on_c, 0, 64, 69
2, 74880, Note_on_c, 0, 60, 57
2, 74976, Note_off_c, 0, 60, 64
2, 74976, Note_off_c, 0, 64, 64
2, 75000, Note_on_c, 0, 60, 57
2, 75000, Note_on_c, 0, 64, 54
2, 75000, Note_on_c, 0, 72, 66
2, 75096, Note_off_c, 0, 72, 64
2, 75096, Note_off_c, 0, 64, 64
2, 75096, Note_off_c, 0, 60, 64
2, 75120, Note_on_c, 0, 76, 66
2, 75120, Note_on_c, 0, 60, 44
2, 75120, Note_on_c, 0, 64, 65
2, 75168, Note_off_c, 0, 76, 64
2, 75180, Note_on_c, 0, 72, 89
2, 75216, Note_off_c, 0, 64, 64
2, 75216, Note_off_c, 0, 60, 64
2, 75228, Note_off_c, 0, 72, 64
2, 75240, Note_on_c, 0, 79, 81
2, 75240, Note_on_c, 0, 60, 44
2, 75240, Note_on_c, 0, 64, 43
2, 75288, Note_off_c, 0, 79, 64
2, 75300, Note_on_c, 0, 76, 83
2, 75336, Note_off_c, 0, 64, 64
2, 75336, Note_off_c, 0, 60, 64
2, 75348, Note_off_c, 0, 76, 64
2, 75360, Note_on_c, 0, 60, 48
2, 75360, Note_on_c, 0, 84, 77
2, 75360, Note_on_c, 0, 64, 61
2, 75456, Note_off_c, 0, 64, 64
2, 75456, Note_off_c, 0, 60, 64
2, 75480, Note_on_c, 0, 64, 81
2, 75480, Note_on_c, 0, 60, 74
2, 75504, Note_off_c, 0, 84, 64
2, 75540, Note_on_c, 0, 79, 77
2, 75576, Note_off_c, 0, 60, 64
2, 75576, Note_off_c, 0, 64, 64
2, 75588, Note_off_c, 0, 79, 64
2, 75600, Note_on_c, 0, 60, 71
2, 75600, Note_on_c, 0, 64, 53
2, 75600, Note_on_c, 0, 81, 80
2, 75612, Note_off_c, 0, 81, 64
2, 75615, Note_on_c, 0, 79, 58
2, 75627, Note_off_c, 0, 79, 64
2, 75630, Note_on_c, 0, 81, 42
2, 75642, Note_off_c, 0, 81, 64
2, 75645, Note_on_c, 0, 79, 66
2, 75657, Note_off_c, 0, 79, 64
2, 75660, Note_on_c, 0, 81, 54
2, 75672, Note_off_c, 0, 81, 64
2, 75675, Note_on_c, 0, 79, 58
2, 75687, Note_off_c, 0, 79, 64
2, 75690, Note_on_c, 0, 81, 46
2, 75696, Note_off_c, 0, 64, 64
2, 75696, Note_off_c, 0, 60, 64
2, 75702, Note_off_c, 0, 81, 64
2, 75705, Note_on_c, 0, 79, 47
2, 75717, Note_off_c, 0, 79, 64
2, 75720, Note_on_c, 0, 60, 50
2, 75720, Note_on_c, 0, 64, 53
2, 75720, Note_on_c, 0, 81, 47
2, 75732, Note_off_c, 0, 81, 64
2, 75735, Note_on_c, 0, 79, 56
2, 75747, Note_off_c, 0, 79, 64
2, 75750, Note_on_c, 0, 81, 47
2, 75762, Note_off_c, 0, 81, 64
2, 75765, Note_on_c, 0, 79, 42
2, 75777, Note_off_c, 0, 79, 64
2, 75780, Note_on_c, 0, 81, 28
2, 75792, Note_off_c, 0, 81, 64
2, 75795, Note_on_c, 0, 79, 45
2, 75807, Note_off_c, 0, 79, 64
2, 75810, Note_on_c, 0, 81, 38
2, 75816, Note_off_c, 0, 64, 64
2, 75816, Note_off_c, 0, 60, 64
2, 75822, Note_off_c, 0, 81, 64
2, 75825, Note_on_c, 0, 79, 43
2, 75837, Note_off_c, 0, 79, 64
2, 75840, Note_on_c, 0, 79, 71
2, 75840, Note_on_c, 0, 55, 69
2, 75840, Note_on_c, 0, 62, 69
2, 75888, Note_off_c, 0, 79, 64
2, 75900, Note_on_c, 0, 77, 58
2, 75936, Note_off_c, 0, 62, 64
2, 75948, Note_off_c, 0, 77, 64
2, 75960, Note_on_c, 0, 86, 71
2, 75960, Note_on_c, 0, 59, 67
2, 76008, Note_off_c, 0, 86, 64
2, 76020, Note_on_c, 0, 77, 83
2, 76056, Note_off_c, 0, 59, 64
2, 76068, Note_off_c, 0, 77, 64
2, 76080, Note_on_c, 0, 60, 61
2, 76080, Note_on_c, 0, 76, 81
2, 76176, Note_off_c, 0, 76, 64
2, 76176, Note_off_c, 0, 60, 64
2, 76200, Note_on_c, 0, 64, 77
2, 76200, Note_on_c, 0, 84, 80
2, 76296, Note_off_c, 0, 84, 64
2, 76296, Note_off_c, 0, 55, 64
2, 76296, Note_off_c, 0, 64, 64
2, 76320, Note_on_c, 0, 79, 77
2, 76320, Note_on_c, 0, 62, 58
2, 76320, Note_on_c, 0, 55, 64
2, 76368, Note_off_c, 0, 79, 64
2, 76380, Note_on_c, 0, 77, 83
2, 76416, Note_off_c, 0, 62, 64
2, 76428, Note_off_c, 0, 77, 64
2, 76440, Note_on_c, 0, 86, 71
2, 76440, Note_on_c, 0, 59, 53
2, 76488, Note_off_c, 0, 86, 64
2, 76500, Note_on_c, 0, 77, 97
2, 76536, Note_off_c, 0, 59, 64
2, 76548, Note_off_c, 0, 77, 64
2, 76560, Note_on_c, 0, 60, 53
2, 76560, Note_on_c, 0, 76, 89
2, 76656, Note_off_c, 0, 76, 64
2, 76656, Note_off_c, 0, 60, 64
2, 76680, Note_on_c, 0, 64, 64
2, 76680, Note_on_c, 0, 84, 54
2, 76776, Note_off_c, 0, 84, 64
2, 76776, Note_off_c, 0, 64, 64
2, 76776, Note_off_c, 0, 55, 64
2, 76800, Note_on_c, 0, 62, 49
2, 76800, Note_on_c, 0, 55, 61
2, 76860, Note_on_c, 0, 77, 54
2, 76908, Note_off_c, 0, 77, 64
2, 76920, Note_on_c, 0, 86, 83
2, 76968, Note_off_c, 0, 86, 64
2, 76980, Note_on_c, 0, 77, 83
2, 76992, Note_off_c, 0, 55, 64
2, 76992, Note_off_c, 0, 62, 64
2, 77028, Note_off_c, 0, 77, 64
2, 77040, Note_on_c, 0, 55, 58
2, 77040, Note_on_c, 0, 60, 47
2, 77100, Note_on_c, 0, 76, 71
2, 77148, Note_off_c, 0, 76, 64
2, 77160, Note_on_c, 0, 84, 61
2, 77208, Note_off_c, 0, 84, 64
2, 77220, Note_on_c, 0, 76, 89
2, 77232, Note_off_c, 0, 60, 64
2, 77232, Note_off_c, 0, 55, 64
2, 77268, Note_off_c, 0, 76, 64
2, 77280, Note_on_c, 0, 55, 71
2, 77280, Note_on_c, 0, 60, 50
2, 77280, Note_on_c, 0, 77, 83
2, 77292, Note_off_c, 0, 77, 64
2, 77295, Note_on_c, 0, 76, 97
2, 77307, Note_off_c, 0, 76, 64
2, 77310, Note_on_c, 0, 77, 71
2, 77322, Note_off_c, 0, 77, 64
2, 77325, Note_on_c, 0, 76, 97
2, 77337, Note_off_c, 0, 76, 64
2, 77340, Note_on_c, 0, 77, 77
2, 77352, Note_off_c, 0, 77, 64
2, 77355, Note_on_c, 0, 76, 77
2, 77367, Note_off_c, 0, 76, 64
2, 77370, Note_on_c, 0, 77, 66
2, 77376, Note_off_c, 0, 60, 64
2, 77382, Note_off_c, 0, 77, 64
2, 77385, Note_on_c, 0, 76, 77
2, 77397, Note_off_c, 0, 76, 64
2, 77400, Note_on_c, 0, 59, 54
2, 77400, Note_on_c, 0, 74, 83
2, 77496, Note_off_c, 0, 74, 64
2, 77496, Note_off_c, 0, 55, 64
2, 77496, Note_off_c, 0, 59, 64
2, 77640, Note_on_c, 0, 72, 58
2, 77736, Note_off_c, 0, 72, 64
2, 77760, Note_on_c, 0, 72, 77
2, 77808, Note_off_c, 0, 72, 64
2, 77820, Note_on_c, 0, 71, 47
2, 77868, Note_off_c, 0, 71, 64
2, 77880, Note_on_c, 0, 74, 52
2, 77928, Note_off_c, 0, 74, 64
2, 77940, Note_on_c, 0, 72, 66
2, 77988, Note_off_c, 0, 72, 64
2, 78000, Note_on_c, 0, 76, 89
2, 78048, Note_off_c, 0, 76, 64
2, 78060, Note_on_c, 0, 72, 66
2, 78108, Note_off_c, 0, 72, 64
2, 78120, Note_on_c, 0, 71, 55
2, 78168, Note_off_c, 0, 71, 64
2, 78180, Note_on_c, 0, 72, 77
2, 78228, Note_off_c, 0, 72, 64
2, 78240, Note_on_c, 0, 64, 66
2, 78240, Note_on_c, 0, 67, 66
2, 78288, Note_off_c, 0, 67, 64
2, 78300, Note_on_c, 0, 72, 77
2, 78336, Note_off_c, 0, 64, 64
2, 78348, Note_off_c, 0, 72, 64
2, 78360, Note_on_c, 0, 69, 71
2, 78360, Note_on_c, 0, 65, 46
2, 78408, Note_off_c, 0, 69, 64
2, 78420, Note_on_c, 0, 72, 83
2, 78456, Note_off_c, 0, 65, 64
2, 78468, Note_off_c, 0, 72, 64
2, 78480, Note_on_c, 0, 64, 83
2, 78480, Note_on_c, 0, 67, 54
2, 78576, Note_off_c, 0, 67, 64
2, 78600, Note_on_c, 0, 72, 50
2, 78672, Note_off_c, 0, 64, 64
2, 78696, Note_off_c, 0, 72, 64
2, 78720, Note_on_c, 0, 72, 54
2, 78768, Note_off_c, 0, 72, 64
2, 78780, Note_on_c, 0, 71, 52
2, 78828, Note_off_c, 0, 71, 64
2, 78840, Note_on_c, 0, 74, 66
2, 78888, Note_off_c, 0, 74, 64
2, 78900, Note_on_c, 0, 72, 52
2, 78948, Note_off_c, 0, 72, 64
2, 78960, Note_on_c, 0, 76, 66
2, 79008, Note_off_c, 0, 76, 64
2, 79020, Note_on_c, 0, 72, 61
2, 79068, Note_off_c, 0, 72, 64
2, 79080, Note_on_c, 0, 71, 66
2, 79128, Note_off_c, 0, 71, 64
2, 79140, Note_on_c, 0, 72, 54
2, 79188, Note_off_c, 0, 72, 64
2, 79200, Note_on_c, 0, 67, 61
2, 79200, Note_on_c, 0, 52, 42
2, 79248, Note_off_c, 0, 67, 64
2, 79260, Note_on_c, 0, 72, 50
2, 79296, Note_off_c, 0, 52, 64
2, 79308, Note_off_c, 0, 72, 64
2, 79320, Note_on_c, 0, 50, 66
2, 79320, Note_on_c, 0, 65, 66
2, 79368, Note_off_c, 0, 65, 64
2, 79380, Note_on_c, 0, 72, 43
2, 79416, Note_off_c, 0, 50, 64
2, 79428, Note_off_c, 0, 72, 64
2, 79440, Note_on_c, 0, 48, 71
2, 79440, Note_on_c, 0, 64, 58
2, 79536, Note_off_c, 0, 64, 64
2, 79536, Note_off_c, 0, 48, 64
2, 79560, Note_on_c, 0, 52, 42
2, 79560, Note_on_c, 0, 67, 45
2, 79608, Note_off_c, 0, 67, 64
2, 79620, Note_on_c, 0, 72, 43
2, 79656, Note_off_c, 0, 52, 64
2, 79668, Note_off_c, 0, 72, 64
2, 79680, Note_on_c, 0, 69, 54
2, 79680, Note_on_c, 0, 53, 52
2, 79728, Note_off_c, 0, 69, 64
2, 79740, Note_on_c, 0, 72, 50
2, 79776, Note_off_c, 0, 53, 64
2, 79788, Note_off_c, 0, 72, 64
2, 79800, Note_on_c, 0, 55, 50
2, 79800, Note_on_c, 0, 67, 71
2, 79848, Note_off_c, 0, 67, 64
2, 79860, Note_on_c, 0, 72, 54
2, 79896, Note_off_c, 0, 55, 64
2, 79908, Note_off_c, 0, 72, 64
2, 79920, Note_on_c, 0, 57, 43
2, 79920, Note_on_c, 0, 65, 71
2, 79968, Note_off_c, 0, 65, 64
2, 79980, Note_on_c, 0, 69, 66
2, 80016, Note_off_c, 0, 57, 64
2, 80028, Note_off_c, 0, 69, 64
2, 80040, Note_on_c, 0, 54, 42
2, 80040, Note_on_c, 0, 74, 61
2, 80088, Note_off_c, 0, 74, 64
2, 80100, Note_on_c, 0, 72, 52
2, 80136, Note_off_c, 0, 54, 64
2, 80148, Note_off_c, 0, 72, 64
2, 80160, Note_on_c, 0, 71, 52
2, 80160, Note_on_c, 0, 55, 52
2, 80208, Note_off_c, 0, 71, 64
2, 80220, Note_on_c, 0, 74, 58
2, 80256, Note_off_c, 0, 55, 64
2, 80268, Note_off_c, 0, 74, 64
2, 80280, Note_on_c, 0, 57, 61
2, 80280, Note_on_c, 0, 69, 54
2, 80328, Note_off_c, 0, 69, 64
2, 80340, Note_on_c, 0, 74, 54
2, 80376, Note_off_c, 0, 57, 64
2, 80388, Note_off_c, 0, 74, 64
2, 80400, Note_on_c, 0, 59, 71
2, 80400, Note_on_c, 0, 67, 71
2, 80448, Note_off_c, 0, 67, 64
2, 80460, Note_on_c, 0, 71, 58
2, 80496, Note_off_c, 0, 59, 64
2, 80508, Note_off_c, 0, 71, 64
2, 80520, Note_on_c, 0, 56, 55
2, 80520, Note_on_c, 0, 76, 71
2, 80568, Note_off_c, 0, 76, 64
2, 80580, Note_on_c, 0, 74, 66
2, 80616, Note_off_c, 0, 56, 64
2, 80628, Note_off_c, 0, 74, 64
2, 80640, Note_on_c, 0, 72, 71
2, 80640, Note_on_c, 0, 57, 77
2, 80688, Note_off_c, 0, 72, 64
2, 80700, Note_on_c, 0, 76, 77
2, 80736, Note_off_c, 0, 57, 64
2, 80748, Note_off_c, 0, 76, 64
2, 80760, Note_on_c, 0, 59, 58
2, 80760, Note_on_c, 0, 71, 47
2, 80808, Note_off_c, 0, 71, 64
2, 80820, Note_on_c, 0, 76, 71
2, 80856, Note_off_c, 0, 59, 64
2, 80868, Note_off_c, 0, 76, 64
2, 80880, Note_on_c, 0, 60, 54
2, 80880, Note_on_c, 0, 69, 83
2, 80928, Note_off_c, 0, 69, 64
2, 80940, Note_on_c, 0, 72, 71
2, 80976, Note_off_c, 0, 60, 64
2, 80988, Note_off_c, 0, 72, 64
2, 81000, Note_on_c, 0, 57, 71
2, 81000, Note_on_c, 0, 77, 61
2, 81048, Note_off_c, 0, 77, 64
2, 81060, Note_on_c, 0, 76, 89
2, 81096, Note_off_c, 0, 57, 64
2, 81108, Note_off_c, 0, 76, 64
2, 81120, Note_on_c, 0, 74, 71
2, 81120, Note_on_c, 0, 59, 71
2, 81168, Note_off_c, 0, 74, 64
2, 81180, Note_on_c, 0, 77, 58
2, 81216, Note_off_c, 0, 59, 64
2, 81228, Note_off_c, 0, 77, 64
2, 81240, Note_on_c, 0, 60, 75
2, 81240, Note_on_c, 0, 72, 77
2, 81288, Note_off_c, 0, 72, 64
2, 81300, Note_on_c, 0, 77, 71
2, 81336, Note_off_c, 0, 60, 64
2, 81348, Note_off_c, 0, 77, 64
2, 81360, Note_on_c, 0, 62, 89
2, 81360, Note_on_c, 0, 71, 77
2, 81408, Note_off_c, 0, 71, 64
2, 81420, Note_on_c, 0, 74, 66
2, 81456, Note_off_c, 0, 62, 64
2, 81468, Note_off_c, 0, 74, 64
2, 81480, Note_on_c, 0, 59, 77
2, 81480, Note_on_c, 0, 79, 54
2, 81528, Note_off_c, 0, 79, 64
2, 81540, Note_on_c, 0, 77, 66
2, 81576, Note_off_c, 0, 59, 64
2, 81588, Note_off_c, 0, 77, 64
2, 81600, Note_on_c, 0, 76, 77
2, 81600, Note_on_c, 0, 60, 58
2, 81648, Note_off_c, 0, 76, 64
2, 81660, Note_on_c, 0, 79, 50
2, 81696, Note_off_c, 0, 60, 64
2, 81708, Note_off_c, 0, 79, 64
2, 81720, Note_on_c, 0, 52, 83
2, 81720, Note_on_c, 0, 72, 77
2, 81768, Note_off_c, 0, 72, 64
2, 81780, Note_on_c, 0, 74, 66
2, 81816, Note_off_c, 0, 52, 64
2, 81828, Note_off_c, 0, 74, 64
2, 81840, Note_on_c, 0, 53, 77
2, 81840, Note_on_c, 0, 76, 66
2, 81852, Note_off_c, 0, 76, 64
2, 81855, Note_on_c, 0, 74, 52
2, 81867, Note_off_c, 0, 74, 64
2, 81870, Note_on_c, 0, 76, 71
2, 81882, Note_off_c, 0, 76, 64
2, 81885, Note_on_c, 0, 74, 61
2, 81897, Note_off_c, 0, 74, 64
2, 81900, Note_on_c, 0, 76, 61
2, 81912, Note_off_c, 0, 76, 64
2, 81915, Note_on_c, 0, 74, 51
2, 81927, Note_off_c, 0, 74, 64
2, 81930, Note_on_c, 0, 76, 58
2, 81936, Note_off_c, 0, 53, 64
2, 81942, Note_off_c, 0, 76, 64
2, 81945, Note_on_c, 0, 74, 50
2, 81957, Note_off_c, 0, 74, 64
2, 81960, Note_on_c, 0, 55, 66
2, 81960, Note_on_c, 0, 76, 54
2, 81972, Note_off_c, 0, 76, 64
2, 81975, Note_on_c, 0, 74, 47
2, 81987, Note_off_c, 0, 74, 64
2, 81990, Note_on_c, 0, 76, 44
2, 82002, Note_off_c, 0, 76, 64
2, 82005, Note_on_c, 0, 74, 50
2, 82017, Note_off_c, 0, 74, 64
2, 82020, Note_on_c, 0, 76, 46
2, 82032, Note_off_c, 0, 76, 64
2, 82035, Note_on_c, 0, 74, 40
2, 82047, Note_off_c, 0, 74, 64
2, 82050, Note_on_c, 0, 76, 52
2, 82056, Note_off_c, 0, 55, 64
2, 82062, Note_off_c, 0, 76, 64
2, 82065, Note_on_c, 0, 74, 42
2, 82077, Note_off_c, 0, 74, 64
2, 82080, Note_on_c, 0, 48, 58
2, 82080, Note_on_c, 0, 72, 42
2, 82176, Note_off_c, 0, 48, 64
2, 82200, Note_on_c, 0, 60, 54
2, 82272, Note_off_c, 0, 72, 64
2, 82296, Note_off_c, 0, 60, 64
2, 82320, Note_on_c, 0, 48, 50
2, 82440, Note_on_c, 0, 75, 89
2, 82440, Note_on_c, 0, 79, 44
2, 82512, Note_off_c, 0, 48, 64
2, 82536, Note_off_c, 0, 79, 64
2, 82536, Note_off_c, 0, 75, 64
2, 82560, Note_on_c, 0, 80, 47
2, 82560, Note_on_c, 0, 77, 71
2, 82656, Note_off_c, 0, 77, 64
2, 82656, Note_off_c, 0, 80, 64
2, 82680, Note_on_c, 0, 48, 54
2, 82680, Note_on_c, 0, 60, 42
2, 82776, Note_off_c, 0, 60, 64
2, 82776, Note_off_c, 0, 48, 64
2, 82800, Note_on_c, 0, 50, 45
2, 82800, Note_on_c, 0, 62, 42
2, 82896, Note_off_c, 0, 62, 64
2, 82896, Note_off_c, 0, 50, 64
2, 82920, Note_on_c, 0, 75, 47
2, 82920, Note_on_c, 0, 79, 43
2, 83016, Note_off_c, 0, 79, 64
2, 83016, Note_off_c, 0, 75, 64
2, 83040, Note_on_c, 0, 74, 66
2, 83040, Note_on_c, 0, 77, 42
2, 83136, Note_off_c, 0, 77, 64
2, 83136, Note_off_c, 0, 74, 64
2, 83160, Note_on_c, 0, 48, 47
2, 83160, Note_on_c, 0, 60, 50
2, 83256, Note_off_c, 0, 60, 64
2, 83256, Note_off_c, 0, 48, 64
2, 83280, Note_on_c, 0, 47, 42
2, 83280, Note_on_c, 0, 59, 43
2, 83376, Note_off_c, 0, 59, 64
2, 83376, Note_off_c, 0, 47, 64
2, 83400, Note_on_c, 0, 74, 61
2, 83400, Note_on_c, 0, 77, 53
2, 83496, Note_off_c, 0, 77, 64
2, 83496, Note_off_c, 0, 74, 64
2, 83520, Note_on_c, 0, 75, 66
2, 83520, Note_on_c, 0, 79, 42
2, 83616, Note_off_c, 0, 79, 64
2, 83616, Note_off_c, 0, 75, 64
2, 83640, Note_on_c, 0, 47, 54
2, 83640, Note_on_c, 0, 59, 42
2, 83736, Note_off_c, 0, 59, 64
2, 83736, Note_off_c, 0, 47, 64
2, 83760, Note_on_c, 0, 48, 42
2, 83760, Note_on_c, 0, 60, 42
2, 83856, Note_off_c, 0, 60, 64
2, 83856, Note_off_c, 0, 48, 64
2, 83880, Note_on_c, 0, 74, 69
2, 83880, Note_on_c, 0, 77, 42
2, 83976, Note_off_c, 0, 77, 64
2, 83976, Note_off_c, 0, 74, 64
2, 84000, Note_on_c, 0, 75, 46
2, 84000, Note_on_c, 0, 72, 58
2, 84096, Note_off_c, 0, 72, 64
2, 84096, Note_off_c, 0, 75, 64
2, 84120, Note_on_c, 0, 58, 66
2, 84120, Note_on_c, 0, 46, 55
2, 84216, Note_off_c, 0, 46, 64
2, 84216, Note_off_c, 0, 58, 64
2, 84240, Note_on_c, 0, 56, 42
2, 84240, Note_on_c, 0, 44, 45
2, 84336, Note_off_c, 0, 44, 64
2, 84336, Note_off_c, 0, 56, 64
2, 84360, Note_on_c, 0, 74, 43
2, 84360, Note_on_c, 0, 71, 42
2, 84456, Note_off_c, 0, 71, 64
2, 84456, Note_off_c, 0, 74, 64
2, 84480, Note_on_c, 0, 75, 43
2, 84480, Note_on_c, 0, 72, 53
2, 84576, Note_off_c, 0, 72, 64
2, 84576, Note_off_c, 0, 75, 64
2, 84600, Note_on_c, 0, 55, 27
2, 84600, Note_on_c, 0, 43, 47
2, 84696, Note_off_c, 0, 43, 64
2, 84696, Note_off_c, 0, 55, 64
2, 84720, Note_on_c, 0, 54, 42
2, 84720, Note_on_c, 0, 42, 44
2, 84816, Note_off_c, 0, 42, 64
2, 84816, Note_off_c, 0, 54, 64
2, 84840, Note_on_c, 0, 54, 42
2, 84840, Note_on_c, 0, 42, 45
2, 84840, Note_on_c, 0, 75, 42
2, 84840, Note_on_c, 0, 72, 50
2, 84936, Note_off_c, 0, 72, 64
2, 84936, Note_off_c, 0, 75, 64
2, 84936, Note_off_c, 0, 42, 64
2, 84936, Note_off_c, 0, 54, 64
2, 84960, Note_on_c, 0, 72, 66
2, 84960, Note_on_c, 0, 55, 47
2, 84960, Note_on_c, 0, 75, 71
2, 85056, Note_off_c, 0, 75, 64
2, 85056, Note_off_c, 0, 55, 64
2, 85056, Note_off_c, 0, 72, 64
2, 85080, Note_on_c, 0, 43, 50
2, 85080, Note_on_c, 0, 74, 42
2, 85080, Note_on_c, 0, 71, 42
2, 85176, Note_off_c, 0, 71, 64
2, 85176, Note_off_c, 0, 74, 64
2, 85176, Note_off_c, 0, 43, 64
2, 85320, Note_on_c, 0, 67, 61
2, 85352, Note_off_c, 0, 67, 64
2, 85360, Note_on_c, 0, 69, 66
2, 85392, Note_off_c, 0, 69, 64
2, 85400, Note_on_c, 0, 71, 50
2, 85432, Note_off_c, 0, 71, 64
2, 85440, Note_on_c, 0, 52, 65
2, 85440, Note_on_c, 0, 48, 75
2, 85440, Note_on_c, 0, 72, 61
2, 85536, Note_off_c, 0, 72, 64
2, 85560, Note_on_c, 0, 72, 54
2, 85592, Note_off_c, 0, 72, 64
2, 85600, Note_on_c, 0, 74, 83
2, 85632, Note_off_c, 0, 74, 64
2, 85632, Note_off_c, 0, 48, 64
2, 85632, Note_off_c, 0, 52, 64
2, 85640, Note_on_c, 0, 76, 71
2, 85672, Note_off_c, 0, 76, 64
2, 85680, Note_on_c, 0, 72, 44
2, 85776, Note_off_c, 0, 72, 64
2, 85800, Note_on_c, 0, 76, 58
2, 85832, Note_off_c, 0, 76, 64
2, 85840, Note_on_c, 0, 77, 42
2, 85872, Note_off_c, 0, 77, 64
2, 85880, Note_on_c, 0, 79, 47
2, 85912, Note_off_c, 0, 79, 64
2, 85920, Note_on_c, 0, 76, 71
2, 86016, Note_off_c, 0, 76, 64
2, 86040, Note_on_c, 0, 79, 61
2, 86072, Note_off_c, 0, 79, 64
2, 86080, Note_on_c, 0, 81, 44
2, 86112, Note_off_c, 0, 81, 64
2, 86120, Note_on_c, 0, 83, 54
2, 86152, Note_off_c, 0, 83, 64
2, 86160, Note_on_c, 0, 84, 47
2, 86256, Note_off_c, 0, 84, 64
2, 86280, Note_on_c, 0, 60, 45
2, 86280, Note_on_c, 0, 52, 69
2, 86280, Note_on_c, 0, 79, 41
2, 86376, Note_off_c, 0, 79, 64
2, 86376, Note_off_c, 0, 52, 64
2, 86376, Note_off_c, 0, 60, 64
2, 86400, Note_on_c, 0, 60, 42
2, 86400, Note_on_c, 0, 53, 49
2, 86400, Note_on_c, 0, 81, 54
2, 86496, Note_off_c, 0, 81, 64
2, 86520, Note_on_c, 0, 84, 52
2, 86552, Note_off_c, 0, 84, 64
2, 86560, Note_on_c, 0, 81, 58
2, 86592, Note_off_c, 0, 81, 64
2, 86592, Note_off_c, 0, 53, 64
2, 86592, Note_off_c, 0, 60, 64
2, 86600, Note_on_c, 0, 77, 52
2, 86632, Note_off_c, 0, 77, 64
2, 86640, Note_on_c, 0, 55, 55
2, 86640, Note_on_c, 0, 60, 42
2, 86640, Note_on_c, 0, 76, 54
2, 86736, Note_off_c, 0, 76, 64
2, 86736, Note_off_c, 0, 60, 64
2, 86736, Note_off_c, 0, 55, 64
2, 86760, Note_on_c, 0, 55, 43
2, 86760, Note_on_c, 0, 59, 42
2, 86760, Note_on_c, 0, 76, 46
2, 86772, Note_off_c, 0, 76, 64
2, 86775, Note_on_c, 0, 74, 58
2, 86787, Note_off_c, 0, 74, 64
2, 86790, Note_on_c, 0, 76, 71
2, 86802, Note_off_c, 0, 76, 64
2, 86805, Note_on_c, 0, 74, 50
2, 86817, Note_off_c, 0, 74, 64
2, 86820, Note_on_c, 0, 76, 66
2, 86832, Note_off_c, 0, 76, 64
2, 86835, Note_on_c, 0, 74, 42
2, 86847, Note_off_c, 0, 74, 64
2, 86850, Note_on_c, 0, 76, 54
2, 86856, Note_off_c, 0, 59, 64
2, 86856, Note_off_c, 0, 55, 64
2, 86862, Note_off_c, 0, 76, 64
2, 86865, Note_on_c, 0, 74, 43
2, 86877, Note_off_c, 0, 74, 64
2, 86880, Note_on_c, 0, 60, 43
2, 86880, Note_on_c, 0, 72, 71
2, 86976, Note_off_c, 0, 60, 64
2, 87000, Note_on_c, 0, 55, 50
2, 87072, Note_off_c, 0, 72, 64
2, 87096, Note_off_c, 0, 55, 64
2, 87120, Note_on_c, 0, 48, 42
2, 87240, Note_on_c, 0, 67, 61
2, 87272, Note_off_c, 0, 67, 64
2, 87280, Note_on_c, 0, 69, 66
2, 87312, Note_off_c, 0, 69, 64
2, 87312, Note_off_c, 0, 48, 64
2, 87320, Note_on_c, 0, 71, 50
2, 87352, Note_off_c, 0, 71, 64
2, 87360, Note_on_c, 0, 52, 83
2, 87360, Note_on_c, 0, 48, 50
2, 87360, Note_on_c, 0, 72, 61
2, 87456, Note_off_c, 0, 72, 64
2, 87480, Note_on_c, 0, 72, 54
2, 87512, Note_off_c, 0, 72, 64
2, 87520, Note_on_c, 0, 74, 83
2, 87552, Note_off_c, 0, 74, 64
2, 87552, Note_off_c, 0, 48, 64
2, 87552, Note_off_c, 0, 52, 64
2, 87560, Note_on_c, 0, 76, 71
2, 87592, Note_off_c, 0, 76, 64
2, 87600, Note_on_c, 0, 72, 44
2, 87696, Note_off_c, 0, 72, 64
2, 87720, Note_on_c, 0, 76, 58
2, 87752, Note_off_c, 0, 76, 64
2, 87760, Note_on_c, 0, 77, 42
2, 87792, Note_off_c, 0, 77, 64
2, 87800, Note_on_c, 0, 79, 47
2, 87832, Note_off_c, 0, 79, 64
2, 87840, Note_on_c, 0, 76, 80
2, 87936, Note_off_c, 0, 76, 64
2, 87960, Note_on_c, 0, 52, 44
2, 87960, Note_on_c, 0, 67, 52
2, 87960, Note_on_c, 0, 40, 43
2, 88008, Note_off_c, 0, 67, 64
2, 88020, Note_on_c, 0, 79, 42
2, 88056, Note_off_c, 0, 40, 64
2, 88056, Note_off_c, 0, 52, 64
2, 88068, Note_off_c, 0, 79, 64
2, 88080, Note_on_c, 0, 52, 42
2, 88080, Note_on_c, 0, 40, 43
2, 88080, Note_on_c, 0, 67, 43
2, 88128, Note_off_c, 0, 67, 64
2, 88140, Note_on_c, 0, 79, 42
2, 88176, Note_off_c, 0, 40, 64
2, 88176, Note_off_c, 0, 52, 64
2, 88188, Note_off_c, 0, 79, 64
2, 88200, Note_on_c, 0, 52, 42
2, 88200, Note_on_c, 0, 40, 42
2, 88200, Note_on_c, 0, 67, 52
2, 88248, Note_off_c, 0, 67, 64
2, 88260, Note_on_c, 0, 79, 50
2, 88296, Note_off_c, 0, 40, 64
2, 88296, Note_off_c, 0, 52, 64
2, 88308, Note_off_c, 0, 79, 64
2, 88320, Note_on_c, 0, 41, 43
2, 88320, Note_on_c, 0, 69, 58
2, 88320, Note_on_c, 0, 53, 42
2, 88368, Note_off_c, 0, 69, 64
2, 88380, Note_on_c, 0, 79, 66
2, 88416, Note_off_c, 0, 53, 64
2, 88416, Note_off_c, 0, 41, 64
2, 88428, Note_off_c, 0, 79, 64
2, 88440, Note_on_c, 0, 69, 52
2, 88440, Note_on_c, 0, 41, 42
2, 88440, Note_on_c, 0, 53, 42
2, 88488, Note_off_c, 0, 69, 64
2, 88500, Note_on_c, 0, 79, 66
2, 88536, Note_off_c, 0, 53, 64
2, 88536, Note_off_c, 0, 41, 64
2, 88548, Note_off_c, 0, 79, 64
2, 88560, Note_on_c, 0, 50, 43
2, 88560, Note_on_c, 0, 38, 42
2, 88560, Note_on_c, 0, 69, 50
2, 88608, Note_off_c, 0, 69, 64
2, 88620, Note_on_c, 0, 77, 83
2, 88656, Note_off_c, 0, 38, 64
2, 88656, Note_off_c, 0, 50, 64
2, 88668, Note_off_c, 0, 77, 64
2, 88680, Note_on_c, 0, 50, 42
2, 88680, Note_on_c, 0, 38, 42
2, 88680, Note_on_c, 0, 69, 52
2, 88728, Note_off_c, 0, 69, 64
2, 88740, Note_on_c, 0, 77, 61
2, 88776, Note_off_c, 0, 38, 64
2, 88776, Note_off_c, 0, 50, 64
2, 88788, Note_off_c, 0, 77, 64
2, 88800, Note_on_c, 0, 47, 44
2, 88800, Note_on_c, 0, 67, 50
2, 88800, Note_on_c, 0, 35, 50
2, 88848, Note_off_c, 0, 67, 64
2, 88860, Note_on_c, 0, 77, 71
2, 88896, Note_off_c, 0, 35, 64
2, 88896, Note_off_c, 0, 47, 64
2, 88908, Note_off_c, 0, 77, 64
2, 88920, Note_on_c, 0, 67, 52
2, 88920, Note_on_c, 0, 47, 47
2, 88920, Note_on_c, 0, 35, 61
2, 88968, Note_off_c, 0, 67, 64
2, 88980, Note_on_c, 0, 77, 66
2, 89016, Note_off_c, 0, 35, 64
2, 89016, Note_off_c, 0, 47, 64
2, 89028, Note_off_c, 0, 77, 64
2, 89040, Note_on_c, 0, 48, 69
2, 89040, Note_on_c, 0, 36, 80
2, 89040, Note_on_c, 0, 67, 47
2, 89088, Note_off_c, 0, 67, 64
2, 89100, Note_on_c, 0, 76, 97
2, 89136, Note_off_c, 0, 36, 64
2, 89136, Note_off_c, 0, 48, 64
2, 89148, Note_off_c, 0, 76, 64
2, 89160, Note_on_c, 0, 48, 49
2, 89160, Note_on_c, 0, 36, 42
2, 89160, Note_on_c, 0, 67, 52
2, 89208, Note_off_c, 0, 67, 64
2, 89220, Note_on_c, 0, 76, 61
2, 89256, Note_off_c, 0, 36, 64
2, 89256, Note_off_c, 0, 48, 64
2, 89268, Note_off_c, 0, 76, 64
2, 89280, Note_on_c, 0, 41, 80
2, 89280, Note_on_c, 0, 65, 52
2, 89280, Note_on_c, 0, 53, 69
2, 89328, Note_off_c, 0, 65, 64
2, 89340, Note_on_c, 0, 74, 69
2, 89376, Note_off_c, 0, 53, 64
2, 89376, Note_off_c, 0, 41, 64
2, 89388, Note_off_c, 0, 74, 64
2, 89400, Note_on_c, 0, 65, 54
2, 89400, Note_on_c, 0, 41, 55
2, 89400, Note_on_c, 0, 53, 47
2, 89448, Note_off_c, 0, 65, 64
2, 89460, Note_on_c, 0, 74, 58
2, 89496, Note_off_c, 0, 53, 64
2, 89496, Note_off_c, 0, 41, 64
2, 89508, Note_off_c, 0, 74, 64
2, 89520, Note_on_c, 0, 55, 69
2, 89520, Note_on_c, 0, 43, 86
2, 89520, Note_on_c, 0, 62, 61
2, 89568, Note_off_c, 0, 62, 64
2, 89580, Note_on_c, 0, 71, 52
2, 89616, Note_off_c, 0, 43, 64
2, 89616, Note_off_c, 0, 55, 64
2, 89628, Note_off_c, 0, 71, 64
2, 89640, Note_on_c, 0, 43, 77
2, 89640, Note_on_c, 0, 55, 53
2, 89640, Note_on_c, 0, 62, 45
2, 89688, Note_off_c, 0, 62, 64
2, 89700, Note_on_c, 0, 71, 61
2, 89736, Note_off_c, 0, 55, 64
2, 89736, Note_off_c, 0, 43, 64
2, 89748, Note_off_c, 0, 71, 64
2, 89760, Note_on_c, 0, 36, 80
2, 89760, Note_on_c, 0, 48, 80
2, 89760, Note_on_c, 0, 72, 80
2, 89760, Note_on_c, 0, 64, 80
2, 90144, Note_off_c, 0, 64, 64
2, 90144, Note_off_c, 0, 72, 64
2, 90144, Note_off_c, 0, 48, 64
2, 90144, Note_off_c, 0, 36, 64
2, 90144, End_track
0, 0, End_of_file
