0, 0, Header, 1, 2, 240
1, 0, Start_track
1, 0, Time_signature, 3, 2, 24, 8
1, 0, Tempo, 491803
1, 5760, Time_signature, 3, 2, 24, 8
1, 5760, End_track
2, 0, Start_track
2, 0, Note_on_c, 0, 48, 56
2, 0, Note_on_c, 0, 72, 61
2, 0, Note_on_c, 0, 60, 42
2, 192, Note_off_c, 0, 60, 64
2, 192, Note_off_c, 0, 72, 64
2, 192, Note_off_c, 0, 48, 64
2, 240, Note_on_c, 0, 76, 61
2, 304, Note_off_c, 0, 76, 64
2, 320, Note_on_c, 0, 74, 77
2, 384, Note_off_c, 0, 74, 64
2, 400, Note_on_c, 0, 72, 66
2, 464, Note_off_c, 0, 72, 64
2, 480, Note_on_c, 0, 77, 75
2, 544, Note_off_c, 0, 77, 64
2, 560, Note_on_c, 0, 76, 77
2, 624, Note_off_c, 0, 76, 64
2, 640, Note_on_c, 0, 74, 71
2, 704, Note_off_c, 0, 74, 64
2, 720, Note_on_c, 0, 64, 89
2, 720, Note_on_c, 0, 79, 42
2, 912, Note_off_c, 0, 79, 64
2, 912, Note_off_c, 0, 64, 64
2, 960, Note_on_c, 0, 76, 47
2, 960, Note_on_c, 0, 60, 66
2, 1152, Note_off_c, 0, 60, 64
2, 1152, Note_off_c, 0, 76, 64
2, 1200, Note_on_c, 0, 62, 61
2, 1200, Note_on_c, 0, 55, 89
2, 1200, Note_on_c, 0, 79, 43
2, 1248, Note_off_c, 0, 79, 64
2, 1260, Note_on_c, 0, 77, 81
2, 1308, Note_off_c, 0, 77, 64
2, 1320, Note_on_c, 0, 76, 77
2, 1368, Note_off_c, 0, 76, 64
2, 1380, Note_on_c, 0, 74, 89
2, 1392, Note_off_c, 0, 55, 64
2, 1392, Note_off_c, 0, 62, 64
2, 1428, Note_off_c, 0, 74, 64
2, 1440, Note_on_c, 0, 60, 77
2, 1440, Note_on_c, 0, 72, 42
2, 1632, Note_off_c, 0, 72, 64
2, 1632, Note_off_c, 0, 60, 64
2, 1680, Note_on_c, 0, 64, 83
2, 1680, Note_on_c, 0, 84, 42
2, 1872, Note_off_c, 0, 84, 64
2, 1872, Note_off_c, 0, 64, 64
2, 1920, Note_on_c, 0, 65, 58
2, 1920, Note_on_c, 0, 81, 71
2, 2112, Note_off_c, 0, 81, 64
2, 2112, Note_off_c, 0, 65, 64
2, 2160, Note_on_c, 0, 60, 61
2, 2160, Note_on_c, 0, 65, 44
2, 2160, Note_on_c, 0, 83, 50
2, 2172, Note_off_c, 0, 83, 64
2, 2175, Note_on_c, 0, 81, 58
2, 2187, Note_off_c, 0, 81, 64
2, 2190, Note_on_c, 0, 83, 52
2, 2202, Note_off_c, 0, 83, 64
2, 2205, Note_on_c, 0, 81, 58
2, 2217, Note_off_c, 0, 81, 64
2, 2220, Note_on_c, 0, 83, 43
2, 2232, Note_off_c, 0, 83, 64
2, 2235, Note_on_c, 0, 81, 58
2, 2247, Note_off_c, 0, 81, 64
2, 2250, Note_on_c, 0, 83, 43
2, 2262, Note_off_c, 0, 83, 64
2, 2265, Note_on_c, 0, 81, 57
2, 2277, Note_off_c, 0, 81, 64
2, 2280, Note_on_c, 0, 83, 50
2, 2292, Note_off_c, 0, 83, 64
2, 2295, Note_on_c, 0, 81, 58
2, 2307, Note_off_c, 0, 81, 64
2, 2310, Note_on_c, 0, 83, 54
2, 2322, Note_off_c, 0, 83, 64
2, 2325, Note_on_c, 0, 81, 66
2, 2337, Note_off_c, 0, 81, 64
2, 2340, Note_on_c, 0, 83, 50
2, 2352, Note_off_c, 0, 83, 64
2, 2352, Note_off_c, 0, 65, 64
2, 2355, Note_on_c, 0, 81, 45
2, 2367, Note_off_c, 0, 81, 64
2, 2370, Note_on_c, 0, 83, 43
2, 2382, Note_off_c, 0, 83, 64
2, 2385, Note_on_c, 0, 81, 54
2, 2397, Note_off_c, 0, 81, 64
2, 2400, Note_on_c, 0, 64, 50
2, 2400, Note_on_c, 0, 79, 66
2, 2592, Note_off_c, 0, 79, 64
2, 2592, Note_off_c, 0, 64, 64
2, 2592, Note_off_c, 0, 60, 64
2, 2880, Note_on_c, 0, 59, 80
2, 2944, Note_off_c, 0, 59, 64
2, 2960, Note_on_c, 0, 62, 80
2, 3024, Note_off_c, 0, 62, 64
2, 3040, Note_on_c, 0, 67, 80
2, 3104, Note_off_c, 0, 67, 64
2, 3120, Note_on_c, 0, 59, 80
2, 3200, Note_on_c, 0, 74, 80
2, 3264, Note_off_c, 0, 74, 64
2, 3280, Note_on_c, 0, 76, 80
2, 3312, Note_off_c, 0, 59, 64
2, 3344, Note_off_c, 0, 76, 64
2, 3360, Note_on_c, 0, 77, 77
2, 3424, Note_off_c, 0, 77, 64
2, 3440, Note_on_c, 0, 76, 81
2, 3504, Note_off_c, 0, 76, 64
2, 3520, Note_on_c, 0, 74, 71
2, 3584, Note_off_c, 0, 74, 64
2, 3600, Note_on_c, 0, 76, 80
2, 3600, Note_on_c, 0, 60, 80
2, 3664, Note_off_c, 0, 60, 64
2, 3680, Note_on_c, 0, 64, 80
2, 3744, Note_off_c, 0, 64, 64
2, 3760, Note_on_c, 0, 67, 80
2, 3792, Note_off_c, 0, 76, 64
2, 3824, Note_off_c, 0, 67, 64
2, 3840, Note_on_c, 0, 60, 80
2, 3920, Note_on_c, 0, 76, 80
2, 3984, Note_off_c, 0, 76, 64
2, 4000, Note_on_c, 0, 77, 80
2, 4032, Note_off_c, 0, 60, 64
2, 4064, Note_off_c, 0, 77, 64
2, 4080, Note_on_c, 0, 79, 71
2, 4144, Note_off_c, 0, 79, 64
2, 4160, Note_on_c, 0, 77, 83
2, 4224, Note_off_c, 0, 77, 64
2, 4240, Note_on_c, 0, 76, 77
2, 4304, Note_off_c, 0, 76, 64
2, 4320, Note_on_c, 0, 65, 42
2, 4320, Note_on_c, 0, 53, 43
2, 4320, Note_on_c, 0, 74, 97
2, 4384, Note_off_c, 0, 74, 64
2, 4400, Note_on_c, 0, 76, 83
2, 4464, Note_off_c, 0, 76, 64
2, 4480, Note_on_c, 0, 77, 89
2, 4512, Note_off_c, 0, 53, 64
2, 4512, Note_off_c, 0, 65, 64
2, 4544, Note_off_c, 0, 77, 64
2, 4560, Note_on_c, 0, 64, 50
2, 4560, Note_on_c, 0, 55, 77
2, 4560, Note_on_c, 0, 72, 58
2, 4752, Note_off_c, 0, 72, 64
2, 4752, Note_off_c, 0, 55, 64
2, 4752, Note_off_c, 0, 64, 64
2, 4800, Note_on_c, 0, 62, 50
2, 4800, Note_on_c, 0, 55, 60
2, 4800, Note_on_c, 0, 71, 83
2, 4992, Note_off_c, 0, 71, 64
2, 4992, Note_off_c, 0, 55, 64
2, 4992, Note_off_c, 0, 62, 64
2, 5040, Note_on_c, 0, 60, 54
2, 5040, Note_on_c, 0, 72, 52
2, 5232, Note_off_c, 0, 60, 64
2, 5280, Note_on_c, 0, 55, 77
2, 5424, Note_off_c, 0, 72, 64
2, 5472, Note_off_c, 0, 55, 64
2, 5520, Note_on_c, 0, 48, 89
2, 5712, Note_off_c, 0, 48, 64
2, 5760, Note_on_c, 0, 48, 56
2, 5760, Note_on_c, 0, 72, 61
2, 5760, Note_on_c, 0, 60, 42
2, 5952, Note_off_c, 0, 60, 64
2, 5952, Note_off_c, 0, 72, 64
2, 5952, Note_off_c, 0, 48, 64
2, 6000, Note_on_c, 0, 76, 61
2, 6064, Note_off_c, 0, 76, 64
2, 6080, Note_on_c, 0, 74, 77
2, 6144, Note_off_c, 0, 74, 64
2, 6160, Note_on_c, 0, 72, 66
2, 6224, Note_off_c, 0, 72, 64
2, 6240, Note_on_c, 0, 77, 75
2, 6304, Note_off_c, 0, 77, 64
2, 6320, Note_on_c, 0, 76, 77
2, 6384, Note_off_c, 0, 76, 64
2, 6400, Note_on_c, 0, 74, 71
2, 6464, Note_off_c, 0, 74, 64
2, 6480, Note_on_c, 0, 64, 89
2, 6480, Note_on_c, 0, 79, 42
2, 6672, Note_off_c, 0, 79, 64
2, 6672, Note_off_c, 0, 64, 64
2, 6720, Note_on_c, 0, 76, 47
2, 6720, Note_on_c, 0, 60, 66
2, 6912, Note_off_c, 0, 60, 64
2, 6912, Note_off_c, 0, 76, 64
2, 6960, Note_on_c, 0, 62, 61
2, 6960, Note_on_c, 0, 55, 89
2, 6960, Note_on_c, 0, 79, 43
2, 7008, Note_off_c, 0, 79, 64
2, 7020, Note_on_c, 0, 77, 81
2, 7068, Note_off_c, 0, 77, 64
2, 7080, Note_on_c, 0, 76, 77
2, 7128, Note_off_c, 0, 76, 64
2, 7140, Note_on_c, 0, 74, 89
2, 7152, Note_off_c, 0, 55, 64
2, 7152, Note_off_c, 0, 62, 64
2, 7188, Note_off_c, 0, 74, 64
2, 7200, Note_on_c, 0, 60, 77
2, 7200, Note_on_c, 0, 72, 42
2, 7392, Note_off_c, 0, 72, 64
2, 7392, Note_off_c, 0, 60, 64
2, 7440, Note_on_c, 0, 64, 83
2, 7440, Note_on_c, 0, 84, 42
2, 7632, Note_off_c, 0, 84, 64
2, 7632, Note_off_c, 0, 64, 64
2, 7680, Note_on_c, 0, 65, 58
2, 7680, Note_on_c, 0, 81, 71
2, 7872, Note_off_c, 0, 81, 64
2, 7872, Note_off_c, 0, 65, 64
2, 7920, Note_on_c, 0, 60, 61
2, 7920, Note_on_c, 0, 65, 44
2, 7920, Note_on_c, 0, 83, 50
2, 7932, Note_off_c, 0, 83, 64
2, 7935, Note_on_c, 0, 81, 58
2, 7947, Note_off_c, 0, 81, 64
2, 7950, Note_on_c, 0, 83, 52
2, 7962, Note_off_c, 0, 83, 64
2, 7965, Note_on_c, 0, 81, 58
2, 7977, Note_off_c, 0, 81, 64
2, 7980, Note_on_c, 0, 83, 43
2, 7992, Note_off_c, 0, 83, 64
2, 7995, Note_on_c, 0, 81, 58
2, 8007, Note_off_c, 0, 81, 64
2, 8010, Note_on_c, 0, 83, 43
2, 8022, Note_off_c, 0, 83, 64
2, 8025, Note_on_c, 0, 81, 57
2, 8037, Note_off_c, 0, 81, 64
2, 8040, Note_on_c, 0, 83, 50
2, 8052, Note_off_c, 0, 83, 64
2, 8055, Note_on_c, 0, 81, 58
2, 8067, Note_off_c, 0, 81, 64
2, 8070, Note_on_c, 0, 83, 54
2, 8082, Note_off_c, 0, 83, 64
2, 8085, Note_on_c, 0, 81, 66
2, 8097, Note_off_c, 0, 81, 64
2, 8100, Note_on_c, 0, 83, 50
2, 8112, Note_off_c, 0, 83, 64
2, 8112, Note_off_c, 0, 65, 64
2, 8115, Note_on_c, 0, 81, 45
2, 8127, Note_off_c, 0, 81, 64
2, 8130, Note_on_c, 0, 83, 43
2, 8142, Note_off_c, 0, 83, 64
2, 8145, Note_on_c, 0, 81, 54
2, 8157, Note_off_c, 0, 81, 64
2, 8160, Note_on_c, 0, 64, 50
2, 8160, Note_on_c, 0, 79, 66
2, 8352, Note_off_c, 0, 79, 64
2, 8352, Note_off_c, 0, 64, 64
2, 8352, Note_off_c, 0, 60, 64
2, 8640, Note_on_c, 0, 59, 80
2, 8704, Note_off_c, 0, 59, 64
2, 8720, Note_on_c, 0, 62, 80
2, 8784, Note_off_c, 0, 62, 64
2, 8800, Note_on_c, 0, 67, 80
2, 8864, Note_off_c, 0, 67, 64
2, 8880, Note_on_c, 0, 59, 80
2, 8960, Note_on_c, 0, 74, 80
2, 9024, Note_off_c, 0, 74, 64
2, 9040, Note_on_c, 0, 76, 80
2, 9072, Note_off_c, 0, 59, 64
2, 9104, Note_off_c, 0, 76, 64
2, 9120, Note_on_c, 0, 77, 77
2, 9184, Note_off_c, 0, 77, 64
2, 9200, Note_on_c, 0, 76, 81
2, 9264, Note_off_c, 0, 76, 64
2, 9280, Note_on_c, 0, 74, 71
2, 9344, Note_off_c, 0, 74, 64
2, 9360, Note_on_c, 0, 76, 80
2, 9360, Note_on_c, 0, 60, 80
2, 9424, Note_off_c, 0, 60, 64
2, 9440, Note_on_c, 0, 64, 80
2, 9504, Note_off_c, 0, 64, 64
2, 9520, Note_on_c, 0, 67, 80
2, 9552, Note_off_c, 0, 76, 64
2, 9584, Note_off_c, 0, 67, 64
2, 9600, Note_on_c, 0, 60, 80
2, 9680, Note_on_c, 0, 76, 80
2, 9744, Note_off_c, 0, 76, 64
2, 9760, Note_on_c, 0, 77, 80
2, 9792, Note_off_c, 0, 60, 64
2, 9824, Note_off_c, 0, 77, 64
2, 9840, Note_on_c, 0, 79, 71
2, 9904, Note_off_c, 0, 79, 64
2, 9920, Note_on_c, 0, 77, 83
2, 9984, Note_off_c, 0, 77, 64
2, 10000, Note_on_c, 0, 76, 77
2, 10064, Note_off_c, 0, 76, 64
2, 10080, Note_on_c, 0, 65, 42
2, 10080, Note_on_c, 0, 53, 43
2, 10080, Note_on_c, 0, 74, 97
2, 10144, Note_off_c, 0, 74, 64
2, 10160, Note_on_c, 0, 76, 83
2, 10224, Note_off_c, 0, 76, 64
2, 10240, Note_on_c, 0, 77, 89
2, 10272, Note_off_c, 0, 53, 64
2, 10272, Note_off_c, 0, 65, 64
2, 10304, Note_off_c, 0, 77, 64
2, 10320, Note_on_c, 0, 64, 50
2, 10320, Note_on_c, 0, 55, 77
2, 10320, Note_on_c, 0, 72, 58
2, 10512, Note_off_c, 0, 72, 64
2, 10512, Note_off_c, 0, 55, 64
2, 10512, Note_off_c, 0, 64, 64
2, 10560, Note_on_c, 0, 62, 50
2, 10560, Note_on_c, 0, 55, 60
2, 10560, Note_on_c, 0, 71, 83
2, 10752, Note_off_c, 0, 71, 64
2, 10752, Note_off_c, 0, 55, 64
2, 10752, Note_off_c, 0, 62, 64
2, 10800, Note_on_c, 0, 60, 54
2, 10800, Note_on_c, 0, 72, 52
2, 10992, Note_off_c, 0, 60, 64
2, 11040, Note_on_c, 0, 55, 77
2, 11184, Note_off_c, 0, 72, 64
2, 11232, Note_off_c, 0, 55, 64
2, 11280, Note_on_c, 0, 48, 89
2, 11472, Note_off_c, 0, 48, 64
2, 11520, Note_on_c, 0, 60, 58
2, 11520, Note_on_c, 0, 48, 74
2, 11520, Note_on_c, 0, 76, 61
2, 11616, Note_off_c, 0, 76, 64
2, 11640, Note_on_c, 0, 84, 69
2, 11712, Note_off_c, 0, 48, 64
2, 11712, Note_off_c, 0, 60, 64
2, 11736, Note_off_c, 0, 84, 64
2, 11760, Note_on_c, 0, 76, 75
2, 11824, Note_off_c, 0, 76, 64
2, 11840, Note_on_c, 0, 78, 89
2, 11904, Note_off_c, 0, 78, 64
2, 11920, Note_on_c, 0, 79, 81
2, 11984, Note_off_c, 0, 79, 64
2, 12000, Note_on_c, 0, 48, 77
2, 12000, Note_on_c, 0, 60, 53
2, 12000, Note_on_c, 0, 78, 97
2, 12064, Note_off_c, 0, 78, 64
2, 12080, Note_on_c, 0, 79, 71
2, 12144, Note_off_c, 0, 79, 64
2, 12160, Note_on_c, 0, 81, 83
2, 12192, Note_off_c, 0, 60, 64
2, 12192, Note_off_c, 0, 48, 64
2, 12224, Note_off_c, 0, 81, 64
2, 12240, Note_on_c, 0, 47, 71
2, 12240, Note_on_c, 0, 79, 81
2, 12240, Note_on_c, 0, 59, 45
2, 12336, Note_off_c, 0, 79, 64
2, 12360, Note_on_c, 0, 83, 77
2, 12456, Note_off_c, 0, 83, 64
2, 12480, Note_on_c, 0, 74, 71
2, 12528, Note_off_c, 0, 59, 64
2, 12528, Note_off_c, 0, 47, 64
2, 12600, Note_on_c, 0, 59, 43
2, 12672, Note_off_c, 0, 74, 64
2, 12696, Note_off_c, 0, 59, 64
2, 12720, Note_on_c, 0, 57, 83
2, 12816, Note_off_c, 0, 57, 64
2, 12840, Note_on_c, 0, 55, 77
2, 12936, Note_off_c, 0, 55, 64
2, 12960, Note_on_c, 0, 57, 58
2, 12960, Note_on_c, 0, 72, 54
2, 13056, Note_off_c, 0, 72, 64
2, 13080, Note_on_c, 0, 81, 42
2, 13152, Note_off_c, 0, 57, 64
2, 13176, Note_off_c, 0, 81, 64
2, 13200, Note_on_c, 0, 69, 77
2, 13200, Note_on_c, 0, 54, 58
2, 13264, Note_off_c, 0, 69, 64
2, 13280, Note_on_c, 0, 71, 83
2, 13344, Note_off_c, 0, 71, 64
2, 13360, Note_on_c, 0, 72, 97
2, 13392, Note_off_c, 0, 54, 64
2, 13424, Note_off_c, 0, 72, 64
2, 13440, Note_on_c, 0, 55, 77
2, 13440, Note_on_c, 0, 71, 71
2, 13504, Note_off_c, 0, 71, 64
2, 13520, Note_on_c, 0, 72, 97
2, 13584, Note_off_c, 0, 72, 64
2, 13600, Note_on_c, 0, 74, 97
2, 13632, Note_off_c, 0, 55, 64
2, 13664, Note_off_c, 0, 74, 64
2, 13680, Note_on_c, 0, 57, 83
2, 13680, Note_on_c, 0, 74, 83
2, 13872, Note_off_c, 0, 74, 64
2, 13872, Note_off_c, 0, 57, 64
2, 13920, Note_on_c, 0, 50, 83
2, 13920, Note_on_c, 0, 72, 89
2, 14112, Note_off_c, 0, 72, 64
2, 14112, Note_off_c, 0, 50, 64
2, 14160, Note_on_c, 0, 55, 66
2, 14160, Note_on_c, 0, 71, 66
2, 14352, Note_off_c, 0, 71, 64
2, 14352, Note_off_c, 0, 55, 64
2, 14400, Note_on_c, 0, 48, 83
2, 14464, Note_off_c, 0, 48, 64
2, 14480, Note_on_c, 0, 52, 97
2, 14544, Note_off_c, 0, 52, 64
2, 14560, Note_on_c, 0, 55, 77
2, 14624, Note_off_c, 0, 55, 64
2, 14640, Note_on_c, 0, 48, 89
2, 14720, Note_on_c, 0, 76, 89
2, 14784, Note_off_c, 0, 76, 64
2, 14800, Note_on_c, 0, 78, 57
2, 14832, Note_off_c, 0, 48, 64
2, 14864, Note_off_c, 0, 78, 64
2, 14880, Note_on_c, 0, 79, 71
2, 14944, Note_off_c, 0, 79, 64
2, 14960, Note_on_c, 0, 78, 71
2, 15024, Note_off_c, 0, 78, 64
2, 15040, Note_on_c, 0, 76, 75
2, 15104, Note_off_c, 0, 76, 64
2, 15120, Note_on_c, 0, 74, 89
2, 15120, Note_on_c, 0, 47, 42
2, 15184, Note_off_c, 0, 47, 64
2, 15200, Note_on_c, 0, 50, 43
2, 15264, Note_off_c, 0, 50, 64
2, 15280, Note_on_c, 0, 55, 58
2, 15312, Note_off_c, 0, 74, 64
2, 15344, Note_off_c, 0, 55, 64
2, 15360, Note_on_c, 0, 47, 77
2, 15440, Note_on_c, 0, 78, 71
2, 15504, Note_off_c, 0, 78, 64
2, 15520, Note_on_c, 0, 79, 61
2, 15552, Note_off_c, 0, 47, 64
2, 15584, Note_off_c, 0, 79, 64
2, 15600, Note_on_c, 0, 81, 54
2, 15664, Note_off_c, 0, 81, 64
2, 15680, Note_on_c, 0, 78, 89
2, 15744, Note_off_c, 0, 78, 64
2, 15760, Note_on_c, 0, 79, 61
2, 15824, Note_off_c, 0, 79, 64
2, 15840, Note_on_c, 0, 48, 75
2, 15840, Note_on_c, 0, 76, 89
2, 15840, Note_on_c, 0, 55, 54
2, 15904, Note_off_c, 0, 76, 64
2, 15920, Note_on_c, 0, 74, 89
2, 15984, Note_off_c, 0, 74, 64
2, 16000, Note_on_c, 0, 72, 95
2, 16032, Note_off_c, 0, 55, 64
2, 16032, Note_off_c, 0, 48, 64
2, 16064, Note_off_c, 0, 72, 64
2, 16080, Note_on_c, 0, 50, 75
2, 16080, Note_on_c, 0, 55, 74
2, 16080, Note_on_c, 0, 71, 77
2, 16272, Note_off_c, 0, 71, 64
2, 16272, Note_off_c, 0, 55, 64
2, 16320, Note_on_c, 0, 54, 65
2, 16320, Note_on_c, 0, 71, 54
2, 16332, Note_off_c, 0, 71, 64
2, 16335, Note_on_c, 0, 69, 12
2, 16347, Note_off_c, 0, 69, 64
2, 16350, Note_on_c, 0, 71, 43
2, 16362, Note_off_c, 0, 71, 64
2, 16365, Note_on_c, 0, 69, 44
2, 16377, Note_off_c, 0, 69, 64
2, 16380, Note_on_c, 0, 71, 50
2, 16392, Note_off_c, 0, 71, 64
2, 16395, Note_on_c, 0, 69, 43
2, 16407, Note_off_c, 0, 69, 64
2, 16410, Note_on_c, 0, 71, 54
2, 16422, Note_off_c, 0, 71, 64
2, 16425, Note_on_c, 0, 69, 52
2, 16437, Note_off_c, 0, 69, 64
2, 16440, Note_on_c, 0, 71, 50
2, 16452, Note_off_c, 0, 71, 64
2, 16455, Note_on_c, 0, 69, 47
2, 16467, Note_off_c, 0, 69, 64
2, 16470, Note_on_c, 0, 71, 44
2, 16482, Note_off_c, 0, 71, 64
2, 16485, Note_on_c, 0, 69, 52
2, 16497, Note_off_c, 0, 69, 64
2, 16500, Note_on_c, 0, 71, 47
2, 16512, Note_off_c, 0, 71, 64
2, 16512, Note_off_c, 0, 50, 64
2, 16512, Note_off_c, 0, 54, 64
2, 16515, Note_on_c, 0, 69, 42
2, 16527, Note_off_c, 0, 69, 64
2, 16530, Note_on_c, 0, 67, 66
2, 16542, Note_off_c, 0, 67, 64
2, 16545, Note_on_c, 0, 69, 25
2, 16557, Note_off_c, 0, 69, 64
2, 16560, Note_on_c, 0, 55, 61
2, 16560, Note_on_c, 0, 67, 106
2, 16752, Note_off_c, 0, 55, 64
2, 16800, Note_on_c, 0, 50, 83
2, 16944, Note_off_c, 0, 67, 64
2, 16992, Note_off_c, 0, 50, 64
2, 17040, Note_on_c, 0, 43, 61
2, 17232, Note_off_c, 0, 43, 64
2, 17280, Note_on_c, 0, 72, 61
2, 17280, Note_on_c, 0, 60, 42
2, 17280, Note_on_c, 0, 48, 56
2, 17472, Note_off_c, 0, 48, 64
2, 17472, Note_off_c, 0, 60, 64
2, 17472, Note_off_c, 0, 72, 64
2, 17520, Note_on_c, 0, 76, 61
2, 17584, Note_off_c, 0, 76, 64
2, 17600, Note_on_c, 0, 74, 77
2, 17664, Note_off_c, 0, 74, 64
2, 17680, Note_on_c, 0, 72, 66
2, 17744, Note_off_c, 0, 72, 64
2, 17760, Note_on_c, 0, 77, 75
2, 17824, Note_off_c, 0, 77, 64
2, 17840, Note_on_c, 0, 76, 77
2, 17904, Note_off_c, 0, 76, 64
2, 17920, Note_on_c, 0, 74, 71
2, 17984, Note_off_c, 0, 74, 64
2, 18000, Note_on_c, 0, 79, 42
2, 18000, Note_on_c, 0, 64, 89
2, 18192, Note_off_c, 0, 64, 64
2, 18192, Note_off_c, 0, 79, 64
2, 18240, Note_on_c, 0, 60, 66
2, 18240, Note_on_c, 0, 76, 47
2, 18432, Note_off_c, 0, 76, 64
2, 18432, Note_off_c, 0, 60, 64
2, 18480, Note_on_c, 0, 62, 61
2, 18480, Note_on_c, 0, 55, 89
2, 18480, Note_on_c, 0, 79, 43
2, 18528, Note_off_c, 0, 79, 64
2, 18540, Note_on_c, 0, 77, 81
2, 18588, Note_off_c, 0, 77, 64
2, 18600, Note_on_c, 0, 76, 77
2, 18648, Note_off_c, 0, 76, 64
2, 18660, Note_on_c, 0, 74, 89
2, 18672, Note_off_c, 0, 55, 64
2, 18672, Note_off_c, 0, 62, 64
2, 18708, Note_off_c, 0, 74, 64
2, 18720, Note_on_c, 0, 60, 77
2, 18720, Note_on_c, 0, 72, 42
2, 18912, Note_off_c, 0, 72, 64
2, 18912, Note_off_c, 0, 60, 64
2, 18960, Note_on_c, 0, 64, 83
2, 18960, Note_on_c, 0, 84, 42
2, 19152, Note_off_c, 0, 84, 64
2, 19152, Note_off_c, 0, 64, 64
2, 19200, Note_on_c, 0, 65, 58
2, 19200, Note_on_c, 0, 81, 71
2, 19392, Note_off_c, 0, 81, 64
2, 19392, Note_off_c, 0, 65, 64
2, 19440, Note_on_c, 0, 60, 61
2, 19440, Note_on_c, 0, 65, 44
2, 19440, Note_on_c, 0, 83, 50
2, 19452, Note_off_c, 0, 83, 64
2, 19455, Note_on_c, 0, 81, 58
2, 19467, Note_off_c, 0, 81, 64
2, 19470, Note_on_c, 0, 83, 52
2, 19482, Note_off_c, 0, 83, 64
2, 19485, Note_on_c, 0, 81, 58
2, 19497, Note_off_c, 0, 81, 64
2, 19500, Note_on_c, 0, 83, 43
2, 19512, Note_off_c, 0, 83, 64
2, 19515, Note_on_c, 0, 81, 58
2, 19527, Note_off_c, 0, 81, 64
2, 19530, Note_on_c, 0, 83, 43
2, 19542, Note_off_c, 0, 83, 64
2, 19545, Note_on_c, 0, 81, 57
2, 19557, Note_off_c, 0, 81, 64
2, 19560, Note_on_c, 0, 83, 50
2, 19572, Note_off_c, 0, 83, 64
2, 19575, Note_on_c, 0, 81, 58
2, 19587, Note_off_c, 0, 81, 64
2, 19590, Note_on_c, 0, 83, 54
2, 19602, Note_off_c, 0, 83, 64
2, 19605, Note_on_c, 0, 81, 66
2, 19617, Note_off_c, 0, 81, 64
2, 19620, Note_on_c, 0, 83, 50
2, 19632, Note_off_c, 0, 83, 64
2, 19632, Note_off_c, 0, 65, 64
2, 19635, Note_on_c, 0, 81, 45
2, 19647, Note_off_c, 0, 81, 64
2, 19650, Note_on_c, 0, 83, 43
2, 19662, Note_off_c, 0, 83, 64
2, 19665, Note_on_c, 0, 81, 54
2, 19677, Note_off_c, 0, 81, 64
2, 19680, Note_on_c, 0, 64, 50
2, 19680, Note_on_c, 0, 79, 66
2, 19872, Note_off_c, 0, 79, 64
2, 19872, Note_off_c, 0, 64, 64
2, 19872, Note_off_c, 0, 60, 64
2, 20160, Note_on_c, 0, 59, 80
2, 20224, Note_off_c, 0, 59, 64
2, 20240, Note_on_c, 0, 62, 80
2, 20304, Note_off_c, 0, 62, 64
2, 20320, Note_on_c, 0, 67, 80
2, 20384, Note_off_c, 0, 67, 64
2, 20400, Note_on_c, 0, 59, 80
2, 20480, Note_on_c, 0, 74, 80
2, 20544, Note_off_c, 0, 74, 64
2, 20560, Note_on_c, 0, 76, 80
2, 20592, Note_off_c, 0, 59, 64
2, 20624, Note_off_c, 0, 76, 64
2, 20640, Note_on_c, 0, 77, 77
2, 20704, Note_off_c, 0, 77, 64
2, 20720, Note_on_c, 0, 76, 81
2, 20784, Note_off_c, 0, 76, 64
2, 20800, Note_on_c, 0, 74, 71
2, 20864, Note_off_c, 0, 74, 64
2, 20880, Note_on_c, 0, 60, 80
2, 20880, Note_on_c, 0, 76, 80
2, 20944, Note_off_c, 0, 60, 64
2, 20960, Note_on_c, 0, 64, 80
2, 21024, Note_off_c, 0, 64, 64
2, 21040, Note_on_c, 0, 67, 80
2, 21072, Note_off_c, 0, 76, 64
2, 21104, Note_off_c, 0, 67, 64
2, 21120, Note_on_c, 0, 60, 80
2, 21200, Note_on_c, 0, 76, 80
2, 21264, Note_off_c, 0, 76, 64
2, 21280, Note_on_c, 0, 77, 80
2, 21312, Note_off_c, 0, 60, 64
2, 21344, Note_off_c, 0, 77, 64
2, 21360, Note_on_c, 0, 79, 71
2, 21424, Note_off_c, 0, 79, 64
2, 21440, Note_on_c, 0, 77, 83
2, 21504, Note_off_c, 0, 77, 64
2, 21520, Note_on_c, 0, 76, 77
2, 21584, Note_off_c, 0, 76, 64
2, 21600, Note_on_c, 0, 81, 89
2, 21600, Note_on_c, 0, 53, 71
2, 21664, Note_off_c, 0, 53, 64
2, 21680, Note_on_c, 0, 57, 61
2, 21744, Note_off_c, 0, 57, 64
2, 21760, Note_on_c, 0, 60, 66
2, 21792, Note_off_c, 0, 81, 64
2, 21824, Note_off_c, 0, 60, 64
2, 21840, Note_on_c, 0, 53, 77
2, 21920, Note_on_c, 0, 81, 58
2, 21984, Note_off_c, 0, 81, 64
2, 22000, Note_on_c, 0, 83, 54
2, 22032, Note_off_c, 0, 53, 64
2, 22064, Note_off_c, 0, 83, 64
2, 22080, Note_on_c, 0, 84, 61
2, 22144, Note_off_c, 0, 84, 64
2, 22160, Note_on_c, 0, 83, 58
2, 22224, Note_off_c, 0, 83, 64
2, 22240, Note_on_c, 0, 81, 71
2, 22304, Note_off_c, 0, 81, 64
2, 22320, Note_on_c, 0, 52, 89
2, 22320, Note_on_c, 0, 79, 71
2, 22384, Note_off_c, 0, 52, 64
2, 22400, Note_on_c, 0, 55, 83
2, 22464, Note_off_c, 0, 55, 64
2, 22480, Note_on_c, 0, 60, 66
2, 22512, Note_off_c, 0, 79, 64
2, 22544, Note_off_c, 0, 60, 64
2, 22560, Note_on_c, 0, 52, 83
2, 22560, Note_on_c, 0, 84, 71
2, 22624, Note_off_c, 0, 84, 64
2, 22640, Note_on_c, 0, 83, 42
2, 22704, Note_off_c, 0, 83, 64
2, 22720, Note_on_c, 0, 81, 54
2, 22752, Note_off_c, 0, 52, 64
2, 22784, Note_off_c, 0, 81, 64
2, 22800, Note_on_c, 0, 79, 50
2, 22864, Note_off_c, 0, 79, 64
2, 22880, Note_on_c, 0, 77, 66
2, 22944, Note_off_c, 0, 77, 64
2, 22960, Note_on_c, 0, 76, 71
2, 23024, Note_off_c, 0, 76, 64
2, 23040, Note_on_c, 0, 53, 45
2, 23040, Note_on_c, 0, 65, 49
2, 23040, Note_on_c, 0, 74, 50
2, 23104, Note_off_c, 0, 74, 64
2, 23120, Note_on_c, 0, 77, 61
2, 23184, Note_off_c, 0, 77, 64
2, 23200, Note_on_c, 0, 81, 77
2, 23232, Note_off_c, 0, 65, 64
2, 23232, Note_off_c, 0, 53, 64
2, 23264, Note_off_c, 0, 81, 64
2, 23280, Note_on_c, 0, 55, 52
2, 23280, Note_on_c, 0, 64, 60
2, 23280, Note_on_c, 0, 72, 83
2, 23472, Note_off_c, 0, 72, 64
2, 23472, Note_off_c, 0, 64, 64
2, 23472, Note_off_c, 0, 55, 64
2, 23520, Note_on_c, 0, 62, 54
2, 23520, Note_on_c, 0, 55, 74
2, 23520, Note_on_c, 0, 71, 83
2, 23712, Note_off_c, 0, 71, 64
2, 23712, Note_off_c, 0, 55, 64
2, 23712, Note_off_c, 0, 62, 64
2, 23760, Note_on_c, 0, 60, 66
2, 23760, Note_on_c, 0, 72, 71
2, 23952, Note_off_c, 0, 60, 64
2, 24000, Note_on_c, 0, 55, 83
2, 24144, Note_off_c, 0, 72, 64
2, 24192, Note_off_c, 0, 55, 64
2, 24240, Note_on_c, 0, 48, 89
2, 24432, Note_off_c, 0, 48, 64
2, 24480, Note_on_c, 0, 60, 58
2, 24480, Note_on_c, 0, 48, 74
2, 24480, Note_on_c, 0, 76, 61
2, 24576, Note_off_c, 0, 76, 64
2, 24600, Note_on_c, 0, 84, 69
2, 24672, Note_off_c, 0, 48, 64
2, 24672, Note_off_c, 0, 60, 64
2, 24696, Note_off_c, 0, 84, 64
2, 24720, Note_on_c, 0, 76, 75
2, 24784, Note_off_c, 0, 76, 64
2, 24800, Note_on_c, 0, 78, 89
2, 24864, Note_off_c, 0, 78, 64
2, 24880, Note_on_c, 0, 79, 81
2, 24944, Note_off_c, 0, 79, 64
2, 24960, Note_on_c, 0, 48, 77
2, 24960, Note_on_c, 0, 60, 53
2, 24960, Note_on_c, 0, 78, 97
2, 25024, Note_off_c, 0, 78, 64
2, 25040, Note_on_c, 0, 79, 71
2, 25104, Note_off_c, 0, 79, 64
2, 25120, Note_on_c, 0, 81, 83
2, 25152, Note_off_c, 0, 60, 64
2, 25152, Note_off_c, 0, 48, 64
2, 25184, Note_off_c, 0, 81, 64
2, 25200, Note_on_c, 0, 47, 71
2, 25200, Note_on_c, 0, 79, 81
2, 25200, Note_on_c, 0, 59, 45
2, 25296, Note_off_c, 0, 79, 64
2, 25320, Note_on_c, 0, 83, 77
2, 25416, Note_off_c, 0, 83, 64
2, 25440, Note_on_c, 0, 74, 71
2, 25488, Note_off_c, 0, 59, 64
2, 25488, Note_off_c, 0, 47, 64
2, 25560, Note_on_c, 0, 59, 43
2, 25632, Note_off_c, 0, 74, 64
2, 25656, Note_off_c, 0, 59, 64
2, 25680, Note_on_c, 0, 57, 83
2, 25776, Note_off_c, 0, 57, 64
2, 25800, Note_on_c, 0, 55, 77
2, 25896, Note_off_c, 0, 55, 64
2, 25920, Note_on_c, 0, 57, 58
2, 25920, Note_on_c, 0, 72, 54
2, 26016, Note_off_c, 0, 72, 64
2, 26040, Note_on_c, 0, 81, 42
2, 26112, Note_off_c, 0, 57, 64
2, 26136, Note_off_c, 0, 81, 64
2, 26160, Note_on_c, 0, 69, 77
2, 26160, Note_on_c, 0, 54, 58
2, 26224, Note_off_c, 0, 69, 64
2, 26240, Note_on_c, 0, 71, 83
2, 26304, Note_off_c, 0, 71, 64
2, 26320, Note_on_c, 0, 72, 97
2, 26352, Note_off_c, 0, 54, 64
2, 26384, Note_off_c, 0, 72, 64
2, 26400, Note_on_c, 0, 55, 77
2, 26400, Note_on_c, 0, 71, 71
2, 26464, Note_off_c, 0, 71, 64
2, 26480, Note_on_c, 0, 72, 97
2, 26544, Note_off_c, 0, 72, 64
2, 26560, Note_on_c, 0, 74, 97
2, 26592, Note_off_c, 0, 55, 64
2, 26624, Note_off_c, 0, 74, 64
2, 26640, Note_on_c, 0, 57, 83
2, 26640, Note_on_c, 0, 74, 83
2, 26832, Note_off_c, 0, 74, 64
2, 26832, Note_off_c, 0, 57, 64
2, 26880, Note_on_c, 0, 50, 83
2, 26880, Note_on_c, 0, 72, 89
2, 27072, Note_off_c, 0, 72, 64
2, 27072, Note_off_c, 0, 50, 64
2, 27120, Note_on_c, 0, 55, 66
2, 27120, Note_on_c, 0, 71, 66
2, 27312, Note_off_c, 0, 71, 64
2, 27312, Note_off_c, 0, 55, 64
2, 27360, Note_on_c, 0, 48, 83
2, 27424, Note_off_c, 0, 48, 64
2, 27440, Note_on_c, 0, 52, 97
2, 27504, Note_off_c, 0, 52, 64
2, 27520, Note_on_c, 0, 55, 77
2, 27584, Note_off_c, 0, 55, 64
2, 27600, Note_on_c, 0, 48, 89
2, 27680, Note_on_c, 0, 76, 89
2, 27744, Note_off_c, 0, 76, 64
2, 27760, Note_on_c, 0, 78, 57
2, 27792, Note_off_c, 0, 48, 64
2, 27824, Note_off_c, 0, 78, 64
2, 27840, Note_on_c, 0, 79, 71
2, 27904, Note_off_c, 0, 79, 64
2, 27920, Note_on_c, 0, 78, 71
2, 27984, Note_off_c, 0, 78, 64
2, 28000, Note_on_c, 0, 76, 75
2, 28064, Note_off_c, 0, 76, 64
2, 28080, Note_on_c, 0, 74, 89
2, 28080, Note_on_c, 0, 47, 42
2, 28144, Note_off_c, 0, 47, 64
2, 28160, Note_on_c, 0, 50, 43
2, 28224, Note_off_c, 0, 50, 64
2, 28240, Note_on_c, 0, 55, 58
2, 28272, Note_off_c, 0, 74, 64
2, 28304, Note_off_c, 0, 55, 64
2, 28320, Note_on_c, 0, 47, 77
2, 28400, Note_on_c, 0, 78, 71
2, 28464, Note_off_c, 0, 78, 64
2, 28480, Note_on_c, 0, 79, 61
2, 28512, Note_off_c, 0, 47, 64
2, 28544, Note_off_c, 0, 79, 64
2, 28560, Note_on_c, 0, 81, 54
2, 28624, Note_off_c, 0, 81, 64
2, 28640, Note_on_c, 0, 78, 89
2, 28704, Note_off_c, 0, 78, 64
2, 28720, Note_on_c, 0, 79, 61
2, 28784, Note_off_c, 0, 79, 64
2, 28800, Note_on_c, 0, 48, 75
2, 28800, Note_on_c, 0, 76, 89
2, 28800, Note_on_c, 0, 55, 54
2, 28864, Note_off_c, 0, 76, 64
2, 28880, Note_on_c, 0, 74, 89
2, 28944, Note_off_c, 0, 74, 64
2, 28960, Note_on_c, 0, 72, 95
2, 28992, Note_off_c, 0, 55, 64
2, 28992, Note_off_c, 0, 48, 64
2, 29024, Note_off_c, 0, 72, 64
2, 29040, Note_on_c, 0, 50, 75
2, 29040, Note_on_c, 0, 55, 74
2, 29040, Note_on_c, 0, 71, 77
2, 29232, Note_off_c, 0, 71, 64
2, 29232, Note_off_c, 0, 55, 64
2, 29280, Note_on_c, 0, 54, 65
2, 29280, Note_on_c, 0, 71, 54
2, 29292, Note_off_c, 0, 71, 64
2, 29295, Note_on_c, 0, 69, 12
2, 29307, Note_off_c, 0, 69, 64
2, 29310, Note_on_c, 0, 71, 43
2, 29322, Note_off_c, 0, 71, 64
2, 29325, Note_on_c, 0, 69, 44
2, 29337, Note_off_c, 0, 69, 64
2, 29340, Note_on_c, 0, 71, 50
2, 29352, Note_off_c, 0, 71, 64
2, 29355, Note_on_c, 0, 69, 43
2, 29367, Note_off_c, 0, 69, 64
2, 29370, Note_on_c, 0, 71, 54
2, 29382, Note_off_c, 0, 71, 64
2, 29385, Note_on_c, 0, 69, 52
2, 29397, Note_off_c, 0, 69, 64
2, 29400, Note_on_c, 0, 71, 50
2, 29412, Note_off_c, 0, 71, 64
2, 29415, Note_on_c, 0, 69, 47
2, 29427, Note_off_c, 0, 69, 64
2, 29430, Note_on_c, 0, 71, 44
2, 29442, Note_off_c, 0, 71, 64
2, 29445, Note_on_c, 0, 69, 52
2, 29457, Note_off_c, 0, 69, 64
2, 29460, Note_on_c, 0, 71, 47
2, 29472, Note_off_c, 0, 71, 64
2, 29472, Note_off_c, 0, 50, 64
2, 29472, Note_off_c, 0, 54, 64
2, 29475, Note_on_c, 0, 69, 42
2, 29487, Note_off_c, 0, 69, 64
2, 29490, Note_on_c, 0, 67, 66
2, 29502, Note_off_c, 0, 67, 64
2, 29505, Note_on_c, 0, 69, 25
2, 29517, Note_off_c, 0, 69, 64
2, 29520, Note_on_c, 0, 55, 61
2, 29520, Note_on_c, 0, 67, 106
2, 29712, Note_off_c, 0, 55, 64
2, 29760, Note_on_c, 0, 50, 83
2, 29904, Note_off_c, 0, 67, 64
2, 29952, Note_off_c, 0, 50, 64
2, 30000, Note_on_c, 0, 43, 61
2, 30192, Note_off_c, 0, 43, 64
2, 30240, Note_on_c, 0, 72, 61
2, 30240, Note_on_c, 0, 60, 42
2, 30240, Note_on_c, 0, 48, 56
2, 30432, Note_off_c, 0, 48, 64
2, 30432, Note_off_c, 0, 60, 64
2, 30432, Note_off_c, 0, 72, 64
2, 30480, Note_on_c, 0, 76, 61
2, 30544, Note_off_c, 0, 76, 64
2, 30560, Note_on_c, 0, 74, 77
2, 30624, Note_off_c, 0, 74, 64
2, 30640, Note_on_c, 0, 72, 66
2, 30704, Note_off_c, 0, 72, 64
2, 30720, Note_on_c, 0, 77, 75
2, 30784, Note_off_c, 0, 77, 64
2, 30800, Note_on_c, 0, 76, 77
2, 30864, Note_off_c, 0, 76, 64
2, 30880, Note_on_c, 0, 74, 71
2, 30944, Note_off_c, 0, 74, 64
2, 30960, Note_on_c, 0, 79, 42
2, 30960, Note_on_c, 0, 64, 89
2, 31152, Note_off_c, 0, 64, 64
2, 31152, Note_off_c, 0, 79, 64
2, 31200, Note_on_c, 0, 60, 66
2, 31200, Note_on_c, 0, 76, 47
2, 31392, Note_off_c, 0, 76, 64
2, 31392, Note_off_c, 0, 60, 64
2, 31440, Note_on_c, 0, 62, 61
2, 31440, Note_on_c, 0, 55, 89
2, 31440, Note_on_c, 0, 79, 43
2, 31488, Note_off_c, 0, 79, 64
2, 31500, Note_on_c, 0, 77, 81
2, 31548, Note_off_c, 0, 77, 64
2, 31560, Note_on_c, 0, 76, 77
2, 31608, Note_off_c, 0, 76, 64
2, 31620, Note_on_c, 0, 74, 89
2, 31632, Note_off_c, 0, 55, 64
2, 31632, Note_off_c, 0, 62, 64
2, 31668, Note_off_c, 0, 74, 64
2, 31680, Note_on_c, 0, 60, 77
2, 31680, Note_on_c, 0, 72, 42
2, 31872, Note_off_c, 0, 72, 64
2, 31872, Note_off_c, 0, 60, 64
2, 31920, Note_on_c, 0, 64, 83
2, 31920, Note_on_c, 0, 84, 42
2, 32112, Note_off_c, 0, 84, 64
2, 32112, Note_off_c, 0, 64, 64
2, 32160, Note_on_c, 0, 65, 58
2, 32160, Note_on_c, 0, 81, 71
2, 32352, Note_off_c, 0, 81, 64
2, 32352, Note_off_c, 0, 65, 64
2, 32400, Note_on_c, 0, 60, 61
2, 32400, Note_on_c, 0, 65, 44
2, 32400, Note_on_c, 0, 83, 50
2, 32412, Note_off_c, 0, 83, 64
2, 32415, Note_on_c, 0, 81, 58
2, 32427, Note_off_c, 0, 81, 64
2, 32430, Note_on_c, 0, 83, 52
2, 32442, Note_off_c, 0, 83, 64
2, 32445, Note_on_c, 0, 81, 58
2, 32457, Note_off_c, 0, 81, 64
2, 32460, Note_on_c, 0, 83, 43
2, 32472, Note_off_c, 0, 83, 64
2, 32475, Note_on_c, 0, 81, 58
2, 32487, Note_off_c, 0, 81, 64
2, 32490, Note_on_c, 0, 83, 43
2, 32502, Note_off_c, 0, 83, 64
2, 32505, Note_on_c, 0, 81, 57
2, 32517, Note_off_c, 0, 81, 64
2, 32520, Note_on_c, 0, 83, 50
2, 32532, Note_off_c, 0, 83, 64
2, 32535, Note_on_c, 0, 81, 58
2, 32547, Note_off_c, 0, 81, 64
2, 32550, Note_on_c, 0, 83, 54
2, 32562, Note_off_c, 0, 83, 64
2, 32565, Note_on_c, 0, 81, 66
2, 32577, Note_off_c, 0, 81, 64
2, 32580, Note_on_c, 0, 83, 50
2, 32592, Note_off_c, 0, 83, 64
2, 32592, Note_off_c, 0, 65, 64
2, 32595, Note_on_c, 0, 81, 45
2, 32607, Note_off_c, 0, 81, 64
2, 32610, Note_on_c, 0, 83, 43
2, 32622, Note_off_c, 0, 83, 64
2, 32625, Note_on_c, 0, 81, 54
2, 32637, Note_off_c, 0, 81, 64
2, 32640, Note_on_c, 0, 64, 50
2, 32640, Note_on_c, 0, 79, 66
2, 32832, Note_off_c, 0, 79, 64
2, 32832, Note_off_c, 0, 64, 64
2, 32832, Note_off_c, 0, 60, 64
2, 33120, Note_on_c, 0, 59, 80
2, 33184, Note_off_c, 0, 59, 64
2, 33200, Note_on_c, 0, 62, 80
2, 33264, Note_off_c, 0, 62, 64
2, 33280, Note_on_c, 0, 67, 80
2, 33344, Note_off_c, 0, 67, 64
2, 33360, Note_on_c, 0, 59, 80
2, 33440, Note_on_c, 0, 74, 80
2, 33504, Note_off_c, 0, 74, 64
2, 33520, Note_on_c, 0, 76, 80
2, 33552, Note_off_c, 0, 59, 64
2, 33584, Note_off_c, 0, 76, 64
2, 33600, Note_on_c, 0, 77, 77
2, 33664, Note_off_c, 0, 77, 64
2, 33680, Note_on_c, 0, 76, 81
2, 33744, Note_off_c, 0, 76, 64
2, 33760, Note_on_c, 0, 74, 71
2, 33824, Note_off_c, 0, 74, 64
2, 33840, Note_on_c, 0, 60, 80
2, 33840, Note_on_c, 0, 76, 80
2, 33904, Note_off_c, 0, 60, 64
2, 33920, Note_on_c, 0, 64, 80
2, 33984, Note_off_c, 0, 64, 64
2, 34000, Note_on_c, 0, 67, 80
2, 34032, Note_off_c, 0, 76, 64
2, 34064, Note_off_c, 0, 67, 64
2, 34080, Note_on_c, 0, 60, 80
2, 34160, Note_on_c, 0, 76, 80
2, 34224, Note_off_c, 0, 76, 64
2, 34240, Note_on_c, 0, 77, 80
2, 34272, Note_off_c, 0, 60, 64
2, 34304, Note_off_c, 0, 77, 64
2, 34320, Note_on_c, 0, 79, 71
2, 34384, Note_off_c, 0, 79, 64
2, 34400, Note_on_c, 0, 77, 83
2, 34464, Note_off_c, 0, 77, 64
2, 34480, Note_on_c, 0, 76, 77
2, 34544, Note_off_c, 0, 76, 64
2, 34560, Note_on_c, 0, 81, 89
2, 34560, Note_on_c, 0, 53, 71
2, 34624, Note_off_c, 0, 53, 64
2, 34640, Note_on_c, 0, 57, 61
2, 34704, Note_off_c, 0, 57, 64
2, 34720, Note_on_c, 0, 60, 66
2, 34752, Note_off_c, 0, 81, 64
2, 34784, Note_off_c, 0, 60, 64
2, 34800, Note_on_c, 0, 53, 77
2, 34880, Note_on_c, 0, 81, 58
2, 34944, Note_off_c, 0, 81, 64
2, 34960, Note_on_c, 0, 83, 54
2, 34992, Note_off_c, 0, 53, 64
2, 35024, Note_off_c, 0, 83, 64
2, 35040, Note_on_c, 0, 84, 61
2, 35104, Note_off_c, 0, 84, 64
2, 35120, Note_on_c, 0, 83, 58
2, 35184, Note_off_c, 0, 83, 64
2, 35200, Note_on_c, 0, 81, 71
2, 35264, Note_off_c, 0, 81, 64
2, 35280, Note_on_c, 0, 52, 89
2, 35280, Note_on_c, 0, 79, 71
2, 35344, Note_off_c, 0, 52, 64
2, 35360, Note_on_c, 0, 55, 83
2, 35424, Note_off_c, 0, 55, 64
2, 35440, Note_on_c, 0, 60, 66
2, 35472, Note_off_c, 0, 79, 64
2, 35504, Note_off_c, 0, 60, 64
2, 35520, Note_on_c, 0, 52, 83
2, 35520, Note_on_c, 0, 84, 71
2, 35584, Note_off_c, 0, 84, 64
2, 35600, Note_on_c, 0, 83, 42
2, 35664, Note_off_c, 0, 83, 64
2, 35680, Note_on_c, 0, 81, 54
2, 35712, Note_off_c, 0, 52, 64
2, 35744, Note_off_c, 0, 81, 64
2, 35760, Note_on_c, 0, 79, 50
2, 35824, Note_off_c, 0, 79, 64
2, 35840, Note_on_c, 0, 77, 66
2, 35904, Note_off_c, 0, 77, 64
2, 35920, Note_on_c, 0, 76, 71
2, 35984, Note_off_c, 0, 76, 64
2, 36000, Note_on_c, 0, 53, 45
2, 36000, Note_on_c, 0, 65, 49
2, 36000, Note_on_c, 0, 74, 50
2, 36064, Note_off_c, 0, 74, 64
2, 36080, Note_on_c, 0, 77, 61
2, 36144, Note_off_c, 0, 77, 64
2, 36160, Note_on_c, 0, 81, 77
2, 36192, Note_off_c, 0, 65, 64
2, 36192, Note_off_c, 0, 53, 64
2, 36224, Note_off_c, 0, 81, 64
2, 36240, Note_on_c, 0, 55, 52
2, 36240, Note_on_c, 0, 64, 60
2, 36240, Note_on_c, 0, 72, 83
2, 36432, Note_off_c, 0, 72, 64
2, 36432, Note_off_c, 0, 64, 64
2, 36432, Note_off_c, 0, 55, 64
2, 36480, Note_on_c, 0, 62, 54
2, 36480, Note_on_c, 0, 55, 74
2, 36480, Note_on_c, 0, 71, 83
2, 36672, Note_off_c, 0, 71, 64
2, 36672, Note_off_c, 0, 55, 64
2, 36672, Note_off_c, 0, 62, 64
2, 36720, Note_on_c, 0, 60, 66
2, 36720, Note_on_c, 0, 72, 71
2, 36912, Note_off_c, 0, 60, 64
2, 36960, Note_on_c, 0, 55, 83
2, 37104, Note_off_c, 0, 72, 64
2, 37152, Note_off_c, 0, 55, 64
2, 37200, Note_on_c, 0, 48, 89
2, 37392, Note_off_c, 0, 48, 64
2, 37440, Note_on_c, 0, 48, 89
2, 37560, Note_on_c, 0, 67, 77
2, 37656, Note_off_c, 0, 67, 64
2, 37680, Note_on_c, 0, 63, 83
2, 37776, Note_off_c, 0, 63, 64
2, 37800, Note_on_c, 0, 68, 77
2, 37896, Note_off_c, 0, 68, 64
2, 37920, Note_on_c, 0, 56, 42
2, 37920, Note_on_c, 0, 65, 97
2, 38016, Note_off_c, 0, 65, 64
2, 38040, Note_on_c, 0, 63, 66
2, 38112, Note_off_c, 0, 56, 64
2, 38112, Note_off_c, 0, 48, 64
2, 38136, Note_off_c, 0, 63, 64
2, 38160, Note_on_c, 0, 62, 71
2, 38160, Note_on_c, 0, 46, 49
2, 38256, Note_off_c, 0, 62, 64
2, 38280, Note_on_c, 0, 65, 89
2, 38376, Note_off_c, 0, 65, 64
2, 38400, Note_on_c, 0, 62, 83
2, 38400, Note_on_c, 0, 55, 47
2, 38496, Note_off_c, 0, 62, 64
2, 38520, Note_on_c, 0, 67, 71
2, 38592, Note_off_c, 0, 46, 64
2, 38616, Note_off_c, 0, 67, 64
2, 38640, Note_on_c, 0, 43, 65
2, 38640, Note_on_c, 0, 63, 71
2, 38736, Note_off_c, 0, 63, 64
2, 38760, Note_on_c, 0, 62, 77
2, 38832, Note_off_c, 0, 43, 64
2, 38856, Note_off_c, 0, 62, 64
2, 38880, Note_on_c, 0, 44, 61
2, 38880, Note_on_c, 0, 60, 75
2, 38976, Note_off_c, 0, 60, 64
2, 39000, Note_on_c, 0, 63, 77
2, 39072, Note_off_c, 0, 55, 64
2, 39096, Note_off_c, 0, 63, 64
2, 39120, Note_on_c, 0, 53, 67
2, 39120, Note_on_c, 0, 60, 66
2, 39216, Note_off_c, 0, 60, 64
2, 39240, Note_on_c, 0, 65, 83
2, 39312, Note_off_c, 0, 53, 64
2, 39336, Note_off_c, 0, 65, 64
2, 39360, Note_on_c, 0, 54, 57
2, 39360, Note_on_c, 0, 62, 71
2, 39456, Note_off_c, 0, 62, 64
2, 39480, Note_on_c, 0, 60, 54
2, 39552, Note_off_c, 0, 44, 64
2, 39552, Note_off_c, 0, 54, 64
2, 39576, Note_off_c, 0, 60, 64
2, 39600, Note_on_c, 0, 55, 48
2, 39600, Note_on_c, 0, 62, 58
2, 39600, Note_on_c, 0, 43, 65
2, 39612, Note_off_c, 0, 62, 64
2, 39615, Note_on_c, 0, 60, 54
2, 39627, Note_off_c, 0, 60, 64
2, 39630, Note_on_c, 0, 62, 50
2, 39642, Note_off_c, 0, 62, 64
2, 39645, Note_on_c, 0, 60, 43
2, 39657, Note_off_c, 0, 60, 64
2, 39660, Note_on_c, 0, 62, 61
2, 39672, Note_off_c, 0, 62, 64
2, 39675, Note_on_c, 0, 60, 52
2, 39687, Note_off_c, 0, 60, 64
2, 39690, Note_on_c, 0, 62, 42
2, 39702, Note_off_c, 0, 62, 64
2, 39705, Note_on_c, 0, 60, 52
2, 39717, Note_off_c, 0, 60, 64
2, 39720, Note_on_c, 0, 62, 66
2, 39732, Note_off_c, 0, 62, 64
2, 39735, Note_on_c, 0, 60, 58
2, 39747, Note_off_c, 0, 60, 64
2, 39750, Note_on_c, 0, 62, 77
2, 39762, Note_off_c, 0, 62, 64
2, 39765, Note_on_c, 0, 60, 61
2, 39777, Note_off_c, 0, 60, 64
2, 39780, Note_on_c, 0, 62, 55
2, 39792, Note_off_c, 0, 62, 64
2, 39795, Note_on_c, 0, 60, 71
2, 39807, Note_off_c, 0, 60, 64
2, 39810, Note_on_c, 0, 59, 71
2, 39822, Note_off_c, 0, 59, 64
2, 39825, Note_on_c, 0, 60, 54
2, 39837, Note_off_c, 0, 60, 64
2, 39840, Note_on_c, 0, 59, 61
2, 39888, Note_off_c, 0, 43, 64
2, 39888, Note_off_c, 0, 55, 64
2, 39960, Note_on_c, 0, 53, 61
2, 40032, Note_off_c, 0, 59, 64
2, 40056, Note_off_c, 0, 53, 64
2, 40080, Note_on_c, 0, 51, 83
2, 40176, Note_off_c, 0, 51, 64
2, 40200, Note_on_c, 0, 50, 58
2, 40296, Note_off_c, 0, 50, 64
2, 40320, Note_on_c, 0, 48, 97
2, 40440, Note_on_c, 0, 67, 71
2, 40536, Note_off_c, 0, 67, 64
2, 40560, Note_on_c, 0, 63, 71
2, 40656, Note_off_c, 0, 63, 64
2, 40680, Note_on_c, 0, 68, 50
2, 40776, Note_off_c, 0, 68, 64
2, 40800, Note_on_c, 0, 56, 71
2, 40800, Note_on_c, 0, 65, 83
2, 40896, Note_off_c, 0, 65, 64
2, 40920, Note_on_c, 0, 63, 58
2, 40992, Note_off_c, 0, 48, 64
2, 41016, Note_off_c, 0, 63, 64
2, 41040, Note_on_c, 0, 46, 69
2, 41040, Note_on_c, 0, 62, 83
2, 41136, Note_off_c, 0, 62, 64
2, 41160, Note_on_c, 0, 65, 89
2, 41232, Note_off_c, 0, 56, 64
2, 41256, Note_off_c, 0, 65, 64
2, 41280, Note_on_c, 0, 53, 66
2, 41280, Note_on_c, 0, 62, 71
2, 41376, Note_off_c, 0, 62, 64
2, 41400, Note_on_c, 0, 72, 89
2, 41472, Note_off_c, 0, 53, 64
2, 41496, Note_off_c, 0, 72, 64
2, 41520, Note_on_c, 0, 50, 89
2, 41520, Note_on_c, 0, 70, 97
2, 41616, Note_off_c, 0, 70, 64
2, 41640, Note_on_c, 0, 68, 61
2, 41712, Note_off_c, 0, 50, 64
2, 41712, Note_off_c, 0, 46, 64
2, 41736, Note_off_c, 0, 68, 64
2, 41760, Note_on_c, 0, 51, 77
2, 41760, Note_on_c, 0, 67, 77
2, 41856, Note_off_c, 0, 67, 64
2, 41880, Note_on_c, 0, 75, 77
2, 41952, Note_off_c, 0, 51, 64
2, 41976, Note_off_c, 0, 75, 64
2, 42000, Note_on_c, 0, 55, 77
2, 42120, Note_on_c, 0, 63, 69
2, 42192, Note_off_c, 0, 55, 64
2, 42216, Note_off_c, 0, 63, 64
2, 42240, Note_on_c, 0, 58, 77
2, 42240, Note_on_c, 0, 65, 58
2, 42336, Note_off_c, 0, 65, 64
2, 42360, Note_on_c, 0, 62, 97
2, 42432, Note_off_c, 0, 58, 64
2, 42456, Note_off_c, 0, 62, 64
2, 42480, Note_on_c, 0, 51, 83
2, 42480, Note_on_c, 0, 63, 89
2, 42672, Note_off_c, 0, 63, 64
2, 42672, Note_off_c, 0, 51, 64
2, 42720, Note_on_c, 0, 55, 61
2, 42816, Note_off_c, 0, 55, 64
2, 42840, Note_on_c, 0, 53, 52
2, 42936, Note_off_c, 0, 53, 64
2, 42960, Note_on_c, 0, 51, 83
2, 43056, Note_off_c, 0, 51, 64
2, 43080, Note_on_c, 0, 50, 83
2, 43176, Note_off_c, 0, 50, 64
2, 43200, Note_on_c, 0, 48, 89
2, 43320, Note_on_c, 0, 67, 77
2, 43416, Note_off_c, 0, 67, 64
2, 43440, Note_on_c, 0, 63, 83
2, 43536, Note_off_c, 0, 63, 64
2, 43560, Note_on_c, 0, 68, 77
2, 43656, Note_off_c, 0, 68, 64
2, 43680, Note_on_c, 0, 56, 42
2, 43680, Note_on_c, 0, 65, 97
2, 43776, Note_off_c, 0, 65, 64
2, 43800, Note_on_c, 0, 63, 66
2, 43872, Note_off_c, 0, 56, 64
2, 43872, Note_off_c, 0, 48, 64
2, 43896, Note_off_c, 0, 63, 64
2, 43920, Note_on_c, 0, 62, 71
2, 43920, Note_on_c, 0, 46, 49
2, 44016, Note_off_c, 0, 62, 64
2, 44040, Note_on_c, 0, 65, 89
2, 44136, Note_off_c, 0, 65, 64
2, 44160, Note_on_c, 0, 62, 83
2, 44160, Note_on_c, 0, 55, 47
2, 44256, Note_off_c, 0, 62, 64
2, 44280, Note_on_c, 0, 67, 71
2, 44352, Note_off_c, 0, 46, 64
2, 44376, Note_off_c, 0, 67, 64
2, 44400, Note_on_c, 0, 43, 65
2, 44400, Note_on_c, 0, 63, 71
2, 44496, Note_off_c, 0, 63, 64
2, 44520, Note_on_c, 0, 62, 77
2, 44592, Note_off_c, 0, 43, 64
2, 44616, Note_off_c, 0, 62, 64
2, 44640, Note_on_c, 0, 44, 61
2, 44640, Note_on_c, 0, 60, 75
2, 44736, Note_off_c, 0, 60, 64
2, 44760, Note_on_c, 0, 63, 77
2, 44832, Note_off_c, 0, 55, 64
2, 44856, Note_off_c, 0, 63, 64
2, 44880, Note_on_c, 0, 53, 67
2, 44880, Note_on_c, 0, 60, 66
2, 44976, Note_off_c, 0, 60, 64
2, 45000, Note_on_c, 0, 65, 83
2, 45072, Note_off_c, 0, 53, 64
2, 45096, Note_off_c, 0, 65, 64
2, 45120, Note_on_c, 0, 54, 57
2, 45120, Note_on_c, 0, 62, 71
2, 45216, Note_off_c, 0, 62, 64
2, 45240, Note_on_c, 0, 60, 54
2, 45312, Note_off_c, 0, 44, 64
2, 45312, Note_off_c, 0, 54, 64
2, 45336, Note_off_c, 0, 60, 64
2, 45360, Note_on_c, 0, 55, 48
2, 45360, Note_on_c, 0, 62, 58
2, 45360, Note_on_c, 0, 43, 65
2, 45372, Note_off_c, 0, 62, 64
2, 45375, Note_on_c, 0, 60, 54
2, 45387, Note_off_c, 0, 60, 64
2, 45390, Note_on_c, 0, 62, 50
2, 45402, Note_off_c, 0, 62, 64
2, 45405, Note_on_c, 0, 60, 43
2, 45417, Note_off_c, 0, 60, 64
2, 45420, Note_on_c, 0, 62, 61
2, 45432, Note_off_c, 0, 62, 64
2, 45435, Note_on_c, 0, 60, 52
2, 45447, Note_off_c, 0, 60, 64
2, 45450, Note_on_c, 0, 62, 42
2, 45462, Note_off_c, 0, 62, 64
2, 45465, Note_on_c, 0, 60, 52
2, 45477, Note_off_c, 0, 60, 64
2, 45480, Note_on_c, 0, 62, 66
2, 45492, Note_off_c, 0, 62, 64
2, 45495, Note_on_c, 0, 60, 58
2, 45507, Note_off_c, 0, 60, 64
2, 45510, Note_on_c, 0, 62, 77
2, 45522, Note_off_c, 0, 62, 64
2, 45525, Note_on_c, 0, 60, 61
2, 45537, Note_off_c, 0, 60, 64
2, 45540, Note_on_c, 0, 62, 55
2, 45552, Note_off_c, 0, 62, 64
2, 45555, Note_on_c, 0, 60, 71
2, 45567, Note_off_c, 0, 60, 64
2, 45570, Note_on_c, 0, 59, 71
2, 45582, Note_off_c, 0, 59, 64
2, 45585, Note_on_c, 0, 60, 54
2, 45597, Note_off_c, 0, 60, 64
2, 45600, Note_on_c, 0, 59, 61
2, 45648, Note_off_c, 0, 43, 64
2, 45648, Note_off_c, 0, 55, 64
2, 45720, Note_on_c, 0, 53, 61
2, 45792, Note_off_c, 0, 59, 64
2, 45816, Note_off_c, 0, 53, 64
2, 45840, Note_on_c, 0, 51, 83
2, 45936, Note_off_c, 0, 51, 64
2, 45960, Note_on_c, 0, 50, 58
2, 46056, Note_off_c, 0, 50, 64
2, 46080, Note_on_c, 0, 48, 97
2, 46200, Note_on_c, 0, 67, 71
2, 46296, Note_off_c, 0, 67, 64
2, 46320, Note_on_c, 0, 63, 71
2, 46416, Note_off_c, 0, 63, 64
2, 46440, Note_on_c, 0, 68, 50
2, 46536, Note_off_c, 0, 68, 64
2, 46560, Note_on_c, 0, 56, 71
2, 46560, Note_on_c, 0, 65, 83
2, 46656, Note_off_c, 0, 65, 64
2, 46680, Note_on_c, 0, 63, 58
2, 46752, Note_off_c, 0, 48, 64
2, 46776, Note_off_c, 0, 63, 64
2, 46800, Note_on_c, 0, 46, 69
2, 46800, Note_on_c, 0, 62, 83
2, 46896, Note_off_c, 0, 62, 64
2, 46920, Note_on_c, 0, 65, 89
2, 46992, Note_off_c, 0, 56, 64
2, 47016, Note_off_c, 0, 65, 64
2, 47040, Note_on_c, 0, 53, 66
2, 47040, Note_on_c, 0, 62, 71
2, 47136, Note_off_c, 0, 62, 64
2, 47160, Note_on_c, 0, 72, 89
2, 47232, Note_off_c, 0, 53, 64
2, 47256, Note_off_c, 0, 72, 64
2, 47280, Note_on_c, 0, 50, 89
2, 47280, Note_on_c, 0, 70, 97
2, 47376, Note_off_c, 0, 70, 64
2, 47400, Note_on_c, 0, 68, 61
2, 47472, Note_off_c, 0, 50, 64
2, 47472, Note_off_c, 0, 46, 64
2, 47496, Note_off_c, 0, 68, 64
2, 47520, Note_on_c, 0, 51, 77
2, 47520, Note_on_c, 0, 67, 77
2, 47616, Note_off_c, 0, 67, 64
2, 47640, Note_on_c, 0, 75, 77
2, 47712, Note_off_c, 0, 51, 64
2, 47736, Note_off_c, 0, 75, 64
2, 47760, Note_on_c, 0, 55, 77
2, 47880, Note_on_c, 0, 63, 69
2, 47952, Note_off_c, 0, 55, 64
2, 47976, Note_off_c, 0, 63, 64
2, 48000, Note_on_c, 0, 58, 77
2, 48000, Note_on_c, 0, 65, 58
2, 48096, Note_off_c, 0, 65, 64
2, 48120, Note_on_c, 0, 62, 97
2, 48192, Note_off_c, 0, 58, 64
2, 48216, Note_off_c, 0, 62, 64
2, 48240, Note_on_c, 0, 51, 83
2, 48240, Note_on_c, 0, 63, 89
2, 48432, Note_off_c, 0, 63, 64
2, 48432, Note_off_c, 0, 51, 64
2, 48480, Note_on_c, 0, 55, 61
2, 48576, Note_off_c, 0, 55, 64
2, 48600, Note_on_c, 0, 53, 52
2, 48696, Note_off_c, 0, 53, 64
2, 48720, Note_on_c, 0, 51, 83
2, 48816, Note_off_c, 0, 51, 64
2, 48840, Note_on_c, 0, 50, 83
2, 48936, Note_off_c, 0, 50, 64
2, 48960, Note_on_c, 0, 39, 66
2, 48960, Note_on_c, 0, 51, 48
2, 49080, Note_on_c, 0, 70, 89
2, 49176, Note_off_c, 0, 70, 64
2, 49200, Note_on_c, 0, 67, 69
2, 49296, Note_off_c, 0, 67, 64
2, 49320, Note_on_c, 0, 72, 77
2, 49344, Note_off_c, 0, 51, 64
2, 49344, Note_off_c, 0, 39, 64
2, 49440, Note_on_c, 0, 52, 54
2, 49440, Note_on_c, 0, 40, 57
2, 49512, Note_off_c, 0, 72, 64
2, 49560, Note_on_c, 0, 70, 54
2, 49632, Note_off_c, 0, 40, 64
2, 49632, Note_off_c, 0, 52, 64
2, 49656, Note_off_c, 0, 70, 64
2, 49680, Note_on_c, 0, 41, 71
2, 49680, Note_on_c, 0, 53, 45
2, 49800, Note_on_c, 0, 68, 71
2, 49872, Note_off_c, 0, 53, 64
2, 49872, Note_off_c, 0, 41, 64
2, 49896, Note_off_c, 0, 68, 64
2, 49920, Note_on_c, 0, 65, 50
2, 49920, Note_on_c, 0, 50, 77
2, 50016, Note_off_c, 0, 65, 64
2, 50040, Note_on_c, 0, 70, 89
2, 50112, Note_off_c, 0, 50, 64
2, 50160, Note_on_c, 0, 46, 97
2, 50232, Note_off_c, 0, 70, 64
2, 50280, Note_on_c, 0, 68, 58
2, 50352, Note_off_c, 0, 46, 64
2, 50376, Note_off_c, 0, 68, 64
2, 50400, Note_on_c, 0, 51, 106
2, 50520, Note_on_c, 0, 67, 44
2, 50616, Note_off_c, 0, 67, 64
2, 50640, Note_on_c, 0, 65, 52
2, 50736, Note_off_c, 0, 65, 64
2, 50760, Note_on_c, 0, 63, 77
2, 50784, Note_off_c, 0, 51, 64
2, 50856, Note_off_c, 0, 63, 64
2, 50880, Note_on_c, 0, 62, 71
2, 50880, Note_on_c, 0, 53, 71
2, 50976, Note_off_c, 0, 62, 64
2, 51000, Note_on_c, 0, 60, 71
2, 51072, Note_off_c, 0, 53, 64
2, 51096, Note_off_c, 0, 60, 64
2, 51120, Note_on_c, 0, 55, 61
2, 51120, Note_on_c, 0, 59, 83
2, 51408, Note_off_c, 0, 55, 64
2, 51480, Note_on_c, 0, 56, 61
2, 51504, Note_off_c, 0, 59, 64
2, 51576, Note_off_c, 0, 56, 64
2, 51600, Note_on_c, 0, 55, 77
2, 51696, Note_off_c, 0, 55, 64
2, 51720, Note_on_c, 0, 53, 42
2, 51816, Note_off_c, 0, 53, 64
2, 51840, Note_on_c, 0, 51, 52
2, 51960, Note_on_c, 0, 72, 97
2, 52056, Note_off_c, 0, 72, 64
2, 52080, Note_on_c, 0, 60, 54
2, 52128, Note_off_c, 0, 51, 64
2, 52176, Note_off_c, 0, 60, 64
2, 52200, Note_on_c, 0, 68, 66
2, 52200, Note_on_c, 0, 53, 66
2, 52296, Note_off_c, 0, 53, 64
2, 52296, Note_off_c, 0, 68, 64
2, 52320, Note_on_c, 0, 67, 66
2, 52320, Note_on_c, 0, 51, 83
2, 52416, Note_off_c, 0, 51, 64
2, 52416, Note_off_c, 0, 67, 64
2, 52440, Note_on_c, 0, 65, 71
2, 52440, Note_on_c, 0, 50, 89
2, 52536, Note_off_c, 0, 50, 64
2, 52536, Note_off_c, 0, 65, 64
2, 52560, Note_on_c, 0, 48, 83
2, 52560, Note_on_c, 0, 63, 61
2, 52656, Note_off_c, 0, 63, 64
2, 52680, Note_on_c, 0, 72, 83
2, 52752, Note_off_c, 0, 48, 64
2, 52776, Note_off_c, 0, 72, 64
2, 52800, Note_on_c, 0, 60, 71
2, 52896, Note_off_c, 0, 60, 64
2, 52920, Note_on_c, 0, 65, 97
2, 52920, Note_on_c, 0, 56, 66
2, 53016, Note_off_c, 0, 56, 64
2, 53016, Note_off_c, 0, 65, 64
2, 53040, Note_on_c, 0, 63, 83
2, 53040, Note_on_c, 0, 55, 54
2, 53136, Note_off_c, 0, 55, 64
2, 53136, Note_off_c, 0, 63, 64
2, 53160, Note_on_c, 0, 62, 83
2, 53160, Note_on_c, 0, 53, 66
2, 53256, Note_off_c, 0, 53, 64
2, 53256, Note_off_c, 0, 62, 64
2, 53280, Note_on_c, 0, 51, 67
2, 53280, Note_on_c, 0, 60, 66
2, 53376, Note_off_c, 0, 60, 64
2, 53400, Note_on_c, 0, 72, 97
2, 53472, Note_off_c, 0, 51, 64
2, 53496, Note_off_c, 0, 72, 64
2, 53520, Note_on_c, 0, 60, 77
2, 53616, Note_off_c, 0, 60, 64
2, 53640, Note_on_c, 0, 70, 114
2, 53640, Note_on_c, 0, 55, 61
2, 53736, Note_off_c, 0, 55, 64
2, 53736, Note_off_c, 0, 70, 64
2, 53760, Note_on_c, 0, 68, 69
2, 53760, Note_on_c, 0, 53, 58
2, 53856, Note_off_c, 0, 53, 64
2, 53856, Note_off_c, 0, 68, 64
2, 53880, Note_on_c, 0, 67, 71
2, 53880, Note_on_c, 0, 52, 43
2, 53976, Note_off_c, 0, 52, 64
2, 53976, Note_off_c, 0, 67, 64
2, 54000, Note_on_c, 0, 53, 47
2, 54000, Note_on_c, 0, 68, 89
2, 54096, Note_off_c, 0, 68, 64
2, 54120, Note_on_c, 0, 72, 97
2, 54192, Note_off_c, 0, 53, 64
2, 54216, Note_off_c, 0, 72, 64
2, 54240, Note_on_c, 0, 65, 61
2, 54336, Note_off_c, 0, 65, 64
2, 54360, Note_on_c, 0, 68, 71
2, 54360, Note_on_c, 0, 53, 58
2, 54456, Note_off_c, 0, 53, 64
2, 54456, Note_off_c, 0, 68, 64
2, 54480, Note_on_c, 0, 67, 66
2, 54480, Note_on_c, 0, 51, 66
2, 54576, Note_off_c, 0, 51, 64
2, 54576, Note_off_c, 0, 67, 64
2, 54600, Note_on_c, 0, 65, 66
2, 54600, Note_on_c, 0, 50, 80
2, 54696, Note_off_c, 0, 50, 64
2, 54696, Note_off_c, 0, 65, 64
2, 54720, Note_on_c, 0, 67, 66
2, 54720, Note_on_c, 0, 51, 97
2, 54816, Note_off_c, 0, 67, 64
2, 54840, Note_on_c, 0, 72, 57
2, 54912, Note_off_c, 0, 51, 64
2, 54936, Note_off_c, 0, 72, 64
2, 54960, Note_on_c, 0, 53, 89
2, 55080, Note_on_c, 0, 68, 54
2, 55152, Note_off_c, 0, 53, 64
2, 55176, Note_off_c, 0, 68, 64
2, 55200, Note_on_c, 0, 67, 58
2, 55200, Note_on_c, 0, 55, 71
2, 55296, Note_off_c, 0, 67, 64
2, 55320, Note_on_c, 0, 59, 66
2, 55392, Note_off_c, 0, 55, 64
2, 55416, Note_off_c, 0, 59, 64
2, 55440, Note_on_c, 0, 59, 58
2, 55440, Note_on_c, 0, 48, 71
2, 55632, Note_off_c, 0, 48, 64
2, 55632, Note_off_c, 0, 59, 64
2, 55680, Note_on_c, 0, 60, 54
2, 55680, Note_on_c, 0, 43, 83
2, 55872, Note_off_c, 0, 43, 64
2, 55872, Note_off_c, 0, 60, 64
2, 55920, Note_on_c, 0, 36, 71
2, 56112, Note_off_c, 0, 36, 64
2, 56160, Note_on_c, 0, 39, 66
2, 56160, Note_on_c, 0, 51, 48
2, 56280, Note_on_c, 0, 70, 89
2, 56376, Note_off_c, 0, 70, 64
2, 56400, Note_on_c, 0, 67, 69
2, 56496, Note_off_c, 0, 67, 64
2, 56520, Note_on_c, 0, 72, 77
2, 56544, Note_off_c, 0, 51, 64
2, 56544, Note_off_c, 0, 39, 64
2, 56640, Note_on_c, 0, 52, 54
2, 56640, Note_on_c, 0, 40, 57
2, 56712, Note_off_c, 0, 72, 64
2, 56760, Note_on_c, 0, 70, 54
2, 56832, Note_off_c, 0, 40, 64
2, 56832, Note_off_c, 0, 52, 64
2, 56856, Note_off_c, 0, 70, 64
2, 56880, Note_on_c, 0, 41, 71
2, 56880, Note_on_c, 0, 53, 45
2, 57000, Note_on_c, 0, 68, 71
2, 57072, Note_off_c, 0, 53, 64
2, 57072, Note_off_c, 0, 41, 64
2, 57096, Note_off_c, 0, 68, 64
2, 57120, Note_on_c, 0, 65, 50
2, 57120, Note_on_c, 0, 50, 77
2, 57216, Note_off_c, 0, 65, 64
2, 57240, Note_on_c, 0, 70, 89
2, 57312, Note_off_c, 0, 50, 64
2, 57360, Note_on_c, 0, 46, 97
2, 57432, Note_off_c, 0, 70, 64
2, 57480, Note_on_c, 0, 68, 58
2, 57552, Note_off_c, 0, 46, 64
2, 57576, Note_off_c, 0, 68, 64
2, 57600, Note_on_c, 0, 51, 106
2, 57720, Note_on_c, 0, 67, 44
2, 57816, Note_off_c, 0, 67, 64
2, 57840, Note_on_c, 0, 65, 52
2, 57936, Note_off_c, 0, 65, 64
2, 57960, Note_on_c, 0, 63, 77
2, 57984, Note_off_c, 0, 51, 64
2, 58056, Note_off_c, 0, 63, 64
2, 58080, Note_on_c, 0, 62, 71
2, 58080, Note_on_c, 0, 53, 71
2, 58176, Note_off_c, 0, 62, 64
2, 58200, Note_on_c, 0, 60, 71
2, 58272, Note_off_c, 0, 53, 64
2, 58296, Note_off_c, 0, 60, 64
2, 58320, Note_on_c, 0, 55, 61
2, 58320, Note_on_c, 0, 59, 83
2, 58608, Note_off_c, 0, 55, 64
2, 58680, Note_on_c, 0, 56, 61
2, 58704, Note_off_c, 0, 59, 64
2, 58776, Note_off_c, 0, 56, 64
2, 58800, Note_on_c, 0, 55, 77
2, 58896, Note_off_c, 0, 55, 64
2, 58920, Note_on_c, 0, 53, 42
2, 59016, Note_off_c, 0, 53, 64
2, 59040, Note_on_c, 0, 51, 52
2, 59160, Note_on_c, 0, 72, 97
2, 59256, Note_off_c, 0, 72, 64
2, 59280, Note_on_c, 0, 60, 54
2, 59328, Note_off_c, 0, 51, 64
2, 59376, Note_off_c, 0, 60, 64
2, 59400, Note_on_c, 0, 68, 66
2, 59400, Note_on_c, 0, 53, 66
2, 59496, Note_off_c, 0, 53, 64
2, 59496, Note_off_c, 0, 68, 64
2, 59520, Note_on_c, 0, 67, 66
2, 59520, Note_on_c, 0, 51, 83
2, 59616, Note_off_c, 0, 51, 64
2, 59616, Note_off_c, 0, 67, 64
2, 59640, Note_on_c, 0, 65, 71
2, 59640, Note_on_c, 0, 50, 89
2, 59736, Note_off_c, 0, 50, 64
2, 59736, Note_off_c, 0, 65, 64
2, 59760, Note_on_c, 0, 48, 83
2, 59760, Note_on_c, 0, 63, 61
2, 59856, Note_off_c, 0, 63, 64
2, 59880, Note_on_c, 0, 72, 83
2, 59952, Note_off_c, 0, 48, 64
2, 59976, Note_off_c, 0, 72, 64
2, 60000, Note_on_c, 0, 60, 71
2, 60096, Note_off_c, 0, 60, 64
2, 60120, Note_on_c, 0, 65, 97
2, 60120, Note_on_c, 0, 56, 66
2, 60216, Note_off_c, 0, 56, 64
2, 60216, Note_off_c, 0, 65, 64
2, 60240, Note_on_c, 0, 63, 83
2, 60240, Note_on_c, 0, 55, 54
2, 60336, Note_off_c, 0, 55, 64
2, 60336, Note_off_c, 0, 63, 64
2, 60360, Note_on_c, 0, 62, 83
2, 60360, Note_on_c, 0, 53, 66
2, 60456, Note_off_c, 0, 53, 64
2, 60456, Note_off_c, 0, 62, 64
2, 60480, Note_on_c, 0, 51, 67
2, 60480, Note_on_c, 0, 60, 66
2, 60576, Note_off_c, 0, 60, 64
2, 60600, Note_on_c, 0, 72, 97
2, 60672, Note_off_c, 0, 51, 64
2, 60696, Note_off_c, 0, 72, 64
2, 60720, Note_on_c, 0, 60, 77
2, 60816, Note_off_c, 0, 60, 64
2, 60840, Note_on_c, 0, 70, 114
2, 60840, Note_on_c, 0, 55, 61
2, 60936, Note_off_c, 0, 55, 64
2, 60936, Note_off_c, 0, 70, 64
2, 60960, Note_on_c, 0, 68, 69
2, 60960, Note_on_c, 0, 53, 58
2, 61056, Note_off_c, 0, 53, 64
2, 61056, Note_off_c, 0, 68, 64
2, 61080, Note_on_c, 0, 67, 71
2, 61080, Note_on_c, 0, 52, 43
2, 61176, Note_off_c, 0, 52, 64
2, 61176, Note_off_c, 0, 67, 64
2, 61200, Note_on_c, 0, 53, 47
2, 61200, Note_on_c, 0, 68, 89
2, 61296, Note_off_c, 0, 68, 64
2, 61320, Note_on_c, 0, 72, 97
2, 61392, Note_off_c, 0, 53, 64
2, 61416, Note_off_c, 0, 72, 64
2, 61440, Note_on_c, 0, 65, 61
2, 61536, Note_off_c, 0, 65, 64
2, 61560, Note_on_c, 0, 68, 71
2, 61560, Note_on_c, 0, 53, 58
2, 61656, Note_off_c, 0, 53, 64
2, 61656, Note_off_c, 0, 68, 64
2, 61680, Note_on_c, 0, 67, 66
2, 61680, Note_on_c, 0, 51, 66
2, 61776, Note_off_c, 0, 51, 64
2, 61776, Note_off_c, 0, 67, 64
2, 61800, Note_on_c, 0, 65, 66
2, 61800, Note_on_c, 0, 50, 80
2, 61896, Note_off_c, 0, 50, 64
2, 61896, Note_off_c, 0, 65, 64
2, 61920, Note_on_c, 0, 67, 66
2, 61920, Note_on_c, 0, 51, 97
2, 62016, Note_off_c, 0, 67, 64
2, 62040, Note_on_c, 0, 72, 57
2, 62112, Note_off_c, 0, 51, 64
2, 62136, Note_off_c, 0, 72, 64
2, 62160, Note_on_c, 0, 53, 89
2, 62280, Note_on_c, 0, 68, 54
2, 62352, Note_off_c, 0, 53, 64
2, 62376, Note_off_c, 0, 68, 64
2, 62400, Note_on_c, 0, 67, 58
2, 62400, Note_on_c, 0, 55, 71
2, 62496, Note_off_c, 0, 67, 64
2, 62520, Note_on_c, 0, 59, 66
2, 62592, Note_off_c, 0, 55, 64
2, 62616, Note_off_c, 0, 59, 64
2, 62640, Note_on_c, 0, 59, 58
2, 62640, Note_on_c, 0, 48, 71
2, 62832, Note_off_c, 0, 48, 64
2, 62832, Note_off_c, 0, 59, 64
2, 62880, Note_on_c, 0, 60, 54
2, 62880, Note_on_c, 0, 43, 83
2, 63072, Note_off_c, 0, 43, 64
2, 63072, Note_off_c, 0, 60, 64
2, 63120, Note_on_c, 0, 36, 71
2, 63312, Note_off_c, 0, 36, 64
2, 63360, Note_on_c, 0, 72, 61
2, 63360, Note_on_c, 0, 60, 42
2, 63360, Note_on_c, 0, 48, 56
2, 63552, Note_off_c, 0, 48, 64
2, 63552, Note_off_c, 0, 60, 64
2, 63552, Note_off_c, 0, 72, 64
2, 63600, Note_on_c, 0, 76, 61
2, 63664, Note_off_c, 0, 76, 64
2, 63680, Note_on_c, 0, 74, 77
2, 63744, Note_off_c, 0, 74, 64
2, 63760, Note_on_c, 0, 72, 66
2, 63824, Note_off_c, 0, 72, 64
2, 63840, Note_on_c, 0, 77, 75
2, 63904, Note_off_c, 0, 77, 64
2, 63920, Note_on_c, 0, 76, 77
2, 63984, Note_off_c, 0, 76, 64
2, 64000, Note_on_c, 0, 74, 71
2, 64064, Note_off_c, 0, 74, 64
2, 64080, Note_on_c, 0, 79, 42
2, 64080, Note_on_c, 0, 64, 89
2, 64272, Note_off_c, 0, 64, 64
2, 64272, Note_off_c, 0, 79, 64
2, 64320, Note_on_c, 0, 60, 66
2, 64320, Note_on_c, 0, 76, 47
2, 64512, Note_off_c, 0, 76, 64
2, 64512, Note_off_c, 0, 60, 64
2, 64560, Note_on_c, 0, 62, 61
2, 64560, Note_on_c, 0, 55, 89
2, 64560, Note_on_c, 0, 79, 43
2, 64608, Note_off_c, 0, 79, 64
2, 64620, Note_on_c, 0, 77, 81
2, 64668, Note_off_c, 0, 77, 64
2, 64680, Note_on_c, 0, 76, 77
2, 64728, Note_off_c, 0, 76, 64
2, 64740, Note_on_c, 0, 74, 89
2, 64752, Note_off_c, 0, 55, 64
2, 64752, Note_off_c, 0, 62, 64
2, 64788, Note_off_c, 0, 74, 64
2, 64800, Note_on_c, 0, 60, 77
2, 64800, Note_on_c, 0, 72, 42
2, 64992, Note_off_c, 0, 72, 64
2, 64992, Note_off_c, 0, 60, 64
2, 65040, Note_on_c, 0, 64, 83
2, 65040, Note_on_c, 0, 84, 42
2, 65232, Note_off_c, 0, 84, 64
2, 65232, Note_off_c, 0, 64, 64
2, 65280, Note_on_c, 0, 65, 58
2, 65280, Note_on_c, 0, 81, 71
2, 65472, Note_off_c, 0, 81, 64
2, 65472, Note_off_c, 0, 65, 64
2, 65520, Note_on_c, 0, 60, 61
2, 65520, Note_on_c, 0, 65, 44
2, 65520, Note_on_c, 0, 83, 50
2, 65532, Note_off_c, 0, 83, 64
2, 65535, Note_on_c, 0, 81, 58
2, 65547, Note_off_c, 0, 81, 64
2, 65550, Note_on_c, 0, 83, 52
2, 65562, Note_off_c, 0, 83, 64
2, 65565, Note_on_c, 0, 81, 58
2, 65577, Note_off_c, 0, 81, 64
2, 65580, Note_on_c, 0, 83, 43
2, 65592, Note_off_c, 0, 83, 64
2, 65595, Note_on_c, 0, 81, 58
2, 65607, Note_off_c, 0, 81, 64
2, 65610, Note_on_c, 0, 83, 43
2, 65622, Note_off_c, 0, 83, 64
2, 65625, Note_on_c, 0, 81, 57
2, 65637, Note_off_c, 0, 81, 64
2, 65640, Note_on_c, 0, 83, 50
2, 65652, Note_off_c, 0, 83, 64
2, 65655, Note_on_c, 0, 81, 58
2, 65667, Note_off_c, 0, 81, 64
2, 65670, Note_on_c, 0, 83, 54
2, 65682, Note_off_c, 0, 83, 64
2, 65685, Note_on_c, 0, 81, 66
2, 65697, Note_off_c, 0, 81, 64
2, 65700, Note_on_c, 0, 83, 50
2, 65712, Note_off_c, 0, 83, 64
2, 65712, Note_off_c, 0, 65, 64
2, 65715, Note_on_c, 0, 81, 45
2, 65727, Note_off_c, 0, 81, 64
2, 65730, Note_on_c, 0, 83, 43
2, 65742, Note_off_c, 0, 83, 64
2, 65745, Note_on_c, 0, 81, 54
2, 65757, Note_off_c, 0, 81, 64
2, 65760, Note_on_c, 0, 64, 50
2, 65760, Note_on_c, 0, 79, 66
2, 65952, Note_off_c, 0, 79, 64
2, 65952, Note_off_c, 0, 64, 64
2, 65952, Note_off_c, 0, 60, 64
2, 66240, Note_on_c, 0, 59, 80
2, 66304, Note_off_c, 0, 59, 64
2, 66320, Note_on_c, 0, 62, 80
2, 66384, Note_off_c, 0, 62, 64
2, 66400, Note_on_c, 0, 67, 80
2, 66464, Note_off_c, 0, 67, 64
2, 66480, Note_on_c, 0, 59, 80
2, 66560, Note_on_c, 0, 74, 80
2, 66624, Note_off_c, 0, 74, 64
2, 66640, Note_on_c, 0, 76, 80
2, 66672, Note_off_c, 0, 59, 64
2, 66704, Note_off_c, 0, 76, 64
2, 66720, Note_on_c, 0, 77, 77
2, 66784, Note_off_c, 0, 77, 64
2, 66800, Note_on_c, 0, 76, 81
2, 66864, Note_off_c, 0, 76, 64
2, 66880, Note_on_c, 0, 74, 71
2, 66944, Note_off_c, 0, 74, 64
2, 66960, Note_on_c, 0, 60, 80
2, 66960, Note_on_c, 0, 76, 80
2, 67024, Note_off_c, 0, 60, 64
2, 67040, Note_on_c, 0, 64, 80
2, 67104, Note_off_c, 0, 64, 64
2, 67120, Note_on_c, 0, 67, 80
2, 67152, Note_off_c, 0, 76, 64
2, 67184, Note_off_c, 0, 67, 64
2, 67200, Note_on_c, 0, 60, 80
2, 67280, Note_on_c, 0, 76, 80
2, 67344, Note_off_c, 0, 76, 64
2, 67360, Note_on_c, 0, 77, 80
2, 67392, Note_off_c, 0, 60, 64
2, 67424, Note_off_c, 0, 77, 64
2, 67440, Note_on_c, 0, 79, 71
2, 67504, Note_off_c, 0, 79, 64
2, 67520, Note_on_c, 0, 77, 83
2, 67584, Note_off_c, 0, 77, 64
2, 67600, Note_on_c, 0, 76, 77
2, 67664, Note_off_c, 0, 76, 64
2, 67680, Note_on_c, 0, 65, 42
2, 67680, Note_on_c, 0, 53, 43
2, 67680, Note_on_c, 0, 74, 97
2, 67744, Note_off_c, 0, 74, 64
2, 67760, Note_on_c, 0, 76, 83
2, 67824, Note_off_c, 0, 76, 64
2, 67840, Note_on_c, 0, 77, 89
2, 67872, Note_off_c, 0, 53, 64
2, 67872, Note_off_c, 0, 65, 64
2, 67904, Note_off_c, 0, 77, 64
2, 67920, Note_on_c, 0, 64, 50
2, 67920, Note_on_c, 0, 55, 77
2, 67920, Note_on_c, 0, 72, 58
2, 68112, Note_off_c, 0, 72, 64
2, 68112, Note_off_c, 0, 55, 64
2, 68112, Note_off_c, 0, 64, 64
2, 68160, Note_on_c, 0, 62, 50
2, 68160, Note_on_c, 0, 55, 60
2, 68160, Note_on_c, 0, 71, 83
2, 68352, Note_off_c, 0, 71, 64
2, 68352, Note_off_c, 0, 55, 64
2, 68352, Note_off_c, 0, 62, 64
2, 68400, Note_on_c, 0, 60, 54
2, 68400, Note_on_c, 0, 72, 52
2, 68592, Note_off_c, 0, 60, 64
2, 68640, Note_on_c, 0, 55, 77
2, 68784, Note_off_c, 0, 72, 64
2, 68832, Note_off_c, 0, 55, 64
2, 68880, Note_on_c, 0, 48, 89
2, 69072, Note_off_c, 0, 48, 64
2, 69120, Note_on_c, 0, 76, 61
2, 69120, Note_on_c, 0, 48, 74
2, 69120, Note_on_c, 0, 60, 58
2, 69216, Note_off_c, 0, 76, 64
2, 69240, Note_on_c, 0, 84, 69
2, 69312, Note_off_c, 0, 60, 64
2, 69312, Note_off_c, 0, 48, 64
2, 69336, Note_off_c, 0, 84, 64
2, 69360, Note_on_c, 0, 76, 75
2, 69424, Note_off_c, 0, 76, 64
2, 69440, Note_on_c, 0, 78, 89
2, 69504, Note_off_c, 0, 78, 64
2, 69520, Note_on_c, 0, 79, 81
2, 69584, Note_off_c, 0, 79, 64
2, 69600, Note_on_c, 0, 48, 77
2, 69600, Note_on_c, 0, 60, 53
2, 69600, Note_on_c, 0, 78, 97
2, 69664, Note_off_c, 0, 78, 64
2, 69680, Note_on_c, 0, 79, 71
2, 69744, Note_off_c, 0, 79, 64
2, 69760, Note_on_c, 0, 81, 83
2, 69792, Note_off_c, 0, 60, 64
2, 69792, Note_off_c, 0, 48, 64
2, 69824, Note_off_c, 0, 81, 64
2, 69840, Note_on_c, 0, 59, 45
2, 69840, Note_on_c, 0, 47, 71
2, 69840, Note_on_c, 0, 79, 81
2, 69936, Note_off_c, 0, 79, 64
2, 69960, Note_on_c, 0, 83, 77
2, 70056, Note_off_c, 0, 83, 64
2, 70080, Note_on_c, 0, 74, 71
2, 70128, Note_off_c, 0, 47, 64
2, 70128, Note_off_c, 0, 59, 64
2, 70200, Note_on_c, 0, 59, 43
2, 70272, Note_off_c, 0, 74, 64
2, 70296, Note_off_c, 0, 59, 64
2, 70320, Note_on_c, 0, 57, 83
2, 70416, Note_off_c, 0, 57, 64
2, 70440, Note_on_c, 0, 55, 77
2, 70536, Note_off_c, 0, 55, 64
2, 70560, Note_on_c, 0, 72, 54
2, 70560, Note_on_c, 0, 57, 58
2, 70656, Note_off_c, 0, 72, 64
2, 70680, Note_on_c, 0, 81, 42
2, 70752, Note_off_c, 0, 57, 64
2, 70776, Note_off_c, 0, 81, 64
2, 70800, Note_on_c, 0, 54, 58
2, 70800, Note_on_c, 0, 69, 77
2, 70864, Note_off_c, 0, 69, 64
2, 70880, Note_on_c, 0, 71, 83
2, 70944, Note_off_c, 0, 71, 64
2, 70960, Note_on_c, 0, 72, 97
2, 70992, Note_off_c, 0, 54, 64
2, 71024, Note_off_c, 0, 72, 64
2, 71040, Note_on_c, 0, 55, 77
2, 71040, Note_on_c, 0, 71, 71
2, 71104, Note_off_c, 0, 71, 64
2, 71120, Note_on_c, 0, 72, 97
2, 71184, Note_off_c, 0, 72, 64
2, 71200, Note_on_c, 0, 74, 97
2, 71232, Note_off_c, 0, 55, 64
2, 71264, Note_off_c, 0, 74, 64
2, 71280, Note_on_c, 0, 57, 83
2, 71280, Note_on_c, 0, 74, 83
2, 71472, Note_off_c, 0, 74, 64
2, 71472, Note_off_c, 0, 57, 64
2, 71520, Note_on_c, 0, 50, 83
2, 71520, Note_on_c, 0, 72, 89
2, 71712, Note_off_c, 0, 72, 64
2, 71712, Note_off_c, 0, 50, 64
2, 71760, Note_on_c, 0, 55, 66
2, 71760, Note_on_c, 0, 71, 66
2, 71952, Note_off_c, 0, 71, 64
2, 71952, Note_off_c, 0, 55, 64
2, 72000, Note_on_c, 0, 48, 83
2, 72064, Note_off_c, 0, 48, 64
2, 72080, Note_on_c, 0, 52, 97
2, 72144, Note_off_c, 0, 52, 64
2, 72160, Note_on_c, 0, 55, 77
2, 72224, Note_off_c, 0, 55, 64
2, 72240, Note_on_c, 0, 48, 89
2, 72320, Note_on_c, 0, 76, 89
2, 72384, Note_off_c, 0, 76, 64
2, 72400, Note_on_c, 0, 78, 57
2, 72432, Note_off_c, 0, 48, 64
2, 72464, Note_off_c, 0, 78, 64
2, 72480, Note_on_c, 0, 79, 71
2, 72544, Note_off_c, 0, 79, 64
2, 72560, Note_on_c, 0, 78, 71
2, 72624, Note_off_c, 0, 78, 64
2, 72640, Note_on_c, 0, 76, 75
2, 72704, Note_off_c, 0, 76, 64
2, 72720, Note_on_c, 0, 47, 42
2, 72720, Note_on_c, 0, 74, 89
2, 72784, Note_off_c, 0, 47, 64
2, 72800, Note_on_c, 0, 50, 43
2, 72864, Note_off_c, 0, 50, 64
2, 72880, Note_on_c, 0, 55, 58
2, 72912, Note_off_c, 0, 74, 64
2, 72944, Note_off_c, 0, 55, 64
2, 72960, Note_on_c, 0, 47, 77
2, 73040, Note_on_c, 0, 78, 71
2, 73104, Note_off_c, 0, 78, 64
2, 73120, Note_on_c, 0, 79, 61
2, 73152, Note_off_c, 0, 47, 64
2, 73184, Note_off_c, 0, 79, 64
2, 73200, Note_on_c, 0, 81, 54
2, 73264, Note_off_c, 0, 81, 64
2, 73280, Note_on_c, 0, 78, 89
2, 73344, Note_off_c, 0, 78, 64
2, 73360, Note_on_c, 0, 79, 61
2, 73424, Note_off_c, 0, 79, 64
2, 73440, Note_on_c, 0, 76, 89
2, 73440, Note_on_c, 0, 55, 54
2, 73440, Note_on_c, 0, 48, 75
2, 73504, Note_off_c, 0, 76, 64
2, 73520, Note_on_c, 0, 74, 89
2, 73584, Note_off_c, 0, 74, 64
2, 73600, Note_on_c, 0, 72, 95
2, 73632, Note_off_c, 0, 48, 64
2, 73632, Note_off_c, 0, 55, 64
2, 73664, Note_off_c, 0, 72, 64
2, 73680, Note_on_c, 0, 71, 77
2, 73680, Note_on_c, 0, 50, 75
2, 73680, Note_on_c, 0, 55, 74
2, 73872, Note_off_c, 0, 55, 64
2, 73872, Note_off_c, 0, 71, 64
2, 73920, Note_on_c, 0, 54, 65
2, 73920, Note_on_c, 0, 71, 54
2, 73932, Note_off_c, 0, 71, 64
2, 73935, Note_on_c, 0, 69, 12
2, 73947, Note_off_c, 0, 69, 64
2, 73950, Note_on_c, 0, 71, 43
2, 73962, Note_off_c, 0, 71, 64
2, 73965, Note_on_c, 0, 69, 44
2, 73977, Note_off_c, 0, 69, 64
2, 73980, Note_on_c, 0, 71, 50
2, 73992, Note_off_c, 0, 71, 64
2, 73995, Note_on_c, 0, 69, 43
2, 74007, Note_off_c, 0, 69, 64
2, 74010, Note_on_c, 0, 71, 54
2, 74022, Note_off_c, 0, 71, 64
2, 74025, Note_on_c, 0, 69, 52
2, 74037, Note_off_c, 0, 69, 64
2, 74040, Note_on_c, 0, 71, 50
2, 74052, Note_off_c, 0, 71, 64
2, 74055, Note_on_c, 0, 69, 47
2, 74067, Note_off_c, 0, 69, 64
2, 74070, Note_on_c, 0, 71, 44
2, 74082, Note_off_c, 0, 71, 64
2, 74085, Note_on_c, 0, 69, 52
2, 74097, Note_off_c, 0, 69, 64
2, 74100, Note_on_c, 0, 71, 47
2, 74112, Note_off_c, 0, 71, 64
2, 74112, Note_off_c, 0, 50, 64
2, 74112, Note_off_c, 0, 54, 64
2, 74115, Note_on_c, 0, 69, 42
2, 74127, Note_off_c, 0, 69, 64
2, 74130, Note_on_c, 0, 67, 66
2, 74142, Note_off_c, 0, 67, 64
2, 74145, Note_on_c, 0, 69, 25
2, 74157, Note_off_c, 0, 69, 64
2, 74160, Note_on_c, 0, 55, 61
2, 74160, Note_on_c, 0, 67, 106
2, 74352, Note_off_c, 0, 55, 64
2, 74400, Note_on_c, 0, 50, 83
2, 74544, Note_off_c, 0, 67, 64
2, 74592, Note_off_c, 0, 50, 64
2, 74640, Note_on_c, 0, 43, 61
2, 74832, Note_off_c, 0, 43, 64
2, 74880, Note_on_c, 0, 60, 42
2, 74880, Note_on_c, 0, 48, 56
2, 74880, Note_on_c, 0, 72, 61
2, 75072, Note_off_c, 0, 72, 64
2, 75072, Note_off_c, 0, 48, 64
2, 75072, Note_off_c, 0, 60, 64
2, 75120, Note_on_c, 0, 76, 61
2, 75184, Note_off_c, 0, 76, 64
2, 75200, Note_on_c, 0, 74, 77
2, 75264, Note_off_c, 0, 74, 64
2, 75280, Note_on_c, 0, 72, 66
2, 75344, Note_off_c, 0, 72, 64
2, 75360, Note_on_c, 0, 77, 75
2, 75424, Note_off_c, 0, 77, 64
2, 75440, Note_on_c, 0, 76, 77
2, 75504, Note_off_c, 0, 76, 64
2, 75520, Note_on_c, 0, 74, 71
2, 75584, Note_off_c, 0, 74, 64
2, 75600, Note_on_c, 0, 64, 89
2, 75600, Note_on_c, 0, 79, 42
2, 75792, Note_off_c, 0, 79, 64
2, 75792, Note_off_c, 0, 64, 64
2, 75840, Note_on_c, 0, 76, 47
2, 75840, Note_on_c, 0, 60, 66
2, 76032, Note_off_c, 0, 60, 64
2, 76032, Note_off_c, 0, 76, 64
2, 76080, Note_on_c, 0, 62, 61
2, 76080, Note_on_c, 0, 55, 89
2, 76080, Note_on_c, 0, 79, 43
2, 76128, Note_off_c, 0, 79, 64
2, 76140, Note_on_c, 0, 77, 81
2, 76188, Note_off_c, 0, 77, 64
2, 76200, Note_on_c, 0, 76, 77
2, 76248, Note_off_c, 0, 76, 64
2, 76260, Note_on_c, 0, 74, 89
2, 76272, Note_off_c, 0, 55, 64
2, 76272, Note_off_c, 0, 62, 64
2, 76308, Note_off_c, 0, 74, 64
2, 76320, Note_on_c, 0, 60, 77
2, 76320, Note_on_c, 0, 72, 42
2, 76512, Note_off_c, 0, 72, 64
2, 76512, Note_off_c, 0, 60, 64
2, 76560, Note_on_c, 0, 64, 83
2, 76560, Note_on_c, 0, 84, 42
2, 76752, Note_off_c, 0, 84, 64
2, 76752, Note_off_c, 0, 64, 64
2, 76800, Note_on_c, 0, 65, 58
2, 76800, Note_on_c, 0, 81, 71
2, 76992, Note_off_c, 0, 81, 64
2, 76992, Note_off_c, 0, 65, 64
2, 77040, Note_on_c, 0, 60, 61
2, 77040, Note_on_c, 0, 65, 44
2, 77040, Note_on_c, 0, 83, 50
2, 77052, Note_off_c, 0, 83, 64
2, 77055, Note_on_c, 0, 81, 58
2, 77067, Note_off_c, 0, 81, 64
2, 77070, Note_on_c, 0, 83, 52
2, 77082, Note_off_c, 0, 83, 64
2, 77085, Note_on_c, 0, 81, 58
2, 77097, Note_off_c, 0, 81, 64
2, 77100, Note_on_c, 0, 83, 43
2, 77112, Note_off_c, 0, 83, 64
2, 77115, Note_on_c, 0, 81, 58
2, 77127, Note_off_c, 0, 81, 64
2, 77130, Note_on_c, 0, 83, 43
2, 77142, Note_off_c, 0, 83, 64
2, 77145, Note_on_c, 0, 81, 57
2, 77157, Note_off_c, 0, 81, 64
2, 77160, Note_on_c, 0, 83, 50
2, 77172, Note_off_c, 0, 83, 64
2, 77175, Note_on_c, 0, 81, 58
2, 77187, Note_off_c, 0, 81, 64
2, 77190, Note_on_c, 0, 83, 54
2, 77202, Note_off_c, 0, 83, 64
2, 77205, Note_on_c, 0, 81, 66
2, 77217, Note_off_c, 0, 81, 64
2, 77220, Note_on_c, 0, 83, 50
2, 77232, Note_off_c, 0, 83, 64
2, 77232, Note_off_c, 0, 65, 64
2, 77235, Note_on_c, 0, 81, 45
2, 77247, Note_off_c, 0, 81, 64
2, 77250, Note_on_c, 0, 83, 43
2, 77262, Note_off_c, 0, 83, 64
2, 77265, Note_on_c, 0, 81, 54
2, 77277, Note_off_c, 0, 81, 64
2, 77280, Note_on_c, 0, 64, 50
2, 77280, Note_on_c, 0, 79, 66
2, 77472, Note_off_c, 0, 79, 64
2, 77472, Note_off_c, 0, 64, 64
2, 77472, Note_off_c, 0, 60, 64
2, 77760, Note_on_c, 0, 59, 80
2, 77824, Note_off_c, 0, 59, 64
2, 77840, Note_on_c, 0, 62, 80
2, 77904, Note_off_c, 0, 62, 64
2, 77920, Note_on_c, 0, 67, 80
2, 77984, Note_off_c, 0, 67, 64
2, 78000, Note_on_c, 0, 59, 80
2, 78080, Note_on_c, 0, 74, 80
2, 78144, Note_off_c, 0, 74, 64
2, 78160, Note_on_c, 0, 76, 80
2, 78192, Note_off_c, 0, 59, 64
2, 78224, Note_off_c, 0, 76, 64
2, 78240, Note_on_c, 0, 77, 77
2, 78304, Note_off_c, 0, 77, 64
2, 78320, Note_on_c, 0, 76, 81
2, 78384, Note_off_c, 0, 76, 64
2, 78400, Note_on_c, 0, 74, 71
2, 78464, Note_off_c, 0, 74, 64
2, 78480, Note_on_c, 0, 76, 80
2, 78480, Note_on_c, 0, 60, 80
2, 78544, Note_off_c, 0, 60, 64
2, 78560, Note_on_c, 0, 64, 80
2, 78624, Note_off_c, 0, 64, 64
2, 78640, Note_on_c, 0, 67, 80
2, 78672, Note_off_c, 0, 76, 64
2, 78704, Note_off_c, 0, 67, 64
2, 78720, Note_on_c, 0, 60, 80
2, 78800, Note_on_c, 0, 76, 80
2, 78864, Note_off_c, 0, 76, 64
2, 78880, Note_on_c, 0, 77, 80
2, 78912, Note_off_c, 0, 60, 64
2, 78944, Note_off_c, 0, 77, 64
2, 78960, Note_on_c, 0, 79, 71
2, 79024, Note_off_c, 0, 79, 64
2, 79040, Note_on_c, 0, 77, 83
2, 79104, Note_off_c, 0, 77, 64
2, 79120, Note_on_c, 0, 76, 77
2, 79184, Note_off_c, 0, 76, 64
2, 79200, Note_on_c, 0, 53, 71
2, 79200, Note_on_c, 0, 81, 89
2, 79264, Note_off_c, 0, 53, 64
2, 79280, Note_on_c, 0, 57, 61
2, 79344, Note_off_c, 0, 57, 64
2, 79360, Note_on_c, 0, 60, 66
2, 79392, Note_off_c, 0, 81, 64
2, 79424, Note_off_c, 0, 60, 64
2, 79440, Note_on_c, 0, 53, 77
2, 79520, Note_on_c, 0, 81, 58
2, 79584, Note_off_c, 0, 81, 64
2, 79600, Note_on_c, 0, 83, 54
2, 79632, Note_off_c, 0, 53, 64
2, 79664, Note_off_c, 0, 83, 64
2, 79680, Note_on_c, 0, 84, 61
2, 79744, Note_off_c, 0, 84, 64
2, 79760, Note_on_c, 0, 83, 58
2, 79824, Note_off_c, 0, 83, 64
2, 79840, Note_on_c, 0, 81, 71
2, 79904, Note_off_c, 0, 81, 64
2, 79920, Note_on_c, 0, 52, 89
2, 79920, Note_on_c, 0, 79, 83
2, 79984, Note_off_c, 0, 52, 64
2, 80000, Note_on_c, 0, 55, 83
2, 80064, Note_off_c, 0, 55, 64
2, 80080, Note_on_c, 0, 60, 66
2, 80112, Note_off_c, 0, 79, 64
2, 80144, Note_off_c, 0, 60, 64
2, 80160, Note_on_c, 0, 52, 83
2, 80160, Note_on_c, 0, 84, 58
2, 80224, Note_off_c, 0, 84, 64
2, 80240, Note_on_c, 0, 83, 69
2, 80304, Note_off_c, 0, 83, 64
2, 80320, Note_on_c, 0, 81, 71
2, 80352, Note_off_c, 0, 52, 64
2, 80384, Note_off_c, 0, 81, 64
2, 80400, Note_on_c, 0, 79, 71
2, 80464, Note_off_c, 0, 79, 64
2, 80480, Note_on_c, 0, 77, 66
2, 80544, Note_off_c, 0, 77, 64
2, 80560, Note_on_c, 0, 76, 52
2, 80624, Note_off_c, 0, 76, 64
2, 80640, Note_on_c, 0, 53, 45
2, 80640, Note_on_c, 0, 65, 49
2, 80640, Note_on_c, 0, 74, 50
2, 80704, Note_off_c, 0, 74, 64
2, 80720, Note_on_c, 0, 77, 61
2, 80784, Note_off_c, 0, 77, 64
2, 80800, Note_on_c, 0, 81, 77
2, 80832, Note_off_c, 0, 65, 64
2, 80832, Note_off_c, 0, 53, 64
2, 80864, Note_off_c, 0, 81, 64
2, 80880, Note_on_c, 0, 55, 52
2, 80880, Note_on_c, 0, 64, 60
2, 80880, Note_on_c, 0, 72, 83
2, 81072, Note_off_c, 0, 72, 64
2, 81072, Note_off_c, 0, 64, 64
2, 81072, Note_off_c, 0, 55, 64
2, 81120, Note_on_c, 0, 62, 54
2, 81120, Note_on_c, 0, 55, 74
2, 81120, Note_on_c, 0, 71, 83
2, 81312, Note_off_c, 0, 71, 64
2, 81312, Note_off_c, 0, 55, 64
2, 81312, Note_off_c, 0, 62, 64
2, 81360, Note_on_c, 0, 60, 66
2, 81360, Note_on_c, 0, 72, 71
2, 81552, Note_off_c, 0, 60, 64
2, 81600, Note_on_c, 0, 55, 83
2, 81744, Note_off_c, 0, 72, 64
2, 81792, Note_off_c, 0, 55, 64
2, 81840, Note_on_c, 0, 48, 89
2, 82032, Note_off_c, 0, 48, 64
2, 82032, End_track
0, 0, End_of_file
