0, 0, Header, 1, 2, 240
1, 0, Start_track
1, 0, Time_signature, 2, 2, 24, 8
1, 0, Tempo, 800000
1, 0, End_track
2, 0, Start_track
2, 360, Note_on_c, 0, 67, 80
2, 456, Note_off_c, 0, 67, 64
2, 480, Note_on_c, 0, 52, 94
2, 480, Note_on_c, 0, 72, 89
2, 480, Note_on_c, 0, 48, 89
2, 504, Note_off_c, 0, 72, 64
2, 510, Note_on_c, 0, 71, 66
2, 534, Note_off_c, 0, 71, 64
2, 540, Note_on_c, 0, 72, 71
2, 564, Note_off_c, 0, 72, 64
2, 570, Note_on_c, 0, 74, 77
2, 576, Note_off_c, 0, 48, 64
2, 576, Note_off_c, 0, 52, 64
2, 594, Note_off_c, 0, 74, 64
2, 600, Note_on_c, 0, 76, 83
2, 696, Note_off_c, 0, 76, 64
2, 720, Note_on_c, 0, 52, 83
2, 720, Note_on_c, 0, 48, 80
2, 720, Note_on_c, 0, 76, 61
2, 744, Note_off_c, 0, 76, 64
2, 750, Note_on_c, 0, 74, 66
2, 774, Note_off_c, 0, 74, 64
2, 780, Note_on_c, 0, 76, 54
2, 804, Note_off_c, 0, 76, 64
2, 810, Note_on_c, 0, 77, 77
2, 816, Note_off_c, 0, 48, 64
2, 816, Note_off_c, 0, 52, 64
2, 834, Note_off_c, 0, 77, 64
2, 840, Note_on_c, 0, 79, 42
2, 936, Note_off_c, 0, 79, 64
2, 960, Note_on_c, 0, 76, 89
2, 960, Note_on_c, 0, 79, 69
2, 1020, Note_on_c, 0, 48, 80
2, 1068, Note_off_c, 0, 48, 64
2, 1080, Note_on_c, 0, 52, 61
2, 1104, Note_off_c, 0, 79, 64
2, 1104, Note_off_c, 0, 76, 64
2, 1128, Note_off_c, 0, 52, 64
2, 1140, Note_on_c, 0, 55, 66
2, 1140, Note_on_c, 0, 74, 52
2, 1140, Note_on_c, 0, 77, 56
2, 1188, Note_off_c, 0, 77, 64
2, 1188, Note_off_c, 0, 74, 64
2, 1188, Note_off_c, 0, 55, 64
2, 1200, Note_on_c, 0, 60, 71
2, 1200, Note_on_c, 0, 76, 47
2, 1200, Note_on_c, 0, 72, 80
2, 1296, Note_off_c, 0, 72, 64
2, 1296, Note_off_c, 0, 76, 64
2, 1296, Note_off_c, 0, 60, 64
2, 1320, Note_on_c, 0, 64, 89
2, 1320, Note_on_c, 0, 67, 77
2, 1368, Note_off_c, 0, 67, 64
2, 1380, Note_on_c, 0, 72, 54
2, 1416, Note_off_c, 0, 64, 64
2, 1428, Note_off_c, 0, 72, 64
2, 1440, Note_on_c, 0, 65, 66
2, 1440, Note_on_c, 0, 69, 83
2, 1536, Note_off_c, 0, 69, 64
2, 1536, Note_off_c, 0, 65, 64
2, 1560, Note_on_c, 0, 67, 54
2, 1560, Note_on_c, 0, 64, 81
2, 1608, Note_off_c, 0, 67, 64
2, 1620, Note_on_c, 0, 72, 42
2, 1656, Note_off_c, 0, 64, 64
2, 1668, Note_off_c, 0, 72, 64
2, 1680, Note_on_c, 0, 62, 71
2, 1680, Note_on_c, 0, 67, 61
2, 1776, Note_off_c, 0, 67, 64
2, 1776, Note_off_c, 0, 62, 64
2, 1800, Note_on_c, 0, 55, 52
2, 1800, Note_on_c, 0, 65, 50
2, 1896, Note_off_c, 0, 65, 64
2, 1896, Note_off_c, 0, 55, 64
2, 1920, Note_on_c, 0, 60, 58
2, 1920, Note_on_c, 0, 64, 71
2, 2016, Note_off_c, 0, 60, 64
2, 2040, Note_on_c, 0, 55, 71
2, 2112, Note_off_c, 0, 64, 64
2, 2136, Note_off_c, 0, 55, 64
2, 2160, Note_on_c, 0, 48, 71
2, 2280, Note_on_c, 0, 67, 80
2, 2352, Note_off_c, 0, 48, 64
2, 2376, Note_off_c, 0, 67, 64
2, 2400, Note_on_c, 0, 48, 53
2, 2400, Note_on_c, 0, 72, 89
2, 2400, Note_on_c, 0, 52, 77
2, 2424, Note_off_c, 0, 72, 64
2, 2430, Note_on_c, 0, 71, 66
2, 2454, Note_off_c, 0, 71, 64
2, 2460, Note_on_c, 0, 72, 71
2, 2484, Note_off_c, 0, 72, 64
2, 2490, Note_on_c, 0, 74, 77
2, 2496, Note_off_c, 0, 52, 64
2, 2496, Note_off_c, 0, 48, 64
2, 2514, Note_off_c, 0, 74, 64
2, 2520, Note_on_c, 0, 76, 83
2, 2616, Note_off_c, 0, 76, 64
2, 2640, Note_on_c, 0, 52, 80
2, 2640, Note_on_c, 0, 48, 80
2, 2640, Note_on_c, 0, 76, 61
2, 2664, Note_off_c, 0, 76, 64
2, 2670, Note_on_c, 0, 74, 66
2, 2694, Note_off_c, 0, 74, 64
2, 2700, Note_on_c, 0, 76, 54
2, 2724, Note_off_c, 0, 76, 64
2, 2730, Note_on_c, 0, 77, 77
2, 2736, Note_off_c, 0, 48, 64
2, 2736, Note_off_c, 0, 52, 64
2, 2754, Note_off_c, 0, 77, 64
2, 2760, Note_on_c, 0, 79, 42
2, 2856, Note_off_c, 0, 79, 64
2, 2880, Note_on_c, 0, 76, 89
2, 2880, Note_on_c, 0, 79, 69
2, 2940, Note_on_c, 0, 48, 71
2, 2988, Note_off_c, 0, 48, 64
2, 3000, Note_on_c, 0, 52, 66
2, 3024, Note_off_c, 0, 79, 64
2, 3024, Note_off_c, 0, 76, 64
2, 3048, Note_off_c, 0, 52, 64
2, 3060, Note_on_c, 0, 77, 56
2, 3060, Note_on_c, 0, 74, 52
2, 3060, Note_on_c, 0, 55, 66
2, 3108, Note_off_c, 0, 55, 64
2, 3108, Note_off_c, 0, 74, 64
2, 3108, Note_off_c, 0, 77, 64
2, 3120, Note_on_c, 0, 60, 58
2, 3120, Note_on_c, 0, 72, 65
2, 3120, Note_on_c, 0, 76, 86
2, 3216, Note_off_c, 0, 76, 64
2, 3216, Note_off_c, 0, 72, 64
2, 3240, Note_on_c, 0, 84, 61
2, 3288, Note_off_c, 0, 84, 64
2, 3300, Note_on_c, 0, 79, 61
2, 3312, Note_off_c, 0, 60, 64
2, 3348, Note_off_c, 0, 79, 64
2, 3360, Note_on_c, 0, 79, 66
2, 3360, Note_on_c, 0, 55, 80
2, 3360, Note_on_c, 0, 62, 80
2, 3372, Note_off_c, 0, 79, 64
2, 3375, Note_on_c, 0, 77, 58
2, 3387, Note_off_c, 0, 77, 64
2, 3390, Note_on_c, 0, 79, 61
2, 3402, Note_off_c, 0, 79, 64
2, 3405, Note_on_c, 0, 77, 43
2, 3417, Note_off_c, 0, 77, 64
2, 3420, Note_on_c, 0, 79, 54
2, 3432, Note_off_c, 0, 79, 64
2, 3435, Note_on_c, 0, 77, 43
2, 3447, Note_off_c, 0, 77, 64
2, 3450, Note_on_c, 0, 79, 54
2, 3456, Note_off_c, 0, 62, 64
2, 3462, Note_off_c, 0, 79, 64
2, 3465, Note_on_c, 0, 77, 52
2, 3477, Note_off_c, 0, 77, 64
2, 3480, Note_on_c, 0, 60, 80
2, 3480, Note_on_c, 0, 76, 83
2, 3576, Note_off_c, 0, 76, 64
2, 3576, Note_off_c, 0, 60, 64
2, 3600, Note_on_c, 0, 76, 52
2, 3600, Note_on_c, 0, 65, 80
2, 3612, Note_off_c, 0, 76, 64
2, 3615, Note_on_c, 0, 74, 44
2, 3627, Note_off_c, 0, 74, 64
2, 3630, Note_on_c, 0, 76, 50
2, 3642, Note_off_c, 0, 76, 64
2, 3645, Note_on_c, 0, 74, 50
2, 3657, Note_off_c, 0, 74, 64
2, 3660, Note_on_c, 0, 76, 50
2, 3672, Note_off_c, 0, 76, 64
2, 3675, Note_on_c, 0, 74, 42
2, 3687, Note_off_c, 0, 74, 64
2, 3690, Note_on_c, 0, 76, 54
2, 3696, Note_off_c, 0, 65, 64
2, 3702, Note_off_c, 0, 76, 64
2, 3705, Note_on_c, 0, 74, 42
2, 3717, Note_off_c, 0, 74, 64
2, 3720, Note_on_c, 0, 72, 97
2, 3720, Note_on_c, 0, 64, 80
2, 3816, Note_off_c, 0, 55, 64
2, 3816, Note_off_c, 0, 64, 64
2, 3816, Note_off_c, 0, 72, 64
2, 3840, Note_on_c, 0, 62, 89
2, 3840, Note_on_c, 0, 55, 80
2, 3840, Note_on_c, 0, 71, 45
2, 3872, Note_off_c, 0, 71, 64
2, 3880, Note_on_c, 0, 72, 66
2, 3912, Note_off_c, 0, 72, 64
2, 3920, Note_on_c, 0, 74, 71
2, 3952, Note_off_c, 0, 74, 64
2, 3960, Note_on_c, 0, 67, 50
2, 4032, Note_off_c, 0, 55, 64
2, 4032, Note_off_c, 0, 62, 64
2, 4056, Note_off_c, 0, 67, 64
2, 4200, Note_on_c, 0, 74, 80
2, 4296, Note_off_c, 0, 74, 64
2, 4320, Note_on_c, 0, 79, 66
2, 4344, Note_off_c, 0, 79, 64
2, 4350, Note_on_c, 0, 78, 47
2, 4374, Note_off_c, 0, 78, 64
2, 4380, Note_on_c, 0, 79, 66
2, 4404, Note_off_c, 0, 79, 64
2, 4410, Note_on_c, 0, 81, 89
2, 4434, Note_off_c, 0, 81, 64
2, 4440, Note_on_c, 0, 83, 44
2, 4440, Note_on_c, 0, 55, 65
2, 4440, Note_on_c, 0, 62, 53
2, 4536, Note_off_c, 0, 62, 64
2, 4536, Note_off_c, 0, 55, 64
2, 4536, Note_off_c, 0, 83, 64
2, 4560, Note_on_c, 0, 55, 83
2, 4560, Note_on_c, 0, 62, 69
2, 4656, Note_off_c, 0, 62, 64
2, 4656, Note_off_c, 0, 55, 64
2, 4680, Note_on_c, 0, 62, 71
2, 4680, Note_on_c, 0, 55, 64
2, 4680, Note_on_c, 0, 83, 71
2, 4776, Note_off_c, 0, 83, 64
2, 4776, Note_off_c, 0, 55, 64
2, 4776, Note_off_c, 0, 62, 64
2, 4800, Note_on_c, 0, 84, 58
2, 4824, Note_off_c, 0, 84, 64
2, 4830, Note_on_c, 0, 83, 61
2, 4854, Note_off_c, 0, 83, 64
2, 4860, Note_on_c, 0, 81, 54
2, 4884, Note_off_c, 0, 81, 64
2, 4890, Note_on_c, 0, 83, 58
2, 4914, Note_off_c, 0, 83, 64
2, 4920, Note_on_c, 0, 81, 58
2, 4920, Note_on_c, 0, 54, 66
2, 4920, Note_on_c, 0, 62, 44
2, 5016, Note_off_c, 0, 62, 64
2, 5016, Note_off_c, 0, 54, 64
2, 5016, Note_off_c, 0, 81, 64
2, 5040, Note_on_c, 0, 54, 43
2, 5040, Note_on_c, 0, 62, 53
2, 5136, Note_off_c, 0, 62, 64
2, 5136, Note_off_c, 0, 54, 64
2, 5160, Note_on_c, 0, 54, 42
2, 5160, Note_on_c, 0, 62, 44
2, 5160, Note_on_c, 0, 74, 80
2, 5256, Note_off_c, 0, 74, 64
2, 5256, Note_off_c, 0, 62, 64
2, 5256, Note_off_c, 0, 54, 64
2, 5280, Note_on_c, 0, 78, 83
2, 5304, Note_off_c, 0, 78, 64
2, 5310, Note_on_c, 0, 76, 89
2, 5334, Note_off_c, 0, 76, 64
2, 5340, Note_on_c, 0, 78, 77
2, 5364, Note_off_c, 0, 78, 64
2, 5370, Note_on_c, 0, 79, 77
2, 5394, Note_off_c, 0, 79, 64
2, 5400, Note_on_c, 0, 81, 61
2, 5400, Note_on_c, 0, 54, 52
2, 5400, Note_on_c, 0, 62, 43
2, 5496, Note_off_c, 0, 62, 64
2, 5496, Note_off_c, 0, 54, 64
2, 5496, Note_off_c, 0, 81, 64
2, 5520, Note_on_c, 0, 54, 44
2, 5520, Note_on_c, 0, 62, 52
2, 5616, Note_off_c, 0, 62, 64
2, 5616, Note_off_c, 0, 54, 64
2, 5640, Note_on_c, 0, 54, 52
2, 5640, Note_on_c, 0, 62, 52
2, 5640, Note_on_c, 0, 72, 50
2, 5736, Note_off_c, 0, 72, 64
2, 5736, Note_off_c, 0, 62, 64
2, 5736, Note_off_c, 0, 54, 64
2, 5760, Note_on_c, 0, 71, 66
2, 5784, Note_off_c, 0, 71, 64
2, 5790, Note_on_c, 0, 69, 61
2, 5814, Note_off_c, 0, 69, 64
2, 5820, Note_on_c, 0, 71, 66
2, 5844, Note_off_c, 0, 71, 64
2, 5850, Note_on_c, 0, 72, 77
2, 5874, Note_off_c, 0, 72, 64
2, 5880, Note_on_c, 0, 55, 42
2, 5880, Note_on_c, 0, 74, 47
2, 5880, Note_on_c, 0, 59, 54
2, 5976, Note_off_c, 0, 59, 64
2, 5976, Note_off_c, 0, 74, 64
2, 5976, Note_off_c, 0, 55, 64
2, 6000, Note_on_c, 0, 59, 45
2, 6000, Note_on_c, 0, 55, 43
2, 6096, Note_off_c, 0, 55, 64
2, 6096, Note_off_c, 0, 59, 64
2, 6120, Note_on_c, 0, 55, 43
2, 6120, Note_on_c, 0, 59, 42
2, 6120, Note_on_c, 0, 74, 77
2, 6168, Note_off_c, 0, 74, 64
2, 6180, Note_on_c, 0, 79, 61
2, 6216, Note_off_c, 0, 59, 64
2, 6216, Note_off_c, 0, 55, 64
2, 6228, Note_off_c, 0, 79, 64
2, 6240, Note_on_c, 0, 60, 60
2, 6240, Note_on_c, 0, 78, 54
2, 6240, Note_on_c, 0, 55, 50
2, 6252, Note_off_c, 0, 78, 64
2, 6255, Note_on_c, 0, 76, 77
2, 6267, Note_off_c, 0, 76, 64
2, 6270, Note_on_c, 0, 78, 77
2, 6282, Note_off_c, 0, 78, 64
2, 6285, Note_on_c, 0, 76, 71
2, 6297, Note_off_c, 0, 76, 64
2, 6300, Note_on_c, 0, 78, 77
2, 6312, Note_off_c, 0, 78, 64
2, 6315, Note_on_c, 0, 76, 61
2, 6327, Note_off_c, 0, 76, 64
2, 6330, Note_on_c, 0, 78, 83
2, 6336, Note_off_c, 0, 60, 64
2, 6342, Note_off_c, 0, 78, 64
2, 6345, Note_on_c, 0, 76, 66
2, 6357, Note_off_c, 0, 76, 64
2, 6360, Note_on_c, 0, 74, 54
2, 6360, Note_on_c, 0, 59, 49
2, 6456, Note_off_c, 0, 59, 64
2, 6456, Note_off_c, 0, 74, 64
2, 6480, Note_on_c, 0, 76, 89
2, 6480, Note_on_c, 0, 60, 50
2, 6528, Note_off_c, 0, 76, 64
2, 6540, Note_on_c, 0, 79, 83
2, 6576, Note_off_c, 0, 60, 64
2, 6588, Note_off_c, 0, 79, 64
2, 6600, Note_on_c, 0, 78, 95
2, 6600, Note_on_c, 0, 57, 60
2, 6648, Note_off_c, 0, 78, 64
2, 6660, Note_on_c, 0, 81, 54
2, 6696, Note_off_c, 0, 55, 64
2, 6696, Note_off_c, 0, 57, 64
2, 6708, Note_off_c, 0, 81, 64
2, 6720, Note_on_c, 0, 55, 58
2, 6720, Note_on_c, 0, 59, 53
2, 6720, Note_on_c, 0, 79, 80
2, 6864, Note_off_c, 0, 79, 64
2, 6900, Note_on_c, 0, 83, 71
2, 6912, Note_off_c, 0, 59, 64
2, 6912, Note_off_c, 0, 55, 64
2, 6948, Note_off_c, 0, 83, 64
2, 6960, Note_on_c, 0, 79, 61
2, 7056, Note_off_c, 0, 79, 64
2, 7080, Note_on_c, 0, 59, 42
2, 7080, Note_on_c, 0, 71, 66
2, 7176, Note_off_c, 0, 71, 64
2, 7176, Note_off_c, 0, 59, 64
2, 7200, Note_on_c, 0, 74, 66
2, 7200, Note_on_c, 0, 62, 71
2, 7248, Note_off_c, 0, 62, 64
2, 7248, Note_off_c, 0, 74, 64
2, 7260, Note_on_c, 0, 72, 71
2, 7260, Note_on_c, 0, 60, 61
2, 7308, Note_off_c, 0, 60, 64
2, 7308, Note_off_c, 0, 72, 64
2, 7320, Note_on_c, 0, 59, 83
2, 7320, Note_on_c, 0, 71, 66
2, 7368, Note_off_c, 0, 71, 64
2, 7368, Note_off_c, 0, 59, 64
2, 7380, Note_on_c, 0, 69, 71
2, 7380, Note_on_c, 0, 57, 61
2, 7428, Note_off_c, 0, 57, 64
2, 7428, Note_off_c, 0, 69, 64
2, 7440, Note_on_c, 0, 62, 54
2, 7440, Note_on_c, 0, 74, 58
2, 7536, Note_off_c, 0, 74, 64
2, 7536, Note_off_c, 0, 62, 64
2, 7560, Note_on_c, 0, 62, 71
2, 7560, Note_on_c, 0, 74, 71
2, 7656, Note_off_c, 0, 74, 64
2, 7656, Note_off_c, 0, 62, 64
2, 7680, Note_on_c, 0, 67, 77
2, 7680, Note_on_c, 0, 55, 77
2, 7872, Note_off_c, 0, 55, 64
2, 7872, Note_off_c, 0, 67, 64
2, 7920, Note_on_c, 0, 54, 66
2, 7920, Note_on_c, 0, 74, 71
2, 7932, Note_off_c, 0, 74, 64
2, 7935, Note_on_c, 0, 72, 54
2, 7947, Note_off_c, 0, 72, 64
2, 7950, Note_on_c, 0, 74, 42
2, 7962, Note_off_c, 0, 74, 64
2, 7965, Note_on_c, 0, 72, 41
2, 7968, Note_off_c, 0, 54, 64
2, 7977, Note_off_c, 0, 72, 64
2, 7980, Note_on_c, 0, 62, 58
2, 7980, Note_on_c, 0, 74, 50
2, 7992, Note_off_c, 0, 74, 64
2, 7995, Note_on_c, 0, 72, 46
2, 8007, Note_off_c, 0, 72, 64
2, 8010, Note_on_c, 0, 74, 47
2, 8022, Note_off_c, 0, 74, 64
2, 8025, Note_on_c, 0, 72, 43
2, 8028, Note_off_c, 0, 62, 64
2, 8037, Note_off_c, 0, 72, 64
2, 8040, Note_on_c, 0, 54, 54
2, 8040, Note_on_c, 0, 74, 47
2, 8052, Note_off_c, 0, 74, 64
2, 8055, Note_on_c, 0, 72, 45
2, 8067, Note_off_c, 0, 72, 64
2, 8070, Note_on_c, 0, 74, 46
2, 8082, Note_off_c, 0, 74, 64
2, 8085, Note_on_c, 0, 72, 31
2, 8088, Note_off_c, 0, 54, 64
2, 8097, Note_off_c, 0, 72, 64
2, 8100, Note_on_c, 0, 62, 58
2, 8100, Note_on_c, 0, 74, 43
2, 8112, Note_off_c, 0, 74, 64
2, 8115, Note_on_c, 0, 72, 42
2, 8127, Note_off_c, 0, 72, 64
2, 8130, Note_on_c, 0, 74, 46
2, 8142, Note_off_c, 0, 74, 64
2, 8145, Note_on_c, 0, 72, 42
2, 8148, Note_off_c, 0, 62, 64
2, 8157, Note_off_c, 0, 72, 64
2, 8160, Note_on_c, 0, 71, 66
2, 8160, Note_on_c, 0, 55, 66
2, 8208, Note_off_c, 0, 55, 64
2, 8220, Note_on_c, 0, 62, 50
2, 8268, Note_off_c, 0, 62, 64
2, 8280, Note_on_c, 0, 55, 54
2, 8328, Note_off_c, 0, 55, 64
2, 8340, Note_on_c, 0, 62, 66
2, 8352, Note_off_c, 0, 71, 64
2, 8388, Note_off_c, 0, 62, 64
2, 8400, Note_on_c, 0, 54, 71
2, 8400, Note_on_c, 0, 74, 77
2, 8448, Note_off_c, 0, 74, 64
2, 8448, Note_off_c, 0, 54, 64
2, 8460, Note_on_c, 0, 62, 66
2, 8460, Note_on_c, 0, 78, 42
2, 8508, Note_off_c, 0, 78, 64
2, 8508, Note_off_c, 0, 62, 64
2, 8520, Note_on_c, 0, 54, 77
2, 8520, Note_on_c, 0, 81, 47
2, 8568, Note_off_c, 0, 81, 64
2, 8568, Note_off_c, 0, 54, 64
2, 8580, Note_on_c, 0, 62, 58
2, 8580, Note_on_c, 0, 84, 71
2, 8628, Note_off_c, 0, 84, 64
2, 8628, Note_off_c, 0, 62, 64
2, 8640, Note_on_c, 0, 83, 71
2, 8640, Note_on_c, 0, 55, 71
2, 8688, Note_off_c, 0, 55, 64
2, 8700, Note_on_c, 0, 62, 58
2, 8736, Note_off_c, 0, 83, 64
2, 8748, Note_off_c, 0, 62, 64
2, 8760, Note_on_c, 0, 55, 58
2, 8760, Note_on_c, 0, 79, 71
2, 8808, Note_off_c, 0, 55, 64
2, 8820, Note_on_c, 0, 62, 61
2, 8856, Note_off_c, 0, 79, 64
2, 8868, Note_off_c, 0, 62, 64
2, 8880, Note_on_c, 0, 54, 83
2, 8880, Note_on_c, 0, 74, 71
2, 8892, Note_off_c, 0, 74, 64
2, 8895, Note_on_c, 0, 72, 54
2, 8907, Note_off_c, 0, 72, 64
2, 8910, Note_on_c, 0, 74, 42
2, 8922, Note_off_c, 0, 74, 64
2, 8925, Note_on_c, 0, 72, 41
2, 8928, Note_off_c, 0, 54, 64
2, 8937, Note_off_c, 0, 72, 64
2, 8940, Note_on_c, 0, 62, 66
2, 8940, Note_on_c, 0, 74, 50
2, 8952, Note_off_c, 0, 74, 64
2, 8955, Note_on_c, 0, 72, 46
2, 8967, Note_off_c, 0, 72, 64
2, 8970, Note_on_c, 0, 74, 47
2, 8982, Note_off_c, 0, 74, 64
2, 8985, Note_on_c, 0, 72, 43
2, 8988, Note_off_c, 0, 62, 64
2, 8997, Note_off_c, 0, 72, 64
2, 9000, Note_on_c, 0, 54, 66
2, 9000, Note_on_c, 0, 74, 47
2, 9012, Note_off_c, 0, 74, 64
2, 9015, Note_on_c, 0, 72, 45
2, 9027, Note_off_c, 0, 72, 64
2, 9030, Note_on_c, 0, 74, 46
2, 9042, Note_off_c, 0, 74, 64
2, 9045, Note_on_c, 0, 72, 31
2, 9048, Note_off_c, 0, 54, 64
2, 9057, Note_off_c, 0, 72, 64
2, 9060, Note_on_c, 0, 62, 71
2, 9060, Note_on_c, 0, 74, 43
2, 9072, Note_off_c, 0, 74, 64
2, 9075, Note_on_c, 0, 72, 42
2, 9087, Note_off_c, 0, 72, 64
2, 9090, Note_on_c, 0, 74, 46
2, 9102, Note_off_c, 0, 74, 64
2, 9105, Note_on_c, 0, 72, 42
2, 9108, Note_off_c, 0, 62, 64
2, 9117, Note_off_c, 0, 72, 64
2, 9120, Note_on_c, 0, 71, 89
2, 9120, Note_on_c, 0, 55, 77
2, 9168, Note_off_c, 0, 55, 64
2, 9180, Note_on_c, 0, 62, 61
2, 9228, Note_off_c, 0, 62, 64
2, 9240, Note_on_c, 0, 55, 61
2, 9288, Note_off_c, 0, 55, 64
2, 9300, Note_on_c, 0, 62, 61
2, 9312, Note_off_c, 0, 71, 64
2, 9348, Note_off_c, 0, 62, 64
2, 9360, Note_on_c, 0, 54, 71
2, 9360, Note_on_c, 0, 81, 71
2, 9408, Note_off_c, 0, 54, 64
2, 9420, Note_on_c, 0, 62, 71
2, 9468, Note_off_c, 0, 62, 64
2, 9480, Note_on_c, 0, 54, 71
2, 9504, Note_off_c, 0, 81, 64
2, 9528, Note_off_c, 0, 54, 64
2, 9540, Note_on_c, 0, 62, 77
2, 9540, Note_on_c, 0, 72, 83
2, 9588, Note_off_c, 0, 72, 64
2, 9588, Note_off_c, 0, 62, 64
2, 9600, Note_on_c, 0, 55, 77
2, 9600, Note_on_c, 0, 71, 77
2, 9632, Note_off_c, 0, 71, 64
2, 9640, Note_on_c, 0, 69, 77
2, 9672, Note_off_c, 0, 69, 64
2, 9680, Note_on_c, 0, 67, 89
2, 9696, Note_off_c, 0, 55, 64
2, 9712, Note_off_c, 0, 67, 64
2, 9720, Note_on_c, 0, 76, 83
2, 9720, Note_on_c, 0, 60, 89
2, 9752, Note_off_c, 0, 76, 64
2, 9760, Note_on_c, 0, 74, 83
2, 9792, Note_off_c, 0, 74, 64
2, 9800, Note_on_c, 0, 72, 89
2, 9816, Note_off_c, 0, 60, 64
2, 9832, Note_off_c, 0, 72, 64
2, 9840, Note_on_c, 0, 62, 66
2, 9840, Note_on_c, 0, 71, 61
2, 9936, Note_off_c, 0, 71, 64
2, 9936, Note_off_c, 0, 62, 64
2, 9960, Note_on_c, 0, 71, 58
2, 9960, Note_on_c, 0, 50, 77
2, 9972, Note_off_c, 0, 71, 64
2, 9975, Note_on_c, 0, 69, 58
2, 9987, Note_off_c, 0, 69, 64
2, 9990, Note_on_c, 0, 71, 58
2, 10002, Note_off_c, 0, 71, 64
2, 10005, Note_on_c, 0, 69, 50
2, 10017, Note_off_c, 0, 69, 64
2, 10020, Note_on_c, 0, 71, 58
2, 10032, Note_off_c, 0, 71, 64
2, 10035, Note_on_c, 0, 69, 50
2, 10047, Note_off_c, 0, 69, 64
2, 10050, Note_on_c, 0, 71, 46
2, 10056, Note_off_c, 0, 50, 64
2, 10062, Note_off_c, 0, 71, 64
2, 10065, Note_on_c, 0, 69, 50
2, 10077, Note_off_c, 0, 69, 64
2, 10080, Note_on_c, 0, 55, 80
2, 10080, Note_on_c, 0, 67, 89
2, 10176, Note_off_c, 0, 55, 64
2, 10200, Note_on_c, 0, 50, 80
2, 10272, Note_off_c, 0, 67, 64
2, 10296, Note_off_c, 0, 50, 64
2, 10320, Note_on_c, 0, 43, 80
2, 10416, Note_off_c, 0, 43, 64
2, 10440, Note_on_c, 0, 67, 80
2, 10536, Note_off_c, 0, 67, 64
2, 10560, Note_on_c, 0, 52, 94
2, 10560, Note_on_c, 0, 72, 89
2, 10560, Note_on_c, 0, 48, 89
2, 10584, Note_off_c, 0, 72, 64
2, 10590, Note_on_c, 0, 71, 66
2, 10614, Note_off_c, 0, 71, 64
2, 10620, Note_on_c, 0, 72, 71
2, 10644, Note_off_c, 0, 72, 64
2, 10650, Note_on_c, 0, 74, 77
2, 10656, Note_off_c, 0, 48, 64
2, 10656, Note_off_c, 0, 52, 64
2, 10674, Note_off_c, 0, 74, 64
2, 10680, Note_on_c, 0, 76, 83
2, 10776, Note_off_c, 0, 76, 64
2, 10800, Note_on_c, 0, 52, 83
2, 10800, Note_on_c, 0, 48, 80
2, 10800, Note_on_c, 0, 76, 61
2, 10824, Note_off_c, 0, 76, 64
2, 10830, Note_on_c, 0, 74, 66
2, 10854, Note_off_c, 0, 74, 64
2, 10860, Note_on_c, 0, 76, 54
2, 10884, Note_off_c, 0, 76, 64
2, 10890, Note_on_c, 0, 77, 77
2, 10896, Note_off_c, 0, 48, 64
2, 10896, Note_off_c, 0, 52, 64
2, 10914, Note_off_c, 0, 77, 64
2, 10920, Note_on_c, 0, 79, 42
2, 11016, Note_off_c, 0, 79, 64
2, 11040, Note_on_c, 0, 76, 89
2, 11040, Note_on_c, 0, 79, 69
2, 11100, Note_on_c, 0, 48, 80
2, 11148, Note_off_c, 0, 48, 64
2, 11160, Note_on_c, 0, 52, 61
2, 11184, Note_off_c, 0, 79, 64
2, 11184, Note_off_c, 0, 76, 64
2, 11208, Note_off_c, 0, 52, 64
2, 11220, Note_on_c, 0, 55, 66
2, 11220, Note_on_c, 0, 74, 52
2, 11220, Note_on_c, 0, 77, 56
2, 11268, Note_off_c, 0, 77, 64
2, 11268, Note_off_c, 0, 74, 64
2, 11268, Note_off_c, 0, 55, 64
2, 11280, Note_on_c, 0, 60, 71
2, 11280, Note_on_c, 0, 76, 47
2, 11280, Note_on_c, 0, 72, 80
2, 11376, Note_off_c, 0, 72, 64
2, 11376, Note_off_c, 0, 76, 64
2, 11376, Note_off_c, 0, 60, 64
2, 11400, Note_on_c, 0, 64, 89
2, 11400, Note_on_c, 0, 67, 77
2, 11448, Note_off_c, 0, 67, 64
2, 11460, Note_on_c, 0, 72, 54
2, 11496, Note_off_c, 0, 64, 64
2, 11508, Note_off_c, 0, 72, 64
2, 11520, Note_on_c, 0, 65, 66
2, 11520, Note_on_c, 0, 69, 83
2, 11616, Note_off_c, 0, 69, 64
2, 11616, Note_off_c, 0, 65, 64
2, 11640, Note_on_c, 0, 67, 54
2, 11640, Note_on_c, 0, 64, 81
2, 11688, Note_off_c, 0, 67, 64
2, 11700, Note_on_c, 0, 72, 42
2, 11736, Note_off_c, 0, 64, 64
2, 11748, Note_off_c, 0, 72, 64
2, 11760, Note_on_c, 0, 62, 71
2, 11760, Note_on_c, 0, 67, 61
2, 11856, Note_off_c, 0, 67, 64
2, 11856, Note_off_c, 0, 62, 64
2, 11880, Note_on_c, 0, 55, 52
2, 11880, Note_on_c, 0, 65, 50
2, 11976, Note_off_c, 0, 65, 64
2, 11976, Note_off_c, 0, 55, 64
2, 12000, Note_on_c, 0, 60, 58
2, 12000, Note_on_c, 0, 64, 71
2, 12096, Note_off_c, 0, 60, 64
2, 12120, Note_on_c, 0, 55, 71
2, 12192, Note_off_c, 0, 64, 64
2, 12216, Note_off_c, 0, 55, 64
2, 12240, Note_on_c, 0, 48, 71
2, 12360, Note_on_c, 0, 67, 80
2, 12432, Note_off_c, 0, 48, 64
2, 12456, Note_off_c, 0, 67, 64
2, 12480, Note_on_c, 0, 48, 53
2, 12480, Note_on_c, 0, 72, 89
2, 12480, Note_on_c, 0, 52, 77
2, 12504, Note_off_c, 0, 72, 64
2, 12510, Note_on_c, 0, 71, 66
2, 12534, Note_off_c, 0, 71, 64
2, 12540, Note_on_c, 0, 72, 71
2, 12564, Note_off_c, 0, 72, 64
2, 12570, Note_on_c, 0, 74, 77
2, 12576, Note_off_c, 0, 52, 64
2, 12576, Note_off_c, 0, 48, 64
2, 12594, Note_off_c, 0, 74, 64
2, 12600, Note_on_c, 0, 76, 83
2, 12696, Note_off_c, 0, 76, 64
2, 12720, Note_on_c, 0, 52, 80
2, 12720, Note_on_c, 0, 48, 80
2, 12720, Note_on_c, 0, 76, 61
2, 12744, Note_off_c, 0, 76, 64
2, 12750, Note_on_c, 0, 74, 66
2, 12774, Note_off_c, 0, 74, 64
2, 12780, Note_on_c, 0, 76, 54
2, 12804, Note_off_c, 0, 76, 64
2, 12810, Note_on_c, 0, 77, 77
2, 12816, Note_off_c, 0, 48, 64
2, 12816, Note_off_c, 0, 52, 64
2, 12834, Note_off_c, 0, 77, 64
2, 12840, Note_on_c, 0, 79, 42
2, 12936, Note_off_c, 0, 79, 64
2, 12960, Note_on_c, 0, 76, 89
2, 12960, Note_on_c, 0, 79, 69
2, 13020, Note_on_c, 0, 48, 71
2, 13068, Note_off_c, 0, 48, 64
2, 13080, Note_on_c, 0, 52, 66
2, 13104, Note_off_c, 0, 79, 64
2, 13104, Note_off_c, 0, 76, 64
2, 13128, Note_off_c, 0, 52, 64
2, 13140, Note_on_c, 0, 77, 56
2, 13140, Note_on_c, 0, 74, 52
2, 13140, Note_on_c, 0, 55, 66
2, 13188, Note_off_c, 0, 55, 64
2, 13188, Note_off_c, 0, 74, 64
2, 13188, Note_off_c, 0, 77, 64
2, 13200, Note_on_c, 0, 60, 58
2, 13200, Note_on_c, 0, 72, 65
2, 13200, Note_on_c, 0, 76, 86
2, 13296, Note_off_c, 0, 76, 64
2, 13296, Note_off_c, 0, 72, 64
2, 13320, Note_on_c, 0, 84, 61
2, 13368, Note_off_c, 0, 84, 64
2, 13380, Note_on_c, 0, 79, 61
2, 13392, Note_off_c, 0, 60, 64
2, 13428, Note_off_c, 0, 79, 64
2, 13440, Note_on_c, 0, 79, 66
2, 13440, Note_on_c, 0, 55, 80
2, 13440, Note_on_c, 0, 62, 80
2, 13452, Note_off_c, 0, 79, 64
2, 13455, Note_on_c, 0, 77, 58
2, 13467, Note_off_c, 0, 77, 64
2, 13470, Note_on_c, 0, 79, 61
2, 13482, Note_off_c, 0, 79, 64
2, 13485, Note_on_c, 0, 77, 43
2, 13497, Note_off_c, 0, 77, 64
2, 13500, Note_on_c, 0, 79, 54
2, 13512, Note_off_c, 0, 79, 64
2, 13515, Note_on_c, 0, 77, 43
2, 13527, Note_off_c, 0, 77, 64
2, 13530, Note_on_c, 0, 79, 54
2, 13536, Note_off_c, 0, 62, 64
2, 13542, Note_off_c, 0, 79, 64
2, 13545, Note_on_c, 0, 77, 52
2, 13557, Note_off_c, 0, 77, 64
2, 13560, Note_on_c, 0, 60, 80
2, 13560, Note_on_c, 0, 76, 83
2, 13656, Note_off_c, 0, 76, 64
2, 13656, Note_off_c, 0, 60, 64
2, 13680, Note_on_c, 0, 76, 52
2, 13680, Note_on_c, 0, 65, 80
2, 13692, Note_off_c, 0, 76, 64
2, 13695, Note_on_c, 0, 74, 44
2, 13707, Note_off_c, 0, 74, 64
2, 13710, Note_on_c, 0, 76, 50
2, 13722, Note_off_c, 0, 76, 64
2, 13725, Note_on_c, 0, 74, 50
2, 13737, Note_off_c, 0, 74, 64
2, 13740, Note_on_c, 0, 76, 50
2, 13752, Note_off_c, 0, 76, 64
2, 13755, Note_on_c, 0, 74, 42
2, 13767, Note_off_c, 0, 74, 64
2, 13770, Note_on_c, 0, 76, 54
2, 13776, Note_off_c, 0, 65, 64
2, 13782, Note_off_c, 0, 76, 64
2, 13785, Note_on_c, 0, 74, 42
2, 13797, Note_off_c, 0, 74, 64
2, 13800, Note_on_c, 0, 72, 97
2, 13800, Note_on_c, 0, 64, 80
2, 13896, Note_off_c, 0, 55, 64
2, 13896, Note_off_c, 0, 64, 64
2, 13896, Note_off_c, 0, 72, 64
2, 13920, Note_on_c, 0, 62, 89
2, 13920, Note_on_c, 0, 55, 80
2, 13920, Note_on_c, 0, 71, 45
2, 13952, Note_off_c, 0, 71, 64
2, 13960, Note_on_c, 0, 72, 66
2, 13992, Note_off_c, 0, 72, 64
2, 14000, Note_on_c, 0, 74, 71
2, 14032, Note_off_c, 0, 74, 64
2, 14040, Note_on_c, 0, 67, 50
2, 14112, Note_off_c, 0, 55, 64
2, 14112, Note_off_c, 0, 62, 64
2, 14136, Note_off_c, 0, 67, 64
2, 14280, Note_on_c, 0, 74, 80
2, 14376, Note_off_c, 0, 74, 64
2, 14400, Note_on_c, 0, 79, 66
2, 14424, Note_off_c, 0, 79, 64
2, 14430, Note_on_c, 0, 78, 47
2, 14454, Note_off_c, 0, 78, 64
2, 14460, Note_on_c, 0, 79, 66
2, 14484, Note_off_c, 0, 79, 64
2, 14490, Note_on_c, 0, 81, 89
2, 14514, Note_off_c, 0, 81, 64
2, 14520, Note_on_c, 0, 83, 44
2, 14520, Note_on_c, 0, 55, 65
2, 14520, Note_on_c, 0, 62, 53
2, 14616, Note_off_c, 0, 62, 64
2, 14616, Note_off_c, 0, 55, 64
2, 14616, Note_off_c, 0, 83, 64
2, 14640, Note_on_c, 0, 55, 83
2, 14640, Note_on_c, 0, 62, 69
2, 14736, Note_off_c, 0, 62, 64
2, 14736, Note_off_c, 0, 55, 64
2, 14760, Note_on_c, 0, 62, 71
2, 14760, Note_on_c, 0, 55, 64
2, 14760, Note_on_c, 0, 83, 71
2, 14856, Note_off_c, 0, 83, 64
2, 14856, Note_off_c, 0, 55, 64
2, 14856, Note_off_c, 0, 62, 64
2, 14880, Note_on_c, 0, 84, 58
2, 14904, Note_off_c, 0, 84, 64
2, 14910, Note_on_c, 0, 83, 61
2, 14934, Note_off_c, 0, 83, 64
2, 14940, Note_on_c, 0, 81, 54
2, 14964, Note_off_c, 0, 81, 64
2, 14970, Note_on_c, 0, 83, 58
2, 14994, Note_off_c, 0, 83, 64
2, 15000, Note_on_c, 0, 81, 58
2, 15000, Note_on_c, 0, 54, 66
2, 15000, Note_on_c, 0, 62, 44
2, 15096, Note_off_c, 0, 62, 64
2, 15096, Note_off_c, 0, 54, 64
2, 15096, Note_off_c, 0, 81, 64
2, 15120, Note_on_c, 0, 54, 43
2, 15120, Note_on_c, 0, 62, 53
2, 15216, Note_off_c, 0, 62, 64
2, 15216, Note_off_c, 0, 54, 64
2, 15240, Note_on_c, 0, 54, 42
2, 15240, Note_on_c, 0, 62, 44
2, 15240, Note_on_c, 0, 74, 80
2, 15336, Note_off_c, 0, 74, 64
2, 15336, Note_off_c, 0, 62, 64
2, 15336, Note_off_c, 0, 54, 64
2, 15360, Note_on_c, 0, 78, 83
2, 15384, Note_off_c, 0, 78, 64
2, 15390, Note_on_c, 0, 76, 89
2, 15414, Note_off_c, 0, 76, 64
2, 15420, Note_on_c, 0, 78, 77
2, 15444, Note_off_c, 0, 78, 64
2, 15450, Note_on_c, 0, 79, 77
2, 15474, Note_off_c, 0, 79, 64
2, 15480, Note_on_c, 0, 81, 61
2, 15480, Note_on_c, 0, 54, 52
2, 15480, Note_on_c, 0, 62, 43
2, 15576, Note_off_c, 0, 62, 64
2, 15576, Note_off_c, 0, 54, 64
2, 15576, Note_off_c, 0, 81, 64
2, 15600, Note_on_c, 0, 54, 44
2, 15600, Note_on_c, 0, 62, 52
2, 15696, Note_off_c, 0, 62, 64
2, 15696, Note_off_c, 0, 54, 64
2, 15720, Note_on_c, 0, 54, 52
2, 15720, Note_on_c, 0, 62, 52
2, 15720, Note_on_c, 0, 72, 50
2, 15816, Note_off_c, 0, 72, 64
2, 15816, Note_off_c, 0, 62, 64
2, 15816, Note_off_c, 0, 54, 64
2, 15840, Note_on_c, 0, 71, 66
2, 15864, Note_off_c, 0, 71, 64
2, 15870, Note_on_c, 0, 69, 61
2, 15894, Note_off_c, 0, 69, 64
2, 15900, Note_on_c, 0, 71, 66
2, 15924, Note_off_c, 0, 71, 64
2, 15930, Note_on_c, 0, 72, 77
2, 15954, Note_off_c, 0, 72, 64
2, 15960, Note_on_c, 0, 55, 42
2, 15960, Note_on_c, 0, 74, 47
2, 15960, Note_on_c, 0, 59, 54
2, 16056, Note_off_c, 0, 59, 64
2, 16056, Note_off_c, 0, 74, 64
2, 16056, Note_off_c, 0, 55, 64
2, 16080, Note_on_c, 0, 59, 45
2, 16080, Note_on_c, 0, 55, 43
2, 16176, Note_off_c, 0, 55, 64
2, 16176, Note_off_c, 0, 59, 64
2, 16200, Note_on_c, 0, 55, 43
2, 16200, Note_on_c, 0, 59, 42
2, 16200, Note_on_c, 0, 74, 77
2, 16248, Note_off_c, 0, 74, 64
2, 16260, Note_on_c, 0, 79, 61
2, 16296, Note_off_c, 0, 59, 64
2, 16296, Note_off_c, 0, 55, 64
2, 16308, Note_off_c, 0, 79, 64
2, 16320, Note_on_c, 0, 60, 60
2, 16320, Note_on_c, 0, 78, 54
2, 16320, Note_on_c, 0, 55, 50
2, 16332, Note_off_c, 0, 78, 64
2, 16335, Note_on_c, 0, 76, 77
2, 16347, Note_off_c, 0, 76, 64
2, 16350, Note_on_c, 0, 78, 77
2, 16362, Note_off_c, 0, 78, 64
2, 16365, Note_on_c, 0, 76, 71
2, 16377, Note_off_c, 0, 76, 64
2, 16380, Note_on_c, 0, 78, 77
2, 16392, Note_off_c, 0, 78, 64
2, 16395, Note_on_c, 0, 76, 61
2, 16407, Note_off_c, 0, 76, 64
2, 16410, Note_on_c, 0, 78, 83
2, 16416, Note_off_c, 0, 60, 64
2, 16422, Note_off_c, 0, 78, 64
2, 16425, Note_on_c, 0, 76, 66
2, 16437, Note_off_c, 0, 76, 64
2, 16440, Note_on_c, 0, 74, 54
2, 16440, Note_on_c, 0, 59, 49
2, 16536, Note_off_c, 0, 59, 64
2, 16536, Note_off_c, 0, 74, 64
2, 16560, Note_on_c, 0, 76, 89
2, 16560, Note_on_c, 0, 60, 50
2, 16608, Note_off_c, 0, 76, 64
2, 16620, Note_on_c, 0, 79, 83
2, 16656, Note_off_c, 0, 60, 64
2, 16668, Note_off_c, 0, 79, 64
2, 16680, Note_on_c, 0, 78, 95
2, 16680, Note_on_c, 0, 57, 60
2, 16728, Note_off_c, 0, 78, 64
2, 16740, Note_on_c, 0, 81, 54
2, 16776, Note_off_c, 0, 55, 64
2, 16776, Note_off_c, 0, 57, 64
2, 16788, Note_off_c, 0, 81, 64
2, 16800, Note_on_c, 0, 55, 58
2, 16800, Note_on_c, 0, 59, 53
2, 16800, Note_on_c, 0, 79, 80
2, 16944, Note_off_c, 0, 79, 64
2, 16980, Note_on_c, 0, 83, 71
2, 16992, Note_off_c, 0, 59, 64
2, 16992, Note_off_c, 0, 55, 64
2, 17028, Note_off_c, 0, 83, 64
2, 17040, Note_on_c, 0, 79, 61
2, 17136, Note_off_c, 0, 79, 64
2, 17160, Note_on_c, 0, 59, 42
2, 17160, Note_on_c, 0, 71, 66
2, 17256, Note_off_c, 0, 71, 64
2, 17256, Note_off_c, 0, 59, 64
2, 17280, Note_on_c, 0, 74, 66
2, 17280, Note_on_c, 0, 62, 71
2, 17328, Note_off_c, 0, 62, 64
2, 17328, Note_off_c, 0, 74, 64
2, 17340, Note_on_c, 0, 72, 71
2, 17340, Note_on_c, 0, 60, 61
2, 17388, Note_off_c, 0, 60, 64
2, 17388, Note_off_c, 0, 72, 64
2, 17400, Note_on_c, 0, 59, 83
2, 17400, Note_on_c, 0, 71, 66
2, 17448, Note_off_c, 0, 71, 64
2, 17448, Note_off_c, 0, 59, 64
2, 17460, Note_on_c, 0, 69, 71
2, 17460, Note_on_c, 0, 57, 61
2, 17508, Note_off_c, 0, 57, 64
2, 17508, Note_off_c, 0, 69, 64
2, 17520, Note_on_c, 0, 62, 54
2, 17520, Note_on_c, 0, 74, 58
2, 17616, Note_off_c, 0, 74, 64
2, 17616, Note_off_c, 0, 62, 64
2, 17640, Note_on_c, 0, 62, 71
2, 17640, Note_on_c, 0, 74, 71
2, 17736, Note_off_c, 0, 74, 64
2, 17736, Note_off_c, 0, 62, 64
2, 17760, Note_on_c, 0, 67, 77
2, 17760, Note_on_c, 0, 55, 77
2, 17952, Note_off_c, 0, 55, 64
2, 17952, Note_off_c, 0, 67, 64
2, 18000, Note_on_c, 0, 54, 66
2, 18000, Note_on_c, 0, 74, 71
2, 18012, Note_off_c, 0, 74, 64
2, 18015, Note_on_c, 0, 72, 54
2, 18027, Note_off_c, 0, 72, 64
2, 18030, Note_on_c, 0, 74, 42
2, 18042, Note_off_c, 0, 74, 64
2, 18045, Note_on_c, 0, 72, 41
2, 18048, Note_off_c, 0, 54, 64
2, 18057, Note_off_c, 0, 72, 64
2, 18060, Note_on_c, 0, 62, 58
2, 18060, Note_on_c, 0, 74, 50
2, 18072, Note_off_c, 0, 74, 64
2, 18075, Note_on_c, 0, 72, 46
2, 18087, Note_off_c, 0, 72, 64
2, 18090, Note_on_c, 0, 74, 47
2, 18102, Note_off_c, 0, 74, 64
2, 18105, Note_on_c, 0, 72, 43
2, 18108, Note_off_c, 0, 62, 64
2, 18117, Note_off_c, 0, 72, 64
2, 18120, Note_on_c, 0, 54, 54
2, 18120, Note_on_c, 0, 74, 47
2, 18132, Note_off_c, 0, 74, 64
2, 18135, Note_on_c, 0, 72, 45
2, 18147, Note_off_c, 0, 72, 64
2, 18150, Note_on_c, 0, 74, 46
2, 18162, Note_off_c, 0, 74, 64
2, 18165, Note_on_c, 0, 72, 31
2, 18168, Note_off_c, 0, 54, 64
2, 18177, Note_off_c, 0, 72, 64
2, 18180, Note_on_c, 0, 62, 58
2, 18180, Note_on_c, 0, 74, 43
2, 18192, Note_off_c, 0, 74, 64
2, 18195, Note_on_c, 0, 72, 42
2, 18207, Note_off_c, 0, 72, 64
2, 18210, Note_on_c, 0, 74, 46
2, 18222, Note_off_c, 0, 74, 64
2, 18225, Note_on_c, 0, 72, 42
2, 18228, Note_off_c, 0, 62, 64
2, 18237, Note_off_c, 0, 72, 64
2, 18240, Note_on_c, 0, 71, 66
2, 18240, Note_on_c, 0, 55, 66
2, 18288, Note_off_c, 0, 55, 64
2, 18300, Note_on_c, 0, 62, 50
2, 18348, Note_off_c, 0, 62, 64
2, 18360, Note_on_c, 0, 55, 54
2, 18408, Note_off_c, 0, 55, 64
2, 18420, Note_on_c, 0, 62, 66
2, 18432, Note_off_c, 0, 71, 64
2, 18468, Note_off_c, 0, 62, 64
2, 18480, Note_on_c, 0, 54, 71
2, 18480, Note_on_c, 0, 74, 77
2, 18528, Note_off_c, 0, 74, 64
2, 18528, Note_off_c, 0, 54, 64
2, 18540, Note_on_c, 0, 62, 66
2, 18540, Note_on_c, 0, 78, 42
2, 18588, Note_off_c, 0, 78, 64
2, 18588, Note_off_c, 0, 62, 64
2, 18600, Note_on_c, 0, 54, 77
2, 18600, Note_on_c, 0, 81, 47
2, 18648, Note_off_c, 0, 81, 64
2, 18648, Note_off_c, 0, 54, 64
2, 18660, Note_on_c, 0, 62, 58
2, 18660, Note_on_c, 0, 84, 71
2, 18708, Note_off_c, 0, 84, 64
2, 18708, Note_off_c, 0, 62, 64
2, 18720, Note_on_c, 0, 83, 71
2, 18720, Note_on_c, 0, 55, 71
2, 18768, Note_off_c, 0, 55, 64
2, 18780, Note_on_c, 0, 62, 58
2, 18816, Note_off_c, 0, 83, 64
2, 18828, Note_off_c, 0, 62, 64
2, 18840, Note_on_c, 0, 55, 58
2, 18840, Note_on_c, 0, 79, 71
2, 18888, Note_off_c, 0, 55, 64
2, 18900, Note_on_c, 0, 62, 61
2, 18936, Note_off_c, 0, 79, 64
2, 18948, Note_off_c, 0, 62, 64
2, 18960, Note_on_c, 0, 54, 83
2, 18960, Note_on_c, 0, 74, 71
2, 18972, Note_off_c, 0, 74, 64
2, 18975, Note_on_c, 0, 72, 54
2, 18987, Note_off_c, 0, 72, 64
2, 18990, Note_on_c, 0, 74, 42
2, 19002, Note_off_c, 0, 74, 64
2, 19005, Note_on_c, 0, 72, 41
2, 19008, Note_off_c, 0, 54, 64
2, 19017, Note_off_c, 0, 72, 64
2, 19020, Note_on_c, 0, 62, 66
2, 19020, Note_on_c, 0, 74, 50
2, 19032, Note_off_c, 0, 74, 64
2, 19035, Note_on_c, 0, 72, 46
2, 19047, Note_off_c, 0, 72, 64
2, 19050, Note_on_c, 0, 74, 47
2, 19062, Note_off_c, 0, 74, 64
2, 19065, Note_on_c, 0, 72, 43
2, 19068, Note_off_c, 0, 62, 64
2, 19077, Note_off_c, 0, 72, 64
2, 19080, Note_on_c, 0, 54, 66
2, 19080, Note_on_c, 0, 74, 47
2, 19092, Note_off_c, 0, 74, 64
2, 19095, Note_on_c, 0, 72, 45
2, 19107, Note_off_c, 0, 72, 64
2, 19110, Note_on_c, 0, 74, 46
2, 19122, Note_off_c, 0, 74, 64
2, 19125, Note_on_c, 0, 72, 31
2, 19128, Note_off_c, 0, 54, 64
2, 19137, Note_off_c, 0, 72, 64
2, 19140, Note_on_c, 0, 62, 71
2, 19140, Note_on_c, 0, 74, 43
2, 19152, Note_off_c, 0, 74, 64
2, 19155, Note_on_c, 0, 72, 42
2, 19167, Note_off_c, 0, 72, 64
2, 19170, Note_on_c, 0, 74, 46
2, 19182, Note_off_c, 0, 74, 64
2, 19185, Note_on_c, 0, 72, 42
2, 19188, Note_off_c, 0, 62, 64
2, 19197, Note_off_c, 0, 72, 64
2, 19200, Note_on_c, 0, 71, 89
2, 19200, Note_on_c, 0, 55, 77
2, 19248, Note_off_c, 0, 55, 64
2, 19260, Note_on_c, 0, 62, 61
2, 19308, Note_off_c, 0, 62, 64
2, 19320, Note_on_c, 0, 55, 61
2, 19368, Note_off_c, 0, 55, 64
2, 19380, Note_on_c, 0, 62, 61
2, 19392, Note_off_c, 0, 71, 64
2, 19428, Note_off_c, 0, 62, 64
2, 19440, Note_on_c, 0, 54, 71
2, 19440, Note_on_c, 0, 81, 71
2, 19488, Note_off_c, 0, 54, 64
2, 19500, Note_on_c, 0, 62, 71
2, 19548, Note_off_c, 0, 62, 64
2, 19560, Note_on_c, 0, 54, 71
2, 19584, Note_off_c, 0, 81, 64
2, 19608, Note_off_c, 0, 54, 64
2, 19620, Note_on_c, 0, 62, 77
2, 19620, Note_on_c, 0, 72, 83
2, 19668, Note_off_c, 0, 72, 64
2, 19668, Note_off_c, 0, 62, 64
2, 19680, Note_on_c, 0, 55, 77
2, 19680, Note_on_c, 0, 71, 77
2, 19712, Note_off_c, 0, 71, 64
2, 19720, Note_on_c, 0, 69, 77
2, 19752, Note_off_c, 0, 69, 64
2, 19760, Note_on_c, 0, 67, 89
2, 19776, Note_off_c, 0, 55, 64
2, 19792, Note_off_c, 0, 67, 64
2, 19800, Note_on_c, 0, 76, 83
2, 19800, Note_on_c, 0, 60, 89
2, 19832, Note_off_c, 0, 76, 64
2, 19840, Note_on_c, 0, 74, 83
2, 19872, Note_off_c, 0, 74, 64
2, 19880, Note_on_c, 0, 72, 89
2, 19896, Note_off_c, 0, 60, 64
2, 19912, Note_off_c, 0, 72, 64
2, 19920, Note_on_c, 0, 62, 66
2, 19920, Note_on_c, 0, 71, 61
2, 20016, Note_off_c, 0, 71, 64
2, 20016, Note_off_c, 0, 62, 64
2, 20040, Note_on_c, 0, 71, 58
2, 20040, Note_on_c, 0, 50, 77
2, 20052, Note_off_c, 0, 71, 64
2, 20055, Note_on_c, 0, 69, 58
2, 20067, Note_off_c, 0, 69, 64
2, 20070, Note_on_c, 0, 71, 58
2, 20082, Note_off_c, 0, 71, 64
2, 20085, Note_on_c, 0, 69, 50
2, 20097, Note_off_c, 0, 69, 64
2, 20100, Note_on_c, 0, 71, 58
2, 20112, Note_off_c, 0, 71, 64
2, 20115, Note_on_c, 0, 69, 50
2, 20127, Note_off_c, 0, 69, 64
2, 20130, Note_on_c, 0, 71, 46
2, 20136, Note_off_c, 0, 50, 64
2, 20142, Note_off_c, 0, 71, 64
2, 20145, Note_on_c, 0, 69, 50
2, 20157, Note_off_c, 0, 69, 64
2, 20160, Note_on_c, 0, 55, 80
2, 20160, Note_on_c, 0, 67, 89
2, 20256, Note_off_c, 0, 55, 64
2, 20280, Note_on_c, 0, 50, 80
2, 20352, Note_off_c, 0, 67, 64
2, 20376, Note_off_c, 0, 50, 64
2, 20400, Note_on_c, 0, 43, 80
2, 20496, Note_off_c, 0, 43, 64
2, 20520, Note_on_c, 0, 62, 80
2, 20616, Note_off_c, 0, 62, 64
2, 20640, Note_on_c, 0, 67, 54
2, 20640, Note_on_c, 0, 59, 75
2, 20640, Note_on_c, 0, 55, 80
2, 20664, Note_off_c, 0, 67, 64
2, 20670, Note_on_c, 0, 66, 77
2, 20694, Note_off_c, 0, 66, 64
2, 20700, Note_on_c, 0, 67, 52
2, 20724, Note_off_c, 0, 67, 64
2, 20730, Note_on_c, 0, 69, 50
2, 20736, Note_off_c, 0, 55, 64
2, 20736, Note_off_c, 0, 59, 64
2, 20754, Note_off_c, 0, 69, 64
2, 20760, Note_on_c, 0, 71, 83
2, 20856, Note_off_c, 0, 71, 64
2, 20880, Note_on_c, 0, 55, 42
2, 20880, Note_on_c, 0, 59, 56
2, 20880, Note_on_c, 0, 71, 61
2, 20904, Note_off_c, 0, 71, 64
2, 20910, Note_on_c, 0, 69, 71
2, 20934, Note_off_c, 0, 69, 64
2, 20940, Note_on_c, 0, 71, 75
2, 20964, Note_off_c, 0, 71, 64
2, 20970, Note_on_c, 0, 72, 58
2, 20976, Note_off_c, 0, 59, 64
2, 20976, Note_off_c, 0, 55, 64
2, 20994, Note_off_c, 0, 72, 64
2, 21000, Note_on_c, 0, 74, 61
2, 21096, Note_off_c, 0, 74, 64
2, 21120, Note_on_c, 0, 74, 69
2, 21120, Note_on_c, 0, 71, 86
2, 21180, Note_on_c, 0, 43, 29
2, 21228, Note_off_c, 0, 43, 64
2, 21240, Note_on_c, 0, 47, 71
2, 21264, Note_off_c, 0, 71, 64
2, 21264, Note_off_c, 0, 74, 64
2, 21288, Note_off_c, 0, 47, 64
2, 21300, Note_on_c, 0, 50, 77
2, 21300, Note_on_c, 0, 72, 43
2, 21300, Note_on_c, 0, 69, 47
2, 21348, Note_off_c, 0, 69, 64
2, 21348, Note_off_c, 0, 72, 64
2, 21348, Note_off_c, 0, 50, 64
2, 21360, Note_on_c, 0, 55, 44
2, 21360, Note_on_c, 0, 71, 43
2, 21360, Note_on_c, 0, 67, 43
2, 21456, Note_off_c, 0, 67, 64
2, 21456, Note_off_c, 0, 71, 64
2, 21456, Note_off_c, 0, 55, 64
2, 21480, Note_on_c, 0, 59, 61
2, 21480, Note_on_c, 0, 62, 77
2, 21528, Note_off_c, 0, 62, 64
2, 21540, Note_on_c, 0, 67, 58
2, 21576, Note_off_c, 0, 59, 64
2, 21588, Note_off_c, 0, 67, 64
2, 21600, Note_on_c, 0, 60, 83
2, 21600, Note_on_c, 0, 64, 89
2, 21696, Note_off_c, 0, 64, 64
2, 21696, Note_off_c, 0, 60, 64
2, 21720, Note_on_c, 0, 62, 83
2, 21720, Note_on_c, 0, 59, 71
2, 21768, Note_off_c, 0, 62, 64
2, 21780, Note_on_c, 0, 67, 58
2, 21816, Note_off_c, 0, 59, 64
2, 21828, Note_off_c, 0, 67, 64
2, 21840, Note_on_c, 0, 57, 71
2, 21840, Note_on_c, 0, 62, 77
2, 21936, Note_off_c, 0, 62, 64
2, 21936, Note_off_c, 0, 57, 64
2, 21960, Note_on_c, 0, 50, 77
2, 21960, Note_on_c, 0, 60, 77
2, 22056, Note_off_c, 0, 60, 64
2, 22056, Note_off_c, 0, 50, 64
2, 22080, Note_on_c, 0, 55, 71
2, 22080, Note_on_c, 0, 59, 71
2, 22176, Note_off_c, 0, 55, 64
2, 22200, Note_on_c, 0, 50, 89
2, 22272, Note_off_c, 0, 59, 64
2, 22296, Note_off_c, 0, 50, 64
2, 22320, Note_on_c, 0, 43, 97
2, 22416, Note_off_c, 0, 43, 64
2, 22440, Note_on_c, 0, 64, 89
2, 22536, Note_off_c, 0, 64, 64
2, 22560, Note_on_c, 0, 69, 71
2, 22560, Note_on_c, 0, 57, 57
2, 22560, Note_on_c, 0, 60, 56
2, 22584, Note_off_c, 0, 69, 64
2, 22590, Note_on_c, 0, 68, 66
2, 22614, Note_off_c, 0, 68, 64
2, 22620, Note_on_c, 0, 69, 58
2, 22644, Note_off_c, 0, 69, 64
2, 22650, Note_on_c, 0, 71, 50
2, 22656, Note_off_c, 0, 60, 64
2, 22656, Note_off_c, 0, 57, 64
2, 22674, Note_off_c, 0, 71, 64
2, 22680, Note_on_c, 0, 72, 77
2, 22776, Note_off_c, 0, 72, 64
2, 22800, Note_on_c, 0, 57, 66
2, 22800, Note_on_c, 0, 60, 53
2, 22800, Note_on_c, 0, 72, 58
2, 22824, Note_off_c, 0, 72, 64
2, 22830, Note_on_c, 0, 71, 66
2, 22854, Note_off_c, 0, 71, 64
2, 22860, Note_on_c, 0, 72, 61
2, 22884, Note_off_c, 0, 72, 64
2, 22890, Note_on_c, 0, 74, 66
2, 22896, Note_off_c, 0, 60, 64
2, 22896, Note_off_c, 0, 57, 64
2, 22914, Note_off_c, 0, 74, 64
2, 22920, Note_on_c, 0, 76, 71
2, 23016, Note_off_c, 0, 76, 64
2, 23040, Note_on_c, 0, 76, 80
2, 23040, Note_on_c, 0, 72, 75
2, 23100, Note_on_c, 0, 45, 47
2, 23148, Note_off_c, 0, 45, 64
2, 23160, Note_on_c, 0, 48, 71
2, 23184, Note_off_c, 0, 72, 64
2, 23184, Note_off_c, 0, 76, 64
2, 23208, Note_off_c, 0, 48, 64
2, 23220, Note_on_c, 0, 74, 52
2, 23220, Note_on_c, 0, 71, 56
2, 23220, Note_on_c, 0, 52, 58
2, 23268, Note_off_c, 0, 52, 64
2, 23268, Note_off_c, 0, 71, 64
2, 23268, Note_off_c, 0, 74, 64
2, 23280, Note_on_c, 0, 57, 54
2, 23280, Note_on_c, 0, 69, 42
2, 23280, Note_on_c, 0, 72, 47
2, 23376, Note_off_c, 0, 72, 64
2, 23376, Note_off_c, 0, 69, 64
2, 23400, Note_on_c, 0, 76, 89
2, 23472, Note_off_c, 0, 57, 64
2, 23496, Note_off_c, 0, 76, 64
2, 23520, Note_on_c, 0, 77, 77
2, 23544, Note_off_c, 0, 77, 64
2, 23550, Note_on_c, 0, 76, 50
2, 23574, Note_off_c, 0, 76, 64
2, 23580, Note_on_c, 0, 77, 77
2, 23604, Note_off_c, 0, 77, 64
2, 23610, Note_on_c, 0, 79, 61
2, 23634, Note_off_c, 0, 79, 64
2, 23640, Note_on_c, 0, 81, 44
2, 23640, Note_on_c, 0, 57, 54
2, 23640, Note_on_c, 0, 50, 74
2, 23736, Note_off_c, 0, 50, 64
2, 23736, Note_off_c, 0, 57, 64
2, 23736, Note_off_c, 0, 81, 64
2, 23760, Note_on_c, 0, 50, 52
2, 23760, Note_on_c, 0, 57, 47
2, 23856, Note_off_c, 0, 57, 64
2, 23856, Note_off_c, 0, 50, 64
2, 23880, Note_on_c, 0, 50, 55
2, 23880, Note_on_c, 0, 57, 50
2, 23880, Note_on_c, 0, 77, 80
2, 23976, Note_off_c, 0, 77, 64
2, 23976, Note_off_c, 0, 57, 64
2, 23976, Note_off_c, 0, 50, 64
2, 24000, Note_on_c, 0, 76, 89
2, 24024, Note_off_c, 0, 76, 64
2, 24030, Note_on_c, 0, 74, 89
2, 24054, Note_off_c, 0, 74, 64
2, 24060, Note_on_c, 0, 72, 89
2, 24084, Note_off_c, 0, 72, 64
2, 24090, Note_on_c, 0, 74, 77
2, 24114, Note_off_c, 0, 74, 64
2, 24120, Note_on_c, 0, 72, 54
2, 24120, Note_on_c, 0, 57, 66
2, 24120, Note_on_c, 0, 60, 50
2, 24216, Note_off_c, 0, 60, 64
2, 24216, Note_off_c, 0, 57, 64
2, 24216, Note_off_c, 0, 72, 64
2, 24240, Note_on_c, 0, 57, 58
2, 24240, Note_on_c, 0, 60, 43
2, 24336, Note_off_c, 0, 60, 64
2, 24336, Note_off_c, 0, 57, 64
2, 24360, Note_on_c, 0, 57, 54
2, 24360, Note_on_c, 0, 60, 45
2, 24360, Note_on_c, 0, 72, 43
2, 24456, Note_off_c, 0, 72, 64
2, 24456, Note_off_c, 0, 60, 64
2, 24456, Note_off_c, 0, 57, 64
2, 24480, Note_on_c, 0, 71, 58
2, 24504, Note_off_c, 0, 71, 64
2, 24510, Note_on_c, 0, 69, 58
2, 24534, Note_off_c, 0, 69, 64
2, 24540, Note_on_c, 0, 71, 58
2, 24564, Note_off_c, 0, 71, 64
2, 24570, Note_on_c, 0, 72, 50
2, 24594, Note_off_c, 0, 72, 64
2, 24600, Note_on_c, 0, 74, 71
2, 24600, Note_on_c, 0, 59, 58
2, 24600, Note_on_c, 0, 52, 61
2, 24696, Note_off_c, 0, 52, 64
2, 24696, Note_off_c, 0, 59, 64
2, 24696, Note_off_c, 0, 74, 64
2, 24720, Note_on_c, 0, 59, 58
2, 24720, Note_on_c, 0, 52, 71
2, 24816, Note_off_c, 0, 52, 64
2, 24816, Note_off_c, 0, 59, 64
2, 24840, Note_on_c, 0, 56, 43
2, 24840, Note_on_c, 0, 52, 61
2, 24840, Note_on_c, 0, 71, 58
2, 24936, Note_off_c, 0, 71, 64
2, 24936, Note_off_c, 0, 52, 64
2, 24936, Note_off_c, 0, 56, 64
2, 24960, Note_on_c, 0, 74, 58
2, 24960, Note_on_c, 0, 57, 58
2, 24960, Note_on_c, 0, 52, 77
2, 24972, Note_off_c, 0, 74, 64
2, 24975, Note_on_c, 0, 72, 50
2, 24987, Note_off_c, 0, 72, 64
2, 24990, Note_on_c, 0, 74, 42
2, 25002, Note_off_c, 0, 74, 64
2, 25005, Note_on_c, 0, 72, 43
2, 25017, Note_off_c, 0, 72, 64
2, 25020, Note_on_c, 0, 74, 54
2, 25032, Note_off_c, 0, 74, 64
2, 25035, Note_on_c, 0, 72, 44
2, 25047, Note_off_c, 0, 72, 64
2, 25050, Note_on_c, 0, 74, 45
2, 25056, Note_off_c, 0, 57, 64
2, 25062, Note_off_c, 0, 74, 64
2, 25065, Note_on_c, 0, 72, 66
2, 25077, Note_off_c, 0, 72, 64
2, 25080, Note_on_c, 0, 56, 58
2, 25080, Note_on_c, 0, 71, 47
2, 25176, Note_off_c, 0, 71, 64
2, 25176, Note_off_c, 0, 52, 64
2, 25176, Note_off_c, 0, 56, 64
2, 25200, Note_on_c, 0, 76, 58
2, 25248, Note_off_c, 0, 76, 64
2, 25260, Note_on_c, 0, 71, 42
2, 25308, Note_off_c, 0, 71, 64
2, 25320, Note_on_c, 0, 62, 80
2, 25320, Note_on_c, 0, 68, 71
2, 25368, Note_off_c, 0, 68, 64
2, 25380, Note_on_c, 0, 64, 77
2, 25416, Note_off_c, 0, 62, 64
2, 25428, Note_off_c, 0, 64, 64
2, 25440, Note_on_c, 0, 60, 61
2, 25440, Note_on_c, 0, 69, 77
2, 25464, Note_off_c, 0, 69, 64
2, 25470, Note_on_c, 0, 68, 83
2, 25494, Note_off_c, 0, 68, 64
2, 25500, Note_on_c, 0, 69, 81
2, 25524, Note_off_c, 0, 69, 64
2, 25530, Note_on_c, 0, 71, 61
2, 25536, Note_off_c, 0, 60, 64
2, 25554, Note_off_c, 0, 71, 64
2, 25560, Note_on_c, 0, 72, 81
2, 25560, Note_on_c, 0, 57, 83
2, 25656, Note_off_c, 0, 57, 64
2, 25656, Note_off_c, 0, 72, 64
2, 25680, Note_on_c, 0, 81, 58
2, 25728, Note_off_c, 0, 81, 64
2, 25740, Note_on_c, 0, 76, 71
2, 25788, Note_off_c, 0, 76, 64
2, 25800, Note_on_c, 0, 55, 61
2, 25800, Note_on_c, 0, 73, 106
2, 25848, Note_off_c, 0, 73, 64
2, 25860, Note_on_c, 0, 69, 77
2, 25896, Note_off_c, 0, 55, 64
2, 25908, Note_off_c, 0, 69, 64
2, 25920, Note_on_c, 0, 53, 58
2, 25920, Note_on_c, 0, 74, 71
2, 25944, Note_off_c, 0, 74, 64
2, 25950, Note_on_c, 0, 73, 77
2, 25974, Note_off_c, 0, 73, 64
2, 25980, Note_on_c, 0, 74, 71
2, 26004, Note_off_c, 0, 74, 64
2, 26010, Note_on_c, 0, 76, 71
2, 26016, Note_off_c, 0, 53, 64
2, 26034, Note_off_c, 0, 76, 64
2, 26040, Note_on_c, 0, 77, 44
2, 26040, Note_on_c, 0, 50, 83
2, 26136, Note_off_c, 0, 50, 64
2, 26136, Note_off_c, 0, 77, 64
2, 26160, Note_on_c, 0, 79, 43
2, 26208, Note_off_c, 0, 79, 64
2, 26220, Note_on_c, 0, 74, 42
2, 26268, Note_off_c, 0, 74, 64
2, 26280, Note_on_c, 0, 53, 71
2, 26280, Note_on_c, 0, 71, 45
2, 26328, Note_off_c, 0, 71, 64
2, 26340, Note_on_c, 0, 67, 89
2, 26376, Note_off_c, 0, 53, 64
2, 26388, Note_off_c, 0, 67, 64
2, 26400, Note_on_c, 0, 72, 80
2, 26400, Note_on_c, 0, 52, 80
2, 26424, Note_off_c, 0, 72, 64
2, 26430, Note_on_c, 0, 71, 80
2, 26454, Note_off_c, 0, 71, 64
2, 26460, Note_on_c, 0, 72, 80
2, 26484, Note_off_c, 0, 72, 64
2, 26490, Note_on_c, 0, 74, 80
2, 26496, Note_off_c, 0, 52, 64
2, 26514, Note_off_c, 0, 74, 64
2, 26520, Note_on_c, 0, 76, 89
2, 26520, Note_on_c, 0, 48, 80
2, 26616, Note_off_c, 0, 48, 64
2, 26616, Note_off_c, 0, 76, 64
2, 26640, Note_on_c, 0, 52, 41
2, 26640, Note_on_c, 0, 81, 42
2, 26652, Note_off_c, 0, 81, 64
2, 26655, Note_on_c, 0, 79, 66
2, 26667, Note_off_c, 0, 79, 64
2, 26670, Note_on_c, 0, 81, 44
2, 26682, Note_off_c, 0, 81, 64
2, 26685, Note_on_c, 0, 79, 54
2, 26688, Note_off_c, 0, 52, 64
2, 26697, Note_off_c, 0, 79, 64
2, 26700, Note_on_c, 0, 60, 66
2, 26700, Note_on_c, 0, 81, 42
2, 26712, Note_off_c, 0, 81, 64
2, 26715, Note_on_c, 0, 79, 1
2, 26727, Note_off_c, 0, 79, 64
2, 26730, Note_on_c, 0, 81, 42
2, 26742, Note_off_c, 0, 81, 64
2, 26745, Note_on_c, 0, 79, 42
2, 26748, Note_off_c, 0, 60, 64
2, 26757, Note_off_c, 0, 79, 64
2, 26760, Note_on_c, 0, 52, 89
2, 26760, Note_on_c, 0, 81, 61
2, 26772, Note_off_c, 0, 81, 64
2, 26775, Note_on_c, 0, 79, 44
2, 26787, Note_off_c, 0, 79, 64
2, 26790, Note_on_c, 0, 81, 45
2, 26802, Note_off_c, 0, 81, 64
2, 26805, Note_on_c, 0, 79, 43
2, 26808, Note_off_c, 0, 52, 64
2, 26817, Note_off_c, 0, 79, 64
2, 26820, Note_on_c, 0, 60, 54
2, 26820, Note_on_c, 0, 77, 66
2, 26844, Note_off_c, 0, 77, 64
2, 26850, Note_on_c, 0, 79, 42
2, 26868, Note_off_c, 0, 60, 64
2, 26874, Note_off_c, 0, 79, 64
2, 26880, Note_on_c, 0, 81, 42
2, 26880, Note_on_c, 0, 53, 71
2, 26928, Note_off_c, 0, 53, 64
2, 26940, Note_on_c, 0, 60, 61
2, 26988, Note_off_c, 0, 60, 64
2, 27000, Note_on_c, 0, 53, 66
2, 27048, Note_off_c, 0, 53, 64
2, 27060, Note_on_c, 0, 60, 54
2, 27072, Note_off_c, 0, 81, 64
2, 27108, Note_off_c, 0, 60, 64
2, 27120, Note_on_c, 0, 54, 45
2, 27120, Note_on_c, 0, 74, 58
2, 27132, Note_off_c, 0, 74, 64
2, 27135, Note_on_c, 0, 72, 75
2, 27147, Note_off_c, 0, 72, 64
2, 27150, Note_on_c, 0, 74, 58
2, 27162, Note_off_c, 0, 74, 64
2, 27165, Note_on_c, 0, 72, 58
2, 27168, Note_off_c, 0, 54, 64
2, 27177, Note_off_c, 0, 72, 64
2, 27180, Note_on_c, 0, 57, 71
2, 27180, Note_on_c, 0, 74, 43
2, 27192, Note_off_c, 0, 74, 64
2, 27195, Note_on_c, 0, 72, 58
2, 27207, Note_off_c, 0, 72, 64
2, 27210, Note_on_c, 0, 74, 42
2, 27222, Note_off_c, 0, 74, 64
2, 27225, Note_on_c, 0, 72, 50
2, 27228, Note_off_c, 0, 57, 64
2, 27237, Note_off_c, 0, 72, 64
2, 27240, Note_on_c, 0, 54, 77
2, 27240, Note_on_c, 0, 74, 58
2, 27252, Note_off_c, 0, 74, 64
2, 27255, Note_on_c, 0, 72, 71
2, 27267, Note_off_c, 0, 72, 64
2, 27270, Note_on_c, 0, 74, 54
2, 27282, Note_off_c, 0, 74, 64
2, 27285, Note_on_c, 0, 72, 58
2, 27288, Note_off_c, 0, 54, 64
2, 27297, Note_off_c, 0, 72, 64
2, 27300, Note_on_c, 0, 57, 58
2, 27300, Note_on_c, 0, 74, 61
2, 27312, Note_off_c, 0, 74, 64
2, 27315, Note_on_c, 0, 72, 61
2, 27327, Note_off_c, 0, 72, 64
2, 27330, Note_on_c, 0, 74, 43
2, 27342, Note_off_c, 0, 74, 64
2, 27345, Note_on_c, 0, 72, 65
2, 27348, Note_off_c, 0, 57, 64
2, 27357, Note_off_c, 0, 72, 64
2, 27360, Note_on_c, 0, 71, 54
2, 27360, Note_on_c, 0, 55, 61
2, 27392, Note_off_c, 0, 71, 64
2, 27400, Note_on_c, 0, 72, 54
2, 27432, Note_off_c, 0, 72, 64
2, 27440, Note_on_c, 0, 74, 71
2, 27456, Note_off_c, 0, 55, 64
2, 27472, Note_off_c, 0, 74, 64
2, 27480, Note_on_c, 0, 67, 47
2, 27480, Note_on_c, 0, 43, 83
2, 27576, Note_off_c, 0, 43, 64
2, 27576, Note_off_c, 0, 67, 64
2, 27600, Note_on_c, 0, 52, 58
2, 27600, Note_on_c, 0, 81, 42
2, 27612, Note_off_c, 0, 81, 64
2, 27615, Note_on_c, 0, 79, 66
2, 27627, Note_off_c, 0, 79, 64
2, 27630, Note_on_c, 0, 81, 44
2, 27642, Note_off_c, 0, 81, 64
2, 27645, Note_on_c, 0, 79, 54
2, 27648, Note_off_c, 0, 52, 64
2, 27657, Note_off_c, 0, 79, 64
2, 27660, Note_on_c, 0, 60, 54
2, 27660, Note_on_c, 0, 81, 42
2, 27672, Note_off_c, 0, 81, 64
2, 27675, Note_on_c, 0, 79, 1
2, 27687, Note_off_c, 0, 79, 64
2, 27690, Note_on_c, 0, 81, 42
2, 27702, Note_off_c, 0, 81, 64
2, 27705, Note_on_c, 0, 79, 42
2, 27708, Note_off_c, 0, 60, 64
2, 27717, Note_off_c, 0, 79, 64
2, 27720, Note_on_c, 0, 52, 66
2, 27720, Note_on_c, 0, 81, 61
2, 27732, Note_off_c, 0, 81, 64
2, 27735, Note_on_c, 0, 79, 44
2, 27747, Note_off_c, 0, 79, 64
2, 27750, Note_on_c, 0, 81, 45
2, 27762, Note_off_c, 0, 81, 64
2, 27765, Note_on_c, 0, 79, 43
2, 27768, Note_off_c, 0, 52, 64
2, 27777, Note_off_c, 0, 79, 64
2, 27780, Note_on_c, 0, 60, 58
2, 27780, Note_on_c, 0, 77, 66
2, 27804, Note_off_c, 0, 77, 64
2, 27810, Note_on_c, 0, 79, 42
2, 27828, Note_off_c, 0, 60, 64
2, 27834, Note_off_c, 0, 79, 64
2, 27840, Note_on_c, 0, 81, 80
2, 27840, Note_on_c, 0, 53, 66
2, 27888, Note_off_c, 0, 53, 64
2, 27900, Note_on_c, 0, 60, 47
2, 27948, Note_off_c, 0, 60, 64
2, 27960, Note_on_c, 0, 53, 77
2, 27984, Note_off_c, 0, 81, 64
2, 28008, Note_off_c, 0, 53, 64
2, 28020, Note_on_c, 0, 83, 80
2, 28020, Note_on_c, 0, 60, 54
2, 28068, Note_off_c, 0, 60, 64
2, 28068, Note_off_c, 0, 83, 64
2, 28080, Note_on_c, 0, 54, 58
2, 28080, Note_on_c, 0, 84, 80
2, 28128, Note_off_c, 0, 54, 64
2, 28140, Note_on_c, 0, 60, 71
2, 28176, Note_off_c, 0, 84, 64
2, 28188, Note_off_c, 0, 60, 64
2, 28200, Note_on_c, 0, 54, 58
2, 28200, Note_on_c, 0, 76, 83
2, 28248, Note_off_c, 0, 54, 64
2, 28260, Note_on_c, 0, 60, 61
2, 28296, Note_off_c, 0, 76, 64
2, 28308, Note_off_c, 0, 60, 64
2, 28320, Note_on_c, 0, 55, 65
2, 28320, Note_on_c, 0, 60, 69
2, 28320, Note_on_c, 0, 77, 29
2, 28332, Note_off_c, 0, 77, 64
2, 28335, Note_on_c, 0, 76, 50
2, 28347, Note_off_c, 0, 76, 64
2, 28350, Note_on_c, 0, 77, 50
2, 28362, Note_off_c, 0, 77, 64
2, 28365, Note_on_c, 0, 76, 46
2, 28377, Note_off_c, 0, 76, 64
2, 28380, Note_on_c, 0, 77, 42
2, 28392, Note_off_c, 0, 77, 64
2, 28395, Note_on_c, 0, 76, 47
2, 28407, Note_off_c, 0, 76, 64
2, 28410, Note_on_c, 0, 77, 66
2, 28416, Note_off_c, 0, 60, 64
2, 28422, Note_off_c, 0, 77, 64
2, 28425, Note_on_c, 0, 76, 75
2, 28437, Note_off_c, 0, 76, 64
2, 28440, Note_on_c, 0, 59, 57
2, 28440, Note_on_c, 0, 74, 71
2, 28536, Note_off_c, 0, 74, 64
2, 28536, Note_off_c, 0, 59, 64
2, 28536, Note_off_c, 0, 55, 64
2, 28680, Note_on_c, 0, 67, 61
2, 28776, Note_off_c, 0, 67, 64
2, 28800, Note_on_c, 0, 48, 80
2, 28800, Note_on_c, 0, 52, 80
2, 28800, Note_on_c, 0, 72, 71
2, 28824, Note_off_c, 0, 72, 64
2, 28830, Note_on_c, 0, 71, 42
2, 28854, Note_off_c, 0, 71, 64
2, 28860, Note_on_c, 0, 72, 81
2, 28884, Note_off_c, 0, 72, 64
2, 28890, Note_on_c, 0, 74, 71
2, 28896, Note_off_c, 0, 52, 64
2, 28896, Note_off_c, 0, 48, 64
2, 28914, Note_off_c, 0, 74, 64
2, 28920, Note_on_c, 0, 76, 71
2, 29016, Note_off_c, 0, 76, 64
2, 29040, Note_on_c, 0, 52, 81
2, 29040, Note_on_c, 0, 48, 86
2, 29040, Note_on_c, 0, 76, 61
2, 29064, Note_off_c, 0, 76, 64
2, 29070, Note_on_c, 0, 74, 54
2, 29094, Note_off_c, 0, 74, 64
2, 29100, Note_on_c, 0, 76, 77
2, 29124, Note_off_c, 0, 76, 64
2, 29130, Note_on_c, 0, 77, 75
2, 29136, Note_off_c, 0, 48, 64
2, 29136, Note_off_c, 0, 52, 64
2, 29154, Note_off_c, 0, 77, 64
2, 29160, Note_on_c, 0, 79, 45
2, 29256, Note_off_c, 0, 79, 64
2, 29280, Note_on_c, 0, 79, 65
2, 29280, Note_on_c, 0, 76, 86
2, 29340, Note_on_c, 0, 48, 47
2, 29388, Note_off_c, 0, 48, 64
2, 29400, Note_on_c, 0, 52, 52
2, 29424, Note_off_c, 0, 76, 64
2, 29424, Note_off_c, 0, 79, 64
2, 29448, Note_off_c, 0, 52, 64
2, 29460, Note_on_c, 0, 55, 66
2, 29460, Note_on_c, 0, 74, 81
2, 29460, Note_on_c, 0, 77, 80
2, 29508, Note_off_c, 0, 77, 64
2, 29508, Note_off_c, 0, 74, 64
2, 29508, Note_off_c, 0, 55, 64
2, 29520, Note_on_c, 0, 60, 54
2, 29520, Note_on_c, 0, 72, 47
2, 29520, Note_on_c, 0, 76, 50
2, 29616, Note_off_c, 0, 76, 64
2, 29616, Note_off_c, 0, 72, 64
2, 29616, Note_off_c, 0, 60, 64
2, 29640, Note_on_c, 0, 64, 42
2, 29640, Note_on_c, 0, 67, 58
2, 29688, Note_off_c, 0, 67, 64
2, 29700, Note_on_c, 0, 72, 61
2, 29736, Note_off_c, 0, 64, 64
2, 29748, Note_off_c, 0, 72, 64
2, 29760, Note_on_c, 0, 65, 71
2, 29760, Note_on_c, 0, 69, 71
2, 29856, Note_off_c, 0, 69, 64
2, 29856, Note_off_c, 0, 65, 64
2, 29880, Note_on_c, 0, 67, 54
2, 29880, Note_on_c, 0, 64, 71
2, 29928, Note_off_c, 0, 67, 64
2, 29940, Note_on_c, 0, 72, 46
2, 29976, Note_off_c, 0, 64, 64
2, 29988, Note_off_c, 0, 72, 64
2, 30000, Note_on_c, 0, 62, 61
2, 30000, Note_on_c, 0, 67, 77
2, 30096, Note_off_c, 0, 67, 64
2, 30096, Note_off_c, 0, 62, 64
2, 30120, Note_on_c, 0, 55, 71
2, 30120, Note_on_c, 0, 65, 77
2, 30216, Note_off_c, 0, 65, 64
2, 30216, Note_off_c, 0, 55, 64
2, 30240, Note_on_c, 0, 65, 80
2, 30240, Note_on_c, 0, 60, 50
2, 30336, Note_off_c, 0, 60, 64
2, 30336, Note_off_c, 0, 65, 64
2, 30360, Note_on_c, 0, 64, 80
2, 30360, Note_on_c, 0, 55, 67
2, 30456, Note_off_c, 0, 55, 64
2, 30456, Note_off_c, 0, 64, 64
2, 30480, Note_on_c, 0, 48, 47
2, 30600, Note_on_c, 0, 67, 80
2, 30672, Note_off_c, 0, 48, 64
2, 30696, Note_off_c, 0, 67, 64
2, 30720, Note_on_c, 0, 72, 71
2, 30720, Note_on_c, 0, 52, 66
2, 30720, Note_on_c, 0, 48, 60
2, 30744, Note_off_c, 0, 72, 64
2, 30750, Note_on_c, 0, 71, 42
2, 30774, Note_off_c, 0, 71, 64
2, 30780, Note_on_c, 0, 72, 81
2, 30804, Note_off_c, 0, 72, 64
2, 30810, Note_on_c, 0, 74, 71
2, 30816, Note_off_c, 0, 48, 64
2, 30816, Note_off_c, 0, 52, 64
2, 30834, Note_off_c, 0, 74, 64
2, 30840, Note_on_c, 0, 76, 71
2, 30936, Note_off_c, 0, 76, 64
2, 30960, Note_on_c, 0, 52, 44
2, 30960, Note_on_c, 0, 48, 69
2, 30960, Note_on_c, 0, 76, 61
2, 30984, Note_off_c, 0, 76, 64
2, 30990, Note_on_c, 0, 74, 54
2, 31014, Note_off_c, 0, 74, 64
2, 31020, Note_on_c, 0, 76, 77
2, 31044, Note_off_c, 0, 76, 64
2, 31050, Note_on_c, 0, 77, 75
2, 31056, Note_off_c, 0, 48, 64
2, 31056, Note_off_c, 0, 52, 64
2, 31074, Note_off_c, 0, 77, 64
2, 31080, Note_on_c, 0, 79, 45
2, 31176, Note_off_c, 0, 79, 64
2, 31200, Note_on_c, 0, 79, 65
2, 31200, Note_on_c, 0, 76, 86
2, 31260, Note_on_c, 0, 48, 77
2, 31308, Note_off_c, 0, 48, 64
2, 31320, Note_on_c, 0, 52, 83
2, 31344, Note_off_c, 0, 76, 64
2, 31344, Note_off_c, 0, 79, 64
2, 31368, Note_off_c, 0, 52, 64
2, 31380, Note_on_c, 0, 55, 77
2, 31380, Note_on_c, 0, 74, 81
2, 31380, Note_on_c, 0, 77, 80
2, 31428, Note_off_c, 0, 77, 64
2, 31428, Note_off_c, 0, 74, 64
2, 31428, Note_off_c, 0, 55, 64
2, 31440, Note_on_c, 0, 60, 80
2, 31440, Note_on_c, 0, 72, 47
2, 31440, Note_on_c, 0, 76, 50
2, 31536, Note_off_c, 0, 76, 64
2, 31536, Note_off_c, 0, 72, 64
2, 31560, Note_on_c, 0, 84, 58
2, 31608, Note_off_c, 0, 84, 64
2, 31620, Note_on_c, 0, 83, 71
2, 31632, Note_off_c, 0, 60, 64
2, 31668, Note_off_c, 0, 83, 64
2, 31680, Note_on_c, 0, 83, 42
2, 31680, Note_on_c, 0, 65, 54
2, 31680, Note_on_c, 0, 55, 64
2, 31692, Note_off_c, 0, 83, 64
2, 31695, Note_on_c, 0, 81, 50
2, 31707, Note_off_c, 0, 81, 64
2, 31710, Note_on_c, 0, 83, 29
2, 31722, Note_off_c, 0, 83, 64
2, 31725, Note_on_c, 0, 81, 52
2, 31737, Note_off_c, 0, 81, 64
2, 31740, Note_on_c, 0, 83, 43
2, 31752, Note_off_c, 0, 83, 64
2, 31755, Note_on_c, 0, 81, 43
2, 31767, Note_off_c, 0, 81, 64
2, 31770, Note_on_c, 0, 83, 47
2, 31776, Note_off_c, 0, 65, 64
2, 31782, Note_off_c, 0, 83, 64
2, 31785, Note_on_c, 0, 81, 83
2, 31797, Note_off_c, 0, 81, 64
2, 31800, Note_on_c, 0, 64, 69
2, 31800, Note_on_c, 0, 79, 69
2, 31896, Note_off_c, 0, 79, 64
2, 31896, Note_off_c, 0, 64, 64
2, 31896, Note_off_c, 0, 55, 64
2, 31920, Note_on_c, 0, 55, 61
2, 31920, Note_on_c, 0, 62, 56
2, 31920, Note_on_c, 0, 79, 44
2, 31932, Note_off_c, 0, 79, 64
2, 31935, Note_on_c, 0, 77, 42
2, 31947, Note_off_c, 0, 77, 64
2, 31950, Note_on_c, 0, 79, 50
2, 31962, Note_off_c, 0, 79, 64
2, 31965, Note_on_c, 0, 77, 61
2, 31977, Note_off_c, 0, 77, 64
2, 31980, Note_on_c, 0, 79, 52
2, 31992, Note_off_c, 0, 79, 64
2, 31995, Note_on_c, 0, 77, 54
2, 32007, Note_off_c, 0, 77, 64
2, 32010, Note_on_c, 0, 79, 42
2, 32016, Note_off_c, 0, 62, 64
2, 32022, Note_off_c, 0, 79, 64
2, 32025, Note_on_c, 0, 77, 44
2, 32037, Note_off_c, 0, 77, 64
2, 32040, Note_on_c, 0, 60, 45
2, 32040, Note_on_c, 0, 76, 61
2, 32136, Note_off_c, 0, 76, 64
2, 32136, Note_off_c, 0, 55, 64
2, 32136, Note_off_c, 0, 60, 64
2, 32160, Note_on_c, 0, 60, 54
2, 32160, Note_on_c, 0, 55, 47
2, 32160, Note_on_c, 0, 77, 61
2, 32172, Note_off_c, 0, 77, 64
2, 32175, Note_on_c, 0, 76, 89
2, 32187, Note_off_c, 0, 76, 64
2, 32190, Note_on_c, 0, 77, 89
2, 32202, Note_off_c, 0, 77, 64
2, 32205, Note_on_c, 0, 76, 89
2, 32217, Note_off_c, 0, 76, 64
2, 32220, Note_on_c, 0, 77, 61
2, 32232, Note_off_c, 0, 77, 64
2, 32235, Note_on_c, 0, 76, 52
2, 32247, Note_off_c, 0, 76, 64
2, 32250, Note_on_c, 0, 77, 54
2, 32256, Note_off_c, 0, 60, 64
2, 32262, Note_off_c, 0, 77, 64
2, 32265, Note_on_c, 0, 76, 71
2, 32277, Note_off_c, 0, 76, 64
2, 32280, Note_on_c, 0, 59, 56
2, 32280, Note_on_c, 0, 74, 61
2, 32376, Note_off_c, 0, 74, 64
2, 32376, Note_off_c, 0, 59, 64
2, 32376, Note_off_c, 0, 55, 64
2, 32520, Note_on_c, 0, 67, 43
2, 32616, Note_off_c, 0, 67, 64
2, 32640, Note_on_c, 0, 72, 66
2, 32664, Note_off_c, 0, 72, 64
2, 32670, Note_on_c, 0, 71, 71
2, 32694, Note_off_c, 0, 71, 64
2, 32700, Note_on_c, 0, 72, 83
2, 32724, Note_off_c, 0, 72, 64
2, 32730, Note_on_c, 0, 74, 66
2, 32754, Note_off_c, 0, 74, 64
2, 32760, Note_on_c, 0, 76, 66
2, 32760, Note_on_c, 0, 48, 89
2, 32760, Note_on_c, 0, 55, 42
2, 32856, Note_off_c, 0, 55, 64
2, 32856, Note_off_c, 0, 48, 64
2, 32856, Note_off_c, 0, 76, 64
2, 32880, Note_on_c, 0, 55, 66
2, 32880, Note_on_c, 0, 48, 53
2, 32976, Note_off_c, 0, 48, 64
2, 32976, Note_off_c, 0, 55, 64
2, 33000, Note_on_c, 0, 55, 54
2, 33000, Note_on_c, 0, 48, 74
2, 33000, Note_on_c, 0, 76, 71
2, 33096, Note_off_c, 0, 76, 64
2, 33096, Note_off_c, 0, 48, 64
2, 33096, Note_off_c, 0, 55, 64
2, 33120, Note_on_c, 0, 77, 42
2, 33144, Note_off_c, 0, 77, 64
2, 33150, Note_on_c, 0, 76, 83
2, 33174, Note_off_c, 0, 76, 64
2, 33180, Note_on_c, 0, 74, 83
2, 33204, Note_off_c, 0, 74, 64
2, 33210, Note_on_c, 0, 76, 83
2, 33234, Note_off_c, 0, 76, 64
2, 33240, Note_on_c, 0, 74, 81
2, 33240, Note_on_c, 0, 55, 50
2, 33240, Note_on_c, 0, 47, 50
2, 33336, Note_off_c, 0, 47, 64
2, 33336, Note_off_c, 0, 55, 64
2, 33336, Note_off_c, 0, 74, 64
2, 33360, Note_on_c, 0, 47, 61
2, 33360, Note_on_c, 0, 55, 47
2, 33456, Note_off_c, 0, 55, 64
2, 33456, Note_off_c, 0, 47, 64
2, 33480, Note_on_c, 0, 55, 45
2, 33480, Note_on_c, 0, 47, 56
2, 33480, Note_on_c, 0, 67, 57
2, 33576, Note_off_c, 0, 67, 64
2, 33576, Note_off_c, 0, 47, 64
2, 33576, Note_off_c, 0, 55, 64
2, 33600, Note_on_c, 0, 74, 95
2, 33624, Note_off_c, 0, 74, 64
2, 33630, Note_on_c, 0, 72, 71
2, 33654, Note_off_c, 0, 72, 64
2, 33660, Note_on_c, 0, 74, 54
2, 33684, Note_off_c, 0, 74, 64
2, 33690, Note_on_c, 0, 76, 77
2, 33714, Note_off_c, 0, 76, 64
2, 33720, Note_on_c, 0, 77, 47
2, 33720, Note_on_c, 0, 47, 61
2, 33720, Note_on_c, 0, 55, 53
2, 33816, Note_off_c, 0, 55, 64
2, 33816, Note_off_c, 0, 47, 64
2, 33816, Note_off_c, 0, 77, 64
2, 33840, Note_on_c, 0, 47, 45
2, 33840, Note_on_c, 0, 55, 42
2, 33936, Note_off_c, 0, 55, 64
2, 33936, Note_off_c, 0, 47, 64
2, 33960, Note_on_c, 0, 55, 42
2, 33960, Note_on_c, 0, 47, 60
2, 33960, Note_on_c, 0, 74, 77
2, 34056, Note_off_c, 0, 74, 64
2, 34056, Note_off_c, 0, 47, 64
2, 34056, Note_off_c, 0, 55, 64
2, 34080, Note_on_c, 0, 76, 77
2, 34104, Note_off_c, 0, 76, 64
2, 34110, Note_on_c, 0, 74, 83
2, 34134, Note_off_c, 0, 74, 64
2, 34140, Note_on_c, 0, 76, 77
2, 34164, Note_off_c, 0, 76, 64
2, 34170, Note_on_c, 0, 77, 71
2, 34194, Note_off_c, 0, 77, 64
2, 34200, Note_on_c, 0, 52, 54
2, 34200, Note_on_c, 0, 79, 42
2, 34200, Note_on_c, 0, 48, 42
2, 34296, Note_off_c, 0, 48, 64
2, 34296, Note_off_c, 0, 79, 64
2, 34296, Note_off_c, 0, 52, 64
2, 34320, Note_on_c, 0, 52, 50
2, 34320, Note_on_c, 0, 48, 42
2, 34416, Note_off_c, 0, 48, 64
2, 34416, Note_off_c, 0, 52, 64
2, 34440, Note_on_c, 0, 52, 66
2, 34440, Note_on_c, 0, 48, 42
2, 34440, Note_on_c, 0, 67, 71
2, 34488, Note_off_c, 0, 67, 64
2, 34500, Note_on_c, 0, 72, 66
2, 34536, Note_off_c, 0, 48, 64
2, 34536, Note_off_c, 0, 52, 64
2, 34548, Note_off_c, 0, 72, 64
2, 34560, Note_on_c, 0, 71, 66
2, 34560, Note_on_c, 0, 53, 61
2, 34560, Note_on_c, 0, 48, 60
2, 34572, Note_off_c, 0, 71, 64
2, 34575, Note_on_c, 0, 69, 1
2, 34587, Note_off_c, 0, 69, 64
2, 34590, Note_on_c, 0, 71, 54
2, 34602, Note_off_c, 0, 71, 64
2, 34605, Note_on_c, 0, 69, 42
2, 34617, Note_off_c, 0, 69, 64
2, 34620, Note_on_c, 0, 71, 71
2, 34632, Note_off_c, 0, 71, 64
2, 34635, Note_on_c, 0, 69, 89
2, 34647, Note_off_c, 0, 69, 64
2, 34650, Note_on_c, 0, 71, 65
2, 34656, Note_off_c, 0, 53, 64
2, 34662, Note_off_c, 0, 71, 64
2, 34665, Note_on_c, 0, 69, 89
2, 34677, Note_off_c, 0, 69, 64
2, 34680, Note_on_c, 0, 52, 57
2, 34680, Note_on_c, 0, 67, 58
2, 34776, Note_off_c, 0, 67, 64
2, 34776, Note_off_c, 0, 52, 64
2, 34800, Note_on_c, 0, 53, 61
2, 34800, Note_on_c, 0, 69, 83
2, 34848, Note_off_c, 0, 69, 64
2, 34860, Note_on_c, 0, 72, 71
2, 34896, Note_off_c, 0, 53, 64
2, 34908, Note_off_c, 0, 72, 64
2, 34920, Note_on_c, 0, 50, 69
2, 34920, Note_on_c, 0, 71, 83
2, 34968, Note_off_c, 0, 71, 64
2, 34980, Note_on_c, 0, 74, 66
2, 35016, Note_off_c, 0, 48, 64
2, 35016, Note_off_c, 0, 50, 64
2, 35028, Note_off_c, 0, 74, 64
2, 35040, Note_on_c, 0, 52, 47
2, 35040, Note_on_c, 0, 48, 60
2, 35040, Note_on_c, 0, 72, 77
2, 35184, Note_off_c, 0, 72, 64
2, 35220, Note_on_c, 0, 76, 77
2, 35232, Note_off_c, 0, 48, 64
2, 35232, Note_off_c, 0, 52, 64
2, 35268, Note_off_c, 0, 76, 64
2, 35280, Note_on_c, 0, 72, 66
2, 35376, Note_off_c, 0, 72, 64
2, 35400, Note_on_c, 0, 52, 50
2, 35400, Note_on_c, 0, 64, 42
2, 35496, Note_off_c, 0, 64, 64
2, 35496, Note_off_c, 0, 52, 64
2, 35520, Note_on_c, 0, 67, 45
2, 35520, Note_on_c, 0, 55, 54
2, 35568, Note_off_c, 0, 55, 64
2, 35568, Note_off_c, 0, 67, 64
2, 35580, Note_on_c, 0, 65, 47
2, 35580, Note_on_c, 0, 53, 66
2, 35628, Note_off_c, 0, 53, 64
2, 35628, Note_off_c, 0, 65, 64
2, 35640, Note_on_c, 0, 52, 66
2, 35640, Note_on_c, 0, 64, 83
2, 35688, Note_off_c, 0, 64, 64
2, 35688, Note_off_c, 0, 52, 64
2, 35700, Note_on_c, 0, 62, 77
2, 35700, Note_on_c, 0, 50, 58
2, 35748, Note_off_c, 0, 50, 64
2, 35748, Note_off_c, 0, 62, 64
2, 35760, Note_on_c, 0, 55, 71
2, 35760, Note_on_c, 0, 67, 43
2, 35856, Note_off_c, 0, 67, 64
2, 35856, Note_off_c, 0, 55, 64
2, 35880, Note_on_c, 0, 55, 52
2, 35880, Note_on_c, 0, 67, 47
2, 35976, Note_off_c, 0, 67, 64
2, 35976, Note_off_c, 0, 55, 64
2, 36000, Note_on_c, 0, 60, 80
2, 36000, Note_on_c, 0, 48, 80
2, 36192, Note_off_c, 0, 48, 64
2, 36192, Note_off_c, 0, 60, 64
2, 36240, Note_on_c, 0, 67, 83
2, 36240, Note_on_c, 0, 47, 61
2, 36252, Note_off_c, 0, 67, 64
2, 36255, Note_on_c, 0, 65, 77
2, 36267, Note_off_c, 0, 65, 64
2, 36270, Note_on_c, 0, 67, 83
2, 36282, Note_off_c, 0, 67, 64
2, 36285, Note_on_c, 0, 65, 61
2, 36288, Note_off_c, 0, 47, 64
2, 36297, Note_off_c, 0, 65, 64
2, 36300, Note_on_c, 0, 67, 97
2, 36300, Note_on_c, 0, 55, 66
2, 36312, Note_off_c, 0, 67, 64
2, 36315, Note_on_c, 0, 65, 83
2, 36327, Note_off_c, 0, 65, 64
2, 36330, Note_on_c, 0, 67, 83
2, 36342, Note_off_c, 0, 67, 64
2, 36345, Note_on_c, 0, 65, 66
2, 36348, Note_off_c, 0, 55, 64
2, 36357, Note_off_c, 0, 65, 64
2, 36360, Note_on_c, 0, 67, 66
2, 36360, Note_on_c, 0, 47, 83
2, 36372, Note_off_c, 0, 67, 64
2, 36375, Note_on_c, 0, 65, 47
2, 36387, Note_off_c, 0, 65, 64
2, 36390, Note_on_c, 0, 67, 52
2, 36402, Note_off_c, 0, 67, 64
2, 36405, Note_on_c, 0, 65, 54
2, 36408, Note_off_c, 0, 47, 64
2, 36417, Note_off_c, 0, 65, 64
2, 36420, Note_on_c, 0, 67, 58
2, 36420, Note_on_c, 0, 55, 66
2, 36432, Note_off_c, 0, 67, 64
2, 36435, Note_on_c, 0, 65, 44
2, 36447, Note_off_c, 0, 65, 64
2, 36450, Note_on_c, 0, 67, 89
2, 36462, Note_off_c, 0, 67, 64
2, 36465, Note_on_c, 0, 65, 77
2, 36468, Note_off_c, 0, 55, 64
2, 36477, Note_off_c, 0, 65, 64
2, 36480, Note_on_c, 0, 64, 61
2, 36480, Note_on_c, 0, 48, 61
2, 36528, Note_off_c, 0, 48, 64
2, 36540, Note_on_c, 0, 55, 61
2, 36588, Note_off_c, 0, 55, 64
2, 36600, Note_on_c, 0, 48, 66
2, 36648, Note_off_c, 0, 48, 64
2, 36660, Note_on_c, 0, 55, 61
2, 36672, Note_off_c, 0, 64, 64
2, 36708, Note_off_c, 0, 55, 64
2, 36720, Note_on_c, 0, 47, 66
2, 36720, Note_on_c, 0, 67, 66
2, 36768, Note_off_c, 0, 67, 64
2, 36768, Note_off_c, 0, 47, 64
2, 36780, Note_on_c, 0, 55, 66
2, 36780, Note_on_c, 0, 71, 61
2, 36828, Note_off_c, 0, 71, 64
2, 36828, Note_off_c, 0, 55, 64
2, 36840, Note_on_c, 0, 47, 72
2, 36840, Note_on_c, 0, 74, 97
2, 36888, Note_off_c, 0, 74, 64
2, 36888, Note_off_c, 0, 47, 64
2, 36900, Note_on_c, 0, 55, 66
2, 36900, Note_on_c, 0, 77, 52
2, 36948, Note_off_c, 0, 77, 64
2, 36948, Note_off_c, 0, 55, 64
2, 36960, Note_on_c, 0, 76, 77
2, 36960, Note_on_c, 0, 48, 71
2, 37008, Note_off_c, 0, 48, 64
2, 37020, Note_on_c, 0, 55, 50
2, 37056, Note_off_c, 0, 76, 64
2, 37068, Note_off_c, 0, 55, 64
2, 37080, Note_on_c, 0, 48, 77
2, 37080, Note_on_c, 0, 72, 66
2, 37128, Note_off_c, 0, 48, 64
2, 37140, Note_on_c, 0, 55, 61
2, 37176, Note_off_c, 0, 72, 64
2, 37188, Note_off_c, 0, 55, 64
2, 37200, Note_on_c, 0, 47, 77
2, 37200, Note_on_c, 0, 79, 47
2, 37212, Note_off_c, 0, 79, 64
2, 37215, Note_on_c, 0, 77, 43
2, 37227, Note_off_c, 0, 77, 64
2, 37230, Note_on_c, 0, 79, 58
2, 37242, Note_off_c, 0, 79, 64
2, 37245, Note_on_c, 0, 77, 66
2, 37248, Note_off_c, 0, 47, 64
2, 37257, Note_off_c, 0, 77, 64
2, 37260, Note_on_c, 0, 55, 54
2, 37260, Note_on_c, 0, 79, 61
2, 37272, Note_off_c, 0, 79, 64
2, 37275, Note_on_c, 0, 77, 54
2, 37287, Note_off_c, 0, 77, 64
2, 37290, Note_on_c, 0, 79, 44
2, 37302, Note_off_c, 0, 79, 64
2, 37305, Note_on_c, 0, 77, 43
2, 37308, Note_off_c, 0, 55, 64
2, 37317, Note_off_c, 0, 77, 64
2, 37320, Note_on_c, 0, 47, 66
2, 37320, Note_on_c, 0, 79, 58
2, 37332, Note_off_c, 0, 79, 64
2, 37335, Note_on_c, 0, 77, 42
2, 37347, Note_off_c, 0, 77, 64
2, 37350, Note_on_c, 0, 79, 47
2, 37362, Note_off_c, 0, 79, 64
2, 37365, Note_on_c, 0, 77, 42
2, 37368, Note_off_c, 0, 47, 64
2, 37377, Note_off_c, 0, 77, 64
2, 37380, Note_on_c, 0, 55, 58
2, 37380, Note_on_c, 0, 79, 43
2, 37392, Note_off_c, 0, 79, 64
2, 37395, Note_on_c, 0, 77, 42
2, 37407, Note_off_c, 0, 77, 64
2, 37410, Note_on_c, 0, 79, 42
2, 37422, Note_off_c, 0, 79, 64
2, 37425, Note_on_c, 0, 77, 42
2, 37428, Note_off_c, 0, 55, 64
2, 37437, Note_off_c, 0, 77, 64
2, 37440, Note_on_c, 0, 76, 47
2, 37440, Note_on_c, 0, 48, 61
2, 37488, Note_off_c, 0, 48, 64
2, 37500, Note_on_c, 0, 55, 66
2, 37548, Note_off_c, 0, 55, 64
2, 37560, Note_on_c, 0, 48, 71
2, 37608, Note_off_c, 0, 48, 64
2, 37620, Note_on_c, 0, 55, 66
2, 37632, Note_off_c, 0, 76, 64
2, 37668, Note_off_c, 0, 55, 64
2, 37680, Note_on_c, 0, 47, 54
2, 37680, Note_on_c, 0, 86, 80
2, 37728, Note_off_c, 0, 47, 64
2, 37740, Note_on_c, 0, 55, 50
2, 37788, Note_off_c, 0, 55, 64
2, 37800, Note_on_c, 0, 47, 66
2, 37824, Note_off_c, 0, 86, 64
2, 37848, Note_off_c, 0, 47, 64
2, 37860, Note_on_c, 0, 55, 58
2, 37860, Note_on_c, 0, 77, 66
2, 37908, Note_off_c, 0, 77, 64
2, 37908, Note_off_c, 0, 55, 64
2, 37920, Note_on_c, 0, 48, 61
2, 37920, Note_on_c, 0, 76, 71
2, 37952, Note_off_c, 0, 76, 64
2, 37960, Note_on_c, 0, 74, 66
2, 37992, Note_off_c, 0, 74, 64
2, 38000, Note_on_c, 0, 72, 83
2, 38016, Note_off_c, 0, 48, 64
2, 38032, Note_off_c, 0, 72, 64
2, 38040, Note_on_c, 0, 81, 71
2, 38040, Note_on_c, 0, 53, 71
2, 38072, Note_off_c, 0, 81, 64
2, 38080, Note_on_c, 0, 79, 81
2, 38112, Note_off_c, 0, 79, 64
2, 38120, Note_on_c, 0, 77, 89
2, 38136, Note_off_c, 0, 53, 64
2, 38152, Note_off_c, 0, 77, 64
2, 38160, Note_on_c, 0, 55, 45
2, 38160, Note_on_c, 0, 76, 75
2, 38256, Note_off_c, 0, 76, 64
2, 38256, Note_off_c, 0, 55, 64
2, 38280, Note_on_c, 0, 43, 77
2, 38280, Note_on_c, 0, 76, 50
2, 38292, Note_off_c, 0, 76, 64
2, 38295, Note_on_c, 0, 74, 71
2, 38307, Note_off_c, 0, 74, 64
2, 38310, Note_on_c, 0, 76, 45
2, 38322, Note_off_c, 0, 76, 64
2, 38325, Note_on_c, 0, 74, 58
2, 38337, Note_off_c, 0, 74, 64
2, 38340, Note_on_c, 0, 76, 66
2, 38352, Note_off_c, 0, 76, 64
2, 38355, Note_on_c, 0, 74, 71
2, 38367, Note_off_c, 0, 74, 64
2, 38370, Note_on_c, 0, 76, 61
2, 38376, Note_off_c, 0, 43, 64
2, 38382, Note_off_c, 0, 76, 64
2, 38385, Note_on_c, 0, 74, 58
2, 38397, Note_off_c, 0, 74, 64
2, 38400, Note_on_c, 0, 48, 80
2, 38400, Note_on_c, 0, 72, 89
2, 38496, Note_off_c, 0, 48, 64
2, 38520, Note_on_c, 0, 43, 80
2, 38592, Note_off_c, 0, 72, 64
2, 38616, Note_off_c, 0, 43, 64
2, 38640, Note_on_c, 0, 36, 80
2, 38736, Note_off_c, 0, 36, 64
2, 38760, Note_on_c, 0, 62, 80
2, 38856, Note_off_c, 0, 62, 64
2, 38880, Note_on_c, 0, 67, 54
2, 38880, Note_on_c, 0, 59, 75
2, 38880, Note_on_c, 0, 55, 80
2, 38904, Note_off_c, 0, 67, 64
2, 38910, Note_on_c, 0, 66, 77
2, 38934, Note_off_c, 0, 66, 64
2, 38940, Note_on_c, 0, 67, 52
2, 38964, Note_off_c, 0, 67, 64
2, 38970, Note_on_c, 0, 69, 50
2, 38976, Note_off_c, 0, 55, 64
2, 38976, Note_off_c, 0, 59, 64
2, 38994, Note_off_c, 0, 69, 64
2, 39000, Note_on_c, 0, 71, 83
2, 39096, Note_off_c, 0, 71, 64
2, 39120, Note_on_c, 0, 55, 42
2, 39120, Note_on_c, 0, 59, 56
2, 39120, Note_on_c, 0, 71, 61
2, 39144, Note_off_c, 0, 71, 64
2, 39150, Note_on_c, 0, 69, 71
2, 39174, Note_off_c, 0, 69, 64
2, 39180, Note_on_c, 0, 71, 75
2, 39204, Note_off_c, 0, 71, 64
2, 39210, Note_on_c, 0, 72, 58
2, 39216, Note_off_c, 0, 59, 64
2, 39216, Note_off_c, 0, 55, 64
2, 39234, Note_off_c, 0, 72, 64
2, 39240, Note_on_c, 0, 74, 61
2, 39336, Note_off_c, 0, 74, 64
2, 39360, Note_on_c, 0, 74, 69
2, 39360, Note_on_c, 0, 71, 86
2, 39420, Note_on_c, 0, 43, 29
2, 39468, Note_off_c, 0, 43, 64
2, 39480, Note_on_c, 0, 47, 71
2, 39504, Note_off_c, 0, 71, 64
2, 39504, Note_off_c, 0, 74, 64
2, 39528, Note_off_c, 0, 47, 64
2, 39540, Note_on_c, 0, 50, 77
2, 39540, Note_on_c, 0, 72, 43
2, 39540, Note_on_c, 0, 69, 47
2, 39588, Note_off_c, 0, 69, 64
2, 39588, Note_off_c, 0, 72, 64
2, 39588, Note_off_c, 0, 50, 64
2, 39600, Note_on_c, 0, 55, 44
2, 39600, Note_on_c, 0, 71, 43
2, 39600, Note_on_c, 0, 67, 43
2, 39696, Note_off_c, 0, 67, 64
2, 39696, Note_off_c, 0, 71, 64
2, 39696, Note_off_c, 0, 55, 64
2, 39720, Note_on_c, 0, 59, 61
2, 39720, Note_on_c, 0, 62, 77
2, 39768, Note_off_c, 0, 62, 64
2, 39780, Note_on_c, 0, 67, 58
2, 39816, Note_off_c, 0, 59, 64
2, 39828, Note_off_c, 0, 67, 64
2, 39840, Note_on_c, 0, 60, 83
2, 39840, Note_on_c, 0, 64, 89
2, 39936, Note_off_c, 0, 64, 64
2, 39936, Note_off_c, 0, 60, 64
2, 39960, Note_on_c, 0, 62, 83
2, 39960, Note_on_c, 0, 59, 71
2, 40008, Note_off_c, 0, 62, 64
2, 40020, Note_on_c, 0, 67, 58
2, 40056, Note_off_c, 0, 59, 64
2, 40068, Note_off_c, 0, 67, 64
2, 40080, Note_on_c, 0, 57, 71
2, 40080, Note_on_c, 0, 62, 77
2, 40176, Note_off_c, 0, 62, 64
2, 40176, Note_off_c, 0, 57, 64
2, 40200, Note_on_c, 0, 50, 77
2, 40200, Note_on_c, 0, 60, 77
2, 40296, Note_off_c, 0, 60, 64
2, 40296, Note_off_c, 0, 50, 64
2, 40320, Note_on_c, 0, 55, 71
2, 40320, Note_on_c, 0, 59, 71
2, 40416, Note_off_c, 0, 55, 64
2, 40440, Note_on_c, 0, 50, 89
2, 40512, Note_off_c, 0, 59, 64
2, 40536, Note_off_c, 0, 50, 64
2, 40560, Note_on_c, 0, 43, 97
2, 40656, Note_off_c, 0, 43, 64
2, 40680, Note_on_c, 0, 64, 89
2, 40776, Note_off_c, 0, 64, 64
2, 40800, Note_on_c, 0, 69, 71
2, 40800, Note_on_c, 0, 57, 57
2, 40800, Note_on_c, 0, 60, 56
2, 40824, Note_off_c, 0, 69, 64
2, 40830, Note_on_c, 0, 68, 66
2, 40854, Note_off_c, 0, 68, 64
2, 40860, Note_on_c, 0, 69, 58
2, 40884, Note_off_c, 0, 69, 64
2, 40890, Note_on_c, 0, 71, 50
2, 40896, Note_off_c, 0, 60, 64
2, 40896, Note_off_c, 0, 57, 64
2, 40914, Note_off_c, 0, 71, 64
2, 40920, Note_on_c, 0, 72, 77
2, 41016, Note_off_c, 0, 72, 64
2, 41040, Note_on_c, 0, 57, 66
2, 41040, Note_on_c, 0, 60, 53
2, 41040, Note_on_c, 0, 72, 58
2, 41064, Note_off_c, 0, 72, 64
2, 41070, Note_on_c, 0, 71, 66
2, 41094, Note_off_c, 0, 71, 64
2, 41100, Note_on_c, 0, 72, 61
2, 41124, Note_off_c, 0, 72, 64
2, 41130, Note_on_c, 0, 74, 66
2, 41136, Note_off_c, 0, 60, 64
2, 41136, Note_off_c, 0, 57, 64
2, 41154, Note_off_c, 0, 74, 64
2, 41160, Note_on_c, 0, 76, 71
2, 41256, Note_off_c, 0, 76, 64
2, 41280, Note_on_c, 0, 76, 80
2, 41280, Note_on_c, 0, 72, 75
2, 41340, Note_on_c, 0, 45, 47
2, 41388, Note_off_c, 0, 45, 64
2, 41400, Note_on_c, 0, 48, 71
2, 41424, Note_off_c, 0, 72, 64
2, 41424, Note_off_c, 0, 76, 64
2, 41448, Note_off_c, 0, 48, 64
2, 41460, Note_on_c, 0, 74, 52
2, 41460, Note_on_c, 0, 71, 56
2, 41460, Note_on_c, 0, 52, 58
2, 41508, Note_off_c, 0, 52, 64
2, 41508, Note_off_c, 0, 71, 64
2, 41508, Note_off_c, 0, 74, 64
2, 41520, Note_on_c, 0, 57, 54
2, 41520, Note_on_c, 0, 69, 42
2, 41520, Note_on_c, 0, 72, 47
2, 41616, Note_off_c, 0, 72, 64
2, 41616, Note_off_c, 0, 69, 64
2, 41640, Note_on_c, 0, 76, 89
2, 41712, Note_off_c, 0, 57, 64
2, 41736, Note_off_c, 0, 76, 64
2, 41760, Note_on_c, 0, 77, 77
2, 41784, Note_off_c, 0, 77, 64
2, 41790, Note_on_c, 0, 76, 50
2, 41814, Note_off_c, 0, 76, 64
2, 41820, Note_on_c, 0, 77, 77
2, 41844, Note_off_c, 0, 77, 64
2, 41850, Note_on_c, 0, 79, 61
2, 41874, Note_off_c, 0, 79, 64
2, 41880, Note_on_c, 0, 81, 44
2, 41880, Note_on_c, 0, 57, 54
2, 41880, Note_on_c, 0, 50, 74
2, 41976, Note_off_c, 0, 50, 64
2, 41976, Note_off_c, 0, 57, 64
2, 41976, Note_off_c, 0, 81, 64
2, 42000, Note_on_c, 0, 50, 52
2, 42000, Note_on_c, 0, 57, 47
2, 42096, Note_off_c, 0, 57, 64
2, 42096, Note_off_c, 0, 50, 64
2, 42120, Note_on_c, 0, 50, 55
2, 42120, Note_on_c, 0, 57, 50
2, 42120, Note_on_c, 0, 77, 80
2, 42216, Note_off_c, 0, 77, 64
2, 42216, Note_off_c, 0, 57, 64
2, 42216, Note_off_c, 0, 50, 64
2, 42240, Note_on_c, 0, 76, 89
2, 42264, Note_off_c, 0, 76, 64
2, 42270, Note_on_c, 0, 74, 89
2, 42294, Note_off_c, 0, 74, 64
2, 42300, Note_on_c, 0, 72, 89
2, 42324, Note_off_c, 0, 72, 64
2, 42330, Note_on_c, 0, 74, 77
2, 42354, Note_off_c, 0, 74, 64
2, 42360, Note_on_c, 0, 72, 54
2, 42360, Note_on_c, 0, 57, 66
2, 42360, Note_on_c, 0, 60, 50
2, 42456, Note_off_c, 0, 60, 64
2, 42456, Note_off_c, 0, 57, 64
2, 42456, Note_off_c, 0, 72, 64
2, 42480, Note_on_c, 0, 57, 58
2, 42480, Note_on_c, 0, 60, 43
2, 42576, Note_off_c, 0, 60, 64
2, 42576, Note_off_c, 0, 57, 64
2, 42600, Note_on_c, 0, 57, 54
2, 42600, Note_on_c, 0, 60, 45
2, 42600, Note_on_c, 0, 72, 43
2, 42696, Note_off_c, 0, 72, 64
2, 42696, Note_off_c, 0, 60, 64
2, 42696, Note_off_c, 0, 57, 64
2, 42720, Note_on_c, 0, 71, 58
2, 42744, Note_off_c, 0, 71, 64
2, 42750, Note_on_c, 0, 69, 58
2, 42774, Note_off_c, 0, 69, 64
2, 42780, Note_on_c, 0, 71, 58
2, 42804, Note_off_c, 0, 71, 64
2, 42810, Note_on_c, 0, 72, 50
2, 42834, Note_off_c, 0, 72, 64
2, 42840, Note_on_c, 0, 74, 71
2, 42840, Note_on_c, 0, 59, 58
2, 42840, Note_on_c, 0, 52, 61
2, 42936, Note_off_c, 0, 52, 64
2, 42936, Note_off_c, 0, 59, 64
2, 42936, Note_off_c, 0, 74, 64
2, 42960, Note_on_c, 0, 59, 58
2, 42960, Note_on_c, 0, 52, 71
2, 43056, Note_off_c, 0, 52, 64
2, 43056, Note_off_c, 0, 59, 64
2, 43080, Note_on_c, 0, 56, 43
2, 43080, Note_on_c, 0, 52, 61
2, 43080, Note_on_c, 0, 71, 58
2, 43176, Note_off_c, 0, 71, 64
2, 43176, Note_off_c, 0, 52, 64
2, 43176, Note_off_c, 0, 56, 64
2, 43200, Note_on_c, 0, 74, 58
2, 43200, Note_on_c, 0, 57, 58
2, 43200, Note_on_c, 0, 52, 77
2, 43212, Note_off_c, 0, 74, 64
2, 43215, Note_on_c, 0, 72, 50
2, 43227, Note_off_c, 0, 72, 64
2, 43230, Note_on_c, 0, 74, 42
2, 43242, Note_off_c, 0, 74, 64
2, 43245, Note_on_c, 0, 72, 43
2, 43257, Note_off_c, 0, 72, 64
2, 43260, Note_on_c, 0, 74, 54
2, 43272, Note_off_c, 0, 74, 64
2, 43275, Note_on_c, 0, 72, 44
2, 43287, Note_off_c, 0, 72, 64
2, 43290, Note_on_c, 0, 74, 45
2, 43296, Note_off_c, 0, 57, 64
2, 43302, Note_off_c, 0, 74, 64
2, 43305, Note_on_c, 0, 72, 66
2, 43317, Note_off_c, 0, 72, 64
2, 43320, Note_on_c, 0, 56, 58
2, 43320, Note_on_c, 0, 71, 47
2, 43416, Note_off_c, 0, 71, 64
2, 43416, Note_off_c, 0, 52, 64
2, 43416, Note_off_c, 0, 56, 64
2, 43440, Note_on_c, 0, 76, 58
2, 43488, Note_off_c, 0, 76, 64
2, 43500, Note_on_c, 0, 71, 42
2, 43548, Note_off_c, 0, 71, 64
2, 43560, Note_on_c, 0, 62, 80
2, 43560, Note_on_c, 0, 68, 71
2, 43608, Note_off_c, 0, 68, 64
2, 43620, Note_on_c, 0, 64, 77
2, 43656, Note_off_c, 0, 62, 64
2, 43668, Note_off_c, 0, 64, 64
2, 43680, Note_on_c, 0, 60, 61
2, 43680, Note_on_c, 0, 69, 77
2, 43704, Note_off_c, 0, 69, 64
2, 43710, Note_on_c, 0, 68, 83
2, 43734, Note_off_c, 0, 68, 64
2, 43740, Note_on_c, 0, 69, 81
2, 43764, Note_off_c, 0, 69, 64
2, 43770, Note_on_c, 0, 71, 61
2, 43776, Note_off_c, 0, 60, 64
2, 43794, Note_off_c, 0, 71, 64
2, 43800, Note_on_c, 0, 72, 81
2, 43800, Note_on_c, 0, 57, 83
2, 43896, Note_off_c, 0, 57, 64
2, 43896, Note_off_c, 0, 72, 64
2, 43920, Note_on_c, 0, 81, 58
2, 43968, Note_off_c, 0, 81, 64
2, 43980, Note_on_c, 0, 76, 71
2, 44028, Note_off_c, 0, 76, 64
2, 44040, Note_on_c, 0, 55, 61
2, 44040, Note_on_c, 0, 73, 106
2, 44088, Note_off_c, 0, 73, 64
2, 44100, Note_on_c, 0, 69, 77
2, 44136, Note_off_c, 0, 55, 64
2, 44148, Note_off_c, 0, 69, 64
2, 44160, Note_on_c, 0, 53, 58
2, 44160, Note_on_c, 0, 74, 71
2, 44184, Note_off_c, 0, 74, 64
2, 44190, Note_on_c, 0, 73, 77
2, 44214, Note_off_c, 0, 73, 64
2, 44220, Note_on_c, 0, 74, 71
2, 44244, Note_off_c, 0, 74, 64
2, 44250, Note_on_c, 0, 76, 71
2, 44256, Note_off_c, 0, 53, 64
2, 44274, Note_off_c, 0, 76, 64
2, 44280, Note_on_c, 0, 77, 44
2, 44280, Note_on_c, 0, 50, 83
2, 44376, Note_off_c, 0, 50, 64
2, 44376, Note_off_c, 0, 77, 64
2, 44400, Note_on_c, 0, 79, 43
2, 44448, Note_off_c, 0, 79, 64
2, 44460, Note_on_c, 0, 74, 42
2, 44508, Note_off_c, 0, 74, 64
2, 44520, Note_on_c, 0, 53, 71
2, 44520, Note_on_c, 0, 71, 45
2, 44568, Note_off_c, 0, 71, 64
2, 44580, Note_on_c, 0, 67, 89
2, 44616, Note_off_c, 0, 53, 64
2, 44628, Note_off_c, 0, 67, 64
2, 44640, Note_on_c, 0, 72, 80
2, 44640, Note_on_c, 0, 52, 80
2, 44664, Note_off_c, 0, 72, 64
2, 44670, Note_on_c, 0, 71, 80
2, 44694, Note_off_c, 0, 71, 64
2, 44700, Note_on_c, 0, 72, 80
2, 44724, Note_off_c, 0, 72, 64
2, 44730, Note_on_c, 0, 74, 80
2, 44736, Note_off_c, 0, 52, 64
2, 44754, Note_off_c, 0, 74, 64
2, 44760, Note_on_c, 0, 76, 89
2, 44760, Note_on_c, 0, 48, 80
2, 44856, Note_off_c, 0, 48, 64
2, 44856, Note_off_c, 0, 76, 64
2, 44880, Note_on_c, 0, 52, 41
2, 44880, Note_on_c, 0, 81, 42
2, 44892, Note_off_c, 0, 81, 64
2, 44895, Note_on_c, 0, 79, 66
2, 44907, Note_off_c, 0, 79, 64
2, 44910, Note_on_c, 0, 81, 44
2, 44922, Note_off_c, 0, 81, 64
2, 44925, Note_on_c, 0, 79, 54
2, 44928, Note_off_c, 0, 52, 64
2, 44937, Note_off_c, 0, 79, 64
2, 44940, Note_on_c, 0, 60, 66
2, 44940, Note_on_c, 0, 81, 42
2, 44952, Note_off_c, 0, 81, 64
2, 44955, Note_on_c, 0, 79, 1
2, 44967, Note_off_c, 0, 79, 64
2, 44970, Note_on_c, 0, 81, 42
2, 44982, Note_off_c, 0, 81, 64
2, 44985, Note_on_c, 0, 79, 42
2, 44988, Note_off_c, 0, 60, 64
2, 44997, Note_off_c, 0, 79, 64
2, 45000, Note_on_c, 0, 52, 89
2, 45000, Note_on_c, 0, 81, 61
2, 45012, Note_off_c, 0, 81, 64
2, 45015, Note_on_c, 0, 79, 44
2, 45027, Note_off_c, 0, 79, 64
2, 45030, Note_on_c, 0, 81, 45
2, 45042, Note_off_c, 0, 81, 64
2, 45045, Note_on_c, 0, 79, 43
2, 45048, Note_off_c, 0, 52, 64
2, 45057, Note_off_c, 0, 79, 64
2, 45060, Note_on_c, 0, 60, 54
2, 45060, Note_on_c, 0, 77, 66
2, 45084, Note_off_c, 0, 77, 64
2, 45090, Note_on_c, 0, 79, 42
2, 45108, Note_off_c, 0, 60, 64
2, 45114, Note_off_c, 0, 79, 64
2, 45120, Note_on_c, 0, 81, 42
2, 45120, Note_on_c, 0, 53, 71
2, 45168, Note_off_c, 0, 53, 64
2, 45180, Note_on_c, 0, 60, 61
2, 45228, Note_off_c, 0, 60, 64
2, 45240, Note_on_c, 0, 53, 66
2, 45288, Note_off_c, 0, 53, 64
2, 45300, Note_on_c, 0, 60, 54
2, 45312, Note_off_c, 0, 81, 64
2, 45348, Note_off_c, 0, 60, 64
2, 45360, Note_on_c, 0, 54, 45
2, 45360, Note_on_c, 0, 74, 58
2, 45372, Note_off_c, 0, 74, 64
2, 45375, Note_on_c, 0, 72, 75
2, 45387, Note_off_c, 0, 72, 64
2, 45390, Note_on_c, 0, 74, 58
2, 45402, Note_off_c, 0, 74, 64
2, 45405, Note_on_c, 0, 72, 58
2, 45408, Note_off_c, 0, 54, 64
2, 45417, Note_off_c, 0, 72, 64
2, 45420, Note_on_c, 0, 57, 71
2, 45420, Note_on_c, 0, 74, 43
2, 45432, Note_off_c, 0, 74, 64
2, 45435, Note_on_c, 0, 72, 58
2, 45447, Note_off_c, 0, 72, 64
2, 45450, Note_on_c, 0, 74, 42
2, 45462, Note_off_c, 0, 74, 64
2, 45465, Note_on_c, 0, 72, 50
2, 45468, Note_off_c, 0, 57, 64
2, 45477, Note_off_c, 0, 72, 64
2, 45480, Note_on_c, 0, 54, 77
2, 45480, Note_on_c, 0, 74, 58
2, 45492, Note_off_c, 0, 74, 64
2, 45495, Note_on_c, 0, 72, 71
2, 45507, Note_off_c, 0, 72, 64
2, 45510, Note_on_c, 0, 74, 54
2, 45522, Note_off_c, 0, 74, 64
2, 45525, Note_on_c, 0, 72, 58
2, 45528, Note_off_c, 0, 54, 64
2, 45537, Note_off_c, 0, 72, 64
2, 45540, Note_on_c, 0, 57, 58
2, 45540, Note_on_c, 0, 74, 61
2, 45552, Note_off_c, 0, 74, 64
2, 45555, Note_on_c, 0, 72, 61
2, 45567, Note_off_c, 0, 72, 64
2, 45570, Note_on_c, 0, 74, 43
2, 45582, Note_off_c, 0, 74, 64
2, 45585, Note_on_c, 0, 72, 65
2, 45588, Note_off_c, 0, 57, 64
2, 45597, Note_off_c, 0, 72, 64
2, 45600, Note_on_c, 0, 71, 54
2, 45600, Note_on_c, 0, 55, 61
2, 45632, Note_off_c, 0, 71, 64
2, 45640, Note_on_c, 0, 72, 54
2, 45672, Note_off_c, 0, 72, 64
2, 45680, Note_on_c, 0, 74, 71
2, 45696, Note_off_c, 0, 55, 64
2, 45712, Note_off_c, 0, 74, 64
2, 45720, Note_on_c, 0, 67, 47
2, 45720, Note_on_c, 0, 43, 83
2, 45816, Note_off_c, 0, 43, 64
2, 45816, Note_off_c, 0, 67, 64
2, 45840, Note_on_c, 0, 52, 58
2, 45840, Note_on_c, 0, 81, 42
2, 45852, Note_off_c, 0, 81, 64
2, 45855, Note_on_c, 0, 79, 66
2, 45867, Note_off_c, 0, 79, 64
2, 45870, Note_on_c, 0, 81, 44
2, 45882, Note_off_c, 0, 81, 64
2, 45885, Note_on_c, 0, 79, 54
2, 45888, Note_off_c, 0, 52, 64
2, 45897, Note_off_c, 0, 79, 64
2, 45900, Note_on_c, 0, 60, 54
2, 45900, Note_on_c, 0, 81, 42
2, 45912, Note_off_c, 0, 81, 64
2, 45915, Note_on_c, 0, 79, 1
2, 45927, Note_off_c, 0, 79, 64
2, 45930, Note_on_c, 0, 81, 42
2, 45942, Note_off_c, 0, 81, 64
2, 45945, Note_on_c, 0, 79, 42
2, 45948, Note_off_c, 0, 60, 64
2, 45957, Note_off_c, 0, 79, 64
2, 45960, Note_on_c, 0, 52, 66
2, 45960, Note_on_c, 0, 81, 61
2, 45972, Note_off_c, 0, 81, 64
2, 45975, Note_on_c, 0, 79, 44
2, 45987, Note_off_c, 0, 79, 64
2, 45990, Note_on_c, 0, 81, 45
2, 46002, Note_off_c, 0, 81, 64
2, 46005, Note_on_c, 0, 79, 43
2, 46008, Note_off_c, 0, 52, 64
2, 46017, Note_off_c, 0, 79, 64
2, 46020, Note_on_c, 0, 60, 58
2, 46020, Note_on_c, 0, 77, 66
2, 46044, Note_off_c, 0, 77, 64
2, 46050, Note_on_c, 0, 79, 42
2, 46068, Note_off_c, 0, 60, 64
2, 46074, Note_off_c, 0, 79, 64
2, 46080, Note_on_c, 0, 81, 80
2, 46080, Note_on_c, 0, 53, 66
2, 46128, Note_off_c, 0, 53, 64
2, 46140, Note_on_c, 0, 60, 47
2, 46188, Note_off_c, 0, 60, 64
2, 46200, Note_on_c, 0, 53, 77
2, 46224, Note_off_c, 0, 81, 64
2, 46248, Note_off_c, 0, 53, 64
2, 46260, Note_on_c, 0, 83, 80
2, 46260, Note_on_c, 0, 60, 54
2, 46308, Note_off_c, 0, 60, 64
2, 46308, Note_off_c, 0, 83, 64
2, 46320, Note_on_c, 0, 54, 58
2, 46320, Note_on_c, 0, 84, 80
2, 46368, Note_off_c, 0, 54, 64
2, 46380, Note_on_c, 0, 60, 71
2, 46416, Note_off_c, 0, 84, 64
2, 46428, Note_off_c, 0, 60, 64
2, 46440, Note_on_c, 0, 54, 58
2, 46440, Note_on_c, 0, 76, 83
2, 46488, Note_off_c, 0, 54, 64
2, 46500, Note_on_c, 0, 60, 61
2, 46536, Note_off_c, 0, 76, 64
2, 46548, Note_off_c, 0, 60, 64
2, 46560, Note_on_c, 0, 55, 65
2, 46560, Note_on_c, 0, 60, 69
2, 46560, Note_on_c, 0, 77, 29
2, 46572, Note_off_c, 0, 77, 64
2, 46575, Note_on_c, 0, 76, 50
2, 46587, Note_off_c, 0, 76, 64
2, 46590, Note_on_c, 0, 77, 50
2, 46602, Note_off_c, 0, 77, 64
2, 46605, Note_on_c, 0, 76, 46
2, 46617, Note_off_c, 0, 76, 64
2, 46620, Note_on_c, 0, 77, 42
2, 46632, Note_off_c, 0, 77, 64
2, 46635, Note_on_c, 0, 76, 47
2, 46647, Note_off_c, 0, 76, 64
2, 46650, Note_on_c, 0, 77, 66
2, 46656, Note_off_c, 0, 60, 64
2, 46662, Note_off_c, 0, 77, 64
2, 46665, Note_on_c, 0, 76, 75
2, 46677, Note_off_c, 0, 76, 64
2, 46680, Note_on_c, 0, 59, 57
2, 46680, Note_on_c, 0, 74, 71
2, 46776, Note_off_c, 0, 74, 64
2, 46776, Note_off_c, 0, 59, 64
2, 46776, Note_off_c, 0, 55, 64
2, 46920, Note_on_c, 0, 67, 61
2, 47016, Note_off_c, 0, 67, 64
2, 47040, Note_on_c, 0, 48, 80
2, 47040, Note_on_c, 0, 52, 80
2, 47040, Note_on_c, 0, 72, 71
2, 47064, Note_off_c, 0, 72, 64
2, 47070, Note_on_c, 0, 71, 42
2, 47094, Note_off_c, 0, 71, 64
2, 47100, Note_on_c, 0, 72, 81
2, 47124, Note_off_c, 0, 72, 64
2, 47130, Note_on_c, 0, 74, 71
2, 47136, Note_off_c, 0, 52, 64
2, 47136, Note_off_c, 0, 48, 64
2, 47154, Note_off_c, 0, 74, 64
2, 47160, Note_on_c, 0, 76, 71
2, 47256, Note_off_c, 0, 76, 64
2, 47280, Note_on_c, 0, 52, 81
2, 47280, Note_on_c, 0, 48, 86
2, 47280, Note_on_c, 0, 76, 61
2, 47304, Note_off_c, 0, 76, 64
2, 47310, Note_on_c, 0, 74, 54
2, 47334, Note_off_c, 0, 74, 64
2, 47340, Note_on_c, 0, 76, 77
2, 47364, Note_off_c, 0, 76, 64
2, 47370, Note_on_c, 0, 77, 75
2, 47376, Note_off_c, 0, 48, 64
2, 47376, Note_off_c, 0, 52, 64
2, 47394, Note_off_c, 0, 77, 64
2, 47400, Note_on_c, 0, 79, 45
2, 47496, Note_off_c, 0, 79, 64
2, 47520, Note_on_c, 0, 79, 65
2, 47520, Note_on_c, 0, 76, 86
2, 47580, Note_on_c, 0, 48, 47
2, 47628, Note_off_c, 0, 48, 64
2, 47640, Note_on_c, 0, 52, 52
2, 47664, Note_off_c, 0, 76, 64
2, 47664, Note_off_c, 0, 79, 64
2, 47688, Note_off_c, 0, 52, 64
2, 47700, Note_on_c, 0, 55, 66
2, 47700, Note_on_c, 0, 74, 81
2, 47700, Note_on_c, 0, 77, 80
2, 47748, Note_off_c, 0, 77, 64
2, 47748, Note_off_c, 0, 74, 64
2, 47748, Note_off_c, 0, 55, 64
2, 47760, Note_on_c, 0, 60, 54
2, 47760, Note_on_c, 0, 72, 47
2, 47760, Note_on_c, 0, 76, 50
2, 47856, Note_off_c, 0, 76, 64
2, 47856, Note_off_c, 0, 72, 64
2, 47856, Note_off_c, 0, 60, 64
2, 47880, Note_on_c, 0, 64, 42
2, 47880, Note_on_c, 0, 67, 58
2, 47928, Note_off_c, 0, 67, 64
2, 47940, Note_on_c, 0, 72, 61
2, 47976, Note_off_c, 0, 64, 64
2, 47988, Note_off_c, 0, 72, 64
2, 48000, Note_on_c, 0, 65, 71
2, 48000, Note_on_c, 0, 69, 71
2, 48096, Note_off_c, 0, 69, 64
2, 48096, Note_off_c, 0, 65, 64
2, 48120, Note_on_c, 0, 67, 54
2, 48120, Note_on_c, 0, 64, 71
2, 48168, Note_off_c, 0, 67, 64
2, 48180, Note_on_c, 0, 72, 46
2, 48216, Note_off_c, 0, 64, 64
2, 48228, Note_off_c, 0, 72, 64
2, 48240, Note_on_c, 0, 62, 61
2, 48240, Note_on_c, 0, 67, 77
2, 48336, Note_off_c, 0, 67, 64
2, 48336, Note_off_c, 0, 62, 64
2, 48360, Note_on_c, 0, 55, 71
2, 48360, Note_on_c, 0, 65, 77
2, 48456, Note_off_c, 0, 65, 64
2, 48456, Note_off_c, 0, 55, 64
2, 48480, Note_on_c, 0, 65, 80
2, 48480, Note_on_c, 0, 60, 50
2, 48576, Note_off_c, 0, 60, 64
2, 48576, Note_off_c, 0, 65, 64
2, 48600, Note_on_c, 0, 64, 80
2, 48600, Note_on_c, 0, 55, 67
2, 48696, Note_off_c, 0, 55, 64
2, 48696, Note_off_c, 0, 64, 64
2, 48720, Note_on_c, 0, 48, 47
2, 48840, Note_on_c, 0, 67, 80
2, 48912, Note_off_c, 0, 48, 64
2, 48936, Note_off_c, 0, 67, 64
2, 48960, Note_on_c, 0, 72, 71
2, 48960, Note_on_c, 0, 52, 66
2, 48960, Note_on_c, 0, 48, 60
2, 48984, Note_off_c, 0, 72, 64
2, 48990, Note_on_c, 0, 71, 42
2, 49014, Note_off_c, 0, 71, 64
2, 49020, Note_on_c, 0, 72, 81
2, 49044, Note_off_c, 0, 72, 64
2, 49050, Note_on_c, 0, 74, 71
2, 49056, Note_off_c, 0, 48, 64
2, 49056, Note_off_c, 0, 52, 64
2, 49074, Note_off_c, 0, 74, 64
2, 49080, Note_on_c, 0, 76, 71
2, 49176, Note_off_c, 0, 76, 64
2, 49200, Note_on_c, 0, 52, 44
2, 49200, Note_on_c, 0, 48, 69
2, 49200, Note_on_c, 0, 76, 61
2, 49224, Note_off_c, 0, 76, 64
2, 49230, Note_on_c, 0, 74, 54
2, 49254, Note_off_c, 0, 74, 64
2, 49260, Note_on_c, 0, 76, 77
2, 49284, Note_off_c, 0, 76, 64
2, 49290, Note_on_c, 0, 77, 75
2, 49296, Note_off_c, 0, 48, 64
2, 49296, Note_off_c, 0, 52, 64
2, 49314, Note_off_c, 0, 77, 64
2, 49320, Note_on_c, 0, 79, 45
2, 49416, Note_off_c, 0, 79, 64
2, 49440, Note_on_c, 0, 79, 65
2, 49440, Note_on_c, 0, 76, 86
2, 49500, Note_on_c, 0, 48, 77
2, 49548, Note_off_c, 0, 48, 64
2, 49560, Note_on_c, 0, 52, 83
2, 49584, Note_off_c, 0, 76, 64
2, 49584, Note_off_c, 0, 79, 64
2, 49608, Note_off_c, 0, 52, 64
2, 49620, Note_on_c, 0, 55, 77
2, 49620, Note_on_c, 0, 74, 81
2, 49620, Note_on_c, 0, 77, 80
2, 49668, Note_off_c, 0, 77, 64
2, 49668, Note_off_c, 0, 74, 64
2, 49668, Note_off_c, 0, 55, 64
2, 49680, Note_on_c, 0, 60, 80
2, 49680, Note_on_c, 0, 72, 47
2, 49680, Note_on_c, 0, 76, 50
2, 49776, Note_off_c, 0, 76, 64
2, 49776, Note_off_c, 0, 72, 64
2, 49800, Note_on_c, 0, 84, 58
2, 49848, Note_off_c, 0, 84, 64
2, 49860, Note_on_c, 0, 83, 71
2, 49872, Note_off_c, 0, 60, 64
2, 49908, Note_off_c, 0, 83, 64
2, 49920, Note_on_c, 0, 83, 42
2, 49920, Note_on_c, 0, 65, 54
2, 49920, Note_on_c, 0, 55, 64
2, 49932, Note_off_c, 0, 83, 64
2, 49935, Note_on_c, 0, 81, 50
2, 49947, Note_off_c, 0, 81, 64
2, 49950, Note_on_c, 0, 83, 29
2, 49962, Note_off_c, 0, 83, 64
2, 49965, Note_on_c, 0, 81, 52
2, 49977, Note_off_c, 0, 81, 64
2, 49980, Note_on_c, 0, 83, 43
2, 49992, Note_off_c, 0, 83, 64
2, 49995, Note_on_c, 0, 81, 43
2, 50007, Note_off_c, 0, 81, 64
2, 50010, Note_on_c, 0, 83, 47
2, 50016, Note_off_c, 0, 65, 64
2, 50022, Note_off_c, 0, 83, 64
2, 50025, Note_on_c, 0, 81, 83
2, 50037, Note_off_c, 0, 81, 64
2, 50040, Note_on_c, 0, 64, 69
2, 50040, Note_on_c, 0, 79, 69
2, 50136, Note_off_c, 0, 79, 64
2, 50136, Note_off_c, 0, 64, 64
2, 50136, Note_off_c, 0, 55, 64
2, 50160, Note_on_c, 0, 55, 61
2, 50160, Note_on_c, 0, 62, 56
2, 50160, Note_on_c, 0, 79, 44
2, 50172, Note_off_c, 0, 79, 64
2, 50175, Note_on_c, 0, 77, 42
2, 50187, Note_off_c, 0, 77, 64
2, 50190, Note_on_c, 0, 79, 50
2, 50202, Note_off_c, 0, 79, 64
2, 50205, Note_on_c, 0, 77, 61
2, 50217, Note_off_c, 0, 77, 64
2, 50220, Note_on_c, 0, 79, 52
2, 50232, Note_off_c, 0, 79, 64
2, 50235, Note_on_c, 0, 77, 54
2, 50247, Note_off_c, 0, 77, 64
2, 50250, Note_on_c, 0, 79, 42
2, 50256, Note_off_c, 0, 62, 64
2, 50262, Note_off_c, 0, 79, 64
2, 50265, Note_on_c, 0, 77, 44
2, 50277, Note_off_c, 0, 77, 64
2, 50280, Note_on_c, 0, 60, 45
2, 50280, Note_on_c, 0, 76, 61
2, 50376, Note_off_c, 0, 76, 64
2, 50376, Note_off_c, 0, 55, 64
2, 50376, Note_off_c, 0, 60, 64
2, 50400, Note_on_c, 0, 60, 54
2, 50400, Note_on_c, 0, 55, 47
2, 50400, Note_on_c, 0, 77, 61
2, 50412, Note_off_c, 0, 77, 64
2, 50415, Note_on_c, 0, 76, 89
2, 50427, Note_off_c, 0, 76, 64
2, 50430, Note_on_c, 0, 77, 89
2, 50442, Note_off_c, 0, 77, 64
2, 50445, Note_on_c, 0, 76, 89
2, 50457, Note_off_c, 0, 76, 64
2, 50460, Note_on_c, 0, 77, 61
2, 50472, Note_off_c, 0, 77, 64
2, 50475, Note_on_c, 0, 76, 52
2, 50487, Note_off_c, 0, 76, 64
2, 50490, Note_on_c, 0, 77, 54
2, 50496, Note_off_c, 0, 60, 64
2, 50502, Note_off_c, 0, 77, 64
2, 50505, Note_on_c, 0, 76, 71
2, 50517, Note_off_c, 0, 76, 64
2, 50520, Note_on_c, 0, 59, 56
2, 50520, Note_on_c, 0, 74, 61
2, 50616, Note_off_c, 0, 74, 64
2, 50616, Note_off_c, 0, 59, 64
2, 50616, Note_off_c, 0, 55, 64
2, 50760, Note_on_c, 0, 67, 43
2, 50856, Note_off_c, 0, 67, 64
2, 50880, Note_on_c, 0, 72, 66
2, 50904, Note_off_c, 0, 72, 64
2, 50910, Note_on_c, 0, 71, 71
2, 50934, Note_off_c, 0, 71, 64
2, 50940, Note_on_c, 0, 72, 83
2, 50964, Note_off_c, 0, 72, 64
2, 50970, Note_on_c, 0, 74, 66
2, 50994, Note_off_c, 0, 74, 64
2, 51000, Note_on_c, 0, 76, 66
2, 51000, Note_on_c, 0, 48, 89
2, 51000, Note_on_c, 0, 55, 42
2, 51096, Note_off_c, 0, 55, 64
2, 51096, Note_off_c, 0, 48, 64
2, 51096, Note_off_c, 0, 76, 64
2, 51120, Note_on_c, 0, 55, 66
2, 51120, Note_on_c, 0, 48, 53
2, 51216, Note_off_c, 0, 48, 64
2, 51216, Note_off_c, 0, 55, 64
2, 51240, Note_on_c, 0, 55, 54
2, 51240, Note_on_c, 0, 48, 74
2, 51240, Note_on_c, 0, 76, 71
2, 51336, Note_off_c, 0, 76, 64
2, 51336, Note_off_c, 0, 48, 64
2, 51336, Note_off_c, 0, 55, 64
2, 51360, Note_on_c, 0, 77, 42
2, 51384, Note_off_c, 0, 77, 64
2, 51390, Note_on_c, 0, 76, 83
2, 51414, Note_off_c, 0, 76, 64
2, 51420, Note_on_c, 0, 74, 83
2, 51444, Note_off_c, 0, 74, 64
2, 51450, Note_on_c, 0, 76, 83
2, 51474, Note_off_c, 0, 76, 64
2, 51480, Note_on_c, 0, 74, 81
2, 51480, Note_on_c, 0, 55, 50
2, 51480, Note_on_c, 0, 47, 50
2, 51576, Note_off_c, 0, 47, 64
2, 51576, Note_off_c, 0, 55, 64
2, 51576, Note_off_c, 0, 74, 64
2, 51600, Note_on_c, 0, 47, 61
2, 51600, Note_on_c, 0, 55, 47
2, 51696, Note_off_c, 0, 55, 64
2, 51696, Note_off_c, 0, 47, 64
2, 51720, Note_on_c, 0, 55, 45
2, 51720, Note_on_c, 0, 47, 56
2, 51720, Note_on_c, 0, 67, 57
2, 51816, Note_off_c, 0, 67, 64
2, 51816, Note_off_c, 0, 47, 64
2, 51816, Note_off_c, 0, 55, 64
2, 51840, Note_on_c, 0, 74, 95
2, 51864, Note_off_c, 0, 74, 64
2, 51870, Note_on_c, 0, 72, 71
2, 51894, Note_off_c, 0, 72, 64
2, 51900, Note_on_c, 0, 74, 54
2, 51924, Note_off_c, 0, 74, 64
2, 51930, Note_on_c, 0, 76, 77
2, 51954, Note_off_c, 0, 76, 64
2, 51960, Note_on_c, 0, 77, 47
2, 51960, Note_on_c, 0, 47, 61
2, 51960, Note_on_c, 0, 55, 53
2, 52056, Note_off_c, 0, 55, 64
2, 52056, Note_off_c, 0, 47, 64
2, 52056, Note_off_c, 0, 77, 64
2, 52080, Note_on_c, 0, 47, 45
2, 52080, Note_on_c, 0, 55, 42
2, 52176, Note_off_c, 0, 55, 64
2, 52176, Note_off_c, 0, 47, 64
2, 52200, Note_on_c, 0, 55, 42
2, 52200, Note_on_c, 0, 47, 60
2, 52200, Note_on_c, 0, 74, 77
2, 52296, Note_off_c, 0, 74, 64
2, 52296, Note_off_c, 0, 47, 64
2, 52296, Note_off_c, 0, 55, 64
2, 52320, Note_on_c, 0, 76, 77
2, 52344, Note_off_c, 0, 76, 64
2, 52350, Note_on_c, 0, 74, 83
2, 52374, Note_off_c, 0, 74, 64
2, 52380, Note_on_c, 0, 76, 77
2, 52404, Note_off_c, 0, 76, 64
2, 52410, Note_on_c, 0, 77, 71
2, 52434, Note_off_c, 0, 77, 64
2, 52440, Note_on_c, 0, 52, 54
2, 52440, Note_on_c, 0, 79, 42
2, 52440, Note_on_c, 0, 48, 42
2, 52536, Note_off_c, 0, 48, 64
2, 52536, Note_off_c, 0, 79, 64
2, 52536, Note_off_c, 0, 52, 64
2, 52560, Note_on_c, 0, 52, 50
2, 52560, Note_on_c, 0, 48, 42
2, 52656, Note_off_c, 0, 48, 64
2, 52656, Note_off_c, 0, 52, 64
2, 52680, Note_on_c, 0, 52, 66
2, 52680, Note_on_c, 0, 48, 42
2, 52680, Note_on_c, 0, 67, 71
2, 52728, Note_off_c, 0, 67, 64
2, 52740, Note_on_c, 0, 72, 66
2, 52776, Note_off_c, 0, 48, 64
2, 52776, Note_off_c, 0, 52, 64
2, 52788, Note_off_c, 0, 72, 64
2, 52800, Note_on_c, 0, 71, 66
2, 52800, Note_on_c, 0, 53, 61
2, 52800, Note_on_c, 0, 48, 60
2, 52812, Note_off_c, 0, 71, 64
2, 52815, Note_on_c, 0, 69, 1
2, 52827, Note_off_c, 0, 69, 64
2, 52830, Note_on_c, 0, 71, 54
2, 52842, Note_off_c, 0, 71, 64
2, 52845, Note_on_c, 0, 69, 42
2, 52857, Note_off_c, 0, 69, 64
2, 52860, Note_on_c, 0, 71, 71
2, 52872, Note_off_c, 0, 71, 64
2, 52875, Note_on_c, 0, 69, 89
2, 52887, Note_off_c, 0, 69, 64
2, 52890, Note_on_c, 0, 71, 65
2, 52896, Note_off_c, 0, 53, 64
2, 52902, Note_off_c, 0, 71, 64
2, 52905, Note_on_c, 0, 69, 89
2, 52917, Note_off_c, 0, 69, 64
2, 52920, Note_on_c, 0, 52, 57
2, 52920, Note_on_c, 0, 67, 58
2, 53016, Note_off_c, 0, 67, 64
2, 53016, Note_off_c, 0, 52, 64
2, 53040, Note_on_c, 0, 53, 61
2, 53040, Note_on_c, 0, 69, 83
2, 53088, Note_off_c, 0, 69, 64
2, 53100, Note_on_c, 0, 72, 71
2, 53136, Note_off_c, 0, 53, 64
2, 53148, Note_off_c, 0, 72, 64
2, 53160, Note_on_c, 0, 50, 69
2, 53160, Note_on_c, 0, 71, 83
2, 53208, Note_off_c, 0, 71, 64
2, 53220, Note_on_c, 0, 74, 66
2, 53256, Note_off_c, 0, 48, 64
2, 53256, Note_off_c, 0, 50, 64
2, 53268, Note_off_c, 0, 74, 64
2, 53280, Note_on_c, 0, 52, 47
2, 53280, Note_on_c, 0, 48, 60
2, 53280, Note_on_c, 0, 72, 77
2, 53424, Note_off_c, 0, 72, 64
2, 53460, Note_on_c, 0, 76, 77
2, 53472, Note_off_c, 0, 48, 64
2, 53472, Note_off_c, 0, 52, 64
2, 53508, Note_off_c, 0, 76, 64
2, 53520, Note_on_c, 0, 72, 66
2, 53616, Note_off_c, 0, 72, 64
2, 53640, Note_on_c, 0, 52, 50
2, 53640, Note_on_c, 0, 64, 42
2, 53736, Note_off_c, 0, 64, 64
2, 53736, Note_off_c, 0, 52, 64
2, 53760, Note_on_c, 0, 67, 45
2, 53760, Note_on_c, 0, 55, 54
2, 53808, Note_off_c, 0, 55, 64
2, 53808, Note_off_c, 0, 67, 64
2, 53820, Note_on_c, 0, 65, 47
2, 53820, Note_on_c, 0, 53, 66
2, 53868, Note_off_c, 0, 53, 64
2, 53868, Note_off_c, 0, 65, 64
2, 53880, Note_on_c, 0, 52, 66
2, 53880, Note_on_c, 0, 64, 83
2, 53928, Note_off_c, 0, 64, 64
2, 53928, Note_off_c, 0, 52, 64
2, 53940, Note_on_c, 0, 62, 77
2, 53940, Note_on_c, 0, 50, 58
2, 53988, Note_off_c, 0, 50, 64
2, 53988, Note_off_c, 0, 62, 64
2, 54000, Note_on_c, 0, 55, 71
2, 54000, Note_on_c, 0, 67, 43
2, 54096, Note_off_c, 0, 67, 64
2, 54096, Note_off_c, 0, 55, 64
2, 54120, Note_on_c, 0, 55, 52
2, 54120, Note_on_c, 0, 67, 47
2, 54216, Note_off_c, 0, 67, 64
2, 54216, Note_off_c, 0, 55, 64
2, 54240, Note_on_c, 0, 60, 80
2, 54240, Note_on_c, 0, 48, 80
2, 54432, Note_off_c, 0, 48, 64
2, 54432, Note_off_c, 0, 60, 64
2, 54480, Note_on_c, 0, 67, 83
2, 54480, Note_on_c, 0, 47, 61
2, 54492, Note_off_c, 0, 67, 64
2, 54495, Note_on_c, 0, 65, 77
2, 54507, Note_off_c, 0, 65, 64
2, 54510, Note_on_c, 0, 67, 83
2, 54522, Note_off_c, 0, 67, 64
2, 54525, Note_on_c, 0, 65, 61
2, 54528, Note_off_c, 0, 47, 64
2, 54537, Note_off_c, 0, 65, 64
2, 54540, Note_on_c, 0, 67, 97
2, 54540, Note_on_c, 0, 55, 66
2, 54552, Note_off_c, 0, 67, 64
2, 54555, Note_on_c, 0, 65, 83
2, 54567, Note_off_c, 0, 65, 64
2, 54570, Note_on_c, 0, 67, 83
2, 54582, Note_off_c, 0, 67, 64
2, 54585, Note_on_c, 0, 65, 66
2, 54588, Note_off_c, 0, 55, 64
2, 54597, Note_off_c, 0, 65, 64
2, 54600, Note_on_c, 0, 67, 66
2, 54600, Note_on_c, 0, 47, 83
2, 54612, Note_off_c, 0, 67, 64
2, 54615, Note_on_c, 0, 65, 47
2, 54627, Note_off_c, 0, 65, 64
2, 54630, Note_on_c, 0, 67, 52
2, 54642, Note_off_c, 0, 67, 64
2, 54645, Note_on_c, 0, 65, 54
2, 54648, Note_off_c, 0, 47, 64
2, 54657, Note_off_c, 0, 65, 64
2, 54660, Note_on_c, 0, 67, 58
2, 54660, Note_on_c, 0, 55, 66
2, 54672, Note_off_c, 0, 67, 64
2, 54675, Note_on_c, 0, 65, 44
2, 54687, Note_off_c, 0, 65, 64
2, 54690, Note_on_c, 0, 67, 89
2, 54702, Note_off_c, 0, 67, 64
2, 54705, Note_on_c, 0, 65, 77
2, 54708, Note_off_c, 0, 55, 64
2, 54717, Note_off_c, 0, 65, 64
2, 54720, Note_on_c, 0, 64, 61
2, 54720, Note_on_c, 0, 48, 61
2, 54768, Note_off_c, 0, 48, 64
2, 54780, Note_on_c, 0, 55, 61
2, 54828, Note_off_c, 0, 55, 64
2, 54840, Note_on_c, 0, 48, 66
2, 54888, Note_off_c, 0, 48, 64
2, 54900, Note_on_c, 0, 55, 61
2, 54912, Note_off_c, 0, 64, 64
2, 54948, Note_off_c, 0, 55, 64
2, 54960, Note_on_c, 0, 47, 66
2, 54960, Note_on_c, 0, 67, 66
2, 55008, Note_off_c, 0, 67, 64
2, 55008, Note_off_c, 0, 47, 64
2, 55020, Note_on_c, 0, 55, 66
2, 55020, Note_on_c, 0, 71, 61
2, 55068, Note_off_c, 0, 71, 64
2, 55068, Note_off_c, 0, 55, 64
2, 55080, Note_on_c, 0, 47, 72
2, 55080, Note_on_c, 0, 74, 97
2, 55128, Note_off_c, 0, 74, 64
2, 55128, Note_off_c, 0, 47, 64
2, 55140, Note_on_c, 0, 55, 66
2, 55140, Note_on_c, 0, 77, 52
2, 55188, Note_off_c, 0, 77, 64
2, 55188, Note_off_c, 0, 55, 64
2, 55200, Note_on_c, 0, 76, 77
2, 55200, Note_on_c, 0, 48, 71
2, 55248, Note_off_c, 0, 48, 64
2, 55260, Note_on_c, 0, 55, 50
2, 55296, Note_off_c, 0, 76, 64
2, 55308, Note_off_c, 0, 55, 64
2, 55320, Note_on_c, 0, 48, 77
2, 55320, Note_on_c, 0, 72, 66
2, 55368, Note_off_c, 0, 48, 64
2, 55380, Note_on_c, 0, 55, 61
2, 55416, Note_off_c, 0, 72, 64
2, 55428, Note_off_c, 0, 55, 64
2, 55440, Note_on_c, 0, 47, 77
2, 55440, Note_on_c, 0, 79, 47
2, 55452, Note_off_c, 0, 79, 64
2, 55455, Note_on_c, 0, 77, 43
2, 55467, Note_off_c, 0, 77, 64
2, 55470, Note_on_c, 0, 79, 58
2, 55482, Note_off_c, 0, 79, 64
2, 55485, Note_on_c, 0, 77, 66
2, 55488, Note_off_c, 0, 47, 64
2, 55497, Note_off_c, 0, 77, 64
2, 55500, Note_on_c, 0, 55, 54
2, 55500, Note_on_c, 0, 79, 61
2, 55512, Note_off_c, 0, 79, 64
2, 55515, Note_on_c, 0, 77, 54
2, 55527, Note_off_c, 0, 77, 64
2, 55530, Note_on_c, 0, 79, 44
2, 55542, Note_off_c, 0, 79, 64
2, 55545, Note_on_c, 0, 77, 43
2, 55548, Note_off_c, 0, 55, 64
2, 55557, Note_off_c, 0, 77, 64
2, 55560, Note_on_c, 0, 47, 66
2, 55560, Note_on_c, 0, 79, 58
2, 55572, Note_off_c, 0, 79, 64
2, 55575, Note_on_c, 0, 77, 42
2, 55587, Note_off_c, 0, 77, 64
2, 55590, Note_on_c, 0, 79, 47
2, 55602, Note_off_c, 0, 79, 64
2, 55605, Note_on_c, 0, 77, 42
2, 55608, Note_off_c, 0, 47, 64
2, 55617, Note_off_c, 0, 77, 64
2, 55620, Note_on_c, 0, 55, 58
2, 55620, Note_on_c, 0, 79, 43
2, 55632, Note_off_c, 0, 79, 64
2, 55635, Note_on_c, 0, 77, 42
2, 55647, Note_off_c, 0, 77, 64
2, 55650, Note_on_c, 0, 79, 42
2, 55662, Note_off_c, 0, 79, 64
2, 55665, Note_on_c, 0, 77, 42
2, 55668, Note_off_c, 0, 55, 64
2, 55677, Note_off_c, 0, 77, 64
2, 55680, Note_on_c, 0, 76, 47
2, 55680, Note_on_c, 0, 48, 61
2, 55728, Note_off_c, 0, 48, 64
2, 55740, Note_on_c, 0, 55, 66
2, 55788, Note_off_c, 0, 55, 64
2, 55800, Note_on_c, 0, 48, 71
2, 55848, Note_off_c, 0, 48, 64
2, 55860, Note_on_c, 0, 55, 66
2, 55872, Note_off_c, 0, 76, 64
2, 55908, Note_off_c, 0, 55, 64
2, 55920, Note_on_c, 0, 47, 54
2, 55920, Note_on_c, 0, 86, 80
2, 55968, Note_off_c, 0, 47, 64
2, 55980, Note_on_c, 0, 55, 50
2, 56028, Note_off_c, 0, 55, 64
2, 56040, Note_on_c, 0, 47, 66
2, 56064, Note_off_c, 0, 86, 64
2, 56088, Note_off_c, 0, 47, 64
2, 56100, Note_on_c, 0, 55, 58
2, 56100, Note_on_c, 0, 77, 66
2, 56148, Note_off_c, 0, 77, 64
2, 56148, Note_off_c, 0, 55, 64
2, 56160, Note_on_c, 0, 48, 61
2, 56160, Note_on_c, 0, 76, 71
2, 56192, Note_off_c, 0, 76, 64
2, 56200, Note_on_c, 0, 74, 66
2, 56232, Note_off_c, 0, 74, 64
2, 56240, Note_on_c, 0, 72, 83
2, 56256, Note_off_c, 0, 48, 64
2, 56272, Note_off_c, 0, 72, 64
2, 56280, Note_on_c, 0, 81, 71
2, 56280, Note_on_c, 0, 53, 71
2, 56312, Note_off_c, 0, 81, 64
2, 56320, Note_on_c, 0, 79, 81
2, 56352, Note_off_c, 0, 79, 64
2, 56360, Note_on_c, 0, 77, 89
2, 56376, Note_off_c, 0, 53, 64
2, 56392, Note_off_c, 0, 77, 64
2, 56400, Note_on_c, 0, 55, 45
2, 56400, Note_on_c, 0, 76, 75
2, 56496, Note_off_c, 0, 76, 64
2, 56496, Note_off_c, 0, 55, 64
2, 56520, Note_on_c, 0, 43, 77
2, 56520, Note_on_c, 0, 76, 50
2, 56532, Note_off_c, 0, 76, 64
2, 56535, Note_on_c, 0, 74, 71
2, 56547, Note_off_c, 0, 74, 64
2, 56550, Note_on_c, 0, 76, 45
2, 56562, Note_off_c, 0, 76, 64
2, 56565, Note_on_c, 0, 74, 58
2, 56577, Note_off_c, 0, 74, 64
2, 56580, Note_on_c, 0, 76, 66
2, 56592, Note_off_c, 0, 76, 64
2, 56595, Note_on_c, 0, 74, 71
2, 56607, Note_off_c, 0, 74, 64
2, 56610, Note_on_c, 0, 76, 61
2, 56616, Note_off_c, 0, 43, 64
2, 56622, Note_off_c, 0, 76, 64
2, 56625, Note_on_c, 0, 74, 58
2, 56637, Note_off_c, 0, 74, 64
2, 56640, Note_on_c, 0, 48, 80
2, 56640, Note_on_c, 0, 72, 89
2, 56736, Note_off_c, 0, 48, 64
2, 56760, Note_on_c, 0, 43, 80
2, 56832, Note_off_c, 0, 72, 64
2, 56856, Note_off_c, 0, 43, 64
2, 56880, Note_on_c, 0, 36, 80
2, 56976, Note_off_c, 0, 36, 64
2, 56976, End_track
0, 0, End_of_file
