0, 0, Header, 1, 2, 240
1, 0, Start_track
1, 0, Time_signature, 2, 2, 24, 8
1, 0, Tempo, 666667
1, 0, End_track
2, 0, Start_track
2, 0, Program_c, 0, 0
2, 360, Note_on_c, 0, 62, 80
2, 456, Note_off_c, 0, 62, 64
2, 480, Note_on_c, 0, 59, 80
2, 480, Note_on_c, 0, 55, 80
2, 480, Note_on_c, 0, 67, 80
2, 528, Note_off_c, 0, 67, 64
2, 540, Note_on_c, 0, 69, 80
2, 556, Note_off_c, 0, 69, 64
2, 560, Note_on_c, 0, 67, 80
2, 576, Note_off_c, 0, 67, 64
2, 580, Note_on_c, 0, 66, 80
2, 596, Note_off_c, 0, 66, 64
2, 600, Note_on_c, 0, 67, 80
2, 648, Note_off_c, 0, 67, 64
2, 660, Note_on_c, 0, 69, 80
2, 672, Note_off_c, 0, 55, 64
2, 672, Note_off_c, 0, 59, 64
2, 708, Note_off_c, 0, 69, 64
2, 720, Note_on_c, 0, 71, 80
2, 768, Note_off_c, 0, 71, 64
2, 780, Note_on_c, 0, 72, 80
2, 796, Note_off_c, 0, 72, 64
2, 800, Note_on_c, 0, 71, 80
2, 816, Note_off_c, 0, 71, 64
2, 820, Note_on_c, 0, 69, 80
2, 836, Note_off_c, 0, 69, 64
2, 840, Note_on_c, 0, 71, 80
2, 888, Note_off_c, 0, 71, 64
2, 900, Note_on_c, 0, 72, 80
2, 948, Note_off_c, 0, 72, 64
2, 960, Note_on_c, 0, 74, 80
2, 1056, Note_off_c, 0, 74, 64
2, 1080, Note_on_c, 0, 67, 80
2, 1080, Note_on_c, 0, 74, 80
2, 1080, Note_on_c, 0, 71, 80
2, 1176, Note_off_c, 0, 71, 64
2, 1176, Note_off_c, 0, 74, 64
2, 1176, Note_off_c, 0, 67, 64
2, 1200, Note_on_c, 0, 69, 80
2, 1200, Note_on_c, 0, 66, 80
2, 1200, Note_on_c, 0, 74, 80
2, 1296, Note_off_c, 0, 74, 64
2, 1296, Note_off_c, 0, 66, 64
2, 1296, Note_off_c, 0, 69, 64
2, 1320, Note_on_c, 0, 74, 80
2, 1320, Note_on_c, 0, 69, 80
2, 1320, Note_on_c, 0, 72, 80
2, 1416, Note_off_c, 0, 72, 64
2, 1416, Note_off_c, 0, 69, 64
2, 1416, Note_off_c, 0, 74, 64
2, 1440, Note_on_c, 0, 71, 80
2, 1440, Note_on_c, 0, 67, 80
2, 1440, Note_on_c, 0, 74, 80
2, 1536, Note_off_c, 0, 74, 64
2, 1560, Note_on_c, 0, 76, 80
2, 1608, Note_off_c, 0, 76, 64
2, 1620, Note_on_c, 0, 78, 80
2, 1632, Note_off_c, 0, 67, 64
2, 1632, Note_off_c, 0, 71, 64
2, 1668, Note_off_c, 0, 78, 64
2, 1680, Note_on_c, 0, 81, 80
2, 1728, Note_off_c, 0, 81, 64
2, 1740, Note_on_c, 0, 79, 80
2, 1788, Note_off_c, 0, 79, 64
2, 1800, Note_on_c, 0, 78, 80
2, 1848, Note_off_c, 0, 78, 64
2, 1860, Note_on_c, 0, 76, 80
2, 1908, Note_off_c, 0, 76, 64
2, 1920, Note_on_c, 0, 74, 80
2, 2016, Note_off_c, 0, 74, 64
2, 2040, Note_on_c, 0, 67, 80
2, 2040, Note_on_c, 0, 74, 80
2, 2040, Note_on_c, 0, 71, 80
2, 2136, Note_off_c, 0, 71, 64
2, 2136, Note_off_c, 0, 74, 64
2, 2136, Note_off_c, 0, 67, 64
2, 2160, Note_on_c, 0, 69, 80
2, 2160, Note_on_c, 0, 66, 80
2, 2160, Note_on_c, 0, 74, 80
2, 2256, Note_off_c, 0, 74, 64
2, 2256, Note_off_c, 0, 66, 64
2, 2256, Note_off_c, 0, 69, 64
2, 2280, Note_on_c, 0, 74, 80
2, 2280, Note_on_c, 0, 69, 80
2, 2280, Note_on_c, 0, 72, 80
2, 2376, Note_off_c, 0, 72, 64
2, 2376, Note_off_c, 0, 69, 64
2, 2376, Note_off_c, 0, 74, 64
2, 2400, Note_on_c, 0, 74, 80
2, 2400, Note_on_c, 0, 71, 80
2, 2400, Note_on_c, 0, 67, 80
2, 2496, Note_off_c, 0, 74, 64
2, 2520, Note_on_c, 0, 76, 80
2, 2568, Note_off_c, 0, 76, 64
2, 2580, Note_on_c, 0, 78, 80
2, 2592, Note_off_c, 0, 67, 64
2, 2592, Note_off_c, 0, 71, 64
2, 2628, Note_off_c, 0, 78, 64
2, 2640, Note_on_c, 0, 81, 80
2, 2688, Note_off_c, 0, 81, 64
2, 2700, Note_on_c, 0, 79, 80
2, 2748, Note_off_c, 0, 79, 64
2, 2760, Note_on_c, 0, 78, 80
2, 2760, Note_on_c, 0, 67, 80
2, 2760, Note_on_c, 0, 72, 80
2, 2808, Note_off_c, 0, 78, 64
2, 2820, Note_on_c, 0, 76, 80
2, 2856, Note_off_c, 0, 72, 64
2, 2856, Note_off_c, 0, 67, 64
2, 2868, Note_off_c, 0, 76, 64
2, 2880, Note_on_c, 0, 71, 80
2, 2880, Note_on_c, 0, 67, 80
2, 2880, Note_on_c, 0, 74, 80
2, 2976, Note_off_c, 0, 74, 64
2, 3000, Note_on_c, 0, 79, 80
2, 3048, Note_off_c, 0, 79, 64
2, 3060, Note_on_c, 0, 83, 80
2, 3072, Note_off_c, 0, 67, 64
2, 3072, Note_off_c, 0, 71, 64
2, 3108, Note_off_c, 0, 83, 64
2, 3120, Note_on_c, 0, 81, 80
2, 3168, Note_off_c, 0, 81, 64
2, 3180, Note_on_c, 0, 79, 80
2, 3228, Note_off_c, 0, 79, 64
2, 3240, Note_on_c, 0, 78, 80
2, 3288, Note_off_c, 0, 78, 64
2, 3300, Note_on_c, 0, 76, 80
2, 3348, Note_off_c, 0, 76, 64
2, 3360, Note_on_c, 0, 74, 80
2, 3480, Note_on_c, 0, 71, 80
2, 3552, Note_off_c, 0, 74, 64
2, 3576, Note_off_c, 0, 71, 64
2, 3600, Note_on_c, 0, 69, 80
2, 3600, Note_on_c, 0, 72, 80
2, 3648, Note_off_c, 0, 72, 64
2, 3660, Note_on_c, 0, 74, 80
2, 3684, Note_off_c, 0, 74, 64
2, 3690, Note_on_c, 0, 72, 80
2, 3696, Note_off_c, 0, 69, 64
2, 3714, Note_off_c, 0, 72, 64
2, 3720, Note_on_c, 0, 74, 80
2, 3720, Note_on_c, 0, 62, 80
2, 3744, Note_off_c, 0, 74, 64
2, 3750, Note_on_c, 0, 72, 80
2, 3774, Note_off_c, 0, 72, 64
2, 3780, Note_on_c, 0, 71, 80
2, 3804, Note_off_c, 0, 71, 64
2, 3810, Note_on_c, 0, 72, 80
2, 3816, Note_off_c, 0, 62, 64
2, 3834, Note_off_c, 0, 72, 64
2, 3840, Note_on_c, 0, 67, 80
2, 3840, Note_on_c, 0, 71, 80
2, 3936, Note_off_c, 0, 67, 64
2, 3960, Note_on_c, 0, 62, 80
2, 4032, Note_off_c, 0, 71, 64
2, 4056, Note_off_c, 0, 62, 64
2, 4080, Note_on_c, 0, 55, 80
2, 4176, Note_off_c, 0, 55, 64
2, 4200, Note_on_c, 0, 55, 80
2, 4200, Note_on_c, 0, 43, 80
2, 4200, Note_on_c, 0, 67, 80
2, 4296, Note_off_c, 0, 67, 64
2, 4296, Note_off_c, 0, 43, 64
2, 4296, Note_off_c, 0, 55, 64
2, 4320, Note_on_c, 0, 42, 80
2, 4320, Note_on_c, 0, 54, 80
2, 4320, Note_on_c, 0, 66, 80
2, 4416, Note_off_c, 0, 66, 64
2, 4416, Note_off_c, 0, 54, 64
2, 4416, Note_off_c, 0, 42, 64
2, 4440, Note_on_c, 0, 40, 80
2, 4440, Note_on_c, 0, 52, 80
2, 4440, Note_on_c, 0, 64, 80
2, 4536, Note_off_c, 0, 64, 64
2, 4536, Note_off_c, 0, 52, 64
2, 4536, Note_off_c, 0, 40, 64
2, 4560, Note_on_c, 0, 38, 80
2, 4560, Note_on_c, 0, 50, 80
2, 4560, Note_on_c, 0, 62, 80
2, 4656, Note_off_c, 0, 62, 64
2, 4656, Note_off_c, 0, 50, 64
2, 4656, Note_off_c, 0, 38, 64
2, 4680, Note_on_c, 0, 36, 80
2, 4680, Note_on_c, 0, 48, 80
2, 4680, Note_on_c, 0, 60, 80
2, 4776, Note_off_c, 0, 60, 64
2, 4776, Note_off_c, 0, 48, 64
2, 4776, Note_off_c, 0, 36, 64
2, 4800, Note_on_c, 0, 47, 80
2, 4800, Note_on_c, 0, 59, 80
2, 4800, Note_on_c, 0, 35, 80
2, 4992, Note_off_c, 0, 35, 64
2, 4992, Note_off_c, 0, 59, 64
2, 4992, Note_off_c, 0, 47, 64
2, 5160, Note_on_c, 0, 64, 80
2, 5160, Note_on_c, 0, 52, 80
2, 5192, Note_off_c, 0, 52, 64
2, 5192, Note_off_c, 0, 64, 64
2, 5200, Note_on_c, 0, 54, 80
2, 5200, Note_on_c, 0, 66, 80
2, 5232, Note_off_c, 0, 66, 64
2, 5232, Note_off_c, 0, 54, 64
2, 5240, Note_on_c, 0, 64, 80
2, 5240, Note_on_c, 0, 52, 80
2, 5272, Note_off_c, 0, 52, 64
2, 5272, Note_off_c, 0, 64, 64
2, 5280, Note_on_c, 0, 62, 80
2, 5280, Note_on_c, 0, 50, 80
2, 5376, Note_off_c, 0, 50, 64
2, 5376, Note_off_c, 0, 62, 64
2, 5400, Note_on_c, 0, 48, 80
2, 5400, Note_on_c, 0, 60, 80
2, 5432, Note_off_c, 0, 60, 64
2, 5432, Note_off_c, 0, 48, 64
2, 5440, Note_on_c, 0, 50, 80
2, 5440, Note_on_c, 0, 62, 80
2, 5472, Note_off_c, 0, 62, 64
2, 5472, Note_off_c, 0, 50, 64
2, 5480, Note_on_c, 0, 48, 80
2, 5480, Note_on_c, 0, 60, 80
2, 5512, Note_off_c, 0, 60, 64
2, 5512, Note_off_c, 0, 48, 64
2, 5520, Note_on_c, 0, 59, 80
2, 5520, Note_on_c, 0, 47, 80
2, 5616, Note_off_c, 0, 47, 64
2, 5616, Note_off_c, 0, 59, 64
2, 5640, Note_on_c, 0, 45, 80
2, 5640, Note_on_c, 0, 57, 80
2, 5672, Note_off_c, 0, 57, 64
2, 5672, Note_off_c, 0, 45, 64
2, 5680, Note_on_c, 0, 47, 80
2, 5680, Note_on_c, 0, 59, 80
2, 5712, Note_off_c, 0, 59, 64
2, 5712, Note_off_c, 0, 47, 64
2, 5720, Note_on_c, 0, 57, 80
2, 5720, Note_on_c, 0, 45, 80
2, 5752, Note_off_c, 0, 45, 64
2, 5752, Note_off_c, 0, 57, 64
2, 5760, Note_on_c, 0, 43, 80
2, 5760, Note_on_c, 0, 55, 80
2, 5952, Note_off_c, 0, 55, 64
2, 5952, Note_off_c, 0, 43, 64
2, 6120, Note_on_c, 0, 62, 80
2, 6216, Note_off_c, 0, 62, 64
2, 6240, Note_on_c, 0, 59, 80
2, 6240, Note_on_c, 0, 55, 80
2, 6240, Note_on_c, 0, 67, 80
2, 6288, Note_off_c, 0, 67, 64
2, 6300, Note_on_c, 0, 66, 80
2, 6348, Note_off_c, 0, 66, 64
2, 6360, Note_on_c, 0, 69, 80
2, 6408, Note_off_c, 0, 69, 64
2, 6420, Note_on_c, 0, 67, 80
2, 6432, Note_off_c, 0, 55, 64
2, 6432, Note_off_c, 0, 59, 64
2, 6468, Note_off_c, 0, 67, 64
2, 6480, Note_on_c, 0, 71, 80
2, 6528, Note_off_c, 0, 71, 64
2, 6540, Note_on_c, 0, 69, 80
2, 6588, Note_off_c, 0, 69, 64
2, 6600, Note_on_c, 0, 72, 80
2, 6648, Note_off_c, 0, 72, 64
2, 6660, Note_on_c, 0, 71, 80
2, 6708, Note_off_c, 0, 71, 64
2, 6720, Note_on_c, 0, 74, 80
2, 6816, Note_off_c, 0, 74, 64
2, 6840, Note_on_c, 0, 71, 80
2, 6840, Note_on_c, 0, 67, 80
2, 6840, Note_on_c, 0, 74, 80
2, 6936, Note_off_c, 0, 74, 64
2, 6936, Note_off_c, 0, 67, 64
2, 6936, Note_off_c, 0, 71, 64
2, 6960, Note_on_c, 0, 69, 80
2, 6960, Note_on_c, 0, 66, 80
2, 6960, Note_on_c, 0, 74, 80
2, 7056, Note_off_c, 0, 74, 64
2, 7056, Note_off_c, 0, 66, 64
2, 7056, Note_off_c, 0, 69, 64
2, 7080, Note_on_c, 0, 69, 80
2, 7080, Note_on_c, 0, 72, 80
2, 7080, Note_on_c, 0, 74, 80
2, 7176, Note_off_c, 0, 74, 64
2, 7176, Note_off_c, 0, 72, 64
2, 7176, Note_off_c, 0, 69, 64
2, 7200, Note_on_c, 0, 71, 80
2, 7200, Note_on_c, 0, 67, 80
2, 7200, Note_on_c, 0, 74, 80
2, 7296, Note_off_c, 0, 74, 64
2, 7320, Note_on_c, 0, 76, 80
2, 7368, Note_off_c, 0, 76, 64
2, 7380, Note_on_c, 0, 78, 80
2, 7392, Note_off_c, 0, 67, 64
2, 7392, Note_off_c, 0, 71, 64
2, 7428, Note_off_c, 0, 78, 64
2, 7440, Note_on_c, 0, 81, 80
2, 7488, Note_off_c, 0, 81, 64
2, 7500, Note_on_c, 0, 79, 80
2, 7548, Note_off_c, 0, 79, 64
2, 7560, Note_on_c, 0, 78, 80
2, 7608, Note_off_c, 0, 78, 64
2, 7620, Note_on_c, 0, 76, 80
2, 7668, Note_off_c, 0, 76, 64
2, 7680, Note_on_c, 0, 74, 80
2, 7776, Note_off_c, 0, 74, 64
2, 7800, Note_on_c, 0, 71, 80
2, 7800, Note_on_c, 0, 67, 80
2, 7800, Note_on_c, 0, 74, 80
2, 7896, Note_off_c, 0, 74, 64
2, 7896, Note_off_c, 0, 67, 64
2, 7896, Note_off_c, 0, 71, 64
2, 7920, Note_on_c, 0, 69, 80
2, 7920, Note_on_c, 0, 66, 80
2, 7920, Note_on_c, 0, 74, 80
2, 8016, Note_off_c, 0, 74, 64
2, 8016, Note_off_c, 0, 66, 64
2, 8016, Note_off_c, 0, 69, 64
2, 8040, Note_on_c, 0, 69, 80
2, 8040, Note_on_c, 0, 72, 80
2, 8040, Note_on_c, 0, 74, 80
2, 8136, Note_off_c, 0, 74, 64
2, 8136, Note_off_c, 0, 72, 64
2, 8136, Note_off_c, 0, 69, 64
2, 8160, Note_on_c, 0, 71, 80
2, 8160, Note_on_c, 0, 67, 80
2, 8160, Note_on_c, 0, 74, 80
2, 8256, Note_off_c, 0, 74, 64
2, 8280, Note_on_c, 0, 79, 80
2, 8376, Note_off_c, 0, 79, 64
2, 8400, Note_on_c, 0, 77, 80
2, 8496, Note_off_c, 0, 77, 64
2, 8520, Note_on_c, 0, 74, 80
2, 8616, Note_off_c, 0, 74, 64
2, 8640, Note_on_c, 0, 75, 80
2, 8736, Note_off_c, 0, 67, 64
2, 8736, Note_off_c, 0, 71, 64
2, 8760, Note_on_c, 0, 67, 80
2, 8760, Note_on_c, 0, 72, 80
2, 8832, Note_off_c, 0, 75, 64
2, 8856, Note_off_c, 0, 72, 64
2, 8856, Note_off_c, 0, 67, 64
2, 8880, Note_on_c, 0, 72, 80
2, 8880, Note_on_c, 0, 67, 80
2, 8880, Note_on_c, 0, 76, 80
2, 8976, Note_off_c, 0, 67, 64
2, 8976, Note_off_c, 0, 72, 64
2, 9000, Note_on_c, 0, 67, 80
2, 9000, Note_on_c, 0, 72, 80
2, 9096, Note_off_c, 0, 72, 64
2, 9096, Note_off_c, 0, 67, 64
2, 9120, Note_on_c, 0, 72, 80
2, 9120, Note_on_c, 0, 67, 80
2, 9216, Note_off_c, 0, 76, 64
2, 9240, Note_on_c, 0, 79, 80
2, 9312, Note_off_c, 0, 67, 64
2, 9312, Note_off_c, 0, 72, 64
2, 9336, Note_off_c, 0, 79, 64
2, 9360, Note_on_c, 0, 76, 80
2, 9456, Note_off_c, 0, 76, 64
2, 9480, Note_on_c, 0, 72, 80
2, 9576, Note_off_c, 0, 72, 64
2, 9600, Note_on_c, 0, 73, 80
2, 9720, Note_on_c, 0, 67, 80
2, 9720, Note_on_c, 0, 71, 80
2, 9792, Note_off_c, 0, 73, 64
2, 9816, Note_off_c, 0, 71, 64
2, 9816, Note_off_c, 0, 67, 64
2, 9840, Note_on_c, 0, 71, 80
2, 9840, Note_on_c, 0, 67, 80
2, 9840, Note_on_c, 0, 74, 80
2, 9936, Note_off_c, 0, 67, 64
2, 9936, Note_off_c, 0, 71, 64
2, 9960, Note_on_c, 0, 67, 80
2, 9960, Note_on_c, 0, 71, 80
2, 10032, Note_off_c, 0, 74, 64
2, 10056, Note_off_c, 0, 71, 64
2, 10056, Note_off_c, 0, 67, 64
2, 10080, Note_on_c, 0, 71, 80
2, 10080, Note_on_c, 0, 67, 80
2, 10080, Note_on_c, 0, 74, 80
2, 10176, Note_off_c, 0, 74, 64
2, 10200, Note_on_c, 0, 83, 80
2, 10272, Note_off_c, 0, 67, 64
2, 10272, Note_off_c, 0, 71, 64
2, 10296, Note_off_c, 0, 83, 64
2, 10320, Note_on_c, 0, 81, 80
2, 10344, Note_off_c, 0, 81, 64
2, 10350, Note_on_c, 0, 79, 80
2, 10422, Note_off_c, 0, 79, 64
2, 10440, Note_on_c, 0, 78, 80
2, 10464, Note_off_c, 0, 78, 64
2, 10470, Note_on_c, 0, 76, 80
2, 10542, Note_off_c, 0, 76, 64
2, 10560, Note_on_c, 0, 74, 80
2, 10680, Note_on_c, 0, 69, 80
2, 10752, Note_off_c, 0, 74, 64
2, 10776, Note_off_c, 0, 69, 64
2, 10800, Note_on_c, 0, 72, 80
2, 10800, Note_on_c, 0, 66, 80
2, 10896, Note_off_c, 0, 66, 64
2, 10896, Note_off_c, 0, 72, 64
2, 10920, Note_on_c, 0, 67, 80
2, 10920, Note_on_c, 0, 71, 80
2, 11016, Note_off_c, 0, 71, 64
2, 11016, Note_off_c, 0, 67, 64
2, 11040, Note_on_c, 0, 60, 80
2, 11040, Note_on_c, 0, 69, 80
2, 11088, Note_off_c, 0, 69, 64
2, 11100, Note_on_c, 0, 67, 80
2, 11148, Note_off_c, 0, 67, 64
2, 11160, Note_on_c, 0, 75, 80
2, 11208, Note_off_c, 0, 75, 64
2, 11220, Note_on_c, 0, 76, 80
2, 11268, Note_off_c, 0, 76, 64
2, 11280, Note_on_c, 0, 74, 80
2, 11328, Note_off_c, 0, 74, 64
2, 11328, Note_off_c, 0, 60, 64
2, 11340, Note_on_c, 0, 72, 80
2, 11388, Note_off_c, 0, 72, 64
2, 11400, Note_on_c, 0, 61, 80
2, 11400, Note_on_c, 0, 71, 80
2, 11448, Note_off_c, 0, 71, 64
2, 11460, Note_on_c, 0, 69, 80
2, 11496, Note_off_c, 0, 61, 64
2, 11508, Note_off_c, 0, 69, 64
2, 11520, Note_on_c, 0, 62, 80
2, 11520, Note_on_c, 0, 67, 80
2, 11616, Note_off_c, 0, 62, 64
2, 11640, Note_on_c, 0, 57, 80
2, 11712, Note_off_c, 0, 67, 64
2, 11736, Note_off_c, 0, 57, 64
2, 11760, Note_on_c, 0, 66, 80
2, 11760, Note_on_c, 0, 50, 80
2, 11808, Note_off_c, 0, 66, 64
2, 11856, Note_off_c, 0, 50, 64
2, 11880, Note_on_c, 0, 69, 80
2, 11976, Note_off_c, 0, 69, 64
2, 12000, Note_on_c, 0, 74, 80
2, 12000, Note_on_c, 0, 50, 80
2, 12048, Note_off_c, 0, 50, 64
2, 12060, Note_on_c, 0, 57, 80
2, 12108, Note_off_c, 0, 57, 64
2, 12120, Note_on_c, 0, 54, 80
2, 12168, Note_off_c, 0, 54, 64
2, 12180, Note_on_c, 0, 57, 80
2, 12192, Note_off_c, 0, 74, 64
2, 12228, Note_off_c, 0, 57, 64
2, 12240, Note_on_c, 0, 79, 80
2, 12240, Note_on_c, 0, 50, 80
2, 12288, Note_off_c, 0, 50, 64
2, 12288, Note_off_c, 0, 79, 64
2, 12300, Note_on_c, 0, 78, 80
2, 12300, Note_on_c, 0, 57, 80
2, 12348, Note_off_c, 0, 57, 64
2, 12348, Note_off_c, 0, 78, 64
2, 12360, Note_on_c, 0, 76, 80
2, 12360, Note_on_c, 0, 54, 80
2, 12408, Note_off_c, 0, 54, 64
2, 12408, Note_off_c, 0, 76, 64
2, 12420, Note_on_c, 0, 57, 80
2, 12420, Note_on_c, 0, 74, 80
2, 12468, Note_off_c, 0, 74, 64
2, 12468, Note_off_c, 0, 57, 64
2, 12480, Note_on_c, 0, 74, 80
2, 12480, Note_on_c, 0, 52, 80
2, 12528, Note_off_c, 0, 52, 64
2, 12540, Note_on_c, 0, 57, 80
2, 12576, Note_off_c, 0, 74, 64
2, 12588, Note_off_c, 0, 57, 64
2, 12600, Note_on_c, 0, 73, 80
2, 12600, Note_on_c, 0, 55, 80
2, 12648, Note_off_c, 0, 55, 64
2, 12660, Note_on_c, 0, 57, 80
2, 12696, Note_off_c, 0, 73, 64
2, 12708, Note_off_c, 0, 57, 64
2, 12720, Note_on_c, 0, 52, 80
2, 12768, Note_off_c, 0, 52, 64
2, 12780, Note_on_c, 0, 57, 80
2, 12828, Note_off_c, 0, 57, 64
2, 12840, Note_on_c, 0, 55, 80
2, 12840, Note_on_c, 0, 69, 80
2, 12888, Note_off_c, 0, 55, 64
2, 12900, Note_on_c, 0, 57, 80
2, 12936, Note_off_c, 0, 69, 64
2, 12948, Note_off_c, 0, 57, 64
2, 12960, Note_on_c, 0, 76, 80
2, 12960, Note_on_c, 0, 49, 80
2, 13008, Note_off_c, 0, 49, 64
2, 13020, Note_on_c, 0, 57, 80
2, 13068, Note_off_c, 0, 57, 64
2, 13080, Note_on_c, 0, 52, 80
2, 13128, Note_off_c, 0, 52, 64
2, 13140, Note_on_c, 0, 57, 80
2, 13152, Note_off_c, 0, 76, 64
2, 13188, Note_off_c, 0, 57, 64
2, 13200, Note_on_c, 0, 81, 80
2, 13200, Note_on_c, 0, 49, 80
2, 13248, Note_off_c, 0, 49, 64
2, 13248, Note_off_c, 0, 81, 64
2, 13260, Note_on_c, 0, 79, 80
2, 13260, Note_on_c, 0, 57, 80
2, 13308, Note_off_c, 0, 57, 64
2, 13308, Note_off_c, 0, 79, 64
2, 13320, Note_on_c, 0, 78, 80
2, 13320, Note_on_c, 0, 52, 80
2, 13368, Note_off_c, 0, 52, 64
2, 13368, Note_off_c, 0, 78, 64
2, 13380, Note_on_c, 0, 57, 80
2, 13380, Note_on_c, 0, 76, 80
2, 13428, Note_off_c, 0, 76, 64
2, 13428, Note_off_c, 0, 57, 64
2, 13440, Note_on_c, 0, 76, 80
2, 13440, Note_on_c, 0, 50, 80
2, 13488, Note_off_c, 0, 50, 64
2, 13500, Note_on_c, 0, 57, 80
2, 13536, Note_off_c, 0, 76, 64
2, 13548, Note_off_c, 0, 57, 64
2, 13560, Note_on_c, 0, 78, 80
2, 13560, Note_on_c, 0, 54, 80
2, 13608, Note_off_c, 0, 54, 64
2, 13620, Note_on_c, 0, 57, 80
2, 13656, Note_off_c, 0, 78, 64
2, 13668, Note_off_c, 0, 57, 64
2, 13680, Note_on_c, 0, 50, 80
2, 13728, Note_off_c, 0, 50, 64
2, 13740, Note_on_c, 0, 57, 80
2, 13788, Note_off_c, 0, 57, 64
2, 13800, Note_on_c, 0, 54, 80
2, 13800, Note_on_c, 0, 69, 80
2, 13848, Note_off_c, 0, 54, 64
2, 13860, Note_on_c, 0, 57, 80
2, 13896, Note_off_c, 0, 69, 64
2, 13908, Note_off_c, 0, 57, 64
2, 13920, Note_on_c, 0, 69, 80
2, 13920, Note_on_c, 0, 54, 80
2, 13968, Note_off_c, 0, 69, 64
2, 13980, Note_on_c, 0, 81, 80
2, 14028, Note_off_c, 0, 81, 64
2, 14040, Note_on_c, 0, 79, 80
2, 14088, Note_off_c, 0, 79, 64
2, 14100, Note_on_c, 0, 78, 80
2, 14112, Note_off_c, 0, 54, 64
2, 14148, Note_off_c, 0, 78, 64
2, 14160, Note_on_c, 0, 76, 80
2, 14208, Note_off_c, 0, 76, 64
2, 14220, Note_on_c, 0, 74, 80
2, 14268, Note_off_c, 0, 74, 64
2, 14280, Note_on_c, 0, 73, 80
2, 14328, Note_off_c, 0, 73, 64
2, 14340, Note_on_c, 0, 74, 80
2, 14388, Note_off_c, 0, 74, 64
2, 14400, Note_on_c, 0, 55, 80
2, 14400, Note_on_c, 0, 71, 80
2, 14424, Note_off_c, 0, 71, 64
2, 14448, Note_off_c, 0, 55, 64
2, 14460, Note_on_c, 0, 67, 80
2, 14508, Note_off_c, 0, 67, 64
2, 14520, Note_on_c, 0, 54, 80
2, 14520, Note_on_c, 0, 75, 80
2, 14544, Note_off_c, 0, 75, 64
2, 14568, Note_off_c, 0, 54, 64
2, 14580, Note_on_c, 0, 66, 80
2, 14628, Note_off_c, 0, 66, 64
2, 14640, Note_on_c, 0, 52, 80
2, 14640, Note_on_c, 0, 76, 80
2, 14664, Note_off_c, 0, 76, 64
2, 14688, Note_off_c, 0, 52, 64
2, 14700, Note_on_c, 0, 64, 80
2, 14748, Note_off_c, 0, 64, 64
2, 14760, Note_on_c, 0, 51, 80
2, 14760, Note_on_c, 0, 78, 80
2, 14784, Note_off_c, 0, 78, 64
2, 14808, Note_off_c, 0, 51, 64
2, 14820, Note_on_c, 0, 63, 80
2, 14868, Note_off_c, 0, 63, 64
2, 14880, Note_on_c, 0, 52, 80
2, 14940, Note_on_c, 0, 79, 80
2, 14988, Note_off_c, 0, 79, 64
2, 15000, Note_on_c, 0, 78, 80
2, 15048, Note_off_c, 0, 78, 64
2, 15060, Note_on_c, 0, 76, 80
2, 15072, Note_off_c, 0, 52, 64
2, 15108, Note_off_c, 0, 76, 64
2, 15120, Note_on_c, 0, 74, 80
2, 15168, Note_off_c, 0, 74, 64
2, 15180, Note_on_c, 0, 73, 80
2, 15228, Note_off_c, 0, 73, 64
2, 15240, Note_on_c, 0, 71, 80
2, 15288, Note_off_c, 0, 71, 64
2, 15300, Note_on_c, 0, 73, 80
2, 15348, Note_off_c, 0, 73, 64
2, 15360, Note_on_c, 0, 54, 80
2, 15360, Note_on_c, 0, 69, 80
2, 15384, Note_off_c, 0, 69, 64
2, 15408, Note_off_c, 0, 54, 64
2, 15420, Note_on_c, 0, 66, 80
2, 15468, Note_off_c, 0, 66, 64
2, 15480, Note_on_c, 0, 52, 80
2, 15480, Note_on_c, 0, 73, 80
2, 15504, Note_off_c, 0, 73, 64
2, 15528, Note_off_c, 0, 52, 64
2, 15540, Note_on_c, 0, 64, 80
2, 15588, Note_off_c, 0, 64, 64
2, 15600, Note_on_c, 0, 50, 80
2, 15600, Note_on_c, 0, 74, 80
2, 15624, Note_off_c, 0, 74, 64
2, 15648, Note_off_c, 0, 50, 64
2, 15660, Note_on_c, 0, 62, 80
2, 15708, Note_off_c, 0, 62, 64
2, 15720, Note_on_c, 0, 49, 80
2, 15720, Note_on_c, 0, 76, 80
2, 15744, Note_off_c, 0, 76, 64
2, 15768, Note_off_c, 0, 49, 64
2, 15780, Note_on_c, 0, 61, 80
2, 15828, Note_off_c, 0, 61, 64
2, 15840, Note_on_c, 0, 50, 80
2, 15900, Note_on_c, 0, 78, 80
2, 15948, Note_off_c, 0, 78, 64
2, 15960, Note_on_c, 0, 76, 80
2, 16008, Note_off_c, 0, 76, 64
2, 16020, Note_on_c, 0, 74, 80
2, 16032, Note_off_c, 0, 50, 64
2, 16068, Note_off_c, 0, 74, 64
2, 16080, Note_on_c, 0, 73, 80
2, 16128, Note_off_c, 0, 73, 64
2, 16140, Note_on_c, 0, 71, 80
2, 16188, Note_off_c, 0, 71, 64
2, 16200, Note_on_c, 0, 69, 80
2, 16248, Note_off_c, 0, 69, 64
2, 16260, Note_on_c, 0, 71, 80
2, 16308, Note_off_c, 0, 71, 64
2, 16320, Note_on_c, 0, 52, 80
2, 16320, Note_on_c, 0, 67, 80
2, 16344, Note_off_c, 0, 67, 64
2, 16368, Note_off_c, 0, 52, 64
2, 16380, Note_on_c, 0, 64, 80
2, 16428, Note_off_c, 0, 64, 64
2, 16440, Note_on_c, 0, 50, 80
2, 16440, Note_on_c, 0, 71, 80
2, 16464, Note_off_c, 0, 71, 64
2, 16488, Note_off_c, 0, 50, 64
2, 16500, Note_on_c, 0, 62, 80
2, 16548, Note_off_c, 0, 62, 64
2, 16560, Note_on_c, 0, 49, 80
2, 16560, Note_on_c, 0, 73, 80
2, 16584, Note_off_c, 0, 73, 64
2, 16608, Note_off_c, 0, 49, 64
2, 16620, Note_on_c, 0, 61, 80
2, 16668, Note_off_c, 0, 61, 64
2, 16680, Note_on_c, 0, 47, 80
2, 16680, Note_on_c, 0, 74, 80
2, 16704, Note_off_c, 0, 74, 64
2, 16728, Note_off_c, 0, 47, 64
2, 16740, Note_on_c, 0, 59, 80
2, 16788, Note_off_c, 0, 59, 64
2, 16800, Note_on_c, 0, 45, 80
2, 16860, Note_on_c, 0, 76, 80
2, 16908, Note_off_c, 0, 76, 64
2, 16920, Note_on_c, 0, 74, 80
2, 16968, Note_off_c, 0, 74, 64
2, 16980, Note_on_c, 0, 73, 80
2, 16992, Note_off_c, 0, 45, 64
2, 17028, Note_off_c, 0, 73, 64
2, 17040, Note_on_c, 0, 71, 80
2, 17088, Note_off_c, 0, 71, 64
2, 17100, Note_on_c, 0, 69, 80
2, 17148, Note_off_c, 0, 69, 64
2, 17160, Note_on_c, 0, 49, 80
2, 17160, Note_on_c, 0, 71, 80
2, 17208, Note_off_c, 0, 71, 64
2, 17220, Note_on_c, 0, 67, 80
2, 17256, Note_off_c, 0, 49, 64
2, 17268, Note_off_c, 0, 67, 64
2, 17280, Note_on_c, 0, 66, 80
2, 17280, Note_on_c, 0, 50, 80
2, 17328, Note_off_c, 0, 50, 64
2, 17340, Note_on_c, 0, 57, 80
2, 17376, Note_off_c, 0, 66, 64
2, 17388, Note_off_c, 0, 57, 64
2, 17400, Note_on_c, 0, 54, 80
2, 17400, Note_on_c, 0, 74, 80
2, 17448, Note_off_c, 0, 54, 64
2, 17460, Note_on_c, 0, 57, 80
2, 17496, Note_off_c, 0, 74, 64
2, 17508, Note_off_c, 0, 57, 64
2, 17520, Note_on_c, 0, 73, 80
2, 17520, Note_on_c, 0, 52, 80
2, 17568, Note_off_c, 0, 52, 64
2, 17580, Note_on_c, 0, 57, 80
2, 17616, Note_off_c, 0, 73, 64
2, 17628, Note_off_c, 0, 57, 64
2, 17640, Note_on_c, 0, 81, 80
2, 17640, Note_on_c, 0, 55, 80
2, 17688, Note_off_c, 0, 55, 64
2, 17700, Note_on_c, 0, 57, 80
2, 17736, Note_off_c, 0, 81, 64
2, 17748, Note_off_c, 0, 57, 64
2, 17760, Note_on_c, 0, 78, 80
2, 17760, Note_on_c, 0, 50, 80
2, 17808, Note_off_c, 0, 50, 64
2, 17820, Note_on_c, 0, 57, 80
2, 17856, Note_off_c, 0, 78, 64
2, 17868, Note_off_c, 0, 57, 64
2, 17880, Note_on_c, 0, 54, 80
2, 17880, Note_on_c, 0, 74, 80
2, 17928, Note_off_c, 0, 54, 64
2, 17940, Note_on_c, 0, 57, 80
2, 17976, Note_off_c, 0, 74, 64
2, 17988, Note_off_c, 0, 57, 64
2, 18000, Note_on_c, 0, 73, 80
2, 18000, Note_on_c, 0, 52, 80
2, 18048, Note_off_c, 0, 52, 64
2, 18060, Note_on_c, 0, 57, 80
2, 18096, Note_off_c, 0, 73, 64
2, 18108, Note_off_c, 0, 57, 64
2, 18120, Note_on_c, 0, 67, 80
2, 18120, Note_on_c, 0, 55, 80
2, 18168, Note_off_c, 0, 55, 64
2, 18180, Note_on_c, 0, 57, 80
2, 18216, Note_off_c, 0, 67, 64
2, 18228, Note_off_c, 0, 57, 64
2, 18240, Note_on_c, 0, 66, 80
2, 18240, Note_on_c, 0, 50, 80
2, 18288, Note_off_c, 0, 50, 64
2, 18300, Note_on_c, 0, 57, 80
2, 18336, Note_off_c, 0, 66, 64
2, 18348, Note_off_c, 0, 57, 64
2, 18360, Note_on_c, 0, 54, 80
2, 18360, Note_on_c, 0, 74, 80
2, 18408, Note_off_c, 0, 54, 64
2, 18420, Note_on_c, 0, 57, 80
2, 18456, Note_off_c, 0, 74, 64
2, 18468, Note_off_c, 0, 57, 64
2, 18480, Note_on_c, 0, 73, 80
2, 18480, Note_on_c, 0, 52, 80
2, 18504, Note_off_c, 0, 73, 64
2, 18528, Note_off_c, 0, 52, 64
2, 18540, Note_on_c, 0, 57, 80
2, 18588, Note_off_c, 0, 57, 64
2, 18600, Note_on_c, 0, 55, 80
2, 18600, Note_on_c, 0, 81, 80
2, 18624, Note_off_c, 0, 81, 64
2, 18648, Note_off_c, 0, 55, 64
2, 18660, Note_on_c, 0, 57, 80
2, 18708, Note_off_c, 0, 57, 64
2, 18720, Note_on_c, 0, 78, 80
2, 18720, Note_on_c, 0, 50, 80
2, 18744, Note_off_c, 0, 78, 64
2, 18768, Note_off_c, 0, 50, 64
2, 18780, Note_on_c, 0, 57, 80
2, 18828, Note_off_c, 0, 57, 64
2, 18840, Note_on_c, 0, 54, 80
2, 18840, Note_on_c, 0, 74, 80
2, 18864, Note_off_c, 0, 74, 64
2, 18888, Note_off_c, 0, 54, 64
2, 18900, Note_on_c, 0, 57, 80
2, 18948, Note_off_c, 0, 57, 64
2, 18960, Note_on_c, 0, 73, 80
2, 18960, Note_on_c, 0, 52, 80
2, 18984, Note_off_c, 0, 73, 64
2, 19008, Note_off_c, 0, 52, 64
2, 19020, Note_on_c, 0, 57, 80
2, 19068, Note_off_c, 0, 57, 64
2, 19080, Note_on_c, 0, 67, 80
2, 19080, Note_on_c, 0, 55, 80
2, 19104, Note_off_c, 0, 67, 64
2, 19128, Note_off_c, 0, 55, 64
2, 19140, Note_on_c, 0, 57, 80
2, 19188, Note_off_c, 0, 57, 64
2, 19200, Note_on_c, 0, 66, 80
2, 19200, Note_on_c, 0, 50, 80
2, 19248, Note_off_c, 0, 50, 64
2, 19260, Note_on_c, 0, 57, 80
2, 19296, Note_off_c, 0, 66, 64
2, 19308, Note_off_c, 0, 57, 64
2, 19320, Note_on_c, 0, 74, 80
2, 19320, Note_on_c, 0, 54, 80
2, 19368, Note_off_c, 0, 54, 64
2, 19380, Note_on_c, 0, 57, 80
2, 19416, Note_off_c, 0, 74, 64
2, 19428, Note_off_c, 0, 57, 64
2, 19440, Note_on_c, 0, 72, 80
2, 19440, Note_on_c, 0, 54, 80
2, 19488, Note_off_c, 0, 54, 64
2, 19500, Note_on_c, 0, 62, 80
2, 19536, Note_off_c, 0, 72, 64
2, 19548, Note_off_c, 0, 62, 64
2, 19560, Note_on_c, 0, 57, 80
2, 19560, Note_on_c, 0, 69, 80
2, 19608, Note_off_c, 0, 57, 64
2, 19620, Note_on_c, 0, 62, 80
2, 19656, Note_off_c, 0, 69, 64
2, 19668, Note_off_c, 0, 62, 64
2, 19680, Note_on_c, 0, 70, 80
2, 19680, Note_on_c, 0, 50, 80
2, 19728, Note_off_c, 0, 50, 64
2, 19740, Note_on_c, 0, 57, 80
2, 19788, Note_off_c, 0, 57, 64
2, 19800, Note_on_c, 0, 54, 80
2, 19848, Note_off_c, 0, 54, 64
2, 19860, Note_on_c, 0, 57, 80
2, 19872, Note_off_c, 0, 70, 64
2, 19908, Note_off_c, 0, 57, 64
2, 19920, Note_on_c, 0, 55, 80
2, 19920, Note_on_c, 0, 71, 80
2, 20016, Note_off_c, 0, 71, 64
2, 20016, Note_off_c, 0, 55, 64
2, 20040, Note_on_c, 0, 83, 80
2, 20088, Note_off_c, 0, 83, 64
2, 20100, Note_on_c, 0, 79, 80
2, 20148, Note_off_c, 0, 79, 64
2, 20160, Note_on_c, 0, 81, 80
2, 20208, Note_off_c, 0, 81, 64
2, 20220, Note_on_c, 0, 78, 80
2, 20268, Note_off_c, 0, 78, 64
2, 20280, Note_on_c, 0, 79, 80
2, 20328, Note_off_c, 0, 79, 64
2, 20340, Note_on_c, 0, 76, 80
2, 20388, Note_off_c, 0, 76, 64
2, 20400, Note_on_c, 0, 78, 80
2, 20448, Note_off_c, 0, 78, 64
2, 20460, Note_on_c, 0, 74, 80
2, 20508, Note_off_c, 0, 74, 64
2, 20520, Note_on_c, 0, 76, 80
2, 20520, Note_on_c, 0, 57, 80
2, 20568, Note_off_c, 0, 76, 64
2, 20580, Note_on_c, 0, 73, 80
2, 20616, Note_off_c, 0, 57, 64
2, 20628, Note_off_c, 0, 73, 64
2, 20640, Note_on_c, 0, 59, 80
2, 20640, Note_on_c, 0, 74, 80
2, 20664, Note_off_c, 0, 74, 64
2, 20688, Note_off_c, 0, 59, 64
2, 20700, Note_on_c, 0, 68, 80
2, 20748, Note_off_c, 0, 68, 64
2, 20760, Note_on_c, 0, 62, 80
2, 20760, Note_on_c, 0, 86, 80
2, 20784, Note_off_c, 0, 86, 64
2, 20808, Note_off_c, 0, 62, 64
2, 20820, Note_on_c, 0, 68, 80
2, 20868, Note_off_c, 0, 68, 64
2, 20880, Note_on_c, 0, 59, 80
2, 20880, Note_on_c, 0, 86, 80
2, 20904, Note_off_c, 0, 86, 64
2, 20928, Note_off_c, 0, 59, 64
2, 20940, Note_on_c, 0, 68, 80
2, 20988, Note_off_c, 0, 68, 64
2, 21000, Note_on_c, 0, 62, 80
2, 21000, Note_on_c, 0, 88, 80
2, 21024, Note_off_c, 0, 88, 64
2, 21030, Note_on_c, 0, 86, 80
2, 21048, Note_off_c, 0, 62, 64
2, 21054, Note_off_c, 0, 86, 64
2, 21060, Note_on_c, 0, 85, 80
2, 21060, Note_on_c, 0, 68, 80
2, 21084, Note_off_c, 0, 85, 64
2, 21090, Note_on_c, 0, 86, 80
2, 21108, Note_off_c, 0, 68, 64
2, 21114, Note_off_c, 0, 86, 64
2, 21120, Note_on_c, 0, 85, 80
2, 21120, Note_on_c, 0, 57, 80
2, 21168, Note_off_c, 0, 57, 64
2, 21180, Note_on_c, 0, 69, 80
2, 21216, Note_off_c, 0, 85, 64
2, 21228, Note_off_c, 0, 69, 64
2, 21240, Note_on_c, 0, 61, 80
2, 21240, Note_on_c, 0, 79, 80
2, 21264, Note_off_c, 0, 79, 64
2, 21288, Note_off_c, 0, 61, 64
2, 21300, Note_on_c, 0, 69, 80
2, 21348, Note_off_c, 0, 69, 64
2, 21360, Note_on_c, 0, 57, 80
2, 21360, Note_on_c, 0, 79, 80
2, 21384, Note_off_c, 0, 79, 64
2, 21408, Note_off_c, 0, 57, 64
2, 21420, Note_on_c, 0, 69, 80
2, 21468, Note_off_c, 0, 69, 64
2, 21480, Note_on_c, 0, 61, 80
2, 21480, Note_on_c, 0, 81, 80
2, 21504, Note_off_c, 0, 81, 64
2, 21510, Note_on_c, 0, 79, 80
2, 21528, Note_off_c, 0, 61, 64
2, 21534, Note_off_c, 0, 79, 64
2, 21540, Note_on_c, 0, 78, 80
2, 21540, Note_on_c, 0, 69, 80
2, 21564, Note_off_c, 0, 78, 64
2, 21570, Note_on_c, 0, 79, 80
2, 21588, Note_off_c, 0, 69, 64
2, 21594, Note_off_c, 0, 79, 64
2, 21600, Note_on_c, 0, 78, 80
2, 21600, Note_on_c, 0, 62, 80
2, 21648, Note_off_c, 0, 62, 64
2, 21660, Note_on_c, 0, 69, 80
2, 21696, Note_off_c, 0, 78, 64
2, 21708, Note_off_c, 0, 69, 64
2, 21720, Note_on_c, 0, 66, 80
2, 21720, Note_on_c, 0, 72, 80
2, 21744, Note_off_c, 0, 72, 64
2, 21768, Note_off_c, 0, 66, 64
2, 21780, Note_on_c, 0, 69, 80
2, 21828, Note_off_c, 0, 69, 64
2, 21840, Note_on_c, 0, 62, 80
2, 21840, Note_on_c, 0, 72, 80
2, 21864, Note_off_c, 0, 72, 64
2, 21888, Note_off_c, 0, 62, 64
2, 21900, Note_on_c, 0, 69, 80
2, 21948, Note_off_c, 0, 69, 64
2, 21960, Note_on_c, 0, 66, 80
2, 21960, Note_on_c, 0, 74, 80
2, 21984, Note_off_c, 0, 74, 64
2, 21990, Note_on_c, 0, 72, 80
2, 22008, Note_off_c, 0, 66, 64
2, 22014, Note_off_c, 0, 72, 64
2, 22020, Note_on_c, 0, 71, 80
2, 22020, Note_on_c, 0, 69, 80
2, 22044, Note_off_c, 0, 71, 64
2, 22050, Note_on_c, 0, 72, 80
2, 22068, Note_off_c, 0, 69, 64
2, 22074, Note_off_c, 0, 72, 64
2, 22080, Note_on_c, 0, 67, 80
2, 22080, Note_on_c, 0, 71, 80
2, 22176, Note_off_c, 0, 71, 64
2, 22200, Note_on_c, 0, 82, 80
2, 22248, Note_off_c, 0, 82, 64
2, 22260, Note_on_c, 0, 83, 80
2, 22272, Note_off_c, 0, 67, 64
2, 22308, Note_off_c, 0, 83, 64
2, 22320, Note_on_c, 0, 81, 80
2, 22368, Note_off_c, 0, 81, 64
2, 22380, Note_on_c, 0, 79, 80
2, 22428, Note_off_c, 0, 79, 64
2, 22440, Note_on_c, 0, 78, 80
2, 22488, Note_off_c, 0, 78, 64
2, 22500, Note_on_c, 0, 76, 80
2, 22548, Note_off_c, 0, 76, 64
2, 22560, Note_on_c, 0, 74, 80
2, 22680, Note_on_c, 0, 54, 80
2, 22752, Note_off_c, 0, 74, 64
2, 22776, Note_off_c, 0, 54, 64
2, 22800, Note_on_c, 0, 76, 80
2, 22800, Note_on_c, 0, 55, 80
2, 22824, Note_off_c, 0, 76, 64
2, 22830, Note_on_c, 0, 78, 80
2, 22854, Note_off_c, 0, 78, 64
2, 22860, Note_on_c, 0, 76, 80
2, 22884, Note_off_c, 0, 76, 64
2, 22890, Note_on_c, 0, 78, 80
2, 22896, Note_off_c, 0, 55, 64
2, 22914, Note_off_c, 0, 78, 64
2, 22920, Note_on_c, 0, 76, 80
2, 22920, Note_on_c, 0, 57, 80
2, 22944, Note_off_c, 0, 76, 64
2, 22950, Note_on_c, 0, 78, 80
2, 22974, Note_off_c, 0, 78, 64
2, 22980, Note_on_c, 0, 76, 80
2, 23004, Note_off_c, 0, 76, 64
2, 23010, Note_on_c, 0, 78, 80
2, 23016, Note_off_c, 0, 57, 64
2, 23034, Note_off_c, 0, 78, 64
2, 23040, Note_on_c, 0, 59, 80
2, 23040, Note_on_c, 0, 74, 80
2, 23064, Note_off_c, 0, 74, 64
2, 23088, Note_off_c, 0, 59, 64
2, 23100, Note_on_c, 0, 68, 80
2, 23148, Note_off_c, 0, 68, 64
2, 23160, Note_on_c, 0, 62, 80
2, 23160, Note_on_c, 0, 86, 80
2, 23184, Note_off_c, 0, 86, 64
2, 23208, Note_off_c, 0, 62, 64
2, 23220, Note_on_c, 0, 68, 80
2, 23268, Note_off_c, 0, 68, 64
2, 23280, Note_on_c, 0, 59, 80
2, 23280, Note_on_c, 0, 86, 80
2, 23304, Note_off_c, 0, 86, 64
2, 23328, Note_off_c, 0, 59, 64
2, 23340, Note_on_c, 0, 68, 80
2, 23388, Note_off_c, 0, 68, 64
2, 23400, Note_on_c, 0, 62, 80
2, 23400, Note_on_c, 0, 88, 80
2, 23424, Note_off_c, 0, 88, 64
2, 23430, Note_on_c, 0, 86, 80
2, 23448, Note_off_c, 0, 62, 64
2, 23454, Note_off_c, 0, 86, 64
2, 23460, Note_on_c, 0, 68, 80
2, 23460, Note_on_c, 0, 85, 80
2, 23484, Note_off_c, 0, 85, 64
2, 23490, Note_on_c, 0, 86, 80
2, 23508, Note_off_c, 0, 68, 64
2, 23514, Note_off_c, 0, 86, 64
2, 23520, Note_on_c, 0, 57, 80
2, 23520, Note_on_c, 0, 85, 80
2, 23568, Note_off_c, 0, 57, 64
2, 23580, Note_on_c, 0, 69, 80
2, 23616, Note_off_c, 0, 85, 64
2, 23628, Note_off_c, 0, 69, 64
2, 23640, Note_on_c, 0, 61, 80
2, 23640, Note_on_c, 0, 79, 80
2, 23664, Note_off_c, 0, 79, 64
2, 23688, Note_off_c, 0, 61, 64
2, 23700, Note_on_c, 0, 69, 80
2, 23748, Note_off_c, 0, 69, 64
2, 23760, Note_on_c, 0, 57, 80
2, 23760, Note_on_c, 0, 79, 80
2, 23784, Note_off_c, 0, 79, 64
2, 23808, Note_off_c, 0, 57, 64
2, 23820, Note_on_c, 0, 69, 80
2, 23868, Note_off_c, 0, 69, 64
2, 23880, Note_on_c, 0, 61, 80
2, 23880, Note_on_c, 0, 81, 80
2, 23904, Note_off_c, 0, 81, 64
2, 23910, Note_on_c, 0, 79, 80
2, 23928, Note_off_c, 0, 61, 64
2, 23934, Note_off_c, 0, 79, 64
2, 23940, Note_on_c, 0, 69, 80
2, 23940, Note_on_c, 0, 78, 80
2, 23964, Note_off_c, 0, 78, 64
2, 23970, Note_on_c, 0, 79, 80
2, 23988, Note_off_c, 0, 69, 64
2, 23994, Note_off_c, 0, 79, 64
2, 24000, Note_on_c, 0, 62, 80
2, 24000, Note_on_c, 0, 78, 80
2, 24048, Note_off_c, 0, 62, 64
2, 24060, Note_on_c, 0, 69, 80
2, 24096, Note_off_c, 0, 78, 64
2, 24108, Note_off_c, 0, 69, 64
2, 24120, Note_on_c, 0, 66, 80
2, 24120, Note_on_c, 0, 72, 80
2, 24144, Note_off_c, 0, 72, 64
2, 24168, Note_off_c, 0, 66, 64
2, 24180, Note_on_c, 0, 69, 80
2, 24228, Note_off_c, 0, 69, 64
2, 24240, Note_on_c, 0, 62, 80
2, 24240, Note_on_c, 0, 72, 80
2, 24264, Note_off_c, 0, 72, 64
2, 24288, Note_off_c, 0, 62, 64
2, 24300, Note_on_c, 0, 69, 80
2, 24348, Note_off_c, 0, 69, 64
2, 24360, Note_on_c, 0, 66, 80
2, 24360, Note_on_c, 0, 74, 80
2, 24384, Note_off_c, 0, 74, 64
2, 24390, Note_on_c, 0, 72, 80
2, 24408, Note_off_c, 0, 66, 64
2, 24414, Note_off_c, 0, 72, 64
2, 24420, Note_on_c, 0, 69, 80
2, 24420, Note_on_c, 0, 71, 80
2, 24444, Note_off_c, 0, 71, 64
2, 24450, Note_on_c, 0, 72, 80
2, 24468, Note_off_c, 0, 69, 64
2, 24474, Note_off_c, 0, 72, 64
2, 24480, Note_on_c, 0, 67, 80
2, 24480, Note_on_c, 0, 71, 80
2, 24576, Note_off_c, 0, 71, 64
2, 24600, Note_on_c, 0, 82, 80
2, 24648, Note_off_c, 0, 82, 64
2, 24660, Note_on_c, 0, 83, 80
2, 24672, Note_off_c, 0, 67, 64
2, 24708, Note_off_c, 0, 83, 64
2, 24720, Note_on_c, 0, 81, 80
2, 24768, Note_off_c, 0, 81, 64
2, 24780, Note_on_c, 0, 79, 80
2, 24828, Note_off_c, 0, 79, 64
2, 24840, Note_on_c, 0, 78, 80
2, 24888, Note_off_c, 0, 78, 64
2, 24900, Note_on_c, 0, 76, 80
2, 24948, Note_off_c, 0, 76, 64
2, 24960, Note_on_c, 0, 74, 80
2, 25080, Note_on_c, 0, 54, 80
2, 25152, Note_off_c, 0, 74, 64
2, 25176, Note_off_c, 0, 54, 64
2, 25200, Note_on_c, 0, 76, 80
2, 25200, Note_on_c, 0, 55, 80
2, 25248, Note_off_c, 0, 76, 64
2, 25260, Note_on_c, 0, 78, 80
2, 25284, Note_off_c, 0, 78, 64
2, 25290, Note_on_c, 0, 76, 80
2, 25296, Note_off_c, 0, 55, 64
2, 25314, Note_off_c, 0, 76, 64
2, 25320, Note_on_c, 0, 78, 80
2, 25320, Note_on_c, 0, 57, 80
2, 25344, Note_off_c, 0, 78, 64
2, 25350, Note_on_c, 0, 76, 80
2, 25374, Note_off_c, 0, 76, 64
2, 25380, Note_on_c, 0, 74, 80
2, 25404, Note_off_c, 0, 74, 64
2, 25410, Note_on_c, 0, 76, 80
2, 25416, Note_off_c, 0, 57, 64
2, 25434, Note_off_c, 0, 76, 64
2, 25440, Note_on_c, 0, 78, 80
2, 25440, Note_on_c, 0, 50, 80
2, 25488, Note_off_c, 0, 78, 64
2, 25500, Note_on_c, 0, 74, 80
2, 25536, Note_off_c, 0, 50, 64
2, 25548, Note_off_c, 0, 74, 64
2, 25560, Note_on_c, 0, 54, 80
2, 25560, Note_on_c, 0, 86, 80
2, 25608, Note_off_c, 0, 86, 64
2, 25620, Note_on_c, 0, 81, 80
2, 25656, Note_off_c, 0, 54, 64
2, 25668, Note_off_c, 0, 81, 64
2, 25680, Note_on_c, 0, 83, 80
2, 25680, Note_on_c, 0, 55, 80
2, 25728, Note_off_c, 0, 83, 64
2, 25740, Note_on_c, 0, 78, 80
2, 25788, Note_off_c, 0, 78, 64
2, 25800, Note_on_c, 0, 79, 80
2, 25848, Note_off_c, 0, 79, 64
2, 25860, Note_on_c, 0, 76, 80
2, 25872, Note_off_c, 0, 55, 64
2, 25908, Note_off_c, 0, 76, 64
2, 25920, Note_on_c, 0, 74, 80
2, 26040, Note_on_c, 0, 54, 80
2, 26112, Note_off_c, 0, 74, 64
2, 26136, Note_off_c, 0, 54, 64
2, 26160, Note_on_c, 0, 76, 80
2, 26160, Note_on_c, 0, 55, 80
2, 26208, Note_off_c, 0, 76, 64
2, 26220, Note_on_c, 0, 78, 80
2, 26244, Note_off_c, 0, 78, 64
2, 26250, Note_on_c, 0, 76, 80
2, 26256, Note_off_c, 0, 55, 64
2, 26274, Note_off_c, 0, 76, 64
2, 26280, Note_on_c, 0, 78, 80
2, 26280, Note_on_c, 0, 57, 80
2, 26304, Note_off_c, 0, 78, 64
2, 26310, Note_on_c, 0, 76, 80
2, 26334, Note_off_c, 0, 76, 64
2, 26340, Note_on_c, 0, 78, 80
2, 26364, Note_off_c, 0, 78, 64
2, 26370, Note_on_c, 0, 76, 80
2, 26376, Note_off_c, 0, 57, 64
2, 26394, Note_off_c, 0, 76, 64
2, 26400, Note_on_c, 0, 50, 80
2, 26400, Note_on_c, 0, 74, 80
2, 26448, Note_off_c, 0, 50, 64
2, 26460, Note_on_c, 0, 62, 80
2, 26496, Note_off_c, 0, 74, 64
2, 26508, Note_off_c, 0, 62, 64
2, 26520, Note_on_c, 0, 50, 80
2, 26568, Note_off_c, 0, 50, 64
2, 26580, Note_on_c, 0, 62, 80
2, 26628, Note_off_c, 0, 62, 64
2, 26640, Note_on_c, 0, 73, 80
2, 26640, Note_on_c, 0, 79, 80
2, 26640, Note_on_c, 0, 50, 80
2, 26688, Note_off_c, 0, 50, 64
2, 26700, Note_on_c, 0, 62, 80
2, 26736, Note_off_c, 0, 79, 64
2, 26736, Note_off_c, 0, 73, 64
2, 26748, Note_off_c, 0, 62, 64
2, 26760, Note_on_c, 0, 50, 80
2, 26808, Note_off_c, 0, 50, 64
2, 26820, Note_on_c, 0, 62, 80
2, 26868, Note_off_c, 0, 62, 64
2, 26880, Note_on_c, 0, 50, 80
2, 26880, Note_on_c, 0, 78, 80
2, 26880, Note_on_c, 0, 74, 80
2, 26928, Note_off_c, 0, 50, 64
2, 26940, Note_on_c, 0, 62, 80
2, 26976, Note_off_c, 0, 74, 64
2, 26976, Note_off_c, 0, 78, 64
2, 26988, Note_off_c, 0, 62, 64
2, 27000, Note_on_c, 0, 50, 80
2, 27048, Note_off_c, 0, 50, 64
2, 27060, Note_on_c, 0, 62, 80
2, 27108, Note_off_c, 0, 62, 64
2, 27120, Note_on_c, 0, 50, 80
2, 27120, Note_on_c, 0, 67, 80
2, 27120, Note_on_c, 0, 73, 80
2, 27168, Note_off_c, 0, 50, 64
2, 27180, Note_on_c, 0, 62, 80
2, 27216, Note_off_c, 0, 73, 64
2, 27216, Note_off_c, 0, 67, 64
2, 27228, Note_off_c, 0, 62, 64
2, 27240, Note_on_c, 0, 50, 80
2, 27288, Note_off_c, 0, 50, 64
2, 27300, Note_on_c, 0, 62, 80
2, 27348, Note_off_c, 0, 62, 64
2, 27360, Note_on_c, 0, 66, 80
2, 27360, Note_on_c, 0, 74, 80
2, 27360, Note_on_c, 0, 50, 80
2, 27552, Note_off_c, 0, 50, 64
2, 27552, Note_off_c, 0, 74, 64
2, 27552, Note_off_c, 0, 66, 64
2, 27720, Note_on_c, 0, 62, 80
2, 27816, Note_off_c, 0, 62, 64
2, 27840, Note_on_c, 0, 59, 80
2, 27840, Note_on_c, 0, 55, 80
2, 27840, Note_on_c, 0, 67, 80
2, 27888, Note_off_c, 0, 67, 64
2, 27900, Note_on_c, 0, 69, 80
2, 27916, Note_off_c, 0, 69, 64
2, 27920, Note_on_c, 0, 67, 80
2, 27936, Note_off_c, 0, 67, 64
2, 27940, Note_on_c, 0, 66, 80
2, 27956, Note_off_c, 0, 66, 64
2, 27960, Note_on_c, 0, 67, 80
2, 28008, Note_off_c, 0, 67, 64
2, 28020, Note_on_c, 0, 69, 80
2, 28032, Note_off_c, 0, 55, 64
2, 28032, Note_off_c, 0, 59, 64
2, 28068, Note_off_c, 0, 69, 64
2, 28080, Note_on_c, 0, 71, 80
2, 28128, Note_off_c, 0, 71, 64
2, 28140, Note_on_c, 0, 72, 80
2, 28156, Note_off_c, 0, 72, 64
2, 28160, Note_on_c, 0, 71, 80
2, 28176, Note_off_c, 0, 71, 64
2, 28180, Note_on_c, 0, 69, 80
2, 28196, Note_off_c, 0, 69, 64
2, 28200, Note_on_c, 0, 71, 80
2, 28248, Note_off_c, 0, 71, 64
2, 28260, Note_on_c, 0, 72, 80
2, 28308, Note_off_c, 0, 72, 64
2, 28320, Note_on_c, 0, 74, 80
2, 28416, Note_off_c, 0, 74, 64
2, 28440, Note_on_c, 0, 67, 80
2, 28440, Note_on_c, 0, 74, 80
2, 28440, Note_on_c, 0, 71, 80
2, 28536, Note_off_c, 0, 71, 64
2, 28536, Note_off_c, 0, 74, 64
2, 28536, Note_off_c, 0, 67, 64
2, 28560, Note_on_c, 0, 69, 80
2, 28560, Note_on_c, 0, 66, 80
2, 28560, Note_on_c, 0, 74, 80
2, 28656, Note_off_c, 0, 74, 64
2, 28656, Note_off_c, 0, 66, 64
2, 28656, Note_off_c, 0, 69, 64
2, 28680, Note_on_c, 0, 74, 80
2, 28680, Note_on_c, 0, 69, 80
2, 28680, Note_on_c, 0, 72, 80
2, 28776, Note_off_c, 0, 72, 64
2, 28776, Note_off_c, 0, 69, 64
2, 28776, Note_off_c, 0, 74, 64
2, 28800, Note_on_c, 0, 71, 80
2, 28800, Note_on_c, 0, 67, 80
2, 28800, Note_on_c, 0, 74, 80
2, 28896, Note_off_c, 0, 74, 64
2, 28920, Note_on_c, 0, 76, 80
2, 28968, Note_off_c, 0, 76, 64
2, 28980, Note_on_c, 0, 78, 80
2, 28992, Note_off_c, 0, 67, 64
2, 28992, Note_off_c, 0, 71, 64
2, 29028, Note_off_c, 0, 78, 64
2, 29040, Note_on_c, 0, 81, 80
2, 29088, Note_off_c, 0, 81, 64
2, 29100, Note_on_c, 0, 79, 80
2, 29148, Note_off_c, 0, 79, 64
2, 29160, Note_on_c, 0, 78, 80
2, 29208, Note_off_c, 0, 78, 64
2, 29220, Note_on_c, 0, 76, 80
2, 29268, Note_off_c, 0, 76, 64
2, 29280, Note_on_c, 0, 74, 80
2, 29376, Note_off_c, 0, 74, 64
2, 29400, Note_on_c, 0, 67, 80
2, 29400, Note_on_c, 0, 74, 80
2, 29400, Note_on_c, 0, 71, 80
2, 29496, Note_off_c, 0, 71, 64
2, 29496, Note_off_c, 0, 74, 64
2, 29496, Note_off_c, 0, 67, 64
2, 29520, Note_on_c, 0, 69, 80
2, 29520, Note_on_c, 0, 66, 80
2, 29520, Note_on_c, 0, 74, 80
2, 29616, Note_off_c, 0, 74, 64
2, 29616, Note_off_c, 0, 66, 64
2, 29616, Note_off_c, 0, 69, 64
2, 29640, Note_on_c, 0, 74, 80
2, 29640, Note_on_c, 0, 69, 80
2, 29640, Note_on_c, 0, 72, 80
2, 29736, Note_off_c, 0, 72, 64
2, 29736, Note_off_c, 0, 69, 64
2, 29736, Note_off_c, 0, 74, 64
2, 29760, Note_on_c, 0, 74, 80
2, 29760, Note_on_c, 0, 71, 80
2, 29760, Note_on_c, 0, 67, 80
2, 29856, Note_off_c, 0, 74, 64
2, 29880, Note_on_c, 0, 76, 80
2, 29928, Note_off_c, 0, 76, 64
2, 29940, Note_on_c, 0, 78, 80
2, 29952, Note_off_c, 0, 67, 64
2, 29952, Note_off_c, 0, 71, 64
2, 29988, Note_off_c, 0, 78, 64
2, 30000, Note_on_c, 0, 81, 80
2, 30048, Note_off_c, 0, 81, 64
2, 30060, Note_on_c, 0, 79, 80
2, 30108, Note_off_c, 0, 79, 64
2, 30120, Note_on_c, 0, 78, 80
2, 30120, Note_on_c, 0, 67, 80
2, 30120, Note_on_c, 0, 72, 80
2, 30168, Note_off_c, 0, 78, 64
2, 30180, Note_on_c, 0, 76, 80
2, 30216, Note_off_c, 0, 72, 64
2, 30216, Note_off_c, 0, 67, 64
2, 30228, Note_off_c, 0, 76, 64
2, 30240, Note_on_c, 0, 71, 80
2, 30240, Note_on_c, 0, 67, 80
2, 30240, Note_on_c, 0, 74, 80
2, 30336, Note_off_c, 0, 74, 64
2, 30360, Note_on_c, 0, 79, 80
2, 30408, Note_off_c, 0, 79, 64
2, 30420, Note_on_c, 0, 83, 80
2, 30432, Note_off_c, 0, 67, 64
2, 30432, Note_off_c, 0, 71, 64
2, 30468, Note_off_c, 0, 83, 64
2, 30480, Note_on_c, 0, 81, 80
2, 30528, Note_off_c, 0, 81, 64
2, 30540, Note_on_c, 0, 79, 80
2, 30588, Note_off_c, 0, 79, 64
2, 30600, Note_on_c, 0, 78, 80
2, 30648, Note_off_c, 0, 78, 64
2, 30660, Note_on_c, 0, 76, 80
2, 30708, Note_off_c, 0, 76, 64
2, 30720, Note_on_c, 0, 74, 80
2, 30840, Note_on_c, 0, 71, 80
2, 30912, Note_off_c, 0, 74, 64
2, 30936, Note_off_c, 0, 71, 64
2, 30960, Note_on_c, 0, 69, 80
2, 30960, Note_on_c, 0, 72, 80
2, 31008, Note_off_c, 0, 72, 64
2, 31020, Note_on_c, 0, 74, 80
2, 31044, Note_off_c, 0, 74, 64
2, 31050, Note_on_c, 0, 72, 80
2, 31056, Note_off_c, 0, 69, 64
2, 31074, Note_off_c, 0, 72, 64
2, 31080, Note_on_c, 0, 74, 80
2, 31080, Note_on_c, 0, 62, 80
2, 31104, Note_off_c, 0, 74, 64
2, 31110, Note_on_c, 0, 72, 80
2, 31134, Note_off_c, 0, 72, 64
2, 31140, Note_on_c, 0, 71, 80
2, 31164, Note_off_c, 0, 71, 64
2, 31170, Note_on_c, 0, 72, 80
2, 31176, Note_off_c, 0, 62, 64
2, 31194, Note_off_c, 0, 72, 64
2, 31200, Note_on_c, 0, 67, 80
2, 31200, Note_on_c, 0, 71, 80
2, 31296, Note_off_c, 0, 67, 64
2, 31320, Note_on_c, 0, 62, 80
2, 31392, Note_off_c, 0, 71, 64
2, 31416, Note_off_c, 0, 62, 64
2, 31440, Note_on_c, 0, 55, 80
2, 31536, Note_off_c, 0, 55, 64
2, 31560, Note_on_c, 0, 55, 80
2, 31560, Note_on_c, 0, 43, 80
2, 31560, Note_on_c, 0, 67, 80
2, 31656, Note_off_c, 0, 67, 64
2, 31656, Note_off_c, 0, 43, 64
2, 31656, Note_off_c, 0, 55, 64
2, 31680, Note_on_c, 0, 42, 80
2, 31680, Note_on_c, 0, 54, 80
2, 31680, Note_on_c, 0, 66, 80
2, 31776, Note_off_c, 0, 66, 64
2, 31776, Note_off_c, 0, 54, 64
2, 31776, Note_off_c, 0, 42, 64
2, 31800, Note_on_c, 0, 40, 80
2, 31800, Note_on_c, 0, 52, 80
2, 31800, Note_on_c, 0, 64, 80
2, 31896, Note_off_c, 0, 64, 64
2, 31896, Note_off_c, 0, 52, 64
2, 31896, Note_off_c, 0, 40, 64
2, 31920, Note_on_c, 0, 38, 80
2, 31920, Note_on_c, 0, 50, 80
2, 31920, Note_on_c, 0, 62, 80
2, 32016, Note_off_c, 0, 62, 64
2, 32016, Note_off_c, 0, 50, 64
2, 32016, Note_off_c, 0, 38, 64
2, 32040, Note_on_c, 0, 36, 80
2, 32040, Note_on_c, 0, 48, 80
2, 32040, Note_on_c, 0, 60, 80
2, 32136, Note_off_c, 0, 60, 64
2, 32136, Note_off_c, 0, 48, 64
2, 32136, Note_off_c, 0, 36, 64
2, 32160, Note_on_c, 0, 47, 80
2, 32160, Note_on_c, 0, 59, 80
2, 32160, Note_on_c, 0, 35, 80
2, 32352, Note_off_c, 0, 35, 64
2, 32352, Note_off_c, 0, 59, 64
2, 32352, Note_off_c, 0, 47, 64
2, 32520, Note_on_c, 0, 64, 80
2, 32520, Note_on_c, 0, 52, 80
2, 32552, Note_off_c, 0, 52, 64
2, 32552, Note_off_c, 0, 64, 64
2, 32560, Note_on_c, 0, 54, 80
2, 32560, Note_on_c, 0, 66, 80
2, 32592, Note_off_c, 0, 66, 64
2, 32592, Note_off_c, 0, 54, 64
2, 32600, Note_on_c, 0, 64, 80
2, 32600, Note_on_c, 0, 52, 80
2, 32632, Note_off_c, 0, 52, 64
2, 32632, Note_off_c, 0, 64, 64
2, 32640, Note_on_c, 0, 62, 80
2, 32640, Note_on_c, 0, 50, 80
2, 32736, Note_off_c, 0, 50, 64
2, 32736, Note_off_c, 0, 62, 64
2, 32760, Note_on_c, 0, 48, 80
2, 32760, Note_on_c, 0, 60, 80
2, 32792, Note_off_c, 0, 60, 64
2, 32792, Note_off_c, 0, 48, 64
2, 32800, Note_on_c, 0, 50, 80
2, 32800, Note_on_c, 0, 62, 80
2, 32832, Note_off_c, 0, 62, 64
2, 32832, Note_off_c, 0, 50, 64
2, 32840, Note_on_c, 0, 48, 80
2, 32840, Note_on_c, 0, 60, 80
2, 32872, Note_off_c, 0, 60, 64
2, 32872, Note_off_c, 0, 48, 64
2, 32880, Note_on_c, 0, 59, 80
2, 32880, Note_on_c, 0, 47, 80
2, 32976, Note_off_c, 0, 47, 64
2, 32976, Note_off_c, 0, 59, 64
2, 33000, Note_on_c, 0, 45, 80
2, 33000, Note_on_c, 0, 57, 80
2, 33032, Note_off_c, 0, 57, 64
2, 33032, Note_off_c, 0, 45, 64
2, 33040, Note_on_c, 0, 47, 80
2, 33040, Note_on_c, 0, 59, 80
2, 33072, Note_off_c, 0, 59, 64
2, 33072, Note_off_c, 0, 47, 64
2, 33080, Note_on_c, 0, 57, 80
2, 33080, Note_on_c, 0, 45, 80
2, 33112, Note_off_c, 0, 45, 64
2, 33112, Note_off_c, 0, 57, 64
2, 33120, Note_on_c, 0, 43, 80
2, 33120, Note_on_c, 0, 55, 80
2, 33312, Note_off_c, 0, 55, 64
2, 33312, Note_off_c, 0, 43, 64
2, 33480, Note_on_c, 0, 62, 80
2, 33576, Note_off_c, 0, 62, 64
2, 33600, Note_on_c, 0, 59, 80
2, 33600, Note_on_c, 0, 55, 80
2, 33600, Note_on_c, 0, 67, 80
2, 33648, Note_off_c, 0, 67, 64
2, 33660, Note_on_c, 0, 66, 80
2, 33708, Note_off_c, 0, 66, 64
2, 33720, Note_on_c, 0, 69, 80
2, 33768, Note_off_c, 0, 69, 64
2, 33780, Note_on_c, 0, 67, 80
2, 33792, Note_off_c, 0, 55, 64
2, 33792, Note_off_c, 0, 59, 64
2, 33828, Note_off_c, 0, 67, 64
2, 33840, Note_on_c, 0, 71, 80
2, 33888, Note_off_c, 0, 71, 64
2, 33900, Note_on_c, 0, 69, 80
2, 33948, Note_off_c, 0, 69, 64
2, 33960, Note_on_c, 0, 72, 80
2, 34008, Note_off_c, 0, 72, 64
2, 34020, Note_on_c, 0, 71, 80
2, 34068, Note_off_c, 0, 71, 64
2, 34080, Note_on_c, 0, 74, 80
2, 34176, Note_off_c, 0, 74, 64
2, 34200, Note_on_c, 0, 71, 80
2, 34200, Note_on_c, 0, 67, 80
2, 34200, Note_on_c, 0, 74, 80
2, 34296, Note_off_c, 0, 74, 64
2, 34296, Note_off_c, 0, 67, 64
2, 34296, Note_off_c, 0, 71, 64
2, 34320, Note_on_c, 0, 69, 80
2, 34320, Note_on_c, 0, 66, 80
2, 34320, Note_on_c, 0, 74, 80
2, 34416, Note_off_c, 0, 74, 64
2, 34416, Note_off_c, 0, 66, 64
2, 34416, Note_off_c, 0, 69, 64
2, 34440, Note_on_c, 0, 69, 80
2, 34440, Note_on_c, 0, 72, 80
2, 34440, Note_on_c, 0, 74, 80
2, 34536, Note_off_c, 0, 74, 64
2, 34536, Note_off_c, 0, 72, 64
2, 34536, Note_off_c, 0, 69, 64
2, 34560, Note_on_c, 0, 71, 80
2, 34560, Note_on_c, 0, 67, 80
2, 34560, Note_on_c, 0, 74, 80
2, 34656, Note_off_c, 0, 74, 64
2, 34680, Note_on_c, 0, 76, 80
2, 34728, Note_off_c, 0, 76, 64
2, 34740, Note_on_c, 0, 78, 80
2, 34752, Note_off_c, 0, 67, 64
2, 34752, Note_off_c, 0, 71, 64
2, 34788, Note_off_c, 0, 78, 64
2, 34800, Note_on_c, 0, 81, 80
2, 34848, Note_off_c, 0, 81, 64
2, 34860, Note_on_c, 0, 79, 80
2, 34908, Note_off_c, 0, 79, 64
2, 34920, Note_on_c, 0, 78, 80
2, 34968, Note_off_c, 0, 78, 64
2, 34980, Note_on_c, 0, 76, 80
2, 35028, Note_off_c, 0, 76, 64
2, 35040, Note_on_c, 0, 74, 80
2, 35136, Note_off_c, 0, 74, 64
2, 35160, Note_on_c, 0, 71, 80
2, 35160, Note_on_c, 0, 67, 80
2, 35160, Note_on_c, 0, 74, 80
2, 35256, Note_off_c, 0, 74, 64
2, 35256, Note_off_c, 0, 67, 64
2, 35256, Note_off_c, 0, 71, 64
2, 35280, Note_on_c, 0, 69, 80
2, 35280, Note_on_c, 0, 66, 80
2, 35280, Note_on_c, 0, 74, 80
2, 35376, Note_off_c, 0, 74, 64
2, 35376, Note_off_c, 0, 66, 64
2, 35376, Note_off_c, 0, 69, 64
2, 35400, Note_on_c, 0, 69, 80
2, 35400, Note_on_c, 0, 72, 80
2, 35400, Note_on_c, 0, 74, 80
2, 35496, Note_off_c, 0, 74, 64
2, 35496, Note_off_c, 0, 72, 64
2, 35496, Note_off_c, 0, 69, 64
2, 35520, Note_on_c, 0, 71, 80
2, 35520, Note_on_c, 0, 67, 80
2, 35520, Note_on_c, 0, 74, 80
2, 35616, Note_off_c, 0, 74, 64
2, 35640, Note_on_c, 0, 79, 80
2, 35736, Note_off_c, 0, 79, 64
2, 35760, Note_on_c, 0, 77, 80
2, 35856, Note_off_c, 0, 77, 64
2, 35880, Note_on_c, 0, 74, 80
2, 35976, Note_off_c, 0, 74, 64
2, 36000, Note_on_c, 0, 75, 80
2, 36096, Note_off_c, 0, 67, 64
2, 36096, Note_off_c, 0, 71, 64
2, 36120, Note_on_c, 0, 67, 80
2, 36120, Note_on_c, 0, 72, 80
2, 36192, Note_off_c, 0, 75, 64
2, 36216, Note_off_c, 0, 72, 64
2, 36216, Note_off_c, 0, 67, 64
2, 36240, Note_on_c, 0, 72, 80
2, 36240, Note_on_c, 0, 67, 80
2, 36240, Note_on_c, 0, 76, 80
2, 36336, Note_off_c, 0, 67, 64
2, 36336, Note_off_c, 0, 72, 64
2, 36360, Note_on_c, 0, 67, 80
2, 36360, Note_on_c, 0, 72, 80
2, 36456, Note_off_c, 0, 72, 64
2, 36456, Note_off_c, 0, 67, 64
2, 36480, Note_on_c, 0, 72, 80
2, 36480, Note_on_c, 0, 67, 80
2, 36576, Note_off_c, 0, 76, 64
2, 36600, Note_on_c, 0, 79, 80
2, 36672, Note_off_c, 0, 67, 64
2, 36672, Note_off_c, 0, 72, 64
2, 36696, Note_off_c, 0, 79, 64
2, 36720, Note_on_c, 0, 76, 80
2, 36816, Note_off_c, 0, 76, 64
2, 36840, Note_on_c, 0, 72, 80
2, 36936, Note_off_c, 0, 72, 64
2, 36960, Note_on_c, 0, 73, 80
2, 37080, Note_on_c, 0, 67, 80
2, 37080, Note_on_c, 0, 71, 80
2, 37152, Note_off_c, 0, 73, 64
2, 37176, Note_off_c, 0, 71, 64
2, 37176, Note_off_c, 0, 67, 64
2, 37200, Note_on_c, 0, 71, 80
2, 37200, Note_on_c, 0, 67, 80
2, 37200, Note_on_c, 0, 74, 80
2, 37296, Note_off_c, 0, 67, 64
2, 37296, Note_off_c, 0, 71, 64
2, 37320, Note_on_c, 0, 67, 80
2, 37320, Note_on_c, 0, 71, 80
2, 37392, Note_off_c, 0, 74, 64
2, 37416, Note_off_c, 0, 71, 64
2, 37416, Note_off_c, 0, 67, 64
2, 37440, Note_on_c, 0, 71, 80
2, 37440, Note_on_c, 0, 67, 80
2, 37440, Note_on_c, 0, 74, 80
2, 37536, Note_off_c, 0, 74, 64
2, 37560, Note_on_c, 0, 83, 80
2, 37632, Note_off_c, 0, 67, 64
2, 37632, Note_off_c, 0, 71, 64
2, 37656, Note_off_c, 0, 83, 64
2, 37680, Note_on_c, 0, 81, 80
2, 37704, Note_off_c, 0, 81, 64
2, 37710, Note_on_c, 0, 79, 80
2, 37782, Note_off_c, 0, 79, 64
2, 37800, Note_on_c, 0, 78, 80
2, 37824, Note_off_c, 0, 78, 64
2, 37830, Note_on_c, 0, 76, 80
2, 37902, Note_off_c, 0, 76, 64
2, 37920, Note_on_c, 0, 74, 80
2, 38040, Note_on_c, 0, 69, 80
2, 38112, Note_off_c, 0, 74, 64
2, 38136, Note_off_c, 0, 69, 64
2, 38160, Note_on_c, 0, 72, 80
2, 38160, Note_on_c, 0, 66, 80
2, 38256, Note_off_c, 0, 66, 64
2, 38256, Note_off_c, 0, 72, 64
2, 38280, Note_on_c, 0, 67, 80
2, 38280, Note_on_c, 0, 71, 80
2, 38376, Note_off_c, 0, 71, 64
2, 38376, Note_off_c, 0, 67, 64
2, 38400, Note_on_c, 0, 60, 80
2, 38400, Note_on_c, 0, 69, 80
2, 38448, Note_off_c, 0, 69, 64
2, 38460, Note_on_c, 0, 67, 80
2, 38508, Note_off_c, 0, 67, 64
2, 38520, Note_on_c, 0, 75, 80
2, 38568, Note_off_c, 0, 75, 64
2, 38580, Note_on_c, 0, 76, 80
2, 38628, Note_off_c, 0, 76, 64
2, 38640, Note_on_c, 0, 74, 80
2, 38688, Note_off_c, 0, 74, 64
2, 38688, Note_off_c, 0, 60, 64
2, 38700, Note_on_c, 0, 72, 80
2, 38748, Note_off_c, 0, 72, 64
2, 38760, Note_on_c, 0, 61, 80
2, 38760, Note_on_c, 0, 71, 80
2, 38808, Note_off_c, 0, 71, 64
2, 38820, Note_on_c, 0, 69, 80
2, 38856, Note_off_c, 0, 61, 64
2, 38868, Note_off_c, 0, 69, 64
2, 38880, Note_on_c, 0, 62, 80
2, 38880, Note_on_c, 0, 67, 80
2, 38976, Note_off_c, 0, 62, 64
2, 39000, Note_on_c, 0, 57, 80
2, 39072, Note_off_c, 0, 67, 64
2, 39096, Note_off_c, 0, 57, 64
2, 39120, Note_on_c, 0, 66, 80
2, 39120, Note_on_c, 0, 50, 80
2, 39168, Note_off_c, 0, 66, 64
2, 39216, Note_off_c, 0, 50, 64
2, 39240, Note_on_c, 0, 69, 80
2, 39336, Note_off_c, 0, 69, 64
2, 39360, Note_on_c, 0, 74, 80
2, 39360, Note_on_c, 0, 50, 80
2, 39408, Note_off_c, 0, 50, 64
2, 39420, Note_on_c, 0, 57, 80
2, 39468, Note_off_c, 0, 57, 64
2, 39480, Note_on_c, 0, 54, 80
2, 39528, Note_off_c, 0, 54, 64
2, 39540, Note_on_c, 0, 57, 80
2, 39552, Note_off_c, 0, 74, 64
2, 39588, Note_off_c, 0, 57, 64
2, 39600, Note_on_c, 0, 79, 80
2, 39600, Note_on_c, 0, 50, 80
2, 39648, Note_off_c, 0, 50, 64
2, 39648, Note_off_c, 0, 79, 64
2, 39660, Note_on_c, 0, 78, 80
2, 39660, Note_on_c, 0, 57, 80
2, 39708, Note_off_c, 0, 57, 64
2, 39708, Note_off_c, 0, 78, 64
2, 39720, Note_on_c, 0, 76, 80
2, 39720, Note_on_c, 0, 54, 80
2, 39768, Note_off_c, 0, 54, 64
2, 39768, Note_off_c, 0, 76, 64
2, 39780, Note_on_c, 0, 57, 80
2, 39780, Note_on_c, 0, 74, 80
2, 39828, Note_off_c, 0, 74, 64
2, 39828, Note_off_c, 0, 57, 64
2, 39840, Note_on_c, 0, 74, 80
2, 39840, Note_on_c, 0, 52, 80
2, 39888, Note_off_c, 0, 52, 64
2, 39900, Note_on_c, 0, 57, 80
2, 39936, Note_off_c, 0, 74, 64
2, 39948, Note_off_c, 0, 57, 64
2, 39960, Note_on_c, 0, 73, 80
2, 39960, Note_on_c, 0, 55, 80
2, 40008, Note_off_c, 0, 55, 64
2, 40020, Note_on_c, 0, 57, 80
2, 40056, Note_off_c, 0, 73, 64
2, 40068, Note_off_c, 0, 57, 64
2, 40080, Note_on_c, 0, 52, 80
2, 40128, Note_off_c, 0, 52, 64
2, 40140, Note_on_c, 0, 57, 80
2, 40188, Note_off_c, 0, 57, 64
2, 40200, Note_on_c, 0, 55, 80
2, 40200, Note_on_c, 0, 69, 80
2, 40248, Note_off_c, 0, 55, 64
2, 40260, Note_on_c, 0, 57, 80
2, 40296, Note_off_c, 0, 69, 64
2, 40308, Note_off_c, 0, 57, 64
2, 40320, Note_on_c, 0, 76, 80
2, 40320, Note_on_c, 0, 49, 80
2, 40368, Note_off_c, 0, 49, 64
2, 40380, Note_on_c, 0, 57, 80
2, 40428, Note_off_c, 0, 57, 64
2, 40440, Note_on_c, 0, 52, 80
2, 40488, Note_off_c, 0, 52, 64
2, 40500, Note_on_c, 0, 57, 80
2, 40512, Note_off_c, 0, 76, 64
2, 40548, Note_off_c, 0, 57, 64
2, 40560, Note_on_c, 0, 81, 80
2, 40560, Note_on_c, 0, 49, 80
2, 40608, Note_off_c, 0, 49, 64
2, 40608, Note_off_c, 0, 81, 64
2, 40620, Note_on_c, 0, 79, 80
2, 40620, Note_on_c, 0, 57, 80
2, 40668, Note_off_c, 0, 57, 64
2, 40668, Note_off_c, 0, 79, 64
2, 40680, Note_on_c, 0, 78, 80
2, 40680, Note_on_c, 0, 52, 80
2, 40728, Note_off_c, 0, 52, 64
2, 40728, Note_off_c, 0, 78, 64
2, 40740, Note_on_c, 0, 57, 80
2, 40740, Note_on_c, 0, 76, 80
2, 40788, Note_off_c, 0, 76, 64
2, 40788, Note_off_c, 0, 57, 64
2, 40800, Note_on_c, 0, 76, 80
2, 40800, Note_on_c, 0, 50, 80
2, 40848, Note_off_c, 0, 50, 64
2, 40860, Note_on_c, 0, 57, 80
2, 40896, Note_off_c, 0, 76, 64
2, 40908, Note_off_c, 0, 57, 64
2, 40920, Note_on_c, 0, 78, 80
2, 40920, Note_on_c, 0, 54, 80
2, 40968, Note_off_c, 0, 54, 64
2, 40980, Note_on_c, 0, 57, 80
2, 41016, Note_off_c, 0, 78, 64
2, 41028, Note_off_c, 0, 57, 64
2, 41040, Note_on_c, 0, 50, 80
2, 41088, Note_off_c, 0, 50, 64
2, 41100, Note_on_c, 0, 57, 80
2, 41148, Note_off_c, 0, 57, 64
2, 41160, Note_on_c, 0, 54, 80
2, 41160, Note_on_c, 0, 69, 80
2, 41208, Note_off_c, 0, 54, 64
2, 41220, Note_on_c, 0, 57, 80
2, 41256, Note_off_c, 0, 69, 64
2, 41268, Note_off_c, 0, 57, 64
2, 41280, Note_on_c, 0, 69, 80
2, 41280, Note_on_c, 0, 54, 80
2, 41328, Note_off_c, 0, 69, 64
2, 41340, Note_on_c, 0, 81, 80
2, 41388, Note_off_c, 0, 81, 64
2, 41400, Note_on_c, 0, 79, 80
2, 41448, Note_off_c, 0, 79, 64
2, 41460, Note_on_c, 0, 78, 80
2, 41472, Note_off_c, 0, 54, 64
2, 41508, Note_off_c, 0, 78, 64
2, 41520, Note_on_c, 0, 76, 80
2, 41568, Note_off_c, 0, 76, 64
2, 41580, Note_on_c, 0, 74, 80
2, 41628, Note_off_c, 0, 74, 64
2, 41640, Note_on_c, 0, 73, 80
2, 41688, Note_off_c, 0, 73, 64
2, 41700, Note_on_c, 0, 74, 80
2, 41748, Note_off_c, 0, 74, 64
2, 41760, Note_on_c, 0, 55, 80
2, 41760, Note_on_c, 0, 71, 80
2, 41784, Note_off_c, 0, 71, 64
2, 41808, Note_off_c, 0, 55, 64
2, 41820, Note_on_c, 0, 67, 80
2, 41868, Note_off_c, 0, 67, 64
2, 41880, Note_on_c, 0, 54, 80
2, 41880, Note_on_c, 0, 75, 80
2, 41904, Note_off_c, 0, 75, 64
2, 41928, Note_off_c, 0, 54, 64
2, 41940, Note_on_c, 0, 66, 80
2, 41988, Note_off_c, 0, 66, 64
2, 42000, Note_on_c, 0, 52, 80
2, 42000, Note_on_c, 0, 76, 80
2, 42024, Note_off_c, 0, 76, 64
2, 42048, Note_off_c, 0, 52, 64
2, 42060, Note_on_c, 0, 64, 80
2, 42108, Note_off_c, 0, 64, 64
2, 42120, Note_on_c, 0, 51, 80
2, 42120, Note_on_c, 0, 78, 80
2, 42144, Note_off_c, 0, 78, 64
2, 42168, Note_off_c, 0, 51, 64
2, 42180, Note_on_c, 0, 63, 80
2, 42228, Note_off_c, 0, 63, 64
2, 42240, Note_on_c, 0, 52, 80
2, 42300, Note_on_c, 0, 79, 80
2, 42348, Note_off_c, 0, 79, 64
2, 42360, Note_on_c, 0, 78, 80
2, 42408, Note_off_c, 0, 78, 64
2, 42420, Note_on_c, 0, 76, 80
2, 42432, Note_off_c, 0, 52, 64
2, 42468, Note_off_c, 0, 76, 64
2, 42480, Note_on_c, 0, 74, 80
2, 42528, Note_off_c, 0, 74, 64
2, 42540, Note_on_c, 0, 73, 80
2, 42588, Note_off_c, 0, 73, 64
2, 42600, Note_on_c, 0, 71, 80
2, 42648, Note_off_c, 0, 71, 64
2, 42660, Note_on_c, 0, 73, 80
2, 42708, Note_off_c, 0, 73, 64
2, 42720, Note_on_c, 0, 54, 80
2, 42720, Note_on_c, 0, 69, 80
2, 42744, Note_off_c, 0, 69, 64
2, 42768, Note_off_c, 0, 54, 64
2, 42780, Note_on_c, 0, 66, 80
2, 42828, Note_off_c, 0, 66, 64
2, 42840, Note_on_c, 0, 52, 80
2, 42840, Note_on_c, 0, 73, 80
2, 42864, Note_off_c, 0, 73, 64
2, 42888, Note_off_c, 0, 52, 64
2, 42900, Note_on_c, 0, 64, 80
2, 42948, Note_off_c, 0, 64, 64
2, 42960, Note_on_c, 0, 50, 80
2, 42960, Note_on_c, 0, 74, 80
2, 42984, Note_off_c, 0, 74, 64
2, 43008, Note_off_c, 0, 50, 64
2, 43020, Note_on_c, 0, 62, 80
2, 43068, Note_off_c, 0, 62, 64
2, 43080, Note_on_c, 0, 49, 80
2, 43080, Note_on_c, 0, 76, 80
2, 43104, Note_off_c, 0, 76, 64
2, 43128, Note_off_c, 0, 49, 64
2, 43140, Note_on_c, 0, 61, 80
2, 43188, Note_off_c, 0, 61, 64
2, 43200, Note_on_c, 0, 50, 80
2, 43260, Note_on_c, 0, 78, 80
2, 43308, Note_off_c, 0, 78, 64
2, 43320, Note_on_c, 0, 76, 80
2, 43368, Note_off_c, 0, 76, 64
2, 43380, Note_on_c, 0, 74, 80
2, 43392, Note_off_c, 0, 50, 64
2, 43428, Note_off_c, 0, 74, 64
2, 43440, Note_on_c, 0, 73, 80
2, 43488, Note_off_c, 0, 73, 64
2, 43500, Note_on_c, 0, 71, 80
2, 43548, Note_off_c, 0, 71, 64
2, 43560, Note_on_c, 0, 69, 80
2, 43608, Note_off_c, 0, 69, 64
2, 43620, Note_on_c, 0, 71, 80
2, 43668, Note_off_c, 0, 71, 64
2, 43680, Note_on_c, 0, 52, 80
2, 43680, Note_on_c, 0, 67, 80
2, 43704, Note_off_c, 0, 67, 64
2, 43728, Note_off_c, 0, 52, 64
2, 43740, Note_on_c, 0, 64, 80
2, 43788, Note_off_c, 0, 64, 64
2, 43800, Note_on_c, 0, 50, 80
2, 43800, Note_on_c, 0, 71, 80
2, 43824, Note_off_c, 0, 71, 64
2, 43848, Note_off_c, 0, 50, 64
2, 43860, Note_on_c, 0, 62, 80
2, 43908, Note_off_c, 0, 62, 64
2, 43920, Note_on_c, 0, 49, 80
2, 43920, Note_on_c, 0, 73, 80
2, 43944, Note_off_c, 0, 73, 64
2, 43968, Note_off_c, 0, 49, 64
2, 43980, Note_on_c, 0, 61, 80
2, 44028, Note_off_c, 0, 61, 64
2, 44040, Note_on_c, 0, 47, 80
2, 44040, Note_on_c, 0, 74, 80
2, 44064, Note_off_c, 0, 74, 64
2, 44088, Note_off_c, 0, 47, 64
2, 44100, Note_on_c, 0, 59, 80
2, 44148, Note_off_c, 0, 59, 64
2, 44160, Note_on_c, 0, 45, 80
2, 44220, Note_on_c, 0, 76, 80
2, 44268, Note_off_c, 0, 76, 64
2, 44280, Note_on_c, 0, 74, 80
2, 44328, Note_off_c, 0, 74, 64
2, 44340, Note_on_c, 0, 73, 80
2, 44352, Note_off_c, 0, 45, 64
2, 44388, Note_off_c, 0, 73, 64
2, 44400, Note_on_c, 0, 71, 80
2, 44448, Note_off_c, 0, 71, 64
2, 44460, Note_on_c, 0, 69, 80
2, 44508, Note_off_c, 0, 69, 64
2, 44520, Note_on_c, 0, 49, 80
2, 44520, Note_on_c, 0, 71, 80
2, 44568, Note_off_c, 0, 71, 64
2, 44580, Note_on_c, 0, 67, 80
2, 44616, Note_off_c, 0, 49, 64
2, 44628, Note_off_c, 0, 67, 64
2, 44640, Note_on_c, 0, 66, 80
2, 44640, Note_on_c, 0, 50, 80
2, 44688, Note_off_c, 0, 50, 64
2, 44700, Note_on_c, 0, 57, 80
2, 44736, Note_off_c, 0, 66, 64
2, 44748, Note_off_c, 0, 57, 64
2, 44760, Note_on_c, 0, 54, 80
2, 44760, Note_on_c, 0, 74, 80
2, 44808, Note_off_c, 0, 54, 64
2, 44820, Note_on_c, 0, 57, 80
2, 44856, Note_off_c, 0, 74, 64
2, 44868, Note_off_c, 0, 57, 64
2, 44880, Note_on_c, 0, 73, 80
2, 44880, Note_on_c, 0, 52, 80
2, 44928, Note_off_c, 0, 52, 64
2, 44940, Note_on_c, 0, 57, 80
2, 44976, Note_off_c, 0, 73, 64
2, 44988, Note_off_c, 0, 57, 64
2, 45000, Note_on_c, 0, 81, 80
2, 45000, Note_on_c, 0, 55, 80
2, 45048, Note_off_c, 0, 55, 64
2, 45060, Note_on_c, 0, 57, 80
2, 45096, Note_off_c, 0, 81, 64
2, 45108, Note_off_c, 0, 57, 64
2, 45120, Note_on_c, 0, 78, 80
2, 45120, Note_on_c, 0, 50, 80
2, 45168, Note_off_c, 0, 50, 64
2, 45180, Note_on_c, 0, 57, 80
2, 45216, Note_off_c, 0, 78, 64
2, 45228, Note_off_c, 0, 57, 64
2, 45240, Note_on_c, 0, 54, 80
2, 45240, Note_on_c, 0, 74, 80
2, 45288, Note_off_c, 0, 54, 64
2, 45300, Note_on_c, 0, 57, 80
2, 45336, Note_off_c, 0, 74, 64
2, 45348, Note_off_c, 0, 57, 64
2, 45360, Note_on_c, 0, 73, 80
2, 45360, Note_on_c, 0, 52, 80
2, 45408, Note_off_c, 0, 52, 64
2, 45420, Note_on_c, 0, 57, 80
2, 45456, Note_off_c, 0, 73, 64
2, 45468, Note_off_c, 0, 57, 64
2, 45480, Note_on_c, 0, 67, 80
2, 45480, Note_on_c, 0, 55, 80
2, 45528, Note_off_c, 0, 55, 64
2, 45540, Note_on_c, 0, 57, 80
2, 45576, Note_off_c, 0, 67, 64
2, 45588, Note_off_c, 0, 57, 64
2, 45600, Note_on_c, 0, 66, 80
2, 45600, Note_on_c, 0, 50, 80
2, 45648, Note_off_c, 0, 50, 64
2, 45660, Note_on_c, 0, 57, 80
2, 45696, Note_off_c, 0, 66, 64
2, 45708, Note_off_c, 0, 57, 64
2, 45720, Note_on_c, 0, 54, 80
2, 45720, Note_on_c, 0, 74, 80
2, 45768, Note_off_c, 0, 54, 64
2, 45780, Note_on_c, 0, 57, 80
2, 45816, Note_off_c, 0, 74, 64
2, 45828, Note_off_c, 0, 57, 64
2, 45840, Note_on_c, 0, 73, 80
2, 45840, Note_on_c, 0, 52, 80
2, 45864, Note_off_c, 0, 73, 64
2, 45888, Note_off_c, 0, 52, 64
2, 45900, Note_on_c, 0, 57, 80
2, 45948, Note_off_c, 0, 57, 64
2, 45960, Note_on_c, 0, 55, 80
2, 45960, Note_on_c, 0, 81, 80
2, 45984, Note_off_c, 0, 81, 64
2, 46008, Note_off_c, 0, 55, 64
2, 46020, Note_on_c, 0, 57, 80
2, 46068, Note_off_c, 0, 57, 64
2, 46080, Note_on_c, 0, 78, 80
2, 46080, Note_on_c, 0, 50, 80
2, 46104, Note_off_c, 0, 78, 64
2, 46128, Note_off_c, 0, 50, 64
2, 46140, Note_on_c, 0, 57, 80
2, 46188, Note_off_c, 0, 57, 64
2, 46200, Note_on_c, 0, 54, 80
2, 46200, Note_on_c, 0, 74, 80
2, 46224, Note_off_c, 0, 74, 64
2, 46248, Note_off_c, 0, 54, 64
2, 46260, Note_on_c, 0, 57, 80
2, 46308, Note_off_c, 0, 57, 64
2, 46320, Note_on_c, 0, 73, 80
2, 46320, Note_on_c, 0, 52, 80
2, 46344, Note_off_c, 0, 73, 64
2, 46368, Note_off_c, 0, 52, 64
2, 46380, Note_on_c, 0, 57, 80
2, 46428, Note_off_c, 0, 57, 64
2, 46440, Note_on_c, 0, 67, 80
2, 46440, Note_on_c, 0, 55, 80
2, 46464, Note_off_c, 0, 67, 64
2, 46488, Note_off_c, 0, 55, 64
2, 46500, Note_on_c, 0, 57, 80
2, 46548, Note_off_c, 0, 57, 64
2, 46560, Note_on_c, 0, 66, 80
2, 46560, Note_on_c, 0, 50, 80
2, 46608, Note_off_c, 0, 50, 64
2, 46620, Note_on_c, 0, 57, 80
2, 46656, Note_off_c, 0, 66, 64
2, 46668, Note_off_c, 0, 57, 64
2, 46680, Note_on_c, 0, 74, 80
2, 46680, Note_on_c, 0, 54, 80
2, 46728, Note_off_c, 0, 54, 64
2, 46740, Note_on_c, 0, 57, 80
2, 46776, Note_off_c, 0, 74, 64
2, 46788, Note_off_c, 0, 57, 64
2, 46800, Note_on_c, 0, 72, 80
2, 46800, Note_on_c, 0, 54, 80
2, 46848, Note_off_c, 0, 54, 64
2, 46860, Note_on_c, 0, 62, 80
2, 46896, Note_off_c, 0, 72, 64
2, 46908, Note_off_c, 0, 62, 64
2, 46920, Note_on_c, 0, 57, 80
2, 46920, Note_on_c, 0, 69, 80
2, 46968, Note_off_c, 0, 57, 64
2, 46980, Note_on_c, 0, 62, 80
2, 47016, Note_off_c, 0, 69, 64
2, 47028, Note_off_c, 0, 62, 64
2, 47040, Note_on_c, 0, 70, 80
2, 47040, Note_on_c, 0, 50, 80
2, 47088, Note_off_c, 0, 50, 64
2, 47100, Note_on_c, 0, 57, 80
2, 47148, Note_off_c, 0, 57, 64
2, 47160, Note_on_c, 0, 54, 80
2, 47208, Note_off_c, 0, 54, 64
2, 47220, Note_on_c, 0, 57, 80
2, 47232, Note_off_c, 0, 70, 64
2, 47268, Note_off_c, 0, 57, 64
2, 47280, Note_on_c, 0, 55, 80
2, 47280, Note_on_c, 0, 71, 80
2, 47376, Note_off_c, 0, 71, 64
2, 47376, Note_off_c, 0, 55, 64
2, 47400, Note_on_c, 0, 83, 80
2, 47448, Note_off_c, 0, 83, 64
2, 47460, Note_on_c, 0, 79, 80
2, 47508, Note_off_c, 0, 79, 64
2, 47520, Note_on_c, 0, 81, 80
2, 47568, Note_off_c, 0, 81, 64
2, 47580, Note_on_c, 0, 78, 80
2, 47628, Note_off_c, 0, 78, 64
2, 47640, Note_on_c, 0, 79, 80
2, 47688, Note_off_c, 0, 79, 64
2, 47700, Note_on_c, 0, 76, 80
2, 47748, Note_off_c, 0, 76, 64
2, 47760, Note_on_c, 0, 78, 80
2, 47808, Note_off_c, 0, 78, 64
2, 47820, Note_on_c, 0, 74, 80
2, 47868, Note_off_c, 0, 74, 64
2, 47880, Note_on_c, 0, 76, 80
2, 47880, Note_on_c, 0, 57, 80
2, 47928, Note_off_c, 0, 76, 64
2, 47940, Note_on_c, 0, 73, 80
2, 47976, Note_off_c, 0, 57, 64
2, 47988, Note_off_c, 0, 73, 64
2, 48000, Note_on_c, 0, 59, 80
2, 48000, Note_on_c, 0, 74, 80
2, 48024, Note_off_c, 0, 74, 64
2, 48048, Note_off_c, 0, 59, 64
2, 48060, Note_on_c, 0, 68, 80
2, 48108, Note_off_c, 0, 68, 64
2, 48120, Note_on_c, 0, 62, 80
2, 48120, Note_on_c, 0, 86, 80
2, 48144, Note_off_c, 0, 86, 64
2, 48168, Note_off_c, 0, 62, 64
2, 48180, Note_on_c, 0, 68, 80
2, 48228, Note_off_c, 0, 68, 64
2, 48240, Note_on_c, 0, 59, 80
2, 48240, Note_on_c, 0, 86, 80
2, 48264, Note_off_c, 0, 86, 64
2, 48288, Note_off_c, 0, 59, 64
2, 48300, Note_on_c, 0, 68, 80
2, 48348, Note_off_c, 0, 68, 64
2, 48360, Note_on_c, 0, 62, 80
2, 48360, Note_on_c, 0, 88, 80
2, 48384, Note_off_c, 0, 88, 64
2, 48390, Note_on_c, 0, 86, 80
2, 48408, Note_off_c, 0, 62, 64
2, 48414, Note_off_c, 0, 86, 64
2, 48420, Note_on_c, 0, 85, 80
2, 48420, Note_on_c, 0, 68, 80
2, 48444, Note_off_c, 0, 85, 64
2, 48450, Note_on_c, 0, 86, 80
2, 48468, Note_off_c, 0, 68, 64
2, 48474, Note_off_c, 0, 86, 64
2, 48480, Note_on_c, 0, 85, 80
2, 48480, Note_on_c, 0, 57, 80
2, 48528, Note_off_c, 0, 57, 64
2, 48540, Note_on_c, 0, 69, 80
2, 48576, Note_off_c, 0, 85, 64
2, 48588, Note_off_c, 0, 69, 64
2, 48600, Note_on_c, 0, 61, 80
2, 48600, Note_on_c, 0, 79, 80
2, 48624, Note_off_c, 0, 79, 64
2, 48648, Note_off_c, 0, 61, 64
2, 48660, Note_on_c, 0, 69, 80
2, 48708, Note_off_c, 0, 69, 64
2, 48720, Note_on_c, 0, 57, 80
2, 48720, Note_on_c, 0, 79, 80
2, 48744, Note_off_c, 0, 79, 64
2, 48768, Note_off_c, 0, 57, 64
2, 48780, Note_on_c, 0, 69, 80
2, 48828, Note_off_c, 0, 69, 64
2, 48840, Note_on_c, 0, 61, 80
2, 48840, Note_on_c, 0, 81, 80
2, 48864, Note_off_c, 0, 81, 64
2, 48870, Note_on_c, 0, 79, 80
2, 48888, Note_off_c, 0, 61, 64
2, 48894, Note_off_c, 0, 79, 64
2, 48900, Note_on_c, 0, 78, 80
2, 48900, Note_on_c, 0, 69, 80
2, 48924, Note_off_c, 0, 78, 64
2, 48930, Note_on_c, 0, 79, 80
2, 48948, Note_off_c, 0, 69, 64
2, 48954, Note_off_c, 0, 79, 64
2, 48960, Note_on_c, 0, 78, 80
2, 48960, Note_on_c, 0, 62, 80
2, 49008, Note_off_c, 0, 62, 64
2, 49020, Note_on_c, 0, 69, 80
2, 49056, Note_off_c, 0, 78, 64
2, 49068, Note_off_c, 0, 69, 64
2, 49080, Note_on_c, 0, 66, 80
2, 49080, Note_on_c, 0, 72, 80
2, 49104, Note_off_c, 0, 72, 64
2, 49128, Note_off_c, 0, 66, 64
2, 49140, Note_on_c, 0, 69, 80
2, 49188, Note_off_c, 0, 69, 64
2, 49200, Note_on_c, 0, 62, 80
2, 49200, Note_on_c, 0, 72, 80
2, 49224, Note_off_c, 0, 72, 64
2, 49248, Note_off_c, 0, 62, 64
2, 49260, Note_on_c, 0, 69, 80
2, 49308, Note_off_c, 0, 69, 64
2, 49320, Note_on_c, 0, 66, 80
2, 49320, Note_on_c, 0, 74, 80
2, 49344, Note_off_c, 0, 74, 64
2, 49350, Note_on_c, 0, 72, 80
2, 49368, Note_off_c, 0, 66, 64
2, 49374, Note_off_c, 0, 72, 64
2, 49380, Note_on_c, 0, 71, 80
2, 49380, Note_on_c, 0, 69, 80
2, 49404, Note_off_c, 0, 71, 64
2, 49410, Note_on_c, 0, 72, 80
2, 49428, Note_off_c, 0, 69, 64
2, 49434, Note_off_c, 0, 72, 64
2, 49440, Note_on_c, 0, 67, 80
2, 49440, Note_on_c, 0, 71, 80
2, 49536, Note_off_c, 0, 71, 64
2, 49560, Note_on_c, 0, 82, 80
2, 49608, Note_off_c, 0, 82, 64
2, 49620, Note_on_c, 0, 83, 80
2, 49632, Note_off_c, 0, 67, 64
2, 49668, Note_off_c, 0, 83, 64
2, 49680, Note_on_c, 0, 81, 80
2, 49728, Note_off_c, 0, 81, 64
2, 49740, Note_on_c, 0, 79, 80
2, 49788, Note_off_c, 0, 79, 64
2, 49800, Note_on_c, 0, 78, 80
2, 49848, Note_off_c, 0, 78, 64
2, 49860, Note_on_c, 0, 76, 80
2, 49908, Note_off_c, 0, 76, 64
2, 49920, Note_on_c, 0, 74, 80
2, 50040, Note_on_c, 0, 54, 80
2, 50112, Note_off_c, 0, 74, 64
2, 50136, Note_off_c, 0, 54, 64
2, 50160, Note_on_c, 0, 76, 80
2, 50160, Note_on_c, 0, 55, 80
2, 50184, Note_off_c, 0, 76, 64
2, 50190, Note_on_c, 0, 78, 80
2, 50214, Note_off_c, 0, 78, 64
2, 50220, Note_on_c, 0, 76, 80
2, 50244, Note_off_c, 0, 76, 64
2, 50250, Note_on_c, 0, 78, 80
2, 50256, Note_off_c, 0, 55, 64
2, 50274, Note_off_c, 0, 78, 64
2, 50280, Note_on_c, 0, 76, 80
2, 50280, Note_on_c, 0, 57, 80
2, 50304, Note_off_c, 0, 76, 64
2, 50310, Note_on_c, 0, 78, 80
2, 50334, Note_off_c, 0, 78, 64
2, 50340, Note_on_c, 0, 76, 80
2, 50364, Note_off_c, 0, 76, 64
2, 50370, Note_on_c, 0, 78, 80
2, 50376, Note_off_c, 0, 57, 64
2, 50394, Note_off_c, 0, 78, 64
2, 50400, Note_on_c, 0, 59, 80
2, 50400, Note_on_c, 0, 74, 80
2, 50424, Note_off_c, 0, 74, 64
2, 50448, Note_off_c, 0, 59, 64
2, 50460, Note_on_c, 0, 68, 80
2, 50508, Note_off_c, 0, 68, 64
2, 50520, Note_on_c, 0, 62, 80
2, 50520, Note_on_c, 0, 86, 80
2, 50544, Note_off_c, 0, 86, 64
2, 50568, Note_off_c, 0, 62, 64
2, 50580, Note_on_c, 0, 68, 80
2, 50628, Note_off_c, 0, 68, 64
2, 50640, Note_on_c, 0, 59, 80
2, 50640, Note_on_c, 0, 86, 80
2, 50664, Note_off_c, 0, 86, 64
2, 50688, Note_off_c, 0, 59, 64
2, 50700, Note_on_c, 0, 68, 80
2, 50748, Note_off_c, 0, 68, 64
2, 50760, Note_on_c, 0, 62, 80
2, 50760, Note_on_c, 0, 88, 80
2, 50784, Note_off_c, 0, 88, 64
2, 50790, Note_on_c, 0, 86, 80
2, 50808, Note_off_c, 0, 62, 64
2, 50814, Note_off_c, 0, 86, 64
2, 50820, Note_on_c, 0, 68, 80
2, 50820, Note_on_c, 0, 85, 80
2, 50844, Note_off_c, 0, 85, 64
2, 50850, Note_on_c, 0, 86, 80
2, 50868, Note_off_c, 0, 68, 64
2, 50874, Note_off_c, 0, 86, 64
2, 50880, Note_on_c, 0, 57, 80
2, 50880, Note_on_c, 0, 85, 80
2, 50928, Note_off_c, 0, 57, 64
2, 50940, Note_on_c, 0, 69, 80
2, 50976, Note_off_c, 0, 85, 64
2, 50988, Note_off_c, 0, 69, 64
2, 51000, Note_on_c, 0, 61, 80
2, 51000, Note_on_c, 0, 79, 80
2, 51024, Note_off_c, 0, 79, 64
2, 51048, Note_off_c, 0, 61, 64
2, 51060, Note_on_c, 0, 69, 80
2, 51108, Note_off_c, 0, 69, 64
2, 51120, Note_on_c, 0, 57, 80
2, 51120, Note_on_c, 0, 79, 80
2, 51144, Note_off_c, 0, 79, 64
2, 51168, Note_off_c, 0, 57, 64
2, 51180, Note_on_c, 0, 69, 80
2, 51228, Note_off_c, 0, 69, 64
2, 51240, Note_on_c, 0, 61, 80
2, 51240, Note_on_c, 0, 81, 80
2, 51264, Note_off_c, 0, 81, 64
2, 51270, Note_on_c, 0, 79, 80
2, 51288, Note_off_c, 0, 61, 64
2, 51294, Note_off_c, 0, 79, 64
2, 51300, Note_on_c, 0, 69, 80
2, 51300, Note_on_c, 0, 78, 80
2, 51324, Note_off_c, 0, 78, 64
2, 51330, Note_on_c, 0, 79, 80
2, 51348, Note_off_c, 0, 69, 64
2, 51354, Note_off_c, 0, 79, 64
2, 51360, Note_on_c, 0, 62, 80
2, 51360, Note_on_c, 0, 78, 80
2, 51408, Note_off_c, 0, 62, 64
2, 51420, Note_on_c, 0, 69, 80
2, 51456, Note_off_c, 0, 78, 64
2, 51468, Note_off_c, 0, 69, 64
2, 51480, Note_on_c, 0, 66, 80
2, 51480, Note_on_c, 0, 72, 80
2, 51504, Note_off_c, 0, 72, 64
2, 51528, Note_off_c, 0, 66, 64
2, 51540, Note_on_c, 0, 69, 80
2, 51588, Note_off_c, 0, 69, 64
2, 51600, Note_on_c, 0, 62, 80
2, 51600, Note_on_c, 0, 72, 80
2, 51624, Note_off_c, 0, 72, 64
2, 51648, Note_off_c, 0, 62, 64
2, 51660, Note_on_c, 0, 69, 80
2, 51708, Note_off_c, 0, 69, 64
2, 51720, Note_on_c, 0, 66, 80
2, 51720, Note_on_c, 0, 74, 80
2, 51744, Note_off_c, 0, 74, 64
2, 51750, Note_on_c, 0, 72, 80
2, 51768, Note_off_c, 0, 66, 64
2, 51774, Note_off_c, 0, 72, 64
2, 51780, Note_on_c, 0, 69, 80
2, 51780, Note_on_c, 0, 71, 80
2, 51804, Note_off_c, 0, 71, 64
2, 51810, Note_on_c, 0, 72, 80
2, 51828, Note_off_c, 0, 69, 64
2, 51834, Note_off_c, 0, 72, 64
2, 51840, Note_on_c, 0, 67, 80
2, 51840, Note_on_c, 0, 71, 80
2, 51936, Note_off_c, 0, 71, 64
2, 51960, Note_on_c, 0, 82, 80
2, 52008, Note_off_c, 0, 82, 64
2, 52020, Note_on_c, 0, 83, 80
2, 52032, Note_off_c, 0, 67, 64
2, 52068, Note_off_c, 0, 83, 64
2, 52080, Note_on_c, 0, 81, 80
2, 52128, Note_off_c, 0, 81, 64
2, 52140, Note_on_c, 0, 79, 80
2, 52188, Note_off_c, 0, 79, 64
2, 52200, Note_on_c, 0, 78, 80
2, 52248, Note_off_c, 0, 78, 64
2, 52260, Note_on_c, 0, 76, 80
2, 52308, Note_off_c, 0, 76, 64
2, 52320, Note_on_c, 0, 74, 80
2, 52440, Note_on_c, 0, 54, 80
2, 52512, Note_off_c, 0, 74, 64
2, 52536, Note_off_c, 0, 54, 64
2, 52560, Note_on_c, 0, 76, 80
2, 52560, Note_on_c, 0, 55, 80
2, 52608, Note_off_c, 0, 76, 64
2, 52620, Note_on_c, 0, 78, 80
2, 52644, Note_off_c, 0, 78, 64
2, 52650, Note_on_c, 0, 76, 80
2, 52656, Note_off_c, 0, 55, 64
2, 52674, Note_off_c, 0, 76, 64
2, 52680, Note_on_c, 0, 78, 80
2, 52680, Note_on_c, 0, 57, 80
2, 52704, Note_off_c, 0, 78, 64
2, 52710, Note_on_c, 0, 76, 80
2, 52734, Note_off_c, 0, 76, 64
2, 52740, Note_on_c, 0, 74, 80
2, 52764, Note_off_c, 0, 74, 64
2, 52770, Note_on_c, 0, 76, 80
2, 52776, Note_off_c, 0, 57, 64
2, 52794, Note_off_c, 0, 76, 64
2, 52800, Note_on_c, 0, 78, 80
2, 52800, Note_on_c, 0, 50, 80
2, 52848, Note_off_c, 0, 78, 64
2, 52860, Note_on_c, 0, 74, 80
2, 52896, Note_off_c, 0, 50, 64
2, 52908, Note_off_c, 0, 74, 64
2, 52920, Note_on_c, 0, 54, 80
2, 52920, Note_on_c, 0, 86, 80
2, 52968, Note_off_c, 0, 86, 64
2, 52980, Note_on_c, 0, 81, 80
2, 53016, Note_off_c, 0, 54, 64
2, 53028, Note_off_c, 0, 81, 64
2, 53040, Note_on_c, 0, 83, 80
2, 53040, Note_on_c, 0, 55, 80
2, 53088, Note_off_c, 0, 83, 64
2, 53100, Note_on_c, 0, 78, 80
2, 53148, Note_off_c, 0, 78, 64
2, 53160, Note_on_c, 0, 79, 80
2, 53208, Note_off_c, 0, 79, 64
2, 53220, Note_on_c, 0, 76, 80
2, 53232, Note_off_c, 0, 55, 64
2, 53268, Note_off_c, 0, 76, 64
2, 53280, Note_on_c, 0, 74, 80
2, 53400, Note_on_c, 0, 54, 80
2, 53472, Note_off_c, 0, 74, 64
2, 53496, Note_off_c, 0, 54, 64
2, 53520, Note_on_c, 0, 76, 80
2, 53520, Note_on_c, 0, 55, 80
2, 53568, Note_off_c, 0, 76, 64
2, 53580, Note_on_c, 0, 78, 80
2, 53604, Note_off_c, 0, 78, 64
2, 53610, Note_on_c, 0, 76, 80
2, 53616, Note_off_c, 0, 55, 64
2, 53634, Note_off_c, 0, 76, 64
2, 53640, Note_on_c, 0, 78, 80
2, 53640, Note_on_c, 0, 57, 80
2, 53664, Note_off_c, 0, 78, 64
2, 53670, Note_on_c, 0, 76, 80
2, 53694, Note_off_c, 0, 76, 64
2, 53700, Note_on_c, 0, 78, 80
2, 53724, Note_off_c, 0, 78, 64
2, 53730, Note_on_c, 0, 76, 80
2, 53736, Note_off_c, 0, 57, 64
2, 53754, Note_off_c, 0, 76, 64
2, 53760, Note_on_c, 0, 50, 80
2, 53760, Note_on_c, 0, 74, 80
2, 53808, Note_off_c, 0, 50, 64
2, 53820, Note_on_c, 0, 62, 80
2, 53856, Note_off_c, 0, 74, 64
2, 53868, Note_off_c, 0, 62, 64
2, 53880, Note_on_c, 0, 50, 80
2, 53928, Note_off_c, 0, 50, 64
2, 53940, Note_on_c, 0, 62, 80
2, 53988, Note_off_c, 0, 62, 64
2, 54000, Note_on_c, 0, 73, 80
2, 54000, Note_on_c, 0, 79, 80
2, 54000, Note_on_c, 0, 50, 80
2, 54048, Note_off_c, 0, 50, 64
2, 54060, Note_on_c, 0, 62, 80
2, 54096, Note_off_c, 0, 79, 64
2, 54096, Note_off_c, 0, 73, 64
2, 54108, Note_off_c, 0, 62, 64
2, 54120, Note_on_c, 0, 50, 80
2, 54168, Note_off_c, 0, 50, 64
2, 54180, Note_on_c, 0, 62, 80
2, 54228, Note_off_c, 0, 62, 64
2, 54240, Note_on_c, 0, 50, 80
2, 54240, Note_on_c, 0, 78, 80
2, 54240, Note_on_c, 0, 74, 80
2, 54288, Note_off_c, 0, 50, 64
2, 54300, Note_on_c, 0, 62, 80
2, 54336, Note_off_c, 0, 74, 64
2, 54336, Note_off_c, 0, 78, 64
2, 54348, Note_off_c, 0, 62, 64
2, 54360, Note_on_c, 0, 50, 80
2, 54408, Note_off_c, 0, 50, 64
2, 54420, Note_on_c, 0, 62, 80
2, 54468, Note_off_c, 0, 62, 64
2, 54480, Note_on_c, 0, 50, 80
2, 54480, Note_on_c, 0, 67, 80
2, 54480, Note_on_c, 0, 73, 80
2, 54528, Note_off_c, 0, 50, 64
2, 54540, Note_on_c, 0, 62, 80
2, 54576, Note_off_c, 0, 73, 64
2, 54576, Note_off_c, 0, 67, 64
2, 54588, Note_off_c, 0, 62, 64
2, 54600, Note_on_c, 0, 50, 80
2, 54648, Note_off_c, 0, 50, 64
2, 54660, Note_on_c, 0, 62, 80
2, 54708, Note_off_c, 0, 62, 64
2, 54720, Note_on_c, 0, 66, 80
2, 54720, Note_on_c, 0, 74, 80
2, 54720, Note_on_c, 0, 50, 80
2, 54912, Note_off_c, 0, 50, 64
2, 54912, Note_off_c, 0, 74, 64
2, 54912, Note_off_c, 0, 66, 64
2, 55080, Note_on_c, 0, 62, 80
2, 55176, Note_off_c, 0, 62, 64
2, 55200, Note_on_c, 0, 65, 80
2, 55200, Note_on_c, 0, 50, 80
2, 55248, Note_off_c, 0, 50, 64
2, 55260, Note_on_c, 0, 57, 80
2, 55296, Note_off_c, 0, 65, 64
2, 55308, Note_off_c, 0, 57, 64
2, 55320, Note_on_c, 0, 69, 80
2, 55320, Note_on_c, 0, 53, 80
2, 55368, Note_off_c, 0, 53, 64
2, 55380, Note_on_c, 0, 57, 80
2, 55416, Note_off_c, 0, 69, 64
2, 55428, Note_off_c, 0, 57, 64
2, 55440, Note_on_c, 0, 74, 80
2, 55440, Note_on_c, 0, 50, 80
2, 55488, Note_off_c, 0, 50, 64
2, 55500, Note_on_c, 0, 57, 80
2, 55536, Note_off_c, 0, 74, 64
2, 55548, Note_off_c, 0, 57, 64
2, 55560, Note_on_c, 0, 53, 80
2, 55560, Note_on_c, 0, 77, 80
2, 55608, Note_off_c, 0, 53, 64
2, 55620, Note_on_c, 0, 57, 80
2, 55656, Note_off_c, 0, 77, 64
2, 55668, Note_off_c, 0, 57, 64
2, 55680, Note_on_c, 0, 68, 80
2, 55680, Note_on_c, 0, 50, 80
2, 55728, Note_off_c, 0, 50, 64
2, 55740, Note_on_c, 0, 59, 80
2, 55788, Note_off_c, 0, 59, 64
2, 55800, Note_on_c, 0, 56, 80
2, 55848, Note_off_c, 0, 56, 64
2, 55860, Note_on_c, 0, 59, 80
2, 55872, Note_off_c, 0, 68, 64
2, 55908, Note_off_c, 0, 59, 64
2, 55920, Note_on_c, 0, 50, 80
2, 55968, Note_off_c, 0, 50, 64
2, 55980, Note_on_c, 0, 59, 80
2, 56028, Note_off_c, 0, 59, 64
2, 56040, Note_on_c, 0, 56, 80
2, 56040, Note_on_c, 0, 64, 80
2, 56088, Note_off_c, 0, 56, 64
2, 56100, Note_on_c, 0, 59, 80
2, 56136, Note_off_c, 0, 64, 64
2, 56148, Note_off_c, 0, 59, 64
2, 56160, Note_on_c, 0, 68, 80
2, 56160, Note_on_c, 0, 50, 80
2, 56208, Note_off_c, 0, 50, 64
2, 56220, Note_on_c, 0, 59, 80
2, 56256, Note_off_c, 0, 68, 64
2, 56268, Note_off_c, 0, 59, 64
2, 56280, Note_on_c, 0, 71, 80
2, 56280, Note_on_c, 0, 56, 80
2, 56328, Note_off_c, 0, 56, 64
2, 56340, Note_on_c, 0, 59, 80
2, 56376, Note_off_c, 0, 71, 64
2, 56388, Note_off_c, 0, 59, 64
2, 56400, Note_on_c, 0, 76, 80
2, 56400, Note_on_c, 0, 50, 80
2, 56448, Note_off_c, 0, 50, 64
2, 56460, Note_on_c, 0, 59, 80
2, 56496, Note_off_c, 0, 76, 64
2, 56508, Note_off_c, 0, 59, 64
2, 56520, Note_on_c, 0, 56, 80
2, 56520, Note_on_c, 0, 80, 80
2, 56568, Note_off_c, 0, 56, 64
2, 56580, Note_on_c, 0, 59, 80
2, 56616, Note_off_c, 0, 80, 64
2, 56628, Note_off_c, 0, 59, 64
2, 56640, Note_on_c, 0, 81, 80
2, 56640, Note_on_c, 0, 48, 80
2, 56688, Note_off_c, 0, 48, 64
2, 56700, Note_on_c, 0, 57, 80
2, 56748, Note_off_c, 0, 57, 64
2, 56760, Note_on_c, 0, 52, 80
2, 56808, Note_off_c, 0, 52, 64
2, 56820, Note_on_c, 0, 57, 80
2, 56832, Note_off_c, 0, 81, 64
2, 56868, Note_off_c, 0, 57, 64
2, 56880, Note_on_c, 0, 48, 80
2, 56928, Note_off_c, 0, 48, 64
2, 56940, Note_on_c, 0, 57, 80
2, 56988, Note_off_c, 0, 57, 64
2, 57000, Note_on_c, 0, 52, 80
2, 57000, Note_on_c, 0, 69, 80
2, 57048, Note_off_c, 0, 52, 64
2, 57060, Note_on_c, 0, 57, 80
2, 57096, Note_off_c, 0, 69, 64
2, 57108, Note_off_c, 0, 57, 64
2, 57120, Note_on_c, 0, 72, 80
2, 57120, Note_on_c, 0, 48, 80
2, 57168, Note_off_c, 0, 48, 64
2, 57180, Note_on_c, 0, 57, 80
2, 57216, Note_off_c, 0, 72, 64
2, 57228, Note_off_c, 0, 57, 64
2, 57240, Note_on_c, 0, 52, 80
2, 57240, Note_on_c, 0, 76, 80
2, 57288, Note_off_c, 0, 52, 64
2, 57300, Note_on_c, 0, 57, 80
2, 57336, Note_off_c, 0, 76, 64
2, 57348, Note_off_c, 0, 57, 64
2, 57360, Note_on_c, 0, 81, 80
2, 57360, Note_on_c, 0, 48, 80
2, 57408, Note_off_c, 0, 48, 64
2, 57420, Note_on_c, 0, 57, 80
2, 57456, Note_off_c, 0, 81, 64
2, 57468, Note_off_c, 0, 57, 64
2, 57480, Note_on_c, 0, 84, 80
2, 57480, Note_on_c, 0, 52, 80
2, 57528, Note_off_c, 0, 52, 64
2, 57540, Note_on_c, 0, 57, 80
2, 57576, Note_off_c, 0, 84, 64
2, 57588, Note_off_c, 0, 57, 64
2, 57600, Note_on_c, 0, 75, 80
2, 57600, Note_on_c, 0, 47, 80
2, 57648, Note_off_c, 0, 47, 64
2, 57660, Note_on_c, 0, 57, 80
2, 57708, Note_off_c, 0, 57, 64
2, 57720, Note_on_c, 0, 54, 80
2, 57768, Note_off_c, 0, 54, 64
2, 57780, Note_on_c, 0, 57, 80
2, 57792, Note_off_c, 0, 75, 64
2, 57828, Note_off_c, 0, 57, 64
2, 57840, Note_on_c, 0, 47, 80
2, 57888, Note_off_c, 0, 47, 64
2, 57900, Note_on_c, 0, 57, 80
2, 57948, Note_off_c, 0, 57, 64
2, 57960, Note_on_c, 0, 54, 80
2, 57960, Note_on_c, 0, 81, 80
2, 58008, Note_off_c, 0, 54, 64
2, 58020, Note_on_c, 0, 57, 80
2, 58056, Note_off_c, 0, 81, 64
2, 58068, Note_off_c, 0, 57, 64
2, 58080, Note_on_c, 0, 78, 80
2, 58080, Note_on_c, 0, 51, 80
2, 58128, Note_off_c, 0, 51, 64
2, 58140, Note_on_c, 0, 59, 80
2, 58176, Note_off_c, 0, 78, 64
2, 58188, Note_off_c, 0, 59, 64
2, 58200, Note_on_c, 0, 54, 80
2, 58200, Note_on_c, 0, 75, 80
2, 58248, Note_off_c, 0, 54, 64
2, 58260, Note_on_c, 0, 59, 80
2, 58296, Note_off_c, 0, 75, 64
2, 58308, Note_off_c, 0, 59, 64
2, 58320, Note_on_c, 0, 71, 80
2, 58320, Note_on_c, 0, 51, 80
2, 58368, Note_off_c, 0, 51, 64
2, 58380, Note_on_c, 0, 59, 80
2, 58416, Note_off_c, 0, 71, 64
2, 58428, Note_off_c, 0, 59, 64
2, 58440, Note_on_c, 0, 69, 80
2, 58440, Note_on_c, 0, 54, 80
2, 58488, Note_off_c, 0, 54, 64
2, 58500, Note_on_c, 0, 59, 80
2, 58536, Note_off_c, 0, 69, 64
2, 58548, Note_off_c, 0, 59, 64
2, 58560, Note_on_c, 0, 67, 80
2, 58560, Note_on_c, 0, 52, 80
2, 58608, Note_off_c, 0, 52, 64
2, 58620, Note_on_c, 0, 59, 80
2, 58668, Note_off_c, 0, 59, 64
2, 58680, Note_on_c, 0, 55, 80
2, 58728, Note_off_c, 0, 55, 64
2, 58740, Note_on_c, 0, 59, 80
2, 58752, Note_off_c, 0, 67, 64
2, 58788, Note_off_c, 0, 59, 64
2, 58800, Note_on_c, 0, 52, 80
2, 58848, Note_off_c, 0, 52, 64
2, 58860, Note_on_c, 0, 59, 80
2, 58908, Note_off_c, 0, 59, 64
2, 58920, Note_on_c, 0, 55, 80
2, 58920, Note_on_c, 0, 64, 80
2, 58968, Note_off_c, 0, 55, 64
2, 58980, Note_on_c, 0, 59, 80
2, 59016, Note_off_c, 0, 64, 64
2, 59028, Note_off_c, 0, 59, 64
2, 59040, Note_on_c, 0, 67, 80
2, 59040, Note_on_c, 0, 52, 80
2, 59088, Note_off_c, 0, 52, 64
2, 59100, Note_on_c, 0, 59, 80
2, 59136, Note_off_c, 0, 67, 64
2, 59148, Note_off_c, 0, 59, 64
2, 59160, Note_on_c, 0, 71, 80
2, 59160, Note_on_c, 0, 55, 80
2, 59208, Note_off_c, 0, 55, 64
2, 59220, Note_on_c, 0, 59, 80
2, 59256, Note_off_c, 0, 71, 64
2, 59268, Note_off_c, 0, 59, 64
2, 59280, Note_on_c, 0, 76, 80
2, 59280, Note_on_c, 0, 52, 80
2, 59328, Note_off_c, 0, 52, 64
2, 59340, Note_on_c, 0, 59, 80
2, 59376, Note_off_c, 0, 76, 64
2, 59388, Note_off_c, 0, 59, 64
2, 59400, Note_on_c, 0, 55, 80
2, 59400, Note_on_c, 0, 79, 80
2, 59448, Note_off_c, 0, 55, 64
2, 59460, Note_on_c, 0, 59, 80
2, 59496, Note_off_c, 0, 79, 64
2, 59508, Note_off_c, 0, 59, 64
2, 59520, Note_on_c, 0, 78, 80
2, 59520, Note_on_c, 0, 51, 80
2, 59568, Note_off_c, 0, 51, 64
2, 59580, Note_on_c, 0, 59, 80
2, 59628, Note_off_c, 0, 59, 64
2, 59640, Note_on_c, 0, 54, 80
2, 59688, Note_off_c, 0, 54, 64
2, 59700, Note_on_c, 0, 59, 80
2, 59712, Note_off_c, 0, 78, 64
2, 59748, Note_off_c, 0, 59, 64
2, 59760, Note_on_c, 0, 51, 80
2, 59808, Note_off_c, 0, 51, 64
2, 59820, Note_on_c, 0, 59, 80
2, 59868, Note_off_c, 0, 59, 64
2, 59880, Note_on_c, 0, 54, 80
2, 59880, Note_on_c, 0, 66, 80
2, 59928, Note_off_c, 0, 54, 64
2, 59940, Note_on_c, 0, 59, 80
2, 59976, Note_off_c, 0, 66, 64
2, 59988, Note_off_c, 0, 59, 64
2, 60000, Note_on_c, 0, 69, 80
2, 60000, Note_on_c, 0, 51, 80
2, 60048, Note_off_c, 0, 51, 64
2, 60060, Note_on_c, 0, 59, 80
2, 60096, Note_off_c, 0, 69, 64
2, 60108, Note_off_c, 0, 59, 64
2, 60120, Note_on_c, 0, 54, 80
2, 60120, Note_on_c, 0, 75, 80
2, 60168, Note_off_c, 0, 54, 64
2, 60180, Note_on_c, 0, 59, 80
2, 60216, Note_off_c, 0, 75, 64
2, 60228, Note_off_c, 0, 59, 64
2, 60240, Note_on_c, 0, 78, 80
2, 60240, Note_on_c, 0, 51, 80
2, 60288, Note_off_c, 0, 51, 64
2, 60300, Note_on_c, 0, 59, 80
2, 60336, Note_off_c, 0, 78, 64
2, 60348, Note_off_c, 0, 59, 64
2, 60360, Note_on_c, 0, 81, 80
2, 60360, Note_on_c, 0, 54, 80
2, 60408, Note_off_c, 0, 54, 64
2, 60420, Note_on_c, 0, 59, 80
2, 60456, Note_off_c, 0, 81, 64
2, 60468, Note_off_c, 0, 59, 64
2, 60480, Note_on_c, 0, 79, 80
2, 60480, Note_on_c, 0, 52, 80
2, 60528, Note_off_c, 0, 52, 64
2, 60540, Note_on_c, 0, 59, 80
2, 60588, Note_off_c, 0, 59, 64
2, 60600, Note_on_c, 0, 55, 80
2, 60648, Note_off_c, 0, 55, 64
2, 60660, Note_on_c, 0, 59, 80
2, 60672, Note_off_c, 0, 79, 64
2, 60708, Note_off_c, 0, 59, 64
2, 60720, Note_on_c, 0, 52, 80
2, 60768, Note_off_c, 0, 52, 64
2, 60780, Note_on_c, 0, 59, 80
2, 60828, Note_off_c, 0, 59, 64
2, 60840, Note_on_c, 0, 55, 80
2, 60840, Note_on_c, 0, 64, 80
2, 60888, Note_off_c, 0, 55, 64
2, 60900, Note_on_c, 0, 59, 80
2, 60936, Note_off_c, 0, 64, 64
2, 60948, Note_off_c, 0, 59, 64
2, 60960, Note_on_c, 0, 67, 80
2, 60960, Note_on_c, 0, 52, 80
2, 61008, Note_off_c, 0, 52, 64
2, 61020, Note_on_c, 0, 59, 80
2, 61056, Note_off_c, 0, 67, 64
2, 61068, Note_off_c, 0, 59, 64
2, 61080, Note_on_c, 0, 71, 80
2, 61080, Note_on_c, 0, 55, 80
2, 61128, Note_off_c, 0, 55, 64
2, 61140, Note_on_c, 0, 59, 80
2, 61176, Note_off_c, 0, 71, 64
2, 61188, Note_off_c, 0, 59, 64
2, 61200, Note_on_c, 0, 76, 80
2, 61200, Note_on_c, 0, 52, 80
2, 61248, Note_off_c, 0, 52, 64
2, 61260, Note_on_c, 0, 59, 80
2, 61296, Note_off_c, 0, 76, 64
2, 61308, Note_off_c, 0, 59, 64
2, 61320, Note_on_c, 0, 55, 80
2, 61320, Note_on_c, 0, 79, 80
2, 61368, Note_off_c, 0, 55, 64
2, 61380, Note_on_c, 0, 59, 80
2, 61416, Note_off_c, 0, 79, 64
2, 61428, Note_off_c, 0, 59, 64
2, 61440, Note_on_c, 0, 70, 80
2, 61440, Note_on_c, 0, 48, 80
2, 61488, Note_off_c, 0, 48, 64
2, 61500, Note_on_c, 0, 58, 80
2, 61548, Note_off_c, 0, 58, 64
2, 61560, Note_on_c, 0, 52, 80
2, 61608, Note_off_c, 0, 52, 64
2, 61620, Note_on_c, 0, 58, 80
2, 61632, Note_off_c, 0, 70, 64
2, 61668, Note_off_c, 0, 58, 64
2, 61680, Note_on_c, 0, 48, 80
2, 61728, Note_off_c, 0, 48, 64
2, 61740, Note_on_c, 0, 58, 80
2, 61788, Note_off_c, 0, 58, 64
2, 61800, Note_on_c, 0, 52, 80
2, 61800, Note_on_c, 0, 79, 80
2, 61848, Note_off_c, 0, 52, 64
2, 61860, Note_on_c, 0, 58, 80
2, 61896, Note_off_c, 0, 79, 64
2, 61908, Note_off_c, 0, 58, 64
2, 61920, Note_on_c, 0, 48, 80
2, 61920, Note_on_c, 0, 78, 80
2, 61968, Note_off_c, 0, 48, 64
2, 61980, Note_on_c, 0, 58, 80
2, 62016, Note_off_c, 0, 78, 64
2, 62028, Note_off_c, 0, 58, 64
2, 62040, Note_on_c, 0, 52, 80
2, 62040, Note_on_c, 0, 76, 80
2, 62088, Note_off_c, 0, 52, 64
2, 62100, Note_on_c, 0, 58, 80
2, 62136, Note_off_c, 0, 76, 64
2, 62148, Note_off_c, 0, 58, 64
2, 62160, Note_on_c, 0, 75, 80
2, 62160, Note_on_c, 0, 48, 80
2, 62208, Note_off_c, 0, 48, 64
2, 62220, Note_on_c, 0, 58, 80
2, 62256, Note_off_c, 0, 75, 64
2, 62268, Note_off_c, 0, 58, 64
2, 62280, Note_on_c, 0, 76, 80
2, 62280, Note_on_c, 0, 52, 80
2, 62328, Note_off_c, 0, 52, 64
2, 62340, Note_on_c, 0, 58, 80
2, 62376, Note_off_c, 0, 76, 64
2, 62388, Note_off_c, 0, 58, 64
2, 62400, Note_on_c, 0, 75, 80
2, 62400, Note_on_c, 0, 47, 80
2, 62448, Note_off_c, 0, 47, 64
2, 62460, Note_on_c, 0, 57, 80
2, 62496, Note_off_c, 0, 75, 64
2, 62508, Note_off_c, 0, 57, 64
2, 62520, Note_on_c, 0, 84, 80
2, 62520, Note_on_c, 0, 51, 80
2, 62568, Note_off_c, 0, 51, 64
2, 62580, Note_on_c, 0, 57, 80
2, 62616, Note_off_c, 0, 84, 64
2, 62628, Note_off_c, 0, 57, 64
2, 62640, Note_on_c, 0, 83, 80
2, 62640, Note_on_c, 0, 47, 80
2, 62688, Note_off_c, 0, 47, 64
2, 62700, Note_on_c, 0, 57, 80
2, 62736, Note_off_c, 0, 83, 64
2, 62748, Note_off_c, 0, 57, 64
2, 62760, Note_on_c, 0, 81, 80
2, 62760, Note_on_c, 0, 51, 80
2, 62808, Note_off_c, 0, 51, 64
2, 62820, Note_on_c, 0, 57, 80
2, 62856, Note_off_c, 0, 81, 64
2, 62868, Note_off_c, 0, 57, 64
2, 62880, Note_on_c, 0, 80, 80
2, 62880, Note_on_c, 0, 52, 80
2, 62928, Note_off_c, 0, 52, 64
2, 62940, Note_on_c, 0, 62, 80
2, 62976, Note_off_c, 0, 80, 64
2, 62988, Note_off_c, 0, 62, 64
2, 63000, Note_on_c, 0, 56, 80
2, 63000, Note_on_c, 0, 78, 80
2, 63048, Note_off_c, 0, 56, 64
2, 63060, Note_on_c, 0, 62, 80
2, 63096, Note_off_c, 0, 78, 64
2, 63108, Note_off_c, 0, 62, 64
2, 63120, Note_on_c, 0, 52, 80
2, 63120, Note_on_c, 0, 76, 80
2, 63168, Note_off_c, 0, 52, 64
2, 63180, Note_on_c, 0, 62, 80
2, 63216, Note_off_c, 0, 76, 64
2, 63228, Note_off_c, 0, 62, 64
2, 63240, Note_on_c, 0, 74, 80
2, 63240, Note_on_c, 0, 56, 80
2, 63288, Note_off_c, 0, 56, 64
2, 63300, Note_on_c, 0, 62, 80
2, 63336, Note_off_c, 0, 74, 64
2, 63348, Note_off_c, 0, 62, 64
2, 63360, Note_on_c, 0, 73, 80
2, 63360, Note_on_c, 0, 57, 80
2, 63408, Note_off_c, 0, 57, 64
2, 63420, Note_on_c, 0, 67, 80
2, 63456, Note_off_c, 0, 73, 64
2, 63468, Note_off_c, 0, 67, 64
2, 63480, Note_on_c, 0, 82, 80
2, 63480, Note_on_c, 0, 61, 80
2, 63528, Note_off_c, 0, 61, 64
2, 63540, Note_on_c, 0, 67, 80
2, 63576, Note_off_c, 0, 82, 64
2, 63588, Note_off_c, 0, 67, 64
2, 63600, Note_on_c, 0, 81, 80
2, 63600, Note_on_c, 0, 57, 80
2, 63648, Note_off_c, 0, 57, 64
2, 63660, Note_on_c, 0, 67, 80
2, 63696, Note_off_c, 0, 81, 64
2, 63708, Note_off_c, 0, 67, 64
2, 63720, Note_on_c, 0, 61, 80
2, 63720, Note_on_c, 0, 79, 80
2, 63768, Note_off_c, 0, 61, 64
2, 63780, Note_on_c, 0, 67, 80
2, 63816, Note_off_c, 0, 79, 64
2, 63828, Note_off_c, 0, 67, 64
2, 63840, Note_on_c, 0, 78, 80
2, 63840, Note_on_c, 0, 60, 80
2, 63888, Note_off_c, 0, 60, 64
2, 63900, Note_on_c, 0, 69, 80
2, 63936, Note_off_c, 0, 78, 64
2, 63948, Note_off_c, 0, 69, 64
2, 63960, Note_on_c, 0, 81, 80
2, 63960, Note_on_c, 0, 66, 80
2, 64008, Note_off_c, 0, 66, 64
2, 64020, Note_on_c, 0, 69, 80
2, 64056, Note_off_c, 0, 81, 64
2, 64068, Note_off_c, 0, 69, 64
2, 64080, Note_on_c, 0, 86, 80
2, 64080, Note_on_c, 0, 60, 80
2, 64128, Note_off_c, 0, 60, 64
2, 64140, Note_on_c, 0, 69, 80
2, 64176, Note_off_c, 0, 86, 64
2, 64188, Note_off_c, 0, 69, 64
2, 64200, Note_on_c, 0, 66, 80
2, 64200, Note_on_c, 0, 78, 80
2, 64248, Note_off_c, 0, 66, 64
2, 64260, Note_on_c, 0, 69, 80
2, 64296, Note_off_c, 0, 78, 64
2, 64308, Note_off_c, 0, 69, 64
2, 64320, Note_on_c, 0, 79, 80
2, 64320, Note_on_c, 0, 59, 80
2, 64368, Note_off_c, 0, 59, 64
2, 64380, Note_on_c, 0, 67, 80
2, 64416, Note_off_c, 0, 79, 64
2, 64428, Note_off_c, 0, 67, 64
2, 64440, Note_on_c, 0, 83, 80
2, 64440, Note_on_c, 0, 62, 80
2, 64488, Note_off_c, 0, 62, 64
2, 64500, Note_on_c, 0, 67, 80
2, 64536, Note_off_c, 0, 83, 64
2, 64548, Note_off_c, 0, 67, 64
2, 64560, Note_on_c, 0, 86, 80
2, 64560, Note_on_c, 0, 59, 80
2, 64608, Note_off_c, 0, 59, 64
2, 64620, Note_on_c, 0, 67, 80
2, 64656, Note_off_c, 0, 86, 64
2, 64668, Note_off_c, 0, 67, 64
2, 64680, Note_on_c, 0, 62, 80
2, 64680, Note_on_c, 0, 79, 80
2, 64728, Note_off_c, 0, 62, 64
2, 64740, Note_on_c, 0, 67, 80
2, 64776, Note_off_c, 0, 79, 64
2, 64788, Note_off_c, 0, 67, 64
2, 64800, Note_on_c, 0, 78, 80
2, 64800, Note_on_c, 0, 60, 80
2, 64848, Note_off_c, 0, 60, 64
2, 64860, Note_on_c, 0, 69, 80
2, 64896, Note_off_c, 0, 78, 64
2, 64908, Note_off_c, 0, 69, 64
2, 64920, Note_on_c, 0, 66, 80
2, 64920, Note_on_c, 0, 81, 80
2, 64968, Note_off_c, 0, 66, 64
2, 64980, Note_on_c, 0, 69, 80
2, 65016, Note_off_c, 0, 81, 64
2, 65028, Note_off_c, 0, 69, 64
2, 65040, Note_on_c, 0, 86, 80
2, 65040, Note_on_c, 0, 60, 80
2, 65088, Note_off_c, 0, 60, 64
2, 65100, Note_on_c, 0, 69, 80
2, 65136, Note_off_c, 0, 86, 64
2, 65148, Note_off_c, 0, 69, 64
2, 65160, Note_on_c, 0, 78, 80
2, 65160, Note_on_c, 0, 66, 80
2, 65208, Note_off_c, 0, 66, 64
2, 65220, Note_on_c, 0, 69, 80
2, 65256, Note_off_c, 0, 78, 64
2, 65268, Note_off_c, 0, 69, 64
2, 65280, Note_on_c, 0, 58, 80
2, 65280, Note_on_c, 0, 79, 80
2, 65328, Note_off_c, 0, 58, 64
2, 65340, Note_on_c, 0, 67, 80
2, 65376, Note_off_c, 0, 79, 64
2, 65388, Note_off_c, 0, 67, 64
2, 65400, Note_on_c, 0, 62, 80
2, 65400, Note_on_c, 0, 82, 80
2, 65448, Note_off_c, 0, 62, 64
2, 65460, Note_on_c, 0, 67, 80
2, 65496, Note_off_c, 0, 82, 64
2, 65508, Note_off_c, 0, 67, 64
2, 65520, Note_on_c, 0, 58, 80
2, 65520, Note_on_c, 0, 86, 80
2, 65568, Note_off_c, 0, 58, 64
2, 65580, Note_on_c, 0, 67, 80
2, 65616, Note_off_c, 0, 86, 64
2, 65628, Note_off_c, 0, 67, 64
2, 65640, Note_on_c, 0, 62, 80
2, 65640, Note_on_c, 0, 74, 80
2, 65688, Note_off_c, 0, 62, 64
2, 65700, Note_on_c, 0, 67, 80
2, 65736, Note_off_c, 0, 74, 64
2, 65748, Note_off_c, 0, 67, 64
2, 65760, Note_on_c, 0, 75, 80
2, 65760, Note_on_c, 0, 60, 80
2, 65808, Note_off_c, 0, 60, 64
2, 65820, Note_on_c, 0, 67, 80
2, 65856, Note_off_c, 0, 75, 64
2, 65868, Note_off_c, 0, 67, 64
2, 65880, Note_on_c, 0, 86, 80
2, 65880, Note_on_c, 0, 63, 80
2, 65928, Note_off_c, 0, 63, 64
2, 65940, Note_on_c, 0, 67, 80
2, 65976, Note_off_c, 0, 86, 64
2, 65988, Note_off_c, 0, 67, 64
2, 66000, Note_on_c, 0, 84, 80
2, 66000, Note_on_c, 0, 57, 80
2, 66048, Note_off_c, 0, 57, 64
2, 66060, Note_on_c, 0, 65, 80
2, 66096, Note_off_c, 0, 84, 64
2, 66108, Note_off_c, 0, 65, 64
2, 66120, Note_on_c, 0, 60, 80
2, 66120, Note_on_c, 0, 75, 80
2, 66168, Note_off_c, 0, 60, 64
2, 66180, Note_on_c, 0, 65, 80
2, 66216, Note_off_c, 0, 75, 64
2, 66228, Note_off_c, 0, 65, 64
2, 66240, Note_on_c, 0, 74, 80
2, 66240, Note_on_c, 0, 58, 80
2, 66288, Note_off_c, 0, 58, 64
2, 66300, Note_on_c, 0, 65, 80
2, 66336, Note_off_c, 0, 74, 64
2, 66348, Note_off_c, 0, 65, 64
2, 66360, Note_on_c, 0, 62, 80
2, 66360, Note_on_c, 0, 84, 80
2, 66408, Note_off_c, 0, 62, 64
2, 66420, Note_on_c, 0, 65, 80
2, 66456, Note_off_c, 0, 84, 64
2, 66468, Note_off_c, 0, 65, 64
2, 66480, Note_on_c, 0, 82, 80
2, 66480, Note_on_c, 0, 55, 80
2, 66528, Note_off_c, 0, 55, 64
2, 66540, Note_on_c, 0, 63, 80
2, 66576, Note_off_c, 0, 82, 64
2, 66588, Note_off_c, 0, 63, 64
2, 66600, Note_on_c, 0, 74, 80
2, 66600, Note_on_c, 0, 58, 80
2, 66648, Note_off_c, 0, 58, 64
2, 66660, Note_on_c, 0, 63, 80
2, 66696, Note_off_c, 0, 74, 64
2, 66708, Note_off_c, 0, 63, 64
2, 66720, Note_on_c, 0, 72, 80
2, 66720, Note_on_c, 0, 57, 80
2, 66768, Note_off_c, 0, 57, 64
2, 66780, Note_on_c, 0, 63, 80
2, 66816, Note_off_c, 0, 72, 64
2, 66828, Note_off_c, 0, 63, 64
2, 66840, Note_on_c, 0, 82, 80
2, 66840, Note_on_c, 0, 60, 80
2, 66888, Note_off_c, 0, 60, 64
2, 66900, Note_on_c, 0, 63, 80
2, 66936, Note_off_c, 0, 82, 64
2, 66948, Note_off_c, 0, 63, 64
2, 66960, Note_on_c, 0, 81, 80
2, 66960, Note_on_c, 0, 54, 80
2, 67008, Note_off_c, 0, 54, 64
2, 67020, Note_on_c, 0, 62, 80
2, 67056, Note_off_c, 0, 81, 64
2, 67068, Note_off_c, 0, 62, 64
2, 67080, Note_on_c, 0, 72, 80
2, 67080, Note_on_c, 0, 57, 80
2, 67128, Note_off_c, 0, 57, 64
2, 67140, Note_on_c, 0, 62, 80
2, 67176, Note_off_c, 0, 72, 64
2, 67188, Note_off_c, 0, 62, 64
2, 67200, Note_on_c, 0, 70, 80
2, 67200, Note_on_c, 0, 55, 80
2, 67248, Note_off_c, 0, 55, 64
2, 67260, Note_on_c, 0, 62, 80
2, 67296, Note_off_c, 0, 70, 64
2, 67308, Note_off_c, 0, 62, 64
2, 67320, Note_on_c, 0, 58, 80
2, 67320, Note_on_c, 0, 79, 80
2, 67368, Note_off_c, 0, 58, 64
2, 67380, Note_on_c, 0, 62, 80
2, 67416, Note_off_c, 0, 79, 64
2, 67428, Note_off_c, 0, 62, 64
2, 67440, Note_on_c, 0, 69, 80
2, 67440, Note_on_c, 0, 53, 80
2, 67488, Note_off_c, 0, 53, 64
2, 67500, Note_on_c, 0, 62, 80
2, 67536, Note_off_c, 0, 69, 64
2, 67548, Note_off_c, 0, 62, 64
2, 67560, Note_on_c, 0, 81, 80
2, 67560, Note_on_c, 0, 57, 80
2, 67608, Note_off_c, 0, 57, 64
2, 67620, Note_on_c, 0, 62, 80
2, 67656, Note_off_c, 0, 81, 64
2, 67668, Note_off_c, 0, 62, 64
2, 67680, Note_on_c, 0, 67, 80
2, 67680, Note_on_c, 0, 51, 80
2, 67728, Note_off_c, 0, 51, 64
2, 67740, Note_on_c, 0, 61, 80
2, 67776, Note_off_c, 0, 67, 64
2, 67788, Note_off_c, 0, 61, 64
2, 67800, Note_on_c, 0, 55, 80
2, 67800, Note_on_c, 0, 82, 80
2, 67848, Note_off_c, 0, 55, 64
2, 67860, Note_on_c, 0, 61, 80
2, 67896, Note_off_c, 0, 82, 64
2, 67908, Note_off_c, 0, 61, 64
2, 67920, Note_on_c, 0, 81, 80
2, 67920, Note_on_c, 0, 51, 80
2, 67968, Note_off_c, 0, 51, 64
2, 67980, Note_on_c, 0, 61, 80
2, 68016, Note_off_c, 0, 81, 64
2, 68028, Note_off_c, 0, 61, 64
2, 68040, Note_on_c, 0, 79, 80
2, 68040, Note_on_c, 0, 55, 80
2, 68088, Note_off_c, 0, 55, 64
2, 68100, Note_on_c, 0, 61, 80
2, 68136, Note_off_c, 0, 79, 64
2, 68148, Note_off_c, 0, 61, 64
2, 68160, Note_on_c, 0, 50, 80
2, 68160, Note_on_c, 0, 78, 80
2, 68208, Note_off_c, 0, 50, 64
2, 68220, Note_on_c, 0, 60, 80
2, 68256, Note_off_c, 0, 78, 64
2, 68268, Note_off_c, 0, 60, 64
2, 68280, Note_on_c, 0, 81, 80
2, 68280, Note_on_c, 0, 54, 80
2, 68328, Note_off_c, 0, 54, 64
2, 68340, Note_on_c, 0, 60, 80
2, 68376, Note_off_c, 0, 81, 64
2, 68388, Note_off_c, 0, 60, 64
2, 68400, Note_on_c, 0, 84, 80
2, 68400, Note_on_c, 0, 50, 80
2, 68448, Note_off_c, 0, 50, 64
2, 68448, Note_off_c, 0, 84, 64
2, 68460, Note_on_c, 0, 81, 80
2, 68460, Note_on_c, 0, 60, 80
2, 68508, Note_off_c, 0, 60, 64
2, 68508, Note_off_c, 0, 81, 64
2, 68520, Note_on_c, 0, 78, 80
2, 68520, Note_on_c, 0, 54, 80
2, 68568, Note_off_c, 0, 54, 64
2, 68568, Note_off_c, 0, 78, 64
2, 68580, Note_on_c, 0, 60, 80
2, 68580, Note_on_c, 0, 74, 80
2, 68628, Note_off_c, 0, 74, 64
2, 68628, Note_off_c, 0, 60, 64
2, 68640, Note_on_c, 0, 50, 80
2, 68640, Note_on_c, 0, 72, 80
2, 68640, Note_on_c, 0, 69, 80
2, 68640, Note_on_c, 0, 60, 80
2, 68640, Note_on_c, 0, 54, 80
2, 68736, Note_off_c, 0, 54, 64
2, 68736, Note_off_c, 0, 60, 64
2, 68736, Note_off_c, 0, 69, 64
2, 68736, Note_off_c, 0, 72, 64
2, 68736, Note_off_c, 0, 50, 64
2, 68760, Note_on_c, 0, 71, 80
2, 68808, Note_off_c, 0, 71, 64
2, 68820, Note_on_c, 0, 72, 80
2, 68868, Note_off_c, 0, 72, 64
2, 68880, Note_on_c, 0, 74, 80
2, 68928, Note_off_c, 0, 74, 64
2, 68940, Note_on_c, 0, 72, 80
2, 68988, Note_off_c, 0, 72, 64
2, 69000, Note_on_c, 0, 71, 80
2, 69048, Note_off_c, 0, 71, 64
2, 69060, Note_on_c, 0, 69, 80
2, 69108, Note_off_c, 0, 69, 64
2, 69120, Note_on_c, 0, 59, 80
2, 69120, Note_on_c, 0, 55, 80
2, 69120, Note_on_c, 0, 67, 80
2, 69168, Note_off_c, 0, 67, 64
2, 69180, Note_on_c, 0, 66, 80
2, 69228, Note_off_c, 0, 66, 64
2, 69240, Note_on_c, 0, 69, 80
2, 69288, Note_off_c, 0, 69, 64
2, 69300, Note_on_c, 0, 67, 80
2, 69312, Note_off_c, 0, 55, 64
2, 69312, Note_off_c, 0, 59, 64
2, 69348, Note_off_c, 0, 67, 64
2, 69360, Note_on_c, 0, 71, 80
2, 69408, Note_off_c, 0, 71, 64
2, 69420, Note_on_c, 0, 69, 80
2, 69468, Note_off_c, 0, 69, 64
2, 69480, Note_on_c, 0, 72, 80
2, 69528, Note_off_c, 0, 72, 64
2, 69540, Note_on_c, 0, 71, 80
2, 69588, Note_off_c, 0, 71, 64
2, 69600, Note_on_c, 0, 74, 80
2, 69696, Note_off_c, 0, 74, 64
2, 69720, Note_on_c, 0, 67, 80
2, 69720, Note_on_c, 0, 74, 80
2, 69720, Note_on_c, 0, 71, 80
2, 69816, Note_off_c, 0, 71, 64
2, 69816, Note_off_c, 0, 74, 64
2, 69816, Note_off_c, 0, 67, 64
2, 69840, Note_on_c, 0, 69, 80
2, 69840, Note_on_c, 0, 66, 80
2, 69840, Note_on_c, 0, 74, 80
2, 69936, Note_off_c, 0, 74, 64
2, 69936, Note_off_c, 0, 66, 64
2, 69936, Note_off_c, 0, 69, 64
2, 69960, Note_on_c, 0, 74, 80
2, 69960, Note_on_c, 0, 69, 80
2, 69960, Note_on_c, 0, 72, 80
2, 70056, Note_off_c, 0, 72, 64
2, 70056, Note_off_c, 0, 69, 64
2, 70056, Note_off_c, 0, 74, 64
2, 70080, Note_on_c, 0, 67, 80
2, 70080, Note_on_c, 0, 74, 80
2, 70080, Note_on_c, 0, 71, 80
2, 70176, Note_off_c, 0, 74, 64
2, 70200, Note_on_c, 0, 76, 80
2, 70248, Note_off_c, 0, 76, 64
2, 70260, Note_on_c, 0, 78, 80
2, 70272, Note_off_c, 0, 71, 64
2, 70272, Note_off_c, 0, 67, 64
2, 70308, Note_off_c, 0, 78, 64
2, 70320, Note_on_c, 0, 81, 80
2, 70368, Note_off_c, 0, 81, 64
2, 70380, Note_on_c, 0, 79, 80
2, 70428, Note_off_c, 0, 79, 64
2, 70440, Note_on_c, 0, 78, 80
2, 70488, Note_off_c, 0, 78, 64
2, 70500, Note_on_c, 0, 76, 80
2, 70548, Note_off_c, 0, 76, 64
2, 70560, Note_on_c, 0, 74, 80
2, 70656, Note_off_c, 0, 74, 64
2, 70680, Note_on_c, 0, 71, 80
2, 70680, Note_on_c, 0, 67, 80
2, 70680, Note_on_c, 0, 74, 80
2, 70776, Note_off_c, 0, 74, 64
2, 70776, Note_off_c, 0, 67, 64
2, 70776, Note_off_c, 0, 71, 64
2, 70800, Note_on_c, 0, 69, 80
2, 70800, Note_on_c, 0, 66, 80
2, 70800, Note_on_c, 0, 74, 80
2, 70896, Note_off_c, 0, 74, 64
2, 70896, Note_off_c, 0, 66, 64
2, 70896, Note_off_c, 0, 69, 64
2, 70920, Note_on_c, 0, 69, 80
2, 70920, Note_on_c, 0, 72, 80
2, 70920, Note_on_c, 0, 74, 80
2, 71016, Note_off_c, 0, 74, 64
2, 71016, Note_off_c, 0, 72, 64
2, 71016, Note_off_c, 0, 69, 64
2, 71040, Note_on_c, 0, 71, 80
2, 71040, Note_on_c, 0, 67, 80
2, 71040, Note_on_c, 0, 74, 80
2, 71136, Note_off_c, 0, 74, 64
2, 71160, Note_on_c, 0, 76, 80
2, 71208, Note_off_c, 0, 76, 64
2, 71220, Note_on_c, 0, 78, 80
2, 71232, Note_off_c, 0, 67, 64
2, 71232, Note_off_c, 0, 71, 64
2, 71268, Note_off_c, 0, 78, 64
2, 71280, Note_on_c, 0, 81, 80
2, 71328, Note_off_c, 0, 81, 64
2, 71340, Note_on_c, 0, 79, 80
2, 71388, Note_off_c, 0, 79, 64
2, 71400, Note_on_c, 0, 78, 80
2, 71400, Note_on_c, 0, 67, 80
2, 71400, Note_on_c, 0, 72, 80
2, 71448, Note_off_c, 0, 78, 64
2, 71460, Note_on_c, 0, 76, 80
2, 71496, Note_off_c, 0, 72, 64
2, 71496, Note_off_c, 0, 67, 64
2, 71508, Note_off_c, 0, 76, 64
2, 71520, Note_on_c, 0, 67, 80
2, 71520, Note_on_c, 0, 74, 80
2, 71520, Note_on_c, 0, 71, 80
2, 71616, Note_off_c, 0, 74, 64
2, 71640, Note_on_c, 0, 79, 80
2, 71688, Note_off_c, 0, 79, 64
2, 71700, Note_on_c, 0, 83, 80
2, 71712, Note_off_c, 0, 71, 64
2, 71712, Note_off_c, 0, 67, 64
2, 71748, Note_off_c, 0, 83, 64
2, 71760, Note_on_c, 0, 81, 80
2, 71808, Note_off_c, 0, 81, 64
2, 71820, Note_on_c, 0, 79, 80
2, 71868, Note_off_c, 0, 79, 64
2, 71880, Note_on_c, 0, 78, 80
2, 71928, Note_off_c, 0, 78, 64
2, 71940, Note_on_c, 0, 76, 80
2, 71988, Note_off_c, 0, 76, 64
2, 72000, Note_on_c, 0, 74, 80
2, 72120, Note_on_c, 0, 71, 80
2, 72192, Note_off_c, 0, 74, 64
2, 72216, Note_off_c, 0, 71, 64
2, 72240, Note_on_c, 0, 69, 80
2, 72240, Note_on_c, 0, 72, 80
2, 72288, Note_off_c, 0, 72, 64
2, 72300, Note_on_c, 0, 74, 80
2, 72324, Note_off_c, 0, 74, 64
2, 72330, Note_on_c, 0, 72, 80
2, 72336, Note_off_c, 0, 69, 64
2, 72354, Note_off_c, 0, 72, 64
2, 72360, Note_on_c, 0, 74, 80
2, 72360, Note_on_c, 0, 62, 80
2, 72384, Note_off_c, 0, 74, 64
2, 72390, Note_on_c, 0, 72, 80
2, 72414, Note_off_c, 0, 72, 64
2, 72420, Note_on_c, 0, 71, 80
2, 72444, Note_off_c, 0, 71, 64
2, 72450, Note_on_c, 0, 74, 80
2, 72456, Note_off_c, 0, 62, 64
2, 72474, Note_off_c, 0, 74, 64
2, 72480, Note_on_c, 0, 67, 80
2, 72480, Note_on_c, 0, 72, 80
2, 72576, Note_off_c, 0, 72, 64
2, 72576, Note_off_c, 0, 67, 64
2, 72600, Note_on_c, 0, 71, 80
2, 72600, Note_on_c, 0, 62, 80
2, 72696, Note_off_c, 0, 62, 64
2, 72696, Note_off_c, 0, 71, 64
2, 72720, Note_on_c, 0, 55, 80
2, 72816, Note_off_c, 0, 55, 64
2, 72840, Note_on_c, 0, 67, 80
2, 72840, Note_on_c, 0, 55, 80
2, 72840, Note_on_c, 0, 43, 80
2, 72936, Note_off_c, 0, 43, 64
2, 72936, Note_off_c, 0, 55, 64
2, 72936, Note_off_c, 0, 67, 64
2, 72960, Note_on_c, 0, 42, 80
2, 72960, Note_on_c, 0, 54, 80
2, 72960, Note_on_c, 0, 66, 80
2, 73056, Note_off_c, 0, 66, 64
2, 73056, Note_off_c, 0, 54, 64
2, 73056, Note_off_c, 0, 42, 64
2, 73080, Note_on_c, 0, 40, 80
2, 73080, Note_on_c, 0, 52, 80
2, 73080, Note_on_c, 0, 64, 80
2, 73176, Note_off_c, 0, 64, 64
2, 73176, Note_off_c, 0, 52, 64
2, 73176, Note_off_c, 0, 40, 64
2, 73200, Note_on_c, 0, 38, 80
2, 73200, Note_on_c, 0, 50, 80
2, 73200, Note_on_c, 0, 62, 80
2, 73296, Note_off_c, 0, 62, 64
2, 73296, Note_off_c, 0, 50, 64
2, 73296, Note_off_c, 0, 38, 64
2, 73320, Note_on_c, 0, 36, 80
2, 73320, Note_on_c, 0, 48, 80
2, 73320, Note_on_c, 0, 60, 80
2, 73416, Note_off_c, 0, 60, 64
2, 73416, Note_off_c, 0, 48, 64
2, 73416, Note_off_c, 0, 36, 64
2, 73440, Note_on_c, 0, 35, 80
2, 73440, Note_on_c, 0, 47, 80
2, 73440, Note_on_c, 0, 59, 80
2, 73632, Note_off_c, 0, 59, 64
2, 73632, Note_off_c, 0, 47, 64
2, 73632, Note_off_c, 0, 35, 64
2, 73800, Note_on_c, 0, 52, 80
2, 73800, Note_on_c, 0, 64, 80
2, 73824, Note_off_c, 0, 52, 64
2, 73832, Note_off_c, 0, 64, 64
2, 73840, Note_on_c, 0, 66, 80
2, 73872, Note_off_c, 0, 66, 64
2, 73880, Note_on_c, 0, 64, 80
2, 73912, Note_off_c, 0, 64, 64
2, 73920, Note_on_c, 0, 50, 80
2, 73920, Note_on_c, 0, 62, 80
2, 73944, Note_off_c, 0, 50, 64
2, 73952, Note_off_c, 0, 62, 64
2, 73960, Note_on_c, 0, 64, 80
2, 73992, Note_off_c, 0, 64, 64
2, 74000, Note_on_c, 0, 62, 80
2, 74032, Note_off_c, 0, 62, 64
2, 74040, Note_on_c, 0, 60, 80
2, 74040, Note_on_c, 0, 48, 80
2, 74064, Note_off_c, 0, 48, 64
2, 74072, Note_off_c, 0, 60, 64
2, 74080, Note_on_c, 0, 62, 80
2, 74112, Note_off_c, 0, 62, 64
2, 74120, Note_on_c, 0, 60, 80
2, 74152, Note_off_c, 0, 60, 64
2, 74160, Note_on_c, 0, 47, 80
2, 74160, Note_on_c, 0, 59, 80
2, 74184, Note_off_c, 0, 47, 64
2, 74192, Note_off_c, 0, 59, 64
2, 74200, Note_on_c, 0, 60, 80
2, 74232, Note_off_c, 0, 60, 64
2, 74240, Note_on_c, 0, 59, 80
2, 74272, Note_off_c, 0, 59, 64
2, 74280, Note_on_c, 0, 45, 80
2, 74280, Note_on_c, 0, 57, 80
2, 74304, Note_off_c, 0, 45, 64
2, 74312, Note_off_c, 0, 57, 64
2, 74320, Note_on_c, 0, 59, 80
2, 74352, Note_off_c, 0, 59, 64
2, 74360, Note_on_c, 0, 57, 80
2, 74392, Note_off_c, 0, 57, 64
2, 74400, Note_on_c, 0, 56, 80
2, 74400, Note_on_c, 0, 44, 80
2, 74424, Note_off_c, 0, 56, 64
2, 74448, Note_off_c, 0, 44, 64
2, 74460, Note_on_c, 0, 52, 80
2, 74508, Note_off_c, 0, 52, 64
2, 74520, Note_on_c, 0, 59, 80
2, 74520, Note_on_c, 0, 47, 80
2, 74544, Note_off_c, 0, 59, 64
2, 74568, Note_off_c, 0, 47, 64
2, 74580, Note_on_c, 0, 52, 80
2, 74628, Note_off_c, 0, 52, 64
2, 74640, Note_on_c, 0, 62, 80
2, 74640, Note_on_c, 0, 44, 80
2, 74664, Note_off_c, 0, 62, 64
2, 74688, Note_off_c, 0, 44, 64
2, 74700, Note_on_c, 0, 52, 80
2, 74748, Note_off_c, 0, 52, 64
2, 74760, Note_on_c, 0, 68, 80
2, 74760, Note_on_c, 0, 47, 80
2, 74784, Note_off_c, 0, 68, 64
2, 74808, Note_off_c, 0, 47, 64
2, 74820, Note_on_c, 0, 52, 80
2, 74868, Note_off_c, 0, 52, 64
2, 74880, Note_on_c, 0, 44, 80
2, 74880, Note_on_c, 0, 71, 80
2, 74904, Note_off_c, 0, 71, 64
2, 74928, Note_off_c, 0, 44, 64
2, 74940, Note_on_c, 0, 52, 80
2, 74988, Note_off_c, 0, 52, 64
2, 75000, Note_on_c, 0, 47, 80
2, 75000, Note_on_c, 0, 74, 80
2, 75024, Note_off_c, 0, 74, 64
2, 75048, Note_off_c, 0, 47, 64
2, 75060, Note_on_c, 0, 52, 80
2, 75108, Note_off_c, 0, 52, 64
2, 75120, Note_on_c, 0, 83, 80
2, 75120, Note_on_c, 0, 44, 80
2, 75168, Note_off_c, 0, 44, 64
2, 75180, Note_on_c, 0, 52, 80
2, 75228, Note_off_c, 0, 52, 64
2, 75240, Note_on_c, 0, 47, 80
2, 75264, Note_off_c, 0, 83, 64
2, 75288, Note_off_c, 0, 47, 64
2, 75300, Note_on_c, 0, 52, 80
2, 75300, Note_on_c, 0, 74, 80
2, 75348, Note_off_c, 0, 74, 64
2, 75348, Note_off_c, 0, 52, 64
2, 75360, Note_on_c, 0, 74, 80
2, 75360, Note_on_c, 0, 45, 80
2, 75408, Note_off_c, 0, 45, 64
2, 75408, Note_off_c, 0, 74, 64
2, 75420, Note_on_c, 0, 52, 80
2, 75420, Note_on_c, 0, 72, 80
2, 75468, Note_off_c, 0, 72, 64
2, 75468, Note_off_c, 0, 52, 64
2, 75480, Note_on_c, 0, 71, 80
2, 75480, Note_on_c, 0, 48, 80
2, 75528, Note_off_c, 0, 48, 64
2, 75528, Note_off_c, 0, 71, 64
2, 75540, Note_on_c, 0, 69, 80
2, 75540, Note_on_c, 0, 52, 80
2, 75588, Note_off_c, 0, 52, 64
2, 75588, Note_off_c, 0, 69, 64
2, 75600, Note_on_c, 0, 45, 80
2, 75600, Note_on_c, 0, 69, 80
2, 75624, Note_off_c, 0, 69, 64
2, 75648, Note_off_c, 0, 45, 64
2, 75660, Note_on_c, 0, 52, 80
2, 75708, Note_off_c, 0, 52, 64
2, 75720, Note_on_c, 0, 69, 80
2, 75720, Note_on_c, 0, 48, 80
2, 75744, Note_off_c, 0, 69, 64
2, 75768, Note_off_c, 0, 48, 64
2, 75780, Note_on_c, 0, 52, 80
2, 75828, Note_off_c, 0, 52, 64
2, 75840, Note_on_c, 0, 42, 80
2, 75840, Note_on_c, 0, 81, 80
2, 75840, Note_on_c, 0, 72, 80
2, 75888, Note_off_c, 0, 42, 64
2, 75900, Note_on_c, 0, 50, 80
2, 75948, Note_off_c, 0, 50, 64
2, 75960, Note_on_c, 0, 45, 80
2, 76008, Note_off_c, 0, 45, 64
2, 76020, Note_on_c, 0, 50, 80
2, 76068, Note_off_c, 0, 50, 64
2, 76080, Note_on_c, 0, 42, 80
2, 76128, Note_off_c, 0, 42, 64
2, 76128, Note_off_c, 0, 72, 64
2, 76128, Note_off_c, 0, 81, 64
2, 76140, Note_on_c, 0, 50, 80
2, 76188, Note_off_c, 0, 50, 64
2, 76200, Note_on_c, 0, 72, 80
2, 76200, Note_on_c, 0, 45, 80
2, 76224, Note_off_c, 0, 72, 64
2, 76248, Note_off_c, 0, 45, 64
2, 76260, Note_on_c, 0, 50, 80
2, 76308, Note_off_c, 0, 50, 64
2, 76320, Note_on_c, 0, 72, 80
2, 76320, Note_on_c, 0, 43, 80
2, 76368, Note_off_c, 0, 43, 64
2, 76368, Note_off_c, 0, 72, 64
2, 76380, Note_on_c, 0, 50, 80
2, 76380, Note_on_c, 0, 71, 80
2, 76428, Note_off_c, 0, 71, 64
2, 76428, Note_off_c, 0, 50, 64
2, 76440, Note_on_c, 0, 69, 80
2, 76440, Note_on_c, 0, 47, 80
2, 76488, Note_off_c, 0, 47, 64
2, 76488, Note_off_c, 0, 69, 64
2, 76500, Note_on_c, 0, 67, 80
2, 76500, Note_on_c, 0, 50, 80
2, 76548, Note_off_c, 0, 50, 64
2, 76548, Note_off_c, 0, 67, 64
2, 76560, Note_on_c, 0, 43, 80
2, 76560, Note_on_c, 0, 67, 80
2, 76584, Note_off_c, 0, 67, 64
2, 76608, Note_off_c, 0, 43, 64
2, 76620, Note_on_c, 0, 50, 80
2, 76668, Note_off_c, 0, 50, 64
2, 76680, Note_on_c, 0, 74, 80
2, 76680, Note_on_c, 0, 47, 80
2, 76704, Note_off_c, 0, 74, 64
2, 76728, Note_off_c, 0, 47, 64
2, 76740, Note_on_c, 0, 50, 80
2, 76788, Note_off_c, 0, 50, 64
2, 76800, Note_on_c, 0, 74, 80
2, 76800, Note_on_c, 0, 42, 80
2, 76848, Note_off_c, 0, 42, 64
2, 76848, Note_off_c, 0, 74, 64
2, 76860, Note_on_c, 0, 50, 80
2, 76860, Note_on_c, 0, 72, 80
2, 76908, Note_off_c, 0, 72, 64
2, 76908, Note_off_c, 0, 50, 64
2, 76920, Note_on_c, 0, 71, 80
2, 76920, Note_on_c, 0, 45, 80
2, 76968, Note_off_c, 0, 45, 64
2, 76968, Note_off_c, 0, 71, 64
2, 76980, Note_on_c, 0, 72, 80
2, 76980, Note_on_c, 0, 50, 80
2, 77028, Note_off_c, 0, 50, 64
2, 77028, Note_off_c, 0, 72, 64
2, 77040, Note_on_c, 0, 42, 80
2, 77040, Note_on_c, 0, 69, 80
2, 77064, Note_off_c, 0, 69, 64
2, 77088, Note_off_c, 0, 42, 64
2, 77100, Note_on_c, 0, 50, 80
2, 77148, Note_off_c, 0, 50, 64
2, 77160, Note_on_c, 0, 72, 80
2, 77160, Note_on_c, 0, 45, 80
2, 77184, Note_off_c, 0, 72, 64
2, 77208, Note_off_c, 0, 45, 64
2, 77220, Note_on_c, 0, 50, 80
2, 77268, Note_off_c, 0, 50, 64
2, 77280, Note_on_c, 0, 72, 80
2, 77280, Note_on_c, 0, 43, 80
2, 77328, Note_off_c, 0, 43, 64
2, 77328, Note_off_c, 0, 72, 64
2, 77340, Note_on_c, 0, 50, 80
2, 77340, Note_on_c, 0, 71, 80
2, 77388, Note_off_c, 0, 71, 64
2, 77388, Note_off_c, 0, 50, 64
2, 77400, Note_on_c, 0, 69, 80
2, 77400, Note_on_c, 0, 47, 80
2, 77448, Note_off_c, 0, 47, 64
2, 77448, Note_off_c, 0, 69, 64
2, 77460, Note_on_c, 0, 67, 80
2, 77460, Note_on_c, 0, 50, 80
2, 77508, Note_off_c, 0, 50, 64
2, 77508, Note_off_c, 0, 67, 64
2, 77520, Note_on_c, 0, 47, 80
2, 77520, Note_on_c, 0, 67, 80
2, 77544, Note_off_c, 0, 67, 64
2, 77568, Note_off_c, 0, 47, 64
2, 77580, Note_on_c, 0, 55, 80
2, 77628, Note_off_c, 0, 55, 64
2, 77640, Note_on_c, 0, 79, 80
2, 77640, Note_on_c, 0, 50, 80
2, 77664, Note_off_c, 0, 79, 64
2, 77688, Note_off_c, 0, 50, 64
2, 77700, Note_on_c, 0, 55, 80
2, 77748, Note_off_c, 0, 55, 64
2, 77760, Note_on_c, 0, 78, 80
2, 77760, Note_on_c, 0, 48, 80
2, 77808, Note_off_c, 0, 78, 64
2, 77820, Note_on_c, 0, 76, 80
2, 77868, Note_off_c, 0, 76, 64
2, 77880, Note_on_c, 0, 74, 80
2, 77928, Note_off_c, 0, 74, 64
2, 77940, Note_on_c, 0, 72, 80
2, 77952, Note_off_c, 0, 48, 64
2, 77988, Note_off_c, 0, 72, 64
2, 78000, Note_on_c, 0, 71, 80
2, 78048, Note_off_c, 0, 71, 64
2, 78060, Note_on_c, 0, 69, 80
2, 78108, Note_off_c, 0, 69, 64
2, 78120, Note_on_c, 0, 72, 80
2, 78168, Note_off_c, 0, 72, 64
2, 78180, Note_on_c, 0, 69, 80
2, 78228, Note_off_c, 0, 69, 64
2, 78240, Note_on_c, 0, 50, 80
2, 78240, Note_on_c, 0, 67, 80
2, 78336, Note_off_c, 0, 50, 64
2, 78360, Note_on_c, 0, 45, 80
2, 78432, Note_off_c, 0, 67, 64
2, 78456, Note_off_c, 0, 45, 64
2, 78480, Note_on_c, 0, 38, 80
2, 78480, Note_on_c, 0, 66, 80
2, 78576, Note_off_c, 0, 66, 64
2, 78576, Note_off_c, 0, 38, 64
2, 78600, Note_on_c, 0, 62, 80
2, 78624, Note_off_c, 0, 62, 64
2, 78720, Note_on_c, 0, 67, 80
2, 78720, Note_on_c, 0, 55, 80
2, 78768, Note_off_c, 0, 55, 64
2, 78780, Note_on_c, 0, 62, 80
2, 78828, Note_off_c, 0, 62, 64
2, 78840, Note_on_c, 0, 59, 80
2, 78888, Note_off_c, 0, 59, 64
2, 78900, Note_on_c, 0, 62, 80
2, 78912, Note_off_c, 0, 67, 64
2, 78948, Note_off_c, 0, 62, 64
2, 78960, Note_on_c, 0, 72, 80
2, 78960, Note_on_c, 0, 55, 80
2, 79008, Note_off_c, 0, 55, 64
2, 79008, Note_off_c, 0, 72, 64
2, 79020, Note_on_c, 0, 71, 80
2, 79020, Note_on_c, 0, 62, 80
2, 79068, Note_off_c, 0, 62, 64
2, 79068, Note_off_c, 0, 71, 64
2, 79080, Note_on_c, 0, 69, 80
2, 79080, Note_on_c, 0, 59, 80
2, 79128, Note_off_c, 0, 59, 64
2, 79128, Note_off_c, 0, 69, 64
2, 79140, Note_on_c, 0, 62, 80
2, 79140, Note_on_c, 0, 67, 80
2, 79188, Note_off_c, 0, 67, 64
2, 79188, Note_off_c, 0, 62, 64
2, 79200, Note_on_c, 0, 67, 80
2, 79200, Note_on_c, 0, 57, 80
2, 79248, Note_off_c, 0, 57, 64
2, 79260, Note_on_c, 0, 62, 80
2, 79296, Note_off_c, 0, 67, 64
2, 79308, Note_off_c, 0, 62, 64
2, 79320, Note_on_c, 0, 66, 80
2, 79320, Note_on_c, 0, 60, 80
2, 79368, Note_off_c, 0, 60, 64
2, 79380, Note_on_c, 0, 62, 80
2, 79416, Note_off_c, 0, 66, 64
2, 79428, Note_off_c, 0, 62, 64
2, 79440, Note_on_c, 0, 57, 80
2, 79488, Note_off_c, 0, 57, 64
2, 79500, Note_on_c, 0, 62, 80
2, 79548, Note_off_c, 0, 62, 64
2, 79560, Note_on_c, 0, 62, 80
2, 79560, Note_on_c, 0, 60, 80
2, 79584, Note_off_c, 0, 62, 64
2, 79608, Note_off_c, 0, 60, 64
2, 79620, Note_on_c, 0, 62, 80
2, 79668, Note_off_c, 0, 62, 64
2, 79680, Note_on_c, 0, 69, 80
2, 79680, Note_on_c, 0, 54, 80
2, 79728, Note_off_c, 0, 54, 64
2, 79740, Note_on_c, 0, 62, 80
2, 79788, Note_off_c, 0, 62, 64
2, 79800, Note_on_c, 0, 57, 80
2, 79848, Note_off_c, 0, 57, 64
2, 79860, Note_on_c, 0, 62, 80
2, 79872, Note_off_c, 0, 69, 64
2, 79908, Note_off_c, 0, 62, 64
2, 79920, Note_on_c, 0, 74, 80
2, 79920, Note_on_c, 0, 54, 80
2, 79968, Note_off_c, 0, 54, 64
2, 79968, Note_off_c, 0, 74, 64
2, 79980, Note_on_c, 0, 72, 80
2, 79980, Note_on_c, 0, 62, 80
2, 80028, Note_off_c, 0, 62, 64
2, 80028, Note_off_c, 0, 72, 64
2, 80040, Note_on_c, 0, 71, 80
2, 80040, Note_on_c, 0, 57, 80
2, 80088, Note_off_c, 0, 57, 64
2, 80088, Note_off_c, 0, 71, 64
2, 80100, Note_on_c, 0, 62, 80
2, 80100, Note_on_c, 0, 69, 80
2, 80148, Note_off_c, 0, 69, 64
2, 80148, Note_off_c, 0, 62, 64
2, 80160, Note_on_c, 0, 69, 80
2, 80160, Note_on_c, 0, 55, 80
2, 80208, Note_off_c, 0, 55, 64
2, 80220, Note_on_c, 0, 62, 80
2, 80256, Note_off_c, 0, 69, 64
2, 80268, Note_off_c, 0, 62, 64
2, 80280, Note_on_c, 0, 71, 80
2, 80280, Note_on_c, 0, 59, 80
2, 80328, Note_off_c, 0, 59, 64
2, 80340, Note_on_c, 0, 62, 80
2, 80376, Note_off_c, 0, 71, 64
2, 80388, Note_off_c, 0, 62, 64
2, 80400, Note_on_c, 0, 55, 80
2, 80448, Note_off_c, 0, 55, 64
2, 80460, Note_on_c, 0, 62, 80
2, 80508, Note_off_c, 0, 62, 64
2, 80520, Note_on_c, 0, 74, 80
2, 80520, Note_on_c, 0, 59, 80
2, 80544, Note_off_c, 0, 74, 64
2, 80568, Note_off_c, 0, 59, 64
2, 80580, Note_on_c, 0, 62, 80
2, 80628, Note_off_c, 0, 62, 64
2, 80640, Note_on_c, 0, 79, 80
2, 80640, Note_on_c, 0, 55, 80
2, 80688, Note_off_c, 0, 55, 64
2, 80700, Note_on_c, 0, 62, 80
2, 80748, Note_off_c, 0, 62, 64
2, 80760, Note_on_c, 0, 59, 80
2, 80808, Note_off_c, 0, 59, 64
2, 80820, Note_on_c, 0, 62, 80
2, 80832, Note_off_c, 0, 79, 64
2, 80868, Note_off_c, 0, 62, 64
2, 80880, Note_on_c, 0, 84, 80
2, 80880, Note_on_c, 0, 55, 80
2, 80928, Note_off_c, 0, 55, 64
2, 80928, Note_off_c, 0, 84, 64
2, 80940, Note_on_c, 0, 83, 80
2, 80940, Note_on_c, 0, 62, 80
2, 80988, Note_off_c, 0, 62, 64
2, 80988, Note_off_c, 0, 83, 64
2, 81000, Note_on_c, 0, 81, 80
2, 81000, Note_on_c, 0, 59, 80
2, 81048, Note_off_c, 0, 59, 64
2, 81048, Note_off_c, 0, 81, 64
2, 81060, Note_on_c, 0, 62, 80
2, 81060, Note_on_c, 0, 79, 80
2, 81108, Note_off_c, 0, 79, 64
2, 81108, Note_off_c, 0, 62, 64
2, 81120, Note_on_c, 0, 79, 80
2, 81120, Note_on_c, 0, 57, 80
2, 81168, Note_off_c, 0, 57, 64
2, 81180, Note_on_c, 0, 62, 80
2, 81216, Note_off_c, 0, 79, 64
2, 81228, Note_off_c, 0, 62, 64
2, 81240, Note_on_c, 0, 78, 80
2, 81240, Note_on_c, 0, 60, 80
2, 81288, Note_off_c, 0, 60, 64
2, 81300, Note_on_c, 0, 62, 80
2, 81336, Note_off_c, 0, 78, 64
2, 81348, Note_off_c, 0, 62, 64
2, 81360, Note_on_c, 0, 57, 80
2, 81408, Note_off_c, 0, 57, 64
2, 81420, Note_on_c, 0, 62, 80
2, 81468, Note_off_c, 0, 62, 64
2, 81480, Note_on_c, 0, 74, 80
2, 81480, Note_on_c, 0, 60, 80
2, 81504, Note_off_c, 0, 74, 64
2, 81528, Note_off_c, 0, 60, 64
2, 81540, Note_on_c, 0, 62, 80
2, 81588, Note_off_c, 0, 62, 64
2, 81600, Note_on_c, 0, 81, 80
2, 81600, Note_on_c, 0, 54, 80
2, 81648, Note_off_c, 0, 54, 64
2, 81660, Note_on_c, 0, 62, 80
2, 81708, Note_off_c, 0, 62, 64
2, 81720, Note_on_c, 0, 57, 80
2, 81768, Note_off_c, 0, 57, 64
2, 81780, Note_on_c, 0, 62, 80
2, 81792, Note_off_c, 0, 81, 64
2, 81828, Note_off_c, 0, 62, 64
2, 81840, Note_on_c, 0, 86, 80
2, 81840, Note_on_c, 0, 54, 80
2, 81888, Note_off_c, 0, 54, 64
2, 81888, Note_off_c, 0, 86, 64
2, 81900, Note_on_c, 0, 84, 80
2, 81900, Note_on_c, 0, 62, 80
2, 81948, Note_off_c, 0, 62, 64
2, 81948, Note_off_c, 0, 84, 64
2, 81960, Note_on_c, 0, 83, 80
2, 81960, Note_on_c, 0, 57, 80
2, 82008, Note_off_c, 0, 57, 64
2, 82008, Note_off_c, 0, 83, 64
2, 82020, Note_on_c, 0, 62, 80
2, 82020, Note_on_c, 0, 81, 80
2, 82068, Note_off_c, 0, 81, 64
2, 82068, Note_off_c, 0, 62, 64
2, 82080, Note_on_c, 0, 81, 80
2, 82080, Note_on_c, 0, 55, 80
2, 82128, Note_off_c, 0, 55, 64
2, 82140, Note_on_c, 0, 62, 80
2, 82176, Note_off_c, 0, 81, 64
2, 82188, Note_off_c, 0, 62, 64
2, 82200, Note_on_c, 0, 83, 80
2, 82200, Note_on_c, 0, 59, 80
2, 82248, Note_off_c, 0, 59, 64
2, 82260, Note_on_c, 0, 62, 80
2, 82296, Note_off_c, 0, 83, 64
2, 82308, Note_off_c, 0, 62, 64
2, 82320, Note_on_c, 0, 55, 80
2, 82368, Note_off_c, 0, 55, 64
2, 82380, Note_on_c, 0, 62, 80
2, 82428, Note_off_c, 0, 62, 64
2, 82440, Note_on_c, 0, 74, 80
2, 82440, Note_on_c, 0, 59, 80
2, 82464, Note_off_c, 0, 74, 64
2, 82488, Note_off_c, 0, 59, 64
2, 82500, Note_on_c, 0, 62, 80
2, 82548, Note_off_c, 0, 62, 64
2, 82560, Note_on_c, 0, 74, 80
2, 82560, Note_on_c, 0, 59, 80
2, 82608, Note_off_c, 0, 74, 64
2, 82620, Note_on_c, 0, 86, 80
2, 82668, Note_off_c, 0, 86, 64
2, 82680, Note_on_c, 0, 84, 80
2, 82728, Note_off_c, 0, 84, 64
2, 82740, Note_on_c, 0, 83, 80
2, 82752, Note_off_c, 0, 59, 64
2, 82788, Note_off_c, 0, 83, 64
2, 82800, Note_on_c, 0, 81, 80
2, 82848, Note_off_c, 0, 81, 64
2, 82860, Note_on_c, 0, 79, 80
2, 82908, Note_off_c, 0, 79, 64
2, 82920, Note_on_c, 0, 78, 80
2, 82968, Note_off_c, 0, 78, 64
2, 82980, Note_on_c, 0, 79, 80
2, 83028, Note_off_c, 0, 79, 64
2, 83040, Note_on_c, 0, 76, 80
2, 83040, Note_on_c, 0, 60, 80
2, 83064, Note_off_c, 0, 76, 64
2, 83088, Note_off_c, 0, 60, 64
2, 83100, Note_on_c, 0, 72, 80
2, 83148, Note_off_c, 0, 72, 64
2, 83160, Note_on_c, 0, 80, 80
2, 83160, Note_on_c, 0, 59, 80
2, 83184, Note_off_c, 0, 80, 64
2, 83208, Note_off_c, 0, 59, 64
2, 83220, Note_on_c, 0, 71, 80
2, 83268, Note_off_c, 0, 71, 64
2, 83280, Note_on_c, 0, 81, 80
2, 83280, Note_on_c, 0, 57, 80
2, 83304, Note_off_c, 0, 81, 64
2, 83328, Note_off_c, 0, 57, 64
2, 83340, Note_on_c, 0, 69, 80
2, 83388, Note_off_c, 0, 69, 64
2, 83400, Note_on_c, 0, 83, 80
2, 83400, Note_on_c, 0, 56, 80
2, 83424, Note_off_c, 0, 83, 64
2, 83448, Note_off_c, 0, 56, 64
2, 83460, Note_on_c, 0, 68, 80
2, 83508, Note_off_c, 0, 68, 64
2, 83520, Note_on_c, 0, 57, 80
2, 83580, Note_on_c, 0, 84, 80
2, 83628, Note_off_c, 0, 84, 64
2, 83640, Note_on_c, 0, 83, 80
2, 83688, Note_off_c, 0, 83, 64
2, 83700, Note_on_c, 0, 81, 80
2, 83712, Note_off_c, 0, 57, 64
2, 83748, Note_off_c, 0, 81, 64
2, 83760, Note_on_c, 0, 79, 80
2, 83808, Note_off_c, 0, 79, 64
2, 83820, Note_on_c, 0, 78, 80
2, 83868, Note_off_c, 0, 78, 64
2, 83880, Note_on_c, 0, 76, 80
2, 83928, Note_off_c, 0, 76, 64
2, 83940, Note_on_c, 0, 78, 80
2, 83988, Note_off_c, 0, 78, 64
2, 84000, Note_on_c, 0, 74, 80
2, 84000, Note_on_c, 0, 59, 80
2, 84024, Note_off_c, 0, 74, 64
2, 84048, Note_off_c, 0, 59, 64
2, 84060, Note_on_c, 0, 71, 80
2, 84108, Note_off_c, 0, 71, 64
2, 84120, Note_on_c, 0, 78, 80
2, 84120, Note_on_c, 0, 57, 80
2, 84144, Note_off_c, 0, 78, 64
2, 84168, Note_off_c, 0, 57, 64
2, 84180, Note_on_c, 0, 69, 80
2, 84228, Note_off_c, 0, 69, 64
2, 84240, Note_on_c, 0, 79, 80
2, 84240, Note_on_c, 0, 55, 80
2, 84264, Note_off_c, 0, 79, 64
2, 84288, Note_off_c, 0, 55, 64
2, 84300, Note_on_c, 0, 67, 80
2, 84348, Note_off_c, 0, 67, 64
2, 84360, Note_on_c, 0, 81, 80
2, 84360, Note_on_c, 0, 54, 80
2, 84384, Note_off_c, 0, 81, 64
2, 84408, Note_off_c, 0, 54, 64
2, 84420, Note_on_c, 0, 66, 80
2, 84468, Note_off_c, 0, 66, 64
2, 84480, Note_on_c, 0, 55, 80
2, 84540, Note_on_c, 0, 83, 80
2, 84588, Note_off_c, 0, 83, 64
2, 84600, Note_on_c, 0, 81, 80
2, 84648, Note_off_c, 0, 81, 64
2, 84660, Note_on_c, 0, 79, 80
2, 84672, Note_off_c, 0, 55, 64
2, 84708, Note_off_c, 0, 79, 64
2, 84720, Note_on_c, 0, 78, 80
2, 84768, Note_off_c, 0, 78, 64
2, 84780, Note_on_c, 0, 76, 80
2, 84828, Note_off_c, 0, 76, 64
2, 84840, Note_on_c, 0, 74, 80
2, 84888, Note_off_c, 0, 74, 64
2, 84900, Note_on_c, 0, 76, 80
2, 84948, Note_off_c, 0, 76, 64
2, 84960, Note_on_c, 0, 57, 80
2, 84960, Note_on_c, 0, 72, 80
2, 84984, Note_off_c, 0, 72, 64
2, 85008, Note_off_c, 0, 57, 64
2, 85020, Note_on_c, 0, 69, 80
2, 85068, Note_off_c, 0, 69, 64
2, 85080, Note_on_c, 0, 55, 80
2, 85080, Note_on_c, 0, 76, 80
2, 85104, Note_off_c, 0, 76, 64
2, 85128, Note_off_c, 0, 55, 64
2, 85140, Note_on_c, 0, 67, 80
2, 85188, Note_off_c, 0, 67, 64
2, 85200, Note_on_c, 0, 54, 80
2, 85200, Note_on_c, 0, 78, 80
2, 85224, Note_off_c, 0, 78, 64
2, 85248, Note_off_c, 0, 54, 64
2, 85260, Note_on_c, 0, 66, 80
2, 85308, Note_off_c, 0, 66, 64
2, 85320, Note_on_c, 0, 52, 80
2, 85320, Note_on_c, 0, 79, 80
2, 85344, Note_off_c, 0, 79, 64
2, 85368, Note_off_c, 0, 52, 64
2, 85380, Note_on_c, 0, 64, 80
2, 85428, Note_off_c, 0, 64, 64
2, 85440, Note_on_c, 0, 54, 80
2, 85500, Note_on_c, 0, 81, 80
2, 85548, Note_off_c, 0, 81, 64
2, 85560, Note_on_c, 0, 79, 80
2, 85608, Note_off_c, 0, 79, 64
2, 85620, Note_on_c, 0, 78, 80
2, 85632, Note_off_c, 0, 54, 64
2, 85668, Note_off_c, 0, 78, 64
2, 85680, Note_on_c, 0, 76, 80
2, 85728, Note_off_c, 0, 76, 64
2, 85740, Note_on_c, 0, 74, 80
2, 85788, Note_off_c, 0, 74, 64
2, 85800, Note_on_c, 0, 76, 80
2, 85848, Note_off_c, 0, 76, 64
2, 85860, Note_on_c, 0, 72, 80
2, 85908, Note_off_c, 0, 72, 64
2, 85920, Note_on_c, 0, 74, 80
2, 85920, Note_on_c, 0, 55, 80
2, 85968, Note_off_c, 0, 55, 64
2, 85980, Note_on_c, 0, 62, 80
2, 86016, Note_off_c, 0, 74, 64
2, 86028, Note_off_c, 0, 62, 64
2, 86040, Note_on_c, 0, 79, 80
2, 86040, Note_on_c, 0, 59, 80
2, 86088, Note_off_c, 0, 59, 64
2, 86100, Note_on_c, 0, 62, 80
2, 86136, Note_off_c, 0, 79, 64
2, 86148, Note_off_c, 0, 62, 64
2, 86160, Note_on_c, 0, 78, 80
2, 86160, Note_on_c, 0, 57, 80
2, 86208, Note_off_c, 0, 57, 64
2, 86220, Note_on_c, 0, 62, 80
2, 86256, Note_off_c, 0, 78, 64
2, 86268, Note_off_c, 0, 62, 64
2, 86280, Note_on_c, 0, 60, 80
2, 86280, Note_on_c, 0, 86, 80
2, 86328, Note_off_c, 0, 60, 64
2, 86340, Note_on_c, 0, 62, 80
2, 86376, Note_off_c, 0, 86, 64
2, 86388, Note_off_c, 0, 62, 64
2, 86400, Note_on_c, 0, 83, 80
2, 86400, Note_on_c, 0, 55, 80
2, 86448, Note_off_c, 0, 55, 64
2, 86460, Note_on_c, 0, 62, 80
2, 86496, Note_off_c, 0, 83, 64
2, 86508, Note_off_c, 0, 62, 64
2, 86520, Note_on_c, 0, 79, 80
2, 86520, Note_on_c, 0, 59, 80
2, 86568, Note_off_c, 0, 59, 64
2, 86580, Note_on_c, 0, 62, 80
2, 86616, Note_off_c, 0, 79, 64
2, 86628, Note_off_c, 0, 62, 64
2, 86640, Note_on_c, 0, 78, 80
2, 86640, Note_on_c, 0, 57, 80
2, 86688, Note_off_c, 0, 57, 64
2, 86700, Note_on_c, 0, 62, 80
2, 86736, Note_off_c, 0, 78, 64
2, 86748, Note_off_c, 0, 62, 64
2, 86760, Note_on_c, 0, 60, 80
2, 86760, Note_on_c, 0, 72, 80
2, 86808, Note_off_c, 0, 60, 64
2, 86820, Note_on_c, 0, 62, 80
2, 86856, Note_off_c, 0, 72, 64
2, 86868, Note_off_c, 0, 62, 64
2, 86880, Note_on_c, 0, 71, 80
2, 86880, Note_on_c, 0, 55, 80
2, 86904, Note_off_c, 0, 71, 64
2, 86928, Note_off_c, 0, 55, 64
2, 86940, Note_on_c, 0, 62, 80
2, 86988, Note_off_c, 0, 62, 64
2, 87000, Note_on_c, 0, 79, 80
2, 87000, Note_on_c, 0, 59, 80
2, 87032, Note_off_c, 0, 79, 64
2, 87040, Note_on_c, 0, 81, 80
2, 87048, Note_off_c, 0, 59, 64
2, 87060, Note_on_c, 0, 62, 80
2, 87072, Note_off_c, 0, 81, 64
2, 87080, Note_on_c, 0, 79, 80
2, 87108, Note_off_c, 0, 62, 64
2, 87112, Note_off_c, 0, 79, 64
2, 87120, Note_on_c, 0, 57, 80
2, 87120, Note_on_c, 0, 78, 80
2, 87168, Note_off_c, 0, 57, 64
2, 87180, Note_on_c, 0, 62, 80
2, 87216, Note_off_c, 0, 78, 64
2, 87228, Note_off_c, 0, 62, 64
2, 87240, Note_on_c, 0, 86, 80
2, 87240, Note_on_c, 0, 60, 80
2, 87264, Note_off_c, 0, 86, 64
2, 87288, Note_off_c, 0, 60, 64
2, 87300, Note_on_c, 0, 62, 80
2, 87348, Note_off_c, 0, 62, 64
2, 87360, Note_on_c, 0, 83, 80
2, 87360, Note_on_c, 0, 55, 80
2, 87384, Note_off_c, 0, 83, 64
2, 87408, Note_off_c, 0, 55, 64
2, 87420, Note_on_c, 0, 62, 80
2, 87468, Note_off_c, 0, 62, 64
2, 87480, Note_on_c, 0, 79, 80
2, 87480, Note_on_c, 0, 59, 80
2, 87504, Note_off_c, 0, 79, 64
2, 87528, Note_off_c, 0, 59, 64
2, 87540, Note_on_c, 0, 62, 80
2, 87588, Note_off_c, 0, 62, 64
2, 87600, Note_on_c, 0, 78, 80
2, 87600, Note_on_c, 0, 57, 80
2, 87624, Note_off_c, 0, 78, 64
2, 87648, Note_off_c, 0, 57, 64
2, 87660, Note_on_c, 0, 62, 80
2, 87708, Note_off_c, 0, 62, 64
2, 87720, Note_on_c, 0, 72, 80
2, 87720, Note_on_c, 0, 60, 80
2, 87744, Note_off_c, 0, 72, 64
2, 87768, Note_off_c, 0, 60, 64
2, 87780, Note_on_c, 0, 62, 80
2, 87828, Note_off_c, 0, 62, 64
2, 87840, Note_on_c, 0, 55, 80
2, 87840, Note_on_c, 0, 71, 80
2, 87888, Note_off_c, 0, 55, 64
2, 87900, Note_on_c, 0, 62, 80
2, 87936, Note_off_c, 0, 71, 64
2, 87948, Note_off_c, 0, 62, 64
2, 87960, Note_on_c, 0, 59, 80
2, 87960, Note_on_c, 0, 79, 80
2, 88008, Note_off_c, 0, 59, 64
2, 88020, Note_on_c, 0, 62, 80
2, 88056, Note_off_c, 0, 79, 64
2, 88068, Note_off_c, 0, 62, 64
2, 88080, Note_on_c, 0, 59, 80
2, 88080, Note_on_c, 0, 77, 80
2, 88128, Note_off_c, 0, 59, 64
2, 88140, Note_on_c, 0, 67, 80
2, 88176, Note_off_c, 0, 77, 64
2, 88188, Note_off_c, 0, 67, 64
2, 88200, Note_on_c, 0, 62, 80
2, 88200, Note_on_c, 0, 74, 80
2, 88248, Note_off_c, 0, 62, 64
2, 88260, Note_on_c, 0, 67, 80
2, 88296, Note_off_c, 0, 74, 64
2, 88308, Note_off_c, 0, 67, 64
2, 88320, Note_on_c, 0, 75, 80
2, 88320, Note_on_c, 0, 60, 80
2, 88368, Note_off_c, 0, 60, 64
2, 88380, Note_on_c, 0, 67, 80
2, 88428, Note_off_c, 0, 67, 64
2, 88440, Note_on_c, 0, 64, 80
2, 88488, Note_off_c, 0, 64, 64
2, 88500, Note_on_c, 0, 67, 80
2, 88512, Note_off_c, 0, 75, 64
2, 88548, Note_off_c, 0, 67, 64
2, 88560, Note_on_c, 0, 76, 80
2, 88560, Note_on_c, 0, 60, 80
2, 88608, Note_off_c, 0, 76, 64
2, 88656, Note_off_c, 0, 60, 64
2, 88680, Note_on_c, 0, 76, 80
2, 88728, Note_off_c, 0, 76, 64
2, 88740, Note_on_c, 0, 72, 80
2, 88788, Note_off_c, 0, 72, 64
2, 88800, Note_on_c, 0, 74, 80
2, 88848, Note_off_c, 0, 74, 64
2, 88860, Note_on_c, 0, 71, 80
2, 88908, Note_off_c, 0, 71, 64
2, 88920, Note_on_c, 0, 72, 80
2, 88968, Note_off_c, 0, 72, 64
2, 88980, Note_on_c, 0, 69, 80
2, 89028, Note_off_c, 0, 69, 64
2, 89040, Note_on_c, 0, 71, 80
2, 89088, Note_off_c, 0, 71, 64
2, 89100, Note_on_c, 0, 67, 80
2, 89148, Note_off_c, 0, 67, 64
2, 89160, Note_on_c, 0, 69, 80
2, 89160, Note_on_c, 0, 50, 80
2, 89208, Note_off_c, 0, 69, 64
2, 89220, Note_on_c, 0, 66, 80
2, 89256, Note_off_c, 0, 50, 64
2, 89268, Note_off_c, 0, 66, 64
2, 89280, Note_on_c, 0, 67, 80
2, 89280, Note_on_c, 0, 52, 80
2, 89304, Note_off_c, 0, 67, 64
2, 89328, Note_off_c, 0, 52, 64
2, 89340, Note_on_c, 0, 61, 80
2, 89388, Note_off_c, 0, 61, 64
2, 89400, Note_on_c, 0, 55, 80
2, 89400, Note_on_c, 0, 79, 80
2, 89424, Note_off_c, 0, 79, 64
2, 89448, Note_off_c, 0, 55, 64
2, 89460, Note_on_c, 0, 61, 80
2, 89508, Note_off_c, 0, 61, 64
2, 89520, Note_on_c, 0, 79, 80
2, 89520, Note_on_c, 0, 52, 80
2, 89544, Note_off_c, 0, 79, 64
2, 89568, Note_off_c, 0, 52, 64
2, 89580, Note_on_c, 0, 61, 80
2, 89628, Note_off_c, 0, 61, 64
2, 89640, Note_on_c, 0, 55, 80
2, 89640, Note_on_c, 0, 81, 80
2, 89664, Note_off_c, 0, 81, 64
2, 89670, Note_on_c, 0, 79, 80
2, 89688, Note_off_c, 0, 55, 64
2, 89694, Note_off_c, 0, 79, 64
2, 89700, Note_on_c, 0, 78, 80
2, 89700, Note_on_c, 0, 61, 80
2, 89724, Note_off_c, 0, 78, 64
2, 89730, Note_on_c, 0, 79, 80
2, 89748, Note_off_c, 0, 61, 64
2, 89754, Note_off_c, 0, 79, 64
2, 89760, Note_on_c, 0, 50, 80
2, 89760, Note_on_c, 0, 78, 80
2, 89808, Note_off_c, 0, 50, 64
2, 89820, Note_on_c, 0, 62, 80
2, 89856, Note_off_c, 0, 78, 64
2, 89868, Note_off_c, 0, 62, 64
2, 89880, Note_on_c, 0, 54, 80
2, 89880, Note_on_c, 0, 72, 80
2, 89904, Note_off_c, 0, 72, 64
2, 89928, Note_off_c, 0, 54, 64
2, 89940, Note_on_c, 0, 62, 80
2, 89988, Note_off_c, 0, 62, 64
2, 90000, Note_on_c, 0, 72, 80
2, 90000, Note_on_c, 0, 50, 80
2, 90024, Note_off_c, 0, 72, 64
2, 90048, Note_off_c, 0, 50, 64
2, 90060, Note_on_c, 0, 62, 80
2, 90108, Note_off_c, 0, 62, 64
2, 90120, Note_on_c, 0, 54, 80
2, 90120, Note_on_c, 0, 74, 80
2, 90144, Note_off_c, 0, 74, 64
2, 90150, Note_on_c, 0, 72, 80
2, 90168, Note_off_c, 0, 54, 64
2, 90174, Note_off_c, 0, 72, 64
2, 90180, Note_on_c, 0, 71, 80
2, 90180, Note_on_c, 0, 62, 80
2, 90204, Note_off_c, 0, 71, 64
2, 90210, Note_on_c, 0, 72, 80
2, 90228, Note_off_c, 0, 62, 64
2, 90234, Note_off_c, 0, 72, 64
2, 90240, Note_on_c, 0, 55, 80
2, 90240, Note_on_c, 0, 71, 80
2, 90288, Note_off_c, 0, 55, 64
2, 90300, Note_on_c, 0, 62, 80
2, 90336, Note_off_c, 0, 71, 64
2, 90348, Note_off_c, 0, 62, 64
2, 90360, Note_on_c, 0, 59, 80
2, 90360, Note_on_c, 0, 65, 80
2, 90384, Note_off_c, 0, 65, 64
2, 90408, Note_off_c, 0, 59, 64
2, 90420, Note_on_c, 0, 62, 80
2, 90468, Note_off_c, 0, 62, 64
2, 90480, Note_on_c, 0, 65, 80
2, 90480, Note_on_c, 0, 55, 80
2, 90504, Note_off_c, 0, 65, 64
2, 90528, Note_off_c, 0, 55, 64
2, 90540, Note_on_c, 0, 62, 80
2, 90588, Note_off_c, 0, 62, 64
2, 90600, Note_on_c, 0, 59, 80
2, 90600, Note_on_c, 0, 67, 80
2, 90624, Note_off_c, 0, 67, 64
2, 90630, Note_on_c, 0, 65, 80
2, 90648, Note_off_c, 0, 59, 64
2, 90654, Note_off_c, 0, 65, 64
2, 90660, Note_on_c, 0, 64, 80
2, 90660, Note_on_c, 0, 62, 80
2, 90684, Note_off_c, 0, 64, 64
2, 90690, Note_on_c, 0, 65, 80
2, 90708, Note_off_c, 0, 62, 64
2, 90714, Note_off_c, 0, 65, 64
2, 90720, Note_on_c, 0, 64, 80
2, 90720, Note_on_c, 0, 60, 80
2, 90816, Note_off_c, 0, 64, 64
2, 90840, Note_on_c, 0, 75, 80
2, 90888, Note_off_c, 0, 75, 64
2, 90900, Note_on_c, 0, 76, 80
2, 90912, Note_off_c, 0, 60, 64
2, 90948, Note_off_c, 0, 76, 64
2, 90960, Note_on_c, 0, 74, 80
2, 91008, Note_off_c, 0, 74, 64
2, 91020, Note_on_c, 0, 72, 80
2, 91068, Note_off_c, 0, 72, 64
2, 91080, Note_on_c, 0, 71, 80
2, 91128, Note_off_c, 0, 71, 64
2, 91140, Note_on_c, 0, 69, 80
2, 91188, Note_off_c, 0, 69, 64
2, 91200, Note_on_c, 0, 67, 80
2, 91320, Note_on_c, 0, 47, 80
2, 91392, Note_off_c, 0, 67, 64
2, 91416, Note_off_c, 0, 47, 64
2, 91440, Note_on_c, 0, 69, 80
2, 91440, Note_on_c, 0, 48, 80
2, 91488, Note_off_c, 0, 69, 64
2, 91500, Note_on_c, 0, 71, 80
2, 91524, Note_off_c, 0, 71, 64
2, 91530, Note_on_c, 0, 69, 80
2, 91536, Note_off_c, 0, 48, 64
2, 91554, Note_off_c, 0, 69, 64
2, 91560, Note_on_c, 0, 71, 80
2, 91560, Note_on_c, 0, 50, 80
2, 91584, Note_off_c, 0, 71, 64
2, 91590, Note_on_c, 0, 69, 80
2, 91614, Note_off_c, 0, 69, 64
2, 91620, Note_on_c, 0, 71, 80
2, 91644, Note_off_c, 0, 71, 64
2, 91650, Note_on_c, 0, 69, 80
2, 91656, Note_off_c, 0, 50, 64
2, 91674, Note_off_c, 0, 69, 64
2, 91680, Note_on_c, 0, 67, 80
2, 91680, Note_on_c, 0, 52, 80
2, 91704, Note_off_c, 0, 67, 64
2, 91728, Note_off_c, 0, 52, 64
2, 91740, Note_on_c, 0, 61, 80
2, 91788, Note_off_c, 0, 61, 64
2, 91800, Note_on_c, 0, 55, 80
2, 91800, Note_on_c, 0, 79, 80
2, 91824, Note_off_c, 0, 79, 64
2, 91848, Note_off_c, 0, 55, 64
2, 91860, Note_on_c, 0, 61, 80
2, 91908, Note_off_c, 0, 61, 64
2, 91920, Note_on_c, 0, 79, 80
2, 91920, Note_on_c, 0, 52, 80
2, 91944, Note_off_c, 0, 79, 64
2, 91968, Note_off_c, 0, 52, 64
2, 91980, Note_on_c, 0, 61, 80
2, 92028, Note_off_c, 0, 61, 64
2, 92040, Note_on_c, 0, 55, 80
2, 92040, Note_on_c, 0, 81, 80
2, 92064, Note_off_c, 0, 81, 64
2, 92070, Note_on_c, 0, 79, 80
2, 92088, Note_off_c, 0, 55, 64
2, 92094, Note_off_c, 0, 79, 64
2, 92100, Note_on_c, 0, 61, 80
2, 92100, Note_on_c, 0, 78, 80
2, 92124, Note_off_c, 0, 78, 64
2, 92130, Note_on_c, 0, 79, 80
2, 92148, Note_off_c, 0, 61, 64
2, 92154, Note_off_c, 0, 79, 64
2, 92160, Note_on_c, 0, 78, 80
2, 92160, Note_on_c, 0, 50, 80
2, 92208, Note_off_c, 0, 50, 64
2, 92220, Note_on_c, 0, 62, 80
2, 92256, Note_off_c, 0, 78, 64
2, 92268, Note_off_c, 0, 62, 64
2, 92280, Note_on_c, 0, 54, 80
2, 92280, Note_on_c, 0, 72, 80
2, 92304, Note_off_c, 0, 72, 64
2, 92328, Note_off_c, 0, 54, 64
2, 92340, Note_on_c, 0, 62, 80
2, 92388, Note_off_c, 0, 62, 64
2, 92400, Note_on_c, 0, 72, 80
2, 92400, Note_on_c, 0, 50, 80
2, 92424, Note_off_c, 0, 72, 64
2, 92448, Note_off_c, 0, 50, 64
2, 92460, Note_on_c, 0, 62, 80
2, 92508, Note_off_c, 0, 62, 64
2, 92520, Note_on_c, 0, 54, 80
2, 92520, Note_on_c, 0, 74, 80
2, 92544, Note_off_c, 0, 74, 64
2, 92550, Note_on_c, 0, 72, 80
2, 92568, Note_off_c, 0, 54, 64
2, 92574, Note_off_c, 0, 72, 64
2, 92580, Note_on_c, 0, 62, 80
2, 92580, Note_on_c, 0, 71, 80
2, 92604, Note_off_c, 0, 71, 64
2, 92610, Note_on_c, 0, 72, 80
2, 92628, Note_off_c, 0, 62, 64
2, 92634, Note_off_c, 0, 72, 64
2, 92640, Note_on_c, 0, 71, 80
2, 92640, Note_on_c, 0, 55, 80
2, 92688, Note_off_c, 0, 55, 64
2, 92700, Note_on_c, 0, 62, 80
2, 92736, Note_off_c, 0, 71, 64
2, 92748, Note_off_c, 0, 62, 64
2, 92760, Note_on_c, 0, 59, 80
2, 92760, Note_on_c, 0, 65, 80
2, 92784, Note_off_c, 0, 65, 64
2, 92808, Note_off_c, 0, 59, 64
2, 92820, Note_on_c, 0, 62, 80
2, 92868, Note_off_c, 0, 62, 64
2, 92880, Note_on_c, 0, 65, 80
2, 92880, Note_on_c, 0, 55, 80
2, 92904, Note_off_c, 0, 65, 64
2, 92928, Note_off_c, 0, 55, 64
2, 92940, Note_on_c, 0, 62, 80
2, 92988, Note_off_c, 0, 62, 64
2, 93000, Note_on_c, 0, 59, 80
2, 93000, Note_on_c, 0, 67, 80
2, 93024, Note_off_c, 0, 67, 64
2, 93030, Note_on_c, 0, 65, 80
2, 93048, Note_off_c, 0, 59, 64
2, 93054, Note_off_c, 0, 65, 64
2, 93060, Note_on_c, 0, 62, 80
2, 93060, Note_on_c, 0, 64, 80
2, 93084, Note_off_c, 0, 64, 64
2, 93090, Note_on_c, 0, 65, 80
2, 93108, Note_off_c, 0, 62, 64
2, 93114, Note_off_c, 0, 65, 64
2, 93120, Note_on_c, 0, 64, 80
2, 93120, Note_on_c, 0, 60, 80
2, 93216, Note_off_c, 0, 64, 64
2, 93240, Note_on_c, 0, 75, 80
2, 93288, Note_off_c, 0, 75, 64
2, 93300, Note_on_c, 0, 76, 80
2, 93312, Note_off_c, 0, 60, 64
2, 93348, Note_off_c, 0, 76, 64
2, 93360, Note_on_c, 0, 74, 80
2, 93408, Note_off_c, 0, 74, 64
2, 93420, Note_on_c, 0, 72, 80
2, 93468, Note_off_c, 0, 72, 64
2, 93480, Note_on_c, 0, 71, 80
2, 93528, Note_off_c, 0, 71, 64
2, 93540, Note_on_c, 0, 69, 80
2, 93588, Note_off_c, 0, 69, 64
2, 93600, Note_on_c, 0, 67, 80
2, 93720, Note_on_c, 0, 47, 80
2, 93792, Note_off_c, 0, 67, 64
2, 93816, Note_off_c, 0, 47, 64
2, 93840, Note_on_c, 0, 69, 80
2, 93840, Note_on_c, 0, 48, 80
2, 93888, Note_off_c, 0, 69, 64
2, 93900, Note_on_c, 0, 71, 80
2, 93924, Note_off_c, 0, 71, 64
2, 93930, Note_on_c, 0, 69, 80
2, 93936, Note_off_c, 0, 48, 64
2, 93954, Note_off_c, 0, 69, 64
2, 93960, Note_on_c, 0, 50, 80
2, 93960, Note_on_c, 0, 71, 80
2, 93984, Note_off_c, 0, 71, 64
2, 93990, Note_on_c, 0, 69, 80
2, 94014, Note_off_c, 0, 69, 64
2, 94020, Note_on_c, 0, 71, 80
2, 94044, Note_off_c, 0, 71, 64
2, 94050, Note_on_c, 0, 69, 80
2, 94056, Note_off_c, 0, 50, 64
2, 94074, Note_off_c, 0, 69, 64
2, 94080, Note_on_c, 0, 55, 80
2, 94080, Note_on_c, 0, 71, 80
2, 94128, Note_off_c, 0, 71, 64
2, 94140, Note_on_c, 0, 67, 80
2, 94176, Note_off_c, 0, 55, 64
2, 94188, Note_off_c, 0, 67, 64
2, 94200, Note_on_c, 0, 79, 80
2, 94200, Note_on_c, 0, 47, 80
2, 94248, Note_off_c, 0, 79, 64
2, 94260, Note_on_c, 0, 74, 80
2, 94296, Note_off_c, 0, 47, 64
2, 94308, Note_off_c, 0, 74, 64
2, 94320, Note_on_c, 0, 48, 80
2, 94320, Note_on_c, 0, 76, 80
2, 94368, Note_off_c, 0, 76, 64
2, 94380, Note_on_c, 0, 71, 80
2, 94428, Note_off_c, 0, 71, 64
2, 94440, Note_on_c, 0, 72, 80
2, 94488, Note_off_c, 0, 72, 64
2, 94500, Note_on_c, 0, 69, 80
2, 94512, Note_off_c, 0, 48, 64
2, 94548, Note_off_c, 0, 69, 64
2, 94560, Note_on_c, 0, 67, 80
2, 94680, Note_on_c, 0, 47, 80
2, 94752, Note_off_c, 0, 67, 64
2, 94776, Note_off_c, 0, 47, 64
2, 94800, Note_on_c, 0, 69, 80
2, 94800, Note_on_c, 0, 48, 80
2, 94848, Note_off_c, 0, 69, 64
2, 94860, Note_on_c, 0, 71, 80
2, 94884, Note_off_c, 0, 71, 64
2, 94890, Note_on_c, 0, 69, 80
2, 94896, Note_off_c, 0, 48, 64
2, 94914, Note_off_c, 0, 69, 64
2, 94920, Note_on_c, 0, 71, 80
2, 94920, Note_on_c, 0, 50, 80
2, 94944, Note_off_c, 0, 71, 64
2, 94950, Note_on_c, 0, 69, 80
2, 94974, Note_off_c, 0, 69, 64
2, 94980, Note_on_c, 0, 71, 80
2, 95004, Note_off_c, 0, 71, 64
2, 95010, Note_on_c, 0, 69, 80
2, 95016, Note_off_c, 0, 50, 64
2, 95034, Note_off_c, 0, 69, 64
2, 95040, Note_on_c, 0, 67, 80
2, 95040, Note_on_c, 0, 43, 80
2, 95088, Note_off_c, 0, 43, 64
2, 95100, Note_on_c, 0, 55, 80
2, 95136, Note_off_c, 0, 67, 64
2, 95148, Note_off_c, 0, 55, 64
2, 95160, Note_on_c, 0, 43, 80
2, 95208, Note_off_c, 0, 43, 64
2, 95220, Note_on_c, 0, 55, 80
2, 95268, Note_off_c, 0, 55, 64
2, 95280, Note_on_c, 0, 66, 80
2, 95280, Note_on_c, 0, 60, 80
2, 95280, Note_on_c, 0, 43, 80
2, 95328, Note_off_c, 0, 43, 64
2, 95340, Note_on_c, 0, 55, 80
2, 95376, Note_off_c, 0, 60, 64
2, 95376, Note_off_c, 0, 66, 64
2, 95388, Note_off_c, 0, 55, 64
2, 95400, Note_on_c, 0, 43, 80
2, 95448, Note_off_c, 0, 43, 64
2, 95460, Note_on_c, 0, 55, 80
2, 95508, Note_off_c, 0, 55, 64
2, 95520, Note_on_c, 0, 71, 80
2, 95520, Note_on_c, 0, 67, 80
2, 95520, Note_on_c, 0, 43, 80
2, 95568, Note_off_c, 0, 43, 64
2, 95580, Note_on_c, 0, 55, 80
2, 95616, Note_off_c, 0, 67, 64
2, 95616, Note_off_c, 0, 71, 64
2, 95628, Note_off_c, 0, 55, 64
2, 95640, Note_on_c, 0, 43, 80
2, 95688, Note_off_c, 0, 43, 64
2, 95700, Note_on_c, 0, 55, 80
2, 95748, Note_off_c, 0, 55, 64
2, 95760, Note_on_c, 0, 66, 80
2, 95760, Note_on_c, 0, 60, 80
2, 95760, Note_on_c, 0, 43, 80
2, 95808, Note_off_c, 0, 43, 64
2, 95820, Note_on_c, 0, 55, 80
2, 95856, Note_off_c, 0, 60, 64
2, 95856, Note_off_c, 0, 66, 64
2, 95868, Note_off_c, 0, 55, 64
2, 95880, Note_on_c, 0, 43, 80
2, 95928, Note_off_c, 0, 43, 64
2, 95940, Note_on_c, 0, 55, 80
2, 95988, Note_off_c, 0, 55, 64
2, 96000, Note_on_c, 0, 67, 80
2, 96000, Note_on_c, 0, 62, 80
2, 96000, Note_on_c, 0, 59, 80
2, 96000, Note_on_c, 0, 43, 80
2, 96192, Note_off_c, 0, 43, 64
2, 96192, Note_off_c, 0, 59, 64
2, 96192, Note_off_c, 0, 62, 64
2, 96192, Note_off_c, 0, 67, 64
2, 96192, End_track
0, 0, End_of_file
