0, 0, Header, 1, 2, 1024
1, 0, Start_track
1, 0, Time_signature, 3, 2, 24, 8
1, 0, Key_signature, 4, "major"
1, 0, Tempo, 375000
1, 147456, Time_signature, 1, 2, 24, 8
1, 147456, Key_signature, 1, "major"
1, 148480, Time_signature, 3, 2, 24, 8
1, 320512, Time_signature, 1, 3, 12, 8
1, 321024, Time_signature, 3, 2, 24, 8
1, 321024, Key_signature, 4, "major"
1, 468480, Time_signature, 1, 2, 24, 8
1, 468480, Key_signature, 1, "major"
1, 469504, Time_signature, 3, 2, 24, 8
1, 675328, End_track
2, 0, Start_track
2, 0, Title_t, "Acoustic Grand Piano"
2, 0, Program_c, 0, 0
2, 0, Note_on_c, 0, 71, 75
2, 0, Note_on_c, 0, 64, 75
2, 0, Note_on_c, 0, 68, 75
2, 1024, Note_off_c, 0, 71, 0
2, 1024, Note_on_c, 0, 71, 75
2, 1024, Note_off_c, 0, 64, 0
2, 1024, Note_off_c, 0, 68, 0
2, 1024, Note_on_c, 0, 64, 75
2, 1024, Note_on_c, 0, 68, 75
2, 2048, Note_off_c, 0, 71, 0
2, 2048, Note_on_c, 0, 71, 75
2, 2048, Note_off_c, 0, 64, 0
2, 2048, Note_off_c, 0, 68, 0
2, 2048, Note_on_c, 0, 64, 75
2, 2048, Note_on_c, 0, 68, 75
2, 3072, Note_off_c, 0, 71, 0
2, 3072, Note_off_c, 0, 64, 0
2, 3072, Note_off_c, 0, 68, 0
2, 3072, Note_on_c, 0, 71, 75
2, 3072, Note_on_c, 0, 64, 75
2, 3072, Note_on_c, 0, 68, 75
2, 3200, Note_off_c, 0, 71, 0
2, 3200, Note_on_c, 0, 73, 75
2, 3328, Note_off_c, 0, 73, 0
2, 3328, Note_on_c, 0, 71, 75
2, 3456, Note_off_c, 0, 71, 0
2, 3456, Note_on_c, 0, 73, 75
2, 3584, Note_off_c, 0, 73, 0
2, 3584, Note_on_c, 0, 71, 75
2, 3712, Note_off_c, 0, 71, 0
2, 3712, Note_on_c, 0, 73, 75
2, 3840, Note_off_c, 0, 73, 0
2, 3840, Note_on_c, 0, 71, 75
2, 3968, Note_off_c, 0, 71, 0
2, 3968, Note_on_c, 0, 73, 75
2, 4096, Note_off_c, 0, 73, 0
2, 4096, Note_on_c, 0, 71, 75
2, 4096, Note_off_c, 0, 64, 0
2, 4096, Note_off_c, 0, 68, 0
2, 4096, Note_on_c, 0, 64, 75
2, 4096, Note_on_c, 0, 68, 75
2, 4224, Note_off_c, 0, 71, 0
2, 4224, Note_on_c, 0, 73, 75
2, 4352, Note_off_c, 0, 73, 0
2, 4352, Note_on_c, 0, 71, 75
2, 4480, Note_off_c, 0, 71, 0
2, 4480, Note_on_c, 0, 73, 75
2, 4608, Note_off_c, 0, 73, 0
2, 4608, Note_on_c, 0, 71, 75
2, 4736, Note_off_c, 0, 71, 0
2, 4736, Note_on_c, 0, 73, 75
2, 4864, Note_off_c, 0, 73, 0
2, 4864, Note_on_c, 0, 71, 75
2, 4992, Note_off_c, 0, 71, 0
2, 4992, Note_on_c, 0, 73, 75
2, 5120, Note_off_c, 0, 73, 0
2, 5120, Note_on_c, 0, 76, 75
2, 5120, Note_off_c, 0, 64, 0
2, 5120, Note_off_c, 0, 68, 0
2, 5120, Note_on_c, 0, 64, 75
2, 5120, Note_on_c, 0, 68, 75
2, 5632, Note_off_c, 0, 76, 0
2, 5632, Note_on_c, 0, 75, 75
2, 6144, Note_off_c, 0, 75, 0
2, 6144, Note_off_c, 0, 64, 0
2, 6144, Note_off_c, 0, 68, 0
2, 6144, Note_on_c, 0, 75, 75
2, 6144, Note_on_c, 0, 64, 75
2, 6144, Note_on_c, 0, 69, 75
2, 6656, Note_off_c, 0, 75, 0
2, 6656, Note_on_c, 0, 73, 75
2, 7168, Note_off_c, 0, 73, 0
2, 7168, Note_on_c, 0, 73, 75
2, 7168, Note_off_c, 0, 64, 0
2, 7168, Note_off_c, 0, 69, 0
2, 7168, Note_on_c, 0, 64, 75
2, 7168, Note_on_c, 0, 69, 75
2, 7680, Note_off_c, 0, 73, 0
2, 7680, Note_on_c, 0, 81, 75
2, 8192, Note_off_c, 0, 81, 0
2, 8192, Note_on_c, 0, 81, 75
2, 8192, Note_off_c, 0, 64, 0
2, 8192, Note_off_c, 0, 69, 0
2, 8192, Note_on_c, 0, 64, 75
2, 8192, Note_on_c, 0, 69, 75
2, 8704, Note_off_c, 0, 81, 0
2, 8704, Note_on_c, 0, 73, 75
2, 9216, Note_off_c, 0, 73, 0
2, 9216, Note_off_c, 0, 64, 0
2, 9216, Note_off_c, 0, 69, 0
2, 9216, Note_on_c, 0, 73, 75
2, 9216, Note_on_c, 0, 64, 75
2, 9216, Note_on_c, 0, 69, 75
2, 9344, Note_off_c, 0, 73, 0
2, 9344, Note_on_c, 0, 75, 75
2, 9472, Note_off_c, 0, 75, 0
2, 9472, Note_on_c, 0, 73, 75
2, 9600, Note_off_c, 0, 73, 0
2, 9600, Note_on_c, 0, 75, 75
2, 9728, Note_off_c, 0, 75, 0
2, 9728, Note_on_c, 0, 71, 75
2, 10240, Note_off_c, 0, 71, 0
2, 10240, Note_on_c, 0, 71, 75
2, 10240, Note_off_c, 0, 64, 0
2, 10240, Note_off_c, 0, 69, 0
2, 10240, Note_on_c, 0, 64, 75
2, 10240, Note_on_c, 0, 68, 75
2, 11264, Note_off_c, 0, 64, 0
2, 11264, Note_off_c, 0, 68, 0
2, 11776, Note_off_c, 0, 71, 0
2, 11776, Note_on_c, 0, 83, 75
2, 12288, Note_off_c, 0, 83, 0
2, 12288, Note_on_c, 0, 83, 75
2, 12800, Note_off_c, 0, 83, 0
2, 12800, Note_on_c, 0, 81, 75
2, 13312, Note_off_c, 0, 81, 0
2, 13312, Note_on_c, 0, 81, 75
2, 13312, Note_on_c, 0, 61, 75
2, 13312, Note_on_c, 0, 64, 75
2, 14336, Note_off_c, 0, 61, 0
2, 14336, Note_off_c, 0, 64, 0
2, 14336, Note_on_c, 0, 59, 75
2, 14336, Note_on_c, 0, 63, 75
2, 14848, Note_off_c, 0, 81, 0
2, 14848, Note_on_c, 0, 80, 75
2, 15360, Note_off_c, 0, 80, 0
2, 15360, Note_off_c, 0, 59, 0
2, 15360, Note_off_c, 0, 63, 0
2, 15360, Note_on_c, 0, 80, 75
2, 15872, Note_off_c, 0, 80, 0
2, 15872, Note_on_c, 0, 78, 75
2, 16384, Note_off_c, 0, 78, 0
2, 16384, Note_on_c, 0, 78, 75
2, 16384, Note_on_c, 0, 57, 75
2, 16384, Note_on_c, 0, 61, 75
2, 17408, Note_off_c, 0, 57, 0
2, 17408, Note_off_c, 0, 61, 0
2, 17408, Note_on_c, 0, 56, 75
2, 17408, Note_on_c, 0, 59, 75
2, 17920, Note_off_c, 0, 78, 0
2, 17920, Note_on_c, 0, 76, 75
2, 18432, Note_off_c, 0, 76, 0
2, 18432, Note_off_c, 0, 56, 0
2, 18432, Note_off_c, 0, 59, 0
2, 18432, Note_on_c, 0, 75, 75
2, 18944, Note_off_c, 0, 75, 0
2, 18944, Note_on_c, 0, 78, 75
2, 19456, Note_off_c, 0, 78, 0
2, 19456, Note_on_c, 0, 78, 75
2, 19456, Note_on_c, 0, 51, 75
2, 19968, Note_off_c, 0, 78, 0
2, 19968, Note_on_c, 0, 81, 75
2, 20480, Note_off_c, 0, 81, 0
2, 20480, Note_on_c, 0, 78, 75
2, 20480, Note_on_c, 0, 81, 75
2, 20480, Note_off_c, 0, 51, 0
2, 20480, Note_on_c, 0, 52, 75
2, 20992, Note_off_c, 0, 78, 0
2, 20992, Note_off_c, 0, 81, 0
2, 20992, Note_on_c, 0, 76, 75
2, 20992, Note_on_c, 0, 80, 75
2, 21504, Note_off_c, 0, 76, 0
2, 21504, Note_off_c, 0, 80, 0
2, 21504, Note_off_c, 0, 52, 0
2, 21504, Note_on_c, 0, 76, 75
2, 21504, Note_on_c, 0, 80, 75
2, 21504, Note_on_c, 0, 59, 75
2, 22528, Note_off_c, 0, 76, 0
2, 22528, Note_off_c, 0, 80, 0
2, 22528, Note_on_c, 0, 75, 75
2, 22528, Note_on_c, 0, 78, 75
2, 22528, Note_off_c, 0, 59, 0
2, 22528, Note_on_c, 0, 54, 75
2, 23552, Note_off_c, 0, 75, 0
2, 23552, Note_off_c, 0, 78, 0
2, 23552, Note_off_c, 0, 54, 0
2, 23552, Note_on_c, 0, 47, 75
2, 24576, Note_off_c, 0, 47, 0
2, 24576, Note_on_c, 0, 71, 75
2, 24576, Note_on_c, 0, 64, 75
2, 24576, Note_on_c, 0, 68, 75
2, 25600, Note_off_c, 0, 71, 0
2, 25600, Note_on_c, 0, 71, 75
2, 25600, Note_off_c, 0, 64, 0
2, 25600, Note_off_c, 0, 68, 0
2, 25600, Note_on_c, 0, 64, 75
2, 25600, Note_on_c, 0, 68, 75
2, 26624, Note_off_c, 0, 71, 0
2, 26624, Note_on_c, 0, 71, 75
2, 26624, Note_off_c, 0, 64, 0
2, 26624, Note_off_c, 0, 68, 0
2, 26624, Note_on_c, 0, 64, 75
2, 26624, Note_on_c, 0, 68, 75
2, 27648, Note_off_c, 0, 71, 0
2, 27648, Note_off_c, 0, 64, 0
2, 27648, Note_off_c, 0, 68, 0
2, 27648, Note_on_c, 0, 71, 75
2, 27648, Note_on_c, 0, 64, 75
2, 27648, Note_on_c, 0, 68, 75
2, 27776, Note_off_c, 0, 71, 0
2, 27776, Note_on_c, 0, 73, 75
2, 27904, Note_off_c, 0, 73, 0
2, 27904, Note_on_c, 0, 71, 75
2, 28032, Note_off_c, 0, 71, 0
2, 28032, Note_on_c, 0, 73, 75
2, 28160, Note_off_c, 0, 73, 0
2, 28160, Note_on_c, 0, 71, 75
2, 28288, Note_off_c, 0, 71, 0
2, 28288, Note_on_c, 0, 73, 75
2, 28416, Note_off_c, 0, 73, 0
2, 28416, Note_on_c, 0, 71, 75
2, 28544, Note_off_c, 0, 71, 0
2, 28544, Note_on_c, 0, 73, 75
2, 28672, Note_off_c, 0, 73, 0
2, 28672, Note_on_c, 0, 71, 75
2, 28672, Note_off_c, 0, 64, 0
2, 28672, Note_off_c, 0, 68, 0
2, 28672, Note_on_c, 0, 64, 75
2, 28672, Note_on_c, 0, 68, 75
2, 28800, Note_off_c, 0, 71, 0
2, 28800, Note_on_c, 0, 73, 75
2, 28928, Note_off_c, 0, 73, 0
2, 28928, Note_on_c, 0, 71, 75
2, 29056, Note_off_c, 0, 71, 0
2, 29056, Note_on_c, 0, 73, 75
2, 29184, Note_off_c, 0, 73, 0
2, 29184, Note_on_c, 0, 71, 75
2, 29312, Note_off_c, 0, 71, 0
2, 29312, Note_on_c, 0, 73, 75
2, 29440, Note_off_c, 0, 73, 0
2, 29440, Note_on_c, 0, 71, 75
2, 29568, Note_off_c, 0, 71, 0
2, 29568, Note_on_c, 0, 73, 75
2, 29696, Note_off_c, 0, 73, 0
2, 29696, Note_on_c, 0, 76, 75
2, 29696, Note_off_c, 0, 64, 0
2, 29696, Note_off_c, 0, 68, 0
2, 29696, Note_on_c, 0, 64, 75
2, 29696, Note_on_c, 0, 68, 75
2, 30208, Note_off_c, 0, 76, 0
2, 30208, Note_on_c, 0, 75, 75
2, 30720, Note_off_c, 0, 75, 0
2, 30720, Note_off_c, 0, 64, 0
2, 30720, Note_off_c, 0, 68, 0
2, 30720, Note_on_c, 0, 75, 75
2, 30720, Note_on_c, 0, 64, 75
2, 30720, Note_on_c, 0, 69, 75
2, 31232, Note_off_c, 0, 75, 0
2, 31232, Note_on_c, 0, 73, 75
2, 31744, Note_off_c, 0, 73, 0
2, 31744, Note_on_c, 0, 73, 75
2, 31744, Note_off_c, 0, 64, 0
2, 31744, Note_off_c, 0, 69, 0
2, 31744, Note_on_c, 0, 64, 75
2, 31744, Note_on_c, 0, 69, 75
2, 32256, Note_off_c, 0, 73, 0
2, 32256, Note_on_c, 0, 81, 75
2, 32768, Note_off_c, 0, 81, 0
2, 32768, Note_on_c, 0, 81, 75
2, 32768, Note_off_c, 0, 64, 0
2, 32768, Note_off_c, 0, 69, 0
2, 32768, Note_on_c, 0, 64, 75
2, 32768, Note_on_c, 0, 69, 75
2, 33280, Note_off_c, 0, 81, 0
2, 33280, Note_on_c, 0, 73, 75
2, 33792, Note_off_c, 0, 73, 0
2, 33792, Note_off_c, 0, 64, 0
2, 33792, Note_off_c, 0, 69, 0
2, 33792, Note_on_c, 0, 73, 75
2, 33792, Note_on_c, 0, 64, 75
2, 33792, Note_on_c, 0, 69, 75
2, 33920, Note_off_c, 0, 73, 0
2, 33920, Note_on_c, 0, 75, 75
2, 34048, Note_off_c, 0, 75, 0
2, 34048, Note_on_c, 0, 73, 75
2, 34176, Note_off_c, 0, 73, 0
2, 34176, Note_on_c, 0, 75, 75
2, 34304, Note_off_c, 0, 75, 0
2, 34304, Note_on_c, 0, 71, 75
2, 34816, Note_off_c, 0, 71, 0
2, 34816, Note_on_c, 0, 71, 75
2, 34816, Note_off_c, 0, 64, 0
2, 34816, Note_off_c, 0, 69, 0
2, 34816, Note_on_c, 0, 64, 75
2, 34816, Note_on_c, 0, 68, 75
2, 35840, Note_off_c, 0, 64, 0
2, 35840, Note_off_c, 0, 68, 0
2, 36352, Note_off_c, 0, 71, 0
2, 36352, Note_on_c, 0, 83, 75
2, 36864, Note_off_c, 0, 83, 0
2, 36864, Note_on_c, 0, 83, 75
2, 37376, Note_off_c, 0, 83, 0
2, 37376, Note_on_c, 0, 81, 75
2, 37888, Note_off_c, 0, 81, 0
2, 37888, Note_on_c, 0, 81, 75
2, 37888, Note_on_c, 0, 61, 75
2, 37888, Note_on_c, 0, 64, 75
2, 38912, Note_off_c, 0, 61, 0
2, 38912, Note_off_c, 0, 64, 0
2, 38912, Note_on_c, 0, 59, 75
2, 38912, Note_on_c, 0, 63, 75
2, 39424, Note_off_c, 0, 81, 0
2, 39424, Note_on_c, 0, 80, 75
2, 39936, Note_off_c, 0, 80, 0
2, 39936, Note_off_c, 0, 59, 0
2, 39936, Note_off_c, 0, 63, 0
2, 39936, Note_on_c, 0, 80, 75
2, 40448, Note_off_c, 0, 80, 0
2, 40448, Note_on_c, 0, 78, 75
2, 40960, Note_off_c, 0, 78, 0
2, 40960, Note_on_c, 0, 78, 75
2, 40960, Note_on_c, 0, 57, 75
2, 40960, Note_on_c, 0, 61, 75
2, 41984, Note_off_c, 0, 57, 0
2, 41984, Note_off_c, 0, 61, 0
2, 41984, Note_on_c, 0, 56, 75
2, 41984, Note_on_c, 0, 59, 75
2, 42496, Note_off_c, 0, 78, 0
2, 42496, Note_on_c, 0, 76, 75
2, 43008, Note_off_c, 0, 76, 0
2, 43008, Note_off_c, 0, 56, 0
2, 43008, Note_off_c, 0, 59, 0
2, 43008, Note_on_c, 0, 75, 75
2, 43520, Note_off_c, 0, 75, 0
2, 43520, Note_on_c, 0, 78, 75
2, 44032, Note_off_c, 0, 78, 0
2, 44032, Note_on_c, 0, 78, 75
2, 44032, Note_on_c, 0, 51, 75
2, 44544, Note_off_c, 0, 78, 0
2, 44544, Note_on_c, 0, 81, 75
2, 45056, Note_off_c, 0, 81, 0
2, 45056, Note_on_c, 0, 78, 75
2, 45056, Note_on_c, 0, 81, 75
2, 45056, Note_off_c, 0, 51, 0
2, 45056, Note_on_c, 0, 52, 75
2, 45568, Note_off_c, 0, 78, 0
2, 45568, Note_off_c, 0, 81, 0
2, 45568, Note_on_c, 0, 76, 75
2, 45568, Note_on_c, 0, 80, 75
2, 46080, Note_off_c, 0, 76, 0
2, 46080, Note_off_c, 0, 80, 0
2, 46080, Note_off_c, 0, 52, 0
2, 46080, Note_on_c, 0, 76, 75
2, 46080, Note_on_c, 0, 80, 75
2, 46080, Note_on_c, 0, 59, 75
2, 47104, Note_off_c, 0, 76, 0
2, 47104, Note_off_c, 0, 80, 0
2, 47104, Note_on_c, 0, 75, 75
2, 47104, Note_on_c, 0, 78, 75
2, 47104, Note_off_c, 0, 59, 0
2, 47104, Note_on_c, 0, 54, 75
2, 48128, Note_off_c, 0, 75, 0
2, 48128, Note_off_c, 0, 78, 0
2, 48128, Note_off_c, 0, 54, 0
2, 48128, Note_on_c, 0, 47, 75
2, 49152, Note_off_c, 0, 47, 0
2, 49152, Note_on_c, 0, 71, 75
2, 49664, Note_off_c, 0, 71, 0
2, 49664, Note_on_c, 0, 75, 75
2, 50176, Note_off_c, 0, 75, 0
2, 50176, Note_on_c, 0, 75, 75
2, 50176, Note_on_c, 0, 59, 75
2, 50176, Note_on_c, 0, 69, 75
2, 51200, Note_off_c, 0, 59, 0
2, 51200, Note_off_c, 0, 69, 0
2, 51200, Note_on_c, 0, 59, 75
2, 51200, Note_on_c, 0, 69, 75
2, 51712, Note_off_c, 0, 75, 0
2, 51712, Note_on_c, 0, 71, 75
2, 52224, Note_off_c, 0, 71, 0
2, 52224, Note_off_c, 0, 59, 0
2, 52224, Note_off_c, 0, 69, 0
2, 52224, Note_on_c, 0, 71, 75
2, 52224, Note_on_c, 0, 66, 75
2, 52736, Note_off_c, 0, 71, 0
2, 52736, Note_on_c, 0, 75, 75
2, 53248, Note_off_c, 0, 75, 0
2, 53248, Note_on_c, 0, 78, 75
2, 53248, Note_off_c, 0, 66, 0
2, 53248, Note_on_c, 0, 63, 75
2, 53760, Note_off_c, 0, 78, 0
2, 53760, Note_on_c, 0, 81, 75
2, 54272, Note_off_c, 0, 81, 0
2, 54272, Note_on_c, 0, 81, 75
2, 54272, Note_off_c, 0, 63, 0
2, 54272, Note_on_c, 0, 64, 75
2, 54784, Note_off_c, 0, 81, 0
2, 54784, Note_on_c, 0, 80, 75
2, 55296, Note_off_c, 0, 80, 0
2, 55296, Note_off_c, 0, 64, 0
2, 55296, Note_on_c, 0, 80, 75
2, 55808, Note_off_c, 0, 80, 0
2, 55808, Note_on_c, 0, 78, 75
2, 56320, Note_off_c, 0, 78, 0
2, 56320, Note_on_c, 0, 78, 81
2, 56320, Note_on_c, 0, 57, 81
2, 56320, Note_on_c, 0, 61, 81
2, 57344, Note_off_c, 0, 57, 0
2, 57344, Note_off_c, 0, 61, 0
2, 57344, Note_on_c, 0, 57, 93
2, 57344, Note_on_c, 0, 61, 93
2, 57856, Note_off_c, 0, 78, 0
2, 57856, Note_on_c, 0, 81, 101
2, 58368, Note_off_c, 0, 81, 0
2, 58368, Note_off_c, 0, 57, 0
2, 58368, Note_off_c, 0, 61, 0
2, 58368, Note_on_c, 0, 80, 107
2, 58880, Note_off_c, 0, 80, 0
2, 58880, Note_on_c, 0, 78, 113
2, 59392, Note_off_c, 0, 78, 0
2, 59392, Note_on_c, 0, 78, 119
2, 59392, Note_on_c, 0, 57, 119
2, 59392, Note_on_c, 0, 61, 119
2, 60416, Note_off_c, 0, 57, 0
2, 60416, Note_off_c, 0, 61, 0
2, 60416, Note_on_c, 0, 57, 119
2, 60416, Note_on_c, 0, 61, 119
2, 60928, Note_off_c, 0, 78, 0
2, 60928, Note_on_c, 0, 81, 119
2, 61440, Note_off_c, 0, 81, 0
2, 61440, Note_off_c, 0, 57, 0
2, 61440, Note_off_c, 0, 61, 0
2, 61440, Note_on_c, 0, 80, 119
2, 61952, Note_off_c, 0, 80, 0
2, 61952, Note_on_c, 0, 78, 119
2, 62464, Note_off_c, 0, 78, 0
2, 62464, Note_on_c, 0, 78, 119
2, 62464, Note_on_c, 0, 57, 119
2, 62464, Note_on_c, 0, 61, 119
2, 62976, Note_off_c, 0, 78, 0
2, 62976, Note_on_c, 0, 85, 119
2, 63488, Note_off_c, 0, 85, 0
2, 63488, Note_on_c, 0, 85, 119
2, 63488, Note_off_c, 0, 57, 0
2, 63488, Note_off_c, 0, 61, 0
2, 63488, Note_on_c, 0, 58, 119
2, 63488, Note_on_c, 0, 61, 119
2, 64000, Note_off_c, 0, 85, 0
2, 64000, Note_on_c, 0, 76, 119
2, 64512, Note_off_c, 0, 76, 0
2, 64512, Note_off_c, 0, 58, 0
2, 64512, Note_off_c, 0, 61, 0
2, 64512, Note_on_c, 0, 76, 119
2, 64512, Note_on_c, 0, 59, 119
2, 65536, Note_off_c, 0, 76, 0
2, 65536, Note_on_c, 0, 75, 119
2, 65536, Note_off_c, 0, 59, 0
2, 65536, Note_on_c, 0, 54, 119
2, 66560, Note_off_c, 0, 75, 0
2, 66560, Note_off_c, 0, 54, 0
2, 66560, Note_on_c, 0, 47, 119
2, 67584, Note_off_c, 0, 47, 0
2, 67584, Note_on_c, 0, 71, 75
2, 67584, Note_on_c, 0, 64, 75
2, 67584, Note_on_c, 0, 68, 75
2, 68608, Note_off_c, 0, 71, 0
2, 68608, Note_on_c, 0, 71, 75
2, 68608, Note_off_c, 0, 64, 0
2, 68608, Note_off_c, 0, 68, 0
2, 68608, Note_on_c, 0, 64, 75
2, 68608, Note_on_c, 0, 68, 75
2, 69632, Note_off_c, 0, 71, 0
2, 69632, Note_on_c, 0, 71, 75
2, 69632, Note_off_c, 0, 64, 0
2, 69632, Note_off_c, 0, 68, 0
2, 69632, Note_on_c, 0, 64, 75
2, 69632, Note_on_c, 0, 68, 75
2, 70656, Note_off_c, 0, 71, 0
2, 70656, Note_off_c, 0, 64, 0
2, 70656, Note_off_c, 0, 68, 0
2, 70656, Note_on_c, 0, 71, 75
2, 70656, Note_on_c, 0, 64, 75
2, 70656, Note_on_c, 0, 68, 75
2, 70784, Note_off_c, 0, 71, 0
2, 70784, Note_on_c, 0, 73, 75
2, 70912, Note_off_c, 0, 73, 0
2, 70912, Note_on_c, 0, 71, 75
2, 71040, Note_off_c, 0, 71, 0
2, 71040, Note_on_c, 0, 73, 75
2, 71168, Note_off_c, 0, 73, 0
2, 71168, Note_on_c, 0, 71, 75
2, 71296, Note_off_c, 0, 71, 0
2, 71296, Note_on_c, 0, 73, 75
2, 71424, Note_off_c, 0, 73, 0
2, 71424, Note_on_c, 0, 71, 75
2, 71552, Note_off_c, 0, 71, 0
2, 71552, Note_on_c, 0, 73, 75
2, 71680, Note_off_c, 0, 73, 0
2, 71680, Note_on_c, 0, 71, 75
2, 71680, Note_off_c, 0, 64, 0
2, 71680, Note_off_c, 0, 68, 0
2, 71680, Note_on_c, 0, 64, 75
2, 71680, Note_on_c, 0, 68, 75
2, 71808, Note_off_c, 0, 71, 0
2, 71808, Note_on_c, 0, 73, 75
2, 71936, Note_off_c, 0, 73, 0
2, 71936, Note_on_c, 0, 71, 75
2, 72064, Note_off_c, 0, 71, 0
2, 72064, Note_on_c, 0, 73, 75
2, 72192, Note_off_c, 0, 73, 0
2, 72192, Note_on_c, 0, 71, 75
2, 72320, Note_off_c, 0, 71, 0
2, 72320, Note_on_c, 0, 73, 75
2, 72448, Note_off_c, 0, 73, 0
2, 72448, Note_on_c, 0, 71, 75
2, 72576, Note_off_c, 0, 71, 0
2, 72576, Note_on_c, 0, 73, 75
2, 72704, Note_off_c, 0, 73, 0
2, 72704, Note_on_c, 0, 76, 75
2, 72704, Note_off_c, 0, 64, 0
2, 72704, Note_off_c, 0, 68, 0
2, 72704, Note_on_c, 0, 64, 75
2, 72704, Note_on_c, 0, 68, 75
2, 73216, Note_off_c, 0, 76, 0
2, 73216, Note_on_c, 0, 75, 75
2, 73728, Note_off_c, 0, 75, 0
2, 73728, Note_off_c, 0, 64, 0
2, 73728, Note_off_c, 0, 68, 0
2, 73728, Note_on_c, 0, 75, 75
2, 73728, Note_on_c, 0, 64, 75
2, 73728, Note_on_c, 0, 69, 75
2, 74240, Note_off_c, 0, 75, 0
2, 74240, Note_on_c, 0, 73, 75
2, 74752, Note_off_c, 0, 73, 0
2, 74752, Note_on_c, 0, 73, 75
2, 74752, Note_off_c, 0, 64, 0
2, 74752, Note_off_c, 0, 69, 0
2, 74752, Note_on_c, 0, 64, 75
2, 74752, Note_on_c, 0, 69, 75
2, 75264, Note_off_c, 0, 73, 0
2, 75264, Note_on_c, 0, 81, 75
2, 75776, Note_off_c, 0, 81, 0
2, 75776, Note_on_c, 0, 81, 75
2, 75776, Note_off_c, 0, 64, 0
2, 75776, Note_off_c, 0, 69, 0
2, 75776, Note_on_c, 0, 64, 75
2, 75776, Note_on_c, 0, 69, 75
2, 76288, Note_off_c, 0, 81, 0
2, 76288, Note_on_c, 0, 73, 75
2, 76800, Note_off_c, 0, 73, 0
2, 76800, Note_off_c, 0, 64, 0
2, 76800, Note_off_c, 0, 69, 0
2, 76800, Note_on_c, 0, 73, 75
2, 76800, Note_on_c, 0, 64, 75
2, 76800, Note_on_c, 0, 69, 75
2, 76928, Note_off_c, 0, 73, 0
2, 76928, Note_on_c, 0, 75, 75
2, 77056, Note_off_c, 0, 75, 0
2, 77056, Note_on_c, 0, 73, 75
2, 77184, Note_off_c, 0, 73, 0
2, 77184, Note_on_c, 0, 75, 75
2, 77312, Note_off_c, 0, 75, 0
2, 77312, Note_on_c, 0, 71, 75
2, 77824, Note_off_c, 0, 71, 0
2, 77824, Note_on_c, 0, 71, 75
2, 77824, Note_off_c, 0, 64, 0
2, 77824, Note_off_c, 0, 69, 0
2, 77824, Note_on_c, 0, 64, 75
2, 77824, Note_on_c, 0, 68, 75
2, 78848, Note_off_c, 0, 64, 0
2, 78848, Note_off_c, 0, 68, 0
2, 79360, Note_off_c, 0, 71, 0
2, 79360, Note_on_c, 0, 83, 75
2, 79872, Note_off_c, 0, 83, 0
2, 79872, Note_on_c, 0, 83, 75
2, 80384, Note_off_c, 0, 83, 0
2, 80384, Note_on_c, 0, 81, 75
2, 80896, Note_off_c, 0, 81, 0
2, 80896, Note_on_c, 0, 81, 75
2, 80896, Note_on_c, 0, 61, 75
2, 80896, Note_on_c, 0, 64, 75
2, 81920, Note_off_c, 0, 61, 0
2, 81920, Note_off_c, 0, 64, 0
2, 81920, Note_on_c, 0, 59, 75
2, 81920, Note_on_c, 0, 63, 75
2, 82432, Note_off_c, 0, 81, 0
2, 82432, Note_on_c, 0, 80, 75
2, 82944, Note_off_c, 0, 80, 0
2, 82944, Note_off_c, 0, 59, 0
2, 82944, Note_off_c, 0, 63, 0
2, 82944, Note_on_c, 0, 80, 75
2, 83456, Note_off_c, 0, 80, 0
2, 83456, Note_on_c, 0, 78, 75
2, 83968, Note_off_c, 0, 78, 0
2, 83968, Note_on_c, 0, 78, 75
2, 83968, Note_on_c, 0, 57, 75
2, 83968, Note_on_c, 0, 61, 75
2, 84992, Note_off_c, 0, 57, 0
2, 84992, Note_off_c, 0, 61, 0
2, 84992, Note_on_c, 0, 56, 75
2, 84992, Note_on_c, 0, 59, 75
2, 85504, Note_off_c, 0, 78, 0
2, 85504, Note_on_c, 0, 76, 75
2, 86016, Note_off_c, 0, 76, 0
2, 86016, Note_off_c, 0, 56, 0
2, 86016, Note_off_c, 0, 59, 0
2, 86016, Note_on_c, 0, 76, 101
2, 86528, Note_off_c, 0, 76, 0
2, 86528, Note_on_c, 0, 85, 101
2, 87040, Note_off_c, 0, 85, 0
2, 87040, Note_on_c, 0, 85, 101
2, 87040, Note_on_c, 0, 45, 101
2, 87040, Note_on_c, 0, 57, 101
2, 88064, Note_off_c, 0, 45, 0
2, 88064, Note_off_c, 0, 57, 0
2, 88064, Note_on_c, 0, 44, 101
2, 88064, Note_on_c, 0, 56, 101
2, 88576, Note_off_c, 0, 85, 0
2, 88576, Note_on_c, 0, 83, 101
2, 89088, Note_off_c, 0, 83, 0
2, 89088, Note_off_c, 0, 44, 0
2, 89088, Note_off_c, 0, 56, 0
2, 89088, Note_on_c, 0, 83, 101
2, 89600, Note_off_c, 0, 83, 0
2, 89600, Note_on_c, 0, 81, 101
2, 90112, Note_off_c, 0, 81, 0
2, 90112, Note_on_c, 0, 81, 101
2, 90112, Note_on_c, 0, 42, 101
2, 90112, Note_on_c, 0, 54, 101
2, 91136, Note_off_c, 0, 42, 0
2, 91136, Note_off_c, 0, 54, 0
2, 91136, Note_on_c, 0, 40, 101
2, 91136, Note_on_c, 0, 52, 101
2, 91648, Note_off_c, 0, 81, 0
2, 91648, Note_on_c, 0, 80, 101
2, 92160, Note_off_c, 0, 80, 0
2, 92160, Note_off_c, 0, 40, 0
2, 92160, Note_off_c, 0, 52, 0
2, 92160, Note_on_c, 0, 80, 101
2, 92160, Note_on_c, 0, 45, 101
2, 92160, Note_on_c, 0, 57, 101
2, 92672, Note_off_c, 0, 80, 0
2, 92672, Note_on_c, 0, 78, 101
2, 93184, Note_off_c, 0, 78, 0
2, 93184, Note_on_c, 0, 78, 101
2, 93184, Note_off_c, 0, 45, 0
2, 93184, Note_off_c, 0, 57, 0
2, 93184, Note_on_c, 0, 47, 101
2, 93184, Note_on_c, 0, 56, 101
2, 93696, Note_off_c, 0, 78, 0
2, 93696, Note_on_c, 0, 76, 101
2, 94208, Note_off_c, 0, 76, 0
2, 94208, Note_on_c, 0, 76, 101
2, 94208, Note_off_c, 0, 47, 0
2, 94208, Note_off_c, 0, 56, 0
2, 94208, Note_on_c, 0, 47, 101
2, 94208, Note_on_c, 0, 54, 101
2, 94720, Note_off_c, 0, 76, 0
2, 94720, Note_on_c, 0, 75, 101
2, 95232, Note_off_c, 0, 75, 0
2, 95232, Note_off_c, 0, 47, 0
2, 95232, Note_off_c, 0, 54, 0
2, 95232, Note_on_c, 0, 75, 101
2, 95232, Note_on_c, 0, 52, 101
2, 96256, Note_off_c, 0, 75, 0
2, 96256, Note_on_c, 0, 76, 101
2, 96256, Note_off_c, 0, 52, 0
2, 96256, Note_on_c, 0, 47, 101
2, 97280, Note_off_c, 0, 76, 0
2, 97280, Note_off_c, 0, 47, 0
2, 97280, Note_on_c, 0, 40, 101
2, 98304, Note_off_c, 0, 40, 0
2, 98304, Note_on_c, 0, 71, 75
2, 98816, Note_off_c, 0, 71, 0
2, 98816, Note_on_c, 0, 75, 75
2, 99328, Note_off_c, 0, 75, 0
2, 99328, Note_on_c, 0, 75, 75
2, 99328, Note_on_c, 0, 59, 75
2, 99328, Note_on_c, 0, 69, 75
2, 100352, Note_off_c, 0, 59, 0
2, 100352, Note_off_c, 0, 69, 0
2, 100352, Note_on_c, 0, 59, 75
2, 100352, Note_on_c, 0, 69, 75
2, 100864, Note_off_c, 0, 75, 0
2, 100864, Note_on_c, 0, 71, 75
2, 101376, Note_off_c, 0, 71, 0
2, 101376, Note_off_c, 0, 59, 0
2, 101376, Note_off_c, 0, 69, 0
2, 101376, Note_on_c, 0, 71, 75
2, 101376, Note_on_c, 0, 66, 75
2, 101888, Note_off_c, 0, 71, 0
2, 101888, Note_on_c, 0, 75, 75
2, 102400, Note_off_c, 0, 75, 0
2, 102400, Note_on_c, 0, 78, 75
2, 102400, Note_off_c, 0, 66, 0
2, 102400, Note_on_c, 0, 63, 75
2, 102912, Note_off_c, 0, 78, 0
2, 102912, Note_on_c, 0, 81, 75
2, 103424, Note_off_c, 0, 81, 0
2, 103424, Note_on_c, 0, 81, 75
2, 103424, Note_off_c, 0, 63, 0
2, 103424, Note_on_c, 0, 64, 75
2, 103936, Note_off_c, 0, 81, 0
2, 103936, Note_on_c, 0, 80, 75
2, 104448, Note_off_c, 0, 80, 0
2, 104448, Note_off_c, 0, 64, 0
2, 104448, Note_on_c, 0, 80, 75
2, 104960, Note_off_c, 0, 80, 0
2, 104960, Note_on_c, 0, 78, 75
2, 105472, Note_off_c, 0, 78, 0
2, 105472, Note_on_c, 0, 78, 81
2, 105472, Note_on_c, 0, 57, 81
2, 105472, Note_on_c, 0, 61, 81
2, 106496, Note_off_c, 0, 57, 0
2, 106496, Note_off_c, 0, 61, 0
2, 106496, Note_on_c, 0, 57, 93
2, 106496, Note_on_c, 0, 61, 93
2, 107008, Note_off_c, 0, 78, 0
2, 107008, Note_on_c, 0, 81, 101
2, 107520, Note_off_c, 0, 81, 0
2, 107520, Note_off_c, 0, 57, 0
2, 107520, Note_off_c, 0, 61, 0
2, 107520, Note_on_c, 0, 80, 107
2, 108032, Note_off_c, 0, 80, 0
2, 108032, Note_on_c, 0, 78, 113
2, 108544, Note_off_c, 0, 78, 0
2, 108544, Note_on_c, 0, 78, 119
2, 108544, Note_on_c, 0, 57, 119
2, 108544, Note_on_c, 0, 61, 119
2, 109568, Note_off_c, 0, 57, 0
2, 109568, Note_off_c, 0, 61, 0
2, 109568, Note_on_c, 0, 57, 119
2, 109568, Note_on_c, 0, 61, 119
2, 110080, Note_off_c, 0, 78, 0
2, 110080, Note_on_c, 0, 81, 119
2, 110592, Note_off_c, 0, 81, 0
2, 110592, Note_off_c, 0, 57, 0
2, 110592, Note_off_c, 0, 61, 0
2, 110592, Note_on_c, 0, 80, 119
2, 111104, Note_off_c, 0, 80, 0
2, 111104, Note_on_c, 0, 78, 119
2, 111616, Note_off_c, 0, 78, 0
2, 111616, Note_on_c, 0, 78, 119
2, 111616, Note_on_c, 0, 57, 119
2, 111616, Note_on_c, 0, 61, 119
2, 112128, Note_off_c, 0, 78, 0
2, 112128, Note_on_c, 0, 85, 119
2, 112640, Note_off_c, 0, 85, 0
2, 112640, Note_on_c, 0, 85, 119
2, 112640, Note_off_c, 0, 57, 0
2, 112640, Note_off_c, 0, 61, 0
2, 112640, Note_on_c, 0, 58, 119
2, 112640, Note_on_c, 0, 61, 119
2, 113152, Note_off_c, 0, 85, 0
2, 113152, Note_on_c, 0, 76, 119
2, 113664, Note_off_c, 0, 76, 0
2, 113664, Note_off_c, 0, 58, 0
2, 113664, Note_off_c, 0, 61, 0
2, 113664, Note_on_c, 0, 76, 119
2, 113664, Note_on_c, 0, 59, 119
2, 114688, Note_off_c, 0, 76, 0
2, 114688, Note_on_c, 0, 75, 119
2, 114688, Note_off_c, 0, 59, 0
2, 114688, Note_on_c, 0, 54, 119
2, 115712, Note_off_c, 0, 75, 0
2, 115712, Note_off_c, 0, 54, 0
2, 115712, Note_on_c, 0, 47, 119
2, 116736, Note_off_c, 0, 47, 0
2, 116736, Note_on_c, 0, 71, 75
2, 116736, Note_on_c, 0, 64, 75
2, 116736, Note_on_c, 0, 68, 75
2, 117760, Note_off_c, 0, 71, 0
2, 117760, Note_on_c, 0, 71, 75
2, 117760, Note_off_c, 0, 64, 0
2, 117760, Note_off_c, 0, 68, 0
2, 117760, Note_on_c, 0, 64, 75
2, 117760, Note_on_c, 0, 68, 75
2, 118784, Note_off_c, 0, 71, 0
2, 118784, Note_on_c, 0, 71, 75
2, 118784, Note_off_c, 0, 64, 0
2, 118784, Note_off_c, 0, 68, 0
2, 118784, Note_on_c, 0, 64, 75
2, 118784, Note_on_c, 0, 68, 75
2, 119808, Note_off_c, 0, 71, 0
2, 119808, Note_off_c, 0, 64, 0
2, 119808, Note_off_c, 0, 68, 0
2, 119808, Note_on_c, 0, 71, 75
2, 119808, Note_on_c, 0, 64, 75
2, 119808, Note_on_c, 0, 68, 75
2, 119936, Note_off_c, 0, 71, 0
2, 119936, Note_on_c, 0, 73, 75
2, 120064, Note_off_c, 0, 73, 0
2, 120064, Note_on_c, 0, 71, 75
2, 120192, Note_off_c, 0, 71, 0
2, 120192, Note_on_c, 0, 73, 75
2, 120320, Note_off_c, 0, 73, 0
2, 120320, Note_on_c, 0, 71, 75
2, 120448, Note_off_c, 0, 71, 0
2, 120448, Note_on_c, 0, 73, 75
2, 120576, Note_off_c, 0, 73, 0
2, 120576, Note_on_c, 0, 71, 75
2, 120704, Note_off_c, 0, 71, 0
2, 120704, Note_on_c, 0, 73, 75
2, 120832, Note_off_c, 0, 73, 0
2, 120832, Note_on_c, 0, 71, 75
2, 120832, Note_off_c, 0, 64, 0
2, 120832, Note_off_c, 0, 68, 0
2, 120832, Note_on_c, 0, 64, 75
2, 120832, Note_on_c, 0, 68, 75
2, 120960, Note_off_c, 0, 71, 0
2, 120960, Note_on_c, 0, 73, 75
2, 121088, Note_off_c, 0, 73, 0
2, 121088, Note_on_c, 0, 71, 75
2, 121216, Note_off_c, 0, 71, 0
2, 121216, Note_on_c, 0, 73, 75
2, 121344, Note_off_c, 0, 73, 0
2, 121344, Note_on_c, 0, 71, 75
2, 121472, Note_off_c, 0, 71, 0
2, 121472, Note_on_c, 0, 73, 75
2, 121600, Note_off_c, 0, 73, 0
2, 121600, Note_on_c, 0, 71, 75
2, 121728, Note_off_c, 0, 71, 0
2, 121728, Note_on_c, 0, 73, 75
2, 121856, Note_off_c, 0, 73, 0
2, 121856, Note_on_c, 0, 76, 75
2, 121856, Note_off_c, 0, 64, 0
2, 121856, Note_off_c, 0, 68, 0
2, 121856, Note_on_c, 0, 64, 75
2, 121856, Note_on_c, 0, 68, 75
2, 122368, Note_off_c, 0, 76, 0
2, 122368, Note_on_c, 0, 75, 75
2, 122880, Note_off_c, 0, 75, 0
2, 122880, Note_off_c, 0, 64, 0
2, 122880, Note_off_c, 0, 68, 0
2, 122880, Note_on_c, 0, 75, 75
2, 122880, Note_on_c, 0, 64, 75
2, 122880, Note_on_c, 0, 69, 75
2, 123392, Note_off_c, 0, 75, 0
2, 123392, Note_on_c, 0, 73, 75
2, 123904, Note_off_c, 0, 73, 0
2, 123904, Note_on_c, 0, 73, 75
2, 123904, Note_off_c, 0, 64, 0
2, 123904, Note_off_c, 0, 69, 0
2, 123904, Note_on_c, 0, 64, 75
2, 123904, Note_on_c, 0, 69, 75
2, 124416, Note_off_c, 0, 73, 0
2, 124416, Note_on_c, 0, 81, 75
2, 124928, Note_off_c, 0, 81, 0
2, 124928, Note_on_c, 0, 81, 75
2, 124928, Note_off_c, 0, 64, 0
2, 124928, Note_off_c, 0, 69, 0
2, 124928, Note_on_c, 0, 64, 75
2, 124928, Note_on_c, 0, 69, 75
2, 125440, Note_off_c, 0, 81, 0
2, 125440, Note_on_c, 0, 73, 75
2, 125952, Note_off_c, 0, 73, 0
2, 125952, Note_off_c, 0, 64, 0
2, 125952, Note_off_c, 0, 69, 0
2, 125952, Note_on_c, 0, 73, 75
2, 125952, Note_on_c, 0, 64, 75
2, 125952, Note_on_c, 0, 69, 75
2, 126080, Note_off_c, 0, 73, 0
2, 126080, Note_on_c, 0, 75, 75
2, 126208, Note_off_c, 0, 75, 0
2, 126208, Note_on_c, 0, 73, 75
2, 126336, Note_off_c, 0, 73, 0
2, 126336, Note_on_c, 0, 75, 75
2, 126464, Note_off_c, 0, 75, 0
2, 126464, Note_on_c, 0, 71, 75
2, 126976, Note_off_c, 0, 71, 0
2, 126976, Note_on_c, 0, 71, 75
2, 126976, Note_off_c, 0, 64, 0
2, 126976, Note_off_c, 0, 69, 0
2, 126976, Note_on_c, 0, 64, 75
2, 126976, Note_on_c, 0, 68, 75
2, 128000, Note_off_c, 0, 64, 0
2, 128000, Note_off_c, 0, 68, 0
2, 128512, Note_off_c, 0, 71, 0
2, 128512, Note_on_c, 0, 83, 75
2, 129024, Note_off_c, 0, 83, 0
2, 129024, Note_on_c, 0, 83, 75
2, 129536, Note_off_c, 0, 83, 0
2, 129536, Note_on_c, 0, 81, 75
2, 130048, Note_off_c, 0, 81, 0
2, 130048, Note_on_c, 0, 81, 75
2, 130048, Note_on_c, 0, 61, 75
2, 130048, Note_on_c, 0, 64, 75
2, 131072, Note_off_c, 0, 61, 0
2, 131072, Note_off_c, 0, 64, 0
2, 131072, Note_on_c, 0, 59, 75
2, 131072, Note_on_c, 0, 63, 75
2, 131584, Note_off_c, 0, 81, 0
2, 131584, Note_on_c, 0, 80, 75
2, 132096, Note_off_c, 0, 80, 0
2, 132096, Note_off_c, 0, 59, 0
2, 132096, Note_off_c, 0, 63, 0
2, 132096, Note_on_c, 0, 80, 75
2, 132608, Note_off_c, 0, 80, 0
2, 132608, Note_on_c, 0, 78, 75
2, 133120, Note_off_c, 0, 78, 0
2, 133120, Note_on_c, 0, 78, 75
2, 133120, Note_on_c, 0, 57, 75
2, 133120, Note_on_c, 0, 61, 75
2, 134144, Note_off_c, 0, 57, 0
2, 134144, Note_off_c, 0, 61, 0
2, 134144, Note_on_c, 0, 56, 75
2, 134144, Note_on_c, 0, 59, 75
2, 134656, Note_off_c, 0, 78, 0
2, 134656, Note_on_c, 0, 76, 75
2, 135168, Note_off_c, 0, 76, 0
2, 135168, Note_off_c, 0, 56, 0
2, 135168, Note_off_c, 0, 59, 0
2, 135168, Note_on_c, 0, 76, 101
2, 135680, Note_off_c, 0, 76, 0
2, 135680, Note_on_c, 0, 85, 101
2, 136192, Note_off_c, 0, 85, 0
2, 136192, Note_on_c, 0, 85, 101
2, 136192, Note_on_c, 0, 45, 101
2, 136192, Note_on_c, 0, 57, 101
2, 137216, Note_off_c, 0, 45, 0
2, 137216, Note_off_c, 0, 57, 0
2, 137216, Note_on_c, 0, 44, 101
2, 137216, Note_on_c, 0, 56, 101
2, 137728, Note_off_c, 0, 85, 0
2, 137728, Note_on_c, 0, 83, 101
2, 138240, Note_off_c, 0, 83, 0
2, 138240, Note_off_c, 0, 44, 0
2, 138240, Note_off_c, 0, 56, 0
2, 138240, Note_on_c, 0, 83, 101
2, 138752, Note_off_c, 0, 83, 0
2, 138752, Note_on_c, 0, 81, 101
2, 139264, Note_off_c, 0, 81, 0
2, 139264, Note_on_c, 0, 81, 101
2, 139264, Note_on_c, 0, 42, 101
2, 139264, Note_on_c, 0, 54, 101
2, 140288, Note_off_c, 0, 42, 0
2, 140288, Note_off_c, 0, 54, 0
2, 140288, Note_on_c, 0, 40, 101
2, 140288, Note_on_c, 0, 52, 101
2, 140800, Note_off_c, 0, 81, 0
2, 140800, Note_on_c, 0, 80, 101
2, 141312, Note_off_c, 0, 80, 0
2, 141312, Note_off_c, 0, 40, 0
2, 141312, Note_off_c, 0, 52, 0
2, 141312, Note_on_c, 0, 80, 101
2, 141312, Note_on_c, 0, 45, 101
2, 141312, Note_on_c, 0, 57, 101
2, 141824, Note_off_c, 0, 80, 0
2, 141824, Note_on_c, 0, 78, 101
2, 142336, Note_off_c, 0, 78, 0
2, 142336, Note_on_c, 0, 78, 101
2, 142336, Note_off_c, 0, 45, 0
2, 142336, Note_off_c, 0, 57, 0
2, 142336, Note_on_c, 0, 47, 101
2, 142336, Note_on_c, 0, 56, 101
2, 142848, Note_off_c, 0, 78, 0
2, 142848, Note_on_c, 0, 76, 101
2, 143360, Note_off_c, 0, 76, 0
2, 143360, Note_on_c, 0, 76, 101
2, 143360, Note_off_c, 0, 47, 0
2, 143360, Note_off_c, 0, 56, 0
2, 143360, Note_on_c, 0, 47, 101
2, 143360, Note_on_c, 0, 54, 101
2, 143872, Note_off_c, 0, 76, 0
2, 143872, Note_on_c, 0, 75, 101
2, 144384, Note_off_c, 0, 75, 0
2, 144384, Note_off_c, 0, 47, 0
2, 144384, Note_off_c, 0, 54, 0
2, 144384, Note_on_c, 0, 75, 101
2, 144384, Note_on_c, 0, 52, 101
2, 145408, Note_off_c, 0, 75, 0
2, 145408, Note_on_c, 0, 76, 101
2, 145408, Note_off_c, 0, 52, 0
2, 145408, Note_on_c, 0, 47, 101
2, 146432, Note_off_c, 0, 76, 0
2, 146432, Note_off_c, 0, 47, 0
2, 146432, Note_on_c, 0, 40, 101
2, 147456, Note_off_c, 0, 40, 0
2, 148480, Note_on_c, 0, 71, 62
2, 148480, Note_on_c, 0, 40, 62
2, 148480, Note_on_c, 0, 52, 62
2, 148992, Note_off_c, 0, 71, 0
2, 148992, Note_on_c, 0, 72, 62
2, 149504, Note_off_c, 0, 72, 0
2, 149504, Note_on_c, 0, 71, 62
2, 149504, Note_off_c, 0, 40, 0
2, 149504, Note_off_c, 0, 52, 0
2, 149504, Note_on_c, 0, 43, 62
2, 149504, Note_on_c, 0, 55, 62
2, 150016, Note_off_c, 0, 71, 0
2, 150016, Note_on_c, 0, 67, 62
2, 150528, Note_off_c, 0, 67, 0
2, 150528, Note_on_c, 0, 69, 62
2, 150528, Note_off_c, 0, 43, 0
2, 150528, Note_off_c, 0, 55, 0
2, 150528, Note_on_c, 0, 47, 62
2, 150528, Note_on_c, 0, 59, 62
2, 151040, Note_off_c, 0, 69, 0
2, 151040, Note_on_c, 0, 66, 62
2, 151552, Note_off_c, 0, 66, 0
2, 151552, Note_off_c, 0, 47, 0
2, 151552, Note_off_c, 0, 59, 0
2, 151552, Note_on_c, 0, 67, 62
2, 151552, Note_on_c, 0, 40, 62
2, 151552, Note_on_c, 0, 52, 62
2, 152064, Note_off_c, 0, 67, 0
2, 152064, Note_on_c, 0, 69, 62
2, 152576, Note_off_c, 0, 69, 0
2, 152576, Note_on_c, 0, 67, 62
2, 152576, Note_off_c, 0, 40, 0
2, 152576, Note_off_c, 0, 52, 0
2, 152576, Note_on_c, 0, 43, 62
2, 152576, Note_on_c, 0, 55, 62
2, 153088, Note_off_c, 0, 67, 0
2, 153088, Note_on_c, 0, 64, 62
2, 153600, Note_off_c, 0, 64, 0
2, 153600, Note_on_c, 0, 66, 62
2, 153600, Note_off_c, 0, 43, 0
2, 153600, Note_off_c, 0, 55, 0
2, 153600, Note_on_c, 0, 47, 62
2, 153600, Note_on_c, 0, 59, 62
2, 154112, Note_off_c, 0, 66, 0
2, 154112, Note_on_c, 0, 63, 62
2, 154624, Note_off_c, 0, 63, 0
2, 154624, Note_off_c, 0, 47, 0
2, 154624, Note_off_c, 0, 59, 0
2, 154624, Note_on_c, 0, 64, 49
2, 154624, Note_on_c, 0, 55, 49
2, 155136, Note_off_c, 0, 64, 0
2, 155136, Note_on_c, 0, 59, 49
2, 155648, Note_off_c, 0, 59, 0
2, 155648, Note_on_c, 0, 66, 49
2, 155648, Note_off_c, 0, 55, 0
2, 155648, Note_on_c, 0, 51, 49
2, 156160, Note_off_c, 0, 66, 0
2, 156160, Note_on_c, 0, 59, 49
2, 156672, Note_off_c, 0, 59, 0
2, 156672, Note_on_c, 0, 67, 49
2, 156672, Note_off_c, 0, 51, 0
2, 156672, Note_on_c, 0, 52, 49
2, 157184, Note_off_c, 0, 67, 0
2, 157184, Note_on_c, 0, 59, 49
2, 157696, Note_off_c, 0, 59, 0
2, 157696, Note_off_c, 0, 52, 0
2, 157696, Note_on_c, 0, 69, 49
2, 157696, Note_on_c, 0, 54, 49
2, 158208, Note_off_c, 0, 69, 0
2, 158208, Note_on_c, 0, 59, 49
2, 158720, Note_off_c, 0, 59, 0
2, 158720, Note_on_c, 0, 66, 49
2, 158720, Note_off_c, 0, 54, 0
2, 158720, Note_on_c, 0, 51, 49
2, 159232, Note_off_c, 0, 66, 0
2, 159232, Note_on_c, 0, 59, 49
2, 159744, Note_off_c, 0, 59, 0
2, 159744, Note_on_c, 0, 67, 49
2, 159744, Note_off_c, 0, 51, 0
2, 159744, Note_on_c, 0, 52, 49
2, 160256, Note_off_c, 0, 67, 0
2, 160256, Note_on_c, 0, 59, 49
2, 160768, Note_off_c, 0, 59, 0
2, 160768, Note_off_c, 0, 52, 0
2, 160768, Note_on_c, 0, 71, 75
2, 160768, Note_on_c, 0, 40, 75
2, 160768, Note_on_c, 0, 52, 75
2, 161280, Note_off_c, 0, 71, 0
2, 161280, Note_on_c, 0, 72, 75
2, 161792, Note_off_c, 0, 72, 0
2, 161792, Note_on_c, 0, 71, 75
2, 161792, Note_off_c, 0, 40, 0
2, 161792, Note_off_c, 0, 52, 0
2, 161792, Note_on_c, 0, 43, 75
2, 161792, Note_on_c, 0, 55, 75
2, 162304, Note_off_c, 0, 71, 0
2, 162304, Note_on_c, 0, 67, 75
2, 162816, Note_off_c, 0, 67, 0
2, 162816, Note_on_c, 0, 69, 75
2, 162816, Note_off_c, 0, 43, 0
2, 162816, Note_off_c, 0, 55, 0
2, 162816, Note_on_c, 0, 47, 75
2, 162816, Note_on_c, 0, 59, 75
2, 163328, Note_off_c, 0, 69, 0
2, 163328, Note_on_c, 0, 66, 75
2, 163840, Note_off_c, 0, 66, 0
2, 163840, Note_off_c, 0, 47, 0
2, 163840, Note_off_c, 0, 59, 0
2, 163840, Note_on_c, 0, 67, 75
2, 163840, Note_on_c, 0, 40, 75
2, 163840, Note_on_c, 0, 52, 75
2, 164352, Note_off_c, 0, 67, 0
2, 164352, Note_on_c, 0, 69, 75
2, 164864, Note_off_c, 0, 69, 0
2, 164864, Note_on_c, 0, 67, 75
2, 164864, Note_off_c, 0, 40, 0
2, 164864, Note_off_c, 0, 52, 0
2, 164864, Note_on_c, 0, 43, 75
2, 164864, Note_on_c, 0, 55, 75
2, 165376, Note_off_c, 0, 67, 0
2, 165376, Note_on_c, 0, 64, 75
2, 165888, Note_off_c, 0, 64, 0
2, 165888, Note_on_c, 0, 66, 75
2, 165888, Note_off_c, 0, 43, 0
2, 165888, Note_off_c, 0, 55, 0
2, 165888, Note_on_c, 0, 47, 75
2, 165888, Note_on_c, 0, 59, 75
2, 166400, Note_off_c, 0, 66, 0
2, 166400, Note_on_c, 0, 63, 75
2, 166912, Note_off_c, 0, 63, 0
2, 166912, Note_off_c, 0, 47, 0
2, 166912, Note_off_c, 0, 59, 0
2, 166912, Note_on_c, 0, 64, 75
2, 166912, Note_on_c, 0, 55, 75
2, 167424, Note_off_c, 0, 64, 0
2, 167424, Note_on_c, 0, 59, 75
2, 167936, Note_off_c, 0, 59, 0
2, 167936, Note_on_c, 0, 66, 75
2, 167936, Note_on_c, 0, 69, 75
2, 167936, Note_off_c, 0, 55, 0
2, 167936, Note_on_c, 0, 51, 75
2, 168448, Note_off_c, 0, 66, 0
2, 168448, Note_off_c, 0, 69, 0
2, 168448, Note_on_c, 0, 59, 75
2, 168960, Note_off_c, 0, 59, 0
2, 168960, Note_on_c, 0, 64, 75
2, 168960, Note_on_c, 0, 67, 75
2, 168960, Note_off_c, 0, 51, 0
2, 168960, Note_on_c, 0, 52, 75
2, 169472, Note_off_c, 0, 64, 0
2, 169472, Note_off_c, 0, 67, 0
2, 169472, Note_on_c, 0, 59, 75
2, 169984, Note_off_c, 0, 59, 0
2, 169984, Note_off_c, 0, 52, 0
2, 169984, Note_on_c, 0, 63, 75
2, 169984, Note_on_c, 0, 66, 75
2, 169984, Note_on_c, 0, 47, 75
2, 171008, Note_off_c, 0, 63, 0
2, 171008, Note_off_c, 0, 66, 0
2, 171008, Note_off_c, 0, 47, 0
2, 171008, Note_on_c, 0, 35, 75
2, 172032, Note_off_c, 0, 35, 0
2, 173056, Note_on_c, 0, 71, 62
2, 173056, Note_on_c, 0, 40, 62
2, 173056, Note_on_c, 0, 52, 62
2, 173568, Note_off_c, 0, 71, 0
2, 173568, Note_on_c, 0, 72, 62
2, 174080, Note_off_c, 0, 72, 0
2, 174080, Note_on_c, 0, 71, 62
2, 174080, Note_off_c, 0, 40, 0
2, 174080, Note_off_c, 0, 52, 0
2, 174080, Note_on_c, 0, 43, 62
2, 174080, Note_on_c, 0, 55, 62
2, 174592, Note_off_c, 0, 71, 0
2, 174592, Note_on_c, 0, 67, 62
2, 175104, Note_off_c, 0, 67, 0
2, 175104, Note_on_c, 0, 69, 62
2, 175104, Note_off_c, 0, 43, 0
2, 175104, Note_off_c, 0, 55, 0
2, 175104, Note_on_c, 0, 47, 62
2, 175104, Note_on_c, 0, 59, 62
2, 175616, Note_off_c, 0, 69, 0
2, 175616, Note_on_c, 0, 66, 62
2, 176128, Note_off_c, 0, 66, 0
2, 176128, Note_off_c, 0, 47, 0
2, 176128, Note_off_c, 0, 59, 0
2, 176128, Note_on_c, 0, 67, 62
2, 176128, Note_on_c, 0, 40, 62
2, 176128, Note_on_c, 0, 52, 62
2, 176640, Note_off_c, 0, 67, 0
2, 176640, Note_on_c, 0, 69, 62
2, 177152, Note_off_c, 0, 69, 0
2, 177152, Note_on_c, 0, 67, 62
2, 177152, Note_off_c, 0, 40, 0
2, 177152, Note_off_c, 0, 52, 0
2, 177152, Note_on_c, 0, 43, 62
2, 177152, Note_on_c, 0, 55, 62
2, 177664, Note_off_c, 0, 67, 0
2, 177664, Note_on_c, 0, 64, 62
2, 178176, Note_off_c, 0, 64, 0
2, 178176, Note_on_c, 0, 66, 62
2, 178176, Note_off_c, 0, 43, 0
2, 178176, Note_off_c, 0, 55, 0
2, 178176, Note_on_c, 0, 47, 62
2, 178176, Note_on_c, 0, 59, 62
2, 178688, Note_off_c, 0, 66, 0
2, 178688, Note_on_c, 0, 63, 62
2, 179200, Note_off_c, 0, 63, 0
2, 179200, Note_off_c, 0, 47, 0
2, 179200, Note_off_c, 0, 59, 0
2, 179200, Note_on_c, 0, 64, 49
2, 179200, Note_on_c, 0, 55, 49
2, 179712, Note_off_c, 0, 64, 0
2, 179712, Note_on_c, 0, 59, 49
2, 180224, Note_off_c, 0, 59, 0
2, 180224, Note_on_c, 0, 66, 49
2, 180224, Note_off_c, 0, 55, 0
2, 180224, Note_on_c, 0, 51, 49
2, 180736, Note_off_c, 0, 66, 0
2, 180736, Note_on_c, 0, 59, 49
2, 181248, Note_off_c, 0, 59, 0
2, 181248, Note_on_c, 0, 67, 49
2, 181248, Note_off_c, 0, 51, 0
2, 181248, Note_on_c, 0, 52, 49
2, 181760, Note_off_c, 0, 67, 0
2, 181760, Note_on_c, 0, 59, 49
2, 182272, Note_off_c, 0, 59, 0
2, 182272, Note_off_c, 0, 52, 0
2, 182272, Note_on_c, 0, 69, 49
2, 182272, Note_on_c, 0, 54, 49
2, 182784, Note_off_c, 0, 69, 0
2, 182784, Note_on_c, 0, 59, 49
2, 183296, Note_off_c, 0, 59, 0
2, 183296, Note_on_c, 0, 66, 49
2, 183296, Note_off_c, 0, 54, 0
2, 183296, Note_on_c, 0, 51, 49
2, 183808, Note_off_c, 0, 66, 0
2, 183808, Note_on_c, 0, 59, 49
2, 184320, Note_off_c, 0, 59, 0
2, 184320, Note_on_c, 0, 67, 49
2, 184320, Note_off_c, 0, 51, 0
2, 184320, Note_on_c, 0, 52, 49
2, 184832, Note_off_c, 0, 67, 0
2, 184832, Note_on_c, 0, 59, 49
2, 185344, Note_off_c, 0, 59, 0
2, 185344, Note_off_c, 0, 52, 0
2, 185344, Note_on_c, 0, 71, 75
2, 185344, Note_on_c, 0, 40, 75
2, 185344, Note_on_c, 0, 52, 75
2, 185856, Note_off_c, 0, 71, 0
2, 185856, Note_on_c, 0, 72, 75
2, 186368, Note_off_c, 0, 72, 0
2, 186368, Note_on_c, 0, 71, 75
2, 186368, Note_off_c, 0, 40, 0
2, 186368, Note_off_c, 0, 52, 0
2, 186368, Note_on_c, 0, 43, 75
2, 186368, Note_on_c, 0, 55, 75
2, 186880, Note_off_c, 0, 71, 0
2, 186880, Note_on_c, 0, 67, 75
2, 187392, Note_off_c, 0, 67, 0
2, 187392, Note_on_c, 0, 69, 75
2, 187392, Note_off_c, 0, 43, 0
2, 187392, Note_off_c, 0, 55, 0
2, 187392, Note_on_c, 0, 47, 75
2, 187392, Note_on_c, 0, 59, 75
2, 187904, Note_off_c, 0, 69, 0
2, 187904, Note_on_c, 0, 66, 75
2, 188416, Note_off_c, 0, 66, 0
2, 188416, Note_off_c, 0, 47, 0
2, 188416, Note_off_c, 0, 59, 0
2, 188416, Note_on_c, 0, 67, 75
2, 188416, Note_on_c, 0, 40, 75
2, 188416, Note_on_c, 0, 52, 75
2, 188928, Note_off_c, 0, 67, 0
2, 188928, Note_on_c, 0, 69, 75
2, 189440, Note_off_c, 0, 69, 0
2, 189440, Note_on_c, 0, 67, 75
2, 189440, Note_off_c, 0, 40, 0
2, 189440, Note_off_c, 0, 52, 0
2, 189440, Note_on_c, 0, 43, 75
2, 189440, Note_on_c, 0, 55, 75
2, 189952, Note_off_c, 0, 67, 0
2, 189952, Note_on_c, 0, 64, 75
2, 190464, Note_off_c, 0, 64, 0
2, 190464, Note_on_c, 0, 66, 75
2, 190464, Note_off_c, 0, 43, 0
2, 190464, Note_off_c, 0, 55, 0
2, 190464, Note_on_c, 0, 47, 75
2, 190464, Note_on_c, 0, 59, 75
2, 190976, Note_off_c, 0, 66, 0
2, 190976, Note_on_c, 0, 63, 75
2, 191488, Note_off_c, 0, 63, 0
2, 191488, Note_off_c, 0, 47, 0
2, 191488, Note_off_c, 0, 59, 0
2, 191488, Note_on_c, 0, 64, 75
2, 191488, Note_on_c, 0, 55, 75
2, 192000, Note_off_c, 0, 64, 0
2, 192000, Note_on_c, 0, 59, 75
2, 192512, Note_off_c, 0, 59, 0
2, 192512, Note_on_c, 0, 66, 75
2, 192512, Note_on_c, 0, 69, 75
2, 192512, Note_off_c, 0, 55, 0
2, 192512, Note_on_c, 0, 51, 75
2, 193024, Note_off_c, 0, 66, 0
2, 193024, Note_off_c, 0, 69, 0
2, 193024, Note_on_c, 0, 59, 75
2, 193536, Note_off_c, 0, 59, 0
2, 193536, Note_on_c, 0, 64, 75
2, 193536, Note_on_c, 0, 67, 75
2, 193536, Note_off_c, 0, 51, 0
2, 193536, Note_on_c, 0, 52, 75
2, 194048, Note_off_c, 0, 64, 0
2, 194048, Note_off_c, 0, 67, 0
2, 194048, Note_on_c, 0, 59, 75
2, 194560, Note_off_c, 0, 59, 0
2, 194560, Note_off_c, 0, 52, 0
2, 194560, Note_on_c, 0, 63, 75
2, 194560, Note_on_c, 0, 66, 75
2, 194560, Note_on_c, 0, 47, 75
2, 195584, Note_off_c, 0, 63, 0
2, 195584, Note_off_c, 0, 66, 0
2, 195584, Note_off_c, 0, 47, 0
2, 195584, Note_on_c, 0, 35, 75
2, 196608, Note_off_c, 0, 35, 0
2, 197632, Note_on_c, 0, 68, 62
2, 197632, Note_on_c, 0, 52, 62
2, 198144, Note_off_c, 0, 68, 0
2, 198144, Note_on_c, 0, 69, 62
2, 198656, Note_off_c, 0, 69, 0
2, 198656, Note_on_c, 0, 68, 62
2, 198656, Note_on_c, 0, 59, 62
2, 199168, Note_off_c, 0, 68, 0
2, 199168, Note_on_c, 0, 64, 62
2, 199680, Note_off_c, 0, 64, 0
2, 199680, Note_on_c, 0, 71, 62
2, 199680, Note_off_c, 0, 59, 0
2, 199680, Note_on_c, 0, 56, 62
2, 200192, Note_off_c, 0, 71, 0
2, 200192, Note_on_c, 0, 64, 62
2, 200704, Note_off_c, 0, 64, 0
2, 200704, Note_off_c, 0, 56, 0
2, 200704, Note_on_c, 0, 72, 62
2, 200704, Note_on_c, 0, 57, 62
2, 201216, Note_off_c, 0, 72, 0
2, 201216, Note_on_c, 0, 64, 62
2, 201728, Note_off_c, 0, 64, 0
2, 201728, Note_on_c, 0, 68, 62
2, 201728, Note_off_c, 0, 57, 0
2, 201728, Note_on_c, 0, 59, 62
2, 202240, Note_off_c, 0, 68, 0
2, 202240, Note_on_c, 0, 64, 62
2, 202752, Note_off_c, 0, 64, 0
2, 202752, Note_on_c, 0, 69, 62
2, 202752, Note_off_c, 0, 59, 0
2, 202752, Note_on_c, 0, 60, 62
2, 203264, Note_off_c, 0, 69, 0
2, 203264, Note_on_c, 0, 64, 62
2, 203776, Note_off_c, 0, 64, 0
2, 203776, Note_off_c, 0, 60, 0
2, 203776, Note_off_c, 0, 52, 0
2, 203776, Note_on_c, 0, 66, 62
2, 203776, Note_on_c, 0, 50, 62
2, 204288, Note_off_c, 0, 66, 0
2, 204288, Note_on_c, 0, 67, 62
2, 204800, Note_off_c, 0, 67, 0
2, 204800, Note_on_c, 0, 66, 62
2, 204800, Note_on_c, 0, 57, 62
2, 205312, Note_off_c, 0, 66, 0
2, 205312, Note_on_c, 0, 62, 62
2, 205824, Note_off_c, 0, 62, 0
2, 205824, Note_on_c, 0, 69, 62
2, 205824, Note_off_c, 0, 57, 0
2, 205824, Note_on_c, 0, 54, 62
2, 206336, Note_off_c, 0, 69, 0
2, 206336, Note_on_c, 0, 62, 62
2, 206848, Note_off_c, 0, 62, 0
2, 206848, Note_off_c, 0, 54, 0
2, 206848, Note_on_c, 0, 71, 62
2, 206848, Note_on_c, 0, 55, 62
2, 207360, Note_off_c, 0, 71, 0
2, 207360, Note_on_c, 0, 62, 62
2, 207872, Note_off_c, 0, 62, 0
2, 207872, Note_on_c, 0, 66, 62
2, 207872, Note_off_c, 0, 55, 0
2, 207872, Note_on_c, 0, 57, 62
2, 208384, Note_off_c, 0, 66, 0
2, 208384, Note_on_c, 0, 62, 62
2, 208896, Note_off_c, 0, 62, 0
2, 208896, Note_on_c, 0, 67, 62
2, 208896, Note_off_c, 0, 57, 0
2, 208896, Note_on_c, 0, 59, 62
2, 209408, Note_off_c, 0, 67, 0
2, 209408, Note_on_c, 0, 62, 62
2, 209920, Note_off_c, 0, 62, 0
2, 209920, Note_off_c, 0, 59, 0
2, 209920, Note_off_c, 0, 50, 0
2, 209920, Note_on_c, 0, 64, 75
2, 209920, Note_on_c, 0, 48, 75
2, 210432, Note_off_c, 0, 64, 0
2, 210432, Note_on_c, 0, 66, 75
2, 210944, Note_off_c, 0, 66, 0
2, 210944, Note_on_c, 0, 64, 75
2, 210944, Note_on_c, 0, 55, 75
2, 211456, Note_off_c, 0, 64, 0
2, 211456, Note_on_c, 0, 60, 75
2, 211968, Note_off_c, 0, 60, 0
2, 211968, Note_on_c, 0, 67, 75
2, 211968, Note_off_c, 0, 55, 0
2, 211968, Note_on_c, 0, 52, 75
2, 212480, Note_off_c, 0, 67, 0
2, 212480, Note_on_c, 0, 60, 75
2, 212992, Note_off_c, 0, 60, 0
2, 212992, Note_off_c, 0, 52, 0
2, 212992, Note_on_c, 0, 69, 75
2, 212992, Note_on_c, 0, 54, 75
2, 213504, Note_off_c, 0, 69, 0
2, 213504, Note_on_c, 0, 60, 75
2, 214016, Note_off_c, 0, 60, 0
2, 214016, Note_on_c, 0, 64, 75
2, 214016, Note_off_c, 0, 54, 0
2, 214016, Note_on_c, 0, 55, 75
2, 214528, Note_off_c, 0, 64, 0
2, 214528, Note_on_c, 0, 60, 75
2, 215040, Note_off_c, 0, 60, 0
2, 215040, Note_on_c, 0, 66, 75
2, 215040, Note_off_c, 0, 55, 0
2, 215040, Note_on_c, 0, 57, 75
2, 215552, Note_off_c, 0, 66, 0
2, 215552, Note_on_c, 0, 60, 75
2, 216064, Note_off_c, 0, 60, 0
2, 216064, Note_off_c, 0, 57, 0
2, 216064, Note_off_c, 0, 48, 0
2, 216064, Note_on_c, 0, 63, 75
2, 216064, Note_on_c, 0, 47, 75
2, 216576, Note_off_c, 0, 63, 0
2, 216576, Note_on_c, 0, 64, 75
2, 217088, Note_off_c, 0, 64, 0
2, 217088, Note_on_c, 0, 63, 75
2, 217088, Note_on_c, 0, 54, 75
2, 217600, Note_off_c, 0, 63, 0
2, 217600, Note_on_c, 0, 59, 75
2, 218112, Note_off_c, 0, 59, 0
2, 218112, Note_on_c, 0, 66, 75
2, 218112, Note_off_c, 0, 54, 0
2, 218112, Note_on_c, 0, 51, 75
2, 218624, Note_off_c, 0, 66, 0
2, 218624, Note_on_c, 0, 59, 75
2, 219136, Note_off_c, 0, 59, 0
2, 219136, Note_off_c, 0, 51, 0
2, 219136, Note_on_c, 0, 67, 75
2, 219136, Note_on_c, 0, 52, 75
2, 219648, Note_off_c, 0, 67, 0
2, 219648, Note_on_c, 0, 59, 75
2, 220160, Note_off_c, 0, 59, 0
2, 220160, Note_on_c, 0, 63, 75
2, 220160, Note_off_c, 0, 52, 0
2, 220160, Note_on_c, 0, 54, 75
2, 220672, Note_off_c, 0, 63, 0
2, 220672, Note_on_c, 0, 59, 75
2, 221184, Note_off_c, 0, 59, 0
2, 221184, Note_on_c, 0, 64, 75
2, 221184, Note_off_c, 0, 54, 0
2, 221184, Note_on_c, 0, 55, 75
2, 221696, Note_off_c, 0, 64, 0
2, 221696, Note_on_c, 0, 59, 75
2, 222208, Note_off_c, 0, 59, 0
2, 222208, Note_off_c, 0, 55, 0
2, 222208, Note_off_c, 0, 47, 0
2, 222208, Note_on_c, 0, 66, 75
2, 222208, Note_on_c, 0, 51, 75
2, 222208, Note_on_c, 0, 47, 75
2, 222720, Note_off_c, 0, 66, 0
2, 222720, Note_on_c, 0, 59, 75
2, 223232, Note_off_c, 0, 59, 0
2, 223232, Note_on_c, 0, 69, 81
2, 223232, Note_off_c, 0, 51, 0
2, 223232, Note_on_c, 0, 54, 81
2, 223744, Note_off_c, 0, 69, 0
2, 223744, Note_on_c, 0, 59, 87
2, 224256, Note_off_c, 0, 59, 0
2, 224256, Note_on_c, 0, 67, 93
2, 224256, Note_off_c, 0, 54, 0
2, 224256, Note_on_c, 0, 52, 93
2, 224768, Note_off_c, 0, 67, 0
2, 224768, Note_on_c, 0, 59, 101
2, 225280, Note_off_c, 0, 59, 0
2, 225280, Note_off_c, 0, 52, 0
2, 225280, Note_off_c, 0, 47, 0
2, 225280, Note_on_c, 0, 66, 107
2, 225280, Note_on_c, 0, 51, 107
2, 225280, Note_on_c, 0, 47, 107
2, 225536, Note_off_c, 0, 66, 0
2, 225536, Note_on_c, 0, 67, 107
2, 225664, Note_off_c, 0, 67, 0
2, 225664, Note_on_c, 0, 66, 107
2, 225792, Note_off_c, 0, 66, 0
2, 225792, Note_on_c, 0, 67, 113
2, 225920, Note_off_c, 0, 67, 0
2, 225920, Note_on_c, 0, 66, 113
2, 226304, Note_off_c, 0, 66, 0
2, 226304, Note_off_c, 0, 51, 0
2, 226304, Note_off_c, 0, 47, 0
2, 228352, Note_on_c, 0, 71, 62
2, 228352, Note_on_c, 0, 40, 62
2, 228352, Note_on_c, 0, 52, 62
2, 228864, Note_off_c, 0, 71, 0
2, 228864, Note_on_c, 0, 72, 62
2, 229376, Note_off_c, 0, 72, 0
2, 229376, Note_on_c, 0, 71, 62
2, 229376, Note_off_c, 0, 40, 0
2, 229376, Note_off_c, 0, 52, 0
2, 229376, Note_on_c, 0, 43, 62
2, 229376, Note_on_c, 0, 55, 62
2, 229888, Note_off_c, 0, 71, 0
2, 229888, Note_on_c, 0, 67, 62
2, 230400, Note_off_c, 0, 67, 0
2, 230400, Note_on_c, 0, 69, 62
2, 230400, Note_off_c, 0, 43, 0
2, 230400, Note_off_c, 0, 55, 0
2, 230400, Note_on_c, 0, 47, 62
2, 230400, Note_on_c, 0, 59, 62
2, 230912, Note_off_c, 0, 69, 0
2, 230912, Note_on_c, 0, 66, 62
2, 231424, Note_off_c, 0, 66, 0
2, 231424, Note_off_c, 0, 47, 0
2, 231424, Note_off_c, 0, 59, 0
2, 231424, Note_on_c, 0, 67, 62
2, 231424, Note_on_c, 0, 40, 62
2, 231424, Note_on_c, 0, 52, 62
2, 231936, Note_off_c, 0, 67, 0
2, 231936, Note_on_c, 0, 69, 62
2, 232448, Note_off_c, 0, 69, 0
2, 232448, Note_on_c, 0, 67, 62
2, 232448, Note_off_c, 0, 40, 0
2, 232448, Note_off_c, 0, 52, 0
2, 232448, Note_on_c, 0, 43, 62
2, 232448, Note_on_c, 0, 55, 62
2, 232960, Note_off_c, 0, 67, 0
2, 232960, Note_on_c, 0, 64, 62
2, 233472, Note_off_c, 0, 64, 0
2, 233472, Note_on_c, 0, 66, 62
2, 233472, Note_off_c, 0, 43, 0
2, 233472, Note_off_c, 0, 55, 0
2, 233472, Note_on_c, 0, 47, 62
2, 233472, Note_on_c, 0, 59, 62
2, 233984, Note_off_c, 0, 66, 0
2, 233984, Note_on_c, 0, 63, 62
2, 234496, Note_off_c, 0, 63, 0
2, 234496, Note_off_c, 0, 47, 0
2, 234496, Note_off_c, 0, 59, 0
2, 234496, Note_on_c, 0, 64, 49
2, 234496, Note_on_c, 0, 55, 49
2, 235008, Note_off_c, 0, 64, 0
2, 235008, Note_on_c, 0, 59, 49
2, 235520, Note_off_c, 0, 59, 0
2, 235520, Note_on_c, 0, 66, 49
2, 235520, Note_off_c, 0, 55, 0
2, 235520, Note_on_c, 0, 51, 49
2, 236032, Note_off_c, 0, 66, 0
2, 236032, Note_on_c, 0, 59, 49
2, 236544, Note_off_c, 0, 59, 0
2, 236544, Note_on_c, 0, 67, 49
2, 236544, Note_off_c, 0, 51, 0
2, 236544, Note_on_c, 0, 52, 49
2, 237056, Note_off_c, 0, 67, 0
2, 237056, Note_on_c, 0, 59, 49
2, 237568, Note_off_c, 0, 59, 0
2, 237568, Note_off_c, 0, 52, 0
2, 237568, Note_on_c, 0, 69, 49
2, 237568, Note_on_c, 0, 54, 49
2, 238080, Note_off_c, 0, 69, 0
2, 238080, Note_on_c, 0, 59, 49
2, 238592, Note_off_c, 0, 59, 0
2, 238592, Note_on_c, 0, 66, 49
2, 238592, Note_off_c, 0, 54, 0
2, 238592, Note_on_c, 0, 51, 49
2, 239104, Note_off_c, 0, 66, 0
2, 239104, Note_on_c, 0, 59, 49
2, 239616, Note_off_c, 0, 59, 0
2, 239616, Note_on_c, 0, 67, 49
2, 239616, Note_off_c, 0, 51, 0
2, 239616, Note_on_c, 0, 52, 49
2, 240128, Note_off_c, 0, 67, 0
2, 240128, Note_on_c, 0, 59, 49
2, 240640, Note_off_c, 0, 59, 0
2, 240640, Note_off_c, 0, 52, 0
2, 240640, Note_on_c, 0, 71, 75
2, 240640, Note_on_c, 0, 40, 75
2, 240640, Note_on_c, 0, 52, 75
2, 241152, Note_off_c, 0, 71, 0
2, 241152, Note_on_c, 0, 72, 75
2, 241664, Note_off_c, 0, 72, 0
2, 241664, Note_on_c, 0, 71, 75
2, 241664, Note_off_c, 0, 40, 0
2, 241664, Note_off_c, 0, 52, 0
2, 241664, Note_on_c, 0, 43, 75
2, 241664, Note_on_c, 0, 55, 75
2, 242176, Note_off_c, 0, 71, 0
2, 242176, Note_on_c, 0, 67, 75
2, 242688, Note_off_c, 0, 67, 0
2, 242688, Note_on_c, 0, 69, 75
2, 242688, Note_off_c, 0, 43, 0
2, 242688, Note_off_c, 0, 55, 0
2, 242688, Note_on_c, 0, 47, 75
2, 242688, Note_on_c, 0, 59, 75
2, 243200, Note_off_c, 0, 69, 0
2, 243200, Note_on_c, 0, 66, 75
2, 243712, Note_off_c, 0, 66, 0
2, 243712, Note_off_c, 0, 47, 0
2, 243712, Note_off_c, 0, 59, 0
2, 243712, Note_on_c, 0, 67, 75
2, 243712, Note_on_c, 0, 40, 75
2, 243712, Note_on_c, 0, 52, 75
2, 244224, Note_off_c, 0, 67, 0
2, 244224, Note_on_c, 0, 69, 75
2, 244736, Note_off_c, 0, 69, 0
2, 244736, Note_on_c, 0, 67, 75
2, 244736, Note_off_c, 0, 40, 0
2, 244736, Note_off_c, 0, 52, 0
2, 245248, Note_off_c, 0, 67, 0
2, 245248, Note_on_c, 0, 64, 75
2, 245760, Note_off_c, 0, 64, 0
2, 245760, Note_on_c, 0, 68, 75
2, 245760, Note_on_c, 0, 38, 75
2, 245760, Note_on_c, 0, 50, 75
2, 246272, Note_off_c, 0, 68, 0
2, 246272, Note_on_c, 0, 64, 75
2, 246784, Note_off_c, 0, 64, 0
2, 246784, Note_off_c, 0, 38, 0
2, 246784, Note_off_c, 0, 50, 0
2, 246784, Note_on_c, 0, 69, 75
2, 246784, Note_on_c, 0, 36, 75
2, 246784, Note_on_c, 0, 48, 75
2, 247296, Note_off_c, 0, 69, 0
2, 247296, Note_on_c, 0, 64, 75
2, 247808, Note_off_c, 0, 64, 0
2, 247808, Note_on_c, 0, 71, 75
2, 247808, Note_off_c, 0, 36, 0
2, 247808, Note_off_c, 0, 48, 0
2, 247808, Note_on_c, 0, 35, 75
2, 247808, Note_on_c, 0, 47, 75
2, 248320, Note_off_c, 0, 71, 0
2, 248320, Note_on_c, 0, 64, 75
2, 248832, Note_off_c, 0, 64, 0
2, 248832, Note_on_c, 0, 72, 75
2, 248832, Note_off_c, 0, 35, 0
2, 248832, Note_off_c, 0, 47, 0
2, 248832, Note_on_c, 0, 33, 75
2, 248832, Note_on_c, 0, 45, 75
2, 249344, Note_off_c, 0, 72, 0
2, 249344, Note_on_c, 0, 64, 75
2, 249856, Note_off_c, 0, 64, 0
2, 249856, Note_off_c, 0, 33, 0
2, 249856, Note_off_c, 0, 45, 0
2, 249856, Note_on_c, 0, 72, 75
2, 249856, Note_on_c, 0, 31, 75
2, 249856, Note_on_c, 0, 43, 75
2, 250368, Note_off_c, 0, 72, 0
2, 250368, Note_on_c, 0, 71, 75
2, 250880, Note_off_c, 0, 71, 0
2, 250880, Note_on_c, 0, 69, 75
2, 251392, Note_off_c, 0, 69, 0
2, 251392, Note_on_c, 0, 67, 75
2, 251904, Note_off_c, 0, 67, 0
2, 251904, Note_on_c, 0, 66, 75
2, 251904, Note_off_c, 0, 31, 0
2, 251904, Note_off_c, 0, 43, 0
2, 252416, Note_off_c, 0, 66, 0
2, 252416, Note_on_c, 0, 64, 75
2, 252928, Note_off_c, 0, 64, 0
2, 252928, Note_on_c, 0, 66, 75
2, 252928, Note_on_c, 0, 45, 75
2, 252928, Note_on_c, 0, 57, 75
2, 253440, Note_off_c, 0, 66, 0
2, 253440, Note_on_c, 0, 69, 75
2, 253952, Note_off_c, 0, 69, 0
2, 253952, Note_on_c, 0, 67, 75
2, 253952, Note_off_c, 0, 45, 0
2, 253952, Note_off_c, 0, 57, 0
2, 253952, Note_on_c, 0, 47, 75
2, 253952, Note_on_c, 0, 59, 75
2, 254464, Note_off_c, 0, 67, 0
2, 254464, Note_on_c, 0, 64, 75
2, 254976, Note_off_c, 0, 64, 0
2, 254976, Note_on_c, 0, 66, 75
2, 254976, Note_off_c, 0, 47, 0
2, 254976, Note_off_c, 0, 59, 0
2, 254976, Note_on_c, 0, 45, 75
2, 254976, Note_on_c, 0, 57, 75
2, 255488, Note_off_c, 0, 66, 0
2, 255488, Note_on_c, 0, 63, 75
2, 256000, Note_off_c, 0, 63, 0
2, 256000, Note_off_c, 0, 45, 0
2, 256000, Note_off_c, 0, 57, 0
2, 256000, Note_on_c, 0, 64, 75
2, 256000, Note_on_c, 0, 52, 75
2, 256000, Note_on_c, 0, 55, 75
2, 256256, Note_off_c, 0, 64, 0
2, 256256, Note_on_c, 0, 66, 75
2, 256384, Note_off_c, 0, 66, 0
2, 256384, Note_on_c, 0, 64, 75
2, 256512, Note_off_c, 0, 64, 0
2, 256512, Note_on_c, 0, 66, 75
2, 256640, Note_off_c, 0, 66, 0
2, 256640, Note_on_c, 0, 64, 75
2, 256768, Note_off_c, 0, 64, 0
2, 256768, Note_on_c, 0, 66, 75
2, 256896, Note_off_c, 0, 66, 0
2, 256896, Note_on_c, 0, 64, 75
2, 257024, Note_off_c, 0, 64, 0
2, 257024, Note_on_c, 0, 66, 75
2, 257024, Note_off_c, 0, 52, 0
2, 257024, Note_off_c, 0, 55, 0
2, 257024, Note_on_c, 0, 40, 75
2, 257152, Note_off_c, 0, 66, 0
2, 257152, Note_on_c, 0, 64, 75
2, 257280, Note_off_c, 0, 64, 0
2, 257280, Note_on_c, 0, 66, 75
2, 257408, Note_off_c, 0, 66, 0
2, 257408, Note_on_c, 0, 64, 75
2, 257536, Note_off_c, 0, 64, 0
2, 257536, Note_on_c, 0, 66, 75
2, 257664, Note_off_c, 0, 66, 0
2, 257664, Note_on_c, 0, 64, 75
2, 258048, Note_off_c, 0, 64, 0
2, 258048, Note_off_c, 0, 40, 0
2, 259072, Note_on_c, 0, 68, 62
2, 259072, Note_on_c, 0, 52, 62
2, 259584, Note_off_c, 0, 68, 0
2, 259584, Note_on_c, 0, 69, 62
2, 260096, Note_off_c, 0, 69, 0
2, 260096, Note_on_c, 0, 68, 62
2, 260096, Note_on_c, 0, 59, 62
2, 260608, Note_off_c, 0, 68, 0
2, 260608, Note_on_c, 0, 64, 62
2, 261120, Note_off_c, 0, 64, 0
2, 261120, Note_on_c, 0, 71, 62
2, 261120, Note_off_c, 0, 59, 0
2, 261120, Note_on_c, 0, 56, 62
2, 261632, Note_off_c, 0, 71, 0
2, 261632, Note_on_c, 0, 64, 62
2, 262144, Note_off_c, 0, 64, 0
2, 262144, Note_off_c, 0, 56, 0
2, 262144, Note_on_c, 0, 72, 62
2, 262144, Note_on_c, 0, 57, 62
2, 262656, Note_off_c, 0, 72, 0
2, 262656, Note_on_c, 0, 64, 62
2, 263168, Note_off_c, 0, 64, 0
2, 263168, Note_on_c, 0, 68, 62
2, 263168, Note_off_c, 0, 57, 0
2, 263168, Note_on_c, 0, 59, 62
2, 263680, Note_off_c, 0, 68, 0
2, 263680, Note_on_c, 0, 64, 62
2, 264192, Note_off_c, 0, 64, 0
2, 264192, Note_on_c, 0, 69, 62
2, 264192, Note_off_c, 0, 59, 0
2, 264192, Note_on_c, 0, 60, 62
2, 264704, Note_off_c, 0, 69, 0
2, 264704, Note_on_c, 0, 64, 62
2, 265216, Note_off_c, 0, 64, 0
2, 265216, Note_off_c, 0, 60, 0
2, 265216, Note_off_c, 0, 52, 0
2, 265216, Note_on_c, 0, 66, 62
2, 265216, Note_on_c, 0, 50, 62
2, 265728, Note_off_c, 0, 66, 0
2, 265728, Note_on_c, 0, 67, 62
2, 266240, Note_off_c, 0, 67, 0
2, 266240, Note_on_c, 0, 66, 62
2, 266240, Note_on_c, 0, 57, 62
2, 266752, Note_off_c, 0, 66, 0
2, 266752, Note_on_c, 0, 62, 62
2, 267264, Note_off_c, 0, 62, 0
2, 267264, Note_on_c, 0, 69, 62
2, 267264, Note_off_c, 0, 57, 0
2, 267264, Note_on_c, 0, 54, 62
2, 267776, Note_off_c, 0, 69, 0
2, 267776, Note_on_c, 0, 62, 62
2, 268288, Note_off_c, 0, 62, 0
2, 268288, Note_off_c, 0, 54, 0
2, 268288, Note_on_c, 0, 71, 62
2, 268288, Note_on_c, 0, 55, 62
2, 268800, Note_off_c, 0, 71, 0
2, 268800, Note_on_c, 0, 62, 62
2, 269312, Note_off_c, 0, 62, 0
2, 269312, Note_on_c, 0, 66, 62
2, 269312, Note_off_c, 0, 55, 0
2, 269312, Note_on_c, 0, 57, 62
2, 269824, Note_off_c, 0, 66, 0
2, 269824, Note_on_c, 0, 62, 62
2, 270336, Note_off_c, 0, 62, 0
2, 270336, Note_on_c, 0, 67, 62
2, 270336, Note_off_c, 0, 57, 0
2, 270336, Note_on_c, 0, 59, 62
2, 270848, Note_off_c, 0, 67, 0
2, 270848, Note_on_c, 0, 62, 62
2, 271360, Note_off_c, 0, 62, 0
2, 271360, Note_off_c, 0, 59, 0
2, 271360, Note_off_c, 0, 50, 0
2, 271360, Note_on_c, 0, 64, 75
2, 271360, Note_on_c, 0, 48, 75
2, 271872, Note_off_c, 0, 64, 0
2, 271872, Note_on_c, 0, 66, 75
2, 272384, Note_off_c, 0, 66, 0
2, 272384, Note_on_c, 0, 64, 75
2, 272384, Note_on_c, 0, 55, 75
2, 272896, Note_off_c, 0, 64, 0
2, 272896, Note_on_c, 0, 60, 75
2, 273408, Note_off_c, 0, 60, 0
2, 273408, Note_on_c, 0, 67, 75
2, 273408, Note_off_c, 0, 55, 0
2, 273408, Note_on_c, 0, 52, 75
2, 273920, Note_off_c, 0, 67, 0
2, 273920, Note_on_c, 0, 60, 75
2, 274432, Note_off_c, 0, 60, 0
2, 274432, Note_off_c, 0, 52, 0
2, 274432, Note_on_c, 0, 69, 75
2, 274432, Note_on_c, 0, 54, 75
2, 274944, Note_off_c, 0, 69, 0
2, 274944, Note_on_c, 0, 60, 75
2, 275456, Note_off_c, 0, 60, 0
2, 275456, Note_on_c, 0, 64, 75
2, 275456, Note_off_c, 0, 54, 0
2, 275456, Note_on_c, 0, 55, 75
2, 275968, Note_off_c, 0, 64, 0
2, 275968, Note_on_c, 0, 60, 75
2, 276480, Note_off_c, 0, 60, 0
2, 276480, Note_on_c, 0, 66, 75
2, 276480, Note_off_c, 0, 55, 0
2, 276480, Note_on_c, 0, 57, 75
2, 276992, Note_off_c, 0, 66, 0
2, 276992, Note_on_c, 0, 60, 75
2, 277504, Note_off_c, 0, 60, 0
2, 277504, Note_off_c, 0, 57, 0
2, 277504, Note_off_c, 0, 48, 0
2, 277504, Note_on_c, 0, 63, 75
2, 277504, Note_on_c, 0, 47, 75
2, 278016, Note_off_c, 0, 63, 0
2, 278016, Note_on_c, 0, 64, 75
2, 278528, Note_off_c, 0, 64, 0
2, 278528, Note_on_c, 0, 63, 75
2, 278528, Note_on_c, 0, 54, 75
2, 279040, Note_off_c, 0, 63, 0
2, 279040, Note_on_c, 0, 59, 75
2, 279552, Note_off_c, 0, 59, 0
2, 279552, Note_on_c, 0, 66, 75
2, 279552, Note_off_c, 0, 54, 0
2, 279552, Note_on_c, 0, 51, 75
2, 280064, Note_off_c, 0, 66, 0
2, 280064, Note_on_c, 0, 59, 75
2, 280576, Note_off_c, 0, 59, 0
2, 280576, Note_off_c, 0, 51, 0
2, 280576, Note_on_c, 0, 67, 75
2, 280576, Note_on_c, 0, 52, 75
2, 281088, Note_off_c, 0, 67, 0
2, 281088, Note_on_c, 0, 59, 75
2, 281600, Note_off_c, 0, 59, 0
2, 281600, Note_on_c, 0, 63, 75
2, 281600, Note_off_c, 0, 52, 0
2, 281600, Note_on_c, 0, 54, 75
2, 282112, Note_off_c, 0, 63, 0
2, 282112, Note_on_c, 0, 59, 75
2, 282624, Note_off_c, 0, 59, 0
2, 282624, Note_on_c, 0, 64, 75
2, 282624, Note_off_c, 0, 54, 0
2, 282624, Note_on_c, 0, 55, 75
2, 283136, Note_off_c, 0, 64, 0
2, 283136, Note_on_c, 0, 59, 75
2, 283648, Note_off_c, 0, 59, 0
2, 283648, Note_off_c, 0, 55, 0
2, 283648, Note_off_c, 0, 47, 0
2, 283648, Note_on_c, 0, 66, 75
2, 283648, Note_on_c, 0, 51, 75
2, 283648, Note_on_c, 0, 47, 75
2, 284160, Note_off_c, 0, 66, 0
2, 284160, Note_on_c, 0, 59, 75
2, 284672, Note_off_c, 0, 59, 0
2, 284672, Note_on_c, 0, 69, 81
2, 284672, Note_off_c, 0, 51, 0
2, 284672, Note_on_c, 0, 54, 81
2, 285184, Note_off_c, 0, 69, 0
2, 285184, Note_on_c, 0, 59, 87
2, 285696, Note_off_c, 0, 59, 0
2, 285696, Note_on_c, 0, 67, 93
2, 285696, Note_off_c, 0, 54, 0
2, 285696, Note_on_c, 0, 52, 93
2, 286208, Note_off_c, 0, 67, 0
2, 286208, Note_on_c, 0, 59, 101
2, 286720, Note_off_c, 0, 59, 0
2, 286720, Note_off_c, 0, 52, 0
2, 286720, Note_off_c, 0, 47, 0
2, 286720, Note_on_c, 0, 66, 107
2, 286720, Note_on_c, 0, 51, 107
2, 286720, Note_on_c, 0, 47, 107
2, 286976, Note_off_c, 0, 66, 0
2, 286976, Note_on_c, 0, 67, 107
2, 287104, Note_off_c, 0, 67, 0
2, 287104, Note_on_c, 0, 66, 107
2, 287232, Note_off_c, 0, 66, 0
2, 287232, Note_on_c, 0, 67, 113
2, 287360, Note_off_c, 0, 67, 0
2, 287360, Note_on_c, 0, 66, 113
2, 287744, Note_off_c, 0, 66, 0
2, 287744, Note_off_c, 0, 51, 0
2, 287744, Note_off_c, 0, 47, 0
2, 289792, Note_on_c, 0, 71, 62
2, 289792, Note_on_c, 0, 40, 62
2, 289792, Note_on_c, 0, 52, 62
2, 290304, Note_off_c, 0, 71, 0
2, 290304, Note_on_c, 0, 72, 62
2, 290816, Note_off_c, 0, 72, 0
2, 290816, Note_on_c, 0, 71, 62
2, 290816, Note_off_c, 0, 40, 0
2, 290816, Note_off_c, 0, 52, 0
2, 290816, Note_on_c, 0, 43, 62
2, 290816, Note_on_c, 0, 55, 62
2, 291328, Note_off_c, 0, 71, 0
2, 291328, Note_on_c, 0, 67, 62
2, 291840, Note_off_c, 0, 67, 0
2, 291840, Note_on_c, 0, 69, 62
2, 291840, Note_off_c, 0, 43, 0
2, 291840, Note_off_c, 0, 55, 0
2, 291840, Note_on_c, 0, 47, 62
2, 291840, Note_on_c, 0, 59, 62
2, 292352, Note_off_c, 0, 69, 0
2, 292352, Note_on_c, 0, 66, 62
2, 292864, Note_off_c, 0, 66, 0
2, 292864, Note_off_c, 0, 47, 0
2, 292864, Note_off_c, 0, 59, 0
2, 292864, Note_on_c, 0, 67, 62
2, 292864, Note_on_c, 0, 40, 62
2, 292864, Note_on_c, 0, 52, 62
2, 293376, Note_off_c, 0, 67, 0
2, 293376, Note_on_c, 0, 69, 62
2, 293888, Note_off_c, 0, 69, 0
2, 293888, Note_on_c, 0, 67, 62
2, 293888, Note_off_c, 0, 40, 0
2, 293888, Note_off_c, 0, 52, 0
2, 293888, Note_on_c, 0, 43, 62
2, 293888, Note_on_c, 0, 55, 62
2, 294400, Note_off_c, 0, 67, 0
2, 294400, Note_on_c, 0, 64, 62
2, 294912, Note_off_c, 0, 64, 0
2, 294912, Note_on_c, 0, 66, 62
2, 294912, Note_off_c, 0, 43, 0
2, 294912, Note_off_c, 0, 55, 0
2, 294912, Note_on_c, 0, 47, 62
2, 294912, Note_on_c, 0, 59, 62
2, 295424, Note_off_c, 0, 66, 0
2, 295424, Note_on_c, 0, 63, 62
2, 295936, Note_off_c, 0, 63, 0
2, 295936, Note_off_c, 0, 47, 0
2, 295936, Note_off_c, 0, 59, 0
2, 295936, Note_on_c, 0, 64, 49
2, 295936, Note_on_c, 0, 55, 49
2, 296448, Note_off_c, 0, 64, 0
2, 296448, Note_on_c, 0, 59, 49
2, 296960, Note_off_c, 0, 59, 0
2, 296960, Note_on_c, 0, 66, 49
2, 296960, Note_off_c, 0, 55, 0
2, 296960, Note_on_c, 0, 51, 49
2, 297472, Note_off_c, 0, 66, 0
2, 297472, Note_on_c, 0, 59, 49
2, 297984, Note_off_c, 0, 59, 0
2, 297984, Note_on_c, 0, 67, 49
2, 297984, Note_off_c, 0, 51, 0
2, 297984, Note_on_c, 0, 52, 49
2, 298496, Note_off_c, 0, 67, 0
2, 298496, Note_on_c, 0, 59, 49
2, 299008, Note_off_c, 0, 59, 0
2, 299008, Note_off_c, 0, 52, 0
2, 299008, Note_on_c, 0, 69, 49
2, 299008, Note_on_c, 0, 54, 49
2, 299520, Note_off_c, 0, 69, 0
2, 299520, Note_on_c, 0, 59, 49
2, 300032, Note_off_c, 0, 59, 0
2, 300032, Note_on_c, 0, 66, 49
2, 300032, Note_off_c, 0, 54, 0
2, 300032, Note_on_c, 0, 51, 49
2, 300544, Note_off_c, 0, 66, 0
2, 300544, Note_on_c, 0, 59, 49
2, 301056, Note_off_c, 0, 59, 0
2, 301056, Note_on_c, 0, 67, 49
2, 301056, Note_off_c, 0, 51, 0
2, 301056, Note_on_c, 0, 52, 49
2, 301568, Note_off_c, 0, 67, 0
2, 301568, Note_on_c, 0, 59, 49
2, 302080, Note_off_c, 0, 59, 0
2, 302080, Note_off_c, 0, 52, 0
2, 302080, Note_on_c, 0, 71, 75
2, 302080, Note_on_c, 0, 40, 75
2, 302080, Note_on_c, 0, 52, 75
2, 302592, Note_off_c, 0, 71, 0
2, 302592, Note_on_c, 0, 72, 75
2, 303104, Note_off_c, 0, 72, 0
2, 303104, Note_on_c, 0, 71, 75
2, 303104, Note_off_c, 0, 40, 0
2, 303104, Note_off_c, 0, 52, 0
2, 303104, Note_on_c, 0, 43, 75
2, 303104, Note_on_c, 0, 55, 75
2, 303616, Note_off_c, 0, 71, 0
2, 303616, Note_on_c, 0, 67, 75
2, 304128, Note_off_c, 0, 67, 0
2, 304128, Note_on_c, 0, 69, 75
2, 304128, Note_off_c, 0, 43, 0
2, 304128, Note_off_c, 0, 55, 0
2, 304128, Note_on_c, 0, 47, 75
2, 304128, Note_on_c, 0, 59, 75
2, 304640, Note_off_c, 0, 69, 0
2, 304640, Note_on_c, 0, 66, 75
2, 305152, Note_off_c, 0, 66, 0
2, 305152, Note_off_c, 0, 47, 0
2, 305152, Note_off_c, 0, 59, 0
2, 305152, Note_on_c, 0, 67, 75
2, 305152, Note_on_c, 0, 40, 75
2, 305152, Note_on_c, 0, 52, 75
2, 305664, Note_off_c, 0, 67, 0
2, 305664, Note_on_c, 0, 69, 75
2, 306176, Note_off_c, 0, 69, 0
2, 306176, Note_on_c, 0, 67, 75
2, 306176, Note_off_c, 0, 40, 0
2, 306176, Note_off_c, 0, 52, 0
2, 306688, Note_off_c, 0, 67, 0
2, 306688, Note_on_c, 0, 64, 75
2, 307200, Note_off_c, 0, 64, 0
2, 307200, Note_on_c, 0, 68, 75
2, 307200, Note_on_c, 0, 38, 75
2, 307200, Note_on_c, 0, 50, 75
2, 307712, Note_off_c, 0, 68, 0
2, 307712, Note_on_c, 0, 64, 75
2, 308224, Note_off_c, 0, 64, 0
2, 308224, Note_off_c, 0, 38, 0
2, 308224, Note_off_c, 0, 50, 0
2, 308224, Note_on_c, 0, 69, 75
2, 308224, Note_on_c, 0, 36, 75
2, 308224, Note_on_c, 0, 48, 75
2, 308736, Note_off_c, 0, 69, 0
2, 308736, Note_on_c, 0, 64, 75
2, 309248, Note_off_c, 0, 64, 0
2, 309248, Note_on_c, 0, 71, 75
2, 309248, Note_off_c, 0, 36, 0
2, 309248, Note_off_c, 0, 48, 0
2, 309248, Note_on_c, 0, 35, 75
2, 309248, Note_on_c, 0, 47, 75
2, 309760, Note_off_c, 0, 71, 0
2, 309760, Note_on_c, 0, 64, 75
2, 310272, Note_off_c, 0, 64, 0
2, 310272, Note_on_c, 0, 72, 75
2, 310272, Note_off_c, 0, 35, 0
2, 310272, Note_off_c, 0, 47, 0
2, 310272, Note_on_c, 0, 33, 75
2, 310272, Note_on_c, 0, 45, 75
2, 310784, Note_off_c, 0, 72, 0
2, 310784, Note_on_c, 0, 64, 75
2, 311296, Note_off_c, 0, 64, 0
2, 311296, Note_off_c, 0, 33, 0
2, 311296, Note_off_c, 0, 45, 0
2, 311296, Note_on_c, 0, 72, 75
2, 311296, Note_on_c, 0, 31, 75
2, 311296, Note_on_c, 0, 43, 75
2, 311808, Note_off_c, 0, 72, 0
2, 311808, Note_on_c, 0, 71, 75
2, 312320, Note_off_c, 0, 71, 0
2, 312320, Note_on_c, 0, 69, 75
2, 312832, Note_off_c, 0, 69, 0
2, 312832, Note_on_c, 0, 67, 75
2, 313344, Note_off_c, 0, 67, 0
2, 313344, Note_on_c, 0, 66, 75
2, 313344, Note_off_c, 0, 31, 0
2, 313344, Note_off_c, 0, 43, 0
2, 313856, Note_off_c, 0, 66, 0
2, 313856, Note_on_c, 0, 64, 75
2, 314368, Note_off_c, 0, 64, 0
2, 314368, Note_on_c, 0, 66, 75
2, 314368, Note_on_c, 0, 45, 75
2, 314368, Note_on_c, 0, 57, 75
2, 314880, Note_off_c, 0, 66, 0
2, 314880, Note_on_c, 0, 69, 75
2, 315392, Note_off_c, 0, 69, 0
2, 315392, Note_on_c, 0, 67, 75
2, 315392, Note_off_c, 0, 45, 0
2, 315392, Note_off_c, 0, 57, 0
2, 315392, Note_on_c, 0, 47, 75
2, 315392, Note_on_c, 0, 59, 75
2, 315904, Note_off_c, 0, 67, 0
2, 315904, Note_on_c, 0, 64, 75
2, 316416, Note_off_c, 0, 64, 0
2, 316416, Note_on_c, 0, 66, 75
2, 316416, Note_off_c, 0, 47, 0
2, 316416, Note_off_c, 0, 59, 0
2, 316416, Note_on_c, 0, 45, 75
2, 316416, Note_on_c, 0, 57, 75
2, 316928, Note_off_c, 0, 66, 0
2, 316928, Note_on_c, 0, 63, 75
2, 317440, Note_off_c, 0, 63, 0
2, 317440, Note_off_c, 0, 45, 0
2, 317440, Note_off_c, 0, 57, 0
2, 317440, Note_on_c, 0, 64, 75
2, 317440, Note_on_c, 0, 52, 75
2, 317440, Note_on_c, 0, 55, 75
2, 317696, Note_off_c, 0, 64, 0
2, 317696, Note_on_c, 0, 66, 75
2, 317824, Note_off_c, 0, 66, 0
2, 317824, Note_on_c, 0, 64, 75
2, 317952, Note_off_c, 0, 64, 0
2, 317952, Note_on_c, 0, 66, 75
2, 318080, Note_off_c, 0, 66, 0
2, 318080, Note_on_c, 0, 64, 75
2, 318208, Note_off_c, 0, 64, 0
2, 318208, Note_on_c, 0, 66, 75
2, 318336, Note_off_c, 0, 66, 0
2, 318336, Note_on_c, 0, 64, 75
2, 318464, Note_off_c, 0, 64, 0
2, 318464, Note_on_c, 0, 66, 75
2, 318464, Note_off_c, 0, 52, 0
2, 318464, Note_off_c, 0, 55, 0
2, 318464, Note_on_c, 0, 40, 75
2, 318592, Note_off_c, 0, 66, 0
2, 318592, Note_on_c, 0, 64, 75
2, 318720, Note_off_c, 0, 64, 0
2, 318720, Note_on_c, 0, 66, 75
2, 318848, Note_off_c, 0, 66, 0
2, 318848, Note_on_c, 0, 64, 75
2, 318976, Note_off_c, 0, 64, 0
2, 318976, Note_on_c, 0, 66, 75
2, 319104, Note_off_c, 0, 66, 0
2, 319104, Note_on_c, 0, 64, 75
2, 319488, Note_off_c, 0, 64, 0
2, 319488, Note_off_c, 0, 40, 0
2, 321024, Note_on_c, 0, 71, 75
2, 321024, Note_on_c, 0, 64, 75
2, 321024, Note_on_c, 0, 68, 75
2, 322048, Note_off_c, 0, 71, 0
2, 322048, Note_on_c, 0, 71, 75
2, 322048, Note_off_c, 0, 64, 0
2, 322048, Note_off_c, 0, 68, 0
2, 322048, Note_on_c, 0, 64, 75
2, 322048, Note_on_c, 0, 68, 75
2, 323072, Note_off_c, 0, 71, 0
2, 323072, Note_on_c, 0, 71, 75
2, 323072, Note_off_c, 0, 64, 0
2, 323072, Note_off_c, 0, 68, 0
2, 323072, Note_on_c, 0, 64, 75
2, 323072, Note_on_c, 0, 68, 75
2, 324096, Note_off_c, 0, 71, 0
2, 324096, Note_off_c, 0, 64, 0
2, 324096, Note_off_c, 0, 68, 0
2, 324096, Note_on_c, 0, 71, 75
2, 324096, Note_on_c, 0, 64, 75
2, 324096, Note_on_c, 0, 68, 75
2, 324224, Note_off_c, 0, 71, 0
2, 324224, Note_on_c, 0, 73, 75
2, 324352, Note_off_c, 0, 73, 0
2, 324352, Note_on_c, 0, 71, 75
2, 324480, Note_off_c, 0, 71, 0
2, 324480, Note_on_c, 0, 73, 75
2, 324608, Note_off_c, 0, 73, 0
2, 324608, Note_on_c, 0, 71, 75
2, 324736, Note_off_c, 0, 71, 0
2, 324736, Note_on_c, 0, 73, 75
2, 324864, Note_off_c, 0, 73, 0
2, 324864, Note_on_c, 0, 71, 75
2, 324992, Note_off_c, 0, 71, 0
2, 324992, Note_on_c, 0, 73, 75
2, 325120, Note_off_c, 0, 73, 0
2, 325120, Note_on_c, 0, 71, 75
2, 325120, Note_off_c, 0, 64, 0
2, 325120, Note_off_c, 0, 68, 0
2, 325120, Note_on_c, 0, 64, 75
2, 325120, Note_on_c, 0, 68, 75
2, 325248, Note_off_c, 0, 71, 0
2, 325248, Note_on_c, 0, 73, 75
2, 325376, Note_off_c, 0, 73, 0
2, 325376, Note_on_c, 0, 71, 75
2, 325504, Note_off_c, 0, 71, 0
2, 325504, Note_on_c, 0, 73, 75
2, 325632, Note_off_c, 0, 73, 0
2, 325632, Note_on_c, 0, 71, 75
2, 325760, Note_off_c, 0, 71, 0
2, 325760, Note_on_c, 0, 73, 75
2, 325888, Note_off_c, 0, 73, 0
2, 325888, Note_on_c, 0, 71, 75
2, 326016, Note_off_c, 0, 71, 0
2, 326016, Note_on_c, 0, 73, 75
2, 326144, Note_off_c, 0, 73, 0
2, 326144, Note_on_c, 0, 76, 75
2, 326144, Note_off_c, 0, 64, 0
2, 326144, Note_off_c, 0, 68, 0
2, 326144, Note_on_c, 0, 64, 75
2, 326144, Note_on_c, 0, 68, 75
2, 326656, Note_off_c, 0, 76, 0
2, 326656, Note_on_c, 0, 75, 75
2, 327168, Note_off_c, 0, 75, 0
2, 327168, Note_off_c, 0, 64, 0
2, 327168, Note_off_c, 0, 68, 0
2, 327168, Note_on_c, 0, 75, 75
2, 327168, Note_on_c, 0, 64, 75
2, 327168, Note_on_c, 0, 69, 75
2, 327680, Note_off_c, 0, 75, 0
2, 327680, Note_on_c, 0, 73, 75
2, 328192, Note_off_c, 0, 73, 0
2, 328192, Note_on_c, 0, 73, 75
2, 328192, Note_off_c, 0, 64, 0
2, 328192, Note_off_c, 0, 69, 0
2, 328192, Note_on_c, 0, 64, 75
2, 328192, Note_on_c, 0, 69, 75
2, 328704, Note_off_c, 0, 73, 0
2, 328704, Note_on_c, 0, 81, 75
2, 329216, Note_off_c, 0, 81, 0
2, 329216, Note_on_c, 0, 81, 75
2, 329216, Note_off_c, 0, 64, 0
2, 329216, Note_off_c, 0, 69, 0
2, 329216, Note_on_c, 0, 64, 75
2, 329216, Note_on_c, 0, 69, 75
2, 329728, Note_off_c, 0, 81, 0
2, 329728, Note_on_c, 0, 73, 75
2, 330240, Note_off_c, 0, 73, 0
2, 330240, Note_off_c, 0, 64, 0
2, 330240, Note_off_c, 0, 69, 0
2, 330240, Note_on_c, 0, 73, 75
2, 330240, Note_on_c, 0, 64, 75
2, 330240, Note_on_c, 0, 69, 75
2, 330368, Note_off_c, 0, 73, 0
2, 330368, Note_on_c, 0, 75, 75
2, 330496, Note_off_c, 0, 75, 0
2, 330496, Note_on_c, 0, 73, 75
2, 330624, Note_off_c, 0, 73, 0
2, 330624, Note_on_c, 0, 75, 75
2, 330752, Note_off_c, 0, 75, 0
2, 330752, Note_on_c, 0, 71, 75
2, 331264, Note_off_c, 0, 71, 0
2, 331264, Note_on_c, 0, 71, 75
2, 331264, Note_off_c, 0, 64, 0
2, 331264, Note_off_c, 0, 69, 0
2, 331264, Note_on_c, 0, 64, 75
2, 331264, Note_on_c, 0, 68, 75
2, 332288, Note_off_c, 0, 64, 0
2, 332288, Note_off_c, 0, 68, 0
2, 332800, Note_off_c, 0, 71, 0
2, 332800, Note_on_c, 0, 83, 75
2, 333312, Note_off_c, 0, 83, 0
2, 333312, Note_on_c, 0, 83, 75
2, 333824, Note_off_c, 0, 83, 0
2, 333824, Note_on_c, 0, 81, 75
2, 334336, Note_off_c, 0, 81, 0
2, 334336, Note_on_c, 0, 81, 75
2, 334336, Note_on_c, 0, 61, 75
2, 334336, Note_on_c, 0, 64, 75
2, 335360, Note_off_c, 0, 61, 0
2, 335360, Note_off_c, 0, 64, 0
2, 335360, Note_on_c, 0, 59, 75
2, 335360, Note_on_c, 0, 63, 75
2, 335872, Note_off_c, 0, 81, 0
2, 335872, Note_on_c, 0, 80, 75
2, 336384, Note_off_c, 0, 80, 0
2, 336384, Note_off_c, 0, 59, 0
2, 336384, Note_off_c, 0, 63, 0
2, 336384, Note_on_c, 0, 80, 75
2, 336896, Note_off_c, 0, 80, 0
2, 336896, Note_on_c, 0, 78, 75
2, 337408, Note_off_c, 0, 78, 0
2, 337408, Note_on_c, 0, 78, 75
2, 337408, Note_on_c, 0, 57, 75
2, 337408, Note_on_c, 0, 61, 75
2, 338432, Note_off_c, 0, 57, 0
2, 338432, Note_off_c, 0, 61, 0
2, 338432, Note_on_c, 0, 56, 75
2, 338432, Note_on_c, 0, 59, 75
2, 338944, Note_off_c, 0, 78, 0
2, 338944, Note_on_c, 0, 76, 75
2, 339456, Note_off_c, 0, 76, 0
2, 339456, Note_off_c, 0, 56, 0
2, 339456, Note_off_c, 0, 59, 0
2, 339456, Note_on_c, 0, 75, 75
2, 339968, Note_off_c, 0, 75, 0
2, 339968, Note_on_c, 0, 78, 75
2, 340480, Note_off_c, 0, 78, 0
2, 340480, Note_on_c, 0, 78, 75
2, 340480, Note_on_c, 0, 51, 75
2, 340992, Note_off_c, 0, 78, 0
2, 340992, Note_on_c, 0, 81, 75
2, 341504, Note_off_c, 0, 81, 0
2, 341504, Note_on_c, 0, 78, 75
2, 341504, Note_on_c, 0, 81, 75
2, 341504, Note_off_c, 0, 51, 0
2, 341504, Note_on_c, 0, 52, 75
2, 342016, Note_off_c, 0, 78, 0
2, 342016, Note_off_c, 0, 81, 0
2, 342016, Note_on_c, 0, 76, 75
2, 342016, Note_on_c, 0, 80, 75
2, 342528, Note_off_c, 0, 76, 0
2, 342528, Note_off_c, 0, 80, 0
2, 342528, Note_off_c, 0, 52, 0
2, 342528, Note_on_c, 0, 76, 75
2, 342528, Note_on_c, 0, 80, 75
2, 342528, Note_on_c, 0, 59, 75
2, 343552, Note_off_c, 0, 76, 0
2, 343552, Note_off_c, 0, 80, 0
2, 343552, Note_on_c, 0, 75, 75
2, 343552, Note_on_c, 0, 78, 75
2, 343552, Note_off_c, 0, 59, 0
2, 343552, Note_on_c, 0, 54, 75
2, 344576, Note_off_c, 0, 75, 0
2, 344576, Note_off_c, 0, 78, 0
2, 344576, Note_off_c, 0, 54, 0
2, 344576, Note_on_c, 0, 47, 75
2, 345600, Note_off_c, 0, 47, 0
2, 345600, Note_on_c, 0, 71, 75
2, 345600, Note_on_c, 0, 64, 75
2, 345600, Note_on_c, 0, 68, 75
2, 346624, Note_off_c, 0, 71, 0
2, 346624, Note_on_c, 0, 71, 75
2, 346624, Note_off_c, 0, 64, 0
2, 346624, Note_off_c, 0, 68, 0
2, 346624, Note_on_c, 0, 64, 75
2, 346624, Note_on_c, 0, 68, 75
2, 347648, Note_off_c, 0, 71, 0
2, 347648, Note_on_c, 0, 71, 75
2, 347648, Note_off_c, 0, 64, 0
2, 347648, Note_off_c, 0, 68, 0
2, 347648, Note_on_c, 0, 64, 75
2, 347648, Note_on_c, 0, 68, 75
2, 348672, Note_off_c, 0, 71, 0
2, 348672, Note_off_c, 0, 64, 0
2, 348672, Note_off_c, 0, 68, 0
2, 348672, Note_on_c, 0, 71, 75
2, 348672, Note_on_c, 0, 64, 75
2, 348672, Note_on_c, 0, 68, 75
2, 348800, Note_off_c, 0, 71, 0
2, 348800, Note_on_c, 0, 73, 75
2, 348928, Note_off_c, 0, 73, 0
2, 348928, Note_on_c, 0, 71, 75
2, 349056, Note_off_c, 0, 71, 0
2, 349056, Note_on_c, 0, 73, 75
2, 349184, Note_off_c, 0, 73, 0
2, 349184, Note_on_c, 0, 71, 75
2, 349312, Note_off_c, 0, 71, 0
2, 349312, Note_on_c, 0, 73, 75
2, 349440, Note_off_c, 0, 73, 0
2, 349440, Note_on_c, 0, 71, 75
2, 349568, Note_off_c, 0, 71, 0
2, 349568, Note_on_c, 0, 73, 75
2, 349696, Note_off_c, 0, 73, 0
2, 349696, Note_on_c, 0, 71, 75
2, 349696, Note_off_c, 0, 64, 0
2, 349696, Note_off_c, 0, 68, 0
2, 349696, Note_on_c, 0, 64, 75
2, 349696, Note_on_c, 0, 68, 75
2, 349824, Note_off_c, 0, 71, 0
2, 349824, Note_on_c, 0, 73, 75
2, 349952, Note_off_c, 0, 73, 0
2, 349952, Note_on_c, 0, 71, 75
2, 350080, Note_off_c, 0, 71, 0
2, 350080, Note_on_c, 0, 73, 75
2, 350208, Note_off_c, 0, 73, 0
2, 350208, Note_on_c, 0, 71, 75
2, 350336, Note_off_c, 0, 71, 0
2, 350336, Note_on_c, 0, 73, 75
2, 350464, Note_off_c, 0, 73, 0
2, 350464, Note_on_c, 0, 71, 75
2, 350592, Note_off_c, 0, 71, 0
2, 350592, Note_on_c, 0, 73, 75
2, 350720, Note_off_c, 0, 73, 0
2, 350720, Note_on_c, 0, 76, 75
2, 350720, Note_off_c, 0, 64, 0
2, 350720, Note_off_c, 0, 68, 0
2, 350720, Note_on_c, 0, 64, 75
2, 350720, Note_on_c, 0, 68, 75
2, 351232, Note_off_c, 0, 76, 0
2, 351232, Note_on_c, 0, 75, 75
2, 351744, Note_off_c, 0, 75, 0
2, 351744, Note_off_c, 0, 64, 0
2, 351744, Note_off_c, 0, 68, 0
2, 351744, Note_on_c, 0, 75, 75
2, 351744, Note_on_c, 0, 64, 75
2, 351744, Note_on_c, 0, 69, 75
2, 352256, Note_off_c, 0, 75, 0
2, 352256, Note_on_c, 0, 73, 75
2, 352768, Note_off_c, 0, 73, 0
2, 352768, Note_on_c, 0, 73, 75
2, 352768, Note_off_c, 0, 64, 0
2, 352768, Note_off_c, 0, 69, 0
2, 352768, Note_on_c, 0, 64, 75
2, 352768, Note_on_c, 0, 69, 75
2, 353280, Note_off_c, 0, 73, 0
2, 353280, Note_on_c, 0, 81, 75
2, 353792, Note_off_c, 0, 81, 0
2, 353792, Note_on_c, 0, 81, 75
2, 353792, Note_off_c, 0, 64, 0
2, 353792, Note_off_c, 0, 69, 0
2, 353792, Note_on_c, 0, 64, 75
2, 353792, Note_on_c, 0, 69, 75
2, 354304, Note_off_c, 0, 81, 0
2, 354304, Note_on_c, 0, 73, 75
2, 354816, Note_off_c, 0, 73, 0
2, 354816, Note_off_c, 0, 64, 0
2, 354816, Note_off_c, 0, 69, 0
2, 354816, Note_on_c, 0, 73, 75
2, 354816, Note_on_c, 0, 64, 75
2, 354816, Note_on_c, 0, 69, 75
2, 354944, Note_off_c, 0, 73, 0
2, 354944, Note_on_c, 0, 75, 75
2, 355072, Note_off_c, 0, 75, 0
2, 355072, Note_on_c, 0, 73, 75
2, 355200, Note_off_c, 0, 73, 0
2, 355200, Note_on_c, 0, 75, 75
2, 355328, Note_off_c, 0, 75, 0
2, 355328, Note_on_c, 0, 71, 75
2, 355840, Note_off_c, 0, 71, 0
2, 355840, Note_on_c, 0, 71, 75
2, 355840, Note_off_c, 0, 64, 0
2, 355840, Note_off_c, 0, 69, 0
2, 355840, Note_on_c, 0, 64, 75
2, 355840, Note_on_c, 0, 68, 75
2, 356864, Note_off_c, 0, 64, 0
2, 356864, Note_off_c, 0, 68, 0
2, 357376, Note_off_c, 0, 71, 0
2, 357376, Note_on_c, 0, 83, 75
2, 357888, Note_off_c, 0, 83, 0
2, 357888, Note_on_c, 0, 83, 75
2, 358400, Note_off_c, 0, 83, 0
2, 358400, Note_on_c, 0, 81, 75
2, 358912, Note_off_c, 0, 81, 0
2, 358912, Note_on_c, 0, 81, 75
2, 358912, Note_on_c, 0, 61, 75
2, 358912, Note_on_c, 0, 64, 75
2, 359936, Note_off_c, 0, 61, 0
2, 359936, Note_off_c, 0, 64, 0
2, 359936, Note_on_c, 0, 59, 75
2, 359936, Note_on_c, 0, 63, 75
2, 360448, Note_off_c, 0, 81, 0
2, 360448, Note_on_c, 0, 80, 75
2, 360960, Note_off_c, 0, 80, 0
2, 360960, Note_off_c, 0, 59, 0
2, 360960, Note_off_c, 0, 63, 0
2, 360960, Note_on_c, 0, 80, 75
2, 361472, Note_off_c, 0, 80, 0
2, 361472, Note_on_c, 0, 78, 75
2, 361984, Note_off_c, 0, 78, 0
2, 361984, Note_on_c, 0, 78, 75
2, 361984, Note_on_c, 0, 57, 75
2, 361984, Note_on_c, 0, 61, 75
2, 363008, Note_off_c, 0, 57, 0
2, 363008, Note_off_c, 0, 61, 0
2, 363008, Note_on_c, 0, 56, 75
2, 363008, Note_on_c, 0, 59, 75
2, 363520, Note_off_c, 0, 78, 0
2, 363520, Note_on_c, 0, 76, 75
2, 364032, Note_off_c, 0, 76, 0
2, 364032, Note_off_c, 0, 56, 0
2, 364032, Note_off_c, 0, 59, 0
2, 364032, Note_on_c, 0, 75, 75
2, 364544, Note_off_c, 0, 75, 0
2, 364544, Note_on_c, 0, 78, 75
2, 365056, Note_off_c, 0, 78, 0
2, 365056, Note_on_c, 0, 78, 75
2, 365056, Note_on_c, 0, 51, 75
2, 365568, Note_off_c, 0, 78, 0
2, 365568, Note_on_c, 0, 81, 75
2, 366080, Note_off_c, 0, 81, 0
2, 366080, Note_on_c, 0, 78, 75
2, 366080, Note_on_c, 0, 81, 75
2, 366080, Note_off_c, 0, 51, 0
2, 366080, Note_on_c, 0, 52, 75
2, 366592, Note_off_c, 0, 78, 0
2, 366592, Note_off_c, 0, 81, 0
2, 366592, Note_on_c, 0, 76, 75
2, 366592, Note_on_c, 0, 80, 75
2, 367104, Note_off_c, 0, 76, 0
2, 367104, Note_off_c, 0, 80, 0
2, 367104, Note_off_c, 0, 52, 0
2, 367104, Note_on_c, 0, 76, 75
2, 367104, Note_on_c, 0, 80, 75
2, 367104, Note_on_c, 0, 59, 75
2, 368128, Note_off_c, 0, 76, 0
2, 368128, Note_off_c, 0, 80, 0
2, 368128, Note_on_c, 0, 75, 75
2, 368128, Note_on_c, 0, 78, 75
2, 368128, Note_off_c, 0, 59, 0
2, 368128, Note_on_c, 0, 54, 75
2, 369152, Note_off_c, 0, 75, 0
2, 369152, Note_off_c, 0, 78, 0
2, 369152, Note_off_c, 0, 54, 0
2, 369152, Note_on_c, 0, 47, 75
2, 370176, Note_off_c, 0, 47, 0
2, 370176, Note_on_c, 0, 71, 75
2, 370688, Note_off_c, 0, 71, 0
2, 370688, Note_on_c, 0, 75, 75
2, 371200, Note_off_c, 0, 75, 0
2, 371200, Note_on_c, 0, 75, 75
2, 371200, Note_on_c, 0, 59, 75
2, 371200, Note_on_c, 0, 69, 75
2, 372224, Note_off_c, 0, 59, 0
2, 372224, Note_off_c, 0, 69, 0
2, 372224, Note_on_c, 0, 59, 75
2, 372224, Note_on_c, 0, 69, 75
2, 372736, Note_off_c, 0, 75, 0
2, 372736, Note_on_c, 0, 71, 75
2, 373248, Note_off_c, 0, 71, 0
2, 373248, Note_off_c, 0, 59, 0
2, 373248, Note_off_c, 0, 69, 0
2, 373248, Note_on_c, 0, 71, 75
2, 373248, Note_on_c, 0, 66, 75
2, 373760, Note_off_c, 0, 71, 0
2, 373760, Note_on_c, 0, 75, 75
2, 374272, Note_off_c, 0, 75, 0
2, 374272, Note_on_c, 0, 78, 75
2, 374272, Note_off_c, 0, 66, 0
2, 374272, Note_on_c, 0, 63, 75
2, 374784, Note_off_c, 0, 78, 0
2, 374784, Note_on_c, 0, 81, 75
2, 375296, Note_off_c, 0, 81, 0
2, 375296, Note_on_c, 0, 81, 75
2, 375296, Note_off_c, 0, 63, 0
2, 375296, Note_on_c, 0, 64, 75
2, 375808, Note_off_c, 0, 81, 0
2, 375808, Note_on_c, 0, 80, 75
2, 376320, Note_off_c, 0, 80, 0
2, 376320, Note_off_c, 0, 64, 0
2, 376320, Note_on_c, 0, 80, 75
2, 376832, Note_off_c, 0, 80, 0
2, 376832, Note_on_c, 0, 78, 75
2, 377344, Note_off_c, 0, 78, 0
2, 377344, Note_on_c, 0, 78, 81
2, 377344, Note_on_c, 0, 57, 81
2, 377344, Note_on_c, 0, 61, 81
2, 378368, Note_off_c, 0, 57, 0
2, 378368, Note_off_c, 0, 61, 0
2, 378368, Note_on_c, 0, 57, 93
2, 378368, Note_on_c, 0, 61, 93
2, 378880, Note_off_c, 0, 78, 0
2, 378880, Note_on_c, 0, 81, 101
2, 379392, Note_off_c, 0, 81, 0
2, 379392, Note_off_c, 0, 57, 0
2, 379392, Note_off_c, 0, 61, 0
2, 379392, Note_on_c, 0, 80, 107
2, 379904, Note_off_c, 0, 80, 0
2, 379904, Note_on_c, 0, 78, 113
2, 380416, Note_off_c, 0, 78, 0
2, 380416, Note_on_c, 0, 78, 119
2, 380416, Note_on_c, 0, 57, 119
2, 380416, Note_on_c, 0, 61, 119
2, 381440, Note_off_c, 0, 57, 0
2, 381440, Note_off_c, 0, 61, 0
2, 381440, Note_on_c, 0, 57, 119
2, 381440, Note_on_c, 0, 61, 119
2, 381952, Note_off_c, 0, 78, 0
2, 381952, Note_on_c, 0, 81, 119
2, 382464, Note_off_c, 0, 81, 0
2, 382464, Note_off_c, 0, 57, 0
2, 382464, Note_off_c, 0, 61, 0
2, 382464, Note_on_c, 0, 80, 119
2, 382976, Note_off_c, 0, 80, 0
2, 382976, Note_on_c, 0, 78, 119
2, 383488, Note_off_c, 0, 78, 0
2, 383488, Note_on_c, 0, 78, 119
2, 383488, Note_on_c, 0, 57, 119
2, 383488, Note_on_c, 0, 61, 119
2, 384000, Note_off_c, 0, 78, 0
2, 384000, Note_on_c, 0, 85, 119
2, 384512, Note_off_c, 0, 85, 0
2, 384512, Note_on_c, 0, 85, 119
2, 384512, Note_off_c, 0, 57, 0
2, 384512, Note_off_c, 0, 61, 0
2, 384512, Note_on_c, 0, 58, 119
2, 384512, Note_on_c, 0, 61, 119
2, 385024, Note_off_c, 0, 85, 0
2, 385024, Note_on_c, 0, 76, 119
2, 385536, Note_off_c, 0, 76, 0
2, 385536, Note_off_c, 0, 58, 0
2, 385536, Note_off_c, 0, 61, 0
2, 385536, Note_on_c, 0, 76, 119
2, 385536, Note_on_c, 0, 59, 119
2, 386560, Note_off_c, 0, 76, 0
2, 386560, Note_on_c, 0, 75, 119
2, 386560, Note_off_c, 0, 59, 0
2, 386560, Note_on_c, 0, 54, 119
2, 387584, Note_off_c, 0, 75, 0
2, 387584, Note_off_c, 0, 54, 0
2, 387584, Note_on_c, 0, 47, 119
2, 388608, Note_off_c, 0, 47, 0
2, 388608, Note_on_c, 0, 71, 75
2, 388608, Note_on_c, 0, 64, 75
2, 388608, Note_on_c, 0, 68, 75
2, 389632, Note_off_c, 0, 71, 0
2, 389632, Note_on_c, 0, 71, 75
2, 389632, Note_off_c, 0, 64, 0
2, 389632, Note_off_c, 0, 68, 0
2, 389632, Note_on_c, 0, 64, 75
2, 389632, Note_on_c, 0, 68, 75
2, 390656, Note_off_c, 0, 71, 0
2, 390656, Note_on_c, 0, 71, 75
2, 390656, Note_off_c, 0, 64, 0
2, 390656, Note_off_c, 0, 68, 0
2, 390656, Note_on_c, 0, 64, 75
2, 390656, Note_on_c, 0, 68, 75
2, 391680, Note_off_c, 0, 71, 0
2, 391680, Note_off_c, 0, 64, 0
2, 391680, Note_off_c, 0, 68, 0
2, 391680, Note_on_c, 0, 71, 75
2, 391680, Note_on_c, 0, 64, 75
2, 391680, Note_on_c, 0, 68, 75
2, 391808, Note_off_c, 0, 71, 0
2, 391808, Note_on_c, 0, 73, 75
2, 391936, Note_off_c, 0, 73, 0
2, 391936, Note_on_c, 0, 71, 75
2, 392064, Note_off_c, 0, 71, 0
2, 392064, Note_on_c, 0, 73, 75
2, 392192, Note_off_c, 0, 73, 0
2, 392192, Note_on_c, 0, 71, 75
2, 392320, Note_off_c, 0, 71, 0
2, 392320, Note_on_c, 0, 73, 75
2, 392448, Note_off_c, 0, 73, 0
2, 392448, Note_on_c, 0, 71, 75
2, 392576, Note_off_c, 0, 71, 0
2, 392576, Note_on_c, 0, 73, 75
2, 392704, Note_off_c, 0, 73, 0
2, 392704, Note_on_c, 0, 71, 75
2, 392704, Note_off_c, 0, 64, 0
2, 392704, Note_off_c, 0, 68, 0
2, 392704, Note_on_c, 0, 64, 75
2, 392704, Note_on_c, 0, 68, 75
2, 392832, Note_off_c, 0, 71, 0
2, 392832, Note_on_c, 0, 73, 75
2, 392960, Note_off_c, 0, 73, 0
2, 392960, Note_on_c, 0, 71, 75
2, 393088, Note_off_c, 0, 71, 0
2, 393088, Note_on_c, 0, 73, 75
2, 393216, Note_off_c, 0, 73, 0
2, 393216, Note_on_c, 0, 71, 75
2, 393344, Note_off_c, 0, 71, 0
2, 393344, Note_on_c, 0, 73, 75
2, 393472, Note_off_c, 0, 73, 0
2, 393472, Note_on_c, 0, 71, 75
2, 393600, Note_off_c, 0, 71, 0
2, 393600, Note_on_c, 0, 73, 75
2, 393728, Note_off_c, 0, 73, 0
2, 393728, Note_on_c, 0, 76, 75
2, 393728, Note_off_c, 0, 64, 0
2, 393728, Note_off_c, 0, 68, 0
2, 393728, Note_on_c, 0, 64, 75
2, 393728, Note_on_c, 0, 68, 75
2, 394240, Note_off_c, 0, 76, 0
2, 394240, Note_on_c, 0, 75, 75
2, 394752, Note_off_c, 0, 75, 0
2, 394752, Note_off_c, 0, 64, 0
2, 394752, Note_off_c, 0, 68, 0
2, 394752, Note_on_c, 0, 75, 75
2, 394752, Note_on_c, 0, 64, 75
2, 394752, Note_on_c, 0, 69, 75
2, 395264, Note_off_c, 0, 75, 0
2, 395264, Note_on_c, 0, 73, 75
2, 395776, Note_off_c, 0, 73, 0
2, 395776, Note_on_c, 0, 73, 75
2, 395776, Note_off_c, 0, 64, 0
2, 395776, Note_off_c, 0, 69, 0
2, 395776, Note_on_c, 0, 64, 75
2, 395776, Note_on_c, 0, 69, 75
2, 396288, Note_off_c, 0, 73, 0
2, 396288, Note_on_c, 0, 81, 75
2, 396800, Note_off_c, 0, 81, 0
2, 396800, Note_on_c, 0, 81, 75
2, 396800, Note_off_c, 0, 64, 0
2, 396800, Note_off_c, 0, 69, 0
2, 396800, Note_on_c, 0, 64, 75
2, 396800, Note_on_c, 0, 69, 75
2, 397312, Note_off_c, 0, 81, 0
2, 397312, Note_on_c, 0, 73, 75
2, 397824, Note_off_c, 0, 73, 0
2, 397824, Note_off_c, 0, 64, 0
2, 397824, Note_off_c, 0, 69, 0
2, 397824, Note_on_c, 0, 73, 75
2, 397824, Note_on_c, 0, 64, 75
2, 397824, Note_on_c, 0, 69, 75
2, 397952, Note_off_c, 0, 73, 0
2, 397952, Note_on_c, 0, 75, 75
2, 398080, Note_off_c, 0, 75, 0
2, 398080, Note_on_c, 0, 73, 75
2, 398208, Note_off_c, 0, 73, 0
2, 398208, Note_on_c, 0, 75, 75
2, 398336, Note_off_c, 0, 75, 0
2, 398336, Note_on_c, 0, 71, 75
2, 398848, Note_off_c, 0, 71, 0
2, 398848, Note_on_c, 0, 71, 75
2, 398848, Note_off_c, 0, 64, 0
2, 398848, Note_off_c, 0, 69, 0
2, 398848, Note_on_c, 0, 64, 75
2, 398848, Note_on_c, 0, 68, 75
2, 399872, Note_off_c, 0, 64, 0
2, 399872, Note_off_c, 0, 68, 0
2, 400384, Note_off_c, 0, 71, 0
2, 400384, Note_on_c, 0, 83, 75
2, 400896, Note_off_c, 0, 83, 0
2, 400896, Note_on_c, 0, 83, 75
2, 401408, Note_off_c, 0, 83, 0
2, 401408, Note_on_c, 0, 81, 75
2, 401920, Note_off_c, 0, 81, 0
2, 401920, Note_on_c, 0, 81, 75
2, 401920, Note_on_c, 0, 61, 75
2, 401920, Note_on_c, 0, 64, 75
2, 402944, Note_off_c, 0, 61, 0
2, 402944, Note_off_c, 0, 64, 0
2, 402944, Note_on_c, 0, 59, 75
2, 402944, Note_on_c, 0, 63, 75
2, 403456, Note_off_c, 0, 81, 0
2, 403456, Note_on_c, 0, 80, 75
2, 403968, Note_off_c, 0, 80, 0
2, 403968, Note_off_c, 0, 59, 0
2, 403968, Note_off_c, 0, 63, 0
2, 403968, Note_on_c, 0, 80, 75
2, 404480, Note_off_c, 0, 80, 0
2, 404480, Note_on_c, 0, 78, 75
2, 404992, Note_off_c, 0, 78, 0
2, 404992, Note_on_c, 0, 78, 75
2, 404992, Note_on_c, 0, 57, 75
2, 404992, Note_on_c, 0, 61, 75
2, 406016, Note_off_c, 0, 57, 0
2, 406016, Note_off_c, 0, 61, 0
2, 406016, Note_on_c, 0, 56, 75
2, 406016, Note_on_c, 0, 59, 75
2, 406528, Note_off_c, 0, 78, 0
2, 406528, Note_on_c, 0, 76, 75
2, 407040, Note_off_c, 0, 76, 0
2, 407040, Note_off_c, 0, 56, 0
2, 407040, Note_off_c, 0, 59, 0
2, 407040, Note_on_c, 0, 76, 101
2, 407552, Note_off_c, 0, 76, 0
2, 407552, Note_on_c, 0, 85, 101
2, 408064, Note_off_c, 0, 85, 0
2, 408064, Note_on_c, 0, 85, 101
2, 408064, Note_on_c, 0, 45, 101
2, 408064, Note_on_c, 0, 57, 101
2, 409088, Note_off_c, 0, 45, 0
2, 409088, Note_off_c, 0, 57, 0
2, 409088, Note_on_c, 0, 44, 101
2, 409088, Note_on_c, 0, 56, 101
2, 409600, Note_off_c, 0, 85, 0
2, 409600, Note_on_c, 0, 83, 101
2, 410112, Note_off_c, 0, 83, 0
2, 410112, Note_off_c, 0, 44, 0
2, 410112, Note_off_c, 0, 56, 0
2, 410112, Note_on_c, 0, 83, 101
2, 410624, Note_off_c, 0, 83, 0
2, 410624, Note_on_c, 0, 81, 101
2, 411136, Note_off_c, 0, 81, 0
2, 411136, Note_on_c, 0, 81, 101
2, 411136, Note_on_c, 0, 42, 101
2, 411136, Note_on_c, 0, 54, 101
2, 412160, Note_off_c, 0, 42, 0
2, 412160, Note_off_c, 0, 54, 0
2, 412160, Note_on_c, 0, 40, 101
2, 412160, Note_on_c, 0, 52, 101
2, 412672, Note_off_c, 0, 81, 0
2, 412672, Note_on_c, 0, 80, 101
2, 413184, Note_off_c, 0, 80, 0
2, 413184, Note_off_c, 0, 40, 0
2, 413184, Note_off_c, 0, 52, 0
2, 413184, Note_on_c, 0, 80, 101
2, 413184, Note_on_c, 0, 45, 101
2, 413184, Note_on_c, 0, 57, 101
2, 413696, Note_off_c, 0, 80, 0
2, 413696, Note_on_c, 0, 78, 101
2, 414208, Note_off_c, 0, 78, 0
2, 414208, Note_on_c, 0, 78, 101
2, 414208, Note_off_c, 0, 45, 0
2, 414208, Note_off_c, 0, 57, 0
2, 414208, Note_on_c, 0, 47, 101
2, 414208, Note_on_c, 0, 56, 101
2, 414720, Note_off_c, 0, 78, 0
2, 414720, Note_on_c, 0, 76, 101
2, 415232, Note_off_c, 0, 76, 0
2, 415232, Note_on_c, 0, 76, 101
2, 415232, Note_off_c, 0, 47, 0
2, 415232, Note_off_c, 0, 56, 0
2, 415232, Note_on_c, 0, 47, 101
2, 415232, Note_on_c, 0, 54, 101
2, 415744, Note_off_c, 0, 76, 0
2, 415744, Note_on_c, 0, 75, 101
2, 416256, Note_off_c, 0, 75, 0
2, 416256, Note_off_c, 0, 47, 0
2, 416256, Note_off_c, 0, 54, 0
2, 416256, Note_on_c, 0, 75, 101
2, 416256, Note_on_c, 0, 52, 101
2, 417280, Note_off_c, 0, 75, 0
2, 417280, Note_on_c, 0, 76, 101
2, 417280, Note_off_c, 0, 52, 0
2, 417280, Note_on_c, 0, 47, 101
2, 418304, Note_off_c, 0, 76, 0
2, 418304, Note_off_c, 0, 47, 0
2, 418304, Note_on_c, 0, 40, 101
2, 419328, Note_off_c, 0, 40, 0
2, 419328, Note_on_c, 0, 71, 75
2, 419840, Note_off_c, 0, 71, 0
2, 419840, Note_on_c, 0, 75, 75
2, 420352, Note_off_c, 0, 75, 0
2, 420352, Note_on_c, 0, 75, 75
2, 420352, Note_on_c, 0, 59, 75
2, 420352, Note_on_c, 0, 69, 75
2, 421376, Note_off_c, 0, 59, 0
2, 421376, Note_off_c, 0, 69, 0
2, 421376, Note_on_c, 0, 59, 75
2, 421376, Note_on_c, 0, 69, 75
2, 421888, Note_off_c, 0, 75, 0
2, 421888, Note_on_c, 0, 71, 75
2, 422400, Note_off_c, 0, 71, 0
2, 422400, Note_off_c, 0, 59, 0
2, 422400, Note_off_c, 0, 69, 0
2, 422400, Note_on_c, 0, 71, 75
2, 422400, Note_on_c, 0, 66, 75
2, 422912, Note_off_c, 0, 71, 0
2, 422912, Note_on_c, 0, 75, 75
2, 423424, Note_off_c, 0, 75, 0
2, 423424, Note_on_c, 0, 78, 75
2, 423424, Note_off_c, 0, 66, 0
2, 423424, Note_on_c, 0, 63, 75
2, 423936, Note_off_c, 0, 78, 0
2, 423936, Note_on_c, 0, 81, 75
2, 424448, Note_off_c, 0, 81, 0
2, 424448, Note_on_c, 0, 81, 75
2, 424448, Note_off_c, 0, 63, 0
2, 424448, Note_on_c, 0, 64, 75
2, 424960, Note_off_c, 0, 81, 0
2, 424960, Note_on_c, 0, 80, 75
2, 425472, Note_off_c, 0, 80, 0
2, 425472, Note_off_c, 0, 64, 0
2, 425472, Note_on_c, 0, 80, 75
2, 425984, Note_off_c, 0, 80, 0
2, 425984, Note_on_c, 0, 78, 75
2, 426496, Note_off_c, 0, 78, 0
2, 426496, Note_on_c, 0, 78, 81
2, 426496, Note_on_c, 0, 57, 81
2, 426496, Note_on_c, 0, 61, 81
2, 427520, Note_off_c, 0, 57, 0
2, 427520, Note_off_c, 0, 61, 0
2, 427520, Note_on_c, 0, 57, 93
2, 427520, Note_on_c, 0, 61, 93
2, 428032, Note_off_c, 0, 78, 0
2, 428032, Note_on_c, 0, 81, 101
2, 428544, Note_off_c, 0, 81, 0
2, 428544, Note_off_c, 0, 57, 0
2, 428544, Note_off_c, 0, 61, 0
2, 428544, Note_on_c, 0, 80, 107
2, 429056, Note_off_c, 0, 80, 0
2, 429056, Note_on_c, 0, 78, 113
2, 429568, Note_off_c, 0, 78, 0
2, 429568, Note_on_c, 0, 78, 119
2, 429568, Note_on_c, 0, 57, 119
2, 429568, Note_on_c, 0, 61, 119
2, 430592, Note_off_c, 0, 57, 0
2, 430592, Note_off_c, 0, 61, 0
2, 430592, Note_on_c, 0, 57, 119
2, 430592, Note_on_c, 0, 61, 119
2, 431104, Note_off_c, 0, 78, 0
2, 431104, Note_on_c, 0, 81, 119
2, 431616, Note_off_c, 0, 81, 0
2, 431616, Note_off_c, 0, 57, 0
2, 431616, Note_off_c, 0, 61, 0
2, 431616, Note_on_c, 0, 80, 119
2, 432128, Note_off_c, 0, 80, 0
2, 432128, Note_on_c, 0, 78, 119
2, 432640, Note_off_c, 0, 78, 0
2, 432640, Note_on_c, 0, 78, 119
2, 432640, Note_on_c, 0, 57, 119
2, 432640, Note_on_c, 0, 61, 119
2, 433152, Note_off_c, 0, 78, 0
2, 433152, Note_on_c, 0, 85, 119
2, 433664, Note_off_c, 0, 85, 0
2, 433664, Note_on_c, 0, 85, 119
2, 433664, Note_off_c, 0, 57, 0
2, 433664, Note_off_c, 0, 61, 0
2, 433664, Note_on_c, 0, 58, 119
2, 433664, Note_on_c, 0, 61, 119
2, 434176, Note_off_c, 0, 85, 0
2, 434176, Note_on_c, 0, 76, 119
2, 434688, Note_off_c, 0, 76, 0
2, 434688, Note_off_c, 0, 58, 0
2, 434688, Note_off_c, 0, 61, 0
2, 434688, Note_on_c, 0, 76, 119
2, 434688, Note_on_c, 0, 59, 119
2, 435712, Note_off_c, 0, 76, 0
2, 435712, Note_on_c, 0, 75, 119
2, 435712, Note_off_c, 0, 59, 0
2, 435712, Note_on_c, 0, 54, 119
2, 436736, Note_off_c, 0, 75, 0
2, 436736, Note_off_c, 0, 54, 0
2, 436736, Note_on_c, 0, 47, 119
2, 437760, Note_off_c, 0, 47, 0
2, 437760, Note_on_c, 0, 71, 75
2, 437760, Note_on_c, 0, 64, 75
2, 437760, Note_on_c, 0, 68, 75
2, 438784, Note_off_c, 0, 71, 0
2, 438784, Note_on_c, 0, 71, 75
2, 438784, Note_off_c, 0, 64, 0
2, 438784, Note_off_c, 0, 68, 0
2, 438784, Note_on_c, 0, 64, 75
2, 438784, Note_on_c, 0, 68, 75
2, 439808, Note_off_c, 0, 71, 0
2, 439808, Note_on_c, 0, 71, 75
2, 439808, Note_off_c, 0, 64, 0
2, 439808, Note_off_c, 0, 68, 0
2, 439808, Note_on_c, 0, 64, 75
2, 439808, Note_on_c, 0, 68, 75
2, 440832, Note_off_c, 0, 71, 0
2, 440832, Note_off_c, 0, 64, 0
2, 440832, Note_off_c, 0, 68, 0
2, 440832, Note_on_c, 0, 71, 75
2, 440832, Note_on_c, 0, 64, 75
2, 440832, Note_on_c, 0, 68, 75
2, 440960, Note_off_c, 0, 71, 0
2, 440960, Note_on_c, 0, 73, 75
2, 441088, Note_off_c, 0, 73, 0
2, 441088, Note_on_c, 0, 71, 75
2, 441216, Note_off_c, 0, 71, 0
2, 441216, Note_on_c, 0, 73, 75
2, 441344, Note_off_c, 0, 73, 0
2, 441344, Note_on_c, 0, 71, 75
2, 441472, Note_off_c, 0, 71, 0
2, 441472, Note_on_c, 0, 73, 75
2, 441600, Note_off_c, 0, 73, 0
2, 441600, Note_on_c, 0, 71, 75
2, 441728, Note_off_c, 0, 71, 0
2, 441728, Note_on_c, 0, 73, 75
2, 441856, Note_off_c, 0, 73, 0
2, 441856, Note_on_c, 0, 71, 75
2, 441856, Note_off_c, 0, 64, 0
2, 441856, Note_off_c, 0, 68, 0
2, 441856, Note_on_c, 0, 64, 75
2, 441856, Note_on_c, 0, 68, 75
2, 441984, Note_off_c, 0, 71, 0
2, 441984, Note_on_c, 0, 73, 75
2, 442112, Note_off_c, 0, 73, 0
2, 442112, Note_on_c, 0, 71, 75
2, 442240, Note_off_c, 0, 71, 0
2, 442240, Note_on_c, 0, 73, 75
2, 442368, Note_off_c, 0, 73, 0
2, 442368, Note_on_c, 0, 71, 75
2, 442496, Note_off_c, 0, 71, 0
2, 442496, Note_on_c, 0, 73, 75
2, 442624, Note_off_c, 0, 73, 0
2, 442624, Note_on_c, 0, 71, 75
2, 442752, Note_off_c, 0, 71, 0
2, 442752, Note_on_c, 0, 73, 75
2, 442880, Note_off_c, 0, 73, 0
2, 442880, Note_on_c, 0, 76, 75
2, 442880, Note_off_c, 0, 64, 0
2, 442880, Note_off_c, 0, 68, 0
2, 442880, Note_on_c, 0, 64, 75
2, 442880, Note_on_c, 0, 68, 75
2, 443392, Note_off_c, 0, 76, 0
2, 443392, Note_on_c, 0, 75, 75
2, 443904, Note_off_c, 0, 75, 0
2, 443904, Note_off_c, 0, 64, 0
2, 443904, Note_off_c, 0, 68, 0
2, 443904, Note_on_c, 0, 75, 75
2, 443904, Note_on_c, 0, 64, 75
2, 443904, Note_on_c, 0, 69, 75
2, 444416, Note_off_c, 0, 75, 0
2, 444416, Note_on_c, 0, 73, 75
2, 444928, Note_off_c, 0, 73, 0
2, 444928, Note_on_c, 0, 73, 75
2, 444928, Note_off_c, 0, 64, 0
2, 444928, Note_off_c, 0, 69, 0
2, 444928, Note_on_c, 0, 64, 75
2, 444928, Note_on_c, 0, 69, 75
2, 445440, Note_off_c, 0, 73, 0
2, 445440, Note_on_c, 0, 81, 75
2, 445952, Note_off_c, 0, 81, 0
2, 445952, Note_on_c, 0, 81, 75
2, 445952, Note_off_c, 0, 64, 0
2, 445952, Note_off_c, 0, 69, 0
2, 445952, Note_on_c, 0, 64, 75
2, 445952, Note_on_c, 0, 69, 75
2, 446464, Note_off_c, 0, 81, 0
2, 446464, Note_on_c, 0, 73, 75
2, 446976, Note_off_c, 0, 73, 0
2, 446976, Note_off_c, 0, 64, 0
2, 446976, Note_off_c, 0, 69, 0
2, 446976, Note_on_c, 0, 73, 75
2, 446976, Note_on_c, 0, 64, 75
2, 446976, Note_on_c, 0, 69, 75
2, 447104, Note_off_c, 0, 73, 0
2, 447104, Note_on_c, 0, 75, 75
2, 447232, Note_off_c, 0, 75, 0
2, 447232, Note_on_c, 0, 73, 75
2, 447360, Note_off_c, 0, 73, 0
2, 447360, Note_on_c, 0, 75, 75
2, 447488, Note_off_c, 0, 75, 0
2, 447488, Note_on_c, 0, 71, 75
2, 448000, Note_off_c, 0, 71, 0
2, 448000, Note_on_c, 0, 71, 75
2, 448000, Note_off_c, 0, 64, 0
2, 448000, Note_off_c, 0, 69, 0
2, 448000, Note_on_c, 0, 64, 75
2, 448000, Note_on_c, 0, 68, 75
2, 449024, Note_off_c, 0, 64, 0
2, 449024, Note_off_c, 0, 68, 0
2, 449536, Note_off_c, 0, 71, 0
2, 449536, Note_on_c, 0, 83, 75
2, 450048, Note_off_c, 0, 83, 0
2, 450048, Note_on_c, 0, 83, 75
2, 450560, Note_off_c, 0, 83, 0
2, 450560, Note_on_c, 0, 81, 75
2, 451072, Note_off_c, 0, 81, 0
2, 451072, Note_on_c, 0, 81, 75
2, 451072, Note_on_c, 0, 61, 75
2, 451072, Note_on_c, 0, 64, 75
2, 452096, Note_off_c, 0, 61, 0
2, 452096, Note_off_c, 0, 64, 0
2, 452096, Note_on_c, 0, 59, 75
2, 452096, Note_on_c, 0, 63, 75
2, 452608, Note_off_c, 0, 81, 0
2, 452608, Note_on_c, 0, 80, 75
2, 453120, Note_off_c, 0, 80, 0
2, 453120, Note_off_c, 0, 59, 0
2, 453120, Note_off_c, 0, 63, 0
2, 453120, Note_on_c, 0, 80, 75
2, 453632, Note_off_c, 0, 80, 0
2, 453632, Note_on_c, 0, 78, 75
2, 454144, Note_off_c, 0, 78, 0
2, 454144, Note_on_c, 0, 78, 75
2, 454144, Note_on_c, 0, 57, 75
2, 454144, Note_on_c, 0, 61, 75
2, 455168, Note_off_c, 0, 57, 0
2, 455168, Note_off_c, 0, 61, 0
2, 455168, Note_on_c, 0, 56, 75
2, 455168, Note_on_c, 0, 59, 75
2, 455680, Note_off_c, 0, 78, 0
2, 455680, Note_on_c, 0, 76, 75
2, 456192, Note_off_c, 0, 76, 0
2, 456192, Note_off_c, 0, 56, 0
2, 456192, Note_off_c, 0, 59, 0
2, 456192, Note_on_c, 0, 76, 101
2, 456704, Note_off_c, 0, 76, 0
2, 456704, Note_on_c, 0, 85, 101
2, 457216, Note_off_c, 0, 85, 0
2, 457216, Note_on_c, 0, 85, 101
2, 457216, Note_on_c, 0, 45, 101
2, 457216, Note_on_c, 0, 57, 101
2, 458240, Note_off_c, 0, 45, 0
2, 458240, Note_off_c, 0, 57, 0
2, 458240, Note_on_c, 0, 44, 101
2, 458240, Note_on_c, 0, 56, 101
2, 458752, Note_off_c, 0, 85, 0
2, 458752, Note_on_c, 0, 83, 101
2, 459264, Note_off_c, 0, 83, 0
2, 459264, Note_off_c, 0, 44, 0
2, 459264, Note_off_c, 0, 56, 0
2, 459264, Note_on_c, 0, 83, 101
2, 459776, Note_off_c, 0, 83, 0
2, 459776, Note_on_c, 0, 81, 101
2, 460288, Note_off_c, 0, 81, 0
2, 460288, Note_on_c, 0, 81, 101
2, 460288, Note_on_c, 0, 42, 101
2, 460288, Note_on_c, 0, 54, 101
2, 461312, Note_off_c, 0, 42, 0
2, 461312, Note_off_c, 0, 54, 0
2, 461312, Note_on_c, 0, 40, 101
2, 461312, Note_on_c, 0, 52, 101
2, 461824, Note_off_c, 0, 81, 0
2, 461824, Note_on_c, 0, 80, 101
2, 462336, Note_off_c, 0, 80, 0
2, 462336, Note_off_c, 0, 40, 0
2, 462336, Note_off_c, 0, 52, 0
2, 462336, Note_on_c, 0, 80, 101
2, 462336, Note_on_c, 0, 45, 101
2, 462336, Note_on_c, 0, 57, 101
2, 462848, Note_off_c, 0, 80, 0
2, 462848, Note_on_c, 0, 78, 101
2, 463360, Note_off_c, 0, 78, 0
2, 463360, Note_on_c, 0, 78, 101
2, 463360, Note_off_c, 0, 45, 0
2, 463360, Note_off_c, 0, 57, 0
2, 463360, Note_on_c, 0, 47, 101
2, 463360, Note_on_c, 0, 56, 101
2, 463872, Note_off_c, 0, 78, 0
2, 463872, Note_on_c, 0, 76, 101
2, 464384, Note_off_c, 0, 76, 0
2, 464384, Note_on_c, 0, 76, 101
2, 464384, Note_off_c, 0, 47, 0
2, 464384, Note_off_c, 0, 56, 0
2, 464384, Note_on_c, 0, 47, 101
2, 464384, Note_on_c, 0, 54, 101
2, 464896, Note_off_c, 0, 76, 0
2, 464896, Note_on_c, 0, 75, 101
2, 465408, Note_off_c, 0, 75, 0
2, 465408, Note_off_c, 0, 47, 0
2, 465408, Note_off_c, 0, 54, 0
2, 465408, Note_on_c, 0, 75, 101
2, 465408, Note_on_c, 0, 52, 101
2, 466432, Note_off_c, 0, 75, 0
2, 466432, Note_on_c, 0, 76, 101
2, 466432, Note_off_c, 0, 52, 0
2, 466432, Note_on_c, 0, 47, 101
2, 467456, Note_off_c, 0, 76, 0
2, 467456, Note_off_c, 0, 47, 0
2, 467456, Note_on_c, 0, 40, 101
2, 468480, Note_off_c, 0, 40, 0
2, 675328, End_track
0, 0, End_of_file
