0, 0, Header, 1, 2, 1024
1, 0, Start_track
1, 0, Time_signature, 2, 2, 24, 8
1, 0, Key_signature, 4, "major"
1, 0, Tempo, 600000
1, 339968, Tempo, 666666
1, 339968, Tempo, 666666
1, 341212, Tempo, 800000
1, 341212, Tempo, 800000
1, 415745, End_track
2, 0, Start_track
2, 0, Title_t, "Acoustic Grand Piano"
2, 0, Program_c, 0, 0
2, 0, Note_on_c, 0, 64, 88
2, 0, Note_on_c, 0, 68, 88
2, 0, Note_on_c, 0, 71, 88
2, 0, Note_on_c, 0, 76, 88
2, 0, Note_on_c, 0, 40, 88
2, 0, Note_on_c, 0, 52, 88
2, 768, Note_off_c, 0, 64, 0
2, 768, Note_off_c, 0, 68, 0
2, 768, Note_off_c, 0, 71, 0
2, 768, Note_off_c, 0, 76, 0
2, 768, Note_on_c, 0, 64, 62
2, 768, Note_off_c, 0, 40, 0
2, 768, Note_off_c, 0, 52, 0
2, 1024, Note_off_c, 0, 64, 0
2, 1024, Note_on_c, 0, 68, 62
2, 1024, Note_on_c, 0, 64, 62
2, 1434, Note_off_c, 0, 68, 0
2, 1434, Note_off_c, 0, 64, 0
2, 1536, Note_on_c, 0, 69, 62
2, 1536, Note_on_c, 0, 66, 62
2, 1946, Note_off_c, 0, 69, 0
2, 1946, Note_off_c, 0, 66, 0
2, 2048, Note_on_c, 0, 71, 62
2, 2048, Note_on_c, 0, 68, 62
2, 2176, Note_off_c, 0, 71, 0
2, 2176, Note_on_c, 0, 73, 62
2, 2304, Note_off_c, 0, 73, 0
2, 2304, Note_on_c, 0, 71, 62
2, 2816, Note_off_c, 0, 71, 0
2, 2816, Note_on_c, 0, 73, 62
2, 2816, Note_off_c, 0, 68, 0
2, 2816, Note_on_c, 0, 69, 62
2, 3072, Note_off_c, 0, 73, 0
2, 3072, Note_on_c, 0, 71, 62
2, 3072, Note_off_c, 0, 69, 0
2, 3072, Note_on_c, 0, 68, 62
2, 3584, Note_off_c, 0, 71, 0
2, 3584, Note_on_c, 0, 69, 75
2, 3584, Note_off_c, 0, 68, 0
2, 3584, Note_on_c, 0, 63, 75
2, 3712, Note_off_c, 0, 69, 0
2, 3712, Note_on_c, 0, 71, 75
2, 3840, Note_off_c, 0, 71, 0
2, 3840, Note_on_c, 0, 69, 75
2, 3968, Note_off_c, 0, 69, 0
2, 3968, Note_on_c, 0, 71, 75
2, 4096, Note_off_c, 0, 71, 0
2, 4096, Note_off_c, 0, 63, 0
2, 4096, Note_on_c, 0, 68, 75
2, 4096, Note_on_c, 0, 64, 75
2, 4608, Note_off_c, 0, 68, 0
2, 4608, Note_on_c, 0, 59, 75
2, 4608, Note_on_c, 0, 64, 75
2, 4608, Note_off_c, 0, 64, 0
2, 4608, Note_on_c, 0, 44, 75
2, 4608, Note_on_c, 0, 56, 75
2, 5018, Note_off_c, 0, 59, 0
2, 5018, Note_off_c, 0, 64, 0
2, 5018, Note_off_c, 0, 44, 0
2, 5018, Note_off_c, 0, 56, 0
2, 5120, Note_on_c, 0, 61, 75
2, 5120, Note_on_c, 0, 66, 75
2, 5120, Note_on_c, 0, 45, 75
2, 5120, Note_on_c, 0, 57, 75
2, 5530, Note_off_c, 0, 61, 0
2, 5530, Note_off_c, 0, 66, 0
2, 5530, Note_off_c, 0, 45, 0
2, 5530, Note_off_c, 0, 57, 0
2, 5632, Note_on_c, 0, 63, 75
2, 5632, Note_on_c, 0, 47, 75
2, 5632, Note_on_c, 0, 54, 75
2, 6042, Note_off_c, 0, 63, 0
2, 6042, Note_off_c, 0, 47, 0
2, 6042, Note_off_c, 0, 54, 0
2, 6144, Note_on_c, 0, 64, 75
2, 6144, Note_on_c, 0, 40, 75
2, 6144, Note_on_c, 0, 52, 75
2, 6315, Note_off_c, 0, 64, 0
2, 6315, Note_on_c, 0, 66, 75
2, 6485, Note_off_c, 0, 66, 0
2, 6485, Note_on_c, 0, 68, 75
2, 6656, Note_off_c, 0, 68, 0
2, 6656, Note_on_c, 0, 59, 75
2, 7168, Note_off_c, 0, 59, 0
2, 7168, Note_off_c, 0, 40, 0
2, 7168, Note_off_c, 0, 52, 0
2, 7296, Note_on_c, 0, 64, 81
2, 7424, Note_off_c, 0, 64, 0
2, 7424, Note_on_c, 0, 66, 81
2, 7552, Note_off_c, 0, 66, 0
2, 7552, Note_on_c, 0, 68, 81
2, 7680, Note_off_c, 0, 68, 0
2, 7680, Note_on_c, 0, 69, 87
2, 7808, Note_off_c, 0, 69, 0
2, 7808, Note_on_c, 0, 71, 87
2, 7936, Note_off_c, 0, 71, 0
2, 7936, Note_on_c, 0, 73, 87
2, 8064, Note_off_c, 0, 73, 0
2, 8064, Note_on_c, 0, 75, 87
2, 8192, Note_off_c, 0, 75, 0
2, 8192, Note_on_c, 0, 76, 94
2, 8192, Note_on_c, 0, 52, 94
2, 8192, Note_on_c, 0, 56, 94
2, 8192, Note_on_c, 0, 59, 94
2, 8960, Note_off_c, 0, 76, 0
2, 8960, Note_on_c, 0, 68, 70
2, 8960, Note_off_c, 0, 52, 0
2, 8960, Note_off_c, 0, 56, 0
2, 8960, Note_off_c, 0, 59, 0
2, 8960, Note_on_c, 0, 64, 70
2, 9216, Note_off_c, 0, 68, 0
2, 9216, Note_on_c, 0, 69, 76
2, 9216, Note_off_c, 0, 64, 0
2, 9216, Note_on_c, 0, 66, 76
2, 9626, Note_off_c, 0, 69, 0
2, 9626, Note_off_c, 0, 66, 0
2, 9728, Note_on_c, 0, 71, 82
2, 9728, Note_on_c, 0, 68, 82
2, 10138, Note_off_c, 0, 71, 0
2, 10138, Note_off_c, 0, 68, 0
2, 10240, Note_on_c, 0, 73, 88
2, 10240, Note_on_c, 0, 69, 88
2, 10650, Note_off_c, 0, 69, 0
2, 10752, Note_on_c, 0, 57, 88
2, 11008, Note_off_c, 0, 73, 0
2, 11008, Note_on_c, 0, 76, 88
2, 11162, Note_off_c, 0, 57, 0
2, 11264, Note_off_c, 0, 76, 0
2, 11264, Note_on_c, 0, 71, 88
2, 11264, Note_on_c, 0, 68, 88
2, 11674, Note_off_c, 0, 71, 0
2, 11674, Note_off_c, 0, 68, 0
2, 11776, Note_on_c, 0, 68, 88
2, 11776, Note_on_c, 0, 64, 88
2, 12186, Note_off_c, 0, 68, 0
2, 12186, Note_off_c, 0, 64, 0
2, 12288, Note_on_c, 0, 51, 62
2, 12544, Note_on_c, 0, 69, 62
2, 12698, Note_off_c, 0, 51, 0
2, 12800, Note_on_c, 0, 59, 62
2, 13056, Note_off_c, 0, 69, 0
2, 13056, Note_on_c, 0, 66, 62
2, 13210, Note_off_c, 0, 59, 0
2, 13312, Note_on_c, 0, 52, 62
2, 13568, Note_off_c, 0, 66, 0
2, 13568, Note_on_c, 0, 68, 62
2, 13722, Note_off_c, 0, 52, 0
2, 13824, Note_on_c, 0, 59, 62
2, 14080, Note_off_c, 0, 68, 0
2, 14080, Note_on_c, 0, 64, 62
2, 14234, Note_off_c, 0, 59, 0
2, 14336, Note_off_c, 0, 64, 0
2, 14336, Note_on_c, 0, 51, 62
2, 14592, Note_on_c, 0, 78, 62
2, 14746, Note_off_c, 0, 51, 0
2, 14848, Note_on_c, 0, 59, 62
2, 15104, Note_off_c, 0, 78, 0
2, 15104, Note_on_c, 0, 69, 62
2, 15258, Note_off_c, 0, 59, 0
2, 15360, Note_on_c, 0, 52, 62
2, 15616, Note_off_c, 0, 69, 0
2, 15616, Note_on_c, 0, 68, 62
2, 15770, Note_off_c, 0, 52, 0
2, 15872, Note_on_c, 0, 59, 62
2, 16128, Note_off_c, 0, 68, 0
2, 16128, Note_on_c, 0, 71, 62
2, 16282, Note_off_c, 0, 59, 0
2, 16384, Note_off_c, 0, 71, 0
2, 16384, Note_on_c, 0, 51, 101
2, 16640, Note_on_c, 0, 69, 101
2, 16794, Note_off_c, 0, 51, 0
2, 16896, Note_on_c, 0, 59, 101
2, 17152, Note_off_c, 0, 69, 0
2, 17152, Note_on_c, 0, 66, 101
2, 17306, Note_off_c, 0, 59, 0
2, 17408, Note_on_c, 0, 52, 101
2, 17664, Note_off_c, 0, 66, 0
2, 17664, Note_on_c, 0, 68, 101
2, 17818, Note_off_c, 0, 52, 0
2, 17920, Note_on_c, 0, 59, 101
2, 18176, Note_off_c, 0, 68, 0
2, 18176, Note_on_c, 0, 64, 101
2, 18330, Note_off_c, 0, 59, 0
2, 18432, Note_off_c, 0, 64, 0
2, 18432, Note_on_c, 0, 51, 101
2, 18688, Note_on_c, 0, 78, 101
2, 18842, Note_off_c, 0, 51, 0
2, 18944, Note_on_c, 0, 59, 101
2, 19200, Note_off_c, 0, 78, 0
2, 19200, Note_on_c, 0, 69, 101
2, 19354, Note_off_c, 0, 59, 0
2, 19456, Note_on_c, 0, 52, 101
2, 19712, Note_off_c, 0, 69, 0
2, 19712, Note_on_c, 0, 68, 101
2, 19866, Note_off_c, 0, 52, 0
2, 19968, Note_on_c, 0, 56, 101
2, 20224, Note_off_c, 0, 68, 0
2, 20224, Note_on_c, 0, 76, 101
2, 20378, Note_off_c, 0, 56, 0
2, 20480, Note_off_c, 0, 76, 0
2, 20480, Note_on_c, 0, 57, 101
2, 20736, Note_on_c, 0, 73, 101
2, 20992, Note_off_c, 0, 73, 0
2, 20992, Note_on_c, 0, 65, 101
2, 21248, Note_off_c, 0, 65, 0
2, 21248, Note_on_c, 0, 66, 101
2, 21504, Note_off_c, 0, 66, 0
2, 21504, Note_on_c, 0, 73, 101
2, 21504, Note_off_c, 0, 57, 0
2, 21504, Note_on_c, 0, 54, 101
2, 21675, Note_off_c, 0, 73, 0
2, 21675, Note_on_c, 0, 71, 101
2, 21845, Note_off_c, 0, 71, 0
2, 21845, Note_on_c, 0, 69, 101
2, 21914, Note_off_c, 0, 54, 0
2, 22016, Note_off_c, 0, 69, 0
2, 22016, Note_on_c, 0, 68, 101
2, 22016, Note_on_c, 0, 58, 101
2, 22187, Note_off_c, 0, 68, 0
2, 22187, Note_on_c, 0, 66, 101
2, 22357, Note_off_c, 0, 66, 0
2, 22357, Note_on_c, 0, 64, 101
2, 22426, Note_off_c, 0, 58, 0
2, 22528, Note_off_c, 0, 64, 0
2, 22528, Note_on_c, 0, 63, 101
2, 22528, Note_on_c, 0, 59, 101
2, 22699, Note_off_c, 0, 63, 0
2, 22699, Note_on_c, 0, 64, 101
2, 22869, Note_off_c, 0, 64, 0
2, 22869, Note_on_c, 0, 66, 101
2, 22938, Note_off_c, 0, 59, 0
2, 23040, Note_off_c, 0, 66, 0
2, 23040, Note_on_c, 0, 59, 101
2, 23040, Note_on_c, 0, 47, 101
2, 23450, Note_off_c, 0, 47, 0
2, 23552, Note_off_c, 0, 59, 0
2, 23552, Note_on_c, 0, 51, 62
2, 23808, Note_off_c, 0, 51, 0
2, 23808, Note_on_c, 0, 47, 62
2, 24064, Note_off_c, 0, 47, 0
2, 24064, Note_on_c, 0, 54, 62
2, 24320, Note_off_c, 0, 54, 0
2, 24320, Note_on_c, 0, 52, 62
2, 24576, Note_off_c, 0, 52, 0
2, 24576, Note_on_c, 0, 66, 62
2, 24576, Note_on_c, 0, 51, 62
2, 24832, Note_off_c, 0, 66, 0
2, 24832, Note_on_c, 0, 71, 62
2, 25088, Note_off_c, 0, 71, 0
2, 25088, Note_on_c, 0, 71, 62
2, 25293, Note_off_c, 0, 71, 0
2, 25344, Note_on_c, 0, 71, 62
2, 25549, Note_off_c, 0, 71, 0
2, 25600, Note_on_c, 0, 71, 62
2, 25856, Note_off_c, 0, 71, 0
2, 25856, Note_on_c, 0, 69, 62
2, 25856, Note_on_c, 0, 59, 62
2, 26112, Note_off_c, 0, 69, 0
2, 26112, Note_on_c, 0, 68, 62
2, 26112, Note_off_c, 0, 59, 0
2, 26112, Note_on_c, 0, 59, 62
2, 26368, Note_off_c, 0, 68, 0
2, 26368, Note_on_c, 0, 66, 62
2, 26368, Note_off_c, 0, 59, 0
2, 26368, Note_on_c, 0, 59, 62
2, 26624, Note_off_c, 0, 66, 0
2, 26624, Note_off_c, 0, 59, 0
2, 26624, Note_off_c, 0, 51, 0
2, 26624, Note_on_c, 0, 68, 62
2, 26624, Note_on_c, 0, 59, 62
2, 26624, Note_on_c, 0, 52, 62
2, 26880, Note_off_c, 0, 68, 0
2, 26880, Note_on_c, 0, 71, 62
2, 27034, Note_off_c, 0, 52, 0
2, 27136, Note_off_c, 0, 71, 0
2, 27136, Note_on_c, 0, 63, 62
2, 27136, Note_on_c, 0, 54, 62
2, 27392, Note_off_c, 0, 63, 0
2, 27392, Note_on_c, 0, 66, 62
2, 27546, Note_off_c, 0, 54, 0
2, 27648, Note_off_c, 0, 66, 0
2, 27648, Note_on_c, 0, 64, 62
2, 27648, Note_on_c, 0, 56, 62
2, 27904, Note_off_c, 0, 64, 0
2, 27904, Note_on_c, 0, 68, 62
2, 28058, Note_off_c, 0, 56, 0
2, 28160, Note_off_c, 0, 68, 0
2, 28160, Note_on_c, 0, 66, 62
2, 28160, Note_on_c, 0, 51, 62
2, 28416, Note_off_c, 0, 66, 0
2, 28416, Note_on_c, 0, 69, 62
2, 28570, Note_off_c, 0, 51, 0
2, 28672, Note_off_c, 0, 69, 0
2, 28672, Note_off_c, 0, 59, 0
2, 28672, Note_on_c, 0, 68, 62
2, 28672, Note_on_c, 0, 59, 62
2, 28672, Note_on_c, 0, 52, 62
2, 28928, Note_off_c, 0, 68, 0
2, 28928, Note_on_c, 0, 71, 62
2, 29082, Note_off_c, 0, 52, 0
2, 29184, Note_off_c, 0, 71, 0
2, 29184, Note_on_c, 0, 63, 62
2, 29184, Note_on_c, 0, 54, 62
2, 29440, Note_off_c, 0, 63, 0
2, 29440, Note_on_c, 0, 66, 62
2, 29594, Note_off_c, 0, 54, 0
2, 29696, Note_off_c, 0, 66, 0
2, 29696, Note_on_c, 0, 64, 62
2, 29696, Note_on_c, 0, 56, 62
2, 29952, Note_off_c, 0, 64, 0
2, 29952, Note_on_c, 0, 68, 62
2, 30106, Note_off_c, 0, 56, 0
2, 30208, Note_off_c, 0, 68, 0
2, 30208, Note_on_c, 0, 66, 62
2, 30208, Note_on_c, 0, 51, 62
2, 30464, Note_off_c, 0, 66, 0
2, 30464, Note_on_c, 0, 69, 62
2, 30618, Note_off_c, 0, 51, 0
2, 30720, Note_off_c, 0, 69, 0
2, 30720, Note_off_c, 0, 59, 0
2, 30720, Note_on_c, 0, 68, 62
2, 30720, Note_on_c, 0, 52, 62
2, 30976, Note_off_c, 0, 68, 0
2, 30976, Note_on_c, 0, 73, 62
2, 31232, Note_off_c, 0, 73, 0
2, 31232, Note_on_c, 0, 73, 62
2, 31437, Note_off_c, 0, 73, 0
2, 31488, Note_on_c, 0, 73, 62
2, 31693, Note_off_c, 0, 73, 0
2, 31744, Note_on_c, 0, 73, 68
2, 31744, Note_off_c, 0, 52, 0
2, 31744, Note_on_c, 0, 53, 68
2, 32000, Note_off_c, 0, 73, 0
2, 32000, Note_on_c, 0, 71, 68
2, 32000, Note_on_c, 0, 61, 68
2, 32256, Note_off_c, 0, 71, 0
2, 32256, Note_on_c, 0, 70, 74
2, 32256, Note_off_c, 0, 61, 0
2, 32256, Note_on_c, 0, 61, 74
2, 32512, Note_off_c, 0, 70, 0
2, 32512, Note_on_c, 0, 68, 74
2, 32512, Note_off_c, 0, 61, 0
2, 32512, Note_on_c, 0, 61, 74
2, 32768, Note_off_c, 0, 68, 0
2, 32768, Note_off_c, 0, 61, 0
2, 32768, Note_off_c, 0, 53, 0
2, 32768, Note_on_c, 0, 70, 80
2, 32768, Note_on_c, 0, 61, 80
2, 32768, Note_on_c, 0, 54, 80
2, 33024, Note_off_c, 0, 70, 0
2, 33024, Note_on_c, 0, 73, 80
2, 33178, Note_off_c, 0, 54, 0
2, 33280, Note_off_c, 0, 73, 0
2, 33280, Note_on_c, 0, 65, 88
2, 33280, Note_on_c, 0, 56, 88
2, 33536, Note_off_c, 0, 65, 0
2, 33536, Note_on_c, 0, 68, 88
2, 33690, Note_off_c, 0, 56, 0
2, 33792, Note_off_c, 0, 68, 0
2, 33792, Note_on_c, 0, 66, 94
2, 33792, Note_on_c, 0, 58, 94
2, 34048, Note_off_c, 0, 66, 0
2, 34048, Note_on_c, 0, 70, 94
2, 34202, Note_off_c, 0, 58, 0
2, 34304, Note_off_c, 0, 70, 0
2, 34304, Note_on_c, 0, 68, 100
2, 34304, Note_on_c, 0, 53, 100
2, 34560, Note_off_c, 0, 68, 0
2, 34560, Note_on_c, 0, 71, 100
2, 34714, Note_off_c, 0, 53, 0
2, 34816, Note_off_c, 0, 71, 0
2, 34816, Note_off_c, 0, 61, 0
2, 34816, Note_on_c, 0, 70, 106
2, 34816, Note_on_c, 0, 61, 106
2, 34816, Note_on_c, 0, 54, 106
2, 35072, Note_off_c, 0, 70, 0
2, 35072, Note_on_c, 0, 73, 106
2, 35226, Note_off_c, 0, 54, 0
2, 35328, Note_off_c, 0, 73, 0
2, 35328, Note_on_c, 0, 65, 106
2, 35328, Note_on_c, 0, 56, 106
2, 35584, Note_off_c, 0, 65, 0
2, 35584, Note_on_c, 0, 68, 106
2, 35738, Note_off_c, 0, 56, 0
2, 35840, Note_off_c, 0, 68, 0
2, 35840, Note_on_c, 0, 66, 106
2, 35840, Note_on_c, 0, 58, 106
2, 36096, Note_off_c, 0, 66, 0
2, 36096, Note_on_c, 0, 70, 106
2, 36250, Note_off_c, 0, 58, 0
2, 36352, Note_off_c, 0, 70, 0
2, 36352, Note_on_c, 0, 68, 106
2, 36352, Note_on_c, 0, 53, 106
2, 36608, Note_off_c, 0, 68, 0
2, 36608, Note_on_c, 0, 71, 106
2, 36762, Note_off_c, 0, 53, 0
2, 36864, Note_off_c, 0, 71, 0
2, 36864, Note_off_c, 0, 61, 0
2, 36864, Note_on_c, 0, 70, 106
2, 36864, Note_on_c, 0, 54, 106
2, 37120, Note_off_c, 0, 70, 0
2, 37120, Note_on_c, 0, 73, 106
2, 37274, Note_off_c, 0, 54, 0
2, 37376, Note_off_c, 0, 73, 0
2, 37376, Note_on_c, 0, 71, 106
2, 37376, Note_on_c, 0, 56, 106
2, 37632, Note_off_c, 0, 71, 0
2, 37632, Note_on_c, 0, 75, 106
2, 37786, Note_off_c, 0, 56, 0
2, 37888, Note_off_c, 0, 75, 0
2, 37888, Note_on_c, 0, 73, 106
2, 37888, Note_on_c, 0, 58, 106
2, 38144, Note_off_c, 0, 73, 0
2, 38144, Note_on_c, 0, 76, 106
2, 38298, Note_off_c, 0, 58, 0
2, 38400, Note_off_c, 0, 76, 0
2, 38400, Note_on_c, 0, 75, 106
2, 38400, Note_on_c, 0, 59, 106
2, 38656, Note_off_c, 0, 75, 0
2, 38656, Note_on_c, 0, 78, 106
2, 38810, Note_off_c, 0, 59, 0
2, 38912, Note_off_c, 0, 78, 0
2, 38912, Note_on_c, 0, 78, 114
2, 38912, Note_on_c, 0, 61, 114
2, 39168, Note_off_c, 0, 78, 0
2, 39168, Note_on_c, 0, 76, 114
2, 39322, Note_off_c, 0, 61, 0
2, 39424, Note_off_c, 0, 76, 0
2, 39424, Note_on_c, 0, 76, 114
2, 39424, Note_on_c, 0, 59, 114
2, 39680, Note_off_c, 0, 76, 0
2, 39680, Note_on_c, 0, 75, 114
2, 39834, Note_off_c, 0, 59, 0
2, 39936, Note_off_c, 0, 75, 0
2, 39936, Note_on_c, 0, 75, 114
2, 39936, Note_on_c, 0, 58, 114
2, 40192, Note_off_c, 0, 75, 0
2, 40192, Note_on_c, 0, 73, 114
2, 40346, Note_off_c, 0, 58, 0
2, 40448, Note_off_c, 0, 73, 0
2, 40448, Note_on_c, 0, 73, 114
2, 40448, Note_on_c, 0, 56, 114
2, 40704, Note_off_c, 0, 73, 0
2, 40704, Note_on_c, 0, 71, 114
2, 40858, Note_off_c, 0, 56, 0
2, 40960, Note_off_c, 0, 71, 0
2, 40960, Note_on_c, 0, 71, 114
2, 40960, Note_on_c, 0, 54, 114
2, 41216, Note_off_c, 0, 71, 0
2, 41216, Note_on_c, 0, 70, 114
2, 41370, Note_off_c, 0, 54, 0
2, 41472, Note_off_c, 0, 70, 0
2, 41472, Note_on_c, 0, 70, 114
2, 41472, Note_on_c, 0, 52, 114
2, 41728, Note_off_c, 0, 70, 0
2, 41728, Note_on_c, 0, 68, 114
2, 41882, Note_off_c, 0, 52, 0
2, 41984, Note_off_c, 0, 68, 0
2, 41984, Note_on_c, 0, 68, 114
2, 41984, Note_on_c, 0, 51, 114
2, 42240, Note_off_c, 0, 68, 0
2, 42240, Note_on_c, 0, 66, 114
2, 42394, Note_off_c, 0, 51, 0
2, 42496, Note_off_c, 0, 66, 0
2, 42496, Note_on_c, 0, 66, 114
2, 42496, Note_on_c, 0, 49, 114
2, 42752, Note_off_c, 0, 66, 0
2, 42752, Note_on_c, 0, 64, 114
2, 42906, Note_off_c, 0, 49, 0
2, 43008, Note_off_c, 0, 64, 0
2, 43008, Note_on_c, 0, 63, 114
2, 43008, Note_on_c, 0, 47, 114
2, 43179, Note_off_c, 0, 63, 0
2, 43179, Note_on_c, 0, 64, 114
2, 43349, Note_off_c, 0, 64, 0
2, 43349, Note_on_c, 0, 66, 114
2, 43520, Note_off_c, 0, 66, 0
2, 43520, Note_on_c, 0, 59, 114
2, 43691, Note_off_c, 0, 59, 0
2, 43691, Note_on_c, 0, 64, 114
2, 43861, Note_off_c, 0, 64, 0
2, 43861, Note_on_c, 0, 61, 114
2, 44032, Note_off_c, 0, 61, 0
2, 44032, Note_on_c, 0, 61, 114
2, 44032, Note_off_c, 0, 47, 0
2, 44032, Note_on_c, 0, 54, 114
2, 44160, Note_off_c, 0, 61, 0
2, 44160, Note_on_c, 0, 63, 114
2, 44288, Note_off_c, 0, 63, 0
2, 44288, Note_on_c, 0, 61, 114
2, 44416, Note_off_c, 0, 61, 0
2, 44416, Note_on_c, 0, 63, 114
2, 44442, Note_off_c, 0, 54, 0
2, 44544, Note_off_c, 0, 63, 0
2, 44544, Note_on_c, 0, 61, 114
2, 44544, Note_on_c, 0, 42, 114
2, 44672, Note_off_c, 0, 61, 0
2, 44672, Note_on_c, 0, 63, 114
2, 44800, Note_off_c, 0, 63, 0
2, 44800, Note_on_c, 0, 61, 114
2, 44954, Note_off_c, 0, 42, 0
2, 45056, Note_off_c, 0, 61, 0
2, 45056, Note_on_c, 0, 59, 114
2, 45056, Note_on_c, 0, 47, 114
2, 45466, Note_off_c, 0, 47, 0
2, 45568, Note_on_c, 0, 35, 114
2, 45824, Note_off_c, 0, 59, 0
2, 45824, Note_on_c, 0, 78, 75
2, 45978, Note_off_c, 0, 35, 0
2, 46080, Note_off_c, 0, 78, 0
2, 46080, Note_on_c, 0, 71, 75
2, 46592, Note_off_c, 0, 71, 0
2, 46592, Note_on_c, 0, 73, 75
2, 47104, Note_off_c, 0, 73, 0
2, 47104, Note_on_c, 0, 75, 75
2, 47104, Note_on_c, 0, 71, 75
2, 47104, Note_on_c, 0, 42, 75
2, 47104, Note_on_c, 0, 54, 75
2, 47616, Note_off_c, 0, 75, 0
2, 47616, Note_on_c, 0, 73, 75
2, 47616, Note_off_c, 0, 71, 0
2, 47616, Note_on_c, 0, 70, 75
2, 47923, Note_off_c, 0, 42, 0
2, 47923, Note_off_c, 0, 54, 0
2, 48000, Note_off_c, 0, 73, 0
2, 48000, Note_on_c, 0, 78, 75
2, 48128, Note_off_c, 0, 78, 0
2, 48128, Note_on_c, 0, 73, 75
2, 48128, Note_off_c, 0, 70, 0
2, 48128, Note_on_c, 0, 70, 75
2, 48538, Note_off_c, 0, 73, 0
2, 48538, Note_off_c, 0, 70, 0
2, 48640, Note_on_c, 0, 75, 75
2, 48640, Note_on_c, 0, 71, 75
2, 49050, Note_off_c, 0, 75, 0
2, 49050, Note_off_c, 0, 71, 0
2, 49152, Note_on_c, 0, 76, 75
2, 49152, Note_on_c, 0, 73, 75
2, 49152, Note_on_c, 0, 42, 75
2, 49152, Note_on_c, 0, 54, 75
2, 49562, Note_off_c, 0, 42, 0
2, 49562, Note_off_c, 0, 54, 0
2, 49664, Note_off_c, 0, 76, 0
2, 49664, Note_on_c, 0, 75, 75
2, 49664, Note_off_c, 0, 73, 0
2, 49664, Note_on_c, 0, 71, 75
2, 49664, Note_on_c, 0, 47, 75
2, 49664, Note_on_c, 0, 59, 75
2, 50048, Note_off_c, 0, 75, 0
2, 50048, Note_on_c, 0, 78, 75
2, 50074, Note_off_c, 0, 47, 0
2, 50074, Note_off_c, 0, 59, 0
2, 50176, Note_off_c, 0, 78, 0
2, 50176, Note_on_c, 0, 75, 75
2, 50176, Note_off_c, 0, 71, 0
2, 50176, Note_on_c, 0, 71, 75
2, 50586, Note_off_c, 0, 75, 0
2, 50586, Note_off_c, 0, 71, 0
2, 50688, Note_on_c, 0, 76, 75
2, 50688, Note_on_c, 0, 73, 75
2, 51098, Note_off_c, 0, 76, 0
2, 51098, Note_off_c, 0, 73, 0
2, 51200, Note_on_c, 0, 75, 75
2, 51200, Note_on_c, 0, 78, 75
2, 51200, Note_on_c, 0, 47, 75
2, 51200, Note_on_c, 0, 59, 75
2, 51610, Note_off_c, 0, 75, 0
2, 51610, Note_off_c, 0, 78, 0
2, 51712, Note_on_c, 0, 75, 75
2, 51712, Note_on_c, 0, 78, 75
2, 51712, Note_on_c, 0, 83, 75
2, 52122, Note_off_c, 0, 75, 0
2, 52122, Note_off_c, 0, 78, 0
2, 52122, Note_off_c, 0, 83, 0
2, 52224, Note_off_c, 0, 47, 0
2, 52224, Note_off_c, 0, 59, 0
2, 52224, Note_on_c, 0, 47, 75
2, 52224, Note_on_c, 0, 59, 75
2, 52736, Note_on_c, 0, 71, 75
2, 52736, Note_on_c, 0, 75, 75
2, 52736, Note_on_c, 0, 78, 75
2, 53146, Note_off_c, 0, 71, 0
2, 53146, Note_off_c, 0, 75, 0
2, 53146, Note_off_c, 0, 78, 0
2, 53248, Note_off_c, 0, 47, 0
2, 53248, Note_off_c, 0, 59, 0
2, 53248, Note_on_c, 0, 52, 75
2, 53504, Note_on_c, 0, 80, 75
2, 53658, Note_off_c, 0, 52, 0
2, 53760, Note_on_c, 0, 56, 75
2, 54016, Note_off_c, 0, 80, 0
2, 54016, Note_on_c, 0, 76, 75
2, 54170, Note_off_c, 0, 56, 0
2, 54272, Note_on_c, 0, 54, 75
2, 54528, Note_off_c, 0, 76, 0
2, 54528, Note_on_c, 0, 75, 75
2, 54682, Note_off_c, 0, 54, 0
2, 54784, Note_on_c, 0, 58, 75
2, 55040, Note_off_c, 0, 75, 0
2, 55040, Note_on_c, 0, 73, 75
2, 55194, Note_off_c, 0, 58, 0
2, 55296, Note_off_c, 0, 73, 0
2, 55296, Note_on_c, 0, 75, 75
2, 55296, Note_on_c, 0, 59, 75
2, 55467, Note_off_c, 0, 75, 0
2, 55467, Note_on_c, 0, 73, 75
2, 55637, Note_off_c, 0, 73, 0
2, 55637, Note_on_c, 0, 71, 75
2, 55808, Note_off_c, 0, 71, 0
2, 55808, Note_on_c, 0, 75, 75
2, 55808, Note_on_c, 0, 78, 75
2, 55808, Note_on_c, 0, 83, 75
2, 56115, Note_off_c, 0, 59, 0
2, 56320, Note_off_c, 0, 75, 0
2, 56320, Note_off_c, 0, 78, 0
2, 56320, Note_off_c, 0, 83, 0
2, 56320, Note_on_c, 0, 51, 75
2, 56320, Note_on_c, 0, 54, 75
2, 56320, Note_on_c, 0, 59, 75
2, 56832, Note_on_c, 0, 71, 75
2, 56832, Note_on_c, 0, 75, 75
2, 56832, Note_on_c, 0, 78, 75
2, 57139, Note_off_c, 0, 51, 0
2, 57139, Note_off_c, 0, 54, 0
2, 57139, Note_off_c, 0, 59, 0
2, 57242, Note_off_c, 0, 71, 0
2, 57242, Note_off_c, 0, 75, 0
2, 57242, Note_off_c, 0, 78, 0
2, 57344, Note_on_c, 0, 80, 75
2, 57344, Note_on_c, 0, 52, 75
2, 57515, Note_off_c, 0, 80, 0
2, 57515, Note_on_c, 0, 78, 75
2, 57685, Note_off_c, 0, 78, 0
2, 57685, Note_on_c, 0, 76, 75
2, 57856, Note_off_c, 0, 76, 0
2, 57856, Note_on_c, 0, 75, 75
2, 57856, Note_on_c, 0, 59, 75
2, 58027, Note_off_c, 0, 75, 0
2, 58027, Note_on_c, 0, 73, 75
2, 58163, Note_off_c, 0, 52, 0
2, 58197, Note_off_c, 0, 73, 0
2, 58197, Note_on_c, 0, 71, 75
2, 58368, Note_off_c, 0, 71, 0
2, 58368, Note_on_c, 0, 73, 75
2, 58368, Note_on_c, 0, 54, 75
2, 58496, Note_off_c, 0, 73, 0
2, 58496, Note_on_c, 0, 75, 75
2, 58624, Note_off_c, 0, 75, 0
2, 58624, Note_on_c, 0, 73, 75
2, 58752, Note_off_c, 0, 73, 0
2, 58752, Note_on_c, 0, 75, 75
2, 58880, Note_off_c, 0, 75, 0
2, 58880, Note_on_c, 0, 73, 75
2, 58880, Note_off_c, 0, 59, 0
2, 58880, Note_on_c, 0, 58, 75
2, 59008, Note_off_c, 0, 73, 0
2, 59008, Note_on_c, 0, 75, 75
2, 59136, Note_off_c, 0, 75, 0
2, 59136, Note_on_c, 0, 73, 75
2, 59187, Note_off_c, 0, 54, 0
2, 59392, Note_off_c, 0, 73, 0
2, 59392, Note_off_c, 0, 58, 0
2, 59392, Note_on_c, 0, 71, 75
2, 59392, Note_on_c, 0, 59, 75
2, 59648, Note_off_c, 0, 59, 0
2, 59904, Note_on_c, 0, 54, 75
2, 60160, Note_off_c, 0, 54, 0
2, 60416, Note_off_c, 0, 71, 0
2, 60416, Note_on_c, 0, 47, 75
2, 61235, Note_off_c, 0, 47, 0
2, 61440, Note_on_c, 0, 64, 88
2, 61440, Note_on_c, 0, 68, 88
2, 61440, Note_on_c, 0, 71, 88
2, 61440, Note_on_c, 0, 76, 88
2, 61440, Note_on_c, 0, 40, 88
2, 61440, Note_on_c, 0, 52, 88
2, 62208, Note_off_c, 0, 64, 0
2, 62208, Note_off_c, 0, 68, 0
2, 62208, Note_off_c, 0, 71, 0
2, 62208, Note_off_c, 0, 76, 0
2, 62208, Note_on_c, 0, 64, 62
2, 62208, Note_off_c, 0, 40, 0
2, 62208, Note_off_c, 0, 52, 0
2, 62464, Note_off_c, 0, 64, 0
2, 62464, Note_on_c, 0, 68, 62
2, 62464, Note_on_c, 0, 64, 62
2, 62874, Note_off_c, 0, 68, 0
2, 62874, Note_off_c, 0, 64, 0
2, 62976, Note_on_c, 0, 69, 62
2, 62976, Note_on_c, 0, 66, 62
2, 63386, Note_off_c, 0, 69, 0
2, 63386, Note_off_c, 0, 66, 0
2, 63488, Note_on_c, 0, 71, 62
2, 63488, Note_on_c, 0, 68, 62
2, 63616, Note_off_c, 0, 71, 0
2, 63616, Note_on_c, 0, 73, 62
2, 63744, Note_off_c, 0, 73, 0
2, 63744, Note_on_c, 0, 71, 62
2, 64256, Note_off_c, 0, 71, 0
2, 64256, Note_on_c, 0, 73, 62
2, 64256, Note_off_c, 0, 68, 0
2, 64256, Note_on_c, 0, 69, 62
2, 64512, Note_off_c, 0, 73, 0
2, 64512, Note_on_c, 0, 71, 62
2, 64512, Note_off_c, 0, 69, 0
2, 64512, Note_on_c, 0, 68, 62
2, 65024, Note_off_c, 0, 71, 0
2, 65024, Note_on_c, 0, 69, 75
2, 65024, Note_off_c, 0, 68, 0
2, 65024, Note_on_c, 0, 63, 75
2, 65152, Note_off_c, 0, 69, 0
2, 65152, Note_on_c, 0, 71, 75
2, 65280, Note_off_c, 0, 71, 0
2, 65280, Note_on_c, 0, 69, 75
2, 65408, Note_off_c, 0, 69, 0
2, 65408, Note_on_c, 0, 71, 75
2, 65536, Note_off_c, 0, 71, 0
2, 65536, Note_off_c, 0, 63, 0
2, 65536, Note_on_c, 0, 68, 75
2, 65536, Note_on_c, 0, 64, 75
2, 66048, Note_off_c, 0, 68, 0
2, 66048, Note_on_c, 0, 59, 75
2, 66048, Note_on_c, 0, 64, 75
2, 66048, Note_off_c, 0, 64, 0
2, 66048, Note_on_c, 0, 44, 75
2, 66048, Note_on_c, 0, 56, 75
2, 66458, Note_off_c, 0, 59, 0
2, 66458, Note_off_c, 0, 64, 0
2, 66458, Note_off_c, 0, 44, 0
2, 66458, Note_off_c, 0, 56, 0
2, 66560, Note_on_c, 0, 61, 75
2, 66560, Note_on_c, 0, 66, 75
2, 66560, Note_on_c, 0, 45, 75
2, 66560, Note_on_c, 0, 57, 75
2, 66970, Note_off_c, 0, 61, 0
2, 66970, Note_off_c, 0, 66, 0
2, 66970, Note_off_c, 0, 45, 0
2, 66970, Note_off_c, 0, 57, 0
2, 67072, Note_on_c, 0, 63, 75
2, 67072, Note_on_c, 0, 47, 75
2, 67072, Note_on_c, 0, 54, 75
2, 67482, Note_off_c, 0, 63, 0
2, 67482, Note_off_c, 0, 47, 0
2, 67482, Note_off_c, 0, 54, 0
2, 67584, Note_on_c, 0, 64, 75
2, 67584, Note_on_c, 0, 40, 75
2, 67584, Note_on_c, 0, 52, 75
2, 67755, Note_off_c, 0, 64, 0
2, 67755, Note_on_c, 0, 66, 75
2, 67925, Note_off_c, 0, 66, 0
2, 67925, Note_on_c, 0, 68, 75
2, 68096, Note_off_c, 0, 68, 0
2, 68096, Note_on_c, 0, 59, 75
2, 68608, Note_off_c, 0, 59, 0
2, 68608, Note_off_c, 0, 40, 0
2, 68608, Note_off_c, 0, 52, 0
2, 68736, Note_on_c, 0, 64, 81
2, 68864, Note_off_c, 0, 64, 0
2, 68864, Note_on_c, 0, 66, 81
2, 68992, Note_off_c, 0, 66, 0
2, 68992, Note_on_c, 0, 68, 81
2, 69120, Note_off_c, 0, 68, 0
2, 69120, Note_on_c, 0, 69, 87
2, 69248, Note_off_c, 0, 69, 0
2, 69248, Note_on_c, 0, 71, 87
2, 69376, Note_off_c, 0, 71, 0
2, 69376, Note_on_c, 0, 73, 87
2, 69504, Note_off_c, 0, 73, 0
2, 69504, Note_on_c, 0, 75, 87
2, 69632, Note_off_c, 0, 75, 0
2, 69632, Note_on_c, 0, 76, 94
2, 69632, Note_on_c, 0, 52, 94
2, 69632, Note_on_c, 0, 56, 94
2, 69632, Note_on_c, 0, 59, 94
2, 70400, Note_off_c, 0, 76, 0
2, 70400, Note_on_c, 0, 68, 70
2, 70400, Note_off_c, 0, 52, 0
2, 70400, Note_off_c, 0, 56, 0
2, 70400, Note_off_c, 0, 59, 0
2, 70400, Note_on_c, 0, 64, 70
2, 70656, Note_off_c, 0, 68, 0
2, 70656, Note_on_c, 0, 69, 76
2, 70656, Note_off_c, 0, 64, 0
2, 70656, Note_on_c, 0, 66, 76
2, 71066, Note_off_c, 0, 69, 0
2, 71066, Note_off_c, 0, 66, 0
2, 71168, Note_on_c, 0, 71, 82
2, 71168, Note_on_c, 0, 68, 82
2, 71578, Note_off_c, 0, 71, 0
2, 71578, Note_off_c, 0, 68, 0
2, 71680, Note_on_c, 0, 73, 88
2, 71680, Note_on_c, 0, 69, 88
2, 72090, Note_off_c, 0, 69, 0
2, 72192, Note_on_c, 0, 57, 88
2, 72448, Note_off_c, 0, 73, 0
2, 72448, Note_on_c, 0, 76, 88
2, 72602, Note_off_c, 0, 57, 0
2, 72704, Note_off_c, 0, 76, 0
2, 72704, Note_on_c, 0, 71, 88
2, 72704, Note_on_c, 0, 68, 88
2, 73114, Note_off_c, 0, 71, 0
2, 73114, Note_off_c, 0, 68, 0
2, 73216, Note_on_c, 0, 68, 88
2, 73216, Note_on_c, 0, 64, 88
2, 73626, Note_off_c, 0, 68, 0
2, 73626, Note_off_c, 0, 64, 0
2, 73728, Note_on_c, 0, 51, 62
2, 73984, Note_on_c, 0, 69, 62
2, 74138, Note_off_c, 0, 51, 0
2, 74240, Note_on_c, 0, 59, 62
2, 74496, Note_off_c, 0, 69, 0
2, 74496, Note_on_c, 0, 66, 62
2, 74650, Note_off_c, 0, 59, 0
2, 74752, Note_on_c, 0, 52, 62
2, 75008, Note_off_c, 0, 66, 0
2, 75008, Note_on_c, 0, 68, 62
2, 75162, Note_off_c, 0, 52, 0
2, 75264, Note_on_c, 0, 59, 62
2, 75520, Note_off_c, 0, 68, 0
2, 75520, Note_on_c, 0, 64, 62
2, 75674, Note_off_c, 0, 59, 0
2, 75776, Note_off_c, 0, 64, 0
2, 75776, Note_on_c, 0, 51, 62
2, 76032, Note_on_c, 0, 78, 62
2, 76186, Note_off_c, 0, 51, 0
2, 76288, Note_on_c, 0, 59, 62
2, 76544, Note_off_c, 0, 78, 0
2, 76544, Note_on_c, 0, 69, 62
2, 76698, Note_off_c, 0, 59, 0
2, 76800, Note_on_c, 0, 52, 62
2, 77056, Note_off_c, 0, 69, 0
2, 77056, Note_on_c, 0, 68, 62
2, 77210, Note_off_c, 0, 52, 0
2, 77312, Note_on_c, 0, 59, 62
2, 77568, Note_off_c, 0, 68, 0
2, 77568, Note_on_c, 0, 71, 62
2, 77722, Note_off_c, 0, 59, 0
2, 77824, Note_off_c, 0, 71, 0
2, 77824, Note_on_c, 0, 51, 101
2, 78080, Note_on_c, 0, 69, 101
2, 78234, Note_off_c, 0, 51, 0
2, 78336, Note_on_c, 0, 59, 101
2, 78592, Note_off_c, 0, 69, 0
2, 78592, Note_on_c, 0, 66, 101
2, 78746, Note_off_c, 0, 59, 0
2, 78848, Note_on_c, 0, 52, 101
2, 79104, Note_off_c, 0, 66, 0
2, 79104, Note_on_c, 0, 68, 101
2, 79258, Note_off_c, 0, 52, 0
2, 79360, Note_on_c, 0, 59, 101
2, 79616, Note_off_c, 0, 68, 0
2, 79616, Note_on_c, 0, 64, 101
2, 79770, Note_off_c, 0, 59, 0
2, 79872, Note_off_c, 0, 64, 0
2, 79872, Note_on_c, 0, 51, 101
2, 80128, Note_on_c, 0, 78, 101
2, 80282, Note_off_c, 0, 51, 0
2, 80384, Note_on_c, 0, 59, 101
2, 80640, Note_off_c, 0, 78, 0
2, 80640, Note_on_c, 0, 69, 101
2, 80794, Note_off_c, 0, 59, 0
2, 80896, Note_on_c, 0, 52, 101
2, 81152, Note_off_c, 0, 69, 0
2, 81152, Note_on_c, 0, 68, 101
2, 81306, Note_off_c, 0, 52, 0
2, 81408, Note_on_c, 0, 56, 101
2, 81664, Note_off_c, 0, 68, 0
2, 81664, Note_on_c, 0, 76, 101
2, 81818, Note_off_c, 0, 56, 0
2, 81920, Note_off_c, 0, 76, 0
2, 81920, Note_on_c, 0, 57, 101
2, 82176, Note_on_c, 0, 73, 101
2, 82432, Note_off_c, 0, 73, 0
2, 82432, Note_on_c, 0, 65, 101
2, 82688, Note_off_c, 0, 65, 0
2, 82688, Note_on_c, 0, 66, 101
2, 82944, Note_off_c, 0, 66, 0
2, 82944, Note_on_c, 0, 73, 101
2, 82944, Note_off_c, 0, 57, 0
2, 82944, Note_on_c, 0, 54, 101
2, 83115, Note_off_c, 0, 73, 0
2, 83115, Note_on_c, 0, 71, 101
2, 83285, Note_off_c, 0, 71, 0
2, 83285, Note_on_c, 0, 69, 101
2, 83354, Note_off_c, 0, 54, 0
2, 83456, Note_off_c, 0, 69, 0
2, 83456, Note_on_c, 0, 68, 101
2, 83456, Note_on_c, 0, 58, 101
2, 83627, Note_off_c, 0, 68, 0
2, 83627, Note_on_c, 0, 66, 101
2, 83797, Note_off_c, 0, 66, 0
2, 83797, Note_on_c, 0, 64, 101
2, 83866, Note_off_c, 0, 58, 0
2, 83968, Note_off_c, 0, 64, 0
2, 83968, Note_on_c, 0, 63, 101
2, 83968, Note_on_c, 0, 59, 101
2, 84139, Note_off_c, 0, 63, 0
2, 84139, Note_on_c, 0, 64, 101
2, 84309, Note_off_c, 0, 64, 0
2, 84309, Note_on_c, 0, 66, 101
2, 84378, Note_off_c, 0, 59, 0
2, 84480, Note_off_c, 0, 66, 0
2, 84480, Note_on_c, 0, 59, 101
2, 84480, Note_on_c, 0, 47, 101
2, 84890, Note_off_c, 0, 47, 0
2, 84992, Note_off_c, 0, 59, 0
2, 84992, Note_on_c, 0, 51, 62
2, 85248, Note_off_c, 0, 51, 0
2, 85248, Note_on_c, 0, 47, 62
2, 85504, Note_off_c, 0, 47, 0
2, 85504, Note_on_c, 0, 54, 62
2, 85760, Note_off_c, 0, 54, 0
2, 85760, Note_on_c, 0, 52, 62
2, 86016, Note_off_c, 0, 52, 0
2, 86016, Note_on_c, 0, 66, 62
2, 86016, Note_on_c, 0, 51, 62
2, 86272, Note_off_c, 0, 66, 0
2, 86272, Note_on_c, 0, 71, 62
2, 86528, Note_off_c, 0, 71, 0
2, 86528, Note_on_c, 0, 71, 62
2, 86733, Note_off_c, 0, 71, 0
2, 86784, Note_on_c, 0, 71, 62
2, 86989, Note_off_c, 0, 71, 0
2, 87040, Note_on_c, 0, 71, 62
2, 87296, Note_off_c, 0, 71, 0
2, 87296, Note_on_c, 0, 69, 62
2, 87296, Note_on_c, 0, 59, 62
2, 87552, Note_off_c, 0, 69, 0
2, 87552, Note_on_c, 0, 68, 62
2, 87552, Note_off_c, 0, 59, 0
2, 87552, Note_on_c, 0, 59, 62
2, 87808, Note_off_c, 0, 68, 0
2, 87808, Note_on_c, 0, 66, 62
2, 87808, Note_off_c, 0, 59, 0
2, 87808, Note_on_c, 0, 59, 62
2, 88064, Note_off_c, 0, 66, 0
2, 88064, Note_off_c, 0, 59, 0
2, 88064, Note_off_c, 0, 51, 0
2, 88064, Note_on_c, 0, 68, 62
2, 88064, Note_on_c, 0, 59, 62
2, 88064, Note_on_c, 0, 52, 62
2, 88320, Note_off_c, 0, 68, 0
2, 88320, Note_on_c, 0, 71, 62
2, 88474, Note_off_c, 0, 52, 0
2, 88576, Note_off_c, 0, 71, 0
2, 88576, Note_on_c, 0, 63, 62
2, 88576, Note_on_c, 0, 54, 62
2, 88832, Note_off_c, 0, 63, 0
2, 88832, Note_on_c, 0, 66, 62
2, 88986, Note_off_c, 0, 54, 0
2, 89088, Note_off_c, 0, 66, 0
2, 89088, Note_on_c, 0, 64, 62
2, 89088, Note_on_c, 0, 56, 62
2, 89344, Note_off_c, 0, 64, 0
2, 89344, Note_on_c, 0, 68, 62
2, 89498, Note_off_c, 0, 56, 0
2, 89600, Note_off_c, 0, 68, 0
2, 89600, Note_on_c, 0, 66, 62
2, 89600, Note_on_c, 0, 51, 62
2, 89856, Note_off_c, 0, 66, 0
2, 89856, Note_on_c, 0, 69, 62
2, 90010, Note_off_c, 0, 51, 0
2, 90112, Note_off_c, 0, 69, 0
2, 90112, Note_off_c, 0, 59, 0
2, 90112, Note_on_c, 0, 68, 62
2, 90112, Note_on_c, 0, 59, 62
2, 90112, Note_on_c, 0, 52, 62
2, 90368, Note_off_c, 0, 68, 0
2, 90368, Note_on_c, 0, 71, 62
2, 90522, Note_off_c, 0, 52, 0
2, 90624, Note_off_c, 0, 71, 0
2, 90624, Note_on_c, 0, 63, 62
2, 90624, Note_on_c, 0, 54, 62
2, 90880, Note_off_c, 0, 63, 0
2, 90880, Note_on_c, 0, 66, 62
2, 91034, Note_off_c, 0, 54, 0
2, 91136, Note_off_c, 0, 66, 0
2, 91136, Note_on_c, 0, 64, 62
2, 91136, Note_on_c, 0, 56, 62
2, 91392, Note_off_c, 0, 64, 0
2, 91392, Note_on_c, 0, 68, 62
2, 91546, Note_off_c, 0, 56, 0
2, 91648, Note_off_c, 0, 68, 0
2, 91648, Note_on_c, 0, 66, 62
2, 91648, Note_on_c, 0, 51, 62
2, 91904, Note_off_c, 0, 66, 0
2, 91904, Note_on_c, 0, 69, 62
2, 92058, Note_off_c, 0, 51, 0
2, 92160, Note_off_c, 0, 69, 0
2, 92160, Note_off_c, 0, 59, 0
2, 92160, Note_on_c, 0, 68, 62
2, 92160, Note_on_c, 0, 52, 62
2, 92416, Note_off_c, 0, 68, 0
2, 92416, Note_on_c, 0, 73, 62
2, 92672, Note_off_c, 0, 73, 0
2, 92672, Note_on_c, 0, 73, 62
2, 92877, Note_off_c, 0, 73, 0
2, 92928, Note_on_c, 0, 73, 62
2, 93133, Note_off_c, 0, 73, 0
2, 93184, Note_on_c, 0, 73, 68
2, 93184, Note_off_c, 0, 52, 0
2, 93184, Note_on_c, 0, 53, 68
2, 93440, Note_off_c, 0, 73, 0
2, 93440, Note_on_c, 0, 71, 68
2, 93440, Note_on_c, 0, 61, 68
2, 93696, Note_off_c, 0, 71, 0
2, 93696, Note_on_c, 0, 70, 74
2, 93696, Note_off_c, 0, 61, 0
2, 93696, Note_on_c, 0, 61, 74
2, 93952, Note_off_c, 0, 70, 0
2, 93952, Note_on_c, 0, 68, 74
2, 93952, Note_off_c, 0, 61, 0
2, 93952, Note_on_c, 0, 61, 74
2, 94208, Note_off_c, 0, 68, 0
2, 94208, Note_off_c, 0, 61, 0
2, 94208, Note_off_c, 0, 53, 0
2, 94208, Note_on_c, 0, 70, 80
2, 94208, Note_on_c, 0, 61, 80
2, 94208, Note_on_c, 0, 54, 80
2, 94464, Note_off_c, 0, 70, 0
2, 94464, Note_on_c, 0, 73, 80
2, 94618, Note_off_c, 0, 54, 0
2, 94720, Note_off_c, 0, 73, 0
2, 94720, Note_on_c, 0, 65, 88
2, 94720, Note_on_c, 0, 56, 88
2, 94976, Note_off_c, 0, 65, 0
2, 94976, Note_on_c, 0, 68, 88
2, 95130, Note_off_c, 0, 56, 0
2, 95232, Note_off_c, 0, 68, 0
2, 95232, Note_on_c, 0, 66, 94
2, 95232, Note_on_c, 0, 58, 94
2, 95488, Note_off_c, 0, 66, 0
2, 95488, Note_on_c, 0, 70, 94
2, 95642, Note_off_c, 0, 58, 0
2, 95744, Note_off_c, 0, 70, 0
2, 95744, Note_on_c, 0, 68, 100
2, 95744, Note_on_c, 0, 53, 100
2, 96000, Note_off_c, 0, 68, 0
2, 96000, Note_on_c, 0, 71, 100
2, 96154, Note_off_c, 0, 53, 0
2, 96256, Note_off_c, 0, 71, 0
2, 96256, Note_off_c, 0, 61, 0
2, 96256, Note_on_c, 0, 70, 106
2, 96256, Note_on_c, 0, 61, 106
2, 96256, Note_on_c, 0, 54, 106
2, 96512, Note_off_c, 0, 70, 0
2, 96512, Note_on_c, 0, 73, 106
2, 96666, Note_off_c, 0, 54, 0
2, 96768, Note_off_c, 0, 73, 0
2, 96768, Note_on_c, 0, 65, 106
2, 96768, Note_on_c, 0, 56, 106
2, 97024, Note_off_c, 0, 65, 0
2, 97024, Note_on_c, 0, 68, 106
2, 97178, Note_off_c, 0, 56, 0
2, 97280, Note_off_c, 0, 68, 0
2, 97280, Note_on_c, 0, 66, 106
2, 97280, Note_on_c, 0, 58, 106
2, 97536, Note_off_c, 0, 66, 0
2, 97536, Note_on_c, 0, 70, 106
2, 97690, Note_off_c, 0, 58, 0
2, 97792, Note_off_c, 0, 70, 0
2, 97792, Note_on_c, 0, 68, 106
2, 97792, Note_on_c, 0, 53, 106
2, 98048, Note_off_c, 0, 68, 0
2, 98048, Note_on_c, 0, 71, 106
2, 98202, Note_off_c, 0, 53, 0
2, 98304, Note_off_c, 0, 71, 0
2, 98304, Note_off_c, 0, 61, 0
2, 98304, Note_on_c, 0, 70, 106
2, 98304, Note_on_c, 0, 54, 106
2, 98560, Note_off_c, 0, 70, 0
2, 98560, Note_on_c, 0, 73, 106
2, 98714, Note_off_c, 0, 54, 0
2, 98816, Note_off_c, 0, 73, 0
2, 98816, Note_on_c, 0, 71, 106
2, 98816, Note_on_c, 0, 56, 106
2, 99072, Note_off_c, 0, 71, 0
2, 99072, Note_on_c, 0, 75, 106
2, 99226, Note_off_c, 0, 56, 0
2, 99328, Note_off_c, 0, 75, 0
2, 99328, Note_on_c, 0, 73, 106
2, 99328, Note_on_c, 0, 58, 106
2, 99584, Note_off_c, 0, 73, 0
2, 99584, Note_on_c, 0, 76, 106
2, 99738, Note_off_c, 0, 58, 0
2, 99840, Note_off_c, 0, 76, 0
2, 99840, Note_on_c, 0, 75, 106
2, 99840, Note_on_c, 0, 59, 106
2, 100096, Note_off_c, 0, 75, 0
2, 100096, Note_on_c, 0, 78, 106
2, 100250, Note_off_c, 0, 59, 0
2, 100352, Note_off_c, 0, 78, 0
2, 100352, Note_on_c, 0, 78, 114
2, 100352, Note_on_c, 0, 61, 114
2, 100608, Note_off_c, 0, 78, 0
2, 100608, Note_on_c, 0, 76, 114
2, 100762, Note_off_c, 0, 61, 0
2, 100864, Note_off_c, 0, 76, 0
2, 100864, Note_on_c, 0, 76, 114
2, 100864, Note_on_c, 0, 59, 114
2, 101120, Note_off_c, 0, 76, 0
2, 101120, Note_on_c, 0, 75, 114
2, 101274, Note_off_c, 0, 59, 0
2, 101376, Note_off_c, 0, 75, 0
2, 101376, Note_on_c, 0, 75, 114
2, 101376, Note_on_c, 0, 58, 114
2, 101632, Note_off_c, 0, 75, 0
2, 101632, Note_on_c, 0, 73, 114
2, 101786, Note_off_c, 0, 58, 0
2, 101888, Note_off_c, 0, 73, 0
2, 101888, Note_on_c, 0, 73, 114
2, 101888, Note_on_c, 0, 56, 114
2, 102144, Note_off_c, 0, 73, 0
2, 102144, Note_on_c, 0, 71, 114
2, 102298, Note_off_c, 0, 56, 0
2, 102400, Note_off_c, 0, 71, 0
2, 102400, Note_on_c, 0, 71, 114
2, 102400, Note_on_c, 0, 54, 114
2, 102656, Note_off_c, 0, 71, 0
2, 102656, Note_on_c, 0, 70, 114
2, 102810, Note_off_c, 0, 54, 0
2, 102912, Note_off_c, 0, 70, 0
2, 102912, Note_on_c, 0, 70, 114
2, 102912, Note_on_c, 0, 52, 114
2, 103168, Note_off_c, 0, 70, 0
2, 103168, Note_on_c, 0, 68, 114
2, 103322, Note_off_c, 0, 52, 0
2, 103424, Note_off_c, 0, 68, 0
2, 103424, Note_on_c, 0, 68, 114
2, 103424, Note_on_c, 0, 51, 114
2, 103680, Note_off_c, 0, 68, 0
2, 103680, Note_on_c, 0, 66, 114
2, 103834, Note_off_c, 0, 51, 0
2, 103936, Note_off_c, 0, 66, 0
2, 103936, Note_on_c, 0, 66, 114
2, 103936, Note_on_c, 0, 49, 114
2, 104192, Note_off_c, 0, 66, 0
2, 104192, Note_on_c, 0, 64, 114
2, 104346, Note_off_c, 0, 49, 0
2, 104448, Note_off_c, 0, 64, 0
2, 104448, Note_on_c, 0, 63, 114
2, 104448, Note_on_c, 0, 47, 114
2, 104619, Note_off_c, 0, 63, 0
2, 104619, Note_on_c, 0, 64, 114
2, 104789, Note_off_c, 0, 64, 0
2, 104789, Note_on_c, 0, 66, 114
2, 104960, Note_off_c, 0, 66, 0
2, 104960, Note_on_c, 0, 59, 114
2, 105131, Note_off_c, 0, 59, 0
2, 105131, Note_on_c, 0, 64, 114
2, 105301, Note_off_c, 0, 64, 0
2, 105301, Note_on_c, 0, 61, 114
2, 105472, Note_off_c, 0, 61, 0
2, 105472, Note_on_c, 0, 61, 114
2, 105472, Note_off_c, 0, 47, 0
2, 105472, Note_on_c, 0, 54, 114
2, 105600, Note_off_c, 0, 61, 0
2, 105600, Note_on_c, 0, 63, 114
2, 105728, Note_off_c, 0, 63, 0
2, 105728, Note_on_c, 0, 61, 114
2, 105856, Note_off_c, 0, 61, 0
2, 105856, Note_on_c, 0, 63, 114
2, 105882, Note_off_c, 0, 54, 0
2, 105984, Note_off_c, 0, 63, 0
2, 105984, Note_on_c, 0, 61, 114
2, 105984, Note_on_c, 0, 42, 114
2, 106112, Note_off_c, 0, 61, 0
2, 106112, Note_on_c, 0, 63, 114
2, 106240, Note_off_c, 0, 63, 0
2, 106240, Note_on_c, 0, 61, 114
2, 106394, Note_off_c, 0, 42, 0
2, 106496, Note_off_c, 0, 61, 0
2, 106496, Note_on_c, 0, 59, 114
2, 106496, Note_on_c, 0, 47, 114
2, 106906, Note_off_c, 0, 47, 0
2, 107008, Note_on_c, 0, 35, 114
2, 107264, Note_off_c, 0, 59, 0
2, 107264, Note_on_c, 0, 78, 75
2, 107418, Note_off_c, 0, 35, 0
2, 107520, Note_off_c, 0, 78, 0
2, 107520, Note_on_c, 0, 71, 75
2, 108032, Note_off_c, 0, 71, 0
2, 108032, Note_on_c, 0, 73, 75
2, 108544, Note_off_c, 0, 73, 0
2, 108544, Note_on_c, 0, 75, 75
2, 108544, Note_on_c, 0, 71, 75
2, 108544, Note_on_c, 0, 42, 75
2, 108544, Note_on_c, 0, 54, 75
2, 109056, Note_off_c, 0, 75, 0
2, 109056, Note_on_c, 0, 73, 75
2, 109056, Note_off_c, 0, 71, 0
2, 109056, Note_on_c, 0, 70, 75
2, 109363, Note_off_c, 0, 42, 0
2, 109363, Note_off_c, 0, 54, 0
2, 109440, Note_off_c, 0, 73, 0
2, 109440, Note_on_c, 0, 78, 75
2, 109568, Note_off_c, 0, 78, 0
2, 109568, Note_on_c, 0, 73, 75
2, 109568, Note_off_c, 0, 70, 0
2, 109568, Note_on_c, 0, 70, 75
2, 109978, Note_off_c, 0, 73, 0
2, 109978, Note_off_c, 0, 70, 0
2, 110080, Note_on_c, 0, 75, 75
2, 110080, Note_on_c, 0, 71, 75
2, 110490, Note_off_c, 0, 75, 0
2, 110490, Note_off_c, 0, 71, 0
2, 110592, Note_on_c, 0, 76, 75
2, 110592, Note_on_c, 0, 73, 75
2, 110592, Note_on_c, 0, 42, 75
2, 110592, Note_on_c, 0, 54, 75
2, 111002, Note_off_c, 0, 42, 0
2, 111002, Note_off_c, 0, 54, 0
2, 111104, Note_off_c, 0, 76, 0
2, 111104, Note_on_c, 0, 75, 75
2, 111104, Note_off_c, 0, 73, 0
2, 111104, Note_on_c, 0, 71, 75
2, 111104, Note_on_c, 0, 47, 75
2, 111104, Note_on_c, 0, 59, 75
2, 111488, Note_off_c, 0, 75, 0
2, 111488, Note_on_c, 0, 78, 75
2, 111514, Note_off_c, 0, 47, 0
2, 111514, Note_off_c, 0, 59, 0
2, 111616, Note_off_c, 0, 78, 0
2, 111616, Note_on_c, 0, 75, 75
2, 111616, Note_off_c, 0, 71, 0
2, 111616, Note_on_c, 0, 71, 75
2, 112026, Note_off_c, 0, 75, 0
2, 112026, Note_off_c, 0, 71, 0
2, 112128, Note_on_c, 0, 76, 75
2, 112128, Note_on_c, 0, 73, 75
2, 112538, Note_off_c, 0, 76, 0
2, 112538, Note_off_c, 0, 73, 0
2, 112640, Note_on_c, 0, 75, 75
2, 112640, Note_on_c, 0, 78, 75
2, 112640, Note_on_c, 0, 47, 75
2, 112640, Note_on_c, 0, 59, 75
2, 113050, Note_off_c, 0, 75, 0
2, 113050, Note_off_c, 0, 78, 0
2, 113152, Note_on_c, 0, 75, 75
2, 113152, Note_on_c, 0, 78, 75
2, 113152, Note_on_c, 0, 83, 75
2, 113562, Note_off_c, 0, 75, 0
2, 113562, Note_off_c, 0, 78, 0
2, 113562, Note_off_c, 0, 83, 0
2, 113664, Note_off_c, 0, 47, 0
2, 113664, Note_off_c, 0, 59, 0
2, 113664, Note_on_c, 0, 47, 75
2, 113664, Note_on_c, 0, 59, 75
2, 114176, Note_on_c, 0, 71, 75
2, 114176, Note_on_c, 0, 75, 75
2, 114176, Note_on_c, 0, 78, 75
2, 114586, Note_off_c, 0, 71, 0
2, 114586, Note_off_c, 0, 75, 0
2, 114586, Note_off_c, 0, 78, 0
2, 114688, Note_off_c, 0, 47, 0
2, 114688, Note_off_c, 0, 59, 0
2, 114688, Note_on_c, 0, 52, 75
2, 114944, Note_on_c, 0, 80, 75
2, 115098, Note_off_c, 0, 52, 0
2, 115200, Note_on_c, 0, 56, 75
2, 115456, Note_off_c, 0, 80, 0
2, 115456, Note_on_c, 0, 76, 75
2, 115610, Note_off_c, 0, 56, 0
2, 115712, Note_on_c, 0, 54, 75
2, 115968, Note_off_c, 0, 76, 0
2, 115968, Note_on_c, 0, 75, 75
2, 116122, Note_off_c, 0, 54, 0
2, 116224, Note_on_c, 0, 58, 75
2, 116480, Note_off_c, 0, 75, 0
2, 116480, Note_on_c, 0, 73, 75
2, 116634, Note_off_c, 0, 58, 0
2, 116736, Note_off_c, 0, 73, 0
2, 116736, Note_on_c, 0, 75, 75
2, 116736, Note_on_c, 0, 59, 75
2, 116907, Note_off_c, 0, 75, 0
2, 116907, Note_on_c, 0, 73, 75
2, 117077, Note_off_c, 0, 73, 0
2, 117077, Note_on_c, 0, 71, 75
2, 117248, Note_off_c, 0, 71, 0
2, 117248, Note_on_c, 0, 75, 75
2, 117248, Note_on_c, 0, 78, 75
2, 117248, Note_on_c, 0, 83, 75
2, 117555, Note_off_c, 0, 59, 0
2, 117760, Note_off_c, 0, 75, 0
2, 117760, Note_off_c, 0, 78, 0
2, 117760, Note_off_c, 0, 83, 0
2, 117760, Note_on_c, 0, 51, 75
2, 117760, Note_on_c, 0, 54, 75
2, 117760, Note_on_c, 0, 59, 75
2, 118272, Note_on_c, 0, 71, 75
2, 118272, Note_on_c, 0, 75, 75
2, 118272, Note_on_c, 0, 78, 75
2, 118579, Note_off_c, 0, 51, 0
2, 118579, Note_off_c, 0, 54, 0
2, 118579, Note_off_c, 0, 59, 0
2, 118682, Note_off_c, 0, 71, 0
2, 118682, Note_off_c, 0, 75, 0
2, 118682, Note_off_c, 0, 78, 0
2, 118784, Note_on_c, 0, 80, 75
2, 118784, Note_on_c, 0, 52, 75
2, 118955, Note_off_c, 0, 80, 0
2, 118955, Note_on_c, 0, 78, 75
2, 119125, Note_off_c, 0, 78, 0
2, 119125, Note_on_c, 0, 76, 75
2, 119296, Note_off_c, 0, 76, 0
2, 119296, Note_on_c, 0, 75, 75
2, 119296, Note_on_c, 0, 59, 75
2, 119467, Note_off_c, 0, 75, 0
2, 119467, Note_on_c, 0, 73, 75
2, 119603, Note_off_c, 0, 52, 0
2, 119637, Note_off_c, 0, 73, 0
2, 119637, Note_on_c, 0, 71, 75
2, 119808, Note_off_c, 0, 71, 0
2, 119808, Note_on_c, 0, 73, 75
2, 119808, Note_on_c, 0, 54, 75
2, 119936, Note_off_c, 0, 73, 0
2, 119936, Note_on_c, 0, 75, 75
2, 120064, Note_off_c, 0, 75, 0
2, 120064, Note_on_c, 0, 73, 75
2, 120192, Note_off_c, 0, 73, 0
2, 120192, Note_on_c, 0, 75, 75
2, 120320, Note_off_c, 0, 75, 0
2, 120320, Note_on_c, 0, 73, 75
2, 120320, Note_off_c, 0, 59, 0
2, 120320, Note_on_c, 0, 58, 75
2, 120448, Note_off_c, 0, 73, 0
2, 120448, Note_on_c, 0, 75, 75
2, 120576, Note_off_c, 0, 75, 0
2, 120576, Note_on_c, 0, 73, 75
2, 120627, Note_off_c, 0, 54, 0
2, 120832, Note_off_c, 0, 73, 0
2, 120832, Note_off_c, 0, 58, 0
2, 120832, Note_on_c, 0, 71, 75
2, 120832, Note_on_c, 0, 59, 75
2, 121088, Note_off_c, 0, 59, 0
2, 121344, Note_on_c, 0, 54, 75
2, 121600, Note_off_c, 0, 54, 0
2, 121856, Note_off_c, 0, 71, 0
2, 121856, Note_on_c, 0, 47, 75
2, 122675, Note_off_c, 0, 47, 0
2, 122880, Note_on_c, 0, 71, 62
2, 122880, Note_on_c, 0, 47, 62
2, 122880, Note_on_c, 0, 59, 62
2, 123136, Note_off_c, 0, 71, 0
2, 123136, Note_on_c, 0, 83, 62
2, 123392, Note_off_c, 0, 83, 0
2, 123392, Note_on_c, 0, 83, 62
2, 123597, Note_off_c, 0, 83, 0
2, 123648, Note_on_c, 0, 83, 62
2, 123853, Note_off_c, 0, 83, 0
2, 123904, Note_on_c, 0, 83, 62
2, 123904, Note_off_c, 0, 47, 0
2, 123904, Note_off_c, 0, 59, 0
2, 124160, Note_off_c, 0, 83, 0
2, 124160, Note_on_c, 0, 80, 62
2, 124416, Note_off_c, 0, 80, 0
2, 124416, Note_on_c, 0, 81, 62
2, 124672, Note_off_c, 0, 81, 0
2, 124672, Note_on_c, 0, 78, 62
2, 124928, Note_off_c, 0, 78, 0
2, 124928, Note_on_c, 0, 80, 62
2, 124928, Note_on_c, 0, 59, 62
2, 125133, Note_off_c, 0, 80, 0
2, 125184, Note_on_c, 0, 80, 62
2, 125184, Note_on_c, 0, 71, 62
2, 125389, Note_off_c, 0, 80, 0
2, 125389, Note_off_c, 0, 71, 0
2, 125440, Note_on_c, 0, 80, 62
2, 125440, Note_on_c, 0, 71, 62
2, 125645, Note_off_c, 0, 80, 0
2, 125645, Note_off_c, 0, 71, 0
2, 125696, Note_on_c, 0, 80, 62
2, 125696, Note_on_c, 0, 71, 62
2, 125901, Note_off_c, 0, 80, 0
2, 125901, Note_off_c, 0, 71, 0
2, 125952, Note_on_c, 0, 80, 62
2, 125952, Note_on_c, 0, 71, 62
2, 126208, Note_off_c, 0, 80, 0
2, 126208, Note_on_c, 0, 76, 62
2, 126208, Note_off_c, 0, 71, 0
2, 126208, Note_on_c, 0, 68, 62
2, 126464, Note_off_c, 0, 76, 0
2, 126464, Note_on_c, 0, 78, 62
2, 126464, Note_off_c, 0, 68, 0
2, 126464, Note_on_c, 0, 69, 62
2, 126720, Note_off_c, 0, 78, 0
2, 126720, Note_on_c, 0, 75, 62
2, 126720, Note_off_c, 0, 69, 0
2, 126720, Note_on_c, 0, 66, 62
2, 126976, Note_off_c, 0, 75, 0
2, 126976, Note_off_c, 0, 66, 0
2, 126976, Note_off_c, 0, 59, 0
2, 126976, Note_on_c, 0, 76, 62
2, 126976, Note_on_c, 0, 68, 62
2, 126976, Note_on_c, 0, 59, 62
2, 127232, Note_off_c, 0, 76, 0
2, 127232, Note_on_c, 0, 80, 62
2, 127386, Note_off_c, 0, 68, 0
2, 127488, Note_off_c, 0, 80, 0
2, 127488, Note_on_c, 0, 78, 62
2, 127488, Note_on_c, 0, 63, 62
2, 127744, Note_off_c, 0, 78, 0
2, 127744, Note_on_c, 0, 81, 62
2, 127898, Note_off_c, 0, 63, 0
2, 128000, Note_off_c, 0, 81, 0
2, 128000, Note_on_c, 0, 80, 62
2, 128000, Note_on_c, 0, 64, 62
2, 128256, Note_off_c, 0, 80, 0
2, 128256, Note_on_c, 0, 83, 62
2, 128410, Note_off_c, 0, 64, 0
2, 128512, Note_off_c, 0, 83, 0
2, 128512, Note_on_c, 0, 75, 62
2, 128512, Note_on_c, 0, 66, 62
2, 128768, Note_off_c, 0, 75, 0
2, 128768, Note_on_c, 0, 78, 62
2, 128768, Note_off_c, 0, 66, 0
2, 128768, Note_on_c, 0, 69, 62
2, 129024, Note_off_c, 0, 78, 0
2, 129024, Note_off_c, 0, 69, 0
2, 129024, Note_off_c, 0, 59, 0
2, 129024, Note_on_c, 0, 76, 62
2, 129024, Note_on_c, 0, 68, 62
2, 129024, Note_on_c, 0, 59, 62
2, 129280, Note_off_c, 0, 76, 0
2, 129280, Note_on_c, 0, 80, 62
2, 129434, Note_off_c, 0, 68, 0
2, 129536, Note_off_c, 0, 80, 0
2, 129536, Note_on_c, 0, 78, 62
2, 129536, Note_on_c, 0, 63, 62
2, 129792, Note_off_c, 0, 78, 0
2, 129792, Note_on_c, 0, 81, 62
2, 129946, Note_off_c, 0, 63, 0
2, 130048, Note_off_c, 0, 81, 0
2, 130048, Note_on_c, 0, 80, 62
2, 130048, Note_on_c, 0, 64, 62
2, 130304, Note_off_c, 0, 80, 0
2, 130304, Note_on_c, 0, 83, 62
2, 130458, Note_off_c, 0, 64, 0
2, 130560, Note_off_c, 0, 83, 0
2, 130560, Note_on_c, 0, 75, 62
2, 130560, Note_on_c, 0, 66, 62
2, 130816, Note_off_c, 0, 75, 0
2, 130816, Note_on_c, 0, 78, 62
2, 130816, Note_off_c, 0, 66, 0
2, 130816, Note_on_c, 0, 69, 62
2, 131072, Note_off_c, 0, 78, 0
2, 131072, Note_off_c, 0, 69, 0
2, 131072, Note_off_c, 0, 59, 0
2, 131072, Note_on_c, 0, 76, 62
2, 131072, Note_on_c, 0, 68, 62
2, 131072, Note_on_c, 0, 59, 62
2, 131328, Note_off_c, 0, 76, 0
2, 131328, Note_on_c, 0, 80, 62
2, 131482, Note_off_c, 0, 68, 0
2, 131584, Note_off_c, 0, 80, 0
2, 131584, Note_on_c, 0, 78, 62
2, 131584, Note_on_c, 0, 63, 62
2, 131840, Note_off_c, 0, 78, 0
2, 131840, Note_on_c, 0, 81, 62
2, 132096, Note_off_c, 0, 81, 0
2, 132096, Note_on_c, 0, 80, 62
2, 132096, Note_off_c, 0, 63, 0
2, 132096, Note_on_c, 0, 64, 62
2, 132352, Note_off_c, 0, 80, 0
2, 132352, Note_on_c, 0, 83, 62
2, 132506, Note_off_c, 0, 64, 0
2, 132608, Note_off_c, 0, 83, 0
2, 132608, Note_on_c, 0, 80, 62
2, 132608, Note_on_c, 0, 68, 62
2, 132864, Note_off_c, 0, 80, 0
2, 132864, Note_on_c, 0, 76, 62
2, 133018, Note_off_c, 0, 68, 0
2, 133120, Note_off_c, 0, 76, 0
2, 133120, Note_off_c, 0, 59, 0
2, 133120, Note_on_c, 0, 75, 62
2, 133120, Note_on_c, 0, 71, 62
2, 133120, Note_on_c, 0, 59, 62
2, 133291, Note_off_c, 0, 75, 0
2, 133291, Note_on_c, 0, 76, 62
2, 133461, Note_off_c, 0, 76, 0
2, 133461, Note_on_c, 0, 78, 62
2, 133632, Note_off_c, 0, 78, 0
2, 133632, Note_on_c, 0, 71, 62
2, 134144, Note_off_c, 0, 71, 0
2, 134144, Note_off_c, 0, 71, 0
2, 134144, Note_off_c, 0, 59, 0
2, 135168, Note_on_c, 0, 64, 101
2, 135168, Note_on_c, 0, 68, 101
2, 135168, Note_on_c, 0, 71, 101
2, 135168, Note_on_c, 0, 76, 101
2, 135168, Note_on_c, 0, 40, 101
2, 135168, Note_on_c, 0, 52, 101
2, 135936, Note_off_c, 0, 64, 0
2, 135936, Note_off_c, 0, 68, 0
2, 135936, Note_off_c, 0, 71, 0
2, 135936, Note_off_c, 0, 76, 0
2, 135936, Note_on_c, 0, 64, 62
2, 135936, Note_off_c, 0, 40, 0
2, 135936, Note_off_c, 0, 52, 0
2, 136192, Note_off_c, 0, 64, 0
2, 136192, Note_on_c, 0, 68, 62
2, 136192, Note_on_c, 0, 64, 62
2, 136602, Note_off_c, 0, 68, 0
2, 136602, Note_off_c, 0, 64, 0
2, 136704, Note_on_c, 0, 69, 62
2, 136704, Note_on_c, 0, 66, 62
2, 137114, Note_off_c, 0, 69, 0
2, 137114, Note_off_c, 0, 66, 0
2, 137216, Note_on_c, 0, 71, 62
2, 137216, Note_on_c, 0, 68, 62
2, 137344, Note_off_c, 0, 71, 0
2, 137344, Note_on_c, 0, 73, 62
2, 137472, Note_off_c, 0, 73, 0
2, 137472, Note_on_c, 0, 71, 62
2, 137984, Note_off_c, 0, 71, 0
2, 137984, Note_on_c, 0, 73, 62
2, 137984, Note_off_c, 0, 68, 0
2, 137984, Note_on_c, 0, 69, 62
2, 138240, Note_off_c, 0, 73, 0
2, 138240, Note_on_c, 0, 71, 62
2, 138240, Note_off_c, 0, 69, 0
2, 138240, Note_on_c, 0, 68, 62
2, 138752, Note_off_c, 0, 71, 0
2, 138752, Note_on_c, 0, 69, 75
2, 138752, Note_off_c, 0, 68, 0
2, 138752, Note_on_c, 0, 63, 75
2, 138880, Note_off_c, 0, 69, 0
2, 138880, Note_on_c, 0, 71, 75
2, 139008, Note_off_c, 0, 71, 0
2, 139008, Note_on_c, 0, 69, 75
2, 139136, Note_off_c, 0, 69, 0
2, 139136, Note_on_c, 0, 71, 75
2, 139264, Note_off_c, 0, 71, 0
2, 139264, Note_off_c, 0, 63, 0
2, 139264, Note_on_c, 0, 68, 75
2, 139264, Note_on_c, 0, 64, 75
2, 139776, Note_off_c, 0, 68, 0
2, 139776, Note_on_c, 0, 59, 75
2, 139776, Note_on_c, 0, 64, 75
2, 139776, Note_off_c, 0, 64, 0
2, 139776, Note_on_c, 0, 44, 75
2, 139776, Note_on_c, 0, 56, 75
2, 140186, Note_off_c, 0, 59, 0
2, 140186, Note_off_c, 0, 64, 0
2, 140186, Note_off_c, 0, 44, 0
2, 140186, Note_off_c, 0, 56, 0
2, 140288, Note_on_c, 0, 61, 75
2, 140288, Note_on_c, 0, 66, 75
2, 140288, Note_on_c, 0, 45, 75
2, 140288, Note_on_c, 0, 57, 75
2, 140698, Note_off_c, 0, 61, 0
2, 140698, Note_off_c, 0, 66, 0
2, 140698, Note_off_c, 0, 45, 0
2, 140698, Note_off_c, 0, 57, 0
2, 140800, Note_on_c, 0, 63, 75
2, 140800, Note_on_c, 0, 47, 75
2, 140800, Note_on_c, 0, 54, 75
2, 141210, Note_off_c, 0, 63, 0
2, 141210, Note_off_c, 0, 47, 0
2, 141210, Note_off_c, 0, 54, 0
2, 141312, Note_on_c, 0, 64, 75
2, 141312, Note_on_c, 0, 40, 75
2, 141312, Note_on_c, 0, 52, 75
2, 141483, Note_off_c, 0, 64, 0
2, 141483, Note_on_c, 0, 66, 75
2, 141653, Note_off_c, 0, 66, 0
2, 141653, Note_on_c, 0, 68, 75
2, 141824, Note_off_c, 0, 68, 0
2, 141824, Note_on_c, 0, 59, 75
2, 142336, Note_off_c, 0, 59, 0
2, 142336, Note_off_c, 0, 40, 0
2, 142336, Note_off_c, 0, 52, 0
2, 142464, Note_on_c, 0, 71, 75
2, 142592, Note_off_c, 0, 71, 0
2, 142592, Note_on_c, 0, 73, 75
2, 142720, Note_off_c, 0, 73, 0
2, 142720, Note_on_c, 0, 75, 75
2, 142848, Note_off_c, 0, 75, 0
2, 142848, Note_on_c, 0, 76, 75
2, 142976, Note_off_c, 0, 76, 0
2, 142976, Note_on_c, 0, 78, 75
2, 143104, Note_off_c, 0, 78, 0
2, 143104, Note_on_c, 0, 80, 75
2, 143232, Note_off_c, 0, 80, 0
2, 143232, Note_on_c, 0, 81, 75
2, 143360, Note_off_c, 0, 81, 0
2, 143360, Note_on_c, 0, 83, 88
2, 143360, Note_on_c, 0, 64, 88
2, 143770, Note_off_c, 0, 64, 0
2, 143872, Note_off_c, 0, 83, 0
2, 143872, Note_on_c, 0, 80, 88
2, 143872, Note_on_c, 0, 68, 88
2, 144128, Note_off_c, 0, 80, 0
2, 144128, Note_on_c, 0, 76, 88
2, 144282, Note_off_c, 0, 68, 0
2, 144384, Note_off_c, 0, 76, 0
2, 144384, Note_on_c, 0, 81, 88
2, 144384, Note_on_c, 0, 59, 88
2, 144640, Note_off_c, 0, 81, 0
2, 144640, Note_on_c, 0, 78, 88
2, 144794, Note_off_c, 0, 59, 0
2, 144896, Note_off_c, 0, 78, 0
2, 144896, Note_on_c, 0, 76, 88
2, 144896, Note_on_c, 0, 69, 88
2, 145152, Note_off_c, 0, 76, 0
2, 145152, Note_on_c, 0, 75, 88
2, 145306, Note_off_c, 0, 69, 0
2, 145408, Note_off_c, 0, 75, 0
2, 145408, Note_on_c, 0, 76, 88
2, 145408, Note_on_c, 0, 68, 88
2, 145664, Note_off_c, 0, 76, 0
2, 145664, Note_on_c, 0, 83, 88
2, 145818, Note_off_c, 0, 68, 0
2, 145920, Note_on_c, 0, 64, 88
2, 146176, Note_off_c, 0, 83, 0
2, 146176, Note_on_c, 0, 80, 88
2, 146330, Note_off_c, 0, 64, 0
2, 146432, Note_on_c, 0, 66, 88
2, 146688, Note_off_c, 0, 80, 0
2, 146688, Note_on_c, 0, 81, 88
2, 146842, Note_off_c, 0, 66, 0
2, 146944, Note_on_c, 0, 63, 88
2, 147200, Note_off_c, 0, 81, 0
2, 147200, Note_on_c, 0, 78, 88
2, 147354, Note_off_c, 0, 63, 0
2, 147456, Note_on_c, 0, 64, 88
2, 147712, Note_off_c, 0, 78, 0
2, 147712, Note_on_c, 0, 80, 88
2, 147866, Note_off_c, 0, 64, 0
2, 147968, Note_on_c, 0, 71, 88
2, 148224, Note_off_c, 0, 80, 0
2, 148224, Note_on_c, 0, 76, 88
2, 148378, Note_off_c, 0, 71, 0
2, 148480, Note_on_c, 0, 69, 88
2, 148736, Note_off_c, 0, 76, 0
2, 148736, Note_on_c, 0, 78, 88
2, 148890, Note_off_c, 0, 69, 0
2, 148992, Note_on_c, 0, 66, 88
2, 149248, Note_off_c, 0, 78, 0
2, 149248, Note_on_c, 0, 75, 94
2, 149402, Note_off_c, 0, 66, 0
2, 149504, Note_on_c, 0, 68, 94
2, 149760, Note_off_c, 0, 75, 0
2, 149760, Note_on_c, 0, 76, 100
2, 149914, Note_off_c, 0, 68, 0
2, 150016, Note_on_c, 0, 64, 100
2, 150272, Note_off_c, 0, 76, 0
2, 150272, Note_on_c, 0, 73, 106
2, 150426, Note_off_c, 0, 64, 0
2, 150528, Note_on_c, 0, 66, 106
2, 150784, Note_off_c, 0, 73, 0
2, 150784, Note_on_c, 0, 75, 114
2, 150938, Note_off_c, 0, 66, 0
2, 151040, Note_on_c, 0, 63, 114
2, 151296, Note_off_c, 0, 75, 0
2, 151296, Note_on_c, 0, 72, 120
2, 151450, Note_off_c, 0, 63, 0
2, 151552, Note_off_c, 0, 72, 0
2, 151552, Note_on_c, 0, 73, 120
2, 151552, Note_on_c, 0, 64, 120
2, 151808, Note_off_c, 0, 73, 0
2, 151808, Note_on_c, 0, 68, 126
2, 152064, Note_off_c, 0, 68, 0
2, 152064, Note_on_c, 0, 68, 126
2, 152269, Note_off_c, 0, 68, 0
2, 152320, Note_on_c, 0, 68, 127
2, 152525, Note_off_c, 0, 68, 0
2, 152576, Note_on_c, 0, 76, 127
2, 152576, Note_off_c, 0, 64, 0
2, 152576, Note_on_c, 0, 49, 127
2, 152832, Note_off_c, 0, 76, 0
2, 152832, Note_on_c, 0, 68, 127
2, 152986, Note_off_c, 0, 49, 0
2, 153088, Note_off_c, 0, 68, 0
2, 153088, Note_on_c, 0, 68, 127
2, 153088, Note_on_c, 0, 49, 127
2, 153293, Note_off_c, 0, 68, 0
2, 153344, Note_on_c, 0, 68, 127
2, 153498, Note_off_c, 0, 49, 0
2, 153549, Note_off_c, 0, 68, 0
2, 153600, Note_on_c, 0, 75, 127
2, 153600, Note_on_c, 0, 48, 127
2, 153856, Note_off_c, 0, 75, 0
2, 153856, Note_on_c, 0, 68, 127
2, 154010, Note_off_c, 0, 48, 0
2, 154112, Note_off_c, 0, 68, 0
2, 154112, Note_on_c, 0, 68, 127
2, 154112, Note_on_c, 0, 51, 127
2, 154317, Note_off_c, 0, 68, 0
2, 154368, Note_on_c, 0, 68, 127
2, 154522, Note_off_c, 0, 51, 0
2, 154573, Note_off_c, 0, 68, 0
2, 154624, Note_on_c, 0, 78, 127
2, 154624, Note_on_c, 0, 56, 127
2, 154880, Note_off_c, 0, 78, 0
2, 154880, Note_on_c, 0, 68, 127
2, 155034, Note_off_c, 0, 56, 0
2, 155136, Note_off_c, 0, 68, 0
2, 155136, Note_on_c, 0, 68, 127
2, 155136, Note_on_c, 0, 60, 127
2, 155341, Note_off_c, 0, 68, 0
2, 155392, Note_on_c, 0, 68, 127
2, 155546, Note_off_c, 0, 60, 0
2, 155597, Note_off_c, 0, 68, 0
2, 155648, Note_on_c, 0, 76, 127
2, 155648, Note_on_c, 0, 61, 127
2, 155904, Note_off_c, 0, 76, 0
2, 155904, Note_on_c, 0, 68, 127
2, 156160, Note_off_c, 0, 68, 0
2, 156160, Note_on_c, 0, 68, 127
2, 156160, Note_off_c, 0, 61, 0
2, 156160, Note_on_c, 0, 49, 127
2, 156365, Note_off_c, 0, 68, 0
2, 156416, Note_on_c, 0, 68, 127
2, 156621, Note_off_c, 0, 68, 0
2, 156672, Note_on_c, 0, 80, 127
2, 156672, Note_off_c, 0, 49, 0
2, 156928, Note_off_c, 0, 80, 0
2, 156928, Note_on_c, 0, 76, 127
2, 157184, Note_off_c, 0, 76, 0
2, 157184, Note_on_c, 0, 76, 127
2, 157184, Note_on_c, 0, 52, 127
2, 157184, Note_on_c, 0, 64, 127
2, 157389, Note_off_c, 0, 76, 0
2, 157440, Note_on_c, 0, 76, 127
2, 157594, Note_off_c, 0, 52, 0
2, 157594, Note_off_c, 0, 64, 0
2, 157645, Note_off_c, 0, 76, 0
2, 157696, Note_on_c, 0, 81, 127
2, 157696, Note_on_c, 0, 54, 127
2, 157952, Note_off_c, 0, 54, 0
2, 157952, Note_on_c, 0, 66, 127
2, 158208, Note_off_c, 0, 81, 0
2, 158208, Note_off_c, 0, 66, 0
2, 158208, Note_on_c, 0, 66, 127
2, 158413, Note_off_c, 0, 66, 0
2, 158464, Note_on_c, 0, 66, 127
2, 158669, Note_off_c, 0, 66, 0
2, 158720, Note_on_c, 0, 71, 127
2, 158720, Note_on_c, 0, 63, 127
2, 158976, Note_off_c, 0, 71, 0
2, 158976, Note_on_c, 0, 78, 127
2, 158976, Note_on_c, 0, 81, 127
2, 159232, Note_off_c, 0, 78, 0
2, 159232, Note_off_c, 0, 81, 0
2, 159232, Note_on_c, 0, 78, 127
2, 159232, Note_on_c, 0, 81, 127
2, 159488, Note_off_c, 0, 78, 0
2, 159488, Note_off_c, 0, 81, 0
2, 159488, Note_on_c, 0, 78, 127
2, 159488, Note_on_c, 0, 81, 127
2, 159744, Note_off_c, 0, 78, 0
2, 159744, Note_off_c, 0, 81, 0
2, 159744, Note_off_c, 0, 63, 0
2, 159744, Note_on_c, 0, 76, 127
2, 159744, Note_on_c, 0, 80, 127
2, 159744, Note_on_c, 0, 52, 127
2, 160000, Note_off_c, 0, 52, 0
2, 160000, Note_on_c, 0, 64, 127
2, 160256, Note_off_c, 0, 76, 0
2, 160256, Note_off_c, 0, 80, 0
2, 160256, Note_off_c, 0, 64, 0
2, 160256, Note_on_c, 0, 64, 127
2, 160461, Note_off_c, 0, 64, 0
2, 160512, Note_on_c, 0, 64, 127
2, 160717, Note_off_c, 0, 64, 0
2, 160768, Note_on_c, 0, 83, 127
2, 161024, Note_off_c, 0, 83, 0
2, 161024, Note_on_c, 0, 81, 127
2, 161280, Note_off_c, 0, 81, 0
2, 161280, Note_on_c, 0, 81, 127
2, 161280, Note_on_c, 0, 52, 127
2, 161280, Note_on_c, 0, 64, 127
2, 161536, Note_off_c, 0, 81, 0
2, 161536, Note_on_c, 0, 80, 127
2, 161690, Note_off_c, 0, 52, 0
2, 161690, Note_off_c, 0, 64, 0
2, 161792, Note_off_c, 0, 80, 0
2, 161792, Note_on_c, 0, 80, 127
2, 161792, Note_on_c, 0, 57, 127
2, 161792, Note_on_c, 0, 61, 127
2, 162048, Note_off_c, 0, 80, 0
2, 162048, Note_on_c, 0, 78, 127
2, 162304, Note_off_c, 0, 78, 0
2, 162304, Note_on_c, 0, 78, 127
2, 162304, Note_off_c, 0, 57, 0
2, 162304, Note_off_c, 0, 61, 0
2, 162304, Note_on_c, 0, 56, 127
2, 162304, Note_on_c, 0, 59, 127
2, 162560, Note_off_c, 0, 78, 0
2, 162560, Note_on_c, 0, 76, 127
2, 162816, Note_off_c, 0, 76, 0
2, 162816, Note_on_c, 0, 83, 62
2, 162816, Note_off_c, 0, 56, 0
2, 162816, Note_off_c, 0, 59, 0
2, 163072, Note_off_c, 0, 83, 0
2, 163072, Note_on_c, 0, 81, 62
2, 163328, Note_off_c, 0, 81, 0
2, 163328, Note_on_c, 0, 81, 62
2, 163328, Note_on_c, 0, 52, 62
2, 163328, Note_on_c, 0, 64, 62
2, 163584, Note_off_c, 0, 81, 0
2, 163584, Note_on_c, 0, 80, 62
2, 163738, Note_off_c, 0, 52, 0
2, 163738, Note_off_c, 0, 64, 0
2, 163840, Note_off_c, 0, 80, 0
2, 163840, Note_on_c, 0, 80, 62
2, 163840, Note_on_c, 0, 57, 62
2, 163840, Note_on_c, 0, 61, 62
2, 164096, Note_off_c, 0, 80, 0
2, 164096, Note_on_c, 0, 78, 62
2, 164352, Note_off_c, 0, 78, 0
2, 164352, Note_on_c, 0, 78, 62
2, 164352, Note_off_c, 0, 57, 0
2, 164352, Note_off_c, 0, 61, 0
2, 164352, Note_on_c, 0, 56, 62
2, 164352, Note_on_c, 0, 59, 62
2, 164608, Note_off_c, 0, 78, 0
2, 164608, Note_on_c, 0, 76, 62
2, 164864, Note_off_c, 0, 76, 0
2, 164864, Note_on_c, 0, 83, 127
2, 164864, Note_off_c, 0, 56, 0
2, 164864, Note_off_c, 0, 59, 0
2, 165120, Note_off_c, 0, 83, 0
2, 165120, Note_on_c, 0, 81, 127
2, 165376, Note_off_c, 0, 81, 0
2, 165376, Note_on_c, 0, 81, 127
2, 165376, Note_on_c, 0, 52, 127
2, 165376, Note_on_c, 0, 64, 127
2, 165632, Note_off_c, 0, 81, 0
2, 165632, Note_on_c, 0, 80, 127
2, 165786, Note_off_c, 0, 52, 0
2, 165786, Note_off_c, 0, 64, 0
2, 165888, Note_off_c, 0, 80, 0
2, 165888, Note_on_c, 0, 85, 127
2, 165888, Note_on_c, 0, 57, 127
2, 165888, Note_on_c, 0, 61, 127
2, 166144, Note_off_c, 0, 85, 0
2, 166144, Note_on_c, 0, 81, 127
2, 166400, Note_off_c, 0, 81, 0
2, 166400, Note_on_c, 0, 81, 127
2, 166656, Note_off_c, 0, 81, 0
2, 166656, Note_on_c, 0, 80, 127
2, 166707, Note_off_c, 0, 57, 0
2, 166707, Note_off_c, 0, 61, 0
2, 166912, Note_off_c, 0, 80, 0
2, 166912, Note_on_c, 0, 80, 127
2, 166912, Note_on_c, 0, 57, 127
2, 166912, Note_on_c, 0, 61, 127
2, 167168, Note_off_c, 0, 80, 0
2, 167168, Note_on_c, 0, 78, 127
2, 167322, Note_off_c, 0, 57, 0
2, 167322, Note_off_c, 0, 61, 0
2, 167424, Note_off_c, 0, 78, 0
2, 167424, Note_on_c, 0, 85, 127
2, 167424, Note_on_c, 0, 58, 127
2, 167424, Note_on_c, 0, 61, 127
2, 167680, Note_off_c, 0, 85, 0
2, 167680, Note_on_c, 0, 76, 127
2, 167834, Note_off_c, 0, 58, 0
2, 167834, Note_off_c, 0, 61, 0
2, 167936, Note_off_c, 0, 76, 0
2, 167936, Note_on_c, 0, 75, 127
2, 167936, Note_on_c, 0, 59, 127
2, 168107, Note_off_c, 0, 75, 0
2, 168107, Note_on_c, 0, 76, 127
2, 168277, Note_off_c, 0, 76, 0
2, 168277, Note_on_c, 0, 78, 127
2, 168346, Note_off_c, 0, 59, 0
2, 168448, Note_off_c, 0, 78, 0
2, 168448, Note_on_c, 0, 71, 127
2, 168448, Note_on_c, 0, 47, 127
2, 168858, Note_off_c, 0, 47, 0
2, 168960, Note_off_c, 0, 71, 0
2, 169984, Note_on_c, 0, 64, 101
2, 169984, Note_on_c, 0, 68, 101
2, 169984, Note_on_c, 0, 71, 101
2, 169984, Note_on_c, 0, 76, 101
2, 169984, Note_on_c, 0, 40, 101
2, 169984, Note_on_c, 0, 52, 101
2, 170752, Note_off_c, 0, 64, 0
2, 170752, Note_off_c, 0, 68, 0
2, 170752, Note_off_c, 0, 71, 0
2, 170752, Note_off_c, 0, 76, 0
2, 170752, Note_on_c, 0, 64, 62
2, 170752, Note_off_c, 0, 40, 0
2, 170752, Note_off_c, 0, 52, 0
2, 171008, Note_off_c, 0, 64, 0
2, 171008, Note_on_c, 0, 68, 62
2, 171008, Note_on_c, 0, 64, 62
2, 171418, Note_off_c, 0, 68, 0
2, 171418, Note_off_c, 0, 64, 0
2, 171520, Note_on_c, 0, 69, 62
2, 171520, Note_on_c, 0, 66, 62
2, 171930, Note_off_c, 0, 69, 0
2, 171930, Note_off_c, 0, 66, 0
2, 172032, Note_on_c, 0, 71, 62
2, 172032, Note_on_c, 0, 68, 62
2, 172160, Note_off_c, 0, 71, 0
2, 172160, Note_on_c, 0, 73, 62
2, 172288, Note_off_c, 0, 73, 0
2, 172288, Note_on_c, 0, 71, 62
2, 172800, Note_off_c, 0, 71, 0
2, 172800, Note_on_c, 0, 73, 62
2, 172800, Note_off_c, 0, 68, 0
2, 172800, Note_on_c, 0, 69, 62
2, 173056, Note_off_c, 0, 73, 0
2, 173056, Note_on_c, 0, 71, 62
2, 173056, Note_off_c, 0, 69, 0
2, 173056, Note_on_c, 0, 68, 62
2, 173568, Note_off_c, 0, 71, 0
2, 173568, Note_on_c, 0, 69, 75
2, 173568, Note_off_c, 0, 68, 0
2, 173568, Note_on_c, 0, 63, 75
2, 173696, Note_off_c, 0, 69, 0
2, 173696, Note_on_c, 0, 71, 75
2, 173824, Note_off_c, 0, 71, 0
2, 173824, Note_on_c, 0, 69, 75
2, 173952, Note_off_c, 0, 69, 0
2, 173952, Note_on_c, 0, 71, 75
2, 174080, Note_off_c, 0, 71, 0
2, 174080, Note_off_c, 0, 63, 0
2, 174080, Note_on_c, 0, 68, 75
2, 174080, Note_on_c, 0, 64, 75
2, 174592, Note_off_c, 0, 68, 0
2, 174592, Note_on_c, 0, 59, 75
2, 174592, Note_on_c, 0, 64, 75
2, 174592, Note_off_c, 0, 64, 0
2, 174592, Note_on_c, 0, 44, 75
2, 174592, Note_on_c, 0, 56, 75
2, 175002, Note_off_c, 0, 59, 0
2, 175002, Note_off_c, 0, 64, 0
2, 175002, Note_off_c, 0, 44, 0
2, 175002, Note_off_c, 0, 56, 0
2, 175104, Note_on_c, 0, 61, 75
2, 175104, Note_on_c, 0, 66, 75
2, 175104, Note_on_c, 0, 45, 75
2, 175104, Note_on_c, 0, 57, 75
2, 175514, Note_off_c, 0, 61, 0
2, 175514, Note_off_c, 0, 66, 0
2, 175514, Note_off_c, 0, 45, 0
2, 175514, Note_off_c, 0, 57, 0
2, 175616, Note_on_c, 0, 63, 75
2, 175616, Note_on_c, 0, 47, 75
2, 175616, Note_on_c, 0, 54, 75
2, 176026, Note_off_c, 0, 63, 0
2, 176026, Note_off_c, 0, 47, 0
2, 176026, Note_off_c, 0, 54, 0
2, 176128, Note_on_c, 0, 64, 75
2, 176128, Note_on_c, 0, 40, 75
2, 176128, Note_on_c, 0, 52, 75
2, 176299, Note_off_c, 0, 64, 0
2, 176299, Note_on_c, 0, 66, 75
2, 176469, Note_off_c, 0, 66, 0
2, 176469, Note_on_c, 0, 68, 75
2, 176640, Note_off_c, 0, 68, 0
2, 176640, Note_on_c, 0, 59, 75
2, 177152, Note_off_c, 0, 59, 0
2, 177152, Note_off_c, 0, 40, 0
2, 177152, Note_off_c, 0, 52, 0
2, 177280, Note_on_c, 0, 64, 75
2, 177408, Note_off_c, 0, 64, 0
2, 177408, Note_on_c, 0, 66, 75
2, 177536, Note_off_c, 0, 66, 0
2, 177536, Note_on_c, 0, 68, 75
2, 177664, Note_off_c, 0, 68, 0
2, 177664, Note_on_c, 0, 69, 75
2, 177792, Note_off_c, 0, 69, 0
2, 177792, Note_on_c, 0, 71, 75
2, 177920, Note_off_c, 0, 71, 0
2, 177920, Note_on_c, 0, 73, 75
2, 178048, Note_off_c, 0, 73, 0
2, 178048, Note_on_c, 0, 75, 75
2, 178176, Note_off_c, 0, 75, 0
2, 178176, Note_on_c, 0, 76, 101
2, 178176, Note_on_c, 0, 52, 101
2, 178176, Note_on_c, 0, 56, 101
2, 178176, Note_on_c, 0, 59, 101
2, 178944, Note_off_c, 0, 76, 0
2, 178944, Note_on_c, 0, 68, 62
2, 178944, Note_off_c, 0, 52, 0
2, 178944, Note_off_c, 0, 56, 0
2, 178944, Note_off_c, 0, 59, 0
2, 178944, Note_on_c, 0, 64, 62
2, 179200, Note_off_c, 0, 68, 0
2, 179200, Note_on_c, 0, 69, 62
2, 179200, Note_off_c, 0, 64, 0
2, 179200, Note_on_c, 0, 66, 62
2, 179610, Note_off_c, 0, 69, 0
2, 179610, Note_off_c, 0, 66, 0
2, 179712, Note_on_c, 0, 71, 62
2, 179712, Note_on_c, 0, 68, 62
2, 180122, Note_off_c, 0, 71, 0
2, 180122, Note_off_c, 0, 68, 0
2, 180224, Note_on_c, 0, 73, 62
2, 180224, Note_on_c, 0, 69, 62
2, 180352, Note_off_c, 0, 73, 0
2, 180352, Note_on_c, 0, 75, 62
2, 180480, Note_off_c, 0, 75, 0
2, 180480, Note_on_c, 0, 73, 62
2, 180634, Note_off_c, 0, 69, 0
2, 180736, Note_on_c, 0, 57, 62
2, 180992, Note_off_c, 0, 73, 0
2, 180992, Note_on_c, 0, 76, 62
2, 181146, Note_off_c, 0, 57, 0
2, 181248, Note_off_c, 0, 76, 0
2, 181248, Note_on_c, 0, 71, 62
2, 181248, Note_on_c, 0, 68, 62
2, 181658, Note_off_c, 0, 68, 0
2, 181760, Note_off_c, 0, 71, 0
2, 181760, Note_on_c, 0, 68, 62
2, 181760, Note_on_c, 0, 64, 62
2, 182170, Note_off_c, 0, 64, 0
2, 182272, Note_off_c, 0, 68, 0
2, 182272, Note_on_c, 0, 51, 62
2, 182528, Note_on_c, 0, 81, 62
2, 182682, Note_off_c, 0, 51, 0
2, 182784, Note_on_c, 0, 59, 62
2, 183040, Note_off_c, 0, 81, 0
2, 183040, Note_on_c, 0, 78, 62
2, 183194, Note_off_c, 0, 59, 0
2, 183296, Note_on_c, 0, 52, 62
2, 183552, Note_off_c, 0, 78, 0
2, 183552, Note_on_c, 0, 80, 62
2, 183706, Note_off_c, 0, 52, 0
2, 183808, Note_on_c, 0, 59, 62
2, 184064, Note_off_c, 0, 80, 0
2, 184064, Note_on_c, 0, 76, 62
2, 184218, Note_off_c, 0, 59, 0
2, 184320, Note_off_c, 0, 76, 0
2, 184320, Note_on_c, 0, 54, 62
2, 184576, Note_on_c, 0, 75, 62
2, 184730, Note_off_c, 0, 54, 0
2, 184832, Note_on_c, 0, 59, 62
2, 185088, Note_off_c, 0, 75, 0
2, 185088, Note_on_c, 0, 78, 62
2, 185242, Note_off_c, 0, 59, 0
2, 185344, Note_on_c, 0, 56, 62
2, 185600, Note_off_c, 0, 78, 0
2, 185600, Note_on_c, 0, 76, 62
2, 185754, Note_off_c, 0, 56, 0
2, 185856, Note_on_c, 0, 59, 62
2, 186112, Note_off_c, 0, 76, 0
2, 186112, Note_on_c, 0, 71, 62
2, 186266, Note_off_c, 0, 59, 0
2, 186368, Note_off_c, 0, 71, 0
2, 186368, Note_on_c, 0, 57, 88
2, 186624, Note_on_c, 0, 73, 88
2, 186778, Note_off_c, 0, 57, 0
2, 186880, Note_on_c, 0, 64, 88
2, 187136, Note_off_c, 0, 73, 0
2, 187136, Note_on_c, 0, 75, 88
2, 187290, Note_off_c, 0, 64, 0
2, 187392, Note_on_c, 0, 56, 88
2, 187648, Note_off_c, 0, 75, 0
2, 187648, Note_on_c, 0, 76, 88
2, 187802, Note_off_c, 0, 56, 0
2, 187904, Note_on_c, 0, 64, 88
2, 188160, Note_off_c, 0, 76, 0
2, 188160, Note_on_c, 0, 71, 88
2, 188314, Note_off_c, 0, 64, 0
2, 188416, Note_off_c, 0, 71, 0
2, 188416, Note_on_c, 0, 54, 88
2, 188672, Note_on_c, 0, 69, 88
2, 188826, Note_off_c, 0, 54, 0
2, 188928, Note_on_c, 0, 63, 88
2, 189184, Note_off_c, 0, 69, 0
2, 189184, Note_on_c, 0, 66, 88
2, 189338, Note_off_c, 0, 63, 0
2, 189440, Note_on_c, 0, 64, 88
2, 189696, Note_off_c, 0, 66, 0
2, 189696, Note_on_c, 0, 68, 88
2, 189850, Note_off_c, 0, 64, 0
2, 189952, Note_on_c, 0, 52, 88
2, 190208, Note_off_c, 0, 68, 0
2, 190208, Note_on_c, 0, 64, 88
2, 190362, Note_off_c, 0, 52, 0
2, 190464, Note_off_c, 0, 64, 0
2, 190464, Note_on_c, 0, 45, 88
2, 190464, Note_on_c, 0, 57, 88
2, 190720, Note_on_c, 0, 66, 88
2, 190976, Note_off_c, 0, 66, 0
2, 190976, Note_on_c, 0, 65, 88
2, 191232, Note_off_c, 0, 65, 0
2, 191232, Note_on_c, 0, 66, 88
2, 191488, Note_off_c, 0, 66, 0
2, 191488, Note_on_c, 0, 73, 88
2, 191488, Note_off_c, 0, 45, 0
2, 191488, Note_off_c, 0, 57, 0
2, 191488, Note_on_c, 0, 54, 88
2, 191659, Note_off_c, 0, 73, 0
2, 191659, Note_on_c, 0, 71, 88
2, 191829, Note_off_c, 0, 71, 0
2, 191829, Note_on_c, 0, 69, 88
2, 191898, Note_off_c, 0, 54, 0
2, 192000, Note_off_c, 0, 69, 0
2, 192000, Note_on_c, 0, 68, 88
2, 192000, Note_on_c, 0, 58, 88
2, 192171, Note_off_c, 0, 68, 0
2, 192171, Note_on_c, 0, 66, 88
2, 192341, Note_off_c, 0, 66, 0
2, 192341, Note_on_c, 0, 64, 88
2, 192410, Note_off_c, 0, 58, 0
2, 192512, Note_off_c, 0, 64, 0
2, 192512, Note_on_c, 0, 63, 88
2, 192512, Note_on_c, 0, 59, 88
2, 192683, Note_off_c, 0, 63, 0
2, 192683, Note_on_c, 0, 64, 88
2, 192853, Note_off_c, 0, 64, 0
2, 192853, Note_on_c, 0, 66, 88
2, 192922, Note_off_c, 0, 59, 0
2, 193024, Note_off_c, 0, 66, 0
2, 193024, Note_on_c, 0, 59, 88
2, 193024, Note_on_c, 0, 47, 88
2, 193434, Note_off_c, 0, 47, 0
2, 193536, Note_off_c, 0, 59, 0
2, 193536, Note_on_c, 0, 59, 62
2, 193792, Note_off_c, 0, 59, 0
2, 193792, Note_on_c, 0, 56, 62
2, 194048, Note_off_c, 0, 56, 0
2, 194048, Note_on_c, 0, 57, 62
2, 194304, Note_off_c, 0, 57, 0
2, 194304, Note_on_c, 0, 54, 62
2, 194560, Note_off_c, 0, 54, 0
2, 194560, Note_on_c, 0, 71, 62
2, 194560, Note_on_c, 0, 56, 62
2, 194816, Note_off_c, 0, 71, 0
2, 194816, Note_on_c, 0, 76, 62
2, 195072, Note_off_c, 0, 76, 0
2, 195072, Note_on_c, 0, 76, 62
2, 195277, Note_off_c, 0, 76, 0
2, 195328, Note_on_c, 0, 76, 62
2, 195533, Note_off_c, 0, 76, 0
2, 195584, Note_on_c, 0, 76, 62
2, 195840, Note_off_c, 0, 76, 0
2, 195840, Note_on_c, 0, 74, 62
2, 195840, Note_on_c, 0, 64, 62
2, 196096, Note_off_c, 0, 74, 0
2, 196096, Note_on_c, 0, 73, 62
2, 196096, Note_off_c, 0, 64, 0
2, 196096, Note_on_c, 0, 64, 62
2, 196352, Note_off_c, 0, 73, 0
2, 196352, Note_on_c, 0, 71, 62
2, 196352, Note_off_c, 0, 64, 0
2, 196352, Note_on_c, 0, 64, 62
2, 196608, Note_off_c, 0, 71, 0
2, 196608, Note_off_c, 0, 64, 0
2, 196608, Note_off_c, 0, 56, 0
2, 196608, Note_on_c, 0, 73, 62
2, 196608, Note_on_c, 0, 64, 62
2, 196608, Note_on_c, 0, 57, 62
2, 196864, Note_off_c, 0, 73, 0
2, 196864, Note_on_c, 0, 76, 62
2, 197018, Note_off_c, 0, 57, 0
2, 197120, Note_off_c, 0, 76, 0
2, 197120, Note_on_c, 0, 68, 62
2, 197120, Note_on_c, 0, 59, 62
2, 197376, Note_off_c, 0, 68, 0
2, 197376, Note_on_c, 0, 71, 62
2, 197530, Note_off_c, 0, 59, 0
2, 197632, Note_off_c, 0, 71, 0
2, 197632, Note_on_c, 0, 69, 62
2, 197632, Note_on_c, 0, 61, 62
2, 197888, Note_off_c, 0, 69, 0
2, 197888, Note_on_c, 0, 73, 62
2, 198042, Note_off_c, 0, 61, 0
2, 198144, Note_off_c, 0, 73, 0
2, 198144, Note_on_c, 0, 71, 62
2, 198144, Note_on_c, 0, 56, 62
2, 198400, Note_off_c, 0, 71, 0
2, 198400, Note_on_c, 0, 74, 62
2, 198554, Note_off_c, 0, 56, 0
2, 198656, Note_off_c, 0, 74, 0
2, 198656, Note_off_c, 0, 64, 0
2, 198656, Note_on_c, 0, 73, 62
2, 198656, Note_on_c, 0, 64, 62
2, 198656, Note_on_c, 0, 57, 62
2, 198912, Note_off_c, 0, 73, 0
2, 198912, Note_on_c, 0, 76, 62
2, 199066, Note_off_c, 0, 57, 0
2, 199168, Note_off_c, 0, 76, 0
2, 199168, Note_on_c, 0, 68, 62
2, 199168, Note_on_c, 0, 59, 62
2, 199424, Note_off_c, 0, 68, 0
2, 199424, Note_on_c, 0, 71, 62
2, 199578, Note_off_c, 0, 59, 0
2, 199680, Note_off_c, 0, 71, 0
2, 199680, Note_on_c, 0, 69, 62
2, 199680, Note_on_c, 0, 61, 62
2, 199936, Note_off_c, 0, 69, 0
2, 199936, Note_on_c, 0, 73, 62
2, 200090, Note_off_c, 0, 61, 0
2, 200192, Note_off_c, 0, 73, 0
2, 200192, Note_on_c, 0, 71, 62
2, 200192, Note_on_c, 0, 56, 62
2, 200448, Note_off_c, 0, 71, 0
2, 200448, Note_on_c, 0, 74, 62
2, 200602, Note_off_c, 0, 56, 0
2, 200704, Note_off_c, 0, 74, 0
2, 200704, Note_off_c, 0, 64, 0
2, 200704, Note_on_c, 0, 73, 62
2, 200704, Note_on_c, 0, 57, 62
2, 200960, Note_off_c, 0, 73, 0
2, 200960, Note_on_c, 0, 78, 62
2, 201216, Note_off_c, 0, 78, 0
2, 201216, Note_on_c, 0, 78, 62
2, 201421, Note_off_c, 0, 78, 0
2, 201472, Note_on_c, 0, 78, 62
2, 201523, Note_off_c, 0, 57, 0
2, 201677, Note_off_c, 0, 78, 0
2, 201728, Note_on_c, 0, 78, 68
2, 201728, Note_on_c, 0, 58, 68
2, 201984, Note_off_c, 0, 78, 0
2, 201984, Note_on_c, 0, 76, 68
2, 201984, Note_on_c, 0, 66, 68
2, 202240, Note_off_c, 0, 76, 0
2, 202240, Note_on_c, 0, 75, 74
2, 202240, Note_off_c, 0, 66, 0
2, 202240, Note_on_c, 0, 66, 74
2, 202496, Note_off_c, 0, 75, 0
2, 202496, Note_on_c, 0, 73, 74
2, 202496, Note_off_c, 0, 66, 0
2, 202496, Note_on_c, 0, 66, 74
2, 202547, Note_off_c, 0, 58, 0
2, 202752, Note_off_c, 0, 73, 0
2, 202752, Note_off_c, 0, 66, 0
2, 202752, Note_on_c, 0, 75, 80
2, 202752, Note_on_c, 0, 66, 80
2, 202752, Note_on_c, 0, 59, 80
2, 203008, Note_off_c, 0, 75, 0
2, 203008, Note_on_c, 0, 78, 80
2, 203162, Note_off_c, 0, 59, 0
2, 203264, Note_off_c, 0, 78, 0
2, 203264, Note_on_c, 0, 70, 88
2, 203264, Note_on_c, 0, 61, 88
2, 203520, Note_off_c, 0, 70, 0
2, 203520, Note_on_c, 0, 73, 88
2, 203674, Note_off_c, 0, 61, 0
2, 203776, Note_off_c, 0, 73, 0
2, 203776, Note_on_c, 0, 71, 94
2, 203776, Note_on_c, 0, 63, 94
2, 204032, Note_off_c, 0, 71, 0
2, 204032, Note_on_c, 0, 75, 94
2, 204186, Note_off_c, 0, 63, 0
2, 204288, Note_off_c, 0, 75, 0
2, 204288, Note_on_c, 0, 73, 100
2, 204288, Note_on_c, 0, 58, 100
2, 204544, Note_off_c, 0, 73, 0
2, 204544, Note_on_c, 0, 76, 100
2, 204698, Note_off_c, 0, 58, 0
2, 204800, Note_off_c, 0, 76, 0
2, 204800, Note_off_c, 0, 66, 0
2, 204800, Note_on_c, 0, 75, 106
2, 204800, Note_on_c, 0, 66, 106
2, 204800, Note_on_c, 0, 59, 106
2, 205056, Note_off_c, 0, 75, 0
2, 205056, Note_on_c, 0, 78, 106
2, 205210, Note_off_c, 0, 59, 0
2, 205312, Note_off_c, 0, 78, 0
2, 205312, Note_on_c, 0, 70, 106
2, 205312, Note_on_c, 0, 61, 106
2, 205568, Note_off_c, 0, 70, 0
2, 205568, Note_on_c, 0, 73, 106
2, 205722, Note_off_c, 0, 61, 0
2, 205824, Note_off_c, 0, 73, 0
2, 205824, Note_on_c, 0, 71, 106
2, 205824, Note_on_c, 0, 63, 106
2, 206080, Note_off_c, 0, 71, 0
2, 206080, Note_on_c, 0, 75, 106
2, 206234, Note_off_c, 0, 63, 0
2, 206336, Note_off_c, 0, 75, 0
2, 206336, Note_on_c, 0, 73, 106
2, 206336, Note_on_c, 0, 58, 106
2, 206592, Note_off_c, 0, 73, 0
2, 206592, Note_on_c, 0, 76, 106
2, 206746, Note_off_c, 0, 58, 0
2, 206848, Note_off_c, 0, 76, 0
2, 206848, Note_off_c, 0, 66, 0
2, 206848, Note_on_c, 0, 75, 106
2, 206848, Note_on_c, 0, 59, 106
2, 207104, Note_off_c, 0, 75, 0
2, 207104, Note_on_c, 0, 78, 106
2, 207258, Note_off_c, 0, 59, 0
2, 207360, Note_off_c, 0, 78, 0
2, 207360, Note_on_c, 0, 76, 106
2, 207360, Note_on_c, 0, 61, 106
2, 207616, Note_off_c, 0, 76, 0
2, 207616, Note_on_c, 0, 80, 106
2, 207770, Note_off_c, 0, 61, 0
2, 207872, Note_off_c, 0, 80, 0
2, 207872, Note_on_c, 0, 78, 106
2, 207872, Note_on_c, 0, 63, 106
2, 208128, Note_off_c, 0, 78, 0
2, 208128, Note_on_c, 0, 81, 106
2, 208282, Note_off_c, 0, 63, 0
2, 208384, Note_off_c, 0, 81, 0
2, 208384, Note_on_c, 0, 80, 106
2, 208384, Note_on_c, 0, 64, 106
2, 208640, Note_off_c, 0, 80, 0
2, 208640, Note_on_c, 0, 83, 106
2, 208794, Note_off_c, 0, 64, 0
2, 208896, Note_off_c, 0, 83, 0
2, 208896, Note_on_c, 0, 83, 114
2, 208896, Note_on_c, 0, 54, 114
2, 208896, Note_on_c, 0, 66, 114
2, 209152, Note_off_c, 0, 83, 0
2, 209152, Note_on_c, 0, 81, 114
2, 209306, Note_off_c, 0, 54, 0
2, 209306, Note_off_c, 0, 66, 0
2, 209408, Note_off_c, 0, 81, 0
2, 209408, Note_on_c, 0, 81, 114
2, 209408, Note_on_c, 0, 52, 114
2, 209408, Note_on_c, 0, 64, 114
2, 209664, Note_off_c, 0, 81, 0
2, 209664, Note_on_c, 0, 80, 114
2, 209818, Note_off_c, 0, 52, 0
2, 209818, Note_off_c, 0, 64, 0
2, 209920, Note_off_c, 0, 80, 0
2, 209920, Note_on_c, 0, 80, 114
2, 209920, Note_on_c, 0, 51, 114
2, 209920, Note_on_c, 0, 63, 114
2, 210176, Note_off_c, 0, 80, 0
2, 210176, Note_on_c, 0, 78, 114
2, 210330, Note_off_c, 0, 51, 0
2, 210330, Note_off_c, 0, 63, 0
2, 210432, Note_off_c, 0, 78, 0
2, 210432, Note_on_c, 0, 78, 114
2, 210432, Note_on_c, 0, 49, 114
2, 210432, Note_on_c, 0, 61, 114
2, 210688, Note_off_c, 0, 78, 0
2, 210688, Note_on_c, 0, 76, 114
2, 210842, Note_off_c, 0, 49, 0
2, 210842, Note_off_c, 0, 61, 0
2, 210944, Note_off_c, 0, 76, 0
2, 210944, Note_on_c, 0, 76, 114
2, 210944, Note_on_c, 0, 59, 114
2, 211200, Note_off_c, 0, 76, 0
2, 211200, Note_on_c, 0, 75, 114
2, 211354, Note_off_c, 0, 59, 0
2, 211456, Note_off_c, 0, 75, 0
2, 211456, Note_on_c, 0, 75, 114
2, 211456, Note_on_c, 0, 57, 114
2, 211712, Note_off_c, 0, 75, 0
2, 211712, Note_on_c, 0, 73, 114
2, 211866, Note_off_c, 0, 57, 0
2, 211968, Note_off_c, 0, 73, 0
2, 211968, Note_on_c, 0, 73, 114
2, 211968, Note_on_c, 0, 56, 114
2, 212224, Note_off_c, 0, 73, 0
2, 212224, Note_on_c, 0, 71, 114
2, 212378, Note_off_c, 0, 56, 0
2, 212480, Note_off_c, 0, 71, 0
2, 212480, Note_on_c, 0, 71, 114
2, 212480, Note_on_c, 0, 54, 114
2, 212736, Note_off_c, 0, 71, 0
2, 212736, Note_on_c, 0, 69, 114
2, 212890, Note_off_c, 0, 54, 0
2, 212992, Note_off_c, 0, 69, 0
2, 212992, Note_on_c, 0, 68, 114
2, 212992, Note_on_c, 0, 52, 114
2, 213163, Note_off_c, 0, 68, 0
2, 213163, Note_on_c, 0, 69, 114
2, 213333, Note_off_c, 0, 69, 0
2, 213333, Note_on_c, 0, 71, 114
2, 213504, Note_off_c, 0, 71, 0
2, 213504, Note_on_c, 0, 64, 114
2, 213675, Note_off_c, 0, 64, 0
2, 213675, Note_on_c, 0, 69, 114
2, 213811, Note_off_c, 0, 52, 0
2, 213845, Note_off_c, 0, 69, 0
2, 213845, Note_on_c, 0, 66, 114
2, 214016, Note_off_c, 0, 66, 0
2, 214016, Note_on_c, 0, 66, 114
2, 214016, Note_on_c, 0, 59, 114
2, 214144, Note_off_c, 0, 66, 0
2, 214144, Note_on_c, 0, 68, 114
2, 214272, Note_off_c, 0, 68, 0
2, 214272, Note_on_c, 0, 66, 114
2, 214400, Note_off_c, 0, 66, 0
2, 214400, Note_on_c, 0, 68, 114
2, 214426, Note_off_c, 0, 59, 0
2, 214528, Note_off_c, 0, 68, 0
2, 214528, Note_on_c, 0, 66, 114
2, 214528, Note_on_c, 0, 47, 114
2, 214656, Note_off_c, 0, 66, 0
2, 214656, Note_on_c, 0, 68, 114
2, 214784, Note_off_c, 0, 68, 0
2, 214784, Note_on_c, 0, 66, 114
2, 214938, Note_off_c, 0, 47, 0
2, 215040, Note_off_c, 0, 66, 0
2, 215040, Note_on_c, 0, 64, 114
2, 215040, Note_on_c, 0, 52, 114
2, 215450, Note_off_c, 0, 52, 0
2, 215552, Note_on_c, 0, 40, 114
2, 215808, Note_off_c, 0, 64, 0
2, 215808, Note_on_c, 0, 71, 75
2, 215962, Note_off_c, 0, 40, 0
2, 216064, Note_off_c, 0, 71, 0
2, 216064, Note_on_c, 0, 64, 75
2, 216576, Note_off_c, 0, 64, 0
2, 216576, Note_on_c, 0, 66, 75
2, 217088, Note_off_c, 0, 66, 0
2, 217088, Note_on_c, 0, 68, 75
2, 217088, Note_on_c, 0, 64, 75
2, 217088, Note_on_c, 0, 35, 75
2, 217088, Note_on_c, 0, 47, 75
2, 217600, Note_off_c, 0, 68, 0
2, 217600, Note_on_c, 0, 66, 75
2, 217600, Note_off_c, 0, 64, 0
2, 217600, Note_on_c, 0, 63, 75
2, 217984, Note_off_c, 0, 66, 0
2, 217984, Note_on_c, 0, 71, 75
2, 218112, Note_off_c, 0, 71, 0
2, 218112, Note_on_c, 0, 66, 75
2, 218112, Note_off_c, 0, 63, 0
2, 218112, Note_on_c, 0, 63, 75
2, 218112, Note_off_c, 0, 35, 0
2, 218112, Note_off_c, 0, 47, 0
2, 218624, Note_off_c, 0, 66, 0
2, 218624, Note_on_c, 0, 68, 75
2, 218624, Note_off_c, 0, 63, 0
2, 218624, Note_on_c, 0, 64, 75
2, 219136, Note_off_c, 0, 68, 0
2, 219136, Note_off_c, 0, 64, 0
2, 219136, Note_on_c, 0, 69, 75
2, 219136, Note_on_c, 0, 66, 75
2, 219136, Note_on_c, 0, 35, 75
2, 219136, Note_on_c, 0, 47, 75
2, 219546, Note_off_c, 0, 35, 0
2, 219546, Note_off_c, 0, 47, 0
2, 219648, Note_off_c, 0, 69, 0
2, 219648, Note_on_c, 0, 68, 75
2, 219648, Note_off_c, 0, 66, 0
2, 219648, Note_on_c, 0, 64, 75
2, 219648, Note_on_c, 0, 40, 75
2, 219648, Note_on_c, 0, 52, 75
2, 220032, Note_off_c, 0, 68, 0
2, 220032, Note_on_c, 0, 71, 75
2, 220058, Note_off_c, 0, 40, 0
2, 220058, Note_off_c, 0, 52, 0
2, 220160, Note_off_c, 0, 71, 0
2, 220160, Note_on_c, 0, 68, 75
2, 220160, Note_off_c, 0, 64, 0
2, 220160, Note_on_c, 0, 64, 75
2, 220672, Note_off_c, 0, 68, 0
2, 220672, Note_on_c, 0, 69, 75
2, 220672, Note_off_c, 0, 64, 0
2, 220672, Note_on_c, 0, 66, 75
2, 221184, Note_off_c, 0, 69, 0
2, 221184, Note_off_c, 0, 66, 0
2, 221184, Note_on_c, 0, 68, 75
2, 221184, Note_on_c, 0, 71, 75
2, 221184, Note_on_c, 0, 40, 75
2, 221184, Note_on_c, 0, 52, 75
2, 221696, Note_off_c, 0, 68, 0
2, 221696, Note_off_c, 0, 71, 0
2, 221696, Note_on_c, 0, 68, 75
2, 221696, Note_on_c, 0, 71, 75
2, 221696, Note_on_c, 0, 76, 75
2, 222003, Note_off_c, 0, 40, 0
2, 222003, Note_off_c, 0, 52, 0
2, 222208, Note_off_c, 0, 68, 0
2, 222208, Note_off_c, 0, 71, 0
2, 222208, Note_off_c, 0, 76, 0
2, 222208, Note_on_c, 0, 44, 75
2, 222208, Note_on_c, 0, 56, 75
2, 222720, Note_on_c, 0, 64, 75
2, 222720, Note_on_c, 0, 68, 75
2, 222720, Note_on_c, 0, 71, 75
2, 223027, Note_off_c, 0, 44, 0
2, 223027, Note_off_c, 0, 56, 0
2, 223232, Note_off_c, 0, 64, 0
2, 223232, Note_off_c, 0, 68, 0
2, 223232, Note_off_c, 0, 71, 0
2, 223232, Note_on_c, 0, 45, 75
2, 223232, Note_on_c, 0, 57, 75
2, 223488, Note_on_c, 0, 73, 75
2, 223642, Note_off_c, 0, 45, 0
2, 223642, Note_off_c, 0, 57, 0
2, 223744, Note_on_c, 0, 61, 75
2, 224000, Note_off_c, 0, 73, 0
2, 224000, Note_on_c, 0, 69, 75
2, 224154, Note_off_c, 0, 61, 0
2, 224256, Note_on_c, 0, 59, 75
2, 224512, Note_off_c, 0, 69, 0
2, 224512, Note_on_c, 0, 68, 75
2, 224666, Note_off_c, 0, 59, 0
2, 224768, Note_on_c, 0, 63, 75
2, 225024, Note_off_c, 0, 68, 0
2, 225024, Note_on_c, 0, 66, 75
2, 225178, Note_off_c, 0, 63, 0
2, 225280, Note_off_c, 0, 66, 0
2, 225280, Note_on_c, 0, 68, 75
2, 225280, Note_on_c, 0, 64, 75
2, 225792, Note_off_c, 0, 68, 0
2, 225792, Note_on_c, 0, 68, 75
2, 225792, Note_on_c, 0, 71, 75
2, 225792, Note_on_c, 0, 76, 75
2, 226304, Note_off_c, 0, 68, 0
2, 226304, Note_off_c, 0, 71, 0
2, 226304, Note_off_c, 0, 76, 0
2, 226304, Note_off_c, 0, 64, 0
2, 226304, Note_on_c, 0, 56, 75
2, 226304, Note_on_c, 0, 59, 75
2, 226304, Note_on_c, 0, 64, 75
2, 226816, Note_on_c, 0, 76, 75
2, 226816, Note_on_c, 0, 80, 75
2, 226816, Note_on_c, 0, 83, 75
2, 227328, Note_off_c, 0, 76, 0
2, 227328, Note_off_c, 0, 80, 0
2, 227328, Note_off_c, 0, 83, 0
2, 227328, Note_off_c, 0, 56, 0
2, 227328, Note_off_c, 0, 59, 0
2, 227328, Note_off_c, 0, 64, 0
2, 227328, Note_on_c, 0, 81, 88
2, 227328, Note_on_c, 0, 54, 88
2, 227328, Note_on_c, 0, 63, 88
2, 227499, Note_off_c, 0, 81, 0
2, 227499, Note_on_c, 0, 80, 88
2, 227669, Note_off_c, 0, 80, 0
2, 227669, Note_on_c, 0, 78, 88
2, 227738, Note_off_c, 0, 54, 0
2, 227738, Note_off_c, 0, 63, 0
2, 227840, Note_off_c, 0, 78, 0
2, 227840, Note_on_c, 0, 80, 88
2, 227840, Note_on_c, 0, 52, 88
2, 227840, Note_on_c, 0, 64, 88
2, 228011, Note_off_c, 0, 80, 0
2, 228011, Note_on_c, 0, 78, 88
2, 228181, Note_off_c, 0, 78, 0
2, 228181, Note_on_c, 0, 76, 88
2, 228250, Note_off_c, 0, 52, 0
2, 228250, Note_off_c, 0, 64, 0
2, 228352, Note_off_c, 0, 76, 0
2, 228352, Note_on_c, 0, 78, 88
2, 228352, Note_on_c, 0, 57, 88
2, 228352, Note_on_c, 0, 64, 88
2, 228480, Note_off_c, 0, 78, 0
2, 228480, Note_on_c, 0, 80, 88
2, 228608, Note_off_c, 0, 80, 0
2, 228608, Note_on_c, 0, 78, 88
2, 228736, Note_off_c, 0, 78, 0
2, 228736, Note_on_c, 0, 80, 88
2, 228762, Note_off_c, 0, 57, 0
2, 228762, Note_off_c, 0, 64, 0
2, 228864, Note_off_c, 0, 80, 0
2, 228864, Note_on_c, 0, 78, 88
2, 228864, Note_on_c, 0, 59, 88
2, 228864, Note_on_c, 0, 63, 88
2, 228992, Note_off_c, 0, 78, 0
2, 228992, Note_on_c, 0, 80, 88
2, 229120, Note_off_c, 0, 80, 0
2, 229120, Note_on_c, 0, 78, 88
2, 229274, Note_off_c, 0, 59, 0
2, 229274, Note_off_c, 0, 63, 0
2, 229376, Note_off_c, 0, 78, 0
2, 229376, Note_on_c, 0, 80, 101
2, 229376, Note_on_c, 0, 52, 101
2, 229376, Note_on_c, 0, 64, 101
2, 229547, Note_off_c, 0, 80, 0
2, 229547, Note_on_c, 0, 78, 101
2, 229717, Note_off_c, 0, 78, 0
2, 229717, Note_on_c, 0, 76, 101
2, 229888, Note_off_c, 0, 76, 0
2, 229888, Note_on_c, 0, 75, 101
2, 230059, Note_off_c, 0, 75, 0
2, 230059, Note_on_c, 0, 73, 101
2, 230229, Note_off_c, 0, 73, 0
2, 230229, Note_on_c, 0, 71, 101
2, 230400, Note_off_c, 0, 71, 0
2, 230400, Note_on_c, 0, 78, 101
2, 230400, Note_off_c, 0, 52, 0
2, 230400, Note_off_c, 0, 64, 0
2, 230400, Note_on_c, 0, 57, 101
2, 230400, Note_on_c, 0, 64, 101
2, 230528, Note_off_c, 0, 78, 0
2, 230528, Note_on_c, 0, 80, 101
2, 230656, Note_off_c, 0, 80, 0
2, 230656, Note_on_c, 0, 78, 101
2, 230784, Note_off_c, 0, 78, 0
2, 230784, Note_on_c, 0, 80, 101
2, 230912, Note_off_c, 0, 80, 0
2, 230912, Note_on_c, 0, 78, 101
2, 230912, Note_off_c, 0, 57, 0
2, 230912, Note_off_c, 0, 64, 0
2, 230912, Note_on_c, 0, 59, 101
2, 230912, Note_on_c, 0, 63, 101
2, 231040, Note_off_c, 0, 78, 0
2, 231040, Note_on_c, 0, 80, 101
2, 231168, Note_off_c, 0, 80, 0
2, 231168, Note_on_c, 0, 78, 101
2, 231424, Note_off_c, 0, 78, 0
2, 231424, Note_off_c, 0, 59, 0
2, 231424, Note_off_c, 0, 63, 0
2, 231424, Note_on_c, 0, 76, 101
2, 231424, Note_on_c, 0, 64, 101
2, 231680, Note_off_c, 0, 64, 0
2, 231936, Note_on_c, 0, 59, 101
2, 232192, Note_off_c, 0, 59, 0
2, 232448, Note_off_c, 0, 76, 0
2, 232448, Note_on_c, 0, 52, 101
2, 233472, Note_off_c, 0, 52, 0
2, 233472, Note_on_c, 0, 71, 62
2, 233472, Note_on_c, 0, 47, 62
2, 233472, Note_on_c, 0, 59, 62
2, 233728, Note_off_c, 0, 71, 0
2, 233728, Note_on_c, 0, 83, 62
2, 233984, Note_off_c, 0, 83, 0
2, 233984, Note_on_c, 0, 83, 62
2, 234189, Note_off_c, 0, 83, 0
2, 234240, Note_on_c, 0, 83, 62
2, 234445, Note_off_c, 0, 83, 0
2, 234496, Note_on_c, 0, 83, 62
2, 234496, Note_off_c, 0, 47, 0
2, 234496, Note_off_c, 0, 59, 0
2, 234752, Note_off_c, 0, 83, 0
2, 234752, Note_on_c, 0, 80, 62
2, 235008, Note_off_c, 0, 80, 0
2, 235008, Note_on_c, 0, 81, 62
2, 235264, Note_off_c, 0, 81, 0
2, 235264, Note_on_c, 0, 78, 62
2, 235520, Note_off_c, 0, 78, 0
2, 235520, Note_on_c, 0, 80, 62
2, 235520, Note_on_c, 0, 59, 62
2, 235725, Note_off_c, 0, 80, 0
2, 235776, Note_on_c, 0, 80, 62
2, 235776, Note_on_c, 0, 71, 62
2, 235981, Note_off_c, 0, 80, 0
2, 235981, Note_off_c, 0, 71, 0
2, 236032, Note_on_c, 0, 80, 62
2, 236032, Note_on_c, 0, 71, 62
2, 236237, Note_off_c, 0, 80, 0
2, 236237, Note_off_c, 0, 71, 0
2, 236288, Note_on_c, 0, 80, 62
2, 236288, Note_on_c, 0, 71, 62
2, 236493, Note_off_c, 0, 80, 0
2, 236493, Note_off_c, 0, 71, 0
2, 236544, Note_on_c, 0, 80, 62
2, 236544, Note_on_c, 0, 71, 62
2, 236800, Note_off_c, 0, 80, 0
2, 236800, Note_on_c, 0, 76, 62
2, 236800, Note_off_c, 0, 71, 0
2, 236800, Note_on_c, 0, 68, 62
2, 237056, Note_off_c, 0, 76, 0
2, 237056, Note_on_c, 0, 78, 62
2, 237056, Note_off_c, 0, 68, 0
2, 237056, Note_on_c, 0, 69, 62
2, 237312, Note_off_c, 0, 78, 0
2, 237312, Note_on_c, 0, 75, 62
2, 237312, Note_off_c, 0, 69, 0
2, 237312, Note_on_c, 0, 66, 62
2, 237568, Note_off_c, 0, 75, 0
2, 237568, Note_off_c, 0, 66, 0
2, 237568, Note_off_c, 0, 59, 0
2, 237568, Note_on_c, 0, 76, 62
2, 237568, Note_on_c, 0, 68, 62
2, 237568, Note_on_c, 0, 59, 62
2, 237824, Note_off_c, 0, 76, 0
2, 237824, Note_on_c, 0, 80, 62
2, 237978, Note_off_c, 0, 68, 0
2, 238080, Note_off_c, 0, 80, 0
2, 238080, Note_on_c, 0, 78, 62
2, 238080, Note_on_c, 0, 63, 62
2, 238336, Note_off_c, 0, 78, 0
2, 238336, Note_on_c, 0, 81, 62
2, 238490, Note_off_c, 0, 63, 0
2, 238592, Note_off_c, 0, 81, 0
2, 238592, Note_on_c, 0, 80, 62
2, 238592, Note_on_c, 0, 64, 62
2, 238848, Note_off_c, 0, 80, 0
2, 238848, Note_on_c, 0, 83, 62
2, 239002, Note_off_c, 0, 64, 0
2, 239104, Note_off_c, 0, 83, 0
2, 239104, Note_on_c, 0, 75, 62
2, 239104, Note_on_c, 0, 66, 62
2, 239360, Note_off_c, 0, 75, 0
2, 239360, Note_on_c, 0, 78, 62
2, 239360, Note_off_c, 0, 66, 0
2, 239360, Note_on_c, 0, 69, 62
2, 239616, Note_off_c, 0, 78, 0
2, 239616, Note_off_c, 0, 69, 0
2, 239616, Note_off_c, 0, 59, 0
2, 239616, Note_on_c, 0, 76, 62
2, 239616, Note_on_c, 0, 68, 62
2, 239616, Note_on_c, 0, 59, 62
2, 239872, Note_off_c, 0, 76, 0
2, 239872, Note_on_c, 0, 80, 62
2, 240026, Note_off_c, 0, 68, 0
2, 240128, Note_off_c, 0, 80, 0
2, 240128, Note_on_c, 0, 78, 62
2, 240128, Note_on_c, 0, 63, 62
2, 240384, Note_off_c, 0, 78, 0
2, 240384, Note_on_c, 0, 81, 62
2, 240538, Note_off_c, 0, 63, 0
2, 240640, Note_off_c, 0, 81, 0
2, 240640, Note_on_c, 0, 80, 62
2, 240640, Note_on_c, 0, 64, 62
2, 240896, Note_off_c, 0, 80, 0
2, 240896, Note_on_c, 0, 83, 62
2, 241050, Note_off_c, 0, 64, 0
2, 241152, Note_off_c, 0, 83, 0
2, 241152, Note_on_c, 0, 75, 62
2, 241152, Note_on_c, 0, 66, 62
2, 241408, Note_off_c, 0, 75, 0
2, 241408, Note_on_c, 0, 78, 62
2, 241408, Note_off_c, 0, 66, 0
2, 241408, Note_on_c, 0, 69, 62
2, 241664, Note_off_c, 0, 78, 0
2, 241664, Note_off_c, 0, 69, 0
2, 241664, Note_off_c, 0, 59, 0
2, 241664, Note_on_c, 0, 76, 62
2, 241664, Note_on_c, 0, 68, 62
2, 241664, Note_on_c, 0, 59, 62
2, 241920, Note_off_c, 0, 76, 0
2, 241920, Note_on_c, 0, 80, 62
2, 242074, Note_off_c, 0, 68, 0
2, 242176, Note_off_c, 0, 80, 0
2, 242176, Note_on_c, 0, 78, 62
2, 242176, Note_on_c, 0, 63, 62
2, 242432, Note_off_c, 0, 78, 0
2, 242432, Note_on_c, 0, 81, 62
2, 242688, Note_off_c, 0, 81, 0
2, 242688, Note_on_c, 0, 80, 62
2, 242688, Note_off_c, 0, 63, 0
2, 242688, Note_on_c, 0, 64, 62
2, 242944, Note_off_c, 0, 80, 0
2, 242944, Note_on_c, 0, 83, 62
2, 243098, Note_off_c, 0, 64, 0
2, 243200, Note_off_c, 0, 83, 0
2, 243200, Note_on_c, 0, 80, 62
2, 243200, Note_on_c, 0, 68, 62
2, 243456, Note_off_c, 0, 80, 0
2, 243456, Note_on_c, 0, 76, 62
2, 243610, Note_off_c, 0, 68, 0
2, 243712, Note_off_c, 0, 76, 0
2, 243712, Note_off_c, 0, 59, 0
2, 243712, Note_on_c, 0, 75, 62
2, 243712, Note_on_c, 0, 71, 62
2, 243712, Note_on_c, 0, 59, 62
2, 243883, Note_off_c, 0, 75, 0
2, 243883, Note_on_c, 0, 76, 62
2, 244053, Note_off_c, 0, 76, 0
2, 244053, Note_on_c, 0, 78, 62
2, 244224, Note_off_c, 0, 78, 0
2, 244224, Note_on_c, 0, 71, 62
2, 244736, Note_off_c, 0, 71, 0
2, 244736, Note_off_c, 0, 71, 0
2, 244736, Note_off_c, 0, 59, 0
2, 245760, Note_on_c, 0, 64, 101
2, 245760, Note_on_c, 0, 68, 101
2, 245760, Note_on_c, 0, 71, 101
2, 245760, Note_on_c, 0, 76, 101
2, 245760, Note_on_c, 0, 40, 101
2, 245760, Note_on_c, 0, 52, 101
2, 246528, Note_off_c, 0, 64, 0
2, 246528, Note_off_c, 0, 68, 0
2, 246528, Note_off_c, 0, 71, 0
2, 246528, Note_off_c, 0, 76, 0
2, 246528, Note_on_c, 0, 64, 62
2, 246528, Note_off_c, 0, 40, 0
2, 246528, Note_off_c, 0, 52, 0
2, 246784, Note_off_c, 0, 64, 0
2, 246784, Note_on_c, 0, 68, 62
2, 246784, Note_on_c, 0, 64, 62
2, 247194, Note_off_c, 0, 68, 0
2, 247194, Note_off_c, 0, 64, 0
2, 247296, Note_on_c, 0, 69, 62
2, 247296, Note_on_c, 0, 66, 62
2, 247706, Note_off_c, 0, 69, 0
2, 247706, Note_off_c, 0, 66, 0
2, 247808, Note_on_c, 0, 71, 62
2, 247808, Note_on_c, 0, 68, 62
2, 247936, Note_off_c, 0, 71, 0
2, 247936, Note_on_c, 0, 73, 62
2, 248064, Note_off_c, 0, 73, 0
2, 248064, Note_on_c, 0, 71, 62
2, 248576, Note_off_c, 0, 71, 0
2, 248576, Note_on_c, 0, 73, 62
2, 248576, Note_off_c, 0, 68, 0
2, 248576, Note_on_c, 0, 69, 62
2, 248832, Note_off_c, 0, 73, 0
2, 248832, Note_on_c, 0, 71, 62
2, 248832, Note_off_c, 0, 69, 0
2, 248832, Note_on_c, 0, 68, 62
2, 249344, Note_off_c, 0, 71, 0
2, 249344, Note_on_c, 0, 69, 75
2, 249344, Note_off_c, 0, 68, 0
2, 249344, Note_on_c, 0, 63, 75
2, 249472, Note_off_c, 0, 69, 0
2, 249472, Note_on_c, 0, 71, 75
2, 249600, Note_off_c, 0, 71, 0
2, 249600, Note_on_c, 0, 69, 75
2, 249728, Note_off_c, 0, 69, 0
2, 249728, Note_on_c, 0, 71, 75
2, 249856, Note_off_c, 0, 71, 0
2, 249856, Note_off_c, 0, 63, 0
2, 249856, Note_on_c, 0, 68, 75
2, 249856, Note_on_c, 0, 64, 75
2, 250368, Note_off_c, 0, 68, 0
2, 250368, Note_on_c, 0, 59, 75
2, 250368, Note_on_c, 0, 64, 75
2, 250368, Note_off_c, 0, 64, 0
2, 250368, Note_on_c, 0, 44, 75
2, 250368, Note_on_c, 0, 56, 75
2, 250778, Note_off_c, 0, 59, 0
2, 250778, Note_off_c, 0, 64, 0
2, 250778, Note_off_c, 0, 44, 0
2, 250778, Note_off_c, 0, 56, 0
2, 250880, Note_on_c, 0, 61, 75
2, 250880, Note_on_c, 0, 66, 75
2, 250880, Note_on_c, 0, 45, 75
2, 250880, Note_on_c, 0, 57, 75
2, 251290, Note_off_c, 0, 61, 0
2, 251290, Note_off_c, 0, 66, 0
2, 251290, Note_off_c, 0, 45, 0
2, 251290, Note_off_c, 0, 57, 0
2, 251392, Note_on_c, 0, 63, 75
2, 251392, Note_on_c, 0, 47, 75
2, 251392, Note_on_c, 0, 54, 75
2, 251802, Note_off_c, 0, 63, 0
2, 251802, Note_off_c, 0, 47, 0
2, 251802, Note_off_c, 0, 54, 0
2, 251904, Note_on_c, 0, 64, 75
2, 251904, Note_on_c, 0, 40, 75
2, 251904, Note_on_c, 0, 52, 75
2, 252075, Note_off_c, 0, 64, 0
2, 252075, Note_on_c, 0, 66, 75
2, 252245, Note_off_c, 0, 66, 0
2, 252245, Note_on_c, 0, 68, 75
2, 252416, Note_off_c, 0, 68, 0
2, 252416, Note_on_c, 0, 59, 75
2, 252928, Note_off_c, 0, 59, 0
2, 252928, Note_off_c, 0, 40, 0
2, 252928, Note_off_c, 0, 52, 0
2, 253056, Note_on_c, 0, 71, 75
2, 253184, Note_off_c, 0, 71, 0
2, 253184, Note_on_c, 0, 73, 75
2, 253312, Note_off_c, 0, 73, 0
2, 253312, Note_on_c, 0, 75, 75
2, 253440, Note_off_c, 0, 75, 0
2, 253440, Note_on_c, 0, 76, 75
2, 253568, Note_off_c, 0, 76, 0
2, 253568, Note_on_c, 0, 78, 75
2, 253696, Note_off_c, 0, 78, 0
2, 253696, Note_on_c, 0, 80, 75
2, 253824, Note_off_c, 0, 80, 0
2, 253824, Note_on_c, 0, 81, 75
2, 253952, Note_off_c, 0, 81, 0
2, 253952, Note_on_c, 0, 83, 88
2, 253952, Note_on_c, 0, 64, 88
2, 254362, Note_off_c, 0, 64, 0
2, 254464, Note_off_c, 0, 83, 0
2, 254464, Note_on_c, 0, 80, 88
2, 254464, Note_on_c, 0, 68, 88
2, 254720, Note_off_c, 0, 80, 0
2, 254720, Note_on_c, 0, 76, 88
2, 254874, Note_off_c, 0, 68, 0
2, 254976, Note_off_c, 0, 76, 0
2, 254976, Note_on_c, 0, 81, 88
2, 254976, Note_on_c, 0, 59, 88
2, 255232, Note_off_c, 0, 81, 0
2, 255232, Note_on_c, 0, 78, 88
2, 255386, Note_off_c, 0, 59, 0
2, 255488, Note_off_c, 0, 78, 0
2, 255488, Note_on_c, 0, 76, 88
2, 255488, Note_on_c, 0, 69, 88
2, 255744, Note_off_c, 0, 76, 0
2, 255744, Note_on_c, 0, 75, 88
2, 255898, Note_off_c, 0, 69, 0
2, 256000, Note_off_c, 0, 75, 0
2, 256000, Note_on_c, 0, 76, 88
2, 256000, Note_on_c, 0, 68, 88
2, 256256, Note_off_c, 0, 76, 0
2, 256256, Note_on_c, 0, 83, 88
2, 256410, Note_off_c, 0, 68, 0
2, 256512, Note_on_c, 0, 64, 88
2, 256768, Note_off_c, 0, 83, 0
2, 256768, Note_on_c, 0, 80, 88
2, 256922, Note_off_c, 0, 64, 0
2, 257024, Note_on_c, 0, 66, 88
2, 257280, Note_off_c, 0, 80, 0
2, 257280, Note_on_c, 0, 81, 88
2, 257434, Note_off_c, 0, 66, 0
2, 257536, Note_on_c, 0, 63, 88
2, 257792, Note_off_c, 0, 81, 0
2, 257792, Note_on_c, 0, 78, 88
2, 257946, Note_off_c, 0, 63, 0
2, 258048, Note_on_c, 0, 64, 88
2, 258304, Note_off_c, 0, 78, 0
2, 258304, Note_on_c, 0, 80, 88
2, 258458, Note_off_c, 0, 64, 0
2, 258560, Note_on_c, 0, 71, 88
2, 258816, Note_off_c, 0, 80, 0
2, 258816, Note_on_c, 0, 76, 88
2, 258970, Note_off_c, 0, 71, 0
2, 259072, Note_on_c, 0, 69, 88
2, 259328, Note_off_c, 0, 76, 0
2, 259328, Note_on_c, 0, 78, 88
2, 259482, Note_off_c, 0, 69, 0
2, 259584, Note_on_c, 0, 66, 88
2, 259840, Note_off_c, 0, 78, 0
2, 259840, Note_on_c, 0, 75, 94
2, 259994, Note_off_c, 0, 66, 0
2, 260096, Note_on_c, 0, 68, 94
2, 260352, Note_off_c, 0, 75, 0
2, 260352, Note_on_c, 0, 76, 100
2, 260506, Note_off_c, 0, 68, 0
2, 260608, Note_on_c, 0, 64, 100
2, 260864, Note_off_c, 0, 76, 0
2, 260864, Note_on_c, 0, 73, 106
2, 261018, Note_off_c, 0, 64, 0
2, 261120, Note_on_c, 0, 66, 106
2, 261376, Note_off_c, 0, 73, 0
2, 261376, Note_on_c, 0, 75, 114
2, 261530, Note_off_c, 0, 66, 0
2, 261632, Note_on_c, 0, 63, 114
2, 261888, Note_off_c, 0, 75, 0
2, 261888, Note_on_c, 0, 72, 120
2, 262042, Note_off_c, 0, 63, 0
2, 262144, Note_off_c, 0, 72, 0
2, 262144, Note_on_c, 0, 73, 120
2, 262144, Note_on_c, 0, 64, 120
2, 262400, Note_off_c, 0, 73, 0
2, 262400, Note_on_c, 0, 68, 126
2, 262656, Note_off_c, 0, 68, 0
2, 262656, Note_on_c, 0, 68, 126
2, 262861, Note_off_c, 0, 68, 0
2, 262912, Note_on_c, 0, 68, 127
2, 263117, Note_off_c, 0, 68, 0
2, 263168, Note_on_c, 0, 76, 127
2, 263168, Note_off_c, 0, 64, 0
2, 263168, Note_on_c, 0, 49, 127
2, 263424, Note_off_c, 0, 76, 0
2, 263424, Note_on_c, 0, 68, 127
2, 263578, Note_off_c, 0, 49, 0
2, 263680, Note_off_c, 0, 68, 0
2, 263680, Note_on_c, 0, 68, 127
2, 263680, Note_on_c, 0, 49, 127
2, 263885, Note_off_c, 0, 68, 0
2, 263936, Note_on_c, 0, 68, 127
2, 264090, Note_off_c, 0, 49, 0
2, 264141, Note_off_c, 0, 68, 0
2, 264192, Note_on_c, 0, 75, 127
2, 264192, Note_on_c, 0, 48, 127
2, 264448, Note_off_c, 0, 75, 0
2, 264448, Note_on_c, 0, 68, 127
2, 264602, Note_off_c, 0, 48, 0
2, 264704, Note_off_c, 0, 68, 0
2, 264704, Note_on_c, 0, 68, 127
2, 264704, Note_on_c, 0, 51, 127
2, 264909, Note_off_c, 0, 68, 0
2, 264960, Note_on_c, 0, 68, 127
2, 265114, Note_off_c, 0, 51, 0
2, 265165, Note_off_c, 0, 68, 0
2, 265216, Note_on_c, 0, 78, 127
2, 265216, Note_on_c, 0, 56, 127
2, 265472, Note_off_c, 0, 78, 0
2, 265472, Note_on_c, 0, 68, 127
2, 265626, Note_off_c, 0, 56, 0
2, 265728, Note_off_c, 0, 68, 0
2, 265728, Note_on_c, 0, 68, 127
2, 265728, Note_on_c, 0, 60, 127
2, 265933, Note_off_c, 0, 68, 0
2, 265984, Note_on_c, 0, 68, 127
2, 266138, Note_off_c, 0, 60, 0
2, 266189, Note_off_c, 0, 68, 0
2, 266240, Note_on_c, 0, 76, 127
2, 266240, Note_on_c, 0, 61, 127
2, 266496, Note_off_c, 0, 76, 0
2, 266496, Note_on_c, 0, 68, 127
2, 266752, Note_off_c, 0, 68, 0
2, 266752, Note_on_c, 0, 68, 127
2, 266752, Note_off_c, 0, 61, 0
2, 266752, Note_on_c, 0, 49, 127
2, 266957, Note_off_c, 0, 68, 0
2, 267008, Note_on_c, 0, 68, 127
2, 267213, Note_off_c, 0, 68, 0
2, 267264, Note_on_c, 0, 80, 127
2, 267264, Note_off_c, 0, 49, 0
2, 267520, Note_off_c, 0, 80, 0
2, 267520, Note_on_c, 0, 76, 127
2, 267776, Note_off_c, 0, 76, 0
2, 267776, Note_on_c, 0, 76, 127
2, 267776, Note_on_c, 0, 52, 127
2, 267776, Note_on_c, 0, 64, 127
2, 267981, Note_off_c, 0, 76, 0
2, 268032, Note_on_c, 0, 76, 127
2, 268186, Note_off_c, 0, 52, 0
2, 268186, Note_off_c, 0, 64, 0
2, 268237, Note_off_c, 0, 76, 0
2, 268288, Note_on_c, 0, 81, 127
2, 268288, Note_on_c, 0, 54, 127
2, 268544, Note_off_c, 0, 54, 0
2, 268544, Note_on_c, 0, 66, 127
2, 268800, Note_off_c, 0, 81, 0
2, 268800, Note_off_c, 0, 66, 0
2, 268800, Note_on_c, 0, 66, 127
2, 269005, Note_off_c, 0, 66, 0
2, 269056, Note_on_c, 0, 66, 127
2, 269261, Note_off_c, 0, 66, 0
2, 269312, Note_on_c, 0, 71, 127
2, 269312, Note_on_c, 0, 63, 127
2, 269568, Note_off_c, 0, 71, 0
2, 269568, Note_on_c, 0, 78, 127
2, 269568, Note_on_c, 0, 81, 127
2, 269824, Note_off_c, 0, 78, 0
2, 269824, Note_off_c, 0, 81, 0
2, 269824, Note_on_c, 0, 78, 127
2, 269824, Note_on_c, 0, 81, 127
2, 270080, Note_off_c, 0, 78, 0
2, 270080, Note_off_c, 0, 81, 0
2, 270080, Note_on_c, 0, 78, 127
2, 270080, Note_on_c, 0, 81, 127
2, 270336, Note_off_c, 0, 78, 0
2, 270336, Note_off_c, 0, 81, 0
2, 270336, Note_off_c, 0, 63, 0
2, 270336, Note_on_c, 0, 76, 127
2, 270336, Note_on_c, 0, 80, 127
2, 270336, Note_on_c, 0, 52, 127
2, 270592, Note_off_c, 0, 52, 0
2, 270592, Note_on_c, 0, 64, 127
2, 270848, Note_off_c, 0, 76, 0
2, 270848, Note_off_c, 0, 80, 0
2, 270848, Note_off_c, 0, 64, 0
2, 270848, Note_on_c, 0, 64, 127
2, 271053, Note_off_c, 0, 64, 0
2, 271104, Note_on_c, 0, 64, 127
2, 271309, Note_off_c, 0, 64, 0
2, 271360, Note_on_c, 0, 83, 127
2, 271616, Note_off_c, 0, 83, 0
2, 271616, Note_on_c, 0, 81, 127
2, 271872, Note_off_c, 0, 81, 0
2, 271872, Note_on_c, 0, 81, 127
2, 271872, Note_on_c, 0, 52, 127
2, 271872, Note_on_c, 0, 64, 127
2, 272128, Note_off_c, 0, 81, 0
2, 272128, Note_on_c, 0, 80, 127
2, 272282, Note_off_c, 0, 52, 0
2, 272282, Note_off_c, 0, 64, 0
2, 272384, Note_off_c, 0, 80, 0
2, 272384, Note_on_c, 0, 80, 127
2, 272384, Note_on_c, 0, 57, 127
2, 272384, Note_on_c, 0, 61, 127
2, 272640, Note_off_c, 0, 80, 0
2, 272640, Note_on_c, 0, 78, 127
2, 272896, Note_off_c, 0, 78, 0
2, 272896, Note_on_c, 0, 78, 127
2, 272896, Note_off_c, 0, 57, 0
2, 272896, Note_off_c, 0, 61, 0
2, 272896, Note_on_c, 0, 56, 127
2, 272896, Note_on_c, 0, 59, 127
2, 273152, Note_off_c, 0, 78, 0
2, 273152, Note_on_c, 0, 76, 127
2, 273408, Note_off_c, 0, 76, 0
2, 273408, Note_on_c, 0, 83, 62
2, 273408, Note_off_c, 0, 56, 0
2, 273408, Note_off_c, 0, 59, 0
2, 273664, Note_off_c, 0, 83, 0
2, 273664, Note_on_c, 0, 81, 62
2, 273920, Note_off_c, 0, 81, 0
2, 273920, Note_on_c, 0, 81, 62
2, 273920, Note_on_c, 0, 52, 62
2, 273920, Note_on_c, 0, 64, 62
2, 274176, Note_off_c, 0, 81, 0
2, 274176, Note_on_c, 0, 80, 62
2, 274330, Note_off_c, 0, 52, 0
2, 274330, Note_off_c, 0, 64, 0
2, 274432, Note_off_c, 0, 80, 0
2, 274432, Note_on_c, 0, 80, 62
2, 274432, Note_on_c, 0, 57, 62
2, 274432, Note_on_c, 0, 61, 62
2, 274688, Note_off_c, 0, 80, 0
2, 274688, Note_on_c, 0, 78, 62
2, 274944, Note_off_c, 0, 78, 0
2, 274944, Note_on_c, 0, 78, 62
2, 274944, Note_off_c, 0, 57, 0
2, 274944, Note_off_c, 0, 61, 0
2, 274944, Note_on_c, 0, 56, 62
2, 274944, Note_on_c, 0, 59, 62
2, 275200, Note_off_c, 0, 78, 0
2, 275200, Note_on_c, 0, 76, 62
2, 275456, Note_off_c, 0, 76, 0
2, 275456, Note_on_c, 0, 83, 127
2, 275456, Note_off_c, 0, 56, 0
2, 275456, Note_off_c, 0, 59, 0
2, 275712, Note_off_c, 0, 83, 0
2, 275712, Note_on_c, 0, 81, 127
2, 275968, Note_off_c, 0, 81, 0
2, 275968, Note_on_c, 0, 81, 127
2, 275968, Note_on_c, 0, 52, 127
2, 275968, Note_on_c, 0, 64, 127
2, 276224, Note_off_c, 0, 81, 0
2, 276224, Note_on_c, 0, 80, 127
2, 276378, Note_off_c, 0, 52, 0
2, 276378, Note_off_c, 0, 64, 0
2, 276480, Note_off_c, 0, 80, 0
2, 276480, Note_on_c, 0, 85, 127
2, 276480, Note_on_c, 0, 57, 127
2, 276480, Note_on_c, 0, 61, 127
2, 276736, Note_off_c, 0, 85, 0
2, 276736, Note_on_c, 0, 81, 127
2, 276992, Note_off_c, 0, 81, 0
2, 276992, Note_on_c, 0, 81, 127
2, 277248, Note_off_c, 0, 81, 0
2, 277248, Note_on_c, 0, 80, 127
2, 277299, Note_off_c, 0, 57, 0
2, 277299, Note_off_c, 0, 61, 0
2, 277504, Note_off_c, 0, 80, 0
2, 277504, Note_on_c, 0, 80, 127
2, 277504, Note_on_c, 0, 57, 127
2, 277504, Note_on_c, 0, 61, 127
2, 277760, Note_off_c, 0, 80, 0
2, 277760, Note_on_c, 0, 78, 127
2, 277914, Note_off_c, 0, 57, 0
2, 277914, Note_off_c, 0, 61, 0
2, 278016, Note_off_c, 0, 78, 0
2, 278016, Note_on_c, 0, 85, 127
2, 278016, Note_on_c, 0, 58, 127
2, 278016, Note_on_c, 0, 61, 127
2, 278272, Note_off_c, 0, 85, 0
2, 278272, Note_on_c, 0, 76, 127
2, 278426, Note_off_c, 0, 58, 0
2, 278426, Note_off_c, 0, 61, 0
2, 278528, Note_off_c, 0, 76, 0
2, 278528, Note_on_c, 0, 75, 127
2, 278528, Note_on_c, 0, 59, 127
2, 278699, Note_off_c, 0, 75, 0
2, 278699, Note_on_c, 0, 76, 127
2, 278869, Note_off_c, 0, 76, 0
2, 278869, Note_on_c, 0, 78, 127
2, 278938, Note_off_c, 0, 59, 0
2, 279040, Note_off_c, 0, 78, 0
2, 279040, Note_on_c, 0, 71, 127
2, 279040, Note_on_c, 0, 47, 127
2, 279450, Note_off_c, 0, 47, 0
2, 279552, Note_off_c, 0, 71, 0
2, 280576, Note_on_c, 0, 64, 101
2, 280576, Note_on_c, 0, 68, 101
2, 280576, Note_on_c, 0, 71, 101
2, 280576, Note_on_c, 0, 76, 101
2, 280576, Note_on_c, 0, 40, 101
2, 280576, Note_on_c, 0, 52, 101
2, 281344, Note_off_c, 0, 64, 0
2, 281344, Note_off_c, 0, 68, 0
2, 281344, Note_off_c, 0, 71, 0
2, 281344, Note_off_c, 0, 76, 0
2, 281344, Note_on_c, 0, 64, 62
2, 281344, Note_off_c, 0, 40, 0
2, 281344, Note_off_c, 0, 52, 0
2, 281600, Note_off_c, 0, 64, 0
2, 281600, Note_on_c, 0, 68, 62
2, 281600, Note_on_c, 0, 64, 62
2, 282010, Note_off_c, 0, 68, 0
2, 282010, Note_off_c, 0, 64, 0
2, 282112, Note_on_c, 0, 69, 62
2, 282112, Note_on_c, 0, 66, 62
2, 282522, Note_off_c, 0, 69, 0
2, 282522, Note_off_c, 0, 66, 0
2, 282624, Note_on_c, 0, 71, 62
2, 282624, Note_on_c, 0, 68, 62
2, 282752, Note_off_c, 0, 71, 0
2, 282752, Note_on_c, 0, 73, 62
2, 282880, Note_off_c, 0, 73, 0
2, 282880, Note_on_c, 0, 71, 62
2, 283392, Note_off_c, 0, 71, 0
2, 283392, Note_on_c, 0, 73, 62
2, 283392, Note_off_c, 0, 68, 0
2, 283392, Note_on_c, 0, 69, 62
2, 283648, Note_off_c, 0, 73, 0
2, 283648, Note_on_c, 0, 71, 62
2, 283648, Note_off_c, 0, 69, 0
2, 283648, Note_on_c, 0, 68, 62
2, 284160, Note_off_c, 0, 71, 0
2, 284160, Note_on_c, 0, 69, 75
2, 284160, Note_off_c, 0, 68, 0
2, 284160, Note_on_c, 0, 63, 75
2, 284288, Note_off_c, 0, 69, 0
2, 284288, Note_on_c, 0, 71, 75
2, 284416, Note_off_c, 0, 71, 0
2, 284416, Note_on_c, 0, 69, 75
2, 284544, Note_off_c, 0, 69, 0
2, 284544, Note_on_c, 0, 71, 75
2, 284672, Note_off_c, 0, 71, 0
2, 284672, Note_off_c, 0, 63, 0
2, 284672, Note_on_c, 0, 68, 75
2, 284672, Note_on_c, 0, 64, 75
2, 285184, Note_off_c, 0, 68, 0
2, 285184, Note_on_c, 0, 59, 75
2, 285184, Note_on_c, 0, 64, 75
2, 285184, Note_off_c, 0, 64, 0
2, 285184, Note_on_c, 0, 44, 75
2, 285184, Note_on_c, 0, 56, 75
2, 285594, Note_off_c, 0, 59, 0
2, 285594, Note_off_c, 0, 64, 0
2, 285594, Note_off_c, 0, 44, 0
2, 285594, Note_off_c, 0, 56, 0
2, 285696, Note_on_c, 0, 61, 75
2, 285696, Note_on_c, 0, 66, 75
2, 285696, Note_on_c, 0, 45, 75
2, 285696, Note_on_c, 0, 57, 75
2, 286106, Note_off_c, 0, 61, 0
2, 286106, Note_off_c, 0, 66, 0
2, 286106, Note_off_c, 0, 45, 0
2, 286106, Note_off_c, 0, 57, 0
2, 286208, Note_on_c, 0, 63, 75
2, 286208, Note_on_c, 0, 47, 75
2, 286208, Note_on_c, 0, 54, 75
2, 286618, Note_off_c, 0, 63, 0
2, 286618, Note_off_c, 0, 47, 0
2, 286618, Note_off_c, 0, 54, 0
2, 286720, Note_on_c, 0, 64, 75
2, 286720, Note_on_c, 0, 40, 75
2, 286720, Note_on_c, 0, 52, 75
2, 286891, Note_off_c, 0, 64, 0
2, 286891, Note_on_c, 0, 66, 75
2, 287061, Note_off_c, 0, 66, 0
2, 287061, Note_on_c, 0, 68, 75
2, 287232, Note_off_c, 0, 68, 0
2, 287232, Note_on_c, 0, 59, 75
2, 287744, Note_off_c, 0, 59, 0
2, 287744, Note_off_c, 0, 40, 0
2, 287744, Note_off_c, 0, 52, 0
2, 287872, Note_on_c, 0, 64, 75
2, 288000, Note_off_c, 0, 64, 0
2, 288000, Note_on_c, 0, 66, 75
2, 288128, Note_off_c, 0, 66, 0
2, 288128, Note_on_c, 0, 68, 75
2, 288256, Note_off_c, 0, 68, 0
2, 288256, Note_on_c, 0, 69, 75
2, 288384, Note_off_c, 0, 69, 0
2, 288384, Note_on_c, 0, 71, 75
2, 288512, Note_off_c, 0, 71, 0
2, 288512, Note_on_c, 0, 73, 75
2, 288640, Note_off_c, 0, 73, 0
2, 288640, Note_on_c, 0, 75, 75
2, 288768, Note_off_c, 0, 75, 0
2, 288768, Note_on_c, 0, 76, 101
2, 288768, Note_on_c, 0, 52, 101
2, 288768, Note_on_c, 0, 56, 101
2, 288768, Note_on_c, 0, 59, 101
2, 289536, Note_off_c, 0, 76, 0
2, 289536, Note_on_c, 0, 68, 62
2, 289536, Note_off_c, 0, 52, 0
2, 289536, Note_off_c, 0, 56, 0
2, 289536, Note_off_c, 0, 59, 0
2, 289536, Note_on_c, 0, 64, 62
2, 289792, Note_off_c, 0, 68, 0
2, 289792, Note_on_c, 0, 69, 62
2, 289792, Note_off_c, 0, 64, 0
2, 289792, Note_on_c, 0, 66, 62
2, 290202, Note_off_c, 0, 69, 0
2, 290202, Note_off_c, 0, 66, 0
2, 290304, Note_on_c, 0, 71, 62
2, 290304, Note_on_c, 0, 68, 62
2, 290714, Note_off_c, 0, 71, 0
2, 290714, Note_off_c, 0, 68, 0
2, 290816, Note_on_c, 0, 73, 62
2, 290816, Note_on_c, 0, 69, 62
2, 290944, Note_off_c, 0, 73, 0
2, 290944, Note_on_c, 0, 75, 62
2, 291072, Note_off_c, 0, 75, 0
2, 291072, Note_on_c, 0, 73, 62
2, 291226, Note_off_c, 0, 69, 0
2, 291328, Note_on_c, 0, 57, 62
2, 291584, Note_off_c, 0, 73, 0
2, 291584, Note_on_c, 0, 76, 62
2, 291738, Note_off_c, 0, 57, 0
2, 291840, Note_off_c, 0, 76, 0
2, 291840, Note_on_c, 0, 71, 62
2, 291840, Note_on_c, 0, 68, 62
2, 292250, Note_off_c, 0, 68, 0
2, 292352, Note_off_c, 0, 71, 0
2, 292352, Note_on_c, 0, 68, 62
2, 292352, Note_on_c, 0, 64, 62
2, 292762, Note_off_c, 0, 64, 0
2, 292864, Note_off_c, 0, 68, 0
2, 292864, Note_on_c, 0, 51, 62
2, 293120, Note_on_c, 0, 81, 62
2, 293274, Note_off_c, 0, 51, 0
2, 293376, Note_on_c, 0, 59, 62
2, 293632, Note_off_c, 0, 81, 0
2, 293632, Note_on_c, 0, 78, 62
2, 293786, Note_off_c, 0, 59, 0
2, 293888, Note_on_c, 0, 52, 62
2, 294144, Note_off_c, 0, 78, 0
2, 294144, Note_on_c, 0, 80, 62
2, 294298, Note_off_c, 0, 52, 0
2, 294400, Note_on_c, 0, 59, 62
2, 294656, Note_off_c, 0, 80, 0
2, 294656, Note_on_c, 0, 76, 62
2, 294810, Note_off_c, 0, 59, 0
2, 294912, Note_off_c, 0, 76, 0
2, 294912, Note_on_c, 0, 54, 62
2, 295168, Note_on_c, 0, 75, 62
2, 295322, Note_off_c, 0, 54, 0
2, 295424, Note_on_c, 0, 59, 62
2, 295680, Note_off_c, 0, 75, 0
2, 295680, Note_on_c, 0, 78, 62
2, 295834, Note_off_c, 0, 59, 0
2, 295936, Note_on_c, 0, 56, 62
2, 296192, Note_off_c, 0, 78, 0
2, 296192, Note_on_c, 0, 76, 62
2, 296346, Note_off_c, 0, 56, 0
2, 296448, Note_on_c, 0, 59, 62
2, 296704, Note_off_c, 0, 76, 0
2, 296704, Note_on_c, 0, 71, 62
2, 296858, Note_off_c, 0, 59, 0
2, 296960, Note_off_c, 0, 71, 0
2, 296960, Note_on_c, 0, 57, 88
2, 297216, Note_on_c, 0, 73, 88
2, 297370, Note_off_c, 0, 57, 0
2, 297472, Note_on_c, 0, 64, 88
2, 297728, Note_off_c, 0, 73, 0
2, 297728, Note_on_c, 0, 75, 88
2, 297882, Note_off_c, 0, 64, 0
2, 297984, Note_on_c, 0, 56, 88
2, 298240, Note_off_c, 0, 75, 0
2, 298240, Note_on_c, 0, 76, 88
2, 298394, Note_off_c, 0, 56, 0
2, 298496, Note_on_c, 0, 64, 88
2, 298752, Note_off_c, 0, 76, 0
2, 298752, Note_on_c, 0, 71, 88
2, 298906, Note_off_c, 0, 64, 0
2, 299008, Note_off_c, 0, 71, 0
2, 299008, Note_on_c, 0, 54, 88
2, 299264, Note_on_c, 0, 69, 88
2, 299418, Note_off_c, 0, 54, 0
2, 299520, Note_on_c, 0, 63, 88
2, 299776, Note_off_c, 0, 69, 0
2, 299776, Note_on_c, 0, 66, 88
2, 299930, Note_off_c, 0, 63, 0
2, 300032, Note_on_c, 0, 64, 88
2, 300288, Note_off_c, 0, 66, 0
2, 300288, Note_on_c, 0, 68, 88
2, 300442, Note_off_c, 0, 64, 0
2, 300544, Note_on_c, 0, 52, 88
2, 300800, Note_off_c, 0, 68, 0
2, 300800, Note_on_c, 0, 64, 88
2, 300954, Note_off_c, 0, 52, 0
2, 301056, Note_off_c, 0, 64, 0
2, 301056, Note_on_c, 0, 45, 88
2, 301056, Note_on_c, 0, 57, 88
2, 301312, Note_on_c, 0, 66, 88
2, 301568, Note_off_c, 0, 66, 0
2, 301568, Note_on_c, 0, 65, 88
2, 301824, Note_off_c, 0, 65, 0
2, 301824, Note_on_c, 0, 66, 88
2, 302080, Note_off_c, 0, 66, 0
2, 302080, Note_on_c, 0, 73, 88
2, 302080, Note_off_c, 0, 45, 0
2, 302080, Note_off_c, 0, 57, 0
2, 302080, Note_on_c, 0, 54, 88
2, 302251, Note_off_c, 0, 73, 0
2, 302251, Note_on_c, 0, 71, 88
2, 302421, Note_off_c, 0, 71, 0
2, 302421, Note_on_c, 0, 69, 88
2, 302490, Note_off_c, 0, 54, 0
2, 302592, Note_off_c, 0, 69, 0
2, 302592, Note_on_c, 0, 68, 88
2, 302592, Note_on_c, 0, 58, 88
2, 302763, Note_off_c, 0, 68, 0
2, 302763, Note_on_c, 0, 66, 88
2, 302933, Note_off_c, 0, 66, 0
2, 302933, Note_on_c, 0, 64, 88
2, 303002, Note_off_c, 0, 58, 0
2, 303104, Note_off_c, 0, 64, 0
2, 303104, Note_on_c, 0, 63, 88
2, 303104, Note_on_c, 0, 59, 88
2, 303275, Note_off_c, 0, 63, 0
2, 303275, Note_on_c, 0, 64, 88
2, 303445, Note_off_c, 0, 64, 0
2, 303445, Note_on_c, 0, 66, 88
2, 303514, Note_off_c, 0, 59, 0
2, 303616, Note_off_c, 0, 66, 0
2, 303616, Note_on_c, 0, 59, 88
2, 303616, Note_on_c, 0, 47, 88
2, 304026, Note_off_c, 0, 47, 0
2, 304128, Note_off_c, 0, 59, 0
2, 304128, Note_on_c, 0, 59, 62
2, 304384, Note_off_c, 0, 59, 0
2, 304384, Note_on_c, 0, 56, 62
2, 304640, Note_off_c, 0, 56, 0
2, 304640, Note_on_c, 0, 57, 62
2, 304896, Note_off_c, 0, 57, 0
2, 304896, Note_on_c, 0, 54, 62
2, 305152, Note_off_c, 0, 54, 0
2, 305152, Note_on_c, 0, 71, 62
2, 305152, Note_on_c, 0, 56, 62
2, 305408, Note_off_c, 0, 71, 0
2, 305408, Note_on_c, 0, 76, 62
2, 305664, Note_off_c, 0, 76, 0
2, 305664, Note_on_c, 0, 76, 62
2, 305869, Note_off_c, 0, 76, 0
2, 305920, Note_on_c, 0, 76, 62
2, 306125, Note_off_c, 0, 76, 0
2, 306176, Note_on_c, 0, 76, 62
2, 306432, Note_off_c, 0, 76, 0
2, 306432, Note_on_c, 0, 74, 62
2, 306432, Note_on_c, 0, 64, 62
2, 306688, Note_off_c, 0, 74, 0
2, 306688, Note_on_c, 0, 73, 62
2, 306688, Note_off_c, 0, 64, 0
2, 306688, Note_on_c, 0, 64, 62
2, 306944, Note_off_c, 0, 73, 0
2, 306944, Note_on_c, 0, 71, 62
2, 306944, Note_off_c, 0, 64, 0
2, 306944, Note_on_c, 0, 64, 62
2, 307200, Note_off_c, 0, 71, 0
2, 307200, Note_off_c, 0, 64, 0
2, 307200, Note_off_c, 0, 56, 0
2, 307200, Note_on_c, 0, 73, 62
2, 307200, Note_on_c, 0, 64, 62
2, 307200, Note_on_c, 0, 57, 62
2, 307456, Note_off_c, 0, 73, 0
2, 307456, Note_on_c, 0, 76, 62
2, 307610, Note_off_c, 0, 57, 0
2, 307712, Note_off_c, 0, 76, 0
2, 307712, Note_on_c, 0, 68, 62
2, 307712, Note_on_c, 0, 59, 62
2, 307968, Note_off_c, 0, 68, 0
2, 307968, Note_on_c, 0, 71, 62
2, 308122, Note_off_c, 0, 59, 0
2, 308224, Note_off_c, 0, 71, 0
2, 308224, Note_on_c, 0, 69, 62
2, 308224, Note_on_c, 0, 61, 62
2, 308480, Note_off_c, 0, 69, 0
2, 308480, Note_on_c, 0, 73, 62
2, 308634, Note_off_c, 0, 61, 0
2, 308736, Note_off_c, 0, 73, 0
2, 308736, Note_on_c, 0, 71, 62
2, 308736, Note_on_c, 0, 56, 62
2, 308992, Note_off_c, 0, 71, 0
2, 308992, Note_on_c, 0, 74, 62
2, 309146, Note_off_c, 0, 56, 0
2, 309248, Note_off_c, 0, 74, 0
2, 309248, Note_off_c, 0, 64, 0
2, 309248, Note_on_c, 0, 73, 62
2, 309248, Note_on_c, 0, 64, 62
2, 309248, Note_on_c, 0, 57, 62
2, 309504, Note_off_c, 0, 73, 0
2, 309504, Note_on_c, 0, 76, 62
2, 309658, Note_off_c, 0, 57, 0
2, 309760, Note_off_c, 0, 76, 0
2, 309760, Note_on_c, 0, 68, 62
2, 309760, Note_on_c, 0, 59, 62
2, 310016, Note_off_c, 0, 68, 0
2, 310016, Note_on_c, 0, 71, 62
2, 310170, Note_off_c, 0, 59, 0
2, 310272, Note_off_c, 0, 71, 0
2, 310272, Note_on_c, 0, 69, 62
2, 310272, Note_on_c, 0, 61, 62
2, 310528, Note_off_c, 0, 69, 0
2, 310528, Note_on_c, 0, 73, 62
2, 310682, Note_off_c, 0, 61, 0
2, 310784, Note_off_c, 0, 73, 0
2, 310784, Note_on_c, 0, 71, 62
2, 310784, Note_on_c, 0, 56, 62
2, 311040, Note_off_c, 0, 71, 0
2, 311040, Note_on_c, 0, 74, 62
2, 311194, Note_off_c, 0, 56, 0
2, 311296, Note_off_c, 0, 74, 0
2, 311296, Note_off_c, 0, 64, 0
2, 311296, Note_on_c, 0, 73, 62
2, 311296, Note_on_c, 0, 57, 62
2, 311552, Note_off_c, 0, 73, 0
2, 311552, Note_on_c, 0, 78, 62
2, 311808, Note_off_c, 0, 78, 0
2, 311808, Note_on_c, 0, 78, 62
2, 312013, Note_off_c, 0, 78, 0
2, 312064, Note_on_c, 0, 78, 62
2, 312115, Note_off_c, 0, 57, 0
2, 312269, Note_off_c, 0, 78, 0
2, 312320, Note_on_c, 0, 78, 68
2, 312320, Note_on_c, 0, 58, 68
2, 312576, Note_off_c, 0, 78, 0
2, 312576, Note_on_c, 0, 76, 68
2, 312576, Note_on_c, 0, 66, 68
2, 312832, Note_off_c, 0, 76, 0
2, 312832, Note_on_c, 0, 75, 74
2, 312832, Note_off_c, 0, 66, 0
2, 312832, Note_on_c, 0, 66, 74
2, 313088, Note_off_c, 0, 75, 0
2, 313088, Note_on_c, 0, 73, 74
2, 313088, Note_off_c, 0, 66, 0
2, 313088, Note_on_c, 0, 66, 74
2, 313139, Note_off_c, 0, 58, 0
2, 313344, Note_off_c, 0, 73, 0
2, 313344, Note_off_c, 0, 66, 0
2, 313344, Note_on_c, 0, 75, 80
2, 313344, Note_on_c, 0, 66, 80
2, 313344, Note_on_c, 0, 59, 80
2, 313600, Note_off_c, 0, 75, 0
2, 313600, Note_on_c, 0, 78, 80
2, 313754, Note_off_c, 0, 59, 0
2, 313856, Note_off_c, 0, 78, 0
2, 313856, Note_on_c, 0, 70, 88
2, 313856, Note_on_c, 0, 61, 88
2, 314112, Note_off_c, 0, 70, 0
2, 314112, Note_on_c, 0, 73, 88
2, 314266, Note_off_c, 0, 61, 0
2, 314368, Note_off_c, 0, 73, 0
2, 314368, Note_on_c, 0, 71, 94
2, 314368, Note_on_c, 0, 63, 94
2, 314624, Note_off_c, 0, 71, 0
2, 314624, Note_on_c, 0, 75, 94
2, 314778, Note_off_c, 0, 63, 0
2, 314880, Note_off_c, 0, 75, 0
2, 314880, Note_on_c, 0, 73, 100
2, 314880, Note_on_c, 0, 58, 100
2, 315136, Note_off_c, 0, 73, 0
2, 315136, Note_on_c, 0, 76, 100
2, 315290, Note_off_c, 0, 58, 0
2, 315392, Note_off_c, 0, 76, 0
2, 315392, Note_off_c, 0, 66, 0
2, 315392, Note_on_c, 0, 75, 106
2, 315392, Note_on_c, 0, 66, 106
2, 315392, Note_on_c, 0, 59, 106
2, 315648, Note_off_c, 0, 75, 0
2, 315648, Note_on_c, 0, 78, 106
2, 315802, Note_off_c, 0, 59, 0
2, 315904, Note_off_c, 0, 78, 0
2, 315904, Note_on_c, 0, 70, 106
2, 315904, Note_on_c, 0, 61, 106
2, 316160, Note_off_c, 0, 70, 0
2, 316160, Note_on_c, 0, 73, 106
2, 316314, Note_off_c, 0, 61, 0
2, 316416, Note_off_c, 0, 73, 0
2, 316416, Note_on_c, 0, 71, 106
2, 316416, Note_on_c, 0, 63, 106
2, 316672, Note_off_c, 0, 71, 0
2, 316672, Note_on_c, 0, 75, 106
2, 316826, Note_off_c, 0, 63, 0
2, 316928, Note_off_c, 0, 75, 0
2, 316928, Note_on_c, 0, 73, 106
2, 316928, Note_on_c, 0, 58, 106
2, 317184, Note_off_c, 0, 73, 0
2, 317184, Note_on_c, 0, 76, 106
2, 317338, Note_off_c, 0, 58, 0
2, 317440, Note_off_c, 0, 76, 0
2, 317440, Note_off_c, 0, 66, 0
2, 317440, Note_on_c, 0, 75, 106
2, 317440, Note_on_c, 0, 59, 106
2, 317696, Note_off_c, 0, 75, 0
2, 317696, Note_on_c, 0, 78, 106
2, 317850, Note_off_c, 0, 59, 0
2, 317952, Note_off_c, 0, 78, 0
2, 317952, Note_on_c, 0, 76, 106
2, 317952, Note_on_c, 0, 61, 106
2, 318208, Note_off_c, 0, 76, 0
2, 318208, Note_on_c, 0, 80, 106
2, 318362, Note_off_c, 0, 61, 0
2, 318464, Note_off_c, 0, 80, 0
2, 318464, Note_on_c, 0, 78, 106
2, 318464, Note_on_c, 0, 63, 106
2, 318720, Note_off_c, 0, 78, 0
2, 318720, Note_on_c, 0, 81, 106
2, 318874, Note_off_c, 0, 63, 0
2, 318976, Note_off_c, 0, 81, 0
2, 318976, Note_on_c, 0, 80, 106
2, 318976, Note_on_c, 0, 64, 106
2, 319232, Note_off_c, 0, 80, 0
2, 319232, Note_on_c, 0, 83, 106
2, 319386, Note_off_c, 0, 64, 0
2, 319488, Note_off_c, 0, 83, 0
2, 319488, Note_on_c, 0, 83, 114
2, 319488, Note_on_c, 0, 54, 114
2, 319488, Note_on_c, 0, 66, 114
2, 319744, Note_off_c, 0, 83, 0
2, 319744, Note_on_c, 0, 81, 114
2, 319898, Note_off_c, 0, 54, 0
2, 319898, Note_off_c, 0, 66, 0
2, 320000, Note_off_c, 0, 81, 0
2, 320000, Note_on_c, 0, 81, 114
2, 320000, Note_on_c, 0, 52, 114
2, 320000, Note_on_c, 0, 64, 114
2, 320256, Note_off_c, 0, 81, 0
2, 320256, Note_on_c, 0, 80, 114
2, 320410, Note_off_c, 0, 52, 0
2, 320410, Note_off_c, 0, 64, 0
2, 320512, Note_off_c, 0, 80, 0
2, 320512, Note_on_c, 0, 80, 114
2, 320512, Note_on_c, 0, 51, 114
2, 320512, Note_on_c, 0, 63, 114
2, 320768, Note_off_c, 0, 80, 0
2, 320768, Note_on_c, 0, 78, 114
2, 320922, Note_off_c, 0, 51, 0
2, 320922, Note_off_c, 0, 63, 0
2, 321024, Note_off_c, 0, 78, 0
2, 321024, Note_on_c, 0, 78, 114
2, 321024, Note_on_c, 0, 49, 114
2, 321024, Note_on_c, 0, 61, 114
2, 321280, Note_off_c, 0, 78, 0
2, 321280, Note_on_c, 0, 76, 114
2, 321434, Note_off_c, 0, 49, 0
2, 321434, Note_off_c, 0, 61, 0
2, 321536, Note_off_c, 0, 76, 0
2, 321536, Note_on_c, 0, 76, 114
2, 321536, Note_on_c, 0, 59, 114
2, 321792, Note_off_c, 0, 76, 0
2, 321792, Note_on_c, 0, 75, 114
2, 321946, Note_off_c, 0, 59, 0
2, 322048, Note_off_c, 0, 75, 0
2, 322048, Note_on_c, 0, 75, 114
2, 322048, Note_on_c, 0, 57, 114
2, 322304, Note_off_c, 0, 75, 0
2, 322304, Note_on_c, 0, 73, 114
2, 322458, Note_off_c, 0, 57, 0
2, 322560, Note_off_c, 0, 73, 0
2, 322560, Note_on_c, 0, 73, 114
2, 322560, Note_on_c, 0, 56, 114
2, 322816, Note_off_c, 0, 73, 0
2, 322816, Note_on_c, 0, 71, 114
2, 322970, Note_off_c, 0, 56, 0
2, 323072, Note_off_c, 0, 71, 0
2, 323072, Note_on_c, 0, 71, 114
2, 323072, Note_on_c, 0, 54, 114
2, 323328, Note_off_c, 0, 71, 0
2, 323328, Note_on_c, 0, 69, 114
2, 323482, Note_off_c, 0, 54, 0
2, 323584, Note_off_c, 0, 69, 0
2, 323584, Note_on_c, 0, 68, 114
2, 323584, Note_on_c, 0, 52, 114
2, 323755, Note_off_c, 0, 68, 0
2, 323755, Note_on_c, 0, 69, 114
2, 323925, Note_off_c, 0, 69, 0
2, 323925, Note_on_c, 0, 71, 114
2, 324096, Note_off_c, 0, 71, 0
2, 324096, Note_on_c, 0, 64, 114
2, 324267, Note_off_c, 0, 64, 0
2, 324267, Note_on_c, 0, 69, 114
2, 324403, Note_off_c, 0, 52, 0
2, 324437, Note_off_c, 0, 69, 0
2, 324437, Note_on_c, 0, 66, 114
2, 324608, Note_off_c, 0, 66, 0
2, 324608, Note_on_c, 0, 66, 114
2, 324608, Note_on_c, 0, 59, 114
2, 324736, Note_off_c, 0, 66, 0
2, 324736, Note_on_c, 0, 68, 114
2, 324864, Note_off_c, 0, 68, 0
2, 324864, Note_on_c, 0, 66, 114
2, 324992, Note_off_c, 0, 66, 0
2, 324992, Note_on_c, 0, 68, 114
2, 325018, Note_off_c, 0, 59, 0
2, 325120, Note_off_c, 0, 68, 0
2, 325120, Note_on_c, 0, 66, 114
2, 325120, Note_on_c, 0, 47, 114
2, 325248, Note_off_c, 0, 66, 0
2, 325248, Note_on_c, 0, 68, 114
2, 325376, Note_off_c, 0, 68, 0
2, 325376, Note_on_c, 0, 66, 114
2, 325530, Note_off_c, 0, 47, 0
2, 325632, Note_off_c, 0, 66, 0
2, 325632, Note_on_c, 0, 64, 114
2, 325632, Note_on_c, 0, 52, 114
2, 326042, Note_off_c, 0, 52, 0
2, 326144, Note_on_c, 0, 40, 114
2, 326400, Note_off_c, 0, 64, 0
2, 326400, Note_on_c, 0, 71, 75
2, 326554, Note_off_c, 0, 40, 0
2, 326656, Note_off_c, 0, 71, 0
2, 326656, Note_on_c, 0, 64, 75
2, 327168, Note_off_c, 0, 64, 0
2, 327168, Note_on_c, 0, 66, 75
2, 327680, Note_off_c, 0, 66, 0
2, 327680, Note_on_c, 0, 68, 75
2, 327680, Note_on_c, 0, 64, 75
2, 327680, Note_on_c, 0, 35, 75
2, 327680, Note_on_c, 0, 47, 75
2, 328192, Note_off_c, 0, 68, 0
2, 328192, Note_on_c, 0, 66, 75
2, 328192, Note_off_c, 0, 64, 0
2, 328192, Note_on_c, 0, 63, 75
2, 328576, Note_off_c, 0, 66, 0
2, 328576, Note_on_c, 0, 71, 75
2, 328704, Note_off_c, 0, 71, 0
2, 328704, Note_on_c, 0, 66, 75
2, 328704, Note_off_c, 0, 63, 0
2, 328704, Note_on_c, 0, 63, 75
2, 328704, Note_off_c, 0, 35, 0
2, 328704, Note_off_c, 0, 47, 0
2, 329216, Note_off_c, 0, 66, 0
2, 329216, Note_on_c, 0, 68, 75
2, 329216, Note_off_c, 0, 63, 0
2, 329216, Note_on_c, 0, 64, 75
2, 329728, Note_off_c, 0, 68, 0
2, 329728, Note_off_c, 0, 64, 0
2, 329728, Note_on_c, 0, 69, 75
2, 329728, Note_on_c, 0, 66, 75
2, 329728, Note_on_c, 0, 35, 75
2, 329728, Note_on_c, 0, 47, 75
2, 330138, Note_off_c, 0, 35, 0
2, 330138, Note_off_c, 0, 47, 0
2, 330240, Note_off_c, 0, 69, 0
2, 330240, Note_on_c, 0, 68, 75
2, 330240, Note_off_c, 0, 66, 0
2, 330240, Note_on_c, 0, 64, 75
2, 330240, Note_on_c, 0, 40, 75
2, 330240, Note_on_c, 0, 52, 75
2, 330624, Note_off_c, 0, 68, 0
2, 330624, Note_on_c, 0, 71, 75
2, 330650, Note_off_c, 0, 40, 0
2, 330650, Note_off_c, 0, 52, 0
2, 330752, Note_off_c, 0, 71, 0
2, 330752, Note_on_c, 0, 68, 75
2, 330752, Note_off_c, 0, 64, 0
2, 330752, Note_on_c, 0, 64, 75
2, 331264, Note_off_c, 0, 68, 0
2, 331264, Note_on_c, 0, 69, 75
2, 331264, Note_off_c, 0, 64, 0
2, 331264, Note_on_c, 0, 66, 75
2, 331776, Note_off_c, 0, 69, 0
2, 331776, Note_off_c, 0, 66, 0
2, 331776, Note_on_c, 0, 68, 75
2, 331776, Note_on_c, 0, 71, 75
2, 331776, Note_on_c, 0, 40, 75
2, 331776, Note_on_c, 0, 52, 75
2, 332288, Note_off_c, 0, 68, 0
2, 332288, Note_off_c, 0, 71, 0
2, 332288, Note_on_c, 0, 68, 75
2, 332288, Note_on_c, 0, 71, 75
2, 332288, Note_on_c, 0, 76, 75
2, 332595, Note_off_c, 0, 40, 0
2, 332595, Note_off_c, 0, 52, 0
2, 332800, Note_off_c, 0, 68, 0
2, 332800, Note_off_c, 0, 71, 0
2, 332800, Note_off_c, 0, 76, 0
2, 332800, Note_on_c, 0, 44, 75
2, 332800, Note_on_c, 0, 56, 75
2, 333312, Note_on_c, 0, 64, 75
2, 333312, Note_on_c, 0, 68, 75
2, 333312, Note_on_c, 0, 71, 75
2, 333619, Note_off_c, 0, 44, 0
2, 333619, Note_off_c, 0, 56, 0
2, 333824, Note_off_c, 0, 64, 0
2, 333824, Note_off_c, 0, 68, 0
2, 333824, Note_off_c, 0, 71, 0
2, 333824, Note_on_c, 0, 45, 75
2, 333824, Note_on_c, 0, 57, 75
2, 334080, Note_on_c, 0, 73, 75
2, 334234, Note_off_c, 0, 45, 0
2, 334234, Note_off_c, 0, 57, 0
2, 334336, Note_on_c, 0, 61, 75
2, 334592, Note_off_c, 0, 73, 0
2, 334592, Note_on_c, 0, 69, 75
2, 334746, Note_off_c, 0, 61, 0
2, 334848, Note_on_c, 0, 59, 75
2, 335104, Note_off_c, 0, 69, 0
2, 335104, Note_on_c, 0, 68, 75
2, 335258, Note_off_c, 0, 59, 0
2, 335360, Note_on_c, 0, 63, 75
2, 335616, Note_off_c, 0, 68, 0
2, 335616, Note_on_c, 0, 66, 75
2, 335770, Note_off_c, 0, 63, 0
2, 335872, Note_off_c, 0, 66, 0
2, 335872, Note_on_c, 0, 68, 75
2, 335872, Note_on_c, 0, 64, 75
2, 336384, Note_off_c, 0, 68, 0
2, 336384, Note_on_c, 0, 68, 75
2, 336384, Note_on_c, 0, 71, 75
2, 336384, Note_on_c, 0, 76, 75
2, 336896, Note_off_c, 0, 68, 0
2, 336896, Note_off_c, 0, 71, 0
2, 336896, Note_off_c, 0, 76, 0
2, 336896, Note_off_c, 0, 64, 0
2, 336896, Note_on_c, 0, 56, 75
2, 336896, Note_on_c, 0, 59, 75
2, 336896, Note_on_c, 0, 64, 75
2, 337408, Note_on_c, 0, 76, 75
2, 337408, Note_on_c, 0, 80, 75
2, 337408, Note_on_c, 0, 83, 75
2, 337920, Note_off_c, 0, 76, 0
2, 337920, Note_off_c, 0, 80, 0
2, 337920, Note_off_c, 0, 83, 0
2, 337920, Note_off_c, 0, 56, 0
2, 337920, Note_off_c, 0, 59, 0
2, 337920, Note_off_c, 0, 64, 0
2, 337920, Note_on_c, 0, 81, 88
2, 337920, Note_on_c, 0, 54, 88
2, 337920, Note_on_c, 0, 63, 88
2, 338091, Note_off_c, 0, 81, 0
2, 338091, Note_on_c, 0, 80, 88
2, 338261, Note_off_c, 0, 80, 0
2, 338261, Note_on_c, 0, 78, 88
2, 338330, Note_off_c, 0, 54, 0
2, 338330, Note_off_c, 0, 63, 0
2, 338432, Note_off_c, 0, 78, 0
2, 338432, Note_on_c, 0, 80, 88
2, 338432, Note_on_c, 0, 52, 88
2, 338432, Note_on_c, 0, 64, 88
2, 338603, Note_off_c, 0, 80, 0
2, 338603, Note_on_c, 0, 78, 88
2, 338773, Note_off_c, 0, 78, 0
2, 338773, Note_on_c, 0, 76, 88
2, 338842, Note_off_c, 0, 52, 0
2, 338842, Note_off_c, 0, 64, 0
2, 338944, Note_off_c, 0, 76, 0
2, 338944, Note_on_c, 0, 78, 88
2, 338944, Note_on_c, 0, 57, 88
2, 338944, Note_on_c, 0, 64, 88
2, 339072, Note_off_c, 0, 78, 0
2, 339072, Note_on_c, 0, 80, 88
2, 339200, Note_off_c, 0, 80, 0
2, 339200, Note_on_c, 0, 78, 88
2, 339328, Note_off_c, 0, 78, 0
2, 339328, Note_on_c, 0, 80, 88
2, 339354, Note_off_c, 0, 57, 0
2, 339354, Note_off_c, 0, 64, 0
2, 339456, Note_off_c, 0, 80, 0
2, 339456, Note_on_c, 0, 78, 88
2, 339456, Note_on_c, 0, 59, 88
2, 339456, Note_on_c, 0, 63, 88
2, 339584, Note_off_c, 0, 78, 0
2, 339584, Note_on_c, 0, 80, 88
2, 339712, Note_off_c, 0, 80, 0
2, 339712, Note_on_c, 0, 78, 88
2, 339866, Note_off_c, 0, 59, 0
2, 339866, Note_off_c, 0, 63, 0
2, 339968, Note_off_c, 0, 78, 0
2, 339968, Note_on_c, 0, 80, 114
2, 339968, Note_on_c, 0, 52, 114
2, 339968, Note_on_c, 0, 64, 114
2, 340139, Note_off_c, 0, 80, 0
2, 340139, Note_on_c, 0, 78, 114
2, 340309, Note_off_c, 0, 78, 0
2, 340309, Note_on_c, 0, 76, 114
2, 340480, Note_off_c, 0, 76, 0
2, 340480, Note_on_c, 0, 75, 114
2, 340651, Note_off_c, 0, 75, 0
2, 340651, Note_on_c, 0, 73, 114
2, 340821, Note_off_c, 0, 73, 0
2, 340821, Note_on_c, 0, 71, 114
2, 340992, Note_off_c, 0, 71, 0
2, 340992, Note_on_c, 0, 78, 114
2, 340992, Note_off_c, 0, 52, 0
2, 340992, Note_off_c, 0, 64, 0
2, 340992, Note_on_c, 0, 57, 114
2, 340992, Note_on_c, 0, 64, 114
2, 341120, Note_off_c, 0, 78, 0
2, 341120, Note_on_c, 0, 80, 114
2, 341248, Note_off_c, 0, 80, 0
2, 341248, Note_on_c, 0, 78, 114
2, 341376, Note_off_c, 0, 78, 0
2, 341376, Note_on_c, 0, 80, 114
2, 341504, Note_off_c, 0, 80, 0
2, 341504, Note_on_c, 0, 78, 114
2, 341504, Note_off_c, 0, 57, 0
2, 341504, Note_off_c, 0, 64, 0
2, 341504, Note_on_c, 0, 59, 114
2, 341504, Note_on_c, 0, 63, 114
2, 341632, Note_off_c, 0, 78, 0
2, 341632, Note_on_c, 0, 80, 114
2, 341760, Note_off_c, 0, 80, 0
2, 341760, Note_on_c, 0, 78, 114
2, 342016, Note_off_c, 0, 78, 0
2, 342016, Note_off_c, 0, 59, 0
2, 342016, Note_off_c, 0, 63, 0
2, 342016, Note_on_c, 0, 76, 114
2, 342016, Note_on_c, 0, 64, 114
2, 342272, Note_off_c, 0, 64, 0
2, 342528, Note_on_c, 0, 59, 114
2, 342784, Note_off_c, 0, 59, 0
2, 343040, Note_off_c, 0, 76, 0
2, 343040, Note_on_c, 0, 52, 114
2, 344064, Note_off_c, 0, 52, 0
2, 415745, End_track
0, 0, End_of_file
