0, 0, Header, 1, 2, 1024
1, 0, Start_track
1, 0, Time_signature, 1, 3, 12, 8
1, 0, Key_signature, 4, "major"
1, 0, Tempo, 352941
1, 512, Time_signature, 2, 2, 24, 8
1, 86528, Time_signature, 3, 3, 12, 8
1, 88064, Time_signature, 1, 3, 12, 8
1, 88576, Time_signature, 2, 2, 24, 8
1, 174592, Time_signature, 3, 3, 12, 8
1, 176128, Time_signature, 1, 3, 12, 8
1, 176640, Time_signature, 2, 2, 24, 8
1, 305664, Time_signature, 3, 3, 12, 8
1, 307200, Time_signature, 1, 3, 12, 8
1, 307712, Time_signature, 2, 2, 24, 8
1, 436736, Time_signature, 3, 3, 12, 8
1, 438272, Time_signature, 2, 2, 24, 8
1, 462850, End_track
2, 0, Start_track
2, 0, Title_t, "Acoustic Grand Piano"
2, 0, Program_c, 0, 0
2, 0, Note_on_c, 0, 56, 101
2, 0, Note_on_c, 0, 64, 101
2, 512, Note_off_c, 0, 56, 0
2, 512, Note_off_c, 0, 64, 0
2, 512, Note_on_c, 0, 56, 101
2, 512, Note_on_c, 0, 64, 101
2, 1024, Note_on_c, 0, 40, 101
2, 1024, Note_on_c, 0, 52, 101
2, 1536, Note_off_c, 0, 56, 0
2, 1536, Note_off_c, 0, 64, 0
2, 1536, Note_off_c, 0, 40, 0
2, 1536, Note_off_c, 0, 52, 0
2, 1536, Note_on_c, 0, 40, 101
2, 1536, Note_on_c, 0, 52, 101
2, 2048, Note_on_c, 0, 64, 101
2, 2048, Note_on_c, 0, 68, 101
2, 2560, Note_off_c, 0, 64, 0
2, 2560, Note_off_c, 0, 68, 0
2, 2560, Note_off_c, 0, 40, 0
2, 2560, Note_off_c, 0, 52, 0
2, 2560, Note_on_c, 0, 64, 101
2, 2560, Note_on_c, 0, 68, 101
2, 3072, Note_on_c, 0, 40, 101
2, 3072, Note_on_c, 0, 52, 101
2, 3584, Note_off_c, 0, 64, 0
2, 3584, Note_off_c, 0, 68, 0
2, 3584, Note_off_c, 0, 40, 0
2, 3584, Note_off_c, 0, 52, 0
2, 3584, Note_on_c, 0, 40, 101
2, 3584, Note_on_c, 0, 52, 101
2, 4096, Note_on_c, 0, 68, 101
2, 4096, Note_on_c, 0, 71, 101
2, 4608, Note_off_c, 0, 68, 0
2, 4608, Note_off_c, 0, 71, 0
2, 4608, Note_off_c, 0, 40, 0
2, 4608, Note_off_c, 0, 52, 0
2, 4608, Note_on_c, 0, 68, 101
2, 4608, Note_on_c, 0, 71, 101
2, 5120, Note_on_c, 0, 40, 101
2, 5120, Note_on_c, 0, 52, 101
2, 5632, Note_off_c, 0, 68, 0
2, 5632, Note_off_c, 0, 71, 0
2, 5632, Note_off_c, 0, 40, 0
2, 5632, Note_off_c, 0, 52, 0
2, 5632, Note_on_c, 0, 40, 101
2, 5632, Note_on_c, 0, 52, 101
2, 6144, Note_on_c, 0, 68, 101
2, 6144, Note_on_c, 0, 76, 101
2, 6656, Note_off_c, 0, 68, 0
2, 6656, Note_off_c, 0, 76, 0
2, 6656, Note_off_c, 0, 40, 0
2, 6656, Note_off_c, 0, 52, 0
2, 6656, Note_on_c, 0, 68, 101
2, 6656, Note_on_c, 0, 76, 101
2, 7168, Note_on_c, 0, 40, 101
2, 7168, Note_on_c, 0, 52, 101
2, 7680, Note_off_c, 0, 68, 0
2, 7680, Note_off_c, 0, 76, 0
2, 7680, Note_off_c, 0, 40, 0
2, 7680, Note_off_c, 0, 52, 0
2, 7680, Note_on_c, 0, 40, 101
2, 7680, Note_on_c, 0, 52, 101
2, 8192, Note_on_c, 0, 68, 101
2, 8192, Note_on_c, 0, 71, 101
2, 8704, Note_off_c, 0, 68, 0
2, 8704, Note_off_c, 0, 71, 0
2, 8704, Note_off_c, 0, 40, 0
2, 8704, Note_off_c, 0, 52, 0
2, 8704, Note_on_c, 0, 66, 101
2, 8704, Note_on_c, 0, 69, 101
2, 8704, Note_on_c, 0, 35, 101
2, 8704, Note_on_c, 0, 47, 101
2, 9216, Note_off_c, 0, 66, 0
2, 9216, Note_off_c, 0, 69, 0
2, 9216, Note_on_c, 0, 64, 101
2, 9216, Note_on_c, 0, 68, 101
2, 9728, Note_off_c, 0, 64, 0
2, 9728, Note_off_c, 0, 68, 0
2, 9728, Note_on_c, 0, 66, 101
2, 9728, Note_on_c, 0, 69, 101
2, 9728, Note_off_c, 0, 35, 0
2, 9728, Note_off_c, 0, 47, 0
2, 9728, Note_on_c, 0, 35, 101
2, 9728, Note_on_c, 0, 47, 101
2, 10240, Note_off_c, 0, 66, 0
2, 10240, Note_off_c, 0, 69, 0
2, 10240, Note_on_c, 0, 63, 101
2, 10240, Note_on_c, 0, 66, 101
2, 10752, Note_off_c, 0, 63, 0
2, 10752, Note_off_c, 0, 66, 0
2, 10752, Note_off_c, 0, 35, 0
2, 10752, Note_off_c, 0, 47, 0
2, 10752, Note_on_c, 0, 64, 101
2, 10752, Note_on_c, 0, 68, 101
2, 10752, Note_on_c, 0, 40, 101
2, 10752, Note_on_c, 0, 52, 101
2, 11264, Note_off_c, 0, 64, 0
2, 11264, Note_off_c, 0, 68, 0
2, 11264, Note_on_c, 0, 68, 101
2, 11264, Note_on_c, 0, 71, 101
2, 11776, Note_off_c, 0, 68, 0
2, 11776, Note_off_c, 0, 71, 0
2, 11776, Note_off_c, 0, 40, 0
2, 11776, Note_off_c, 0, 52, 0
2, 12288, Note_on_c, 0, 68, 101
2, 12288, Note_on_c, 0, 71, 101
2, 12800, Note_off_c, 0, 68, 0
2, 12800, Note_off_c, 0, 71, 0
2, 12800, Note_on_c, 0, 66, 101
2, 12800, Note_on_c, 0, 69, 101
2, 12800, Note_on_c, 0, 35, 101
2, 12800, Note_on_c, 0, 47, 101
2, 13312, Note_off_c, 0, 66, 0
2, 13312, Note_off_c, 0, 69, 0
2, 13312, Note_on_c, 0, 64, 101
2, 13312, Note_on_c, 0, 68, 101
2, 13824, Note_off_c, 0, 64, 0
2, 13824, Note_off_c, 0, 68, 0
2, 13824, Note_on_c, 0, 66, 101
2, 13824, Note_on_c, 0, 69, 101
2, 13824, Note_off_c, 0, 35, 0
2, 13824, Note_off_c, 0, 47, 0
2, 13824, Note_on_c, 0, 35, 101
2, 13824, Note_on_c, 0, 47, 101
2, 14336, Note_off_c, 0, 66, 0
2, 14336, Note_off_c, 0, 69, 0
2, 14336, Note_on_c, 0, 63, 101
2, 14336, Note_on_c, 0, 66, 101
2, 14848, Note_off_c, 0, 63, 0
2, 14848, Note_off_c, 0, 66, 0
2, 14848, Note_off_c, 0, 35, 0
2, 14848, Note_off_c, 0, 47, 0
2, 14848, Note_on_c, 0, 64, 101
2, 14848, Note_on_c, 0, 40, 101
2, 14848, Note_on_c, 0, 52, 101
2, 15360, Note_off_c, 0, 64, 0
2, 15360, Note_on_c, 0, 59, 101
2, 15872, Note_off_c, 0, 59, 0
2, 15872, Note_off_c, 0, 40, 0
2, 15872, Note_off_c, 0, 52, 0
2, 16384, Note_on_c, 0, 55, 62
2, 16384, Note_on_c, 0, 64, 62
2, 16896, Note_off_c, 0, 55, 0
2, 16896, Note_off_c, 0, 64, 0
2, 16896, Note_on_c, 0, 55, 62
2, 16896, Note_on_c, 0, 64, 62
2, 17408, Note_on_c, 0, 40, 62
2, 17408, Note_on_c, 0, 52, 62
2, 17920, Note_off_c, 0, 55, 0
2, 17920, Note_off_c, 0, 64, 0
2, 17920, Note_off_c, 0, 40, 0
2, 17920, Note_off_c, 0, 52, 0
2, 17920, Note_on_c, 0, 40, 62
2, 17920, Note_on_c, 0, 52, 62
2, 18432, Note_on_c, 0, 64, 62
2, 18432, Note_on_c, 0, 67, 62
2, 18944, Note_off_c, 0, 64, 0
2, 18944, Note_off_c, 0, 67, 0
2, 18944, Note_off_c, 0, 40, 0
2, 18944, Note_off_c, 0, 52, 0
2, 18944, Note_on_c, 0, 64, 62
2, 18944, Note_on_c, 0, 67, 62
2, 19456, Note_on_c, 0, 40, 62
2, 19456, Note_on_c, 0, 52, 62
2, 19968, Note_off_c, 0, 64, 0
2, 19968, Note_off_c, 0, 67, 0
2, 19968, Note_off_c, 0, 40, 0
2, 19968, Note_off_c, 0, 52, 0
2, 19968, Note_on_c, 0, 40, 62
2, 19968, Note_on_c, 0, 52, 62
2, 20480, Note_on_c, 0, 67, 62
2, 20480, Note_on_c, 0, 71, 62
2, 20992, Note_off_c, 0, 67, 0
2, 20992, Note_off_c, 0, 71, 0
2, 20992, Note_off_c, 0, 40, 0
2, 20992, Note_off_c, 0, 52, 0
2, 20992, Note_on_c, 0, 67, 62
2, 20992, Note_on_c, 0, 71, 62
2, 21504, Note_on_c, 0, 40, 62
2, 21504, Note_on_c, 0, 52, 62
2, 22016, Note_off_c, 0, 67, 0
2, 22016, Note_off_c, 0, 71, 0
2, 22016, Note_off_c, 0, 40, 0
2, 22016, Note_off_c, 0, 52, 0
2, 22016, Note_on_c, 0, 40, 62
2, 22016, Note_on_c, 0, 52, 62
2, 22528, Note_on_c, 0, 67, 62
2, 22528, Note_on_c, 0, 76, 62
2, 23040, Note_off_c, 0, 67, 0
2, 23040, Note_off_c, 0, 76, 0
2, 23040, Note_off_c, 0, 40, 0
2, 23040, Note_off_c, 0, 52, 0
2, 23040, Note_on_c, 0, 67, 62
2, 23040, Note_on_c, 0, 76, 62
2, 23552, Note_on_c, 0, 40, 62
2, 23552, Note_on_c, 0, 52, 62
2, 24064, Note_off_c, 0, 67, 0
2, 24064, Note_off_c, 0, 76, 0
2, 24064, Note_off_c, 0, 40, 0
2, 24064, Note_off_c, 0, 52, 0
2, 24064, Note_on_c, 0, 40, 62
2, 24064, Note_on_c, 0, 52, 62
2, 24576, Note_on_c, 0, 67, 62
2, 24576, Note_on_c, 0, 71, 62
2, 25088, Note_off_c, 0, 67, 0
2, 25088, Note_off_c, 0, 71, 0
2, 25088, Note_off_c, 0, 40, 0
2, 25088, Note_off_c, 0, 52, 0
2, 25088, Note_on_c, 0, 35, 62
2, 25088, Note_on_c, 0, 47, 62
2, 25600, Note_on_c, 0, 66, 62
2, 25600, Note_on_c, 0, 69, 62
2, 25600, Note_off_c, 0, 35, 0
2, 25600, Note_off_c, 0, 47, 0
2, 26112, Note_off_c, 0, 66, 0
2, 26112, Note_off_c, 0, 69, 0
2, 26112, Note_on_c, 0, 35, 62
2, 26112, Note_on_c, 0, 47, 62
2, 26624, Note_on_c, 0, 64, 62
2, 26624, Note_on_c, 0, 67, 62
2, 26624, Note_off_c, 0, 35, 0
2, 26624, Note_off_c, 0, 47, 0
2, 27136, Note_off_c, 0, 64, 0
2, 27136, Note_off_c, 0, 67, 0
2, 27136, Note_on_c, 0, 35, 62
2, 27136, Note_on_c, 0, 47, 62
2, 27648, Note_on_c, 0, 63, 62
2, 27648, Note_on_c, 0, 66, 62
2, 28160, Note_off_c, 0, 63, 0
2, 28160, Note_off_c, 0, 66, 0
2, 28160, Note_on_c, 0, 59, 62
2, 28160, Note_off_c, 0, 35, 0
2, 28160, Note_off_c, 0, 47, 0
2, 28672, Note_off_c, 0, 59, 0
2, 28672, Note_on_c, 0, 67, 62
2, 28672, Note_on_c, 0, 71, 62
2, 29184, Note_off_c, 0, 67, 0
2, 29184, Note_off_c, 0, 71, 0
2, 29184, Note_on_c, 0, 35, 62
2, 29184, Note_on_c, 0, 47, 62
2, 29696, Note_on_c, 0, 66, 62
2, 29696, Note_on_c, 0, 69, 62
2, 29696, Note_off_c, 0, 35, 0
2, 29696, Note_off_c, 0, 47, 0
2, 30208, Note_off_c, 0, 66, 0
2, 30208, Note_off_c, 0, 69, 0
2, 30208, Note_on_c, 0, 35, 62
2, 30208, Note_on_c, 0, 47, 62
2, 30720, Note_on_c, 0, 64, 62
2, 30720, Note_on_c, 0, 67, 62
2, 30720, Note_off_c, 0, 35, 0
2, 30720, Note_off_c, 0, 47, 0
2, 31232, Note_off_c, 0, 64, 0
2, 31232, Note_off_c, 0, 67, 0
2, 31232, Note_on_c, 0, 35, 62
2, 31232, Note_on_c, 0, 47, 62
2, 31744, Note_on_c, 0, 63, 62
2, 31744, Note_on_c, 0, 66, 62
2, 32256, Note_off_c, 0, 63, 0
2, 32256, Note_off_c, 0, 66, 0
2, 32256, Note_on_c, 0, 59, 62
2, 32256, Note_off_c, 0, 35, 0
2, 32256, Note_off_c, 0, 47, 0
2, 32768, Note_off_c, 0, 59, 0
2, 32768, Note_on_c, 0, 67, 62
2, 32768, Note_on_c, 0, 71, 62
2, 33280, Note_off_c, 0, 67, 0
2, 33280, Note_off_c, 0, 71, 0
2, 33280, Note_on_c, 0, 35, 62
2, 33280, Note_on_c, 0, 47, 62
2, 33792, Note_on_c, 0, 66, 62
2, 33792, Note_on_c, 0, 69, 62
2, 33792, Note_off_c, 0, 35, 0
2, 33792, Note_off_c, 0, 47, 0
2, 34304, Note_off_c, 0, 66, 0
2, 34304, Note_off_c, 0, 69, 0
2, 34304, Note_on_c, 0, 35, 62
2, 34304, Note_on_c, 0, 47, 62
2, 34816, Note_on_c, 0, 64, 62
2, 34816, Note_on_c, 0, 67, 62
2, 34816, Note_off_c, 0, 35, 0
2, 34816, Note_off_c, 0, 47, 0
2, 35328, Note_off_c, 0, 64, 0
2, 35328, Note_off_c, 0, 67, 0
2, 35328, Note_on_c, 0, 63, 62
2, 35328, Note_on_c, 0, 66, 62
2, 35328, Note_on_c, 0, 35, 62
2, 35328, Note_on_c, 0, 47, 62
2, 36352, Note_off_c, 0, 63, 0
2, 36352, Note_off_c, 0, 66, 0
2, 36352, Note_off_c, 0, 35, 0
2, 36352, Note_off_c, 0, 47, 0
2, 37376, Note_on_c, 0, 75, 101
2, 37376, Note_on_c, 0, 51, 101
2, 37376, Note_on_c, 0, 63, 101
2, 37632, Note_off_c, 0, 75, 0
2, 37632, Note_on_c, 0, 71, 101
2, 37888, Note_off_c, 0, 71, 0
2, 37888, Note_on_c, 0, 78, 101
2, 38144, Note_off_c, 0, 78, 0
2, 38144, Note_on_c, 0, 75, 101
2, 38400, Note_off_c, 0, 75, 0
2, 38400, Note_on_c, 0, 83, 101
2, 38400, Note_off_c, 0, 51, 0
2, 38400, Note_off_c, 0, 63, 0
2, 38656, Note_off_c, 0, 83, 0
2, 38656, Note_on_c, 0, 78, 101
2, 38912, Note_off_c, 0, 78, 0
2, 38912, Note_on_c, 0, 75, 101
2, 38912, Note_on_c, 0, 51, 101
2, 38912, Note_on_c, 0, 63, 101
2, 39168, Note_off_c, 0, 75, 0
2, 39168, Note_on_c, 0, 71, 101
2, 39424, Note_off_c, 0, 71, 0
2, 39424, Note_off_c, 0, 51, 0
2, 39424, Note_off_c, 0, 63, 0
2, 39424, Note_on_c, 0, 75, 101
2, 39424, Note_on_c, 0, 52, 101
2, 39424, Note_on_c, 0, 64, 101
2, 39680, Note_off_c, 0, 75, 0
2, 39680, Note_on_c, 0, 71, 101
2, 39936, Note_off_c, 0, 71, 0
2, 39936, Note_on_c, 0, 78, 101
2, 40192, Note_off_c, 0, 78, 0
2, 40192, Note_on_c, 0, 75, 101
2, 40448, Note_off_c, 0, 75, 0
2, 40448, Note_on_c, 0, 83, 101
2, 40448, Note_off_c, 0, 52, 0
2, 40448, Note_off_c, 0, 64, 0
2, 40704, Note_off_c, 0, 83, 0
2, 40704, Note_on_c, 0, 78, 101
2, 40960, Note_off_c, 0, 78, 0
2, 40960, Note_on_c, 0, 75, 101
2, 40960, Note_on_c, 0, 52, 101
2, 40960, Note_on_c, 0, 64, 101
2, 41216, Note_off_c, 0, 75, 0
2, 41216, Note_on_c, 0, 71, 101
2, 41472, Note_off_c, 0, 71, 0
2, 41472, Note_off_c, 0, 52, 0
2, 41472, Note_off_c, 0, 64, 0
2, 41472, Note_on_c, 0, 75, 101
2, 41472, Note_on_c, 0, 54, 101
2, 41472, Note_on_c, 0, 66, 101
2, 41728, Note_off_c, 0, 75, 0
2, 41728, Note_on_c, 0, 71, 101
2, 41984, Note_off_c, 0, 71, 0
2, 41984, Note_on_c, 0, 78, 101
2, 42240, Note_off_c, 0, 78, 0
2, 42240, Note_on_c, 0, 75, 101
2, 42496, Note_off_c, 0, 75, 0
2, 42496, Note_on_c, 0, 83, 101
2, 42496, Note_off_c, 0, 54, 0
2, 42496, Note_off_c, 0, 66, 0
2, 42752, Note_off_c, 0, 83, 0
2, 42752, Note_on_c, 0, 78, 101
2, 43008, Note_off_c, 0, 78, 0
2, 43008, Note_on_c, 0, 75, 101
2, 43008, Note_on_c, 0, 54, 101
2, 43008, Note_on_c, 0, 66, 101
2, 43264, Note_off_c, 0, 75, 0
2, 43264, Note_on_c, 0, 71, 101
2, 43520, Note_off_c, 0, 71, 0
2, 43520, Note_off_c, 0, 54, 0
2, 43520, Note_off_c, 0, 66, 0
2, 43520, Note_on_c, 0, 76, 101
2, 43520, Note_on_c, 0, 56, 101
2, 43520, Note_on_c, 0, 68, 101
2, 43776, Note_off_c, 0, 76, 0
2, 43776, Note_on_c, 0, 71, 101
2, 44032, Note_off_c, 0, 71, 0
2, 44032, Note_on_c, 0, 80, 101
2, 44288, Note_off_c, 0, 80, 0
2, 44288, Note_on_c, 0, 76, 101
2, 44544, Note_off_c, 0, 76, 0
2, 44544, Note_on_c, 0, 83, 101
2, 44544, Note_off_c, 0, 56, 0
2, 44544, Note_off_c, 0, 68, 0
2, 44800, Note_off_c, 0, 83, 0
2, 44800, Note_on_c, 0, 80, 101
2, 45056, Note_off_c, 0, 80, 0
2, 45056, Note_on_c, 0, 76, 101
2, 45056, Note_on_c, 0, 56, 101
2, 45056, Note_on_c, 0, 68, 101
2, 45312, Note_off_c, 0, 76, 0
2, 45312, Note_on_c, 0, 71, 101
2, 45568, Note_off_c, 0, 71, 0
2, 45568, Note_off_c, 0, 56, 0
2, 45568, Note_off_c, 0, 68, 0
2, 45568, Note_on_c, 0, 83, 101
2, 45568, Note_on_c, 0, 51, 101
2, 45568, Note_on_c, 0, 63, 101
2, 45824, Note_off_c, 0, 83, 0
2, 45824, Note_on_c, 0, 78, 101
2, 46080, Note_off_c, 0, 78, 0
2, 46080, Note_on_c, 0, 75, 101
2, 46336, Note_off_c, 0, 75, 0
2, 46336, Note_on_c, 0, 71, 101
2, 46592, Note_off_c, 0, 71, 0
2, 46592, Note_on_c, 0, 83, 101
2, 46592, Note_off_c, 0, 51, 0
2, 46592, Note_off_c, 0, 63, 0
2, 46592, Note_on_c, 0, 52, 101
2, 46592, Note_on_c, 0, 64, 101
2, 46848, Note_off_c, 0, 83, 0
2, 46848, Note_on_c, 0, 80, 101
2, 47104, Note_off_c, 0, 80, 0
2, 47104, Note_on_c, 0, 76, 101
2, 47360, Note_off_c, 0, 76, 0
2, 47360, Note_on_c, 0, 71, 101
2, 47616, Note_off_c, 0, 71, 0
2, 47616, Note_off_c, 0, 52, 0
2, 47616, Note_off_c, 0, 64, 0
2, 47616, Note_on_c, 0, 83, 101
2, 47616, Note_on_c, 0, 51, 101
2, 47616, Note_on_c, 0, 63, 101
2, 47872, Note_off_c, 0, 83, 0
2, 47872, Note_on_c, 0, 78, 101
2, 48128, Note_off_c, 0, 78, 0
2, 48128, Note_on_c, 0, 75, 101
2, 48384, Note_off_c, 0, 75, 0
2, 48384, Note_on_c, 0, 71, 101
2, 48640, Note_off_c, 0, 71, 0
2, 48640, Note_on_c, 0, 83, 101
2, 48640, Note_off_c, 0, 51, 0
2, 48640, Note_off_c, 0, 63, 0
2, 48640, Note_on_c, 0, 52, 101
2, 48640, Note_on_c, 0, 64, 101
2, 48896, Note_off_c, 0, 83, 0
2, 48896, Note_on_c, 0, 80, 101
2, 49152, Note_off_c, 0, 80, 0
2, 49152, Note_on_c, 0, 76, 101
2, 49408, Note_off_c, 0, 76, 0
2, 49408, Note_on_c, 0, 71, 101
2, 49664, Note_off_c, 0, 71, 0
2, 49664, Note_off_c, 0, 52, 0
2, 49664, Note_off_c, 0, 64, 0
2, 49664, Note_on_c, 0, 83, 101
2, 49664, Note_on_c, 0, 51, 101
2, 49664, Note_on_c, 0, 63, 101
2, 49920, Note_off_c, 0, 83, 0
2, 49920, Note_on_c, 0, 78, 101
2, 50176, Note_off_c, 0, 78, 0
2, 50176, Note_on_c, 0, 75, 101
2, 50432, Note_off_c, 0, 75, 0
2, 50432, Note_on_c, 0, 71, 101
2, 50688, Note_off_c, 0, 71, 0
2, 50688, Note_on_c, 0, 83, 101
2, 50688, Note_off_c, 0, 51, 0
2, 50688, Note_off_c, 0, 63, 0
2, 50688, Note_on_c, 0, 52, 101
2, 50688, Note_on_c, 0, 64, 101
2, 50944, Note_off_c, 0, 83, 0
2, 50944, Note_on_c, 0, 80, 101
2, 51200, Note_off_c, 0, 80, 0
2, 51200, Note_on_c, 0, 76, 101
2, 51456, Note_off_c, 0, 76, 0
2, 51456, Note_on_c, 0, 71, 101
2, 51712, Note_off_c, 0, 71, 0
2, 51712, Note_off_c, 0, 52, 0
2, 51712, Note_off_c, 0, 64, 0
2, 51712, Note_on_c, 0, 73, 101
2, 51712, Note_on_c, 0, 66, 101
2, 51840, Note_off_c, 0, 73, 0
2, 51840, Note_on_c, 0, 75, 101
2, 51968, Note_off_c, 0, 75, 0
2, 51968, Note_on_c, 0, 73, 101
2, 52096, Note_off_c, 0, 73, 0
2, 52096, Note_on_c, 0, 75, 101
2, 52224, Note_off_c, 0, 75, 0
2, 52224, Note_on_c, 0, 73, 101
2, 52352, Note_off_c, 0, 73, 0
2, 52352, Note_on_c, 0, 75, 101
2, 52480, Note_off_c, 0, 75, 0
2, 52480, Note_on_c, 0, 73, 101
2, 52608, Note_off_c, 0, 73, 0
2, 52608, Note_on_c, 0, 75, 101
2, 52736, Note_off_c, 0, 75, 0
2, 52736, Note_on_c, 0, 73, 101
2, 52736, Note_off_c, 0, 66, 0
2, 52736, Note_on_c, 0, 54, 101
2, 52864, Note_off_c, 0, 73, 0
2, 52864, Note_on_c, 0, 75, 101
2, 52992, Note_off_c, 0, 75, 0
2, 52992, Note_on_c, 0, 73, 101
2, 53120, Note_off_c, 0, 73, 0
2, 53120, Note_on_c, 0, 75, 101
2, 53248, Note_off_c, 0, 75, 0
2, 53248, Note_on_c, 0, 73, 101
2, 53376, Note_off_c, 0, 73, 0
2, 53376, Note_on_c, 0, 75, 101
2, 53504, Note_off_c, 0, 75, 0
2, 53504, Note_on_c, 0, 73, 101
2, 53632, Note_off_c, 0, 73, 0
2, 53632, Note_on_c, 0, 75, 101
2, 53760, Note_off_c, 0, 75, 0
2, 53760, Note_off_c, 0, 54, 0
2, 53760, Note_on_c, 0, 71, 101
2, 53760, Note_on_c, 0, 59, 101
2, 54784, Note_off_c, 0, 71, 0
2, 54784, Note_off_c, 0, 59, 0
2, 55296, Note_on_c, 0, 75, 62
2, 55296, Note_on_c, 0, 78, 62
2, 55808, Note_off_c, 0, 75, 0
2, 55808, Note_off_c, 0, 78, 0
2, 55808, Note_on_c, 0, 75, 62
2, 55808, Note_on_c, 0, 78, 62
2, 56320, Note_off_c, 0, 75, 0
2, 56320, Note_off_c, 0, 78, 0
2, 56320, Note_on_c, 0, 71, 62
2, 56320, Note_on_c, 0, 75, 62
2, 56832, Note_off_c, 0, 71, 0
2, 56832, Note_off_c, 0, 75, 0
2, 56832, Note_on_c, 0, 71, 62
2, 56832, Note_on_c, 0, 75, 62
2, 57344, Note_off_c, 0, 71, 0
2, 57344, Note_off_c, 0, 75, 0
2, 57344, Note_on_c, 0, 75, 62
2, 57344, Note_on_c, 0, 78, 62
2, 57856, Note_off_c, 0, 75, 0
2, 57856, Note_off_c, 0, 78, 0
2, 57856, Note_on_c, 0, 73, 62
2, 57856, Note_on_c, 0, 76, 62
2, 58368, Note_off_c, 0, 73, 0
2, 58368, Note_off_c, 0, 76, 0
2, 58368, Note_on_c, 0, 70, 62
2, 58368, Note_on_c, 0, 73, 62
2, 58880, Note_off_c, 0, 70, 0
2, 58880, Note_off_c, 0, 73, 0
2, 59392, Note_on_c, 0, 66, 101
2, 59392, Note_on_c, 0, 54, 101
2, 59802, Note_off_c, 0, 66, 0
2, 59802, Note_off_c, 0, 54, 0
2, 59904, Note_on_c, 0, 71, 101
2, 59904, Note_on_c, 0, 59, 101
2, 60314, Note_off_c, 0, 71, 0
2, 60314, Note_off_c, 0, 59, 0
2, 60416, Note_on_c, 0, 66, 101
2, 60416, Note_on_c, 0, 54, 101
2, 60826, Note_off_c, 0, 66, 0
2, 60826, Note_off_c, 0, 54, 0
2, 60928, Note_on_c, 0, 71, 101
2, 60928, Note_on_c, 0, 59, 101
2, 61184, Note_off_c, 0, 71, 0
2, 61184, Note_on_c, 0, 66, 101
2, 61184, Note_off_c, 0, 59, 0
2, 61184, Note_on_c, 0, 54, 101
2, 61440, Note_off_c, 0, 66, 0
2, 61440, Note_on_c, 0, 63, 101
2, 61440, Note_off_c, 0, 54, 0
2, 61440, Note_on_c, 0, 51, 101
2, 61696, Note_off_c, 0, 63, 0
2, 61696, Note_on_c, 0, 59, 101
2, 61696, Note_off_c, 0, 51, 0
2, 61696, Note_on_c, 0, 47, 101
2, 61952, Note_off_c, 0, 59, 0
2, 61952, Note_off_c, 0, 47, 0
2, 61952, Note_on_c, 0, 66, 101
2, 61952, Note_on_c, 0, 54, 101
2, 62976, Note_off_c, 0, 66, 0
2, 62976, Note_off_c, 0, 54, 0
2, 63488, Note_on_c, 0, 74, 62
2, 63488, Note_on_c, 0, 78, 62
2, 64000, Note_off_c, 0, 74, 0
2, 64000, Note_off_c, 0, 78, 0
2, 64000, Note_on_c, 0, 74, 62
2, 64000, Note_on_c, 0, 78, 62
2, 64512, Note_off_c, 0, 74, 0
2, 64512, Note_off_c, 0, 78, 0
2, 64512, Note_on_c, 0, 71, 62
2, 64512, Note_on_c, 0, 74, 62
2, 65024, Note_off_c, 0, 71, 0
2, 65024, Note_off_c, 0, 74, 0
2, 65024, Note_on_c, 0, 71, 62
2, 65024, Note_on_c, 0, 74, 62
2, 65536, Note_off_c, 0, 71, 0
2, 65536, Note_off_c, 0, 74, 0
2, 65536, Note_on_c, 0, 74, 62
2, 65536, Note_on_c, 0, 78, 62
2, 66048, Note_off_c, 0, 74, 0
2, 66048, Note_off_c, 0, 78, 0
2, 66048, Note_on_c, 0, 73, 62
2, 66048, Note_on_c, 0, 76, 62
2, 66560, Note_off_c, 0, 73, 0
2, 66560, Note_off_c, 0, 76, 0
2, 66560, Note_on_c, 0, 70, 62
2, 66560, Note_on_c, 0, 73, 62
2, 67072, Note_off_c, 0, 70, 0
2, 67072, Note_off_c, 0, 73, 0
2, 67584, Note_on_c, 0, 70, 101
2, 68096, Note_off_c, 0, 70, 0
2, 68096, Note_on_c, 0, 71, 101
2, 68096, Note_on_c, 0, 62, 101
2, 68096, Note_on_c, 0, 55, 101
2, 68864, Note_off_c, 0, 71, 0
2, 68864, Note_on_c, 0, 70, 101
2, 69120, Note_off_c, 0, 70, 0
2, 69120, Note_on_c, 0, 71, 101
2, 69120, Note_off_c, 0, 62, 0
2, 69120, Note_on_c, 0, 65, 101
2, 69376, Note_off_c, 0, 71, 0
2, 69376, Note_on_c, 0, 74, 101
2, 69632, Note_off_c, 0, 74, 0
2, 69632, Note_on_c, 0, 73, 101
2, 69888, Note_off_c, 0, 73, 0
2, 69888, Note_on_c, 0, 71, 101
2, 70144, Note_off_c, 0, 71, 0
2, 70144, Note_off_c, 0, 65, 0
2, 70144, Note_off_c, 0, 55, 0
2, 70144, Note_on_c, 0, 70, 101
2, 70144, Note_on_c, 0, 54, 101
2, 70144, Note_on_c, 0, 66, 101
2, 71168, Note_off_c, 0, 70, 0
2, 71168, Note_off_c, 0, 54, 0
2, 71168, Note_off_c, 0, 66, 0
2, 71680, Note_on_c, 0, 63, 75
2, 71680, Note_on_c, 0, 71, 75
2, 72192, Note_off_c, 0, 63, 0
2, 72192, Note_off_c, 0, 71, 0
2, 72192, Note_on_c, 0, 63, 75
2, 72192, Note_on_c, 0, 71, 75
2, 72192, Note_on_c, 0, 47, 75
2, 72192, Note_on_c, 0, 59, 75
2, 72704, Note_off_c, 0, 63, 0
2, 72704, Note_off_c, 0, 71, 0
2, 72704, Note_on_c, 0, 71, 75
2, 72704, Note_on_c, 0, 75, 75
2, 73216, Note_off_c, 0, 71, 0
2, 73216, Note_off_c, 0, 75, 0
2, 73216, Note_on_c, 0, 71, 75
2, 73216, Note_on_c, 0, 75, 75
2, 73216, Note_off_c, 0, 47, 0
2, 73216, Note_off_c, 0, 59, 0
2, 73728, Note_off_c, 0, 71, 0
2, 73728, Note_off_c, 0, 75, 0
2, 73728, Note_on_c, 0, 75, 75
2, 73728, Note_on_c, 0, 78, 75
2, 74240, Note_off_c, 0, 75, 0
2, 74240, Note_off_c, 0, 78, 0
2, 74240, Note_on_c, 0, 78, 75
2, 74240, Note_on_c, 0, 75, 75
2, 75008, Note_off_c, 0, 78, 0
2, 75008, Note_on_c, 0, 83, 75
2, 75264, Note_off_c, 0, 83, 0
2, 75264, Note_on_c, 0, 78, 75
2, 75776, Note_off_c, 0, 78, 0
2, 75776, Note_off_c, 0, 75, 0
2, 76288, Note_on_c, 0, 80, 75
2, 76288, Note_on_c, 0, 64, 75
2, 76544, Note_off_c, 0, 64, 0
2, 76544, Note_on_c, 0, 71, 75
2, 76800, Note_off_c, 0, 71, 0
2, 76800, Note_on_c, 0, 68, 75
2, 77056, Note_off_c, 0, 80, 0
2, 77056, Note_on_c, 0, 82, 75
2, 77056, Note_off_c, 0, 68, 0
2, 77056, Note_on_c, 0, 71, 75
2, 77312, Note_off_c, 0, 82, 0
2, 77312, Note_on_c, 0, 83, 75
2, 77312, Note_off_c, 0, 71, 0
2, 77312, Note_on_c, 0, 63, 75
2, 77568, Note_off_c, 0, 63, 0
2, 77568, Note_on_c, 0, 71, 75
2, 77824, Note_off_c, 0, 83, 0
2, 77824, Note_off_c, 0, 71, 0
2, 77824, Note_on_c, 0, 66, 75
2, 78080, Note_off_c, 0, 66, 0
2, 78080, Note_on_c, 0, 71, 75
2, 78336, Note_off_c, 0, 71, 0
2, 78336, Note_on_c, 0, 80, 49
2, 78336, Note_on_c, 0, 64, 49
2, 78592, Note_off_c, 0, 64, 0
2, 78592, Note_on_c, 0, 71, 49
2, 78848, Note_off_c, 0, 71, 0
2, 78848, Note_on_c, 0, 68, 49
2, 79104, Note_off_c, 0, 80, 0
2, 79104, Note_on_c, 0, 82, 49
2, 79104, Note_off_c, 0, 68, 0
2, 79104, Note_on_c, 0, 71, 49
2, 79360, Note_off_c, 0, 82, 0
2, 79360, Note_on_c, 0, 83, 49
2, 79360, Note_off_c, 0, 71, 0
2, 79360, Note_on_c, 0, 63, 49
2, 79616, Note_off_c, 0, 63, 0
2, 79616, Note_on_c, 0, 71, 49
2, 79872, Note_off_c, 0, 83, 0
2, 79872, Note_off_c, 0, 71, 0
2, 79872, Note_on_c, 0, 66, 49
2, 80128, Note_off_c, 0, 66, 0
2, 80128, Note_on_c, 0, 71, 49
2, 80384, Note_off_c, 0, 71, 0
2, 80384, Note_on_c, 0, 80, 101
2, 80384, Note_on_c, 0, 64, 101
2, 80640, Note_off_c, 0, 80, 0
2, 80640, Note_on_c, 0, 83, 101
2, 80896, Note_off_c, 0, 83, 0
2, 80896, Note_on_c, 0, 82, 101
2, 81152, Note_off_c, 0, 82, 0
2, 81152, Note_on_c, 0, 80, 101
2, 81408, Note_off_c, 0, 80, 0
2, 81408, Note_on_c, 0, 78, 101
2, 81408, Note_off_c, 0, 64, 0
2, 81664, Note_off_c, 0, 78, 0
2, 81664, Note_on_c, 0, 76, 101
2, 81920, Note_off_c, 0, 76, 0
2, 81920, Note_on_c, 0, 75, 101
2, 82176, Note_off_c, 0, 75, 0
2, 82176, Note_on_c, 0, 73, 101
2, 82432, Note_off_c, 0, 73, 0
2, 82432, Note_on_c, 0, 71, 101
2, 82432, Note_on_c, 0, 54, 101
2, 82432, Note_on_c, 0, 59, 101
2, 82688, Note_off_c, 0, 71, 0
2, 82688, Note_on_c, 0, 73, 101
2, 82816, Note_off_c, 0, 73, 0
2, 82816, Note_on_c, 0, 75, 101
2, 82944, Note_off_c, 0, 75, 0
2, 82944, Note_on_c, 0, 73, 101
2, 83072, Note_off_c, 0, 73, 0
2, 83072, Note_on_c, 0, 75, 101
2, 83200, Note_off_c, 0, 75, 0
2, 83200, Note_on_c, 0, 73, 101
2, 83328, Note_off_c, 0, 73, 0
2, 83328, Note_on_c, 0, 75, 101
2, 83456, Note_off_c, 0, 75, 0
2, 83456, Note_on_c, 0, 73, 101
2, 83456, Note_off_c, 0, 54, 0
2, 83456, Note_off_c, 0, 59, 0
2, 83456, Note_on_c, 0, 54, 101
2, 83456, Note_on_c, 0, 58, 101
2, 83584, Note_off_c, 0, 73, 0
2, 83584, Note_on_c, 0, 75, 101
2, 83712, Note_off_c, 0, 75, 0
2, 83712, Note_on_c, 0, 73, 101
2, 83840, Note_off_c, 0, 73, 0
2, 83840, Note_on_c, 0, 75, 101
2, 83968, Note_off_c, 0, 75, 0
2, 83968, Note_on_c, 0, 73, 101
2, 84096, Note_off_c, 0, 73, 0
2, 84096, Note_on_c, 0, 75, 101
2, 84224, Note_off_c, 0, 75, 0
2, 84224, Note_on_c, 0, 73, 101
2, 84352, Note_off_c, 0, 73, 0
2, 84352, Note_on_c, 0, 75, 101
2, 84480, Note_off_c, 0, 75, 0
2, 84480, Note_off_c, 0, 54, 0
2, 84480, Note_off_c, 0, 58, 0
2, 84480, Note_on_c, 0, 71, 101
2, 84480, Note_on_c, 0, 47, 101
2, 84736, Note_off_c, 0, 47, 0
2, 84736, Note_on_c, 0, 51, 101
2, 84992, Note_off_c, 0, 51, 0
2, 84992, Note_on_c, 0, 54, 101
2, 85248, Note_off_c, 0, 54, 0
2, 85248, Note_on_c, 0, 59, 101
2, 85504, Note_off_c, 0, 71, 0
2, 85504, Note_on_c, 0, 75, 101
2, 85504, Note_on_c, 0, 83, 101
2, 85504, Note_off_c, 0, 59, 0
2, 85504, Note_on_c, 0, 47, 101
2, 85760, Note_off_c, 0, 47, 0
2, 85760, Note_on_c, 0, 51, 101
2, 86016, Note_off_c, 0, 75, 0
2, 86016, Note_off_c, 0, 83, 0
2, 86016, Note_off_c, 0, 51, 0
2, 86016, Note_on_c, 0, 54, 101
2, 86272, Note_off_c, 0, 54, 0
2, 86272, Note_on_c, 0, 59, 101
2, 86528, Note_off_c, 0, 59, 0
2, 86528, Note_on_c, 0, 75, 101
2, 86528, Note_on_c, 0, 83, 101
2, 86528, Note_on_c, 0, 47, 101
2, 87552, Note_off_c, 0, 75, 0
2, 87552, Note_off_c, 0, 83, 0
2, 87552, Note_off_c, 0, 47, 0
2, 88064, Note_on_c, 0, 56, 101
2, 88064, Note_on_c, 0, 64, 101
2, 88576, Note_off_c, 0, 56, 0
2, 88576, Note_off_c, 0, 64, 0
2, 88576, Note_on_c, 0, 56, 101
2, 88576, Note_on_c, 0, 64, 101
2, 89088, Note_on_c, 0, 40, 101
2, 89088, Note_on_c, 0, 52, 101
2, 89600, Note_off_c, 0, 56, 0
2, 89600, Note_off_c, 0, 64, 0
2, 89600, Note_off_c, 0, 40, 0
2, 89600, Note_off_c, 0, 52, 0
2, 89600, Note_on_c, 0, 40, 101
2, 89600, Note_on_c, 0, 52, 101
2, 90112, Note_on_c, 0, 64, 101
2, 90112, Note_on_c, 0, 68, 101
2, 90624, Note_off_c, 0, 64, 0
2, 90624, Note_off_c, 0, 68, 0
2, 90624, Note_off_c, 0, 40, 0
2, 90624, Note_off_c, 0, 52, 0
2, 90624, Note_on_c, 0, 64, 101
2, 90624, Note_on_c, 0, 68, 101
2, 91136, Note_on_c, 0, 40, 101
2, 91136, Note_on_c, 0, 52, 101
2, 91648, Note_off_c, 0, 64, 0
2, 91648, Note_off_c, 0, 68, 0
2, 91648, Note_off_c, 0, 40, 0
2, 91648, Note_off_c, 0, 52, 0
2, 91648, Note_on_c, 0, 40, 101
2, 91648, Note_on_c, 0, 52, 101
2, 92160, Note_on_c, 0, 68, 101
2, 92160, Note_on_c, 0, 71, 101
2, 92672, Note_off_c, 0, 68, 0
2, 92672, Note_off_c, 0, 71, 0
2, 92672, Note_off_c, 0, 40, 0
2, 92672, Note_off_c, 0, 52, 0
2, 92672, Note_on_c, 0, 68, 101
2, 92672, Note_on_c, 0, 71, 101
2, 93184, Note_on_c, 0, 40, 101
2, 93184, Note_on_c, 0, 52, 101
2, 93696, Note_off_c, 0, 68, 0
2, 93696, Note_off_c, 0, 71, 0
2, 93696, Note_off_c, 0, 40, 0
2, 93696, Note_off_c, 0, 52, 0
2, 93696, Note_on_c, 0, 40, 101
2, 93696, Note_on_c, 0, 52, 101
2, 94208, Note_on_c, 0, 68, 101
2, 94208, Note_on_c, 0, 76, 101
2, 94720, Note_off_c, 0, 68, 0
2, 94720, Note_off_c, 0, 76, 0
2, 94720, Note_off_c, 0, 40, 0
2, 94720, Note_off_c, 0, 52, 0
2, 94720, Note_on_c, 0, 68, 101
2, 94720, Note_on_c, 0, 76, 101
2, 95232, Note_on_c, 0, 40, 101
2, 95232, Note_on_c, 0, 52, 101
2, 95744, Note_off_c, 0, 68, 0
2, 95744, Note_off_c, 0, 76, 0
2, 95744, Note_off_c, 0, 40, 0
2, 95744, Note_off_c, 0, 52, 0
2, 95744, Note_on_c, 0, 40, 101
2, 95744, Note_on_c, 0, 52, 101
2, 96256, Note_on_c, 0, 68, 101
2, 96256, Note_on_c, 0, 71, 101
2, 96768, Note_off_c, 0, 68, 0
2, 96768, Note_off_c, 0, 71, 0
2, 96768, Note_off_c, 0, 40, 0
2, 96768, Note_off_c, 0, 52, 0
2, 96768, Note_on_c, 0, 66, 101
2, 96768, Note_on_c, 0, 69, 101
2, 96768, Note_on_c, 0, 35, 101
2, 96768, Note_on_c, 0, 47, 101
2, 97280, Note_off_c, 0, 66, 0
2, 97280, Note_off_c, 0, 69, 0
2, 97280, Note_on_c, 0, 64, 101
2, 97280, Note_on_c, 0, 68, 101
2, 97792, Note_off_c, 0, 64, 0
2, 97792, Note_off_c, 0, 68, 0
2, 97792, Note_on_c, 0, 66, 101
2, 97792, Note_on_c, 0, 69, 101
2, 97792, Note_off_c, 0, 35, 0
2, 97792, Note_off_c, 0, 47, 0
2, 97792, Note_on_c, 0, 35, 101
2, 97792, Note_on_c, 0, 47, 101
2, 98304, Note_off_c, 0, 66, 0
2, 98304, Note_off_c, 0, 69, 0
2, 98304, Note_on_c, 0, 63, 101
2, 98304, Note_on_c, 0, 66, 101
2, 98816, Note_off_c, 0, 63, 0
2, 98816, Note_off_c, 0, 66, 0
2, 98816, Note_off_c, 0, 35, 0
2, 98816, Note_off_c, 0, 47, 0
2, 98816, Note_on_c, 0, 64, 101
2, 98816, Note_on_c, 0, 68, 101
2, 98816, Note_on_c, 0, 40, 101
2, 98816, Note_on_c, 0, 52, 101
2, 99328, Note_off_c, 0, 64, 0
2, 99328, Note_off_c, 0, 68, 0
2, 99328, Note_on_c, 0, 68, 101
2, 99328, Note_on_c, 0, 71, 101
2, 99840, Note_off_c, 0, 68, 0
2, 99840, Note_off_c, 0, 71, 0
2, 99840, Note_off_c, 0, 40, 0
2, 99840, Note_off_c, 0, 52, 0
2, 100352, Note_on_c, 0, 68, 101
2, 100352, Note_on_c, 0, 71, 101
2, 100864, Note_off_c, 0, 68, 0
2, 100864, Note_off_c, 0, 71, 0
2, 100864, Note_on_c, 0, 66, 101
2, 100864, Note_on_c, 0, 69, 101
2, 100864, Note_on_c, 0, 35, 101
2, 100864, Note_on_c, 0, 47, 101
2, 101376, Note_off_c, 0, 66, 0
2, 101376, Note_off_c, 0, 69, 0
2, 101376, Note_on_c, 0, 64, 101
2, 101376, Note_on_c, 0, 68, 101
2, 101888, Note_off_c, 0, 64, 0
2, 101888, Note_off_c, 0, 68, 0
2, 101888, Note_on_c, 0, 66, 101
2, 101888, Note_on_c, 0, 69, 101
2, 101888, Note_off_c, 0, 35, 0
2, 101888, Note_off_c, 0, 47, 0
2, 101888, Note_on_c, 0, 35, 101
2, 101888, Note_on_c, 0, 47, 101
2, 102400, Note_off_c, 0, 66, 0
2, 102400, Note_off_c, 0, 69, 0
2, 102400, Note_on_c, 0, 63, 101
2, 102400, Note_on_c, 0, 66, 101
2, 102912, Note_off_c, 0, 63, 0
2, 102912, Note_off_c, 0, 66, 0
2, 102912, Note_off_c, 0, 35, 0
2, 102912, Note_off_c, 0, 47, 0
2, 102912, Note_on_c, 0, 64, 101
2, 102912, Note_on_c, 0, 40, 101
2, 102912, Note_on_c, 0, 52, 101
2, 103424, Note_off_c, 0, 64, 0
2, 103424, Note_on_c, 0, 59, 101
2, 103936, Note_off_c, 0, 59, 0
2, 103936, Note_off_c, 0, 40, 0
2, 103936, Note_off_c, 0, 52, 0
2, 104448, Note_on_c, 0, 55, 62
2, 104448, Note_on_c, 0, 64, 62
2, 104960, Note_off_c, 0, 55, 0
2, 104960, Note_off_c, 0, 64, 0
2, 104960, Note_on_c, 0, 55, 62
2, 104960, Note_on_c, 0, 64, 62
2, 105472, Note_on_c, 0, 40, 62
2, 105472, Note_on_c, 0, 52, 62
2, 105984, Note_off_c, 0, 55, 0
2, 105984, Note_off_c, 0, 64, 0
2, 105984, Note_off_c, 0, 40, 0
2, 105984, Note_off_c, 0, 52, 0
2, 105984, Note_on_c, 0, 40, 62
2, 105984, Note_on_c, 0, 52, 62
2, 106496, Note_on_c, 0, 64, 62
2, 106496, Note_on_c, 0, 67, 62
2, 107008, Note_off_c, 0, 64, 0
2, 107008, Note_off_c, 0, 67, 0
2, 107008, Note_off_c, 0, 40, 0
2, 107008, Note_off_c, 0, 52, 0
2, 107008, Note_on_c, 0, 64, 62
2, 107008, Note_on_c, 0, 67, 62
2, 107520, Note_on_c, 0, 40, 62
2, 107520, Note_on_c, 0, 52, 62
2, 108032, Note_off_c, 0, 64, 0
2, 108032, Note_off_c, 0, 67, 0
2, 108032, Note_off_c, 0, 40, 0
2, 108032, Note_off_c, 0, 52, 0
2, 108032, Note_on_c, 0, 40, 62
2, 108032, Note_on_c, 0, 52, 62
2, 108544, Note_on_c, 0, 67, 62
2, 108544, Note_on_c, 0, 71, 62
2, 109056, Note_off_c, 0, 67, 0
2, 109056, Note_off_c, 0, 71, 0
2, 109056, Note_off_c, 0, 40, 0
2, 109056, Note_off_c, 0, 52, 0
2, 109056, Note_on_c, 0, 67, 62
2, 109056, Note_on_c, 0, 71, 62
2, 109568, Note_on_c, 0, 40, 62
2, 109568, Note_on_c, 0, 52, 62
2, 110080, Note_off_c, 0, 67, 0
2, 110080, Note_off_c, 0, 71, 0
2, 110080, Note_off_c, 0, 40, 0
2, 110080, Note_off_c, 0, 52, 0
2, 110080, Note_on_c, 0, 40, 62
2, 110080, Note_on_c, 0, 52, 62
2, 110592, Note_on_c, 0, 67, 62
2, 110592, Note_on_c, 0, 76, 62
2, 111104, Note_off_c, 0, 67, 0
2, 111104, Note_off_c, 0, 76, 0
2, 111104, Note_off_c, 0, 40, 0
2, 111104, Note_off_c, 0, 52, 0
2, 111104, Note_on_c, 0, 67, 62
2, 111104, Note_on_c, 0, 76, 62
2, 111616, Note_on_c, 0, 40, 62
2, 111616, Note_on_c, 0, 52, 62
2, 112128, Note_off_c, 0, 67, 0
2, 112128, Note_off_c, 0, 76, 0
2, 112128, Note_off_c, 0, 40, 0
2, 112128, Note_off_c, 0, 52, 0
2, 112128, Note_on_c, 0, 40, 62
2, 112128, Note_on_c, 0, 52, 62
2, 112640, Note_on_c, 0, 67, 62
2, 112640, Note_on_c, 0, 71, 62
2, 113152, Note_off_c, 0, 67, 0
2, 113152, Note_off_c, 0, 71, 0
2, 113152, Note_off_c, 0, 40, 0
2, 113152, Note_off_c, 0, 52, 0
2, 113152, Note_on_c, 0, 35, 62
2, 113152, Note_on_c, 0, 47, 62
2, 113664, Note_on_c, 0, 66, 62
2, 113664, Note_on_c, 0, 69, 62
2, 113664, Note_off_c, 0, 35, 0
2, 113664, Note_off_c, 0, 47, 0
2, 114176, Note_off_c, 0, 66, 0
2, 114176, Note_off_c, 0, 69, 0
2, 114176, Note_on_c, 0, 35, 62
2, 114176, Note_on_c, 0, 47, 62
2, 114688, Note_on_c, 0, 64, 62
2, 114688, Note_on_c, 0, 67, 62
2, 114688, Note_off_c, 0, 35, 0
2, 114688, Note_off_c, 0, 47, 0
2, 115200, Note_off_c, 0, 64, 0
2, 115200, Note_off_c, 0, 67, 0
2, 115200, Note_on_c, 0, 35, 62
2, 115200, Note_on_c, 0, 47, 62
2, 115712, Note_on_c, 0, 63, 62
2, 115712, Note_on_c, 0, 66, 62
2, 116224, Note_off_c, 0, 63, 0
2, 116224, Note_off_c, 0, 66, 0
2, 116224, Note_on_c, 0, 59, 62
2, 116224, Note_off_c, 0, 35, 0
2, 116224, Note_off_c, 0, 47, 0
2, 116736, Note_off_c, 0, 59, 0
2, 116736, Note_on_c, 0, 67, 62
2, 116736, Note_on_c, 0, 71, 62
2, 117248, Note_off_c, 0, 67, 0
2, 117248, Note_off_c, 0, 71, 0
2, 117248, Note_on_c, 0, 35, 62
2, 117248, Note_on_c, 0, 47, 62
2, 117760, Note_on_c, 0, 66, 62
2, 117760, Note_on_c, 0, 69, 62
2, 117760, Note_off_c, 0, 35, 0
2, 117760, Note_off_c, 0, 47, 0
2, 118272, Note_off_c, 0, 66, 0
2, 118272, Note_off_c, 0, 69, 0
2, 118272, Note_on_c, 0, 35, 62
2, 118272, Note_on_c, 0, 47, 62
2, 118784, Note_on_c, 0, 64, 62
2, 118784, Note_on_c, 0, 67, 62
2, 118784, Note_off_c, 0, 35, 0
2, 118784, Note_off_c, 0, 47, 0
2, 119296, Note_off_c, 0, 64, 0
2, 119296, Note_off_c, 0, 67, 0
2, 119296, Note_on_c, 0, 35, 62
2, 119296, Note_on_c, 0, 47, 62
2, 119808, Note_on_c, 0, 63, 62
2, 119808, Note_on_c, 0, 66, 62
2, 120320, Note_off_c, 0, 63, 0
2, 120320, Note_off_c, 0, 66, 0
2, 120320, Note_on_c, 0, 59, 62
2, 120320, Note_off_c, 0, 35, 0
2, 120320, Note_off_c, 0, 47, 0
2, 120832, Note_off_c, 0, 59, 0
2, 120832, Note_on_c, 0, 67, 62
2, 120832, Note_on_c, 0, 71, 62
2, 121344, Note_off_c, 0, 67, 0
2, 121344, Note_off_c, 0, 71, 0
2, 121344, Note_on_c, 0, 35, 62
2, 121344, Note_on_c, 0, 47, 62
2, 121856, Note_on_c, 0, 66, 62
2, 121856, Note_on_c, 0, 69, 62
2, 121856, Note_off_c, 0, 35, 0
2, 121856, Note_off_c, 0, 47, 0
2, 122368, Note_off_c, 0, 66, 0
2, 122368, Note_off_c, 0, 69, 0
2, 122368, Note_on_c, 0, 35, 62
2, 122368, Note_on_c, 0, 47, 62
2, 122880, Note_on_c, 0, 64, 62
2, 122880, Note_on_c, 0, 67, 62
2, 122880, Note_off_c, 0, 35, 0
2, 122880, Note_off_c, 0, 47, 0
2, 123392, Note_off_c, 0, 64, 0
2, 123392, Note_off_c, 0, 67, 0
2, 123392, Note_on_c, 0, 63, 62
2, 123392, Note_on_c, 0, 66, 62
2, 123392, Note_on_c, 0, 35, 62
2, 123392, Note_on_c, 0, 47, 62
2, 124416, Note_off_c, 0, 63, 0
2, 124416, Note_off_c, 0, 66, 0
2, 124416, Note_off_c, 0, 35, 0
2, 124416, Note_off_c, 0, 47, 0
2, 125440, Note_on_c, 0, 75, 101
2, 125440, Note_on_c, 0, 51, 101
2, 125440, Note_on_c, 0, 63, 101
2, 125696, Note_off_c, 0, 75, 0
2, 125696, Note_on_c, 0, 71, 101
2, 125952, Note_off_c, 0, 71, 0
2, 125952, Note_on_c, 0, 78, 101
2, 126208, Note_off_c, 0, 78, 0
2, 126208, Note_on_c, 0, 75, 101
2, 126464, Note_off_c, 0, 75, 0
2, 126464, Note_on_c, 0, 83, 101
2, 126464, Note_off_c, 0, 51, 0
2, 126464, Note_off_c, 0, 63, 0
2, 126720, Note_off_c, 0, 83, 0
2, 126720, Note_on_c, 0, 78, 101
2, 126976, Note_off_c, 0, 78, 0
2, 126976, Note_on_c, 0, 75, 101
2, 126976, Note_on_c, 0, 51, 101
2, 126976, Note_on_c, 0, 63, 101
2, 127232, Note_off_c, 0, 75, 0
2, 127232, Note_on_c, 0, 71, 101
2, 127488, Note_off_c, 0, 71, 0
2, 127488, Note_off_c, 0, 51, 0
2, 127488, Note_off_c, 0, 63, 0
2, 127488, Note_on_c, 0, 75, 101
2, 127488, Note_on_c, 0, 52, 101
2, 127488, Note_on_c, 0, 64, 101
2, 127744, Note_off_c, 0, 75, 0
2, 127744, Note_on_c, 0, 71, 101
2, 128000, Note_off_c, 0, 71, 0
2, 128000, Note_on_c, 0, 78, 101
2, 128256, Note_off_c, 0, 78, 0
2, 128256, Note_on_c, 0, 75, 101
2, 128512, Note_off_c, 0, 75, 0
2, 128512, Note_on_c, 0, 83, 101
2, 128512, Note_off_c, 0, 52, 0
2, 128512, Note_off_c, 0, 64, 0
2, 128768, Note_off_c, 0, 83, 0
2, 128768, Note_on_c, 0, 78, 101
2, 129024, Note_off_c, 0, 78, 0
2, 129024, Note_on_c, 0, 75, 101
2, 129024, Note_on_c, 0, 52, 101
2, 129024, Note_on_c, 0, 64, 101
2, 129280, Note_off_c, 0, 75, 0
2, 129280, Note_on_c, 0, 71, 101
2, 129536, Note_off_c, 0, 71, 0
2, 129536, Note_off_c, 0, 52, 0
2, 129536, Note_off_c, 0, 64, 0
2, 129536, Note_on_c, 0, 75, 101
2, 129536, Note_on_c, 0, 54, 101
2, 129536, Note_on_c, 0, 66, 101
2, 129792, Note_off_c, 0, 75, 0
2, 129792, Note_on_c, 0, 71, 101
2, 130048, Note_off_c, 0, 71, 0
2, 130048, Note_on_c, 0, 78, 101
2, 130304, Note_off_c, 0, 78, 0
2, 130304, Note_on_c, 0, 75, 101
2, 130560, Note_off_c, 0, 75, 0
2, 130560, Note_on_c, 0, 83, 101
2, 130560, Note_off_c, 0, 54, 0
2, 130560, Note_off_c, 0, 66, 0
2, 130816, Note_off_c, 0, 83, 0
2, 130816, Note_on_c, 0, 78, 101
2, 131072, Note_off_c, 0, 78, 0
2, 131072, Note_on_c, 0, 75, 101
2, 131072, Note_on_c, 0, 54, 101
2, 131072, Note_on_c, 0, 66, 101
2, 131328, Note_off_c, 0, 75, 0
2, 131328, Note_on_c, 0, 71, 101
2, 131584, Note_off_c, 0, 71, 0
2, 131584, Note_off_c, 0, 54, 0
2, 131584, Note_off_c, 0, 66, 0
2, 131584, Note_on_c, 0, 76, 101
2, 131584, Note_on_c, 0, 56, 101
2, 131584, Note_on_c, 0, 68, 101
2, 131840, Note_off_c, 0, 76, 0
2, 131840, Note_on_c, 0, 71, 101
2, 132096, Note_off_c, 0, 71, 0
2, 132096, Note_on_c, 0, 80, 101
2, 132352, Note_off_c, 0, 80, 0
2, 132352, Note_on_c, 0, 76, 101
2, 132608, Note_off_c, 0, 76, 0
2, 132608, Note_on_c, 0, 83, 101
2, 132608, Note_off_c, 0, 56, 0
2, 132608, Note_off_c, 0, 68, 0
2, 132864, Note_off_c, 0, 83, 0
2, 132864, Note_on_c, 0, 80, 101
2, 133120, Note_off_c, 0, 80, 0
2, 133120, Note_on_c, 0, 76, 101
2, 133120, Note_on_c, 0, 56, 101
2, 133120, Note_on_c, 0, 68, 101
2, 133376, Note_off_c, 0, 76, 0
2, 133376, Note_on_c, 0, 71, 101
2, 133632, Note_off_c, 0, 71, 0
2, 133632, Note_off_c, 0, 56, 0
2, 133632, Note_off_c, 0, 68, 0
2, 133632, Note_on_c, 0, 83, 101
2, 133632, Note_on_c, 0, 51, 101
2, 133632, Note_on_c, 0, 63, 101
2, 133888, Note_off_c, 0, 83, 0
2, 133888, Note_on_c, 0, 78, 101
2, 134144, Note_off_c, 0, 78, 0
2, 134144, Note_on_c, 0, 75, 101
2, 134400, Note_off_c, 0, 75, 0
2, 134400, Note_on_c, 0, 71, 101
2, 134656, Note_off_c, 0, 71, 0
2, 134656, Note_on_c, 0, 83, 101
2, 134656, Note_off_c, 0, 51, 0
2, 134656, Note_off_c, 0, 63, 0
2, 134656, Note_on_c, 0, 52, 101
2, 134656, Note_on_c, 0, 64, 101
2, 134912, Note_off_c, 0, 83, 0
2, 134912, Note_on_c, 0, 80, 101
2, 135168, Note_off_c, 0, 80, 0
2, 135168, Note_on_c, 0, 76, 101
2, 135424, Note_off_c, 0, 76, 0
2, 135424, Note_on_c, 0, 71, 101
2, 135680, Note_off_c, 0, 71, 0
2, 135680, Note_off_c, 0, 52, 0
2, 135680, Note_off_c, 0, 64, 0
2, 135680, Note_on_c, 0, 83, 101
2, 135680, Note_on_c, 0, 51, 101
2, 135680, Note_on_c, 0, 63, 101
2, 135936, Note_off_c, 0, 83, 0
2, 135936, Note_on_c, 0, 78, 101
2, 136192, Note_off_c, 0, 78, 0
2, 136192, Note_on_c, 0, 75, 101
2, 136448, Note_off_c, 0, 75, 0
2, 136448, Note_on_c, 0, 71, 101
2, 136704, Note_off_c, 0, 71, 0
2, 136704, Note_on_c, 0, 83, 101
2, 136704, Note_off_c, 0, 51, 0
2, 136704, Note_off_c, 0, 63, 0
2, 136704, Note_on_c, 0, 52, 101
2, 136704, Note_on_c, 0, 64, 101
2, 136960, Note_off_c, 0, 83, 0
2, 136960, Note_on_c, 0, 80, 101
2, 137216, Note_off_c, 0, 80, 0
2, 137216, Note_on_c, 0, 76, 101
2, 137472, Note_off_c, 0, 76, 0
2, 137472, Note_on_c, 0, 71, 101
2, 137728, Note_off_c, 0, 71, 0
2, 137728, Note_off_c, 0, 52, 0
2, 137728, Note_off_c, 0, 64, 0
2, 137728, Note_on_c, 0, 83, 101
2, 137728, Note_on_c, 0, 51, 101
2, 137728, Note_on_c, 0, 63, 101
2, 137984, Note_off_c, 0, 83, 0
2, 137984, Note_on_c, 0, 78, 101
2, 138240, Note_off_c, 0, 78, 0
2, 138240, Note_on_c, 0, 75, 101
2, 138496, Note_off_c, 0, 75, 0
2, 138496, Note_on_c, 0, 71, 101
2, 138752, Note_off_c, 0, 71, 0
2, 138752, Note_on_c, 0, 83, 101
2, 138752, Note_off_c, 0, 51, 0
2, 138752, Note_off_c, 0, 63, 0
2, 138752, Note_on_c, 0, 52, 101
2, 138752, Note_on_c, 0, 64, 101
2, 139008, Note_off_c, 0, 83, 0
2, 139008, Note_on_c, 0, 80, 101
2, 139264, Note_off_c, 0, 80, 0
2, 139264, Note_on_c, 0, 76, 101
2, 139520, Note_off_c, 0, 76, 0
2, 139520, Note_on_c, 0, 71, 101
2, 139776, Note_off_c, 0, 71, 0
2, 139776, Note_off_c, 0, 52, 0
2, 139776, Note_off_c, 0, 64, 0
2, 139776, Note_on_c, 0, 73, 101
2, 139776, Note_on_c, 0, 66, 101
2, 139904, Note_off_c, 0, 73, 0
2, 139904, Note_on_c, 0, 75, 101
2, 140032, Note_off_c, 0, 75, 0
2, 140032, Note_on_c, 0, 73, 101
2, 140160, Note_off_c, 0, 73, 0
2, 140160, Note_on_c, 0, 75, 101
2, 140288, Note_off_c, 0, 75, 0
2, 140288, Note_on_c, 0, 73, 101
2, 140416, Note_off_c, 0, 73, 0
2, 140416, Note_on_c, 0, 75, 101
2, 140544, Note_off_c, 0, 75, 0
2, 140544, Note_on_c, 0, 73, 101
2, 140672, Note_off_c, 0, 73, 0
2, 140672, Note_on_c, 0, 75, 101
2, 140800, Note_off_c, 0, 75, 0
2, 140800, Note_on_c, 0, 73, 101
2, 140800, Note_off_c, 0, 66, 0
2, 140800, Note_on_c, 0, 54, 101
2, 140928, Note_off_c, 0, 73, 0
2, 140928, Note_on_c, 0, 75, 101
2, 141056, Note_off_c, 0, 75, 0
2, 141056, Note_on_c, 0, 73, 101
2, 141184, Note_off_c, 0, 73, 0
2, 141184, Note_on_c, 0, 75, 101
2, 141312, Note_off_c, 0, 75, 0
2, 141312, Note_on_c, 0, 73, 101
2, 141440, Note_off_c, 0, 73, 0
2, 141440, Note_on_c, 0, 75, 101
2, 141568, Note_off_c, 0, 75, 0
2, 141568, Note_on_c, 0, 73, 101
2, 141696, Note_off_c, 0, 73, 0
2, 141696, Note_on_c, 0, 75, 101
2, 141824, Note_off_c, 0, 75, 0
2, 141824, Note_off_c, 0, 54, 0
2, 141824, Note_on_c, 0, 71, 101
2, 141824, Note_on_c, 0, 59, 101
2, 142848, Note_off_c, 0, 71, 0
2, 142848, Note_off_c, 0, 59, 0
2, 143360, Note_on_c, 0, 75, 62
2, 143360, Note_on_c, 0, 78, 62
2, 143872, Note_off_c, 0, 75, 0
2, 143872, Note_off_c, 0, 78, 0
2, 143872, Note_on_c, 0, 75, 62
2, 143872, Note_on_c, 0, 78, 62
2, 144384, Note_off_c, 0, 75, 0
2, 144384, Note_off_c, 0, 78, 0
2, 144384, Note_on_c, 0, 71, 62
2, 144384, Note_on_c, 0, 75, 62
2, 144896, Note_off_c, 0, 71, 0
2, 144896, Note_off_c, 0, 75, 0
2, 144896, Note_on_c, 0, 71, 62
2, 144896, Note_on_c, 0, 75, 62
2, 145408, Note_off_c, 0, 71, 0
2, 145408, Note_off_c, 0, 75, 0
2, 145408, Note_on_c, 0, 75, 62
2, 145408, Note_on_c, 0, 78, 62
2, 145920, Note_off_c, 0, 75, 0
2, 145920, Note_off_c, 0, 78, 0
2, 145920, Note_on_c, 0, 73, 62
2, 145920, Note_on_c, 0, 76, 62
2, 146432, Note_off_c, 0, 73, 0
2, 146432, Note_off_c, 0, 76, 0
2, 146432, Note_on_c, 0, 70, 62
2, 146432, Note_on_c, 0, 73, 62
2, 146944, Note_off_c, 0, 70, 0
2, 146944, Note_off_c, 0, 73, 0
2, 147456, Note_on_c, 0, 66, 101
2, 147456, Note_on_c, 0, 54, 101
2, 147866, Note_off_c, 0, 66, 0
2, 147866, Note_off_c, 0, 54, 0
2, 147968, Note_on_c, 0, 71, 101
2, 147968, Note_on_c, 0, 59, 101
2, 148378, Note_off_c, 0, 71, 0
2, 148378, Note_off_c, 0, 59, 0
2, 148480, Note_on_c, 0, 66, 101
2, 148480, Note_on_c, 0, 54, 101
2, 148890, Note_off_c, 0, 66, 0
2, 148890, Note_off_c, 0, 54, 0
2, 148992, Note_on_c, 0, 71, 101
2, 148992, Note_on_c, 0, 59, 101
2, 149248, Note_off_c, 0, 71, 0
2, 149248, Note_on_c, 0, 66, 101
2, 149248, Note_off_c, 0, 59, 0
2, 149248, Note_on_c, 0, 54, 101
2, 149504, Note_off_c, 0, 66, 0
2, 149504, Note_on_c, 0, 63, 101
2, 149504, Note_off_c, 0, 54, 0
2, 149504, Note_on_c, 0, 51, 101
2, 149760, Note_off_c, 0, 63, 0
2, 149760, Note_on_c, 0, 59, 101
2, 149760, Note_off_c, 0, 51, 0
2, 149760, Note_on_c, 0, 47, 101
2, 150016, Note_off_c, 0, 59, 0
2, 150016, Note_off_c, 0, 47, 0
2, 150016, Note_on_c, 0, 66, 101
2, 150016, Note_on_c, 0, 54, 101
2, 151040, Note_off_c, 0, 66, 0
2, 151040, Note_off_c, 0, 54, 0
2, 151552, Note_on_c, 0, 74, 62
2, 151552, Note_on_c, 0, 78, 62
2, 152064, Note_off_c, 0, 74, 0
2, 152064, Note_off_c, 0, 78, 0
2, 152064, Note_on_c, 0, 74, 62
2, 152064, Note_on_c, 0, 78, 62
2, 152576, Note_off_c, 0, 74, 0
2, 152576, Note_off_c, 0, 78, 0
2, 152576, Note_on_c, 0, 71, 62
2, 152576, Note_on_c, 0, 74, 62
2, 153088, Note_off_c, 0, 71, 0
2, 153088, Note_off_c, 0, 74, 0
2, 153088, Note_on_c, 0, 71, 62
2, 153088, Note_on_c, 0, 74, 62
2, 153600, Note_off_c, 0, 71, 0
2, 153600, Note_off_c, 0, 74, 0
2, 153600, Note_on_c, 0, 74, 62
2, 153600, Note_on_c, 0, 78, 62
2, 154112, Note_off_c, 0, 74, 0
2, 154112, Note_off_c, 0, 78, 0
2, 154112, Note_on_c, 0, 73, 62
2, 154112, Note_on_c, 0, 76, 62
2, 154624, Note_off_c, 0, 73, 0
2, 154624, Note_off_c, 0, 76, 0
2, 154624, Note_on_c, 0, 70, 62
2, 154624, Note_on_c, 0, 73, 62
2, 155136, Note_off_c, 0, 70, 0
2, 155136, Note_off_c, 0, 73, 0
2, 155648, Note_on_c, 0, 70, 101
2, 156160, Note_off_c, 0, 70, 0
2, 156160, Note_on_c, 0, 71, 101
2, 156160, Note_on_c, 0, 62, 101
2, 156160, Note_on_c, 0, 55, 101
2, 156928, Note_off_c, 0, 71, 0
2, 156928, Note_on_c, 0, 70, 101
2, 157184, Note_off_c, 0, 70, 0
2, 157184, Note_on_c, 0, 71, 101
2, 157184, Note_off_c, 0, 62, 0
2, 157184, Note_on_c, 0, 65, 101
2, 157440, Note_off_c, 0, 71, 0
2, 157440, Note_on_c, 0, 74, 101
2, 157696, Note_off_c, 0, 74, 0
2, 157696, Note_on_c, 0, 73, 101
2, 157952, Note_off_c, 0, 73, 0
2, 157952, Note_on_c, 0, 71, 101
2, 158208, Note_off_c, 0, 71, 0
2, 158208, Note_off_c, 0, 65, 0
2, 158208, Note_off_c, 0, 55, 0
2, 158208, Note_on_c, 0, 70, 101
2, 158208, Note_on_c, 0, 54, 101
2, 158208, Note_on_c, 0, 66, 101
2, 159232, Note_off_c, 0, 70, 0
2, 159232, Note_off_c, 0, 54, 0
2, 159232, Note_off_c, 0, 66, 0
2, 159744, Note_on_c, 0, 63, 75
2, 159744, Note_on_c, 0, 71, 75
2, 160256, Note_off_c, 0, 63, 0
2, 160256, Note_off_c, 0, 71, 0
2, 160256, Note_on_c, 0, 63, 75
2, 160256, Note_on_c, 0, 71, 75
2, 160256, Note_on_c, 0, 47, 75
2, 160256, Note_on_c, 0, 59, 75
2, 160768, Note_off_c, 0, 63, 0
2, 160768, Note_off_c, 0, 71, 0
2, 160768, Note_on_c, 0, 71, 75
2, 160768, Note_on_c, 0, 75, 75
2, 161280, Note_off_c, 0, 71, 0
2, 161280, Note_off_c, 0, 75, 0
2, 161280, Note_on_c, 0, 71, 75
2, 161280, Note_on_c, 0, 75, 75
2, 161280, Note_off_c, 0, 47, 0
2, 161280, Note_off_c, 0, 59, 0
2, 161792, Note_off_c, 0, 71, 0
2, 161792, Note_off_c, 0, 75, 0
2, 161792, Note_on_c, 0, 75, 75
2, 161792, Note_on_c, 0, 78, 75
2, 162304, Note_off_c, 0, 75, 0
2, 162304, Note_off_c, 0, 78, 0
2, 162304, Note_on_c, 0, 78, 75
2, 162304, Note_on_c, 0, 75, 75
2, 163072, Note_off_c, 0, 78, 0
2, 163072, Note_on_c, 0, 83, 75
2, 163328, Note_off_c, 0, 83, 0
2, 163328, Note_on_c, 0, 78, 75
2, 163840, Note_off_c, 0, 78, 0
2, 163840, Note_off_c, 0, 75, 0
2, 164352, Note_on_c, 0, 80, 75
2, 164352, Note_on_c, 0, 64, 75
2, 164608, Note_off_c, 0, 64, 0
2, 164608, Note_on_c, 0, 71, 75
2, 164864, Note_off_c, 0, 71, 0
2, 164864, Note_on_c, 0, 68, 75
2, 165120, Note_off_c, 0, 80, 0
2, 165120, Note_on_c, 0, 82, 75
2, 165120, Note_off_c, 0, 68, 0
2, 165120, Note_on_c, 0, 71, 75
2, 165376, Note_off_c, 0, 82, 0
2, 165376, Note_on_c, 0, 83, 75
2, 165376, Note_off_c, 0, 71, 0
2, 165376, Note_on_c, 0, 63, 75
2, 165632, Note_off_c, 0, 63, 0
2, 165632, Note_on_c, 0, 71, 75
2, 165888, Note_off_c, 0, 83, 0
2, 165888, Note_off_c, 0, 71, 0
2, 165888, Note_on_c, 0, 66, 75
2, 166144, Note_off_c, 0, 66, 0
2, 166144, Note_on_c, 0, 71, 75
2, 166400, Note_off_c, 0, 71, 0
2, 166400, Note_on_c, 0, 80, 49
2, 166400, Note_on_c, 0, 64, 49
2, 166656, Note_off_c, 0, 64, 0
2, 166656, Note_on_c, 0, 71, 49
2, 166912, Note_off_c, 0, 71, 0
2, 166912, Note_on_c, 0, 68, 49
2, 167168, Note_off_c, 0, 80, 0
2, 167168, Note_on_c, 0, 82, 49
2, 167168, Note_off_c, 0, 68, 0
2, 167168, Note_on_c, 0, 71, 49
2, 167424, Note_off_c, 0, 82, 0
2, 167424, Note_on_c, 0, 83, 49
2, 167424, Note_off_c, 0, 71, 0
2, 167424, Note_on_c, 0, 63, 49
2, 167680, Note_off_c, 0, 63, 0
2, 167680, Note_on_c, 0, 71, 49
2, 167936, Note_off_c, 0, 83, 0
2, 167936, Note_off_c, 0, 71, 0
2, 167936, Note_on_c, 0, 66, 49
2, 168192, Note_off_c, 0, 66, 0
2, 168192, Note_on_c, 0, 71, 49
2, 168448, Note_off_c, 0, 71, 0
2, 168448, Note_on_c, 0, 80, 101
2, 168448, Note_on_c, 0, 64, 101
2, 168704, Note_off_c, 0, 80, 0
2, 168704, Note_on_c, 0, 83, 101
2, 168960, Note_off_c, 0, 83, 0
2, 168960, Note_on_c, 0, 82, 101
2, 169216, Note_off_c, 0, 82, 0
2, 169216, Note_on_c, 0, 80, 101
2, 169472, Note_off_c, 0, 80, 0
2, 169472, Note_on_c, 0, 78, 101
2, 169472, Note_off_c, 0, 64, 0
2, 169728, Note_off_c, 0, 78, 0
2, 169728, Note_on_c, 0, 76, 101
2, 169984, Note_off_c, 0, 76, 0
2, 169984, Note_on_c, 0, 75, 101
2, 170240, Note_off_c, 0, 75, 0
2, 170240, Note_on_c, 0, 73, 101
2, 170496, Note_off_c, 0, 73, 0
2, 170496, Note_on_c, 0, 71, 101
2, 170496, Note_on_c, 0, 54, 101
2, 170496, Note_on_c, 0, 59, 101
2, 170752, Note_off_c, 0, 71, 0
2, 170752, Note_on_c, 0, 73, 101
2, 170880, Note_off_c, 0, 73, 0
2, 170880, Note_on_c, 0, 75, 101
2, 171008, Note_off_c, 0, 75, 0
2, 171008, Note_on_c, 0, 73, 101
2, 171136, Note_off_c, 0, 73, 0
2, 171136, Note_on_c, 0, 75, 101
2, 171264, Note_off_c, 0, 75, 0
2, 171264, Note_on_c, 0, 73, 101
2, 171392, Note_off_c, 0, 73, 0
2, 171392, Note_on_c, 0, 75, 101
2, 171520, Note_off_c, 0, 75, 0
2, 171520, Note_on_c, 0, 73, 101
2, 171520, Note_off_c, 0, 54, 0
2, 171520, Note_off_c, 0, 59, 0
2, 171520, Note_on_c, 0, 54, 101
2, 171520, Note_on_c, 0, 58, 101
2, 171648, Note_off_c, 0, 73, 0
2, 171648, Note_on_c, 0, 75, 101
2, 171776, Note_off_c, 0, 75, 0
2, 171776, Note_on_c, 0, 73, 101
2, 171904, Note_off_c, 0, 73, 0
2, 171904, Note_on_c, 0, 75, 101
2, 172032, Note_off_c, 0, 75, 0
2, 172032, Note_on_c, 0, 73, 101
2, 172160, Note_off_c, 0, 73, 0
2, 172160, Note_on_c, 0, 75, 101
2, 172288, Note_off_c, 0, 75, 0
2, 172288, Note_on_c, 0, 73, 101
2, 172416, Note_off_c, 0, 73, 0
2, 172416, Note_on_c, 0, 75, 101
2, 172544, Note_off_c, 0, 75, 0
2, 172544, Note_off_c, 0, 54, 0
2, 172544, Note_off_c, 0, 58, 0
2, 172544, Note_on_c, 0, 71, 101
2, 172544, Note_on_c, 0, 47, 101
2, 172800, Note_off_c, 0, 47, 0
2, 172800, Note_on_c, 0, 51, 101
2, 173056, Note_off_c, 0, 51, 0
2, 173056, Note_on_c, 0, 54, 101
2, 173312, Note_off_c, 0, 54, 0
2, 173312, Note_on_c, 0, 59, 101
2, 173568, Note_off_c, 0, 71, 0
2, 173568, Note_on_c, 0, 75, 101
2, 173568, Note_on_c, 0, 83, 101
2, 173568, Note_off_c, 0, 59, 0
2, 173568, Note_on_c, 0, 47, 101
2, 173824, Note_off_c, 0, 47, 0
2, 173824, Note_on_c, 0, 51, 101
2, 174080, Note_off_c, 0, 75, 0
2, 174080, Note_off_c, 0, 83, 0
2, 174080, Note_off_c, 0, 51, 0
2, 174080, Note_on_c, 0, 54, 101
2, 174336, Note_off_c, 0, 54, 0
2, 174336, Note_on_c, 0, 59, 101
2, 174592, Note_off_c, 0, 59, 0
2, 174592, Note_on_c, 0, 75, 101
2, 174592, Note_on_c, 0, 83, 101
2, 174592, Note_on_c, 0, 47, 101
2, 175616, Note_off_c, 0, 75, 0
2, 175616, Note_off_c, 0, 83, 0
2, 175616, Note_off_c, 0, 47, 0
2, 176128, Note_on_c, 0, 83, 101
2, 176538, Note_off_c, 0, 83, 0
2, 176640, Note_on_c, 0, 83, 101
2, 176640, Note_on_c, 0, 49, 101
2, 176896, Note_off_c, 0, 49, 0
2, 176896, Note_on_c, 0, 59, 101
2, 177152, Note_off_c, 0, 83, 0
2, 177152, Note_on_c, 0, 77, 101
2, 177152, Note_off_c, 0, 59, 0
2, 177152, Note_on_c, 0, 56, 101
2, 177408, Note_off_c, 0, 56, 0
2, 177408, Note_on_c, 0, 59, 101
2, 177664, Note_off_c, 0, 77, 0
2, 177664, Note_off_c, 0, 59, 0
2, 177664, Note_on_c, 0, 49, 101
2, 177920, Note_off_c, 0, 49, 0
2, 177920, Note_on_c, 0, 59, 101
2, 178176, Note_on_c, 0, 77, 101
2, 178176, Note_off_c, 0, 59, 0
2, 178176, Note_on_c, 0, 56, 101
2, 178432, Note_off_c, 0, 56, 0
2, 178432, Note_on_c, 0, 59, 101
2, 178586, Note_off_c, 0, 77, 0
2, 178688, Note_off_c, 0, 59, 0
2, 178688, Note_on_c, 0, 78, 101
2, 178688, Note_on_c, 0, 49, 101
2, 178944, Note_off_c, 0, 49, 0
2, 178944, Note_on_c, 0, 57, 101
2, 179200, Note_off_c, 0, 78, 0
2, 179200, Note_on_c, 0, 73, 101
2, 179200, Note_off_c, 0, 57, 0
2, 179200, Note_on_c, 0, 54, 101
2, 179456, Note_off_c, 0, 54, 0
2, 179456, Note_on_c, 0, 57, 101
2, 179712, Note_off_c, 0, 73, 0
2, 179712, Note_off_c, 0, 57, 0
2, 179712, Note_on_c, 0, 49, 101
2, 179968, Note_off_c, 0, 49, 0
2, 179968, Note_on_c, 0, 57, 101
2, 180224, Note_on_c, 0, 81, 101
2, 180224, Note_off_c, 0, 57, 0
2, 180224, Note_on_c, 0, 54, 101
2, 180480, Note_off_c, 0, 54, 0
2, 180480, Note_on_c, 0, 57, 101
2, 180634, Note_off_c, 0, 81, 0
2, 180736, Note_off_c, 0, 57, 0
2, 180736, Note_on_c, 0, 80, 101
2, 180736, Note_on_c, 0, 49, 101
2, 180992, Note_off_c, 0, 49, 0
2, 180992, Note_on_c, 0, 56, 101
2, 181248, Note_off_c, 0, 80, 0
2, 181248, Note_on_c, 0, 71, 101
2, 181248, Note_off_c, 0, 56, 0
2, 181248, Note_on_c, 0, 53, 101
2, 181504, Note_off_c, 0, 53, 0
2, 181504, Note_on_c, 0, 56, 101
2, 181760, Note_off_c, 0, 71, 0
2, 181760, Note_off_c, 0, 56, 0
2, 181760, Note_on_c, 0, 49, 101
2, 182016, Note_off_c, 0, 49, 0
2, 182016, Note_on_c, 0, 56, 101
2, 182272, Note_on_c, 0, 71, 101
2, 182272, Note_off_c, 0, 56, 0
2, 182272, Note_on_c, 0, 53, 101
2, 182528, Note_off_c, 0, 53, 0
2, 182528, Note_on_c, 0, 56, 101
2, 182682, Note_off_c, 0, 71, 0
2, 182784, Note_off_c, 0, 56, 0
2, 182784, Note_on_c, 0, 69, 101
2, 182784, Note_on_c, 0, 49, 101
2, 183040, Note_off_c, 0, 49, 0
2, 183040, Note_on_c, 0, 57, 101
2, 183296, Note_off_c, 0, 69, 0
2, 183296, Note_on_c, 0, 66, 101
2, 183296, Note_off_c, 0, 57, 0
2, 183296, Note_on_c, 0, 54, 101
2, 183552, Note_off_c, 0, 54, 0
2, 183552, Note_on_c, 0, 57, 101
2, 183808, Note_off_c, 0, 66, 0
2, 183808, Note_off_c, 0, 57, 0
2, 183808, Note_on_c, 0, 49, 101
2, 184064, Note_off_c, 0, 49, 0
2, 184064, Note_on_c, 0, 57, 75
2, 184320, Note_on_c, 0, 81, 75
2, 184320, Note_off_c, 0, 57, 0
2, 184320, Note_on_c, 0, 54, 75
2, 184576, Note_off_c, 0, 54, 0
2, 184576, Note_on_c, 0, 57, 75
2, 184730, Note_off_c, 0, 81, 0
2, 184832, Note_off_c, 0, 57, 0
2, 184832, Note_on_c, 0, 81, 75
2, 184832, Note_on_c, 0, 47, 75
2, 185088, Note_off_c, 0, 47, 0
2, 185088, Note_on_c, 0, 57, 75
2, 185344, Note_off_c, 0, 81, 0
2, 185344, Note_on_c, 0, 75, 75
2, 185344, Note_off_c, 0, 57, 0
2, 185344, Note_on_c, 0, 54, 75
2, 185600, Note_off_c, 0, 54, 0
2, 185600, Note_on_c, 0, 57, 75
2, 185856, Note_off_c, 0, 75, 0
2, 185856, Note_off_c, 0, 57, 0
2, 185856, Note_on_c, 0, 47, 75
2, 186112, Note_off_c, 0, 47, 0
2, 186112, Note_on_c, 0, 57, 75
2, 186368, Note_on_c, 0, 75, 75
2, 186368, Note_off_c, 0, 57, 0
2, 186368, Note_on_c, 0, 54, 75
2, 186624, Note_off_c, 0, 54, 0
2, 186624, Note_on_c, 0, 57, 75
2, 186778, Note_off_c, 0, 75, 0
2, 186880, Note_off_c, 0, 57, 0
2, 186880, Note_on_c, 0, 76, 75
2, 186880, Note_on_c, 0, 47, 75
2, 187136, Note_off_c, 0, 47, 0
2, 187136, Note_on_c, 0, 56, 75
2, 187392, Note_off_c, 0, 76, 0
2, 187392, Note_on_c, 0, 71, 75
2, 187392, Note_off_c, 0, 56, 0
2, 187392, Note_on_c, 0, 52, 75
2, 187648, Note_off_c, 0, 52, 0
2, 187648, Note_on_c, 0, 56, 75
2, 187904, Note_off_c, 0, 71, 0
2, 187904, Note_off_c, 0, 56, 0
2, 187904, Note_on_c, 0, 47, 75
2, 188160, Note_off_c, 0, 47, 0
2, 188160, Note_on_c, 0, 56, 75
2, 188416, Note_on_c, 0, 80, 75
2, 188416, Note_off_c, 0, 56, 0
2, 188416, Note_on_c, 0, 52, 75
2, 188672, Note_off_c, 0, 52, 0
2, 188672, Note_on_c, 0, 56, 75
2, 188826, Note_off_c, 0, 80, 0
2, 188928, Note_off_c, 0, 56, 0
2, 188928, Note_on_c, 0, 78, 75
2, 188928, Note_on_c, 0, 47, 75
2, 189184, Note_off_c, 0, 47, 0
2, 189184, Note_on_c, 0, 54, 75
2, 189440, Note_off_c, 0, 78, 0
2, 189440, Note_on_c, 0, 69, 75
2, 189440, Note_off_c, 0, 54, 0
2, 189440, Note_on_c, 0, 51, 75
2, 189696, Note_off_c, 0, 51, 0
2, 189696, Note_on_c, 0, 54, 75
2, 189952, Note_off_c, 0, 69, 0
2, 189952, Note_off_c, 0, 54, 0
2, 189952, Note_on_c, 0, 47, 75
2, 190208, Note_off_c, 0, 47, 0
2, 190208, Note_on_c, 0, 54, 75
2, 190464, Note_on_c, 0, 69, 75
2, 190464, Note_off_c, 0, 54, 0
2, 190464, Note_on_c, 0, 51, 75
2, 190720, Note_off_c, 0, 51, 0
2, 190720, Note_on_c, 0, 54, 75
2, 190874, Note_off_c, 0, 69, 0
2, 190976, Note_off_c, 0, 54, 0
2, 190976, Note_on_c, 0, 68, 75
2, 190976, Note_on_c, 0, 47, 75
2, 191232, Note_off_c, 0, 47, 0
2, 191232, Note_on_c, 0, 56, 75
2, 191488, Note_off_c, 0, 68, 0
2, 191488, Note_on_c, 0, 64, 75
2, 191488, Note_off_c, 0, 56, 0
2, 191488, Note_on_c, 0, 52, 75
2, 191744, Note_off_c, 0, 52, 0
2, 191744, Note_on_c, 0, 56, 75
2, 192000, Note_off_c, 0, 64, 0
2, 192000, Note_off_c, 0, 56, 0
2, 192000, Note_on_c, 0, 47, 75
2, 192256, Note_off_c, 0, 47, 0
2, 192256, Note_on_c, 0, 56, 101
2, 192512, Note_on_c, 0, 83, 101
2, 192512, Note_off_c, 0, 56, 0
2, 192512, Note_on_c, 0, 52, 101
2, 192768, Note_off_c, 0, 52, 0
2, 192768, Note_on_c, 0, 56, 101
2, 192922, Note_off_c, 0, 83, 0
2, 193024, Note_off_c, 0, 56, 0
2, 193024, Note_on_c, 0, 83, 101
2, 193024, Note_on_c, 0, 44, 101
2, 193280, Note_off_c, 0, 44, 0
2, 193280, Note_on_c, 0, 52, 101
2, 193536, Note_off_c, 0, 83, 0
2, 193536, Note_on_c, 0, 74, 101
2, 193536, Note_off_c, 0, 52, 0
2, 193536, Note_on_c, 0, 47, 101
2, 193792, Note_off_c, 0, 47, 0
2, 193792, Note_on_c, 0, 52, 101
2, 194048, Note_off_c, 0, 74, 0
2, 194048, Note_off_c, 0, 52, 0
2, 194048, Note_on_c, 0, 44, 101
2, 194304, Note_off_c, 0, 44, 0
2, 194304, Note_on_c, 0, 52, 101
2, 194560, Note_on_c, 0, 74, 101
2, 194560, Note_off_c, 0, 52, 0
2, 194560, Note_on_c, 0, 47, 101
2, 194816, Note_off_c, 0, 47, 0
2, 194816, Note_on_c, 0, 52, 101
2, 194970, Note_off_c, 0, 74, 0
2, 195072, Note_off_c, 0, 52, 0
2, 195072, Note_on_c, 0, 72, 101
2, 195072, Note_on_c, 0, 45, 101
2, 195328, Note_off_c, 0, 45, 0
2, 195328, Note_on_c, 0, 52, 101
2, 195584, Note_off_c, 0, 72, 0
2, 195584, Note_on_c, 0, 73, 101
2, 195584, Note_off_c, 0, 52, 0
2, 195584, Note_on_c, 0, 49, 101
2, 195840, Note_off_c, 0, 49, 0
2, 195840, Note_on_c, 0, 52, 101
2, 196096, Note_off_c, 0, 73, 0
2, 196096, Note_off_c, 0, 52, 0
2, 196096, Note_on_c, 0, 45, 101
2, 196352, Note_off_c, 0, 45, 0
2, 196352, Note_on_c, 0, 52, 101
2, 196608, Note_on_c, 0, 85, 101
2, 196608, Note_off_c, 0, 52, 0
2, 196608, Note_on_c, 0, 49, 101
2, 196864, Note_off_c, 0, 49, 0
2, 196864, Note_on_c, 0, 52, 101
2, 197018, Note_off_c, 0, 85, 0
2, 197120, Note_off_c, 0, 52, 0
2, 197120, Note_on_c, 0, 85, 101
2, 197120, Note_on_c, 0, 46, 101
2, 197376, Note_off_c, 0, 46, 0
2, 197376, Note_on_c, 0, 54, 101
2, 197632, Note_off_c, 0, 85, 0
2, 197632, Note_on_c, 0, 76, 101
2, 197632, Note_off_c, 0, 54, 0
2, 197632, Note_on_c, 0, 49, 101
2, 197888, Note_off_c, 0, 49, 0
2, 197888, Note_on_c, 0, 54, 101
2, 198144, Note_off_c, 0, 76, 0
2, 198144, Note_off_c, 0, 54, 0
2, 198144, Note_on_c, 0, 46, 101
2, 198400, Note_off_c, 0, 46, 0
2, 198400, Note_on_c, 0, 54, 101
2, 198656, Note_on_c, 0, 76, 101
2, 198656, Note_off_c, 0, 54, 0
2, 198656, Note_on_c, 0, 49, 101
2, 198912, Note_off_c, 0, 49, 0
2, 198912, Note_on_c, 0, 54, 101
2, 199168, Note_off_c, 0, 76, 0
2, 199168, Note_off_c, 0, 54, 0
2, 199168, Note_on_c, 0, 75, 101
2, 199168, Note_on_c, 0, 47, 101
2, 199424, Note_off_c, 0, 75, 0
2, 199424, Note_on_c, 0, 71, 101
2, 199680, Note_off_c, 0, 71, 0
2, 199680, Note_on_c, 0, 78, 101
2, 199936, Note_off_c, 0, 78, 0
2, 199936, Note_on_c, 0, 75, 101
2, 200192, Note_off_c, 0, 75, 0
2, 200192, Note_on_c, 0, 83, 101
2, 200192, Note_off_c, 0, 47, 0
2, 200448, Note_off_c, 0, 83, 0
2, 200448, Note_on_c, 0, 78, 101
2, 200704, Note_off_c, 0, 78, 0
2, 200704, Note_on_c, 0, 75, 101
2, 200960, Note_off_c, 0, 75, 0
2, 200960, Note_on_c, 0, 71, 101
2, 201216, Note_off_c, 0, 71, 0
2, 201216, Note_on_c, 0, 81, 101
2, 201216, Note_on_c, 0, 51, 101
2, 201216, Note_on_c, 0, 63, 101
2, 201472, Note_off_c, 0, 81, 0
2, 201472, Note_on_c, 0, 78, 101
2, 201728, Note_off_c, 0, 78, 0
2, 201728, Note_on_c, 0, 75, 101
2, 201984, Note_off_c, 0, 75, 0
2, 201984, Note_on_c, 0, 71, 101
2, 202240, Note_off_c, 0, 71, 0
2, 202240, Note_on_c, 0, 80, 101
2, 202240, Note_off_c, 0, 51, 0
2, 202240, Note_off_c, 0, 63, 0
2, 202240, Note_on_c, 0, 52, 101
2, 202240, Note_on_c, 0, 64, 101
2, 202496, Note_off_c, 0, 80, 0
2, 202496, Note_on_c, 0, 76, 101
2, 202752, Note_off_c, 0, 76, 0
2, 202752, Note_on_c, 0, 75, 101
2, 203008, Note_off_c, 0, 75, 0
2, 203008, Note_on_c, 0, 76, 101
2, 203264, Note_off_c, 0, 76, 0
2, 203264, Note_off_c, 0, 52, 0
2, 203264, Note_off_c, 0, 64, 0
2, 203264, Note_on_c, 0, 75, 101
2, 203264, Note_on_c, 0, 47, 101
2, 203264, Note_on_c, 0, 59, 101
2, 203520, Note_off_c, 0, 75, 0
2, 203520, Note_on_c, 0, 71, 101
2, 203776, Note_off_c, 0, 71, 0
2, 203776, Note_on_c, 0, 78, 101
2, 204032, Note_off_c, 0, 78, 0
2, 204032, Note_on_c, 0, 75, 101
2, 204288, Note_off_c, 0, 75, 0
2, 204288, Note_on_c, 0, 83, 107
2, 204288, Note_off_c, 0, 47, 0
2, 204288, Note_off_c, 0, 59, 0
2, 204544, Note_off_c, 0, 83, 0
2, 204544, Note_on_c, 0, 78, 107
2, 204800, Note_off_c, 0, 78, 0
2, 204800, Note_on_c, 0, 75, 113
2, 205056, Note_off_c, 0, 75, 0
2, 205056, Note_on_c, 0, 71, 113
2, 205312, Note_off_c, 0, 71, 0
2, 205312, Note_on_c, 0, 81, 119
2, 205312, Note_on_c, 0, 51, 119
2, 205312, Note_on_c, 0, 63, 119
2, 205568, Note_off_c, 0, 81, 0
2, 205568, Note_on_c, 0, 78, 119
2, 205824, Note_off_c, 0, 78, 0
2, 205824, Note_on_c, 0, 75, 127
2, 206080, Note_off_c, 0, 75, 0
2, 206080, Note_on_c, 0, 71, 127
2, 206336, Note_off_c, 0, 71, 0
2, 206336, Note_on_c, 0, 80, 127
2, 206336, Note_off_c, 0, 51, 0
2, 206336, Note_off_c, 0, 63, 0
2, 206336, Note_on_c, 0, 52, 127
2, 206336, Note_on_c, 0, 64, 127
2, 206592, Note_off_c, 0, 80, 0
2, 206592, Note_on_c, 0, 76, 127
2, 206848, Note_off_c, 0, 76, 0
2, 206848, Note_on_c, 0, 75, 127
2, 207104, Note_off_c, 0, 75, 0
2, 207104, Note_on_c, 0, 76, 127
2, 207360, Note_off_c, 0, 76, 0
2, 207360, Note_off_c, 0, 52, 0
2, 207360, Note_off_c, 0, 64, 0
2, 207360, Note_on_c, 0, 75, 127
2, 207360, Note_on_c, 0, 47, 127
2, 207360, Note_on_c, 0, 59, 127
2, 207872, Note_off_c, 0, 75, 0
2, 207872, Note_on_c, 0, 83, 127
2, 208384, Note_off_c, 0, 83, 0
2, 208384, Note_off_c, 0, 47, 0
2, 208384, Note_off_c, 0, 59, 0
2, 208896, Note_on_c, 0, 56, 101
2, 208896, Note_on_c, 0, 64, 101
2, 209408, Note_off_c, 0, 56, 0
2, 209408, Note_off_c, 0, 64, 0
2, 209408, Note_on_c, 0, 56, 101
2, 209408, Note_on_c, 0, 64, 101
2, 209920, Note_on_c, 0, 40, 101
2, 209920, Note_on_c, 0, 52, 101
2, 210432, Note_off_c, 0, 56, 0
2, 210432, Note_off_c, 0, 64, 0
2, 210432, Note_off_c, 0, 40, 0
2, 210432, Note_off_c, 0, 52, 0
2, 210432, Note_on_c, 0, 40, 101
2, 210432, Note_on_c, 0, 52, 101
2, 210944, Note_on_c, 0, 64, 101
2, 210944, Note_on_c, 0, 68, 101
2, 211456, Note_off_c, 0, 64, 0
2, 211456, Note_off_c, 0, 68, 0
2, 211456, Note_off_c, 0, 40, 0
2, 211456, Note_off_c, 0, 52, 0
2, 211456, Note_on_c, 0, 64, 101
2, 211456, Note_on_c, 0, 68, 101
2, 211968, Note_on_c, 0, 40, 101
2, 211968, Note_on_c, 0, 52, 101
2, 212480, Note_off_c, 0, 64, 0
2, 212480, Note_off_c, 0, 68, 0
2, 212480, Note_off_c, 0, 40, 0
2, 212480, Note_off_c, 0, 52, 0
2, 212480, Note_on_c, 0, 40, 101
2, 212480, Note_on_c, 0, 52, 101
2, 212992, Note_on_c, 0, 68, 101
2, 212992, Note_on_c, 0, 71, 101
2, 213504, Note_off_c, 0, 68, 0
2, 213504, Note_off_c, 0, 71, 0
2, 213504, Note_off_c, 0, 40, 0
2, 213504, Note_off_c, 0, 52, 0
2, 213504, Note_on_c, 0, 68, 101
2, 213504, Note_on_c, 0, 71, 101
2, 214016, Note_on_c, 0, 40, 101
2, 214016, Note_on_c, 0, 52, 101
2, 214528, Note_off_c, 0, 68, 0
2, 214528, Note_off_c, 0, 71, 0
2, 214528, Note_off_c, 0, 40, 0
2, 214528, Note_off_c, 0, 52, 0
2, 214528, Note_on_c, 0, 40, 101
2, 214528, Note_on_c, 0, 52, 101
2, 215040, Note_on_c, 0, 68, 101
2, 215040, Note_on_c, 0, 76, 101
2, 215552, Note_off_c, 0, 68, 0
2, 215552, Note_off_c, 0, 76, 0
2, 215552, Note_off_c, 0, 40, 0
2, 215552, Note_off_c, 0, 52, 0
2, 215552, Note_on_c, 0, 68, 101
2, 215552, Note_on_c, 0, 76, 101
2, 216064, Note_on_c, 0, 40, 101
2, 216064, Note_on_c, 0, 52, 101
2, 216576, Note_off_c, 0, 68, 0
2, 216576, Note_off_c, 0, 76, 0
2, 216576, Note_off_c, 0, 40, 0
2, 216576, Note_off_c, 0, 52, 0
2, 216576, Note_on_c, 0, 40, 101
2, 216576, Note_on_c, 0, 52, 101
2, 217088, Note_on_c, 0, 68, 101
2, 217088, Note_on_c, 0, 71, 101
2, 217600, Note_off_c, 0, 68, 0
2, 217600, Note_off_c, 0, 71, 0
2, 217600, Note_off_c, 0, 40, 0
2, 217600, Note_off_c, 0, 52, 0
2, 217600, Note_on_c, 0, 66, 101
2, 217600, Note_on_c, 0, 69, 101
2, 217600, Note_on_c, 0, 35, 101
2, 217600, Note_on_c, 0, 47, 101
2, 218112, Note_off_c, 0, 66, 0
2, 218112, Note_off_c, 0, 69, 0
2, 218112, Note_on_c, 0, 64, 101
2, 218112, Note_on_c, 0, 68, 101
2, 218624, Note_off_c, 0, 64, 0
2, 218624, Note_off_c, 0, 68, 0
2, 218624, Note_on_c, 0, 66, 101
2, 218624, Note_on_c, 0, 69, 101
2, 218624, Note_off_c, 0, 35, 0
2, 218624, Note_off_c, 0, 47, 0
2, 218624, Note_on_c, 0, 35, 101
2, 218624, Note_on_c, 0, 47, 101
2, 219136, Note_off_c, 0, 66, 0
2, 219136, Note_off_c, 0, 69, 0
2, 219136, Note_on_c, 0, 63, 101
2, 219136, Note_on_c, 0, 66, 101
2, 219648, Note_off_c, 0, 63, 0
2, 219648, Note_off_c, 0, 66, 0
2, 219648, Note_off_c, 0, 35, 0
2, 219648, Note_off_c, 0, 47, 0
2, 219648, Note_on_c, 0, 64, 101
2, 219648, Note_on_c, 0, 68, 101
2, 219648, Note_on_c, 0, 40, 101
2, 219648, Note_on_c, 0, 52, 101
2, 220160, Note_off_c, 0, 64, 0
2, 220160, Note_off_c, 0, 68, 0
2, 220160, Note_on_c, 0, 68, 101
2, 220160, Note_on_c, 0, 71, 101
2, 220672, Note_off_c, 0, 68, 0
2, 220672, Note_off_c, 0, 71, 0
2, 220672, Note_off_c, 0, 40, 0
2, 220672, Note_off_c, 0, 52, 0
2, 220672, Note_on_c, 0, 40, 101
2, 220672, Note_on_c, 0, 52, 101
2, 221184, Note_on_c, 0, 68, 101
2, 221184, Note_on_c, 0, 71, 101
2, 221696, Note_off_c, 0, 68, 0
2, 221696, Note_off_c, 0, 71, 0
2, 221696, Note_off_c, 0, 40, 0
2, 221696, Note_off_c, 0, 52, 0
2, 221696, Note_on_c, 0, 66, 101
2, 221696, Note_on_c, 0, 69, 101
2, 221696, Note_on_c, 0, 35, 101
2, 221696, Note_on_c, 0, 47, 101
2, 222208, Note_off_c, 0, 66, 0
2, 222208, Note_off_c, 0, 69, 0
2, 222208, Note_on_c, 0, 64, 101
2, 222208, Note_on_c, 0, 68, 101
2, 222720, Note_off_c, 0, 64, 0
2, 222720, Note_off_c, 0, 68, 0
2, 222720, Note_on_c, 0, 66, 101
2, 222720, Note_on_c, 0, 69, 101
2, 222720, Note_off_c, 0, 35, 0
2, 222720, Note_off_c, 0, 47, 0
2, 222720, Note_on_c, 0, 35, 101
2, 222720, Note_on_c, 0, 47, 101
2, 223232, Note_off_c, 0, 66, 0
2, 223232, Note_off_c, 0, 69, 0
2, 223232, Note_on_c, 0, 63, 101
2, 223232, Note_on_c, 0, 66, 101
2, 223744, Note_off_c, 0, 63, 0
2, 223744, Note_off_c, 0, 66, 0
2, 223744, Note_off_c, 0, 35, 0
2, 223744, Note_off_c, 0, 47, 0
2, 223744, Note_on_c, 0, 64, 101
2, 223744, Note_on_c, 0, 40, 101
2, 223744, Note_on_c, 0, 52, 101
2, 224256, Note_off_c, 0, 64, 0
2, 224256, Note_on_c, 0, 59, 101
2, 224768, Note_off_c, 0, 59, 0
2, 224768, Note_off_c, 0, 40, 0
2, 224768, Note_off_c, 0, 52, 0
2, 225280, Note_on_c, 0, 55, 62
2, 225280, Note_on_c, 0, 64, 62
2, 225792, Note_off_c, 0, 55, 0
2, 225792, Note_off_c, 0, 64, 0
2, 225792, Note_on_c, 0, 55, 62
2, 225792, Note_on_c, 0, 64, 62
2, 226304, Note_on_c, 0, 40, 62
2, 226304, Note_on_c, 0, 52, 62
2, 226816, Note_off_c, 0, 55, 0
2, 226816, Note_off_c, 0, 64, 0
2, 226816, Note_off_c, 0, 40, 0
2, 226816, Note_off_c, 0, 52, 0
2, 226816, Note_on_c, 0, 40, 62
2, 226816, Note_on_c, 0, 52, 62
2, 227328, Note_on_c, 0, 64, 62
2, 227328, Note_on_c, 0, 67, 62
2, 227840, Note_off_c, 0, 64, 0
2, 227840, Note_off_c, 0, 67, 0
2, 227840, Note_off_c, 0, 40, 0
2, 227840, Note_off_c, 0, 52, 0
2, 227840, Note_on_c, 0, 63, 62
2, 227840, Note_on_c, 0, 66, 62
2, 228352, Note_on_c, 0, 35, 62
2, 228352, Note_on_c, 0, 47, 62
2, 228864, Note_off_c, 0, 63, 0
2, 228864, Note_off_c, 0, 66, 0
2, 228864, Note_off_c, 0, 35, 0
2, 228864, Note_off_c, 0, 47, 0
2, 228864, Note_on_c, 0, 35, 62
2, 228864, Note_on_c, 0, 47, 62
2, 229376, Note_on_c, 0, 63, 62
2, 229376, Note_on_c, 0, 66, 62
2, 229888, Note_off_c, 0, 63, 0
2, 229888, Note_off_c, 0, 66, 0
2, 229888, Note_off_c, 0, 35, 0
2, 229888, Note_off_c, 0, 47, 0
2, 229888, Note_on_c, 0, 63, 62
2, 229888, Note_on_c, 0, 66, 62
2, 230400, Note_on_c, 0, 35, 62
2, 230400, Note_on_c, 0, 47, 62
2, 230912, Note_off_c, 0, 63, 0
2, 230912, Note_off_c, 0, 66, 0
2, 230912, Note_off_c, 0, 35, 0
2, 230912, Note_off_c, 0, 47, 0
2, 230912, Note_on_c, 0, 35, 62
2, 230912, Note_on_c, 0, 47, 62
2, 231424, Note_on_c, 0, 66, 62
2, 231424, Note_on_c, 0, 69, 62
2, 231936, Note_off_c, 0, 66, 0
2, 231936, Note_off_c, 0, 69, 0
2, 231936, Note_off_c, 0, 35, 0
2, 231936, Note_off_c, 0, 47, 0
2, 231936, Note_on_c, 0, 64, 62
2, 231936, Note_on_c, 0, 67, 62
2, 232448, Note_on_c, 0, 40, 62
2, 232448, Note_on_c, 0, 52, 62
2, 232960, Note_off_c, 0, 64, 0
2, 232960, Note_off_c, 0, 67, 0
2, 232960, Note_off_c, 0, 40, 0
2, 232960, Note_off_c, 0, 52, 0
2, 232960, Note_on_c, 0, 40, 62
2, 232960, Note_on_c, 0, 52, 62
2, 233472, Note_on_c, 0, 67, 62
2, 233472, Note_on_c, 0, 71, 62
2, 233984, Note_off_c, 0, 67, 0
2, 233984, Note_off_c, 0, 71, 0
2, 233984, Note_off_c, 0, 40, 0
2, 233984, Note_off_c, 0, 52, 0
2, 233984, Note_on_c, 0, 69, 62
2, 233984, Note_on_c, 0, 72, 62
2, 234496, Note_on_c, 0, 40, 62
2, 234496, Note_on_c, 0, 52, 62
2, 235008, Note_off_c, 0, 69, 0
2, 235008, Note_off_c, 0, 72, 0
2, 235008, Note_off_c, 0, 40, 0
2, 235008, Note_off_c, 0, 52, 0
2, 235008, Note_on_c, 0, 40, 68
2, 235008, Note_on_c, 0, 52, 68
2, 235520, Note_on_c, 0, 66, 74
2, 235520, Note_on_c, 0, 75, 74
2, 236032, Note_off_c, 0, 66, 0
2, 236032, Note_off_c, 0, 75, 0
2, 236032, Note_off_c, 0, 40, 0
2, 236032, Note_off_c, 0, 52, 0
2, 236032, Note_on_c, 0, 67, 80
2, 236032, Note_on_c, 0, 76, 80
2, 236544, Note_on_c, 0, 40, 88
2, 236544, Note_on_c, 0, 52, 88
2, 237056, Note_off_c, 0, 67, 0
2, 237056, Note_off_c, 0, 76, 0
2, 237056, Note_off_c, 0, 40, 0
2, 237056, Note_off_c, 0, 52, 0
2, 237056, Note_on_c, 0, 40, 94
2, 237056, Note_on_c, 0, 52, 94
2, 237568, Note_on_c, 0, 67, 100
2, 237568, Note_on_c, 0, 71, 100
2, 238080, Note_off_c, 0, 67, 0
2, 238080, Note_off_c, 0, 71, 0
2, 238080, Note_off_c, 0, 40, 0
2, 238080, Note_off_c, 0, 52, 0
2, 238080, Note_on_c, 0, 35, 106
2, 238080, Note_on_c, 0, 47, 106
2, 238592, Note_on_c, 0, 66, 106
2, 238592, Note_on_c, 0, 69, 106
2, 238592, Note_off_c, 0, 35, 0
2, 238592, Note_off_c, 0, 47, 0
2, 239104, Note_off_c, 0, 66, 0
2, 239104, Note_off_c, 0, 69, 0
2, 239104, Note_on_c, 0, 35, 106
2, 239104, Note_on_c, 0, 47, 106
2, 239616, Note_on_c, 0, 64, 106
2, 239616, Note_on_c, 0, 67, 106
2, 239616, Note_off_c, 0, 35, 0
2, 239616, Note_off_c, 0, 47, 0
2, 240128, Note_off_c, 0, 64, 0
2, 240128, Note_off_c, 0, 67, 0
2, 240128, Note_on_c, 0, 35, 106
2, 240128, Note_on_c, 0, 47, 106
2, 240640, Note_on_c, 0, 63, 106
2, 240640, Note_on_c, 0, 66, 106
2, 241152, Note_off_c, 0, 63, 0
2, 241152, Note_off_c, 0, 66, 0
2, 241152, Note_on_c, 0, 59, 106
2, 241152, Note_off_c, 0, 35, 0
2, 241152, Note_off_c, 0, 47, 0
2, 241664, Note_off_c, 0, 59, 0
2, 241664, Note_on_c, 0, 67, 106
2, 241664, Note_on_c, 0, 71, 106
2, 242176, Note_off_c, 0, 67, 0
2, 242176, Note_off_c, 0, 71, 0
2, 242176, Note_on_c, 0, 35, 106
2, 242176, Note_on_c, 0, 47, 106
2, 242688, Note_on_c, 0, 66, 106
2, 242688, Note_on_c, 0, 69, 106
2, 242688, Note_off_c, 0, 35, 0
2, 242688, Note_off_c, 0, 47, 0
2, 243200, Note_off_c, 0, 66, 0
2, 243200, Note_off_c, 0, 69, 0
2, 243200, Note_on_c, 0, 35, 106
2, 243200, Note_on_c, 0, 47, 106
2, 243712, Note_on_c, 0, 64, 106
2, 243712, Note_on_c, 0, 67, 106
2, 243712, Note_off_c, 0, 35, 0
2, 243712, Note_off_c, 0, 47, 0
2, 244224, Note_off_c, 0, 64, 0
2, 244224, Note_off_c, 0, 67, 0
2, 244224, Note_on_c, 0, 35, 106
2, 244224, Note_on_c, 0, 47, 106
2, 244736, Note_on_c, 0, 63, 106
2, 244736, Note_on_c, 0, 66, 106
2, 245248, Note_off_c, 0, 63, 0
2, 245248, Note_off_c, 0, 66, 0
2, 245248, Note_on_c, 0, 59, 106
2, 245248, Note_off_c, 0, 35, 0
2, 245248, Note_off_c, 0, 47, 0
2, 245760, Note_off_c, 0, 59, 0
2, 245760, Note_on_c, 0, 67, 106
2, 245760, Note_on_c, 0, 71, 106
2, 246272, Note_off_c, 0, 67, 0
2, 246272, Note_off_c, 0, 71, 0
2, 246272, Note_on_c, 0, 35, 106
2, 246272, Note_on_c, 0, 47, 106
2, 246784, Note_on_c, 0, 66, 106
2, 246784, Note_on_c, 0, 69, 106
2, 246784, Note_off_c, 0, 35, 0
2, 246784, Note_off_c, 0, 47, 0
2, 247296, Note_off_c, 0, 66, 0
2, 247296, Note_off_c, 0, 69, 0
2, 247296, Note_on_c, 0, 35, 106
2, 247296, Note_on_c, 0, 47, 106
2, 247808, Note_on_c, 0, 64, 106
2, 247808, Note_on_c, 0, 67, 106
2, 247808, Note_off_c, 0, 35, 0
2, 247808, Note_off_c, 0, 47, 0
2, 248320, Note_off_c, 0, 64, 0
2, 248320, Note_off_c, 0, 67, 0
2, 248320, Note_on_c, 0, 63, 106
2, 248320, Note_on_c, 0, 66, 106
2, 248320, Note_on_c, 0, 35, 106
2, 248320, Note_on_c, 0, 47, 106
2, 249344, Note_off_c, 0, 63, 0
2, 249344, Note_off_c, 0, 66, 0
2, 249344, Note_off_c, 0, 35, 0
2, 249344, Note_off_c, 0, 47, 0
2, 250368, Note_on_c, 0, 68, 101
2, 250368, Note_on_c, 0, 44, 101
2, 250368, Note_on_c, 0, 56, 101
2, 250624, Note_off_c, 0, 68, 0
2, 250624, Note_on_c, 0, 64, 101
2, 250880, Note_off_c, 0, 64, 0
2, 250880, Note_on_c, 0, 71, 101
2, 251136, Note_off_c, 0, 71, 0
2, 251136, Note_on_c, 0, 68, 101
2, 251392, Note_off_c, 0, 68, 0
2, 251392, Note_on_c, 0, 76, 101
2, 251392, Note_off_c, 0, 44, 0
2, 251392, Note_off_c, 0, 56, 0
2, 251648, Note_off_c, 0, 76, 0
2, 251648, Note_on_c, 0, 71, 101
2, 251904, Note_off_c, 0, 71, 0
2, 251904, Note_on_c, 0, 68, 101
2, 251904, Note_on_c, 0, 44, 101
2, 251904, Note_on_c, 0, 56, 101
2, 252160, Note_off_c, 0, 68, 0
2, 252160, Note_on_c, 0, 64, 101
2, 252416, Note_off_c, 0, 64, 0
2, 252416, Note_off_c, 0, 44, 0
2, 252416, Note_off_c, 0, 56, 0
2, 252416, Note_on_c, 0, 68, 101
2, 252416, Note_on_c, 0, 45, 101
2, 252416, Note_on_c, 0, 57, 101
2, 252672, Note_off_c, 0, 68, 0
2, 252672, Note_on_c, 0, 64, 101
2, 252928, Note_off_c, 0, 64, 0
2, 252928, Note_on_c, 0, 71, 101
2, 253184, Note_off_c, 0, 71, 0
2, 253184, Note_on_c, 0, 68, 101
2, 253440, Note_off_c, 0, 68, 0
2, 253440, Note_on_c, 0, 76, 101
2, 253440, Note_off_c, 0, 45, 0
2, 253440, Note_off_c, 0, 57, 0
2, 253696, Note_off_c, 0, 76, 0
2, 253696, Note_on_c, 0, 71, 101
2, 253952, Note_off_c, 0, 71, 0
2, 253952, Note_on_c, 0, 68, 101
2, 253952, Note_on_c, 0, 45, 101
2, 253952, Note_on_c, 0, 57, 101
2, 254208, Note_off_c, 0, 68, 0
2, 254208, Note_on_c, 0, 64, 101
2, 254464, Note_off_c, 0, 64, 0
2, 254464, Note_off_c, 0, 45, 0
2, 254464, Note_off_c, 0, 57, 0
2, 254464, Note_on_c, 0, 68, 101
2, 254464, Note_on_c, 0, 47, 101
2, 254464, Note_on_c, 0, 59, 101
2, 254720, Note_off_c, 0, 68, 0
2, 254720, Note_on_c, 0, 64, 101
2, 254976, Note_off_c, 0, 64, 0
2, 254976, Note_on_c, 0, 71, 101
2, 255232, Note_off_c, 0, 71, 0
2, 255232, Note_on_c, 0, 68, 101
2, 255488, Note_off_c, 0, 68, 0
2, 255488, Note_on_c, 0, 76, 101
2, 255488, Note_off_c, 0, 47, 0
2, 255488, Note_off_c, 0, 59, 0
2, 255744, Note_off_c, 0, 76, 0
2, 255744, Note_on_c, 0, 71, 101
2, 256000, Note_off_c, 0, 71, 0
2, 256000, Note_on_c, 0, 68, 101
2, 256000, Note_on_c, 0, 47, 101
2, 256000, Note_on_c, 0, 59, 101
2, 256256, Note_off_c, 0, 68, 0
2, 256256, Note_on_c, 0, 64, 101
2, 256512, Note_off_c, 0, 64, 0
2, 256512, Note_off_c, 0, 47, 0
2, 256512, Note_off_c, 0, 59, 0
2, 256512, Note_on_c, 0, 69, 101
2, 256512, Note_on_c, 0, 49, 101
2, 256512, Note_on_c, 0, 61, 101
2, 256768, Note_off_c, 0, 69, 0
2, 256768, Note_on_c, 0, 64, 101
2, 257024, Note_off_c, 0, 64, 0
2, 257024, Note_on_c, 0, 73, 101
2, 257280, Note_off_c, 0, 73, 0
2, 257280, Note_on_c, 0, 69, 101
2, 257536, Note_off_c, 0, 69, 0
2, 257536, Note_on_c, 0, 76, 101
2, 257536, Note_off_c, 0, 49, 0
2, 257536, Note_off_c, 0, 61, 0
2, 257792, Note_off_c, 0, 76, 0
2, 257792, Note_on_c, 0, 73, 101
2, 258048, Note_off_c, 0, 73, 0
2, 258048, Note_on_c, 0, 69, 101
2, 258048, Note_on_c, 0, 49, 101
2, 258048, Note_on_c, 0, 61, 101
2, 258304, Note_off_c, 0, 69, 0
2, 258304, Note_on_c, 0, 64, 101
2, 258560, Note_off_c, 0, 64, 0
2, 258560, Note_off_c, 0, 49, 0
2, 258560, Note_off_c, 0, 61, 0
2, 258560, Note_on_c, 0, 76, 101
2, 258560, Note_on_c, 0, 44, 101
2, 258560, Note_on_c, 0, 56, 101
2, 258816, Note_off_c, 0, 76, 0
2, 258816, Note_on_c, 0, 71, 101
2, 259072, Note_off_c, 0, 71, 0
2, 259072, Note_on_c, 0, 68, 101
2, 259328, Note_off_c, 0, 68, 0
2, 259328, Note_on_c, 0, 64, 101
2, 259584, Note_off_c, 0, 64, 0
2, 259584, Note_on_c, 0, 76, 101
2, 259584, Note_off_c, 0, 44, 0
2, 259584, Note_off_c, 0, 56, 0
2, 259584, Note_on_c, 0, 45, 101
2, 259584, Note_on_c, 0, 57, 101
2, 259840, Note_off_c, 0, 76, 0
2, 259840, Note_on_c, 0, 73, 101
2, 260096, Note_off_c, 0, 73, 0
2, 260096, Note_on_c, 0, 69, 101
2, 260352, Note_off_c, 0, 69, 0
2, 260352, Note_on_c, 0, 64, 101
2, 260608, Note_off_c, 0, 64, 0
2, 260608, Note_off_c, 0, 45, 0
2, 260608, Note_off_c, 0, 57, 0
2, 260608, Note_on_c, 0, 76, 101
2, 260608, Note_on_c, 0, 44, 101
2, 260608, Note_on_c, 0, 56, 101
2, 260864, Note_off_c, 0, 76, 0
2, 260864, Note_on_c, 0, 71, 101
2, 261120, Note_off_c, 0, 71, 0
2, 261120, Note_on_c, 0, 68, 101
2, 261376, Note_off_c, 0, 68, 0
2, 261376, Note_on_c, 0, 64, 101
2, 261632, Note_off_c, 0, 64, 0
2, 261632, Note_on_c, 0, 76, 101
2, 261632, Note_off_c, 0, 44, 0
2, 261632, Note_off_c, 0, 56, 0
2, 261632, Note_on_c, 0, 45, 101
2, 261632, Note_on_c, 0, 57, 101
2, 261888, Note_off_c, 0, 76, 0
2, 261888, Note_on_c, 0, 73, 101
2, 262144, Note_off_c, 0, 73, 0
2, 262144, Note_on_c, 0, 69, 101
2, 262400, Note_off_c, 0, 69, 0
2, 262400, Note_on_c, 0, 64, 101
2, 262656, Note_off_c, 0, 64, 0
2, 262656, Note_off_c, 0, 45, 0
2, 262656, Note_off_c, 0, 57, 0
2, 262656, Note_on_c, 0, 76, 101
2, 262656, Note_on_c, 0, 44, 101
2, 262656, Note_on_c, 0, 56, 101
2, 262912, Note_off_c, 0, 76, 0
2, 262912, Note_on_c, 0, 71, 101
2, 263168, Note_off_c, 0, 71, 0
2, 263168, Note_on_c, 0, 68, 101
2, 263424, Note_off_c, 0, 68, 0
2, 263424, Note_on_c, 0, 64, 101
2, 263680, Note_off_c, 0, 64, 0
2, 263680, Note_on_c, 0, 76, 101
2, 263680, Note_off_c, 0, 44, 0
2, 263680, Note_off_c, 0, 56, 0
2, 263680, Note_on_c, 0, 45, 101
2, 263680, Note_on_c, 0, 57, 101
2, 263936, Note_off_c, 0, 76, 0
2, 263936, Note_on_c, 0, 73, 101
2, 264192, Note_off_c, 0, 73, 0
2, 264192, Note_on_c, 0, 69, 101
2, 264448, Note_off_c, 0, 69, 0
2, 264448, Note_on_c, 0, 64, 101
2, 264704, Note_off_c, 0, 64, 0
2, 264704, Note_off_c, 0, 45, 0
2, 264704, Note_off_c, 0, 57, 0
2, 264704, Note_on_c, 0, 66, 101
2, 264704, Note_on_c, 0, 59, 101
2, 264832, Note_off_c, 0, 66, 0
2, 264832, Note_on_c, 0, 68, 101
2, 264960, Note_off_c, 0, 68, 0
2, 264960, Note_on_c, 0, 66, 101
2, 265088, Note_off_c, 0, 66, 0
2, 265088, Note_on_c, 0, 68, 101
2, 265216, Note_off_c, 0, 68, 0
2, 265216, Note_on_c, 0, 66, 101
2, 265344, Note_off_c, 0, 66, 0
2, 265344, Note_on_c, 0, 68, 101
2, 265472, Note_off_c, 0, 68, 0
2, 265472, Note_on_c, 0, 66, 101
2, 265600, Note_off_c, 0, 66, 0
2, 265600, Note_on_c, 0, 68, 101
2, 265728, Note_off_c, 0, 68, 0
2, 265728, Note_on_c, 0, 66, 101
2, 265728, Note_off_c, 0, 59, 0
2, 265728, Note_on_c, 0, 47, 101
2, 265856, Note_off_c, 0, 66, 0
2, 265856, Note_on_c, 0, 68, 101
2, 265984, Note_off_c, 0, 68, 0
2, 265984, Note_on_c, 0, 66, 101
2, 266112, Note_off_c, 0, 66, 0
2, 266112, Note_on_c, 0, 68, 101
2, 266240, Note_off_c, 0, 68, 0
2, 266240, Note_on_c, 0, 66, 101
2, 266368, Note_off_c, 0, 66, 0
2, 266368, Note_on_c, 0, 68, 101
2, 266496, Note_off_c, 0, 68, 0
2, 266496, Note_on_c, 0, 66, 101
2, 266624, Note_off_c, 0, 66, 0
2, 266624, Note_on_c, 0, 68, 101
2, 266752, Note_off_c, 0, 68, 0
2, 266752, Note_off_c, 0, 47, 0
2, 266752, Note_on_c, 0, 64, 101
2, 266752, Note_on_c, 0, 52, 101
2, 267776, Note_off_c, 0, 64, 0
2, 267776, Note_off_c, 0, 52, 0
2, 268288, Note_on_c, 0, 80, 62
2, 268288, Note_on_c, 0, 83, 62
2, 268800, Note_off_c, 0, 80, 0
2, 268800, Note_off_c, 0, 83, 0
2, 268800, Note_on_c, 0, 80, 62
2, 268800, Note_on_c, 0, 83, 62
2, 269312, Note_off_c, 0, 80, 0
2, 269312, Note_off_c, 0, 83, 0
2, 269312, Note_on_c, 0, 76, 62
2, 269312, Note_on_c, 0, 80, 62
2, 269824, Note_off_c, 0, 76, 0
2, 269824, Note_off_c, 0, 80, 0
2, 269824, Note_on_c, 0, 76, 62
2, 269824, Note_on_c, 0, 80, 62
2, 270336, Note_off_c, 0, 76, 0
2, 270336, Note_off_c, 0, 80, 0
2, 270336, Note_on_c, 0, 80, 62
2, 270336, Note_on_c, 0, 83, 62
2, 270848, Note_off_c, 0, 80, 0
2, 270848, Note_off_c, 0, 83, 0
2, 270848, Note_on_c, 0, 78, 62
2, 270848, Note_on_c, 0, 81, 62
2, 271360, Note_off_c, 0, 78, 0
2, 271360, Note_off_c, 0, 81, 0
2, 271360, Note_on_c, 0, 75, 62
2, 271360, Note_on_c, 0, 78, 62
2, 271872, Note_off_c, 0, 75, 0
2, 271872, Note_off_c, 0, 78, 0
2, 272384, Note_on_c, 0, 71, 101
2, 272384, Note_on_c, 0, 59, 101
2, 272794, Note_off_c, 0, 71, 0
2, 272794, Note_off_c, 0, 59, 0
2, 272896, Note_on_c, 0, 76, 101
2, 272896, Note_on_c, 0, 64, 101
2, 273306, Note_off_c, 0, 76, 0
2, 273306, Note_off_c, 0, 64, 0
2, 273408, Note_on_c, 0, 71, 101
2, 273408, Note_on_c, 0, 59, 101
2, 273818, Note_off_c, 0, 71, 0
2, 273818, Note_off_c, 0, 59, 0
2, 273920, Note_on_c, 0, 76, 101
2, 273920, Note_on_c, 0, 64, 101
2, 274176, Note_off_c, 0, 76, 0
2, 274176, Note_on_c, 0, 71, 101
2, 274176, Note_off_c, 0, 64, 0
2, 274176, Note_on_c, 0, 59, 101
2, 274432, Note_off_c, 0, 71, 0
2, 274432, Note_on_c, 0, 68, 101
2, 274432, Note_off_c, 0, 59, 0
2, 274432, Note_on_c, 0, 56, 101
2, 274688, Note_off_c, 0, 68, 0
2, 274688, Note_on_c, 0, 64, 101
2, 274688, Note_off_c, 0, 56, 0
2, 274688, Note_on_c, 0, 52, 101
2, 274944, Note_off_c, 0, 64, 0
2, 274944, Note_off_c, 0, 52, 0
2, 274944, Note_on_c, 0, 71, 101
2, 274944, Note_on_c, 0, 59, 101
2, 275968, Note_off_c, 0, 71, 0
2, 275968, Note_off_c, 0, 59, 0
2, 276480, Note_on_c, 0, 79, 62
2, 276480, Note_on_c, 0, 83, 62
2, 276992, Note_off_c, 0, 79, 0
2, 276992, Note_off_c, 0, 83, 0
2, 276992, Note_on_c, 0, 79, 62
2, 276992, Note_on_c, 0, 83, 62
2, 277504, Note_off_c, 0, 79, 0
2, 277504, Note_off_c, 0, 83, 0
2, 277504, Note_on_c, 0, 76, 62
2, 277504, Note_on_c, 0, 79, 62
2, 278016, Note_off_c, 0, 76, 0
2, 278016, Note_off_c, 0, 79, 0
2, 278016, Note_on_c, 0, 76, 62
2, 278016, Note_on_c, 0, 79, 62
2, 278528, Note_off_c, 0, 76, 0
2, 278528, Note_off_c, 0, 79, 0
2, 278528, Note_on_c, 0, 79, 62
2, 278528, Note_on_c, 0, 83, 62
2, 279040, Note_off_c, 0, 79, 0
2, 279040, Note_off_c, 0, 83, 0
2, 279040, Note_on_c, 0, 78, 62
2, 279040, Note_on_c, 0, 81, 62
2, 279552, Note_off_c, 0, 78, 0
2, 279552, Note_off_c, 0, 81, 0
2, 279552, Note_on_c, 0, 75, 62
2, 279552, Note_on_c, 0, 78, 62
2, 280064, Note_off_c, 0, 75, 0
2, 280064, Note_off_c, 0, 78, 0
2, 280576, Note_on_c, 0, 75, 101
2, 281088, Note_off_c, 0, 75, 0
2, 281088, Note_on_c, 0, 76, 101
2, 281088, Note_on_c, 0, 55, 101
2, 281088, Note_on_c, 0, 48, 101
2, 281856, Note_off_c, 0, 76, 0
2, 281856, Note_on_c, 0, 75, 101
2, 282112, Note_off_c, 0, 75, 0
2, 282112, Note_on_c, 0, 76, 101
2, 282112, Note_off_c, 0, 55, 0
2, 282112, Note_on_c, 0, 58, 101
2, 282368, Note_off_c, 0, 76, 0
2, 282368, Note_on_c, 0, 79, 101
2, 282624, Note_off_c, 0, 79, 0
2, 282624, Note_on_c, 0, 78, 101
2, 282880, Note_off_c, 0, 78, 0
2, 282880, Note_on_c, 0, 76, 101
2, 283136, Note_off_c, 0, 76, 0
2, 283136, Note_off_c, 0, 58, 0
2, 283136, Note_off_c, 0, 48, 0
2, 283136, Note_on_c, 0, 75, 101
2, 283136, Note_on_c, 0, 47, 101
2, 283136, Note_on_c, 0, 59, 101
2, 284160, Note_off_c, 0, 75, 0
2, 284160, Note_off_c, 0, 47, 0
2, 284160, Note_off_c, 0, 59, 0
2, 284672, Note_on_c, 0, 56, 75
2, 284672, Note_on_c, 0, 64, 75
2, 285184, Note_off_c, 0, 56, 0
2, 285184, Note_off_c, 0, 64, 0
2, 285184, Note_on_c, 0, 56, 75
2, 285184, Note_on_c, 0, 64, 75
2, 285184, Note_on_c, 0, 40, 75
2, 285184, Note_on_c, 0, 52, 75
2, 285696, Note_off_c, 0, 56, 0
2, 285696, Note_off_c, 0, 64, 0
2, 285696, Note_on_c, 0, 64, 75
2, 285696, Note_on_c, 0, 68, 75
2, 286208, Note_off_c, 0, 64, 0
2, 286208, Note_off_c, 0, 68, 0
2, 286208, Note_on_c, 0, 64, 75
2, 286208, Note_on_c, 0, 68, 75
2, 286208, Note_off_c, 0, 40, 0
2, 286208, Note_off_c, 0, 52, 0
2, 286720, Note_off_c, 0, 64, 0
2, 286720, Note_off_c, 0, 68, 0
2, 286720, Note_on_c, 0, 68, 75
2, 286720, Note_on_c, 0, 71, 75
2, 287232, Note_off_c, 0, 68, 0
2, 287232, Note_off_c, 0, 71, 0
2, 287232, Note_on_c, 0, 71, 75
2, 287232, Note_on_c, 0, 68, 75
2, 288000, Note_off_c, 0, 71, 0
2, 288000, Note_on_c, 0, 76, 75
2, 288256, Note_off_c, 0, 76, 0
2, 288256, Note_on_c, 0, 71, 75
2, 288768, Note_off_c, 0, 71, 0
2, 288768, Note_off_c, 0, 68, 0
2, 289280, Note_on_c, 0, 73, 75
2, 289280, Note_on_c, 0, 57, 75
2, 289536, Note_off_c, 0, 57, 0
2, 289536, Note_on_c, 0, 64, 75
2, 289792, Note_off_c, 0, 64, 0
2, 289792, Note_on_c, 0, 61, 75
2, 290048, Note_off_c, 0, 73, 0
2, 290048, Note_on_c, 0, 75, 75
2, 290048, Note_off_c, 0, 61, 0
2, 290048, Note_on_c, 0, 64, 75
2, 290304, Note_off_c, 0, 75, 0
2, 290304, Note_on_c, 0, 76, 75
2, 290304, Note_off_c, 0, 64, 0
2, 290304, Note_on_c, 0, 56, 75
2, 290560, Note_off_c, 0, 56, 0
2, 290560, Note_on_c, 0, 64, 75
2, 290816, Note_off_c, 0, 76, 0
2, 290816, Note_off_c, 0, 64, 0
2, 290816, Note_on_c, 0, 59, 75
2, 291072, Note_off_c, 0, 59, 0
2, 291072, Note_on_c, 0, 64, 75
2, 291328, Note_off_c, 0, 64, 0
2, 291328, Note_on_c, 0, 73, 49
2, 291328, Note_on_c, 0, 57, 49
2, 291584, Note_off_c, 0, 57, 0
2, 291584, Note_on_c, 0, 64, 49
2, 291840, Note_off_c, 0, 64, 0
2, 291840, Note_on_c, 0, 61, 49
2, 292096, Note_off_c, 0, 73, 0
2, 292096, Note_on_c, 0, 75, 49
2, 292096, Note_off_c, 0, 61, 0
2, 292096, Note_on_c, 0, 64, 49
2, 292352, Note_off_c, 0, 75, 0
2, 292352, Note_on_c, 0, 76, 49
2, 292352, Note_off_c, 0, 64, 0
2, 292352, Note_on_c, 0, 56, 49
2, 292608, Note_off_c, 0, 56, 0
2, 292608, Note_on_c, 0, 64, 49
2, 292864, Note_off_c, 0, 76, 0
2, 292864, Note_off_c, 0, 64, 0
2, 292864, Note_on_c, 0, 59, 49
2, 293120, Note_off_c, 0, 59, 0
2, 293120, Note_on_c, 0, 64, 49
2, 293376, Note_off_c, 0, 64, 0
2, 293376, Note_on_c, 0, 73, 101
2, 293376, Note_on_c, 0, 57, 101
2, 293632, Note_off_c, 0, 73, 0
2, 293632, Note_on_c, 0, 76, 101
2, 293888, Note_off_c, 0, 76, 0
2, 293888, Note_on_c, 0, 75, 101
2, 294144, Note_off_c, 0, 75, 0
2, 294144, Note_on_c, 0, 73, 101
2, 294400, Note_off_c, 0, 73, 0
2, 294400, Note_on_c, 0, 71, 101
2, 294400, Note_off_c, 0, 57, 0
2, 294656, Note_off_c, 0, 71, 0
2, 294656, Note_on_c, 0, 69, 101
2, 294912, Note_off_c, 0, 69, 0
2, 294912, Note_on_c, 0, 68, 101
2, 295168, Note_off_c, 0, 68, 0
2, 295168, Note_on_c, 0, 66, 101
2, 295424, Note_off_c, 0, 66, 0
2, 295424, Note_on_c, 0, 64, 101
2, 295424, Note_on_c, 0, 47, 101
2, 295424, Note_on_c, 0, 52, 101
2, 295680, Note_off_c, 0, 64, 0
2, 295680, Note_on_c, 0, 66, 101
2, 295808, Note_off_c, 0, 66, 0
2, 295808, Note_on_c, 0, 68, 101
2, 295936, Note_off_c, 0, 68, 0
2, 295936, Note_on_c, 0, 66, 101
2, 296064, Note_off_c, 0, 66, 0
2, 296064, Note_on_c, 0, 68, 101
2, 296192, Note_off_c, 0, 68, 0
2, 296192, Note_on_c, 0, 66, 101
2, 296320, Note_off_c, 0, 66, 0
2, 296320, Note_on_c, 0, 68, 101
2, 296448, Note_off_c, 0, 68, 0
2, 296448, Note_on_c, 0, 66, 101
2, 296448, Note_off_c, 0, 47, 0
2, 296448, Note_off_c, 0, 52, 0
2, 296448, Note_on_c, 0, 47, 101
2, 296448, Note_on_c, 0, 51, 101
2, 296576, Note_off_c, 0, 66, 0
2, 296576, Note_on_c, 0, 68, 101
2, 296704, Note_off_c, 0, 68, 0
2, 296704, Note_on_c, 0, 66, 101
2, 296832, Note_off_c, 0, 66, 0
2, 296832, Note_on_c, 0, 68, 101
2, 296960, Note_off_c, 0, 68, 0
2, 296960, Note_on_c, 0, 66, 101
2, 297088, Note_off_c, 0, 66, 0
2, 297088, Note_on_c, 0, 68, 101
2, 297216, Note_off_c, 0, 68, 0
2, 297216, Note_on_c, 0, 66, 101
2, 297344, Note_off_c, 0, 66, 0
2, 297344, Note_on_c, 0, 68, 101
2, 297472, Note_off_c, 0, 68, 0
2, 297472, Note_off_c, 0, 47, 0
2, 297472, Note_off_c, 0, 51, 0
2, 297472, Note_on_c, 0, 64, 101
2, 297472, Note_on_c, 0, 52, 101
2, 297984, Note_off_c, 0, 52, 0
2, 297984, Note_on_c, 0, 47, 101
2, 298496, Note_off_c, 0, 64, 0
2, 298496, Note_off_c, 0, 47, 0
2, 298496, Note_on_c, 0, 40, 101
2, 299008, Note_on_c, 0, 56, 101
2, 299008, Note_on_c, 0, 64, 101
2, 299520, Note_off_c, 0, 56, 0
2, 299520, Note_off_c, 0, 64, 0
2, 299520, Note_off_c, 0, 40, 0
2, 299520, Note_on_c, 0, 56, 101
2, 299520, Note_on_c, 0, 64, 101
2, 300032, Note_on_c, 0, 40, 101
2, 300032, Note_on_c, 0, 52, 101
2, 300544, Note_off_c, 0, 56, 0
2, 300544, Note_off_c, 0, 64, 0
2, 300544, Note_off_c, 0, 40, 0
2, 300544, Note_off_c, 0, 52, 0
2, 300544, Note_on_c, 0, 40, 107
2, 300544, Note_on_c, 0, 52, 107
2, 301056, Note_on_c, 0, 64, 113
2, 301056, Note_on_c, 0, 68, 113
2, 301568, Note_off_c, 0, 64, 0
2, 301568, Note_off_c, 0, 68, 0
2, 301568, Note_off_c, 0, 40, 0
2, 301568, Note_off_c, 0, 52, 0
2, 301568, Note_on_c, 0, 64, 119
2, 301568, Note_on_c, 0, 68, 119
2, 302080, Note_on_c, 0, 40, 127
2, 302080, Note_on_c, 0, 52, 127
2, 302592, Note_off_c, 0, 64, 0
2, 302592, Note_off_c, 0, 68, 0
2, 302592, Note_off_c, 0, 40, 0
2, 302592, Note_off_c, 0, 52, 0
2, 302592, Note_on_c, 0, 40, 127
2, 302592, Note_on_c, 0, 52, 127
2, 303104, Note_on_c, 0, 68, 127
2, 303104, Note_on_c, 0, 71, 127
2, 303616, Note_off_c, 0, 68, 0
2, 303616, Note_off_c, 0, 71, 0
2, 303616, Note_off_c, 0, 40, 0
2, 303616, Note_off_c, 0, 52, 0
2, 303616, Note_on_c, 0, 68, 127
2, 303616, Note_on_c, 0, 71, 127
2, 304128, Note_on_c, 0, 40, 127
2, 304128, Note_on_c, 0, 52, 127
2, 304640, Note_off_c, 0, 68, 0
2, 304640, Note_off_c, 0, 71, 0
2, 304640, Note_off_c, 0, 40, 0
2, 304640, Note_off_c, 0, 52, 0
2, 304640, Note_on_c, 0, 40, 127
2, 304640, Note_on_c, 0, 52, 127
2, 305152, Note_on_c, 0, 68, 127
2, 305152, Note_on_c, 0, 76, 127
2, 305664, Note_off_c, 0, 68, 0
2, 305664, Note_off_c, 0, 76, 0
2, 305664, Note_off_c, 0, 40, 0
2, 305664, Note_off_c, 0, 52, 0
2, 305664, Note_on_c, 0, 68, 127
2, 305664, Note_on_c, 0, 76, 127
2, 306688, Note_off_c, 0, 68, 0
2, 306688, Note_off_c, 0, 76, 0
2, 307200, Note_on_c, 0, 83, 101
2, 307610, Note_off_c, 0, 83, 0
2, 307712, Note_on_c, 0, 83, 101
2, 307712, Note_on_c, 0, 49, 101
2, 307968, Note_off_c, 0, 49, 0
2, 307968, Note_on_c, 0, 59, 101
2, 308224, Note_off_c, 0, 83, 0
2, 308224, Note_on_c, 0, 77, 101
2, 308224, Note_off_c, 0, 59, 0
2, 308224, Note_on_c, 0, 56, 101
2, 308480, Note_off_c, 0, 56, 0
2, 308480, Note_on_c, 0, 59, 101
2, 308736, Note_off_c, 0, 77, 0
2, 308736, Note_off_c, 0, 59, 0
2, 308736, Note_on_c, 0, 49, 101
2, 308992, Note_off_c, 0, 49, 0
2, 308992, Note_on_c, 0, 59, 101
2, 309248, Note_on_c, 0, 77, 101
2, 309248, Note_off_c, 0, 59, 0
2, 309248, Note_on_c, 0, 56, 101
2, 309504, Note_off_c, 0, 56, 0
2, 309504, Note_on_c, 0, 59, 101
2, 309658, Note_off_c, 0, 77, 0
2, 309760, Note_off_c, 0, 59, 0
2, 309760, Note_on_c, 0, 78, 101
2, 309760, Note_on_c, 0, 49, 101
2, 310016, Note_off_c, 0, 49, 0
2, 310016, Note_on_c, 0, 57, 101
2, 310272, Note_off_c, 0, 78, 0
2, 310272, Note_on_c, 0, 73, 101
2, 310272, Note_off_c, 0, 57, 0
2, 310272, Note_on_c, 0, 54, 101
2, 310528, Note_off_c, 0, 54, 0
2, 310528, Note_on_c, 0, 57, 101
2, 310784, Note_off_c, 0, 73, 0
2, 310784, Note_off_c, 0, 57, 0
2, 310784, Note_on_c, 0, 49, 101
2, 311040, Note_off_c, 0, 49, 0
2, 311040, Note_on_c, 0, 57, 101
2, 311296, Note_on_c, 0, 81, 101
2, 311296, Note_off_c, 0, 57, 0
2, 311296, Note_on_c, 0, 54, 101
2, 311552, Note_off_c, 0, 54, 0
2, 311552, Note_on_c, 0, 57, 101
2, 311706, Note_off_c, 0, 81, 0
2, 311808, Note_off_c, 0, 57, 0
2, 311808, Note_on_c, 0, 80, 101
2, 311808, Note_on_c, 0, 49, 101
2, 312064, Note_off_c, 0, 49, 0
2, 312064, Note_on_c, 0, 56, 101
2, 312320, Note_off_c, 0, 80, 0
2, 312320, Note_on_c, 0, 71, 101
2, 312320, Note_off_c, 0, 56, 0
2, 312320, Note_on_c, 0, 53, 101
2, 312576, Note_off_c, 0, 53, 0
2, 312576, Note_on_c, 0, 56, 101
2, 312832, Note_off_c, 0, 71, 0
2, 312832, Note_off_c, 0, 56, 0
2, 312832, Note_on_c, 0, 49, 101
2, 313088, Note_off_c, 0, 49, 0
2, 313088, Note_on_c, 0, 56, 101
2, 313344, Note_on_c, 0, 71, 101
2, 313344, Note_off_c, 0, 56, 0
2, 313344, Note_on_c, 0, 53, 101
2, 313600, Note_off_c, 0, 53, 0
2, 313600, Note_on_c, 0, 56, 101
2, 313754, Note_off_c, 0, 71, 0
2, 313856, Note_off_c, 0, 56, 0
2, 313856, Note_on_c, 0, 69, 101
2, 313856, Note_on_c, 0, 49, 101
2, 314112, Note_off_c, 0, 49, 0
2, 314112, Note_on_c, 0, 57, 101
2, 314368, Note_off_c, 0, 69, 0
2, 314368, Note_on_c, 0, 66, 101
2, 314368, Note_off_c, 0, 57, 0
2, 314368, Note_on_c, 0, 54, 101
2, 314624, Note_off_c, 0, 54, 0
2, 314624, Note_on_c, 0, 57, 101
2, 314880, Note_off_c, 0, 66, 0
2, 314880, Note_off_c, 0, 57, 0
2, 314880, Note_on_c, 0, 49, 101
2, 315136, Note_off_c, 0, 49, 0
2, 315136, Note_on_c, 0, 57, 75
2, 315392, Note_on_c, 0, 81, 75
2, 315392, Note_off_c, 0, 57, 0
2, 315392, Note_on_c, 0, 54, 75
2, 315648, Note_off_c, 0, 54, 0
2, 315648, Note_on_c, 0, 57, 75
2, 315802, Note_off_c, 0, 81, 0
2, 315904, Note_off_c, 0, 57, 0
2, 315904, Note_on_c, 0, 81, 75
2, 315904, Note_on_c, 0, 47, 75
2, 316160, Note_off_c, 0, 47, 0
2, 316160, Note_on_c, 0, 57, 75
2, 316416, Note_off_c, 0, 81, 0
2, 316416, Note_on_c, 0, 75, 75
2, 316416, Note_off_c, 0, 57, 0
2, 316416, Note_on_c, 0, 54, 75
2, 316672, Note_off_c, 0, 54, 0
2, 316672, Note_on_c, 0, 57, 75
2, 316928, Note_off_c, 0, 75, 0
2, 316928, Note_off_c, 0, 57, 0
2, 316928, Note_on_c, 0, 47, 75
2, 317184, Note_off_c, 0, 47, 0
2, 317184, Note_on_c, 0, 57, 75
2, 317440, Note_on_c, 0, 75, 75
2, 317440, Note_off_c, 0, 57, 0
2, 317440, Note_on_c, 0, 54, 75
2, 317696, Note_off_c, 0, 54, 0
2, 317696, Note_on_c, 0, 57, 75
2, 317850, Note_off_c, 0, 75, 0
2, 317952, Note_off_c, 0, 57, 0
2, 317952, Note_on_c, 0, 76, 75
2, 317952, Note_on_c, 0, 47, 75
2, 318208, Note_off_c, 0, 47, 0
2, 318208, Note_on_c, 0, 56, 75
2, 318464, Note_off_c, 0, 76, 0
2, 318464, Note_on_c, 0, 71, 75
2, 318464, Note_off_c, 0, 56, 0
2, 318464, Note_on_c, 0, 52, 75
2, 318720, Note_off_c, 0, 52, 0
2, 318720, Note_on_c, 0, 56, 75
2, 318976, Note_off_c, 0, 71, 0
2, 318976, Note_off_c, 0, 56, 0
2, 318976, Note_on_c, 0, 47, 75
2, 319232, Note_off_c, 0, 47, 0
2, 319232, Note_on_c, 0, 56, 75
2, 319488, Note_on_c, 0, 80, 75
2, 319488, Note_off_c, 0, 56, 0
2, 319488, Note_on_c, 0, 52, 75
2, 319744, Note_off_c, 0, 52, 0
2, 319744, Note_on_c, 0, 56, 75
2, 319898, Note_off_c, 0, 80, 0
2, 320000, Note_off_c, 0, 56, 0
2, 320000, Note_on_c, 0, 78, 75
2, 320000, Note_on_c, 0, 47, 75
2, 320256, Note_off_c, 0, 47, 0
2, 320256, Note_on_c, 0, 54, 75
2, 320512, Note_off_c, 0, 78, 0
2, 320512, Note_on_c, 0, 69, 75
2, 320512, Note_off_c, 0, 54, 0
2, 320512, Note_on_c, 0, 51, 75
2, 320768, Note_off_c, 0, 51, 0
2, 320768, Note_on_c, 0, 54, 75
2, 321024, Note_off_c, 0, 69, 0
2, 321024, Note_off_c, 0, 54, 0
2, 321024, Note_on_c, 0, 47, 75
2, 321280, Note_off_c, 0, 47, 0
2, 321280, Note_on_c, 0, 54, 75
2, 321536, Note_on_c, 0, 69, 75
2, 321536, Note_off_c, 0, 54, 0
2, 321536, Note_on_c, 0, 51, 75
2, 321792, Note_off_c, 0, 51, 0
2, 321792, Note_on_c, 0, 54, 75
2, 321946, Note_off_c, 0, 69, 0
2, 322048, Note_off_c, 0, 54, 0
2, 322048, Note_on_c, 0, 68, 75
2, 322048, Note_on_c, 0, 47, 75
2, 322304, Note_off_c, 0, 47, 0
2, 322304, Note_on_c, 0, 56, 75
2, 322560, Note_off_c, 0, 68, 0
2, 322560, Note_on_c, 0, 64, 75
2, 322560, Note_off_c, 0, 56, 0
2, 322560, Note_on_c, 0, 52, 75
2, 322816, Note_off_c, 0, 52, 0
2, 322816, Note_on_c, 0, 56, 75
2, 323072, Note_off_c, 0, 64, 0
2, 323072, Note_off_c, 0, 56, 0
2, 323072, Note_on_c, 0, 47, 75
2, 323328, Note_off_c, 0, 47, 0
2, 323328, Note_on_c, 0, 56, 101
2, 323584, Note_on_c, 0, 83, 101
2, 323584, Note_off_c, 0, 56, 0
2, 323584, Note_on_c, 0, 52, 101
2, 323840, Note_off_c, 0, 52, 0
2, 323840, Note_on_c, 0, 56, 101
2, 323994, Note_off_c, 0, 83, 0
2, 324096, Note_off_c, 0, 56, 0
2, 324096, Note_on_c, 0, 83, 101
2, 324096, Note_on_c, 0, 44, 101
2, 324352, Note_off_c, 0, 44, 0
2, 324352, Note_on_c, 0, 52, 101
2, 324608, Note_off_c, 0, 83, 0
2, 324608, Note_on_c, 0, 74, 101
2, 324608, Note_off_c, 0, 52, 0
2, 324608, Note_on_c, 0, 47, 101
2, 324864, Note_off_c, 0, 47, 0
2, 324864, Note_on_c, 0, 52, 101
2, 325120, Note_off_c, 0, 74, 0
2, 325120, Note_off_c, 0, 52, 0
2, 325120, Note_on_c, 0, 44, 101
2, 325376, Note_off_c, 0, 44, 0
2, 325376, Note_on_c, 0, 52, 101
2, 325632, Note_on_c, 0, 74, 101
2, 325632, Note_off_c, 0, 52, 0
2, 325632, Note_on_c, 0, 47, 101
2, 325888, Note_off_c, 0, 47, 0
2, 325888, Note_on_c, 0, 52, 101
2, 326042, Note_off_c, 0, 74, 0
2, 326144, Note_off_c, 0, 52, 0
2, 326144, Note_on_c, 0, 72, 101
2, 326144, Note_on_c, 0, 45, 101
2, 326400, Note_off_c, 0, 45, 0
2, 326400, Note_on_c, 0, 52, 101
2, 326656, Note_off_c, 0, 72, 0
2, 326656, Note_on_c, 0, 73, 101
2, 326656, Note_off_c, 0, 52, 0
2, 326656, Note_on_c, 0, 49, 101
2, 326912, Note_off_c, 0, 49, 0
2, 326912, Note_on_c, 0, 52, 101
2, 327168, Note_off_c, 0, 73, 0
2, 327168, Note_off_c, 0, 52, 0
2, 327168, Note_on_c, 0, 45, 101
2, 327424, Note_off_c, 0, 45, 0
2, 327424, Note_on_c, 0, 52, 101
2, 327680, Note_on_c, 0, 85, 101
2, 327680, Note_off_c, 0, 52, 0
2, 327680, Note_on_c, 0, 49, 101
2, 327936, Note_off_c, 0, 49, 0
2, 327936, Note_on_c, 0, 52, 101
2, 328090, Note_off_c, 0, 85, 0
2, 328192, Note_off_c, 0, 52, 0
2, 328192, Note_on_c, 0, 85, 101
2, 328192, Note_on_c, 0, 46, 101
2, 328448, Note_off_c, 0, 46, 0
2, 328448, Note_on_c, 0, 54, 101
2, 328704, Note_off_c, 0, 85, 0
2, 328704, Note_on_c, 0, 76, 101
2, 328704, Note_off_c, 0, 54, 0
2, 328704, Note_on_c, 0, 49, 101
2, 328960, Note_off_c, 0, 49, 0
2, 328960, Note_on_c, 0, 54, 101
2, 329216, Note_off_c, 0, 76, 0
2, 329216, Note_off_c, 0, 54, 0
2, 329216, Note_on_c, 0, 46, 101
2, 329472, Note_off_c, 0, 46, 0
2, 329472, Note_on_c, 0, 54, 101
2, 329728, Note_on_c, 0, 76, 101
2, 329728, Note_off_c, 0, 54, 0
2, 329728, Note_on_c, 0, 49, 101
2, 329984, Note_off_c, 0, 49, 0
2, 329984, Note_on_c, 0, 54, 101
2, 330240, Note_off_c, 0, 76, 0
2, 330240, Note_off_c, 0, 54, 0
2, 330240, Note_on_c, 0, 75, 101
2, 330240, Note_on_c, 0, 47, 101
2, 330496, Note_off_c, 0, 75, 0
2, 330496, Note_on_c, 0, 71, 101
2, 330752, Note_off_c, 0, 71, 0
2, 330752, Note_on_c, 0, 78, 101
2, 331008, Note_off_c, 0, 78, 0
2, 331008, Note_on_c, 0, 75, 101
2, 331264, Note_off_c, 0, 75, 0
2, 331264, Note_on_c, 0, 83, 101
2, 331264, Note_off_c, 0, 47, 0
2, 331520, Note_off_c, 0, 83, 0
2, 331520, Note_on_c, 0, 78, 101
2, 331776, Note_off_c, 0, 78, 0
2, 331776, Note_on_c, 0, 75, 101
2, 332032, Note_off_c, 0, 75, 0
2, 332032, Note_on_c, 0, 71, 101
2, 332288, Note_off_c, 0, 71, 0
2, 332288, Note_on_c, 0, 81, 101
2, 332288, Note_on_c, 0, 51, 101
2, 332288, Note_on_c, 0, 63, 101
2, 332544, Note_off_c, 0, 81, 0
2, 332544, Note_on_c, 0, 78, 101
2, 332800, Note_off_c, 0, 78, 0
2, 332800, Note_on_c, 0, 75, 101
2, 333056, Note_off_c, 0, 75, 0
2, 333056, Note_on_c, 0, 71, 101
2, 333312, Note_off_c, 0, 71, 0
2, 333312, Note_on_c, 0, 80, 101
2, 333312, Note_off_c, 0, 51, 0
2, 333312, Note_off_c, 0, 63, 0
2, 333312, Note_on_c, 0, 52, 101
2, 333312, Note_on_c, 0, 64, 101
2, 333568, Note_off_c, 0, 80, 0
2, 333568, Note_on_c, 0, 76, 101
2, 333824, Note_off_c, 0, 76, 0
2, 333824, Note_on_c, 0, 75, 101
2, 334080, Note_off_c, 0, 75, 0
2, 334080, Note_on_c, 0, 76, 101
2, 334336, Note_off_c, 0, 76, 0
2, 334336, Note_off_c, 0, 52, 0
2, 334336, Note_off_c, 0, 64, 0
2, 334336, Note_on_c, 0, 75, 101
2, 334336, Note_on_c, 0, 47, 101
2, 334336, Note_on_c, 0, 59, 101
2, 334592, Note_off_c, 0, 75, 0
2, 334592, Note_on_c, 0, 71, 101
2, 334848, Note_off_c, 0, 71, 0
2, 334848, Note_on_c, 0, 78, 101
2, 335104, Note_off_c, 0, 78, 0
2, 335104, Note_on_c, 0, 75, 101
2, 335360, Note_off_c, 0, 75, 0
2, 335360, Note_on_c, 0, 83, 107
2, 335360, Note_off_c, 0, 47, 0
2, 335360, Note_off_c, 0, 59, 0
2, 335616, Note_off_c, 0, 83, 0
2, 335616, Note_on_c, 0, 78, 107
2, 335872, Note_off_c, 0, 78, 0
2, 335872, Note_on_c, 0, 75, 113
2, 336128, Note_off_c, 0, 75, 0
2, 336128, Note_on_c, 0, 71, 113
2, 336384, Note_off_c, 0, 71, 0
2, 336384, Note_on_c, 0, 81, 119
2, 336384, Note_on_c, 0, 51, 119
2, 336384, Note_on_c, 0, 63, 119
2, 336640, Note_off_c, 0, 81, 0
2, 336640, Note_on_c, 0, 78, 119
2, 336896, Note_off_c, 0, 78, 0
2, 336896, Note_on_c, 0, 75, 127
2, 337152, Note_off_c, 0, 75, 0
2, 337152, Note_on_c, 0, 71, 127
2, 337408, Note_off_c, 0, 71, 0
2, 337408, Note_on_c, 0, 80, 127
2, 337408, Note_off_c, 0, 51, 0
2, 337408, Note_off_c, 0, 63, 0
2, 337408, Note_on_c, 0, 52, 127
2, 337408, Note_on_c, 0, 64, 127
2, 337664, Note_off_c, 0, 80, 0
2, 337664, Note_on_c, 0, 76, 127
2, 337920, Note_off_c, 0, 76, 0
2, 337920, Note_on_c, 0, 75, 127
2, 338176, Note_off_c, 0, 75, 0
2, 338176, Note_on_c, 0, 76, 127
2, 338432, Note_off_c, 0, 76, 0
2, 338432, Note_off_c, 0, 52, 0
2, 338432, Note_off_c, 0, 64, 0
2, 338432, Note_on_c, 0, 75, 127
2, 338432, Note_on_c, 0, 47, 127
2, 338432, Note_on_c, 0, 59, 127
2, 338944, Note_off_c, 0, 75, 0
2, 338944, Note_on_c, 0, 83, 127
2, 339456, Note_off_c, 0, 83, 0
2, 339456, Note_off_c, 0, 47, 0
2, 339456, Note_off_c, 0, 59, 0
2, 339968, Note_on_c, 0, 56, 101
2, 339968, Note_on_c, 0, 64, 101
2, 340480, Note_off_c, 0, 56, 0
2, 340480, Note_off_c, 0, 64, 0
2, 340480, Note_on_c, 0, 56, 101
2, 340480, Note_on_c, 0, 64, 101
2, 340992, Note_on_c, 0, 40, 101
2, 340992, Note_on_c, 0, 52, 101
2, 341504, Note_off_c, 0, 56, 0
2, 341504, Note_off_c, 0, 64, 0
2, 341504, Note_off_c, 0, 40, 0
2, 341504, Note_off_c, 0, 52, 0
2, 341504, Note_on_c, 0, 40, 101
2, 341504, Note_on_c, 0, 52, 101
2, 342016, Note_on_c, 0, 64, 101
2, 342016, Note_on_c, 0, 68, 101
2, 342528, Note_off_c, 0, 64, 0
2, 342528, Note_off_c, 0, 68, 0
2, 342528, Note_off_c, 0, 40, 0
2, 342528, Note_off_c, 0, 52, 0
2, 342528, Note_on_c, 0, 64, 101
2, 342528, Note_on_c, 0, 68, 101
2, 343040, Note_on_c, 0, 40, 101
2, 343040, Note_on_c, 0, 52, 101
2, 343552, Note_off_c, 0, 64, 0
2, 343552, Note_off_c, 0, 68, 0
2, 343552, Note_off_c, 0, 40, 0
2, 343552, Note_off_c, 0, 52, 0
2, 343552, Note_on_c, 0, 40, 101
2, 343552, Note_on_c, 0, 52, 101
2, 344064, Note_on_c, 0, 68, 101
2, 344064, Note_on_c, 0, 71, 101
2, 344576, Note_off_c, 0, 68, 0
2, 344576, Note_off_c, 0, 71, 0
2, 344576, Note_off_c, 0, 40, 0
2, 344576, Note_off_c, 0, 52, 0
2, 344576, Note_on_c, 0, 68, 101
2, 344576, Note_on_c, 0, 71, 101
2, 345088, Note_on_c, 0, 40, 101
2, 345088, Note_on_c, 0, 52, 101
2, 345600, Note_off_c, 0, 68, 0
2, 345600, Note_off_c, 0, 71, 0
2, 345600, Note_off_c, 0, 40, 0
2, 345600, Note_off_c, 0, 52, 0
2, 345600, Note_on_c, 0, 40, 101
2, 345600, Note_on_c, 0, 52, 101
2, 346112, Note_on_c, 0, 68, 101
2, 346112, Note_on_c, 0, 76, 101
2, 346624, Note_off_c, 0, 68, 0
2, 346624, Note_off_c, 0, 76, 0
2, 346624, Note_off_c, 0, 40, 0
2, 346624, Note_off_c, 0, 52, 0
2, 346624, Note_on_c, 0, 68, 101
2, 346624, Note_on_c, 0, 76, 101
2, 347136, Note_on_c, 0, 40, 101
2, 347136, Note_on_c, 0, 52, 101
2, 347648, Note_off_c, 0, 68, 0
2, 347648, Note_off_c, 0, 76, 0
2, 347648, Note_off_c, 0, 40, 0
2, 347648, Note_off_c, 0, 52, 0
2, 347648, Note_on_c, 0, 40, 101
2, 347648, Note_on_c, 0, 52, 101
2, 348160, Note_on_c, 0, 68, 101
2, 348160, Note_on_c, 0, 71, 101
2, 348672, Note_off_c, 0, 68, 0
2, 348672, Note_off_c, 0, 71, 0
2, 348672, Note_off_c, 0, 40, 0
2, 348672, Note_off_c, 0, 52, 0
2, 348672, Note_on_c, 0, 66, 101
2, 348672, Note_on_c, 0, 69, 101
2, 348672, Note_on_c, 0, 35, 101
2, 348672, Note_on_c, 0, 47, 101
2, 349184, Note_off_c, 0, 66, 0
2, 349184, Note_off_c, 0, 69, 0
2, 349184, Note_on_c, 0, 64, 101
2, 349184, Note_on_c, 0, 68, 101
2, 349696, Note_off_c, 0, 64, 0
2, 349696, Note_off_c, 0, 68, 0
2, 349696, Note_on_c, 0, 66, 101
2, 349696, Note_on_c, 0, 69, 101
2, 349696, Note_off_c, 0, 35, 0
2, 349696, Note_off_c, 0, 47, 0
2, 349696, Note_on_c, 0, 35, 101
2, 349696, Note_on_c, 0, 47, 101
2, 350208, Note_off_c, 0, 66, 0
2, 350208, Note_off_c, 0, 69, 0
2, 350208, Note_on_c, 0, 63, 101
2, 350208, Note_on_c, 0, 66, 101
2, 350720, Note_off_c, 0, 63, 0
2, 350720, Note_off_c, 0, 66, 0
2, 350720, Note_off_c, 0, 35, 0
2, 350720, Note_off_c, 0, 47, 0
2, 350720, Note_on_c, 0, 64, 101
2, 350720, Note_on_c, 0, 68, 101
2, 350720, Note_on_c, 0, 40, 101
2, 350720, Note_on_c, 0, 52, 101
2, 351232, Note_off_c, 0, 64, 0
2, 351232, Note_off_c, 0, 68, 0
2, 351232, Note_on_c, 0, 68, 101
2, 351232, Note_on_c, 0, 71, 101
2, 351744, Note_off_c, 0, 68, 0
2, 351744, Note_off_c, 0, 71, 0
2, 351744, Note_off_c, 0, 40, 0
2, 351744, Note_off_c, 0, 52, 0
2, 351744, Note_on_c, 0, 40, 101
2, 351744, Note_on_c, 0, 52, 101
2, 352256, Note_on_c, 0, 68, 101
2, 352256, Note_on_c, 0, 71, 101
2, 352768, Note_off_c, 0, 68, 0
2, 352768, Note_off_c, 0, 71, 0
2, 352768, Note_off_c, 0, 40, 0
2, 352768, Note_off_c, 0, 52, 0
2, 352768, Note_on_c, 0, 66, 101
2, 352768, Note_on_c, 0, 69, 101
2, 352768, Note_on_c, 0, 35, 101
2, 352768, Note_on_c, 0, 47, 101
2, 353280, Note_off_c, 0, 66, 0
2, 353280, Note_off_c, 0, 69, 0
2, 353280, Note_on_c, 0, 64, 101
2, 353280, Note_on_c, 0, 68, 101
2, 353792, Note_off_c, 0, 64, 0
2, 353792, Note_off_c, 0, 68, 0
2, 353792, Note_on_c, 0, 66, 101
2, 353792, Note_on_c, 0, 69, 101
2, 353792, Note_off_c, 0, 35, 0
2, 353792, Note_off_c, 0, 47, 0
2, 353792, Note_on_c, 0, 35, 101
2, 353792, Note_on_c, 0, 47, 101
2, 354304, Note_off_c, 0, 66, 0
2, 354304, Note_off_c, 0, 69, 0
2, 354304, Note_on_c, 0, 63, 101
2, 354304, Note_on_c, 0, 66, 101
2, 354816, Note_off_c, 0, 63, 0
2, 354816, Note_off_c, 0, 66, 0
2, 354816, Note_off_c, 0, 35, 0
2, 354816, Note_off_c, 0, 47, 0
2, 354816, Note_on_c, 0, 64, 101
2, 354816, Note_on_c, 0, 40, 101
2, 354816, Note_on_c, 0, 52, 101
2, 355328, Note_off_c, 0, 64, 0
2, 355328, Note_on_c, 0, 59, 101
2, 355840, Note_off_c, 0, 59, 0
2, 355840, Note_off_c, 0, 40, 0
2, 355840, Note_off_c, 0, 52, 0
2, 356352, Note_on_c, 0, 55, 62
2, 356352, Note_on_c, 0, 64, 62
2, 356864, Note_off_c, 0, 55, 0
2, 356864, Note_off_c, 0, 64, 0
2, 356864, Note_on_c, 0, 55, 62
2, 356864, Note_on_c, 0, 64, 62
2, 357376, Note_on_c, 0, 40, 62
2, 357376, Note_on_c, 0, 52, 62
2, 357888, Note_off_c, 0, 55, 0
2, 357888, Note_off_c, 0, 64, 0
2, 357888, Note_off_c, 0, 40, 0
2, 357888, Note_off_c, 0, 52, 0
2, 357888, Note_on_c, 0, 40, 62
2, 357888, Note_on_c, 0, 52, 62
2, 358400, Note_on_c, 0, 64, 62
2, 358400, Note_on_c, 0, 67, 62
2, 358912, Note_off_c, 0, 64, 0
2, 358912, Note_off_c, 0, 67, 0
2, 358912, Note_off_c, 0, 40, 0
2, 358912, Note_off_c, 0, 52, 0
2, 358912, Note_on_c, 0, 63, 62
2, 358912, Note_on_c, 0, 66, 62
2, 359424, Note_on_c, 0, 35, 62
2, 359424, Note_on_c, 0, 47, 62
2, 359936, Note_off_c, 0, 63, 0
2, 359936, Note_off_c, 0, 66, 0
2, 359936, Note_off_c, 0, 35, 0
2, 359936, Note_off_c, 0, 47, 0
2, 359936, Note_on_c, 0, 35, 62
2, 359936, Note_on_c, 0, 47, 62
2, 360448, Note_on_c, 0, 63, 62
2, 360448, Note_on_c, 0, 66, 62
2, 360960, Note_off_c, 0, 63, 0
2, 360960, Note_off_c, 0, 66, 0
2, 360960, Note_off_c, 0, 35, 0
2, 360960, Note_off_c, 0, 47, 0
2, 360960, Note_on_c, 0, 63, 62
2, 360960, Note_on_c, 0, 66, 62
2, 361472, Note_on_c, 0, 35, 62
2, 361472, Note_on_c, 0, 47, 62
2, 361984, Note_off_c, 0, 63, 0
2, 361984, Note_off_c, 0, 66, 0
2, 361984, Note_off_c, 0, 35, 0
2, 361984, Note_off_c, 0, 47, 0
2, 361984, Note_on_c, 0, 35, 62
2, 361984, Note_on_c, 0, 47, 62
2, 362496, Note_on_c, 0, 66, 62
2, 362496, Note_on_c, 0, 69, 62
2, 363008, Note_off_c, 0, 66, 0
2, 363008, Note_off_c, 0, 69, 0
2, 363008, Note_off_c, 0, 35, 0
2, 363008, Note_off_c, 0, 47, 0
2, 363008, Note_on_c, 0, 64, 62
2, 363008, Note_on_c, 0, 67, 62
2, 363520, Note_on_c, 0, 40, 62
2, 363520, Note_on_c, 0, 52, 62
2, 364032, Note_off_c, 0, 64, 0
2, 364032, Note_off_c, 0, 67, 0
2, 364032, Note_off_c, 0, 40, 0
2, 364032, Note_off_c, 0, 52, 0
2, 364032, Note_on_c, 0, 40, 62
2, 364032, Note_on_c, 0, 52, 62
2, 364544, Note_on_c, 0, 67, 62
2, 364544, Note_on_c, 0, 71, 62
2, 365056, Note_off_c, 0, 67, 0
2, 365056, Note_off_c, 0, 71, 0
2, 365056, Note_off_c, 0, 40, 0
2, 365056, Note_off_c, 0, 52, 0
2, 365056, Note_on_c, 0, 69, 62
2, 365056, Note_on_c, 0, 72, 62
2, 365568, Note_on_c, 0, 40, 62
2, 365568, Note_on_c, 0, 52, 62
2, 366080, Note_off_c, 0, 69, 0
2, 366080, Note_off_c, 0, 72, 0
2, 366080, Note_off_c, 0, 40, 0
2, 366080, Note_off_c, 0, 52, 0
2, 366080, Note_on_c, 0, 40, 68
2, 366080, Note_on_c, 0, 52, 68
2, 366592, Note_on_c, 0, 66, 74
2, 366592, Note_on_c, 0, 75, 74
2, 367104, Note_off_c, 0, 66, 0
2, 367104, Note_off_c, 0, 75, 0
2, 367104, Note_off_c, 0, 40, 0
2, 367104, Note_off_c, 0, 52, 0
2, 367104, Note_on_c, 0, 67, 80
2, 367104, Note_on_c, 0, 76, 80
2, 367616, Note_on_c, 0, 40, 88
2, 367616, Note_on_c, 0, 52, 88
2, 368128, Note_off_c, 0, 67, 0
2, 368128, Note_off_c, 0, 76, 0
2, 368128, Note_off_c, 0, 40, 0
2, 368128, Note_off_c, 0, 52, 0
2, 368128, Note_on_c, 0, 40, 94
2, 368128, Note_on_c, 0, 52, 94
2, 368640, Note_on_c, 0, 67, 100
2, 368640, Note_on_c, 0, 71, 100
2, 369152, Note_off_c, 0, 67, 0
2, 369152, Note_off_c, 0, 71, 0
2, 369152, Note_off_c, 0, 40, 0
2, 369152, Note_off_c, 0, 52, 0
2, 369152, Note_on_c, 0, 35, 106
2, 369152, Note_on_c, 0, 47, 106
2, 369664, Note_on_c, 0, 66, 106
2, 369664, Note_on_c, 0, 69, 106
2, 369664, Note_off_c, 0, 35, 0
2, 369664, Note_off_c, 0, 47, 0
2, 370176, Note_off_c, 0, 66, 0
2, 370176, Note_off_c, 0, 69, 0
2, 370176, Note_on_c, 0, 35, 106
2, 370176, Note_on_c, 0, 47, 106
2, 370688, Note_on_c, 0, 64, 106
2, 370688, Note_on_c, 0, 67, 106
2, 370688, Note_off_c, 0, 35, 0
2, 370688, Note_off_c, 0, 47, 0
2, 371200, Note_off_c, 0, 64, 0
2, 371200, Note_off_c, 0, 67, 0
2, 371200, Note_on_c, 0, 35, 106
2, 371200, Note_on_c, 0, 47, 106
2, 371712, Note_on_c, 0, 63, 106
2, 371712, Note_on_c, 0, 66, 106
2, 372224, Note_off_c, 0, 63, 0
2, 372224, Note_off_c, 0, 66, 0
2, 372224, Note_on_c, 0, 59, 106
2, 372224, Note_off_c, 0, 35, 0
2, 372224, Note_off_c, 0, 47, 0
2, 372736, Note_off_c, 0, 59, 0
2, 372736, Note_on_c, 0, 67, 106
2, 372736, Note_on_c, 0, 71, 106
2, 373248, Note_off_c, 0, 67, 0
2, 373248, Note_off_c, 0, 71, 0
2, 373248, Note_on_c, 0, 35, 106
2, 373248, Note_on_c, 0, 47, 106
2, 373760, Note_on_c, 0, 66, 106
2, 373760, Note_on_c, 0, 69, 106
2, 373760, Note_off_c, 0, 35, 0
2, 373760, Note_off_c, 0, 47, 0
2, 374272, Note_off_c, 0, 66, 0
2, 374272, Note_off_c, 0, 69, 0
2, 374272, Note_on_c, 0, 35, 106
2, 374272, Note_on_c, 0, 47, 106
2, 374784, Note_on_c, 0, 64, 106
2, 374784, Note_on_c, 0, 67, 106
2, 374784, Note_off_c, 0, 35, 0
2, 374784, Note_off_c, 0, 47, 0
2, 375296, Note_off_c, 0, 64, 0
2, 375296, Note_off_c, 0, 67, 0
2, 375296, Note_on_c, 0, 35, 106
2, 375296, Note_on_c, 0, 47, 106
2, 375808, Note_on_c, 0, 63, 106
2, 375808, Note_on_c, 0, 66, 106
2, 376320, Note_off_c, 0, 63, 0
2, 376320, Note_off_c, 0, 66, 0
2, 376320, Note_on_c, 0, 59, 106
2, 376320, Note_off_c, 0, 35, 0
2, 376320, Note_off_c, 0, 47, 0
2, 376832, Note_off_c, 0, 59, 0
2, 376832, Note_on_c, 0, 67, 106
2, 376832, Note_on_c, 0, 71, 106
2, 377344, Note_off_c, 0, 67, 0
2, 377344, Note_off_c, 0, 71, 0
2, 377344, Note_on_c, 0, 35, 106
2, 377344, Note_on_c, 0, 47, 106
2, 377856, Note_on_c, 0, 66, 106
2, 377856, Note_on_c, 0, 69, 106
2, 377856, Note_off_c, 0, 35, 0
2, 377856, Note_off_c, 0, 47, 0
2, 378368, Note_off_c, 0, 66, 0
2, 378368, Note_off_c, 0, 69, 0
2, 378368, Note_on_c, 0, 35, 106
2, 378368, Note_on_c, 0, 47, 106
2, 378880, Note_on_c, 0, 64, 106
2, 378880, Note_on_c, 0, 67, 106
2, 378880, Note_off_c, 0, 35, 0
2, 378880, Note_off_c, 0, 47, 0
2, 379392, Note_off_c, 0, 64, 0
2, 379392, Note_off_c, 0, 67, 0
2, 379392, Note_on_c, 0, 63, 106
2, 379392, Note_on_c, 0, 66, 106
2, 379392, Note_on_c, 0, 35, 106
2, 379392, Note_on_c, 0, 47, 106
2, 380416, Note_off_c, 0, 63, 0
2, 380416, Note_off_c, 0, 66, 0
2, 380416, Note_off_c, 0, 35, 0
2, 380416, Note_off_c, 0, 47, 0
2, 381440, Note_on_c, 0, 68, 101
2, 381440, Note_on_c, 0, 44, 101
2, 381440, Note_on_c, 0, 56, 101
2, 381696, Note_off_c, 0, 68, 0
2, 381696, Note_on_c, 0, 64, 101
2, 381952, Note_off_c, 0, 64, 0
2, 381952, Note_on_c, 0, 71, 101
2, 382208, Note_off_c, 0, 71, 0
2, 382208, Note_on_c, 0, 68, 101
2, 382464, Note_off_c, 0, 68, 0
2, 382464, Note_on_c, 0, 76, 101
2, 382464, Note_off_c, 0, 44, 0
2, 382464, Note_off_c, 0, 56, 0
2, 382720, Note_off_c, 0, 76, 0
2, 382720, Note_on_c, 0, 71, 101
2, 382976, Note_off_c, 0, 71, 0
2, 382976, Note_on_c, 0, 68, 101
2, 382976, Note_on_c, 0, 44, 101
2, 382976, Note_on_c, 0, 56, 101
2, 383232, Note_off_c, 0, 68, 0
2, 383232, Note_on_c, 0, 64, 101
2, 383488, Note_off_c, 0, 64, 0
2, 383488, Note_off_c, 0, 44, 0
2, 383488, Note_off_c, 0, 56, 0
2, 383488, Note_on_c, 0, 68, 101
2, 383488, Note_on_c, 0, 45, 101
2, 383488, Note_on_c, 0, 57, 101
2, 383744, Note_off_c, 0, 68, 0
2, 383744, Note_on_c, 0, 64, 101
2, 384000, Note_off_c, 0, 64, 0
2, 384000, Note_on_c, 0, 71, 101
2, 384256, Note_off_c, 0, 71, 0
2, 384256, Note_on_c, 0, 68, 101
2, 384512, Note_off_c, 0, 68, 0
2, 384512, Note_on_c, 0, 76, 101
2, 384512, Note_off_c, 0, 45, 0
2, 384512, Note_off_c, 0, 57, 0
2, 384768, Note_off_c, 0, 76, 0
2, 384768, Note_on_c, 0, 71, 101
2, 385024, Note_off_c, 0, 71, 0
2, 385024, Note_on_c, 0, 68, 101
2, 385024, Note_on_c, 0, 45, 101
2, 385024, Note_on_c, 0, 57, 101
2, 385280, Note_off_c, 0, 68, 0
2, 385280, Note_on_c, 0, 64, 101
2, 385536, Note_off_c, 0, 64, 0
2, 385536, Note_off_c, 0, 45, 0
2, 385536, Note_off_c, 0, 57, 0
2, 385536, Note_on_c, 0, 68, 101
2, 385536, Note_on_c, 0, 47, 101
2, 385536, Note_on_c, 0, 59, 101
2, 385792, Note_off_c, 0, 68, 0
2, 385792, Note_on_c, 0, 64, 101
2, 386048, Note_off_c, 0, 64, 0
2, 386048, Note_on_c, 0, 71, 101
2, 386304, Note_off_c, 0, 71, 0
2, 386304, Note_on_c, 0, 68, 101
2, 386560, Note_off_c, 0, 68, 0
2, 386560, Note_on_c, 0, 76, 101
2, 386560, Note_off_c, 0, 47, 0
2, 386560, Note_off_c, 0, 59, 0
2, 386816, Note_off_c, 0, 76, 0
2, 386816, Note_on_c, 0, 71, 101
2, 387072, Note_off_c, 0, 71, 0
2, 387072, Note_on_c, 0, 68, 101
2, 387072, Note_on_c, 0, 47, 101
2, 387072, Note_on_c, 0, 59, 101
2, 387328, Note_off_c, 0, 68, 0
2, 387328, Note_on_c, 0, 64, 101
2, 387584, Note_off_c, 0, 64, 0
2, 387584, Note_off_c, 0, 47, 0
2, 387584, Note_off_c, 0, 59, 0
2, 387584, Note_on_c, 0, 69, 101
2, 387584, Note_on_c, 0, 49, 101
2, 387584, Note_on_c, 0, 61, 101
2, 387840, Note_off_c, 0, 69, 0
2, 387840, Note_on_c, 0, 64, 101
2, 388096, Note_off_c, 0, 64, 0
2, 388096, Note_on_c, 0, 73, 101
2, 388352, Note_off_c, 0, 73, 0
2, 388352, Note_on_c, 0, 69, 101
2, 388608, Note_off_c, 0, 69, 0
2, 388608, Note_on_c, 0, 76, 101
2, 388608, Note_off_c, 0, 49, 0
2, 388608, Note_off_c, 0, 61, 0
2, 388864, Note_off_c, 0, 76, 0
2, 388864, Note_on_c, 0, 73, 101
2, 389120, Note_off_c, 0, 73, 0
2, 389120, Note_on_c, 0, 69, 101
2, 389120, Note_on_c, 0, 49, 101
2, 389120, Note_on_c, 0, 61, 101
2, 389376, Note_off_c, 0, 69, 0
2, 389376, Note_on_c, 0, 64, 101
2, 389632, Note_off_c, 0, 64, 0
2, 389632, Note_off_c, 0, 49, 0
2, 389632, Note_off_c, 0, 61, 0
2, 389632, Note_on_c, 0, 76, 101
2, 389632, Note_on_c, 0, 44, 101
2, 389632, Note_on_c, 0, 56, 101
2, 389888, Note_off_c, 0, 76, 0
2, 389888, Note_on_c, 0, 71, 101
2, 390144, Note_off_c, 0, 71, 0
2, 390144, Note_on_c, 0, 68, 101
2, 390400, Note_off_c, 0, 68, 0
2, 390400, Note_on_c, 0, 64, 101
2, 390656, Note_off_c, 0, 64, 0
2, 390656, Note_on_c, 0, 76, 101
2, 390656, Note_off_c, 0, 44, 0
2, 390656, Note_off_c, 0, 56, 0
2, 390656, Note_on_c, 0, 45, 101
2, 390656, Note_on_c, 0, 57, 101
2, 390912, Note_off_c, 0, 76, 0
2, 390912, Note_on_c, 0, 73, 101
2, 391168, Note_off_c, 0, 73, 0
2, 391168, Note_on_c, 0, 69, 101
2, 391424, Note_off_c, 0, 69, 0
2, 391424, Note_on_c, 0, 64, 101
2, 391680, Note_off_c, 0, 64, 0
2, 391680, Note_off_c, 0, 45, 0
2, 391680, Note_off_c, 0, 57, 0
2, 391680, Note_on_c, 0, 76, 101
2, 391680, Note_on_c, 0, 44, 101
2, 391680, Note_on_c, 0, 56, 101
2, 391936, Note_off_c, 0, 76, 0
2, 391936, Note_on_c, 0, 71, 101
2, 392192, Note_off_c, 0, 71, 0
2, 392192, Note_on_c, 0, 68, 101
2, 392448, Note_off_c, 0, 68, 0
2, 392448, Note_on_c, 0, 64, 101
2, 392704, Note_off_c, 0, 64, 0
2, 392704, Note_on_c, 0, 76, 101
2, 392704, Note_off_c, 0, 44, 0
2, 392704, Note_off_c, 0, 56, 0
2, 392704, Note_on_c, 0, 45, 101
2, 392704, Note_on_c, 0, 57, 101
2, 392960, Note_off_c, 0, 76, 0
2, 392960, Note_on_c, 0, 73, 101
2, 393216, Note_off_c, 0, 73, 0
2, 393216, Note_on_c, 0, 69, 101
2, 393472, Note_off_c, 0, 69, 0
2, 393472, Note_on_c, 0, 64, 101
2, 393728, Note_off_c, 0, 64, 0
2, 393728, Note_off_c, 0, 45, 0
2, 393728, Note_off_c, 0, 57, 0
2, 393728, Note_on_c, 0, 76, 101
2, 393728, Note_on_c, 0, 44, 101
2, 393728, Note_on_c, 0, 56, 101
2, 393984, Note_off_c, 0, 76, 0
2, 393984, Note_on_c, 0, 71, 101
2, 394240, Note_off_c, 0, 71, 0
2, 394240, Note_on_c, 0, 68, 101
2, 394496, Note_off_c, 0, 68, 0
2, 394496, Note_on_c, 0, 64, 101
2, 394752, Note_off_c, 0, 64, 0
2, 394752, Note_on_c, 0, 76, 101
2, 394752, Note_off_c, 0, 44, 0
2, 394752, Note_off_c, 0, 56, 0
2, 394752, Note_on_c, 0, 45, 101
2, 394752, Note_on_c, 0, 57, 101
2, 395008, Note_off_c, 0, 76, 0
2, 395008, Note_on_c, 0, 73, 101
2, 395264, Note_off_c, 0, 73, 0
2, 395264, Note_on_c, 0, 69, 101
2, 395520, Note_off_c, 0, 69, 0
2, 395520, Note_on_c, 0, 64, 101
2, 395776, Note_off_c, 0, 64, 0
2, 395776, Note_off_c, 0, 45, 0
2, 395776, Note_off_c, 0, 57, 0
2, 395776, Note_on_c, 0, 66, 101
2, 395776, Note_on_c, 0, 59, 101
2, 395904, Note_off_c, 0, 66, 0
2, 395904, Note_on_c, 0, 68, 101
2, 396032, Note_off_c, 0, 68, 0
2, 396032, Note_on_c, 0, 66, 101
2, 396160, Note_off_c, 0, 66, 0
2, 396160, Note_on_c, 0, 68, 101
2, 396288, Note_off_c, 0, 68, 0
2, 396288, Note_on_c, 0, 66, 101
2, 396416, Note_off_c, 0, 66, 0
2, 396416, Note_on_c, 0, 68, 101
2, 396544, Note_off_c, 0, 68, 0
2, 396544, Note_on_c, 0, 66, 101
2, 396672, Note_off_c, 0, 66, 0
2, 396672, Note_on_c, 0, 68, 101
2, 396800, Note_off_c, 0, 68, 0
2, 396800, Note_on_c, 0, 66, 101
2, 396800, Note_off_c, 0, 59, 0
2, 396800, Note_on_c, 0, 47, 101
2, 396928, Note_off_c, 0, 66, 0
2, 396928, Note_on_c, 0, 68, 101
2, 397056, Note_off_c, 0, 68, 0
2, 397056, Note_on_c, 0, 66, 101
2, 397184, Note_off_c, 0, 66, 0
2, 397184, Note_on_c, 0, 68, 101
2, 397312, Note_off_c, 0, 68, 0
2, 397312, Note_on_c, 0, 66, 101
2, 397440, Note_off_c, 0, 66, 0
2, 397440, Note_on_c, 0, 68, 101
2, 397568, Note_off_c, 0, 68, 0
2, 397568, Note_on_c, 0, 66, 101
2, 397696, Note_off_c, 0, 66, 0
2, 397696, Note_on_c, 0, 68, 101
2, 397824, Note_off_c, 0, 68, 0
2, 397824, Note_off_c, 0, 47, 0
2, 397824, Note_on_c, 0, 64, 101
2, 397824, Note_on_c, 0, 52, 101
2, 398848, Note_off_c, 0, 64, 0
2, 398848, Note_off_c, 0, 52, 0
2, 399360, Note_on_c, 0, 80, 62
2, 399360, Note_on_c, 0, 83, 62
2, 399872, Note_off_c, 0, 80, 0
2, 399872, Note_off_c, 0, 83, 0
2, 399872, Note_on_c, 0, 80, 62
2, 399872, Note_on_c, 0, 83, 62
2, 400384, Note_off_c, 0, 80, 0
2, 400384, Note_off_c, 0, 83, 0
2, 400384, Note_on_c, 0, 76, 62
2, 400384, Note_on_c, 0, 80, 62
2, 400896, Note_off_c, 0, 76, 0
2, 400896, Note_off_c, 0, 80, 0
2, 400896, Note_on_c, 0, 76, 62
2, 400896, Note_on_c, 0, 80, 62
2, 401408, Note_off_c, 0, 76, 0
2, 401408, Note_off_c, 0, 80, 0
2, 401408, Note_on_c, 0, 80, 62
2, 401408, Note_on_c, 0, 83, 62
2, 401920, Note_off_c, 0, 80, 0
2, 401920, Note_off_c, 0, 83, 0
2, 401920, Note_on_c, 0, 78, 62
2, 401920, Note_on_c, 0, 81, 62
2, 402432, Note_off_c, 0, 78, 0
2, 402432, Note_off_c, 0, 81, 0
2, 402432, Note_on_c, 0, 75, 62
2, 402432, Note_on_c, 0, 78, 62
2, 402944, Note_off_c, 0, 75, 0
2, 402944, Note_off_c, 0, 78, 0
2, 403456, Note_on_c, 0, 71, 101
2, 403456, Note_on_c, 0, 59, 101
2, 403866, Note_off_c, 0, 71, 0
2, 403866, Note_off_c, 0, 59, 0
2, 403968, Note_on_c, 0, 76, 101
2, 403968, Note_on_c, 0, 64, 101
2, 404378, Note_off_c, 0, 76, 0
2, 404378, Note_off_c, 0, 64, 0
2, 404480, Note_on_c, 0, 71, 101
2, 404480, Note_on_c, 0, 59, 101
2, 404890, Note_off_c, 0, 71, 0
2, 404890, Note_off_c, 0, 59, 0
2, 404992, Note_on_c, 0, 76, 101
2, 404992, Note_on_c, 0, 64, 101
2, 405248, Note_off_c, 0, 76, 0
2, 405248, Note_on_c, 0, 71, 101
2, 405248, Note_off_c, 0, 64, 0
2, 405248, Note_on_c, 0, 59, 101
2, 405504, Note_off_c, 0, 71, 0
2, 405504, Note_on_c, 0, 68, 101
2, 405504, Note_off_c, 0, 59, 0
2, 405504, Note_on_c, 0, 56, 101
2, 405760, Note_off_c, 0, 68, 0
2, 405760, Note_on_c, 0, 64, 101
2, 405760, Note_off_c, 0, 56, 0
2, 405760, Note_on_c, 0, 52, 101
2, 406016, Note_off_c, 0, 64, 0
2, 406016, Note_off_c, 0, 52, 0
2, 406016, Note_on_c, 0, 71, 101
2, 406016, Note_on_c, 0, 59, 101
2, 407040, Note_off_c, 0, 71, 0
2, 407040, Note_off_c, 0, 59, 0
2, 407552, Note_on_c, 0, 79, 62
2, 407552, Note_on_c, 0, 83, 62
2, 408064, Note_off_c, 0, 79, 0
2, 408064, Note_off_c, 0, 83, 0
2, 408064, Note_on_c, 0, 79, 62
2, 408064, Note_on_c, 0, 83, 62
2, 408576, Note_off_c, 0, 79, 0
2, 408576, Note_off_c, 0, 83, 0
2, 408576, Note_on_c, 0, 76, 62
2, 408576, Note_on_c, 0, 79, 62
2, 409088, Note_off_c, 0, 76, 0
2, 409088, Note_off_c, 0, 79, 0
2, 409088, Note_on_c, 0, 76, 62
2, 409088, Note_on_c, 0, 79, 62
2, 409600, Note_off_c, 0, 76, 0
2, 409600, Note_off_c, 0, 79, 0
2, 409600, Note_on_c, 0, 79, 62
2, 409600, Note_on_c, 0, 83, 62
2, 410112, Note_off_c, 0, 79, 0
2, 410112, Note_off_c, 0, 83, 0
2, 410112, Note_on_c, 0, 78, 62
2, 410112, Note_on_c, 0, 81, 62
2, 410624, Note_off_c, 0, 78, 0
2, 410624, Note_off_c, 0, 81, 0
2, 410624, Note_on_c, 0, 75, 62
2, 410624, Note_on_c, 0, 78, 62
2, 411136, Note_off_c, 0, 75, 0
2, 411136, Note_off_c, 0, 78, 0
2, 411648, Note_on_c, 0, 75, 101
2, 412160, Note_off_c, 0, 75, 0
2, 412160, Note_on_c, 0, 76, 101
2, 412160, Note_on_c, 0, 55, 101
2, 412160, Note_on_c, 0, 48, 101
2, 412928, Note_off_c, 0, 76, 0
2, 412928, Note_on_c, 0, 75, 101
2, 413184, Note_off_c, 0, 75, 0
2, 413184, Note_on_c, 0, 76, 101
2, 413184, Note_off_c, 0, 55, 0
2, 413184, Note_on_c, 0, 58, 101
2, 413440, Note_off_c, 0, 76, 0
2, 413440, Note_on_c, 0, 79, 101
2, 413696, Note_off_c, 0, 79, 0
2, 413696, Note_on_c, 0, 78, 101
2, 413952, Note_off_c, 0, 78, 0
2, 413952, Note_on_c, 0, 76, 101
2, 414208, Note_off_c, 0, 76, 0
2, 414208, Note_off_c, 0, 58, 0
2, 414208, Note_off_c, 0, 48, 0
2, 414208, Note_on_c, 0, 75, 101
2, 414208, Note_on_c, 0, 47, 101
2, 414208, Note_on_c, 0, 59, 101
2, 415232, Note_off_c, 0, 75, 0
2, 415232, Note_off_c, 0, 47, 0
2, 415232, Note_off_c, 0, 59, 0
2, 415744, Note_on_c, 0, 56, 75
2, 415744, Note_on_c, 0, 64, 75
2, 416256, Note_off_c, 0, 56, 0
2, 416256, Note_off_c, 0, 64, 0
2, 416256, Note_on_c, 0, 56, 75
2, 416256, Note_on_c, 0, 64, 75
2, 416256, Note_on_c, 0, 40, 75
2, 416256, Note_on_c, 0, 52, 75
2, 416768, Note_off_c, 0, 56, 0
2, 416768, Note_off_c, 0, 64, 0
2, 416768, Note_on_c, 0, 64, 75
2, 416768, Note_on_c, 0, 68, 75
2, 417280, Note_off_c, 0, 64, 0
2, 417280, Note_off_c, 0, 68, 0
2, 417280, Note_on_c, 0, 64, 75
2, 417280, Note_on_c, 0, 68, 75
2, 417280, Note_off_c, 0, 40, 0
2, 417280, Note_off_c, 0, 52, 0
2, 417792, Note_off_c, 0, 64, 0
2, 417792, Note_off_c, 0, 68, 0
2, 417792, Note_on_c, 0, 68, 75
2, 417792, Note_on_c, 0, 71, 75
2, 418304, Note_off_c, 0, 68, 0
2, 418304, Note_off_c, 0, 71, 0
2, 418304, Note_on_c, 0, 71, 75
2, 418304, Note_on_c, 0, 68, 75
2, 419072, Note_off_c, 0, 71, 0
2, 419072, Note_on_c, 0, 76, 75
2, 419328, Note_off_c, 0, 76, 0
2, 419328, Note_on_c, 0, 71, 75
2, 419840, Note_off_c, 0, 71, 0
2, 419840, Note_off_c, 0, 68, 0
2, 420352, Note_on_c, 0, 73, 75
2, 420352, Note_on_c, 0, 57, 75
2, 420608, Note_off_c, 0, 57, 0
2, 420608, Note_on_c, 0, 64, 75
2, 420864, Note_off_c, 0, 64, 0
2, 420864, Note_on_c, 0, 61, 75
2, 421120, Note_off_c, 0, 73, 0
2, 421120, Note_on_c, 0, 75, 75
2, 421120, Note_off_c, 0, 61, 0
2, 421120, Note_on_c, 0, 64, 75
2, 421376, Note_off_c, 0, 75, 0
2, 421376, Note_on_c, 0, 76, 75
2, 421376, Note_off_c, 0, 64, 0
2, 421376, Note_on_c, 0, 56, 75
2, 421632, Note_off_c, 0, 56, 0
2, 421632, Note_on_c, 0, 64, 75
2, 421888, Note_off_c, 0, 76, 0
2, 421888, Note_off_c, 0, 64, 0
2, 421888, Note_on_c, 0, 59, 75
2, 422144, Note_off_c, 0, 59, 0
2, 422144, Note_on_c, 0, 64, 75
2, 422400, Note_off_c, 0, 64, 0
2, 422400, Note_on_c, 0, 73, 49
2, 422400, Note_on_c, 0, 57, 49
2, 422656, Note_off_c, 0, 57, 0
2, 422656, Note_on_c, 0, 64, 49
2, 422912, Note_off_c, 0, 64, 0
2, 422912, Note_on_c, 0, 61, 49
2, 423168, Note_off_c, 0, 73, 0
2, 423168, Note_on_c, 0, 75, 49
2, 423168, Note_off_c, 0, 61, 0
2, 423168, Note_on_c, 0, 64, 49
2, 423424, Note_off_c, 0, 75, 0
2, 423424, Note_on_c, 0, 76, 49
2, 423424, Note_off_c, 0, 64, 0
2, 423424, Note_on_c, 0, 56, 49
2, 423680, Note_off_c, 0, 56, 0
2, 423680, Note_on_c, 0, 64, 49
2, 423936, Note_off_c, 0, 76, 0
2, 423936, Note_off_c, 0, 64, 0
2, 423936, Note_on_c, 0, 59, 49
2, 424192, Note_off_c, 0, 59, 0
2, 424192, Note_on_c, 0, 64, 49
2, 424448, Note_off_c, 0, 64, 0
2, 424448, Note_on_c, 0, 73, 101
2, 424448, Note_on_c, 0, 57, 101
2, 424704, Note_off_c, 0, 73, 0
2, 424704, Note_on_c, 0, 76, 101
2, 424960, Note_off_c, 0, 76, 0
2, 424960, Note_on_c, 0, 75, 101
2, 425216, Note_off_c, 0, 75, 0
2, 425216, Note_on_c, 0, 73, 101
2, 425472, Note_off_c, 0, 73, 0
2, 425472, Note_on_c, 0, 71, 101
2, 425472, Note_off_c, 0, 57, 0
2, 425728, Note_off_c, 0, 71, 0
2, 425728, Note_on_c, 0, 69, 101
2, 425984, Note_off_c, 0, 69, 0
2, 425984, Note_on_c, 0, 68, 101
2, 426240, Note_off_c, 0, 68, 0
2, 426240, Note_on_c, 0, 66, 101
2, 426496, Note_off_c, 0, 66, 0
2, 426496, Note_on_c, 0, 64, 101
2, 426496, Note_on_c, 0, 47, 101
2, 426496, Note_on_c, 0, 52, 101
2, 426752, Note_off_c, 0, 64, 0
2, 426752, Note_on_c, 0, 66, 101
2, 426880, Note_off_c, 0, 66, 0
2, 426880, Note_on_c, 0, 68, 101
2, 427008, Note_off_c, 0, 68, 0
2, 427008, Note_on_c, 0, 66, 101
2, 427136, Note_off_c, 0, 66, 0
2, 427136, Note_on_c, 0, 68, 101
2, 427264, Note_off_c, 0, 68, 0
2, 427264, Note_on_c, 0, 66, 101
2, 427392, Note_off_c, 0, 66, 0
2, 427392, Note_on_c, 0, 68, 101
2, 427520, Note_off_c, 0, 68, 0
2, 427520, Note_on_c, 0, 66, 101
2, 427520, Note_off_c, 0, 47, 0
2, 427520, Note_off_c, 0, 52, 0
2, 427520, Note_on_c, 0, 47, 101
2, 427520, Note_on_c, 0, 51, 101
2, 427648, Note_off_c, 0, 66, 0
2, 427648, Note_on_c, 0, 68, 101
2, 427776, Note_off_c, 0, 68, 0
2, 427776, Note_on_c, 0, 66, 101
2, 427904, Note_off_c, 0, 66, 0
2, 427904, Note_on_c, 0, 68, 101
2, 428032, Note_off_c, 0, 68, 0
2, 428032, Note_on_c, 0, 66, 101
2, 428160, Note_off_c, 0, 66, 0
2, 428160, Note_on_c, 0, 68, 101
2, 428288, Note_off_c, 0, 68, 0
2, 428288, Note_on_c, 0, 66, 101
2, 428416, Note_off_c, 0, 66, 0
2, 428416, Note_on_c, 0, 68, 101
2, 428544, Note_off_c, 0, 68, 0
2, 428544, Note_off_c, 0, 47, 0
2, 428544, Note_off_c, 0, 51, 0
2, 428544, Note_on_c, 0, 64, 101
2, 428544, Note_on_c, 0, 52, 101
2, 429056, Note_off_c, 0, 52, 0
2, 429056, Note_on_c, 0, 47, 101
2, 429568, Note_off_c, 0, 64, 0
2, 429568, Note_off_c, 0, 47, 0
2, 429568, Note_on_c, 0, 40, 101
2, 430080, Note_on_c, 0, 56, 101
2, 430080, Note_on_c, 0, 64, 101
2, 430592, Note_off_c, 0, 56, 0
2, 430592, Note_off_c, 0, 64, 0
2, 430592, Note_off_c, 0, 40, 0
2, 430592, Note_on_c, 0, 56, 101
2, 430592, Note_on_c, 0, 64, 101
2, 431104, Note_on_c, 0, 40, 101
2, 431104, Note_on_c, 0, 52, 101
2, 431616, Note_off_c, 0, 56, 0
2, 431616, Note_off_c, 0, 64, 0
2, 431616, Note_off_c, 0, 40, 0
2, 431616, Note_off_c, 0, 52, 0
2, 431616, Note_on_c, 0, 40, 107
2, 431616, Note_on_c, 0, 52, 107
2, 432128, Note_on_c, 0, 64, 113
2, 432128, Note_on_c, 0, 68, 113
2, 432640, Note_off_c, 0, 64, 0
2, 432640, Note_off_c, 0, 68, 0
2, 432640, Note_off_c, 0, 40, 0
2, 432640, Note_off_c, 0, 52, 0
2, 432640, Note_on_c, 0, 64, 119
2, 432640, Note_on_c, 0, 68, 119
2, 433152, Note_on_c, 0, 40, 127
2, 433152, Note_on_c, 0, 52, 127
2, 433664, Note_off_c, 0, 64, 0
2, 433664, Note_off_c, 0, 68, 0
2, 433664, Note_off_c, 0, 40, 0
2, 433664, Note_off_c, 0, 52, 0
2, 433664, Note_on_c, 0, 40, 127
2, 433664, Note_on_c, 0, 52, 127
2, 434176, Note_on_c, 0, 68, 127
2, 434176, Note_on_c, 0, 71, 127
2, 434688, Note_off_c, 0, 68, 0
2, 434688, Note_off_c, 0, 71, 0
2, 434688, Note_off_c, 0, 40, 0
2, 434688, Note_off_c, 0, 52, 0
2, 434688, Note_on_c, 0, 68, 127
2, 434688, Note_on_c, 0, 71, 127
2, 435200, Note_on_c, 0, 40, 127
2, 435200, Note_on_c, 0, 52, 127
2, 435712, Note_off_c, 0, 68, 0
2, 435712, Note_off_c, 0, 71, 0
2, 435712, Note_off_c, 0, 40, 0
2, 435712, Note_off_c, 0, 52, 0
2, 435712, Note_on_c, 0, 40, 127
2, 435712, Note_on_c, 0, 52, 127
2, 436224, Note_on_c, 0, 68, 127
2, 436224, Note_on_c, 0, 76, 127
2, 436736, Note_off_c, 0, 68, 0
2, 436736, Note_off_c, 0, 76, 0
2, 436736, Note_off_c, 0, 40, 0
2, 436736, Note_off_c, 0, 52, 0
2, 436736, Note_on_c, 0, 68, 127
2, 436736, Note_on_c, 0, 76, 127
2, 437760, Note_off_c, 0, 68, 0
2, 437760, Note_off_c, 0, 76, 0
2, 462850, End_track
0, 0, End_of_file
