0, 0, Header, 1, 2, 120
1, 0, Start_track
1, 0, Time_signature, 4, 2, 24, 8
1, 0, Key_signature, -2, "major"
1, 0, Tempo, 600000
1, 0, End_track
2, 0, Start_track
2, 0, MIDI_port, 0
2, 0, Title_t, "K281-1"
2, 0, Program_c, 2, 0
2, 93, Control_c, 2, 0, 0
2, 93, Control_c, 2, 32, 0
2, 93, Program_c, 2, 0
2, 93, Control_c, 2, 7, 127
2, 95, Pitch_bend_c, 2, 8192
2, 95, Control_c, 2, 1, 0
2, 95, Control_c, 2, 64, 0
2, 324, Control_c, 2, 64, 127
2, 480, Control_c, 2, 64, 0
2, 1464, Control_c, 2, 64, 127
2, 1775, Control_c, 2, 64, 0
2, 2022, Note_on_c, 2, 58, 17
2, 2022, Note_on_c, 2, 62, 34
2, 2041, Control_c, 2, 64, 127
2, 2041, Note_on_c, 2, 70, 51
2, 2067, Note_on_c, 2, 72, 52
2, 2071, Note_on_c, 2, 70, 0
2, 2086, Note_on_c, 2, 70, 54
2, 2089, Note_on_c, 2, 72, 0
2, 2104, Note_on_c, 2, 72, 47
2, 2108, Note_on_c, 2, 70, 0
2, 2130, Note_on_c, 2, 70, 65
2, 2134, Note_on_c, 2, 72, 0
2, 2152, Note_on_c, 2, 58, 0
2, 2156, Note_on_c, 2, 72, 51
2, 2160, Note_on_c, 2, 70, 0
2, 2164, Note_on_c, 2, 62, 0
2, 2178, Note_on_c, 2, 74, 53
2, 2182, Note_on_c, 2, 72, 0
2, 2204, Note_on_c, 2, 70, 45
2, 2208, Note_on_c, 2, 74, 0
2, 2208, Note_on_c, 2, 63, 31
2, 2208, Note_on_c, 2, 60, 40
2, 2226, Control_c, 2, 64, 0
2, 2234, Note_on_c, 2, 69, 39
2, 2237, Note_on_c, 2, 70, 0
2, 2256, Note_on_c, 2, 72, 45
2, 2267, Note_on_c, 2, 69, 0
2, 2282, Control_c, 2, 64, 127
2, 2286, Note_on_c, 2, 70, 56
2, 2293, Note_on_c, 2, 72, 0
2, 2304, Note_on_c, 2, 63, 0
2, 2304, Note_on_c, 2, 60, 0
2, 2308, Note_on_c, 2, 70, 0
2, 2308, Note_on_c, 2, 69, 53
2, 2330, Note_on_c, 2, 75, 40
2, 2349, Note_on_c, 2, 69, 0
2, 2360, Note_on_c, 2, 75, 0
2, 2360, Note_on_c, 2, 72, 45
2, 2363, Note_on_c, 2, 65, 31
2, 2364, Note_on_c, 2, 62, 46
2, 2374, Control_c, 2, 64, 0
2, 2386, Note_on_c, 2, 70, 40
2, 2393, Note_on_c, 2, 72, 0
2, 2412, Note_on_c, 2, 74, 51
2, 2426, Note_on_c, 2, 70, 0
2, 2438, Note_on_c, 2, 72, 52
2, 2441, Note_on_c, 2, 74, 0
2, 2449, Control_c, 2, 64, 127
2, 2464, Note_on_c, 2, 70, 55
2, 2467, Note_on_c, 2, 72, 0
2, 2486, Note_on_c, 2, 77, 52
2, 2515, Note_on_c, 2, 77, 0
2, 2516, Note_on_c, 2, 74, 49
2, 2563, Note_on_c, 2, 70, 0
2, 2582, Note_on_c, 2, 74, 0
2, 2585, Note_on_c, 2, 65, 0
2, 2593, Note_on_c, 2, 62, 0
2, 2667, Note_on_c, 2, 70, 22
2, 2668, Control_c, 2, 64, 0
2, 2674, Note_on_c, 2, 75, 46
2, 2674, Note_on_c, 2, 51, 46
2, 2676, Note_on_c, 2, 63, 36
2, 2678, Note_on_c, 2, 79, 57
2, 2690, Note_on_c, 2, 70, 0
2, 2694, Note_on_c, 2, 63, 0
2, 2697, Note_on_c, 2, 75, 0
2, 2697, Note_on_c, 2, 79, 0
2, 2701, Note_on_c, 2, 51, 0
2, 2753, Note_on_c, 2, 70, 35
2, 2756, Note_on_c, 2, 74, 45
2, 2756, Note_on_c, 2, 58, 41
2, 2756, Note_on_c, 2, 46, 44
2, 2761, Control_c, 2, 64, 127
2, 2764, Note_on_c, 2, 77, 59
2, 2772, Note_on_c, 2, 74, 0
2, 2776, Note_on_c, 2, 70, 0
2, 2794, Note_on_c, 2, 77, 0
2, 2842, Note_on_c, 2, 77, 79
2, 2861, Note_on_c, 2, 82, 63
2, 2872, Note_on_c, 2, 77, 0
2, 2880, Note_on_c, 2, 82, 0
2, 2880, Note_on_c, 2, 81, 63
2, 2902, Note_on_c, 2, 82, 60
2, 2913, Note_on_c, 2, 81, 0
2, 2924, Note_on_c, 2, 86, 57
2, 2928, Note_on_c, 2, 82, 0
2, 2932, Note_on_c, 2, 58, 0
2, 2943, Note_on_c, 2, 46, 0
2, 2947, Note_on_c, 2, 82, 65
2, 2955, Note_on_c, 2, 86, 0
2, 2970, Note_on_c, 2, 82, 0
2, 2970, Note_on_c, 2, 81, 59
2, 2988, Note_on_c, 2, 82, 55
2, 2992, Note_on_c, 2, 81, 0
2, 2999, Note_on_c, 2, 82, 0
2, 3010, Note_on_c, 2, 41, 50
2, 3011, Note_on_c, 2, 53, 43
2, 3014, Note_on_c, 2, 74, 53
2, 3014, Note_on_c, 2, 77, 68
2, 3015, Control_c, 2, 64, 0
2, 3025, Note_on_c, 2, 74, 0
2, 3025, Note_on_c, 2, 41, 0
2, 3026, Note_on_c, 2, 77, 0
2, 3029, Note_on_c, 2, 53, 0
2, 3059, Note_on_c, 2, 75, 59
2, 3059, Note_on_c, 2, 72, 47
2, 3066, Note_on_c, 2, 72, 0
2, 3066, Note_on_c, 2, 75, 0
2, 3107, Note_on_c, 2, 46, 51
2, 3108, Note_on_c, 2, 58, 45
2, 3111, Note_on_c, 2, 70, 63
2, 3111, Note_on_c, 2, 74, 62
2, 3115, Control_c, 2, 64, 127
2, 3223, Note_on_c, 2, 70, 0
2, 3223, Note_on_c, 2, 58, 0
2, 3227, Note_on_c, 2, 46, 0
2, 3234, Note_on_c, 2, 74, 0
2, 3335, Control_c, 2, 64, 0
2, 3432, Note_on_c, 2, 50, 29
2, 3432, Control_c, 2, 64, 127
2, 3436, Note_on_c, 2, 46, 35
2, 3438, Note_on_c, 2, 58, 45
2, 3461, Note_on_c, 2, 60, 49
2, 3465, Note_on_c, 2, 58, 0
2, 3479, Note_on_c, 2, 58, 53
2, 3483, Note_on_c, 2, 60, 0
2, 3498, Note_on_c, 2, 60, 53
2, 3502, Note_on_c, 2, 58, 0
2, 3520, Note_on_c, 2, 60, 0
2, 3520, Note_on_c, 2, 58, 66
2, 3531, Note_on_c, 2, 46, 0
2, 3538, Note_on_c, 2, 50, 0
2, 3542, Note_on_c, 2, 60, 52
2, 3550, Note_on_c, 2, 58, 0
2, 3568, Note_on_c, 2, 62, 52
2, 3572, Note_on_c, 2, 60, 0
2, 3594, Note_on_c, 2, 58, 44
2, 3594, Note_on_c, 2, 51, 35
2, 3598, Note_on_c, 2, 62, 0
2, 3598, Note_on_c, 2, 48, 47
2, 3613, Control_c, 2, 64, 0
2, 3620, Note_on_c, 2, 58, 0
2, 3620, Note_on_c, 2, 57, 45
2, 3646, Note_on_c, 2, 60, 45
2, 3658, Note_on_c, 2, 57, 0
2, 3672, Note_on_c, 2, 58, 57
2, 3676, Control_c, 2, 64, 127
2, 3679, Note_on_c, 2, 60, 0
2, 3698, Note_on_c, 2, 57, 45
2, 3702, Note_on_c, 2, 58, 0
2, 3702, Note_on_c, 2, 51, 0
2, 3709, Note_on_c, 2, 48, 0
2, 3724, Note_on_c, 2, 63, 39
2, 3754, Note_on_c, 2, 53, 38
2, 3754, Note_on_c, 2, 60, 50
2, 3757, Note_on_c, 2, 50, 47
2, 3761, Note_on_c, 2, 63, 0
2, 3765, Note_on_c, 2, 57, 0
2, 3772, Control_c, 2, 64, 0
2, 3783, Note_on_c, 2, 58, 52
2, 3787, Note_on_c, 2, 60, 0
2, 3809, Note_on_c, 2, 62, 46
2, 3817, Note_on_c, 2, 58, 0
2, 3839, Note_on_c, 2, 60, 49
2, 3846, Note_on_c, 2, 62, 0
2, 3865, Note_on_c, 2, 58, 48
2, 3872, Note_on_c, 2, 60, 0
2, 3876, Control_c, 2, 64, 127
2, 3888, Note_on_c, 2, 65, 48
2, 3920, Note_on_c, 2, 65, 0
2, 3924, Note_on_c, 2, 62, 56
2, 3991, Note_on_c, 2, 58, 0
2, 3998, Note_on_c, 2, 50, 0
2, 4002, Note_on_c, 2, 53, 0
2, 4009, Note_on_c, 2, 62, 0
2, 4072, Control_c, 2, 64, 0
2, 4076, Note_on_c, 2, 51, 39
2, 4084, Note_on_c, 2, 55, 47
2, 4095, Note_on_c, 2, 60, 33
2, 4095, Note_on_c, 2, 67, 39
2, 4124, Note_on_c, 2, 72, 45
2, 4136, Control_c, 2, 64, 127
2, 4139, Note_on_c, 2, 67, 0
2, 4146, Note_on_c, 2, 75, 46
2, 4150, Note_on_c, 2, 72, 0
2, 4172, Note_on_c, 2, 75, 0
2, 4172, Note_on_c, 2, 72, 51
2, 4194, Note_on_c, 2, 55, 0
2, 4198, Note_on_c, 2, 51, 0
2, 4199, Note_on_c, 2, 75, 39
2, 4205, Note_on_c, 2, 72, 0
2, 4213, Note_on_c, 2, 60, 0
2, 4224, Note_on_c, 2, 75, 0
2, 4224, Note_on_c, 2, 79, 49
2, 4235, Note_on_c, 2, 79, 0
2, 4250, Control_c, 2, 64, 0
2, 4254, Note_on_c, 2, 79, 46
2, 4254, Note_on_c, 2, 53, 45
2, 4254, Note_on_c, 2, 62, 45
2, 4276, Control_c, 2, 64, 127
2, 4280, Note_on_c, 2, 77, 45
2, 4283, Note_on_c, 2, 79, 0
2, 4287, Note_on_c, 2, 53, 0
2, 4290, Note_on_c, 2, 62, 0
2, 4302, Note_on_c, 2, 75, 45
2, 4306, Note_on_c, 2, 77, 0
2, 4324, Note_on_c, 2, 74, 40
2, 4328, Note_on_c, 2, 75, 0
2, 4335, Note_on_c, 2, 74, 0
2, 4343, Control_c, 2, 64, 0
2, 4343, Note_on_c, 2, 63, 40
2, 4344, Note_on_c, 2, 74, 52
2, 4347, Note_on_c, 2, 53, 38
2, 4361, Note_on_c, 2, 74, 0
2, 4362, Control_c, 2, 64, 127
2, 4365, Note_on_c, 2, 72, 53
2, 4387, Note_on_c, 2, 70, 53
2, 4391, Note_on_c, 2, 72, 0
2, 4391, Note_on_c, 2, 63, 0
2, 4394, Note_on_c, 2, 53, 0
2, 4406, Note_on_c, 2, 69, 46
2, 4410, Note_on_c, 2, 70, 0
2, 4435, Control_c, 2, 64, 0
2, 4435, Note_on_c, 2, 62, 37
2, 4436, Note_on_c, 2, 70, 56
2, 4439, Note_on_c, 2, 58, 44
2, 4443, Note_on_c, 2, 69, 0
2, 4458, Note_on_c, 2, 62, 0
2, 4458, Control_c, 2, 64, 127
2, 4465, Note_on_c, 2, 58, 0
2, 4480, Note_on_c, 2, 58, 31
2, 4480, Note_on_c, 2, 62, 31
2, 4495, Note_on_c, 2, 62, 0
2, 4495, Note_on_c, 2, 58, 0
2, 4520, Note_on_c, 2, 62, 31
2, 4524, Note_on_c, 2, 58, 37
2, 4532, Note_on_c, 2, 62, 0
2, 4535, Note_on_c, 2, 58, 0
2, 4565, Note_on_c, 2, 62, 33
2, 4565, Note_on_c, 2, 58, 37
2, 4580, Note_on_c, 2, 58, 0
2, 4580, Note_on_c, 2, 62, 0
2, 4609, Note_on_c, 2, 62, 35
2, 4610, Note_on_c, 2, 58, 39
2, 4620, Note_on_c, 2, 58, 0
2, 4620, Note_on_c, 2, 62, 0
2, 4621, Note_on_c, 2, 70, 0
2, 4654, Note_on_c, 2, 62, 35
2, 4654, Note_on_c, 2, 70, 44
2, 4654, Note_on_c, 2, 58, 36
2, 4665, Note_on_c, 2, 58, 0
2, 4665, Note_on_c, 2, 62, 0
2, 4672, Note_on_c, 2, 70, 0
2, 4695, Note_on_c, 2, 62, 39
2, 4695, Note_on_c, 2, 58, 37
2, 4699, Note_on_c, 2, 69, 53
2, 4706, Note_on_c, 2, 58, 0
2, 4706, Note_on_c, 2, 62, 0
2, 4710, Note_on_c, 2, 69, 0
2, 4739, Note_on_c, 2, 62, 45
2, 4739, Note_on_c, 2, 58, 40
2, 4739, Note_on_c, 2, 68, 44
2, 4747, Note_on_c, 2, 58, 0
2, 4747, Note_on_c, 2, 62, 0
2, 4750, Note_on_c, 2, 68, 0
2, 4780, Control_c, 2, 64, 0
2, 4784, Note_on_c, 2, 58, 46
2, 4784, Note_on_c, 2, 63, 62
2, 4788, Note_on_c, 2, 67, 65
2, 4798, Control_c, 2, 64, 127
2, 4810, Note_on_c, 2, 63, 0
2, 4810, Note_on_c, 2, 58, 0
2, 4828, Note_on_c, 2, 63, 45
2, 4832, Note_on_c, 2, 58, 39
2, 4832, Note_on_c, 2, 69, 48
2, 4840, Note_on_c, 2, 67, 0
2, 4847, Note_on_c, 2, 63, 0
2, 4847, Note_on_c, 2, 58, 0
2, 4850, Note_on_c, 2, 70, 59
2, 4854, Note_on_c, 2, 69, 0
2, 4869, Note_on_c, 2, 70, 0
2, 4872, Note_on_c, 2, 63, 32
2, 4872, Note_on_c, 2, 58, 38
2, 4872, Note_on_c, 2, 72, 57
2, 4887, Note_on_c, 2, 58, 0
2, 4887, Note_on_c, 2, 63, 0
2, 4894, Note_on_c, 2, 74, 48
2, 4898, Note_on_c, 2, 72, 0
2, 4909, Control_c, 2, 64, 0
2, 4910, Note_on_c, 2, 63, 37
2, 4910, Note_on_c, 2, 75, 46
2, 4913, Note_on_c, 2, 58, 45
2, 4917, Note_on_c, 2, 74, 0
2, 4924, Note_on_c, 2, 63, 0
2, 4924, Control_c, 2, 64, 127
2, 4928, Note_on_c, 2, 75, 0
2, 4928, Note_on_c, 2, 58, 0
2, 4932, Note_on_c, 2, 77, 56
2, 4950, Note_on_c, 2, 63, 35
2, 4954, Note_on_c, 2, 58, 37
2, 4955, Note_on_c, 2, 79, 60
2, 4961, Note_on_c, 2, 77, 0
2, 4965, Note_on_c, 2, 63, 0
2, 4965, Note_on_c, 2, 58, 0
2, 4976, Note_on_c, 2, 81, 55
2, 4983, Note_on_c, 2, 79, 0
2, 4995, Note_on_c, 2, 63, 36
2, 4995, Note_on_c, 2, 82, 60
2, 4998, Note_on_c, 2, 81, 0
2, 4998, Note_on_c, 2, 58, 43
2, 5010, Note_on_c, 2, 63, 0
2, 5013, Note_on_c, 2, 58, 0
2, 5017, Note_on_c, 2, 81, 68
2, 5020, Note_on_c, 2, 82, 0
2, 5035, Note_on_c, 2, 63, 34
2, 5039, Note_on_c, 2, 81, 0
2, 5039, Note_on_c, 2, 58, 40
2, 5039, Note_on_c, 2, 82, 54
2, 5050, Note_on_c, 2, 63, 0
2, 5054, Note_on_c, 2, 58, 0
2, 5058, Note_on_c, 2, 81, 49
2, 5062, Note_on_c, 2, 82, 0
2, 5076, Note_on_c, 2, 58, 43
2, 5077, Note_on_c, 2, 63, 40
2, 5080, Note_on_c, 2, 82, 53
2, 5084, Note_on_c, 2, 81, 0
2, 5095, Note_on_c, 2, 58, 0
2, 5095, Note_on_c, 2, 63, 0
2, 5099, Note_on_c, 2, 79, 54
2, 5106, Note_on_c, 2, 82, 0
2, 5121, Note_on_c, 2, 62, 47
2, 5122, Note_on_c, 2, 58, 48
2, 5122, Note_on_c, 2, 77, 59
2, 5124, Note_on_c, 2, 79, 0
2, 5124, Control_c, 2, 64, 0
2, 5143, Note_on_c, 2, 58, 0
2, 5143, Control_c, 2, 64, 127
2, 5147, Note_on_c, 2, 62, 0
2, 5162, Note_on_c, 2, 62, 40
2, 5162, Note_on_c, 2, 58, 45
2, 5180, Note_on_c, 2, 58, 0
2, 5180, Note_on_c, 2, 62, 0
2, 5206, Note_on_c, 2, 62, 39
2, 5206, Note_on_c, 2, 58, 38
2, 5221, Note_on_c, 2, 62, 0
2, 5224, Note_on_c, 2, 58, 0
2, 5247, Note_on_c, 2, 62, 40
2, 5247, Note_on_c, 2, 58, 42
2, 5258, Note_on_c, 2, 62, 0
2, 5262, Note_on_c, 2, 58, 0
2, 5291, Note_on_c, 2, 62, 48
2, 5292, Note_on_c, 2, 58, 62
2, 5295, Note_on_c, 2, 77, 0
2, 5302, Note_on_c, 2, 62, 0
2, 5303, Note_on_c, 2, 58, 0
2, 5336, Note_on_c, 2, 62, 44
2, 5336, Note_on_c, 2, 58, 54
2, 5340, Note_on_c, 2, 70, 56
2, 5347, Note_on_c, 2, 58, 0
2, 5347, Note_on_c, 2, 62, 0
2, 5354, Note_on_c, 2, 70, 0
2, 5380, Note_on_c, 2, 58, 52
2, 5380, Note_on_c, 2, 62, 41
2, 5380, Note_on_c, 2, 69, 54
2, 5392, Note_on_c, 2, 69, 0
2, 5392, Note_on_c, 2, 62, 0
2, 5392, Note_on_c, 2, 58, 0
2, 5425, Note_on_c, 2, 68, 60
2, 5425, Note_on_c, 2, 58, 53
2, 5426, Note_on_c, 2, 62, 47
2, 5435, Note_on_c, 2, 68, 0
2, 5436, Note_on_c, 2, 62, 0
2, 5436, Note_on_c, 2, 58, 0
2, 5469, Note_on_c, 2, 63, 59
2, 5470, Note_on_c, 2, 58, 55
2, 5473, Note_on_c, 2, 67, 59
2, 5476, Control_c, 2, 64, 0
2, 5491, Control_c, 2, 64, 127
2, 5499, Note_on_c, 2, 58, 0
2, 5499, Note_on_c, 2, 63, 0
2, 5513, Note_on_c, 2, 58, 41
2, 5513, Note_on_c, 2, 63, 43
2, 5513, Note_on_c, 2, 69, 46
2, 5524, Note_on_c, 2, 67, 0
2, 5528, Note_on_c, 2, 58, 0
2, 5528, Note_on_c, 2, 63, 0
2, 5536, Note_on_c, 2, 70, 56
2, 5540, Note_on_c, 2, 69, 0
2, 5554, Note_on_c, 2, 70, 0
2, 5554, Note_on_c, 2, 58, 42
2, 5554, Note_on_c, 2, 63, 46
2, 5558, Note_on_c, 2, 72, 55
2, 5565, Note_on_c, 2, 58, 0
2, 5569, Note_on_c, 2, 63, 0
2, 5576, Note_on_c, 2, 74, 37
2, 5580, Note_on_c, 2, 72, 0
2, 5595, Note_on_c, 2, 63, 38
2, 5595, Note_on_c, 2, 75, 54
2, 5598, Note_on_c, 2, 74, 0
2, 5598, Note_on_c, 2, 58, 36
2, 5610, Note_on_c, 2, 58, 0
2, 5613, Note_on_c, 2, 63, 0
2, 5614, Note_on_c, 2, 75, 0
2, 5617, Note_on_c, 2, 77, 37
2, 5639, Note_on_c, 2, 63, 46
2, 5639, Note_on_c, 2, 79, 46
2, 5639, Note_on_c, 2, 58, 35
2, 5647, Note_on_c, 2, 77, 0
2, 5658, Note_on_c, 2, 58, 0
2, 5662, Note_on_c, 2, 63, 0
2, 5662, Note_on_c, 2, 81, 48
2, 5666, Control_c, 2, 64, 0
2, 5669, Note_on_c, 2, 79, 0
2, 5680, Note_on_c, 2, 63, 39
2, 5680, Note_on_c, 2, 58, 38
2, 5682, Note_on_c, 2, 82, 53
2, 5684, Note_on_c, 2, 81, 0
2, 5684, Control_c, 2, 64, 127
2, 5695, Note_on_c, 2, 63, 0
2, 5698, Note_on_c, 2, 58, 0
2, 5703, Note_on_c, 2, 81, 66
2, 5706, Note_on_c, 2, 82, 0
2, 5721, Note_on_c, 2, 63, 39
2, 5725, Note_on_c, 2, 58, 40
2, 5725, Note_on_c, 2, 82, 55
2, 5728, Note_on_c, 2, 81, 0
2, 5736, Note_on_c, 2, 63, 0
2, 5736, Note_on_c, 2, 58, 0
2, 5747, Note_on_c, 2, 81, 59
2, 5751, Note_on_c, 2, 82, 0
2, 5765, Note_on_c, 2, 63, 40
2, 5765, Note_on_c, 2, 58, 40
2, 5765, Note_on_c, 2, 82, 54
2, 5769, Note_on_c, 2, 81, 0
2, 5777, Note_on_c, 2, 63, 0
2, 5777, Note_on_c, 2, 58, 0
2, 5792, Note_on_c, 2, 79, 45
2, 5799, Note_on_c, 2, 82, 0
2, 5806, Note_on_c, 2, 63, 48
2, 5806, Note_on_c, 2, 58, 42
2, 5810, Note_on_c, 2, 79, 0
2, 5810, Note_on_c, 2, 77, 68
2, 5817, Note_on_c, 2, 58, 0
2, 5821, Note_on_c, 2, 63, 0
2, 5839, Note_on_c, 2, 77, 0
2, 5851, Note_on_c, 2, 58, 51
2, 5899, Note_on_c, 2, 62, 45
2, 5903, Control_c, 2, 64, 0
2, 5921, Note_on_c, 2, 82, 62
2, 5940, Note_on_c, 2, 65, 51
2, 5943, Note_on_c, 2, 82, 0
2, 5943, Note_on_c, 2, 58, 0
2, 5944, Note_on_c, 2, 84, 56
2, 5962, Note_on_c, 2, 82, 72
2, 5969, Note_on_c, 2, 84, 0
2, 5984, Note_on_c, 2, 82, 0
2, 5984, Note_on_c, 2, 62, 0
2, 5984, Note_on_c, 2, 58, 63
2, 5985, Note_on_c, 2, 86, 59
2, 5988, Note_on_c, 2, 65, 0
2, 6010, Note_on_c, 2, 84, 47
2, 6018, Note_on_c, 2, 86, 0
2, 6029, Note_on_c, 2, 82, 66
2, 6036, Note_on_c, 2, 84, 0
2, 6040, Control_c, 2, 64, 127
2, 6051, Note_on_c, 2, 81, 63
2, 6062, Note_on_c, 2, 82, 0
2, 6073, Note_on_c, 2, 79, 68
2, 6076, Note_on_c, 2, 81, 0
2, 6084, Note_on_c, 2, 58, 0
2, 6095, Note_on_c, 2, 77, 54
2, 6098, Note_on_c, 2, 79, 0
2, 6118, Note_on_c, 2, 75, 68
2, 6121, Note_on_c, 2, 77, 0
2, 6136, Note_on_c, 2, 75, 0
2, 6140, Note_on_c, 2, 74, 59
2, 6158, Control_c, 2, 64, 0
2, 6162, Note_on_c, 2, 75, 88
2, 6169, Note_on_c, 2, 74, 0
2, 6177, Control_c, 2, 64, 127
2, 6203, Note_on_c, 2, 53, 54
2, 6218, Note_on_c, 2, 75, 0
2, 6251, Note_on_c, 2, 57, 54
2, 6273, Note_on_c, 2, 81, 59
2, 6295, Note_on_c, 2, 53, 0
2, 6296, Note_on_c, 2, 81, 0
2, 6296, Note_on_c, 2, 82, 62
2, 6296, Note_on_c, 2, 60, 54
2, 6314, Note_on_c, 2, 81, 60
2, 6317, Note_on_c, 2, 82, 0
2, 6332, Note_on_c, 2, 60, 0
2, 6332, Note_on_c, 2, 53, 63
2, 6336, Note_on_c, 2, 57, 0
2, 6336, Note_on_c, 2, 84, 55
2, 6340, Note_on_c, 2, 81, 0
2, 6358, Note_on_c, 2, 82, 68
2, 6358, Control_c, 2, 64, 0
2, 6366, Note_on_c, 2, 84, 0
2, 6377, Note_on_c, 2, 81, 66
2, 6384, Note_on_c, 2, 82, 0
2, 6399, Note_on_c, 2, 81, 0
2, 6399, Note_on_c, 2, 79, 70
2, 6407, Control_c, 2, 64, 127
2, 6421, Note_on_c, 2, 77, 62
2, 6425, Note_on_c, 2, 79, 0
2, 6440, Note_on_c, 2, 75, 66
2, 6447, Note_on_c, 2, 77, 0
2, 6462, Note_on_c, 2, 75, 0
2, 6462, Note_on_c, 2, 74, 65
2, 6484, Note_on_c, 2, 72, 56
2, 6496, Note_on_c, 2, 74, 0
2, 6503, Note_on_c, 2, 53, 0
2, 6507, Note_on_c, 2, 74, 56
2, 6510, Note_on_c, 2, 72, 0
2, 6540, Control_c, 2, 64, 0
2, 6551, Note_on_c, 2, 34, 62
2, 6551, Note_on_c, 2, 46, 68
2, 6558, Control_c, 2, 64, 127
2, 6562, Note_on_c, 2, 46, 0
2, 6562, Note_on_c, 2, 34, 0
2, 6592, Note_on_c, 2, 38, 62
2, 6595, Note_on_c, 2, 50, 55
2, 6606, Note_on_c, 2, 50, 0
2, 6606, Note_on_c, 2, 38, 0
2, 6618, Note_on_c, 2, 77, 49
2, 6636, Note_on_c, 2, 77, 0
2, 6636, Note_on_c, 2, 41, 56
2, 6637, Note_on_c, 2, 53, 54
2, 6637, Note_on_c, 2, 79, 48
2, 6644, Note_on_c, 2, 74, 0
2, 6647, Note_on_c, 2, 53, 0
2, 6651, Note_on_c, 2, 41, 0
2, 6658, Note_on_c, 2, 77, 57
2, 6662, Note_on_c, 2, 79, 0
2, 6680, Note_on_c, 2, 38, 65
2, 6680, Note_on_c, 2, 50, 57
2, 6682, Note_on_c, 2, 82, 65
2, 6684, Note_on_c, 2, 77, 0
2, 6699, Control_c, 2, 64, 0
2, 6702, Note_on_c, 2, 81, 66
2, 6710, Note_on_c, 2, 82, 0
2, 6721, Control_c, 2, 64, 127
2, 6721, Note_on_c, 2, 79, 66
2, 6728, Note_on_c, 2, 81, 0
2, 6743, Note_on_c, 2, 79, 0
2, 6747, Note_on_c, 2, 77, 66
2, 6758, Note_on_c, 2, 38, 0
2, 6769, Note_on_c, 2, 77, 0
2, 6769, Note_on_c, 2, 50, 0
2, 6770, Note_on_c, 2, 75, 65
2, 6788, Note_on_c, 2, 75, 0
2, 6788, Note_on_c, 2, 74, 65
2, 6807, Note_on_c, 2, 72, 68
2, 6810, Note_on_c, 2, 74, 0
2, 6817, Note_on_c, 2, 72, 0
2, 6829, Note_on_c, 2, 50, 66
2, 6830, Note_on_c, 2, 53, 53
2, 6830, Note_on_c, 2, 71, 65
2, 6836, Note_on_c, 2, 53, 0
2, 6836, Note_on_c, 2, 50, 0
2, 6854, Note_on_c, 2, 71, 0
2, 6854, Note_on_c, 2, 51, 72
2, 6854, Note_on_c, 2, 55, 63
2, 6854, Note_on_c, 2, 74, 57
2, 6873, Note_on_c, 2, 74, 0
2, 6873, Note_on_c, 2, 72, 66
2, 6884, Control_c, 2, 64, 0
2, 6899, Note_on_c, 2, 75, 59
2, 6914, Note_on_c, 2, 72, 0
2, 6922, Note_on_c, 2, 74, 65
2, 6925, Note_on_c, 2, 75, 0
2, 6940, Note_on_c, 2, 77, 57
2, 6944, Note_on_c, 2, 74, 0
2, 6962, Note_on_c, 2, 75, 65
2, 6969, Note_on_c, 2, 77, 0
2, 6974, Note_on_c, 2, 51, 0
2, 6974, Note_on_c, 2, 55, 0
2, 6981, Note_on_c, 2, 79, 56
2, 6984, Note_on_c, 2, 75, 0
2, 7003, Note_on_c, 2, 78, 65
2, 7007, Note_on_c, 2, 79, 0
2, 7025, Note_on_c, 2, 79, 62
2, 7029, Note_on_c, 2, 78, 0
2, 7048, Note_on_c, 2, 77, 57
2, 7055, Note_on_c, 2, 79, 0
2, 7066, Control_c, 2, 64, 127
2, 7066, Note_on_c, 2, 75, 56
2, 7073, Note_on_c, 2, 77, 0
2, 7092, Note_on_c, 2, 74, 54
2, 7099, Note_on_c, 2, 75, 0
2, 7110, Note_on_c, 2, 74, 0
2, 7110, Note_on_c, 2, 72, 60
2, 7129, Note_on_c, 2, 72, 0
2, 7129, Note_on_c, 2, 70, 60
2, 7147, Note_on_c, 2, 70, 0
2, 7152, Note_on_c, 2, 52, 56
2, 7152, Note_on_c, 2, 55, 48
2, 7152, Note_on_c, 2, 69, 55
2, 7170, Note_on_c, 2, 52, 0
2, 7174, Note_on_c, 2, 55, 0
2, 7174, Note_on_c, 2, 70, 59
2, 7177, Note_on_c, 2, 69, 0
2, 7195, Note_on_c, 2, 70, 0
2, 7195, Note_on_c, 2, 53, 68
2, 7196, Note_on_c, 2, 57, 57
2, 7196, Note_on_c, 2, 69, 55
2, 7207, Control_c, 2, 64, 0
2, 7218, Note_on_c, 2, 70, 65
2, 7236, Note_on_c, 2, 69, 0
2, 7236, Note_on_c, 2, 72, 55
2, 7240, Control_c, 2, 64, 127
2, 7244, Note_on_c, 2, 70, 0
2, 7259, Note_on_c, 2, 74, 54
2, 7266, Note_on_c, 2, 72, 0
2, 7281, Note_on_c, 2, 76, 66
2, 7284, Note_on_c, 2, 74, 0
2, 7292, Note_on_c, 2, 76, 0
2, 7296, Note_on_c, 2, 57, 0
2, 7303, Note_on_c, 2, 77, 54
2, 7306, Note_on_c, 2, 53, 0
2, 7325, Note_on_c, 2, 77, 0
2, 7325, Note_on_c, 2, 76, 57
2, 7347, Note_on_c, 2, 77, 50
2, 7351, Note_on_c, 2, 76, 0
2, 7366, Note_on_c, 2, 45, 52
2, 7370, Note_on_c, 2, 65, 53
2, 7374, Note_on_c, 2, 77, 0
2, 7388, Note_on_c, 2, 46, 53
2, 7396, Note_on_c, 2, 45, 0
2, 7407, Note_on_c, 2, 48, 66
2, 7414, Note_on_c, 2, 46, 0
2, 7429, Note_on_c, 2, 50, 60
2, 7433, Control_c, 2, 64, 0
2, 7440, Note_on_c, 2, 48, 0
2, 7451, Note_on_c, 2, 50, 0
2, 7451, Note_on_c, 2, 52, 62
2, 7470, Note_on_c, 2, 53, 65
2, 7481, Note_on_c, 2, 52, 0
2, 7492, Note_on_c, 2, 52, 57
2, 7500, Note_on_c, 2, 53, 0
2, 7514, Note_on_c, 2, 53, 65
2, 7518, Control_c, 2, 64, 127
2, 7521, Note_on_c, 2, 53, 0
2, 7521, Note_on_c, 2, 52, 0
2, 7540, Note_on_c, 2, 41, 72
2, 7544, Control_c, 2, 64, 0
2, 7581, Control_c, 2, 64, 127
2, 7606, Note_on_c, 2, 65, 0
2, 7614, Note_on_c, 2, 41, 0
2, 7685, Control_c, 2, 64, 0
2, 7696, Note_on_c, 2, 84, 38
2, 7718, Note_on_c, 2, 84, 0
2, 7740, Note_on_c, 2, 84, 45
2, 7755, Note_on_c, 2, 84, 0
2, 7785, Note_on_c, 2, 84, 49
2, 7796, Note_on_c, 2, 84, 0
2, 7825, Note_on_c, 2, 84, 41
2, 7840, Note_on_c, 2, 84, 0
2, 7874, Note_on_c, 2, 84, 48
2, 7888, Note_on_c, 2, 84, 0
2, 7922, Note_on_c, 2, 53, 35
2, 7922, Note_on_c, 2, 84, 45
2, 7959, Control_c, 2, 64, 127
2, 7962, Note_on_c, 2, 60, 38
2, 8004, Note_on_c, 2, 57, 42
2, 8006, Note_on_c, 2, 60, 0
2, 8044, Note_on_c, 2, 53, 0
2, 8048, Note_on_c, 2, 60, 44
2, 8048, Note_on_c, 2, 82, 47
2, 8055, Note_on_c, 2, 84, 0
2, 8055, Note_on_c, 2, 57, 0
2, 8066, Note_on_c, 2, 81, 46
2, 8074, Note_on_c, 2, 82, 0
2, 8085, Note_on_c, 2, 55, 48
2, 8088, Note_on_c, 2, 60, 0
2, 8088, Note_on_c, 2, 79, 52
2, 8092, Note_on_c, 2, 81, 0
2, 8100, Control_c, 2, 64, 0
2, 8129, Note_on_c, 2, 77, 50
2, 8129, Note_on_c, 2, 60, 42
2, 8133, Control_c, 2, 64, 127
2, 8137, Note_on_c, 2, 79, 0
2, 8170, Note_on_c, 2, 77, 0
2, 8170, Note_on_c, 2, 76, 51
2, 8170, Note_on_c, 2, 58, 41
2, 8174, Note_on_c, 2, 60, 0
2, 8177, Note_on_c, 2, 55, 0
2, 8207, Note_on_c, 2, 60, 45
2, 8210, Note_on_c, 2, 58, 0
2, 8211, Note_on_c, 2, 79, 49
2, 8214, Note_on_c, 2, 76, 0
2, 8252, Note_on_c, 2, 79, 0
2, 8252, Control_c, 2, 64, 0
2, 8252, Note_on_c, 2, 57, 39
2, 8252, Note_on_c, 2, 77, 47
2, 8288, Note_on_c, 2, 60, 0
2, 8296, Note_on_c, 2, 53, 40
2, 8340, Note_on_c, 2, 57, 0
2, 8341, Note_on_c, 2, 53, 0
2, 8341, Note_on_c, 2, 77, 0
2, 8341, Note_on_c, 2, 72, 45
2, 8342, Note_on_c, 2, 60, 49
2, 8381, Note_on_c, 2, 84, 46
2, 8392, Note_on_c, 2, 72, 0
2, 8399, Note_on_c, 2, 60, 0
2, 8400, Note_on_c, 2, 84, 0
2, 8426, Note_on_c, 2, 84, 47
2, 8437, Note_on_c, 2, 84, 0
2, 8466, Note_on_c, 2, 84, 40
2, 8478, Note_on_c, 2, 84, 0
2, 8511, Note_on_c, 2, 84, 39
2, 8522, Note_on_c, 2, 84, 0
2, 8555, Note_on_c, 2, 84, 45
2, 8570, Note_on_c, 2, 84, 0
2, 8611, Note_on_c, 2, 84, 46
2, 8615, Note_on_c, 2, 53, 44
2, 8644, Control_c, 2, 64, 127
2, 8659, Note_on_c, 2, 60, 45
2, 8696, Note_on_c, 2, 57, 48
2, 8699, Note_on_c, 2, 60, 0
2, 8711, Note_on_c, 2, 53, 0
2, 8737, Note_on_c, 2, 60, 45
2, 8740, Note_on_c, 2, 82, 55
2, 8744, Note_on_c, 2, 84, 0
2, 8748, Note_on_c, 2, 57, 0
2, 8759, Note_on_c, 2, 81, 49
2, 8763, Note_on_c, 2, 82, 0
2, 8777, Note_on_c, 2, 81, 0
2, 8778, Note_on_c, 2, 60, 0
2, 8778, Note_on_c, 2, 52, 50
2, 8778, Note_on_c, 2, 79, 68
2, 8782, Control_c, 2, 64, 0
2, 8818, Note_on_c, 2, 60, 46
2, 8818, Note_on_c, 2, 81, 48
2, 8826, Control_c, 2, 64, 127
2, 8859, Note_on_c, 2, 60, 0
2, 8859, Note_on_c, 2, 79, 0
2, 8859, Note_on_c, 2, 82, 49
2, 8859, Note_on_c, 2, 55, 31
2, 8866, Note_on_c, 2, 81, 0
2, 8900, Note_on_c, 2, 52, 0
2, 8903, Note_on_c, 2, 82, 0
2, 8904, Note_on_c, 2, 55, 0
2, 8904, Note_on_c, 2, 79, 55
2, 8904, Note_on_c, 2, 60, 45
2, 8945, Note_on_c, 2, 53, 45
2, 8945, Note_on_c, 2, 81, 53
2, 8951, Note_on_c, 2, 79, 0
2, 8952, Note_on_c, 2, 60, 0
2, 8952, Control_c, 2, 64, 0
2, 8989, Note_on_c, 2, 57, 42
2, 9004, Control_c, 2, 64, 127
2, 9033, Note_on_c, 2, 60, 57
2, 9074, Note_on_c, 2, 84, 48
2, 9081, Note_on_c, 2, 81, 0
2, 9088, Note_on_c, 2, 84, 0
2, 9118, Note_on_c, 2, 84, 60
2, 9129, Note_on_c, 2, 84, 0
2, 9159, Note_on_c, 2, 84, 68
2, 9174, Note_on_c, 2, 84, 0
2, 9204, Note_on_c, 2, 84, 66
2, 9211, Note_on_c, 2, 84, 0
2, 9214, Note_on_c, 2, 60, 0
2, 9218, Note_on_c, 2, 57, 0
2, 9218, Note_on_c, 2, 53, 0
2, 9248, Note_on_c, 2, 85, 68
2, 9289, Note_on_c, 2, 85, 0
2, 9293, Note_on_c, 2, 46, 62
2, 9293, Note_on_c, 2, 58, 54
2, 9293, Note_on_c, 2, 86, 65
2, 9297, Control_c, 2, 64, 0
2, 9318, Note_on_c, 2, 86, 0
2, 9318, Note_on_c, 2, 74, 57
2, 9337, Note_on_c, 2, 73, 72
2, 9344, Note_on_c, 2, 74, 0
2, 9359, Note_on_c, 2, 73, 0
2, 9359, Note_on_c, 2, 74, 57
2, 9378, Control_c, 2, 64, 127
2, 9382, Note_on_c, 2, 74, 0
2, 9382, Note_on_c, 2, 75, 70
2, 9396, Note_on_c, 2, 75, 0
2, 9400, Note_on_c, 2, 74, 63
2, 9422, Note_on_c, 2, 74, 0
2, 9422, Note_on_c, 2, 76, 68
2, 9441, Note_on_c, 2, 76, 0
2, 9444, Note_on_c, 2, 74, 70
2, 9463, Note_on_c, 2, 74, 0
2, 9467, Note_on_c, 2, 77, 60
2, 9485, Note_on_c, 2, 77, 0
2, 9485, Note_on_c, 2, 74, 65
2, 9504, Note_on_c, 2, 74, 0
2, 9508, Note_on_c, 2, 78, 66
2, 9526, Note_on_c, 2, 78, 0
2, 9529, Note_on_c, 2, 74, 65
2, 9552, Note_on_c, 2, 74, 0
2, 9552, Note_on_c, 2, 79, 60
2, 9570, Note_on_c, 2, 79, 0
2, 9574, Note_on_c, 2, 74, 68
2, 9586, Note_on_c, 2, 46, 0
2, 9593, Note_on_c, 2, 58, 0
2, 9593, Note_on_c, 2, 81, 65
2, 9596, Note_on_c, 2, 74, 0
2, 9611, Note_on_c, 2, 81, 0
2, 9615, Note_on_c, 2, 74, 66
2, 9637, Note_on_c, 2, 82, 72
2, 9637, Note_on_c, 2, 55, 62
2, 9656, Control_c, 2, 64, 0
2, 9659, Note_on_c, 2, 55, 0
2, 9659, Note_on_c, 2, 57, 56
2, 9674, Control_c, 2, 64, 127
2, 9682, Note_on_c, 2, 58, 68
2, 9685, Note_on_c, 2, 57, 0
2, 9700, Note_on_c, 2, 58, 0
2, 9700, Note_on_c, 2, 57, 57
2, 9722, Note_on_c, 2, 57, 0
2, 9723, Note_on_c, 2, 55, 72
2, 9741, Note_on_c, 2, 55, 0
2, 9741, Note_on_c, 2, 57, 55
2, 9763, Note_on_c, 2, 57, 0
2, 9763, Note_on_c, 2, 53, 79
2, 9786, Note_on_c, 2, 53, 0
2, 9786, Note_on_c, 2, 55, 62
2, 9804, Note_on_c, 2, 55, 0
2, 9808, Note_on_c, 2, 52, 79
2, 9826, Note_on_c, 2, 53, 57
2, 9830, Note_on_c, 2, 52, 0
2, 9849, Note_on_c, 2, 50, 79
2, 9852, Note_on_c, 2, 53, 0
2, 9870, Note_on_c, 2, 50, 0
2, 9870, Note_on_c, 2, 52, 59
2, 9878, Note_on_c, 2, 74, 0
2, 9882, Note_on_c, 2, 82, 0
2, 9889, Note_on_c, 2, 52, 0
2, 9893, Note_on_c, 2, 48, 54
2, 9893, Note_on_c, 2, 47, 56
2, 9896, Note_on_c, 2, 81, 53
2, 9904, Note_on_c, 2, 82, 56
2, 9908, Note_on_c, 2, 81, 0
2, 9911, Note_on_c, 2, 47, 0
2, 9915, Note_on_c, 2, 48, 0
2, 9915, Note_on_c, 2, 52, 39
2, 9918, Note_on_c, 2, 82, 0
2, 9918, Note_on_c, 2, 50, 36
2, 9918, Note_on_c, 2, 81, 60
2, 9930, Note_on_c, 2, 81, 0
2, 9930, Note_on_c, 2, 82, 54
2, 9937, Note_on_c, 2, 50, 0
2, 9941, Note_on_c, 2, 82, 0
2, 9941, Note_on_c, 2, 52, 0
2, 9941, Note_on_c, 2, 46, 55
2, 9941, Note_on_c, 2, 81, 52
2, 9948, Note_on_c, 2, 81, 0
2, 9952, Note_on_c, 2, 82, 46
2, 9963, Note_on_c, 2, 82, 0
2, 9963, Note_on_c, 2, 81, 33
2, 9986, Note_on_c, 2, 82, 45
2, 9992, Note_on_c, 2, 81, 0
2, 9992, Note_on_c, 2, 46, 0
2, 9993, Note_on_c, 2, 45, 52
2, 9993, Note_on_c, 2, 57, 55
2, 9993, Note_on_c, 2, 84, 65
2, 10004, Note_on_c, 2, 82, 0
2, 10011, Note_on_c, 2, 72, 70
2, 10015, Note_on_c, 2, 84, 0
2, 10015, Control_c, 2, 64, 0
2, 10034, Note_on_c, 2, 71, 83
2, 10041, Note_on_c, 2, 72, 0
2, 10056, Note_on_c, 2, 72, 60
2, 10060, Note_on_c, 2, 71, 0
2, 10074, Note_on_c, 2, 72, 0
2, 10074, Note_on_c, 2, 73, 68
2, 10092, Note_on_c, 2, 72, 56
2, 10096, Note_on_c, 2, 73, 0
2, 10122, Note_on_c, 2, 72, 0
2, 10122, Note_on_c, 2, 74, 66
2, 10144, Note_on_c, 2, 74, 0
2, 10144, Note_on_c, 2, 72, 66
2, 10167, Note_on_c, 2, 75, 42
2, 10178, Note_on_c, 2, 72, 0
2, 10189, Note_on_c, 2, 75, 0
2, 10189, Note_on_c, 2, 72, 56
2, 10192, Control_c, 2, 64, 127
2, 10208, Note_on_c, 2, 76, 68
2, 10211, Note_on_c, 2, 72, 0
2, 10230, Note_on_c, 2, 76, 0
2, 10230, Note_on_c, 2, 72, 57
2, 10252, Note_on_c, 2, 77, 65
2, 10256, Note_on_c, 2, 72, 0
2, 10274, Note_on_c, 2, 77, 0
2, 10275, Note_on_c, 2, 72, 48
2, 10297, Note_on_c, 2, 45, 0
2, 10297, Note_on_c, 2, 79, 55
2, 10315, Note_on_c, 2, 79, 0
2, 10337, Note_on_c, 2, 53, 63
2, 10338, Note_on_c, 2, 81, 65
2, 10341, Note_on_c, 2, 57, 0
2, 10348, Control_c, 2, 64, 0
2, 10356, Note_on_c, 2, 55, 72
2, 10363, Note_on_c, 2, 53, 0
2, 10367, Control_c, 2, 64, 127
2, 10378, Note_on_c, 2, 55, 0
2, 10378, Note_on_c, 2, 57, 68
2, 10396, Note_on_c, 2, 55, 53
2, 10415, Note_on_c, 2, 57, 0
2, 10418, Note_on_c, 2, 53, 60
2, 10422, Note_on_c, 2, 55, 0
2, 10437, Note_on_c, 2, 53, 0
2, 10438, Note_on_c, 2, 55, 55
2, 10460, Control_c, 2, 64, 0
2, 10460, Note_on_c, 2, 52, 70
2, 10463, Note_on_c, 2, 55, 0
2, 10478, Control_c, 2, 64, 127
2, 10482, Note_on_c, 2, 52, 0
2, 10482, Note_on_c, 2, 53, 50
2, 10504, Note_on_c, 2, 53, 0
2, 10504, Note_on_c, 2, 50, 70
2, 10523, Note_on_c, 2, 50, 0
2, 10526, Note_on_c, 2, 52, 59
2, 10545, Note_on_c, 2, 52, 0
2, 10545, Note_on_c, 2, 48, 66
2, 10559, Note_on_c, 2, 72, 0
2, 10567, Note_on_c, 2, 48, 0
2, 10567, Note_on_c, 2, 52, 57
2, 10571, Note_on_c, 2, 81, 0
2, 10589, Note_on_c, 2, 46, 70
2, 10593, Note_on_c, 2, 52, 0
2, 10593, Note_on_c, 2, 81, 50
2, 10601, Note_on_c, 2, 82, 50
2, 10604, Note_on_c, 2, 81, 0
2, 10615, Note_on_c, 2, 82, 0
2, 10615, Note_on_c, 2, 46, 0
2, 10615, Note_on_c, 2, 48, 40
2, 10615, Note_on_c, 2, 81, 53
2, 10615, Note_on_c, 2, 50, 38
2, 10626, Note_on_c, 2, 81, 0
2, 10626, Note_on_c, 2, 82, 56
2, 10630, Note_on_c, 2, 50, 0
2, 10634, Note_on_c, 2, 48, 0
2, 10634, Note_on_c, 2, 46, 39
2, 10638, Note_on_c, 2, 82, 0
2, 10638, Note_on_c, 2, 81, 53
2, 10648, Note_on_c, 2, 81, 0
2, 10648, Note_on_c, 2, 82, 50
2, 10660, Note_on_c, 2, 82, 0
2, 10663, Note_on_c, 2, 81, 47
2, 10678, Note_on_c, 2, 81, 0
2, 10682, Note_on_c, 2, 46, 0
2, 10689, Note_on_c, 2, 55, 45
2, 10693, Note_on_c, 2, 43, 55
2, 10693, Control_c, 2, 64, 0
2, 10693, Note_on_c, 2, 82, 59
2, 10712, Control_c, 2, 64, 127
2, 10715, Note_on_c, 2, 70, 72
2, 10722, Note_on_c, 2, 82, 0
2, 10741, Note_on_c, 2, 69, 60
2, 10745, Note_on_c, 2, 70, 0
2, 10760, Note_on_c, 2, 70, 52
2, 10764, Note_on_c, 2, 69, 0
2, 10782, Note_on_c, 2, 72, 62
2, 10786, Note_on_c, 2, 70, 0
2, 10804, Note_on_c, 2, 70, 72
2, 10808, Note_on_c, 2, 72, 0
2, 10823, Note_on_c, 2, 74, 65
2, 10826, Note_on_c, 2, 70, 0
2, 10845, Note_on_c, 2, 74, 0
2, 10848, Note_on_c, 2, 70, 63
2, 10867, Note_on_c, 2, 75, 68
2, 10870, Note_on_c, 2, 70, 0
2, 10889, Note_on_c, 2, 70, 53
2, 10893, Note_on_c, 2, 75, 0
2, 10912, Note_on_c, 2, 76, 56
2, 10915, Note_on_c, 2, 70, 0
2, 10934, Note_on_c, 2, 76, 0
2, 10934, Note_on_c, 2, 70, 46
2, 10956, Note_on_c, 2, 77, 49
2, 10964, Note_on_c, 2, 70, 0
2, 10982, Note_on_c, 2, 77, 0
2, 10982, Note_on_c, 2, 70, 49
2, 10997, Note_on_c, 2, 43, 0
2, 11008, Note_on_c, 2, 70, 0
2, 11008, Note_on_c, 2, 78, 44
2, 11034, Note_on_c, 2, 70, 39
2, 11037, Note_on_c, 2, 78, 0
2, 11064, Note_on_c, 2, 70, 0
2, 11071, Note_on_c, 2, 48, 40
2, 11075, Note_on_c, 2, 79, 46
2, 11090, Note_on_c, 2, 55, 0
2, 11097, Note_on_c, 2, 52, 35
2, 11098, Control_c, 2, 64, 0
2, 11115, Control_c, 2, 64, 127
2, 11119, Note_on_c, 2, 55, 39
2, 11123, Note_on_c, 2, 52, 0
2, 11142, Note_on_c, 2, 52, 42
2, 11145, Note_on_c, 2, 48, 0
2, 11156, Note_on_c, 2, 79, 0
2, 11164, Note_on_c, 2, 52, 0
2, 11164, Note_on_c, 2, 48, 45
2, 11171, Note_on_c, 2, 55, 0
2, 11186, Note_on_c, 2, 52, 45
2, 11208, Note_on_c, 2, 52, 0
2, 11208, Note_on_c, 2, 55, 45
2, 11208, Note_on_c, 2, 82, 57
2, 11226, Note_on_c, 2, 82, 0
2, 11230, Note_on_c, 2, 52, 42
2, 11234, Note_on_c, 2, 48, 0
2, 11249, Note_on_c, 2, 52, 0
2, 11252, Note_on_c, 2, 55, 0
2, 11253, Note_on_c, 2, 48, 40
2, 11253, Note_on_c, 2, 81, 52
2, 11271, Note_on_c, 2, 52, 42
2, 11294, Note_on_c, 2, 52, 0
2, 11296, Note_on_c, 2, 55, 50
2, 11297, Note_on_c, 2, 79, 53
2, 11300, Note_on_c, 2, 81, 0
2, 11319, Note_on_c, 2, 48, 0
2, 11319, Note_on_c, 2, 52, 47
2, 11338, Note_on_c, 2, 52, 0
2, 11341, Note_on_c, 2, 55, 0
2, 11342, Note_on_c, 2, 48, 45
2, 11345, Note_on_c, 2, 77, 42
2, 11348, Note_on_c, 2, 79, 0
2, 11364, Note_on_c, 2, 52, 44
2, 11390, Note_on_c, 2, 52, 0
2, 11390, Note_on_c, 2, 55, 48
2, 11390, Note_on_c, 2, 76, 48
2, 11393, Note_on_c, 2, 77, 0
2, 11412, Note_on_c, 2, 48, 0
2, 11412, Note_on_c, 2, 52, 41
2, 11434, Note_on_c, 2, 52, 0
2, 11434, Note_on_c, 2, 48, 44
2, 11438, Note_on_c, 2, 55, 0
2, 11438, Note_on_c, 2, 79, 48
2, 11445, Note_on_c, 2, 76, 0
2, 11456, Note_on_c, 2, 53, 40
2, 11460, Control_c, 2, 64, 0
2, 11478, Control_c, 2, 64, 127
2, 11478, Note_on_c, 2, 77, 50
2, 11482, Note_on_c, 2, 53, 0
2, 11482, Note_on_c, 2, 57, 54
2, 11486, Note_on_c, 2, 79, 0
2, 11504, Note_on_c, 2, 48, 0
2, 11505, Note_on_c, 2, 53, 42
2, 11527, Note_on_c, 2, 53, 0
2, 11527, Note_on_c, 2, 48, 55
2, 11530, Note_on_c, 2, 57, 0
2, 11548, Note_on_c, 2, 53, 44
2, 11567, Note_on_c, 2, 57, 52
2, 11571, Note_on_c, 2, 53, 0
2, 11571, Note_on_c, 2, 84, 47
2, 11578, Note_on_c, 2, 77, 0
2, 11593, Note_on_c, 2, 48, 0
2, 11593, Note_on_c, 2, 53, 42
2, 11612, Note_on_c, 2, 53, 0
2, 11615, Note_on_c, 2, 84, 0
2, 11616, Note_on_c, 2, 48, 54
2, 11616, Note_on_c, 2, 82, 52
2, 11619, Note_on_c, 2, 57, 0
2, 11634, Note_on_c, 2, 51, 56
2, 11649, Control_c, 2, 64, 0
2, 11656, Note_on_c, 2, 54, 54
2, 11660, Note_on_c, 2, 81, 57
2, 11664, Note_on_c, 2, 51, 0
2, 11664, Control_c, 2, 64, 127
2, 11667, Note_on_c, 2, 82, 0
2, 11678, Note_on_c, 2, 48, 0
2, 11678, Note_on_c, 2, 51, 45
2, 11697, Note_on_c, 2, 54, 0
2, 11701, Note_on_c, 2, 51, 0
2, 11701, Note_on_c, 2, 48, 50
2, 11701, Note_on_c, 2, 79, 52
2, 11704, Note_on_c, 2, 81, 0
2, 11723, Note_on_c, 2, 51, 40
2, 11741, Note_on_c, 2, 79, 0
2, 11741, Note_on_c, 2, 48, 0
2, 11745, Note_on_c, 2, 54, 45
2, 11749, Note_on_c, 2, 78, 53
2, 11752, Note_on_c, 2, 51, 0
2, 11771, Note_on_c, 2, 78, 0
2, 11771, Note_on_c, 2, 51, 40
2, 11782, Note_on_c, 2, 54, 0
2, 11790, Note_on_c, 2, 51, 0
2, 11801, Note_on_c, 2, 46, 52
2, 11801, Note_on_c, 2, 79, 47
2, 11819, Note_on_c, 2, 50, 45
2, 11823, Control_c, 2, 64, 0
2, 11838, Note_on_c, 2, 50, 0
2, 11842, Control_c, 2, 64, 127
2, 11845, Note_on_c, 2, 55, 51
2, 11864, Note_on_c, 2, 50, 45
2, 11867, Note_on_c, 2, 46, 0
2, 11867, Note_on_c, 2, 81, 56
2, 11871, Note_on_c, 2, 79, 0
2, 11886, Note_on_c, 2, 50, 0
2, 11886, Note_on_c, 2, 55, 0
2, 11890, Note_on_c, 2, 46, 45
2, 11890, Note_on_c, 2, 84, 52
2, 11893, Note_on_c, 2, 81, 0
2, 11908, Note_on_c, 2, 50, 48
2, 11912, Note_on_c, 2, 82, 62
2, 11920, Note_on_c, 2, 84, 0
2, 11934, Note_on_c, 2, 55, 54
2, 11934, Note_on_c, 2, 81, 59
2, 11941, Note_on_c, 2, 82, 0
2, 11941, Note_on_c, 2, 50, 0
2, 11945, Note_on_c, 2, 55, 0
2, 11952, Note_on_c, 2, 46, 0
2, 11956, Note_on_c, 2, 81, 0
2, 11956, Note_on_c, 2, 79, 66
2, 11956, Note_on_c, 2, 55, 50
2, 11978, Note_on_c, 2, 55, 0
2, 11979, Note_on_c, 2, 48, 55
2, 11979, Note_on_c, 2, 77, 68
2, 11982, Note_on_c, 2, 79, 0
2, 11990, Control_c, 2, 64, 0
2, 12001, Note_on_c, 2, 53, 46
2, 12008, Control_c, 2, 64, 127
2, 12023, Note_on_c, 2, 53, 0
2, 12023, Note_on_c, 2, 57, 54
2, 12045, Note_on_c, 2, 48, 0
2, 12045, Note_on_c, 2, 53, 45
2, 12057, Note_on_c, 2, 53, 0
2, 12060, Note_on_c, 2, 57, 0
2, 12060, Note_on_c, 2, 77, 0
2, 12068, Note_on_c, 2, 48, 56
2, 12072, Note_on_c, 2, 76, 59
2, 12082, Note_on_c, 2, 76, 0
2, 12082, Note_on_c, 2, 77, 46
2, 12090, Note_on_c, 2, 52, 37
2, 12093, Note_on_c, 2, 77, 0
2, 12094, Note_on_c, 2, 76, 52
2, 12094, Note_on_c, 2, 55, 43
2, 12098, Control_c, 2, 64, 0
2, 12104, Note_on_c, 2, 76, 0
2, 12104, Note_on_c, 2, 77, 56
2, 12112, Note_on_c, 2, 77, 0
2, 12112, Control_c, 2, 64, 127
2, 12112, Note_on_c, 2, 76, 45
2, 12116, Note_on_c, 2, 48, 0
2, 12119, Note_on_c, 2, 52, 0
2, 12119, Note_on_c, 2, 76, 0
2, 12123, Note_on_c, 2, 55, 0
2, 12123, Note_on_c, 2, 77, 51
2, 12134, Note_on_c, 2, 77, 0
2, 12134, Note_on_c, 2, 76, 31
2, 12157, Note_on_c, 2, 77, 48
2, 12160, Note_on_c, 2, 76, 0
2, 12164, Note_on_c, 2, 53, 66
2, 12164, Note_on_c, 2, 65, 54
2, 12168, Note_on_c, 2, 77, 0
2, 12179, Control_c, 2, 64, 0
2, 12186, Note_on_c, 2, 77, 72
2, 12198, Control_c, 2, 64, 127
2, 12208, Note_on_c, 2, 77, 0
2, 12208, Note_on_c, 2, 76, 65
2, 12212, Note_on_c, 2, 65, 0
2, 12223, Note_on_c, 2, 53, 0
2, 12227, Note_on_c, 2, 77, 55
2, 12234, Note_on_c, 2, 76, 0
2, 12249, Note_on_c, 2, 77, 0
2, 12249, Note_on_c, 2, 48, 65
2, 12249, Note_on_c, 2, 60, 55
2, 12271, Note_on_c, 2, 72, 65
2, 12271, Control_c, 2, 64, 0
2, 12290, Control_c, 2, 64, 127
2, 12293, Note_on_c, 2, 72, 0
2, 12294, Note_on_c, 2, 71, 66
2, 12305, Note_on_c, 2, 60, 0
2, 12316, Note_on_c, 2, 48, 0
2, 12316, Note_on_c, 2, 72, 60
2, 12323, Note_on_c, 2, 71, 0
2, 12334, Note_on_c, 2, 72, 0
2, 12338, Note_on_c, 2, 45, 66
2, 12339, Note_on_c, 2, 57, 56
2, 12357, Control_c, 2, 64, 0
2, 12360, Note_on_c, 2, 69, 60
2, 12375, Control_c, 2, 64, 127
2, 12382, Note_on_c, 2, 69, 0
2, 12382, Note_on_c, 2, 68, 68
2, 12390, Note_on_c, 2, 57, 0
2, 12397, Note_on_c, 2, 45, 0
2, 12405, Note_on_c, 2, 69, 57
2, 12412, Note_on_c, 2, 68, 0
2, 12427, Note_on_c, 2, 69, 0
2, 12427, Note_on_c, 2, 41, 66
2, 12430, Note_on_c, 2, 53, 56
2, 12449, Control_c, 2, 64, 0
2, 12453, Note_on_c, 2, 65, 66
2, 12464, Note_on_c, 2, 41, 0
2, 12468, Note_on_c, 2, 65, 0
2, 12468, Control_c, 2, 64, 127
2, 12475, Note_on_c, 2, 53, 0
2, 12475, Note_on_c, 2, 64, 41
2, 12501, Note_on_c, 2, 65, 52
2, 12504, Note_on_c, 2, 64, 0
2, 12508, Note_on_c, 2, 65, 0
2, 12553, Note_on_c, 2, 48, 46
2, 12553, Note_on_c, 2, 72, 45
2, 12564, Control_c, 2, 64, 0
2, 12571, Note_on_c, 2, 55, 48
2, 12583, Control_c, 2, 64, 127
2, 12598, Note_on_c, 2, 55, 0
2, 12598, Note_on_c, 2, 58, 40
2, 12619, Note_on_c, 2, 55, 47
2, 12623, Note_on_c, 2, 48, 0
2, 12642, Note_on_c, 2, 48, 52
2, 12645, Note_on_c, 2, 55, 0
2, 12645, Note_on_c, 2, 58, 0
2, 12664, Note_on_c, 2, 55, 47
2, 12690, Note_on_c, 2, 55, 0
2, 12690, Note_on_c, 2, 58, 48
2, 12690, Note_on_c, 2, 82, 47
2, 12701, Note_on_c, 2, 72, 0
2, 12712, Note_on_c, 2, 48, 0
2, 12712, Note_on_c, 2, 55, 39
2, 12720, Note_on_c, 2, 82, 0
2, 12723, Note_on_c, 2, 58, 0
2, 12734, Note_on_c, 2, 55, 0
2, 12734, Note_on_c, 2, 48, 52
2, 12738, Note_on_c, 2, 81, 63
2, 12756, Note_on_c, 2, 55, 45
2, 12782, Note_on_c, 2, 55, 0
2, 12782, Note_on_c, 2, 79, 50
2, 12782, Note_on_c, 2, 58, 45
2, 12786, Note_on_c, 2, 81, 0
2, 12805, Note_on_c, 2, 55, 48
2, 12812, Note_on_c, 2, 48, 0
2, 12812, Note_on_c, 2, 58, 0
2, 12831, Note_on_c, 2, 55, 0
2, 12831, Note_on_c, 2, 48, 52
2, 12831, Note_on_c, 2, 77, 45
2, 12838, Note_on_c, 2, 79, 0
2, 12853, Note_on_c, 2, 55, 47
2, 12875, Note_on_c, 2, 55, 0
2, 12879, Note_on_c, 2, 58, 52
2, 12879, Note_on_c, 2, 76, 50
2, 12882, Note_on_c, 2, 77, 0
2, 12902, Note_on_c, 2, 55, 39
2, 12904, Note_on_c, 2, 48, 0
2, 12923, Note_on_c, 2, 55, 0
2, 12927, Note_on_c, 2, 58, 0
2, 12930, Note_on_c, 2, 48, 46
2, 12931, Note_on_c, 2, 79, 51
2, 12942, Note_on_c, 2, 76, 0
2, 12950, Note_on_c, 2, 54, 43
2, 12952, Note_on_c, 2, 54, 0
2, 12953, Note_on_c, 2, 53, 53
2, 12972, Control_c, 2, 64, 0
2, 12979, Note_on_c, 2, 77, 50
2, 12982, Note_on_c, 2, 79, 0
2, 12986, Note_on_c, 2, 53, 0
2, 12986, Note_on_c, 2, 57, 54
2, 12986, Control_c, 2, 64, 127
2, 13008, Note_on_c, 2, 53, 37
2, 13012, Note_on_c, 2, 48, 0
2, 13027, Note_on_c, 2, 53, 0
2, 13027, Note_on_c, 2, 57, 0
2, 13030, Note_on_c, 2, 48, 43
2, 13053, Note_on_c, 2, 53, 40
2, 13068, Note_on_c, 2, 53, 0
2, 13079, Note_on_c, 2, 57, 57
2, 13079, Note_on_c, 2, 84, 52
2, 13086, Note_on_c, 2, 77, 0
2, 13101, Note_on_c, 2, 53, 35
2, 13104, Note_on_c, 2, 48, 0
2, 13116, Note_on_c, 2, 53, 0
2, 13123, Note_on_c, 2, 57, 0
2, 13123, Note_on_c, 2, 82, 53
2, 13123, Note_on_c, 2, 48, 52
2, 13127, Note_on_c, 2, 84, 0
2, 13150, Note_on_c, 2, 51, 55
2, 13157, Control_c, 2, 64, 0
2, 13160, Note_on_c, 2, 48, 0
2, 13172, Note_on_c, 2, 54, 48
2, 13172, Control_c, 2, 64, 127
2, 13172, Note_on_c, 2, 48, 5
2, 13172, Note_on_c, 2, 81, 53
2, 13175, Note_on_c, 2, 51, 0
2, 13179, Note_on_c, 2, 82, 0
2, 13190, Note_on_c, 2, 48, 0
2, 13190, Note_on_c, 2, 51, 42
2, 13204, Note_on_c, 2, 54, 0
2, 13208, Note_on_c, 2, 51, 0
2, 13216, Note_on_c, 2, 48, 42
2, 13216, Note_on_c, 2, 79, 56
2, 13220, Note_on_c, 2, 81, 0
2, 13238, Note_on_c, 2, 51, 36
2, 13249, Note_on_c, 2, 79, 0
2, 13260, Note_on_c, 2, 54, 45
2, 13260, Note_on_c, 2, 78, 60
2, 13264, Note_on_c, 2, 51, 0
2, 13275, Note_on_c, 2, 48, 0
2, 13279, Note_on_c, 2, 78, 0
2, 13282, Note_on_c, 2, 51, 36
2, 13298, Note_on_c, 2, 51, 0
2, 13298, Note_on_c, 2, 54, 0
2, 13309, Note_on_c, 2, 46, 54
2, 13309, Note_on_c, 2, 79, 55
2, 13327, Control_c, 2, 64, 0
2, 13331, Note_on_c, 2, 50, 47
2, 13346, Control_c, 2, 64, 127
2, 13350, Note_on_c, 2, 50, 0
2, 13353, Note_on_c, 2, 55, 45
2, 13372, Note_on_c, 2, 50, 45
2, 13375, Note_on_c, 2, 46, 0
2, 13379, Note_on_c, 2, 55, 0
2, 13390, Note_on_c, 2, 50, 0
2, 13398, Note_on_c, 2, 79, 0
2, 13398, Note_on_c, 2, 46, 43
2, 13398, Note_on_c, 2, 81, 54
2, 13420, Note_on_c, 2, 50, 49
2, 13421, Note_on_c, 2, 82, 47
2, 13427, Note_on_c, 2, 81, 0
2, 13442, Note_on_c, 2, 46, 0
2, 13442, Note_on_c, 2, 55, 52
2, 13446, Note_on_c, 2, 84, 53
2, 13449, Note_on_c, 2, 82, 0
2, 13457, Note_on_c, 2, 50, 0
2, 13468, Note_on_c, 2, 86, 66
2, 13472, Note_on_c, 2, 84, 0
2, 13479, Note_on_c, 2, 86, 0
2, 13482, Note_on_c, 2, 55, 0
2, 13487, Note_on_c, 2, 48, 50
2, 13487, Note_on_c, 2, 86, 66
2, 13501, Control_c, 2, 64, 0
2, 13508, Note_on_c, 2, 53, 42
2, 13509, Note_on_c, 2, 77, 63
2, 13513, Note_on_c, 2, 86, 0
2, 13520, Control_c, 2, 64, 127
2, 13531, Note_on_c, 2, 53, 0
2, 13531, Note_on_c, 2, 57, 45
2, 13550, Note_on_c, 2, 48, 0
2, 13550, Note_on_c, 2, 53, 44
2, 13557, Note_on_c, 2, 57, 0
2, 13560, Note_on_c, 2, 53, 0
2, 13561, Note_on_c, 2, 77, 0
2, 13572, Note_on_c, 2, 48, 48
2, 13579, Note_on_c, 2, 79, 66
2, 13580, Note_on_c, 2, 55, 41
2, 13580, Note_on_c, 2, 52, 39
2, 13590, Note_on_c, 2, 79, 0
2, 13590, Note_on_c, 2, 81, 54
2, 13591, Control_c, 2, 64, 0
2, 13605, Note_on_c, 2, 81, 0
2, 13605, Note_on_c, 2, 79, 53
2, 13605, Control_c, 2, 64, 127
2, 13616, Note_on_c, 2, 79, 0
2, 13616, Note_on_c, 2, 81, 54
2, 13628, Note_on_c, 2, 81, 0
2, 13628, Note_on_c, 2, 52, 0
2, 13628, Note_on_c, 2, 48, 0
2, 13631, Note_on_c, 2, 79, 40
2, 13638, Note_on_c, 2, 55, 0
2, 13642, Note_on_c, 2, 79, 0
2, 13642, Note_on_c, 2, 81, 46
2, 13657, Note_on_c, 2, 79, 37
2, 13660, Note_on_c, 2, 81, 0
2, 13672, Note_on_c, 2, 77, 50
2, 13675, Note_on_c, 2, 79, 0
2, 13675, Note_on_c, 2, 53, 57
2, 13675, Note_on_c, 2, 57, 56
2, 13694, Control_c, 2, 64, 0
2, 13720, Note_on_c, 2, 84, 55
2, 13720, Control_c, 2, 64, 127
2, 13735, Note_on_c, 2, 77, 0
2, 13739, Note_on_c, 2, 81, 54
2, 13746, Note_on_c, 2, 84, 0
2, 13761, Note_on_c, 2, 77, 54
2, 13775, Note_on_c, 2, 81, 0
2, 13780, Note_on_c, 2, 72, 60
2, 13783, Note_on_c, 2, 77, 0
2, 13794, Note_on_c, 2, 72, 0
2, 13805, Note_on_c, 2, 69, 45
2, 13824, Note_on_c, 2, 69, 0
2, 13824, Note_on_c, 2, 65, 54
2, 13831, Note_on_c, 2, 65, 0
2, 13849, Note_on_c, 2, 60, 68
2, 13850, Note_on_c, 2, 63, 100
2, 13853, Note_on_c, 2, 57, 0
2, 13857, Control_c, 2, 64, 0
2, 13861, Note_on_c, 2, 53, 0
2, 13868, Control_c, 2, 64, 127
2, 13894, Note_on_c, 2, 53, 52
2, 13894, Note_on_c, 2, 41, 62
2, 13905, Note_on_c, 2, 41, 0
2, 13908, Note_on_c, 2, 53, 0
2, 13938, Note_on_c, 2, 45, 57
2, 13939, Note_on_c, 2, 57, 55
2, 13950, Note_on_c, 2, 57, 0
2, 13950, Note_on_c, 2, 45, 0
2, 13983, Note_on_c, 2, 41, 59
2, 13983, Note_on_c, 2, 53, 53
2, 13990, Note_on_c, 2, 41, 0
2, 13994, Note_on_c, 2, 53, 0
2, 14009, Note_on_c, 2, 63, 0
2, 14016, Note_on_c, 2, 60, 0
2, 14031, Note_on_c, 2, 46, 55
2, 14031, Note_on_c, 2, 58, 59
2, 14050, Control_c, 2, 64, 0
2, 14076, Note_on_c, 2, 62, 54
2, 14076, Control_c, 2, 64, 127
2, 14113, Note_on_c, 2, 62, 0
2, 14120, Note_on_c, 2, 55, 54
2, 14124, Note_on_c, 2, 46, 0
2, 14127, Note_on_c, 2, 58, 0
2, 14164, Control_c, 2, 64, 0
2, 14164, Note_on_c, 2, 70, 46
2, 14164, Note_on_c, 2, 74, 55
2, 14213, Note_on_c, 2, 60, 47
2, 14227, Control_c, 2, 64, 127
2, 14254, Note_on_c, 2, 72, 53
2, 14257, Note_on_c, 2, 69, 46
2, 14261, Note_on_c, 2, 74, 0
2, 14261, Note_on_c, 2, 70, 0
2, 14264, Note_on_c, 2, 72, 0
2, 14268, Note_on_c, 2, 69, 0
2, 14294, Note_on_c, 2, 60, 0
2, 14298, Note_on_c, 2, 48, 54
2, 14305, Note_on_c, 2, 55, 0
2, 14320, Control_c, 2, 64, 0
2, 14339, Note_on_c, 2, 58, 42
2, 14342, Note_on_c, 2, 64, 56
2, 14343, Control_c, 2, 64, 127
2, 14350, Note_on_c, 2, 58, 0
2, 14353, Note_on_c, 2, 64, 0
2, 14386, Note_on_c, 2, 53, 47
2, 14386, Note_on_c, 2, 57, 43
2, 14390, Note_on_c, 2, 48, 0
2, 14394, Control_c, 2, 64, 0
2, 14435, Note_on_c, 2, 84, 57
2, 14457, Note_on_c, 2, 81, 51
2, 14468, Note_on_c, 2, 84, 0
2, 14476, Control_c, 2, 64, 127
2, 14479, Note_on_c, 2, 77, 46
2, 14490, Note_on_c, 2, 81, 0
2, 14501, Note_on_c, 2, 77, 0
2, 14502, Note_on_c, 2, 72, 59
2, 14512, Note_on_c, 2, 72, 0
2, 14524, Note_on_c, 2, 69, 45
2, 14542, Note_on_c, 2, 69, 0
2, 14546, Note_on_c, 2, 65, 33
2, 14550, Note_on_c, 2, 65, 0
2, 14568, Note_on_c, 2, 60, 65
2, 14569, Note_on_c, 2, 63, 72
2, 14572, Control_c, 2, 64, 0
2, 14583, Note_on_c, 2, 57, 0
2, 14583, Control_c, 2, 64, 127
2, 14587, Note_on_c, 2, 53, 0
2, 14609, Note_on_c, 2, 53, 46
2, 14612, Note_on_c, 2, 41, 56
2, 14624, Note_on_c, 2, 41, 0
2, 14624, Note_on_c, 2, 53, 0
2, 14654, Note_on_c, 2, 45, 54
2, 14654, Note_on_c, 2, 57, 54
2, 14661, Note_on_c, 2, 57, 0
2, 14665, Note_on_c, 2, 45, 0
2, 14694, Note_on_c, 2, 41, 56
2, 14694, Note_on_c, 2, 53, 50
2, 14702, Note_on_c, 2, 53, 0
2, 14702, Note_on_c, 2, 41, 0
2, 14713, Note_on_c, 2, 63, 0
2, 14717, Note_on_c, 2, 60, 0
2, 14735, Note_on_c, 2, 46, 60
2, 14736, Note_on_c, 2, 58, 57
2, 14746, Control_c, 2, 64, 0
2, 14779, Note_on_c, 2, 62, 53
2, 14780, Control_c, 2, 64, 127
2, 14824, Note_on_c, 2, 62, 0
2, 14824, Note_on_c, 2, 55, 53
2, 14828, Note_on_c, 2, 46, 0
2, 14831, Note_on_c, 2, 58, 0
2, 14858, Control_c, 2, 64, 0
2, 14872, Note_on_c, 2, 70, 45
2, 14872, Note_on_c, 2, 74, 54
2, 14920, Note_on_c, 2, 60, 45
2, 14950, Control_c, 2, 64, 127
2, 14961, Note_on_c, 2, 72, 54
2, 14962, Note_on_c, 2, 69, 41
2, 14965, Note_on_c, 2, 74, 0
2, 14965, Note_on_c, 2, 70, 0
2, 14968, Note_on_c, 2, 72, 0
2, 14972, Note_on_c, 2, 69, 0
2, 15006, Note_on_c, 2, 60, 0
2, 15006, Note_on_c, 2, 48, 53
2, 15009, Note_on_c, 2, 55, 0
2, 15020, Note_on_c, 2, 48, 0
2, 15050, Note_on_c, 2, 64, 49
2, 15064, Note_on_c, 2, 64, 0
2, 15094, Note_on_c, 2, 41, 50
2, 15094, Note_on_c, 2, 65, 56
2, 15094, Note_on_c, 2, 57, 49
2, 15106, Control_c, 2, 64, 0
2, 15117, Note_on_c, 2, 41, 0
2, 15117, Note_on_c, 2, 53, 48
2, 15124, Control_c, 2, 64, 127
2, 15136, Note_on_c, 2, 52, 50
2, 15138, Note_on_c, 2, 53, 0
2, 15157, Note_on_c, 2, 52, 0
2, 15157, Note_on_c, 2, 53, 42
2, 15164, Note_on_c, 2, 57, 0
2, 15176, Note_on_c, 2, 53, 0
2, 15180, Note_on_c, 2, 41, 55
2, 15191, Note_on_c, 2, 65, 0
2, 15202, Note_on_c, 2, 41, 0
2, 15202, Note_on_c, 2, 53, 55
2, 15224, Note_on_c, 2, 52, 54
2, 15228, Note_on_c, 2, 53, 0
2, 15228, Note_on_c, 2, 69, 51
2, 15229, Note_on_c, 2, 65, 41
2, 15246, Note_on_c, 2, 69, 0
2, 15246, Note_on_c, 2, 52, 0
2, 15246, Note_on_c, 2, 53, 45
2, 15250, Note_on_c, 2, 65, 0
2, 15265, Note_on_c, 2, 41, 54
2, 15269, Note_on_c, 2, 53, 0
2, 15269, Note_on_c, 2, 64, 46
2, 15269, Note_on_c, 2, 67, 46
2, 15283, Note_on_c, 2, 64, 0
2, 15283, Control_c, 2, 64, 0
2, 15287, Note_on_c, 2, 67, 0
2, 15287, Note_on_c, 2, 41, 0
2, 15287, Note_on_c, 2, 53, 55
2, 15309, Control_c, 2, 64, 127
2, 15310, Note_on_c, 2, 52, 53
2, 15313, Note_on_c, 2, 64, 47
2, 15313, Note_on_c, 2, 67, 46
2, 15317, Note_on_c, 2, 53, 0
2, 15332, Note_on_c, 2, 67, 0
2, 15335, Note_on_c, 2, 64, 0
2, 15335, Note_on_c, 2, 52, 0
2, 15335, Note_on_c, 2, 53, 53
2, 15354, Note_on_c, 2, 53, 0
2, 15354, Note_on_c, 2, 41, 62
2, 15372, Note_on_c, 2, 41, 0
2, 15376, Note_on_c, 2, 53, 45
2, 15398, Note_on_c, 2, 53, 0
2, 15398, Note_on_c, 2, 70, 47
2, 15398, Note_on_c, 2, 52, 55
2, 15400, Note_on_c, 2, 67, 46
2, 15416, Note_on_c, 2, 70, 0
2, 15417, Note_on_c, 2, 67, 0
2, 15421, Note_on_c, 2, 52, 0
2, 15421, Note_on_c, 2, 53, 52
2, 15439, Note_on_c, 2, 53, 0
2, 15440, Control_c, 2, 64, 0
2, 15442, Note_on_c, 2, 41, 53
2, 15442, Note_on_c, 2, 69, 53
2, 15444, Note_on_c, 2, 65, 45
2, 15454, Note_on_c, 2, 65, 0
2, 15458, Note_on_c, 2, 69, 0
2, 15458, Note_on_c, 2, 41, 0
2, 15461, Note_on_c, 2, 53, 56
2, 15484, Note_on_c, 2, 52, 50
2, 15487, Note_on_c, 2, 53, 0
2, 15487, Note_on_c, 2, 65, 53
2, 15488, Note_on_c, 2, 69, 59
2, 15491, Control_c, 2, 64, 127
2, 15509, Note_on_c, 2, 65, 0
2, 15509, Note_on_c, 2, 52, 0
2, 15510, Note_on_c, 2, 53, 54
2, 15513, Note_on_c, 2, 69, 0
2, 15524, Note_on_c, 2, 53, 0
2, 15528, Note_on_c, 2, 41, 55
2, 15546, Note_on_c, 2, 41, 0
2, 15550, Note_on_c, 2, 53, 55
2, 15572, Note_on_c, 2, 52, 52
2, 15572, Note_on_c, 2, 77, 43
2, 15572, Note_on_c, 2, 81, 48
2, 15576, Note_on_c, 2, 53, 0
2, 15587, Note_on_c, 2, 77, 0
2, 15590, Note_on_c, 2, 81, 0
2, 15594, Note_on_c, 2, 52, 0
2, 15594, Note_on_c, 2, 53, 47
2, 15609, Note_on_c, 2, 53, 0
2, 15617, Note_on_c, 2, 41, 55
2, 15617, Note_on_c, 2, 79, 48
2, 15621, Note_on_c, 2, 76, 42
2, 15628, Note_on_c, 2, 76, 0
2, 15631, Note_on_c, 2, 79, 0
2, 15631, Note_on_c, 2, 41, 0
2, 15632, Control_c, 2, 64, 0
2, 15635, Note_on_c, 2, 53, 50
2, 15661, Note_on_c, 2, 53, 0
2, 15661, Control_c, 2, 64, 127
2, 15661, Note_on_c, 2, 52, 46
2, 15661, Note_on_c, 2, 79, 59
2, 15661, Note_on_c, 2, 76, 56
2, 15680, Note_on_c, 2, 76, 0
2, 15680, Note_on_c, 2, 79, 0
2, 15684, Note_on_c, 2, 52, 0
2, 15684, Note_on_c, 2, 53, 42
2, 15702, Note_on_c, 2, 53, 0
2, 15706, Note_on_c, 2, 41, 55
2, 15724, Note_on_c, 2, 41, 0
2, 15732, Note_on_c, 2, 53, 34
2, 15754, Note_on_c, 2, 52, 47
2, 15754, Note_on_c, 2, 76, 46
2, 15755, Note_on_c, 2, 79, 49
2, 15755, Note_on_c, 2, 82, 44
2, 15757, Note_on_c, 2, 53, 0
2, 15765, Note_on_c, 2, 79, 0
2, 15765, Note_on_c, 2, 82, 0
2, 15765, Note_on_c, 2, 76, 0
2, 15769, Note_on_c, 2, 52, 0
2, 15798, Control_c, 2, 64, 0
2, 15806, Note_on_c, 2, 53, 50
2, 15806, Note_on_c, 2, 41, 49
2, 15806, Note_on_c, 2, 79, 63
2, 15806, Note_on_c, 2, 82, 68
2, 15847, Control_c, 2, 64, 127
2, 15965, Note_on_c, 2, 79, 0
2, 15972, Note_on_c, 2, 82, 0
2, 16087, Note_on_c, 2, 81, 30
2, 16087, Note_on_c, 2, 77, 29
2, 16132, Control_c, 2, 64, 0
2, 16162, Control_c, 2, 64, 127
2, 16232, Note_on_c, 2, 77, 0
2, 16235, Note_on_c, 2, 81, 0
2, 16243, Note_on_c, 2, 41, 0
2, 16250, Note_on_c, 2, 53, 0
2, 16370, Control_c, 2, 64, 0
2, 16451, Note_on_c, 2, 62, 17
2, 16451, Control_c, 2, 64, 127
2, 16454, Note_on_c, 2, 58, 35
2, 16458, Note_on_c, 2, 70, 38
2, 16480, Note_on_c, 2, 72, 40
2, 16484, Note_on_c, 2, 70, 0
2, 16498, Note_on_c, 2, 70, 40
2, 16502, Note_on_c, 2, 72, 0
2, 16517, Note_on_c, 2, 70, 0
2, 16517, Note_on_c, 2, 72, 46
2, 16539, Note_on_c, 2, 72, 0
2, 16539, Note_on_c, 2, 70, 63
2, 16562, Note_on_c, 2, 58, 0
2, 16565, Note_on_c, 2, 62, 0
2, 16566, Note_on_c, 2, 72, 47
2, 16573, Note_on_c, 2, 70, 0
2, 16591, Note_on_c, 2, 72, 0
2, 16591, Note_on_c, 2, 74, 45
2, 16617, Note_on_c, 2, 63, 22
2, 16617, Note_on_c, 2, 70, 36
2, 16617, Note_on_c, 2, 60, 35
2, 16621, Note_on_c, 2, 74, 0
2, 16639, Control_c, 2, 64, 0
2, 16643, Note_on_c, 2, 69, 41
2, 16650, Note_on_c, 2, 70, 0
2, 16669, Note_on_c, 2, 72, 40
2, 16676, Note_on_c, 2, 69, 0
2, 16676, Control_c, 2, 64, 127
2, 16698, Note_on_c, 2, 70, 46
2, 16702, Note_on_c, 2, 72, 0
2, 16720, Note_on_c, 2, 60, 0
2, 16721, Note_on_c, 2, 69, 39
2, 16724, Note_on_c, 2, 63, 0
2, 16728, Note_on_c, 2, 70, 0
2, 16747, Note_on_c, 2, 75, 39
2, 16773, Note_on_c, 2, 72, 39
2, 16776, Note_on_c, 2, 75, 0
2, 16776, Note_on_c, 2, 65, 23
2, 16780, Note_on_c, 2, 69, 0
2, 16780, Note_on_c, 2, 62, 38
2, 16795, Control_c, 2, 64, 0
2, 16798, Note_on_c, 2, 70, 45
2, 16802, Note_on_c, 2, 72, 0
2, 16828, Note_on_c, 2, 74, 48
2, 16836, Note_on_c, 2, 70, 0
2, 16854, Note_on_c, 2, 72, 48
2, 16858, Note_on_c, 2, 74, 0
2, 16880, Note_on_c, 2, 70, 49
2, 16884, Note_on_c, 2, 72, 0
2, 16902, Note_on_c, 2, 77, 53
2, 16932, Note_on_c, 2, 74, 53
2, 16936, Note_on_c, 2, 77, 0
2, 16940, Control_c, 2, 64, 127
2, 16992, Note_on_c, 2, 70, 0
2, 17006, Note_on_c, 2, 65, 0
2, 17006, Note_on_c, 2, 74, 0
2, 17014, Note_on_c, 2, 62, 0
2, 17095, Note_on_c, 2, 70, 25
2, 17099, Control_c, 2, 64, 0
2, 17102, Note_on_c, 2, 75, 44
2, 17103, Note_on_c, 2, 63, 32
2, 17106, Note_on_c, 2, 51, 40
2, 17106, Note_on_c, 2, 79, 56
2, 17118, Note_on_c, 2, 63, 0
2, 17118, Note_on_c, 2, 70, 0
2, 17120, Note_on_c, 2, 75, 0
2, 17121, Control_c, 2, 64, 127
2, 17124, Note_on_c, 2, 51, 0
2, 17125, Note_on_c, 2, 79, 0
2, 17132, Control_c, 2, 64, 0
2, 17184, Note_on_c, 2, 70, 32
2, 17188, Note_on_c, 2, 58, 41
2, 17188, Note_on_c, 2, 46, 40
2, 17188, Note_on_c, 2, 74, 25
2, 17191, Note_on_c, 2, 77, 55
2, 17195, Control_c, 2, 64, 127
2, 17199, Note_on_c, 2, 74, 0
2, 17206, Note_on_c, 2, 70, 0
2, 17236, Note_on_c, 2, 77, 0
2, 17273, Note_on_c, 2, 77, 50
2, 17291, Note_on_c, 2, 82, 59
2, 17302, Note_on_c, 2, 77, 0
2, 17310, Note_on_c, 2, 82, 0
2, 17310, Note_on_c, 2, 81, 60
2, 17332, Note_on_c, 2, 82, 49
2, 17343, Note_on_c, 2, 81, 0
2, 17351, Note_on_c, 2, 86, 56
2, 17358, Note_on_c, 2, 82, 0
2, 17362, Note_on_c, 2, 58, 0
2, 17373, Note_on_c, 2, 86, 0
2, 17373, Note_on_c, 2, 82, 60
2, 17377, Note_on_c, 2, 46, 0
2, 17391, Note_on_c, 2, 82, 0
2, 17392, Note_on_c, 2, 81, 48
2, 17414, Note_on_c, 2, 82, 47
2, 17421, Note_on_c, 2, 81, 0
2, 17425, Note_on_c, 2, 82, 0
2, 17436, Note_on_c, 2, 41, 48
2, 17436, Note_on_c, 2, 53, 41
2, 17440, Note_on_c, 2, 74, 47
2, 17440, Note_on_c, 2, 77, 57
2, 17447, Note_on_c, 2, 74, 0
2, 17448, Note_on_c, 2, 77, 0
2, 17448, Control_c, 2, 64, 0
2, 17450, Note_on_c, 2, 41, 0
2, 17454, Note_on_c, 2, 53, 0
2, 17481, Note_on_c, 2, 72, 55
2, 17481, Note_on_c, 2, 75, 65
2, 17492, Note_on_c, 2, 75, 0
2, 17495, Note_on_c, 2, 72, 0
2, 17532, Note_on_c, 2, 58, 36
2, 17536, Note_on_c, 2, 70, 32
2, 17536, Note_on_c, 2, 46, 32
2, 17536, Note_on_c, 2, 74, 47
2, 17558, Control_c, 2, 64, 127
2, 17695, Note_on_c, 2, 58, 0
2, 17706, Note_on_c, 2, 70, 0
2, 17706, Note_on_c, 2, 74, 0
2, 17724, Note_on_c, 2, 46, 0
2, 17821, Control_c, 2, 64, 0
2, 17866, Note_on_c, 2, 46, 38
2, 17866, Note_on_c, 2, 50, 41
2, 17873, Note_on_c, 2, 58, 42
2, 17881, Control_c, 2, 64, 127
2, 17892, Note_on_c, 2, 60, 55
2, 17895, Note_on_c, 2, 58, 0
2, 17910, Note_on_c, 2, 58, 55
2, 17914, Note_on_c, 2, 60, 0
2, 17929, Note_on_c, 2, 60, 53
2, 17932, Note_on_c, 2, 58, 0
2, 17950, Note_on_c, 2, 60, 0
2, 17951, Note_on_c, 2, 58, 60
2, 17958, Note_on_c, 2, 46, 0
2, 17965, Note_on_c, 2, 50, 0
2, 17977, Note_on_c, 2, 60, 46
2, 17981, Note_on_c, 2, 58, 0
2, 17999, Note_on_c, 2, 60, 0
2, 17999, Note_on_c, 2, 62, 46
2, 18021, Note_on_c, 2, 58, 39
2, 18025, Note_on_c, 2, 62, 0
2, 18025, Note_on_c, 2, 48, 44
2, 18025, Note_on_c, 2, 51, 32
2, 18036, Control_c, 2, 64, 0
2, 18047, Note_on_c, 2, 57, 45
2, 18054, Note_on_c, 2, 58, 0
2, 18073, Note_on_c, 2, 60, 44
2, 18084, Note_on_c, 2, 57, 0
2, 18096, Control_c, 2, 64, 127
2, 18100, Note_on_c, 2, 58, 45
2, 18106, Note_on_c, 2, 60, 0
2, 18122, Note_on_c, 2, 51, 0
2, 18122, Note_on_c, 2, 57, 36
2, 18129, Note_on_c, 2, 48, 0
2, 18136, Note_on_c, 2, 58, 0
2, 18151, Note_on_c, 2, 63, 40
2, 18177, Note_on_c, 2, 60, 38
2, 18177, Note_on_c, 2, 53, 21
2, 18181, Note_on_c, 2, 50, 32
2, 18184, Note_on_c, 2, 63, 0
2, 18184, Control_c, 2, 64, 0
2, 18203, Note_on_c, 2, 58, 37
2, 18210, Note_on_c, 2, 60, 0
2, 18214, Note_on_c, 2, 57, 0
2, 18229, Note_on_c, 2, 62, 48
2, 18236, Note_on_c, 2, 58, 0
2, 18254, Note_on_c, 2, 60, 46
2, 18262, Note_on_c, 2, 62, 0
2, 18281, Note_on_c, 2, 58, 46
2, 18288, Note_on_c, 2, 60, 0
2, 18303, Note_on_c, 2, 65, 54
2, 18336, Note_on_c, 2, 65, 0
2, 18336, Note_on_c, 2, 62, 46
2, 18362, Control_c, 2, 64, 127
2, 18396, Note_on_c, 2, 50, 0
2, 18399, Note_on_c, 2, 58, 0
2, 18399, Note_on_c, 2, 53, 0
2, 18418, Note_on_c, 2, 62, 0
2, 18477, Note_on_c, 2, 51, 37
2, 18484, Note_on_c, 2, 55, 40
2, 18492, Control_c, 2, 64, 0
2, 18495, Note_on_c, 2, 60, 39
2, 18503, Note_on_c, 2, 67, 53
2, 18525, Note_on_c, 2, 72, 48
2, 18533, Control_c, 2, 64, 127
2, 18536, Note_on_c, 2, 67, 0
2, 18547, Note_on_c, 2, 75, 55
2, 18555, Note_on_c, 2, 72, 0
2, 18574, Note_on_c, 2, 75, 0
2, 18574, Note_on_c, 2, 72, 57
2, 18592, Note_on_c, 2, 51, 0
2, 18596, Note_on_c, 2, 55, 0
2, 18596, Note_on_c, 2, 75, 46
2, 18610, Note_on_c, 2, 60, 0
2, 18610, Note_on_c, 2, 72, 0
2, 18625, Note_on_c, 2, 75, 0
2, 18625, Note_on_c, 2, 79, 46
2, 18636, Note_on_c, 2, 79, 0
2, 18647, Note_on_c, 2, 53, 53
2, 18647, Note_on_c, 2, 79, 54
2, 18651, Note_on_c, 2, 62, 48
2, 18652, Control_c, 2, 64, 0
2, 18670, Control_c, 2, 64, 127
2, 18674, Note_on_c, 2, 77, 57
2, 18677, Note_on_c, 2, 79, 0
2, 18681, Note_on_c, 2, 53, 0
2, 18684, Note_on_c, 2, 62, 0
2, 18692, Note_on_c, 2, 75, 57
2, 18696, Note_on_c, 2, 77, 0
2, 18714, Note_on_c, 2, 74, 56
2, 18718, Note_on_c, 2, 75, 0
2, 18725, Note_on_c, 2, 74, 0
2, 18732, Note_on_c, 2, 63, 45
2, 18732, Note_on_c, 2, 53, 45
2, 18734, Note_on_c, 2, 74, 53
2, 18740, Control_c, 2, 64, 0
2, 18747, Note_on_c, 2, 74, 0
2, 18748, Note_on_c, 2, 72, 57
2, 18755, Control_c, 2, 64, 127
2, 18770, Note_on_c, 2, 70, 66
2, 18773, Note_on_c, 2, 72, 0
2, 18792, Note_on_c, 2, 70, 0
2, 18792, Note_on_c, 2, 63, 0
2, 18792, Note_on_c, 2, 69, 63
2, 18799, Note_on_c, 2, 53, 0
2, 18814, Note_on_c, 2, 62, 45
2, 18814, Note_on_c, 2, 70, 68
2, 18818, Note_on_c, 2, 69, 0
2, 18818, Note_on_c, 2, 58, 49
2, 18822, Control_c, 2, 64, 0
2, 18840, Control_c, 2, 64, 127
2, 18844, Note_on_c, 2, 58, 0
2, 18844, Note_on_c, 2, 62, 0
2, 18858, Note_on_c, 2, 58, 37
2, 18858, Note_on_c, 2, 62, 29
2, 18877, Note_on_c, 2, 62, 0
2, 18877, Note_on_c, 2, 58, 0
2, 18899, Note_on_c, 2, 62, 40
2, 18899, Note_on_c, 2, 58, 45
2, 18914, Note_on_c, 2, 62, 0
2, 18918, Note_on_c, 2, 58, 0
2, 18944, Note_on_c, 2, 62, 32
2, 18944, Note_on_c, 2, 58, 40
2, 18955, Note_on_c, 2, 58, 0
2, 18959, Note_on_c, 2, 62, 0
2, 18984, Note_on_c, 2, 62, 36
2, 18984, Note_on_c, 2, 58, 40
2, 18996, Note_on_c, 2, 62, 0
2, 18996, Note_on_c, 2, 70, 0
2, 18999, Note_on_c, 2, 58, 0
2, 19025, Note_on_c, 2, 62, 40
2, 19025, Note_on_c, 2, 58, 37
2, 19025, Note_on_c, 2, 70, 45
2, 19040, Note_on_c, 2, 58, 0
2, 19044, Note_on_c, 2, 70, 0
2, 19044, Note_on_c, 2, 62, 0
2, 19070, Note_on_c, 2, 58, 34
2, 19070, Note_on_c, 2, 62, 35
2, 19074, Note_on_c, 2, 69, 53
2, 19081, Note_on_c, 2, 62, 0
2, 19081, Note_on_c, 2, 58, 0
2, 19085, Note_on_c, 2, 69, 0
2, 19114, Note_on_c, 2, 68, 49
2, 19114, Note_on_c, 2, 58, 45
2, 19116, Note_on_c, 2, 62, 36
2, 19121, Note_on_c, 2, 62, 0
2, 19121, Note_on_c, 2, 68, 0
2, 19125, Note_on_c, 2, 58, 0
2, 19158, Note_on_c, 2, 63, 57
2, 19158, Note_on_c, 2, 58, 54
2, 19160, Note_on_c, 2, 67, 56
2, 19162, Control_c, 2, 64, 0
2, 19181, Control_c, 2, 64, 127
2, 19188, Note_on_c, 2, 63, 0
2, 19192, Note_on_c, 2, 58, 0
2, 19203, Note_on_c, 2, 63, 47
2, 19203, Note_on_c, 2, 58, 46
2, 19207, Note_on_c, 2, 69, 50
2, 19214, Note_on_c, 2, 67, 0
2, 19218, Note_on_c, 2, 63, 0
2, 19222, Note_on_c, 2, 58, 0
2, 19225, Note_on_c, 2, 70, 59
2, 19229, Note_on_c, 2, 69, 0
2, 19240, Note_on_c, 2, 70, 0
2, 19244, Note_on_c, 2, 63, 45
2, 19244, Note_on_c, 2, 58, 40
2, 19245, Note_on_c, 2, 72, 56
2, 19262, Note_on_c, 2, 74, 43
2, 19266, Note_on_c, 2, 58, 0
2, 19266, Note_on_c, 2, 63, 0
2, 19270, Note_on_c, 2, 72, 0
2, 19284, Note_on_c, 2, 63, 38
2, 19284, Note_on_c, 2, 75, 54
2, 19286, Note_on_c, 2, 58, 40
2, 19288, Note_on_c, 2, 74, 0
2, 19303, Note_on_c, 2, 63, 0
2, 19303, Note_on_c, 2, 75, 0
2, 19303, Note_on_c, 2, 58, 0
2, 19303, Note_on_c, 2, 77, 54
2, 19322, Note_on_c, 2, 63, 39
2, 19326, Note_on_c, 2, 58, 42
2, 19326, Note_on_c, 2, 79, 45
2, 19333, Note_on_c, 2, 77, 0
2, 19333, Control_c, 2, 64, 0
2, 19344, Note_on_c, 2, 63, 0
2, 19348, Note_on_c, 2, 58, 0
2, 19348, Note_on_c, 2, 81, 49
2, 19352, Control_c, 2, 64, 127
2, 19355, Note_on_c, 2, 79, 0
2, 19363, Note_on_c, 2, 63, 39
2, 19366, Note_on_c, 2, 58, 45
2, 19366, Note_on_c, 2, 82, 48
2, 19370, Note_on_c, 2, 81, 0
2, 19381, Note_on_c, 2, 63, 0
2, 19381, Note_on_c, 2, 58, 0
2, 19392, Note_on_c, 2, 82, 0
2, 19392, Note_on_c, 2, 81, 65
2, 19410, Note_on_c, 2, 63, 30
2, 19410, Note_on_c, 2, 82, 54
2, 19412, Note_on_c, 2, 58, 40
2, 19414, Note_on_c, 2, 81, 0
2, 19429, Note_on_c, 2, 63, 0
2, 19429, Note_on_c, 2, 58, 0
2, 19433, Note_on_c, 2, 81, 57
2, 19436, Note_on_c, 2, 82, 0
2, 19451, Note_on_c, 2, 63, 42
2, 19455, Note_on_c, 2, 58, 37
2, 19455, Note_on_c, 2, 82, 54
2, 19459, Note_on_c, 2, 81, 0
2, 19474, Note_on_c, 2, 63, 0
2, 19477, Note_on_c, 2, 79, 56
2, 19488, Note_on_c, 2, 82, 0
2, 19499, Control_c, 2, 64, 0
2, 19499, Note_on_c, 2, 62, 45
2, 19503, Note_on_c, 2, 77, 54
2, 19507, Note_on_c, 2, 79, 0
2, 19518, Control_c, 2, 64, 127
2, 19525, Note_on_c, 2, 62, 0
2, 19526, Note_on_c, 2, 58, 0
2, 19544, Note_on_c, 2, 62, 40
2, 19544, Note_on_c, 2, 58, 42
2, 19563, Note_on_c, 2, 62, 0
2, 19566, Note_on_c, 2, 58, 0
2, 19588, Note_on_c, 2, 58, 46
2, 19588, Note_on_c, 2, 62, 45
2, 19603, Note_on_c, 2, 62, 0
2, 19607, Note_on_c, 2, 58, 0
2, 19630, Note_on_c, 2, 58, 54
2, 19630, Note_on_c, 2, 62, 46
2, 19644, Note_on_c, 2, 62, 0
2, 19648, Note_on_c, 2, 58, 0
2, 19659, Note_on_c, 2, 77, 0
2, 19674, Note_on_c, 2, 58, 45
2, 19674, Note_on_c, 2, 62, 41
2, 19688, Note_on_c, 2, 62, 0
2, 19688, Note_on_c, 2, 58, 0
2, 19714, Note_on_c, 2, 62, 41
2, 19714, Note_on_c, 2, 70, 65
2, 19716, Note_on_c, 2, 58, 45
2, 19726, Note_on_c, 2, 58, 0
2, 19729, Note_on_c, 2, 62, 0
2, 19733, Note_on_c, 2, 70, 0
2, 19756, Note_on_c, 2, 62, 40
2, 19759, Note_on_c, 2, 58, 45
2, 19759, Note_on_c, 2, 69, 46
2, 19770, Note_on_c, 2, 69, 0
2, 19770, Note_on_c, 2, 58, 0
2, 19770, Note_on_c, 2, 62, 0
2, 19803, Note_on_c, 2, 68, 55
2, 19803, Note_on_c, 2, 62, 42
2, 19803, Note_on_c, 2, 58, 52
2, 19811, Note_on_c, 2, 62, 0
2, 19815, Note_on_c, 2, 58, 0
2, 19815, Note_on_c, 2, 68, 0
2, 19848, Note_on_c, 2, 63, 65
2, 19848, Note_on_c, 2, 58, 49
2, 19852, Note_on_c, 2, 67, 66
2, 19852, Control_c, 2, 64, 0
2, 19866, Control_c, 2, 64, 127
2, 19878, Note_on_c, 2, 58, 0
2, 19878, Note_on_c, 2, 63, 0
2, 19896, Note_on_c, 2, 63, 47
2, 19896, Note_on_c, 2, 58, 46
2, 19900, Note_on_c, 2, 69, 54
2, 19903, Note_on_c, 2, 67, 0
2, 19910, Note_on_c, 2, 58, 0
2, 19915, Note_on_c, 2, 63, 0
2, 19918, Note_on_c, 2, 70, 62
2, 19922, Note_on_c, 2, 69, 0
2, 19937, Note_on_c, 2, 70, 0
2, 19937, Note_on_c, 2, 58, 45
2, 19937, Note_on_c, 2, 63, 44
2, 19941, Note_on_c, 2, 72, 52
2, 19956, Note_on_c, 2, 58, 0
2, 19958, Note_on_c, 2, 63, 0
2, 19959, Note_on_c, 2, 74, 45
2, 19966, Note_on_c, 2, 72, 0
2, 19977, Note_on_c, 2, 75, 56
2, 19981, Note_on_c, 2, 63, 43
2, 19982, Note_on_c, 2, 58, 47
2, 19985, Note_on_c, 2, 74, 0
2, 19996, Note_on_c, 2, 75, 0
2, 20000, Note_on_c, 2, 63, 0
2, 20000, Note_on_c, 2, 58, 0
2, 20000, Note_on_c, 2, 77, 54
2, 20022, Note_on_c, 2, 63, 42
2, 20022, Note_on_c, 2, 58, 42
2, 20022, Note_on_c, 2, 79, 56
2, 20029, Note_on_c, 2, 77, 0
2, 20037, Note_on_c, 2, 63, 0
2, 20040, Note_on_c, 2, 58, 0
2, 20044, Note_on_c, 2, 81, 52
2, 20051, Note_on_c, 2, 79, 0
2, 20062, Note_on_c, 2, 63, 36
2, 20062, Note_on_c, 2, 82, 54
2, 20062, Note_on_c, 2, 58, 39
2, 20066, Note_on_c, 2, 81, 0
2, 20074, Note_on_c, 2, 63, 0
2, 20077, Note_on_c, 2, 58, 0
2, 20085, Note_on_c, 2, 81, 70
2, 20088, Note_on_c, 2, 82, 0
2, 20103, Note_on_c, 2, 63, 47
2, 20107, Note_on_c, 2, 81, 0
2, 20107, Note_on_c, 2, 58, 44
2, 20107, Note_on_c, 2, 82, 48
2, 20118, Note_on_c, 2, 58, 0
2, 20118, Note_on_c, 2, 63, 0
2, 20126, Note_on_c, 2, 82, 0
2, 20126, Note_on_c, 2, 81, 56
2, 20144, Note_on_c, 2, 63, 46
2, 20144, Note_on_c, 2, 82, 56
2, 20148, Note_on_c, 2, 58, 41
2, 20151, Note_on_c, 2, 81, 0
2, 20155, Note_on_c, 2, 58, 0
2, 20159, Note_on_c, 2, 63, 0
2, 20166, Note_on_c, 2, 79, 50
2, 20174, Note_on_c, 2, 82, 0
2, 20189, Note_on_c, 2, 63, 48
2, 20189, Note_on_c, 2, 58, 42
2, 20190, Note_on_c, 2, 77, 68
2, 20192, Note_on_c, 2, 79, 0
2, 20196, Note_on_c, 2, 58, 0
2, 20203, Note_on_c, 2, 63, 0
2, 20229, Note_on_c, 2, 77, 0
2, 20233, Note_on_c, 2, 58, 49
2, 20281, Note_on_c, 2, 62, 47
2, 20285, Control_c, 2, 64, 0
2, 20304, Note_on_c, 2, 82, 59
2, 20322, Note_on_c, 2, 65, 53
2, 20322, Note_on_c, 2, 84, 53
2, 20326, Note_on_c, 2, 82, 0
2, 20330, Note_on_c, 2, 58, 0
2, 20344, Note_on_c, 2, 82, 68
2, 20356, Note_on_c, 2, 84, 0
2, 20363, Note_on_c, 2, 58, 55
2, 20367, Note_on_c, 2, 62, 0
2, 20367, Note_on_c, 2, 82, 0
2, 20367, Note_on_c, 2, 65, 0
2, 20367, Note_on_c, 2, 86, 59
2, 20385, Note_on_c, 2, 84, 56
2, 20396, Note_on_c, 2, 86, 0
2, 20408, Note_on_c, 2, 82, 66
2, 20415, Note_on_c, 2, 84, 0
2, 20418, Control_c, 2, 64, 127
2, 20430, Note_on_c, 2, 81, 62
2, 20440, Note_on_c, 2, 82, 0
2, 20452, Note_on_c, 2, 81, 0
2, 20452, Note_on_c, 2, 79, 66
2, 20470, Note_on_c, 2, 77, 55
2, 20477, Note_on_c, 2, 79, 0
2, 20493, Note_on_c, 2, 75, 70
2, 20496, Control_c, 2, 64, 0
2, 20500, Note_on_c, 2, 77, 0
2, 20511, Note_on_c, 2, 75, 0
2, 20515, Note_on_c, 2, 74, 68
2, 20515, Control_c, 2, 64, 127
2, 20522, Note_on_c, 2, 58, 0
2, 20537, Note_on_c, 2, 75, 96
2, 20544, Note_on_c, 2, 74, 0
2, 20581, Note_on_c, 2, 53, 55
2, 20592, Note_on_c, 2, 75, 0
2, 20626, Note_on_c, 2, 57, 57
2, 20648, Note_on_c, 2, 81, 72
2, 20663, Control_c, 2, 64, 0
2, 20666, Note_on_c, 2, 60, 55
2, 20670, Note_on_c, 2, 53, 0
2, 20670, Note_on_c, 2, 82, 59
2, 20674, Note_on_c, 2, 81, 0
2, 20689, Note_on_c, 2, 81, 70
2, 20696, Note_on_c, 2, 82, 0
2, 20708, Note_on_c, 2, 60, 0
2, 20711, Note_on_c, 2, 57, 0
2, 20711, Note_on_c, 2, 53, 60
2, 20711, Note_on_c, 2, 84, 50
2, 20715, Note_on_c, 2, 81, 0
2, 20730, Control_c, 2, 64, 127
2, 20734, Note_on_c, 2, 82, 70
2, 20741, Note_on_c, 2, 84, 0
2, 20756, Note_on_c, 2, 81, 63
2, 20761, Note_on_c, 2, 53, 0
2, 20763, Note_on_c, 2, 82, 0
2, 20778, Note_on_c, 2, 81, 0
2, 20778, Note_on_c, 2, 79, 68
2, 20796, Note_on_c, 2, 77, 57
2, 20808, Note_on_c, 2, 79, 0
2, 20819, Note_on_c, 2, 75, 62
2, 20822, Note_on_c, 2, 77, 0
2, 20840, Note_on_c, 2, 75, 0
2, 20841, Note_on_c, 2, 74, 63
2, 20863, Note_on_c, 2, 72, 63
2, 20870, Note_on_c, 2, 74, 0
2, 20885, Note_on_c, 2, 74, 59
2, 20889, Note_on_c, 2, 72, 0
2, 20918, Control_c, 2, 64, 0
2, 20926, Note_on_c, 2, 34, 59
2, 20926, Note_on_c, 2, 46, 70
2, 20930, Control_c, 2, 64, 127
2, 20937, Note_on_c, 2, 34, 0
2, 20940, Note_on_c, 2, 46, 0
2, 20970, Note_on_c, 2, 38, 66
2, 20971, Note_on_c, 2, 50, 59
2, 20982, Note_on_c, 2, 50, 0
2, 20982, Note_on_c, 2, 38, 0
2, 20993, Note_on_c, 2, 77, 48
2, 21012, Note_on_c, 2, 77, 0
2, 21015, Note_on_c, 2, 41, 55
2, 21015, Note_on_c, 2, 53, 48
2, 21016, Note_on_c, 2, 79, 40
2, 21019, Note_on_c, 2, 74, 0
2, 21022, Note_on_c, 2, 53, 0
2, 21026, Note_on_c, 2, 41, 0
2, 21034, Note_on_c, 2, 77, 54
2, 21037, Note_on_c, 2, 79, 0
2, 21056, Note_on_c, 2, 38, 66
2, 21056, Note_on_c, 2, 50, 56
2, 21059, Note_on_c, 2, 77, 0
2, 21059, Note_on_c, 2, 82, 62
2, 21060, Control_c, 2, 64, 0
2, 21078, Note_on_c, 2, 81, 59
2, 21086, Control_c, 2, 64, 127
2, 21092, Note_on_c, 2, 82, 0
2, 21100, Note_on_c, 2, 79, 56
2, 21107, Note_on_c, 2, 81, 0
2, 21122, Note_on_c, 2, 79, 0
2, 21122, Note_on_c, 2, 77, 68
2, 21130, Note_on_c, 2, 38, 0
2, 21137, Note_on_c, 2, 50, 0
2, 21141, Note_on_c, 2, 77, 0
2, 21144, Note_on_c, 2, 75, 66
2, 21163, Note_on_c, 2, 74, 57
2, 21167, Note_on_c, 2, 75, 0
2, 21185, Note_on_c, 2, 74, 0
2, 21185, Note_on_c, 2, 72, 66
2, 21193, Note_on_c, 2, 72, 0
2, 21204, Note_on_c, 2, 50, 59
2, 21204, Note_on_c, 2, 53, 44
2, 21204, Note_on_c, 2, 55, 45
2, 21206, Note_on_c, 2, 71, 50
2, 21211, Note_on_c, 2, 55, 0
2, 21211, Note_on_c, 2, 50, 0
2, 21211, Note_on_c, 2, 53, 0
2, 21226, Note_on_c, 2, 51, 72
2, 21226, Note_on_c, 2, 55, 56
2, 21226, Note_on_c, 2, 74, 56
2, 21230, Note_on_c, 2, 71, 0
2, 21248, Note_on_c, 2, 74, 0
2, 21252, Note_on_c, 2, 72, 62
2, 21267, Control_c, 2, 64, 0
2, 21271, Note_on_c, 2, 75, 66
2, 21293, Note_on_c, 2, 74, 56
2, 21296, Note_on_c, 2, 75, 0
2, 21308, Note_on_c, 2, 72, 0
2, 21311, Note_on_c, 2, 77, 54
2, 21319, Note_on_c, 2, 74, 0
2, 21334, Note_on_c, 2, 75, 63
2, 21341, Note_on_c, 2, 77, 0
2, 21346, Note_on_c, 2, 51, 0
2, 21346, Note_on_c, 2, 55, 0
2, 21356, Note_on_c, 2, 75, 0
2, 21356, Note_on_c, 2, 79, 55
2, 21370, Note_on_c, 2, 78, 55
2, 21378, Note_on_c, 2, 79, 0
2, 21385, Control_c, 2, 64, 127
2, 21397, Note_on_c, 2, 79, 53
2, 21400, Note_on_c, 2, 78, 0
2, 21415, Note_on_c, 2, 77, 56
2, 21422, Note_on_c, 2, 79, 0
2, 21437, Note_on_c, 2, 75, 59
2, 21444, Note_on_c, 2, 77, 0
2, 21463, Note_on_c, 2, 74, 56
2, 21470, Note_on_c, 2, 75, 0
2, 21482, Note_on_c, 2, 74, 0
2, 21482, Note_on_c, 2, 72, 60
2, 21500, Note_on_c, 2, 72, 0
2, 21500, Note_on_c, 2, 70, 63
2, 21522, Note_on_c, 2, 70, 0
2, 21522, Note_on_c, 2, 52, 48
2, 21522, Note_on_c, 2, 55, 46
2, 21522, Note_on_c, 2, 69, 53
2, 21537, Note_on_c, 2, 55, 0
2, 21537, Note_on_c, 2, 52, 0
2, 21545, Note_on_c, 2, 69, 0
2, 21545, Note_on_c, 2, 70, 62
2, 21567, Note_on_c, 2, 70, 0
2, 21567, Note_on_c, 2, 53, 65
2, 21567, Note_on_c, 2, 57, 56
2, 21568, Note_on_c, 2, 69, 55
2, 21574, Control_c, 2, 64, 0
2, 21589, Note_on_c, 2, 70, 63
2, 21608, Note_on_c, 2, 69, 0
2, 21608, Note_on_c, 2, 72, 55
2, 21612, Note_on_c, 2, 70, 0
2, 21612, Control_c, 2, 64, 127
2, 21630, Note_on_c, 2, 74, 50
2, 21637, Note_on_c, 2, 72, 0
2, 21652, Note_on_c, 2, 76, 54
2, 21656, Note_on_c, 2, 74, 0
2, 21656, Note_on_c, 2, 57, 0
2, 21663, Note_on_c, 2, 76, 0
2, 21671, Note_on_c, 2, 53, 0
2, 21674, Note_on_c, 2, 77, 47
2, 21692, Note_on_c, 2, 77, 0
2, 21697, Note_on_c, 2, 76, 55
2, 21719, Note_on_c, 2, 76, 0
2, 21719, Note_on_c, 2, 77, 57
2, 21737, Note_on_c, 2, 45, 55
2, 21738, Note_on_c, 2, 65, 50
2, 21741, Note_on_c, 2, 77, 0
2, 21749, Control_c, 2, 64, 0
2, 21760, Note_on_c, 2, 46, 53
2, 21764, Note_on_c, 2, 45, 0
2, 21764, Control_c, 2, 64, 127
2, 21778, Note_on_c, 2, 48, 59
2, 21782, Note_on_c, 2, 46, 0
2, 21800, Note_on_c, 2, 50, 54
2, 21808, Note_on_c, 2, 48, 0
2, 21818, Note_on_c, 2, 50, 0
2, 21819, Note_on_c, 2, 52, 66
2, 21826, Control_c, 2, 64, 0
2, 21841, Note_on_c, 2, 53, 62
2, 21848, Note_on_c, 2, 52, 0
2, 21864, Note_on_c, 2, 53, 0
2, 21864, Note_on_c, 2, 52, 52
2, 21867, Control_c, 2, 64, 127
2, 21882, Note_on_c, 2, 53, 56
2, 21889, Note_on_c, 2, 52, 0
2, 21893, Note_on_c, 2, 53, 0
2, 21908, Note_on_c, 2, 41, 66
2, 21918, Control_c, 2, 64, 0
2, 21956, Control_c, 2, 64, 127
2, 21962, Note_on_c, 2, 41, 0
2, 21974, Note_on_c, 2, 65, 0
2, 22037, Control_c, 2, 64, 0
2, 22052, Note_on_c, 2, 84, 37
2, 22070, Note_on_c, 2, 84, 0
2, 22097, Note_on_c, 2, 84, 44
2, 22112, Note_on_c, 2, 84, 0
2, 22141, Note_on_c, 2, 84, 33
2, 22156, Note_on_c, 2, 84, 0
2, 22186, Note_on_c, 2, 84, 38
2, 22200, Note_on_c, 2, 84, 0
2, 22230, Note_on_c, 2, 84, 45
2, 22245, Note_on_c, 2, 84, 0
2, 22278, Note_on_c, 2, 84, 48
2, 22278, Note_on_c, 2, 53, 28
2, 22312, Control_c, 2, 64, 127
2, 22323, Note_on_c, 2, 60, 43
2, 22360, Note_on_c, 2, 60, 0
2, 22360, Note_on_c, 2, 57, 40
2, 22393, Note_on_c, 2, 53, 0
2, 22401, Note_on_c, 2, 60, 44
2, 22401, Note_on_c, 2, 82, 39
2, 22408, Note_on_c, 2, 57, 0
2, 22411, Note_on_c, 2, 84, 0
2, 22419, Note_on_c, 2, 81, 34
2, 22426, Note_on_c, 2, 82, 0
2, 22441, Note_on_c, 2, 60, 0
2, 22441, Note_on_c, 2, 55, 42
2, 22441, Note_on_c, 2, 79, 54
2, 22445, Note_on_c, 2, 81, 0
2, 22456, Control_c, 2, 64, 0
2, 22482, Note_on_c, 2, 77, 45
2, 22482, Note_on_c, 2, 60, 39
2, 22489, Note_on_c, 2, 79, 0
2, 22501, Control_c, 2, 64, 127
2, 22523, Note_on_c, 2, 77, 0
2, 22523, Note_on_c, 2, 76, 39
2, 22523, Note_on_c, 2, 58, 40
2, 22526, Note_on_c, 2, 60, 0
2, 22534, Note_on_c, 2, 55, 0
2, 22560, Note_on_c, 2, 60, 38
2, 22564, Note_on_c, 2, 76, 0
2, 22564, Note_on_c, 2, 79, 50
2, 22570, Note_on_c, 2, 58, 0
2, 22604, Note_on_c, 2, 79, 0
2, 22604, Note_on_c, 2, 57, 41
2, 22605, Note_on_c, 2, 77, 46
2, 22608, Control_c, 2, 64, 0
2, 22630, Note_on_c, 2, 60, 0
2, 22645, Note_on_c, 2, 53, 39
2, 22690, Note_on_c, 2, 77, 0
2, 22690, Note_on_c, 2, 60, 44
2, 22690, Note_on_c, 2, 72, 42
2, 22693, Note_on_c, 2, 57, 0
2, 22697, Note_on_c, 2, 53, 0
2, 22730, Note_on_c, 2, 84, 54
2, 22738, Note_on_c, 2, 72, 0
2, 22745, Note_on_c, 2, 84, 0
2, 22745, Note_on_c, 2, 60, 0
2, 22771, Note_on_c, 2, 84, 52
2, 22782, Note_on_c, 2, 84, 0
2, 22812, Note_on_c, 2, 84, 45
2, 22823, Note_on_c, 2, 84, 0
2, 22856, Note_on_c, 2, 84, 45
2, 22867, Note_on_c, 2, 84, 0
2, 22897, Note_on_c, 2, 84, 47
2, 22912, Note_on_c, 2, 84, 0
2, 22945, Note_on_c, 2, 84, 52
2, 22945, Note_on_c, 2, 53, 34
2, 22989, Note_on_c, 2, 60, 38
2, 22993, Control_c, 2, 64, 127
2, 23026, Note_on_c, 2, 57, 43
2, 23030, Note_on_c, 2, 60, 0
2, 23041, Note_on_c, 2, 53, 0
2, 23068, Note_on_c, 2, 60, 51
2, 23071, Note_on_c, 2, 82, 54
2, 23075, Note_on_c, 2, 57, 0
2, 23079, Note_on_c, 2, 84, 0
2, 23090, Note_on_c, 2, 81, 53
2, 23097, Note_on_c, 2, 82, 0
2, 23108, Note_on_c, 2, 81, 0
2, 23108, Note_on_c, 2, 52, 48
2, 23108, Note_on_c, 2, 79, 65
2, 23112, Note_on_c, 2, 60, 0
2, 23112, Control_c, 2, 64, 0
2, 23149, Note_on_c, 2, 60, 54
2, 23149, Note_on_c, 2, 81, 59
2, 23164, Note_on_c, 2, 79, 0
2, 23164, Control_c, 2, 64, 127
2, 23186, Note_on_c, 2, 60, 0
2, 23186, Note_on_c, 2, 55, 46
2, 23186, Note_on_c, 2, 82, 65
2, 23193, Note_on_c, 2, 81, 0
2, 23223, Note_on_c, 2, 60, 57
2, 23227, Note_on_c, 2, 52, 0
2, 23227, Note_on_c, 2, 82, 0
2, 23227, Note_on_c, 2, 79, 66
2, 23230, Note_on_c, 2, 55, 0
2, 23268, Note_on_c, 2, 53, 55
2, 23268, Note_on_c, 2, 81, 54
2, 23271, Note_on_c, 2, 60, 0
2, 23275, Note_on_c, 2, 79, 0
2, 23275, Control_c, 2, 64, 0
2, 23312, Note_on_c, 2, 57, 46
2, 23356, Note_on_c, 2, 60, 54
2, 23379, Control_c, 2, 64, 127
2, 23397, Note_on_c, 2, 84, 65
2, 23412, Note_on_c, 2, 81, 0
2, 23416, Note_on_c, 2, 84, 0
2, 23438, Note_on_c, 2, 84, 59
2, 23453, Note_on_c, 2, 84, 0
2, 23479, Note_on_c, 2, 84, 68
2, 23489, Note_on_c, 2, 84, 0
2, 23523, Note_on_c, 2, 84, 79
2, 23534, Note_on_c, 2, 84, 0
2, 23534, Note_on_c, 2, 60, 0
2, 23538, Note_on_c, 2, 57, 0
2, 23538, Note_on_c, 2, 53, 0
2, 23564, Note_on_c, 2, 85, 68
2, 23608, Note_on_c, 2, 86, 62
2, 23608, Note_on_c, 2, 58, 51
2, 23608, Note_on_c, 2, 46, 56
2, 23612, Control_c, 2, 64, 0
2, 23615, Note_on_c, 2, 85, 0
2, 23623, Note_on_c, 2, 86, 0
2, 23627, Note_on_c, 2, 74, 68
2, 23646, Control_c, 2, 64, 127
2, 23649, Note_on_c, 2, 73, 72
2, 23653, Note_on_c, 2, 74, 0
2, 23668, Note_on_c, 2, 73, 0
2, 23671, Note_on_c, 2, 74, 55
2, 23686, Note_on_c, 2, 74, 0
2, 23690, Note_on_c, 2, 75, 68
2, 23704, Note_on_c, 2, 75, 0
2, 23708, Note_on_c, 2, 74, 60
2, 23727, Note_on_c, 2, 74, 0
2, 23730, Note_on_c, 2, 76, 68
2, 23750, Note_on_c, 2, 76, 0
2, 23750, Note_on_c, 2, 74, 62
2, 23768, Note_on_c, 2, 74, 0
2, 23768, Note_on_c, 2, 77, 65
2, 23786, Note_on_c, 2, 77, 0
2, 23790, Note_on_c, 2, 74, 66
2, 23808, Note_on_c, 2, 74, 0
2, 23808, Note_on_c, 2, 78, 70
2, 23830, Note_on_c, 2, 78, 0
2, 23830, Note_on_c, 2, 74, 70
2, 23850, Note_on_c, 2, 74, 0
2, 23853, Note_on_c, 2, 79, 60
2, 23872, Note_on_c, 2, 79, 0
2, 23872, Note_on_c, 2, 74, 65
2, 23882, Note_on_c, 2, 58, 0
2, 23886, Note_on_c, 2, 46, 0
2, 23893, Note_on_c, 2, 74, 0
2, 23893, Note_on_c, 2, 81, 60
2, 23908, Note_on_c, 2, 81, 0
2, 23912, Note_on_c, 2, 74, 66
2, 23931, Note_on_c, 2, 55, 63
2, 23932, Note_on_c, 2, 82, 66
2, 23957, Note_on_c, 2, 55, 0
2, 23957, Note_on_c, 2, 57, 62
2, 23961, Control_c, 2, 64, 0
2, 23976, Note_on_c, 2, 58, 70
2, 23976, Control_c, 2, 64, 127
2, 23978, Note_on_c, 2, 57, 0
2, 23990, Note_on_c, 2, 58, 0
2, 23990, Note_on_c, 2, 57, 60
2, 24012, Note_on_c, 2, 55, 72
2, 24016, Note_on_c, 2, 57, 0
2, 24030, Note_on_c, 2, 55, 0
2, 24030, Note_on_c, 2, 57, 60
2, 24049, Note_on_c, 2, 57, 0
2, 24053, Note_on_c, 2, 53, 79
2, 24072, Note_on_c, 2, 55, 59
2, 24090, Note_on_c, 2, 53, 0
2, 24094, Note_on_c, 2, 55, 0
2, 24094, Note_on_c, 2, 52, 79
2, 24116, Note_on_c, 2, 52, 0
2, 24116, Note_on_c, 2, 53, 49
2, 24134, Note_on_c, 2, 53, 0
2, 24134, Note_on_c, 2, 50, 83
2, 24153, Note_on_c, 2, 50, 0
2, 24153, Note_on_c, 2, 52, 52
2, 24154, Note_on_c, 2, 53, 52
2, 24160, Note_on_c, 2, 74, 0
2, 24164, Note_on_c, 2, 82, 0
2, 24168, Note_on_c, 2, 52, 0
2, 24168, Note_on_c, 2, 53, 0
2, 24175, Note_on_c, 2, 48, 83
2, 24179, Note_on_c, 2, 81, 50
2, 24186, Note_on_c, 2, 82, 57
2, 24190, Note_on_c, 2, 81, 0
2, 24194, Note_on_c, 2, 48, 0
2, 24194, Note_on_c, 2, 52, 37
2, 24201, Note_on_c, 2, 81, 60
2, 24205, Note_on_c, 2, 82, 0
2, 24212, Note_on_c, 2, 82, 57
2, 24213, Note_on_c, 2, 46, 50
2, 24216, Note_on_c, 2, 81, 0
2, 24216, Note_on_c, 2, 52, 0
2, 24227, Note_on_c, 2, 82, 0
2, 24227, Note_on_c, 2, 81, 63
2, 24242, Note_on_c, 2, 82, 46
2, 24250, Note_on_c, 2, 81, 0
2, 24264, Note_on_c, 2, 57, 55
2, 24268, Note_on_c, 2, 46, 0
2, 24268, Note_on_c, 2, 45, 57
2, 24268, Note_on_c, 2, 84, 65
2, 24272, Note_on_c, 2, 82, 0
2, 24283, Note_on_c, 2, 84, 0
2, 24283, Control_c, 2, 64, 0
2, 24287, Note_on_c, 2, 72, 72
2, 24302, Control_c, 2, 64, 127
2, 24305, Note_on_c, 2, 71, 70
2, 24312, Note_on_c, 2, 72, 0
2, 24327, Note_on_c, 2, 71, 0
2, 24327, Note_on_c, 2, 72, 59
2, 24346, Note_on_c, 2, 72, 0
2, 24346, Note_on_c, 2, 73, 79
2, 24364, Note_on_c, 2, 73, 0
2, 24364, Note_on_c, 2, 72, 66
2, 24382, Note_on_c, 2, 72, 0
2, 24386, Note_on_c, 2, 74, 65
2, 24405, Note_on_c, 2, 74, 0
2, 24405, Note_on_c, 2, 72, 59
2, 24424, Note_on_c, 2, 72, 0
2, 24424, Note_on_c, 2, 75, 72
2, 24446, Note_on_c, 2, 75, 0
2, 24446, Note_on_c, 2, 72, 72
2, 24464, Note_on_c, 2, 72, 0
2, 24464, Note_on_c, 2, 76, 65
2, 24482, Note_on_c, 2, 76, 0
2, 24486, Note_on_c, 2, 72, 65
2, 24505, Note_on_c, 2, 72, 0
2, 24505, Note_on_c, 2, 77, 63
2, 24520, Note_on_c, 2, 45, 0
2, 24527, Note_on_c, 2, 77, 0
2, 24528, Note_on_c, 2, 72, 68
2, 24546, Note_on_c, 2, 79, 63
2, 24549, Note_on_c, 2, 72, 0
2, 24564, Note_on_c, 2, 79, 0
2, 24568, Note_on_c, 2, 72, 66
2, 24586, Note_on_c, 2, 53, 66
2, 24586, Note_on_c, 2, 81, 70
2, 24590, Note_on_c, 2, 57, 0
2, 24605, Note_on_c, 2, 55, 70
2, 24605, Control_c, 2, 64, 0
2, 24613, Note_on_c, 2, 53, 0
2, 24624, Control_c, 2, 64, 127
2, 24624, Note_on_c, 2, 57, 66
2, 24627, Note_on_c, 2, 55, 0
2, 24646, Note_on_c, 2, 55, 57
2, 24664, Note_on_c, 2, 57, 0
2, 24664, Note_on_c, 2, 53, 65
2, 24668, Note_on_c, 2, 55, 0
2, 24686, Note_on_c, 2, 53, 0
2, 24686, Note_on_c, 2, 55, 57
2, 24705, Note_on_c, 2, 55, 0
2, 24705, Note_on_c, 2, 52, 72
2, 24724, Note_on_c, 2, 52, 0
2, 24724, Note_on_c, 2, 53, 55
2, 24746, Note_on_c, 2, 50, 79
2, 24749, Note_on_c, 2, 53, 0
2, 24764, Note_on_c, 2, 50, 0
2, 24768, Note_on_c, 2, 52, 56
2, 24783, Note_on_c, 2, 52, 0
2, 24786, Note_on_c, 2, 48, 68
2, 24801, Note_on_c, 2, 72, 0
2, 24804, Note_on_c, 2, 48, 0
2, 24808, Note_on_c, 2, 52, 51
2, 24808, Note_on_c, 2, 50, 49
2, 24816, Note_on_c, 2, 81, 0
2, 24820, Note_on_c, 2, 50, 0
2, 24824, Note_on_c, 2, 52, 0
2, 24827, Note_on_c, 2, 46, 70
2, 24831, Note_on_c, 2, 81, 49
2, 24838, Note_on_c, 2, 82, 56
2, 24842, Note_on_c, 2, 81, 0
2, 24846, Note_on_c, 2, 46, 0
2, 24849, Note_on_c, 2, 52, 36
2, 24853, Note_on_c, 2, 82, 0
2, 24853, Note_on_c, 2, 81, 54
2, 24861, Note_on_c, 2, 46, 45
2, 24864, Note_on_c, 2, 52, 0
2, 24865, Note_on_c, 2, 81, 0
2, 24865, Note_on_c, 2, 82, 55
2, 24871, Note_on_c, 2, 82, 0
2, 24875, Note_on_c, 2, 81, 43
2, 24886, Note_on_c, 2, 82, 55
2, 24890, Note_on_c, 2, 81, 0
2, 24898, Note_on_c, 2, 82, 0
2, 24909, Note_on_c, 2, 46, 0
2, 24916, Note_on_c, 2, 55, 45
2, 24916, Note_on_c, 2, 43, 56
2, 24916, Note_on_c, 2, 82, 62
2, 24920, Control_c, 2, 64, 0
2, 24935, Control_c, 2, 64, 127
2, 24939, Note_on_c, 2, 82, 0
2, 24939, Note_on_c, 2, 70, 72
2, 24965, Note_on_c, 2, 69, 41
2, 24968, Note_on_c, 2, 70, 0
2, 24979, Note_on_c, 2, 70, 46
2, 24982, Note_on_c, 2, 69, 0
2, 24997, Note_on_c, 2, 72, 53
2, 25001, Note_on_c, 2, 70, 0
2, 25020, Note_on_c, 2, 72, 0
2, 25020, Note_on_c, 2, 70, 66
2, 25038, Note_on_c, 2, 74, 63
2, 25042, Note_on_c, 2, 70, 0
2, 25057, Note_on_c, 2, 74, 0
2, 25061, Note_on_c, 2, 70, 65
2, 25079, Note_on_c, 2, 75, 60
2, 25082, Note_on_c, 2, 70, 0
2, 25098, Note_on_c, 2, 70, 55
2, 25109, Note_on_c, 2, 75, 0
2, 25120, Note_on_c, 2, 76, 57
2, 25127, Note_on_c, 2, 70, 0
2, 25142, Note_on_c, 2, 76, 0
2, 25142, Note_on_c, 2, 70, 49
2, 25160, Note_on_c, 2, 77, 55
2, 25164, Note_on_c, 2, 70, 0
2, 25183, Note_on_c, 2, 77, 0
2, 25183, Note_on_c, 2, 70, 54
2, 25194, Note_on_c, 2, 43, 0
2, 25201, Note_on_c, 2, 70, 0
2, 25205, Note_on_c, 2, 78, 53
2, 25227, Note_on_c, 2, 70, 40
2, 25231, Note_on_c, 2, 78, 0
2, 25257, Note_on_c, 2, 70, 0
2, 25257, Note_on_c, 2, 48, 28
2, 25258, Note_on_c, 2, 79, 52
2, 25276, Note_on_c, 2, 55, 0
2, 25276, Control_c, 2, 64, 0
2, 25279, Note_on_c, 2, 52, 38
2, 25294, Control_c, 2, 64, 127
2, 25302, Note_on_c, 2, 55, 48
2, 25305, Note_on_c, 2, 52, 0
2, 25324, Note_on_c, 2, 48, 0
2, 25324, Note_on_c, 2, 52, 40
2, 25335, Note_on_c, 2, 79, 0
2, 25342, Note_on_c, 2, 52, 0
2, 25346, Note_on_c, 2, 48, 49
2, 25349, Note_on_c, 2, 55, 0
2, 25368, Note_on_c, 2, 52, 48
2, 25387, Note_on_c, 2, 52, 0
2, 25387, Note_on_c, 2, 55, 47
2, 25390, Note_on_c, 2, 82, 68
2, 25405, Note_on_c, 2, 52, 46
2, 25409, Note_on_c, 2, 82, 0
2, 25409, Note_on_c, 2, 48, 0
2, 25424, Note_on_c, 2, 52, 0
2, 25428, Note_on_c, 2, 48, 47
2, 25431, Note_on_c, 2, 55, 0
2, 25431, Note_on_c, 2, 81, 60
2, 25450, Note_on_c, 2, 52, 46
2, 25472, Note_on_c, 2, 52, 0
2, 25472, Note_on_c, 2, 55, 53
2, 25472, Note_on_c, 2, 79, 52
2, 25476, Note_on_c, 2, 81, 0
2, 25491, Note_on_c, 2, 52, 48
2, 25494, Note_on_c, 2, 48, 0
2, 25509, Note_on_c, 2, 52, 0
2, 25513, Note_on_c, 2, 55, 0
2, 25513, Note_on_c, 2, 48, 53
2, 25517, Note_on_c, 2, 77, 45
2, 25520, Note_on_c, 2, 79, 0
2, 25531, Note_on_c, 2, 52, 41
2, 25553, Note_on_c, 2, 52, 0
2, 25553, Note_on_c, 2, 77, 0
2, 25554, Note_on_c, 2, 55, 52
2, 25554, Note_on_c, 2, 76, 47
2, 25576, Note_on_c, 2, 48, 0
2, 25576, Note_on_c, 2, 52, 42
2, 25598, Note_on_c, 2, 52, 0
2, 25602, Note_on_c, 2, 48, 45
2, 25605, Note_on_c, 2, 55, 0
2, 25605, Note_on_c, 2, 79, 53
2, 25617, Note_on_c, 2, 76, 0
2, 25624, Note_on_c, 2, 53, 45
2, 25639, Control_c, 2, 64, 0
2, 25646, Note_on_c, 2, 77, 48
2, 25647, Note_on_c, 2, 57, 47
2, 25650, Note_on_c, 2, 53, 0
2, 25650, Note_on_c, 2, 79, 0
2, 25650, Control_c, 2, 64, 127
2, 25665, Note_on_c, 2, 53, 45
2, 25668, Note_on_c, 2, 48, 0
2, 25687, Note_on_c, 2, 53, 0
2, 25691, Note_on_c, 2, 57, 0
2, 25691, Note_on_c, 2, 48, 55
2, 25709, Note_on_c, 2, 53, 41
2, 25731, Note_on_c, 2, 57, 45
2, 25735, Note_on_c, 2, 53, 0
2, 25735, Note_on_c, 2, 84, 45
2, 25746, Note_on_c, 2, 77, 0
2, 25753, Note_on_c, 2, 48, 0
2, 25754, Note_on_c, 2, 53, 39
2, 25772, Note_on_c, 2, 53, 0
2, 25776, Note_on_c, 2, 48, 45
2, 25776, Note_on_c, 2, 82, 53
2, 25779, Note_on_c, 2, 57, 0
2, 25779, Note_on_c, 2, 84, 0
2, 25798, Note_on_c, 2, 51, 48
2, 25802, Control_c, 2, 64, 0
2, 25816, Note_on_c, 2, 48, 0
2, 25817, Control_c, 2, 64, 127
2, 25817, Note_on_c, 2, 54, 49
2, 25817, Note_on_c, 2, 81, 51
2, 25824, Note_on_c, 2, 51, 0
2, 25827, Note_on_c, 2, 82, 0
2, 25838, Note_on_c, 2, 51, 43
2, 25846, Note_on_c, 2, 54, 0
2, 25861, Note_on_c, 2, 79, 46
2, 25861, Note_on_c, 2, 48, 47
2, 25864, Note_on_c, 2, 51, 0
2, 25864, Note_on_c, 2, 81, 0
2, 25884, Note_on_c, 2, 51, 42
2, 25898, Note_on_c, 2, 79, 0
2, 25905, Note_on_c, 2, 51, 0
2, 25905, Note_on_c, 2, 54, 47
2, 25905, Note_on_c, 2, 78, 50
2, 25916, Note_on_c, 2, 48, 0
2, 25924, Note_on_c, 2, 78, 0
2, 25924, Note_on_c, 2, 51, 39
2, 25935, Note_on_c, 2, 51, 0
2, 25935, Note_on_c, 2, 54, 0
2, 25942, Note_on_c, 2, 46, 54
2, 25946, Note_on_c, 2, 79, 49
2, 25957, Control_c, 2, 64, 0
2, 25965, Note_on_c, 2, 50, 48
2, 25976, Control_c, 2, 64, 127
2, 25979, Note_on_c, 2, 50, 0
2, 25983, Note_on_c, 2, 55, 46
2, 26006, Note_on_c, 2, 46, 0
2, 26006, Note_on_c, 2, 50, 44
2, 26006, Note_on_c, 2, 81, 68
2, 26013, Note_on_c, 2, 79, 0
2, 26024, Note_on_c, 2, 55, 0
2, 26024, Note_on_c, 2, 50, 0
2, 26028, Note_on_c, 2, 46, 48
2, 26028, Note_on_c, 2, 84, 53
2, 26031, Note_on_c, 2, 81, 0
2, 26046, Note_on_c, 2, 50, 46
2, 26050, Note_on_c, 2, 82, 66
2, 26057, Note_on_c, 2, 84, 0
2, 26068, Note_on_c, 2, 55, 54
2, 26068, Note_on_c, 2, 81, 66
2, 26076, Note_on_c, 2, 82, 0
2, 26080, Note_on_c, 2, 55, 0
2, 26080, Note_on_c, 2, 46, 0
2, 26091, Note_on_c, 2, 50, 0
2, 26091, Note_on_c, 2, 81, 0
2, 26091, Note_on_c, 2, 79, 72
2, 26091, Note_on_c, 2, 55, 44
2, 26109, Note_on_c, 2, 55, 0
2, 26109, Note_on_c, 2, 48, 63
2, 26109, Note_on_c, 2, 77, 68
2, 26113, Note_on_c, 2, 79, 0
2, 26120, Control_c, 2, 64, 0
2, 26132, Note_on_c, 2, 53, 48
2, 26139, Control_c, 2, 64, 127
2, 26154, Note_on_c, 2, 53, 0
2, 26154, Note_on_c, 2, 57, 53
2, 26176, Note_on_c, 2, 48, 0
2, 26176, Note_on_c, 2, 53, 41
2, 26183, Note_on_c, 2, 53, 0
2, 26187, Note_on_c, 2, 57, 0
2, 26187, Note_on_c, 2, 77, 0
2, 26194, Note_on_c, 2, 48, 57
2, 26198, Note_on_c, 2, 76, 52
2, 26209, Note_on_c, 2, 77, 57
2, 26213, Note_on_c, 2, 76, 0
2, 26217, Note_on_c, 2, 52, 44
2, 26217, Note_on_c, 2, 55, 38
2, 26220, Note_on_c, 2, 77, 0
2, 26220, Note_on_c, 2, 76, 49
2, 26231, Note_on_c, 2, 76, 0
2, 26232, Note_on_c, 2, 77, 47
2, 26239, Note_on_c, 2, 48, 0
2, 26242, Note_on_c, 2, 55, 0
2, 26242, Note_on_c, 2, 52, 0
2, 26246, Note_on_c, 2, 76, 49
2, 26250, Note_on_c, 2, 77, 0
2, 26261, Note_on_c, 2, 76, 0
2, 26261, Note_on_c, 2, 77, 50
2, 26272, Note_on_c, 2, 76, 48
2, 26309, Note_on_c, 2, 76, 0
2, 26309, Note_on_c, 2, 53, 53
2, 26309, Note_on_c, 2, 65, 50
2, 26313, Note_on_c, 2, 77, 0
2, 26320, Control_c, 2, 64, 0
2, 26328, Note_on_c, 2, 77, 70
2, 26335, Control_c, 2, 64, 127
2, 26339, Note_on_c, 2, 65, 0
2, 26346, Note_on_c, 2, 77, 0
2, 26347, Note_on_c, 2, 53, 0
2, 26347, Note_on_c, 2, 76, 63
2, 26365, Note_on_c, 2, 77, 55
2, 26368, Note_on_c, 2, 76, 0
2, 26380, Note_on_c, 2, 77, 0
2, 26387, Note_on_c, 2, 60, 53
2, 26387, Note_on_c, 2, 48, 57
2, 26409, Note_on_c, 2, 72, 68
2, 26428, Note_on_c, 2, 72, 0
2, 26428, Note_on_c, 2, 71, 57
2, 26435, Note_on_c, 2, 60, 0
2, 26442, Note_on_c, 2, 48, 0
2, 26450, Note_on_c, 2, 72, 55
2, 26457, Note_on_c, 2, 71, 0
2, 26465, Note_on_c, 2, 72, 0
2, 26468, Note_on_c, 2, 45, 60
2, 26468, Note_on_c, 2, 57, 54
2, 26484, Control_c, 2, 64, 0
2, 26491, Note_on_c, 2, 69, 52
2, 26502, Control_c, 2, 64, 127
2, 26513, Note_on_c, 2, 69, 0
2, 26513, Note_on_c, 2, 57, 0
2, 26513, Note_on_c, 2, 68, 68
2, 26520, Note_on_c, 2, 45, 0
2, 26531, Note_on_c, 2, 69, 59
2, 26538, Note_on_c, 2, 68, 0
2, 26546, Note_on_c, 2, 69, 0
2, 26554, Note_on_c, 2, 41, 57
2, 26557, Note_on_c, 2, 53, 51
2, 26572, Control_c, 2, 64, 0
2, 26576, Note_on_c, 2, 65, 63
2, 26587, Note_on_c, 2, 41, 0
2, 26587, Control_c, 2, 64, 127
2, 26594, Note_on_c, 2, 65, 0
2, 26598, Note_on_c, 2, 64, 33
2, 26602, Note_on_c, 2, 53, 0
2, 26620, Note_on_c, 2, 65, 42
2, 26624, Note_on_c, 2, 64, 0
2, 26631, Note_on_c, 2, 65, 0
2, 26661, Note_on_c, 2, 48, 55
2, 26669, Note_on_c, 2, 72, 55
2, 26672, Control_c, 2, 64, 0
2, 26684, Note_on_c, 2, 55, 47
2, 26691, Control_c, 2, 64, 127
2, 26702, Note_on_c, 2, 58, 48
2, 26705, Note_on_c, 2, 55, 0
2, 26724, Note_on_c, 2, 48, 0
2, 26724, Note_on_c, 2, 55, 45
2, 26746, Note_on_c, 2, 48, 52
2, 26750, Note_on_c, 2, 58, 0
2, 26754, Note_on_c, 2, 55, 0
2, 26769, Note_on_c, 2, 55, 47
2, 26791, Note_on_c, 2, 58, 48
2, 26794, Note_on_c, 2, 55, 0
2, 26794, Note_on_c, 2, 72, 0
2, 26794, Note_on_c, 2, 82, 45
2, 26813, Note_on_c, 2, 48, 0
2, 26813, Note_on_c, 2, 55, 46
2, 26824, Note_on_c, 2, 82, 0
2, 26824, Note_on_c, 2, 58, 0
2, 26836, Note_on_c, 2, 55, 0
2, 26836, Note_on_c, 2, 48, 51
2, 26839, Note_on_c, 2, 81, 51
2, 26857, Note_on_c, 2, 55, 47
2, 26876, Note_on_c, 2, 55, 0
2, 26880, Note_on_c, 2, 58, 45
2, 26880, Note_on_c, 2, 79, 48
2, 26884, Note_on_c, 2, 81, 0
2, 26898, Note_on_c, 2, 55, 45
2, 26902, Note_on_c, 2, 48, 0
2, 26910, Note_on_c, 2, 58, 0
2, 26920, Note_on_c, 2, 55, 0
2, 26921, Note_on_c, 2, 48, 53
2, 26924, Note_on_c, 2, 77, 52
2, 26928, Note_on_c, 2, 79, 0
2, 26943, Note_on_c, 2, 55, 48
2, 26965, Note_on_c, 2, 55, 0
2, 26965, Note_on_c, 2, 58, 57
2, 26968, Note_on_c, 2, 76, 46
2, 26972, Note_on_c, 2, 77, 0
2, 26991, Note_on_c, 2, 55, 44
2, 26994, Note_on_c, 2, 48, 0
2, 27006, Note_on_c, 2, 55, 0
2, 27013, Note_on_c, 2, 58, 0
2, 27014, Note_on_c, 2, 48, 46
2, 27017, Note_on_c, 2, 79, 54
2, 27024, Note_on_c, 2, 76, 0
2, 27039, Note_on_c, 2, 53, 52
2, 27054, Control_c, 2, 64, 0
2, 27062, Note_on_c, 2, 77, 52
2, 27065, Note_on_c, 2, 79, 0
2, 27068, Control_c, 2, 64, 127
2, 27069, Note_on_c, 2, 57, 66
2, 27072, Note_on_c, 2, 53, 0
2, 27091, Note_on_c, 2, 53, 45
2, 27098, Note_on_c, 2, 48, 0
2, 27113, Note_on_c, 2, 57, 0
2, 27113, Note_on_c, 2, 48, 59
2, 27117, Note_on_c, 2, 53, 0
2, 27136, Note_on_c, 2, 53, 52
2, 27150, Note_on_c, 2, 53, 0
2, 27157, Note_on_c, 2, 57, 55
2, 27158, Note_on_c, 2, 84, 53
2, 27165, Note_on_c, 2, 77, 0
2, 27176, Note_on_c, 2, 48, 0
2, 27176, Note_on_c, 2, 53, 46
2, 27191, Note_on_c, 2, 53, 0
2, 27191, Note_on_c, 2, 57, 0
2, 27198, Note_on_c, 2, 82, 63
2, 27199, Note_on_c, 2, 48, 51
2, 27202, Note_on_c, 2, 84, 0
2, 27220, Note_on_c, 2, 51, 52
2, 27228, Note_on_c, 2, 48, 0
2, 27236, Control_c, 2, 64, 0
2, 27243, Note_on_c, 2, 54, 46
2, 27243, Note_on_c, 2, 81, 55
2, 27246, Note_on_c, 2, 51, 0
2, 27250, Note_on_c, 2, 82, 0
2, 27250, Control_c, 2, 64, 127
2, 27261, Note_on_c, 2, 51, 45
2, 27280, Note_on_c, 2, 51, 0
2, 27280, Note_on_c, 2, 54, 0
2, 27284, Note_on_c, 2, 48, 37
2, 27287, Note_on_c, 2, 81, 0
2, 27288, Note_on_c, 2, 79, 53
2, 27306, Note_on_c, 2, 51, 35
2, 27313, Note_on_c, 2, 79, 0
2, 27324, Note_on_c, 2, 48, 0
2, 27328, Note_on_c, 2, 78, 56
2, 27328, Note_on_c, 2, 54, 45
2, 27335, Note_on_c, 2, 51, 0
2, 27346, Note_on_c, 2, 78, 0
2, 27350, Note_on_c, 2, 51, 39
2, 27354, Note_on_c, 2, 54, 0
2, 27361, Note_on_c, 2, 51, 0
2, 27372, Note_on_c, 2, 46, 53
2, 27372, Note_on_c, 2, 79, 57
2, 27391, Control_c, 2, 64, 0
2, 27392, Note_on_c, 2, 50, 52
2, 27410, Control_c, 2, 64, 127
2, 27414, Note_on_c, 2, 50, 0
2, 27414, Note_on_c, 2, 55, 48
2, 27432, Note_on_c, 2, 50, 49
2, 27439, Note_on_c, 2, 46, 0
2, 27443, Note_on_c, 2, 55, 0
2, 27450, Note_on_c, 2, 50, 0
2, 27454, Note_on_c, 2, 46, 56
2, 27458, Note_on_c, 2, 81, 56
2, 27465, Note_on_c, 2, 79, 0
2, 27476, Note_on_c, 2, 50, 47
2, 27480, Note_on_c, 2, 82, 38
2, 27484, Note_on_c, 2, 46, 0
2, 27488, Note_on_c, 2, 81, 0
2, 27498, Note_on_c, 2, 84, 68
2, 27502, Note_on_c, 2, 55, 17
2, 27506, Note_on_c, 2, 82, 0
2, 27517, Note_on_c, 2, 50, 0
2, 27520, Note_on_c, 2, 84, 0
2, 27520, Note_on_c, 2, 86, 62
2, 27532, Note_on_c, 2, 86, 0
2, 27536, Note_on_c, 2, 55, 0
2, 27539, Note_on_c, 2, 48, 57
2, 27539, Note_on_c, 2, 86, 62
2, 27550, Control_c, 2, 64, 0
2, 27558, Note_on_c, 2, 86, 0
2, 27558, Note_on_c, 2, 53, 43
2, 27559, Note_on_c, 2, 77, 60
2, 27569, Control_c, 2, 64, 127
2, 27580, Note_on_c, 2, 57, 57
2, 27584, Note_on_c, 2, 53, 0
2, 27602, Note_on_c, 2, 48, 0
2, 27602, Note_on_c, 2, 52, 38
2, 27602, Note_on_c, 2, 53, 40
2, 27606, Note_on_c, 2, 57, 0
2, 27609, Note_on_c, 2, 52, 0
2, 27610, Note_on_c, 2, 77, 0
2, 27610, Note_on_c, 2, 53, 0
2, 27624, Note_on_c, 2, 48, 45
2, 27624, Note_on_c, 2, 79, 63
2, 27628, Note_on_c, 2, 52, 33
2, 27636, Note_on_c, 2, 79, 0
2, 27636, Note_on_c, 2, 55, 25
2, 27636, Note_on_c, 2, 81, 49
2, 27646, Note_on_c, 2, 52, 0
2, 27650, Note_on_c, 2, 81, 0
2, 27651, Note_on_c, 2, 79, 63
2, 27661, Note_on_c, 2, 79, 0
2, 27661, Note_on_c, 2, 81, 54
2, 27665, Note_on_c, 2, 55, 0
2, 27669, Note_on_c, 2, 81, 0
2, 27669, Note_on_c, 2, 79, 40
2, 27680, Note_on_c, 2, 79, 0
2, 27680, Note_on_c, 2, 81, 45
2, 27687, Note_on_c, 2, 48, 0
2, 27694, Note_on_c, 2, 81, 0
2, 27695, Note_on_c, 2, 79, 42
2, 27713, Note_on_c, 2, 77, 63
2, 27713, Note_on_c, 2, 53, 59
2, 27713, Note_on_c, 2, 57, 56
2, 27717, Note_on_c, 2, 79, 0
2, 27721, Control_c, 2, 64, 0
2, 27758, Note_on_c, 2, 84, 59
2, 27769, Note_on_c, 2, 77, 0
2, 27780, Note_on_c, 2, 81, 54
2, 27784, Note_on_c, 2, 84, 0
2, 27788, Control_c, 2, 64, 127
2, 27799, Note_on_c, 2, 77, 57
2, 27813, Note_on_c, 2, 81, 0
2, 27821, Note_on_c, 2, 77, 0
2, 27821, Note_on_c, 2, 72, 72
2, 27832, Note_on_c, 2, 72, 0
2, 27843, Note_on_c, 2, 69, 50
2, 27861, Note_on_c, 2, 69, 0
2, 27861, Note_on_c, 2, 65, 53
2, 27869, Note_on_c, 2, 65, 0
2, 27884, Note_on_c, 2, 60, 72
2, 27887, Note_on_c, 2, 63, 83
2, 27891, Control_c, 2, 64, 0
2, 27895, Note_on_c, 2, 57, 0
2, 27898, Note_on_c, 2, 53, 0
2, 27906, Control_c, 2, 64, 127
2, 27925, Note_on_c, 2, 41, 56
2, 27925, Note_on_c, 2, 53, 52
2, 27936, Note_on_c, 2, 41, 0
2, 27940, Note_on_c, 2, 53, 0
2, 27969, Note_on_c, 2, 57, 53
2, 27969, Note_on_c, 2, 45, 65
2, 27976, Note_on_c, 2, 57, 0
2, 27980, Note_on_c, 2, 45, 0
2, 28010, Note_on_c, 2, 41, 63
2, 28013, Note_on_c, 2, 53, 54
2, 28021, Note_on_c, 2, 41, 0
2, 28024, Note_on_c, 2, 53, 0
2, 28028, Note_on_c, 2, 63, 0
2, 28043, Note_on_c, 2, 60, 0
2, 28054, Note_on_c, 2, 46, 55
2, 28058, Note_on_c, 2, 58, 62
2, 28073, Control_c, 2, 64, 0
2, 28095, Control_c, 2, 64, 127
2, 28098, Note_on_c, 2, 62, 54
2, 28128, Note_on_c, 2, 62, 0
2, 28136, Note_on_c, 2, 46, 0
2, 28143, Note_on_c, 2, 58, 0
2, 28143, Note_on_c, 2, 55, 55
2, 28184, Note_on_c, 2, 70, 53
2, 28184, Control_c, 2, 64, 0
2, 28185, Note_on_c, 2, 74, 57
2, 28221, Control_c, 2, 64, 127
2, 28229, Note_on_c, 2, 60, 51
2, 28266, Note_on_c, 2, 69, 46
2, 28266, Note_on_c, 2, 72, 52
2, 28269, Note_on_c, 2, 74, 0
2, 28269, Note_on_c, 2, 70, 0
2, 28272, Note_on_c, 2, 72, 0
2, 28276, Note_on_c, 2, 69, 0
2, 28310, Note_on_c, 2, 60, 0
2, 28314, Note_on_c, 2, 48, 52
2, 28325, Note_on_c, 2, 55, 0
2, 28339, Control_c, 2, 64, 0
2, 28350, Note_on_c, 2, 58, 47
2, 28350, Note_on_c, 2, 64, 56
2, 28358, Control_c, 2, 64, 127
2, 28362, Note_on_c, 2, 58, 0
2, 28369, Note_on_c, 2, 64, 0
2, 28395, Note_on_c, 2, 53, 48
2, 28395, Note_on_c, 2, 57, 45
2, 28398, Note_on_c, 2, 48, 0
2, 28410, Control_c, 2, 64, 0
2, 28440, Note_on_c, 2, 84, 60
2, 28447, Control_c, 2, 64, 127
2, 28462, Note_on_c, 2, 81, 50
2, 28484, Note_on_c, 2, 77, 44
2, 28488, Note_on_c, 2, 84, 0
2, 28495, Note_on_c, 2, 81, 0
2, 28506, Note_on_c, 2, 77, 0
2, 28506, Note_on_c, 2, 72, 59
2, 28514, Note_on_c, 2, 72, 0
2, 28528, Note_on_c, 2, 69, 40
2, 28547, Note_on_c, 2, 69, 0
2, 28548, Note_on_c, 2, 65, 50
2, 28554, Note_on_c, 2, 65, 0
2, 28569, Note_on_c, 2, 60, 66
2, 28569, Note_on_c, 2, 63, 79
2, 28569, Control_c, 2, 64, 0
2, 28580, Note_on_c, 2, 57, 0
2, 28584, Note_on_c, 2, 53, 0
2, 28588, Control_c, 2, 64, 127
2, 28610, Note_on_c, 2, 41, 53
2, 28611, Note_on_c, 2, 53, 54
2, 28621, Note_on_c, 2, 53, 0
2, 28621, Note_on_c, 2, 41, 0
2, 28651, Note_on_c, 2, 45, 68
2, 28652, Note_on_c, 2, 57, 55
2, 28658, Note_on_c, 2, 57, 0
2, 28662, Note_on_c, 2, 45, 0
2, 28691, Note_on_c, 2, 41, 63
2, 28692, Note_on_c, 2, 53, 54
2, 28699, Note_on_c, 2, 41, 0
2, 28702, Note_on_c, 2, 53, 0
2, 28732, Note_on_c, 2, 63, 0
2, 28732, Note_on_c, 2, 46, 63
2, 28733, Note_on_c, 2, 58, 54
2, 28736, Note_on_c, 2, 60, 0
2, 28743, Control_c, 2, 64, 0
2, 28773, Note_on_c, 2, 62, 55
2, 28777, Control_c, 2, 64, 127
2, 28810, Note_on_c, 2, 62, 0
2, 28817, Note_on_c, 2, 46, 0
2, 28817, Note_on_c, 2, 55, 48
2, 28821, Note_on_c, 2, 58, 0
2, 28836, Control_c, 2, 64, 0
2, 28862, Note_on_c, 2, 70, 53
2, 28862, Note_on_c, 2, 74, 56
2, 28906, Note_on_c, 2, 60, 46
2, 28947, Control_c, 2, 64, 127
2, 28947, Note_on_c, 2, 69, 45
2, 28947, Note_on_c, 2, 72, 50
2, 28950, Note_on_c, 2, 70, 0
2, 28951, Note_on_c, 2, 74, 0
2, 28958, Note_on_c, 2, 72, 0
2, 28962, Note_on_c, 2, 69, 0
2, 28988, Note_on_c, 2, 60, 0
2, 28988, Note_on_c, 2, 48, 54
2, 28991, Note_on_c, 2, 55, 0
2, 29002, Note_on_c, 2, 48, 0
2, 29029, Note_on_c, 2, 58, 31
2, 29029, Note_on_c, 2, 64, 45
2, 29044, Note_on_c, 2, 58, 0
2, 29047, Note_on_c, 2, 64, 0
2, 29069, Note_on_c, 2, 41, 54
2, 29070, Note_on_c, 2, 65, 60
2, 29073, Note_on_c, 2, 57, 49
2, 29081, Control_c, 2, 64, 0
2, 29092, Note_on_c, 2, 41, 0
2, 29092, Note_on_c, 2, 53, 56
2, 29103, Control_c, 2, 64, 127
2, 29110, Note_on_c, 2, 52, 55
2, 29114, Note_on_c, 2, 53, 0
2, 29132, Note_on_c, 2, 52, 0
2, 29132, Note_on_c, 2, 57, 0
2, 29133, Note_on_c, 2, 53, 51
2, 29151, Note_on_c, 2, 53, 0
2, 29151, Note_on_c, 2, 41, 59
2, 29158, Note_on_c, 2, 65, 0
2, 29173, Note_on_c, 2, 41, 0
2, 29173, Note_on_c, 2, 53, 57
2, 29195, Note_on_c, 2, 53, 0
2, 29195, Note_on_c, 2, 52, 56
2, 29195, Note_on_c, 2, 65, 46
2, 29196, Note_on_c, 2, 69, 49
2, 29214, Note_on_c, 2, 52, 0
2, 29214, Note_on_c, 2, 53, 56
2, 29217, Note_on_c, 2, 69, 0
2, 29217, Note_on_c, 2, 65, 0
2, 29232, Note_on_c, 2, 53, 0
2, 29236, Note_on_c, 2, 41, 57
2, 29240, Note_on_c, 2, 64, 46
2, 29240, Note_on_c, 2, 67, 52
2, 29244, Control_c, 2, 64, 0
2, 29251, Note_on_c, 2, 64, 0
2, 29254, Note_on_c, 2, 67, 0
2, 29254, Note_on_c, 2, 41, 0
2, 29254, Note_on_c, 2, 53, 59
2, 29277, Note_on_c, 2, 53, 0
2, 29277, Note_on_c, 2, 52, 57
2, 29277, Note_on_c, 2, 64, 55
2, 29278, Note_on_c, 2, 67, 56
2, 29280, Control_c, 2, 64, 127
2, 29299, Note_on_c, 2, 67, 0
2, 29299, Note_on_c, 2, 52, 0
2, 29299, Note_on_c, 2, 53, 56
2, 29302, Note_on_c, 2, 64, 0
2, 29314, Note_on_c, 2, 53, 0
2, 29318, Note_on_c, 2, 41, 57
2, 29336, Note_on_c, 2, 41, 0
2, 29340, Note_on_c, 2, 53, 55
2, 29358, Note_on_c, 2, 52, 59
2, 29359, Note_on_c, 2, 70, 48
2, 29362, Note_on_c, 2, 53, 0
2, 29362, Note_on_c, 2, 67, 46
2, 29377, Note_on_c, 2, 67, 0
2, 29381, Note_on_c, 2, 70, 0
2, 29381, Note_on_c, 2, 52, 0
2, 29381, Note_on_c, 2, 53, 54
2, 29403, Note_on_c, 2, 53, 0
2, 29403, Note_on_c, 2, 41, 57
2, 29403, Note_on_c, 2, 65, 53
2, 29406, Note_on_c, 2, 69, 53
2, 29414, Control_c, 2, 64, 0
2, 29418, Note_on_c, 2, 69, 0
2, 29418, Note_on_c, 2, 65, 0
2, 29421, Note_on_c, 2, 41, 0
2, 29422, Note_on_c, 2, 53, 59
2, 29444, Note_on_c, 2, 52, 51
2, 29444, Note_on_c, 2, 69, 59
2, 29447, Note_on_c, 2, 53, 0
2, 29448, Note_on_c, 2, 65, 55
2, 29451, Control_c, 2, 64, 127
2, 29466, Note_on_c, 2, 52, 0
2, 29466, Note_on_c, 2, 53, 57
2, 29470, Note_on_c, 2, 65, 0
2, 29473, Note_on_c, 2, 69, 0
2, 29484, Note_on_c, 2, 53, 0
2, 29488, Note_on_c, 2, 41, 55
2, 29503, Note_on_c, 2, 41, 0
2, 29506, Note_on_c, 2, 53, 54
2, 29529, Note_on_c, 2, 52, 48
2, 29532, Note_on_c, 2, 53, 0
2, 29532, Note_on_c, 2, 77, 41
2, 29532, Note_on_c, 2, 81, 47
2, 29540, Note_on_c, 2, 81, 0
2, 29540, Note_on_c, 2, 77, 0
2, 29551, Note_on_c, 2, 52, 0
2, 29551, Note_on_c, 2, 53, 49
2, 29570, Note_on_c, 2, 53, 0
2, 29570, Note_on_c, 2, 41, 54
2, 29570, Note_on_c, 2, 79, 53
2, 29570, Note_on_c, 2, 76, 45
2, 29580, Note_on_c, 2, 76, 0
2, 29581, Control_c, 2, 64, 0
2, 29584, Note_on_c, 2, 79, 0
2, 29588, Note_on_c, 2, 41, 0
2, 29588, Note_on_c, 2, 53, 57
2, 29610, Note_on_c, 2, 52, 53
2, 29614, Note_on_c, 2, 53, 0
2, 29614, Note_on_c, 2, 76, 53
2, 29614, Note_on_c, 2, 79, 60
2, 29618, Control_c, 2, 64, 127
2, 29628, Note_on_c, 2, 76, 0
2, 29632, Note_on_c, 2, 79, 0
2, 29636, Note_on_c, 2, 52, 0
2, 29636, Note_on_c, 2, 53, 53
2, 29651, Note_on_c, 2, 53, 0
2, 29655, Note_on_c, 2, 41, 55
2, 29677, Note_on_c, 2, 41, 0
2, 29677, Note_on_c, 2, 53, 45
2, 29699, Note_on_c, 2, 52, 53
2, 29703, Note_on_c, 2, 53, 0
2, 29703, Note_on_c, 2, 76, 47
2, 29703, Note_on_c, 2, 79, 46
2, 29704, Note_on_c, 2, 82, 42
2, 29714, Note_on_c, 2, 82, 0
2, 29714, Note_on_c, 2, 52, 0
2, 29714, Note_on_c, 2, 76, 0
2, 29714, Note_on_c, 2, 79, 0
2, 29736, Control_c, 2, 64, 0
2, 29755, Note_on_c, 2, 41, 46
2, 29755, Note_on_c, 2, 53, 48
2, 29758, Note_on_c, 2, 76, 54
2, 29758, Note_on_c, 2, 79, 66
2, 29758, Note_on_c, 2, 82, 70
2, 29799, Control_c, 2, 64, 127
2, 29892, Note_on_c, 2, 79, 0
2, 29896, Note_on_c, 2, 82, 0
2, 29922, Note_on_c, 2, 76, 0
2, 29944, Note_on_c, 2, 53, 0
2, 30040, Note_on_c, 2, 77, 30
2, 30040, Note_on_c, 2, 81, 30
2, 30048, Note_on_c, 2, 53, 30
2, 30062, Control_c, 2, 64, 0
2, 30099, Control_c, 2, 64, 127
2, 30166, Note_on_c, 2, 77, 0
2, 30169, Note_on_c, 2, 41, 0
2, 30170, Note_on_c, 2, 81, 0
2, 30177, Note_on_c, 2, 53, 0
2, 30351, Control_c, 2, 64, 0
2, 30618, Note_on_c, 2, 71, 37
2, 30633, Note_on_c, 2, 72, 45
2, 30640, Note_on_c, 2, 71, 0
2, 30644, Note_on_c, 2, 74, 46
2, 30648, Note_on_c, 2, 72, 0
2, 30662, Note_on_c, 2, 72, 47
2, 30662, Note_on_c, 2, 65, 36
2, 30666, Note_on_c, 2, 74, 0
2, 30677, Control_c, 2, 64, 127
2, 30685, Note_on_c, 2, 69, 44
2, 30688, Note_on_c, 2, 65, 0
2, 30707, Note_on_c, 2, 69, 0
2, 30707, Note_on_c, 2, 68, 46
2, 30726, Note_on_c, 2, 68, 0
2, 30726, Note_on_c, 2, 69, 49
2, 30740, Note_on_c, 2, 69, 0
2, 30744, Note_on_c, 2, 65, 39
2, 30762, Note_on_c, 2, 65, 0
2, 30762, Note_on_c, 2, 69, 39
2, 30785, Note_on_c, 2, 68, 56
2, 30788, Note_on_c, 2, 69, 0
2, 30803, Note_on_c, 2, 68, 0
2, 30804, Note_on_c, 2, 69, 51
2, 30822, Note_on_c, 2, 69, 0
2, 30822, Note_on_c, 2, 65, 45
2, 30837, Note_on_c, 2, 72, 0
2, 30840, Note_on_c, 2, 65, 0
2, 30844, Note_on_c, 2, 69, 39
2, 30862, Note_on_c, 2, 77, 51
2, 30862, Note_on_c, 2, 68, 52
2, 30866, Note_on_c, 2, 69, 0
2, 30881, Note_on_c, 2, 69, 45
2, 30885, Note_on_c, 2, 68, 0
2, 30900, Note_on_c, 2, 69, 0
2, 30903, Note_on_c, 2, 65, 45
2, 30904, Note_on_c, 2, 76, 46
2, 30910, Note_on_c, 2, 77, 0
2, 30922, Note_on_c, 2, 65, 0
2, 30922, Note_on_c, 2, 69, 42
2, 30944, Note_on_c, 2, 69, 0
2, 30944, Note_on_c, 2, 68, 44
2, 30948, Note_on_c, 2, 74, 42
2, 30955, Note_on_c, 2, 76, 0
2, 30966, Note_on_c, 2, 74, 0
2, 30966, Note_on_c, 2, 68, 0
2, 30966, Note_on_c, 2, 69, 39
2, 30981, Note_on_c, 2, 69, 0
2, 30992, Note_on_c, 2, 64, 45
2, 30992, Note_on_c, 2, 74, 43
2, 31004, Note_on_c, 2, 76, 48
2, 31006, Note_on_c, 2, 74, 0
2, 31007, Note_on_c, 2, 67, 39
2, 31010, Note_on_c, 2, 64, 0
2, 31010, Control_c, 2, 64, 0
2, 31014, Note_on_c, 2, 74, 49
2, 31022, Note_on_c, 2, 76, 0
2, 31029, Note_on_c, 2, 72, 50
2, 31029, Note_on_c, 2, 66, 47
2, 31033, Note_on_c, 2, 67, 0
2, 31033, Control_c, 2, 64, 127
2, 31037, Note_on_c, 2, 74, 0
2, 31048, Note_on_c, 2, 66, 0
2, 31052, Note_on_c, 2, 67, 46
2, 31066, Note_on_c, 2, 67, 0
2, 31070, Note_on_c, 2, 64, 48
2, 31085, Note_on_c, 2, 64, 0
2, 31088, Note_on_c, 2, 72, 0
2, 31089, Note_on_c, 2, 67, 48
2, 31111, Note_on_c, 2, 67, 0
2, 31111, Note_on_c, 2, 66, 47
2, 31112, Note_on_c, 2, 72, 53
2, 31129, Note_on_c, 2, 66, 0
2, 31130, Note_on_c, 2, 67, 40
2, 31148, Note_on_c, 2, 64, 47
2, 31152, Note_on_c, 2, 67, 0
2, 31155, Note_on_c, 2, 71, 53
2, 31158, Note_on_c, 2, 72, 0
2, 31166, Note_on_c, 2, 64, 0
2, 31170, Note_on_c, 2, 67, 49
2, 31192, Note_on_c, 2, 66, 41
2, 31192, Note_on_c, 2, 72, 48
2, 31196, Note_on_c, 2, 67, 0
2, 31200, Note_on_c, 2, 71, 0
2, 31210, Note_on_c, 2, 66, 0
2, 31211, Note_on_c, 2, 67, 39
2, 31229, Note_on_c, 2, 67, 0
2, 31233, Note_on_c, 2, 64, 48
2, 31237, Note_on_c, 2, 74, 52
2, 31240, Note_on_c, 2, 72, 0
2, 31248, Note_on_c, 2, 64, 0
2, 31252, Note_on_c, 2, 67, 40
2, 31270, Note_on_c, 2, 66, 52
2, 31274, Note_on_c, 2, 67, 0
2, 31274, Note_on_c, 2, 72, 56
2, 31278, Note_on_c, 2, 74, 0
2, 31289, Note_on_c, 2, 72, 0
2, 31289, Note_on_c, 2, 66, 0
2, 31292, Note_on_c, 2, 67, 48
2, 31307, Note_on_c, 2, 67, 0
2, 31311, Note_on_c, 2, 62, 53
2, 31314, Note_on_c, 2, 72, 52
2, 31322, Note_on_c, 2, 74, 53
2, 31326, Note_on_c, 2, 72, 0
2, 31333, Note_on_c, 2, 62, 0
2, 31333, Note_on_c, 2, 65, 48
2, 31333, Control_c, 2, 64, 0
2, 31337, Note_on_c, 2, 72, 54
2, 31340, Note_on_c, 2, 74, 0
2, 31348, Control_c, 2, 64, 127
2, 31355, Note_on_c, 2, 70, 59
2, 31355, Note_on_c, 2, 64, 39
2, 31359, Note_on_c, 2, 72, 0
2, 31370, Note_on_c, 2, 64, 0
2, 31374, Note_on_c, 2, 70, 0
2, 31381, Note_on_c, 2, 65, 0
2, 31392, Note_on_c, 2, 62, 34
2, 31396, Note_on_c, 2, 70, 55
2, 31407, Note_on_c, 2, 62, 0
2, 31411, Note_on_c, 2, 65, 41
2, 31415, Note_on_c, 2, 70, 0
2, 31433, Note_on_c, 2, 64, 49
2, 31433, Note_on_c, 2, 70, 63
2, 31441, Note_on_c, 2, 65, 0
2, 31448, Note_on_c, 2, 70, 0
2, 31448, Note_on_c, 2, 64, 0
2, 31452, Note_on_c, 2, 65, 45
2, 31466, Note_on_c, 2, 65, 0
2, 31470, Note_on_c, 2, 60, 48
2, 31470, Note_on_c, 2, 70, 62
2, 31485, Note_on_c, 2, 70, 0
2, 31485, Note_on_c, 2, 72, 53
2, 31488, Control_c, 2, 64, 0
2, 31492, Note_on_c, 2, 60, 0
2, 31492, Note_on_c, 2, 64, 47
2, 31496, Note_on_c, 2, 70, 49
2, 31504, Note_on_c, 2, 72, 0
2, 31508, Control_c, 2, 64, 127
2, 31511, Note_on_c, 2, 62, 53
2, 31515, Note_on_c, 2, 64, 0
2, 31515, Note_on_c, 2, 69, 57
2, 31518, Note_on_c, 2, 70, 0
2, 31525, Note_on_c, 2, 62, 0
2, 31529, Note_on_c, 2, 64, 38
2, 31533, Note_on_c, 2, 69, 0
2, 31544, Note_on_c, 2, 64, 0
2, 31548, Note_on_c, 2, 60, 38
2, 31552, Note_on_c, 2, 69, 49
2, 31566, Note_on_c, 2, 69, 0
2, 31566, Note_on_c, 2, 60, 0
2, 31570, Note_on_c, 2, 64, 34
2, 31589, Note_on_c, 2, 64, 0
2, 31589, Note_on_c, 2, 62, 45
2, 31593, Note_on_c, 2, 69, 46
2, 31603, Note_on_c, 2, 69, 0
2, 31608, Note_on_c, 2, 62, 0
2, 31608, Note_on_c, 2, 64, 47
2, 31626, Note_on_c, 2, 64, 0
2, 31629, Note_on_c, 2, 58, 45
2, 31629, Note_on_c, 2, 69, 42
2, 31644, Note_on_c, 2, 70, 54
2, 31648, Note_on_c, 2, 69, 0
2, 31648, Note_on_c, 2, 58, 0
2, 31648, Note_on_c, 2, 62, 53
2, 31663, Note_on_c, 2, 70, 0
2, 31663, Note_on_c, 2, 67, 51
2, 31666, Note_on_c, 2, 60, 40
2, 31678, Note_on_c, 2, 60, 0
2, 31696, Note_on_c, 2, 62, 0
2, 31696, Note_on_c, 2, 58, 52
2, 31703, Note_on_c, 2, 70, 55
2, 31714, Note_on_c, 2, 67, 0
2, 31719, Note_on_c, 2, 58, 0
2, 31722, Note_on_c, 2, 62, 48
2, 31741, Note_on_c, 2, 70, 0
2, 31741, Note_on_c, 2, 67, 45
2, 31742, Note_on_c, 2, 60, 44
2, 31744, Note_on_c, 2, 62, 0
2, 31755, Note_on_c, 2, 60, 0
2, 31755, Note_on_c, 2, 62, 48
2, 31774, Note_on_c, 2, 62, 0
2, 31778, Note_on_c, 2, 67, 0
2, 31782, Note_on_c, 2, 57, 51
2, 31785, Note_on_c, 2, 64, 48
2, 31800, Note_on_c, 2, 57, 0
2, 31800, Note_on_c, 2, 60, 54
2, 31803, Control_c, 2, 64, 0
2, 31822, Note_on_c, 2, 60, 0
2, 31822, Note_on_c, 2, 57, 56
2, 31822, Note_on_c, 2, 65, 42
2, 31824, Control_c, 2, 64, 127
2, 31826, Note_on_c, 2, 64, 0
2, 31840, Note_on_c, 2, 57, 0
2, 31844, Note_on_c, 2, 60, 57
2, 31862, Note_on_c, 2, 60, 0
2, 31863, Note_on_c, 2, 57, 53
2, 31881, Note_on_c, 2, 57, 0
2, 31885, Note_on_c, 2, 60, 41
2, 31904, Note_on_c, 2, 60, 0
2, 31908, Note_on_c, 2, 57, 59
2, 31915, Note_on_c, 2, 65, 0
2, 31919, Note_on_c, 2, 57, 0
2, 31933, Note_on_c, 2, 57, 38
2, 31940, Note_on_c, 2, 57, 0
2, 31960, Note_on_c, 2, 57, 70
2, 31966, Note_on_c, 2, 60, 35
2, 31970, Note_on_c, 2, 65, 37
2, 31978, Control_c, 2, 64, 0
2, 31986, Note_on_c, 2, 67, 50
2, 31989, Note_on_c, 2, 65, 0
2, 31996, Control_c, 2, 64, 127
2, 32000, Note_on_c, 2, 67, 0
2, 32000, Note_on_c, 2, 65, 54
2, 32014, Note_on_c, 2, 65, 0
2, 32015, Note_on_c, 2, 67, 53
2, 32034, Note_on_c, 2, 67, 0
2, 32034, Note_on_c, 2, 65, 54
2, 32056, Note_on_c, 2, 67, 46
2, 32059, Note_on_c, 2, 57, 0
2, 32060, Note_on_c, 2, 65, 0
2, 32082, Note_on_c, 2, 69, 39
2, 32085, Note_on_c, 2, 67, 0
2, 32092, Note_on_c, 2, 60, 0
2, 32107, Note_on_c, 2, 58, 40
2, 32111, Note_on_c, 2, 69, 0
2, 32111, Note_on_c, 2, 60, 45
2, 32111, Note_on_c, 2, 65, 42
2, 32137, Control_c, 2, 64, 0
2, 32138, Note_on_c, 2, 64, 52
2, 32140, Note_on_c, 2, 65, 0
2, 32163, Note_on_c, 2, 67, 45
2, 32171, Note_on_c, 2, 64, 0
2, 32171, Control_c, 2, 64, 127
2, 32186, Note_on_c, 2, 65, 49
2, 32192, Note_on_c, 2, 67, 0
2, 32211, Note_on_c, 2, 65, 0
2, 32215, Note_on_c, 2, 64, 45
2, 32226, Note_on_c, 2, 58, 0
2, 32233, Note_on_c, 2, 60, 0
2, 32237, Note_on_c, 2, 70, 34
2, 32267, Note_on_c, 2, 57, 49
2, 32267, Note_on_c, 2, 60, 39
2, 32267, Note_on_c, 2, 67, 37
2, 32274, Note_on_c, 2, 70, 0
2, 32278, Control_c, 2, 64, 0
2, 32293, Note_on_c, 2, 67, 0
2, 32296, Note_on_c, 2, 65, 33
2, 32319, Note_on_c, 2, 69, 52
2, 32326, Note_on_c, 2, 65, 0
2, 32326, Note_on_c, 2, 64, 0
2, 32348, Note_on_c, 2, 67, 48
2, 32352, Note_on_c, 2, 69, 0
2, 32374, Note_on_c, 2, 65, 55
2, 32378, Note_on_c, 2, 67, 0
2, 32400, Note_on_c, 2, 72, 59
2, 32430, Note_on_c, 2, 72, 0
2, 32430, Note_on_c, 2, 69, 60
2, 32434, Control_c, 2, 64, 127
2, 32463, Note_on_c, 2, 60, 0
2, 32466, Note_on_c, 2, 57, 0
2, 32500, Note_on_c, 2, 65, 0
2, 32526, Note_on_c, 2, 69, 0
2, 32567, Note_on_c, 2, 46, 39
2, 32582, Note_on_c, 2, 50, 54
2, 32596, Note_on_c, 2, 55, 52
2, 32597, Control_c, 2, 64, 0
2, 32600, Note_on_c, 2, 67, 66
2, 32622, Note_on_c, 2, 70, 54
2, 32623, Control_c, 2, 64, 127
2, 32648, Note_on_c, 2, 70, 0
2, 32648, Note_on_c, 2, 67, 0
2, 32648, Note_on_c, 2, 74, 57
2, 32656, Note_on_c, 2, 74, 0
2, 32674, Note_on_c, 2, 79, 56
2, 32700, Note_on_c, 2, 82, 55
2, 32708, Note_on_c, 2, 50, 0
2, 32708, Note_on_c, 2, 46, 0
2, 32722, Note_on_c, 2, 55, 0
2, 32726, Note_on_c, 2, 82, 0
2, 32726, Note_on_c, 2, 86, 46
2, 32730, Note_on_c, 2, 79, 0
2, 32737, Note_on_c, 2, 86, 0
2, 32752, Note_on_c, 2, 48, 56
2, 32752, Note_on_c, 2, 86, 55
2, 32754, Note_on_c, 2, 57, 63
2, 32760, Control_c, 2, 64, 0
2, 32778, Note_on_c, 2, 84, 44
2, 32779, Control_c, 2, 64, 127
2, 32782, Note_on_c, 2, 86, 0
2, 32797, Note_on_c, 2, 57, 0
2, 32797, Note_on_c, 2, 82, 54
2, 32800, Note_on_c, 2, 48, 0
2, 32804, Note_on_c, 2, 84, 0
2, 32822, Note_on_c, 2, 81, 49
2, 32826, Note_on_c, 2, 82, 0
2, 32833, Note_on_c, 2, 81, 0
2, 32841, Note_on_c, 2, 58, 59
2, 32841, Note_on_c, 2, 48, 55
2, 32842, Note_on_c, 2, 49, 50
2, 32842, Note_on_c, 2, 81, 52
2, 32844, Note_on_c, 2, 49, 0
2, 32848, Control_c, 2, 64, 0
2, 32863, Note_on_c, 2, 81, 0
2, 32863, Note_on_c, 2, 79, 65
2, 32863, Control_c, 2, 64, 127
2, 32885, Note_on_c, 2, 58, 0
2, 32886, Note_on_c, 2, 77, 53
2, 32893, Note_on_c, 2, 79, 0
2, 32897, Note_on_c, 2, 48, 0
2, 32908, Note_on_c, 2, 76, 50
2, 32911, Note_on_c, 2, 77, 0
2, 32930, Note_on_c, 2, 76, 0
2, 32934, Note_on_c, 2, 41, 66
2, 32934, Note_on_c, 2, 77, 66
2, 32952, Control_c, 2, 64, 0
2, 32960, Note_on_c, 2, 43, 57
2, 32970, Note_on_c, 2, 41, 0
2, 32986, Note_on_c, 2, 45, 66
2, 32996, Note_on_c, 2, 43, 0
2, 33011, Note_on_c, 2, 46, 79
2, 33018, Note_on_c, 2, 45, 0
2, 33038, Note_on_c, 2, 46, 0
2, 33038, Note_on_c, 2, 48, 66
2, 33064, Note_on_c, 2, 50, 65
2, 33067, Note_on_c, 2, 48, 0
2, 33089, Note_on_c, 2, 51, 65
2, 33096, Note_on_c, 2, 50, 0
2, 33116, Note_on_c, 2, 50, 48
2, 33118, Note_on_c, 2, 51, 0
2, 33141, Note_on_c, 2, 48, 49
2, 33148, Note_on_c, 2, 50, 0
2, 33171, Note_on_c, 2, 46, 59
2, 33175, Note_on_c, 2, 48, 0
2, 33194, Note_on_c, 2, 46, 0
2, 33196, Note_on_c, 2, 45, 46
2, 33226, Note_on_c, 2, 43, 63
2, 33230, Note_on_c, 2, 45, 0
2, 33248, Note_on_c, 2, 77, 0
2, 33256, Note_on_c, 2, 42, 72
2, 33259, Note_on_c, 2, 43, 0
2, 33286, Note_on_c, 2, 81, 56
2, 33312, Note_on_c, 2, 82, 45
2, 33315, Note_on_c, 2, 42, 0
2, 33319, Note_on_c, 2, 81, 0
2, 33337, Note_on_c, 2, 84, 52
2, 33341, Note_on_c, 2, 82, 0
2, 33363, Note_on_c, 2, 84, 0
2, 33363, Note_on_c, 2, 78, 62
2, 33393, Note_on_c, 2, 79, 47
2, 33404, Note_on_c, 2, 78, 0
2, 33419, Note_on_c, 2, 81, 56
2, 33422, Note_on_c, 2, 79, 0
2, 33445, Note_on_c, 2, 81, 0
2, 33445, Note_on_c, 2, 72, 62
2, 33471, Note_on_c, 2, 74, 52
2, 33490, Control_c, 2, 64, 127
2, 33497, Note_on_c, 2, 75, 45
2, 33501, Note_on_c, 2, 72, 0
2, 33504, Note_on_c, 2, 74, 0
2, 33526, Note_on_c, 2, 75, 0
2, 33530, Note_on_c, 2, 69, 38
2, 33556, Note_on_c, 2, 72, 40
2, 33564, Note_on_c, 2, 69, 0
2, 33582, Note_on_c, 2, 43, 57
2, 33586, Note_on_c, 2, 70, 72
2, 33590, Note_on_c, 2, 72, 0
2, 33612, Note_on_c, 2, 46, 53
2, 33612, Control_c, 2, 64, 0
2, 33627, Note_on_c, 2, 43, 0
2, 33638, Note_on_c, 2, 48, 56
2, 33644, Note_on_c, 2, 46, 0
2, 33664, Note_on_c, 2, 50, 66
2, 33667, Note_on_c, 2, 48, 0
2, 33689, Note_on_c, 2, 53, 62
2, 33693, Note_on_c, 2, 50, 0
2, 33715, Note_on_c, 2, 55, 59
2, 33719, Note_on_c, 2, 53, 0
2, 33745, Note_on_c, 2, 56, 70
2, 33748, Note_on_c, 2, 55, 0
2, 33770, Note_on_c, 2, 56, 0
2, 33771, Note_on_c, 2, 55, 48
2, 33797, Note_on_c, 2, 53, 49
2, 33804, Note_on_c, 2, 55, 0
2, 33826, Note_on_c, 2, 51, 68
2, 33830, Note_on_c, 2, 53, 0
2, 33852, Note_on_c, 2, 51, 0
2, 33853, Note_on_c, 2, 50, 51
2, 33882, Note_on_c, 2, 48, 54
2, 33886, Note_on_c, 2, 50, 0
2, 33890, Note_on_c, 2, 70, 0
2, 33912, Note_on_c, 2, 47, 66
2, 33916, Note_on_c, 2, 48, 0
2, 33938, Note_on_c, 2, 74, 57
2, 33964, Note_on_c, 2, 75, 53
2, 33967, Note_on_c, 2, 47, 0
2, 33971, Note_on_c, 2, 74, 0
2, 33989, Note_on_c, 2, 77, 47
2, 33997, Note_on_c, 2, 75, 0
2, 34015, Note_on_c, 2, 77, 0
2, 34016, Note_on_c, 2, 71, 57
2, 34042, Note_on_c, 2, 72, 50
2, 34056, Note_on_c, 2, 71, 0
2, 34068, Note_on_c, 2, 74, 53
2, 34071, Note_on_c, 2, 72, 0
2, 34094, Note_on_c, 2, 65, 63
2, 34097, Note_on_c, 2, 74, 0
2, 34123, Note_on_c, 2, 67, 47
2, 34138, Note_on_c, 2, 65, 0
2, 34149, Note_on_c, 2, 68, 49
2, 34152, Note_on_c, 2, 67, 0
2, 34167, Control_c, 2, 64, 127
2, 34174, Note_on_c, 2, 68, 0
2, 34174, Note_on_c, 2, 62, 57
2, 34200, Note_on_c, 2, 65, 57
2, 34212, Note_on_c, 2, 62, 0
2, 34230, Note_on_c, 2, 48, 56
2, 34230, Note_on_c, 2, 64, 79
2, 34234, Note_on_c, 2, 65, 0
2, 34238, Control_c, 2, 64, 0
2, 34256, Note_on_c, 2, 50, 56
2, 34264, Note_on_c, 2, 48, 0
2, 34282, Note_on_c, 2, 52, 65
2, 34290, Note_on_c, 2, 50, 0
2, 34308, Note_on_c, 2, 53, 83
2, 34319, Note_on_c, 2, 52, 0
2, 34334, Note_on_c, 2, 55, 66
2, 34338, Note_on_c, 2, 53, 0
2, 34360, Note_on_c, 2, 57, 62
2, 34367, Note_on_c, 2, 55, 0
2, 34378, Note_on_c, 2, 57, 0
2, 34390, Note_on_c, 2, 58, 70
2, 34415, Note_on_c, 2, 58, 0
2, 34415, Note_on_c, 2, 57, 49
2, 34445, Note_on_c, 2, 55, 49
2, 34449, Note_on_c, 2, 57, 0
2, 34471, Note_on_c, 2, 53, 59
2, 34474, Note_on_c, 2, 55, 0
2, 34497, Note_on_c, 2, 52, 40
2, 34508, Note_on_c, 2, 53, 0
2, 34523, Control_c, 2, 64, 127
2, 34523, Note_on_c, 2, 50, 57
2, 34530, Note_on_c, 2, 52, 0
2, 34534, Note_on_c, 2, 50, 0
2, 34534, Note_on_c, 2, 64, 0
2, 34564, Note_on_c, 2, 49, 65
2, 34571, Control_c, 2, 64, 0
2, 34593, Note_on_c, 2, 79, 47
2, 34593, Note_on_c, 2, 82, 51
2, 34620, Note_on_c, 2, 81, 53
2, 34626, Note_on_c, 2, 82, 0
2, 34626, Note_on_c, 2, 79, 0
2, 34645, Note_on_c, 2, 82, 49
2, 34652, Note_on_c, 2, 81, 0
2, 34657, Control_c, 2, 64, 127
2, 34671, Note_on_c, 2, 82, 0
2, 34671, Note_on_c, 2, 81, 54
2, 34701, Note_on_c, 2, 82, 55
2, 34704, Note_on_c, 2, 81, 0
2, 34708, Note_on_c, 2, 82, 0
2, 34730, Note_on_c, 2, 49, 0
2, 34734, Note_on_c, 2, 61, 63
2, 34757, Control_c, 2, 64, 0
2, 34764, Note_on_c, 2, 70, 60
2, 34764, Note_on_c, 2, 67, 54
2, 34786, Control_c, 2, 64, 127
2, 34790, Note_on_c, 2, 70, 0
2, 34790, Note_on_c, 2, 69, 57
2, 34797, Note_on_c, 2, 67, 0
2, 34816, Note_on_c, 2, 69, 0
2, 34816, Note_on_c, 2, 70, 57
2, 34826, Note_on_c, 2, 61, 0
2, 34838, Note_on_c, 2, 70, 0
2, 34841, Note_on_c, 2, 69, 41
2, 34860, Note_on_c, 2, 70, 46
2, 34864, Note_on_c, 2, 69, 0
2, 34886, Note_on_c, 2, 70, 0
2, 34890, Control_c, 2, 64, 0
2, 34893, Note_on_c, 2, 62, 57
2, 34894, Note_on_c, 2, 69, 49
2, 34894, Note_on_c, 2, 66, 44
2, 34908, Control_c, 2, 64, 127
2, 34919, Note_on_c, 2, 62, 0
2, 34920, Note_on_c, 2, 66, 0
2, 34927, Note_on_c, 2, 69, 0
2, 34945, Control_c, 2, 64, 0
2, 34986, Note_on_c, 2, 60, 70
2, 34986, Note_on_c, 2, 66, 79
2, 34987, Note_on_c, 2, 69, 68
2, 34987, Note_on_c, 2, 75, 66
2, 34990, Note_on_c, 2, 48, 57
2, 34991, Note_on_c, 2, 47, 68
2, 34997, Note_on_c, 2, 47, 0
2, 35112, Control_c, 2, 64, 127
2, 35146, Note_on_c, 2, 66, 0
2, 35146, Note_on_c, 2, 69, 0
2, 35164, Note_on_c, 2, 48, 0
2, 35164, Note_on_c, 2, 75, 0
2, 35167, Note_on_c, 2, 60, 0
2, 35301, Control_c, 2, 64, 0
2, 35327, Note_on_c, 2, 58, 40
2, 35327, Note_on_c, 2, 46, 48
2, 35330, Note_on_c, 2, 74, 65
2, 35353, Note_on_c, 2, 79, 53
2, 35364, Note_on_c, 2, 74, 0
2, 35375, Note_on_c, 2, 78, 55
2, 35379, Note_on_c, 2, 79, 0
2, 35383, Control_c, 2, 64, 127
2, 35398, Note_on_c, 2, 79, 45
2, 35404, Note_on_c, 2, 78, 0
2, 35419, Note_on_c, 2, 81, 43
2, 35423, Note_on_c, 2, 79, 0
2, 35442, Note_on_c, 2, 79, 47
2, 35445, Note_on_c, 2, 81, 0
2, 35460, Note_on_c, 2, 79, 0
2, 35460, Note_on_c, 2, 78, 60
2, 35478, Note_on_c, 2, 79, 46
2, 35482, Note_on_c, 2, 78, 0
2, 35501, Note_on_c, 2, 82, 59
2, 35505, Note_on_c, 2, 79, 0
2, 35523, Note_on_c, 2, 82, 0
2, 35523, Note_on_c, 2, 79, 51
2, 35538, Note_on_c, 2, 46, 0
2, 35545, Note_on_c, 2, 79, 0
2, 35546, Note_on_c, 2, 78, 56
2, 35549, Note_on_c, 2, 58, 0
2, 35564, Note_on_c, 2, 79, 45
2, 35568, Note_on_c, 2, 78, 0
2, 35590, Note_on_c, 2, 48, 47
2, 35594, Note_on_c, 2, 60, 50
2, 35594, Note_on_c, 2, 81, 55
2, 35597, Note_on_c, 2, 79, 0
2, 35612, Note_on_c, 2, 79, 46
2, 35616, Control_c, 2, 64, 0
2, 35620, Note_on_c, 2, 81, 0
2, 35638, Note_on_c, 2, 78, 53
2, 35639, Control_c, 2, 64, 127
2, 35642, Note_on_c, 2, 79, 0
2, 35649, Note_on_c, 2, 60, 0
2, 35656, Note_on_c, 2, 48, 0
2, 35664, Note_on_c, 2, 78, 0
2, 35664, Note_on_c, 2, 79, 43
2, 35686, Note_on_c, 2, 79, 0
2, 35686, Note_on_c, 2, 46, 54
2, 35687, Note_on_c, 2, 58, 63
2, 35690, Note_on_c, 2, 74, 59
2, 35709, Control_c, 2, 64, 0
2, 35709, Note_on_c, 2, 79, 49
2, 35720, Note_on_c, 2, 74, 0
2, 35731, Note_on_c, 2, 78, 57
2, 35734, Control_c, 2, 64, 127
2, 35738, Note_on_c, 2, 79, 0
2, 35753, Note_on_c, 2, 79, 46
2, 35760, Note_on_c, 2, 78, 0
2, 35779, Note_on_c, 2, 81, 54
2, 35783, Note_on_c, 2, 79, 0
2, 35798, Note_on_c, 2, 79, 53
2, 35804, Note_on_c, 2, 81, 0
2, 35820, Note_on_c, 2, 78, 59
2, 35823, Note_on_c, 2, 79, 0
2, 35842, Note_on_c, 2, 79, 46
2, 35849, Note_on_c, 2, 78, 0
2, 35868, Note_on_c, 2, 82, 55
2, 35875, Note_on_c, 2, 79, 0
2, 35890, Note_on_c, 2, 79, 42
2, 35898, Note_on_c, 2, 82, 0
2, 35905, Note_on_c, 2, 46, 0
2, 35912, Note_on_c, 2, 58, 0
2, 35912, Note_on_c, 2, 78, 55
2, 35916, Note_on_c, 2, 79, 0
2, 35938, Note_on_c, 2, 79, 35
2, 35946, Note_on_c, 2, 78, 0
2, 35964, Note_on_c, 2, 79, 0
2, 35964, Note_on_c, 2, 72, 65
2, 35964, Note_on_c, 2, 51, 53
2, 35964, Note_on_c, 2, 63, 50
2, 35979, Control_c, 2, 64, 0
2, 35987, Note_on_c, 2, 79, 52
2, 35997, Control_c, 2, 64, 127
2, 36001, Note_on_c, 2, 51, 0
2, 36008, Note_on_c, 2, 63, 0
2, 36012, Note_on_c, 2, 78, 45
2, 36020, Note_on_c, 2, 79, 0
2, 36030, Note_on_c, 2, 72, 0
2, 36038, Note_on_c, 2, 78, 0
2, 36038, Note_on_c, 2, 79, 46
2, 36049, Note_on_c, 2, 79, 0
2, 36064, Note_on_c, 2, 62, 54
2, 36065, Note_on_c, 2, 70, 66
2, 36079, Control_c, 2, 64, 0
2, 36086, Note_on_c, 2, 67, 52
2, 36094, Control_c, 2, 64, 127
2, 36105, Note_on_c, 2, 82, 57
2, 36105, Note_on_c, 2, 66, 56
2, 36108, Note_on_c, 2, 67, 0
2, 36112, Note_on_c, 2, 70, 0
2, 36127, Note_on_c, 2, 62, 0
2, 36128, Note_on_c, 2, 67, 53
2, 36135, Note_on_c, 2, 66, 0
2, 36142, Note_on_c, 2, 67, 0
2, 36149, Note_on_c, 2, 82, 0
2, 36150, Note_on_c, 2, 62, 59
2, 36150, Note_on_c, 2, 71, 59
2, 36172, Note_on_c, 2, 67, 54
2, 36190, Note_on_c, 2, 67, 0
2, 36190, Note_on_c, 2, 66, 63
2, 36194, Note_on_c, 2, 83, 57
2, 36197, Note_on_c, 2, 71, 0
2, 36216, Note_on_c, 2, 62, 0
2, 36216, Note_on_c, 2, 67, 54
2, 36227, Note_on_c, 2, 66, 0
2, 36234, Note_on_c, 2, 83, 0
2, 36235, Note_on_c, 2, 72, 55
2, 36238, Note_on_c, 2, 60, 65
2, 36242, Note_on_c, 2, 67, 0
2, 36250, Control_c, 2, 64, 0
2, 36257, Note_on_c, 2, 67, 47
2, 36264, Control_c, 2, 64, 127
2, 36279, Note_on_c, 2, 66, 55
2, 36279, Note_on_c, 2, 75, 65
2, 36282, Note_on_c, 2, 67, 0
2, 36286, Note_on_c, 2, 72, 0
2, 36286, Note_on_c, 2, 60, 0
2, 36309, Note_on_c, 2, 66, 0
2, 36309, Note_on_c, 2, 60, 52
2, 36357, Note_on_c, 2, 66, 42
2, 36372, Note_on_c, 2, 74, 48
2, 36376, Note_on_c, 2, 60, 0
2, 36379, Note_on_c, 2, 75, 0
2, 36379, Note_on_c, 2, 67, 40
2, 36387, Note_on_c, 2, 67, 0
2, 36394, Note_on_c, 2, 72, 65
2, 36398, Note_on_c, 2, 74, 0
2, 36401, Note_on_c, 2, 66, 0
2, 36412, Note_on_c, 2, 72, 0
2, 36412, Note_on_c, 2, 60, 68
2, 36412, Note_on_c, 2, 75, 65
2, 36428, Note_on_c, 2, 77, 52
2, 36431, Note_on_c, 2, 75, 0
2, 36431, Control_c, 2, 64, 0
2, 36435, Note_on_c, 2, 67, 40
2, 36442, Note_on_c, 2, 75, 48
2, 36446, Note_on_c, 2, 77, 0
2, 36446, Control_c, 2, 64, 127
2, 36453, Note_on_c, 2, 77, 53
2, 36457, Note_on_c, 2, 75, 0
2, 36461, Note_on_c, 2, 67, 0
2, 36468, Note_on_c, 2, 75, 59
2, 36468, Note_on_c, 2, 66, 25
2, 36472, Note_on_c, 2, 77, 0
2, 36479, Note_on_c, 2, 60, 0
2, 36483, Note_on_c, 2, 75, 0
2, 36487, Note_on_c, 2, 77, 26
2, 36494, Note_on_c, 2, 66, 0
2, 36501, Note_on_c, 2, 75, 55
2, 36501, Note_on_c, 2, 60, 63
2, 36505, Note_on_c, 2, 77, 0
2, 36523, Note_on_c, 2, 66, 45
2, 36542, Note_on_c, 2, 74, 53
2, 36546, Note_on_c, 2, 60, 0
2, 36549, Note_on_c, 2, 75, 0
2, 36560, Note_on_c, 2, 74, 0
2, 36560, Note_on_c, 2, 72, 65
2, 36576, Note_on_c, 2, 72, 0
2, 36576, Note_on_c, 2, 66, 0
2, 36580, Note_on_c, 2, 62, 59
2, 36580, Note_on_c, 2, 70, 79
2, 36591, Control_c, 2, 64, 0
2, 36605, Note_on_c, 2, 67, 41
2, 36608, Control_c, 2, 64, 127
2, 36620, Note_on_c, 2, 67, 0
2, 36620, Note_on_c, 2, 66, 54
2, 36638, Note_on_c, 2, 70, 0
2, 36638, Note_on_c, 2, 62, 0
2, 36646, Note_on_c, 2, 66, 0
2, 36660, Note_on_c, 2, 62, 56
2, 36664, Note_on_c, 2, 69, 62
2, 36676, Note_on_c, 2, 70, 66
2, 36679, Note_on_c, 2, 69, 0
2, 36683, Note_on_c, 2, 66, 54
2, 36690, Note_on_c, 2, 70, 0
2, 36690, Note_on_c, 2, 69, 55
2, 36702, Note_on_c, 2, 69, 0
2, 36702, Note_on_c, 2, 70, 57
2, 36705, Note_on_c, 2, 62, 0
2, 36716, Note_on_c, 2, 70, 0
2, 36716, Note_on_c, 2, 69, 54
2, 36728, Note_on_c, 2, 66, 0
2, 36731, Note_on_c, 2, 69, 0
2, 36742, Note_on_c, 2, 62, 65
2, 36742, Note_on_c, 2, 70, 68
2, 36765, Control_c, 2, 64, 0
2, 36765, Note_on_c, 2, 66, 57
2, 36783, Control_c, 2, 64, 127
2, 36787, Note_on_c, 2, 67, 48
2, 36790, Note_on_c, 2, 66, 0
2, 36809, Note_on_c, 2, 70, 0
2, 36812, Note_on_c, 2, 62, 0
2, 36812, Note_on_c, 2, 67, 0
2, 36828, Note_on_c, 2, 62, 60
2, 36828, Note_on_c, 2, 71, 55
2, 36864, Note_on_c, 2, 66, 36
2, 36876, Note_on_c, 2, 62, 0
2, 36876, Note_on_c, 2, 67, 47
2, 36879, Note_on_c, 2, 66, 0
2, 36909, Note_on_c, 2, 67, 0
2, 36909, Note_on_c, 2, 60, 65
2, 36910, Note_on_c, 2, 72, 62
2, 36913, Note_on_c, 2, 71, 0
2, 36913, Control_c, 2, 64, 0
2, 36931, Control_c, 2, 64, 127
2, 36931, Note_on_c, 2, 67, 48
2, 36938, Note_on_c, 2, 60, 0
2, 36946, Note_on_c, 2, 66, 55
2, 36953, Note_on_c, 2, 67, 0
2, 36953, Note_on_c, 2, 75, 53
2, 36957, Note_on_c, 2, 72, 0
2, 36986, Note_on_c, 2, 66, 0
2, 36990, Note_on_c, 2, 60, 62
2, 37024, Note_on_c, 2, 66, 40
2, 37028, Note_on_c, 2, 60, 0
2, 37028, Note_on_c, 2, 74, 57
2, 37031, Note_on_c, 2, 75, 0
2, 37046, Note_on_c, 2, 74, 0
2, 37046, Note_on_c, 2, 72, 60
2, 37057, Note_on_c, 2, 66, 0
2, 37064, Note_on_c, 2, 72, 0
2, 37064, Note_on_c, 2, 62, 63
2, 37068, Note_on_c, 2, 75, 70
2, 37083, Control_c, 2, 64, 0
2, 37094, Note_on_c, 2, 75, 0
2, 37098, Control_c, 2, 64, 127
2, 37102, Note_on_c, 2, 66, 45
2, 37105, Note_on_c, 2, 74, 16
2, 37109, Note_on_c, 2, 74, 0
2, 37112, Note_on_c, 2, 72, 52
2, 37116, Note_on_c, 2, 62, 0
2, 37120, Note_on_c, 2, 74, 40
2, 37124, Note_on_c, 2, 72, 0
2, 37127, Note_on_c, 2, 74, 0
2, 37135, Note_on_c, 2, 74, 42
2, 37139, Note_on_c, 2, 66, 0
2, 37139, Note_on_c, 2, 75, 45
2, 37142, Note_on_c, 2, 74, 0
2, 37146, Note_on_c, 2, 62, 56
2, 37172, Note_on_c, 2, 75, 0
2, 37190, Note_on_c, 2, 74, 60
2, 37190, Note_on_c, 2, 66, 35
2, 37202, Note_on_c, 2, 62, 0
2, 37209, Note_on_c, 2, 74, 0
2, 37209, Note_on_c, 2, 72, 45
2, 37212, Note_on_c, 2, 66, 0
2, 37228, Note_on_c, 2, 62, 65
2, 37228, Note_on_c, 2, 70, 83
2, 37231, Note_on_c, 2, 72, 0
2, 37243, Control_c, 2, 64, 0
2, 37250, Note_on_c, 2, 67, 40
2, 37254, Control_c, 2, 64, 127
2, 37260, Note_on_c, 2, 67, 0
2, 37264, Note_on_c, 2, 66, 52
2, 37275, Note_on_c, 2, 70, 0
2, 37280, Note_on_c, 2, 62, 0
2, 37283, Note_on_c, 2, 67, 45
2, 37290, Note_on_c, 2, 66, 0
2, 37298, Note_on_c, 2, 67, 0
2, 37305, Note_on_c, 2, 62, 66
2, 37309, Note_on_c, 2, 69, 53
2, 37316, Note_on_c, 2, 69, 0
2, 37316, Note_on_c, 2, 70, 56
2, 37324, Note_on_c, 2, 66, 42
2, 37328, Note_on_c, 2, 70, 0
2, 37328, Note_on_c, 2, 67, 45
2, 37328, Note_on_c, 2, 69, 48
2, 37331, Note_on_c, 2, 62, 0
2, 37335, Note_on_c, 2, 69, 0
2, 37335, Note_on_c, 2, 70, 52
2, 37339, Note_on_c, 2, 67, 0
2, 37339, Note_on_c, 2, 66, 0
2, 37350, Note_on_c, 2, 70, 0
2, 37357, Note_on_c, 2, 69, 19
2, 37365, Note_on_c, 2, 69, 0
2, 37383, Control_c, 2, 64, 0
2, 37383, Note_on_c, 2, 69, 53
2, 37395, Note_on_c, 2, 67, 63
2, 37398, Note_on_c, 2, 69, 0
2, 37398, Control_c, 2, 64, 127
2, 37435, Note_on_c, 2, 55, 50
2, 37454, Note_on_c, 2, 55, 0
2, 37480, Note_on_c, 2, 62, 54
2, 37480, Note_on_c, 2, 58, 59
2, 37490, Note_on_c, 2, 62, 0
2, 37491, Note_on_c, 2, 58, 0
2, 37491, Note_on_c, 2, 67, 0
2, 37520, Note_on_c, 2, 67, 65
2, 37535, Note_on_c, 2, 67, 0
2, 37561, Note_on_c, 2, 70, 72
2, 37606, Note_on_c, 2, 55, 54
2, 37628, Note_on_c, 2, 55, 0
2, 37628, Control_c, 2, 64, 0
2, 37643, Control_c, 2, 64, 127
2, 37646, Note_on_c, 2, 58, 57
2, 37650, Note_on_c, 2, 55, 38
2, 37657, Note_on_c, 2, 55, 0
2, 37661, Note_on_c, 2, 58, 0
2, 37665, Note_on_c, 2, 70, 0
2, 37687, Note_on_c, 2, 70, 54
2, 37702, Note_on_c, 2, 70, 0
2, 37728, Note_on_c, 2, 75, 60
2, 37765, Note_on_c, 2, 55, 49
2, 37783, Note_on_c, 2, 55, 0
2, 37810, Note_on_c, 2, 63, 55
2, 37810, Note_on_c, 2, 58, 55
2, 37820, Note_on_c, 2, 63, 0
2, 37820, Note_on_c, 2, 75, 0
2, 37821, Note_on_c, 2, 58, 0
2, 37851, Note_on_c, 2, 75, 45
2, 37895, Note_on_c, 2, 75, 0
2, 37898, Note_on_c, 2, 79, 55
2, 37936, Note_on_c, 2, 55, 47
2, 37961, Note_on_c, 2, 55, 0
2, 37987, Note_on_c, 2, 63, 41
2, 37988, Note_on_c, 2, 58, 54
2, 37994, Note_on_c, 2, 79, 0
2, 37998, Note_on_c, 2, 58, 0
2, 37998, Note_on_c, 2, 63, 0
2, 38032, Note_on_c, 2, 79, 47
2, 38058, Note_on_c, 2, 53, 39
2, 38073, Note_on_c, 2, 56, 48
2, 38080, Note_on_c, 2, 62, 40
2, 38080, Note_on_c, 2, 58, 31
2, 38098, Note_on_c, 2, 79, 0
2, 38102, Control_c, 2, 64, 0
2, 38109, Note_on_c, 2, 80, 62
2, 38128, Note_on_c, 2, 80, 0
2, 38128, Note_on_c, 2, 82, 57
2, 38136, Control_c, 2, 64, 127
2, 38150, Note_on_c, 2, 80, 66
2, 38154, Note_on_c, 2, 82, 0
2, 38172, Note_on_c, 2, 80, 0
2, 38172, Note_on_c, 2, 79, 62
2, 38191, Note_on_c, 2, 79, 0
2, 38191, Note_on_c, 2, 77, 72
2, 38210, Note_on_c, 2, 77, 0
2, 38213, Note_on_c, 2, 79, 56
2, 38228, Note_on_c, 2, 79, 0
2, 38232, Note_on_c, 2, 77, 65
2, 38254, Note_on_c, 2, 75, 66
2, 38258, Note_on_c, 2, 77, 0
2, 38276, Note_on_c, 2, 75, 0
2, 38276, Note_on_c, 2, 74, 79
2, 38298, Note_on_c, 2, 75, 62
2, 38302, Note_on_c, 2, 74, 0
2, 38321, Note_on_c, 2, 74, 70
2, 38324, Note_on_c, 2, 75, 0
2, 38339, Note_on_c, 2, 74, 0
2, 38339, Note_on_c, 2, 72, 70
2, 38361, Note_on_c, 2, 70, 65
2, 38365, Note_on_c, 2, 72, 0
2, 38380, Note_on_c, 2, 70, 0
2, 38383, Note_on_c, 2, 72, 54
2, 38391, Note_on_c, 2, 62, 0
2, 38391, Note_on_c, 2, 53, 0
2, 38394, Note_on_c, 2, 58, 0
2, 38398, Note_on_c, 2, 56, 0
2, 38409, Note_on_c, 2, 70, 68
2, 38413, Note_on_c, 2, 72, 0
2, 38432, Note_on_c, 2, 68, 54
2, 38436, Note_on_c, 2, 70, 0
2, 38450, Note_on_c, 2, 68, 0
2, 38454, Note_on_c, 2, 55, 65
2, 38469, Control_c, 2, 64, 0
2, 38472, Note_on_c, 2, 67, 55
2, 38488, Control_c, 2, 64, 127
2, 38495, Note_on_c, 2, 68, 54
2, 38506, Note_on_c, 2, 55, 0
2, 38514, Note_on_c, 2, 68, 0
2, 38514, Note_on_c, 2, 67, 0
2, 38521, Note_on_c, 2, 67, 53
2, 38535, Note_on_c, 2, 58, 66
2, 38554, Control_c, 2, 64, 0
2, 38561, Note_on_c, 2, 70, 55
2, 38572, Control_c, 2, 64, 127
2, 38576, Note_on_c, 2, 67, 0
2, 38584, Note_on_c, 2, 72, 53
2, 38587, Note_on_c, 2, 70, 0
2, 38591, Note_on_c, 2, 58, 0
2, 38606, Note_on_c, 2, 70, 57
2, 38610, Note_on_c, 2, 72, 0
2, 38620, Note_on_c, 2, 70, 0
2, 38624, Note_on_c, 2, 63, 63
2, 38639, Control_c, 2, 64, 0
2, 38643, Note_on_c, 2, 75, 46
2, 38658, Control_c, 2, 64, 127
2, 38665, Note_on_c, 2, 77, 48
2, 38669, Note_on_c, 2, 75, 0
2, 38687, Note_on_c, 2, 75, 55
2, 38691, Note_on_c, 2, 77, 0
2, 38698, Note_on_c, 2, 75, 0
2, 38706, Note_on_c, 2, 67, 60
2, 38709, Note_on_c, 2, 63, 0
2, 38732, Control_c, 2, 64, 0
2, 38732, Note_on_c, 2, 79, 55
2, 38754, Control_c, 2, 64, 127
2, 38761, Note_on_c, 2, 80, 52
2, 38765, Note_on_c, 2, 79, 0
2, 38769, Note_on_c, 2, 67, 0
2, 38791, Note_on_c, 2, 80, 0
2, 38791, Note_on_c, 2, 79, 53
2, 38828, Note_on_c, 2, 56, 43
2, 38843, Note_on_c, 2, 56, 0
2, 38843, Note_on_c, 2, 58, 35
2, 38844, Note_on_c, 2, 53, 54
2, 38844, Note_on_c, 2, 62, 2
2, 38861, Note_on_c, 2, 56, 11
2, 38869, Note_on_c, 2, 80, 46
2, 38872, Note_on_c, 2, 79, 0
2, 38876, Control_c, 2, 64, 0
2, 38887, Note_on_c, 2, 82, 47
2, 38891, Note_on_c, 2, 80, 0
2, 38910, Note_on_c, 2, 80, 55
2, 38910, Control_c, 2, 64, 127
2, 38913, Note_on_c, 2, 82, 0
2, 38928, Note_on_c, 2, 79, 63
2, 38932, Note_on_c, 2, 80, 0
2, 38950, Note_on_c, 2, 79, 0
2, 38950, Note_on_c, 2, 77, 60
2, 38969, Note_on_c, 2, 77, 0
2, 38972, Note_on_c, 2, 79, 54
2, 38987, Note_on_c, 2, 79, 0
2, 38988, Note_on_c, 2, 77, 59
2, 39010, Note_on_c, 2, 75, 68
2, 39013, Note_on_c, 2, 77, 0
2, 39032, Note_on_c, 2, 74, 72
2, 39035, Note_on_c, 2, 75, 0
2, 39054, Note_on_c, 2, 75, 55
2, 39058, Note_on_c, 2, 74, 0
2, 39076, Note_on_c, 2, 74, 60
2, 39084, Note_on_c, 2, 75, 0
2, 39098, Note_on_c, 2, 74, 0
2, 39098, Note_on_c, 2, 72, 66
2, 39102, Note_on_c, 2, 62, 0
2, 39102, Note_on_c, 2, 53, 0
2, 39106, Note_on_c, 2, 58, 0
2, 39110, Note_on_c, 2, 56, 0
2, 39121, Note_on_c, 2, 70, 66
2, 39124, Note_on_c, 2, 72, 0
2, 39139, Note_on_c, 2, 70, 0
2, 39140, Note_on_c, 2, 72, 39
2, 39169, Note_on_c, 2, 72, 0
2, 39169, Note_on_c, 2, 70, 60
2, 39191, Note_on_c, 2, 68, 47
2, 39195, Note_on_c, 2, 70, 0
2, 39210, Note_on_c, 2, 68, 0
2, 39236, Note_on_c, 2, 51, 31
2, 39236, Note_on_c, 2, 55, 49
2, 39236, Note_on_c, 2, 58, 55
2, 39236, Note_on_c, 2, 63, 46
2, 39236, Note_on_c, 2, 67, 62
2, 39236, Control_c, 2, 64, 0
2, 39258, Note_on_c, 2, 69, 45
2, 39276, Control_c, 2, 64, 127
2, 39280, Note_on_c, 2, 69, 0
2, 39280, Note_on_c, 2, 67, 0
2, 39280, Note_on_c, 2, 70, 59
2, 39299, Note_on_c, 2, 70, 0
2, 39299, Note_on_c, 2, 69, 63
2, 39321, Note_on_c, 2, 70, 62
2, 39325, Note_on_c, 2, 69, 0
2, 39343, Note_on_c, 2, 70, 0
2, 39344, Note_on_c, 2, 71, 53
2, 39362, Control_c, 2, 64, 0
2, 39365, Note_on_c, 2, 72, 62
2, 39369, Note_on_c, 2, 71, 0
2, 39384, Note_on_c, 2, 72, 0
2, 39384, Control_c, 2, 64, 127
2, 39388, Note_on_c, 2, 71, 57
2, 39406, Note_on_c, 2, 72, 56
2, 39414, Note_on_c, 2, 71, 0
2, 39424, Note_on_c, 2, 74, 54
2, 39432, Note_on_c, 2, 72, 0
2, 39450, Note_on_c, 2, 75, 45
2, 39454, Note_on_c, 2, 74, 0
2, 39469, Note_on_c, 2, 75, 0
2, 39473, Note_on_c, 2, 74, 53
2, 39491, Note_on_c, 2, 75, 57
2, 39495, Note_on_c, 2, 74, 0
2, 39498, Note_on_c, 2, 75, 0
2, 39510, Note_on_c, 2, 78, 65
2, 39528, Note_on_c, 2, 78, 0
2, 39536, Note_on_c, 2, 79, 52
2, 39554, Note_on_c, 2, 79, 0
2, 39554, Note_on_c, 2, 78, 46
2, 39576, Note_on_c, 2, 78, 0
2, 39577, Note_on_c, 2, 79, 47
2, 39580, Note_on_c, 2, 79, 0
2, 39595, Note_on_c, 2, 81, 45
2, 39618, Control_c, 2, 64, 0
2, 39618, Note_on_c, 2, 82, 59
2, 39624, Note_on_c, 2, 81, 0
2, 39632, Control_c, 2, 64, 127
2, 39640, Note_on_c, 2, 81, 53
2, 39643, Note_on_c, 2, 82, 0
2, 39662, Note_on_c, 2, 82, 41
2, 39666, Note_on_c, 2, 81, 0
2, 39684, Note_on_c, 2, 81, 41
2, 39688, Note_on_c, 2, 82, 0
2, 39702, Note_on_c, 2, 82, 42
2, 39706, Note_on_c, 2, 81, 0
2, 39725, Note_on_c, 2, 81, 54
2, 39729, Note_on_c, 2, 82, 0
2, 39747, Note_on_c, 2, 82, 46
2, 39750, Note_on_c, 2, 81, 0
2, 39759, Note_on_c, 2, 63, 0
2, 39761, Note_on_c, 2, 55, 0
2, 39769, Note_on_c, 2, 81, 54
2, 39773, Note_on_c, 2, 82, 0
2, 39781, Note_on_c, 2, 58, 0
2, 39791, Note_on_c, 2, 51, 0
2, 39792, Note_on_c, 2, 82, 46
2, 39795, Note_on_c, 2, 81, 0
2, 39817, Note_on_c, 2, 81, 42
2, 39821, Note_on_c, 2, 82, 0
2, 39847, Note_on_c, 2, 82, 39
2, 39851, Note_on_c, 2, 81, 0
2, 39854, Note_on_c, 2, 82, 0
2, 39903, Note_on_c, 2, 70, 42
2, 39906, Note_on_c, 2, 76, 50
2, 39906, Note_on_c, 2, 67, 45
2, 39907, Note_on_c, 2, 41, 22
2, 39907, Note_on_c, 2, 55, 31
2, 39907, Note_on_c, 2, 72, 52
2, 39914, Note_on_c, 2, 55, 0
2, 39914, Note_on_c, 2, 41, 0
2, 39914, Note_on_c, 2, 67, 0
2, 39917, Note_on_c, 2, 70, 0
2, 39917, Note_on_c, 2, 76, 0
2, 39918, Note_on_c, 2, 72, 0
2, 39962, Note_on_c, 2, 53, 19
2, 39966, Note_on_c, 2, 41, 42
2, 39966, Note_on_c, 2, 69, 45
2, 39966, Note_on_c, 2, 72, 54
2, 39966, Note_on_c, 2, 77, 57
2, 39966, Control_c, 2, 64, 0
2, 39991, Control_c, 2, 64, 127
2, 40002, Note_on_c, 2, 72, 0
2, 40002, Note_on_c, 2, 69, 0
2, 40010, Note_on_c, 2, 77, 0
2, 40017, Note_on_c, 2, 41, 0
2, 40021, Note_on_c, 2, 53, 0
2, 40106, Note_on_c, 2, 82, 37
2, 40114, Control_c, 2, 64, 0
2, 40125, Note_on_c, 2, 58, 42
2, 40125, Note_on_c, 2, 60, 37
2, 40129, Control_c, 2, 64, 127
2, 40129, Note_on_c, 2, 79, 36
2, 40136, Note_on_c, 2, 60, 0
2, 40140, Note_on_c, 2, 58, 0
2, 40143, Note_on_c, 2, 82, 0
2, 40147, Note_on_c, 2, 79, 0
2, 40151, Note_on_c, 2, 76, 36
2, 40166, Control_c, 2, 64, 0
2, 40173, Note_on_c, 2, 60, 44
2, 40174, Note_on_c, 2, 57, 46
2, 40174, Note_on_c, 2, 77, 45
2, 40181, Note_on_c, 2, 76, 0
2, 40192, Control_c, 2, 64, 127
2, 40225, Note_on_c, 2, 77, 0
2, 40232, Note_on_c, 2, 57, 0
2, 40232, Note_on_c, 2, 60, 0
2, 40306, Note_on_c, 2, 82, 40
2, 40328, Note_on_c, 2, 58, 44
2, 40332, Note_on_c, 2, 60, 45
2, 40332, Note_on_c, 2, 79, 55
2, 40340, Note_on_c, 2, 82, 0
2, 40343, Note_on_c, 2, 58, 0
2, 40343, Note_on_c, 2, 60, 0
2, 40351, Note_on_c, 2, 79, 0
2, 40354, Note_on_c, 2, 76, 46
2, 40362, Control_c, 2, 64, 0
2, 40377, Note_on_c, 2, 60, 45
2, 40377, Note_on_c, 2, 57, 54
2, 40378, Note_on_c, 2, 77, 50
2, 40384, Note_on_c, 2, 76, 0
2, 40388, Control_c, 2, 64, 127
2, 40447, Note_on_c, 2, 77, 0
2, 40503, Note_on_c, 2, 78, 45
2, 40525, Note_on_c, 2, 79, 59
2, 40532, Note_on_c, 2, 78, 0
2, 40547, Note_on_c, 2, 76, 45
2, 40548, Control_c, 2, 64, 0
2, 40562, Note_on_c, 2, 79, 0
2, 40573, Note_on_c, 2, 76, 0
2, 40573, Note_on_c, 2, 77, 53
2, 40577, Control_c, 2, 64, 127
2, 40592, Note_on_c, 2, 77, 0
2, 40592, Note_on_c, 2, 74, 53
2, 40614, Note_on_c, 2, 75, 53
2, 40618, Note_on_c, 2, 74, 0
2, 40636, Note_on_c, 2, 73, 59
2, 40640, Note_on_c, 2, 75, 0
2, 40654, Control_c, 2, 64, 0
2, 40658, Note_on_c, 2, 74, 40
2, 40666, Note_on_c, 2, 73, 0
2, 40680, Control_c, 2, 64, 127
2, 40684, Note_on_c, 2, 71, 33
2, 40714, Note_on_c, 2, 71, 0
2, 40714, Note_on_c, 2, 74, 0
2, 40714, Note_on_c, 2, 72, 43
2, 40722, Note_on_c, 2, 57, 0
2, 40725, Note_on_c, 2, 60, 0
2, 40736, Note_on_c, 2, 72, 0
2, 40740, Note_on_c, 2, 69, 31
2, 40762, Note_on_c, 2, 69, 0
2, 40788, Control_c, 2, 64, 0
2, 40792, Note_on_c, 2, 58, 42
2, 40792, Note_on_c, 2, 62, 34
2, 40807, Note_on_c, 2, 70, 33
2, 40810, Control_c, 2, 64, 127
2, 40822, Note_on_c, 2, 72, 49
2, 40825, Note_on_c, 2, 70, 0
2, 40840, Note_on_c, 2, 72, 0
2, 40840, Note_on_c, 2, 70, 55
2, 40859, Note_on_c, 2, 70, 0
2, 40859, Note_on_c, 2, 72, 47
2, 40877, Note_on_c, 2, 72, 0
2, 40877, Note_on_c, 2, 70, 55
2, 40892, Note_on_c, 2, 58, 0
2, 40895, Note_on_c, 2, 62, 0
2, 40900, Note_on_c, 2, 72, 48
2, 40906, Note_on_c, 2, 70, 0
2, 40925, Note_on_c, 2, 72, 0
2, 40926, Note_on_c, 2, 74, 48
2, 40951, Note_on_c, 2, 74, 0
2, 40951, Note_on_c, 2, 63, 37
2, 40952, Note_on_c, 2, 70, 41
2, 40952, Note_on_c, 2, 60, 43
2, 40966, Control_c, 2, 64, 0
2, 40973, Note_on_c, 2, 70, 0
2, 40974, Note_on_c, 2, 69, 45
2, 40999, Note_on_c, 2, 72, 46
2, 41006, Note_on_c, 2, 69, 0
2, 41021, Control_c, 2, 64, 127
2, 41025, Note_on_c, 2, 70, 31
2, 41032, Note_on_c, 2, 72, 0
2, 41051, Note_on_c, 2, 60, 0
2, 41051, Note_on_c, 2, 69, 39
2, 41055, Note_on_c, 2, 63, 0
2, 41055, Note_on_c, 2, 70, 0
2, 41073, Note_on_c, 2, 75, 37
2, 41099, Note_on_c, 2, 69, 0
2, 41103, Note_on_c, 2, 75, 0
2, 41103, Note_on_c, 2, 65, 32
2, 41104, Note_on_c, 2, 72, 41
2, 41104, Note_on_c, 2, 62, 41
2, 41110, Control_c, 2, 64, 0
2, 41129, Note_on_c, 2, 70, 41
2, 41132, Note_on_c, 2, 72, 0
2, 41151, Note_on_c, 2, 74, 50
2, 41162, Note_on_c, 2, 70, 0
2, 41177, Note_on_c, 2, 72, 49
2, 41184, Note_on_c, 2, 74, 0
2, 41199, Note_on_c, 2, 70, 40
2, 41207, Note_on_c, 2, 72, 0
2, 41225, Note_on_c, 2, 77, 51
2, 41259, Note_on_c, 2, 77, 0
2, 41259, Note_on_c, 2, 74, 52
2, 41262, Control_c, 2, 64, 127
2, 41292, Note_on_c, 2, 70, 0
2, 41295, Note_on_c, 2, 65, 0
2, 41303, Note_on_c, 2, 74, 0
2, 41307, Note_on_c, 2, 62, 0
2, 41392, Control_c, 2, 64, 0
2, 41407, Note_on_c, 2, 70, 26
2, 41414, Note_on_c, 2, 63, 36
2, 41414, Note_on_c, 2, 75, 47
2, 41414, Note_on_c, 2, 51, 47
2, 41416, Note_on_c, 2, 79, 56
2, 41425, Note_on_c, 2, 63, 0
2, 41425, Note_on_c, 2, 70, 0
2, 41429, Note_on_c, 2, 75, 0
2, 41429, Control_c, 2, 64, 127
2, 41433, Note_on_c, 2, 51, 0
2, 41433, Note_on_c, 2, 79, 0
2, 41440, Control_c, 2, 64, 0
2, 41488, Note_on_c, 2, 70, 34
2, 41495, Note_on_c, 2, 74, 40
2, 41495, Note_on_c, 2, 46, 46
2, 41495, Note_on_c, 2, 58, 40
2, 41499, Note_on_c, 2, 77, 56
2, 41503, Control_c, 2, 64, 127
2, 41507, Note_on_c, 2, 74, 0
2, 41510, Note_on_c, 2, 70, 0
2, 41536, Note_on_c, 2, 77, 0
2, 41581, Note_on_c, 2, 77, 72
2, 41603, Note_on_c, 2, 82, 55
2, 41610, Note_on_c, 2, 77, 0
2, 41621, Note_on_c, 2, 82, 0
2, 41621, Note_on_c, 2, 81, 68
2, 41640, Note_on_c, 2, 82, 59
2, 41648, Note_on_c, 2, 81, 0
2, 41658, Note_on_c, 2, 86, 59
2, 41662, Note_on_c, 2, 82, 0
2, 41670, Note_on_c, 2, 58, 0
2, 41680, Note_on_c, 2, 46, 0
2, 41681, Note_on_c, 2, 82, 65
2, 41684, Note_on_c, 2, 86, 0
2, 41700, Note_on_c, 2, 82, 0
2, 41703, Note_on_c, 2, 81, 49
2, 41722, Note_on_c, 2, 82, 47
2, 41726, Note_on_c, 2, 81, 0
2, 41732, Note_on_c, 2, 82, 0
2, 41744, Note_on_c, 2, 41, 45
2, 41744, Note_on_c, 2, 53, 46
2, 41744, Note_on_c, 2, 74, 57
2, 41747, Note_on_c, 2, 77, 68
2, 41751, Control_c, 2, 64, 0
2, 41755, Note_on_c, 2, 74, 0
2, 41755, Note_on_c, 2, 41, 0
2, 41755, Note_on_c, 2, 53, 0
2, 41756, Note_on_c, 2, 77, 0
2, 41785, Note_on_c, 2, 75, 55
2, 41785, Note_on_c, 2, 72, 56
2, 41796, Note_on_c, 2, 72, 0
2, 41796, Note_on_c, 2, 75, 0
2, 41844, Note_on_c, 2, 58, 24
2, 41844, Note_on_c, 2, 70, 31
2, 41845, Note_on_c, 2, 74, 40
2, 41845, Note_on_c, 2, 46, 36
2, 41866, Control_c, 2, 64, 127
2, 41944, Note_on_c, 2, 70, 0
2, 41947, Note_on_c, 2, 58, 0
2, 41947, Note_on_c, 2, 74, 0
2, 41955, Note_on_c, 2, 46, 0
2, 42100, Note_on_c, 2, 46, 54
2, 42100, Note_on_c, 2, 50, 46
2, 42100, Control_c, 2, 64, 0
2, 42107, Note_on_c, 2, 58, 60
2, 42122, Note_on_c, 2, 60, 54
2, 42126, Note_on_c, 2, 58, 0
2, 42126, Control_c, 2, 64, 127
2, 42140, Note_on_c, 2, 60, 0
2, 42141, Note_on_c, 2, 58, 57
2, 42159, Note_on_c, 2, 58, 0
2, 42159, Note_on_c, 2, 60, 51
2, 42181, Note_on_c, 2, 58, 63
2, 42185, Note_on_c, 2, 60, 0
2, 42185, Note_on_c, 2, 46, 0
2, 42192, Note_on_c, 2, 50, 0
2, 42207, Note_on_c, 2, 60, 46
2, 42214, Note_on_c, 2, 58, 0
2, 42229, Note_on_c, 2, 60, 0
2, 42230, Note_on_c, 2, 62, 53
2, 42252, Note_on_c, 2, 51, 36
2, 42255, Note_on_c, 2, 62, 0
2, 42255, Note_on_c, 2, 58, 53
2, 42256, Note_on_c, 2, 48, 42
2, 42259, Control_c, 2, 64, 0
2, 42277, Note_on_c, 2, 57, 45
2, 42281, Note_on_c, 2, 58, 0
2, 42299, Note_on_c, 2, 60, 45
2, 42310, Note_on_c, 2, 57, 0
2, 42314, Control_c, 2, 64, 127
2, 42326, Note_on_c, 2, 58, 54
2, 42333, Note_on_c, 2, 60, 0
2, 42348, Note_on_c, 2, 51, 0
2, 42351, Note_on_c, 2, 48, 0
2, 42351, Note_on_c, 2, 57, 48
2, 42355, Note_on_c, 2, 58, 0
2, 42374, Note_on_c, 2, 63, 36
2, 42396, Note_on_c, 2, 63, 0
2, 42400, Note_on_c, 2, 53, 29
2, 42404, Note_on_c, 2, 50, 42
2, 42404, Note_on_c, 2, 60, 44
2, 42407, Note_on_c, 2, 57, 0
2, 42408, Control_c, 2, 64, 0
2, 42426, Note_on_c, 2, 58, 40
2, 42429, Note_on_c, 2, 60, 0
2, 42452, Note_on_c, 2, 62, 50
2, 42459, Note_on_c, 2, 58, 0
2, 42481, Note_on_c, 2, 60, 46
2, 42485, Note_on_c, 2, 62, 0
2, 42507, Note_on_c, 2, 58, 53
2, 42511, Note_on_c, 2, 60, 0
2, 42529, Note_on_c, 2, 65, 54
2, 42555, Note_on_c, 2, 65, 0
2, 42559, Note_on_c, 2, 62, 40
2, 42559, Control_c, 2, 64, 127
2, 42585, Note_on_c, 2, 58, 0
2, 42596, Note_on_c, 2, 50, 0
2, 42604, Note_on_c, 2, 53, 0
2, 42618, Note_on_c, 2, 62, 0
2, 42696, Note_on_c, 2, 51, 46
2, 42708, Note_on_c, 2, 55, 45
2, 42711, Control_c, 2, 64, 0
2, 42715, Note_on_c, 2, 60, 52
2, 42718, Note_on_c, 2, 67, 56
2, 42744, Note_on_c, 2, 72, 52
2, 42752, Note_on_c, 2, 67, 0
2, 42766, Note_on_c, 2, 75, 56
2, 42766, Control_c, 2, 64, 127
2, 42770, Note_on_c, 2, 72, 0
2, 42788, Note_on_c, 2, 75, 0
2, 42789, Note_on_c, 2, 72, 55
2, 42800, Note_on_c, 2, 51, 0
2, 42800, Note_on_c, 2, 55, 0
2, 42810, Note_on_c, 2, 60, 0
2, 42815, Note_on_c, 2, 75, 38
2, 42825, Note_on_c, 2, 72, 0
2, 42837, Note_on_c, 2, 75, 0
2, 42837, Note_on_c, 2, 79, 40
2, 42848, Note_on_c, 2, 79, 0
2, 42856, Control_c, 2, 64, 0
2, 42859, Note_on_c, 2, 53, 48
2, 42860, Note_on_c, 2, 62, 44
2, 42860, Note_on_c, 2, 79, 53
2, 42874, Control_c, 2, 64, 127
2, 42881, Note_on_c, 2, 77, 51
2, 42885, Note_on_c, 2, 79, 0
2, 42885, Note_on_c, 2, 53, 0
2, 42888, Note_on_c, 2, 62, 0
2, 42900, Note_on_c, 2, 75, 56
2, 42903, Note_on_c, 2, 77, 0
2, 42915, Note_on_c, 2, 74, 48
2, 42922, Note_on_c, 2, 75, 0
2, 42929, Note_on_c, 2, 74, 0
2, 42936, Note_on_c, 2, 63, 41
2, 42937, Note_on_c, 2, 74, 54
2, 42937, Control_c, 2, 64, 0
2, 42941, Note_on_c, 2, 52, 42
2, 42941, Note_on_c, 2, 53, 40
2, 42948, Note_on_c, 2, 52, 0
2, 42956, Note_on_c, 2, 74, 0
2, 42956, Control_c, 2, 64, 127
2, 42956, Note_on_c, 2, 72, 62
2, 42977, Note_on_c, 2, 70, 57
2, 42981, Note_on_c, 2, 63, 0
2, 42985, Note_on_c, 2, 72, 0
2, 42992, Note_on_c, 2, 53, 0
2, 42996, Note_on_c, 2, 70, 0
2, 42996, Note_on_c, 2, 69, 47
2, 43018, Note_on_c, 2, 62, 40
2, 43018, Control_c, 2, 64, 0
2, 43019, Note_on_c, 2, 70, 57
2, 43019, Note_on_c, 2, 58, 46
2, 43022, Note_on_c, 2, 69, 0
2, 43041, Control_c, 2, 64, 127
2, 43044, Note_on_c, 2, 62, 0
2, 43044, Note_on_c, 2, 58, 0
2, 43059, Note_on_c, 2, 58, 29
2, 43059, Note_on_c, 2, 62, 28
2, 43074, Note_on_c, 2, 62, 0
2, 43074, Note_on_c, 2, 58, 0
2, 43096, Note_on_c, 2, 62, 33
2, 43100, Note_on_c, 2, 58, 38
2, 43107, Note_on_c, 2, 62, 0
2, 43111, Note_on_c, 2, 58, 0
2, 43137, Note_on_c, 2, 62, 29
2, 43137, Note_on_c, 2, 58, 36
2, 43148, Note_on_c, 2, 58, 0
2, 43148, Note_on_c, 2, 62, 0
2, 43174, Note_on_c, 2, 62, 24
2, 43178, Note_on_c, 2, 58, 34
2, 43185, Note_on_c, 2, 62, 0
2, 43189, Note_on_c, 2, 58, 0
2, 43189, Note_on_c, 2, 70, 0
2, 43211, Note_on_c, 2, 62, 28
2, 43211, Note_on_c, 2, 70, 46
2, 43215, Note_on_c, 2, 58, 33
2, 43226, Note_on_c, 2, 62, 0
2, 43229, Note_on_c, 2, 58, 0
2, 43237, Note_on_c, 2, 70, 0
2, 43248, Note_on_c, 2, 62, 33
2, 43252, Note_on_c, 2, 58, 39
2, 43252, Note_on_c, 2, 69, 40
2, 43259, Note_on_c, 2, 58, 0
2, 43259, Note_on_c, 2, 62, 0
2, 43267, Note_on_c, 2, 69, 0
2, 43288, Note_on_c, 2, 68, 35
2, 43288, Note_on_c, 2, 58, 39
2, 43288, Note_on_c, 2, 62, 25
2, 43296, Note_on_c, 2, 62, 0
2, 43300, Note_on_c, 2, 58, 0
2, 43300, Note_on_c, 2, 68, 0
2, 43334, Note_on_c, 2, 63, 52
2, 43334, Note_on_c, 2, 58, 44
2, 43337, Note_on_c, 2, 67, 60
2, 43337, Control_c, 2, 64, 0
2, 43360, Control_c, 2, 64, 127
2, 43366, Note_on_c, 2, 63, 0
2, 43367, Note_on_c, 2, 58, 0
2, 43378, Note_on_c, 2, 63, 34
2, 43378, Note_on_c, 2, 69, 46
2, 43382, Note_on_c, 2, 58, 45
2, 43385, Note_on_c, 2, 67, 0
2, 43393, Note_on_c, 2, 63, 0
2, 43393, Note_on_c, 2, 58, 0
2, 43400, Note_on_c, 2, 70, 57
2, 43404, Note_on_c, 2, 69, 0
2, 43415, Note_on_c, 2, 70, 0
2, 43415, Note_on_c, 2, 63, 38
2, 43415, Note_on_c, 2, 58, 46
2, 43418, Note_on_c, 2, 72, 59
2, 43430, Note_on_c, 2, 58, 0
2, 43430, Note_on_c, 2, 63, 0
2, 43437, Note_on_c, 2, 74, 45
2, 43444, Note_on_c, 2, 72, 0
2, 43456, Note_on_c, 2, 63, 34
2, 43456, Note_on_c, 2, 75, 46
2, 43460, Note_on_c, 2, 58, 42
2, 43463, Note_on_c, 2, 74, 0
2, 43470, Note_on_c, 2, 63, 0
2, 43470, Note_on_c, 2, 58, 0
2, 43474, Note_on_c, 2, 75, 0
2, 43478, Note_on_c, 2, 77, 51
2, 43492, Note_on_c, 2, 63, 35
2, 43496, Note_on_c, 2, 58, 40
2, 43500, Note_on_c, 2, 79, 40
2, 43504, Note_on_c, 2, 77, 0
2, 43511, Note_on_c, 2, 63, 0
2, 43511, Note_on_c, 2, 58, 0
2, 43519, Note_on_c, 2, 81, 45
2, 43526, Note_on_c, 2, 79, 0
2, 43537, Note_on_c, 2, 63, 29
2, 43541, Note_on_c, 2, 58, 35
2, 43541, Note_on_c, 2, 82, 42
2, 43544, Note_on_c, 2, 81, 0
2, 43548, Note_on_c, 2, 63, 0
2, 43552, Note_on_c, 2, 58, 0
2, 43559, Note_on_c, 2, 81, 56
2, 43563, Note_on_c, 2, 82, 0
2, 43578, Note_on_c, 2, 63, 38
2, 43578, Note_on_c, 2, 58, 42
2, 43582, Note_on_c, 2, 81, 0
2, 43582, Note_on_c, 2, 82, 47
2, 43589, Note_on_c, 2, 58, 0
2, 43593, Note_on_c, 2, 63, 0
2, 43600, Note_on_c, 2, 82, 0
2, 43600, Note_on_c, 2, 81, 59
2, 43615, Note_on_c, 2, 63, 40
2, 43618, Note_on_c, 2, 58, 40
2, 43618, Note_on_c, 2, 82, 56
2, 43622, Note_on_c, 2, 81, 0
2, 43633, Note_on_c, 2, 63, 0
2, 43633, Note_on_c, 2, 58, 0
2, 43641, Note_on_c, 2, 79, 52
2, 43648, Note_on_c, 2, 82, 0
2, 43659, Note_on_c, 2, 62, 44
2, 43659, Note_on_c, 2, 77, 62
2, 43659, Note_on_c, 2, 58, 45
2, 43663, Note_on_c, 2, 79, 0
2, 43663, Control_c, 2, 64, 0
2, 43682, Note_on_c, 2, 62, 0
2, 43682, Note_on_c, 2, 58, 0
2, 43686, Control_c, 2, 64, 127
2, 43700, Note_on_c, 2, 58, 45
2, 43700, Note_on_c, 2, 62, 37
2, 43714, Note_on_c, 2, 62, 0
2, 43719, Note_on_c, 2, 58, 0
2, 43737, Note_on_c, 2, 58, 44
2, 43737, Note_on_c, 2, 62, 45
2, 43752, Note_on_c, 2, 62, 0
2, 43755, Note_on_c, 2, 58, 0
2, 43778, Note_on_c, 2, 58, 46
2, 43778, Note_on_c, 2, 62, 44
2, 43789, Note_on_c, 2, 62, 0
2, 43792, Note_on_c, 2, 58, 0
2, 43804, Note_on_c, 2, 77, 0
2, 43819, Note_on_c, 2, 58, 45
2, 43819, Note_on_c, 2, 62, 40
2, 43830, Note_on_c, 2, 62, 0
2, 43834, Note_on_c, 2, 58, 0
2, 43860, Note_on_c, 2, 62, 40
2, 43860, Note_on_c, 2, 58, 39
2, 43861, Note_on_c, 2, 70, 63
2, 43870, Note_on_c, 2, 58, 0
2, 43870, Note_on_c, 2, 62, 0
2, 43878, Note_on_c, 2, 70, 0
2, 43900, Note_on_c, 2, 62, 36
2, 43900, Note_on_c, 2, 58, 39
2, 43904, Note_on_c, 2, 69, 49
2, 43911, Note_on_c, 2, 69, 0
2, 43911, Note_on_c, 2, 58, 0
2, 43911, Note_on_c, 2, 62, 0
2, 43944, Note_on_c, 2, 58, 40
2, 43944, Note_on_c, 2, 62, 35
2, 43944, Note_on_c, 2, 68, 54
2, 43952, Note_on_c, 2, 62, 0
2, 43956, Note_on_c, 2, 68, 0
2, 43956, Note_on_c, 2, 58, 0
2, 43989, Control_c, 2, 64, 0
2, 43989, Note_on_c, 2, 63, 63
2, 43990, Note_on_c, 2, 58, 52
2, 43992, Note_on_c, 2, 67, 55
2, 44004, Control_c, 2, 64, 127
2, 44019, Note_on_c, 2, 58, 0
2, 44019, Note_on_c, 2, 63, 0
2, 44037, Note_on_c, 2, 63, 42
2, 44037, Note_on_c, 2, 58, 44
2, 44038, Note_on_c, 2, 69, 45
2, 44044, Note_on_c, 2, 67, 0
2, 44052, Note_on_c, 2, 63, 0
2, 44052, Note_on_c, 2, 58, 0
2, 44056, Note_on_c, 2, 70, 60
2, 44059, Note_on_c, 2, 69, 0
2, 44070, Note_on_c, 2, 70, 0
2, 44074, Note_on_c, 2, 63, 45
2, 44075, Note_on_c, 2, 72, 62
2, 44078, Note_on_c, 2, 58, 42
2, 44089, Note_on_c, 2, 63, 0
2, 44093, Note_on_c, 2, 58, 0
2, 44096, Note_on_c, 2, 74, 49
2, 44100, Note_on_c, 2, 72, 0
2, 44115, Note_on_c, 2, 63, 37
2, 44115, Note_on_c, 2, 58, 44
2, 44115, Note_on_c, 2, 75, 53
2, 44119, Note_on_c, 2, 74, 0
2, 44126, Note_on_c, 2, 63, 0
2, 44130, Note_on_c, 2, 58, 0
2, 44134, Note_on_c, 2, 75, 0
2, 44134, Note_on_c, 2, 77, 55
2, 44156, Note_on_c, 2, 63, 35
2, 44156, Note_on_c, 2, 58, 35
2, 44156, Note_on_c, 2, 79, 48
2, 44163, Note_on_c, 2, 77, 0
2, 44170, Note_on_c, 2, 63, 0
2, 44170, Note_on_c, 2, 58, 0
2, 44182, Note_on_c, 2, 81, 54
2, 44185, Note_on_c, 2, 79, 0
2, 44196, Note_on_c, 2, 63, 34
2, 44200, Note_on_c, 2, 58, 40
2, 44200, Note_on_c, 2, 82, 54
2, 44204, Note_on_c, 2, 81, 0
2, 44215, Note_on_c, 2, 63, 0
2, 44215, Note_on_c, 2, 58, 0
2, 44222, Note_on_c, 2, 81, 70
2, 44226, Note_on_c, 2, 82, 0
2, 44241, Note_on_c, 2, 63, 38
2, 44241, Note_on_c, 2, 58, 40
2, 44241, Note_on_c, 2, 82, 55
2, 44244, Note_on_c, 2, 81, 0
2, 44252, Note_on_c, 2, 63, 0
2, 44252, Note_on_c, 2, 58, 0
2, 44260, Note_on_c, 2, 82, 0
2, 44263, Note_on_c, 2, 81, 56
2, 44282, Note_on_c, 2, 63, 43
2, 44282, Note_on_c, 2, 58, 40
2, 44283, Note_on_c, 2, 82, 59
2, 44285, Note_on_c, 2, 81, 0
2, 44293, Note_on_c, 2, 63, 0
2, 44293, Note_on_c, 2, 58, 0
2, 44304, Note_on_c, 2, 79, 40
2, 44311, Note_on_c, 2, 82, 0
2, 44319, Note_on_c, 2, 63, 44
2, 44323, Note_on_c, 2, 79, 0
2, 44323, Note_on_c, 2, 58, 40
2, 44323, Note_on_c, 2, 77, 65
2, 44330, Note_on_c, 2, 58, 0
2, 44337, Note_on_c, 2, 63, 0
2, 44363, Note_on_c, 2, 77, 0
2, 44367, Note_on_c, 2, 58, 52
2, 44400, Control_c, 2, 64, 0
2, 44411, Note_on_c, 2, 62, 45
2, 44430, Note_on_c, 2, 82, 60
2, 44448, Note_on_c, 2, 82, 0
2, 44448, Note_on_c, 2, 65, 42
2, 44449, Note_on_c, 2, 84, 54
2, 44452, Note_on_c, 2, 58, 0
2, 44467, Note_on_c, 2, 82, 72
2, 44474, Note_on_c, 2, 84, 0
2, 44489, Note_on_c, 2, 62, 0
2, 44489, Note_on_c, 2, 82, 0
2, 44490, Note_on_c, 2, 58, 54
2, 44490, Note_on_c, 2, 86, 55
2, 44493, Note_on_c, 2, 65, 0
2, 44511, Note_on_c, 2, 84, 55
2, 44522, Note_on_c, 2, 86, 0
2, 44530, Note_on_c, 2, 82, 65
2, 44534, Note_on_c, 2, 84, 0
2, 44537, Note_on_c, 2, 58, 0
2, 44548, Note_on_c, 2, 81, 56
2, 44563, Note_on_c, 2, 82, 0
2, 44571, Note_on_c, 2, 81, 0
2, 44571, Note_on_c, 2, 79, 65
2, 44589, Note_on_c, 2, 77, 54
2, 44596, Note_on_c, 2, 79, 0
2, 44612, Note_on_c, 2, 75, 66
2, 44618, Note_on_c, 2, 77, 0
2, 44630, Note_on_c, 2, 75, 0
2, 44630, Note_on_c, 2, 74, 54
2, 44652, Note_on_c, 2, 75, 72
2, 44660, Note_on_c, 2, 74, 0
2, 44678, Control_c, 2, 64, 127
2, 44697, Note_on_c, 2, 53, 53
2, 44708, Note_on_c, 2, 75, 0
2, 44748, Note_on_c, 2, 57, 53
2, 44767, Note_on_c, 2, 81, 59
2, 44786, Note_on_c, 2, 81, 0
2, 44786, Note_on_c, 2, 53, 0
2, 44786, Note_on_c, 2, 82, 53
2, 44786, Note_on_c, 2, 60, 54
2, 44804, Note_on_c, 2, 81, 55
2, 44812, Note_on_c, 2, 82, 0
2, 44826, Note_on_c, 2, 57, 0
2, 44827, Note_on_c, 2, 60, 0
2, 44827, Note_on_c, 2, 53, 65
2, 44827, Note_on_c, 2, 84, 54
2, 44830, Note_on_c, 2, 81, 0
2, 44845, Control_c, 2, 64, 0
2, 44848, Note_on_c, 2, 82, 66
2, 44856, Note_on_c, 2, 84, 0
2, 44870, Note_on_c, 2, 81, 60
2, 44878, Note_on_c, 2, 82, 0
2, 44889, Note_on_c, 2, 81, 0
2, 44890, Note_on_c, 2, 79, 60
2, 44893, Note_on_c, 2, 53, 0
2, 44897, Control_c, 2, 64, 127
2, 44908, Note_on_c, 2, 79, 0
2, 44912, Note_on_c, 2, 77, 53
2, 44930, Note_on_c, 2, 75, 62
2, 44938, Note_on_c, 2, 77, 0
2, 44938, Control_c, 2, 64, 0
2, 44949, Note_on_c, 2, 74, 47
2, 44952, Note_on_c, 2, 75, 0
2, 44960, Control_c, 2, 64, 127
2, 44975, Note_on_c, 2, 72, 62
2, 44978, Note_on_c, 2, 74, 0
2, 44997, Note_on_c, 2, 74, 55
2, 45000, Note_on_c, 2, 72, 0
2, 45004, Control_c, 2, 64, 0
2, 45019, Control_c, 2, 64, 127
2, 45041, Note_on_c, 2, 34, 63
2, 45041, Note_on_c, 2, 46, 63
2, 45049, Note_on_c, 2, 34, 0
2, 45052, Note_on_c, 2, 46, 0
2, 45082, Note_on_c, 2, 38, 66
2, 45082, Note_on_c, 2, 50, 59
2, 45093, Note_on_c, 2, 50, 0
2, 45097, Note_on_c, 2, 38, 0
2, 45108, Note_on_c, 2, 77, 43
2, 45123, Note_on_c, 2, 53, 38
2, 45123, Note_on_c, 2, 41, 45
2, 45126, Note_on_c, 2, 77, 0
2, 45126, Note_on_c, 2, 79, 52
2, 45130, Note_on_c, 2, 74, 0
2, 45138, Note_on_c, 2, 53, 0
2, 45141, Note_on_c, 2, 41, 0
2, 45141, Note_on_c, 2, 77, 53
2, 45145, Note_on_c, 2, 79, 0
2, 45167, Note_on_c, 2, 77, 0
2, 45167, Note_on_c, 2, 50, 54
2, 45167, Note_on_c, 2, 38, 68
2, 45168, Note_on_c, 2, 82, 66
2, 45182, Control_c, 2, 64, 0
2, 45190, Note_on_c, 2, 81, 65
2, 45208, Control_c, 2, 64, 127
2, 45208, Note_on_c, 2, 79, 63
2, 45211, Note_on_c, 2, 82, 0
2, 45215, Note_on_c, 2, 81, 0
2, 45230, Note_on_c, 2, 79, 0
2, 45230, Note_on_c, 2, 77, 68
2, 45241, Note_on_c, 2, 38, 0
2, 45248, Note_on_c, 2, 77, 0
2, 45252, Note_on_c, 2, 50, 0
2, 45256, Note_on_c, 2, 75, 45
2, 45275, Note_on_c, 2, 74, 55
2, 45278, Note_on_c, 2, 75, 0
2, 45297, Note_on_c, 2, 72, 57
2, 45301, Note_on_c, 2, 74, 0
2, 45304, Note_on_c, 2, 72, 0
2, 45316, Note_on_c, 2, 53, 47
2, 45316, Note_on_c, 2, 50, 51
2, 45319, Note_on_c, 2, 71, 56
2, 45322, Note_on_c, 2, 50, 0
2, 45326, Note_on_c, 2, 53, 0
2, 45338, Note_on_c, 2, 55, 54
2, 45338, Note_on_c, 2, 51, 70
2, 45341, Note_on_c, 2, 71, 0
2, 45342, Note_on_c, 2, 74, 57
2, 45360, Note_on_c, 2, 74, 0
2, 45360, Note_on_c, 2, 72, 65
2, 45364, Control_c, 2, 64, 0
2, 45382, Note_on_c, 2, 75, 65
2, 45397, Control_c, 2, 64, 127
2, 45404, Note_on_c, 2, 74, 70
2, 45408, Note_on_c, 2, 75, 0
2, 45412, Note_on_c, 2, 72, 0
2, 45423, Note_on_c, 2, 77, 63
2, 45426, Note_on_c, 2, 74, 0
2, 45445, Note_on_c, 2, 77, 0
2, 45445, Note_on_c, 2, 75, 79
2, 45464, Note_on_c, 2, 75, 0
2, 45464, Note_on_c, 2, 79, 51
2, 45482, Note_on_c, 2, 78, 46
2, 45486, Note_on_c, 2, 79, 0
2, 45496, Note_on_c, 2, 78, 0
2, 45505, Note_on_c, 2, 79, 56
2, 45522, Note_on_c, 2, 77, 70
2, 45526, Note_on_c, 2, 79, 0
2, 45545, Note_on_c, 2, 75, 68
2, 45549, Note_on_c, 2, 77, 0
2, 45552, Note_on_c, 2, 51, 0
2, 45556, Note_on_c, 2, 55, 0
2, 45564, Note_on_c, 2, 74, 55
2, 45571, Note_on_c, 2, 75, 0
2, 45582, Note_on_c, 2, 74, 0
2, 45582, Note_on_c, 2, 72, 65
2, 45600, Note_on_c, 2, 72, 0
2, 45604, Note_on_c, 2, 70, 63
2, 45619, Note_on_c, 2, 70, 0
2, 45623, Note_on_c, 2, 52, 48
2, 45623, Note_on_c, 2, 55, 45
2, 45624, Note_on_c, 2, 69, 45
2, 45634, Note_on_c, 2, 55, 0
2, 45638, Note_on_c, 2, 52, 0
2, 45642, Note_on_c, 2, 69, 0
2, 45642, Note_on_c, 2, 70, 56
2, 45664, Note_on_c, 2, 70, 0
2, 45664, Note_on_c, 2, 53, 63
2, 45664, Note_on_c, 2, 57, 54
2, 45664, Note_on_c, 2, 69, 53
2, 45674, Control_c, 2, 64, 0
2, 45682, Note_on_c, 2, 70, 63
2, 45697, Note_on_c, 2, 69, 0
2, 45701, Control_c, 2, 64, 127
2, 45701, Note_on_c, 2, 72, 54
2, 45708, Note_on_c, 2, 70, 0
2, 45726, Note_on_c, 2, 57, 0
2, 45727, Note_on_c, 2, 74, 42
2, 45730, Note_on_c, 2, 72, 0
2, 45746, Note_on_c, 2, 76, 56
2, 45748, Note_on_c, 2, 74, 0
2, 45756, Note_on_c, 2, 76, 0
2, 45760, Note_on_c, 2, 53, 0
2, 45767, Note_on_c, 2, 77, 40
2, 45782, Note_on_c, 2, 77, 0
2, 45786, Note_on_c, 2, 76, 35
2, 45808, Note_on_c, 2, 76, 0
2, 45808, Note_on_c, 2, 77, 44
2, 45823, Note_on_c, 2, 45, 52
2, 45827, Note_on_c, 2, 77, 0
2, 45827, Note_on_c, 2, 65, 40
2, 45834, Control_c, 2, 64, 0
2, 45845, Note_on_c, 2, 46, 57
2, 45849, Note_on_c, 2, 45, 0
2, 45849, Control_c, 2, 64, 127
2, 45864, Note_on_c, 2, 46, 0
2, 45864, Note_on_c, 2, 48, 54
2, 45886, Note_on_c, 2, 50, 70
2, 45894, Note_on_c, 2, 48, 0
2, 45904, Note_on_c, 2, 50, 0
2, 45905, Note_on_c, 2, 52, 63
2, 45916, Control_c, 2, 64, 0
2, 45923, Note_on_c, 2, 53, 65
2, 45934, Note_on_c, 2, 52, 0
2, 45945, Note_on_c, 2, 53, 0
2, 45946, Control_c, 2, 64, 127
2, 45946, Note_on_c, 2, 52, 63
2, 45968, Note_on_c, 2, 53, 68
2, 45971, Note_on_c, 2, 52, 0
2, 45975, Note_on_c, 2, 53, 0
2, 45986, Note_on_c, 2, 41, 70
2, 45997, Control_c, 2, 64, 0
2, 46027, Control_c, 2, 64, 127
2, 46045, Note_on_c, 2, 65, 0
2, 46049, Note_on_c, 2, 41, 0
2, 46134, Note_on_c, 2, 84, 46
2, 46138, Control_c, 2, 64, 0
2, 46149, Note_on_c, 2, 84, 0
2, 46175, Note_on_c, 2, 84, 48
2, 46190, Note_on_c, 2, 84, 0
2, 46216, Note_on_c, 2, 84, 45
2, 46227, Note_on_c, 2, 84, 0
2, 46253, Note_on_c, 2, 84, 39
2, 46271, Note_on_c, 2, 84, 0
2, 46301, Note_on_c, 2, 84, 45
2, 46316, Note_on_c, 2, 84, 0
2, 46349, Note_on_c, 2, 84, 54
2, 46353, Note_on_c, 2, 53, 31
2, 46394, Note_on_c, 2, 60, 39
2, 46394, Control_c, 2, 64, 127
2, 46431, Note_on_c, 2, 60, 0
2, 46431, Note_on_c, 2, 57, 42
2, 46457, Note_on_c, 2, 53, 0
2, 46468, Note_on_c, 2, 60, 39
2, 46472, Note_on_c, 2, 82, 59
2, 46475, Note_on_c, 2, 84, 0
2, 46483, Note_on_c, 2, 57, 0
2, 46486, Note_on_c, 2, 81, 38
2, 46494, Note_on_c, 2, 82, 0
2, 46505, Note_on_c, 2, 79, 53
2, 46505, Note_on_c, 2, 55, 42
2, 46508, Note_on_c, 2, 81, 0
2, 46508, Note_on_c, 2, 60, 0
2, 46527, Control_c, 2, 64, 0
2, 46549, Note_on_c, 2, 60, 45
2, 46549, Note_on_c, 2, 77, 50
2, 46556, Note_on_c, 2, 79, 0
2, 46586, Note_on_c, 2, 58, 39
2, 46586, Note_on_c, 2, 76, 48
2, 46590, Note_on_c, 2, 77, 0
2, 46590, Note_on_c, 2, 60, 0
2, 46601, Control_c, 2, 64, 127
2, 46623, Note_on_c, 2, 60, 40
2, 46627, Note_on_c, 2, 55, 0
2, 46627, Note_on_c, 2, 76, 0
2, 46627, Note_on_c, 2, 58, 0
2, 46627, Note_on_c, 2, 79, 46
2, 46668, Note_on_c, 2, 79, 0
2, 46668, Note_on_c, 2, 57, 47
2, 46668, Note_on_c, 2, 77, 45
2, 46672, Control_c, 2, 64, 0
2, 46690, Note_on_c, 2, 60, 0
2, 46708, Note_on_c, 2, 53, 36
2, 46746, Note_on_c, 2, 57, 0
2, 46749, Note_on_c, 2, 77, 0
2, 46749, Note_on_c, 2, 60, 46
2, 46749, Note_on_c, 2, 72, 51
2, 46752, Note_on_c, 2, 53, 0
2, 46756, Control_c, 2, 64, 127
2, 46786, Note_on_c, 2, 60, 0
2, 46786, Control_c, 2, 64, 0
2, 46790, Note_on_c, 2, 72, 0
2, 46790, Note_on_c, 2, 84, 53
2, 46805, Note_on_c, 2, 84, 0
2, 46827, Note_on_c, 2, 84, 55
2, 46842, Note_on_c, 2, 84, 0
2, 46868, Note_on_c, 2, 84, 47
2, 46879, Note_on_c, 2, 84, 0
2, 46908, Note_on_c, 2, 84, 45
2, 46924, Note_on_c, 2, 84, 0
2, 46953, Note_on_c, 2, 84, 45
2, 46964, Note_on_c, 2, 84, 0
2, 46997, Note_on_c, 2, 53, 41
2, 46998, Note_on_c, 2, 84, 51
2, 47038, Note_on_c, 2, 60, 42
2, 47042, Control_c, 2, 64, 127
2, 47079, Note_on_c, 2, 60, 0
2, 47079, Note_on_c, 2, 57, 44
2, 47094, Note_on_c, 2, 53, 0
2, 47112, Note_on_c, 2, 60, 47
2, 47116, Note_on_c, 2, 82, 65
2, 47120, Note_on_c, 2, 57, 0
2, 47120, Note_on_c, 2, 84, 0
2, 47138, Note_on_c, 2, 81, 56
2, 47142, Note_on_c, 2, 82, 0
2, 47150, Control_c, 2, 64, 0
2, 47153, Note_on_c, 2, 81, 0
2, 47153, Note_on_c, 2, 52, 48
2, 47153, Note_on_c, 2, 79, 68
2, 47157, Note_on_c, 2, 60, 0
2, 47190, Note_on_c, 2, 60, 51
2, 47194, Note_on_c, 2, 81, 60
2, 47201, Note_on_c, 2, 79, 0
2, 47201, Control_c, 2, 64, 127
2, 47231, Note_on_c, 2, 60, 0
2, 47231, Note_on_c, 2, 82, 55
2, 47231, Note_on_c, 2, 55, 41
2, 47238, Note_on_c, 2, 81, 0
2, 47268, Note_on_c, 2, 52, 0
2, 47268, Note_on_c, 2, 60, 46
2, 47268, Note_on_c, 2, 79, 54
2, 47272, Note_on_c, 2, 82, 0
2, 47272, Note_on_c, 2, 55, 0
2, 47312, Note_on_c, 2, 53, 45
2, 47316, Control_c, 2, 64, 0
2, 47316, Note_on_c, 2, 81, 48
2, 47320, Note_on_c, 2, 79, 0
2, 47324, Note_on_c, 2, 60, 0
2, 47353, Note_on_c, 2, 57, 36
2, 47398, Note_on_c, 2, 60, 45
2, 47401, Control_c, 2, 64, 127
2, 47438, Note_on_c, 2, 84, 60
2, 47460, Note_on_c, 2, 84, 0
2, 47479, Note_on_c, 2, 84, 52
2, 47498, Note_on_c, 2, 84, 0
2, 47520, Note_on_c, 2, 84, 72
2, 47535, Note_on_c, 2, 84, 0
2, 47535, Note_on_c, 2, 81, 0
2, 47560, Note_on_c, 2, 84, 83
2, 47590, Note_on_c, 2, 60, 0
2, 47597, Note_on_c, 2, 53, 0
2, 47598, Note_on_c, 2, 57, 0
2, 47605, Note_on_c, 2, 85, 48
2, 47612, Note_on_c, 2, 84, 0
2, 47650, Note_on_c, 2, 86, 63
2, 47650, Note_on_c, 2, 58, 66
2, 47650, Note_on_c, 2, 46, 62
2, 47653, Note_on_c, 2, 85, 0
2, 47654, Control_c, 2, 64, 0
2, 47672, Note_on_c, 2, 86, 0
2, 47672, Note_on_c, 2, 74, 68
2, 47676, Control_c, 2, 64, 127
2, 47694, Note_on_c, 2, 73, 79
2, 47701, Note_on_c, 2, 74, 0
2, 47712, Note_on_c, 2, 73, 0
2, 47716, Note_on_c, 2, 74, 63
2, 47735, Note_on_c, 2, 74, 0
2, 47735, Note_on_c, 2, 75, 72
2, 47750, Note_on_c, 2, 75, 0
2, 47753, Note_on_c, 2, 74, 68
2, 47772, Note_on_c, 2, 74, 0
2, 47776, Note_on_c, 2, 76, 68
2, 47794, Note_on_c, 2, 76, 0
2, 47794, Note_on_c, 2, 74, 66
2, 47813, Note_on_c, 2, 74, 0
2, 47816, Note_on_c, 2, 77, 63
2, 47835, Note_on_c, 2, 77, 0
2, 47835, Note_on_c, 2, 74, 65
2, 47853, Note_on_c, 2, 74, 0
2, 47857, Note_on_c, 2, 78, 79
2, 47875, Note_on_c, 2, 78, 0
2, 47875, Note_on_c, 2, 74, 68
2, 47894, Note_on_c, 2, 74, 0
2, 47898, Note_on_c, 2, 79, 65
2, 47916, Note_on_c, 2, 79, 0
2, 47916, Note_on_c, 2, 74, 72
2, 47931, Note_on_c, 2, 46, 0
2, 47935, Note_on_c, 2, 74, 0
2, 47935, Note_on_c, 2, 58, 0
2, 47939, Note_on_c, 2, 81, 65
2, 47954, Note_on_c, 2, 81, 0
2, 47957, Note_on_c, 2, 74, 65
2, 47975, Note_on_c, 2, 82, 79
2, 47979, Note_on_c, 2, 55, 65
2, 48005, Note_on_c, 2, 55, 0
2, 48005, Control_c, 2, 64, 0
2, 48005, Note_on_c, 2, 57, 57
2, 48020, Control_c, 2, 64, 127
2, 48027, Note_on_c, 2, 57, 0
2, 48027, Note_on_c, 2, 58, 70
2, 48043, Note_on_c, 2, 58, 0
2, 48043, Note_on_c, 2, 57, 54
2, 48064, Note_on_c, 2, 55, 79
2, 48068, Note_on_c, 2, 57, 0
2, 48083, Note_on_c, 2, 55, 0
2, 48083, Note_on_c, 2, 57, 55
2, 48101, Note_on_c, 2, 57, 0
2, 48105, Note_on_c, 2, 53, 83
2, 48124, Note_on_c, 2, 53, 0
2, 48124, Note_on_c, 2, 55, 52
2, 48142, Note_on_c, 2, 55, 0
2, 48142, Note_on_c, 2, 52, 83
2, 48160, Note_on_c, 2, 52, 0
2, 48161, Note_on_c, 2, 53, 59
2, 48179, Note_on_c, 2, 53, 0
2, 48183, Note_on_c, 2, 50, 79
2, 48201, Note_on_c, 2, 50, 0
2, 48201, Note_on_c, 2, 52, 60
2, 48209, Note_on_c, 2, 82, 0
2, 48209, Note_on_c, 2, 74, 0
2, 48220, Note_on_c, 2, 52, 0
2, 48224, Note_on_c, 2, 48, 96
2, 48224, Note_on_c, 2, 81, 56
2, 48232, Note_on_c, 2, 82, 56
2, 48234, Note_on_c, 2, 81, 0
2, 48239, Note_on_c, 2, 48, 0
2, 48242, Note_on_c, 2, 52, 45
2, 48242, Note_on_c, 2, 50, 45
2, 48246, Note_on_c, 2, 82, 0
2, 48246, Note_on_c, 2, 81, 66
2, 48257, Note_on_c, 2, 81, 0
2, 48257, Note_on_c, 2, 50, 0
2, 48257, Note_on_c, 2, 82, 55
2, 48260, Note_on_c, 2, 52, 0
2, 48260, Note_on_c, 2, 46, 53
2, 48268, Note_on_c, 2, 82, 0
2, 48268, Note_on_c, 2, 81, 47
2, 48279, Note_on_c, 2, 81, 0
2, 48283, Note_on_c, 2, 82, 45
2, 48294, Note_on_c, 2, 81, 59
2, 48298, Note_on_c, 2, 82, 0
2, 48312, Note_on_c, 2, 82, 56
2, 48316, Note_on_c, 2, 46, 0
2, 48316, Note_on_c, 2, 57, 53
2, 48317, Note_on_c, 2, 45, 60
2, 48317, Note_on_c, 2, 84, 68
2, 48320, Note_on_c, 2, 81, 0
2, 48327, Note_on_c, 2, 82, 0
2, 48331, Control_c, 2, 64, 0
2, 48335, Note_on_c, 2, 84, 0
2, 48335, Note_on_c, 2, 72, 88
2, 48353, Note_on_c, 2, 71, 88
2, 48354, Control_c, 2, 64, 127
2, 48361, Note_on_c, 2, 72, 0
2, 48376, Note_on_c, 2, 71, 0
2, 48376, Note_on_c, 2, 72, 59
2, 48390, Note_on_c, 2, 72, 0
2, 48394, Note_on_c, 2, 73, 83
2, 48409, Note_on_c, 2, 73, 0
2, 48412, Note_on_c, 2, 72, 66
2, 48428, Note_on_c, 2, 72, 0
2, 48431, Note_on_c, 2, 74, 70
2, 48450, Note_on_c, 2, 74, 0
2, 48450, Note_on_c, 2, 72, 66
2, 48468, Note_on_c, 2, 72, 0
2, 48472, Note_on_c, 2, 75, 70
2, 48490, Note_on_c, 2, 75, 0
2, 48490, Note_on_c, 2, 72, 72
2, 48509, Note_on_c, 2, 72, 0
2, 48513, Note_on_c, 2, 76, 62
2, 48531, Note_on_c, 2, 76, 0
2, 48532, Note_on_c, 2, 72, 66
2, 48550, Note_on_c, 2, 72, 0
2, 48554, Note_on_c, 2, 77, 66
2, 48576, Note_on_c, 2, 77, 0
2, 48576, Note_on_c, 2, 72, 68
2, 48587, Note_on_c, 2, 45, 0
2, 48594, Note_on_c, 2, 72, 0
2, 48594, Note_on_c, 2, 79, 66
2, 48613, Note_on_c, 2, 79, 0
2, 48616, Note_on_c, 2, 72, 65
2, 48635, Note_on_c, 2, 57, 0
2, 48635, Note_on_c, 2, 53, 72
2, 48635, Note_on_c, 2, 81, 72
2, 48657, Note_on_c, 2, 55, 72
2, 48665, Note_on_c, 2, 53, 0
2, 48665, Control_c, 2, 64, 0
2, 48676, Note_on_c, 2, 57, 72
2, 48679, Note_on_c, 2, 55, 0
2, 48680, Control_c, 2, 64, 127
2, 48698, Note_on_c, 2, 55, 52
2, 48716, Note_on_c, 2, 57, 0
2, 48716, Note_on_c, 2, 53, 63
2, 48720, Note_on_c, 2, 55, 0
2, 48735, Note_on_c, 2, 53, 0
2, 48735, Note_on_c, 2, 55, 63
2, 48754, Note_on_c, 2, 55, 0
2, 48754, Note_on_c, 2, 52, 79
2, 48757, Note_on_c, 2, 53, 53
2, 48768, Note_on_c, 2, 53, 0
2, 48772, Note_on_c, 2, 52, 0
2, 48776, Note_on_c, 2, 53, 50
2, 48776, Note_on_c, 2, 55, 54
2, 48783, Note_on_c, 2, 55, 0
2, 48791, Note_on_c, 2, 53, 0
2, 48794, Note_on_c, 2, 50, 79
2, 48813, Note_on_c, 2, 50, 0
2, 48813, Note_on_c, 2, 52, 56
2, 48832, Note_on_c, 2, 52, 0
2, 48835, Note_on_c, 2, 48, 88
2, 48846, Note_on_c, 2, 72, 0
2, 48850, Note_on_c, 2, 48, 0
2, 48850, Note_on_c, 2, 50, 53
2, 48850, Note_on_c, 2, 52, 54
2, 48857, Note_on_c, 2, 81, 0
2, 48868, Note_on_c, 2, 52, 0
2, 48868, Note_on_c, 2, 50, 0
2, 48872, Note_on_c, 2, 46, 79
2, 48876, Note_on_c, 2, 81, 57
2, 48884, Note_on_c, 2, 82, 50
2, 48887, Note_on_c, 2, 81, 0
2, 48898, Note_on_c, 2, 82, 0
2, 48898, Note_on_c, 2, 46, 0
2, 48898, Note_on_c, 2, 81, 65
2, 48906, Note_on_c, 2, 82, 57
2, 48909, Note_on_c, 2, 81, 0
2, 48909, Note_on_c, 2, 44, 62
2, 48920, Note_on_c, 2, 82, 0
2, 48924, Note_on_c, 2, 81, 45
2, 48931, Note_on_c, 2, 82, 55
2, 48935, Note_on_c, 2, 44, 0
2, 48939, Note_on_c, 2, 81, 0
2, 48950, Note_on_c, 2, 82, 0
2, 48964, Note_on_c, 2, 43, 57
2, 48965, Note_on_c, 2, 55, 48
2, 48968, Note_on_c, 2, 82, 63
2, 48976, Control_c, 2, 64, 0
2, 48987, Note_on_c, 2, 70, 72
2, 48991, Note_on_c, 2, 82, 0
2, 48991, Control_c, 2, 64, 127
2, 49006, Note_on_c, 2, 69, 45
2, 49009, Note_on_c, 2, 70, 0
2, 49028, Note_on_c, 2, 70, 60
2, 49035, Note_on_c, 2, 69, 0
2, 49046, Note_on_c, 2, 72, 59
2, 49050, Note_on_c, 2, 70, 0
2, 49064, Note_on_c, 2, 70, 68
2, 49068, Note_on_c, 2, 72, 0
2, 49087, Note_on_c, 2, 74, 65
2, 49091, Note_on_c, 2, 70, 0
2, 49106, Note_on_c, 2, 74, 0
2, 49110, Note_on_c, 2, 70, 55
2, 49128, Note_on_c, 2, 75, 63
2, 49131, Note_on_c, 2, 70, 0
2, 49150, Note_on_c, 2, 70, 59
2, 49154, Note_on_c, 2, 75, 0
2, 49168, Note_on_c, 2, 76, 60
2, 49176, Note_on_c, 2, 70, 0
2, 49187, Note_on_c, 2, 76, 0
2, 49190, Note_on_c, 2, 70, 55
2, 49213, Note_on_c, 2, 77, 57
2, 49220, Note_on_c, 2, 70, 0
2, 49239, Note_on_c, 2, 77, 0
2, 49239, Note_on_c, 2, 70, 53
2, 49246, Note_on_c, 2, 43, 0
2, 49265, Note_on_c, 2, 70, 0
2, 49265, Note_on_c, 2, 78, 55
2, 49287, Note_on_c, 2, 70, 40
2, 49290, Note_on_c, 2, 78, 0
2, 49313, Note_on_c, 2, 70, 0
2, 49320, Note_on_c, 2, 48, 28
2, 49320, Note_on_c, 2, 79, 46
2, 49339, Note_on_c, 2, 55, 0
2, 49342, Control_c, 2, 64, 0
2, 49346, Note_on_c, 2, 52, 37
2, 49358, Control_c, 2, 64, 127
2, 49368, Note_on_c, 2, 55, 42
2, 49372, Note_on_c, 2, 52, 0
2, 49391, Note_on_c, 2, 48, 0
2, 49391, Note_on_c, 2, 52, 43
2, 49395, Note_on_c, 2, 79, 0
2, 49410, Note_on_c, 2, 52, 0
2, 49413, Note_on_c, 2, 48, 47
2, 49417, Note_on_c, 2, 55, 0
2, 49432, Note_on_c, 2, 52, 44
2, 49454, Note_on_c, 2, 52, 0
2, 49454, Note_on_c, 2, 55, 47
2, 49454, Note_on_c, 2, 82, 70
2, 49476, Note_on_c, 2, 82, 0
2, 49476, Note_on_c, 2, 48, 0
2, 49476, Note_on_c, 2, 52, 50
2, 49491, Note_on_c, 2, 52, 0
2, 49498, Note_on_c, 2, 55, 0
2, 49498, Note_on_c, 2, 48, 44
2, 49499, Note_on_c, 2, 81, 66
2, 49517, Note_on_c, 2, 52, 48
2, 49539, Note_on_c, 2, 52, 0
2, 49539, Note_on_c, 2, 79, 49
2, 49540, Note_on_c, 2, 55, 54
2, 49543, Note_on_c, 2, 81, 0
2, 49558, Note_on_c, 2, 52, 46
2, 49561, Note_on_c, 2, 48, 0
2, 49576, Note_on_c, 2, 52, 0
2, 49580, Note_on_c, 2, 55, 0
2, 49580, Note_on_c, 2, 48, 55
2, 49580, Note_on_c, 2, 77, 52
2, 49583, Note_on_c, 2, 79, 0
2, 49598, Note_on_c, 2, 52, 47
2, 49620, Note_on_c, 2, 52, 0
2, 49620, Note_on_c, 2, 55, 55
2, 49624, Note_on_c, 2, 77, 0
2, 49624, Note_on_c, 2, 76, 47
2, 49642, Note_on_c, 2, 48, 0
2, 49643, Note_on_c, 2, 52, 45
2, 49665, Note_on_c, 2, 52, 0
2, 49666, Note_on_c, 2, 48, 52
2, 49668, Note_on_c, 2, 55, 0
2, 49669, Note_on_c, 2, 79, 48
2, 49672, Note_on_c, 2, 76, 0
2, 49687, Note_on_c, 2, 53, 42
2, 49702, Control_c, 2, 64, 0
2, 49710, Note_on_c, 2, 77, 48
2, 49713, Note_on_c, 2, 57, 54
2, 49716, Note_on_c, 2, 53, 0
2, 49716, Note_on_c, 2, 79, 0
2, 49717, Control_c, 2, 64, 127
2, 49731, Note_on_c, 2, 53, 48
2, 49739, Note_on_c, 2, 48, 0
2, 49754, Note_on_c, 2, 53, 0
2, 49757, Note_on_c, 2, 57, 0
2, 49758, Note_on_c, 2, 48, 56
2, 49776, Note_on_c, 2, 53, 45
2, 49794, Note_on_c, 2, 57, 50
2, 49798, Note_on_c, 2, 53, 0
2, 49798, Note_on_c, 2, 84, 46
2, 49802, Note_on_c, 2, 77, 0
2, 49817, Note_on_c, 2, 48, 0
2, 49817, Note_on_c, 2, 53, 43
2, 49832, Note_on_c, 2, 53, 0
2, 49839, Note_on_c, 2, 48, 53
2, 49840, Note_on_c, 2, 82, 55
2, 49842, Note_on_c, 2, 84, 0
2, 49843, Note_on_c, 2, 57, 0
2, 49858, Note_on_c, 2, 51, 46
2, 49876, Note_on_c, 2, 48, 0
2, 49876, Control_c, 2, 64, 0
2, 49880, Note_on_c, 2, 54, 48
2, 49884, Note_on_c, 2, 81, 49
2, 49887, Note_on_c, 2, 82, 0
2, 49891, Note_on_c, 2, 51, 0
2, 49891, Control_c, 2, 64, 127
2, 49902, Note_on_c, 2, 51, 47
2, 49913, Note_on_c, 2, 54, 0
2, 49920, Note_on_c, 2, 51, 0
2, 49924, Note_on_c, 2, 81, 0
2, 49924, Note_on_c, 2, 48, 53
2, 49924, Note_on_c, 2, 79, 57
2, 49947, Note_on_c, 2, 51, 41
2, 49950, Note_on_c, 2, 79, 0
2, 49954, Note_on_c, 2, 48, 0
2, 49968, Note_on_c, 2, 54, 46
2, 49968, Note_on_c, 2, 78, 57
2, 49976, Note_on_c, 2, 51, 0
2, 49987, Note_on_c, 2, 78, 0
2, 49987, Note_on_c, 2, 51, 35
2, 49998, Note_on_c, 2, 54, 0
2, 50002, Note_on_c, 2, 51, 0
2, 50010, Note_on_c, 2, 46, 57
2, 50010, Note_on_c, 2, 79, 56
2, 50028, Control_c, 2, 64, 0
2, 50032, Note_on_c, 2, 50, 52
2, 50047, Control_c, 2, 64, 127
2, 50050, Note_on_c, 2, 50, 0
2, 50050, Note_on_c, 2, 55, 53
2, 50069, Note_on_c, 2, 46, 0
2, 50069, Note_on_c, 2, 50, 48
2, 50073, Note_on_c, 2, 81, 66
2, 50076, Note_on_c, 2, 79, 0
2, 50087, Note_on_c, 2, 55, 0
2, 50087, Note_on_c, 2, 50, 0
2, 50091, Note_on_c, 2, 81, 0
2, 50091, Note_on_c, 2, 46, 63
2, 50091, Note_on_c, 2, 84, 59
2, 50110, Note_on_c, 2, 50, 52
2, 50110, Note_on_c, 2, 82, 72
2, 50117, Note_on_c, 2, 84, 0
2, 50132, Note_on_c, 2, 46, 0
2, 50132, Note_on_c, 2, 81, 66
2, 50132, Note_on_c, 2, 55, 47
2, 50136, Note_on_c, 2, 82, 0
2, 50139, Note_on_c, 2, 55, 0
2, 50150, Note_on_c, 2, 81, 0
2, 50150, Note_on_c, 2, 79, 83
2, 50154, Note_on_c, 2, 50, 0
2, 50169, Note_on_c, 2, 48, 60
2, 50173, Note_on_c, 2, 77, 70
2, 50176, Note_on_c, 2, 79, 0
2, 50191, Control_c, 2, 64, 0
2, 50191, Note_on_c, 2, 53, 38
2, 50210, Control_c, 2, 64, 127
2, 50213, Note_on_c, 2, 53, 0
2, 50217, Note_on_c, 2, 57, 41
2, 50232, Note_on_c, 2, 48, 0
2, 50236, Note_on_c, 2, 53, 46
2, 50247, Note_on_c, 2, 53, 0
2, 50247, Note_on_c, 2, 57, 0
2, 50258, Note_on_c, 2, 77, 0
2, 50258, Note_on_c, 2, 48, 57
2, 50262, Note_on_c, 2, 76, 72
2, 50269, Note_on_c, 2, 52, 42
2, 50272, Note_on_c, 2, 76, 0
2, 50273, Note_on_c, 2, 77, 55
2, 50277, Note_on_c, 2, 55, 46
2, 50280, Control_c, 2, 64, 0
2, 50283, Note_on_c, 2, 48, 0
2, 50284, Note_on_c, 2, 52, 0
2, 50284, Note_on_c, 2, 77, 0
2, 50284, Note_on_c, 2, 76, 52
2, 50288, Note_on_c, 2, 55, 0
2, 50291, Note_on_c, 2, 76, 0
2, 50295, Control_c, 2, 64, 127
2, 50295, Note_on_c, 2, 77, 51
2, 50302, Note_on_c, 2, 77, 0
2, 50302, Note_on_c, 2, 76, 51
2, 50313, Note_on_c, 2, 76, 0
2, 50317, Note_on_c, 2, 77, 52
2, 50328, Note_on_c, 2, 76, 53
2, 50335, Note_on_c, 2, 77, 0
2, 50350, Note_on_c, 2, 76, 0
2, 50350, Note_on_c, 2, 65, 57
2, 50350, Note_on_c, 2, 53, 68
2, 50369, Control_c, 2, 64, 0
2, 50373, Note_on_c, 2, 77, 70
2, 50384, Control_c, 2, 64, 127
2, 50391, Note_on_c, 2, 77, 0
2, 50395, Note_on_c, 2, 65, 0
2, 50395, Note_on_c, 2, 76, 68
2, 50406, Note_on_c, 2, 53, 0
2, 50414, Note_on_c, 2, 77, 59
2, 50421, Note_on_c, 2, 76, 0
2, 50432, Note_on_c, 2, 77, 0
2, 50436, Note_on_c, 2, 48, 63
2, 50436, Note_on_c, 2, 60, 60
2, 50454, Note_on_c, 2, 72, 70
2, 50458, Control_c, 2, 64, 0
2, 50472, Note_on_c, 2, 72, 0
2, 50472, Control_c, 2, 64, 127
2, 50476, Note_on_c, 2, 71, 65
2, 50491, Note_on_c, 2, 60, 0
2, 50498, Note_on_c, 2, 48, 0
2, 50498, Note_on_c, 2, 72, 60
2, 50502, Note_on_c, 2, 71, 0
2, 50513, Note_on_c, 2, 72, 0
2, 50520, Note_on_c, 2, 45, 68
2, 50521, Note_on_c, 2, 57, 60
2, 50539, Control_c, 2, 64, 0
2, 50543, Note_on_c, 2, 69, 62
2, 50554, Control_c, 2, 64, 127
2, 50561, Note_on_c, 2, 69, 0
2, 50562, Note_on_c, 2, 68, 68
2, 50565, Note_on_c, 2, 57, 0
2, 50572, Note_on_c, 2, 45, 0
2, 50587, Note_on_c, 2, 69, 60
2, 50591, Note_on_c, 2, 68, 0
2, 50602, Note_on_c, 2, 69, 0
2, 50606, Note_on_c, 2, 41, 68
2, 50610, Note_on_c, 2, 53, 66
2, 50624, Control_c, 2, 64, 0
2, 50632, Note_on_c, 2, 65, 79
2, 50643, Control_c, 2, 64, 127
2, 50647, Note_on_c, 2, 65, 0
2, 50647, Note_on_c, 2, 41, 0
2, 50654, Note_on_c, 2, 64, 34
2, 50662, Note_on_c, 2, 53, 0
2, 50676, Note_on_c, 2, 65, 50
2, 50680, Note_on_c, 2, 64, 0
2, 50688, Note_on_c, 2, 65, 0
2, 50713, Note_on_c, 2, 48, 54
2, 50717, Note_on_c, 2, 72, 65
2, 50736, Note_on_c, 2, 55, 47
2, 50736, Control_c, 2, 64, 0
2, 50754, Control_c, 2, 64, 127
2, 50762, Note_on_c, 2, 55, 0
2, 50762, Note_on_c, 2, 58, 53
2, 50780, Note_on_c, 2, 48, 0
2, 50780, Note_on_c, 2, 55, 50
2, 50802, Note_on_c, 2, 48, 51
2, 50806, Note_on_c, 2, 55, 0
2, 50806, Note_on_c, 2, 58, 0
2, 50821, Note_on_c, 2, 55, 45
2, 50843, Note_on_c, 2, 58, 55
2, 50847, Note_on_c, 2, 55, 0
2, 50847, Note_on_c, 2, 72, 0
2, 50847, Note_on_c, 2, 82, 65
2, 50865, Note_on_c, 2, 48, 0
2, 50866, Note_on_c, 2, 55, 53
2, 50873, Note_on_c, 2, 82, 0
2, 50873, Note_on_c, 2, 58, 0
2, 50888, Note_on_c, 2, 48, 56
2, 50888, Note_on_c, 2, 81, 68
2, 50891, Note_on_c, 2, 55, 0
2, 50906, Note_on_c, 2, 55, 53
2, 50928, Note_on_c, 2, 55, 0
2, 50928, Note_on_c, 2, 58, 54
2, 50932, Note_on_c, 2, 81, 0
2, 50932, Note_on_c, 2, 79, 57
2, 50951, Note_on_c, 2, 55, 50
2, 50954, Note_on_c, 2, 48, 0
2, 50958, Note_on_c, 2, 58, 0
2, 50969, Note_on_c, 2, 48, 57
2, 50973, Note_on_c, 2, 77, 56
2, 50976, Note_on_c, 2, 79, 0
2, 50976, Note_on_c, 2, 55, 0
2, 50992, Note_on_c, 2, 55, 47
2, 51014, Note_on_c, 2, 58, 48
2, 51017, Note_on_c, 2, 77, 0
2, 51018, Note_on_c, 2, 55, 0
2, 51018, Note_on_c, 2, 76, 49
2, 51040, Note_on_c, 2, 55, 41
2, 51043, Note_on_c, 2, 48, 0
2, 51054, Note_on_c, 2, 58, 0
2, 51058, Note_on_c, 2, 55, 0
2, 51065, Note_on_c, 2, 48, 49
2, 51069, Note_on_c, 2, 79, 47
2, 51073, Note_on_c, 2, 76, 0
2, 51088, Note_on_c, 2, 53, 55
2, 51095, Control_c, 2, 64, 0
2, 51110, Note_on_c, 2, 53, 0
2, 51110, Note_on_c, 2, 77, 51
2, 51111, Note_on_c, 2, 57, 66
2, 51113, Note_on_c, 2, 79, 0
2, 51114, Control_c, 2, 64, 127
2, 51124, Note_on_c, 2, 57, 0
2, 51128, Note_on_c, 2, 53, 54
2, 51136, Note_on_c, 2, 48, 0
2, 51151, Note_on_c, 2, 53, 0
2, 51154, Note_on_c, 2, 48, 63
2, 51173, Note_on_c, 2, 53, 55
2, 51192, Note_on_c, 2, 53, 0
2, 51195, Note_on_c, 2, 57, 63
2, 51199, Note_on_c, 2, 84, 45
2, 51206, Note_on_c, 2, 77, 0
2, 51218, Note_on_c, 2, 53, 42
2, 51221, Note_on_c, 2, 48, 0
2, 51240, Note_on_c, 2, 84, 0
2, 51240, Note_on_c, 2, 82, 62
2, 51240, Note_on_c, 2, 48, 63
2, 51244, Note_on_c, 2, 57, 0
2, 51244, Note_on_c, 2, 53, 0
2, 51258, Note_on_c, 2, 51, 45
2, 51277, Control_c, 2, 64, 0
2, 51277, Note_on_c, 2, 54, 48
2, 51277, Note_on_c, 2, 81, 55
2, 51280, Note_on_c, 2, 48, 0
2, 51284, Note_on_c, 2, 82, 0
2, 51284, Note_on_c, 2, 51, 0
2, 51291, Control_c, 2, 64, 127
2, 51299, Note_on_c, 2, 51, 54
2, 51310, Note_on_c, 2, 54, 0
2, 51317, Note_on_c, 2, 51, 0
2, 51321, Note_on_c, 2, 48, 47
2, 51321, Note_on_c, 2, 79, 62
2, 51325, Note_on_c, 2, 81, 0
2, 51340, Note_on_c, 2, 51, 39
2, 51347, Note_on_c, 2, 79, 0
2, 51366, Note_on_c, 2, 78, 65
2, 51366, Note_on_c, 2, 54, 45
2, 51369, Note_on_c, 2, 51, 0
2, 51377, Note_on_c, 2, 48, 0
2, 51381, Note_on_c, 2, 78, 0
2, 51384, Note_on_c, 2, 51, 47
2, 51399, Note_on_c, 2, 51, 0
2, 51399, Note_on_c, 2, 54, 0
2, 51414, Note_on_c, 2, 46, 65
2, 51414, Note_on_c, 2, 79, 66
2, 51432, Note_on_c, 2, 50, 52
2, 51433, Control_c, 2, 64, 0
2, 51447, Control_c, 2, 64, 127
2, 51451, Note_on_c, 2, 50, 0
2, 51454, Note_on_c, 2, 55, 54
2, 51473, Note_on_c, 2, 50, 49
2, 51477, Note_on_c, 2, 46, 0
2, 51492, Note_on_c, 2, 79, 0
2, 51492, Note_on_c, 2, 55, 0
2, 51492, Note_on_c, 2, 50, 0
2, 51496, Note_on_c, 2, 46, 59
2, 51499, Note_on_c, 2, 81, 63
2, 51514, Note_on_c, 2, 50, 52
2, 51521, Note_on_c, 2, 82, 40
2, 51525, Note_on_c, 2, 46, 0
2, 51528, Note_on_c, 2, 81, 0
2, 51540, Note_on_c, 2, 55, 50
2, 51547, Note_on_c, 2, 84, 60
2, 51551, Note_on_c, 2, 50, 0
2, 51551, Note_on_c, 2, 82, 0
2, 51562, Note_on_c, 2, 86, 53
2, 51565, Note_on_c, 2, 84, 0
2, 51573, Note_on_c, 2, 86, 0
2, 51577, Note_on_c, 2, 55, 0
2, 51580, Note_on_c, 2, 86, 70
2, 51584, Note_on_c, 2, 48, 63
2, 51596, Control_c, 2, 64, 0
2, 51603, Note_on_c, 2, 53, 51
2, 51604, Note_on_c, 2, 77, 79
2, 51606, Note_on_c, 2, 86, 0
2, 51610, Control_c, 2, 64, 127
2, 51614, Note_on_c, 2, 48, 0
2, 51621, Note_on_c, 2, 57, 57
2, 51632, Note_on_c, 2, 53, 0
2, 51643, Note_on_c, 2, 48, 40
2, 51650, Note_on_c, 2, 57, 0
2, 51651, Note_on_c, 2, 48, 0
2, 51654, Note_on_c, 2, 77, 0
2, 51665, Note_on_c, 2, 52, 59
2, 51666, Note_on_c, 2, 48, 55
2, 51666, Note_on_c, 2, 79, 79
2, 51666, Note_on_c, 2, 55, 55
2, 51677, Note_on_c, 2, 79, 0
2, 51677, Note_on_c, 2, 81, 53
2, 51688, Note_on_c, 2, 81, 0
2, 51688, Note_on_c, 2, 79, 56
2, 51692, Note_on_c, 2, 52, 0
2, 51695, Note_on_c, 2, 48, 0
2, 51699, Note_on_c, 2, 55, 0
2, 51699, Note_on_c, 2, 79, 0
2, 51699, Note_on_c, 2, 81, 56
2, 51706, Note_on_c, 2, 81, 0
2, 51706, Note_on_c, 2, 79, 46
2, 51717, Note_on_c, 2, 79, 0
2, 51717, Note_on_c, 2, 81, 56
2, 51733, Note_on_c, 2, 79, 32
2, 51736, Note_on_c, 2, 81, 0
2, 51754, Note_on_c, 2, 79, 0
2, 51754, Note_on_c, 2, 77, 55
2, 51754, Note_on_c, 2, 53, 62
2, 51756, Note_on_c, 2, 57, 60
2, 51770, Control_c, 2, 64, 0
2, 51799, Note_on_c, 2, 84, 62
2, 51810, Note_on_c, 2, 77, 0
2, 51810, Control_c, 2, 64, 127
2, 51822, Note_on_c, 2, 81, 55
2, 51828, Note_on_c, 2, 84, 0
2, 51840, Note_on_c, 2, 77, 70
2, 51858, Note_on_c, 2, 81, 0
2, 51862, Note_on_c, 2, 77, 0
2, 51862, Note_on_c, 2, 72, 63
2, 51873, Note_on_c, 2, 72, 0
2, 51884, Note_on_c, 2, 69, 44
2, 51903, Note_on_c, 2, 69, 0
2, 51903, Note_on_c, 2, 65, 56
2, 51910, Note_on_c, 2, 65, 0
2, 51925, Note_on_c, 2, 60, 66
2, 51925, Note_on_c, 2, 63, 96
2, 51933, Note_on_c, 2, 57, 0
2, 51933, Control_c, 2, 64, 0
2, 51936, Note_on_c, 2, 53, 0
2, 51948, Control_c, 2, 64, 127
2, 51965, Note_on_c, 2, 41, 63
2, 51965, Note_on_c, 2, 53, 56
2, 51976, Note_on_c, 2, 41, 0
2, 51977, Note_on_c, 2, 53, 0
2, 52007, Note_on_c, 2, 45, 65
2, 52007, Note_on_c, 2, 57, 54
2, 52017, Note_on_c, 2, 57, 0
2, 52017, Note_on_c, 2, 45, 0
2, 52051, Note_on_c, 2, 41, 66
2, 52051, Note_on_c, 2, 53, 57
2, 52058, Note_on_c, 2, 41, 0
2, 52062, Note_on_c, 2, 53, 0
2, 52076, Note_on_c, 2, 63, 0
2, 52084, Note_on_c, 2, 60, 0
2, 52095, Note_on_c, 2, 46, 59
2, 52095, Note_on_c, 2, 58, 65
2, 52114, Control_c, 2, 64, 0
2, 52140, Control_c, 2, 64, 127
2, 52141, Note_on_c, 2, 62, 59
2, 52166, Note_on_c, 2, 62, 0
2, 52184, Note_on_c, 2, 46, 0
2, 52184, Note_on_c, 2, 55, 56
2, 52188, Note_on_c, 2, 58, 0
2, 52225, Note_on_c, 2, 70, 51
2, 52226, Note_on_c, 2, 74, 56
2, 52229, Control_c, 2, 64, 0
2, 52269, Note_on_c, 2, 60, 65
2, 52311, Control_c, 2, 64, 127
2, 52314, Note_on_c, 2, 69, 49
2, 52315, Note_on_c, 2, 72, 55
2, 52318, Note_on_c, 2, 74, 0
2, 52318, Note_on_c, 2, 70, 0
2, 52322, Note_on_c, 2, 72, 0
2, 52325, Note_on_c, 2, 69, 0
2, 52351, Note_on_c, 2, 60, 0
2, 52354, Note_on_c, 2, 48, 55
2, 52381, Note_on_c, 2, 55, 0
2, 52396, Note_on_c, 2, 58, 45
2, 52396, Note_on_c, 2, 64, 59
2, 52406, Note_on_c, 2, 58, 0
2, 52410, Note_on_c, 2, 64, 0
2, 52440, Note_on_c, 2, 48, 0
2, 52444, Note_on_c, 2, 53, 55
2, 52444, Note_on_c, 2, 57, 52
2, 52451, Control_c, 2, 64, 0
2, 52488, Note_on_c, 2, 84, 62
2, 52492, Control_c, 2, 64, 127
2, 52507, Note_on_c, 2, 81, 56
2, 52529, Note_on_c, 2, 77, 56
2, 52532, Note_on_c, 2, 84, 0
2, 52544, Note_on_c, 2, 81, 0
2, 52551, Note_on_c, 2, 77, 0
2, 52551, Note_on_c, 2, 72, 66
2, 52562, Note_on_c, 2, 72, 0
2, 52573, Note_on_c, 2, 69, 40
2, 52592, Note_on_c, 2, 65, 56
2, 52596, Note_on_c, 2, 69, 0
2, 52600, Note_on_c, 2, 65, 0
2, 52614, Note_on_c, 2, 60, 68
2, 52618, Note_on_c, 2, 63, 100
2, 52618, Control_c, 2, 64, 0
2, 52625, Note_on_c, 2, 57, 0
2, 52629, Note_on_c, 2, 53, 0
2, 52629, Control_c, 2, 64, 127
2, 52655, Note_on_c, 2, 41, 65
2, 52655, Note_on_c, 2, 53, 60
2, 52666, Note_on_c, 2, 53, 0
2, 52666, Note_on_c, 2, 41, 0
2, 52700, Note_on_c, 2, 57, 55
2, 52700, Note_on_c, 2, 45, 66
2, 52706, Note_on_c, 2, 57, 0
2, 52710, Note_on_c, 2, 45, 0
2, 52740, Note_on_c, 2, 40, 54
2, 52741, Note_on_c, 2, 41, 49
2, 52741, Note_on_c, 2, 53, 55
2, 52747, Note_on_c, 2, 41, 0
2, 52747, Note_on_c, 2, 40, 0
2, 52751, Note_on_c, 2, 53, 0
2, 52780, Note_on_c, 2, 58, 47
2, 52781, Note_on_c, 2, 46, 56
2, 52784, Note_on_c, 2, 60, 0
2, 52788, Note_on_c, 2, 63, 0
2, 52810, Control_c, 2, 64, 0
2, 52825, Note_on_c, 2, 62, 55
2, 52829, Control_c, 2, 64, 127
2, 52862, Note_on_c, 2, 62, 0
2, 52862, Note_on_c, 2, 46, 0
2, 52866, Note_on_c, 2, 55, 56
2, 52870, Note_on_c, 2, 58, 0
2, 52907, Note_on_c, 2, 70, 47
2, 52907, Note_on_c, 2, 74, 55
2, 52948, Control_c, 2, 64, 0
2, 52952, Note_on_c, 2, 60, 55
2, 52985, Control_c, 2, 64, 127
2, 52992, Note_on_c, 2, 69, 45
2, 52992, Note_on_c, 2, 72, 56
2, 52995, Note_on_c, 2, 70, 0
2, 52996, Note_on_c, 2, 74, 0
2, 53003, Note_on_c, 2, 72, 0
2, 53007, Note_on_c, 2, 69, 0
2, 53033, Note_on_c, 2, 48, 54
2, 53036, Note_on_c, 2, 60, 0
2, 53040, Note_on_c, 2, 55, 0
2, 53052, Note_on_c, 2, 48, 0
2, 53074, Note_on_c, 2, 58, 35
2, 53074, Note_on_c, 2, 64, 47
2, 53088, Note_on_c, 2, 58, 0
2, 53092, Note_on_c, 2, 64, 0
2, 53118, Note_on_c, 2, 41, 56
2, 53119, Note_on_c, 2, 57, 54
2, 53119, Note_on_c, 2, 65, 59
2, 53122, Control_c, 2, 64, 0
2, 53137, Note_on_c, 2, 41, 0
2, 53137, Note_on_c, 2, 53, 60
2, 53140, Control_c, 2, 64, 127
2, 53159, Note_on_c, 2, 52, 56
2, 53162, Note_on_c, 2, 53, 0
2, 53170, Note_on_c, 2, 57, 0
2, 53177, Note_on_c, 2, 53, 57
2, 53181, Note_on_c, 2, 52, 0
2, 53196, Note_on_c, 2, 53, 0
2, 53196, Note_on_c, 2, 65, 0
2, 53200, Note_on_c, 2, 41, 65
2, 53214, Note_on_c, 2, 41, 0
2, 53218, Note_on_c, 2, 53, 55
2, 53240, Note_on_c, 2, 65, 54
2, 53240, Note_on_c, 2, 69, 48
2, 53240, Note_on_c, 2, 52, 60
2, 53244, Note_on_c, 2, 53, 0
2, 53259, Note_on_c, 2, 52, 0
2, 53259, Note_on_c, 2, 69, 0
2, 53259, Note_on_c, 2, 53, 54
2, 53262, Note_on_c, 2, 65, 0
2, 53277, Note_on_c, 2, 53, 0
2, 53281, Note_on_c, 2, 41, 63
2, 53285, Note_on_c, 2, 64, 48
2, 53285, Note_on_c, 2, 67, 53
2, 53296, Note_on_c, 2, 64, 0
2, 53296, Note_on_c, 2, 41, 0
2, 53300, Note_on_c, 2, 67, 0
2, 53300, Note_on_c, 2, 53, 55
2, 53300, Control_c, 2, 64, 0
2, 53322, Note_on_c, 2, 53, 0
2, 53322, Note_on_c, 2, 52, 56
2, 53322, Note_on_c, 2, 64, 53
2, 53322, Note_on_c, 2, 67, 56
2, 53325, Control_c, 2, 64, 127
2, 53344, Note_on_c, 2, 67, 0
2, 53344, Note_on_c, 2, 64, 0
2, 53344, Note_on_c, 2, 52, 0
2, 53344, Note_on_c, 2, 53, 56
2, 53362, Note_on_c, 2, 53, 0
2, 53362, Note_on_c, 2, 41, 59
2, 53381, Note_on_c, 2, 41, 0
2, 53385, Note_on_c, 2, 53, 59
2, 53407, Note_on_c, 2, 53, 0
2, 53407, Note_on_c, 2, 70, 54
2, 53407, Note_on_c, 2, 52, 55
2, 53407, Note_on_c, 2, 67, 54
2, 53421, Note_on_c, 2, 67, 0
2, 53425, Note_on_c, 2, 52, 0
2, 53425, Note_on_c, 2, 70, 0
2, 53425, Note_on_c, 2, 53, 55
2, 53440, Note_on_c, 2, 53, 0
2, 53444, Note_on_c, 2, 41, 60
2, 53448, Note_on_c, 2, 65, 54
2, 53448, Note_on_c, 2, 69, 56
2, 53462, Note_on_c, 2, 65, 0
2, 53462, Note_on_c, 2, 41, 0
2, 53463, Note_on_c, 2, 69, 0
2, 53463, Note_on_c, 2, 53, 60
2, 53466, Control_c, 2, 64, 0
2, 53488, Note_on_c, 2, 53, 0
2, 53488, Note_on_c, 2, 52, 56
2, 53489, Note_on_c, 2, 69, 56
2, 53489, Note_on_c, 2, 65, 53
2, 53496, Control_c, 2, 64, 127
2, 53510, Note_on_c, 2, 65, 0
2, 53514, Note_on_c, 2, 69, 0
2, 53514, Note_on_c, 2, 52, 0
2, 53514, Note_on_c, 2, 53, 57
2, 53529, Note_on_c, 2, 53, 0
2, 53533, Note_on_c, 2, 41, 60
2, 53547, Note_on_c, 2, 41, 0
2, 53551, Note_on_c, 2, 53, 56
2, 53574, Note_on_c, 2, 52, 56
2, 53574, Note_on_c, 2, 77, 46
2, 53574, Note_on_c, 2, 81, 48
2, 53578, Note_on_c, 2, 53, 0
2, 53592, Control_c, 2, 64, 0
2, 53596, Note_on_c, 2, 52, 0
2, 53596, Note_on_c, 2, 77, 0
2, 53596, Note_on_c, 2, 81, 0
2, 53596, Note_on_c, 2, 53, 53
2, 53614, Note_on_c, 2, 53, 0
2, 53614, Note_on_c, 2, 41, 62
2, 53615, Control_c, 2, 64, 127
2, 53618, Note_on_c, 2, 76, 52
2, 53618, Note_on_c, 2, 79, 59
2, 53630, Note_on_c, 2, 76, 0
2, 53633, Note_on_c, 2, 79, 0
2, 53633, Note_on_c, 2, 41, 0
2, 53637, Note_on_c, 2, 53, 47
2, 53659, Note_on_c, 2, 52, 40
2, 53662, Note_on_c, 2, 79, 63
2, 53662, Note_on_c, 2, 76, 55
2, 53670, Note_on_c, 2, 53, 0
2, 53673, Note_on_c, 2, 76, 0
2, 53677, Note_on_c, 2, 79, 0
2, 53681, Note_on_c, 2, 53, 47
2, 53684, Note_on_c, 2, 52, 0
2, 53699, Note_on_c, 2, 53, 0
2, 53700, Note_on_c, 2, 41, 47
2, 53718, Note_on_c, 2, 41, 0
2, 53722, Note_on_c, 2, 53, 42
2, 53744, Note_on_c, 2, 52, 47
2, 53745, Note_on_c, 2, 76, 50
2, 53745, Note_on_c, 2, 79, 46
2, 53745, Note_on_c, 2, 82, 45
2, 53748, Note_on_c, 2, 53, 0
2, 53755, Note_on_c, 2, 79, 0
2, 53759, Note_on_c, 2, 52, 0
2, 53759, Note_on_c, 2, 76, 0
2, 53759, Note_on_c, 2, 82, 0
2, 53792, Control_c, 2, 64, 0
2, 53800, Note_on_c, 2, 41, 54
2, 53800, Note_on_c, 2, 53, 54
2, 53800, Note_on_c, 2, 76, 57
2, 53800, Note_on_c, 2, 79, 62
2, 53800, Note_on_c, 2, 82, 56
2, 53911, Control_c, 2, 64, 127
2, 53957, Note_on_c, 2, 79, 0
2, 53962, Note_on_c, 2, 82, 0
2, 53974, Note_on_c, 2, 41, 0
2, 53978, Note_on_c, 2, 76, 0
2, 53989, Note_on_c, 2, 53, 0
2, 54066, Note_on_c, 2, 77, 40
2, 54066, Note_on_c, 2, 81, 40
2, 54174, Note_on_c, 2, 81, 0
2, 54174, Note_on_c, 2, 77, 0
2, 54322, Control_c, 2, 64, 0
2, 54396, Note_on_c, 2, 71, 33
2, 54411, Note_on_c, 2, 72, 45
2, 54418, Note_on_c, 2, 71, 0
2, 54426, Note_on_c, 2, 74, 47
2, 54430, Note_on_c, 2, 72, 0
2, 54440, Note_on_c, 2, 72, 52
2, 54444, Note_on_c, 2, 74, 0
2, 54445, Note_on_c, 2, 65, 45
2, 54463, Control_c, 2, 64, 127
2, 54467, Note_on_c, 2, 65, 0
2, 54467, Note_on_c, 2, 69, 54
2, 54485, Note_on_c, 2, 69, 0
2, 54485, Note_on_c, 2, 68, 56
2, 54500, Note_on_c, 2, 68, 0
2, 54504, Note_on_c, 2, 69, 51
2, 54518, Note_on_c, 2, 69, 0
2, 54522, Note_on_c, 2, 65, 49
2, 54537, Note_on_c, 2, 65, 0
2, 54540, Note_on_c, 2, 69, 43
2, 54559, Note_on_c, 2, 69, 0
2, 54560, Note_on_c, 2, 68, 54
2, 54578, Note_on_c, 2, 68, 0
2, 54578, Note_on_c, 2, 69, 50
2, 54596, Note_on_c, 2, 69, 0
2, 54600, Note_on_c, 2, 65, 45
2, 54604, Note_on_c, 2, 72, 0
2, 54618, Note_on_c, 2, 65, 0
2, 54622, Note_on_c, 2, 69, 35
2, 54640, Note_on_c, 2, 77, 46
2, 54641, Note_on_c, 2, 68, 54
2, 54644, Note_on_c, 2, 69, 0
2, 54659, Note_on_c, 2, 68, 0
2, 54663, Note_on_c, 2, 69, 45
2, 54677, Note_on_c, 2, 69, 0
2, 54678, Note_on_c, 2, 65, 52
2, 54681, Note_on_c, 2, 76, 49
2, 54685, Note_on_c, 2, 77, 0
2, 54696, Note_on_c, 2, 65, 0
2, 54700, Note_on_c, 2, 69, 44
2, 54718, Note_on_c, 2, 68, 54
2, 54722, Note_on_c, 2, 69, 0
2, 54722, Note_on_c, 2, 74, 42
2, 54726, Note_on_c, 2, 76, 0
2, 54737, Note_on_c, 2, 74, 0
2, 54740, Note_on_c, 2, 68, 0
2, 54740, Note_on_c, 2, 69, 54
2, 54755, Note_on_c, 2, 69, 0
2, 54763, Note_on_c, 2, 74, 47
2, 54763, Note_on_c, 2, 64, 52
2, 54774, Note_on_c, 2, 76, 53
2, 54778, Note_on_c, 2, 74, 0
2, 54778, Note_on_c, 2, 67, 39
2, 54778, Control_c, 2, 64, 0
2, 54781, Note_on_c, 2, 64, 0
2, 54785, Note_on_c, 2, 74, 47
2, 54792, Note_on_c, 2, 76, 0
2, 54796, Note_on_c, 2, 72, 49
2, 54796, Control_c, 2, 64, 127
2, 54801, Note_on_c, 2, 66, 48
2, 54804, Note_on_c, 2, 74, 0
2, 54804, Note_on_c, 2, 67, 0
2, 54818, Note_on_c, 2, 66, 0
2, 54819, Note_on_c, 2, 67, 46
2, 54837, Note_on_c, 2, 67, 0
2, 54837, Note_on_c, 2, 64, 49
2, 54855, Note_on_c, 2, 64, 0
2, 54856, Note_on_c, 2, 72, 0
2, 54859, Note_on_c, 2, 67, 47
2, 54878, Note_on_c, 2, 66, 56
2, 54878, Note_on_c, 2, 72, 55
2, 54882, Note_on_c, 2, 67, 0
2, 54896, Note_on_c, 2, 66, 0
2, 54897, Note_on_c, 2, 67, 45
2, 54911, Note_on_c, 2, 67, 0
2, 54911, Note_on_c, 2, 64, 45
2, 54919, Note_on_c, 2, 72, 0
2, 54922, Note_on_c, 2, 71, 62
2, 54934, Note_on_c, 2, 64, 0
2, 54934, Note_on_c, 2, 67, 46
2, 54952, Note_on_c, 2, 72, 49
2, 54956, Note_on_c, 2, 67, 0
2, 54956, Note_on_c, 2, 71, 0
2, 54956, Note_on_c, 2, 66, 62
2, 54970, Note_on_c, 2, 66, 0
2, 54970, Note_on_c, 2, 67, 52
2, 54989, Note_on_c, 2, 67, 0
2, 54989, Note_on_c, 2, 74, 55
2, 54989, Note_on_c, 2, 64, 57
2, 54992, Note_on_c, 2, 72, 0
2, 55007, Note_on_c, 2, 64, 0
2, 55007, Note_on_c, 2, 67, 55
2, 55030, Note_on_c, 2, 67, 0
2, 55030, Note_on_c, 2, 66, 63
2, 55030, Note_on_c, 2, 72, 68
2, 55037, Note_on_c, 2, 74, 0
2, 55041, Note_on_c, 2, 72, 0
2, 55045, Note_on_c, 2, 66, 0
2, 55048, Note_on_c, 2, 67, 48
2, 55063, Note_on_c, 2, 67, 0
2, 55070, Note_on_c, 2, 72, 66
2, 55070, Note_on_c, 2, 62, 56
2, 55078, Note_on_c, 2, 74, 54
2, 55082, Note_on_c, 2, 72, 0
2, 55086, Control_c, 2, 64, 0
2, 55089, Note_on_c, 2, 72, 62
2, 55093, Note_on_c, 2, 62, 0
2, 55093, Note_on_c, 2, 65, 53
2, 55096, Note_on_c, 2, 74, 0
2, 55100, Control_c, 2, 64, 127
2, 55107, Note_on_c, 2, 70, 62
2, 55107, Note_on_c, 2, 64, 46
2, 55111, Note_on_c, 2, 72, 0
2, 55115, Note_on_c, 2, 65, 0
2, 55122, Note_on_c, 2, 70, 0
2, 55122, Note_on_c, 2, 64, 0
2, 55126, Note_on_c, 2, 65, 50
2, 55145, Note_on_c, 2, 65, 0
2, 55148, Note_on_c, 2, 62, 41
2, 55148, Note_on_c, 2, 70, 68
2, 55163, Note_on_c, 2, 70, 0
2, 55163, Note_on_c, 2, 62, 0
2, 55167, Note_on_c, 2, 65, 45
2, 55186, Note_on_c, 2, 70, 65
2, 55186, Note_on_c, 2, 64, 54
2, 55189, Note_on_c, 2, 65, 0
2, 55196, Note_on_c, 2, 64, 0
2, 55196, Note_on_c, 2, 70, 0
2, 55200, Note_on_c, 2, 65, 46
2, 55215, Note_on_c, 2, 65, 0
2, 55219, Note_on_c, 2, 60, 57
2, 55220, Note_on_c, 2, 70, 70
2, 55230, Note_on_c, 2, 70, 0
2, 55234, Note_on_c, 2, 72, 57
2, 55241, Control_c, 2, 64, 0
2, 55245, Note_on_c, 2, 70, 65
2, 55248, Note_on_c, 2, 72, 0
2, 55248, Note_on_c, 2, 60, 0
2, 55248, Note_on_c, 2, 64, 56
2, 55256, Note_on_c, 2, 69, 60
2, 55256, Control_c, 2, 64, 127
2, 55263, Note_on_c, 2, 70, 0
2, 55263, Note_on_c, 2, 62, 46
2, 55274, Note_on_c, 2, 69, 0
2, 55274, Note_on_c, 2, 64, 0
2, 55275, Note_on_c, 2, 62, 0
2, 55293, Note_on_c, 2, 60, 40
2, 55296, Note_on_c, 2, 69, 46
2, 55307, Note_on_c, 2, 60, 0
2, 55311, Note_on_c, 2, 69, 0
2, 55315, Note_on_c, 2, 64, 36
2, 55330, Note_on_c, 2, 64, 0
2, 55333, Note_on_c, 2, 62, 54
2, 55337, Note_on_c, 2, 69, 50
2, 55344, Note_on_c, 2, 62, 0
2, 55348, Note_on_c, 2, 69, 0
2, 55348, Note_on_c, 2, 64, 38
2, 55366, Note_on_c, 2, 64, 0
2, 55374, Note_on_c, 2, 58, 57
2, 55374, Note_on_c, 2, 69, 42
2, 55389, Note_on_c, 2, 70, 55
2, 55393, Note_on_c, 2, 58, 0
2, 55393, Note_on_c, 2, 62, 52
2, 55396, Note_on_c, 2, 69, 0
2, 55408, Note_on_c, 2, 67, 63
2, 55411, Note_on_c, 2, 70, 0
2, 55411, Note_on_c, 2, 60, 46
2, 55422, Note_on_c, 2, 60, 0
2, 55444, Note_on_c, 2, 62, 0
2, 55444, Note_on_c, 2, 58, 59
2, 55448, Note_on_c, 2, 70, 65
2, 55456, Note_on_c, 2, 67, 0
2, 55463, Note_on_c, 2, 58, 0
2, 55463, Note_on_c, 2, 62, 53
2, 55486, Note_on_c, 2, 70, 0
2, 55486, Note_on_c, 2, 60, 39
2, 55486, Note_on_c, 2, 67, 62
2, 55492, Note_on_c, 2, 60, 0
2, 55504, Note_on_c, 2, 62, 0
2, 55507, Note_on_c, 2, 67, 0
2, 55526, Note_on_c, 2, 57, 56
2, 55530, Note_on_c, 2, 64, 60
2, 55541, Control_c, 2, 64, 0
2, 55545, Note_on_c, 2, 57, 0
2, 55548, Note_on_c, 2, 60, 54
2, 55556, Control_c, 2, 64, 127
2, 55567, Note_on_c, 2, 60, 0
2, 55567, Note_on_c, 2, 57, 56
2, 55567, Note_on_c, 2, 65, 53
2, 55570, Note_on_c, 2, 64, 0
2, 55585, Note_on_c, 2, 57, 0
2, 55585, Note_on_c, 2, 60, 53
2, 55604, Note_on_c, 2, 60, 0
2, 55608, Note_on_c, 2, 57, 52
2, 55619, Note_on_c, 2, 57, 0
2, 55641, Note_on_c, 2, 65, 0
2, 55671, Note_on_c, 2, 57, 53
2, 55674, Note_on_c, 2, 60, 46
2, 55693, Note_on_c, 2, 65, 29
2, 55693, Note_on_c, 2, 64, 20
2, 55697, Control_c, 2, 64, 0
2, 55700, Note_on_c, 2, 64, 0
2, 55700, Note_on_c, 2, 67, 52
2, 55708, Note_on_c, 2, 65, 0
2, 55715, Control_c, 2, 64, 127
2, 55718, Note_on_c, 2, 67, 0
2, 55719, Note_on_c, 2, 65, 63
2, 55737, Note_on_c, 2, 67, 52
2, 55741, Note_on_c, 2, 65, 0
2, 55760, Note_on_c, 2, 67, 0
2, 55760, Note_on_c, 2, 65, 55
2, 55778, Note_on_c, 2, 67, 49
2, 55782, Note_on_c, 2, 65, 0
2, 55782, Note_on_c, 2, 57, 0
2, 55800, Note_on_c, 2, 67, 0
2, 55800, Note_on_c, 2, 69, 46
2, 55808, Note_on_c, 2, 60, 0
2, 55826, Note_on_c, 2, 69, 0
2, 55826, Note_on_c, 2, 58, 48
2, 55826, Note_on_c, 2, 60, 53
2, 55826, Note_on_c, 2, 65, 44
2, 55845, Note_on_c, 2, 64, 49
2, 55852, Note_on_c, 2, 65, 0
2, 55856, Control_c, 2, 64, 0
2, 55871, Note_on_c, 2, 67, 46
2, 55878, Note_on_c, 2, 64, 0
2, 55889, Control_c, 2, 64, 127
2, 55893, Note_on_c, 2, 65, 49
2, 55900, Note_on_c, 2, 67, 0
2, 55919, Note_on_c, 2, 65, 0
2, 55919, Note_on_c, 2, 64, 54
2, 55938, Note_on_c, 2, 58, 0
2, 55941, Note_on_c, 2, 70, 39
2, 55945, Note_on_c, 2, 60, 0
2, 55967, Note_on_c, 2, 57, 50
2, 55967, Note_on_c, 2, 60, 52
2, 55967, Note_on_c, 2, 67, 44
2, 55974, Note_on_c, 2, 70, 0
2, 55990, Control_c, 2, 64, 0
2, 55993, Note_on_c, 2, 65, 43
2, 55997, Note_on_c, 2, 67, 0
2, 56019, Note_on_c, 2, 69, 46
2, 56023, Note_on_c, 2, 64, 0
2, 56023, Note_on_c, 2, 65, 0
2, 56045, Note_on_c, 2, 67, 53
2, 56048, Note_on_c, 2, 69, 0
2, 56068, Note_on_c, 2, 65, 56
2, 56074, Note_on_c, 2, 67, 0
2, 56093, Note_on_c, 2, 72, 54
2, 56119, Note_on_c, 2, 69, 57
2, 56123, Note_on_c, 2, 72, 0
2, 56130, Control_c, 2, 64, 127
2, 56156, Note_on_c, 2, 60, 0
2, 56163, Note_on_c, 2, 57, 0
2, 56234, Note_on_c, 2, 65, 0
2, 56256, Note_on_c, 2, 69, 0
2, 56271, Note_on_c, 2, 46, 35
2, 56278, Note_on_c, 2, 50, 42
2, 56290, Note_on_c, 2, 55, 38
2, 56293, Note_on_c, 2, 67, 62
2, 56308, Control_c, 2, 64, 0
2, 56312, Note_on_c, 2, 70, 42
2, 56330, Control_c, 2, 64, 127
2, 56334, Note_on_c, 2, 67, 0
2, 56338, Note_on_c, 2, 70, 0
2, 56338, Note_on_c, 2, 74, 60
2, 56345, Note_on_c, 2, 74, 0
2, 56364, Note_on_c, 2, 79, 59
2, 56389, Note_on_c, 2, 82, 63
2, 56393, Note_on_c, 2, 50, 0
2, 56393, Note_on_c, 2, 46, 0
2, 56404, Note_on_c, 2, 79, 0
2, 56408, Note_on_c, 2, 55, 0
2, 56412, Note_on_c, 2, 82, 0
2, 56412, Note_on_c, 2, 86, 52
2, 56426, Note_on_c, 2, 86, 0
2, 56438, Note_on_c, 2, 48, 55
2, 56438, Note_on_c, 2, 57, 49
2, 56438, Note_on_c, 2, 86, 55
2, 56445, Control_c, 2, 64, 0
2, 56460, Note_on_c, 2, 84, 52
2, 56464, Note_on_c, 2, 86, 0
2, 56464, Control_c, 2, 64, 127
2, 56474, Note_on_c, 2, 57, 0
2, 56482, Note_on_c, 2, 48, 0
2, 56486, Note_on_c, 2, 84, 0
2, 56486, Note_on_c, 2, 82, 65
2, 56500, Note_on_c, 2, 81, 66
2, 56508, Note_on_c, 2, 82, 0
2, 56512, Note_on_c, 2, 81, 0
2, 56520, Note_on_c, 2, 58, 45
2, 56522, Note_on_c, 2, 48, 55
2, 56523, Note_on_c, 2, 81, 57
2, 56526, Control_c, 2, 64, 0
2, 56538, Note_on_c, 2, 79, 66
2, 56542, Note_on_c, 2, 81, 0
2, 56542, Control_c, 2, 64, 127
2, 56552, Note_on_c, 2, 58, 0
2, 56560, Note_on_c, 2, 48, 0
2, 56560, Note_on_c, 2, 77, 62
2, 56567, Note_on_c, 2, 79, 0
2, 56582, Note_on_c, 2, 76, 65
2, 56586, Note_on_c, 2, 77, 0
2, 56604, Note_on_c, 2, 41, 60
2, 56608, Note_on_c, 2, 76, 0
2, 56608, Note_on_c, 2, 77, 70
2, 56616, Control_c, 2, 64, 0
2, 56630, Note_on_c, 2, 43, 55
2, 56641, Note_on_c, 2, 41, 0
2, 56656, Note_on_c, 2, 45, 68
2, 56664, Note_on_c, 2, 43, 0
2, 56678, Note_on_c, 2, 46, 72
2, 56686, Note_on_c, 2, 45, 0
2, 56704, Note_on_c, 2, 48, 65
2, 56708, Note_on_c, 2, 46, 0
2, 56730, Note_on_c, 2, 50, 63
2, 56734, Note_on_c, 2, 48, 0
2, 56753, Note_on_c, 2, 51, 66
2, 56756, Note_on_c, 2, 50, 0
2, 56779, Note_on_c, 2, 51, 0
2, 56779, Note_on_c, 2, 50, 65
2, 56801, Note_on_c, 2, 48, 53
2, 56808, Note_on_c, 2, 50, 0
2, 56826, Note_on_c, 2, 46, 66
2, 56830, Note_on_c, 2, 48, 0
2, 56848, Note_on_c, 2, 46, 0
2, 56849, Note_on_c, 2, 45, 48
2, 56874, Note_on_c, 2, 43, 56
2, 56878, Note_on_c, 2, 45, 0
2, 56893, Note_on_c, 2, 77, 0
2, 56901, Note_on_c, 2, 42, 68
2, 56904, Note_on_c, 2, 43, 0
2, 56926, Note_on_c, 2, 81, 59
2, 56941, Note_on_c, 2, 42, 0
2, 56949, Note_on_c, 2, 82, 55
2, 56960, Note_on_c, 2, 81, 0
2, 56975, Note_on_c, 2, 84, 60
2, 56978, Note_on_c, 2, 82, 0
2, 56997, Note_on_c, 2, 84, 0
2, 57001, Note_on_c, 2, 78, 63
2, 57026, Note_on_c, 2, 79, 51
2, 57034, Note_on_c, 2, 78, 0
2, 57049, Note_on_c, 2, 81, 55
2, 57052, Note_on_c, 2, 79, 0
2, 57071, Note_on_c, 2, 81, 0
2, 57071, Note_on_c, 2, 72, 59
2, 57094, Control_c, 2, 64, 127
2, 57097, Note_on_c, 2, 74, 45
2, 57119, Note_on_c, 2, 72, 0
2, 57119, Note_on_c, 2, 75, 44
2, 57123, Note_on_c, 2, 74, 0
2, 57145, Note_on_c, 2, 75, 0
2, 57148, Note_on_c, 2, 69, 59
2, 57172, Note_on_c, 2, 72, 59
2, 57178, Note_on_c, 2, 69, 0
2, 57197, Note_on_c, 2, 43, 54
2, 57198, Note_on_c, 2, 70, 70
2, 57205, Note_on_c, 2, 72, 0
2, 57223, Note_on_c, 2, 46, 65
2, 57224, Control_c, 2, 64, 0
2, 57238, Note_on_c, 2, 43, 0
2, 57250, Note_on_c, 0, 48, 100
2, 57252, Note_on_c, 2, 46, 0
2, 57274, Note_on_c, 2, 50, 72
2, 57280, Note_on_c, 0, 48, 0
2, 57293, Note_on_c, 2, 53, 70
2, 57295, Note_on_c, 2, 50, 0
2, 57319, Note_on_c, 2, 53, 0
2, 57319, Note_on_c, 2, 55, 66
2, 57342, Note_on_c, 2, 56, 70
2, 57348, Note_on_c, 2, 55, 0
2, 57363, Note_on_c, 2, 56, 0
2, 57364, Note_on_c, 2, 55, 54
2, 57390, Note_on_c, 2, 53, 51
2, 57393, Note_on_c, 2, 55, 0
2, 57416, Note_on_c, 2, 51, 65
2, 57420, Note_on_c, 2, 53, 0
2, 57434, Note_on_c, 2, 51, 0
2, 57434, Note_on_c, 2, 50, 55
2, 57460, Note_on_c, 2, 48, 50
2, 57464, Note_on_c, 2, 50, 0
2, 57467, Note_on_c, 2, 70, 0
2, 57486, Note_on_c, 2, 47, 66
2, 57490, Note_on_c, 2, 48, 0
2, 57512, Note_on_c, 2, 74, 54
2, 57534, Note_on_c, 2, 47, 0
2, 57538, Note_on_c, 2, 75, 45
2, 57549, Note_on_c, 2, 74, 0
2, 57560, Note_on_c, 2, 77, 52
2, 57564, Note_on_c, 2, 75, 0
2, 57586, Note_on_c, 2, 77, 0
2, 57586, Note_on_c, 2, 71, 48
2, 57608, Note_on_c, 2, 72, 47
2, 57635, Note_on_c, 2, 74, 54
2, 57638, Note_on_c, 2, 71, 0
2, 57642, Note_on_c, 2, 72, 0
2, 57660, Note_on_c, 2, 74, 0
2, 57660, Note_on_c, 2, 65, 65
2, 57686, Note_on_c, 2, 67, 47
2, 57697, Control_c, 2, 64, 127
2, 57708, Note_on_c, 2, 65, 0
2, 57708, Note_on_c, 2, 68, 46
2, 57712, Note_on_c, 2, 67, 0
2, 57734, Note_on_c, 2, 68, 0
2, 57735, Note_on_c, 2, 62, 54
2, 57760, Note_on_c, 2, 65, 52
2, 57783, Note_on_c, 2, 48, 63
2, 57783, Note_on_c, 2, 64, 83
2, 57786, Note_on_c, 2, 62, 0
2, 57786, Control_c, 2, 64, 0
2, 57790, Note_on_c, 2, 65, 0
2, 57808, Note_on_c, 2, 50, 57
2, 57812, Note_on_c, 2, 48, 0
2, 57831, Note_on_c, 2, 52, 79
2, 57838, Note_on_c, 2, 50, 0
2, 57853, Note_on_c, 2, 53, 79
2, 57864, Note_on_c, 2, 52, 0
2, 57879, Note_on_c, 2, 53, 0
2, 57879, Note_on_c, 2, 55, 66
2, 57890, Control_c, 2, 64, 127
2, 57901, Note_on_c, 2, 57, 62
2, 57905, Note_on_c, 2, 55, 0
2, 57916, Note_on_c, 2, 57, 0
2, 57927, Note_on_c, 2, 58, 63
2, 57949, Note_on_c, 2, 58, 0
2, 57950, Note_on_c, 2, 57, 53
2, 57953, Control_c, 2, 64, 0
2, 57976, Note_on_c, 2, 55, 54
2, 57978, Note_on_c, 2, 57, 0
2, 57998, Note_on_c, 2, 53, 53
2, 58005, Note_on_c, 2, 55, 0
2, 58020, Note_on_c, 2, 52, 46
2, 58030, Note_on_c, 2, 53, 0
2, 58038, Note_on_c, 2, 64, 0
2, 58045, Note_on_c, 2, 50, 43
2, 58045, Control_c, 2, 64, 127
2, 58053, Note_on_c, 2, 52, 0
2, 58056, Note_on_c, 2, 50, 0
2, 58078, Note_on_c, 2, 49, 59
2, 58079, Control_c, 2, 64, 0
2, 58101, Note_on_c, 2, 82, 39
2, 58101, Note_on_c, 2, 79, 40
2, 58119, Note_on_c, 2, 82, 0
2, 58123, Note_on_c, 2, 81, 62
2, 58131, Note_on_c, 2, 79, 0
2, 58138, Control_c, 2, 64, 127
2, 58149, Note_on_c, 2, 82, 56
2, 58153, Note_on_c, 2, 81, 0
2, 58171, Note_on_c, 2, 82, 0
2, 58175, Note_on_c, 2, 81, 53
2, 58198, Note_on_c, 2, 82, 56
2, 58201, Note_on_c, 2, 81, 0
2, 58208, Note_on_c, 2, 82, 0
2, 58224, Note_on_c, 2, 61, 59
2, 58227, Note_on_c, 2, 49, 0
2, 58242, Control_c, 2, 64, 0
2, 58246, Note_on_c, 2, 67, 53
2, 58246, Note_on_c, 2, 70, 66
2, 58268, Note_on_c, 2, 69, 63
2, 58268, Control_c, 2, 64, 127
2, 58271, Note_on_c, 2, 70, 0
2, 58278, Note_on_c, 2, 67, 0
2, 58294, Note_on_c, 2, 70, 65
2, 58297, Note_on_c, 2, 69, 0
2, 58312, Note_on_c, 2, 61, 0
2, 58316, Note_on_c, 2, 70, 0
2, 58316, Note_on_c, 2, 69, 46
2, 58338, Note_on_c, 2, 70, 53
2, 58346, Note_on_c, 2, 69, 0
2, 58364, Note_on_c, 2, 70, 0
2, 58364, Note_on_c, 2, 69, 57
2, 58368, Note_on_c, 2, 62, 54
2, 58368, Note_on_c, 2, 66, 56
2, 58382, Note_on_c, 2, 62, 0
2, 58387, Control_c, 2, 64, 0
2, 58394, Note_on_c, 2, 66, 0
2, 58401, Note_on_c, 2, 69, 0
2, 58457, Note_on_c, 2, 75, 65
2, 58457, Note_on_c, 2, 69, 62
2, 58457, Note_on_c, 2, 66, 54
2, 58457, Note_on_c, 2, 60, 55
2, 58457, Note_on_c, 2, 48, 59
2, 58516, Control_c, 2, 64, 127
2, 58598, Note_on_c, 2, 69, 0
2, 58601, Note_on_c, 2, 66, 0
2, 58612, Note_on_c, 2, 48, 0
2, 58612, Note_on_c, 2, 75, 0
2, 58616, Note_on_c, 2, 60, 0
2, 58757, Control_c, 2, 64, 0
2, 58790, Note_on_c, 2, 46, 37
2, 58790, Note_on_c, 2, 58, 34
2, 58790, Note_on_c, 2, 74, 40
2, 58809, Note_on_c, 2, 79, 46
2, 58812, Control_c, 2, 64, 127
2, 58816, Note_on_c, 2, 74, 0
2, 58835, Note_on_c, 2, 78, 45
2, 58838, Note_on_c, 2, 79, 0
2, 58857, Note_on_c, 2, 79, 40
2, 58868, Note_on_c, 2, 78, 0
2, 58879, Note_on_c, 2, 79, 0
2, 58880, Note_on_c, 2, 81, 42
2, 58898, Note_on_c, 2, 79, 53
2, 58905, Note_on_c, 2, 81, 0
2, 58912, Note_on_c, 2, 79, 0
2, 58912, Note_on_c, 2, 78, 51
2, 58931, Note_on_c, 2, 79, 47
2, 58934, Note_on_c, 2, 78, 0
2, 58957, Note_on_c, 2, 82, 59
2, 58960, Note_on_c, 2, 79, 0
2, 58975, Note_on_c, 2, 82, 0
2, 58975, Note_on_c, 2, 79, 39
2, 58983, Note_on_c, 2, 46, 0
2, 58994, Note_on_c, 2, 79, 0
2, 58994, Note_on_c, 2, 78, 39
2, 58997, Note_on_c, 2, 58, 0
2, 59016, Note_on_c, 2, 79, 38
2, 59020, Note_on_c, 2, 78, 0
2, 59039, Note_on_c, 2, 48, 48
2, 59040, Note_on_c, 2, 60, 45
2, 59042, Note_on_c, 2, 79, 0
2, 59042, Note_on_c, 2, 81, 45
2, 59050, Control_c, 2, 64, 0
2, 59061, Note_on_c, 2, 79, 43
2, 59064, Note_on_c, 2, 81, 0
2, 59072, Control_c, 2, 64, 127
2, 59079, Note_on_c, 2, 60, 0
2, 59079, Note_on_c, 2, 78, 40
2, 59083, Note_on_c, 2, 48, 0
2, 59083, Note_on_c, 2, 79, 0
2, 59102, Note_on_c, 2, 79, 32
2, 59105, Note_on_c, 2, 78, 0
2, 59124, Note_on_c, 2, 58, 44
2, 59124, Note_on_c, 2, 46, 50
2, 59128, Note_on_c, 2, 79, 0
2, 59128, Note_on_c, 2, 74, 53
2, 59138, Control_c, 2, 64, 0
2, 59142, Note_on_c, 2, 79, 49
2, 59157, Note_on_c, 2, 74, 0
2, 59164, Control_c, 2, 64, 127
2, 59165, Note_on_c, 2, 78, 49
2, 59168, Note_on_c, 2, 79, 0
2, 59186, Note_on_c, 2, 79, 48
2, 59190, Note_on_c, 2, 78, 0
2, 59209, Note_on_c, 2, 81, 50
2, 59216, Note_on_c, 2, 79, 0
2, 59231, Note_on_c, 2, 79, 45
2, 59238, Note_on_c, 2, 81, 0
2, 59253, Note_on_c, 2, 78, 53
2, 59257, Note_on_c, 2, 79, 0
2, 59276, Note_on_c, 2, 79, 45
2, 59283, Note_on_c, 2, 78, 0
2, 59298, Note_on_c, 2, 82, 60
2, 59305, Note_on_c, 2, 79, 0
2, 59316, Note_on_c, 2, 46, 0
2, 59320, Note_on_c, 2, 79, 44
2, 59324, Note_on_c, 2, 82, 0
2, 59331, Note_on_c, 2, 58, 0
2, 59342, Note_on_c, 2, 79, 0
2, 59342, Note_on_c, 2, 78, 47
2, 59364, Note_on_c, 2, 79, 41
2, 59376, Note_on_c, 2, 78, 0
2, 59386, Note_on_c, 2, 51, 54
2, 59386, Note_on_c, 2, 63, 60
2, 59388, Note_on_c, 2, 72, 65
2, 59390, Note_on_c, 2, 79, 0
2, 59394, Control_c, 2, 64, 0
2, 59405, Control_c, 2, 64, 127
2, 59409, Note_on_c, 2, 79, 56
2, 59413, Note_on_c, 2, 51, 0
2, 59420, Note_on_c, 2, 63, 0
2, 59424, Note_on_c, 2, 72, 0
2, 59431, Note_on_c, 2, 79, 0
2, 59431, Note_on_c, 2, 78, 50
2, 59453, Note_on_c, 2, 78, 0
2, 59453, Note_on_c, 2, 79, 44
2, 59464, Note_on_c, 2, 79, 0
2, 59476, Note_on_c, 2, 62, 49
2, 59479, Note_on_c, 2, 70, 66
2, 59490, Control_c, 2, 64, 0
2, 59498, Note_on_c, 2, 67, 54
2, 59505, Control_c, 2, 64, 127
2, 59517, Note_on_c, 2, 66, 65
2, 59520, Note_on_c, 2, 67, 0
2, 59520, Note_on_c, 2, 82, 55
2, 59527, Note_on_c, 2, 70, 0
2, 59531, Note_on_c, 2, 62, 0
2, 59538, Note_on_c, 2, 67, 55
2, 59546, Note_on_c, 2, 66, 0
2, 59557, Note_on_c, 2, 67, 0
2, 59557, Note_on_c, 2, 82, 0
2, 59561, Note_on_c, 2, 62, 55
2, 59562, Note_on_c, 2, 71, 65
2, 59580, Note_on_c, 2, 67, 53
2, 59594, Control_c, 2, 64, 0
2, 59601, Note_on_c, 2, 67, 0
2, 59602, Note_on_c, 2, 66, 56
2, 59602, Note_on_c, 2, 83, 57
2, 59606, Note_on_c, 2, 71, 0
2, 59609, Control_c, 2, 64, 127
2, 59620, Note_on_c, 2, 62, 0
2, 59624, Note_on_c, 2, 67, 46
2, 59634, Note_on_c, 2, 66, 0
2, 59642, Note_on_c, 2, 83, 0
2, 59642, Note_on_c, 2, 72, 60
2, 59646, Note_on_c, 2, 60, 62
2, 59650, Note_on_c, 2, 67, 0
2, 59654, Control_c, 2, 64, 0
2, 59668, Note_on_c, 2, 67, 45
2, 59669, Control_c, 2, 64, 127
2, 59687, Note_on_c, 2, 75, 63
2, 59691, Note_on_c, 2, 66, 48
2, 59694, Note_on_c, 2, 67, 0
2, 59694, Note_on_c, 2, 72, 0
2, 59709, Note_on_c, 2, 67, 54
2, 59712, Note_on_c, 2, 60, 0
2, 59713, Note_on_c, 2, 66, 0
2, 59727, Note_on_c, 2, 60, 63
2, 59735, Note_on_c, 2, 67, 0
2, 59750, Note_on_c, 2, 66, 42
2, 59768, Note_on_c, 2, 74, 52
2, 59772, Note_on_c, 2, 60, 0
2, 59772, Note_on_c, 2, 75, 0
2, 59772, Note_on_c, 2, 67, 47
2, 59790, Note_on_c, 2, 66, 0
2, 59791, Note_on_c, 2, 74, 0
2, 59791, Note_on_c, 2, 72, 63
2, 59802, Note_on_c, 2, 67, 0
2, 59805, Note_on_c, 2, 72, 0
2, 59805, Note_on_c, 2, 60, 62
2, 59809, Note_on_c, 2, 75, 68
2, 59820, Note_on_c, 2, 75, 0
2, 59820, Note_on_c, 2, 77, 49
2, 59821, Control_c, 2, 64, 0
2, 59827, Note_on_c, 2, 66, 48
2, 59831, Note_on_c, 2, 75, 45
2, 59835, Note_on_c, 2, 77, 0
2, 59835, Control_c, 2, 64, 127
2, 59842, Note_on_c, 2, 75, 0
2, 59842, Note_on_c, 2, 77, 55
2, 59853, Note_on_c, 2, 75, 55
2, 59857, Note_on_c, 2, 77, 0
2, 59857, Note_on_c, 2, 67, 39
2, 59861, Note_on_c, 2, 60, 0
2, 59868, Note_on_c, 2, 75, 0
2, 59868, Note_on_c, 2, 77, 39
2, 59872, Note_on_c, 2, 66, 0
2, 59883, Note_on_c, 2, 67, 0
2, 59890, Note_on_c, 2, 75, 55
2, 59891, Note_on_c, 2, 60, 46
2, 59894, Note_on_c, 2, 77, 0
2, 59920, Note_on_c, 2, 66, 33
2, 59932, Note_on_c, 2, 74, 40
2, 59942, Note_on_c, 2, 75, 0
2, 59946, Note_on_c, 2, 60, 0
2, 59946, Note_on_c, 2, 72, 63
2, 59950, Note_on_c, 2, 74, 0
2, 59968, Note_on_c, 2, 66, 0
2, 59968, Note_on_c, 2, 62, 65
2, 59969, Note_on_c, 2, 70, 100
2, 59972, Note_on_c, 2, 72, 0
2, 59983, Control_c, 2, 64, 0
2, 59990, Note_on_c, 2, 66, 57
2, 59994, Control_c, 2, 64, 127
2, 60016, Note_on_c, 2, 62, 0
2, 60017, Note_on_c, 2, 67, 32
2, 60024, Note_on_c, 2, 66, 0
2, 60028, Note_on_c, 2, 70, 0
2, 60032, Note_on_c, 2, 67, 0
2, 60046, Note_on_c, 2, 62, 66
2, 60047, Note_on_c, 2, 69, 63
2, 60068, Note_on_c, 2, 66, 47
2, 60076, Note_on_c, 2, 69, 0
2, 60076, Note_on_c, 2, 62, 0
2, 60080, Note_on_c, 2, 70, 62
2, 60090, Note_on_c, 2, 70, 0
2, 60094, Note_on_c, 2, 66, 0
2, 60102, Note_on_c, 2, 69, 12
2, 60113, Note_on_c, 2, 69, 0
2, 60116, Note_on_c, 2, 70, 32
2, 60120, Note_on_c, 2, 70, 0
2, 60124, Note_on_c, 2, 62, 62
2, 60124, Note_on_c, 2, 70, 56
2, 60139, Control_c, 2, 64, 0
2, 60146, Note_on_c, 2, 67, 51
2, 60150, Control_c, 2, 64, 127
2, 60161, Note_on_c, 2, 67, 0
2, 60165, Note_on_c, 2, 66, 54
2, 60179, Note_on_c, 2, 62, 0
2, 60183, Note_on_c, 2, 67, 51
2, 60194, Note_on_c, 2, 67, 0
2, 60201, Note_on_c, 2, 66, 0
2, 60202, Note_on_c, 2, 62, 60
2, 60206, Note_on_c, 2, 70, 0
2, 60206, Note_on_c, 2, 71, 57
2, 60224, Note_on_c, 2, 67, 49
2, 60239, Note_on_c, 2, 67, 0
2, 60243, Note_on_c, 2, 66, 54
2, 60254, Note_on_c, 2, 62, 0
2, 60261, Note_on_c, 2, 67, 49
2, 60269, Note_on_c, 2, 66, 0
2, 60279, Note_on_c, 2, 67, 0
2, 60284, Note_on_c, 2, 60, 59
2, 60284, Note_on_c, 2, 72, 63
2, 60287, Note_on_c, 2, 71, 0
2, 60290, Control_c, 2, 64, 0
2, 60305, Note_on_c, 2, 67, 34
2, 60309, Control_c, 2, 64, 127
2, 60324, Note_on_c, 2, 66, 56
2, 60328, Note_on_c, 2, 67, 0
2, 60328, Note_on_c, 2, 72, 0
2, 60328, Note_on_c, 2, 75, 31
2, 60339, Note_on_c, 2, 60, 0
2, 60350, Note_on_c, 2, 75, 0
2, 60350, Note_on_c, 2, 67, 41
2, 60358, Note_on_c, 2, 66, 0
2, 60364, Note_on_c, 2, 67, 0
2, 60364, Note_on_c, 2, 60, 63
2, 60387, Note_on_c, 2, 66, 53
2, 60405, Note_on_c, 2, 74, 56
2, 60409, Note_on_c, 2, 60, 0
2, 60409, Note_on_c, 2, 67, 40
2, 60424, Note_on_c, 2, 74, 0
2, 60424, Note_on_c, 2, 72, 66
2, 60428, Note_on_c, 2, 66, 0
2, 60435, Note_on_c, 2, 67, 0
2, 60439, Note_on_c, 2, 72, 0
2, 60442, Note_on_c, 2, 60, 62
2, 60446, Note_on_c, 2, 75, 55
2, 60454, Control_c, 2, 64, 0
2, 60461, Note_on_c, 2, 77, 48
2, 60465, Note_on_c, 2, 75, 0
2, 60465, Note_on_c, 2, 67, 48
2, 60465, Control_c, 2, 64, 127
2, 60472, Note_on_c, 2, 75, 47
2, 60476, Note_on_c, 2, 77, 0
2, 60483, Note_on_c, 2, 66, 31
2, 60487, Note_on_c, 2, 60, 0
2, 60487, Note_on_c, 2, 77, 55
2, 60491, Note_on_c, 2, 75, 0
2, 60502, Note_on_c, 2, 77, 0
2, 60506, Note_on_c, 2, 75, 42
2, 60513, Note_on_c, 2, 67, 0
2, 60513, Note_on_c, 2, 66, 0
2, 60516, Note_on_c, 2, 60, 45
2, 60539, Note_on_c, 2, 66, 29
2, 60557, Note_on_c, 2, 74, 63
2, 60561, Note_on_c, 2, 75, 0
2, 60565, Note_on_c, 2, 60, 0
2, 60572, Note_on_c, 2, 74, 0
2, 60576, Note_on_c, 2, 72, 66
2, 60591, Note_on_c, 2, 72, 0
2, 60591, Note_on_c, 2, 66, 0
2, 60591, Note_on_c, 2, 62, 66
2, 60594, Note_on_c, 2, 70, 79
2, 60616, Note_on_c, 2, 67, 43
2, 60617, Control_c, 2, 64, 0
2, 60632, Control_c, 2, 64, 127
2, 60635, Note_on_c, 2, 67, 0
2, 60635, Note_on_c, 2, 66, 44
2, 60646, Note_on_c, 2, 62, 0
2, 60654, Note_on_c, 2, 70, 0
2, 60654, Note_on_c, 2, 67, 49
2, 60658, Note_on_c, 2, 66, 0
2, 60665, Note_on_c, 2, 67, 0
2, 60676, Note_on_c, 2, 62, 57
2, 60680, Note_on_c, 2, 69, 51
2, 60687, Note_on_c, 2, 69, 0
2, 60687, Note_on_c, 2, 70, 55
2, 60687, Note_on_c, 2, 67, 45
2, 60698, Note_on_c, 2, 70, 0
2, 60698, Note_on_c, 2, 66, 31
2, 60698, Note_on_c, 2, 69, 46
2, 60702, Note_on_c, 2, 67, 0
2, 60702, Note_on_c, 2, 62, 0
2, 60705, Note_on_c, 2, 66, 0
2, 60709, Note_on_c, 2, 69, 0
2, 60709, Note_on_c, 2, 70, 55
2, 60720, Note_on_c, 2, 70, 0
2, 60739, Note_on_c, 2, 67, 11
2, 60742, Note_on_c, 2, 67, 0
2, 60746, Note_on_c, 2, 69, 40
2, 60761, Note_on_c, 2, 69, 0
2, 60762, Note_on_c, 2, 67, 70
2, 60791, Control_c, 2, 64, 0
2, 60795, Note_on_c, 2, 55, 53
2, 60806, Control_c, 2, 64, 127
2, 60817, Note_on_c, 2, 55, 0
2, 60839, Note_on_c, 2, 62, 56
2, 60839, Note_on_c, 2, 58, 63
2, 60850, Note_on_c, 2, 58, 0
2, 60850, Note_on_c, 2, 62, 0
2, 60857, Note_on_c, 2, 67, 0
2, 60880, Note_on_c, 2, 67, 65
2, 60891, Note_on_c, 2, 67, 0
2, 60917, Note_on_c, 2, 70, 79
2, 60958, Note_on_c, 2, 55, 49
2, 60972, Note_on_c, 2, 55, 0
2, 60998, Note_on_c, 2, 62, 57
2, 60998, Note_on_c, 2, 58, 70
2, 61002, Note_on_c, 2, 70, 0
2, 61006, Note_on_c, 2, 58, 0
2, 61006, Note_on_c, 2, 62, 0
2, 61036, Note_on_c, 2, 70, 72
2, 61047, Note_on_c, 2, 70, 0
2, 61076, Note_on_c, 2, 75, 88
2, 61091, Control_c, 2, 64, 0
2, 61106, Control_c, 2, 64, 127
2, 61117, Note_on_c, 2, 55, 54
2, 61132, Note_on_c, 2, 75, 0
2, 61136, Note_on_c, 2, 55, 0
2, 61154, Note_on_c, 2, 63, 55
2, 61158, Note_on_c, 2, 58, 57
2, 61169, Note_on_c, 2, 58, 0
2, 61172, Note_on_c, 2, 63, 0
2, 61195, Note_on_c, 2, 75, 60
2, 61213, Note_on_c, 2, 75, 0
2, 61243, Note_on_c, 2, 79, 56
2, 61284, Note_on_c, 2, 55, 48
2, 61309, Note_on_c, 2, 55, 0
2, 61332, Note_on_c, 2, 79, 0
2, 61332, Note_on_c, 2, 63, 47
2, 61335, Note_on_c, 2, 58, 55
2, 61343, Note_on_c, 2, 58, 0
2, 61347, Note_on_c, 2, 63, 0
2, 61383, Note_on_c, 2, 79, 59
2, 61410, Note_on_c, 2, 53, 46
2, 61424, Note_on_c, 2, 56, 33
2, 61432, Note_on_c, 2, 62, 52
2, 61435, Note_on_c, 2, 79, 0
2, 61435, Note_on_c, 2, 58, 41
2, 61454, Control_c, 2, 64, 0
2, 61458, Note_on_c, 2, 80, 72
2, 61476, Note_on_c, 2, 80, 0
2, 61476, Note_on_c, 2, 82, 57
2, 61476, Control_c, 2, 64, 127
2, 61495, Note_on_c, 2, 80, 65
2, 61499, Note_on_c, 2, 82, 0
2, 61514, Note_on_c, 2, 79, 68
2, 61520, Note_on_c, 2, 80, 0
2, 61536, Note_on_c, 2, 79, 0
2, 61536, Note_on_c, 2, 77, 70
2, 61554, Note_on_c, 2, 77, 0
2, 61554, Note_on_c, 2, 79, 55
2, 61569, Note_on_c, 2, 79, 0
2, 61572, Note_on_c, 2, 77, 56
2, 61587, Note_on_c, 2, 77, 0
2, 61594, Note_on_c, 2, 75, 66
2, 61614, Note_on_c, 2, 75, 0
2, 61614, Note_on_c, 2, 74, 70
2, 61632, Note_on_c, 2, 74, 0
2, 61632, Note_on_c, 2, 75, 51
2, 61654, Note_on_c, 2, 74, 59
2, 61658, Note_on_c, 2, 75, 0
2, 61673, Note_on_c, 2, 74, 0
2, 61673, Note_on_c, 2, 72, 68
2, 61691, Note_on_c, 2, 70, 59
2, 61698, Note_on_c, 2, 72, 0
2, 61714, Note_on_c, 2, 70, 0
2, 61714, Note_on_c, 2, 72, 45
2, 61724, Note_on_c, 2, 62, 0
2, 61728, Note_on_c, 2, 58, 0
2, 61732, Note_on_c, 2, 56, 0
2, 61735, Note_on_c, 2, 53, 0
2, 61739, Note_on_c, 2, 70, 63
2, 61743, Note_on_c, 2, 72, 0
2, 61762, Note_on_c, 2, 68, 65
2, 61765, Note_on_c, 2, 70, 0
2, 61780, Note_on_c, 2, 68, 0
2, 61784, Note_on_c, 2, 55, 70
2, 61798, Control_c, 2, 64, 0
2, 61802, Note_on_c, 2, 67, 55
2, 61821, Control_c, 2, 64, 127
2, 61824, Note_on_c, 2, 68, 60
2, 61828, Note_on_c, 2, 67, 0
2, 61836, Note_on_c, 2, 55, 0
2, 61843, Note_on_c, 2, 68, 0
2, 61843, Note_on_c, 2, 67, 56
2, 61861, Note_on_c, 2, 58, 72
2, 61873, Control_c, 2, 64, 0
2, 61884, Note_on_c, 2, 70, 59
2, 61891, Note_on_c, 2, 67, 0
2, 61891, Control_c, 2, 64, 127
2, 61902, Note_on_c, 2, 70, 0
2, 61902, Note_on_c, 2, 72, 54
2, 61906, Note_on_c, 2, 58, 0
2, 61921, Note_on_c, 2, 70, 46
2, 61924, Note_on_c, 2, 72, 0
2, 61932, Note_on_c, 2, 70, 0
2, 61939, Note_on_c, 2, 63, 70
2, 61939, Note_on_c, 2, 61, 39
2, 61950, Note_on_c, 2, 61, 0
2, 61950, Control_c, 2, 64, 0
2, 61958, Note_on_c, 2, 75, 43
2, 61965, Control_c, 2, 64, 127
2, 61980, Note_on_c, 2, 75, 0
2, 61980, Note_on_c, 2, 77, 51
2, 61995, Note_on_c, 2, 77, 0
2, 61998, Note_on_c, 2, 75, 57
2, 62010, Note_on_c, 2, 75, 0
2, 62017, Note_on_c, 2, 63, 0
2, 62021, Note_on_c, 2, 67, 57
2, 62028, Control_c, 2, 64, 0
2, 62040, Note_on_c, 2, 79, 52
2, 62043, Control_c, 2, 64, 127
2, 62046, Note_on_c, 2, 67, 0
2, 62065, Note_on_c, 2, 80, 48
2, 62069, Note_on_c, 2, 79, 0
2, 62084, Note_on_c, 2, 79, 49
2, 62088, Note_on_c, 2, 80, 0
2, 62099, Note_on_c, 2, 53, 39
2, 62102, Note_on_c, 2, 56, 42
2, 62110, Note_on_c, 2, 58, 40
2, 62111, Note_on_c, 2, 62, 45
2, 62128, Note_on_c, 2, 79, 0
2, 62128, Control_c, 2, 64, 0
2, 62132, Note_on_c, 2, 80, 45
2, 62147, Note_on_c, 2, 80, 0
2, 62151, Note_on_c, 2, 82, 54
2, 62162, Control_c, 2, 64, 127
2, 62166, Note_on_c, 2, 80, 45
2, 62173, Note_on_c, 2, 82, 0
2, 62187, Note_on_c, 2, 79, 56
2, 62191, Note_on_c, 2, 80, 0
2, 62206, Note_on_c, 2, 79, 0
2, 62206, Note_on_c, 2, 77, 62
2, 62224, Note_on_c, 2, 77, 0
2, 62228, Note_on_c, 2, 79, 41
2, 62243, Note_on_c, 2, 79, 0
2, 62243, Note_on_c, 2, 77, 46
2, 62262, Note_on_c, 2, 75, 65
2, 62269, Note_on_c, 2, 77, 0
2, 62284, Note_on_c, 2, 75, 0
2, 62284, Note_on_c, 2, 74, 70
2, 62302, Note_on_c, 2, 74, 0
2, 62302, Note_on_c, 2, 75, 55
2, 62325, Note_on_c, 2, 74, 63
2, 62328, Note_on_c, 2, 75, 0
2, 62339, Note_on_c, 2, 74, 0
2, 62343, Note_on_c, 2, 72, 57
2, 62350, Note_on_c, 2, 62, 0
2, 62354, Note_on_c, 2, 58, 0
2, 62354, Note_on_c, 2, 53, 0
2, 62354, Note_on_c, 2, 56, 0
2, 62366, Note_on_c, 2, 70, 52
2, 62369, Note_on_c, 2, 72, 0
2, 62380, Note_on_c, 2, 70, 0
2, 62388, Note_on_c, 2, 72, 51
2, 62414, Note_on_c, 2, 70, 56
2, 62417, Note_on_c, 2, 72, 0
2, 62440, Note_on_c, 2, 70, 0
2, 62440, Note_on_c, 2, 68, 39
2, 62458, Note_on_c, 2, 68, 0
2, 62477, Note_on_c, 2, 51, 28
2, 62477, Note_on_c, 2, 55, 49
2, 62477, Note_on_c, 2, 58, 45
2, 62477, Note_on_c, 2, 67, 49
2, 62484, Control_c, 2, 64, 0
2, 62499, Note_on_c, 2, 69, 39
2, 62502, Note_on_c, 2, 67, 0
2, 62506, Control_c, 2, 64, 127
2, 62517, Note_on_c, 2, 70, 43
2, 62521, Note_on_c, 2, 69, 0
2, 62547, Note_on_c, 2, 70, 0
2, 62547, Note_on_c, 2, 69, 52
2, 62569, Note_on_c, 2, 70, 68
2, 62573, Note_on_c, 2, 69, 0
2, 62588, Note_on_c, 2, 70, 0
2, 62588, Note_on_c, 2, 71, 55
2, 62606, Note_on_c, 2, 71, 0
2, 62610, Note_on_c, 2, 72, 63
2, 62629, Note_on_c, 2, 72, 0
2, 62632, Note_on_c, 2, 71, 59
2, 62650, Note_on_c, 2, 72, 63
2, 62658, Note_on_c, 2, 71, 0
2, 62669, Note_on_c, 2, 74, 55
2, 62676, Note_on_c, 2, 72, 0
2, 62691, Note_on_c, 2, 75, 48
2, 62699, Note_on_c, 2, 74, 0
2, 62710, Note_on_c, 2, 75, 0
2, 62714, Note_on_c, 2, 74, 22
2, 62728, Note_on_c, 2, 74, 0
2, 62729, Note_on_c, 2, 75, 42
2, 62736, Note_on_c, 2, 75, 0
2, 62751, Note_on_c, 2, 78, 51
2, 62769, Control_c, 2, 64, 0
2, 62773, Note_on_c, 2, 79, 53
2, 62780, Note_on_c, 2, 78, 0
2, 62784, Control_c, 2, 64, 127
2, 62791, Note_on_c, 2, 79, 0
2, 62792, Note_on_c, 2, 78, 55
2, 62810, Note_on_c, 2, 78, 0
2, 62813, Note_on_c, 2, 79, 40
2, 62825, Note_on_c, 2, 79, 0
2, 62836, Note_on_c, 2, 81, 45
2, 62854, Note_on_c, 2, 82, 56
2, 62855, Control_c, 2, 64, 0
2, 62858, Note_on_c, 2, 81, 0
2, 62873, Control_c, 2, 64, 127
2, 62877, Note_on_c, 2, 82, 0
2, 62877, Note_on_c, 2, 81, 68
2, 62895, Note_on_c, 2, 82, 59
2, 62899, Note_on_c, 2, 81, 0
2, 62918, Control_c, 2, 64, 0
2, 62918, Note_on_c, 2, 81, 68
2, 62921, Note_on_c, 2, 82, 0
2, 62932, Control_c, 2, 64, 127
2, 62936, Note_on_c, 2, 82, 63
2, 62940, Note_on_c, 2, 81, 0
2, 62954, Note_on_c, 2, 81, 68
2, 62958, Note_on_c, 2, 82, 0
2, 62973, Note_on_c, 2, 82, 59
2, 62976, Note_on_c, 2, 81, 0
2, 62999, Note_on_c, 2, 81, 65
2, 63002, Note_on_c, 2, 82, 0
2, 63021, Note_on_c, 2, 55, 0
2, 63025, Note_on_c, 2, 82, 68
2, 63032, Note_on_c, 2, 81, 0
2, 63036, Note_on_c, 2, 82, 0
2, 63051, Note_on_c, 2, 58, 0
2, 63077, Note_on_c, 2, 51, 0
2, 63080, Note_on_c, 2, 55, 54
2, 63081, Note_on_c, 2, 67, 40
2, 63081, Note_on_c, 2, 70, 40
2, 63084, Note_on_c, 2, 72, 38
2, 63084, Note_on_c, 2, 76, 29
2, 63092, Note_on_c, 2, 55, 0
2, 63095, Note_on_c, 2, 67, 0
2, 63095, Note_on_c, 2, 76, 0
2, 63099, Note_on_c, 2, 70, 0
2, 63102, Note_on_c, 2, 72, 0
2, 63132, Note_on_c, 2, 53, 59
2, 63136, Note_on_c, 2, 69, 52
2, 63137, Note_on_c, 2, 72, 55
2, 63137, Note_on_c, 2, 77, 59
2, 63143, Control_c, 2, 64, 0
2, 63158, Control_c, 2, 64, 127
2, 63166, Note_on_c, 2, 72, 0
2, 63166, Note_on_c, 2, 69, 0
2, 63173, Note_on_c, 2, 77, 0
2, 63176, Note_on_c, 2, 53, 0
2, 63270, Note_on_c, 2, 82, 42
2, 63280, Control_c, 2, 64, 0
2, 63288, Note_on_c, 2, 60, 38
2, 63292, Note_on_c, 2, 58, 46
2, 63292, Note_on_c, 2, 79, 50
2, 63299, Control_c, 2, 64, 127
2, 63302, Note_on_c, 2, 60, 0
2, 63306, Note_on_c, 2, 82, 0
2, 63306, Note_on_c, 2, 58, 0
2, 63310, Note_on_c, 2, 79, 0
2, 63310, Note_on_c, 2, 76, 42
2, 63318, Control_c, 2, 64, 0
2, 63336, Note_on_c, 2, 60, 43
2, 63336, Note_on_c, 2, 57, 52
2, 63336, Note_on_c, 2, 77, 40
2, 63343, Note_on_c, 2, 76, 0
2, 63354, Control_c, 2, 64, 127
2, 63403, Note_on_c, 2, 77, 0
2, 63410, Note_on_c, 2, 60, 0
2, 63414, Note_on_c, 2, 57, 0
2, 63466, Note_on_c, 2, 82, 39
2, 63488, Note_on_c, 2, 60, 38
2, 63489, Note_on_c, 2, 58, 43
2, 63489, Note_on_c, 2, 79, 46
2, 63495, Note_on_c, 2, 82, 0
2, 63506, Note_on_c, 2, 58, 0
2, 63510, Note_on_c, 2, 60, 0
2, 63510, Note_on_c, 2, 76, 44
2, 63514, Note_on_c, 2, 79, 0
2, 63518, Control_c, 2, 64, 0
2, 63532, Note_on_c, 2, 60, 38
2, 63532, Note_on_c, 2, 57, 42
2, 63532, Note_on_c, 2, 77, 39
2, 63540, Note_on_c, 2, 76, 0
2, 63555, Control_c, 2, 64, 127
2, 63592, Note_on_c, 2, 77, 0
2, 63595, Note_on_c, 2, 60, 0
2, 63610, Note_on_c, 2, 57, 0
2, 63651, Note_on_c, 2, 78, 48
2, 63670, Note_on_c, 2, 79, 57
2, 63673, Note_on_c, 2, 78, 0
2, 63681, Control_c, 2, 64, 0
2, 63692, Note_on_c, 2, 76, 41
2, 63699, Note_on_c, 2, 79, 0
2, 63710, Control_c, 2, 64, 127
2, 63714, Note_on_c, 2, 77, 51
2, 63718, Note_on_c, 2, 76, 0
2, 63732, Note_on_c, 2, 74, 50
2, 63736, Note_on_c, 2, 77, 0
2, 63747, Control_c, 2, 64, 0
2, 63755, Note_on_c, 2, 75, 54
2, 63758, Note_on_c, 2, 74, 0
2, 63777, Note_on_c, 2, 73, 59
2, 63780, Note_on_c, 2, 75, 0
2, 63800, Note_on_c, 2, 74, 47
2, 63807, Note_on_c, 2, 73, 0
2, 63825, Note_on_c, 2, 71, 36
2, 63851, Note_on_c, 2, 74, 0
2, 63855, Note_on_c, 2, 71, 0
2, 63855, Note_on_c, 2, 72, 45
2, 63856, Control_c, 2, 64, 127
2, 63892, Note_on_c, 2, 72, 0
2, 63892, Note_on_c, 2, 69, 30
2, 63929, Control_c, 2, 64, 0
2, 63929, Note_on_c, 2, 62, 31
2, 63933, Note_on_c, 2, 58, 39
2, 63944, Note_on_c, 2, 69, 0
2, 63944, Note_on_c, 2, 70, 36
2, 63955, Control_c, 2, 64, 127
2, 63966, Note_on_c, 2, 72, 47
2, 63969, Note_on_c, 2, 70, 0
2, 63981, Note_on_c, 2, 72, 0
2, 63981, Note_on_c, 2, 70, 38
2, 63996, Note_on_c, 2, 70, 0
2, 63999, Note_on_c, 2, 72, 47
2, 64010, Note_on_c, 2, 72, 0
2, 64010, Note_on_c, 2, 70, 52
2, 64018, Note_on_c, 2, 58, 0
2, 64025, Note_on_c, 2, 62, 0
2, 64032, Note_on_c, 2, 72, 36
2, 64036, Note_on_c, 2, 70, 0
2, 64051, Note_on_c, 2, 72, 0
2, 64055, Note_on_c, 2, 74, 40
2, 64078, Note_on_c, 2, 63, 31
2, 64078, Note_on_c, 2, 60, 40
2, 64081, Note_on_c, 2, 70, 36
2, 64084, Note_on_c, 2, 74, 0
2, 64092, Control_c, 2, 64, 0
2, 64103, Note_on_c, 2, 69, 38
2, 64106, Note_on_c, 2, 70, 0
2, 64125, Note_on_c, 2, 72, 47
2, 64133, Note_on_c, 2, 69, 0
2, 64141, Control_c, 2, 64, 127
2, 64148, Note_on_c, 2, 70, 56
2, 64151, Note_on_c, 2, 72, 0
2, 64162, Note_on_c, 2, 60, 0
2, 64169, Note_on_c, 2, 63, 0
2, 64170, Note_on_c, 2, 69, 39
2, 64180, Note_on_c, 2, 70, 0
2, 64192, Note_on_c, 2, 75, 37
2, 64218, Note_on_c, 2, 72, 46
2, 64218, Note_on_c, 2, 65, 36
2, 64218, Note_on_c, 2, 62, 40
2, 64222, Note_on_c, 2, 75, 0
2, 64225, Note_on_c, 2, 69, 0
2, 64236, Control_c, 2, 64, 0
2, 64240, Note_on_c, 2, 70, 41
2, 64244, Note_on_c, 2, 72, 0
2, 64262, Note_on_c, 2, 74, 47
2, 64273, Note_on_c, 2, 70, 0
2, 64288, Note_on_c, 2, 72, 47
2, 64296, Note_on_c, 2, 74, 0
2, 64310, Note_on_c, 2, 70, 37
2, 64318, Note_on_c, 2, 72, 0
2, 64333, Note_on_c, 2, 77, 54
2, 64362, Note_on_c, 2, 77, 0
2, 64362, Note_on_c, 2, 74, 46
2, 64363, Control_c, 2, 64, 127
2, 64373, Note_on_c, 2, 70, 0
2, 64392, Note_on_c, 2, 65, 0
2, 64399, Note_on_c, 2, 62, 0
2, 64399, Note_on_c, 2, 74, 0
2, 64500, Note_on_c, 2, 70, 26
2, 64503, Control_c, 2, 64, 0
2, 64507, Note_on_c, 2, 63, 38
2, 64507, Note_on_c, 2, 75, 42
2, 64508, Note_on_c, 2, 51, 47
2, 64508, Note_on_c, 2, 79, 53
2, 64514, Note_on_c, 2, 63, 0
2, 64514, Note_on_c, 2, 70, 0
2, 64518, Note_on_c, 2, 75, 0
2, 64521, Note_on_c, 2, 51, 0
2, 64522, Note_on_c, 2, 79, 0
2, 64581, Note_on_c, 2, 70, 33
2, 64582, Control_c, 2, 64, 127
2, 64582, Note_on_c, 2, 58, 36
2, 64585, Note_on_c, 2, 46, 39
2, 64585, Note_on_c, 2, 77, 59
2, 64596, Note_on_c, 2, 70, 0
2, 64618, Note_on_c, 2, 77, 0
2, 64662, Note_on_c, 2, 77, 65
2, 64677, Note_on_c, 2, 82, 55
2, 64685, Note_on_c, 2, 77, 0
2, 64696, Note_on_c, 2, 82, 0
2, 64696, Note_on_c, 2, 81, 57
2, 64714, Note_on_c, 2, 82, 56
2, 64722, Note_on_c, 2, 81, 0
2, 64733, Note_on_c, 2, 82, 0
2, 64733, Note_on_c, 2, 86, 57
2, 64736, Note_on_c, 2, 58, 0
2, 64747, Note_on_c, 2, 46, 0
2, 64751, Note_on_c, 2, 86, 0
2, 64751, Note_on_c, 2, 82, 60
2, 64766, Note_on_c, 2, 82, 0
2, 64770, Note_on_c, 2, 81, 48
2, 64788, Note_on_c, 2, 82, 40
2, 64792, Note_on_c, 2, 81, 0
2, 64796, Note_on_c, 2, 82, 0
2, 64803, Note_on_c, 2, 41, 50
2, 64807, Note_on_c, 2, 53, 39
2, 64810, Note_on_c, 2, 74, 48
2, 64811, Note_on_c, 2, 77, 48
2, 64818, Note_on_c, 2, 77, 0
2, 64818, Note_on_c, 2, 41, 0
2, 64818, Note_on_c, 2, 53, 0
2, 64818, Note_on_c, 2, 74, 0
2, 64819, Control_c, 2, 64, 0
2, 64847, Note_on_c, 2, 72, 47
2, 64847, Note_on_c, 2, 75, 41
2, 64855, Note_on_c, 2, 75, 0
2, 64859, Note_on_c, 2, 72, 0
2, 64892, Note_on_c, 2, 58, 35
2, 64896, Note_on_c, 2, 70, 35
2, 64896, Note_on_c, 2, 46, 36
2, 64900, Note_on_c, 2, 74, 17
2, 64915, Control_c, 2, 64, 127
2, 64992, Note_on_c, 2, 58, 0
2, 65007, Note_on_c, 2, 70, 0
2, 65011, Note_on_c, 2, 74, 0
2, 65018, Note_on_c, 2, 46, 0
2, 65133, Control_c, 2, 64, 0
2, 65136, Note_on_c, 2, 46, 37
2, 65136, Note_on_c, 2, 50, 37
2, 65144, Note_on_c, 2, 58, 47
2, 65163, Note_on_c, 2, 58, 0
2, 65163, Note_on_c, 2, 60, 51
2, 65170, Control_c, 2, 64, 127
2, 65178, Note_on_c, 2, 58, 63
2, 65182, Note_on_c, 2, 60, 0
2, 65196, Note_on_c, 2, 58, 0
2, 65196, Note_on_c, 2, 60, 49
2, 65218, Note_on_c, 2, 60, 0
2, 65218, Note_on_c, 2, 58, 68
2, 65222, Note_on_c, 2, 46, 0
2, 65233, Note_on_c, 2, 50, 0
2, 65237, Note_on_c, 2, 60, 47
2, 65244, Note_on_c, 2, 58, 0
2, 65259, Note_on_c, 2, 62, 50
2, 65262, Note_on_c, 2, 60, 0
2, 65281, Note_on_c, 2, 51, 40
2, 65281, Note_on_c, 2, 58, 51
2, 65285, Note_on_c, 2, 48, 45
2, 65288, Note_on_c, 2, 62, 0
2, 65292, Control_c, 2, 64, 0
2, 65304, Note_on_c, 2, 57, 46
2, 65314, Note_on_c, 2, 58, 0
2, 65326, Note_on_c, 2, 60, 47
2, 65336, Note_on_c, 2, 57, 0
2, 65348, Control_c, 2, 64, 127
2, 65352, Note_on_c, 2, 58, 60
2, 65358, Note_on_c, 2, 60, 0
2, 65374, Note_on_c, 2, 57, 45
2, 65378, Note_on_c, 2, 58, 0
2, 65381, Note_on_c, 2, 51, 0
2, 65385, Note_on_c, 2, 48, 0
2, 65396, Note_on_c, 2, 63, 40
2, 65418, Note_on_c, 2, 53, 36
2, 65419, Note_on_c, 2, 50, 42
2, 65422, Note_on_c, 2, 60, 51
2, 65426, Note_on_c, 2, 63, 0
2, 65430, Control_c, 2, 64, 0
2, 65437, Note_on_c, 2, 57, 0
2, 65444, Note_on_c, 2, 60, 0
2, 65444, Note_on_c, 2, 58, 45
2, 65444, Note_on_c, 2, 57, 11
2, 65459, Note_on_c, 2, 57, 0
2, 65466, Note_on_c, 2, 62, 49
2, 65474, Note_on_c, 2, 58, 0
2, 65493, Note_on_c, 2, 60, 49
2, 65496, Note_on_c, 2, 62, 0
2, 65515, Note_on_c, 2, 58, 53
2, 65518, Note_on_c, 2, 60, 0
2, 65537, Note_on_c, 2, 65, 56
2, 65563, Note_on_c, 2, 65, 0
2, 65566, Note_on_c, 2, 62, 48
2, 65570, Control_c, 2, 64, 127
2, 65600, Note_on_c, 2, 50, 0
2, 65603, Note_on_c, 2, 58, 0
2, 65607, Note_on_c, 2, 53, 0
2, 65630, Note_on_c, 2, 62, 0
2, 65689, Note_on_c, 2, 51, 43
2, 65700, Note_on_c, 2, 55, 45
2, 65708, Note_on_c, 2, 60, 45
2, 65711, Note_on_c, 2, 67, 52
2, 65712, Control_c, 2, 64, 0
2, 65730, Note_on_c, 2, 72, 53
2, 65737, Note_on_c, 2, 67, 0
2, 65741, Control_c, 2, 64, 127
2, 65756, Note_on_c, 2, 75, 39
2, 65760, Note_on_c, 2, 72, 0
2, 65778, Note_on_c, 2, 51, 0
2, 65782, Note_on_c, 2, 55, 0
2, 65782, Note_on_c, 2, 72, 52
2, 65786, Note_on_c, 2, 75, 0
2, 65798, Note_on_c, 2, 60, 0
2, 65808, Note_on_c, 2, 75, 46
2, 65812, Note_on_c, 2, 72, 0
2, 65827, Note_on_c, 2, 75, 0
2, 65828, Note_on_c, 2, 79, 44
2, 65839, Note_on_c, 2, 79, 0
2, 65846, Control_c, 2, 64, 0
2, 65850, Note_on_c, 2, 79, 55
2, 65850, Note_on_c, 2, 53, 49
2, 65850, Note_on_c, 2, 62, 46
2, 65869, Control_c, 2, 64, 127
2, 65873, Note_on_c, 2, 53, 0
2, 65873, Note_on_c, 2, 77, 40
2, 65877, Note_on_c, 2, 62, 0
2, 65877, Note_on_c, 2, 79, 0
2, 65888, Note_on_c, 2, 75, 45
2, 65895, Note_on_c, 2, 77, 0
2, 65906, Note_on_c, 2, 74, 55
2, 65910, Note_on_c, 2, 75, 0
2, 65918, Note_on_c, 2, 74, 0
2, 65925, Note_on_c, 2, 63, 39
2, 65925, Note_on_c, 2, 74, 52
2, 65926, Note_on_c, 2, 53, 43
2, 65930, Control_c, 2, 64, 0
2, 65944, Note_on_c, 2, 74, 0
2, 65944, Note_on_c, 2, 72, 49
2, 65944, Control_c, 2, 64, 127
2, 65959, Note_on_c, 2, 63, 0
2, 65967, Note_on_c, 2, 70, 37
2, 65974, Note_on_c, 2, 72, 0
2, 65975, Note_on_c, 2, 53, 0
2, 65986, Note_on_c, 2, 70, 0
2, 65986, Note_on_c, 2, 69, 40
2, 66005, Control_c, 2, 64, 0
2, 66006, Note_on_c, 2, 62, 33
2, 66006, Note_on_c, 2, 58, 45
2, 66006, Note_on_c, 2, 70, 63
2, 66012, Note_on_c, 2, 69, 0
2, 66024, Control_c, 2, 64, 127
2, 66027, Note_on_c, 2, 62, 0
2, 66028, Note_on_c, 2, 58, 0
2, 66043, Note_on_c, 2, 58, 32
2, 66043, Note_on_c, 2, 62, 28
2, 66055, Note_on_c, 2, 62, 0
2, 66058, Note_on_c, 2, 58, 0
2, 66078, Note_on_c, 2, 62, 30
2, 66078, Note_on_c, 2, 58, 34
2, 66088, Note_on_c, 2, 58, 0
2, 66088, Note_on_c, 2, 62, 0
2, 66112, Note_on_c, 2, 62, 26
2, 66116, Note_on_c, 2, 58, 36
2, 66127, Note_on_c, 2, 62, 0
2, 66130, Note_on_c, 2, 58, 0
2, 66150, Note_on_c, 2, 62, 28
2, 66154, Note_on_c, 2, 58, 36
2, 66165, Note_on_c, 2, 62, 0
2, 66169, Note_on_c, 2, 58, 0
2, 66176, Note_on_c, 2, 70, 0
2, 66196, Note_on_c, 2, 62, 22
2, 66196, Note_on_c, 2, 58, 34
2, 66198, Note_on_c, 2, 70, 39
2, 66212, Note_on_c, 2, 62, 0
2, 66215, Note_on_c, 2, 58, 0
2, 66227, Note_on_c, 2, 70, 0
2, 66235, Note_on_c, 2, 69, 39
2, 66235, Note_on_c, 2, 62, 24
2, 66238, Note_on_c, 2, 58, 34
2, 66250, Note_on_c, 2, 58, 0
2, 66250, Note_on_c, 2, 62, 0
2, 66261, Note_on_c, 2, 69, 0
2, 66273, Note_on_c, 2, 62, 27
2, 66273, Note_on_c, 2, 58, 39
2, 66277, Note_on_c, 2, 68, 44
2, 66284, Note_on_c, 2, 68, 0
2, 66284, Note_on_c, 2, 58, 0
2, 66284, Note_on_c, 2, 62, 0
2, 66315, Note_on_c, 2, 63, 56
2, 66315, Note_on_c, 2, 58, 43
2, 66316, Control_c, 2, 64, 0
2, 66316, Note_on_c, 2, 67, 55
2, 66330, Control_c, 2, 64, 127
2, 66342, Note_on_c, 2, 58, 0
2, 66342, Note_on_c, 2, 63, 0
2, 66357, Note_on_c, 2, 63, 34
2, 66357, Note_on_c, 2, 69, 43
2, 66357, Note_on_c, 2, 58, 42
2, 66365, Note_on_c, 2, 67, 0
2, 66369, Note_on_c, 2, 58, 0
2, 66372, Note_on_c, 2, 63, 0
2, 66376, Note_on_c, 2, 70, 52
2, 66380, Note_on_c, 2, 69, 0
2, 66392, Note_on_c, 2, 63, 39
2, 66396, Note_on_c, 2, 70, 0
2, 66396, Note_on_c, 2, 58, 45
2, 66396, Note_on_c, 2, 72, 55
2, 66407, Note_on_c, 2, 58, 0
2, 66407, Note_on_c, 2, 63, 0
2, 66415, Note_on_c, 2, 74, 42
2, 66419, Note_on_c, 2, 72, 0
2, 66431, Note_on_c, 2, 58, 45
2, 66431, Note_on_c, 2, 63, 35
2, 66431, Note_on_c, 2, 75, 53
2, 66434, Note_on_c, 2, 74, 0
2, 66446, Note_on_c, 2, 58, 0
2, 66446, Note_on_c, 2, 63, 0
2, 66450, Note_on_c, 2, 75, 0
2, 66454, Note_on_c, 2, 77, 56
2, 66465, Note_on_c, 2, 63, 39
2, 66469, Note_on_c, 2, 77, 0
2, 66469, Note_on_c, 2, 58, 38
2, 66473, Note_on_c, 2, 79, 51
2, 66480, Note_on_c, 2, 58, 0
2, 66484, Note_on_c, 2, 63, 0
2, 66492, Note_on_c, 2, 81, 47
2, 66496, Note_on_c, 2, 79, 0
2, 66508, Note_on_c, 2, 81, 0
2, 66508, Note_on_c, 2, 63, 36
2, 66508, Note_on_c, 2, 82, 45
2, 66509, Note_on_c, 2, 58, 40
2, 66519, Note_on_c, 2, 58, 0
2, 66522, Note_on_c, 2, 63, 0
2, 66527, Note_on_c, 2, 81, 56
2, 66530, Note_on_c, 2, 82, 0
2, 66542, Note_on_c, 2, 81, 0
2, 66542, Note_on_c, 2, 63, 39
2, 66542, Note_on_c, 2, 58, 38
2, 66542, Note_on_c, 2, 82, 44
2, 66553, Note_on_c, 2, 58, 0
2, 66557, Note_on_c, 2, 63, 0
2, 66561, Note_on_c, 2, 82, 0
2, 66561, Note_on_c, 2, 81, 51
2, 66580, Note_on_c, 2, 63, 39
2, 66580, Note_on_c, 2, 82, 52
2, 66580, Note_on_c, 2, 58, 40
2, 66584, Note_on_c, 2, 81, 0
2, 66596, Note_on_c, 2, 63, 0
2, 66596, Note_on_c, 2, 58, 0
2, 66604, Note_on_c, 2, 79, 48
2, 66607, Note_on_c, 2, 82, 0
2, 66619, Note_on_c, 2, 58, 42
2, 66620, Note_on_c, 2, 77, 47
2, 66623, Note_on_c, 2, 79, 0
2, 66623, Note_on_c, 2, 62, 43
2, 66627, Control_c, 2, 64, 0
2, 66642, Note_on_c, 2, 62, 0
2, 66642, Control_c, 2, 64, 127
2, 66646, Note_on_c, 2, 58, 0
2, 66658, Note_on_c, 2, 62, 35
2, 66661, Note_on_c, 2, 58, 39
2, 66676, Note_on_c, 2, 62, 0
2, 66677, Note_on_c, 2, 58, 0
2, 66700, Note_on_c, 2, 62, 30
2, 66700, Note_on_c, 2, 58, 39
2, 66712, Note_on_c, 2, 62, 0
2, 66715, Note_on_c, 2, 58, 0
2, 66735, Note_on_c, 2, 62, 35
2, 66738, Note_on_c, 2, 58, 40
2, 66750, Note_on_c, 2, 62, 0
2, 66753, Note_on_c, 2, 58, 0
2, 66769, Note_on_c, 2, 77, 0
2, 66777, Note_on_c, 2, 58, 40
2, 66777, Note_on_c, 2, 62, 37
2, 66788, Note_on_c, 2, 62, 0
2, 66792, Note_on_c, 2, 58, 0
2, 66812, Note_on_c, 2, 62, 36
2, 66815, Note_on_c, 2, 58, 38
2, 66815, Note_on_c, 2, 70, 55
2, 66823, Note_on_c, 2, 58, 0
2, 66827, Note_on_c, 2, 62, 0
2, 66830, Note_on_c, 2, 70, 0
2, 66850, Note_on_c, 2, 62, 39
2, 66850, Note_on_c, 2, 58, 38
2, 66850, Note_on_c, 2, 69, 45
2, 66861, Note_on_c, 2, 69, 0
2, 66861, Note_on_c, 2, 58, 0
2, 66861, Note_on_c, 2, 62, 0
2, 66884, Note_on_c, 2, 62, 39
2, 66888, Note_on_c, 2, 58, 39
2, 66889, Note_on_c, 2, 68, 52
2, 66896, Note_on_c, 2, 68, 0
2, 66896, Note_on_c, 2, 58, 0
2, 66896, Note_on_c, 2, 62, 0
2, 66927, Note_on_c, 2, 63, 63
2, 66927, Note_on_c, 2, 58, 46
2, 66928, Control_c, 2, 64, 0
2, 66931, Note_on_c, 2, 67, 63
2, 66946, Note_on_c, 2, 58, 0
2, 66946, Note_on_c, 2, 63, 0
2, 66946, Control_c, 2, 64, 127
2, 66966, Note_on_c, 2, 63, 48
2, 66966, Note_on_c, 2, 58, 45
2, 66969, Note_on_c, 2, 69, 47
2, 66973, Note_on_c, 2, 67, 0
2, 66980, Note_on_c, 2, 63, 0
2, 66980, Note_on_c, 2, 58, 0
2, 66984, Note_on_c, 2, 70, 63
2, 66989, Note_on_c, 2, 69, 0
2, 67000, Note_on_c, 2, 70, 0
2, 67004, Note_on_c, 2, 63, 44
2, 67004, Note_on_c, 2, 58, 42
2, 67004, Note_on_c, 2, 72, 66
2, 67011, Note_on_c, 2, 63, 0
2, 67012, Note_on_c, 2, 58, 0
2, 67023, Note_on_c, 2, 72, 0
2, 67023, Note_on_c, 2, 74, 49
2, 67039, Note_on_c, 2, 63, 38
2, 67039, Note_on_c, 2, 58, 42
2, 67039, Note_on_c, 2, 75, 57
2, 67042, Note_on_c, 2, 74, 0
2, 67050, Note_on_c, 2, 63, 0
2, 67050, Note_on_c, 2, 58, 0
2, 67057, Note_on_c, 2, 75, 0
2, 67058, Note_on_c, 2, 77, 56
2, 67073, Note_on_c, 2, 63, 42
2, 67076, Note_on_c, 2, 58, 36
2, 67077, Note_on_c, 2, 79, 53
2, 67080, Note_on_c, 2, 77, 0
2, 67084, Note_on_c, 2, 58, 0
2, 67088, Note_on_c, 2, 63, 0
2, 67096, Note_on_c, 2, 81, 42
2, 67104, Note_on_c, 2, 79, 0
2, 67111, Note_on_c, 2, 63, 40
2, 67111, Note_on_c, 2, 82, 40
2, 67115, Note_on_c, 2, 81, 0
2, 67115, Note_on_c, 2, 58, 40
2, 67123, Note_on_c, 2, 58, 0
2, 67127, Note_on_c, 2, 63, 0
2, 67131, Note_on_c, 2, 81, 52
2, 67134, Note_on_c, 2, 82, 0
2, 67150, Note_on_c, 2, 81, 0
2, 67150, Note_on_c, 2, 63, 38
2, 67150, Note_on_c, 2, 82, 48
2, 67150, Note_on_c, 2, 58, 37
2, 67161, Note_on_c, 2, 58, 0
2, 67161, Note_on_c, 2, 63, 0
2, 67169, Note_on_c, 2, 82, 0
2, 67170, Note_on_c, 2, 81, 57
2, 67188, Note_on_c, 2, 63, 39
2, 67188, Note_on_c, 2, 58, 36
2, 67192, Note_on_c, 2, 81, 0
2, 67192, Note_on_c, 2, 82, 56
2, 67196, Note_on_c, 2, 58, 0
2, 67200, Note_on_c, 2, 63, 0
2, 67215, Note_on_c, 2, 79, 52
2, 67219, Note_on_c, 2, 82, 0
2, 67227, Note_on_c, 2, 63, 38
2, 67231, Note_on_c, 2, 58, 31
2, 67231, Note_on_c, 2, 77, 72
2, 67234, Note_on_c, 2, 79, 0
2, 67235, Note_on_c, 2, 58, 0
2, 67246, Note_on_c, 2, 63, 0
2, 67270, Note_on_c, 2, 58, 53
2, 67273, Note_on_c, 2, 77, 0
2, 67285, Control_c, 2, 64, 0
2, 67308, Note_on_c, 2, 62, 49
2, 67334, Note_on_c, 2, 82, 62
2, 67354, Note_on_c, 2, 82, 0
2, 67354, Note_on_c, 2, 84, 54
2, 67354, Note_on_c, 2, 65, 53
2, 67358, Note_on_c, 2, 58, 0
2, 67373, Note_on_c, 2, 82, 72
2, 67381, Note_on_c, 2, 84, 0
2, 67392, Note_on_c, 2, 62, 0
2, 67392, Note_on_c, 2, 82, 0
2, 67393, Note_on_c, 2, 65, 0
2, 67393, Note_on_c, 2, 58, 65
2, 67393, Note_on_c, 2, 86, 63
2, 67411, Control_c, 2, 64, 127
2, 67412, Note_on_c, 2, 84, 57
2, 67419, Note_on_c, 2, 86, 0
2, 67431, Note_on_c, 2, 82, 53
2, 67435, Note_on_c, 2, 84, 0
2, 67435, Note_on_c, 2, 58, 0
2, 67450, Note_on_c, 2, 81, 55
2, 67457, Note_on_c, 2, 82, 0
2, 67469, Note_on_c, 2, 81, 0
2, 67469, Note_on_c, 2, 79, 52
2, 67477, Control_c, 2, 64, 0
2, 67488, Note_on_c, 2, 77, 52
2, 67496, Note_on_c, 2, 79, 0
2, 67512, Note_on_c, 2, 75, 66
2, 67515, Note_on_c, 2, 77, 0
2, 67527, Note_on_c, 2, 75, 0
2, 67527, Note_on_c, 2, 74, 52
2, 67546, Note_on_c, 2, 75, 83
2, 67554, Note_on_c, 2, 74, 0
2, 67585, Note_on_c, 2, 53, 53
2, 67588, Control_c, 2, 64, 127
2, 67604, Note_on_c, 2, 75, 0
2, 67627, Note_on_c, 2, 57, 45
2, 67654, Note_on_c, 2, 81, 56
2, 67669, Note_on_c, 2, 53, 0
2, 67670, Note_on_c, 2, 82, 54
2, 67673, Note_on_c, 2, 81, 0
2, 67673, Note_on_c, 2, 60, 56
2, 67688, Note_on_c, 2, 81, 56
2, 67692, Note_on_c, 2, 82, 0
2, 67708, Note_on_c, 2, 57, 0
2, 67708, Note_on_c, 2, 60, 0
2, 67708, Note_on_c, 2, 53, 79
2, 67708, Note_on_c, 2, 84, 56
2, 67712, Control_c, 2, 64, 0
2, 67716, Note_on_c, 2, 81, 0
2, 67731, Note_on_c, 2, 82, 72
2, 67738, Note_on_c, 2, 84, 0
2, 67746, Note_on_c, 2, 81, 66
2, 67754, Note_on_c, 2, 82, 0
2, 67762, Note_on_c, 2, 79, 65
2, 67766, Note_on_c, 2, 81, 0
2, 67781, Note_on_c, 2, 77, 55
2, 67788, Note_on_c, 2, 79, 0
2, 67792, Note_on_c, 2, 53, 0
2, 67796, Control_c, 2, 64, 127
2, 67800, Note_on_c, 2, 75, 55
2, 67808, Note_on_c, 2, 77, 0
2, 67819, Note_on_c, 2, 75, 0
2, 67820, Note_on_c, 2, 74, 56
2, 67842, Note_on_c, 2, 72, 45
2, 67850, Note_on_c, 2, 74, 0
2, 67858, Control_c, 2, 64, 0
2, 67866, Note_on_c, 2, 74, 54
2, 67869, Note_on_c, 2, 72, 0
2, 67877, Control_c, 2, 64, 127
2, 67904, Note_on_c, 2, 34, 59
2, 67904, Note_on_c, 2, 46, 57
2, 67915, Note_on_c, 2, 46, 0
2, 67915, Note_on_c, 2, 34, 0
2, 67946, Note_on_c, 2, 38, 66
2, 67947, Note_on_c, 2, 50, 59
2, 67958, Note_on_c, 2, 50, 0
2, 67958, Note_on_c, 2, 38, 0
2, 67969, Note_on_c, 2, 77, 31
2, 67984, Note_on_c, 2, 77, 0
2, 67984, Note_on_c, 2, 53, 46
2, 67984, Note_on_c, 2, 79, 48
2, 67984, Note_on_c, 2, 41, 55
2, 67988, Note_on_c, 2, 74, 0
2, 67996, Note_on_c, 2, 53, 0
2, 68000, Note_on_c, 2, 41, 0
2, 68008, Note_on_c, 2, 77, 45
2, 68012, Note_on_c, 2, 79, 0
2, 68027, Note_on_c, 2, 77, 0
2, 68027, Note_on_c, 2, 38, 70
2, 68027, Note_on_c, 2, 50, 56
2, 68031, Note_on_c, 2, 82, 60
2, 68032, Control_c, 2, 64, 0
2, 68050, Note_on_c, 2, 81, 66
2, 68054, Control_c, 2, 64, 127
2, 68069, Note_on_c, 2, 79, 68
2, 68073, Note_on_c, 2, 81, 0
2, 68073, Note_on_c, 2, 82, 0
2, 68085, Note_on_c, 2, 79, 0
2, 68089, Note_on_c, 2, 77, 70
2, 68097, Note_on_c, 2, 50, 0
2, 68097, Note_on_c, 2, 38, 0
2, 68104, Note_on_c, 2, 77, 0
2, 68108, Note_on_c, 2, 75, 59
2, 68131, Note_on_c, 2, 74, 62
2, 68135, Note_on_c, 2, 75, 0
2, 68154, Note_on_c, 2, 72, 60
2, 68158, Note_on_c, 2, 74, 0
2, 68162, Note_on_c, 2, 72, 0
2, 68174, Note_on_c, 2, 50, 53
2, 68174, Note_on_c, 2, 53, 48
2, 68174, Note_on_c, 2, 71, 66
2, 68185, Note_on_c, 2, 53, 0
2, 68185, Note_on_c, 2, 50, 0
2, 68188, Note_on_c, 2, 71, 0
2, 68196, Note_on_c, 2, 51, 63
2, 68196, Note_on_c, 2, 55, 48
2, 68196, Note_on_c, 2, 74, 56
2, 68212, Note_on_c, 2, 74, 0
2, 68212, Note_on_c, 2, 72, 66
2, 68220, Control_c, 2, 64, 0
2, 68231, Note_on_c, 2, 75, 70
2, 68236, Note_on_c, 2, 55, 0
2, 68236, Note_on_c, 2, 51, 0
2, 68243, Note_on_c, 2, 72, 0
2, 68246, Control_c, 2, 64, 127
2, 68254, Note_on_c, 2, 75, 0
2, 68254, Note_on_c, 2, 74, 72
2, 68270, Note_on_c, 2, 77, 50
2, 68273, Note_on_c, 2, 74, 0
2, 68293, Note_on_c, 2, 77, 0
2, 68293, Note_on_c, 2, 75, 72
2, 68312, Note_on_c, 2, 75, 0
2, 68312, Note_on_c, 2, 79, 46
2, 68331, Note_on_c, 2, 79, 0
2, 68331, Note_on_c, 2, 78, 39
2, 68339, Note_on_c, 2, 78, 0
2, 68339, Note_on_c, 2, 77, 28
2, 68350, Note_on_c, 2, 77, 0
2, 68354, Note_on_c, 2, 79, 47
2, 68374, Note_on_c, 2, 77, 54
2, 68377, Note_on_c, 2, 79, 0
2, 68393, Note_on_c, 2, 75, 65
2, 68396, Note_on_c, 2, 77, 0
2, 68412, Note_on_c, 2, 74, 51
2, 68419, Note_on_c, 2, 75, 0
2, 68427, Note_on_c, 2, 74, 0
2, 68427, Note_on_c, 2, 72, 55
2, 68442, Note_on_c, 2, 72, 0
2, 68450, Note_on_c, 2, 70, 54
2, 68466, Note_on_c, 2, 70, 0
2, 68466, Note_on_c, 2, 52, 46
2, 68466, Note_on_c, 2, 55, 39
2, 68466, Note_on_c, 2, 69, 50
2, 68477, Note_on_c, 2, 55, 0
2, 68477, Note_on_c, 2, 52, 0
2, 68489, Note_on_c, 2, 69, 0
2, 68489, Note_on_c, 2, 70, 48
2, 68508, Note_on_c, 2, 70, 0
2, 68508, Note_on_c, 2, 53, 49
2, 68508, Note_on_c, 2, 57, 47
2, 68508, Note_on_c, 2, 69, 53
2, 68512, Control_c, 2, 64, 0
2, 68527, Note_on_c, 2, 70, 54
2, 68539, Note_on_c, 2, 69, 0
2, 68542, Control_c, 2, 64, 127
2, 68546, Note_on_c, 2, 72, 54
2, 68548, Note_on_c, 2, 53, 0
2, 68548, Note_on_c, 2, 57, 0
2, 68550, Note_on_c, 2, 70, 0
2, 68569, Note_on_c, 2, 74, 48
2, 68573, Note_on_c, 2, 72, 0
2, 68588, Note_on_c, 2, 74, 0
2, 68588, Note_on_c, 2, 76, 65
2, 68596, Note_on_c, 2, 76, 0
2, 68612, Note_on_c, 2, 77, 22
2, 68627, Note_on_c, 2, 77, 0
2, 68627, Note_on_c, 2, 76, 47
2, 68650, Note_on_c, 2, 76, 0
2, 68650, Note_on_c, 2, 77, 46
2, 68666, Note_on_c, 2, 45, 54
2, 68670, Note_on_c, 2, 77, 0
2, 68670, Note_on_c, 2, 65, 56
2, 68677, Control_c, 2, 64, 0
2, 68685, Note_on_c, 2, 46, 45
2, 68689, Note_on_c, 2, 45, 0
2, 68693, Control_c, 2, 64, 127
2, 68704, Note_on_c, 2, 48, 45
2, 68708, Note_on_c, 2, 46, 0
2, 68712, Note_on_c, 2, 48, 0
2, 68723, Note_on_c, 2, 50, 60
2, 68742, Note_on_c, 2, 50, 0
2, 68742, Note_on_c, 2, 52, 56
2, 68746, Control_c, 2, 64, 0
2, 68762, Note_on_c, 2, 53, 55
2, 68766, Note_on_c, 2, 52, 0
2, 68778, Note_on_c, 2, 53, 0
2, 68785, Note_on_c, 2, 52, 42
2, 68785, Control_c, 2, 64, 127
2, 68796, Note_on_c, 2, 53, 45
2, 68804, Note_on_c, 2, 52, 0
2, 68808, Note_on_c, 2, 53, 0
2, 68835, Note_on_c, 0, 41, 100
2, 68875, Note_on_c, 0, 41, 0
2, 68931, Control_c, 2, 64, 0
2, 68938, Note_on_c, 2, 65, 0
2, 68966, Note_on_c, 2, 84, 55
2, 68981, Note_on_c, 2, 84, 0
2, 68993, Control_c, 2, 64, 127
2, 68996, Note_on_c, 2, 84, 47
2, 69008, Note_on_c, 2, 84, 0
2, 69035, Note_on_c, 2, 84, 40
2, 69046, Note_on_c, 2, 84, 0
2, 69074, Note_on_c, 2, 84, 39
2, 69085, Note_on_c, 2, 84, 0
2, 69112, Note_on_c, 2, 84, 45
2, 69123, Note_on_c, 2, 84, 0
2, 69135, Control_c, 2, 64, 0
2, 69154, Note_on_c, 2, 53, 27
2, 69154, Note_on_c, 2, 84, 44
2, 69197, Note_on_c, 2, 60, 28
2, 69204, Control_c, 2, 64, 127
2, 69231, Note_on_c, 2, 60, 0
2, 69231, Note_on_c, 2, 57, 36
2, 69254, Note_on_c, 2, 53, 0
2, 69270, Note_on_c, 2, 82, 39
2, 69270, Note_on_c, 2, 60, 35
2, 69277, Note_on_c, 2, 84, 0
2, 69285, Note_on_c, 2, 57, 0
2, 69289, Note_on_c, 2, 81, 35
2, 69297, Note_on_c, 2, 82, 0
2, 69308, Note_on_c, 2, 60, 0
2, 69308, Note_on_c, 2, 55, 35
2, 69308, Note_on_c, 2, 79, 49
2, 69312, Note_on_c, 2, 81, 0
2, 69320, Control_c, 2, 64, 0
2, 69347, Note_on_c, 2, 60, 37
2, 69347, Note_on_c, 2, 77, 46
2, 69354, Note_on_c, 2, 79, 0
2, 69370, Control_c, 2, 64, 127
2, 69381, Note_on_c, 2, 77, 0
2, 69381, Note_on_c, 2, 58, 32
2, 69381, Note_on_c, 2, 76, 35
2, 69385, Note_on_c, 2, 60, 0
2, 69393, Note_on_c, 2, 55, 0
2, 69416, Note_on_c, 2, 76, 0
2, 69416, Note_on_c, 2, 60, 35
2, 69416, Note_on_c, 2, 79, 45
2, 69419, Note_on_c, 2, 58, 0
2, 69454, Note_on_c, 2, 79, 0
2, 69454, Note_on_c, 2, 77, 40
2, 69455, Note_on_c, 2, 57, 16
2, 69469, Control_c, 2, 64, 0
2, 69489, Note_on_c, 2, 60, 0
2, 69492, Note_on_c, 2, 53, 20
2, 69535, Note_on_c, 2, 57, 0
2, 69538, Note_on_c, 2, 77, 0
2, 69543, Note_on_c, 2, 60, 38
2, 69544, Note_on_c, 2, 72, 40
2, 69585, Note_on_c, 2, 84, 45
2, 69596, Note_on_c, 2, 72, 0
2, 69600, Note_on_c, 2, 53, 0
2, 69604, Note_on_c, 2, 60, 0
2, 69604, Note_on_c, 2, 84, 0
2, 69624, Note_on_c, 2, 84, 45
2, 69639, Note_on_c, 2, 84, 0
2, 69662, Note_on_c, 2, 84, 32
2, 69678, Note_on_c, 2, 84, 0
2, 69700, Note_on_c, 2, 84, 45
2, 69716, Note_on_c, 2, 84, 0
2, 69742, Note_on_c, 2, 84, 46
2, 69754, Note_on_c, 2, 84, 0
2, 69789, Note_on_c, 2, 84, 41
2, 69790, Note_on_c, 2, 53, 23
2, 69823, Control_c, 2, 64, 127
2, 69828, Note_on_c, 2, 60, 39
2, 69862, Note_on_c, 2, 60, 0
2, 69862, Note_on_c, 2, 57, 44
2, 69893, Note_on_c, 2, 53, 0
2, 69901, Note_on_c, 2, 60, 44
2, 69901, Note_on_c, 2, 82, 55
2, 69904, Note_on_c, 2, 84, 0
2, 69912, Note_on_c, 2, 57, 0
2, 69920, Note_on_c, 2, 81, 47
2, 69927, Note_on_c, 2, 82, 0
2, 69935, Note_on_c, 2, 81, 0
2, 69935, Note_on_c, 2, 79, 56
2, 69939, Note_on_c, 2, 52, 28
2, 69943, Note_on_c, 2, 60, 0
2, 69943, Control_c, 2, 64, 0
2, 69970, Note_on_c, 2, 60, 39
2, 69970, Note_on_c, 2, 81, 45
2, 69986, Control_c, 2, 64, 127
2, 70000, Note_on_c, 2, 79, 0
2, 70004, Note_on_c, 2, 60, 0
2, 70008, Note_on_c, 2, 55, 36
2, 70009, Note_on_c, 2, 82, 40
2, 70012, Note_on_c, 2, 81, 0
2, 70043, Note_on_c, 2, 52, 0
2, 70043, Note_on_c, 2, 79, 36
2, 70043, Note_on_c, 2, 60, 35
2, 70046, Note_on_c, 2, 55, 0
2, 70054, Note_on_c, 2, 82, 0
2, 70081, Control_c, 2, 64, 0
2, 70085, Note_on_c, 2, 81, 44
2, 70085, Note_on_c, 2, 53, 38
2, 70089, Note_on_c, 2, 79, 0
2, 70128, Note_on_c, 2, 60, 0
2, 70128, Note_on_c, 2, 57, 28
2, 70150, Control_c, 2, 64, 127
2, 70170, Note_on_c, 2, 60, 38
2, 70208, Note_on_c, 2, 84, 52
2, 70228, Note_on_c, 2, 84, 0
2, 70228, Note_on_c, 2, 81, 0
2, 70247, Note_on_c, 2, 84, 51
2, 70262, Note_on_c, 2, 84, 0
2, 70285, Note_on_c, 2, 84, 59
2, 70296, Note_on_c, 2, 84, 0
2, 70324, Note_on_c, 2, 84, 68
2, 70335, Note_on_c, 2, 60, 0
2, 70339, Note_on_c, 2, 53, 0
2, 70343, Note_on_c, 2, 57, 0
2, 70362, Note_on_c, 2, 85, 49
2, 70370, Note_on_c, 2, 84, 0
2, 70408, Note_on_c, 2, 86, 56
2, 70409, Note_on_c, 2, 46, 56
2, 70409, Note_on_c, 2, 58, 46
2, 70409, Control_c, 2, 64, 0
2, 70412, Note_on_c, 2, 85, 0
2, 70427, Note_on_c, 2, 86, 0
2, 70428, Note_on_c, 2, 74, 66
2, 70431, Control_c, 2, 64, 127
2, 70447, Note_on_c, 2, 73, 79
2, 70455, Note_on_c, 2, 74, 0
2, 70466, Note_on_c, 2, 73, 0
2, 70470, Note_on_c, 2, 74, 55
2, 70486, Note_on_c, 2, 74, 0
2, 70489, Note_on_c, 2, 75, 72
2, 70504, Note_on_c, 2, 75, 0
2, 70504, Note_on_c, 2, 74, 57
2, 70524, Note_on_c, 2, 74, 0
2, 70528, Note_on_c, 2, 76, 70
2, 70543, Note_on_c, 2, 76, 0
2, 70543, Note_on_c, 2, 74, 63
2, 70562, Note_on_c, 2, 74, 0
2, 70562, Note_on_c, 2, 77, 56
2, 70577, Note_on_c, 2, 77, 0
2, 70581, Note_on_c, 2, 74, 65
2, 70601, Note_on_c, 2, 74, 0
2, 70601, Note_on_c, 2, 78, 70
2, 70616, Note_on_c, 2, 78, 0
2, 70620, Note_on_c, 2, 74, 70
2, 70635, Note_on_c, 2, 74, 0
2, 70639, Note_on_c, 2, 79, 68
2, 70651, Note_on_c, 2, 58, 0
2, 70654, Note_on_c, 2, 79, 0
2, 70654, Note_on_c, 2, 46, 0
2, 70658, Note_on_c, 2, 74, 65
2, 70678, Note_on_c, 2, 74, 0
2, 70678, Note_on_c, 2, 81, 66
2, 70693, Note_on_c, 2, 81, 0
2, 70697, Note_on_c, 2, 74, 57
2, 70716, Note_on_c, 2, 55, 62
2, 70716, Note_on_c, 2, 82, 72
2, 70736, Control_c, 2, 64, 0
2, 70743, Note_on_c, 2, 55, 0
2, 70743, Note_on_c, 2, 57, 55
2, 70754, Control_c, 2, 64, 127
2, 70763, Note_on_c, 2, 58, 68
2, 70766, Note_on_c, 2, 57, 0
2, 70777, Note_on_c, 2, 58, 0
2, 70778, Note_on_c, 2, 57, 62
2, 70801, Note_on_c, 2, 57, 0
2, 70801, Note_on_c, 2, 55, 79
2, 70816, Note_on_c, 2, 55, 0
2, 70816, Note_on_c, 2, 57, 55
2, 70835, Note_on_c, 2, 57, 0
2, 70835, Note_on_c, 2, 53, 83
2, 70854, Note_on_c, 2, 53, 0
2, 70854, Note_on_c, 2, 55, 57
2, 70874, Note_on_c, 2, 55, 0
2, 70874, Note_on_c, 2, 52, 79
2, 70894, Note_on_c, 2, 52, 0
2, 70894, Note_on_c, 2, 53, 59
2, 70912, Note_on_c, 2, 53, 0
2, 70916, Note_on_c, 2, 50, 72
2, 70924, Note_on_c, 2, 74, 0
2, 70932, Note_on_c, 2, 50, 0
2, 70932, Note_on_c, 2, 82, 0
2, 70936, Note_on_c, 2, 52, 47
2, 70950, Note_on_c, 2, 52, 0
2, 70954, Note_on_c, 2, 81, 48
2, 70954, Note_on_c, 2, 48, 79
2, 70962, Note_on_c, 2, 82, 56
2, 70966, Note_on_c, 2, 81, 0
2, 70970, Note_on_c, 2, 48, 0
2, 70978, Note_on_c, 2, 82, 0
2, 70978, Note_on_c, 2, 81, 65
2, 70980, Note_on_c, 2, 50, 49
2, 70985, Note_on_c, 2, 82, 54
2, 70989, Note_on_c, 2, 81, 0
2, 70993, Note_on_c, 2, 46, 54
2, 70997, Note_on_c, 2, 82, 0
2, 71001, Note_on_c, 2, 81, 37
2, 71016, Note_on_c, 2, 81, 0
2, 71016, Note_on_c, 2, 82, 53
2, 71027, Note_on_c, 2, 82, 0
2, 71028, Note_on_c, 2, 81, 54
2, 71038, Note_on_c, 2, 81, 0
2, 71039, Note_on_c, 2, 82, 56
2, 71043, Note_on_c, 2, 46, 0
2, 71047, Note_on_c, 2, 45, 54
2, 71047, Note_on_c, 2, 57, 55
2, 71047, Note_on_c, 2, 84, 66
2, 71054, Note_on_c, 2, 82, 0
2, 71058, Control_c, 2, 64, 0
2, 71062, Note_on_c, 2, 84, 0
2, 71062, Note_on_c, 2, 72, 66
2, 71086, Note_on_c, 2, 71, 79
2, 71086, Control_c, 2, 64, 127
2, 71089, Note_on_c, 2, 72, 0
2, 71104, Note_on_c, 2, 71, 0
2, 71104, Note_on_c, 2, 72, 53
2, 71124, Note_on_c, 2, 72, 0
2, 71124, Note_on_c, 2, 73, 79
2, 71139, Note_on_c, 2, 73, 0
2, 71139, Note_on_c, 2, 72, 55
2, 71162, Note_on_c, 2, 72, 0
2, 71162, Note_on_c, 2, 74, 66
2, 71178, Note_on_c, 2, 74, 0
2, 71182, Note_on_c, 2, 72, 57
2, 71197, Note_on_c, 2, 72, 0
2, 71197, Note_on_c, 2, 75, 72
2, 71216, Note_on_c, 2, 75, 0
2, 71216, Note_on_c, 2, 72, 66
2, 71236, Note_on_c, 2, 72, 0
2, 71236, Note_on_c, 2, 76, 55
2, 71255, Note_on_c, 2, 76, 0
2, 71255, Note_on_c, 2, 72, 63
2, 71274, Note_on_c, 2, 72, 0
2, 71278, Note_on_c, 2, 77, 65
2, 71293, Note_on_c, 2, 77, 0
2, 71297, Note_on_c, 2, 72, 70
2, 71298, Note_on_c, 2, 45, 0
2, 71316, Note_on_c, 2, 79, 56
2, 71320, Note_on_c, 2, 72, 0
2, 71335, Note_on_c, 2, 79, 0
2, 71340, Note_on_c, 2, 72, 63
2, 71358, Note_on_c, 2, 53, 57
2, 71358, Note_on_c, 2, 81, 60
2, 71362, Note_on_c, 2, 57, 0
2, 71385, Note_on_c, 2, 55, 72
2, 71385, Control_c, 2, 64, 0
2, 71389, Note_on_c, 2, 53, 0
2, 71404, Note_on_c, 2, 55, 0
2, 71404, Control_c, 2, 64, 127
2, 71405, Note_on_c, 2, 57, 68
2, 71420, Note_on_c, 2, 55, 52
2, 71440, Note_on_c, 2, 57, 0
2, 71440, Note_on_c, 2, 53, 59
2, 71447, Note_on_c, 2, 55, 0
2, 71458, Note_on_c, 2, 53, 0
2, 71458, Note_on_c, 2, 55, 56
2, 71478, Note_on_c, 2, 55, 0
2, 71482, Note_on_c, 2, 52, 66
2, 71497, Note_on_c, 2, 52, 0
2, 71497, Note_on_c, 2, 53, 57
2, 71516, Note_on_c, 2, 53, 0
2, 71516, Note_on_c, 2, 50, 68
2, 71524, Note_on_c, 2, 50, 0
2, 71536, Note_on_c, 2, 50, 0
2, 71536, Note_on_c, 2, 52, 51
2, 71551, Note_on_c, 2, 72, 0
2, 71554, Note_on_c, 2, 52, 0
2, 71555, Note_on_c, 2, 48, 66
2, 71566, Note_on_c, 2, 81, 0
2, 71574, Note_on_c, 2, 48, 0
2, 71574, Note_on_c, 2, 50, 57
2, 71593, Note_on_c, 2, 50, 0
2, 71593, Note_on_c, 2, 81, 50
2, 71593, Note_on_c, 2, 46, 72
2, 71601, Note_on_c, 2, 82, 62
2, 71604, Note_on_c, 2, 81, 0
2, 71612, Note_on_c, 2, 82, 0
2, 71612, Note_on_c, 2, 81, 59
2, 71624, Note_on_c, 2, 81, 0
2, 71624, Note_on_c, 2, 82, 54
2, 71636, Note_on_c, 2, 82, 0
2, 71640, Note_on_c, 2, 81, 36
2, 71651, Note_on_c, 2, 82, 39
2, 71655, Note_on_c, 2, 81, 0
2, 71658, Note_on_c, 2, 82, 0
2, 71678, Note_on_c, 2, 46, 0
2, 71678, Note_on_c, 2, 43, 55
2, 71679, Note_on_c, 2, 55, 54
2, 71681, Note_on_c, 2, 82, 59
2, 71685, Control_c, 2, 64, 0
2, 71701, Note_on_c, 2, 70, 41
2, 71705, Control_c, 2, 64, 127
2, 71709, Note_on_c, 2, 82, 0
2, 71709, Note_on_c, 2, 43, 0
2, 71709, Note_on_c, 2, 55, 0
2, 71728, Note_on_c, 2, 55, 54
2, 71728, Note_on_c, 2, 43, 52
2, 71732, Note_on_c, 2, 69, 39
2, 71736, Note_on_c, 2, 70, 0
2, 71755, Note_on_c, 2, 70, 55
2, 71758, Note_on_c, 2, 69, 0
2, 71770, Note_on_c, 2, 72, 54
2, 71774, Note_on_c, 2, 70, 0
2, 71789, Note_on_c, 2, 70, 59
2, 71793, Note_on_c, 2, 72, 0
2, 71808, Note_on_c, 2, 74, 56
2, 71812, Note_on_c, 2, 70, 0
2, 71824, Note_on_c, 2, 74, 0
2, 71828, Note_on_c, 2, 70, 55
2, 71847, Note_on_c, 2, 75, 57
2, 71851, Note_on_c, 2, 70, 0
2, 71870, Note_on_c, 2, 70, 40
2, 71874, Note_on_c, 2, 75, 0
2, 71889, Note_on_c, 2, 76, 59
2, 71893, Note_on_c, 2, 70, 0
2, 71905, Note_on_c, 2, 76, 0
2, 71908, Note_on_c, 2, 70, 49
2, 71932, Note_on_c, 2, 70, 0
2, 71932, Note_on_c, 2, 77, 53
2, 71955, Note_on_c, 2, 77, 0
2, 71955, Note_on_c, 2, 70, 48
2, 71959, Note_on_c, 2, 43, 0
2, 71974, Note_on_c, 2, 70, 0
2, 71982, Note_on_c, 2, 78, 45
2, 72001, Note_on_c, 2, 78, 0
2, 72009, Note_on_c, 2, 70, 19
2, 72028, Note_on_c, 2, 70, 0
2, 72039, Note_on_c, 2, 79, 46
2, 72043, Note_on_c, 2, 48, 18
2, 72051, Note_on_c, 2, 55, 0
2, 72059, Control_c, 2, 64, 0
2, 72062, Note_on_c, 2, 52, 38
2, 72078, Control_c, 2, 64, 127
2, 72086, Note_on_c, 2, 55, 45
2, 72089, Note_on_c, 2, 52, 0
2, 72109, Note_on_c, 2, 48, 0
2, 72109, Note_on_c, 2, 52, 42
2, 72124, Note_on_c, 2, 52, 0
2, 72124, Note_on_c, 2, 79, 0
2, 72128, Note_on_c, 2, 55, 0
2, 72128, Note_on_c, 2, 48, 42
2, 72147, Note_on_c, 2, 52, 42
2, 72170, Note_on_c, 2, 52, 0
2, 72170, Note_on_c, 2, 55, 45
2, 72171, Note_on_c, 2, 82, 56
2, 72189, Note_on_c, 2, 82, 0
2, 72189, Note_on_c, 2, 48, 0
2, 72190, Note_on_c, 2, 52, 43
2, 72205, Note_on_c, 2, 52, 0
2, 72212, Note_on_c, 2, 55, 0
2, 72212, Note_on_c, 2, 48, 39
2, 72216, Note_on_c, 2, 81, 39
2, 72232, Note_on_c, 2, 52, 42
2, 72251, Note_on_c, 2, 52, 0
2, 72255, Note_on_c, 2, 55, 39
2, 72255, Note_on_c, 2, 79, 45
2, 72258, Note_on_c, 2, 81, 0
2, 72274, Note_on_c, 2, 48, 0
2, 72278, Note_on_c, 2, 52, 48
2, 72293, Note_on_c, 2, 52, 0
2, 72293, Note_on_c, 2, 55, 0
2, 72298, Note_on_c, 2, 48, 49
2, 72301, Note_on_c, 2, 77, 40
2, 72305, Note_on_c, 2, 79, 0
2, 72316, Note_on_c, 2, 52, 42
2, 72340, Note_on_c, 2, 52, 0
2, 72340, Note_on_c, 2, 55, 47
2, 72344, Note_on_c, 2, 76, 40
2, 72347, Note_on_c, 2, 77, 0
2, 72358, Note_on_c, 2, 48, 0
2, 72358, Note_on_c, 2, 52, 39
2, 72378, Note_on_c, 2, 52, 0
2, 72382, Note_on_c, 2, 48, 39
2, 72385, Note_on_c, 2, 55, 0
2, 72386, Note_on_c, 2, 79, 46
2, 72397, Note_on_c, 2, 76, 0
2, 72404, Note_on_c, 2, 53, 39
2, 72405, Control_c, 2, 64, 0
2, 72424, Control_c, 2, 64, 127
2, 72432, Note_on_c, 2, 53, 0
2, 72432, Note_on_c, 2, 57, 40
2, 72432, Note_on_c, 2, 77, 46
2, 72436, Note_on_c, 2, 79, 0
2, 72451, Note_on_c, 2, 48, 0
2, 72451, Note_on_c, 2, 53, 41
2, 72474, Note_on_c, 2, 57, 0
2, 72474, Note_on_c, 2, 48, 52
2, 72478, Note_on_c, 2, 53, 0
2, 72497, Note_on_c, 2, 53, 39
2, 72516, Note_on_c, 2, 57, 50
2, 72524, Note_on_c, 2, 53, 0
2, 72524, Note_on_c, 2, 84, 51
2, 72528, Note_on_c, 2, 77, 0
2, 72544, Note_on_c, 2, 48, 0
2, 72544, Note_on_c, 2, 53, 36
2, 72559, Note_on_c, 2, 53, 0
2, 72563, Note_on_c, 2, 48, 45
2, 72566, Note_on_c, 2, 57, 0
2, 72566, Note_on_c, 2, 82, 54
2, 72570, Note_on_c, 2, 84, 0
2, 72582, Note_on_c, 2, 51, 47
2, 72590, Control_c, 2, 64, 0
2, 72593, Note_on_c, 2, 48, 0
2, 72605, Note_on_c, 2, 54, 52
2, 72605, Control_c, 2, 64, 127
2, 72606, Note_on_c, 2, 81, 46
2, 72612, Note_on_c, 2, 51, 0
2, 72613, Note_on_c, 2, 82, 0
2, 72628, Note_on_c, 2, 48, 42
2, 72636, Note_on_c, 2, 54, 0
2, 72644, Note_on_c, 2, 51, 42
2, 72651, Note_on_c, 2, 79, 49
2, 72655, Note_on_c, 2, 81, 0
2, 72674, Note_on_c, 2, 54, 37
2, 72678, Note_on_c, 2, 79, 0
2, 72678, Note_on_c, 2, 51, 0
2, 72690, Note_on_c, 2, 48, 0
2, 72690, Note_on_c, 2, 51, 36
2, 72693, Note_on_c, 2, 78, 54
2, 72713, Note_on_c, 2, 78, 0
2, 72720, Note_on_c, 2, 51, 0
2, 72724, Note_on_c, 2, 54, 0
2, 72736, Note_on_c, 2, 46, 48
2, 72740, Note_on_c, 2, 79, 54
2, 72751, Control_c, 2, 64, 0
2, 72755, Note_on_c, 2, 50, 49
2, 72766, Control_c, 2, 64, 127
2, 72774, Note_on_c, 2, 50, 0
2, 72778, Note_on_c, 2, 55, 41
2, 72797, Note_on_c, 2, 46, 0
2, 72797, Note_on_c, 2, 50, 36
2, 72798, Note_on_c, 2, 81, 54
2, 72805, Note_on_c, 2, 79, 0
2, 72816, Note_on_c, 2, 50, 0
2, 72817, Note_on_c, 2, 55, 0
2, 72817, Note_on_c, 2, 46, 53
2, 72820, Note_on_c, 2, 81, 0
2, 72821, Note_on_c, 2, 84, 51
2, 72836, Note_on_c, 2, 50, 49
2, 72840, Note_on_c, 2, 82, 63
2, 72848, Note_on_c, 2, 84, 0
2, 72855, Note_on_c, 2, 46, 0
2, 72862, Note_on_c, 2, 81, 72
2, 72862, Note_on_c, 2, 55, 25
2, 72866, Note_on_c, 2, 82, 0
2, 72870, Note_on_c, 2, 50, 0
2, 72878, Note_on_c, 2, 81, 0
2, 72878, Note_on_c, 2, 79, 66
2, 72897, Note_on_c, 2, 55, 0
2, 72898, Note_on_c, 2, 48, 54
2, 72898, Note_on_c, 2, 77, 96
2, 72901, Note_on_c, 2, 79, 0
2, 72913, Control_c, 2, 64, 0
2, 72916, Note_on_c, 2, 53, 45
2, 72932, Control_c, 2, 64, 127
2, 72940, Note_on_c, 2, 48, 0
2, 72940, Note_on_c, 2, 57, 63
2, 72966, Note_on_c, 2, 53, 0
2, 72970, Note_on_c, 2, 57, 0
2, 72974, Note_on_c, 2, 77, 0
2, 72986, Note_on_c, 2, 48, 42
2, 72986, Note_on_c, 2, 52, 57
2, 72990, Note_on_c, 2, 55, 56
2, 72990, Note_on_c, 2, 76, 48
2, 72997, Note_on_c, 2, 77, 55
2, 73001, Note_on_c, 2, 76, 0
2, 73001, Control_c, 2, 64, 0
2, 73009, Note_on_c, 2, 52, 0
2, 73009, Note_on_c, 2, 77, 0
2, 73009, Note_on_c, 2, 76, 53
2, 73012, Note_on_c, 2, 48, 0
2, 73013, Control_c, 2, 64, 127
2, 73016, Note_on_c, 2, 55, 0
2, 73021, Note_on_c, 2, 76, 0
2, 73021, Note_on_c, 2, 77, 59
2, 73032, Note_on_c, 2, 77, 0
2, 73036, Note_on_c, 2, 76, 30
2, 73044, Note_on_c, 2, 77, 57
2, 73048, Note_on_c, 2, 76, 0
2, 73058, Note_on_c, 2, 76, 49
2, 73067, Note_on_c, 2, 77, 0
2, 73074, Note_on_c, 2, 76, 0
2, 73074, Note_on_c, 2, 53, 63
2, 73074, Note_on_c, 2, 65, 56
2, 73086, Control_c, 2, 64, 0
2, 73094, Note_on_c, 2, 77, 72
2, 73101, Control_c, 2, 64, 127
2, 73113, Note_on_c, 2, 65, 0
2, 73116, Note_on_c, 2, 77, 0
2, 73117, Note_on_c, 2, 76, 66
2, 73120, Note_on_c, 2, 53, 0
2, 73136, Note_on_c, 2, 77, 57
2, 73143, Note_on_c, 2, 76, 0
2, 73155, Note_on_c, 2, 77, 0
2, 73159, Note_on_c, 2, 60, 55
2, 73159, Note_on_c, 2, 48, 65
2, 73178, Note_on_c, 2, 72, 72
2, 73178, Control_c, 2, 64, 0
2, 73193, Control_c, 2, 64, 127
2, 73197, Note_on_c, 2, 72, 0
2, 73197, Note_on_c, 2, 71, 63
2, 73209, Note_on_c, 2, 60, 0
2, 73217, Note_on_c, 2, 48, 0
2, 73220, Note_on_c, 2, 72, 57
2, 73224, Note_on_c, 2, 71, 0
2, 73236, Note_on_c, 2, 72, 0
2, 73240, Note_on_c, 2, 45, 70
2, 73240, Note_on_c, 2, 57, 55
2, 73255, Control_c, 2, 64, 0
2, 73259, Note_on_c, 2, 69, 66
2, 73271, Control_c, 2, 64, 127
2, 73278, Note_on_c, 2, 69, 0
2, 73278, Note_on_c, 2, 68, 60
2, 73282, Note_on_c, 2, 57, 0
2, 73290, Note_on_c, 2, 45, 0
2, 73305, Note_on_c, 2, 69, 54
2, 73308, Note_on_c, 2, 68, 0
2, 73320, Note_on_c, 2, 69, 0
2, 73324, Note_on_c, 2, 41, 68
2, 73325, Note_on_c, 2, 53, 59
2, 73340, Control_c, 2, 64, 0
2, 73348, Note_on_c, 2, 65, 68
2, 73359, Control_c, 2, 64, 127
2, 73363, Note_on_c, 2, 41, 0
2, 73367, Note_on_c, 2, 65, 0
2, 73371, Note_on_c, 2, 64, 46
2, 73374, Note_on_c, 2, 53, 0
2, 73394, Note_on_c, 2, 64, 0
2, 73394, Note_on_c, 2, 65, 53
2, 73401, Note_on_c, 2, 65, 0
2, 73440, Note_on_c, 2, 48, 40
2, 73448, Note_on_c, 2, 72, 40
2, 73459, Control_c, 2, 64, 0
2, 73467, Note_on_c, 2, 55, 51
2, 73474, Control_c, 2, 64, 127
2, 73486, Note_on_c, 2, 55, 0
2, 73486, Note_on_c, 2, 58, 52
2, 73505, Note_on_c, 2, 48, 0
2, 73505, Note_on_c, 2, 55, 48
2, 73528, Note_on_c, 2, 48, 46
2, 73532, Note_on_c, 2, 58, 0
2, 73536, Note_on_c, 2, 55, 0
2, 73552, Note_on_c, 2, 55, 41
2, 73563, Note_on_c, 2, 72, 0
2, 73566, Note_on_c, 2, 58, 43
2, 73570, Note_on_c, 2, 82, 54
2, 73578, Note_on_c, 2, 55, 0
2, 73586, Note_on_c, 2, 48, 0
2, 73589, Note_on_c, 2, 82, 0
2, 73590, Note_on_c, 2, 55, 49
2, 73605, Note_on_c, 2, 58, 0
2, 73613, Note_on_c, 2, 55, 0
2, 73613, Note_on_c, 2, 48, 49
2, 73616, Note_on_c, 2, 81, 53
2, 73632, Note_on_c, 2, 55, 46
2, 73656, Note_on_c, 2, 55, 0
2, 73656, Note_on_c, 2, 58, 49
2, 73659, Note_on_c, 2, 81, 0
2, 73659, Note_on_c, 2, 79, 53
2, 73678, Note_on_c, 2, 55, 45
2, 73682, Note_on_c, 2, 58, 0
2, 73686, Note_on_c, 2, 48, 0
2, 73697, Note_on_c, 2, 55, 0
2, 73698, Note_on_c, 2, 48, 54
2, 73701, Note_on_c, 2, 77, 47
2, 73705, Note_on_c, 2, 79, 0
2, 73717, Note_on_c, 2, 55, 45
2, 73740, Note_on_c, 2, 55, 0
2, 73740, Note_on_c, 2, 58, 50
2, 73744, Note_on_c, 2, 77, 0
2, 73744, Note_on_c, 2, 76, 53
2, 73763, Note_on_c, 2, 48, 0
2, 73763, Note_on_c, 2, 55, 38
2, 73778, Note_on_c, 2, 58, 0
2, 73782, Note_on_c, 2, 55, 0
2, 73786, Note_on_c, 2, 48, 50
2, 73790, Note_on_c, 2, 79, 45
2, 73794, Note_on_c, 2, 76, 0
2, 73809, Note_on_c, 2, 53, 56
2, 73817, Control_c, 2, 64, 0
2, 73828, Note_on_c, 2, 77, 55
2, 73832, Note_on_c, 2, 57, 55
2, 73836, Note_on_c, 2, 53, 0
2, 73836, Note_on_c, 2, 79, 0
2, 73836, Control_c, 2, 64, 127
2, 73844, Note_on_c, 2, 57, 0
2, 73847, Note_on_c, 2, 53, 46
2, 73855, Note_on_c, 2, 48, 0
2, 73870, Note_on_c, 2, 53, 0
2, 73875, Note_on_c, 2, 48, 57
2, 73894, Note_on_c, 2, 53, 49
2, 73909, Note_on_c, 2, 53, 0
2, 73913, Note_on_c, 2, 57, 66
2, 73917, Note_on_c, 2, 84, 52
2, 73920, Note_on_c, 2, 48, 0
2, 73924, Note_on_c, 2, 77, 0
2, 73948, Note_on_c, 2, 57, 0
2, 73955, Note_on_c, 2, 48, 55
2, 73959, Note_on_c, 2, 82, 57
2, 73963, Note_on_c, 2, 84, 0
2, 73974, Note_on_c, 2, 51, 44
2, 73982, Control_c, 2, 64, 0
2, 73998, Note_on_c, 2, 54, 39
2, 73998, Note_on_c, 2, 81, 55
2, 73998, Control_c, 2, 64, 127
2, 74005, Note_on_c, 2, 51, 0
2, 74005, Note_on_c, 2, 82, 0
2, 74017, Note_on_c, 2, 48, 0
2, 74017, Note_on_c, 2, 51, 45
2, 74024, Note_on_c, 2, 54, 0
2, 74036, Note_on_c, 2, 51, 0
2, 74040, Note_on_c, 2, 81, 0
2, 74040, Note_on_c, 2, 79, 47
2, 74040, Note_on_c, 2, 48, 49
2, 74063, Note_on_c, 2, 51, 31
2, 74067, Note_on_c, 2, 79, 0
2, 74075, Note_on_c, 2, 48, 0
2, 74082, Note_on_c, 2, 54, 45
2, 74086, Note_on_c, 2, 78, 52
2, 74090, Note_on_c, 2, 51, 0
2, 74102, Note_on_c, 2, 78, 0
2, 74109, Note_on_c, 2, 54, 0
2, 74120, Note_on_c, 2, 46, 48
2, 74128, Note_on_c, 2, 79, 65
2, 74140, Control_c, 2, 64, 0
2, 74141, Note_on_c, 2, 50, 50
2, 74155, Control_c, 2, 64, 127
2, 74160, Note_on_c, 2, 50, 0
2, 74163, Note_on_c, 2, 55, 50
2, 74182, Note_on_c, 2, 50, 46
2, 74186, Note_on_c, 2, 46, 0
2, 74197, Note_on_c, 2, 55, 0
2, 74202, Note_on_c, 2, 50, 0
2, 74206, Note_on_c, 2, 46, 60
2, 74206, Note_on_c, 2, 81, 48
2, 74213, Note_on_c, 2, 79, 0
2, 74225, Note_on_c, 2, 50, 42
2, 74232, Note_on_c, 2, 46, 0
2, 74232, Note_on_c, 2, 82, 42
2, 74240, Note_on_c, 2, 81, 0
2, 74244, Note_on_c, 2, 50, 0
2, 74251, Note_on_c, 2, 84, 47
2, 74256, Note_on_c, 2, 82, 0
2, 74266, Note_on_c, 2, 86, 45
2, 74275, Note_on_c, 2, 86, 0
2, 74275, Note_on_c, 2, 84, 0
2, 74286, Note_on_c, 2, 48, 50
2, 74286, Note_on_c, 2, 86, 49
2, 74306, Note_on_c, 2, 53, 42
2, 74310, Control_c, 2, 64, 0
2, 74310, Note_on_c, 2, 77, 48
2, 74313, Note_on_c, 2, 86, 0
2, 74328, Note_on_c, 2, 48, 0
2, 74329, Note_on_c, 2, 57, 53
2, 74329, Control_c, 2, 64, 127
2, 74344, Note_on_c, 2, 53, 0
2, 74355, Note_on_c, 2, 57, 0
2, 74356, Note_on_c, 2, 77, 0
2, 74370, Note_on_c, 2, 48, 40
2, 74371, Note_on_c, 2, 52, 55
2, 74371, Note_on_c, 2, 79, 65
2, 74375, Note_on_c, 2, 55, 52
2, 74378, Control_c, 2, 64, 0
2, 74382, Note_on_c, 2, 79, 0
2, 74382, Note_on_c, 2, 81, 48
2, 74390, Control_c, 2, 64, 127
2, 74394, Note_on_c, 2, 81, 0
2, 74394, Note_on_c, 2, 79, 54
2, 74398, Note_on_c, 2, 52, 0
2, 74401, Note_on_c, 2, 48, 0
2, 74406, Note_on_c, 2, 79, 0
2, 74406, Note_on_c, 2, 81, 43
2, 74409, Note_on_c, 2, 55, 0
2, 74413, Note_on_c, 2, 81, 0
2, 74417, Note_on_c, 2, 79, 32
2, 74424, Note_on_c, 2, 79, 0
2, 74425, Note_on_c, 2, 81, 55
2, 74440, Note_on_c, 2, 79, 39
2, 74444, Note_on_c, 2, 81, 0
2, 74459, Note_on_c, 2, 79, 0
2, 74460, Note_on_c, 2, 77, 70
2, 74460, Note_on_c, 2, 53, 66
2, 74461, Note_on_c, 2, 57, 66
2, 74471, Control_c, 2, 64, 0
2, 74502, Note_on_c, 2, 84, 55
2, 74509, Note_on_c, 2, 77, 0
2, 74513, Control_c, 2, 64, 127
2, 74521, Note_on_c, 2, 81, 53
2, 74525, Note_on_c, 2, 84, 0
2, 74540, Note_on_c, 2, 77, 57
2, 74548, Note_on_c, 2, 81, 0
2, 74559, Note_on_c, 2, 77, 0
2, 74559, Note_on_c, 2, 72, 72
2, 74571, Note_on_c, 2, 72, 0
2, 74579, Note_on_c, 2, 69, 47
2, 74594, Note_on_c, 2, 69, 0
2, 74601, Note_on_c, 2, 65, 48
2, 74609, Note_on_c, 2, 65, 0
2, 74621, Note_on_c, 2, 60, 62
2, 74624, Note_on_c, 2, 63, 72
2, 74628, Control_c, 2, 64, 0
2, 74632, Note_on_c, 2, 53, 0
2, 74633, Note_on_c, 2, 57, 0
2, 74640, Control_c, 2, 64, 127
2, 74664, Note_on_c, 2, 41, 55
2, 74664, Note_on_c, 2, 53, 54
2, 74674, Note_on_c, 2, 41, 0
2, 74675, Note_on_c, 2, 53, 0
2, 74706, Note_on_c, 2, 45, 66
2, 74706, Note_on_c, 2, 57, 53
2, 74713, Note_on_c, 2, 57, 0
2, 74713, Note_on_c, 2, 45, 0
2, 74744, Note_on_c, 2, 41, 63
2, 74744, Note_on_c, 2, 53, 49
2, 74751, Note_on_c, 2, 41, 0
2, 74756, Note_on_c, 2, 53, 0
2, 74763, Note_on_c, 2, 60, 0
2, 74763, Note_on_c, 2, 63, 0
2, 74782, Note_on_c, 2, 46, 62
2, 74786, Note_on_c, 2, 58, 63
2, 74794, Control_c, 2, 64, 0
2, 74820, Control_c, 2, 64, 127
2, 74825, Note_on_c, 2, 62, 55
2, 74848, Note_on_c, 2, 62, 0
2, 74852, Note_on_c, 2, 46, 0
2, 74863, Note_on_c, 2, 55, 55
2, 74867, Note_on_c, 2, 58, 0
2, 74905, Control_c, 2, 64, 0
2, 74909, Note_on_c, 2, 70, 52
2, 74909, Note_on_c, 2, 74, 56
2, 74948, Note_on_c, 2, 60, 54
2, 74990, Note_on_c, 2, 69, 45
2, 74991, Note_on_c, 2, 72, 55
2, 74991, Control_c, 2, 64, 127
2, 74994, Note_on_c, 2, 74, 0
2, 74994, Note_on_c, 2, 70, 0
2, 75002, Note_on_c, 2, 72, 0
2, 75005, Note_on_c, 2, 69, 0
2, 75025, Note_on_c, 2, 60, 0
2, 75029, Note_on_c, 2, 48, 52
2, 75067, Control_c, 2, 64, 0
2, 75068, Note_on_c, 2, 58, 48
2, 75068, Note_on_c, 2, 64, 56
2, 75082, Note_on_c, 2, 55, 0
2, 75082, Control_c, 2, 64, 127
2, 75086, Note_on_c, 2, 58, 0
2, 75098, Note_on_c, 2, 64, 0
2, 75110, Note_on_c, 2, 48, 0
2, 75110, Note_on_c, 2, 53, 47
2, 75113, Note_on_c, 2, 57, 53
2, 75125, Control_c, 2, 64, 0
2, 75156, Note_on_c, 2, 84, 55
2, 75175, Note_on_c, 2, 81, 47
2, 75182, Note_on_c, 2, 84, 0
2, 75194, Note_on_c, 2, 77, 50
2, 75206, Note_on_c, 2, 81, 0
2, 75206, Control_c, 2, 64, 127
2, 75217, Note_on_c, 2, 77, 0
2, 75217, Note_on_c, 2, 72, 68
2, 75229, Note_on_c, 2, 72, 0
2, 75240, Note_on_c, 2, 69, 46
2, 75252, Note_on_c, 2, 69, 0
2, 75259, Note_on_c, 2, 65, 49
2, 75263, Note_on_c, 2, 65, 0
2, 75275, Control_c, 2, 64, 0
2, 75278, Note_on_c, 2, 60, 65
2, 75279, Note_on_c, 2, 63, 83
2, 75286, Note_on_c, 2, 57, 0
2, 75290, Note_on_c, 2, 53, 0
2, 75290, Control_c, 2, 64, 127
2, 75321, Note_on_c, 2, 41, 65
2, 75322, Note_on_c, 2, 53, 55
2, 75333, Note_on_c, 2, 53, 0
2, 75333, Note_on_c, 2, 41, 0
2, 75360, Note_on_c, 2, 57, 51
2, 75363, Note_on_c, 2, 45, 53
2, 75368, Note_on_c, 2, 57, 0
2, 75371, Note_on_c, 2, 45, 0
2, 75402, Note_on_c, 2, 41, 60
2, 75402, Note_on_c, 2, 53, 54
2, 75409, Note_on_c, 2, 41, 0
2, 75413, Note_on_c, 2, 53, 0
2, 75444, Note_on_c, 2, 46, 63
2, 75445, Note_on_c, 2, 58, 65
2, 75452, Note_on_c, 2, 63, 0
2, 75456, Note_on_c, 2, 60, 0
2, 75459, Control_c, 2, 64, 0
2, 75486, Control_c, 2, 64, 127
2, 75486, Note_on_c, 2, 62, 54
2, 75517, Note_on_c, 2, 62, 0
2, 75525, Note_on_c, 2, 46, 0
2, 75529, Note_on_c, 2, 58, 0
2, 75529, Note_on_c, 2, 55, 54
2, 75571, Note_on_c, 2, 70, 51
2, 75571, Note_on_c, 2, 74, 57
2, 75582, Control_c, 2, 64, 0
2, 75613, Note_on_c, 2, 60, 59
2, 75652, Note_on_c, 2, 72, 57
2, 75652, Note_on_c, 2, 69, 50
2, 75656, Note_on_c, 2, 70, 0
2, 75656, Control_c, 2, 64, 127
2, 75660, Note_on_c, 2, 74, 0
2, 75664, Note_on_c, 2, 72, 0
2, 75667, Note_on_c, 2, 69, 0
2, 75694, Note_on_c, 2, 60, 0
2, 75694, Note_on_c, 2, 48, 52
2, 75698, Note_on_c, 2, 55, 0
2, 75710, Note_on_c, 2, 48, 0
2, 75733, Note_on_c, 2, 58, 42
2, 75734, Note_on_c, 2, 64, 54
2, 75744, Note_on_c, 2, 58, 0
2, 75751, Note_on_c, 2, 64, 0
2, 75775, Note_on_c, 2, 41, 56
2, 75775, Note_on_c, 2, 65, 65
2, 75775, Note_on_c, 2, 57, 55
2, 75779, Control_c, 2, 64, 0
2, 75794, Note_on_c, 2, 41, 0
2, 75798, Note_on_c, 2, 53, 63
2, 75798, Control_c, 2, 64, 127
2, 75813, Note_on_c, 2, 52, 63
2, 75817, Note_on_c, 2, 53, 0
2, 75829, Note_on_c, 2, 57, 0
2, 75832, Note_on_c, 2, 52, 0
2, 75833, Note_on_c, 2, 53, 57
2, 75852, Note_on_c, 2, 53, 0
2, 75852, Note_on_c, 2, 65, 0
2, 75856, Note_on_c, 2, 41, 65
2, 75875, Note_on_c, 2, 41, 0
2, 75875, Note_on_c, 2, 53, 54
2, 75898, Note_on_c, 2, 65, 53
2, 75899, Note_on_c, 2, 69, 53
2, 75899, Note_on_c, 2, 52, 57
2, 75902, Note_on_c, 2, 53, 0
2, 75915, Note_on_c, 2, 53, 51
2, 75917, Note_on_c, 2, 65, 0
2, 75917, Note_on_c, 2, 69, 0
2, 75921, Note_on_c, 2, 52, 0
2, 75923, Note_on_c, 2, 53, 0
2, 75932, Note_on_c, 2, 41, 41
2, 75936, Note_on_c, 2, 64, 54
2, 75940, Note_on_c, 2, 67, 55
2, 75948, Control_c, 2, 64, 0
2, 75952, Note_on_c, 2, 64, 0
2, 75952, Note_on_c, 2, 41, 0
2, 75956, Note_on_c, 2, 67, 0
2, 75960, Note_on_c, 2, 53, 50
2, 75967, Control_c, 2, 64, 127
2, 75975, Note_on_c, 2, 64, 56
2, 75975, Note_on_c, 2, 67, 57
2, 75982, Note_on_c, 2, 52, 54
2, 75998, Note_on_c, 2, 64, 0
2, 75998, Note_on_c, 2, 53, 0
2, 76002, Note_on_c, 2, 67, 0
2, 76002, Note_on_c, 2, 52, 0
2, 76006, Note_on_c, 2, 53, 55
2, 76017, Note_on_c, 2, 53, 0
2, 76017, Note_on_c, 2, 41, 39
2, 76036, Note_on_c, 2, 41, 0
2, 76040, Note_on_c, 2, 53, 68
2, 76059, Note_on_c, 2, 52, 57
2, 76060, Note_on_c, 2, 70, 48
2, 76063, Note_on_c, 2, 53, 0
2, 76063, Note_on_c, 2, 67, 40
2, 76075, Note_on_c, 2, 67, 0
2, 76079, Note_on_c, 2, 70, 0
2, 76079, Note_on_c, 2, 52, 0
2, 76086, Note_on_c, 2, 53, 17
2, 76091, Note_on_c, 2, 53, 0
2, 76094, Note_on_c, 2, 41, 55
2, 76098, Note_on_c, 2, 65, 56
2, 76098, Note_on_c, 2, 69, 56
2, 76102, Control_c, 2, 64, 0
2, 76113, Note_on_c, 2, 41, 0
2, 76114, Note_on_c, 2, 69, 0
2, 76114, Note_on_c, 2, 65, 0
2, 76117, Note_on_c, 2, 53, 62
2, 76121, Control_c, 2, 64, 127
2, 76140, Note_on_c, 2, 53, 0
2, 76140, Note_on_c, 2, 52, 55
2, 76141, Note_on_c, 2, 65, 48
2, 76141, Note_on_c, 2, 69, 51
2, 76152, Note_on_c, 2, 65, 0
2, 76156, Note_on_c, 2, 69, 0
2, 76160, Note_on_c, 2, 52, 0
2, 76164, Note_on_c, 2, 53, 49
2, 76179, Note_on_c, 2, 53, 0
2, 76179, Note_on_c, 2, 41, 48
2, 76198, Note_on_c, 2, 41, 0
2, 76198, Note_on_c, 2, 53, 50
2, 76218, Note_on_c, 2, 77, 49
2, 76222, Note_on_c, 2, 52, 52
2, 76222, Note_on_c, 2, 81, 46
2, 76224, Note_on_c, 2, 53, 0
2, 76236, Note_on_c, 2, 77, 0
2, 76236, Note_on_c, 2, 81, 0
2, 76240, Note_on_c, 2, 52, 0
2, 76252, Note_on_c, 2, 41, 60
2, 76259, Note_on_c, 2, 79, 59
2, 76260, Note_on_c, 2, 76, 46
2, 76267, Control_c, 2, 64, 0
2, 76271, Note_on_c, 2, 76, 0
2, 76271, Note_on_c, 2, 79, 0
2, 76275, Note_on_c, 2, 41, 0
2, 76278, Note_on_c, 2, 53, 56
2, 76287, Control_c, 2, 64, 127
2, 76294, Note_on_c, 2, 76, 56
2, 76294, Note_on_c, 2, 79, 65
2, 76298, Note_on_c, 2, 52, 56
2, 76302, Note_on_c, 2, 53, 0
2, 76317, Note_on_c, 2, 76, 0
2, 76321, Note_on_c, 2, 79, 0
2, 76321, Note_on_c, 2, 53, 45
2, 76325, Note_on_c, 2, 52, 0
2, 76340, Note_on_c, 2, 53, 0
2, 76340, Note_on_c, 2, 41, 62
2, 76360, Note_on_c, 2, 41, 0
2, 76368, Note_on_c, 2, 53, 36
2, 76390, Note_on_c, 2, 52, 60
2, 76390, Note_on_c, 2, 76, 48
2, 76394, Note_on_c, 2, 53, 0
2, 76394, Note_on_c, 2, 82, 42
2, 76394, Note_on_c, 2, 79, 40
2, 76402, Note_on_c, 2, 52, 0
2, 76406, Note_on_c, 2, 79, 0
2, 76409, Note_on_c, 2, 82, 0
2, 76409, Note_on_c, 2, 76, 0
2, 76452, Control_c, 2, 64, 0
2, 76456, Note_on_c, 2, 82, 79
2, 76456, Note_on_c, 2, 41, 56
2, 76456, Note_on_c, 2, 53, 68
2, 76456, Note_on_c, 2, 76, 65
2, 76456, Note_on_c, 2, 79, 83
2, 76502, Control_c, 2, 64, 127
2, 76625, Note_on_c, 2, 79, 0
2, 76625, Note_on_c, 2, 82, 0
2, 76668, Note_on_c, 2, 76, 0
2, 76794, Note_on_c, 2, 77, 40
2, 76794, Note_on_c, 2, 81, 40
2, 76987, Note_on_c, 2, 77, 0
2, 76995, Note_on_c, 2, 81, 0
2, 76995, Note_on_c, 2, 53, 0
2, 77002, Note_on_c, 2, 41, 0
2, 77468, Control_c, 2, 64, 0
2, 77468, End_track
0, 0, End_of_file
