0, 0, Header, 1, 3, 120
1, 0, Start_track
1, 0, Time_signature, 3, 3, 12, 8
1, 0, Key_signature, -3, "major"
1, 0, Tempo, 600000
1, 0, End_track
2, 0, Start_track
2, 0, MIDI_port, 0
2, 0, Title_t, "Mozart Sonata K281 in Bb"
2, 0, Program_c, 0, 0
2, 300, Note_on_c, 0, 39, 80
2, 300, Note_on_c, 0, 51, 80
2, 329, Control_c, 0, 0, 0
2, 329, Control_c, 0, 32, 0
2, 329, Program_c, 0, 0
2, 330, Control_c, 0, 7, 127
2, 330, Pitch_bend_c, 0, 8192
2, 332, Control_c, 0, 1, 0
2, 332, Control_c, 0, 64, 0
2, 422, Control_c, 0, 64, 127
2, 480, Note_on_c, 0, 79, 46
2, 480, Note_on_c, 0, 82, 42
2, 526, Control_c, 0, 64, 0
2, 540, Note_on_c, 0, 51, 0
2, 540, Note_on_c, 0, 39, 0
2, 622, Note_on_c, 0, 77, 40
2, 622, Note_on_c, 0, 80, 40
2, 630, Note_on_c, 0, 79, 0
2, 634, Note_on_c, 0, 82, 0
2, 664, Control_c, 0, 64, 127
2, 688, Note_on_c, 0, 80, 0
2, 696, Note_on_c, 0, 77, 0
2, 768, Note_on_c, 0, 75, 36
2, 768, Note_on_c, 0, 79, 35
2, 784, Control_c, 0, 64, 0
2, 822, Control_c, 0, 64, 127
2, 860, Note_on_c, 0, 79, 0
2, 868, Note_on_c, 0, 75, 0
2, 905, Note_on_c, 0, 74, 40
2, 905, Note_on_c, 0, 77, 48
2, 922, Control_c, 0, 64, 0
2, 968, Control_c, 0, 64, 127
2, 993, Note_on_c, 0, 77, 0
2, 993, Note_on_c, 0, 74, 0
2, 1052, Note_on_c, 0, 72, 33
2, 1052, Note_on_c, 0, 75, 36
2, 1064, Control_c, 0, 64, 0
2, 1093, Control_c, 0, 64, 127
2, 1118, Note_on_c, 0, 75, 0
2, 1122, Note_on_c, 0, 72, 0
2, 1197, Note_on_c, 0, 70, 32
2, 1197, Note_on_c, 0, 74, 32
2, 1214, Control_c, 0, 64, 0
2, 1252, Control_c, 0, 64, 127
2, 1280, Note_on_c, 0, 74, 0
2, 1280, Note_on_c, 0, 70, 0
2, 1356, Note_on_c, 0, 72, 25
2, 1356, Note_on_c, 0, 68, 22
2, 1422, Note_on_c, 0, 68, 0
2, 1435, Note_on_c, 0, 72, 0
2, 1502, Control_c, 0, 64, 0
2, 1506, Note_on_c, 0, 70, 36
2, 1506, Note_on_c, 0, 67, 32
2, 1506, Note_on_c, 0, 63, 16
2, 1506, Note_on_c, 0, 51, 21
2, 1547, Control_c, 0, 64, 127
2, 1576, Note_on_c, 0, 63, 0
2, 1580, Note_on_c, 0, 51, 0
2, 1598, Note_on_c, 0, 67, 0
2, 1620, Note_on_c, 0, 70, 0
2, 1639, Note_on_c, 0, 65, 38
2, 1639, Note_on_c, 0, 62, 35
2, 1639, Note_on_c, 0, 50, 29
2, 1656, Control_c, 0, 64, 0
2, 1689, Control_c, 0, 64, 127
2, 1710, Note_on_c, 0, 62, 0
2, 1714, Note_on_c, 0, 50, 0
2, 1718, Note_on_c, 0, 65, 0
2, 1777, Note_on_c, 0, 63, 54
2, 1777, Note_on_c, 0, 48, 44
2, 1777, Note_on_c, 0, 60, 45
2, 1789, Control_c, 0, 64, 0
2, 1814, Control_c, 0, 64, 127
2, 1826, Note_on_c, 0, 60, 0
2, 1839, Note_on_c, 0, 48, 0
2, 1848, Note_on_c, 0, 63, 0
2, 1918, Note_on_c, 0, 70, 52
2, 1918, Note_on_c, 0, 62, 48
2, 1918, Note_on_c, 0, 46, 48
2, 1918, Note_on_c, 0, 58, 46
2, 1943, Control_c, 0, 64, 0
2, 1977, Control_c, 0, 64, 127
2, 2013, Note_on_c, 0, 58, 0
2, 2017, Note_on_c, 0, 46, 0
2, 2051, Note_on_c, 0, 44, 66
2, 2051, Note_on_c, 0, 56, 59
2, 2089, Note_on_c, 0, 62, 0
2, 2121, Note_on_c, 0, 44, 0
2, 2130, Note_on_c, 0, 70, 0
2, 2130, Note_on_c, 0, 56, 0
2, 2198, Note_on_c, 0, 43, 53
2, 2198, Note_on_c, 0, 55, 41
2, 2198, Note_on_c, 0, 63, 38
2, 2198, Note_on_c, 0, 72, 55
2, 2210, Control_c, 0, 64, 0
2, 2256, Control_c, 0, 64, 127
2, 2281, Note_on_c, 0, 72, 0
2, 2281, Note_on_c, 0, 63, 0
2, 2286, Note_on_c, 0, 55, 0
2, 2289, Note_on_c, 0, 43, 0
2, 2364, Note_on_c, 0, 74, 32
2, 2364, Note_on_c, 0, 65, 24
2, 2364, Note_on_c, 0, 53, 24
2, 2364, Note_on_c, 0, 41, 26
2, 2376, Control_c, 0, 64, 0
2, 2410, Control_c, 0, 64, 127
2, 2439, Note_on_c, 0, 53, 0
2, 2443, Note_on_c, 0, 65, 0
2, 2448, Note_on_c, 0, 74, 0
2, 2451, Note_on_c, 0, 41, 0
2, 2578, Note_on_c, 0, 39, 19
2, 2578, Note_on_c, 0, 51, 13
2, 2578, Note_on_c, 0, 67, 16
2, 2578, Note_on_c, 0, 75, 22
2, 2578, Control_c, 0, 64, 0
2, 2614, Control_c, 0, 64, 127
2, 2624, Note_on_c, 0, 39, 0
2, 2641, Note_on_c, 0, 51, 0
2, 2722, Note_on_c, 0, 60, 35
2, 2722, Note_on_c, 0, 63, 23
2, 2739, Note_on_c, 0, 60, 0
2, 2743, Note_on_c, 0, 63, 0
2, 2765, Note_on_c, 0, 67, 0
2, 2768, Note_on_c, 0, 75, 0
2, 2864, Note_on_c, 0, 60, 28
2, 2864, Note_on_c, 0, 72, 38
2, 2864, Note_on_c, 0, 56, 36
2, 2885, Control_c, 0, 64, 0
2, 2990, Note_on_c, 0, 60, 0
2, 3002, Note_on_c, 0, 55, 18
2, 3002, Note_on_c, 0, 58, 36
2, 3002, Note_on_c, 0, 70, 36
2, 3006, Note_on_c, 0, 56, 0
2, 3014, Note_on_c, 0, 72, 0
2, 3098, Control_c, 0, 64, 127
2, 3135, Note_on_c, 0, 55, 0
2, 3135, Note_on_c, 0, 60, 41
2, 3157, Note_on_c, 0, 58, 0
2, 3164, Note_on_c, 0, 60, 0
2, 3214, Note_on_c, 0, 70, 0
2, 3276, Note_on_c, 0, 62, 54
2, 3277, Control_c, 0, 64, 0
2, 3281, Note_on_c, 0, 70, 60
2, 3302, Note_on_c, 0, 70, 0
2, 3302, Note_on_c, 0, 68, 52
2, 3314, Note_on_c, 0, 68, 0
2, 3314, Control_c, 0, 64, 127
2, 3314, Note_on_c, 0, 70, 46
2, 3335, Note_on_c, 0, 70, 0
2, 3335, Note_on_c, 0, 68, 35
2, 3352, Note_on_c, 0, 70, 46
2, 3356, Note_on_c, 0, 68, 0
2, 3373, Note_on_c, 0, 70, 0
2, 3375, Note_on_c, 0, 68, 46
2, 3396, Note_on_c, 0, 68, 0
2, 3398, Note_on_c, 0, 70, 40
2, 3419, Note_on_c, 0, 68, 51
2, 3427, Note_on_c, 0, 70, 0
2, 3431, Note_on_c, 0, 62, 0
2, 3439, Note_on_c, 0, 63, 35
2, 3439, Note_on_c, 0, 67, 50
2, 3443, Note_on_c, 0, 68, 0
2, 3448, Control_c, 0, 64, 0
2, 3577, Note_on_c, 0, 74, 40
2, 3577, Note_on_c, 0, 51, 17
2, 3644, Control_c, 0, 64, 127
2, 3723, Note_on_c, 0, 75, 45
2, 3727, Note_on_c, 0, 51, 0
2, 3727, Note_on_c, 0, 74, 0
2, 3744, Note_on_c, 0, 67, 0
2, 3760, Note_on_c, 0, 63, 0
2, 3760, Note_on_c, 0, 75, 0
2, 3835, Note_on_c, 0, 55, 45
2, 3860, Note_on_c, 0, 58, 45
2, 3873, Note_on_c, 0, 63, 37
2, 3877, Control_c, 0, 64, 0
2, 4014, Note_on_c, 0, 82, 43
2, 4027, Control_c, 0, 64, 127
2, 4156, Note_on_c, 0, 79, 42
2, 4164, Note_on_c, 0, 82, 0
2, 4164, Note_on_c, 0, 58, 0
2, 4164, Note_on_c, 0, 55, 0
2, 4169, Note_on_c, 0, 63, 0
2, 4256, Note_on_c, 0, 56, 41
2, 4272, Note_on_c, 0, 60, 47
2, 4289, Control_c, 0, 64, 0
2, 4298, Note_on_c, 0, 65, 45
2, 4356, Note_on_c, 0, 79, 0
2, 4360, Note_on_c, 0, 77, 63
2, 4373, Control_c, 0, 64, 127
2, 4422, Note_on_c, 0, 79, 66
2, 4439, Note_on_c, 0, 77, 0
2, 4490, Note_on_c, 0, 80, 63
2, 4498, Note_on_c, 0, 79, 0
2, 4506, Note_on_c, 0, 60, 0
2, 4510, Note_on_c, 0, 56, 0
2, 4514, Note_on_c, 0, 65, 0
2, 4548, Note_on_c, 0, 82, 57
2, 4556, Note_on_c, 0, 80, 0
2, 4615, Note_on_c, 0, 84, 59
2, 4623, Note_on_c, 0, 82, 0
2, 4644, Note_on_c, 0, 58, 47
2, 4656, Note_on_c, 0, 62, 60
2, 4661, Control_c, 0, 64, 0
2, 4673, Note_on_c, 0, 65, 47
2, 4686, Note_on_c, 0, 68, 76
2, 4815, Note_on_c, 0, 82, 62
2, 4823, Note_on_c, 0, 84, 0
2, 4881, Note_on_c, 0, 80, 53
2, 4894, Control_c, 0, 64, 127
2, 4898, Note_on_c, 0, 82, 0
2, 4944, Note_on_c, 0, 79, 42
2, 4948, Note_on_c, 0, 80, 0
2, 5006, Note_on_c, 0, 68, 0
2, 5010, Note_on_c, 0, 79, 0
2, 5010, Note_on_c, 0, 77, 44
2, 5019, Note_on_c, 0, 62, 0
2, 5019, Note_on_c, 0, 65, 0
2, 5027, Note_on_c, 0, 58, 0
2, 5082, Note_on_c, 0, 74, 45
2, 5090, Note_on_c, 0, 77, 0
2, 5139, Note_on_c, 0, 74, 0
2, 5140, Note_on_c, 0, 51, 42
2, 5140, Note_on_c, 0, 63, 37
2, 5140, Note_on_c, 0, 75, 49
2, 5156, Control_c, 0, 64, 0
2, 5182, Note_on_c, 0, 70, 37
2, 5219, Note_on_c, 0, 70, 0
2, 5219, Note_on_c, 0, 67, 54
2, 5231, Control_c, 0, 64, 127
2, 5252, Note_on_c, 0, 67, 0
2, 5260, Note_on_c, 0, 70, 35
2, 5270, Note_on_c, 0, 63, 0
2, 5281, Note_on_c, 0, 75, 0
2, 5290, Note_on_c, 0, 51, 0
2, 5298, Note_on_c, 0, 70, 0
2, 5298, Note_on_c, 0, 67, 55
2, 5323, Note_on_c, 0, 67, 0
2, 5340, Note_on_c, 0, 63, 53
2, 5378, Note_on_c, 0, 63, 0
2, 5378, Note_on_c, 0, 62, 52
2, 5378, Note_on_c, 0, 46, 45
2, 5379, Note_on_c, 0, 58, 38
2, 5382, Control_c, 0, 64, 0
2, 5419, Control_c, 0, 64, 127
2, 5419, Note_on_c, 0, 65, 45
2, 5423, Note_on_c, 0, 58, 0
2, 5427, Note_on_c, 0, 62, 0
2, 5435, Note_on_c, 0, 46, 0
2, 5456, Note_on_c, 0, 68, 41
2, 5461, Note_on_c, 0, 65, 0
2, 5494, Note_on_c, 0, 68, 0
2, 5494, Note_on_c, 0, 51, 45
2, 5494, Note_on_c, 0, 39, 45
2, 5494, Note_on_c, 0, 67, 47
2, 5507, Control_c, 0, 64, 0
2, 5540, Note_on_c, 0, 70, 45
2, 5544, Note_on_c, 0, 67, 0
2, 5544, Control_c, 0, 64, 127
2, 5548, Note_on_c, 0, 39, 0
2, 5556, Note_on_c, 0, 51, 0
2, 5573, Note_on_c, 0, 70, 0
2, 5573, Note_on_c, 0, 67, 55
2, 5610, Note_on_c, 0, 43, 41
2, 5610, Note_on_c, 0, 55, 40
2, 5610, Note_on_c, 0, 75, 45
2, 5619, Control_c, 0, 64, 0
2, 5636, Note_on_c, 0, 67, 0
2, 5652, Control_c, 0, 64, 127
2, 5661, Note_on_c, 0, 70, 36
2, 5664, Note_on_c, 0, 43, 0
2, 5673, Note_on_c, 0, 75, 0
2, 5678, Note_on_c, 0, 55, 0
2, 5690, Note_on_c, 0, 70, 0
2, 5690, Note_on_c, 0, 67, 53
2, 5728, Note_on_c, 0, 58, 31
2, 5732, Note_on_c, 0, 67, 0
2, 5732, Note_on_c, 0, 46, 34
2, 5732, Note_on_c, 0, 68, 40
2, 5736, Control_c, 0, 64, 0
2, 5765, Control_c, 0, 64, 127
2, 5773, Note_on_c, 0, 65, 46
2, 5782, Note_on_c, 0, 68, 0
2, 5782, Note_on_c, 0, 58, 0
2, 5798, Note_on_c, 0, 46, 0
2, 5811, Note_on_c, 0, 65, 0
2, 5815, Note_on_c, 0, 62, 35
2, 5857, Note_on_c, 0, 51, 36
2, 5857, Note_on_c, 0, 39, 40
2, 5858, Note_on_c, 0, 63, 48
2, 5858, Control_c, 0, 64, 0
2, 5860, Note_on_c, 0, 62, 0
2, 5923, Control_c, 0, 64, 127
2, 5948, Note_on_c, 0, 39, 0
2, 5952, Note_on_c, 0, 63, 0
2, 5961, Note_on_c, 0, 51, 0
2, 6111, Control_c, 0, 64, 0
2, 6123, Note_on_c, 0, 51, 32
2, 6123, Note_on_c, 0, 55, 29
2, 6123, Note_on_c, 0, 63, 33
2, 6123, Note_on_c, 0, 58, 35
2, 6143, Note_on_c, 0, 58, 0
2, 6143, Note_on_c, 0, 51, 0
2, 6143, Note_on_c, 0, 55, 0
2, 6143, Note_on_c, 0, 63, 0
2, 6265, Note_on_c, 0, 51, 24
2, 6265, Note_on_c, 0, 55, 14
2, 6265, Note_on_c, 0, 58, 26
2, 6265, Note_on_c, 0, 63, 28
2, 6315, Control_c, 0, 64, 127
2, 6348, Note_on_c, 0, 58, 0
2, 6357, Note_on_c, 0, 51, 0
2, 6360, Note_on_c, 0, 55, 0
2, 6373, Note_on_c, 0, 63, 0
2, 6649, Control_c, 0, 64, 0
2, 6715, Note_on_c, 0, 79, 39
2, 6715, Note_on_c, 0, 63, 36
2, 6790, Note_on_c, 0, 67, 40
2, 6790, Control_c, 0, 64, 127
2, 6853, Note_on_c, 0, 70, 28
2, 6861, Note_on_c, 0, 67, 0
2, 6882, Note_on_c, 0, 80, 35
2, 6886, Note_on_c, 0, 79, 0
2, 6919, Note_on_c, 0, 70, 0
2, 6919, Note_on_c, 0, 67, 35
2, 6919, Note_on_c, 0, 79, 45
2, 6936, Note_on_c, 0, 80, 0
2, 6948, Note_on_c, 0, 77, 52
2, 6953, Note_on_c, 0, 79, 0
2, 6986, Note_on_c, 0, 67, 0
2, 6986, Note_on_c, 0, 70, 30
2, 6986, Note_on_c, 0, 75, 65
2, 6994, Note_on_c, 0, 77, 0
2, 7049, Note_on_c, 0, 67, 41
2, 7052, Note_on_c, 0, 63, 0
2, 7061, Note_on_c, 0, 70, 0
2, 7115, Note_on_c, 0, 67, 0
2, 7119, Note_on_c, 0, 63, 31
2, 7136, Note_on_c, 0, 75, 0
2, 7182, Note_on_c, 0, 67, 41
2, 7244, Note_on_c, 0, 67, 0
2, 7253, Note_on_c, 0, 81, 48
2, 7253, Note_on_c, 0, 70, 25
2, 7307, Note_on_c, 0, 63, 0
2, 7311, Note_on_c, 0, 67, 35
2, 7320, Note_on_c, 0, 82, 42
2, 7328, Note_on_c, 0, 81, 0
2, 7332, Note_on_c, 0, 70, 0
2, 7382, Note_on_c, 0, 67, 0
2, 7386, Note_on_c, 0, 63, 39
2, 7386, Note_on_c, 0, 81, 45
2, 7390, Note_on_c, 0, 82, 0
2, 7448, Note_on_c, 0, 67, 35
2, 7448, Note_on_c, 0, 82, 41
2, 7449, Note_on_c, 0, 63, 0
2, 7461, Note_on_c, 0, 81, 0
2, 7510, Note_on_c, 0, 67, 0
2, 7516, Note_on_c, 0, 62, 45
2, 7516, Note_on_c, 0, 77, 42
2, 7519, Note_on_c, 0, 82, 0
2, 7540, Control_c, 0, 64, 0
2, 7595, Note_on_c, 0, 65, 35
2, 7640, Control_c, 0, 64, 127
2, 7678, Note_on_c, 0, 70, 31
2, 7691, Note_on_c, 0, 65, 0
2, 7703, Note_on_c, 0, 79, 49
2, 7707, Note_on_c, 0, 77, 0
2, 7737, Note_on_c, 0, 77, 47
2, 7740, Note_on_c, 0, 65, 41
2, 7745, Note_on_c, 0, 70, 0
2, 7753, Note_on_c, 0, 79, 0
2, 7765, Note_on_c, 0, 75, 65
2, 7774, Note_on_c, 0, 77, 0
2, 7798, Note_on_c, 0, 75, 0
2, 7799, Note_on_c, 0, 74, 68
2, 7799, Note_on_c, 0, 70, 36
2, 7803, Note_on_c, 0, 65, 0
2, 7861, Note_on_c, 0, 62, 0
2, 7866, Note_on_c, 0, 65, 36
2, 7916, Note_on_c, 0, 70, 0
2, 7924, Note_on_c, 0, 65, 0
2, 7932, Note_on_c, 0, 62, 45
2, 7941, Control_c, 0, 64, 0
2, 7987, Control_c, 0, 64, 127
2, 7995, Note_on_c, 0, 65, 39
2, 8058, Note_on_c, 0, 74, 0
2, 8062, Note_on_c, 0, 65, 0
2, 8066, Note_on_c, 0, 70, 28
2, 8066, Note_on_c, 0, 81, 39
2, 8128, Note_on_c, 0, 62, 0
2, 8128, Note_on_c, 0, 65, 40
2, 8128, Note_on_c, 0, 82, 40
2, 8140, Note_on_c, 0, 81, 0
2, 8153, Note_on_c, 0, 70, 0
2, 8195, Note_on_c, 0, 65, 0
2, 8203, Note_on_c, 0, 62, 28
2, 8203, Note_on_c, 0, 81, 47
2, 8207, Note_on_c, 0, 82, 0
2, 8270, Note_on_c, 0, 62, 0
2, 8270, Note_on_c, 0, 65, 26
2, 8270, Note_on_c, 0, 82, 35
2, 8278, Note_on_c, 0, 81, 0
2, 8307, Note_on_c, 0, 82, 0
2, 8341, Note_on_c, 0, 65, 0
2, 8349, Note_on_c, 0, 60, 39
2, 8349, Note_on_c, 0, 82, 40
2, 8391, Control_c, 0, 64, 0
2, 8424, Note_on_c, 0, 63, 25
2, 8428, Note_on_c, 0, 81, 42
2, 8440, Note_on_c, 0, 82, 0
2, 8490, Note_on_c, 0, 81, 0
2, 8491, Note_on_c, 0, 65, 32
2, 8495, Note_on_c, 0, 63, 0
2, 8495, Note_on_c, 0, 84, 39
2, 8508, Control_c, 0, 64, 127
2, 8557, Note_on_c, 0, 63, 28
2, 8557, Note_on_c, 0, 81, 34
2, 8561, Note_on_c, 0, 84, 0
2, 8566, Note_on_c, 0, 65, 0
2, 8569, Note_on_c, 0, 60, 0
2, 8570, Note_on_c, 0, 63, 0
2, 8628, Note_on_c, 0, 81, 0
2, 8628, Note_on_c, 0, 77, 36
2, 8628, Note_on_c, 0, 57, 31
2, 8649, Control_c, 0, 64, 0
2, 8695, Note_on_c, 0, 60, 39
2, 8695, Note_on_c, 0, 75, 40
2, 8695, Control_c, 0, 64, 127
2, 8704, Note_on_c, 0, 57, 0
2, 8707, Note_on_c, 0, 77, 0
2, 8761, Note_on_c, 0, 60, 0
2, 8761, Note_on_c, 0, 58, 39
2, 8761, Note_on_c, 0, 74, 49
2, 8770, Note_on_c, 0, 75, 0
2, 8787, Control_c, 0, 64, 0
2, 8828, Note_on_c, 0, 62, 46
2, 8849, Control_c, 0, 64, 127
2, 8891, Note_on_c, 0, 62, 0
2, 8891, Note_on_c, 0, 65, 40
2, 8958, Note_on_c, 0, 62, 36
2, 8962, Note_on_c, 0, 58, 0
2, 9024, Note_on_c, 0, 65, 0
2, 9032, Note_on_c, 0, 62, 0
2, 9036, Note_on_c, 0, 58, 37
2, 9037, Note_on_c, 0, 82, 59
2, 9061, Note_on_c, 0, 74, 0
2, 9124, Note_on_c, 0, 62, 35
2, 9132, Note_on_c, 0, 58, 0
2, 9157, Note_on_c, 0, 82, 0
2, 9224, Note_on_c, 0, 62, 0
2, 9228, Note_on_c, 0, 82, 42
2, 9228, Note_on_c, 0, 60, 32
2, 9249, Control_c, 0, 64, 0
2, 9342, Note_on_c, 0, 81, 45
2, 9342, Note_on_c, 0, 63, 28
2, 9349, Note_on_c, 0, 82, 0
2, 9403, Control_c, 0, 64, 127
2, 9412, Note_on_c, 0, 81, 0
2, 9412, Note_on_c, 0, 65, 36
2, 9412, Note_on_c, 0, 84, 48
2, 9420, Note_on_c, 0, 63, 0
2, 9478, Note_on_c, 0, 84, 0
2, 9479, Note_on_c, 0, 63, 35
2, 9479, Note_on_c, 0, 81, 38
2, 9482, Note_on_c, 0, 65, 0
2, 9486, Note_on_c, 0, 60, 0
2, 9495, Note_on_c, 0, 63, 0
2, 9541, Note_on_c, 0, 57, 38
2, 9545, Note_on_c, 0, 81, 0
2, 9545, Note_on_c, 0, 77, 31
2, 9562, Control_c, 0, 64, 0
2, 9607, Note_on_c, 0, 75, 45
2, 9612, Control_c, 0, 64, 127
2, 9616, Note_on_c, 0, 60, 32
2, 9620, Note_on_c, 0, 77, 0
2, 9620, Note_on_c, 0, 57, 0
2, 9678, Note_on_c, 0, 58, 36
2, 9679, Note_on_c, 0, 74, 52
2, 9682, Note_on_c, 0, 75, 0
2, 9683, Note_on_c, 0, 60, 0
2, 9700, Control_c, 0, 64, 0
2, 9745, Note_on_c, 0, 62, 46
2, 9775, Control_c, 0, 64, 127
2, 9804, Note_on_c, 0, 62, 0
2, 9808, Note_on_c, 0, 65, 41
2, 9875, Note_on_c, 0, 58, 0
2, 9875, Note_on_c, 0, 62, 40
2, 9883, Note_on_c, 0, 65, 0
2, 9886, Note_on_c, 0, 74, 0
2, 9950, Note_on_c, 0, 62, 0
2, 9950, Note_on_c, 0, 74, 46
2, 9950, Note_on_c, 0, 58, 43
2, 10029, Note_on_c, 0, 62, 53
2, 10041, Note_on_c, 0, 58, 0
2, 10045, Note_on_c, 0, 62, 0
2, 10124, Note_on_c, 0, 74, 0
2, 10124, Note_on_c, 0, 51, 40
2, 10124, Note_on_c, 0, 71, 40
2, 10133, Control_c, 0, 64, 0
2, 10208, Note_on_c, 0, 55, 41
2, 10208, Note_on_c, 0, 72, 55
2, 10220, Note_on_c, 0, 71, 0
2, 10270, Control_c, 0, 64, 127
2, 10275, Note_on_c, 0, 55, 0
2, 10279, Note_on_c, 0, 60, 42
2, 10341, Note_on_c, 0, 55, 41
2, 10345, Note_on_c, 0, 51, 0
2, 10349, Note_on_c, 0, 60, 0
2, 10403, Note_on_c, 0, 55, 0
2, 10412, Note_on_c, 0, 74, 65
2, 10412, Note_on_c, 0, 51, 34
2, 10424, Note_on_c, 0, 72, 0
2, 10432, Control_c, 0, 64, 0
2, 10478, Note_on_c, 0, 75, 66
2, 10478, Note_on_c, 0, 55, 48
2, 10491, Note_on_c, 0, 74, 0
2, 10529, Control_c, 0, 64, 127
2, 10541, Note_on_c, 0, 55, 0
2, 10549, Note_on_c, 0, 60, 65
2, 10608, Note_on_c, 0, 51, 0
2, 10612, Note_on_c, 0, 55, 46
2, 10637, Note_on_c, 0, 60, 0
2, 10683, Note_on_c, 0, 55, 0
2, 10687, Note_on_c, 0, 78, 51
2, 10687, Note_on_c, 0, 51, 59
2, 10694, Note_on_c, 0, 75, 0
2, 10716, Control_c, 0, 64, 0
2, 10770, Note_on_c, 0, 55, 39
2, 10771, Note_on_c, 0, 79, 56
2, 10778, Note_on_c, 0, 78, 0
2, 10870, Note_on_c, 0, 60, 54
2, 11000, Note_on_c, 0, 77, 36
2, 11012, Note_on_c, 0, 79, 0
2, 11012, Control_c, 0, 64, 127
2, 11029, Note_on_c, 0, 55, 0
2, 11037, Note_on_c, 0, 51, 0
2, 11037, Note_on_c, 0, 75, 29
2, 11041, Note_on_c, 0, 77, 0
2, 11054, Note_on_c, 0, 60, 0
2, 11066, Note_on_c, 0, 74, 41
2, 11083, Note_on_c, 0, 75, 0
2, 11104, Note_on_c, 0, 74, 0
2, 11104, Note_on_c, 0, 72, 31
2, 11158, Note_on_c, 0, 53, 37
2, 11158, Note_on_c, 0, 62, 30
2, 11158, Note_on_c, 0, 70, 40
2, 11166, Note_on_c, 0, 72, 0
2, 11174, Control_c, 0, 64, 0
2, 11216, Control_c, 0, 64, 127
2, 11329, Note_on_c, 0, 62, 0
2, 11504, Note_on_c, 0, 69, 28
2, 11504, Note_on_c, 0, 60, 25
2, 11508, Control_c, 0, 64, 0
2, 11516, Note_on_c, 0, 70, 0
2, 11558, Control_c, 0, 64, 127
2, 11592, Note_on_c, 0, 60, 0
2, 11604, Note_on_c, 0, 53, 0
2, 11654, Control_c, 0, 64, 0
2, 11658, Note_on_c, 0, 39, 62
2, 11658, Note_on_c, 0, 51, 53
2, 11687, Control_c, 0, 64, 127
2, 11707, Note_on_c, 0, 51, 0
2, 11707, Note_on_c, 0, 39, 0
2, 11792, Note_on_c, 0, 38, 59
2, 11792, Note_on_c, 0, 50, 54
2, 11799, Control_c, 0, 64, 0
2, 11829, Control_c, 0, 64, 127
2, 11857, Note_on_c, 0, 50, 0
2, 11857, Note_on_c, 0, 38, 0
2, 11908, Control_c, 0, 64, 0
2, 11929, Control_c, 0, 64, 127
2, 11933, Note_on_c, 0, 36, 54
2, 11933, Note_on_c, 0, 48, 45
2, 11988, Note_on_c, 0, 48, 0
2, 11992, Note_on_c, 0, 36, 0
2, 12029, Note_on_c, 0, 69, 0
2, 12070, Control_c, 0, 64, 0
2, 12071, Note_on_c, 0, 46, 47
2, 12074, Note_on_c, 0, 34, 57
2, 12096, Control_c, 0, 64, 127
2, 12111, Note_on_c, 0, 46, 0
2, 12114, Note_on_c, 0, 34, 0
2, 12212, Note_on_c, 0, 62, 40
2, 12212, Note_on_c, 0, 77, 40
2, 12233, Control_c, 0, 64, 0
2, 12237, Note_on_c, 0, 77, 0
2, 12237, Note_on_c, 0, 62, 0
2, 12250, Note_on_c, 0, 58, 40
2, 12250, Note_on_c, 0, 74, 40
2, 12275, Note_on_c, 0, 74, 0
2, 12275, Note_on_c, 0, 58, 0
2, 12291, Note_on_c, 0, 60, 40
2, 12291, Note_on_c, 0, 75, 40
2, 12316, Note_on_c, 0, 75, 0
2, 12316, Note_on_c, 0, 60, 0
2, 12333, Note_on_c, 0, 62, 40
2, 12333, Note_on_c, 0, 77, 40
2, 12358, Note_on_c, 0, 77, 0
2, 12358, Note_on_c, 0, 62, 0
2, 12370, Note_on_c, 0, 58, 40
2, 12370, Note_on_c, 0, 74, 40
2, 12395, Note_on_c, 0, 74, 0
2, 12395, Note_on_c, 0, 58, 0
2, 12408, Note_on_c, 0, 60, 40
2, 12408, Note_on_c, 0, 75, 40
2, 12433, Note_on_c, 0, 75, 0
2, 12433, Note_on_c, 0, 60, 0
2, 12458, Note_on_c, 0, 62, 40
2, 12458, Note_on_c, 0, 77, 40
2, 12478, Note_on_c, 0, 77, 0
2, 12478, Note_on_c, 0, 62, 0
2, 12604, Note_on_c, 0, 63, 30
2, 12604, Note_on_c, 0, 79, 30
2, 12746, Note_on_c, 0, 75, 32
2, 12746, Note_on_c, 0, 60, 25
2, 12758, Control_c, 0, 64, 127
2, 12762, Note_on_c, 0, 79, 0
2, 12762, Note_on_c, 0, 63, 0
2, 12791, Note_on_c, 0, 60, 0
2, 12892, Note_on_c, 0, 41, 60
2, 12892, Note_on_c, 0, 53, 60
2, 12921, Note_on_c, 0, 41, 0
2, 12929, Note_on_c, 0, 53, 0
2, 12971, Note_on_c, 0, 75, 0
2, 13046, Note_on_c, 0, 60, 46
2, 13046, Note_on_c, 0, 75, 38
2, 13058, Control_c, 0, 64, 0
2, 13086, Note_on_c, 0, 75, 0
2, 13086, Note_on_c, 0, 60, 0
2, 13092, Note_on_c, 0, 57, 23
2, 13092, Note_on_c, 0, 72, 41
2, 13132, Note_on_c, 0, 72, 0
2, 13132, Note_on_c, 0, 57, 0
2, 13134, Note_on_c, 0, 74, 46
2, 13134, Note_on_c, 0, 58, 40
2, 13164, Note_on_c, 0, 58, 0
2, 13168, Note_on_c, 0, 74, 0
2, 13175, Note_on_c, 0, 60, 45
2, 13175, Note_on_c, 0, 75, 42
2, 13213, Note_on_c, 0, 72, 45
2, 13213, Note_on_c, 0, 57, 43
2, 13215, Note_on_c, 0, 75, 0
2, 13215, Note_on_c, 0, 60, 0
2, 13253, Note_on_c, 0, 72, 0
2, 13253, Note_on_c, 0, 57, 0
2, 13254, Note_on_c, 0, 74, 46
2, 13254, Note_on_c, 0, 58, 39
2, 13282, Note_on_c, 0, 58, 0
2, 13294, Note_on_c, 0, 74, 0
2, 13296, Note_on_c, 0, 75, 45
2, 13296, Note_on_c, 0, 60, 42
2, 13336, Note_on_c, 0, 60, 0
2, 13336, Note_on_c, 0, 75, 0
2, 13446, Note_on_c, 0, 62, 28
2, 13446, Note_on_c, 0, 77, 28
2, 13604, Note_on_c, 0, 74, 25
2, 13604, Note_on_c, 0, 58, 23
2, 13609, Note_on_c, 0, 77, 0
2, 13617, Control_c, 0, 64, 127
2, 13630, Note_on_c, 0, 62, 0
2, 13666, Note_on_c, 0, 74, 0
2, 13666, Note_on_c, 0, 58, 0
2, 13776, Note_on_c, 0, 50, 28
2, 13776, Note_on_c, 0, 70, 29
2, 13792, Control_c, 0, 64, 0
2, 13825, Note_on_c, 0, 53, 35
2, 13862, Control_c, 0, 64, 127
2, 13880, Note_on_c, 0, 50, 0
2, 13883, Note_on_c, 0, 58, 33
2, 13925, Note_on_c, 0, 53, 0
2, 13934, Note_on_c, 0, 58, 0
2, 13942, Note_on_c, 0, 50, 28
2, 13942, Note_on_c, 0, 82, 46
2, 13996, Note_on_c, 0, 53, 40
2, 14017, Note_on_c, 0, 50, 0
2, 14034, Note_on_c, 0, 70, 0
2, 14046, Note_on_c, 0, 58, 37
2, 14058, Note_on_c, 0, 82, 0
2, 14092, Note_on_c, 0, 53, 0
2, 14092, Note_on_c, 0, 50, 47
2, 14096, Note_on_c, 0, 58, 0
2, 14101, Note_on_c, 0, 82, 65
2, 14155, Note_on_c, 0, 53, 45
2, 14176, Note_on_c, 0, 50, 0
2, 14213, Note_on_c, 0, 53, 0
2, 14213, Note_on_c, 0, 58, 36
2, 14288, Note_on_c, 0, 58, 0
2, 14288, Note_on_c, 0, 51, 33
2, 14301, Note_on_c, 0, 81, 68
2, 14304, Note_on_c, 0, 82, 0
2, 14342, Control_c, 0, 64, 0
2, 14343, Note_on_c, 0, 55, 49
2, 14380, Note_on_c, 0, 79, 59
2, 14392, Control_c, 0, 64, 127
2, 14396, Note_on_c, 0, 81, 0
2, 14417, Note_on_c, 0, 51, 0
2, 14422, Note_on_c, 0, 58, 36
2, 14459, Note_on_c, 0, 55, 0
2, 14467, Note_on_c, 0, 51, 40
2, 14471, Note_on_c, 0, 58, 0
2, 14471, Note_on_c, 0, 77, 60
2, 14479, Note_on_c, 0, 79, 0
2, 14521, Note_on_c, 0, 55, 45
2, 14558, Note_on_c, 0, 75, 72
2, 14563, Note_on_c, 0, 77, 0
2, 14592, Note_on_c, 0, 51, 0
2, 14596, Note_on_c, 0, 58, 41
2, 14642, Note_on_c, 0, 55, 0
2, 14646, Note_on_c, 0, 51, 40
2, 14650, Note_on_c, 0, 74, 53
2, 14654, Note_on_c, 0, 58, 0
2, 14655, Note_on_c, 0, 75, 0
2, 14705, Note_on_c, 0, 55, 39
2, 14708, Note_on_c, 0, 51, 0
2, 14759, Note_on_c, 0, 60, 40
2, 14759, Note_on_c, 0, 72, 54
2, 14763, Note_on_c, 0, 55, 0
2, 14767, Note_on_c, 0, 74, 0
2, 14780, Note_on_c, 0, 72, 0
2, 14805, Note_on_c, 0, 60, 0
2, 14817, Note_on_c, 0, 53, 48
2, 14817, Note_on_c, 0, 72, 66
2, 14859, Control_c, 0, 64, 0
2, 14871, Note_on_c, 0, 58, 36
2, 14901, Control_c, 0, 64, 127
2, 14922, Note_on_c, 0, 62, 40
2, 14925, Note_on_c, 0, 58, 0
2, 14954, Note_on_c, 0, 72, 0
2, 14959, Note_on_c, 0, 53, 40
2, 14959, Note_on_c, 0, 70, 55
2, 14967, Note_on_c, 0, 53, 0
2, 14974, Note_on_c, 0, 53, 0
2, 14975, Note_on_c, 0, 70, 0
2, 14984, Note_on_c, 0, 72, 44
2, 14992, Note_on_c, 0, 62, 0
2, 15000, Note_on_c, 0, 72, 0
2, 15001, Note_on_c, 0, 70, 45
2, 15013, Note_on_c, 0, 70, 0
2, 15021, Note_on_c, 0, 72, 42
2, 15030, Note_on_c, 0, 70, 40
2, 15030, Note_on_c, 0, 58, 39
2, 15038, Note_on_c, 0, 72, 0
2, 15045, Note_on_c, 0, 70, 0
2, 15045, Note_on_c, 0, 72, 39
2, 15055, Note_on_c, 0, 70, 46
2, 15060, Note_on_c, 0, 72, 0
2, 15076, Note_on_c, 0, 72, 45
2, 15088, Note_on_c, 0, 70, 0
2, 15090, Note_on_c, 0, 70, 45
2, 15090, Note_on_c, 0, 62, 40
2, 15096, Note_on_c, 0, 72, 0
2, 15100, Note_on_c, 0, 69, 55
2, 15105, Note_on_c, 0, 62, 0
2, 15117, Note_on_c, 0, 70, 42
2, 15140, Note_on_c, 0, 70, 0
2, 15147, Note_on_c, 0, 58, 0
2, 15158, Note_on_c, 0, 70, 0
2, 15163, Note_on_c, 0, 69, 0
2, 15163, Note_on_c, 0, 72, 57
2, 15163, Note_on_c, 0, 53, 45
2, 15204, Control_c, 0, 64, 0
2, 15215, Note_on_c, 0, 60, 46
2, 15260, Control_c, 0, 64, 127
2, 15263, Note_on_c, 0, 53, 0
2, 15267, Note_on_c, 0, 72, 0
2, 15270, Note_on_c, 0, 69, 53
2, 15270, Note_on_c, 0, 63, 45
2, 15319, Note_on_c, 0, 60, 0
2, 15320, Note_on_c, 0, 63, 0
2, 15320, Note_on_c, 0, 55, 52
2, 15320, Note_on_c, 0, 70, 70
2, 15332, Note_on_c, 0, 69, 0
2, 15338, Control_c, 0, 64, 0
2, 15372, Note_on_c, 0, 58, 37
2, 15417, Control_c, 0, 64, 127
2, 15422, Note_on_c, 0, 62, 43
2, 15424, Note_on_c, 0, 55, 0
2, 15480, Note_on_c, 0, 58, 0
2, 15480, Note_on_c, 0, 53, 51
2, 15484, Note_on_c, 0, 62, 0
2, 15509, Control_c, 0, 64, 0
2, 15530, Note_on_c, 0, 58, 45
2, 15559, Control_c, 0, 64, 127
2, 15580, Note_on_c, 0, 53, 0
2, 15588, Note_on_c, 0, 62, 45
2, 15600, Note_on_c, 0, 58, 0
2, 15642, Note_on_c, 0, 62, 0
2, 15642, Note_on_c, 0, 51, 45
2, 15680, Control_c, 0, 64, 0
2, 15697, Note_on_c, 0, 55, 40
2, 15730, Control_c, 0, 64, 127
2, 15751, Note_on_c, 0, 51, 0
2, 15751, Note_on_c, 0, 60, 44
2, 15768, Note_on_c, 0, 55, 0
2, 15775, Note_on_c, 0, 70, 0
2, 15801, Note_on_c, 0, 60, 0
2, 15809, Note_on_c, 0, 50, 56
2, 15810, Note_on_c, 0, 70, 42
2, 15830, Control_c, 0, 64, 0
2, 15872, Note_on_c, 0, 53, 48
2, 15872, Note_on_c, 0, 50, 11
2, 15885, Note_on_c, 0, 50, 0
2, 15909, Control_c, 0, 64, 127
2, 15930, Note_on_c, 0, 58, 51
2, 15940, Note_on_c, 0, 50, 0
2, 15972, Note_on_c, 0, 53, 0
2, 15988, Note_on_c, 0, 58, 0
2, 15988, Note_on_c, 0, 50, 50
2, 15988, Note_on_c, 0, 82, 52
2, 16051, Note_on_c, 0, 53, 42
2, 16068, Control_c, 0, 64, 0
2, 16092, Control_c, 0, 64, 127
2, 16105, Note_on_c, 0, 58, 42
2, 16134, Note_on_c, 0, 82, 0
2, 16136, Note_on_c, 0, 50, 0
2, 16155, Note_on_c, 0, 53, 0
2, 16159, Note_on_c, 0, 58, 0
2, 16168, Note_on_c, 0, 50, 43
2, 16168, Note_on_c, 0, 82, 53
2, 16222, Note_on_c, 0, 53, 54
2, 16251, Note_on_c, 0, 70, 0
2, 16284, Note_on_c, 0, 53, 0
2, 16288, Note_on_c, 0, 58, 41
2, 16306, Note_on_c, 0, 50, 0
2, 16355, Note_on_c, 0, 58, 0
2, 16372, Note_on_c, 0, 51, 31
2, 16380, Note_on_c, 0, 81, 54
2, 16384, Note_on_c, 0, 82, 0
2, 16413, Control_c, 0, 64, 0
2, 16430, Note_on_c, 0, 55, 40
2, 16464, Note_on_c, 0, 79, 59
2, 16472, Control_c, 0, 64, 127
2, 16480, Note_on_c, 0, 81, 0
2, 16505, Note_on_c, 0, 51, 0
2, 16509, Note_on_c, 0, 58, 38
2, 16551, Note_on_c, 0, 55, 0
2, 16555, Note_on_c, 0, 51, 32
2, 16559, Note_on_c, 0, 77, 66
2, 16564, Note_on_c, 0, 58, 0
2, 16572, Note_on_c, 0, 79, 0
2, 16614, Note_on_c, 0, 55, 45
2, 16647, Note_on_c, 0, 77, 0
2, 16647, Note_on_c, 0, 75, 72
2, 16668, Note_on_c, 0, 51, 0
2, 16689, Note_on_c, 0, 58, 36
2, 16734, Note_on_c, 0, 55, 0
2, 16734, Note_on_c, 0, 51, 49
2, 16739, Note_on_c, 0, 58, 0
2, 16739, Note_on_c, 0, 74, 62
2, 16743, Note_on_c, 0, 75, 0
2, 16792, Note_on_c, 0, 55, 42
2, 16796, Note_on_c, 0, 51, 0
2, 16847, Note_on_c, 0, 72, 65
2, 16851, Note_on_c, 0, 60, 45
2, 16855, Note_on_c, 0, 55, 0
2, 16855, Note_on_c, 0, 74, 0
2, 16864, Note_on_c, 0, 72, 0
2, 16901, Note_on_c, 0, 60, 0
2, 16901, Note_on_c, 0, 72, 83
2, 16905, Note_on_c, 0, 53, 53
2, 16951, Control_c, 0, 64, 0
2, 16964, Note_on_c, 0, 58, 41
2, 17014, Control_c, 0, 64, 127
2, 17014, Note_on_c, 0, 62, 40
2, 17017, Note_on_c, 0, 58, 0
2, 17030, Note_on_c, 0, 72, 0
2, 17034, Note_on_c, 0, 70, 47
2, 17051, Note_on_c, 0, 70, 0
2, 17055, Note_on_c, 0, 72, 46
2, 17060, Note_on_c, 0, 53, 0
2, 17060, Note_on_c, 0, 58, 39
2, 17076, Note_on_c, 0, 72, 0
2, 17076, Note_on_c, 0, 70, 40
2, 17092, Note_on_c, 0, 70, 0
2, 17093, Note_on_c, 0, 58, 0
2, 17093, Note_on_c, 0, 72, 48
2, 17096, Note_on_c, 0, 62, 0
2, 17101, Note_on_c, 0, 53, 36
2, 17113, Note_on_c, 0, 72, 0
2, 17113, Note_on_c, 0, 70, 35
2, 17131, Note_on_c, 0, 70, 0
2, 17131, Note_on_c, 0, 72, 46
2, 17134, Note_on_c, 0, 58, 38
2, 17155, Note_on_c, 0, 70, 32
2, 17163, Note_on_c, 0, 72, 0
2, 17180, Note_on_c, 0, 70, 0
2, 17184, Note_on_c, 0, 69, 46
2, 17201, Note_on_c, 0, 53, 0
2, 17205, Note_on_c, 0, 70, 45
2, 17214, Note_on_c, 0, 62, 5
2, 17243, Note_on_c, 0, 72, 60
2, 17246, Note_on_c, 0, 70, 0
2, 17251, Note_on_c, 0, 62, 0
2, 17251, Note_on_c, 0, 58, 0
2, 17251, Note_on_c, 0, 69, 0
2, 17256, Note_on_c, 0, 53, 38
2, 17281, Control_c, 0, 64, 0
2, 17305, Note_on_c, 0, 60, 29
2, 17343, Control_c, 0, 64, 127
2, 17364, Note_on_c, 0, 72, 0
2, 17364, Note_on_c, 0, 63, 50
2, 17364, Note_on_c, 0, 69, 40
2, 17372, Note_on_c, 0, 60, 0
2, 17372, Note_on_c, 0, 53, 0
2, 17380, Note_on_c, 0, 69, 0
2, 17384, Note_on_c, 0, 63, 0
2, 17434, Note_on_c, 0, 53, 67
2, 17434, Note_on_c, 0, 68, 68
2, 17434, Note_on_c, 0, 80, 63
2, 17459, Control_c, 0, 64, 0
2, 17489, Note_on_c, 0, 59, 66
2, 17506, Control_c, 0, 64, 127
2, 17539, Note_on_c, 0, 62, 66
2, 17543, Note_on_c, 0, 53, 0
2, 17556, Note_on_c, 0, 80, 0
2, 17559, Note_on_c, 0, 68, 0
2, 17572, Note_on_c, 0, 59, 0
2, 17584, Note_on_c, 0, 62, 0
2, 17589, Note_on_c, 0, 79, 63
2, 17589, Note_on_c, 0, 51, 66
2, 17589, Note_on_c, 0, 67, 59
2, 17618, Control_c, 0, 64, 0
2, 17639, Note_on_c, 0, 55, 57
2, 17656, Control_c, 0, 64, 127
2, 17659, Note_on_c, 0, 51, 0
2, 17684, Note_on_c, 0, 67, 0
2, 17685, Note_on_c, 0, 79, 0
2, 17697, Note_on_c, 0, 60, 45
2, 17756, Note_on_c, 0, 55, 0
2, 17760, Note_on_c, 0, 60, 0
2, 17760, Note_on_c, 0, 82, 57
2, 17760, Note_on_c, 0, 70, 45
2, 17760, Note_on_c, 0, 52, 66
2, 17780, Control_c, 0, 64, 0
2, 17818, Note_on_c, 0, 58, 44
2, 17860, Control_c, 0, 64, 127
2, 17880, Note_on_c, 0, 61, 39
2, 17885, Note_on_c, 0, 52, 0
2, 17910, Note_on_c, 0, 70, 0
2, 17918, Note_on_c, 0, 61, 0
2, 17918, Note_on_c, 0, 82, 0
2, 17947, Note_on_c, 0, 58, 0
2, 17951, Note_on_c, 0, 53, 45
2, 17955, Note_on_c, 0, 74, 51
2, 18001, Control_c, 0, 64, 0
2, 18014, Note_on_c, 0, 75, 42
2, 18018, Note_on_c, 0, 74, 0
2, 18039, Note_on_c, 0, 75, 0
2, 18039, Note_on_c, 0, 58, 43
2, 18040, Note_on_c, 0, 74, 40
2, 18055, Note_on_c, 0, 74, 0
2, 18055, Note_on_c, 0, 75, 49
2, 18056, Control_c, 0, 64, 127
2, 18068, Note_on_c, 0, 53, 0
2, 18076, Note_on_c, 0, 75, 0
2, 18076, Note_on_c, 0, 74, 44
2, 18084, Note_on_c, 0, 62, 42
2, 18089, Note_on_c, 0, 74, 0
2, 18089, Note_on_c, 0, 75, 48
2, 18101, Note_on_c, 0, 74, 45
2, 18106, Note_on_c, 0, 75, 0
2, 18118, Note_on_c, 0, 74, 0
2, 18118, Note_on_c, 0, 58, 0
2, 18118, Note_on_c, 0, 75, 46
2, 18130, Note_on_c, 0, 62, 0
2, 18131, Note_on_c, 0, 74, 51
2, 18131, Note_on_c, 0, 53, 46
2, 18134, Note_on_c, 0, 75, 0
2, 18147, Note_on_c, 0, 75, 44
2, 18151, Note_on_c, 0, 74, 0
2, 18160, Note_on_c, 0, 75, 0
2, 18160, Note_on_c, 0, 74, 51
2, 18176, Note_on_c, 0, 74, 0
2, 18176, Note_on_c, 0, 75, 45
2, 18180, Note_on_c, 0, 58, 33
2, 18202, Note_on_c, 0, 75, 0
2, 18205, Note_on_c, 0, 74, 46
2, 18218, Note_on_c, 0, 75, 46
2, 18235, Note_on_c, 0, 74, 52
2, 18235, Note_on_c, 0, 62, 41
2, 18240, Note_on_c, 0, 53, 0
2, 18247, Note_on_c, 0, 75, 0
2, 18250, Note_on_c, 0, 74, 0
2, 18256, Note_on_c, 0, 74, 0
2, 18256, Note_on_c, 0, 72, 53
2, 18280, Note_on_c, 0, 74, 51
2, 18293, Note_on_c, 0, 72, 0
2, 18293, Note_on_c, 0, 62, 0
2, 18306, Note_on_c, 0, 58, 0
2, 18310, Note_on_c, 0, 53, 36
2, 18310, Note_on_c, 0, 75, 38
2, 18318, Note_on_c, 0, 74, 0
2, 18347, Control_c, 0, 64, 0
2, 18368, Note_on_c, 0, 60, 45
2, 18414, Control_c, 0, 64, 127
2, 18418, Note_on_c, 0, 72, 55
2, 18418, Note_on_c, 0, 63, 52
2, 18422, Note_on_c, 0, 75, 0
2, 18434, Note_on_c, 0, 53, 0
2, 18435, Note_on_c, 0, 60, 0
2, 18448, Note_on_c, 0, 72, 0
2, 18448, Note_on_c, 0, 63, 0
2, 18476, Note_on_c, 0, 53, 56
2, 18476, Note_on_c, 0, 68, 65
2, 18476, Note_on_c, 0, 80, 63
2, 18498, Control_c, 0, 64, 0
2, 18530, Note_on_c, 0, 59, 55
2, 18564, Control_c, 0, 64, 127
2, 18580, Note_on_c, 0, 53, 0
2, 18580, Note_on_c, 0, 62, 57
2, 18602, Note_on_c, 0, 68, 0
2, 18606, Note_on_c, 0, 59, 0
2, 18606, Note_on_c, 0, 80, 0
2, 18635, Note_on_c, 0, 62, 0
2, 18635, Note_on_c, 0, 51, 56
2, 18635, Note_on_c, 0, 67, 59
2, 18635, Note_on_c, 0, 79, 66
2, 18677, Control_c, 0, 64, 0
2, 18689, Note_on_c, 0, 55, 55
2, 18702, Note_on_c, 0, 51, 0
2, 18739, Control_c, 0, 64, 127
2, 18743, Note_on_c, 0, 60, 53
2, 18747, Note_on_c, 0, 67, 0
2, 18747, Note_on_c, 0, 79, 0
2, 18801, Note_on_c, 0, 70, 52
2, 18801, Note_on_c, 0, 82, 55
2, 18801, Note_on_c, 0, 52, 55
2, 18806, Note_on_c, 0, 55, 0
2, 18806, Note_on_c, 0, 60, 0
2, 18826, Control_c, 0, 64, 0
2, 18864, Note_on_c, 0, 58, 46
2, 18872, Control_c, 0, 64, 127
2, 18923, Note_on_c, 0, 52, 0
2, 18923, Note_on_c, 0, 61, 36
2, 18938, Note_on_c, 0, 70, 0
2, 18955, Note_on_c, 0, 82, 0
2, 18960, Note_on_c, 0, 61, 0
2, 18980, Note_on_c, 0, 58, 0
2, 18985, Note_on_c, 0, 53, 38
2, 18985, Note_on_c, 0, 74, 49
2, 19014, Control_c, 0, 64, 0
2, 19048, Note_on_c, 0, 74, 0
2, 19048, Note_on_c, 0, 75, 38
2, 19064, Note_on_c, 0, 58, 33
2, 19068, Note_on_c, 0, 75, 0
2, 19068, Note_on_c, 0, 74, 36
2, 19081, Control_c, 0, 64, 127
2, 19085, Note_on_c, 0, 74, 0
2, 19085, Note_on_c, 0, 75, 44
2, 19101, Note_on_c, 0, 62, 41
2, 19101, Note_on_c, 0, 74, 45
2, 19105, Note_on_c, 0, 53, 0
2, 19106, Note_on_c, 0, 75, 0
2, 19118, Note_on_c, 0, 74, 0
2, 19118, Note_on_c, 0, 75, 48
2, 19135, Note_on_c, 0, 74, 52
2, 19139, Note_on_c, 0, 75, 0
2, 19144, Note_on_c, 0, 58, 0
2, 19151, Note_on_c, 0, 62, 0
2, 19152, Note_on_c, 0, 74, 0
2, 19152, Note_on_c, 0, 75, 47
2, 19168, Note_on_c, 0, 75, 0
2, 19168, Note_on_c, 0, 53, 43
2, 19168, Note_on_c, 0, 74, 51
2, 19181, Note_on_c, 0, 74, 0
2, 19185, Note_on_c, 0, 75, 45
2, 19201, Note_on_c, 0, 74, 46
2, 19206, Note_on_c, 0, 75, 0
2, 19223, Note_on_c, 0, 74, 0
2, 19223, Note_on_c, 0, 58, 39
2, 19223, Note_on_c, 0, 75, 46
2, 19248, Note_on_c, 0, 74, 49
2, 19264, Note_on_c, 0, 75, 0
2, 19272, Note_on_c, 0, 74, 0
2, 19272, Note_on_c, 0, 62, 42
2, 19272, Note_on_c, 0, 72, 47
2, 19288, Note_on_c, 0, 53, 0
2, 19302, Note_on_c, 0, 74, 55
2, 19314, Note_on_c, 0, 72, 0
2, 19331, Note_on_c, 0, 62, 0
2, 19335, Note_on_c, 0, 58, 0
2, 19335, Note_on_c, 0, 75, 50
2, 19335, Note_on_c, 0, 53, 46
2, 19343, Note_on_c, 0, 74, 0
2, 19389, Control_c, 0, 64, 0
2, 19390, Note_on_c, 0, 60, 46
2, 19440, Note_on_c, 0, 72, 45
2, 19440, Note_on_c, 0, 63, 41
2, 19443, Control_c, 0, 64, 127
2, 19452, Note_on_c, 0, 75, 0
2, 19456, Note_on_c, 0, 72, 0
2, 19464, Note_on_c, 0, 53, 0
2, 19464, Note_on_c, 0, 60, 0
2, 19464, Note_on_c, 0, 63, 0
2, 19502, Note_on_c, 0, 70, 59
2, 19502, Note_on_c, 0, 62, 52
2, 19502, Note_on_c, 0, 58, 47
2, 19510, Control_c, 0, 64, 0
2, 19548, Note_on_c, 0, 74, 56
2, 19577, Note_on_c, 0, 70, 0
2, 19581, Control_c, 0, 64, 127
2, 19602, Note_on_c, 0, 77, 55
2, 19610, Note_on_c, 0, 74, 0
2, 19639, Note_on_c, 0, 77, 0
2, 19652, Note_on_c, 0, 82, 45
2, 19677, Note_on_c, 0, 82, 0
2, 19698, Note_on_c, 0, 77, 47
2, 19707, Note_on_c, 0, 62, 0
2, 19718, Note_on_c, 0, 58, 0
2, 19752, Note_on_c, 0, 77, 0
2, 19752, Note_on_c, 0, 74, 36
2, 19810, Note_on_c, 0, 41, 53
2, 19810, Note_on_c, 0, 53, 40
2, 19810, Note_on_c, 0, 75, 46
2, 19810, Control_c, 0, 64, 0
2, 19814, Note_on_c, 0, 74, 0
2, 19844, Control_c, 0, 64, 127
2, 19865, Note_on_c, 0, 72, 51
2, 19872, Note_on_c, 0, 41, 0
2, 19877, Note_on_c, 0, 75, 0
2, 19885, Note_on_c, 0, 53, 0
2, 19906, Note_on_c, 0, 72, 0
2, 19910, Note_on_c, 0, 69, 44
2, 19964, Note_on_c, 0, 70, 55
2, 19964, Note_on_c, 0, 58, 45
2, 19964, Note_on_c, 0, 46, 50
2, 19965, Control_c, 0, 64, 0
2, 19977, Note_on_c, 0, 69, 0
2, 20006, Control_c, 0, 64, 127
2, 20014, Note_on_c, 0, 74, 57
2, 20019, Note_on_c, 0, 58, 0
2, 20030, Note_on_c, 0, 70, 0
2, 20031, Note_on_c, 0, 46, 0
2, 20068, Note_on_c, 0, 65, 55
2, 20114, Note_on_c, 0, 65, 0
2, 20119, Note_on_c, 0, 70, 45
2, 20120, Note_on_c, 0, 50, 45
2, 20120, Note_on_c, 0, 38, 36
2, 20127, Control_c, 0, 64, 0
2, 20156, Note_on_c, 0, 74, 0
2, 20156, Control_c, 0, 64, 127
2, 20169, Note_on_c, 0, 38, 0
2, 20172, Note_on_c, 0, 70, 0
2, 20172, Note_on_c, 0, 65, 47
2, 20182, Note_on_c, 0, 50, 0
2, 20219, Note_on_c, 0, 62, 40
2, 20231, Note_on_c, 0, 65, 0
2, 20268, Note_on_c, 0, 41, 44
2, 20268, Note_on_c, 0, 53, 40
2, 20268, Note_on_c, 0, 63, 45
2, 20270, Control_c, 0, 64, 0
2, 20272, Note_on_c, 0, 62, 0
2, 20302, Control_c, 0, 64, 127
2, 20316, Note_on_c, 0, 53, 0
2, 20323, Note_on_c, 0, 60, 39
2, 20331, Note_on_c, 0, 41, 0
2, 20336, Note_on_c, 0, 63, 0
2, 20369, Note_on_c, 0, 60, 0
2, 20369, Note_on_c, 0, 57, 44
2, 20414, Control_c, 0, 64, 0
2, 20423, Note_on_c, 0, 58, 46
2, 20423, Note_on_c, 0, 46, 36
2, 20423, Note_on_c, 0, 34, 40
2, 20431, Note_on_c, 0, 57, 0
2, 20477, Control_c, 0, 64, 127
2, 20490, Note_on_c, 0, 58, 0
2, 20493, Note_on_c, 0, 34, 0
2, 20498, Note_on_c, 0, 46, 0
2, 20752, Note_on_c, 0, 46, 35
2, 20752, Note_on_c, 0, 58, 42
2, 20752, Note_on_c, 0, 53, 45
2, 20752, Note_on_c, 0, 50, 36
2, 20752, Control_c, 0, 64, 0
2, 20769, Note_on_c, 0, 46, 0
2, 20772, Note_on_c, 0, 58, 0
2, 20772, Note_on_c, 0, 53, 0
2, 20773, Note_on_c, 0, 50, 0
2, 20916, Note_on_c, 0, 58, 39
2, 20916, Note_on_c, 0, 53, 37
2, 20916, Note_on_c, 0, 50, 37
2, 20916, Note_on_c, 0, 46, 17
2, 20977, Control_c, 0, 64, 127
2, 21045, Note_on_c, 0, 53, 0
2, 21052, Note_on_c, 0, 58, 0
2, 21052, Note_on_c, 0, 46, 0
2, 21054, Note_on_c, 0, 50, 0
2, 21498, Control_c, 0, 64, 0
2, 21614, Note_on_c, 0, 51, 53
2, 21614, Note_on_c, 0, 39, 55
2, 21777, Note_on_c, 0, 79, 59
2, 21777, Control_c, 0, 64, 127
2, 21778, Note_on_c, 0, 82, 63
2, 21806, Note_on_c, 0, 39, 0
2, 21809, Note_on_c, 0, 51, 0
2, 21856, Note_on_c, 0, 79, 0
2, 21856, Note_on_c, 0, 82, 0
2, 21940, Note_on_c, 0, 77, 44
2, 21940, Note_on_c, 0, 80, 48
2, 21948, Control_c, 0, 64, 0
2, 21994, Control_c, 0, 64, 127
2, 22006, Note_on_c, 0, 80, 0
2, 22014, Note_on_c, 0, 77, 0
2, 22086, Note_on_c, 0, 79, 46
2, 22086, Note_on_c, 0, 75, 36
2, 22144, Note_on_c, 0, 79, 0
2, 22152, Note_on_c, 0, 75, 0
2, 22232, Note_on_c, 0, 74, 40
2, 22232, Note_on_c, 0, 77, 45
2, 22252, Control_c, 0, 64, 0
2, 22290, Control_c, 0, 64, 127
2, 22337, Note_on_c, 0, 74, 0
2, 22340, Note_on_c, 0, 77, 0
2, 22398, Note_on_c, 0, 75, 38
2, 22398, Note_on_c, 0, 72, 35
2, 22440, Note_on_c, 0, 75, 0
2, 22444, Note_on_c, 0, 72, 0
2, 22544, Note_on_c, 0, 70, 39
2, 22544, Note_on_c, 0, 74, 35
2, 22565, Control_c, 0, 64, 0
2, 22607, Control_c, 0, 64, 127
2, 22636, Note_on_c, 0, 70, 0
2, 22640, Note_on_c, 0, 74, 0
2, 22706, Note_on_c, 0, 72, 46
2, 22706, Note_on_c, 0, 68, 32
2, 22782, Note_on_c, 0, 68, 0
2, 22785, Note_on_c, 0, 72, 0
2, 22861, Note_on_c, 0, 70, 40
2, 22861, Note_on_c, 0, 67, 40
2, 22861, Note_on_c, 0, 63, 36
2, 22861, Note_on_c, 0, 51, 39
2, 22869, Control_c, 0, 64, 0
2, 22911, Control_c, 0, 64, 127
2, 22944, Note_on_c, 0, 63, 0
2, 22956, Note_on_c, 0, 51, 0
2, 22964, Note_on_c, 0, 67, 0
2, 23016, Note_on_c, 0, 65, 45
2, 23016, Note_on_c, 0, 62, 39
2, 23016, Note_on_c, 0, 50, 31
2, 23024, Control_c, 0, 64, 0
2, 23057, Control_c, 0, 64, 127
2, 23099, Note_on_c, 0, 65, 0
2, 23102, Note_on_c, 0, 62, 0
2, 23119, Note_on_c, 0, 50, 0
2, 23161, Note_on_c, 0, 48, 53
2, 23162, Note_on_c, 0, 60, 51
2, 23162, Note_on_c, 0, 63, 53
2, 23174, Control_c, 0, 64, 0
2, 23202, Control_c, 0, 64, 127
2, 23228, Note_on_c, 0, 60, 0
2, 23236, Note_on_c, 0, 48, 0
2, 23244, Note_on_c, 0, 63, 0
2, 23274, Note_on_c, 0, 70, 0
2, 23319, Note_on_c, 0, 46, 54
2, 23319, Note_on_c, 0, 58, 52
2, 23319, Note_on_c, 0, 62, 54
2, 23319, Note_on_c, 0, 70, 54
2, 23345, Control_c, 0, 64, 0
2, 23378, Control_c, 0, 64, 127
2, 23420, Note_on_c, 0, 58, 0
2, 23426, Note_on_c, 0, 46, 0
2, 23465, Note_on_c, 0, 56, 65
2, 23466, Note_on_c, 0, 44, 65
2, 23519, Note_on_c, 0, 62, 0
2, 23540, Note_on_c, 0, 44, 0
2, 23540, Note_on_c, 0, 56, 0
2, 23548, Note_on_c, 0, 70, 0
2, 23624, Note_on_c, 0, 43, 37
2, 23624, Note_on_c, 0, 55, 29
2, 23624, Note_on_c, 0, 72, 53
2, 23624, Note_on_c, 0, 63, 34
2, 23636, Control_c, 0, 64, 0
2, 23678, Control_c, 0, 64, 127
2, 23719, Note_on_c, 0, 55, 0
2, 23724, Note_on_c, 0, 63, 0
2, 23732, Note_on_c, 0, 72, 0
2, 23733, Note_on_c, 0, 43, 0
2, 23804, Note_on_c, 0, 74, 35
2, 23804, Note_on_c, 0, 41, 29
2, 23804, Note_on_c, 0, 53, 18
2, 23804, Note_on_c, 0, 65, 29
2, 23824, Control_c, 0, 64, 0
2, 23857, Control_c, 0, 64, 127
2, 23874, Note_on_c, 0, 53, 0
2, 23878, Note_on_c, 0, 41, 0
2, 23883, Note_on_c, 0, 74, 0
2, 23887, Note_on_c, 0, 65, 0
2, 24012, Note_on_c, 0, 39, 16
2, 24012, Note_on_c, 0, 51, 17
2, 24012, Note_on_c, 0, 67, 25
2, 24012, Note_on_c, 0, 75, 33
2, 24015, Control_c, 0, 64, 0
2, 24052, Control_c, 0, 64, 127
2, 24054, Note_on_c, 0, 39, 0
2, 24071, Note_on_c, 0, 51, 0
2, 24165, Note_on_c, 0, 60, 28
2, 24165, Note_on_c, 0, 63, 25
2, 24190, Note_on_c, 0, 63, 0
2, 24190, Note_on_c, 0, 60, 0
2, 24212, Note_on_c, 0, 67, 0
2, 24216, Note_on_c, 0, 75, 0
2, 24307, Note_on_c, 0, 72, 37
2, 24307, Note_on_c, 0, 60, 20
2, 24307, Note_on_c, 0, 56, 20
2, 24320, Control_c, 0, 64, 0
2, 24432, Note_on_c, 0, 56, 0
2, 24440, Note_on_c, 0, 70, 34
2, 24440, Note_on_c, 0, 58, 30
2, 24440, Note_on_c, 0, 55, 17
2, 24449, Note_on_c, 0, 60, 0
2, 24465, Note_on_c, 0, 72, 0
2, 24544, Control_c, 0, 64, 127
2, 24591, Note_on_c, 0, 60, 27
2, 24594, Note_on_c, 0, 55, 0
2, 24609, Note_on_c, 0, 58, 0
2, 24620, Note_on_c, 0, 60, 0
2, 24645, Note_on_c, 0, 70, 0
2, 24736, Control_c, 0, 64, 0
2, 24744, Note_on_c, 0, 62, 38
2, 24744, Note_on_c, 0, 70, 41
2, 24765, Note_on_c, 0, 68, 38
2, 24770, Control_c, 0, 64, 127
2, 24774, Note_on_c, 0, 70, 0
2, 24795, Note_on_c, 0, 70, 40
2, 24810, Note_on_c, 0, 68, 0
2, 24810, Note_on_c, 0, 68, 38
2, 24824, Note_on_c, 0, 70, 0
2, 24832, Note_on_c, 0, 70, 45
2, 24853, Note_on_c, 0, 70, 0
2, 24855, Note_on_c, 0, 68, 0
2, 24855, Note_on_c, 0, 68, 38
2, 24870, Note_on_c, 0, 68, 0
2, 24870, Note_on_c, 0, 70, 36
2, 24891, Note_on_c, 0, 68, 46
2, 24897, Note_on_c, 0, 62, 0
2, 24903, Note_on_c, 0, 70, 0
2, 24911, Note_on_c, 0, 63, 22
2, 24911, Note_on_c, 0, 67, 40
2, 24916, Note_on_c, 0, 68, 0
2, 24949, Control_c, 0, 64, 0
2, 25045, Note_on_c, 0, 74, 39
2, 25045, Note_on_c, 0, 51, 12
2, 25086, Control_c, 0, 64, 127
2, 25186, Note_on_c, 0, 75, 45
2, 25190, Note_on_c, 0, 74, 0
2, 25203, Note_on_c, 0, 51, 0
2, 25232, Note_on_c, 0, 67, 0
2, 25278, Note_on_c, 0, 75, 0
2, 25283, Note_on_c, 0, 63, 0
2, 25294, Note_on_c, 0, 55, 42
2, 25316, Note_on_c, 0, 58, 46
2, 25328, Note_on_c, 0, 63, 42
2, 25332, Control_c, 0, 64, 0
2, 25441, Control_c, 0, 64, 127
2, 25474, Note_on_c, 0, 82, 45
2, 25612, Note_on_c, 0, 79, 43
2, 25620, Note_on_c, 0, 55, 0
2, 25628, Note_on_c, 0, 58, 0
2, 25632, Note_on_c, 0, 82, 0
2, 25636, Note_on_c, 0, 63, 0
2, 25716, Note_on_c, 0, 56, 37
2, 25736, Note_on_c, 0, 60, 44
2, 25753, Control_c, 0, 64, 0
2, 25758, Note_on_c, 0, 65, 41
2, 25824, Note_on_c, 0, 79, 0
2, 25824, Note_on_c, 0, 77, 47
2, 25841, Control_c, 0, 64, 127
2, 25887, Note_on_c, 0, 79, 57
2, 25907, Note_on_c, 0, 77, 0
2, 25953, Note_on_c, 0, 80, 68
2, 25966, Note_on_c, 0, 79, 0
2, 26011, Note_on_c, 0, 56, 0
2, 26012, Note_on_c, 0, 60, 0
2, 26016, Note_on_c, 0, 82, 65
2, 26024, Note_on_c, 0, 65, 0
2, 26024, Note_on_c, 0, 80, 0
2, 26082, Note_on_c, 0, 84, 65
2, 26087, Note_on_c, 0, 82, 0
2, 26116, Note_on_c, 0, 58, 39
2, 26128, Note_on_c, 0, 62, 47
2, 26145, Note_on_c, 0, 65, 53
2, 26162, Note_on_c, 0, 68, 61
2, 26162, Control_c, 0, 64, 0
2, 26253, Control_c, 0, 64, 127
2, 26291, Note_on_c, 0, 82, 46
2, 26299, Note_on_c, 0, 84, 0
2, 26358, Note_on_c, 0, 80, 42
2, 26383, Note_on_c, 0, 82, 0
2, 26424, Note_on_c, 0, 80, 0
2, 26424, Note_on_c, 0, 79, 46
2, 26453, Note_on_c, 0, 68, 0
2, 26470, Note_on_c, 0, 65, 0
2, 26474, Note_on_c, 0, 62, 0
2, 26491, Note_on_c, 0, 77, 40
2, 26495, Note_on_c, 0, 79, 0
2, 26499, Note_on_c, 0, 58, 0
2, 26562, Note_on_c, 0, 74, 48
2, 26570, Note_on_c, 0, 77, 0
2, 26582, Note_on_c, 0, 74, 0
2, 26620, Note_on_c, 0, 51, 47
2, 26620, Note_on_c, 0, 63, 39
2, 26620, Note_on_c, 0, 75, 40
2, 26649, Control_c, 0, 64, 0
2, 26662, Note_on_c, 0, 70, 45
2, 26704, Note_on_c, 0, 70, 0
2, 26704, Note_on_c, 0, 67, 59
2, 26712, Control_c, 0, 64, 127
2, 26737, Note_on_c, 0, 67, 0
2, 26749, Note_on_c, 0, 70, 40
2, 26757, Note_on_c, 0, 75, 0
2, 26758, Note_on_c, 0, 63, 0
2, 26774, Note_on_c, 0, 51, 0
2, 26782, Note_on_c, 0, 70, 0
2, 26782, Note_on_c, 0, 67, 55
2, 26812, Note_on_c, 0, 67, 0
2, 26820, Note_on_c, 0, 63, 47
2, 26835, Note_on_c, 0, 63, 0
2, 26862, Control_c, 0, 64, 0
2, 26866, Note_on_c, 0, 62, 56
2, 26866, Note_on_c, 0, 58, 40
2, 26866, Note_on_c, 0, 46, 48
2, 26895, Control_c, 0, 64, 127
2, 26908, Note_on_c, 0, 58, 0
2, 26908, Note_on_c, 0, 65, 40
2, 26924, Note_on_c, 0, 46, 0
2, 26924, Note_on_c, 0, 62, 0
2, 26950, Note_on_c, 0, 68, 41
2, 26958, Note_on_c, 0, 65, 0
2, 26987, Note_on_c, 0, 68, 0
2, 26991, Note_on_c, 0, 39, 46
2, 26991, Note_on_c, 0, 51, 47
2, 26991, Note_on_c, 0, 67, 46
2, 27008, Control_c, 0, 64, 0
2, 27037, Note_on_c, 0, 70, 47
2, 27045, Control_c, 0, 64, 127
2, 27050, Note_on_c, 0, 67, 0
2, 27054, Note_on_c, 0, 39, 0
2, 27070, Note_on_c, 0, 51, 0
2, 27075, Note_on_c, 0, 67, 46
2, 27078, Note_on_c, 0, 70, 0
2, 27120, Note_on_c, 0, 43, 54
2, 27120, Note_on_c, 0, 55, 46
2, 27120, Note_on_c, 0, 75, 45
2, 27133, Control_c, 0, 64, 0
2, 27149, Note_on_c, 0, 67, 0
2, 27162, Control_c, 0, 64, 127
2, 27166, Note_on_c, 0, 70, 35
2, 27174, Note_on_c, 0, 75, 0
2, 27178, Note_on_c, 0, 43, 0
2, 27191, Note_on_c, 0, 55, 0
2, 27208, Note_on_c, 0, 70, 0
2, 27208, Note_on_c, 0, 67, 55
2, 27250, Note_on_c, 0, 58, 39
2, 27250, Note_on_c, 0, 68, 53
2, 27250, Note_on_c, 0, 46, 45
2, 27254, Note_on_c, 0, 67, 0
2, 27254, Control_c, 0, 64, 0
2, 27287, Control_c, 0, 64, 127
2, 27296, Note_on_c, 0, 68, 0
2, 27296, Note_on_c, 0, 65, 47
2, 27300, Note_on_c, 0, 58, 0
2, 27312, Note_on_c, 0, 46, 0
2, 27333, Note_on_c, 0, 65, 0
2, 27333, Note_on_c, 0, 62, 45
2, 27366, Control_c, 0, 64, 0
2, 27379, Note_on_c, 0, 62, 0
2, 27383, Note_on_c, 0, 39, 42
2, 27383, Note_on_c, 0, 51, 48
2, 27383, Note_on_c, 0, 63, 53
2, 27446, Control_c, 0, 64, 127
2, 27466, Note_on_c, 0, 63, 0
2, 27471, Note_on_c, 0, 39, 0
2, 27478, Note_on_c, 0, 51, 0
2, 27670, Note_on_c, 0, 63, 36
2, 27670, Note_on_c, 0, 58, 40
2, 27670, Note_on_c, 0, 55, 28
2, 27670, Note_on_c, 0, 51, 36
2, 27672, Control_c, 0, 64, 0
2, 27690, Note_on_c, 0, 51, 0
2, 27690, Note_on_c, 0, 63, 0
2, 27690, Note_on_c, 0, 58, 0
2, 27690, Note_on_c, 0, 55, 0
2, 27830, Note_on_c, 0, 51, 29
2, 27830, Note_on_c, 0, 55, 29
2, 27830, Note_on_c, 0, 58, 29
2, 27830, Note_on_c, 0, 63, 29
2, 27945, Control_c, 0, 64, 127
2, 27967, Note_on_c, 0, 58, 0
2, 28000, Note_on_c, 0, 63, 0
2, 28022, Note_on_c, 0, 55, 0
2, 28024, Note_on_c, 0, 51, 0
2, 28171, Control_c, 0, 64, 0
2, 28342, Control_c, 0, 64, 127
2, 28450, Control_c, 0, 64, 0
2, 28458, Note_on_c, 0, 79, 39
2, 28458, Note_on_c, 0, 63, 33
2, 28537, Note_on_c, 0, 67, 32
2, 28608, Control_c, 0, 64, 127
2, 28609, Note_on_c, 0, 70, 25
2, 28621, Note_on_c, 0, 67, 0
2, 28646, Note_on_c, 0, 80, 41
2, 28654, Note_on_c, 0, 79, 0
2, 28675, Note_on_c, 0, 70, 0
2, 28679, Note_on_c, 0, 67, 42
2, 28679, Note_on_c, 0, 79, 45
2, 28692, Note_on_c, 0, 80, 0
2, 28708, Note_on_c, 0, 79, 0
2, 28708, Note_on_c, 0, 77, 47
2, 28737, Note_on_c, 0, 67, 0
2, 28738, Note_on_c, 0, 70, 39
2, 28738, Note_on_c, 0, 75, 63
2, 28745, Note_on_c, 0, 77, 0
2, 28796, Note_on_c, 0, 63, 0
2, 28800, Note_on_c, 0, 67, 46
2, 28821, Note_on_c, 0, 70, 0
2, 28862, Note_on_c, 0, 67, 0
2, 28862, Note_on_c, 0, 63, 39
2, 28904, Note_on_c, 0, 75, 0
2, 28929, Note_on_c, 0, 67, 39
2, 29000, Note_on_c, 0, 81, 46
2, 29000, Note_on_c, 0, 70, 35
2, 29004, Note_on_c, 0, 67, 0
2, 29054, Note_on_c, 0, 63, 0
2, 29062, Note_on_c, 0, 67, 28
2, 29062, Note_on_c, 0, 82, 38
2, 29070, Note_on_c, 0, 70, 0
2, 29074, Note_on_c, 0, 81, 0
2, 29125, Note_on_c, 0, 63, 39
2, 29125, Note_on_c, 0, 81, 46
2, 29129, Note_on_c, 0, 82, 0
2, 29133, Note_on_c, 0, 67, 0
2, 29187, Note_on_c, 0, 63, 0
2, 29188, Note_on_c, 0, 67, 35
2, 29188, Note_on_c, 0, 82, 44
2, 29196, Note_on_c, 0, 81, 0
2, 29229, Note_on_c, 0, 67, 0
2, 29267, Note_on_c, 0, 62, 42
2, 29267, Note_on_c, 0, 77, 41
2, 29270, Note_on_c, 0, 82, 0
2, 29300, Control_c, 0, 64, 0
2, 29342, Note_on_c, 0, 65, 31
2, 29396, Control_c, 0, 64, 127
2, 29421, Note_on_c, 0, 65, 0
2, 29425, Note_on_c, 0, 70, 25
2, 29454, Note_on_c, 0, 79, 53
2, 29463, Note_on_c, 0, 77, 0
2, 29492, Note_on_c, 0, 70, 0
2, 29492, Note_on_c, 0, 65, 39
2, 29492, Note_on_c, 0, 77, 50
2, 29504, Note_on_c, 0, 79, 0
2, 29517, Note_on_c, 0, 75, 66
2, 29525, Note_on_c, 0, 77, 0
2, 29546, Note_on_c, 0, 70, 36
2, 29546, Note_on_c, 0, 74, 63
2, 29550, Note_on_c, 0, 75, 0
2, 29550, Note_on_c, 0, 65, 0
2, 29604, Note_on_c, 0, 65, 40
2, 29609, Note_on_c, 0, 62, 0
2, 29625, Note_on_c, 0, 70, 0
2, 29667, Note_on_c, 0, 62, 45
2, 29668, Control_c, 0, 64, 0
2, 29671, Note_on_c, 0, 65, 0
2, 29717, Control_c, 0, 64, 127
2, 29730, Note_on_c, 0, 65, 45
2, 29792, Note_on_c, 0, 65, 0
2, 29800, Note_on_c, 0, 74, 0
2, 29800, Note_on_c, 0, 70, 31
2, 29800, Note_on_c, 0, 81, 40
2, 29858, Note_on_c, 0, 62, 0
2, 29858, Note_on_c, 0, 65, 47
2, 29858, Note_on_c, 0, 82, 44
2, 29871, Note_on_c, 0, 81, 0
2, 29875, Note_on_c, 0, 70, 0
2, 29917, Note_on_c, 0, 65, 0
2, 29917, Note_on_c, 0, 81, 39
2, 29917, Note_on_c, 0, 62, 42
2, 29925, Note_on_c, 0, 82, 0
2, 29984, Note_on_c, 0, 65, 34
2, 29984, Note_on_c, 0, 82, 40
2, 29988, Note_on_c, 0, 62, 0
2, 29988, Note_on_c, 0, 81, 0
2, 30017, Note_on_c, 0, 82, 0
2, 30043, Note_on_c, 0, 60, 33
2, 30043, Note_on_c, 0, 82, 40
2, 30051, Note_on_c, 0, 65, 0
2, 30080, Control_c, 0, 64, 0
2, 30113, Note_on_c, 0, 63, 40
2, 30113, Note_on_c, 0, 81, 47
2, 30123, Note_on_c, 0, 82, 0
2, 30175, Note_on_c, 0, 81, 0
2, 30175, Note_on_c, 0, 65, 36
2, 30175, Note_on_c, 0, 84, 50
2, 30179, Note_on_c, 0, 63, 0
2, 30184, Control_c, 0, 64, 127
2, 30234, Note_on_c, 0, 84, 0
2, 30234, Note_on_c, 0, 81, 37
2, 30238, Note_on_c, 0, 63, 29
2, 30242, Note_on_c, 0, 65, 0
2, 30251, Note_on_c, 0, 60, 0
2, 30254, Note_on_c, 0, 63, 0
2, 30304, Note_on_c, 0, 57, 45
2, 30304, Note_on_c, 0, 77, 34
2, 30308, Note_on_c, 0, 81, 0
2, 30334, Control_c, 0, 64, 0
2, 30363, Note_on_c, 0, 60, 45
2, 30363, Note_on_c, 0, 75, 34
2, 30371, Control_c, 0, 64, 127
2, 30375, Note_on_c, 0, 77, 0
2, 30375, Note_on_c, 0, 57, 0
2, 30421, Note_on_c, 0, 60, 0
2, 30425, Note_on_c, 0, 58, 36
2, 30426, Note_on_c, 0, 74, 54
2, 30434, Note_on_c, 0, 75, 0
2, 30458, Control_c, 0, 64, 0
2, 30492, Note_on_c, 0, 62, 42
2, 30550, Note_on_c, 0, 62, 0
2, 30554, Note_on_c, 0, 65, 37
2, 30559, Control_c, 0, 64, 127
2, 30617, Note_on_c, 0, 58, 0
2, 30622, Note_on_c, 0, 62, 39
2, 30650, Note_on_c, 0, 65, 0
2, 30692, Note_on_c, 0, 62, 0
2, 30696, Note_on_c, 0, 82, 42
2, 30696, Note_on_c, 0, 58, 42
2, 30708, Note_on_c, 0, 74, 0
2, 30776, Note_on_c, 0, 62, 31
2, 30784, Note_on_c, 0, 58, 0
2, 30804, Note_on_c, 0, 82, 0
2, 30830, Note_on_c, 0, 62, 0
2, 30855, Note_on_c, 0, 60, 34
2, 30855, Note_on_c, 0, 82, 40
2, 30876, Control_c, 0, 64, 0
2, 30984, Note_on_c, 0, 63, 29
2, 30984, Note_on_c, 0, 81, 40
2, 30992, Note_on_c, 0, 82, 0
2, 31038, Control_c, 0, 64, 127
2, 31050, Note_on_c, 0, 81, 0
2, 31050, Note_on_c, 0, 84, 41
2, 31050, Note_on_c, 0, 65, 32
2, 31054, Note_on_c, 0, 63, 0
2, 31108, Note_on_c, 0, 84, 0
2, 31113, Note_on_c, 0, 63, 36
2, 31113, Note_on_c, 0, 81, 40
2, 31122, Note_on_c, 0, 60, 0
2, 31122, Note_on_c, 0, 65, 0
2, 31129, Note_on_c, 0, 63, 0
2, 31179, Note_on_c, 0, 81, 0
2, 31180, Note_on_c, 0, 57, 39
2, 31180, Note_on_c, 0, 77, 32
2, 31196, Control_c, 0, 64, 0
2, 31238, Note_on_c, 0, 75, 40
2, 31242, Control_c, 0, 64, 127
2, 31242, Note_on_c, 0, 60, 35
2, 31250, Note_on_c, 0, 77, 0
2, 31258, Note_on_c, 0, 57, 0
2, 31275, Note_on_c, 0, 60, 0
2, 31305, Note_on_c, 0, 74, 52
2, 31305, Note_on_c, 0, 58, 35
2, 31317, Note_on_c, 0, 75, 0
2, 31334, Control_c, 0, 64, 0
2, 31371, Note_on_c, 0, 62, 39
2, 31426, Control_c, 0, 64, 127
2, 31434, Note_on_c, 0, 62, 0
2, 31438, Note_on_c, 0, 65, 39
2, 31500, Note_on_c, 0, 62, 46
2, 31504, Note_on_c, 0, 58, 0
2, 31513, Note_on_c, 0, 65, 0
2, 31521, Note_on_c, 0, 74, 0
2, 31576, Note_on_c, 0, 62, 0
2, 31576, Note_on_c, 0, 58, 46
2, 31576, Note_on_c, 0, 74, 54
2, 31659, Note_on_c, 0, 62, 45
2, 31667, Note_on_c, 0, 58, 0
2, 31671, Note_on_c, 0, 62, 0
2, 31747, Note_on_c, 0, 74, 0
2, 31750, Note_on_c, 0, 71, 45
2, 31750, Note_on_c, 0, 51, 32
2, 31780, Control_c, 0, 64, 0
2, 31834, Note_on_c, 0, 55, 45
2, 31834, Note_on_c, 0, 72, 47
2, 31846, Note_on_c, 0, 71, 0
2, 31884, Control_c, 0, 64, 127
2, 31901, Note_on_c, 0, 55, 0
2, 31905, Note_on_c, 0, 60, 53
2, 31968, Note_on_c, 0, 55, 45
2, 31971, Note_on_c, 0, 51, 0
2, 31976, Note_on_c, 0, 60, 0
2, 32030, Note_on_c, 0, 55, 0
2, 32034, Note_on_c, 0, 51, 46
2, 32034, Note_on_c, 0, 74, 59
2, 32055, Note_on_c, 0, 72, 0
2, 32063, Control_c, 0, 64, 0
2, 32105, Note_on_c, 0, 55, 50
2, 32109, Note_on_c, 0, 75, 56
2, 32117, Note_on_c, 0, 74, 0
2, 32122, Control_c, 0, 64, 127
2, 32163, Note_on_c, 0, 55, 0
2, 32171, Note_on_c, 0, 60, 62
2, 32234, Note_on_c, 0, 60, 0
2, 32234, Note_on_c, 0, 51, 0
2, 32234, Note_on_c, 0, 55, 56
2, 32305, Note_on_c, 0, 55, 0
2, 32309, Note_on_c, 0, 51, 68
2, 32310, Note_on_c, 0, 78, 55
2, 32318, Note_on_c, 0, 75, 0
2, 32346, Control_c, 0, 64, 0
2, 32388, Note_on_c, 0, 55, 56
2, 32389, Note_on_c, 0, 79, 59
2, 32400, Note_on_c, 0, 78, 0
2, 32480, Note_on_c, 0, 60, 62
2, 32580, Control_c, 0, 64, 127
2, 32589, Note_on_c, 0, 77, 41
2, 32613, Note_on_c, 0, 79, 0
2, 32613, Note_on_c, 0, 55, 0
2, 32626, Note_on_c, 0, 51, 0
2, 32626, Note_on_c, 0, 75, 45
2, 32634, Note_on_c, 0, 77, 0
2, 32651, Note_on_c, 0, 60, 0
2, 32655, Note_on_c, 0, 74, 47
2, 32668, Note_on_c, 0, 75, 0
2, 32688, Note_on_c, 0, 74, 0
2, 32689, Note_on_c, 0, 72, 42
2, 32730, Note_on_c, 0, 53, 40
2, 32730, Note_on_c, 0, 70, 45
2, 32730, Note_on_c, 0, 62, 28
2, 32734, Control_c, 0, 64, 0
2, 32742, Note_on_c, 0, 72, 0
2, 32796, Control_c, 0, 64, 127
2, 32901, Note_on_c, 0, 62, 0
2, 33022, Control_c, 0, 64, 0
2, 33063, Note_on_c, 0, 69, 36
2, 33063, Note_on_c, 0, 60, 24
2, 33072, Note_on_c, 0, 70, 0
2, 33101, Control_c, 0, 64, 127
2, 33113, Note_on_c, 0, 60, 0
2, 33122, Note_on_c, 0, 53, 0
2, 33185, Note_on_c, 0, 51, 53
2, 33185, Note_on_c, 0, 39, 56
2, 33197, Control_c, 0, 64, 0
2, 33226, Control_c, 0, 64, 127
2, 33247, Note_on_c, 0, 39, 0
2, 33247, Note_on_c, 0, 51, 0
2, 33310, Note_on_c, 0, 50, 57
2, 33310, Note_on_c, 0, 38, 62
2, 33318, Control_c, 0, 64, 0
2, 33342, Control_c, 0, 64, 127
2, 33388, Note_on_c, 0, 50, 0
2, 33393, Note_on_c, 0, 38, 0
2, 33434, Control_c, 0, 64, 0
2, 33443, Note_on_c, 0, 48, 52
2, 33443, Note_on_c, 0, 36, 62
2, 33456, Control_c, 0, 64, 127
2, 33477, Note_on_c, 0, 48, 0
2, 33480, Note_on_c, 0, 36, 0
2, 33526, Note_on_c, 0, 69, 0
2, 33572, Control_c, 0, 64, 0
2, 33580, Note_on_c, 0, 34, 60
2, 33580, Note_on_c, 0, 46, 62
2, 33597, Control_c, 0, 64, 127
2, 33605, Note_on_c, 0, 46, 0
2, 33605, Note_on_c, 0, 34, 0
2, 33714, Note_on_c, 0, 62, 56
2, 33714, Note_on_c, 0, 77, 48
2, 33730, Control_c, 0, 64, 0
2, 33754, Note_on_c, 0, 77, 0
2, 33754, Note_on_c, 0, 62, 0
2, 33754, Note_on_c, 0, 58, 45
2, 33754, Note_on_c, 0, 74, 45
2, 33793, Note_on_c, 0, 75, 44
2, 33793, Note_on_c, 0, 60, 48
2, 33794, Note_on_c, 0, 74, 0
2, 33794, Note_on_c, 0, 58, 0
2, 33833, Note_on_c, 0, 75, 0
2, 33833, Note_on_c, 0, 60, 0
2, 33835, Note_on_c, 0, 62, 54
2, 33835, Note_on_c, 0, 77, 47
2, 33872, Note_on_c, 0, 74, 45
2, 33872, Note_on_c, 0, 58, 41
2, 33875, Note_on_c, 0, 77, 0
2, 33875, Note_on_c, 0, 62, 0
2, 33902, Note_on_c, 0, 58, 0
2, 33905, Note_on_c, 0, 60, 40
2, 33905, Note_on_c, 0, 75, 53
2, 33912, Note_on_c, 0, 74, 0
2, 33945, Note_on_c, 0, 75, 0
2, 33945, Note_on_c, 0, 60, 0
2, 33951, Note_on_c, 0, 77, 52
2, 33952, Note_on_c, 0, 62, 45
2, 33991, Note_on_c, 0, 77, 0
2, 33992, Note_on_c, 0, 62, 0
2, 34093, Note_on_c, 0, 63, 38
2, 34094, Note_on_c, 0, 79, 41
2, 34255, Note_on_c, 0, 75, 40
2, 34255, Note_on_c, 0, 60, 39
2, 34260, Control_c, 0, 64, 127
2, 34268, Note_on_c, 0, 79, 0
2, 34272, Note_on_c, 0, 63, 0
2, 34292, Note_on_c, 0, 60, 0
2, 34352, Note_on_c, 0, 75, 0
2, 34389, Note_on_c, 0, 41, 63
2, 34389, Note_on_c, 0, 53, 56
2, 34422, Note_on_c, 0, 53, 0
2, 34422, Note_on_c, 0, 41, 0
2, 34531, Note_on_c, 0, 60, 55
2, 34531, Note_on_c, 0, 75, 47
2, 34547, Control_c, 0, 64, 0
2, 34571, Note_on_c, 0, 75, 0
2, 34571, Note_on_c, 0, 60, 0
2, 34573, Note_on_c, 0, 57, 46
2, 34573, Note_on_c, 0, 72, 46
2, 34610, Note_on_c, 0, 58, 52
2, 34610, Note_on_c, 0, 74, 56
2, 34613, Note_on_c, 0, 72, 0
2, 34613, Note_on_c, 0, 57, 0
2, 34650, Note_on_c, 0, 58, 0
2, 34650, Note_on_c, 0, 74, 0
2, 34656, Note_on_c, 0, 60, 51
2, 34656, Note_on_c, 0, 75, 40
2, 34689, Note_on_c, 0, 57, 47
2, 34689, Note_on_c, 0, 72, 44
2, 34696, Note_on_c, 0, 75, 0
2, 34696, Note_on_c, 0, 60, 0
2, 34729, Note_on_c, 0, 57, 0
2, 34729, Note_on_c, 0, 72, 0
2, 34731, Note_on_c, 0, 58, 41
2, 34731, Note_on_c, 0, 74, 52
2, 34771, Note_on_c, 0, 74, 0
2, 34771, Note_on_c, 0, 58, 0
2, 34781, Note_on_c, 0, 60, 35
2, 34781, Note_on_c, 0, 75, 38
2, 34801, Note_on_c, 0, 75, 0
2, 34801, Note_on_c, 0, 60, 0
2, 34910, Note_on_c, 0, 62, 36
2, 34910, Note_on_c, 0, 77, 41
2, 35060, Note_on_c, 0, 74, 31
2, 35060, Note_on_c, 0, 58, 31
2, 35068, Note_on_c, 0, 62, 0
2, 35072, Note_on_c, 0, 77, 0
2, 35089, Control_c, 0, 64, 127
2, 35114, Note_on_c, 0, 58, 0
2, 35127, Note_on_c, 0, 74, 0
2, 35247, Note_on_c, 0, 70, 28
2, 35248, Note_on_c, 0, 50, 31
2, 35255, Control_c, 0, 64, 0
2, 35306, Note_on_c, 0, 53, 31
2, 35310, Control_c, 0, 64, 127
2, 35335, Note_on_c, 0, 50, 0
2, 35356, Note_on_c, 0, 58, 30
2, 35380, Note_on_c, 0, 53, 0
2, 35398, Note_on_c, 0, 58, 0
2, 35410, Note_on_c, 0, 50, 29
2, 35410, Note_on_c, 0, 82, 40
2, 35464, Note_on_c, 0, 53, 36
2, 35485, Note_on_c, 0, 50, 0
2, 35518, Note_on_c, 0, 70, 0
2, 35518, Note_on_c, 0, 58, 31
2, 35540, Note_on_c, 0, 82, 0
2, 35540, Note_on_c, 0, 53, 0
2, 35556, Note_on_c, 0, 58, 0
2, 35568, Note_on_c, 0, 50, 45
2, 35568, Note_on_c, 0, 82, 45
2, 35619, Note_on_c, 0, 53, 42
2, 35644, Note_on_c, 0, 50, 0
2, 35676, Note_on_c, 0, 53, 0
2, 35676, Note_on_c, 0, 58, 34
2, 35735, Note_on_c, 0, 58, 0
2, 35739, Note_on_c, 0, 51, 34
2, 35756, Note_on_c, 0, 81, 55
2, 35760, Note_on_c, 0, 82, 0
2, 35797, Control_c, 0, 64, 0
2, 35802, Note_on_c, 0, 55, 45
2, 35830, Note_on_c, 0, 79, 53
2, 35847, Note_on_c, 0, 81, 0
2, 35847, Control_c, 0, 64, 127
2, 35860, Note_on_c, 0, 51, 0
2, 35864, Note_on_c, 0, 58, 36
2, 35898, Note_on_c, 0, 55, 0
2, 35910, Note_on_c, 0, 58, 0
2, 35910, Note_on_c, 0, 77, 55
2, 35910, Note_on_c, 0, 51, 40
2, 35931, Note_on_c, 0, 79, 0
2, 35964, Note_on_c, 0, 55, 46
2, 35994, Note_on_c, 0, 77, 0
2, 36002, Note_on_c, 0, 75, 68
2, 36031, Note_on_c, 0, 51, 0
2, 36039, Note_on_c, 0, 58, 36
2, 36085, Note_on_c, 0, 58, 0
2, 36085, Note_on_c, 0, 55, 0
2, 36085, Note_on_c, 0, 51, 40
2, 36093, Note_on_c, 0, 75, 0
2, 36094, Note_on_c, 0, 74, 42
2, 36106, Note_on_c, 0, 74, 0
2, 36143, Note_on_c, 0, 55, 40
2, 36152, Note_on_c, 0, 51, 0
2, 36197, Note_on_c, 0, 60, 36
2, 36197, Note_on_c, 0, 72, 51
2, 36206, Note_on_c, 0, 55, 0
2, 36218, Note_on_c, 0, 72, 0
2, 36248, Note_on_c, 0, 60, 0
2, 36256, Note_on_c, 0, 53, 43
2, 36256, Note_on_c, 0, 72, 60
2, 36310, Control_c, 0, 64, 0
2, 36331, Note_on_c, 0, 58, 48
2, 36356, Control_c, 0, 64, 127
2, 36386, Note_on_c, 0, 53, 0
2, 36406, Note_on_c, 0, 72, 0
2, 36406, Note_on_c, 0, 70, 41
2, 36406, Note_on_c, 0, 62, 25
2, 36420, Note_on_c, 0, 72, 40
2, 36422, Note_on_c, 0, 58, 0
2, 36427, Note_on_c, 0, 70, 0
2, 36435, Note_on_c, 0, 72, 0
2, 36435, Note_on_c, 0, 70, 100
2, 36450, Note_on_c, 0, 70, 0
2, 36450, Note_on_c, 0, 72, 40
2, 36450, Note_on_c, 0, 53, 37
2, 36456, Note_on_c, 0, 62, 0
2, 36465, Note_on_c, 0, 72, 0
2, 36465, Note_on_c, 0, 70, 37
2, 36480, Note_on_c, 0, 70, 0
2, 36480, Note_on_c, 0, 72, 41
2, 36495, Note_on_c, 0, 72, 0
2, 36495, Note_on_c, 0, 70, 41
2, 36510, Note_on_c, 0, 70, 0
2, 36510, Note_on_c, 0, 72, 41
2, 36510, Note_on_c, 0, 58, 48
2, 36525, Note_on_c, 0, 58, 0
2, 36525, Note_on_c, 0, 72, 0
2, 36525, Note_on_c, 0, 70, 41
2, 36533, Note_on_c, 0, 72, 41
2, 36540, Note_on_c, 0, 70, 0
2, 36540, Note_on_c, 0, 70, 48
2, 36548, Note_on_c, 0, 72, 0
2, 36548, Note_on_c, 0, 62, 45
2, 36548, Note_on_c, 0, 69, 47
2, 36555, Note_on_c, 0, 70, 0
2, 36568, Note_on_c, 0, 70, 40
2, 36575, Note_on_c, 0, 53, 0
2, 36589, Note_on_c, 0, 62, 0
2, 36610, Note_on_c, 0, 70, 0
2, 36610, Note_on_c, 0, 72, 52
2, 36610, Note_on_c, 0, 53, 34
2, 36622, Note_on_c, 0, 69, 0
2, 36639, Control_c, 0, 64, 0
2, 36660, Note_on_c, 0, 60, 39
2, 36702, Note_on_c, 0, 53, 0
2, 36702, Control_c, 0, 64, 127
2, 36710, Note_on_c, 0, 69, 47
2, 36710, Note_on_c, 0, 63, 45
2, 36718, Note_on_c, 0, 72, 0
2, 36727, Note_on_c, 0, 60, 0
2, 36727, Note_on_c, 0, 63, 0
2, 36734, Note_on_c, 0, 69, 0
2, 36764, Note_on_c, 0, 55, 49
2, 36764, Note_on_c, 0, 70, 66
2, 36786, Control_c, 0, 64, 0
2, 36818, Note_on_c, 0, 58, 37
2, 36856, Control_c, 0, 64, 127
2, 36869, Note_on_c, 0, 55, 0
2, 36873, Note_on_c, 0, 62, 41
2, 36923, Note_on_c, 0, 53, 44
2, 36931, Note_on_c, 0, 62, 0
2, 36931, Note_on_c, 0, 58, 0
2, 36981, Note_on_c, 0, 58, 34
2, 36982, Control_c, 0, 64, 0
2, 37031, Note_on_c, 0, 53, 0
2, 37032, Control_c, 0, 64, 127
2, 37035, Note_on_c, 0, 62, 44
2, 37052, Note_on_c, 0, 58, 0
2, 37089, Note_on_c, 0, 62, 0
2, 37089, Note_on_c, 0, 51, 40
2, 37140, Control_c, 0, 64, 0
2, 37148, Note_on_c, 0, 55, 20
2, 37194, Control_c, 0, 64, 127
2, 37198, Note_on_c, 0, 51, 0
2, 37198, Note_on_c, 0, 60, 31
2, 37215, Note_on_c, 0, 70, 0
2, 37231, Note_on_c, 0, 55, 0
2, 37248, Note_on_c, 0, 60, 0
2, 37256, Note_on_c, 0, 70, 41
2, 37260, Note_on_c, 0, 50, 29
2, 37294, Control_c, 0, 64, 0
2, 37319, Note_on_c, 0, 53, 27
2, 37360, Control_c, 0, 64, 127
2, 37365, Note_on_c, 0, 50, 0
2, 37373, Note_on_c, 0, 58, 26
2, 37423, Note_on_c, 0, 53, 0
2, 37427, Note_on_c, 0, 58, 0
2, 37427, Note_on_c, 0, 82, 42
2, 37427, Note_on_c, 0, 50, 35
2, 37486, Note_on_c, 0, 53, 46
2, 37506, Note_on_c, 0, 50, 0
2, 37527, Note_on_c, 0, 82, 0
2, 37540, Note_on_c, 0, 58, 39
2, 37590, Note_on_c, 0, 53, 0
2, 37598, Note_on_c, 0, 58, 0
2, 37598, Note_on_c, 0, 50, 47
2, 37602, Note_on_c, 0, 82, 65
2, 37619, Note_on_c, 0, 70, 0
2, 37661, Note_on_c, 0, 53, 45
2, 37664, Note_on_c, 0, 50, 0
2, 37718, Note_on_c, 0, 53, 0
2, 37727, Note_on_c, 0, 58, 38
2, 37798, Note_on_c, 0, 58, 0
2, 37814, Note_on_c, 0, 51, 42
2, 37814, Note_on_c, 0, 81, 65
2, 37819, Note_on_c, 0, 82, 0
2, 37861, Control_c, 0, 64, 0
2, 37865, Note_on_c, 0, 55, 47
2, 37898, Note_on_c, 0, 79, 65
2, 37910, Note_on_c, 0, 81, 0
2, 37923, Control_c, 0, 64, 127
2, 37935, Note_on_c, 0, 58, 36
2, 37944, Note_on_c, 0, 51, 0
2, 37965, Note_on_c, 0, 55, 0
2, 37986, Note_on_c, 0, 58, 0
2, 37986, Note_on_c, 0, 51, 36
2, 37986, Note_on_c, 0, 77, 79
2, 37998, Note_on_c, 0, 79, 0
2, 38040, Note_on_c, 0, 55, 45
2, 38070, Note_on_c, 0, 75, 70
2, 38077, Note_on_c, 0, 77, 0
2, 38086, Note_on_c, 0, 51, 0
2, 38115, Note_on_c, 0, 58, 40
2, 38165, Note_on_c, 0, 58, 0
2, 38165, Note_on_c, 0, 55, 0
2, 38165, Note_on_c, 0, 75, 0
2, 38169, Note_on_c, 0, 51, 39
2, 38169, Note_on_c, 0, 74, 53
2, 38223, Note_on_c, 0, 55, 39
2, 38227, Note_on_c, 0, 51, 0
2, 38277, Note_on_c, 0, 55, 0
2, 38277, Note_on_c, 0, 72, 63
2, 38281, Note_on_c, 0, 60, 46
2, 38290, Note_on_c, 0, 74, 0
2, 38294, Note_on_c, 0, 72, 0
2, 38323, Note_on_c, 0, 60, 0
2, 38336, Note_on_c, 0, 72, 68
2, 38336, Note_on_c, 0, 53, 40
2, 38369, Control_c, 0, 64, 0
2, 38390, Note_on_c, 0, 58, 40
2, 38420, Control_c, 0, 64, 127
2, 38448, Note_on_c, 0, 62, 35
2, 38452, Note_on_c, 0, 53, 0
2, 38465, Note_on_c, 0, 72, 0
2, 38465, Note_on_c, 0, 70, 43
2, 38469, Note_on_c, 0, 58, 0
2, 38482, Note_on_c, 0, 70, 0
2, 38486, Note_on_c, 0, 72, 47
2, 38498, Note_on_c, 0, 53, 41
2, 38506, Note_on_c, 0, 72, 0
2, 38506, Note_on_c, 0, 62, 0
2, 38506, Note_on_c, 0, 70, 52
2, 38519, Note_on_c, 0, 70, 0
2, 38523, Note_on_c, 0, 72, 45
2, 38536, Note_on_c, 0, 58, 37
2, 38540, Note_on_c, 0, 72, 0
2, 38544, Note_on_c, 0, 70, 31
2, 38552, Note_on_c, 0, 70, 0
2, 38560, Note_on_c, 0, 72, 45
2, 38577, Note_on_c, 0, 70, 29
2, 38590, Note_on_c, 0, 53, 0
2, 38602, Note_on_c, 0, 70, 0
2, 38602, Note_on_c, 0, 72, 0
2, 38606, Note_on_c, 0, 69, 48
2, 38614, Note_on_c, 0, 62, 26
2, 38627, Note_on_c, 0, 70, 52
2, 38648, Note_on_c, 0, 58, 0
2, 38670, Note_on_c, 0, 72, 48
2, 38673, Note_on_c, 0, 70, 0
2, 38678, Note_on_c, 0, 62, 0
2, 38678, Note_on_c, 0, 53, 36
2, 38702, Control_c, 0, 64, 0
2, 38728, Note_on_c, 0, 69, 0
2, 38731, Note_on_c, 0, 60, 40
2, 38769, Control_c, 0, 64, 127
2, 38773, Note_on_c, 0, 53, 0
2, 38777, Note_on_c, 0, 63, 46
2, 38781, Note_on_c, 0, 72, 0
2, 38781, Note_on_c, 0, 69, 38
2, 38790, Note_on_c, 0, 60, 0
2, 38794, Note_on_c, 0, 69, 0
2, 38798, Note_on_c, 0, 63, 0
2, 38856, Note_on_c, 0, 68, 62
2, 38856, Note_on_c, 0, 80, 66
2, 38856, Note_on_c, 0, 53, 52
2, 38873, Control_c, 0, 64, 0
2, 38915, Note_on_c, 0, 59, 52
2, 38923, Control_c, 0, 64, 127
2, 38961, Note_on_c, 0, 53, 0
2, 38961, Note_on_c, 0, 62, 53
2, 38969, Note_on_c, 0, 68, 0
2, 38973, Note_on_c, 0, 80, 0
2, 38982, Note_on_c, 0, 59, 0
2, 39006, Note_on_c, 0, 62, 0
2, 39006, Note_on_c, 0, 79, 60
2, 39006, Note_on_c, 0, 67, 56
2, 39006, Note_on_c, 0, 51, 56
2, 39040, Control_c, 0, 64, 0
2, 39061, Note_on_c, 0, 55, 53
2, 39073, Note_on_c, 0, 51, 0
2, 39082, Control_c, 0, 64, 127
2, 39094, Note_on_c, 0, 67, 0
2, 39097, Note_on_c, 0, 79, 0
2, 39106, Note_on_c, 0, 60, 52
2, 39160, Note_on_c, 0, 60, 0
2, 39161, Note_on_c, 0, 55, 0
2, 39165, Note_on_c, 0, 52, 55
2, 39165, Note_on_c, 0, 70, 51
2, 39165, Note_on_c, 0, 82, 53
2, 39190, Control_c, 0, 64, 0
2, 39215, Note_on_c, 0, 58, 44
2, 39244, Control_c, 0, 64, 127
2, 39257, Note_on_c, 0, 52, 0
2, 39274, Note_on_c, 0, 61, 31
2, 39286, Note_on_c, 0, 82, 0
2, 39294, Note_on_c, 0, 70, 0
2, 39294, Note_on_c, 0, 61, 0
2, 39307, Note_on_c, 0, 58, 0
2, 39332, Note_on_c, 0, 74, 45
2, 39332, Note_on_c, 0, 53, 42
2, 39357, Control_c, 0, 64, 0
2, 39390, Note_on_c, 0, 74, 0
2, 39394, Note_on_c, 0, 75, 39
2, 39398, Note_on_c, 0, 58, 36
2, 39410, Note_on_c, 0, 75, 0
2, 39411, Note_on_c, 0, 74, 44
2, 39411, Control_c, 0, 64, 127
2, 39419, Note_on_c, 0, 53, 0
2, 39428, Note_on_c, 0, 74, 0
2, 39431, Note_on_c, 0, 75, 45
2, 39444, Note_on_c, 0, 74, 49
2, 39448, Note_on_c, 0, 75, 0
2, 39448, Note_on_c, 0, 62, 38
2, 39461, Note_on_c, 0, 74, 0
2, 39461, Note_on_c, 0, 75, 42
2, 39469, Note_on_c, 0, 58, 0
2, 39474, Note_on_c, 0, 74, 50
2, 39477, Note_on_c, 0, 75, 0
2, 39490, Note_on_c, 0, 74, 0
2, 39490, Note_on_c, 0, 62, 0
2, 39490, Note_on_c, 0, 75, 45
2, 39490, Note_on_c, 0, 53, 48
2, 39506, Note_on_c, 0, 75, 0
2, 39506, Note_on_c, 0, 74, 46
2, 39519, Note_on_c, 0, 74, 0
2, 39524, Note_on_c, 0, 75, 46
2, 39532, Note_on_c, 0, 58, 38
2, 39540, Note_on_c, 0, 75, 0
2, 39540, Note_on_c, 0, 74, 37
2, 39555, Note_on_c, 0, 74, 0
2, 39561, Note_on_c, 0, 53, 0
2, 39561, Note_on_c, 0, 75, 44
2, 39582, Note_on_c, 0, 74, 46
2, 39590, Note_on_c, 0, 75, 0
2, 39590, Note_on_c, 0, 62, 37
2, 39602, Note_on_c, 0, 74, 0
2, 39603, Note_on_c, 0, 72, 45
2, 39627, Note_on_c, 0, 74, 52
2, 39636, Note_on_c, 0, 72, 0
2, 39640, Note_on_c, 0, 62, 0
2, 39653, Note_on_c, 0, 58, 0
2, 39656, Note_on_c, 0, 75, 49
2, 39661, Note_on_c, 0, 53, 39
2, 39669, Note_on_c, 0, 74, 0
2, 39703, Control_c, 0, 64, 0
2, 39715, Note_on_c, 0, 60, 36
2, 39757, Control_c, 0, 64, 127
2, 39765, Note_on_c, 0, 63, 38
2, 39765, Note_on_c, 0, 72, 52
2, 39774, Note_on_c, 0, 53, 0
2, 39774, Note_on_c, 0, 75, 0
2, 39778, Note_on_c, 0, 72, 0
2, 39782, Note_on_c, 0, 60, 0
2, 39786, Note_on_c, 0, 63, 0
2, 39824, Note_on_c, 0, 53, 54
2, 39824, Note_on_c, 0, 68, 63
2, 39824, Note_on_c, 0, 80, 63
2, 39840, Control_c, 0, 64, 0
2, 39878, Note_on_c, 0, 59, 47
2, 39886, Control_c, 0, 64, 127
2, 39924, Note_on_c, 0, 62, 47
2, 39928, Note_on_c, 0, 53, 0
2, 39936, Note_on_c, 0, 80, 0
2, 39937, Note_on_c, 0, 68, 0
2, 39948, Note_on_c, 0, 59, 0
2, 39974, Note_on_c, 0, 62, 0
2, 39974, Note_on_c, 0, 51, 55
2, 39974, Note_on_c, 0, 67, 55
2, 39974, Note_on_c, 0, 79, 54
2, 40003, Control_c, 0, 64, 0
2, 40032, Note_on_c, 0, 55, 45
2, 40057, Note_on_c, 0, 51, 0
2, 40065, Control_c, 0, 64, 127
2, 40078, Note_on_c, 0, 67, 0
2, 40082, Note_on_c, 0, 60, 39
2, 40086, Note_on_c, 0, 79, 0
2, 40145, Note_on_c, 0, 60, 0
2, 40145, Note_on_c, 0, 55, 0
2, 40145, Note_on_c, 0, 82, 53
2, 40145, Note_on_c, 0, 52, 50
2, 40145, Note_on_c, 0, 70, 46
2, 40169, Control_c, 0, 64, 0
2, 40207, Note_on_c, 0, 58, 37
2, 40261, Control_c, 0, 64, 127
2, 40270, Note_on_c, 0, 61, 36
2, 40273, Note_on_c, 0, 52, 0
2, 40290, Note_on_c, 0, 82, 0
2, 40294, Note_on_c, 0, 58, 0
2, 40294, Note_on_c, 0, 70, 0
2, 40294, Note_on_c, 0, 61, 0
2, 40344, Control_c, 0, 64, 0
2, 40345, Note_on_c, 0, 53, 46
2, 40345, Note_on_c, 0, 74, 45
2, 40403, Note_on_c, 0, 75, 39
2, 40407, Note_on_c, 0, 74, 0
2, 40415, Note_on_c, 0, 58, 39
2, 40432, Note_on_c, 0, 75, 0
2, 40432, Note_on_c, 0, 74, 42
2, 40444, Control_c, 0, 64, 127
2, 40448, Note_on_c, 0, 74, 0
2, 40448, Note_on_c, 0, 75, 40
2, 40470, Note_on_c, 0, 75, 0
2, 40470, Note_on_c, 0, 74, 42
2, 40470, Note_on_c, 0, 62, 40
2, 40478, Note_on_c, 0, 58, 0
2, 40486, Note_on_c, 0, 74, 0
2, 40487, Note_on_c, 0, 53, 0
2, 40490, Note_on_c, 0, 75, 45
2, 40503, Note_on_c, 0, 74, 53
2, 40507, Note_on_c, 0, 75, 0
2, 40524, Note_on_c, 0, 74, 0
2, 40528, Note_on_c, 0, 53, 54
2, 40528, Note_on_c, 0, 75, 47
2, 40532, Note_on_c, 0, 62, 0
2, 40544, Note_on_c, 0, 74, 44
2, 40548, Note_on_c, 0, 75, 0
2, 40566, Note_on_c, 0, 75, 42
2, 40569, Note_on_c, 0, 74, 0
2, 40578, Note_on_c, 0, 58, 48
2, 40590, Note_on_c, 0, 75, 0
2, 40590, Note_on_c, 0, 74, 33
2, 40612, Note_on_c, 0, 74, 0
2, 40612, Note_on_c, 0, 75, 42
2, 40628, Note_on_c, 0, 62, 45
2, 40636, Note_on_c, 0, 53, 0
2, 40636, Note_on_c, 0, 74, 45
2, 40649, Note_on_c, 0, 75, 0
2, 40657, Note_on_c, 0, 74, 0
2, 40661, Note_on_c, 0, 72, 49
2, 40686, Note_on_c, 0, 74, 47
2, 40698, Note_on_c, 0, 72, 0
2, 40699, Note_on_c, 0, 62, 0
2, 40699, Note_on_c, 0, 58, 0
2, 40715, Note_on_c, 0, 53, 42
2, 40715, Note_on_c, 0, 75, 40
2, 40723, Note_on_c, 0, 74, 0
2, 40753, Control_c, 0, 64, 0
2, 40770, Note_on_c, 0, 60, 40
2, 40820, Note_on_c, 0, 63, 51
2, 40820, Note_on_c, 0, 72, 48
2, 40820, Control_c, 0, 64, 127
2, 40828, Note_on_c, 0, 75, 0
2, 40832, Note_on_c, 0, 72, 0
2, 40836, Note_on_c, 0, 63, 0
2, 40840, Note_on_c, 0, 60, 0
2, 40848, Note_on_c, 0, 53, 0
2, 40874, Note_on_c, 0, 70, 60
2, 40874, Note_on_c, 0, 62, 47
2, 40874, Note_on_c, 0, 58, 51
2, 40890, Control_c, 0, 64, 0
2, 40928, Note_on_c, 0, 74, 57
2, 40941, Note_on_c, 0, 70, 0
2, 40966, Control_c, 0, 64, 127
2, 40982, Note_on_c, 0, 77, 53
2, 40994, Note_on_c, 0, 74, 0
2, 41024, Note_on_c, 0, 77, 0
2, 41028, Note_on_c, 0, 82, 40
2, 41044, Note_on_c, 0, 62, 0
2, 41057, Note_on_c, 0, 82, 0
2, 41057, Note_on_c, 0, 58, 0
2, 41074, Note_on_c, 0, 77, 51
2, 41128, Note_on_c, 0, 77, 0
2, 41128, Note_on_c, 0, 74, 45
2, 41178, Note_on_c, 0, 75, 48
2, 41178, Note_on_c, 0, 41, 46
2, 41178, Note_on_c, 0, 53, 45
2, 41182, Control_c, 0, 64, 0
2, 41190, Note_on_c, 0, 74, 0
2, 41236, Note_on_c, 0, 41, 0
2, 41236, Control_c, 0, 64, 127
2, 41240, Note_on_c, 0, 72, 44
2, 41253, Note_on_c, 0, 75, 0
2, 41253, Note_on_c, 0, 53, 0
2, 41286, Note_on_c, 0, 72, 0
2, 41290, Note_on_c, 0, 69, 54
2, 41340, Note_on_c, 0, 69, 0
2, 41341, Note_on_c, 0, 46, 53
2, 41341, Note_on_c, 0, 58, 47
2, 41341, Note_on_c, 0, 70, 54
2, 41345, Control_c, 0, 64, 0
2, 41378, Control_c, 0, 64, 127
2, 41382, Note_on_c, 0, 58, 0
2, 41391, Note_on_c, 0, 74, 55
2, 41399, Note_on_c, 0, 46, 0
2, 41411, Note_on_c, 0, 70, 0
2, 41441, Note_on_c, 0, 65, 53
2, 41465, Note_on_c, 0, 74, 0
2, 41487, Note_on_c, 0, 74, 16
2, 41487, Note_on_c, 0, 70, 55
2, 41487, Note_on_c, 0, 50, 45
2, 41487, Note_on_c, 0, 38, 35
2, 41499, Note_on_c, 0, 65, 0
2, 41499, Control_c, 0, 64, 0
2, 41529, Note_on_c, 0, 74, 0
2, 41532, Control_c, 0, 64, 127
2, 41541, Note_on_c, 0, 70, 0
2, 41541, Note_on_c, 0, 65, 50
2, 41549, Note_on_c, 0, 38, 0
2, 41558, Note_on_c, 0, 50, 0
2, 41591, Note_on_c, 0, 62, 37
2, 41595, Note_on_c, 0, 65, 0
2, 41636, Note_on_c, 0, 62, 0
2, 41636, Note_on_c, 0, 41, 45
2, 41636, Note_on_c, 0, 53, 40
2, 41636, Note_on_c, 0, 63, 46
2, 41645, Control_c, 0, 64, 0
2, 41670, Control_c, 0, 64, 127
2, 41682, Note_on_c, 0, 53, 0
2, 41686, Note_on_c, 0, 60, 43
2, 41694, Note_on_c, 0, 41, 0
2, 41695, Note_on_c, 0, 63, 0
2, 41736, Note_on_c, 0, 60, 0
2, 41737, Note_on_c, 0, 57, 39
2, 41766, Control_c, 0, 64, 0
2, 41795, Note_on_c, 0, 57, 0
2, 41795, Note_on_c, 0, 34, 46
2, 41795, Note_on_c, 0, 46, 37
2, 41795, Note_on_c, 0, 58, 46
2, 41828, Control_c, 0, 64, 127
2, 41853, Note_on_c, 0, 34, 0
2, 41857, Note_on_c, 0, 58, 0
2, 41857, Note_on_c, 0, 46, 0
2, 42082, Control_c, 0, 64, 0
2, 42112, Note_on_c, 0, 50, 25
2, 42112, Note_on_c, 0, 53, 31
2, 42112, Note_on_c, 0, 58, 40
2, 42116, Note_on_c, 0, 46, 25
2, 42132, Note_on_c, 0, 50, 0
2, 42133, Note_on_c, 0, 46, 0
2, 42137, Note_on_c, 0, 58, 0
2, 42137, Note_on_c, 0, 53, 0
2, 42261, Note_on_c, 0, 58, 26
2, 42261, Note_on_c, 0, 53, 27
2, 42261, Note_on_c, 0, 50, 26
2, 42261, Note_on_c, 0, 46, 28
2, 42370, Control_c, 0, 64, 127
2, 42452, Note_on_c, 0, 53, 0
2, 42490, Note_on_c, 0, 58, 0
2, 42603, Note_on_c, 0, 50, 0
2, 42628, Note_on_c, 0, 46, 0
2, 42778, Control_c, 0, 64, 127
2, 42937, Control_c, 0, 64, 0
2, 42941, Note_on_c, 0, 46, 35
2, 42941, Note_on_c, 0, 58, 30
2, 42996, Note_on_c, 0, 69, 40
2, 43008, Control_c, 0, 64, 127
2, 43041, Note_on_c, 0, 70, 39
2, 43091, Note_on_c, 0, 72, 52
2, 43099, Note_on_c, 0, 70, 0
2, 43099, Note_on_c, 0, 69, 0
2, 43141, Note_on_c, 0, 69, 45
2, 43183, Note_on_c, 0, 70, 54
2, 43187, Note_on_c, 0, 46, 0
2, 43195, Note_on_c, 0, 72, 0
2, 43212, Note_on_c, 0, 58, 0
2, 43233, Note_on_c, 0, 72, 53
2, 43237, Note_on_c, 0, 70, 0
2, 43245, Note_on_c, 0, 69, 0
2, 43287, Note_on_c, 0, 69, 46
2, 43333, Note_on_c, 0, 70, 44
2, 43337, Note_on_c, 0, 72, 0
2, 43345, Note_on_c, 0, 69, 0
2, 43350, Note_on_c, 0, 70, 0
2, 43395, Note_on_c, 0, 58, 40
2, 43395, Note_on_c, 0, 82, 53
2, 43445, Note_on_c, 0, 62, 45
2, 43454, Control_c, 0, 64, 0
2, 43487, Control_c, 0, 64, 127
2, 43495, Note_on_c, 0, 65, 37
2, 43503, Note_on_c, 0, 58, 0
2, 43512, Note_on_c, 0, 62, 0
2, 43545, Note_on_c, 0, 58, 42
2, 43562, Note_on_c, 0, 65, 0
2, 43591, Note_on_c, 0, 63, 36
2, 43633, Note_on_c, 0, 67, 42
2, 43678, Note_on_c, 0, 58, 52
2, 43678, Note_on_c, 0, 65, 44
2, 43678, Note_on_c, 0, 74, 52
2, 43683, Note_on_c, 0, 67, 0
2, 43687, Note_on_c, 0, 63, 0
2, 43695, Note_on_c, 0, 82, 0
2, 43708, Note_on_c, 0, 58, 0
2, 43716, Note_on_c, 0, 75, 41
2, 43716, Note_on_c, 0, 65, 52
2, 43731, Note_on_c, 0, 75, 0
2, 43732, Note_on_c, 0, 74, 41
2, 43733, Note_on_c, 0, 74, 0
2, 43737, Note_on_c, 0, 65, 0
2, 43746, Note_on_c, 0, 58, 0
2, 43746, Note_on_c, 0, 65, 0
2, 43747, Note_on_c, 0, 74, 0
2, 43754, Note_on_c, 0, 68, 32
2, 43754, Note_on_c, 0, 72, 47
2, 43778, Note_on_c, 0, 74, 44
2, 43783, Note_on_c, 0, 68, 0
2, 43795, Note_on_c, 0, 72, 0
2, 43830, Note_on_c, 0, 75, 40
2, 43830, Note_on_c, 0, 67, 46
2, 43830, Note_on_c, 0, 63, 42
2, 43830, Note_on_c, 0, 58, 45
2, 43833, Note_on_c, 0, 74, 0
2, 43875, Note_on_c, 0, 69, 55
2, 43879, Control_c, 0, 64, 0
2, 43884, Note_on_c, 0, 75, 0
2, 43916, Note_on_c, 0, 70, 47
2, 43950, Note_on_c, 0, 69, 0
2, 43966, Note_on_c, 0, 70, 0
2, 43966, Note_on_c, 0, 72, 52
2, 43966, Control_c, 0, 64, 127
2, 44012, Note_on_c, 0, 69, 48
2, 44058, Note_on_c, 0, 70, 57
2, 44066, Note_on_c, 0, 72, 0
2, 44108, Note_on_c, 0, 70, 0
2, 44108, Note_on_c, 0, 72, 55
2, 44112, Note_on_c, 0, 69, 0
2, 44154, Note_on_c, 0, 69, 45
2, 44204, Note_on_c, 0, 70, 66
2, 44208, Note_on_c, 0, 72, 0
2, 44209, Note_on_c, 0, 58, 0
2, 44212, Note_on_c, 0, 69, 0
2, 44221, Note_on_c, 0, 63, 0
2, 44221, Note_on_c, 0, 70, 0
2, 44221, Note_on_c, 0, 67, 0
2, 44258, Note_on_c, 0, 58, 53
2, 44258, Note_on_c, 0, 82, 63
2, 44308, Note_on_c, 0, 63, 46
2, 44321, Control_c, 0, 64, 0
2, 44354, Note_on_c, 0, 58, 0
2, 44354, Note_on_c, 0, 67, 45
2, 44362, Control_c, 0, 64, 127
2, 44400, Note_on_c, 0, 58, 54
2, 44408, Note_on_c, 0, 63, 0
2, 44416, Note_on_c, 0, 67, 0
2, 44446, Note_on_c, 0, 65, 46
2, 44492, Note_on_c, 0, 68, 47
2, 44500, Note_on_c, 0, 65, 0
2, 44512, Note_on_c, 0, 58, 0
2, 44537, Note_on_c, 0, 58, 55
2, 44542, Note_on_c, 0, 82, 0
2, 44542, Note_on_c, 0, 68, 0
2, 44542, Note_on_c, 0, 76, 48
2, 44558, Note_on_c, 0, 77, 48
2, 44587, Note_on_c, 0, 67, 35
2, 44592, Note_on_c, 0, 77, 0
2, 44600, Note_on_c, 0, 76, 0
2, 44604, Note_on_c, 0, 74, 47
2, 44625, Note_on_c, 0, 67, 0
2, 44629, Note_on_c, 0, 76, 45
2, 44642, Note_on_c, 0, 58, 0
2, 44650, Note_on_c, 0, 74, 0
2, 44687, Note_on_c, 0, 77, 54
2, 44687, Note_on_c, 0, 68, 43
2, 44687, Note_on_c, 0, 62, 59
2, 44687, Note_on_c, 0, 58, 49
2, 44691, Note_on_c, 0, 76, 0
2, 44738, Note_on_c, 0, 77, 0
2, 44742, Note_on_c, 0, 69, 48
2, 44750, Control_c, 0, 64, 0
2, 44787, Note_on_c, 0, 70, 55
2, 44792, Note_on_c, 0, 69, 0
2, 44817, Control_c, 0, 64, 127
2, 44833, Note_on_c, 0, 72, 57
2, 44837, Note_on_c, 0, 70, 0
2, 44879, Note_on_c, 0, 69, 53
2, 44925, Note_on_c, 0, 70, 63
2, 44933, Note_on_c, 0, 72, 0
2, 44971, Note_on_c, 0, 70, 0
2, 44971, Note_on_c, 0, 72, 54
2, 44975, Note_on_c, 0, 69, 0
2, 45021, Note_on_c, 0, 69, 43
2, 45066, Note_on_c, 0, 70, 72
2, 45070, Note_on_c, 0, 72, 0
2, 45075, Note_on_c, 0, 69, 0
2, 45075, Note_on_c, 0, 62, 0
2, 45075, Note_on_c, 0, 58, 0
2, 45075, Note_on_c, 0, 68, 0
2, 45079, Note_on_c, 0, 70, 0
2, 45117, Note_on_c, 0, 58, 50
2, 45120, Note_on_c, 0, 82, 63
2, 45162, Note_on_c, 0, 65, 50
2, 45171, Control_c, 0, 64, 0
2, 45204, Control_c, 0, 64, 127
2, 45208, Note_on_c, 0, 58, 0
2, 45208, Note_on_c, 0, 68, 51
2, 45242, Note_on_c, 0, 68, 0
2, 45246, Note_on_c, 0, 65, 0
2, 45254, Note_on_c, 0, 58, 50
2, 45300, Note_on_c, 0, 63, 45
2, 45315, Note_on_c, 0, 58, 0
2, 45323, Note_on_c, 0, 63, 0
2, 45342, Note_on_c, 0, 67, 42
2, 45357, Note_on_c, 0, 67, 0
2, 45366, Note_on_c, 0, 82, 0
2, 45396, Note_on_c, 0, 77, 41
2, 45396, Note_on_c, 0, 65, 36
2, 45396, Note_on_c, 0, 58, 35
2, 45396, Note_on_c, 0, 62, 33
2, 45406, Note_on_c, 0, 62, 0
2, 45406, Note_on_c, 0, 77, 0
2, 45406, Note_on_c, 0, 65, 0
2, 45406, Note_on_c, 0, 58, 0
2, 45408, Note_on_c, 0, 79, 40
2, 45418, Note_on_c, 0, 79, 0
2, 45425, Note_on_c, 0, 77, 40
2, 45435, Note_on_c, 0, 77, 0
2, 45442, Note_on_c, 0, 79, 40
2, 45452, Note_on_c, 0, 79, 0
2, 45458, Note_on_c, 0, 77, 40
2, 45468, Note_on_c, 0, 77, 0
2, 45480, Note_on_c, 0, 79, 40
2, 45490, Note_on_c, 0, 79, 0
2, 45496, Note_on_c, 0, 77, 30
2, 45501, Note_on_c, 0, 77, 0
2, 45533, Note_on_c, 0, 57, 55
2, 45533, Note_on_c, 0, 63, 57
2, 45548, Note_on_c, 0, 63, 0
2, 45548, Note_on_c, 0, 57, 0
2, 45558, Control_c, 0, 64, 0
2, 45646, Control_c, 0, 64, 127
2, 45667, Note_on_c, 0, 78, 47
2, 45708, Note_on_c, 0, 78, 0
2, 45800, Note_on_c, 0, 77, 45
2, 45871, Note_on_c, 0, 77, 0
2, 45871, Note_on_c, 0, 75, 28
2, 45904, Control_c, 0, 64, 0
2, 45934, Control_c, 0, 64, 127
2, 45938, Note_on_c, 0, 59, 50
2, 45938, Note_on_c, 0, 63, 50
2, 45954, Note_on_c, 0, 75, 0
2, 45959, Note_on_c, 0, 63, 0
2, 45959, Note_on_c, 0, 59, 0
2, 45988, Control_c, 0, 64, 0
2, 46071, Note_on_c, 0, 75, 30
2, 46150, Control_c, 0, 64, 127
2, 46192, Note_on_c, 0, 73, 40
2, 46225, Note_on_c, 0, 75, 0
2, 46254, Note_on_c, 0, 73, 0
2, 46258, Note_on_c, 0, 71, 38
2, 46317, Note_on_c, 0, 71, 0
2, 46317, Note_on_c, 0, 58, 36
2, 46317, Note_on_c, 0, 62, 36
2, 46321, Control_c, 0, 64, 0
2, 46371, Control_c, 0, 64, 127
2, 46388, Note_on_c, 0, 69, 49
2, 46446, Note_on_c, 0, 72, 45
2, 46458, Note_on_c, 0, 69, 0
2, 46504, Note_on_c, 0, 70, 40
2, 46509, Note_on_c, 0, 72, 0
2, 46516, Note_on_c, 0, 70, 0
2, 46567, Note_on_c, 0, 75, 40
2, 46604, Control_c, 0, 64, 0
2, 46630, Note_on_c, 0, 74, 35
2, 46634, Note_on_c, 0, 75, 0
2, 46638, Control_c, 0, 64, 127
2, 46692, Note_on_c, 0, 77, 40
2, 46725, Note_on_c, 0, 77, 0
2, 46771, Note_on_c, 0, 74, 0
2, 46813, Note_on_c, 0, 81, 49
2, 46842, Note_on_c, 0, 81, 0
2, 46938, Note_on_c, 0, 82, 48
2, 47055, Note_on_c, 0, 70, 53
2, 47058, Note_on_c, 0, 82, 0
2, 47075, Note_on_c, 0, 70, 0
2, 47088, Note_on_c, 0, 62, 0
2, 47093, Note_on_c, 0, 58, 0
2, 47300, Note_on_c, 0, 68, 55
2, 47300, Note_on_c, 0, 62, 47
2, 47300, Note_on_c, 0, 53, 46
2, 47300, Note_on_c, 0, 46, 51
2, 47317, Note_on_c, 0, 53, 0
2, 47322, Note_on_c, 0, 68, 0
2, 47322, Note_on_c, 0, 62, 0
2, 47322, Note_on_c, 0, 46, 0
2, 47326, Control_c, 0, 64, 0
2, 47450, Note_on_c, 0, 53, 29
2, 47450, Note_on_c, 0, 68, 40
2, 47452, Note_on_c, 0, 62, 36
2, 47454, Note_on_c, 0, 46, 32
2, 47517, Control_c, 0, 64, 127
2, 47738, Note_on_c, 0, 62, 0
2, 47738, Note_on_c, 0, 53, 0
2, 47746, Note_on_c, 0, 68, 0
2, 47754, Note_on_c, 0, 46, 0
2, 47942, Control_c, 0, 64, 0
2, 48034, Note_on_c, 0, 39, 55
2, 48034, Note_on_c, 0, 51, 49
2, 48176, Note_on_c, 0, 82, 68
2, 48176, Note_on_c, 0, 79, 57
2, 48177, Control_c, 0, 64, 127
2, 48230, Note_on_c, 0, 82, 0
2, 48230, Note_on_c, 0, 84, 52
2, 48234, Note_on_c, 0, 79, 0
2, 48263, Note_on_c, 0, 51, 0
2, 48272, Note_on_c, 0, 39, 0
2, 48272, Note_on_c, 0, 82, 55
2, 48276, Note_on_c, 0, 84, 0
2, 48288, Note_on_c, 0, 82, 0
2, 48317, Note_on_c, 0, 77, 53
2, 48317, Note_on_c, 0, 80, 60
2, 48351, Control_c, 0, 64, 0
2, 48358, Note_on_c, 0, 80, 0
2, 48363, Note_on_c, 0, 82, 54
2, 48384, Control_c, 0, 64, 127
2, 48404, Note_on_c, 0, 80, 55
2, 48413, Note_on_c, 0, 82, 0
2, 48413, Note_on_c, 0, 77, 0
2, 48438, Note_on_c, 0, 80, 0
2, 48446, Note_on_c, 0, 79, 59
2, 48446, Note_on_c, 0, 75, 43
2, 48488, Note_on_c, 0, 79, 0
2, 48492, Note_on_c, 0, 75, 0
2, 48492, Note_on_c, 0, 80, 49
2, 48530, Note_on_c, 0, 79, 55
2, 48538, Note_on_c, 0, 80, 0
2, 48547, Note_on_c, 0, 79, 0
2, 48576, Note_on_c, 0, 77, 60
2, 48576, Note_on_c, 0, 74, 47
2, 48622, Note_on_c, 0, 79, 40
2, 48626, Note_on_c, 0, 74, 0
2, 48630, Note_on_c, 0, 77, 0
2, 48664, Note_on_c, 0, 77, 48
2, 48667, Note_on_c, 0, 79, 0
2, 48680, Note_on_c, 0, 77, 0
2, 48709, Note_on_c, 0, 75, 62
2, 48709, Note_on_c, 0, 72, 56
2, 48734, Control_c, 0, 64, 0
2, 48749, Note_on_c, 0, 75, 0
2, 48755, Note_on_c, 0, 77, 37
2, 48759, Control_c, 0, 64, 127
2, 48797, Note_on_c, 0, 77, 0
2, 48797, Note_on_c, 0, 75, 44
2, 48809, Note_on_c, 0, 72, 0
2, 48842, Note_on_c, 0, 75, 0
2, 48846, Note_on_c, 0, 74, 55
2, 48846, Note_on_c, 0, 70, 46
2, 48887, Note_on_c, 0, 74, 0
2, 48888, Note_on_c, 0, 70, 0
2, 48893, Note_on_c, 0, 75, 28
2, 48939, Note_on_c, 0, 75, 0
2, 48939, Note_on_c, 0, 74, 46
2, 48950, Note_on_c, 0, 74, 0
2, 48984, Note_on_c, 0, 68, 43
2, 48984, Note_on_c, 0, 72, 55
2, 49026, Note_on_c, 0, 68, 0
2, 49030, Note_on_c, 0, 74, 47
2, 49042, Note_on_c, 0, 72, 0
2, 49076, Note_on_c, 0, 74, 0
2, 49076, Note_on_c, 0, 72, 44
2, 49088, Note_on_c, 0, 72, 0
2, 49130, Note_on_c, 0, 67, 47
2, 49130, Note_on_c, 0, 70, 53
2, 49130, Note_on_c, 0, 63, 43
2, 49168, Control_c, 0, 64, 0
2, 49188, Note_on_c, 0, 65, 54
2, 49192, Note_on_c, 0, 63, 0
2, 49205, Control_c, 0, 64, 127
2, 49230, Note_on_c, 0, 63, 46
2, 49234, Note_on_c, 0, 65, 0
2, 49238, Note_on_c, 0, 67, 0
2, 49276, Note_on_c, 0, 63, 0
2, 49276, Note_on_c, 0, 65, 57
2, 49276, Note_on_c, 0, 62, 52
2, 49305, Control_c, 0, 64, 0
2, 49322, Note_on_c, 0, 63, 57
2, 49326, Note_on_c, 0, 62, 0
2, 49334, Control_c, 0, 64, 127
2, 49351, Note_on_c, 0, 65, 0
2, 49364, Note_on_c, 0, 63, 0
2, 49364, Note_on_c, 0, 62, 54
2, 49405, Note_on_c, 0, 63, 48
2, 49405, Note_on_c, 0, 60, 63
2, 49409, Note_on_c, 0, 62, 0
2, 49430, Control_c, 0, 64, 0
2, 49446, Note_on_c, 0, 60, 0
2, 49447, Note_on_c, 0, 62, 53
2, 49459, Control_c, 0, 64, 127
2, 49468, Note_on_c, 0, 63, 0
2, 49489, Note_on_c, 0, 60, 53
2, 49492, Note_on_c, 0, 62, 0
2, 49501, Note_on_c, 0, 60, 0
2, 49530, Note_on_c, 0, 62, 55
2, 49530, Note_on_c, 0, 58, 68
2, 49555, Control_c, 0, 64, 0
2, 49576, Note_on_c, 0, 58, 0
2, 49576, Note_on_c, 0, 60, 55
2, 49596, Control_c, 0, 64, 127
2, 49613, Note_on_c, 0, 58, 60
2, 49626, Note_on_c, 0, 60, 0
2, 49660, Note_on_c, 0, 56, 56
2, 49668, Note_on_c, 0, 58, 0
2, 49702, Note_on_c, 0, 58, 56
2, 49705, Note_on_c, 0, 56, 0
2, 49714, Note_on_c, 0, 62, 0
2, 49742, Note_on_c, 0, 56, 56
2, 49759, Note_on_c, 0, 58, 0
2, 49793, Note_on_c, 0, 56, 0
2, 49794, Note_on_c, 0, 55, 59
2, 49794, Note_on_c, 0, 63, 48
2, 49794, Note_on_c, 0, 72, 63
2, 49801, Note_on_c, 0, 70, 0
2, 49834, Note_on_c, 0, 56, 51
2, 49838, Control_c, 0, 64, 0
2, 49844, Note_on_c, 0, 55, 0
2, 49872, Control_c, 0, 64, 127
2, 49876, Note_on_c, 0, 55, 56
2, 49884, Note_on_c, 0, 56, 0
2, 49901, Note_on_c, 0, 55, 0
2, 49902, Note_on_c, 0, 63, 0
2, 49918, Note_on_c, 0, 72, 0
2, 49926, Note_on_c, 0, 53, 50
2, 49926, Note_on_c, 0, 65, 52
2, 49926, Note_on_c, 0, 74, 63
2, 49968, Control_c, 0, 64, 0
2, 49976, Note_on_c, 0, 55, 47
2, 49992, Note_on_c, 0, 53, 0
2, 50002, Control_c, 0, 64, 127
2, 50014, Note_on_c, 0, 65, 0
2, 50018, Note_on_c, 0, 53, 45
2, 50026, Note_on_c, 0, 74, 0
2, 50026, Note_on_c, 0, 55, 0
2, 50038, Note_on_c, 0, 53, 0
2, 50072, Note_on_c, 0, 75, 42
2, 50072, Note_on_c, 0, 67, 33
2, 50072, Note_on_c, 0, 51, 51
2, 50105, Control_c, 0, 64, 0
2, 50114, Note_on_c, 0, 79, 53
2, 50125, Note_on_c, 0, 75, 0
2, 50155, Note_on_c, 0, 77, 49
2, 50163, Control_c, 0, 64, 127
2, 50171, Note_on_c, 0, 67, 0
2, 50176, Note_on_c, 0, 79, 0
2, 50197, Note_on_c, 0, 51, 0
2, 50197, Note_on_c, 0, 60, 52
2, 50197, Note_on_c, 0, 75, 51
2, 50210, Note_on_c, 0, 77, 0
2, 50243, Note_on_c, 0, 74, 49
2, 50247, Note_on_c, 0, 75, 0
2, 50285, Note_on_c, 0, 75, 39
2, 50288, Note_on_c, 0, 74, 0
2, 50297, Note_on_c, 0, 75, 0
2, 50314, Note_on_c, 0, 60, 0
2, 50326, Note_on_c, 0, 56, 40
2, 50326, Note_on_c, 0, 68, 49
2, 50326, Note_on_c, 0, 72, 56
2, 50368, Note_on_c, 0, 74, 56
2, 50372, Note_on_c, 0, 72, 0
2, 50410, Note_on_c, 0, 72, 49
2, 50414, Note_on_c, 0, 68, 0
2, 50422, Note_on_c, 0, 74, 0
2, 50443, Control_c, 0, 64, 0
2, 50455, Note_on_c, 0, 58, 46
2, 50455, Note_on_c, 0, 67, 49
2, 50455, Note_on_c, 0, 70, 60
2, 50464, Note_on_c, 0, 72, 0
2, 50468, Note_on_c, 0, 56, 0
2, 50497, Note_on_c, 0, 60, 50
2, 50501, Note_on_c, 0, 58, 0
2, 50534, Note_on_c, 0, 60, 0
2, 50539, Note_on_c, 0, 58, 47
2, 50543, Control_c, 0, 64, 127
2, 50576, Note_on_c, 0, 58, 0
2, 50576, Note_on_c, 0, 60, 55
2, 50618, Note_on_c, 0, 62, 50
2, 50626, Note_on_c, 0, 60, 0
2, 50651, Note_on_c, 0, 62, 0
2, 50651, Note_on_c, 0, 70, 0
2, 50656, Note_on_c, 0, 60, 46
2, 50664, Note_on_c, 0, 67, 0
2, 50697, Control_c, 0, 64, 0
2, 50701, Note_on_c, 0, 70, 56
2, 50701, Note_on_c, 0, 62, 63
2, 50706, Note_on_c, 0, 60, 0
2, 50718, Note_on_c, 0, 68, 54
2, 50722, Note_on_c, 0, 70, 0
2, 50722, Control_c, 0, 64, 127
2, 50730, Note_on_c, 0, 68, 0
2, 50735, Note_on_c, 0, 70, 56
2, 50751, Note_on_c, 0, 70, 0
2, 50751, Note_on_c, 0, 68, 45
2, 50768, Note_on_c, 0, 68, 0
2, 50768, Note_on_c, 0, 70, 53
2, 50784, Note_on_c, 0, 70, 0
2, 50784, Note_on_c, 0, 68, 42
2, 50797, Note_on_c, 0, 68, 0
2, 50801, Note_on_c, 0, 70, 45
2, 50814, Note_on_c, 0, 68, 46
2, 50818, Note_on_c, 0, 70, 0
2, 50831, Note_on_c, 0, 67, 52
2, 50831, Note_on_c, 0, 63, 47
2, 50834, Note_on_c, 0, 62, 0
2, 50839, Control_c, 0, 64, 0
2, 50843, Note_on_c, 0, 68, 0
2, 50968, Note_on_c, 0, 51, 39
2, 50968, Note_on_c, 0, 74, 52
2, 50981, Control_c, 0, 64, 127
2, 51010, Note_on_c, 0, 67, 0
2, 51089, Note_on_c, 0, 74, 0
2, 51089, Note_on_c, 0, 75, 70
2, 51092, Note_on_c, 0, 51, 0
2, 51114, Note_on_c, 0, 75, 0
2, 51168, Note_on_c, 0, 63, 0
2, 51189, Note_on_c, 0, 55, 54
2, 51201, Note_on_c, 0, 58, 49
2, 51218, Note_on_c, 0, 63, 45
2, 51222, Control_c, 0, 64, 0
2, 51302, Control_c, 0, 64, 127
2, 51339, Note_on_c, 0, 82, 60
2, 51456, Note_on_c, 0, 58, 0
2, 51460, Note_on_c, 0, 55, 0
2, 51468, Note_on_c, 0, 79, 51
2, 51472, Note_on_c, 0, 63, 0
2, 51480, Note_on_c, 0, 82, 0
2, 51568, Note_on_c, 0, 56, 31
2, 51577, Note_on_c, 0, 60, 55
2, 51601, Note_on_c, 0, 65, 60
2, 51602, Control_c, 0, 64, 0
2, 51660, Note_on_c, 0, 79, 0
2, 51664, Note_on_c, 0, 77, 43
2, 51664, Control_c, 0, 64, 127
2, 51726, Note_on_c, 0, 79, 62
2, 51743, Note_on_c, 0, 77, 0
2, 51794, Note_on_c, 0, 80, 62
2, 51797, Note_on_c, 0, 60, 0
2, 51802, Note_on_c, 0, 79, 0
2, 51802, Note_on_c, 0, 65, 0
2, 51802, Note_on_c, 0, 56, 0
2, 51860, Note_on_c, 0, 82, 55
2, 51864, Note_on_c, 0, 80, 0
2, 51926, Note_on_c, 0, 82, 0
2, 51926, Note_on_c, 0, 84, 55
2, 51952, Note_on_c, 0, 58, 52
2, 51968, Note_on_c, 0, 62, 66
2, 51990, Note_on_c, 0, 65, 60
2, 51998, Control_c, 0, 64, 0
2, 52002, Note_on_c, 0, 68, 67
2, 52102, Control_c, 0, 64, 127
2, 52131, Note_on_c, 0, 82, 59
2, 52143, Note_on_c, 0, 84, 0
2, 52190, Note_on_c, 0, 80, 39
2, 52202, Note_on_c, 0, 82, 0
2, 52256, Note_on_c, 0, 80, 0
2, 52256, Note_on_c, 0, 79, 41
2, 52306, Note_on_c, 0, 68, 0
2, 52314, Note_on_c, 0, 62, 0
2, 52318, Note_on_c, 0, 65, 0
2, 52322, Note_on_c, 0, 79, 0
2, 52322, Note_on_c, 0, 77, 41
2, 52335, Note_on_c, 0, 58, 0
2, 52389, Note_on_c, 0, 77, 0
2, 52389, Note_on_c, 0, 74, 40
2, 52410, Note_on_c, 0, 74, 0
2, 52452, Note_on_c, 0, 63, 51
2, 52452, Note_on_c, 0, 75, 46
2, 52452, Note_on_c, 0, 51, 48
2, 52473, Control_c, 0, 64, 0
2, 52494, Note_on_c, 0, 70, 57
2, 52523, Control_c, 0, 64, 127
2, 52527, Note_on_c, 0, 70, 0
2, 52531, Note_on_c, 0, 67, 55
2, 52564, Note_on_c, 0, 67, 0
2, 52564, Note_on_c, 0, 63, 0
2, 52577, Note_on_c, 0, 70, 40
2, 52589, Note_on_c, 0, 75, 0
2, 52593, Note_on_c, 0, 51, 0
2, 52610, Note_on_c, 0, 70, 0
2, 52610, Note_on_c, 0, 67, 60
2, 52640, Note_on_c, 0, 67, 0
2, 52656, Note_on_c, 0, 63, 63
2, 52694, Note_on_c, 0, 63, 0
2, 52694, Note_on_c, 0, 62, 46
2, 52694, Note_on_c, 0, 58, 41
2, 52698, Note_on_c, 0, 46, 54
2, 52698, Control_c, 0, 64, 0
2, 52731, Note_on_c, 0, 58, 0
2, 52731, Control_c, 0, 64, 127
2, 52735, Note_on_c, 0, 65, 45
2, 52744, Note_on_c, 0, 46, 0
2, 52744, Note_on_c, 0, 62, 0
2, 52773, Note_on_c, 0, 68, 47
2, 52776, Note_on_c, 0, 65, 0
2, 52810, Note_on_c, 0, 68, 0
2, 52814, Control_c, 0, 64, 0
2, 52818, Note_on_c, 0, 39, 47
2, 52818, Note_on_c, 0, 51, 46
2, 52818, Note_on_c, 0, 67, 54
2, 52843, Control_c, 0, 64, 127
2, 52859, Note_on_c, 0, 39, 0
2, 52860, Note_on_c, 0, 70, 56
2, 52864, Note_on_c, 0, 67, 0
2, 52873, Note_on_c, 0, 51, 0
2, 52893, Note_on_c, 0, 70, 0
2, 52893, Note_on_c, 0, 67, 54
2, 52936, Note_on_c, 0, 43, 51
2, 52936, Note_on_c, 0, 75, 42
2, 52936, Note_on_c, 0, 55, 46
2, 52936, Control_c, 0, 64, 0
2, 52964, Control_c, 0, 64, 127
2, 52968, Note_on_c, 0, 67, 0
2, 52969, Note_on_c, 0, 43, 0
2, 52981, Note_on_c, 0, 55, 0
2, 52981, Note_on_c, 0, 70, 37
2, 52982, Note_on_c, 0, 75, 0
2, 53018, Note_on_c, 0, 70, 0
2, 53018, Note_on_c, 0, 67, 47
2, 53052, Control_c, 0, 64, 0
2, 53060, Note_on_c, 0, 67, 0
2, 53062, Note_on_c, 0, 46, 43
2, 53062, Note_on_c, 0, 58, 40
2, 53062, Note_on_c, 0, 68, 45
2, 53081, Control_c, 0, 64, 127
2, 53087, Note_on_c, 0, 58, 0
2, 53095, Note_on_c, 0, 46, 0
2, 53102, Note_on_c, 0, 68, 0
2, 53106, Note_on_c, 0, 65, 45
2, 53140, Note_on_c, 0, 65, 0
2, 53148, Note_on_c, 0, 62, 33
2, 53177, Control_c, 0, 64, 0
2, 53194, Note_on_c, 0, 62, 0
2, 53202, Note_on_c, 0, 39, 45
2, 53202, Note_on_c, 0, 51, 40
2, 53202, Note_on_c, 0, 63, 41
2, 53236, Control_c, 0, 64, 127
2, 53276, Note_on_c, 0, 63, 0
2, 53277, Note_on_c, 0, 39, 0
2, 53289, Note_on_c, 0, 51, 0
2, 53398, Control_c, 0, 64, 0
2, 53477, Note_on_c, 0, 49, 35
2, 53477, Note_on_c, 0, 55, 35
2, 53477, Note_on_c, 0, 58, 35
2, 53477, Note_on_c, 0, 63, 35
2, 53492, Note_on_c, 0, 63, 0
2, 53492, Note_on_c, 0, 49, 0
2, 53492, Note_on_c, 0, 55, 0
2, 53492, Note_on_c, 0, 58, 0
2, 53632, Note_on_c, 0, 55, 25
2, 53632, Note_on_c, 0, 63, 39
2, 53632, Note_on_c, 0, 58, 29
2, 53633, Note_on_c, 0, 49, 38
2, 53723, Control_c, 0, 64, 127
2, 53798, Note_on_c, 0, 58, 0
2, 53823, Note_on_c, 0, 63, 0
2, 53952, Note_on_c, 0, 49, 0
2, 53956, Note_on_c, 0, 55, 0
2, 54261, Control_c, 0, 64, 0
2, 54348, Note_on_c, 0, 75, 40
2, 54348, Note_on_c, 0, 60, 35
2, 54415, Note_on_c, 0, 63, 31
2, 54435, Control_c, 0, 64, 127
2, 54486, Note_on_c, 0, 68, 28
2, 54498, Note_on_c, 0, 63, 0
2, 54510, Note_on_c, 0, 75, 0
2, 54519, Note_on_c, 0, 77, 47
2, 54548, Note_on_c, 0, 63, 38
2, 54552, Note_on_c, 0, 68, 0
2, 54552, Note_on_c, 0, 75, 52
2, 54560, Note_on_c, 0, 77, 0
2, 54582, Note_on_c, 0, 73, 54
2, 54602, Note_on_c, 0, 75, 0
2, 54611, Note_on_c, 0, 63, 0
2, 54615, Note_on_c, 0, 68, 31
2, 54616, Note_on_c, 0, 72, 56
2, 54619, Note_on_c, 0, 73, 0
2, 54677, Note_on_c, 0, 63, 38
2, 54682, Note_on_c, 0, 60, 0
2, 54723, Control_c, 0, 64, 0
2, 54736, Note_on_c, 0, 63, 0
2, 54740, Note_on_c, 0, 60, 48
2, 54744, Note_on_c, 0, 68, 0
2, 54756, Control_c, 0, 64, 127
2, 54802, Note_on_c, 0, 63, 41
2, 54844, Note_on_c, 0, 72, 0
2, 54860, Note_on_c, 0, 63, 0
2, 54865, Note_on_c, 0, 79, 49
2, 54865, Note_on_c, 0, 68, 35
2, 54928, Note_on_c, 0, 80, 37
2, 54928, Note_on_c, 0, 63, 40
2, 54931, Note_on_c, 0, 60, 0
2, 54936, Note_on_c, 0, 79, 0
2, 54974, Note_on_c, 0, 68, 0
2, 54981, Note_on_c, 0, 63, 0
2, 54986, Note_on_c, 0, 60, 47
2, 54990, Note_on_c, 0, 79, 45
2, 54994, Note_on_c, 0, 80, 0
2, 55044, Note_on_c, 0, 63, 41
2, 55044, Note_on_c, 0, 80, 41
2, 55048, Note_on_c, 0, 60, 0
2, 55052, Note_on_c, 0, 79, 0
2, 55102, Note_on_c, 0, 63, 0
2, 55106, Note_on_c, 0, 79, 53
2, 55106, Note_on_c, 0, 58, 36
2, 55110, Note_on_c, 0, 80, 0
2, 55148, Control_c, 0, 64, 0
2, 55173, Note_on_c, 0, 61, 34
2, 55236, Note_on_c, 0, 63, 28
2, 55240, Note_on_c, 0, 61, 0
2, 55273, Note_on_c, 0, 80, 45
2, 55273, Control_c, 0, 64, 127
2, 55293, Note_on_c, 0, 79, 0
2, 55298, Note_on_c, 0, 82, 53
2, 55306, Note_on_c, 0, 80, 0
2, 55307, Note_on_c, 0, 61, 42
2, 55310, Note_on_c, 0, 63, 0
2, 55336, Note_on_c, 0, 80, 44
2, 55344, Note_on_c, 0, 82, 0
2, 55369, Note_on_c, 0, 61, 0
2, 55370, Note_on_c, 0, 63, 36
2, 55370, Note_on_c, 0, 79, 55
2, 55378, Note_on_c, 0, 80, 0
2, 55424, Note_on_c, 0, 58, 0
2, 55427, Note_on_c, 0, 61, 38
2, 55448, Note_on_c, 0, 61, 0
2, 55486, Note_on_c, 0, 55, 40
2, 55499, Note_on_c, 0, 63, 0
2, 55524, Control_c, 0, 64, 0
2, 55552, Note_on_c, 0, 58, 31
2, 55578, Control_c, 0, 64, 127
2, 55623, Note_on_c, 0, 63, 31
2, 55623, Note_on_c, 0, 84, 44
2, 55628, Note_on_c, 0, 58, 0
2, 55640, Note_on_c, 0, 79, 0
2, 55686, Note_on_c, 0, 55, 0
2, 55686, Note_on_c, 0, 58, 40
2, 55686, Note_on_c, 0, 85, 40
2, 55694, Note_on_c, 0, 84, 0
2, 55702, Note_on_c, 0, 63, 0
2, 55711, Note_on_c, 0, 58, 0
2, 55744, Note_on_c, 0, 55, 44
2, 55744, Note_on_c, 0, 84, 51
2, 55752, Note_on_c, 0, 85, 0
2, 55807, Note_on_c, 0, 85, 44
2, 55807, Note_on_c, 0, 58, 44
2, 55811, Note_on_c, 0, 55, 0
2, 55815, Note_on_c, 0, 84, 0
2, 55865, Note_on_c, 0, 58, 0
2, 55865, Note_on_c, 0, 56, 45
2, 55865, Note_on_c, 0, 84, 53
2, 55869, Note_on_c, 0, 85, 0
2, 55928, Control_c, 0, 64, 0
2, 55932, Note_on_c, 0, 60, 40
2, 55994, Note_on_c, 0, 60, 0
2, 55994, Note_on_c, 0, 63, 35
2, 56006, Control_c, 0, 64, 127
2, 56028, Note_on_c, 0, 85, 42
2, 56048, Note_on_c, 0, 84, 0
2, 56056, Note_on_c, 0, 60, 39
2, 56056, Note_on_c, 0, 87, 46
2, 56061, Note_on_c, 0, 85, 0
2, 56061, Note_on_c, 0, 63, 0
2, 56090, Note_on_c, 0, 85, 52
2, 56098, Note_on_c, 0, 87, 0
2, 56114, Note_on_c, 0, 60, 0
2, 56119, Note_on_c, 0, 84, 60
2, 56119, Note_on_c, 0, 64, 42
2, 56123, Note_on_c, 0, 85, 0
2, 56174, Note_on_c, 0, 64, 0
2, 56182, Note_on_c, 0, 60, 39
2, 56198, Control_c, 0, 64, 0
2, 56228, Control_c, 0, 64, 127
2, 56231, Note_on_c, 0, 56, 0
2, 56244, Note_on_c, 0, 60, 0
2, 56245, Note_on_c, 0, 65, 37
2, 56303, Note_on_c, 0, 65, 0
2, 56307, Note_on_c, 0, 60, 42
2, 56365, Note_on_c, 0, 56, 39
2, 56366, Note_on_c, 0, 76, 45
2, 56368, Note_on_c, 0, 84, 0
2, 56369, Note_on_c, 0, 60, 0
2, 56382, Control_c, 0, 64, 0
2, 56420, Note_on_c, 0, 60, 45
2, 56423, Note_on_c, 0, 56, 0
2, 56424, Note_on_c, 0, 77, 52
2, 56424, Control_c, 0, 64, 127
2, 56428, Note_on_c, 0, 76, 0
2, 56482, Note_on_c, 0, 53, 55
2, 56482, Note_on_c, 0, 76, 50
2, 56486, Note_on_c, 0, 77, 0
2, 56486, Note_on_c, 0, 60, 0
2, 56511, Control_c, 0, 64, 0
2, 56545, Note_on_c, 0, 56, 46
2, 56545, Note_on_c, 0, 77, 51
2, 56545, Control_c, 0, 64, 127
2, 56549, Note_on_c, 0, 76, 0
2, 56552, Note_on_c, 0, 53, 0
2, 56570, Note_on_c, 0, 77, 0
2, 56575, Note_on_c, 0, 56, 0
2, 56603, Note_on_c, 0, 55, 46
2, 56603, Note_on_c, 0, 77, 57
2, 56624, Control_c, 0, 64, 0
2, 56669, Note_on_c, 0, 76, 45
2, 56669, Note_on_c, 0, 58, 40
2, 56682, Note_on_c, 0, 77, 0
2, 56732, Note_on_c, 0, 58, 0
2, 56732, Note_on_c, 0, 60, 45
2, 56732, Note_on_c, 0, 79, 46
2, 56735, Note_on_c, 0, 76, 0
2, 56749, Control_c, 0, 64, 127
2, 56787, Note_on_c, 0, 55, 0
2, 56795, Note_on_c, 0, 58, 35
2, 56795, Note_on_c, 0, 76, 42
2, 56799, Note_on_c, 0, 60, 0
2, 56799, Note_on_c, 0, 79, 0
2, 56811, Note_on_c, 0, 58, 0
2, 56849, Note_on_c, 0, 72, 42
2, 56849, Note_on_c, 0, 52, 45
2, 56852, Note_on_c, 0, 76, 0
2, 56874, Control_c, 0, 64, 0
2, 56908, Control_c, 0, 64, 127
2, 56911, Note_on_c, 0, 52, 0
2, 56911, Note_on_c, 0, 55, 38
2, 56911, Note_on_c, 0, 70, 45
2, 56916, Note_on_c, 0, 72, 0
2, 56932, Note_on_c, 0, 55, 0
2, 56974, Note_on_c, 0, 53, 40
2, 56974, Note_on_c, 0, 68, 55
2, 56982, Note_on_c, 0, 70, 0
2, 56990, Control_c, 0, 64, 0
2, 57036, Note_on_c, 0, 56, 41
2, 57070, Control_c, 0, 64, 127
2, 57098, Note_on_c, 0, 62, 46
2, 57103, Note_on_c, 0, 56, 0
2, 57166, Note_on_c, 0, 56, 38
2, 57169, Note_on_c, 0, 53, 0
2, 57186, Note_on_c, 0, 56, 0
2, 57207, Note_on_c, 0, 62, 0
2, 57224, Note_on_c, 0, 68, 0
2, 57240, Note_on_c, 0, 55, 44
2, 57240, Note_on_c, 0, 75, 46
2, 57262, Control_c, 0, 64, 0
2, 57315, Note_on_c, 0, 58, 35
2, 57324, Control_c, 0, 64, 127
2, 57327, Note_on_c, 0, 55, 0
2, 57361, Note_on_c, 0, 75, 0
2, 57386, Note_on_c, 0, 58, 0
2, 57407, Note_on_c, 0, 53, 46
2, 57407, Note_on_c, 0, 75, 41
2, 57470, Control_c, 0, 64, 0
2, 57494, Note_on_c, 0, 74, 45
2, 57494, Note_on_c, 0, 56, 33
2, 57511, Note_on_c, 0, 75, 0
2, 57557, Note_on_c, 0, 58, 42
2, 57557, Note_on_c, 0, 77, 52
2, 57561, Note_on_c, 0, 74, 0
2, 57570, Note_on_c, 0, 56, 0
2, 57570, Control_c, 0, 64, 127
2, 57620, Note_on_c, 0, 56, 42
2, 57620, Note_on_c, 0, 74, 43
2, 57624, Note_on_c, 0, 58, 0
2, 57624, Note_on_c, 0, 77, 0
2, 57628, Note_on_c, 0, 53, 0
2, 57636, Note_on_c, 0, 56, 0
2, 57682, Note_on_c, 0, 74, 0
2, 57682, Note_on_c, 0, 50, 45
2, 57682, Note_on_c, 0, 70, 46
2, 57699, Control_c, 0, 64, 0
2, 57741, Note_on_c, 0, 68, 54
2, 57741, Note_on_c, 0, 53, 48
2, 57742, Control_c, 0, 64, 127
2, 57749, Note_on_c, 0, 70, 0
2, 57749, Note_on_c, 0, 50, 0
2, 57753, Note_on_c, 0, 53, 0
2, 57802, Note_on_c, 0, 68, 0
2, 57803, Note_on_c, 0, 51, 47
2, 57803, Note_on_c, 0, 67, 54
2, 57870, Note_on_c, 0, 55, 46
2, 57874, Control_c, 0, 64, 0
2, 57891, Note_on_c, 0, 55, 0
2, 57928, Note_on_c, 0, 58, 55
2, 57982, Control_c, 0, 64, 127
2, 57991, Note_on_c, 0, 63, 57
2, 57995, Note_on_c, 0, 58, 0
2, 58057, Note_on_c, 0, 58, 44
2, 58058, Note_on_c, 0, 79, 42
2, 58074, Note_on_c, 0, 67, 0
2, 58116, Note_on_c, 0, 58, 0
2, 58124, Note_on_c, 0, 63, 0
2, 58128, Note_on_c, 0, 55, 45
2, 58141, Note_on_c, 0, 55, 0
2, 58141, Note_on_c, 0, 51, 0
2, 58228, Note_on_c, 0, 79, 0
2, 58228, Note_on_c, 0, 76, 40
2, 58228, Note_on_c, 0, 56, 42
2, 58237, Control_c, 0, 64, 0
2, 58303, Note_on_c, 0, 77, 50
2, 58303, Note_on_c, 0, 60, 37
2, 58315, Note_on_c, 0, 76, 0
2, 58332, Control_c, 0, 64, 127
2, 58370, Note_on_c, 0, 60, 0
2, 58370, Note_on_c, 0, 65, 49
2, 58433, Note_on_c, 0, 60, 44
2, 58441, Note_on_c, 0, 56, 0
2, 58449, Note_on_c, 0, 65, 0
2, 58495, Note_on_c, 0, 60, 0
2, 58508, Note_on_c, 0, 79, 45
2, 58512, Note_on_c, 0, 56, 41
2, 58524, Note_on_c, 0, 77, 0
2, 58545, Control_c, 0, 64, 0
2, 58583, Note_on_c, 0, 60, 38
2, 58583, Note_on_c, 0, 80, 45
2, 58595, Note_on_c, 0, 79, 0
2, 58608, Control_c, 0, 64, 127
2, 58649, Note_on_c, 0, 60, 0
2, 58649, Note_on_c, 0, 65, 36
2, 58716, Note_on_c, 0, 56, 0
2, 58716, Note_on_c, 0, 60, 52
2, 58728, Note_on_c, 0, 65, 0
2, 58791, Note_on_c, 0, 60, 0
2, 58799, Note_on_c, 0, 80, 0
2, 58800, Note_on_c, 0, 83, 53
2, 58800, Note_on_c, 0, 56, 46
2, 58828, Control_c, 0, 64, 0
2, 58878, Note_on_c, 0, 60, 36
2, 58878, Note_on_c, 0, 84, 65
2, 58891, Note_on_c, 0, 83, 0
2, 58945, Control_c, 0, 64, 127
2, 58978, Note_on_c, 0, 65, 48
2, 58991, Control_c, 0, 64, 0
2, 59070, Control_c, 0, 64, 127
2, 59091, Note_on_c, 0, 84, 0
2, 59124, Note_on_c, 0, 60, 0
2, 59132, Note_on_c, 0, 82, 31
2, 59140, Note_on_c, 0, 56, 0
2, 59149, Note_on_c, 0, 65, 0
2, 59158, Note_on_c, 0, 80, 37
2, 59166, Note_on_c, 0, 82, 0
2, 59191, Note_on_c, 0, 79, 40
2, 59200, Note_on_c, 0, 80, 0
2, 59228, Note_on_c, 0, 79, 0
2, 59229, Note_on_c, 0, 77, 28
2, 59274, Note_on_c, 0, 75, 39
2, 59274, Note_on_c, 0, 67, 23
2, 59274, Note_on_c, 0, 58, 31
2, 59279, Note_on_c, 0, 77, 0
2, 59287, Control_c, 0, 64, 0
2, 59346, Control_c, 0, 64, 127
2, 59454, Note_on_c, 0, 67, 0
2, 59549, Control_c, 0, 64, 0
2, 59570, Note_on_c, 0, 74, 36
2, 59570, Note_on_c, 0, 65, 29
2, 59578, Note_on_c, 0, 75, 0
2, 59603, Control_c, 0, 64, 127
2, 59624, Note_on_c, 0, 65, 0
2, 59641, Note_on_c, 0, 58, 0
2, 59695, Note_on_c, 0, 56, 65
2, 59696, Note_on_c, 0, 44, 56
2, 59704, Control_c, 0, 64, 0
2, 59732, Control_c, 0, 64, 127
2, 59774, Note_on_c, 0, 56, 0
2, 59778, Note_on_c, 0, 44, 0
2, 59828, Note_on_c, 0, 55, 54
2, 59828, Note_on_c, 0, 43, 57
2, 59837, Control_c, 0, 64, 0
2, 59862, Control_c, 0, 64, 127
2, 59919, Note_on_c, 0, 55, 0
2, 59924, Note_on_c, 0, 43, 0
2, 59950, Control_c, 0, 64, 0
2, 59962, Note_on_c, 0, 53, 48
2, 59962, Note_on_c, 0, 41, 60
2, 59974, Control_c, 0, 64, 127
2, 59987, Note_on_c, 0, 53, 0
2, 59991, Note_on_c, 0, 41, 0
2, 60036, Note_on_c, 0, 74, 0
2, 60095, Control_c, 0, 64, 0
2, 60104, Note_on_c, 0, 39, 57
2, 60104, Note_on_c, 0, 51, 63
2, 60124, Control_c, 0, 64, 127
2, 60141, Note_on_c, 0, 39, 0
2, 60146, Note_on_c, 0, 51, 0
2, 60250, Note_on_c, 0, 67, 40
2, 60250, Note_on_c, 0, 82, 40
2, 60266, Control_c, 0, 64, 0
2, 60275, Note_on_c, 0, 82, 0
2, 60275, Note_on_c, 0, 67, 0
2, 60287, Note_on_c, 0, 63, 40
2, 60287, Note_on_c, 0, 79, 40
2, 60312, Note_on_c, 0, 79, 0
2, 60312, Note_on_c, 0, 63, 0
2, 60329, Note_on_c, 0, 65, 40
2, 60329, Note_on_c, 0, 80, 40
2, 60354, Note_on_c, 0, 80, 0
2, 60354, Note_on_c, 0, 65, 0
2, 60375, Note_on_c, 0, 67, 40
2, 60375, Note_on_c, 0, 82, 50
2, 60400, Note_on_c, 0, 67, 0
2, 60405, Note_on_c, 0, 82, 0
2, 60412, Note_on_c, 0, 63, 40
2, 60412, Note_on_c, 0, 79, 40
2, 60437, Note_on_c, 0, 79, 0
2, 60437, Note_on_c, 0, 63, 0
2, 60454, Note_on_c, 0, 65, 40
2, 60454, Note_on_c, 0, 80, 40
2, 60479, Note_on_c, 0, 80, 0
2, 60479, Note_on_c, 0, 65, 0
2, 60500, Note_on_c, 0, 67, 40
2, 60500, Note_on_c, 0, 82, 40
2, 60525, Note_on_c, 0, 82, 0
2, 60525, Note_on_c, 0, 67, 0
2, 60650, Note_on_c, 0, 84, 39
2, 60650, Note_on_c, 0, 68, 18
2, 60800, Note_on_c, 0, 80, 32
2, 60800, Note_on_c, 0, 65, 29
2, 60800, Control_c, 0, 64, 127
2, 60812, Note_on_c, 0, 68, 0
2, 60812, Note_on_c, 0, 84, 0
2, 60825, Note_on_c, 0, 65, 0
2, 60830, Note_on_c, 0, 80, 0
2, 60946, Note_on_c, 0, 34, 68
2, 60946, Note_on_c, 0, 46, 66
2, 60962, Note_on_c, 0, 46, 0
2, 60966, Note_on_c, 0, 34, 0
2, 61100, Note_on_c, 0, 65, 44
2, 61100, Note_on_c, 0, 80, 42
2, 61104, Control_c, 0, 64, 0
2, 61135, Note_on_c, 0, 80, 0
2, 61135, Note_on_c, 0, 65, 0
2, 61137, Note_on_c, 0, 62, 45
2, 61137, Note_on_c, 0, 77, 38
2, 61172, Note_on_c, 0, 77, 0
2, 61172, Note_on_c, 0, 62, 0
2, 61179, Note_on_c, 0, 63, 35
2, 61179, Note_on_c, 0, 79, 38
2, 61214, Note_on_c, 0, 79, 0
2, 61214, Note_on_c, 0, 63, 0
2, 61220, Note_on_c, 0, 80, 44
2, 61220, Note_on_c, 0, 65, 48
2, 61254, Note_on_c, 0, 62, 46
2, 61254, Note_on_c, 0, 77, 44
2, 61255, Note_on_c, 0, 65, 0
2, 61255, Note_on_c, 0, 80, 0
2, 61289, Note_on_c, 0, 62, 0
2, 61289, Note_on_c, 0, 77, 0
2, 61291, Note_on_c, 0, 63, 51
2, 61291, Note_on_c, 0, 79, 54
2, 61326, Note_on_c, 0, 79, 0
2, 61326, Note_on_c, 0, 63, 0
2, 61346, Note_on_c, 0, 65, 52
2, 61346, Note_on_c, 0, 80, 51
2, 61384, Note_on_c, 0, 80, 0
2, 61384, Note_on_c, 0, 65, 0
2, 61491, Note_on_c, 0, 82, 43
2, 61492, Note_on_c, 0, 67, 23
2, 61633, Control_c, 0, 64, 127
2, 61658, Note_on_c, 0, 63, 24
2, 61658, Note_on_c, 0, 79, 31
2, 61662, Note_on_c, 0, 82, 0
2, 61675, Note_on_c, 0, 67, 0
2, 61692, Note_on_c, 0, 63, 0
2, 61750, Note_on_c, 0, 79, 0
2, 61846, Note_on_c, 0, 75, 40
2, 61846, Note_on_c, 0, 55, 37
2, 61883, Control_c, 0, 64, 0
2, 61908, Note_on_c, 0, 58, 36
2, 61933, Control_c, 0, 64, 127
2, 61967, Note_on_c, 0, 63, 31
2, 61970, Note_on_c, 0, 58, 0
2, 61979, Note_on_c, 0, 55, 0
2, 62016, Note_on_c, 0, 55, 46
2, 62016, Note_on_c, 0, 87, 48
2, 62021, Note_on_c, 0, 63, 0
2, 62069, Note_on_c, 0, 75, 0
2, 62075, Note_on_c, 0, 58, 36
2, 62103, Note_on_c, 0, 55, 0
2, 62117, Note_on_c, 0, 63, 36
2, 62129, Note_on_c, 0, 58, 0
2, 62133, Note_on_c, 0, 87, 0
2, 62167, Note_on_c, 0, 63, 0
2, 62171, Note_on_c, 0, 55, 41
2, 62171, Note_on_c, 0, 87, 72
2, 62225, Note_on_c, 0, 58, 40
2, 62250, Note_on_c, 0, 55, 0
2, 62279, Note_on_c, 0, 58, 0
2, 62279, Note_on_c, 0, 63, 35
2, 62338, Note_on_c, 0, 63, 0
2, 62338, Note_on_c, 0, 86, 62
2, 62338, Note_on_c, 0, 56, 40
2, 62342, Note_on_c, 0, 87, 0
2, 62396, Note_on_c, 0, 60, 40
2, 62400, Control_c, 0, 64, 0
2, 62425, Note_on_c, 0, 84, 66
2, 62438, Note_on_c, 0, 86, 0
2, 62446, Control_c, 0, 64, 127
2, 62450, Note_on_c, 0, 56, 0
2, 62458, Note_on_c, 0, 63, 39
2, 62471, Note_on_c, 0, 60, 0
2, 62508, Note_on_c, 0, 63, 0
2, 62508, Note_on_c, 0, 56, 42
2, 62508, Note_on_c, 0, 82, 68
2, 62521, Note_on_c, 0, 84, 0
2, 62558, Note_on_c, 0, 60, 43
2, 62592, Note_on_c, 0, 80, 70
2, 62596, Note_on_c, 0, 56, 0
2, 62604, Note_on_c, 0, 82, 0
2, 62629, Note_on_c, 0, 63, 37
2, 62667, Note_on_c, 0, 60, 0
2, 62679, Note_on_c, 0, 63, 0
2, 62688, Note_on_c, 0, 56, 43
2, 62688, Note_on_c, 0, 79, 54
2, 62692, Note_on_c, 0, 80, 0
2, 62738, Note_on_c, 0, 60, 46
2, 62783, Note_on_c, 0, 60, 0
2, 62784, Note_on_c, 0, 65, 45
2, 62784, Note_on_c, 0, 77, 57
2, 62787, Note_on_c, 0, 56, 0
2, 62796, Note_on_c, 0, 79, 0
2, 62804, Note_on_c, 0, 77, 0
2, 62825, Note_on_c, 0, 65, 0
2, 62842, Note_on_c, 0, 58, 56
2, 62842, Note_on_c, 0, 77, 68
2, 62875, Control_c, 0, 64, 0
2, 62896, Note_on_c, 0, 63, 47
2, 62930, Control_c, 0, 64, 127
2, 62946, Note_on_c, 0, 58, 0
2, 62950, Note_on_c, 0, 67, 40
2, 62962, Note_on_c, 0, 63, 0
2, 62971, Note_on_c, 0, 77, 0
2, 62971, Note_on_c, 0, 75, 46
2, 62992, Note_on_c, 0, 75, 0
2, 62992, Note_on_c, 0, 77, 53
2, 63005, Note_on_c, 0, 67, 0
2, 63005, Note_on_c, 0, 58, 40
2, 63013, Note_on_c, 0, 77, 0
2, 63013, Note_on_c, 0, 75, 54
2, 63030, Note_on_c, 0, 75, 0
2, 63034, Note_on_c, 0, 77, 46
2, 63050, Note_on_c, 0, 77, 0
2, 63050, Note_on_c, 0, 63, 42
2, 63054, Note_on_c, 0, 75, 40
2, 63071, Note_on_c, 0, 75, 0
2, 63075, Note_on_c, 0, 77, 45
2, 63076, Note_on_c, 0, 67, 45
2, 63084, Note_on_c, 0, 58, 0
2, 63092, Note_on_c, 0, 75, 53
2, 63104, Note_on_c, 0, 77, 0
2, 63117, Note_on_c, 0, 75, 0
2, 63117, Note_on_c, 0, 74, 62
2, 63138, Note_on_c, 0, 75, 42
2, 63154, Note_on_c, 0, 63, 0
2, 63166, Note_on_c, 0, 67, 0
2, 63171, Note_on_c, 0, 58, 46
2, 63171, Note_on_c, 0, 77, 57
2, 63175, Note_on_c, 0, 75, 0
2, 63183, Note_on_c, 0, 74, 0
2, 63208, Control_c, 0, 64, 0
2, 63221, Note_on_c, 0, 65, 26
2, 63263, Control_c, 0, 64, 127
2, 63267, Note_on_c, 0, 74, 55
2, 63267, Note_on_c, 0, 68, 45
2, 63275, Note_on_c, 0, 58, 0
2, 63275, Note_on_c, 0, 77, 0
2, 63304, Note_on_c, 0, 68, 0
2, 63317, Note_on_c, 0, 65, 0
2, 63325, Note_on_c, 0, 74, 0
2, 63326, Note_on_c, 0, 75, 70
2, 63326, Note_on_c, 0, 60, 46
2, 63362, Control_c, 0, 64, 0
2, 63380, Note_on_c, 0, 63, 47
2, 63417, Control_c, 0, 64, 127
2, 63425, Note_on_c, 0, 60, 0
2, 63430, Note_on_c, 0, 67, 48
2, 63458, Note_on_c, 0, 63, 0
2, 63484, Note_on_c, 0, 58, 50
2, 63501, Note_on_c, 0, 67, 0
2, 63538, Note_on_c, 0, 63, 42
2, 63554, Control_c, 0, 64, 0
2, 63592, Note_on_c, 0, 58, 0
2, 63592, Note_on_c, 0, 67, 43
2, 63596, Control_c, 0, 64, 127
2, 63604, Note_on_c, 0, 63, 0
2, 63650, Note_on_c, 0, 56, 39
2, 63663, Note_on_c, 0, 67, 0
2, 63700, Control_c, 0, 64, 0
2, 63709, Note_on_c, 0, 60, 39
2, 63738, Control_c, 0, 64, 127
2, 63759, Note_on_c, 0, 56, 0
2, 63763, Note_on_c, 0, 65, 33
2, 63804, Note_on_c, 0, 60, 0
2, 63817, Note_on_c, 0, 65, 0
2, 63821, Note_on_c, 0, 70, 40
2, 63821, Note_on_c, 0, 55, 40
2, 63826, Note_on_c, 0, 75, 0
2, 63855, Control_c, 0, 64, 0
2, 63876, Note_on_c, 0, 58, 45
2, 63913, Control_c, 0, 64, 127
2, 63930, Note_on_c, 0, 55, 0
2, 63930, Note_on_c, 0, 63, 48
2, 63955, Note_on_c, 0, 58, 0
2, 63967, Note_on_c, 0, 70, 0
2, 63984, Note_on_c, 0, 55, 51
2, 63988, Note_on_c, 0, 63, 0
2, 63988, Note_on_c, 0, 79, 57
2, 64034, Control_c, 0, 64, 0
2, 64043, Note_on_c, 0, 58, 40
2, 64043, Note_on_c, 0, 74, 54
2, 64080, Control_c, 0, 64, 127
2, 64092, Note_on_c, 0, 55, 0
2, 64092, Note_on_c, 0, 75, 43
2, 64093, Note_on_c, 0, 63, 34
2, 64101, Note_on_c, 0, 79, 0
2, 64109, Note_on_c, 0, 74, 0
2, 64134, Note_on_c, 0, 58, 0
2, 64146, Note_on_c, 0, 63, 0
2, 64146, Note_on_c, 0, 55, 29
2, 64146, Note_on_c, 0, 79, 54
2, 64159, Note_on_c, 0, 75, 0
2, 64200, Note_on_c, 0, 58, 40
2, 64204, Note_on_c, 0, 74, 51
2, 64243, Note_on_c, 0, 55, 0
2, 64259, Note_on_c, 0, 74, 0
2, 64259, Note_on_c, 0, 75, 39
2, 64259, Note_on_c, 0, 63, 34
2, 64271, Note_on_c, 0, 58, 0
2, 64271, Note_on_c, 0, 79, 0
2, 64326, Note_on_c, 0, 63, 0
2, 64326, Note_on_c, 0, 56, 41
2, 64326, Note_on_c, 0, 74, 54
2, 64334, Note_on_c, 0, 75, 0
2, 64376, Note_on_c, 0, 60, 45
2, 64392, Control_c, 0, 64, 0
2, 64409, Note_on_c, 0, 72, 60
2, 64413, Note_on_c, 0, 74, 0
2, 64430, Control_c, 0, 64, 127
2, 64434, Note_on_c, 0, 56, 0
2, 64442, Note_on_c, 0, 63, 45
2, 64480, Note_on_c, 0, 60, 0
2, 64496, Note_on_c, 0, 56, 44
2, 64496, Note_on_c, 0, 70, 72
2, 64505, Note_on_c, 0, 63, 0
2, 64508, Note_on_c, 0, 72, 0
2, 64559, Note_on_c, 0, 60, 37
2, 64584, Note_on_c, 0, 56, 0
2, 64584, Note_on_c, 0, 63, 28
2, 64584, Note_on_c, 0, 68, 70
2, 64588, Note_on_c, 0, 60, 0
2, 64596, Note_on_c, 0, 70, 0
2, 64600, Note_on_c, 0, 63, 0
2, 64609, Note_on_c, 0, 68, 0
2, 64638, Note_on_c, 0, 68, 63
2, 64664, Note_on_c, 0, 67, 60
2, 64664, Note_on_c, 0, 44, 53
2, 64667, Note_on_c, 0, 68, 0
2, 64700, Control_c, 0, 64, 0
2, 64721, Note_on_c, 0, 48, 45
2, 64759, Control_c, 0, 64, 127
2, 64767, Note_on_c, 0, 44, 0
2, 64771, Note_on_c, 0, 48, 0
2, 64771, Note_on_c, 0, 53, 57
2, 64771, Note_on_c, 0, 65, 62
2, 64776, Note_on_c, 0, 67, 0
2, 64797, Note_on_c, 0, 65, 0
2, 64797, Note_on_c, 0, 53, 0
2, 64830, Note_on_c, 0, 46, 59
2, 64830, Note_on_c, 0, 65, 65
2, 64859, Control_c, 0, 64, 0
2, 64888, Note_on_c, 0, 51, 58
2, 64926, Control_c, 0, 64, 127
2, 64938, Note_on_c, 0, 55, 57
2, 64947, Note_on_c, 0, 51, 0
2, 64959, Note_on_c, 0, 65, 0
2, 64968, Note_on_c, 0, 63, 65
2, 64976, Note_on_c, 0, 46, 0
2, 64988, Note_on_c, 0, 63, 0
2, 64992, Note_on_c, 0, 65, 51
2, 65009, Note_on_c, 0, 63, 51
2, 65013, Note_on_c, 0, 65, 0
2, 65013, Note_on_c, 0, 55, 0
2, 65018, Note_on_c, 0, 46, 57
2, 65025, Note_on_c, 0, 63, 0
2, 65030, Note_on_c, 0, 65, 50
2, 65051, Note_on_c, 0, 65, 0
2, 65051, Note_on_c, 0, 63, 33
2, 65059, Note_on_c, 0, 51, 52
2, 65080, Note_on_c, 0, 63, 0
2, 65080, Note_on_c, 0, 65, 47
2, 65101, Note_on_c, 0, 63, 46
2, 65105, Note_on_c, 0, 46, 0
2, 65113, Note_on_c, 0, 65, 0
2, 65122, Note_on_c, 0, 63, 0
2, 65122, Note_on_c, 0, 62, 54
2, 65130, Note_on_c, 0, 55, 58
2, 65147, Note_on_c, 0, 63, 55
2, 65172, Note_on_c, 0, 51, 0
2, 65180, Note_on_c, 0, 55, 0
2, 65184, Note_on_c, 0, 63, 0
2, 65184, Note_on_c, 0, 46, 42
2, 65184, Note_on_c, 0, 65, 57
2, 65200, Note_on_c, 0, 62, 0
2, 65200, Control_c, 0, 64, 0
2, 65239, Note_on_c, 0, 53, 48
2, 65297, Control_c, 0, 64, 127
2, 65304, Note_on_c, 0, 65, 0
2, 65309, Note_on_c, 0, 46, 0
2, 65318, Note_on_c, 0, 53, 0
2, 65320, Note_on_c, 0, 56, 53
2, 65320, Note_on_c, 0, 62, 55
2, 65434, Control_c, 0, 64, 0
2, 65489, Control_c, 0, 64, 127
2, 65517, Note_on_c, 0, 62, 0
2, 65525, Note_on_c, 0, 56, 0
2, 65537, Note_on_c, 0, 73, 65
2, 65537, Note_on_c, 0, 61, 68
2, 65537, Note_on_c, 0, 43, 63
2, 65609, Note_on_c, 0, 46, 40
2, 65646, Note_on_c, 0, 43, 0
2, 65649, Note_on_c, 0, 73, 0
2, 65650, Note_on_c, 0, 61, 0
2, 65660, Note_on_c, 0, 52, 49
2, 65668, Note_on_c, 0, 46, 0
2, 65713, Note_on_c, 0, 52, 0
2, 65714, Note_on_c, 0, 60, 45
2, 65714, Note_on_c, 0, 72, 51
2, 65714, Note_on_c, 0, 44, 53
2, 65734, Control_c, 0, 64, 0
2, 65772, Note_on_c, 0, 48, 45
2, 65809, Control_c, 0, 64, 127
2, 65814, Note_on_c, 0, 44, 0
2, 65819, Note_on_c, 0, 60, 0
2, 65826, Note_on_c, 0, 53, 46
2, 65830, Note_on_c, 0, 72, 0
2, 65838, Note_on_c, 0, 48, 0
2, 65884, Note_on_c, 0, 53, 0
2, 65884, Note_on_c, 0, 45, 56
2, 65884, Note_on_c, 0, 63, 60
2, 65884, Note_on_c, 0, 75, 63
2, 65922, Control_c, 0, 64, 0
2, 65939, Note_on_c, 0, 48, 47
2, 65964, Note_on_c, 0, 45, 0
2, 65992, Control_c, 0, 64, 127
2, 66005, Note_on_c, 0, 54, 48
2, 66010, Note_on_c, 0, 48, 0
2, 66064, Note_on_c, 0, 54, 0
2, 66076, Note_on_c, 0, 67, 47
2, 66076, Note_on_c, 0, 46, 45
2, 66093, Control_c, 0, 64, 0
2, 66124, Note_on_c, 0, 75, 0
2, 66124, Note_on_c, 0, 63, 0
2, 66138, Note_on_c, 0, 67, 0
2, 66138, Note_on_c, 0, 68, 48
2, 66142, Note_on_c, 0, 51, 36
2, 66164, Note_on_c, 0, 68, 0
2, 66164, Note_on_c, 0, 67, 44
2, 66168, Control_c, 0, 64, 127
2, 66180, Note_on_c, 0, 68, 52
2, 66184, Note_on_c, 0, 67, 0
2, 66197, Note_on_c, 0, 46, 0
2, 66202, Note_on_c, 0, 55, 29
2, 66202, Note_on_c, 0, 67, 48
2, 66205, Note_on_c, 0, 68, 0
2, 66213, Note_on_c, 0, 51, 0
2, 66218, Note_on_c, 0, 67, 0
2, 66218, Note_on_c, 0, 68, 56
2, 66238, Note_on_c, 0, 67, 45
2, 66242, Note_on_c, 0, 68, 0
2, 66242, Note_on_c, 0, 46, 42
2, 66247, Note_on_c, 0, 55, 0
2, 66255, Note_on_c, 0, 67, 0
2, 66255, Note_on_c, 0, 68, 54
2, 66280, Note_on_c, 0, 68, 0
2, 66280, Note_on_c, 0, 51, 42
2, 66281, Note_on_c, 0, 67, 39
2, 66301, Note_on_c, 0, 67, 0
2, 66306, Note_on_c, 0, 68, 40
2, 66326, Note_on_c, 0, 67, 45
2, 66338, Note_on_c, 0, 68, 0
2, 66346, Note_on_c, 0, 46, 0
2, 66351, Note_on_c, 0, 67, 0
2, 66351, Note_on_c, 0, 65, 54
2, 66355, Note_on_c, 0, 55, 30
2, 66380, Note_on_c, 0, 67, 50
2, 66392, Note_on_c, 0, 65, 0
2, 66401, Note_on_c, 0, 51, 0
2, 66414, Note_on_c, 0, 55, 0
2, 66414, Note_on_c, 0, 46, 42
2, 66414, Note_on_c, 0, 68, 55
2, 66422, Note_on_c, 0, 67, 0
2, 66455, Control_c, 0, 64, 0
2, 66468, Note_on_c, 0, 53, 46
2, 66530, Note_on_c, 0, 56, 48
2, 66530, Note_on_c, 0, 65, 57
2, 66534, Note_on_c, 0, 68, 0
2, 66534, Note_on_c, 0, 46, 0
2, 66535, Control_c, 0, 64, 127
2, 66538, Note_on_c, 0, 65, 0
2, 66538, Note_on_c, 0, 53, 0
2, 66539, Note_on_c, 0, 56, 0
2, 66609, Note_on_c, 0, 55, 59
2, 66609, Note_on_c, 0, 73, 63
2, 66609, Note_on_c, 0, 85, 65
2, 66651, Control_c, 0, 64, 0
2, 66668, Note_on_c, 0, 58, 53
2, 66693, Control_c, 0, 64, 127
2, 66717, Note_on_c, 0, 55, 0
2, 66718, Note_on_c, 0, 64, 55
2, 66726, Note_on_c, 0, 58, 0
2, 66734, Note_on_c, 0, 73, 0
2, 66734, Note_on_c, 0, 85, 0
2, 66743, Note_on_c, 0, 64, 0
2, 66768, Note_on_c, 0, 72, 59
2, 66768, Note_on_c, 0, 84, 60
2, 66768, Note_on_c, 0, 56, 52
2, 66797, Control_c, 0, 64, 0
2, 66826, Note_on_c, 0, 60, 55
2, 66868, Note_on_c, 0, 56, 0
2, 66868, Control_c, 0, 64, 127
2, 66876, Note_on_c, 0, 72, 0
2, 66876, Note_on_c, 0, 65, 47
2, 66879, Note_on_c, 0, 84, 0
2, 66918, Note_on_c, 0, 60, 0
2, 66926, Note_on_c, 0, 65, 0
2, 66934, Note_on_c, 0, 87, 66
2, 66934, Note_on_c, 0, 75, 59
2, 66934, Note_on_c, 0, 57, 55
2, 66968, Control_c, 0, 64, 0
2, 66989, Note_on_c, 0, 60, 46
2, 67035, Note_on_c, 0, 57, 0
2, 67051, Note_on_c, 0, 60, 0
2, 67051, Note_on_c, 0, 66, 44
2, 67052, Control_c, 0, 64, 127
2, 67079, Note_on_c, 0, 87, 0
2, 67084, Note_on_c, 0, 75, 0
2, 67110, Note_on_c, 0, 66, 0
2, 67118, Note_on_c, 0, 58, 50
2, 67118, Note_on_c, 0, 79, 48
2, 67130, Control_c, 0, 64, 0
2, 67176, Note_on_c, 0, 79, 0
2, 67176, Note_on_c, 0, 80, 49
2, 67185, Note_on_c, 0, 63, 42
2, 67197, Control_c, 0, 64, 127
2, 67201, Note_on_c, 0, 80, 0
2, 67201, Note_on_c, 0, 79, 49
2, 67218, Note_on_c, 0, 79, 0
2, 67218, Note_on_c, 0, 80, 45
2, 67235, Note_on_c, 0, 79, 51
2, 67238, Note_on_c, 0, 80, 0
2, 67238, Note_on_c, 0, 67, 43
2, 67239, Note_on_c, 0, 58, 0
2, 67251, Note_on_c, 0, 63, 0
2, 67256, Note_on_c, 0, 79, 0
2, 67256, Note_on_c, 0, 80, 51
2, 67268, Note_on_c, 0, 79, 50
2, 67276, Note_on_c, 0, 80, 0
2, 67289, Note_on_c, 0, 79, 0
2, 67289, Note_on_c, 0, 67, 0
2, 67289, Note_on_c, 0, 80, 54
2, 67293, Note_on_c, 0, 58, 51
2, 67314, Note_on_c, 0, 80, 0
2, 67314, Note_on_c, 0, 79, 38
2, 67338, Note_on_c, 0, 79, 0
2, 67339, Note_on_c, 0, 80, 52
2, 67339, Note_on_c, 0, 63, 44
2, 67364, Note_on_c, 0, 79, 46
2, 67368, Note_on_c, 0, 80, 0
2, 67393, Note_on_c, 0, 79, 0
2, 67393, Note_on_c, 0, 77, 63
2, 67397, Note_on_c, 0, 58, 0
2, 67406, Note_on_c, 0, 67, 43
2, 67422, Note_on_c, 0, 79, 56
2, 67430, Note_on_c, 0, 77, 0
2, 67439, Note_on_c, 0, 63, 0
2, 67451, Note_on_c, 0, 67, 0
2, 67451, Note_on_c, 0, 58, 55
2, 67451, Note_on_c, 0, 80, 57
2, 67460, Note_on_c, 0, 79, 0
2, 67514, Note_on_c, 0, 65, 42
2, 67518, Note_on_c, 0, 66, 14
2, 67522, Note_on_c, 0, 66, 0
2, 67530, Control_c, 0, 64, 0
2, 67560, Note_on_c, 0, 68, 49
2, 67560, Note_on_c, 0, 77, 57
2, 67568, Note_on_c, 0, 80, 0
2, 67568, Control_c, 0, 64, 127
2, 67572, Note_on_c, 0, 68, 0
2, 67576, Note_on_c, 0, 58, 0
2, 67576, Note_on_c, 0, 65, 0
2, 67576, Note_on_c, 0, 77, 0
2, 67614, Note_on_c, 0, 75, 70
2, 67614, Note_on_c, 0, 67, 56
2, 67614, Note_on_c, 0, 63, 63
2, 67643, Control_c, 0, 64, 0
2, 67672, Note_on_c, 0, 79, 51
2, 67697, Control_c, 0, 64, 127
2, 67710, Note_on_c, 0, 75, 0
2, 67727, Note_on_c, 0, 82, 41
2, 67764, Note_on_c, 0, 82, 0
2, 67777, Note_on_c, 0, 87, 45
2, 67789, Note_on_c, 0, 79, 0
2, 67789, Note_on_c, 0, 67, 0
2, 67802, Note_on_c, 0, 63, 0
2, 67827, Note_on_c, 0, 82, 40
2, 67830, Note_on_c, 0, 87, 0
2, 67864, Note_on_c, 0, 82, 0
2, 67872, Note_on_c, 0, 79, 54
2, 67928, Note_on_c, 0, 58, 49
2, 67928, Note_on_c, 0, 46, 52
2, 67928, Note_on_c, 0, 80, 52
2, 67930, Note_on_c, 0, 79, 0
2, 67943, Control_c, 0, 64, 0
2, 67977, Control_c, 0, 64, 127
2, 67981, Note_on_c, 0, 46, 0
2, 67981, Note_on_c, 0, 77, 56
2, 67989, Note_on_c, 0, 80, 0
2, 67994, Note_on_c, 0, 58, 0
2, 68026, Note_on_c, 0, 77, 0
2, 68031, Note_on_c, 0, 74, 55
2, 68080, Note_on_c, 0, 63, 45
2, 68080, Note_on_c, 0, 75, 44
2, 68080, Note_on_c, 0, 51, 50
2, 68097, Control_c, 0, 64, 0
2, 68118, Note_on_c, 0, 74, 0
2, 68125, Note_on_c, 0, 63, 0
2, 68131, Note_on_c, 0, 79, 52
2, 68135, Control_c, 0, 64, 127
2, 68139, Note_on_c, 0, 51, 0
2, 68167, Note_on_c, 0, 75, 0
2, 68181, Note_on_c, 0, 70, 47
2, 68226, Note_on_c, 0, 70, 0
2, 68231, Note_on_c, 0, 43, 49
2, 68231, Note_on_c, 0, 55, 45
2, 68231, Note_on_c, 0, 75, 46
2, 68268, Note_on_c, 0, 43, 0
2, 68276, Note_on_c, 0, 55, 0
2, 68285, Note_on_c, 0, 70, 26
2, 68298, Note_on_c, 0, 75, 0
2, 68302, Note_on_c, 0, 79, 0
2, 68306, Note_on_c, 0, 70, 0
2, 68335, Note_on_c, 0, 67, 54
2, 68380, Note_on_c, 0, 58, 38
2, 68380, Note_on_c, 0, 68, 46
2, 68380, Note_on_c, 0, 46, 46
2, 68389, Note_on_c, 0, 67, 0
2, 68390, Control_c, 0, 64, 0
2, 68426, Note_on_c, 0, 58, 0
2, 68427, Control_c, 0, 64, 127
2, 68435, Note_on_c, 0, 65, 43
2, 68438, Note_on_c, 0, 68, 0
2, 68447, Note_on_c, 0, 46, 0
2, 68481, Note_on_c, 0, 65, 0
2, 68489, Note_on_c, 0, 62, 36
2, 68544, Control_c, 0, 64, 0
2, 68544, Note_on_c, 0, 51, 41
2, 68544, Note_on_c, 0, 39, 45
2, 68545, Note_on_c, 0, 63, 45
2, 68551, Note_on_c, 0, 62, 0
2, 68606, Control_c, 0, 64, 127
2, 68672, Note_on_c, 0, 63, 0
2, 68677, Note_on_c, 0, 39, 0
2, 68685, Note_on_c, 0, 51, 0
2, 68860, Control_c, 0, 64, 0
2, 68881, Note_on_c, 0, 55, 35
2, 68881, Note_on_c, 0, 58, 41
2, 68882, Note_on_c, 0, 63, 41
2, 68882, Note_on_c, 0, 51, 36
2, 68902, Note_on_c, 0, 51, 0
2, 68902, Note_on_c, 0, 55, 0
2, 68905, Note_on_c, 0, 63, 0
2, 68910, Note_on_c, 0, 58, 0
2, 69044, Note_on_c, 0, 58, 30
2, 69044, Note_on_c, 0, 63, 34
2, 69048, Note_on_c, 0, 51, 26
2, 69048, Note_on_c, 0, 55, 17
2, 69131, Control_c, 0, 64, 127
2, 69231, Note_on_c, 0, 58, 0
2, 69256, Note_on_c, 0, 63, 0
2, 69264, Note_on_c, 0, 55, 0
2, 69273, Note_on_c, 0, 51, 0
2, 69531, Control_c, 0, 64, 0
2, 69627, Note_on_c, 0, 46, 36
2, 69627, Note_on_c, 0, 58, 32
2, 69685, Note_on_c, 0, 69, 35
2, 69715, Control_c, 0, 64, 127
2, 69735, Note_on_c, 0, 70, 31
2, 69785, Note_on_c, 0, 72, 56
2, 69794, Note_on_c, 0, 70, 0
2, 69794, Note_on_c, 0, 69, 0
2, 69835, Note_on_c, 0, 69, 50
2, 69881, Note_on_c, 0, 70, 54
2, 69890, Note_on_c, 0, 72, 0
2, 69898, Note_on_c, 0, 46, 0
2, 69923, Note_on_c, 0, 58, 0
2, 69931, Note_on_c, 0, 72, 57
2, 69935, Note_on_c, 0, 70, 0
2, 69940, Note_on_c, 0, 69, 0
2, 69981, Note_on_c, 0, 69, 45
2, 70035, Note_on_c, 0, 70, 48
2, 70040, Note_on_c, 0, 72, 0
2, 70048, Note_on_c, 0, 69, 0
2, 70052, Note_on_c, 0, 70, 0
2, 70106, Note_on_c, 0, 82, 51
2, 70106, Note_on_c, 0, 58, 40
2, 70148, Control_c, 0, 64, 0
2, 70161, Note_on_c, 0, 62, 41
2, 70185, Control_c, 0, 64, 127
2, 70206, Note_on_c, 0, 58, 0
2, 70206, Note_on_c, 0, 65, 42
2, 70218, Note_on_c, 0, 62, 0
2, 70256, Note_on_c, 0, 58, 44
2, 70265, Note_on_c, 0, 65, 0
2, 70307, Note_on_c, 0, 63, 37
2, 70352, Note_on_c, 0, 58, 0
2, 70352, Note_on_c, 0, 67, 40
2, 70386, Note_on_c, 0, 63, 0
2, 70402, Note_on_c, 0, 82, 0
2, 70402, Note_on_c, 0, 58, 49
2, 70402, Note_on_c, 0, 65, 32
2, 70402, Note_on_c, 0, 74, 54
2, 70406, Note_on_c, 0, 67, 0
2, 70423, Note_on_c, 0, 74, 0
2, 70423, Note_on_c, 0, 75, 45
2, 70439, Note_on_c, 0, 63, 37
2, 70440, Note_on_c, 0, 65, 0
2, 70448, Note_on_c, 0, 74, 42
2, 70465, Note_on_c, 0, 75, 0
2, 70468, Note_on_c, 0, 74, 0
2, 70469, Note_on_c, 0, 63, 0
2, 70469, Note_on_c, 0, 68, 30
2, 70473, Note_on_c, 0, 72, 53
2, 70485, Note_on_c, 0, 58, 0
2, 70511, Note_on_c, 0, 74, 47
2, 70514, Note_on_c, 0, 68, 0
2, 70523, Note_on_c, 0, 72, 0
2, 70552, Note_on_c, 0, 75, 57
2, 70552, Note_on_c, 0, 67, 44
2, 70552, Note_on_c, 0, 58, 46
2, 70552, Note_on_c, 0, 63, 49
2, 70561, Note_on_c, 0, 74, 0
2, 70581, Control_c, 0, 64, 0
2, 70602, Note_on_c, 0, 75, 0
2, 70602, Note_on_c, 0, 69, 40
2, 70652, Note_on_c, 0, 70, 54
2, 70694, Control_c, 0, 64, 127
2, 70702, Note_on_c, 0, 72, 54
2, 70706, Note_on_c, 0, 70, 0
2, 70706, Note_on_c, 0, 69, 0
2, 70753, Note_on_c, 0, 69, 47
2, 70798, Note_on_c, 0, 70, 50
2, 70802, Note_on_c, 0, 72, 0
2, 70848, Note_on_c, 0, 72, 52
2, 70856, Note_on_c, 0, 69, 0
2, 70856, Note_on_c, 0, 70, 0
2, 70902, Note_on_c, 0, 69, 40
2, 70952, Note_on_c, 0, 70, 40
2, 70956, Note_on_c, 0, 72, 0
2, 70965, Note_on_c, 0, 69, 0
2, 70965, Note_on_c, 0, 58, 0
2, 70969, Note_on_c, 0, 63, 0
2, 70973, Note_on_c, 0, 70, 0
2, 70977, Note_on_c, 0, 67, 0
2, 71023, Note_on_c, 0, 58, 45
2, 71023, Note_on_c, 0, 82, 50
2, 71069, Control_c, 0, 64, 0
2, 71073, Note_on_c, 0, 63, 38
2, 71114, Note_on_c, 0, 58, 0
2, 71123, Control_c, 0, 64, 127
2, 71128, Note_on_c, 0, 67, 43
2, 71160, Note_on_c, 0, 63, 0
2, 71178, Note_on_c, 0, 58, 50
2, 71190, Note_on_c, 0, 67, 0
2, 71227, Note_on_c, 0, 65, 42
2, 71282, Note_on_c, 0, 68, 46
2, 71286, Note_on_c, 0, 58, 0
2, 71294, Note_on_c, 0, 65, 0
2, 71315, Note_on_c, 0, 68, 0
2, 71327, Note_on_c, 0, 82, 0
2, 71331, Note_on_c, 0, 58, 54
2, 71331, Note_on_c, 0, 76, 54
2, 71348, Note_on_c, 0, 76, 0
2, 71348, Note_on_c, 0, 77, 51
2, 71357, Note_on_c, 0, 67, 35
2, 71369, Note_on_c, 0, 76, 57
2, 71382, Note_on_c, 0, 77, 0
2, 71394, Note_on_c, 0, 76, 0
2, 71394, Note_on_c, 0, 74, 57
2, 71406, Note_on_c, 0, 67, 0
2, 71427, Note_on_c, 0, 76, 45
2, 71444, Note_on_c, 0, 58, 0
2, 71469, Note_on_c, 0, 74, 0
2, 71477, Note_on_c, 0, 77, 53
2, 71477, Note_on_c, 0, 68, 49
2, 71477, Note_on_c, 0, 62, 62
2, 71477, Note_on_c, 0, 58, 52
2, 71482, Note_on_c, 0, 76, 0
2, 71523, Control_c, 0, 64, 0
2, 71528, Note_on_c, 0, 69, 52
2, 71531, Note_on_c, 0, 77, 0
2, 71578, Note_on_c, 0, 70, 62
2, 71628, Note_on_c, 0, 72, 56
2, 71632, Control_c, 0, 64, 127
2, 71636, Note_on_c, 0, 70, 0
2, 71636, Note_on_c, 0, 69, 0
2, 71682, Note_on_c, 0, 69, 55
2, 71732, Note_on_c, 0, 70, 60
2, 71740, Note_on_c, 0, 72, 0
2, 71778, Note_on_c, 0, 72, 54
2, 71786, Note_on_c, 0, 70, 0
2, 71790, Note_on_c, 0, 69, 0
2, 71832, Note_on_c, 0, 69, 54
2, 71857, Note_on_c, 0, 58, 0
2, 71877, Note_on_c, 0, 68, 0
2, 71882, Note_on_c, 0, 62, 0
2, 71882, Note_on_c, 0, 72, 0
2, 71886, Note_on_c, 0, 70, 70
2, 71894, Note_on_c, 0, 69, 0
2, 71898, Note_on_c, 0, 70, 0
2, 71944, Note_on_c, 0, 58, 47
2, 71945, Note_on_c, 0, 82, 59
2, 71978, Control_c, 0, 64, 0
2, 71990, Note_on_c, 0, 65, 26
2, 72024, Control_c, 0, 64, 127
2, 72044, Note_on_c, 0, 58, 0
2, 72044, Note_on_c, 0, 68, 42
2, 72082, Note_on_c, 0, 65, 0
2, 72086, Note_on_c, 0, 68, 0
2, 72099, Note_on_c, 0, 58, 51
2, 72148, Note_on_c, 0, 63, 43
2, 72194, Note_on_c, 0, 67, 46
2, 72211, Note_on_c, 0, 63, 0
2, 72211, Note_on_c, 0, 58, 0
2, 72223, Note_on_c, 0, 67, 0
2, 72232, Note_on_c, 0, 82, 0
2, 72253, Note_on_c, 0, 58, 47
2, 72256, Note_on_c, 0, 65, 57
2, 72256, Note_on_c, 0, 62, 49
2, 72256, Note_on_c, 0, 77, 45
2, 72269, Note_on_c, 0, 79, 45
2, 72271, Note_on_c, 0, 77, 0
2, 72274, Control_c, 0, 64, 0
2, 72284, Note_on_c, 0, 58, 0
2, 72284, Note_on_c, 0, 79, 0
2, 72288, Note_on_c, 0, 65, 0
2, 72290, Note_on_c, 0, 77, 45
2, 72298, Control_c, 0, 64, 127
2, 72303, Note_on_c, 0, 79, 45
2, 72305, Note_on_c, 0, 77, 0
2, 72306, Note_on_c, 0, 62, 0
2, 72315, Note_on_c, 0, 77, 30
2, 72318, Note_on_c, 0, 79, 0
2, 72330, Note_on_c, 0, 77, 0
2, 72330, Note_on_c, 0, 79, 30
2, 72345, Note_on_c, 0, 79, 0
2, 72346, Note_on_c, 0, 77, 30
2, 72356, Note_on_c, 0, 77, 0
2, 72357, Note_on_c, 0, 79, 35
2, 72367, Note_on_c, 0, 79, 0
2, 72374, Note_on_c, 0, 77, 33
2, 72379, Note_on_c, 0, 77, 0
2, 72403, Note_on_c, 0, 57, 54
2, 72403, Note_on_c, 0, 63, 55
2, 72424, Control_c, 0, 64, 0
2, 72428, Note_on_c, 0, 63, 0
2, 72428, Note_on_c, 0, 57, 0
2, 72536, Control_c, 0, 64, 127
2, 72548, Note_on_c, 0, 78, 45
2, 72619, Note_on_c, 0, 78, 0
2, 72698, Note_on_c, 0, 77, 31
2, 72769, Note_on_c, 0, 75, 32
2, 72778, Note_on_c, 0, 77, 0
2, 72815, Control_c, 0, 64, 0
2, 72844, Note_on_c, 0, 59, 38
2, 72844, Note_on_c, 0, 63, 47
2, 72849, Control_c, 0, 64, 127
2, 72861, Note_on_c, 0, 59, 0
2, 72861, Note_on_c, 0, 75, 0
2, 72866, Note_on_c, 0, 63, 0
2, 72961, Control_c, 0, 64, 0
2, 72978, Note_on_c, 0, 75, 38
2, 73098, Control_c, 0, 64, 127
2, 73111, Note_on_c, 0, 73, 40
2, 73136, Note_on_c, 0, 75, 0
2, 73182, Note_on_c, 0, 71, 37
2, 73186, Note_on_c, 0, 73, 0
2, 73232, Note_on_c, 0, 71, 0
2, 73244, Control_c, 0, 64, 0
2, 73249, Note_on_c, 0, 62, 37
2, 73253, Note_on_c, 0, 58, 40
2, 73320, Note_on_c, 0, 69, 35
2, 73386, Control_c, 0, 64, 127
2, 73387, Note_on_c, 0, 72, 46
2, 73398, Note_on_c, 0, 69, 0
2, 73440, Note_on_c, 0, 72, 0
2, 73453, Note_on_c, 0, 70, 40
2, 73465, Note_on_c, 0, 70, 0
2, 73520, Note_on_c, 0, 75, 40
2, 73553, Control_c, 0, 64, 0
2, 73582, Note_on_c, 0, 74, 47
2, 73586, Note_on_c, 0, 75, 0
2, 73661, Note_on_c, 0, 77, 40
2, 73662, Control_c, 0, 64, 127
2, 73703, Note_on_c, 0, 77, 0
2, 73716, Note_on_c, 0, 74, 0
2, 73795, Note_on_c, 0, 81, 35
2, 73816, Note_on_c, 0, 81, 0
2, 73932, Note_on_c, 0, 82, 49
2, 74082, Note_on_c, 0, 70, 44
2, 74094, Note_on_c, 0, 82, 0
2, 74132, Note_on_c, 0, 70, 0
2, 74178, Note_on_c, 0, 62, 0
2, 74194, Note_on_c, 0, 58, 0
2, 74353, Note_on_c, 0, 53, 45
2, 74353, Note_on_c, 0, 62, 45
2, 74354, Note_on_c, 0, 46, 45
2, 74354, Note_on_c, 0, 68, 53
2, 74354, Control_c, 0, 64, 0
2, 74374, Note_on_c, 0, 46, 0
2, 74378, Note_on_c, 0, 68, 0
2, 74378, Note_on_c, 0, 53, 0
2, 74382, Note_on_c, 0, 62, 0
2, 74524, Note_on_c, 0, 46, 31
2, 74524, Note_on_c, 0, 53, 25
2, 74524, Note_on_c, 0, 62, 32
2, 74524, Note_on_c, 0, 68, 45
2, 74636, Control_c, 0, 64, 127
2, 74779, Note_on_c, 0, 62, 0
2, 74800, Note_on_c, 0, 46, 0
2, 74803, Note_on_c, 0, 53, 0
2, 74807, Note_on_c, 0, 68, 0
2, 75066, Control_c, 0, 64, 0
2, 75154, Note_on_c, 0, 39, 51
2, 75154, Note_on_c, 0, 51, 55
2, 75178, Control_c, 0, 64, 127
2, 75236, Note_on_c, 0, 39, 0
2, 75241, Note_on_c, 0, 51, 0
2, 75300, Note_on_c, 0, 82, 63
2, 75300, Note_on_c, 0, 79, 56
2, 75345, Note_on_c, 0, 84, 52
2, 75350, Note_on_c, 0, 82, 0
2, 75362, Note_on_c, 0, 79, 0
2, 75395, Note_on_c, 0, 82, 54
2, 75399, Note_on_c, 0, 84, 0
2, 75407, Note_on_c, 0, 82, 0
2, 75442, Note_on_c, 0, 77, 56
2, 75442, Note_on_c, 0, 80, 65
2, 75445, Control_c, 0, 64, 0
2, 75474, Control_c, 0, 64, 127
2, 75482, Note_on_c, 0, 82, 47
2, 75488, Note_on_c, 0, 80, 0
2, 75488, Note_on_c, 0, 77, 0
2, 75524, Note_on_c, 0, 80, 46
2, 75540, Note_on_c, 0, 82, 0
2, 75562, Note_on_c, 0, 80, 0
2, 75570, Note_on_c, 0, 79, 57
2, 75570, Note_on_c, 0, 75, 43
2, 75612, Note_on_c, 0, 79, 0
2, 75612, Note_on_c, 0, 80, 44
2, 75637, Note_on_c, 0, 75, 0
2, 75658, Note_on_c, 0, 79, 49
2, 75662, Note_on_c, 0, 80, 0
2, 75674, Note_on_c, 0, 79, 0
2, 75704, Note_on_c, 0, 77, 60
2, 75704, Note_on_c, 0, 74, 57
2, 75712, Control_c, 0, 64, 0
2, 75741, Control_c, 0, 64, 127
2, 75754, Note_on_c, 0, 79, 42
2, 75762, Note_on_c, 0, 77, 0
2, 75766, Note_on_c, 0, 74, 0
2, 75791, Note_on_c, 0, 77, 49
2, 75795, Note_on_c, 0, 79, 0
2, 75804, Note_on_c, 0, 77, 0
2, 75837, Note_on_c, 0, 72, 55
2, 75837, Note_on_c, 0, 75, 65
2, 75846, Control_c, 0, 64, 0
2, 75870, Control_c, 0, 64, 127
2, 75883, Note_on_c, 0, 75, 0
2, 75883, Note_on_c, 0, 77, 49
2, 75920, Note_on_c, 0, 72, 0
2, 75925, Note_on_c, 0, 75, 43
2, 75928, Note_on_c, 0, 77, 0
2, 75966, Note_on_c, 0, 75, 0
2, 75966, Note_on_c, 0, 70, 47
2, 75966, Note_on_c, 0, 74, 56
2, 76008, Note_on_c, 0, 70, 0
2, 76012, Note_on_c, 0, 74, 0
2, 76016, Note_on_c, 0, 75, 32
2, 76058, Note_on_c, 0, 74, 45
2, 76062, Note_on_c, 0, 75, 0
2, 76070, Note_on_c, 0, 74, 0
2, 76104, Note_on_c, 0, 68, 50
2, 76104, Note_on_c, 0, 72, 59
2, 76141, Note_on_c, 0, 68, 0
2, 76149, Note_on_c, 0, 74, 46
2, 76162, Note_on_c, 0, 72, 0
2, 76195, Note_on_c, 0, 72, 49
2, 76199, Note_on_c, 0, 74, 0
2, 76212, Note_on_c, 0, 72, 0
2, 76245, Note_on_c, 0, 63, 52
2, 76245, Note_on_c, 0, 70, 66
2, 76245, Note_on_c, 0, 67, 52
2, 76262, Control_c, 0, 64, 0
2, 76291, Note_on_c, 0, 63, 0
2, 76291, Note_on_c, 0, 65, 49
2, 76308, Control_c, 0, 64, 127
2, 76333, Note_on_c, 0, 65, 0
2, 76333, Note_on_c, 0, 63, 41
2, 76337, Note_on_c, 0, 67, 0
2, 76378, Note_on_c, 0, 63, 0
2, 76378, Note_on_c, 0, 65, 54
2, 76378, Note_on_c, 0, 62, 47
2, 76404, Control_c, 0, 64, 0
2, 76420, Note_on_c, 0, 63, 45
2, 76429, Note_on_c, 0, 62, 0
2, 76436, Note_on_c, 0, 65, 0
2, 76437, Control_c, 0, 64, 127
2, 76462, Note_on_c, 0, 63, 0
2, 76462, Note_on_c, 0, 62, 47
2, 76508, Note_on_c, 0, 62, 0
2, 76508, Note_on_c, 0, 63, 47
2, 76508, Note_on_c, 0, 60, 49
2, 76525, Control_c, 0, 64, 0
2, 76546, Note_on_c, 0, 62, 45
2, 76549, Note_on_c, 0, 60, 0
2, 76554, Control_c, 0, 64, 127
2, 76582, Note_on_c, 0, 63, 0
2, 76587, Note_on_c, 0, 60, 47
2, 76591, Note_on_c, 0, 62, 0
2, 76599, Note_on_c, 0, 60, 0
2, 76604, Note_on_c, 0, 70, 0
2, 76633, Note_on_c, 0, 58, 62
2, 76633, Note_on_c, 0, 62, 53
2, 76633, Note_on_c, 0, 70, 60
2, 76646, Control_c, 0, 64, 0
2, 76670, Note_on_c, 0, 58, 0
2, 76674, Note_on_c, 0, 60, 54
2, 76691, Control_c, 0, 64, 127
2, 76716, Note_on_c, 0, 58, 57
2, 76729, Note_on_c, 0, 60, 0
2, 76762, Note_on_c, 0, 56, 63
2, 76774, Note_on_c, 0, 58, 0
2, 76808, Note_on_c, 0, 58, 65
2, 76812, Note_on_c, 0, 56, 0
2, 76815, Note_on_c, 0, 62, 0
2, 76850, Note_on_c, 0, 56, 55
2, 76870, Note_on_c, 0, 58, 0
2, 76904, Note_on_c, 0, 56, 0
2, 76904, Note_on_c, 0, 70, 0
2, 76904, Note_on_c, 0, 55, 68
2, 76904, Note_on_c, 0, 63, 53
2, 76904, Note_on_c, 0, 72, 62
2, 76950, Control_c, 0, 64, 0
2, 76950, Note_on_c, 0, 56, 55
2, 76962, Note_on_c, 0, 55, 0
2, 76983, Control_c, 0, 64, 127
2, 76995, Note_on_c, 0, 55, 49
2, 77003, Note_on_c, 0, 56, 0
2, 77016, Note_on_c, 0, 63, 0
2, 77016, Note_on_c, 0, 55, 0
2, 77029, Note_on_c, 0, 72, 0
2, 77045, Note_on_c, 0, 74, 63
2, 77045, Note_on_c, 0, 65, 46
2, 77045, Note_on_c, 0, 53, 40
2, 77070, Control_c, 0, 64, 0
2, 77096, Note_on_c, 0, 55, 46
2, 77108, Note_on_c, 0, 53, 0
2, 77108, Control_c, 0, 64, 127
2, 77124, Note_on_c, 0, 55, 0
2, 77128, Note_on_c, 0, 65, 0
2, 77136, Note_on_c, 0, 74, 0
2, 77141, Note_on_c, 0, 53, 45
2, 77154, Note_on_c, 0, 53, 0
2, 77192, Note_on_c, 0, 67, 33
2, 77192, Note_on_c, 0, 51, 45
2, 77192, Note_on_c, 0, 75, 45
2, 77225, Control_c, 0, 64, 0
2, 77237, Note_on_c, 0, 79, 54
2, 77245, Note_on_c, 0, 75, 0
2, 77266, Control_c, 0, 64, 127
2, 77283, Note_on_c, 0, 67, 0
2, 77283, Note_on_c, 0, 77, 48
2, 77300, Note_on_c, 0, 79, 0
2, 77325, Note_on_c, 0, 51, 0
2, 77325, Note_on_c, 0, 60, 54
2, 77325, Note_on_c, 0, 75, 48
2, 77342, Note_on_c, 0, 77, 0
2, 77374, Note_on_c, 0, 75, 0
2, 77374, Note_on_c, 0, 74, 42
2, 77416, Note_on_c, 0, 75, 42
2, 77420, Note_on_c, 0, 74, 0
2, 77458, Note_on_c, 0, 75, 0
2, 77466, Note_on_c, 0, 60, 0
2, 77466, Note_on_c, 0, 68, 53
2, 77466, Note_on_c, 0, 72, 55
2, 77466, Note_on_c, 0, 56, 31
2, 77500, Control_c, 0, 64, 0
2, 77504, Note_on_c, 0, 74, 56
2, 77508, Note_on_c, 0, 72, 0
2, 77545, Note_on_c, 0, 68, 0
2, 77550, Note_on_c, 0, 72, 51
2, 77550, Control_c, 0, 64, 127
2, 77558, Control_c, 0, 64, 0
2, 77562, Note_on_c, 0, 74, 0
2, 77595, Note_on_c, 0, 58, 43
2, 77595, Note_on_c, 0, 70, 51
2, 77595, Note_on_c, 0, 67, 45
2, 77604, Note_on_c, 0, 72, 0
2, 77604, Note_on_c, 0, 56, 0
2, 77642, Note_on_c, 0, 60, 53
2, 77645, Note_on_c, 0, 58, 0
2, 77679, Note_on_c, 0, 60, 0
2, 77683, Note_on_c, 0, 58, 38
2, 77725, Note_on_c, 0, 58, 0
2, 77725, Control_c, 0, 64, 127
2, 77725, Note_on_c, 0, 60, 54
2, 77774, Note_on_c, 0, 62, 40
2, 77788, Note_on_c, 0, 60, 0
2, 77790, Note_on_c, 0, 70, 0
2, 77800, Note_on_c, 0, 67, 0
2, 77808, Note_on_c, 0, 62, 0
2, 77812, Note_on_c, 0, 60, 45
2, 77858, Note_on_c, 0, 60, 0
2, 77858, Note_on_c, 0, 62, 55
2, 77858, Control_c, 0, 64, 0
2, 77859, Note_on_c, 0, 70, 43
2, 77875, Note_on_c, 0, 68, 51
2, 77879, Note_on_c, 0, 70, 0
2, 77887, Control_c, 0, 64, 127
2, 77892, Note_on_c, 0, 68, 0
2, 77892, Note_on_c, 0, 70, 49
2, 77912, Note_on_c, 0, 68, 40
2, 77916, Note_on_c, 0, 70, 0
2, 77929, Note_on_c, 0, 70, 45
2, 77933, Note_on_c, 0, 68, 0
2, 77940, Note_on_c, 0, 68, 43
2, 77945, Note_on_c, 0, 70, 0
2, 77964, Note_on_c, 0, 70, 44
2, 77984, Note_on_c, 0, 70, 0
2, 77990, Note_on_c, 0, 68, 0
2, 77992, Note_on_c, 0, 68, 46
2, 78004, Note_on_c, 0, 62, 0
2, 78008, Note_on_c, 0, 63, 38
2, 78008, Note_on_c, 0, 67, 46
2, 78012, Note_on_c, 0, 68, 0
2, 78025, Control_c, 0, 64, 0
2, 78134, Note_on_c, 0, 74, 49
2, 78134, Note_on_c, 0, 51, 35
2, 78175, Control_c, 0, 64, 127
2, 78263, Note_on_c, 0, 75, 53
2, 78266, Note_on_c, 0, 51, 0
2, 78268, Note_on_c, 0, 74, 0
2, 78275, Note_on_c, 0, 67, 0
2, 78304, Note_on_c, 0, 75, 0
2, 78337, Note_on_c, 0, 63, 0
2, 78367, Note_on_c, 0, 55, 40
2, 78383, Note_on_c, 0, 58, 50
2, 78400, Note_on_c, 0, 63, 45
2, 78404, Control_c, 0, 64, 0
2, 78529, Control_c, 0, 64, 127
2, 78537, Note_on_c, 0, 82, 59
2, 78667, Note_on_c, 0, 55, 0
2, 78675, Note_on_c, 0, 58, 0
2, 78679, Note_on_c, 0, 79, 50
2, 78683, Note_on_c, 0, 63, 0
2, 78692, Note_on_c, 0, 82, 0
2, 78779, Note_on_c, 0, 56, 40
2, 78792, Note_on_c, 0, 60, 48
2, 78817, Note_on_c, 0, 65, 40
2, 78821, Control_c, 0, 64, 0
2, 78871, Note_on_c, 0, 79, 0
2, 78875, Note_on_c, 0, 77, 45
2, 78917, Control_c, 0, 64, 127
2, 78942, Note_on_c, 0, 79, 65
2, 78954, Note_on_c, 0, 77, 0
2, 79004, Note_on_c, 0, 80, 63
2, 79012, Note_on_c, 0, 60, 0
2, 79016, Note_on_c, 0, 56, 0
2, 79017, Note_on_c, 0, 79, 0
2, 79017, Note_on_c, 0, 65, 0
2, 79071, Note_on_c, 0, 82, 65
2, 79075, Note_on_c, 0, 80, 0
2, 79138, Note_on_c, 0, 82, 0
2, 79138, Note_on_c, 0, 84, 59
2, 79158, Note_on_c, 0, 58, 48
2, 79166, Note_on_c, 0, 62, 53
2, 79183, Note_on_c, 0, 65, 53
2, 79200, Control_c, 0, 64, 0
2, 79200, Note_on_c, 0, 68, 54
2, 79330, Note_on_c, 0, 82, 59
2, 79338, Note_on_c, 0, 84, 0
2, 79338, Control_c, 0, 64, 127
2, 79388, Note_on_c, 0, 80, 43
2, 79404, Note_on_c, 0, 82, 0
2, 79454, Note_on_c, 0, 79, 44
2, 79462, Note_on_c, 0, 80, 0
2, 79475, Note_on_c, 0, 68, 0
2, 79492, Note_on_c, 0, 65, 0
2, 79492, Note_on_c, 0, 62, 0
2, 79517, Note_on_c, 0, 58, 0
2, 79521, Note_on_c, 0, 79, 0
2, 79521, Note_on_c, 0, 77, 43
2, 79588, Note_on_c, 0, 74, 48
2, 79596, Note_on_c, 0, 77, 0
2, 79638, Note_on_c, 0, 74, 0
2, 79650, Note_on_c, 0, 75, 70
2, 79650, Note_on_c, 0, 63, 62
2, 79650, Note_on_c, 0, 51, 62
2, 79671, Control_c, 0, 64, 0
2, 79692, Note_on_c, 0, 70, 66
2, 79729, Note_on_c, 0, 70, 0
2, 79734, Note_on_c, 0, 67, 65
2, 79738, Control_c, 0, 64, 127
2, 79762, Note_on_c, 0, 63, 0
2, 79763, Note_on_c, 0, 67, 0
2, 79776, Note_on_c, 0, 70, 49
2, 79788, Note_on_c, 0, 51, 0
2, 79795, Note_on_c, 0, 75, 0
2, 79813, Note_on_c, 0, 70, 0
2, 79813, Note_on_c, 0, 67, 55
2, 79842, Note_on_c, 0, 67, 0
2, 79854, Note_on_c, 0, 63, 55
2, 79892, Control_c, 0, 64, 0
2, 79896, Note_on_c, 0, 63, 0
2, 79900, Note_on_c, 0, 46, 51
2, 79900, Note_on_c, 0, 58, 45
2, 79900, Note_on_c, 0, 62, 54
2, 79925, Control_c, 0, 64, 127
2, 79938, Note_on_c, 0, 58, 0
2, 79942, Note_on_c, 0, 65, 30
2, 79946, Note_on_c, 0, 46, 0
2, 79950, Note_on_c, 0, 62, 0
2, 79976, Note_on_c, 0, 68, 46
2, 79984, Note_on_c, 0, 65, 0
2, 80017, Note_on_c, 0, 68, 0
2, 80022, Note_on_c, 0, 39, 45
2, 80022, Note_on_c, 0, 51, 44
2, 80022, Note_on_c, 0, 67, 40
2, 80029, Control_c, 0, 64, 0
2, 80059, Control_c, 0, 64, 127
2, 80067, Note_on_c, 0, 70, 46
2, 80068, Note_on_c, 0, 39, 0
2, 80075, Note_on_c, 0, 51, 0
2, 80079, Note_on_c, 0, 67, 0
2, 80104, Note_on_c, 0, 70, 0
2, 80105, Note_on_c, 0, 67, 45
2, 80150, Note_on_c, 0, 43, 49
2, 80150, Note_on_c, 0, 55, 45
2, 80150, Note_on_c, 0, 75, 45
2, 80159, Control_c, 0, 64, 0
2, 80180, Note_on_c, 0, 67, 0
2, 80191, Note_on_c, 0, 43, 0
2, 80192, Note_on_c, 0, 70, 36
2, 80193, Control_c, 0, 64, 127
2, 80200, Note_on_c, 0, 75, 0
2, 80203, Note_on_c, 0, 55, 0
2, 80229, Note_on_c, 0, 70, 0
2, 80229, Note_on_c, 0, 67, 53
2, 80280, Note_on_c, 0, 68, 48
2, 80280, Note_on_c, 0, 58, 42
2, 80280, Note_on_c, 0, 46, 35
2, 80284, Note_on_c, 0, 67, 0
2, 80292, Control_c, 0, 64, 0
2, 80308, Note_on_c, 0, 58, 0
2, 80317, Note_on_c, 0, 46, 0
2, 80322, Note_on_c, 0, 65, 47
2, 80322, Control_c, 0, 64, 127
2, 80326, Note_on_c, 0, 68, 0
2, 80358, Note_on_c, 0, 65, 0
2, 80363, Note_on_c, 0, 62, 46
2, 80404, Control_c, 0, 64, 0
2, 80409, Note_on_c, 0, 62, 0
2, 80409, Note_on_c, 0, 63, 45
2, 80413, Note_on_c, 0, 39, 41
2, 80414, Note_on_c, 0, 51, 35
2, 80467, Control_c, 0, 64, 127
2, 80492, Note_on_c, 0, 39, 0
2, 80496, Note_on_c, 0, 63, 0
2, 80504, Note_on_c, 0, 51, 0
2, 80680, Control_c, 0, 64, 0
2, 80709, Note_on_c, 0, 49, 45
2, 80709, Note_on_c, 0, 55, 33
2, 80709, Note_on_c, 0, 58, 40
2, 80709, Note_on_c, 0, 63, 42
2, 80729, Note_on_c, 0, 63, 0
2, 80729, Note_on_c, 0, 49, 0
2, 80729, Note_on_c, 0, 55, 0
2, 80729, Note_on_c, 0, 58, 0
2, 80872, Note_on_c, 0, 63, 37
2, 80872, Note_on_c, 0, 58, 23
2, 80872, Note_on_c, 0, 55, 18
2, 80872, Note_on_c, 0, 49, 18
2, 80926, Control_c, 0, 64, 127
2, 80989, Note_on_c, 0, 58, 0
2, 81018, Note_on_c, 0, 63, 0
2, 81134, Note_on_c, 0, 49, 0
2, 81147, Note_on_c, 0, 55, 0
2, 81350, Control_c, 0, 64, 0
2, 81534, Note_on_c, 0, 60, 31
2, 81534, Note_on_c, 0, 75, 32
2, 81605, Note_on_c, 0, 63, 32
2, 81643, Control_c, 0, 64, 127
2, 81672, Note_on_c, 0, 68, 29
2, 81676, Note_on_c, 0, 63, 0
2, 81688, Note_on_c, 0, 75, 0
2, 81705, Note_on_c, 0, 77, 42
2, 81734, Note_on_c, 0, 75, 52
2, 81734, Note_on_c, 0, 63, 45
2, 81743, Note_on_c, 0, 68, 0
2, 81751, Note_on_c, 0, 77, 0
2, 81772, Note_on_c, 0, 73, 49
2, 81784, Note_on_c, 0, 75, 0
2, 81805, Note_on_c, 0, 63, 0
2, 81805, Note_on_c, 0, 72, 62
2, 81805, Note_on_c, 0, 68, 31
2, 81809, Note_on_c, 0, 73, 0
2, 81863, Note_on_c, 0, 63, 39
2, 81884, Note_on_c, 0, 60, 0
2, 81926, Note_on_c, 0, 63, 0
2, 81934, Note_on_c, 0, 68, 0
2, 81934, Control_c, 0, 64, 0
2, 81938, Note_on_c, 0, 60, 35
2, 81980, Control_c, 0, 64, 127
2, 82005, Note_on_c, 0, 63, 25
2, 82018, Note_on_c, 0, 72, 0
2, 82064, Note_on_c, 0, 63, 0
2, 82068, Note_on_c, 0, 79, 45
2, 82068, Note_on_c, 0, 68, 31
2, 82134, Note_on_c, 0, 63, 35
2, 82134, Note_on_c, 0, 80, 39
2, 82138, Note_on_c, 0, 60, 0
2, 82142, Note_on_c, 0, 79, 0
2, 82176, Note_on_c, 0, 68, 0
2, 82188, Note_on_c, 0, 63, 0
2, 82197, Note_on_c, 0, 60, 27
2, 82197, Note_on_c, 0, 79, 41
2, 82205, Note_on_c, 0, 80, 0
2, 82264, Note_on_c, 0, 60, 0
2, 82270, Note_on_c, 0, 80, 40
2, 82270, Note_on_c, 0, 63, 37
2, 82272, Note_on_c, 0, 79, 0
2, 82319, Note_on_c, 0, 63, 0
2, 82334, Note_on_c, 0, 58, 36
2, 82334, Note_on_c, 0, 79, 40
2, 82349, Note_on_c, 0, 80, 0
2, 82359, Control_c, 0, 64, 0
2, 82414, Note_on_c, 0, 61, 31
2, 82476, Control_c, 0, 64, 127
2, 82484, Note_on_c, 0, 61, 0
2, 82484, Note_on_c, 0, 63, 33
2, 82518, Note_on_c, 0, 80, 44
2, 82538, Note_on_c, 0, 79, 0
2, 82551, Note_on_c, 0, 80, 0
2, 82551, Note_on_c, 0, 82, 45
2, 82551, Note_on_c, 0, 61, 39
2, 82555, Note_on_c, 0, 63, 0
2, 82580, Note_on_c, 0, 80, 39
2, 82597, Note_on_c, 0, 82, 0
2, 82618, Note_on_c, 0, 61, 0
2, 82618, Note_on_c, 0, 79, 56
2, 82618, Note_on_c, 0, 63, 36
2, 82622, Note_on_c, 0, 80, 0
2, 82680, Note_on_c, 0, 58, 0
2, 82680, Note_on_c, 0, 61, 38
2, 82692, Note_on_c, 0, 61, 0
2, 82734, Note_on_c, 0, 55, 48
2, 82746, Note_on_c, 0, 63, 0
2, 82759, Control_c, 0, 64, 0
2, 82797, Note_on_c, 0, 58, 45
2, 82801, Control_c, 0, 64, 127
2, 82864, Note_on_c, 0, 58, 0
2, 82864, Note_on_c, 0, 84, 52
2, 82864, Note_on_c, 0, 63, 31
2, 82872, Note_on_c, 0, 79, 0
2, 82922, Note_on_c, 0, 55, 0
2, 82922, Note_on_c, 0, 58, 42
2, 82926, Note_on_c, 0, 85, 52
2, 82934, Note_on_c, 0, 84, 0
2, 82939, Note_on_c, 0, 63, 0
2, 82968, Note_on_c, 0, 58, 0
2, 82984, Note_on_c, 0, 55, 44
2, 82984, Note_on_c, 0, 84, 59
2, 82989, Note_on_c, 0, 85, 0
2, 83047, Note_on_c, 0, 58, 40
2, 83047, Note_on_c, 0, 85, 46
2, 83055, Note_on_c, 0, 84, 0
2, 83055, Note_on_c, 0, 55, 0
2, 83072, Note_on_c, 0, 58, 0
2, 83105, Note_on_c, 0, 85, 0
2, 83106, Note_on_c, 0, 56, 40
2, 83106, Note_on_c, 0, 84, 63
2, 83134, Control_c, 0, 64, 0
2, 83168, Note_on_c, 0, 60, 24
2, 83230, Note_on_c, 0, 60, 0
2, 83235, Note_on_c, 0, 63, 31
2, 83238, Control_c, 0, 64, 127
2, 83264, Note_on_c, 0, 85, 41
2, 83285, Note_on_c, 0, 85, 0
2, 83285, Note_on_c, 0, 84, 0
2, 83288, Note_on_c, 0, 60, 37
2, 83288, Note_on_c, 0, 87, 42
2, 83293, Note_on_c, 0, 63, 0
2, 83318, Note_on_c, 0, 85, 46
2, 83338, Note_on_c, 0, 87, 0
2, 83338, Note_on_c, 0, 60, 0
2, 83343, Note_on_c, 0, 84, 55
2, 83343, Note_on_c, 0, 64, 45
2, 83352, Note_on_c, 0, 85, 0
2, 83364, Control_c, 0, 64, 0
2, 83393, Control_c, 0, 64, 127
2, 83405, Note_on_c, 0, 64, 0
2, 83405, Note_on_c, 0, 60, 28
2, 83460, Note_on_c, 0, 56, 0
2, 83464, Note_on_c, 0, 60, 0
2, 83468, Note_on_c, 0, 65, 34
2, 83530, Note_on_c, 0, 65, 0
2, 83531, Note_on_c, 0, 60, 33
2, 83584, Note_on_c, 0, 56, 39
2, 83589, Note_on_c, 0, 60, 0
2, 83589, Note_on_c, 0, 76, 49
2, 83597, Note_on_c, 0, 84, 0
2, 83618, Control_c, 0, 64, 0
2, 83648, Note_on_c, 0, 77, 47
2, 83648, Note_on_c, 0, 60, 43
2, 83651, Note_on_c, 0, 56, 0
2, 83656, Note_on_c, 0, 76, 0
2, 83656, Control_c, 0, 64, 127
2, 83706, Note_on_c, 0, 77, 0
2, 83706, Note_on_c, 0, 60, 0
2, 83706, Note_on_c, 0, 76, 47
2, 83706, Note_on_c, 0, 53, 38
2, 83764, Note_on_c, 0, 77, 45
2, 83764, Note_on_c, 0, 56, 42
2, 83768, Note_on_c, 0, 76, 0
2, 83772, Note_on_c, 0, 53, 0
2, 83785, Note_on_c, 0, 56, 0
2, 83788, Note_on_c, 0, 77, 0
2, 83822, Note_on_c, 0, 55, 40
2, 83826, Note_on_c, 0, 77, 43
2, 83843, Control_c, 0, 64, 0
2, 83884, Note_on_c, 0, 77, 0
2, 83885, Note_on_c, 0, 58, 35
2, 83885, Note_on_c, 0, 76, 45
2, 83943, Note_on_c, 0, 76, 0
2, 83943, Note_on_c, 0, 79, 42
2, 83943, Note_on_c, 0, 60, 42
2, 83947, Note_on_c, 0, 58, 0
2, 83952, Control_c, 0, 64, 127
2, 83989, Note_on_c, 0, 55, 0
2, 84002, Note_on_c, 0, 58, 36
2, 84006, Note_on_c, 0, 60, 0
2, 84006, Note_on_c, 0, 76, 40
2, 84010, Note_on_c, 0, 79, 0
2, 84018, Note_on_c, 0, 58, 0
2, 84060, Note_on_c, 0, 72, 40
2, 84060, Note_on_c, 0, 52, 38
2, 84064, Note_on_c, 0, 76, 0
2, 84077, Control_c, 0, 64, 0
2, 84114, Control_c, 0, 64, 127
2, 84118, Note_on_c, 0, 70, 48
2, 84118, Note_on_c, 0, 55, 36
2, 84122, Note_on_c, 0, 52, 0
2, 84126, Note_on_c, 0, 72, 0
2, 84176, Note_on_c, 0, 55, 0
2, 84185, Note_on_c, 0, 68, 52
2, 84185, Note_on_c, 0, 53, 38
2, 84201, Note_on_c, 0, 70, 0
2, 84222, Control_c, 0, 64, 0
2, 84251, Note_on_c, 0, 56, 35
2, 84289, Control_c, 0, 64, 127
2, 84314, Note_on_c, 0, 62, 36
2, 84318, Note_on_c, 0, 56, 0
2, 84380, Note_on_c, 0, 56, 32
2, 84389, Note_on_c, 0, 53, 0
2, 84410, Note_on_c, 0, 56, 0
2, 84448, Note_on_c, 0, 68, 0
2, 84448, Note_on_c, 0, 62, 0
2, 84451, Note_on_c, 0, 55, 36
2, 84451, Note_on_c, 0, 75, 46
2, 84473, Control_c, 0, 64, 0
2, 84522, Control_c, 0, 64, 127
2, 84526, Note_on_c, 0, 58, 35
2, 84534, Note_on_c, 0, 55, 0
2, 84543, Note_on_c, 0, 75, 0
2, 84590, Note_on_c, 0, 58, 0
2, 84606, Note_on_c, 0, 53, 37
2, 84606, Note_on_c, 0, 75, 41
2, 84626, Control_c, 0, 64, 0
2, 84681, Note_on_c, 0, 56, 33
2, 84681, Note_on_c, 0, 74, 52
2, 84689, Note_on_c, 0, 75, 0
2, 84735, Note_on_c, 0, 58, 36
2, 84735, Note_on_c, 0, 77, 53
2, 84735, Control_c, 0, 64, 127
2, 84743, Note_on_c, 0, 74, 0
2, 84751, Note_on_c, 0, 56, 0
2, 84794, Note_on_c, 0, 56, 38
2, 84794, Note_on_c, 0, 74, 48
2, 84797, Note_on_c, 0, 77, 0
2, 84797, Note_on_c, 0, 58, 0
2, 84798, Note_on_c, 0, 53, 0
2, 84810, Note_on_c, 0, 56, 0
2, 84852, Note_on_c, 0, 74, 0
2, 84852, Note_on_c, 0, 70, 45
2, 84852, Note_on_c, 0, 50, 36
2, 84876, Control_c, 0, 64, 0
2, 84910, Note_on_c, 0, 68, 54
2, 84910, Note_on_c, 0, 53, 46
2, 84914, Note_on_c, 0, 50, 0
2, 84918, Note_on_c, 0, 70, 0
2, 84918, Control_c, 0, 64, 127
2, 84926, Note_on_c, 0, 53, 0
2, 84956, Note_on_c, 0, 68, 0
2, 84972, Note_on_c, 0, 51, 49
2, 84973, Note_on_c, 0, 67, 66
2, 85002, Control_c, 0, 64, 0
2, 85035, Note_on_c, 0, 55, 47
2, 85089, Note_on_c, 0, 58, 60
2, 85090, Control_c, 0, 64, 127
2, 85101, Note_on_c, 0, 55, 0
2, 85144, Note_on_c, 0, 58, 0
2, 85148, Note_on_c, 0, 63, 60
2, 85210, Note_on_c, 0, 58, 53
2, 85210, Note_on_c, 0, 79, 55
2, 85218, Note_on_c, 0, 67, 0
2, 85222, Note_on_c, 0, 63, 0
2, 85264, Note_on_c, 0, 58, 0
2, 85277, Note_on_c, 0, 55, 51
2, 85281, Note_on_c, 0, 51, 0
2, 85289, Note_on_c, 0, 55, 0
2, 85348, Note_on_c, 0, 79, 0
2, 85348, Note_on_c, 0, 56, 49
2, 85348, Note_on_c, 0, 76, 53
2, 85360, Control_c, 0, 64, 0
2, 85418, Note_on_c, 0, 60, 48
2, 85418, Note_on_c, 0, 77, 52
2, 85426, Note_on_c, 0, 76, 0
2, 85448, Control_c, 0, 64, 127
2, 85477, Note_on_c, 0, 65, 46
2, 85481, Note_on_c, 0, 60, 0
2, 85539, Note_on_c, 0, 60, 46
2, 85543, Note_on_c, 0, 56, 0
2, 85552, Note_on_c, 0, 65, 0
2, 85585, Note_on_c, 0, 60, 0
2, 85602, Note_on_c, 0, 79, 46
2, 85602, Note_on_c, 0, 56, 37
2, 85623, Note_on_c, 0, 77, 0
2, 85640, Control_c, 0, 64, 0
2, 85673, Note_on_c, 0, 60, 38
2, 85673, Note_on_c, 0, 80, 45
2, 85677, Note_on_c, 0, 79, 0
2, 85694, Control_c, 0, 64, 127
2, 85736, Note_on_c, 0, 60, 0
2, 85739, Note_on_c, 0, 65, 27
2, 85802, Note_on_c, 0, 60, 37
2, 85810, Note_on_c, 0, 56, 0
2, 85840, Note_on_c, 0, 65, 0
2, 85868, Note_on_c, 0, 60, 0
2, 85890, Note_on_c, 0, 83, 52
2, 85893, Note_on_c, 0, 80, 0
2, 85894, Note_on_c, 0, 56, 39
2, 85918, Control_c, 0, 64, 0
2, 85981, Note_on_c, 0, 60, 38
2, 85982, Note_on_c, 0, 84, 54
2, 85994, Note_on_c, 0, 83, 0
2, 86031, Control_c, 0, 64, 127
2, 86077, Note_on_c, 0, 65, 33
2, 86114, Note_on_c, 0, 84, 0
2, 86173, Note_on_c, 0, 60, 0
2, 86181, Note_on_c, 0, 56, 0
2, 86181, Note_on_c, 0, 82, 40
2, 86194, Note_on_c, 0, 65, 0
2, 86210, Note_on_c, 0, 80, 31
2, 86218, Note_on_c, 0, 82, 0
2, 86239, Note_on_c, 0, 79, 35
2, 86252, Note_on_c, 0, 80, 0
2, 86277, Note_on_c, 0, 79, 0
2, 86277, Note_on_c, 0, 77, 42
2, 86319, Note_on_c, 0, 58, 38
2, 86319, Note_on_c, 0, 67, 28
2, 86319, Note_on_c, 0, 75, 47
2, 86327, Note_on_c, 0, 77, 0
2, 86331, Control_c, 0, 64, 0
2, 86377, Control_c, 0, 64, 127
2, 86463, Note_on_c, 0, 67, 0
2, 86585, Control_c, 0, 64, 0
2, 86602, Note_on_c, 0, 74, 46
2, 86602, Note_on_c, 0, 65, 29
2, 86606, Note_on_c, 0, 75, 0
2, 86623, Control_c, 0, 64, 127
2, 86636, Note_on_c, 0, 65, 0
2, 86652, Note_on_c, 0, 58, 0
2, 86731, Note_on_c, 0, 44, 65
2, 86731, Note_on_c, 0, 56, 63
2, 86739, Control_c, 0, 64, 0
2, 86773, Control_c, 0, 64, 127
2, 86802, Note_on_c, 0, 56, 0
2, 86806, Note_on_c, 0, 44, 0
2, 86860, Note_on_c, 0, 43, 63
2, 86860, Note_on_c, 0, 55, 55
2, 86865, Control_c, 0, 64, 0
2, 86894, Control_c, 0, 64, 127
2, 86944, Note_on_c, 0, 55, 0
2, 86944, Note_on_c, 0, 43, 0
2, 86956, Control_c, 0, 64, 0
2, 86982, Control_c, 0, 64, 127
2, 86985, Note_on_c, 0, 53, 53
2, 86985, Note_on_c, 0, 41, 57
2, 87019, Note_on_c, 0, 53, 0
2, 87023, Note_on_c, 0, 41, 0
2, 87119, Control_c, 0, 64, 0
2, 87123, Note_on_c, 0, 74, 0
2, 87123, Note_on_c, 0, 39, 66
2, 87123, Note_on_c, 0, 51, 57
2, 87144, Control_c, 0, 64, 127
2, 87156, Note_on_c, 0, 39, 0
2, 87169, Note_on_c, 0, 51, 0
2, 87256, Note_on_c, 0, 67, 59
2, 87256, Note_on_c, 0, 82, 59
2, 87273, Control_c, 0, 64, 0
2, 87294, Note_on_c, 0, 63, 45
2, 87294, Note_on_c, 0, 79, 52
2, 87306, Note_on_c, 0, 67, 0
2, 87331, Note_on_c, 0, 80, 54
2, 87331, Note_on_c, 0, 65, 47
2, 87339, Note_on_c, 0, 82, 0
2, 87340, Note_on_c, 0, 63, 0
2, 87369, Note_on_c, 0, 79, 0
2, 87373, Note_on_c, 0, 67, 54
2, 87373, Note_on_c, 0, 82, 53
2, 87377, Note_on_c, 0, 80, 0
2, 87378, Note_on_c, 0, 65, 0
2, 87406, Note_on_c, 0, 63, 48
2, 87410, Note_on_c, 0, 79, 50
2, 87415, Note_on_c, 0, 67, 0
2, 87440, Note_on_c, 0, 82, 0
2, 87448, Note_on_c, 0, 65, 37
2, 87448, Note_on_c, 0, 80, 54
2, 87456, Note_on_c, 0, 63, 0
2, 87490, Note_on_c, 0, 79, 0
2, 87494, Note_on_c, 0, 65, 0
2, 87494, Note_on_c, 0, 82, 52
2, 87494, Note_on_c, 0, 67, 54
2, 87502, Note_on_c, 0, 80, 0
2, 87514, Note_on_c, 0, 67, 0
2, 87514, Note_on_c, 0, 82, 0
2, 87636, Note_on_c, 0, 68, 32
2, 87636, Note_on_c, 0, 84, 41
2, 87798, Note_on_c, 0, 65, 38
2, 87798, Note_on_c, 0, 80, 44
2, 87802, Control_c, 0, 64, 127
2, 87811, Note_on_c, 0, 84, 0
2, 87815, Note_on_c, 0, 68, 0
2, 87819, Note_on_c, 0, 65, 0
2, 87965, Note_on_c, 0, 34, 65
2, 87965, Note_on_c, 0, 46, 57
2, 88061, Note_on_c, 0, 80, 0
2, 88093, Note_on_c, 0, 34, 0
2, 88103, Note_on_c, 0, 65, 57
2, 88103, Note_on_c, 0, 80, 49
2, 88106, Note_on_c, 0, 46, 0
2, 88136, Control_c, 0, 64, 0
2, 88140, Note_on_c, 0, 62, 49
2, 88140, Note_on_c, 0, 77, 45
2, 88148, Note_on_c, 0, 65, 0
2, 88157, Note_on_c, 0, 80, 0
2, 88178, Note_on_c, 0, 63, 54
2, 88182, Note_on_c, 0, 79, 54
2, 88194, Note_on_c, 0, 62, 0
2, 88198, Note_on_c, 0, 77, 0
2, 88223, Note_on_c, 0, 80, 49
2, 88223, Note_on_c, 0, 65, 53
2, 88228, Note_on_c, 0, 63, 0
2, 88232, Note_on_c, 0, 79, 0
2, 88256, Note_on_c, 0, 77, 53
2, 88256, Note_on_c, 0, 62, 52
2, 88265, Note_on_c, 0, 65, 0
2, 88269, Note_on_c, 0, 80, 0
2, 88294, Note_on_c, 0, 63, 55
2, 88298, Note_on_c, 0, 79, 56
2, 88302, Note_on_c, 0, 62, 0
2, 88332, Note_on_c, 0, 77, 0
2, 88344, Note_on_c, 0, 65, 54
2, 88344, Note_on_c, 0, 80, 49
2, 88352, Note_on_c, 0, 63, 0
2, 88352, Note_on_c, 0, 79, 0
2, 88365, Note_on_c, 0, 65, 0
2, 88365, Note_on_c, 0, 80, 0
2, 88482, Note_on_c, 0, 82, 53
2, 88482, Note_on_c, 0, 67, 45
2, 88594, Control_c, 0, 64, 127
2, 88632, Note_on_c, 0, 63, 28
2, 88632, Note_on_c, 0, 79, 31
2, 88636, Note_on_c, 0, 67, 0
2, 88636, Note_on_c, 0, 82, 0
2, 88711, Note_on_c, 0, 63, 0
2, 88711, Note_on_c, 0, 79, 0
2, 88798, Note_on_c, 0, 55, 32
2, 88798, Note_on_c, 0, 75, 37
2, 88811, Control_c, 0, 64, 0
2, 88848, Note_on_c, 0, 58, 36
2, 88852, Control_c, 0, 64, 127
2, 88902, Note_on_c, 0, 55, 0
2, 88903, Note_on_c, 0, 63, 37
2, 88915, Note_on_c, 0, 58, 0
2, 88952, Note_on_c, 0, 63, 0
2, 88952, Note_on_c, 0, 87, 55
2, 88953, Note_on_c, 0, 55, 32
2, 89007, Note_on_c, 0, 58, 38
2, 89040, Note_on_c, 0, 55, 0
2, 89040, Note_on_c, 0, 75, 0
2, 89052, Note_on_c, 0, 87, 0
2, 89057, Note_on_c, 0, 63, 32
2, 89074, Note_on_c, 0, 58, 0
2, 89102, Note_on_c, 0, 63, 0
2, 89107, Note_on_c, 0, 55, 43
2, 89107, Note_on_c, 0, 87, 68
2, 89161, Note_on_c, 0, 58, 39
2, 89190, Note_on_c, 0, 55, 0
2, 89215, Note_on_c, 0, 58, 0
2, 89220, Note_on_c, 0, 63, 31
2, 89282, Note_on_c, 0, 63, 0
2, 89282, Note_on_c, 0, 87, 0
2, 89282, Note_on_c, 0, 56, 37
2, 89282, Note_on_c, 0, 86, 66
2, 89328, Note_on_c, 0, 60, 45
2, 89345, Control_c, 0, 64, 0
2, 89357, Note_on_c, 0, 84, 70
2, 89374, Note_on_c, 0, 86, 0
2, 89378, Control_c, 0, 64, 127
2, 89390, Note_on_c, 0, 63, 40
2, 89394, Note_on_c, 0, 56, 0
2, 89407, Note_on_c, 0, 60, 0
2, 89440, Note_on_c, 0, 63, 0
2, 89444, Note_on_c, 0, 56, 39
2, 89444, Note_on_c, 0, 82, 70
2, 89452, Note_on_c, 0, 84, 0
2, 89490, Note_on_c, 0, 60, 44
2, 89515, Note_on_c, 0, 56, 0
2, 89523, Note_on_c, 0, 80, 72
2, 89536, Note_on_c, 0, 82, 0
2, 89561, Note_on_c, 0, 63, 34
2, 89574, Note_on_c, 0, 60, 0
2, 89611, Note_on_c, 0, 63, 0
2, 89612, Note_on_c, 0, 56, 41
2, 89612, Note_on_c, 0, 79, 54
2, 89615, Note_on_c, 0, 80, 0
2, 89661, Note_on_c, 0, 60, 45
2, 89687, Note_on_c, 0, 56, 0
2, 89703, Note_on_c, 0, 60, 0
2, 89707, Note_on_c, 0, 65, 45
2, 89711, Note_on_c, 0, 77, 56
2, 89719, Note_on_c, 0, 79, 0
2, 89732, Note_on_c, 0, 77, 0
2, 89753, Note_on_c, 0, 65, 0
2, 89765, Note_on_c, 0, 77, 63
2, 89765, Note_on_c, 0, 58, 46
2, 89807, Control_c, 0, 64, 0
2, 89815, Note_on_c, 0, 63, 38
2, 89857, Control_c, 0, 64, 127
2, 89861, Note_on_c, 0, 58, 0
2, 89861, Note_on_c, 0, 67, 31
2, 89866, Note_on_c, 0, 75, 51
2, 89868, Note_on_c, 0, 77, 0
2, 89878, Note_on_c, 0, 63, 0
2, 89890, Note_on_c, 0, 75, 0
2, 89890, Note_on_c, 0, 77, 43
2, 89912, Note_on_c, 0, 77, 0
2, 89912, Note_on_c, 0, 75, 46
2, 89912, Note_on_c, 0, 58, 33
2, 89920, Note_on_c, 0, 67, 0
2, 89928, Note_on_c, 0, 75, 0
2, 89928, Note_on_c, 0, 77, 46
2, 89944, Note_on_c, 0, 77, 0
2, 89944, Note_on_c, 0, 63, 40
2, 89949, Note_on_c, 0, 75, 39
2, 89957, Note_on_c, 0, 75, 0
2, 89965, Note_on_c, 0, 77, 49
2, 89982, Note_on_c, 0, 75, 44
2, 89986, Note_on_c, 0, 77, 0
2, 89998, Note_on_c, 0, 58, 0
2, 89999, Note_on_c, 0, 75, 0
2, 90015, Note_on_c, 0, 74, 39
2, 90020, Note_on_c, 0, 67, 29
2, 90036, Note_on_c, 0, 75, 45
2, 90053, Note_on_c, 0, 63, 0
2, 90065, Note_on_c, 0, 67, 0
2, 90070, Note_on_c, 0, 58, 46
2, 90070, Note_on_c, 0, 77, 55
2, 90074, Note_on_c, 0, 75, 0
2, 90082, Note_on_c, 0, 74, 0
2, 90120, Note_on_c, 0, 65, 45
2, 90124, Control_c, 0, 64, 0
2, 90174, Note_on_c, 0, 58, 0
2, 90174, Note_on_c, 0, 77, 0
2, 90174, Note_on_c, 0, 68, 53
2, 90174, Note_on_c, 0, 74, 54
2, 90175, Control_c, 0, 64, 127
2, 90182, Note_on_c, 0, 65, 0
2, 90198, Note_on_c, 0, 68, 0
2, 90203, Note_on_c, 0, 74, 0
2, 90224, Note_on_c, 0, 60, 44
2, 90224, Note_on_c, 0, 75, 70
2, 90253, Control_c, 0, 64, 0
2, 90274, Note_on_c, 0, 63, 40
2, 90316, Control_c, 0, 64, 127
2, 90328, Note_on_c, 0, 60, 0
2, 90328, Note_on_c, 0, 67, 48
2, 90378, Note_on_c, 0, 63, 0
2, 90382, Note_on_c, 0, 58, 52
2, 90395, Note_on_c, 0, 67, 0
2, 90437, Note_on_c, 0, 63, 37
2, 90449, Control_c, 0, 64, 0
2, 90486, Note_on_c, 0, 58, 0
2, 90487, Note_on_c, 0, 67, 49
2, 90487, Control_c, 0, 64, 127
2, 90507, Note_on_c, 0, 63, 0
2, 90545, Note_on_c, 0, 56, 49
2, 90562, Note_on_c, 0, 67, 0
2, 90603, Note_on_c, 0, 60, 41
2, 90653, Note_on_c, 0, 56, 0
2, 90662, Note_on_c, 0, 60, 0
2, 90662, Note_on_c, 0, 65, 28
2, 90682, Note_on_c, 0, 65, 0
2, 90682, Note_on_c, 0, 75, 0
2, 90716, Note_on_c, 0, 55, 39
2, 90716, Note_on_c, 0, 70, 42
2, 90753, Control_c, 0, 64, 0
2, 90774, Note_on_c, 0, 58, 40
2, 90799, Control_c, 0, 64, 127
2, 90840, Note_on_c, 0, 63, 53
2, 90841, Note_on_c, 0, 55, 0
2, 90844, Note_on_c, 0, 58, 0
2, 90864, Note_on_c, 0, 63, 0
2, 90874, Note_on_c, 0, 70, 0
2, 90883, Note_on_c, 0, 55, 32
2, 90886, Note_on_c, 0, 79, 45
2, 90941, Note_on_c, 0, 74, 47
2, 90944, Note_on_c, 0, 58, 36
2, 90986, Note_on_c, 0, 79, 0
2, 90991, Note_on_c, 0, 55, 0
2, 90991, Note_on_c, 0, 63, 33
2, 90995, Note_on_c, 0, 75, 38
2, 90999, Note_on_c, 0, 58, 0
2, 91007, Note_on_c, 0, 74, 0
2, 91036, Note_on_c, 0, 63, 0
2, 91044, Note_on_c, 0, 79, 46
2, 91049, Note_on_c, 0, 55, 34
2, 91053, Note_on_c, 0, 75, 0
2, 91099, Note_on_c, 0, 74, 44
2, 91107, Note_on_c, 0, 58, 29
2, 91132, Note_on_c, 0, 79, 0
2, 91149, Note_on_c, 0, 55, 0
2, 91149, Note_on_c, 0, 74, 0
2, 91157, Note_on_c, 0, 75, 34
2, 91162, Note_on_c, 0, 63, 31
2, 91166, Note_on_c, 0, 58, 0
2, 91216, Note_on_c, 0, 63, 0
2, 91220, Note_on_c, 0, 56, 39
2, 91224, Note_on_c, 0, 74, 50
2, 91233, Note_on_c, 0, 75, 0
2, 91270, Note_on_c, 0, 60, 45
2, 91278, Control_c, 0, 64, 0
2, 91308, Note_on_c, 0, 72, 53
2, 91312, Note_on_c, 0, 74, 0
2, 91316, Control_c, 0, 64, 127
2, 91324, Note_on_c, 0, 56, 0
2, 91341, Note_on_c, 0, 63, 35
2, 91358, Note_on_c, 0, 60, 0
2, 91386, Note_on_c, 0, 56, 42
2, 91395, Note_on_c, 0, 63, 0
2, 91395, Note_on_c, 0, 70, 68
2, 91408, Note_on_c, 0, 72, 0
2, 91453, Note_on_c, 0, 60, 44
2, 91466, Note_on_c, 0, 63, 19
2, 91470, Note_on_c, 0, 56, 0
2, 91486, Note_on_c, 0, 60, 0
2, 91487, Note_on_c, 0, 68, 70
2, 91491, Note_on_c, 0, 63, 0
2, 91495, Note_on_c, 0, 70, 0
2, 91503, Note_on_c, 0, 68, 0
2, 91537, Note_on_c, 0, 68, 57
2, 91558, Note_on_c, 0, 44, 50
2, 91558, Note_on_c, 0, 67, 68
2, 91561, Note_on_c, 0, 68, 0
2, 91600, Control_c, 0, 64, 0
2, 91612, Note_on_c, 0, 48, 45
2, 91645, Control_c, 0, 64, 127
2, 91662, Note_on_c, 0, 48, 0
2, 91662, Note_on_c, 0, 44, 0
2, 91662, Note_on_c, 0, 53, 56
2, 91666, Note_on_c, 0, 65, 46
2, 91670, Note_on_c, 0, 67, 0
2, 91687, Note_on_c, 0, 65, 0
2, 91695, Note_on_c, 0, 53, 0
2, 91720, Note_on_c, 0, 46, 55
2, 91724, Note_on_c, 0, 65, 66
2, 91745, Control_c, 0, 64, 0
2, 91778, Note_on_c, 0, 51, 38
2, 91804, Control_c, 0, 64, 127
2, 91824, Note_on_c, 0, 46, 0
2, 91828, Note_on_c, 0, 55, 49
2, 91840, Note_on_c, 0, 65, 0
2, 91845, Note_on_c, 0, 51, 0
2, 91845, Note_on_c, 0, 63, 51
2, 91870, Note_on_c, 0, 63, 0
2, 91870, Note_on_c, 0, 65, 51
2, 91878, Note_on_c, 0, 46, 47
2, 91882, Note_on_c, 0, 55, 0
2, 91891, Note_on_c, 0, 65, 0
2, 91891, Note_on_c, 0, 63, 46
2, 91905, Note_on_c, 0, 65, 53
2, 91907, Note_on_c, 0, 51, 45
2, 91912, Note_on_c, 0, 63, 0
2, 91916, Note_on_c, 0, 63, 43
2, 91920, Note_on_c, 0, 65, 0
2, 91936, Note_on_c, 0, 65, 45
2, 91949, Note_on_c, 0, 63, 0
2, 91950, Note_on_c, 0, 63, 45
2, 91962, Note_on_c, 0, 46, 0
2, 91965, Note_on_c, 0, 63, 0
2, 91965, Note_on_c, 0, 55, 45
2, 91970, Note_on_c, 0, 65, 0
2, 91970, Note_on_c, 0, 62, 45
2, 91980, Note_on_c, 0, 55, 0
2, 91991, Note_on_c, 0, 63, 45
2, 92012, Note_on_c, 0, 51, 0
2, 92037, Note_on_c, 0, 46, 45
2, 92037, Note_on_c, 0, 65, 53
2, 92041, Note_on_c, 0, 63, 0
2, 92074, Control_c, 0, 64, 0
2, 92078, Note_on_c, 0, 62, 0
2, 92087, Note_on_c, 0, 53, 43
2, 92141, Note_on_c, 0, 62, 53
2, 92141, Note_on_c, 0, 56, 53
2, 92145, Note_on_c, 0, 65, 0
2, 92146, Control_c, 0, 64, 127
2, 92150, Note_on_c, 0, 53, 0
2, 92154, Note_on_c, 0, 46, 0
2, 92157, Note_on_c, 0, 62, 0
2, 92158, Note_on_c, 0, 56, 0
2, 92224, Note_on_c, 0, 73, 66
2, 92224, Note_on_c, 0, 61, 68
2, 92224, Note_on_c, 0, 43, 65
2, 92249, Control_c, 0, 64, 0
2, 92278, Note_on_c, 0, 46, 51
2, 92291, Control_c, 0, 64, 127
2, 92324, Note_on_c, 0, 43, 0
2, 92324, Note_on_c, 0, 52, 59
2, 92337, Note_on_c, 0, 46, 0
2, 92337, Note_on_c, 0, 61, 0
2, 92341, Note_on_c, 0, 73, 0
2, 92366, Note_on_c, 0, 52, 0
2, 92378, Note_on_c, 0, 44, 56
2, 92378, Note_on_c, 0, 60, 56
2, 92378, Note_on_c, 0, 72, 60
2, 92408, Control_c, 0, 64, 0
2, 92433, Note_on_c, 0, 48, 46
2, 92462, Note_on_c, 0, 44, 0
2, 92466, Note_on_c, 0, 60, 0
2, 92466, Control_c, 0, 64, 127
2, 92470, Note_on_c, 0, 72, 0
2, 92483, Note_on_c, 0, 53, 48
2, 92533, Note_on_c, 0, 45, 55
2, 92533, Note_on_c, 0, 75, 51
2, 92534, Note_on_c, 0, 63, 52
2, 92537, Note_on_c, 0, 48, 0
2, 92541, Note_on_c, 0, 53, 0
2, 92562, Control_c, 0, 64, 0
2, 92587, Note_on_c, 0, 48, 45
2, 92612, Note_on_c, 0, 45, 0
2, 92641, Control_c, 0, 64, 127
2, 92645, Note_on_c, 0, 48, 0
2, 92645, Note_on_c, 0, 54, 40
2, 92678, Note_on_c, 0, 63, 0
2, 92683, Note_on_c, 0, 75, 0
2, 92687, Note_on_c, 0, 54, 0
2, 92712, Note_on_c, 0, 46, 45
2, 92716, Note_on_c, 0, 67, 50
2, 92741, Control_c, 0, 64, 0
2, 92770, Note_on_c, 0, 68, 45
2, 92774, Note_on_c, 0, 67, 0
2, 92779, Note_on_c, 0, 51, 35
2, 92791, Note_on_c, 0, 68, 0
2, 92791, Note_on_c, 0, 67, 44
2, 92808, Note_on_c, 0, 67, 0
2, 92808, Note_on_c, 0, 68, 51
2, 92808, Control_c, 0, 64, 127
2, 92820, Note_on_c, 0, 55, 45
2, 92824, Note_on_c, 0, 68, 0
2, 92824, Note_on_c, 0, 46, 0
2, 92824, Note_on_c, 0, 67, 52
2, 92837, Note_on_c, 0, 68, 52
2, 92841, Note_on_c, 0, 67, 0
2, 92841, Note_on_c, 0, 51, 0
2, 92849, Note_on_c, 0, 67, 40
2, 92854, Note_on_c, 0, 68, 0
2, 92866, Note_on_c, 0, 67, 0
2, 92866, Note_on_c, 0, 68, 51
2, 92870, Note_on_c, 0, 46, 39
2, 92874, Note_on_c, 0, 55, 0
2, 92887, Note_on_c, 0, 68, 0
2, 92887, Note_on_c, 0, 67, 42
2, 92904, Note_on_c, 0, 67, 0
2, 92904, Note_on_c, 0, 68, 52
2, 92908, Note_on_c, 0, 51, 37
2, 92933, Note_on_c, 0, 68, 0
2, 92933, Note_on_c, 0, 67, 53
2, 92954, Note_on_c, 0, 46, 0
2, 92962, Note_on_c, 0, 68, 25
2, 92966, Note_on_c, 0, 67, 0
2, 92966, Note_on_c, 0, 55, 32
2, 92966, Note_on_c, 0, 65, 52
2, 92983, Note_on_c, 0, 68, 0
2, 92995, Note_on_c, 0, 67, 53
2, 93008, Note_on_c, 0, 65, 0
2, 93016, Note_on_c, 0, 51, 0
2, 93028, Note_on_c, 0, 46, 41
2, 93033, Note_on_c, 0, 68, 66
2, 93037, Note_on_c, 0, 55, 0
2, 93041, Note_on_c, 0, 67, 0
2, 93066, Control_c, 0, 64, 0
2, 93083, Note_on_c, 0, 53, 46
2, 93145, Note_on_c, 0, 46, 0
2, 93145, Note_on_c, 0, 65, 55
2, 93145, Note_on_c, 0, 56, 49
2, 93150, Note_on_c, 0, 53, 0
2, 93150, Note_on_c, 0, 68, 0
2, 93150, Control_c, 0, 64, 127
2, 93157, Note_on_c, 0, 65, 0
2, 93158, Note_on_c, 0, 56, 0
2, 93221, Note_on_c, 0, 55, 66
2, 93221, Note_on_c, 0, 73, 65
2, 93221, Note_on_c, 0, 85, 62
2, 93254, Control_c, 0, 64, 0
2, 93271, Note_on_c, 0, 58, 55
2, 93296, Control_c, 0, 64, 127
2, 93320, Note_on_c, 0, 64, 53
2, 93321, Note_on_c, 0, 55, 0
2, 93333, Note_on_c, 0, 58, 0
2, 93341, Note_on_c, 0, 85, 0
2, 93342, Note_on_c, 0, 73, 0
2, 93354, Note_on_c, 0, 64, 0
2, 93371, Note_on_c, 0, 84, 46
2, 93371, Note_on_c, 0, 72, 56
2, 93371, Note_on_c, 0, 56, 55
2, 93399, Control_c, 0, 64, 0
2, 93425, Note_on_c, 0, 60, 55
2, 93445, Note_on_c, 0, 56, 0
2, 93445, Control_c, 0, 64, 127
2, 93471, Note_on_c, 0, 72, 0
2, 93477, Note_on_c, 0, 84, 0
2, 93478, Note_on_c, 0, 65, 53
2, 93521, Note_on_c, 0, 60, 0
2, 93532, Note_on_c, 0, 65, 0
2, 93533, Note_on_c, 0, 87, 60
2, 93533, Note_on_c, 0, 75, 62
2, 93533, Note_on_c, 0, 57, 53
2, 93570, Control_c, 0, 64, 0
2, 93583, Note_on_c, 0, 60, 49
2, 93600, Note_on_c, 0, 57, 0
2, 93620, Control_c, 0, 64, 127
2, 93629, Note_on_c, 0, 60, 0
2, 93642, Note_on_c, 0, 66, 38
2, 93666, Note_on_c, 0, 87, 0
2, 93670, Note_on_c, 0, 66, 0
2, 93670, Note_on_c, 0, 75, 0
2, 93704, Note_on_c, 0, 58, 45
2, 93704, Note_on_c, 0, 79, 54
2, 93737, Control_c, 0, 64, 0
2, 93758, Note_on_c, 0, 79, 0
2, 93758, Note_on_c, 0, 80, 42
2, 93766, Note_on_c, 0, 63, 39
2, 93778, Note_on_c, 0, 80, 0
2, 93779, Note_on_c, 0, 79, 45
2, 93792, Control_c, 0, 64, 127
2, 93795, Note_on_c, 0, 79, 0
2, 93796, Note_on_c, 0, 80, 49
2, 93812, Note_on_c, 0, 79, 46
2, 93816, Note_on_c, 0, 80, 0
2, 93816, Note_on_c, 0, 58, 0
2, 93820, Note_on_c, 0, 67, 41
2, 93833, Note_on_c, 0, 63, 0
2, 93833, Note_on_c, 0, 79, 0
2, 93833, Note_on_c, 0, 80, 51
2, 93846, Note_on_c, 0, 79, 48
2, 93854, Note_on_c, 0, 80, 0
2, 93866, Note_on_c, 0, 67, 0
2, 93870, Note_on_c, 0, 79, 0
2, 93870, Note_on_c, 0, 80, 51
2, 93874, Note_on_c, 0, 58, 52
2, 93896, Note_on_c, 0, 80, 0
2, 93900, Note_on_c, 0, 79, 45
2, 93920, Note_on_c, 0, 79, 0
2, 93920, Note_on_c, 0, 63, 35
2, 93920, Note_on_c, 0, 80, 45
2, 93930, Note_on_c, 0, 79, 55
2, 93941, Note_on_c, 0, 80, 0
2, 93960, Note_on_c, 0, 79, 0
2, 93962, Note_on_c, 0, 58, 0
2, 93975, Note_on_c, 0, 77, 48
2, 93979, Note_on_c, 0, 67, 38
2, 94000, Note_on_c, 0, 79, 46
2, 94012, Note_on_c, 0, 77, 0
2, 94020, Note_on_c, 0, 63, 0
2, 94025, Note_on_c, 0, 67, 0
2, 94033, Note_on_c, 0, 80, 55
2, 94033, Note_on_c, 0, 58, 45
2, 94037, Note_on_c, 0, 79, 0
2, 94083, Note_on_c, 0, 65, 40
2, 94084, Control_c, 0, 64, 0
2, 94133, Note_on_c, 0, 68, 40
2, 94133, Note_on_c, 0, 77, 52
2, 94134, Control_c, 0, 64, 127
2, 94146, Note_on_c, 0, 68, 0
2, 94147, Note_on_c, 0, 80, 0
2, 94149, Note_on_c, 0, 65, 0
2, 94150, Note_on_c, 0, 58, 0
2, 94150, Note_on_c, 0, 77, 0
2, 94188, Note_on_c, 0, 63, 56
2, 94188, Note_on_c, 0, 67, 55
2, 94191, Note_on_c, 0, 75, 70
2, 94200, Control_c, 0, 64, 0
2, 94241, Note_on_c, 0, 79, 55
2, 94262, Control_c, 0, 64, 127
2, 94271, Note_on_c, 0, 75, 0
2, 94292, Note_on_c, 0, 82, 39
2, 94329, Note_on_c, 0, 79, 0
2, 94333, Note_on_c, 0, 82, 0
2, 94337, Note_on_c, 0, 87, 42
2, 94358, Note_on_c, 0, 67, 0
2, 94375, Note_on_c, 0, 63, 0
2, 94387, Note_on_c, 0, 87, 0
2, 94387, Note_on_c, 0, 82, 45
2, 94429, Note_on_c, 0, 82, 0
2, 94437, Note_on_c, 0, 79, 46
2, 94492, Note_on_c, 0, 80, 45
2, 94492, Note_on_c, 0, 58, 45
2, 94492, Note_on_c, 0, 46, 51
2, 94492, Control_c, 0, 64, 0
2, 94496, Note_on_c, 0, 79, 0
2, 94525, Control_c, 0, 64, 127
2, 94537, Note_on_c, 0, 46, 0
2, 94542, Note_on_c, 0, 77, 56
2, 94554, Note_on_c, 0, 80, 0
2, 94559, Note_on_c, 0, 58, 0
2, 94587, Note_on_c, 0, 77, 0
2, 94588, Note_on_c, 0, 74, 55
2, 94638, Note_on_c, 0, 75, 45
2, 94638, Note_on_c, 0, 63, 45
2, 94638, Note_on_c, 0, 51, 49
2, 94641, Control_c, 0, 64, 0
2, 94654, Note_on_c, 0, 74, 0
2, 94679, Control_c, 0, 64, 127
2, 94687, Note_on_c, 0, 63, 0
2, 94688, Note_on_c, 0, 79, 48
2, 94700, Note_on_c, 0, 51, 0
2, 94713, Note_on_c, 0, 75, 0
2, 94737, Note_on_c, 0, 70, 48
2, 94771, Note_on_c, 0, 70, 0
2, 94787, Note_on_c, 0, 75, 47
2, 94787, Note_on_c, 0, 55, 39
2, 94787, Note_on_c, 0, 43, 54
2, 94792, Control_c, 0, 64, 0
2, 94820, Control_c, 0, 64, 127
2, 94829, Note_on_c, 0, 43, 0
2, 94833, Note_on_c, 0, 55, 0
2, 94842, Note_on_c, 0, 70, 39
2, 94849, Note_on_c, 0, 75, 0
2, 94850, Note_on_c, 0, 79, 0
2, 94858, Note_on_c, 0, 70, 0
2, 94891, Note_on_c, 0, 67, 25
2, 94917, Note_on_c, 0, 67, 0
2, 94938, Note_on_c, 0, 58, 44
2, 94938, Note_on_c, 0, 46, 51
2, 94938, Note_on_c, 0, 68, 50
2, 94941, Control_c, 0, 64, 0
2, 94971, Control_c, 0, 64, 127
2, 94975, Note_on_c, 0, 58, 0
2, 94992, Note_on_c, 0, 68, 0
2, 94992, Note_on_c, 0, 46, 0
2, 94992, Note_on_c, 0, 65, 46
2, 95033, Note_on_c, 0, 65, 0
2, 95038, Note_on_c, 0, 62, 44
2, 95062, Note_on_c, 0, 62, 0
2, 95088, Control_c, 0, 64, 0
2, 95096, Note_on_c, 0, 39, 47
2, 95096, Note_on_c, 0, 51, 45
2, 95096, Note_on_c, 0, 63, 55
2, 95150, Control_c, 0, 64, 127
2, 95171, Note_on_c, 0, 39, 0
2, 95179, Note_on_c, 0, 63, 0
2, 95179, Note_on_c, 0, 51, 0
2, 95383, Control_c, 0, 64, 0
2, 95417, Note_on_c, 0, 63, 46
2, 95417, Note_on_c, 0, 58, 49
2, 95417, Note_on_c, 0, 55, 45
2, 95417, Note_on_c, 0, 51, 46
2, 95463, Note_on_c, 0, 51, 0
2, 95463, Note_on_c, 0, 63, 0
2, 95463, Note_on_c, 0, 58, 0
2, 95463, Note_on_c, 0, 55, 0
2, 95595, Note_on_c, 0, 58, 46
2, 95595, Note_on_c, 0, 51, 46
2, 95595, Note_on_c, 0, 55, 40
2, 95595, Note_on_c, 0, 63, 45
2, 96232, Note_on_c, 0, 58, 0
2, 96249, Note_on_c, 0, 51, 0
2, 96249, Note_on_c, 0, 55, 0
2, 96288, Note_on_c, 0, 63, 0
2, 96288, End_track
3, 0, Start_track
3, 0, MIDI_port, 0
3, 0, Title_t, "2nd Movement"
3, 0, End_track
0, 0, End_of_file
